<svg version="1.1" xmlns="http://www.w3.org/2000/svg" xmlns:xlink="http://www.w3.org/1999/xlink" width="8.06666" height="11.06173" viewBox="0,0,8.06666,11.06173"><g transform="translate(-235.91666,-174.51912)"><g data-paper-data="{&quot;isPaintingLayer&quot;:true}" fill-rule="nonzero" stroke="none" stroke-linecap="butt" stroke-linejoin="miter" stroke-miterlimit="10" stroke-dasharray="" stroke-dashoffset="0" style="mix-blend-mode: normal"><path d="M235.91667,185.58086v-11.06173h8.06666v11.06173z" fill="#000000" stroke-width="0"/><path d="M243.97907,179.06983c0,0.96463 -0.27561,1.79145 -0.82682,2.48046c-1.17133,1.37803 -2.1704,2.34266 -2.99722,2.89387h-4.1341c0.68901,-0.48231 1.55028,-1.17132 2.58381,-2.06705c-0.37896,-0.15158 -0.81993,-0.46508 -1.32291,-0.9405c-0.49609,-0.47543 -0.74414,-1.26435 -0.74414,-2.36678c0,-0.89572 0.32728,-1.70531 0.98185,-2.42878c0.65457,-0.72347 1.56751,-1.0852 2.73884,-1.0852c1.17133,0 2.08428,0.36173 2.73884,1.0852c0.65457,0.72347 0.98185,1.53306 0.98185,2.42878zM240.56844,180.10337c0.41341,-0.34451 0.72347,-0.72347 0.93017,-1.13688c0.13781,-0.48231 0.03446,-0.86127 -0.31005,-1.13688c-0.55121,-0.20671 -1.03353,-0.1378 -1.44694,0.20671c-0.34451,0.34451 -0.62011,0.68901 -0.82682,1.03352c-0.20671,0.48231 -0.13781,0.89572 0.2067,1.24023c0.48231,0.20671 0.96463,0.13781 1.44694,-0.2067z" fill="#ffffff" stroke-width="0.26458"/></g></g></svg>