<svg version="1.1" xmlns="http://www.w3.org/2000/svg" xmlns:xlink="http://www.w3.org/1999/xlink" width="21.52617" height="40.63809" viewBox="0,0,21.52617,40.63809"><g transform="translate(-230.37546,-158.98466)"><g data-paper-data="{&quot;isPaintingLayer&quot;:true}" fill-rule="nonzero" stroke-linejoin="miter" stroke-miterlimit="10" stroke-dasharray="" stroke-dashoffset="0" style="mix-blend-mode: normal"><g data-paper-data="{&quot;index&quot;:null}"><g data-paper-data="{&quot;index&quot;:null}" stroke="none" stroke-width="0" stroke-linecap="butt"><path d="M239.00244,199.515c-1.03026,0.75088 -1.19991,-2.63227 -1.15601,-3.65607c-0.09423,-1.18773 0.62723,-3.32775 0.62723,-3.32775c0,0 0.41062,-1.5061 0.89773,-0.62757c0.22675,0.40896 0.47368,0.79144 0.66842,1.1908c0.22359,0.45855 0.37835,0.9394 0.35466,1.5082c0,0 0.01827,3.88454 -1.39203,4.91239z" data-paper-data="{&quot;index&quot;:null}" fill="#54c81c"/><path d="M238.2672,189.48333l-0.11874,-5.61993l1.45853,-0.16053c0,0 0.26994,3.61215 0.0457,5.6444c-0.09092,0.64158 0.03709,4.8131 0.03709,4.8131c0,0 -0.05431,2.34931 -0.34496,2.91447c-0.36972,0.7189 -0.999,-0.33903 -1.04592,-0.6961c0,0 0.08851,-1.36672 0.10936,-2.22221c0.03081,-1.26462 -0.14107,-4.67319 -0.14107,-4.67319z" data-paper-data="{&quot;index&quot;:null}" fill="#ffffff"/></g><path d="M239.55003,195.59543l0.42857,0.35715" fill="none" stroke="#000000" stroke-width="0.5" stroke-linecap="round"/><path d="M239.33574,196.59545l0.35714,0.35715" fill="none" stroke="#000000" stroke-width="0.5" stroke-linecap="round"/></g><g data-paper-data="{&quot;index&quot;:null}"><g><path d="M241.76232,168.4784c4.22349,1.68803 3.07193,4.68363 3.16839,4.93106c0.03064,0.26669 -0.09421,0.5236 -0.17323,0.77206c-0.33502,0.88874 -0.75729,1.74083 -1.17099,2.59535c-0.15036,0.35991 -0.4937,0.5921 -0.85039,0.71775c-0.38498,0.12874 -0.79818,0.02738 -1.19155,-0.00322c-0.60592,-0.06916 -1.19957,-0.22155 -1.75761,-0.46698c-0.70192,-0.26538 -1.55071,-0.69726 -2.00572,-1.34013c-0.34407,-0.35297 -0.28305,-0.31762 -0.64792,-0.6577c-0.67579,-0.81713 -0.94524,-1.91102 -0.88137,-2.957c0.03349,-0.62708 0.17405,-1.25964 0.46665,-1.81851c0.1373,-0.22983 1.54269,-3.17196 5.04374,-1.77267z" data-paper-data="{&quot;index&quot;:null}" fill="#f0e9bb" stroke="none" stroke-width="0.17188" stroke-linecap="butt"/><path d="M238.66308,166.26703c0.36203,0.6017 -2.5903,2.6047 -2.11456,2.26541c-0.42494,-0.56103 -0.58868,-1.39601 -0.51419,-1.96499c0.0068,-0.0521 0.11428,-0.16164 0.11428,-0.16164c-0.09373,-0.01119 0.05935,-0.07168 0.10269,-0.15778c0.03404,-0.06776 0.01678,-0.24579 0.01678,-0.24579c-0.04988,0.01271 0.20026,-0.02028 0.30459,-0.06478c0.08619,-0.03671 0.07257,-0.08709 0.13895,-0.1047c0.46634,-0.12496 1.13796,-0.01983 1.95151,0.43426z" data-paper-data="{&quot;index&quot;:null}" fill="#ed3e67" stroke="none" stroke-width="0.17188" stroke-linecap="butt"/><path d="M244.82499,173.22848c-0.01775,-0.10483 -0.10155,-0.19663 -0.21857,-0.34221c-0.0879,-0.10951 -0.25833,-0.32261 -0.30453,-0.41741c-0.11601,-0.238 -0.9941,-0.6013 -1.96339,-0.55425c-0.96929,0.04704 -1.96281,1.139 -2.06787,0.8583c-0.03994,-0.10674 -0.3939,-0.83171 -0.40786,-0.58241c-0.00236,0.04121 -0.43611,0.15008 -0.45559,0.17062c-0.05247,0.05506 -0.40994,-1.29248 -0.67932,-1.66261c-0.26938,-0.37012 -1.15756,-0.91682 -1.23212,-0.97016c-0.11197,-0.08023 -0.22646,-0.00863 -0.28271,0.11197c-0.07135,0.15249 -0.90513,2.04973 -0.87372,3.01199c0.03141,0.96225 1.02786,2.58582 0.9303,2.20107c-0.04396,-0.17367 -1.05998,1.14043 -1.40032,1.17349c-0.24297,0.02381 -1.01273,-2.24786 -0.02814,-4.82761c0.46785,-1.22582 1.40251,-2.65744 1.6191,-2.94563l0.4231,-0.56306c0.61777,-0.62016 1.34362,-1.10478 2.19425,-1.43291c0.05417,-0.02092 0.89287,-0.4593 2.06231,-0.40749c0.73852,0.03267 1.84485,0.4196 1.93105,0.45167c0.50544,0.1881 1.49777,0.53941 2.31804,1.08321c0.52178,0.3459 0.91989,0.82611 1.25293,1.20982c0.0599,0.06884 -1.12935,0.7331 -1.07031,0.79535c0.02872,0.0301 -0.54816,0.86442 -0.57363,0.95537l-0.17016,0.60728c-0.17197,0.61392 0.13185,1.42848 0.19855,1.54459c0.09119,0.15905 0.42284,0.66332 0.57475,0.72677l0.51183,0.21436c0.0702,0.02917 0.8621,-0.17933 0.89425,-0.11675c0.11322,0.22057 -0.31931,1.08238 -0.42257,1.24478l-0.54333,0.85478c-0.17507,0.27529 -0.25588,0.43749 -0.60245,0.77549c-0.47533,0.46396 -0.9528,0.92608 -1.55648,1.28385c-0.48782,0.28921 -2.52193,0.85132 -2.43432,0.71349l0.74356,-1.17321l0.91102,-1.712l0.72239,-2.28054z" data-paper-data="{&quot;index&quot;:null}" fill="#54c81c" stroke="none" stroke-width="0.17188" stroke-linecap="butt"/><path d="M249.1671,173.22294c-1.09141,-0.04395 -1.56196,-2.54493 -1.56196,-2.54493c0.14091,-0.36379 1.31861,-0.76246 2.29224,-0.26743c0.7441,0.3785 1.14986,0.8339 1.27866,1.255c0.01839,0.0601 -0.02721,0.07644 -0.01402,0.16164c0.01614,0.103 0.11145,0.31093 0.0972,0.26614c0,0 -0.14614,0.08139 -0.18203,0.14318c-0.04569,0.07861 -0.01831,0.22743 -0.07228,0.16199c0,0 -0.03272,0.14002 -0.06979,0.17283c-0.40411,0.35882 -1.12888,0.67724 -1.768,0.6516z" data-paper-data="{&quot;index&quot;:null}" fill="#ed3e67" stroke="none" stroke-width="0.17188" stroke-linecap="butt"/><path d="M246.61223,171.04011c0.06744,0.10005 0.1882,-0.49126 0.52269,-0.98442c0.35711,-0.52665 0.94201,-0.95606 1.45066,-0.79151c0.29368,0.0951 0.5157,0.2865 0.73131,0.44976c0.44481,0.33672 0.71749,0.67632 0.51565,0.67602c-0.34253,-0.00038 -0.80794,0.06584 -1.13344,0.14752c-0.46421,0.11638 -0.77488,0.22288 -0.76473,0.24964l0.65337,1.72009l0.5984,0.75349c0.10288,0.11642 -0.3271,0.2059 -0.77734,0.21568c-0.38869,0.00862 -0.70219,0.1259 -0.83372,0.11597c-0.58597,-0.04334 -0.42268,-0.26101 -0.90769,-0.83039c-0.28199,-0.33112 -0.15635,-1.87245 -0.05519,-1.72183z" data-paper-data="{&quot;index&quot;:null}" fill="#54c81c" stroke="none" stroke-width="0.17188" stroke-linecap="butt"/><path d="M245.90696,170.72793c0.50681,-1.22751 1.55453,-2.44054 2.24551,-1.70912c0.28984,0.30664 -0.34712,0.32978 -0.90291,0.95617c-0.35371,0.39864 -0.66109,1.10162 -0.71827,2.08469c-0.00585,0.10315 0.07903,0.34168 0.20035,0.65491c0.18579,0.48013 1.58957,0.79974 1.33561,0.84311l-0.99182,0.16902l-0.5288,-0.32492c-0.37201,-0.11458 -1.10336,-1.5506 -0.63968,-2.67384z" data-paper-data="{&quot;index&quot;:null}" fill="#ead32e" stroke="none" stroke-width="0.17188" stroke-linecap="butt"/><path d="M238.69124,167.2327c-0.17359,0.22784 -0.63012,0.49967 -0.63012,0.49967c0.00798,-0.14094 0.20659,-0.30029 0.24695,-0.4141c0.09326,-0.26313 0.52346,-0.82727 1.1582,-1.08426l0.36096,-0.14605c0.17772,-0.072 0.70334,-0.01244 0.7732,0.08307c0.05451,0.19036 -0.64928,0.28095 -1.23848,0.6566c-0.28244,0.18008 -0.6707,0.40508 -0.6707,0.40508z" data-paper-data="{&quot;index&quot;:null}" fill="#ead32e" stroke="none" stroke-width="0.17188" stroke-linecap="butt"/><path d="M238.57637,167.10089c-0.10713,0.11064 -0.56126,0.68472 -0.77467,0.97205l-0.84117,1.13234c-0.06187,0.08332 -0.56704,-0.7138 -0.40652,-0.97873c0.00106,-0.37036 0.21201,-0.60687 0.36525,-0.87987c0.25998,-0.26282 0.68529,-0.59225 0.92569,-0.69922c0.19363,-0.08614 0.20239,-0.59502 0.39367,-0.73317c0.28784,-0.20816 1.2807,0.21204 1.2807,0.21204z" data-paper-data="{&quot;index&quot;:null}" fill="#54c81c" stroke="none" stroke-width="0.17188" stroke-linecap="butt"/><path d="M244.29158,173.18318c0.16357,0.72795 -0.53221,1.50848 -1.12872,1.67479c-0.59651,0.16631 -1.21266,-0.28897 -1.37623,-1.01691c-0.16357,-0.72795 0.18741,-1.45289 0.78392,-1.6192c0.59651,-0.16631 1.55746,0.23339 1.72103,0.96134z" fill="#000000" stroke="none" stroke-width="0" stroke-linecap="butt"/><path d="M237.00801,170.41328c0.61123,-0.42785 1.49992,-0.07038 1.82877,0.45435c0.32884,0.52473 0.09993,1.29695 -0.5113,1.72479c-0.61123,0.42785 -1.37333,0.3493 -1.70217,-0.17543c-0.32884,-0.52473 -0.22652,-1.57587 0.38471,-2.00372z" data-paper-data="{&quot;index&quot;:null}" fill="#000000" stroke="none" stroke-width="0" stroke-linecap="butt"/><path d="M241.52745,176.3445l-0.58482,0.18913" fill="none" stroke="#000000" stroke-width="0.25" stroke-linecap="round"/><path d="M239.79208,176.38061l0.58358,0.15455" fill="none" stroke="#000000" stroke-width="0.25" stroke-linecap="round"/><path d="M239.2085,176.22608l-0.55951,-0.21671" fill="none" stroke="#000000" stroke-width="0.25" stroke-linecap="round"/><path d="M238.19983,175.69241l-0.44917,-0.31696" fill="none" stroke="#000000" stroke-width="0.25" stroke-linecap="round"/><path d="M237.49805,174.92012l-0.21452,-0.36907" fill="none" stroke="#000000" stroke-width="0.25" stroke-linecap="round"/><path d="M242.30876,175.9657l-0.43811,0.02018l-0.13097,-0.51867" fill="none" stroke="#000000" stroke-width="0.25" stroke-linecap="round"/><path d="M237.58668,173.79081l-0.36777,0.38848l-0.37235,-0.23173" data-paper-data="{&quot;index&quot;:null}" fill="none" stroke="#000000" stroke-width="0.25" stroke-linecap="round"/><path d="M243.71119,173.24182l-1.39462,0.633" fill="none" stroke="#ffffff" stroke-width="0.25" stroke-linecap="round"/><path d="M242.83684,172.79771l0.42253,1.52379" fill="none" stroke="#ffffff" stroke-width="0.25" stroke-linecap="round"/><path d="M243.801,173.58791c-0.2079,-0.00781 -0.37011,-0.18269 -0.3623,-0.39059c0.00781,-0.2079 0.18269,-0.37011 0.39059,-0.3623c0.2079,0.00781 0.37011,0.18269 0.3623,0.39059c-0.00781,0.2079 -0.18269,0.37011 -0.39059,0.3623z" fill="#ffffff" stroke="none" stroke-width="0" stroke-linecap="butt"/><path d="M242.20105,174.21318c-0.2079,-0.00781 -0.37011,-0.18269 -0.3623,-0.39059c0.00781,-0.2079 0.18269,-0.37011 0.39059,-0.3623c0.20789,0.00781 0.37011,0.18269 0.3623,0.39059c-0.00781,0.20789 -0.18269,0.37011 -0.39059,0.3623z" fill="#ffffff" stroke="none" stroke-width="0" stroke-linecap="butt"/><path d="M242.7949,173.00177c-0.2079,-0.00781 -0.37011,-0.18269 -0.3623,-0.39059c0.00781,-0.2079 0.18269,-0.37011 0.39059,-0.3623c0.2079,0.00781 0.37012,0.18269 0.36231,0.39059c-0.00781,0.20789 -0.1827,0.37011 -0.3906,0.3623z" fill="#ffffff" stroke="none" stroke-width="0" stroke-linecap="butt"/><path d="M243.20971,174.7309c-0.2079,-0.00781 -0.37011,-0.18269 -0.3623,-0.39059c0.00781,-0.2079 0.18269,-0.37011 0.39059,-0.3623c0.20789,0.00781 0.37011,0.18269 0.3623,0.39059c-0.00781,0.20789 -0.18269,0.37011 -0.39059,0.3623z" fill="#ffffff" stroke="none" stroke-width="0" stroke-linecap="butt"/><path d="M237.01226,171.89297l1.39462,-0.633" fill="none" stroke="#ffffff" stroke-width="0.25" stroke-linecap="round"/><path d="M237.95506,172.33965l-0.42253,-1.52379" fill="none" stroke="#ffffff" stroke-width="0.25" stroke-linecap="round"/><path d="M238.49669,171.60601c-0.2079,-0.00781 -0.37011,-0.18269 -0.3623,-0.39059c0.00781,-0.2079 0.18269,-0.37011 0.39059,-0.3623c0.2079,0.00781 0.37011,0.18269 0.3623,0.39059c-0.00781,0.2079 -0.18269,0.37011 -0.39059,0.3623z" fill="#ffffff" stroke="none" stroke-width="0" stroke-linecap="butt"/><path d="M236.89674,172.23133c-0.2079,-0.00781 -0.37011,-0.18269 -0.3623,-0.39059c0.00781,-0.2079 0.18269,-0.37011 0.39059,-0.3623c0.20789,0.00781 0.37011,0.18269 0.3623,0.39059c-0.00781,0.20789 -0.18269,0.37011 -0.39059,0.3623z" fill="#ffffff" stroke="none" stroke-width="0" stroke-linecap="butt"/><path d="M237.49059,171.01987c-0.2079,-0.00781 -0.37011,-0.18269 -0.3623,-0.39059c0.00781,-0.2079 0.18269,-0.37011 0.39059,-0.3623c0.2079,0.00781 0.37012,0.18269 0.36231,0.39059c-0.00781,0.20789 -0.1827,0.37011 -0.3906,0.3623z" fill="#ffffff" stroke="none" stroke-width="0" stroke-linecap="butt"/><path d="M237.9054,172.749c-0.2079,-0.00781 -0.37011,-0.18269 -0.3623,-0.39059c0.00781,-0.2079 0.18269,-0.37011 0.39059,-0.3623c0.20789,0.00781 0.37011,0.18269 0.3623,0.39059c-0.00781,0.20789 -0.18269,0.37011 -0.39059,0.3623z" fill="#ffffff" stroke="none" stroke-width="0" stroke-linecap="butt"/></g><g><path d="M242.70369,167.67748c0,0 0.38564,-1.89143 0.25957,-3.15121c-0.12607,-1.25978 -1.12271,-1.97468 -1.12271,-1.97468l0.43697,-0.61209c0,0 1.28792,1.2013 1.42442,2.52615c0.1365,1.32485 -0.35049,3.39469 -0.35049,3.39469z" fill="#000000" stroke="none" stroke-width="0" stroke-linecap="butt"/><path d="M239.3393,162.52881l-2.62501,-3.37404l4.54378,0.06292l1.52811,3.34027z" fill="#ea035a" stroke="none" stroke-width="0" stroke-linecap="butt"/><path d="M242.61809,162.55379l-5.76798,-3.43334" fill="none" stroke="#000000" stroke-width="0.25" stroke-linecap="round"/><path d="M241.31795,159.10967l-0.00802,2.59082l-1.99644,0.81846" fill="none" stroke="#000000" stroke-width="0.25" stroke-linecap="round"/></g></g><g data-paper-data="{&quot;index&quot;:null}"><g data-paper-data="{&quot;index&quot;:null}" stroke="none" stroke-width="0" stroke-linecap="butt"><path d="M237.58035,182.37058c0,0 -1.68914,1.02214 -3.15773,1.53393c-0.80949,0.28211 -1.72934,0.6549 -2.32137,0.85244c-1.00033,0.33374 -1.72579,1.12588 -1.72579,1.12588c0,0 0.63674,-1.65764 0.82955,-2.11729c0.19281,-0.45965 0.39103,-0.89406 0.56633,-0.82812c0.17529,0.06593 5.80901,-0.56685 5.80901,-0.56685z" fill="#54c81c"/><path d="M236.43954,182.88689c-2.95714,1.15175 -4.99699,0.31914 -4.99699,0.31914c0,0 0.80437,-2.21887 4.05972,-3.19732c2.54433,-0.76475 3.76991,0.07198 4.25336,-0.13066c1.40566,-0.58918 1.15641,-0.57475 1.15641,-0.57475c0,0 -0.36405,1.98344 -4.47249,3.58359z" fill="#ffffff"/></g><path d="M233.42484,183.2335l-0.50092,0.49473" fill="none" stroke="#ffffff" stroke-width="0.25" stroke-linecap="round"/><path d="M232.20836,183.2335l-0.3578,0.49473" fill="none" stroke="#ffffff" stroke-width="0.25" stroke-linecap="round"/></g><g data-paper-data="{&quot;index&quot;:null}"><g data-paper-data="{&quot;index&quot;:null}" stroke="none" stroke-width="0" stroke-linecap="butt"><path d="M233.40334,186.37025c0.39703,-1.31345 1.64754,-2.9797 1.64754,-2.9797l4.60496,2.85212c0,0 -2.72379,1.32173 -3.65049,2.05978c-0.92671,0.73806 -2.09051,2.10349 -2.09051,2.10349c0,0 -1.0367,-2.29826 -0.5115,-4.03569z" fill="#54c81c"/><path d="M234.46363,187.35645c-1.18262,-1.04099 0.0166,-3.40945 0.58725,-3.96589c0.56636,-0.55225 1.05846,-1.6712 4.0193,-2.35262c2.01937,-0.46474 2.54129,-1.56846 2.54129,-1.56846l0.88573,0.31463c0,0 0.68243,3.33135 -0.7932,5.02295c-1.38049,1.58252 -5.97854,3.42509 -7.11536,2.42439z" fill="#ffffff"/></g><path d="M235.91856,187.78848l0.63104,-0.72346" fill="none" stroke="#ffffff" stroke-width="0.25" stroke-linecap="round"/><path d="M235.14507,186.85955l-0.55712,0.72346" fill="none" stroke="#ffffff" stroke-width="0.25" stroke-linecap="round"/><path d="M233.83733,186.75511l0.71637,-0.85446" fill="none" stroke="#ffffff" stroke-width="0.25" stroke-linecap="round"/></g><g data-paper-data="{&quot;index&quot;:null}"><g data-paper-data="{&quot;index&quot;:null}" stroke="none" stroke-width="0" stroke-linecap="butt"><path d="M249.48919,183.40296c-0.78909,-0.13331 -3.8153,-0.12175 -3.8153,-0.12175c0,0 3.343,-0.27713 3.67502,-1.00338c0.33206,-0.72634 -2.06924,-2.52751 -1.42826,-2.36324c3.38535,0.86764 3.98098,4.10742 3.98098,4.10742c0,0 -1.62335,-0.48574 -2.41244,-0.61905z" fill="#54c81c"/><path d="M244.80562,179.38395c2.29042,-0.08272 4.89049,1.10775 5.40414,2.12422c0.51365,1.01647 -3.0936,1.91556 -4.58239,1.6789c-1.61261,-0.25634 -5.22365,-3.14324 -5.22365,-3.14324c0,0 2.51165,-0.59162 4.4019,-0.65988z" fill="#ffffff"/></g><path d="M249.50131,182.82501l-0.77026,-0.50714" fill="none" stroke="#ffffff" stroke-width="0.25" stroke-linecap="round"/><path d="M249.78141,181.7383l0.49018,0.36224" fill="none" stroke="#ffffff" stroke-width="0.25" stroke-linecap="round"/></g><g data-paper-data="{&quot;index&quot;:null}"><g data-paper-data="{&quot;index&quot;:null}" stroke="none" stroke-width="0" stroke-linecap="butt"><path d="M243.02572,186.14261c0,0 3.26152,0.62686 3.76839,-0.25343c0.51439,-0.89332 -0.94336,-4.05504 -0.94336,-4.05504c0,0 1.28962,0.32824 2.4321,2.73311c0.66153,1.38798 1.83739,4.93653 1.83739,4.93653c0,0 -2.77619,-1.24818 -4.37352,-1.67153c-1.32701,-0.35172 -2.72099,-1.68963 -2.72099,-1.68963z" fill="#54c81c"/><path d="M245.94633,181.79357c0.13694,0.10305 2.05822,2.57194 1.42525,4.16181c-0.59429,1.39292 -4.31623,0.20758 -4.31623,0.20758c0,0 -1.39446,-1.02812 -2.36968,-1.97488c-1.17165,-1.13744 -1.10943,-2.9908 -0.72313,-3.84754c0.38631,-0.85674 0.39196,0.25849 2.385,0.11843c1.50167,-0.10551 3.46755,1.23581 3.5988,1.33458z" fill="#ffffff"/></g><path d="M245.40526,186.90963l-0.36079,-0.42486" fill="none" stroke="#ffffff" stroke-width="0.25" stroke-linecap="round"/><path d="M246.92057,186.6972l-0.21647,-0.49567" fill="none" stroke="#ffffff" stroke-width="0.25" stroke-linecap="round"/><path d="M247.87282,185.39768l-0.95226,-0.75397" fill="none" stroke="#ffffff" stroke-width="0.25" stroke-linecap="round"/></g><g data-paper-data="{&quot;index&quot;:null}"><path d="M242.3504,181.28866c-0.36591,0.39828 -2.69739,-0.28309 -2.69739,-0.28309c-0.24658,-0.28197 -1.67704,-0.07531 -1.70209,-0.53654c-0.00974,-0.1801 0.14956,-1.14428 0.32786,-1.71279c0.1783,-0.56852 -0.05954,-0.98345 0.64221,-1.38034c0.70175,-0.39689 1.90661,-0.1482 2.06043,-0.1482c0.12177,0 0.72348,0.19835 1.07941,1.25421c0.35594,1.05586 0.59384,2.36369 0.28957,2.80676z" data-paper-data="{&quot;index&quot;:null}" fill="#319a2b" stroke="none" stroke-width="0.17188" stroke-linecap="butt"/><path d="M240.97724,181.03804c0.61263,0 1.39781,-0.03289 1.39781,-0.03289l0.22399,0.60534c0,0 -0.81357,-0.32402 -1.50188,-0.15139c-0.61138,0.03439 -1.24991,-0.3092 -1.15798,-0.46382c0.178,-0.29941 0.42542,0.04276 1.03805,0.04276z" data-paper-data="{&quot;index&quot;:null}" fill="#ead42f" stroke="none" stroke-width="0" stroke-linecap="butt"/><path d="M237.89111,180.38422c0,0 0.60465,0.11279 1.21306,0.18453c0.60841,0.07174 0.41111,0.46852 -0.19203,0.36277c-0.66335,-0.25204 -1.3616,-0.05504 -1.3616,-0.05504l0.34058,-0.49225z" data-paper-data="{&quot;index&quot;:null}" fill="#ead42f" stroke="none" stroke-width="0" stroke-linecap="butt"/><path d="M240.95856,181.15587l-0.07853,-0.38091" fill="none" stroke="#ffffff" stroke-width="0.25" stroke-linecap="round"/><path d="M241.90424,181.16008l-0.09109,-0.32829" fill="none" stroke="#ffffff" stroke-width="0.25" stroke-linecap="round"/><path d="M238.80062,180.62706l0.03093,-0.30573" fill="none" stroke="#ffffff" stroke-width="0.25" stroke-linecap="round"/><path d="M238.01451,180.65296l0.147,-0.38175" fill="none" stroke="#ffffff" stroke-width="0.25" stroke-linecap="round"/></g><g data-paper-data="{&quot;index&quot;:null}" stroke="none" stroke-linecap="butt"><path d="M239.97598,177.35823c0.17008,0.06905 0.3072,0.33949 0.39108,0.72079c0.08399,0.38126 0.11481,0.87325 0.07258,1.38519c-0.0422,0.51204 -0.14953,0.94795 -0.28883,1.23853c-0.1394,0.29062 -0.31073,0.43601 -0.48082,0.36696c-0.17021,-0.06911 -0.30722,-0.33958 -0.3912,-0.72085c-0.08388,-0.3813 -0.11481,-0.87325 -0.07258,-1.38519c0.04219,-0.51204 0.14963,-0.94798 0.28893,-1.23856c0.1393,-0.29058 0.31062,-0.43597 0.48084,-0.36686z" fill="#eb3d66" stroke-width="0.01872"/><path d="M239.86389,178.3252c0.20905,0.00794 0.3635,0.4098 0.34498,0.89758c-0.01852,0.48778 -0.203,0.87677 -0.41205,0.86883c-0.20905,-0.00794 -0.3635,-0.4098 -0.34498,-0.89758c0.01852,-0.48778 0.203,-0.87677 0.41205,-0.86883z" fill="#492116" stroke-width="0"/><path d="M240.08428,177.56194c0.07287,0.00749 0.14677,0.09569 0.20751,0.23227c0.06069,0.1365 0.10811,0.32141 0.12783,0.52204c0.01966,0.20055 0.00797,0.3793 -0.02692,0.50605c-0.03488,0.12675 -0.09285,0.20152 -0.16563,0.19397c-0.07281,-0.00742 -0.14676,-0.0957 -0.2075,-0.23228c-0.06068,-0.13652 -0.10813,-0.3213 -0.12777,-0.52198c-0.0197,-0.20063 -0.00801,-0.37938 0.02688,-0.50613c0.03481,-0.1267 0.0928,-0.20139 0.16562,-0.19397z" fill="#ffffff" stroke-width="0.01896"/></g><g data-paper-data="{&quot;index&quot;:null}"><g stroke="none" stroke-width="0" stroke-linecap="butt"><path d="M243.79983,176.94107l0.26334,0.68188l-2.49808,1.08205l-0.08284,-0.85519z" fill="#319a2b"/><path d="M243.80994,176.7564c0.4351,-0.42056 3.18798,-1.67287 3.18798,-1.67287l0.06707,1.53375c0,0 -1.89787,0.9343 -2.96002,1.05215c-0.43957,0.04878 -0.76051,-0.46313 -0.29503,-0.91302z" fill="#ead42f"/><path d="M248.9779,177.46718c0.37636,1.4179 -0.639,3.12634 -1.02792,3.02817c-1.22972,-0.3104 -1.5592,-0.96753 -2.04961,-2.35014c-0.594,-1.67465 0.8616,-3.41486 1.73308,-3.29119c0.28531,0.0405 0.9681,1.19525 1.34446,2.61316z" fill="#f0e9bb"/></g><path d="M246.94967,179.76288c0,0 -0.38152,-1.47484 -0.19089,-2.42332c0.19063,-0.94847 0.93165,-2.31332 0.93165,-2.31332" fill="none" stroke="#d3c49c" stroke-width="0.25" stroke-linecap="round"/><path d="M247.73259,175.98101l-0.78377,-0.26885" fill="none" stroke="#ffffff" stroke-width="0.5" stroke-linecap="round"/><path d="M247.21037,177.15203l-0.62825,-0.18335" fill="none" stroke="#ffffff" stroke-width="0.5" stroke-linecap="round"/><path d="M246.45951,178.07582l0.63135,0.10406" fill="none" stroke="#ffffff" stroke-width="0.5" stroke-linecap="round"/><path d="M246.65101,179.27469l0.47583,0.01856" fill="none" stroke="#ffffff" stroke-width="0.5" stroke-linecap="round"/></g><g data-paper-data="{&quot;index&quot;:null}"><g stroke="#ffffff" stroke-width="0" stroke-linecap="butt"><path d="M238.86297,177.48137l-0.24652,0.82307l-2.24195,-1.54431l0.39014,-0.61815z" data-paper-data="{&quot;index&quot;:null}" fill="#319a2b"/><path d="M236.79042,175.95884c0.36978,0.53137 -0.04401,0.97159 -0.46589,0.83881c-1.01935,-0.32084 -2.70096,-1.60423 -2.70096,-1.60423l0.36214,-1.4919c0,0 2.45904,1.76061 2.80469,2.25732z" data-paper-data="{&quot;index&quot;:null}" fill="#ead42f"/><path d="M233.43514,173.37352c0.87464,0.09888 1.84718,2.14857 0.85213,3.62068c-0.82153,1.2154 -1.30531,1.76888 -2.57358,1.76091c-0.40113,-0.00253 -0.95549,-1.91102 -0.2355,-3.1892c0.71998,-1.27817 1.67058,-2.22477 1.95695,-2.19239z" data-paper-data="{&quot;index&quot;:null}" fill="#f0e9bb"/></g><path d="M232.9618,173.77314c0,0 0.42034,1.49506 0.39616,2.4622c-0.02417,0.96714 -0.72288,2.32086 -0.72288,2.32086" data-paper-data="{&quot;index&quot;:null}" fill="none" stroke="#d3c49c" stroke-width="0.25" stroke-linecap="round"/><path d="M233.53304,174.60623l-0.82385,0.08859" data-paper-data="{&quot;index&quot;:null}" fill="none" stroke="#ffffff" stroke-width="0.5" stroke-linecap="round"/><path d="M233.61235,175.91274l-0.65325,0.03967" data-paper-data="{&quot;index&quot;:null}" fill="none" stroke="#ffffff" stroke-width="0.5" stroke-linecap="round"/><path d="M233.48671,177.01957l-0.63871,-0.03836" data-paper-data="{&quot;index&quot;:null}" fill="none" stroke="#ffffff" stroke-width="0.5" stroke-linecap="round"/><path d="M233.03445,178.14627l-0.46813,-0.08729" data-paper-data="{&quot;index&quot;:null}" fill="none" stroke="#ffffff" stroke-width="0.5" stroke-linecap="round"/></g><g data-paper-data="{&quot;index&quot;:null}"><g data-paper-data="{&quot;index&quot;:null}" stroke="none" stroke-width="0" stroke-linecap="butt"><path d="M244.3944,198.95433c-1.60914,-0.6754 -2.48604,-4.45971 -2.48604,-4.45971c-0.15406,-0.54805 -0.11422,-1.0516 -0.00226,-1.54934c0.09752,-0.43349 0.24973,-0.86254 0.37619,-1.31274c0.27167,-0.9671 1.01813,0.40393 1.01813,0.40393c0,0 1.19495,1.91631 1.37683,3.09382c0.27853,0.98616 0.89265,4.31742 -0.28285,3.82403z" data-paper-data="{&quot;index&quot;:null}" fill="#54c81c"/><path d="M242.79935,189.02307c0,0 0.6178,3.3565 0.93907,4.58004c0.21733,0.82769 0.61824,2.13726 0.61824,2.13726c0.03658,0.35827 -0.3321,1.53271 -0.85748,0.91829c-0.413,-0.48302 -1.00695,-2.75666 -1.00695,-2.75666c0,0 -0.83623,-4.08886 -1.07247,-4.69225c-0.68629,-1.92597 -1.25555,-5.50316 -1.25555,-5.50316l1.45629,-0.17972l1.17886,5.49618z" data-paper-data="{&quot;index&quot;:null}" fill="#ffffff"/></g><path d="M243.26518,196.7841l0.26528,-0.42979" fill="none" stroke="#000000" stroke-width="0.5" stroke-linecap="round"/><path d="M242.89582,195.84391l0.19578,-0.41334" fill="none" stroke="#000000" stroke-width="0.5" stroke-linecap="round"/></g></g></g></svg>