<svg version="1.1" xmlns="http://www.w3.org/2000/svg" xmlns:xlink="http://www.w3.org/1999/xlink" width="33.21789" height="38.49036" viewBox="0,0,33.21789,38.49036"><g transform="translate(-221.78393,-162.44175)"><g data-paper-data="{&quot;isPaintingLayer&quot;:true}" fill-rule="nonzero" stroke="none" stroke-linecap="butt" stroke-linejoin="miter" stroke-miterlimit="10" stroke-dasharray="" stroke-dashoffset="0" style="mix-blend-mode: normal"><path d="M241.20618,176.74047c0,0 -0.04878,2.42503 -1.77608,3.85835c-1.90815,1.5834 -6.13288,1.86112 -6.13288,1.86112l2.3758,-2.64768l0.17113,-5.12718z" fill="#2095ad" stroke-width="0"/><path d="M244.31919,175.14394c0.08883,-1.62629 0.04137,-9.8424 1.17656,-9.8424c1.06425,0 2.49957,4.02886 2.44989,6.87721c-0.05707,3.27475 -1.19876,6.37162 -1.19876,7.24271c0,1.62874 1.6086,4.82579 1.6086,4.82579c0,0 -4.54178,-1.22714 -4.03629,-9.10331z" fill="#2095ad" stroke-width="0"/><path d="M240.8653,176.53399c0.07474,-0.67529 1.51459,-0.32751 1.97876,-0.87562c0.94267,-1.11315 1.21195,-2.84995 1.31117,-2.84995c0.14805,0 0.36734,4.31831 0.44683,5.22794c0.44683,5.11332 -0.89367,6.30033 -0.89367,6.30033c0,0 -3.23157,-4.29292 -2.8431,-7.80272z" fill="#0d4d58" stroke-width="0"/><g data-paper-data="{&quot;index&quot;:null}" stroke-width="0.17188"><path d="M247.62777,178.87218c-1.45372,0.10173 -3.62389,-0.33057 -4.4516,-0.62068c-0.82771,-0.29011 -2.19295,-1.13821 -1.89826,-1.43058c0.29467,-0.29251 2.52586,-0.14937 4.08439,-0.20407c0.98503,-0.03442 2.18052,-0.08926 3.09513,0.16714c0.60091,0.16868 1.26846,1.00824 1.28562,1.51203c0.01428,0.38994 -1.63463,0.54246 -2.11525,0.57616z" data-paper-data="{&quot;index&quot;:null}" fill="#09649e"/><path d="M249.73195,178.27865c0.00696,-0.00751 0.20837,-0.7211 0.21512,-0.9491c0.01155,-0.38365 -0.16917,-0.15106 -0.00412,-0.59512c0.12242,-0.32931 0.69381,0.21102 1.6923,0.16556c0.23307,-0.01061 1.69529,-0.08764 1.7831,-0.00646c0.2967,0.09328 0.96694,-0.0094 1.00596,0.36291c0.03902,0.37232 -0.84025,0.09824 -0.84025,0.09824c0,0 1.23162,-0.01331 1.15361,0.36346c-0.12564,0.3402 -1.1907,-0.03524 -1.2964,-0.02247c-0.23929,0.02892 1.10461,0.42687 0.86215,0.64594c-0.27949,0.25251 -1.74038,-0.6158 -2.56998,0.13991c-0.69337,0.44098 1.3109,0.17149 1.35876,0.69067c-0.6733,0.34227 -1.31768,0.39772 -2.68514,0.01377c-0.25752,-0.12093 -0.56903,-0.03172 -0.71258,-0.15868c-0.12717,-0.12013 -0.27276,-0.42032 0.03748,-0.7486z" fill="#ebd9bb"/><path d="M248.28492,179.21097c-0.23945,-0.1926 0.1914,-1.70623 0.1914,-1.70623c0.09648,-0.2874 -0.08328,-1.01359 0.0822,-0.78712c0.03315,0.04534 -0.24381,-0.05118 -0.06726,-0.17739c0.11613,-0.08281 0.64175,-0.05669 0.80912,-0.10504c0.38656,-0.11172 0.90824,0.0256 1.29849,0.03011c0.36729,0.00433 0.40978,0.35724 0.51464,0.50061c0.15183,0.20712 0.0804,0.48478 -0.2434,0.86975c-0.39383,0.46819 -0.57462,0.92226 -0.58304,0.95414c0,0 -0.0963,0.39574 0.05539,0.48712c-0.49489,-0.28669 -1.58523,0.27047 -2.05753,-0.06596z" fill="#ecc51e"/></g><g stroke-width="0"><path d="M255.00182,186.03819c0,0 -1.69245,-0.58383 -2.81861,-0.76772c-1.12616,-0.18389 -5.44509,-0.16794 -5.44509,-0.16794c0,0 4.77104,-0.38227 5.24489,-1.38408c0.47391,-1.00194 -2.95315,-3.4865 -2.03837,-3.2599c4.83148,1.19684 5.05716,5.57964 5.05716,5.57964z" fill="#2095ad"/><path d="M238.68147,180.20574c0,0 4.11975,-0.38504 6.81747,-0.4792c3.26883,-0.11409 6.62278,1.52805 7.35585,2.93019c0.73307,1.40214 -4.05831,2.64236 -6.18308,2.31591c-2.30148,-0.3536 -7.99023,-4.76691 -7.99023,-4.76691z" fill="#ffffff"/></g><g stroke-width="0"><path d="M235.31844,183.85259c0,0 -2.35903,1.44535 -4.41001,2.16906c-1.13052,0.39891 -2.67701,0.66093 -3.50382,0.94025c-1.39703,0.47192 -1.53733,1.06179 -1.53733,1.06179c0,0 0.27824,-1.54859 0.54752,-2.19855c0.26928,-0.64997 0.54611,-1.26423 0.79092,-1.171c0.24481,0.09323 8.11272,-0.80156 8.11272,-0.80156z" fill="#2095ad"/><path d="M226.74657,185.03399c0,0 1.12337,-3.13758 5.6697,-4.52116c3.55335,-1.08138 5.26496,-0.25172 5.94012,-0.53826c0.45618,-0.1936 0.78755,-0.28977 1.0275,-0.37285c0.12767,-0.0442 0.26171,-0.59254 0.34264,-0.61546c0.42148,-0.1194 0.24487,0.52909 0.24487,0.52909c0,0 -0.50843,2.80467 -6.24617,5.06737c-4.12986,1.62862 -6.97866,0.45127 -6.97866,0.45127z" fill="#ffffff"/></g><g data-paper-data="{&quot;index&quot;:null}" stroke-width="0"><path d="M242.8088,189.38687c0,0 4.5171,0.88472 5.21911,-0.35767c0.71241,-1.26079 -1.30653,-5.72304 -1.30653,-5.72304c0,0 1.7861,0.46325 3.36839,3.85735c0.91619,1.9589 1.76567,7.05531 1.76567,7.05531c0,0 -3.15245,-1.58517 -5.36471,-2.18267c-1.83788,-0.49639 -3.68194,-2.64927 -3.68194,-2.64927z" fill="#2095ad"/><path d="M246.85376,183.24889c0.18966,0.14544 2.41776,3.62989 1.54113,5.87373c-0.82307,1.96588 -5.54505,0.29297 -5.54505,0.29297c0,0 -1.93128,-1.45103 -3.28193,-2.78722c-1.62271,-1.60531 -1.53654,-4.22104 -1.00152,-5.43018c0.53502,-1.20914 0.54283,0.36482 3.30315,0.16716c2.07977,-0.14891 4.80245,1.74416 4.98423,1.88355z" fill="#ffffff"/></g><g stroke-width="0"><path d="M231.25437,194.47999c0,0 -1.99763,-2.8737 -1.31489,-5.31131c0.51613,-1.84278 2.14174,-4.18051 2.14174,-4.18051l5.98623,4.00151c0,0 -3.5408,1.85438 -4.74547,2.88986c-1.20468,1.03549 -2.0676,2.60043 -2.0676,2.60043z" fill="#2095ad"/><path d="M231.6428,189.93853c-1.53734,-1.46051 -0.30342,-4.16964 0.43841,-4.95032c0.73623,-0.7748 1.37593,-2.34468 5.22489,-3.30071c2.62509,-0.65203 3.30357,-2.58191 3.30357,-2.58191l1.15141,0.82279c0,0 0.88714,4.67388 -1.03111,7.04718c-1.79457,2.22027 -7.60934,4.36693 -9.08715,2.96296z" fill="#ffffff"/></g><path d="M239.73492,200.78157c-1.02344,0.92166 -1.62821,-2.64546 -1.70798,-3.73653c-0.2499,-1.24812 0.26597,-3.60538 0.26597,-3.60538c0,0 0.25776,-1.64717 0.89511,-0.77478c0.29668,0.4061 0.61196,0.78166 0.87274,1.18148c0.29943,0.45908 0.52701,0.95018 0.57209,1.55627c0,0 0.50305,4.11727 -0.89793,5.37893z" fill="#09649e" stroke-width="0"/><path d="M247.35438,197.79313c-0.33285,1.23063 -2.58407,-1.30047 -3.19108,-2.12608c-0.81737,-0.86689 -1.59531,-2.98703 -1.59531,-2.98703c0,0 -0.62321,-1.43128 0.30677,-1.0515c0.43291,0.17679 0.86497,0.32028 1.26691,0.50964c0.46151,0.21743 0.88331,0.49535 1.2211,0.9536c0,0 2.44725,3.01678 1.99161,4.70137z" fill="#09649e" stroke-width="0"/><path d="M240.49809,189.69806l-1.86249,-5.15474l1.53646,-0.20533c0,0 0.72283,3.49484 1.82088,5.21955c0.33097,0.55709 2.54351,3.63082 2.54351,3.63082c0,0 1.42911,1.86544 1.5565,2.48806c0.16205,0.792 -0.99112,0.36141 -1.25134,0.11244c0,0 -0.78701,-1.12087 -1.30658,-1.80083c-0.76805,-1.00515 -3.03693,-4.28996 -3.03693,-4.28996z" fill="#ffffff" stroke-width="0"/><path d="M237.9929,189.6121l1.29642,-5.68774l1.32754,0.80032c0,0 -1.15808,2.75699 -1.37934,4.78955c-0.08997,0.64171 0.16116,4.87545 0.16116,4.87545c0,0 0.25911,2.58728 -0.03072,3.15286c-0.36868,0.71945 -0.88795,0.1386 -1.07912,-0.43245c-0.19117,-0.57104 -0.03211,-1.99024 -0.05938,-2.91427c-0.03317,-1.12409 -0.23656,-4.58373 -0.23656,-4.58373z" fill="#ffffff" stroke-width="0"/><g stroke-width="0.17188"><path d="M233.27524,178.5922c-0.47787,-0.06146 -2.11518,-0.30916 -2.07836,-0.69762c0.04629,-0.50195 0.76131,-1.30147 1.37097,-1.43508c0.92792,-0.20304 2.11823,-0.07909 3.09961,0.01228c1.55275,0.14481 3.78849,0.13105 4.06573,0.44012c0.27728,0.30894 -1.13477,1.0766 -1.97788,1.31832c-0.84311,0.24172 -3.03467,0.54768 -4.48007,0.36199z" data-paper-data="{&quot;index&quot;:null}" fill="#09649e"/><path d="M231.20896,177.87792c0.29072,0.34568 0.128,0.63694 -0.00591,0.74951c-0.15066,0.11844 -0.45648,0.01135 -0.72057,0.11717c-1.38739,0.30416 -2.02748,0.21151 -2.67984,-0.16916c0.07783,-0.51554 2.06314,-0.1305 1.39645,-0.61087c-0.78447,-0.80246 -2.29317,-0.02015 -2.55758,-0.28842c-0.22937,-0.23273 1.1353,-0.55224 0.89809,-0.59495c-0.10478,-0.01887 -1.18979,0.2943 -1.29553,-0.0526c-0.05608,-0.38065 1.17271,-0.29608 1.17271,-0.29608c0,0 -0.89366,0.22273 -0.83316,-0.14671c0.0605,-0.36943 0.72367,-0.22813 1.02528,-0.30408c0.09236,-0.07596 1.54768,0.08557 1.77974,0.10965c0.99418,0.10318 1.59589,-0.40318 1.69905,-0.06734c0.13907,0.45287 -0.02788,0.21021 -0.03856,0.59388c-0.00646,0.22801 0.15332,0.95206 0.15983,0.95996z" fill="#ebd9bb"/><path d="M232.59961,178.89242c-0.49098,0.30853 -1.54724,-0.3108 -2.0579,-0.05324c0.15673,-0.08245 0.08349,-0.48309 0.08349,-0.48309c-0.00656,-0.03231 -0.16077,-0.49609 -0.52684,-0.98628c-0.30097,-0.40306 -0.35621,-0.68439 -0.19266,-0.88238c0.11298,-0.13706 0.17582,-0.48692 0.54275,-0.46999c0.38985,0.01808 0.91861,-0.08881 1.29805,0.04509c0.16429,0.05795 0.69054,0.0623 0.80169,0.15169c0.16895,0.13622 -0.11313,0.21654 -0.07742,0.1732c0.17831,-0.21652 -0.04318,0.49806 0.03651,0.79055c0,0 0.34252,1.53603 0.09233,1.71445z" fill="#ecc51e"/></g><path d="M239.59744,176.64188c0.27251,0 1.27223,-0.15383 1.55758,0.01468c0.91399,0.5913 0.44364,1.54443 0.40456,3.01343c0.04114,0.18438 0.19368,0.59337 0.19368,0.59337c0,0 -0.68512,-0.29135 -0.96219,-0.42856c-0.1795,-0.08889 -0.53861,-0.31464 -0.53861,-0.31464c0,0 -0.44075,0.0734 -0.55348,0.05417c-0.22585,-0.03853 -1.08002,0.67774 -1.08002,0.67774l-0.11055,0.14195c0,0 0.18138,-0.40937 0.1735,-0.81523c-0.00944,-0.48635 -0.20346,-1.00254 -0.13155,-1.27342c0,0 0.47414,-1.66348 1.04707,-1.66348z" fill="#09649e" stroke-width="0"/><g stroke-width="0"><path d="M235.18421,167.96576c0,-0.04237 0.54261,-0.41338 1.08838,-0.99697c0.4541,-0.4856 0.01815,-1.26667 0.3999,-1.26667c0.84059,0 2.47821,-0.34366 2.47821,-0.26606c0,0.0776 -1.88061,2.67021 -2.7212,2.67021c-0.84059,0 -1.24531,-0.06293 -1.24531,-0.14056z" fill="#72878d"/><path d="M243.45332,166.16708l-1.48483,-0.52189c0,0 -0.14735,-1.42657 0.33835,-1.60663c2.55435,-0.94701 4.34968,2.87289 4.34968,2.87289c0,0 0.74906,3.57907 0.35843,6.4777c-0.42518,3.15494 -3.61935,8.08767 -3.61935,8.08767c0,0 0.60947,-5.74043 0.76618,-7.95946c0.10456,-1.48062 0.08281,-4.06033 0.08281,-4.06033z" fill="#2095ad"/><path d="M241.74235,163.33542c0,0 0.26271,-0.89367 1.02773,-0.89367c0.76502,0 0.84899,0.26808 0.84899,0.26808c0,0 2.21439,0.00444 2.53701,2.26224c0.02809,0.19661 -1.84024,-0.80459 -2.13487,-1.0111c-0.62645,-0.43909 -2.27886,-0.62558 -2.27886,-0.62558z" fill="#dceef3"/><path d="M238.25703,163.96097c0,-0.24679 1.40283,-1.21449 2.42667,-1.27176c0.6731,-0.03764 0.61182,0.64617 0.61182,0.64617c0,0 -0.69888,0.71492 -1.34048,0.71492c-0.6416,0 -1.69797,0.15742 -1.69797,-0.08937z" fill="#dceef3"/><path d="M241.65296,163.24606c1.13519,0 2.05544,0.33073 2.05544,0.84898c0,0.51823 -0.92025,0.75961 -2.05544,0.75961c-1.13515,0 -2.14477,-0.24135 -2.14477,-0.75961c0,-0.51826 1.00959,-0.84898 2.14477,-0.84898z" fill="#e8d548"/><path d="M242.27533,165.20156c0,-0.3768 0.4922,-0.88512 1.14658,-0.88512c0.65441,0 1.00779,0.65196 1.00779,1.02876c0,0.3768 -0.31506,0.03591 -0.96947,0.03591c-0.65441,0 -1.18489,0.19725 -1.18489,-0.17955z" fill="#72878d"/><path d="M234.59302,167.40159c0,0 -0.6694,-1.8337 0.24113,-2.92726c0.72979,-0.87646 1.63555,-0.69209 1.63555,-0.69209c0,0 0.43632,-0.48673 1.51595,-0.494c0.66245,-0.06965 1.8181,0.79716 1.87996,0.89615c0.36908,0.59042 -1.34733,-0.25773 -1.87788,-0.02104c-1.3601,0.60673 -3.39475,3.23824 -3.39475,3.23824z" fill="#dceef3"/><path d="M235.12923,168.07195c0,0 0.98655,-2.5116 1.56941,-2.5116c0.58289,0 0.18113,1.01641 0.18113,1.01641l-1.75054,1.49516z" fill="#dceef3"/><path d="M235.3079,170.66355c0,0 1.1822,-4.32301 1.94891,-4.75215c0.58942,-0.32989 2.25133,-0.34173 2.25133,-0.34173c0,0 -1.69794,4.79748 -1.69794,8.40045c0,3.60297 -0.08938,6.6131 -0.08938,6.6131c0,0 -1.55342,-2.56336 -2.02892,-4.51823c-0.4755,-1.95487 -0.38397,-5.40144 -0.38397,-5.40144z" fill="#2095ad"/><path d="M240.84865,168.56694c2.76393,0 4.96535,1.88084 5.00454,4.20021c0.04816,2.8495 -2.52932,3.97622 -5.0527,4.0076c-1.51717,0.01886 -4.712,-0.84071 -4.85887,-3.91243c-0.4497,-2.36698 2.1431,-4.29538 4.90703,-4.29538z" fill="#ecdebd"/><path d="M242.38867,173.90549c-0.4109,-0.03217 -1.84581,-0.28527 -1.84581,-0.28527c0,0 -0.15059,-0.41707 0.09141,-0.8484c0.37857,-0.67468 0.86017,-1.12828 1.43975,-1.09674c0.57958,0.03156 0.64759,0.48519 0.87772,0.90455c0.23012,0.41936 -0.07554,1.2234 -0.07554,1.2234c0,0 -0.28893,0.11804 -0.48753,0.10247z" fill="#000000"/><path d="M240.41084,173.91321c0,0 -0.02725,-1.57437 1.34691,-1.80871c1.32728,-0.2586 1.04147,1.71731 1.04147,1.71731c0,0 -0.41705,0.19242 -1.11843,0.19242c-0.70138,0 -1.26996,-0.10102 -1.26996,-0.10102z" fill="#eaeee9"/><path d="M247.37243,166.86542l0.40215,-1.29582c0,0 0.47982,0.57887 0.67632,1.18631c0.19651,0.60744 0.30673,1.85214 0.30673,1.85214z" fill="#dceef1"/><path d="M235.91204,165.90804c0,-0.03967 1.4607,-1.89142 2.52131,-1.89142c1.06064,0 1.75942,0.8939 1.75942,0.93357c0,0.03967 -1.41689,0.64633 -2.19027,0.64633c-0.77338,0 -2.09047,0.35119 -2.09047,0.31152z" fill="#72878d"/><path d="M246.94313,167.57128c0,-0.53544 0.35907,-0.91977 0.35907,-0.91977c0,0 0.50477,0.71123 0.74256,1.04147c0.23779,0.33024 0.79755,1.06319 0.79755,1.06319c0,0 -1.89918,-0.64948 -1.89918,-1.18489z" fill="#72878d"/><path d="M236.26465,172.35107c0.01863,-0.51353 0.02393,-0.78159 0.60354,-0.81315c0.28134,-0.01531 0.71731,0.43381 0.85632,0.94718c0.14738,0.54425 -0.19345,0.83509 -0.19345,0.83509l-0.91662,0.25428c0,0 -0.39157,-0.07145 -0.34981,-1.2234z" data-paper-data="{&quot;index&quot;:null}" fill="#000000"/><path d="M236.58424,173.58395c0,0 -0.4394,-1.27459 -0.0297,-1.78074c0.40974,-0.50616 0.81724,-0.29457 1.03877,0.47486c0.14442,0.5016 -0.08906,1.42457 -0.08906,1.42457z" fill="#eaeee9"/><g><path d="M236.39541,172.84919c0,-0.53003 0.25562,-0.95965 0.57096,-0.95965c0.31534,0 0.57097,0.42965 0.57097,0.95965c0,0.53003 -0.25563,0.95966 -0.57097,0.95966c-0.31534,0 -0.57096,-0.42966 -0.57096,-0.95966z" fill="#a77baf"/><path d="M236.99016,172.39224c0.13142,0 0.23791,0.20458 0.23791,0.45697c0,0.25239 -0.10652,0.45697 -0.23791,0.45697c-0.13139,0 -0.23791,-0.20458 -0.23791,-0.45697c0,-0.25239 0.10652,-0.45697 0.23791,-0.45697z" fill="#000000"/><path d="M237.07343,172.30075c0.09853,0 0.17842,0.14323 0.17842,0.31988c0,0.17666 -0.07989,0.31988 -0.17842,0.31988c-0.09853,0 -0.17843,-0.14323 -0.17843,-0.31988c0,-0.17666 0.07989,-0.31988 0.17843,-0.31988z" fill="#ffffff"/></g><path d="M235.32769,172.39663c0,0 -0.0072,-2.57917 0.7895,-3.7501c0.79671,-1.17093 2.7463,-2.19206 4.5855,-2.59753c1.83918,-0.40546 2.23541,0.54731 3.10904,0.9012c1.64125,0.66484 0.53379,5.2494 0.53379,5.2494c0,0 -2.44108,-0.08416 -3.32703,0.14033c-1.01248,0.25657 -2.16939,1.17572 -2.56591,1.02677c-0.26648,-0.10009 -0.55899,-1.06878 -0.55899,-1.06878l-0.34305,0.78596c0,0 -0.86858,-1.74757 -1.58222,-1.30576c-0.62458,0.38667 -0.6406,0.6185 -0.6406,0.6185z" fill="#2195ab"/><path d="M244.86128,166.02328c-0.2648,-0.28263 -0.50623,-0.85819 -0.70894,-1.10222c-0.38593,-0.46456 -1.20018,-0.56825 -1.20018,-0.56825c0,0 0.8641,-0.75766 1.34659,-0.80939c0.48248,-0.0517 1.46505,0.41753 1.46505,0.41753c0,0 0.31116,-0.33732 0.95061,-0.17266c0.52154,0.13429 1.40077,0.71595 1.36312,1.15503c-0.03439,0.40134 -0.20464,0.95432 -0.39336,1.36142c-0.27089,0.58431 -0.5799,0.96278 -0.5799,0.96278c0,0 -1.00328,0.07888 -2.24299,-1.24429z" fill="#dceef3"/><path d="M243.20385,165.93141c0,0 0.34463,0.2659 0.44648,0.54091c0.10186,0.27504 0.1257,1.00409 0.1257,1.00409c0,0 -0.20915,-0.27114 -0.89483,-0.77418c-0.59004,-0.43287 -1.43497,-0.71815 -1.43497,-0.81897c0,-0.21803 1.75759,0.04816 1.75759,0.04816z" data-paper-data="{&quot;index&quot;:null}" fill="#0b4754"/><path d="M239.12712,166.03125c0,0.10082 -0.69572,0.52588 -1.28575,0.95875c-0.68568,0.50304 -1.32828,1.2558 -1.32828,1.2558c0,0 0.1321,-0.85928 0.27385,-1.26879c0.14175,-0.40955 0.3923,-0.60741 0.3923,-0.60741c0,0 1.94789,-0.55635 1.94789,-0.33832z" fill="#0b4754"/><path d="M237.90004,167.15804c0,-0.37095 0.86945,-1.8615 1.58331,-2.65596c0.49722,-0.55333 1.00833,0.23103 1.00833,0.23103c0,0 1.5281,-0.32099 1.84828,0.00353c0.16674,0.2862 -0.14937,0.94122 -0.29218,1.52855c-0.12833,0.52791 -0.013,1.11325 -0.12621,1.2503c-0.70559,0.85416 -1.55513,1.31818 -2.59161,1.31818c-1.03648,0 -1.42988,-1.04636 -1.42988,-1.67565z" fill="#dceef3"/><path d="M243.95216,176.06962l0.24081,-4.19008l0.96322,-0.43345l-0.09632,4.52717z" fill="#2095ad"/><path d="M236.39968,172.75193c-0.03693,0.13384 -0.66387,-0.28797 -0.98385,-0.44552c-0.31998,-0.15748 -0.78371,-0.81968 -0.78371,-0.81968c0,0 0.55661,0.47329 0.95117,0.72413c0.39459,0.25084 0.83354,0.47885 0.8164,0.54107z" data-paper-data="{&quot;index&quot;:null}" fill="#000000"/><g><path d="M240.69823,173.26115c0,-0.53003 0.25562,-0.95965 0.57096,-0.95965c0.31534,0 0.57097,0.42965 0.57097,0.95965c0,0.53003 -0.25563,0.95966 -0.57097,0.95966c-0.31534,0 -0.57096,-0.42966 -0.57096,-0.95966z" fill="#a77baf"/><path d="M241.29298,172.80415c0.13142,0 0.23791,0.20458 0.23791,0.45697c0,0.25239 -0.10652,0.45697 -0.23791,0.45697c-0.13139,0 -0.23791,-0.20458 -0.23791,-0.45697c0,-0.25239 0.10652,-0.45697 0.23791,-0.45697z" fill="#000000"/><path d="M241.37626,172.71271c0.09853,0 0.17842,0.14323 0.17842,0.31988c0,0.17666 -0.07988,0.31988 -0.17842,0.31988c-0.09853,0 -0.17842,-0.14323 -0.17842,-0.31988c0,-0.17666 0.07989,-0.31988 0.17842,-0.31988z" fill="#ffffff"/></g><path d="M237.40846,174.17528c-0.43213,0.0288 -0.84661,-0.63073 -0.84661,-0.63073c0,0 0.67282,0.0654 0.91591,0.0451c0.08976,-0.0075 0.18087,-0.42888 0.18087,-0.42888c0,0 0.74368,0.36515 0.7211,0.65747c-0.01451,0.18795 -0.80214,0.34579 -0.97127,0.35704z" fill="#ecdebd"/><path d="M240.45367,174.39117l0.41933,-0.4193c0,0 0.40999,0.07625 0.648,0.07625c0.23801,0 0.72423,-0.03812 0.72423,-0.03812l0.60988,0.3812z" fill="#ecdebd"/><path d="M239.92826,176.10947c0.12625,-0.10919 0.49239,0.08499 0.82685,0.08499c0.33446,0 0.736,-0.25441 0.8367,-0.08499c0.13818,0.13728 -0.47489,0.24026 -0.83178,0.24026c-0.35689,0 -1.08146,-0.02432 -0.83177,-0.24026z" fill="#b1a37f"/><path d="M242.74761,174.09425c0.26612,0 0.06744,-0.01409 0.06744,0.31516c0,0.32925 -0.06744,0.38542 -0.06744,0.38542c0,0 -0.06743,-0.05617 -0.06743,-0.38542c0,-0.32925 -0.19869,-0.31516 0.06743,-0.31516z" fill="#d0bf96"/><path d="M236.56614,173.67278c0.26612,0 0.06743,-0.01409 0.06743,0.31516c0,0.32922 -0.06743,0.38539 -0.06743,0.38539c0,0 -0.06744,-0.05614 -0.06744,-0.38539c0,-0.32925 -0.19869,-0.31516 0.06744,-0.31516z" fill="#d0bf96"/><path d="M236.91733,173.81327c0.26612,0 0.06744,-0.01409 0.06744,0.31516c0,0.32922 -0.06744,0.38538 -0.06744,0.38538c0,0 -0.06743,-0.05613 -0.06743,-0.38538c0,-0.32925 -0.19869,-0.31516 0.06743,-0.31516z" fill="#d0bf96"/><path d="M242.39639,174.23474c0.26612,0 0.06744,-0.01409 0.06744,0.31516c0,0.32922 -0.06744,0.38539 -0.06744,0.38539c0,0 -0.06743,-0.05614 -0.06743,-0.38539c0,-0.32925 -0.1987,-0.31516 0.06743,-0.31516z" fill="#d0bf96"/><path d="M245.03849,175.50014c0,0 -0.42674,-2.45133 -0.62431,-3.38272c-0.14461,-0.68174 -0.45262,-1.6942 -0.45262,-1.6942c0,0 0.82659,-0.83705 1.07692,-0.46154c0.25034,0.37551 1.33832,2.03797 1.15385,3.38462c-0.18447,1.34665 -1.15385,2.15385 -1.15385,2.15385z" fill="#2195ab"/></g><path d="M243.93335,172.42519c0.44706,-0.13689 1.1976,-0.42078 1.1976,-0.42078c0,0 -0.65501,0.4588 -1.00537,0.52553c-0.35036,0.06676 -1.27957,0.39018 -1.27957,0.25136c0,-0.06454 0.64025,-0.21925 1.08734,-0.35611z" fill="#000000" stroke-width="0"/><path d="M240.60583,179.38435c0,0 0.31767,0.37105 0.53546,0.40686c0.2178,0.03581 0.47873,0.07872 0.47873,0.07872l0.37424,0.36655c0,0 -0.62919,0.01622 -0.86424,-0.08189c-0.23505,-0.09811 -0.55402,-0.46601 -0.55402,-0.46601z" fill="#2490a6" stroke-width="0"/><path d="M238.3387,180.36663l0.50508,-0.42884c0,0 0.00713,-0.06008 0.1822,-0.0996c0.17507,-0.03952 0.4723,-0.5085 0.4723,-0.5085l0.05232,0.25088c0,0 -0.20342,0.43289 -0.39237,0.54115c-0.18894,0.10826 -0.81954,0.24492 -0.81954,0.24492z" data-paper-data="{&quot;index&quot;:null}" fill="#2490a6" stroke-width="0"/><path d="M238.26093,179.97874c0,0 0.00296,0.40788 0.05461,0.66185c0.05166,0.25398 0.19274,0.55429 0.19274,0.55429l1.17875,0.54962c0,0 0.69014,-0.20736 0.97,-0.35074c0.27986,-0.14339 1.33251,-1.46916 1.33251,-1.46916l0.51105,-0.03953c0,0 -0.89719,1.4955 -1.52889,1.83374c-0.6317,0.33824 -1.55609,0.65983 -1.55609,0.65983l-0.2055,0.42909l-0.82569,0.13621l-0.32294,-0.64977l0.19117,-0.42534c0,0 -0.32604,-0.60918 -0.37942,-1.03668c-0.05338,-0.4275 -0.07684,-0.86704 -0.07684,-0.86704z" fill="#eec522" stroke-width="0"/><g><path d="M240.29571,176.926c0.17008,0.06905 0.3072,0.33949 0.39108,0.72079c0.08399,0.38126 0.11481,0.87325 0.07258,1.38519c-0.0422,0.51204 -0.14953,0.94795 -0.28883,1.23853c-0.1394,0.29062 -0.31073,0.43601 -0.48082,0.36696c-0.17021,-0.06911 -0.30722,-0.33958 -0.3912,-0.72085c-0.08388,-0.3813 -0.11481,-0.87325 -0.07258,-1.38519c0.04219,-0.51204 0.14963,-0.94798 0.28893,-1.23856c0.1393,-0.29058 0.31062,-0.43597 0.48084,-0.36686z" fill="#5ed161" stroke-width="0.01872"/><g data-paper-data="{&quot;index&quot;:null}" fill="#21683c" stroke-width="0.01872"><path d="M240.22624,177.76832c0.09288,0.03771 0.16777,0.1854 0.21357,0.39363c0.04587,0.20821 0.0627,0.47689 0.03964,0.75647c-0.02305,0.27963 -0.08166,0.51769 -0.15773,0.67638c-0.07613,0.15871 -0.16969,0.23811 -0.26258,0.2004c-0.09295,-0.03774 -0.16778,-0.18545 -0.21364,-0.39367c-0.04581,-0.20823 -0.0627,-0.47689 -0.03964,-0.75647c0.02304,-0.27963 0.08172,-0.51771 0.15779,-0.6764c0.07607,-0.15869 0.16963,-0.23809 0.26259,-0.20035z"/></g><path d="M240.15094,177.68603c0.05931,0.02193 0.10212,0.11155 0.12354,0.23878c0.02138,0.12715 0.02128,0.29193 -0.00537,0.46388c-0.02668,0.17188 -0.07488,0.31879 -0.1313,0.41725c-0.05641,0.09846 -0.12094,0.1485 -0.18015,0.12654c-0.05927,-0.02186 -0.10211,-0.11155 -0.12352,-0.23878c-0.02138,-0.12717 -0.02132,-0.29184 0.0054,-0.46381c0.02666,-0.17195 0.07486,-0.31887 0.13128,-0.41732c0.05634,-0.09843 0.12087,-0.1484 0.18015,-0.12655z" fill="#ffffff" stroke-width="0.01896"/></g><path d="M221.78393,180.33566v0z" fill="#2095ad" stroke-width="0"/></g></g></svg>