<svg version="1.1" xmlns="http://www.w3.org/2000/svg" xmlns:xlink="http://www.w3.org/1999/xlink" width="33.69703" height="32.1755" viewBox="0,0,33.69703,32.1755"><g transform="translate(-223.03389,-166.05558)"><g data-paper-data="{&quot;isPaintingLayer&quot;:true}" fill-rule="nonzero" stroke-linejoin="miter" stroke-miterlimit="10" stroke-dasharray="" stroke-dashoffset="0" style="mix-blend-mode: normal"><path d="M239.94128,198.0038c-0.79744,1.12293 -2.16668,-2.22599 -2.48281,-3.2733c-0.51646,-1.16341 -0.52788,-3.57643 -0.52788,-3.57643c0,0 -0.10821,-1.6637 0.70429,-0.95157c0.37821,0.3315 0.7679,0.62913 1.10971,0.96235c0.39246,0.38261 0.72181,0.81214 0.89817,1.39375c0,0 1.39013,3.90801 0.29852,5.44518z" fill="#54c81c" stroke="none" stroke-width="0" stroke-linecap="butt"/><path d="M237.91661,180.71215l1.47766,0.57407c0,0 -3.12136,3.73821 -2.89336,5.77003c0.05235,0.64587 1.71627,4.78346 1.71627,4.78346c0,0 0.81792,2.46823 0.65861,3.08346c-0.20265,0.7826 -0.83624,0.32918 -1.14752,-0.18633c-0.31127,-0.5155 -0.466,-1.93518 -0.69443,-2.83095c-0.27787,-1.08971 -2.26842,-4.93612 -2.26842,-4.93612z" fill="#ffffff" stroke="none" stroke-width="0" stroke-linecap="butt"/><path d="M246.11222,192.54336c0.19375,1.26004 -2.88931,-0.14325 -3.77855,-0.65251c-1.0983,-0.46186 -2.66782,-2.08569 -2.66782,-2.08569c0,0 -1.1492,-1.05654 -0.14509,-1.08568c0.46742,-0.01357 0.92058,-0.05724 1.36478,-0.04677c0.51002,0.01202 1.00822,0.09542 1.50258,0.37773c0,0 3.45889,1.76805 3.7241,3.49291z" fill="#54c81c" stroke="none" stroke-width="0" stroke-linecap="butt"/><path d="M236.86373,188.58859c0,0 -0.43619,-1.28227 -0.09041,-2.4325c0.23347,-0.77664 1.96395,-3.79969 1.96395,-3.79969l1.39753,0.28381c0,0 -3.66321,4.08216 -1.96103,5.21483c0.52813,0.37545 3.49784,1.61822 3.49784,1.61822c0,0 2.06187,1.12735 2.43036,1.64512c0.46876,0.65863 -0.76002,0.73165 -1.09874,0.60931c0,0 -1.17334,-0.7064 -1.92367,-1.11787c-1.10917,-0.60826 -4.21583,-2.02123 -4.21583,-2.02123z" fill="#ffffff" stroke="none" stroke-width="0" stroke-linecap="butt"/><g stroke="none" stroke-width="0" stroke-linecap="butt"><path d="M247.05689,185.31538c0,0 4.62652,-0.6474 5.11912,-1.68885c0.49266,-1.04159 -3.90336,-2.79115 -2.95238,-2.55558c5.02268,1.2442 7.50729,2.88379 7.50729,2.88379c0,0 -2.34085,1.06971 -3.84679,1.28523c-1.50593,0.21552 -5.82724,0.07541 -5.82724,0.07541z" fill="#54c81c"/><path d="M238.68142,180.22482c0,0 4.28279,0.26639 7.08727,0.16851c3.39819,0.21472 5.3303,1.45172 7.48029,2.71282c0.59541,1.04096 -4.05225,2.41359 -6.26111,2.07422c-2.39256,-0.36759 -8.30644,-4.95556 -8.30644,-4.95556z" fill="#ffffff"/></g><g stroke="none" stroke-width="0" stroke-linecap="butt"><path d="M235.15286,184.00894c0,0 -2.19252,1.16317 -4.31608,1.91249c-1.17053,0.41303 -2.69387,0.69513 -3.96115,1.05687c-1.26728,0.36174 -3.84174,-0.40063 -3.84174,-0.40063c0,0 1.82885,-0.93083 2.48357,-1.60969c0.65472,-0.67887 5.31543,-3.47564 5.5689,-3.37911c0.25347,0.09653 4.06651,2.42007 4.06651,2.42007z" fill="#54c81c"/><path d="M232.73133,180.96766c3.67911,-1.11965 4.86795,-0.6773 5.56701,-0.97398c2.03258,-0.86262 1.67217,-0.47547 1.67217,-0.47547c0,0 -0.52642,2.90393 -6.46723,5.24671c-4.27602,1.68626 -6.47564,1.1339 -6.47564,1.1339c0,0 0.99646,-3.49861 5.70369,-4.93116z" fill="#ffffff"/></g><g stroke="none" stroke-width="0" stroke-linecap="butt"><path d="M232.47643,184.83106l5.20724,3.3997c0,0 -2.70688,1.2134 -4.78553,2.20057c-1.92616,0.91475 -7.64694,1.72169 -7.64694,1.72169c0,0 1.76472,-1.61399 2.83163,-3.4792c1.06691,-1.86521 4.3936,-3.84276 4.3936,-3.84276z" fill="#54c81c"/><path d="M229.25351,189.17088c-0.65831,-2.15876 2.50604,-3.74772 3.30625,-4.58983c0.79416,-0.83577 0.31753,-2.27917 4.46933,-3.31042c2.83164,-0.70333 3.56351,-2.3737 3.56351,-2.3737l1.24201,0.47616c0,0 0.45694,5.04164 -1.61225,7.60167c-1.43578,1.64497 -9.12475,3.1272 -10.63549,2.4461z" fill="#ffffff"/></g><path d="M246.29959,172.21303c0.07099,0.62682 -0.02639,1.26745 -0.22166,1.86429c-0.31822,0.99844 -0.96458,1.92117 -1.88988,2.43906c-0.46306,0.18534 -0.3934,0.17441 -0.84173,0.37929c-0.65649,0.43513 -1.60398,0.53129 -2.35436,0.52524c-0.60902,0.02731 -1.21763,-0.045 -1.80763,-0.19935c-0.37786,-0.11354 -0.79979,-0.16826 -1.11228,-0.42736c-0.28723,-0.246 -0.52352,-0.58652 -0.53374,-0.97644c-0.07713,-0.94626 -0.16315,-1.89334 -0.15456,-2.84309c0.01606,-0.26022 -0.00757,-0.54489 0.11732,-0.78251c0.102,-0.11144 0.59916,-3.66541 4.61343,-3.61456c3.83276,0.04854 4.16568,3.52167 4.18509,3.63544z" data-paper-data="{&quot;index&quot;:null}" fill="#f0e9bb" stroke="none" stroke-width="0.17188" stroke-linecap="butt"/><path d="M245.92531,167.79561c0.92264,-0.1296 1.58689,0.01494 1.97662,0.2999c0.05554,0.0404 0.02464,0.08245 0.09176,0.14781c0.08121,0.07917 0.30256,0.20028 0.26063,0.17042c0,0 -0.0804,0.15978 -0.07313,0.23526c0.00931,0.09595 0.13021,0.20764 0.03877,0.18422c0,0 0.06066,0.14096 0.04818,0.192c-0.13604,0.55747 -0.59031,1.27696 -1.1892,1.64663c0.32108,0.48822 -1.70852,-2.4459 -1.1536,-2.87623z" data-paper-data="{&quot;index&quot;:null}" fill="#ed3e67" stroke="none" stroke-width="0.17188" stroke-linecap="butt"/><path d="M244.91272,172.45016c0.24826,-0.04061 0.39401,0.08879 0.48279,0.36783c0.06208,0.19567 0.10361,0.48668 0.10168,0.75089c-0.00215,0.28487 -0.00214,0.45569 -0.03743,0.62631c-0.03467,0.16755 -0.10484,0.33684 -0.07917,0.3932c0.03723,0.08163 -0.06894,0.18503 -0.46418,0.27076c-0.25316,0.05494 -0.49978,0.09461 -0.71039,0.12755c-0.20734,0.00501 -0.31126,-1.13601 -0.18074,-1.43449c0.08213,-0.54868 0.28129,-0.89441 0.88745,-1.10205z" data-paper-data="{&quot;index&quot;:null}" fill="#ffffff" stroke="none" stroke-width="0.17188" stroke-linecap="butt"/><path d="M244.26474,172.69303c-0.57076,0.44788 -0.18008,2.25292 -0.18008,2.25292c0,0 -0.61678,-1.64896 0.05779,-2.33696c0.20811,-0.21225 0.32622,-0.32982 0.52276,-0.38144c0.27412,-0.07199 0.40114,0.00137 0.61027,0.18982c0.1163,0.10479 0.31509,0.43597 0.32553,0.75955c0.00241,0.07462 1.18793,0.07506 1.18793,0.07506c0,0 -0.84362,0.13613 -1.02375,0.25868c-0.172,0.11702 -0.05377,0.46302 -0.1514,0.75489c-0.09764,0.29187 -0.22168,0.41893 -0.22168,0.41893c0,0 0.14663,-0.42381 0.12964,-0.98414c-0.01271,-0.41935 -0.16873,-1.03677 -0.39571,-1.21444c-0.30301,-0.26417 -0.44533,-0.21652 -0.86131,0.20713z" data-paper-data="{&quot;index&quot;:null}" fill="#000000" stroke="none" stroke-width="0" stroke-linecap="butt"/><path d="M237.66502,172.06153l-0.15006,2.38751l0.23118,1.92547l0.26963,1.36258c0.03191,0.16018 -1.66188,-1.09868 -2.01231,-1.54455c-0.4337,-0.55165 -0.71203,-1.15503 -0.9877,-1.75935c-0.2011,-0.44036 -0.21787,-0.62079 -0.28169,-0.94074l-0.19792,-0.99332c-0.03764,-0.18873 -0.1297,-1.14859 0.05554,-1.31337c0.05258,-0.04674 0.71571,0.43369 0.79171,0.43185l0.55471,-0.01503c0.16458,-0.0043 0.65597,-0.35474 0.79845,-0.47012c0.10413,-0.08418 0.68165,-0.73402 0.74302,-1.36861l0.06066,-0.62774c0.0091,-0.094 -0.22749,-1.08037 -0.18984,-1.09806c0.07754,-0.03672 -0.79151,-1.08568 -0.71079,-1.12824c0.44914,-0.23752 0.99383,-0.54152 1.60531,-0.67561c0.96131,-0.21082 2.01354,-0.18003 2.5528,-0.17287c0.09196,0.00123 1.26336,0.04 1.96383,0.27628c1.10921,0.37407 1.73296,1.08578 1.77592,1.12485c0.6747,0.61321 1.17652,1.32729 1.52859,2.12871l0.19117,0.67786c0.09789,0.34697 0.43268,2.25637 0.2459,2.93157l-0.63726,2.30588c-0.1115,0.40383 -1.18132,2.29565 -1.39929,2.18569c-0.30543,-0.15374 -0.31157,-1.34611 -0.41529,-1.20004c-0.22994,0.32353 1.57657,-1.27012 1.66249,-1.71649c0.14679,-0.76316 0.4385,-1.48983 0.37345,-2.02725c-0.01237,-0.10147 -0.02219,-0.79569 -0.03365,-0.96365c-0.0089,-0.13278 -0.08981,-0.24089 -0.22319,-0.20652c-0.08879,0.02281 -0.2995,-0.08562 -0.43268,0.12632l-0.39452,0.62857c-0.06403,0.10178 -1.24791,1.95063 -1.30611,1.80978c-0.01074,-0.02619 0.22411,-0.61771 0.23679,-0.65699c0.07702,-0.23752 0.0851,-0.42265 0.00931,-0.33755c-0.19935,0.2238 -0.53374,0.81196 -0.53374,0.81196c-0.04787,0.07252 -0.57865,0.02752 -0.93696,-0.09706c-0.33336,-0.11589 -0.75284,-0.51829 -0.8586,-0.61762l-1.1491,-1.08026c-1.07934,-1.01418 -1.01009,-0.58049 -1.07321,-0.6976c0.04848,-0.07774 -0.77023,-0.10566 -0.96437,0.07437c-0.07733,0.07171 -0.31321,0.20888 -0.43473,0.27925c-0.16171,0.09348 -0.273,0.14882 -0.32742,0.24017z" data-paper-data="{&quot;index&quot;:null}" fill="#54c81c" stroke="none" stroke-width="0.17188" stroke-linecap="butt"/><path d="M233.618,170.48813c-0.60524,-0.20693 -1.16608,-0.76563 -1.41331,-1.24618c-0.02271,-0.04398 -0.00266,-0.18637 -0.00266,-0.18637c-0.07396,0.04153 0.00532,-0.08735 -0.0089,-0.17716c-0.01114,-0.07058 -0.11803,-0.19926 -0.11803,-0.19926c-0.02946,0.03662 0.13451,-0.12285 0.18677,-0.21307c0.04307,-0.07468 0.00645,-0.10638 0.04531,-0.15579c0.27219,-0.34615 0.81504,-0.62426 1.64562,-0.70845c1.08671,-0.10996 2.04092,0.68716 2.04092,1.07729c0,0 -1.3421,2.16219 -2.37571,1.80898z" data-paper-data="{&quot;index&quot;:null}" fill="#ed3e67" stroke="none" stroke-width="0.17188" stroke-linecap="butt"/><path d="M236.78885,169.37544c0.14873,-0.10392 -0.2908,1.37874 -0.67335,1.58566c-0.65792,0.35576 -0.58427,0.61772 -1.14634,0.44649c-0.12623,-0.03825 -0.37622,-0.26084 -0.73556,-0.40926c-0.41631,-0.17174 -0.78495,-0.41048 -0.64697,-0.48188l0.83016,-0.48649l1.23053,-1.368c0.01913,-0.02128 -0.2321,-0.2328 -0.62294,-0.50898c-0.27403,-0.19373 -0.6841,-0.42358 -1.00365,-0.54693c-0.18831,-0.07262 0.18862,-0.29081 0.72502,-0.44414c0.26002,-0.07437 0.53619,-0.17266 0.84439,-0.15527c0.53374,0.03027 0.92407,0.64195 1.06686,1.26203c0.13379,0.58069 0.03283,1.1757 0.13185,1.10676z" data-paper-data="{&quot;index&quot;:null}" fill="#54c81c" stroke="none" stroke-width="0.17188" stroke-linecap="butt"/><path d="M237.55926,169.33903c0.02669,1.21488 -1.17395,2.28982 -1.56224,2.26231l-0.61046,0.112l-0.86382,-0.51584c-0.22115,-0.13216 1.20331,0.07682 1.54997,-0.30379c0.22626,-0.24826 0.39156,-0.44004 0.42337,-0.53834c0.30175,-0.93737 0.26902,-1.70391 0.08317,-2.20339c-0.29203,-0.78485 -0.87763,-1.03648 -0.49661,-1.21774c0.90852,-0.43247 1.44738,1.07709 1.47663,2.40479z" data-paper-data="{&quot;index&quot;:null}" fill="#ead32e" stroke="none" stroke-width="0.17188" stroke-linecap="butt"/><path d="M245.55031,168.68592c0,0 -0.28078,-0.35003 -0.47912,-0.61997c-0.41376,-0.5631 -1.03731,-0.90177 -0.91773,-1.0596c0.09963,-0.06383 0.61128,0.07048 0.751,0.20181l0.28385,0.26656c0.49907,0.46889 0.69648,1.15033 0.6884,1.42938c-0.00348,0.1207 0.12418,0.34103 0.08071,0.47534c0,0 -0.32753,-0.41836 -0.40711,-0.69352z" data-paper-data="{&quot;index&quot;:null}" fill="#ead32e" stroke="none" stroke-width="0.17188" stroke-linecap="butt"/><path d="M245.1777,167.35512c0,0 1.0776,-0.03324 1.27083,0.26483c0.12847,0.19792 -0.04716,0.67561 0.10229,0.82587c0.18555,0.18658 0.46316,0.64738 0.61066,0.98636c0.04429,0.30993 0.15558,0.60666 0.02281,0.9524c0.054,0.30502 -0.70497,0.86587 -0.73258,0.76583l-0.37541,-1.35971c-0.09523,-0.34501 -0.31136,-1.04436 -0.3713,-1.18623z" data-paper-data="{&quot;index&quot;:null}" fill="#54c81c" stroke="none" stroke-width="0.17188" stroke-linecap="butt"/><path d="M239.36108,176.71893h0.86877" data-paper-data="{&quot;index&quot;:null}" fill="none" stroke="#dfcfa3" stroke-width="0.36953" stroke-linecap="round"/><path d="M240.62933,180.87794c-0.21644,-0.24282 -0.17368,-0.33195 -0.19567,-0.72913c-0.01729,-0.31382 -0.11077,-0.42879 -0.18319,-0.92755c-0.02292,-0.15794 0.11056,-0.57997 0.05451,-0.76215c-0.0533,-0.17235 0.22922,-0.71939 0.28916,-0.83016c0.23353,-0.43074 0.79192,-0.32006 0.92694,-0.32006c0.10689,0 0.61301,0.04613 0.69208,0.13011c0.25634,0.27241 0.16534,0.87334 0.15603,1.59099c-0.00316,0.82076 0.56408,1.80719 0.56408,1.80719c0,0 -0.80179,0.18509 -1.22227,0.18889c-0.42048,0.0038 -1.08167,-0.14813 -1.08167,-0.14813z" data-paper-data="{&quot;index&quot;:null}" fill="#319a2b" stroke="none" stroke-width="0.17188" stroke-linecap="butt"/><g data-paper-data="{&quot;index&quot;:null}" stroke="none" stroke-linecap="butt"><path d="M240.6929,177.44148c0.17008,0.06905 0.3072,0.33949 0.39108,0.72079c0.08399,0.38126 0.11481,0.87325 0.07258,1.38519c-0.0422,0.51204 -0.14953,0.94795 -0.28883,1.23853c-0.1394,0.29062 -0.31073,0.43601 -0.48082,0.36696c-0.17021,-0.06911 -0.30722,-0.33958 -0.3912,-0.72085c-0.08388,-0.3813 -0.11481,-0.87325 -0.07258,-1.38519c0.04219,-0.51204 0.14963,-0.94798 0.28893,-1.23856c0.1393,-0.29058 0.31062,-0.43597 0.48084,-0.36686z" fill="#eb3d66" stroke-width="0.01872"/><path d="M240.45714,177.85312c0.07825,0.02894 0.13474,0.14718 0.16299,0.31504c0.02821,0.16776 0.02807,0.38516 -0.00709,0.61203c-0.0352,0.22677 -0.0988,0.4206 -0.17323,0.5505c-0.07442,0.1299 -0.15956,0.19592 -0.23769,0.16695c-0.0782,-0.02884 -0.13472,-0.14718 -0.16297,-0.31504c-0.02821,-0.16778 -0.02813,-0.38504 0.00713,-0.61194c0.03517,-0.22687 0.09877,-0.4207 0.1732,-0.5506c0.07433,-0.12987 0.15947,-0.1958 0.23768,-0.16696z" fill="#ffffff" stroke-width="0.01896"/></g><path d="M238.38603,178.5286c-0.91417,0.71237 -0.67113,1.82153 -1.77965,2.09647c-0.36652,0.09084 -1.61064,0.12152 -1.73784,-0.24664c-0.16529,-0.47533 -0.07258,-1.64519 0.3112,-1.95583c0.58426,-0.47251 1.22856,-0.556 1.96749,-0.77456c1.16924,-0.34558 3.12531,-1.00178 3.44604,-0.80334c0.32071,0.19831 -1.47232,1.08741 -2.20724,1.68391z" data-paper-data="{&quot;index&quot;:null}" fill="#319a2b" stroke="none" stroke-width="0.17188" stroke-linecap="butt"/><g data-paper-data="{&quot;index&quot;:null}" stroke="none" stroke-width="0.17188" stroke-linecap="butt"><path d="M238.40034,179.26238c0.00627,-0.00945 0.48284,-1.21318 0.44969,-1.46409c-0.05558,-0.42223 -0.62434,-0.04214 -0.52253,-0.55783c0.07552,-0.38244 0.46039,-0.50878 0.60662,-0.73269c0.16653,-0.25554 0.72875,-0.22911 1.02327,-0.06941c0.16362,0.08875 0.13882,0.34791 0.17058,0.31448c0.21461,-0.22628 0.63554,-0.21537 0.78607,0.03312l0.32779,0.54064c0.18306,0.61744 0.25044,1.35946 0.38748,1.73577c0.35416,0.85588 -0.47693,1.44224 -0.32849,1.35047c-0.80212,0.30172 -2.00141,0.18571 -2.80846,-0.32388c-0.16064,-0.10896 -0.37347,-0.41185 -0.09205,-0.82654z" fill="#f0e9bb"/><path d="M236.74108,178.89813c0.00738,-0.30307 -0.79828,-0.74682 -0.57333,-0.57926c0.04504,0.03353 -0.27997,-0.10641 -0.14853,-0.2791c0.08652,-0.1134 0.59644,-0.24357 0.74209,-0.33915c0.33637,-0.22083 0.87535,-0.24358 1.24954,-0.35444c0.35222,-0.10425 0.77417,0.16411 0.91667,0.27015c0.20618,0.15309 -0.02543,0.62522 -0.22119,1.08859c-0.23812,0.56355 -0.27685,1.05076 -0.27549,1.0837c0,0 0.07263,0.60071 0.24454,0.64326c-0.55746,-0.12786 -1.43482,0.72626 -1.98536,0.5442c-0.28561,-0.11336 0.04371,-1.77877 0.05108,-2.07794z" fill="#ead42f"/></g><path d="M245.68705,183.0821c0.18966,0.14544 0.33443,0.62989 -0.5422,2.87373c-0.82307,1.96588 -3.12838,0.29297 -3.12838,0.29297c0,0 -1.93947,-1.82624 -1.9486,-3.20389c-0.00912,-1.37765 0.87844,-0.96481 1.91515,-1.84685c1.03671,-0.88204 3.70404,1.88403 3.70404,1.88403z" fill="#ffffff" stroke="none" stroke-width="0" stroke-linecap="butt"/><path d="M242.50237,177.48214c0.28812,0.46439 1.2891,3.04221 1.56728,3.49419c0.28444,0.46159 1.02207,0.96801 0.85526,1.42185c-0.1611,0.42351 -1.05011,0.68869 -1.39029,0.37463c-0.56536,-0.45616 -0.39602,-1.37147 -0.56077,-2.03357c-0.17146,-0.71179 -0.57056,-1.47438 -0.81045,-2.19447c-0.0935,-0.26996 -0.35275,-0.81945 -0.35275,-0.81945c0,0 0.30244,-0.87061 0.69171,-0.24319z" data-paper-data="{&quot;index&quot;:null}" fill="#319a2b" stroke="none" stroke-width="0.17188" stroke-linecap="butt"/><path d="M241.80875,185.97009c0,0 2.60043,0.80139 3.30244,-0.441c0.71241,-1.26079 0.2768,-2.30637 0.2768,-2.30637c0,0 -0.02159,-1.10726 1.5607,2.28684c0.34987,0.74805 -0.57466,1.13489 -0.90033,1.61258c-0.52715,0.77323 -1.11605,1.64144 -1.11605,1.64144c0,0 0.91806,-0.98261 -1.2942,-1.58011c-1.83788,-0.49639 -2.49604,-1.88004 -2.49604,-1.88004z" fill="#54c81c" stroke="none" stroke-width="0" stroke-linecap="butt"/><g data-paper-data="{&quot;index&quot;:null}" stroke="none" stroke-width="0.17188" stroke-linecap="butt"><path d="M245.5037,183.29367c0.74972,0.51474 1.30234,1.52096 1.33984,2.33673c0.02458,-0.16445 -0.17617,0.78348 -1.05857,0.79543c-0.38099,0.02154 -1.056,0.24159 -1.66524,0.3136l-0.59651,-0.08361c-0.27417,-0.03833 -0.44207,-0.40279 -0.32475,-0.67569c0.01744,-0.04043 -0.20021,0.07877 -0.33942,-0.03106c-0.2506,-0.19773 -0.48515,-0.68002 -0.3241,-0.92191c0.14103,-0.21218 0.10687,-0.59668 0.41338,-0.8065c0.4131,-0.28314 0.29419,0.35765 0.68483,0.24758c0.23201,-0.06538 1.10657,-0.93524 1.11243,-0.9443c0.25731,-0.40235 0.60241,-0.32996 0.75811,-0.23026z" fill="#f0e9bb"/><path d="" fill="#000000"/><path d="M245.6025,181.38224c0.36653,0.41351 -0.05135,1.50273 0.27036,1.94271c-0.10191,-0.13456 -0.6551,0.02776 -0.6551,0.02776c-0.02938,0.01125 -0.44122,0.22838 -0.84505,0.64883c-0.33206,0.34561 -0.65827,0.72587 -0.86976,0.60301c-0.14642,-0.08499 -0.54001,-0.35336 -0.58126,-0.70083c-0.04357,-0.36927 -0.22646,-0.84965 -0.15961,-1.22729c0.02892,-0.16338 -0.04898,-0.6587 0.01778,-0.77705c0.10171,-0.17998 0.34642,0.05185 0.30027,0.02508c-0.23147,-0.13394 0.46008,0.40445 0.7226,0.28389c0.25917,-0.11894 1.59322,-1.0335 1.79977,-0.82611z" fill="#ead42f"/></g><path d="M240.05052,176.71892h-0.86877" data-paper-data="{&quot;index&quot;:null}" fill="none" stroke="#dfcfa3" stroke-width="0.36953" stroke-linecap="round"/><g data-paper-data="{&quot;index&quot;:null}" stroke="none" stroke-linecap="butt"><path d="M244.45757,174.1661c0,-0.5294 0.20288,-0.95856 0.45314,-0.95856c0.25026,0 0.45314,0.42916 0.45314,0.95856c0,0.5294 -0.20288,0.95856 -0.45314,0.95856c-0.25026,0 -0.45314,-0.42916 -0.45314,-0.95856z" fill="#008ae6" stroke-width="0"/><path d="M244.90604,173.34056c0.07892,-0.00736 0.1526,0.06999 0.20772,0.2009c0.05525,0.13092 0.09193,0.31542 0.09713,0.52227c0.00504,0.20696 -0.0224,0.39744 -0.07075,0.53808c-0.04848,0.14062 -0.11785,0.23143 -0.19677,0.23877c-0.07892,0.00736 -0.15262,-0.06999 -0.20772,-0.20089c-0.05525,-0.13093 -0.09195,-0.31542 -0.097,-0.52226c-0.00518,-0.20698 0.02225,-0.39746 0.07057,-0.5381c0.04848,-0.14063 0.11797,-0.23127 0.19679,-0.23878z" fill="#000000" stroke-width="0.0278"/><path d="M244.76161,173.57846c0.0419,-0.09781 0.10095,-0.15996 0.16695,-0.16302c0.06603,-0.00305 0.12675,0.05362 0.17136,0.14739c0.0448,0.0938 0.07346,0.22477 0.07549,0.37069c0.00218,0.14612 -0.02275,0.27957 -0.06482,0.37735c-0.04189,0.09781 -0.10094,0.15998 -0.16694,0.16303c-0.06603,0.00305 -0.12675,-0.05362 -0.17136,-0.1474c-0.0448,-0.0938 -0.07347,-0.22477 -0.0755,-0.37069c-0.00217,-0.14612 0.02276,-0.27956 0.06483,-0.37734z" fill="#ffffff" stroke-width="0.01811"/></g><path d="M244.95317,174.83291l0.45,-0.13333c0,0 -0.40244,0.8 -0.81666,0.8c-0.41422,0 -0.55,-0.53333 -0.55,-0.53333z" data-paper-data="{&quot;index&quot;:null}" fill="#f0e9bb" stroke="none" stroke-width="0" stroke-linecap="butt"/><path d="M246.04358,173.38044l0.10256,-0.15385l0.66667,0.02564z" data-paper-data="{&quot;index&quot;:null}" fill="#000000" stroke="none" stroke-width="0" stroke-linecap="butt"/><path d="M241.15937,175.20427c-0.25971,0 -0.60994,0.03376 -0.92479,0.01872c-0.49139,-0.02363 -0.93532,-0.15374 -0.93532,-0.15374c0,0 -0.34037,-0.32711 -0.32037,-1.01971c0.01782,-0.61715 0.3131,-1.38581 0.81319,-1.38581c0.35709,0 0.66262,0.1376 1.01899,0.65129c0.08756,0.12623 0.59849,1.86225 0.3483,1.88925z" data-paper-data="{&quot;index&quot;:null}" fill="#ffffff" stroke="none" stroke-width="0.17188" stroke-linecap="butt"/><g data-paper-data="{&quot;index&quot;:null}" stroke="none" stroke-linecap="butt"><path d="M240.20759,174.49943c0,-0.5294 0.20288,-0.95856 0.45313,-0.95856c0.25025,0 0.45313,0.42916 0.45313,0.95856c0,0.5294 -0.20288,0.95856 -0.45313,0.95856c-0.25025,0 -0.45313,-0.42916 -0.45313,-0.95856z" fill="#008ae6" stroke-width="0"/><path d="M240.65604,173.67388c0.07892,-0.00736 0.1526,0.07 0.20772,0.20091c0.05525,0.13092 0.09193,0.31542 0.09713,0.52227c0.00504,0.20696 -0.0224,0.39744 -0.07075,0.53808c-0.04848,0.14062 -0.11785,0.23142 -0.19677,0.23877c-0.07892,0.00736 -0.15261,-0.07 -0.20772,-0.20089c-0.05525,-0.13092 -0.09195,-0.31541 -0.097,-0.52225c-0.00518,-0.20699 0.02225,-0.39747 0.07057,-0.53811c0.04848,-0.14062 0.11796,-0.23126 0.19679,-0.23877z" fill="#000000" stroke-width="0.0278"/><path d="M240.51162,173.9118c0.0419,-0.0978 0.10095,-0.15994 0.16695,-0.16301c0.06603,-0.00305 0.12675,0.05362 0.17136,0.14739c0.0448,0.0938 0.07346,0.22477 0.07549,0.37069c0.00217,0.14612 -0.02276,0.27956 -0.06483,0.37735c-0.0419,0.0978 -0.10095,0.15998 -0.16695,0.16303c-0.06603,0.00305 -0.12675,-0.05361 -0.17136,-0.1474c-0.0448,-0.0938 -0.07346,-0.22477 -0.07549,-0.37069c-0.00217,-0.14612 0.02276,-0.27956 0.06483,-0.37735z" fill="#ffffff" stroke-width="0.01811"/></g><path d="M240.66044,175.27066l0.46708,-0.04595c0,0 -0.54629,0.70961 -0.95305,0.63138c-0.40676,-0.07822 -0.43938,-0.6276 -0.43938,-0.6276z" data-paper-data="{&quot;index&quot;:null}" fill="#f0e9bb" stroke="none" stroke-width="0" stroke-linecap="butt"/><path d="M240.55501,173.10453c-0.41598,-0.42365 -0.72904,-0.49569 -1.03205,-0.23153c-0.22698,0.17767 -0.383,0.79509 -0.39571,1.21444c-0.01699,0.56033 0.12964,0.98414 0.12964,0.98414c0,0 -0.12404,-0.12706 -0.22167,-0.41893c-0.09763,-0.29187 0.0206,-0.63787 -0.1514,-0.75489c-0.18012,-0.12255 -1.02374,-0.25869 -1.02374,-0.25869c0,0 1.18552,-0.00044 1.18793,-0.07506c0.01043,-0.32357 0.20922,-0.65476 0.32552,-0.75955c0.20913,-0.18845 0.43372,-0.26181 0.70783,-0.18982c0.19655,0.05163 0.36344,0.21798 0.57155,0.43023c0.67457,0.688 0.61877,2.11745 0.61877,2.11745c0,0 -0.14592,-1.60991 -0.71667,-2.05779z" data-paper-data="{&quot;index&quot;:null}" fill="#000000" stroke="none" stroke-width="0" stroke-linecap="butt"/><path d="M242.97368,180.8158c0,0 -0.20896,0.51645 -1.18421,0.57895c-0.53665,0.03439 -1.09714,-0.3092 -1.01645,-0.46382c0.15625,-0.29941 0.37343,0.04276 0.91118,0.04276c0.53775,0 1.28947,-0.15789 1.28947,-0.15789z" fill="#ead42f" stroke="none" stroke-width="0" stroke-linecap="butt"/><path d="M239.85938,180.51563l0.14063,0.03125c0,0 0.17188,0.18842 0.17188,0.34375c0,0.15533 -0.01864,0.09375 -0.23437,0.09375c-0.21573,0 -0.07812,-0.46875 -0.07812,-0.46875z" fill="#ead42f" stroke="none" stroke-width="0" stroke-linecap="butt"/></g></g></svg>