<svg version="1.1" xmlns="http://www.w3.org/2000/svg" xmlns:xlink="http://www.w3.org/1999/xlink" width="155.54363" height="28.02577" viewBox="0,0,155.54363,28.02577"><g transform="translate(-162.22818,-165.98711)"><g data-paper-data="{&quot;isPaintingLayer&quot;:true}" fill-rule="nonzero" stroke="none" stroke-width="0.26458" stroke-linecap="butt" stroke-linejoin="miter" stroke-miterlimit="10" stroke-dasharray="" stroke-dashoffset="0" style="mix-blend-mode: normal"><g fill="#ff0000"><path d="M173.7713,185.53999c1.34669,0 2.40481,-0.43449 3.17436,-1.30352c0.76955,-0.86903 1.1543,-2.17256 1.1543,-3.91057v-1.6294c0,-1.73803 -0.38476,-3.09588 -1.1543,-4.07352c-0.76955,-0.97765 -1.82766,-1.46647 -3.17436,-1.46647h-2.88576v12.38348zM162.22818,165.98715h11.54312c4.04011,0 7.21444,1.24921 9.52307,3.74761c2.30864,2.49843 3.46294,5.92017 3.46294,10.26526c0,3.69333 -1.1543,6.84349 -3.46294,9.45054c-2.30864,2.60705 -5.48299,3.91057 -9.52307,3.91057h-11.54312z"/><path d="M189.6431,193.36114v-27.37398h20.20047v7.82113h-11.54312v1.95527h11.54312v7.82113h-11.54312v1.95527h11.54312v7.82113z"/><path d="M212.72934,193.36114v-27.37398h8.65735v19.55285h11.54312v7.82113z"/><path d="M235.81563,181.95532v-15.96815h8.08019v15.96815c0,2.60705 0.96193,3.91057 2.88576,3.91057h0.57718c1.73145,0 2.5972,-1.30352 2.5972,-3.91057v-15.96815h7.50305v15.96815c0,7.82113 -3.46294,11.73171 -10.38884,11.73171c-7.50302,0 -11.25452,-3.91057 -11.25452,-11.73171z"/><path d="M260.34474,193.36114l4.61725,-13.68701l-4.61725,-13.68701h8.08019l2.88579,9.45054l2.88576,-9.45054h8.08019l-4.61725,13.68701l4.61725,13.68701h-8.08019l-2.88576,-9.45054l-2.88579,9.45054z"/><path d="M285.16246,193.36114v-27.37398h20.20047v7.82113h-11.54315v1.95527h11.54315v7.82113h-11.54315v1.95527h11.54315v7.82113z"/><path d="M317.77181,165.98715l-1.44291,16.9458h-6.63729l-1.44291,-16.9458zM308.8836,189.35282c-0.03852,-1.23835 0.32698,-2.34635 1.0966,-3.324c0.76955,-0.97765 1.82766,-1.46647 3.17436,-1.46647c1.1543,0 2.11622,0.48883 2.88576,1.46647c0.76955,0.97765 1.1543,2.11822 1.1543,3.42173c0,1.30352 -0.38476,2.38979 -1.1543,3.25882c-0.76955,0.86903 -1.73145,1.30352 -2.88576,1.30352c-1.34669,0 -2.40481,-0.43449 -3.17436,-1.30352c-0.76955,-0.86903 -1.13508,-1.98786 -1.0966,-3.35656z"/></g><g fill="#71ff33"><path d="M176.95771,186.43065c1.2819,0 2.28912,-0.36625 3.02164,-1.09877c0.73252,-0.73252 1.09877,-1.8313 1.09877,-3.29633v-1.37346c0,-1.46504 -0.36625,-2.6096 -1.09877,-3.43368c-0.73252,-0.8241 -1.73974,-1.23612 -3.02164,-1.23612h-2.74692v10.43838zM165.96994,169.94902h10.98776c3.84573,0 6.86734,1.05298 9.0649,3.15896c2.19756,2.10599 3.29633,4.99028 3.29633,8.65287c0,3.1132 -1.09877,5.76857 -3.29633,7.96613c-2.19756,2.19756 -5.21919,3.29633 -9.0649,3.29633h-10.98776z"/><path d="M192.06587,193.02331v-23.07429h19.22859v6.59265h-10.98776v1.64815h10.98776v6.59265h-10.98776v1.64815h10.98776v6.59265z"/><path d="M214.04139,193.02331v-23.07429h8.24083v16.48164h10.98776v6.59265z"/><path d="M236.01694,183.40904v-13.46h7.69144v13.46c0,2.19756 0.91566,3.29633 2.74692,3.29633h0.54941c1.64815,0 2.47225,-1.09877 2.47225,-3.29633v-13.46h7.14206v13.46c0,6.59265 -3.29633,9.88898 -9.88901,9.88898c-7.14203,0 -10.71305,-3.29633 -10.71305,-9.88898z"/><path d="M259.36592,193.02331l4.39511,-11.53716l-4.39511,-11.53716h7.69144l2.74695,7.96613l2.74692,-7.96613h7.69144l-4.39511,11.53716l4.39511,11.53716h-7.69144l-2.74692,-7.96613l-2.74695,7.96613z"/><path d="M282.98961,193.02331v-23.07429h19.22859v6.59265h-10.98778v1.64815h10.98778v6.59265h-10.98778v1.64815h10.98778v6.59265z"/><path d="M314.03005,169.94902l-1.37349,14.28408h-6.31795l-1.37349,-14.28408zM305.56948,189.6446c-0.03668,-1.04383 0.31126,-1.97781 1.04383,-2.80189c0.73252,-0.8241 1.73974,-1.23612 3.02164,-1.23612c1.09877,0 2.0144,0.41204 2.74692,1.23612c0.73252,0.8241 1.09877,1.7855 1.09877,2.88427c0,1.09877 -0.36625,2.01443 -1.09877,2.74695c-0.73252,0.73252 -1.64815,1.09877 -2.74692,1.09877c-1.2819,0 -2.28912,-0.36625 -3.02164,-1.09877c-0.73252,-0.73252 -1.08047,-1.67563 -1.04383,-2.82934z"/></g></g></g></svg>