<svg version="1.1" xmlns="http://www.w3.org/2000/svg" xmlns:xlink="http://www.w3.org/1999/xlink" width="31.21616" height="35.37094" viewBox="0,0,31.21616,35.37094"><g transform="translate(-221.57234,-165.03022)"><g data-paper-data="{&quot;isPaintingLayer&quot;:true}" fill-rule="nonzero" stroke-miterlimit="10" stroke-dasharray="" stroke-dashoffset="0" style="mix-blend-mode: normal"><g stroke-linejoin="miter"><path d="M240.86739,199.90064c0,0 1.91073,-1.05005 2.7108,-1.71873c0.64845,-0.54197 0.29249,-4.71302 0.29249,-4.71302c0,0 1.37263,0.20184 1.09438,1.69866c-0.07825,0.42096 0.00269,1.08007 -0.271,1.99447c-0.27368,0.91441 -0.59005,1.7258 -1.30212,2.25094c-0.71206,0.52512 -2.14376,1.03852 -2.93424,0.98424c-1.09923,-0.10248 -0.844,-0.43897 -0.844,-0.43897z" fill="#947043" stroke="none" stroke-width="0" stroke-linecap="butt"/><path d="M240.4683,192.66005l2.91253,-0.85102l0.24586,0.67882l-0.16775,0.09579c0,0 0.2552,0.14856 0.29014,0.21679c0.15304,0.29893 0.00353,0.29898 0.00353,0.29898c0,0 0.36935,0.48653 0.59889,0.80761c0.22957,0.32107 0.11221,1.90233 0.10404,1.96299c-0.07089,0.52677 -0.08933,1.33795 -0.40376,2.11894c-0.26495,0.65805 -1.26537,1.43285 -2.06426,1.81701c-1.09374,0.38668 -2.4377,0.28967 -2.4377,0.28967c0,0 -0.39335,-1.55192 -0.20626,-2.60713c0.36353,-0.9383 0.48315,-1.38524 0.59706,-1.80004c0.09256,-0.33713 0.22171,-1.23433 0.22171,-1.23433l-0.04679,-0.41921l0.11762,-0.34239z" fill="#20201f" stroke="none" stroke-width="0" stroke-linecap="butt"/><path d="M242.79966,192.45777c0,0 0.36562,0.50274 0.60851,0.89672c0.30779,0.49927 1.04774,1.80067 1.04774,1.80067" fill="none" stroke="#c8c7c6" stroke-width="0.125" stroke-linecap="round"/><path d="M243.25631,190.37459c0.09799,0.7373 0.32194,0.91729 0.08013,1.41547c-0.24182,0.49818 -0.62164,0.77025 -1.21108,0.91438c-1.09001,0.13873 -1.42904,0.10544 -1.88984,-0.12925c-0.17062,-0.13581 -0.61262,-1.12436 -0.57996,-1.82412c0.00856,-0.18349 0.66413,-1.20741 1.40761,-1.28513c0.74348,-0.07774 2.07001,-0.01812 2.19316,0.90865z" fill="#c274a1" stroke="none" stroke-width="0" stroke-linecap="butt"/><path d="M243.24668,190.43635c0.09797,0.73732 -1.21809,0.98219 -1.60414,1.0029c-0.47078,0.02526 -2.02927,0.07331 -1.99663,-0.62644c0.00855,-0.18348 0.66413,-1.20741 1.40762,-1.28513c0.74348,-0.07774 2.07,-0.01811 2.19316,0.90865z" fill="#cacacd" stroke="none" stroke-width="0" stroke-linecap="butt"/><path d="M241.93367,199.04666c0.04044,0.22784 0.27328,0.25732 0.22382,0.4439c-0.0829,0.31272 -0.30604,0.32945 -0.37011,0.31946c-0.1023,-0.01597 -0.21048,-0.31954 -0.18783,-0.70708c0.02266,-0.38754 0.04869,-0.83282 0.04869,-0.83282c0,0 0.24498,0.5487 0.28542,0.77655z" fill="#c8c7c6" stroke="none" stroke-width="0" stroke-linecap="butt"/><path d="M239.28848,197.87202c0,0 0.13518,-1.13783 1.41615,-1.13316c1.8241,0.00664 2.46121,2.0629 2.46121,2.0629" fill="none" stroke="#c8c7c6" stroke-width="0.125" stroke-linecap="round"/><path d="M239.73597,198.53212c0,0 0.11308,0.43146 0.2115,0.80698c0.09842,0.37552 0.05206,0.69443 -0.04511,0.73022c-0.06087,0.02242 -0.28291,0.04986 -0.4257,-0.24044c-0.08519,-0.17322 0.13731,-0.2479 0.13218,-0.47925c-0.00513,-0.23134 0.12716,-0.81751 0.12716,-0.81751z" data-paper-data="{&quot;index&quot;:null}" fill="#c8c7c6" stroke="none" stroke-width="0" stroke-linecap="butt"/></g><path d="M241.54577,184.53096l0.35128,3.44541l0.1114,2.24316c0,0 -0.30316,0.29711 -0.52282,0.44137c-0.21965,0.14424 -0.59817,0.18327 -0.59817,0.18327l-0.24467,-2.2917l-0.33235,-3.7324z" fill="#20201f" stroke="none" stroke-width="0" stroke-linecap="butt" stroke-linejoin="miter"/><g stroke-linejoin="miter"><path d="M247.15817,198.44428c0,0 1.29315,-1.75538 1.73843,-2.69819c0.36092,-0.76417 -1.71373,-4.40016 -1.71373,-4.40016c0,0 1.33049,-0.39323 1.70653,1.08206c0.10575,0.4149 0.45601,0.97909 0.59161,1.92389c0.13561,0.9448 0.18923,1.81404 -0.23648,2.58966c-0.42571,0.7756 -1.50946,1.84275 -2.24965,2.12546c-1.04066,0.36861 -0.95029,-0.04397 -0.95029,-0.04397l1.11361,-0.57876z" fill="#947043" stroke="none" stroke-width="0" stroke-linecap="butt"/><path d="M243.7554,192.04066l2.2859,-1.99543l0.50819,0.51282l-0.11202,0.15737c0,0 0.294,0.02767 0.35436,0.07492c0.26442,0.20703 0.12875,0.26985 0.12875,0.26985c0,0 0.53952,0.28645 0.88267,0.48145c0.34316,0.19498 0.90068,1.67934 0.91874,1.73783c0.15687,0.50784 0.48079,1.25176 0.52339,2.09262c0.03589,0.70848 -0.54667,1.83175 -1.1104,2.51589c-0.83025,0.81023 -2.09072,1.28658 -2.09072,1.28658c0,0 -1.00869,-1.24328 -1.28201,-2.27948c-0.0641,-1.00421 -0.14321,-1.46008 -0.21405,-1.88437c-0.05756,-0.34482 -0.31714,-1.21331 -0.31714,-1.21331l-0.21853,-0.3608l-0.03703,-0.36012z" fill="#20201f" stroke="none" stroke-width="0" stroke-linecap="butt"/><path d="M245.7863,190.87804c0,0 0.54293,0.30273 0.92879,0.55831c0.48897,0.32387 1.70705,1.19423 1.70705,1.19423" fill="none" stroke="#c8c7c6" stroke-width="0.125" stroke-linecap="round"/><path d="M245.32592,188.79567c0.39855,0.62799 0.67738,0.6973 0.66713,1.25097c-0.01027,0.55368 -0.24073,0.96008 -0.71513,1.33842c-0.93098,0.58364 -1.25265,0.69579 -1.76941,0.67632c-0.21188,-0.05161 -1.02815,-0.76315 -1.29236,-1.41193c-0.06928,-0.17011 0.0957,-1.37469 0.73781,-1.75744c0.64211,-0.38277 1.87103,-0.8857 2.37199,-0.09634z" fill="#c274a1" stroke="none" stroke-width="0" stroke-linecap="butt"/><path d="M245.34309,188.85577c0.39855,0.628 -0.69301,1.40292 -1.03469,1.58382c-0.41665,0.22063 -1.81089,0.9187 -2.07512,0.26993c-0.06929,-0.17011 0.0957,-1.37469 0.73781,-1.75745c0.64211,-0.38277 1.87103,-0.88569 2.37199,-0.09634z" fill="#cacacd" stroke="none" stroke-width="0" stroke-linecap="butt"/><path d="M247.76726,197.22146c0.13237,0.18978 0.35608,0.11877 0.38955,0.30886c0.05607,0.3186 -0.13937,0.42751 -0.20174,0.44535c-0.09956,0.02847 -0.3252,-0.20161 -0.46739,-0.56284c-0.14217,-0.36123 -0.30554,-0.77626 -0.30554,-0.77626c0,0 0.45276,0.39509 0.58514,0.58489z" fill="#c8c7c6" stroke="none" stroke-width="0" stroke-linecap="butt"/><path d="M245.88554,197.46161c0,0 0.2611,0.36162 0.48835,0.67636c0.22725,0.31475 0.29904,0.62889 0.22133,0.69732c-0.04869,0.04285 -0.24589,0.14855 -0.48377,-0.07072c-0.14194,-0.13081 0.03865,-0.28074 -0.04961,-0.49465c-0.08825,-0.21391 -0.17628,-0.80833 -0.17628,-0.80833z" data-paper-data="{&quot;index&quot;:null}" fill="#c8c7c6" stroke="none" stroke-width="0" stroke-linecap="butt"/><path d="M244.87334,197.26622c0,0 -0.35513,-1.08941 0.80937,-1.62308c1.65826,-0.75998 3.09996,0.83864 3.09996,0.83864" fill="none" stroke="#c8c7c6" stroke-width="0.125" stroke-linecap="round"/><g fill="#83c4ac" stroke="none" stroke-width="0" stroke-linecap="butt"><path d="M246.13716,192.08155c-0.1201,0.05448 -0.75512,-0.23111 -0.75512,-0.23111l0.55436,-0.87291l0.21514,0.01377c0,0 0.0874,1.04407 -0.01438,1.09025z"/><path d="M246.37673,190.18645c0.13135,0.01178 0.48066,0.42517 0.48066,0.42517l-0.68283,0.44571l-0.28395,-0.05814c0,0 0.3748,-0.8227 0.4861,-0.81273z" data-paper-data="{&quot;index&quot;:null}"/><path d="M247.1306,192.52125c-0.10853,0.07491 -0.78413,-0.09355 -0.78413,-0.09355l0.34632,-0.95467l0.25865,-0.02728c0,0 0.27114,1.01203 0.17916,1.07552z"/><path d="M246.91377,190.56703c0.12959,-0.02453 0.57846,0.27781 0.57846,0.27781l-0.53521,0.61519l-0.28905,0.02156c0,0 0.13598,-0.89378 0.2458,-0.91457z" data-paper-data="{&quot;index&quot;:null}"/><path d="M247.81235,192.9088l-0.50596,-0.83552c0,0 -0.30924,-0.2342 -0.21994,-0.38075c0.08931,-0.14653 0.3499,0.1675 0.3499,0.1675l0.75133,0.4635l0.04549,0.39364z"/></g></g><path d="M242.23743,184.62154l1.63944,3.40249l0.60104,1.21173c0,0 -0.17198,0.4051 -0.36446,0.6001c-0.19251,0.195 -0.68677,0.46478 -0.68677,0.46478l-0.78032,-1.63142l-1.71415,-3.7691z" fill="#20201f" stroke="none" stroke-width="0" stroke-linecap="butt" stroke-linejoin="miter"/><g stroke="none" stroke-width="0" stroke-linecap="butt" stroke-linejoin="miter"><path d="M231.26456,179.13124c0.84017,0.13406 2.19913,0.56074 2.19913,0.56074l0.54867,2.39302c0,0 -0.08039,0.35485 -0.52172,0.70196c-0.28662,0.22543 -0.88409,0.30235 -0.88409,0.30235c0,0 0.65514,0.27582 0.37064,0.77794c-0.18267,0.32238 -1.29037,0.26514 -1.67168,0.15147c-0.22447,-0.0669 -0.57574,-0.31787 -0.73691,-0.6136c-0.10167,-0.18654 -0.06778,-0.47775 -0.06778,-0.47775c0,0 -0.37503,-0.03355 -0.3743,-0.43506c0.00022,-0.12303 -0.03417,-0.29125 -0.03417,-0.29125c0,0 -0.26033,-0.10789 -0.36702,-0.21518c-0.10668,-0.10728 -0.16761,-0.34963 -0.16761,-0.34963l0.16646,-0.38506c0,0 -0.36869,-0.39587 -0.39543,-0.5035c-0.10495,-0.4223 0.28464,-0.70702 0.49275,-0.86117c0.38106,-0.28225 1.30921,-0.77664 1.44306,-0.75528z" fill="#20201f"/><path d="M236.32399,179.3062c0.79433,-0.36473 2.01843,-0.86638 3.11972,-1.13543c0.36468,-0.08909 0.50555,0.06594 0.5719,0.26103c0.09875,0.2904 -0.00734,0.49957 -0.2877,0.60788c-1.11886,0.43222 -2.08919,0.83055 -2.84072,1.17564c-0.45818,0.21038 -1.90875,0.9899 -1.90875,0.9899l-0.99322,-0.9117c0,0 1.20309,-0.46587 2.33877,-0.98733z" fill="#fed5c7"/><path d="M234.29835,178.76033c0.92719,0.14573 1.48569,1.02661 1.62064,2.08575c0.13494,1.05914 -0.16629,2.22572 -1.09324,2.05365c-0.92695,-0.17206 -1.92811,-1.26395 -2.09833,-2.6c-0.17022,-1.33603 0.64374,-1.68516 1.57095,-1.53942z" fill="#20201f"/><path d="M232.52117,182.94502c0,0 0.73321,0.11065 0.57451,0.69137c-0.10189,0.37286 -0.6095,0.54181 -1.02421,0.5248c-0.24414,-0.01 0.4497,-1.21617 0.4497,-1.21617z" fill="#c0c2c6"/><path d="M231.87849,181.68451c0,0 0.73321,0.11065 0.57451,0.69137c-0.10189,0.37286 -0.6095,0.54181 -1.02421,0.5248c-0.24414,-0.01 0.4497,-1.21617 0.4497,-1.21617z" fill="#c0c2c6"/><path d="M231.33955,180.53147c0,0 0.73321,0.11065 0.57451,0.69137c-0.10189,0.37286 -0.6095,0.54181 -1.02421,0.5248c-0.24414,-0.01 0.4497,-1.21617 0.4497,-1.21617z" fill="#c0c2c6"/><path d="M232.92211,179.89533c0,0 0.64184,0.37134 0.28159,0.85366c-0.2313,0.30969 -0.76551,0.28113 -1.14521,0.11353c-0.22353,-0.09868 0.86362,-0.96721 0.86362,-0.96721z" fill="#c0c2c6"/><path d="M231.10707,179.62003c0,0 0.73321,0.11065 0.57451,0.69137c-0.10189,0.37286 -0.6095,0.54181 -1.02421,0.5248c-0.24414,-0.01 0.4497,-1.21617 0.4497,-1.21617z" fill="#c0c2c6"/><g><path d="M236.67473,178.96598l1.07625,-0.39385l0.63084,1.29671l-1.05912,0.42351z" fill="#83c4ac"/><path d="M238.66689,177.77445c0.61427,-0.24236 1.30889,-0.01395 1.56701,0.54469c0.25813,0.55865 -0.02494,1.22051 -0.63225,1.47834c-1.07968,0.45837 -1.4712,0.10779 -1.72934,-0.45086c-0.25813,-0.55865 -0.22948,-1.16811 0.79457,-1.57216z" fill="#20201f"/><path d="M235.21452,179.1771l1.47271,-0.2579l0.66511,1.35602l-1.19715,1.00841l-0.42778,-0.50637l-0.4548,-1.04765z" fill="#bebec0"/></g></g><g data-paper-data="{&quot;index&quot;:null}" stroke-width="0" stroke-linecap="butt" stroke-linejoin="miter"><g data-paper-data="{&quot;index&quot;:null}"><path d="M229.31029,169.48772c-0.15246,-1.05248 0.58032,-2.02973 1.63665,-2.18275c1.05636,-0.15302 2.03629,0.57613 2.18873,1.62861c0.15246,1.05248 -0.5803,2.02973 -1.63663,2.18274c-1.05636,0.15302 -2.03631,-0.57613 -2.18875,-1.62861z" fill="#c2e266" stroke="none"/><path d="M230.06228,170.02056c-0.09419,-0.65022 0.35849,-1.25397 1.01112,-1.3485c0.65262,-0.09454 1.25802,0.35593 1.35221,1.00616c0.09419,0.65022 -0.35849,1.25397 -1.01112,1.3485c-0.65262,0.09454 -1.25802,-0.35594 -1.35221,-1.00616z" fill="#c2e266" stroke="#000000"/><path d="M230.23848,173.7236c-0.48901,-0.97342 0.13153,-2.17204 0.13153,-2.17204l2.07935,-0.31623c0,0 0.18075,0.17896 0.69662,1.42002c0.53564,1.28863 -0.50003,3.42666 -0.50003,3.42666c0,0 -1.91848,-1.38498 -2.40747,-2.3584z" fill="#e8edf4" stroke="#000000"/><path d="M231.47326,171.61926c-0.50565,0.07554 -1.39579,-0.0889 -1.39579,-0.0889l0.11788,-0.7056c0,0 0.67999,0.31019 1.13314,0.27057c0.45314,-0.03961 1.03707,-0.46032 1.03707,-0.46032l0.34964,0.44436c0,0 -0.66419,0.45357 -1.24194,0.53988z" fill="#dbded5" stroke="#000000"/></g><g data-paper-data="{&quot;index&quot;:null}" stroke="none"><path d="M238.00602,174.46407c0.1991,-0.02884 0.40903,0.2828 0.46889,0.69607c0.05987,0.41328 -0.053,0.77168 -0.25211,0.80052c-0.1991,0.02884 -0.40905,-0.2828 -0.46891,-0.69607c-0.05987,-0.41328 0.05301,-0.77168 0.25213,-0.80052z" fill="#000000"/><path d="M240.15314,179.48306c0.2074,-0.03004 0.95592,0.77603 0.98225,0.95788c0.02635,0.18184 -0.14894,1.42734 -0.35632,1.45738c-0.2074,0.03004 -1.29445,-0.14865 -1.29445,-0.14865c0,0 0.46114,-2.23657 0.66853,-2.26661z" fill="#807d5a"/><path d="M232.7087,170.40527l0.10851,-0.16852l5.66228,5.13901l-0.05535,0.32381z" fill="#6e6e73"/><path d="M234.76696,171.83884l-0.25418,0.3628l-1.35674,-1.17868l0.28421,-0.36714z" fill="#c2e266"/></g></g><g stroke-width="0" stroke-linecap="butt" stroke-linejoin="miter"><g data-paper-data="{&quot;index&quot;:null}"><path d="M250.25526,169.94558c-1.35513,0.19629 -2.61224,-0.73907 -2.80781,-2.08923c-0.19558,-1.35015 0.74441,-2.6038 2.09955,-2.80011c1.35513,-0.19629 2.61224,0.73908 2.80781,2.08924c0.19558,1.35015 -0.74442,2.6038 -2.09955,2.8001z" fill="#c2e266" stroke="none"/><path d="M250.32664,169.80457c-0.8372,0.12128 -1.61383,-0.45662 -1.73465,-1.29075c-0.12083,-0.83413 0.4599,-1.60863 1.29711,-1.72991c0.8372,-0.12128 1.61384,0.45659 1.73466,1.29074c0.12083,0.83413 -0.45991,1.60864 -1.29711,1.72992z" fill="#c2e266" stroke="#000000"/><path d="M252.75497,172.69392c-0.24719,1.3754 -2.10297,3.77744 -2.10297,3.77744c0,0 -2.05224,-2.253 -1.86244,-4.03311c0.1828,-1.71443 0.33999,-2.00036 0.33999,-2.00036l2.67293,-0.36792c0,0 1.19966,1.24855 0.95247,2.62395z" fill="#e8edf4" stroke="#000000"/><path d="M250.47003,170.55482c-0.7421,0.10416 -1.72422,-0.21202 -1.72422,-0.21202l0.26834,-0.6739c0,0 0.87143,0.30496 1.44328,0.18874c0.57184,-0.11621 1.29536,-0.74533 1.29536,-0.74533l0.40184,0.82507c0,0 -1.03511,0.52629 -1.68459,0.61743z" fill="#dbded5" stroke="#000000"/></g><g data-paper-data="{&quot;index&quot;:null}" stroke="none"><path d="M245.09694,178.72668c0.26446,0.39031 0.3528,2.1639 0.3528,2.1639l-3.08037,0.46581c0,0 -1.18963,-1.13016 -1.07794,-2.58494c0.08212,-1.06947 1.42643,-2.57553 1.62385,-2.61021c1.27202,-0.22347 1.91716,2.17513 2.18162,2.56544z" fill="#c2e266"/><path d="M244.07115,177.32523c0.0768,0.53016 -0.06799,0.98994 -0.32341,1.02694c-0.25542,0.037 -0.52475,-0.36279 -0.60154,-0.89296c-0.0768,-0.53016 0.068,-0.98994 0.32343,-1.02694c0.25542,-0.037 0.52473,0.36279 0.60152,0.89296z" fill="#000000"/><path d="M245.61216,183.07403c-0.0244,0.85991 -0.28791,2.27207 -0.28791,2.27207l-1.09927,0.64699c0,0 -1.49544,-0.36375 -1.58024,-1.13015c-0.0421,-0.38055 -0.26617,-3.36707 -0.26617,-3.36707l1.10598,-0.95326c0,0 0.60452,-0.0355 0.98054,0.01863c0.376,0.05413 0.98602,0.31461 0.98602,0.31461c0,0 0.18543,1.33831 0.16104,2.19822z" fill="#20201f"/><path d="M244.30289,185.93256c0,0 -1.27213,0.61551 -1.5382,0.65406c-0.26606,0.03854 -0.93506,-1.42976 -0.96885,-1.66303c-0.03379,-0.23327 0.59354,-1.49732 0.8596,-1.53585c0.26606,-0.03854 1.64744,2.54481 1.64744,2.54481z" fill="#c274a1"/><path d="M243.40499,178.10428l-0.18594,-0.37817l5.09452,-8.3827l0.19481,0.16781z" fill="#6e6e73"/><path d="M247.69972,170.08574l0.48327,0.34816l-1.23989,1.94378l-0.44473,-0.35376z" fill="#c2e266"/></g></g><g stroke="none" stroke-width="0" stroke-linecap="butt" stroke-linejoin="miter"><path d="M241.91843,182.65585l1.30701,-0.25626l2.60903,1.62476l2.48,-0.79894c0,0 -1.4503,1.46823 -2.33734,1.58597c-0.81632,0.10834 -4.05872,-2.15556 -4.05872,-2.15556z" fill="#f79db4"/><path d="M242.87754,179.62321c0.32359,-0.60982 1.08025,-0.84187 1.69008,-0.51829c0.60982,0.32359 0.84187,1.08024 0.51829,1.69007c-0.32359,0.60982 -0.92157,0.62943 -1.5314,0.30586c-0.60982,-0.32359 -1.00055,-0.86781 -0.67697,-1.47765z" fill="#83c4ac"/><path d="M236.89827,182.79295c0,0 0.65587,0.11609 1.04182,0.57661c0.54462,0.64985 1.06577,0.98236 3.46736,0.71606c2.14142,-0.23745 2.57068,-1.13257 2.99026,-1.64245c0.50884,-0.61833 0.74913,-0.84182 0.74913,-0.84182l1.90554,0.32854c0,0 -0.39345,0.50966 -0.50888,1.37639c-0.05334,0.94423 -0.70236,1.40589 -1.29307,1.53341c-0.46156,0.44777 -0.80312,1.32099 -1.64713,1.21977c-0.3956,0.70905 -1.21284,0.88223 -1.92475,0.54607c-0.50328,0.574 -1.23534,0.45065 -1.60059,0.09184c-0.85944,0.38 -1.55035,0.06104 -1.86921,-0.40837c-0.9777,-0.00328 -1.59186,-0.71615 -1.81835,-1.43885c-0.96586,-0.31432 -1.31803,-1.18733 -1.31803,-1.18733z" fill="#c0c2c6"/><path d="M239.22753,177.86174l0.35817,-0.09009l2.32389,-0.35616c0,0 -0.02936,1.42778 0.40045,2.14718c0.42981,0.7194 0.51372,0.85714 1.1601,1.29705c0.64637,0.43993 1.95327,0.81913 1.95327,0.81913c0,0 -0.43986,0.37348 -0.6675,0.88243c-0.14241,0.31839 -0.00153,0.76869 -0.23678,0.96991c-0.39827,0.34065 -0.85754,0.09065 -1.54472,0.3811c-0.3676,0.15538 -0.71108,0.86371 -1.34462,1.01135c-1.13123,0.2636 -1.55756,-0.32933 -2.27849,-0.59635c-0.33731,-0.12495 -0.87381,0.32558 -1.33171,0.04963c-0.34414,-0.20739 -0.14022,-0.61971 -0.3322,-0.85969c-0.32311,-0.40386 -0.91575,-0.6054 -0.91575,-0.6054c0,0 0.51811,-0.42176 1.14877,-0.90029c0.63068,-0.47854 1.24062,-1.18715 1.24062,-1.18715c0,0 -0.04723,-0.8927 -0.03654,-1.52957c0.01067,-0.63688 0.10303,-1.43308 0.10303,-1.43308z" fill="#20201f"/><path d="M243.10122,181.75567l-0.39817,-0.31372l0.49941,-0.81662c0,0 0.11781,0.0976 0.34036,0.2588c0.20049,0.14522 0.56814,0.32559 0.56814,0.32559l-0.18977,0.33348z" data-paper-data="{&quot;index&quot;:null}" fill="#c274a1"/><path d="M242.01983,182.30062l0.76643,-0.78279l0.31987,0.25317l-0.68147,0.69089z" data-paper-data="{&quot;index&quot;:null}" fill="#c0c2c6"/><path d="M238.27042,182.23554l-0.24728,-0.29337c0,0 0.3287,-0.24426 0.49943,-0.42353c0.18951,-0.199 0.2876,-0.3164 0.2876,-0.3164l0.63966,0.71212l-0.33443,0.38094z" fill="#c274a1"/><path d="M240.3462,182.96899l-1.20865,-0.74115l0.26846,-0.30715l1.30892,0.81605z" fill="#c0c2c6"/><path d="M242.51083,179.0974c0.46207,1.95259 -1.00972,2.07715 -1.1912,2.04235c-0.17612,-0.03377 -0.63531,-0.22592 -0.90604,-0.41534c-0.27566,-0.19287 -0.77341,-0.72595 -0.77341,-0.72595l-0.37305,0.74569c0,0 -0.44616,-0.83504 -0.53214,-1.45251c-0.1948,-1.39877 0.34504,-1.54117 0.34504,-1.54117l2.59226,-0.44429c0,0 0.46,0.1916 0.83855,1.79122z" fill="#c0c0c3"/><path d="M239.60499,178.2463l-0.64201,-0.4739l1.98221,-0.13545z" fill="#222225"/><g><g><path d="M240.38737,183.73386c-0.42939,-0.46959 -0.26085,-1.32265 0.37642,-1.90537c0.63728,-0.58273 1.50198,-0.67446 1.93137,-0.20488c0.42938,0.46958 0.26085,1.32264 -0.37644,1.90536c-0.63728,0.58273 -1.50198,0.67446 -1.93137,0.20488z" fill="#c0c2c6"/><path d="M241.0179,180.81178c0.13109,-0.21379 0.41067,-0.28086 0.62447,-0.14978c0.21379,0.13109 0.28086,0.41068 0.14978,0.62447c-0.13109,0.21379 -0.41068,0.28085 -0.62447,0.14977c-0.21379,-0.13109 -0.28086,-0.41067 -0.14977,-0.62447z" fill="#000000"/><path d="M241.06688,181.07974c-0.03346,-0.18524 0.08957,-0.36252 0.2748,-0.39598c0.18524,-0.03346 0.36252,0.08957 0.39598,0.2748c0.03346,0.18524 -0.10522,0.1683 -0.29046,0.20176c-0.18524,0.03346 -0.34685,0.10465 -0.38033,-0.08059z" fill="#c478a9"/><path d="M239.54382,182.65427c-0.14388,-0.2054 -0.09401,-0.48856 0.11139,-0.63244c0.2054,-0.14388 0.48856,-0.09401 0.63244,0.11139c0.14388,0.2054 0.09402,0.48856 -0.11138,0.63244c-0.2054,0.14388 -0.48856,0.09401 -0.63244,-0.11139z" fill="#000000"/><path d="M239.80912,182.71608c-0.18323,-0.0431 -0.29682,-0.22657 -0.25373,-0.40979c0.0431,-0.18323 0.22657,-0.29682 0.40979,-0.25373c0.18323,0.0431 0.11245,0.16356 0.06935,0.34679c-0.0431,0.18323 -0.04219,0.35985 -0.22542,0.31675z" fill="#c478a9"/><path d="M240.26655,182.76355c-0.01232,-0.08511 0.11256,-0.34017 0.35282,-0.37498c0.24026,-0.0348 0.47102,0.05771 0.48335,0.14281c0.01232,0.0851 -0.15144,0.32728 -0.39169,0.3621c-0.24025,0.0348 -0.43214,-0.04484 -0.44446,-0.12993z" fill="#000000"/><path d="M241.69351,181.47434c0.0828,0.02313 0.13721,0.22362 0.07191,0.45744c-0.06529,0.23382 -0.32648,0.36521 -0.40929,0.34208c-0.0828,-0.02313 -0.145,-0.26383 -0.07971,-0.49765c0.06529,-0.23382 0.33427,-0.325 0.41708,-0.30187z" data-paper-data="{&quot;index&quot;:null}" fill="#000000"/><path d="M240.54475,182.63996c-0.01305,-0.09009 0.04941,-0.17371 0.1395,-0.18676c0.09009,-0.01305 0.17371,0.04941 0.18677,0.1395c0.01305,0.09009 -0.04941,0.17371 -0.13951,0.18678c-0.09009,0.01305 -0.17371,-0.04941 -0.18677,-0.13951z" fill="#ffffff"/><path d="M241.28821,182.02335c-0.01377,-0.0951 0.05216,-0.18336 0.14725,-0.19714c0.0951,-0.01377 0.18336,0.05216 0.19714,0.14725c0.01377,0.0951 -0.05216,0.18336 -0.14725,0.19714c-0.0951,0.01377 -0.18336,-0.05216 -0.19714,-0.14725z" fill="#ffffff"/></g><path d="M241.45233,182.46133c0.0466,0.04638 0.04241,0.15212 -0.02538,0.22022c-0.06779,0.0681 -0.17351,0.07281 -0.22011,0.02642c-0.0466,-0.04638 0.19889,-0.29302 0.24549,-0.24664z" fill="#000000"/><path d="M241.10386,183.00229c0.04471,0.06129 -0.01179,0.17864 -0.12618,0.26209c-0.1144,0.08346 -0.24339,0.10145 -0.28811,0.04016c-0.04471,-0.06129 0.01179,-0.17864 0.12618,-0.26209c0.1144,-0.08346 0.24339,-0.10145 0.28811,-0.04016z" fill="#ad597c"/><path d="M242.19751,181.99258c0.04471,0.06129 -0.01179,0.17864 -0.12618,0.26209c-0.1144,0.08346 -0.24339,0.10145 -0.28811,0.04016c-0.04471,-0.06129 0.01179,-0.17864 0.12618,-0.26209c0.1144,-0.08346 0.24339,-0.10145 0.28811,-0.04016z" fill="#ad597c"/></g><g fill="#83c4ac"><path d="M238.90459,180.52335l-0.27772,-0.57254c0,0 0.31861,-0.23193 0.50571,-0.2954c0.1713,-0.0581 0.57369,-0.07068 0.57369,-0.07068l0.10601,0.17231c0,0 -0.26695,0.20104 -0.42604,0.33535c-0.14138,0.11936 -0.48167,0.43095 -0.48167,0.43095z"/><path d="M240.33517,180.25301c-0.15953,-0.1338 -0.54271,-0.47931 -0.54271,-0.47931l-0.14035,-0.19108c0,0 0.76382,0.17505 0.93531,0.23259c0.18731,0.06285 0.50667,0.29375 0.50667,0.29375l-0.27587,0.57344c0,0 -0.34128,-0.31049 -0.48305,-0.42938z" data-paper-data="{&quot;index&quot;:null}"/><path d="M239.59079,181.23538c0,0 -0.06733,-0.46073 -0.0842,-0.75782c-0.01687,-0.2971 0.00587,-0.62204 0.00587,-0.62204l0.27399,-0.06671c0,0 0.01367,0.4851 0.04132,0.79426c0.02765,0.30916 0.11137,0.91249 0.11137,0.91249z"/><path d="M240.13394,181.53489c0,0 -0.10799,-0.62682 -0.1692,-0.93111c-0.06121,-0.30429 -0.21238,-0.86402 -0.21238,-0.86402l0.24578,0.01841c0,0 0.1673,0.4865 0.23542,0.77619c0.06813,0.28966 0.13431,0.75055 0.13431,0.75055z" data-paper-data="{&quot;index&quot;:null}"/></g></g><g stroke-width="0" stroke-linecap="butt" stroke-linejoin="miter"><path d="M227.12324,174.62719c1.64387,1.40274 1.2265,4.22139 1.2265,4.22139l-0.59114,0.7525c0,0 -0.26667,-0.85455 -2.07369,-3.02407c-1.69232,-0.84158 -3.64347,-1.97832 -3.64347,-1.97832c0,0 -0.26251,0.23434 0.21863,-0.31165c0.48114,-0.546 0.34082,-0.31977 0.34082,-0.31977c0,0 2.2157,-1.30834 4.52231,0.65995z" fill="#cacacd" stroke="none"/><path d="M221.96924,174.63793c0,0 1.79654,-0.57076 3.75905,1.12197c2.08431,1.79777 2.06056,3.82854 2.06056,3.82854c0,0 -1.90997,2.12825 -4.72486,-0.31913c-2.50834,-2.18083 -1.09475,-4.63138 -1.09475,-4.63138z" fill="#c2e266" stroke="#000000"/><path d="M229.97462,176.70478l-5.55858,-4.90954c0,0 2.6216,-2.87699 5.35636,-0.58387c2.77436,2.32635 0.2022,5.4934 0.2022,5.4934z" fill="#c2e266" stroke="none"/><path d="M229.9228,176.78703l-1.74145,-3.80764l-3.75611,-1.18468l0.18147,-0.21282c0,0 1.82781,-0.98509 4.04698,0.86255c2.19158,1.82891 1.48793,4.06936 1.48793,4.06936z" fill="#cacacd" stroke="none"/><path d="M228.50514,172.92141c1.55723,1.42214 1.50328,3.78955 1.50328,3.78955l-1.94141,2.47025c0,0 -0.73228,-2.82176 -1.95042,-3.90248c-1.21812,-1.08073 -3.72003,-1.1283 -3.72003,-1.1283l2.01824,-2.36221c0,0 1.90529,-0.86233 4.09034,1.13318z" fill="#c274a1" stroke="none"/><path d="M230.30675,180.26066c0,0 0.4997,-0.4105 0.77427,-0.71154c0.27458,-0.30105 0.58814,-0.78219 0.58814,-0.78219l8.16252,7.80295c0,0 -0.27087,0.63602 -0.56183,0.95664c-0.29096,0.32064 -0.72449,0.46082 -0.72449,0.46082l-8.23861,-7.72669z" fill="#c2e266" stroke="none"/><path d="M228.19695,178.88551l1.71422,-2.1959c0,0 1.85739,1.52768 1.82162,1.87125c-0.06055,0.58186 -1.28716,1.79684 -1.70272,1.79169c-0.10947,-0.00134 -1.83315,-1.46704 -1.83315,-1.46704z" fill="#cacacd" stroke="none"/></g><g><g data-paper-data="{&quot;index&quot;:null}" fill="#86cbb6" stroke="none" stroke-width="0" stroke-linecap="butt" stroke-linejoin="miter"><path d="M233.50651,171.23594c-0.44379,0.18948 -0.94142,0.47132 -0.94142,0.47132l-0.31275,-0.9779c0,0 0.85118,-0.31196 1.28291,-0.34797c0.43174,-0.036 1.23919,0.21192 1.23919,0.21192l-0.56456,0.39853c0,0 -0.25956,0.05463 -0.70334,0.24409z"/><path d="M232.96774,172.37413c0,0 0.29394,-0.44209 0.46732,-0.68162c0.21612,-0.29859 0.72967,-0.97209 0.72967,-0.97209l0.5742,-0.15983c0,0 -0.52703,1.09341 -0.68193,1.4509c-0.11246,0.25955 -0.35386,0.81111 -0.35386,0.81111z"/></g><g stroke="none" stroke-width="0" stroke-linecap="butt" stroke-linejoin="miter"><path d="M232.99862,167.88013c0.63029,-0.57351 1.14962,-0.39975 1.59396,-0.16148c0.58175,0.30716 1.15818,0.87811 1.15818,0.87811c0,0 -0.66448,0.76247 -0.90008,1.29899c-0.23561,0.53653 -0.31816,1.47521 -0.31816,1.47521c0,0 -1.53774,-0.71185 -1.82417,-1.57581c-0.28644,-0.86395 -0.2627,-1.27921 0.29028,-1.91503z" data-paper-data="{&quot;index&quot;:null}" fill="#20201f"/><path d="M232.61034,168.86965c0.08493,-0.52764 1.13775,0.68517 1.13775,0.68517l-0.6166,0.84239c0,0 -0.63114,-0.8442 -0.52114,-1.52757z" data-paper-data="{&quot;index&quot;:null}" fill="#b2b1b2"/></g><path d="M239.45862,166.72792c3.3037,-0.47857 6.31645,1.44324 6.72917,4.29246c0.41272,2.84921 -1.93087,5.5469 -5.23456,6.02547c-3.3037,0.47857 -6.31645,-1.44322 -6.72918,-4.29244c-0.41272,-2.84921 1.93086,-5.54691 5.23456,-6.02548z" fill="#f79eb4" stroke="none" stroke-width="0" stroke-linecap="butt" stroke-linejoin="miter"/><path d="M235.16089,173.89434c-0.00029,-0.00067 0.36266,1.12697 0.85804,1.70941c0.49539,0.58244 2.27867,2.06638 2.27867,2.06638l0.41032,0.86123c0,0 -1.47278,0.15503 -2.98201,-1.81832c-0.9399,-1.22182 -1.0624,-2.27565 -1.05389,-2.2606" fill="#f79eb4" stroke="#f89db5" stroke-width="0" stroke-linecap="butt" stroke-linejoin="round"/><g fill="#ffd5c5" stroke="none" stroke-width="1" stroke-linecap="round" stroke-linejoin="round"><path d="M236.41724,176.13259c0.00437,-0.05951 0.1146,0.04314 0.16308,0.07795c0.29952,0.21487 0.54953,-0.12026 0.72273,-0.30142c0.13309,-0.13917 0.36971,-0.23711 0.556,-0.26635c0.89776,-0.13124 2.70953,0.20272 3.02197,0.17096c0.2908,-0.02954 1.06325,-0.61552 1.35512,-0.76447c0.29946,-0.15283 0.58171,-0.09164 0.63489,-0.06156c0.11151,0.06315 0.89408,0.45413 0.09267,1.6136c-0.11136,0.1611 -0.86868,0.80437 -1.3287,0.9275c-0.38575,0.1032 -1.72375,0.49716 -2.80907,0.30057c-0.86495,-0.15669 -1.42309,-0.47211 -1.49436,-0.51265c-0.43559,-0.24795 -0.95415,-0.63811 -0.91433,-1.1841z"/><path d=""/></g><g fill="#000000" stroke="#000000" stroke-width="0.125" stroke-linecap="butt" stroke-linejoin="round"><path d="M235.32358,174.72392c0.007,0.0238 -0.6357,0.0091 -0.7157,-0.00193c-0.36434,-0.05017 -0.67688,-0.11509 -1.02849,-0.22501c-0.11218,-0.03506 -0.48894,-0.19822 -0.48322,-0.19719c0.16809,0.03033 0.32815,0.11353 0.49595,0.15112c0.28026,0.06273 0.56528,0.10063 0.85042,0.13591c0.4506,0.03908 0.73941,-0.03355 0.80417,-0.02186"/><path d="M235.12211,174.25664c0.00651,0.0222 -0.62558,-0.02702 -0.9408,-0.14275c-0.31522,-0.11572 -1.02527,-0.54453 -1.01643,-0.53178c0.02344,0.03377 0.6478,0.30919 1.08767,0.43428c0.43988,0.12509 0.76603,0.06532 0.78769,0.03645"/></g><g fill="#000000" stroke="none" stroke-width="1" stroke-linecap="round" stroke-linejoin="round"><path d="M237.68309,176.33887c-0.10776,0.02304 -0.51767,-0.16692 -0.37805,-0.30408c0.08071,-0.07928 0.59589,-0.21305 0.75907,-0.12751c0.2147,0.11257 -0.1495,0.36214 -0.38103,0.43159z"/><path d=""/></g><path d="M244.70554,171.68402c0.02457,0.01033 0.19438,2.29898 0.12313,2.83757c-0.10694,0.80816 -0.35391,1.59855 -0.78874,2.29134c-0.18488,0.29454 -0.38476,0.54459 -0.61516,0.80111c-0.07457,0.08306 -0.39501,0.36634 -0.39501,0.36634c0,0 0.23159,-1.07261 0.03445,-2.71939c-0.10471,-0.87448 -0.50307,-2.78583 -0.47522,-2.73631" fill="#f79eb4" stroke="#f89db5" stroke-width="0" stroke-linecap="butt" stroke-linejoin="round"/><path d="M245.97481,170.82353c0.22941,0.32998 0.39533,2.19179 0.22477,3.5895c-0.13144,1.07714 -0.36725,1.39658 -0.77846,2.01918c-0.46569,0.70507 -0.86363,0.82683 -0.86363,0.82683c0,0 0.29664,-1.21085 0.33003,-2.002c0.03339,-0.79117 -0.07625,-3.60535 -0.09284,-3.61774" fill="#f79eb4" stroke="#f89db5" stroke-width="0" stroke-linecap="butt" stroke-linejoin="round"/><g stroke="none" stroke-width="1" stroke-linecap="round" stroke-linejoin="round"><path d="M235.61889,169.26326c0.08242,-0.13117 2.21026,-2.24771 5.23852,-2.22383c3.7486,0.06825 4.6997,4.07704 4.69698,4.07679c-0.03785,-0.00356 -0.84892,-1.47171 -1.8948,-2.01562c-1.35614,-0.7053 -2.14181,-1.11515 -3.52092,-1.13451c-1.74978,-0.02458 -3.93189,1.69693 -4.01733,1.76581" fill="#20201f"/><path d="" fill="#ee1a40"/></g><path d="M235.93564,172.02886c-0.03304,-0.01971 -1.65936,0.02135 -2.19008,0.31638c-0.97198,0.54032 -2.72106,1.52868 -2.74369,1.53444c-0.01578,0.00395 0.82469,-0.47882 1.0466,-1.19688c0.15518,-0.77669 0.9181,-1.44741 1.22106,-1.57158c1.70148,-0.68659 2.72528,-0.22926 2.70018,-0.24424" fill="#f79eb4" stroke="#f89db5" stroke-width="0" stroke-linecap="butt" stroke-linejoin="round"/><path d="M235.9616,170.87058c-0.11483,-0.06771 -1.47912,-0.73599 -2.53454,-0.7806c-0.76073,-0.03216 -2.73561,-1.16635 -2.73561,-1.16635c0,0 1.64018,0.53048 3.66292,0.14459c0.60279,-0.05554 0.77902,-0.01126 1.09343,0.19904c0.31441,0.21029 1.34512,1.43483 1.36601,1.51575" fill="#f79eb4" stroke="#f89db5" stroke-width="0" stroke-linecap="butt" stroke-linejoin="round"/><path d="M240.94508,171.37646c-0.60123,0.0871 -2.68793,2.08123 -2.68793,2.08123c0,0 0.57198,-3.53453 3.38335,-3.20965c1.20701,0.41903 0.87719,2.56784 0.87719,2.56784c0,0 -0.97136,-1.52651 -1.5726,-1.43942z" data-paper-data="{&quot;index&quot;:null}" fill="#20201f" stroke="none" stroke-width="0" stroke-linecap="butt" stroke-linejoin="miter"/><path d="M238.13274,174.0453c0.50586,-1.03482 0.54662,-2.77204 2.53833,-3.29753c0.43264,-0.11416 1.81077,0.2767 1.83675,2.43758c0.00864,0.71909 -0.15847,1.82716 -1.3322,2.59325c-0.61845,0.2853 -2.24723,-0.22267 -2.92143,-0.16011c-1.18369,0.10987 -0.93634,0.61297 -1.51909,0.67583c-0.14585,0.01573 -1.08711,-0.71818 -1.58807,-1.88061c-0.23622,-0.54814 -0.3109,-1.38789 -0.24346,-1.39706c0.44508,-0.06055 0.95759,0.80623 1.43437,1.26553c0.33348,0.32126 0.75331,0.56512 1.08257,0.48698c0.19194,-0.04555 0.38974,-0.06417 0.71221,-0.72385z" fill="#ffffff" stroke="none" stroke-width="0" stroke-linecap="butt" stroke-linejoin="miter"/><path d="M236.13786,173.03143c-0.10179,0.09991 -1.20173,0.71499 -1.38076,1.03032c-0.52689,0.94073 -2.02798,1.38141 -1.98994,1.40091c0.00176,0.00091 0.9732,-0.91328 0.9107,-1.52052c-0.03842,-0.14606 0.41729,-1.16987 0.64121,-1.34701c0.77949,-0.61661 1.7279,-0.52165 1.69192,-0.4864" fill="#f79eb4" stroke="#f89db5" stroke-width="0" stroke-linecap="butt" stroke-linejoin="round"/><g fill="#000000" stroke="#000000" stroke-width="0.125" stroke-linecap="butt" stroke-linejoin="round"><path d="M241.89355,171.28839c0.04627,-0.02499 0.09133,0.00409 0.13783,-0.00012c0.04876,-0.00442 0.26884,-0.05793 0.42965,-0.1267c0.82574,-0.35319 1.16435,-0.92406 1.16435,-0.92406c0,0 -0.09958,0.40013 -1.23283,1.11059c-0.17651,0.11067 -0.33001,0.11988 -0.35936,0.08772"/><path d="M242.32414,171.94134c0.0339,-0.00103 0.10255,0.04861 0.13434,0.06547c0.07211,0.03829 0.59746,0.25124 1.31616,0.03045c0.23797,-0.07454 0.97259,-0.40614 0.97259,-0.40614c0,0 -0.34692,0.28097 -1.01012,0.48018c-0.27813,0.08354 -0.89121,0.17605 -1.14354,0.13205c-0.13607,-0.02373 -0.17837,-0.06107 -0.17837,-0.06107"/></g><g stroke="none" stroke-linecap="butt" stroke-linejoin="miter"><path d="M240.0808,174.19536c0.14901,0.70505 0.08489,1.31568 -0.1432,1.36389c-0.22809,0.0482 -0.53382,-0.48426 -0.68283,-1.18931c-0.14901,-0.70505 -0.08488,-1.31569 0.14321,-1.3639c0.22809,-0.0482 0.53382,0.48426 0.68282,1.18932z" fill="#169c5b" stroke-width="NaN"/><path d="M239.87633,174.40336c0.06223,0.29448 0.03145,0.55038 -0.06877,0.57157c-0.10022,0.02119 -0.23194,-0.20038 -0.29416,-0.49488c-0.06223,-0.29448 -0.03145,-0.55038 0.06877,-0.57157c0.10022,-0.02119 0.23194,0.20038 0.29416,0.49488z" fill="#000000" stroke-width="0"/><path d="M239.65974,173.74964c0.06297,0.29795 0.01596,0.56019 -0.105,0.58575c-0.12097,0.02556 -0.27007,-0.19523 -0.33304,-0.49317c-0.06297,-0.29795 -0.01596,-0.5602 0.105,-0.58576c0.12097,-0.02556 0.27007,0.19524 0.33304,0.49317z" fill="#ffffff" stroke-width="0"/></g><g stroke="none" stroke-linecap="butt" stroke-linejoin="miter"><path d="M236.76922,175.16788c0.10509,0.4973 0.05989,0.928 -0.10101,0.96199c-0.16091,0.034 -0.37652,-0.34157 -0.48162,-0.83887c-0.10509,-0.4973 -0.05988,-0.928 0.10102,-0.96199c0.16091,-0.034 0.37652,0.34156 0.48161,0.83886z" fill="#169c5b" stroke-width="NaN"/><path d="M236.62502,175.31458c0.04391,0.20772 0.02218,0.38819 -0.04852,0.40315c-0.07069,0.01495 -0.16359,-0.14133 -0.20749,-0.34904c-0.04391,-0.20772 -0.02218,-0.38819 0.04852,-0.40314c0.07069,-0.01495 0.16358,0.14132 0.20748,0.34903z" fill="#000000" stroke-width="0"/><path d="M236.47222,174.85348c0.04441,0.21015 0.01126,0.39511 -0.07405,0.41315c-0.08533,0.01804 -0.19048,-0.1377 -0.23492,-0.34784c-0.04441,-0.21015 -0.01127,-0.39513 0.07406,-0.41317c0.08533,-0.01804 0.19047,0.13772 0.23491,0.34786z" fill="#ffffff" stroke-width="0"/></g><path d="M242.29142,176.33355c0,0 -0.30601,0.19411 -0.49912,0.24382c-0.1931,0.0497 -0.76021,0.13846 -0.76021,0.13846" data-paper-data="{&quot;index&quot;:null}" fill="none" stroke="#000000" stroke-width="0.125" stroke-linecap="round" stroke-linejoin="miter"/><g fill="#86cbb6" stroke="none" stroke-width="0" stroke-linecap="butt" stroke-linejoin="miter"><path d="M243.67081,169.14945l-0.78229,-0.26531c0,0 0.84143,-0.55807 1.3485,-0.66325c0.50708,-0.10518 1.58855,-0.03631 1.58855,-0.03631l-0.02679,1.22699c0,0 -0.666,-0.15426 -1.23895,-0.22092c-0.57295,-0.06666 -0.88899,-0.04122 -0.88899,-0.04122z"/><path d="M244.87261,171.07606c0,0 -0.46377,-0.55034 -0.68071,-0.8097c-0.29881,-0.35723 -1.27379,-1.43177 -1.27379,-1.43177l0.71238,-0.01158c0,0 0.8171,0.59779 1.1661,0.86673c0.27997,0.21575 0.76685,0.6228 0.76685,0.6228z"/></g><path d="M243.63097,167.49252c0.35027,1.19431 -0.24282,2.30542 -0.24282,2.30542c0,0 -0.33655,-0.31796 -1.98468,-0.83202c-0.96345,-0.3005 -2.12595,-0.4532 -2.12595,-0.4532c0,0 0.20378,-1.09056 0.61887,-1.88864c0.3142,-0.6137 0.76289,-1.21322 1.91788,-1.05889c1.11656,0.28458 1.46642,0.73302 1.81669,1.92732z" fill="#20201f" stroke="none" stroke-width="0" stroke-linecap="butt" stroke-linejoin="miter"/><path d="M242.56643,168.25769c0,0 -0.22162,-0.13987 -1.1786,-0.29636c-0.55944,-0.09147 -1.20863,-0.09549 -1.20863,-0.09549c0,0 0.25929,-1.28499 1.30551,-1.15219c1.10304,0.14002 1.08174,1.54404 1.08174,1.54404z" fill="#b2b1b2" stroke="none" stroke-width="0" stroke-linecap="butt" stroke-linejoin="miter"/></g><g stroke="none" stroke-width="0" stroke-linecap="butt" stroke-linejoin="miter"><path d="M238.84324,181.71233c1.25335,0.77944 1.8249,2.12609 1.27656,3.00783c-0.54834,0.88175 -2.00891,0.96466 -3.26226,0.18523c-1.25336,-0.77944 -1.82491,-2.1261 -1.27657,-3.00783c0.54833,-0.88174 2.00892,-0.96466 3.26227,-0.18524z" fill="#20201f"/><path d="M241.48833,178.24499c0.29633,-0.25601 0.50081,-0.17898 0.65514,-0.02933c0.22969,0.22277 0.23055,0.46741 0.02167,0.7012c-0.83365,0.933 -1.54549,1.76399 -2.07945,2.44157c-0.32551,0.41305 -1.53722,2.07127 -1.53722,2.07127l-0.97333,-0.73579c0,0 0.74869,-0.88828 1.55557,-1.91217c0.56436,-0.71615 1.46273,-1.76365 2.35763,-2.53676z" fill="#fed5c7"/><path d="M239.53805,179.95064l0.76395,-0.85428l1.16718,0.84683l-0.73486,0.87238z" fill="#83c4ac"/><path d="M240.73433,177.96134c0.42775,-0.50309 1.14806,-0.6287 1.63887,-0.25746c0.4908,0.37124 0.55279,1.08844 0.13848,1.60188c-0.73659,0.91283 -1.24709,0.78794 -1.73789,0.41669c-0.4908,-0.37124 -0.75254,-0.92239 -0.03946,-1.76112z" fill="#20201f"/><path d="M238.34933,180.82456l1.17774,-0.92108l1.22533,0.88301l-0.58119,1.45337l-0.61585,-0.24525l-0.89459,-0.71003z" fill="#bebec0"/><g><path d="M236.54306,182.96292l2.10648,1.45662c0,0 0.18781,0.32982 0.09222,0.90768c-0.06205,0.37528 -0.468,0.85498 -0.468,0.85498c0,0 0.6986,-0.24861 0.83286,0.33822c0.08621,0.37679 -0.80707,1.11222 -1.18068,1.29302c-0.21994,0.10644 -0.66703,0.16036 -0.99923,0.04607c-0.20956,-0.0721 -0.38839,-0.32016 -0.38839,-0.32016c0,0 -0.31238,0.23807 -0.59436,-0.07161c-0.0864,-0.09487 -0.23127,-0.20024 -0.23127,-0.20024c0,0 -0.2764,0.10014 -0.43405,0.09259c-0.15767,-0.00755 -0.37509,-0.1513 -0.37509,-0.1513l-0.14281,-0.41366c0,0 -0.56247,-0.04539 -0.65883,-0.10947c-0.378,-0.25133 -0.27833,-0.74473 -0.22656,-1.00989c0.09479,-0.48548 0.46162,-1.51933 0.57972,-1.59709c0.74129,-0.48801 2.08802,-1.11576 2.08802,-1.11576z" fill="#20201f"/><path d="M238.27377,186.18218c0,0 0.6986,-0.24861 0.83286,0.33822c0.08621,0.37679 -0.28149,0.76539 -0.6551,0.9462c-0.21994,0.10644 -0.17777,-1.28441 -0.17777,-1.28441z" fill="#c0c2c6"/></g></g></g></g></svg>