<svg version="1.1" xmlns="http://www.w3.org/2000/svg" xmlns:xlink="http://www.w3.org/1999/xlink" width="10.15344" height="18.06757" viewBox="0,0,10.15344,18.06757"><g transform="translate(-234.60233,-170.07831)"><g data-paper-data="{&quot;isPaintingLayer&quot;:true}" fill-rule="nonzero" stroke-width="0" stroke-linecap="butt" stroke-linejoin="miter" stroke-miterlimit="10" stroke-dasharray="" stroke-dashoffset="0" style="mix-blend-mode: normal"><path d="M237.27384,181.75169c0,0 -1.55872,-1.50196 -1.09442,-2.22611c0.69919,-0.97075 3.19919,2.08866 3.13596,2.63954c-0.04971,0.43305 -2.36154,0.58081 -3.26403,-0.36396c-0.39051,-0.38689 1.22249,-0.04947 1.22249,-0.04947z" data-paper-data="{&quot;index&quot;:null}" fill="#d4a5b9" stroke="none"/><path d="M241.97161,182.26115c0,0 1.38911,0.22773 0.93461,0.39825c-0.95839,0.58193 -3.06644,-0.02517 -3.01673,-0.45823c0.06325,-0.55088 3.56859,-2.80639 3.95913,-2.12834c0.04572,0.84239 -1.87702,2.18832 -1.87702,2.18832z" data-paper-data="{&quot;index&quot;:null}" fill="#d4a5b9" stroke="none"/><path d="M239.44744,185.10486c-1.12246,-0.12885 -1.93549,-1.07729 -1.81597,-2.11841c0.11951,-1.04111 1.12632,-1.78063 2.24877,-1.65178c1.12246,0.12885 1.93549,1.07729 1.81597,2.11841c-0.11951,1.04111 -1.12632,1.78063 -2.24877,1.65178z" data-paper-data="{&quot;index&quot;:null}" fill="#9ad6ef" stroke="none"/><path d="M237.72103,185.98222c0.05186,-1.16252 0.59178,-2.08916 1.20592,-2.06968c0.61414,0.01949 1.06995,0.9777 1.01807,2.14023c-0.05186,1.16252 -0.59178,2.08916 -1.20592,2.06968c-0.61414,-0.01949 -1.06995,-0.9777 -1.01807,-2.14023z" data-paper-data="{&quot;index&quot;:null}" fill="#9ad6ef" stroke="none"/><path d="M235.46775,184.121c0.80942,-0.83754 1.83447,-1.17345 2.28948,-0.75025c0.45502,0.4232 0.16772,1.44525 -0.6417,2.28281c-0.80942,0.83754 -1.83447,1.17345 -2.28948,0.75025c-0.45502,-0.4232 -0.16772,-1.44525 0.6417,-2.28281z" data-paper-data="{&quot;index&quot;:null}" fill="#9ad6ef" stroke="none"/><path d="M238.56554,188.14545c-0.7203,-0.01989 -0.8391,-1.87259 -0.8391,-1.87259c0,0 0.38491,-0.58313 0.95585,-0.42758c0.80409,0.21906 1.13429,1.00625 1.13429,1.00625c0,0 -0.26002,1.32131 -1.25102,1.29393z" data-paper-data="{&quot;index&quot;:null}" fill="#eaec6e" stroke="none"/><path d="M235.14499,184.4887c0,0 0.74106,-0.03413 1.01194,0.29542c0.61801,0.77392 0.34469,1.38618 0.34469,1.38618c0,0 -0.8695,0.81497 -1.59534,0.30907c-0.80283,-0.56037 0.2387,-1.99066 0.2387,-1.99066z" data-paper-data="{&quot;index&quot;:null}" fill="#eaec6e" stroke="none"/><path d="M236.41906,181.65127c0.59972,-0.39198 1.28919,-0.40048 1.78871,-0.33395c0.49952,0.06652 1.12759,0.28281 1.12759,0.28281c0,0 -0.87213,0.11656 -1.20891,0.34363c-0.22477,0.15155 -0.55642,0.81975 -0.55642,0.81975c0,0 0.09005,0.58757 -0.28255,1.08233c-0.33638,0.58001 -1.22797,0.5574 -1.63348,0.07823c-0.6172,-0.7293 -0.13803,-1.81047 0.76506,-2.27279z" data-paper-data="{&quot;index&quot;:null}" fill="#9ad6ef" stroke="none"/><path d="M235.38482,182.92887c0,0 0.48655,-0.5901 1.30357,-0.2693c0.64137,0.25184 0.83435,0.76952 0.83435,0.76952c0,0 -0.52742,1.279 -1.42355,0.79804c-0.97729,-0.45645 -0.71438,-1.29827 -0.71438,-1.29827z" data-paper-data="{&quot;index&quot;:null}" fill="#eaec6e" stroke="none"/><path d="M243.18582,184.00521c0.23368,0.98728 -0.15703,2.0404 -1.11245,2.04349c-0.62772,0.00201 -1.21895,-0.69138 -0.99971,-1.29421c0.08105,-0.22285 0.63077,-0.99759 0.6315,-1.48716c0.00125,-0.8281 -0.67182,-1.40702 -0.67182,-1.40702c0,0 0.93508,0.20853 1.30964,0.54564c0.37454,0.33713 0.72325,1.09404 0.84284,1.59926z" data-paper-data="{&quot;index&quot;:null}" fill="#9ad6ef" stroke="none"/><path d="M243.0463,185.45396c0,0 -0.56774,0.88712 -1.4925,0.47812c-1.0428,-0.46121 -0.32191,-1.44717 -0.32191,-1.44717c0,0 0.35708,-0.29041 0.94004,-0.07613c0.78311,0.28785 0.87438,1.04519 0.87438,1.04519z" data-paper-data="{&quot;index&quot;:null}" fill="#eaec6e" stroke="none"/><path d="M240.989,174.37727c1.50145,0.84861 3.56577,1.49498 3.7599,4.36792c0.12027,1.7796 -1.33425,3.42083 -4.66146,2.9117c-4.10409,-0.501 -3.93002,-3.27194 -3.88277,-4.13133c0.10346,-1.88192 2.24605,-3.75263 3.13114,-4.28502c0.15311,-0.09209 0.25312,-0.26171 0.31503,-0.25834c0.04263,0.00233 0.57493,0.9637 1.33817,1.39507z" data-paper-data="{&quot;index&quot;:null}" fill="#9ad6ef" stroke="none"/><path d="M240.29155,182.05693c0,0 0.01645,0.46101 -0.45436,0.75932c-0.29461,0.18667 -0.74583,0.23467 -0.89444,0.18865c-0.19325,-0.05984 0.23046,-0.95917 0.23046,-0.95917c0,0 -0.87575,-1.48022 -0.23454,-1.63368c0.58136,-0.13913 1.23524,0.57616 1.47028,1.10397c0.08312,0.18665 -0.1174,0.5409 -0.1174,0.5409z" data-paper-data="{&quot;index&quot;:null}" fill="#d62c35" stroke="none"/><path d="M241.21774,182.17303c-0.09446,0.305 -0.23229,0.53328 -0.62415,0.41194c-0.39187,-0.12134 -0.43791,-0.31289 -0.35538,-0.71526c0.10433,-0.53739 0.44714,-0.46677 0.6974,-0.38927c0.25026,0.07749 0.40289,0.3026 0.28213,0.69258z" data-paper-data="{&quot;index&quot;:null}" fill="#d62c35" stroke="none"/><path d="M241.41746,171.37112c-0.07325,0.638 -0.61986,1.18877 -1.24471,1.11704c-0.62485,-0.07174 -1.0585,-0.7649 -0.98526,-1.40288c0.07323,-0.63798 0.60632,-1.07094 1.23117,-0.99921c0.62486,0.07173 1.07203,0.64708 0.99879,1.28506z" data-paper-data="{&quot;index&quot;:null}" fill="#eaec6e" stroke="none"/><path d="M241.01833,182.13329c0,0 0.04443,-0.32887 0.21671,-0.42478c0.48716,-0.27124 1.28136,-0.48372 1.59759,-0.27289c0.30351,0.52021 -0.94464,1.33683 -0.94464,1.33683c0,0 -0.0914,0.90924 -0.37773,0.87382c-0.30051,-0.03776 -0.46183,-0.34899 -0.58109,-0.66372c-0.19057,-0.50296 0.08916,-0.84926 0.08916,-0.84926z" data-paper-data="{&quot;index&quot;:null}" fill="#d62c35" stroke="none"/><path d="M240.05345,173.513c0.16989,0.25587 0.51687,0.55831 0.51687,0.55831c0,0 -0.53489,0.32166 -0.92654,0.40223c-0.555,0.11416 -1.57715,-0.21915 -1.57715,-0.21915c0,0 0.36964,-0.33542 0.74468,-0.65809c0.38891,-0.3346 0.7456,-0.64224 0.84263,-0.63278c0.10134,0.00987 0.22559,0.28755 0.3995,0.54947z" data-paper-data="{&quot;index&quot;:null}" fill="#eaec6e" stroke="none"/><path d="M242.1844,178.98795c0.07937,-0.69137 0.47339,-1.21397 0.88008,-1.16729c0.40668,0.04668 0.67202,0.64498 0.59265,1.33635c-0.07937,0.69136 -0.47338,1.21397 -0.88007,1.16729c-0.40668,-0.04669 -0.67202,-0.64499 -0.59265,-1.33636z" data-paper-data="{&quot;index&quot;:null}" fill="#ffffff" stroke="#000000"/><path d="M239.03853,178.8357c0.0775,-0.67509 0.42385,-1.18981 0.7736,-1.14966c0.34975,0.04016 0.57046,0.61997 0.49296,1.29507c-0.0775,0.67509 -0.42385,1.18981 -0.7736,1.14966c-0.34975,-0.04015 -0.57044,-0.61996 -0.49294,-1.29506z" data-paper-data="{&quot;index&quot;:null}" fill="#ffffff" stroke="#000000"/><path d="M240.50131,180.3913l0.68417,0.44439l0.4747,-0.40087l-0.49013,0.63012z" data-paper-data="{&quot;index&quot;:null}" fill="#000000" stroke="none"/><g data-paper-data="{&quot;index&quot;:null}" stroke="none"><path d="M244.00372,179.14c-0.05697,0.49615 -0.37348,0.86734 -0.70696,0.82905c-0.33349,-0.03829 -0.55765,-0.47153 -0.50069,-0.96769c0.05697,-0.49614 0.37348,-0.86733 0.70696,-0.82904c0.33349,0.03829 0.55765,0.47152 0.50069,0.96768z" fill="#003e5b"/><path d="M244.00372,179.14c0,0 -0.14486,0.88552 -0.70696,0.82905c-0.56191,-0.05645 -0.50069,-0.96769 -0.50069,-0.96769c0,0 0.19031,0.72826 0.52379,0.76655c0.33347,0.03829 0.68386,-0.62791 0.68386,-0.62791z" fill="#166997"/></g><path d="M244.17217,179.15265c-0.08446,0.87 -0.83181,0.89365 -0.83181,0.89365c0,0 0.23296,-0.26953 0.30407,-0.89462c0.07545,-0.66317 -0.13249,-0.97733 -0.13249,-0.97733c0,0 0.76138,-0.06353 0.66024,0.9783z" data-paper-data="{&quot;index&quot;:null}" fill="#9ad6ef" stroke="none"/><g data-paper-data="{&quot;index&quot;:null}" stroke="none"><path d="M240.64171,179.00732c-0.05516,0.48046 -0.36166,0.8399 -0.68459,0.80282c-0.32293,-0.03708 -0.54,-0.45661 -0.48485,-0.93707c0.05516,-0.48046 0.36166,-0.83991 0.68459,-0.80283c0.32293,0.03707 0.54,0.45662 0.48485,0.93708z" fill="#003e5b"/><path d="M239.98665,179.62144c0.32293,0.03707 0.66223,-0.60804 0.66223,-0.60804c0,0 -0.14027,0.8575 -0.68459,0.80282c-0.54413,-0.05466 -0.48485,-0.93707 -0.48485,-0.93707c0,0 0.18429,0.70521 0.50722,0.74229z" fill="#166997"/></g><path d="M240.84891,179.02152c-0.08448,0.87002 -0.84397,0.80122 -0.84397,0.80122c0,0 0.22265,-0.17967 0.29376,-0.80476c0.07544,-0.66318 -0.11003,-0.97476 -0.11003,-0.97476c0,0 0.76138,-0.06353 0.66024,0.9783z" data-paper-data="{&quot;index&quot;:null}" fill="#9ad6ef" stroke="none"/></g></g></svg>