<svg version="1.1" xmlns="http://www.w3.org/2000/svg" xmlns:xlink="http://www.w3.org/1999/xlink" width="38" height="30.67405" viewBox="0,0,38,30.67405"><g transform="translate(-225.30893,-163.30542)"><g data-paper-data="{&quot;isPaintingLayer&quot;:true}" fill-rule="nonzero" stroke-linejoin="miter" stroke-miterlimit="10" stroke-dasharray="" stroke-dashoffset="0" style="mix-blend-mode: normal"><g><g><path d="M248.21734,184.97282l0.82475,0.00697c0,0 1.37406,2.48892 1.80668,3.86843c0.3609,1.15079 0.63233,2.91075 0.65782,3.63186c0.04401,1.24507 -0.58158,1.0435 -0.58158,1.0435c0,0 -0.01557,-3.26871 -0.38046,-4.54369c-0.26011,-0.90899 -2.3272,-4.00707 -2.3272,-4.00707z" fill="#989898" stroke="#989898" stroke-width="0" stroke-linecap="round"/><path d="M246.96979,186.82096c0.09253,-0.55464 0.15713,-0.99127 0.56964,-1.43162c0.58641,-0.62598 0.98821,-0.43541 1.30361,-0.01271c0.66362,0.88995 1.36214,2.63517 1.36214,2.63517l-2.95639,1.87341c0,0 -0.4196,-2.21389 -0.27899,-3.06426z" fill="#f82020" stroke="none" stroke-width="1.13968" stroke-linecap="round"/><path d="M250.15127,187.93773c0,0 0.16784,0.10435 0.4386,1.06105c0.27076,0.95668 0.50255,2.24591 0.58329,3.33887c0.0318,0.43826 0.12309,1.18522 -0.21958,1.2448c-0.58335,0.10153 -1.81394,-0.12238 -2.30061,-0.63829c-0.48358,-0.51301 -1.49119,-2.46368 -1.41687,-3.19592c0.14613,-1.30357 2.91519,-1.81051 2.91519,-1.81051z" fill="#f8f8f8" stroke="none" stroke-width="1.15102" stroke-linecap="round"/><path d="M245.15229,187.07241c-0.02771,-0.42771 -0.39127,-1.16175 0.04162,-1.63134c0.49172,-0.5334 0.92414,0.11095 0.92414,0.11095c0,0 0.13597,-0.63047 0.54866,-0.41187c0.4007,0.21223 0.40718,0.49459 0.46408,0.79556c0.09561,0.50574 -0.11687,1.37856 -0.1054,1.55549c0.05732,0.8847 0.39484,2.18503 -0.06927,2.2151c-0.12311,0.00797 -0.71824,-0.19216 -0.71824,-0.19216c0,0 -0.58813,0.5299 -0.80272,0.16269c-0.27838,-0.47636 -0.2591,-2.23736 -0.28288,-2.60443z" fill="#ffffff" stroke="none" stroke-width="0" stroke-linecap="butt"/></g><path d="M247.51699,187.79775c0.08927,1.37782 0.03698,2.16881 -0.31196,2.19142c-0.12718,0.00824 -0.05576,-0.72832 -0.14503,-2.10614c-0.08927,-1.37782 -0.05494,-2.446 0.07225,-2.45424c0.34894,-0.0226 0.29547,0.99115 0.38474,2.36897z" fill="#424242" stroke="none" stroke-width="0" stroke-linecap="butt"/></g><path d="M245.27549,186.81784c0.2319,0.451 0.0744,1.2097 -0.3455,1.4122c-0.6542,0.3237 -1.5113,0.1313 -2.1297,-0.1995c-0.3795,-0.1978 -0.5472,-0.6966 -0.5726,-1.1504c-0.0465,-0.8117 -0.0631,-1.7152 0.3326,-2.4196c0.1563,-0.2754 0.8034,-0.1828 1.004,0.0852c0.3591,0.4777 -0.0556,1.2983 0.3044,1.7794c0.3061,0.4074 1.1775,0.0537 1.4068,0.4927z" data-paper-data="{&quot;index&quot;:null}" fill="#e88820" stroke="none" stroke-width="0.49091" stroke-linecap="round"/><path d="M245.53838,183.73459c0,1.55828 -1.22886,2.82152 -3.6322,2.82152c-1.84808,0 -4.99425,-0.67232 -5.62522,-1.72602c-0.18957,-0.31658 -1.37185,-0.33836 0.52477,-2.58898c1.14432,-1.3579 3.55812,0.43997 4.02687,0.48073c1.46685,-0.76968 2.32821,-1.19229 3.28569,-1.19229c0.76569,0 1.4201,0.64676 1.4201,2.20504z" data-paper-data="{&quot;index&quot;:null}" fill="#089c4e" stroke="none" stroke-width="0" stroke-linecap="butt"/><path d="M246.88634,187.26895c0.27487,0.42608 0.19239,1.19646 -0.20562,1.43913c-0.61944,0.38627 -1.49129,0.27864 -2.139,0.01001c-0.39698,-0.15978 -0.61277,-0.63972 -0.68246,-1.08886c-0.12568,-0.80325 -0.23066,-1.70076 0.09418,-2.44055c0.12859,-0.28934 0.78163,-0.26059 1.00751,-0.01342c0.40409,0.44018 0.07173,1.29745 0.47713,1.74106c0.34446,0.37545 1.17703,-0.06184 1.44827,0.35263z" data-paper-data="{&quot;index&quot;:null}" fill="#f8b820" stroke="none" stroke-width="0.49091" stroke-linecap="round"/><path d="M243.04027,183.8967c0.12289,-1.03243 0.34511,-2.51605 0.64097,-2.51605c0.29586,0 -0.14129,1.59924 -0.26504,2.63879c-0.12375,1.03955 -0.06316,2.60372 -0.35902,2.60372c-0.29587,0 -0.13982,-1.69403 -0.01692,-2.72646z" fill="#000000" stroke="#000000" stroke-width="0" stroke-linecap="butt"/><path d="M238.02598,185.8437c0,-0.23545 0.19087,-0.42632 0.42632,-0.42632c0.23545,0 0.42632,0.19087 0.42632,0.42632c0,0.23545 -0.19087,0.42631 -0.42632,0.42631c-0.23545,0 -0.42632,-0.19087 -0.42632,-0.42631z" fill="#ffffff" stroke="none" stroke-width="0" stroke-linecap="butt"/><path d="M234.86302,184.89507l0.64457,-0.376c0,0 1.43237,-0.42828 2.2103,-0.49052c0.96986,-0.07759 3.1611,0.06081 3.1611,0.06081l-1.71141,0.52562l0.24846,1.36756l-1.48659,-0.73994l-1.14398,1.10255l-0.63331,-0.85923l-1.77074,0.89139l1.34103,-1.42853z" fill="#cf0000" stroke="none" stroke-width="0" stroke-linecap="butt"/><path d="M245.66562,175.36031c0,3.60743 -0.78356,6.23963 -1.13412,7.14121c-0.21833,0.5615 -0.30152,0.07428 -0.30152,0.07428c0,0 0.31437,-0.95255 0.31437,-6.80662c0,-1.96926 -2.1099,-4.2209 -2.28757,-4.94621c-0.19596,-0.80001 2.82257,-0.61154 2.82257,-0.61154c0,0 3.14631,-1.07395 3.04959,0.02036c-0.07751,0.87693 -2.46334,3.45322 -2.46334,5.12852z" data-paper-data="{&quot;index&quot;:null}" fill="#e2a026" stroke="none" stroke-width="0" stroke-linecap="butt"/><path d="M263.30893,168.56733c0,2.90607 -8.50659,5.2619 -19,5.2619c-10.49341,0 -19,-2.35583 -19,-5.2619c0,-2.90607 8.50659,-5.26191 19,-5.26191c10.49341,0 19,2.35583 19,5.26191z" fill-opacity="0.90196" fill="#e3a127" stroke="none" stroke-width="0" stroke-linecap="butt"/><path d="M242.86674,175.56473c0,-1.67529 -1.63601,-3.97836 -1.72729,-4.8553c-0.1139,-1.0943 2.13304,-0.29359 2.13304,-0.29359c0,0 3.25394,-0.82599 3.02318,-0.02599c-0.20923,0.72531 -2.10851,3.61447 -2.10851,5.58373c0,5.85408 0.21037,6.71555 0.21037,6.71555c0,0 0.0267,0.4834 -0.26404,-0.21431c-0.39979,-0.95941 -1.26675,-3.52083 -1.26675,-6.91011z" data-paper-data="{&quot;index&quot;:null}" fill="#e2a026" stroke="none" stroke-width="0" stroke-linecap="butt"/><path d="M241.35805,171.0887c0.68861,1.33514 0.87734,3.05168 0.87734,3.05168c0,0 1.71514,3.50211 0.82031,5.62404c-0.76178,1.80483 -3.35916,2.16556 -5.25858,2.63577c-1.53388,0.38021 -3.65385,0.85725 -4.74061,-0.22722c-1.28455,-1.28354 -1.14866,-4.38554 -1.60899,-6.14279c-0.17255,-0.66341 -0.65736,-1.46643 -1.11259,-2.61049c-0.45523,-1.14406 -1.03465,-2.24444 -0.81262,-2.96052c0.05736,-0.58365 1.17071,0.34572 1.94203,0.77865c0.77132,0.43293 1.94702,1.13542 2.64952,1.20878c0.81353,0.02581 1.02382,0.15313 1.76997,-0.22349c0.4412,-0.22214 2.66008,-4.22517 3.18276,-4.1695c0.62053,0.06682 1.60284,1.69995 2.29145,3.03509z" data-paper-data="{&quot;index&quot;:null}" fill="#f8b820" stroke="none" stroke-width="1" stroke-linecap="round"/><path d="M233.24363,179.61423c0.08455,0.61531 0.25274,1.29559 0.10869,1.85522c-0.08857,0.34158 -0.49405,0.69378 -0.65168,0.40449c-0.46405,-0.85202 -0.59488,-1.95499 -0.74572,-2.97088c-0.09264,-0.55638 -0.20938,-1.25474 0.02647,-1.67377c0.15788,-0.28148 0.64394,-0.11793 0.81327,0.17764c0.32968,0.64819 0.34721,1.46715 0.44897,2.20729z" data-paper-data="{&quot;index&quot;:null}" fill="#ffffff" stroke="none" stroke-width="0.86553" stroke-linecap="round"/><path d="M240.84856,173.68992c-0.10586,0.08991 -1.3641,-0.55715 -2.14749,-0.79278c-0.7834,-0.23563 -1.6517,-0.19931 -1.7063,-0.37857c-0.13971,-0.47552 0.42638,-1.10727 0.57819,-1.57373c0.15938,-0.48944 1.22557,-2.083 1.5109,-2.02441c0.32165,0.06838 1.97575,4.58893 1.7647,4.76948z" data-paper-data="{&quot;index&quot;:null}" fill="#ffffff" stroke="none" stroke-width="0.85185" stroke-linecap="butt"/><path d="M238.22955,182.03448c-0.19224,0.47198 -0.81027,0.50626 -1.26146,0.56652c-0.48908,0.04821 -1.21172,0.25453 -1.47762,-0.2484c-0.59933,-1.13424 -0.52631,-2.60282 -0.68931,-3.8704c-0.06984,-0.54381 -0.18919,-1.1172 -0.02901,-1.63937c0.01243,-0.19287 0.27018,-0.149 0.46711,-0.17838c0.23555,-0.03546 0.44962,-0.05273 0.71876,-0.00526c0.27784,0.05139 0.57086,0.1492 0.81085,0.29863c0.3334,0.23049 0.71323,0.4877 0.89898,0.86836c0.28349,0.57013 0.38629,1.24576 0.47242,1.88886c0.1061,0.78967 0.36756,1.63581 0.0893,2.31945z" data-paper-data="{&quot;index&quot;:null}" fill="#ffffff" stroke="none" stroke-width="0.97175" stroke-linecap="round"/><path d="M243.22168,178.457c-0.21113,0.31603 -1.23428,1.30425 -0.9287,1.40872c0.6028,0.20719 1.52314,0.03398 1.52314,0.03398c0,0 -0.66707,0.21866 -1.2511,0.85149c-0.10923,0.11827 1.57402,0.69968 1.57402,0.69968l-1.45811,0.62605l1.115,0.78733c0,0 -2.7107,-0.00399 -3.04187,0.24181c-0.36551,0.27103 -1.11865,0.86171 -1.94969,1.17814c-0.83104,0.31644 -2.01229,0.61707 -2.84172,0.70225c-0.75711,0.04975 -1.87805,-0.11257 -2.81847,-0.7652c-0.55799,-0.24449 -1.12307,-1.5057 -0.73881,-1.87991c0.67092,-0.65337 2.00987,-0.63472 2.91918,-0.31713c0.80402,0.28081 1.80154,0.2091 2.60391,-0.06593c0.78984,-0.2579 1.34686,-0.63391 1.93243,-1.2437c0.88544,-0.92135 3.63916,-2.67508 3.36078,-2.25756z" data-paper-data="{&quot;index&quot;:null}" fill="#f8f8f8" stroke="none" stroke-width="1" stroke-linecap="round"/><path d="M233.06535,182.06761c0.35468,-0.05492 0.39988,0.01431 0.65107,0.09848c0.2512,0.08417 -0.15788,0.74095 -0.51257,0.79587c-0.35469,0.05492 -1.11552,-0.42068 -0.90156,-0.57689c0.21397,-0.15619 0.40837,-0.26254 0.76306,-0.31746z" data-paper-data="{&quot;index&quot;:null}" fill="#101010" stroke="none" stroke-width="1" stroke-linecap="butt"/><path d="M237.94293,183.56897l-1.61151,1.03682" data-paper-data="{&quot;index&quot;:null}" fill="none" stroke="#cccccc" stroke-width="0.36953" stroke-linecap="round"/><path d="M233.55038,176.32359l-2.31574,1.89369l-1.1657,2.42064l0.55054,-3.20994l2.52631,-1.62547z" fill="#f8b820" stroke="none" stroke-width="1.22222" stroke-linecap="round"/><path d="M233.0571,175.87461l-2.39604,0.06405l-2.29523,1.91652c0,0 1.26409,-2.55485 1.66527,-2.76519c0.28142,-0.14756 3.0702,-0.03698 3.0702,-0.03698z" fill="#f8b820" stroke="none" stroke-width="1.22222" stroke-linecap="round"/><path d="M233.15265,173.24857c0,0 -1.4637,1.0546 -1.76139,1.1007c-0.15262,0.02364 -0.76961,-1.06309 -1.10453,-1.83415c-0.33493,-0.77104 -0.46799,-1.78603 -0.46799,-1.78603z" fill="#ffffff" stroke="none" stroke-width="0" stroke-linecap="butt"/><path d="M233.17189,174.83856c0,0 -1.37259,-0.79228 -2.35659,-0.85307c-0.984,-0.0608 -4.29218,0.4423 -4.29218,0.4423c0,0 3.1727,-1.58959 3.83274,-1.54203c0.40019,0.02883 3.30507,1.17639 3.30507,1.17639z" fill="#f8b820" stroke="none" stroke-width="1.22222" stroke-linecap="round"/><g stroke="none" stroke-linecap="butt"><path d="M235.90237,179.51871c0.14065,0.22209 0.25646,0.53931 0.3125,0.9012c0.05604,0.36189 0.0416,0.69927 -0.02529,0.9535c-0.06823,0.25332 -0.18918,0.42243 -0.34868,0.44712c-0.1594,0.02469 -0.32583,-0.09992 -0.46749,-0.32074c-0.14075,-0.22208 -0.25645,-0.53931 -0.31249,-0.90119c-0.05604,-0.36189 -0.0417,-0.69925 0.02528,-0.9535c0.06823,-0.25332 0.18918,-0.42243 0.34858,-0.44711c0.1595,-0.0247 0.32593,0.0999 0.46759,0.32072z" fill="#4088ed" stroke-width="1.0615"/><path d="M235.82375,179.81211c0.09323,0.13745 0.1679,0.33536 0.20291,0.56146c0.03501,0.2261 0.02371,0.43732 -0.02357,0.59663c-0.0468,0.15913 -0.12903,0.26588 -0.23576,0.28241c-0.10673,0.01653 -0.2173,-0.06036 -0.31003,-0.19789c-0.09325,-0.13755 -0.16791,-0.33545 -0.20293,-0.56156c-0.03501,-0.2261 -0.02371,-0.43732 0.02359,-0.59654c0.04678,-0.15923 0.12893,-0.26586 0.23566,-0.28239c0.10673,-0.01653 0.21738,0.06024 0.31014,0.19787z" fill="#000000" stroke-width="0.47368"/><path d="M235.62157,179.94743c0.04133,0.05584 0.07415,0.13646 0.08851,0.22915c0.01435,0.09269 0.00746,0.17947 -0.01505,0.24519c-0.02193,0.06553 -0.06016,0.11011 -0.10878,0.11764c-0.04852,0.00752 -0.09854,-0.0234 -0.13926,-0.07922c-0.04133,-0.05584 -0.07406,-0.13647 -0.08841,-0.22917c-0.01435,-0.09269 -0.00755,-0.17946 0.01496,-0.24518c0.02193,-0.06553 0.06026,-0.11011 0.10878,-0.11763c0.04862,-0.00753 0.09854,0.02339 0.13926,0.07922z" fill="#ffffff" stroke-width="0.64678"/><path d="M233.11403,179.9323c0.12508,0.19738 0.22793,0.47926 0.27776,0.80103c0.04981,0.32166 0.03705,0.62155 -0.02247,0.84752c-0.06056,0.22512 -0.16813,0.37546 -0.30983,0.3974c-0.14171,0.02194 -0.2897,-0.08881 -0.41562,-0.28505c-0.12508,-0.19738 -0.22795,-0.47937 -0.27776,-0.80103c-0.04982,-0.32176 -0.03705,-0.62156 0.02247,-0.84752c0.06064,-0.22523 0.16821,-0.37557 0.30992,-0.39751c0.14171,-0.02194 0.2897,0.08881 0.41554,0.28517z" fill="#4088ed" stroke-width="0.94355"/><path d="M232.98636,180.2188c0.08279,0.12227 0.14929,0.29817 0.1804,0.49908c0.03113,0.20101 0.02094,0.38878 -0.02098,0.53036c-0.04153,0.14153 -0.11469,0.23633 -0.20955,0.25102c-0.09487,0.01469 -0.19317,-0.05358 -0.27567,-0.17589c-0.08279,-0.12227 -0.14929,-0.29816 -0.18041,-0.49917c-0.03111,-0.20091 -0.02092,-0.38868 0.021,-0.53026c0.04163,-0.14154 0.11469,-0.23633 0.20955,-0.25102c0.09487,-0.01469 0.19327,0.05355 0.27566,0.17588z" fill="#000000" stroke-width="0.42105"/><path d="M232.77377,180.34428c0.03671,0.04957 0.06583,0.12125 0.07858,0.20358c0.01277,0.08242 0.00669,0.15955 -0.01332,0.2179c-0.0195,0.05837 -0.05354,0.09795 -0.09672,0.10464c-0.04318,0.00669 -0.08751,-0.02075 -0.12375,-0.07049c-0.03681,-0.04955 -0.06593,-0.12123 -0.07869,-0.20365c-0.01275,-0.08232 -0.00668,-0.15946 0.01342,-0.21782c0.0195,-0.05837 0.05345,-0.09793 0.09663,-0.10462c0.04318,-0.00669 0.0876,0.02074 0.12384,0.07048z" fill="#ffffff" stroke-width="0.57492"/></g><path d="M229.99008,165.37825c0.07543,-0.02489 1.46756,-0.57942 2.50881,-0.66435c1.64503,-0.13417 3.19049,0.18933 3.19049,0.18933c0,0 -2.24313,0.22033 -2.81139,0.3829c-1.01128,0.28933 -2.73645,1.20437 -2.73645,1.20437c0,0 1.54876,-0.75946 2.36791,-0.9524c0.69495,-0.16368 2.23596,-0.13197 2.23596,-0.13197c0,0 -1.21259,0.38897 -1.72312,0.61022c-0.58022,0.25145 -1.57594,0.81954 -1.57594,0.81954c0,0 0.78108,-0.31641 1.30425,-0.43622c0.52318,-0.11981 1.16764,-0.12987 1.16764,-0.12987c0,0 -0.54578,0.32414 -0.77671,0.49106c-0.25753,0.18614 -0.73362,0.66122 -0.73362,0.66122c0,0 0.66449,-0.23199 1.10758,-0.28799c0.44309,-0.056 1.14476,0.00334 1.14476,0.00334c0,0 -0.40621,0.27572 -0.65486,0.46749c-0.24865,0.19177 -0.44798,0.38306 -0.44798,0.38306c0,0 0.36636,-0.12239 0.60963,-0.13274c0.24327,-0.01036 0.5832,0.08193 0.5832,0.08193c0,0 -0.31439,0.17928 -0.4429,0.27922c-0.16324,0.12696 -0.45754,0.42104 -0.45754,0.42104c0,0 0.61418,-0.11832 0.8373,-0.12043c0.16595,-0.00158 0.51264,0.04521 0.51264,0.04521l-0.5525,0.2684l0.64872,0.26875l-1.07057,0.21341l0.17909,-0.57442l-0.96779,0.10011l0.42549,-0.65059c0,0 -0.28252,-0.05663 -0.46476,-0.04925c-0.18224,0.00738 -0.50452,0.0885 -0.50452,0.0885c0,0 0.207,-0.29253 0.3887,-0.42469c0.1817,-0.13216 0.75648,-0.40827 0.75648,-0.40827l-1.20678,0.22575l-1.48855,0.54908c0,0 0.27449,-0.45829 0.50349,-0.70855c0.22901,-0.25026 0.78255,-0.69684 0.78255,-0.69684c0,0 -0.70808,0.23667 -1.15398,0.40797c-0.4459,0.1713 -1.25743,0.51841 -1.25743,0.51841c0,0 0.43018,-0.70586 0.84434,-1.00973c0.41415,-0.30387 1.52888,-0.73151 1.52888,-0.73151c0,0 -1.35168,0.30979 -2.13721,0.70173c-0.78554,0.39194 -2.56834,1.6461 -2.56834,1.6461c0,0 0.94853,-1.46231 1.8555,-2.0435c0.90697,-0.58119 3.25062,-1.22854 3.25062,-1.22854c0,0 -2.95113,0.79844 -3.47329,1.10061c-1.31181,0.75913 -3.56304,3.05082 -3.56304,3.05082c0,0 1.01465,-2.8013 4.03525,-3.79772z" fill="#dcdce1" stroke="none" stroke-width="0" stroke-linecap="butt"/><path d="M257.8523,171.5417c-0.07718,0.01877 -1.50924,0.46008 -2.55394,0.46138c-1.65049,0.00205 -3.1651,-0.44414 -3.1651,-0.44414c0,0 2.25358,-0.04004 2.83302,-0.15661c1.03119,-0.20745 2.82407,-0.98144 2.82407,-0.98144c0,0 -1.60459,0.63304 -2.43656,0.75978c-0.70583,0.10753 -2.23934,-0.04745 -2.23934,-0.04745c0,0 1.23983,-0.29065 1.76644,-0.47033c0.59849,-0.2042 1.63649,-0.69074 1.63649,-0.69074c0,0 -0.80391,0.25287 -1.33499,0.33041c-0.53108,0.07754 -1.17429,0.03598 -1.17429,0.03598c0,0 0.56998,-0.27942 0.81353,-0.42731c0.2716,-0.16493 0.7842,-0.60037 0.7842,-0.60037c0,0 -0.68093,0.17805 -1.12708,0.1984c-0.44616,0.02035 -1.14082,-0.09497 -1.14082,-0.09497c0,0 0.42698,-0.24232 0.69019,-0.41357c0.2632,-0.17124 0.47721,-0.34597 0.47721,-0.34597c0,0 -0.37498,0.09266 -0.6183,0.08351c-0.24332,-0.00915 -0.57477,-0.12836 -0.57477,-0.12836c0,0 0.32774,-0.15353 0.46384,-0.24286c0.17289,-0.11348 0.48978,-0.38307 0.48978,-0.38307c0,0 -0.62168,0.06878 -0.84425,0.05302c-0.16555,-0.01172 -0.50737,-0.08611 -0.50737,-0.08611l0.57221,-0.22331l-0.62512,-0.31983l1.08422,-0.12702l-0.2245,0.55824l0.9727,-0.02232l-0.47621,0.61445c0,0 0.27708,0.07906 0.45934,0.08629c0.18225,0.00724 0.50999,-0.04783 0.50999,-0.04783c0,0 -0.22976,0.27502 -0.42146,0.39221c-0.1917,0.11719 -0.78674,0.34639 -0.78674,0.34639l1.22098,-0.12841l1.52774,-0.42815c0,0 -0.3103,0.43484 -0.5586,0.66596c-0.2483,0.23112 -0.83582,0.63196 -0.83582,0.63196c0,0 0.72475,-0.17922 1.18293,-0.31427c0.45818,-0.13505 1.29489,-0.41608 1.29489,-0.41608c0,0 -0.48531,0.66915 -0.92246,0.93889c-0.43715,0.26974 -1.58253,0.60676 -1.58253,0.60676c0,0 1.37215,-0.20058 2.18654,-0.52838c0.81439,-0.3278 2.69188,-1.4352 2.69188,-1.4352c0,0 -1.06256,1.38168 -2.01315,1.8884c-0.95058,0.50672 -3.33854,0.96436 -3.33854,0.96436c0,0 3.00558,-0.55962 3.55025,-0.81901c1.36837,-0.65168 3.79583,-2.75579 3.79583,-2.75579c0,0 -1.23564,2.71107 -4.32632,3.46248z" data-paper-data="{&quot;index&quot;:null}" fill="#dcdce1" stroke="none" stroke-width="0" stroke-linecap="butt"/><path d="M243.67186,173.02641c0.42288,0.05033 1.19488,0.05725 1.19488,0.05725c0,0 -0.56178,-0.08062 -0.90685,-0.18823c-0.34507,-0.10761 -0.72351,-0.3202 -0.72351,-0.3202c0,0 0.42748,-0.00364 0.61845,-0.0225c0.21296,-0.02103 0.65104,-0.13613 0.65104,-0.13613c0,0 -0.46532,-0.09022 -0.74216,-0.20782c-0.27684,-0.1176 -0.66504,-0.38996 -0.66504,-0.38996c0,0 0.32985,-0.02277 0.53954,-0.05009c0.2097,-0.02731 0.39053,-0.07107 0.39053,-0.07107c0,0 -0.25468,-0.05295 -0.39976,-0.12938c-0.14508,-0.07643 -0.31161,-0.24536 -0.31161,-0.24536c0,0 0.24372,0.00223 0.35238,-0.01237c0.13803,-0.01855 0.40897,-0.08993 0.40897,-0.08993c0,0 -0.39752,-0.13932 -0.52808,-0.21372c-0.0971,-0.05533 -0.283,-0.20007 -0.283,-0.20007l0.4125,0.03108l-0.28642,-0.37628l0.69534,0.23868l-0.29892,0.27357l0.59712,0.26978l-0.46813,0.23439c0,0 0.14522,0.12871 0.25378,0.18619c0.10855,0.05748 0.32359,0.1195 0.32359,0.1195c0,0 -0.21962,0.10008 -0.37015,0.1154c-0.15053,0.01532 -0.5786,-0.01883 -0.5786,-0.01883l0.77878,0.27767l1.05235,0.18502c0,0 -0.31507,0.17366 -0.53316,0.24167c-0.21809,0.06801 -0.69159,0.14027 -0.69159,0.14027c0,0 0.49228,0.10228 0.80982,0.15374c0.31754,0.05146 0.90746,0.12452 0.90746,0.12452c0,0 -0.48958,0.26495 -0.83359,0.30141c-0.34401,0.03645 -1.13766,-0.09252 -1.13766,-0.09252c0,0 -0.6004,-0.22996 -0.22831,-0.18568z" data-paper-data="{&quot;index&quot;:null}" fill="#dcdce1" stroke="none" stroke-width="0" stroke-linecap="butt"/><path d="M244.49054,185.92825c-0.79373,0.71714 -0.99414,0.39537 -0.99414,0.39537l0.60475,-4.95716c0,0 1.28777,0.41907 1.43026,0.92992c0.31708,1.38621 0.10706,2.58999 -1.04086,3.63188z" data-paper-data="{&quot;index&quot;:null}" fill="#f8b820" stroke="none" stroke-width="0.49091" stroke-linecap="round"/><path d="M236.72844,169.71452c0,0 0.62184,-1.19183 1.76818,-2.15995c0.9443,-0.79748 2.07953,-1.29432 2.84326,-1.4913c0.74445,-0.19201 1.71485,0.99055 2.50905,2.5999c1.00969,2.04602 1.09535,4.88167 1.09535,4.88167l-1.80098,-2.95139l-0.86018,1.23939l-1.21248,-1.06651c0,0 -1.09533,0.60937 -1.25237,0.64987c-0.64471,0.16629 -0.75741,-1.73602 -0.75741,-1.73602l-1.40451,0.90381l-0.9279,-0.86949z" fill="#23d892" stroke="none" stroke-width="0" stroke-linecap="butt"/><path d="M235.21573,172.5275c-0.58837,-0.00285 0.20048,-1.4334 0.68833,-2.0389c0.49098,-0.6094 1.37256,-1.38202 1.37256,-1.38202l0.24064,1.32492l1.89508,-1.15172c0,0 0.07642,0.59059 0.15666,0.96267c0.08024,0.37208 0.25856,0.96279 0.25856,0.96279l1.69405,-0.94961l0.48689,1.51259l0.79008,-0.82963l-0.13842,1.6284c0,0 0.50984,0.98334 0.0961,1.22828c-0.87948,0.52065 -2.22727,-0.62904 -3.93493,-0.81902c-1.92253,-0.2139 -0.87513,-0.43556 -3.60559,-0.44874z" fill="#fd0000" stroke="none" stroke-width="0" stroke-linecap="butt"/><g stroke-width="0" stroke-linecap="butt"><path d="M243.89432,173.82985c-0.04309,-0.47779 0.3093,-0.90005 0.78709,-0.94314c0.47779,-0.04309 0.90005,0.3093 0.94314,0.78709c0.04309,0.47779 -0.3093,0.90005 -0.78709,0.94314c-0.47779,0.04309 -0.90005,-0.3093 -0.94314,-0.78709z" fill="#db7b04" stroke="none"/><path d="M245.70794,173.63541c0.01481,0.16418 -0.47925,0.15363 -0.94138,0.19532c-0.46213,0.04168 -0.91253,0.19513 -0.92734,0.03095c-0.02255,-0.25005 0.4337,-0.33879 0.89581,-0.38047c0.46213,-0.04168 0.94777,-0.12448 0.9729,0.15419z" fill="#feeb00" stroke="#000000"/><path d="M244.88017,174.54211c0.01627,0.18042 -0.09553,0.0782 -0.18574,0.08633c-0.09021,0.00813 -0.25444,-0.35537 -0.27072,-0.53579c-0.01627,-0.18042 0.17883,-0.11458 0.26904,-0.12272c0.09021,-0.00813 0.17114,0.39175 0.18741,0.57217z" fill="#000000" stroke="none"/><path d="M245.35266,173.91745c0.04743,-0.00427 0.13689,-0.08213 0.14829,0.04435c0.01141,0.12648 -0.06212,0.38078 -0.10956,0.38506c-0.04744,0.00428 -0.09255,-0.06616 -0.10396,-0.19264c-0.01141,-0.12648 0.01779,-0.23248 0.06523,-0.23677z" fill="#000000" stroke="none"/></g><path d="M239.29265,185.97704c0,-0.23545 0.19087,-0.42631 0.42631,-0.42631c0.23545,0 0.42632,0.19087 0.42632,0.42631c0,0.23545 -0.19087,0.42632 -0.42632,0.42632c-0.23545,0 -0.42631,-0.19087 -0.42631,-0.42632z" fill="#ffffff" stroke="none" stroke-width="0" stroke-linecap="butt"/><g><g><path d="M249.41137,185.34596l0.82475,0.00697c0,0 1.37406,2.48892 1.80668,3.86843c0.3609,1.15079 0.63232,2.91075 0.65782,3.63186c0.04401,1.24507 -0.58158,1.0435 -0.58158,1.0435c0,0 -0.01557,-3.26871 -0.38047,-4.54369c-0.26012,-0.90899 -2.32719,-4.00707 -2.32719,-4.00707z" fill="#989898" stroke="#989898" stroke-width="0" stroke-linecap="round"/><path d="M248.16382,187.1941c0.09253,-0.55464 0.15713,-0.99127 0.56964,-1.43162c0.58641,-0.62598 0.98821,-0.43541 1.30361,-0.01271c0.66362,0.88995 1.36214,2.63517 1.36214,2.63517l-2.95639,1.87341c0,0 -0.4196,-2.21389 -0.27899,-3.06426z" fill="#f82020" stroke="none" stroke-width="1.13968" stroke-linecap="round"/><path d="M251.3453,188.31087c0,0 0.16784,0.10435 0.4386,1.06105c0.27076,0.95668 0.50255,2.24591 0.58328,3.33887c0.0318,0.43826 0.12309,1.18522 -0.21957,1.2448c-0.58336,0.10153 -1.81394,-0.12238 -2.30061,-0.63829c-0.48358,-0.51301 -1.49119,-2.46368 -1.41687,-3.19592c0.14613,-1.30357 2.91519,-1.81051 2.91519,-1.81051z" fill="#f8f8f8" stroke="none" stroke-width="1.15102" stroke-linecap="round"/><path d="M246.34632,187.44555c-0.02771,-0.42771 -0.39127,-1.16175 0.04162,-1.63134c0.49172,-0.5334 0.92414,0.11095 0.92414,0.11095c0,0 0.13597,-0.63047 0.54866,-0.41187c0.4007,0.21223 0.40718,0.49459 0.46408,0.79556c0.09561,0.50574 -0.11687,1.37856 -0.1054,1.55549c0.05732,0.8847 0.39484,2.18503 -0.06927,2.2151c-0.12311,0.00797 -0.71824,-0.19216 -0.71824,-0.19216c0,0 -0.58813,0.5299 -0.80272,0.16269c-0.27838,-0.47636 -0.2591,-2.23736 -0.28288,-2.60443z" fill="#ffffff" stroke="none" stroke-width="0" stroke-linecap="butt"/></g><path d="M248.71102,188.17089c0.08927,1.37782 0.03698,2.16881 -0.31196,2.19142c-0.12718,0.00824 -0.05576,-0.72832 -0.14503,-2.10614c-0.08927,-1.37782 -0.05494,-2.446 0.07225,-2.45424c0.34894,-0.0226 0.29547,0.99115 0.38474,2.36897z" fill="#424242" stroke="none" stroke-width="0" stroke-linecap="butt"/></g></g></g></svg>