<svg version="1.1" xmlns="http://www.w3.org/2000/svg" xmlns:xlink="http://www.w3.org/1999/xlink" width="47.09968" height="22.2061" viewBox="0,0,47.09968,22.2061"><defs><linearGradient x1="215.00064" y1="181.90482" x2="233.3542" y2="181.90482" gradientUnits="userSpaceOnUse" id="color-1"><stop offset="0" stop-color="#b5b2b2"/><stop offset="1" stop-color="#e8e6e6" stop-opacity="0.25098"/></linearGradient></defs><g transform="translate(-215.00063,-167.87402)"><g data-paper-data="{&quot;isPaintingLayer&quot;:true}" fill-rule="nonzero" stroke-linejoin="miter" stroke-miterlimit="10" stroke-dasharray="" stroke-dashoffset="0" style="mix-blend-mode: normal"><path d="M235.12769,185.55132c0,0 -0.29098,-3.59362 0.02881,-3.06827c0.08358,0.13729 0.66626,-0.42663 1.10945,-0.1625c0.56368,0.33592 0.11716,0.83552 0.32648,1.54203c0.43647,1.47324 -0.25188,3.51971 -0.25188,3.51971l-3.26116,0.07115c0,0 -0.65356,-0.65055 -0.58381,-1.14848c0.06975,-0.49794 0.84892,-0.74412 0.84892,-0.74412l1.78317,-0.00951z" data-paper-data="{&quot;index&quot;:null}" fill="#cc0000" stroke="none" stroke-width="0" stroke-linecap="butt"/><g><g stroke="none" stroke-width="0" stroke-linecap="butt"><path d="M224.23366,186.61501l1.48585,0.22718l0.37137,1.44478z" fill="#b96a37"/><path d="M224.20522,186.68296l2.12378,-1.49382l-0.53234,1.68649z" fill="#ebb9a2"/></g><g stroke="none" stroke-width="0" stroke-linecap="butt"><path d="M225.03786,182.92794l1.239,0.85102l-0.29423,1.46245z" fill="#b96a37"/><path d="M224.98268,182.97675l2.56217,-0.421l-1.21307,1.28689z" fill="#ebb9a2"/></g><path d="M233.48935,184.74471c0.57891,0.38903 0.47187,1.03852 0.49879,1.70747c0.0269,0.66896 0.15469,1.11099 -0.36265,1.67673c-0.51734,0.56573 -1.47481,0.71829 -1.82296,0.7134c-0.97945,-0.01377 -1.80739,-1.14298 -1.791,-2.30898c0.0164,-1.16601 1.26372,-1.90795 1.26372,-1.90795c0,0 1.63518,-0.2697 2.2141,0.11934z" fill="#21242a" stroke="none" stroke-width="0" stroke-linecap="butt"/><path d="M230.49805,182.60184c0.96215,0.54911 2.01255,2.56509 1.54435,3.38544c-0.4682,0.82035 0.50292,1.82863 -0.05884,2.61634c-0.115,0.90983 -2.3956,2.20001 -5.83311,0.08814c-0.69842,-0.42908 -0.78207,-0.73648 -0.65793,-1.60882c0.04683,-0.32906 0.37772,-3.45006 0.69985,-3.6112c0.46169,-0.23096 0.41556,-0.4462 0.51079,-0.61305c0.22358,-0.39174 1.32256,-0.33891 2.02183,-0.28009c0.76512,0.06437 1.27032,-0.26368 1.77303,0.02322z" fill="#906d5f" stroke="none" stroke-width="0" stroke-linecap="butt"/><path d="M228.06528,182.81736c0,0 -1.054,0.8692 -1.15089,1.67344c-0.06145,0.51008 2.07446,1.7491 2.07446,1.7491c0,0 -0.96946,0.20395 -1.25347,0.58723c-0.28402,0.38328 -0.5641,0.78217 -0.5641,0.78217" data-paper-data="{&quot;index&quot;:null}" fill="none" stroke="#564343" stroke-width="0.5" stroke-linecap="round"/><path d="M226.15044,188.69177c-0.69842,-0.42908 -0.78207,-0.73648 -0.65793,-1.60882c0.04683,-0.32906 0.37772,-3.45006 0.69985,-3.6112c0.46169,-0.23096 0.41556,-0.4462 0.51079,-0.61305c0.05217,-0.0914 1.27401,-0.75137 1.48314,-0.13607c-0.09562,0.10979 -0.61118,0.34926 -1.03627,0.78668c-0.26274,0.27037 -0.17719,0.63665 -0.12079,1.39537c0.02887,0.3883 1.77897,1.22143 1.77897,1.22143c0,0 -0.63832,0.22273 -1.13757,0.57772c-0.2558,0.18187 -0.37104,0.45463 -0.5613,0.63332c-0.56158,0.52742 0.00231,1.94514 -0.9589,1.35462z" fill="#a38273" stroke="none" stroke-width="0" stroke-linecap="butt"/><path d="M227.2274,184.49776c0.01591,-0.50892 0.6371,-1.88634 1.34959,-1.86407c0.71249,0.02227 1.25607,1.12864 1.24016,1.63755c-0.01591,0.50892 0.17111,1.60413 -0.54138,1.58187c-0.71248,-0.02227 -2.06428,-0.84643 -2.04837,-1.35534z" fill="#c3b0b0" stroke="none" stroke-width="0" stroke-linecap="butt"/></g><g stroke="none" stroke-width="0" stroke-linecap="butt"><path d="M244.91593,178.81445c0.36529,0.20597 3.5808,3.7526 4.44601,5.02337c0.57629,0.84639 1.93633,2.82255 2.2274,3.78951c0.14594,0.48483 -0.18413,0.66759 -0.18413,0.66759c0,0 -0.8675,-1.87467 -2.64729,-4.35711c-1.77979,-2.48245 -4.57158,-5.23683 -4.20632,-5.03086z" data-paper-data="{&quot;index&quot;:null}" fill="#ac5626"/><path d="M240.53658,181.95098c0.79498,-1.71009 3.1534,-3.3109 4.08976,-3.03347c0.49497,0.14665 2.10934,2.23424 3.53627,4.17235c1.42693,1.93811 3.34848,5.17873 3.34848,5.17873c0,0 -0.55841,2.56242 -3.83331,1.59213c-2.24152,-0.66412 -2.426,-3.41838 -4.10036,-4.38519c-1.99333,-1.15099 -3.54835,-2.43287 -3.04085,-3.52456z" fill="#2d3635"/><path d="M247.52458,184.34125c1.18077,1.70684 3.15739,5.1774 3.15739,5.1774l-0.1033,0.08831c0,0 -2.18975,-3.53876 -3.39982,-5.27429c-1.22145,-1.75186 -0.86258,-1.73808 0.34573,0.00858z" fill="#da8657"/><path d="M243.44189,182.54487c-0.37554,1.26749 -1.45878,2.06422 -2.41951,1.77957c-0.96073,-0.28465 -1.43513,-1.54288 -1.0596,-2.81037c0.37554,-1.26749 1.45878,-2.06421 2.41951,-1.77957c0.96073,0.28465 1.43513,1.54288 1.0596,2.81037z" data-paper-data="{&quot;index&quot;:null}" fill="#21242a"/><path d="M244.1994,186.00772c0,0 -0.23014,-0.44528 -1.71995,-1.17293c-0.45518,-0.22232 -0.64909,-0.44924 -0.64909,-0.44924l3.56256,-2.30912c0,0 0.01165,-0.77176 0.20969,-0.90012c0.30379,-0.1969 0.90582,-0.75327 0.90582,-0.75327c0,0 1.05624,1.1238 1.67738,1.88395c0.62114,0.76015 1.62685,2.13962 1.62685,2.13962l-1.88732,0.88265l-2.23143,-0.19178z" fill="#b3937c"/></g><g stroke="none" stroke-width="0" stroke-linecap="butt"><path d="M253.07143,179.22938c0.40875,0.09372 4.49929,2.58078 5.68985,3.55341c0.79298,0.64781 2.65837,2.1562 3.21214,3.00064c0.27765,0.4234 0.0131,0.69239 0.0131,0.69239c0,0 -1.36432,-1.55101 -3.77599,-3.42558c-2.41167,-1.87458 -5.8709,-3.7224 -5.46217,-3.62868z" data-paper-data="{&quot;index&quot;:null}" fill="#ac5626"/><path d="M249.76348,183.48075c0.27643,-1.86548 2.08294,-4.0703 3.05954,-4.0703c0.51624,0 2.65712,1.54299 4.57584,2.99589c1.91872,1.4529 4.68169,4.01415 4.68169,4.01415c0,0 0.19252,2.6155 -3.2231,2.6155c-2.33782,0 -3.29713,-2.58838 -5.17715,-3.03972c-2.23818,-0.53731 -4.09328,-1.32463 -3.91681,-2.51552z" fill="#2d3635"/><path d="M257.14261,183.78743c1.61699,1.3011 4.49809,4.06716 4.49809,4.06716l-0.07395,0.11402c0,0 -3.1048,-2.77091 -4.75805,-4.09119c-1.66879,-1.3327 -1.3208,-1.42144 0.33392,-0.08999z" fill="#da8657"/><path d="M252.71783,183.22485c0,1.32195 -0.81229,2.39358 -1.8143,2.39358c-1.00201,0 -1.8143,-1.07163 -1.8143,-2.39358c0,-1.32195 0.81229,-2.39358 1.8143,-2.39358c1.00201,0 1.8143,1.07163 1.8143,2.39358z" data-paper-data="{&quot;index&quot;:null}" fill="#21242a"/><path d="M254.42784,186.32985c0,0 -0.34715,-0.36156 -1.98229,-0.63601c-0.49958,-0.08385 -0.74997,-0.24634 -0.74997,-0.24634l2.75982,-3.22602c0,0 -0.20807,-0.74328 -0.05465,-0.92261c0.23534,-0.27509 0.65453,-0.97956 0.65453,-0.97956c0,0 1.33197,0.77745 2.14346,1.32982c0.81149,0.55238 2.16764,1.58933 2.16764,1.58933l-1.55883,1.38243l-2.19398,0.45002z" fill="#b3937c"/></g><path d="M247.30232,182.75445c-0.49478,1.02109 -2.34437,2.61025 -3.89721,2.41659c-1.55284,-0.19365 -5.9213,-6.1146 -1.73796,-4.33065c1.7707,0.7551 5.93405,1.4197 5.74796,1.80373z" data-paper-data="{&quot;index&quot;:null}" fill="#ff1c00" stroke="none" stroke-width="0" stroke-linecap="butt"/><path d="M244.25959,185.1147c-0.91073,0.25563 -1.44508,-2.53197 -1.44508,-2.53197l1.45878,-0.40946c0,0 0.99428,2.65851 -0.0137,2.94143z" fill="#caa487" stroke="none" stroke-width="0" stroke-linecap="butt"/><path d="M241.89691,184.23638c-0.60195,-0.14478 -3.84899,0.01493 -5.80218,-0.09398c-1.89888,-0.10587 -3.68508,-1.39629 -3.68508,-1.39629c0,0 3.9441,-1.66126 5.6243,-1.88807c1.53926,-0.20779 3.51367,-1.2296 4.07117,0.57924c0.18321,0.59445 0.97895,3.08461 -0.20821,2.79909z" data-paper-data="{&quot;index&quot;:null}" fill="#ff3300" stroke="none" stroke-width="0" stroke-linecap="butt"/><path d="M233.51577,183.46539c-0.24295,-0.1316 -1.05149,-0.67967 -1.05149,-0.67967l2.26471,-0.13866c0,0 -0.97027,0.94993 -1.21322,0.81833z" fill="#f3b774" stroke="none" stroke-width="0" stroke-linecap="butt"/><path d="M239.73192,184.16387l-0.22696,-0.39216l7.11128,0.53922l-0.07565,0.53922z" fill="#ce834a" stroke="none" stroke-width="0" stroke-linecap="butt"/><path d="M239.27801,183.72269l0.07565,-0.78431l5.53913,0.75339l0.13476,0.52112z" fill="#2d3828" stroke="none" stroke-width="0" stroke-linecap="butt"/><path d="M233.59174,183.52661l1.22549,-0.98039h0.68627l-1.07843,1.37255z" fill="#4c594c" stroke="none" stroke-width="0" stroke-linecap="butt"/><path d="M234.38585,183.91877l1.22549,-1.51961l0.63725,-0.14706l-0.68627,1.81373z" fill="#f3b774" stroke="none" stroke-width="0" stroke-linecap="butt"/><path d="M235.5035,184.11485l0.88235,-2.64706l1.71569,-0.78431c0,0 0.17614,1.69883 0.13103,2.34842c-0.03199,0.46065 -0.47417,1.18099 -0.47417,1.18099z" fill="#42302a" stroke="none" stroke-width="0" stroke-linecap="butt"/><path d="M236.2388,184.16387c0,0 0.94155,-0.89593 1.20196,-1.24314c0.31673,-0.42231 1.05294,-1.50196 1.05294,-1.50196l0.08923,0.40399c0,0 -0.76702,1.02681 -0.87093,1.23895c-0.2621,0.53512 -0.88497,1.15118 -0.88497,1.15118z" fill="#e4ab79" stroke="none" stroke-width="0" stroke-linecap="butt"/><path d="M238.05252,183.18347l0.63725,-2.54902l1.22549,0.04902l-0.63725,3.03922z" fill="#ae7f67" stroke="none" stroke-width="0" stroke-linecap="butt"/><path d="M237.66036,184.16387l0.14706,-0.88235l0.78137,-0.5598l1.27745,1.44216z" fill="#10a45f" stroke="none" stroke-width="0" stroke-linecap="butt"/><path d="M228.29643,179.31407c0,0 -0.65178,-4.05293 0.31787,-3.70063c0.96965,0.3523 1.35799,3.97503 1.35799,3.97503z" data-paper-data="{&quot;index&quot;:null}" fill="#ffffff" stroke="none" stroke-width="0" stroke-linecap="butt"/><path d="M228.28032,177.01362c-0.61095,-0.98833 -0.38705,-1.41653 0.81148,-3.07361c1.04431,-1.44386 2.13535,-3.35693 5.1615,-4.74493c3.02614,-1.388 7.23942,-1.32053 7.23942,-1.32053l5.98345,0.20767l-1.74163,1.68512c0,0 3.80592,0.85784 5.27684,1.5846c1.47092,0.72676 3.28403,2.64521 3.28403,2.64521l-5.60181,-0.04053c0,0 2.26195,1.40847 3.1767,2.21239c0.91476,0.80392 2.03374,2.36671 2.03374,2.36671l-4.91454,-0.16024l1.49512,3.78311c0,0 -3.49766,-0.36904 -5.90639,-0.7938c-2.40873,-0.42476 -5.4459,-0.51763 -5.4459,-0.51763c0,0 -1.8386,1.30064 -2.77106,1.05415c-1.97373,-0.52174 -3.89936,-2.81725 -3.91533,-2.8199c-0.57019,-0.095 -1.86547,0.32569 -2.42382,0.07625c-0.52308,-0.23369 -1.03469,-1.00017 -1.74181,-2.14405z" data-paper-data="{&quot;index&quot;:null}" fill="#ff3300" stroke="none" stroke-width="0" stroke-linecap="butt"/><path d="M226.94005,173.78729z" data-paper-data="{&quot;index&quot;:null}" fill="#030000" stroke="none" stroke-width="0" stroke-linecap="butt"/><path d="M229.97229,179.28657c0,0 1.44449,-1.45479 3.43156,-2.4839c1.13883,-0.5898 2.92129,-1.5666 2.92129,-1.5666c0,0 0.104,1.80021 -0.20891,2.62617c-0.27651,0.72983 -1.35099,1.99936 -1.84516,2.02623c-0.44137,0.02399 -1.01783,0.19609 -2.08877,-0.06955c-1.36362,-0.33824 -2.21,-0.53234 -2.21,-0.53234z" data-paper-data="{&quot;index&quot;:null}" fill="#ffffff" stroke="none" stroke-width="0" stroke-linecap="butt"/><path d="M230.37208,182.56088c-2.14851,-0.56461 -3.54573,-1.538 -3.66895,-2.50646c-0.09115,-0.7164 1.81313,-1.14631 3.13613,-1.2668c1.323,-0.12049 1.43862,0.80307 2.38555,0.85122c1.94641,0.09899 1.9922,-0.35697 2.68638,-0.2558c3.30532,0.48171 3.10234,2.14622 1.69206,2.76214c-1.92497,0.91367 -4.61085,0.70788 -6.23118,0.4157z" data-paper-data="{&quot;index&quot;:null}" fill="#ffbe7e" stroke="none" stroke-width="0" stroke-linecap="butt"/><path d="M227.06489,179.44853c0,0 0.14109,-0.0633 0.21479,0.24672c0.0737,0.31 -0.38382,0.82757 -0.38382,0.82757c0,0 -1.40372,-0.56844 -1.35143,-0.88231z" data-paper-data="{&quot;index&quot;:null}" fill="#030000" stroke="none" stroke-width="0" stroke-linecap="butt"/><path d="M242.17903,184.13053v-2.38769h8.64511c0,0 0.64692,0.84011 0.64692,1.32548c0,0.48537 -0.64692,1.06221 -0.64692,1.06221z" data-paper-data="{&quot;index&quot;:null}" fill="#ff3200" stroke="none" stroke-width="0" stroke-linecap="butt"/><g stroke="none" stroke-width="0" stroke-linecap="butt"><path d="M226.49172,169.31557c1.04692,-1.92243 3.53124,0.8177 3.53124,0.8177c0,0 2.32371,-2.56375 4.03409,-1.19764c2.06098,1.64611 -0.12152,4.64527 -2.02074,5.9684c-0.80893,0.56358 -1.63907,1.80283 -2.01243,1.82035c-0.26244,0.01232 -0.48885,-0.62671 -1.54393,-1.73152c-1.51456,-1.58596 -2.82163,-4.14704 -1.98826,-5.67728z" fill="#d67a49"/><path d="M229.02725,169.0056c-0.02456,-0.58966 0.43353,-1.08759 1.02321,-1.11216c0.58966,-0.02456 1.08759,0.43355 1.11216,1.02321c0.0146,0.35047 -0.183,0.52702 -0.43566,0.73256c-0.17245,0.14028 -0.61284,0.63126 -0.61284,0.63126c0,0 -0.44838,-0.36308 -0.64108,-0.51314c-0.23913,-0.18623 -0.43216,-0.43521 -0.44576,-0.76176z" fill="#d67a49"/><path d="M229.2445,168.9231c-0.01816,-0.43599 0.32056,-0.80415 0.75654,-0.82231c0.43599,-0.01816 0.80417,0.32056 0.82233,0.75654c0.01816,0.43599 -0.32056,0.80417 -0.75656,0.82233c-0.43599,0.01816 -0.80415,-0.32056 -0.82231,-0.75656z" fill="#770000"/><path d="M226.78133,169.59427c0.9372,-1.72092 3.23678,0.87392 3.23678,0.87392c0,0 2.18169,-2.48012 3.7128,-1.25719c1.84495,1.47358 -0.14005,4.26708 -1.84019,5.45154c-0.72416,0.50452 -1.46728,1.61385 -1.80148,1.62954c-0.23492,0.01104 -0.43764,-0.56101 -1.3821,-1.55003c-1.3558,-1.41973 -2.67183,-3.77789 -1.92582,-5.14775z" fill="#29382d"/><path d="M226.58074,170.92176c0,0 -0.05064,-0.4724 -0.00386,-0.78927c0.0468,-0.31687 0.30371,-0.75285 0.30371,-0.75285c0,0 1.94948,1.54593 3.19309,1.49413c0.5463,-0.02276 3.7766,-1.59552 3.7766,-1.59552c0,0 0.38908,0.37575 0.49542,0.66341c0.22836,0.61763 0.10834,0.93856 0.10834,0.93856c0,0 -3.05968,0.43689 -4.39549,0.44211c-0.64475,0.00252 -3.47785,-0.40057 -3.47785,-0.40057z" fill="#ffac5f"/><path d="M227.97226,173.86134c0,0 -0.2874,-0.36747 -0.40348,-0.54946c-0.11372,-0.17832 -0.31185,-0.53062 -0.31185,-0.53062c0,0 1.90294,-0.54471 2.80036,-0.58209c0.83792,-0.0349 3.65141,0.60966 3.65141,0.60966c0,0 -0.18942,0.31954 -0.31948,0.4804c-0.16654,0.20598 -0.62246,0.68089 -0.62246,0.68089c0,0 -2.22882,-0.85652 -3.02962,-0.85446c-0.71743,0.00186 -1.76485,0.74568 -1.76485,0.74568z" fill="#ffac5f"/><path d="M229.12566,175.23903c0,0 0.34779,-0.4793 -0.08486,-1.66916c-0.22591,-0.48654 -0.68865,-0.30958 -0.84841,-0.71989c-0.0745,-0.19132 0.0858,-0.6659 -0.10045,-1.13963c-0.31705,-0.80649 -0.31645,-0.82774 -0.17355,-1.40281c0.28457,-1.14514 1.98359,-0.23994 1.98359,-0.23994c0,0 1.10805,-0.5501 1.61017,-0.14379c0.80405,0.65061 0.47887,1.50845 -0.00253,3.38721c-0.29835,1.16434 -0.32294,2.02586 -0.32294,2.02586c0,0 -0.82394,1.09146 -1.0588,1.03585c-0.24656,-0.05838 -1.00223,-1.13365 -1.00223,-1.13365z" fill="#d67a49"/><path d="M229.22972,173.35583c-0.48888,-1.42064 -0.91383,-2.86842 -0.84138,-3.32565c0.0854,-0.5388 1.63289,0.31541 1.63289,0.31541c0,0 0.96167,-0.54775 1.36708,-0.19861c0.64914,0.55906 0.25148,1.51939 -0.13235,3.12782c-0.23787,0.99681 -0.23141,2.32147 -0.23141,2.32147c0,0 -0.80659,0.97603 -0.99592,0.92788c-0.19875,-0.05055 -0.77164,-0.93814 -0.77164,-0.93814c0,0 0.32381,-1.20991 -0.02728,-2.23015z" fill="#ffac5f"/><path d="M229.22972,173.35583c-0.48888,-1.42064 -0.91383,-2.86842 -0.84138,-3.32565c0.0854,-0.5388 1.60029,0.25648 1.60029,0.25648c0,0 1.05195,-0.55151 1.45736,-0.20237c0.31757,0.27351 0.58641,1.32299 0.02751,2.17221c-0.58352,0.88662 -2.06445,1.62048 -2.24377,1.09937z" fill="#d67a49"/><path d="M228.34089,172.92985c-0.15327,-0.16739 0.07459,-1.28638 -0.4025,-2.07597c-0.08783,-0.91618 0.56218,-0.97989 0.65495,-0.98376c0.10185,-0.00424 0.47987,0.60969 0.92594,0.59785c0.44968,-0.01193 0.56611,-0.23274 0.96817,-0.18062c0.40776,0.05285 0.62703,0.26214 0.54894,0.63069c-0.28474,1.34391 -0.63235,2.02333 -1.22965,2.16068c-0.43166,0.09926 -1.24251,0.09496 -1.46581,-0.14889z" fill="#ffac5f"/><path d="M228.89689,174.75617c0,0 0.01539,-0.97991 0.03161,-1.29673c0.01162,-0.22726 -0.12398,-0.41898 -0.12398,-0.41898l0.702,0.03074c0,0 -0.04845,0.22296 -0.04637,0.50155c0.0023,0.30528 0.05966,1.25743 0.05966,1.25743l-0.27611,-0.38839z" fill="#8c3e22"/><path d="M230.0097,171.71061l0.75351,-0.63123c0,0 0.05241,0.63166 -0.16885,0.74683c-0.46749,0.24335 -0.58465,-0.1156 -0.58465,-0.1156z" fill="#016929"/><path d="M228.16544,171.34212c-0.11372,-0.30712 0.00878,-0.51281 0.00878,-0.51281l0.24324,0.77361c0,0 -0.17537,-0.0538 -0.25202,-0.2608z" fill="#016929"/></g><path d="M231.96564,175.01178l0.69887,-0.87143c0,0 5.84077,-1.48612 6.57604,-3.04308c0.73527,-1.55696 -1.58409,-2.78879 -1.58409,-2.78879l0.64896,-0.13406c0,0 2.40022,1.44779 1.74089,2.93933c-1.22278,2.76617 -8.08067,3.89803 -8.08067,3.89803z" fill="#ffac5f" stroke="none" stroke-width="0" stroke-linecap="butt"/><path d="M234.49433,174.45188l0.50493,-1.0041c0,0 1.0864,-0.38725 1.4325,-0.53569c0.3461,-0.14844 1.06555,-0.50857 1.06555,-0.50857l-0.50492,1.12459c0,0 -0.54585,0.2506 -0.90042,0.38094c-0.35457,0.13035 -1.59763,0.54282 -1.59763,0.54282z" fill="#29382d" stroke="none" stroke-width="0" stroke-linecap="butt"/><path d="M238.93504,171.40065c0,0 0.54216,-0.52154 0.26529,-1.39389c-0.33246,-1.04749 -1.25126,-1.50392 -1.25126,-1.50392l0.71731,-0.17046c0,0 1.15031,0.77746 1.38418,1.61607c0.3601,1.19215 -0.3898,1.70789 -0.3898,1.70789z" fill="#29382d" stroke="none" stroke-width="0" stroke-linecap="butt"/><path d="M245.72981,169.74977l-1,-1.71428l1.42857,0.07143l0.14286,1.07143z" fill="#caa487" stroke="none" stroke-width="0" stroke-linecap="butt"/><path d="M250.51552,173.89263l-0.28572,-2.85715l1.35714,0.71428l0.21429,2.14286z" fill="#caa487" stroke="none" stroke-width="0" stroke-linecap="butt"/><path d="M248.72981,173.89263l-0.78572,-3.57143l1,0.35714l0.28572,3.28571z" fill="#caa487" stroke="none" stroke-width="0" stroke-linecap="butt"/><path d="M251.30124,178.46405l-0.57143,-3.07142l1.28572,0.78571l0.14285,2.28571z" fill="#caa487" stroke="none" stroke-width="0" stroke-linecap="butt"/><path d="M249.01552,178.3212l-0.78572,-4.5l1.28572,0.64285l0.64285,3.85715z" fill="#caa487" stroke="none" stroke-width="0" stroke-linecap="butt"/><path d="M245.22981,181.46405l-0.28572,-3.57142l0.92857,0.07142l0.35715,3.57143z" fill="#caa487" stroke="none" stroke-width="0" stroke-linecap="butt"/><path d="M247.65838,181.74977l-0.28572,-3.64285l0.92857,0.07143l0.26046,3.56277z" fill="#caa487" stroke="none" stroke-width="0" stroke-linecap="butt"/><g stroke="none" stroke-width="0" stroke-linecap="butt"><path d="M231.82039,179.47594c-0.35146,-0.01303 -0.61732,-0.53763 -0.59383,-1.17175c0.0235,-0.63411 0.32745,-1.1376 0.67892,-1.12457c0.35147,0.01302 0.61732,0.53761 0.59383,1.17173c-0.0235,0.63411 -0.32745,1.1376 -0.67891,1.12458z" fill="#7c5cbb"/><path d="M231.8497,179.13943c-0.19398,-0.01633 -0.34542,-0.38675 -0.33823,-0.82735c0.00718,-0.4406 0.17027,-0.78453 0.36425,-0.7682c0.19398,0.01633 0.34539,0.38673 0.3382,0.82733c-0.00718,0.4406 -0.17025,0.78455 -0.36423,0.76822z" fill="#000000"/><path d="M231.97603,178.3567c-0.12586,-0.00867 -0.22411,-0.2052 -0.21944,-0.43896c0.00466,-0.23377 0.11048,-0.41625 0.23633,-0.40758c0.12586,0.00867 0.22411,0.20519 0.21944,0.43895c-0.00466,0.23377 -0.11048,0.41625 -0.23633,0.40758z" fill="#ffffff"/></g><g stroke="none" stroke-width="0" stroke-linecap="butt"><path d="M228.82693,178.94656c-0.29745,-0.01103 -0.52246,-0.45502 -0.50258,-0.99169c0.01989,-0.53667 0.27713,-0.96279 0.57459,-0.95176c0.29746,0.01102 0.52246,0.455 0.50258,0.99167c-0.01989,0.53667 -0.27714,0.96279 -0.57459,0.95177z" fill="#7c5cbb"/><path d="M228.85174,178.66177c-0.16417,-0.01382 -0.29234,-0.32732 -0.28625,-0.70021c0.00608,-0.37289 0.1441,-0.66398 0.30827,-0.65016c0.16417,0.01382 0.29232,0.3273 0.28624,0.7002c-0.00608,0.37289 -0.14409,0.66399 -0.30827,0.65017z" fill="#000000"/><path d="M228.95865,177.99932c-0.10652,-0.00734 -0.18967,-0.17367 -0.18572,-0.37151c0.00395,-0.19785 0.0935,-0.35229 0.20002,-0.34495c0.10652,0.00734 0.18968,0.17365 0.18573,0.3715c-0.00395,0.19785 -0.0935,0.35229 -0.20002,0.34495z" fill="#ffffff"/></g><path d="M228.16468,176.72036l0.23529,-1.17647l1.82353,1.52941l-0.79521,1.51416z" fill="#ff3300" stroke="none" stroke-width="0" stroke-linecap="butt"/><path d="M234.20588,181c0,0 0.32306,-0.41177 0.94118,-0.41177c0.61812,0 1,0.52941 1,0.52941c0,0 -0.56464,-0.23529 -1.05883,-0.23529c-0.4648,0 -0.88235,0.11765 -0.88235,0.11765z" fill="#000000" stroke="none" stroke-width="0" stroke-linecap="butt"/><path d="M248.78125,184.125v-2.38826h1.0625v2.38826z" fill="#caa487" stroke="none" stroke-width="0" stroke-linecap="butt"/><path d="M246.34375,184.125v-2.37374h1.0625v2.37374z" fill="#caa487" stroke="none" stroke-width="0" stroke-linecap="butt"/><path d="M244.15625,184.11301v-2.38573h0.9375v2.38573z" fill="#caa487" stroke="none" stroke-width="0" stroke-linecap="butt"/><path d="M245.16635,184.11301v-2.38573h0.60922l0.32828,2.38573z" fill="#caa487" stroke="none" stroke-width="0" stroke-linecap="butt"/><path d="M237.28239,184.29283l-10.819,-0.43274c0,0 0.3539,-0.04057 0.72664,-0.87215c0.28942,-0.64569 11.89095,-0.39407 11.89095,-0.39407z" fill="#ff3300" stroke="none" stroke-width="0" stroke-linecap="butt"/><g stroke="none" stroke-width="0" stroke-linecap="butt"><path d="M223.41801,178.30582c1.03415,0.76686 1.96703,3.23852 1.31319,4.12027c-0.65383,0.88174 0.66867,3.65027 -0.3655,2.88342c-0.35635,-0.26423 -3.51151,2.95181 -7.18555,0.03895c-0.74646,-0.59178 -0.4627,-1.41606 -0.19866,-2.40543c0.09959,-0.37317 -0.5679,-2.83458 -0.42199,-3.24849c0.04211,-0.11944 0.6963,-0.50151 1.09033,-0.64283c0.56471,-0.20255 0.33011,-1.01406 0.46309,-1.19341c0.31222,-0.42104 2.46371,0.0105 3.26244,0.17521c0.87392,0.18024 1.50231,-0.12832 2.04263,0.27233z" data-paper-data="{&quot;index&quot;:null}" fill="#906d5f"/><path d="M228.08771,181.50562c0.61414,0.52907 0.46437,1.29601 0.40279,2.07163c-0.06159,0.77561 -0.03906,1.27104 -0.71434,1.85217c-0.67526,0.58115 -1.80123,0.62457 -2.20227,0.57072c-1.12827,-0.15151 -1.92721,-1.56913 -1.74685,-2.9123c0.18039,-1.34314 1.72239,-2.02654 1.72239,-2.02654c0,0 1.92415,-0.08476 2.53829,0.44431z" data-paper-data="{&quot;index&quot;:null}" fill="#21242a"/><path d="M217.18015,185.34846c-0.74646,-0.59178 -0.4627,-1.41606 -0.19866,-2.40543c0.09959,-0.37317 -0.5679,-2.83458 -0.42199,-3.24849c0.04211,-0.11944 0.88381,-0.68666 1.27784,-0.82799c0.56471,-0.20255 3.05104,9.87948 -0.65719,6.48191z" data-paper-data="{&quot;index&quot;:null}" fill="#a38273"/><g><path d="M216.71379,180.11133l1.07898,0.66582l-0.24349,1.71648z" fill="#b96a37"/><path d="M219.10924,179.28913l0.83536,2.40874l-2.18478,-0.87465z" fill="#ffe7d7"/><path d="M216.72847,180.10446l2.38229,-0.83548l-1.32132,1.57426z" fill="#ebb9a2"/><path d="M219.92586,181.69778l-2.40875,0.83535l0.25085,-1.72494z" fill="#b89985"/></g><g><path d="M217.10082,184.12534l1.23037,0.30611l0.29011,1.70921z" fill="#b96a37"/><path d="M219.13271,182.61351l1.5284,2.04055l-2.34729,-0.16871z" fill="#ffe7d7"/><path d="M217.11271,184.11433l2.01533,-1.52048l-0.77991,1.90157z" fill="#ebb9a2"/><path d="M220.64323,184.65968l-2.04055,1.52839l-0.28568,-1.7195z" fill="#b89985"/></g><path d="M217.64982,179.05171c0.56471,-0.20255 0.33011,-1.01406 0.46309,-1.19341c0.31222,-0.42104 2.46371,0.0105 3.26244,0.17521c0.87392,0.18024 -4.11956,1.15953 -3.72553,1.0182z" data-paper-data="{&quot;index&quot;:null}" fill="#c3b0b0"/></g><path d="M224.79712,181.50482c0,3.89361 14.43151,7.45 5.81147,7.45c-8.62004,0 -15.60796,-3.15639 -15.60796,-7.05c0,-3.89361 6.98792,-7.05 15.60796,-7.05c8.62004,0 -5.81147,2.75639 -5.81147,6.65z" fill="url(#color-1)" stroke="none" stroke-width="NaN" stroke-linecap="butt"/><path d="M229.46772,184.08652v-1.47541h0.81967v1.47541z" fill="#caa487" stroke="none" stroke-width="NaN" stroke-linecap="butt"/><path d="M231.27099,184.08652v-1.47541h0.81967v1.47541z" fill="#caa487" stroke="none" stroke-width="0" stroke-linecap="butt"/><path d="M232.41854,184.08652v-1.55738h0.7377v1.55738z" fill="#caa487" stroke="none" stroke-width="0" stroke-linecap="butt"/><path d="M234.63165,184.16848v-1.55738h0.65574v1.55738z" fill="#caa487" stroke="none" stroke-width="0" stroke-linecap="butt"/><path d="M234.38575,187.44717v-1.88525h0.90164l0.40984,1.80328z" fill="#755453" stroke="none" stroke-width="0" stroke-linecap="butt"/><path d="M235.12345,185.64389v-1.06557h1.55738l-0.08197,1.06557z" fill="#755453" stroke="none" stroke-width="0" stroke-linecap="butt"/><path d="M231.11988,178.30595c0,0 -0.23889,-0.65483 -0.06135,-0.9816c0.17754,-0.32676 0.43103,-0.40367 0.77406,-0.3608c0.34303,0.04288 0.45293,0.51417 0.45293,0.51417z" fill="#ff3300" stroke="none" stroke-width="0" stroke-linecap="butt"/></g></g></svg>