<svg version="1.1" xmlns="http://www.w3.org/2000/svg" xmlns:xlink="http://www.w3.org/1999/xlink" width="29.03645" height="24.81574" viewBox="0,0,29.03645,24.81574"><g transform="translate(-224.89401,-169.96477)"><g data-paper-data="{&quot;isPaintingLayer&quot;:true}" fill-rule="nonzero" stroke-linejoin="miter" stroke-miterlimit="10" stroke-dasharray="" stroke-dashoffset="0" style="mix-blend-mode: normal"><g><g stroke="none" stroke-width="0" stroke-linecap="butt"><path d="M238.28874,177.52584c0,0 0.84216,-0.98952 1.11765,-1.53426c0.27308,-0.53997 0.22887,-1.70564 0.22887,-1.70564c0,0 2.58759,0.88426 3.82633,4.06913c1.07722,2.7696 0.04633,5.10216 0.04633,5.10216c0,0 -1.11708,-1.59982 -1.94377,-2.53932c-0.82668,-0.9395 -3.2754,-3.39208 -3.2754,-3.39208z" data-paper-data="{&quot;index&quot;:null}" fill="#f8b820"/><path d="M233.06351,176.22252c-0.22934,-0.13969 0.09798,-1.79465 2.84014,-2.32092c1.4965,-0.2872 3.72999,0.37132 3.72999,0.37132c0,0 0.08307,1.20289 -0.21516,1.88541c-0.29823,0.68253 -1.14182,1.3836 -1.14182,1.3836c0,0 -1.19359,-0.76215 -1.99707,-0.95471c-0.80348,-0.19256 -2.97892,-0.22027 -3.21607,-0.36472z" fill="#ffffff"/></g><path d="M240.00253,175.19199l-0.61704,-0.24379" fill="none" stroke="#808080" stroke-width="0.5" stroke-linecap="round"/><path d="M238.91272,176.27745l0.51482,0.28203" fill="none" stroke="#808080" stroke-width="0.5" stroke-linecap="round"/><path d="M238.73307,177.63271l-0.46598,-0.2777" fill="none" stroke="#808080" stroke-width="0.5" stroke-linecap="round"/></g><g><g stroke="none" stroke-width="0" stroke-linecap="butt"><path d="M249.97149,177.00399c0,0 -2.87436,3.5878 -3.76391,4.59378c-0.88957,1.00598 -2.69016,1.78122 -2.69016,1.78122c0,0 -0.73237,-2.60256 0.84379,-5.83581c1.14185,-2.34232 3.61831,-3.61 3.61831,-3.61c0,0 0.38244,1.14786 0.71297,1.65739c0.33344,0.51404 1.27899,1.41344 1.27899,1.41344z" fill="#f8b820"/><path d="M253.92686,173.98322c0.07614,0.36604 -1.07469,1.201 -1.78296,1.50254c-0.22782,0.09699 -2.18506,1.54979 -2.18506,1.54979c0,0 -0.82426,-0.53548 -1.29021,-1.22877c-0.46595,-0.69327 -0.67472,-1.88943 -0.67472,-1.88943c0,0 1.73096,-0.74623 3.38637,-0.64872c0.7134,-0.02037 2.46215,0.30869 2.54659,0.7146z" fill="#ffffff"/></g><path d="M249.98864,176.63938l-0.42349,0.36918" fill="none" stroke="#808080" stroke-width="0.5" stroke-linecap="round"/><path d="M248.64189,175.93716l0.48121,-0.33224" fill="none" stroke="#808080" stroke-width="0.5" stroke-linecap="round"/><path d="M247.93038,174.68116l0.50042,-0.2399" fill="none" stroke="#808080" stroke-width="0.5" stroke-linecap="round"/></g><g data-paper-data="{&quot;index&quot;:null}"><g><path d="M247.78866,186.01241c0.56271,0.40449 0.72723,1.98241 0.64806,2.78388c-0.07916,0.80149 -0.97186,4.9765 -2.46572,5.73361c-0.38236,0.23792 -1.71029,-1.15538 -2.29676,-3.99993c-0.47184,-2.28858 -0.0479,-4.59037 0.15585,-4.76907c0.74689,-0.65514 3.39585,-0.15298 3.95856,0.25151z" fill="#c01515" stroke="none" stroke-width="0" stroke-linecap="butt"/><path d="M248.06972,190.49844c0,0 -1.35038,-0.18082 -2.16294,-0.07411c-0.81256,0.10671 -2.07174,0.65622 -2.07174,0.65622c0,0 -0.139,-0.39571 -0.23033,-0.92308c-0.09134,-0.52738 -0.10767,-1.4436 -0.10767,-1.4436c0,0 1.28812,-0.40448 2.32178,-0.35156c1.03368,0.05291 2.58277,0.60263 2.58277,0.60263c0,0 -0.14225,0.80171 -0.18715,1.00918c-0.0449,0.20747 -0.1447,0.52432 -0.1447,0.52432z" fill="#a8c8d8" stroke="none" stroke-width="0" stroke-linecap="butt"/><path d="M245.79329,194.43773c0,0 -0.95901,-2.19315 -1.31124,-3.81286c-0.35223,-1.61971 -0.45649,-4.22271 -0.45649,-4.22271" fill="none" stroke="#000000" stroke-width="0.25" stroke-linecap="round"/><path d="M243.88214,186.74539l0.43946,-0.10704" fill="none" stroke="#808080" stroke-width="0.5" stroke-linecap="round"/><path d="M244.53441,187.93934l-0.5764,0.12945" fill="none" stroke="#808080" stroke-width="0.5" stroke-linecap="round"/><path d="M244.63757,191.57822l0.4681,-0.14688" fill="none" stroke="#808080" stroke-width="0.5" stroke-linecap="round"/><path d="M245.63094,193.13821l-0.50793,0.11824" fill="none" stroke="#808080" stroke-width="0.5" stroke-linecap="round"/><path d="M244.6894,189.58529l-0.68934,0.16048" fill="none" stroke="#808080" stroke-width="0.5" stroke-linecap="round"/></g><path d="M241.1462,184.97865c0,0 -1.42686,-0.62718 -1.98881,-0.93337c-0.56196,-0.30619 -1.33289,-0.95523 -1.33289,-0.95523l1.46166,-0.3843c0,0 0.72615,0.50445 1.16541,0.80824c0.43927,0.30379 1.20887,0.83606 1.20887,0.83606z" fill="#f8b820" stroke="none" stroke-width="0" stroke-linecap="butt"/><path d="M243.08752,184.80339c0.50114,0.27004 1.44975,0.71111 1.2375,1.23461c-0.22663,0.55898 -1.40411,-0.05257 -1.91619,-0.30124c-0.95636,-0.46442 -1.4191,-0.65065 -1.1551,-1.14058c0.20022,-0.37156 1.33265,-0.06283 1.83379,0.20721z" fill="#ffffff" stroke="none" stroke-width="0" stroke-linecap="butt"/></g><g><path d="M235.92026,187.37584l-1.4557,0.82805c0,0 1.03539,-1.98182 1.60018,-2.66651c0.66261,-0.80329 2.35198,-2.57797 2.35198,-2.57797l0.54255,0.55191c0,0 -1.4421,1.58421 -1.98443,2.27387c-0.45541,0.5791 -1.0546,1.59065 -1.0546,1.59065z" fill="#f8b820" stroke="none" stroke-width="0" stroke-linecap="butt"/><g data-paper-data="{&quot;index&quot;:null}"><path d="M235.86586,187.01787c1.09286,0.0522 2.35512,2.49522 1.1502,4.38414c-0.99479,1.55953 -1.71423,2.50234 -3.09595,2.56508c-0.50017,0.02872 -2.05153,-2.31383 -0.84067,-4.55652c0.87652,-1.62343 2.42862,-2.40977 2.78642,-2.3927z" fill="#a8c8d8" stroke="none" stroke-width="0" stroke-linecap="butt"/><path d="M236.44805,188.21486l-1.02847,0.14379" fill="none" stroke="#808080" stroke-width="0.5" stroke-linecap="round"/><path d="M236.52941,189.82034l-0.81509,0.07637" fill="none" stroke="#808080" stroke-width="0.5" stroke-linecap="round"/><path d="M235.56197,191.16821l0.79591,0.02031" fill="none" stroke="#808080" stroke-width="0.5" stroke-linecap="round"/><path d="M235.19625,192.50721l0.58255,0.08776" fill="none" stroke="#808080" stroke-width="0.5" stroke-linecap="round"/><path d="M235.74691,187.21307c0,0 0.50406,1.82325 0.46093,3.01517c-0.04313,1.19191 -1.20509,3.31586 -1.20509,3.31586" fill="none" stroke="#020202" stroke-width="0.25" stroke-linecap="round"/></g></g><g data-paper-data="{&quot;index&quot;:null}"><path d="M240.82605,182.23007c3.33404,0.26803 3.76648,2.8575 3.61594,4.51084c-0.16191,1.7781 -4.58182,2.49413 -6.63329,0.89801c-2.02404,-1.57477 -1.66936,-3.5655 -0.07922,-4.63442c1.06693,-0.7172 1.55711,-0.89819 3.09657,-0.77442z" fill="#f8b820" stroke="none" stroke-width="0" stroke-linecap="butt"/><path d="M241.09683,183.65775c1.15451,-0.15671 3.13433,1.23803 3.31154,3.10443c0.11956,1.2591 -1.89635,2.87146 -3.50029,2.77999c-2.14338,-0.12225 -3.17637,-1.58961 -3.17241,-2.9024c0.00233,-0.77222 0.01634,-2.52801 3.36116,-2.98201z" fill="#ffffff" stroke="none" stroke-width="0" stroke-linecap="butt"/><path d="M238.48603,184.29966l0.38303,0.4153" fill="none" stroke="#808080" stroke-width="0.5" stroke-linecap="round"/><path d="M240.43146,183.97852l-0.0477,-0.46838" fill="none" stroke="#808080" stroke-width="0.5" stroke-linecap="round"/><path d="M242.37959,183.59078l-0.23454,0.85679" fill="none" stroke="#808080" stroke-width="0.5" stroke-linecap="round"/><path d="M243.70138,185.51l0.2903,-0.58799" fill="none" stroke="#808080" stroke-width="0.5" stroke-linecap="round"/></g><g data-paper-data="{&quot;index&quot;:null}"><g><path d="M250.92426,186.18191c0.56271,0.40449 0.72723,1.98241 0.64806,2.78388c-0.07916,0.80149 -0.97186,4.9765 -2.46572,5.73361c-0.38236,0.23792 -1.71029,-1.15538 -2.29676,-3.99993c-0.47184,-2.28858 -0.0479,-4.59037 0.15585,-4.76907c0.74689,-0.65514 3.39585,-0.15298 3.95856,0.25151z" fill="#f72526" stroke="none" stroke-width="0" stroke-linecap="butt"/><path d="M251.20532,190.66794c0,0 -1.35038,-0.18082 -2.16294,-0.07411c-0.81256,0.10671 -2.07174,0.65622 -2.07174,0.65622c0,0 -0.139,-0.39571 -0.23033,-0.92308c-0.09134,-0.52738 -0.10767,-1.4436 -0.10767,-1.4436c0,0 1.28812,-0.40448 2.32178,-0.35156c1.03368,0.05291 2.58277,0.60263 2.58277,0.60263c0,0 -0.14225,0.80171 -0.18715,1.00918c-0.0449,0.20747 -0.1447,0.52432 -0.1447,0.52432z" fill="#ffffff" stroke="none" stroke-width="0" stroke-linecap="butt"/><path d="M248.92889,194.60723c0,0 -0.95901,-2.19315 -1.31124,-3.81286c-0.35223,-1.61971 -0.45649,-4.22271 -0.45649,-4.22271" fill="none" stroke="#000000" stroke-width="0.25" stroke-linecap="round"/><path d="M247.4572,186.80787l-0.43946,0.10704" fill="none" stroke="#808080" stroke-width="0.5" stroke-linecap="round"/><path d="M247.09361,188.23827l0.5764,-0.12945" fill="none" stroke="#808080" stroke-width="0.5" stroke-linecap="round"/><path d="M247.77317,191.74773l0.4681,-0.14688" fill="none" stroke="#808080" stroke-width="0.5" stroke-linecap="round"/><path d="M248.76654,193.30771l-0.50793,0.11824" fill="none" stroke="#808080" stroke-width="0.5" stroke-linecap="round"/><path d="M247.13566,189.91525l0.68934,-0.16048" fill="none" stroke="#808080" stroke-width="0.5" stroke-linecap="round"/></g><path d="M244.2818,185.14815c0,0 -1.42686,-0.62718 -1.98881,-0.93337c-0.56196,-0.30619 -1.33289,-0.95523 -1.33289,-0.95523l1.46166,-0.3843c0,0 0.72615,0.50445 1.16541,0.80824c0.43927,0.30379 1.20887,0.83606 1.20887,0.83606z" fill="#f8b820" stroke="none" stroke-width="0" stroke-linecap="butt"/><path d="M246.22312,184.97284c0.50114,0.27004 1.44975,0.71111 1.2375,1.23461c-0.22663,0.55898 -1.40411,-0.05257 -1.91619,-0.30124c-0.95636,-0.46442 -1.4191,-0.65065 -1.1551,-1.14058c0.20022,-0.37156 1.33265,-0.06283 1.83379,0.20721z" fill="#ffffff" stroke="none" stroke-width="0" stroke-linecap="butt"/></g><g data-paper-data="{&quot;index&quot;:null}"><path d="M241.47514,181.09942c-0.48907,2.8635 -6.11655,3.19236 -8.90037,2.67046c-2.36466,-0.44332 -3.6913,-7.69193 -0.29889,-10.03591c1.31725,-0.91016 2.06248,-1.25382 4.4467,-0.90197c2.44736,0.36116 5.49304,3.932 4.75256,8.26743z" fill="#f8b820" stroke="none" stroke-width="0" stroke-linecap="butt"/><path d="M240.79797,181.43261c-0.28575,1.88083 -3.19019,3.91479 -5.57701,3.51229c-1.29677,-0.21868 -2.62218,-0.53993 -3.32458,-1.90556c-0.21524,-0.43063 1.5899,-2.33231 2.8441,-2.72779c2.95154,-0.93069 6.15569,0.47467 6.05748,1.12106z" fill="#ffffff" stroke="none" stroke-width="0" stroke-linecap="butt"/><path d="M240.61539,176.02065c-0.22361,-0.19571 -1.03807,-1.30563 -1.83011,-1.87211c-0.79203,-0.56647 -2.13013,-1.23131 -2.13013,-1.23131c0,0 0.49538,-1.22747 1.09811,-1.68309c0.60274,-0.45563 1.69922,-0.8778 2.07187,-0.71317c2.4755,1.09369 1.10686,5.77679 0.79026,5.49969z" fill="#ffffff" stroke="none" stroke-width="0" stroke-linecap="butt"/><path d="M232.20627,173.85954c0,0 -1.01598,1.10149 -1.25438,2.37314c-0.2384,1.27165 -0.47781,2.78856 -0.47781,2.78856c0,0 -1.0012,-0.91366 -1.64424,-2.05694c-0.58261,-1.03584 -0.74809,-2.35116 -0.08005,-2.89832c1.66219,-1.36141 3.45648,-0.20644 3.45648,-0.20644z" fill="#ffffff" stroke="none" stroke-width="0" stroke-linecap="butt"/><g stroke="none" stroke-width="0" stroke-linecap="butt"><path d="M233.81007,179.5811c-0.32211,0.93511 -1.27293,1.44156 -2.12369,1.1312c-0.85077,-0.31036 -1.27932,-1.32001 -0.9572,-2.25511c0.32211,-0.93511 1.27291,-1.44157 2.12368,-1.1312c0.85077,0.31036 1.27933,1.32001 0.95721,2.25512z" fill="#ffffff"/><path d="M231.47012,179.12021c-0.02171,-0.51232 0.29694,-1.03807 0.74521,-1.05707c0.44828,-0.01901 0.85644,0.47595 0.87815,0.98826c0.02171,0.51233 -0.3241,0.94305 -0.77237,0.96205c-0.44828,0.01901 -0.82929,-0.38092 -0.851,-0.89323z" fill="#000000"/></g><g stroke="none" stroke-width="0" stroke-linecap="butt"><path d="M239.17775,177.58932c0.17727,1.11477 -0.34491,2.12434 -1.16631,2.25497c-0.82141,0.13062 -1.63099,-0.66719 -1.80826,-1.78195c-0.17727,-1.11477 0.3449,-2.12435 1.16631,-2.25497c0.82141,-0.13062 1.63099,0.66719 1.80826,1.78195z" fill="#ffffff"/><path d="M236.85478,177.97919c-0.02171,-0.51232 0.29694,-1.03807 0.74521,-1.05707c0.44828,-0.01901 0.85644,0.47595 0.87815,0.98826c0.02171,0.51233 -0.3241,0.94305 -0.77237,0.96205c-0.44828,0.01901 -0.82929,-0.38092 -0.851,-0.89323z" fill="#000000"/></g><path d="M236.61452,177.4517l-2.3661,-2.03308c0,0 -0.1957,1.01285 -0.3648,1.59047c-0.1691,0.57763 -0.4986,1.35884 -0.4986,1.35884c0,0 -1.12352,-1.2572 -1.22196,-1.70225c-0.12189,-0.55106 0.08397,-1.58429 0.08397,-1.58429l3.85154,-0.87439c0,0 0.74939,0.46226 0.84311,1.25984c0.06762,0.57545 -0.32714,1.98484 -0.32714,1.98484z" fill="#f8b820" stroke="none" stroke-width="0" stroke-linecap="butt"/><g stroke="none" stroke-width="0" stroke-linecap="butt"><path d="M235.59452,180.49368c0.55185,0.10346 1.12386,0.17074 1.08043,0.52203c-0.06956,0.56258 -0.68847,0.73461 -1.2428,0.82381c-0.7745,0.12463 -1.19328,0.00747 -1.21145,-0.34603c-0.03876,-0.75433 0.82197,-1.10328 1.37382,-0.99982z" fill="#71716f"/><path d="M235.64392,181.42949c-0.96052,-0.00018 -1.24748,-0.54218 -1.24748,-0.54218c0,0 0.57785,-0.4866 0.91712,-0.59886c0.33927,-0.11226 0.62148,-0.14838 0.90537,-0.00709c0.28389,0.14129 0.49272,0.39708 0.40919,0.66133c-0.14529,0.4596 -0.34951,0.48693 -0.9842,0.4868z" fill="#010101"/><path d="M235.09136,181.25846c-0.02924,0.15596 -0.17937,0.25869 -0.33533,0.22945c-0.15595,-0.02924 -0.25868,-0.17936 -0.22944,-0.33532c0.02924,-0.15595 0.17936,-0.25868 0.33532,-0.22944c0.15596,0.02924 0.25869,0.17937 0.22945,0.33533z" fill="#ffffff"/></g><g data-paper-data="{&quot;index&quot;:null}"><path d="M233.83236,175.01087c0,0 -0.82763,-1.48305 -1.63432,-2.25119c-0.80669,-0.76814 -1.88165,-0.67342 -1.88165,-0.67342l-0.05957,-0.65899c0,0 1.54826,0.0627 2.39924,0.86827c0.85098,0.80557 1.71331,2.46577 1.71331,2.46577z" fill="#767578" stroke="none" stroke-width="0" stroke-linecap="butt"/><path d="M228.63464,173.50576l-3.68655,-0.74529l3.06742,-2.56427l2.93539,1.35193z" fill="#ea035a" stroke="none" stroke-width="0" stroke-linecap="butt"/><path d="M225.01901,172.65968c0,0 5.01772,-0.95159 5.75668,-1.08089c0.18808,-0.03291 -0.27329,0.4051 -0.27329,0.4051" fill="none" stroke="#000000" stroke-width="0.25" stroke-linecap="round"/><path d="M227.99349,170.08977l1.4807,1.73303l-0.86245,1.69115" fill="none" stroke="#000000" stroke-width="0.25" stroke-linecap="round"/></g></g><g><path d="M239.10574,186.21986c0.03823,1.01656 -0.05737,2.60701 -0.05737,2.60701l-0.75748,0.4034c0,0 -0.08545,-2.44375 -0.1157,-3.3429c-0.02808,-0.83478 0.02496,-1.53427 0.02496,-1.53427l0.68166,-0.29493c0,0 0.18571,1.14512 0.22393,2.16168z" fill="#f8b820" stroke="none" stroke-width="0" stroke-linecap="butt"/><g><path d="M237.01525,190.69525c0.4713,-1.68431 1.78025,-2.7215 2.12706,-2.77583c1.05929,-0.16593 2.82401,1.86195 2.09828,3.85805c-0.59918,1.648 -1.07454,2.66747 -2.38456,2.99716c-0.47285,0.12494 -2.49187,-1.75261 -1.84078,-4.07939z" fill="#ffffff" stroke="none" stroke-width="0" stroke-linecap="butt"/><path d="M239.9722,188.9201l-0.95305,0.33585" fill="none" stroke="#808080" stroke-width="0.5" stroke-linecap="round"/><path d="M240.41488,190.39967l-0.76387,0.23115" fill="none" stroke="#808080" stroke-width="0.5" stroke-linecap="round"/><path d="M239.79384,191.84514l0.76744,-0.13733" fill="none" stroke="#808080" stroke-width="0.5" stroke-linecap="round"/><path d="M239.7475,193.16418l0.57826,-0.03262" fill="none" stroke="#808080" stroke-width="0.5" stroke-linecap="round"/><path d="M239.07264,188.1246c0,0 0.89728,1.59941 1.1267,2.71815c0.22942,1.11874 -0.23765,2.87351 -0.23765,2.87351" fill="none" stroke="#020202" stroke-width="0.25" stroke-linecap="round"/></g></g></g></g></svg>