<svg version="1.1" xmlns="http://www.w3.org/2000/svg" xmlns:xlink="http://www.w3.org/1999/xlink" width="29.13454" height="38.46306" viewBox="0,0,29.13454,38.46306"><g transform="translate(-225.09903,-162.44177)"><g data-paper-data="{&quot;isPaintingLayer&quot;:true}" fill-rule="nonzero" stroke="none" stroke-linecap="butt" stroke-linejoin="miter" stroke-miterlimit="10" stroke-dasharray="" stroke-dashoffset="0" style="mix-blend-mode: normal"><path d="M244.25664,174.6852l0.17113,5.12718l2.3758,2.64768c0,0 -4.22473,-0.27772 -6.13288,-1.86112c-1.7273,-1.43332 -1.77608,-3.85835 -1.77608,-3.85835z" data-paper-data="{&quot;index&quot;:null}" fill="#2095ad" stroke-width="0"/><g data-paper-data="{&quot;index&quot;:null}" stroke-width="0.17188"><path d="M246.75036,178.8722c-1.45372,0.10173 -3.62389,-0.33057 -4.4516,-0.62068c-0.82771,-0.29011 -2.19295,-1.13821 -1.89826,-1.43058c0.29467,-0.29251 2.52586,-0.14937 4.08439,-0.20407c0.98503,-0.03442 2.18052,-0.08926 3.09513,0.16714c0.60091,0.16868 1.26846,1.00824 1.28562,1.51203c0.01428,0.38994 -1.63463,0.54246 -2.11525,0.57616z" data-paper-data="{&quot;index&quot;:null}" fill="#09649e"/><path d="M248.85454,178.2787c0.00696,-0.00751 0.20837,-0.7211 0.21512,-0.9491c0.01155,-0.38365 -0.16917,-0.15106 -0.00412,-0.59512c0.12242,-0.32931 0.69381,0.21102 1.6923,0.16556c0.23307,-0.01061 1.69529,-0.08764 1.7831,-0.00646c0.2967,0.09328 0.96694,-0.0094 1.00596,0.36291c0.03902,0.37232 -0.84025,0.09824 -0.84025,0.09824c0,0 1.23162,-0.01331 1.15361,0.36346c-0.12564,0.3402 -1.1907,-0.03524 -1.2964,-0.02247c-0.23929,0.02892 1.10461,0.42687 0.86215,0.64594c-0.27949,0.25251 -1.74038,-0.6158 -2.56998,0.13991c-0.69337,0.44098 1.3109,0.17149 1.35876,0.69067c-0.6733,0.34227 -1.31768,0.39772 -2.68514,0.01377c-0.25752,-0.12093 -0.56903,-0.03172 -0.71258,-0.15868c-0.12717,-0.12013 -0.27276,-0.42032 0.03748,-0.7486z" fill="#ebd9bb"/><path d="M247.40751,179.21098c-0.23945,-0.1926 0.1914,-1.70623 0.1914,-1.70623c0.09648,-0.2874 -0.08328,-1.01359 0.0822,-0.78712c0.03315,0.04534 -0.24381,-0.05118 -0.06726,-0.17739c0.11613,-0.08281 0.64175,-0.05669 0.80912,-0.10504c0.38656,-0.11172 0.90824,0.0256 1.29849,0.03011c0.36729,0.00433 0.40978,0.35724 0.51464,0.50061c0.15183,0.20712 0.0804,0.48478 -0.2434,0.86975c-0.39383,0.46819 -0.57462,0.92226 -0.58304,0.95414c0,0 -0.0963,0.39574 0.05539,0.48712c-0.49489,-0.28669 -1.58523,0.27047 -2.05753,-0.06596z" fill="#ecc51e"/></g><path d="M231.74531,184.24729c0,0 1.6086,-3.19705 1.6086,-4.82579c0,-0.87109 -1.14169,-3.96796 -1.19876,-7.24271c-0.04968,-2.84835 1.38564,-6.87721 2.44989,-6.87721c1.13519,0 1.08773,8.21611 1.17656,9.8424c0.50549,7.87617 -4.03629,9.10331 -4.03629,9.10331z" data-paper-data="{&quot;index&quot;:null}" fill="#2095ad" stroke-width="0"/><path d="M239.2355,176.53409c0.38847,3.5098 -2.8431,7.80272 -2.8431,7.80272c0,0 -1.3405,-1.18701 -0.89367,-6.30033c0.07949,-0.90963 0.29878,-5.22794 0.44683,-5.22794c0.09922,0 0.3685,1.7368 1.31117,2.84995c0.46417,0.54811 1.90402,0.20033 1.97876,0.87562z" data-paper-data="{&quot;index&quot;:null}" fill="#0d4d58" stroke-width="0"/><path d="M241.26863,200.78319c-1.50915,-1.13004 -1.37984,-5.27591 -1.37984,-5.27591c-0.00982,-0.60768 0.1725,-1.11732 0.42926,-1.60156c0.22362,-0.42173 0.50371,-0.82422 0.76252,-1.25544c0.556,-0.92637 0.9614,0.69081 0.9614,0.69081c0,0 0.72657,2.30107 0.59036,3.56665c0.01905,1.09382 -0.26123,4.70097 -1.36369,3.87546z" data-paper-data="{&quot;index&quot;:null}" fill="#09649e" stroke-width="0"/><path d="M234.44745,192.89544c0.37393,-0.42927 0.81693,-0.67197 1.29459,-0.85116c0.416,-0.15606 0.8583,-0.26394 1.30415,-0.40495c0.95778,-0.30291 0.22026,1.07296 0.22026,1.07296c0,0 -0.94774,2.04988 -1.83289,2.84744c-0.67212,0.77352 -3.12168,3.11321 -3.35337,1.85959c-0.31716,-1.71606 2.36726,-4.52388 2.36726,-4.52388z" data-paper-data="{&quot;index&quot;:null}" fill="#09649e" stroke-width="0"/><path d="M239.51215,189.90606c0,0 -2.46865,3.0919 -3.31588,4.03128c-0.57313,0.63547 -1.44867,1.68864 -1.44867,1.68864c-0.27961,0.22699 -1.46397,0.56239 -1.23806,-0.21381c0.17759,-0.6102 1.75364,-2.35327 1.75364,-2.35327c0,0 2.39534,-2.8861 2.77051,-3.41444c1.23464,-1.62972 2.299,-5.05179 2.299,-5.05179l1.51468,0.32957l-2.33521,4.98381z" data-paper-data="{&quot;index&quot;:null}" fill="#ffffff" stroke-width="0"/><path d="M242.0616,189.49906c0,0 0.04338,3.46688 0.11182,4.58937c0.05626,0.92272 0.34279,2.32176 0.20395,2.90773c-0.13883,0.58597 -0.60355,1.21133 -1.03567,0.5281c-0.33971,-0.5371 -0.31522,-3.13721 -0.31522,-3.13721c0,0 -0.06572,-4.24212 -0.21325,-4.87309c-0.40384,-2.00428 -1.87246,-4.64247 -1.87246,-4.64247l1.24987,-0.9169l1.87096,5.54448z" data-paper-data="{&quot;index&quot;:null}" fill="#ffffff" stroke-width="0"/><g data-paper-data="{&quot;index&quot;:null}" stroke-width="0"><path d="M225.09905,186.03812c0,0 0.22568,-4.3828 5.05716,-5.57964c0.91478,-0.2266 -2.51228,2.25796 -2.03837,3.2599c0.47385,1.00181 5.24489,1.38408 5.24489,1.38408c0,0 -4.31893,-0.01595 -5.44509,0.16794c-1.12616,0.18389 -2.81861,0.76772 -2.81861,0.76772z" fill="#2095ad"/><path d="M241.41936,180.20565c0,0 -5.68875,4.41331 -7.99023,4.76691c-2.12477,0.32645 -6.91615,-0.91377 -6.18308,-2.31591c0.73307,-1.40214 4.08702,-3.04428 7.35585,-2.93019c1.2137,0.04236 2.71525,0.14361 3.99996,0.24217c1.57084,0.12051 2.81751,0.23703 2.81751,0.23703z" fill="#ffffff"/></g><g data-paper-data="{&quot;index&quot;:null}" stroke-width="0"><path d="M244.78241,183.8525c0,0 7.86791,0.89479 8.11272,0.80156c0.24481,-0.09323 0.52164,0.52103 0.79092,1.171c0.26928,0.64996 0.54752,2.19855 0.54752,2.19855c0,0 -0.1403,-0.58987 -1.53733,-1.06179c-0.82681,-0.27932 -2.3733,-0.54134 -3.50382,-0.94025c-2.05098,-0.72371 -4.41001,-2.16906 -4.41001,-2.16906z" fill="#2095ad"/><path d="M246.37562,184.58266c-5.73774,-2.2627 -6.24617,-5.06737 -6.24617,-5.06737c0,0 -0.34809,-0.37391 1.61501,0.45922c0.67516,0.28654 2.38677,-0.54312 5.94012,0.53826c4.54633,1.38358 5.6697,4.52116 5.6697,4.52116c0,0 -2.8488,1.17735 -6.97866,-0.45127z" fill="#ffffff"/></g><g data-paper-data="{&quot;index&quot;:null}" stroke-width="0"><path d="M237.29205,189.38681c0,0 -1.84406,2.15288 -3.68194,2.64927c-2.21226,0.5975 -5.36471,2.18267 -5.36471,2.18267c0,0 0.84948,-5.09641 1.76567,-7.05531c1.58229,-3.3941 3.36839,-3.85735 3.36839,-3.85735c0,0 -2.01894,4.46225 -1.30653,5.72304c0.70201,1.24239 5.21911,0.35767 5.21911,0.35767z" fill="#2095ad"/><path d="M233.24706,183.24884c0.18178,-0.13939 2.90446,-2.03246 4.98423,-1.88355c2.76032,0.19766 2.76813,-1.3763 3.30315,-0.16716c0.53502,1.20914 0.62119,3.82487 -1.00152,5.43018c-1.35065,1.33619 -3.28193,2.78722 -3.28193,2.78722c0,0 -4.72198,1.67291 -5.54505,-0.29297c-0.87663,-2.24384 1.35147,-5.72829 1.54113,-5.87373z" fill="#ffffff"/></g><g data-paper-data="{&quot;index&quot;:null}" stroke-width="0"><path d="M248.84644,194.47991c0,0 -0.86292,-1.56494 -2.0676,-2.60043c-1.20467,-1.03548 -4.74547,-2.88986 -4.74547,-2.88986l5.98623,-4.00151c0,0 1.62561,2.33773 2.14174,4.18051c0.68274,2.43761 -1.31489,5.31131 -1.31489,5.31131z" fill="#2095ad"/><path d="M248.45801,189.93837c-1.47781,1.40397 -7.29258,-0.74269 -9.08715,-2.96296c-1.91825,-2.3733 -1.03111,-7.04718 -1.03111,-7.04718l1.15141,-0.44143c0,0 1.16868,1.4995 3.30357,2.20055c3.84896,0.95603 4.48866,2.52591 5.22489,3.30071c0.74183,0.78068 1.97575,3.48981 0.43841,4.95032z" fill="#ffffff"/></g><path d="M242.3044,179.96514c0,0 -0.02346,0.43954 -0.07684,0.86704c-0.05338,0.4275 -0.37942,1.03668 -0.37942,1.03668l0.19117,0.42534l-0.32294,0.64977l-0.82569,-0.13621l-0.2055,-0.42909c0,0 -0.92439,-0.32159 -1.55609,-0.65983c-0.6317,-0.33824 -1.52889,-1.83374 -1.52889,-1.83374l0.51105,0.03953c0,0 1.05265,1.32577 1.33251,1.46916c0.27986,0.14338 0.97,0.35074 0.97,0.35074l1.17875,-0.54962c0,0 0.14108,-0.30031 0.19274,-0.55429c0.05165,-0.25397 0.05461,-0.66185 0.05461,-0.66185z" data-paper-data="{&quot;index&quot;:null}" fill="#eec522" stroke-width="0"/><path d="M240.50335,176.64194c0.57293,0 1.04707,1.66348 1.04707,1.66348c0.07191,0.27088 -0.12211,0.78707 -0.13155,1.27342c-0.00788,0.40586 0.1735,0.81523 0.1735,0.81523l-0.11055,-0.14195c0,0 -0.85417,-0.71627 -1.08002,-0.67774c-0.11273,0.01923 -0.55348,-0.05417 -0.55348,-0.05417c0,0 -0.35911,0.22575 -0.53861,0.31464c-0.27707,0.13721 -0.96219,0.42856 -0.96219,0.42856c0,0 0.15254,-0.40899 0.19368,-0.59337c-0.03908,-1.469 -0.50943,-2.42213 0.40456,-3.01343c0.28535,-0.16851 1.28507,-0.01468 1.55758,-0.01468z" data-paper-data="{&quot;index&quot;:null}" fill="#09649e" stroke-width="0"/><g data-paper-data="{&quot;index&quot;:null}" stroke-width="0.17188"><path d="M232.36515,178.5923c-0.47787,-0.06146 -2.11518,-0.30916 -2.07836,-0.69762c0.04629,-0.50195 0.76131,-1.30147 1.37097,-1.43508c0.92792,-0.20304 2.11823,-0.07909 3.09961,0.01228c1.55275,0.14481 3.78849,0.13105 4.06573,0.44012c0.27728,0.30894 -1.13477,1.0766 -1.97788,1.31832c-0.84311,0.24172 -3.03467,0.54768 -4.48007,0.36199z" data-paper-data="{&quot;index&quot;:null}" fill="#09649e"/><path d="M230.29885,177.878c0.29072,0.34568 0.128,0.63694 -0.00591,0.74951c-0.15066,0.11844 -0.45648,0.01135 -0.72057,0.11717c-1.38739,0.30416 -2.02748,0.21151 -2.67984,-0.16916c0.07783,-0.51554 2.06314,-0.1305 1.39645,-0.61087c-0.78447,-0.80246 -2.29317,-0.02015 -2.55758,-0.28842c-0.22937,-0.23273 1.1353,-0.55224 0.89809,-0.59495c-0.10478,-0.01887 -1.18979,0.2943 -1.29553,-0.0526c-0.05608,-0.38065 1.17271,-0.29608 1.17271,-0.29608c0,0 -0.89366,0.22273 -0.83316,-0.14671c0.0605,-0.36943 0.72367,-0.22813 1.02528,-0.30408c0.09236,-0.07596 1.54768,0.08557 1.77974,0.10965c0.99418,0.10318 1.59589,-0.40318 1.69905,-0.06734c0.13907,0.45287 -0.02788,0.21021 -0.03856,0.59388c-0.00646,0.22801 0.15332,0.95206 0.15983,0.95996z" data-paper-data="{&quot;index&quot;:null}" fill="#ebd9bb"/><path d="M231.6895,178.89253c-0.49098,0.30853 -1.54724,-0.3108 -2.0579,-0.05324c0.15673,-0.08245 0.08349,-0.48309 0.08349,-0.48309c-0.00656,-0.03231 -0.16077,-0.49609 -0.52684,-0.98628c-0.30097,-0.40306 -0.35621,-0.68439 -0.19266,-0.88238c0.11298,-0.13706 0.17582,-0.48692 0.54275,-0.46999c0.38985,0.01808 0.91861,-0.08881 1.29805,0.04509c0.16429,0.05795 0.69054,0.0623 0.80169,0.15169c0.16895,0.13622 -0.11313,0.21654 -0.07742,0.1732c0.17832,-0.21652 -0.04318,0.49806 0.03651,0.79055c0,0 0.34252,1.53603 0.09233,1.71445z" data-paper-data="{&quot;index&quot;:null}" fill="#ecc51e"/></g><g data-paper-data="{&quot;index&quot;:null}" stroke-width="0"><path d="M244.91659,167.96582c0,0.07763 -0.40472,0.14056 -1.24531,0.14056c-0.84059,0 -2.7212,-2.59261 -2.7212,-2.67021c0,-0.0776 1.63762,0.26606 2.47821,0.26606c0.38175,0 -0.0542,0.78107 0.3999,1.26667c0.54577,0.58359 1.08838,0.9546 1.08838,0.99697z" fill="#72878d"/><path d="M235.85619,169.45706c0,0 -0.02175,2.57971 0.08281,4.06033c0.15671,2.21903 0.76618,7.95946 0.76618,7.95946c0,0 -3.19417,-4.93273 -3.61935,-8.08767c-0.39063,-2.89863 0.35843,-6.4777 0.35843,-6.4777c0,0 1.79533,-3.8199 4.34968,-2.87289c0.4857,0.18006 0.33835,1.60663 0.33835,1.60663l-1.48483,0.52189z" fill="#2095ad"/><path d="M238.35843,163.33541c0,0 -1.65241,0.18649 -2.27886,0.62558c-0.29463,0.20651 -2.16296,1.20771 -2.13487,1.0111c0.32262,-2.2578 2.53701,-2.26224 2.53701,-2.26224c0,0 0.08397,-0.26808 0.84899,-0.26808c0.76502,0 1.02773,0.89367 1.02773,0.89367z" fill="#dceef3"/><path d="M241.84371,163.96095c0,0.24679 -1.05637,0.08937 -1.69797,0.08937c-0.6416,0 -1.34048,-0.71492 -1.34048,-0.71492c0,0 -0.06128,-0.68381 0.61182,-0.64617c1.02384,0.05727 2.42667,1.02497 2.42667,1.27176z" fill="#dceef3"/><path d="M240.59259,164.09506c0,0.51826 -1.00962,0.75961 -2.14477,0.75961c-1.13519,0 -2.05544,-0.24138 -2.05544,-0.75961c0,-0.51825 0.92025,-0.84898 2.05544,-0.84898c1.13518,0 2.14477,0.33072 2.14477,0.84898z" fill="#e8d548"/><path d="M237.82544,165.20157c0,0.3768 -0.53048,0.17955 -1.18489,0.17955c-0.65441,0 -0.96947,0.34089 -0.96947,-0.03591c0,-0.3768 0.35338,-1.02876 1.00779,-1.02876c0.65438,0 1.14658,0.50832 1.14658,0.88512z" fill="#72878d"/><path d="M245.5078,167.4016c0,0 -2.03465,-2.63151 -3.39475,-3.23824c-0.53055,-0.23669 -2.24696,0.61146 -1.87788,0.02104c0.06186,-0.09899 1.21751,-0.9658 1.87996,-0.89615c1.07963,0.00727 1.51595,0.494 1.51595,0.494c0,0 0.90576,-0.18437 1.63555,0.69209c0.91053,1.09356 0.24113,2.92726 0.24113,2.92726z" fill="#dceef3"/><path d="M244.97155,168.07196l-1.75054,-1.49516c0,0 -0.40176,-1.01641 0.18113,-1.01641c0.58286,0 1.56941,2.5116 1.56941,2.5116z" fill="#dceef3"/><path d="M244.79285,170.6636c0,0 0.09153,3.44657 -0.38397,5.40144c-0.4755,1.95487 -2.02892,4.51823 -2.02892,4.51823c0,0 -0.08938,-3.01013 -0.08938,-6.6131c0,-3.60297 -1.69794,-8.40045 -1.69794,-8.40045c0,0 1.66191,0.01184 2.25133,0.34173c0.76671,0.42914 1.94891,4.75215 1.94891,4.75215z" fill="#2095ad"/><path d="M244.15916,172.86243c-0.14687,3.07172 -3.3417,3.93129 -4.85887,3.91243c-2.52338,-0.03138 -5.10086,-1.1581 -5.0527,-4.0076c0.03919,-2.31937 2.24061,-4.20021 5.00454,-4.20021c2.76393,0 5.35673,1.9284 4.90703,4.29538z" fill="#ecdebd"/><path d="M237.71211,173.90555c-0.1986,0.01557 -0.48753,-0.10247 -0.48753,-0.10247c0,0 -0.30566,-0.80404 -0.07554,-1.2234c0.23013,-0.41936 0.29814,-0.87299 0.87772,-0.90455c0.57958,-0.03154 1.06118,0.42206 1.43975,1.09674c0.242,0.43133 0.09141,0.8484 0.09141,0.8484c0,0 -1.43491,0.2531 -1.84581,0.28527z" fill="#000000"/><path d="M239.68995,173.9133c0,0 -0.56858,0.10102 -1.26996,0.10102c-0.70138,0 -1.11843,-0.19242 -1.11843,-0.19242c0,0 -0.28581,-1.97591 1.04147,-1.71731c1.37416,0.23434 1.34691,1.80871 1.34691,1.80871z" fill="#eaeee9"/><path d="M231.34315,168.60808c0,0 0.11022,-1.2447 0.30673,-1.85214c0.1965,-0.60744 0.67632,-1.18631 0.67632,-1.18631l0.40215,1.29582z" fill="#dceef1"/><path d="M244.18875,165.90805c0,0.03967 -1.31709,-0.31152 -2.09047,-0.31152c-0.77338,0 -2.19027,-0.60666 -2.19027,-0.64633c0,-0.03967 0.69878,-0.93357 1.75942,-0.93357c1.06061,0 2.52131,1.85175 2.52131,1.89142z" fill="#72878d"/><path d="M231.25847,168.7562c0,0 0.55976,-0.73295 0.79755,-1.06319c0.23779,-0.33024 0.74256,-1.04147 0.74256,-1.04147c0,0 0.35907,0.38433 0.35907,0.91977c0,0.53541 -1.89918,1.18489 -1.89918,1.18489z" fill="#72878d"/><path d="M243.83615,172.35116c0.04176,1.15195 -0.34981,1.2234 -0.34981,1.2234l-0.91662,-0.25428c0,0 -0.34083,-0.29084 -0.19345,-0.83509c0.13901,-0.51337 0.57498,-0.96249 0.85632,-0.94718c0.57961,0.03156 0.58491,0.29962 0.60354,0.81315z" data-paper-data="{&quot;index&quot;:null}" fill="#000000"/><path d="M242.59653,173.70269c0,0 -0.23348,-0.92297 -0.08906,-1.42457c0.22153,-0.76943 0.62903,-0.98102 1.03877,-0.47486c0.4097,0.50615 -0.0297,1.78074 -0.0297,1.78074z" fill="#eaeee9"/><g><path d="M243.13441,173.80895c-0.31534,0 -0.57097,-0.42963 -0.57097,-0.95966c0,-0.53 0.25563,-0.95965 0.57097,-0.95965c0.31534,0 0.57096,0.42962 0.57096,0.95965c0,0.53 -0.25562,0.95966 -0.57096,0.95966z" fill="#a77baf"/><path d="M243.34853,172.84924c0,0.25239 -0.10652,0.45697 -0.23791,0.45697c-0.13139,0 -0.23791,-0.20458 -0.23791,-0.45697c0,-0.25239 0.10649,-0.45697 0.23791,-0.45697c0.13139,0 0.23791,0.20458 0.23791,0.45697z" fill="#000000"/><path d="M243.20578,172.62073c0,0.17665 -0.0799,0.31988 -0.17843,0.31988c-0.09853,0 -0.17842,-0.14322 -0.17842,-0.31988c0,-0.17665 0.07989,-0.31988 0.17842,-0.31988c0.09854,0 0.17843,0.14322 0.17843,0.31988z" fill="#ffffff"/></g><path d="M244.77306,172.39666c0,0 -0.01602,-0.23183 -0.6406,-0.6185c-0.71364,-0.44181 -1.58222,1.30576 -1.58222,1.30576l-0.34305,-0.78596c0,0 -0.29251,0.96869 -0.55899,1.06878c-0.39652,0.14895 -1.55343,-0.7702 -2.56591,-1.02677c-0.88595,-0.22449 -3.32703,-0.14033 -3.32703,-0.14033c0,0 -1.10746,-4.58456 0.53379,-5.2494c0.87363,-0.35389 1.26986,-1.30666 3.10904,-0.9012c1.8392,0.40547 3.78879,1.4266 4.5855,2.59753c0.7967,1.17093 0.7895,3.7501 0.7895,3.7501z" fill="#2195ab"/><path d="M235.2395,166.02325c-1.23971,1.32317 -2.24299,1.24429 -2.24299,1.24429c0,0 -0.30901,-0.37847 -0.5799,-0.96278c-0.18872,-0.4071 -0.35897,-0.96008 -0.39336,-1.36142c-0.03765,-0.43908 0.84158,-1.02074 1.36312,-1.15503c0.63945,-0.16466 0.95061,0.17266 0.95061,0.17266c0,0 0.98257,-0.46923 1.46505,-0.41753c0.48249,0.05173 1.34659,0.80939 1.34659,0.80939c0,0 -0.81425,0.10369 -1.20018,0.56825c-0.20271,0.24403 -0.44414,0.81959 -0.70894,1.10222z" fill="#dceef3"/><path d="M236.89696,165.93143c0,0 1.75759,-0.26619 1.75759,-0.04816c0,0.10082 -0.84493,0.3861 -1.43497,0.81897c-0.68568,0.50304 -0.89483,0.77418 -0.89483,0.77418c0,0 0.02384,-0.72905 0.1257,-1.00409c0.10185,-0.27501 0.44648,-0.54091 0.44648,-0.54091z" data-paper-data="{&quot;index&quot;:null}" fill="#0b4754"/><path d="M240.97365,166.03131c0,-0.21803 1.94789,0.33832 1.94789,0.33832c0,0 0.25055,0.19786 0.3923,0.60741c0.14175,0.40951 0.27385,1.26879 0.27385,1.26879c0,0 -0.6426,-0.75276 -1.32828,-1.2558c-0.59003,-0.43287 -1.28575,-0.85793 -1.28575,-0.95875z" fill="#0b4754"/><path d="M242.2007,167.15804c0,0.62929 -0.3934,1.67565 -1.42988,1.67565c-1.03648,0 -1.88602,-0.46402 -2.59161,-1.31818c-0.11321,-0.13705 0.00212,-0.72239 -0.12621,-1.2503c-0.14281,-0.58733 -0.45892,-1.24235 -0.29218,-1.52855c0.32018,-0.32452 1.84828,-0.00353 1.84828,-0.00353c0,0 0.51111,-0.78436 1.00833,-0.23103c0.71386,0.79446 1.58331,2.28501 1.58331,2.65596z" fill="#dceef3"/><path d="M235.04091,175.9733l-0.09632,-4.52717l0.96322,0.43345l0.24081,4.19008z" fill="#2095ad"/><path d="M243.70109,172.75198c-0.01714,-0.06222 0.42181,-0.29023 0.8164,-0.54107c0.39456,-0.25084 0.95117,-0.72413 0.95117,-0.72413c0,0 -0.46373,0.6622 -0.78371,0.81968c-0.31998,0.15755 -0.94692,0.57936 -0.98385,0.44552z" data-paper-data="{&quot;index&quot;:null}" fill="#000000"/><g><path d="M238.83159,174.22086c-0.31534,0 -0.57097,-0.42963 -0.57097,-0.95966c0,-0.53 0.25563,-0.95965 0.57097,-0.95965c0.31534,0 0.57096,0.42962 0.57096,0.95965c0,0.53 -0.25562,0.95966 -0.57096,0.95966z" fill="#a77baf"/><path d="M239.04571,173.26122c0,0.25239 -0.10652,0.45697 -0.23791,0.45697c-0.13139,0 -0.23791,-0.20458 -0.23791,-0.45697c0,-0.25239 0.10649,-0.45697 0.23791,-0.45697c0.13139,0 0.23791,0.20458 0.23791,0.45697z" fill="#000000"/><path d="M238.90294,173.03264c0,0.17665 -0.07989,0.31988 -0.17842,0.31988c-0.09854,0 -0.17842,-0.14322 -0.17842,-0.31988c0,-0.17665 0.07989,-0.31988 0.17842,-0.31988c0.09853,0 0.17842,0.14322 0.17842,0.31988z" fill="#ffffff"/></g><path d="M241.72105,173.81829c-0.02258,-0.29232 0.7211,-0.65747 0.7211,-0.65747c0,0 0.09111,0.42138 0.18087,0.42888c0.24309,0.0203 0.91591,-0.0451 0.91591,-0.0451c0,0 -0.41448,0.65953 -0.84661,0.63073c-0.16913,-0.01125 -0.95676,-0.16909 -0.97127,-0.35704z" fill="#ecdebd"/><path d="M237.24567,174.39132l0.60988,-0.3812c0,0 0.48622,0.03812 0.72423,0.03812c0.23801,0 0.648,-0.07625 0.648,-0.07625l0.41933,0.4193z" fill="#ecdebd"/><path d="M239.34075,176.34978c-0.35689,0 -0.96996,-0.10298 -0.83178,-0.24026c0.1007,-0.16942 0.50224,0.08499 0.8367,0.08499c0.33446,0 0.7006,-0.19418 0.82685,-0.08499c0.24969,0.21594 -0.47488,0.24026 -0.83177,0.24026z" fill="#b1a37f"/><path d="M237.4206,174.40953c0,0.32925 -0.06743,0.38542 -0.06743,0.38542c0,0 -0.06744,-0.05617 -0.06744,-0.38542c0,-0.32925 -0.19868,-0.31516 0.06744,-0.31516c0.26612,0 0.06743,-0.01409 0.06743,0.31516z" fill="#d0bf96"/><path d="M243.60208,173.98805c0,0.32925 -0.06744,0.38539 -0.06744,0.38539c0,0 -0.06743,-0.05617 -0.06743,-0.38539c0,-0.32925 -0.19869,-0.31516 0.06743,-0.31516c0.26613,0 0.06744,-0.01409 0.06744,0.31516z" fill="#d0bf96"/><path d="M243.25088,174.12855c0,0.32925 -0.06743,0.38538 -0.06743,0.38538c0,0 -0.06744,-0.05616 -0.06744,-0.38538c0,-0.32925 -0.19868,-0.31516 0.06744,-0.31516c0.26612,0 0.06743,-0.01409 0.06743,0.31516z" fill="#d0bf96"/><path d="M237.77182,174.55002c0,0.32925 -0.06743,0.38539 -0.06743,0.38539c0,0 -0.06744,-0.05617 -0.06744,-0.38539c0,-0.32925 -0.19868,-0.31516 0.06744,-0.31516c0.26613,0 0.06743,-0.01409 0.06743,0.31516z" fill="#d0bf96"/><path d="M235.0623,175.5002c0,0 -0.96938,-0.8072 -1.15385,-2.15385c-0.18447,-1.34665 0.90351,-3.00911 1.15385,-3.38462c0.25033,-0.37551 1.07692,0.46154 1.07692,0.46154c0,0 -0.30801,1.01246 -0.45262,1.6942c-0.19757,0.93139 -0.62431,3.38272 -0.62431,3.38272z" fill="#2195ab"/></g><path d="M239.52478,179.68862c0,0 -0.31897,0.3679 -0.55402,0.46601c-0.23505,0.09811 -0.86424,0.08189 -0.86424,0.08189l0.37424,-0.36655c0,0 0.26093,-0.04291 0.47873,-0.07872c0.21779,-0.03581 0.53546,-0.40686 0.53546,-0.40686z" data-paper-data="{&quot;index&quot;:null}" fill="#2490a6" stroke-width="0"/><path d="M241.76209,180.36668c0,0 -0.6306,-0.13666 -0.81954,-0.24492c-0.18895,-0.10826 -0.39237,-0.54115 -0.39237,-0.54115l0.05232,-0.25088c0,0 0.29723,0.46898 0.4723,0.5085c0.17507,0.03952 0.1822,0.0996 0.1822,0.0996l0.50508,0.42884z" data-paper-data="{&quot;index&quot;:null}" fill="#2490a6" stroke-width="0"/><g data-paper-data="{&quot;index&quot;:null}"><path d="M239.80507,176.92613c0.17022,-0.06911 0.34154,0.07628 0.48084,0.36686c0.1393,0.29058 0.24674,0.72652 0.28893,1.23856c0.04223,0.51194 0.0113,1.00389 -0.07258,1.38519c-0.08398,0.38127 -0.22099,0.65174 -0.3912,0.72085c-0.17009,0.06905 -0.34142,-0.07634 -0.48082,-0.36696c-0.1393,-0.29058 -0.24663,-0.72649 -0.28883,-1.23853c-0.04223,-0.51194 -0.01141,-1.00393 0.07258,-1.38519c0.08388,-0.3813 0.221,-0.65174 0.39108,-0.72079z" fill="#5ed161" stroke-width="0.01872"/><g data-paper-data="{&quot;index&quot;:null}" fill="#21683c" stroke-width="0.01872"><path d="M239.87454,177.76842c0.09296,-0.03774 0.18652,0.04166 0.26259,0.20035c0.07607,0.15869 0.13475,0.39677 0.15779,0.6764c0.02306,0.27958 0.00617,0.54824 -0.03964,0.75647c-0.04586,0.20822 -0.12069,0.35593 -0.21364,0.39367c-0.09289,0.03771 -0.18645,-0.04169 -0.26258,-0.2004c-0.07607,-0.15869 -0.13468,-0.39675 -0.15773,-0.67638c-0.02306,-0.27958 -0.00623,-0.54826 0.03964,-0.75647c0.0458,-0.20823 0.12069,-0.35592 0.21357,-0.39363z"/></g><path d="M239.94981,177.68613c0.05928,-0.02185 0.12381,0.02812 0.18015,0.12655c0.05642,0.09845 0.10462,0.24537 0.13128,0.41732c0.02672,0.17197 0.02678,0.33664 0.0054,0.46381c-0.02141,0.12723 -0.06425,0.21692 -0.12352,0.23878c-0.05921,0.02196 -0.12374,-0.02808 -0.18015,-0.12654c-0.05642,-0.09846 -0.10462,-0.24537 -0.1313,-0.41725c-0.02665,-0.17195 -0.02675,-0.33673 -0.00537,-0.46388c0.02142,-0.12723 0.06423,-0.21685 0.12354,-0.23878z" fill="#ffffff" stroke-width="0.01896"/></g><path d="M237.25478,172.78135c0,0.13882 -0.92921,-0.1846 -1.27957,-0.25136c-0.35036,-0.06673 -1.00537,-0.52553 -1.00537,-0.52553c0,0 0.75054,0.28389 1.1976,0.42078c0.44709,0.13686 1.08734,0.29157 1.08734,0.35611z" data-paper-data="{&quot;index&quot;:null}" fill="#000000" stroke-width="0"/></g></g></svg>