<svg version="1.1" xmlns="http://www.w3.org/2000/svg" xmlns:xlink="http://www.w3.org/1999/xlink" width="7.23467" height="8.78497" viewBox="0,0,7.23467,8.78497"><g transform="translate(-236.38269,-175.60753)"><g data-paper-data="{&quot;isPaintingLayer&quot;:true}" fill="#ffd700" fill-rule="nonzero" stroke="none" stroke-width="0.26458" stroke-linecap="butt" stroke-linejoin="miter" stroke-miterlimit="4" stroke-dasharray="" stroke-dashoffset="0" style="mix-blend-mode: normal"><path d="M243.51399,175.60754l-0.62011,2.48047h-2.58381l-0.2067,0.41341c1.10243,0.2067 1.8948,0.51676 2.37711,0.93017c0.75792,0.55121 1.13688,1.24023 1.13688,2.06705c0,0.82682 -0.44786,1.51584 -1.34358,2.06705c-0.89572,0.55121 -1.9637,0.82682 -3.20393,0.82682c-0.89572,0 -1.44694,-0.10335 -1.65364,-0.31006l-1.03352,-2.27375c0.68902,0.2067 1.30913,0.31005 1.86034,0.31005c0.55121,0 0.98185,-0.0861 1.29191,-0.25838c0.31006,-0.17225 0.46509,-0.39618 0.46509,-0.67179c0,-0.34451 -0.24116,-0.63734 -0.72347,-0.87849c-0.48231,-0.24116 -1.10243,-0.36174 -1.86035,-0.36174c-0.27561,0 -0.62011,0.0345 -1.03352,0.10335l1.24023,-4.44416z"/></g></g></svg>