<svg version="1.1" xmlns="http://www.w3.org/2000/svg" xmlns:xlink="http://www.w3.org/1999/xlink" width="254.8964" height="207.32058" viewBox="0,0,254.8964,207.32058"><defs><radialGradient cx="196.09143" cy="274.60465" r="42.6576" gradientUnits="userSpaceOnUse" id="color-1"><stop offset="0" stop-color="#989898"/><stop offset="1" stop-color="#707070"/></radialGradient><radialGradient cx="269.69516" cy="279.65041" r="40.43425" gradientUnits="userSpaceOnUse" id="color-2"><stop offset="0" stop-color="#989898"/><stop offset="1" stop-color="#707070"/></radialGradient></defs><g transform="translate(-182.55194,-75.99672)"><g data-paper-data="{&quot;isPaintingLayer&quot;:true}" fill-rule="nonzero" stroke-linejoin="miter" stroke-miterlimit="10" stroke-dasharray="" stroke-dashoffset="0" style="mix-blend-mode: normal"><path d="M397.48539,149.14578c13.94615,2.86959 26.17287,9.12123 26.17287,9.12123c0,0 -22.48012,-0.29805 -22.52064,4.39317c-0.04117,5.269 29.89668,8.07388 29.89668,8.07388c0,0 -22.30294,3.35679 -31.1926,8.40064c-13.18575,7.47579 -23.92147,32.61392 -38.76018,36.35746c-9.00322,2.07731 -27.07316,0.44327 -34.46794,-5.27132c-6.4471,-4.98343 -5.56147,-18.11928 -6.82924,-26.16489c-1.36606,-8.72165 12.08258,-12.56881 21.65967,-19.02336c9.57709,-6.45454 24.24619,-11.2174 32.13306,-13.77087c9.86457,-3.195 23.90832,-2.11595 23.90832,-2.11595z" fill="#f8f8f8" stroke="none" stroke-width="1" stroke-linecap="round"/><path d="M235.15033,222.43413c0.84915,3.82933 -0.851,9.45871 -1.2536,13.08335c-0.37098,3.73617 -0.67155,8.68949 -2.05437,11.70831c-0.46101,1.00999 0.062,3.51794 -1.44289,5.16564c-1.17197,1.28319 -4.45656,0.65421 -5.13278,0.56568c-1.40642,-0.19713 -0.52878,-6.00578 -0.74148,-7.95704c-0.49528,-4.52018 0.75978,-8.99092 1.28976,-13.44438c0.53823,-3.5273 0.96503,-7.11974 1.91895,-10.49811c0.39439,-1.39511 3.37241,-2.49237 4.50336,-2.06657z" fill="#f8b820" stroke="none" stroke-width="1" stroke-linecap="round"/><path d="M437.44834,238.07236c0,0 -18.48033,1.62302 -19.59152,4.39831c-2.85884,7.14015 22.34612,4.96391 18.28159,6.06699c-5.87593,1.59765 -6.76902,3.16297 -23.42914,3.09862c-11.66222,-0.04505 -20.56189,6.67497 -29.92885,6.88758c-15.85619,0.35999 -33.66929,6.09441 -47.56293,-0.39755c-6.17403,-2.78054 6.9666,-11.57285 7.42694,-18.14802c0.49173,-7.07556 -8.17114,-14.49148 -4.74028,-20.83668c3.08295,-5.70783 12.61687,-6.33652 19.62868,-6.77278c9.09118,-0.40911 20.99805,0.30873 29.6088,3.16901c8.95364,2.97758 19.20379,3.74706 28.37524,9.3897c9.17145,5.64264 21.93147,13.14481 21.93147,13.14481z" fill="#f8f8f8" stroke="none" stroke-width="1" stroke-linecap="round"/><path d="M349.90545,225.26683l10.15986,5.75825l-4.77171,10.18494l10.21718,5.09199l-7.62447,8.55952l12.46732,4.81987c0,0 -30.33997,3.61246 -47.71722,2.86128c-17.47144,-0.75696 -35.81585,-5.51253 -49.92739,-15.02368c-12.66712,-8.5346 -27.24342,-26.29142 -26.69075,-36.40351c0.54639,-6.06724 16.86505,4.04484 28.88881,4.04484c12.02376,0 9.31753,-2.89222 15.70045,-4.04484c6.38291,-1.15262 11.83186,-2.25933 17.8985,-2.02243c12.94344,0.51427 -13.76616,0.9881 38.62309,4.33376c6.88307,1.53703 11.60257,7.19948 11.60257,7.19948z" fill="#eda725" stroke="none" stroke-width="1" stroke-linecap="round"/><path d="M354.59984,210.4184l-5.6259,3.33981c0,0 -10.36617,-1.36473 -14.96126,-1.01544c-6.3953,0.48479 -12.86366,0.74379 -19.25896,0.33205c-6.30232,-0.41175 -12.14643,-2.09192 -18.2628,-1.99231c-3.40064,0.05295 -11.30217,5.73197 -14.70695,5.97448c-9.83355,0.70039 -15.19423,-3.56965 -25.13918,-3.31807c-3.16777,0.07306 -2.35092,-0.39846 0.33205,-1.66026c10.7186,-5.04718 23.30352,-6.89979 33.82952,-12.33877c9.88184,-5.10695 18.01027,-12.98343 27.26785,-19.20607c2.36421,-1.52744 6.95984,-5.63166 6.95984,-5.63166l-2.724,16.76271l13.65523,-2.04667l-4.4965,11.57085l16.81638,-2.70601l-1.4574,9.7515c0,0 7.79067,1.36908 7.77205,2.18387z" fill="#e2a026" stroke="none" stroke-width="1" stroke-linecap="round"/><path d="M207.18062,221.9323c-0.76313,-4.00994 1.06137,-8.38302 2.94572,-12.05329c2.42091,-4.61472 9.0275,-26.50264 12.98676,-28.58444c1.45335,-0.76191 5.53605,-2.22019 3.72421,4.01165c-0.61793,2.12538 -6.46026,15.37916 -6.47958,16.03743c-0.13238,4.51819 -3.54343,9.56286 -5.25633,14.09495c-1.22129,2.94159 -1.99796,7.69025 -5.26453,8.93152c0,0 -2.11769,0.40576 -2.65625,-2.43782z" fill="#089c4e" stroke="none" stroke-width="1" stroke-linecap="butt"/><path d="M265.4054,196.64827c2.60594,3.73757 12.22965,16.39965 12.47935,20.95406c0.22646,4.09353 0.1352,3.0344 -2.99471,3.17387c-3.71698,0.33737 -8.25999,-12.94254 -12.11521,-17.32628c-3.85522,-4.38374 -16.16666,-18.07441 -15.21235,-23.09636c0.517,-2.28779 2.30026,-1.32338 2.5526,-1.18026c0,0 11.83964,12.51145 15.29032,17.47497z" fill="#089c4e" stroke="none" stroke-width="1" stroke-linecap="round"/><path d="M253.75957,218.06822c1.07193,3.38028 1.185,7.16698 1.46462,10.80361c0.33219,4.31666 0.82699,7.78728 0.96665,12.77467c0.13966,4.98739 0.66412,6.04971 -0.37253,8.44258c-0.98039,2.26303 -4.35581,2.22556 -5.20247,2.41246c-3.49271,0.74218 -2.87853,-1.02163 -3.1273,-4.28078c-0.3648,-4.7794 -0.46601,-12.47179 -0.67378,-17.70394c-0.16144,-4.04505 -0.60198,-6.45963 0.18383,-10.41768c0.42151,-2.11384 2.43834,-3.01162 3.99228,-3.11123c1.57813,-0.09496 2.11037,-0.98039 2.7687,1.08032z" fill="#f8b820" stroke="none" stroke-width="1.04082" stroke-linecap="round"/><path d="M249.35818,178.89271c3.87842,5.30857 4.55079,9.71873 6.09335,16.06659c1.56459,6.45254 5.63175,15.93436 3.16368,22.06538c-1.68947,4.19452 -8.19926,4.95717 -12.56248,5.9815c-5.65603,1.00937 -12.36246,3.07299 -17.26191,0c-4.84069,-3.03561 -6.59624,-9.73486 -7.34547,-15.70142c-1.02837,-8.19463 -0.82269,-16.97996 2.57093,-24.67364c2.23302,-5.0394 7.91109,-8.8526 13.22187,-9.71991c4.42934,-0.72526 9.4463,2.3253 12.12006,5.9815z" fill="#f8b820" stroke="none" stroke-width="1" stroke-linecap="round"/><path d="M269.86897,153.70727c-8.55463,10.26871 -19.33102,5.02881 -31.28052,8.0543c-8.82433,2.23292 -24.43044,6.64567 -29.87163,-1.52108c-6.64903,-9.98616 -6.3458,-21.8691 -5.53756,-36.47121c0.49221,-8.8926 3.25652,-8.44507 1.2747,-12.98675c-1.10215,-2.84466 -3.75442,-10.57666 -5.26416,-14.59074c-2.79532,-7.4321 -4.46477,-16.89265 -3.2872,-18.60677c1.27934,-1.86228 13.47461,3.10442 22.63168,9.76787c5.33259,3.88044 9.83446,10.39375 10.98229,11.07018c1.58207,0.93232 5.55873,-0.02261 9.19861,-0.08732c3.63989,-0.06472 7.58923,0.12979 8.73571,-1.2778c0.38279,-0.46995 6.7729,-6.88746 14.2613,-11.95951c9.11837,-6.17606 23.36864,-10.23297 25.56559,-8.45882c2.31345,1.86823 0.9728,12.56775 -1.45783,24.1149c-2.43064,11.54716 -8.38608,20.35788 -9.02657,26.23231c0,0 1.45953,1.78318 -0.86689,13.99772c-1.21852,6.39768 -3.64271,9.82392 -6.05752,12.72274z" fill="#f8b820" stroke="none" stroke-width="1" stroke-linecap="round"/><path d="M259.08788,208.14112c1.56459,6.45254 -35.52967,14.22111 -36.2789,8.25455c-1.02837,-8.19463 -4.45905,-20.16178 0.75275,-33.31c2.23302,-5.0394 8.36564,-9.30715 13.67642,-10.17446c4.42934,-0.72526 10.15591,2.21304 13.4837,7.34513c3.32779,5.13209 6.82349,21.53691 8.36605,27.88477z" fill="#089c4e" stroke="none" stroke-width="1" stroke-linecap="round"/><path d="M216.31026,181.64618l4.91201,-2.8378c0,0 10.91552,-3.23237 16.8438,-3.70212c17.05683,-1.49469 24.08947,5.9135 24.08947,5.9135l-13.04196,-0.12388l1.89341,8.95779l-11.3287,-5.58457l-8.7178,8.3213l-4.82619,-6.48489l-9.62772,3.5458l6.35308,-7.59977z" fill="#cf0000" stroke="none" stroke-width="0" stroke-linecap="butt"/><path d="M199.96174,98.92313c-1.89252,-7.26265 -4.3545,-15.47293 -3.6282,-15.98659c2.84475,-2.01186 26.10729,13.83241 27.20959,17.21504c0.67775,2.10323 -6.84309,2.70414 -10.13115,5.68166c-3.28806,2.97752 -6.77978,9.63205 -6.77978,9.63205c0,0 -5.07126,-10.40502 -6.67047,-16.54215z" data-paper-data="{&quot;index&quot;:null}" fill="#ffffff" stroke="none" stroke-width="1" stroke-linecap="butt"/><path d="M273.58412,121.14795c0,0 -6.52941,-12.72928 -10.09102,-15.23472c-3.56159,-2.50544 -15.02666,-4.05104 -15.02666,-4.05104c0,0 8.66216,-8.61862 15.54872,-13.48498c7.00689,-4.9514 18.65314,-9.14515 20.17888,-8.33454c0.7724,0.41037 -0.69504,12.66426 -2.75459,20.64341c-2.05955,7.97915 -7.85533,20.46187 -7.85533,20.46187z" fill="#ffffff" stroke="none" stroke-width="1" stroke-linecap="butt"/><path d="M217.13282,130.16781c0.30248,4.9051 0.36972,10.08236 0,15.08804c-0.26327,3.61522 0.40891,9.28929 -1.40042,12.43116c-1.10913,1.91707 -4.7334,2.12436 -5.60163,0.29013c-2.66639,-5.63287 -2.94647,-12.35445 -3.08092,-18.63817c0.13444,-4.08266 1.36121,-8.25996 3.08092,-11.83378c1.0195,-2.12416 3.58505,-4.94651 5.32156,-4.43767c1.70289,0.51478 1.52925,4.67435 1.6805,7.10026z" fill="#ffffff" stroke="none" stroke-width="1" stroke-linecap="round"/><path d="M246.17766,129.6402c1.90219,3.77669 2.53058,7.60621 2.98518,12.62432c0.4546,5.01811 2.1183,12.59508 -0.29074,17.11808c-1.7233,3.15258 -7.70928,2.25958 -11.04259,2.42686c-2.96361,0.14799 -6.9051,0.84097 -8.34815,-1.9835c-2.48655,-4.87043 -2.16457,-12.69213 -1.78889,-18.28316c0.32797,-4.92834 1.13893,-10.36494 3.57778,-14.79786c1.63385,-2.50278 4.83596,-4.96693 7.75185,-4.5037c3.26173,0.51471 5.58132,4.27209 7.15555,7.39893z" fill="#ffffff" stroke="none" stroke-width="1" stroke-linecap="round"/><path d="M212.17408,121.0695l-16.66714,1.60754l-12.955,7.63741l12.54808,-13.22403l16.81258,0.29566z" fill="#f8b820" stroke="none" stroke-width="1.22222" stroke-linecap="round"/><path d="M269.99442,156.1632c-0.11649,1.2372 5.73649,-1.05176 9.48205,-0.44611c3.74556,0.60565 8.76882,3.39722 8.76882,3.39722c0,0 -6.11733,0.58816 -9.80664,1.83211c-3.68931,1.24395 -5.01063,2.37085 -5.01063,2.37085c0,0 3.4489,0.62516 6.24493,2.07756c2.79603,1.4524 5.9739,6.60452 5.9739,6.60452c0,0 -4.62102,-2.11444 -7.77756,-2.74331c-3.15654,-0.62887 -4.59931,0.03846 -5.19698,0.15841c-0.91801,0.18424 5.14513,9.69662 5.14513,9.69662c0,0 -4.20896,-3.5671 -7.50024,-5.18323c-3.29128,-1.61614 -5.98581,-0.3523 -6.49862,-0.09788c-5.01522,2.48815 -4.05642,2.87898 -10.60369,4.44378c-3.5765,0.85479 -9.41716,1.87121 -14.80217,2.11613c-4.47302,0.20345 -8.63163,-0.24152 -10.91709,-0.69117c-4.09929,-0.60982 -15.55558,-4.12899 -15.55558,-4.12899c0,0 -2.01224,0.79575 -3.5241,1.43858c-1.66735,0.70895 -5.85925,4.63619 -5.85925,4.63619c0,0 0.59924,-3.27605 1.57383,-5.1293c0.97459,-1.85325 2.10007,-3.48604 1.78745,-3.49733c-1.0949,-0.03954 -1.61757,-1.03601 -3.16214,-0.81466c-1.54458,0.22136 -6.35851,2.60851 -6.35851,2.60851c0,0 1.59171,-4.10966 3.67524,-5.45983c2.08353,-1.35018 4.50145,-2.14425 4.50145,-2.14425c0,0 -2.8443,-1.01433 -4.3862,-1.70448c-1.59205,-0.71258 -5.52049,-0.83918 -5.52049,-0.83918c0,0 3.26357,-1.91366 4.91758,-2.46168c1.39742,-0.46301 4.36711,-0.61463 4.36711,-0.61463c0,0 -1.64972,-2.43607 -3.12429,-3.54202c-1.47457,-1.10595 -3.92266,-2.11832 -3.92266,-2.11832c0,0 1.86977,-0.68936 4.34454,-0.74705c4.36608,-0.10178 5.01084,2.71702 9.29677,3.55597c2.35118,0.46022 5.19963,-1.38417 7.22991,-1.27053c6.90646,0.38114 14.08735,4.79599 20.58216,3.17615c2.88173,-0.72007 10.22182,-2.24418 12.0119,-3.04584c5.88462,-2.63533 5.8678,-4.98499 14.14171,-7.27462c10.79077,-2.98612 21.75011,-0.38989 21.75011,-0.38989c0,0 -14.84174,2.55561 -16.26774,6.23173z" fill="#f8f8f8" stroke="none" stroke-width="1" stroke-linecap="round"/><path d="M223.13152,159.71333c1.09396,0.54871 -2.60272,3.19466 -4.27103,3.19466c-1.6683,0 -5.36501,-2.64595 -4.27102,-3.19466c1.09396,-0.54871 2.60272,-0.88861 4.27102,-0.88861c1.6683,0 3.17707,0.33992 4.27103,0.88861z" fill="#101010" stroke="none" stroke-width="1" stroke-linecap="butt"/><path d="M238.76577,141.09823c0.6261,1.53091 1.01907,3.63478 1.01907,5.96098c0,2.32622 -0.39297,4.4301 -1.01907,5.96099c-0.63327,1.52392 -1.50028,2.46787 -2.4627,2.46787c-0.96182,0 -1.82884,-0.94395 -2.46211,-2.46787c-0.6267,-1.53091 -1.01907,-3.63479 -1.01907,-5.96099c0,-2.32622 0.39237,-4.43009 1.01907,-5.96098c0.63327,-1.52392 1.50028,-2.46787 2.46211,-2.46787c0.96242,0 1.82943,0.94395 2.4627,2.46787z" fill="#4088ed" stroke="none" stroke-width="1.0615" stroke-linecap="butt"/><path d="M238.03467,142.86354c0.42397,0.95347 0.68336,2.26841 0.68336,3.72181c0,1.4534 -0.25939,2.76834 -0.68336,3.72244c-0.42098,0.95347 -1.00297,1.54361 -1.64697,1.54361c-0.644,0 -1.22539,-0.59014 -1.64637,-1.54361c-0.42397,-0.95412 -0.68336,-2.26904 -0.68336,-3.72244c0,-1.4534 0.25939,-2.76834 0.68336,-3.72181c0.42098,-0.95412 1.00237,-1.54361 1.64637,-1.54361c0.644,0 1.22599,0.58949 1.64697,1.54361z" fill="#000000" stroke="none" stroke-width="0.47368" stroke-linecap="butt"/><path d="M236.71984,142.88135c0.1926,0.39067 0.31246,0.92871 0.31246,1.52455c0,0.59584 -0.11985,1.13388 -0.31246,1.52454c-0.18902,0.39003 -0.45497,0.63269 -0.74836,0.63269c-0.29278,0 -0.55932,-0.24265 -0.74836,-0.63269c-0.1926,-0.39067 -0.31186,-0.9287 -0.31186,-1.52454c0,-0.59584 0.11926,-1.13388 0.31186,-1.52455c0.18902,-0.39003 0.45558,-0.63269 0.74836,-0.63269c0.29338,0 0.55932,0.24265 0.74836,0.63269z" fill="#ffffff" stroke="none" stroke-width="0.64678" stroke-linecap="butt"/><path d="M211.27552,117.44562l-11.34877,-7.15613l-16.64281,1.77754c0,0 13.83043,-7.95579 16.35162,-7.68652c1.7686,0.18888 14.40161,9.37944 14.40161,9.37944z" fill="#f8b820" stroke="none" stroke-width="1.22222" stroke-linecap="round"/><path d="M215.03278,112.98185c0,0 -3.92228,-7.95693 -8.31198,-11.30107c-4.3897,-3.34414 -21.3488,-11.29496 -21.3488,-11.29496c0,0 19.70883,2.47357 22.63219,4.74828c1.77251,1.37922 11.71964,15.75627 11.71964,15.75627z" fill="#f8b820" stroke="none" stroke-width="1.22222" stroke-linecap="round"/><path d="M217.76577,140.83158c0.6261,1.53091 1.01907,3.63478 1.01907,5.96098c0,2.32622 -0.39297,4.4301 -1.01907,5.96099c-0.63327,1.52392 -1.50028,2.46787 -2.4627,2.46787c-0.96182,0 -1.82884,-0.94395 -2.46211,-2.46787c-0.6267,-1.53091 -1.01907,-3.63479 -1.01907,-5.96099c0,-2.32622 0.39237,-4.43009 1.01907,-5.96098c0.63327,-1.52392 1.50028,-2.46787 2.46211,-2.46787c0.96242,0 1.82943,0.94395 2.4627,2.46787z" fill="#4088ed" stroke="none" stroke-width="1.0615" stroke-linecap="butt"/><path d="M217.03468,142.59689c0.42397,0.95347 0.68336,2.26841 0.68336,3.72181c0,1.4534 -0.25939,2.76834 -0.68336,3.72245c-0.42098,0.95347 -1.00297,1.54361 -1.64697,1.54361c-0.644,0 -1.22539,-0.59014 -1.64637,-1.54361c-0.42397,-0.95412 -0.68336,-2.26904 -0.68336,-3.72245c0,-1.4534 0.25939,-2.76834 0.68336,-3.72181c0.42098,-0.95412 1.00237,-1.54361 1.64637,-1.54361c0.644,0 1.22599,0.58949 1.64697,1.54361z" fill="#000000" stroke="none" stroke-width="0.47368" stroke-linecap="butt"/><path d="M215.71984,142.61469c0.1926,0.39067 0.31246,0.92871 0.31246,1.52455c0,0.59584 -0.11985,1.13388 -0.31246,1.52455c-0.18902,0.39003 -0.45497,0.63269 -0.74836,0.63269c-0.29278,0 -0.55932,-0.24265 -0.74836,-0.63269c-0.1926,-0.39067 -0.31186,-0.92871 -0.31186,-1.52455c0,-0.59584 0.11926,-1.13388 0.31186,-1.52455c0.18902,-0.39003 0.45558,-0.63269 0.74836,-0.63269c0.29338,0 0.55932,0.24265 0.74836,0.63269z" fill="#ffffff" stroke="none" stroke-width="0.64678" stroke-linecap="butt"/><path d="M236.46711,166.90181c0.26923,-0.01942 -0.05822,4.55007 -6.97045,5.9945c-3.88041,0.81087 -10.1368,-1.03717 -10.49342,-0.98857c-0.13305,0.01948 7.07605,0.80145 11.43362,-0.44761c1.28361,-0.36793 2.33425,-0.91464 3.17779,-1.50286c2.02009,-1.40866 2.85247,-3.05543 2.85247,-3.05543z" data-paper-data="{&quot;index&quot;:null}" fill="#b3b3b3" stroke="#000000" stroke-width="0" stroke-linecap="butt"/><path d="M235.39875,273.72798c0.43329,2.36708 1.43746,3.35498 -0.24452,4.17996c-3.92247,1.92386 -17.37655,0.63486 -19.33938,0.70644c-4.74435,0.17401 -26.38956,-0.16584 -26.38956,-0.16584c0,0 -1.46634,-4.02285 -0.26921,-4.28955c2.34362,-0.51515 15.78155,-1.722 22.63242,-1.25798c4.89976,0.33123 9.20802,-1.39669 14.13699,-1.40356c0,0 9.19582,0.71488 9.47326,2.23053z" fill="#989898" stroke="url(#color-1)" stroke-width="0" stroke-linecap="round"/><path d="M235.43797,274.63469c-0.45425,0.6278 -6.3178,0.75481 -6.3178,0.75481c0,0 -8.17259,1.24901 -10.36213,-0.25113c-2.98514,-2.01621 -3.91289,-6.79042 -6.24719,-9.76698c-1.9591,-2.50073 -3.69391,-8.726 -3.69391,-8.726c0,0 6.6313,-2.58994 12.8997,-1.041c4.20244,1.03927 10.20453,0.79062 13.30789,4.31484c0,0 2.41797,11.94504 0.41344,14.71544z" fill="#f82020" stroke="none" stroke-width="0.99015" stroke-linecap="round"/><path d="M222.07111,276.13909l-27.57148,0.42573c0,0 -7.18043,0.77636 -6.56283,-1.66204c0.89654,-3.55106 6.06283,-10.56835 9.05127,-12.35177c2.75603,-1.64927 10.06583,-6.52889 13.2535,-6.30005c0,0 3.543,0.74349 7.37247,7.75419c4.95947,9.07941 4.45707,12.13394 4.45707,12.13394z" fill="#f8f8f8" stroke="none" stroke-width="1" stroke-linecap="round"/><path d="M237.01818,250.39511c1.21731,0.69023 1.39926,3.06111 1.22859,4.40945c-0.11025,2.60125 -0.36791,6.32412 -2.00825,6.56185c-3.44935,0.48832 -6.58922,-3.39246 -9.96219,-4.25158c-3.91555,-1.0014 -8.14322,0.01377 -11.88411,-1.844c-1.06589,-0.53054 -1.40325,-3.0152 -0.89986,-4.34519c0.73118,-1.91559 2.47046,-3.25569 4.0331,-3.38786c3.20894,-0.56357 6.34814,0.88023 9.58232,1.397c3.29993,0.51951 6.84025,-0.26711 9.9104,1.46035z" fill="#ffffff" stroke="none" stroke-width="1" stroke-linecap="round"/><path d="M238.35148,244.40592c1.21731,0.69023 1.39926,3.06111 1.22859,4.40945c-0.11025,2.60125 -0.36791,6.32412 -2.00825,6.56186c-3.44935,0.48832 -6.58922,-3.39246 -9.96219,-4.25159c-3.91555,-1.0014 -8.14322,0.01377 -11.88411,-1.844c-1.06589,-0.53054 -1.40325,-3.01521 -0.89986,-4.3452c0.73118,-1.91559 2.47046,-3.25568 4.0331,-3.38786c3.20894,-0.56357 6.34814,0.88023 9.58232,1.39699c3.29993,0.51951 6.84025,-0.26711 9.9104,1.46035z" fill="#ffffff" stroke="none" stroke-width="1" stroke-linecap="round"/><path d="M263.64036,250.11718c1.82381,0.51367 4.16458,3.03164 4.03836,5.78526c-0.00575,2.662 -2.34437,4.86219 -4.30581,5.39984c-3.38009,0.92813 -6.99025,-1.6651 -10.42305,-1.64556c-3.98525,0.01844 -7.98901,2.40186 -11.89812,1.24273c-1.5545,-0.46613 -3.15985,-3.54399 -3.40594,-6.29191c0.1206,-1.51551 1.88484,-2.62657 3.1318,-2.99654c3.73366,-1.11875 7.7578,-0.13463 11.62733,-0.2944c3.74362,-0.15154 7.5131,-2.2498 11.23544,-1.19943z" fill="#ffffff" stroke="none" stroke-width="1" stroke-linecap="round"/><path d="M264.11444,243.48547c1.82381,0.51367 4.16458,3.03164 4.03836,5.78526c-0.00575,2.662 -2.34437,4.86219 -4.30581,5.39984c-3.38009,0.92813 -6.99025,-1.66511 -10.42305,-1.64557c-3.98525,0.01844 -7.98901,2.40187 -11.89812,1.24273c-1.5545,-0.46613 -3.15985,-3.54399 -3.40594,-6.29191c0.1206,-1.51551 1.88484,-2.62657 3.1318,-2.99654c3.73366,-1.11875 7.7578,-0.13463 11.62733,-0.2944c3.74362,-0.15154 7.5131,-2.2498 11.23544,-1.19943z" data-paper-data="{&quot;index&quot;:null}" fill="#ffffff" stroke="none" stroke-width="1" stroke-linecap="round"/><path d="M236.40882,270.3744c-0.16352,-0.76106 7.3935,6.5609 7.3935,6.5609c4.22384,0.62501 8.14392,1.69447 12.3347,1.38991c5.87791,-0.42624 16.00365,-3.73843 18.68507,-2.99779c0.91738,0.25351 2.14426,7.98988 2.14426,7.98988l-5.9717,-0.16488c0,0 -14.23796,0.12098 -18.53587,0.1618c-1.53765,0.01466 -9.09216,-0.31222 -12.59364,-1.28654c-2.99903,-0.8345 -1.99621,-2.28588 -3.23802,-2.81132z" data-paper-data="{&quot;index&quot;:null}" fill="#989898" stroke="url(#color-2)" stroke-width="0" stroke-linecap="round"/><path d="M241.48236,262.05372c3.32299,-2.94554 7.01293,-5.78236 11.00144,-6.54557c3.84779,-0.74189 7.84198,0.40694 11.2835,2.54522c3.10305,1.64393 9.17358,6.50225 7.61634,8.36434c-2.38055,2.84345 -10.44817,-1.46176 -15.23268,0.7272c-4.0113,1.84004 -5.68134,8.37169 -9.59066,10.90956c-2.43756,1.57855 -5.95769,2.32045 -8.18044,0.3636c-2.0142,-1.77467 -2.55037,-6.0292 -1.97488,-9.09154c0.59826,-3.1637 2.91103,-5.34531 5.07736,-7.27278z" data-paper-data="{&quot;index&quot;:null}" fill="#f82020" stroke="none" stroke-width="0.99015" stroke-linecap="round"/><path d="M238.45807,278.06919c0,-2.6003 2.5356,-8.44827 5.92443,-12.07959c3.38883,-3.63133 8.0737,-5.66332 10.89415,-5.94244c4.22783,-0.96226 10.31409,0.15596 14.76497,4.07261c4.45088,3.91665 4.61855,8.25497 6.56026,14.69295c0.74735,2.47794 -4.9719,1.69021 -4.9719,1.69021c0,0 -13.43819,0.31374 -16.86261,0.40923c-2.78746,0.07799 -11.90048,-0.41744 -15.14741,-1.78616c-0.72867,-0.30716 -1.1619,-0.6583 -1.1619,-1.05682z" data-paper-data="{&quot;index&quot;:null}" fill="#f8f8f8" stroke="none" stroke-width="1" stroke-linecap="round"/><path d="M232.99364,196.69198c0,-2.00843 1.62815,-3.63657 3.63657,-3.63657c2.00843,0 3.63657,1.62815 3.63657,3.63657c0,2.00843 -1.62815,3.63649 -3.63657,3.63649c-2.00843,0 -3.63657,-1.62815 -3.63657,-3.63649z" fill="#ffffff" stroke="none" stroke-width="0" stroke-linecap="butt"/><g stroke-width="0" stroke-linecap="butt"><path d="M252.58562,86.65205c0,0 6.5236,-5.60455 15.63222,-8.6349c7.50319,-2.49621 16.75715,-2.22161 21.76214,-1.5789c4.87858,0.62648 8.36891,11.19672 9.26691,22.64322c1.14161,14.55231 -1.09164,30.62568 -1.09164,30.62568l-9.54527,-22.60531l-8.05251,5.32133l-4.67164,-9.21444c0,0 -7.95395,1.02011 -8.98309,0.88795c-4.22498,-0.54255 -0.37872,-12.11174 -0.37872,-12.11174l-10.48977,2.03542l-3.44862,-7.36838z" fill="#23d892" stroke="none"/><path d="M236.92095,99.77307c-3.48874,-1.41361 4.59378,-8.03997 8.92946,-10.47917c4.36357,-2.45496 11.43513,-4.95236 11.43513,-4.95236l-1.71551,8.44261l13.99277,-2.34375c0,0 -0.94796,3.69012 -1.35453,6.09114c-0.40656,2.40102 -0.74942,6.33372 -0.74942,6.33372l12.31864,-1.62021l-0.69808,10.14216l6.6633,-3.05333l-4.68799,9.3458c0,0 0.69469,7.05234 -2.34486,7.52539c-6.46096,1.00542 -11.73904,-9.02435 -21.43332,-14.20681c-10.91407,-5.83461 -4.16523,-4.66511 -20.35567,-11.22514z" fill="#fd0000" stroke="none"/><g><path d="M291.75529,133.16803c0.39092,-3.04419 3.17564,-5.1951 6.21983,-4.80418c3.04419,0.39092 5.1951,3.17564 4.80418,6.21983c-0.39092,3.04419 -3.17564,5.1951 -6.21983,4.80418c-3.04419,-0.39092 -5.1951,-3.17564 -4.80418,-6.21983z" fill="#db7b04" stroke="none"/><path d="M303.35318,134.45909c-0.13432,1.04601 -3.20607,0.29757 -6.15044,-0.08054c-2.94437,-0.3781 -5.96997,-0.04181 -5.83565,-1.08783c0.20459,-1.5932 3.1773,-1.51714 6.12161,-1.13904c2.94437,0.3781 6.09249,0.53184 5.86448,2.30741z" fill="#feeb00" stroke="#000000"/><path d="M296.92958,138.97942c-0.14761,1.14951 -0.7048,0.3565 -1.27959,0.28269c-0.57479,-0.07381 -1.09846,-2.57146 -0.95084,-3.72097c0.14761,-1.14951 1.27541,-0.46867 1.8502,-0.39486c0.57479,0.07381 0.52785,2.68363 0.38023,3.83314z" fill="#000000" stroke="none"/><path d="M300.74415,135.73004c0.30218,0.0388 0.96856,-0.32392 0.86508,0.48192c-0.10348,0.80583 -0.91417,2.29282 -1.21642,2.254c-0.30224,-0.03881 -0.48671,-0.54118 -0.38323,-1.34701c0.10348,-0.80583 0.43232,-1.42772 0.73456,-1.38891z" fill="#000000" stroke="none"/></g></g><path d="M234.81182,205.32834c0,-2.00842 1.62815,-3.63657 3.63657,-3.63657c2.00842,0 3.63657,1.62815 3.63657,3.63657c0,2.00842 -1.62815,3.63649 -3.63657,3.63649c-2.00842,0 -3.63657,-1.62816 -3.63657,-3.63649z" fill="#ffffff" stroke="none" stroke-width="0" stroke-linecap="butt"/><path d="M221.94944,212.62121c-0.08757,-1.89081 13.04926,-1.44611 18.71055,-2.50087c5.66129,-1.05476 17.4794,-5.61814 17.56697,-3.72734c0.08757,1.89081 -9.78624,4.23989 -16.32838,5.64416c-6.54214,1.40427 -19.86156,2.47492 -19.94914,0.58405z" data-paper-data="{&quot;index&quot;:null}" fill="#000000" stroke="#000000" stroke-width="0" stroke-linecap="butt"/><path d="M205.85902,244.87958c-3.80123,-0.29673 -7.63683,-1.56039 -11.238,-3.95042c-4.28653,-2.84889 -7.94055,-6.26601 -6.98094,-10.29647c1.68561,-7.10102 7.54991,-10.07784 9.43723,-12.76895c1.88737,-2.69115 3.79867,-4.65375 4.38281,-7.90776c0.58415,-3.25401 3.09289,-7.44305 4.60353,-7.73743c2.12499,-0.41237 0.71032,0.16763 4.62118,2.0531c3.91086,1.88548 5.84797,2.94958 10.07214,5.84659c4.22416,2.897 1.43685,0.84037 3.5171,3.0851c0.53311,0.69941 0.19664,4.81934 -0.20115,6.97952c-0.39775,2.16023 -1.49227,2.9784 -2.04766,5.23268c-0.5554,2.25428 -0.39643,4.37316 -0.69673,5.9065c-0.97719,4.25007 -1.41965,14.11862 -4.79449,14.36214c-6.86884,0.79374 -5.18401,-8.75397 -5.93071,-8.58787c-0.75471,0.16952 3.71821,2.40527 0.88703,6.89801c-1.70765,2.07352 -2.38621,0.9724 -5.63132,0.88523z" data-paper-data="{&quot;index&quot;:null}" fill="#ffffff" stroke="none" stroke-width="0.67216" stroke-linecap="round"/><path d="M282.10535,245.73247c-3.23228,0.30119 -3.83668,1.4447 -5.67748,-0.51157c-3.12158,-4.29605 1.19401,-6.82218 0.42975,-6.94152c-0.75603,-0.11644 1.55538,9.29922 -5.35088,8.96063c-3.38356,-0.02022 -4.47648,-9.83803 -5.7321,-14.01433c-0.40086,-1.51018 -0.38211,-3.63494 -1.0851,-5.84763c-0.70299,-2.21269 -1.84913,-2.95683 -2.38861,-5.08609c-0.53952,-2.12921 -1.14721,-6.21795 -0.66144,-6.95102c1.92753,-2.37715 -0.71794,-0.14102 3.30578,-3.31054c4.02371,-3.16952 5.88635,-4.35918 9.66422,-6.49871c3.77787,-2.13952 2.32801,-2.62488 4.47557,-2.35368c1.52677,0.19402 4.30657,4.20833 5.10425,7.41667c0.79768,3.20835 2.83436,5.0405 4.89526,7.60119c2.06084,2.56065 8.10885,5.14387 10.25953,12.11813c1.22357,3.95833 -2.1969,7.6092 -6.28602,10.73484c-3.43555,2.62253 -7.17937,4.13663 -10.95272,4.68364z" data-paper-data="{&quot;index&quot;:null}" fill="#ffffff" stroke="none" stroke-width="0.67216" stroke-linecap="round"/><path d="M212.19708,254.8679c0.10805,-0.63029 5.21027,0.12239 12.03843,1.29294c6.82816,1.17055 12.00113,4.85604 11.89308,5.48633c-0.29645,1.72926 -7.13947,-1.1597 -11.78237,-2.47493c-4.6429,-1.31523 -12.44558,-2.57509 -12.14913,-4.30434z" fill="#424242" stroke="none" stroke-width="0" stroke-linecap="butt"/><path d="M240.83344,262.59518c0.10805,-0.63029 4.34275,-6.58098 12.72025,-7.79797c5.77131,-0.83839 12.80024,2.89469 13.71126,4.80452c0.80789,1.69364 -4.63948,-1.84151 -13.14601,-2.24765c-4.8201,-0.23013 -13.58194,6.97037 -13.28549,5.24111z" fill="#424242" stroke="none" stroke-width="0" stroke-linecap="butt"/></g></g></svg>