<svg version="1.1" xmlns="http://www.w3.org/2000/svg" xmlns:xlink="http://www.w3.org/1999/xlink" width="26.68816" height="25.14834" viewBox="0,0,26.68816,25.14834"><g transform="translate(-225.07085,-169.64112)"><g data-paper-data="{&quot;isPaintingLayer&quot;:true}" fill-rule="nonzero" stroke-linejoin="miter" stroke-miterlimit="10" stroke-dasharray="" stroke-dashoffset="0" style="mix-blend-mode: normal"><g data-paper-data="{&quot;index&quot;:null}"><g stroke="none" stroke-width="0" stroke-linecap="butt"><path d="M239.74643,175.61727c1.3099,0.53354 1.9933,1.25853 1.9933,1.25853c0,0 -0.30533,1.58991 -0.04965,3.14399c0.25569,1.55408 1.4527,3.28466 1.4527,3.28466c0,0 -3.88146,-1.0854 -5.22764,-2.86681c-1.34618,-1.78141 -0.16739,-5.54743 -0.16739,-5.54743c0,0 0.68878,0.19351 1.99868,0.72706z" fill="#f8b820"/><path d="M241.72705,176.9801c0,0 -1.21297,-0.9969 -2.29022,-1.42326c-1.07726,-0.42636 -1.74614,-0.54026 -1.74614,-0.54026c0,0 1.11898,-1.39359 2.17209,-1.60456c1.05311,-0.21097 2.83231,-0.3268 2.83231,-0.3268c0,0 -0.50307,1.52772 -0.56868,2.06569c-0.0656,0.53797 -0.39935,1.8292 -0.39935,1.8292z" fill="#ffffff"/></g><path d="M241.04257,176.13874l-0.28064,0.67041" fill="none" stroke="#808080" stroke-width="0.5" stroke-linecap="round"/><path d="M239.83869,176.12135l0.26692,-0.56048" fill="none" stroke="#808080" stroke-width="0.5" stroke-linecap="round"/><path d="M238.84188,175.06253l-0.35756,0.74998" fill="none" stroke="#808080" stroke-width="0.5" stroke-linecap="round"/></g><g data-paper-data="{&quot;index&quot;:null}"><g stroke="none" stroke-width="0" stroke-linecap="butt"><path d="M248.37944,174.8902c0,0 1.17879,3.76602 -0.16739,5.54743c-1.34618,1.78141 -5.22764,2.86681 -5.22764,2.86681c0,0 1.19701,-1.73058 1.4527,-3.28466c0.25568,-1.55408 -0.04965,-3.14399 -0.04965,-3.14399c0,0 0.6834,-0.72499 1.9933,-1.25853c1.3099,-0.53355 1.99868,-0.72706 1.99868,-0.72706z" fill="#f8b820"/><path d="M244.40013,176.9801c0,0 -0.33375,-1.29123 -0.39935,-1.8292c-0.06561,-0.53797 -0.56868,-2.06569 -0.56868,-2.06569c0,0 1.7792,0.11583 2.83231,0.3268c1.05311,0.21097 2.17209,1.60456 2.17209,1.60456c0,0 -0.66888,0.1139 -1.74614,0.54026c-1.07725,0.42636 -2.29022,1.42326 -2.29022,1.42326z" fill="#ffffff"/></g><path d="M245.08462,176.13874l0.28064,0.67041" fill="none" stroke="#808080" stroke-width="0.5" stroke-linecap="round"/><path d="M246.2885,176.12136l-0.26692,-0.56048" fill="none" stroke="#808080" stroke-width="0.5" stroke-linecap="round"/><path d="M247.64287,175.81252l-0.35756,-0.74998" fill="none" stroke="#808080" stroke-width="0.5" stroke-linecap="round"/></g><g><path d="M235.7455,187.38115l-1.48489,0.77448c0,0 1.10688,-1.94279 1.69624,-2.60646c0.69143,-0.77862 2.44431,-2.4906 2.44431,-2.4906l0.52209,0.5713c0,0 -1.49884,1.53063 -2.06593,2.20008c-0.4762,0.56213 -1.11183,1.55118 -1.11183,1.55118z" fill="#f8b820" stroke="none" stroke-width="0" stroke-linecap="butt"/><g data-paper-data="{&quot;index&quot;:null}"><path d="M235.70417,187.02145c1.09023,0.09197 2.26268,2.57934 0.98976,4.42312c-1.05093,1.52226 -1.80423,2.43824 -3.18732,2.45062c-0.50088,0.01048 -1.96589,-2.38702 -0.67415,-4.58412c0.93507,-1.59043 2.51478,-2.31972 2.87172,-2.28963z" fill="#a8c8d8" stroke="none" stroke-width="0" stroke-linecap="butt"/><path d="M236.24238,188.23899l-1.03302,0.10624" fill="none" stroke="#808080" stroke-width="0.5" stroke-linecap="round"/><path d="M236.26521,189.84632l-0.81733,0.04663" fill="none" stroke="#808080" stroke-width="0.5" stroke-linecap="round"/><path d="M235.24932,191.15805l0.79464,0.04929" fill="none" stroke="#808080" stroke-width="0.5" stroke-linecap="round"/><path d="M234.83508,192.48277l0.57897,0.10892" fill="none" stroke="#808080" stroke-width="0.5" stroke-linecap="round"/><path d="M235.57819,187.21226c0,0 0.43732,1.8404 0.35081,3.02996c-0.08651,1.18955 -1.32506,3.26977 -1.32506,3.26977" fill="none" stroke="#020202" stroke-width="0.25" stroke-linecap="round"/></g></g><g><path d="M247.612,185.78689c0.61599,0.3175 1.01037,1.85418 1.04971,2.65859c0.03936,0.80443 -0.23079,5.06525 -1.59732,6.03346c-0.34329,0.29147 -1.86137,-0.89179 -2.85906,-3.61943c-0.80269,-2.19452 -0.72124,-4.53361 -0.54593,-4.74028c0.64262,-0.75769 3.3366,-0.64983 3.9526,-0.33233z" fill="#c01515" stroke="none" stroke-width="0" stroke-linecap="butt"/><path d="M248.54855,190.18306c0,0 -1.36229,0.01937 -2.15039,0.24421c-0.78809,0.22484 -1.95296,0.95324 -1.95296,0.95324c0,0 -0.19558,-0.37102 -0.36334,-0.87927c-0.16777,-0.50826 -0.31842,-1.41215 -0.31842,-1.41215c0,0 1.21479,-0.58919 2.24502,-0.68859c1.03025,-0.09941 2.64325,0.21695 2.64325,0.21695c0,0 -0.02302,0.81391 -0.03698,1.02572c-0.01396,0.21181 -0.06616,0.53988 -0.06616,0.53988z" fill="#a8c8d8" stroke="none" stroke-width="0" stroke-linecap="butt"/><path d="M246.87507,194.41385c0,0 -1.27057,-2.02861 -1.85676,-3.57906c-0.58619,-1.55046 -1.07143,-4.10995 -1.07143,-4.10995" fill="none" stroke="#000000" stroke-width="0.25" stroke-linecap="round"/><path d="M244.27438,186.91501l-0.41899,0.17039" fill="none" stroke="#808080" stroke-width="0.5" stroke-linecap="round"/><path d="M244.67587,188.17067l-0.55115,0.21266" fill="none" stroke="#808080" stroke-width="0.5" stroke-linecap="round"/><path d="M245.75357,191.54098l-0.44147,0.21401" fill="none" stroke="#808080" stroke-width="0.5" stroke-linecap="round"/><path d="M246.52371,193.15225l-0.48507,0.19152" fill="none" stroke="#808080" stroke-width="0.5" stroke-linecap="round"/><path d="M245.07081,189.77603l-0.65831,0.25994" fill="none" stroke="#808080" stroke-width="0.5" stroke-linecap="round"/></g><path d="M241.57478,184.97874c0,0 -1.42686,-0.62718 -1.98881,-0.93337c-0.56196,-0.30619 -1.33289,-0.95523 -1.33289,-0.95523l1.46166,-0.3843c0,0 0.72615,0.50445 1.16541,0.80824c0.43927,0.30379 1.20887,0.83606 1.20887,0.83606z" fill="#f8b820" stroke="none" stroke-width="0" stroke-linecap="butt"/><path d="M243.5161,184.80351c0.50114,0.27004 1.44975,0.71111 1.2375,1.23461c-0.22663,0.55898 -1.40411,-0.05257 -1.91619,-0.30124c-0.95636,-0.46442 -1.4191,-0.65065 -1.1551,-1.14058c0.20022,-0.37156 1.33265,-0.06283 1.83379,0.20721z" fill="#ffffff" stroke="none" stroke-width="0" stroke-linecap="butt"/><g data-paper-data="{&quot;index&quot;:null}"><path d="M240.82605,182.23017c3.33404,0.26803 3.76648,2.8575 3.61594,4.51084c-0.16191,1.7781 -4.58182,2.49413 -6.63329,0.89801c-2.02404,-1.57477 -1.66936,-3.5655 -0.07922,-4.63442c1.06693,-0.7172 1.55711,-0.89819 3.09657,-0.77442z" fill="#f8b820" stroke="none" stroke-width="0" stroke-linecap="butt"/><path d="M241.09683,183.65784c1.15451,-0.15671 3.13433,1.23803 3.31154,3.10443c0.11956,1.2591 -1.89635,2.87146 -3.50029,2.77999c-2.14338,-0.12225 -3.17637,-1.58961 -3.17241,-2.9024c0.00233,-0.77222 0.01634,-2.52801 3.36116,-2.98201z" fill="#ffffff" stroke="none" stroke-width="0" stroke-linecap="butt"/><path d="M238.48603,184.29974l0.38303,0.4153" fill="none" stroke="#808080" stroke-width="0.5" stroke-linecap="round"/><path d="M240.43146,183.97865l-0.0477,-0.46838" fill="none" stroke="#808080" stroke-width="0.5" stroke-linecap="round"/><path d="M242.14505,184.44783l0.23454,-0.85679" fill="none" stroke="#808080" stroke-width="0.5" stroke-linecap="round"/><path d="M243.70138,185.51026l0.2903,-0.58799" fill="none" stroke="#808080" stroke-width="0.5" stroke-linecap="round"/></g><g><path d="M250.61031,185.91885c0.62596,0.29736 1.06997,1.82044 1.13537,2.62315c0.06542,0.80273 -0.0664,5.07007 -1.40082,6.08209c-0.33366,0.30245 -1.88931,-0.83096 -2.97494,-3.52481c-0.87343,-2.16734 -0.86789,-4.50783 -0.69937,-4.72008c0.61772,-0.77813 3.31377,-0.75769 3.93974,-0.46033z" fill="#f72526" stroke="none" stroke-width="0" stroke-linecap="butt"/><path d="M251.68894,190.28234c0,0 -1.36095,0.06354 -2.14134,0.31382c-0.78039,0.25028 -1.92102,1.01607 -1.92102,1.01607c0,0 -0.20751,-0.36448 -0.39166,-0.86702c-0.18416,-0.50255 -0.36405,-1.40109 -0.36405,-1.40109c0,0 1.19504,-0.62828 2.22151,-0.76103c1.02648,-0.13276 2.6489,0.13112 2.6489,0.13112c0,0 0.00339,0.81423 -0.00369,1.02638c-0.00708,0.21215 -0.04862,0.54174 -0.04862,0.54174z" fill="#ffffff" stroke="none" stroke-width="0" stroke-linecap="butt"/><path d="M250.15354,194.56517c0,0 -1.33569,-1.98634 -1.97185,-3.51697c-0.63616,-1.53063 -1.20415,-4.07304 -1.20415,-4.07304" fill="none" stroke="#000000" stroke-width="0.25" stroke-linecap="round"/><path d="M247.31105,187.15465l-0.41324,0.18389" fill="none" stroke="#808080" stroke-width="0.5" stroke-linecap="round"/><path d="M247.75304,188.39659l-0.54397,0.23042" fill="none" stroke="#808080" stroke-width="0.5" stroke-linecap="round"/><path d="M248.50517,191.9584l0.43429,-0.22821" fill="none" stroke="#808080" stroke-width="0.5" stroke-linecap="round"/><path d="M249.76145,193.31562l-0.4786,0.20715" fill="none" stroke="#808080" stroke-width="0.5" stroke-linecap="round"/><path d="M247.55028,190.26943l0.64954,-0.28115" fill="none" stroke="#808080" stroke-width="0.5" stroke-linecap="round"/></g><path d="M244.71038,185.14824c0,0 -1.42686,-0.62718 -1.98881,-0.93337c-0.56196,-0.30619 -1.33289,-0.95523 -1.33289,-0.95523l1.46166,-0.3843c0,0 0.72615,0.50445 1.16541,0.80824c0.43927,0.30379 1.20887,0.83606 1.20887,0.83606z" fill="#f8b820" stroke="none" stroke-width="0" stroke-linecap="butt"/><path d="M246.6517,184.97293c0.50114,0.27004 1.44975,0.71111 1.2375,1.23461c-0.22663,0.55898 -1.40411,-0.05257 -1.91619,-0.30124c-0.95636,-0.46442 -1.4191,-0.65065 -1.1551,-1.14058c0.20022,-0.37156 1.33265,-0.06283 1.83379,0.20721z" fill="#ffffff" stroke="none" stroke-width="0" stroke-linecap="butt"/><g data-paper-data="{&quot;index&quot;:null}"><path d="M241.34499,181.24311c-0.58947,2.84453 -6.22504,2.97527 -8.98878,2.35579c-2.34761,-0.52621 -3.4185,-7.81699 0.05424,-10.04021c1.34844,-0.86327 2.1053,-1.18051 4.47567,-0.74503c2.43314,0.44701 5.35136,4.12275 4.45887,8.42946z" fill="#f8b820" stroke="none" stroke-width="0" stroke-linecap="butt"/><path d="M240.65652,181.55226c-0.35172,1.86962 -3.32589,3.80017 -5.69708,3.31398c-1.28828,-0.26415 -2.60157,-0.63181 -3.25551,-2.0213c-0.19996,-0.43793 1.67094,-2.27495 2.93827,-2.62608c2.98245,-0.82631 6.13519,0.69086 6.01431,1.3334z" fill="#ffffff" stroke="none" stroke-width="0" stroke-linecap="butt"/><path d="M240.66439,176.13721c-0.21659,-0.20345 -0.99151,-1.34133 -1.76314,-1.93531c-0.77162,-0.59397 -2.08551,-1.30546 -2.08551,-1.30546c0,0 0.53824,-1.20929 1.15662,-1.64343c0.61839,-0.43415 1.72904,-0.8175 2.09567,-0.63986c2.43551,1.18007 0.90301,5.81214 0.59635,5.52408z" fill="#ffffff" stroke="none" stroke-width="0" stroke-linecap="butt"/><path d="M232.33647,173.68173c0,0 -1.05409,1.06508 -1.33706,2.32756c-0.28297,1.26248 -0.57558,2.77003 -0.57558,2.77003c0,0 -0.96845,-0.94831 -1.57088,-2.11349c-0.54582,-1.05569 -0.66494,-2.37601 0.02193,-2.89934c1.70904,-1.30211 3.4616,-0.08475 3.4616,-0.08475z" fill="#ffffff" stroke="none" stroke-width="0" stroke-linecap="butt"/><g stroke="none" stroke-width="0" stroke-linecap="butt"><path d="M233.73806,179.45613c-0.3548,0.9232 -1.32284,1.3959 -2.16216,1.05581c-0.83933,-0.34009 -1.23211,-1.36419 -0.8773,-2.28738c0.3548,-0.9232 1.32282,-1.39591 2.16215,-1.05581c0.83933,0.34009 1.23212,1.36419 0.87731,2.28739z" fill="#ffffff"/><path d="M231.41577,178.91324c-0.00368,-0.51277 0.33326,-1.02698 0.78192,-1.03021c0.44867,-0.00323 0.83917,0.50578 0.84285,1.01853c0.00368,0.51278 -0.35707,0.93107 -0.80573,0.93429c-0.44867,0.00323 -0.81538,-0.40985 -0.81906,-0.92261z" fill="#000000"/></g><g stroke="none" stroke-width="0" stroke-linecap="butt"><path d="M239.17247,177.65436c0.13796,1.12031 -0.41941,2.1109 -1.24489,2.21256c-0.8255,0.10165 -1.60652,-0.72414 -1.74447,-1.84444c-0.13796,-1.12031 0.4194,-2.11091 1.24489,-2.21256c0.8255,-0.10165 1.60652,0.72414 1.74447,1.84444z" fill="#ffffff"/><path d="M236.83722,177.96229c-0.00368,-0.51277 0.33326,-1.02698 0.78192,-1.03021c0.44867,-0.00323 0.83917,0.50578 0.84285,1.01853c0.00368,0.51278 -0.35707,0.93107 -0.80573,0.93429c-0.44867,0.00323 -0.81538,-0.40985 -0.81906,-0.92261z" fill="#000000"/></g><path d="M236.61566,177.42668l-2.29314,-2.11503c0,0 -0.2312,1.00534 -0.42051,1.57666c-0.18931,0.57133 -0.54608,1.34046 -0.54608,1.34046c0,0 -1.07861,-1.29593 -1.16134,-1.74417c-0.10243,-0.55501 0.13964,-1.58036 0.13964,-1.58036l3.87991,-0.7384c0,0 0.73267,0.48833 0.79828,1.28871c0.04734,0.57747 -0.39674,1.97211 -0.39674,1.97211z" fill="#f8b820" stroke="none" stroke-width="0" stroke-linecap="butt"/><g stroke="none" stroke-width="0" stroke-linecap="butt"><path d="M235.48931,180.43092c0.54787,0.1228 1.11716,0.21016 1.0614,0.5597c-0.0893,0.55979 -0.71388,0.70994 -1.271,0.77959c-0.7784,0.09731 -1.1928,-0.0345 -1.19853,-0.38842c-0.01221,-0.75523 0.86026,-1.07369 1.40813,-0.95089z" fill="#71716f"/><path d="M235.50577,181.36788c-0.95992,-0.03396 -1.22764,-0.58572 -1.22764,-0.58572c0,0 0.59461,-0.46598 0.93761,-0.56624c0.34301,-0.10026 0.62631,-0.12643 0.90506,0.02475c0.27875,0.15119 0.47845,0.41416 0.38568,0.67531c-0.16136,0.45421 -0.36642,0.47434 -1.00071,0.45189z" fill="#010101"/><path d="M234.95957,181.17753c-0.03471,0.15484 -0.18836,0.25222 -0.34319,0.21751c-0.15483,-0.03471 -0.25221,-0.18835 -0.21751,-0.34318c0.03471,-0.15483 0.18835,-0.25221 0.34318,-0.21751c0.15484,0.03471 0.25222,0.18836 0.21751,0.34319z" fill="#ffffff"/></g><g data-paper-data="{&quot;index&quot;:null}"><path d="M233.92106,174.88953c0,0 -0.77496,-1.51124 -1.55414,-2.30727c-0.77918,-0.79603 -1.8568,-0.73918 -1.8568,-0.73918l-0.03636,-0.66068c0,0 1.5451,0.11711 2.36722,0.95211c0.82212,0.835 1.62553,2.5245 1.62553,2.5245z" fill="#767578" stroke="none" stroke-width="0" stroke-linecap="butt"/><path d="M228.77949,173.20256l-3.65806,-0.87448l3.1557,-2.45481l2.88603,1.45433z" fill="#ea035a" stroke="none" stroke-width="0" stroke-linecap="butt"/><path d="M225.19585,172.22985c0,0 5.04808,-0.77454 5.79113,-0.87777c0.18912,-0.02628 -0.28737,0.39524 -0.28737,0.39524" fill="none" stroke="#000000" stroke-width="0.25" stroke-linecap="round"/><path d="M228.25887,169.76612l1.41884,1.78403l-0.92139,1.65977" fill="none" stroke="#000000" stroke-width="0.25" stroke-linecap="round"/></g></g><g><path d="M239.13447,186.22346c0.07448,1.01455 0.03569,2.6074 0.03569,2.6074l-0.7426,0.43017c0,0 -0.17259,-2.43915 -0.2349,-3.33664c-0.05785,-0.83325 -0.0298,-1.53418 -0.0298,-1.53418l0.6707,-0.31906c0,0 0.22645,1.13776 0.30092,2.15231z" fill="#f8b820" stroke="none" stroke-width="0" stroke-linecap="butt"/><g><path d="M237.20499,190.77055c0.4109,-1.70005 1.68201,-2.78329 2.02666,-2.84996c1.0527,-0.20362 2.88865,1.76 2.2346,3.78073c-0.54,1.66833 -0.97868,2.70411 -2.2761,3.08033c-0.46809,0.14173 -2.55282,-1.66258 -1.98516,-4.01111z" fill="#ffffff" stroke="none" stroke-width="0" stroke-linecap="butt"/><path d="M240.09672,188.89108l-0.94046,0.36964" fill="none" stroke="#808080" stroke-width="0.5" stroke-linecap="round"/><path d="M240.59191,190.35392l-0.75514,0.25826" fill="none" stroke="#808080" stroke-width="0.5" stroke-linecap="round"/><path d="M240.02284,191.82058l0.76205,-0.16463" fill="none" stroke="#808080" stroke-width="0.5" stroke-linecap="round"/><path d="M240.60032,193.08722l-0.57673,0.05323" fill="none" stroke="#808080" stroke-width="0.5" stroke-linecap="round"/><path d="M239.16935,188.12818c0,0 0.95378,1.56638 1.22297,2.67622c0.26919,1.10984 -0.13497,2.88016 -0.13497,2.88016" fill="none" stroke="#020202" stroke-width="0.25" stroke-linecap="round"/></g></g></g></g></svg>