<svg version="1.1" xmlns="http://www.w3.org/2000/svg" xmlns:xlink="http://www.w3.org/1999/xlink" width="23.98267" height="38.60007" viewBox="0,0,23.98267,38.60007"><defs><radialGradient cx="240.18972" cy="196.41271" r="7.81069" gradientUnits="userSpaceOnUse" id="color-1"><stop offset="0" stop-color="#d6feff" stop-opacity="0"/><stop offset="1" stop-color="#d6feff" stop-opacity="0.14902"/></radialGradient></defs><g transform="translate(-231.68068,-163.59987)"><g data-paper-data="{&quot;isPaintingLayer&quot;:true}" fill-rule="nonzero" stroke-linejoin="miter" stroke-miterlimit="10" stroke-dasharray="" stroke-dashoffset="0" style="mix-blend-mode: normal"><path d="M232.76523,198.74608c-0.42224,-0.40404 0.84436,-1.57974 1.43117,-2.21706c1.56564,-1.70042 7.04191,-2.69954 9.8939,-3.28845c2.11123,-0.43595 2.69416,0.03066 2.96542,0.00727c0.79373,-0.06846 1.86107,2.19384 1.57645,2.69766c-0.0485,0.08585 -2.36636,2.05857 -3.64511,2.64272c-2.04814,0.9356 -4.23,2.52648 -5.41042,2.61172c-1.84047,0.13291 -5.27092,-0.41453 -5.27092,-0.41453c0,0 -1.11825,-1.63529 -1.54049,-2.03933z" fill="url(#color-1)" stroke-opacity="0.25098" stroke="#313040" stroke-width="2" stroke-linecap="butt"/><path d="M240.24258,178.77859c-0.06336,0.26502 -0.22401,2.6151 -0.22401,2.6151l-0.13192,3.00057l-1.01882,0.05653l0.10855,-3.13746c0,0 0.0265,-2.07617 0.20782,-2.83447c0.18133,-0.75831 0.2792,-0.8211 0.56539,-0.73736c0.28618,0.08372 0.67432,0.27879 0.493,1.0371z" data-paper-data="{&quot;index&quot;:null}" fill="#fec267" stroke="none" stroke-width="0" stroke-linecap="butt"/><g><g><path d="M236.81648,188.00488c0.00717,-0.54784 0.53448,-1.08843 0.93043,-1.82626c0.29542,-0.55047 1.03568,-0.75309 1.51833,-0.74677c1.03051,0.01348 2.08174,0.31761 2.06826,1.34811c-0.00445,0.34005 0.04783,1.04337 0.10357,1.70941c0.05501,0.65704 -0.0341,1.1254 -0.38054,1.15226c-0.4451,0.03451 -0.5091,-0.29212 -0.5091,-0.29212c0,0 -0.18884,0.36018 -0.40215,0.37126c-0.21331,0.01107 -0.55302,-0.32219 -0.55302,-0.32219c0,0 -0.23521,0.29284 -0.49357,0.30924c-0.25837,0.01639 -0.43796,-0.24861 -0.43796,-0.24861c0,0 -0.16707,0.31757 -0.49288,0.31753c-0.32582,-0.00004 -0.39841,-0.3843 -0.39841,-0.3843c0,0 -0.01395,0.29466 -0.22511,0.30469c-0.21117,0.01002 -0.04954,-0.00044 -0.16463,-0.05726c-0.09481,-0.04681 -0.56697,-1.3466 -0.5632,-1.63493z" fill="#fdfdfd" stroke="none" stroke-width="0" stroke-linecap="butt"/><path d="M237.70578,189.53335c0,0 0.21655,-0.41622 0.24439,-0.79829c0.02785,-0.38209 -0.14427,-0.83508 -0.02005,-0.97386c0.2626,-0.29338 0.91941,-0.29232 0.91941,-0.29232" fill="none" stroke="#a4a4a4" stroke-width="0.125" stroke-linecap="round"/></g><path d="M239.52562,185.77433c-0.36702,-0.03227 -1.61588,-0.09962 -1.62062,-0.39609c0.01854,-0.28452 0.34949,-0.55002 0.34949,-0.55002c0,0 -0.39687,-0.19071 -0.33792,-0.45993c0.07648,-0.34927 1.04216,-0.48794 1.56007,-0.47265c0.51791,0.01529 1.10346,0.18312 1.27157,0.43736c0.42378,0.64091 -0.04279,0.64461 -0.04279,0.64461c0,0 0.48805,0.02887 0.36235,0.67112c-0.06194,0.31646 -1.1297,0.16189 -1.54219,0.12561z" fill="#fdfdfd" stroke="none" stroke-width="0" stroke-linecap="butt"/></g><path d="M242.79096,177.91101c0,0 1.83541,0.1402 2.5126,2.82628c0.36079,1.43106 0.00811,5.02329 0.00811,5.02329c0,0 -1.10611,-2.28168 -2.03425,-3.64839c-0.92815,-1.36671 -2.64947,-2.27748 -1.99003,-2.27748c0.65944,0 1.50358,-1.92369 1.50358,-1.92369z" fill="#02124a" stroke="none" stroke-width="0" stroke-linecap="butt"/><path d="M240.0859,191.38279l-0.69388,-8.344l1.56689,-0.06774c0,0 -0.26293,1.47251 -0.17635,3.11394c0.08657,1.64142 0.55979,4.156 0.55979,4.156z" data-paper-data="{&quot;index&quot;:null}" fill="#033397" stroke="none" stroke-width="0" stroke-linecap="butt"/><g stroke="none" stroke-width="0" stroke-linecap="butt"><path d="M233.51662,197.0547c0,0 -0.45534,-2.81891 3.72252,-3.92817c4.8336,-1.82211 5.54375,-1.32394 5.86859,-0.82513c0.82328,1.26417 0.96295,2.71796 0.96295,2.71796c0,0 -0.73192,0.52999 -1.2742,0.87276c-0.22928,0.14491 -1.13911,0.53956 -1.13911,0.53956l-0.10753,-0.39126l-1.32321,0.37644l0.05496,0.55691c0,0 -1.58678,0.47161 -2.2775,0.60291c-3.17414,0.60344 -4.48749,-0.52199 -4.48749,-0.52199z" fill="#e90023"/><path d="M233.56972,197.0519l0.32916,-1.20248l1.74659,0.38364l0.645,0.96169l-1.03158,0.95688l0.08538,-0.75864l-0.7451,-0.1878l-0.98327,0.24032l-0.04623,-0.39359z" fill="#948a92"/><path d="M240.20812,196.47537c0,0 -0.21872,-1.17299 -0.16577,-2.28137c0.05618,-1.17592 0.50822,-2.1495 0.50822,-2.1495l1.4232,-0.02145l0.11505,1.23631c0,0 -0.37822,0.89705 -0.47613,1.51525c-0.09792,0.61819 -0.05348,1.20917 -0.05348,1.20917z" fill="#deca55"/><path d="M233.64736,197.50515l-0.29523,-0.29539l0.24395,-1.3287l0.88023,-1.39687l2.10384,0.82739l0.70026,1.76274l2.90987,-1.36144l0.12724,1.28693l-3.33256,1.30826l-1.83338,-0.16236l0.19026,-1.30735l-1.373,-0.64169z" fill="#edeeee"/><g><path d="M233.89571,196.92112c0.17994,-0.29477 0.60781,-0.4034 0.99305,-0.20529c0.38524,0.19813 0.46075,0.59768 0.28081,0.89246c-0.17994,0.29477 -0.49562,0.34232 -0.93245,0.2053c-0.30686,-0.09625 -0.52135,-0.59769 -0.34141,-0.89247z" fill="#ece09c"/><path d="M234.12705,197.83213c-0.25681,-0.13209 -0.36778,-0.51968 -0.24781,-0.71619c0.11996,-0.1965 0.48599,-0.27905 0.74282,-0.14696c0.22651,0.10179 0.59229,0.40972 0.45993,0.68589c-0.12617,0.26326 -0.63752,0.36995 -0.95495,0.17726z" fill="#000000"/></g><path d="M240.0534,194.87867c0,0 -0.03494,-0.32519 -0.02531,-0.51055c0.01151,-0.22164 0.08976,-0.73001 0.08976,-0.73001l0.51487,2.69101l-0.34611,0.1418c0,0 -0.12757,-0.51719 -0.16603,-0.77978c-0.03926,-0.26805 -0.06716,-0.81247 -0.06716,-0.81247z" fill="#6a2625"/><path d="M243.81077,193.93765l0.13297,0.61075c0,0 -0.94701,0.66912 -1.04705,0.20962c-0.10005,-0.4595 0.91408,-0.82038 0.91408,-0.82038z" fill="#eac763"/><path d="M239.07685,192.37671c-0.01497,-0.4895 0.35116,-0.98715 0.35116,-0.98715c0,0 -0.50604,-0.27488 -0.47003,-0.74345c0.04672,-0.60792 1.19873,-0.97097 1.82837,-1.01218c0.62963,-0.04123 1.36135,0.16995 1.59854,0.58337c0.59792,1.04214 0.03299,1.10918 0.03299,1.10918c0,0 0.59525,-0.01403 0.52747,1.10187c-0.03341,0.54986 -1.16369,0.62697 -2.00902,0.61569c-0.84533,-0.01127 -1.81472,-0.16038 -1.85947,-0.66733z" fill="#fdfdfd"/></g><path d="M240.97783,184.03588l1.23824,-1.28246c0,0 0.00118,0.96045 0.48215,1.56001c0.57741,0.71978 2.74613,2.46427 2.74613,2.46427c0,0 -2.23903,-0.52196 -3.25715,-1.14695c-1.01813,-0.62499 -1.20936,-1.59486 -1.20936,-1.59486z" fill="#02124a" stroke="none" stroke-width="0" stroke-linecap="butt"/><path d="M238.54431,181.70756c-0.43138,-1.54049 -0.30073,-3.2912 1.03985,-3.66659c1.34058,-0.3754 3.19602,-1.70665 3.62739,-0.16616c0.25781,0.9207 -0.19901,2.50673 -0.0286,3.53088c0.30556,1.83643 -0.27374,2.31725 -1.07252,2.54092c-1.34057,0.3754 -3.13474,-0.69855 -3.56612,-2.23905z" fill="#033397" stroke="none" stroke-width="0" stroke-linecap="butt"/><path d="M238.32716,181.42395c-0.45161,-1.44876 -0.0256,-1.81025 0.43005,-2.64625c0.23104,-0.4239 1.42981,-0.55195 2.29193,0.23076c0.79564,0.72236 0.97881,4.31583 -0.14214,4.49443c-1.24907,0.199 -2.26004,-1.053 -2.57985,-2.07894z" fill="#fec267" stroke="none" stroke-width="0" stroke-linecap="butt"/><path d="M242.66945,192.53258l-1.27047,-9.06793l1.7107,-0.2297c0,0 -0.19756,1.63853 -0.00227,3.42732c0.19529,1.78879 0.86719,4.49532 0.86719,4.49532z" data-paper-data="{&quot;index&quot;:null}" fill="#033397" stroke="none" stroke-width="0" stroke-linecap="butt"/><g fill="#033397" stroke-width="0"><path d="M236.29918,172.86241c0,-2.93512 2.37938,-5.31452 5.31451,-5.31452c2.93512,0 5.31451,2.37939 5.31451,5.31452c0,2.93512 -2.37938,5.31451 -5.31451,5.31451c-2.93512,0 -5.31451,-2.37938 -5.31451,-5.31451z" stroke="none" stroke-linecap="butt"/><path d="M236.21118,172.04801c0,0 0.60536,-7.15214 9.36625,-8.33564c6.0232,-0.84068 9.8224,3.30609 9.8224,3.30609c0,0 -1.56685,-0.12452 -2.89155,0.24595c-1.09069,0.30502 -2.32267,1.24577 -2.32267,1.24577c0,0 2.69329,1.17201 4.18753,4.24538c1.73435,3.56725 1.21842,6.60284 1.21842,6.60284c0,0 -1.71921,-2.05438 -3.0894,-2.99828c-0.82393,-0.5676 -2.57939,-1.04506 -2.57939,-1.04506c0,0 1.12597,1.91347 1.21686,4.21201c0.10728,2.71272 -0.89666,4.21751 -0.89666,4.21751c0,0 -1.24034,-3.0861 -2.82434,-4.52009c-1.58399,-1.43398 -3.778,-1.45699 -3.778,-1.45699" stroke="#000000" stroke-linecap="round"/></g><path d="M241.95941,167.63376c0,0 1.64372,-1.34837 2.82337,-2.0609c1.17967,-0.71253 1.34119,-0.74448 1.59988,-0.58408c0.2517,0.15607 0.18614,1.38491 0.17648,2.29118c-0.00967,0.90627 -0.22167,1.94582 -0.22167,1.94582" fill="#033397" stroke="#000000" stroke-width="0.125" stroke-linecap="round"/><path d="M236.56419,171.26005c0,0 -0.84875,-1.55844 -1.11193,-2.34129c-0.22997,-0.68404 -0.67638,-2.0572 -0.38103,-2.0995c0.24647,-0.03531 1.2072,0.39345 1.73266,0.50884c0.57254,0.12574 1.57345,0.21722 1.57345,0.21722" fill="#033397" stroke="#000000" stroke-width="0" stroke-linecap="round"/><path d="M236.47577,171.12738c0,0 0.33818,1.35088 0.63976,2.18777c0.30158,0.83689 0.30418,0.86466 0.59765,1.36887c0.09348,0.16063 0.24476,-0.00745 0.24476,-0.00745c0,0 0.40263,0.54543 0.64272,0.29459c0.79869,-0.41863 1.02787,-2.34141 1.82419,-3.41323c0.80544,-1.08413 1.62289,-1.21105 1.99891,-1.25606c0.32336,-0.03871 1.04119,0.11267 1.44964,0.88483c0.28269,0.65684 0.37758,2.13024 -0.06576,2.9653c-0.44334,0.83505 -1.07334,1.77428 -2.30487,2.03529c-1.23152,0.26103 -2.33987,-1.08387 -3.45707,-0.81854c-0.13774,0.03271 -0.87176,0.58725 -0.87176,0.58725c0,0 -0.74049,-1.54326 -0.89447,-2.60829c-0.15399,-1.06504 0.19632,-2.22034 0.19632,-2.22034z" fill="#fdfdfd" stroke="#000000" stroke-width="0" stroke-linecap="butt"/><path d="M237.23305,176.11391c0.00991,-0.24284 0.26844,-0.75042 1.12196,-0.8277c0.66167,-0.06977 1.65321,0.70898 2.6248,0.74822c1.45983,0.05896 1.93397,-1.74116 3.58526,-1.26901c1.32994,0.35803 0.68094,3.29708 -3.19639,3.39707c-0.92384,-0.02422 -2.19507,-0.40457 -2.93059,-0.80345c-0.89563,-0.4857 -1.22107,-0.85199 -1.20504,-1.24514z" fill="#fec267" stroke="#000000" stroke-width="0" stroke-linecap="butt"/><path d="M236.11788,172.3069c0,0 -0.44231,-2.0172 -0.30905,-2.33792c0.20348,-0.48976 0.96279,0.06909 0.96279,0.06909" fill="#033397" stroke="#000000" stroke-width="0.125" stroke-linecap="round"/><path d="M235.96406,175.07563c0.04767,-0.13663 0.65204,0.15326 1.11519,0.30764c0.46314,0.15438 1.11519,0.22783 1.11519,0.46146c0,0.38744 -0.7438,0.36492 -1.269,0.23073c-0.83169,-0.2125 -1.11765,-0.55187 -0.96137,-0.99982z" fill="#0d1114" stroke="none" stroke-width="0" stroke-linecap="butt"/><path d="M236.95511,175.33356c0.22988,0.04286 0.40466,0.13972 0.39037,0.21635c-0.01429,0.07663 -0.21223,0.10401 -0.4421,0.06114c-0.22988,-0.04286 -0.40466,-0.13972 -0.39037,-0.21635c0.01429,-0.07663 0.21223,-0.10401 0.4421,-0.06114z" fill="#fdfdfd" stroke="none" stroke-width="0" stroke-linecap="butt"/><path d="M243.0295,167.58433c0,0 2.03726,-1.68473 2.72865,-1.50546c0.48185,0.12494 -0.09409,3.10501 -0.09409,3.10501c0,0 -0.08843,-0.4319 -1.14178,-0.96602c-0.96298,-0.48829 -1.49277,-0.63353 -1.49277,-0.63353z" fill="#fec267" stroke="none" stroke-width="0" stroke-linecap="butt"/><g stroke="none" stroke-width="0" stroke-linecap="butt"><path d="M240.39879,172.27434c0.31013,-0.04844 0.51476,0.55205 0.63371,1.31363c0.11895,0.76158 0.10717,1.39586 -0.20297,1.4443c-0.27914,0.04359 -0.51476,-0.55204 -0.63371,-1.31362c-0.11895,-0.76158 -0.07619,-1.40071 0.20297,-1.4443z" fill="#005c2d"/><path d="M240.51982,173.04904c0.11124,-0.01737 0.24043,0.21827 0.28854,0.52633c0.04811,0.30806 -0.00307,0.57187 -0.11431,0.58924c-0.11124,0.01737 -0.24043,-0.21827 -0.28854,-0.52632c-0.04811,-0.30806 0.00307,-0.57188 0.11431,-0.58924z" fill="#000000"/><path d="M240.48591,172.83213c0.11124,-0.01737 0.22418,0.11422 0.25225,0.29392c0.02806,0.17969 -0.03937,0.33945 -0.15061,0.35684c-0.11124,0.01737 -0.22418,-0.11422 -0.25224,-0.29392c-0.02806,-0.17969 0.03936,-0.33945 0.15061,-0.35684z" fill="#ffffff"/></g><g stroke="none" stroke-width="0" stroke-linecap="butt"><path d="M236.64109,173.24361c0.20417,-0.06381 0.40244,0.32038 0.55913,0.82175c0.15669,0.50138 0.21248,0.93008 0.00831,0.99389c-0.18376,0.05743 -0.40244,-0.32038 -0.55913,-0.82175c-0.15669,-0.50138 -0.19208,-0.93647 -0.00831,-0.99389z" fill="#005c2d"/><path d="M236.80049,173.75362c0.07324,-0.02289 0.18398,0.12297 0.24737,0.32577c0.06338,0.2028 0.0554,0.38577 -0.01784,0.40865c-0.07324,0.02289 -0.18398,-0.12297 -0.24737,-0.32577c-0.06338,-0.2028 -0.0554,-0.38577 0.01784,-0.40865z" fill="#000000"/><path d="M236.75588,173.61082c0.07324,-0.02289 0.16257,0.05446 0.19955,0.17277c0.03698,0.1183 0.00758,0.23276 -0.06566,0.25565c-0.07324,0.02289 -0.16257,-0.05446 -0.19955,-0.17276c-0.03698,-0.1183 -0.00758,-0.23276 0.06566,-0.25565z" fill="#ffffff"/></g><path d="M242.97909,177.10468c-0.51586,0.12294 -1.52383,0.09895 -1.52383,0.09895c0,0 0.851,-0.11371 1.30721,-0.22243c0.45621,-0.10872 1.01955,-0.57653 1.01955,-0.57653c0,0 -0.28708,0.57708 -0.80293,0.70001z" fill="#000000" stroke="#000000" stroke-width="0" stroke-linecap="butt"/><path d="M237.60106,172.30742c0.18645,0 0.43885,1.32004 0.43885,1.90733c0,0.58728 -0.30382,0.48949 -0.30382,0.48949c0,0 -0.25775,-0.43553 -0.38164,-0.71916c-0.12387,-0.28362 -0.25977,-0.7493 -0.25977,-0.7493c0,0 0.31993,-0.92835 0.50637,-0.92835z" fill="#033397" stroke="none" stroke-width="0" stroke-linecap="butt"/><g stroke="none" stroke-width="0" stroke-linecap="butt"><path d="M235.67992,197.92421c0,0 -0.48148,-2.98075 3.93624,-4.1537c5.11111,-1.92673 5.86204,-1.39996 6.20553,-0.87251c0.87054,1.33675 1.01823,2.87401 1.01823,2.87401c0,0 -0.77394,0.56042 -1.34735,0.92287c-0.24245,0.15323 -1.20451,0.57054 -1.20451,0.57054l-0.1137,-0.41372l-1.39918,0.39805l0.05812,0.58888c0,0 -1.67788,0.49868 -2.40826,0.63752c-3.35637,0.63808 -4.74513,-0.55195 -4.74513,-0.55195z" fill="#e90023"/><path d="M235.73606,197.92124l0.34806,-1.27152l1.84687,0.40567l0.68203,1.0169l-1.0908,1.01182l0.09028,-0.8022l-0.78788,-0.19858l-1.03972,0.25411l-0.04889,-0.41618z" fill="#948a92"/><path d="M242.75559,197.31161c0,0 -0.23128,-1.24034 -0.17529,-2.41235c0.0594,-1.24344 0.5374,-2.27291 0.5374,-2.27291l1.50491,-0.02268l0.12166,1.30729c0,0 -0.39993,0.94855 -0.50347,1.60224c-0.10354,0.65368 -0.05655,1.27859 -0.05655,1.27859z" fill="#deca55"/><path d="M235.81816,198.40052l-0.31218,-0.31235l0.25796,-1.40499l0.93077,-1.47707l2.22463,0.8749l0.74047,1.86395l3.07693,-1.43961l0.13455,1.36082l-3.52389,1.38338l-1.93864,-0.17168l0.20118,-1.38241l-1.45183,-0.67853z" fill="#edeeee"/><g><path d="M236.08076,197.78296c0.19027,-0.31169 0.64271,-0.42656 1.05007,-0.21708c0.40736,0.20951 0.4872,0.63199 0.29693,0.9437c-0.19027,0.31169 -0.52408,0.36197 -0.98598,0.21709c-0.32448,-0.10178 -0.55128,-0.632 -0.36101,-0.94371z" fill="#ece09c"/><path d="M236.32539,198.74627c-0.27156,-0.13968 -0.38889,-0.54952 -0.26203,-0.75731c0.12685,-0.20778 0.51389,-0.29507 0.78546,-0.1554c0.23952,0.10763 0.6263,0.43324 0.48634,0.72527c-0.13342,0.27838 -0.67413,0.3912 -1.00978,0.18744z" fill="#000000"/></g><path d="M242.59198,195.62324c0,0 -0.03695,-0.34386 -0.02676,-0.53986c0.01217,-0.23436 0.09491,-0.77193 0.09491,-0.77193l0.54443,2.84551l-0.36598,0.14994c0,0 -0.13489,-0.54688 -0.17556,-0.82455c-0.04152,-0.28344 -0.07102,-0.85912 -0.07102,-0.85912z" fill="#6a2625"/><path d="M246.56509,194.6282l0.1406,0.64581c0,0 -1.00138,0.70754 -1.10717,0.22165c-0.1058,-0.48588 0.96656,-0.86748 0.96656,-0.86748z" fill="#eac763"/><path d="M241.55937,192.97764c-0.01583,-0.51761 0.37132,-1.04382 0.37132,-1.04382c0,0 -0.53509,-0.29066 -0.49702,-0.78614c0.0494,-0.64282 1.26755,-1.02671 1.93334,-1.07029c0.66578,-0.0436 1.43951,0.17971 1.69032,0.61686c0.63225,1.10197 0.03489,1.17287 0.03489,1.17287c0,0 0.62942,-0.01484 0.55775,1.16513c-0.03533,0.58143 -1.23049,0.66297 -2.12436,0.65104c-0.89387,-0.01191 -1.91891,-0.16959 -1.96623,-0.70565z" fill="#fdfdfd"/></g><path d="M242.50049,178.12009c0.27541,-0.11072 0.38038,-0.0554 0.65036,0.70134c0.26999,0.75674 0.54074,2.87034 0.54074,2.87034l0.47745,3.18792l-1.02221,0.03277l-0.48462,-3.04635c0,0 -0.43673,-2.38084 -0.53107,-2.64532c-0.26999,-0.75674 0.09394,-0.98998 0.36937,-1.1007z" data-paper-data="{&quot;index&quot;:null}" fill="#fec267" stroke="none" stroke-width="0" stroke-linecap="butt"/><g fill="#fdfdfd" stroke="none" stroke-width="0" stroke-linecap="butt"><g><path d="M241.45512,188.85624c-0.06767,-0.54369 0.38092,-1.15121 0.67247,-1.93616c0.21753,-0.58564 0.9232,-0.8874 1.4022,-0.94702c1.02269,-0.1273 2.10561,0.03051 2.2329,1.0532c0.04202,0.33748 0.18979,1.02707 0.33592,1.67928c0.14417,0.64339 0.11982,1.11953 -0.21971,1.19342c-0.43622,0.09494 -0.54422,-0.2199 -0.54422,-0.2199c0,0 -0.13793,0.38259 -0.34772,0.42267c-0.2098,0.04009 -0.59182,-0.24369 -0.59182,-0.24369c0,0 -0.19303,0.3222 -0.44675,0.37371c-0.25372,0.05149 -0.46779,-0.18651 -0.46779,-0.18651c0,0 -0.12216,0.3374 -0.44494,0.38182c-0.32278,0.04442 -0.44714,-0.32633 -0.44714,-0.32633c0,0 0.0264,0.2938 -0.18141,0.33256c-0.20783,0.03876 -0.04913,0.00634 -0.17089,-0.03426c-0.10031,-0.03343 -0.74547,-1.25662 -0.78108,-1.54276z"/></g><path d="M243.83447,186.27679c-0.36799,0.01812 -1.61437,0.12185 -1.65951,-0.17119c-0.02045,-0.28439 0.27115,-0.59258 0.27115,-0.59258c0,0 -0.41918,-0.13476 -0.39752,-0.4095c0.0281,-0.35645 0.96581,-0.62561 1.48095,-0.68116c0.51514,-0.05555 1.11813,0.0308 1.31937,0.25973c0.50728,0.57706 0.0456,0.64442 0.0456,0.64442c0,0 0.48743,-0.038 0.45056,0.61537c-0.01817,0.32195 -1.09703,0.31456 -1.5106,0.33493z"/></g></g></g></svg>