<svg version="1.1" xmlns="http://www.w3.org/2000/svg" xmlns:xlink="http://www.w3.org/1999/xlink" width="28.38772" height="24.61291" viewBox="0,0,28.38772,24.61291"><g transform="translate(-224.53916,-170.16761)"><g data-paper-data="{&quot;isPaintingLayer&quot;:true}" fill-rule="nonzero" stroke-linejoin="miter" stroke-miterlimit="10" stroke-dasharray="" stroke-dashoffset="0" style="mix-blend-mode: normal"><g data-paper-data="{&quot;index&quot;:null}"><g stroke="none" stroke-width="0" stroke-linecap="butt"><path d="M237.02659,177.58997c0,0 0.30271,-1.22289 0.63615,-1.75853c0.33053,-0.53095 0.57011,-1.36991 0.57011,-1.36991c0,0 6.0479,-0.25047 7.18975,2.19029c1.57616,3.36914 -2.51336,6.79537 -2.51336,6.79537c0,0 -0.80059,-3.80782 -1.69016,-4.85608c-0.64319,-0.75793 -4.19249,-1.00114 -4.19249,-1.00114z" fill="#f8b820"/><path d="M237.03924,177.55144c0,0 -1.29076,-0.30718 -2.18507,-0.54349c-0.8943,-0.2363 -2.28296,-0.63711 -2.28296,-0.63711c0,0 1.561,-1.09299 2.68945,-1.45891c1.12846,-0.36592 3.02923,-0.39545 3.02923,-0.39545c0,0 -0.13734,1.10357 -0.60329,1.82598c-0.46595,0.72242 -0.64735,1.20898 -0.64735,1.20898z" fill="#ffffff"/></g><path d="M236.79516,176.78148l0.56635,0.17041" fill="none" stroke="#808080" stroke-width="0.5" stroke-linecap="round"/><path d="M237.6607,175.70357l0.48121,0.20334" fill="none" stroke="#808080" stroke-width="0.5" stroke-linecap="round"/><path d="M238.56771,175.09811l-0.64328,-0.10712" fill="none" stroke="#808080" stroke-width="0.5" stroke-linecap="round"/></g><g><g stroke="none" stroke-width="0" stroke-linecap="butt"><path d="M244.27901,178.59111c-0.88957,1.04826 -1.69016,4.85608 -1.69016,4.85608c0,0 -4.08952,-3.42623 -2.51336,-6.79537c1.14185,-2.44076 7.18975,-2.19029 7.18975,-2.19029c0,0 0.23958,0.83896 0.57011,1.36991c0.33344,0.53564 0.63615,1.75853 0.63615,1.75853c0,0 -3.5493,0.24321 -4.19249,1.00114z" fill="#f8b820"/><path d="M248.45884,177.55145c0,0 -0.1814,-0.48656 -0.64735,-1.20898c-0.46595,-0.72241 -0.60329,-1.82598 -0.60329,-1.82598c0,0 1.90077,0.02953 3.02923,0.39545c1.12845,0.36592 2.68945,1.45891 2.68945,1.45891c0,0 -1.38866,0.40081 -2.28296,0.63711c-0.89431,0.23631 -2.18507,0.54349 -2.18507,0.54349z" fill="#ffffff"/></g><path d="M248.13658,176.95188l0.56635,-0.17041" fill="none" stroke="#808080" stroke-width="0.5" stroke-linecap="round"/><path d="M247.90882,175.98929l-0.48121,0.20334" fill="none" stroke="#808080" stroke-width="0.5" stroke-linecap="round"/><path d="M246.93038,175.09812l0.64328,-0.10712" fill="none" stroke="#808080" stroke-width="0.5" stroke-linecap="round"/></g><g data-paper-data="{&quot;index&quot;:null}"><g><path d="M247.63541,186.26295c0.54044,0.4338 0.62094,2.01823 0.49933,2.81436c-0.12161,0.79616 -1.23473,4.91788 -2.76668,5.5946c-0.39445,0.21728 -1.64653,-1.24456 -2.08113,-4.11624c-0.34966,-2.31041 0.19591,-4.58644 0.40886,-4.75407c0.78062,-0.61456 3.39918,0.02755 3.93962,0.46135z" fill="#c01515" stroke="none" stroke-width="0" stroke-linecap="butt"/><path d="M247.67788,190.75757c0,0 -1.33887,-0.25227 -2.15595,-0.18885c-0.81708,0.06341 -2.10366,0.54529 -2.10366,0.54529c0,0 -0.11779,-0.40253 -0.18099,-0.93401c-0.06321,-0.53149 -0.03087,-1.44728 -0.03087,-1.44728c0,0 1.30778,-0.33551 2.33717,-0.22778c1.02941,0.10772 2.54713,0.73892 2.54713,0.73892c0,0 -0.18462,0.79303 -0.24047,0.99782c-0.05585,0.20479 -0.17234,0.5159 -0.17234,0.5159z" fill="#a8c8d8" stroke="none" stroke-width="0" stroke-linecap="butt"/><path d="M245.19549,194.57043c0,0 -0.84121,-2.24098 -1.10694,-3.87711c-0.26573,-1.63613 -0.23163,-4.24099 -0.23163,-4.24099" fill="none" stroke="#000000" stroke-width="0.25" stroke-linecap="round"/><path d="M244.14001,186.70391l-0.44452,0.08355" fill="none" stroke="#808080" stroke-width="0.5" stroke-linecap="round"/><path d="M244.28344,188.01436l-0.58246,0.09866" fill="none" stroke="#808080" stroke-width="0.5" stroke-linecap="round"/><path d="M244.66847,191.53177l-0.47524,0.12182" fill="none" stroke="#808080" stroke-width="0.5" stroke-linecap="round"/><path d="M245.10237,193.26412l-0.51349,0.0911" fill="none" stroke="#808080" stroke-width="0.5" stroke-linecap="round"/><path d="M244.35081,189.66622l-0.69689,0.12365" fill="none" stroke="#808080" stroke-width="0.5" stroke-linecap="round"/></g><path d="M241.05721,184.87795c0,0 -1.39155,-0.70206 -1.93644,-1.03765c-0.54491,-0.3356 -1.28029,-1.02466 -1.28029,-1.02466l1.48,-0.30615c0,0 0.69834,0.5423 1.12085,0.86898c0.42252,0.32669 1.16277,0.89907 1.16277,0.89907z" fill="#f8b820" stroke="none" stroke-width="0" stroke-linecap="butt"/><path d="M243.0051,184.80604c0.48609,0.29627 1.40995,0.78709 1.1702,1.29858c-0.25599,0.54616 -1.39934,-0.12705 -1.89749,-0.40256c-0.93035,-0.51455 -1.38255,-0.72508 -1.09291,-1.2003c0.21967,-0.3604 1.33411,0.00802 1.8202,0.30429z" fill="#ffffff" stroke="none" stroke-width="0" stroke-linecap="butt"/></g><g><path d="M236.13687,187.36887l-1.40006,0.919c0,0 0.90719,-2.04368 1.42726,-2.76293c0.61015,-0.84383 2.18317,-2.72241 2.18317,-2.72241l0.57657,0.51626c0,0 -1.33837,1.67277 -1.83572,2.39553c-0.41763,0.6069 -0.95124,1.65454 -0.95124,1.65454z" fill="#f8b820" stroke="none" stroke-width="0" stroke-linecap="butt"/><g data-paper-data="{&quot;index&quot;:null}"><path d="M236.0598,187.01509c1.09397,-0.01745 2.50912,2.3403 1.42684,4.30207c-0.89354,1.61967 -1.55152,2.60635 -2.92645,2.75689c-0.49732,0.06049 -2.19461,-2.1786 -1.12891,-4.49379c0.77144,-1.67592 2.27035,-2.55943 2.62852,-2.56516z" fill="#a8c8d8" stroke="none" stroke-width="0" stroke-linecap="butt"/><path d="M236.71698,188.17261l-1.01723,0.20895" fill="none" stroke="#808080" stroke-width="0.5" stroke-linecap="round"/><path d="M236.90034,189.76966l-0.80858,0.12808" fill="none" stroke="#808080" stroke-width="0.5" stroke-linecap="round"/><path d="M236.81621,191.14602l-0.79559,0.03038" fill="none" stroke="#808080" stroke-width="0.5" stroke-linecap="round"/><path d="M235.74085,192.53587l0.58695,0.05051" fill="none" stroke="#808080" stroke-width="0.5" stroke-linecap="round"/><path d="M235.95351,187.21746c0,0 0.61906,1.78748 0.65186,2.97973c0.0328,1.19224 -0.99165,3.38582 -0.99165,3.38582" fill="none" stroke="#020202" stroke-width="0.25" stroke-linecap="round"/></g></g><g data-paper-data="{&quot;index&quot;:null}"><path d="M240.82605,182.23008c3.33404,0.26803 3.76648,2.8575 3.61594,4.51084c-0.16191,1.7781 -4.58182,2.49413 -6.63329,0.89801c-2.02404,-1.57477 -1.66936,-3.5655 -0.07922,-4.63442c1.06693,-0.7172 1.55711,-0.89819 3.09657,-0.77442z" fill="#f8b820" stroke="none" stroke-width="0" stroke-linecap="butt"/><path d="M241.09683,183.65782c1.15451,-0.15671 3.13433,1.23803 3.31154,3.10443c0.11956,1.2591 -1.89635,2.87146 -3.50029,2.77999c-2.14338,-0.12225 -3.17637,-1.58961 -3.17241,-2.9024c0.00233,-0.77222 0.01634,-2.52801 3.36116,-2.98201z" fill="#ffffff" stroke="none" stroke-width="0" stroke-linecap="butt"/><path d="M238.86906,184.71497l-0.38303,-0.4153" fill="none" stroke="#808080" stroke-width="0.5" stroke-linecap="round"/><path d="M240.43146,183.97856l-0.0477,-0.46838" fill="none" stroke="#808080" stroke-width="0.5" stroke-linecap="round"/><path d="M242.14505,184.44763l0.23454,-0.85679" fill="none" stroke="#808080" stroke-width="0.5" stroke-linecap="round"/><path d="M243.70138,185.51009l0.2903,-0.58799" fill="none" stroke="#808080" stroke-width="0.5" stroke-linecap="round"/></g><g><path d="M250.96938,186.35114c0.52647,0.45065 0.55689,2.03683 0.41019,2.82873c-0.14669,0.79192 -1.38944,4.87643 -2.942,5.50443c-0.40112,0.20472 -1.6064,-1.29594 -1.95009,-4.17992c-0.27651,-2.3203 0.34066,-4.57796 0.5588,-4.73878c0.79964,-0.5896 3.39662,0.13489 3.92309,0.58554z" fill="#f72526" stroke="none" stroke-width="0" stroke-linecap="butt"/><path d="M250.86987,190.84488c0,0 -1.33024,-0.29443 -2.14891,-0.25685c-0.81868,0.03758 -2.11983,0.47858 -2.11983,0.47858c0,0 -0.10502,-0.40605 -0.1514,-0.93926c-0.04639,-0.53322 0.01486,-1.44753 0.01486,-1.44753c0,0 1.31772,-0.29404 2.3432,-0.15385c1.0255,0.14018 2.52252,0.819 2.52252,0.819c0,0 -0.20957,0.7868 -0.27187,0.98973c-0.06229,0.20293 -0.18854,0.5102 -0.18854,0.5102z" fill="#ffffff" stroke="none" stroke-width="0" stroke-linecap="butt"/><path d="M248.2683,194.57743c0,0 -0.77001,-2.26643 -0.98393,-3.91013c-0.21392,-1.6437 -0.09757,-4.24619 -0.09757,-4.24619" fill="none" stroke="#000000" stroke-width="0.25" stroke-linecap="round"/><path d="M247.46179,186.68153l-0.44694,0.06947" fill="none" stroke="#808080" stroke-width="0.5" stroke-linecap="round"/><path d="M246.97847,188.0761l0.58529,-0.08022" fill="none" stroke="#808080" stroke-width="0.5" stroke-linecap="round"/><path d="M247.35867,191.63039l0.47885,-0.10675" fill="none" stroke="#808080" stroke-width="0.5" stroke-linecap="round"/><path d="M248.21648,193.26883l-0.51611,0.07484" fill="none" stroke="#808080" stroke-width="0.5" stroke-linecap="round"/><path d="M246.87848,189.75063l0.70045,-0.10158" fill="none" stroke="#808080" stroke-width="0.5" stroke-linecap="round"/></g><path d="M243.99608,185.14816c0,0 -1.42686,-0.62718 -1.98881,-0.93337c-0.56196,-0.30619 -1.33289,-0.95523 -1.33289,-0.95523l1.46166,-0.3843c0,0 0.72615,0.50445 1.16541,0.80824c0.43927,0.30379 1.20887,0.83606 1.20887,0.83606z" fill="#f8b820" stroke="none" stroke-width="0" stroke-linecap="butt"/><path d="M245.9374,184.97292c0.50114,0.27004 1.44975,0.71111 1.2375,1.23461c-0.22663,0.55898 -1.40411,-0.05257 -1.91619,-0.30124c-0.95636,-0.46442 -1.4191,-0.65065 -1.1551,-1.14058c0.20022,-0.37156 1.33265,-0.06283 1.83379,0.20721z" fill="#ffffff" stroke="none" stroke-width="0" stroke-linecap="butt"/><g><path d="M239.10574,186.21987c0.03823,1.01656 -0.05737,2.60701 -0.05737,2.60701l-0.75748,0.4034c0,0 -0.08545,-2.44375 -0.1157,-3.3429c-0.02808,-0.83478 0.02496,-1.53427 0.02496,-1.53427l0.68166,-0.29493c0,0 0.18571,1.14512 0.22393,2.16168z" fill="#f8b820" stroke="none" stroke-width="0" stroke-linecap="butt"/><g><path d="M237.01525,190.69525c0.4713,-1.68431 1.78025,-2.7215 2.12706,-2.77583c1.05929,-0.16593 2.82401,1.86195 2.09828,3.85805c-0.59918,1.648 -1.07454,2.66747 -2.38456,2.99716c-0.47285,0.12494 -2.49187,-1.75261 -1.84078,-4.07939z" fill="#ffffff" stroke="none" stroke-width="0" stroke-linecap="butt"/><path d="M239.9722,188.9201l-0.95305,0.33585" fill="none" stroke="#808080" stroke-width="0.5" stroke-linecap="round"/><path d="M240.41488,190.39964l-0.76387,0.23115" fill="none" stroke="#808080" stroke-width="0.5" stroke-linecap="round"/><path d="M240.56128,191.70779l-0.76744,0.13733" fill="none" stroke="#808080" stroke-width="0.5" stroke-linecap="round"/><path d="M239.7475,193.16421l0.57826,-0.03262" fill="none" stroke="#808080" stroke-width="0.5" stroke-linecap="round"/><path d="M239.07264,188.1246c0,0 0.89728,1.59941 1.1267,2.71815c0.22942,1.11874 -0.23765,2.87351 -0.23765,2.87351" fill="none" stroke="#020202" stroke-width="0.25" stroke-linecap="round"/></g></g><path d="M241.71723,180.61375c-0.27137,2.89226 -5.85793,3.64527 -8.67323,3.33514c-2.39139,-0.26343 -4.26178,-7.39112 -1.05612,-9.98466c1.24474,-1.00706 1.96188,-1.40603 4.36586,-1.23529c2.46765,0.17527 5.77436,3.50584 5.36348,7.88481z" fill="#f8b820" stroke="none" stroke-width="0" stroke-linecap="butt"/><path d="M241.06717,180.99713c-0.14286,1.89704 -2.88537,4.14458 -5.29576,3.92352c-1.30958,-0.1201 -2.65547,-0.34031 -3.45902,-1.64899c-0.24715,-0.41314 1.40919,-2.44575 2.62992,-2.93483c2.8728,-1.15098 6.17396,0.00833 6.12486,0.66029z" fill="#ffffff" stroke="none" stroke-width="0" stroke-linecap="butt"/><path d="M240.47631,175.61441c-0.23776,-0.17826 -1.13373,-1.22349 -1.9663,-1.72852c-0.83256,-0.50503 -2.21705,-1.06688 -2.21705,-1.06688c0,0 0.40124,-1.26138 0.96784,-1.76123c0.56661,-0.49986 1.62806,-1.00365 2.01208,-0.86764c2.55105,0.90357 1.54006,5.67668 1.20344,5.42428z" fill="#ffffff" stroke="none" stroke-width="0" stroke-linecap="butt"/><path d="M231.92797,174.0947c0,0 -0.92987,1.17508 -1.07154,2.46111c-0.14167,1.28603 -0.2658,2.81668 -0.2658,2.81668c0,0 -1.06735,-0.83542 -1.79492,-1.92686c-0.65919,-0.98887 -0.92356,-2.28793 -0.29875,-2.884c1.55461,-1.48307 3.43101,-0.46694 3.43101,-0.46694z" fill="#ffffff" stroke="none" stroke-width="0" stroke-linecap="butt"/><g stroke="none" stroke-width="0" stroke-linecap="butt"><path d="M233.95937,179.67874c-0.25055,0.95677 -1.1604,1.5336 -2.03217,1.28838c-0.87178,-0.24521 -1.37537,-1.21961 -1.12481,-2.17636c0.25055,-0.95677 1.16038,-1.53361 2.03216,-1.28838c0.87178,0.24521 1.37538,1.21961 1.12482,2.17637z" fill="#ffffff"/><path d="M231.59129,179.39593c-0.06034,-0.50922 0.21768,-1.05753 0.66324,-1.11035c0.44557,-0.05282 0.88995,0.4099 0.95029,0.9191c0.06034,0.50923 -0.25194,0.96484 -0.69749,1.01764c-0.44557,0.05282 -0.8557,-0.31719 -0.91604,-0.8264z" fill="#000000"/></g><g stroke="none" stroke-width="0" stroke-linecap="butt"><path d="M239.16126,177.2872c0.26097,1.09819 -0.18346,2.14432 -0.99264,2.33663c-0.8092,0.19229 -1.67673,-0.54209 -1.9377,-1.64027c-0.26097,-1.09819 0.18345,-2.14433 0.99264,-2.33663c0.8092,-0.19229 1.67673,0.54209 1.9377,1.64027z" fill="#ffffff"/><path d="M236.87438,177.85143c-0.06034,-0.50922 0.21768,-1.05753 0.66324,-1.11035c0.44557,-0.05282 0.88995,0.4099 0.95029,0.9191c0.06034,0.50923 -0.25194,0.96484 -0.69749,1.01764c-0.44557,0.05282 -0.8557,-0.31719 -0.91604,-0.8264z" fill="#000000"/></g><path d="M236.59496,177.34359l-2.51292,-1.84854c0,0 -0.11864,1.02474 -0.24362,1.61348c-0.12498,0.58875 -0.39453,1.39262 -0.39453,1.39262c0,0 -1.21527,-1.16874 -1.34705,-1.60509c-0.16316,-0.54027 -0.03594,-1.5861 -0.03594,-1.5861l3.77449,-1.16282c0,0 0.78217,0.40434 0.93587,1.19255c0.11089,0.5687 -0.17628,2.00388 -0.17628,2.00388z" fill="#f8b820" stroke="none" stroke-width="0" stroke-linecap="butt"/><g stroke="none" stroke-width="0" stroke-linecap="butt"><path d="M235.80767,180.45394c0.55809,0.06148 1.13355,0.08536 1.11678,0.43893c-0.02687,0.56623 -0.63101,0.78452 -1.17702,0.91533c-0.76287,0.18278 -1.18931,0.09759 -1.23412,-0.25353c-0.09562,-0.74925 0.73629,-1.16222 1.29437,-1.10074z" fill="#71716f"/><path d="M235.92761,181.38333c-0.95779,0.07238 -1.28487,-0.4464 -1.28487,-0.4464c0,0 0.53945,-0.52886 0.86926,-0.66643c0.32982,-0.13757 0.6085,-0.1949 0.90225,-0.07546c0.29375,0.11944 0.52131,0.35873 0.45798,0.62853c-0.11016,0.46926 -0.31173,0.51194 -0.94461,0.55976z" fill="#010101"/><path d="M235.36371,181.25453c-0.01738,0.15772 -0.15931,0.2715 -0.31704,0.25412c-0.15771,-0.01738 -0.27149,-0.15931 -0.25411,-0.31704c0.01738,-0.15771 0.15931,-0.27149 0.31704,-0.25411c0.15772,0.01738 0.2715,0.15931 0.25412,0.31704z" fill="#ffffff"/></g><g data-paper-data="{&quot;index&quot;:null}"><path d="M233.78029,175.17059c0,0 -1.1391,-1.25969 -2.0975,-1.82739c-0.95839,-0.56769 -1.98474,-0.23434 -1.98474,-0.23434l-0.20582,-0.62885c0,0 1.52289,-0.28607 2.53284,0.30817c1.00995,0.59424 2.2226,2.0188 2.2226,2.0188z" fill="#767578" stroke="none" stroke-width="0" stroke-linecap="butt"/><path d="M228.37743,174.86934l-3.75979,0.10034l2.41431,-3.1868l3.16379,0.65929z" fill="#ea035a" stroke="none" stroke-width="0" stroke-linecap="butt"/><path d="M224.66416,174.85555c0,0 4.67656,-2.0525 5.36772,-2.34422c0.17591,-0.07424 -0.17549,0.45607 -0.17549,0.45607" fill="none" stroke="#000000" stroke-width="0.25" stroke-linecap="round"/><path d="M226.98661,171.68408l1.8316,1.35687l-0.46127,1.84148" fill="none" stroke="#000000" stroke-width="0.25" stroke-linecap="round"/></g></g></g></svg>