<svg version="1.1" xmlns="http://www.w3.org/2000/svg" xmlns:xlink="http://www.w3.org/1999/xlink" width="444.55369" height="29.39806" viewBox="0,0,444.55369,29.39806"><g transform="translate(-17.72316,-6.64331)"><g data-paper-data="{&quot;isPaintingLayer&quot;:true}" fill="#c49119" fill-rule="nonzero" stroke="none" stroke-width="0.26459" stroke-linecap="butt" stroke-linejoin="miter" stroke-miterlimit="10" stroke-dasharray="" stroke-dashoffset="0" style="mix-blend-mode: normal"><g><path d="M25.99136,35.58204v-19.9815h-8.2682v-8.95723h26.18263v8.95723h-8.2682v19.9815z"/><path d="M47.35088,35.58204l8.61272,-28.93873h15.50288l8.6127,28.93873h-9.99073l-1.72255,-5.51217h-9.64623l-1.37803,5.51217zM66.29884,22.49071l-2.58382,-8.6127l-2.58382,8.6127z"/><path d="M83.52426,35.58204v-28.93873h12.0578v28.93873z"/><path d="M99.02714,35.58204v-28.93873h10.33527v20.6705h13.78033v8.26823z"/><path d="M129.34389,35.58204c-1.14837,-0.22968 -2.06705,-0.45937 -2.75607,-0.68903l1.37803,-6.89017l4.1341,0.3445c3.21542,0.22967 5.7418,0.22967 7.57918,0c0.91868,-0.45933 1.37803,-1.14835 1.37803,-2.06703c-0.22967,-0.91868 -2.29672,-1.37803 -6.20115,-1.37803c-3.44508,-0.45935 -5.85665,-1.72255 -7.23468,-3.7896c-0.68902,-1.60772 -1.03352,-3.44508 -1.03352,-5.51213c0,-3.21542 1.14837,-5.62698 3.44508,-7.23467c1.6077,-1.14838 4.4786,-1.72257 8.6127,-1.72257c4.1341,0 8.26822,0.34452 12.40232,1.03353l-1.37803,6.54567c-4.82312,-0.22967 -8.15337,-0.3445 -9.99075,-0.3445c-1.6077,0.22967 -2.41157,0.80385 -2.41157,1.72253c-0.22967,1.60772 1.03353,2.41157 3.7896,2.41157c3.90443,0 6.77533,0.68902 8.61272,2.06703c1.37803,1.14835 2.06705,3.10057 2.06705,5.85663c0,2.3886 -0.57418,4.45565 -1.72255,6.20117c-1.14837,2.06705 -4.01925,3.33025 -8.6127,3.7896c-3.90443,0.22967 -7.9237,0.11483 -12.0578,-0.3445z"/><path d="M172.82087,35.58204v-28.93873h10.33525v9.99077h6.89017v-9.99077h10.33527v28.93873h-10.33527v-9.99077h-6.89017v9.99077z"/><path d="M203.82662,35.58204l8.61272,-28.93873h15.50288l8.61272,28.93873h-9.99075l-1.72255,-5.51217h-9.64623l-1.37803,5.51217zM222.77457,22.49071l-2.5838,-8.6127l-2.58382,8.6127z"/><path d="M242.75607,35.58204c-1.14835,-0.22968 -2.06705,-0.45937 -2.75607,-0.68903l1.37803,-6.89017l4.1341,0.3445c3.21542,0.22967 5.74182,0.22967 7.5792,0c0.91868,-0.45933 1.37803,-1.14835 1.37803,-2.06703c-0.22967,-0.91868 -2.29672,-1.37803 -6.20117,-1.37803c-3.44507,-0.45935 -5.85662,-1.72255 -7.23467,-3.7896c-0.68902,-1.60772 -1.03353,-3.44508 -1.03353,-5.51213c0,-3.21542 1.14837,-5.62698 3.4451,-7.23467c1.60772,-1.14838 4.47862,-1.72257 8.6127,-1.72257c4.13412,0 8.26822,0.34452 12.4023,1.03353l-1.37803,6.54567c-4.82312,-0.22967 -8.15335,-0.3445 -9.99073,-0.3445c-1.60772,0.22967 -2.41157,0.80385 -2.41157,1.72253c-0.22967,1.60772 1.03353,2.41157 3.7896,2.41157c3.90442,0 6.77532,0.68902 8.6127,2.06703c1.37805,1.14835 2.06707,3.10057 2.06707,5.85663c0,2.3886 -0.57418,4.45565 -1.72257,6.20117c-1.14835,2.06705 -4.01925,3.33025 -8.6127,3.7896c-3.90442,0.22967 -7.92368,0.11483 -12.0578,-0.3445z"/><path d="M286.23305,35.58204v-28.93873h24.11557v8.2682h-13.78033v2.06707h13.78033v8.2682h-13.78033v10.33527z"/><path d="M313.79371,35.58204l8.6127,-28.93873h15.5029l8.6127,28.93873h-9.99073l-1.72257,-5.51217h-9.64623l-1.37803,5.51217zM332.74168,22.49071l-2.5838,-8.6127l-2.58383,8.6127z"/><path d="M349.96712,35.58204v-28.93873h10.33527v20.6705h13.78033v8.26823z"/><path d="M377.52778,35.58204v-28.93873h10.33527v20.6705h13.78033v8.26823z"/><path d="M405.08847,35.58204v-28.93873h24.11557v8.2682h-13.78033v2.06707h13.78033v8.2682h-13.78033v2.06703h13.78033v8.26823z"/><path d="M432.64912,35.58204v-28.93873h11.7133l7.5792,12.91907v-12.91907h10.33523v28.93873h-11.71327l-7.5792,-12.50567v12.50567z"/></g></g></g></svg>