<svg version="1.1" xmlns="http://www.w3.org/2000/svg" xmlns:xlink="http://www.w3.org/1999/xlink" width="38" height="30.67409" viewBox="0,0,38,30.67409"><g transform="translate(-225.30893,-163.30542)"><g data-paper-data="{&quot;isPaintingLayer&quot;:true}" fill-rule="nonzero" stroke-linejoin="miter" stroke-miterlimit="10" stroke-dasharray="" stroke-dashoffset="0" style="mix-blend-mode: normal"><g><g><path d="M248.21734,184.97283l0.82475,0.00697c0,0 1.37406,2.48892 1.80668,3.86843c0.3609,1.15079 0.63233,2.91075 0.65782,3.63186c0.04401,1.24507 -0.58158,1.0435 -0.58158,1.0435c0,0 -0.01557,-3.26871 -0.38046,-4.54369c-0.26011,-0.90899 -2.3272,-4.00707 -2.3272,-4.00707z" fill="#989898" stroke="#989898" stroke-width="0" stroke-linecap="round"/><path d="M246.96979,186.82097c0.09253,-0.55464 0.15713,-0.99127 0.56964,-1.43162c0.58641,-0.62598 0.98821,-0.43541 1.30361,-0.01271c0.66362,0.88995 1.36214,2.63517 1.36214,2.63517l-2.95639,1.87341c0,0 -0.4196,-2.21389 -0.27899,-3.06426z" fill="#f82020" stroke="none" stroke-width="1.13968" stroke-linecap="round"/><path d="M250.15127,187.93774c0,0 0.16784,0.10435 0.4386,1.06105c0.27076,0.95668 0.50255,2.24591 0.58329,3.33887c0.0318,0.43826 0.12309,1.18522 -0.21958,1.2448c-0.58335,0.10153 -1.81394,-0.12238 -2.30061,-0.63829c-0.48358,-0.51301 -1.49119,-2.46368 -1.41687,-3.19592c0.14613,-1.30357 2.91519,-1.81051 2.91519,-1.81051z" fill="#f8f8f8" stroke="none" stroke-width="1.15102" stroke-linecap="round"/><path d="M245.15229,187.07242c-0.02771,-0.42771 -0.39127,-1.16175 0.04162,-1.63134c0.49172,-0.5334 0.92414,0.11095 0.92414,0.11095c0,0 0.13597,-0.63047 0.54866,-0.41187c0.4007,0.21223 0.40718,0.49459 0.46408,0.79556c0.09561,0.50574 -0.11687,1.37856 -0.1054,1.55549c0.05732,0.8847 0.39484,2.18503 -0.06927,2.2151c-0.12311,0.00797 -0.71824,-0.19216 -0.71824,-0.19216c0,0 -0.58813,0.5299 -0.80272,0.16269c-0.27838,-0.47636 -0.2591,-2.23736 -0.28288,-2.60443z" fill="#ffffff" stroke="none" stroke-width="0" stroke-linecap="butt"/></g><path d="M247.51699,187.79778c0.08927,1.37782 0.03698,2.16881 -0.31196,2.19142c-0.12718,0.00824 -0.05576,-0.72832 -0.14503,-2.10614c-0.08927,-1.37782 -0.05494,-2.446 0.07225,-2.45424c0.34894,-0.0226 0.29547,0.99115 0.38474,2.36897z" fill="#424242" stroke="none" stroke-width="0" stroke-linecap="butt"/></g><path d="M245.27564,186.81783c0.2319,0.451 0.0744,1.2097 -0.3455,1.4122c-0.6542,0.3237 -1.5113,0.1313 -2.1297,-0.1995c-0.3795,-0.1978 -0.5472,-0.6966 -0.5726,-1.1504c-0.0465,-0.8117 -0.0631,-1.7152 0.3326,-2.4196c0.1563,-0.2754 0.8034,-0.1828 1.004,0.0852c0.3591,0.4777 -0.0556,1.2983 0.3044,1.7794c0.3061,0.4074 1.1775,0.0537 1.4068,0.4927z" data-paper-data="{&quot;index&quot;:null}" fill="#e88820" stroke="none" stroke-width="0.49091" stroke-linecap="round"/><path d="M245.83239,175.27692c0,3.60743 -0.78356,6.23963 -1.13412,7.14121c-0.21833,0.5615 -0.30152,0.07428 -0.30152,0.07428c0,0 0.31437,-0.95255 0.31437,-6.80662c0,-1.96926 -2.1099,-4.2209 -2.28757,-4.94621c-0.19596,-0.80001 2.82257,-0.61154 2.82257,-0.61154c0,0 3.14631,-1.07395 3.04959,0.02036c-0.07751,0.87693 -2.46334,3.45322 -2.46334,5.12852z" data-paper-data="{&quot;index&quot;:null}" fill="#e2a026" stroke="none" stroke-width="0" stroke-linecap="butt"/><path d="M242.70018,175.5647c0,-1.67529 -1.63601,-3.97836 -1.72729,-4.8553c-0.1139,-1.0943 2.13304,-0.29359 2.13304,-0.29359c0,0 3.25394,-0.82599 3.02318,-0.02599c-0.20923,0.72531 -2.10851,3.61447 -2.10851,5.58373c0,5.85408 0.21037,6.71555 0.21037,6.71555c0,0 0.0267,0.4834 -0.26404,-0.21431c-0.39979,-0.95941 -1.26675,-3.52083 -1.26675,-6.91011z" data-paper-data="{&quot;index&quot;:null}" fill="#e2a026" stroke="none" stroke-width="0" stroke-linecap="butt"/><path d="M245.53838,183.73464c0,1.55828 -1.22886,2.82152 -3.6322,2.82152c-1.84808,0 -4.99425,-0.67232 -5.62522,-1.72602c-0.18957,-0.31658 -1.37185,-0.33836 0.52477,-2.58898c1.14432,-1.3579 3.55812,0.43997 4.02687,0.48073c1.46685,-0.76968 2.32821,-1.19229 3.28569,-1.19229c0.76569,0 1.4201,0.64676 1.4201,2.20504z" data-paper-data="{&quot;index&quot;:null}" fill="#089c4e" stroke="none" stroke-width="0" stroke-linecap="butt"/><path d="M243.04027,183.89672c0.12289,-1.03243 0.34511,-2.51605 0.64097,-2.51605c0.29586,0 -0.14129,1.59924 -0.26504,2.63879c-0.12375,1.03955 -0.06316,2.60372 -0.35902,2.60372c-0.29587,0 -0.13982,-1.69403 -0.01692,-2.72646z" fill="#000000" stroke="#000000" stroke-width="0" stroke-linecap="butt"/><path d="M238.02598,185.84371c0,-0.23545 0.19087,-0.42632 0.42632,-0.42632c0.23545,0 0.42632,0.19087 0.42632,0.42632c0,0.23545 -0.19087,0.42631 -0.42632,0.42631c-0.23545,0 -0.42632,-0.19087 -0.42632,-0.42631z" fill="#ffffff" stroke="none" stroke-width="0" stroke-linecap="butt"/><path d="M233.81824,184.89511l1.68935,-0.376c0,0 1.43237,-0.42828 2.2103,-0.49052c0.96986,-0.07759 3.31035,0.21006 3.31035,0.21006l-1.86066,0.37637l0.17383,1.81532l-1.41196,-1.1877l-1.81562,1.69956l0.03833,-1.45624l-1.54686,1.41378l1.11715,-1.95092z" fill="#cf0000" stroke="none" stroke-width="0" stroke-linecap="butt"/><path d="M244.49054,185.9283c-0.79373,0.71714 -0.99414,0.39537 -0.99414,0.39537l0.60475,-4.95716c0,0 1.28777,0.41907 1.43026,0.92992c0.31708,1.38621 0.10706,2.58999 -1.04086,3.63188z" data-paper-data="{&quot;index&quot;:null}" fill="#f8b820" stroke="none" stroke-width="0.49091" stroke-linecap="round"/><path d="M239.29265,185.97705c0,-0.23545 0.19087,-0.42631 0.42631,-0.42631c0.23545,0 0.42632,0.19087 0.42632,0.42631c0,0.23545 -0.19087,0.42632 -0.42632,0.42632c-0.23545,0 -0.42631,-0.19087 -0.42631,-0.42632z" fill="#ffffff" stroke="none" stroke-width="0" stroke-linecap="butt"/><path d="M246.88649,187.26894c0.27487,0.42608 0.19239,1.19646 -0.20562,1.43913c-0.61944,0.38627 -1.49129,0.27864 -2.139,0.01001c-0.39698,-0.15978 -0.61277,-0.63972 -0.68246,-1.08886c-0.12568,-0.80325 -0.23066,-1.70076 0.09418,-2.44055c0.12859,-0.28934 0.78163,-0.26059 1.00751,-0.01342c0.40409,0.44018 0.07173,1.29745 0.47713,1.74106c0.34446,0.37545 1.17703,-0.06184 1.44827,0.35263z" data-paper-data="{&quot;index&quot;:null}" fill="#f8b820" stroke="none" stroke-width="0.49091" stroke-linecap="round"/><path d="M263.30893,168.484c0,2.86005 -8.50659,5.17857 -19,5.17857c-10.49341,0 -19,-2.31852 -19,-5.17857c0,-2.86005 8.50659,-5.17857 19,-5.17857c10.49341,0 19,2.31852 19,5.17857z" fill-opacity="0.90196" fill="#e3a127" stroke="none" stroke-width="0" stroke-linecap="butt"/><path d="M229.99008,165.37823c0.07543,-0.02489 1.46756,-0.57942 2.50881,-0.66435c1.64503,-0.13417 3.19049,0.18933 3.19049,0.18933c0,0 -2.24313,0.22033 -2.81139,0.3829c-1.01128,0.28933 -2.73645,1.20437 -2.73645,1.20437c0,0 1.54876,-0.75946 2.36791,-0.9524c0.69495,-0.16368 2.23596,-0.13197 2.23596,-0.13197c0,0 -1.21259,0.38897 -1.72312,0.61022c-0.58022,0.25145 -1.57594,0.81954 -1.57594,0.81954c0,0 0.78108,-0.31641 1.30425,-0.43622c0.52318,-0.11981 1.16764,-0.12987 1.16764,-0.12987c0,0 -0.54578,0.32414 -0.77671,0.49106c-0.25753,0.18614 -0.73362,0.66122 -0.73362,0.66122c0,0 0.66449,-0.23199 1.10758,-0.28799c0.44309,-0.056 1.14476,0.00334 1.14476,0.00334c0,0 -0.40621,0.27572 -0.65486,0.46749c-0.24865,0.19177 -0.44798,0.38306 -0.44798,0.38306c0,0 0.36636,-0.12239 0.60963,-0.13274c0.24327,-0.01036 0.5832,0.08193 0.5832,0.08193c0,0 -0.31439,0.17928 -0.4429,0.27922c-0.16324,0.12696 -0.45754,0.42104 -0.45754,0.42104c0,0 0.61418,-0.11832 0.8373,-0.12043c0.16595,-0.00158 0.51264,0.04521 0.51264,0.04521l-0.5525,0.2684l0.64872,0.26875l-1.07057,0.21341l0.17909,-0.57442l-0.96779,0.10011l0.42549,-0.65059c0,0 -0.28252,-0.05663 -0.46476,-0.04925c-0.18224,0.00738 -0.50452,0.0885 -0.50452,0.0885c0,0 0.207,-0.29253 0.3887,-0.42469c0.1817,-0.13216 0.75648,-0.40827 0.75648,-0.40827l-1.20678,0.22575l-1.48855,0.54908c0,0 0.27449,-0.45829 0.50349,-0.70855c0.22901,-0.25026 0.78255,-0.69684 0.78255,-0.69684c0,0 -0.70808,0.23667 -1.15398,0.40797c-0.4459,0.1713 -1.25743,0.51841 -1.25743,0.51841c0,0 0.43018,-0.70586 0.84434,-1.00973c0.41415,-0.30387 1.52888,-0.73151 1.52888,-0.73151c0,0 -1.35168,0.30979 -2.13721,0.70173c-0.78554,0.39194 -2.56834,1.6461 -2.56834,1.6461c0,0 0.94853,-1.46231 1.8555,-2.0435c0.90697,-0.58119 3.25062,-1.22854 3.25062,-1.22854c0,0 -2.95113,0.79844 -3.47329,1.10061c-1.31181,0.75913 -3.56304,3.05082 -3.56304,3.05082c0,0 1.01465,-2.8013 4.03525,-3.79772z" fill="#dcdce1" stroke="none" stroke-width="0" stroke-linecap="butt"/><path d="M257.8523,171.54169c-0.07718,0.01877 -1.50924,0.46008 -2.55394,0.46138c-1.65049,0.00205 -3.1651,-0.44414 -3.1651,-0.44414c0,0 2.25358,-0.04004 2.83302,-0.15661c1.03119,-0.20745 2.82407,-0.98144 2.82407,-0.98144c0,0 -1.60459,0.63304 -2.43656,0.75978c-0.70583,0.10753 -2.23934,-0.04745 -2.23934,-0.04745c0,0 1.23983,-0.29065 1.76644,-0.47033c0.59849,-0.2042 1.63649,-0.69074 1.63649,-0.69074c0,0 -0.80391,0.25287 -1.33499,0.33041c-0.53108,0.07754 -1.17429,0.03598 -1.17429,0.03598c0,0 0.56998,-0.27942 0.81353,-0.42731c0.2716,-0.16493 0.7842,-0.60037 0.7842,-0.60037c0,0 -0.68093,0.17805 -1.12708,0.1984c-0.44616,0.02035 -1.14082,-0.09497 -1.14082,-0.09497c0,0 0.42698,-0.24232 0.69019,-0.41357c0.2632,-0.17124 0.47721,-0.34597 0.47721,-0.34597c0,0 -0.37498,0.09266 -0.6183,0.08351c-0.24332,-0.00915 -0.57477,-0.12836 -0.57477,-0.12836c0,0 0.32774,-0.15353 0.46384,-0.24286c0.17289,-0.11348 0.48978,-0.38307 0.48978,-0.38307c0,0 -0.62168,0.06878 -0.84425,0.05302c-0.16555,-0.01172 -0.50737,-0.08611 -0.50737,-0.08611l0.57221,-0.22331l-0.62512,-0.31983l1.08422,-0.12702l-0.2245,0.55824l0.9727,-0.02232l-0.47621,0.61445c0,0 0.27708,0.07906 0.45934,0.08629c0.18225,0.00724 0.50999,-0.04783 0.50999,-0.04783c0,0 -0.22976,0.27502 -0.42146,0.39221c-0.1917,0.11719 -0.78674,0.34639 -0.78674,0.34639l1.22098,-0.12841l1.52774,-0.42815c0,0 -0.3103,0.43484 -0.5586,0.66596c-0.2483,0.23112 -0.83582,0.63196 -0.83582,0.63196c0,0 0.72475,-0.17922 1.18293,-0.31427c0.45818,-0.13505 1.29489,-0.41608 1.29489,-0.41608c0,0 -0.48531,0.66915 -0.92246,0.93889c-0.43715,0.26974 -1.58253,0.60676 -1.58253,0.60676c0,0 1.37215,-0.20058 2.18654,-0.52838c0.81439,-0.3278 2.69188,-1.4352 2.69188,-1.4352c0,0 -1.06256,1.38168 -2.01315,1.8884c-0.95058,0.50672 -3.33854,0.96436 -3.33854,0.96436c0,0 3.00558,-0.55962 3.55025,-0.81901c1.36837,-0.65168 3.79583,-2.75579 3.79583,-2.75579c0,0 -1.23564,2.71107 -4.32632,3.46248z" data-paper-data="{&quot;index&quot;:null}" fill="#dcdce1" stroke="none" stroke-width="0" stroke-linecap="butt"/><path d="M244.04823,163.79629c-0.42288,-0.05033 -1.19488,-0.05725 -1.19488,-0.05725c0,0 0.56178,0.08062 0.90685,0.18823c0.34507,0.10761 0.72351,0.3202 0.72351,0.3202c0,0 -0.42748,0.00364 -0.61845,0.0225c-0.21296,0.02103 -0.65104,0.13613 -0.65104,0.13613c0,0 0.46532,0.09022 0.74216,0.20782c0.27684,0.1176 0.66504,0.38996 0.66504,0.38996c0,0 -0.32985,0.02277 -0.53954,0.05008c-0.2097,0.02731 -0.39053,0.07107 -0.39053,0.07107c0,0 0.25468,0.05295 0.39976,0.12938c0.14508,0.07643 0.31161,0.24536 0.31161,0.24536c0,0 -0.24372,-0.00224 -0.35238,0.01236c-0.13803,0.01855 -0.40897,0.08993 -0.40897,0.08993c0,0 0.39752,0.13932 0.52808,0.21372c0.0971,0.05533 0.283,0.20007 0.283,0.20007l-0.4125,-0.03108l0.28642,0.37628l-0.69534,-0.23869l0.29892,-0.27356l-0.59712,-0.26978l0.46813,-0.23439c0,0 -0.14522,-0.12871 -0.25378,-0.18619c-0.10855,-0.05748 -0.32359,-0.1195 -0.32359,-0.1195c0,0 0.21962,-0.10008 0.37015,-0.1154c0.15053,-0.01532 0.5786,0.01882 0.5786,0.01882l-0.77878,-0.27766l-1.05235,-0.18502c0,0 0.31507,-0.17366 0.53316,-0.24167c0.21809,-0.06801 0.69159,-0.14027 0.69159,-0.14027c0,0 -0.49228,-0.10228 -0.80982,-0.15374c-0.31754,-0.05146 -0.90746,-0.12453 -0.90746,-0.12453c0,0 0.48959,-0.26495 0.8336,-0.3014c0.34401,-0.03645 1.13765,0.09252 1.13765,0.09252c0,0 0.6004,0.22996 0.22831,0.18568z" fill="#dcdce1" stroke="none" stroke-width="0" stroke-linecap="butt"/><g><path d="M241.37587,171.07168c0.68668,1.33614 0.87291,3.05295 0.87291,3.05295c0,0 1.71006,3.50459 0.81216,5.62523c-0.76439,1.80373 -3.36229,2.16069 -5.26239,2.62815c-1.53444,0.37799 -3.65509,0.85195 -4.74028,-0.23409c-1.28268,-1.2854 -1.14229,-4.38721 -1.60008,-6.14513c-0.17158,-0.66366 -0.97991,-1.36075 -1.43348,-2.50546c-0.45357,-1.14471 -1.06137,-2.07082 -0.8383,-2.78658c0.0582,-0.58357 1.52486,0.06567 2.29555,0.49973c0.77069,0.43405 1.94537,1.13824 2.64776,1.21262c0.81349,0.02699 1.02361,0.15461 1.7703,-0.22093c0.44153,-0.22149 3.35811,-4.15692 3.88071,-4.1005c0.62043,0.06772 0.90847,1.63788 1.59514,2.97401z" data-paper-data="{&quot;index&quot;:null}" fill="#f8b820" stroke="none" stroke-width="1" stroke-linecap="round"/><path d="M233.24912,179.58539c0.08366,0.61543 0.25085,1.29595 0.10599,1.85538c-0.08907,0.34145 -0.49506,0.69306 -0.65226,0.40354c-0.46282,-0.85269 -0.59205,-1.95585 -0.74141,-2.97195c-0.09183,-0.55651 -0.20756,-1.25504 0.0289,-1.67373c0.1583,-0.28125 0.6441,-0.11699 0.81301,0.17882c0.32873,0.64866 0.34509,1.46766 0.44578,2.20794z" data-paper-data="{&quot;index&quot;:null}" fill="#ffffff" stroke="none" stroke-width="0.86553" stroke-linecap="round"/><path d="M240.8626,173.67215c-0.10599,0.08975 -1.36328,-0.55913 -2.14634,-0.7959c-0.78305,-0.23676 -1.65141,-0.20171 -1.70574,-0.38105c-0.13903,-0.47572 0.71414,-1.0937 0.86662,-1.55994c0.16009,-0.48922 1.48922,-2.23487 1.77446,-2.17586c0.32155,0.06885 1.4223,4.73248 1.21099,4.91273z" data-paper-data="{&quot;index&quot;:null}" fill="#ffffff" stroke="none" stroke-width="0.85185" stroke-linecap="butt"/><path d="M238.23151,182.01294c-0.19292,0.4717 -0.811,0.50508 -1.26228,0.56468c-0.48915,0.04751 -1.21208,0.25277 -1.47725,-0.25054c-0.59769,-1.13511 -0.52255,-2.60358 -0.68371,-3.8714c-0.06905,-0.54392 -0.18757,-1.11749 -0.02663,-1.63942c0.01271,-0.19286 0.2704,-0.1486 0.46736,-0.1777c0.2356,-0.03512 0.4497,-0.05209 0.71877,-0.00422c0.27776,0.05179 0.57064,0.15003 0.81042,0.29981c0.33307,0.23098 0.71252,0.48873 0.89771,0.86965c0.28267,0.57055 0.38449,1.24632 0.46968,1.88954c0.10495,0.78982 0.36518,1.63635 0.08593,2.31958z" data-paper-data="{&quot;index&quot;:null}" fill="#ffffff" stroke="none" stroke-width="0.97175" stroke-linecap="round"/><path d="M243.36952,178.9894c-0.21159,0.31572 -1.37687,0.75566 -1.07143,0.86057c0.60251,0.20807 1.52308,0.03619 1.52308,0.03619c0,0 -0.66738,0.21769 -1.25234,0.84968c-0.10941,0.11811 1.45785,0.32177 1.45785,0.32177l-1.34387,1.00413l1.22935,0.43021c0,0 -2.82618,0.35081 -3.1577,0.59613c-0.3659,0.2705 -1.1199,0.86009 -1.9514,1.17532c-0.8315,0.31523 -2.01319,0.61415 -2.84274,0.69812c-0.75718,0.04865 -1.87789,-0.1153 -2.81736,-0.76928c-0.55764,-0.2453 -1.12088,-1.50733 -0.73608,-1.88098c0.67186,-0.6524 2.01079,-0.6318 2.91964,-0.3129c0.80362,0.28198 1.80125,0.21171 2.60401,-0.06215c0.79021,-0.25677 1.34777,-0.63195 1.93423,-1.2409c0.88676,-0.92006 3.78374,-2.12302 3.50475,-1.7059z" data-paper-data="{&quot;index&quot;:null}" fill="#f8f8f8" stroke="none" stroke-width="1" stroke-linecap="round"/><path d="M233.06728,182.03855c0.35476,-0.05441 0.39984,0.01489 0.65091,0.09942c0.25108,0.08453 -0.15895,0.74073 -0.51372,0.79514c-0.35477,0.05441 -1.11491,-0.4223 -0.90071,-0.57819c0.21419,-0.15588 0.40875,-0.26195 0.76352,-0.31636z" data-paper-data="{&quot;index&quot;:null}" fill="#101010" stroke="none" stroke-width="1" stroke-linecap="butt"/><path d="M236.32961,184.58145l1.61301,-1.03448" data-paper-data="{&quot;index&quot;:null}" fill="none" stroke="#cccccc" stroke-width="0.36953" stroke-linecap="round"/><path d="M235.90796,179.49378c0.14032,0.2223 0.25566,0.53968 0.31118,0.90165c0.05552,0.36196 0.04059,0.69933 -0.02666,0.95346c-0.0686,0.25322 -0.1898,0.42215 -0.34933,0.44662c-0.15944,0.02445 -0.32568,-0.10039 -0.46703,-0.32142c-0.14042,-0.22228 -0.25566,-0.53967 -0.31118,-0.90164c-0.05552,-0.36196 -0.04068,-0.69931 0.02667,-0.95346c0.0686,-0.25322 0.1898,-0.42215 0.34923,-0.44661c0.15954,-0.02447 0.32578,0.10037 0.46713,0.3214z" fill="#4088ed" stroke="none" stroke-width="1.0615" stroke-linecap="butt"/><path d="M235.82889,179.78703c0.09303,0.13759 0.16742,0.3356 0.20211,0.56176c0.03469,0.22616 0.02306,0.43736 -0.02445,0.5966c-0.04703,0.15907 -0.12941,0.26568 -0.23616,0.28206c-0.10675,0.01638 -0.21721,-0.06068 -0.30975,-0.19834c-0.09304,-0.13769 -0.16742,-0.33569 -0.20211,-0.56185c-0.03469,-0.22616 -0.02307,-0.43735 0.02445,-0.5965c0.04701,-0.15917 0.12931,-0.26567 0.23606,-0.28205c0.10675,-0.01638 0.2173,0.06055 0.30984,0.19832z" fill="#000000" stroke="none" stroke-width="0.47368" stroke-linecap="butt"/><path d="M235.62653,179.92206c0.04125,0.05589 0.07395,0.13657 0.08817,0.22929c0.01422,0.09271 0.0072,0.17948 -0.0154,0.24517c-0.02203,0.06549 -0.06032,0.11002 -0.10895,0.11748c-0.04853,0.00744 -0.09851,-0.02354 -0.13915,-0.07943c-0.04125,-0.05589 -0.07387,-0.13658 -0.08809,-0.2293c-0.01422,-0.09271 -0.00729,-0.17947 0.01532,-0.24516c0.02203,-0.06549 0.06042,-0.11003 0.10895,-0.11747c0.04863,-0.00746 0.09851,0.02353 0.13915,0.07942z" fill="#ffffff" stroke="none" stroke-width="0.64678" stroke-linecap="butt"/><path d="M233.11901,179.90334c0.12479,0.19756 0.22723,0.47959 0.27659,0.80143c0.04934,0.32173 0.03616,0.62161 -0.0237,0.84749c-0.06089,0.22503 -0.16868,0.37521 -0.31042,0.39695c-0.14174,0.02174 -0.28958,-0.08924 -0.4152,-0.28566c-0.12479,-0.19756 -0.22725,-0.4797 -0.27659,-0.80143c-0.04936,-0.32183 -0.03615,-0.62161 0.0237,-0.84749c0.06098,-0.22514 0.16876,-0.37532 0.3105,-0.39705c0.14174,-0.02174 0.28958,0.08923 0.41512,0.28577z" fill="#4088ed" stroke="none" stroke-width="0.94355" stroke-linecap="butt"/><path d="M232.99093,180.18961c0.08261,0.1224 0.14885,0.29838 0.17968,0.49934c0.03083,0.20105 0.02037,0.3888 -0.02176,0.53033c-0.04174,0.14146 -0.11502,0.23616 -0.20991,0.25072c-0.0949,0.01456 -0.19309,-0.05385 -0.27541,-0.17629c-0.08261,-0.1224 -0.14885,-0.29837 -0.17969,-0.49943c-0.03082,-0.20095 -0.02036,-0.38871 0.02177,-0.53023c0.04183,-0.14148 0.11502,-0.23616 0.20991,-0.25072c0.0949,-0.01456 0.19319,0.05383 0.27541,0.17629z" fill="#000000" stroke="none" stroke-width="0.42105" stroke-linecap="butt"/><path d="M232.77815,180.3148c0.03664,0.04962 0.06566,0.12135 0.07829,0.20369c0.01264,0.08244 0.00646,0.15957 -0.01363,0.21788c-0.01959,0.05835 -0.05368,0.09787 -0.09688,0.10449c-0.04319,0.00662 -0.08747,-0.02088 -0.12364,-0.07067c-0.03674,-0.0496 -0.06575,-0.12133 -0.0784,-0.20377c-0.01263,-0.08234 -0.00645,-0.15947 0.01375,-0.2178c0.01959,-0.05835 0.05357,-0.09786 0.09677,-0.10448c0.04319,-0.00662 0.08757,0.02086 0.12374,0.07066z" fill="#ffffff" stroke="none" stroke-width="0.57492" stroke-linecap="butt"/><path d="M233.16736,173.2197c0,0 -1.46522,1.05247 -1.76299,1.09814c-0.15266,0.02341 -1.21231,-0.99607 -1.54611,-1.76762c-0.33381,-0.77154 -0.33731,-1.69268 -0.33731,-1.69268z" fill="#ffffff" stroke="none" stroke-width="0" stroke-linecap="butt"/><path d="M233.82966,176.50758l-2.60065,1.47829l-1.55533,2.19073l1.08131,-3.07207l2.76323,-1.17854z" fill="#f8b820" stroke="none" stroke-width="1.22222" stroke-linecap="round"/><path d="M233.06837,175.88071l-2.3953,-0.08748l-2.41175,1.76765c0,0 1.423,-2.46986 1.83668,-2.65444c0.29017,-0.12948 3.06641,0.15708 3.06641,0.15708z" fill="#f8b820" stroke="none" stroke-width="1.22222" stroke-linecap="round"/><path d="M233.10198,174.8018c0,0 -1.34572,-0.83712 -2.32719,-0.93032c-0.98147,-0.0932 -4.30443,0.30054 -4.30443,0.30054c0,0 3.2234,-1.48411 3.88151,-1.41482c0.39902,0.04201 3.26447,1.28473 3.26447,1.28473z" fill="#f8b820" stroke="none" stroke-width="1.22222" stroke-linecap="round"/></g><path d="M236.20605,170.1623c0,0 0.92035,-1.49034 2.06669,-2.45846c0.9443,-0.79748 1.63177,-1.21969 2.3955,-1.41667c0.74445,-0.19201 2.08798,0.8413 2.88218,2.45065c1.00969,2.04602 1.39386,4.80704 1.39386,4.80704l-2.39799,-2.80213l-0.41242,1.09013l-1.06323,-1.06651c0,0 -1.09533,0.60937 -1.25237,0.64987c-0.64471,0.16629 -0.75741,-1.73602 -0.75741,-1.73602l-1.40451,0.90381z" fill="#23d892" stroke="none" stroke-width="0" stroke-linecap="butt"/><path d="M235.21573,172.52754c-0.58837,-0.00285 0.20048,-1.4334 0.68833,-2.0389c0.49098,-0.6094 1.37256,-1.38202 1.37256,-1.38202l0.24064,1.32492l1.89508,-1.15172c0,0 0.07642,0.59059 0.15666,0.96267c0.08024,0.37208 0.25856,0.96279 0.25856,0.96279l1.69405,-0.94961l0.48689,1.51259l0.64083,-0.82963l-0.13842,1.6284c0,0 0.65909,0.98334 0.24535,1.22828c-0.87948,0.52065 -2.22727,-0.62904 -3.93493,-0.81902c-1.92253,-0.2139 -0.87513,-0.43556 -3.60559,-0.44874z" fill="#fd0000" stroke="none" stroke-width="0" stroke-linecap="butt"/><g stroke-width="0" stroke-linecap="butt"><path d="M243.66912,173.50175c0.01364,-0.47954 0.41343,-0.85722 0.89297,-0.84358c0.47954,0.01364 0.85722,0.41343 0.84358,0.89297c-0.01364,0.47954 -0.41343,0.85722 -0.89297,0.84358c-0.47954,-0.01364 -0.85722,-0.41343 -0.84358,-0.89297z" fill="#db7b04" stroke="none"/><path d="M245.49301,173.52287c-0.00468,0.16478 -0.49404,0.09596 -0.95786,0.08278c-0.46382,-0.01319 -0.92919,0.08599 -0.92451,-0.07879c0.00714,-0.25096 0.47068,-0.2852 0.93447,-0.27201c0.46382,0.01319 0.95584,-0.01168 0.94788,0.26801z" fill="#feeb00" stroke="#000000"/><path d="M244.56395,174.32544c-0.00515,0.18108 -0.1041,0.06637 -0.19464,0.06379c-0.09054,-0.00258 -0.21069,-0.38293 -0.20555,-0.56401c0.00515,-0.18108 0.19111,-0.09266 0.28165,-0.09009c0.09054,0.00258 0.12368,0.40922 0.11853,0.5903z" fill="#000000" stroke="none"/><path d="M245.10691,173.76097c0.0476,0.00136 0.14563,-0.06539 0.14201,0.06155c-0.00361,0.12694 -0.10666,0.37078 -0.15427,0.36943c-0.04761,-0.00135 -0.08409,-0.07663 -0.08048,-0.20357c0.00361,-0.12694 0.04512,-0.22875 0.09274,-0.22741z" fill="#000000" stroke="none"/></g><g><g><path d="M249.41137,185.34601l0.82475,0.00697c0,0 1.37406,2.48892 1.80668,3.86843c0.3609,1.15079 0.63232,2.91075 0.65782,3.63186c0.04401,1.24507 -0.58158,1.0435 -0.58158,1.0435c0,0 -0.01557,-3.26871 -0.38047,-4.54369c-0.26012,-0.90899 -2.32719,-4.00707 -2.32719,-4.00707z" fill="#989898" stroke="#989898" stroke-width="0" stroke-linecap="round"/><path d="M248.16382,187.19415c0.09253,-0.55464 0.15713,-0.99127 0.56964,-1.43162c0.58641,-0.62598 0.98821,-0.43541 1.30361,-0.01271c0.66362,0.88995 1.36214,2.63517 1.36214,2.63517l-2.95639,1.87341c0,0 -0.4196,-2.21389 -0.27899,-3.06426z" fill="#f82020" stroke="none" stroke-width="1.13968" stroke-linecap="round"/><path d="M251.3453,188.31092c0,0 0.16784,0.10435 0.4386,1.06105c0.27076,0.95668 0.50255,2.24591 0.58328,3.33887c0.0318,0.43826 0.12309,1.18522 -0.21957,1.2448c-0.58336,0.10153 -1.81394,-0.12238 -2.30061,-0.63829c-0.48358,-0.51301 -1.49119,-2.46368 -1.41687,-3.19592c0.14613,-1.30357 2.91519,-1.81051 2.91519,-1.81051z" fill="#f8f8f8" stroke="none" stroke-width="1.15102" stroke-linecap="round"/><path d="M246.34632,187.4456c-0.02771,-0.42771 -0.39127,-1.16175 0.04162,-1.63134c0.49172,-0.5334 0.92414,0.11095 0.92414,0.11095c0,0 0.13597,-0.63047 0.54866,-0.41187c0.4007,0.21223 0.40718,0.49459 0.46408,0.79556c0.09561,0.50574 -0.11687,1.37856 -0.1054,1.55549c0.05732,0.8847 0.39484,2.18503 -0.06927,2.2151c-0.12311,0.00797 -0.71824,-0.19216 -0.71824,-0.19216c0,0 -0.58813,0.5299 -0.80272,0.16269c-0.27838,-0.47636 -0.2591,-2.23736 -0.28288,-2.60443z" fill="#ffffff" stroke="none" stroke-width="0" stroke-linecap="butt"/></g><path d="M248.71102,188.1709c0.08927,1.37782 0.03698,2.16881 -0.31196,2.19142c-0.12718,0.00824 -0.05576,-0.72832 -0.14503,-2.10614c-0.08927,-1.37782 -0.05494,-2.446 0.07225,-2.45424c0.34894,-0.0226 0.29547,0.99115 0.38474,2.36897z" fill="#424242" stroke="none" stroke-width="0" stroke-linecap="butt"/></g></g></g></svg>