<svg version="1.1" xmlns="http://www.w3.org/2000/svg" xmlns:xlink="http://www.w3.org/1999/xlink" width="19.5579" height="29.31443" viewBox="0,0,19.5579,29.31443"><g transform="translate(-228.70771,-190.62046)"><g data-paper-data="{&quot;isPaintingLayer&quot;:true}" fill-rule="nonzero" stroke-linejoin="miter" stroke-miterlimit="10" stroke-dasharray="" stroke-dashoffset="0" style="mix-blend-mode: normal"><g data-paper-data="{&quot;index&quot;:null}" stroke="none" stroke-width="0" stroke-linecap="butt"><path d="M229.44656,200.94032c1.86813,0.25433 3.76967,3.94067 3.76967,3.94067c0.30386,0.52634 0.39216,1.06036 0.40305,1.60835c0.00949,0.47726 -0.03974,0.96512 -0.0564,1.46778c-0.0358,1.07981 -1.17594,-0.13661 -1.17594,-0.13661c0,0 -1.75317,-1.6581 -2.24909,-2.8304c-0.54814,-0.94674 -2.05597,-4.2356 -0.69128,-4.04981z" fill="#54c81c"/><path d="M235.23769,210.93892c0,0 -0.5699,0.52416 -1.50303,-0.65641c-0.93314,-1.18056 -1.26877,-2.19114 -1.87403,-3.13895c-0.49754,-0.77912 -1.42779,-1.86267 -1.59118,-2.44227c-0.16339,-0.5796 -0.0611,-1.35198 0.64857,-0.96481c0.5579,0.30437 1.79994,2.58877 1.79994,2.58877c0,0 1.31848,2.02124 1.75402,2.50102c1.32689,1.55552 4.74638,-1.73447 4.74638,-1.73447l0.65437,1.49129l-4.63503,2.35582z" fill="#ffffff"/></g><g data-paper-data="{&quot;index&quot;:null}" stroke="none" stroke-width="0" stroke-linecap="butt"><path d="M229.29077,201.92283c1.85539,0.33478 3.59595,4.09979 3.59595,4.09979c0.28085,0.53898 0.34601,1.07632 0.33322,1.62427c-0.01113,0.47722 -0.08138,0.96252 -0.11973,1.46398c-0.0824,1.07726 -1.16895,-0.18726 -1.16895,-0.18726c0,0 -1.6799,-1.73226 -2.12474,-2.92489c-0.50677,-0.96952 -1.87114,-4.32042 -0.51575,-4.07588z" fill="#54c81c"/><path d="M234.6447,212.16223c0,0 -0.592,0.49906 -1.47328,-0.7207c-0.88128,-1.21976 -1.17296,-2.24389 -1.73672,-3.21695c-0.46342,-0.79989 -1.34601,-1.92259 -1.48421,-2.50871c-0.1382,-0.58613 -0.00266,-1.35337 0.68963,-0.93591c0.54422,0.32817 1.68645,2.66408 1.68645,2.66408c0,0 1.22996,2.0763 1.64437,2.57444c1.25846,1.61137 4.81685,-1.52788 4.81685,-1.52788l0.58935,1.51817l-4.73244,2.15345z" fill="#ffffff"/></g><path d="M241.33276,206.70131c0,0 -2.61198,2.25249 -2.92461,1.92351c-0.26065,-0.36662 1.0905,-2.49557 1.08168,-3.28825c-0.01404,-0.69305 0.04559,-1.37557 0.29124,-1.64047c0.07579,-0.08166 0.56426,-0.12978 0.6675,-0.13053c0.1304,-0.00095 0.66892,-0.11178 0.8975,0.30258c0.05867,0.10655 0.3354,0.63289 0.28513,0.79974c-0.05286,0.17635 0.07904,0.58299 0.05802,0.73569c-0.06642,0.48222 -0.1559,0.5939 -0.17038,0.89713c-0.01844,0.38375 0.02127,0.16455 -0.18606,0.40059z" data-paper-data="{&quot;index&quot;:null}" fill="#319a2b" stroke="none" stroke-width="0.17188" stroke-linecap="butt"/><g data-paper-data="{&quot;index&quot;:null}" stroke="none" stroke-width="0.17188" stroke-linecap="butt"><path d="M241.29922,199.64333c0.00023,-1.65221 -0.36335,-2.9235 -0.26559,-4.22066c0.0324,-0.42888 0.14948,-0.28028 0.5931,-0.28664c0.57311,-0.00935 1.41335,0.07261 1.61258,0.59849c0.30286,0.80047 -0.28205,2.92283 -0.30906,3.80008c-0.04301,1.38803 -0.9889,4.23243 -1.3179,4.50865c-0.14193,0.11923 -0.58765,-0.22852 -0.57983,-1.04799c0.01031,-1.07903 0.26645,-1.69973 0.26671,-3.35194z" fill="#319a2b"/><path d="M242.33893,194.00352c-0.00722,-0.00912 -1.02907,-0.85536 -1.28413,-0.90263c-0.42909,-0.07977 -0.23911,0.59508 -0.70936,0.33228c-0.34873,-0.19489 -0.34976,-0.61001 -0.5216,-0.82355c-0.19622,-0.24333 0.00788,-0.78284 0.25693,-1.01921c0.13836,-0.13131 0.3831,-0.02493 0.36059,-0.06649c-0.15245,-0.28092 -0.00829,-0.68764 0.28162,-0.75552l0.63084,-0.14794c0.65975,0.01745 1.40422,0.18712 1.8144,0.17295c0.94638,-0.07366 1.2542,0.92223 1.21184,0.74847c0.0396,0.8774 -0.45385,2.00931 -1.20645,2.63414c-0.15715,0.12199 -0.5198,0.2333 -0.83466,-0.17247z" fill="#f0e9bb"/><path d="M240.83679,196.37419c-0.08304,-0.12025 -0.49272,-1.09655 -0.53966,-1.26883c-0.1085,-0.39786 0.04026,-0.93032 0.05091,-1.33012c0.01012,-0.37631 0.40548,-0.70238 0.55403,-0.80762c0.21459,-0.15234 0.60121,0.22311 0.99067,0.56085c0.47364,0.41078 0.93615,0.60309 0.9687,0.61221c0,0 0.60842,0.11974 0.70441,-0.03427c-0.30144,0.50271 0.25261,1.62861 -0.09944,2.10735c-0.20105,0.24239 -1.71952,-0.60681 -2.00874,-0.70887c-0.293,-0.10331 -0.71552,0.62739 -0.48089,0.46132c0.04699,-0.03327 -0.0134,0.59083 -0.13999,0.40798z" fill="#ead42f"/></g><path d="M241.50898,194.40411c4.0188,-0.31644 4.61355,3.9547 4.65704,4.20958c0.06856,0.6054 -0.02549,1.22414 -0.21409,1.80059c-0.30735,0.96433 -0.93163,1.85553 -1.82531,2.35572c-0.44724,0.179 -0.37997,0.16844 -0.81297,0.36633c-0.63406,0.42025 -1.54918,0.51312 -2.27393,0.50729c-0.58822,0.02637 -1.17605,-0.04347 -1.74587,-0.19255c-0.36494,-0.10965 -0.77246,-0.1625 -1.07427,-0.41276c-0.27742,-0.23759 -0.50564,-0.56647 -0.51551,-0.94307c-0.07449,-0.91392 -0.15757,-1.82864 -0.14928,-2.74595c0.00738,-0.11943 -0.43267,-4.59975 3.95419,-4.94518z" data-paper-data="{&quot;index&quot;:null}" fill="#f0e9bb" stroke="none" stroke-width="0.17188" stroke-linecap="butt"/><path d="M244.95647,198.78631c0.24826,-0.04061 0.39401,0.08879 0.48279,0.36783c0.06208,0.19567 0.10361,0.48668 0.10168,0.75089c-0.00215,0.28487 -0.00214,0.45569 -0.03743,0.62631c-0.03467,0.16755 -0.10484,0.33684 -0.07917,0.3932c0.03723,0.08163 -0.06894,0.18503 -0.46418,0.27076c-0.25316,0.05494 -0.49978,0.09461 -0.71039,0.12755c-0.20734,0.00501 -0.31126,-1.13601 -0.18074,-1.43449c0.08213,-0.54868 0.28129,-0.89441 0.88745,-1.10205z" data-paper-data="{&quot;index&quot;:null}" fill="#ffffff" stroke="none" stroke-width="0.17188" stroke-linecap="butt"/><path d="M244.30849,199.02918c-0.57076,0.44788 -0.18008,2.25292 -0.18008,2.25292c0,0 -0.61678,-1.64896 0.05779,-2.33696c0.20811,-0.21225 0.32622,-0.32982 0.52276,-0.38144c0.27412,-0.07199 0.40114,0.00137 0.61027,0.18982c0.1163,0.10479 0.31509,0.43597 0.32553,0.75955c0.00241,0.07462 1.18793,0.07506 1.18793,0.07506c0,0 -0.84362,0.13613 -1.02375,0.25868c-0.172,0.11702 -0.05377,0.46302 -0.1514,0.75489c-0.09764,0.29187 -0.22168,0.41893 -0.22168,0.41893c0,0 0.14663,-0.42381 0.12964,-0.98414c-0.01271,-0.41935 -0.16873,-1.03677 -0.39571,-1.21444c-0.30301,-0.26417 -0.44533,-0.21652 -0.86131,0.20713z" data-paper-data="{&quot;index&quot;:null}" fill="#000000" stroke="none" stroke-width="0" stroke-linecap="butt"/><g data-paper-data="{&quot;index&quot;:null}" stroke="none" stroke-linecap="butt"><path d="M244.50133,200.50225c0,-0.5294 0.20288,-0.95856 0.45314,-0.95856c0.25026,0 0.45314,0.42916 0.45314,0.95856c0,0.5294 -0.20288,0.95856 -0.45314,0.95856c-0.25026,0 -0.45314,-0.42916 -0.45314,-0.95856z" fill="#008ae6" stroke-width="0"/><path d="M244.94979,199.67671c0.07892,-0.00736 0.1526,0.06999 0.20772,0.2009c0.05525,0.13092 0.09193,0.31542 0.09713,0.52227c0.00504,0.20696 -0.0224,0.39744 -0.07075,0.53808c-0.04848,0.14062 -0.11785,0.23143 -0.19677,0.23877c-0.07892,0.00736 -0.15262,-0.06999 -0.20772,-0.20089c-0.05525,-0.13093 -0.09195,-0.31542 -0.097,-0.52226c-0.00518,-0.20698 0.02225,-0.39746 0.07057,-0.5381c0.04848,-0.14063 0.11797,-0.23127 0.19679,-0.23878z" fill="#000000" stroke-width="0.0278"/><path d="M244.80537,199.91461c0.0419,-0.09781 0.10095,-0.15996 0.16695,-0.16302c0.06603,-0.00305 0.12675,0.05362 0.17136,0.14739c0.0448,0.0938 0.07346,0.22477 0.07549,0.37069c0.00218,0.14612 -0.02275,0.27957 -0.06482,0.37735c-0.04189,0.09781 -0.10094,0.15998 -0.16694,0.16303c-0.06603,0.00305 -0.12675,-0.05362 -0.17136,-0.1474c-0.0448,-0.0938 -0.07347,-0.22477 -0.0755,-0.37069c-0.00217,-0.14612 0.02276,-0.27956 0.06483,-0.37734z" fill="#ffffff" stroke-width="0.01811"/></g><path d="M241.20312,201.54042c-0.25971,0 -0.60994,0.03376 -0.92479,0.01872c-0.49139,-0.02363 -0.93532,-0.15374 -0.93532,-0.15374c0,0 -0.34037,-0.32711 -0.32037,-1.01971c0.01782,-0.61715 0.3131,-1.38581 0.81319,-1.38581c0.35709,0 0.66262,0.1376 1.01899,0.65129c0.08756,0.12623 0.59849,1.86225 0.3483,1.88925z" data-paper-data="{&quot;index&quot;:null}" fill="#ffffff" stroke="none" stroke-width="0.17188" stroke-linecap="butt"/><g data-paper-data="{&quot;index&quot;:null}" stroke="none" stroke-linecap="butt"><path d="M240.25134,200.83558c0,-0.5294 0.20288,-0.95856 0.45313,-0.95856c0.25025,0 0.45313,0.42916 0.45313,0.95856c0,0.5294 -0.20288,0.95856 -0.45313,0.95856c-0.25025,0 -0.45313,-0.42916 -0.45313,-0.95856z" fill="#008ae6" stroke-width="0"/><path d="M240.69979,200.01003c0.07892,-0.00736 0.1526,0.07 0.20772,0.20091c0.05525,0.13092 0.09193,0.31542 0.09713,0.52227c0.00504,0.20696 -0.0224,0.39744 -0.07075,0.53808c-0.04848,0.14062 -0.11785,0.23142 -0.19677,0.23877c-0.07892,0.00736 -0.15261,-0.07 -0.20772,-0.20089c-0.05525,-0.13092 -0.09195,-0.31541 -0.097,-0.52225c-0.00518,-0.20699 0.02225,-0.39747 0.07057,-0.53811c0.04848,-0.14062 0.11796,-0.23126 0.19679,-0.23877z" fill="#000000" stroke-width="0.0278"/><path d="M240.55538,200.24795c0.0419,-0.0978 0.10095,-0.15994 0.16695,-0.16301c0.06603,-0.00305 0.12675,0.05362 0.17136,0.14739c0.0448,0.0938 0.07346,0.22477 0.07549,0.37069c0.00217,0.14612 -0.02276,0.27956 -0.06483,0.37735c-0.0419,0.0978 -0.10095,0.15998 -0.16695,0.16303c-0.06603,0.00305 -0.12675,-0.05361 -0.17136,-0.1474c-0.0448,-0.0938 -0.07346,-0.22477 -0.07549,-0.37069c-0.00217,-0.14612 0.02276,-0.27956 0.06483,-0.37735z" fill="#ffffff" stroke-width="0.01811"/></g><path d="M240.59876,199.44068c-0.41598,-0.42365 -0.72904,-0.49569 -1.03205,-0.23153c-0.22698,0.17767 -0.383,0.79509 -0.39571,1.21444c-0.01699,0.56033 0.12964,0.98414 0.12964,0.98414c0,0 -0.12404,-0.12706 -0.22167,-0.41893c-0.09763,-0.29187 0.0206,-0.63787 -0.1514,-0.75489c-0.18012,-0.12255 -1.02374,-0.25869 -1.02374,-0.25869c0,0 1.18552,-0.00044 1.18793,-0.07506c0.01043,-0.32357 0.20922,-0.65476 0.32552,-0.75955c0.20913,-0.18845 0.43372,-0.26181 0.70783,-0.18982c0.19655,0.05163 0.36344,0.21798 0.57155,0.43023c0.67457,0.688 0.61877,2.11745 0.61877,2.11745c0,0 -0.14592,-1.60991 -0.71667,-2.05779z" data-paper-data="{&quot;index&quot;:null}" fill="#000000" stroke="none" stroke-width="0" stroke-linecap="butt"/><path d="M244.99693,201.16906l0.45,-0.13333c0,0 -0.40244,0.8 -0.81666,0.8c-0.41422,0 -0.55,-0.53333 -0.55,-0.53333z" data-paper-data="{&quot;index&quot;:null}" fill="#f0e9bb" stroke="none" stroke-width="0" stroke-linecap="butt"/><path d="M240.70419,201.60681l0.46708,-0.04595c0,0 -0.54629,0.70961 -0.95305,0.63138c-0.40676,-0.07822 -0.43938,-0.6276 -0.43938,-0.6276z" data-paper-data="{&quot;index&quot;:null}" fill="#f0e9bb" stroke="none" stroke-width="0" stroke-linecap="butt"/><path d="M245.79489,194.33803c0.89017,-0.13167 1.53273,0.00325 1.91114,0.27572c0.05392,0.03863 0.02437,0.07946 0.08967,0.14211c0.07899,0.0759 0.29363,0.19131 0.25292,0.16276c0,0 -0.07653,0.15489 -0.06897,0.22774c0.00967,0.09261 0.12721,0.19961 0.03874,0.17766c0,0 0.05956,0.13571 0.04788,0.18509c-0.12746,0.53937 -0.56113,1.23746 -1.13694,1.59871c0.31354,0.46926 -1.66734,-2.35025 -1.13443,-2.76977z" data-paper-data="{&quot;index&quot;:null}" fill="#ed3e67" stroke="none" stroke-width="0.17188" stroke-linecap="butt"/><path d="M237.84707,198.51637l-0.1281,2.30693l0.23684,1.858l0.27,1.31409c0.03194,0.15448 -1.61281,-1.04939 -1.9544,-1.47756c-0.42277,-0.52972 -0.69585,-1.11052 -0.96633,-1.69223c-0.19733,-0.42389 -0.2148,-0.59804 -0.27869,-0.90659l-0.19816,-0.95796c-0.03767,-0.182 -0.13337,-1.10839 0.04438,-1.26885c0.05046,-0.04551 0.6943,0.41382 0.76769,0.41151l0.53564,-0.01843c0.15892,-0.00533 0.63104,-0.34725 0.76783,-0.45968c0.09997,-0.08203 0.65316,-0.71372 0.70796,-1.32706l0.05416,-0.60671c0.00813,-0.09085 -0.22733,-1.04181 -0.19108,-1.05917c0.07463,-0.03602 -0.77211,-1.04298 -0.69444,-1.08466c0.4321,-0.23258 0.95602,-0.53001 1.54567,-0.66383c0.92696,-0.21038 1.94343,-0.18805 2.4643,-0.18494c0.08881,0.00053 1.22044,0.02972 1.89862,0.25298c1.07391,0.35345 1.68136,1.03643 1.72312,1.07386c0.65595,0.5875 1.14565,1.27362 1.49133,2.04514l0.18943,0.65333c0.09699,0.33442 0.43378,2.17617 0.25814,2.8296l-0.59922,2.23153c-0.10483,0.39082 -1.12475,2.2255 -1.33604,2.12083c-0.29607,-0.14634 -0.3104,-1.2979 -0.40955,-1.15609c-0.2198,0.31408 1.5137,-1.23781 1.59355,-1.66951c0.1364,-0.73809 0.41303,-1.44198 0.3464,-1.96056c-0.01266,-0.09792 -0.02703,-0.76835 -0.0393,-0.93047c-0.00953,-0.12817 -0.08843,-0.23201 -0.21701,-0.19788c-0.08557,0.02264 -0.28987,-0.08059 -0.417,0.12504l-0.3766,0.60986c-0.06113,0.09874 -1.1915,1.89272 -1.2487,1.75711c-0.01055,-0.02521 0.21211,-0.59817 0.22407,-0.63619c0.07271,-0.22994 0.07922,-0.4088 0.00661,-0.32608c-0.19097,0.21755 -0.50977,0.78797 -0.50977,0.78797c-0.04573,0.07037 -0.55868,0.03066 -0.90562,-0.08715c-0.32279,-0.1096 -0.73074,-0.49526 -0.8336,-0.59047l-1.11742,-1.03524c-1.04957,-0.97189 -0.97965,-0.55354 -1.04143,-0.66619c0.04627,-0.07543 -0.74464,-0.09663 -0.93088,0.07863c-0.0742,0.06981 -0.30104,0.20395 -0.4179,0.27277c-0.15552,0.09142 -0.26261,0.14565 -0.31453,0.23427z" data-paper-data="{&quot;index&quot;:null}" fill="#54c81c" stroke="none" stroke-width="0.17188" stroke-linecap="butt"/><path d="M233.92735,197.02523c-0.58602,-0.19558 -1.13162,-0.73123 -1.37378,-1.19361c-0.02223,-0.0423 -0.00387,-0.17998 -0.00387,-0.17998c-0.07115,0.04062 0.00452,-0.0844 -0.00985,-0.17104c-0.01125,-0.06809 -0.11541,-0.19163 -0.11541,-0.19163c-0.0282,0.03556 0.12904,-0.11961 0.17887,-0.2071c0.04107,-0.07244 0.00547,-0.10278 0.04266,-0.15079c0.26044,-0.33625 0.78278,-0.60865 1.58435,-0.69583c1.04878,-0.11388 1.97597,0.64928 1.97873,1.02607c0,0 -1.28097,2.09772 -2.28175,1.76388z" data-paper-data="{&quot;index&quot;:null}" fill="#ed3e67" stroke="none" stroke-width="0.17188" stroke-linecap="butt"/><path d="M236.98192,195.92824c0.14291,-0.1014 -0.27114,1.33365 -0.63915,1.53619c-0.63293,0.34825 -0.55994,0.60072 -1.10401,0.4393c-0.12219,-0.03604 -0.36519,-0.24927 -0.71329,-0.39008c-0.40327,-0.16293 -0.76098,-0.39091 -0.62822,-0.46084l0.79835,-0.47571l1.17881,-1.3299c0.01834,-0.0207 -0.22581,-0.22322 -0.60523,-0.48719c-0.26604,-0.18518 -0.66369,-0.40428 -0.97319,-0.52116c-0.18237,-0.0688 0.18011,-0.2822 0.6971,-0.43407c0.2506,-0.07366 0.51662,-0.17052 0.81442,-0.1559c0.51572,0.02546 0.89702,0.61348 1.03928,1.21136c0.1333,0.55989 0.03998,1.13526 0.13513,1.06798z" data-paper-data="{&quot;index&quot;:null}" fill="#54c81c" stroke="none" stroke-width="0.17188" stroke-linecap="butt"/><path d="M237.72571,195.88764c0.03435,1.17315 -1.11767,2.21981 -1.49288,2.19596l-0.58878,0.11246l-0.83792,-0.4921c-0.2145,-0.12608 1.16273,0.06572 1.49485,-0.30433c0.21679,-0.24136 0.37507,-0.42776 0.4051,-0.52292c0.28483,-0.90745 0.24781,-1.64755 0.06481,-2.12863c-0.28758,-0.75596 -0.85494,-0.99486 -0.48822,-1.17262c0.87442,-0.42408 1.40547,1.03004 1.44309,2.31217z" data-paper-data="{&quot;index&quot;:null}" fill="#ead32e" stroke="none" stroke-width="0.17188" stroke-linecap="butt"/><path d="M245.43896,195.20057c0,0 -0.27366,-0.33607 -0.46711,-0.59538c-0.40356,-0.54094 -1.00821,-0.86363 -0.89382,-1.01691c0.09576,-0.06236 0.59087,0.06376 0.72674,0.18961l0.27603,0.25544c0.4853,0.44933 0.68078,1.10607 0.67493,1.37564c-0.00251,0.11661 0.12235,0.32851 0.08131,0.45852c0,0 -0.31928,-0.40175 -0.39808,-0.66696z" data-paper-data="{&quot;index&quot;:null}" fill="#ead32e" stroke="none" stroke-width="0.17188" stroke-linecap="butt"/><path d="M245.06971,193.91787c0,0 1.04051,-0.03971 1.22924,0.2468c0.12547,0.19026 -0.04077,0.65286 0.10462,0.79693c0.18051,0.1789 0.45189,0.62197 0.59674,0.94832c0.04497,0.29901 0.15456,0.58482 0.02875,0.91968c0.0543,0.29422 -0.67476,0.84123 -0.70213,0.74481l-0.37215,-1.31058c-0.09441,-0.33253 -0.30808,-1.00645 -0.36697,-1.14305z" data-paper-data="{&quot;index&quot;:null}" fill="#54c81c" stroke="none" stroke-width="0.17188" stroke-linecap="butt"/><path d="M239.67942,203.00133l0.83906,-0.00612" data-paper-data="{&quot;index&quot;:null}" fill="none" stroke="#dfcfa3" stroke-width="0.36953" stroke-linecap="round"/><g data-paper-data="{&quot;index&quot;:null}" stroke="none" stroke-width="0.17188" stroke-linecap="butt"><path d="M239.99763,203.79723c0.0198,0.81928 -0.42082,1.17349 -0.56447,1.05633c-0.333,-0.27137 -1.32031,-3.10168 -1.38357,-4.48893c-0.0398,-0.87676 -0.6556,-2.99037 -0.36447,-3.79517c0.19154,-0.52875 1.0305,-0.62296 1.60367,-0.62197c0.44366,-0.00012 0.55857,-0.15042 0.59722,0.27795c0.11668,1.29561 -0.22829,2.57205 -0.20396,4.22409c0.02435,1.65204 0.28954,2.26895 0.31558,3.34768z" fill="#319a2b"/><path d="M238.56018,194.82551c-0.3089,0.41031 -0.67315,0.30431 -0.83205,0.18463c-0.76165,-0.61379 -1.27155,-1.73838 -1.24476,-2.61624c-0.0398,0.17437 0.25342,-0.82591 1.2008,-0.76607c0.41035,0.0082 1.15226,-0.17234 1.81168,-0.19941l0.63293,0.13873c0.29085,0.06364 0.44094,0.46824 0.29261,0.75133c-0.02192,0.04189 0.22125,-0.06805 0.36152,0.06123c0.25247,0.23271 0.46441,0.76916 0.27177,1.01535c-0.16872,0.21604 -0.16368,0.63113 -0.50953,0.83109c-0.46636,0.26964 -0.28624,-0.40789 -0.71413,-0.32188c-0.25434,0.05101 -1.26374,0.91205 -1.27081,0.92127z" fill="#f0e9bb"/><path d="M239.46325,196.31383c-0.2877,0.10629 -1.79364,0.97752 -1.99819,0.7381c-0.359,-0.47357 0.17855,-1.60744 -0.13018,-2.10568c0.09822,0.1526 0.70485,0.024 0.70485,0.024c0.0324,-0.00958 0.49205,-0.20861 0.95967,-0.62628c0.3845,-0.34338 0.7656,-0.72443 0.98238,-0.57524c0.15006,0.10307 0.55011,0.42332 0.56576,0.79945c0.01649,0.39963 0.17303,0.92985 0.07032,1.32924c-0.04443,0.17294 -0.43979,1.15512 -0.52109,1.27658c-0.12391,0.18469 -0.1934,-0.43845 -0.14594,-0.40588c0.23704,0.16265 -0.19612,-0.56182 -0.48757,-0.45425z" fill="#ead42f"/></g><g data-paper-data="{&quot;index&quot;:null}" stroke="none" stroke-linecap="butt"><path d="M244.31848,215.42166l1.68749,-0.24515l1.72393,-0.46726l0.53571,0.81182c0,0 -1.47462,0.79122 -2.43588,0.89982c-0.96125,0.1086 -2.52573,0.02437 -2.53559,-0.24497c-0.03008,-0.82182 -0.88542,-2.64321 -0.89812,-2.75765z" data-paper-data="{&quot;index&quot;:null}" fill="#54c81c" stroke-width="0.17188"/><path d="M245.20775,214.13067c0.62091,0.36465 3.27737,0.5536 1.87447,0.8758c-1.40292,0.32219 -3.61289,0.91279 -3.82475,0.2135c-0.19618,-0.64794 -0.65237,-1.11888 -0.98521,-2.24398c-0.33283,-1.12509 -1.39301,-4.33491 -1.09598,-5.33006c1.64366,1.54742 1.73366,4.23345 2.69234,5.35617c0.95869,1.12273 0.7182,0.76394 1.33911,1.12861z" data-paper-data="{&quot;index&quot;:null}" fill="#ffffff" stroke-width="0.17188"/><path d="M243.54986,216.52871c-0.02947,0.69999 0.83555,1.15509 1.34487,1.82346c0.50933,0.6684 1.52397,1.58272 1.52397,1.58272c0,0 -4.18294,-0.2854 -5.09095,-0.84131c-0.90801,-0.5559 -1.57423,-1.56763 -1.53901,-2.03556c0.05991,-0.79633 -0.12311,-3.16128 -0.1246,-3.27241c-0.00366,-0.26879 2.5291,-0.45989 2.5246,0.15957z" data-paper-data="{&quot;index&quot;:null}" fill="#54c81c" stroke-width="0.17188"/><path d="M240.94846,206.97746l0.75381,1.10568c0.59135,0.65227 0.85181,2.79838 0.85181,2.79838c0.29044,1.03525 0.4627,1.39567 0.48671,2.75123c0.02374,1.34141 0.23551,1.21727 0.29652,1.82585c0.06103,0.60858 0.9854,1.65826 0.47856,1.6998c-0.48477,0.03973 -2.77452,-0.30074 -3.30669,-1.00543c-0.26043,-0.34435 -0.82516,0.30148 -0.99253,-0.39712c-0.15496,-0.64728 -0.91607,-3.17551 -1.30166,-4.53503c-0.38556,-1.35949 -0.27582,-2.91294 -0.20953,-3.42548c0.02539,-0.19622 0.7987,-0.61096 0.7987,-0.61096z" data-paper-data="{&quot;index&quot;:null}" fill="#ffffff" stroke-width="0.17188"/><g data-paper-data="{&quot;index&quot;:null}"><path d="M233.16027,212.84218c0.33694,-0.68926 2.22126,-1.48341 2.84302,-2.4158c1.21303,-1.81904 2.79259,-3.64667 2.88846,-3.4709c0.10701,0.24822 -1.63209,6.32921 -2.74865,8.13225c-0.44262,0.71679 -3.3036,-1.30789 -2.98284,-2.24553z" data-paper-data="{&quot;index&quot;:null}" fill="#ffffff" stroke-width="0.19137"/><path d="M235.16727,213.98919c0.29597,0.41328 0.83829,-0.2984 0.66608,0.1268c-0.12008,0.29649 -1.07307,0.8135 -1.63267,1.53362c-0.24249,0.31184 -1.79733,-2.61405 -1.79733,-2.61405l1.10183,-0.69461c0,0 1.05584,1.29859 1.35187,1.71195z" data-paper-data="{&quot;index&quot;:null}" fill="#54c81c" stroke-width="0.17188"/></g><path d="M239.50301,217.33924c0,0 -3.09871,0.34857 -4.18341,0.32893c-1.0847,-0.01967 -2.7328,-0.58223 -2.7328,-0.58223l-2.7173,-1.33787c0,0 1.58092,-0.7885 2.32777,-0.85598c0.74683,-0.06748 3.57867,0.64121 3.6179,0.5153c0.09499,-0.30481 4.51631,-0.13473 4.28282,0.56082z" data-paper-data="{&quot;index&quot;:null}" fill="#54c81c" stroke-width="0.17188"/><path d="M240.09435,207.06409c0.57654,0.19409 1.26974,2.60852 1.05328,3.64448c-0.21646,1.03595 -0.42274,3.5984 -0.89069,5.1c-0.46304,1.48579 -2.74501,0.80976 -3.33617,0.99051c-0.59115,0.1807 -1.65698,-0.35617 -1.65698,-0.35617c0,0 -0.79469,0.01354 -1.64197,-0.22009c-0.84727,-0.23359 -2.36471,-0.51552 -1.98243,-0.77931c0.95081,-0.6561 4.05412,-3.16281 4.31933,-3.60963c0.7463,-1.25721 2.1336,-3.18291 2.67323,-3.79627c0.53961,-0.61335 1.4624,-0.97352 1.4624,-0.97352z" data-paper-data="{&quot;index&quot;:null}" fill="#ffffff" stroke-width="0.17188"/></g><g data-paper-data="{&quot;index&quot;:null}" stroke="none" stroke-linecap="butt"><path d="M241.24937,203.68778c0.16391,-0.06795 0.33039,0.07126 0.46699,0.35092c0.13658,0.27964 0.24342,0.69995 0.28779,1.19417c0.04438,0.49414 0.01799,0.96949 -0.06035,1.33833c-0.07841,0.36883 -0.20885,0.63102 -0.37274,0.69897c-0.16378,0.06788 -0.33028,-0.07133 -0.46697,-0.35103c-0.13658,-0.27966 -0.24332,-0.69991 -0.28768,-1.19414c-0.04438,-0.49414 -0.01808,-0.96951 0.06035,-1.33833c0.07832,-0.36884 0.20884,-0.63101 0.37263,-0.69891z" fill="#eb3d66" stroke-width="0.01872"/><path d="M241.47997,204.08366c0.07533,-0.02841 0.158,0.03465 0.23072,0.15957c0.07282,0.12496 0.13558,0.31169 0.17117,0.53055c0.03566,0.21889 0.03725,0.42872 0.01121,0.59097c-0.0261,0.16232 -0.07986,0.27702 -0.15518,0.30542c-0.07525,0.02854 -0.15793,-0.03464 -0.23074,-0.15956c-0.07282,-0.12495 -0.13559,-0.31169 -0.17119,-0.53046c-0.03557,-0.21886 -0.03724,-0.42884 -0.01116,-0.59106c0.02611,-0.16231 0.07984,-0.2769 0.1552,-0.30541z" fill="#ffffff" stroke-width="0.01896"/></g><path d="M245.9166,199.76537l0.05378,-0.20263l0.88618,0.02564z" data-paper-data="{&quot;index&quot;:null}" fill="#000000" stroke="none" stroke-width="0" stroke-linecap="butt"/><path d="M240.07349,206.95792c0.63977,0 0.89817,-0.34217 1.08406,-0.04276c0.09599,0.15462 -0.57084,0.49821 -1.2093,0.46382c-0.7188,-0.17263 -1.56843,0.15139 -1.56843,0.15139l0.23391,-0.60534c0,0 0.81999,0.03289 1.45976,0.03289z" data-paper-data="{&quot;index&quot;:null}" fill="#ead42f" stroke="none" stroke-width="0" stroke-linecap="butt"/></g></g></svg>