<svg version="1.1" xmlns="http://www.w3.org/2000/svg" xmlns:xlink="http://www.w3.org/1999/xlink" width="32.38377" height="34.73238" viewBox="0,0,32.38377,34.73238"><g transform="translate(-221.14303,-165.50483)"><g data-paper-data="{&quot;isPaintingLayer&quot;:true}" fill-rule="nonzero" stroke-miterlimit="10" stroke-dasharray="" stroke-dashoffset="0" style="mix-blend-mode: normal"><g data-paper-data="{&quot;index&quot;:null}" stroke-width="0" stroke-linecap="butt" stroke-linejoin="miter"><g data-paper-data="{&quot;index&quot;:null}"><path d="M230.38453,167.4304c0,-1.06346 0.8653,-1.92557 1.93267,-1.92557c1.06738,0 1.93265,0.86211 1.93265,1.92557c0,1.06346 -0.86528,1.92557 -1.93265,1.92557c-1.06738,0 -1.93267,-0.86211 -1.93267,-1.92557z" fill="#e0cb17" stroke="none"/><path d="M231.05236,168.06554c0,-0.65701 0.53456,-1.18962 1.194,-1.18962c0.65944,0 1.194,0.5326 1.194,1.18962c0,0.65701 -0.53456,1.18962 -1.194,1.18962c-0.65944,0 -1.194,-0.53261 -1.194,-1.18962z" fill="#e0cb17" stroke="#000000"/><path d="M230.69587,171.75559c-0.3444,-1.03347 0.44156,-2.13075 0.44156,-2.13075l2.10321,-0.01487c0,0 0.15323,0.20302 0.48585,1.50522c0.34536,1.35211 -0.98611,4.48625 -0.98611,4.48625c0,0 -1.7001,-2.81238 -2.04451,-3.84585z" fill="#e8edf4" stroke="#000000"/><path d="M232.21958,169.85c-0.51125,0.00227 -1.36863,-0.28808 -1.36863,-0.28808l0.21781,-0.68142c0,0 0.62849,0.40447 1.08264,0.43022c0.45414,0.02575 1.09235,-0.30689 1.09235,-0.30689l0.28233,0.4899c0,0 -0.72235,0.35366 -1.30651,0.35626z" fill="#dbded5" stroke="#000000"/></g><g data-paper-data="{&quot;index&quot;:null}" stroke="none"><path d="M238.27703,173.60197c0.20118,0 0.36426,0.33852 0.36426,0.75611c0,0.41759 -0.16308,0.75611 -0.36426,0.75611c-0.20118,0 -0.36428,-0.33853 -0.36428,-0.75611c0,-0.41759 0.16309,-0.75611 0.36428,-0.75611z" fill="#000000"/><path d="M239.68243,178.87693c0.20956,0 0.83479,0.90506 0.83479,1.0888c0,0.18374 -0.35203,1.39124 -0.56158,1.39124c-0.20956,0 -1.25977,-0.33269 -1.25977,-0.33269c0,0 0.77701,-2.14736 0.98657,-2.14736z" fill="#807d5a"/><path d="M233.6163,168.82566l0.13154,-0.15122l4.86707,5.89768l-0.1012,0.31253z" fill="#6e6e73"/><path d="M235.44778,170.53951l-0.30356,0.32261l-1.17375,-1.36101l0.33391,-0.32261z" fill="#ddcb1e"/></g></g><g stroke-width="0" stroke-linecap="butt" stroke-linejoin="miter"><g data-paper-data="{&quot;index&quot;:null}"><path d="M251.0475,170.88621c-1.36927,0 -2.47929,-1.10593 -2.47929,-2.47018c0,-1.36424 1.11001,-2.47019 2.47929,-2.47019c1.36927,0 2.47929,1.10594 2.47929,2.47019c0,1.36424 -1.11002,2.47018 -2.47929,2.47018z" fill="#e0cb17" stroke="none"/><path d="M251.13836,170.75689c-0.84593,0 -1.5317,-0.68326 -1.5317,-1.52609c0,-0.84284 0.68576,-1.52608 1.5317,-1.52608c0.84593,0 1.53171,0.68324 1.53171,1.52608c0,0.84284 -0.68577,1.52609 -1.53171,1.52609z" fill="#e0cb17" stroke="#000000"/><path d="M253.12739,173.96452c-0.44182,1.32576 -2.62278,4.54805 -2.62278,4.54805c0,0 -1.70805,-3.63505 -1.26501,-5.36956c0.42669,-1.67051 0.62326,-1.93095 0.62326,-1.93095l2.69807,0.01907c0,0 1.00827,1.40763 0.56646,2.7334z" fill="#e8edf4" stroke="#000000"/><path d="M251.17272,171.51995c-0.74937,-0.00331 -1.67602,-0.45702 -1.67602,-0.45702l0.36218,-0.62847c0,0 0.81871,0.42674 1.40131,0.39371c0.58259,-0.03303 1.38884,-0.55192 1.38884,-0.55192l0.27941,0.87416c0,0 -1.09986,0.37246 -1.75571,0.36955z" fill="#dbded5" stroke="#000000"/></g><g data-paper-data="{&quot;index&quot;:null}" stroke="none"><path d="M244.68361,178.83711c0.20578,0.42419 0.03894,2.19213 0.03894,2.19213l-3.11533,0.0194c0,0 -1.01532,-1.28904 -0.69622,-2.71278c0.23458,-1.04665 1.78092,-2.34443 1.98128,-2.35045c1.29092,-0.0388 1.58553,2.42751 1.79131,2.85171z" fill="#e4dcaa"/><path d="M243.86932,177.30308c0,0.5357 -0.20921,0.96997 -0.46729,0.96997c-0.25808,0 -0.46731,-0.43427 -0.46731,-0.96997c0,-0.5357 0.20922,-0.96997 0.46731,-0.96997c0.25808,0 0.46729,0.43426 0.46729,0.96997z" fill="#000000"/><path d="M244.57027,183.21342c-0.14743,0.84753 -0.61066,2.20732 -0.61066,2.20732l-1.18066,0.48271c0,0 -1.42785,-0.57438 -1.4019,-1.34502c0.01289,-0.38265 0.21929,-3.37045 0.21929,-3.37045l1.23122,-0.78486c0,0 0.60337,0.05153 0.96773,0.159c0.36436,0.10747 0.93073,0.45271 0.93073,0.45271c0,0 -0.00834,1.35107 -0.15577,2.1986z" fill="#dfcc17"/><path d="M242.86472,185.85472c0,0 -1.34724,0.42678 -1.61608,0.42678c-0.26884,0 -0.72043,-1.54904 -0.72043,-1.78475c0,-0.23571 0.80206,-1.39676 1.0709,-1.39676c0.26884,0 1.2656,2.75471 1.2656,2.75471z" fill="#807d5a"/><path d="M243.09836,177.97857l-0.12981,-0.40092l6.24365,-7.56575l0.16875,0.194z" fill="#6e6e73"/><path d="M248.49827,170.65855l0.42836,0.41385l-1.50574,1.74595l-0.38942,-0.41386z" fill="#ddcb1e"/></g></g><g stroke="none" stroke-width="0" stroke-linecap="butt" stroke-linejoin="miter"><g><path d="M239.59625,199.1407c0,0 2.00677,-1.28526 2.7124,-2.05288c0.57194,-0.62218 1.20516,-2.20888 1.20516,-2.20888c0,0 0.78568,0.44317 0.70577,1.96354c-0.02247,0.42758 -0.64634,0.8557 -0.64634,0.8557l-0.96392,0.19273c0,0 -0.76475,1.07851 -1.27419,1.40005c-0.8582,0.54168 -1.55247,0.90244 -2.65566,0.94474c-1.10319,0.0423 -0.63245,-0.81868 -0.63245,-0.81868l1.54924,-0.27633z" fill="#393939"/><path d="M238.25431,191.95058l2.77607,-1.22498l0.3326,0.64078l-0.15376,0.11691c0,0 0.27244,0.11388 0.31601,0.17695c0.19085,0.27632 0.04262,0.29595 0.04262,0.29595c0,0 0.49971,0.12306 0.76931,0.41132c0.26961,0.28825 0.65459,0.6338 0.87305,1.15532c0.21846,0.52151 0.27136,1.57676 0.27136,1.57676c0,0 0.01394,2.19113 -3.4789,3.97022c-1.03371,0.52652 -1.68562,0.37256 -1.68562,0.37256c0,0 -0.59314,-1.4871 -0.54576,-2.55769c0.23758,-0.9778 0.29768,-1.43658 0.35629,-1.86271c0.04763,-0.34633 0.05822,-1.25272 0.05822,-1.25272l-0.10128,-0.40948l0.07179,-0.35485z" fill="#f01a40"/><path d="M238.42593,188.70606c0.40457,-0.15726 2.29809,-0.02049 2.29323,0.61375c-0.00678,0.88543 -0.00216,0.31877 0.06112,0.65175c0.06328,0.333 0.51081,0.3094 0.2036,0.74105c-0.25097,0.35263 -0.51548,0.84499 -1.08097,1.06504c-1.06247,0.28023 -1.40293,0.29158 -1.89049,0.11924c-0.32707,-0.11562 -0.34067,-0.92686 -0.34067,-0.92686c0,0 -0.61142,-0.33257 -0.67802,-0.6235c-0.0666,-0.29093 0.61041,-1.32106 1.4322,-1.64047z" fill="#ffffff"/><path d="M238.93887,192.88401c-0.02247,-0.31671 -0.3038,-0.85904 -0.3038,-0.85904l1.40803,-0.3485l0.19733,0.969l-0.15584,0.36886l0.02263,0.34462c0,0 -0.08266,1.03846 -0.00497,2.21478c0.06157,0.44492 0.77157,3.04259 0.77157,3.04259c0,0 -0.98999,0.58434 -1.2392,0.6699c-0.24223,0.08316 -0.75326,0.17176 -0.75326,0.17176c0,0 -0.40562,-1.42394 -0.49581,-2.42725c-0.07323,-0.8146 0.60985,-3.48505 0.60985,-3.48505c0,0 -0.05232,-0.60208 -0.05655,-0.66166z" fill="#ffffff"/></g><path d="M240.07221,189.49613c0.0816,0.37573 -0.36913,0.79257 -1.00673,0.93105c-0.6376,0.13847 -1.22063,-0.05387 -1.30223,-0.42961c-0.0816,-0.37573 0.36913,-0.79257 1.00673,-0.93103c0.6376,-0.13847 1.22062,0.05387 1.30223,0.4296z" fill="#afafaf"/></g><path d="M240.97463,182.21419l1.33025,-0.06623l2.34916,1.98201l2.40143,0.12316c0,0 -1.47831,0.966 -2.37307,0.95535c-0.82341,-0.00981 -3.70777,-2.9943 -3.70777,-2.9943z" fill="#f79db4" stroke="none" stroke-width="0" stroke-linecap="butt" stroke-linejoin="miter"/><g stroke="none" stroke-width="0" stroke-linecap="butt" stroke-linejoin="miter"><path d="M232.05613,184.60061c0.5553,-0.6446 1.63205,-1.57703 1.63205,-1.57703l2.32463,0.78973c0,0 0.25976,0.25475 0.32341,0.81262c0.04133,0.3623 -0.20696,0.91116 -0.20696,0.91116c0,0 0.57877,-0.41269 0.85667,0.09311c0.17843,0.32475 -0.45199,1.23736 -0.74896,1.50217c-0.17482,0.15589 -0.57285,0.32304 -0.90916,0.30489c-0.21214,-0.01144 -0.44216,-0.1932 -0.44216,-0.1932c0,0 -0.2255,0.30153 -0.5668,0.09006c-0.10458,-0.06479 -0.26581,-0.12387 -0.26581,-0.12387c0,0 -0.22852,0.1649 -0.37586,0.19935c-0.14733,0.03445 -0.38556,-0.04098 -0.38556,-0.04098l-0.24029,-0.34388c0,0 -0.5305,0.10587 -0.63615,0.07211c-0.41451,-0.13245 -0.4522,-0.61351 -0.47411,-0.87157c-0.0401,-0.4725 0.02658,-1.522 0.11506,-1.6247z" fill="#ffffff"/><path d="M234.035,181.47343c0.30814,-0.32953 1.59401,-0.37372 2.081,-0.08618c1.37159,0.80989 1.28081,1.26017 0.90516,1.74416c-0.57514,0.741 -1.67421,1.25409 -3.27413,-0.05282c-0.43797,-0.35776 -0.02015,-1.27562 0.28797,-1.60515z" fill="#fed000"/><path d="M236.64044,180.37281c0.59697,-0.63846 1.53979,-1.56643 2.45709,-2.23261c0.30374,-0.2206 0.49286,-0.13049 0.62816,0.02494c0.2014,0.23135 0.18245,0.46513 -0.03598,0.67155c-0.87174,0.82385 -1.61885,1.56008 -2.18366,2.16414c-0.34433,0.36825 -1.3915,1.6392 -1.3915,1.6392c0,0 -0.24108,0.06662 -0.52942,-0.05015c-0.28834,-0.11676 -0.73515,-0.41736 -0.73515,-0.41736c0,0 0.93695,-0.8869 1.79045,-1.79972z" fill="#fed5c7"/></g><path d="M239.83732,184.36668l0.0052,3.46327l-0.11333,2.24305c0,0 -0.33134,0.26533 -0.56431,0.3869c-0.23296,0.12157 -0.61347,0.12258 -0.61347,0.12258l-0.01442,-2.30467l0.04232,-3.74693z" fill="#f79db4" stroke="none" stroke-width="0" stroke-linecap="butt" stroke-linejoin="miter"/><g stroke="none" stroke-width="0" stroke-linecap="butt" stroke-linejoin="miter"><g><path d="M241.65924,198.95411c0,0 2.00678,-1.28525 2.71241,-2.05289c0.57193,-0.62218 1.20516,-2.20888 1.20516,-2.20888c0,0 0.78569,0.44318 0.70578,1.96354c-0.02247,0.42758 -0.64636,0.8557 -0.64636,0.8557l-0.96391,0.19274c0,0 -0.76475,1.0785 -1.27419,1.40004c-0.8582,0.54168 -1.55247,0.90244 -2.65566,0.94475c-1.10319,0.0423 -0.63246,-0.81868 -0.63246,-0.81868l1.54925,-0.27634z" fill="#393939"/><path d="M240.31729,191.76399l2.77607,-1.22497l0.33261,0.64078l-0.15377,0.11692c0,0 0.27245,0.11388 0.31602,0.17695c0.19085,0.27632 0.04263,0.29594 0.04263,0.29594c0,0 0.49972,0.12306 0.76931,0.41132c0.26961,0.28825 0.65459,0.6338 0.87304,1.15532c0.21846,0.52151 0.27135,1.57676 0.27135,1.57676c0,0 0.01394,2.19112 -3.4789,3.97022c-1.03371,0.52652 -1.68562,0.37257 -1.68562,0.37257c0,0 -0.59313,-1.48708 -0.54576,-2.55769c0.23758,-0.9778 0.29768,-1.43657 0.35629,-1.86271c0.04763,-0.34633 0.05822,-1.25273 0.05822,-1.25273l-0.10128,-0.40948l0.07179,-0.35485z" fill="#f01a40"/><path d="M240.48891,188.51946c0.40457,-0.15726 2.29807,-0.02048 2.29322,0.61375c-0.00678,0.88543 -0.00216,0.31876 0.06112,0.65175c0.06328,0.333 0.51081,0.30941 0.2036,0.74105c-0.25097,0.35263 -0.51547,0.84499 -1.08095,1.06504c-1.06247,0.28023 -1.40294,0.2916 -1.8905,0.11925c-0.32707,-0.11562 -0.34066,-0.92686 -0.34066,-0.92686c0,0 -0.61142,-0.33258 -0.67803,-0.6235c-0.0666,-0.29093 0.61043,-1.32106 1.4322,-1.64047z" fill="#ffffff"/><path d="M241.00185,192.69742c-0.02247,-0.31671 -0.3038,-0.85904 -0.3038,-0.85904l1.40803,-0.3485l0.19732,0.969l-0.15583,0.36886l0.02263,0.34461c0,0 -0.08266,1.03846 -0.00497,2.21479c0.06157,0.44492 0.77157,3.04258 0.77157,3.04258c0,0 -0.98998,0.58434 -1.2392,0.6699c-0.24223,0.08316 -0.75326,0.17177 -0.75326,0.17177c0,0 -0.40562,-1.42394 -0.49581,-2.42725c-0.07323,-0.8146 0.60986,-3.48504 0.60986,-3.48504c0,0 -0.05232,-0.6021 -0.05655,-0.66166z" fill="#ffffff"/></g><path d="M242.13519,189.30953c0.0816,0.37573 -0.36913,0.79256 -1.00673,0.93104c-0.6376,0.13847 -1.22063,-0.05387 -1.30223,-0.4296c-0.0816,-0.37573 0.36914,-0.79257 1.00674,-0.93105c0.6376,-0.13847 1.22063,0.05388 1.30223,0.42961z" fill="#afafaf"/></g><path d="M241.38449,179.49034c0,0 -0.70509,-0.48515 -0.83343,-0.79847c-0.13607,-0.33219 -0.03773,-1.14138 -0.03773,-1.14138l0.94772,-0.37052z" fill="#f25c76" stroke="none" stroke-width="0" stroke-linecap="butt" stroke-linejoin="miter"/><path d="M241.08586,184.55728l0.64086,3.72209l0.24475,1.33028c0,0 -0.27671,0.34221 -0.5154,0.47678c-0.23869,0.13457 -0.78808,0.25808 -0.78808,0.25808l-0.30175,-1.78308l-0.6119,-4.09511z" fill="#f79db4" stroke="none" stroke-width="0" stroke-linecap="butt" stroke-linejoin="miter"/><path d="M235.10948,181.86146c0,0 0.54573,2.92812 4.67202,3.06609c4.76471,0.15931 5.28498,-2.88744 5.28498,-2.88744l1.09315,0.24746c0,0 -1.25833,3.83245 -5.98864,3.85694c-4.59148,0.10652 -6.24764,-3.99094 -6.24764,-3.99094z" fill="#ffffff" stroke="none" stroke-width="0" stroke-linecap="butt" stroke-linejoin="miter"/><path d="M238.04336,178.54319c0.09822,-0.58489 0.95546,-1.40353 0.95546,-1.40353l0.36739,-0.0378l1.19241,0.34653c0,0 -0.01075,0.75209 0.12879,1.13997c0.17614,0.48963 0.69141,0.79854 0.69141,0.79854l0.16418,1.05864l1.45459,0.71556l0.07511,0.16357l0.62958,0.28818l1.39789,0.45591c0,0 0.02129,0.93076 -1.28245,1.79128c-1.2014,0.79298 -1.68178,1.06838 -3.54156,1.22701c-1.69886,0.1449 -2.81101,-0.3468 -4.10856,-1.4095c-0.83397,-0.68303 -1.1641,-1.79467 -1.1641,-1.79467l2.79502,-0.80497l0.04716,-0.15691l0.32623,-0.1583c0,0 -0.23825,-1.56604 -0.12852,-2.21952z" fill="#f01a40" stroke="none" stroke-width="0" stroke-linecap="butt" stroke-linejoin="miter"/><path d="M241.79289,176.92193c0,0 -0.13759,0.77644 -1.54787,0.79949c-1.31175,0.02144 -1.34815,-0.70811 -1.34815,-0.70811c0,0 0.78953,0.13026 1.29821,0.11422c0.50869,-0.01605 1.59781,-0.20559 1.59781,-0.20559z" fill="#afafaf" stroke="none" stroke-width="0" stroke-linecap="butt" stroke-linejoin="miter"/><g stroke-linecap="butt" stroke-linejoin="miter"><path d="M222.02607,180.14711c0,0 0.58536,-4.6359 5.76938,-4.03922c1.99057,0.22911 3.22976,0.99562 4.47999,2.39412c1.3192,1.47565 -0.19229,3.98072 -0.19229,3.98072l-9.06674,-0.55792z" fill="#fbdd00" stroke="none" stroke-width="0"/><path d="M222.73951,181.46946l-0.26645,-0.45787c0,0 0.22981,-0.93502 0.44518,-1.26236c0.46189,-0.70201 0.6664,-1.00807 0.72401,-0.58654c0.02866,0.20958 -0.37515,0.60687 -0.55569,1.03048c-0.2698,0.63301 -0.34705,1.27629 -0.34705,1.27629z" fill="#a58c48" stroke="#000000" stroke-width="0"/><path d="M225.74175,177.71781c0.01653,-0.18748 0.7059,-0.64208 2.03495,-0.48466c0.89052,0.10548 2.36612,0.52359 2.26763,0.98476c-0.08993,0.42113 -1.45652,-0.43028 -2.34981,-0.50904c-0.89328,-0.07876 -1.96931,0.1964 -1.95277,0.00893z" fill="#a58c48" stroke="#000000" stroke-width="0"/><path d="M232.18291,181.80734c0,0 0.00602,-0.42278 -0.12351,-0.88626c-0.1199,-0.429 -0.47853,-0.74268 -0.28419,-0.88031c0.06839,-0.04843 0.42191,0.0001 0.53537,0.38284c0.12636,0.42631 0.10371,1.04191 0.10371,1.04191z" fill="#a58c48" stroke="#000000" stroke-width="0"/><path d="M227.3883,183.23596c2.54946,0.15641 4.38801,2.25056 4.38801,2.25056l0.02982,0.59404c0,0 -1.98973,-2.63833 -5.47183,-2.25332c-2.18804,0.24193 -3.70582,1.80635 -3.70582,1.80635c0,0 -0.07499,0.28158 -0.02193,-0.31241c0.05306,-0.59398 0.08614,-0.37595 0.08614,-0.37595c0,0 1.11827,-1.92873 4.6956,-1.70925z" fill="#edeee6" stroke="none" stroke-width="0"/><path d="M232.26406,182.08514l-0.15239,0.36704c0,0 -2.02198,-3.12206 -5.44574,-2.6571c-2.1514,0.29219 -3.65022,2.12301 -3.65022,2.12301l-0.16028,-0.30054c0,0 1.26902,-2.72003 4.85221,-2.64263c2.8274,0.06107 4.55642,3.1102 4.55642,3.1102z" fill="#edeee6" stroke="none" stroke-width="0"/><path d="M227.72664,179.39347c2.56043,0.15738 4.41201,2.96706 4.41201,2.96706l-0.29729,3.32066c0,0 -1.99924,-2.63917 -5.49609,-2.25545c-2.19733,0.24112 -3.72101,1.80501 -3.72101,1.80501c0,0 -0.0373,-0.93401 0.01576,-1.528c0.05307,-0.59398 0.25623,-1.51662 0.25623,-1.51662c0,0 1.23767,-3.01349 4.8304,-2.79266z" fill="#ff1a07" stroke="none" stroke-width="0"/><path d="M229.69758,183.52007c0,0 -1.41982,-0.44715 -2.1284,-0.50964c-0.68862,-0.06072 -2.1448,0.13286 -2.1448,0.13286l0.28171,-3.19491c0,0 1.20859,-0.64832 2.10264,-0.5609c0.89403,0.08742 2.13768,0.85428 2.13768,0.85428z" fill="#ff1808" stroke="#000000" stroke-width="0"/><path d="M222.67477,185.11444c0,0 0.082,-1.84287 0.12963,-2.38326c0.01799,-0.20405 0.23764,-0.85509 0.58936,-1.27866c0.35173,-0.42357 1.07667,-0.72766 1.07667,-0.72766l-0.30227,2.97175c0,0 -0.55431,0.31907 -0.84796,0.59787c-0.29365,0.27879 -0.64546,0.81997 -0.64546,0.81997z" fill="#ff1808" stroke="#000000" stroke-width="0"/><path d="M231.72506,185.6307c0,0 -0.35339,-0.58245 -0.51552,-0.81677c-0.16211,-0.23431 -0.44833,-0.57624 -0.44833,-0.57624l0.27642,-3.13502c0,0 0.88973,0.86765 0.93095,1.30963c0.05631,0.6037 -0.24352,3.21841 -0.24352,3.21841z" fill="#ff1808" stroke="#000000" stroke-width="0"/><path d="M228.75579,186.81778c-1.33441,-0.11765 -7.50969,1.41059 -7.50969,1.41059c0,0 1.01918,-5.14575 6.80826,-4.41046c3.03576,0.38558 4.20484,2.15251 4.55881,3.49477c0.22625,0.85795 -0.07346,1.58838 -0.07346,1.58838c0,0 -2.4495,-1.96562 -3.78391,-2.0833z" fill="#fbdd00" stroke="none" stroke-width="0"/><path d="M227.36842,184.60261c-0.89445,-0.07885 -2.0406,0.09221 -2.03088,-0.01807c0.00971,-0.11028 0.85566,-0.52826 2.11307,-0.45765c0.69637,0.03911 2.01121,0.38417 2.16717,0.75453c0.10541,0.25032 -1.5546,-0.21757 -2.24938,-0.27883z" fill="#a58c48" stroke="#000000" stroke-width="0"/><path d="M222.08989,186.27028l0.30536,-0.49629c0,0 1.27062,-0.99207 1.11818,-0.58561c-0.09782,0.26084 -1.42354,1.0819 -1.42354,1.0819z" fill="#a58c48" stroke="#000000" stroke-width="0"/><path d="M231.03558,185.69063c0.03306,-0.37496 1.21089,0.73767 1.21089,0.73767l0.27534,0.78787c0,0 -1.51931,-1.15059 -1.48625,-1.52555z" fill="#a58c48" stroke="#000000" stroke-width="0"/><path d="M226.26589,192.14597c-2.73777,-0.20715 -5.14274,-2.21481 -4.99106,-3.9352c0.15169,-1.7204 3.02547,-3.03519 5.76358,-2.83233c2.85832,0.21178 5.68192,1.74549 5.53022,3.46588c-0.21155,2.39932 -3.08721,3.57033 -6.30495,3.32687z" fill="#fbdd00" stroke="#000000" stroke-width="0.25"/><path d="M222.35813,190.00301c0.0914,-1.03666 2.14125,-1.7028 4.57847,-1.48791c2.43722,0.21489 4.3389,1.22946 4.2475,2.26611c-0.0914,1.03666 -2.14126,1.70281 -4.57849,1.48792c-2.43722,-0.21489 -4.33888,-1.22947 -4.24749,-2.26612z" fill="#fbdd00" stroke="#000000" stroke-width="0.25"/><path d="M233.92371,185.92317c0,0 0.26628,-0.54622 0.33638,-0.94759c0.07011,-0.40137 0.01149,-1.04399 0.01149,-1.04399l4.19801,0.94542l6.87209,1.45763c0,0 0.23917,0.5646 0.20757,0.79527c-0.03162,0.23067 -0.51703,0.4913 -0.51703,0.4913l-6.98666,-1.05776l-4.12187,-0.64029z" fill="#fbdd00" stroke="none" stroke-width="0"/><path d="M231.62446,185.58608l-0.0397,-2.7503c0,0 2.47831,0.53332 2.63252,0.84241c0.2612,0.52346 -0.1217,2.20694 -0.47511,2.42562c-0.09309,0.05761 -1.90107,-0.22997 -1.90107,-0.22997z" fill="#c8c8c6" stroke="none" stroke-width="0"/><path d="M222.08361,179.95095c0,0 0.36693,-4.11648 5.33123,-4.31934c3.34952,-0.13687 5.031,3.23526 5.031,3.23526c0,0 -0.90889,-1.23793 -2.14587,-1.96419c-1.00115,-0.58779 -2.33716,-0.80249 -3.48158,-0.73093c-0.76982,0.04815 -1.58611,0.11902 -2.13325,0.36689c-2.25556,1.02185 -2.60151,3.41231 -2.60151,3.41231z" fill="#fbdd00" stroke="#000000" stroke-width="0.25"/><path d="M242.13759,187.18784c0,0 -0.02366,-0.38781 0.04645,-0.78918c0.07011,-0.40137 0.21152,-0.70436 0.21152,-0.70436l2.94615,0.64034c0,0 0.23916,0.5646 0.20756,0.79527c-0.03162,0.23067 -0.51703,0.4913 -0.51703,0.4913z" fill="#a56402" stroke="none" stroke-width="0"/></g><path d="M239.15957,184.49463l2.54974,0.24051c0,0 0.32509,0.19586 0.52431,0.74666c0.12939,0.3577 0.00985,0.97464 0.00985,0.97464c0,0 0.4878,-0.55848 0.89187,-0.11224c0.25945,0.28651 -0.16012,1.36483 -0.3976,1.70523c-0.1398,0.2004 -0.50343,0.46607 -0.84909,0.52881c-0.21804,0.03958 -0.49535,-0.08936 -0.49535,-0.08936c0,0 -0.15606,0.36043 -0.55348,0.22818c-0.12176,-0.04051 -0.29964,-0.06158 -0.29964,-0.06158c0,0 -0.19214,0.22251 -0.33335,0.29302c-0.14122,0.07051 -0.40117,0.05144 -0.40117,0.05144l-0.32684,-0.291c0,0 -0.51283,0.23545 -0.62822,0.22669c-0.45263,-0.03439 -0.60696,-0.51351 -0.69146,-0.77012c-0.15471,-0.46983 -0.34028,-1.55102 -0.27528,-1.67659c0.40799,-0.78817 1.27574,-1.99429 1.27574,-1.99429z" fill="#ffffff" stroke="none" stroke-width="0" stroke-linecap="butt" stroke-linejoin="miter"/><path d="M240.90457,182.60557c1.55752,0.57881 1.54729,1.05785 1.25078,1.624c-0.45397,0.86681 -1.48788,1.59614 -3.37142,0.5491c-0.51562,-0.28662 -0.25577,-1.30601 -0.00013,-1.70115c0.25565,-0.39514 1.56779,-0.67746 2.12077,-0.47196z" fill="#fed000" stroke="none" stroke-width="0" stroke-linecap="butt" stroke-linejoin="miter"/><path d="M240.69575,182.97212c0.53915,0.0777 0.94552,0.35364 0.90767,0.61631c-0.03785,0.26267 -0.50561,0.4126 -1.04477,0.33489c-0.53915,-0.0777 -0.94551,-0.35363 -0.90766,-0.6163c0.03785,-0.26267 0.50561,-0.41261 1.04475,-0.3349z" fill="#c28830" stroke="none" stroke-width="0" stroke-linecap="butt" stroke-linejoin="miter"/><path d="M241.16619,177.96106c0.13329,-0.36822 0.34932,-0.40103 0.55712,-0.34595c0.30929,0.08199 0.42967,0.29498 0.36179,0.60105c-0.27095,1.2215 -0.48552,2.29446 -0.61995,3.14658c-0.08196,0.51949 -0.32804,2.55844 -0.32804,2.55844c0,0 -0.10931,-0.01967 -0.42666,0.04817c-0.31734,0.06784 -0.78217,-0.21402 -0.78217,-0.21402c0,0 0.21871,-1.14094 0.42185,-2.42862c0.14208,-0.90066 0.4135,-2.25367 0.81606,-3.36566z" fill="#fed5c7" stroke="none" stroke-width="0" stroke-linecap="butt" stroke-linejoin="miter"/><g><path d="M239.73459,171.07369c0,0 0.61759,-0.67464 1.40761,-0.76552c0.70503,-0.08111 1.01817,0.1168 1.47414,0.63c0.69072,0.77739 0.3,2.12111 0.3,2.12111c0,0 0.35349,-2.02528 -1.18672,-2.52077c-0.9529,-0.30654 -1.99504,0.53519 -1.99504,0.53519z" fill="#000000" stroke="none" stroke-width="0" stroke-linecap="butt" stroke-linejoin="miter"/><path d="M240.82368,166.154c3.33818,0 6.0443,2.33386 6.0443,5.21282c0,2.87895 -2.70612,5.2128 -6.0443,5.2128c-3.33818,0 -6.04431,-2.33384 -6.04431,-5.2128c0,-2.87895 2.70612,-5.21281 6.04431,-5.21281z" fill="#f79eb4" stroke="none" stroke-width="0" stroke-linecap="butt" stroke-linejoin="miter"/><path d="M235.54294,172.63024c-0.00019,-0.00071 0.19735,1.16732 0.60411,1.81476c0.40677,0.64744 1.9589,2.37171 1.9589,2.37171l0.28262,0.91116c0,0 -1.47979,-0.05771 -2.69053,-2.22704c-0.75503,-1.34395 -0.72519,-2.40445 -0.71892,-2.38834" fill="#f79eb4" stroke="#f89db5" stroke-width="0" stroke-linecap="butt" stroke-linejoin="round"/><g fill="#ffd5c5" stroke="none" stroke-width="1" stroke-linecap="round" stroke-linejoin="round"><path d="M236.46545,175.02548c0.01286,-0.05827 0.10724,0.05912 0.15022,0.10052c0.26562,0.25558 0.5611,-0.04023 0.75847,-0.1947c0.15166,-0.11865 0.39988,-0.18165 0.58844,-0.18388c0.9073,-0.00118 2.65248,0.58906 2.96625,0.60243c0.29203,0.01245 1.1405,-0.45673 1.45072,-0.56231c0.31827,-0.10832 0.58883,-0.00731 0.63715,0.0301c0.10131,0.07848 0.81974,0.57762 -0.13962,1.61022c-0.1333,0.14347 -0.97502,0.67153 -1.44795,0.72743c-0.39656,0.04683 -1.77722,0.2449 -2.82313,-0.10525c-0.83355,-0.27907 -1.34071,-0.67124 -1.40543,-0.72159c-0.39554,-0.30784 -0.85282,-0.7683 -0.73513,-1.30295z"/><path d=""/></g><g fill="#000000" stroke="#000000" stroke-width="0.125" stroke-linecap="butt" stroke-linejoin="round"><path d="M235.58503,173.47458c0.00352,0.02456 -0.63044,-0.08212 -0.70803,-0.10451c-0.35338,-0.10189 -0.65339,-0.21094 -0.9856,-0.37014c-0.10599,-0.05078 -0.45547,-0.26627 -0.44996,-0.26442c0.16201,0.05411 0.30848,0.15939 0.46915,0.22066c0.26838,0.10227 0.54502,0.18063 0.82216,0.25642c0.44035,0.10327 0.73658,0.0728 0.799,0.09365"/><path d="M235.45263,172.98324c0.00326,0.02291 -0.61525,-0.11643 -0.91062,-0.27614c-0.29537,-0.15971 -0.93662,-0.68589 -0.9297,-0.67201c0.01836,0.03678 0.59678,0.39886 1.01418,0.58572c0.41741,0.18686 0.74875,0.17446 0.77433,0.149"/></g><g fill="#000000" stroke="none" stroke-width="1" stroke-linecap="round" stroke-linejoin="round"><path d="M237.68865,175.41111c-0.10995,0.00735 -0.48839,-0.23941 -0.33055,-0.35514c0.09124,-0.0669 0.62028,-0.12542 0.76951,-0.01737c0.19634,0.14218 -0.19987,0.33697 -0.43896,0.37251z"/><path d=""/></g><path d="M245.30588,171.81109c0.02283,0.01375 -0.1372,2.3031 -0.28494,2.82591c-0.22169,0.78448 -0.57942,1.5313 -1.10908,2.1546c-0.2252,0.26499 -0.45886,0.4838 -0.72366,0.70465c-0.08571,0.07151 -0.44345,0.30592 -0.44345,0.30592c0,0 0.38297,-1.02833 0.42394,-2.68636c0.02174,-0.88046 -0.0985,-2.82917 -0.07803,-2.77616" fill="#f79eb4" stroke="#f89db5" stroke-width="0" stroke-linecap="butt" stroke-linejoin="round"/><path d="M246.6854,171.14145c0.17972,0.35946 0.07703,2.22582 -0.29214,3.58465c-0.2845,1.04717 -0.56368,1.32951 -1.05988,1.88672c-0.56196,0.63103 -0.97324,0.69448 -0.97324,0.69448c0,0 0.46717,-1.15581 0.61363,-1.93401c0.14647,-0.7782 0.4414,-3.57904 0.42676,-3.59368" fill="#f79eb4" stroke="#f89db5" stroke-width="0" stroke-linecap="butt" stroke-linejoin="round"/><g fill="#ee1a40" stroke="none" stroke-width="1" stroke-linecap="round" stroke-linejoin="round"><path d="M236.66013,168.11266c0.09205,-0.118 2.30173,-1.90762 5.04726,-1.44986c3.39352,0.60495 3.72973,4.70868 3.7273,4.70804c-0.0339,-0.00895 -0.57704,-1.57821 -1.45484,-2.26644c-1.1382,-0.89243 -1.79743,-1.41069 -3.04667,-1.62756c-1.58499,-0.27517 -3.79199,1.11572 -3.87859,1.17164"/><path d=""/></g><path d="M236.57713,170.8951c-0.02988,-0.02425 -1.64528,0.06239 -2.21281,0.27829c-1.0394,0.3954 -2.75823,1.04966 -2.78145,1.0521c-0.01618,0.00165 0.71849,-0.47605 1.04105,-1.15488c0.26493,-0.74642 1.12857,-1.21894 1.4462,-1.29838c1.78233,-0.43557 2.72999,-0.00369 2.70729,-0.02212" fill="#f79eb4" stroke="#f89db5" stroke-width="0" stroke-linecap="butt" stroke-linejoin="round"/><path d="M236.76887,169.75251c-0.10394,-0.08347 -1.52582,-0.4938 -2.56394,-0.68926c-0.74826,-0.14088 -2.43781,-1.54327 -2.43781,-1.54327c0,0 1.44486,0.58944 3.50203,0.49751c0.60453,0.03145 0.88424,0.0447 1.16526,0.2979c0.28102,0.2532 1.18136,1.38953 1.19044,1.47261" fill="#f79eb4" stroke="#f89db5" stroke-width="0" stroke-linecap="butt" stroke-linejoin="round"/><g stroke="none" stroke-width="1" stroke-linecap="round" stroke-linejoin="round"><g fill="#f79eb4"><path d="M240.7255,167.89605c0.04438,-0.15216 1.01235,-0.92458 1.7949,-1.29471c0.78255,-0.37011 1.54968,-0.5908 1.70972,-0.36284c0.12242,0.17436 0.18027,1.04187 0.17765,1.71819c-0.00263,0.67632 -0.16825,1.29546 -0.19076,1.65428"/></g><g fill="#ffd5c5"><path d="M241.40764,168.06083c0.09971,-0.16054 0.52384,-0.53972 0.9475,-0.74847c0.42365,-0.20875 1.27994,-0.49347 1.36123,-0.38916c0.02005,0.02573 0.08923,0.77957 0.07443,1.27986c-0.01479,0.50029 -0.13066,0.89357 -0.14119,0.97843"/></g></g><g fill="#f79eb4" stroke="none" stroke-width="1" stroke-linecap="round" stroke-linejoin="round"><path d="M234.81127,169.95215c-0.00851,-0.01284 -0.4694,-0.84148 -0.60409,-1.62533c-0.0863,-0.50216 0.03057,-1.14656 0.07343,-1.16967c0.20928,-0.11275 1.03539,-0.04613 1.69966,-0.00089c0.66428,0.04524 0.97729,0.11494 1.27228,0.20333"/><path d=""/></g><path d="M238.46246,173.20569c0.64899,-0.95161 0.93837,-2.66505 2.98484,-2.89957c0.44454,-0.05095 1.7524,0.53343 1.46832,2.67571c-0.09453,0.7129 -0.41877,1.78557 -1.6902,2.37548c-0.65297,0.19369 -2.1921,-0.54254 -2.8683,-0.57727c-1.18722,-0.06096 -1.01455,0.4724 -1.60028,0.45107c-0.1466,-0.00534 -0.97292,-0.86661 -1.30206,-2.08886c-0.1552,-0.57634 -0.10873,-1.41812 -0.04066,-1.41753c0.44916,0.00388 0.83212,0.93518 1.23813,1.45808c0.28398,0.36575 0.66451,0.66728 1.00158,0.63715c0.19648,-0.01756 0.39491,-0.00763 0.80863,-0.61427z" fill="#ffffff" stroke="none" stroke-width="0" stroke-linecap="butt" stroke-linejoin="miter"/><path d="M236.63354,171.9163c-0.11506,0.08429 -1.18016,0.70281 -1.40255,0.98923c-0.65631,0.85548 -1.98292,1.36431 -1.94807,1.38906c0.0016,0.00115 0.79062,-1.04415 0.81582,-1.65408c-0.01708,-0.15006 0.662,-0.99438 0.90901,-1.13759c0.85983,-0.4985 1.67317,-0.54771 1.63251,-0.51796" fill="#f79eb4" stroke="#f89db5" stroke-width="0" stroke-linecap="butt" stroke-linejoin="round"/><g fill="#000000" stroke="#000000" stroke-width="0.125" stroke-linecap="butt" stroke-linejoin="round"><path d="M242.57966,171.01642c0.04937,-0.0181 0.0898,0.01714 0.13643,0.01964c0.04888,0.00262 0.27437,-0.01879 0.44337,-0.0638c0.86784,-0.23116 1.28479,-0.7476 1.28479,-0.7476c0,0 -0.15591,0.38172 -1.37931,0.92237c-0.19055,0.08422 -0.34379,0.07132 -0.36822,0.0353"/><path d="M242.91218,171.72435c0.0337,0.00384 0.09453,0.06281 0.12357,0.08405c0.06588,0.04823 0.55527,0.3343 1.29821,0.21882c0.24619,-0.03966 1.02076,-0.26251 1.02076,-0.26251c0,0 -0.38361,0.22833 -1.06852,0.33041c-0.28724,0.0428 -0.90724,0.04647 -1.15066,-0.03326c-0.13127,-0.04299 -0.16777,-0.08602 -0.16777,-0.08602"/></g><g stroke="none" stroke-linecap="butt" stroke-linejoin="miter"><path d="M240.36889,173.63348c0.04639,0.71913 -0.1046,1.31426 -0.33725,1.32927c-0.23265,0.015 -0.45888,-0.55579 -0.50528,-1.27491c-0.04639,-0.71913 0.10461,-1.31427 0.33726,-1.32928c0.23265,-0.015 0.45888,0.55579 0.50527,1.27492z" fill="#169c5b" stroke-width="NaN"/><path d="M240.13671,173.81001c0.01937,0.30036 -0.04778,0.54921 -0.15001,0.5558c-0.10223,0.0066 -0.20082,-0.23156 -0.22018,-0.53193c-0.01937,-0.30036 0.04778,-0.54921 0.15001,-0.5558c0.10223,-0.0066 0.20082,0.23156 0.22018,0.53193z" fill="#000000" stroke-width="0"/><path d="M240.01607,173.132c0.01961,0.3039 -0.06452,0.55669 -0.18789,0.56465c-0.12338,0.00796 -0.23929,-0.23193 -0.2589,-0.53583c-0.01961,-0.3039 0.06452,-0.5567 0.18789,-0.56466c0.12338,-0.00796 0.23929,0.23194 0.2589,0.53583z" fill="#ffffff" stroke-width="0"/></g><g stroke="none" stroke-linecap="butt" stroke-linejoin="miter"><path d="M236.95209,174.1212c0.03271,0.50723 -0.07377,0.927 -0.23787,0.93758c-0.16411,0.01058 -0.32366,-0.39202 -0.35639,-0.89925c-0.03271,-0.50723 0.07378,-0.927 0.23788,-0.93758c0.16411,-0.01058 0.32366,0.39201 0.35638,0.89924z" fill="#169c5b" stroke-width="NaN"/><path d="M236.78834,174.24571c0.01368,0.21186 -0.0337,0.38737 -0.10582,0.39203c-0.07211,0.00466 -0.14163,-0.16332 -0.15531,-0.37518c-0.01368,-0.21186 0.0337,-0.38737 0.10582,-0.39202c0.07211,-0.00466 0.14163,0.16331 0.1553,0.37517z" fill="#000000" stroke-width="0"/><path d="M236.70323,173.76748c0.01382,0.21435 -0.0455,0.39264 -0.13252,0.39826c-0.08703,0.00562 -0.16878,-0.16359 -0.18262,-0.37793c-0.01382,-0.21435 0.0455,-0.39266 0.13253,-0.39828c0.08703,-0.00562 0.16877,0.16361 0.18261,0.37795z" fill="#ffffff" stroke-width="0"/></g></g><path d="M240.94467,176.26431c0,0 0.48933,-0.05461 0.8067,-0.06254c0.31737,-0.00794 0.46449,0.06254 0.46449,0.06254" fill="none" stroke="#000000" stroke-width="0.125" stroke-linecap="round" stroke-linejoin="miter"/></g></g></svg>