<svg version="1.1" xmlns="http://www.w3.org/2000/svg" xmlns:xlink="http://www.w3.org/1999/xlink" width="34.62621" height="32.38476" viewBox="0,0,34.62621,32.38476"><g transform="translate(-222.32668,-163.61619)"><g data-paper-data="{&quot;isPaintingLayer&quot;:true}" fill-rule="nonzero" stroke-miterlimit="10" stroke-dasharray="" stroke-dashoffset="0" style="mix-blend-mode: normal"><g data-paper-data="{&quot;index&quot;:null}" stroke-linejoin="miter"><path d="M256.79533,188.41535c0,0 0.42185,-0.02035 -0.11495,0.94436c-0.40206,0.68276 -1.63484,1.57358 -2.47053,1.86416c-0.83569,0.29057 -1.68384,0.09289 -2.59286,-0.19821c-0.90901,-0.2911 -1.40698,-0.73043 -1.79847,-0.90383c-1.39204,-0.61655 -0.78267,-1.86295 -0.78267,-1.86295c0,0 3.23958,2.65136 4.05318,2.42278c1.00382,-0.28201 2.95009,-1.26466 2.95009,-1.26466z" fill="#947043" stroke="none" stroke-width="0" stroke-linecap="butt"/><path d="M251.27651,185.38461l0.34893,0.09651l0.31938,0.27557c0,0 0.81311,0.40062 1.14353,0.51482c0.40655,0.14051 0.84288,0.29447 1.82238,0.52496c0.9762,0.44211 2.03407,1.64382 2.03407,1.64382c0,0 -0.67967,1.1635 -1.61688,1.84717c-0.76849,0.44188 -1.97311,0.82917 -2.66571,0.67578c-0.822,-0.18209 -1.50157,-0.6254 -1.97619,-0.86469c-0.05466,-0.02754 -1.42541,-0.82457 -1.5605,-1.19541c-0.13512,-0.37083 -0.32769,-0.95054 -0.32769,-0.95054c0,0 -0.08455,0.1233 -0.24464,-0.1719c-0.03654,-0.06741 -0.01484,-0.36189 -0.01484,-0.36189l-0.17383,0.08423l-0.42098,-0.58651l2.34834,-1.92157z" fill="#20201f" stroke="none" stroke-width="0" stroke-linecap="butt"/><path d="M250.09613,189.6948c0,0 -0.65528,-1.34604 -0.89318,-1.88214c-0.18772,-0.42306 -0.39577,-1.00883 -0.39577,-1.00883" fill="none" stroke="#c8c7c6" stroke-width="0.125" stroke-linecap="round"/><path d="M246.83061,186.00302c-0.69489,-0.62547 0.00574,-1.75342 0.49012,-2.32279c0.48438,-0.56936 1.69958,-0.53137 1.85579,-0.43473c0.59569,0.36858 1.16132,1.29199 1.17692,1.50951c-0.06688,0.51278 -0.23105,0.81127 -0.96162,1.63203c-0.45207,0.40476 -0.89121,0.5643 -1.43885,0.48219c-0.54764,-0.08212 -0.56953,-0.3686 -1.12235,-0.86619z" fill="#c274a1" stroke="none" stroke-width="0" stroke-linecap="butt"/><path d="M246.88699,186.02996c-0.69488,-0.62545 0.00574,-1.75342 0.49012,-2.32279c0.48438,-0.56937 1.69958,-0.53139 1.85579,-0.43474c0.59568,0.36861 -0.32489,1.62707 -0.61185,2.00115c-0.23529,0.30676 -1.18123,1.25399 -1.73406,0.75639z" fill="#cacacd" stroke="none" stroke-width="0" stroke-linecap="butt"/><path d="M254.25273,189.13947c0,0 0.38201,0.23023 0.71453,0.4306c0.3325,0.20038 0.52177,0.4612 0.4771,0.55462c-0.02796,0.0585 -0.1679,0.23311 -0.47273,0.12473c-0.18189,-0.06466 -0.07457,-0.2734 -0.23967,-0.43555c-0.16508,-0.16214 -0.47924,-0.67439 -0.47924,-0.67439z" fill="#c8c7c6" stroke="none" stroke-width="0" stroke-linecap="butt"/><path d="M253.83347,190.69185c0,0 -1.33611,-1.68786 -0.31051,-3.19635c0.72022,-1.05931 1.73524,-0.52767 1.73524,-0.52767" fill="none" stroke="#c8c7c6" stroke-width="0.125" stroke-linecap="round"/><path d="M255.54978,187.71008c0,0 0.55831,0.2222 0.74624,0.35721c0.18793,0.13501 0.37531,-0.00632 0.47004,0.16187c0.15877,0.28187 0.01061,0.44954 -0.04228,0.48708c-0.08445,0.05993 -0.37372,-0.08209 -0.62786,-0.37555c-0.25414,-0.29345 -0.54612,-0.63063 -0.54612,-0.63063z" data-paper-data="{&quot;index&quot;:null}" fill="#c8c7c6" stroke="none" stroke-width="0" stroke-linecap="butt"/></g><path d="M243.91375,180.43321l2.89106,2.38391l1.75215,1.49723c0,0 -0.24615,0.29017 -0.48929,0.38982c-0.24315,0.09965 -0.65962,0.18181 -0.65962,0.18181l-1.78743,-1.35985l-2.64362,-2.23731z" data-paper-data="{&quot;index&quot;:null}" fill="#20201f" stroke="none" stroke-width="0" stroke-linecap="butt" stroke-linejoin="miter"/><g data-paper-data="{&quot;index&quot;:null}" stroke-linejoin="miter"><path d="M248.80167,195.35565l1.17691,-0.43585c0,0 0.36626,0.21033 -0.60599,0.73333c-0.70674,0.35822 -2.22529,0.44377 -3.08576,0.23789c-0.86047,-0.20588 -1.4682,-0.82967 -2.07679,-1.56496c-0.60861,-0.73529 -0.79109,-1.37379 -1.0273,-1.7309c-0.83992,-1.26982 0.34534,-1.99095 0.34534,-1.99095c0,0 1.29875,3.97967 2.10721,4.22586c0.99745,0.30374 3.16642,0.52557 3.16642,0.52557z" fill="#947043" stroke="none" stroke-width="0" stroke-linecap="butt"/><path d="M246.9648,189.3917l0.24184,0.26941l0.12038,0.40428c0,0 0.4688,0.77582 0.68547,1.05015c0.26663,0.33755 0.55108,0.70247 1.25173,1.42472c0.58377,0.89868 0.82674,2.48116 0.82674,2.48116c0,0 -1.19976,0.61341 -2.35769,0.68387c-0.88548,-0.04221 -2.10883,-0.36555 -2.60941,-0.86818c-0.5941,-0.59655 -0.92739,-1.33633 -1.1981,-1.79376c-0.03118,-0.05267 -0.75587,-1.46301 -0.66967,-1.84815c0.08617,-0.38517 0.23655,-0.97721 0.23655,-0.97721c0,0 -0.13768,0.05825 -0.11333,-0.27667c0.00556,-0.07646 0.18263,-0.31278 0.18263,-0.31278l-0.19182,-0.02278l-0.03831,-0.72094l3.01381,-0.3521z" fill="#20201f" stroke="none" stroke-width="0" stroke-linecap="butt"/><path d="M243.64671,192.38525c0,0 0.17389,-1.48693 0.26261,-2.0667c0.07001,-0.45752 0.21063,-1.06302 0.21063,-1.06302" fill="none" stroke="#c8c7c6" stroke-width="0.125" stroke-linecap="round"/><path d="M244.55232,185.82339c0.71491,-0.21834 1.71787,0.46887 1.79731,0.63449c0.30295,0.63162 0.28142,1.71428 0.17728,1.90586c-0.33281,0.39581 -0.63201,0.55867 -1.68982,0.85597c-0.59896,0.09712 -1.05481,-0.00529 -1.47176,-0.36972c-0.41693,-0.36443 -0.28091,-0.61752 -0.47819,-1.33465c-0.248,-0.90143 0.95027,-1.47362 1.6652,-1.69197z" fill="#c274a1" stroke="none" stroke-width="0" stroke-linecap="butt"/><path d="M242.92007,187.56844c-0.24799,-0.90142 0.95027,-1.47362 1.6652,-1.69197c0.71494,-0.21834 1.71789,0.46888 1.79734,0.6345c0.30294,0.63162 -1.15091,1.19512 -1.59428,1.35544c-0.36357,0.13147 -1.67093,0.41917 -1.86823,-0.29798z" fill="#cacacd" stroke="none" stroke-width="0" stroke-linecap="butt"/><path d="M247.48676,194.9851c-0.0516,-0.22557 -0.04,-0.82637 -0.04,-0.82637c0,0 0.19761,0.39987 0.36959,0.7479c0.17199,0.34802 0.19076,0.66973 0.10279,0.72433c-0.05511,0.0342 -0.26709,0.10579 -0.46539,-0.14985c-0.1183,-0.15252 0.08462,-0.27047 0.033,-0.49604z" fill="#c8c7c6" stroke="none" stroke-width="0" stroke-linecap="butt"/><path d="M248.92904,193.75285c0,0 0.38106,0.46462 0.48019,0.67371c0.09912,0.20909 0.3315,0.1761 0.33301,0.36912c0.00255,0.32351 -0.20824,0.39854 -0.2727,0.40579c-0.1029,0.01158 -0.28732,-0.25269 -0.36773,-0.63247c-0.08039,-0.37979 -0.17276,-0.81615 -0.17276,-0.81615z" data-paper-data="{&quot;index&quot;:null}" fill="#c8c7c6" stroke="none" stroke-width="0" stroke-linecap="butt"/><path d="M246.25666,195.24007c0,0 -0.21518,-2.14192 1.46193,-2.85934c1.17772,-0.50382 1.7459,0.49123 1.7459,0.49123" fill="none" stroke="#c8c7c6" stroke-width="0.125" stroke-linecap="round"/><g fill="#83c4ac" stroke="none" stroke-width="0" stroke-linecap="butt"><path d="M243.95843,189.60214l0.13436,-0.16858l1.01897,0.17598c0,0 -0.2152,0.66218 -0.33625,0.71453c-0.10259,0.04435 -0.81709,-0.72193 -0.81709,-0.72193z"/><path d="M243.21103,189.22812c0.06741,-0.08915 0.92855,0.1861 0.92855,0.1861l-0.14773,0.24936l-0.78892,0.20622c0,0 -0.07143,-0.53648 0.0081,-0.64166z" data-paper-data="{&quot;index&quot;:null}"/><path d="M244.43362,191.35529c-0.10883,0.02545 -0.67615,-0.85537 -0.67615,-0.85537l0.194,-0.17322l0.93975,0.38501c0,0 -0.32921,0.61355 -0.4576,0.6436z"/><path d="M243.13201,189.88155c0.0892,-0.06737 0.84249,0.43252 0.84249,0.43252l-0.21019,0.19956l-0.81524,-0.01699c0,0 0.07771,-0.53561 0.18295,-0.61509z" data-paper-data="{&quot;index&quot;:null}"/><path d="M243.83785,192.3035l-0.26094,-0.29821l0.16158,-0.86788c0,0 -0.05746,-0.404 0.11105,-0.37168c0.16853,0.03233 0.13418,0.41872 0.13418,0.41872l0.27881,0.93614z"/></g></g><path d="M242.95442,181.64378l1.63958,3.80213l0.68388,1.67413c0,0 -0.53193,0.18478 -0.8057,0.19629c-0.27377,0.01154 -0.68933,-0.13332 -0.68933,-0.13332l-0.49354,-1.25935l-1.41826,-3.50045z" data-paper-data="{&quot;index&quot;:null}" fill="#20201f" stroke="none" stroke-width="0" stroke-linecap="butt" stroke-linejoin="miter"/><g stroke="none" stroke-width="0" stroke-linecap="butt" stroke-linejoin="miter"><path d="M235.62315,168.67994c-0.06493,-0.119 0.09036,-1.15908 0.22884,-1.61262c0.07564,-0.2477 0.21355,-0.71011 0.64663,-0.75252c0.11039,-0.01081 0.60681,0.20415 0.60681,0.20415l0.30717,-0.28571c0,0 0.24876,-0.02369 0.38556,0.04094c0.13681,0.06462 0.3256,0.27386 0.3256,0.27386c0,0 0.17005,-0.02389 0.2859,-0.06525c0.37811,-0.13505 0.53522,0.20713 0.53522,0.20713c0,0 0.26307,-0.12938 0.47288,-0.09599c0.33261,0.05291 0.68665,0.29995 0.82482,0.48909c0.23471,0.32129 0.65933,1.34596 0.41668,1.626c-0.37796,0.43613 -0.85711,-0.08895 -0.85711,-0.08895c0,0 0.12745,0.58878 0.01093,0.93431c-0.17943,0.53204 -0.48691,0.72655 -0.48691,0.72655l-2.43866,0.28375c0,0 -0.85684,-1.13783 -1.26432,-1.8847z" fill="#20201f"/><path d="M237.66895,169.53043c1.34683,0.00412 2.55388,0.86295 2.83897,1.76159c0.28509,0.89865 -0.83542,1.34148 -1.90311,1.33821c-1.0677,-0.00327 -2.01073,-0.44884 -2.26974,-1.35097c-0.25901,-0.90214 -0.01295,-1.75295 1.33388,-1.74883z" fill="#20201f"/><path d="M238.381,173.54013c-0.26967,-1.22024 -0.62433,-2.46068 -0.62433,-2.46068l1.32638,0.24167c0,0 0.25395,1.62708 0.36274,2.11935c0.17846,0.80749 0.44648,1.82159 0.77714,2.97454c0.08286,0.28889 -0.01989,0.49972 -0.31103,0.59627c-0.19559,0.06485 -0.40424,0.0461 -0.5533,-0.29845c-0.45018,-1.04046 -0.78899,-2.31923 -0.97759,-3.17271z" fill="#fed5c7"/><path d="M240.63312,167.75712c0.1548,0.3851 0.16544,0.91998 -0.15182,1.14078c-0.49412,0.34389 -0.84376,-0.31001 -0.84376,-0.31001c0,0 0.90444,-1.05746 0.99557,-0.83075z" fill="#c0c2c6"/><path d="M239.23021,167.57329c0.1548,0.3851 0.16544,0.91998 -0.15182,1.14078c-0.49412,0.34389 -0.84376,-0.31001 -0.84376,-0.31001c0,0 0.90444,-1.05746 0.99557,-0.83075z" fill="#c0c2c6"/><path d="M237.96332,167.45128c0.1548,0.3851 0.16544,0.91998 -0.15182,1.14078c-0.49412,0.34389 -0.84376,-0.31001 -0.84376,-0.31001c0,0 0.90444,-1.05746 0.99557,-0.83075z" fill="#c0c2c6"/><path d="M237.52028,168.84872c0.285,0.30172 0.49069,0.79559 0.27624,1.11718c-0.33397,0.50088 -0.89867,0.02031 -0.89867,0.02031c0,0 0.45465,-1.31512 0.62244,-1.13749z" fill="#c0c2c6"/><path d="M237.02662,167.5372c0.1548,0.3851 0.16544,0.91998 -0.15182,1.14078c-0.49412,0.34389 -0.84376,-0.31001 -0.84376,-0.31001c0,0 0.90444,-1.05746 0.99557,-0.83075z" fill="#c0c2c6"/><g><path d="M239.77006,173.74123l0.30156,1.10006l-1.41465,0.27964l-0.33554,-1.09583z" fill="#83c4ac"/><path d="M239.34772,174.75025c0.60122,-0.13134 1.11705,-0.03077 1.40323,1.10674c0.16097,0.63982 -0.19592,1.26499 -0.79712,1.39636c-0.60121,0.13135 -1.20256,-0.28463 -1.38006,-0.92068c-0.29592,-1.06038 0.17276,-1.45105 0.77396,-1.58242z" fill="#20201f"/><path d="M238.08404,172.44631l1.10981,-0.26969l0.66193,0.03546l-0.0815,1.56313l-1.48262,0.28811l-0.68322,-1.3299z" fill="#bebec0"/></g></g><g data-paper-data="{&quot;index&quot;:null}" stroke-width="0" stroke-linecap="butt" stroke-linejoin="miter"><g data-paper-data="{&quot;index&quot;:null}"><path d="M236.04955,166.62321c-0.59666,0.88503 -1.79518,1.12058 -2.67697,0.52611c-0.88178,-0.59447 -1.11294,-1.79385 -0.51627,-2.67888c0.59666,-0.88503 1.7952,-1.12059 2.67698,-0.52611c0.88178,0.59447 1.11293,1.79386 0.51626,2.6789z" fill="#c2e266" stroke="none"/><path d="M236.00556,166.50811c-0.36862,0.54679 -1.10907,0.69231 -1.65384,0.32503c-0.54478,-0.36727 -0.68758,-1.10824 -0.31895,-1.65502c0.36862,-0.54679 1.10907,-0.69231 1.65384,-0.32503c0.54477,0.36727 0.68758,1.10824 0.31895,1.65502z" fill="#c2e266" stroke="#000000"/><path d="M236.51375,166.81841c-0.3287,0.48291 -1.02574,0.88417 -1.02574,0.88417l-0.24839,-0.50796c0,0 0.63257,-0.34324 0.86509,-0.73419c0.23251,-0.39096 0.24847,-1.13818 0.24847,-1.13818l0.68677,0.20031c0,0 -0.23852,0.87322 -0.5262,1.29586z" fill="#dbded5" stroke="#000000"/></g><g data-paper-data="{&quot;index&quot;:null}" stroke="none"><path d="M237.06924,174.05904c0.34624,0.23342 0.53577,0.5579 0.42331,0.72471c-0.11246,0.16681 -0.48431,0.1128 -0.83056,-0.12062c-0.34625,-0.23343 -0.53578,-0.55789 -0.42332,-0.7247c0.11247,-0.16681 0.48432,-0.11281 0.83058,0.12062z" fill="#000000"/><path d="M239.82686,178.05243c0.11714,-0.17377 2.33202,0.38233 2.33202,0.38233c0,0 -0.31121,1.05677 -0.42836,1.23053c-0.11714,0.17374 -1.31514,-0.20934 -1.46749,-0.31206c-0.15236,-0.10272 -0.55329,-1.12706 -0.43616,-1.30082z" fill="#807d5a"/><path d="M237.16991,174.85169l-0.3157,-0.09079l-2.16948,-7.33242l0.19892,-0.02454z" fill="#6e6e73"/><path d="M234.79156,168.17171l0.45416,-0.09653l0.47239,1.73405l-0.43719,0.07137z" fill="#c2e266"/></g></g><g data-paper-data="{&quot;index&quot;:null}" stroke-width="0" stroke-linecap="butt" stroke-linejoin="miter"><g data-paper-data="{&quot;index&quot;:null}"><path d="M223.41405,183.68412c-1.1312,-0.76261 -1.4277,-2.30123 -0.66229,-3.43659c0.76543,-1.13537 2.30294,-1.43752 3.43413,-0.67492c1.1312,0.76261 1.4277,2.30122 0.66227,3.43658c-0.76542,1.13536 -2.30293,1.43753 -3.43411,0.67491z" fill="#c2e266" stroke="none"/><path d="M224.56854,183.4292c-0.69886,-0.47115 -0.88203,-1.4217 -0.40916,-2.12312c0.47288,-0.70144 1.42274,-0.8881 2.12159,-0.41697c0.69885,0.47114 0.88204,1.4217 0.40917,2.12312c-0.47288,0.70144 -1.42275,0.88811 -2.12161,0.41696z" fill="#c2e266" stroke="#000000"/><path d="M227.30364,183.46729c-0.36421,0.54544 -1.28786,1.2492 -1.28786,1.2492l-0.56864,-0.72033c0,0 0.88094,-0.37846 1.234,-0.84306c0.35306,-0.46461 0.45688,-1.382 0.45688,-1.382l0.72357,0.051c0,0 -0.1418,1.02197 -0.55795,1.64518z" fill="#dbded5" stroke="#000000"/></g><g data-paper-data="{&quot;index&quot;:null}" stroke="none"><path d="M236.99823,182.17698c-0.2367,-0.40775 -2.11701,-2.03069 -1.36321,-3.0794c0.11699,-0.16277 2.05747,-0.71949 3.05646,-0.32892c1.3589,0.53129 1.86016,2.09372 1.86016,2.09372l-1.75755,2.57229c0,0 -1.55918,-0.84994 -1.79588,-1.25768z" fill="#c2e266"/><path d="M235.63838,179.71462c0.14427,-0.214 0.6213,-0.14473 1.06549,0.15473c0.44419,0.29945 0.68731,0.7157 0.54305,0.92968c-0.14426,0.21399 -0.62129,0.1447 -1.06549,-0.15475c-0.44419,-0.29946 -0.68732,-0.71568 -0.54305,-0.92967z" fill="#000000"/><path d="M240.69028,184.52936c-0.78516,-0.35152 -1.91008,-1.09985 -1.91008,-1.09985c0,0 0.03034,-0.66261 0.1449,-1.02479c0.11457,-0.36219 0.40911,-0.8913 0.40911,-0.8913l1.33903,-0.58216c0,0 2.59277,1.49903 2.91725,1.70225c0.6535,0.40927 0.33159,1.91428 0.33159,1.91428l-1.06024,0.70914c0,0 -1.38644,-0.37602 -2.17159,-0.72755z" fill="#20201f"/><path d="M243.83374,184.59164c0,0 -1.72694,-2.36636 -1.57665,-2.58928c0.15027,-0.22292 1.56134,-0.23893 1.75678,-0.10717c0.19544,0.13175 1.22742,1.37213 1.07714,1.59503c-0.15027,0.22292 -1.25726,1.10143 -1.25726,1.10143z" fill="#c274a1"/><path d="M227.21567,181.24705l-0.06653,-0.24837l9.76347,-0.9478l0.25987,0.33174z" fill="#6e6e73"/><path d="M230.35203,180.52794l0.12547,0.55425l-2.28939,0.27253l-0.1037,-0.58653z" fill="#c2e266"/></g></g><g data-paper-data="{&quot;index&quot;:null}" stroke="none" stroke-width="0" stroke-linecap="butt" stroke-linejoin="miter"><path d="M241.91795,181.02062c0,0 0.63083,3.9039 0.17868,4.59213c-0.49134,0.74786 -2.44377,1.41646 -2.44377,1.41646l1.79684,-1.88682l-0.33024,-3.05579l0.79853,-1.06598z" fill="#f79db4"/><path d="M238.76975,180.5673c0.68984,-0.02658 1.01035,0.56175 1.03692,1.25161c0.02658,0.68984 -0.25082,1.21997 -0.94066,1.24655c-0.68984,0.02658 -1.27062,-0.5111 -1.2972,-1.20094c-0.02658,-0.68984 0.5111,-1.27063 1.20095,-1.2972z" fill="#83c4ac"/><path d="M247.25181,181.74587c0.16454,0.48485 -0.2732,1.73141 -1.00883,1.93541c-0.00644,0.78726 -0.93553,0.95049 -1.74605,0.99885c-0.27543,0.8042 -1.04659,0.67415 -1.87181,0.85285c-0.82522,0.17871 -1.10332,-0.09214 -1.10332,-0.09214c0,0 -0.58873,-0.52755 -0.68453,-0.88617c-0.0958,-0.35861 -0.37085,-1.08185 -0.37085,-1.08185c0,0 -0.59489,-0.12161 0.18307,-0.31138c0.64152,-0.15648 1.63424,-0.15431 2.77826,-1.98006c1.283,-2.04755 0.42281,-2.58312 0.42281,-2.58312c0,0 1.70113,0.05419 2.70469,1.66516c0.76268,1.22431 1.41214,0.87334 0.69655,1.48243z" fill="#c0c2c6"/><path d="M238.76854,176.51447c0,0 0.7573,0.26264 1.33559,0.52967c0.5783,0.26701 1.36187,0.69729 1.36187,0.69729c0,0 0.76873,0.56324 1.47371,0.20302c0.27943,-0.05022 2.79923,1.10801 2.83656,1.50806c0.04967,0.5323 -0.82923,1.68621 -0.8632,2.04431c-0.07262,0.76536 -2.85645,2.03579 -3.33627,2.24656c-0.28343,0.12451 -0.62784,-0.19799 -0.9765,-0.20799c-0.5573,-0.01601 -0.85868,-1.12392 -0.97417,-1.89721c-0.1155,-0.7733 -0.20311,-0.9087 -0.66443,-1.60834c-0.4613,-0.69963 -1.76013,-1.29334 -1.76013,-1.29334l1.33021,-1.93853l0.23672,-0.28349z" fill="#20201f"/><path d="M240.04583,182.3413l-0.38281,0.02609c0,0 -0.00278,-0.40952 -0.04648,-0.65317c-0.04853,-0.27049 -0.08527,-0.41898 -0.08527,-0.41898l0.95249,-0.09515l0.10963,0.49491z" data-paper-data="{&quot;index&quot;:null}" fill="#c274a1"/><path d="M241.52338,181.39239l-0.91831,0.31373l-0.0891,-0.39809l1.03798,-0.35034z" data-paper-data="{&quot;index&quot;:null}" fill="#c0c2c6"/><path d="M242.8107,178.33919l-0.48839,0.13578l-0.43652,-0.5887c0,0 0.38713,0.06237 0.6487,-0.02189c0.23563,-0.07591 0.66112,0.1317 0.66112,0.1317z" fill="#c274a1"/><path d="M242.51357,179.97173l-0.16652,-1.53346l0.39327,-0.10841l0.14261,1.41061z" fill="#c0c2c6"/><path d="M237.20622,178.47525l1.52615,-2.14199c0,0 0.36275,-0.4244 1.53806,0.35862c0.51882,0.34565 1.07719,1.11023 1.07719,1.11023l-0.83371,0.01213c0,0 0.26396,0.67988 0.31796,1.01198c0.05303,0.32614 0.02665,0.8232 -0.01944,0.99651c-0.04748,0.17857 -0.79897,1.45018 -2.35704,0.18586c-1.27642,-1.03577 -1.24919,-1.53335 -1.24919,-1.53335z" fill="#c0c0c3"/><path d="M237.81995,177.964l0.98299,-1.72663l0.148,0.78414z" fill="#222225"/><g><g><path d="M243.554,180.10977c0.23646,0.59073 -0.22175,1.32975 -1.02345,1.65067c-0.8017,0.32091 -1.64329,0.10219 -1.87975,-0.48853c-0.23646,-0.59073 0.22175,-1.32975 1.02345,-1.65067c0.8017,-0.32091 1.64329,-0.10219 1.87976,0.48854z" fill="#c0c2c6"/><path d="M240.64808,179.40851c0.24953,-0.02522 0.47223,0.15663 0.49744,0.40614c0.02521,0.24952 -0.15663,0.47223 -0.40614,0.49744c-0.24952,0.02521 -0.47222,-0.15663 -0.49743,-0.40615c-0.0252,-0.24952 0.15663,-0.47222 0.40615,-0.49743z" fill="#000000"/><path d="M240.86818,179.569c0.1523,0.1106 0.01799,0.22527 -0.09261,0.37759c-0.1106,0.15231 -0.15557,0.28459 -0.30789,0.174c-0.15231,-0.11059 -0.18613,-0.32372 -0.07552,-0.47603c0.11059,-0.15231 0.32372,-0.18613 0.47603,-0.07552z" fill="#c478a9"/><path d="M242.94796,178.88105c0.12252,0.21882 0.04445,0.49553 -0.17437,0.61805c-0.21882,0.12252 -0.49552,0.04444 -0.61804,-0.17438c-0.12252,-0.21882 -0.04445,-0.49553 0.17437,-0.61805c0.21882,-0.12252 0.49553,-0.04445 0.61805,0.17437z" fill="#000000"/><path d="M242.88843,179.14686c-0.04077,0.18376 -0.19946,0.10623 -0.38322,0.06546c-0.18376,-0.04077 -0.32301,-0.02934 -0.28224,-0.2131c0.04077,-0.18376 0.22278,-0.29968 0.40654,-0.25891c0.18376,0.04077 0.29968,0.22278 0.25891,0.40654z" fill="#c478a9"/><path d="M242.73247,179.57948c0.07129,0.04806 0.05969,0.25549 -0.07602,0.45678c-0.1357,0.20129 -0.42499,0.2436 -0.49628,0.19554c-0.07129,-0.04806 -0.05439,-0.2961 0.08132,-0.49739c0.1357,-0.20129 0.4197,-0.20299 0.491,-0.15493z" fill="#000000"/><path d="M241.4045,180.06027c0.23898,0.04275 0.42878,0.20332 0.41363,0.28796c-0.01513,0.08464 -0.24693,0.26283 -0.48589,0.22008c-0.23898,-0.04274 -0.39594,-0.17883 -0.3808,-0.26346c0.01513,-0.08464 0.2141,-0.28731 0.45307,-0.24456z" data-paper-data="{&quot;index&quot;:null}" fill="#000000"/><path d="M242.54486,180.00521c-0.05089,0.07549 -0.15334,0.09543 -0.22883,0.04453c-0.07548,-0.05088 -0.09542,-0.15333 -0.04452,-0.22882c0.05088,-0.07548 0.15333,-0.09542 0.22882,-0.04453c0.07549,0.05089 0.09544,0.15332 0.04454,0.22881z" fill="#ffffff"/><path d="M241.669,180.41976c-0.05371,0.07968 -0.16186,0.10072 -0.24152,0.047c-0.07968,-0.05371 -0.10072,-0.16186 -0.047,-0.24152c0.05371,-0.07968 0.16186,-0.10072 0.24152,-0.047c0.07968,0.05371 0.10072,0.16186 0.047,0.24152z" fill="#ffffff"/></g><path d="M242.274,180.40231c0.02155,0.06212 -0.02861,0.15531 -0.1194,0.18679c-0.09079,0.03147 -0.18786,-0.01067 -0.20938,-0.0728c-0.02153,-0.06212 0.30725,-0.17611 0.32879,-0.11399z" fill="#000000"/><path d="M242.74514,180.19533c0.12486,-0.06679 0.2551,-0.06671 0.29089,0.00019c0.03578,0.0669 -0.03645,0.17528 -0.16131,0.24207c-0.12486,0.06679 -0.2551,0.06671 -0.29089,-0.00019c-0.03578,-0.0669 0.03645,-0.17528 0.16131,-0.24207z" fill="#ad597c"/><path d="M241.36063,180.74185c0.12486,-0.06679 0.2551,-0.06671 0.29089,0.00019c0.03578,0.0669 -0.03645,0.17528 -0.16131,0.24207c-0.12486,0.06679 -0.2551,0.06671 -0.29089,-0.00019c-0.03578,-0.0669 0.03645,-0.17528 0.16131,-0.24207z" fill="#ad597c"/></g><g fill="#83c4ac"><path d="M241.30621,177.37967c0,0 -0.42847,0.17115 -0.5974,0.24667c-0.19008,0.08495 -0.48712,0.23808 -0.48712,0.23808l-0.10917,-0.17034c0,0 0.18612,-0.35699 0.31285,-0.48605c0.13842,-0.14096 0.48572,-0.32721 0.48572,-0.32721l0.3951,0.49885z"/><path d="M240.61829,179.17244l-0.63635,-0.00059c0,0 -0.06928,-0.38795 -0.04453,-0.58397c0.02266,-0.17946 0.19675,-0.94349 0.19675,-0.94349l0.11116,0.20941c0,0 0.14478,0.49523 0.196,0.69703c0.04552,0.17935 0.17695,0.6216 0.17695,0.6216z" data-paper-data="{&quot;index&quot;:null}"/><path d="M241.73256,178.73382c0,0 -0.50708,-0.33745 -0.77354,-0.49665c-0.26647,-0.1592 -0.69748,-0.38221 -0.69748,-0.38221l0.17909,-0.21781c0,0 0.30258,0.12066 0.56284,0.26489c0.26028,0.14423 0.64602,0.40501 0.64602,0.40501z"/><path d="M241.35658,179.02848c0,0 -0.3864,-0.2598 -0.61773,-0.44699c-0.23132,-0.18719 -0.59687,-0.5492 -0.59687,-0.5492l0.09017,-0.22939c0,0 0.43849,0.37929 0.68601,0.5666c0.24751,0.18731 0.76521,0.55685 0.76521,0.55685z" data-paper-data="{&quot;index&quot;:null}"/></g></g><g data-paper-data="{&quot;index&quot;:null}" stroke="none" stroke-width="0" stroke-linecap="butt" stroke-linejoin="miter"><path d="M245.40567,179.46176c0.86846,0.56911 0.91668,2.03125 0.1077,3.26575c-0.80899,1.23448 -2.16882,1.7739 -3.0373,1.20478c-0.86846,-0.56911 -0.91668,-2.03125 -0.10772,-3.26574c0.80899,-1.23448 2.16884,-1.77389 3.03731,-1.20478z" fill="#20201f"/><path d="M238.50978,178.63423c1.13714,0.32475 2.39291,0.89693 3.20623,1.30909c1.16282,0.58928 2.2158,1.08 2.2158,1.08l-0.57334,1.07705c0,0 -1.79699,-0.99433 -2.2661,-1.23207c-0.76949,-0.38996 -1.76493,-0.84425 -2.9138,-1.33979c-0.28787,-0.12419 -0.39003,-0.34647 -0.27542,-0.64521c0.07702,-0.20071 0.23011,-0.35662 0.60665,-0.24909z" fill="#fed5c7"/><path d="M240.27551,180.64883l-1.03375,-0.48213l0.70245,-1.25937l1.05251,0.45349z" fill="#83c4ac"/><path d="M239.0744,178.0596c0.99982,0.46076 0.9943,1.07089 0.70532,1.61419c-0.28901,0.54331 -0.69955,0.8714 -1.75187,0.35332c-0.59191,-0.29141 -0.83747,-0.9681 -0.54847,-1.51141c0.28901,-0.5433 0.9953,-0.73247 1.59504,-0.45609z" fill="#20201f"/><path d="M242.35388,180.20172l-0.51272,1.02055l-0.45547,0.48163l-1.13882,-1.07386l0.73999,-1.31666l1.45597,0.33996z" fill="#bebec0"/><g><path d="M244.9812,180.83307c0,0 1.48583,0.00277 2.36366,0.1335c0.13986,0.02085 0.90768,0.80432 1.19797,1.20484c0.15855,0.21875 0.45659,0.62439 0.21944,1.01145c-0.06046,0.09868 -0.55159,0.37656 -0.55159,0.37656l0.04454,0.43533c0,0 -0.13675,0.22191 -0.27659,0.29509c-0.13985,0.07319 -0.43272,0.09866 -0.43272,0.09866c0,0 -0.08708,0.15655 -0.12553,0.27896c-0.12548,0.3996 -0.50905,0.31508 -0.50905,0.31508c0,0 -0.05785,0.3003 -0.21759,0.45389c-0.25325,0.24349 -0.68153,0.38271 -0.92583,0.37871c-0.415,-0.00678 -1.53481,-0.29802 -1.61517,-0.67611c-0.12515,-0.58886 0.61319,-0.6573 0.61319,-0.6573c0,0 -0.57012,-0.26433 -0.78434,-0.57865c-0.32986,-0.484 -0.29829,-0.86222 -0.29829,-0.86222l1.29793,-2.2078z" fill="#20201f"/><path d="M245.14517,185.72167c-0.415,-0.00678 -0.91207,-0.20458 -0.99244,-0.58266c-0.12515,-0.58886 0.61318,-0.65729 0.61318,-0.65729c0,0 0.62355,1.24396 0.37926,1.23996z" fill="#c0c2c6"/></g></g><g><g data-paper-data="{&quot;index&quot;:null}"><g data-paper-data="{&quot;index&quot;:null}" fill="#86cbb6" stroke="none" stroke-width="0" stroke-linecap="butt" stroke-linejoin="miter"><path d="M232.89612,169.06485c-0.24128,0.41788 -0.3266,0.66903 -0.3266,0.66903l-0.4633,0.51274c0,0 -0.14941,-0.83134 -0.06194,-1.25565c0.08747,-0.42431 0.49918,-1.23197 0.49918,-1.23197l0.93339,0.42767c0,0 -0.33943,0.46029 -0.58072,0.87817z"/><path d="M234.44781,169.45017c0,0 -0.57652,0.17357 -0.84766,0.25412c-0.37348,0.11096 -1.52217,0.50318 -1.52217,0.50318l0.22748,-0.55091c0,0 0.73019,-0.42916 1.0525,-0.60795c0.25857,-0.14344 0.73271,-0.38228 0.73271,-0.38228z"/></g><g stroke="none" stroke-width="0" stroke-linecap="butt" stroke-linejoin="miter"><path d="M229.62534,168.15855c0.6975,-0.47281 1.1126,-0.44663 1.93603,-0.05874c0.82341,0.38789 1.3459,1.99983 1.3459,1.99983c0,0 -0.9418,-0.0305 -1.5027,0.13912c-0.56089,0.16963 -1.39748,0.73796 -1.39748,0.73796c0,0 -0.49778,-0.64069 -0.73302,-1.25505c-0.1833,-0.46969 -0.2936,-1.0061 0.3513,-1.56313z" data-paper-data="{&quot;index&quot;:null}" fill="#20201f"/><path d="M230.65426,167.89163c0.69163,-0.02734 1.45413,0.7004 1.45413,0.7004l-0.91022,0.51123c0,0 -1.07795,-1.19054 -0.54391,-1.21163z" data-paper-data="{&quot;index&quot;:null}" fill="#b2b1b2"/></g><path d="M227.70746,174.43399c0.87095,-3.22257 3.83001,-5.22606 6.60924,-4.47494c2.77925,0.75112 4.32622,3.97243 3.45526,7.195c-0.87095,3.22257 -3.82999,5.22605 -6.60924,4.47493c-2.77925,-0.75112 -4.32624,-3.97245 -3.4553,-7.195z" fill="#f79eb4" stroke="none" stroke-width="0" stroke-linecap="butt" stroke-linejoin="miter"/><path d="M235.94981,170.60735c-0.01392,-0.01025 1.01764,0.23762 2.11804,1.31716c1.77831,1.7348 1.44794,3.17838 1.44794,3.17838l-0.80586,-0.51055c0,0 -1.2596,-1.94823 -1.77847,-2.50984c-0.51889,-0.56159 -1.59492,-1.05703 -1.5943,-1.05667" fill="#f79eb4" stroke="#f89db5" stroke-width="0" stroke-linecap="butt" stroke-linejoin="round"/><g fill="#ffd5c5" stroke="none" stroke-width="1" stroke-linecap="round" stroke-linejoin="round"><path d="M237.40878,172.5413c0.54684,0.02588 0.87205,0.58744 1.06602,1.04961c0.03171,0.07563 0.27798,0.66753 0.32991,1.54502c0.06514,1.10104 -0.48629,2.38221 -0.63495,2.75282c-0.17736,0.44197 -0.90674,1.11676 -1.08001,1.20801c-1.24714,0.65673 -1.54155,-0.16705 -1.59087,-0.28533c-0.02351,-0.05641 -0.05043,-0.34395 0.13717,-0.62294c0.18286,-0.27193 0.85716,-0.9686 0.92133,-1.25376c0.06896,-0.30639 -0.04553,-2.14513 0.19234,-3.02069c0.05135,-0.18146 0.17693,-0.40463 0.33104,-0.52009c0.2006,-0.15022 0.56327,-0.35831 0.38585,-0.6814c-0.02875,-0.0523 -0.11744,-0.17403 -0.05784,-0.17123z"/><path d=""/></g><g fill="#000000" stroke="#000000" stroke-width="0.125" stroke-linecap="butt" stroke-linejoin="round"><path d="M237.01626,172.40402c-0.00384,-0.06571 0.10286,-0.34373 0.11805,-0.79576c-0.00086,-0.28732 -0.00433,-0.57482 -0.03303,-0.8606c-0.01722,-0.17109 -0.08064,-0.33995 -0.09061,-0.51047c-0.00036,-0.0058 0.1165,0.3878 0.13786,0.50336c0.06701,0.36224 0.09402,0.68031 0.10016,1.04804c0.00136,0.08075 -0.06104,0.72058 -0.08384,0.71077"/><path d="M236.707,172.29148c0.03124,-0.01806 0.12967,-0.33469 0.05818,-0.78639c-0.07148,-0.45171 -0.27012,-1.10455 -0.30084,-1.13188c-0.0116,-0.0103 0.32905,0.74601 0.40618,1.07284c0.0771,0.3268 0.05026,0.96025 0.02899,0.95112"/></g><g fill="#000000" stroke="none" stroke-width="1" stroke-linecap="round" stroke-linejoin="round"><path d="M236.98776,174.14932c-0.06538,-0.17225 0.12916,-0.6677 0.21754,-0.73832c0.1529,-0.12218 0.29238,0.30752 0.2566,0.41175c-0.09668,0.22154 -0.3881,0.5532 -0.47413,0.32656z"/><path d=""/></g><path d="M233.08742,178.23631c-0.04583,-0.03358 1.80401,0.59092 2.65965,0.79963c1.6113,0.39303 2.70392,0.29163 2.70392,0.29163c0,0 -0.31963,0.2842 -0.41102,0.34828c-0.28228,0.19801 -0.55447,0.36649 -0.86905,0.51475c-0.7399,0.34869 -1.55418,0.49918 -2.36933,0.50853c-0.54325,0.00623 -2.79506,-0.4366 -2.80237,-0.46223" fill="#f79eb4" stroke="#f89db5" stroke-width="0" stroke-linecap="butt" stroke-linejoin="round"/><path d="M231.9441,180.32005c0.01032,0.01794 2.7911,0.46398 3.58056,0.52562c0.78947,0.06165 2.02712,-0.08778 2.02712,-0.08778c0,0 -0.16856,0.38048 -0.92435,0.75834c-0.66737,0.33363 -1.01277,0.52948 -2.0979,0.53092c-1.40809,0.00186 -3.23659,-0.38595 -3.53672,-0.65323" fill="#f79eb4" stroke="#f89db5" stroke-width="0" stroke-linecap="butt" stroke-linejoin="round"/><g stroke="none" stroke-width="1" stroke-linecap="round" stroke-linejoin="round"><path d="M231.08962,171.48066c-0.07862,0.07656 -2.04916,2.0367 -2.23441,3.77681c-0.14601,1.37151 0.16676,2.20061 0.7045,3.63148c0.41468,1.10352 1.77509,2.08465 1.77409,2.12265c-0.00007,0.00273 -3.86603,-1.42183 -3.48467,-5.15161c0.33912,-3.0093 2.69536,-4.86823 2.83544,-4.93435" fill="#20201f"/><path d="" fill="#ee1a40"/></g><path d="M232.23468,171.46609c0.01185,0.02672 -0.31951,-1.04449 0.566,-2.65146c0.15956,-0.2859 0.93866,-1.14346 1.72833,-1.20449c0.73947,-0.13428 1.44348,0.39383 1.43766,0.409c-0.00842,0.02177 -1.34501,0.51569 -1.9979,1.41592c-0.35649,0.49155 -0.59212,2.10122 -0.57649,2.1364" fill="#f79eb4" stroke="#f89db5" stroke-width="0" stroke-linecap="butt" stroke-linejoin="round"/><path d="M232.05019,172.29408c-0.07783,-0.03044 -1.17006,-1.20044 -1.34116,-1.53778c-0.17112,-0.33735 -0.19395,-0.51761 -0.06661,-1.1094c0.62548,-1.96194 2.43625,-2.6428 2.43625,-2.6428c0,0 -1.25152,1.08549 -1.31074,1.84459c-0.08216,1.05316 0.41786,2.48769 0.47131,2.60981" fill="#f79eb4" stroke="#f89db5" stroke-width="0" stroke-linecap="butt" stroke-linejoin="round"/><path d="M233.46256,171.65586c-0.03932,0.03149 -0.01996,-0.92146 0.6856,-1.62146c0.2027,-0.20109 1.38577,-0.70046 1.52617,-0.64483c0.59537,0.13481 2.27091,0.78484 2.27023,0.78298c-0.01479,-0.0401 -1.39573,0.06204 -2.39282,0.47243c-0.33451,0.13995 -1.07695,1.15829 -1.18834,1.24737" fill="#f79eb4" stroke="#f89db5" stroke-width="0" stroke-linecap="butt" stroke-linejoin="round"/><g fill="#000000" stroke="#000000" stroke-width="0.125" stroke-linecap="butt" stroke-linejoin="round"><path d="M235.11475,178.76347c0.02839,0.03298 0.00087,0.18428 -0.13014,0.34626c-0.84112,1.03997 -1.25029,1.0909 -1.25029,1.0909c0,0 0.60734,-0.26777 1.05691,-1.04524c0.08754,-0.1514 0.16704,-0.3635 0.17727,-0.41138c0.00975,-0.04566 -0.01372,-0.09389 0.01663,-0.13682"/><path d="M235.36883,178.76559c0,0 0.03202,0.04646 0.03926,0.1844c0.01346,0.25579 -0.15185,0.85336 -0.2681,1.11948c-0.27724,0.63456 -0.59775,0.94531 -0.59775,0.94531c0,0 0.41722,-0.68961 0.51973,-0.91693c0.30531,-0.68709 0.15684,-1.23416 0.12747,-1.31034c-0.01293,-0.03357 -0.054,-0.10769 -0.0489,-0.14123"/></g><g fill="none" stroke="none" stroke-width="1" stroke-linecap="butt" stroke-linejoin="miter" font-family="sans-serif" font-weight="normal" font-size="12" text-anchor="start"/><g fill="none" stroke="none" stroke-width="1" stroke-linecap="butt" stroke-linejoin="miter" font-family="sans-serif" font-weight="normal" font-size="12" text-anchor="start"/><g fill="#86cbb6" stroke="none" stroke-width="0" stroke-linecap="butt" stroke-linejoin="miter"><path d="M229.60686,178.90595c0,0 -0.06311,0.31072 -0.0656,0.88753c-0.00248,0.57682 0.07088,1.25651 0.07088,1.25651l-1.22136,-0.12042c0,0 0.06122,-1.08192 0.22638,-1.57275c0.16516,-0.49082 0.82003,-1.25933 0.82003,-1.25933l0.16967,0.80844z"/><path d="M230.53481,180.92429c0,0 -0.34577,-0.53215 -0.52643,-0.83596c-0.22519,-0.37871 -0.72079,-1.26155 -0.72079,-1.26155l0.09685,-0.70586c0,0 0.94998,1.0967 1.26883,1.43617c0.23149,0.24645 0.72231,0.77284 0.72231,0.77284z"/></g><path d="M226.27085,176.63334c-0.01484,-1.16516 0.63412,-1.5388 1.28104,-1.77719c0.84207,-0.31648 1.94918,-0.38812 1.94918,-0.38812c0,0 0.01232,1.17241 0.19522,2.16492c0.31289,1.69785 0.58825,2.07007 0.58825,2.07007c0,0 -1.17417,0.4557 -2.31791,-0.03514c-1.14373,-0.49085 -1.54703,-0.89189 -1.69578,-2.03453z" fill="#20201f" stroke="none" stroke-width="0" stroke-linecap="butt" stroke-linejoin="miter"/><path d="M227.45053,176.44374c-0.00651,-1.0546 1.30029,-1.15806 1.30029,-1.15806c0,0 -0.07379,0.64499 -0.04999,1.21137c0.04071,0.96885 0.15302,1.20562 0.15302,1.20562c0,0 -1.39645,-0.14708 -1.4033,-1.25893z" fill="#b2b1b2" stroke="none" stroke-width="0" stroke-linecap="butt" stroke-linejoin="miter"/></g><g fill="none" stroke="#000000" stroke-width="0.5" stroke-linecap="round" stroke-linejoin="miter"><path d="M236.34626,176.17389l-2.57998,1.54294"/><path d="M235.78534,178.19889l-1.54294,-2.57998"/></g><g fill="none" stroke="#000000" stroke-width="0.5" stroke-linecap="round" stroke-linejoin="miter"><path d="M234.65496,174.15969l2.57998,-1.54295"/><path d="M236.67403,174.64174l-1.54294,-2.57998"/></g></g></g></g></svg>