<svg version="1.1" xmlns="http://www.w3.org/2000/svg" xmlns:xlink="http://www.w3.org/1999/xlink" width="31.71568" height="35.37011" viewBox="0,0,31.71568,35.37011"><g transform="translate(-221.81111,-165.50483)"><g data-paper-data="{&quot;isPaintingLayer&quot;:true}" fill-rule="nonzero" stroke-miterlimit="10" stroke-dasharray="" stroke-dashoffset="0" style="mix-blend-mode: normal"><g data-paper-data="{&quot;index&quot;:null}" stroke-width="0" stroke-linecap="butt" stroke-linejoin="miter"><g data-paper-data="{&quot;index&quot;:null}"><path d="M230.38453,167.4304c0,-1.06346 0.8653,-1.92557 1.93267,-1.92557c1.06738,0 1.93265,0.86211 1.93265,1.92557c0,1.06346 -0.86528,1.92557 -1.93265,1.92557c-1.06738,0 -1.93267,-0.86211 -1.93267,-1.92557z" fill="#e0cb17" stroke="none"/><path d="M231.05236,168.06554c0,-0.65701 0.53456,-1.18962 1.194,-1.18962c0.65944,0 1.194,0.5326 1.194,1.18962c0,0.65701 -0.53456,1.18962 -1.194,1.18962c-0.65944,0 -1.194,-0.53261 -1.194,-1.18962z" fill="#e0cb17" stroke="#000000"/><path d="M230.69587,171.75559c-0.3444,-1.03347 0.44156,-2.13075 0.44156,-2.13075l2.10321,-0.01487c0,0 0.15323,0.20302 0.48585,1.50522c0.34536,1.35211 -0.98611,4.48625 -0.98611,4.48625c0,0 -1.7001,-2.81238 -2.04451,-3.84585z" fill="#e8edf4" stroke="#000000"/><path d="M232.21958,169.85c-0.51125,0.00227 -1.36863,-0.28808 -1.36863,-0.28808l0.21781,-0.68142c0,0 0.62849,0.40447 1.08264,0.43022c0.45414,0.02575 1.09235,-0.30689 1.09235,-0.30689l0.28233,0.4899c0,0 -0.72235,0.35366 -1.30651,0.35626z" fill="#dbded5" stroke="#000000"/></g><g data-paper-data="{&quot;index&quot;:null}" stroke="none"><path d="M238.27703,173.60197c0.20118,0 0.36426,0.33852 0.36426,0.75611c0,0.41759 -0.16308,0.75611 -0.36426,0.75611c-0.20118,0 -0.36428,-0.33853 -0.36428,-0.75611c0,-0.41759 0.16309,-0.75611 0.36428,-0.75611z" fill="#000000"/><path d="M239.68243,178.87693c0.20956,0 0.83479,0.90506 0.83479,1.0888c0,0.18374 -0.35203,1.39124 -0.56158,1.39124c-0.20956,0 -1.25977,-0.33269 -1.25977,-0.33269c0,0 0.77701,-2.14736 0.98657,-2.14736z" fill="#807d5a"/><path d="M233.6163,168.82566l0.13154,-0.15122l4.86707,5.89768l-0.1012,0.31253z" fill="#6e6e73"/><path d="M235.44778,170.53951l-0.30356,0.32261l-1.17375,-1.36101l0.33391,-0.32261z" fill="#ddcb1e"/></g></g><g stroke-width="0" stroke-linecap="butt" stroke-linejoin="miter"><g data-paper-data="{&quot;index&quot;:null}"><path d="M251.0475,170.88621c-1.36927,0 -2.47929,-1.10593 -2.47929,-2.47018c0,-1.36424 1.11001,-2.47019 2.47929,-2.47019c1.36927,0 2.47929,1.10594 2.47929,2.47019c0,1.36424 -1.11002,2.47018 -2.47929,2.47018z" fill="#e0cb17" stroke="none"/><path d="M251.13836,170.75689c-0.84593,0 -1.5317,-0.68326 -1.5317,-1.52609c0,-0.84284 0.68576,-1.52608 1.5317,-1.52608c0.84593,0 1.53171,0.68324 1.53171,1.52608c0,0.84284 -0.68577,1.52609 -1.53171,1.52609z" fill="#e0cb17" stroke="#000000"/><path d="M253.12739,173.96452c-0.44182,1.32576 -2.62278,4.54805 -2.62278,4.54805c0,0 -1.70805,-3.63505 -1.26501,-5.36956c0.42669,-1.67051 0.62326,-1.93095 0.62326,-1.93095l2.69807,0.01907c0,0 1.00827,1.40763 0.56646,2.7334z" fill="#e8edf4" stroke="#000000"/><path d="M251.17272,171.51995c-0.74937,-0.00331 -1.67602,-0.45702 -1.67602,-0.45702l0.36218,-0.62847c0,0 0.81871,0.42674 1.40131,0.39371c0.58259,-0.03303 1.38884,-0.55192 1.38884,-0.55192l0.27941,0.87416c0,0 -1.09986,0.37246 -1.75571,0.36955z" fill="#dbded5" stroke="#000000"/></g><g data-paper-data="{&quot;index&quot;:null}" stroke="none"><path d="M244.68361,178.83711c0.20578,0.42419 0.03894,2.19213 0.03894,2.19213l-3.11533,0.0194c0,0 -1.01532,-1.28904 -0.69622,-2.71278c0.23458,-1.04665 1.78092,-2.34443 1.98128,-2.35045c1.29092,-0.0388 1.58553,2.42751 1.79131,2.85171z" fill="#e4dcaa"/><path d="M243.86932,177.30308c0,0.5357 -0.20921,0.96997 -0.46729,0.96997c-0.25808,0 -0.46731,-0.43427 -0.46731,-0.96997c0,-0.5357 0.20922,-0.96997 0.46731,-0.96997c0.25808,0 0.46729,0.43426 0.46729,0.96997z" fill="#000000"/><path d="M244.57027,183.21342c-0.14743,0.84753 -0.61066,2.20732 -0.61066,2.20732l-1.18066,0.48271c0,0 -1.42785,-0.57438 -1.4019,-1.34502c0.01289,-0.38265 0.21929,-3.37045 0.21929,-3.37045l1.23122,-0.78486c0,0 0.60337,0.05153 0.96773,0.159c0.36436,0.10747 0.93073,0.45271 0.93073,0.45271c0,0 -0.00834,1.35107 -0.15577,2.1986z" fill="#dfcc17"/><path d="M242.86472,185.85472c0,0 -1.34724,0.42678 -1.61608,0.42678c-0.26884,0 -0.72043,-1.54904 -0.72043,-1.78475c0,-0.23571 0.80206,-1.39676 1.0709,-1.39676c0.26884,0 1.2656,2.75471 1.2656,2.75471z" fill="#807d5a"/><path d="M243.09836,177.97857l-0.12981,-0.40092l6.24365,-7.56575l0.16875,0.194z" fill="#6e6e73"/><path d="M248.49827,170.65855l0.42836,0.41385l-1.50574,1.74595l-0.38942,-0.41386z" fill="#ddcb1e"/></g></g><path d="M238.99592,177.93602c0.29022,-0.26292 0.49645,-0.19074 0.65426,-0.04476c0.23486,0.21729 0.24149,0.46185 0.03817,0.7005c-0.81147,0.95237 -1.50354,1.7999 -2.02138,2.48984c-0.31569,0.42062 -1.48802,2.10688 -1.48802,2.10688c0,0 -0.08737,-0.06859 -0.39953,-0.15725c-0.31216,-0.08868 -0.59086,-0.55541 -0.59086,-0.55541c0,0 0.72758,-0.90566 1.51012,-1.94826c0.54734,-0.72923 1.4208,-1.79759 2.29727,-2.59157z" data-paper-data="{&quot;index&quot;:null}" fill="#4c2b5c" stroke="none" stroke-width="0" stroke-linecap="butt" stroke-linejoin="miter"/><path d="M238.99591,177.93602c0.29022,-0.26292 0.49646,-0.19074 0.65426,-0.04475c0.23486,0.21729 0.24148,0.46185 0.03816,0.7005c-0.81147,0.95237 -1.50353,1.7999 -2.02137,2.48984c-0.08791,0.11712 -0.41917,0.58203 -0.41917,0.58203l-0.03331,-1.79813c0,0 1.14476,-1.35273 1.78145,-1.92949z" data-paper-data="{&quot;index&quot;:null}" fill="#edbb82" stroke="none" stroke-width="0" stroke-linecap="butt" stroke-linejoin="miter"/><g data-paper-data="{&quot;index&quot;:null}" stroke="none" stroke-width="0" stroke-linecap="butt" stroke-linejoin="miter"><g><path d="M241.82195,193.09085c0,0 1.49826,0.52687 1.23644,1.84552c-0.02433,0.12253 -0.29617,0.06799 -0.29617,0.06799l0.19948,0.32053l-0.3452,0.70564l-0.20602,-0.13344c0,0 -0.70945,0.64074 -0.91345,1.01372c-0.20342,0.37191 -0.30881,1.22099 -0.30881,1.22099l0.06236,0.19746l-0.40615,0.67952l-0.15516,-0.08924l-0.14803,0.1764c0,0 0.2232,0.19427 -0.17663,0.45204c-0.12846,0.08282 -0.49839,0.41896 -0.49839,0.41896l-0.1235,-0.13002l-0.16566,0.04973c0,0 0.08848,0.25844 -0.04265,0.29701c-0.15721,0.04623 -0.52453,0.24398 -0.79093,0.28599c-0.10319,0.01628 0.01068,-0.1114 -0.09029,-0.10341c-0.06577,0.00521 -0.08809,0.03651 -0.15709,0.04275c-0.11182,0.01011 0.02812,0.08823 -0.0499,0.12197c-0.06381,0.02759 -0.26134,0.02691 -0.42917,0.01767c-0.16783,-0.00924 -0.33188,-0.07051 -0.33188,-0.07051l-0.0414,-0.16997l-0.25389,0.05493c0,0 -0.30548,-0.18445 -0.40628,-0.37533c-0.1008,-0.19088 -0.06489,-0.51687 -0.06489,-0.51687c0,0 0.58923,0.25403 0.96854,0.26749c3.22926,-0.62153 2.80625,-2.30971 3.34784,-4.14311c0.24996,-0.84616 0.68061,-1.15394 0.73595,-1.71756c0.04541,-0.46263 -0.14907,-0.78684 -0.14907,-0.78684z" data-paper-data="{&quot;index&quot;:null}" fill="#a87643"/><path d="M238.8385,194.89062c-0.1102,-1.01513 -0.48625,-4.47763 -0.25085,-4.68137c0.31354,-0.25088 2.07204,-0.6702 2.07204,-0.6702c0,0 0.14723,0.67811 0.19384,1.08357c0.04662,0.40546 0.25013,1.645 0.25013,1.645c0,0 1.03612,0.93388 0.95949,1.61841c-0.10277,0.91788 -1.87081,3.35259 -1.87081,3.35259c0,0 -1.16138,-0.57522 -1.35383,-2.348z" data-paper-data="{&quot;index&quot;:null}" fill="#fc6293"/><path d="M239.13354,189.48216c0.22897,0.17023 -0.49313,0.68635 -0.49313,0.68635c0,0 -0.14196,0.22115 -0.12074,0.53163c0.03492,0.51081 0.16692,1.26661 0.19224,2.05583c0.02883,0.89859 0.11367,1.9313 0.22973,2.4452c0.14319,0.634 0.92667,1.8557 1.28912,1.88835c0.03548,0.0032 0.09474,-0.29493 0.11434,-0.49293c0.09474,-0.52121 -0.00171,-0.377 0.18529,-1.06547c0.16188,-0.55138 0.76351,-0.02452 0.76351,-0.02452c0,0 -0.25431,3.21323 -2.06416,4.09988c-1.36431,0.66837 -2.29912,-0.0783 -2.30714,-0.08275c-0.01436,-0.00797 -0.33851,-1.01469 -0.29985,-1.71774c0.01075,-0.19544 0.76529,-1.08252 0.84605,-1.94753c0.07515,-0.80489 0.26157,-2.15979 0.2422,-3.05404c-0.0347,-1.60181 -0.37006,-2.86127 -0.16352,-2.9786c0.68943,-0.39166 1.44369,-0.44949 1.58607,-0.34364z" data-paper-data="{&quot;index&quot;:null}" fill="#f3e2e2"/><path d="M237.44566,196.06264c0,0 0.15283,-2.14741 0.18693,-2.7748c0.0472,-0.86846 -0.08134,-1.69348 -0.22741,-3.16256c-0.02541,-0.25559 0.35664,-0.45129 0.35664,-0.45129l0.11948,0.06632c0,0 -0.33022,0.21313 -0.33327,0.41379c-0.00606,0.39887 0.1593,1.85825 0.23245,3.04833c0.05545,0.90208 -0.1249,2.24738 -0.1249,2.24738z" data-paper-data="{&quot;index&quot;:null}" fill="#bfa4a4"/><path d="M239.59468,193.60249l-0.17807,-1.2033l0.63294,-0.07818l0.12644,1.17463z" data-paper-data="{&quot;index&quot;:null}" fill="#fffff6"/><path d="M239.50201,191.78371l-0.05812,-1.01535l0.56553,-0.08558l0.10927,0.9573z" data-paper-data="{&quot;index&quot;:null}" fill="#fffff6"/><path d="M237.58894,191.5421l-0.14875,-0.90421c0,0 0.63494,0.19886 1.05521,0.22555c0.42027,0.02669 0.93685,-0.09905 0.93685,-0.09905l0.07266,1.01284c0,0 -0.72967,0.07774 -1.206,-0.00738c-0.47634,-0.08512 -0.70995,-0.22774 -0.70995,-0.22774z" data-paper-data="{&quot;index&quot;:null}" fill="#754c86"/><path d="M238.6332,193.70664c-0.40576,0.00293 -1.00735,-0.09881 -1.00735,-0.09881c0,0 0.01374,-0.39591 0.01525,-0.64941c0.00151,-0.2535 -0.00704,-0.73044 -0.00704,-0.73044c0,0 0.64321,0.16565 1.02799,0.20028c0.38478,0.03463 0.80337,-0.02744 0.80337,-0.02744l0.15969,1.21369c0,0 -0.58616,0.08919 -0.99192,0.09213z" data-paper-data="{&quot;index&quot;:null}" fill="#754c86"/><path d="M240.47431,189.60597l-1.63215,-0.16274c0,0 0.08888,-0.05292 0.44075,-0.04653c0.35187,0.00639 0.68105,-0.02114 0.81194,-0.01234c0.21625,0.01455 0.54747,0.16438 0.54747,0.16438z" data-paper-data="{&quot;index&quot;:null}" fill="#ae8484"/><path d="M237.92485,189.90314c-0.01789,-0.20029 0.36328,-0.36015 1.2159,-0.43635c0.85261,-0.0762 1.31786,0.1461 1.31786,0.1461c0,0 -0.66595,0.19528 -1.01347,0.27909c-0.70816,0.18151 -0.60328,0.23535 -0.98628,0.25126c-0.383,0.01591 -0.51803,-0.0817 -0.53134,-0.23073z" data-paper-data="{&quot;index&quot;:null}" fill="#532c31"/></g><path d="M239.02563,189.41724c0,0 0.07792,-0.7323 0.35584,-0.95741c0.27792,-0.22512 0.64824,-0.3383 0.84227,-0.01305c0.19403,0.32525 -0.26614,0.96402 -0.26614,0.96402z" fill="#fc6293"/></g><g data-paper-data="{&quot;index&quot;:null}" stroke="none" stroke-width="0" stroke-linecap="butt" stroke-linejoin="miter"><path d="M239.69976,184.36669l0.0052,3.46327l-0.11333,2.09854l-1.17778,0.27827l-0.01442,-1.92895l0.04232,-3.74693z" data-paper-data="{&quot;index&quot;:null}" fill="#8e5173"/><path d="M239.69973,187.33372l0.0052,0.49624l-0.11333,2.09854l-1.17778,0.27827l-0.01442,-1.92895l0.024,-0.76159z" data-paper-data="{&quot;index&quot;:null}" fill="#a71e48"/><path d="M238.41327,187.78634v-0.27508l1.27832,-0.178l0.01618,0.2589z" fill="#a19589"/><path d="M238.41327,188.27178v-0.27508l1.27832,-0.178l0.01618,0.2589z" fill="#a19589"/></g><path d="M240.97178,183.12592l1.26675,0.67558l2.67297,0.9852c0,0 -2.21444,0.15367 -3.06552,-0.1227c-0.7832,-0.25434 -2.1639,-1.87063 -2.1639,-1.87063z" data-paper-data="{&quot;index&quot;:null}" fill="#f79db4" stroke="none" stroke-width="0" stroke-linecap="butt" stroke-linejoin="miter"/><path d="M232.7519,185.17553c0.47325,-0.70704 1.42931,-1.76285 1.42931,-1.76285l2.40309,0.50276c0,0 0.28868,0.22148 0.41933,0.76754c0.08484,0.35464 -0.09524,0.9295 -0.09524,0.9295c0,0 0.52461,-0.47965 0.86164,-0.01119c0.2164,0.30078 -0.29901,1.28295 -0.56178,1.58175c-0.15467,0.1759 -0.52956,0.38996 -0.86561,0.41261c-0.21196,0.0143 -0.46228,-0.13829 -0.46228,-0.13829c0,0 -0.18737,0.32658 -0.55175,0.15796c-0.11164,-0.05166 -0.27884,-0.09081 -0.27884,-0.09081c0,0 -0.2069,0.19132 -0.34899,0.24334c-0.14209,0.05201 -0.38769,0.00595 -0.38769,0.00595l-0.28011,-0.31229c0,0 -0.51381,0.16926 -0.62275,0.14854c-0.42748,-0.08134 -0.52309,-0.55431 -0.57606,-0.80782c-0.09696,-0.46418 -0.1577,-1.51403 -0.0823,-1.62669z" data-paper-data="{&quot;index&quot;:null}" fill="#f44a7d" stroke="none" stroke-width="0" stroke-linecap="butt" stroke-linejoin="miter"/><g data-paper-data="{&quot;index&quot;:null}" stroke="none" stroke-width="0" stroke-linecap="butt" stroke-linejoin="miter"><path d="M241.93707,189.02822c0,0 0.1378,-0.72342 0.43328,-0.92495c0.29547,-0.20153 0.67383,-0.2839 0.84049,0.05618c0.16666,0.34008 -0.34442,0.9389 -0.34442,0.9389z" fill="#f3e2e2"/><g><path d="M244.56698,192.55879c0,0 1.63574,0.33198 1.55372,1.74246c-0.00762,0.13105 -0.29847,0.11356 -0.29847,0.11356l0.25396,0.30483l-0.25738,0.78441l-0.23373,-0.10914c0,0 -0.64594,0.76948 -0.80441,1.18721c-0.15801,0.41654 -0.14504,1.31562 -0.14504,1.31562l0.09344,0.19653l-0.32461,0.76604l-0.1744,-0.07048l-0.12861,0.20502c0,0 0.26041,0.16997 -0.11855,0.49607c-0.12176,0.10477 -0.45828,0.50813 -0.45828,0.50813l-0.14734,-0.1175l-0.16526,0.0757c0,0 0.12944,0.25624 -0.00149,0.31534c-0.15696,0.07084 -0.51076,0.32976 -0.782,0.41198c-0.10507,0.03184 -0.00498,-0.11751 -0.10893,-0.09461c-0.06771,0.01491 -0.08642,0.05072 -0.15734,0.06719c-0.11493,0.02667 0.04203,0.08778 -0.03432,0.13417c-0.06244,0.03794 -0.26816,0.06579 -0.4442,0.08041c-0.17604,0.01463 -0.35566,-0.02545 -0.35566,-0.02545l-0.06766,-0.17095l-0.25635,0.09386c0,0 -0.34464,-0.14787 -0.47715,-0.332c-0.13251,-0.18413 -0.14222,-0.52866 -0.14222,-0.52866c0,0 0.65006,0.17931 1.04685,0.13851c3.27173,-1.11354 2.58748,-2.80975 2.88637,-4.79649c0.13795,-0.91692 0.54177,-1.29953 0.51794,-1.89423c-0.01956,-0.48814 -0.26885,-0.79753 -0.26885,-0.79753z" data-paper-data="{&quot;index&quot;:null}" fill="#a87643"/><path d="M241.72136,194.86331c-0.26138,-1.04079 -1.15309,-4.59077 -0.93748,-4.83686c0.29013,-0.30646 2.06007,-0.99702 2.06007,-0.99702c0,0 0.25123,0.68461 0.35833,1.09994c0.1071,0.41533 0.49804,1.67623 0.49804,1.67623c0,0 1.21348,0.82242 1.23261,1.54606c0.02565,0.97033 -1.46304,3.7602 -1.46304,3.7602c0,0 -1.29205,-0.43098 -1.74851,-2.24856z" data-paper-data="{&quot;index&quot;:null}" fill="#f3e2e2"/><path d="M241.24715,189.19073c0.26294,0.14412 -0.41416,0.78571 -0.41416,0.78571c0,0 -0.11583,0.25072 -0.04888,0.57084c0.11015,0.52668 0.35675,1.29437 0.49714,2.11225c0.15984,0.93123 0.39547,2.00521 0.59053,2.52339c0.24065,0.63928 1.23463,1.78658 1.61664,1.7682c0.0374,-0.00179 0.05601,-0.3207 0.0478,-0.52964c0.02332,-0.55625 -0.05625,-0.39219 0.03894,-1.13588c0.08885,-0.59736 0.79124,-0.13584 0.79124,-0.13584c0,0 0.19952,3.38157 -1.55635,4.56602c-1.32362,0.89286 -2.4046,0.25068 -2.41359,0.2472c-0.0161,-0.00623 -0.49897,-1.00734 -0.56031,-1.74477c-0.01704,-0.205 0.64024,-1.23742 0.59933,-2.14953c-0.03806,-0.84871 -0.03977,-2.28604 -0.18913,-3.21412c-0.26756,-1.6624 -0.79862,-2.925 -0.60057,-3.07697c0.66107,-0.5073 1.43788,-0.67649 1.60138,-0.58687z" data-paper-data="{&quot;index&quot;:null}" fill="#fc6293"/><path d="M240.44088,196.28456c0,0 -0.15116,-2.25744 -0.20631,-2.91545c-0.07635,-0.91084 -0.32934,-1.75108 -0.69365,-3.25923c-0.06338,-0.26238 0.30604,-0.52129 0.30604,-0.52129l0.13395,0.05177c0,0 -0.31294,0.26957 -0.28713,0.47889c0.05132,0.41608 0.4343,1.91134 0.68239,3.13959c0.18805,0.93101 0.19468,2.35747 0.19468,2.35747z" data-paper-data="{&quot;index&quot;:null}" fill="#766565"/><path d="M242.32241,193.41316l-0.35921,-1.22686l0.64757,-0.17283l0.30133,1.20448z" data-paper-data="{&quot;index&quot;:null}" fill="#fffff6"/><path d="M241.9632,191.53328l-0.2072,-1.04854l0.57633,-0.17079l0.25205,0.98072z" data-paper-data="{&quot;index&quot;:null}" fill="#fffff6"/><path d="M239.65143,190.63843c0,0 0.68967,0.11528 1.13101,0.08234c0.44133,-0.03294 0.9609,-0.23846 0.9609,-0.23846l0.22196,1.04382c0,0 -0.74832,0.18634 -1.25646,0.16655c-0.50815,-0.01979 -0.77193,-0.13449 -0.77193,-0.13449z" data-paper-data="{&quot;index&quot;:null}" fill="#754c86"/><path d="M240.27374,193.70317c0,0 -0.0429,-0.4141 -0.07795,-0.67821c-0.03505,-0.26411 -0.11286,-0.75934 -0.11286,-0.75934c0,0 0.69349,0.0795 1.09903,0.05996c0.40554,-0.01954 0.83231,-0.14463 0.83231,-0.14463l0.34158,1.24033c0,0 -0.59728,0.17753 -1.01923,0.23921c-0.42195,0.06168 -1.06288,0.04268 -1.06288,0.04268z" data-paper-data="{&quot;index&quot;:null}" fill="#754c86"/><path d="M242.66067,189.12587l-1.7225,0.06641c0,0 0.08487,-0.06794 0.45208,-0.11212c0.36721,-0.04418 0.70589,-0.1204 0.84341,-0.13015c0.22721,-0.01609 0.59364,0.09202 0.59364,0.09202z" data-paper-data="{&quot;index&quot;:null}" fill="#ae8484"/><path d="M240.04973,189.80357c-0.04757,-0.20591 0.32613,-0.42739 1.20265,-0.6299c0.87652,-0.2025 1.39294,-0.03832 1.39294,-0.03832c0,0 -0.66501,0.2995 -1.01466,0.43695c-0.71094,0.29125 -0.59399,0.33214 -0.99038,0.40404c-0.39638,0.0719 -0.55104,-0.0102 -0.58643,-0.16341z" data-paper-data="{&quot;index&quot;:null}" fill="#532c31"/></g></g><g data-paper-data="{&quot;index&quot;:null}" stroke="none" stroke-width="0" stroke-linecap="butt" stroke-linejoin="miter"><path d="M241.07644,184.5573l0.64086,3.72209l0.2216,1.16824l-1.34977,0.59597l-0.2323,-1.48216l-0.6119,-4.09511z" data-paper-data="{&quot;index&quot;:null}" fill="#8e5173"/><path d="M241.49776,187.02983l0.21961,1.24956l0.2216,1.16824l-1.34977,0.59597l-0.2323,-1.48216l-0.17234,-1.2746z" data-paper-data="{&quot;index&quot;:null}" fill="#c5c0b5"/><path d="M241.49776,187.02983l0.03668,0.23333l-1.31741,0.28853l-0.03247,-0.26485z" data-paper-data="{&quot;index&quot;:null}" fill="#a19589"/><path d="M241.57863,187.51527l0.03668,0.23334l-1.31741,0.28852l-0.03247,-0.26485z" data-paper-data="{&quot;index&quot;:null}" fill="#a19589"/></g><g data-paper-data="{&quot;index&quot;:null}" stroke="none" stroke-width="0" stroke-linecap="butt" stroke-linejoin="miter"><path d="M235.15297,184.07475c-0.79307,-0.34369 -1.38246,-0.74573 -0.95914,-1.72255c0.42333,-0.97681 1.11971,-0.82163 1.91276,-0.47794c0.79307,0.34369 1.39804,0.75249 0.95914,1.72255c-0.4388,0.96983 -1.11971,0.82163 -1.91276,0.47794z" fill="#fed000"/><path d="M235.24066,183.87234c-1.03329,-0.4478 -1.82728,-0.91153 -1.48182,-1.70866c0.34545,-0.79712 1.22674,-0.53484 2.26003,-0.08703c1.03329,0.4478 1.84758,0.92033 1.48182,1.70866c-0.36567,0.78813 -1.22674,0.53484 -2.26003,0.08703z" fill="#e68b9c"/></g><path d="M235.84543,183.41949c0,0 1.45234,1.25836 3.73509,1.34968c2.65395,0.06274 4.32885,-1.131 4.32885,-1.131l0.24966,0.37729c0,0 -2.02118,1.00606 -4.60226,1.08631c-2.16319,-0.08053 -3.91267,-1.30016 -3.91267,-1.30016z" data-paper-data="{&quot;index&quot;:null}" fill="#ee3377" stroke="none" stroke-width="0" stroke-linecap="butt" stroke-linejoin="miter"/><path d="M241.37142,180.22623l1.24903,1.68953l1.32174,1.80318c0,0 -1.28773,0.87424 -3.86704,1.11583c-1.97861,0.15687 -4.25952,-1.34528 -4.25952,-1.34528l2.00838,-3.23353z" data-paper-data="{&quot;index&quot;:null}" fill="#fcf4f4" stroke="none" stroke-width="0" stroke-linecap="butt" stroke-linejoin="miter"/><path d="M236.11187,183.03727c0,0 0.95655,1.18946 3.34427,1.28347c2.65395,0.06274 4.15228,-1.05294 4.15228,-1.05294l0.08762,0.12266c0,0 -1.20023,0.99152 -4.23189,1.08631c-2.16318,-0.08053 -3.44055,-1.29747 -3.44055,-1.29747z" data-paper-data="{&quot;index&quot;:null}" fill="#ee3377" stroke="none" stroke-width="0" stroke-linecap="butt" stroke-linejoin="miter"/><g data-paper-data="{&quot;index&quot;:null}" stroke="none" stroke-width="0" stroke-linecap="butt" stroke-linejoin="miter"><path d="M241.14119,186.43734l-0.87185,-6.3347l1.81063,0.83425l3.91088,3.37966c0,0 -1.41647,1.20259 -2.44904,1.50532c-1.03257,0.30273 -2.40063,0.61547 -2.40063,0.61547z" fill="#fab5b7"/><path d="M245.96774,184.3082l0.47024,0.35536c0,0 -1.43411,1.03777 -2.46342,1.48642c-1.02931,0.44865 -2.82796,0.81997 -2.82796,0.81997l-0.00566,-0.57183c0,0 1.68042,-0.29692 2.67212,-0.7263c0.9917,-0.42939 2.15468,-1.3636 2.15468,-1.3636z" fill="#fed000"/></g><path d="M238.23215,180.64007l0.388,-0.48884l1.57191,0.11439l0.38428,0.58416z" data-paper-data="{&quot;index&quot;:null}" fill="#aa4455" stroke="none" stroke-width="0" stroke-linecap="butt" stroke-linejoin="miter"/><g data-paper-data="{&quot;index&quot;:null}" stroke-width="0" stroke-linecap="butt" stroke-linejoin="miter"><path d="M222.19693,180.89487c0,0 0.35907,-4.65889 5.56598,-4.31519c1.99936,0.13197 3.27438,0.83727 4.59119,2.17328c1.38944,1.40971 0.00164,3.98537 0.00164,3.98537l-9.08315,-0.11605z" fill="#ffff00" stroke="none"/><path d="M222.97386,182.18094l-0.28842,-0.44437c0,0 0.18403,-0.9451 0.38322,-1.28253c0.42718,-0.72365 0.61655,-1.03931 0.69461,-0.62108c0.03882,0.20794 -0.34518,0.62441 -0.50489,1.0563c-0.23867,0.64539 -0.28453,1.29167 -0.28453,1.29167z" fill="#a58c48" stroke="#000000"/><path d="M225.78994,178.28764c0.00739,-0.18805 0.67382,-0.67567 2.00896,-0.58311c0.8946,0.06202 2.3888,0.40783 2.31286,0.87324c-0.06933,0.42501 -1.47573,-0.35889 -2.37179,-0.39409c-0.89605,-0.0352 -1.95742,0.292 -1.95003,0.10395z" fill="#a58c48" stroke="#000000"/><path d="M232.42252,182.05887c0,0 -0.01455,-0.42258 -0.16649,-0.8792c-0.14064,-0.42265 -0.5141,-0.71852 -0.32669,-0.86544c0.06596,-0.0517 0.42142,-0.02043 0.55337,0.35634c0.14696,0.41966 0.15429,1.03563 0.15429,1.03563l-0.21447,0.35267z" fill="#a58c48" stroke="#000000"/><path d="M227.70307,183.71913c2.55405,0.03216 4.49232,2.03436 4.49232,2.03436l0.05869,0.59188c0,0 -2.11576,-2.53839 -5.575,-1.98438c-2.17367,0.34812 -3.61353,1.98455 -3.61353,1.98455c0,0 -0.06119,0.28489 -0.0371,-0.31098c0.02409,-0.59586 0.06774,-0.3797 0.06774,-0.3797c0,0 1.02309,-1.98087 4.60686,-1.93572z" fill="#edeee6" stroke="none"/><path d="M232.51709,182.3324l-0.13435,0.37402c0,0 -2.1715,-3.01997 -5.5686,-2.38895c-2.13464,0.39653 -3.54259,2.29813 -3.54259,2.29813l-0.17472,-0.29239c0,0 1.13516,-2.77855 4.71787,-2.87562c2.82702,-0.07659 4.70237,2.8848 4.70237,2.8848z" fill="#edeee6" stroke="none"/><path d="M227.85403,179.86472c2.56506,0.0326 4.55117,2.74884 4.55117,2.74884l-0.13535,3.33118c0,0 -2.1253,-2.53875 -5.59933,-1.98533c-2.18299,0.34776 -3.62876,1.98394 -3.62876,1.98394c0,0 -0.08271,-0.93109 -0.05861,-1.52696c0.0241,-0.59586 0.18213,-1.52729 0.18213,-1.52729c0,0 1.08957,-3.07014 4.68877,-3.02441z" fill="#754c86" stroke="none"/><path d="M229.24326,187.23015c-1.33856,-0.05258 -7.43215,1.77435 -7.43215,1.77435c0,0 0.76757,-5.18925 6.58557,-4.73654c3.05093,0.23739 4.30461,1.94534 4.72347,3.26879c0.26774,0.84593 0.00392,1.59007 0.00392,1.59007c0,0 -2.54225,-1.8441 -3.8808,-1.89669z" fill="#ffff00" stroke="none"/><path d="M227.74975,185.08512c-0.89723,-0.03523 -2.03369,0.19141 -2.02935,0.08078c0.00434,-0.11062 0.82894,-0.56927 2.0883,-0.55993c0.69745,0.00517 2.02752,0.28585 2.20132,0.64819c0.11747,0.2449 -1.56335,-0.14166 -2.26028,-0.16904z" fill="#a58c48" stroke="#000000"/><path d="M222.55867,187.00769l0.28085,-0.51056c0,0 1.22084,-1.05273 1.08836,-0.63933c-0.08501,0.26529 -1.36921,1.14989 -1.36921,1.14989z" fill="#a58c48" stroke="#000000"/><path d="M231.46546,185.9934c0.01477,-0.37613 1.24536,0.67787 1.24536,0.67787l0.31336,0.77354c0,0 -1.5735,-1.07529 -1.55873,-1.45142z" fill="#a58c48" stroke="#000000"/><path d="M227.01555,192.6732c-2.74461,-0.07367 -5.24442,-1.96192 -5.17664,-3.68766c0.0678,-1.72574 2.87419,-3.17882 5.61892,-3.10944c2.86524,0.07244 5.76013,1.46692 5.69233,3.19266c-0.09454,2.40677 -2.90982,3.71633 -6.13559,3.62973z" fill="#ffff00" stroke="#000000"/><path d="M223.00821,190.72294c0.04084,-1.03987 2.05585,-1.80498 4.50064,-1.70895c2.44479,0.09603 4.39358,1.01687 4.35274,2.05673c-0.04084,1.03987 -2.05586,1.80499 -4.50065,1.70896c-2.44479,-0.09603 -4.39357,-1.01688 -4.35273,-2.05674z" fill="#ffff00" stroke="#000000"/><path d="M234.3615,186.08512c0,0 0.23938,-0.55853 0.28988,-0.96284c0.05049,-0.40431 -0.03933,-1.04331 -0.03933,-1.04331l4.23905,0.74002l6.93488,1.12149c0,0 0.26636,0.55229 0.24602,0.78422c-0.02035,0.23193 -0.4925,0.51588 -0.4925,0.51588l-7.02986,-0.71652l-4.14814,-0.43895z" fill="#fbdd00" stroke="none"/><path d="M232.04856,185.86032l-0.17349,-2.74511c0,0 2.50132,0.41209 2.67039,0.71331c0.28636,0.51012 -0.01416,2.21025 -0.35651,2.44586c-0.09018,0.06207 -1.91001,-0.13719 -1.91001,-0.13719z" fill="#c8c8c6" stroke="none"/><path d="M222.24483,180.69615c0,0 0.16618,-4.12947 5.11472,-4.57365c3.33889,-0.29971 5.18248,2.98661 5.18248,2.98661c0,0 -0.96805,-1.19223 -2.23891,-1.85744c-1.02857,-0.53837 -2.37344,-0.6878 -3.51303,-0.56065c-0.76657,0.08555 -1.57844,0.19606 -2.11286,0.47026c-2.20316,1.1304 -2.43238,3.53486 -2.43238,3.53486z" fill="#ffff00" stroke="#000000"/><path d="M242.62723,186.94858c0,0 -0.04251,-0.3862 0.00799,-0.7905c0.05049,-0.40431 0.177,-0.71382 0.177,-0.71382l2.97382,0.49622c0,0 0.26635,0.55229 0.24601,0.78422c-0.02035,0.23193 -0.4925,0.51588 -0.4925,0.51588z" fill="#a56402" stroke="none"/></g><path d="M239.76367,171.0737c0,0 0.61759,-0.67464 1.40761,-0.76552c0.70503,-0.08111 1.01817,0.1168 1.47414,0.63c0.69072,0.77739 0.3,2.12111 0.3,2.12111c0,0 0.35349,-2.02528 -1.18672,-2.52077c-0.9529,-0.30654 -1.99504,0.53519 -1.99504,0.53519z" data-paper-data="{&quot;index&quot;:null}" fill="#000000" stroke="none" stroke-width="0" stroke-linecap="butt" stroke-linejoin="miter"/><path d="M240.85275,166.154c3.33818,0 6.0443,2.33386 6.0443,5.21282c0,2.87895 -2.70612,5.2128 -6.0443,5.2128c-3.33818,0 -6.04431,-2.33384 -6.04431,-5.2128c0,-2.87895 2.70612,-5.21281 6.04431,-5.21281z" data-paper-data="{&quot;index&quot;:null}" fill="#f79eb4" stroke="none" stroke-width="0" stroke-linecap="butt" stroke-linejoin="miter"/><path d="M235.57201,172.63025c-0.00019,-0.00071 0.19735,1.16732 0.60411,1.81476c0.40677,0.64744 1.9589,2.37171 1.9589,2.37171l0.28262,0.91116c0,0 -1.47979,-0.05771 -2.69053,-2.22704c-0.75503,-1.34395 -0.72519,-2.40445 -0.71892,-2.38834" data-paper-data="{&quot;index&quot;:null}" fill="#f79eb4" stroke="#f89db5" stroke-width="0" stroke-linecap="butt" stroke-linejoin="round"/><g data-paper-data="{&quot;index&quot;:null}" fill="#ffd5c5" stroke="none" stroke-width="1" stroke-linecap="round" stroke-linejoin="round"><path d="M236.4945,175.02549c0.01286,-0.05827 0.10724,0.05912 0.15022,0.10052c0.26562,0.25558 0.5611,-0.04023 0.75847,-0.1947c0.15166,-0.11865 0.39988,-0.18165 0.58844,-0.18388c0.9073,-0.00118 2.65248,0.58906 2.96625,0.60243c0.29203,0.01245 1.1405,-0.45673 1.45072,-0.56231c0.31827,-0.10832 0.58883,-0.00731 0.63715,0.0301c0.10131,0.07848 0.81974,0.57762 -0.13962,1.61022c-0.1333,0.14347 -0.97502,0.67153 -1.44795,0.72743c-0.39656,0.04683 -1.77722,0.2449 -2.82313,-0.10525c-0.83355,-0.27907 -1.34071,-0.67124 -1.40543,-0.72159c-0.39554,-0.30784 -0.85282,-0.7683 -0.73513,-1.30295z"/><path d=""/></g><g data-paper-data="{&quot;index&quot;:null}" fill="#000000" stroke="none" stroke-width="1" stroke-linecap="round" stroke-linejoin="round"><path d="M237.71769,175.41112c-0.10995,0.00735 -0.48839,-0.23941 -0.33055,-0.35514c0.09124,-0.0669 0.62028,-0.12542 0.76951,-0.01737c0.19634,0.14218 -0.19987,0.33697 -0.43896,0.37251z"/><path d=""/></g><path d="M245.33498,171.8111c0.02283,0.01375 -0.1372,2.3031 -0.28494,2.82591c-0.22169,0.78448 -0.57942,1.5313 -1.10908,2.1546c-0.2252,0.26499 -0.45886,0.4838 -0.72366,0.70465c-0.08571,0.07151 -0.44345,0.30592 -0.44345,0.30592c0,0 0.38297,-1.02833 0.42394,-2.68636c0.02174,-0.88046 -0.0985,-2.82917 -0.07803,-2.77616" data-paper-data="{&quot;index&quot;:null}" fill="#f79eb4" stroke="#f89db5" stroke-width="0" stroke-linecap="butt" stroke-linejoin="round"/><path d="M246.71445,171.14146c0.17972,0.35946 0.07703,2.22582 -0.29214,3.58465c-0.2845,1.04717 -0.56368,1.32951 -1.05988,1.88672c-0.56196,0.63103 -0.97324,0.69448 -0.97324,0.69448c0,0 0.46717,-1.15581 0.61363,-1.93401c0.14647,-0.7782 0.4414,-3.57904 0.42676,-3.59368" data-paper-data="{&quot;index&quot;:null}" fill="#f79eb4" stroke="#f89db5" stroke-width="0" stroke-linecap="butt" stroke-linejoin="round"/><g data-paper-data="{&quot;index&quot;:null}" fill="#ff4488" stroke="none" stroke-width="1" stroke-linecap="round" stroke-linejoin="round"><path d="M236.68922,168.11267c0.09205,-0.118 2.30173,-1.90762 5.04726,-1.44986c3.39352,0.60495 3.72973,4.70868 3.7273,4.70804c-0.0339,-0.00895 -0.57704,-1.57821 -1.45484,-2.26644c-1.1382,-0.89243 -1.79743,-1.41069 -3.04667,-1.62756c-1.58499,-0.27517 -3.79199,1.11572 -3.87859,1.17164"/><path d=""/></g><g data-paper-data="{&quot;index&quot;:null}" stroke="none" stroke-width="1" stroke-linecap="round" stroke-linejoin="round"><g fill="#f79eb4"><path d="M240.7546,167.89606c0.04438,-0.15216 1.01235,-0.92458 1.7949,-1.29471c0.78255,-0.37011 1.54968,-0.5908 1.70972,-0.36284c0.12242,0.17436 0.18027,1.04187 0.17765,1.71819c-0.00263,0.67632 -0.16825,1.29546 -0.19076,1.65428"/></g><g fill="#ffd5c5"><path d="M241.43671,168.06084c0.09971,-0.16054 0.52384,-0.53972 0.9475,-0.74847c0.42365,-0.20875 1.27994,-0.49347 1.36123,-0.38916c0.02005,0.02573 0.08923,0.77957 0.07443,1.27986c-0.01479,0.50029 -0.13066,0.89357 -0.14119,0.97843"/></g></g><g data-paper-data="{&quot;index&quot;:null}" fill="#f79eb4" stroke="none" stroke-width="1" stroke-linecap="round" stroke-linejoin="round"><path d="M234.84037,169.95216c-0.00851,-0.01284 -0.4694,-0.84148 -0.60409,-1.62533c-0.0863,-0.50216 0.03057,-1.14656 0.07343,-1.16967c0.20928,-0.11275 1.03539,-0.04613 1.69966,-0.00089c0.66428,0.04524 0.97729,0.11494 1.27228,0.20333"/><path d=""/></g><path d="M234.55803,172.80157c-0.38961,-0.20995 -0.88577,-0.8006 -0.88577,-0.8006c0,0 0.57864,0.45168 1.01281,0.61711c0.43416,0.16543 0.71323,0.09393 0.71323,0.09393l0.05232,0.34412c0,0 -0.50298,-0.04461 -0.89259,-0.25456z" data-paper-data="{&quot;index&quot;:null}" fill="#000000" stroke="none" stroke-width="0" stroke-linecap="butt" stroke-linejoin="miter"/><path d="M241.62836,170.9676c-0.60751,0 -1.8,0.15 -1.8,0.15c0,0 1.13377,-2.13552 2.65,-1.35c1.13447,0.58774 0.5,2.85 0.5,2.85c0,0 -0.74249,-1.65 -1.35,-1.65z" data-paper-data="{&quot;index&quot;:null}" fill="#e569c4" stroke="none" stroke-width="0" stroke-linecap="butt" stroke-linejoin="miter"/><path d="M234.68483,173.39031c-0.41327,-0.15837 -1.1909,-0.65443 -1.1909,-0.65443c0,0 0.84166,0.34767 1.29342,0.45619c0.45177,0.10852 0.71939,0.0019 0.71939,0.0019l0.09592,0.3346c0,0 -0.50456,0.02011 -0.91783,-0.13826z" data-paper-data="{&quot;index&quot;:null}" fill="#000000" stroke="none" stroke-width="0" stroke-linecap="butt" stroke-linejoin="miter"/><path d="M238.49154,173.2057c0.64899,-0.95161 0.93837,-2.66505 2.98484,-2.89957c0.44454,-0.05095 1.7524,0.53343 1.46832,2.67571c-0.09453,0.7129 -0.41877,1.78557 -1.6902,2.37548c-0.65297,0.19369 -2.1921,-0.54254 -2.8683,-0.57727c-1.18722,-0.06096 -1.01455,0.4724 -1.60028,0.45107c-0.1466,-0.00534 -0.97292,-0.86661 -1.30206,-2.08886c-0.1552,-0.57634 -0.10873,-1.41812 -0.04066,-1.41753c0.44916,0.00388 0.83212,0.93518 1.23813,1.45808c0.28398,0.36575 0.66451,0.66728 1.00158,0.63715c0.19648,-0.01756 0.39491,-0.00763 0.80863,-0.61427z" data-paper-data="{&quot;index&quot;:null}" fill="#ffffff" stroke="none" stroke-width="0" stroke-linecap="butt" stroke-linejoin="miter"/><g data-paper-data="{&quot;index&quot;:null}" stroke="none" stroke-linecap="butt" stroke-linejoin="miter"><path d="M240.39796,173.63349c0.04639,0.71913 -0.1046,1.31426 -0.33725,1.32927c-0.23265,0.015 -0.45888,-0.55579 -0.50528,-1.27491c-0.04639,-0.71913 0.10461,-1.31427 0.33726,-1.32928c0.23265,-0.015 0.45888,0.55579 0.50527,1.27492z" fill="#169c5b" stroke-width="NaN"/><path d="M240.16578,173.81002c0.01937,0.30036 -0.04778,0.54921 -0.15001,0.5558c-0.10223,0.0066 -0.20082,-0.23156 -0.22018,-0.53193c-0.01937,-0.30036 0.04778,-0.54921 0.15001,-0.5558c0.10223,-0.0066 0.20082,0.23156 0.22018,0.53193z" fill="#000000" stroke-width="0"/><path d="M240.04517,173.13201c0.01961,0.3039 -0.06452,0.55669 -0.18789,0.56465c-0.12338,0.00796 -0.23929,-0.23193 -0.2589,-0.53583c-0.01961,-0.3039 0.06452,-0.5567 0.18789,-0.56466c0.12338,-0.00796 0.23929,0.23194 0.2589,0.53583z" fill="#ffffff" stroke-width="0"/></g><g data-paper-data="{&quot;index&quot;:null}" stroke="none" stroke-linecap="butt" stroke-linejoin="miter"><path d="M236.98115,174.12121c0.03271,0.50723 -0.07377,0.927 -0.23787,0.93758c-0.16411,0.01058 -0.32366,-0.39202 -0.35639,-0.89925c-0.03271,-0.50723 0.07378,-0.927 0.23788,-0.93758c0.16411,-0.01058 0.32366,0.39201 0.35638,0.89924z" fill="#169c5b" stroke-width="NaN"/><path d="M236.81739,174.24572c0.01368,0.21186 -0.0337,0.38737 -0.10582,0.39203c-0.07211,0.00466 -0.14163,-0.16332 -0.15531,-0.37518c-0.01368,-0.21186 0.0337,-0.38737 0.10582,-0.39202c0.07211,-0.00466 0.14163,0.16331 0.1553,0.37517z" fill="#000000" stroke-width="0"/><path d="M236.73234,173.76749c0.01382,0.21435 -0.0455,0.39264 -0.13252,0.39826c-0.08703,0.00562 -0.16878,-0.16359 -0.18262,-0.37793c-0.01382,-0.21435 0.0455,-0.39266 0.13253,-0.39828c0.08703,-0.00562 0.16877,0.16361 0.18261,0.37795z" fill="#ffffff" stroke-width="0"/></g><path d="M242.25014,176.0665c0,0 -0.33069,0.14824 -0.52892,0.16975c-0.19823,0.02151 -0.77221,0.02805 -0.77221,0.02805" data-paper-data="{&quot;index&quot;:null}" fill="none" stroke="#000000" stroke-width="0.125" stroke-linecap="round" stroke-linejoin="miter"/><path d="M242.76422,171.26502l-0.18182,-0.31169c0,0 0.48987,0.01496 0.91797,-0.16559c0.4281,-0.18055 1.00412,-0.6396 1.00412,-0.6396c0,0 -0.47515,0.60768 -0.85715,0.83117c-0.38201,0.22348 -0.88312,0.28571 -0.88312,0.28571z" data-paper-data="{&quot;index&quot;:null}" fill="#000000" stroke="none" stroke-width="0" stroke-linecap="butt" stroke-linejoin="miter"/><path d="M244.09676,172.14114c-0.44064,0.04143 -1.15803,-0.11278 -1.15803,-0.11278l-0.04326,-0.34713c0,0 0.63262,0.32416 1.09692,0.3411c0.4643,0.01694 1.38802,-0.27307 1.38802,-0.27307c0,0 -0.84303,0.35045 -1.28366,0.39188z" data-paper-data="{&quot;index&quot;:null}" fill="#000000" stroke="none" stroke-width="0" stroke-linecap="butt" stroke-linejoin="miter"/><path d="M238.34166,178.5432c0.13874,-0.60785 0.68623,-1.40353 0.68623,-1.40353c0,0 0.68893,0.07134 1.15152,0.0686c0.46259,-0.00274 1.18247,-0.08245 1.18247,-0.08245l0.04601,2.26109l0.16418,0.99716l-3.37109,-0.18284c0,0 0.00195,-1.05018 0.14068,-1.65803z" data-paper-data="{&quot;index&quot;:null}" fill="#6d3b75" stroke="none" stroke-width="0" stroke-linecap="butt" stroke-linejoin="miter"/><path d="M237.7265,180.23042l0.38747,-1.13677c0,0 0.01829,-1.17084 0.15106,-1.73503c0.07495,-0.093 0.20681,-0.03006 0.20681,-0.03006c0,0 -0.22569,0.3171 -0.2157,0.38616c0.03162,0.21863 -0.0581,0.30198 0.09024,0.4189c0.67702,0.53361 0.75439,0.82936 0.75439,0.82936c0,0 -0.02483,0.18714 -0.04268,0.28018c-0.09971,0.51973 -0.7297,1.51018 -0.7297,1.51018z" data-paper-data="{&quot;index&quot;:null}" fill="#efe6e6" stroke="none" stroke-width="0" stroke-linecap="butt" stroke-linejoin="miter"/><path d="M240.48043,180.97796c0,0 -0.5441,-0.95645 -0.64381,-1.47617c-0.01785,-0.09304 -0.04268,-0.28018 -0.04268,-0.28018c0,0 0.07737,-0.29575 0.75439,-0.82936c0.14834,-0.11692 0.23103,-0.23475 0.26265,-0.45338c0.00999,-0.06906 -0.18029,-0.35504 -0.17881,-0.41907c0.00723,-0.31302 0.18725,-0.3464 0.18725,-0.3464c0,0 0.52841,-0.11466 0.60336,-0.02166c0.28794,0.35729 0.04777,2.23518 0.04777,2.23518l0.63023,1.56438z" data-paper-data="{&quot;index&quot;:null}" fill="#efe6e6" stroke="none" stroke-width="0" stroke-linecap="butt" stroke-linejoin="miter"/><path d="M241.18317,177.98271c0.09535,-0.37982 0.30696,-0.43431 0.51926,-0.40054c0.316,0.05029 0.45732,0.24999 0.42075,0.56136c-0.14597,1.24265 -0.25088,2.3318 -0.2984,3.19316c-0.02898,0.52511 -0.06749,2.57849 -0.06749,2.57849c0,0 -0.11074,-0.00851 -0.4196,0.09109c-0.30885,0.09961 -0.79981,-0.13378 -0.79981,-0.13378c0,0 0.10215,-1.15721 0.17397,-2.45885c0.05023,-0.91041 0.18336,-2.28394 0.47134,-3.43096z" data-paper-data="{&quot;index&quot;:null}" fill="#fff9fb" stroke="none" stroke-width="0" stroke-linecap="butt" stroke-linejoin="miter"/><path d="M240.5937,177.44538c0,0 0.29972,0.55899 0.02989,0.92033c-0.15579,0.19807 -0.38875,0.37469 -0.60492,0.57069c-0.14946,0.13552 -0.28519,0.28518 -0.28519,0.28518c0,0 0.09475,-0.84795 0.16044,-1.14927c0.08002,-0.36702 0.20746,-0.77577 0.32469,-0.85623c0.07367,-0.02489 0.76043,-0.06454 0.76043,-0.06454l0.25233,0.29667l-0.63766,-0.00283z" data-paper-data="{&quot;index&quot;:null}" fill="#fd4275" stroke="none" stroke-width="0" stroke-linecap="butt" stroke-linejoin="miter"/><g stroke="none" stroke-linecap="butt" stroke-linejoin="miter"><path d="M239.84794,184.68578l2.56099,-0.0187c0,0 0.34324,0.16196 0.59716,0.68978c0.16492,0.34278 0.1084,0.96865 0.1084,0.96865c0,0 0.42879,-0.60497 0.87594,-0.2019c0.28711,0.25879 -0.02121,1.37403 -0.22302,1.73671c-0.11881,0.21351 -0.45369,0.51462 -0.79123,0.61201c-0.21292,0.06144 -0.50186,-0.03878 -0.50186,-0.03878c0,0 -0.11879,0.37437 -0.52755,0.283c-0.12523,-0.02798 -0.30434,-0.03094 -0.30434,-0.03094c0,0 -0.16864,0.24081 -0.30199,0.32525c-0.13336,0.08444 -0.39391,0.09176 -0.39391,0.09176l-0.3546,-0.25644c0,0 -0.48638,0.28613 -0.60206,0.28909c-0.45379,0.01158 -0.65581,-0.44947 -0.76583,-0.69621c-0.20145,-0.45176 -0.49546,-1.50863 -0.4435,-1.64014c0.32615,-0.8254 1.06741,-2.11314 1.06741,-2.11314z" data-paper-data="{&quot;index&quot;:null}" fill="#ffffff" stroke-width="0"/><path d="M242.03985,187.7056l-0.38204,-0.34153l0.34153,-0.38204l0.38204,0.34153z" data-paper-data="{&quot;index&quot;:null}" fill="#baba3e" stroke-width="NaN"/><path d="M241.06827,187.85332l-0.38204,-0.34153l0.34153,-0.38204l0.38204,0.34153z" data-paper-data="{&quot;index&quot;:null}" fill="#baba3e" stroke-width="NaN"/><path d="M240.00369,188.00626l-0.38204,-0.34153l0.34153,-0.38204l0.38204,0.34153z" data-paper-data="{&quot;index&quot;:null}" fill="#baba3e" stroke-width="NaN"/><path d="M238.61606,187.97373l0.36829,-0.48328l0.21041,0.31826l-0.0176,0.37083z" data-paper-data="{&quot;index&quot;:null}" fill="#baba3e" stroke-width="0"/></g><path d="M240.19335,180.59563c0,0 -0.46842,-0.81811 -0.41046,-1.3907c0.0306,-0.30234 1.04705,-1.17869 1.04705,-1.17869l0.16093,0.11174c0,0 -1.03238,0.7661 -1.0704,1.0962c-0.05609,0.48698 0.41939,1.34311 0.41939,1.34311z" data-paper-data="{&quot;index&quot;:null}" fill="#fed000" stroke="none" stroke-width="0" stroke-linecap="butt" stroke-linejoin="miter"/><path d="M240.89225,178.04027c0,0 -0.48348,0.40393 -0.67833,0.5971c-0.08261,0.0819 -0.23543,0.23428 -0.31991,0.392c-0.0865,0.1615 -0.10371,0.32743 -0.10371,0.32743c0,0 -0.04993,-0.22091 -0.05239,-0.28415c-0.00246,-0.06323 0.07328,-0.20262 0.07328,-0.20262l0.88875,-0.86106l-0.19206,-0.62356l0.66715,-0.00489l-0.20416,-0.21788l0.18716,-0.03586l0.26252,0.39333l-0.75242,-0.01754l0.22411,0.53772z" data-paper-data="{&quot;index&quot;:null}" fill="#fff9f9" stroke="none" stroke-width="0" stroke-linecap="butt" stroke-linejoin="miter"/><path d="M240.70143,177.5642l-0.02193,-0.0544h0.72959l0.04386,0.07633z" data-paper-data="{&quot;index&quot;:null}" fill="#fed000" stroke="none" stroke-width="0" stroke-linecap="butt" stroke-linejoin="miter"/><path d="M239.0328,177.14699c0,0 0.39535,0.03489 0.5908,0.047c0.19253,0.01194 0.57329,0.02516 0.57329,0.02516c0,0 -0.03395,0.06602 -0.06338,0.1127c-0.02943,0.04669 -0.06525,0.13033 -0.06525,0.13033l-0.43193,0.30852z" data-paper-data="{&quot;index&quot;:null}" fill="#fff9f9" stroke="none" stroke-width="0" stroke-linecap="butt" stroke-linejoin="miter"/><path d="M239.32538,177.1717l0.76613,0.04032l-0.42339,0.30242z" data-paper-data="{&quot;index&quot;:null}" fill="#fd4275" stroke="none" stroke-width="0" stroke-linecap="butt" stroke-linejoin="miter"/><path d="M237.88229,177.1897l0.62479,-0.17651c0,0 0.41665,0.09703 0.48731,0.12948c0.10817,0.09227 0.08106,0.49313 0.12226,0.86651c0.03382,0.30653 0.03937,1.15975 0.03937,1.15975c0,0 -0.11933,-0.16303 -0.2538,-0.31344c-0.19449,-0.21753 -0.4077,-0.62103 -0.54192,-0.83431c-0.23057,-0.38757 0.12596,-0.70867 0.12596,-0.70867z" data-paper-data="{&quot;index&quot;:null}" fill="#fd4275" stroke="none" stroke-width="0" stroke-linecap="butt" stroke-linejoin="miter"/><path d="M238.41113,180.4538c0,0 0.5624,-0.80172 0.55755,-1.29189c-0.00329,-0.33227 -0.81197,-1.23661 -0.81197,-1.23661l0.03381,-0.05982c0,0 0.91923,0.97784 0.91805,1.28172c-0.00224,0.57551 -0.55364,1.34015 -0.55364,1.34015z" data-paper-data="{&quot;index&quot;:null}" fill="#fed000" stroke="none" stroke-width="0" stroke-linecap="butt" stroke-linejoin="miter"/><path d="M238.12712,177.87294l0.27911,-0.51134l-0.80185,-0.16469l0.545,-0.3348l0.4168,0.13857l-0.6513,0.18652l0.66298,0.07463l-0.25621,0.60006l0.79383,0.94928c0,0 0.06075,0.14656 0.05169,0.20918c-0.00906,0.06264 -0.08182,0.27711 -0.08182,0.27711c0,0 0.00022,-0.16682 -0.06891,-0.33648c-0.06753,-0.16569 -0.20357,-0.33321 -0.27716,-0.4233c-0.17358,-0.21248 -0.61217,-0.66476 -0.61217,-0.66476z" data-paper-data="{&quot;index&quot;:null}" fill="#fff9f9" stroke="none" stroke-width="0" stroke-linecap="butt" stroke-linejoin="miter"/><path d="M245.01376,170.92799c0,0 0.31034,-0.12715 0.43988,-0.01436c0.12953,0.11279 0.22297,0.54475 0.17333,0.61615c-0.04483,0.06447 -0.40033,0.10092 -0.40033,0.10092z" data-paper-data="{&quot;index&quot;:null}" fill="#f7bf74" stroke="none" stroke-width="0" stroke-linecap="butt" stroke-linejoin="miter"/><path d="M243.99828,174.77514c0.30558,-0.08338 1.13209,-0.3243 1.20335,-0.83474c0.08788,-0.62957 0.27569,-0.759 0.43287,-0.74093c0.20792,0.02391 0.12427,0.27305 -0.05508,0.66647c-0.21125,0.46336 -0.83395,1.10087 -1.80063,1.33747c-0.27091,0.06631 -0.68422,0.0165 -0.70404,-0.05614c-0.02584,-0.09468 0.38839,-0.2261 0.92353,-0.37213z" data-paper-data="{&quot;index&quot;:null}" fill="#212121" stroke="none" stroke-width="0" stroke-linecap="butt" stroke-linejoin="miter"/><path d="M244.55123,174.86451l-0.06101,-0.22361l0.08944,-0.02441l0.06101,0.22361z" data-paper-data="{&quot;index&quot;:null}" fill="#b3916f" stroke="none" stroke-width="0" stroke-linecap="butt" stroke-linejoin="miter"/><path d="M245.50175,173.65214c0.0347,-0.10413 0.105,-0.26089 0.105,-0.26089c0,0 0.13758,0.15649 0.09423,0.28661c-0.04335,0.13012 -0.26491,0.32055 -0.26491,0.32055c0,0 0.031,-0.24214 0.06569,-0.34627z" data-paper-data="{&quot;index&quot;:null}" fill="#cc7889" stroke="none" stroke-width="0" stroke-linecap="butt" stroke-linejoin="miter"/><g data-paper-data="{&quot;index&quot;:null}" stroke="none" stroke-width="0" stroke-linecap="butt" stroke-linejoin="miter"><g data-paper-data="{&quot;index&quot;:null}"><path d="M248.21342,166.75263c0,0 -0.09048,0.45033 -0.70482,1.41171c-1.22483,1.91671 -2.44595,1.7477 -2.44595,1.7477c0,0 -0.31041,-0.83981 0.38814,-1.70687c0.7158,-0.88845 2.76262,-1.45256 2.76262,-1.45256z" data-paper-data="{&quot;index&quot;:null}" fill="#ce204f"/><path d="M246.37913,167.58002c-1.02659,0.49777 -1.32639,2.26989 -1.32639,2.26989c0,0 -1.14991,-1.51523 0.87576,-2.54991c1.01604,-0.51898 2.31909,-0.54725 2.31909,-0.54725c0,0 -0.84187,0.3295 -1.86846,0.82727z" fill="#ff4488"/></g><g data-paper-data="{&quot;index&quot;:null}"><path d="M245.1139,170.03018c0,0 0.9677,-0.43806 1.62063,-0.41849c1.29245,0.03877 2.33845,1.3325 2.33845,1.3325c0,0 -1.33304,0.14929 -2.18842,0.2215c-1.16729,0.09852 -1.77066,-1.13554 -1.77066,-1.13554z" fill="#f5e4ec"/><path d="M246.7628,169.74665c1.07705,0.0323 1.94872,1.11041 1.94872,1.11041c0,0 -1.11087,0.12443 -1.82369,0.1846c-0.97276,0.0821 -1.47555,-0.94628 -1.47555,-0.94628c0,0 0.80641,-0.36505 1.35051,-0.34873z" fill="#e2c1c1"/></g></g><path d="M236.57714,170.8951c-0.02988,-0.02425 -1.53362,0.62069 -2.10115,0.83659c-1.0394,0.3954 -2.81406,1.04966 -2.83728,1.0521c-0.01618,0.00165 0.83015,-0.47605 1.15271,-1.15488c0.26493,-0.74642 1.24023,-1.10728 1.55786,-1.18672c1.78233,-0.43557 2.45084,-0.67365 2.42814,-0.69208" fill="#f79eb4" stroke="#f89db5" stroke-width="0" stroke-linecap="butt" stroke-linejoin="round"/><path d="M236.76888,169.75251c-0.10394,-0.08347 -1.74914,0.23199 -2.78726,0.03653c-0.74826,-0.14088 -2.66113,-0.64998 -2.66113,-0.64998c0,0 1.27737,-0.24802 3.33454,-0.33995c0.60453,0.03145 1.10756,-0.06696 1.38858,0.18624c0.28102,0.2532 1.57217,0.71957 1.58125,0.80265" fill="#f79eb4" stroke="#f89db5" stroke-width="0" stroke-linecap="butt" stroke-linejoin="round"/><path d="M236.63355,171.9163c-0.11506,0.08429 -0.78935,1.03779 -1.01174,1.32421c-0.65631,0.85548 -0.81048,1.92262 -0.77563,1.94737c0.0016,0.00115 -0.43765,-1.60246 -0.41245,-2.21239c-0.01708,-0.15006 0.60617,-0.99438 0.85318,-1.13759c0.85983,-0.4985 1.39402,-0.88269 1.35336,-0.85294" fill="#f79eb4" stroke="#f89db5" stroke-width="0" stroke-linecap="butt" stroke-linejoin="round"/><g stroke="none" stroke-width="0" stroke-linecap="butt" stroke-linejoin="miter"><path d="M241.13419,185.48371c-0.86298,0.04832 -1.57007,-0.04682 -1.6296,-1.10975c-0.05953,-1.06294 0.63253,-1.23642 1.49551,-1.28475c0.86298,-0.04832 1.58703,0.04587 1.6296,1.10975c0.04256,1.06362 -0.63253,1.23642 -1.49551,1.28475z" data-paper-data="{&quot;index&quot;:null}" fill="#fed000"/><path d="M241.12182,185.26346c-1.12439,0.06297 -2.04202,0.0044 -2.0906,-0.86299c-0.04858,-0.86739 0.85678,-1.02804 1.98117,-1.09101c1.12439,-0.06297 2.0641,-0.00564 2.0906,0.86299c0.02648,0.86842 -0.85678,1.02804 -1.98117,1.09101z" data-paper-data="{&quot;index&quot;:null}" fill="#e68b9c"/></g><path d="" data-paper-data="{&quot;index&quot;:null}" fill="#8e5173" stroke="none" stroke-width="0" stroke-linecap="butt" stroke-linejoin="miter"/><path d="" data-paper-data="{&quot;index&quot;:null}" fill="#8e5173" stroke="none" stroke-width="0" stroke-linecap="butt" stroke-linejoin="miter"/><path d="" data-paper-data="{&quot;index&quot;:null}" fill="#a71e48" stroke="none" stroke-width="0" stroke-linecap="butt" stroke-linejoin="miter"/><path d="" data-paper-data="{&quot;index&quot;:null}" fill="#c5c0b5" stroke="none" stroke-width="0" stroke-linecap="butt" stroke-linejoin="miter"/><path d="" data-paper-data="{&quot;index&quot;:null}" fill="#af2753" stroke="none" stroke-width="0" stroke-linecap="butt" stroke-linejoin="miter"/><path d="" data-paper-data="{&quot;index&quot;:null}" fill="#af2753" stroke="none" stroke-width="0" stroke-linecap="butt" stroke-linejoin="miter"/><path d="" data-paper-data="{&quot;index&quot;:null}" fill="#a19589" stroke="none" stroke-width="0" stroke-linecap="butt" stroke-linejoin="miter"/><path d="" data-paper-data="{&quot;index&quot;:null}" fill="#a19589" stroke="none" stroke-width="0" stroke-linecap="butt" stroke-linejoin="miter"/></g></g></svg>