<svg version="1.1" xmlns="http://www.w3.org/2000/svg" xmlns:xlink="http://www.w3.org/1999/xlink" width="6.39349" height="8.29073" viewBox="0,0,6.39349,8.29073"><g transform="translate(-236.69375,-175.92076)"><g data-paper-data="{&quot;isPaintingLayer&quot;:true}" fill-rule="nonzero" stroke-miterlimit="10" stroke-dasharray="" stroke-dashoffset="0" style="mix-blend-mode: normal"><path d="" fill="#000000" stroke="none" stroke-width="1" stroke-linecap="round" stroke-linejoin="round"/><path d="" fill="#ee1a40" stroke="none" stroke-width="1" stroke-linecap="round" stroke-linejoin="round"/><g stroke-width="0" stroke-linecap="butt" stroke-linejoin="miter"><g><path d="M241.17848,175.92078c0,0 1.85278,-0.02461 1.90745,1.75726c0.02099,0.6842 -0.21089,1.14009 -0.69028,1.63005c-0.50585,0.517 -1.57364,0.12609 -1.57364,0.12609l-0.28629,-3.09312z" fill="#fbdd00" stroke="none"/><path d="M238.93452,178.51701c-0.02818,-0.45694 -0.97239,-2.47203 -0.97239,-2.47203c0,0 2.07714,0.09763 2.11111,2.09078c0.01782,1.04519 -0.61076,1.52541 -1.11803,1.70956c-0.32424,0.11771 -0.62773,0.05142 -0.62773,0.05142c0,0 0.63522,-0.92278 0.60704,-1.37973z" fill="#fbdd00" stroke="none"/><path d="M236.70378,177.93075c-0.07126,-0.93585 0.58294,-1.84559 1.26686,-1.87689c0.68392,-0.0313 1.3603,0.87749 1.43327,1.81325c0.07617,0.97685 -0.36862,2.00541 -1.05255,2.03669c-0.95382,0.04365 -1.57386,-0.87267 -1.65761,-1.97258z" fill="#fbdd00" stroke="#000000"/><path d="M239.5738,180.22183c0,0 0.2293,0.04676 0.3908,0.0512c0.1615,0.00444 0.41053,-0.02916 0.41053,-0.02916l-0.13721,1.46515l-0.18927,2.3941c0,0 -0.20834,0.10799 -0.30067,0.10838c-0.09233,0.00038 -0.22171,-0.15127 -0.22171,-0.15127l0.02589,-2.41364z" fill="#fbdd00" stroke="none"/><path d="M239.578,179.42805l1.07761,-0.14546c0,0 -0.07126,0.86376 -0.18402,0.93075c-0.19096,0.11347 -0.87328,0.06479 -0.97883,-0.04423c-0.02781,-0.02872 -0.01567,-0.65397 -0.01567,-0.65397z" fill="#c8c8c6" stroke="none"/><path d="M239.53508,183.06045c0,0 0.15095,-0.02662 0.31244,-0.02218c0.1615,0.00444 0.28834,0.03772 0.28834,0.03772l-0.08721,1.02712c0,0 -0.20834,0.10799 -0.30067,0.10838c-0.09233,0.00038 -0.22171,-0.15127 -0.22171,-0.15127z" fill="#a56402" stroke="none"/></g><path d="M241.79211,177.81251c0.08091,0.87349 -0.91902,1.63458 -0.91902,1.63458l-1.32034,0.05888c0,0 0.68566,-0.78577 0.34011,-1.94997c-0.21714,-0.73155 -0.83069,-1.18885 -0.83069,-1.18885c0,0 0.51834,-0.05746 0.75451,-0.06804c0.23617,-0.01057 0.60973,0.01385 0.60973,0.01385c0,0 1.25215,0.2739 1.36569,1.49955z" fill="#ff1a07" stroke="none"/></g></g></g></svg>