<svg version="1.1" xmlns="http://www.w3.org/2000/svg" xmlns:xlink="http://www.w3.org/1999/xlink" width="38" height="30.67401" viewBox="0,0,38,30.67401"><g transform="translate(-217.39848,-163.30548)"><g data-paper-data="{&quot;isPaintingLayer&quot;:true}" fill-rule="nonzero" stroke-linejoin="miter" stroke-miterlimit="10" stroke-dasharray="" stroke-dashoffset="0" style="mix-blend-mode: normal"><g data-paper-data="{&quot;index&quot;:null}"><g><path d="M232.49006,184.97283c0,0 -2.06709,3.09808 -2.3272,4.00707c-0.36489,1.27498 -0.38046,4.54369 -0.38046,4.54369c0,0 -0.62559,0.20157 -0.58158,-1.0435c0.02549,-0.72111 0.29692,-2.48107 0.65782,-3.63186c0.43262,-1.37951 1.80668,-3.86843 1.80668,-3.86843l0.82475,-0.00697z" fill="#989898" stroke="#989898" stroke-width="0" stroke-linecap="round"/><path d="M233.73761,186.82097c0.14061,0.85037 -0.27899,3.06426 -0.27899,3.06426l-2.95639,-1.87341c0,0 0.69852,-1.74522 1.36214,-2.63517c0.3154,-0.4227 0.7172,-0.61327 1.30361,0.01271c0.41251,0.44035 0.47711,0.87698 0.56964,1.43162z" fill="#f82020" stroke="none" stroke-width="1.13968" stroke-linecap="round"/><path d="M230.55612,187.93774c0,0 2.76906,0.50694 2.91519,1.81051c0.07432,0.73224 -0.93329,2.68291 -1.41687,3.19592c-0.48667,0.51591 -1.71726,0.73982 -2.30061,0.63829c-0.34267,-0.05958 -0.25138,-0.80654 -0.21958,-1.2448c0.08074,-1.09296 0.31253,-2.38219 0.58329,-3.33887c0.27076,-0.9567 0.4386,-1.06105 0.4386,-1.06105z" fill="#f8f8f8" stroke="none" stroke-width="1.15102" stroke-linecap="round"/><path d="M235.55513,187.07241c-0.02378,0.36707 -0.0045,2.12807 -0.28288,2.60443c-0.21459,0.36721 -0.80272,-0.16269 -0.80272,-0.16269c0,0 -0.59513,0.20013 -0.71824,0.19216c-0.46411,-0.03007 -0.12659,-1.3304 -0.06927,-2.2151c0.01147,-0.17693 -0.20101,-1.04975 -0.1054,-1.55549c0.0569,-0.30097 0.06338,-0.58333 0.46408,-0.79556c0.41269,-0.2186 0.54866,0.41187 0.54866,0.41187c0,0 0.43242,-0.64435 0.92414,-0.11095c0.43289,0.46959 0.06933,1.20363 0.04162,1.63134z" fill="#ffffff" stroke="none" stroke-width="0" stroke-linecap="butt"/></g><path d="M233.19042,187.79778c0.08927,-1.37782 0.0358,-2.39157 0.38474,-2.36897c0.12719,0.00824 0.16152,1.07642 0.07225,2.45424c-0.08927,1.37782 -0.01785,2.11438 -0.14503,2.10614c-0.34894,-0.02261 -0.40123,-0.8136 -0.31196,-2.19142z" fill="#424242" stroke="none" stroke-width="0" stroke-linecap="butt"/></g><path d="M236.83865,186.32509c0.36,-0.4811 -0.0547,-1.3017 0.3044,-1.7794c0.2006,-0.268 0.8477,-0.3606 1.004,-0.0852c0.3957,0.7044 0.3791,1.6079 0.3326,2.4196c-0.0254,0.4538 -0.1931,0.9526 -0.5726,1.1504c-0.6184,0.3308 -1.4755,0.5232 -2.1297,0.1995c-0.4199,-0.2025 -0.5774,-0.9612 -0.3455,-1.4122c0.2293,-0.439 1.1007,-0.0853 1.4068,-0.4927z" data-paper-data="{&quot;index&quot;:null}" fill="#e88820" stroke="none" stroke-width="0.49091" stroke-linecap="round"/><path d="M234.95845,175.36028c0,-1.6753 -2.38583,-4.25159 -2.46334,-5.12852c-0.09672,-1.09431 3.04959,-0.02036 3.04959,-0.02036c0,0 3.01853,-0.18847 2.82257,0.61154c-0.17767,0.72531 -2.28757,2.97695 -2.28757,4.94621c0,5.85407 0.31437,6.80662 0.31437,6.80662c0,0 -0.08319,0.48722 -0.30152,-0.07428c-0.35056,-0.90158 -1.13412,-3.53378 -1.13412,-7.14121z" data-paper-data="{&quot;index&quot;:null}" fill="#e2a026" stroke="none" stroke-width="0" stroke-linecap="butt"/><path d="M237.92398,175.5647c0,3.38928 -0.86696,5.9507 -1.26675,6.91011c-0.29074,0.69771 -0.26404,0.21431 -0.26404,0.21431c0,0 0.21037,-0.86147 0.21037,-6.71555c0,-1.96926 -1.89928,-4.85842 -2.10851,-5.58373c-0.23076,-0.8 3.02318,0.02599 3.02318,0.02599c0,0 2.24694,-0.80071 2.13304,0.29359c-0.09128,0.87694 -1.72729,3.18001 -1.72729,4.8553z" data-paper-data="{&quot;index&quot;:null}" fill="#e2a026" stroke="none" stroke-width="0" stroke-linecap="butt"/><path d="M235.16902,183.73462c0,-1.55828 0.65441,-2.20504 1.4201,-2.20504c0.95748,0 1.81884,0.42261 3.28569,1.19229c0.46875,-0.04076 2.88255,-1.83863 4.02687,-0.48073c1.89662,2.25062 0.71434,2.2724 0.52477,2.58898c-0.63097,1.0537 -3.77714,1.72602 -5.62522,1.72602c-2.40334,0 -3.6322,-1.26324 -3.6322,-2.82152z" data-paper-data="{&quot;index&quot;:null}" fill="#089c4e" stroke="none" stroke-width="0" stroke-linecap="butt"/><path d="M237.66715,183.89672c0.1229,1.03243 0.27895,2.72646 -0.01692,2.72646c-0.29586,0 -0.23527,-1.56417 -0.35902,-2.60372c-0.12375,-1.03955 -0.5609,-2.63879 -0.26504,-2.63879c0.29586,0 0.51808,1.48362 0.64097,2.51605z" data-paper-data="{&quot;index&quot;:null}" fill="#000000" stroke="#000000" stroke-width="0" stroke-linecap="butt"/><path d="M240.98845,186.40339c-0.23545,0 -0.42632,-0.19087 -0.42632,-0.42632c0,-0.23544 0.19087,-0.42631 0.42632,-0.42631c0.23544,0 0.42631,0.19086 0.42631,0.42631c0,0.23545 -0.19086,0.42632 -0.42631,0.42632z" data-paper-data="{&quot;index&quot;:null}" fill="#ffffff" stroke="none" stroke-width="0" stroke-linecap="butt"/><path d="M242.25511,186.27002c-0.23545,0 -0.42632,-0.19086 -0.42632,-0.42631c0,-0.23545 0.19087,-0.42632 0.42632,-0.42632c0.23545,0 0.42632,0.19087 0.42632,0.42632c0,0.23544 -0.19087,0.42631 -0.42632,0.42631z" data-paper-data="{&quot;index&quot;:null}" fill="#ffffff" stroke="none" stroke-width="0" stroke-linecap="butt"/><path d="M244.98496,184.94881l1.63954,1.57778l-2.06925,-1.04064l-0.63331,1.23236l-1.14398,-1.47568l-2.23286,0.73994l0.99473,-1.36756l-2.08454,-0.67487c0,0 2.56437,0.01085 3.53423,0.08844c0.77793,0.06224 2.2103,0.49052 2.2103,0.49052l1.68935,0.67451z" data-paper-data="{&quot;index&quot;:null}" fill="#cf0000" stroke="none" stroke-width="0" stroke-linecap="butt"/><path d="M236.21686,185.92829c-1.14792,-1.04189 -1.35794,-2.24567 -1.04086,-3.63188c0.14249,-0.51085 1.43026,-0.92992 1.43026,-0.92992l0.60475,4.95716c0,0 -0.20041,0.32177 -0.99414,-0.39537z" data-paper-data="{&quot;index&quot;:null}" fill="#f8b820" stroke="none" stroke-width="0.49091" stroke-linecap="round"/><path d="M233.82099,187.26892c0.27124,-0.41447 1.10381,0.02282 1.44827,-0.35263c0.4054,-0.44361 0.07304,-1.30088 0.47713,-1.74106c0.22588,-0.24717 0.87892,-0.27592 1.00751,0.01342c0.32484,0.73979 0.21986,1.6373 0.09418,2.44055c-0.06969,0.44914 -0.28548,0.92908 -0.68246,1.08886c-0.64771,0.26863 -1.51956,0.37626 -2.139,-0.01001c-0.39801,-0.24267 -0.48049,-1.01305 -0.20562,-1.43913z" data-paper-data="{&quot;index&quot;:null}" fill="#f8b820" stroke="none" stroke-width="0.49091" stroke-linecap="round"/><path d="M236.39848,163.30548c10.49341,0 19,2.31852 19,5.17857c0,2.86005 -8.50659,5.17857 -19,5.17857c-10.49341,0 -19,-2.31852 -19,-5.17857c0,-2.86005 8.50659,-5.17857 19,-5.17857z" data-paper-data="{&quot;index&quot;:null}" fill-opacity="0.90196" fill="#e3a127" stroke="none" stroke-width="0" stroke-linecap="butt"/><path d="M243.1671,172.6631c-2.96117,1.16119 -5.53039,-0.34742 -5.53039,-0.34742c0,0 3.19578,0.32697 4.69013,0.07393c0.59482,-0.10072 3.37614,-1.36996 3.37614,-1.36996c0,0 -2.21726,0.99775 -3.2864,1.12934c-1.06914,0.13159 -2.73273,-0.38854 -2.73273,-0.38854c0,0 2.1729,-0.17265 3.02776,-0.3724c0.85486,-0.19974 2.09307,-0.82412 2.09307,-0.82412c0,0 -1.13104,0.3824 -1.64381,0.41287c-0.51278,0.03047 -1.29449,-0.23826 -1.29449,-0.23826c0,0 0.84625,-0.25085 1.29883,-0.40363c0.45258,-0.15278 1.1487,-0.4226 1.1487,-0.4226c0,0 -0.71116,0.00959 -1.04719,-0.03686c-0.33602,-0.04646 -0.83986,-0.22401 -0.83986,-0.22401l1.49632,-0.52755l1.07303,-0.59657c0,0 -0.61869,0.15437 -0.84292,0.16863c-0.22423,0.01426 -0.5703,-0.07878 -0.5703,-0.07878c0,0 0.29986,-0.14328 0.44485,-0.25393c0.14499,-0.11065 0.32631,-0.33459 0.32631,-0.33459l-0.74282,-0.22918l0.80886,-0.54072l-0.50453,-0.32784l0.9603,-0.51912l-0.3278,0.62098l0.59662,-0.14608c0,0 -0.237,0.25732 -0.36575,0.36204c-0.1731,0.1408 -0.72139,0.44178 -0.72139,0.44178c0,0 0.41426,0.03851 0.62096,0.03203c0.16272,-0.0051 0.51916,-0.06779 0.51916,-0.06779c0,0 -0.20275,0.28803 -0.39662,0.43535c-0.19387,0.14733 -0.554,0.28698 -0.554,0.28698c0,0 0.27555,0.02001 0.58936,0.0089c0.31382,-0.0111 0.8025,-0.05817 0.8025,-0.05817c0,0 -0.50223,0.49358 -0.87905,0.73332c-0.37682,0.23974 -1.0364,0.48534 -1.0364,0.48534c0,0 0.66973,0.06178 0.98679,0.04067c0.28431,-0.01892 0.91134,-0.11781 0.91134,-0.11781c0,0 -0.50249,0.40365 -0.98169,0.64539c-0.47919,0.24174 -1.28241,0.49678 -1.28241,0.49678c0,0 1.12909,-0.19832 1.73623,-0.37515c0.53421,-0.15559 1.7159,-0.63023 1.7159,-0.63023c0,0 -1.16596,1.00811 -1.80538,1.32573c-0.7537,0.37438 -2.43066,0.77843 -2.43066,0.77843c0,0 1.91206,-0.3969 2.87519,-0.81973c0.54119,-0.23761 2.40849,-1.4999 2.40849,-1.4999c0,0 -0.98312,1.23555 -2.33503,2.18237c-0.85571,0.5993 -2.28129,1.06111 -2.35524,1.0901z" data-paper-data="{&quot;index&quot;:null}" fill="#dcdce1" stroke="none" stroke-width="0" stroke-linecap="butt"/><path d="M231.24991,163.99441c3.02102,-0.9952 5.50261,0.65356 5.50261,0.65356c0,0 -3.17271,-0.50368 -4.6788,-0.3339c-0.59948,0.06759 -3.4469,1.18064 -3.4469,1.18064c0,0 2.26918,-0.87328 3.34397,-0.94537c1.0748,-0.07209 2.70699,0.53948 2.70699,0.53948c0,0 -2.17913,0.0519 -3.04375,0.20393c-0.86462,0.15203 -2.13555,0.70679 -2.13555,0.70679c0,0 1.1505,-0.31909 1.66417,-0.32108c0.51367,-0.00198 1.27928,0.30968 1.27928,0.30968c0,0 -0.85886,0.20353 -1.31921,0.33098c-0.46035,0.12744 -1.17036,0.35825 -1.17036,0.35825c0,0 0.71061,0.02986 1.04354,0.09488c0.33293,0.06502 0.82614,0.27023 0.82614,0.27023l-1.52328,0.44377l-1.10445,0.53615c0,0 0.62629,-0.11984 0.85097,-0.12164c0.22467,-0.0018 0.56506,0.11028 0.56506,0.11028c0,0 -0.30735,0.12642 -0.45825,0.22887c-0.15092,0.10245 -0.34438,0.31598 -0.34438,0.31598l0.72898,0.27003l-0.83761,0.49503l0.48558,0.35531l-0.98761,0.46507l0.36172,-0.60185l-0.6038,0.11277c0,0 0.25089,-0.24377 0.38525,-0.3412c0.18063,-0.13098 0.74478,-0.40109 0.74478,-0.40109c0,0 -0.41149,-0.06143 -0.61824,-0.06642c-0.16276,-0.00392 -0.52213,0.03891 -0.52213,0.03891c0,0 0.21841,-0.27635 0.42015,-0.41269c0.20174,-0.13634 0.56906,-0.25581 0.56906,-0.25581c0,0 -0.27402,-0.03527 -0.58796,-0.04157c-0.31395,-0.00631 -0.8045,0.01358 -0.8045,0.01358c0,0 0.52882,-0.46496 0.91836,-0.68344c0.38953,-0.21848 1.06172,-0.42712 1.06172,-0.42712c0,0 -0.66528,-0.09882 -0.98302,-0.09533c-0.28491,0.00313 -0.91647,0.06709 -0.91647,0.06709c0,0 0.52411,-0.37516 1.01597,-0.58996c0.49186,-0.21479 1.30799,-0.4249 1.30799,-0.4249c0,0 -1.13835,0.13542 -1.75436,0.2783c-0.54203,0.12572 -1.74822,0.53409 -1.74822,0.53409c0,0 1.22005,-0.9419 1.87611,-1.22357c0.7733,-0.33202 2.47009,-0.64245 2.47009,-0.64245c0,0 -1.93112,0.29026 -2.91621,0.65902c-0.55353,0.20721 -2.48796,1.36402 -2.48796,1.36402c0,0 1.05012,-1.17914 2.45246,-2.04953c0.88763,-0.55092 2.33663,-0.93296 2.41207,-0.95781z" data-paper-data="{&quot;index&quot;:null}" fill="#dcdce1" stroke="none" stroke-width="0" stroke-linecap="butt"/><path d="M250.18866,165.67485c-0.12325,-0.35387 0.23042,0.18305 0.23042,0.18305c0,0 0.29659,0.74735 0.33495,1.09115c0.03836,0.34381 -0.11513,0.87891 -0.11513,0.87891c0,0 -0.19819,-0.56042 -0.31672,-0.85947c-0.11852,-0.29905 -0.32425,-0.75783 -0.32425,-0.75783c0,0 0.03123,0.47796 0.0117,0.70557c-0.01953,0.22761 -0.12139,0.57265 -0.12139,0.57265l-0.40694,-0.98796l-0.4386,-0.70087c0,0 0.12538,0.41072 0.14278,0.56102c0.0174,0.1503 -0.03312,0.3863 -0.03312,0.3863c0,0 -0.10681,-0.19668 -0.18628,-0.29033c-0.07948,-0.09367 -0.2364,-0.20782 -0.2364,-0.20782l-0.12826,0.50758l-0.39185,-0.52515l-0.2029,0.35074l-0.3826,-0.62776l0.42906,0.19882l-0.11904,-0.39617c0,0 0.18133,0.15044 0.25624,0.23337c0.10073,0.11151 0.32226,0.46978 0.32226,0.46978c0,0 0.01146,-0.27995 -0.0001,-0.41874c-0.0091,-0.10926 -0.06369,-0.3468 -0.06369,-0.3468c0,0 0.20079,0.12631 0.30662,0.25157c0.10583,0.12526 0.2123,0.3626 0.2123,0.3626c0,0 0.00386,-0.18601 -0.01455,-0.39668c-0.01841,-0.21066 -0.06709,-0.53769 -0.06709,-0.53769c0,0 0.34945,0.32057 0.52382,0.56565c0.17437,0.24508 0.36252,0.68012 0.36252,0.68012c0,0 0.01823,-0.45258 -0.00702,-0.66508c-0.02264,-0.19055 -0.11099,-0.60882 -0.11099,-0.60882c0,0 0.28898,0.32389 0.46826,0.63775c0.17929,0.31386 0.3788,0.84517 0.3788,0.84517c0,0 -0.17273,-0.75246 -0.3128,-1.15463z" data-paper-data="{&quot;index&quot;:null}" fill="#dcdce1" stroke="none" stroke-width="0" stroke-linecap="butt"/><g data-paper-data="{&quot;index&quot;:null}"><path d="M241.45471,168.04303c0.52283,-0.05419 2.96123,3.93454 3.40181,4.15791c0.7451,0.3787 0.95575,0.25197 1.76935,0.22844c0.70271,-0.0714 1.88037,-0.77059 2.65289,-1.20137c0.77252,-0.43078 2.03745,-1.21979 2.09318,-0.63597c0.22002,0.71669 -0.34497,1.70446 -0.8034,2.84724c-0.45844,1.14279 -1.11197,1.91818 -1.28638,2.58111c-0.46525,1.75595 -0.33803,4.85833 -1.62616,6.13827c-1.08979,1.08141 -3.20842,0.59845 -4.74123,0.21395c-1.89809,-0.47552 -4.49446,-0.84352 -5.25119,-2.65047c-0.88887,-2.12444 0.83605,-5.62173 0.83605,-5.62173c0,0 0.19354,-1.716 0.88588,-3.04921c0.69234,-1.3332 1.44847,-2.94308 2.0692,-3.00817z" data-paper-data="{&quot;index&quot;:null}" fill="#f8b820" stroke="none" stroke-width="1" stroke-linecap="round"/><path d="M247.47602,179.59937c0.10383,-0.73986 0.12366,-1.55877 0.45514,-2.20603c0.17017,-0.2951 0.65667,-0.45728 0.81377,-0.17537c0.23468,0.41968 0.11598,1.11772 0.02179,1.67384c-0.15367,1.01546 -0.28759,2.11806 -0.75402,2.96878c-0.15844,0.28883 -0.56292,-0.06449 -0.65054,-0.40632c-0.14248,-0.56005 0.0276,-1.23985 0.11388,-1.85492z" data-paper-data="{&quot;index&quot;:null}" fill="#ffffff" stroke="none" stroke-width="0.86553" stroke-linecap="round"/><path d="M239.88774,173.65379c-0.21055,-0.18114 1.17872,-4.7408 1.50056,-4.80829c0.28549,-0.0578 1.45821,1.55624 1.61622,2.04613c0.15048,0.46689 0.88129,1.12647 0.74025,1.6016c-0.0551,0.1791 -0.92329,0.14034 -1.70734,0.37379c-0.78405,0.23345 -2.0441,0.87698 -2.1497,0.78678z" data-paper-data="{&quot;index&quot;:null}" fill="#ffffff" stroke="none" stroke-width="0.85185" stroke-linecap="butt"/><path d="M242.48339,182.00569c-0.27634,-0.68441 -0.01251,-1.52983 0.09579,-2.3192c0.08793,-0.64285 0.19262,-1.31819 0.4777,-1.88753c0.18681,-0.38014 0.56736,-0.63627 0.90141,-0.86584c0.24041,-0.14877 0.5337,-0.24575 0.81168,-0.29637c0.26926,-0.04672 0.4833,-0.02885 0.71874,0.00727c0.19684,0.02995 0.45471,-0.01321 0.4666,0.1797c0.15873,0.52262 0.03776,1.09567 -0.0336,1.63929c-0.16655,1.26713 -0.09763,2.7359 -0.70014,3.86846c-0.26731,0.50218 -0.98936,0.29385 -1.47831,0.24427c-0.45103,-0.06152 -1.06897,-0.09753 -1.25988,-0.57004z" data-paper-data="{&quot;index&quot;:null}" fill="#ffffff" stroke="none" stroke-width="0.97175" stroke-linecap="round"/><path d="M237.30275,178.9517c-0.27722,-0.41828 2.67011,0.80571 3.55296,1.72953c0.58387,0.61142 1.13984,0.98899 1.92895,1.2491c0.80159,0.27727 1.79892,0.35178 2.60372,0.07321c0.9102,-0.31505 2.2492,-0.32995 2.91829,0.32529c0.38321,0.3753 -0.1854,1.63493 -0.74407,1.87785c-0.94223,0.64999 -2.06363,0.80918 -2.8206,0.75731c-0.82916,-0.0875 -2.00958,-0.39143 -2.83973,-0.71019c-0.83015,-0.31876 -1.58163,-0.91155 -1.94639,-1.18359c-0.33047,-0.24673 -2.57972,-0.29129 -2.57972,-0.29129l0.65574,-0.74323l-1.42432,-1.19381c0,0 1.65284,-0.01303 1.54394,-0.1316c-0.58227,-0.63447 -0.97423,-1.15294 -0.97423,-1.15294c0,0 0.64534,0.47374 1.24873,0.26823c0.30588,-0.1036 -0.91302,-0.55725 -1.12326,-0.87386z" data-paper-data="{&quot;index&quot;:null}" fill="#f8f8f8" stroke="none" stroke-width="1" stroke-linecap="round"/><path d="M248.40961,182.3729c0.21352,0.15679 -0.54862,0.63028 -0.90316,0.57436c-0.35454,-0.05592 -0.76178,-0.71384 -0.51035,-0.79731c0.25143,-0.08347 0.29681,-0.15257 0.65134,-0.09665c0.35454,0.05593 0.54863,0.1628 0.76217,0.3196z" data-paper-data="{&quot;index&quot;:null}" fill="#101010" stroke="none" stroke-width="1" stroke-linecap="butt"/><path d="M244.37435,184.58233l-1.60861,-1.04133" data-paper-data="{&quot;index&quot;:null}" fill="none" stroke="#cccccc" stroke-width="0.36953" stroke-linecap="round"/><path d="M244.81762,179.49644c0.14227,-0.22042 0.30906,-0.34455 0.46848,-0.31941c0.15934,0.02513 0.27982,0.19458 0.34734,0.44809c0.06628,0.25444 0.07968,0.59184 0.02262,0.95357c-0.05705,0.36172 -0.17365,0.67863 -0.31501,0.90031c-0.14227,0.22043 -0.30905,0.34456 -0.46838,0.31943c-0.15944,-0.02514 -0.27992,-0.19459 -0.34744,-0.4481c-0.06618,-0.25442 -0.07968,-0.59184 -0.02262,-0.95357c0.05705,-0.36172 0.17375,-0.67862 0.31501,-0.90031z" fill="#4088ed" stroke="none" stroke-width="1.0615" stroke-linecap="butt"/><path d="M244.89542,179.79007c0.09313,-0.13737 0.204,-0.21383 0.31068,-0.19701c0.10668,0.01682 0.18854,0.12368 0.23487,0.28304c0.04684,0.15935 0.05756,0.37059 0.02192,0.5966c-0.03565,0.22601 -0.11086,0.42371 -0.2045,0.561c-0.09311,0.13727 -0.2039,0.21384 -0.31058,0.19702c-0.10668,-0.01683 -0.18862,-0.12379 -0.23497,-0.28306c-0.04682,-0.15945 -0.05754,-0.37069 -0.0219,-0.5967c0.03565,-0.22601 0.11087,-0.42371 0.20448,-0.5609z" fill="#000000" stroke="none" stroke-width="0.47368" stroke-linecap="butt"/><path d="M245.09722,179.92596c0.04087,-0.0557 0.09088,-0.0865 0.13948,-0.07883c0.0485,0.00764 0.08671,0.05234 0.10845,0.11793c0.02233,0.06577 0.02889,0.15256 0.01428,0.24521c-0.01463,0.09265 -0.04757,0.1732 -0.08906,0.22892c-0.04087,0.0557 -0.09098,0.08648 -0.13948,0.07883c-0.0486,-0.00767 -0.08671,-0.05234 -0.10845,-0.11793c-0.02233,-0.06578 -0.02899,-0.15258 -0.01438,-0.24523c0.01462,-0.09266 0.04766,-0.17319 0.08915,-0.22891z" fill="#ffffff" stroke="none" stroke-width="0.64678" stroke-linecap="butt"/><path d="M247.60481,179.91782c0.12638,-0.19601 0.27468,-0.30636 0.41633,-0.28401c0.14165,0.02235 0.24879,0.17297 0.30881,0.39837c0.05888,0.22613 0.07083,0.52595 0.0201,0.84758c-0.05071,0.32153 -0.15436,0.60322 -0.27999,0.80025c-0.12647,0.19589 -0.27477,0.30624 -0.41642,0.28389c-0.14166,-0.02235 -0.24879,-0.17297 -0.30873,-0.39826c-0.05888,-0.22613 -0.07082,-0.52605 -0.0201,-0.84758c0.05072,-0.32162 0.15436,-0.60322 0.27999,-0.80025z" fill="#4088ed" stroke="none" stroke-width="0.94355" stroke-linecap="butt"/><path d="M248.00782,180.02957c0.09483,0.01497 0.16761,0.10997 0.20885,0.25162c0.04154,0.14169 0.05119,0.32949 0.01952,0.53031c-0.03168,0.20091 -0.09867,0.37662 -0.1818,0.49866c-0.08283,0.12209 -0.18133,0.19007 -0.27616,0.17511c-0.09483,-0.01497 -0.16771,-0.10998 -0.20885,-0.25162c-0.04154,-0.14169 -0.05119,-0.32949 -0.01951,-0.53041c0.03167,-0.20081 0.09866,-0.37652 0.18179,-0.49856c0.08273,-0.1221 0.18133,-0.19007 0.27616,-0.17511z" fill="#000000" stroke="none" stroke-width="0.42105" stroke-linecap="butt"/><path d="M248.06792,180.26067c0.04316,0.00682 0.07699,0.04646 0.09633,0.10489c0.01993,0.05843 0.02579,0.13558 0.01281,0.21786c-0.01299,0.08238 -0.04231,0.154 -0.07926,0.20344c-0.03637,0.04963 -0.08077,0.07695 -0.12393,0.07014c-0.04316,-0.00681 -0.07709,-0.04647 -0.09643,-0.1049c-0.01984,-0.05842 -0.0257,-0.13557 -0.0127,-0.21795c0.01298,-0.08228 0.04229,-0.15389 0.07915,-0.20335c0.03637,-0.04964 0.08087,-0.07694 0.12403,-0.07013z" fill="#ffffff" stroke="none" stroke-width="0.57492" stroke-linecap="butt"/><path d="M251.03677,170.74137c0,0 -0.1359,1.0146 -0.47298,1.78472c-0.33708,0.77012 -1.0681,1.83761 -1.22065,1.81355c-0.29758,-0.04692 -1.75832,-1.10561 -1.75832,-1.10561z" fill="#ffffff" stroke="none" stroke-width="0" stroke-linecap="butt"/><path d="M247.44289,175.402l2.41114,1.79185l0.3332,3.23972l-1.0001,-2.49363l-2.18302,-2.0453z" fill="#f8b820" stroke="none" stroke-width="1.22222" stroke-linecap="round"/><path d="M247.67944,174.58287c0,0 2.75301,0.45889 2.99853,0.6606c0.35003,0.28754 1.06812,3.04607 1.06812,3.04607l-1.85751,-2.34324l-2.33294,-0.55z" fill="#f8b820" stroke="none" stroke-width="1.22222" stroke-linecap="round"/><path d="M247.18057,173.36144c0,0 3.09666,-0.40731 3.49185,-0.33804c0.65181,0.11427 3.34318,2.42714 3.34318,2.42714c0,0 -3.08679,-1.29188 -4.05606,-1.47201c-0.96928,-0.18014 -2.49325,0.25488 -2.49325,0.25488z" fill="#f8b820" stroke="none" stroke-width="1.22222" stroke-linecap="round"/></g><g data-paper-data="{&quot;index&quot;:null}"><g><path d="M231.29603,185.34599c0,0 -2.06707,3.09808 -2.32719,4.00707c-0.3649,1.27498 -0.38047,4.54369 -0.38047,4.54369c0,0 -0.62559,0.20157 -0.58158,-1.0435c0.0255,-0.72111 0.29692,-2.48107 0.65782,-3.63186c0.43262,-1.37951 1.80668,-3.86843 1.80668,-3.86843l0.82475,-0.00697z" fill="#989898" stroke="#989898" stroke-width="0" stroke-linecap="round"/><path d="M232.54358,187.1941c0.14061,0.85037 -0.27899,3.06426 -0.27899,3.06426l-2.95639,-1.87341c0,0 0.69852,-1.74522 1.36214,-2.63517c0.3154,-0.4227 0.7172,-0.61327 1.30361,0.01271c0.41251,0.44035 0.47711,0.87698 0.56964,1.43162z" fill="#f82020" stroke="none" stroke-width="1.13968" stroke-linecap="round"/><path d="M229.36209,188.3109c0,0 2.76906,0.50694 2.91519,1.81051c0.07432,0.73224 -0.93329,2.68291 -1.41687,3.19592c-0.48667,0.51591 -1.71725,0.73982 -2.30061,0.63829c-0.34266,-0.05958 -0.25137,-0.80654 -0.21957,-1.2448c0.08073,-1.09296 0.31252,-2.38219 0.58328,-3.33887c0.27076,-0.9567 0.4386,-1.06105 0.4386,-1.06105z" fill="#f8f8f8" stroke="none" stroke-width="1.15102" stroke-linecap="round"/><path d="M234.3611,187.44557c-0.02378,0.36707 -0.0045,2.12807 -0.28288,2.60443c-0.21459,0.36721 -0.80272,-0.16269 -0.80272,-0.16269c0,0 -0.59513,0.20013 -0.71824,0.19216c-0.46411,-0.03007 -0.12659,-1.3304 -0.06927,-2.2151c0.01147,-0.17693 -0.20101,-1.04975 -0.1054,-1.55549c0.0569,-0.30097 0.06338,-0.58333 0.46408,-0.79556c0.41269,-0.2186 0.54866,0.41187 0.54866,0.41187c0,0 0.43242,-0.64435 0.92414,-0.11095c0.43289,0.46959 0.06933,1.20363 0.04162,1.63134z" fill="#ffffff" stroke="none" stroke-width="0" stroke-linecap="butt"/></g><path d="M231.99639,188.17091c0.08927,-1.37782 0.0358,-2.39157 0.38474,-2.36897c0.12719,0.00824 0.16152,1.07642 0.07225,2.45424c-0.08927,1.37782 -0.01785,2.11438 -0.14503,2.10614c-0.34894,-0.02261 -0.40123,-0.8136 -0.31196,-2.19142z" fill="#424242" stroke="none" stroke-width="0" stroke-linecap="butt"/></g><path d="M243.97896,169.71451l-0.9279,0.86949l-1.40451,-0.90381c0,0 -0.1127,1.90231 -0.75741,1.73602c-0.15704,-0.0405 -1.25237,-0.64987 -1.25237,-0.64987l-1.21248,1.06651l-1.08406,-1.38864l-1.87561,3.02602c0,0 0.30954,-2.76102 1.31923,-4.80704c0.7942,-1.60935 1.68997,-2.86654 2.43442,-2.67453c0.76373,0.19698 1.97359,0.76845 2.91789,1.56593c1.14634,0.96812 1.84281,2.15995 1.84281,2.15995z" data-paper-data="{&quot;index&quot;:null}" fill="#23d892" stroke="none" stroke-width="0" stroke-linecap="butt"/><path d="M245.49167,172.60217c-2.73046,0.01318 -1.68306,0.23484 -3.60559,0.44874c-1.70766,0.18998 -3.05545,1.33967 -3.93493,0.81902c-0.41374,-0.24494 0.0961,-1.22828 0.0961,-1.22828l-0.13842,-1.6284l0.79008,0.82963l0.48689,-1.51259l1.69405,0.94961c0,0 0.17832,-0.59071 0.25856,-0.96279c0.08024,-0.37208 0.15666,-0.96267 0.15666,-0.96267l1.89508,1.15172l0.24064,-1.32492c0,0 0.6577,0.77262 1.14868,1.38202c0.48785,0.6055 1.50058,2.03605 0.91221,2.0389z" data-paper-data="{&quot;index&quot;:null}" fill="#fd0000" stroke="none" stroke-width="0" stroke-linecap="butt"/><g data-paper-data="{&quot;index&quot;:null}" stroke-width="0" stroke-linecap="butt"><path d="M235.57144,174.61698c-0.47779,-0.04309 -0.83018,-0.46535 -0.78709,-0.94314c0.04309,-0.47779 0.46535,-0.83018 0.94314,-0.78709c0.47779,0.04309 0.83018,0.46535 0.78709,0.94314c-0.04309,0.47779 -0.46535,0.83018 -0.94314,0.78709z" fill="#db7b04" stroke="none"/><path d="M234.70097,173.63544c0.02513,-0.27867 0.51077,-0.19587 0.9729,-0.15419c0.46211,0.04168 0.91836,0.13042 0.89581,0.38047c-0.01481,0.16418 -0.46521,0.01073 -0.92734,-0.03095c-0.46213,-0.04169 -0.95619,-0.03114 -0.94138,-0.19532z" fill="#feeb00" stroke="#000000"/><path d="M235.52874,174.54213c0.01627,-0.18042 0.0972,-0.5803 0.18741,-0.57217c0.09021,0.00814 0.28531,-0.0577 0.26904,0.12272c-0.01628,0.18042 -0.18051,0.54392 -0.27072,0.53579c-0.09021,-0.00813 -0.20201,0.09409 -0.18574,-0.08633z" fill="#000000" stroke="none"/><path d="M235.12147,174.15424c-0.01141,0.12648 -0.05652,0.19692 -0.10396,0.19264c-0.04744,-0.00428 -0.12097,-0.25858 -0.10956,-0.38506c0.0114,-0.12648 0.10086,-0.04862 0.14829,-0.04435c0.04744,0.00429 0.07664,0.11029 0.06523,0.23677z" fill="#000000" stroke="none"/></g></g></g></svg>