<svg version="1.1" xmlns="http://www.w3.org/2000/svg" xmlns:xlink="http://www.w3.org/1999/xlink" width="25.67861" height="38.61678" viewBox="0,0,25.67861,38.61678"><defs><radialGradient cx="239.89178" cy="196.41271" r="9.35088" gradientUnits="userSpaceOnUse" id="color-1"><stop offset="0" stop-color="#d6feff" stop-opacity="0"/><stop offset="1" stop-color="#d6feff" stop-opacity="0.14902"/></radialGradient></defs><g transform="translate(-230.00326,-163.16863)"><g data-paper-data="{&quot;isPaintingLayer&quot;:true}" fill-rule="nonzero" stroke-linejoin="miter" stroke-miterlimit="10" stroke-dasharray="" stroke-dashoffset="0" style="mix-blend-mode: normal"><g data-paper-data="{&quot;index&quot;:null}"><g><g><path d="M245.15786,186.06823c-0.25857,-0.48304 -0.05832,-1.21118 -0.06838,-2.04848c-0.00751,-0.62467 0.54253,-1.15991 0.96809,-1.38771c0.90859,-0.48639 1.97586,-0.72837 2.46223,0.18023c0.16049,0.29983 0.54627,0.89024 0.91705,1.44632c0.36576,0.54856 0.51419,1.00165 0.22392,1.19263c-0.37295,0.24539 -0.58688,-0.0096 -0.58688,-0.0096c0,0 0.00882,0.40657 -0.17256,0.51941c-0.18138,0.1128 -0.63986,-0.01471 -0.63986,-0.01471c0,0 -0.06435,0.37004 -0.28259,0.50931c-0.21824,0.13925 -0.50356,-0.00592 -0.50356,-0.00592c0,0 0.00726,0.35877 -0.27796,0.51624c-0.28525,0.15746 -0.53455,-0.14381 -0.53455,-0.14381c0,0 0.13025,0.26467 -0.04976,0.37554c-0.18,0.11087 -0.04357,0.02356 -0.17178,0.02946c-0.10564,0.00487 -1.14732,-0.90469 -1.2834,-1.15891z" fill="#fdfdfd" stroke="none" stroke-width="0" stroke-linecap="butt"/><path d="M246.67522,186.97631c0,0 -0.01165,-0.46904 -0.17198,-0.81697c-0.16035,-0.34794 -0.53,-0.66127 -0.48834,-0.84282c0.08804,-0.38378 0.66351,-0.70037 0.66351,-0.70037" fill="none" stroke="#a4a4a4" stroke-width="0.125" stroke-linecap="round"/></g><path d="M246.45101,182.80594c-0.33689,0.14917 -1.46267,0.69394 -1.61014,0.43672c-0.1213,-0.25803 0.04005,-0.65043 0.04005,-0.65043c0,0 -0.43962,0.02491 -0.51814,-0.23925c-0.10189,-0.34273 0.67642,-0.93094 1.13716,-1.16794c0.46075,-0.237 1.05448,-0.37315 1.32454,-0.23186c0.68078,0.35618 0.27417,0.58497 0.27417,0.58497c0,0 0.44119,-0.21066 0.64164,0.41232c0.09876,0.30695 -0.91064,0.68784 -1.28927,0.8555z" fill="#fdfdfd" stroke="none" stroke-width="0" stroke-linecap="butt"/></g><path d="M240.63608,179.58637c-0.10174,-0.5538 -0.32252,-0.41478 0.137,-0.67899c0.45953,-0.2642 2.91246,-1.04535 2.91246,-1.04535l2.20598,3.30941l-0.90659,0.47342l-1.75939,-2.5337l-1.85862,0.71187c0,0 -0.6291,0.31712 -0.73083,-0.23667z" data-paper-data="{&quot;index&quot;:null}" fill="#fec267" stroke="none" stroke-width="0" stroke-linecap="butt"/></g><path d="M232.84751,200.78541c0,0 -1.33875,-1.63529 -1.84425,-2.03933c-0.5055,-0.40404 1.01086,-1.57974 1.71338,-2.21706c1.87438,-1.70042 8.43051,-2.69954 11.84489,-3.28845c2.52755,-0.43595 3.22542,0.03066 3.55018,0.00727c0.95025,-0.06846 2.22805,2.19384 1.88731,2.69766c-0.05807,0.08585 -2.83299,2.05857 -4.3639,2.64272c-2.45202,0.9356 -5.06411,2.52648 -6.4773,2.61172c-2.2034,0.13291 -6.3103,-0.41453 -6.3103,-0.41453z" data-paper-data="{&quot;index&quot;:null}" fill="url(#color-1)" stroke-opacity="0.25098" stroke="#313040" stroke-width="2" stroke-linecap="butt"/><path d="M243.01371,178.07734c0,0 1.84065,-0.02037 2.74947,2.59643c0.4842,1.39415 0.44609,5.00345 0.44609,5.00345c0,0 -1.30085,-2.17654 -2.34463,-3.45712c-1.04379,-1.28057 -2.83797,-2.03778 -2.18104,-2.09528c0.65693,-0.05751 1.33011,-2.04747 1.33011,-2.04747z" data-paper-data="{&quot;index&quot;:null}" fill="#02124a" stroke="none" stroke-width="0" stroke-linecap="butt"/><path d="M245.3825,191.24717l-3.76734,-7.47737l1.42757,-0.64944c0,0 0.30748,1.46385 1.00231,2.95348c0.6948,1.48963 2.07505,3.64416 2.07505,3.64416z" data-paper-data="{&quot;index&quot;:null}" fill="#033397" stroke="none" stroke-width="0" stroke-linecap="butt"/><g data-paper-data="{&quot;index&quot;:null}" stroke="none" stroke-width="0" stroke-linecap="butt"><path d="M238.22607,196.8047c0,0 -0.45534,-2.81891 3.72252,-3.92817c4.8336,-1.82211 5.54375,-1.32394 5.86859,-0.82513c0.82328,1.26417 0.96295,2.71796 0.96295,2.71796c0,0 -0.73192,0.52999 -1.2742,0.87276c-0.22928,0.14491 -1.13911,0.53956 -1.13911,0.53956l-0.10753,-0.39126l-1.32321,0.37644l0.05496,0.55691c0,0 -1.58678,0.47161 -2.2775,0.60291c-3.17414,0.60344 -4.48749,-0.52199 -4.48749,-0.52199z" fill="#e90023"/><path d="M238.27917,196.8019l0.32916,-1.20248l1.74659,0.38364l0.645,0.96169l-1.03158,0.95688l0.08538,-0.75864l-0.7451,-0.1878l-0.98327,0.24032l-0.04623,-0.39359z" fill="#948a92"/><path d="M244.91757,196.22537c0,0 -0.21872,-1.17299 -0.16577,-2.28137c0.05618,-1.17592 0.50822,-2.1495 0.50822,-2.1495l1.4232,-0.02145l0.11505,1.23631c0,0 -0.37822,0.89705 -0.47613,1.51525c-0.09792,0.61819 -0.05348,1.20917 -0.05348,1.20917z" fill="#deca55"/><path d="M238.35681,197.25515l-0.29523,-0.29539l0.24395,-1.3287l0.88023,-1.39687l2.10384,0.82739l0.70026,1.76274l2.90987,-1.36144l0.12724,1.28693l-3.33256,1.30826l-1.83338,-0.16236l0.19026,-1.30735l-1.373,-0.64169z" fill="#edeeee"/><g><path d="M238.60516,196.67112c0.17994,-0.29477 0.60781,-0.4034 0.99305,-0.20529c0.38524,0.19813 0.46075,0.59768 0.28081,0.89246c-0.17994,0.29477 -0.49562,0.34232 -0.93245,0.2053c-0.30686,-0.09625 -0.52135,-0.59769 -0.34141,-0.89247z" fill="#ece09c"/><path d="M238.8365,197.58213c-0.25681,-0.13209 -0.36778,-0.51968 -0.24781,-0.71619c0.11996,-0.1965 0.48599,-0.27905 0.74282,-0.14696c0.22651,0.10179 0.59229,0.40972 0.45993,0.68589c-0.12617,0.26326 -0.63752,0.36995 -0.95495,0.17726z" fill="#000000"/></g><path d="M244.76285,194.62867c0,0 -0.03494,-0.32519 -0.02531,-0.51055c0.01151,-0.22164 0.08976,-0.73001 0.08976,-0.73001l0.51487,2.69101l-0.34611,0.1418c0,0 -0.12757,-0.51719 -0.16603,-0.77978c-0.03926,-0.26805 -0.06716,-0.81247 -0.06716,-0.81247z" fill="#6a2625"/><path d="M248.52022,193.68765l0.13297,0.61075c0,0 -0.94701,0.66912 -1.04705,0.20962c-0.10005,-0.4595 0.91408,-0.82038 0.91408,-0.82038z" fill="#eac763"/><path d="M243.7863,192.12671c-0.01497,-0.4895 0.35116,-0.98715 0.35116,-0.98715c0,0 -0.50604,-0.27488 -0.47003,-0.74345c0.04672,-0.60792 1.19873,-0.97097 1.82837,-1.01218c0.62963,-0.04123 1.36135,0.16995 1.59854,0.58337c0.59792,1.04214 0.03299,1.10918 0.03299,1.10918c0,0 0.59525,-0.01403 0.52747,1.10187c-0.03341,0.54986 -1.16369,0.62697 -2.00902,0.61569c-0.84533,-0.01127 -1.81472,-0.16038 -1.85947,-0.66733z" fill="#fdfdfd"/></g><path d="M242.81297,183.97985l1.1217,-1.38555c0,0 0.08492,0.9567 0.61634,1.51203c0.63797,0.66668 2.95054,2.21543 2.95054,2.21543c0,0 -2.27601,-0.32473 -3.34475,-0.85857c-1.06875,-0.53384 -1.34382,-1.48334 -1.34382,-1.48334z" data-paper-data="{&quot;index&quot;:null}" fill="#02124a" stroke="none" stroke-width="0" stroke-linecap="butt"/><path d="M242.86204,184.14931c-1.30273,0.49087 -3.18371,-0.42255 -3.74777,-1.91957c-0.56407,-1.49701 -0.58657,-3.25245 0.71617,-3.7433c1.30274,-0.49087 3.03504,-1.97883 3.59909,-0.48182c0.33712,0.89471 0.02032,2.51453 0.27939,3.51992c0.46453,1.80279 -0.07065,2.33229 -0.84688,2.62476z" data-paper-data="{&quot;index&quot;:null}" fill="#033397" stroke="none" stroke-width="0" stroke-linecap="butt"/><path d="M238.8732,181.96613c-0.57621,-1.40386 -0.18334,-1.80112 0.19768,-2.67367c0.19319,-0.44243 1.37623,-0.67451 2.30332,0.03004c0.8556,0.65024 1.3514,4.21405 0.2503,4.48971c-1.22696,0.30715 -2.34325,-0.85192 -2.7513,-1.84607z" data-paper-data="{&quot;index&quot;:null}" fill="#fec267" stroke="none" stroke-width="0" stroke-linecap="butt"/><path d="M240.20698,191.93419l2.00748,-8.93372l1.46758,0.31663c0,0 -0.54817,1.53515 -0.99596,3.27796c-0.44778,1.74281 -0.77305,4.51246 -0.77305,4.51246z" data-paper-data="{&quot;index&quot;:null}" fill="#033397" stroke="none" stroke-width="0" stroke-linecap="butt"/><g data-paper-data="{&quot;index&quot;:null}" stroke="none" stroke-width="0" stroke-linecap="butt"><path d="M232.77705,197.57769c0,0 -0.3071,-3.00372 4.17142,-3.91746c5.21462,-1.62587 5.93361,-1.05627 6.2458,-0.50971c0.79122,1.38516 0.84915,2.92841 0.84915,2.92841c0,0 -0.80525,0.5144 -1.3988,0.84285c-0.25097,0.13885 -1.23569,0.49944 -1.23569,0.49944l-0.08941,-0.41964l-1.41998,0.31591l0.02374,0.59126c0,0 -1.70406,0.40013 -2.44129,0.49622c-3.38784,0.44156 -4.70495,-0.82731 -4.70495,-0.82731z" fill="#e90023"/><path d="M232.8333,197.57795l0.42151,-1.24909l1.82011,0.51251l0.62165,1.05489l-1.14787,0.94659l0.13683,-0.79558l-0.77498,-0.24411l-1.05276,0.19315l-0.02458,-0.41832z" fill="#948a92"/><path d="M239.87637,197.37808c0,0 -0.15867,-1.2517 -0.03453,-2.41846c0.1317,-1.23787 0.66883,-2.23776 0.66883,-2.23776l1.50368,0.06499l0.04533,1.31217c0,0 -0.45447,0.92365 -0.5959,1.5702c-0.14143,0.64655 -0.1309,1.27314 -0.1309,1.27314z" fill="#deca55"/><path d="M232.88732,198.0612l-0.29346,-0.33l0.33932,-1.38758l1.0152,-1.42037l2.16991,1.00295l0.63069,1.9039l3.15553,-1.258l0.05509,1.36634l-3.59847,1.17586l-1.92536,-0.28426l0.28133,-1.36835l-1.40985,-0.76191z" fill="#edeeee"/><g><path d="M233.18542,197.45999c0.2081,-0.30009 0.66646,-0.3884 1.06093,-0.15557c0.39446,0.23288 0.44957,0.65929 0.24147,0.95939c-0.20809,0.30007 -0.54426,0.33084 -0.99694,0.15931c-0.31801,-0.12049 -0.51355,-0.66302 -0.30545,-0.96312z" fill="#ece09c"/><path d="M233.37356,198.43592c-0.26298,-0.15525 -0.35624,-0.57123 -0.2175,-0.77128c0.13874,-0.20005 0.5302,-0.26465 0.79318,-0.10941c0.23284,0.12141 0.6,0.46898 0.44328,0.75236c-0.14939,0.27014 -0.69575,0.3513 -1.01897,0.12833z" fill="#000000"/></g><path d="M239.81135,195.68307c0,0 -0.01688,-0.34543 0.00471,-0.5405c0.0258,-0.23326 0.13971,-0.7651 0.13971,-0.7651l0.37783,2.87239l-0.37409,0.12838c0,0 -0.10282,-0.5538 -0.12725,-0.83337c-0.02495,-0.28538 -0.02088,-0.8618 -0.02088,-0.8618z" fill="#6a2625"/><path d="M243.83566,194.92104l0.10276,0.6529c0,0 -1.04088,0.64805 -1.11819,0.15681c-0.07732,-0.49121 1.01543,-0.80972 1.01543,-0.80972z" fill="#eac763"/><path d="M238.93453,192.9818c0.01433,-0.51764 0.43147,-1.02042 0.43147,-1.02042c0,0 -0.51727,-0.32131 -0.45041,-0.81374c0.08674,-0.63885 1.32518,-0.95116 1.99237,-0.9559c0.66719,-0.00476 1.42662,0.26322 1.65154,0.71424c0.56703,1.13693 -0.03345,1.17292 -0.03345,1.17292c0,0 0.62922,0.02184 0.48897,1.19563c-0.06912,0.57838 -1.267,0.5902 -2.15866,0.52624c-0.89167,-0.06393 -1.90579,-0.28103 -1.92181,-0.81894z" fill="#fdfdfd"/></g><g data-paper-data="{&quot;index&quot;:null}"><g fill="#033397" stroke-width="0"><path d="M235.68652,173.92438c-0.39771,-2.90806 1.63732,-5.58791 4.54538,-5.98562c2.90806,-0.39771 5.5879,1.63733 5.98561,4.54539c0.39771,2.90806 -1.63732,5.5879 -4.54538,5.98561c-2.90806,0.39771 -5.5879,-1.63732 -5.98561,-4.54538z" stroke="none" stroke-linecap="butt"/><path d="M235.48899,173.12942c0,0 -0.36934,-7.1682 8.15039,-9.52789c5.85374,-1.64906 10.17979,1.94467 10.17979,1.94467c0,0 -1.56928,0.08893 -2.83156,0.63548c-1.03929,0.45 -2.13244,1.549 -2.13244,1.549c0,0 2.82726,0.79626 4.72415,3.63882c2.20171,3.29935 2.10186,6.37686 2.10186,6.37686c0,0 -1.98172,-1.80248 -3.46717,-2.55202c-0.89325,-0.45073 -2.69721,-0.68592 -2.69721,-0.68592c0,0 1.37487,1.74326 1.77637,4.00829c0.47386,2.67317 -0.31692,4.30012 -0.31692,4.30012c0,0 -1.64706,-2.88957 -3.41075,-4.09571c-1.7637,-1.20613 -3.94058,-0.93164 -3.94058,-0.93164" stroke="#000000" stroke-linecap="round"/></g><path d="M240.58607,167.977c0,0 1.44586,-1.55866 2.51808,-2.42446c1.07224,-0.8658 1.22794,-0.91935 1.50598,-0.79548c0.27053,0.12053 0.37208,1.34692 0.4853,2.24614c0.11322,0.89923 0.04403,1.95791 0.04403,1.95791" fill="#033397" stroke="#000000" stroke-width="0.125" stroke-linecap="round"/><path d="M235.73197,172.30089c0,0 -1.05208,-1.42906 -1.41891,-2.16903c-0.32054,-0.64657 -0.94889,-1.94657 -0.662,-2.0285c0.23941,-0.06837 1.24938,0.22625 1.78563,0.26938c0.58429,0.047 1.58837,0.00202 1.58837,0.00202" fill="#033397" stroke="#000000" stroke-width="0" stroke-linecap="round"/><path d="M235.62641,172.18142c0,0 0.5181,1.2926 0.9303,2.08091c0.41219,0.78831 0.41854,0.81548 0.77762,1.27527c0.11438,0.14649 0.2415,-0.04054 0.2415,-0.04054c0,0 0.47282,0.48584 0.67671,0.20478c0.73459,-0.523 0.70112,-2.45909 1.34487,-3.62893c0.6511,-1.18327 1.44383,-1.41978 1.81027,-1.51533c0.31514,-0.08217 1.04685,-0.02946 1.55616,0.68024c0.36908,0.61248 0.66275,2.05944 0.33665,2.94686c-0.3261,0.88742 -0.82303,1.90335 -2.00783,2.32882c-1.18479,0.42549 -2.46516,-0.75682 -3.5361,-0.34256c-0.13205,0.05106 -0.78415,0.69996 -0.78415,0.69996c0,0 -0.94277,-1.4287 -1.23964,-2.46304c-0.29689,-1.03436 -0.10635,-2.22647 -0.10635,-2.22647z" fill="#fdfdfd" stroke="#000000" stroke-width="0" stroke-linecap="butt"/><path d="M237.05237,177.01936c-0.02308,-0.24194 0.16428,-0.77988 0.99946,-0.97209c0.64612,-0.15879 1.73403,0.47843 2.70198,0.38566c1.45435,-0.13939 1.68021,-1.98716 3.38024,-1.74311c1.36619,0.17452 1.12141,3.17441 -2.70661,3.79885c-0.9186,0.10118 -2.22965,-0.1034 -3.01243,-0.39895c-0.95317,-0.35987 -1.32526,-0.67868 -1.36264,-1.07037z" fill="#fec267" stroke="#000000" stroke-width="0" stroke-linecap="butt"/><path d="M235.43161,173.39857c0,0 -0.71156,-1.93867 -0.62299,-2.27449c0.13523,-0.51282 0.96327,-0.06201 0.96327,-0.06201" fill="#033397" stroke="#000000" stroke-width="0.125" stroke-linecap="round"/><path d="M235.65438,176.16259c0.02871,-0.14182 0.6668,0.0635 1.14659,0.1537c0.47978,0.0902 1.13577,0.07462 1.16743,0.3061c0.0525,0.38386 -0.68749,0.46233 -1.22603,0.40055c-0.85281,-0.09785 -1.18212,-0.39534 -1.08798,-0.86033z" fill="#0d1114" stroke="none" stroke-width="0" stroke-linecap="butt"/><path d="M236.67124,176.28386c0.23356,0.01132 0.41985,0.08361 0.41608,0.16147c-0.00377,0.07785 -0.19619,0.13181 -0.42974,0.12048c-0.23356,-0.01132 -0.41985,-0.08361 -0.41608,-0.16147c0.00377,-0.07785 0.19619,-0.13181 0.42974,-0.12048z" fill="#fdfdfd" stroke="none" stroke-width="0" stroke-linecap="butt"/><path d="M241.63958,167.78301c0,0 1.79019,-1.94523 2.49949,-1.8613c0.49434,0.0585 0.32751,3.08912 0.32751,3.08912c0,0 -0.14614,-0.41593 -1.26214,-0.8024c-1.02027,-0.3533 -1.56485,-0.42542 -1.56485,-0.42542z" fill="#fec267" stroke="none" stroke-width="0" stroke-linecap="butt"/><g stroke="none" stroke-width="0" stroke-linecap="butt"><path d="M239.66864,172.78624c0.30071,-0.09001 0.58482,0.4772 0.80586,1.21565c0.22104,0.73843 0.29532,1.36845 -0.0054,1.45848c-0.27066,0.08101 -0.58482,-0.47719 -0.80586,-1.21564c-0.22104,-0.73843 -0.26528,-1.37745 0.0054,-1.45848z" fill="#005c2d"/><path d="M239.89353,173.53739c0.10786,-0.03228 0.26778,0.18368 0.35719,0.48238c0.08941,0.29871 0.07445,0.56701 -0.03341,0.5993c-0.10786,0.03228 -0.26778,-0.18368 -0.35719,-0.48237c-0.08941,-0.29871 -0.07445,-0.56702 0.03341,-0.5993z" fill="#000000"/><path d="M239.83054,173.32708c0.10786,-0.03227 0.2376,0.08279 0.28975,0.25704c0.05214,0.17422 0.00699,0.34165 -0.10087,0.37396c-0.10786,0.03227 -0.2376,-0.08279 -0.28974,-0.25704c-0.05214,-0.17422 -0.007,-0.34165 0.10087,-0.37396z" fill="#ffffff"/></g><g stroke="none" stroke-width="0" stroke-linecap="butt"><path d="M236.07693,174.25574c0.19364,-0.09089 0.44214,0.2629 0.66532,0.73841c0.22319,0.47552 0.33655,0.89271 0.14291,0.98359c-0.17428,0.0818 -0.44214,-0.2629 -0.66532,-0.73841c-0.22319,-0.47552 -0.3172,-0.9018 -0.14291,-0.98359z" fill="#005c2d"/><path d="M236.30396,174.73945c0.06946,-0.0326 0.19895,0.0969 0.28923,0.28925c0.09027,0.19234 0.10716,0.3747 0.0377,0.40729c-0.06946,0.0326 -0.19895,-0.0969 -0.28923,-0.28925c-0.09027,-0.19234 -0.10716,-0.3747 -0.0377,-0.40729z" fill="#000000"/><path d="M236.24042,174.60402c0.06946,-0.0326 0.16844,0.03193 0.22112,0.14414c0.05267,0.1122 0.03905,0.2296 -0.03041,0.2622c-0.06946,0.0326 -0.16844,-0.03193 -0.22112,-0.14413c-0.05267,-0.1122 -0.03905,-0.2296 0.03041,-0.2622z" fill="#ffffff"/></g><path d="M242.87966,177.2224c-0.49445,0.1917 -1.49637,0.30452 -1.49637,0.30452c0,0 0.82774,-0.22797 1.26501,-0.39751c0.43727,-0.16954 0.93203,-0.70936 0.93203,-0.70936c0,0 -0.20623,0.61065 -0.70067,0.80235z" fill="#000000" stroke="#000000" stroke-width="0" stroke-linecap="butt"/><path d="M236.90121,173.19809c0.18473,-0.02525 0.61366,1.24841 0.69324,1.83028c0.07958,0.58187 -0.2347,0.52614 -0.2347,0.52614c0,0 -0.31439,-0.39659 -0.47556,-0.66082c-0.16116,-0.26421 -0.3589,-0.70718 -0.3589,-0.70718c0,0 0.19118,-0.96313 0.3759,-0.9884z" fill="#033397" stroke="none" stroke-width="0" stroke-linecap="butt"/></g><g data-paper-data="{&quot;index&quot;:null}" stroke="none" stroke-width="0" stroke-linecap="butt"><path d="M242.93067,178.94403c0.14802,0.50899 0.3268,3.07708 0.3268,3.07708l-3.7373,1.36058l-0.24553,-0.99282l2.87795,-1.11017l-0.25203,-1.97428c0,0 -0.15932,-0.68624 0.40283,-0.65409c0.56212,0.03214 0.47928,-0.21526 0.62729,0.29372z" data-paper-data="{&quot;index&quot;:null}" fill="#fec267"/><g data-paper-data="{&quot;index&quot;:null}" fill="#fdfdfd"><g><path d="M235.06454,181.55814c0.51759,-0.17974 1.2054,0.13207 2.03391,0.25326c0.61816,0.09042 1.06063,0.71749 1.21898,1.17349c0.33809,0.97356 0.40994,2.06554 -0.56363,2.40362c-0.32126,0.11158 -0.96479,0.40012 -1.57209,0.67923c-0.59908,0.27538 -1.06981,0.35099 -1.21298,0.03439c-0.18395,-0.40679 0.10139,-0.57815 0.10139,-0.57815c0,0 -0.40295,-0.055 -0.48598,-0.25177c-0.08303,-0.19681 0.11472,-0.62966 0.11472,-0.62966c0,0 -0.35543,-0.12149 -0.45878,-0.35885c-0.10336,-0.23737 0.08468,-0.49643 0.08468,-0.49643c0,0 -0.35547,-0.04901 -0.46633,-0.3554c-0.11084,-0.30637 0.22576,-0.50542 0.22576,-0.50542c0,0 -0.2818,0.08719 -0.36312,-0.10796c-0.08131,-0.19515 -0.01646,-0.04673 -0.00219,-0.17429c0.01176,-0.10509 1.07321,-0.99148 1.34562,-1.08607z"/></g><path d="M238.08405,183.34627c-0.09458,-0.35608 -0.45634,-1.5533 -0.17918,-1.65866c0.27384,-0.07941 0.63614,0.14141 0.63614,0.14141c0,0 0.04423,-0.43808 0.31743,-0.47428c0.35448,-0.04697 0.81354,0.81384 0.97544,1.30603c0.1619,0.49219 0.20342,1.09991 0.02155,1.34452c-0.45838,0.61661 -0.62069,0.17918 -0.62069,0.17918c0,0 0.13897,0.46875 -0.5077,0.56914c-0.31864,0.04946 -0.53674,-1.00713 -0.64304,-1.40733z"/></g></g></g></g></svg>