<svg version="1.1" xmlns="http://www.w3.org/2000/svg" xmlns:xlink="http://www.w3.org/1999/xlink" width="4.52365" height="10.72235" viewBox="0,0,4.52365,10.72235"><g transform="translate(-238.55382,-184.05818)"><g data-paper-data="{&quot;isPaintingLayer&quot;:true}" fill-rule="nonzero" stroke-linejoin="miter" stroke-miterlimit="10" stroke-dasharray="" stroke-dashoffset="0" style="mix-blend-mode: normal"><g><path d="M240.7724,186.21987c0.03823,1.01656 -0.05737,2.60701 -0.05737,2.60701l-0.75748,0.4034c0,0 -0.08545,-2.44375 -0.1157,-3.3429c-0.02808,-0.83478 0.02496,-1.53427 0.02496,-1.53427l0.68166,-0.29493c0,0 0.18571,1.14512 0.22393,2.16168z" fill="#f8b820" stroke="none" stroke-width="0" stroke-linecap="butt"/><g><path d="M238.68191,190.69526c0.4713,-1.68431 1.78025,-2.7215 2.12706,-2.77583c1.05929,-0.16593 2.82401,1.86195 2.09828,3.85805c-0.59918,1.648 -1.07454,2.66747 -2.38456,2.99716c-0.47285,0.12494 -2.49187,-1.75261 -1.84078,-4.07939z" fill="#ffffff" stroke="none" stroke-width="0" stroke-linecap="butt"/><path d="M240.68581,189.25596l0.95305,-0.33585" fill="none" stroke="#808080" stroke-width="0.5" stroke-linecap="round"/><path d="M241.31767,190.63083l0.76387,-0.23115" fill="none" stroke="#808080" stroke-width="0.5" stroke-linecap="round"/><path d="M241.4605,191.84515l0.76744,-0.13733" fill="none" stroke="#808080" stroke-width="0.5" stroke-linecap="round"/><path d="M241.41416,193.16419l0.57826,-0.03262" fill="none" stroke="#808080" stroke-width="0.5" stroke-linecap="round"/><path d="M240.7393,188.12461c0,0 0.89728,1.59941 1.1267,2.71815c0.22942,1.11874 -0.23765,2.87351 -0.23765,2.87351" fill="none" stroke="#020202" stroke-width="0.25" stroke-linecap="round"/></g></g></g></g></svg>