<svg version="1.1" xmlns="http://www.w3.org/2000/svg" xmlns:xlink="http://www.w3.org/1999/xlink" width="240.65984" height="23.70219" viewBox="0,0,240.65984,23.70219"><g transform="translate(-119.67008,-168.14891)"><g data-paper-data="{&quot;isPaintingLayer&quot;:true}" fill="#ffffff" fill-rule="nonzero" stroke="none" stroke-width="0.26459" stroke-linecap="butt" stroke-linejoin="miter" stroke-miterlimit="10" stroke-dasharray="" stroke-dashoffset="0" style="mix-blend-mode: normal"><path d="M121.87493,191.2999c-0.91869,-0.18373 -1.65364,-0.36748 -2.20485,-0.55121l1.10243,-5.51213l3.30728,0.2756c2.57233,0.18373 4.59345,0.18373 6.06336,0c0.73495,-0.36748 1.10243,-0.91869 1.10243,-1.65364c-0.18373,-0.73495 -1.83737,-1.10243 -4.96092,-1.10243c-2.75607,-0.36748 -4.68532,-1.37804 -5.78775,-3.03168c-0.55121,-1.28616 -0.82683,-2.75607 -0.82683,-4.40971c0,-2.57233 0.91869,-4.50157 2.75607,-5.78773c1.28616,-0.91869 3.58289,-1.37804 6.89017,-1.37804c3.30728,0 6.61456,0.27561 9.92184,0.82683l-1.10243,5.23652c-3.85849,-0.18373 -6.52268,-0.2756 -7.99259,-0.2756c-1.28616,0.18373 -1.92925,0.64308 -1.92925,1.37803c-0.18373,1.28616 0.82683,1.92925 3.03168,1.92925c3.12355,0 5.42025,0.55121 6.89016,1.65364c1.10243,0.91869 1.65364,2.48045 1.65364,4.68531c0,1.91088 -0.45933,3.56452 -1.37803,4.96093c-0.91869,1.65364 -3.21541,2.66419 -6.89017,3.03167c-3.12355,0.18373 -6.33896,0.09188 -9.64624,-0.2756z"/><path d="M149.15999,191.2999v-15.9852h-6.61457v-7.16577h20.94612v7.16577h-6.61456v15.9852z"/><path d="M166.24762,180.00002c0,-3.67476 1.10243,-6.56863 3.30728,-8.68161c2.20485,-2.11299 5.23653,-3.16948 9.09503,-3.16948c3.85849,0 6.89017,1.05649 9.09503,3.16948c2.20485,2.11299 3.30728,5.00685 3.30728,8.68161c0,3.12355 -1.10243,5.87961 -3.30728,8.2682c-2.20485,2.38859 -5.23653,3.58289 -9.09503,3.58289c-3.85849,0 -6.89017,-1.19431 -9.09503,-3.58289c-2.20485,-2.38859 -3.30728,-5.14465 -3.30728,-8.2682zM178.37431,175.31468c-1.83737,1.10243 -3.21541,2.29673 -4.13411,3.58289c-0.91869,1.10243 -1.10243,2.48045 -0.55121,4.13409l0.55121,0.55121c0.91869,1.28616 2.48047,1.65364 4.68532,1.10243c1.83737,-1.10243 3.2154,-2.29672 4.13409,-3.58288c1.10243,-1.46991 1.10243,-3.12355 0,-4.96092l-0.55121,-0.55121c-1.10243,-0.73495 -2.48045,-0.82683 -4.13409,-0.27561z"/><path d="M193.80831,191.2999v-23.15097h13.50473c5.51213,0 8.26819,2.02112 8.26819,6.06335v1.10243c0,2.9398 -1.19429,4.86905 -3.58288,5.78775c0.73495,0.36748 1.46991,1.19429 2.20485,2.48045l2.20485,7.717h-8.2682l-1.65364,-6.33896c-0.36748,-1.65364 -1.37803,-2.48047 -3.03167,-2.48047h-1.65364v8.81943zM205.10819,177.51955c1.46991,0 2.20485,-0.73495 2.20485,-2.20485v-1.10243c0,-1.10243 -0.73495,-1.65364 -2.20485,-1.65364h-3.30728v4.96092z"/><path d="M225.77868,180.82683l-6.61456,-12.67791h7.71699l2.75605,7.9926l2.75608,-7.9926h7.71699l-6.61456,12.67791v10.47307h-7.71699z"/><path d="M256.97738,191.2999l4.13408,-23.15097h6.61459l3.03165,9.37063l3.03168,-9.37063h6.61456l4.13411,23.15097h-6.89016l-1.65365,-10.19745l-2.20485,10.19745h-6.06333l-2.20488,-10.19745l-1.65363,10.19745z"/><path d="M287.29409,180.00002c0,-3.67476 1.10243,-6.56863 3.30728,-8.68161c2.20487,-2.11299 5.23655,-3.16948 9.09504,-3.16948c3.85849,0 6.89016,1.05649 9.09501,3.16948c2.20485,2.11299 3.30728,5.00685 3.30728,8.68161c0,3.12355 -1.10243,5.87961 -3.30728,8.2682c-2.20485,2.38859 -5.23652,3.58289 -9.09501,3.58289c-3.85849,0 -6.89017,-1.19431 -9.09504,-3.58289c-2.20485,-2.38859 -3.30728,-5.14465 -3.30728,-8.2682zM299.42082,175.31468c-1.83739,1.10243 -3.21543,2.29673 -4.13411,3.58289c-0.91868,1.10243 -1.10243,2.48045 -0.55123,4.13409l0.55123,0.55121c0.91868,1.28616 2.48045,1.65364 4.68531,1.10243c1.83739,-1.10243 3.21543,-2.29672 4.13411,-3.58288c1.10241,-1.46991 1.10241,-3.12355 0,-4.96092l-0.55123,-0.55121c-1.10241,-0.73495 -2.48044,-0.82683 -4.13408,-0.27561z"/><path d="M325.87906,184.6853c1.28617,0 2.29673,-0.36748 3.03168,-1.10243c0.73495,-0.73495 1.10243,-1.83737 1.10243,-3.30728v-1.37803c0,-1.46991 -0.36748,-2.61827 -1.10243,-3.44508c-0.73495,-0.82683 -1.74551,-1.24024 -3.03168,-1.24024h-2.75605v10.47305zM314.85479,168.14893h11.02427c3.85849,0 6.89016,1.05649 9.09501,3.16948c2.20485,2.11299 3.30728,5.00685 3.30728,8.68161c0,3.12355 -1.10243,5.78775 -3.30728,7.9926c-2.20485,2.20485 -5.23652,3.30728 -9.09501,3.30728h-11.02427z"/><path d="M341.03744,191.2999v-23.15097h19.29248v6.61456h-11.02429v1.65364h11.02429v6.61456h-11.02429v1.65364h11.02429v6.61457z"/></g></g></svg>