<svg version="1.1" xmlns="http://www.w3.org/2000/svg" xmlns:xlink="http://www.w3.org/1999/xlink" width="33.32391" height="33.3" viewBox="0,0,33.32391,33.3"><defs><radialGradient cx="239.88285" cy="179.45333" r="16.4" gradientUnits="userSpaceOnUse" id="color-1"><stop offset="0" stop-color="#ff0000"/><stop offset="1" stop-color="#ff0000" stop-opacity="0"/></radialGradient></defs><g transform="translate(-223.35,-163.35)"><g data-paper-data="{&quot;isPaintingLayer&quot;:true}" fill-rule="nonzero" stroke="#000000" stroke-linejoin="miter" stroke-miterlimit="10" stroke-dasharray="" stroke-dashoffset="0" style="mix-blend-mode: normal"><path d="M240,196.4c-9.05747,0 -16.4,-7.34253 -16.4,-16.4c0,-9.05747 7.34253,-16.4 16.4,-16.4c9.05747,0 16.4,16.4 16.4,16.4c0,0 -7.34253,16.4 -16.4,16.4z" data-paper-data="{&quot;origPos&quot;:null,&quot;index&quot;:null}" fill="url(#color-1)" stroke-width="0.5" stroke-linecap="butt"/><path d="M240,196.4c-9.05747,0 -16.4,-7.34253 -16.4,-16.4c0,-9.05747 7.34253,-16.4 16.4,-16.4c9.05747,0 16.4,16.4 16.4,16.4c0,0 -7.34253,16.4 -16.4,16.4z" data-paper-data="{&quot;origPos&quot;:null,&quot;index&quot;:null}" fill="#ff0000" stroke-width="0" stroke-linecap="butt"/><path d="M250.4,170.2l-21.4,21.2" data-paper-data="{&quot;origPos&quot;:null,&quot;index&quot;:null}" fill="none" stroke-width="2.5" stroke-linecap="round"/><path d="M228.8,168l21.3,22.1" data-paper-data="{&quot;origPos&quot;:null,&quot;index&quot;:null}" fill="none" stroke-width="2.5" stroke-linecap="round"/><path d="M232.17236,183.41322v-6.82645h6.12791l6.12791,-3.58678v14l-5.80957,-3.58678z" data-paper-data="{&quot;origPos&quot;:null,&quot;index&quot;:null}" fill="none" stroke-width="2.5" stroke-linecap="butt"/></g></g></svg>