<svg version="1.1" xmlns="http://www.w3.org/2000/svg" xmlns:xlink="http://www.w3.org/1999/xlink" width="32.78036" height="38.63364" viewBox="0,0,32.78036,38.63364"><g transform="translate(-224.43561,-162.29857)"><g data-paper-data="{&quot;isPaintingLayer&quot;:true}" fill-rule="nonzero" stroke="none" stroke-linecap="butt" stroke-linejoin="miter" stroke-miterlimit="10" stroke-dasharray="" stroke-dashoffset="0" style="mix-blend-mode: normal"><path d="M241.09836,200.78166c-1.40098,-1.26166 -0.89793,-5.37893 -0.89793,-5.37893c0.04508,-0.60609 0.27266,-1.09719 0.57209,-1.55627c0.26078,-0.39982 0.57606,-0.77538 0.87274,-1.18148c0.63735,-0.87239 0.89511,0.77478 0.89511,0.77478c0,0 0.51587,2.35726 0.26597,3.60538c-0.07977,1.09107 -0.68454,4.65819 -1.70798,3.73653z" data-paper-data="{&quot;index&quot;:null}" fill="#09649e" stroke-width="0"/><path d="M231.43352,197.17985c-0.26285,-1.72521 2.50886,-4.44691 2.50886,-4.44691c0.38729,-0.41725 0.83773,-0.64586 1.32081,-0.80988c0.42072,-0.14284 0.8662,-0.23671 1.31628,-0.36358c0.96686,-0.27253 0.18629,1.07938 0.18629,1.07938c0,0 -1.01196,2.01894 -1.92184,2.78817c-0.69621,0.75193 -3.21839,3.01314 -3.4104,1.75283z" data-paper-data="{&quot;index&quot;:null}" fill="#09649e" stroke-width="0"/><path d="M239.1586,189.90927c0,0 -2.62468,3.00812 -3.50114,3.92029c-0.5929,0.61706 -1.50124,1.64207 -1.50124,1.64207c-0.28663,0.21805 -1.48098,0.51591 -1.23069,-0.25278c0.19676,-0.60429 1.82704,-2.29675 1.82704,-2.29675c0,0 2.54491,-2.80474 2.93657,-3.32097c1.28546,-1.58994 2.39763,-4.98103 2.39763,-4.98103l1.50352,0.37721l-2.43167,4.91195z" data-paper-data="{&quot;index&quot;:null}" fill="#ffffff" stroke-width="0"/><path d="M242.84039,189.61217c0,0 -0.20339,3.45964 -0.23656,4.58373c-0.02727,0.92403 0.13179,2.34323 -0.05938,2.91427c-0.19117,0.57105 -0.71044,1.1519 -1.07912,0.43245c-0.28983,-0.56558 -0.03072,-3.15286 -0.03072,-3.15286c0,0 0.25113,-4.23374 0.16116,-4.87545c-0.22126,-2.03256 -1.37934,-4.78955 -1.37934,-4.78955l1.32754,-0.80032l1.29642,5.68774z" data-paper-data="{&quot;index&quot;:null}" fill="#ffffff" stroke-width="0"/><path d="M240.76486,176.70124c0,0 0.23692,2.41392 -1.30971,4.04054c-1.70856,1.79694 -5.87126,2.56988 -5.87126,2.56988l2.04773,-2.90886l-0.4334,-5.11169z" data-paper-data="{&quot;index&quot;:null}" fill="#2095ad" stroke-width="0"/><path d="M248.74785,183.31456c0,0 -4.65463,-0.68416 -5.07948,-8.56509c-0.10316,-1.62545 -1.11712,-9.77889 0.01018,-9.91247c1.05686,-0.12523 2.9563,3.70673 3.24215,6.54114c0.32869,3.25871 -0.44065,6.46841 -0.33814,7.33345c0.19166,1.61743 2.1653,4.60297 2.1653,4.60297z" data-paper-data="{&quot;index&quot;:null}" fill="#2095ad" stroke-width="0"/><path d="M240.40206,176.53631c-0.00525,-0.6794 1.46552,-0.50347 1.86197,-1.10239c0.80513,-1.21634 0.86816,-2.97276 0.96669,-2.98444c0.14702,-0.01742 0.87294,4.24508 1.05892,5.13904c1.04543,5.02521 -0.14607,6.36172 -0.14607,6.36172c0,0 -3.71428,-3.88282 -3.74153,-7.41395z" data-paper-data="{&quot;index&quot;:null}" fill="#0d4d58" stroke-width="0"/><g data-paper-data="{&quot;index&quot;:null}" stroke-width="0.17188"><path d="M247.85264,177.19797c-1.38376,0.45701 -3.59352,0.57313 -4.46721,0.49605c-0.87369,-0.07708 -2.40588,-0.56239 -2.19238,-0.91839c0.21345,-0.35613 2.41106,-0.76752 3.90798,-1.2048c0.94613,-0.27622 2.0912,-0.62412 3.04079,-0.60114c0.62395,0.01531 1.47789,0.66437 1.61873,1.14837c0.10998,0.37438 -1.45042,0.92874 -1.90789,1.0799z" data-paper-data="{&quot;index&quot;:null}" fill="#09649e"/><path d="M249.74549,176.10399c0.00489,-0.00899 0.02415,-0.75021 -0.02553,-0.97284c-0.0834,-0.37465 -0.20119,-0.10469 -0.15072,-0.57573c0.03745,-0.34933 0.72442,0.03344 1.68088,-0.2568c0.22326,-0.06775 1.62135,-0.50292 1.72646,-0.44589c0.31054,0.01725 0.93477,-0.24751 1.06438,0.10368c0.12961,0.35121 -0.79009,0.30238 -0.79009,0.30238c0,0 1.19032,-0.31656 1.20761,0.06781c-0.03788,0.36067 -1.16263,0.25942 -1.26192,0.29786c-0.22477,0.08703 1.17576,0.14134 0.99479,0.41343c-0.2086,0.31362 -1.83848,-0.16769 -2.45615,0.76923c-0.56324,0.59832 1.31271,-0.15701 1.4871,0.33434c-0.56813,0.49771 -1.17894,0.71032 -2.59885,0.67538c-0.27939,-0.0537 -0.55928,0.10956 -0.72971,0.02191c-0.15286,-0.08507 -0.36797,-0.34009 -0.14825,-0.73473z" fill="#ebd9bb"/><path d="M248.57301,177.36432c-0.27954,-0.12762 -0.23519,-1.70075 -0.23519,-1.70075c0.02264,-0.30232 -0.33062,-0.96177 -0.11441,-0.78309c0.04331,0.03577 -0.2489,0.01051 -0.10892,-0.15533c0.09213,-0.10889 0.60796,-0.21317 0.75824,-0.30129c0.34708,-0.20358 0.88651,-0.19912 1.26583,-0.29097c0.35702,-0.08636 0.48521,0.24518 0.62218,0.35827c0.19821,0.16329 0.19744,0.44999 -0.02144,0.90291c-0.26624,0.55084 -0.32949,1.03546 -0.32979,1.06844c0,0 0.00424,0.40727 0.17378,0.45843c-0.5503,-0.15582 -1.46961,0.65297 -2.01027,0.44337z" fill="#ecc51e"/></g><g data-paper-data="{&quot;index&quot;:null}" stroke-width="0"><path d="M235.09552,186.67178c0.70201,1.24239 4.53568,1.04199 4.27611,1.50276c-1.7324,3.0752 -2.71971,0.73837 -4.55759,1.23476c-0.59568,0.126 -1.59268,-0.04013 -1.59268,-0.04013c0,0 -0.56503,-0.6508 0.21644,-2.34027c0.03307,-1.71015 1.41502,-2.30812 1.41502,-2.30812c0,0 -0.46971,0.69022 0.2427,1.95101z" fill="#2095ad"/><path d="M234.51836,184.79823c0.18178,-0.13939 2.3656,-3.58169 4.44537,-3.43278c2.76032,0.19766 2.76813,-1.3763 3.30315,-0.16716c0.53502,1.20914 0.62119,3.82487 -1.00152,5.43018c-1.35065,1.33619 -2.60835,1.7095 -2.60835,1.7095c0,0 -2.49918,1.06669 -3.32225,-0.89919c-0.87663,-2.24384 -0.8164,-2.64055 -0.8164,-2.64055z" fill="#ffffff"/></g><g data-paper-data="{&quot;index&quot;:null}" stroke-width="0"><path d="M233.7763,185.31543c0,0 -3.98797,0.72344 -5.4939,0.50792c-1.50594,-0.21552 -3.84679,0.71477 -3.84679,0.71477c0,0 2.81795,-4.22292 7.84063,-5.46712c0.95098,-0.23557 -3.52837,1.68066 -3.03571,2.72225c0.4926,1.04145 4.53579,1.52218 4.53579,1.52218z" fill="#2095ad"/><path d="M242.15176,180.22481c0,0 -5.91388,4.58797 -8.30644,4.95556c-2.20886,0.33937 -6.68986,0.13341 -6.09445,-0.90755c0.81666,-1.42777 3.91544,-3.66477 7.31363,-3.87949c1.27066,0.04435 2.84478,-0.50079 4.18654,-0.54734c1.61966,-0.05619 2.90073,0.37883 2.90073,0.37883z" fill="#ffffff"/></g><g data-paper-data="{&quot;index&quot;:null}" stroke-width="0"><path d="M245.68032,184.00894c0,0 3.81304,-2.32354 4.06651,-2.42007c0.25347,-0.09653 4.16418,3.1169 4.8189,3.79577c0.65472,0.67886 2.65024,1.77636 2.65024,1.77636c0,0 -2.1578,0.59571 -3.42508,0.23397c-1.26728,-0.36174 -2.79062,-0.81051 -3.96115,-1.22354c-2.12356,-0.74932 -4.14941,-2.16249 -4.14941,-2.16249z" fill="#2095ad"/><path d="M253.63891,186.14882c0,0 -2.03295,0.30236 -6.30897,-1.3839c-3.52593,-1.39046 -5.28098,-2.97859 -6.01434,-4.03996c-0.50227,-0.72692 -0.45289,-1.20675 -0.45289,-1.20675c0,0 -0.36041,-0.38715 1.67217,0.47547c0.69906,0.29668 2.1379,-0.39567 5.81701,0.72398c4.70723,1.43255 5.28702,5.43116 5.28702,5.43116z" fill="#ffffff"/></g><g data-paper-data="{&quot;index&quot;:null}" stroke-width="0"><path d="M251.17781,188.84211c0.68488,2.44524 2.09768,3.91123 2.09768,3.91123c0,0 -4.53227,0.09682 -5.90739,-0.69189c-1.37511,-0.78871 -4.59364,-3.06556 -4.59364,-3.06556l6.00493,-4.01402c0,0 1.88069,2.0117 2.39843,3.86024z" fill="#2095ad"/><path d="M248.71907,190.6976c-1.48242,1.40836 -6.81535,-1.49501 -8.61554,-3.72222c-1.92425,-2.38071 -1.03434,-7.0692 -1.03434,-7.0692l1.15501,-0.44281c0,0 0.68061,1.55336 3.3139,2.20743c3.86099,0.95902 4.50269,2.53381 5.24122,3.31103c0.74415,0.78313 1.73193,4.08405 0.18978,5.54913z" fill="#ffffff"/></g><path d="M242.49459,180.36674c0,0 -0.6306,-0.13666 -0.81954,-0.24492c-0.18895,-0.10826 -0.39237,-0.54115 -0.39237,-0.54115l0.05232,-0.25088c0,0 0.29723,0.46898 0.4723,0.5085c0.17507,0.03952 0.1822,0.0996 0.1822,0.0996l0.50508,0.42884z" data-paper-data="{&quot;index&quot;:null}" fill="#2490a6" stroke-width="0"/><path d="M243.03693,179.96521c0,0 -0.02346,0.43954 -0.07684,0.86704c-0.05338,0.4275 -0.37942,1.03668 -0.37942,1.03668l0.19117,0.42534l-0.32294,0.64977l-0.82569,-0.13621l-0.2055,-0.42909c0,0 -0.92439,-0.32159 -1.55609,-0.65983c-0.6317,-0.33824 -1.52889,-1.83374 -1.52889,-1.83374l0.51105,0.03953c0,0 1.05265,1.32577 1.33251,1.46916c0.27986,0.14338 0.97,0.35074 0.97,0.35074l1.17875,-0.54962c0,0 0.14108,-0.30031 0.19274,-0.55429c0.05165,-0.25397 0.05461,-0.66185 0.05461,-0.66185z" data-paper-data="{&quot;index&quot;:null}" fill="#eec522" stroke-width="0"/><path d="M241.2359,176.64199c0.57293,0 1.04707,1.66348 1.04707,1.66348c0.07191,0.27088 -0.12211,0.78707 -0.13155,1.27342c-0.00788,0.40586 0.1735,0.81523 0.1735,0.81523l-0.11055,-0.14195c0,0 -0.85417,-0.71627 -1.08002,-0.67774c-0.11273,0.01923 -0.55348,-0.05417 -0.55348,-0.05417c0,0 -0.35911,0.22575 -0.53861,0.31464c-0.27707,0.13721 -0.96219,0.42856 -0.96219,0.42856c0,0 0.15254,-0.40899 0.19368,-0.59337c-0.03908,-1.469 -0.50943,-2.42213 0.40456,-3.01343c0.28535,-0.16851 1.28507,-0.01468 1.55758,-0.01468z" data-paper-data="{&quot;index&quot;:null}" fill="#09649e" stroke-width="0"/><g data-paper-data="{&quot;index&quot;:null}" stroke-width="0"><path d="M233.75214,168.69613c-0.00499,-0.04208 0.4902,-0.47436 0.9635,-1.11812c0.39381,-0.53566 -0.13103,-1.26001 0.24807,-1.30493c0.83475,-0.09892 2.42055,-0.6329 2.42968,-0.55584c0.00913,0.07707 -1.55333,2.87296 -2.38808,2.97188c-0.83475,0.09892 -1.24406,0.08405 -1.2532,0.00696z" fill="#72878d"/><path d="M241.75216,165.93678l-1.53593,-0.34354c0,0 -0.3142,-1.39932 0.14694,-1.63528c2.42517,-1.24101 4.65753,2.34108 4.65753,2.34108c0,0 1.16502,3.46606 1.1182,6.39052c-0.05096,3.18306 -2.64248,8.45739 -2.64248,8.45739c0,0 -0.07028,-5.77227 -0.17578,-7.99432c-0.0704,-1.48263 -0.39557,-4.04186 -0.39557,-4.04186z" fill="#2095ad"/><path d="M239.71987,163.32614c0,0 0.15573,-0.91838 0.91543,-1.0084c0.75971,-0.09003 0.87464,0.16631 0.87464,0.16631c0,0 2.19952,-0.25617 2.78559,1.94798c0.05103,0.19194 -1.92214,-0.58245 -2.23902,-0.75285c-0.67377,-0.36232 -2.33664,-0.35307 -2.33664,-0.35307z" fill="#dceef3"/><path d="M236.33238,164.35748c-0.02904,-0.24507 1.25017,-1.37113 2.26016,-1.54848c0.664,-0.11659 0.68361,0.56968 0.68361,0.56968c0,0 -0.6099,0.79219 -1.24704,0.86769c-0.63714,0.0755 -1.66765,0.35614 -1.69669,0.11106z" fill="#dceef3"/><path d="M237.59059,164.34339c-0.06099,-0.51466 0.90267,-0.96189 2.02996,-1.09547c1.1273,-0.13358 2.08007,0.08656 2.14106,0.60121c0.06098,0.51463 -0.82447,0.86263 -1.95177,0.99621c-1.12727,0.13358 -2.15827,0.01271 -2.21926,-0.50195z" fill="#e8d548"/><path d="M240.46871,165.11659c-0.04434,-0.37418 0.38463,-0.93689 1.03446,-1.01389c0.64987,-0.07701 1.07751,0.52884 1.12185,0.90302c0.04434,0.37418 -0.30865,0.07273 -0.95851,0.14974c-0.64987,0.07701 -1.15345,0.33531 -1.19779,-0.03887z" fill="#72878d"/><path d="M233.09868,168.20537c0,0 -0.88053,-1.74219 -0.10501,-2.9353c0.62158,-0.95625 1.54274,-0.87975 1.54274,-0.87975c0,0 0.37602,-0.53469 1.44729,-0.66896c0.64965,-0.14712 1.89927,0.57768 1.97235,0.6687c0.43599,0.54289 -1.3683,-0.09739 -1.86731,0.20009c-1.27925,0.76257 -2.9901,3.61522 -2.9901,3.61522z" fill="#dceef3"/><path d="M233.71003,168.80806c0,0 0.68414,-2.61024 1.26295,-2.67883c0.57884,-0.0686 0.29948,0.98803 0.29948,0.98803l-1.56243,1.69077z" fill="#dceef3"/><path d="M234.19247,171.36062c0,0 0.66528,-4.43209 1.37616,-4.94847c0.5465,-0.39696 2.19547,-0.60428 2.19547,-0.60428c0,0 -1.1216,4.96395 -0.69762,8.54189c0.42398,3.57794 0.68944,6.57767 0.68944,6.57767c0,0 -1.84427,-2.36275 -2.54651,-4.24808c-0.70224,-1.88534 -1.01692,-5.31873 -1.01692,-5.31873z" fill="#2095ad"/><path d="M239.44799,168.62657c2.74473,-0.32524 5.15218,1.28348 5.46403,3.58212c0.38314,2.82403 -2.04384,4.24623 -4.546,4.57433c-1.50441,0.19726 -4.77819,-0.28038 -5.28551,-3.31348c-0.72511,-2.29761 1.62275,-4.51772 4.36748,-4.84297z" fill="#ecdebd"/><path d="M241.60553,173.74679c-0.41183,0.01641 -1.86655,-0.06608 -1.86655,-0.06608c0,0 -0.19862,-0.39645 -0.00906,-0.85326c0.29655,-0.71454 0.72143,-1.22166 1.30069,-1.25854c0.57926,-0.03686 0.70018,0.40561 0.97806,0.79498c0.27787,0.38937 0.06895,1.22379 0.06895,1.22379c0,0 -0.27303,0.15122 -0.47208,0.15913z" fill="#000000"/><path d="M239.64231,173.98722c0,0 -0.21233,-1.56022 1.12471,-1.95464c1.28763,-0.41299 1.23632,1.58282 1.23632,1.58282c0,0 -0.39151,0.24015 -1.08802,0.32269c-0.6965,0.08253 -1.27302,0.04912 -1.27302,0.04912z" fill="#eaeee9"/><path d="M245.72618,166.1691l0.24687,-1.33414c0,0 0.5446,0.51838 0.81122,1.09848c0.26663,0.5801 0.52255,1.80318 0.52255,1.80318z" fill="#dceef1"/><path d="M234.2328,166.56697c-0.00467,-0.03939 1.22798,-2.05016 2.28122,-2.17497c1.05327,-0.12481 1.85238,0.68065 1.85705,0.72004c0.00466,0.03939 -1.33099,0.80857 -2.099,0.89958c-0.76801,0.09101 -2.03462,0.59474 -2.03929,0.55535z" fill="#72878d"/><path d="M245.38295,166.92057c-0.06301,-0.53172 0.24834,-0.95563 0.24834,-0.95563c0,0 0.58496,0.64689 0.85996,0.94685c0.275,0.29996 0.91712,0.96195 0.91712,0.96195c0,0 -1.96242,-0.42148 -2.02542,-0.95317z" fill="#72878d"/><path d="M235.34114,172.92382c-0.04193,-0.51215 -0.06821,-0.77897 0.50366,-0.87852c0.27758,-0.04831 0.76337,0.34638 0.96183,0.83983c0.2104,0.52312 -0.09384,0.85205 -0.09384,0.85205l-0.88033,0.36038c0,0 -0.39725,-0.02488 -0.49134,-1.17374z" data-paper-data="{&quot;index&quot;:null}" fill="#000000"/><path d="M235.80358,174.11054c0,0 -0.58633,-1.21403 -0.23904,-1.76487c0.34733,-0.55086 0.7769,-0.3887 1.08743,0.34932c0.20245,0.48112 0.0792,1.42515 0.0792,1.42515z" fill="#eaeee9"/><g><path d="M236.2095,174.2889c-0.31315,0.03711 -0.61755,-0.35948 -0.67992,-0.8858c-0.06237,-0.52635 0.14092,-0.98306 0.45407,-1.02017c0.31315,-0.03711 0.61756,0.35947 0.67993,0.88579c0.06238,0.52635 -0.14092,0.98307 -0.45407,1.02018z" fill="#a77baf"/><path d="M236.06643,172.87934c0.13051,-0.01546 0.26033,0.17516 0.29003,0.4258c0.0297,0.25064 -0.052,0.46633 -0.18248,0.48179c-0.13048,0.01546 -0.26033,-0.17516 -0.29003,-0.4258c-0.0297,-0.25064 0.052,-0.46633 0.18248,-0.48179z" fill="#000000"/><path d="M236.13835,172.77868c0.09784,-0.0116 0.19403,0.12124 0.21482,0.29666c0.02079,0.17543 -0.04169,0.32706 -0.13954,0.33865c-0.09784,0.0116 -0.19404,-0.12124 -0.21483,-0.29666c-0.02079,-0.17543 0.04169,-0.32705 0.13955,-0.33865z" fill="#ffffff"/></g><path d="M234.41605,173.07933c0,0 -0.31066,-2.5604 0.34272,-3.81695c0.65339,-1.25654 2.46927,-2.5 4.24798,-3.11908c1.77869,-0.61907 2.28429,0.28045 3.19349,0.52908c1.70809,0.46708 1.14781,5.15011 1.14781,5.15011c0,0 -2.43402,0.20368 -3.2874,0.53086c-0.97526,0.37393 -2.01597,1.42283 -2.42726,1.32158c-0.27641,-0.06803 -0.68088,-0.99557 -0.68088,-0.99557l-0.24818,0.82087c0,0 -1.06819,-1.63322 -1.72488,-1.1105c-0.57474,0.45749 -0.56337,0.68959 -0.56337,0.68959z" fill="#2195ab"/><path d="M243.13341,165.62831c-0.29622,-0.24951 -0.6037,-0.79266 -0.83372,-1.01114c-0.43792,-0.41592 -1.25871,-0.42307 -1.25871,-0.42307c0,0 0.76894,-0.85408 1.24199,-0.96223c0.47304,-0.10812 1.504,0.24223 1.504,0.24223c0,0 0.26931,-0.37159 0.92369,-0.28332c0.53372,0.07199 1.47529,0.54614 1.48957,0.9866c0.01308,0.4026 -0.09092,0.97177 -0.23042,1.39825c-0.20025,0.61213 -0.46258,1.02433 -0.46258,1.02433c0,0 -0.98703,0.19639 -2.37383,-0.9717z" fill="#dceef3"/><path d="M241.4767,165.73211c0,0 0.37353,0.2235 0.50703,0.48461c0.13351,0.26114 0.24298,0.98232 0.24298,0.98232c0,0 -0.2396,-0.24464 -0.97971,-0.6635c-0.63688,-0.36043 -1.50951,-0.5443 -1.52137,-0.64442c-0.02565,-0.21652 1.75105,-0.159 1.75105,-0.159z" data-paper-data="{&quot;index&quot;:null}" fill="#0b4754"/><path d="M237.44004,166.31099c0.01186,0.10012 -0.62901,0.6041 -1.164,1.10339c-0.62172,0.58023 -1.17127,1.40338 -1.17127,1.40338c0,0 0.03006,-0.86885 0.12264,-1.2922c0.09257,-0.42338 0.3181,-0.64935 0.3181,-0.64935c0,0 1.86888,-0.78171 1.89454,-0.56519z" fill="#0b4754"/><path d="M236.35408,167.57435c-0.04365,-0.36837 0.64436,-1.95088 1.25977,-2.82382c0.42865,-0.608 1.02851,0.11077 1.02851,0.11077c0,0 1.47971,-0.49858 1.83585,-0.21399c0.19926,0.26459 -0.03758,0.95226 -0.11028,1.55231c-0.06531,0.53934 0.1181,1.10704 0.0218,1.25646c-0.60018,0.93126 -1.38921,1.49202 -2.41849,1.61399c-1.02928,0.12196 -1.54308,-0.87083 -1.61713,-1.49575z" fill="#dceef3"/><path d="M243.41281,175.71192l-0.25393,-4.18931l0.90552,-0.54379l0.43709,4.50705z" fill="#2095ad"/><path d="M235.52242,173.30601c-0.02092,0.13726 -0.69314,-0.20785 -1.02944,-0.32665c-0.33629,-0.11873 -0.87472,-0.72176 -0.87472,-0.72176c0,0 0.60843,0.4045 1.02977,0.60717c0.42137,0.20266 0.8841,0.37744 0.8744,0.44124z" data-paper-data="{&quot;index&quot;:null}" fill="#000000"/><g><path d="M240.53092,174.19167c-0.31315,0.03711 -0.61755,-0.35948 -0.67992,-0.8858c-0.06237,-0.52635 0.14092,-0.98306 0.45407,-1.02017c0.31315,-0.03711 0.61756,0.35947 0.67993,0.88579c0.06238,0.52635 -0.14092,0.98307 -0.45407,1.02018z" fill="#a77baf"/><path d="M240.38782,172.78205c0.13051,-0.01546 0.26033,0.17516 0.29003,0.4258c0.0297,0.25064 -0.052,0.46633 -0.18248,0.48179c-0.13048,0.01546 -0.26033,-0.17516 -0.29003,-0.4258c-0.0297,-0.25064 0.052,-0.46633 0.18248,-0.48179z" fill="#000000"/><path d="M240.45978,172.68145c0.09784,-0.0116 0.19403,0.12124 0.21482,0.29666c0.02079,0.17543 -0.04168,0.32705 -0.13954,0.33865c-0.09784,0.0116 -0.19403,-0.12124 -0.21482,-0.29666c-0.02079,-0.17543 0.04169,-0.32706 0.13954,-0.33865z" fill="#ffffff"/></g><path d="M237.61419,174.1319c0.0077,0.18835 -0.75588,0.43778 -0.92251,0.46885c-0.42574,0.07945 -0.91495,-0.52672 -0.91495,-0.52672c0,0 0.67584,-0.01423 0.91485,-0.06299c0.08825,-0.01801 0.12914,-0.44718 0.12914,-0.44718c0,0 0.78148,0.2751 0.79346,0.56805z" fill="#ecdebd"/><path d="M239.74114,174.45681l0.36708,-0.46573c0,0 0.41611,0.02748 0.65247,-0.00053c0.23635,-0.02801 0.71471,-0.12308 0.71471,-0.12308l0.6505,0.30678z" fill="#ecdebd"/><path d="M240.27583,176.36571c-0.35441,0.042 -1.0768,0.10311 -0.85426,-0.14071c0.11253,-0.12329 0.49897,0.02646 0.83111,-0.0129c0.33214,-0.03936 0.70095,-0.33925 0.82089,-0.18286c0.15337,0.12007 -0.44332,0.29447 -0.79773,0.33647z" fill="#b1a37f"/><path d="M241.9543,174.21293c-0.03875,-0.32697 -0.2344,-0.28959 0.02987,-0.32091c0.26427,-0.03132 0.06532,-0.02193 0.10406,0.30503c0.03874,0.32696 -0.02162,0.39068 -0.02162,0.39068c0,0 -0.07358,-0.04785 -0.11232,-0.37481z" fill="#d0bf96"/><path d="M235.79607,174.20087c0.26427,-0.03131 0.06531,-0.02192 0.10405,0.30504c0.03874,0.32694 -0.02161,0.39065 -0.02161,0.39065c0,0 -0.07358,-0.04782 -0.11232,-0.37478c-0.03875,-0.32697 -0.2344,-0.28959 0.02988,-0.32091z" fill="#d0bf96"/><path d="M236.13147,174.61998c-0.03875,-0.32697 -0.2344,-0.28959 0.02987,-0.32091c0.26427,-0.03132 0.06532,-0.02193 0.10406,0.30503c0.03874,0.32693 -0.02162,0.39064 -0.02162,0.39064c0,0 -0.07357,-0.04781 -0.11231,-0.37477z" fill="#d0bf96"/><path d="M241.62205,174.39378c-0.03875,-0.32697 -0.23441,-0.28959 0.02987,-0.32091c0.26427,-0.03132 0.06532,-0.02193 0.10406,0.30503c0.03874,0.32693 -0.02162,0.39065 -0.02162,0.39065c0,0 -0.07357,-0.04782 -0.11231,-0.37478z" fill="#d0bf96"/><path d="M243.40654,171.73282c-0.22383,-0.65999 -0.64884,-1.62917 -0.64884,-1.62917c0,0 0.72235,-0.9285 1.01513,-0.58506c0.29279,0.34344 1.56884,1.86632 1.54412,3.22532c-0.02472,1.359 -0.89238,2.27466 -0.89238,2.27466c0,0 -0.71223,-2.38408 -1.01803,-3.28575z" fill="#2195ab"/></g><path d="M241.92742,172.5766c-0.00759,-0.06409 0.61,-0.29307 1.03788,-0.48159c0.42784,-0.18854 1.13976,-0.55878 1.13976,-0.55878c0,0 -0.59647,0.53269 -0.93654,0.64019c-0.34007,0.10753 -1.22476,0.53805 -1.2411,0.40019z" data-paper-data="{&quot;index&quot;:null}" fill="#000000" stroke-width="0"/><path d="M240.25731,179.68868c0,0 -0.31897,0.3679 -0.55402,0.46601c-0.23505,0.09811 -0.86424,0.08189 -0.86424,0.08189l0.37424,-0.36655c0,0 0.26093,-0.04291 0.47873,-0.07872c0.21779,-0.03581 0.53546,-0.40686 0.53546,-0.40686z" data-paper-data="{&quot;index&quot;:null}" fill="#2490a6" stroke-width="0"/><g data-paper-data="{&quot;index&quot;:null}" stroke-width="0.17188"><path d="M238.52536,183.26526c-0.22795,0.42447 -1.04363,1.86559 -1.39337,1.69257c-0.45238,-0.22237 -0.9441,-1.17563 -0.85135,-1.79282c0.14146,-0.93928 0.68203,-2.00699 1.11759,-2.89114c0.68939,-1.39884 1.47438,-3.49228 1.86203,-3.64097c0.38755,-0.14878 0.60076,1.44425 0.5257,2.31811c-0.07507,0.87386 -0.57133,3.03031 -1.2606,4.31427z" data-paper-data="{&quot;index&quot;:null}" fill="#09649e"/><path d="M237.12069,184.94062c0.42667,-0.14822 0.64068,0.10773 0.69805,0.27299c0.05688,0.18301 -0.1523,0.43047 -0.14769,0.71494c-0.21097,1.40458 -0.52594,1.96947 -1.11435,2.44303c-0.45382,-0.25668 0.61434,-1.97387 -0.07231,-1.5225c-0.27957,0.14645 0.51284,0.15806 0.16788,0.30934c-0.14926,1.23122 -0.14941,1.19314 -0.76982,1.52865c-0.34127,0.18455 -1.28817,0.02853 -1.61169,-0.15982c-0.32352,-0.18835 -0.01255,-0.78436 0.02413,-1.09322c-0.038,-0.11339 0.68224,-1.11524 0.78755,-1.32343c0.45117,-0.8919 0.19287,-1.63469 0.54341,-1.61121c0.47268,0.0317 0.18642,0.10106 0.54102,0.24795c0.21069,0.0874 0.94409,0.19653 0.95379,0.19326z" fill="#ebd9bb"/><path d="M238.5647,184.00353c0.11301,0.56875 -0.84248,1.33446 -0.78411,1.90341c-0.02109,-0.17583 -0.42149,-0.25039 -0.42149,-0.25039c-0.03252,-0.0054 -0.5208,-0.02685 -1.10935,0.14019c-0.48393,0.13732 -0.76645,0.08853 -0.89304,-0.13491c-0.08772,-0.15445 -0.39212,-0.33801 -0.24536,-0.67473c0.15601,-0.35773 0.24485,-0.88982 0.50534,-1.19649c0.11276,-0.13279 0.30462,-0.62284 0.42779,-0.69477c0.18754,-0.10921 0.16191,0.18296 0.13417,0.13413c-0.13863,-0.24384 0.44986,0.21807 0.75153,0.24801c0,0 1.55713,0.22818 1.63452,0.52557z" fill="#ecc51e"/></g><g data-paper-data="{&quot;index&quot;:null}"><path d="M240.53756,176.92611c0.17022,-0.06911 0.34154,0.07628 0.48084,0.36686c0.1393,0.29058 0.24674,0.72652 0.28893,1.23856c0.04223,0.51194 0.0113,1.00389 -0.07258,1.38519c-0.08398,0.38127 -0.22099,0.65174 -0.3912,0.72085c-0.17009,0.06905 -0.34142,-0.07634 -0.48082,-0.36696c-0.1393,-0.29058 -0.24663,-0.72649 -0.28883,-1.23853c-0.04223,-0.51194 -0.01141,-1.00393 0.07258,-1.38519c0.08388,-0.3813 0.221,-0.65174 0.39108,-0.72079z" fill="#5ed161" stroke-width="0.01872"/><g data-paper-data="{&quot;index&quot;:null}" fill="#21683c" stroke-width="0.01872"><path d="M240.60705,177.76841c0.09296,-0.03774 0.18652,0.04166 0.26259,0.20035c0.07607,0.15869 0.13475,0.39677 0.15779,0.6764c0.02306,0.27958 0.00617,0.54824 -0.03964,0.75647c-0.04586,0.20822 -0.12069,0.35593 -0.21364,0.39367c-0.09289,0.03771 -0.18645,-0.04169 -0.26258,-0.2004c-0.07607,-0.15869 -0.13468,-0.39675 -0.15773,-0.67638c-0.02306,-0.27958 -0.00623,-0.54826 0.03964,-0.75647c0.0458,-0.20823 0.12069,-0.35592 0.21357,-0.39363z"/></g><path d="M240.68232,177.68612c0.05928,-0.02185 0.12381,0.02812 0.18015,0.12655c0.05642,0.09845 0.10462,0.24537 0.13128,0.41732c0.02672,0.17197 0.02678,0.33664 0.0054,0.46381c-0.02141,0.12723 -0.06425,0.21692 -0.12352,0.23878c-0.05921,0.02196 -0.12374,-0.02808 -0.18015,-0.12654c-0.05642,-0.09846 -0.10462,-0.24537 -0.1313,-0.41725c-0.02665,-0.17195 -0.02675,-0.33673 -0.00537,-0.46388c0.02142,-0.12723 0.06423,-0.21685 0.12354,-0.23878z" fill="#ffffff" stroke-width="0.01896"/></g></g></g></svg>