<svg version="1.1" xmlns="http://www.w3.org/2000/svg" xmlns:xlink="http://www.w3.org/1999/xlink" width="132.04133" height="189.16672" viewBox="0,0,132.04133,189.16672"><g transform="translate(-176.77425,-91.20847)"><g data-paper-data="{&quot;isPaintingLayer&quot;:true}" fill-rule="nonzero" stroke-width="0" stroke-linecap="butt" stroke-linejoin="miter" stroke-miterlimit="10" stroke-dasharray="" stroke-dashoffset="0" style="mix-blend-mode: normal"><g><path d="M253.60608,174.02295c1.39771,0.66736 4.5933,1.55521 8.38401,2.91424c3.79071,1.35903 11.11619,4.19383 11.11619,4.19383c0,0 3.10918,4.45572 -4.93981,5.81071c-2.78252,0.46845 -17.09496,-6.03212 -17.7085,-6.32503c-3.92169,-1.87241 -6.91338,-4.24589 -5.52677,-6.68717c1.52013,-2.6764 4.75321,-1.77895 8.67496,0.09346z" data-paper-data="{&quot;index&quot;:null}" fill="#fde1c0" stroke="none"/><path d="M298.97371,182.63606c0,0 8.82407,7.14756 5.02457,11.07321c-1.26193,1.3038 -3.55667,1.66885 -3.55667,1.66885c0,0 -0.05161,2.34066 -0.8297,3.57132c-0.77815,1.2306 -2.6984,2.00862 -2.6984,2.00862c0,0 -0.46386,2.49542 -1.26576,3.51992c-0.80198,1.02448 -2.61925,1.44335 -2.61925,1.44335c0,0 -1.77309,4.41732 -12.81033,-3.04971c-2.16447,-1.46438 0.90971,-2.05306 0.90971,-2.05306c0,0 -9.12257,-8.14392 -3.16064,-15.19519c9.2215,-10.90653 18.57549,-7.6079 18.57549,-7.6079l2.43096,4.62055z" data-paper-data="{&quot;index&quot;:null}" fill="#ffffff" stroke="#000000"/><path d="M275.45502,194.66378c-1.45184,1.13731 -2.88648,0.33086 -4.25595,-0.24656c-1.36944,-0.57735 -3.83596,-2.71333 -3.83596,-2.71333c0,0 -0.77992,-3.95208 1.19502,-6.5819c2.86188,-3.81077 7.38272,-5.95278 7.38272,-5.95278c0,0 3.97258,0.02915 5.06219,2.64392c0.68596,1.64618 -1.23779,9.47433 -5.54802,12.85073z" data-paper-data="{&quot;index&quot;:null}" fill="#fefefe" stroke="none"/><path d="M284.79453,188.4587c-0.38181,0.20738 4.04044,-0.06452 5.92277,-1.04998c1.29308,-0.67696 0.93907,-4.57562 1.85316,-4.95751c2.24473,-0.9378 6.23115,0.17502 6.23115,0.17502c0,0 -2.14743,-0.58051 -5.69291,0.90072c-0.91913,0.384 -0.81556,4.9387 -1.76798,5.20341c-1.71612,0.47698 -5.44671,-0.86885 -6.54621,-0.27165z" data-paper-data="{&quot;index&quot;:null}" fill="#000000" stroke="none"/></g><g data-paper-data="{&quot;index&quot;:null}" stroke="none"><path d="M201.10026,169.02824c-7.93568,6.37614 -19.71515,10.16651 -22.06468,10.06791c-1.16873,-0.04904 -6.06001,-22.31433 5.26338,-34.85276c14.14419,-15.66188 34.44906,-49.14007 40.61157,-47.86411c6.82589,1.4133 12.76864,10.58303 7.82647,21.46285c-2.3791,5.2374 -24.41829,45.38624 -31.63674,51.18612z" fill="#fedeb5"/><path d="M208.59246,132.88576l15.30667,2.28788c0,0 -17.89296,30.43331 -22.38502,34.04258c-7.93568,6.37614 -20.12901,9.97851 -22.47854,9.87991c-1.16872,-0.04904 -6.47385,-22.50234 4.84955,-35.04076c6.07959,-6.73195 20.04109,-25.89596 20.04109,-25.89596z" fill="#ea750b"/><path d="M231.22133,113.81992c-1.86446,4.10446 -26.39571,43.31107 -32.05273,47.85636c-6.21908,4.99689 -12.44709,8.77031 -14.28838,8.69304c-0.91592,-0.03844 -4.28279,-13.15897 4.59121,-22.98517c11.0846,-12.27402 27.51887,-38.83484 32.34835,-37.83489c5.34936,1.1076 13.27468,-4.2557 9.40157,4.27067z" fill="#ebc0cd"/></g><path d="M286.62553,142.76389c0,0 -2.72071,-9.39764 -6.60259,-14.41614c-3.88188,-5.0185 -12.69979,-10.53799 -12.69979,-10.53799c0,0 11.16331,-16.08964 20.471,-12.44876c3.3359,1.30489 8.82207,13.18209 8.82207,13.18209c0,0 6.51498,3.7025 5.36729,7.61995c-2.9472,10.05976 -15.35799,16.60085 -15.35799,16.60085z" data-paper-data="{&quot;index&quot;:null}" fill="#fedeb5" stroke="none"/><path d="M229.49247,172.83164c0,0 -12.55953,8.07473 -14.75231,6.58638c-2.66908,-1.81156 -0.9481,-7.21942 -0.3783,-9.9532c0.75075,-3.60167 3.22511,-11.83481 3.22511,-11.83481c0,0 2.76208,4.7444 4.82533,7.62748c2.06328,2.88301 7.08023,7.5741 7.08023,7.5741z" data-paper-data="{&quot;index&quot;:null}" fill="#fedeb5" stroke="none"/><path d="M284.22548,114.93897c-0.92482,2.29021 -2.07931,3.40435 -3.52142,5.02017c-1.44211,1.61582 -4.19826,3.62929 -4.19826,3.62929l-4.42528,-3.245c0,0 1.57547,-1.77732 4.10972,-4.39185c2.76182,-2.84938 3.89766,-3.83536 5.20627,-4.35658c1.3086,-0.52122 3.28936,0.20667 3.28936,0.20667c0,0 0.46445,0.84709 -0.46036,3.1373z" data-paper-data="{&quot;index&quot;:null}" fill="#ebc0cd" stroke="none"/><path d="M220.70084,204.74548c0,0 2.54845,-4.40135 5.87595,-4.94089c2.97494,-0.48243 5.26597,-0.13507 8.79225,2.64722c3.71951,2.93475 3.4638,7.81143 2.48786,10.07752c-2.92435,6.78995 -11.0983,7.69572 -16.86621,1.97301c-4.71273,-4.67588 -3.90244,-10.92932 -3.90244,-10.92932z" data-paper-data="{&quot;index&quot;:null}" fill="#ebc19b" stroke="none"/><path d="M253.90287,176.4376c0,0 4.8233,-0.18411 7.24569,-0.76652c2.42242,-0.5825 6.07236,-1.8322 6.07236,-1.8322c0,0 -2.47313,5.51216 -3.7312,7.77081c-0.9549,1.71446 -2.52844,5.37899 -4.77983,5.11355c-1.84963,-0.21808 -4.80706,-10.28557 -4.80706,-10.28557z" data-paper-data="{&quot;index&quot;:null}" fill="#ebc19b" stroke="none"/><path d="M235.98657,176.02157c-18.17815,-8.53059 -26.74909,-27.32888 -18.77678,-45.48051c7.47173,-17.01196 26.49193,-25.4634 46.60481,-15.78089c17.86744,8.60161 29.03221,22.90393 18.77677,45.48052c-9.63844,21.21832 -28.65312,24.20518 -46.60481,15.78088z" data-paper-data="{&quot;index&quot;:null}" fill="#fedeb5" stroke="none"/><path d="M262.84503,239.77718c0,2.79078 2.40527,8.7282 -1.4999,8.7282c-1.65867,0 -10.46915,0.51063 -11.67512,-0.17279c-1.63337,-0.92561 -0.96685,-6.94997 -0.96685,-8.55541c0,-2.79078 3.16576,-5.05317 7.07093,-5.05317c3.90517,0 7.07093,2.26238 7.07093,5.05317z" data-paper-data="{&quot;index&quot;:null}" fill="#ffffff" stroke="none"/><g data-paper-data="{&quot;index&quot;:null}" stroke="none"><path d="M284.85417,276.4667c-4.66954,0.95389 -26.2523,0.40532 -33.3095,-2.21102c-5.16024,-1.91307 -8.57006,-3.62551 -9.428,-5.44803c-0.86396,-1.8353 0.84215,-3.77402 0.84215,-3.77402l54.61927,2.56817c0,0 1.18957,4.14586 -0.81166,5.94621c-0.93675,0.84272 -8.64522,2.2513 -11.91226,2.91868z" fill="#523f00"/><path d="M273.19651,252.3444c0,0 13.68862,0.43645 19.71295,7.0884c2.84955,3.14642 5.1303,9.59138 5.1303,9.59138c0,0 -8.82454,3.79985 -32.83167,3.05287c-13.24114,-0.412 -21.607,-6.54163 -21.607,-6.54163c0,0 -0.73426,-7.57388 2.70566,-11.87869c2.66468,-3.33465 1.20165,-5.30959 1.32736,-6.67821c0.21806,-2.37392 3.85647,-1.90497 3.85647,-1.90497l-0.24456,1.14294c0,0 4.11574,0.89198 4.56155,0.87331c1.3126,-0.05497 0.58701,-5.1561 0.58701,-5.1561c0,0 0.09599,-1.07737 4.50619,-0.70775c8.34692,0.69955 8.49059,2.70907 8.49059,2.70907c0,0 0.00924,2.59308 0.76491,4.24633c0.27624,0.60434 3.04025,4.16305 3.04025,4.16305z" fill="#ef4019"/><path d="M273.75326,252.82522c0,0 -0.98681,-0.68722 -3.11,-0.17184c-3.39898,0.96211 -1.50056,4.95981 -4.27049,9.15408c-2.27625,3.44674 -23.08676,1.50999 -23.08676,1.50999c0,0 -0.41918,-5.35592 3.02074,-9.66073c2.66468,-3.33465 1.20165,-5.30959 1.32736,-6.67821c0.21806,-2.37392 1.32398,-1.90497 1.32398,-1.90497l0.14499,1.14294c0,0 3.53141,0.89198 3.97722,0.87331c1.31261,-0.05497 3.08701,-5.1561 3.08701,-5.1561c0,0 1.03755,-1.07737 5.44775,-0.70775c8.34692,0.69955 8.49059,2.70907 8.49059,2.70907c0,0 0.00924,2.59308 0.76491,4.24633c0.27624,0.60434 2.88271,4.64388 2.88271,4.64388z" fill="#ffc500"/></g><path d="M255.99706,240.87786c-1.34254,0 -3.07692,-1.53846 -3.07692,-1.53846v-21.15384h6.15384v21.15384c0,0 -1.73437,1.53846 -3.07692,1.53846z" data-paper-data="{&quot;index&quot;:null}" fill="#fedeb5" stroke="none"/><path d="M259.27278,212.99237c-1.32732,1.26162 -2.71952,0.96899 -3.32919,0.17817c-0.60978,-0.79083 -0.67719,-3.04224 0.65014,-4.30385c1.3274,-1.26156 2.40678,-0.69427 3.0396,0.07819c1.12247,1.37011 0.96685,2.78585 -0.36048,4.04746z" data-paper-data="{&quot;index&quot;:null}" fill="#f7e300" stroke="none"/><path d="M262.73311,170.7343c0,0 2.71766,-4.11441 8.22012,-13.96889c7.44623,-13.33574 9.14443,-18.36399 12.48324,-15.2936c2.6958,2.47912 4.37242,12.07603 -5.14555,26.33091c-2.84949,4.63944 -7.60024,8.5446 -7.60024,8.5446c0,0 -2.19528,0.7446 -3.59496,-0.0439c-1.39962,-0.78846 -1.49496,-2.06339 -2.34147,-3.30031c-0.97419,-1.42354 -2.02123,-2.26885 -2.02123,-2.26885z" data-paper-data="{&quot;index&quot;:null}" fill="#ea750b" stroke="none"/><path d="M258.48886,145.20116c-0.67731,11.85825 -8.32458,23.91203 -8.32458,23.91203c0,0 -8.86203,0.988 -14.97108,-5.64381c-3.50111,-3.80073 -6.04814,-13.17497 -5.6311,-18.87634c1.14734,-15.68579 8.77588,-21.60061 16.59518,-20.95624c7.30835,0.60231 13.00885,9.70601 12.33158,21.56436z" data-paper-data="{&quot;index&quot;:null}" fill="#ea750b" stroke="none"/><path d="M262.83968,170.90437c0,0 -2.41207,-1.84752 -4.51015,-2.19341c-2.07793,-0.34254 -7.85842,-0.1169 -7.85842,-0.1169c0,0 2.87925,-3.56864 5.61126,-12.01261c2.64843,-8.18544 2.41081,-12.12881 2.41081,-12.12881l16.92782,3.8795z" data-paper-data="{&quot;index&quot;:null}" fill="#fedeb5" stroke="none"/><path d="M250.5117,242.99994c0,3.09791 2.40528,9.68872 -1.49989,9.68872c-1.65867,0 -10.46915,0.56682 -11.67513,-0.1918c-1.63337,-1.02748 -0.96685,-7.71481 -0.96685,-9.49693c0,-3.09791 3.16576,-5.60927 7.07093,-5.60927c3.90517,0 7.07093,2.51136 7.07093,5.60927z" data-paper-data="{&quot;index&quot;:null}" fill="#ffffff" stroke="none"/><path d="M243.30475,242.41632c-1.34254,0 -3.07692,-1.53846 -3.07692,-1.53846v-21.15385h6.15384v21.15385c0,0 -1.73437,1.53846 -3.07692,1.53846z" data-paper-data="{&quot;index&quot;:null}" fill="#fedeb5" stroke="none"/><path d="M228.86014,218.33002c0.75246,-4.10344 2.78899,-41.3578 8.32773,-41.99704c7.71383,-0.89027 14.88206,1.15334 14.88206,1.15334c0,0 3.222,5.57456 5.80392,12.7095c2.16281,5.97677 8.65412,27.24428 8.65412,27.24428c0,0 -2.02187,-1.12836 -12.22392,2.80645c-3.98451,1.53677 -26.48997,3.78797 -25.44392,-1.91654z" data-paper-data="{&quot;index&quot;:null}" fill="#ef4019" stroke="none"/><path d="M249.87539,188.0117c-4.04016,0.58876 -5.57431,-8.81189 -5.57431,-8.81189l6.94547,-0.53177c0,0 1.23003,8.96467 -1.37113,9.34372z" data-paper-data="{&quot;index&quot;:null}" fill="#08abe8" stroke="none"/><path d="M260.08631,196.52237c0.33701,1.55554 -0.40944,5.49544 -1.39547,5.62723c-0.47303,0.06327 -1.70829,-3.26106 -3.55614,-6.75943c-2.00382,-3.79365 -4.61113,-7.78817 -4.61113,-7.78817l0.90597,-2.36789c0,0 7.50683,5.98135 8.65674,11.28821z" data-paper-data="{&quot;index&quot;:null}" fill="#08abe8" stroke="none"/><path d="M248.65954,187.8291c0,0 0.27923,4.54792 0.59458,8.83938c0.26815,3.65018 0.84067,7.14149 0.38093,7.11008c-2.44431,-0.16683 -4.06211,-2.81755 -4.32596,-3.93727c-1.53091,-6.49678 1.53564,-13.64186 1.53564,-13.64186l1.81481,1.62971z" data-paper-data="{&quot;index&quot;:null}" fill="#08abe8" stroke="none"/><path d="M243.75762,189.80286l-3.47092,-12.09473c0,0 1.6678,0.09483 3.82473,0.18276c2.15694,0.088 3.43327,0.67736 3.43327,0.67736z" data-paper-data="{&quot;index&quot;:null}" fill="#ffffff" stroke="none"/><path d="M254.88354,187.44358l-6.66456,-8.61312c0,0 0.7355,-0.3486 2.5002,-1.08345c1.76469,-0.73491 3.16883,-0.82285 3.16883,-0.82285z" data-paper-data="{&quot;index&quot;:null}" fill="#ffffff" stroke="none"/><path d="M266.58789,175.96289c1.33721,0.55036 4.38821,0.1869 4.38821,0.1869c0,0 -1.1247,2.53398 -2.5357,3.17387c-5.0637,2.29633 -14.82884,4.09927 -30.876,-2.02745c-16.85675,-6.4358 -18.40175,-20.30969 -10.99894,-21.11511c6.49646,-0.70679 7.91139,8.29255 15.54007,11.51349c6.31372,2.66576 13.14605,-0.00777 18.31326,1.71106c3.78142,1.25787 4.93603,6.04983 6.1691,6.55727z" data-paper-data="{&quot;index&quot;:null}" fill="#ffffff" stroke="none"/><g data-paper-data="{&quot;index&quot;:null}" stroke="none"><path d="M261.77151,175.07389c-1.65669,-0.75256 -1.87739,-1.91036 -1.7731,-2.82409c0.12083,-1.05899 1.93434,-1.24628 3.33339,-0.61076c1.39907,0.63552 2.39077,2.07202 1.73307,2.91221c-0.49365,0.63057 -1.72254,1.2362 -3.29336,0.52266z" fill="#6b4209"/><path d="M263.098,173.29394c-0.64026,-0.29084 -1.05446,-0.7573 -0.92521,-1.04184c0.12925,-0.28454 0.75305,-0.27948 1.39331,0.01135c0.64025,0.29084 1.05446,0.75728 0.9252,1.04183c-0.12925,0.28454 -0.75304,0.2795 -1.3933,-0.01134z" fill="#ffffff"/></g><path d="M275.52001,131.72554c-0.66904,2.94969 -2.41593,6.21348 -3.60734,5.78251c-0.63767,-0.2307 -2.16819,-3.36296 -3.93381,-7.47167c-1.08266,-2.5194 -2.84651,-4.69799 -4.59799,-7.47835c-3.23693,-5.1385 -9.18711,-11.11089 -9.18711,-11.11089c0,0 4.5652,0.58244 12.40409,4.61531c5.37589,2.76573 9.93548,6.92146 9.93548,6.92146c0,0 0.46731,2.21405 -1.01325,8.74154z" data-paper-data="{&quot;index&quot;:null}" fill="#ea750b" stroke="none"/><g data-paper-data="{&quot;index&quot;:null}" stroke="none"><path d="M257.85596,280.00566c-3.46009,0.95389 -16.54169,0.04818 -21.77102,-2.56816c-3.82369,-1.91307 -6.35034,-3.62551 -6.98606,-5.44803c-0.64019,-1.8353 0.62402,-3.77401 0.62402,-3.77401l37.29673,2.56816c0,0 0.88145,4.14586 -0.60144,5.94621c-0.69412,0.84272 -6.14139,2.60844 -8.56223,3.27582z" fill="#523f00"/><path d="M259.41839,255.52622c0,0 5.17208,1.3054 7.3175,7.44553c0.893,2.55573 0.09655,9.23424 0.09655,9.23424c0,0 -2.83396,3.79985 -20.62303,3.05287c-9.81157,-0.412 -16.0106,-6.54163 -16.0106,-6.54163c0,0 -0.54409,-7.57387 2.00487,-11.87868c1.97451,-3.33465 0.89041,-5.3096 0.98356,-6.67822c0.16158,-2.37391 2.85762,-1.90496 2.85762,-1.90496l-0.18122,1.14294c0,0 3.04973,0.89197 3.38007,0.8733c0.97263,-0.05497 2.28744,-5.1561 2.28744,-5.1561c0,0 5.50828,-1.07736 8.7762,-0.70774c6.185,0.69955 6.29146,2.70906 6.29146,2.70906c0,0 0.00685,2.59308 0.56679,4.24633c0.20469,0.60435 2.2528,4.16306 2.2528,4.16306z" fill="#ef4019"/><path d="M259.30163,255.29276c0,0 -11.22158,-1.1093 -15.54549,0.54245c-2.51862,0.96212 -7.10239,4.95981 -9.15488,9.15408c-1.68668,3.44674 -4.63594,1.50999 -4.63594,1.50999c0,0 -0.31062,-5.35592 2.23834,-9.66073c1.97451,-3.33465 0.89041,-5.3096 0.98356,-6.67822c0.16158,-2.37391 3.00195,-1.90496 3.00195,-1.90496l0.10744,1.14294c0,0 2.61674,0.89197 2.94708,0.8733c0.97263,-0.05497 2.28744,-5.1561 2.28744,-5.1561c0,0 5.50828,-1.07736 8.7762,-0.70774c6.185,0.69955 6.29146,2.70906 6.29146,2.70906c0,0 0.00685,2.59308 0.56679,4.24633c0.20469,0.60434 2.13607,3.92959 2.13607,3.92959z" fill="#ffc500"/></g><path d="M255.53638,112.36172c0,0 -9.73735,-0.94971 -15.83604,0.79969c-6.09867,1.74942 -14.48922,7.89914 -14.48922,7.89914c0,0 0.02427,-8.41947 -1.43059,-11.40501c-2.63902,-5.41565 -6.96049,-7.51363 -2.55992,-12.21934c2.44663,-2.61629 15.51082,-3.31827 15.51082,-3.31827c0,0 5.85038,-4.68256 9.06512,-2.1668c8.25523,6.46033 9.73982,20.41059 9.73982,20.41059z" data-paper-data="{&quot;index&quot;:null}" fill="#fedeb5" stroke="none"/><path d="M235.15559,156.46853c0,0 7.03011,-10.39755 13.13804,-9.11661c6.10793,1.28093 6.34064,13.20161 6.34064,13.20161l-2.14312,1.13403c0,0 -0.49737,-10.16109 -5.19472,-11.14866c-4.69735,-0.98756 -11.1065,7.72151 -11.1065,7.72151z" fill="#000000" stroke="none"/><path d="M266.07142,165.21116l8.87175,-5.12117l4.43054,7.91087l-1.46356,0.77445l-3.84886,-6.10717l-7.28351,3.76671z" fill="#000000" stroke="none"/><g stroke="none"><g data-paper-data="{&quot;index&quot;:null}"><path d="M252.56661,203.17686c-3.34909,-6.92822 -3.08026,-13.93992 0.60045,-15.66102c3.6807,-1.7211 9.37956,2.5002 12.7285,9.42839c3.34909,6.92822 3.08026,13.93991 -0.60044,15.66102c-3.6807,1.7211 -9.37954,-2.50017 -12.72849,-9.42837z" fill="#9ad6ef"/><path d="M252.0526,187.82893c5.94993,-2.75258 10.97806,4.59716 10.97806,4.59716c0,0 0.04802,5.6447 -4.26597,9.07418c-3.0631,2.4351 -6.92369,-0.10351 -6.92369,-0.10351c0,0 -4.1132,-11.56713 0.21147,-13.5678z" fill="#eaec6e"/></g><path d="M287.59827,198.43356c0,0 2.70091,5.18584 -0.47492,4.71809c-7.40837,0.30044 -13.05559,-9.38154 -11.38203,-11.72851c2.12895,-2.98544 25.00796,1.16533 25.09802,6.33893c-2.43129,5.02109 -13.24115,0.67145 -13.24115,0.67145z" data-paper-data="{&quot;index&quot;:null}" fill="#d4a5b9"/><path d="M261.27841,192.87806c-3.31867,-0.3011 -8.16375,-2.92718 -10.79849,-5.12835c-5.14865,-4.30151 -7.25223,-11.42533 -2.20581,-15.22687c3.31559,-2.49758 9.193,-1.16863 10.4205,2.89174c0.45376,1.50105 0.61254,7.78088 2.54823,10.37592c3.27414,4.38943 9.13137,4.78806 9.13137,4.78806c0,0 -5.77709,2.60047 -9.09581,2.29951z" data-paper-data="{&quot;index&quot;:null}" fill="#9ad6ef"/><path d="M245.47904,179.5263c0,0 -0.50861,-6.94629 6.00808,-8.44448c7.34849,-1.68937 7.43778,6.38696 7.43778,6.38696c0,0 -0.74008,2.95232 -4.67559,4.12734c-5.28671,1.57845 -8.77035,-2.06984 -8.77035,-2.06984z" data-paper-data="{&quot;index&quot;:null}" fill="#eaec6e"/><path d="M284.47697,145.78155c5.6794,-1.16413 10.98218,-6.1327 11.25519,-6.06078c0.39645,0.10456 0.68122,1.37516 1.45768,2.26572c4.48837,5.14839 14.17147,21.27345 10.99947,33.32661c-1.44848,5.50414 -5.98214,23.29538 -32.82709,18.11085c-21.97252,-3.55516 -27.79176,-16.83832 -23.41968,-27.79306c7.05798,-17.68514 21.36189,-17.55915 32.5345,-19.84932z" fill="#9ad6ef"/><path d="M292.12029,142.24318c1.62651,-1.29496 2.97253,-2.79001 3.6303,-2.64625c0.62982,0.13759 2.24952,2.79818 4.01722,5.69388c1.70465,2.79247 3.3494,5.65418 3.3494,5.65418c0,0 -7.10954,0.02107 -10.37025,-1.82482c-2.30098,-1.30265 -5.01363,-4.4135 -5.01363,-4.4135c0,0 2.79796,-1.19839 4.38688,-2.46346z" fill="#eaec6e"/><path d="M269.75185,187.4995l-1.80434,-4.96105l2.17296,3.48703l5.20827,-1.4067z" fill="#000000"/><g><path d="M249.17358,196.18042c3.78558,-1.47617 9.19554,3.1095 12.08322,10.2423c2.88784,7.13281 2.16006,14.11182 -1.62552,15.588c-3.78558,1.47617 -9.19554,-3.10949 -12.08323,-10.24229c-2.88784,-7.13281 -2.16007,-14.11182 1.62552,-15.58801z" fill="#9ad6ef"/><path d="M248.04099,196.41979c6.11753,-2.35673 10.65318,5.30675 10.65318,5.30675c0,0 -0.32203,5.63572 -4.85149,8.7751c-3.21612,2.22913 -6.90203,-0.55704 -6.90203,-0.55704c0,0 -3.34629,-11.81183 1.10021,-13.52477z" fill="#eaec6e"/></g><path d="M269.75185,187.4995l-1.80434,-4.96105l2.17296,3.48703l5.20827,-1.4067z" fill="#000000"/><path d="M296.54096,135.58091c0,0 -1.66103,-3.16786 -2.92192,-5.87414c-1.32993,-2.85446 -3.01099,-5.16832 -0.74376,-7.9071c4.41342,-5.33133 6.25349,3.04176 6.25349,3.04176c0,0 5.37293,-6.48441 7.47287,-0.65289c1.32502,3.67958 -1.20866,5.21348 -4.00722,7.4488c-2.03656,1.62669 -6.05345,3.94358 -6.05345,3.94358z" fill="#eaec6e"/><path d="M269.75185,187.4995l-1.80434,-4.96105l2.17296,3.48703l5.20827,-1.4067z" fill="#000000"/><g fill="#d62c35"><path d="M260.93378,187.69635c0,0 0.19907,-1.31915 0.79085,-1.63252c1.67343,-0.88615 4.80624,-1.40901 6.02443,0.1253c1.3436,1.6923 -3.90812,3.73953 -3.90812,3.73953c0,0 -0.72549,3.17636 -1.34494,2.93995c-0.47635,-0.18178 -1.54315,-1.21791 -1.9256,-2.29507c-0.61121,-1.72137 0.36334,-2.87719 0.36334,-2.87719z"/><path d="M258.3101,186.12313c0.47703,-1.25005 1.32586,-1.52206 2.12804,-1.21593c0.8022,0.30611 1.8292,0.81708 1.01174,2.41412c-0.60069,1.2047 -1.10674,1.60568 -2.36283,1.12633c-1.25607,-0.47933 -1.15001,-1.34682 -0.77696,-2.3245z"/><path d="M257.4176,188.79462c-0.94397,0.57065 -1.98933,1.04724 -2.84079,0.53702c-0.81015,-0.48758 0.7925,-3.01759 0.7925,-3.01759c0,0 -1.56822,-4.62997 0.26645,-5.35807c1.24193,0.09559 2.8608,2.24945 3.56891,3.93406c0.25045,0.59571 -0.29991,1.5338 -0.29991,1.5338c0,0 0.02131,1.45879 -1.48716,2.37077z" data-paper-data="{&quot;index&quot;:null}"/></g><path d="M267.53251,166.4239l1.80434,4.96105l-2.17296,-3.48703l-5.20827,1.4067z" data-paper-data="{&quot;index&quot;:null}" fill="#000000"/><path d="M286.04625,173.2716l1.80434,4.96105l-2.17296,-3.48703l-5.20827,1.4067z" data-paper-data="{&quot;index&quot;:null}" fill="#000000"/><path d="M252.67497,193.80162c-6.64928,-0.8934 -12.01852,-6.57912 -9.77663,-12.48597c1.47294,-3.88092 6.98232,-5.98586 10.35735,-3.11033c3.41306,2.26419 4.14583,6.12608 4.14583,6.12608c0,0 3.53975,3.4358 5.27507,3.88562c2.60004,0.67401 8.29462,-0.52033 8.29462,-0.52033c0,0 -3.43969,2.73206 -6.40773,4.24711c-2.96801,1.51511 -7.28575,2.98087 -11.8885,1.85789z" data-paper-data="{&quot;index&quot;:null}" fill="#9ad6ef"/><path d="M243.41208,188.1139c0,0 -3.49359,-4.66974 1.59455,-9.66849c4.52806,-4.97281 10.6339,1.84022 10.6339,1.84022c0,0 -0.06298,3.65289 -3.50728,6.63593c-4.38761,3.7999 -8.72114,1.19227 -8.72114,1.19227z" data-paper-data="{&quot;index&quot;:null}" fill="#eaec6e"/><path d="M257.3594,196.43764c3.17912,-6.15769 11.13799,-8.37093 17.77673,-4.9434c6.6387,3.42751 9.44329,11.19771 6.26416,17.35531c-3.17912,6.15769 -11.13798,8.37094 -17.77672,4.94341c-6.6387,-3.42751 -9.4433,-11.19771 -6.26417,-17.35531z" fill="#9ad6ef"/><path d="M280.62307,208.82304c-8.47606,-1.67495 -10.33212,-12.82459 -8.0939,-14.64091c2.84727,-2.31048 23.88023,6.95709 20.95182,14.3063c-2.38806,5.16288 -11.39047,-4.39098 -11.39047,-4.39098c0,0 2.07796,5.52825 -1.46745,4.72561z" data-paper-data="{&quot;index&quot;:null}" fill="#d4a5b9"/></g><path d="M244.91805,188.89256c4.16311,1.04361 12.2301,3.28148 12.2301,3.28148c0,0 3.76522,4.39951 -4.62945,6.68131c-2.90203,0.78884 -13.43085,-5.9371 -14.1123,-6.18337c-4.35589,-1.57434 -5.54996,-14.61736 -0.56354,-14.51251c3.86365,0.08124 2.97479,2.69976 3.21059,5.52208c0.22541,2.69795 -0.29849,4.16741 3.8646,5.21101z" data-paper-data="{&quot;index&quot;:null}" fill="#fde1c0" stroke="none"/><path d="M284.7414,191.05571c0,0 10.10901,6.65477 6.49117,11.2171c-1.20159,1.51527 -3.59711,2.14325 -3.59711,2.14325c0,0 0.1909,2.48794 -0.5052,3.87485c-0.69617,1.38684 -2.65117,2.41354 -2.65117,2.41354c0,0 -0.2301,2.69535 -0.97309,3.86609c-0.74306,1.17074 -2.62653,1.80571 -2.62653,1.80571c0,0 -1.82049,6.67035 -14.31034,-0.091c-2.44932,-1.32598 1.1529,-4.0722 1.1529,-4.0722c0,0 -10.53017,-7.68021 -4.94685,-15.78453c8.63587,-12.53535 18.903,-10.01841 18.903,-10.01841l3.06321,4.64551z" data-paper-data="{&quot;index&quot;:null}" fill="#ffffff" stroke="#000000"/><path d="M261.0594,206.28057c-1.4205,1.35861 -3.02672,0.65383 -4.53979,0.18513c-1.51303,-0.46864 -4.35321,-2.47523 -4.35321,-2.47523c0,0 -1.24195,-4.10978 0.57673,-7.10626c2.63542,-4.34208 7.20551,-7.08837 7.20551,-7.08837c0,0 4.21642,-0.38598 5.64648,2.27294c0.90029,1.67398 -0.31855,10.17851 -4.53572,14.21188z" data-paper-data="{&quot;index&quot;:null}" fill="#fefefe" stroke="none"/><path d="M276.19698,190.30189c0,0 2.66658,-0.77819 4.69762,-0.3437c1.56999,0.3359 3.66324,1.10512 3.66324,1.10512c0,0 -3.03756,-0.32909 -4.55787,-0.41851c-1.52032,-0.08944 -3.80298,-0.34283 -3.80298,-0.34283z" data-paper-data="{&quot;index&quot;:null}" fill="#000000" stroke="none"/><path d="M275.47623,213.40244c0,0 -2.69844,0.50694 -4.67618,-0.12747c-1.5287,-0.49048 -3.46653,-1.17335 -3.46653,-1.17335c0,0 2.50213,0.3466 4.00602,0.58688c1.5039,0.24021 4.13677,0.71389 4.13677,0.71389z" data-paper-data="{&quot;index&quot;:null}" fill="#000000" stroke="none"/><path d="M259.044,201.58979c0.27298,1.81079 -0.76482,2.78385 -1.76229,2.83013c-0.99754,0.04635 -2.88103,-1.18893 -3.15399,-2.99971c-0.27289,-1.81083 0.81068,-2.3701 1.80637,-2.44588c1.7661,-0.13443 2.83698,0.8046 3.10994,2.61537z" data-paper-data="{&quot;index&quot;:null}" fill="#f7e300" stroke="none"/><path d="M238.937,174.11458l-4.1531,-6.79438c0,0 2.40824,4.01914 4.99798,4.74903c2.58974,0.72989 8.58257,-0.92149 8.58257,-0.92149z" fill="#000000" stroke="none"/></g></g></svg>