<svg version="1.1" xmlns="http://www.w3.org/2000/svg" xmlns:xlink="http://www.w3.org/1999/xlink" width="465.00502" height="109.01037" viewBox="0,0,465.00502,109.01037"><g transform="translate(-7.49748,-7.71052)"><g data-paper-data="{&quot;isPaintingLayer&quot;:true}" fill-rule="nonzero" stroke="none" stroke-width="0.26459" stroke-linecap="butt" stroke-linejoin="miter" stroke-miterlimit="4" stroke-dasharray="" stroke-dashoffset="0" style="mix-blend-mode: normal"><path d="M16.33088,38.62745v-21.3474h-8.8334v-9.56952h27.97243v9.56952h-8.8334v21.3474z" fill="#f8b820"/><path d="M39.15052,38.62745l9.20147,-30.91692h16.56263l9.20145,30.91692h-10.67368l-1.8403,-5.88893h-10.30563l-1.47223,5.88893zM59.39373,24.64122l-2.76044,-9.20145l-2.76044,9.20145z" fill="#f8b820"/><path d="M77.79663,38.62745v-30.91692h12.88205v30.91692z" fill="#f8b820"/><path d="M94.35928,38.62745v-30.91692h11.04177v22.0835h14.72233v8.83342z" fill="#f8b820"/><path d="M126.74843,38.62745c-1.22687,-0.24537 -2.20835,-0.49075 -2.94447,-0.73612l1.47223,-7.36118l4.4167,0.36807c3.43522,0.24537 6.1343,0.24537 8.09728,0c0.98148,-0.49075 1.47223,-1.22687 1.47223,-2.20835c-0.24537,-0.98148 -2.45372,-1.47223 -6.62505,-1.47223c-3.68058,-0.49075 -6.257,-1.8403 -7.72923,-4.04865c-0.73612,-1.7176 -1.10417,-3.68058 -1.10417,-5.88893c0,-3.43522 1.22687,-6.01162 3.68058,-7.72922c1.7176,-1.22687 4.78475,-1.8403 9.20145,-1.8403c4.4167,0 8.83342,0.36807 13.25012,1.10418l-1.47223,6.9931c-5.15282,-0.24537 -8.71072,-0.36805 -10.6737,-0.36805c-1.7176,0.24537 -2.57642,0.8588 -2.57642,1.84028c-0.24537,1.7176 1.10418,2.57642 4.04865,2.57642c4.17133,0 7.23848,0.73612 9.20147,2.20835c1.47223,1.22687 2.20835,3.31252 2.20835,6.25698c0,2.55186 -0.61343,4.76023 -1.8403,6.62507c-1.22687,2.20835 -4.294,3.55788 -9.20145,4.04863c-4.17133,0.24537 -8.46535,0.1227 -12.88205,-0.36805z" fill="#f8b820"/><path d="M173.19741,38.62745l9.20147,-30.91692h16.56261l9.20147,30.91692h-10.6737l-1.84028,-5.88893h-10.30563l-1.47223,5.88893zM193.44062,24.64122l-2.76044,-9.20145l-2.76044,9.20145z" fill="#ffffff"/><path d="M211.84355,38.62745v-30.91692h12.51396l8.0973,13.80219v-13.80219h11.04177v30.91692h-12.514l-8.0973,-13.36053v13.36053z" fill="#ffffff"/><path d="M261.89948,29.79404c1.7176,0 3.06715,-0.49075 4.04865,-1.47223c0.9815,-0.98148 1.47223,-2.45372 1.47223,-4.4167v-1.84028c0,-1.96298 -0.49073,-3.49656 -1.47223,-4.60074c-0.9815,-1.10417 -2.33105,-1.65626 -4.04865,-1.65626h-3.6806v13.98622zM247.17715,7.71053h14.72233c5.1528,0 9.20145,1.41089 12.14592,4.23267c2.94447,2.82178 4.4167,6.68639 4.4167,11.59384c0,4.17133 -1.47223,7.72923 -4.4167,10.6737c-2.94447,2.94447 -6.99312,4.4167 -12.14592,4.4167h-14.72233z" fill="#ffffff"/><path d="M300.98729,23.53706c0,-4.90745 1.47223,-8.77206 4.4167,-11.59384c2.94447,-2.82178 6.99312,-4.23267 12.14595,-4.23267c4.4167,0 7.48385,0.12268 9.20145,0.36807l-3.31252,10.30563l-0.73613,-0.73612c-1.47223,-0.98148 -3.31252,-1.10418 -5.52085,-0.36807c-2.45373,1.47223 -4.29402,3.06717 -5.52088,4.78477c-1.22687,1.47223 -1.47227,3.31252 -0.73613,5.52087l0.73613,0.73612c1.22687,1.7176 3.31252,2.20835 6.25698,1.47223c2.45373,-1.47223 4.29402,-3.06715 5.52088,-4.78475l4.4167,12.88205c-1.7176,0.98148 -5.15283,1.47223 -10.30563,1.47223c-5.15283,0 -9.20148,-1.59493 -12.14595,-4.78477c-2.94447,-3.18983 -4.4167,-6.87042 -4.4167,-11.04175z" fill="#54c81c"/><path d="M331.53614,23.53706c0,-4.90745 1.47223,-8.77206 4.4167,-11.59384c2.94447,-2.82178 6.99312,-4.23267 12.14592,-4.23267c5.15283,0 9.20148,1.41089 12.14595,4.23267c2.94447,2.82178 4.4167,6.68639 4.4167,11.59384c0,4.17133 -1.47223,7.85192 -4.4167,11.04175c-2.94447,3.18983 -6.99312,4.78477 -12.14595,4.78477c-5.1528,0 -9.20145,-1.59493 -12.14592,-4.78477c-2.94447,-3.18983 -4.4167,-6.87042 -4.4167,-11.04175zM347.73071,17.28006c-2.45373,1.47223 -4.29402,3.06717 -5.52088,4.78477c-1.22687,1.47223 -1.47223,3.31252 -0.7361,5.52087l0.7361,0.73612c1.22687,1.7176 3.31252,2.20835 6.25698,1.47223c2.45373,-1.47223 4.29402,-3.06715 5.52088,-4.78475c1.47223,-1.96298 1.47223,-4.17133 0,-6.62505l-0.7361,-0.73612c-1.47223,-0.98148 -3.31255,-1.10418 -5.52088,-0.36807z" fill="#54c81c"/><path d="M371.28647,38.62745c-1.22687,-0.24537 -2.20837,-0.49075 -2.94447,-0.73612l1.47223,-7.36118l4.4167,0.36807c3.4352,0.24537 6.1343,0.24537 8.09726,0c0.9815,-0.49075 1.47223,-1.22687 1.47223,-2.20835c-0.24537,-0.98148 -2.4537,-1.47223 -6.62503,-1.47223c-3.6806,-0.49075 -6.25702,-1.8403 -7.72925,-4.04865c-0.7361,-1.7176 -1.10415,-3.68058 -1.10415,-5.88893c0,-3.43522 1.22687,-6.01162 3.68057,-7.72922c1.7176,-1.22687 4.78478,-1.8403 9.20148,-1.8403c4.4167,0 8.8334,0.36807 13.2501,1.10418l-1.47223,6.9931c-5.15283,-0.24537 -8.71075,-0.36805 -10.67372,-0.36805c-1.7176,0.24537 -2.57638,0.8588 -2.57638,1.84028c-0.24537,1.7176 1.10415,2.57642 4.04861,2.57642c4.17133,0 7.23852,0.73612 9.20148,2.20835c1.47223,1.22687 2.20833,3.31252 2.20833,6.25698c0,2.55186 -0.61342,4.76023 -1.84028,6.62507c-1.22687,2.20835 -4.29402,3.55788 -9.20145,4.04863c-4.17133,0.24537 -8.46535,0.1227 -12.88205,-0.36805z" fill="#54c81c"/><path d="M398.89086,38.62745l5.52088,-30.91692h8.8334l4.04865,12.51398l4.04861,-12.51398h8.8334l5.52088,30.91692h-9.20145l-2.20837,-13.61817l-2.94447,13.61817h-8.09726l-2.94447,-13.61817l-2.20837,13.61817z" fill="#54c81c"/><path d="M439.37724,23.53706c0,-4.90745 1.47223,-8.77206 4.4167,-11.59384c2.94447,-2.82178 6.99312,-4.23267 12.14595,-4.23267c5.1528,0 9.20145,1.41089 12.14592,4.23267c2.94447,2.82178 4.4167,6.68639 4.4167,11.59384c0,4.17133 -1.47223,7.85192 -4.4167,11.04175c-2.94447,3.18983 -6.99312,4.78477 -12.14592,4.78477c-5.15283,0 -9.20148,-1.59493 -12.14595,-4.78477c-2.94447,-3.18983 -4.4167,-6.87042 -4.4167,-11.04175zM455.57182,17.28006c-2.4537,1.47223 -4.29398,3.06717 -5.52085,4.78477c-1.22687,1.47223 -1.47227,3.31252 -0.73613,5.52087l0.73613,0.73612c1.22687,1.7176 3.31252,2.20835 6.25698,1.47223c2.45373,-1.47223 4.29402,-3.06715 5.52088,-4.78475c1.47223,-1.96298 1.47223,-4.17133 0,-6.62505l-0.73613,-0.73612c-1.47223,-0.98148 -3.31252,-1.10418 -5.52088,-0.36807z" fill="#54c81c"/><g fill="#ffffff"><path d="M17.10382,78.37086v-30.91692h11.04175v10.6737h7.36117v-10.6737h11.04175v30.91692h-11.04175v-10.6737h-7.36117v10.6737z"/><path d="M50.22907,78.37086l9.20147,-30.91692h16.56263l9.20145,30.91692h-10.67368l-1.8403,-5.88895h-9.93758l-1.84028,5.88895zM70.47229,64.38463l-2.76044,-9.20145l-2.76044,9.20145z"/><path d="M88.8752,47.45395h10.30563l4.78477,22.45157l4.78477,-22.45157h10.30563l-7.72923,30.91692h-14.72233z"/><path d="M122.73658,78.37086v-30.91692h25.7641v8.8334h-14.72235v2.20835h14.72235v8.8334h-14.72235v2.20835h14.72235v8.83342z"/><path d="M171.02586,63.28047c0,-4.90745 1.47223,-8.77206 4.4167,-11.59384c2.94447,-2.82178 6.9931,-4.23267 12.14592,-4.23267c4.4167,0 7.48387,0.12268 9.20147,0.36805l-3.31252,10.30565l-0.73612,-0.73612c-1.47223,-0.98148 -3.31253,-1.10418 -5.52088,-0.36807c-2.45372,1.47223 -4.29402,3.06717 -5.52088,4.78477c-1.22687,1.47223 -1.47223,3.31252 -0.73612,5.52087l0.73612,0.73612c1.22687,1.7176 3.31253,2.20835 6.257,1.47223c2.45372,-1.47223 4.29402,-3.06715 5.52088,-4.78475l4.4167,12.88205c-1.7176,0.98148 -5.15283,1.47223 -10.30565,1.47223c-5.15282,0 -9.20145,-1.59493 -12.14592,-4.78477c-2.94447,-3.18983 -4.4167,-6.87042 -4.4167,-11.04175z"/><path d="M201.57471,63.28047c0,-4.90745 1.47223,-8.77206 4.4167,-11.59384c2.94447,-2.82178 6.99312,-4.23267 12.14595,-4.23267c5.1528,0 9.20145,1.41089 12.14592,4.23267c2.94447,2.82178 4.4167,6.68639 4.4167,11.59384c0,4.17133 -1.47223,7.85192 -4.4167,11.04175c-2.94447,3.18983 -6.99312,4.78477 -12.14592,4.78477c-5.15283,0 -9.20148,-1.59493 -12.14595,-4.78477c-2.94447,-3.18983 -4.4167,-6.87042 -4.4167,-11.04175zM217.76927,57.02347c-2.4537,1.47223 -4.294,3.06717 -5.52087,4.78477c-1.22687,1.47223 -1.47223,3.31252 -0.73612,5.52087l0.73612,0.73612c1.22687,1.7176 3.31253,2.20835 6.257,1.47223c2.4537,-1.47223 4.29402,-3.06715 5.52088,-4.78475c1.47223,-1.96298 1.47223,-4.17133 0,-6.62505l-0.73613,-0.73612c-1.47223,-0.98148 -3.31252,-1.10418 -5.52088,-0.36807z"/><path d="M238.38054,78.37086l5.52088,-30.91692h8.8334l4.04865,12.51398l4.04865,-12.51398h8.8334l5.52088,30.91692h-9.20148l-2.20833,-13.61817l-2.94447,13.61817h-8.0973l-2.94447,-13.61817l-2.20833,13.61817z"/><path d="M278.86697,78.37086v-30.91692h18.03488c7.36117,0 11.04173,2.6991 11.04173,8.09728v1.47223c0,5.88893 -3.68057,8.8334 -11.04173,8.8334h-7.36117v12.514zM293.95739,59.96793c1.96297,0 2.94447,-0.98148 2.94447,-2.94447v-1.47223c0,-1.47223 -0.9815,-2.20835 -2.94447,-2.20835h-4.4167v6.62505z"/><path d="M311.62417,78.37086v-30.91692h11.04173v22.0835h14.72233v8.83342z"/><path d="M341.06885,78.37086v-30.91692h25.7641v8.8334h-14.72233v2.20835h14.72233v8.8334h-14.72233v2.20835h14.72233v8.83342z"/><path d="M379.34691,78.37086v-21.3474h-8.8334v-9.56952h27.97247v9.56952h-8.8334v21.3474z"/><path d="M402.16655,78.37086v-30.91692h25.7641v8.8334h-14.72233v2.20835h14.72233v8.8334h-14.72233v2.20835h14.72233v8.83342z"/><path d="M446.33358,69.53745c1.7176,0 3.06715,-0.49075 4.04865,-1.47223c0.9815,-0.98148 1.47223,-2.45372 1.47223,-4.4167v-1.84028c0,-1.96298 -0.49073,-3.49658 -1.47223,-4.60074c-0.9815,-1.10418 -2.33105,-1.65626 -4.04865,-1.65626h-3.6806v13.98622zM431.61125,47.45395h14.72233c5.1528,0 9.20145,1.41089 12.14592,4.23267c2.94447,2.82178 4.4167,6.68639 4.4167,11.59384c0,4.17133 -1.47223,7.72922 -4.4167,10.67368c-2.94447,2.94447 -6.99312,4.41672 -12.14592,4.41672h-14.72233z"/></g><g fill="#d6ff00"><path d="M145.55622,116.7209v-30.9169h11.04175v22.0835h14.72233v8.8334z"/><path d="M175.00089,116.7209v-30.9169h25.7641v8.8334h-14.72235v2.20835h14.72235v8.8334h-14.72235v2.20835h14.72235v8.8334z"/><path d="M204.44557,85.804h10.30563l4.78475,22.45157l4.78477,-22.45157h10.30563l-7.72922,30.9169h-14.72235z"/><path d="M238.30693,116.7209v-30.9169h25.7641v8.8334h-14.72235v2.20835h14.72235v8.8334h-14.72235v2.20835h14.72235v8.8334z"/><path d="M267.75162,116.7209v-30.9169h11.04175v22.0835h14.72233v8.8334z"/><path d="M334.44381,85.804v30.9169h-9.20147v-20.61127c-3.43522,2.45372 -6.50237,3.92595 -9.20147,4.4167v-6.99312c1.7176,-0.24537 3.43522,-1.04282 5.15282,-2.39237c1.7176,-1.34955 3.06717,-3.12849 4.04865,-5.33684z"/></g></g></g></svg>