<svg version="1.1" xmlns="http://www.w3.org/2000/svg" xmlns:xlink="http://www.w3.org/1999/xlink" width="622.37312" height="376.8048" viewBox="0,0,622.37312,376.8048"><defs><radialGradient cx="240" cy="179.99999" r="249" gradientUnits="userSpaceOnUse" id="color-1"><stop offset="0" stop-color="#000000" stop-opacity="0"/><stop offset="1" stop-color="#000000"/></radialGradient></defs><g transform="translate(133.37312,8.4024)"><g data-paper-data="{&quot;isPaintingLayer&quot;:true}" fill-rule="nonzero" stroke="none" stroke-linejoin="miter" stroke-miterlimit="10" stroke-dasharray="" stroke-dashoffset="0" style="mix-blend-mode: normal"><path d="M-9,368.4024v-376.8048h498v376.8048z" fill="#000000" stroke-width="0" stroke-linecap="butt"/><text transform="translate(-133.12312,46.36641) scale(0.5,0.5)" font-size="40" xml:space="preserve" fill="#000000" fill-rule="nonzero" stroke="none" stroke-width="1" stroke-linecap="butt" stroke-linejoin="miter" stroke-miterlimit="10" stroke-dasharray="" stroke-dashoffset="0" font-family="Sans Serif" font-weight="normal" text-anchor="start" style="mix-blend-mode: normal"><tspan x="0" dy="0"> </tspan></text><path d="M92.03917,87.61199v-12.78375h-5.28982v-5.73064h16.75111v5.73064h-5.28982v12.78375z" fill="#ffffff" stroke-width="0.26459" stroke-linecap="butt"/><path d="M105.70455,79.89765v-10.80006h6.17146v10.80006c0,1.76327 0.73471,2.64491 2.2041,2.64491h0.44082c1.32246,0 1.98368,-0.88164 1.98368,-2.64491v-10.80006h5.73064v10.80006c0,5.28982 -2.64491,7.93474 -7.93474,7.93474c-5.73064,0 -8.59597,-2.64491 -8.59597,-7.93474z" fill="#ffffff" stroke-width="0.26459" stroke-linecap="butt"/><path d="M124.43935,87.61199v-18.51439h10.80006c4.40819,0 6.61228,1.61634 6.61228,4.84901v0.88164c0,2.35103 -0.95511,3.8939 -2.86532,4.62859c0.58775,0.29388 1.17552,0.95512 1.76327,1.9837l1.76327,6.17146h-6.61228l-1.32247,-5.06942c-0.29388,-1.32246 -1.10204,-1.98368 -2.4245,-1.98368h-1.32246v7.0531zM133.47614,76.59151c1.17552,0 1.76327,-0.58775 1.76327,-1.76327v-0.88164c0,-0.88164 -0.58775,-1.32246 -1.76327,-1.32246h-2.64491v3.96737z" fill="#ffffff" stroke-width="0.26459" stroke-linecap="butt"/><path d="M153.7538,84.08544c1.17552,0 1.76327,-0.58775 1.76327,-1.76327v-0.88164c0,-0.88165 -0.58775,-1.32247 -1.76327,-1.32247h-2.64491v3.96738zM144.71702,69.09759h10.80006c4.40819,0 6.61228,1.61634 6.61228,4.84901v0.88164c0,1.4694 -0.66122,2.64492 -1.98368,3.52655c1.32246,0.73469 1.98368,1.76327 1.98368,3.08574v0.88164c0,3.52655 -2.20409,5.28982 -6.61228,5.28982h-10.80006zM155.51708,74.82823v-0.88164c0,-0.88164 -0.58775,-1.32246 -1.76327,-1.32246h-2.64491v3.96737h2.64491c1.17552,0 1.76327,-0.58775 1.76327,-1.76327z" fill="#ffffff" stroke-width="0.26459" stroke-linecap="butt"/><path d="M164.33345,78.57519c0,-2.93878 0.88164,-5.25308 2.64491,-6.94289c1.76327,-1.68981 4.18778,-2.53471 7.27351,-2.53471c3.08573,0 5.51024,0.8449 7.27351,2.53471c1.76327,1.68981 2.64491,4.0041 2.64491,6.94289c0,2.49799 -0.88164,4.70208 -2.64491,6.61229c-1.76327,1.91021 -4.18778,2.86532 -7.27351,2.86532c-3.08573,0 -5.51024,-0.95511 -7.27351,-2.86532c-1.76327,-1.91021 -2.64491,-4.1143 -2.64491,-6.61229zM174.03146,74.82823c-1.46939,0.88165 -2.57143,1.83675 -3.30613,2.86532c-0.7347,0.88165 -0.88164,1.98369 -0.44082,3.30615l0.44082,0.44083c0.7347,1.02858 1.98368,1.32246 3.74695,0.88164c1.46939,-0.88165 2.57144,-1.83675 3.30615,-2.86534c0.88164,-1.17552 0.88164,-2.49797 0,-3.96736l-0.44082,-0.44082c-0.88164,-0.58775 -1.98369,-0.66123 -3.30615,-0.22041z" fill="#ffffff" stroke-width="0.26459" stroke-linecap="butt"/><path d="M197.65935,87.61199l3.30613,-18.51439h5.28983l2.4245,7.49392l2.42451,-7.49392h5.28982l3.30615,18.51439h-5.51024l-1.32246,-8.15516l-1.76327,8.15516h-4.84901l-1.76327,-8.15516l-1.32246,8.15516z" fill="#ffffff" stroke-width="0.26459" stroke-linecap="butt"/><path d="M221.90439,78.57519c0,-2.93878 0.88164,-5.25308 2.64491,-6.94289c1.76327,-1.68981 4.18777,-2.53471 7.2735,-2.53471c3.08573,0 5.51024,0.8449 7.27352,2.53471c1.76327,1.68981 2.64491,4.0041 2.64491,6.94289c0,2.49799 -0.88164,4.70208 -2.64491,6.61229c-1.76329,1.91021 -4.18779,2.86532 -7.27352,2.86532c-3.08573,0 -5.51023,-0.95511 -7.2735,-2.86532c-1.76327,-1.91021 -2.64491,-4.1143 -2.64491,-6.61229zM231.6024,74.82823c-1.4694,0.88165 -2.57145,1.83675 -3.30615,2.86532c-0.73469,0.88165 -0.88163,1.98369 -0.44081,3.30615l0.44081,0.44083c0.73469,1.02858 1.98368,1.32246 3.74695,0.88164c1.4694,-0.88165 2.57145,-1.83675 3.30615,-2.86534c0.88165,-1.17552 0.88165,-2.49797 0,-3.96736l-0.44081,-0.44082c-0.88165,-0.58775 -1.98369,-0.66123 -3.30615,-0.22041z" fill="#ffffff" stroke-width="0.26459" stroke-linecap="butt"/><path d="M252.76169,82.32216c1.02858,0 1.83675,-0.29388 2.42451,-0.88164c0.58775,-0.58775 0.88164,-1.46939 0.88164,-2.64491v-1.10206c0,-1.17552 -0.29388,-2.09389 -0.88164,-2.75511c-0.58775,-0.66122 -1.39592,-0.99184 -2.42451,-0.99184h-2.20408v8.37556zM243.94532,69.09759h8.81637c3.08574,0 5.51025,0.8449 7.27352,2.53471c1.76327,1.68981 2.64491,4.0041 2.64491,6.94289c0,2.49799 -0.88164,4.62861 -2.64491,6.39189c-1.76327,1.76327 -4.18778,2.64491 -7.27352,2.64491h-8.81637z" fill="#ffffff" stroke-width="0.26459" stroke-linecap="butt"/><path d="M264.88421,87.61199v-18.51439h15.42866v5.28982h-8.81637v1.32246h8.81637v5.28982h-8.81637v1.32247h8.81637v5.28982z" fill="#ffffff" stroke-width="0.26459" stroke-linecap="butt"/><path d="M293.80192,87.61199v-18.51439h7.71433v18.51439z" fill="#ffffff" stroke-width="0.26459" stroke-linecap="butt"/><path d="M305.48363,87.61199c-0.73469,-0.14694 -1.32246,-0.29388 -1.76327,-0.44083l0.88164,-4.40819l2.64491,0.22043c2.05715,0.14694 3.67347,0.14694 4.84899,0c0.58775,-0.29388 0.88164,-0.73471 0.88164,-1.32247c-0.14694,-0.58775 -1.46939,-0.88164 -3.96736,-0.88164c-2.20409,-0.29388 -3.74696,-1.10205 -4.62859,-2.42451c-0.44082,-1.02858 -0.66123,-2.20409 -0.66123,-3.52655c0,-2.05716 0.73469,-3.60002 2.20408,-4.62859c1.02858,-0.7347 2.86533,-1.10205 5.51025,-1.10205c2.6449,0 5.28981,0.22041 7.93474,0.66123l-0.88164,4.18777c-3.08574,-0.14694 -5.21637,-0.2204 -6.39189,-0.2204c-1.02856,0.14694 -1.54285,0.51429 -1.54285,1.10204c-0.14695,1.02858 0.66121,1.54287 2.42449,1.54287c2.49799,0 4.33473,0.44082 5.51025,1.32245c0.88163,0.73471 1.32245,1.9837 1.32245,3.74697c0,1.52817 -0.36735,2.85061 -1.10204,3.96736c-0.73469,1.32247 -2.57143,2.13064 -5.51023,2.42451c-2.49799,0.14694 -5.06943,0.07347 -7.71433,-0.2204z" fill="#ffffff" stroke-width="0.26459" stroke-linecap="butt"/><path d="M333.29929,87.61199v-18.51439h7.49391l4.84902,8.26536v-8.26536h6.61229v18.51439h-7.49393l-4.84902,-8.00087v8.00087z" fill="#ffffff" stroke-width="0.26459" stroke-linecap="butt"/><path d="M354.45859,78.57519c0,-2.93878 0.88164,-5.25308 2.64491,-6.94289c1.76327,-1.68981 4.18778,-2.53471 7.27352,-2.53471c3.08573,0 5.51023,0.8449 7.2735,2.53471c1.76327,1.68981 2.64491,4.0041 2.64491,6.94289c0,2.49799 -0.88164,4.70208 -2.64491,6.61229c-1.76327,1.91021 -4.18777,2.86532 -7.2735,2.86532c-3.08574,0 -5.51025,-0.95511 -7.27352,-2.86532c-1.76327,-1.91021 -2.64491,-4.1143 -2.64491,-6.61229zM364.1566,74.82823c-1.46939,0.88165 -2.57143,1.83675 -3.30612,2.86532c-0.73471,0.88165 -0.88165,1.98369 -0.44083,3.30615l0.44083,0.44083c0.73469,1.02858 1.98368,1.32246 3.74695,0.88164c1.4694,-0.88165 2.57145,-1.83675 3.30615,-2.86534c0.88163,-1.17552 0.88163,-2.49797 0,-3.96736l-0.44083,-0.44082c-0.88163,-0.58775 -1.98368,-0.66123 -3.30615,-0.22041z" fill="#ffffff" stroke-width="0.26459" stroke-linecap="butt"/><path d="M381.78937,87.61199v-12.78375h-5.28982v-5.73064h16.75111v5.73064h-5.28982v12.78375z" fill="#ffffff" stroke-width="0.26459" stroke-linecap="butt"/><path d="M153.70972,115.82438v-18.51438h10.80006c4.40819,0 6.61228,1.61634 6.61228,4.84902v0.88164c0,3.52655 -2.20409,5.28982 -6.61228,5.28982h-4.4082v7.49391zM162.7465,104.80392c1.17552,0 1.76329,-0.58775 1.76329,-1.76327v-0.88164c0,-0.88165 -0.58777,-1.32247 -1.76329,-1.32247h-2.64491v3.96738z" fill="#ffffff" stroke-width="0.26459" stroke-linecap="butt"/><path d="M173.32616,115.82438v-18.51438h15.42865v5.28982h-8.81637v1.32247h8.81637v5.28982h-8.81637v1.32245h8.81637v5.28982z" fill="#ffffff" stroke-width="0.26459" stroke-linecap="butt"/><path d="M190.95891,115.82438v-18.51438h10.80005c4.40819,0 6.61229,1.61634 6.61229,4.84902v0.88164c0,2.35103 -0.95512,3.8939 -2.86533,4.62859c0.58775,0.29387 1.17552,0.95509 1.76327,1.98368l1.76327,6.17146h-6.61228l-1.32246,-5.06942c-0.29388,-1.32246 -1.10205,-1.98368 -2.42451,-1.98368h-1.32246v7.0531zM199.99569,104.80392c1.17552,0 1.76327,-0.58775 1.76327,-1.76327v-0.88164c0,-0.88165 -0.58775,-1.32247 -1.76327,-1.32247h-2.64491v3.96738z" fill="#ffffff" stroke-width="0.26459" stroke-linecap="butt"/><path d="M211.23657,115.82438l3.30615,-18.51438h5.28982l2.4245,7.49393l2.42451,-7.49393h5.28982l3.30615,18.51438h-5.51023l-1.32247,-8.15514l-1.76327,8.15514h-4.84901l-1.76327,-8.15514l-1.32246,8.15514z" fill="#ffffff" stroke-width="0.26459" stroke-linecap="butt"/><path d="M235.48162,115.82438v-18.51438h7.71431v18.51438z" fill="#ffffff" stroke-width="0.26459" stroke-linecap="butt"/><path d="M250.68985,115.82438v-12.78373h-5.28982v-5.73065h16.75111v5.73065h-5.28982v12.78373z" fill="#ffffff" stroke-width="0.26459" stroke-linecap="butt"/><path d="M269.64507,115.82438v-12.78373h-5.28982v-5.73065h16.75111v5.73065h-5.28982v12.78373z" fill="#ffffff" stroke-width="0.26459" stroke-linecap="butt"/><path d="M283.31043,115.82438v-18.51438h15.42866v5.28982h-8.81637v1.32247h8.81637v5.28982h-8.81637v1.32245h8.81637v5.28982z" fill="#ffffff" stroke-width="0.26459" stroke-linecap="butt"/><path d="M309.75957,110.53456c1.02858,0 1.83675,-0.29388 2.42451,-0.88164c0.58775,-0.58775 0.88164,-1.46939 0.88164,-2.64491v-1.10204c0,-1.17552 -0.29388,-2.09389 -0.88164,-2.75512c-0.58775,-0.66122 -1.39592,-0.99183 -2.42451,-0.99183h-2.20408v8.37554zM300.9432,97.31h8.81637c3.08574,0 5.51025,0.8449 7.27352,2.5347c1.76327,1.68982 2.64491,4.00411 2.64491,6.94291c0,2.49797 -0.88164,4.62859 -2.64491,6.39186c-1.76327,1.76327 -4.18778,2.64491 -7.27352,2.64491h-8.81637z" fill="#ffffff" stroke-width="0.26459" stroke-linecap="butt"/><path d="M326.29028,112.07743v3.74695h-4.40819v-3.74695z" fill="#ffffff" stroke-width="0.26459" stroke-linecap="butt"/><path d="M69.00639,189.03679v-12.78375h-5.28982v-5.73065h16.75111v5.73065h-5.28982v12.78375z" fill="#ffffff" stroke-width="0.26459" stroke-linecap="butt"/><path d="M82.67177,181.32246v-10.80007h6.17146v10.80007c0,1.76327 0.73471,2.64491 2.2041,2.64491h0.44082c1.32246,0 1.98368,-0.88164 1.98368,-2.64491v-10.80007h5.73064v10.80007c0,5.28982 -2.64491,7.93474 -7.93474,7.93474c-5.73064,0 -8.59597,-2.64491 -8.59597,-7.93474z" fill="#ffffff" stroke-width="0.26459" stroke-linecap="butt"/><path d="M101.40657,189.03679v-18.5144h10.80006c4.40819,0 6.61228,1.61634 6.61228,4.84902v0.88164c0,2.35103 -0.95511,3.8939 -2.86532,4.62859c0.58775,0.29388 1.17552,0.95512 1.76327,1.9837l1.76327,6.17146h-6.61228l-1.32247,-5.06942c-0.29388,-1.32246 -1.10204,-1.98368 -2.4245,-1.98368h-1.32246v7.0531zM110.44335,178.01632c1.17552,0 1.76327,-0.58775 1.76327,-1.76327v-0.88164c0,-0.88165 -0.58775,-1.32247 -1.76327,-1.32247h-2.64491v3.96738z" fill="#ffffff" stroke-width="0.26459" stroke-linecap="butt"/><path d="M121.68423,189.03679v-18.5144h7.49392l4.84901,8.26535v-8.26535h6.61229v18.5144h-7.49393l-4.84901,-8.00087v8.00087z" fill="#ffffff" stroke-width="0.26459" stroke-linecap="butt"/><path d="M154.1285,179.99999c0,-2.93879 0.88164,-5.25309 2.64491,-6.94289c1.76327,-1.68982 4.18778,-2.53472 7.27351,-2.53472c3.08573,0 5.51023,0.8449 7.2735,2.53472c1.76327,1.6898 2.64491,4.00409 2.64491,6.94289c0,2.49799 -0.88164,4.70208 -2.64491,6.61229c-1.76327,1.91021 -4.18777,2.86532 -7.2735,2.86532c-3.08573,0 -5.51024,-0.95511 -7.27351,-2.86532c-1.76327,-1.91021 -2.64491,-4.1143 -2.64491,-6.61229zM163.82651,176.25304c-1.46939,0.88165 -2.57144,1.83675 -3.30615,2.86532c-0.7347,0.88165 -0.88164,1.98369 -0.44082,3.30615l0.44082,0.44083c0.7347,1.02856 1.98369,1.32245 3.74696,0.88164c1.46939,-0.88165 2.57144,-1.83675 3.30615,-2.86534c0.88164,-1.17552 0.88164,-2.49797 0,-3.96736l-0.44082,-0.44083c-0.88164,-0.58775 -1.98369,-0.66122 -3.30615,-0.2204z" fill="#ffffff" stroke-width="0.26459" stroke-linecap="butt"/><path d="M176.16944,189.03679v-18.5144h15.42865v5.28984h-8.81637v1.32245h8.81637v5.28982h-8.81637v6.61229z" fill="#ffffff" stroke-width="0.26459" stroke-linecap="butt"/><path d="M193.80219,189.03679v-18.5144h15.42865v5.28984h-8.81637v1.32245h8.81637v5.28982h-8.81637v6.61229z" fill="#ffffff" stroke-width="0.26459" stroke-linecap="butt"/><path d="M228.00972,189.03679v-12.78375h-5.28982v-5.73065h16.75111v5.73065h-5.28982v12.78375z" fill="#ffffff" stroke-width="0.26459" stroke-linecap="butt"/><path d="M241.67511,181.32246v-10.80007h6.17146v10.80007c0,1.76327 0.7347,2.64491 2.2041,2.64491h0.44081c1.32247,0 1.9837,-0.88164 1.9837,-2.64491v-10.80007h5.73063v10.80007c0,5.28982 -2.64491,7.93474 -7.93474,7.93474c-5.73064,0 -8.59597,-2.64491 -8.59597,-7.93474z" fill="#ffffff" stroke-width="0.26459" stroke-linecap="butt"/><path d="M260.40992,189.03679v-18.5144h10.80005c4.4082,0 6.61229,1.61634 6.61229,4.84902v0.88164c0,2.35103 -0.95512,3.8939 -2.86534,4.62859c0.58775,0.29388 1.17552,0.95512 1.76327,1.9837l1.76327,6.17146h-6.61227l-1.32247,-5.06942c-0.29387,-1.32246 -1.10203,-1.98368 -2.42449,-1.98368h-1.32247v7.0531zM269.44669,178.01632c1.17552,0 1.76327,-0.58775 1.76327,-1.76327v-0.88164c0,-0.88165 -0.58775,-1.32247 -1.76327,-1.32247h-2.64491v3.96738z" fill="#ffffff" stroke-width="0.26459" stroke-linecap="butt"/><path d="M289.72435,185.51024c1.17552,0 1.76327,-0.58775 1.76327,-1.76327v-0.88164c0,-0.88165 -0.58775,-1.32247 -1.76327,-1.32247h-2.64491v3.96738zM280.68757,170.52239h10.80005c4.4082,0 6.61229,1.61634 6.61229,4.84902v0.88164c0,1.4694 -0.66122,2.64492 -1.98368,3.52655c1.32246,0.73469 1.98368,1.76327 1.98368,3.08574v0.88164c0,3.52655 -2.20409,5.28982 -6.61229,5.28982h-10.80005zM291.48762,176.25304v-0.88164c0,-0.88165 -0.58775,-1.32247 -1.76327,-1.32247h-2.64491v3.96738h2.64491c1.17552,0 1.76327,-0.58775 1.76327,-1.76327z" fill="#ffffff" stroke-width="0.26459" stroke-linecap="butt"/><path d="M300.30402,179.99999c0,-2.93879 0.88164,-5.25309 2.64491,-6.94289c1.76327,-1.68982 4.18777,-2.53472 7.2735,-2.53472c3.08573,0 5.51023,0.8449 7.2735,2.53472c1.76329,1.6898 2.64493,4.00409 2.64493,6.94289c0,2.49799 -0.88165,4.70208 -2.64493,6.61229c-1.76327,1.91021 -4.18777,2.86532 -7.2735,2.86532c-3.08573,0 -5.51023,-0.95511 -7.2735,-2.86532c-1.76327,-1.91021 -2.64491,-4.1143 -2.64491,-6.61229zM310.00203,176.25304c-1.4694,0.88165 -2.57145,1.83675 -3.30615,2.86532c-0.73469,0.88165 -0.88163,1.98369 -0.44081,3.30615l0.44081,0.44083c0.73469,1.02856 1.98368,1.32245 3.74695,0.88164c1.4694,-0.88165 2.57145,-1.83675 3.30615,-2.86534c0.88165,-1.17552 0.88165,-2.49797 0,-3.96736l-0.44081,-0.44083c-0.88165,-0.58775 -1.98369,-0.66122 -3.30615,-0.2204z" fill="#ffffff" stroke-width="0.26459" stroke-linecap="butt"/><path d="M333.62991,189.03679l3.30612,-18.5144h5.28984l2.42449,7.49393l2.42451,-7.49393h5.28982l3.30615,18.5144h-5.51023l-1.32247,-8.15516l-1.76327,8.15516h-4.84899l-1.76327,-8.15516l-1.32247,8.15516z" fill="#ffffff" stroke-width="0.26459" stroke-linecap="butt"/><path d="M357.87495,179.99999c0,-2.93879 0.88164,-5.25309 2.64491,-6.94289c1.76327,-1.68982 4.18777,-2.53472 7.2735,-2.53472c3.08574,0 5.51025,0.8449 7.27352,2.53472c1.76327,1.6898 2.64491,4.00409 2.64491,6.94289c0,2.49799 -0.88164,4.70208 -2.64491,6.61229c-1.76327,1.91021 -4.18778,2.86532 -7.27352,2.86532c-3.08573,0 -5.51023,-0.95511 -7.2735,-2.86532c-1.76327,-1.91021 -2.64491,-4.1143 -2.64491,-6.61229zM367.57296,176.25304c-1.46939,0.88165 -2.57143,1.83675 -3.30615,2.86532c-0.73469,0.88165 -0.88163,1.98369 -0.44081,3.30615l0.44081,0.44083c0.73471,1.02856 1.9837,1.32245 3.74697,0.88164c1.46939,-0.88165 2.57143,-1.83675 3.30612,-2.86534c0.88165,-1.17552 0.88165,-2.49797 0,-3.96736l-0.44081,-0.44083c-0.88165,-0.58775 -1.98369,-0.66122 -3.30615,-0.2204z" fill="#ffffff" stroke-width="0.26459" stroke-linecap="butt"/><path d="M388.73225,183.74697c1.02858,0 1.83675,-0.29388 2.42451,-0.88164c0.58775,-0.58775 0.88164,-1.46939 0.88164,-2.64491v-1.10206c0,-1.17552 -0.29388,-2.09388 -0.88164,-2.7551c-0.58775,-0.66123 -1.39592,-0.99185 -2.42451,-0.99185h-2.20408v8.37556zM379.91588,170.52239h8.81637c3.08573,0 5.51023,0.8449 7.2735,2.53472c1.76329,1.6898 2.64493,4.00409 2.64493,6.94289c0,2.49799 -0.88165,4.62861 -2.64493,6.39189c-1.76327,1.76327 -4.18777,2.64491 -7.2735,2.64491h-8.81637z" fill="#ffffff" stroke-width="0.26459" stroke-linecap="butt"/><path d="M400.85479,189.03679v-18.5144h15.42864v5.28984h-8.81637v1.32245h8.81637v5.28982h-8.81637v1.32247h8.81637v5.28982z" fill="#ffffff" stroke-width="0.26459" stroke-linecap="butt"/><path d="M174.46109,217.24919v-12.78375h-5.28982v-5.73063h16.75112v5.73063h-5.28983v12.78375z" fill="#ffffff" stroke-width="0.26459" stroke-linecap="butt"/><path d="M188.12648,208.21241c0,-2.93879 0.88164,-5.25309 2.64491,-6.94291c1.76327,-1.6898 4.18777,-2.5347 7.2735,-2.5347c3.08573,0 5.51024,0.8449 7.27351,2.5347c1.76327,1.68982 2.64491,4.00411 2.64491,6.94291c0,2.49797 -0.88164,4.70206 -2.64491,6.61227c-1.76327,1.91022 -4.18778,2.86534 -7.27351,2.86534c-3.08573,0 -5.51023,-0.95512 -7.2735,-2.86534c-1.76327,-1.91021 -2.64491,-4.1143 -2.64491,-6.61227zM197.82449,204.46543c-1.46939,0.88165 -2.57144,1.83675 -3.30615,2.86534c-0.7347,0.88163 -0.88164,1.98368 -0.44082,3.30615l0.44082,0.44081c0.7347,1.02858 1.98369,1.32246 3.74696,0.88164c1.46939,-0.88163 2.57144,-1.83673 3.30615,-2.86532c0.88164,-1.17552 0.88164,-2.49798 0,-3.96738l-0.44082,-0.44081c-0.88164,-0.58775 -1.98369,-0.66123 -3.30615,-0.22043z" fill="#ffffff" stroke-width="0.26459" stroke-linecap="butt"/><path d="M221.63205,217.24919v-18.51438h10.80005c4.4082,0 6.61229,1.61633 6.61229,4.84899v0.88164c0,3.52656 -2.20409,5.28984 -6.61229,5.28984h-4.40819v7.49391zM230.66883,206.22873c1.17552,0 1.76327,-0.58777 1.76327,-1.7633v-0.88164c0,-0.88163 -0.58775,-1.32245 -1.76327,-1.32245h-2.64491v3.96738z" fill="#ffffff" stroke-width="0.26459" stroke-linecap="butt"/><path d="M241.24848,217.24919v-18.51438h6.61227v13.22456h8.81637v5.28982z" fill="#ffffff" stroke-width="0.26459" stroke-linecap="butt"/><path d="M258.88122,217.24919l5.51023,-18.51438h9.91844l5.51023,18.51438h-6.39186l-1.10204,-3.52655h-6.17148l-0.88164,3.52655zM271.00374,208.87364l-1.65306,-5.51025l-1.65308,5.51025z" fill="#ffffff" stroke-width="0.26459" stroke-linecap="butt"/><path d="M287.31404,208.87364l-5.28982,-10.13884h6.17146l2.2041,6.39186l2.20408,-6.39186h6.17146l-5.28982,10.13884v8.37554h-6.17146z" fill="#ffffff" stroke-width="0.26459" stroke-linecap="butt"/><path d="M309.82874,198.7348l-1.10204,11.46128h-5.06942l-1.10204,-11.46128zM303.04013,214.53816c-0.02943,-0.83756 0.24976,-1.58695 0.83756,-2.24818c0.58775,-0.66123 1.39592,-0.99185 2.42451,-0.99185c0.88163,0 1.61633,0.33062 2.20408,0.99185c0.58775,0.66123 0.88164,1.43267 0.88164,2.3143c0,0.88165 -0.29388,1.61635 -0.88164,2.2041c-0.58775,0.58775 -1.32246,0.88164 -2.20408,0.88164c-1.02858,0 -1.83675,-0.29388 -2.42451,-0.88164c-0.58775,-0.58775 -0.86694,-1.3445 -0.83756,-2.27021z" fill="#ffffff" stroke-width="0.26459" stroke-linecap="butt"/><path d="M156.6632,290.4616v-12.78375h-5.28982v-5.73065h16.75112v5.73065h-5.28982v12.78375z" fill="#ffffff" stroke-width="0.26459" stroke-linecap="butt"/><path d="M170.32859,290.4616v-18.5144h6.61228v6.39189h4.40819v-6.39189h6.61228v18.5144h-6.61228v-6.39189h-4.40819v6.39189z" fill="#ffffff" stroke-width="0.26459" stroke-linecap="butt"/><path d="M190.16544,290.4616l5.51023,-18.5144h9.91842l5.51024,18.5144h-6.39188l-1.10204,-3.52655h-6.17147l-0.88164,3.52655zM202.28794,282.08603l-1.65306,-5.51023l-1.65307,5.51023z" fill="#ffffff" stroke-width="0.26459" stroke-linecap="butt"/><path d="M213.30842,290.4616v-18.5144h7.49392l4.84901,8.26535v-8.26535h6.61229v18.5144h-7.49393l-4.84901,-8.00087v8.00087z" fill="#ffffff" stroke-width="0.26459" stroke-linecap="butt"/><path d="M234.46772,290.4616v-18.5144h6.17146v8.59597l3.74697,-8.59597h6.61227l-4.62859,9.2572l4.62859,9.2572h-6.61227l-3.74697,-8.59597v8.59597z" fill="#ffffff" stroke-width="0.26459" stroke-linecap="butt"/><path d="M269.77731,282.08603l-5.28982,-10.13884h6.17146l2.20408,6.39189l2.2041,-6.39189h6.17146l-5.28982,10.13884v8.37556h-6.17146z" fill="#ffffff" stroke-width="0.26459" stroke-linecap="butt"/><path d="M283.4427,281.4248c0,-2.93879 0.88164,-5.25309 2.64491,-6.94289c1.76327,-1.68982 4.18777,-2.53472 7.2735,-2.53472c3.08573,0 5.51023,0.8449 7.2735,2.53472c1.76329,1.6898 2.64493,4.00409 2.64493,6.94289c0,2.49799 -0.88165,4.70208 -2.64493,6.61229c-1.76327,1.91021 -4.18777,2.86532 -7.2735,2.86532c-3.08573,0 -5.51023,-0.95511 -7.2735,-2.86532c-1.76327,-1.91021 -2.64491,-4.1143 -2.64491,-6.61229zM293.14071,277.67785c-1.4694,0.88163 -2.57145,1.83673 -3.30615,2.86532c-0.73469,0.88165 -0.88163,1.98369 -0.44081,3.30615l0.44081,0.44083c0.73469,1.02856 1.98368,1.32245 3.74695,0.88164c1.4694,-0.88165 2.57145,-1.83675 3.30615,-2.86534c0.88165,-1.17552 0.88165,-2.49797 0,-3.96736l-0.44081,-0.44083c-0.88165,-0.58775 -1.98369,-0.66122 -3.30615,-0.2204z" fill="#ffffff" stroke-width="0.26459" stroke-linecap="butt"/><path d="M305.48363,282.74727v-10.80007h6.17146v10.80007c0,1.76327 0.73469,2.64491 2.20408,2.64491h0.44083c1.32246,0 1.98368,-0.88164 1.98368,-2.64491v-10.80007h5.73065v10.80007c0,5.28982 -2.64491,7.93474 -7.93474,7.93474c-5.73064,0 -8.59597,-2.64491 -8.59597,-7.93474z" fill="#ffffff" stroke-width="0.26459" stroke-linecap="butt"/><g stroke-linecap="butt"><path d="M72.03699,302.7231c4.13344,2.1077 8.16053,6.58319 11.56817,9.66698c2.974,2.68615 5.03554,1.42863 8.45351,3.56717c2.48084,1.57021 3.05366,0.11999 5.87175,0.25913c1.45898,-2.55846 2.22116,-3.34439 4.8395,-4.31827c0.57051,0.24584 -1.43467,4.0165 -0.68687,5.10531c0.0555,0.13543 -0.17236,0.81784 0.0809,0.70156c7.19609,-15.48313 -2.79046,-24.97542 14.81143,-15.63355c0.51091,4.51115 2.0685,12.5093 0.66322,16.80471c-2.29018,7.18561 -6.94196,13.82643 -13.60122,17.55358c-3.3326,1.33387 -2.83127,1.25519 -6.05783,2.72969c-4.72467,3.13159 -11.54363,3.82362 -16.94403,3.78008c-4.38303,0.19655 -8.76309,-0.32385 -13.00925,-1.43467c-2.71941,-0.8171 -5.75602,-1.21095 -8.00494,-3.07566c-2.06717,-1.7704 -3.76769,-4.22111 -3.84125,-7.02728c-0.55508,-6.81013 -1.59761,-12.4969 -1.53578,-19.33212c-0.36075,-9.04894 10.6076,-9.65425 17.39267,-9.34666z" data-paper-data="{&quot;index&quot;:null}" fill="#54c81c" stroke-width="0.17188"/><path d="M81.22337,315.47643c1.53343,1.97728 2.4661,10.37688 0.66553,10.57121c-1.86913,0 -4.38968,0.24295 -6.65559,0.13472c-3.53647,-0.17006 -9.33841,-1.16884 -9.27213,-1.8122c0.2134,-2.08257 0.23529,-4.09535 0.23529,-6.63294c0,-4.44334 2.25333,-9.10985 5.85245,-9.10985c2.56991,0 4.76875,0.12667 7.33355,3.82362c0.63016,0.90848 1.34716,1.68946 1.84107,3.02556z" data-paper-data="{&quot;index&quot;:null}" fill="#ffffff" stroke-width="0.17188"/><path d="M108.90123,306.22665c1.7867,-0.29227 2.83568,0.63903 3.47456,2.64726c0.44677,1.40821 0.74565,3.50258 0.73178,5.40407c-0.01563,2.05017 -0.01563,3.27953 -0.26929,4.50748c-0.24936,1.20583 -0.15438,2.28301 -0.39331,2.93564c-0.17314,0.74628 -0.6726,1.22578 -3.51708,1.84277c-1.82195,0.39538 -3.59685,0.68089 -5.11258,0.91793c-1.4922,0.03596 -2.24012,-8.1757 -1.30076,-10.32381c0.59111,-3.94877 2.02441,-6.43695 6.38688,-7.9313z" data-paper-data="{&quot;index&quot;:null}" fill="#ffffff" stroke-width="0.17188"/><path d="M116.5403,273.66739c6.64011,-0.93271 11.42063,0.10752 14.22544,2.15831c0.39972,0.29075 0.17744,0.59338 0.66041,1.0638c0.58447,0.56977 2.17747,1.44139 1.87573,1.2265c0,0 -0.5786,1.1499 -0.52631,1.69313c0.06683,0.69054 0.93712,1.49439 0.27906,1.32582c0,0 0.43653,1.01443 0.34668,1.38179c-0.97906,4.01204 -4.24839,9.19013 -8.55853,11.8506c-4.77571,0.61915 -12.296,-17.60283 -8.30233,-20.69987z" data-paper-data="{&quot;index&quot;:null}" fill="#54c81c" stroke-width="0.17188"/><path d="M56.01203,321.55122l1.66378,13.85734l1.9405,9.80629c0.22982,1.15283 -11.96035,-7.90707 -14.48234,-11.11593c-3.12127,-3.97015 -5.12438,-8.31257 -7.10834,-12.66183c-1.44725,-3.16923 -1.56798,-4.46773 -2.0273,-6.77038l-1.42439,-7.14879c-0.27085,-1.3583 -0.93341,-8.26625 0.39972,-9.45215c0.37834,-0.3364 4.72744,-3.65413 5.27439,-3.66738c12.90009,3.58468 5.52652,-18.09484 9.46419,-27.10608c3.23239,-1.70939 7.15251,-3.89725 11.5532,-4.86228c6.91843,-1.51721 14.49117,-1.29564 18.37217,-1.24413c0.66181,0.00883 9.09222,0.2879 14.13343,1.98838c7.98285,2.69217 12.47188,7.8142 12.78108,8.09542c4.85572,4.4132 8.46726,9.55232 11.00106,15.32003l1.37585,4.8785c0.70449,2.4971 3.11393,16.23879 1.7697,21.09814l-4.58627,16.59512c-0.80244,2.90635 -8.50181,16.52152 -10.0705,15.73015c-2.19814,-1.10644 -2.24235,-9.68775 -2.98878,-8.63654c15.37448,-6.39064 18.24936,-45.19262 6.85054,-29.93198c-2.783,3.10978 -12.15245,19.99028 -7.69574,8.2965c0.55433,-1.70939 0.61245,-3.04174 0.06683,-2.42929c-4.04132,8.74103 -15.59558,5.53729 -20.85711,0.98238c-14.60757,-15.92676 -24.21257,-9.04643 -25.40566,8.3785z" data-paper-data="{&quot;index&quot;:null}" fill="#54c81c" stroke-width="0.17188"/><path d="M27.96619,293.04508c-4.35583,-1.48923 -8.3921,-5.51015 -10.17142,-8.9686c-0.16337,-0.3165 -0.01954,-1.34126 -0.01954,-1.34126c-0.53229,0.29888 0.03908,-0.62867 -0.0641,-1.27501c-0.08012,-0.50794 -0.84946,-1.43408 -0.84946,-1.43408c-0.21184,0.26355 0.96808,-0.88413 1.34419,-1.53343c0.30994,-0.53745 0.04651,-0.76562 0.32596,-1.12121c1.95891,-2.49119 5.86573,-4.49274 11.84333,-5.09863c7.82093,-0.79138 14.68824,4.94542 14.68824,7.75312c0,0 -9.65891,15.56103 -17.09767,13.01902z" data-paper-data="{&quot;index&quot;:null}" fill="#54c81c" stroke-width="0.17188"/><path d="M50.78638,285.03721c-1.04922,7.63569 -7.61624,16.20066 -13.0961,14.62511c-0.90848,-0.27531 -2.7076,-1.87726 -5.29374,-2.94539c-2.99613,-1.236 -5.64921,-2.95419 -4.65619,-3.46803c6.34979,-9.98977 6.89639,-14.63385 3.12413,-20.94575c-1.35525,-0.52264 1.35748,-2.09289 5.21787,-3.19643c1.87132,-0.53522 3.85887,-1.24261 6.07695,-1.11742c6.33916,3.86669 8.14142,10.56748 8.62708,17.04791z" data-paper-data="{&quot;index&quot;:null}" fill="#54c81c" stroke-width="0.17188"/><path d="M56.33088,284.77515c-3.36578,11.04399 -12.15202,19.16847 -21.85344,13.37516c-1.59159,-0.95112 4.468,-0.84446 6.96287,-3.58368c1.62837,-1.7867 4.61461,-2.56805 4.84352,-3.27548c2.17164,-6.74611 2.73461,-10.86548 1.39707,-14.46018c-2.10168,-5.64846 -13.30293,-6.06207 -1.97708,-9.36278c6.53849,-3.1124 10.41659,7.75167 10.6271,17.30696z" data-paper-data="{&quot;index&quot;:null}" fill="#54c81c" stroke-width="0.17188"/><path d="M113.84145,280.07483c0,0 -4.11675,-1.42122 -5.54419,-3.36395c-2.97779,-4.05253 -5.36936,-7.58783 -4.50881,-8.72374c0.71704,-0.4594 4.39929,0.50724 5.40485,1.45241l2.04282,1.91841c3.59173,3.37458 7.80717,9.57632 7.74901,11.58459c-0.02345,0.86869 -2.69948,4.9496 -3.01231,5.91623c0,0 -1.55872,-6.80368 -2.13142,-8.78396z" data-paper-data="{&quot;index&quot;:null}" fill="#54c81c" stroke-width="0.17188"/><path d="M109.96214,270.4973c0,0 8.95304,-0.23924 10.3437,1.90595c0.92458,1.42443 -0.33925,4.86232 0.73619,5.94371c1.33539,1.34278 3.33331,4.65912 4.39484,7.09873c0.31893,2.23054 1.11969,4.36607 0.16415,6.85429c0.3885,2.19521 -8.54113,8.54348 -8.73984,7.82347l0.76578,-12.09757c-0.68534,-2.48299 -2.24082,-7.51611 -2.67223,-8.53715z" data-paper-data="{&quot;index&quot;:null}" fill="#54c81c" stroke-width="0.17188"/><path d="M68.55094,317.59464c0,-3.81002 1.46011,-6.89862 3.26112,-6.89862c1.80101,0 3.26108,3.08864 3.26108,6.89862c0,3.81002 -1.46007,6.89865 -3.26108,6.89865c-1.80101,0 -3.26112,-3.08864 -3.26112,-6.89865z" fill="#54c81c" stroke-width="0"/><path d="M103.00853,316.2861c0,-3.81002 1.46011,-6.89862 3.26119,-6.89862c1.80108,0 3.26119,3.08864 3.26119,6.89862c0,3.81002 -1.46007,6.89862 -3.26119,6.89862c-1.80108,0 -3.26119,-3.0886 -3.26119,-6.89862z" fill="#54c81c" stroke-width="0"/></g><path d="M328.6266,286.71463v3.74697h-4.40819v-3.74697z" fill="#ffffff" stroke-width="0.26459" stroke-linecap="butt"/><g data-paper-data="{&quot;index&quot;:null}"><path d="M442.18836,318.10242c-7.80805,9.37258 -17.64398,4.58991 -28.55064,7.35141c-8.05424,2.03804 -22.29837,6.06568 -27.26471,-1.38835c-6.06881,-9.11464 -5.79196,-19.96057 -5.0543,-33.28836c0.44927,-8.11651 2.97232,-7.70805 1.16348,-11.85335c-1.00592,-2.59644 -3.42668,-9.65363 -4.8047,-13.31742c-2.55137,-6.78347 -4.07516,-15.41839 -3.00035,-16.98292c1.16769,-1.69976 12.29867,2.83351 20.65658,8.91543c4.86721,3.54176 8.9762,9.48666 10.02385,10.10403c1.44403,0.85098 5.07363,-0.02062 8.39585,-0.07968c3.32226,-0.05906 6.92691,0.11841 7.97336,-1.16631c0.3494,-0.42899 6.18184,-6.28643 13.01671,-10.91582c8.32263,-5.63707 21.32926,-9.33997 23.33448,-7.72063c2.11155,1.70518 0.88789,11.47097 -1.33062,22.0104c-2.21851,10.53943 -7.65416,18.58122 -8.23879,23.94298c0,0 1.33216,1.62758 -0.79126,12.77614c-1.11221,5.83932 -3.32485,8.96658 -5.5289,11.61241z" data-paper-data="{&quot;index&quot;:null}" fill="#f8b820" stroke-width="1" stroke-linecap="round"/><path d="M394.05445,296.61722c0.2761,4.477 0.33745,9.2024 0,13.77128c-0.24028,3.29969 0.37322,8.47857 -1.27818,11.34627c-1.01234,1.74978 -4.32027,1.93904 -5.11274,0.26485c-2.43371,-5.14131 -2.68936,-11.2763 -2.81206,-17.01162c0.12274,-3.72635 1.24241,-7.53908 2.81206,-10.80103c0.93054,-1.93879 3.27216,-4.51478 4.85714,-4.05038c1.55428,0.46985 1.39584,4.26642 1.53387,6.4806z" data-paper-data="{&quot;index&quot;:null}" fill="#ffffff" stroke-width="1" stroke-linecap="round"/><path d="M423.28918,307.65819c0.41496,4.58017 1.93346,11.49592 -0.26535,15.62418c-1.57294,2.87745 -7.03649,2.06236 -10.07891,2.21505c-2.70498,0.13511 -6.30246,0.7676 -7.61959,-1.81038c-2.26953,-4.44539 -1.97569,-11.5845 -1.63275,-16.68758c0.29934,-4.49824 1.03953,-9.46042 3.26554,-13.50643c1.49126,-2.28436 4.41394,-4.53343 7.07535,-4.11065c2.97707,0.46981 5.09421,3.89928 6.53107,6.75323c1.73616,3.44709 2.30972,6.94241 2.72463,11.52257z" data-paper-data="{&quot;index&quot;:null}" fill="#ffffff" stroke-width="1" stroke-linecap="round"/><path d="M389.52851,288.31291l-15.21256,1.46723l-11.82441,6.97085l11.45298,-12.06993l15.34534,0.26989z" data-paper-data="{&quot;index&quot;:null}" fill="#f8b820" stroke-width="1.22222" stroke-linecap="round"/><path d="M442.30293,320.34396c-0.10633,1.1292 5.23581,-0.96002 8.65454,-0.40721c3.41872,0.55282 8.00356,3.10077 8.00356,3.10077c0,0 -5.5835,0.53682 -8.95083,1.67219c-3.36733,1.13541 -4.57334,2.16395 -4.57334,2.16395c0,0 3.14792,0.5706 5.69992,1.89626c2.55204,1.32571 5.45256,6.02816 5.45256,6.02816c0,0 -4.21777,-1.92992 -7.0988,-2.50389c-2.88111,-0.57401 -4.19795,0.03507 -4.74347,0.14457c-0.83791,0.16814 4.69612,8.85037 4.69612,8.85037c0,0 -3.84163,-3.25579 -6.84565,-4.7309c-3.00406,-1.47506 -5.46343,-0.32153 -5.93149,-0.0893c-4.57758,2.27099 -3.70244,2.62772 -9.67833,4.05596c-3.26437,0.78018 -8.59527,1.70793 -13.51034,1.93146c-4.0827,0.18567 -7.8784,-0.22045 -9.96438,-0.63087c-3.74155,-0.55656 -14.19806,-3.76862 -14.19806,-3.76862c0,0 -1.83662,0.72633 -3.21652,1.31305c-1.52183,0.64707 -5.34793,4.2316 -5.34793,4.2316c0,0 0.54698,-2.99015 1.43649,-4.68167c0.88955,-1.69152 1.9168,-3.18178 1.6315,-3.19211c-0.99938,-0.03607 -1.4764,-0.94561 -2.88619,-0.74357c-1.4098,0.20204 -5.80358,2.38086 -5.80358,2.38086c0,0 1.45282,-3.75105 3.3545,-4.98338c1.90168,-1.23233 4.10857,-1.95707 4.10857,-1.95707c0,0 -2.59606,-0.92583 -4.0034,-1.55574c-1.45311,-0.6504 -5.03869,-0.76594 -5.03869,-0.76594c0,0 2.97874,-1.74666 4.48841,-2.24687c1.27544,-0.42262 3.98595,-0.56098 3.98595,-0.56098c0,0 -1.50572,-2.22342 -2.85158,-3.23288c-1.34591,-1.00946 -3.58033,-1.93346 -3.58033,-1.93346c0,0 1.70659,-0.6292 3.96542,-0.68185c3.98508,-0.09292 4.57354,2.47986 8.48544,3.24559c2.14604,0.42008 4.74585,-1.26336 6.59896,-1.15961c6.30375,0.34786 12.85798,4.37742 18.78597,2.89894c2.63026,-0.65719 9.32972,-2.04829 10.96359,-2.77999c5.37105,-2.40535 5.35564,-4.54997 12.9075,-6.63978c9.84905,-2.72551 19.85195,-0.3559 19.85195,-0.3559c0,0 -13.54649,2.33259 -14.84804,5.68788z" data-paper-data="{&quot;index&quot;:null}" fill="#f8b820" stroke-width="1" stroke-linecap="round"/><path d="M417.67523,301.74912c0.57147,1.3973 0.93016,3.31756 0.93016,5.44073c0,2.12321 -0.35869,4.04347 -0.93016,5.44077c-0.57801,1.39093 -1.36931,2.25249 -2.24775,2.25249c-0.87785,0 -1.66923,-0.86156 -2.24725,-2.25249c-0.57202,-1.39726 -0.93012,-3.3176 -0.93012,-5.44077c0,-2.12321 0.3581,-4.04343 0.93012,-5.44073c0.57797,-1.39093 1.36936,-2.25249 2.24725,-2.25249c0.87843,0 1.66973,0.86156 2.24775,2.25249z" data-paper-data="{&quot;index&quot;:null}" fill="#f8b820" stroke-width="1.0615" stroke-linecap="butt"/><path d="M388.70835,285.00539l-10.35834,-6.53162l-15.19036,1.62238c0,0 12.62345,-7.26148 14.9246,-7.01571c1.6143,0.17239 13.14478,8.56087 13.14478,8.56087z" data-paper-data="{&quot;index&quot;:null}" fill="#f8b820" stroke-width="1.22222" stroke-linecap="round"/><path d="M392.13782,280.9311c0,0 -3.58003,-7.26253 -7.5866,-10.31482c-4.00665,-3.05229 -19.48569,-10.30924 -19.48569,-10.30924c0,0 17.9888,2.2577 20.65704,4.33389c1.61784,1.25886 10.69687,14.38119 10.69687,14.38119z" data-paper-data="{&quot;index&quot;:null}" fill="#f8b820" stroke-width="1.22222" stroke-linecap="round"/><path d="M392.69438,300.53678c0.57147,1.3973 0.93012,3.3176 0.93012,5.44077c0,2.12321 -0.35864,4.04347 -0.93012,5.44077c-0.57801,1.39093 -1.36936,2.25249 -2.24779,2.25249c-0.87789,0 -1.66923,-0.86156 -2.24725,-2.25249c-0.57202,-1.3973 -0.93012,-3.3176 -0.93012,-5.44077c0,-2.12321 0.3581,-4.04347 0.93012,-5.44077c0.57801,-1.39093 1.36936,-2.25249 2.24725,-2.25249c0.87843,0 1.66977,0.86156 2.24779,2.25249z" data-paper-data="{&quot;index&quot;:null}" fill="#f8b820" stroke-width="1.0615" stroke-linecap="butt"/></g><path d="M-9,368.4024v-376.8048h498v376.8048z" fill="url(#color-1)" stroke-width="0" stroke-linecap="butt"/></g></g></svg>