<svg version="1.1" xmlns="http://www.w3.org/2000/svg" xmlns:xlink="http://www.w3.org/1999/xlink" width="4.51637" height="11.87739" viewBox="0,0,4.51637,11.87739"><g transform="translate(-234.4582,-182.41314)"><g data-paper-data="{&quot;isPaintingLayer&quot;:true}" fill-rule="nonzero" stroke-linejoin="miter" stroke-miterlimit="10" stroke-dasharray="" stroke-dashoffset="0" style="mix-blend-mode: normal"><g><path d="M236.571,187.39133l-1.12049,1.24468c0,0 0.35794,-2.20715 0.67812,-3.03496c0.37563,-0.9712 1.4195,-3.18791 1.4195,-3.18791l0.68886,0.35276c0,0 -0.86924,1.95801 -1.16654,2.78346c-0.24966,0.69313 -0.49946,1.84198 -0.49946,1.84198z" fill="#f8b820" stroke="none" stroke-width="0" stroke-linecap="butt"/><g data-paper-data="{&quot;index&quot;:null}"><path d="M236.40654,187.06875c1.0536,-0.29493 3.02157,1.62569 2.47346,3.79811c-0.45251,1.79359 -0.8381,2.91511 -2.12961,3.41017c-0.46562,0.18491 -2.67628,-1.54923 -2.23404,-4.05927c0.32013,-1.81696 1.54525,-3.05244 1.8902,-3.14902z" fill="#a8c8d8" stroke="none" stroke-width="0" stroke-linecap="butt"/><path d="M237.33635,188.02122l-0.93072,0.46064" fill="none" stroke="#808080" stroke-width="0.5" stroke-linecap="round"/><path d="M237.17014,189.84861l0.74947,-0.3294" fill="none" stroke="#808080" stroke-width="0.5" stroke-linecap="round"/><path d="M237.42634,191.10332l0.76174,-0.2316" fill="none" stroke="#808080" stroke-width="0.5" stroke-linecap="round"/><path d="M238.08183,192.389l-0.58052,0.10033" fill="none" stroke="#808080" stroke-width="0.5" stroke-linecap="round"/><path d="M236.35518,187.2915c0,0 1.05306,1.57143 1.38782,2.71618c0.33476,1.14475 -0.09849,3.52668 -0.09849,3.52668" fill="none" stroke="#020202" stroke-width="0.25" stroke-linecap="round"/></g></g></g></g></svg>