<svg version="1.1" xmlns="http://www.w3.org/2000/svg" xmlns:xlink="http://www.w3.org/1999/xlink" width="31.37798" height="24.2606" viewBox="0,0,31.37798,24.2606"><g transform="translate(-224.32167,-166.00158)"><g data-paper-data="{&quot;isPaintingLayer&quot;:true}" fill-rule="nonzero" stroke-width="0" stroke-linecap="butt" stroke-linejoin="miter" stroke-miterlimit="10" stroke-dasharray="" stroke-dashoffset="0" style="mix-blend-mode: normal"><path d="M239.0983,180.561c-0.01713,0.21991 0.02848,0.69007 0.04195,1.26342c0.01347,0.57336 0.01178,1.69205 0.01178,1.69205c0,0 -0.43297,0.64133 -1.02514,-0.359c-0.20472,-0.34582 -0.07358,-2.58074 -0.06606,-2.67727c0.04806,-0.61706 0.21031,-1.13618 0.60575,-1.07688c0.43352,0.065 0.47978,0.54062 0.43173,1.15768z" data-paper-data="{&quot;index&quot;:null}" fill="#fde1c0" stroke="none"/><path d="M237.46898,184.10368c-0.20704,-0.16162 -0.14484,-0.3876 -0.11205,-0.59671c0.03278,-0.20911 0.24332,-0.62337 0.24332,-0.62337c0,0 0.51947,-0.2435 0.95077,-0.06082c0.62499,0.26471 1.07629,0.81602 1.07629,0.81602c0,0 0.13238,0.55009 -0.19162,0.79047c-0.20398,0.15134 -1.35203,0.15423 -1.96671,-0.32559z" data-paper-data="{&quot;index&quot;:null}" fill="#fefefe" stroke="none"/><g stroke="none"><path d="M237.81839,183.90341c0.06664,-0.25832 0.90121,0.18644 1.31656,0.2936c0.41535,0.10715 0.6418,0.16259 0.58886,0.36782c-0.06207,0.24062 -0.5681,0.22125 -0.98949,0.14107c-0.83604,-0.15906 -0.96887,-0.59725 -0.91593,-0.80248z" fill="#000000"/><path d="M239.01585,186.17514c0,0 -0.33683,0.19308 -0.60808,0.12572c-0.39979,-0.09926 -0.40084,-0.34826 -0.40084,-0.34826c0,0 -0.28769,0.15273 -0.59691,0.04291c-0.23893,-0.08487 -0.36538,-0.35052 -0.36538,-0.35052c0,0 -1.31325,0.10242 -1.08308,-0.78464c0.18706,-0.72092 0.75123,-1.22945 0.89356,-1.35644c0.14233,-0.12699 0.35386,-0.06845 0.52362,0.01714c0.16976,0.08559 0.28866,0.39242 0.28866,0.39242c0,0 0.33114,0.02556 0.49728,0.11403c0.16614,0.08847 0.34665,0.33535 0.34665,0.33535c0,0 0.28853,-0.10041 0.41709,-0.0839c0.12856,0.01651 0.28301,0.17381 0.28301,0.17381c0,0 0.19868,-0.21385 0.36021,-0.23681c0.16152,-0.02296 0.39762,0.12909 0.39762,0.12909c0,0 0.22304,0.69106 -0.08414,1.49774c-0.27005,0.70917 -0.86925,0.33236 -0.86925,0.33236z" fill="#fefefe"/><path d="M236.78862,183.50564c0.06664,-0.25832 0.7237,-0.0964 1.13905,0.01075c0.41535,0.10715 0.81931,0.44543 0.76637,0.65066c-0.06207,0.24062 -0.5681,0.22125 -0.98949,0.14107c-0.83604,-0.15906 -0.96887,-0.59725 -0.91593,-0.80248z" fill="#fefefe"/></g><path d="M236.02727,178.88119c0,0 -0.85136,1.26194 -1.11667,1.2108c-0.32294,-0.06225 -0.37944,-0.63806 -0.43611,-0.91707c-0.07467,-0.36757 -0.17434,-1.23837 -0.17434,-1.23837c0,0 0.44971,0.3332 0.75903,0.5202c0.30932,0.18699 0.96809,0.42443 0.96809,0.42443z" data-paper-data="{&quot;index&quot;:null}" fill="#ebc19b" stroke="none"/><path d="M239.87652,189.79456c-0.19528,-0.06452 -0.60237,-0.44271 -0.75394,-0.87298c-0.15326,-0.43507 -0.09172,-0.95797 -0.03233,-1.21696c0.69151,-3.01553 1.5359,-2.78874 1.5359,-2.78874c0,0 -1.19103,3.22515 -0.846,3.90026c0.38669,0.75662 3.04977,0.35769 3.04977,0.35769c0,0 -0.04674,0.64138 -0.4535,0.79645c-0.55656,0.21219 -1.37619,0.19552 -2.4999,-0.17573z" fill="#686868" stroke="none"/><path d="M233.58511,174.57177c0,-3.59741 2.33287,-4.81667 5.20903,-4.88077c3.23761,-0.07215 5.24284,2.1854 5.20903,4.88077c-0.03607,2.87594 -2.29609,4.84469 -5.20903,4.88077c-2.87665,0.03563 -5.20903,-1.49979 -5.20903,-4.88077z" fill="#fedeb5" stroke="none"/><path d="M235.57852,177.14935c0,0 -0.18902,0.04883 -0.40311,0.17841c-0.18603,0.11259 -0.27512,0.27527 -0.5073,0.29544c-0.23219,0.02017 -0.47748,-0.2099 -0.47748,-0.2099c0,0 -0.3932,-0.80087 -0.49121,-1.58465c-0.4019,-2.45397 0.39538,-3.621 0.90021,-3.78671c0.62524,-0.20523 0.54785,0.56083 0.73125,2.76909c0.13553,1.6318 0.24763,2.33832 0.24763,2.33832z" data-paper-data="{&quot;index&quot;:null}" fill="#ea750b" stroke="none"/><path d="M237.67112,174.03141c0.62205,-1.60697 1.92124,-2.46742 2.92272,-2.10847c1.07149,0.38405 1.72423,1.62304 0.93462,3.76377c-0.287,0.7781 -1.18589,1.86349 -1.87639,2.15545c-1.20484,0.50943 -2.31612,-0.1528 -2.31612,-0.1528c0,0 -0.28687,-2.05099 0.33517,-3.65795z" fill="#ea750b" stroke="none"/><path d="M237.39342,175.17052c0.30048,-1.34302 1.31023,-2.28491 2.09312,-2.04978c0.78289,0.23514 1.11508,1.33006 0.83699,2.8652c-0.19211,1.06052 -0.80141,1.76892 -0.80141,1.76892c0,0 -0.37702,0.31379 -1.12458,0.24478c-0.96206,-0.08881 -1.06323,-0.33952 -1.06323,-0.33952c0,0 -0.26939,-1.02134 0.0591,-2.48961z" fill="#ffffff" stroke="none"/><g stroke="none"><path d="M237.2666,176.1798c0.05851,-0.90503 0.37154,-1.62539 0.69918,-1.60898c0.32764,0.01642 0.54581,0.76339 0.48729,1.66842c-0.05851,0.90503 -0.37154,1.62539 -0.69918,1.60898c-0.32764,-0.01642 -0.54581,-0.76339 -0.48729,-1.66842z" fill="#a06803"/><path d="M237.43697,176.2754c0.0316,-0.53276 0.20067,-0.95682 0.37764,-0.94716c0.17696,0.00966 0.2948,0.44938 0.2632,0.98214c-0.0316,0.53276 -0.20067,0.95682 -0.37764,0.94716c-0.17696,-0.00966 -0.2948,-0.44938 -0.2632,-0.98214z" fill="#000000"/><path d="M237.71294,175.11174c0.11602,0.00562 0.19327,0.26143 0.17255,0.57136c-0.02072,0.30994 -0.13156,0.55663 -0.24758,0.55101c-0.11602,-0.00562 -0.19327,-0.26143 -0.17255,-0.57136c0.02072,-0.30994 0.13156,-0.55663 0.24758,-0.55101z" fill="#ffffff"/></g><path d="M235.42052,175.21495c0.10392,1.32311 0.13392,1.95459 0.13392,1.95459c0,0 -0.14876,0.07956 -0.30921,0.16265c-0.16045,0.0831 -0.39159,0.25388 -0.39159,0.25388c0,0 -0.35988,-0.8053 -0.44466,-1.72144c-0.12272,-1.32615 0.02514,-2.26987 0.36936,-2.47513c0.38654,-0.23049 0.55075,0.6613 0.64218,1.82545z" data-paper-data="{&quot;index&quot;:null}" fill="#ffffff" stroke="none"/><g stroke="none"><path d="M234.86233,175.8965c-0.0191,-0.7467 0.14803,-1.35724 0.3733,-1.36367c0.22526,-0.00643 0.42336,0.59368 0.44246,1.34039c0.0191,0.7467 -0.14803,1.35724 -0.3733,1.36367c-0.22526,0.00643 -0.42336,-0.59368 -0.44246,-1.34039z" fill="#a06803"/><path d="M235.18168,175.16397c0.12172,-0.00281 0.23109,0.35109 0.24427,0.79048c0.01319,0.43939 -0.0748,0.79786 -0.19652,0.80069c-0.12172,0.00282 -0.23109,-0.35109 -0.24427,-0.79048c-0.01319,-0.43939 0.0748,-0.79786 0.19652,-0.80068z" fill="#000000"/><path d="M235.09796,174.99236c0.07976,-0.00243 0.14933,0.20292 0.1554,0.45868c0.00607,0.25575 -0.05365,0.46506 -0.13341,0.46749c-0.07976,0.00243 -0.14933,-0.20292 -0.1554,-0.45868c-0.00607,-0.25575 0.05365,-0.46506 0.13341,-0.46749z" fill="#ffffff"/></g><path d="M237.3662,175.16813c0,0 0.66567,-2.28722 1.92739,-2.24403c1.40985,0.04827 1.23687,2.13625 1.23687,2.13625c0,0 0.89083,0.0728 1.36641,-0.01595c0.46783,-0.08731 1.4642,-0.5123 1.4642,-0.5123c0,0 -0.52109,0.66835 -1.72006,0.85102c-0.63378,0.09656 -1.26469,-0.0164 -1.26469,-0.0164c0,0 0.1008,-0.69591 -0.28502,-1.47054c-0.22407,-0.44987 -0.57156,-0.49039 -0.77489,-0.51662c-1.0501,-0.13545 -1.95022,1.78858 -1.95022,1.78858z" fill="#000000" stroke="none"/><path d="M234.90885,173.59322c-0.4527,0.01858 -0.53344,1.37668 -0.53344,1.37668c0,0 -0.8306,-0.03874 -1.48007,-0.44145c-0.66544,-0.41263 -1.039,-1.20713 -1.039,-1.20713c0,0 0.53645,0.81845 1.48878,1.20418c0.87745,0.3554 0.89498,0.17875 0.89498,0.17875c0,0 0.1467,-1.47852 0.63971,-1.52679c0.44121,-0.0432 0.43682,1.02998 0.43682,1.02998c0,0 -0.14403,-0.62504 -0.40779,-0.61421z" fill="#000000" stroke="none"/><path d="M235.24674,173.42903l2.46872,0.50325c0,0 -0.26799,0.50661 -0.4093,1.74671c-0.14578,1.27926 0.02041,1.92339 0.02041,1.92339c0,0 -0.74999,-0.37664 -1.04501,-0.45607c-0.29788,-0.0802 -0.72734,0.01911 -0.72734,0.01911z" fill="#fedeb5" stroke="none"/><path d="M249.91209,183.21533c0.02992,0.05831 -0.01926,0.37363 0.10087,0.62169c0.12594,0.26004 0.32472,0.27531 0.51283,0.44098c0.17429,0.15351 1.79269,2.60281 1.77302,3.48803c-0.00537,0.24157 0.02433,0.55782 -0.00639,0.63342c-0.32995,0.8118 -1.56883,1.78967 -2.29401,1.85411c-0.84165,0.07479 -1.02035,-0.36169 -1.02035,-0.36169c0,0 2.57751,-0.93073 2.61175,-2.27141c0.0346,-1.35476 -2.92889,-5.25715 -2.92889,-5.25715c0,0 0.65799,-0.30375 1.25115,0.85202z" fill="#686868" stroke="none"/><path d="M247.70207,188.67c-0.05614,-0.27818 -0.08217,-0.19019 -0.02299,-0.68667c0.06617,-0.5552 0.89828,-2.31627 0.71438,-3.21267c-0.27335,-1.33238 -1.62302,-1.77676 -1.62302,-1.77676c0,0 0.19834,-0.42212 0.85764,-0.61616c0.53238,-0.15669 1.05929,-0.03735 1.05929,-0.03735c0,0 2.77413,3.56511 2.93106,5.22545c0.11129,1.17743 -2.03705,2.3291 -2.57064,2.3291c-0.53359,0 -0.96614,-0.51262 -1.3457,-1.22494z" fill="#ef4019" stroke="none"/><path d="M247.68413,188.01786c0,0 -0.00405,-0.67553 -0.05867,-0.91313c-0.05094,-0.22158 -0.25878,-0.46777 -0.25878,-0.46777c0,0 0.48659,-1.13625 0.53811,-1.68262c0.04984,-0.52855 -0.23385,-1.54392 -0.23385,-1.54392c0,0 0.67865,-0.29754 0.8703,-0.313c0.35978,-0.02902 2.0406,2.60667 2.17452,3.46018c0.05699,0.36323 -0.4606,0.20104 -0.80531,0.12634c-0.33289,-0.07214 -0.72421,0.04268 -0.85657,0.12571c-0.66368,0.41632 -1.36974,1.20822 -1.36974,1.20822z" fill="#ffc500" stroke="none"/><path d="M248.3349,184.51006c0.24715,0.73454 -0.22228,1.26045 -0.87298,1.41265c-0.8495,0.19868 -1.34915,0.30064 -1.46026,-0.52379c-0.02108,-0.15638 -0.97936,-2.22213 0.79362,-2.39673c0.20065,-0.01976 1.11689,0.2515 1.53962,1.50788z" fill="#ffffff" stroke="none"/><path d="M239.45704,187.5044c0.04535,-1.00281 0.98902,-2.72098 1.43986,-2.72098c0.31356,0 1.46033,1.54221 1.98832,2.39386c0.20139,0.32486 0.18682,0.54924 0.18682,0.54924c0,0 0.00295,1.05218 -0.08904,1.24041c-0.37836,0.7742 -0.89094,0.81721 -2.84569,0.29477c-0.72267,-0.19314 -0.69891,-1.34447 -0.68024,-1.7573z" fill="#ef4019" stroke="none"/><path d="M246.14817,184.00894c0,0 0.15656,-0.17576 0.37898,-0.23178c0.29367,-0.07397 0.70195,0.03861 0.80581,0.5834c0.19392,1.01715 -1.16838,1.08464 -1.35558,1.02713c-1.02909,-0.3161 -1.94354,-1.74729 -1.94354,-1.74729l0.86918,-0.8257c0,0 0.40752,0.41617 0.63631,0.61716c0.2148,0.1887 0.60884,0.57707 0.60884,0.57707z" fill="#fedeb5" stroke="none"/><path d="M243.40313,185.62839c0.48597,0.15798 -0.21007,0.72359 -0.21007,0.72359l-0.12738,1.42318c0,0 -0.10717,-0.47424 -0.55818,-0.61274c-0.33,-0.10134 -1.27944,-0.12685 -1.68404,-0.12681c-0.15981,-0.0104 -0.51107,0.50452 -0.78088,0.42477c-0.39387,-0.59053 0.85058,-2.67106 0.85058,-2.67106c0,0 0.09894,-0.01931 0.15425,0.06736c0.12057,0.18893 0.28902,0.58366 0.5738,0.67896c0.71077,0.23786 1.70056,0.06629 1.78192,0.09275z" fill="#ffc500" stroke="none"/><path d="M241.05028,184.97482c0,-0.61878 0.55388,-1.12041 1.23711,-1.12041c0.68324,0 1.23711,0.50162 1.23711,1.12041c0,0.61878 -0.55388,1.12041 -1.23711,1.12041c-0.2702,0 -0.95406,-0.31189 -0.95406,-0.31189l-0.58013,0.16832l0.23577,-0.65228c0,0 0.06131,-0.237 0.06131,-0.32455z" fill="#ffffff" stroke="none"/><path d="M241.75053,184.93981c0,-0.31245 0.25081,-0.56573 0.5602,-0.56573c0.30939,0 0.5602,0.25329 0.5602,0.56573c0,0.31245 -0.25081,0.56573 -0.5602,0.56573c-0.30939,0 -0.5602,-0.25329 -0.5602,-0.56573z" fill="#f5cda8" stroke="none"/><path d="M247.17061,185.83379c0.35149,-0.21608 0.75173,-1.03388 0.9024,-1.03804c0.06299,-0.00174 0.28959,0.03438 0.39311,-0.02155c0.19682,-0.10634 0.28073,-0.33789 0.28073,-0.33789c0,0 0.01368,0.84825 -0.22147,1.24036c-0.44665,0.74479 -1.18249,0.94441 -1.18249,0.94441c0,0 -1.04594,-0.06533 -1.36358,-0.48265c-0.15909,-0.20901 0.13347,-0.36653 0.13347,-0.36653c0,0 0.62831,0.32594 1.05785,0.06189z" fill="#ffc500" stroke="none"/><path d="M241.98065,179.11344c1.76636,0.03432 4.12682,0.74071 4.12682,0.74071c0,0 0.30469,1.56641 -0.4712,2.92398c-0.82062,1.43585 -1.932,2.1651 -3.99953,2.07583c-0.76617,-0.01592 -1.85618,-0.27148 -2.60127,-1.34059c-0.72425,-1.03922 0.07611,-4.08247 0.07611,-4.08247c0,0 1.28409,-0.34824 2.86906,-0.31744z" fill="#ef4019" stroke="none"/><path d="M240.16368,180.71035c-0.37852,0.04639 -0.54908,-1.25523 -0.54908,-1.25523l0.99234,-0.19109c0,0 0.14466,1.37426 -0.44326,1.44631z" fill="#08abe8" stroke="none"/><path d="M239.06002,182.29173c-0.04194,-0.78665 0.77998,-1.9107 0.77998,-1.9107l0.21731,0.29675c0,0 -0.21219,0.6587 -0.3476,1.26622c-0.12487,0.56023 -0.17066,1.07269 -0.23928,1.08192c-0.14303,0.01925 -0.39811,-0.5036 -0.41041,-0.73418z" fill="#08abe8" stroke="none"/><path d="M240.32686,180.63831l0.19168,-0.29745c0,0 0.7023,0.88272 0.73641,1.85046c0.00588,0.16679 -0.1192,0.5996 -0.4549,0.71639c-0.06314,0.02197 -0.11648,-0.48852 -0.21849,-1.00961c-0.11992,-0.61264 -0.2547,-1.25979 -0.2547,-1.25979z" fill="#08abe8" stroke="none"/><path d="M240.12886,179.29964c0,0 0.15609,-0.13127 0.45459,-0.22604c0.2985,-0.09476 0.52828,-0.17179 0.52828,-0.17179l-0.0234,1.82533z" fill="#ffffff" stroke="none"/><path d="M239.17827,179.31204c0,0 0.19987,-0.04137 0.47493,-0.00598c0.27506,0.03538 0.39132,0.05605 0.39132,0.05605l-0.60344,1.46017z" fill="#ffffff" stroke="none"/><path d="M234.75562,177.60869c0.19332,0.00696 0.63335,-0.55672 1.2083,-0.49598c0.78565,0.083 1.5277,0.84608 2.52161,0.8728c1.20091,0.03228 1.92777,-1.07152 2.74346,-0.58837c0.92949,0.55056 -0.10703,2.29042 -2.71974,2.12909c-2.48723,-0.15358 -3.6689,-0.97764 -4.19997,-1.58478c-0.14798,-0.16918 -0.1445,-0.57137 -0.1445,-0.57137c0,0 0.38119,0.23107 0.59084,0.23861z" fill="#ffffff" stroke="none"/><g stroke="none"><path d="M235.04149,177.51361c-0.03646,-0.15044 0.18072,-0.28068 0.40365,-0.28068c0.22293,0 0.45123,0.13355 0.40365,0.28068c-0.04105,0.12695 -0.13967,0.26664 -0.40365,0.26664c-0.2503,0 -0.37628,-0.15373 -0.40365,-0.26664z" fill="#6b4209"/><path d="M235.19201,177.38345c0,-0.04534 0.0827,-0.0821 0.18472,-0.0821c0.10202,0 0.18472,0.03676 0.18472,0.0821c0,0.04534 -0.0827,0.0821 -0.18472,0.0821c-0.10202,0 -0.18472,-0.03676 -0.18472,-0.0821z" fill="#ffffff"/></g><path d="M237.72338,178.86122c0,0 0.18258,0.05473 0.47891,0.05473c0.30545,0 0.65679,-0.06842 0.65679,-0.06842c0,0 -0.27798,0.17497 -0.6431,0.19156c-0.36513,0.0166 -0.49259,-0.17788 -0.49259,-0.17788z" fill="#000000" stroke="none"/><path d="M236.23007,171.22956c0.19609,-0.95103 0.39066,-1.21544 0.39066,-1.21544c0,0 0.85161,-0.27534 1.72764,-0.3181c1.27739,-0.06235 1.91534,0.13463 1.91534,0.13463c0,0 -1.14429,0.43186 -1.88016,0.91637c-0.39817,0.26216 -0.76187,0.44409 -1.05604,0.71191c-0.47974,0.43677 -0.86984,0.75867 -0.96791,0.75088c-0.18323,-0.01456 -0.21814,-0.55048 -0.12953,-0.98024z" fill="#ea750b" stroke="none"/><path d="M224.32168,171.60393c0,-0.6433 1.1813,-0.77653 2.25195,-1.32011c0.46514,-0.23615 2.6879,-3.71503 4.79488,-3.74994c1.12965,-0.01872 2.12612,0.93378 2.12612,0.93378c0,0 -2.35531,2.55918 -3.27128,3.67036c-0.83079,1.00785 -1.33661,1.5013 -2.66611,1.5013c-1.3295,0 -3.23557,-0.39208 -3.23557,-1.03538z" fill="#ea750b" stroke="none"/><path d="M230.87976,170.3693c0,0 0.59506,-1.93799 1.13286,-2.35636c0.63829,-0.49654 1.45268,-0.55372 1.45268,-0.55372c0,0 0.54795,0.34603 1.54906,1.35249c0.73266,0.73656 1.35854,1.32618 1.35854,1.32618l-2.02654,1.51134c0,0 -1.07394,-0.7094 -1.61095,-1.01119c-0.45266,-0.2544 -1.40148,-0.68181 -1.40148,-0.68181z" fill="#fedeb5" stroke="none"/><path d="M233.05087,168.29339c0.36039,-0.2464 0.70246,0.17159 0.70246,0.17159c0,0 -0.31764,-0.39021 -0.94913,0.07507c-0.64347,0.47411 -1.51753,1.46283 -1.51753,1.46283c0,0 0.43598,-0.73356 1.76419,-1.7095z" fill="#000000" stroke="none"/><path d="M231.79354,169.45471c0,0 0.40414,-0.41651 0.60456,-0.58403c0.15928,-0.13313 0.4536,-0.36666 0.4536,-0.36666c0,0 0.73757,0.51509 1.3671,1.09346c0.57766,0.5307 1.13776,1.1138 1.13776,1.1138l-0.69442,0.48774c0,0 -0.74751,-0.62028 -1.49052,-1.00733c-0.69492,-0.362 -1.37809,-0.73698 -1.37809,-0.73698z" fill="#ebc0cd" stroke="none"/><path d="M243.02621,171.58405l-2.66429,-1.70061c0,0 2.09983,-1.50225 3.04222,-2.12595c0.74063,-0.49016 2.17299,-1.36975 2.17299,-1.36975l-0.07044,0.46625c0,0 0.58428,0.32249 1.05308,0.66742c0.3942,0.29003 0.67353,0.60146 0.78352,0.69561c0.69638,0.59612 0.96655,1.53134 0.96655,1.53134l-0.46521,-0.20503c0,0 -1.52663,0.53839 -2.32579,0.80187c-1.98043,0.65292 -2.49261,1.23887 -2.49261,1.23887z" fill="#fedeb5" stroke="none"/><path d="M251.40337,171.88348c-0.74905,0 -1.80376,-0.6221 -2.56193,-1.43838c-0.73176,-0.78784 -0.85631,-1.47469 -1.21902,-1.91471c-0.91597,-1.11118 -2.51241,-1.87099 -2.51241,-1.87099c0,0 0.24115,-0.11042 0.43924,-0.26067c0.28394,-0.21538 0.80056,-0.36915 1.17365,-0.39393c1.63048,-0.1083 4.95329,2.5501 6.06089,2.89963c0.4093,0.18456 2.86276,-0.29749 2.9133,0.37533c0.10369,1.38029 -2.96423,2.60373 -4.29373,2.60373z" data-paper-data="{&quot;index&quot;:null}" fill="#ea750b" stroke="none"/><path d="M242.44599,171.12344l-1.09123,-0.88456c0,0 1.00144,-0.64102 1.62905,-0.94374c0.72638,-0.35035 2.16072,-0.79112 2.16072,-0.79112c0,0 0.61831,0.13623 0.98268,0.27218c0.36436,0.13595 1.09585,0.47066 1.09585,0.47066c0,0 -1.2781,0.27654 -2.51183,0.77477c-1.13693,0.45914 -2.26524,1.1018 -2.26524,1.1018z" data-paper-data="{&quot;index&quot;:null}" fill="#ebc0cd" stroke="none"/><path d="M248.28945,169.75608c0,0 -0.7709,-0.51064 -2.97894,-1.17323c-0.57304,-0.17196 -1.61539,-0.05046 -1.61539,-0.05046c0,0 0.51433,-0.21822 1.68172,-0.06613c1.22034,0.15898 2.91262,1.28983 2.91262,1.28983z" fill="#000000" stroke="none"/><path d="M243.95147,177.44684c0,0 0.87328,0.27251 1.20366,1.1772c0.40434,1.10725 -0.21081,2.12954 -1.28302,2.1031c-0.35784,-0.00883 -1.01604,-0.27092 -1.1772,-0.93911c-0.15279,-0.63348 -0.05961,-0.95648 0.18441,-1.31928c0.27293,-0.4058 1.00755,-0.4747 1.00755,-0.4747z" fill="#ebc19b" stroke="none"/><path d="M241.0283,178.92826c0,0 0.85949,-0.50418 1.24334,-0.84652c0.38385,-0.34235 0.92589,-0.92589 0.92589,-0.92589c0,0 0.088,1.2441 0.07955,1.77778c-0.00642,0.40508 0.06493,1.2253 -0.37054,1.3967c-0.35776,0.14082 -1.87823,-1.40206 -1.87823,-1.40206z" fill="#fedeb5" stroke="none"/><path d="M241.1588,180.05626c-0.17101,-0.64983 -0.21384,-1.16686 0.23664,-1.32037c0.41091,-0.14003 0.68492,0.38302 0.85593,1.03284c0.02675,0.10166 0.6003,2.46359 0.44869,2.87269c-0.43855,1.18341 -1.02544,0.58231 -1.02544,0.58231c0,0 -0.21877,-1.19466 -0.31559,-1.80974c-0.09682,-0.61508 -0.13928,-1.12614 -0.20023,-1.35774z" fill="#fde1c0" stroke="none"/><path d="M241.15526,187.14053l-0.63154,-0.50285c0,0 -0.23057,-1.51619 1.6927,-2.60151c1.24343,-0.70169 2.21666,0.91945 2.21666,0.91945c0,0 0.44352,-0.4849 0.60336,-0.11379c0.81505,1.89239 -0.17239,2.06896 -0.17239,2.06896c0,0 -0.11617,0.26392 -0.29497,0.35611c-0.1788,0.09218 -0.57125,0.09048 -0.57125,0.09048c0,0 -0.1737,0.26918 -0.38312,0.35179c-0.20943,0.0826 -0.56645,0.02276 -0.56645,0.02276c0,0 -0.1218,0.338 -0.35633,0.49198c-0.70614,0.46361 -1.53666,-1.08338 -1.53666,-1.08338z" fill="#ffffff" stroke="#000000"/><path d="M243.66225,183.97178c-0.63748,0.55707 -1.88215,0.62292 -2.11236,0.47113c-0.36566,-0.24111 -0.25522,-0.84536 -0.25522,-0.84536c0,0 0.45608,-0.62475 1.11766,-0.94926c0.45656,-0.22394 1.0343,0.0088 1.0343,0.0088c0,0 0.25312,0.43641 0.30122,0.66111c0.04811,0.22471 0.12912,0.46594 -0.08561,0.65358z" fill="#fefefe" stroke="none"/><path d="M241.15714,185.95193c0,0 0.00702,0.33312 0.00023,0.55396c-0.00679,0.22084 0.00138,0.66402 0.00138,0.66402c0,0 -0.08401,-0.31244 -0.11219,-0.54365c-0.03645,-0.29911 0.11057,-0.67433 0.11057,-0.67433z" fill="#000000" stroke="none"/><path d="M244.50439,186.1473c0,0 -0.03431,-0.38658 -0.04952,-0.607c-0.01522,-0.22042 -0.03286,-0.58646 -0.03286,-0.58646c0,0 0.07355,0.28886 0.1246,0.51611c0.06603,0.294 -0.04221,0.67734 -0.04221,0.67734z" data-paper-data="{&quot;index&quot;:null}" fill="#000000" stroke="none"/><path d="M243.01056,183.61975c-0.25811,-0.06292 -0.37991,-0.22983 -0.33759,-0.48328c0.02386,-0.14289 0.11872,-0.29221 0.37684,-0.2293c0.25811,0.06292 0.41218,0.35109 0.39255,0.49463c-0.01962,0.14353 -0.17368,0.28087 -0.43179,0.21795z" fill="#f7e300" stroke="none"/></g></g></svg>