<svg version="1.1" xmlns="http://www.w3.org/2000/svg" xmlns:xlink="http://www.w3.org/1999/xlink" width="57.09229" height="47.31911" viewBox="0,0,57.09229,47.31911"><defs><linearGradient x1="240" y1="158.88289" x2="240" y2="201.11711" gradientUnits="userSpaceOnUse" id="color-1"><stop offset="0" stop-color="#f7f7f7"/><stop offset="1" stop-color="#f7f7f7" stop-opacity="0"/></linearGradient><linearGradient x1="240" y1="158.88289" x2="240" y2="201.11711" gradientUnits="userSpaceOnUse" id="color-2"><stop offset="0" stop-color="#f7f7f7"/><stop offset="1" stop-color="#e4edea"/></linearGradient></defs><g transform="translate(-211.46576,-156.88152)"><g data-paper-data="{&quot;isPaintingLayer&quot;:true}" fill-rule="nonzero" stroke-linejoin="miter" stroke-miterlimit="10" stroke-dasharray="" stroke-dashoffset="0" style="mix-blend-mode: normal"><path d="M240,201.11711l-25.76112,-30.14226l13.14343,-12.09195l24.88613,0.0441l13.49268,11.8726z" fill="none" stroke="url(#color-1)" stroke-width="4" stroke-linecap="butt"/><path d="M240,201.11711l-25.76112,-30.14226l13.14343,-12.09195l24.88613,0.0441l13.49268,11.8726z" fill="none" stroke="url(#color-2)" stroke-width="4" stroke-linecap="butt"/><path d="M240.164,199.76271l-24.10886,-28.20901l12.30044,-11.3164l23.29,0.04128l12.62729,11.11112z" fill="#b7b9ca" stroke="#cfebea" stroke-width="2" stroke-linecap="butt"/><path d="M216.64967,171.51287l11.64442,-10.86539h15.25254l6.23222,10.98839l-9.51234,18.86067l-0.14165,8.67433z" fill="#dadde9" stroke="none" stroke-width="0" stroke-linecap="butt"/><path d="M246.1742,191.96549l10.86097,-20.46027" fill="none" stroke="#cbd4e1" stroke-width="1.5" stroke-linecap="round"/><path d="M256.84981,171.62876l-7.23149,-11.11396" data-paper-data="{&quot;index&quot;:null}" fill="none" stroke="#cbd4e1" stroke-width="1.5" stroke-linecap="round"/><path d="M240.082,198.86037v-7.87228l9.21305,-19.46349l-3.25302,20.4215" fill="none" stroke="#cbd4e1" stroke-width="1.5" stroke-linecap="round"/><path d="M234.15069,191.9461l-3.25302,-20.4215l9.21305,19.46349v7.87228" data-paper-data="{&quot;index&quot;:null}" fill="none" stroke="#e3ecf0" stroke-width="1.5" stroke-linecap="round"/><path d="M230.73367,171.14338l5.41219,-10.49637" fill="none" stroke="#e3ecf0" stroke-width="3" stroke-linecap="round"/><path d="M249.43033,171.14338l-5.41219,-10.49637" data-paper-data="{&quot;index&quot;:null}" fill="none" stroke="#e3ecf0" stroke-width="1.5" stroke-linecap="round"/><path d="M231.06168,172.12742l8.5283,18.04064" data-paper-data="{&quot;index&quot;:null}" fill="none" stroke="#e3ecf0" stroke-width="2.5" stroke-linecap="round"/><path d="M234.84978,173.98751l2.46009,4.92018" fill="none" stroke="#e3ecf0" stroke-width="1" stroke-linecap="round"/><path d="M223.37739,171.66922l10.86097,20.46027" data-paper-data="{&quot;index&quot;:null}" fill="none" stroke="#e3ecf0" stroke-width="1.5" stroke-linecap="round"/><path d="M230.79424,160.67881l-7.23149,11.11396" data-paper-data="{&quot;index&quot;:null}" fill="none" stroke="#e3ecf0" stroke-width="1.5" stroke-linecap="round"/><path d="M237.45791,171.30739l-0.82003,-10.66038h2.95211l0.82003,10.66038z" fill="#e4edea" stroke="#e3ecf0" stroke-width="0" stroke-linecap="butt"/><path d="M216.34215,171.5127l11.2344,-10.82439l1.47605,-0.041l-9.25145,10.86985l12.18281,18.57789z" fill="#cfebea" stroke="none" stroke-width="0" stroke-linecap="butt"/><path d="M263.04282,171.4717h-46.24965" fill="none" stroke="#cbd4e1" stroke-width="0.5" stroke-linecap="round"/><path d="M224.15977,171.21202l0.92937,-1.31205l4.31882,-0.05467l5.12136,-9.1971l1.42549,0.02599l-5.39881,10.53783z" fill="#b7b9ca" stroke="none" stroke-width="0" stroke-linecap="butt"/><path d="M233.72677,190.67405l-10.00436,-18.97001l6.99758,0.05467l0.16401,0.92937l-5.26584,-0.00296l7.58253,15.20105z" fill="#b7b9ca" stroke="none" stroke-width="0" stroke-linecap="butt"/><path d="M219.89561,171.5947h0.65602l9.02032,13.66716l1.47605,3.33479z" fill="#b7b9ca" stroke="none" stroke-width="0" stroke-linecap="butt"/><path d="M240.123,190.20937l-2.46009,-5.16618l2.26912,2.77623l7.6259,-16.14271h1.58539z" fill="#b7b9ca" stroke="none" stroke-width="0" stroke-linecap="butt"/><path d="M234.21879,192.17744l-2.54209,-17.54863l2.54209,5.5762l1.72222,11.03136l3.90959,5.42297l0.0264,2.40633z" fill="#b7b9ca" stroke="none" stroke-width="0" stroke-linecap="butt"/><path d="M240.36351,171.22569l-0.73803,-10.66038l3.93937,-0.01909l5.27411,10.7004l-1.25348,0.01311l-4.98407,-10.2706l-2.48391,-0.01381l0.73803,10.25037z" fill="#b7b9ca" stroke="none" stroke-width="0" stroke-linecap="butt"/></g></g></svg>