<svg version="1.1" xmlns="http://www.w3.org/2000/svg" xmlns:xlink="http://www.w3.org/1999/xlink" width="480" height="361.50005" viewBox="0,0,480,361.50005"><g transform="translate(-0.5,-0.00001)"><g data-paper-data="{&quot;isPaintingLayer&quot;:true}" fill-rule="nonzero" stroke-linejoin="miter" stroke-dasharray="" stroke-dashoffset="0" style="mix-blend-mode: normal"><path d="M0.5,361.50005v-361.50004h480v361.50005z" fill-opacity="0.90196" fill="#000000" stroke="none" stroke-width="0" stroke-linecap="butt" stroke-miterlimit="10"/><g fill="none" stroke="#ffff00" stroke-width="6" stroke-miterlimit="10"><path d="M61.26144,341.59838l-11.52962,-4.79159l-5.64198,-9.90374" stroke-linecap="round"/><path d="M20.9601,329.88631l10.30976,-5.66531l5.22538,-12.1666l7.5946,14.84865l-7.90994,8.94372l0.32304,11.37069" stroke-linecap="round"/><path d="M36.82576,311.39333l12.89085,1.32214l5.61909,9.5855" stroke-linecap="round"/><path d="M26.24481,305.77425c0,-3.46844 2.81172,-6.28016 6.28016,-6.28016c3.46844,0 6.28016,2.81172 6.28016,6.28016c0,3.46844 -2.81172,6.28016 -6.28016,6.28016c-3.46844,0 -6.28016,-2.81172 -6.28016,-6.28016z" stroke-linecap="butt"/></g><path d="M23.47802,352.01259h-14.47802v-61.68896h50.98782v16.36646" data-paper-data="{&quot;index&quot;:null}" fill="none" stroke="#ffff00" stroke-width="6" stroke-linecap="round" stroke-miterlimit="10"/><path d="M13.22447,259.36257v2.62056c0,0 3.03659,0.04855 5.85934,-2.76681c2.50535,-2.4988 2.20236,-5.84334 2.20236,-5.84334h-2.35211c0,0 0.27207,2.17079 -1.62116,4.18815c-1.7485,1.86316 -4.08842,1.80144 -4.08842,1.80144zM12.84947,247.30976c-3.38543,0 -6.12985,2.7146 -6.12985,6.06322c0,3.34862 2.74442,6.06322 6.12985,6.06322c3.38542,0 6.12985,-2.7146 6.12985,-6.06322c0,-3.34862 -2.74443,-6.06322 -6.12985,-6.06322zM12.61009,245.0265c0.15909,-0.00312 0.31826,-0.00314 0.4773,0.002c2.3165,0.05385 4.57848,1.12886 6.10227,2.8709c1.53454,1.72294 2.30277,4.09346 2.07982,6.38899c-0.19393,2.23467 -1.33137,4.3616 -3.06975,5.77609c-1.6695,1.38151 -3.88369,2.07301 -6.04236,1.89355c-2.10675,-0.15532 -4.13232,-1.14403 -5.55988,-2.69975c-1.48631,-1.59116 -2.30721,-3.77406 -2.24977,-5.94962c0.03395,-1.96965 0.79562,-3.90946 2.09612,-5.38706c1.52957,-1.77292 3.82623,-2.84742 6.16625,-2.89514z" fill="#ffff00" stroke="none" stroke-width="0.26459" stroke-linecap="butt" stroke-miterlimit="4"/><path d="M14.15803,280.82719v-23.22376l5.55871,-2.47916c0,0 15.36704,15.09939 14.91646,15.37121c-0.7647,0.46129 -7.06787,3.17976 -7.06787,3.17976c0,0 2.69218,6.00873 0.34737,6.70811c-2.55778,0.76292 -6.80794,-3.98426 -6.80794,-3.98426z" fill="#ffff00" stroke="none" stroke-width="0" stroke-linecap="butt" stroke-miterlimit="10"/><path d="M17.6612,276.31678v-19.99555l2.12627,-1.07259c0,0 13.07663,13.16551 12.70001,13.40856c-0.55372,0.35734 -5.56786,2.66948 -5.56786,2.66948c0,0 2.39938,4.44833 0.70148,4.99011c-1.85212,0.59099 -4.60832,-3.56772 -4.60832,-3.56772z" fill="#ffff00" stroke="none" stroke-width="0" stroke-linecap="butt" stroke-miterlimit="10"/><path d="M71.66301,326.30482l-8.45411,-3.38165v-1.52173l8.45411,-3.55073v2.19807l-5.24156,2.02899l5.24156,2.02899z" fill="#71ff33" stroke="none" stroke-width="0.26458" stroke-linecap="butt" stroke-miterlimit="10"/><path d="M81.1052,326.30482l-8.45411,-3.38165v-1.52173l8.45411,-3.55073v2.19807l-5.24156,2.02899l5.24156,2.02899z" fill="#71ff33" stroke="none" stroke-width="0.26458" stroke-linecap="butt" stroke-miterlimit="10"/><path d="M90.54739,326.30482l-8.45411,-3.38165v-1.52173l8.45411,-3.55073v2.19807l-5.24156,2.02899l5.24156,2.02899z" fill="#71ff33" stroke="none" stroke-width="0.26458" stroke-linecap="butt" stroke-miterlimit="10"/><path d="M200.27418,214.93495c-3.63831,-3.63831 -4.1442,-73.75621 0,-77.90033c4.31284,-4.31284 74.17777,-3.72266 77.90038,0c4.1442,4.1442 4.05986,73.84042 0,77.90033c-3.8913,3.8913 -74.4306,3.46967 -77.90037,0z" fill="#71ff33" stroke="none" stroke-width="0" stroke-linecap="butt" stroke-miterlimit="10"/><g fill="#000000" stroke="none" stroke-width="0" stroke-linecap="butt" stroke-miterlimit="10"><path d="M212.65902,199.06296c0,-3.70597 3.00428,-6.71025 6.71025,-6.71025c3.70597,0 6.71025,3.00428 6.71025,6.71025c0,3.70597 -3.00428,6.71025 -6.71025,6.71025c-3.70597,0 -6.71025,-3.00428 -6.71025,-6.71025z"/><path d="M211.86958,181.8716v-37.67477h14.20993v37.67477z"/></g><g fill="#000000" stroke="none" stroke-width="0" stroke-linecap="butt" stroke-miterlimit="10"><path d="M253.70993,199.06296c0,-3.70597 3.00428,-6.71025 6.71025,-6.71025c3.70597,0 6.71025,3.00428 6.71025,6.71025c0,3.70597 -3.00428,6.71025 -6.71025,6.71025c-3.70597,0 -6.71025,-3.00428 -6.71025,-6.71025z"/><path d="M252.92049,181.8716v-37.67477h14.20993v37.67477z"/></g><g fill="#ffff00" stroke="none" stroke-width="0" stroke-linecap="butt" stroke-miterlimit="10"><path d="M232.98638,109.93535c0,-3.70596 3.00428,-6.71025 6.71025,-6.71025c3.70596,0 6.71024,3.00428 6.71024,6.71025c0,3.70596 -3.00428,6.71024 -6.71024,6.71024c-3.70596,0 -6.71025,-3.00428 -6.71025,-6.71024z"/><path d="M232.19694,92.74399v-37.67477h14.20993v37.67477z"/></g><path d="M35.61077,281.82719l7,-33.78007" fill="none" stroke="#ceff00" stroke-width="4" stroke-linecap="round" stroke-miterlimit="10"/><g stroke="none" stroke-linecap="butt" stroke-miterlimit="10"><path d="M45.20012,278.0422c-1.13874,-1.13874 -1.29708,-23.08469 0,-24.38174c1.34986,-1.34986 23.21663,-1.16514 24.38176,0c1.29708,1.29708 1.27068,23.11104 0,24.38174c-1.21792,1.21792 -23.29576,1.08596 -24.38175,0z" fill="#71ff33" stroke-width="0"/><path d="M48.23881,259.50498c0,-1.60815 0.48244,-2.87458 1.44734,-3.79927c0.96489,-0.92468 2.29162,-1.38703 3.98018,-1.38703c1.44734,0 2.45243,0.0402 3.01528,0.12061l-1.0855,3.37712l-0.24122,-0.24122c-0.48244,-0.32163 -1.0855,-0.36183 -1.80917,-0.12061c-0.80408,0.48244 -1.40713,1.00509 -1.80917,1.56795c-0.40204,0.48244 -0.48244,1.0855 -0.24122,1.80918l0.24122,0.24122c0.40204,0.56285 1.0855,0.72367 2.05039,0.48244c0.80408,-0.48244 1.40713,-1.00509 1.80917,-1.56795l1.44734,4.2214c-0.56285,0.32163 -1.68856,0.48244 -3.37712,0.48244c-1.68856,0 -3.01528,-0.52265 -3.98018,-1.56796c-0.96489,-1.04529 -1.44734,-2.25141 -1.44734,-3.61833z" fill="#000000" stroke-width="0.26459"/><path d="M60.86268,264.45005v-6.99545h-2.89467v-3.1359h9.16646v3.1359h-2.89467v6.99545z" fill="#000000" stroke-width="0.26459"/><path d="M47.69607,277.10021v-10.13135h5.90995c2.41223,0 3.61834,0.88449 3.61834,2.65346v0.48244c0,1.28652 -0.52265,2.1308 -1.56795,2.53284c0.32163,0.16082 0.64326,0.52264 0.96489,1.0855l0.96489,3.37712h-3.61833l-0.72367,-2.77407c-0.16081,-0.72367 -0.60306,-1.0855 -1.32673,-1.0855h-0.72366v3.85956zM52.64113,271.06965c0.64326,0 0.96489,-0.32162 0.96489,-0.96489v-0.48244c0,-0.48245 -0.32162,-0.72367 -0.96489,-0.72367h-1.44734v2.17101z" fill="#000000" stroke-width="0.26459"/><path d="M58.32984,277.30425v-10.13135h3.61835v7.23668h4.82445v2.89467z" fill="#000000" stroke-width="0.26459"/></g></g></g></svg>