<svg version="1.1" xmlns="http://www.w3.org/2000/svg" xmlns:xlink="http://www.w3.org/1999/xlink" width="305.45176" height="25.53501" viewBox="0,0,305.45176,25.53501"><g transform="translate(-87.27413,-165.98252)"><g data-paper-data="{&quot;isPaintingLayer&quot;:true}" fill-rule="nonzero" stroke="none" stroke-width="0.26459" stroke-linecap="butt" stroke-linejoin="miter" stroke-miterlimit="10" stroke-dasharray="" stroke-dashoffset="0" style="mix-blend-mode: normal"><path d="M131.0915,186.21047l-13.81738,-5.9494v-2.67722l13.81738,-6.24686v3.8671l-8.56677,3.56964l8.56677,3.56964z" fill="#ff0000"/><path d="M133.85499,190.97004l4.1452,-24.98748h6.63235l3.03982,10.114l3.03983,-10.114h6.63233l4.1452,24.98748h-6.90868l-1.65808,-11.00638l-2.21078,11.00638h-6.07964l-2.21079,-11.00638l-1.65809,11.00638z" fill="#ff0000"/><path d="M164.25318,190.97004l6.90869,-24.98748h12.43564l6.90869,24.98748h-8.01407l-1.38174,-4.75952h-7.73773l-1.10539,4.75952zM179.45231,179.66615l-2.07259,-7.43677l-2.0726,7.43677z" fill="#ff0000"/><path d="M193.26966,190.97004v-24.98748h9.67216v24.98748z" fill="#ff0000"/><path d="M205.70529,190.97004v-24.98748h9.39581l6.07964,11.15513v-11.15513h8.29042v24.98748h-9.39581l-6.07964,-10.79815v10.79815z" fill="#ff0000"/><path d="M246.38365,190.97004l4.14522,-24.98748h6.63233l3.03983,10.114l3.03983,-10.114h6.63233l4.14519,24.98748h-6.90867l-1.65807,-11.00638l-2.21078,11.00638h-6.07965l-2.21078,-11.00638l-1.6581,11.00638z" fill="#ff0000"/><path d="M276.78184,190.97004v-24.98748h19.34432v7.13928h-11.05389v1.78483h11.05389v7.13928h-11.05389v1.78481h11.05389v7.13928z" fill="#ff0000"/><path d="M298.88964,190.97004v-24.98748h9.39582l6.07963,11.15513v-11.15513h8.29043v24.98748h-9.39582l-6.07963,-10.79815v10.79815z" fill="#ff0000"/><path d="M325.419,180.55854v-14.57602h7.73772v14.57602c0,2.37976 0.92115,3.56964 2.76346,3.56964h0.55271c1.65808,0 2.48712,-1.18988 2.48712,-3.56964v-14.57602h7.18504v14.57602c0,7.13929 -3.31617,10.70895 -9.9485,10.70895c-7.18503,0 -10.77755,-3.56965 -10.77755,-10.70895z" fill="#ff0000"/><path d="M362.72592,186.21047l-13.81738,-5.9494v-2.67722l13.81738,-6.24686v3.8671l-8.56677,3.56964l8.56677,3.56964z" fill="#ff0000"/><path d="M133.1991,186.91051l-13.54998,-5.41999v-2.43899l13.54998,-5.69098v3.52299l-8.40099,3.25199l8.40099,3.252z" fill="#71ff33"/><path d="M135.90909,191.24647l4.06499,-22.76395h6.504l2.98099,9.21399l2.981,-9.21399h6.50399l4.06499,22.76395h-6.77498l-1.626,-10.02697l-2.16799,10.02697h-5.96199l-2.168,-10.02697l-1.626,10.02697z" fill="#71ff33"/><path d="M165.71906,191.24647l6.77499,-22.76395h12.19498l6.77499,22.76395h-7.85898l-1.35501,-4.33599h-7.58799l-1.08399,4.33599zM180.62403,180.94855l-2.03249,-6.775l-2.03249,6.775z" fill="#71ff33"/><path d="M194.17402,191.24647v-22.76395h9.48499v22.76395z" fill="#71ff33"/><path d="M206.36897,191.24647v-22.76395h9.21398l5.96199,10.16248v-10.16248h8.12998v22.76395h-9.21398l-5.96198,-9.83727v9.83727z" fill="#71ff33"/><path d="M246.2601,191.24647l4.065,-22.76395h6.50399l2.981,9.21399l2.981,-9.21399h6.50399l4.06497,22.76395h-6.77497l-1.62599,-10.02697l-2.168,10.02697h-5.962l-2.16799,-10.02697l-1.62601,10.02697z" fill="#71ff33"/><path d="M276.07006,191.24647v-22.76395h18.96997v6.50399h-10.83997v1.62601h10.83997v6.50399h-10.83997v1.62599h10.83997v6.50399z" fill="#71ff33"/><path d="M297.75001,191.24647v-22.76395h9.21399l5.96197,10.16248v-10.16248h8.13v22.76395h-9.21399l-5.96197,-9.83727v9.83727z" fill="#71ff33"/><path d="M323.76598,181.76151v-13.27896h7.58798v13.27897c0,2.16799 0.90332,3.25199 2.70998,3.25199h0.54201c1.62599,0 2.43899,-1.084 2.43899,-3.25199v-13.27896h7.046v13.27897c0,6.504 -3.25199,9.756 -9.75598,9.756c-7.04598,0 -10.56898,-3.252 -10.56898,-9.756z" fill="#71ff33"/><path d="M360.35092,186.91051l-13.54998,-5.41999v-2.43899l13.54998,-5.69098v3.52299l-8.40099,3.25199l8.40099,3.252z" fill="#71ff33"/><path d="M116.09153,186.21048l-13.81738,-5.9494v-2.67722l13.81738,-6.24686v3.8671l-8.56677,3.56964l8.56677,3.56964z" fill="#ff0000"/><path d="M118.19914,186.91051l-13.54998,-5.41999v-2.43899l13.54998,-5.69098v3.52299l-8.40099,3.25199l8.40099,3.252z" fill="#71ff33"/><path d="M101.09152,186.21048l-13.81738,-5.9494v-2.67722l13.81738,-6.24686v3.8671l-8.56677,3.56964l8.56677,3.56964z" fill="#ff0000"/><path d="M103.19913,186.91051l-13.54998,-5.41999v-2.43899l13.54998,-5.69098v3.52299l-8.40099,3.25199l8.40099,3.252z" fill="#71ff33"/><path d="M377.72591,186.21048l-13.81738,-5.9494v-2.67722l13.81738,-6.24686v3.8671l-8.56677,3.56964l8.56677,3.56964z" fill="#ff0000"/><path d="M375.35091,186.91051l-13.54998,-5.41999v-2.43899l13.54998,-5.69098v3.52299l-8.40099,3.25199l8.40099,3.252z" fill="#71ff33"/><path d="M392.7259,186.21048l-13.81738,-5.9494v-2.67722l13.81738,-6.24686v3.8671l-8.56677,3.56964l8.56677,3.56964z" fill="#ff0000"/><path d="M390.3509,186.91051l-13.54998,-5.41999v-2.43899l13.54998,-5.69098v3.52299l-8.40099,3.25199l8.40099,3.252z" fill="#71ff33"/></g></g></svg>