<svg version="1.1" xmlns="http://www.w3.org/2000/svg" xmlns:xlink="http://www.w3.org/1999/xlink" width="16.62236" height="20.86954" viewBox="0,0,16.62236,20.86954"><g transform="translate(-233.0551,-170.82039)"><g data-paper-data="{&quot;isPaintingLayer&quot;:true}" fill-rule="nonzero" stroke-linejoin="miter" stroke-miterlimit="10" stroke-dasharray="" stroke-dashoffset="0" style="mix-blend-mode: normal"><path d="" fill="#bacfa5" stroke="#000000" stroke-width="0.125" stroke-linecap="butt"/><path d="" fill="#ffffff" stroke="#000000" stroke-width="0.125" stroke-linecap="butt"/><path d="" fill="#ffffff" stroke="#000000" stroke-width="0.125" stroke-linecap="butt"/><path d="" fill="#ffffff" stroke="#000000" stroke-width="0.125" stroke-linecap="butt"/><path d="" fill="#ffffff" stroke="#000000" stroke-width="0.125" stroke-linecap="round"/><path d="" fill="#ffffff" stroke="#000000" stroke-width="0.125" stroke-linecap="round"/><path d="" fill="#ffffff" stroke="#000000" stroke-width="0.125" stroke-linecap="round"/><path d="" fill="#ffffff" stroke="#000000" stroke-width="0.125" stroke-linecap="round"/><path d="" fill="#ffffff" stroke="#000000" stroke-width="0.125" stroke-linecap="round"/><path d="" fill="#ffffff" stroke="#000000" stroke-width="0.125" stroke-linecap="butt"/><path d="" fill="#ffffff" stroke="#000000" stroke-width="0.125" stroke-linecap="round"/><path d="" fill="#21609f" stroke="#000000" stroke-width="0" stroke-linecap="butt"/><path d="" fill="#21609f" stroke="#000000" stroke-width="0" stroke-linecap="butt"/><path d="" data-paper-data="{&quot;index&quot;:null}" fill="#21609f" stroke="#000000" stroke-width="0" stroke-linecap="butt"/><path d="" fill="#465363" stroke="none" stroke-width="0.5" stroke-linecap="butt"/><path d="" fill="#3b4652" stroke="#000000" stroke-width="0.25" stroke-linecap="butt"/><path d="" fill="#465363" stroke="none" stroke-width="0.5" stroke-linecap="butt"/><path d="" fill="#3b4652" stroke="#000000" stroke-width="0.25" stroke-linecap="butt"/><path d="M239.03943,172.00195c0.51363,-0.34189 1.20458,-0.75601 1.96869,-1.18156c0.87344,2.73336 2.22589,6.08143 3.98265,9.23587l-10.6675,-0.00007c1.12237,-2.18472 2.03271,-4.57294 2.43104,-6.1184c0.00605,-0.01149 0.01208,-0.023 0.01809,-0.03452c0.76263,-0.73768 1.55342,-1.4263 2.26704,-1.90132z" fill="#21609f" stroke="#000000" stroke-width="0" stroke-linecap="butt"/><path d="M237.3064,178.35827c-0.33002,-0.02768 -1.26236,-0.09436 -2.1007,-0.15332c0.17272,-0.39035 0.33627,-0.77796 0.48901,-1.15714c0.34815,-0.2264 0.79673,-0.20069 0.79673,-0.20069c0,0 1.5637,-2.29804 2.88731,-3.34234c0.53753,-0.4241 1.3023,-0.90415 2.08082,-1.34065c0.69664,1.97931 1.6097,4.184 2.71563,6.35919c-1.49249,0.13706 -3.67367,0.10297 -6.86879,-0.16505z" fill="#000000" stroke="#000000" stroke-width="0" stroke-linecap="butt"/><path d="M240.4297,174.21792c0.41639,-0.33181 0.79702,-0.78592 1.34988,-1.17024c0.54876,1.47379 1.20869,3.04574 1.97091,4.61972c-1.77033,0.14441 -4.58725,-0.04811 -5.51294,0.0233c0.78447,-0.34363 2.79268,-1.44595 2.79268,-1.44595l-2.17697,-0.07507c0,0 0.81069,-1.34157 1.57642,-1.95176z" fill="#21609f" stroke="#000000" stroke-width="0.5" stroke-linecap="butt"/><path d="M238.23755,177.69071c-0.21819,0.09558 -0.34172,0.13246 -0.30102,0.07061c0.02311,-0.03512 0.12966,-0.05739 0.30102,-0.07061z" fill="#21609f" stroke="#000000" stroke-width="0.5" stroke-linecap="butt"/><path d="M242.00612,175.56914l-1.27615,-0.1126c0,0 0.73902,-0.69211 1.48092,-1.28902c0.12848,0.32281 0.26189,0.64898 0.40015,0.97759c-0.33363,0.23457 -0.60492,0.42404 -0.60492,0.42404z" fill="#000000" stroke="#000000" stroke-width="0.5" stroke-linecap="butt"/><path d="M241.33051,176.77023c0,0 0.84485,-0.48006 1.585,-0.91577c0.09177,0.20965 0.18546,0.42 0.28104,0.63083c-0.79592,0.14606 -1.86604,0.28494 -1.86604,0.28494z" fill="#000000" stroke="#000000" stroke-width="0.5" stroke-linecap="butt"/><path d="M247.18579,191.61813c-0.65976,0.54834 -5.98013,-2.17814 -8.14636,-3.62009c-2.45238,-1.63242 -5.81623,-5.78745 -5.81623,-5.78745l-0.1681,0.05802c0.46177,-0.71259 0.90887,-1.50574 1.32563,-2.32481l10.54758,-0.00007c1.35196,2.44441 2.94654,4.77864 4.74914,6.62815c-0.52473,2.0361 -1.86566,4.52597 -2.49167,5.04625z" fill="#21609f" stroke="#000000" stroke-width="0" stroke-linecap="butt"/><path d="M239.37875,186.49522c-1.32362,-1.0443 -2.88731,-3.34234 -2.88731,-3.34234c0,0 -0.46564,0.02669 -0.81631,-0.21376c-0.72313,-0.49585 -2.00813,-1.03688 -2.00813,-1.03688c0,0 2.98907,-0.20596 3.63939,-0.26051c4.92105,-0.4128 7.43688,-0.27067 8.73583,0.19696c0.48544,0.77595 0.99611,1.52938 1.53078,2.24698c0.3998,2.27257 -0.16294,3.13326 -0.53735,4.36132c-0.21088,0.69168 -1.52788,1.03524 -2.73997,0.71314c-0.8919,-0.23702 -3.59332,-1.6206 -4.91693,-2.6649z" fill="#000000" stroke="#000000" stroke-width="0" stroke-linecap="butt"/><path d="M238.85328,183.83032l2.17697,-0.07507c0,0 -3.28071,-1.80081 -3.0937,-1.51655c0.19591,0.29778 6.39013,-0.32863 7.22467,0.4439c0.30341,0.28087 1.15646,0.66088 1.19311,1.21939c0.10527,1.60422 0.23888,2.77139 -0.51882,3.60819c-0.27525,0.30397 -0.36048,0.39129 -2.17788,0.1486c-1.81739,-0.2427 -2.46218,-1.2665 -3.22791,-1.87669c-0.76573,-0.61019 -1.57642,-1.95176 -1.57642,-1.95176z" fill="#21609f" stroke="#000000" stroke-width="0.5" stroke-linecap="butt"/><path d="M243.52529,185.50286c0.50341,0.36221 1.85888,1.1425 1.85888,1.1425c0,0 -0.55786,0.03753 -1.80162,0.03753c-0.56816,0 -2.85258,-2.13943 -2.85258,-2.13943l1.27615,-0.1126c0,0 0.99731,0.69652 1.51916,1.072z" fill="#000000" stroke="#000000" stroke-width="0.5" stroke-linecap="butt"/><path d="M241.33051,183.22978c0,0 2.06089,0.26745 2.58984,0.45041c1.08516,0.37534 1.46382,2.02683 1.46382,2.02683c0,0 -1.19969,-0.79941 -1.98929,-1.27615c-0.7896,-0.47674 -2.06436,-1.20108 -2.06436,-1.20108z" fill="#000000" stroke="#000000" stroke-width="0.5" stroke-linecap="butt"/><path d="" fill="#abc598" stroke="#000000" stroke-width="0.25" stroke-linecap="butt"/></g></g></svg>