<svg version="1.1" xmlns="http://www.w3.org/2000/svg" xmlns:xlink="http://www.w3.org/1999/xlink" width="140.75981" height="216.59364" viewBox="0,0,140.75981,216.59364"><defs><radialGradient cx="250.82306" cy="144.15394" r="8.50995" gradientUnits="userSpaceOnUse" id="color-1"><stop offset="0" stop-color="#f5ab87" stop-opacity="0.25098"/><stop offset="1" stop-color="#f5ab87" stop-opacity="0"/></radialGradient><radialGradient cx="217.80467" cy="146.23465" r="4.74865" gradientUnits="userSpaceOnUse" id="color-2"><stop offset="0" stop-color="#f5ab87" stop-opacity="0.25098"/><stop offset="1" stop-color="#f5ab87" stop-opacity="0"/></radialGradient></defs><g transform="translate(-168.67955,-65.08671)"><g data-paper-data="{&quot;isPaintingLayer&quot;:true}" fill-rule="nonzero" stroke-linecap="butt" stroke-linejoin="miter" stroke-miterlimit="10" stroke-dasharray="" stroke-dashoffset="0" style="mix-blend-mode: normal"><path d="M262.80712,281.15423c-6.7551,2.17859 -18.63635,-3.11302 -18.63635,-3.11302c-2.68222,-1.24811 -4.52682,-3.12936 -6.102,-5.28268c-1.37185,-1.87536 -2.53945,-3.95715 -3.87812,-6.0068c-2.87572,-4.40314 5.06802,-2.74271 5.06802,-2.74271c0,0 11.62118,1.70694 16.8744,4.99236c9.62522,4.25955 12.49312,-2.43745 12.49312,-2.43745c0,0 0.93598,12.41183 -5.81909,14.59037z" data-paper-data="{&quot;index&quot;:null}" fill="#54c81c" stroke="none" stroke-width="0"/><path d="M271.58218,267.18511c-0.67876,1.79627 -2.68518,2.7022 -4.48146,2.02344c-1.79628,-0.67876 -2.7022,-2.68518 -2.02344,-4.48146c0.67876,-1.79627 2.68519,-2.7022 4.48146,-2.02344c1.79628,0.67876 2.7022,2.68518 2.02344,4.48146z" data-paper-data="{&quot;index&quot;:null}" fill="#ffffff" stroke="none" stroke-width="0"/><path d="M211.45269,279.48762c-6.75508,-2.17854 -5.8191,-14.59037 -5.8191,-14.59037c0,0 2.8679,6.697 12.49312,2.43745c5.25322,-3.28542 16.8744,-4.99236 16.8744,-4.99236c0,0 7.94375,-1.66044 5.06802,2.74271c-1.33867,2.04964 -2.50628,4.13143 -3.87812,6.0068c-1.57518,2.15332 -3.41978,4.03458 -6.102,5.28268c0,0 -11.88125,5.29161 -18.63635,3.11302z" fill="#54c81c" stroke="none" stroke-width="0"/><path d="M204.70104,261.03699c1.79628,-0.67876 3.8027,0.22717 4.48146,2.02344c0.67876,1.79627 -0.22716,3.8027 -2.02344,4.48146c-1.79628,0.67876 -3.8027,-0.22717 -4.48146,-2.02344c-0.67876,-1.79627 0.22716,-3.8027 2.02344,-4.48146z" fill="#ffffff" stroke="none" stroke-width="0"/><path d="M249.336,202.71842c0,0 -0.44284,-11.46679 -2.07011,-17.39444c-2.10995,-7.68565 -9.52168,-24.83076 -9.52168,-24.83076l6.66511,0.97067c0,0 9.03733,14.40558 11.83037,21.89144c2.56028,6.86215 4.29041,21.31548 4.29041,21.31548z" data-paper-data="{&quot;index&quot;:null}" fill="#fba15d" stroke="none" stroke-width="0"/><path d="M258.88296,208.71272c0,0 -3.43068,-12.71993 -6.34067,-23.66743c-2.10988,-7.68565 -10.39737,-24.0722 -10.39737,-24.0722l6.33889,-1.35235c0,0 8.24639,10.03975 9.14287,20.81774c1.21527,14.61121 7.78338,27.12788 7.78338,27.12788z" data-paper-data="{&quot;index&quot;:null}" fill="#fba15d" stroke="none" stroke-width="0"/><path d="M236.71615,258.46877l-0.72785,6.04173c-0.93311,5.30867 -1.13055,4.11557 -6.51154,7.44074c-2.01739,1.24588 -12.88559,5.84951 -15.00463,2.08906c-1.44397,-2.56148 -2.85862,-2.37707 0.97285,-5.94594c4.78022,-4.45245 7.34496,-3.73307 13.05566,-11.48463c2.13533,-2.89836 2.97264,-20.20644 3.53173,-23.57983c0.33362,-3.35775 6.91815,-10.19249 7.07453,-6.81845l-1.49349,23.55506z" data-paper-data="{&quot;index&quot;:null}" fill="#ffffff" stroke="none" stroke-width="0.17188"/><path d="M238.22594,250.25587l-1.31299,-19.10978c0.15704,-3.45875 8.01481,8.7974 8.34843,12.2392c2.19789,13.60628 8.35104,19.9699 15.13235,25.66107c4.02174,3.37404 2.41552,3.46917 0.97351,6.09451c-2.11904,3.85623 -12.9879,-0.86338 -15.00463,-2.1412c-5.38165,-3.40923 -5.57843,-2.18616 -6.51284,-7.62841l-0.72654,-6.19356z" data-paper-data="{&quot;index&quot;:null}" fill="#ffffff" stroke="none" stroke-width="0.17188"/><path d="M263.80816,230.36547c-0.44114,3.13555 -10.88971,3.07951 -12.02808,0.05864c-1.52876,-4.02781 -5.99903,-13.76432 -8.16604,-24.09418c-1.92665,-9.1841 -0.53204,-19.09232 0.19815,-19.19751c0.55275,-0.04194 3.29808,6.11998 5.94034,10.50239c6.38782,10.5947 14.80143,27.33761 14.05562,32.73066z" data-paper-data="{&quot;index&quot;:null}" fill="#ffffff" stroke="none" stroke-width="0.19137"/><path d="M222.62811,215.30705c0,0.62229 -0.13358,11.5739 0.18245,16.00029c0.18571,2.60058 -5.14446,8.14969 -5.83517,8.76612l-4.10906,3.66401l2.76152,-9.52264l1.72742,-9.81782z" data-paper-data="{&quot;index&quot;:null}" fill="#54c81c" stroke="none" stroke-width="0.17188"/><path d="M235.72245,210.79956c-0.05669,-3.46462 14.08977,12.30957 14.08977,13.81609c0,0.62229 1.43876,1.20027 1.45569,5.63773c0.00716,2.06496 -2.44288,6.85298 -3.10753,9.67446l-2.11056,8.93619l-5.78239,-12.97682l-4.27261,-8.36342z" data-paper-data="{&quot;index&quot;:null}" fill="#54c81c" stroke="none" stroke-width="0.17188"/><path d="M218.94544,210.27046c-0.05734,-3.46266 17.78943,0.31277 17.78943,1.81799c0,0.62229 -0.82053,13.93729 -0.5045,18.36303c0.18571,2.60058 -5.09199,10.33976 -5.57548,11.12951l-6.47245,10.57238l-2.14706,-10.06868c-1.1325,-4.85906 -2.09883,-9.55196 -2.27281,-13.45315z" data-paper-data="{&quot;index&quot;:null}" fill="#54c81c" stroke="none" stroke-width="0.17188"/><path d="M217.35209,223.13094c0,0 -0.17419,-8.50843 1.01854,-14.03011c1.19273,-5.52168 4.21853,-16.55299 5.41032,-13.64551c2.1047,5.13209 -1.47213,4.88164 -1.47213,15.03894c0,3.71288 -0.20135,7.12406 -0.84319,10.73202c-0.69331,3.89402 -2.96027,3.4177 -4.09733,5.41684z" data-paper-data="{&quot;index&quot;:null}" fill="#ffffff" stroke="none" stroke-width="0.17188"/><path d="M228.14976,180.11384c1.69093,-2.48134 4.67368,-12.33686 6.35613,-9.62421c3.87839,6.25285 3.82386,16.63339 3.82386,26.79134c0,3.71157 -1.6338,15.53727 -2.27563,19.14524c-0.69331,3.89402 -2.77782,5.05454 -3.91553,7.05369c-2.32495,4.09081 -4.15858,6.48483 -6.3304,6.48483c-2.27086,0 -3.88816,-3.33429 -4.89751,-6.54803c-0.86534,-2.7537 -1.28367,-4.74308 -1.28367,-12.08672c0,-7.42119 1.0244,-11.61199 2.13279,-17.39047c0,0 3.35802,-9.37843 6.38996,-13.82567z" data-paper-data="{&quot;index&quot;:null}" fill="#ffffff" stroke="none" stroke-width="0.17188"/><path d="M236.54608,195.19545c-1.23545,-7.25633 -2.89901,-15.87453 -0.73827,-15.81719c1.52411,0.0391 7.88236,3.0048 9.07546,5.91229c2.1034,5.13143 0.0145,8.74503 0.0145,18.90169c0,3.71288 5.79673,9.85169 5.15489,13.45901c-0.69331,3.89402 -0.0378,8.04934 -1.55214,9.78068l-2.33081,2.66704c-1.49479,1.70982 -4.43356,-2.42465 -5.44291,-5.63903c-0.86599,-2.75436 -4.19246,-8.74201 -4.19246,-16.08565c0,-7.42184 0.89531,-7.98614 0.01173,-13.17882z" data-paper-data="{&quot;index&quot;:null}" fill="#ffffff" stroke="none" stroke-width="0.17188"/><path d="M252.98462,118.66408c1.48583,-0.19112 2.7492,0.86228 4.04661,1.41959c1.45831,0.84195 3.09094,1.47043 4.37879,2.56739c0.97674,1.40366 1.05167,3.22177 1.35823,4.85409c0.80266,5.99697 1.00511,12.05168 1.26319,18.09421c0.24258,2.47292 -0.98278,4.81166 -2.60461,6.59307c-1.77124,1.88409 -4.39537,2.56247 -6.69447,3.57793c-3.608,1.44061 -7.39833,2.37732 -11.26974,2.68455c-4.73875,0.62941 -10.80402,0.76819 -15.29682,-1.4652c-2.99551,-0.94189 -2.54655,-0.92759 -5.61978,-1.73438c-6.25727,-2.54469 -11.07025,-7.86843 -13.86855,-13.92922c-1.70466,-3.61909 -2.82501,-7.59205 -2.87017,-11.6104c0.07655,-1.70371 0.12342,-3.73532 1.49985,-4.94637c1.14766,-0.87587 2.665,-0.11352 3.5961,0.71863c1.74579,1.54681 3.21402,3.38499 4.66293,5.19994c2.08912,2.72605 3.81069,5.83282 6.57538,7.9152c0.23516,0.07443 -0.03935,-0.50007 -0.00569,-0.62508c0.53775,-1.03821 -1.63643,-4.1306 -1.16223,-4.40902c0.36219,-0.29205 2.41343,0.476 2.65091,0.6585c0.91335,1.2428 0.80934,1.68324 2.07267,2.60465c2.45998,-0.43074 2.75001,0.82671 4.75717,-0.82411c2.76805,-2.25261 5.36867,-5.23227 7.68686,-7.91735c2.65552,-3.08172 4.60199,-6.18341 8.00193,-8.4872c1.40378,-0.89138 5.20159,-0.77247 6.84146,-0.93945z" data-paper-data="{&quot;index&quot;:null}" fill="#f0e9bb" stroke="none" stroke-width="0.17188"/><path d="M253.07569,132.4175c0.29618,4.27796 6.42646,1.51038 8.47195,0.95205c1.29451,-0.16136 4.64438,-3.02493 4.12302,-2.16081c-1.31462,2.1811 -10.79392,5.1376 -11.9963,4.67351c0.82307,-2.72659 -10.01305,-2.18948 -0.59866,-3.46473z" data-paper-data="{&quot;index&quot;:null}" fill="#000000" stroke="none" stroke-width="0.17188"/><path d="M241.57687,131.49406c1.84802,-3.52805 3.76557,-3.88002 6.02287,-4.1614c3.16125,-0.39404 5.65143,3.45809 6.13792,7.361c0.27782,2.22885 -0.344,4.73138 -1.22169,6.69846c0.12864,0.55789 -2.70375,1.17227 -5.79143,1.70883c-1.9784,0.34313 -4.21899,0.40572 -5.86071,0.61036c-1.60288,0.02643 -1.70324,-7.45346 -0.57284,-9.35813c0.28759,-1.22767 0.83188,-1.99222 1.28591,-2.85913z" data-paper-data="{&quot;index&quot;:null}" fill="#ffffff" stroke="none" stroke-width="0.17188"/><path d="M248.46402,151.24301c0.14337,0.00183 -0.34167,3.0068 -4.08726,3.58556c-2.10271,0.3249 -5.27726,-1.23862 -5.46874,-1.22591c-0.07153,0.00563 3.67853,0.91585 6.06293,0.32708c2.3844,-0.58877 3.49307,-2.68672 3.49307,-2.68672z" data-paper-data="{&quot;index&quot;:null}" fill="#9a9578" stroke="none" stroke-width="0.17188"/><path d="M214.58064,137.39505c-0.7439,0.70669 -8.01356,-0.16145 -9.39652,-2.00563c-0.54877,-0.73074 2.40691,1.34557 3.34771,1.2283c1.55111,0.11134 6.43302,1.50496 5.73415,-2.72148c6.86781,-0.75427 -0.8401,1.02008 0.31464,3.49883z" data-paper-data="{&quot;index&quot;:null}" fill="#000000" stroke="none" stroke-width="0.17188"/><path d="M221.44544,135.52615c1.06026,1.78395 1.30236,9.07874 -0.01225,9.21043c-1.35731,-0.04226 -2.94756,-0.09882 -4.59119,-0.24657c-2.56603,-0.23043 -3.3187,-0.80049 -3.14764,-1.34582c0.11789,-0.37651 -0.45908,-1.39136 -0.81029,-2.42318c-0.35752,-1.05074 -0.49211,-2.13057 -0.73016,-3.92968c-0.22047,-1.66866 -0.18724,-3.54097 0.05107,-4.82686c0.34139,-1.8339 1.16084,-2.76671 2.76215,-2.70561c3.99541,0.83499 5.52677,2.8636 6.47833,6.26729z" data-paper-data="{&quot;index&quot;:null}" fill="#ffffff" stroke="none" stroke-width="0.17188"/><path d="M199.66643,120.58739c-4.07716,-1.86493 -7.51567,-6.05524 -8.81491,-9.47205c-0.1191,-0.31283 0.15326,-1.25164 0.15326,-1.25164c-0.55961,0.22013 0.11667,-0.58123 0.09991,-1.19508c-0.01357,-0.48292 -0.6477,-1.42956 -0.6477,-1.42956c-0.24156,0.22186 1.06225,-0.71814 1.51328,-1.28261c0.37267,-0.46605 0.14427,-0.70747 0.46354,-1.00664c2.23903,-2.10852 6.32421,-3.54558 12.25872,-3.45332c3.84693,2.28304 -6.67111,22.43015 -5.02612,19.09092z" data-paper-data="{&quot;index&quot;:null}" fill="#ed3e67" stroke="none" stroke-width="0.17188"/><path d="M258.01153,120.69432c-0.82362,-0.34913 -2.42278,-1.03037 -2.9681,-1.42271c-1.3691,-0.98504 -6.52254,-0.16343 -6.1548,0.28979c-0.30667,0.79009 -0.21065,-2.00608 -6.23453,5.25549l-6.41279,7.73425c-0.59033,0.71118 -2.92499,3.58547 -4.94096,4.58074c-2.16689,1.0699 -5.48668,1.77262 -5.84643,1.35191c0,0 -2.57719,-3.45451 -4.01379,-4.71221c-0.54619,-0.47826 -0.34923,0.68574 0.32482,2.12646c0.11113,0.23831 2.06182,3.79257 2.01457,3.96656c-0.25694,0.93624 -9.19756,-9.81835 -9.68254,-10.41126l-2.98923,-3.66254c-1.00888,-1.23483 -2.25545,-0.3834 -2.83468,-0.45763c-0.87026,-0.11217 -1.29653,0.63505 -1.24817,1.48136c0.05991,1.07076 0.54486,5.46701 0.54658,6.1182c0.01222,3.44853 2.42891,7.81217 3.95813,12.52084c0.89488,2.75408 13.57031,11.40479 11.8618,9.54075c-0.77076,-0.84162 0.12998,6.70069 -1.67966,7.91321c-1.29128,0.86686 -9.54479,-10.24916 -10.56778,-12.71411l-5.84527,-14.07434c-1.71272,-4.12108 -1.10089,-16.45507 -0.75548,-18.72551l0.67439,-4.4357c1.59415,-5.34358 4.20373,-10.25295 7.98558,-14.66099c0.24079,-0.28086 3.62299,-5.27142 10.34005,-8.51006c4.24178,-2.04559 11.61617,-3.21367 12.19651,-3.29388c3.40327,-0.47018 10.03065,-1.4939 16.27357,-0.9187c3.97107,0.36589 7.65379,1.85841 10.6802,3.00594c0.54371,0.20539 -4.12334,7.52111 -3.60429,7.69214c0.25189,0.0822 -0.46651,6.50385 -0.33488,7.09092l0.87806,3.92043c0.88799,3.9632 5.05077,7.61602 5.77535,8.06614c0.99164,0.6171 4.37406,2.44519 5.41784,2.34266l3.51839,-0.34203c0.48188,-0.04825 4.29526,-3.60787 4.66445,-3.3538c1.30085,0.89573 1.47523,7.03602 1.38598,8.25866l-0.4685,6.43515c-0.15137,2.07287 -0.11524,3.22671 -1.0395,6.16879c-1.26644,4.03737 -2.55041,8.071 -4.85735,11.89989c-1.86395,3.09468 -11.57919,12.38709 -11.50366,11.34937l0.63081,-8.82591l-0.05583,-12.35387l-2.8298,-14.97421c-0.41598,-0.53454 -1.16308,-0.79667 -2.25903,-1.26024z" data-paper-data="{&quot;index&quot;:null}" fill="#54c81c" stroke="none" stroke-width="0.17188"/><path d="M280.22326,90.8381c5.31677,-0.12229 8.96746,1.20809 10.96082,3.18174c0.28464,0.28168 0.07814,0.51099 0.40919,0.94907c0.40151,0.52912 1.56366,1.40799 1.34859,1.19971c0,0 -0.57431,0.89766 -0.58918,1.35261c-0.01912,0.57892 0.58357,1.33119 0.08333,1.12694c0,0 0.23893,0.88428 0.13005,1.18022c-1.1842,3.23257 -4.28933,7.20624 -7.95224,8.99123c-6.25565,3.04718 -14.35992,-7.31917 -14.66723,-9.78468c-0.3074,-2.46616 3.32047,-8.03566 10.27666,-8.19682z" data-paper-data="{&quot;index&quot;:null}" fill="#ed3e67" stroke="none" stroke-width="0.17188"/><path d="M263.65432,97.18409c0.41408,-4.03224 2.39956,-8.20651 5.74969,-8.81846c1.93453,-0.35277 3.75782,0.05101 5.46008,0.31621c3.51162,0.54661 6.06629,1.62881 4.9331,2.2363c-1.9228,1.03159 -4.33394,2.80763 -5.91355,4.24824c-2.25307,2.0538 -3.67446,3.58894 -3.53678,3.70836l8.8566,7.67813l5.63119,2.42114c0.92853,0.3426 -1.21373,2.14226 -3.71009,3.55595c-2.15459,1.22136 -3.55951,2.82536 -4.32728,3.16664c-3.41818,1.52531 -3.15903,-0.18869 -7.59833,-1.91919c-2.58136,-1.00665 -6.52809,-10.03288 -5.50604,-9.49313c0.68023,0.35779 -0.42681,-3.32396 -0.03859,-7.10017z" data-paper-data="{&quot;index&quot;:null}" fill="#54c81c" stroke="none" stroke-width="0.17188"/><path d="M266.23356,88.2959c2.55142,0.84556 -0.95212,2.89764 -2.17977,8.08916c-0.78132,3.30382 -0.38424,8.17529 2.26184,13.86303c0.27855,0.59633 1.47459,1.67847 3.1005,3.0695c2.49125,2.13289 11.33124,-0.31054 10.0374,0.69912l-5.05414,3.94148l-3.9472,-0.22703c-2.43284,0.47989 -10.86971,-5.36925 -11.6582,-13.07003c-0.86122,-8.416 1.35564,-18.38321 7.43956,-16.36522z" data-paper-data="{&quot;index&quot;:null}" fill="#ead32e" stroke="none" stroke-width="0.17188"/><path d="M205.73748,111.53385c-0.38063,-0.81474 0.25273,-2.30812 0.13564,-3.06837c-0.27095,-1.75757 0.44006,-6.22082 3.22539,-9.57811l1.5843,-1.90872c0.77978,-0.94034 3.90828,-2.19248 4.58837,-1.8675c0.88024,0.9035 -2.79461,3.53573 -4.96644,7.42132c-1.04108,1.86266 -2.5402,4.29661 -2.5402,4.29661c-0.28626,1.80207 -2.02703,4.70477 -2.02703,4.70477z" data-paper-data="{&quot;index&quot;:null}" fill="#ead32e" stroke="none" stroke-width="0.17188"/><path d="M206.72269,106.43625c-0.26712,0.94408 -1.08236,5.53522 -1.4125,7.79127l-1.30167,8.89113c-0.09576,0.65414 -5.33551,-2.29316 -5.23444,-4.2639c-1.11172,-2.08091 -0.64202,-4.04441 -0.60625,-6.03852c0.66531,-2.25907 2.05711,-5.39078 3.08304,-6.7164c0.82629,-1.06762 -0.66032,-3.94888 -0.00413,-5.3013c0.98657,-2.03646 7.82478,-2.67541 7.82478,-2.67541z" data-paper-data="{&quot;index&quot;:null}" fill="#54c81c" stroke="none" stroke-width="0.17188"/><path d="M256.98644,231.05552c3.46462,0 6.99895,-2.77912 6.99895,-1.2726c0,0.62164 -0.19614,6.65359 -0.1805,11.09106c0.01694,4.38273 0.20851,9.752 -0.67181,8.79413l-5.41945,-5.88665c-0.70895,-0.7702 -3.48742,-6.66011 -4.35602,-8.1321c-2.00305,-3.39815 -1.73459,-5.36145 -1.73459,-6.41185c0,-1.50652 1.89944,1.81799 5.3634,1.81799z" data-paper-data="{&quot;index&quot;:null}" fill="#54c81c" stroke="none" stroke-width="0.17188"/><path d="M244.71854,158.85418c0.57319,-0.47965 4.11456,-3.69982 5.44244,-0.02889c1.80522,4.99052 4.0456,15.82523 5.52948,20.05561c1.7634,5.86957 2.86312,12.90082 2.97327,18.85474c0.05738,2.99768 -1.84376,6.4341 -4.54846,7.77922c-3.31375,1.63034 -9.36849,3.05138 -11.10038,-0.17415c-2.72771,-5.11586 -0.98941,-16.20206 -0.75756,-21.95358c0,0 1.11119,-23.40339 2.46121,-24.53295z" data-paper-data="{&quot;index&quot;:null}" fill="#c27e34" stroke="none" stroke-width="0.17188"/><path d="M262.14692,209.73815c4.38233,3.98869 7.05662,10.9745 6.57477,16.27333c0.30408,-1.03963 -1.83339,4.90208 -7.53987,4.19532c-2.47882,-0.19893 -7.03089,0.6226 -11.02782,0.54551l-3.77729,-1.06876c-1.73553,-0.49039 -2.49577,-2.99232 -1.49592,-4.65009c0.14812,-0.24518 -1.36268,0.33089 -2.16342,-0.50196c-1.44223,-1.4989 -2.52802,-4.82005 -1.2736,-6.23832c1.09885,-1.24438 1.21929,-3.75695 3.38346,-4.83976c2.91883,-1.46111 1.08234,1.07015 3.70186,0.70584c1.55562,-0.21576 8.4737,-3.55489 8.51973,-3.60771c2.01733,-2.36879 4.18112,-1.59522 5.09809,-0.81338z" data-paper-data="{&quot;index&quot;:null}" fill="#ffcfea" stroke="none" stroke-width="0.17188"/><g data-paper-data="{&quot;index&quot;:null}" stroke="none"><path d="M247.70435,142.24307c-1.58833,0.06392 -2.98564,-2.60813 -3.12088,-5.96822c-0.13523,-3.3601 1.04282,-6.1358 2.63115,-6.19973c1.58833,-0.06392 2.98564,2.60813 3.12088,5.96822c0.13523,3.3601 -1.04282,6.1358 -2.63115,6.19973z" fill="#008ae6" stroke-width="0"/><path d="M247.27849,130.91819c0.50225,0.02753 0.9664,0.58508 1.31001,1.46519c0.34261,0.8803 0.56536,2.08227 0.58537,3.39735c0.02079,1.31409 -0.16503,2.49443 -0.48225,3.33949c-0.31634,0.84483 -0.76431,1.35467 -1.26708,1.32811c-0.50279,-0.02649 -0.96627,-0.58509 -1.3099,-1.4652c-0.3428,-0.8803 -0.56562,-2.08226 -0.5865,-3.39712c-0.01985,-1.31421 0.16584,-2.49459 0.48307,-3.33966c0.3164,-0.84497 0.76428,-1.3548 1.26707,-1.32822z" fill="#000000" stroke-width="0.0278"/><path d="M248.25572,132.39139c0.29199,0.60992 0.48431,1.4505 0.50787,2.37848c0.02439,0.92667 -0.12407,1.76526 -0.38444,2.37204c-0.25918,0.60668 -0.6301,0.98181 -1.04996,0.97932c-0.41969,-0.00249 -0.81036,-0.38206 -1.10128,-0.99211c-0.29199,-0.60992 -0.48431,-1.4505 -0.50787,-2.37848c-0.02439,-0.92667 0.12407,-1.76526 0.38444,-2.37204c0.25919,-0.60656 0.63009,-0.98174 1.04997,-0.97925c0.41969,0.00262 0.81034,0.38194 1.10127,0.99197z" fill="#ffffff" stroke-width="0.01811"/></g><path d="M215.67721,170.47531c2.27103,1.44008 2.29905,0.90449 4.63973,1.17966c1.02104,0.12004 5.17699,-2.70793 5.17699,-2.70793l7.10768,-9.26411c0,0 1.80841,-2.43021 2.48005,-0.38763c0.68026,2.79225 -0.06642,9.20312 -0.79634,9.60852c-1.06927,0.59387 -10.02527,14.55675 -11.5893,15.25436c-4.93931,2.20309 -9.45496,-1.47011 -10.79886,-1.91423c-3.54052,-1.56007 -6.16274,-3.9015 -7.94068,-5.02927c-5.3129,-3.67195 -5.3358,-1.40458 -9.4506,-6.03614c-2.07319,-2.33086 -0.38082,-6.3079 0.76196,-8.82893c1.41209,-3.07479 5.04695,-7.46551 8.54573,-5.85978c5.53474,2.55713 3.36721,3.98747 7.08532,8.64434c0,0 2.50729,3.90106 4.77832,5.34114z" data-paper-data="{&quot;index&quot;:null}" fill="#c27e34" stroke="none" stroke-width="0.17188"/><path d="M177.67804,153.59628c-0.71761,-1.51721 -6.3194,-4.65761 -8.63664,-8.62566c-1.03422,-1.771 0.40756,-2.45381 1.09739,-2.13649c0.75521,0.34739 2.25995,1.68041 3.40187,2.78623c0.25472,0.24665 1.7408,1.33812 2.23657,1.78331c1.24119,1.11457 2.34205,2.50867 2.34205,2.50867c0,0 0.78064,-0.41014 0.78319,-1.04999c-0.07166,0.36696 -3.47564,-4.28451 -3.92828,-4.94595c-0.50781,-0.74206 -2.65778,-4.64976 -3.27817,-6.60571c-0.32377,-1.02078 0.80214,-2.05054 1.5807,-1.5434c0.77856,0.50714 4.89412,5.43736 5.27855,6.01142c0.50589,0.75547 3.08872,4.46251 3.08872,4.46251l0.9201,-0.78928c0,0 -2.88134,-4.64628 -3.27602,-5.3045c-0.37785,-0.63015 -3.58425,-5.43054 -4.07331,-7.6224c-0.29803,-1.3357 1.42169,-1.82811 2.07648,-1.22365c0.30395,0.28059 4.69629,5.55561 5.07193,6.12619c0.48192,0.732 4.70746,6.10602 4.70746,6.10602c0,0 1.30196,-0.35967 1.4593,-0.3643c0,0 -4.58508,-6.75025 -5.96201,-10.76219c-0.46385,-1.35154 1.43227,-1.52135 1.67773,-1.48973c0.90669,0.11674 4.54068,4.97516 8.58778,10.69003c0.35295,1.15946 5.46857,7.4508 5.46857,7.4508c0,0 0.73897,-0.30501 1.21244,-0.68454c0.47346,-0.37953 2.75992,-3.32744 4.26112,-4.11368c3.35,-1.75454 5.18601,-0.53014 4.20904,0.67033c-1.27788,1.57021 -3.43848,4.55751 -4.10397,5.50206c-0.59116,0.83903 -0.70702,1.7313 -1.49379,2.77268c-1.34534,1.78069 -1.6398,2.26487 -1.916,2.63975c-0.83385,1.13372 -0.98204,3.17797 -2.7242,4.21479c-2.34964,1.399 -1.0385,-0.49824 -3.21636,-0.07065c-0.76057,0.14901 -0.23612,7.28103 -1.85359,8.51994c-1.1331,0.86791 -4.75268,-5.12088 -4.76705,-5.10106c-1.52468,2.15504 -4.46995,-1.27038 -6.31616,-3.34834c-1.21009,-1.36199 -1.67587,-1.72829 -3.91541,-6.4632z" data-paper-data="{&quot;index&quot;:null}" fill="#ffcfea" stroke="none" stroke-width="0.17188"/><g data-paper-data="{&quot;index&quot;:null}" stroke="none"><path d="M219.53768,144.5764c-1.58834,0.06392 -2.98564,-2.60813 -3.12088,-5.96822c-0.13523,-3.36011 1.04282,-6.1358 2.63116,-6.19973c1.58834,-0.06392 2.98564,2.60813 3.12088,5.96822c0.13523,3.36011 -1.04282,6.1358 -2.63116,6.19973z" fill="#008ae6" stroke-width="0"/><path d="M219.11182,133.25153c0.50225,0.02753 0.9664,0.58508 1.31001,1.46519c0.34261,0.8803 0.56537,2.08227 0.58537,3.39735c0.02079,1.3141 -0.16503,2.49444 -0.48225,3.33949c-0.31634,0.84483 -0.7643,1.35467 -1.26708,1.3281c-0.50279,-0.0265 -0.96627,-0.58509 -1.30989,-1.4652c-0.3428,-0.8803 -0.56563,-2.08227 -0.58651,-3.39712c-0.01985,-1.3142 0.16584,-2.49459 0.48307,-3.33965c0.3164,-0.84497 0.76429,-1.3548 1.26707,-1.32823z" fill="#000000" stroke-width="0.0278"/><path d="M220.08905,134.72473c0.29199,0.60993 0.48431,1.4505 0.50786,2.37848c0.02439,0.92667 -0.12406,1.76526 -0.38444,2.37204c-0.25919,0.60668 -0.6301,0.98181 -1.04997,0.97932c-0.41969,-0.00249 -0.81036,-0.38206 -1.10128,-0.99211c-0.29199,-0.60993 -0.48431,-1.4505 -0.50786,-2.37848c-0.02439,-0.92667 0.12407,-1.76526 0.38444,-2.37204c0.2592,-0.60655 0.63009,-0.98173 1.04996,-0.97924c0.41969,0.00262 0.81034,0.38193 1.10127,0.99197z" fill="#ffffff" stroke-width="0.01811"/></g><path d="M242.36549,145.14349c-0.31496,-2.06245 5.03786,-1.60301 8.69386,-3.04986c0.96965,-0.38372 2.03817,-0.92286 3.06885,-1.3962c2.4125,-1.10796 4.61747,-1.85529 4.86129,0.5953c0.34806,3.4975 -2.66408,5.54032 -6.83231,6.17686c-3.89776,0.59524 -9.47665,-0.26375 -9.79162,-2.3262z" fill="url(#color-1)" stroke="none" stroke-width="0"/><path d="M222.31866,144.73039c0.53404,2.01685 -1.93801,4.42106 -4.06488,4.98423c-2.2745,0.60227 -5.46538,-1.24481 -6.46304,-4.61156c-0.69903,-2.35897 1.67419,-0.42075 3.23797,-0.07866c0.6681,0.14618 1.81201,-0.04059 2.41992,0.0394c2.29215,0.30166 4.33601,-2.35022 4.87005,-0.33337z" data-paper-data="{&quot;index&quot;:null}" fill="url(#color-2)" stroke="none" stroke-width="0"/><path d="M210.68265,163.47346c0.55034,2.15322 -2.72637,4.35877 -4.65465,6.68951c-1.92821,2.33071 -6.05174,4.88838 -7.59673,4.76429c-1.01543,-0.08261 -3.63258,-1.70416 -6.27804,-4.38526c-2.64543,-2.6811 -5.67901,-6.45773 -5.66917,-7.72296c0.01225,-1.82922 0.44597,-2.40248 2.92327,-3.8088c2.47734,-1.40625 2.25643,-2.31885 5.05805,-4.08151c2.80166,-1.76271 3.26744,-4.11829 5.68153,-2.78134c3.31468,1.83586 9.26575,7.31596 10.5357,11.32607z" fill="#fca03b" stroke="none" stroke-width="0.17188"/><path d="M232.83004,160.18826c1.23805,-2.86521 4.55823,-0.98931 5.41496,-1.06571c0.67825,-0.06048 4.20127,-1.54369 4.7505,-1.05557c1.78061,1.58335 2.5018,5.54104 2.95159,10.58534c0.2065,2.3159 2.06394,11.47069 -1.15984,14.2799c-2.62905,2.29097 -15.89487,3.04262 -17.0116,0.32785c-1.70849,-4.14965 4.73672,-22.33499 5.05438,-23.07181z" data-paper-data="{&quot;index&quot;:null}" fill="#c27e34" stroke="none" stroke-width="0.17188"/><path d="M226.46851,161.10959c-0.16126,-3.19308 7.19166,-3.1329 14.56877,-3.50549c7.37716,-0.37259 13.29262,-3.5748 13.45388,-0.38172c0.02874,0.56908 0.40599,0.90312 -1.03607,2.22373c-0.80161,0.73406 2.42584,0.89645 1.31468,1.72603c-2.50367,1.86918 -10.52013,1.02591 -13.81024,1.19206c-2.72445,0.13759 -11.63087,2.88223 -13.74823,1.53231c-1.2708,-0.81023 2.77187,-0.9692 1.86637,-1.59453c-1.67091,-1.15384 -2.5843,-0.70175 -2.60908,-1.19234z" fill="#ffe340" stroke="none" stroke-width="0"/><path d="M234.55836,158.13718c-0.02214,-0.43822 1.80077,0.26145 6.74414,-0.49969c3.07504,-0.47348 6.82955,-1.14358 6.85168,-0.70536c0.02213,0.43815 -11.6563,2.96283 -13.34898,3.11186c-1.69273,0.14904 -0.22477,-1.46859 -0.2469,-1.90681z" fill="#000000" stroke="none" stroke-width="0"/><path d="M242.32972,199.62871c0.62529,-2.07292 4.46871,-2.26235 7.25058,-3.23519c2.7818,-0.97286 7.50878,-1.02951 8.73482,-0.14803c0.80527,0.58023 2.17145,3.25051 3.02767,6.8187c0.85621,3.56819 1.48447,8.24551 0.83914,9.29576c-0.93134,1.51941 -1.58174,1.77911 -4.35599,1.70451c-2.77425,-0.07467 -3.04956,0.79768 -6.27373,0.85697c-3.22424,0.05931 -4.79887,1.78932 -6.13901,-0.54134c-1.83999,-3.20026 -4.04366,-10.76742 -3.08347,-14.75137z" fill="#fca03b" stroke="none" stroke-width="0.17188"/><g stroke-width="0"><path d="M214.75268,98.70251c0,0 3.41902,-8.80509 9.02396,-15.60802c4.61705,-5.60389 18.02957,-15.09049 22.23591,-17.03369c4.10012,-1.89411 29.6795,-2.63547 43.04102,13.53142c21.68314,26.74863 14.37729,50.84475 14.37729,50.84475c0,0 -5.69067,-17.59739 -11.37548,-28.98226c-1.34285,-2.68932 -5.95879,-6.89531 -10.18824,-9.6321c-5.5392,-3.58428 -7.9279,-3.42908 -13.68988,-1.97872c-5.762,1.45031 -6.20626,6.59415 -6.20626,6.59415c0,0 -13.45756,-3.50407 -21.01681,-3.14155c-8.13754,0.39025 -26.20152,5.406 -26.20152,5.406z" fill="#c27e34" stroke="none"/><g><path d="M298.72822,129.50573c-0.03113,-2.81808 2.22815,-5.12779 5.04618,-5.15887c2.81808,-0.03113 5.12779,2.22815 5.15893,5.04624c0.03113,2.81808 -2.22816,5.12773 -5.04618,5.15887c-2.81808,0.03113 -5.12779,-2.22815 -5.15893,-5.04618z" fill="#db7b04" stroke="none"/><path d="M309.43933,129.20684c0.01069,0.9683 -2.87781,0.6778 -5.60347,0.70787c-2.72565,0.03007 -5.43442,0.72016 -5.44511,-0.24814c-0.01626,-1.47489 2.69675,-1.7832 5.42235,-1.81333c2.72565,-0.03007 5.60809,-0.29007 5.62623,1.35359z" fill="#feeb00" stroke="#000000"/><path d="M304.17178,134.13351c0.01178,1.06414 -0.5957,0.4137 -1.12776,0.41959c-0.53208,0.00583 -1.32552,-2.19903 -1.33722,-3.2631c-0.01178,-1.06414 1.10031,-0.58822 1.63239,-0.59406c0.53208,-0.00583 0.82089,2.37349 0.83261,3.43764z" fill="#000000" stroke="none"/><path d="M307.22811,130.69405c0.27975,-0.0031 0.83968,-0.41757 0.84788,0.32838c0.0082,0.74596 -0.54017,2.2012 -0.81998,2.20429c-0.27981,0.0031 -0.51135,-0.43031 -0.51956,-1.17632c-0.0082,-0.74596 0.21185,-1.35326 0.4916,-1.35636z" fill="#000000" stroke="none"/></g></g><g stroke="none" stroke-width="0"><path d="M211.27105,117.06942c0,-0.96679 -0.04672,-4.03344 0.53548,-5.18052c0.76274,-1.50278 2.46146,-2.69608 2.8481,-2.69608c0.35046,0 0.32113,1.83371 -0.28738,3.39184c-0.40212,1.02964 -1.43212,1.56402 -1.43212,2.70978c0,1.27641 2.18366,4.54173 2.58791,6.17612c0.1571,0.63497 -0.77209,2.66867 -1.99656,4.13505c-1.29432,1.55002 -2.89238,2.51812 -2.89238,2.51812l-3.0794,-1.84647l6.52399,-3.25213c0,0 -0.54093,-0.64572 -1.21651,-1.9161c-0.72641,-1.36595 -1.59106,-3.38484 -1.59106,-4.03962z" fill="#671829"/><path d="M214.82115,112.41006c0,-0.98034 0.55958,-3.1063 1.38672,-3.1063c0.82714,0 2.49609,0.79465 2.49609,1.77499c0,0.22379 -3.89939,7.36602 -0.30167,8.72018c1.74073,0.65515 3.88901,-4.19813 3.88901,-4.19813l1.12757,2.35608c0,0 -2.90218,3.68991 -5.50151,2.39396c-3.75652,-1.87291 -3.0962,-7.4325 -3.0962,-7.94085z" fill="#671829"/><path d="M221.84004,106.96325c0,0 0.12689,0.91291 -1.22188,0.91291c-0.31413,0 1.57396,-0.00192 2.15079,0.94025c0.64418,1.05226 0.00604,2.95001 -0.62104,3.21181c-0.67321,0.28104 -2.24813,-0.03184 -3.39235,-0.81005c-1.66504,-1.1325 -2.90934,-2.4955 -2.90934,-2.81272c0,-1.05557 2.85052,-4.06512 4.2172,-4.13004c0.69428,-0.03294 1.7766,2.68789 1.7766,2.68789z" fill="#804046"/><path d="M208.61232,107.62894c-0.1588,-0.4153 1.08232,-2.94272 1.7766,-2.90978c1.36668,0.06491 6.10317,2.96356 6.10317,4.01913c0,0.31722 -1.24428,0.79273 -2.90934,1.92516c-1.14422,0.77821 -3.39235,1.80844 -3.39235,1.80844l-1.17575,-3.10085l2.03989,-0.38554c0,0 -2.141,-0.56909 -2.44223,-1.35658z" data-paper-data="{&quot;index&quot;:null}" fill="#804046"/><path d="M215.76407,107.14048c0.64336,0 1.16485,0.55877 1.16485,1.24804c0,0.68927 -0.52148,1.24804 -1.16485,1.24804c-0.64336,0 -1.16485,-0.55877 -1.16485,-1.24804c0,-0.68927 0.52148,-1.24804 1.16485,-1.24804z" fill="#671829"/></g></g></g></svg>