<svg version="1.1" xmlns="http://www.w3.org/2000/svg" xmlns:xlink="http://www.w3.org/1999/xlink" width="153.73365" height="225.84211" viewBox="0,0,153.73365,225.84211"><g transform="translate(-177.28619,-61.06518)"><g data-paper-data="{&quot;isPaintingLayer&quot;:true}" fill-rule="nonzero" stroke-linejoin="miter" stroke-miterlimit="10" stroke-dasharray="" stroke-dashoffset="0" style="mix-blend-mode: normal"><path d="" fill="#2095ad" stroke="none" stroke-width="0" stroke-linecap="butt"/><g fill="#033397" stroke-width="0"><path d="M206.77958,120.49352c0,-18.83169 15.26607,-34.0979 34.09783,-34.0979c18.83169,0 34.09783,15.26614 34.09783,34.0979c0,18.83169 -15.26607,34.09783 -34.09783,34.09783c-18.83169,0 -34.09783,-15.26607 -34.09783,-34.09783z" stroke="none" stroke-linecap="butt"/><path d="M206.21497,115.26834c0,0 3.88398,-45.88804 60.09373,-53.48136c38.64477,-5.39379 63.02039,21.21183 63.02039,21.21183c0,0 -10.05289,-0.79892 -18.55214,1.57801c-6.99785,1.957 -14.90222,7.99284 -14.90222,7.99284c0,0 17.28011,7.5196 26.86714,27.2383c11.12757,22.88743 7.81737,42.36374 7.81737,42.36374c0,0 -11.03043,-13.18088 -19.82154,-19.23693c-5.28632,-3.64171 -16.54933,-6.70509 -16.54933,-6.70509c0,0 7.22421,12.2768 7.80736,27.0242c0.68831,17.40478 -5.75296,27.05949 -5.75296,27.05949c0,0 -7.958,-19.80038 -18.12093,-29.00084c-10.16285,-9.2004 -24.2396,-9.34802 -24.2396,-9.34802" stroke="#000000" stroke-linecap="round"/></g><path d="M227.44645,160.98536c-0.99164,1.43987 -8.16826,16.26315 -8.16826,16.26315l-19.86805,-7.63747l2.80032,-6.07471l13.22041,5.95555c0,0 3.5358,-8.62624 6.37322,-12.74604c2.83751,-4.11985 3.56849,-4.26948 5.08784,-3.1071c1.5195,1.16237 3.39194,3.2268 0.5545,7.34667z" data-paper-data="{&quot;index&quot;:null}" fill="#fec267" stroke="none" stroke-width="0" stroke-linecap="butt"/><g><g><path d="M198.86397,144.92943c3.13473,1.59066 4.75665,6.15635 7.88589,10.52346c2.33463,3.25819 1.40794,8.09441 0.00651,10.85607c-2.99211,5.89659 -7.71675,11.09049 -13.6132,8.09838c-1.94577,-0.98732 -6.14407,-2.6754 -10.13743,-4.23804c-3.93945,-1.54146 -6.38474,-3.37929 -5.55968,-5.45034c1.06007,-2.66092 3.1222,-2.10578 3.1222,-2.10578c0,0 -1.54018,-2.10623 -1.00071,-3.36604c0.53954,-1.25978 3.4196,-2.27357 3.4196,-2.27357c0,0 -1.02122,-2.18276 -0.38494,-3.71705c0.63636,-1.53433 2.6704,-1.81909 2.6704,-1.81909c0,0 -1.35638,-1.86031 -0.43468,-3.73657c0.92177,-1.87622 3.33999,-1.20759 3.33999,-1.20759c0,0 -1.65753,-0.91367 -1.11806,-2.15814c0.53947,-1.24449 0.14262,-0.28402 0.79532,-0.78608c0.53772,-0.41361 9.35859,0.54325 11.00844,1.38048z" fill="#fdfdfd" stroke="none" stroke-width="0" stroke-linecap="butt"/><path d="M187.54637,145.72806c0,0 1.78459,2.42428 3.90623,3.66524c2.1217,1.24098 5.21727,1.53091 5.66518,2.63887c0.94693,2.34203 -0.91682,6.12162 -0.91682,6.12162" fill="none" stroke="#a4a4a4" stroke-width="0.125" stroke-linecap="round"/></g><path d="M204.04771,166.83979c1.2239,-2.0224 5.1438,-9.0241 6.86455,-8.2129c1.58607,0.91149 2.17909,3.56832 2.17909,3.56832c0,0 2.22074,-1.74615 3.60438,-0.64526c1.79518,1.42824 -0.13749,7.38175 -1.69021,10.32114c-1.55278,2.93936 -4.17541,5.83693 -6.11502,6.08602c-4.88946,0.62783 -3.59133,-2.0695 -3.59133,-2.0695c0,0 -1.54661,2.72906 -4.88982,0.18874c-1.6473,-1.25169 2.26266,-6.96374 3.63822,-9.2367z" fill="#fdfdfd" stroke="none" stroke-width="0" stroke-linecap="butt"/></g><path d="M248.43069,152.88527c0,0 11.77597,0.89952 16.12081,18.13338c2.31482,9.18166 0.05204,32.22936 0.05204,32.22936c0,0 -7.09679,-14.63923 -13.05172,-23.40802c-5.955,-8.7688 -16.99896,-14.61228 -12.76801,-14.61228c4.23095,0 9.64695,-12.34237 9.64695,-12.34237z" fill="#02124a" stroke="none" stroke-width="0" stroke-linecap="butt"/><path d="M231.07506,239.32003l-4.45193,-53.535l10.05314,-0.43461c0,0 -1.68696,9.44761 -1.13146,19.979c0.55543,10.53133 3.59161,26.66484 3.59161,26.66484z" data-paper-data="{&quot;index&quot;:null}" fill="#033397" stroke="none" stroke-width="0" stroke-linecap="butt"/><path d="M185.1846,266.23239c0,0 0.42935,-18.31549 28.08324,-20.41949c32.62536,-5.83273 36.52161,-1.85841 37.98652,1.66865c3.7127,8.93888 2.89098,18.27323 2.89098,18.27323c0,0 -5.23783,2.48599 -9.06011,4.01309c-1.61607,0.64557 -7.81767,2.06943 -7.81767,2.06943l-0.22004,-2.59408l-8.78795,0.82481l-0.30559,3.57745c0,0 -10.56206,1.11645 -15.07303,1.13569c-20.72981,0.08882 -27.69645,-8.54887 -27.69645,-8.54887z" fill="#e90023" stroke="none" stroke-width="0" stroke-linecap="butt"/><path d="M185.52285,266.27692l3.48483,-7.19991l10.56845,4.46579l2.94237,6.82198l-7.62815,4.82791l1.42716,-4.68563l-4.48026,-2.05739l-6.48411,0.3643l0.16938,-2.53698z" fill="#948a92" stroke="none" stroke-width="0" stroke-linecap="butt"/><path d="M228.07427,270.41543c0,0 -0.00584,-7.6556 1.6264,-14.58543c1.73171,-7.3521 5.72359,-12.96415 5.72359,-12.96415l9.00292,1.53164l-0.7223,7.93361c0,0 -3.43656,5.21574 -4.77828,9.00078c-1.34176,3.78495 -1.75363,7.56501 -1.75363,7.56501z" fill="#deca55" stroke="none" stroke-width="0" stroke-linecap="butt"/><path d="M185.48174,269.22703l-1.51638,-2.20917l3.09515,-8.09593l7.18875,-7.7807l12.30228,7.68348l2.35271,11.93985l19.95057,-5.17995l-0.70469,8.26721l-22.55468,4.3494l-11.37511,-3.17158l2.73145,-8.02414l-7.90952,-5.65604z" fill="#edeeee" stroke="none" stroke-width="0" stroke-linecap="butt"/><g stroke="none" stroke-width="0" stroke-linecap="butt"><path d="M187.73243,265.83375c1.48035,-1.64871 4.30666,-1.8328 6.50478,-0.13188c2.19809,1.70106 2.20644,4.30993 0.72609,5.95869c-1.48035,1.64871 -3.5274,1.57891 -6.12251,0.20292c-1.82299,-0.96658 -2.58871,-4.38098 -1.10835,-6.02973z" fill="#ece09c"/><path d="M188.12471,271.85152c-1.46529,-1.13404 -1.71133,-3.709 -0.72438,-4.8081c0.98688,-1.09905 3.39255,-1.19106 4.85796,-0.05701c1.30964,0.90742 3.25637,3.27831 2.09796,4.86542c-1.10425,1.51291 -4.45489,1.587 -6.2316,-0.00032z" fill="#000000"/></g><path d="M228.96845,260.16196c0,0 0.16048,-2.09228 0.43834,-3.25029c0.33221,-1.38466 1.42126,-4.49989 1.42126,-4.49989l0.09599,17.5784l-2.3494,0.48911c0,0 -0.19896,-3.41194 -0.13401,-5.11346c0.0663,-1.73689 0.52796,-5.20386 0.52796,-5.20386z" fill="#6a2625" stroke="none" stroke-width="0" stroke-linecap="butt"/><path d="M253.77276,258.62674l0.12344,4.00846c0,0 -6.75762,3.11171 -6.85049,0.09594c-0.09293,-3.01579 6.72706,-4.10446 6.72706,-4.10446z" fill="#eac763" stroke="none" stroke-width="0" stroke-linecap="butt"/><path d="M224.60101,245.69701c-0.09605,-3.14063 2.25304,-6.33354 2.25304,-6.33354c0,0 -3.24675,-1.76363 -3.0157,-4.76997c0.29975,-3.90041 7.69104,-6.22973 11.7308,-6.49413c4.0397,-0.26453 8.73441,1.0904 10.25621,3.74289c3.83624,6.68636 0.21166,7.11649 0.21166,7.11649c0,0 3.81912,-0.09002 3.38425,7.06959c-0.21436,3.52789 -7.46622,4.02263 -12.88985,3.95026c-5.42363,-0.07231 -11.64322,-1.02899 -11.93034,-4.28158z" fill="#fdfdfd" stroke="none" stroke-width="0" stroke-linecap="butt"/><path d="M236.79767,192.18236l7.94453,-8.22825c0,0 0.00758,6.16223 3.09347,10.009c3.70465,4.6181 17.61914,15.81072 17.61914,15.81072c0,0 -14.36559,-3.34889 -20.89783,-7.35881c-6.53231,-4.00992 -7.75923,-10.2326 -7.75923,-10.2326z" fill="#02124a" stroke="none" stroke-width="0" stroke-linecap="butt"/><path d="M221.18424,177.24388c-2.76773,-9.88377 -1.92948,-21.1163 6.67167,-23.52479c8.60115,-2.40856 20.50562,-10.94984 23.27329,-1.06608c1.6541,5.9072 -1.27685,16.08315 -0.1835,22.65408c1.96047,11.78251 -1.75631,14.86745 -6.88127,16.30251c-8.60108,2.40856 -20.11245,-4.48189 -22.88018,-14.36572z" fill="#033397" stroke="none" stroke-width="0" stroke-linecap="butt"/><path d="M219.79101,175.42425c-2.89753,-9.29522 -0.16425,-11.61454 2.75919,-16.97831c1.48235,-2.71974 9.17365,-3.54131 14.70499,1.48055c5.10482,4.63466 6.28003,27.69031 -0.91197,28.8362c-8.01402,1.27678 -14.50039,-6.75603 -16.55229,-13.33845z" fill="#fec267" stroke="none" stroke-width="0" stroke-linecap="butt"/><path d="M247.65109,246.69707l-8.15132,-58.17972l10.97583,-1.47375c0,0 -1.26755,10.51279 -0.01456,21.98964c1.25297,11.47685 5.56387,28.84192 5.56387,28.84192z" data-paper-data="{&quot;index&quot;:null}" fill="#033397" stroke="none" stroke-width="0" stroke-linecap="butt"/><path d="M243.09548,86.94657c0,0 10.54608,-8.65112 18.11471,-13.22271c7.56875,-4.57159 8.60506,-4.77658 10.26481,-3.74745c1.61491,1.00134 1.19427,8.88557 1.1323,14.70018c-0.06204,5.81462 -1.42223,12.48435 -1.42223,12.48435" fill="#033397" stroke="#000000" stroke-width="0.125" stroke-linecap="round"/><path d="M208.47981,110.2128c0,0 -5.44557,-9.99893 -7.13412,-15.02168c-1.47549,-4.38879 -4.33964,-13.19897 -2.44468,-13.47036c1.58134,-0.22655 7.74538,2.52437 11.11672,3.26471c3.67341,0.80675 10.09524,1.39368 10.09524,1.39368" fill="#033397" stroke="#000000" stroke-width="0" stroke-linecap="round"/><path d="M207.91251,109.36159c0,0 2.16976,8.66723 4.10469,14.0367c1.93493,5.36948 1.95161,5.54765 3.83451,8.78265c0.59977,1.0306 1.57038,-0.0478 1.57038,-0.0478c0,0 2.58327,3.49947 4.12368,1.89009c5.12439,-2.68593 6.5948,-15.02246 11.70397,-21.89924c5.16769,-6.95577 10.41244,-7.77008 12.82498,-8.05887c2.07467,-0.24836 6.68026,0.72289 9.30087,5.67706c1.81374,4.21428 2.42255,13.66759 -0.42191,19.02533c-2.84446,5.35767 -6.88654,11.38376 -14.78801,13.0584c-7.90141,1.67477 -15.01258,-6.95409 -22.18052,-5.25174c-0.88374,0.20987 -5.5932,3.76779 -5.5932,3.76779c0,0 -4.75098,-9.90153 -5.73891,-16.73476c-0.988,-6.83329 1.25958,-14.24567 1.25958,-14.24567z" fill="#fdfdfd" stroke="#000000" stroke-width="0" stroke-linecap="butt"/><path d="M212.77122,141.3551c0.06358,-1.55806 1.72231,-4.81469 7.19848,-5.31052c4.24527,-0.44764 10.60698,4.54881 16.84068,4.80057c9.36625,0.37828 12.40832,-11.17126 23.00298,-8.14195c8.53287,2.29712 4.3689,21.15403 -20.50799,21.79555c-5.92734,-0.1554 -14.08354,-2.59571 -18.80263,-5.15493c-5.74635,-3.11624 -7.83437,-5.46635 -7.73152,-7.9888z" fill="#fec267" stroke="#000000" stroke-width="0" stroke-linecap="butt"/><path d="M205.6163,116.92937c0,0 -2.83786,-12.94232 -1.98286,-15.00006c1.30553,-3.14229 6.17725,0.44328 6.17725,0.44328" fill="#033397" stroke="#000000" stroke-width="0.125" stroke-linecap="round"/><path d="M204.62939,134.69351c0.30585,-0.87661 4.18349,0.98332 7.15505,1.97381c2.9715,0.9905 7.15505,1.46175 7.15505,2.96073c0,2.48581 -4.77221,2.34132 -8.14188,1.48036c-5.33612,-1.36339 -7.17083,-3.54079 -6.16814,-6.41483z" fill="#0d1114" stroke="none" stroke-width="0" stroke-linecap="butt"/><path d="M210.98795,136.34838c1.47491,0.27499 2.59629,0.89644 2.50461,1.3881c-0.09168,0.49165 -1.36167,0.66733 -2.83651,0.39228c-1.47491,-0.27499 -2.59629,-0.89644 -2.50461,-1.3881c0.09168,-0.49165 1.36167,-0.66733 2.83651,-0.39228z" fill="#fdfdfd" stroke="none" stroke-width="0" stroke-linecap="butt"/><path d="M249.96116,86.62943c0,0 13.07104,-10.80921 17.50698,-9.65901c3.09154,0.80161 -0.60368,19.92171 -0.60368,19.92171c0,0 -0.56736,-2.77107 -7.32565,-6.19797c-6.17847,-3.13286 -9.5776,-4.06472 -9.5776,-4.06472z" fill="#fec267" stroke="none" stroke-width="0" stroke-linecap="butt"/><g stroke="none" stroke-width="0" stroke-linecap="butt"><path d="M238.39426,116.72047c1.98979,-0.31079 3.30269,3.54195 4.06588,8.42824c0.76318,4.88629 0.6876,8.95582 -1.30226,9.26661c-1.79096,0.27967 -3.30269,-3.54189 -4.06588,-8.42817c-0.76318,-4.88629 -0.48883,-8.98694 1.30226,-9.26661z" fill="#005c2d"/><path d="M239.17079,121.69094c0.71371,-0.11145 1.5426,1.40042 1.85127,3.37693c0.30867,1.97651 -0.0197,3.66911 -0.73341,3.78056c-0.71371,0.11145 -1.5426,-1.40042 -1.85127,-3.37686c-0.30867,-1.97651 0.0197,-3.66917 0.73341,-3.78056z" fill="#000000"/><path d="M238.95323,120.29924c0.71371,-0.11145 1.43834,0.73283 1.61844,1.88579c0.18003,1.15289 -0.2526,2.1779 -0.96631,2.28948c-0.71371,0.11145 -1.43834,-0.73283 -1.61837,-1.88579c-0.18003,-1.15289 0.25253,-2.1779 0.96631,-2.28948z" fill="#ffffff"/></g><path d="M256,140.875c0,0 0.34808,3.27204 -1.76777,5.59438c-1.10487,1.2127 -3.7544,2.02097 -5.60723,2.28062c-10.70381,1.5 -9.875,-0.625 -9.875,-0.625c0,0 5.56961,-0.98578 8.875,-2.375c1.44827,-0.60869 2.43522,-2.41988 3.98604,-3.36399c1.98862,-1.21065 4.38896,-1.51101 4.38896,-1.51101z" fill="#ffffff" stroke="none" stroke-width="NaN" stroke-linecap="butt"/><g stroke="none" stroke-width="0" stroke-linecap="butt"><path d="M211.38762,122.93929c1.30995,-0.4094 2.58205,2.05555 3.58737,5.27234c1.00532,3.21685 1.36326,5.96738 0.05332,6.37678c-1.179,0.36847 -2.58205,-2.05555 -3.58737,-5.27234c-1.00532,-3.21685 -1.23238,-6.00838 -0.05332,-6.37678z" fill="#005c2d"/><path d="M212.41032,126.21151c0.4699,-0.14687 1.18041,0.78897 1.58713,2.09013c0.40664,1.30116 0.35544,2.47509 -0.11446,2.62189c-0.4699,0.14687 -1.18041,-0.78897 -1.58713,-2.09013c-0.40664,-1.30116 -0.35544,-2.47509 0.11446,-2.62189z" fill="#000000"/><path d="M212.12411,125.29531c0.4699,-0.14687 1.04305,0.34941 1.28031,1.10849c0.23726,0.75901 0.04864,1.49338 -0.42128,1.64025c-0.4699,0.14687 -1.04305,-0.34941 -1.28031,-1.10843c-0.23726,-0.75901 -0.04864,-1.49338 0.42128,-1.64025z" fill="#ffffff"/></g><path d="M249.61085,146.94672c0,0 0.20057,-0.77758 2.73705,-1.86044c2.53648,-1.08287 3.44142,-1.76568 3.44142,-1.76568c0,0 -1.14444,1.69956 -3.70159,2.79125c-2.55715,1.09169 -2.47688,0.83487 -2.47688,0.83487z" fill="#000000" stroke="#000000" stroke-width="0" stroke-linecap="butt"/><path d="M215.13236,116.93271c1.19626,0 2.81566,8.46936 2.81566,12.23741c0,3.76798 -1.94931,3.14056 -1.94931,3.14056c0,0 -1.65372,-2.79435 -2.4486,-4.61412c-0.79474,-1.8197 -1.66668,-4.8075 -1.66668,-4.8075c0,0 2.05267,-5.95628 3.24886,-5.95628z" fill="#033397" stroke="none" stroke-width="0" stroke-linecap="butt"/><path d="M197.81263,274.25121c0,0 0.454,-19.36703 29.69558,-21.59184c34.49848,-6.16764 38.61847,-1.96514 40.16749,1.76441c3.92581,9.45208 3.05693,19.32237 3.05693,19.32237c0,0 -5.53855,2.62873 -9.58025,4.24351c-1.70889,0.68263 -8.26651,2.18826 -8.26651,2.18826l-0.23266,-2.74299l-9.29249,0.87215l-0.32311,3.78283c0,0 -11.16845,1.18051 -15.93842,1.20086c-21.91992,0.0939 -29.28661,-9.03963 -29.28661,-9.03963z" fill="#e90023" stroke="none" stroke-width="0" stroke-linecap="butt"/><path d="M198.17025,274.29823l3.68491,-7.61329l11.17522,4.72222l3.11129,7.21362l-8.06607,5.10511l1.50909,-4.95467l-4.73749,-2.1755l-6.85637,0.38517l0.17906,-2.6826z" fill="#948a92" stroke="none" stroke-width="0" stroke-linecap="butt"/><path d="M243.16468,278.67436c0,0 -0.00618,-8.09517 1.71976,-15.42282c1.83111,-7.77425 6.0522,-13.70846 6.0522,-13.70846l9.5198,1.61959l-0.76374,8.38911c0,0 -3.63384,5.51518 -5.05263,9.5175c-1.41878,4.00225 -1.85431,7.99933 -1.85431,7.99933z" fill="#deca55" stroke="none" stroke-width="0" stroke-linecap="butt"/><path d="M198.12679,277.41778l-1.60344,-2.336l3.27288,-8.56078l7.60151,-8.22742l13.0086,8.12466l2.48782,12.6254l21.09597,-5.47738l-0.74512,8.74188l-23.84961,4.59916l-12.02819,-3.35366l2.88826,-8.48484l-8.36364,-5.98076z" fill="#edeeee" stroke="none" stroke-width="0" stroke-linecap="butt"/><g stroke="none" stroke-width="0" stroke-linecap="butt"><path d="M200.50665,273.82968c1.56533,-1.74334 4.55394,-1.93803 6.87828,-0.13946c2.32431,1.79875 2.33311,4.55735 0.76776,6.30081c-1.56533,1.74334 -3.72995,1.66953 -6.47401,0.21459c-1.92767,-1.02209 -2.73732,-4.63247 -1.17198,-6.37593z" fill="#ece09c"/><path d="M200.92151,280.19292c-1.54945,-1.1992 -1.80954,-3.92196 -0.76591,-5.08415c1.04355,-1.16214 3.58731,-1.25944 5.13684,-0.0603c1.38487,0.95949 3.44337,3.46652 2.21843,5.14476c-1.1677,1.5998 -4.71073,1.67817 -6.5894,-0.00032z" fill="#000000"/></g><path d="M244.11015,267.8322c0,0 0.16967,-2.21241 0.46352,-3.43687c0.35127,-1.46412 1.50285,-4.7583 1.50285,-4.7583l0.10149,18.58764l-2.48429,0.51719c0,0 -0.21037,-3.60781 -0.1417,-5.40703c0.07006,-1.83662 0.55825,-5.50266 0.55825,-5.50266z" fill="#6a2625" stroke="none" stroke-width="0" stroke-linecap="butt"/><path d="M270.33866,266.2089l0.13052,4.23856c0,0 -7.14559,3.29039 -7.24382,0.10141c-0.0983,-3.18893 7.11328,-4.34011 7.11328,-4.34011z" fill="#eac763" stroke="none" stroke-width="0" stroke-linecap="butt"/><path d="M240.52883,249.55257c-0.10157,-3.32098 2.38239,-6.69714 2.38239,-6.69714c0,0 -3.43313,-1.86488 -3.18887,-5.04386c0.31695,-4.12432 8.13258,-6.58735 12.40429,-6.86697c4.27164,-0.27973 9.23588,1.15302 10.84507,3.95777c4.05651,7.07023 0.22385,7.52512 0.22385,7.52512c0,0 4.03835,-0.09521 3.57852,7.47546c-0.22667,3.73045 -7.8948,4.2536 -13.62987,4.17707c-5.73506,-0.07642 -12.3117,-1.08809 -12.61531,-4.52745z" fill="#fdfdfd" stroke="none" stroke-width="0" stroke-linecap="butt"/><path d="M247.55694,154.73348c1.89448,-0.195 2.44382,0.33204 2.76846,5.47678c0.32472,5.1447 -1.74895,18.65825 -1.74895,18.65825l-25.39394,4.57919l1.28336,-7.30403l17.53004,-2.87592c0,0 1.44726,-10.60265 1.33395,-12.40067c-0.32472,-5.1447 2.33268,-5.93856 4.22721,-6.13349z" data-paper-data="{&quot;index&quot;:null}" fill="#fec267" stroke="none" stroke-width="0" stroke-linecap="butt"/><g fill="#fdfdfd" stroke="none" stroke-width="0" stroke-linecap="butt"><g><path d="M213.56963,160.77893c3.51359,-0.10834 7.12721,3.11941 11.96791,5.44969c3.61157,1.73865 5.11878,6.42642 5.21421,9.52194c0.20376,6.6091 -1.44966,13.43297 -8.05876,13.63668c-2.18092,0.0673 -6.67429,0.60038 -10.92785,1.14523c-4.19604,0.53762 -7.22324,0.09829 -7.49294,-2.11469c-0.34658,-2.84329 1.72909,-3.34556 1.72909,-3.34556c0,0 -2.36186,-1.10912 -2.49296,-2.47317c-0.13108,-1.36418 1.90946,-3.6355 1.90946,-3.6355c0,0 -1.94327,-1.42513 -2.12109,-3.07668c-0.17769,-1.65153 1.4702,-2.87727 1.4702,-2.87727c0,0 -2.08264,-0.98147 -2.17403,-3.06992c-0.09145,-2.08847 2.35115,-2.66201 2.35115,-2.66201c0,0 -1.8926,-0.00637 -2.01635,-1.35712c-0.12376,-1.35074 -0.01121,-0.3176 0.3207,-1.07132c0.27333,-0.62089 8.47183,-4.01342 10.32104,-4.07037z"/></g><path d="M228.62992,177.51596c0.10356,-2.36159 0.18357,-10.38562 2.08253,-10.49935c1.82896,0.03882 3.62397,2.08529 3.62397,2.08529c0,0 1.11069,-2.59755 2.85282,-2.29544c2.26032,0.39188 3.42102,6.54267 3.46885,9.8666c0.04784,3.32392 -0.86304,7.12456 -2.44545,8.27368c-3.98871,2.89678 -4.14388,-0.0927 -4.14388,-0.0927c0,0 -0.04773,3.13649 -4.19965,2.51157c-2.04583,-0.30792 -1.35576,-7.19552 -1.23946,-9.84969z"/></g></g></g></svg>