<svg version="1.1" xmlns="http://www.w3.org/2000/svg" xmlns:xlink="http://www.w3.org/1999/xlink" width="13.28035" height="15.68333" viewBox="0,0,13.28035,15.68333"><g transform="translate(-236.63176,-169.27296)"><g data-paper-data="{&quot;isPaintingLayer&quot;:true}" fill-rule="nonzero" stroke-linejoin="miter" stroke-miterlimit="10" stroke-dasharray="" stroke-dashoffset="0" style="mix-blend-mode: normal"><path d="M239.23636,170.75c0.331,-0.516 0.697,-1.189 1.3,-1.35c0.508,-0.135 1.011,0.366 1.45,0.7c0.309,0.176 0.455,0.551 0.75,0.8c0.378,0.318 0.78,0.648 1.25,0.8c0.795,0.258 1.65,0.6 2.45,0.45c0.683,-0.18 1.068,-0.923 1.6,-1.35c0.592,-0.475 1.654,-1.968 1.8,-1.4c0.329,1.257 -0.499,3.378 -0.85,5.05c-0.14,0.665 -0.531,1.268 -0.6,1.95c-0.186,1.807 0.823,3.985 -0.25,5.45c-0.908,1.238 -3.076,1.091 -4.65,0.95c-1.949,-0.174 -4.571,-0.133 -5.6,-1.8c-1.209,-1.96 -0.013,-4.578 0.2,-6.85c0.066,-0.703 0.459,-1.26 0.65,-1.9c0.143,-0.477 0.216,-1.057 0.5,-1.5z" fill="#f8b820" stroke="none" stroke-width="1" stroke-linecap="round"/><path d="M241.15196,171.1754c0.273,-0.0914 0.5705,0.7622 0.8029,1.1755c0.2214,0.3939 0.6275,0.7944 0.5622,1.2365c-0.0538,0.3387 -0.5754,0.4078 -0.8448,0.591c-0.3162,0.2171 -0.7176,0.7769 -0.951,0.648c-0.2362,-0.1315 -0.0257,-0.7754 -0.0074,-1.1586c0.02,-0.2884 0.0754,-0.5733 0.1229,-0.8526c0.0921,-0.5487 0.0078,-1.5347 0.3152,-1.6398z" fill="#ffffff" stroke="none" stroke-width="0.85185" stroke-linecap="butt"/><path d="M248.49782,178.598c0.2972,0.378 0.27264,1.98902 -0.05556,2.90202c-0.1115,0.31 -0.5661,0.024 -0.7059,-0.3c-0.228,-0.531 -0.11034,-0.50678 -0.12094,-1.12778c-0.0127,-0.747 0.6833,-1.72824 0.8824,-1.47424z" fill="#ffffff" stroke="none" stroke-width="0.86553" stroke-linecap="round"/><path d="M245.62701,182.50482c-0.2622,0.437 -0.60547,0.3763 -1.06057,0.3668c-0.4907,-0.0272 -1.2364,0.0661 -1.4222,-0.4716c-0.4187,-1.2126 -0.1218,-1.30655 -0.0889,-2.58415c0.0142,-0.5481 -0.016,-0.33929 0.2222,-0.83079c0.0418,-0.1887 0.2898,-0.1059 0.4889,-0.1048c0.2382,0.001 1.65221,0.38357 1.98383,0.87403c0.33162,0.49045 0.52038,0.43237 0.50708,1.08107c-0.016,0.7966 -0.25074,1.03644 -0.63034,1.66944z" data-paper-data="{&quot;index&quot;:null}" fill="#ffffff" stroke="none" stroke-width="0.97175" stroke-linecap="round"/><path d="M248.37223,176.7381c0,0.32216 -0.13929,0.58333 -0.31111,0.58333c-0.17182,0 -0.31111,-0.26117 -0.31111,-0.58333c0,-0.32216 0.13929,-0.58333 0.31111,-0.58333c0.17182,0 0.31111,0.26117 0.31111,0.58333z" fill="#6fc0ff" stroke="none" stroke-width="0" stroke-linecap="butt"/><path d="M237.78181,179.35911c0.375,0.056 0.766,0.074 1.1,0.3c1.057,0.716 1.38855,0.76591 2.40455,1.54091c0.672,0.513 1.28,0.30691 2.1,0.44091c0.835,0.149 1.65,-0.447 2.5,-0.5c1.06,-0.115 2.437,0.36609 3.2,0.90909c0.437,0.311 -0.286,1.323 -0.8,1.65c-1.125,0.715 -2.491,1.229 -3.85,1.25c-1.285,0.066 -2.606,-0.398 -3.75,-1c-0.97,-0.511 -0.98755,-0.70191 -1.85455,-1.39091c-0.674,-0.536 -2.21,-1.138 -2.2,-1.4c0.01,-0.222 1.686,0.447 2.25,0.15c0.286,-0.15 -0.293,-0.72 -0.55,-1c-0.339,-0.37 -1.008,-0.597 -1.2,-0.95c-0.083,-0.122 0.434,-0.032 0.65,0z" fill="#f8f8f8" stroke="none" stroke-width="1" stroke-linecap="round"/><g stroke="none" stroke-linecap="butt"><path d="M245.21548,178.9702c0.1613,0 0.69918,0.84532 0.69918,1.21152c0,0.3662 -0.0658,0.6974 -0.1709,0.9384c-0.1062,0.2399 -0.2516,0.3885 -0.4129,0.3885c-0.1614,0 -0.3068,-0.1486 -0.413,-0.3885c-0.105,-0.241 -0.1709,-0.5722 -0.1709,-0.9384c0,-0.3662 0.0659,-0.6974 0.1709,-0.9384c0.1062,-0.2399 0.13622,-0.27312 0.29762,-0.27312z" fill="#4088ed" stroke-width="1.0615"/><path d="M245.31666,179.27822c0.108,0 0.2055,0.0928 0.2761,0.243c0.0711,0.1501 0.1146,0.3571 0.1146,0.5859c0,0.2288 -0.0435,0.4358 -0.1146,0.586c-0.0706,0.1501 -0.1681,0.243 -0.2761,0.243c-0.108,0 -0.2056,-0.0929 -0.2762,-0.243c-0.0711,-0.1502 -0.1146,-0.3572 -0.1146,-0.586c0,-0.2288 0.0435,-0.4358 0.1146,-0.5859c0.0706,-0.1502 0.1682,-0.243 0.2762,-0.243z" fill="#000000" stroke-width="0.47368"/><path d="M245.38646,179.52442c0.0491,0 0.0938,0.0382 0.1255,0.0996c0.0323,0.0615 0.0523,0.1462 0.0523,0.24c0,0.0938 -0.02,0.1785 -0.0523,0.24c-0.0317,0.0614 -0.0764,0.0996 -0.1255,0.0996c-0.0492,0 -0.0938,-0.0382 -0.1255,-0.0996c-0.0323,-0.0615 -0.0524,-0.1462 -0.0524,-0.24c0,-0.0938 0.0201,-0.1785 0.0524,-0.24c0.0317,-0.0614 0.0763,-0.0996 0.1255,-0.0996z" fill="#ffffff" stroke-width="0.64678"/><path d="M248.10366,178.87992c0.1434,0 0.2727,0.1321 0.3671,0.3454c0.0934,0.2142 0.1519,0.5085 0.1519,0.8341c0,0.3255 -0.0585,0.6199 -0.1519,0.8341c-0.0944,0.2132 -0.2237,0.3453 -0.3671,0.3453c-0.1434,0 -0.2727,-0.1321 -0.367,-0.3453c-0.0934,-0.2142 -0.1519,-0.5086 -0.1519,-0.8341c0,-0.3256 0.0585,-0.6199 0.1519,-0.8341c0.0943,-0.2133 0.2236,-0.3454 0.367,-0.3454z" fill="#4088ed" stroke-width="0.94355"/><path d="M248.15216,179.27292c0.096,0 0.1827,0.0825 0.2455,0.216c0.0631,0.1335 0.1019,0.3175 0.1019,0.5208c0,0.2034 -0.0388,0.3874 -0.1019,0.5209c-0.0628,0.1335 -0.1495,0.216 -0.2455,0.216c-0.096,0 -0.1828,-0.0825 -0.2455,-0.216c-0.0631,-0.1335 -0.1019,-0.3175 -0.1019,-0.5209c0,-0.2033 0.0388,-0.3873 0.1019,-0.5208c0.0627,-0.1335 0.1495,-0.216 0.2455,-0.216z" fill="#000000" stroke-width="0.42105"/><path d="M248.24756,179.49182c0.0437,0 0.0833,0.0339 0.1115,0.0886c0.0288,0.0546 0.0466,0.1299 0.0466,0.2132c0,0.0834 -0.0178,0.1587 -0.0466,0.2133c-0.0282,0.0547 -0.0678,0.0886 -0.1115,0.0886c-0.0437,0 -0.0834,-0.0339 -0.1116,-0.0886c-0.0287,-0.0546 -0.0465,-0.1299 -0.0465,-0.2133c0,-0.0833 0.0178,-0.1586 0.0465,-0.2132c0.0282,-0.0547 0.0679,-0.0886 0.1116,-0.0886z" fill="#ffffff" stroke-width="0.57492"/></g><path d="M244.69821,183.73385c0,-0.55228 0.44772,-1 1,-1c0.55228,0 1,0.44772 1,1c0,0.55228 -0.44772,1 -1,1c-0.55228,0 -1,-0.44772 -1,-1z" fill="#e00000" stroke="none" stroke-width="0" stroke-linecap="butt"/><path d="M245.56185,182.8702c0,0 0.52509,0.12295 0.72727,0.36364c0.20218,0.24069 0.22727,0.77273 0.22727,0.77273" fill="none" stroke="#000000" stroke-width="0.5" stroke-linecap="round"/><path d="M238.91668,176.15478c0,0.46024 -0.19898,0.83333 -0.44444,0.83333c-0.24546,0 -0.44444,-0.3731 -0.44444,-0.83333c0,-0.46024 0.19898,-0.83333 0.44444,-0.83333c0.24546,0 0.44444,0.3731 0.44444,0.83333z" fill="#6fc0ff" stroke="none" stroke-width="0" stroke-linecap="butt"/><path d="M240.92779,180.07145c0,0.32217 -0.13929,0.58334 -0.31111,0.58334c-0.17182,0 -0.31111,-0.26117 -0.31111,-0.58334c0,-0.32217 0.13929,-0.58333 0.31111,-0.58333c0.17182,0 0.31111,0.26116 0.31111,0.58333z" fill="#6fc0ff" stroke="none" stroke-width="0" stroke-linecap="butt"/><path d="M242.93056,178.57497c0,0 1.72946,0.01721 2.3974,0.57215c0.66794,0.55494 0.73048,0.88518 0.73048,0.88518" fill="none" stroke="#800000" stroke-width="0.5" stroke-linecap="round"/><path d="M247.31518,179.7246c0,0 -0.01438,-0.33024 0.65356,-0.88518c0.66794,-0.55494 0.82047,-0.37984 0.82047,-0.37984" data-paper-data="{&quot;index&quot;:null}" fill="none" stroke="#800000" stroke-width="0.5" stroke-linecap="round"/><path d="M248.92825,181.87754c0.23535,0.12161 -0.44373,0.70806 -0.80265,0.70806c-0.35891,0 -0.8637,-0.58644 -0.62833,-0.70806c0.23535,-0.12161 0.26942,-0.19695 0.62833,-0.19695c0.35891,0 0.5673,0.07534 0.80265,0.19695z" fill="#101010" stroke="none" stroke-width="1" stroke-linecap="butt"/></g></g></svg>