<svg version="1.1" xmlns="http://www.w3.org/2000/svg" xmlns:xlink="http://www.w3.org/1999/xlink" width="22.94848" height="30.85489" viewBox="0,0,22.94848,30.85489"><g transform="translate(-226.68088,-165.20459)"><g data-paper-data="{&quot;isPaintingLayer&quot;:true}" fill-rule="nonzero" stroke="none" stroke-miterlimit="10" stroke-dasharray="" stroke-dashoffset="0" style="mix-blend-mode: normal"><path d="" fill="#000000" stroke-width="1" stroke-linecap="round" stroke-linejoin="round"/><path d="" fill="#ee1a40" stroke-width="1" stroke-linecap="round" stroke-linejoin="round"/><path d="M242.53508,176.31911c0,0 0.69767,8.64826 -0.09128,14.10317c-0.40422,2.79485 -1.39018,2.65651 -2.95602,2.60663c-1.56583,-0.04989 -2.22331,-1.28043 -2.28184,-2.64552c-0.05852,-1.36509 1.53707,-4.55711 1.74029,-9.98569c0.15459,-4.12962 -1.4937,-9.36093 -0.20062,-12.02017c2.99292,-6.15492 7.09151,1.09867 7.65482,2.46054c0.71675,1.73288 1.0277,2.65922 1.0277,2.65922l-4.89301,2.82181z" data-paper-data="{&quot;index&quot;:null}" fill="#fedeb5" stroke-width="0" stroke-linecap="butt" stroke-linejoin="miter"/><path d="M232.45801,177.03996c0,0 0.76929,9.83288 -0.10065,16.03498c-0.44571,3.17767 -1.53288,3.02039 -3.25943,2.96367c-1.72656,-0.05672 -2.29174,-1.44007 -2.40847,-2.98411c-0.11673,-1.54404 0.99017,-4.15637 1.35942,-10.89103c0.23138,-4.22012 -1.77156,-11.4933 -0.50025,-14.18914c3.30012,-6.998 8.55037,1.2854 9.1715,2.83381c0.79032,1.97024 1.13319,3.02348 1.13319,3.02348l-5.39523,3.20832z" data-paper-data="{&quot;index&quot;:null}" fill="#fedeb5" stroke-width="0" stroke-linecap="butt" stroke-linejoin="miter"/><path d="M244.87278,187.85596l3.36392,-1.83985c0,0 -0.19412,1.69606 -0.33956,2.41197c-0.11037,0.54342 -0.22042,1.66492 -0.8494,1.78617c-0.51674,0.09961 -2.17494,-2.35828 -2.17494,-2.35828z" data-paper-data="{&quot;index&quot;:null}" fill="#fedeb5" stroke-width="0" stroke-linecap="butt" stroke-linejoin="miter"/><path d="M239.48376,188.9688c-5.67353,-0.07027 -10.07536,-3.90481 -10.14561,-9.50626c-0.06585,-5.24976 3.83973,-9.64678 10.14561,-9.50625c5.60189,0.12485 10.1456,2.49959 10.1456,9.50625c0,6.58512 -4.54277,9.57567 -10.1456,9.50626z" data-paper-data="{&quot;index&quot;:null}" fill="#fedeb5" stroke-width="0" stroke-linecap="butt" stroke-linejoin="miter"/><path d="M242.21196,180.6287c0.6398,2.85975 0.11511,4.849 0.11511,4.849c0,0 -0.19705,0.48831 -2.07085,0.66129c-1.45602,0.13441 -2.19034,-0.47676 -2.19034,-0.47676c0,0 -1.18673,-1.37975 -1.5609,-3.44532c-0.54163,-2.98998 0.10537,-5.12256 1.6302,-5.58055c1.52483,-0.45796 3.49151,1.37655 4.07676,3.99235z" data-paper-data="{&quot;index&quot;:null}" fill="#ffffff" stroke-width="0" stroke-linecap="butt" stroke-linejoin="miter"/><path d="M239.78857,184.98343c-0.63814,0.03196 -1.24783,-1.37108 -1.36179,-3.1338c-0.11398,-1.76272 0.31096,-3.21759 0.9491,-3.24957c0.63814,-0.03196 1.24783,1.37108 1.36179,3.1338c0.11398,1.76272 -0.31095,3.21758 -0.9491,3.24957z" fill="#fedeb5" stroke-width="0" stroke-linecap="butt" stroke-linejoin="miter"/><path d="M247.30532,177.15983c0.67044,0.39979 0.95842,2.23787 0.7194,4.8208c-0.16513,1.78436 -0.86607,3.35285 -0.86607,3.35285c0,0 -0.45018,-0.33264 -0.7627,-0.49449c-0.31251,-0.16183 -0.60224,-0.31679 -0.60224,-0.31679c0,0 0.05844,-1.22993 0.26084,-3.80695c0.17808,-2.26741 0.49791,-4.00435 1.25077,-3.55542z" data-paper-data="{&quot;index&quot;:null}" fill="#ffffff" stroke-width="0" stroke-linecap="butt" stroke-linejoin="miter"/><path d="M245.95722,184.22306c-0.43876,-0.01252 -0.76427,-1.20167 -0.72707,-2.65602c0.0372,-1.45436 0.42304,-2.6232 0.86177,-2.61067c0.43876,0.01252 0.76427,1.20167 0.72707,2.65602c-0.0372,1.45436 -0.42304,2.6232 -0.86177,2.61067z" fill="#fedeb5" stroke-width="0" stroke-linecap="butt" stroke-linejoin="miter"/><path d="M248.21891,186.02566c-1.03436,1.18253 -3.28792,1.77812 -3.28792,1.77812l3.7232,-3.89099c0,0 -0.14706,1.78336 -0.43528,2.11287z" data-paper-data="{&quot;index&quot;:null}" fill="#fedeb5" stroke-width="0" stroke-linecap="butt" stroke-linejoin="miter"/><path d="M235.13227,187.94768c0,0 -2.96142,3.00507 -3.65822,2.73079c-0.84817,-0.33384 0.48898,-5.04637 1.23659,-4.37958c0.74763,0.66677 2.42164,1.64876 2.42164,1.64876z" data-paper-data="{&quot;index&quot;:null}" fill="#fedeb5" stroke-width="0" stroke-linecap="butt" stroke-linejoin="miter"/></g></g></svg>