<svg version="1.1" xmlns="http://www.w3.org/2000/svg" xmlns:xlink="http://www.w3.org/1999/xlink" width="26.82275" height="56.55246" viewBox="0,0,26.82275,56.55246"><g transform="translate(-240.92921,-148.69436)"><g data-paper-data="{&quot;isPaintingLayer&quot;:true}" fill="#000000" fill-rule="nonzero" stroke="none" stroke-linecap="butt" stroke-linejoin="miter" stroke-miterlimit="10" stroke-dasharray="" stroke-dashoffset="0" style="mix-blend-mode: normal"><path d="M257.22893,178.24896c0,0 0.93523,-7.4426 -3.20242,-14.59803c-4.39934,-7.60799 -13.86478,-14.95657 -13.04758,-14.95657c15.23955,0 26.94486,6.42729 26.77112,30.36339c-0.40195,3.0605 -10.52112,-0.80879 -10.52112,-0.80879z" data-paper-data="{&quot;index&quot;:null}" stroke-width="NaN"/><path d="M246.87194,205.20637c-4.0013,0.80574 -1.58969,-10.69213 -1.58969,-10.69213c0,0 7.86035,-2.51291 8.0926,-1.72942c0.45611,6.86114 -2.50161,11.61582 -6.50291,12.42155z" data-paper-data="{&quot;index&quot;:null}" stroke-width="NaN"/><path d="M251.91647,202.94762c-2.73652,1.42817 -5.37878,-9.07837 -5.37878,-9.07837c0,0 6.63049,-3.50766 10.11314,-11.00375c3.70291,-7.9702 4.28462,-19.93923 4.75383,-19.27017c8.75016,12.47712 7.83383,27.37603 -9.4882,39.35229z" data-paper-data="{&quot;index&quot;:null}" stroke-width="NaN"/></g></g></svg>