<svg version="1.1" xmlns="http://www.w3.org/2000/svg" xmlns:xlink="http://www.w3.org/1999/xlink" width="25.46137" height="51.16132" viewBox="0,0,25.46137,51.16132"><g transform="translate(-230.41354,-148.49065)"><g data-paper-data="{&quot;isPaintingLayer&quot;:true}" fill-rule="nonzero" stroke-miterlimit="10" stroke-dasharray="" stroke-dashoffset="0" style="mix-blend-mode: normal"><g data-paper-data="{&quot;index&quot;:null}" stroke-width="0" stroke-linecap="butt" stroke-linejoin="miter"><g data-paper-data="{&quot;index&quot;:null}"><path d="M230.41354,167.43042c0,-1.06346 0.8653,-1.92557 1.93267,-1.92557c1.06738,0 1.93265,0.86211 1.93265,1.92557c0,1.06346 -0.86528,1.92557 -1.93265,1.92557c-1.06738,0 -1.93267,-0.86211 -1.93267,-1.92557z" fill="#e0cb17" stroke="none"/><path d="M231.08139,168.06556c0,-0.65701 0.53456,-1.18962 1.194,-1.18962c0.65944,0 1.194,0.5326 1.194,1.18962c0,0.65701 -0.53456,1.18962 -1.194,1.18962c-0.65944,0 -1.194,-0.53261 -1.194,-1.18962z" fill="#e0cb17" stroke="#000000"/><path d="M230.72488,171.75561c-0.3444,-1.03347 0.44156,-2.13075 0.44156,-2.13075l2.10321,-0.01487c0,0 0.15323,0.20302 0.48585,1.50522c0.34536,1.35211 -0.98611,3.31958 -0.98611,3.31958c0,0 -1.7001,-1.64571 -2.04451,-2.67918z" fill="#e8edf4" stroke="#000000"/><path d="M232.24862,169.85002c-0.51125,0.00227 -1.36863,-0.28808 -1.36863,-0.28808l0.21781,-0.68142c0,0 0.62849,0.40447 1.08264,0.43022c0.45414,0.02575 1.09235,-0.30689 1.09235,-0.30689l0.28233,0.4899c0,0 -0.72235,0.35366 -1.30651,0.35626z" fill="#dbded5" stroke="#000000"/></g><g data-paper-data="{&quot;index&quot;:null}" stroke="none"><path d="M238.30603,173.60199c0.20118,0 0.36426,0.33852 0.36426,0.75611c0,0.41759 -0.16308,0.75611 -0.36426,0.75611c-0.20118,0 -0.36428,-0.33853 -0.36428,-0.75611c0,-0.41759 0.16309,-0.75611 0.36428,-0.75611z" fill="#000000"/><path d="M239.71144,178.87695c0.20956,0 0.83479,0.90506 0.83479,1.0888c0,0.18374 -0.35203,1.39124 -0.56158,1.39124c-0.20956,0 -1.25977,-0.33269 -1.25977,-0.33269c0,0 0.77701,-2.14736 0.98657,-2.14736z" fill="#807d5a"/><path d="M233.64535,168.82568l0.13154,-0.15122l4.86707,5.89768l-0.1012,0.31253z" fill="#6e6e73"/><path d="M235.47681,170.53953l-0.30356,0.32261l-1.17375,-1.36101l0.33391,-0.32261z" fill="#ddcb1e"/></g></g><g data-paper-data="{&quot;index&quot;:null}" stroke-width="0" stroke-linecap="butt" stroke-linejoin="miter"><g data-paper-data="{&quot;index&quot;:null}"><path d="M251.07654,170.88623c-1.36927,0 -2.47929,-1.10593 -2.47929,-2.47018c0,-1.36424 1.11001,-2.47019 2.47929,-2.47019c1.36927,0 2.47929,1.10594 2.47929,2.47019c0,1.36424 -1.11002,2.47018 -2.47929,2.47018z" fill="#e0cb17" stroke="none"/><path d="M251.16739,170.75691c-0.84593,0 -1.5317,-0.68326 -1.5317,-1.52609c0,-0.84284 0.68576,-1.52608 1.5317,-1.52608c0.84593,0 1.53171,0.68324 1.53171,1.52608c0,0.84284 -0.68577,1.52609 -1.53171,1.52609z" fill="#e0cb17" stroke="#000000"/><path d="M253.15646,173.96454c-0.44182,1.32576 -2.62278,3.43694 -2.62278,3.43694c0,0 -1.70805,-2.52394 -1.26501,-4.25845c0.42669,-1.67051 0.62326,-1.93095 0.62326,-1.93095l2.69807,0.01907c0,0 1.00827,1.40763 0.56646,2.7334z" fill="#e8edf4" stroke="#000000"/><path d="M251.20177,171.51997c-0.74937,-0.00331 -1.67602,-0.45702 -1.67602,-0.45702l0.36218,-0.62847c0,0 0.81871,0.42674 1.40131,0.39371c0.58259,-0.03303 1.38884,-0.55192 1.38884,-0.55192l0.27941,0.87416c0,0 -1.09986,0.37246 -1.75571,0.36955z" fill="#dbded5" stroke="#000000"/></g><g data-paper-data="{&quot;index&quot;:null}" stroke="none"><path d="M244.71264,178.83713c0.20578,0.42419 0.03894,2.19213 0.03894,2.19213l-3.11533,0.0194c0,0 -1.01532,-1.28904 -0.69622,-2.71278c0.23458,-1.04665 1.78092,-2.34443 1.98128,-2.35045c1.29092,-0.0388 1.58553,2.42751 1.79131,2.85171z" fill="#e4dcaa"/><path d="M243.89839,177.3031c0,0.5357 -0.20921,0.96997 -0.46729,0.96997c-0.25808,0 -0.46731,-0.43427 -0.46731,-0.96997c0,-0.5357 0.20922,-0.96997 0.46731,-0.96997c0.25808,0 0.46729,0.43426 0.46729,0.96997z" fill="#000000"/><path d="M244.59928,183.21344c-0.14743,0.84753 -0.61066,2.20732 -0.61066,2.20732l-1.18066,0.48271c0,0 -1.42785,-0.57438 -1.4019,-1.34502c0.01289,-0.38265 0.21929,-3.37045 0.21929,-3.37045l1.23122,-0.78486c0,0 0.60337,0.05153 0.96773,0.159c0.36436,0.10747 0.93073,0.45271 0.93073,0.45271c0,0 -0.00834,1.35107 -0.15577,2.1986z" fill="#dfcc17"/><path d="M242.89377,185.85474c0,0 -1.34724,0.42678 -1.61608,0.42678c-0.26884,0 -0.72043,-1.54904 -0.72043,-1.78475c0,-0.23571 0.80206,-1.39676 1.0709,-1.39676c0.26884,0 1.2656,2.75471 1.2656,2.75471z" fill="#807d5a"/><path d="M243.12738,177.97859l-0.12981,-0.40092l6.24365,-7.56575l0.16875,0.194z" fill="#6e6e73"/><path d="M248.52729,170.65857l0.42836,0.41385l-1.50574,1.74595l-0.38942,-0.41386z" fill="#ddcb1e"/></g></g><g data-paper-data="{&quot;index&quot;:null}" stroke="none" stroke-width="0" stroke-linecap="butt" stroke-linejoin="miter"><g><path d="M238.54589,192.32586c0,0 1.23848,0.99426 0.55386,2.15127c-0.06362,0.10751 -0.30195,-0.03416 -0.30195,-0.03416l0.08179,0.36857l-0.55983,0.55108l-0.15006,-0.19425c0,0 -0.88189,0.36897 -1.19811,0.6531c-0.31532,0.28332 -0.69653,1.04929 -0.69653,1.04929l-0.00671,0.20696l-0.60865,0.50621l-0.11675,-0.13568l-0.19818,0.11727c0,0 0.14607,0.25734 -0.31664,0.3678c-0.14867,0.03549 -0.60919,0.22981 -0.60919,0.22981l-0.07335,-0.16364l-0.17278,-0.00807c0,0 -0.00231,0.27316 -0.13881,0.26602c-0.16364,-0.00857 -0.57577,0.05607 -0.84102,0.00728c-0.10274,-0.01889 0.04705,-0.10154 -0.05085,-0.12751c-0.06377,-0.01691 -0.09521,0.0052 -0.16237,-0.01181c-0.10884,-0.02757 -0.00276,0.09256 -0.08755,0.0985c-0.06935,0.00485 -0.25546,-0.06135 -0.41071,-0.12577c-0.15525,-0.06442 -0.28967,-0.17666 -0.28967,-0.17666l0.01736,-0.17408l-0.25773,-0.03245c0,0 -0.22695,-0.27538 -0.25869,-0.48889c-0.03174,-0.21351 0.11033,-0.50911 0.11033,-0.50911c0,0 0.47152,0.43519 0.82487,0.57377c3.2525,0.48544 3.41375,-1.24744 4.53312,-2.79718c0.51662,-0.71524 1.02501,-0.86265 1.26427,-1.37596c0.19638,-0.42134 0.12052,-0.79172 0.12052,-0.79172z" data-paper-data="{&quot;index&quot;:null}" fill="#a87643"/><path d="M235.13422,193.03346c0.23295,-0.99417 1.02737,-4.38522 1.31704,-4.49928c0.37903,-0.1326 2.17703,0.05547 2.17703,0.05547c0,0 -0.08617,0.68854 -0.17677,1.08649c-0.09059,0.39795 -0.31,1.63478 -0.31,1.63478c0,0 0.66745,1.22482 0.36798,1.84512c-0.40158,0.83175 -2.87745,2.54167 -2.87745,2.54167c0,0 -0.90465,-0.92806 -0.49783,-2.66423z" data-paper-data="{&quot;index&quot;:null}" fill="#fc6293"/><path d="M237.20752,188.02947c0.1595,0.23657 -0.69297,0.48379 -0.69297,0.48379c0,0 -0.20731,0.1615 -0.29034,0.46143c-0.13659,0.49345 -0.26291,1.25022 -0.50096,2.00311c-0.27103,0.85723 -0.53374,1.85956 -0.59482,2.38285c-0.07534,0.64559 0.25827,2.05807 0.58934,2.20916c0.03241,0.01479 0.18725,-0.24677 0.27146,-0.42704c0.26235,-0.46022 0.12351,-0.3562 0.5284,-0.94358c0.3357,-0.4664 0.72837,0.23027 0.72837,0.23027c0,0 -1.30632,2.9467 -3.30785,3.18243c-1.5088,0.17769 -2.14282,-0.83691 -2.14891,-0.84376c-0.0109,-0.01228 0.01744,-1.06952 0.28724,-1.71989c0.075,-0.18079 1.08119,-0.76717 1.44445,-1.55635c0.33802,-0.73433 0.96355,-1.95056 1.24206,-2.80055c0.49888,-1.52254 0.60053,-2.82191 0.8343,-2.86404c0.78034,-0.14065 1.51104,0.05513 1.61022,0.20223z" data-paper-data="{&quot;index&quot;:null}" fill="#f3e2e2"/><path d="M233.43135,193.67678c0,0 0.85686,-1.97497 1.09725,-2.55548c0.33275,-0.80357 0.48531,-1.62449 0.83509,-3.05878c0.06086,-0.24954 0.4862,-0.30735 0.4862,-0.30735l0.0907,0.10221c0,0 -0.38224,0.09145 -0.45171,0.27973c-0.1381,0.37425 -0.46645,1.80579 -0.79242,2.9527c-0.24708,0.86935 -0.86369,2.07855 -0.86369,2.07855z" data-paper-data="{&quot;index&quot;:null}" fill="#bfa4a4"/><path d="M236.27505,192.0693l0.23138,-1.1942l0.62301,0.13631l-0.27057,1.15002z" data-paper-data="{&quot;index&quot;:null}" fill="#fffff6"/><path d="M236.79126,190.32286l0.28215,-0.97709l0.56188,0.10696l-0.21464,0.93931z" data-paper-data="{&quot;index&quot;:null}" fill="#fffff6"/><path d="M235.06681,189.46002l0.15977,-0.90233c0,0 0.53295,0.39832 0.92054,0.56297c0.38759,0.16466 0.91662,0.21749 0.91662,0.21749l-0.2676,0.97955c0,0 -0.71411,-0.16883 -1.13519,-0.40721c-0.42109,-0.23839 -0.59413,-0.45045 -0.59413,-0.45045z" data-paper-data="{&quot;index&quot;:null}" fill="#754c86"/><path d="M235.3335,191.84845c-0.38373,-0.1319 -0.91746,-0.42753 -0.91746,-0.42753c0,0 0.14436,-0.36891 0.22992,-0.60754c0.08556,-0.23863 0.23578,-0.69138 0.23578,-0.69138c0,0 0.55178,0.36973 0.90325,0.5301c0.35148,0.16037 0.76694,0.24074 0.76694,0.24074l-0.25217,1.1979c0,0 -0.58254,-0.1104 -0.96627,-0.2423z" data-paper-data="{&quot;index&quot;:null}" fill="#754c86"/><path d="M238.43121,188.59124l-1.48563,-0.6952c0,0 0.10141,-0.02042 0.43121,0.10239c0.32981,0.12281 0.64946,0.20609 0.77001,0.25783c0.19916,0.0855 0.46188,0.33676 0.46188,0.33676z" data-paper-data="{&quot;index&quot;:null}" fill="#ae8484"/><path d="M235.92763,188.02544c0.0496,-0.19487 0.46222,-0.21917 1.2918,-0.00808c0.82957,0.21109 1.19468,0.5752 1.19468,0.5752c0,0 -0.69301,-0.03681 -1.04865,-0.07308c-0.72826,-0.06381 -0.6472,0.02179 -1.01377,-0.09031c-0.36657,-0.1121 -0.46155,-0.249 -0.42465,-0.394z" data-paper-data="{&quot;index&quot;:null}" fill="#532c31"/></g><path d="M237.12728,187.93241c0,0 0.31654,-0.66493 0.65342,-0.78505c0.33688,-0.12012 0.72377,-0.10398 0.79886,0.26723c0.07509,0.37121 -0.571,0.82105 -0.571,0.82105z" fill="#fc6293"/></g><g data-paper-data="{&quot;index&quot;:null}" stroke="none" stroke-width="0" stroke-linecap="butt" stroke-linejoin="miter"><path d="M239.4394,183.39186l-1.1445,3.2687l-0.80338,1.94198l-1.20338,-0.12839l0.62659,-1.8244l1.28347,-3.52051z" data-paper-data="{&quot;index&quot;:null}" fill="#8e5173"/><path d="M238.45466,186.19071l-0.15979,0.46984l-0.80338,1.94198l-1.20338,-0.12839l0.62659,-1.8244l0.2754,-0.71046z" data-paper-data="{&quot;index&quot;:null}" fill="#a71e48"/><path d="M237.0909,186.19072l0.09129,-0.25949l1.26494,0.25634l-0.07066,0.2496z" fill="#a19589"/><path d="M236.92979,186.64865l0.09129,-0.25949l1.26494,0.25634l-0.07066,0.2496z" fill="#a19589"/></g><path d="M240.97178,183.12593l1.26675,0.67558l2.67297,0.9852c0,0 -2.21444,0.15367 -3.06552,-0.1227c-0.7832,-0.25434 -2.1639,-1.87063 -2.1639,-1.87063z" data-paper-data="{&quot;index&quot;:null}" fill="#f79db4" stroke="none" stroke-width="0" stroke-linecap="butt" stroke-linejoin="miter"/><g data-paper-data="{&quot;index&quot;:null}" stroke="none" stroke-width="0" stroke-linecap="butt" stroke-linejoin="miter"><path d="M239.88186,188.48916c0,0 0.37008,-0.63668 0.7157,-0.72872c0.34561,-0.09205 0.72986,-0.04417 0.77421,0.33194c0.04435,0.37612 -0.6365,0.77138 -0.6365,0.77138z" fill="#f3e2e2"/><g><path d="M241.19097,192.69244c0,0 1.43285,0.85604 0.88736,2.15935c-0.05068,0.12109 -0.31924,0.00807 -0.31924,0.00807l0.1384,0.37184l-0.50313,0.65453l-0.18426,-0.18053c0,0 -0.86471,0.51149 -1.15283,0.85295c-0.2873,0.34049 -0.57345,1.19291 -0.57345,1.19291l0.02292,0.2164l-0.56045,0.61489l-0.14112,-0.12437l-0.18936,0.15072c0,0 0.18924,0.24676 -0.27647,0.42861c-0.14963,0.05842 -0.60095,0.32723 -0.60095,0.32723l-0.09999,-0.15974l-0.18102,0.01656c0,0 0.03706,0.28468 -0.10606,0.29697c-0.17157,0.01473 -0.59125,0.14156 -0.87441,0.12909c-0.10968,-0.00484 0.0343,-0.1125 -0.07136,-0.1254c-0.06882,-0.00841 -0.09835,0.01916 -0.17072,0.01116c-0.11727,-0.01299 0.01051,0.09675 -0.0769,0.11517c-0.07149,0.01507 -0.2748,-0.02694 -0.44571,-0.07157c-0.17092,-0.04462 -0.32705,-0.14205 -0.32705,-0.14205l-0.00709,-0.18372l-0.27297,0.00346c0,0 -0.27603,-0.25387 -0.33992,-0.47154c-0.06389,-0.21767 0.0413,-0.5459 0.0413,-0.5459c0,0 0.5537,0.38489 0.94155,0.47809c3.45586,0.03541 3.37334,-1.79175 4.31465,-3.56668c0.43444,-0.81917 0.94236,-1.04607 1.11725,-1.61497c0.14355,-0.46696 0.01108,-0.84155 0.01108,-0.84155z" data-paper-data="{&quot;index&quot;:null}" fill="#a87643"/><path d="M237.7418,193.92192c0.09886,-1.06855 0.43587,-4.71326 0.72094,-4.87384c0.37539,-0.1928 2.2742,-0.2568 2.2742,-0.2568c0,0 0.00978,0.72919 -0.02703,1.15652c-0.03681,0.42733 -0.0865,1.74651 -0.0865,1.74651c0,0 0.87175,1.17854 0.64963,1.86751c-0.29784,0.92384 -2.62807,3.06151 -2.62807,3.06151c0,0 -1.07578,-0.83536 -0.90314,-2.70142z" data-paper-data="{&quot;index&quot;:null}" fill="#f3e2e2"/><path d="M239.17711,188.41348c0.20021,0.22322 -0.65145,0.60372 -0.65145,0.60372c0,0 -0.19247,0.19807 -0.23556,0.52226c-0.07089,0.53338 -0.09305,1.3394 -0.23206,2.15752c-0.15828,0.9315 -0.29244,2.0228 -0.28042,2.57635c0.01484,0.68291 0.57171,2.09507 0.93817,2.20452c0.03587,0.01072 0.15927,-0.28393 0.22087,-0.48376c0.20661,-0.51698 0.0771,-0.38863 0.41371,-1.05857c0.28207,-0.53401 0.79148,0.13446 0.79148,0.13446c0,0 -0.93408,3.25612 -2.98353,3.79069c-1.54492,0.40296 -2.3515,-0.56158 -2.35883,-0.56785c-0.01312,-0.01122 -0.13637,-1.11584 0.05051,-1.83183c0.05196,-0.19904 1.01463,-0.9548 1.27876,-1.82879c0.24577,-0.81324 0.72119,-2.16967 0.88831,-3.09471c0.29933,-1.65697 0.21741,-3.02426 0.45467,-3.10189c0.79197,-0.25915 1.5809,-0.16094 1.70539,-0.02213z" data-paper-data="{&quot;index&quot;:null}" fill="#fc6293"/><path d="M236.06221,194.83764c0,0 0.60662,-2.17966 0.77298,-2.81867c0.23027,-0.88455 0.27048,-1.76113 0.42736,-3.30471c0.02729,-0.26854 0.4617,-0.39017 0.4617,-0.39017l0.10918,0.09329c0,0 -0.38467,0.15043 -0.42979,0.35645c-0.08968,0.40953 -0.22466,1.94714 -0.39827,3.18811c-0.1316,0.94065 -0.59876,2.28846 -0.59876,2.28846z" data-paper-data="{&quot;index&quot;:null}" fill="#766565"/><path d="M238.79007,192.75344l0.06833,-1.27654l0.66823,0.05188l-0.1155,1.23622z" data-paper-data="{&quot;index&quot;:null}" fill="#fffff6"/><path d="M239.07512,190.8609l0.15254,-1.05788l0.60035,0.03017l-0.08772,1.00878z" data-paper-data="{&quot;index&quot;:null}" fill="#fffff6"/><path d="M237.19137,189.24953c0,0 0.61232,0.33764 1.03958,0.45304c0.42725,0.1154 0.98558,0.09396 0.98558,0.09396l-0.13705,1.05832c0,0 -0.76775,-0.07258 -1.24052,-0.25989c-0.47278,-0.18732 -0.68354,-0.38306 -0.68354,-0.38306z" data-paper-data="{&quot;index&quot;:null}" fill="#754c86"/><path d="M236.76127,192.34709c0,0 0.09697,-0.40487 0.15156,-0.66564c0.05459,-0.26077 0.14555,-0.75376 0.14555,-0.75376c0,0 0.6278,0.30515 1.01684,0.42131c0.38904,0.11616 0.83314,0.1398 0.83314,0.1398l-0.08943,1.28339c0,0 -0.62235,-0.03076 -1.04085,-0.11262c-0.4185,-0.08185 -1.0168,-0.31249 -1.0168,-0.31249z" data-paper-data="{&quot;index&quot;:null}" fill="#754c86"/><path d="M240.53204,188.82142l-1.64691,-0.50903c0,0 0.10261,-0.03592 0.46367,0.04427c0.36106,0.0802 0.70584,0.1207 0.8388,0.15714c0.21967,0.06023 0.52945,0.28382 0.52945,0.28382z" data-paper-data="{&quot;index&quot;:null}" fill="#ae8484"/><path d="M237.84417,188.59418c0.02346,-0.21003 0.44949,-0.29493 1.34354,-0.19506c0.89405,0.09988 1.32671,0.42615 1.32671,0.42615c0,0 -0.72672,0.06182 -1.10217,0.07543c-0.76731,0.03879 -0.67055,0.11618 -1.06834,0.05245c-0.39778,-0.06373 -0.51642,-0.1925 -0.49896,-0.34878z" data-paper-data="{&quot;index&quot;:null}" fill="#532c31"/></g></g><g data-paper-data="{&quot;index&quot;:null}" stroke="none" stroke-width="0" stroke-linecap="butt" stroke-linejoin="miter"><path d="M240.55384,183.98602l-0.63077,3.72381l-0.17868,1.17557l-1.47106,0.11422l0.27277,-1.47525l0.78189,-4.06608z" data-paper-data="{&quot;index&quot;:null}" fill="#8e5173"/><path d="M240.13069,186.45823l-0.20755,1.25162l-0.17868,1.17557l-1.47106,0.11422l0.27277,-1.47525l0.26045,-1.25955z" data-paper-data="{&quot;index&quot;:null}" fill="#c5c0b5"/><path d="M240.13069,186.45823l-0.04284,0.23228l-1.3385,-0.16505l0.05727,-0.26061z" data-paper-data="{&quot;index&quot;:null}" fill="#af2753"/><path d="M240.04586,186.943l-0.04284,0.23229l-1.33849,-0.16506l0.05727,-0.26061z" data-paper-data="{&quot;index&quot;:null}" fill="#af2753"/></g><path d="M235.84543,183.4195c0,0 1.45234,1.25836 3.73509,1.34968c2.65395,0.06274 4.32885,-1.131 4.32885,-1.131l0.24966,0.37729c0,0 -2.02118,1.00606 -4.60226,1.08631c-2.16319,-0.08053 -3.91267,-1.30016 -3.91267,-1.30016z" data-paper-data="{&quot;index&quot;:null}" fill="#ee3377" stroke="none" stroke-width="0" stroke-linecap="butt" stroke-linejoin="miter"/><path d="M241.37142,180.22624l1.24903,1.68953l1.32174,1.80318c0,0 -1.28773,0.87424 -3.86704,1.11583c-1.97861,0.15687 -4.25952,-1.34528 -4.25952,-1.34528l2.00838,-3.23353z" data-paper-data="{&quot;index&quot;:null}" fill="#fcf4f4" stroke="none" stroke-width="0" stroke-linecap="butt" stroke-linejoin="miter"/><path d="M236.11187,183.03728c0,0 0.95655,1.18946 3.34427,1.28347c2.65395,0.06274 4.15228,-1.05294 4.15228,-1.05294l0.08762,0.12266c0,0 -1.20023,0.99152 -4.23189,1.08631c-2.16318,-0.08053 -3.44055,-1.29747 -3.44055,-1.29747z" data-paper-data="{&quot;index&quot;:null}" fill="#ee3377" stroke="none" stroke-width="0" stroke-linecap="butt" stroke-linejoin="miter"/><g data-paper-data="{&quot;index&quot;:null}" stroke="none" stroke-width="0" stroke-linecap="butt" stroke-linejoin="miter"><path d="M241.14119,186.43735l-0.87185,-6.3347l1.81063,0.83425l3.91088,3.37966c0,0 -1.41647,1.20259 -2.44904,1.50532c-1.03257,0.30273 -2.40063,0.61547 -2.40063,0.61547z" fill="#fab5b7"/><path d="M245.96774,184.30821l0.47024,0.35536c0,0 -1.43411,1.03777 -2.46342,1.48642c-1.02931,0.44865 -2.82796,0.81997 -2.82796,0.81997l-0.00566,-0.57183c0,0 1.68042,-0.29692 2.67212,-0.7263c0.9917,-0.42939 2.15468,-1.3636 2.15468,-1.3636z" fill="#fed000"/></g><path d="M238.23215,180.64008l0.388,-0.48884l1.57191,0.11439l0.38428,0.58416z" data-paper-data="{&quot;index&quot;:null}" fill="#aa4455" stroke="none" stroke-width="0" stroke-linecap="butt" stroke-linejoin="miter"/><path d="M238.34166,178.54321c0.13874,-0.60785 0.68623,-1.40353 0.68623,-1.40353c0,0 0.68893,0.07134 1.15152,0.0686c0.46259,-0.00274 1.18247,-0.08245 1.18247,-0.08245l0.04601,2.26109l0.16418,0.99716l-3.37109,-0.18284c0,0 0.00195,-1.05018 0.14068,-1.65803z" data-paper-data="{&quot;index&quot;:null}" fill="#6d3b75" stroke="none" stroke-width="0" stroke-linecap="butt" stroke-linejoin="miter"/><path d="M237.7265,180.23043l0.38747,-1.13677c0,0 0.01829,-1.17084 0.15106,-1.73503c0.07495,-0.093 0.20681,-0.03006 0.20681,-0.03006c0,0 -0.22569,0.3171 -0.2157,0.38616c0.03162,0.21863 -0.0581,0.30198 0.09024,0.4189c0.67702,0.53361 0.75439,0.82936 0.75439,0.82936c0,0 -0.02483,0.18714 -0.04268,0.28018c-0.09971,0.51973 -0.7297,1.51018 -0.7297,1.51018z" data-paper-data="{&quot;index&quot;:null}" fill="#efe6e6" stroke="none" stroke-width="0" stroke-linecap="butt" stroke-linejoin="miter"/><path d="M240.48043,180.97797c0,0 -0.5441,-0.95645 -0.64381,-1.47617c-0.01785,-0.09304 -0.04268,-0.28018 -0.04268,-0.28018c0,0 0.07737,-0.29575 0.75439,-0.82936c0.14834,-0.11692 0.23103,-0.23475 0.26265,-0.45338c0.00999,-0.06906 -0.18029,-0.35504 -0.17881,-0.41907c0.00723,-0.31302 0.18725,-0.3464 0.18725,-0.3464c0,0 0.52841,-0.11466 0.60336,-0.02166c0.28794,0.35729 0.04777,2.23518 0.04777,2.23518l0.63023,1.56438z" data-paper-data="{&quot;index&quot;:null}" fill="#efe6e6" stroke="none" stroke-width="0" stroke-linecap="butt" stroke-linejoin="miter"/><path d="M240.5937,177.44539c0,0 0.29972,0.55899 0.02989,0.92033c-0.15579,0.19807 -0.38875,0.37469 -0.60492,0.57069c-0.14946,0.13552 -0.28519,0.28518 -0.28519,0.28518c0,0 0.09475,-0.84795 0.16044,-1.14927c0.08002,-0.36702 0.20746,-0.77577 0.32469,-0.85623c0.07367,-0.02489 0.76043,-0.06454 0.76043,-0.06454l0.25233,0.29667l-0.63766,-0.00283z" data-paper-data="{&quot;index&quot;:null}" fill="#fd4275" stroke="none" stroke-width="0" stroke-linecap="butt" stroke-linejoin="miter"/><path d="M240.19335,180.59564c0,0 -0.46842,-0.81811 -0.41046,-1.3907c0.0306,-0.30234 1.04705,-1.17869 1.04705,-1.17869l0.16093,0.11174c0,0 -1.03238,0.7661 -1.0704,1.0962c-0.05609,0.48698 0.41939,1.34311 0.41939,1.34311z" data-paper-data="{&quot;index&quot;:null}" fill="#fed000" stroke="none" stroke-width="0" stroke-linecap="butt" stroke-linejoin="miter"/><path d="M240.89225,178.04028c0,0 -0.48348,0.40393 -0.67833,0.5971c-0.08261,0.0819 -0.23543,0.23428 -0.31991,0.392c-0.0865,0.1615 -0.10371,0.32743 -0.10371,0.32743c0,0 -0.04993,-0.22091 -0.05239,-0.28415c-0.00246,-0.06323 0.07328,-0.20262 0.07328,-0.20262l0.88875,-0.86106l-0.19206,-0.62356l0.66715,-0.00489l-0.20416,-0.21788l0.18716,-0.03586l0.26252,0.39333l-0.75242,-0.01754l0.22411,0.53772z" data-paper-data="{&quot;index&quot;:null}" fill="#fff9f9" stroke="none" stroke-width="0" stroke-linecap="butt" stroke-linejoin="miter"/><path d="M240.70143,177.56421l-0.02193,-0.0544h0.72959l0.04386,0.07633z" data-paper-data="{&quot;index&quot;:null}" fill="#fed000" stroke="none" stroke-width="0" stroke-linecap="butt" stroke-linejoin="miter"/><path d="M238.95927,177.01464c0,0 0.46888,0.16724 0.66433,0.17935c0.19253,0.01194 0.57329,0.02516 0.57329,0.02516c0,0 -0.03395,0.06602 -0.06338,0.1127c-0.02943,0.04669 -0.06525,0.13033 -0.06525,0.13033l-0.43193,0.30852z" data-paper-data="{&quot;index&quot;:null}" fill="#fff9f9" stroke="none" stroke-width="0" stroke-linecap="butt" stroke-linejoin="miter"/><path d="M239.32538,177.17171l0.76613,0.04032l-0.42339,0.30242z" data-paper-data="{&quot;index&quot;:null}" fill="#fd4275" stroke="none" stroke-width="0" stroke-linecap="butt" stroke-linejoin="miter"/><g data-paper-data="{&quot;index&quot;:null}" stroke="none" stroke-width="0" stroke-linecap="butt" stroke-linejoin="miter"><path d="M239.16236,177.07381c-0.04216,0.38933 -0.24424,0.47243 -0.45917,0.46821c-0.3199,-0.00631 -0.48736,-0.18466 -0.49401,-0.4981c-0.02648,-1.25091 -0.07251,-2.34415 -0.14401,-3.20384c-0.04359,-0.5241 -0.2881,-2.56324 -0.2881,-2.56324c0,0 0.11085,-0.00681 0.40306,-0.14799c0.29219,-0.14118 0.81062,0.0224 0.81062,0.0224c0,0 0.05812,1.16026 0.16617,2.45938c0.07558,0.90865 0.1328,2.28744 0.00546,3.46318z" data-paper-data="{&quot;index&quot;:null}" fill="#4c2b5c"/><path d="M238.70318,177.54201c-0.3199,-0.00631 -0.48736,-0.18467 -0.494,-0.4981c-0.02648,-1.25091 -0.07251,-2.34415 -0.14402,-3.20383c-0.01214,-0.14595 -0.07353,-0.71348 -0.07353,-0.71348l1.21978,1.32156c0,0 0.04346,1.77156 -0.04905,2.62565c-0.04216,0.38933 -0.24425,0.47244 -0.45918,0.46821z" data-paper-data="{&quot;index&quot;:null}" fill="#edbb82"/><path d="M239.01762,167.51467c0.11618,0.84283 0.10334,2.26714 0.10334,2.26714l-2.12985,1.22118c0,0 -0.36289,0.02633 -0.8234,-0.29492c-0.29907,-0.20863 -0.5465,-0.75788 -0.5465,-0.75788c0,0 -0.07328,0.70704 -0.63645,0.58094c-0.36159,-0.08097 -0.62909,-1.15741 -0.63128,-1.5553c-0.0013,-0.23423 0.13661,-0.64331 0.37265,-0.88355c0.14889,-0.15154 0.43736,-0.20384 0.43736,-0.20384c0,0 -0.077,-0.36857 0.30735,-0.48468c0.11775,-0.03558 0.2687,-0.11744 0.2687,-0.11744c0,0 0.02747,-0.28047 0.09908,-0.41375c0.07161,-0.13329 0.28574,-0.26208 0.28574,-0.26208l0.41684,0.04723c0,0 0.27148,-0.46792 0.36667,-0.52483c0.3735,-0.22328 0.75924,0.06662 0.96728,0.22087c0.3809,0.28244 1.12395,1.02661 1.14245,1.16089z" data-paper-data="{&quot;index&quot;:null}" fill="#f44a7d"/><g data-paper-data="{&quot;index&quot;:null}"><path d="M237.95483,169.93278c0.82102,-0.27017 1.52862,-0.36139 1.8614,0.64986c0.33277,1.01125 -0.29075,1.35804 -1.11177,1.62821c-0.82102,0.27017 -1.54476,0.36669 -1.8614,-0.64986c-0.31657,-1.01631 0.29075,-1.35804 1.11177,-1.62821z" fill="#fed000"/><path d="M238.0238,170.1423c1.06971,-0.35201 1.97121,-0.53308 2.24276,0.29213c0.27155,0.82522 -0.56131,1.21487 -1.63104,1.56687c-1.06971,0.35201 -1.99222,0.53999 -2.24276,-0.29213c-0.25047,-0.83195 0.56131,-1.21487 1.63104,-1.56687z" fill="#e68b9c"/></g></g><path d="M237.88229,177.18971l0.62479,-0.17651c0,0 0.73489,-0.05298 0.93839,-0.03166c0.15884,0.01664 0.42184,-0.0084 0.60219,0.02875c0.30895,0.06364 0.51761,0.19599 0.57322,0.21022c0.09752,0.02495 -1.61269,-0.06235 -1.58236,-0.04842c0.10817,0.09227 0.03694,0.46372 0.07814,0.8371c0.03382,0.30653 0.03937,1.15975 0.03937,1.15975c0,0 -0.11933,-0.16303 -0.2538,-0.31344c-0.19449,-0.21753 -0.4077,-0.62103 -0.54192,-0.83431c-0.23057,-0.38757 0.12596,-0.70867 0.12596,-0.70867z" data-paper-data="{&quot;index&quot;:null}" fill="#fd4275" stroke="none" stroke-width="0" stroke-linecap="butt" stroke-linejoin="miter"/><path d="M238.41113,180.45381c0,0 0.5624,-0.80172 0.55755,-1.29189c-0.00329,-0.33227 -0.81197,-1.23661 -0.81197,-1.23661l0.03381,-0.05982c0,0 0.91923,0.97784 0.91805,1.28172c-0.00224,0.57551 -0.55364,1.34015 -0.55364,1.34015z" data-paper-data="{&quot;index&quot;:null}" fill="#fed000" stroke="none" stroke-width="0" stroke-linecap="butt" stroke-linejoin="miter"/><path d="M238.12712,177.87295l0.27911,-0.51134l-0.80185,-0.16469l1.72034,-0.49883l0.69169,0.32408c0,0 -0.48117,-0.04583 -0.79201,-0.02142c-0.37687,0.0296 -1.30952,0.18645 -1.30952,0.18645l0.66298,0.07463l-0.25621,0.60006l0.79383,0.94928c0,0 0.06075,0.14656 0.05169,0.20918c-0.00906,0.06264 -0.08182,0.27711 -0.08182,0.27711c0,0 0.00022,-0.16682 -0.06891,-0.33648c-0.06753,-0.16569 -0.20357,-0.33321 -0.27716,-0.4233c-0.17358,-0.21248 -0.61217,-0.66476 -0.61217,-0.66476z" data-paper-data="{&quot;index&quot;:null}" fill="#fff9f9" stroke="none" stroke-width="0" stroke-linecap="butt" stroke-linejoin="miter"/><path d="M241.86596,171.09769c0,0 0.83044,-0.3833 1.59414,-0.16157c0.68154,0.19786 0.89377,0.50148 1.11579,1.15109c0.33633,0.98403 -0.54366,2.07208 -0.54366,2.07208c0,0 1.10924,-1.73098 -0.1195,-2.78358c-0.7602,-0.65121 -2.04678,-0.27802 -2.04678,-0.27802z" data-paper-data="{&quot;index&quot;:null}" fill="#000000" stroke="none" stroke-width="0" stroke-linecap="butt" stroke-linejoin="miter"/><path d="M244.77295,166.982c3.07843,1.29101 4.67138,4.48984 3.55796,7.14478c-1.11341,2.65494 -4.51156,3.76061 -7.58998,2.4696c-3.07843,-1.29101 -4.6714,-4.48983 -3.55798,-7.14477c1.11341,-2.65494 4.51156,-3.76062 7.59,-2.46961z" data-paper-data="{&quot;index&quot;:null}" fill="#f79eb4" stroke="none" stroke-width="0" stroke-linecap="butt" stroke-linejoin="miter"/><path d="M237.39848,170.91203c0.0001,-0.00072 -0.26945,1.15281 -0.14474,1.90719c0.12473,0.75438 0.88924,2.94475 0.88924,2.94475l-0.09176,0.94956c0,0 -1.34232,-0.62551 -1.61989,-3.09429c-0.17651,-1.53138 0.26114,-2.49782 0.26069,-2.48053" data-paper-data="{&quot;index&quot;:null}" fill="#f79eb4" stroke="#f89db5" stroke-width="0" stroke-linecap="butt" stroke-linejoin="round"/><path d="M240.08378,173.02772c1.44705,-0.25802 0.45886,-0.51015 3.30964,-0.43268c0.42759,0.13182 1.68489,-0.24409 0.56458,1.60387c-0.37281,0.61496 -1.10045,1.46719 -2.50175,1.49697c-0.67579,-0.08478 -1.78982,-1.37703 -2.39517,-1.68034c-1.06285,-0.5325 -1.11885,0.0253 -1.64674,-0.22941c-0.13212,-0.06375 -0.5431,-1.18433 -0.35381,-2.43588c0.08927,-0.59016 0.11687,-0.40127 0.17897,-0.3734c0.40981,0.1839 0.73956,0.24941 0.90146,0.89133c0.11324,0.44899 0.34068,0.87794 0.66148,0.98568c0.187,0.0628 0.36474,0.15157 0.98722,-0.23791z" fill="#ffffff" stroke="none" stroke-width="0" stroke-linecap="butt" stroke-linejoin="miter"/><g data-paper-data="{&quot;index&quot;:null}" fill="#ffd5c5" stroke="none" stroke-width="1" stroke-linecap="round" stroke-linejoin="round"><path d="M237.32285,173.47766c0.03439,-0.04876 0.07604,0.09599 0.09966,0.15079c0.14611,0.33842 0.53299,0.1799 0.77475,0.11378c0.18575,-0.05077 0.43902,-0.01287 0.61376,0.05801c0.83716,0.3498 2.21827,1.56904 2.50245,1.70273c0.26449,0.12442 1.22839,0.01989 1.55531,0.0425c0.3354,0.0232 0.54584,0.22099 0.57593,0.27417c0.06308,0.11155 0.53257,0.8497 -0.7515,1.43093c-0.17842,0.08075 -1.15886,0.24219 -1.61661,0.11085c-0.38381,-0.11018 -1.73364,-0.46148 -2.56275,-1.18889c-0.66076,-0.57972 -0.97679,-1.13751 -1.017,-1.20898c-0.2457,-0.43686 -0.48933,-1.03834 -0.17402,-1.48587z"/><path d=""/></g><g data-paper-data="{&quot;index&quot;:null}" fill="#000000" stroke="none" stroke-width="1" stroke-linecap="round" stroke-linejoin="round"><path d="M238.30172,174.30635c-0.10424,-0.03574 -0.3578,-0.40967 -0.16748,-0.45534c0.11002,-0.0264 0.62052,0.12422 0.71635,0.28158c0.12607,0.20705 -0.31464,0.23345 -0.54887,0.17376z"/><path d=""/></g><path d="M246.71857,173.93237c0.01573,0.02151 -1.01723,2.07083 -1.35567,2.49582c-0.50783,0.63771 -1.12655,1.18806 -1.85605,1.55802c-0.31016,0.15728 -0.61026,0.26869 -0.93987,0.36995c-0.10669,0.0328 -0.52725,0.11062 -0.52725,0.11062c0,0 0.75087,-0.8002 1.42988,-2.31338c0.36056,-0.80354 1.00332,-2.64712 1.00169,-2.59032" data-paper-data="{&quot;index&quot;:null}" fill="#f79eb4" stroke="#f89db5" stroke-width="0" stroke-linecap="butt" stroke-linejoin="round"/><path d="M248.24968,173.84834c0.02672,0.401 -0.78978,2.08241 -1.65574,3.19274c-0.66735,0.85566 -1.03399,1.00806 -1.70708,1.33001c-0.76228,0.36459 -1.1661,0.26405 -1.1661,0.26405c0,0 0.87782,-0.8852 1.31384,-1.5462c0.43603,-0.661 1.79122,-3.12984 1.78338,-3.149" data-paper-data="{&quot;index&quot;:null}" fill="#f79eb4" stroke="#f89db5" stroke-width="0" stroke-linecap="butt" stroke-linejoin="round"/><g data-paper-data="{&quot;index&quot;:null}" fill="#ff4488" stroke="none" stroke-width="1" stroke-linecap="round" stroke-linejoin="round"><path d="M240.17589,167.17805c0.13052,-0.07322 2.86039,-0.86901 5.21524,0.61494c2.8955,1.87029 1.61847,5.78473 1.61647,5.7832c-0.0278,-0.02137 0.07822,-1.67857 -0.46511,-2.65273c-0.7045,-1.26318 -1.112,-1.99606 -2.18016,-2.6792c-1.35524,-0.86674 -3.92842,-0.43761 -4.02991,-0.41954"/><path d=""/></g><path d="M239.02322,169.71186c-0.01817,-0.03392 -0.60688,-0.37701 -1.21375,-0.39739c-1.11144,-0.03734 -1.19013,0.61788 -1.21248,0.61115c-0.01556,-0.00473 0.33745,-0.87992 0.89745,-1.38118c0.53298,-0.58588 -0.36284,-0.82741 -0.03921,-0.77782c1.8121,0.28762 2.20932,0.99256 2.1955,0.9668" data-paper-data="{&quot;index&quot;:null}" fill="#f79eb4" stroke="#f89db5" stroke-width="0" stroke-linecap="butt" stroke-linejoin="round"/><path d="M239.64199,168.73236c-0.06357,-0.11717 -0.42974,-1.05584 -1.31149,-1.63758c-0.63555,-0.4193 -0.35598,0.2771 -0.35598,0.2771c0,0 -0.71479,-1.723 1.21786,-1.01218c0.54533,0.2628 0.67358,0.3915 0.83481,0.73369c0.16123,0.34218 0.4142,1.92264 0.39044,2.00276" data-paper-data="{&quot;index&quot;:null}" fill="#f79eb4" stroke="#f89db5" stroke-width="0" stroke-linecap="butt" stroke-linejoin="round"/><g data-paper-data="{&quot;index&quot;:null}" stroke="none" stroke-width="1" stroke-linecap="round" stroke-linejoin="round"><g fill="#f79eb4"><path d="M244.00871,168.55054c0.09978,-0.12315 1.29115,-0.46112 2.15595,-0.4998c0.86479,-0.03867 1.65758,0.0545 1.71701,0.32661c0.04546,0.20814 -0.2367,1.03051 -0.50067,1.6532c-0.26399,0.62268 -0.65617,1.12959 -0.8157,1.45178"/></g><g fill="#ffd5c5"><path d="M244.57402,168.96631c0.15404,-0.10949 0.69181,-0.29513 1.16324,-0.32379c0.47142,-0.02866 1.37119,0.03994 1.40581,0.16757c0.00854,0.03148 -0.21921,0.75342 -0.42634,1.20905c-0.20712,0.45564 -0.46608,0.77351 -0.5086,0.84769"/></g></g><g data-paper-data="{&quot;index&quot;:null}" fill="#f79eb4" stroke="none" stroke-width="1" stroke-linecap="round" stroke-linejoin="round"><path d="M237.75949,168.15937c-0.00288,-0.01514 -0.10744,-0.95754 0.07149,-1.73249c0.11462,-0.49646 0.47161,-1.04552 0.52008,-1.05026c0.2366,-0.02304 0.97267,0.35788 1.56775,0.65651c0.5951,0.29862 0.85679,0.48396 1.09465,0.67955"/><path d=""/></g><path d="M236.39714,170.67787c-0.2781,-0.34429 -0.50723,-1.08087 -0.50723,-1.08087c0,0 0.35893,0.64031 0.69534,0.96079c0.3364,0.32046 0.6214,0.36246 0.6214,0.36246l-0.08483,0.33758c0,0 -0.44659,-0.23566 -0.72469,-0.57996z" data-paper-data="{&quot;index&quot;:null}" fill="#000000" stroke="none" stroke-width="0" stroke-linecap="butt" stroke-linejoin="miter"/><path d="M236.28638,171.26985c-0.31986,-0.30587 -0.84514,-1.06408 -0.84514,-1.06408c0,0 0.64171,0.64613 1.01635,0.92091c0.37465,0.2748 0.66267,0.27997 0.66267,0.27997l-0.04095,0.34566c0,0 -0.47308,-0.17659 -0.79294,-0.48246z" data-paper-data="{&quot;index&quot;:null}" fill="#000000" stroke="none" stroke-width="0" stroke-linecap="butt" stroke-linejoin="miter"/><path d="M238.68036,170.67544c-0.13871,0.03324 -1.18404,0.17775 -1.49989,0.35587c-0.93609,0.53509 -1.22147,0.91155 -1.1989,0.94786c0.00103,0.00168 0.36336,-0.76298 0.62249,-1.31571c0.04228,-0.14499 0.70362,-0.74164 0.98679,-0.77819c0.98572,-0.12718 1.50491,-0.07782 1.45591,-0.0661" data-paper-data="{&quot;index&quot;:null}" fill="#f79eb4" stroke="#f89db5" stroke-width="0" stroke-linecap="butt" stroke-linejoin="round"/><g data-paper-data="{&quot;index&quot;:null}" stroke="none" stroke-linecap="butt" stroke-linejoin="miter"><path d="M241.46092,173.70361c-0.23534,0.68112 -0.60474,1.17154 -0.82509,1.09541c-0.22035,-0.07614 -0.20823,-0.69001 0.0271,-1.37112c0.23534,-0.68112 0.60475,-1.17154 0.8251,-1.09541c0.22035,0.07614 0.20823,0.69001 -0.02711,1.37113z" fill="#169c5b" stroke-width="NaN"/><path d="M241.17853,173.77661c-0.0983,0.28448 -0.25646,0.488 -0.35329,0.45453c-0.09683,-0.03345 -0.09564,-0.29121 0.00267,-0.5757c0.0983,-0.28448 0.25646,-0.488 0.35329,-0.45453c0.09683,0.03345 0.09564,0.29121 -0.00267,0.5757z" fill="#000000" stroke-width="0"/><path d="M241.32951,173.10471c-0.09945,0.28784 -0.2748,0.48843 -0.39165,0.44805c-0.11686,-0.04038 -0.13097,-0.30642 -0.03152,-0.59426c0.09945,-0.28784 0.2748,-0.48843 0.39165,-0.44806c0.11686,0.04038 0.13097,0.30643 0.03152,0.59426z" fill="#ffffff" stroke-width="0"/></g><g data-paper-data="{&quot;index&quot;:null}" stroke="none" stroke-linecap="butt" stroke-linejoin="miter"><path d="M238.12135,172.83195c-0.16601,0.48041 -0.42654,0.82634 -0.58196,0.77263c-0.15543,-0.05372 -0.14686,-0.48669 0.01912,-0.96711c0.16601,-0.48041 0.42655,-0.82634 0.58197,-0.77262c0.15543,0.05372 0.14686,0.48668 -0.01912,0.9671z" fill="#169c5b" stroke-width="NaN"/><path d="M237.92218,172.88344c-0.06932,0.20067 -0.18089,0.3442 -0.2492,0.3206c-0.0683,-0.02359 -0.06745,-0.20539 0.00187,-0.40605c0.06932,-0.20067 0.18089,-0.3442 0.24919,-0.32059c0.0683,0.02359 0.06745,0.20538 -0.00188,0.40603z" fill="#000000" stroke-width="0"/><path d="M238.0287,172.40953c-0.07016,0.20302 -0.19381,0.34449 -0.27624,0.31602c-0.08243,-0.02848 -0.09238,-0.21613 -0.02225,-0.41915c0.07016,-0.20302 0.19382,-0.34451 0.27625,-0.31604c0.08243,0.02848 0.09236,0.21615 0.02223,0.41916z" fill="#ffffff" stroke-width="0"/></g><path d="M243.56448,172.68373c-0.56024,-0.23494 -2.68732,0.0285 -2.68732,0.0285c0,0 1.85749,-1.60041 2.98309,-1.17907c1.1256,0.42134 0.37317,2.23155 0.37317,2.23155c0,0 -0.1087,-0.84604 -0.66894,-1.08098z" data-paper-data="{&quot;index&quot;:null}" fill="#e569c4" stroke="none" stroke-width="0" stroke-linecap="butt" stroke-linejoin="miter"/><path d="M242.22802,176.66362c0,0 -0.36228,0.00881 -0.55341,-0.04801c-0.19112,-0.05683 -0.72297,-0.27278 -0.72297,-0.27278" data-paper-data="{&quot;index&quot;:null}" fill="none" stroke="#000000" stroke-width="0.125" stroke-linecap="round" stroke-linejoin="miter"/><path d="M244.18637,173.86314l-0.04713,-0.35775c0,0 0.44596,0.20325 0.91058,0.20231c0.46461,-0.00094 1.17334,-0.20149 1.17334,-0.20149c0,0 -0.67319,0.37664 -1.1119,0.435c-0.43871,0.05836 -0.9249,-0.07807 -0.9249,-0.07807z" data-paper-data="{&quot;index&quot;:null}" fill="#000000" stroke="none" stroke-width="0" stroke-linecap="butt" stroke-linejoin="miter"/><path d="M245.01428,174.56532c-0.42237,-0.13221 -1.0243,-0.55186 -1.0243,-0.55186l0.09436,-0.33685c0,0 0.45803,0.5436 0.87965,0.73878c0.42162,0.19519 1.38562,0.28499 1.38562,0.28499c0,0 -0.91297,-0.00285 -1.33533,-0.13506z" data-paper-data="{&quot;index&quot;:null}" fill="#000000" stroke="none" stroke-width="0" stroke-linecap="butt" stroke-linejoin="miter"/><path d="M246.76388,172.99374c0,0 0.33537,0.00277 0.41121,0.15688c0.07583,0.15411 -0.00506,0.5886 -0.07845,0.63524c-0.06628,0.04212 -0.40821,-0.06176 -0.40821,-0.06176z" data-paper-data="{&quot;index&quot;:null}" fill="#f7bf74" stroke="none" stroke-width="0" stroke-linecap="butt" stroke-linejoin="miter"/><path d="M244.33956,176.14882c0.31405,0.04129 1.16942,0.13876 1.43255,-0.3044c0.32452,-0.5466 0.54777,-0.59332 0.68573,-0.51587c0.1825,0.10246 0.009,0.29986 -0.30854,0.59331c-0.37401,0.3456 -1.19481,0.69269 -2.17778,0.53702c-0.27548,-0.04362 -0.63736,-0.2494 -0.62754,-0.32405c0.01279,-0.0973 0.44561,-0.0583 0.99558,0.014z" data-paper-data="{&quot;index&quot;:null}" fill="#212121" stroke="none" stroke-width="0" stroke-linecap="butt" stroke-linejoin="miter"/><path d="M244.81492,176.44508l0.03022,-0.22981l0.09192,0.01208l-0.03022,0.22981z" data-paper-data="{&quot;index&quot;:null}" fill="#b3916f" stroke="none" stroke-width="0" stroke-linecap="butt" stroke-linejoin="miter"/><path d="M246.16036,175.69466c0.07227,-0.08261 0.19773,-0.19999 0.19773,-0.19999c0,0 0.06635,0.19752 -0.02395,0.30075c-0.0903,0.10323 -0.36827,0.19316 -0.36827,0.19316c0,0 0.12223,-0.21131 0.19449,-0.29392z" data-paper-data="{&quot;index&quot;:null}" fill="#cc7889" stroke="none" stroke-width="0" stroke-linecap="butt" stroke-linejoin="miter"/><g data-paper-data="{&quot;index&quot;:null}" stroke="none" stroke-width="0" stroke-linecap="butt" stroke-linejoin="miter"><g data-paper-data="{&quot;index&quot;:null}"><path d="M251.32935,170.38072c0,0 -0.2576,0.3803 -1.19594,1.02928c-1.8708,1.29387 -2.93154,0.66576 -2.93154,0.66576c0,0 0.03854,-0.89452 1.01806,-1.42394c1.0037,-0.54249 3.10942,-0.27111 3.10942,-0.27111z" data-paper-data="{&quot;index&quot;:null}" fill="#ce204f"/><path d="M249.31781,170.43434c-1.13922,0.06201 -2.10104,1.5803 -2.10104,1.5803c0,0 -0.47443,-1.84205 1.79377,-2.0128c1.13769,-0.08565 2.35028,0.39222 2.35028,0.39222c0,0 -0.90379,-0.02172 -2.04302,0.04028z" fill="#ff4488"/></g><g data-paper-data="{&quot;index&quot;:null}"><path d="M247.20345,172.20453c0,0 1.06182,-0.02972 1.65637,0.24084c1.17688,0.5356 1.64116,2.13319 1.64116,2.13319c0,0 -1.28705,-0.37787 -2.10379,-0.64209c-1.11456,-0.36058 -1.19372,-1.73197 -1.19372,-1.73197z" fill="#f5e4ec"/><path d="M248.8337,172.58075c0.98076,0.44633 1.36765,1.77765 1.36765,1.77765c0,0 -1.07256,-0.31487 -1.75318,-0.53506c-0.92882,-0.3005 -0.99477,-1.44331 -0.99477,-1.44331c0,0 0.88484,-0.02477 1.38029,0.20071z" fill="#e2c1c1"/></g></g><g data-paper-data="{&quot;index&quot;:null}" stroke-width="0" stroke-linecap="butt" stroke-linejoin="miter"><path d="M253.67209,153.18397c0,0 3.84542,2.65461 0.92832,6.98134c-1.12011,1.66139 -2.37119,2.40833 -4.18835,2.87401c-1.91739,0.49136 -3.44488,-2.00398 -3.44488,-2.00398l4.67086,-7.79104z" fill="#ffff00" stroke="none"/><path d="M252.16976,153.20823l0.52914,-0.02564c0,0 0.72413,0.63461 0.91549,0.97653c0.41041,0.73329 0.58789,1.05578 0.1872,0.91279c-0.19923,-0.07108 -0.3659,-0.61249 -0.65877,-0.96783c-0.43763,-0.53101 -0.97305,-0.89585 -0.97305,-0.89585z" fill="#a58c48" stroke="#000000"/><path d="M254.11723,157.60089c0.15879,0.10101 0.24484,0.92229 -0.50699,2.0295c-0.50375,0.74188 -1.55445,1.85912 -1.91845,1.5593c-0.33239,-0.27378 1.05272,-1.0947 1.53403,-1.85134c0.48131,-0.75663 0.73262,-1.83848 0.89141,-1.73747z" fill="#a58c48" stroke="#000000"/><path d="M247.52077,161.43494c0,0 0.3725,0.20006 0.84356,0.29853c0.43602,0.09114 0.87961,-0.08272 0.91227,0.15316c0.01149,0.08302 -0.1944,0.37446 -0.58639,0.2989c-0.43661,-0.08417 -0.9726,-0.38779 -0.9726,-0.38779z" fill="#a58c48" stroke="#000000"/><path d="M248.4608,156.52109c-1.31298,2.19096 -4.01854,2.85848 -4.01854,2.85848l-0.54102,-0.24711c0,0 3.25825,-0.55109 4.52015,-3.81925c0.79294,-2.0536 0.1033,-4.12132 0.1033,-4.12132c0,0 -0.2154,-0.19623 0.28741,0.12442c0.5028,0.32065 0.29404,0.24961 0.29404,0.24961c0,0 1.19701,1.88088 -0.64534,4.95518z" fill="#edeee6" stroke="none"/><path d="M247.23679,161.37903l-0.25562,-0.3043c0,0 3.70247,-0.35694 4.86653,-3.61014c0.73146,-2.04423 -0.20339,-4.21782 -0.20339,-4.21782l0.34059,-0.00386c0,0 1.82996,2.37912 0.11105,5.52405c-1.35635,2.48158 -4.85916,2.61207 -4.85916,2.61207z" fill="#edeee6" stroke="none"/><path d="M251.71571,158.59105c-1.31888,2.20026 -4.66559,2.54981 -4.66559,2.54981l-2.81062,-1.79319c0,0 3.26336,-0.55915 4.5332,-3.8398c0.79794,-2.06148 0.11149,-4.13419 0.11149,-4.13419c0,0 0.84624,0.39704 1.34905,0.7177c0.5028,0.32066 1.22819,0.92591 1.22819,0.92591c0,0 2.10488,2.48644 0.25426,5.57378z" fill="#754c86" stroke="none"/><path d="M244.65165,156.08537c0.71899,-1.13029 2.20644,-7.31551 2.20644,-7.31551c0,0 4.09819,3.2745 0.7794,8.07447c-1.74035,2.51708 -3.84716,2.74106 -5.20162,2.43708c-0.86576,-0.19429 -1.37608,-0.79673 -1.37608,-0.79673c0,0 2.87286,-1.26902 3.59186,-2.3993z" fill="#ffff00" stroke="none"/><path d="M247.25685,155.87408c0.48193,-0.75764 0.85792,-1.85378 0.95134,-1.79436c0.09341,0.05941 0.07484,1.0028 -0.56694,2.08641c-0.35543,0.60012 -1.26726,1.6083 -1.66782,1.57616c-0.27074,-0.02172 0.90909,-1.27972 1.28344,-1.86821z" fill="#a58c48" stroke="#000000"/><path d="M248.20752,150.42065l0.29989,0.49961c0,0 0.29542,1.58474 0.00484,1.26225c-0.18648,-0.20696 -0.30473,-1.76185 -0.30473,-1.76185z" fill="#a58c48" stroke="#000000"/><path d="M244.60222,158.62804c0.31761,0.20204 -1.21245,0.73511 -1.21245,0.73511l-0.82615,-0.11845c0,0 1.72101,-0.8187 2.03862,-0.61667z" fill="#a58c48" stroke="#000000"/><path d="M241.06887,151.42134c1.44473,-2.33475 4.3344,-3.54488 5.79162,-2.61792c1.45723,0.92697 1.30078,4.08336 -0.14029,6.42037c-1.50437,2.43962 -4.16612,4.23962 -5.62335,3.31264c-2.03231,-1.29277 -1.74736,-4.38462 -0.04935,-7.12868z" fill="#ffff00" stroke="#000000"/><path d="M244.77069,148.93964c0.87808,0.55855 0.52533,2.68487 -0.78785,4.74926c-1.31318,2.0644 -3.08956,3.28514 -3.96764,2.7266c-0.87808,-0.55855 -0.52533,-2.68488 0.78785,-4.74928c1.31318,-2.0644 3.08957,-3.28513 3.96763,-2.72659z" fill="#ffff00" stroke="#000000"/><path d="M243.0657,161.08459c0,0 0.36222,0.48792 0.6862,0.735c0.32399,0.24709 0.92139,0.49099 0.92139,0.49099l-2.77256,3.29091l-4.45874,5.42863c0,0 -0.6113,-0.04773 -0.8015,-0.18201c-0.19018,-0.13429 -0.19799,-0.68519 -0.19799,-0.68519l4.15656,-5.71448z" fill="#fbdd00" stroke="none"/><path d="M244.42382,159.19893l2.45955,1.23139c0,0 -1.61477,1.95422 -1.96014,1.94875c-0.58493,-0.00923 -1.90291,-1.12442 -1.93426,-1.53882c-0.00826,-0.10917 1.07965,-1.58155 1.07965,-1.58155z" fill="#c8c8c6" stroke="none"/><path d="M253.81972,153.32535c0,0 3.48496,2.22152 1.37875,6.72144c-1.4211,3.03619 -5.18874,2.97573 -5.18874,2.97573c0,0 1.51741,-0.23665 2.73175,-1.00016c0.98282,-0.61796 1.78868,-1.70498 2.25222,-2.75376c0.3118,-0.7055 0.62483,-1.4627 0.65679,-2.06251c0.13175,-2.47271 -1.83079,-3.88072 -1.83079,-3.88072z" fill="#ffff00" stroke="#000000"/><path d="M238.16027,167.79314c0,0 0.35513,0.15759 0.67911,0.40468c0.32399,0.24709 0.5278,0.51215 0.5278,0.51215l-1.92522,2.32021c0,0 -0.6113,-0.04774 -0.8015,-0.18202c-0.19018,-0.13429 -0.19799,-0.68519 -0.19799,-0.68519z" fill="#a56402" stroke="none"/></g><g stroke="none" stroke-linecap="butt" stroke-linejoin="miter"><path d="M241.09572,170.47498l-2.45982,0.71295c0,0 -0.37432,-0.06274 -0.76193,-0.50186c-0.25174,-0.28516 -0.3672,-0.90288 -0.3672,-0.90288c0,0 -0.24853,0.69863 -0.78829,0.43203c-0.34656,-0.17117 -0.35244,-1.32822 -0.25662,-1.73206c0.05641,-0.23774 0.29702,-0.61842 0.59546,-0.80375c0.18825,-0.11691 0.49355,-0.09886 0.49355,-0.09886c0,0 0.01274,-0.39256 0.43095,-0.41555c0.12813,-0.00705 0.30132,-0.05281 0.30132,-0.05281c0,0 0.09697,-0.27753 0.2024,-0.39499c0.10544,-0.11746 0.35422,-0.19521 0.35422,-0.19521l0.41088,0.15058c0,0 0.39047,-0.40738 0.50102,-0.44162c0.43361,-0.13429 0.75316,0.25464 0.92602,0.46227c0.31649,0.38015 0.88626,1.31757 0.87194,1.45824c-0.08992,0.88294 -0.45393,2.3235 -0.45393,2.3235z" data-paper-data="{&quot;index&quot;:null}" fill="#ffffff" stroke-width="0"/><path d="M241.62955,177.28888c0.01129,0.39144 -0.17759,0.50132 -0.39108,0.52641c-0.31778,0.03736 -0.50799,-0.11651 -0.55729,-0.42612c-0.19672,-1.23563 -0.39131,-2.31239 -0.5793,-3.15432c-0.11461,-0.51327 -0.63475,-2.50006 -0.63475,-2.50006c0,0 0.1089,-0.02186 0.37913,-0.20154c0.27023,-0.17968 0.8061,-0.08828 0.8061,-0.08828c0,0 0.21571,1.14151 0.49981,2.41378c0.19871,0.88988 0.4433,2.248 0.47739,3.43013z" data-paper-data="{&quot;index&quot;:null}" fill="#fff9fb" stroke-width="0"/><path d="M238.16657,168.16329l0.46038,0.22503l-0.22503,0.46038l-0.46038,-0.22503z" data-paper-data="{&quot;index&quot;:null}" fill="#baba3e" stroke-width="NaN"/><path d="M239.06162,167.75744l0.46038,0.22503l-0.22503,0.46038l-0.46038,-0.22503z" data-paper-data="{&quot;index&quot;:null}" fill="#baba3e" stroke-width="NaN"/><path d="M240.04475,167.32136l0.46038,0.22503l-0.22503,0.46038l-0.46038,-0.22503z" data-paper-data="{&quot;index&quot;:null}" fill="#baba3e" stroke-width="NaN"/><path d="M241.38914,166.97613l-0.22333,0.56509l-0.28887,-0.24922l-0.08369,-0.36168z" data-paper-data="{&quot;index&quot;:null}" fill="#baba3e" stroke-width="0"/><g stroke-width="0"><path d="M239.63098,170.02626c0.81748,-0.2807 1.52386,-0.381 1.86959,0.62588c0.34573,1.00689 -0.27327,1.36167 -1.09076,1.64237c-0.81748,0.2807 -1.53992,0.38651 -1.86959,-0.62588c-0.32959,-1.01217 0.27327,-1.36167 1.09076,-1.64237z" data-paper-data="{&quot;index&quot;:null}" fill="#fed000"/><path d="M239.70265,170.23488c1.06512,-0.36572 1.9642,-0.55836 2.24633,0.2633c0.28213,0.82166 -0.54566,1.22197 -1.61077,1.58769c-1.06512,0.36572 -1.98513,0.56554 -2.24633,-0.2633c-0.26114,-0.82864 0.54566,-1.22197 1.61077,-1.58769z" data-paper-data="{&quot;index&quot;:null}" fill="#e68b9c"/></g></g></g></g></svg>