<svg version="1.1" xmlns="http://www.w3.org/2000/svg" xmlns:xlink="http://www.w3.org/1999/xlink" width="21.52617" height="40.63809" viewBox="0,0,21.52617,40.63809"><g transform="translate(-228.12545,-158.98468)"><g data-paper-data="{&quot;isPaintingLayer&quot;:true}" fill-rule="nonzero" stroke-linejoin="miter" stroke-miterlimit="10" stroke-dasharray="" stroke-dashoffset="0" style="mix-blend-mode: normal"><g data-paper-data="{&quot;index&quot;:null}"><g data-paper-data="{&quot;index&quot;:null}" stroke="none" stroke-width="0" stroke-linecap="butt"><path d="M239.63261,194.60262c-0.02369,-0.5688 0.13107,-1.04965 0.35466,-1.5082c0.19474,-0.39936 0.44167,-0.78184 0.66842,-1.1908c0.48711,-0.87853 0.89773,0.62757 0.89773,0.62757c0,0 0.72146,2.14002 0.62723,3.32775c0.0439,1.0238 -0.12575,4.40695 -1.15601,3.65607c-1.4103,-1.02785 -1.39203,-4.91239 -1.39203,-4.91239z" data-paper-data="{&quot;index&quot;:null}" fill="#54c81c"/><path d="M241.75989,189.48335c0,0 -0.17188,3.40857 -0.14107,4.67319c0.02085,0.85549 0.10936,2.22221 0.10936,2.22221c-0.04692,0.35707 -0.6762,1.415 -1.04592,0.6961c-0.29065,-0.56516 -0.34496,-2.91447 -0.34496,-2.91447c0,0 0.12801,-4.17152 0.03709,-4.8131c-0.22424,-2.03225 0.0457,-5.6444 0.0457,-5.6444l1.45853,0.16053l-0.11874,5.61993z" data-paper-data="{&quot;index&quot;:null}" fill="#ffffff"/></g><path d="M240.04848,195.95259l0.42857,-0.35715" fill="none" stroke="#000000" stroke-width="0.5" stroke-linecap="round"/><path d="M240.69134,196.59546l-0.35714,0.35715" fill="none" stroke="#000000" stroke-width="0.5" stroke-linecap="round"/></g><g data-paper-data="{&quot;index&quot;:null}"><g><path d="M238.26476,168.47842c3.50105,-1.39929 4.90644,1.54284 5.04374,1.77267c0.2926,0.55887 0.43316,1.19143 0.46665,1.81851c0.06387,1.04598 -0.20558,2.13987 -0.88137,2.957c-0.36487,0.34008 -0.30385,0.30473 -0.64792,0.6577c-0.45501,0.64287 -1.3038,1.07475 -2.00572,1.34013c-0.55804,0.24543 -1.15169,0.39782 -1.75761,0.46698c-0.39337,0.0306 -0.80657,0.13196 -1.19155,0.00322c-0.35669,-0.12565 -0.70003,-0.35784 -0.85039,-0.71775c-0.4137,-0.85452 -0.83597,-1.70661 -1.17099,-2.59535c-0.07902,-0.24846 -0.20387,-0.50537 -0.17323,-0.77206c0.09646,-0.24743 -1.0551,-3.24303 3.16839,-4.93106z" data-paper-data="{&quot;index&quot;:null}" fill="#f0e9bb" stroke="none" stroke-width="0.17188" stroke-linecap="butt"/><path d="M241.36395,166.26702c0.81355,-0.45409 1.48517,-0.55922 1.95151,-0.43426c0.06638,0.01761 0.05276,0.06799 0.13895,0.1047c0.10433,0.0445 0.35447,0.07749 0.30459,0.06478c0,0 -0.01726,0.17803 0.01678,0.24579c0.04334,0.0861 0.19642,0.14659 0.10269,0.15778c0,0 0.10748,0.10954 0.11428,0.16164c0.07449,0.56898 -0.08925,1.40396 -0.51419,1.96499c0.47574,0.33929 -2.47659,-1.66371 -2.11456,-2.26541z" data-paper-data="{&quot;index&quot;:null}" fill="#ed3e67" stroke="none" stroke-width="0.17188" stroke-linecap="butt"/><path d="M235.20205,173.22849l0.72239,2.28054l0.91102,1.712l0.74356,1.17321c0.08761,0.13783 -1.9465,-0.42428 -2.43432,-0.71349c-0.60368,-0.35777 -1.08115,-0.81989 -1.55648,-1.28385c-0.34657,-0.338 -0.42738,-0.5002 -0.60245,-0.77549l-0.54333,-0.85478c-0.10326,-0.1624 -0.53579,-1.02421 -0.42257,-1.24478c0.03215,-0.06258 0.82405,0.14592 0.89425,0.11675l0.51183,-0.21436c0.15191,-0.06345 0.48356,-0.56772 0.57475,-0.72677c0.0667,-0.11611 0.37052,-0.93067 0.19855,-1.54459l-0.17016,-0.60728c-0.02547,-0.09095 -0.60235,-0.92527 -0.57363,-0.95537c0.05904,-0.06225 -1.13021,-0.72651 -1.07031,-0.79535c0.33304,-0.38371 0.73115,-0.86392 1.25293,-1.20982c0.82027,-0.5438 1.8126,-0.89511 2.31804,-1.08321c0.0862,-0.03207 1.19253,-0.419 1.93105,-0.45167c1.16944,-0.05181 2.00814,0.38657 2.06231,0.40749c0.85063,0.32813 1.57648,0.81275 2.19425,1.43291l0.4231,0.56306c0.21659,0.28819 1.15125,1.71981 1.6191,2.94563c0.98459,2.57975 0.21483,4.85142 -0.02814,4.82761c-0.34034,-0.03306 -1.35636,-1.34716 -1.40032,-1.17349c-0.09756,0.38475 0.89889,-1.23882 0.9303,-2.20107c0.03141,-0.96226 -0.80237,-2.8595 -0.87372,-3.01199c-0.05625,-0.1206 -0.17074,-0.1922 -0.28271,-0.11197c-0.07456,0.05334 -0.96274,0.60004 -1.23212,0.97016c-0.26938,0.37013 -0.62685,1.71767 -0.67932,1.66261c-0.01948,-0.02054 -0.45323,-0.12941 -0.45559,-0.17062c-0.01396,-0.2493 -0.36792,0.47567 -0.40786,0.58241c-0.10506,0.2807 -1.09858,-0.81126 -2.06787,-0.8583c-0.96929,-0.04705 -1.84738,0.31625 -1.96339,0.55425c-0.0462,0.0948 -0.21663,0.3079 -0.30453,0.41741c-0.11702,0.14558 -0.20082,0.23738 -0.21857,0.34221z" data-paper-data="{&quot;index&quot;:null}" fill="#54c81c" stroke="none" stroke-width="0.17188" stroke-linecap="butt"/><path d="M230.85996,173.22297c-0.63912,0.02564 -1.36389,-0.29278 -1.768,-0.6516c-0.03707,-0.03281 -0.06979,-0.17283 -0.06979,-0.17283c-0.05397,0.06544 -0.02659,-0.08338 -0.07228,-0.16199c-0.03589,-0.06179 -0.18203,-0.14318 -0.18203,-0.14318c-0.01425,0.04479 0.08106,-0.16314 0.0972,-0.26614c0.01319,-0.0852 -0.03241,-0.10154 -0.01402,-0.16164c0.1288,-0.4211 0.53456,-0.8765 1.27866,-1.255c0.97363,-0.49503 2.15133,-0.09636 2.29224,0.26743c0,0 -0.47055,2.50098 -1.56196,2.54493z" data-paper-data="{&quot;index&quot;:null}" fill="#ed3e67" stroke="none" stroke-width="0.17188" stroke-linecap="butt"/><path d="M233.41488,171.04014c0.10116,-0.15062 0.2268,1.39071 -0.05519,1.72183c-0.48501,0.56938 -0.32172,0.78705 -0.90769,0.83039c-0.13153,0.00993 -0.44503,-0.10735 -0.83372,-0.11597c-0.45024,-0.00978 -0.88022,-0.09926 -0.77734,-0.21568l0.5984,-0.75349l0.65337,-1.72009c0.01015,-0.02676 -0.30052,-0.13326 -0.76473,-0.24964c-0.3255,-0.08168 -0.79091,-0.1479 -1.13344,-0.14752c-0.20184,0.0003 0.07084,-0.3393 0.51565,-0.67602c0.21561,-0.16326 0.43763,-0.35466 0.73131,-0.44976c0.50865,-0.16455 1.09355,0.26486 1.45066,0.79151c0.33449,0.49316 0.45525,1.08447 0.52269,0.98442z" data-paper-data="{&quot;index&quot;:null}" fill="#54c81c" stroke="none" stroke-width="0.17188" stroke-linecap="butt"/><path d="M234.12013,170.72796c0.46368,1.12324 -0.26767,2.55926 -0.63968,2.67384l-0.5288,0.32492l-0.99182,-0.16902c-0.25396,-0.04337 1.14982,-0.36298 1.33561,-0.84311c0.12132,-0.31323 0.2062,-0.55176 0.20035,-0.65491c-0.05718,-0.98307 -0.36456,-1.68605 -0.71827,-2.08469c-0.55579,-0.62639 -1.19275,-0.64953 -0.90291,-0.95617c0.69098,-0.73142 1.7387,0.48161 2.24551,1.70912z" data-paper-data="{&quot;index&quot;:null}" fill="#ead32e" stroke="none" stroke-width="0.17188" stroke-linecap="butt"/><path d="M241.33583,167.23272c0,0 -0.38826,-0.225 -0.6707,-0.40508c-0.5892,-0.37565 -1.29299,-0.46624 -1.23848,-0.6566c0.06986,-0.09551 0.59548,-0.15507 0.7732,-0.08307l0.36096,0.14605c0.63474,0.25699 1.06494,0.82113 1.1582,1.08426c0.04036,0.11381 0.23897,0.27316 0.24695,0.4141c0,0 -0.45653,-0.27183 -0.63012,-0.49967z" data-paper-data="{&quot;index&quot;:null}" fill="#ead32e" stroke="none" stroke-width="0.17188" stroke-linecap="butt"/><path d="M240.50776,166.12634c0,0 0.99286,-0.4202 1.2807,-0.21204c0.19128,0.13815 0.20004,0.64703 0.39367,0.73317c0.2404,0.10697 0.66571,0.4364 0.92569,0.69922c0.15324,0.273 0.36419,0.50951 0.36525,0.87987c0.16052,0.26493 -0.34465,1.06205 -0.40652,0.97873l-0.84117,-1.13234c-0.21341,-0.28733 -0.66754,-0.86141 -0.77467,-0.97205z" data-paper-data="{&quot;index&quot;:null}" fill="#54c81c" stroke="none" stroke-width="0.17188" stroke-linecap="butt"/><path d="M235.7355,173.18321c0.16357,-0.72795 1.12452,-1.12765 1.72103,-0.96134c0.59651,0.16631 0.94749,0.89125 0.78392,1.6192c-0.16357,0.72794 -0.77972,1.18322 -1.37623,1.01691c-0.59651,-0.16631 -1.29229,-0.94684 -1.12872,-1.67479z" fill="#000000" stroke="none" stroke-width="0" stroke-linecap="butt"/><path d="M243.01906,170.41328c0.61123,0.42785 0.71355,1.47899 0.38471,2.00372c-0.32884,0.52473 -1.09094,0.60328 -1.70217,0.17543c-0.61123,-0.42784 -0.84014,-1.20006 -0.5113,-1.72479c0.32885,-0.52473 1.21754,-0.8822 1.82877,-0.45435z" data-paper-data="{&quot;index&quot;:null}" fill="#000000" stroke="none" stroke-width="0" stroke-linecap="butt"/><path d="M238.49963,176.34451l0.58482,0.18913" fill="none" stroke="#000000" stroke-width="0.25" stroke-linecap="round"/><path d="M239.65142,176.53517l0.58358,-0.15455" fill="none" stroke="#000000" stroke-width="0.25" stroke-linecap="round"/><path d="M240.81858,176.22609l0.55951,-0.21671" fill="none" stroke="#000000" stroke-width="0.25" stroke-linecap="round"/><path d="M242.27642,175.37546l-0.44917,0.31696" fill="none" stroke="#000000" stroke-width="0.25" stroke-linecap="round"/><path d="M242.52903,174.92013l0.21452,-0.36907" fill="none" stroke="#000000" stroke-width="0.25" stroke-linecap="round"/><path d="M238.2874,175.46722l-0.13097,0.51867l-0.43811,-0.02018" fill="none" stroke="#000000" stroke-width="0.25" stroke-linecap="round"/><path d="M243.18052,173.94757l-0.37235,0.23173l-0.36777,-0.38848" data-paper-data="{&quot;index&quot;:null}" fill="none" stroke="#000000" stroke-width="0.25" stroke-linecap="round"/><path d="M236.31589,173.24183l1.39462,0.633" fill="none" stroke="#ffffff" stroke-width="0.25" stroke-linecap="round"/><path d="M236.76771,174.32151l0.42253,-1.52379" fill="none" stroke="#ffffff" stroke-width="0.25" stroke-linecap="round"/><path d="M235.83549,173.22562c-0.00781,-0.2079 0.1544,-0.38278 0.3623,-0.39059c0.2079,-0.00781 0.38278,0.1544 0.39059,0.3623c0.00781,0.2079 -0.1544,0.38278 -0.3623,0.39059c-0.2079,0.00781 -0.38278,-0.1544 -0.39059,-0.3623z" fill="#ffffff" stroke="none" stroke-width="0" stroke-linecap="butt"/><path d="M237.43544,173.85089c-0.00781,-0.2079 0.15441,-0.38278 0.3623,-0.39059c0.2079,-0.00781 0.38278,0.1544 0.39059,0.3623c0.00781,0.2079 -0.1544,0.38278 -0.3623,0.39059c-0.2079,0.00781 -0.38278,-0.15441 -0.39059,-0.3623z" fill="#ffffff" stroke="none" stroke-width="0" stroke-linecap="butt"/><path d="M236.84158,172.63948c-0.00781,-0.2079 0.15441,-0.38278 0.36231,-0.39059c0.2079,-0.00781 0.38278,0.1544 0.39059,0.3623c0.00781,0.2079 -0.1544,0.38278 -0.3623,0.39059c-0.2079,0.00781 -0.38279,-0.15441 -0.3906,-0.3623z" fill="#ffffff" stroke="none" stroke-width="0" stroke-linecap="butt"/><path d="M236.42678,174.36861c-0.00781,-0.2079 0.15441,-0.38278 0.3623,-0.39059c0.2079,-0.00781 0.38278,0.1544 0.39059,0.3623c0.00781,0.2079 -0.1544,0.38278 -0.3623,0.39059c-0.2079,0.00781 -0.38278,-0.15441 -0.39059,-0.3623z" fill="#ffffff" stroke="none" stroke-width="0" stroke-linecap="butt"/><path d="M243.01482,171.89298l-1.39462,-0.633" fill="none" stroke="#ffffff" stroke-width="0.25" stroke-linecap="round"/><path d="M242.07202,172.33966l0.42253,-1.52379" fill="none" stroke="#ffffff" stroke-width="0.25" stroke-linecap="round"/><path d="M241.1398,171.24372c-0.00781,-0.2079 0.1544,-0.38278 0.3623,-0.39059c0.2079,-0.00781 0.38278,0.1544 0.39059,0.3623c0.00781,0.2079 -0.1544,0.38278 -0.3623,0.39059c-0.2079,0.00781 -0.38278,-0.1544 -0.39059,-0.3623z" fill="#ffffff" stroke="none" stroke-width="0" stroke-linecap="butt"/><path d="M242.73975,171.86904c-0.00781,-0.2079 0.15441,-0.38278 0.3623,-0.39059c0.2079,-0.00781 0.38278,0.1544 0.39059,0.3623c0.00781,0.2079 -0.1544,0.38278 -0.3623,0.39059c-0.2079,0.00781 -0.38278,-0.15441 -0.39059,-0.3623z" fill="#ffffff" stroke="none" stroke-width="0" stroke-linecap="butt"/><path d="M242.14589,170.65758c-0.00781,-0.2079 0.15441,-0.38278 0.36231,-0.39059c0.2079,-0.00781 0.38278,0.1544 0.39059,0.3623c0.00781,0.2079 -0.1544,0.38278 -0.3623,0.39059c-0.2079,0.00781 -0.38279,-0.15441 -0.3906,-0.3623z" fill="#ffffff" stroke="none" stroke-width="0" stroke-linecap="butt"/><path d="M241.73109,172.38671c-0.00781,-0.2079 0.15441,-0.38278 0.3623,-0.39059c0.2079,-0.00781 0.38278,0.1544 0.39059,0.3623c0.00781,0.2079 -0.1544,0.38278 -0.3623,0.39059c-0.2079,0.00781 -0.38278,-0.15441 -0.39059,-0.3623z" fill="#ffffff" stroke="none" stroke-width="0" stroke-linecap="butt"/></g><g><path d="M236.67563,167.86035c0,0 -0.48699,-2.06984 -0.35049,-3.39469c0.1365,-1.32485 1.42442,-2.52615 1.42442,-2.52615l0.43697,0.61209c0,0 -0.99664,0.7149 -1.12271,1.97468c-0.12607,1.25978 0.25957,3.15121 0.25957,3.15121z" fill="#000000" stroke="none" stroke-width="0" stroke-linecap="butt"/><path d="M237.2409,162.55797l1.52811,-3.34027l4.54378,-0.06292l-2.62501,3.37404z" fill="#ea035a" stroke="none" stroke-width="0" stroke-linecap="butt"/><path d="M237.40899,162.5538l5.76798,-3.43334" fill="none" stroke="#000000" stroke-width="0.25" stroke-linecap="round"/><path d="M240.71359,162.51896l-1.99644,-0.81846l-0.00802,-2.59082" fill="none" stroke="#000000" stroke-width="0.25" stroke-linecap="round"/></g></g><g data-paper-data="{&quot;index&quot;:null}"><g data-paper-data="{&quot;index&quot;:null}" stroke="none" stroke-width="0" stroke-linecap="butt"><path d="M242.44673,182.37058c0,0 5.63372,0.63278 5.80901,0.56685c0.1753,-0.06594 0.37352,0.36847 0.56633,0.82812c0.19281,0.45965 0.82955,2.11729 0.82955,2.11729c0,0 -0.72546,-0.79214 -1.72579,-1.12588c-0.59203,-0.19754 -1.51188,-0.57033 -2.32137,-0.85244c-1.46859,-0.51179 -3.15773,-1.53393 -3.15773,-1.53393z" fill="#54c81c"/><path d="M243.58753,182.8869c-4.10844,-1.60015 -4.47249,-3.58359 -4.47249,-3.58359c0,0 -0.24925,-0.01443 1.15641,0.57475c0.48345,0.20264 1.70903,-0.63409 4.25336,0.13066c3.25535,0.97845 4.05972,3.19732 4.05972,3.19732c0,0 -2.03985,0.83261 -4.99699,-0.31914z" fill="#ffffff"/></g><path d="M247.10316,183.72824l-0.50092,-0.49473" fill="none" stroke="#ffffff" stroke-width="0.25" stroke-linecap="round"/><path d="M247.81872,183.23351l0.3578,0.49473" fill="none" stroke="#ffffff" stroke-width="0.25" stroke-linecap="round"/></g><g data-paper-data="{&quot;index&quot;:null}"><g data-paper-data="{&quot;index&quot;:null}" stroke="none" stroke-width="0" stroke-linecap="butt"><path d="M246.11224,190.40595c0,0 -1.1638,-1.36543 -2.09051,-2.10349c-0.9267,-0.73805 -3.65049,-2.05978 -3.65049,-2.05978l4.60496,-2.85212c0,0 1.25051,1.66625 1.64754,2.9797c0.5252,1.73743 -0.5115,4.03569 -0.5115,4.03569z" fill="#54c81c"/><path d="M245.43844,187.23146c-1.13682,1.0007 -5.73487,-0.84187 -7.11536,-2.42439c-1.47563,-1.6916 -0.7932,-5.02295 -0.7932,-5.02295l0.88573,-0.31463c0,0 0.52192,1.10372 2.54129,1.56846c2.96084,0.68142 3.45294,1.80037 4.0193,2.35262c0.57065,0.55644 1.76987,2.9249 0.58725,3.96589z" fill="#ffffff"/></g><path d="M243.47748,187.06503l0.63104,0.72346" fill="none" stroke="#ffffff" stroke-width="0.25" stroke-linecap="round"/><path d="M244.88201,186.85956l0.55712,0.72346" fill="none" stroke="#ffffff" stroke-width="0.25" stroke-linecap="round"/><path d="M246.18975,186.75512l-0.71637,-0.85446" fill="none" stroke="#ffffff" stroke-width="0.25" stroke-linecap="round"/></g><g data-paper-data="{&quot;index&quot;:null}"><g data-paper-data="{&quot;index&quot;:null}" stroke="none" stroke-width="0" stroke-linecap="butt"><path d="M228.12545,184.02202c0,0 0.59563,-3.23978 3.98098,-4.10742c0.64098,-0.16427 -1.76032,1.6369 -1.42826,2.36324c0.33202,0.72625 3.67502,1.00338 3.67502,1.00338c0,0 -3.02621,-0.01156 -3.8153,0.12175c-0.78909,0.13331 -2.41244,0.61905 -2.41244,0.61905z" fill="#54c81c"/><path d="M239.62336,180.04384c0,0 -3.61104,2.8869 -5.22365,3.14324c-1.48879,0.23666 -5.09604,-0.66243 -4.58239,-1.6789c0.51365,-1.01647 3.11372,-2.20694 5.40414,-2.12422c1.89025,0.06826 4.4019,0.65988 4.4019,0.65988z" fill="#ffffff"/></g><path d="M230.52577,182.82502l0.77026,-0.50714" fill="none" stroke="#ffffff" stroke-width="0.25" stroke-linecap="round"/><path d="M230.24567,181.73831l-0.49018,0.36224" fill="none" stroke="#ffffff" stroke-width="0.25" stroke-linecap="round"/></g><g data-paper-data="{&quot;index&quot;:null}"><g data-paper-data="{&quot;index&quot;:null}" stroke="none" stroke-width="0" stroke-linecap="butt"><path d="M237.00135,186.14263c0,0 -1.39398,1.33791 -2.72099,1.68963c-1.59733,0.42335 -4.37352,1.67153 -4.37352,1.67153c0,0 1.17586,-3.54855 1.83739,-4.93653c1.14248,-2.40487 2.4321,-2.73311 2.4321,-2.73311c0,0 -1.45775,3.16172 -0.94336,4.05504c0.50687,0.88029 3.76839,0.25343 3.76839,0.25343z" fill="#54c81c"/><path d="M234.08074,181.79356c0.13125,-0.09877 2.09713,-1.44009 3.5988,-1.33458c1.99304,0.14006 1.99869,-0.97517 2.385,-0.11843c0.3863,0.85674 0.44852,2.7101 -0.72313,3.84754c-0.97522,0.94676 -2.36968,1.97488 -2.36968,1.97488c0,0 -3.72194,1.18534 -4.31623,-0.20758c-0.63297,-1.58987 1.28831,-4.05876 1.42525,-4.16181z" fill="#ffffff"/></g><path d="M234.98261,186.48478l-0.36079,0.42486" fill="none" stroke="#ffffff" stroke-width="0.25" stroke-linecap="round"/><path d="M233.10651,186.69721l0.21647,-0.49567" fill="none" stroke="#ffffff" stroke-width="0.25" stroke-linecap="round"/><path d="M233.10652,184.64372l-0.95226,0.75397" fill="none" stroke="#ffffff" stroke-width="0.25" stroke-linecap="round"/></g><g data-paper-data="{&quot;index&quot;:null}"><path d="M237.67668,181.28868c-0.30427,-0.44307 -0.06637,-1.7509 0.28957,-2.80676c0.35593,-1.05586 0.95764,-1.25421 1.07941,-1.25421c0.15382,0 1.35868,-0.24869 2.06043,0.1482c0.70175,0.39689 0.46391,0.81182 0.64221,1.38034c0.1783,0.56851 0.3376,1.53269 0.32786,1.71279c-0.02505,0.46123 -1.45551,0.25457 -1.70209,0.53654c0,0 -2.33148,0.68137 -2.69739,0.28309z" data-paper-data="{&quot;index&quot;:null}" fill="#319a2b" stroke="none" stroke-width="0.17188" stroke-linecap="butt"/><path d="M239.04985,181.03805c0.61263,0 0.86005,-0.34217 1.03805,-0.04276c0.09193,0.15462 -0.5466,0.49821 -1.15798,0.46382c-0.68831,-0.17263 -1.50188,0.15139 -1.50188,0.15139l0.22399,-0.60534c0,0 0.78518,0.03289 1.39781,0.03289z" data-paper-data="{&quot;index&quot;:null}" fill="#ead42f" stroke="none" stroke-width="0" stroke-linecap="butt"/><path d="M242.13596,180.38424l0.34058,0.49225c0,0 -0.69825,-0.197 -1.3616,0.05504c-0.60314,0.10575 -0.80044,-0.29103 -0.19203,-0.36277c0.60841,-0.07174 1.21306,-0.18453 1.21306,-0.18453z" data-paper-data="{&quot;index&quot;:null}" fill="#ead42f" stroke="none" stroke-width="0" stroke-linecap="butt"/><path d="M239.14705,180.77497l-0.07853,0.38091" fill="none" stroke="#ffffff" stroke-width="0.25" stroke-linecap="round"/><path d="M238.21393,180.8318l-0.09109,0.32829" fill="none" stroke="#ffffff" stroke-width="0.25" stroke-linecap="round"/><path d="M241.19553,180.32134l0.03093,0.30573" fill="none" stroke="#ffffff" stroke-width="0.25" stroke-linecap="round"/><path d="M241.86557,180.27122l0.147,0.38175" fill="none" stroke="#ffffff" stroke-width="0.25" stroke-linecap="round"/></g><g data-paper-data="{&quot;index&quot;:null}" stroke="none" stroke-linecap="butt"><path d="M240.0511,177.35825c0.17022,-0.06911 0.34154,0.07628 0.48084,0.36686c0.1393,0.29058 0.24674,0.72652 0.28893,1.23856c0.04223,0.51194 0.0113,1.00389 -0.07258,1.38519c-0.08398,0.38127 -0.22099,0.65174 -0.3912,0.72085c-0.17009,0.06905 -0.34142,-0.07634 -0.48082,-0.36696c-0.1393,-0.29058 -0.24663,-0.72649 -0.28883,-1.23853c-0.04223,-0.51194 -0.01141,-1.00393 0.07258,-1.38519c0.08388,-0.3813 0.221,-0.65174 0.39108,-0.72079z" fill="#eb3d66" stroke-width="0.01872"/><path d="M240.57524,179.19404c0.01852,0.48778 -0.13593,0.88964 -0.34498,0.89758c-0.20905,0.00794 -0.39353,-0.38105 -0.41205,-0.86883c-0.01852,-0.48778 0.13593,-0.88964 0.34498,-0.89758c0.20905,-0.00794 0.39353,0.38105 0.41205,0.86883z" fill="#492116" stroke-width="0"/><path d="M239.94278,177.56192c0.07282,-0.00742 0.13081,0.06727 0.16562,0.19397c0.03489,0.12675 0.04658,0.3055 0.02688,0.50613c-0.01964,0.20068 -0.06709,0.38546 -0.12777,0.52198c-0.06074,0.13658 -0.13469,0.22486 -0.2075,0.23228c-0.07278,0.00755 -0.13075,-0.06722 -0.16563,-0.19397c-0.03489,-0.12675 -0.04658,-0.3055 -0.02692,-0.50605c0.01972,-0.20063 0.06714,-0.38554 0.12783,-0.52204c0.06074,-0.13658 0.13464,-0.22478 0.20751,-0.23227z" fill="#ffffff" stroke-width="0.01896"/></g><g data-paper-data="{&quot;index&quot;:null}"><g stroke="none" stroke-width="0" stroke-linecap="butt"><path d="M238.54483,177.84982l-0.08284,0.85519l-2.49808,-1.08205l0.26334,-0.68188z" fill="#319a2b"/><path d="M236.21714,176.75642c0.46548,0.44989 0.14454,0.9618 -0.29503,0.91302c-1.06215,-0.11785 -2.96002,-1.05215 -2.96002,-1.05215l0.06707,-1.53375c0,0 2.75288,1.25231 3.18798,1.67287z" fill="#ead42f"/><path d="M231.04917,177.46719c0.37636,-1.41791 1.05915,-2.57266 1.34446,-2.61316c0.87148,-0.12367 2.32708,1.61654 1.73308,3.29119c-0.49041,1.38261 -0.81989,2.03974 -2.04961,2.35014c-0.38892,0.09817 -1.40428,-1.61027 -1.02792,-3.02817z" fill="#f0e9bb"/></g><path d="M232.33665,175.02625c0,0 0.74102,1.36485 0.93165,2.31332c0.19063,0.94848 -0.19089,2.42332 -0.19089,2.42332" fill="none" stroke="#d3c49c" stroke-width="0.25" stroke-linecap="round"/><path d="M232.29449,175.98102l0.78377,-0.26885" fill="none" stroke="#ffffff" stroke-width="0.5" stroke-linecap="round"/><path d="M232.81671,177.15204l0.62825,-0.18335" fill="none" stroke="#ffffff" stroke-width="0.5" stroke-linecap="round"/><path d="M233.56757,178.07583l-0.63135,0.10406" fill="none" stroke="#ffffff" stroke-width="0.5" stroke-linecap="round"/><path d="M233.37607,179.2747l-0.47583,0.01856" fill="none" stroke="#ffffff" stroke-width="0.5" stroke-linecap="round"/></g><g data-paper-data="{&quot;index&quot;:null}"><g stroke="#ffffff" stroke-width="0" stroke-linecap="butt"><path d="M243.26244,176.14199l0.39014,0.61815l-2.24195,1.54431l-0.24652,-0.82307z" data-paper-data="{&quot;index&quot;:null}" fill="#319a2b"/><path d="M243.23668,175.95885c0.34565,-0.49671 2.80469,-2.25732 2.80469,-2.25732l0.36214,1.4919c0,0 -1.68161,1.28339 -2.70096,1.60423c-0.42188,0.13278 -0.83567,-0.30744 -0.46589,-0.83881z" data-paper-data="{&quot;index&quot;:null}" fill="#ead42f"/><path d="M248.54889,175.56592c0.71999,1.27818 0.16563,3.18667 -0.2355,3.1892c-1.26827,0.00797 -1.75205,-0.54551 -2.57358,-1.76091c-0.99505,-1.47211 -0.02251,-3.5218 0.85213,-3.62068c0.28637,-0.03238 1.23697,0.91422 1.95695,2.19239z" data-paper-data="{&quot;index&quot;:null}" fill="#f0e9bb"/></g><path d="M247.392,178.55621c0,0 -0.69871,-1.35372 -0.72288,-2.32086c-0.02418,-0.96714 0.39616,-2.4622 0.39616,-2.4622" data-paper-data="{&quot;index&quot;:null}" fill="none" stroke="#d3c49c" stroke-width="0.25" stroke-linecap="round"/><path d="M246.49404,174.60624l0.82385,0.08859" data-paper-data="{&quot;index&quot;:null}" fill="none" stroke="#ffffff" stroke-width="0.5" stroke-linecap="round"/><path d="M246.41473,175.91275l0.65325,0.03967" data-paper-data="{&quot;index&quot;:null}" fill="none" stroke="#ffffff" stroke-width="0.5" stroke-linecap="round"/><path d="M247.17908,176.98122l-0.63871,0.03836" data-paper-data="{&quot;index&quot;:null}" fill="none" stroke="#ffffff" stroke-width="0.5" stroke-linecap="round"/><path d="M246.99263,178.14628l0.46813,-0.08729" data-paper-data="{&quot;index&quot;:null}" fill="none" stroke="#ffffff" stroke-width="0.5" stroke-linecap="round"/></g><g data-paper-data="{&quot;index&quot;:null}"><g data-paper-data="{&quot;index&quot;:null}" stroke="none" stroke-width="0" stroke-linecap="butt"><path d="M235.63268,198.95433c-1.1755,0.49339 -0.56138,-2.83787 -0.28285,-3.82403c0.18188,-1.17751 1.37683,-3.09382 1.37683,-3.09382c0,0 0.74646,-1.37103 1.01813,-0.40393c0.12646,0.4502 0.27867,0.87925 0.37619,1.31274c0.11196,0.49774 0.1518,1.00129 -0.00226,1.54934c0,0 -0.8769,3.78431 -2.48604,4.45971z" data-paper-data="{&quot;index&quot;:null}" fill="#54c81c"/><path d="M237.22772,189.02306l1.17886,-5.49618l1.45629,0.17972c0,0 -0.56926,3.57719 -1.25555,5.50316c-0.23624,0.60339 -1.07247,4.69225 -1.07247,4.69225c0,0 -0.59395,2.27364 -1.00695,2.75666c-0.52538,0.61442 -0.89406,-0.56002 -0.85748,-0.91829c0,0 0.40091,-1.30957 0.61824,-2.13726c0.32127,-1.22354 0.93907,-4.58004 0.93907,-4.58004z" data-paper-data="{&quot;index&quot;:null}" fill="#ffffff"/></g><path d="M236.49662,196.35432l0.26528,0.42979" fill="none" stroke="#000000" stroke-width="0.5" stroke-linecap="round"/><path d="M237.13126,195.84392l-0.19578,-0.41334" fill="none" stroke="#000000" stroke-width="0.5" stroke-linecap="round"/></g></g></g></svg>