<svg version="1.1" xmlns="http://www.w3.org/2000/svg" xmlns:xlink="http://www.w3.org/1999/xlink" width="23.52857" height="49.0441" viewBox="0,0,23.52857,49.0441"><g transform="translate(-229.08814,-150.21069)"><g data-paper-data="{&quot;isPaintingLayer&quot;:true}" fill="#000000" fill-rule="nonzero" stroke="none" stroke-linecap="butt" stroke-linejoin="miter" stroke-miterlimit="10" stroke-dasharray="" stroke-dashoffset="0" style="mix-blend-mode: normal"><path d="M229.08815,180.43336c0,-6.32366 2.11124,-11.45 10.69745,-11.45c8.58621,0 12.83112,5.12634 12.83112,11.45c0,6.32366 -4.24491,11.45 -12.83112,11.45c-8.58621,0 -10.69745,-5.12634 -10.69745,-11.45z" data-paper-data="{&quot;index&quot;:null}" stroke-width="NaN"/><path d="M249.613,172.83099c0,0 -14.9296,3.25097 -14.9296,-4.00105c0,-7.25203 1.83795,-18.61925 4.50328,-18.61925c2.18041,0 6.3916,10.70202 6.89601,14.60289c0.39901,3.08586 3.53032,8.0174 3.53032,8.0174z" data-paper-data="{&quot;index&quot;:null}" stroke-width="0"/><path d="M234.51672,186.48337c1.60163,0 2.9,2.37289 2.9,5.3c0,2.92711 -1.29837,5.3 -2.9,5.3c-1.60163,0 -1.04286,-2.51575 -1.04286,-5.44286c0,-2.92711 -0.55877,-5.15714 1.04286,-5.15714z" data-paper-data="{&quot;index&quot;:null}" stroke-width="0"/><path d="M243.15958,184.01193c1.60163,0 3.75715,7.19911 3.75715,10.26429c0,3.06518 1.70163,4.97857 0.1,4.97857c-1.60163,0 -3.32857,-0.91339 -3.32857,-3.97857c0,-3.06518 -2.13021,-11.26428 -0.52858,-11.26428z" data-paper-data="{&quot;index&quot;:null}" stroke-width="0"/></g></g></svg>