<svg version="1.1" xmlns="http://www.w3.org/2000/svg" xmlns:xlink="http://www.w3.org/1999/xlink" width="38" height="30.70257" viewBox="0,0,38,30.70257"><g transform="translate(-217.39984,-163.30542)"><g data-paper-data="{&quot;isPaintingLayer&quot;:true}" fill-rule="nonzero" stroke-linejoin="miter" stroke-miterlimit="10" stroke-dasharray="" stroke-dashoffset="0" style="mix-blend-mode: normal"><g data-paper-data="{&quot;index&quot;:null}"><g data-paper-data="{&quot;index&quot;:null}"><path d="M230.29142,188.99624c-0.35438,1.27794 -0.34301,4.54667 -0.34301,4.54667c0,0 -0.62391,0.20671 -0.59016,-1.03868c0.01955,-0.72129 0.27647,-2.48342 0.62787,-3.63715c0.42124,-1.38303 1.77475,-3.88319 1.77475,-3.88319l0.82466,-0.01376c0,0 -2.0415,3.11502 -2.29411,4.02611z" fill="#989898" stroke="#989898" stroke-width="0" stroke-linecap="round"/><path d="M233.84826,186.80791c0.14762,0.84919 -0.25373,3.06645 -0.25373,3.06645l-2.97173,-1.84899c0,0 0.68411,-1.7509 1.34038,-2.6463c0.3119,-0.42527 0.71212,-0.61916 1.30367,0.00197c0.41612,0.43694 0.48431,0.87302 0.58141,1.42688z" fill="#f82020" stroke="none" stroke-width="1.13968" stroke-linecap="round"/><path d="M230.67611,187.95098c0,0 2.77314,0.48411 2.93,1.78643c0.08035,0.73159 -0.91116,2.6905 -1.39049,3.20748c-0.4824,0.5199 -1.7111,0.75394 -2.29527,0.65722c-0.34315,-0.05676 -0.25802,-0.80444 -0.22983,-1.24295c0.07173,-1.0936 0.2929,-2.38468 0.55577,-3.34357c0.26287,-0.9589 0.42984,-1.06462 0.42984,-1.06462z" fill="#f8f8f8" stroke="none" stroke-width="1.15102" stroke-linecap="round"/><path d="M235.6678,187.0444c-0.02075,0.36726 0.01303,2.12804 -0.26141,2.60667c-0.21155,0.36895 -0.80402,-0.15608 -0.80402,-0.15608c0,0 -0.59346,0.20503 -0.71663,0.19807c-0.46434,-0.02624 -0.13755,-1.32931 -0.08752,-2.21445c0.01001,-0.17701 -0.20965,-1.04805 -0.11821,-1.55457c0.05441,-0.30144 0.05857,-0.58383 0.45751,-0.79936c0.41088,-0.22198 0.55204,0.40734 0.55204,0.40734c0,0 0.42708,-0.6479 0.92319,-0.11856c0.43675,0.466 0.07924,1.20303 0.05506,1.63094z" fill="#ffffff" stroke="none" stroke-width="0" stroke-linecap="butt"/></g><path d="M236.84001,186.32512c0.36,-0.4811 -0.0547,-1.3017 0.3044,-1.7794c0.2006,-0.268 0.8477,-0.3606 1.004,-0.0852c0.3957,0.7044 0.3791,1.6079 0.3326,2.4196c-0.0254,0.4538 -0.1931,0.9526 -0.5726,1.1504c-0.6184,0.3308 -1.4755,0.5232 -2.1297,0.1995c-0.4199,-0.2025 -0.5774,-0.9612 -0.3455,-1.4122c0.2293,-0.439 1.1007,-0.0853 1.4068,-0.4927z" data-paper-data="{&quot;index&quot;:null}" fill="#e88820" stroke="none" stroke-width="0.49091" stroke-linecap="round"/></g><path d="M235.17031,183.73459c0,-1.55828 0.65441,-2.20504 1.4201,-2.20504c0.95748,0 1.81884,0.42261 3.28569,1.19229c0.46875,-0.04076 2.88255,-1.83863 4.02687,-0.48073c1.89662,2.25062 -0.85282,2.19777 -1.04239,2.51435c-0.63097,1.0537 -2.20998,1.80065 -4.05806,1.80065c-2.40334,0 -3.6322,-1.26324 -3.6322,-2.82152z" data-paper-data="{&quot;index&quot;:null}" fill="#f8b820" stroke="none" stroke-width="0" stroke-linecap="butt"/><path d="M234.95978,175.36029c0,-1.6753 -2.38583,-4.25159 -2.46334,-5.12852c-0.09672,-1.09431 3.04959,-0.02036 3.04959,-0.02036c0,0 3.01853,-0.18847 2.82257,0.61154c-0.17767,0.72531 -2.28757,2.97695 -2.28757,4.94621c0,5.85407 0.31437,6.80662 0.31437,6.80662c0,0 -0.08319,0.48722 -0.30152,-0.07428c-0.35056,-0.90158 -1.13412,-3.53378 -1.13412,-7.14121z" data-paper-data="{&quot;index&quot;:null}" fill="#e2a026" stroke="none" stroke-width="0" stroke-linecap="butt"/><path d="M237.92531,175.56471c0,3.38928 -0.86696,5.9507 -1.26675,6.91011c-0.29074,0.69771 -0.26404,0.21431 -0.26404,0.21431c0,0 0.21037,-0.86147 0.21037,-6.71555c0,-1.96926 -1.89928,-4.85842 -2.10851,-5.58373c-0.23076,-0.8 3.02318,0.02599 3.02318,0.02599c0,0 2.24694,-0.80071 2.13304,0.29359c-0.09128,0.87694 -1.72729,3.18001 -1.72729,4.8553z" data-paper-data="{&quot;index&quot;:null}" fill="#e2a026" stroke="none" stroke-width="0" stroke-linecap="butt"/><path d="M237.07432,186.14093c0,0 -0.5699,-1.99937 1.85344,-1.85263c0.8484,0.05137 1.52668,0.41766 2.00297,0.4132c0.14319,-0.00134 -0.54788,-0.96941 -0.14924,-0.822c0.18563,0.06865 0.65407,0.67621 0.83768,0.68113c0.17246,0.00461 -0.51029,-0.7763 -0.51029,-0.7763l1.92147,0.75821c0,0 1.52715,0.34126 1.87999,0.60951c0.35284,0.26825 -0.96154,-0.09187 -1.13269,-0.04139c-0.14593,0.04305 0.89906,0.27546 0.92115,0.44589c0.02534,0.19558 -1.03737,-0.12354 -1.33034,-0.04279c-1.05918,0.29194 -1.97107,0.80583 -3.23716,0.92306c-1.35761,0.19004 -3.05697,-0.14205 -3.05697,-0.14205z" data-paper-data="{&quot;index&quot;:null}" fill="#f8f8f8" stroke="none" stroke-width="0" stroke-linecap="butt"/><g data-paper-data="{&quot;index&quot;:null}"><path d="M233.82235,187.26893c0.27124,-0.41447 1.10381,0.02282 1.44827,-0.35263c0.4054,-0.44361 0.07304,-1.30088 0.47713,-1.74106c0.22588,-0.24717 0.87892,-0.27592 1.00751,0.01342c0.32484,0.73979 0.21986,1.6373 0.09418,2.44055c-0.06969,0.44914 -0.28548,0.92908 -0.68246,1.08886c-0.64771,0.26863 -1.51956,0.37626 -2.139,-0.01001c-0.39801,-0.24267 -0.48049,-1.01305 -0.20562,-1.43913z" data-paper-data="{&quot;index&quot;:null}" fill="#f8b820" stroke="none" stroke-width="0.49091" stroke-linecap="round"/><g data-paper-data="{&quot;index&quot;:null}"><path d="M231.31424,185.36812c0,0 -2.05896,3.1035 -2.31669,4.01316c-0.36155,1.27592 -0.36854,4.54466 -0.36854,4.54466c0,0 -0.62507,0.20321 -0.58432,-1.04197c0.02361,-0.72118 0.29041,-2.48184 0.64829,-3.63358c0.429,-1.38064 1.79653,-3.87316 1.79653,-3.87316l0.82472,-0.00913z" fill="#989898" stroke="#989898" stroke-width="0" stroke-linecap="round"/><path d="M232.56662,187.21298c0.14284,0.85 -0.27095,3.06497 -0.27095,3.06497l-2.96129,-1.86564c0,0 0.69393,-1.74704 1.35523,-2.63873c0.31428,-0.42352 0.71558,-0.61516 1.30364,0.00929c0.41365,0.43927 0.47939,0.87573 0.57338,1.43013z" fill="#f82020" stroke="none" stroke-width="1.13968" stroke-linecap="round"/><path d="M229.38807,188.33813c0,0 2.77038,0.49966 2.91992,1.80285c0.07623,0.73204 -0.92624,2.68535 -1.40848,3.19962c-0.48532,0.5172 -1.71532,0.74433 -2.29893,0.64433c-0.34282,-0.05868 -0.25349,-0.80586 -0.22284,-1.24421c0.07787,-1.09318 0.30629,-2.383 0.57453,-3.34039c0.26824,-0.95741 0.43581,-1.06219 0.43581,-1.06219z" fill="#f8f8f8" stroke="none" stroke-width="1.15102" stroke-linecap="round"/><path d="M234.38481,187.45966c-0.02283,0.36713 0.00108,2.12807 -0.27605,2.60516c-0.21363,0.36777 -0.80314,-0.16059 -0.80314,-0.16059c0,0 -0.59461,0.2017 -0.71774,0.19405c-0.46419,-0.02886 -0.13009,-1.33007 -0.07509,-2.21492c0.011,-0.17696 -0.20377,-1.04921 -0.10948,-1.55521c0.05611,-0.30111 0.06184,-0.58349 0.46199,-0.79677c0.41212,-0.21969 0.54974,0.41043 0.54974,0.41043c0,0 0.43071,-0.64549 0.92384,-0.11338c0.43412,0.46845 0.07248,1.20344 0.04589,1.63122z" fill="#ffffff" stroke="none" stroke-width="0" stroke-linecap="butt"/></g></g><path d="M236.39984,163.30542c10.49341,0 19,2.35584 19,5.26191c0,2.90607 -8.50659,5.2619 -19,5.2619c-10.49341,0 -19,-2.35583 -19,-5.2619c0,-2.90608 8.50659,-5.26191 19,-5.26191z" data-paper-data="{&quot;index&quot;:null}" fill-opacity="0.90196" fill="#e3a127" stroke="none" stroke-width="0" stroke-linecap="butt"/><path d="M239.30811,171.08368c0.68066,-1.3392 1.09757,-3.06081 1.7177,-3.13132c0.52235,-0.05878 3.32063,4.01367 3.76314,4.23319c0.74838,0.37218 0.95791,0.24362 1.77128,0.21298c0.70206,-0.07752 2.07105,-0.58722 2.83977,-1.02472c0.76872,-0.4375 2.04324,-1.34867 2.10407,-0.76537c0.22628,0.71475 -0.49675,1.6826 -0.94518,2.82935c-0.44843,1.14675 -1.14246,1.86399 -1.31107,2.52841c-0.44988,1.75995 -0.29558,4.86108 -1.57249,6.15223c-1.0803,1.0909 -3.20306,0.62647 -4.73917,0.25538c-1.90218,-0.4589 -4.50167,-0.80421 -5.27415,-2.60448c-0.9074,-2.11658 0.7869,-5.62882 0.7869,-5.62882c0,0 0.17853,-1.71764 0.8592,-3.05684z" data-paper-data="{&quot;index&quot;:null}" fill="#f8b820" stroke="none" stroke-width="1" stroke-linecap="round"/><path d="M247.47302,179.56083c0.09736,-0.74073 0.11002,-1.55978 0.43584,-2.20992c0.16758,-0.29657 0.65265,-0.463 0.81221,-0.18247c0.23834,0.41762 0.12574,1.11667 0.03641,1.67359c-0.14481,1.01677 -0.26908,2.12049 -0.72807,2.97525c-0.1559,0.29023 -0.56347,-0.05956 -0.65407,-0.40061c-0.14738,-0.55877 0.01677,-1.24003 0.09767,-1.85583z" data-paper-data="{&quot;index&quot;:null}" fill="#ffffff" stroke="none" stroke-width="0.86553" stroke-linecap="round"/><path d="M239.83304,173.68183c-0.21212,-0.1793 0.97055,-4.77574 1.2918,-4.84603c0.28498,-0.06029 1.62193,1.67938 1.7842,2.16787c0.15458,0.46556 0.90766,1.0076 0.77077,1.48394c-0.05352,0.17958 -0.92203,0.14841 -1.70401,0.3887c-0.78198,0.24029 -2.03636,0.8948 -2.14275,0.80553z" data-paper-data="{&quot;index&quot;:null}" fill="#ffffff" stroke="none" stroke-width="0.85185" stroke-linecap="butt"/><path d="M242.50157,182.0107c-0.28232,-0.68196 -0.02589,-1.52965 0.07552,-2.31994c0.08231,-0.64359 0.1811,-1.31982 0.46119,-1.89162c0.18346,-0.38175 0.56178,-0.64121 0.8938,-0.87368c0.23912,-0.15086 0.53155,-0.25042 0.80907,-0.30345c0.26884,-0.04907 0.48301,-0.03308 0.71877,0.00098c0.1971,0.02822 0.45459,-0.01718 0.46817,0.17561c0.16327,0.5212 0.04733,1.09529 -0.01929,1.63952c-0.15548,1.26854 -0.07372,2.73665 -0.66631,3.87443c-0.2629,0.50449 -0.98676,0.30248 -1.47612,0.25717c-0.45154,-0.05757 -1.06976,-0.08819 -1.2648,-0.55901z" data-paper-data="{&quot;index&quot;:null}" fill="#ffffff" stroke="none" stroke-width="0.97175" stroke-linecap="round"/><path d="M237.88551,178.46519c-0.28086,-0.41586 2.08599,1.31917 2.97689,2.23526c0.58919,0.6063 1.14843,0.97899 1.93979,1.2322c0.80399,0.27027 1.80192,0.33605 2.60426,0.05047c0.9074,-0.32298 2.24623,-0.34959 2.92101,0.29979c0.38648,0.37192 -0.17109,1.63646 -0.72762,1.88427c-0.93652,0.6582 -2.05646,0.82718 -2.81387,0.78193c-0.82991,-0.08023 -2.01291,-0.37386 -2.84583,-0.68535c-0.83291,-0.31149 -1.58954,-0.8977 -1.95666,-1.16654c-0.33262,-0.24383 -3.23476,-0.08183 -3.23476,-0.08183l1.30181,-0.93584l-1.38741,-1.1175c0,0 1.60537,-0.09128 1.49544,-0.2089c-0.58779,-0.62934 -1.41689,-0.52717 -1.41689,-0.52717c0,0 1.0821,-0.14913 1.68366,-0.3599c0.30495,-0.10628 -0.32681,-1.08611 -0.53981,-1.40087z" data-paper-data="{&quot;index&quot;:null}" fill="#f8f8f8" stroke="none" stroke-width="1" stroke-linecap="round"/><path d="M247.66586,182.01314c0.35502,0.05282 0.55004,0.158 0.76494,0.31292c0.21489,0.15493 -0.5431,0.63506 -0.89811,0.58224c-0.35502,-0.05282 -0.76799,-0.70715 -0.51729,-0.79281c0.25068,-0.08566 0.29547,-0.15516 0.65047,-0.10234z" data-paper-data="{&quot;index&quot;:null}" fill="#101010" stroke="none" stroke-width="1" stroke-linecap="butt"/><path d="M242.79734,183.54342l1.61764,1.02723" data-paper-data="{&quot;index&quot;:null}" fill="none" stroke="#cccccc" stroke-width="0.36953" stroke-linecap="round"/><path d="M244.81378,179.48114c0.14034,-0.22165 0.30602,-0.34723 0.46567,-0.32349c0.15955,0.02373 0.2815,0.1921 0.35124,0.44502c0.06848,0.25385 0.08482,0.59114 0.03093,0.95334c-0.05388,0.36222 -0.1677,0.68013 -0.30712,0.90304c-0.14034,0.22166 -0.30603,0.34723 -0.46558,0.3235c-0.15965,-0.02375 -0.28158,-0.19211 -0.35132,-0.44503c-0.06838,-0.25384 -0.08484,-0.59114 -0.03095,-0.95334c0.05389,-0.3622 0.16782,-0.68011 0.30714,-0.90303z" data-paper-data="{&quot;index&quot;:null}" fill="#4088ed" stroke="none" stroke-width="1.0615" stroke-linecap="butt"/><path d="M244.89417,179.77403c0.09193,-0.13816 0.20212,-0.2156 0.30895,-0.1997c0.10683,0.01589 0.1896,0.12204 0.23733,0.28099c0.04824,0.15893 0.0608,0.37006 0.02713,0.59637c-0.03366,0.22632 -0.10714,0.42467 -0.19958,0.56276c-0.09191,0.13808 -0.20203,0.21564 -0.30886,0.19974c-0.10684,-0.01589 -0.1897,-0.12215 -0.23743,-0.281c-0.04822,-0.15903 -0.06079,-0.37016 -0.02712,-0.59647c0.03366,-0.22632 0.10716,-0.42467 0.19957,-0.56267z" data-paper-data="{&quot;index&quot;:null}" fill="#000000" stroke="none" stroke-width="0.47368" stroke-linecap="butt"/><path d="M245.09713,179.90818c0.0404,-0.05608 0.09013,-0.08729 0.13879,-0.08005c0.04856,0.00721 0.08715,0.05158 0.10947,0.11698c0.02289,0.06558 0.03022,0.15229 0.01642,0.24507c-0.01381,0.09279 -0.04606,0.17363 -0.08706,0.2297c-0.04039,0.05607 -0.09023,0.08726 -0.13879,0.08004c-0.04866,-0.00723 -0.08715,-0.05158 -0.10947,-0.11698c-0.02289,-0.06559 -0.03031,-0.15232 -0.01651,-0.2451c0.01381,-0.09279 0.04615,-0.1736 0.08715,-0.22967z" data-paper-data="{&quot;index&quot;:null}" fill="#ffffff" stroke="none" stroke-width="0.64678" stroke-linecap="butt"/><path d="M247.60457,179.87813c0.12466,-0.1971 0.27199,-0.30872 0.41383,-0.28762c0.14184,0.0211 0.25028,0.17079 0.31226,0.39565c0.06085,0.2256 0.07542,0.52531 0.02751,0.84737c-0.0479,0.32196 -0.14909,0.60454 -0.273,0.80267c-0.12476,0.19699 -0.27208,0.30862 -0.41392,0.28752c-0.14183,-0.02111 -0.25029,-0.1708 -0.31219,-0.39555c-0.06086,-0.2256 -0.0754,-0.52542 -0.0275,-0.84737c0.04791,-0.32205 0.14908,-0.60454 0.27299,-0.80267z" data-paper-data="{&quot;index&quot;:null}" fill="#4088ed" stroke="none" stroke-width="0.94355" stroke-linecap="butt"/><path d="M247.73391,180.16386c0.08166,-0.12283 0.17966,-0.19166 0.27461,-0.17753c0.09496,0.01414 0.16857,0.1085 0.21104,0.24979c0.04277,0.14133 0.05407,0.32904 0.02415,0.53012c-0.02993,0.20119 -0.09539,0.37747 -0.17744,0.50023c-0.08176,0.12281 -0.17966,0.19167 -0.27461,0.17754c-0.09495,-0.01413 -0.16868,-0.10851 -0.21105,-0.24978c-0.04277,-0.14134 -0.05407,-0.32904 -0.02414,-0.53023c0.02992,-0.20108 0.09539,-0.37737 0.17744,-0.50013z" data-paper-data="{&quot;index&quot;:null}" fill="#000000" stroke="none" stroke-width="0.42105" stroke-linecap="butt"/><path d="M247.94725,180.28813c0.03595,-0.04996 0.08019,-0.07765 0.12342,-0.07121c0.04323,0.00643 0.07739,0.0458 0.09724,0.10405c0.02044,0.05824 0.02698,0.13534 0.01472,0.21773c-0.01227,0.08249 -0.04096,0.15436 -0.07749,0.20413c-0.03595,0.04996 -0.08009,0.07766 -0.12332,0.07122c-0.04322,-0.00644 -0.07748,-0.04581 -0.09733,-0.10406c-0.02035,-0.05823 -0.02688,-0.13534 -0.01461,-0.21783c0.01226,-0.08239 0.04094,-0.15425 0.07737,-0.20404z" data-paper-data="{&quot;index&quot;:null}" fill="#ffffff" stroke="none" stroke-width="0.57492" stroke-linecap="butt"/><path d="M251.10639,170.80802c0,0 -0.16606,0.89635 -0.49641,1.66938c-0.33034,0.77304 -1.16313,1.83033 -1.31589,1.8076c-0.29798,-0.04431 -1.76791,-1.0902 -1.76791,-1.0902z" data-paper-data="{&quot;index&quot;:null}" fill="#ffffff" stroke="none" stroke-width="0" stroke-linecap="butt"/><path d="M247.1347,175.91036l2.82624,1.01818l1.25567,3.00502l-1.67836,-2.09796l-2.68112,-1.32678z" data-paper-data="{&quot;index&quot;:null}" fill="#f8b820" stroke="none" stroke-width="1.22222" stroke-linecap="round"/><path d="M247.45828,175.01179c0,0 2.76811,-0.35669 3.06146,-0.23457c0.41821,0.17407 1.90321,2.60715 1.90321,2.60715l-2.45569,-1.70611l-2.39231,0.14802z" data-paper-data="{&quot;index&quot;:null}" fill="#f8b820" stroke="none" stroke-width="1.22222" stroke-linecap="round"/><path d="M247.12846,173.91776c0,0 2.84664,-1.28522 3.24498,-1.33318c0.65701,-0.07907 3.90215,1.35687 3.90215,1.35687c0,0 -3.32848,-0.34421 -4.30844,-0.23641c-0.97997,0.1078 -2.31307,0.96487 -2.31307,0.96487z" data-paper-data="{&quot;index&quot;:null}" fill="#f8b820" stroke="none" stroke-width="1.22222" stroke-linecap="round"/><path d="M250.71868,165.37824c3.0206,0.99642 4.03525,3.79772 4.03525,3.79772c0,0 -2.25123,-2.29169 -3.56304,-3.05082c-0.52216,-0.30217 -3.47329,-1.10061 -3.47329,-1.10061c0,0 2.34365,0.64735 3.25062,1.22854c0.90697,0.58119 1.8555,2.0435 1.8555,2.0435c0,0 -1.7828,-1.25416 -2.56834,-1.6461c-0.78553,-0.39194 -2.13721,-0.70173 -2.13721,-0.70173c0,0 1.11473,0.42764 1.52888,0.73151c0.41416,0.30387 0.84434,1.00973 0.84434,1.00973c0,0 -0.81153,-0.34711 -1.25743,-0.51841c-0.4459,-0.1713 -1.15398,-0.40797 -1.15398,-0.40797c0,0 0.55354,0.44658 0.78255,0.69684c0.229,0.25026 0.50349,0.70855 0.50349,0.70855l-1.48855,-0.54908l-1.20678,-0.22575c0,0 0.57478,0.27611 0.75648,0.40827c0.1817,0.13216 0.3887,0.42469 0.3887,0.42469c0,0 -0.32228,-0.08112 -0.50452,-0.0885c-0.18224,-0.00738 -0.46476,0.04925 -0.46476,0.04925l0.42549,0.65059l-0.96779,-0.10011l0.17909,0.57442l-1.07057,-0.21341l0.64872,-0.26875l-0.5525,-0.2684c0,0 0.34669,-0.04679 0.51264,-0.04521c0.22312,0.00211 0.8373,0.12043 0.8373,0.12043c0,0 -0.2943,-0.29408 -0.45754,-0.42104c-0.12851,-0.09994 -0.4429,-0.27922 -0.4429,-0.27922c0,0 0.33993,-0.09229 0.5832,-0.08193c0.24327,0.01035 0.60963,0.13274 0.60963,0.13274c0,0 -0.19933,-0.19129 -0.44798,-0.38306c-0.24865,-0.19177 -0.65486,-0.46749 -0.65486,-0.46749c0,0 0.70167,-0.05934 1.14476,-0.00334c0.44309,0.056 1.10758,0.28799 1.10758,0.28799c0,0 -0.47609,-0.47508 -0.73362,-0.66122c-0.23093,-0.16692 -0.77671,-0.49106 -0.77671,-0.49106c0,0 0.64446,0.01006 1.16764,0.12987c0.52317,0.11981 1.30425,0.43622 1.30425,0.43622c0,0 -0.99572,-0.56809 -1.57594,-0.81954c-0.51053,-0.22125 -1.72312,-0.61022 -1.72312,-0.61022c0,0 1.54101,-0.03171 2.23596,0.13197c0.81915,0.19294 2.36791,0.9524 2.36791,0.9524c0,0 -1.72517,-0.91504 -2.73645,-1.20437c-0.56826,-0.16257 -2.81139,-0.3829 -2.81139,-0.3829c0,0 1.54546,-0.3235 3.19049,-0.18933c1.04125,0.08493 2.43338,0.63946 2.50881,0.66435z" data-paper-data="{&quot;index&quot;:null}" fill="#dcdce1" stroke="none" stroke-width="0" stroke-linecap="butt"/><path d="M222.85646,171.54166c-3.09068,-0.75141 -4.32632,-3.46248 -4.32632,-3.46248c0,0 2.42746,2.10411 3.79583,2.75579c0.54467,0.25939 3.55025,0.81901 3.55025,0.81901c0,0 -2.38796,-0.45764 -3.33854,-0.96436c-0.95059,-0.50672 -2.01315,-1.8884 -2.01315,-1.8884c0,0 1.87749,1.1074 2.69188,1.4352c0.81439,0.3278 2.18654,0.52838 2.18654,0.52838c0,0 -1.14538,-0.33702 -1.58253,-0.60676c-0.43715,-0.26974 -0.92246,-0.93889 -0.92246,-0.93889c0,0 0.83671,0.28103 1.29489,0.41608c0.45818,0.13505 1.18293,0.31427 1.18293,0.31427c0,0 -0.58752,-0.40084 -0.83582,-0.63196c-0.2483,-0.23112 -0.5586,-0.66596 -0.5586,-0.66596l1.52774,0.42815l1.22098,0.12841c0,0 -0.59504,-0.2292 -0.78674,-0.34639c-0.1917,-0.11719 -0.42146,-0.39221 -0.42146,-0.39221c0,0 0.32774,0.05507 0.50999,0.04783c0.18226,-0.00723 0.45934,-0.08629 0.45934,-0.08629l-0.47621,-0.61445l0.9727,0.02232l-0.2245,-0.55824l1.08422,0.12702l-0.62512,0.31983l0.57221,0.22331c0,0 -0.34182,0.07439 -0.50737,0.08611c-0.22257,0.01576 -0.84425,-0.05302 -0.84425,-0.05302c0,0 0.31689,0.26959 0.48978,0.38307c0.1361,0.08933 0.46384,0.24286 0.46384,0.24286c0,0 -0.33145,0.11921 -0.57477,0.12836c-0.24332,0.00915 -0.6183,-0.08351 -0.6183,-0.08351c0,0 0.21401,0.17473 0.47721,0.34597c0.26321,0.17125 0.69019,0.41357 0.69019,0.41357c0,0 -0.69466,0.11532 -1.14082,0.09497c-0.44615,-0.02035 -1.12708,-0.1984 -1.12708,-0.1984c0,0 0.5126,0.43544 0.7842,0.60037c0.24355,0.14789 0.81353,0.42731 0.81353,0.42731c0,0 -0.64321,0.04156 -1.17429,-0.03598c-0.53108,-0.07754 -1.33499,-0.33041 -1.33499,-0.33041c0,0 1.038,0.48654 1.63649,0.69074c0.52661,0.17968 1.76644,0.47033 1.76644,0.47033c0,0 -1.53351,0.15498 -2.23934,0.04745c-0.83197,-0.12674 -2.43656,-0.75978 -2.43656,-0.75978c0,0 1.79288,0.77399 2.82407,0.98144c0.57944,0.11657 2.83302,0.15661 2.83302,0.15661c0,0 -1.51461,0.44619 -3.1651,0.44414c-1.0447,-0.0013 -2.47676,-0.44261 -2.55394,-0.46138z" data-paper-data="{&quot;index&quot;:null}" fill="#dcdce1" stroke="none" stroke-width="0" stroke-linecap="butt"/><path d="M237.03692,173.02641c0.37209,-0.04428 -0.22831,0.18568 -0.22831,0.18568c0,0 -0.79365,0.12897 -1.13766,0.09252c-0.34401,-0.03646 -0.83359,-0.30141 -0.83359,-0.30141c0,0 0.58992,-0.07306 0.90746,-0.12452c0.31754,-0.05146 0.80982,-0.15374 0.80982,-0.15374c0,0 -0.4735,-0.07226 -0.69159,-0.14027c-0.21809,-0.06801 -0.53316,-0.24167 -0.53316,-0.24167l1.05235,-0.18502l0.77878,-0.27767c0,0 -0.42807,0.03415 -0.5786,0.01883c-0.15053,-0.01532 -0.37015,-0.1154 -0.37015,-0.1154c0,0 0.21504,-0.06202 0.32359,-0.1195c0.10856,-0.05748 0.25378,-0.18619 0.25378,-0.18619l-0.46813,-0.23439l0.59712,-0.26978l-0.29892,-0.27357l0.69534,-0.23868l-0.28642,0.37628l0.4125,-0.03108c0,0 -0.1859,0.14474 -0.283,0.20007c-0.13056,0.0744 -0.52808,0.21372 -0.52808,0.21372c0,0 0.27094,0.07138 0.40897,0.08993c0.10866,0.0146 0.35238,0.01237 0.35238,0.01237c0,0 -0.16653,0.16893 -0.31161,0.24536c-0.14508,0.07643 -0.39976,0.12938 -0.39976,0.12938c0,0 0.18083,0.04376 0.39053,0.07107c0.20969,0.02732 0.53954,0.05009 0.53954,0.05009c0,0 -0.3882,0.27236 -0.66504,0.38996c-0.27684,0.1176 -0.74216,0.20782 -0.74216,0.20782c0,0 0.43808,0.1151 0.65104,0.13613c0.19097,0.01886 0.61845,0.0225 0.61845,0.0225c0,0 -0.37844,0.21259 -0.72351,0.3202c-0.34507,0.10761 -0.90685,0.18823 -0.90685,0.18823c0,0 0.772,-0.00692 1.19488,-0.05725z" data-paper-data="{&quot;index&quot;:null}" fill="#dcdce1" stroke="none" stroke-width="0" stroke-linecap="butt"/></g></g></svg>