<svg version="1.1" xmlns="http://www.w3.org/2000/svg" xmlns:xlink="http://www.w3.org/1999/xlink" width="21.09078" height="28.80268" viewBox="0,0,21.09078,28.80268"><g transform="translate(-227.63884,-179.36747)"><g data-paper-data="{&quot;isPaintingLayer&quot;:true}" fill-rule="nonzero" stroke-linejoin="miter" stroke-miterlimit="10" stroke-dasharray="" stroke-dashoffset="0" style="mix-blend-mode: normal"><g data-paper-data="{&quot;index&quot;:null}" stroke="none" stroke-width="0" stroke-linecap="butt"><path d="M232.44822,206.68971c0.72001,-1.74246 4.76819,-2.64643 4.76819,-2.64643c0.58622,-0.16038 1.12516,-0.11029 1.65798,0.01822c0.46405,0.11192 0.92346,0.28331 1.40544,0.42697c1.03539,0.30862 -0.43051,1.1028 -0.43051,1.1028c0,0 -2.04867,1.27508 -3.30844,1.45732c-1.05484,0.28998 -4.61865,0.91398 -4.09268,-0.35891z" fill="#54c81c"/><path d="M243.589,203.62501c0,0 0.3624,0.68425 -1.01629,1.2873c-1.37869,0.60307 -2.44136,0.67129 -3.51173,1.01626c-0.87987,0.28358 -2.164,0.90845 -2.76608,0.91943c-0.60209,0.01098 -1.32324,-0.28395 -0.76867,-0.87215c0.43596,-0.46241 2.96075,-1.08418 2.96075,-1.08418c0,0 2.28963,-0.76248 2.86422,-1.06203c1.84129,-0.88877 -0.4734,-5.03113 -0.4734,-5.03113l1.60852,-0.25457l1.10267,5.08109z" fill="#ffffff"/></g><g data-paper-data="{&quot;index&quot;:null}" stroke="none" stroke-width="0" stroke-linecap="butt"><path d="M227.78895,204.07151c1.25986,-1.4026 5.37777,-0.90486 5.37777,-0.90486c0.60616,0.0443 1.09755,0.27124 1.55702,0.57009c0.40016,0.26026 0.77613,0.57506 1.18261,0.87121c0.87321,0.63621 -0.77362,0.8961 -0.77362,0.8961c0,0 -2.3566,0.51891 -3.60505,0.27062c-1.09116,-0.07835 -4.65906,-0.67853 -3.73872,-1.70316z" fill="#54c81c"/><path d="M239.31403,204.89743c0,0 0.11349,0.76594 -1.38739,0.87471c-1.50088,0.10878 -2.52546,-0.18127 -3.6496,-0.21299c-0.92406,-0.02608 -2.34305,0.13481 -2.91434,-0.05562c-0.57129,-0.19043 -1.15281,-0.70895 -0.43384,-1.07856c0.56519,-0.29056 3.15281,-0.03479 3.15281,-0.03479c0,0 2.41284,0.04471 3.05444,-0.04609c2.03226,-0.22388 1.23144,-4.90103 1.23144,-4.90103l1.60134,0.29641l-0.65485,5.15796z" fill="#ffffff"/></g><path d="M240.33559,205.12503c0,0 -1.01472,0.76086 -2.00333,1.04072c-0.98861,0.27986 -2.62161,0.24174 -2.62161,0.24174l-2.7932,-0.4198c0,0 1.24011,-1.11867 1.9009,-1.38182c0.66078,-0.26316 3.40326,-0.42201 3.40791,-0.54226c0.01126,-0.29112 2.25689,-0.50502 2.21603,0.16392z" data-paper-data="{&quot;index&quot;:null}" fill="#54c81c" stroke="none" stroke-width="0.17188" stroke-linecap="butt"/><path d="M241.16436,195.44776c0,0 -1.84262,0.66194 -2.15284,0.33069c-0.25796,-0.36851 0.32296,-0.91612 0.31992,-1.70884c-0.00898,-0.69313 0.05562,-1.3752 0.3032,-1.6383c0.07637,-0.08111 0.56519,-0.12566 0.66843,-0.12566c0.1304,0 0.66972,-0.1069 0.89527,0.30912c0.05788,0.10698 0.17507,2.59846 -0.03398,2.83298z" data-paper-data="{&quot;index&quot;:null}" fill="#319a2b" stroke="none" stroke-width="0.17188" stroke-linecap="butt"/><g data-paper-data="{&quot;index&quot;:null}" stroke="none" stroke-width="0.17188" stroke-linecap="butt"><path d="M241.18233,188.38968c0.0123,-1.65217 -0.342,-2.92607 -0.23478,-4.22249c0.03553,-0.42863 0.15153,-0.27918 0.59518,-0.2823c0.57317,-0.00516 1.41278,0.08293 1.60817,0.61025c0.29702,0.80265 -0.30336,2.92069 -0.33677,3.79772c-0.05314,1.38767 -1.01977,4.2251 -1.35077,4.49891c-0.1428,0.1182 -0.58597,-0.23279 -0.57217,-1.05219c0.01817,-1.07892 0.27884,-1.69773 0.29115,-3.3499z" fill="#319a2b"/><path d="M242.26313,182.75765c-0.00714,-0.00917 -1.0228,-0.86284 -1.2775,-0.91197c-0.4285,-0.0829 -0.24345,0.59332 -0.71177,0.32709c-0.3473,-0.19744 -0.3453,-0.61255 -0.51558,-0.82734c-0.19443,-0.24476 0.01359,-0.78276 0.26436,-1.01731c0.13931,-0.1303 0.38327,-0.02214 0.36106,-0.06386c-0.15039,-0.28202 -0.00326,-0.68769 0.28713,-0.75345l0.6319,-0.14334c0.6596,0.02226 1.40283,0.19737 1.81309,0.18619c0.94689,-0.06676 1.24743,0.93135 1.20634,0.75729c0.03319,0.87765 -0.4685,2.00594 -1.22564,2.62526c-0.15803,0.12083 -0.52149,0.2295 -0.83338,-0.17856z" fill="#f0e9bb"/><path d="M240.88669,184.71032c0.04722,-0.03293 -0.01772,0.59071 -0.14297,0.40694c-0.08217,-0.12086 -0.4847,-1.10013 -0.53039,-1.27274c-0.10559,-0.39864 0.04706,-0.93 0.06062,-1.32971c0.01287,-0.37622 0.4106,-0.69939 0.55991,-0.80355c0.21569,-0.15078 0.59957,0.22748 0.98655,0.56806c0.47063,0.41422 0.93173,0.6099 0.96421,0.61926c0,0 0.60754,0.12417 0.70465,-0.02913c-0.30509,0.5005 0.24072,1.63041 -0.11481,2.10657c-0.20282,0.24092 -1.71506,-0.61933 -2.00352,-0.7235c-0.29223,-0.10545 -0.72008,0.62215 -0.48424,0.4578z" fill="#ead42f"/></g><path d="M241.42102,183.17426c4.0188,-0.31644 4.61355,3.9547 4.65704,4.20958c0.06856,0.6054 -0.02549,1.22414 -0.21409,1.80059c-0.30735,0.96433 -0.93163,1.85553 -1.82531,2.35572c-0.44724,0.179 -0.37997,0.16844 -0.81297,0.36633c-0.63406,0.42025 -1.54918,0.51312 -2.27393,0.50729c-0.58822,0.02637 -1.17605,-0.04347 -1.74587,-0.19255c-0.36494,-0.10965 -0.77246,-0.1625 -1.07427,-0.41276c-0.27742,-0.23759 -0.50564,-0.56647 -0.51551,-0.94307c-0.07449,-0.91392 -0.15757,-1.82864 -0.14928,-2.74595c0.00738,-0.11943 -0.43267,-4.59975 3.95419,-4.94518z" data-paper-data="{&quot;index&quot;:null}" fill="#f0e9bb" stroke="none" stroke-width="0.17188" stroke-linecap="butt"/><path d="M244.82149,187.44172c0.24826,-0.04061 0.39401,0.08879 0.48279,0.36783c0.06208,0.19567 0.10361,0.48668 0.10168,0.75089c-0.00215,0.28487 -0.00214,0.45569 -0.03743,0.62631c-0.03467,0.16755 -0.10484,0.33684 -0.07917,0.3932c0.03723,0.08163 -0.06894,0.18503 -0.46418,0.27076c-0.25316,0.05494 -0.49978,0.09461 -0.71039,0.12755c-0.20734,0.00501 -0.31126,-1.13601 -0.18074,-1.43449c0.08213,-0.54868 0.28129,-0.89441 0.88745,-1.10205z" data-paper-data="{&quot;index&quot;:null}" fill="#ffffff" stroke="none" stroke-width="0.17188" stroke-linecap="butt"/><path d="M244.17351,187.68459c-0.57076,0.44788 -0.18008,2.25292 -0.18008,2.25292c0,0 -0.61678,-1.64896 0.05779,-2.33696c0.20811,-0.21225 0.32622,-0.32982 0.52276,-0.38144c0.27412,-0.07199 0.40114,0.00137 0.61027,0.18982c0.1163,0.10479 0.31509,0.43597 0.32553,0.75955c0.00241,0.07462 1.18793,0.07506 1.18793,0.07506c0,0 -0.84362,0.13613 -1.02375,0.25868c-0.172,0.11702 -0.05377,0.46302 -0.1514,0.75489c-0.09764,0.29187 -0.22168,0.41893 -0.22168,0.41893c0,0 0.14663,-0.42381 0.12964,-0.98414c-0.01271,-0.41935 -0.16873,-1.03677 -0.39571,-1.21444c-0.30301,-0.26417 -0.44533,-0.21652 -0.86131,0.20713z" data-paper-data="{&quot;index&quot;:null}" fill="#000000" stroke="none" stroke-width="0" stroke-linecap="butt"/><g data-paper-data="{&quot;index&quot;:null}" stroke="none" stroke-linecap="butt"><path d="M244.36638,189.15766c0,-0.5294 0.20288,-0.95856 0.45314,-0.95856c0.25026,0 0.45314,0.42916 0.45314,0.95856c0,0.5294 -0.20288,0.95856 -0.45314,0.95856c-0.25026,0 -0.45314,-0.42916 -0.45314,-0.95856z" fill="#008ae6" stroke-width="0"/><path d="M244.81482,188.33212c0.07892,-0.00736 0.1526,0.06999 0.20772,0.2009c0.05525,0.13092 0.09193,0.31542 0.09713,0.52227c0.00504,0.20696 -0.0224,0.39744 -0.07075,0.53808c-0.04848,0.14062 -0.11785,0.23143 -0.19677,0.23877c-0.07892,0.00736 -0.15262,-0.06999 -0.20772,-0.20089c-0.05525,-0.13093 -0.09195,-0.31542 -0.097,-0.52226c-0.00518,-0.20698 0.02225,-0.39746 0.07057,-0.5381c0.04848,-0.14063 0.11797,-0.23127 0.19679,-0.23878z" fill="#000000" stroke-width="0.0278"/><path d="M244.67042,188.57002c0.0419,-0.09781 0.10095,-0.15996 0.16695,-0.16302c0.06603,-0.00305 0.12675,0.05362 0.17136,0.14739c0.0448,0.0938 0.07346,0.22477 0.07549,0.37069c0.00218,0.14612 -0.02275,0.27957 -0.06482,0.37735c-0.04189,0.09781 -0.10094,0.15998 -0.16694,0.16303c-0.06603,0.00305 -0.12675,-0.05362 -0.17136,-0.1474c-0.0448,-0.0938 -0.07347,-0.22477 -0.0755,-0.37069c-0.00217,-0.14612 0.02276,-0.27956 0.06483,-0.37734z" fill="#ffffff" stroke-width="0.01811"/></g><path d="M241.06817,190.19583c-0.25971,0 -0.60994,0.03376 -0.92479,0.01872c-0.49139,-0.02363 -0.93532,-0.15374 -0.93532,-0.15374c0,0 -0.34037,-0.32711 -0.32037,-1.01971c0.01782,-0.61715 0.3131,-1.38581 0.81319,-1.38581c0.35709,0 0.66262,0.1376 1.01899,0.65129c0.08756,0.12623 0.59849,1.86225 0.3483,1.88925z" data-paper-data="{&quot;index&quot;:null}" fill="#ffffff" stroke="none" stroke-width="0.17188" stroke-linecap="butt"/><g data-paper-data="{&quot;index&quot;:null}" stroke="none" stroke-linecap="butt"><path d="M240.1164,189.49099c0,-0.5294 0.20288,-0.95856 0.45313,-0.95856c0.25025,0 0.45313,0.42916 0.45313,0.95856c0,0.5294 -0.20288,0.95856 -0.45313,0.95856c-0.25025,0 -0.45313,-0.42916 -0.45313,-0.95856z" fill="#008ae6" stroke-width="0"/><path d="M240.56482,188.66544c0.07892,-0.00736 0.1526,0.07 0.20772,0.20091c0.05525,0.13092 0.09193,0.31542 0.09713,0.52227c0.00504,0.20696 -0.0224,0.39744 -0.07075,0.53808c-0.04848,0.14062 -0.11785,0.23142 -0.19677,0.23877c-0.07892,0.00736 -0.15261,-0.07 -0.20772,-0.20089c-0.05525,-0.13092 -0.09195,-0.31541 -0.097,-0.52225c-0.00518,-0.20699 0.02225,-0.39747 0.07057,-0.53811c0.04848,-0.14062 0.11796,-0.23126 0.19679,-0.23877z" fill="#000000" stroke-width="0.0278"/><path d="M240.42043,188.90336c0.0419,-0.0978 0.10095,-0.15994 0.16695,-0.16301c0.06603,-0.00305 0.12675,0.05362 0.17136,0.14739c0.0448,0.0938 0.07346,0.22477 0.07549,0.37069c0.00217,0.14612 -0.02276,0.27956 -0.06483,0.37735c-0.0419,0.0978 -0.10095,0.15998 -0.16695,0.16303c-0.06603,0.00305 -0.12675,-0.05361 -0.17136,-0.1474c-0.0448,-0.0938 -0.07346,-0.22477 -0.07549,-0.37069c-0.00217,-0.14612 0.02276,-0.27956 0.06483,-0.37735z" fill="#ffffff" stroke-width="0.01811"/></g><path d="M240.46381,188.09609c-0.41598,-0.42365 -0.72904,-0.49569 -1.03205,-0.23153c-0.22698,0.17767 -0.383,0.79509 -0.39571,1.21444c-0.01699,0.56033 0.12964,0.98414 0.12964,0.98414c0,0 -0.12404,-0.12706 -0.22167,-0.41893c-0.09763,-0.29187 0.0206,-0.63787 -0.1514,-0.75489c-0.18012,-0.12255 -1.02374,-0.25869 -1.02374,-0.25869c0,0 1.18552,-0.00044 1.18793,-0.07506c0.01043,-0.32357 0.20922,-0.65476 0.32552,-0.75955c0.20913,-0.18845 0.43372,-0.26181 0.70783,-0.18982c0.19655,0.05163 0.36344,0.21798 0.57155,0.43023c0.67457,0.688 0.61877,2.11745 0.61877,2.11745c0,0 -0.14592,-1.60991 -0.71667,-2.05779z" data-paper-data="{&quot;index&quot;:null}" fill="#000000" stroke="none" stroke-width="0" stroke-linecap="butt"/><path d="M244.86198,189.82447l0.45,-0.13333c0,0 -0.40244,0.8 -0.81666,0.8c-0.41422,0 -0.55,-0.53333 -0.55,-0.53333z" data-paper-data="{&quot;index&quot;:null}" fill="#f0e9bb" stroke="none" stroke-width="0" stroke-linecap="butt"/><path d="M240.56921,190.26222l0.46708,-0.04595c0,0 -0.54629,0.70961 -0.95305,0.63138c-0.40676,-0.07822 -0.43938,-0.6276 -0.43938,-0.6276z" data-paper-data="{&quot;index&quot;:null}" fill="#f0e9bb" stroke="none" stroke-width="0" stroke-linecap="butt"/><path d="M245.71653,183.11734c0.89112,-0.12517 1.53266,0.01443 1.90908,0.28966c0.05363,0.03902 0.02379,0.07963 0.08863,0.14276c0.07844,0.07647 0.29223,0.19345 0.25173,0.1646c0,0 -0.07766,0.15432 -0.07063,0.22723c0.00899,0.09267 0.12575,0.20053 0.03744,0.17793c0,0 0.05858,0.13615 0.04654,0.18544c-0.13139,0.53843 -0.57014,1.23333 -1.14857,1.59037c0.31011,0.47154 -1.65014,-2.36234 -1.11419,-2.77797z" data-paper-data="{&quot;index&quot;:null}" fill="#ed3e67" stroke="none" stroke-width="0.17188" stroke-linecap="butt"/><path d="M237.73845,187.23755l-0.14493,2.30593l0.22328,1.85968l0.26041,1.31603c0.03082,0.15471 -1.60511,-1.06113 -1.94356,-1.49178c-0.4189,-0.5328 -0.68772,-1.11557 -0.95396,-1.69924c-0.19422,-0.42532 -0.21042,-0.59959 -0.27206,-0.9086l-0.19116,-0.95938c-0.03635,-0.18228 -0.12528,-1.10934 0.05363,-1.2685c0.05078,-0.04514 0.69126,0.41888 0.76466,0.4171l0.53576,-0.01452c0.15896,-0.00417 0.63357,-0.34263 0.77117,-0.45406c0.10057,-0.08131 0.65836,-0.70894 0.71763,-1.32186l0.05858,-0.6063c0.0088,-0.0908 -0.21971,-1.04345 -0.18334,-1.06054c0.07489,-0.03547 -0.76448,-1.04858 -0.68651,-1.08969c0.43378,-0.22941 0.95986,-0.52302 1.55047,-0.65253c0.92847,-0.20362 1.94475,-0.17387 2.46558,-0.16696c0.08881,0.00118 1.2202,0.03863 1.89673,0.26683c1.07131,0.36128 1.67375,1.04868 1.71524,1.08641c0.65165,0.59227 1.13633,1.28195 1.47637,2.05597l0.18465,0.6547c0.09455,0.33511 0.4179,2.17928 0.23749,2.83141l-0.61548,2.2271c-0.10769,0.39004 -1.14097,2.21722 -1.35149,2.11102c-0.29499,-0.14849 -0.30092,-1.30012 -0.4011,-1.15904c-0.22209,0.31247 1.5227,-1.22673 1.60569,-1.65784c0.14179,-0.73708 0.42354,-1.43893 0.3607,-1.95798c-0.01195,-0.09801 -0.02142,-0.76852 -0.03251,-0.93073c-0.0086,-0.12824 -0.08674,-0.23265 -0.21556,-0.19946c-0.08574,0.02202 -0.28927,-0.0827 -0.4179,0.122l-0.38104,0.60709c-0.06184,0.09829 -1.20527,1.88398 -1.26148,1.74795c-0.01037,-0.02529 0.21646,-0.5966 0.2287,-0.63454c0.07438,-0.2294 0.0822,-0.4082 0.00899,-0.32602c-0.19255,0.21614 -0.51551,0.78422 -0.51551,0.78422c-0.04624,0.07004 -0.55888,0.02657 -0.90496,-0.09376c-0.32198,-0.11194 -0.72711,-0.50058 -0.82927,-0.59653l-1.10984,-1.04336c-1.04246,-0.97952 -0.97559,-0.56066 -1.03655,-0.67376c0.04682,-0.07509 -0.74392,-0.10206 -0.93143,0.07183c-0.0747,0.06926 -0.30252,0.20174 -0.41988,0.26971c-0.15618,0.09028 -0.26366,0.14373 -0.31623,0.23197z" data-paper-data="{&quot;index&quot;:null}" fill="#54c81c" stroke="none" stroke-width="0.17188" stroke-linecap="butt"/><path d="M233.8297,185.71788c-0.58457,-0.19987 -1.12625,-0.73948 -1.36503,-1.20361c-0.02193,-0.04248 -0.00256,-0.18001 -0.00256,-0.18001c-0.07144,0.0401 0.00514,-0.08437 -0.0086,-0.17111c-0.01076,-0.06817 -0.11401,-0.19246 -0.11401,-0.19246c-0.02846,0.03535 0.12992,-0.11866 0.18038,-0.20579c0.0416,-0.07214 0.00623,-0.10275 0.04376,-0.15048c0.26289,-0.33434 0.7872,-0.60293 1.58939,-0.68425c1.04959,-0.10621 1.97119,0.66369 1.97119,1.04049c0,0 -1.29624,2.08832 -2.29455,1.74718z" data-paper-data="{&quot;index&quot;:null}" fill="#ed3e67" stroke="none" stroke-width="0.17188" stroke-linecap="butt"/><path d="M236.89224,184.64319c0.14365,-0.10037 -0.28086,1.33162 -0.65034,1.53148c-0.63545,0.34361 -0.56431,0.59662 -1.10718,0.43123c-0.12193,-0.03694 -0.36337,-0.25193 -0.71043,-0.39528c-0.40208,-0.16587 -0.75812,-0.39645 -0.62485,-0.46541l0.8018,-0.46987l1.18848,-1.32126c0.01848,-0.02056 -0.22418,-0.22485 -0.60166,-0.49159c-0.26468,-0.18711 -0.66073,-0.40911 -0.96936,-0.52824c-0.18187,-0.07013 0.18217,-0.28087 0.70025,-0.42897c0.25113,-0.07183 0.51786,-0.16675 0.81554,-0.14996c0.51551,0.02923 0.89251,0.62002 1.03041,1.21892c0.12921,0.56085 0.03171,1.13553 0.12734,1.06894z" data-paper-data="{&quot;index&quot;:null}" fill="#54c81c" stroke="none" stroke-width="0.17188" stroke-linecap="butt"/><path d="M237.63631,184.60801c0.02578,1.17337 -1.13384,2.2116 -1.50887,2.18501l-0.58959,0.10817l-0.83431,-0.4982c-0.21359,-0.12764 1.1622,0.07421 1.49702,-0.29341c0.21853,-0.23978 0.37818,-0.42501 0.4089,-0.51995c0.29144,-0.90534 0.25982,-1.64569 0.08034,-2.1281c-0.28205,-0.75804 -0.84765,-1.00108 -0.47965,-1.17615c0.87749,-0.4177 1.39792,1.04027 1.42618,2.32263z" data-paper-data="{&quot;index&quot;:null}" fill="#ead32e" stroke="none" stroke-width="0.17188" stroke-linecap="butt"/><path d="M245.35438,183.97724c0,0 -0.27119,-0.33806 -0.46275,-0.59878c-0.39961,-0.54387 -1.00188,-0.87097 -0.88638,-1.02341c0.09622,-0.06166 0.59039,0.06807 0.72534,0.19491l0.27415,0.25745c0.48201,0.45287 0.67268,1.11102 0.66487,1.38054c-0.00336,0.11658 0.11994,0.32939 0.07796,0.4591c0,0 -0.31634,-0.40407 -0.3932,-0.66984z" data-paper-data="{&quot;index&quot;:null}" fill="#ead32e" stroke="none" stroke-width="0.17188" stroke-linecap="butt"/><path d="M244.99451,182.6919c0,0 1.04078,-0.03211 1.22741,0.25577c0.12408,0.19117 -0.04554,0.65254 0.0988,0.79767c0.1792,0.18021 0.44733,0.62525 0.5898,0.95265c0.04278,0.29933 0.15027,0.58593 0.02203,0.91986c0.05215,0.29461 -0.68088,0.83629 -0.70755,0.73967l-0.36258,-1.31326c-0.09198,-0.33322 -0.30072,-1.00868 -0.35862,-1.1457z" data-paper-data="{&quot;index&quot;:null}" fill="#54c81c" stroke="none" stroke-width="0.17188" stroke-linecap="butt"/><path d="M240.37711,191.73579h-0.83908" data-paper-data="{&quot;index&quot;:null}" fill="none" stroke="#dfcfa3" stroke-width="0.36953" stroke-linecap="round"/><g data-paper-data="{&quot;index&quot;:null}" stroke="none" stroke-width="0.17188" stroke-linecap="butt"><path d="M239.85042,192.53396c0.01382,0.8194 -0.42937,1.17039 -0.57216,1.05219c-0.331,-0.27379 -1.29763,-3.11124 -1.35077,-4.49891c-0.0334,-0.87701 -0.63376,-2.99506 -0.33677,-3.79772c0.1954,-0.52734 1.03501,-0.61542 1.60817,-0.61025c0.44365,0.00312 0.55966,-0.14634 0.59518,0.2823c0.10722,1.29642 -0.24706,2.57032 -0.23478,4.22249c0.01229,1.65218 0.27297,2.27101 0.29114,3.3499z" fill="#319a2b"/><path d="M238.47855,183.55203c-0.31189,0.40806 -0.67536,0.29939 -0.83338,0.17856c-0.75715,-0.61933 -1.25883,-1.74762 -1.22564,-2.62526c-0.04108,0.17407 0.25944,-0.82404 1.20635,-0.75729c0.41028,0.01119 1.15349,-0.16393 1.81309,-0.18619l0.6319,0.14334c0.29038,0.06576 0.43751,0.47145 0.28712,0.75345c-0.02223,0.04172 0.22173,-0.06644 0.36106,0.06386c0.25078,0.23455 0.45879,0.77254 0.26436,1.01731c-0.17028,0.21479 -0.16828,0.62991 -0.51558,0.82734c-0.46831,0.26622 -0.28326,-0.40998 -0.71177,-0.32709c-0.25471,0.04915 -1.27036,0.9028 -1.2775,0.91197z" fill="#f0e9bb"/><path d="M239.37066,185.04693c-0.28846,0.10418 -1.80071,0.96441 -2.00352,0.7235c-0.35553,-0.47617 0.19028,-1.60608 -0.11481,-2.10657c0.0971,0.1533 0.70465,0.02913 0.70465,0.02913c0.03246,-0.00935 0.49355,-0.20502 0.96421,-0.61926c0.38699,-0.34057 0.77087,-0.71883 0.98655,-0.56806c0.14931,0.10415 0.54701,0.42731 0.55991,0.80355c0.01357,0.39973 0.16624,0.93108 0.06062,1.32971c-0.04569,0.1726 -0.44821,1.15187 -0.53039,1.27274c-0.12525,0.18378 -0.19019,-0.43986 -0.14297,-0.40694c0.23585,0.16437 -0.19201,-0.56324 -0.48424,-0.4578z" fill="#ead42f"/></g><path d="M245.22853,204.23685l1.49753,-0.40651l1.49795,-0.45703l0.50561,0.72908c0,0 -1.26491,0.74731 -2.10652,0.86384c-0.8416,0.11652 -2.52667,0.02516 -2.54663,-0.21982c-0.0609,-0.74747 -0.75078,-2.52116 -0.76676,-2.62509z" data-paper-data="{&quot;index&quot;:null}" fill="#54c81c" stroke="none" stroke-width="0.17188" stroke-linecap="butt"/><path d="M245.97955,202.89309c0.56188,0.3205 2.90822,0.44365 1.68678,0.7627c-1.22143,0.31905 -3.14203,0.98425 -3.35786,0.35163c-0.19986,-0.58616 -0.62116,-1.09339 -0.96132,-2.11135c-0.34016,-1.01797 -1.32099,-4.09402 -1.10125,-5.00529c1.33786,1.63913 1.61662,3.99541 2.50758,4.99968c0.89096,1.00427 0.66422,0.68214 1.22609,1.00264z" data-paper-data="{&quot;index&quot;:null}" fill="#ffffff" stroke="none" stroke-width="0.17188" stroke-linecap="butt"/><path d="M244.20382,204.72039c-0.0132,0.65991 0.7527,1.20804 1.25854,1.86834c0.50584,0.66031 1.5045,1.58142 1.5045,1.58142c0,0 -4.04113,-0.50453 -4.9291,-1.08089c-0.88799,-0.57637 -1.8135,-1.61348 -1.78973,-2.05375c0.04045,-0.74928 -0.49191,-2.90782 -0.49577,-3.01293c-0.00933,-0.25425 3.53006,-0.77101 3.5392,-0.1858z" data-paper-data="{&quot;index&quot;:null}" fill="#54c81c" stroke="none" stroke-width="0.17188" stroke-linecap="butt"/><path d="M242.19872,196.60547c0.58085,0.63319 0.87551,2.8869 0.87551,2.8869c0.29728,0.97143 0.46933,1.31331 0.5153,2.56688c0.04549,1.24047 0.24745,1.13673 0.31649,1.70213c0.06904,0.56539 0.76006,1.58292 0.27235,1.59509c-0.46644,0.01164 -2.46116,-0.42131 -2.98582,-1.09985c-0.25672,-0.33159 -0.79002,0.23586 -0.96305,-0.4182c-0.16021,-0.606 -0.93618,-2.9811 -1.33063,-4.257c-0.39444,-1.2759 0.51999,-2.93393 0.57525,-3.40401c0.03811,-0.3242 0.74291,-0.32361 1.1417,-0.39453c0.17944,-0.03191 0.15903,-0.34333 0.41951,-0.27721c0.83939,0.21305 1.16339,1.0998 1.16339,1.0998z" data-paper-data="{&quot;index&quot;:null}" fill="#ffffff" stroke="none" stroke-width="0.17188" stroke-linecap="butt"/><path d="M240.04633,205.2114c0,0 -1.03271,0.73625 -2.02776,0.99227c-0.99505,0.25602 -2.62666,0.17867 -2.62666,0.17867l-2.7823,-0.48681c0,0 1.26664,-1.08855 1.93356,-1.33574c0.66692,-0.2472 3.41242,-0.3401 3.41996,-0.4602c0.01825,-0.29076 2.3988,-1.05933 2.34188,-0.39157z" data-paper-data="{&quot;index&quot;:null}" fill="#54c81c" stroke="none" stroke-width="0.17188" stroke-linecap="butt"/><g data-paper-data="{&quot;index&quot;:null}" stroke="none" stroke-linecap="butt"><path d="M232.08188,202.15572c0.27719,-0.57786 3.22904,-1.51491 3.89606,-2.32669c1.30135,-1.58376 2.5543,-4.11787 3.58608,-4.00347c0.30196,0.1667 -1.36835,5.6569 -2.50732,7.21117c-0.45051,0.61768 -5.10981,-0.11981 -4.97481,-0.88099z" data-paper-data="{&quot;index&quot;:null}" fill="#ffffff" stroke-width="0.19137"/><path d="M236.13849,202.65189c0.71003,0.25622 1.33837,-0.37571 1.23006,-0.02568c-0.07551,0.24405 -1.51558,0.80445 -2.17044,1.44584c-0.28387,0.27776 -4.35948,-1.63413 -4.35948,-1.63413l1.62062,-0.72053c0,0 2.4524,0.78223 3.16256,1.0385z" data-paper-data="{&quot;index&quot;:null}" fill="#54c81c" stroke-width="0.17188"/></g><path d="M239.95144,195.84664c0.57015,0.02468 0.33237,1.73866 0.36748,2.70013c0.0351,0.96147 -0.13494,3.52847 -0.22488,4.96095c-0.08899,1.41739 -0.51415,0.82569 -1.01343,1.13283c-0.49928,0.30713 -1.38832,0.50452 -1.38832,0.50452c0,0 -0.72276,0.21204 -1.54905,0.22092c-0.82628,0.0089 -2.2755,0.14433 -1.98564,-0.18291c0.72091,-0.81389 2.9918,-3.79017 3.13362,-4.24815c0.39905,-1.28863 1.23332,-3.32399 1.5883,-3.99688c0.35497,-0.67288 0.66974,-1.02211 1.07189,-1.00444z" data-paper-data="{&quot;index&quot;:null}" fill="#ffffff" stroke="none" stroke-width="0.17188" stroke-linecap="butt"/><g data-paper-data="{&quot;index&quot;:null}" stroke="none" stroke-linecap="butt"><path d="M241.10295,192.43367c0.1644,-0.06675 0.32986,0.07367 0.46441,0.35432c0.13454,0.28064 0.23831,0.7017 0.27907,1.19624c0.04078,0.49445 0.01092,0.9696 -0.07011,1.33786c-0.0811,0.36825 -0.21345,0.62947 -0.37783,0.69623c-0.16428,0.06669 -0.32975,-0.07374 -0.4644,-0.35443c-0.13454,-0.28065 -0.23821,-0.70167 -0.27896,-1.19621c-0.04078,-0.49445 -0.01101,-0.96963 0.07011,-1.33786c0.08101,-0.36826 0.21344,-0.62947 0.37772,-0.69617z" fill="#eb3d66" stroke-width="0.01872"/><path d="M241.33066,192.83122c0.07555,-0.02786 0.15776,0.03581 0.22956,0.16125c0.0719,0.12547 0.1333,0.31267 0.16729,0.53178c0.03407,0.21915 0.03413,0.42899 0.0069,0.59104c-0.02728,0.16212 -0.08187,0.27643 -0.1574,0.30428c-0.07546,0.02799 -0.15768,-0.03579 -0.22957,-0.16124c-0.0719,-0.12548 -0.13331,-0.31267 -0.16731,-0.53169c-0.03397,-0.21911 -0.03411,-0.42909 -0.00685,-0.59112c0.02729,-0.16212 0.08186,-0.27632 0.15743,-0.30428z" fill="#ffffff" stroke-width="0.01896"/></g><path d="M245.78162,188.42078l0.05378,-0.20263l0.88618,0.02564z" data-paper-data="{&quot;index&quot;:null}" fill="#000000" stroke="none" stroke-width="0" stroke-linecap="butt"/><path d="M240.08418,195.66893c0.53775,0 0.75493,-0.34217 0.91118,-0.04276c0.08069,0.15462 -0.4798,0.49821 -1.01645,0.46382c-0.60418,-0.17263 -1.31831,0.15139 -1.31831,0.15139l0.19661,-0.60534c0,0 0.68922,0.03289 1.22697,0.03289z" data-paper-data="{&quot;index&quot;:null}" fill="#ead42f" stroke="none" stroke-width="0" stroke-linecap="butt"/></g></g></svg>