<svg version="1.1" xmlns="http://www.w3.org/2000/svg" xmlns:xlink="http://www.w3.org/1999/xlink" width="51.11303" height="86.42745" viewBox="0,0,51.11303,86.42745"><g transform="translate(-211.26514,-120.19332)"><g data-paper-data="{&quot;isPaintingLayer&quot;:true}" fill-rule="nonzero" stroke-linejoin="miter" stroke-miterlimit="10" stroke-dasharray="" stroke-dashoffset="0" style="mix-blend-mode: normal"><g><path d="M249.08184,174.63065c-2.62613,0.50304 -6.27835,-4.28025 -8.15747,-10.68377c-1.00365,-3.42015 -1.29849,-6.61076 -0.95525,-8.91801c0.01759,-0.11824 0.12643,-2.77128 0.14736,-2.88479c0.33536,-1.81861 1.00885,-0.48203 2.16047,-0.70263c1.11398,-0.21338 0.89227,-1.48409 2.16184,-0.07489c0.2072,0.22997 1.93393,2.48637 2.13864,2.75088c0.47671,0.61596 0.94417,1.32228 1.39069,2.10361c0.95672,1.67408 1.81726,3.69249 2.46628,5.90418c1.87912,6.40352 1.27355,12.00239 -1.35259,12.50543z" fill="#462fb6" stroke="none" stroke-width="0" stroke-linecap="butt"/><path d="M242.00054,167.02373c0,0 1.16737,1.73907 5.06497,0.90722c2.36128,-0.50396 4.17905,-2.54346 4.17905,-2.54346c0,0 0.16263,1.27294 0.24168,2.0382c0.11492,1.11256 0.0734,1.9902 0.0734,1.9902c0,0 -0.92481,1.54926 -2.91911,2.21085c-1.76592,0.58582 -4.09383,0.04002 -4.09383,0.04002c0,0 -0.66791,-0.66789 -1.27364,-1.90056c-0.42627,-0.86748 -1.27252,-2.74244 -1.27252,-2.74244z" fill="#0d0627" stroke="none" stroke-width="0" stroke-linecap="butt"/><path d="M240.26489,161.04836c0,0 1.01222,1.04966 4.9098,0.2178c2.36128,-0.50396 4.12238,-2.10704 4.12238,-2.10704c0,0 0.56097,1.10922 0.7663,1.7297c0.20533,0.62049 0.35987,1.50205 0.35987,1.50205c0,0 -2.20502,1.78362 -4.19932,2.44521c-1.76592,0.58582 -5.03898,-0.07072 -5.03898,-0.07072c0,0 -0.37165,-1.08008 -0.5454,-1.78201c-0.17374,-0.70192 -0.37466,-1.93499 -0.37466,-1.93499z" fill="#0d0627" stroke="none" stroke-width="0" stroke-linecap="butt"/><path d="M240.01399,155.29102c0,0 0.57684,1.02191 3.39926,0.48942c2.36128,-0.50396 3.30433,-1.45315 3.30433,-1.45315c0,0 0.53468,0.6473 0.78544,1.05572c0.25076,0.40842 0.81485,1.6214 0.81485,1.6214c0,0 -2.29297,1.4011 -4.01109,1.79229c-1.71813,0.39119 -4.37521,0.11712 -4.37521,0.11712c0,0 -0.02958,-0.92952 -0.09374,-1.75485c-0.05605,-0.72093 0.17616,-1.86797 0.17616,-1.86797z" fill="#0d0627" stroke="none" stroke-width="0" stroke-linecap="butt"/><path d="M239.69974,152.01889c0,0 -1.60551,-0.73188 -2.04315,-1.57613c-0.34505,-0.66564 0.36773,-1.48154 0.56558,-1.49271c0.08312,-0.00469 -1.26336,-1.47828 -0.91031,-2.22191c0.55756,-1.17439 1.67458,-0.48953 1.67458,-0.48953c0,0 0.30271,-0.58246 0.76559,-0.69836c0.46289,-0.1159 1.04459,-0.04056 1.1712,0.21342c0.07056,0.14154 -0.14592,-0.35865 0.27085,-0.51189c0.41676,-0.15324 1.13815,-0.00619 1.13815,-0.00619c0,0 0.27421,-0.32542 0.64381,-0.44913c1.16165,-0.38879 0.97521,1.4338 1.11768,2.45649c0.21841,1.56768 -0.12736,2.74406 -0.14145,2.89049c-0.02968,0.30842 1.67837,0.91394 1.41807,1.32773c-0.31225,0.49639 -0.90852,1.74363 -1.79465,1.84122c-0.37108,0.04086 -0.90452,-0.40024 -1.20375,-0.63442c-0.49842,-0.39009 0.44747,0.81688 -0.34396,1.12175c-0.79143,0.30487 -2.18845,-0.25693 -2.18845,-0.25693l-0.13979,-1.51388z" fill="#c08f5a" stroke="none" stroke-width="0" stroke-linecap="butt"/><path d="M238.27023,148.83867c0,0 0.67173,0.13652 1.33958,-0.01778c0.62459,-0.14432 1.24349,-0.58376 1.37074,-0.486c0.12625,0.09699 1.48351,0.04312 0.34894,1.22367c-0.39049,0.40632 -1.41171,0.54585 -1.41171,0.54585" fill="none" stroke="#b26a37" stroke-width="1.5" stroke-linecap="round"/><path d="M239.05365,146.34877l0.47315,0.67983" fill="none" stroke="#b26a37" stroke-width="0.5" stroke-linecap="round"/><path d="M241.03676,145.85643l0.29228,0.36394" fill="none" stroke="#b26a37" stroke-width="0.5" stroke-linecap="round"/><path d="M242.42394,145.39767l0.29534,0.41813" fill="none" stroke="#b26a37" stroke-width="0.5" stroke-linecap="round"/><path d="M243.50001,147.13047c0,0 -0.23072,0.54476 -0.51154,0.61236c-0.30671,0.07384 -0.97176,0.06919 -0.97176,0.06919" fill="none" stroke="#b26a37" stroke-width="0.5" stroke-linecap="round"/><path d="M243.89405,150.26047c0,0 -1.16463,1.00675 -1.85289,1.32065c-0.67125,0.30614 -2.22695,0.54006 -2.22695,0.54006" fill="none" stroke="#b26a37" stroke-width="1" stroke-linecap="round"/></g><g stroke="none" stroke-width="0" stroke-linecap="butt"><path d="M245.67524,189.37063c5.18298,-0.28177 2.30035,5.28801 3.01624,5.72342c3.10131,1.88617 6.30259,4.53704 4.63252,7.44984c-0.63489,1.10732 -3.96363,-1.48076 -7.06496,-3.36693c-2.34742,-1.42767 -4.70062,-4.54649 -5.35877,-6.14386c-0.21137,-0.51301 1.91246,-3.30735 4.77498,-3.66246z" fill="#09031a"/><path d="M244.16804,195.27625c0,0 1.82607,-2.58939 4.46408,-1.35835c0.02626,0.01225 1.67111,0.95586 2.58505,1.89227c0.9428,0.966 0.71071,1.80166 0.71071,1.80166c0,0 -2.20979,-1.15245 -3.20643,-1.31611c-0.99666,-0.16366 -2.21287,0.42623 -2.21287,0.42623z" fill="#b16e27"/><path d="M247.99773,199.86242c2.6914,1.72185 5.29358,2.76299 5.29358,2.76299c0,0 0.82545,2.58154 -4.88739,-1.09579c-1.03347,-0.66525 -3.80119,-2.47287 -4.94521,-3.51899c-1.82999,-1.67334 -2.82198,-5.08003 -2.7072,-5.26876c0.12681,-0.20852 1.57412,1.96982 3.74953,4.1933c1.02466,1.0473 2.21086,2.10462 3.49669,2.92725z" fill="#a75c1e"/><path d="M243.07374,195.57437c0.37931,-0.62367 1.46589,-0.65542 2.42696,-0.0709c0.96107,0.5845 1.43268,1.56394 1.05337,2.1876c-0.37931,0.62367 -1.46589,0.65543 -2.42696,0.0709c-0.96107,-0.5845 -1.43268,-1.56394 -1.05337,-2.1876z" fill="#999999"/><path d="M244.03963,196.23789c0.11192,-0.18404 0.54887,-0.12266 0.97594,0.13707c0.42708,0.25974 0.68254,0.61948 0.5706,0.80351c-0.11192,0.18404 -0.54887,0.12266 -0.97594,-0.13707c-0.42708,-0.25974 -0.68254,-0.61948 -0.5706,-0.80351z" fill="#b16e27"/></g><g stroke="none" stroke-linecap="butt"><path d="M220.5493,193.04374c-1.11138,-0.68971 -3.90843,-3.49274 -3.90843,-3.49274c0,0 -1.48412,-0.90046 -2.44703,-1.28391c-1.18302,-0.47112 -2.92869,-0.89724 -2.92869,-0.89724c0,0 0.95511,-0.41097 1.84449,-0.60952c0.88937,-0.19855 2.29681,-0.42052 2.29681,-0.42052c0,0 -0.96402,-0.78991 -1.59336,-1.53422c-0.62934,-0.74431 -1.43335,-2.04534 -1.43335,-2.04534c0,0 0.63457,-0.12087 1.99798,0.15303c1.3634,0.2739 3.43745,0.93888 3.43745,0.93888l-2.37167,-3.91647c0,0 1.046,0.24565 2.34924,0.84604c1.30324,0.60038 3.24393,1.73064 3.24393,1.73064c0,0 0.96318,-0.99095 1.38111,-1.5967c0.53278,-0.77219 1.55549,-2.65953 1.55549,-2.65953c0,0 -0.07499,2.49809 -0.19588,3.542c-0.09506,0.82073 -0.47081,2.21449 -0.47081,2.21449c0,0 1.27675,1.6529 1.48746,3.58647c0.02846,0.26114 1.09224,0.58694 1.96911,-0.03223c0.66027,-0.46623 0.88446,1.57488 1.51984,2.27821c1.12017,1.23996 2.07397,1.62829 2.07397,1.62829c0,0 -2.38439,3.92309 -4.42519,3.8435c-1.66174,-0.0648 -4.27115,-1.58343 -5.38251,-2.27313z" fill="#1c0e4c" stroke-width="NaN"/><path d="M219.49625,192.11439c0,0 -0.76291,-3.15315 1.17688,-4.97126c1.70325,-1.59642 3.92661,-0.3628 3.92661,-0.3628l0.21506,0.79533c0,0 -0.89632,0.51652 -1.53165,1.25786c-0.68861,0.80349 -0.7834,1.9945 -0.7458,2.52031c0.10564,1.47709 0.4306,2.98323 0.4306,2.98323c0,0 -1.22154,-0.55049 -1.79357,-0.9167c-0.58492,-0.37449 -1.67812,-1.30595 -1.67812,-1.30595z" fill="#684af8" stroke-width="0"/><path d="M226.97007,187.69741c0,0 0.38472,0.54585 1.90371,2.42198c0.39678,0.49006 1.45416,1.42745 1.45416,1.42745c0,0 -0.48764,0.73898 -0.90088,1.23059c-0.47372,0.56357 -0.97481,1.16788 -1.05932,1.1739c-0.26111,0.01868 -2.26345,-1.46475 -2.37764,-3.06121c-0.11419,-1.59644 0.97997,-3.19272 0.97997,-3.19272z" fill="#684af8" stroke-width="0"/></g><g stroke="none" stroke-width="0" stroke-linecap="butt"><path d="M234.60915,161.62034c0,0.41088 -1.96606,2.78826 -1.96606,2.78826c0,0 -3.66162,-2.88398 -7.76875,-4.67641c-3.17234,-1.55033 -8.45633,-3.57609 -8.22584,-3.77114c0.60257,-0.50997 8.06573,0.79335 11.55334,1.82883c4.08072,1.21157 6.40734,2.8988 6.40734,3.83047z" data-paper-data="{&quot;index&quot;:null}" fill="#ffffff"/><path d="M228.95065,157.15321c0.3436,0.45814 0.78219,1.24154 0.78219,1.24154c0,0 -3.79742,-1.05684 -6.82245,-1.66541c-2.95211,-0.59391 -6.59938,-0.70847 -6.34046,-0.88048c0.77855,-0.5173 3.28055,-0.32502 6.39185,-0.32502c3.1113,0 5.3085,0.43334 5.3085,0.43334c0,0 0.33676,0.7379 0.68035,1.19604z" fill="#1a0c47"/><path d="M235.08703,160.70209c-0.09541,0.07258 -0.53249,0.68771 -0.96362,1.41021c-0.67198,1.12614 -1.4069,2.51313 -1.4069,2.51313c0,0 -1.9331,-1.91451 -2.66902,-2.73632c-0.73591,-0.82181 -3.03978,-2.63644 -2.88969,-2.7579c0.12957,-0.10484 2.58298,-0.01287 3.87569,0.1285c2.03411,0.22242 4.23835,1.30179 4.05353,1.44239z" data-paper-data="{&quot;index&quot;:null}" fill="#e8e8e8"/><path d="M238.40614,160.08301c0,0 -1.3426,0.11831 -2.21398,0.38915c-0.87139,0.27083 -1.68614,0.85672 -1.68614,0.85672c0,0 -1.39122,-1.28352 -2.19412,-1.79754c-0.80291,-0.51402 -2.77171,-1.21906 -2.77171,-1.21906l-1.66077,-2.34606c0,0 2.67321,0.03994 5.34462,1.17365c1.75475,0.7447 5.18211,2.94315 5.18211,2.94315z" data-paper-data="{&quot;index&quot;:null}" fill="#684af8"/></g><path d="M226.75207,165.34096c0,-0.46371 1.56752,-1.38129 3.03343,-1.38129c1.46589,0 2.49175,0.29792 2.49175,0.29792c0,0 3.46962,3.22473 3.01761,3.81988c-0.28609,0.37669 -3.92875,1.84972 -4.74532,1.77132c-0.09039,-0.00868 -1.25138,1.04237 -1.25138,1.04237c0,0 -0.23224,-0.66072 -0.03362,-1.35095c0.16416,-0.57043 0.6384,-1.279 0.50401,-1.17296c-0.75665,0.5971 -1.79931,1.22239 -1.79931,1.22239c0,0 -0.013,-0.53248 0.25799,-1.12292c0.2209,-0.48132 0.89096,-0.99038 0.79909,-0.99112c-0.4678,-0.0038 -1.41459,-0.55273 -1.41459,-0.55273c0,0 0.41265,-0.30923 0.65226,-0.65383c0.2396,-0.3446 0.87151,-0.63016 0.87151,-0.63016c0,0 -0.63671,-0.11725 -1.11894,-0.24933c-0.40474,-0.11087 -1.26447,0.21718 -1.26447,0.00558z" fill="#5133c8" stroke="none" stroke-width="NaN" stroke-linecap="butt"/><g stroke="none" stroke-width="0" stroke-linecap="butt"><path d="M257.93647,155.87595c0,0.52067 -4.37005,1.59543 -5.5974,2.02229c-2.71422,0.94398 -3.64734,1.37225 -3.64734,1.37225l1.26392,-2.74452c0,0 2.36125,-0.80361 4.29104,-0.72034c2.0903,0.09017 3.68976,-0.15708 3.68976,-0.07413z" fill="#1a0c47"/><path d="M248.62795,159.41494c3.32235,-1.48242 8.72986,-3.83745 9.33243,-3.32748c0.23048,0.19507 -5.05352,3.34029 -6.97997,4.56562c-3.06079,1.94682 -4.96801,4.66156 -4.96801,3.72988c0,-0.93169 -0.7068,-3.4856 2.61555,-4.96801z" fill="#ffffff"/><path d="M248.15524,159.74512c0.1501,0.12145 -0.57138,1.26174 -1.1563,2.36066c-0.60765,1.14163 -0.98979,2.30299 -0.98979,2.30299c0,0 -0.88052,-1.95006 -1.12463,-2.13578c-0.31746,-0.24152 2.96066,-2.77877 3.27074,-2.52786z" fill="#e8e8e8"/><path d="M241.90266,160.42611c0,0 1.46345,-1.77332 3.214,-2.52786c1.75053,-0.75454 4.52137,-1.85681 5.23628,-1.22782c0.14918,0.13125 -0.40286,1.28133 -1.17327,2.07523c-0.75948,0.78261 -1.73323,1.20686 -2.17585,1.65242c-0.92482,0.93093 -2.03161,1.68921 -2.03161,1.68921c0,0 -0.58638,-0.59468 -1.2528,-1.02826c-0.66642,-0.43358 -1.74452,-0.63291 -1.74452,-0.63291z" fill="#684af8"/></g><g stroke="none" stroke-width="0" stroke-linecap="butt"><path d="M225.31735,179.52046c0.36043,-4.66606 6.5914,-14.1091 13.99366,-14.13794c6.10435,-0.02377 11.81372,6.22202 13.99366,14.13794c-0.10834,8.89153 -6.26517,14.13794 -13.99366,14.13794c-7.72848,0 -13.88533,-2.53798 -13.99366,-14.13794z" fill="#684af8"/><path d="M234.65598,168.9143c0,0 2.20158,-0.10721 3.59136,0.18181c1.38978,0.28904 2.31299,0.8582 2.31299,0.8582c0,0 2.22717,-0.93567 3.57933,-0.99653c1.55535,-0.07 2.22809,0.44064 2.22809,0.44064c0,0 0.13407,-0.30266 0.5254,-0.74405c0.39133,-0.44138 0.77571,-1.51882 0.77571,-1.51882l0.97894,3.08726c0,0 0.79898,-0.12305 1.33468,-0.16474c0.53571,-0.04168 1.60924,0.31272 1.60924,0.31272c0,0 -0.73606,0.58774 -1.16068,1.31092c-0.2668,0.45441 -0.3571,0.42118 -0.3571,0.42118l0.1949,0.54632l1.61514,-1.27856c0,0 -0.06023,1.1091 -0.29447,1.73938c-0.16729,0.4501 -0.54837,0.988 -0.54837,0.988c0,0 2.22143,1.38603 1.89712,6.76798c-0.22753,3.77577 -1.07683,6.32215 -5.00841,9.14866c-1.52416,1.09575 -6.54941,3.24571 -8.34479,0.37675c-2.27487,-3.63519 -0.31281,-11.60182 -1.30992,-12.84425c-1.18106,-1.47165 -3.86833,-1.67045 -3.86833,-1.67045c0,0 1.17145,-0.61874 1.56007,-0.77968c0.64078,-0.26538 0.89903,-0.2716 0.89903,-0.2716c0,0 -0.6695,-0.8027 -1.89919,-1.66228c-0.90943,-0.63572 -1.25295,-0.9363 -1.25295,-0.9363c0,0 0.72078,-0.34737 1.16733,-0.39691c1.44496,-0.16031 2.07278,0.17785 2.07278,0.17785c0,0 -0.78905,-1.2039 -1.33807,-1.94301c-0.54901,-0.7391 -0.95983,-1.15049 -0.95983,-1.15049z" fill="#ffffff"/></g><g><path d="M232.76626,163.938c0,-2.09415 3.05576,-3.79179 6.82522,-3.79179c3.76946,0 6.80841,1.69771 6.82522,3.79179c0.02167,2.70083 -3.05576,3.79179 -6.82522,3.79179c-3.76946,0 -6.82522,-1.69765 -6.82522,-3.79179z" fill="#684af8" stroke="none" stroke-width="0" stroke-linecap="butt"/><path d="M242.78741,163.77551c-0.47522,0.02972 -1.46672,-1.43308 -2.3224,-2.07341c-1.38306,-1.03501 -1.98399,-1.47462 -1.98399,-1.47462c0,0 0.92099,-0.11252 2.03167,-0.10594c1.38153,0.00817 1.73302,0.29553 1.73302,0.29553c0,0 1.40766,3.30427 0.54168,3.35843z" fill="#1c0e4c" stroke="none" stroke-width="0" stroke-linecap="butt"/><path d="M245.8907,164.01153c0.24565,1.07198 -0.07901,2.38102 -0.77854,2.54963c-0.69953,0.16861 -1.50909,-0.86706 -1.75474,-1.93904c-0.24565,-1.07198 0.12234,-2.07769 0.82188,-2.2463c0.69953,-0.16861 1.46577,0.56372 1.7114,1.6357z" fill="#1c0e4c" stroke="none" stroke-width="0" stroke-linecap="butt"/><g stroke="none" stroke-width="0" stroke-linecap="butt"><path d="M243.87078,165.37347c0,-0.37396 0.30315,-0.67711 0.67711,-0.67711c0.37396,0 0.67711,0.30315 0.67711,0.67711c0,0.37396 -0.30315,0.67711 -0.67711,0.67711c-0.37396,0 -0.67711,-0.30315 -0.67711,-0.67711z" fill="#ffff9b"/><path d="M244.26845,165.38959c0,-0.16323 0.13232,-0.29556 0.29556,-0.29556c0.16323,0 0.29556,0.13232 0.29556,0.29556c0,0.16323 -0.13232,0.29556 -0.29556,0.29556c-0.16323,0 -0.29556,-0.13232 -0.29556,-0.29556z" fill="#000000"/></g><path d="M241.21326,163.23595c1.19473,1.37948 1.40077,3.15812 0.46021,3.9727c-0.94056,0.81459 -2.67153,0.35666 -3.86626,-1.02283c-1.19473,-1.37948 -1.40077,-3.15812 -0.46021,-3.9727c0.94056,-0.81459 2.67153,-0.35666 3.86626,1.02283z" fill="#1c0e4c" stroke="none" stroke-width="0" stroke-linecap="butt"/><g stroke="none" stroke-width="0" stroke-linecap="butt"><path d="M239.754,165.83389c0,-0.53849 0.43654,-0.97504 0.97504,-0.97504c0.53849,0 0.97504,0.43654 0.97504,0.97504c0,0.53849 -0.43654,0.97504 -0.97504,0.97504c-0.53849,0 -0.97504,-0.43654 -0.97504,-0.97504z" fill="#ffff9b"/><path d="M240.32663,165.8571c0,-0.23506 0.19055,-0.4256 0.4256,-0.4256c0.23506,0 0.4256,0.19055 0.4256,0.4256c0,0.23506 -0.19055,0.4256 -0.4256,0.4256c-0.23506,0 -0.4256,-0.19055 -0.4256,-0.4256z" fill="#000000"/></g><path d="M231.36205,163.5999c1.95131,0.25914 1.71262,0.81235 1.71262,0.81235c0,0 -0.70402,-0.89763 -1.02809,-1.29755c-0.36325,-0.44828 -1.04732,-1.26368 -1.04732,-1.26368c0,0 1.09132,-0.14527 2.64227,1.34669c0.79448,0.76426 1.49815,1.62897 1.49815,1.62897c0,0 0.27689,-0.00129 1.69427,0.59496c1.41739,0.59624 2.16718,1.57759 3.65819,1.63383c0.9545,-0.01867 2.29901,-1.06354 3.00891,-1.07548c0.42795,-0.0072 1.19688,0.06959 1.2874,0.42682c0.00817,0.03223 0.22676,0.00556 0.59655,-0.42204c0.21725,-0.25121 0.52722,-0.69125 0.769,-0.94511c0.47314,-0.49677 0.70087,-1.10944 0.70087,-1.10944l-0.07519,1.85186c0,0 0.18624,-0.12347 0.42046,-0.17394c0.23423,-0.05046 1.00203,0.21148 1.00203,0.21148l-1.25639,1.09342l0.78111,0.58625c0,0 -1.16191,0.22677 -1.3722,0.11522c-0.21029,-0.11156 -0.23316,-0.21157 -0.23316,-0.21157c0,0 -0.40992,0.36217 -0.83344,0.58563c-0.42352,0.22347 -1.21844,0.23155 -1.21844,0.23155c0,0 -0.36812,0.22782 -0.7381,0.23412c-8.00971,0.69896 -9.45483,-1.69951 -9.45483,-1.69951c0,0 -0.94915,-0.01081 -1.98266,-0.03498c-1.03351,-0.02417 -2.64873,0.03498 -2.64873,0.03498c0,0 0.98503,-0.77243 1.55599,-1.01073c0.57094,-0.23831 1.55869,-0.28931 1.55869,-0.28931c0,0 -0.57182,-0.40532 -1.36123,-0.80948c-0.7894,-0.40417 -2.0243,-1.17689 -2.0243,-0.9239c0,0.09739 0.43626,-0.38058 2.38756,-0.12143z" fill="#ffffff" stroke="none" stroke-width="0" stroke-linecap="butt"/><path d="M243.6247,166.78357c0,-0.17285 0.21765,-0.25037 0.56335,-0.25037c0.3457,0 0.56335,0.07753 0.56335,0.25037c0,0.17285 -0.3637,0.39309 -0.56335,0.39309c-0.17878,0 -0.56335,-0.22024 -0.56335,-0.39309z" fill="#000000" stroke="none" stroke-width="0" stroke-linecap="butt"/><path d="M246.07312,167.25903c0,0 -0.51725,0.68591 -1.04027,0.80057c-0.41924,0.09192 -1.27237,-0.29948 -1.73654,-0.13439c-0.56939,0.20251 -0.96866,0.57102 -1.31149,0.62355c-0.52026,0.07972 -1.22019,-0.03304 -1.22019,-0.03304" fill="none" stroke="#000000" stroke-width="0.5" stroke-linecap="round"/></g><g stroke="none" stroke-width="0" stroke-linecap="butt"><path d="M227.14153,202.35697c-0.08192,-1.36791 1.37507,-2.30877 2.33621,-4.08594c0.73148,-1.3525 1.90782,-5.56485 2.54948,-5.64334c0.33691,-0.04121 -2.06842,-1.41274 -1.57229,-1.43292c0.86886,-0.03535 5.97987,-0.26542 7.5237,0.38042c1.45952,0.61057 -0.62435,2.07063 -0.51429,2.97056c0.20216,1.65286 0.40536,5.85793 -1.22036,8.51799c-0.73034,1.19503 -3.43201,2.2742 -3.89227,2.33049c-1.84321,0.22544 -5.00077,0.4598 -5.21021,-3.03724z" fill="#1c0e4c"/><path d="M229.00384,198.33808c0,0 0.19045,-3.67634 3.90421,-3.77367c7.34116,-0.19242 5.17056,5.15222 5.17056,5.15222c0,0 -3.09972,-2.31566 -5.50103,-2.14308c-2.40131,0.17259 -3.57373,0.76454 -3.57373,0.76454z" fill="#f0993f"/><path d="M229.61469,196.55253c0.29566,0.04559 0.43188,0.75366 0.30422,1.58155c-0.12764,0.82787 -0.47083,1.46204 -0.7665,1.41645c-0.29566,-0.04559 -0.43188,-0.75366 -0.30422,-1.58155c0.12764,-0.82787 0.47083,-1.46204 0.7665,-1.41645z" fill="#c3c3c3"/><path d="M237.88472,198.84537c-0.61173,3.92196 0.47231,6.87071 -6.00274,7.67576c-5.71153,0.71012 -4.37911,-2.60775 -4.37911,-2.60775c0,0 1.71513,1.75481 4.83926,1.3727c1.37931,-0.16871 2.90513,-1.01527 3.72617,-2.37641c1.01523,-1.68306 1.16556,-3.92491 1.16556,-3.92491c0,0 0.69302,-0.40979 0.65085,-0.1394z" fill="#f0993f"/><g><path d="M238.98297,198.18716c0.15399,1.25907 -0.20261,2.33864 -0.79652,2.41127c-0.5939,0.07264 -1.20018,-0.88915 -1.35419,-2.14822c-0.15399,-1.25907 0.20261,-2.33864 0.79652,-2.41127c0.5939,-0.07264 1.20018,0.88914 1.35419,2.14822z" fill="#c3c3c3"/><path d="M238.05199,197.92993c0.05665,0.46324 -0.07454,0.86045 -0.29306,0.88716c-0.21851,0.02673 -0.44157,-0.32714 -0.49824,-0.79038c-0.05665,-0.46324 0.07454,-0.86045 0.29306,-0.88716c0.21851,-0.02673 0.44157,0.32714 0.49824,0.79038z" fill="#dd6c23"/></g></g><g stroke="none" stroke-width="0" stroke-linecap="butt"><path d="M248.93552,184.11753c2.86249,-0.89611 4.25222,-2.89801 4.25222,-2.89801c0,0 0.33382,2.88498 -0.59763,4.21299c-0.24236,0.34554 -1.05934,1.326 -2.24418,1.93713c-1.91594,0.98823 -4.66052,1.62304 -4.66052,1.62304c0,0 0.29131,-1.98065 0.28367,-2.08146c-0.04953,-0.65293 -0.3649,-1.84574 -0.3649,-1.84574c0,0 1.28727,-0.30804 3.33136,-0.94794z" fill="#f0993f"/><path d="M246.77884,186.56219c0,-0.36121 0.2259,-0.65403 0.50454,-0.65403c0.27865,0 0.50454,0.29282 0.50454,0.65403c0,0.36121 -0.2259,0.65403 -0.50454,0.65403c-0.27865,0 -0.50454,-0.29282 -0.50454,-0.65403z" fill="#a94a00"/><path d="M246.8087,186.55217c0,-0.20792 0.13003,-0.37647 0.29042,-0.37647c0.1604,0 0.29042,0.16856 0.29042,0.37647c0,0.20792 -0.13003,0.37647 -0.29042,0.37647c-0.1604,0 -0.29042,-0.16856 -0.29042,-0.37647z" fill="#ffffff"/><path d="M249.07559,185.78218c0,-0.36121 0.2259,-0.65403 0.50454,-0.65403c0.27865,0 0.50454,0.29282 0.50454,0.65403c0,0.36121 -0.2259,0.65403 -0.50454,0.65403c-0.27865,0 -0.50454,-0.29282 -0.50454,-0.65403z" fill="#a94a00"/><path d="M249.09116,185.77412c0,-0.20792 0.13003,-0.37647 0.29042,-0.37647c0.1604,0 0.29042,0.16856 0.29042,0.37647c0,0.20792 -0.13003,0.37647 -0.29042,0.37647c-0.1604,0 -0.29042,-0.16856 -0.29042,-0.37647z" fill="#ffffff"/></g><g stroke="none" stroke-width="0" stroke-linecap="butt"><path d="M238.20817,185.58838c0.11369,1.11108 0.47668,3.84235 0.47668,3.84235c0,0 -2.66849,0.19997 -4.36624,0.0544c-1.69776,-0.14556 -2.6053,-0.11112 -4.19641,-0.55702c-1.5911,-0.44587 -3.03288,-1.28798 -3.36882,-1.56302c-0.70976,-0.5811 -1.1267,-3.95791 -1.1267,-3.95791c0,0 3.45677,0.95857 7.08177,1.54728c2.51883,0.40907 5.48196,0.46027 5.49973,0.6339z" fill="#f0993f"/><g><g><path d="M233.90241,192.33727c0.28943,-1.40692 4.26548,-6.47312 4.98349,-6.47312c0.47847,0 0.59731,1.49309 1.0479,3.57106c0.11225,0.51772 -0.35977,1.00335 -0.77485,1.90528c-0.41894,0.91033 -0.78187,2.2356 -0.86891,2.45932c-0.19395,0.49852 -3.25011,1.7063 -3.25011,1.7063c0,0 -1.29641,-2.3965 -1.13754,-3.16886z" fill="#f0993f"/><g><path d="M238.00133,187.87187c-0.50684,-2.23689 0.89563,-4.46112 3.13251,-4.96796c2.23689,-0.50684 4.46112,0.89563 4.96796,3.13251c0.50684,2.23689 -0.89563,4.46112 -3.13251,4.96796c-2.23689,0.50684 -4.46112,-0.89563 -4.96796,-3.13251z" fill="#fde02b"/><path d="M240.34407,187.20698c-0.23536,-1.03876 0.4159,-2.07164 1.45466,-2.30701c1.03876,-0.23536 2.07164,0.4159 2.30701,1.45466c0.23536,1.03876 -0.4159,2.07164 -1.45466,2.30701c-1.03876,0.23536 -2.07164,-0.4159 -2.30701,-1.45466z" fill="#f4a51d"/><path d="M242.72191,186.77357c0.09867,0.43542 -0.56569,0.95707 -1.48389,1.16513c-0.9182,0.20805 -1.74252,0.02372 -1.84118,-0.41171c-0.09867,-0.43542 0.56569,-0.95707 1.48389,-1.16512c0.9182,-0.20805 1.74252,-0.02372 1.84118,0.41171z" fill="#fffed5"/></g></g><g><path d="M235.66949,192.18969c0,-0.3949 0.32013,-0.71502 0.71502,-0.71502c0.3949,0 0.71502,0.32013 0.71502,0.71502c0,0.3949 -0.32013,0.71502 -0.71502,0.71502c-0.3949,0 -0.71502,-0.32013 -0.71502,-0.71502z" fill="#934200"/><path d="M235.71283,192.08135c0,-0.19147 0.15521,-0.34669 0.34669,-0.34669c0.19147,0 0.34669,0.15521 0.34669,0.34669c0,0.19147 -0.15521,0.34669 -0.34669,0.34669c-0.19147,0 -0.34669,-0.15521 -0.34669,-0.34669z" fill="#1c0e4c"/></g><g><path d="M236.96953,190.19628c0,-0.3949 0.32013,-0.71502 0.71502,-0.71502c0.3949,0 0.71502,0.32013 0.71502,0.71502c0,0.3949 -0.32013,0.71502 -0.71502,0.71502c-0.3949,0 -0.71502,-0.32013 -0.71502,-0.71502z" fill="#934200"/><path d="M237.01286,190.08794c0,-0.19147 0.15521,-0.34669 0.34669,-0.34669c0.19147,0 0.34669,0.15522 0.34669,0.34669c0,0.19147 -0.15521,0.34669 -0.34669,0.34669c-0.19147,0 -0.34669,-0.15521 -0.34669,-0.34669z" fill="#684af8"/></g></g></g><g fill="#000000" stroke-width="0" stroke-linecap="butt"><path d="M236.50363,146.78697v-22.78335h1.78404v22.78335z" stroke="#b26a37"/><path d="M236.47441,146.45076l1.81767,0.18227c0,0 -0.25109,2.88158 2.14066,2.97585c2.38279,0.09392 2.80116,-3.06829 2.80116,-3.06829c0,0 0.04483,-0.66431 0.50503,-0.67959c0.5814,-0.01931 0.65215,0.58975 0.65215,0.58975c0,0 -0.01401,0.4058 -0.04106,0.60253c-0.2773,2.01628 -1.92549,3.56525 -3.91727,3.56525c-1.95684,0 -3.58202,-1.49509 -3.90141,-3.45955c-0.03743,-0.23018 -0.05692,-0.70822 -0.05692,-0.70822z" stroke="none"/></g><g stroke="none" stroke-width="0" stroke-linecap="butt"><path d="M231.85923,136.8212l5.2228,-15.58455l0.93318,-0.52212l5.4225,16.10667z" fill="#462fb6"/><path d="M212.42712,130.92552l25.28888,-9.18165l-16.80808,12.9949z" fill="#462fb6"/><path d="M254.01317,134.66977l-16.11338,-12.74456l24.47839,9.13839z" data-paper-data="{&quot;index&quot;:null}" fill="#462fb6"/><path d="M220.85968,134.6815l16.67302,-13.59747l-5.67345,15.73716z" fill="#d9874c"/><path d="M243.20615,136.8212l-5.44189,-15.67636l16.32567,13.53666z" data-paper-data="{&quot;index&quot;:null}" fill="#d9874c"/></g><path d="M235.4403,122.81577l1.39535,-2.60078l1.61091,-0.02166l1.14731,2.62244z" fill="#000000" stroke="none" stroke-width="0" stroke-linecap="butt"/><g><g data-paper-data="{&quot;index&quot;:null}" stroke="none" stroke-width="0" stroke-linecap="butt"><path d="M233.35192,175.90022c-2.49383,-0.96455 -3.05752,-6.95628 -1.259,-13.38291c0.96059,-3.43249 2.40077,-6.2948 3.91416,-8.06987c0.07756,-0.09097 1.57532,-2.28349 1.6532,-2.36867c1.24785,-1.3648 1.11102,0.12561 2.20463,0.54859c1.05785,0.40915 1.54297,-0.78606 1.87325,1.08172c0.0539,0.30481 0.3231,3.13331 0.3566,3.46612c0.07801,0.77496 0.10032,1.62168 0.06513,2.52091c-0.0754,1.9267 -0.41479,4.09449 -1.03598,6.31416c-1.79852,6.42663 -5.27816,10.85451 -7.772,9.88996z" fill="#684af8"/><path d="M231.3757,165.69707c0,0 0.06884,2.09342 3.81526,3.45264c2.26969,0.82346 4.89187,0.05662 4.89187,0.05662c0,0 -0.53642,1.16579 -0.87476,1.85672c-0.49191,1.00449 -0.99206,1.72687 -0.99206,1.72687c0,0 -1.6051,0.82408 -3.64705,0.32872c-1.80811,-0.43864 -3.49339,-2.13478 -3.49339,-2.13478c0,0 -0.21267,-0.9203 -0.0734,-2.28668c0.09801,-0.96157 0.37353,-3.00013 0.37353,-3.00013z" fill="#1c0e4c"/><path d="M233.06906,159.70961c0,0 0.30246,1.42649 4.04888,2.78572c2.26969,0.82346 4.61262,0.39675 4.61262,0.39675c0,0 -0.11183,1.23797 -0.26638,1.87301c-0.15455,0.63504 -0.49049,1.46462 -0.49049,1.46462c0,0 -2.81508,0.34466 -4.85702,-0.1507c-1.80811,-0.43864 -4.23636,-2.7294 -4.23636,-2.7294c0,0 0.25697,-1.11295 0.48145,-1.80033c0.22449,-0.68738 0.7073,-1.83965 0.7073,-1.83965z" fill="#1c0e4c"/><path d="M235.90625,154.69356c0,0 -0.05212,1.17231 2.62381,2.21588c2.26969,0.82346 3.57238,0.51799 3.57238,0.51799c0,0 0.11059,0.83226 0.1069,1.31151c-0.00368,0.47925 -0.16782,1.80687 -0.16782,1.80687c0,0 -2.68702,-0.02636 -4.35149,-0.60476c-1.66447,-0.5784 -3.77289,-2.21845 -3.77289,-2.21845c0,0 0.46732,-0.80404 0.85012,-1.53803c0.33438,-0.64115 1.13897,-1.491 1.13897,-1.491z" fill="#1c0e4c"/></g><g><path d="M237.017,147.13216c0.10708,-0.3512 0.70376,-0.3589 0.95238,-0.1091c0.24863,0.2498 -0.13169,1.22058 0.09841,1.16483c0.26586,-0.06444 0.24281,-1.28025 0.30149,-1.23962c0.06844,0.04739 -0.15247,-0.8143 0.5831,-1.18386c1.16166,-0.58363 1.62177,0.64319 1.62177,0.64319c0,0 0.5968,-0.27337 1.03315,-0.08026c0.43635,0.19311 0.84888,0.61008 0.79264,0.88825c-0.03134,0.15501 0.10535,-0.37259 0.52829,-0.23729c0.42292,0.1353 0.90156,0.6947 0.90156,0.6947c0,0 0.41632,-0.08814 0.78389,0.04147c1.15527,0.40736 -0.11209,1.73038 -0.62833,2.62464c-0.79133,1.3708 -1.78716,2.08618 -1.88828,2.19302c-0.213,0.22503 0.7621,1.75253 0.30243,1.91893c-0.55141,0.1996 -1.78838,0.8169 -2.54733,0.3492c-0.31782,-0.19586 -0.46746,-0.8717 -0.55954,-1.24034c-0.15338,-0.61406 -0.14915,0.91938 -0.96082,0.67339c-0.81167,-0.24599 -1.56827,-1.54784 -1.56827,-1.54784l0.82027,-1.28004c0,0 -1.38162,-1.60079 -0.5668,-4.27326z" fill="#ffc281" stroke="none" stroke-width="0" stroke-linecap="butt"/><path d="M240.51481,147.36282l0.04466,-0.82707" fill="none" stroke="#d9874c" stroke-width="0.5" stroke-linecap="round"/><path d="M242.43319,147.83306l-0.00684,-0.46673" fill="none" stroke="#d9874c" stroke-width="0.5" stroke-linecap="round"/><path d="M243.8025,147.85719l-0.02405,0.51135" fill="none" stroke="#d9874c" stroke-width="0.5" stroke-linecap="round"/><path d="M241.97308,152.5965c0,0 -1.53745,0.07824 -2.2733,-0.09722c-0.71764,-0.17112 -2.08854,-0.94286 -2.08854,-0.94286" fill="none" stroke="#d9874c" stroke-width="1" stroke-linecap="round"/></g></g></g></g></svg>