<svg version="1.1" xmlns="http://www.w3.org/2000/svg" xmlns:xlink="http://www.w3.org/1999/xlink" width="398.54134" height="53.41393" viewBox="0,0,398.54134,53.41393"><g transform="translate(-35.75097,-106.46361)"><g data-paper-data="{&quot;isPaintingLayer&quot;:true}" fill-rule="nonzero" stroke-linecap="butt" stroke-linejoin="miter" stroke-dasharray="" stroke-dashoffset="0" style="mix-blend-mode: normal"><path d="M36.6987,159.32508v-23.20262h9.39154l6.07687,10.35832v-10.35832h8.28666v23.20262h-9.39154l-6.07688,-10.02686v10.02686z" fill="#ffffff" stroke="none" stroke-width="0.26459" stroke-miterlimit="10"/><path d="M63.21598,149.65732v-13.53486h7.73422v13.53486c0,2.20978 0.92074,3.31466 2.76222,3.31466h0.55244c1.65733,0 2.48599,-1.10488 2.48599,-3.31466v-13.53486h7.18176v13.53486c0,6.62932 -3.31466,9.94398 -9.94398,9.94398c-7.18176,0 -10.77265,-3.31466 -10.77265,-9.94398z" fill="#ffffff" stroke="none" stroke-width="0.26459" stroke-miterlimit="10"/><path d="M86.69484,159.32508l4.14332,-23.20262h6.62932l3.03845,9.39153l3.03844,-9.39153h6.62932l4.14332,23.20262h-6.90554l-1.65733,-10.22019l-2.20978,10.22019h-6.07689l-2.20977,-10.22019l-1.65733,10.22019z" fill="#ffffff" stroke="none" stroke-width="0.26459" stroke-miterlimit="10"/><path d="M128.40433,154.90553c1.47319,0 2.20977,-0.73659 2.20977,-2.20977v-1.10489c0,-1.1049 -0.73658,-1.65734 -2.20977,-1.65734h-3.31466v4.972zM117.07923,136.12246h13.53487c5.52444,0 8.28665,2.02562 8.28665,6.07686v1.10488c0,1.84149 -0.82865,3.31467 -2.48598,4.41955c1.65733,0.92076 2.48598,2.20979 2.48598,3.86712v1.10489c0,4.41954 -2.76221,6.62932 -8.28665,6.62932h-13.53487zM130.6141,143.30421v-1.10488c0,-1.10487 -0.73658,-1.65732 -2.20977,-1.65732h-3.31466v4.97198h3.31466c1.47319,0 2.20977,-0.73659 2.20977,-2.20978z" fill="#ffffff" stroke="none" stroke-width="0.26459" stroke-miterlimit="10"/><path d="M141.66298,159.32508v-23.20262h19.33552v6.62932h-11.04887v1.65732h11.04887v6.62932h-11.04887v1.65734h11.04887v6.62932z" fill="#ffffff" stroke="none" stroke-width="0.26459" stroke-miterlimit="10"/><path d="M163.76071,159.32508v-23.20262h13.53487c5.52444,0 8.28665,2.02562 8.28665,6.07686v1.10488c0,2.94636 -1.19696,4.87992 -3.59088,5.80068c0.73658,0.36828 1.47319,1.19694 2.20978,2.48598l2.20977,7.73421h-8.28665l-1.65733,-6.3531c-0.3683,-1.65733 -1.38111,-2.48599 -3.03844,-2.48599h-1.65733v8.83909zM175.08581,145.51398c1.47319,0 2.20978,-0.73659 2.20978,-2.20978v-1.10488c0,-1.10487 -0.73659,-1.65732 -2.20978,-1.65732h-3.31466v4.97198z" fill="#ffffff" stroke="none" stroke-width="0.26459" stroke-miterlimit="10"/><path d="M203.31566,148c0,-3.68296 1.10488,-6.58328 3.31466,-8.701c2.20979,-2.11769 5.24823,-3.17654 9.11533,-3.17654c3.86711,0 6.90553,1.05885 9.11531,3.17654c2.20978,2.11772 3.31466,5.01804 3.31466,8.701c0,3.1305 -1.10488,5.89273 -3.31466,8.28664c-2.20978,2.39393 -5.2482,3.5909 -9.11531,3.5909c-3.86711,0 -6.90555,-1.19697 -9.11533,-3.5909c-2.20978,-2.39391 -3.31466,-5.15614 -3.31466,-8.28664zM215.46944,143.30421c-1.84149,1.1049 -3.2226,2.30186 -4.14333,3.5909c-0.92073,1.10487 -1.10488,2.48597 -0.55246,4.1433l0.55246,0.55246c0.92073,1.28904 2.48598,1.65733 4.69576,1.10489c1.84149,-1.1049 3.22261,-2.30186 4.14334,-3.59087c1.10487,-1.47319 1.10487,-3.13052 0,-4.972l-0.55246,-0.55243c-1.10487,-0.73658 -2.48597,-0.82867 -4.1433,-0.27624z" fill="#ffffff" stroke="none" stroke-width="0.26459" stroke-miterlimit="10"/><path d="M230.93786,159.32508v-23.20262h19.33553v6.62932h-11.04886v1.65732h11.04886v6.62932h-11.04886v8.28666z" fill="#ffffff" stroke="none" stroke-width="0.26459" stroke-miterlimit="10"/><path d="M267.17814,159.32508v-23.20262h13.53488c5.52442,0 8.28664,2.02562 8.28664,6.07686v1.10488c0,4.41954 -2.76222,6.62932 -8.28664,6.62932h-5.52443v9.39155zM278.50325,145.51398c1.47319,0 2.20977,-0.73659 2.20977,-2.20978v-1.10488c0,-1.10487 -0.73659,-1.65732 -2.20977,-1.65732h-3.31466v4.97198z" fill="#ffffff" stroke="none" stroke-width="0.26459" stroke-miterlimit="10"/><path d="M291.76186,159.32508v-23.20262h8.28666v16.5733h11.04887v6.62932z" fill="#ffffff" stroke="none" stroke-width="0.26459" stroke-miterlimit="10"/><path d="M313.85962,159.32508l6.90553,-23.20262h12.42997l6.90556,23.20262h-8.01045l-1.3811,-4.41955h-7.73421l-1.10489,4.41955zM329.05183,148.82864l-2.07168,-6.90553l-2.07166,6.90553z" fill="#ffffff" stroke="none" stroke-width="0.26459" stroke-miterlimit="10"/><path d="M349.49224,148.82864l-6.62932,-12.70618h7.73421l2.7622,8.01042l2.76223,-8.01042h7.73421l-6.62932,12.70618v10.49644h-7.73421z" fill="#ffffff" stroke="none" stroke-width="0.26459" stroke-miterlimit="10"/><path d="M366.61798,159.32508v-23.20262h19.33553v6.62932h-11.04887v1.65732h11.04887v6.62932h-11.04887v1.65734h11.04887v6.62932z" fill="#ffffff" stroke="none" stroke-width="0.26459" stroke-miterlimit="10"/><path d="M388.71574,159.32508v-23.20262h13.53488c5.52442,0 8.28664,2.02562 8.28664,6.07686v1.10488c0,2.94636 -1.19696,4.87992 -3.59087,5.80068c0.73658,0.36828 1.47319,1.19694 2.20977,2.48598l2.20978,7.73421h-8.28667l-1.65731,-6.3531c-0.3683,-1.65733 -1.38112,-2.48599 -3.03845,-2.48599h-1.65731v8.83909zM400.04085,145.51398c1.47319,0 2.20977,-0.73659 2.20977,-2.20978v-1.10488c0,-1.10487 -0.73658,-1.65732 -2.20977,-1.65732h-3.31466v4.97198z" fill="#ffffff" stroke="none" stroke-width="0.26459" stroke-miterlimit="10"/><path d="M416.33791,159.32508c-0.92075,-0.18415 -1.65734,-0.36828 -2.20977,-0.55243l1.10488,-5.52444l3.31466,0.27622c2.57806,0.18415 4.60368,0.18415 6.07686,0c0.73658,-0.3683 1.10489,-0.92076 1.10489,-1.65734c-0.18415,-0.73658 -1.84147,-1.10489 -4.97197,-1.10489c-2.76222,-0.36828 -4.69578,-1.3811 -5.80068,-3.03844c-0.55243,-1.28902 -0.82864,-2.7622 -0.82864,-4.41955c0,-2.57806 0.92073,-4.5116 2.7622,-5.80065c1.28904,-0.92073 3.59089,-1.3811 6.90553,-1.3811c3.31468,0 6.62933,0.27623 9.94401,0.82867l-1.10492,5.24819c-3.8671,-0.18415 -6.53724,-0.27622 -8.01042,-0.27622c-1.28904,0.18415 -1.93356,0.64452 -1.93356,1.3811c-0.18415,1.28904 0.82867,1.93356 3.03845,1.93356c3.13051,0 5.43235,0.55245 6.90553,1.65734c1.1049,0.92073 1.65735,2.48598 1.65735,4.69576c0,1.91514 -0.46037,3.57247 -1.3811,4.972c-0.92075,1.65733 -3.22261,2.67014 -6.90557,3.03842c-3.13051,0.18416 -6.35309,0.09208 -9.66774,-0.27622z" fill="#ffffff" stroke="none" stroke-width="0.26459" stroke-miterlimit="10"/><g fill="none" stroke="#ff0000" stroke-width="7.5" stroke-miterlimit="10"><path d="M39.50097,121.00001c0,-5.2467 4.52165,-9.5 10.09938,-9.5c5.57773,0 13.8399,9.5 13.8399,9.5c0,0 -8.26216,9.5 -13.8399,9.5c-5.57773,0 -10.09938,-4.2533 -10.09938,-9.5z"/><path d="M75.78394,130.5c-5.57773,0 -13.8399,-9.5 -13.8399,-9.5c0,0 8.26216,-9.5 13.8399,-9.5c5.57773,0 10.09938,4.2533 10.09938,9.5c0,5.2467 -4.52165,9.5 -10.09938,9.5z" data-paper-data="{&quot;index&quot;:null}"/></g><g fill="#ff0000" stroke="none" stroke-width="0.26459" stroke-miterlimit="4"><path d="M97.2676,135.08218v-28.61856h21.13493v8.17673h-12.07709v2.04417h12.07709v8.17673h-12.07709v2.0442h12.07709v8.17673z"/><path d="M121.42181,135.08218v-28.61856h10.26553l6.6424,12.77615v-12.77615h9.05782v28.61856h-10.26553l-6.6424,-12.36732v12.36732z"/><path d="M162.48394,126.90545c1.40899,0 2.51606,-0.45425 3.32119,-1.36279c0.80513,-0.90854 1.20771,-2.27132 1.20771,-4.08836v-1.70351c0,-1.81704 -0.40258,-3.23663 -1.20771,-4.2587c-0.80513,-1.0221 -1.91221,-1.53315 -3.32119,-1.53315h-3.01927v12.94651zM150.40685,106.46361h12.07709c4.22698,0 7.54819,1.30599 9.96361,3.91801c2.41542,2.61201 3.62313,6.18933 3.62313,10.73194c0,3.86124 -1.20771,7.15466 -3.62313,9.88024c-2.41542,2.72558 -5.73663,4.08837 -9.96361,4.08837h-12.07709z"/><path d="M179.08996,135.08218v-28.61856h9.05782v20.44183h12.07709v8.17673z"/><path d="M203.24416,135.08218v-28.61856h21.13492v8.17673h-12.07709v2.04417h12.07709v8.17673h-12.07709v2.0442h12.07709v8.17673z"/><path d="M229.81377,135.08218c-1.00643,-0.22713 -1.81157,-0.45425 -2.41542,-0.68141l1.20771,-6.81394l3.62313,0.34069c2.81799,0.22713 5.03213,0.22713 6.64242,0c0.80513,-0.45425 1.20771,-1.13563 1.20771,-2.04417c-0.20128,-0.90854 -2.01286,-1.36279 -5.43471,-1.36279c-3.01927,-0.45428 -5.13275,-1.70351 -6.34047,-3.74768c-0.60385,-1.58991 -0.90579,-3.40699 -0.90579,-5.45115c0,-3.17983 1.00643,-5.56472 3.01928,-7.15463c1.40899,-1.13566 3.92506,-1.70348 7.54819,-1.70348c3.62313,0 7.24626,0.34069 10.86939,1.02207l-1.20771,6.47325c-4.22698,-0.22713 -7.1456,-0.34069 -8.75589,-0.34069c-1.40899,0.22713 -2.1135,0.79494 -2.1135,1.70348c-0.20128,1.58991 0.90579,2.38489 3.3212,2.38489c3.42185,0 5.93789,0.68137 7.54818,2.04417c1.20771,1.13566 1.81157,3.0663 1.81157,5.79187c0,2.36214 -0.5032,4.40634 -1.50963,6.13253c-1.00643,2.0442 -3.52249,3.29342 -7.54819,3.74767c-3.42185,0.22713 -6.94434,0.1134 -10.56747,-0.34068z"/><path d="M254.87375,135.08218c-1.00643,-0.22713 -1.81157,-0.45425 -2.41542,-0.68141l1.20771,-6.81394l3.62313,0.34069c2.81799,0.22713 5.03213,0.22713 6.6424,0c0.80515,-0.45425 1.20771,-1.13563 1.20771,-2.04417c-0.20128,-0.90854 -2.01284,-1.36279 -5.4347,-1.36279c-3.01927,-0.45428 -5.13277,-1.70351 -6.34048,-3.74768c-0.60385,-1.58991 -0.90577,-3.40699 -0.90577,-5.45115c0,-3.17983 1.00643,-5.56472 3.01927,-7.15463c1.40899,-1.13566 3.92505,-1.70348 7.54818,-1.70348c3.62313,0 7.24626,0.34069 10.86939,1.02207l-1.20771,6.47325c-4.22697,-0.22713 -7.14562,-0.34069 -8.75589,-0.34069c-1.40899,0.22713 -2.1135,0.79494 -2.1135,1.70348c-0.20128,1.58991 0.90579,2.38489 3.32121,2.38489c3.42185,0 5.9379,0.68137 7.54817,2.04417c1.20771,1.13566 1.81158,3.0663 1.81158,5.79187c0,2.36214 -0.5032,4.40634 -1.50963,6.13253c-1.00643,2.0442 -3.52252,3.29342 -7.54821,3.74767c-3.42185,0.22713 -6.94432,0.1134 -10.56745,-0.34068z"/></g><g fill="#71ff33" stroke="none" stroke-width="0.26459" stroke-miterlimit="4"><path d="M101.31842,133.90922v-24.20255h20.16881v6.91502h-11.52503v1.72874h11.52503v6.91502h-11.52503v1.72877h11.52503v6.91502z"/><path d="M124.36848,133.90922v-24.20255h9.79627l6.33876,10.80471v-10.80471h8.64377v24.20255h-9.79627l-6.33876,-10.45897v10.45897z"/><path d="M163.55358,126.99421c1.34458,0 2.40104,-0.38416 3.16937,-1.1525c0.76833,-0.76834 1.1525,-1.92085 1.1525,-3.45751v-1.44065c0,-1.53666 -0.38417,-2.7372 -1.1525,-3.60155c-0.76833,-0.86438 -1.82479,-1.29658 -3.16937,-1.29658h-2.88126v10.94879zM152.02855,109.70666h11.52503c4.03376,0 7.20315,1.10447 9.50815,3.31343c2.30501,2.20897 3.45751,5.23428 3.45751,9.07595c0,3.26543 -1.1525,6.05066 -3.45751,8.35566c-2.30501,2.30501 -5.47439,3.45751 -9.50815,3.45751h-11.52503z"/><path d="M179.4005,133.90922v-24.20255h8.64377v17.28754h11.52503v6.91502z"/><path d="M202.45056,133.90922v-24.20255h20.16879v6.91502h-11.52503v1.72874h11.52503v6.91502h-11.52503v1.72877h11.52503v6.91502z"/><path d="M227.80562,133.90922c-0.96042,-0.19208 -1.72875,-0.38416 -2.30501,-0.57627l1.1525,-5.76251l3.45751,0.28812c2.68918,0.19208 4.8021,0.19208 6.33878,0c0.76833,-0.38416 1.1525,-0.9604 1.1525,-1.72874c-0.19208,-0.76834 -1.92085,-1.1525 -5.18628,-1.1525c-2.88126,-0.38419 -4.89813,-1.44065 -6.05063,-3.16939c-0.57625,-1.34458 -0.86438,-2.88127 -0.86438,-4.61001c0,-2.68916 0.96042,-4.70605 2.88126,-6.05063c1.34458,-0.96042 3.74564,-1.44062 7.20315,-1.44062c3.45751,0 6.91502,0.28812 10.37252,0.86436l-1.1525,5.47439c-4.03376,-0.19208 -6.81896,-0.28812 -8.35564,-0.28812c-1.34458,0.19208 -2.01689,0.67228 -2.01689,1.44062c-0.19208,1.34458 0.86438,2.01689 3.16939,2.01689c3.26543,0 5.66646,0.57624 7.20313,1.72874c1.1525,0.96042 1.72875,2.59315 1.72875,4.89816c0,1.99765 -0.4802,3.72642 -1.44062,5.18625c-0.96042,1.72877 -3.36147,2.78523 -7.20315,3.16939c-3.26543,0.19208 -6.6269,0.0959 -10.0844,-0.28812z"/><path d="M251.72005,133.90922c-0.96042,-0.19208 -1.72875,-0.38416 -2.30501,-0.57627l1.1525,-5.76251l3.45751,0.28812c2.68918,0.19208 4.8021,0.19208 6.33876,0c0.76834,-0.38416 1.1525,-0.9604 1.1525,-1.72874c-0.19208,-0.76834 -1.92082,-1.1525 -5.18626,-1.1525c-2.88126,-0.38419 -4.89814,-1.44065 -6.05065,-3.16939c-0.57625,-1.34458 -0.86437,-2.88127 -0.86437,-4.61001c0,-2.68916 0.96042,-4.70605 2.88126,-6.05063c1.34458,-0.96042 3.74563,-1.44062 7.20313,-1.44062c3.45751,0 6.91502,0.28812 10.37252,0.86436l-1.1525,5.47439c-4.03374,-0.19208 -6.81898,-0.28812 -8.35564,-0.28812c-1.34458,0.19208 -2.01689,0.67228 -2.01689,1.44062c-0.19208,1.34458 0.86438,2.01689 3.16939,2.01689c3.26543,0 5.66647,0.57624 7.20313,1.72874c1.1525,0.96042 1.72877,2.59315 1.72877,4.89816c0,1.99765 -0.4802,3.72642 -1.44062,5.18625c-0.96042,1.72877 -3.3615,2.78523 -7.20316,3.16939c-3.26543,0.19208 -6.62688,0.0959 -10.08439,-0.28812z"/></g><g fill="none" stroke="#71ff33" stroke-width="5" stroke-miterlimit="10"><path d="M42.13332,122.00001c0,-4.69442 4.04569,-8.5 9.03629,-8.5c4.9906,0 12.38306,8.5 12.38306,8.5c0,0 -7.39246,8.5 -12.38306,8.5c-4.9906,0 -9.03629,-3.80558 -9.03629,-8.5z"/><path d="M74.59703,130.50001c-4.99061,0 -12.38306,-8.5 -12.38306,-8.5c0,0 7.39246,-8.5 12.38306,-8.5c4.99061,0 9.03629,3.80558 9.03629,8.5c0,4.69442 -4.04568,8.5 -9.03629,8.5z" data-paper-data="{&quot;index&quot;:null}"/></g></g></g></svg>