<svg version="1.1" xmlns="http://www.w3.org/2000/svg" xmlns:xlink="http://www.w3.org/1999/xlink" width="14.24401" height="15.4838" viewBox="0,0,14.24401,15.4838"><g transform="translate(-236.63176,-169.47248)"><g data-paper-data="{&quot;isPaintingLayer&quot;:true}" fill-rule="nonzero" stroke-linejoin="miter" stroke-miterlimit="10" stroke-dasharray="" stroke-dashoffset="0" style="mix-blend-mode: normal"><path d="M238.9909,169.58183c0.87113,-0.68382 4.16181,2.05709 4.63181,2.20909c0.795,0.258 1.19545,1.14545 1.99545,0.99545c0.683,-0.18 2.24982,-1.19572 2.78182,-1.62272c0.592,-0.475 2.29036,-1.24073 2.43636,-0.67273c0.329,1.257 -1.499,2.28709 -1.85,3.95909c-0.14,0.665 -0.531,1.268 -0.6,1.95c-0.186,1.807 0.823,3.985 -0.25,5.45c-0.908,1.238 -3.076,1.091 -4.65,0.95c-1.949,-0.174 -4.571,-0.133 -5.6,-1.8c-1.209,-1.96 -0.013,-4.578 0.2,-6.85c0.066,-0.703 0.05339,-3.90004 0.90455,-4.56818z" fill="#f8b820" stroke="none" stroke-width="1" stroke-linecap="round"/><path d="M237.78181,179.35911c0.375,0.056 0.766,0.074 1.1,0.3c1.057,0.716 1.38855,0.76591 2.40455,1.54091c0.672,0.513 1.28,0.30691 2.1,0.44091c0.835,0.149 1.65,-0.447 2.5,-0.5c1.06,-0.115 2.437,0.36609 3.2,0.90909c0.437,0.311 -0.286,1.323 -0.8,1.65c-1.125,0.715 -2.491,1.229 -3.85,1.25c-1.285,0.066 -2.606,-0.398 -3.75,-1c-0.97,-0.511 -0.98755,-0.70191 -1.85455,-1.39091c-0.674,-0.536 -2.21,-1.138 -2.2,-1.4c0.01,-0.222 1.686,0.447 2.25,0.15c0.286,-0.15 -0.293,-0.72 -0.55,-1c-0.339,-0.37 -1.008,-0.597 -1.2,-0.95c-0.083,-0.122 0.434,-0.032 0.65,0z" fill="#f8f8f8" stroke="none" stroke-width="1" stroke-linecap="round"/><path d="M248.59849,180.94517l-1.55556,-0.11111l1.33333,-1.33333" fill="none" stroke="#800000" stroke-width="0.5" stroke-linecap="round"/><path d="M242.27873,177.96509c0,0 1.40077,0.57314 2.1117,1.20011c0.71094,0.62698 1.39329,1.89093 1.39329,1.89093c0,0 -1.22549,-0.04696 -1.7868,0.0466c-0.56131,0.09356 -2.13601,0.64318 -2.13601,0.64318" fill="none" stroke="#800000" stroke-width="0.5" stroke-linecap="round"/><path d="M238.91667,176.15476c0,0.46024 -0.19898,0.83333 -0.44444,0.83333c-0.24546,0 -0.44444,-0.3731 -0.44444,-0.83333c0,-0.46024 0.19898,-0.83333 0.44444,-0.83333c0.24546,0 0.44444,0.3731 0.44444,0.83333z" fill="#6fc0ff" stroke="none" stroke-width="0" stroke-linecap="butt"/><path d="M248.37222,176.7381c0,0.32216 -0.13929,0.58333 -0.31111,0.58333c-0.17182,0 -0.31111,-0.26117 -0.31111,-0.58333c0,-0.32216 0.13929,-0.58333 0.31111,-0.58333c0.17182,0 0.31111,0.26117 0.31111,0.58333z" fill="#6fc0ff" stroke="none" stroke-width="0" stroke-linecap="butt"/><path d="M240.92778,180.07143c0,0.32217 -0.13929,0.58334 -0.31111,0.58334c-0.17182,0 -0.31111,-0.26117 -0.31111,-0.58334c0,-0.32217 0.13929,-0.58333 0.31111,-0.58333c0.17182,0 0.31111,0.26116 0.31111,0.58333z" fill="#6fc0ff" stroke="none" stroke-width="0" stroke-linecap="butt"/><path d="M246.89473,184.36641c0,0 -0.10211,-0.00917 -1.04698,-0.06458c-1.90499,-0.11172 -2.50006,-0.87664 -2.50006,-0.87664c0,0 1.423,-1.68632 2.34023,0.40684" data-paper-data="{&quot;index&quot;:null}" fill="none" stroke="#000000" stroke-width="0.5" stroke-linecap="round"/><path d="M239.96554,170.94139c0.23093,-0.17191 0.77959,0.54649 1.1292,0.8668c0.33311,0.3053 0.84379,0.55933 0.91949,0.99977c0.05441,0.3386 -0.41969,0.56679 -0.61859,0.82481c-0.23281,0.30482 -0.4398,0.96182 -0.70175,0.91206c-0.26542,-0.05136 -0.26603,-0.72879 -0.36804,-1.09862c-0.07086,-0.28027 -0.10699,-0.56825 -0.14888,-0.84845c-0.08345,-0.55008 -0.47079,-1.46073 -0.21144,-1.65638z" fill="#ffffff" stroke="none" stroke-width="0.85185" stroke-linecap="butt"/><path d="M248.92825,181.87754c0.23535,0.12161 -0.44373,0.70806 -0.80265,0.70806c-0.35891,0 -0.8637,-0.58644 -0.62833,-0.70806c0.23535,-0.12161 0.26942,-0.19695 0.62833,-0.19695c0.35891,0 0.5673,0.07534 0.80265,0.19695z" fill="#101010" stroke="none" stroke-width="1" stroke-linecap="butt"/></g></g></svg>