<svg version="1.1" xmlns="http://www.w3.org/2000/svg" xmlns:xlink="http://www.w3.org/1999/xlink" width="29.80754" height="38.57363" viewBox="0,0,29.80754,38.57363"><defs><radialGradient cx="240.24157" cy="196.33495" r="8.90592" gradientUnits="userSpaceOnUse" id="color-1"><stop offset="0" stop-color="#d6feff" stop-opacity="0"/><stop offset="1" stop-color="#d6feff" stop-opacity="0.25098"/></radialGradient></defs><g transform="translate(-224.56048,-163.34114)"><g data-paper-data="{&quot;isPaintingLayer&quot;:true}" fill-rule="nonzero" stroke-linejoin="miter" stroke-miterlimit="10" stroke-dasharray="" stroke-dashoffset="0" style="mix-blend-mode: normal"><path d="M247.88662,199.52159c0,0 -3.72983,1.179 -5.83113,1.39318c-1.34771,0.13737 -4.1754,-1.01429 -6.6988,-1.54839c-1.57548,-0.33347 -4.64583,-1.83413 -4.72054,-1.90924c-0.43845,-0.44079 0.23069,-2.85911 1.13952,-2.94055c0.31061,-0.02784 0.85666,-0.59454 3.33366,-0.56223c3.3461,0.04364 9.74021,-0.00169 11.90054,1.37275c0.80969,0.51514 2.51045,1.43099 2.13042,1.90625c-0.38001,0.47526 -1.25368,2.28823 -1.25368,2.28823z" data-paper-data="{&quot;index&quot;:null}" fill="url(#color-1)" stroke-opacity="0.25098" stroke="#313040" stroke-width="2" stroke-linecap="butt"/><g data-paper-data="{&quot;index&quot;:null}"><g><g><path d="M246.36285,184.28536c0.22537,0.17988 0.93112,1.36912 0.90721,1.47212c-0.02904,0.12501 0.08155,0.00666 -0.0601,0.1636c-0.14164,0.15693 -0.37835,-0.01911 -0.37835,-0.01911c0,0 0.25112,0.29976 0.04457,0.55175c-0.20654,0.25196 -0.55805,0.17981 -0.55805,0.17981c0,0 0.09106,0.3069 -0.08543,0.49631c-0.17651,0.1894 -0.55208,0.18563 -0.55208,0.18563c0,0 0.04233,0.47399 -0.10147,0.63194c-0.14381,0.15793 -0.54207,0.07559 -0.54207,0.07559c0,0 0.212,0.25659 -0.0969,0.57891c-0.24042,0.25087 -0.6591,0.02283 -1.13232,-0.4363c-0.47971,-0.4654 -0.99046,-0.95174 -1.25623,-1.16392c-0.80544,-0.64294 -0.37412,-1.6487 0.26884,-2.45415c0.30113,-0.37723 0.92717,-0.82121 1.54015,-0.70064c0.82163,0.1616 1.57401,0.09657 2.0022,0.43838z" fill="#fdfdfd" stroke="none" stroke-width="0" stroke-linecap="butt"/><path d="M244.65927,185.51763c0,0 0.41562,-0.50861 0.80899,-0.52566c0.1861,-0.00808 0.42727,0.41223 0.74039,0.63296c0.31313,0.22071 0.77229,0.31715 0.77229,0.31715" fill="none" stroke="#a4a4a4" stroke-width="0.125" stroke-linecap="round"/></g><path d="M242.92027,184.96602c-0.23348,0.34198 -0.79096,1.26569 -1.07494,1.11293c-0.57635,-0.31 -0.28924,-0.70573 -0.28924,-0.70573c0,0 -0.29866,0.35843 -0.52561,-0.37562c-0.09003,-0.29119 0.15147,-0.85042 0.46801,-1.26061c0.31655,-0.41016 1.03603,-1.06903 1.35462,-0.90672c0.24555,0.12509 0.14141,0.55291 0.14141,0.55291c0,0 0.41515,-0.08758 0.64694,0.07846c0.22626,0.19163 -0.51349,1.2001 -0.72123,1.50438z" fill="#fdfdfd" stroke="none" stroke-width="0" stroke-linecap="butt"/></g><path d="M240.11492,178.67576c0.34309,-0.40405 0.16636,-0.21211 0.69256,-0.01173c0.5262,0.20037 0.10035,0.76161 0.10035,0.76161l-1.03683,1.6989l2.173,2.18932l-0.62982,0.8058l-2.85497,-2.76905c0,0 1.21262,-2.27082 1.55571,-2.67487z" data-paper-data="{&quot;index&quot;:null}" fill="#fec267" stroke="none" stroke-width="0" stroke-linecap="butt"/></g><path d="M237.2371,177.91101c0,0 0.84414,1.92369 1.50358,1.92369c0.65944,0 -1.06188,0.91077 -1.99003,2.27748c-0.92814,1.36671 -2.03425,3.64839 -2.03425,3.64839c0,0 -0.35268,-3.59223 0.00811,-5.02329c0.67719,-2.68608 2.5126,-2.82628 2.5126,-2.82628z" data-paper-data="{&quot;index&quot;:null}" fill="#02124a" stroke="none" stroke-width="0" stroke-linecap="butt"/><path d="M239.96303,190.73752c0,0 -0.12203,-2.55581 -0.41798,-4.17265c-0.29593,-1.61685 -0.89276,-2.98843 -0.89276,-2.98843l1.53997,-0.29701l1.25752,8.27783z" data-paper-data="{&quot;index&quot;:null}" fill="#033397" stroke="none" stroke-width="0" stroke-linecap="butt"/><g data-paper-data="{&quot;index&quot;:null}" stroke="none" stroke-width="0" stroke-linecap="butt"><path d="M248.13121,196.90218c0,0 -1.25653,1.18854 -4.45646,0.74166c-0.69634,-0.09723 -2.30436,-0.49037 -2.30436,-0.49037l0.02755,-0.55894l-1.34009,-0.31102l-0.0882,0.39607c0,0 -0.92811,-0.3495 -1.16423,-0.48298c-0.55846,-0.31575 -1.31551,-0.80916 -1.31551,-0.80916c0,0 0.06812,-1.4589 0.82835,-2.76196c0.29996,-0.51416 0.9848,-1.0466 5.90202,0.53602c4.22728,0.90282 3.91088,3.74068 3.91088,3.74068z" fill="#e90023"/><path d="M248.07803,196.90199l-0.02685,0.39538l-0.99388,-0.19175l-0.73498,0.22415l0.12252,0.75354l-1.07731,-0.90507l0.59701,-0.9922l1.72564,-0.46892l0.3878,1.18487z" fill="#948a92"/><path d="M240.04569,196.22742c0,0 0.01536,-0.59245 -0.11278,-1.20509c-0.12815,-0.61265 -0.54995,-1.49005 -0.54995,-1.49005l0.05422,-1.24047l1.42253,-0.04844c0,0 0.4993,0.95021 0.61314,2.12195c0.1073,1.10444 -0.05357,2.28675 -0.05357,2.28675z" fill="#deca55"/><path d="M247.63737,196.06737l-1.33984,0.70832l0.25421,1.29643l-1.8232,0.25218l-3.39277,-1.14308l0.0639,-1.29163l2.9732,1.21695l0.61288,-1.79499l2.06069,-0.92967l0.94775,1.35198l0.30888,1.31513l-0.28038,0.30953z" fill="#edeeee"/><g><path d="M247.74595,196.78737c0.19419,0.28559 0.00459,0.79696 -0.29718,0.90816c-0.42957,0.1583 -0.74721,0.12631 -0.9414,-0.15927c-0.19419,-0.28559 -0.13839,-0.68836 0.23666,-0.90516c0.37505,-0.21679 0.80774,-0.12929 1.00193,0.15629z" fill="#ece09c"/><path d="M247.55964,197.70865c-0.30759,0.20803 -0.82355,0.12659 -0.9625,-0.13017c-0.14576,-0.26933 0.20446,-0.59485 0.4257,-0.70764c0.25003,-0.14454 0.61967,-0.08006 0.74914,0.11032c0.12947,0.19038 0.03766,0.58295 -0.21235,0.72749z" fill="#000000"/></g><path d="M241.4954,195.04969c0,0 -0.00114,0.54514 -0.02719,0.81479c-0.02552,0.26416 -0.12755,0.78699 -0.12755,0.78699l-0.35265,-0.12463l0.38214,-2.71303c0,0 0.10311,0.50392 0.12549,0.72472c0.01873,0.18466 -0.00021,0.51117 -0.00021,0.51117z" fill="#6a2625"/><path d="M237.69639,194.29427c0,0 1.03062,0.31066 0.95325,0.77451c-0.07736,0.46387 -1.05608,-0.15796 -1.05608,-0.15796l0.10283,-0.61654z" fill="#eac763"/><path d="M242.34795,192.5028c-0.0198,0.50855 -0.9807,0.70507 -1.82446,0.75782c-0.84377,0.05276 -1.97647,0.03124 -2.03683,-0.51632c-0.12248,-1.11123 0.47274,-1.12644 0.47274,-1.12644c0,0 -0.56754,-0.03923 -0.0215,-1.10946c0.21661,-0.42457 0.93708,-0.67141 1.56797,-0.66114c0.63091,0.01026 1.79935,0.31631 1.87586,0.9212c0.05897,0.46624 -0.43297,0.76563 -0.43297,0.76563c0,0 0.39013,0.47907 0.39921,0.96872z" fill="#fdfdfd"/></g><path d="M238.12166,183.8216c0,0 -0.19123,0.96987 -1.20936,1.59486c-1.01812,0.62499 -3.25715,1.14695 -3.25715,1.14695c0,0 2.16872,-1.74449 2.74613,-2.46427c0.48097,-0.59956 0.48215,-1.56001 0.48215,-1.56001l1.23824,1.28246z" data-paper-data="{&quot;index&quot;:null}" fill="#02124a" stroke="none" stroke-width="0" stroke-linecap="butt"/><path d="M237.91764,183.9466c-0.79878,-0.22367 -1.37808,-0.70449 -1.07252,-2.54092c0.17041,-1.02415 -0.28641,-2.61018 -0.0286,-3.53088c0.43137,-1.54049 2.28681,-0.20924 3.62739,0.16616c1.34058,0.37539 1.47123,2.1261 1.03985,3.66659c-0.43138,1.5405 -2.22555,2.61445 -3.56612,2.23905z" data-paper-data="{&quot;index&quot;:null}" fill="#033397" stroke="none" stroke-width="0" stroke-linecap="butt"/><path d="M241.70092,181.42394c-0.31981,1.02594 -1.33078,2.27794 -2.57985,2.07894c-1.12095,-0.1786 -0.93778,-3.77207 -0.14214,-4.49443c0.86212,-0.78271 2.06089,-0.65466 2.29193,-0.23076c0.45565,0.836 0.88166,1.19749 0.43005,2.64625z" data-paper-data="{&quot;index&quot;:null}" fill="#fec267" stroke="none" stroke-width="0" stroke-linecap="butt"/><path d="M234.43122,190.09289c0,0 1.17857,-2.52739 1.71335,-4.2455c0.53477,-1.71812 0.65517,-3.36412 0.65517,-3.36412l1.63488,0.55357l-2.98624,8.65585z" data-paper-data="{&quot;index&quot;:null}" fill="#033397" stroke="none" stroke-width="0" stroke-linecap="butt"/><g data-paper-data="{&quot;index&quot;:null}" stroke="none" stroke-width="0" stroke-linecap="butt"><path d="M242.58618,197.86084c0,0 -1.43316,1.13616 -4.76273,0.37045c-0.72454,-0.16662 -2.38217,-0.72897 -2.38217,-0.72897l0.08056,-0.58623l-1.38297,-0.45116l-0.1294,0.40909c0,0 -0.94543,-0.45372 -1.18186,-0.61609c-0.55916,-0.38406 -1.31115,-0.97362 -1.31115,-0.97362c0,0 0.20625,-1.53051 1.12718,-2.83306c0.36337,-0.51396 1.13386,-1.01169 6.16771,1.10871c4.36973,1.34069 3.77484,4.3009 3.77484,4.3009z" fill="#e90023"/><path d="M242.53023,197.85578l-0.06474,0.41401l-1.02926,-0.2936l-0.79489,0.16837l0.0596,0.80506l-1.05138,-1.05271l0.72035,-0.99014l1.86101,-0.33489l0.29928,1.28388z" fill="#948a92"/><path d="M234.13129,196.40469c0,0 0.07081,-0.62266 -0.00771,-1.27982c-0.07851,-0.65716 -0.44195,-1.62028 -0.44195,-1.62028l0.17146,-1.30169l1.50295,0.0801c0,0 0.43835,1.04695 0.45025,2.29176c0.01122,1.17331 -0.26723,2.40391 -0.26723,2.40391z" fill="#deca55"/><path d="M242.14297,196.93599l-1.47667,0.62263l0.14828,1.38908l-1.94379,0.09756l-3.46853,-1.51686l0.18639,-1.35469l3.01975,1.556l0.81107,-1.83433l2.2564,-0.78936l0.87372,1.51152l0.20415,1.41381l-0.32387,0.3002z" fill="#edeeee"/><g><path d="M242.19101,197.70443c0.17823,0.31874 -0.06863,0.83992 -0.39676,0.92924c-0.46709,0.12715 -0.79873,0.06416 -0.97697,-0.25456c-0.17823,-0.31875 -0.08232,-0.73788 0.33273,-0.93169c0.41506,-0.19378 0.86278,-0.06172 1.04102,0.257z" fill="#ece09c"/><path d="M241.90982,198.65769c-0.34318,0.19081 -0.87919,0.05744 -1.00189,-0.22584c-0.12871,-0.29714 0.27022,-0.60776 0.51367,-0.70617c0.27672,-0.12921 0.66014,-0.02721 0.77897,0.18526c0.11883,0.21248 -0.01406,0.61755 -0.29075,0.74676z" fill="#000000"/></g><path d="M235.76696,195.29776c0,0 -0.05145,0.57412 -0.10375,0.85578c-0.05124,0.27593 -0.2069,0.81726 -0.2069,0.81726l-0.35999,-0.1638l0.65264,-2.82266c0,0 0.06215,0.54033 0.06537,0.77499c0.00269,0.19625 -0.04735,0.53844 -0.04735,0.53844z" fill="#6a2625"/><path d="M231.83474,194.15181c0,0 1.05703,0.42226 0.93276,0.90374c-0.12425,0.4815 -1.0979,-0.26374 -1.0979,-0.26374l0.16514,-0.63998z" fill="#eac763"/><path d="M236.8998,192.69353c-0.06775,0.53387 -1.09806,0.65231 -1.99173,0.6301c-0.89366,-0.0222 -2.08485,-0.14929 -2.09796,-0.73165c-0.02658,-1.18186 0.60181,-1.143 0.60181,-1.143c0,0 -0.59422,-0.09365 0.07963,-1.17069c0.26731,-0.42726 1.049,-0.62088 1.71263,-0.5519c0.66363,0.06895 1.86624,0.49906 1.89108,1.14329c0.01913,0.49657 -0.52666,0.7666 -0.52666,0.7666c0,0 0.36679,0.54059 0.33122,1.05723z" fill="#fdfdfd"/></g><g data-paper-data="{&quot;index&quot;:null}"><g fill="#033397" stroke-width="0"><path d="M238.60778,178.18494c-2.93166,-0.14262 -5.19261,-2.63482 -5.04999,-5.56647c0.14262,-2.93166 2.63482,-5.19262 5.56647,-5.05c2.93166,0.14262 5.19261,2.63483 5.04999,5.56648c-0.14262,2.93166 -2.63482,5.19261 -5.56647,5.04999z" stroke="none" stroke-linecap="butt"/><path d="M236.60311,177.67752c0,0 -2.19253,-0.08363 -3.84433,1.27169c-1.65181,1.35533 -3.04064,4.37751 -3.04064,4.37751c0,0 -0.92963,-1.5518 -0.69066,-4.2561c0.20247,-2.29141 1.42009,-4.14791 1.42009,-4.14791c0,0 -1.77658,0.3916 -2.62712,0.91849c-1.41443,0.87621 -3.23144,2.84462 -3.23144,2.84462c0,0 -0.36782,-3.05708 1.53782,-6.53584c1.64181,-2.99714 4.38887,-4.03689 4.38887,-4.03689c0,0 -1.18481,-0.9995 -2.25939,-1.35716c-1.30513,-0.4344 -2.87618,-0.38616 -2.87618,-0.38616c0,0 3.99622,-3.95726 9.97145,-2.8249c8.69303,1.60781 8.95014,8.78092 8.95014,8.78092" stroke="#000000" stroke-linecap="round"/></g><path d="M234.32454,169.01484c0,0 -0.16124,-1.04862 -0.12686,-1.95429c0.03438,-0.90567 0.02861,-2.13624 0.2876,-2.2799c0.26618,-0.14764 0.42596,-0.10788 1.56961,0.66113c1.14363,0.76901 2.71989,2.19566 2.71989,2.19566" fill="#033397" stroke="#000000" stroke-width="0.125" stroke-linecap="round"/><path d="M242.35691,167.72318c0,0 1.00418,-0.04274 1.58215,-0.14051c0.53045,-0.08972 1.51088,-0.47129 1.75534,-0.42405c0.29294,0.0566 -0.21966,1.40644 -0.4826,2.0785c-0.30091,0.76913 -1.22438,2.28449 -1.22438,2.28449" fill="#033397" stroke="#000000" stroke-width="0" stroke-linecap="round"/><path d="M244.08215,171.39336c0,0 0.29376,1.17096 0.0882,2.22726c-0.20555,1.05629 -1.02015,2.56175 -1.02015,2.56175c0,0 -0.7062,-0.58956 -0.84219,-0.62892c-1.10299,-0.3193 -2.27538,0.97015 -3.49276,0.64959c-1.21739,-0.32054 -1.80101,-1.28927 -2.20325,-2.14488c-0.40224,-0.85561 -0.23586,-2.32266 0.07841,-2.96499c0.44549,-0.7514 1.16982,-0.86772 1.49092,-0.81334c0.37338,0.06323 1.1837,0.22972 1.93551,1.35171c0.7433,1.10925 0.87878,3.04089 1.65618,3.49784c0.22762,0.26221 0.65628,-0.26301 0.65628,-0.26301c0,0 0.14294,0.17523 0.24411,0.01933c0.31762,-0.48935 0.32157,-0.51696 0.66346,-1.33821c0.34189,-0.82125 0.74531,-2.1541 0.74531,-2.1541z" fill="#fdfdfd" stroke="#000000" stroke-width="0" stroke-linecap="butt"/><path d="M243.08348,176.33722c-0.00309,0.39346 -0.34595,0.7435 -1.26412,1.18511c-0.75403,0.36267 -2.04224,0.6808 -2.96617,0.6601c-3.86789,-0.28828 -4.37331,-3.2554 -3.02754,-3.54838c1.67228,-0.39135 2.05839,1.42968 3.51936,1.44173c0.97235,0.00802 2.00056,-0.72163 2.65806,-0.61979c0.84876,0.11866 1.08232,0.63821 1.08042,0.88124z" fill="#fec267" stroke="#000000" stroke-width="0" stroke-linecap="butt"/><path d="M243.83962,170.29099c0,0 0.78557,-0.52129 0.96501,-0.02222c0.11752,0.32682 -0.42229,2.32014 -0.42229,2.32014" fill="#033397" stroke="#000000" stroke-width="0.125" stroke-linecap="round"/><path d="M244.40143,175.36186c0.13433,0.45501 -0.16779,0.78008 -1.00882,0.95192c-0.5311,0.10851 -1.27512,0.09486 -1.25629,-0.29212c0.01136,-0.23336 0.66621,-0.27504 1.1363,-0.40673c0.4701,-0.13169 1.08785,-0.39187 1.12882,-0.25309z" fill="#0d1114" stroke="none" stroke-width="0" stroke-linecap="butt"/><path d="M243.83763,175.65386c0.01055,0.07724 -0.16873,0.16549 -0.40042,0.19713c-0.23168,0.03165 -0.42806,-0.00532 -0.43861,-0.08255c-0.01055,-0.07724 0.16873,-0.16549 0.40042,-0.19713c0.23168,-0.03165 0.42806,0.00532 0.43861,0.08255z" fill="#fdfdfd" stroke="none" stroke-width="0" stroke-linecap="butt"/><path d="M237.70835,167.53606c0,0 -0.53622,0.11933 -1.52179,0.56025c-1.07806,0.48231 -1.18737,0.9094 -1.18737,0.9094c0,0 -0.43045,-3.00453 0.0569,-3.10591c0.69928,-0.14546 2.65227,1.63627 2.65227,1.63627z" fill="#fec267" stroke="none" stroke-width="0" stroke-linecap="butt"/><g stroke="none" stroke-width="0" stroke-linecap="butt"><path d="M240.10807,172.34838c0.27671,0.05711 0.28837,0.69756 0.13255,1.45246c-0.15581,0.75491 -0.4201,1.33838 -0.69679,1.28128c-0.30742,-0.06346 -0.28837,-0.69756 -0.13255,-1.45246c0.15581,-0.75491 0.38938,-1.34474 0.69679,-1.28129z" fill="#005c2d"/><path d="M239.94953,173.11628c0.11026,0.02275 0.14856,0.28874 0.08554,0.5941c-0.06302,0.30535 -0.20351,0.53443 -0.31377,0.51168c-0.11026,-0.02276 -0.14856,-0.28874 -0.08554,-0.5941c0.06302,-0.30536 0.20351,-0.53444 0.31377,-0.51169z" fill="#000000"/><path d="M239.99393,172.90127c0.11027,0.02278 0.16985,0.18563 0.13309,0.36374c-0.03675,0.17813 -0.15596,0.30407 -0.26622,0.28132c-0.11026,-0.02278 -0.16985,-0.18563 -0.13309,-0.36374c0.03676,-0.17813 0.15597,-0.30407 0.26623,-0.28132z" fill="#ffffff"/></g><g stroke="none" stroke-width="0" stroke-linecap="butt"><path d="M243.75763,174.4914c-0.18087,0.49316 -0.41765,0.8599 -0.5984,0.79361c-0.20082,-0.07365 -0.12427,-0.49914 0.0566,-0.99231c0.18087,-0.49316 0.39757,-0.86727 0.5984,-0.79361c0.18076,0.06628 0.12427,0.49914 -0.0566,0.99231z" fill="#005c2d"/><path d="M243.62819,174.40978c-0.07317,0.19949 -0.19087,0.33979 -0.26291,0.31337c-0.07204,-0.02641 -0.07112,-0.20955 0.00204,-0.40903c0.07317,-0.19949 0.19087,-0.33979 0.26291,-0.31337c0.07204,0.02641 0.07112,0.20955 -0.00204,0.40903z" fill="#000000"/><path d="M243.68173,173.8603c0.07204,0.02642 0.09584,0.14218 0.05316,0.25854c-0.04269,0.11636 -0.13567,0.18928 -0.20771,0.16286c-0.07204,-0.02642 -0.09584,-0.14218 -0.05316,-0.25854c0.04269,-0.11637 0.13567,-0.18929 0.20771,-0.16287z" fill="#ffffff"/></g><path d="M236.52813,176.30942c0,0 0.53994,0.49463 0.99033,0.62539c0.45039,0.13076 1.29486,0.28569 1.29486,0.28569c0,0 -1.00794,-0.02502 -1.51722,-0.17288c-0.50927,-0.14785 -0.76797,-0.7382 -0.76797,-0.7382z" fill="#000000" stroke="#000000" stroke-width="0" stroke-linecap="butt"/><path d="M242.90089,172.51736c0.18622,0.00906 0.46066,0.95186 0.46066,0.95186c0,0 -0.15836,0.45852 -0.29587,0.73579c-0.13752,0.27728 -0.41613,0.69977 -0.41613,0.69977c0,0 -0.30822,0.08292 -0.27968,-0.50367c0.02854,-0.58659 0.34478,-1.89281 0.53101,-1.88375z" fill="#033397" stroke="none" stroke-width="0" stroke-linecap="butt"/></g><path d="M237.63766,178.46071c0.52974,0.01838 0.26957,-0.00112 0.43891,0.53587c0.16933,0.53699 -0.53502,0.55124 -0.53502,0.55124l-1.97565,0.24098l-0.3687,3.06255l-1.02272,0.00603l0.4002,-3.95707c0,0 2.53326,-0.45796 3.063,-0.43958z" data-paper-data="{&quot;index&quot;:null}" fill="#fec267" stroke="none" stroke-width="0" stroke-linecap="butt"/><g data-paper-data="{&quot;index&quot;:null}" fill="#fdfdfd" stroke="none" stroke-width="0" stroke-linecap="butt"><g><path d="M237.03735,186.72813c-0.02473,0.2873 -0.62301,1.53408 -0.72198,1.57129c-0.12015,0.04519 0.03967,0.07155 -0.16948,0.04072c-0.20915,-0.03085 -0.19393,-0.32543 -0.19393,-0.32543c0,0 -0.1102,0.37521 -0.43444,0.34306c-0.32423,-0.03214 -0.45911,-0.36467 -0.45911,-0.36467c0,0 -0.20489,0.24596 -0.46037,0.20413c-0.25549,-0.04184 -0.46062,-0.35648 -0.46062,-0.35648c0,0 -0.37098,0.29809 -0.58216,0.26598c-0.21114,-0.03211 -0.36348,-0.40918 -0.36348,-0.40918c0,0 -0.09597,0.31871 -0.53549,0.24038c-0.3421,-0.06094 -0.3845,-0.53584 -0.26483,-1.18423c0.12128,-0.65727 0.24279,-1.35198 0.27197,-1.69081c0.08839,-1.02679 1.16452,-1.22557 2.19132,-1.13717c0.48093,0.0414 1.19755,0.31616 1.43714,0.89313c0.32112,0.77331 0.79244,1.36337 0.74544,1.90923z"/></g><path d="M234.56183,184.24081c-0.41405,-0.00468 -1.49184,0.04364 -1.52221,-0.27739c-0.06166,-0.65149 0.42686,-0.63202 0.42686,-0.63202c0,0 -0.46389,-0.04979 0.02114,-0.64568c0.19241,-0.23642 0.79169,-0.34558 1.30856,-0.30961c0.51688,0.03596 1.46412,0.26936 1.50572,0.62448c0.03207,0.2737 -0.38169,0.42427 -0.38169,0.42427c0,0 0.3031,0.29692 0.29344,0.58187c-0.03399,0.29456 -1.28343,0.23818 -1.65183,0.23403z"/></g></g></g></svg>