<svg version="1.1" xmlns="http://www.w3.org/2000/svg" xmlns:xlink="http://www.w3.org/1999/xlink" width="32.03037" height="38.42148" viewBox="0,0,32.03037,38.42148"><g transform="translate(-223.86722,-162.44175)"><g data-paper-data="{&quot;isPaintingLayer&quot;:true}" fill-rule="nonzero" stroke="none" stroke-linecap="butt" stroke-linejoin="miter" stroke-miterlimit="10" stroke-dasharray="" stroke-dashoffset="0" style="mix-blend-mode: normal"><path d="M241.20618,176.74056c0,0 -0.04878,2.42503 -1.77608,3.85835c-1.90815,1.5834 -6.13288,1.86112 -6.13288,1.86112l2.3758,-2.64768l0.17113,-5.12718z" fill="#2095ad" stroke-width="0"/><g stroke-width="0.17188"><path d="M233.31341,178.72937c-0.47971,-0.04485 -2.12463,-0.23561 -2.10131,-0.62511c0.02885,-0.50325 0.71571,-1.32709 1.32037,-1.48177c0.92032,-0.2351 2.11421,-0.15251 3.09817,-0.09524c1.55684,0.09087 3.79076,-0.00043 4.07855,0.29884c0.28783,0.29914 -1.09675,1.11531 -1.93096,1.38613c-0.83422,0.27082 -3.01385,0.65261 -4.46482,0.51716z" data-paper-data="{&quot;index&quot;:null}" fill="#09649e"/><path d="M231.2236,178.08717c0.30253,0.33539 0.15001,0.63212 0.02009,0.74926c-0.14646,0.12359 -0.45581,0.02718 -0.71607,0.14209c-1.37601,0.3521 -2.01892,0.2817 -2.68409,-0.07611c0.0599,-0.51793 2.05737,-0.20198 1.37442,-0.65894c-0.81183,-0.77477 -2.29249,0.0594 -2.56604,-0.19954c-0.2373,-0.22463 1.11546,-0.59128 0.87691,-0.62574c-0.10537,-0.01522 -1.17887,0.33539 -1.29657,-0.00763c-0.06925,-0.37848 1.16174,-0.33658 1.16174,-0.33658c0,0 -0.8854,0.25359 -0.83775,-0.11772c0.04765,-0.37131 0.71532,-0.25309 1.01412,-0.33946c0.08967,-0.07912 1.54972,0.03184 1.78247,0.04785c0.99716,0.06864 1.58095,-0.45829 1.69569,-0.12623c0.15469,0.44777 -0.02057,0.21105 -0.01794,0.59486c0.00145,0.2281 0.18625,0.94617 0.19303,0.95384z" fill="#ebd9bb"/><path d="M232.6486,179.05279c-0.47998,0.32537 -1.55709,-0.25695 -2.05851,0.01817c0.15378,-0.08784 0.06668,-0.4857 0.06668,-0.4857c-0.00768,-0.03206 -0.17788,-0.49022 -0.56073,-0.96741c-0.31477,-0.39238 -0.37973,-0.67162 -0.22315,-0.87517c0.10816,-0.1409 0.15883,-0.49273 0.52612,-0.48853c0.39024,0.00455 0.91498,-0.12062 1.29883,0.00004c0.1662,0.05222 0.69229,0.03831 0.80647,0.12379c0.17357,0.13028 -0.10555,0.22033 -0.07137,0.17578c0.17069,-0.22257 -0.02588,0.49926 0.06391,0.78881c0,0 0.39559,1.52323 0.15174,1.71022z" fill="#ecc51e"/></g><path d="M244.31919,175.14396c0.08883,-1.62629 0.04137,-9.8424 1.17656,-9.8424c1.06425,0 2.49957,4.02886 2.44989,6.87721c-0.05707,3.27475 -1.19876,6.37162 -1.19876,7.24271c0,1.62874 1.6086,4.82579 1.6086,4.82579c0,0 -4.54178,-1.22714 -4.03629,-9.10331z" fill="#2095ad" stroke-width="0"/><path d="M240.8653,176.53408c0.07474,-0.67529 1.51459,-0.32751 1.97876,-0.87562c0.94267,-1.11315 1.21195,-2.84995 1.31117,-2.84995c0.14805,0 0.36734,4.31831 0.44683,5.22794c0.44683,5.11332 -0.89367,6.30033 -0.89367,6.30033c0,0 -3.23157,-4.29292 -2.8431,-7.80272z" fill="#0d4d58" stroke-width="0"/><g stroke-width="0.17188"><path d="M247.73564,178.59237c-1.4454,0.18569 -3.63696,-0.12027 -4.48007,-0.36199c-0.84311,-0.24172 -2.25516,-1.00938 -1.97788,-1.31832c0.27724,-0.30907 2.51298,-0.29531 4.06573,-0.44012c0.98138,-0.09137 2.17169,-0.21532 3.09961,-0.01228c0.60966,0.13361 1.32468,0.93313 1.37097,1.43508c0.03682,0.38846 -1.60049,0.63616 -2.07836,0.69762z" data-paper-data="{&quot;index&quot;:null}" fill="#09649e"/><path d="M249.80194,177.878c0.00651,-0.0079 0.16629,-0.73195 0.15983,-0.95996c-0.01068,-0.38367 -0.17763,-0.14101 -0.03856,-0.59388c0.10316,-0.33584 0.70487,0.17052 1.69905,0.06734c0.23206,-0.02408 1.68738,-0.18561 1.77974,-0.10965c0.30161,0.07595 0.96478,-0.06535 1.02528,0.30408c0.0605,0.36944 -0.83316,0.14671 -0.83316,0.14671c0,0 1.22879,-0.08457 1.17271,0.29608c-0.10574,0.3469 -1.19075,0.03373 -1.29553,0.0526c-0.23721,0.04271 1.12746,0.36222 0.89809,0.59495c-0.26441,0.26827 -1.77311,-0.51404 -2.55758,0.28842c-0.66669,0.48037 1.31862,0.09533 1.39645,0.61087c-0.65236,0.38067 -1.29245,0.47332 -2.67984,0.16916c-0.26409,-0.10582 -0.56991,0.00127 -0.72057,-0.11717c-0.13391,-0.11257 -0.29663,-0.40383 -0.00591,-0.74951z" data-paper-data="{&quot;index&quot;:null}" fill="#ebd9bb"/><path d="M248.50362,177.17807c0.07969,-0.29249 -0.14181,-1.00707 0.03651,-0.79055c0.03571,0.04334 -0.24637,-0.03698 -0.07742,-0.1732c0.11115,-0.08939 0.6374,-0.09374 0.80169,-0.15169c0.37944,-0.1339 0.9082,-0.02701 1.29805,-0.04509c0.36693,-0.01693 0.42977,0.33293 0.54275,0.46999c0.16355,0.19799 0.10831,0.47932 -0.19266,0.88238c-0.36607,0.49019 -0.52028,0.95397 -0.52684,0.98628c0,0 -0.07324,0.40064 0.08349,0.48309c-0.51066,-0.25756 -1.56692,0.36177 -2.0579,0.05324c-0.25019,-0.17842 0.09233,-1.71445 0.09233,-1.71445z" data-paper-data="{&quot;index&quot;:null}" fill="#ecc51e"/></g><path d="M238.53974,200.75497c-1.13762,0.77635 -1.25938,-2.83962 -1.19237,-3.93155c-0.08055,-1.27034 0.74625,-3.53732 0.74625,-3.53732c0,0 0.47595,-1.59784 0.99078,-0.64797c0.23964,0.44217 0.50181,0.85655 0.70671,1.28769c0.23527,0.49504 0.39506,1.01218 0.3586,1.61885c0,0 -0.05268,4.14755 -1.60996,5.21029z" fill="#09649e" stroke-width="0"/><path d="M248.18233,197.22811c-0.18353,1.26157 -2.72086,-0.98262 -3.42211,-1.72985c-0.91503,-0.76309 -1.94055,-2.77518 -1.94055,-2.77518c0,0 -0.78965,-1.34663 0.17902,-1.08061c0.45092,0.12384 0.89702,0.21471 1.31869,0.35472c0.48417,0.16077 0.93613,0.38633 1.32622,0.80097c0,0 2.78995,2.70299 2.53872,4.42994z" fill="#09649e" stroke-width="0"/><path d="M240.49632,190.00435l-1.30244,-5.11081l1.35389,-0.16673c0,0 0.1198,3.37827 1.41593,4.95953c0.39512,0.51358 2.87105,3.3064 2.87105,3.3064c0,0 1.64162,1.68145 1.84244,2.28441c0.25546,0.76699 -0.94088,0.47716 -1.22896,0.26104c0,0 -0.91522,-1.01888 -1.51225,-1.63194c-0.88257,-0.90625 -3.43964,-3.90192 -3.43964,-3.90192z" fill="#ffffff" stroke-width="0"/><path d="M238.21029,189.4462l1.48288,-5.60342l0.8408,0.89731c0,0 -0.58578,2.79111 -1.07716,4.77575c-0.17507,0.62389 -0.39456,4.85976 -0.39456,4.85976c0,0 -0.08959,2.59868 -0.45253,3.12036c-0.46168,0.66361 -0.89851,0.01848 -1.01151,-0.57302c-0.113,-0.59149 0.23463,-1.97662 0.33131,-2.89598c0.11762,-1.11842 0.28078,-4.58075 0.28078,-4.58075z" fill="#ffffff" stroke-width="0"/><g stroke-width="0"><path d="M252.96747,185.07329c-1.17073,-0.19117 -5.91058,0.24208 -5.91058,0.24208c0,0 4.62652,-0.6474 5.11912,-1.68885c0.49266,-1.04159 -2.90336,-3.04115 -1.95238,-2.80558c5.02268,1.2442 5.67396,4.38379 5.67396,4.38379c0,0 -1.7594,0.05974 -2.93012,-0.13143z" fill="#2095ad"/><path d="M238.68142,180.2248c0,0 1.352,-0.36275 2.96932,-0.37428c1.34283,-0.00957 2.84573,0.33719 4.11795,0.29279c3.39819,-0.11861 6.5803,1.36838 7.39696,2.79615c0.59541,1.04096 -3.96892,2.58026 -6.17778,2.24089c-2.39256,-0.36759 -8.30644,-4.95556 -8.30644,-4.95556z" fill="#ffffff"/></g><g stroke-width="0"><path d="M235.15286,184.00892c0,0 -2.19252,1.16317 -4.31608,1.91249c-1.17053,0.41303 -2.61054,0.44513 -3.87782,0.80687c-1.26728,0.36174 -3.09174,1.09937 -3.09174,1.09937c0,0 0.57885,-1.68083 1.23357,-2.35969c0.65472,-0.67887 3.56543,-2.97564 3.8189,-2.87911c0.25347,0.09653 6.23318,1.42007 6.23318,1.42007z" fill="#2095ad"/><path d="M232.56466,180.801c3.67911,-1.11965 5.03462,-0.51063 5.73368,-0.80731c2.03258,-0.86262 1.67217,-0.47547 1.67217,-0.47547c0,0 -0.52642,2.90393 -6.46723,5.24671c-4.27602,1.68626 -7.05897,0.30057 -7.05897,0.30057c0,0 1.41312,-2.83195 6.12035,-4.2645z" fill="#ffffff"/></g><g data-paper-data="{&quot;index&quot;:null}" stroke-width="0"><path d="M248.35135,188.18066c0.73617,-1.30284 -1.43343,-4.99724 -1.43343,-4.99724c0,0 2.09566,-0.0213 3.73072,3.48599c1.63506,3.50729 0.82455,7.87393 0.82455,7.87393c0,0 -2.42425,-2.88803 -4.37696,-3.83879c-1.95271,-0.95076 -4.13805,-2.48764 -4.13805,-2.48764c0,0 4.66775,1.24757 5.39317,-0.03625z" fill="#2095ad"/><path d="M247.05473,183.12424c0.19598,0.15029 2.16506,2.08427 2.00919,4.56961c-0.85052,2.03144 -5.47998,0.88607 -5.47998,0.88607c0,0 -2.66235,-0.58275 -4.05804,-1.9635c-1.67683,-1.65885 -1.58778,-4.36181 -1.03492,-5.61127c0.55286,-1.24946 0.56093,0.37699 3.41331,0.17273c2.14913,-0.15388 4.96261,1.80233 5.15045,1.94636z" fill="#ffffff"/></g><g stroke-width="0"><path d="M229.24305,188.90809c0.53334,-1.90423 2.5465,-3.98658 2.5465,-3.98658l6.01919,3.13496c0,0 -3.90888,2.41622 -5.15373,3.48623c-1.24485,1.07002 -3.55321,2.43716 -3.55321,2.43716c0,0 -0.56426,-2.55285 0.14125,-5.07176z" fill="#2095ad"/><path d="M231.78953,184.92152c0.76078,-0.80064 1.42182,-2.42287 5.39913,-3.41078c2.71263,-0.67377 3.41374,-2.27394 3.41374,-2.27394l1.04275,0.67674c0,0 -0.51955,4.44249 -2.50177,6.89493c-1.85442,2.29431 -7.19643,4.01257 -8.72352,2.56178c-1.52709,-1.45079 0.60311,-3.64201 1.36968,-4.44873z" fill="#ffffff"/></g><path d="M239.59745,176.6419c0.27251,0 1.27223,-0.15383 1.55758,0.01468c0.91399,0.5913 0.44364,1.54443 0.40456,3.01343c0.04114,0.18438 0.19368,0.59337 0.19368,0.59337c0,0 -0.68512,-0.29135 -0.96219,-0.42856c-0.1795,-0.08889 -0.53861,-0.31464 -0.53861,-0.31464c0,0 -0.44075,0.0734 -0.55348,0.05417c-0.22585,-0.03853 -1.08002,0.67774 -1.08002,0.67774l-0.11055,0.14195c0,0 0.18138,-0.40937 0.1735,-0.81523c-0.00944,-0.48635 -0.20346,-1.00254 -0.13155,-1.27342c0,0 0.47414,-1.66348 1.04707,-1.66348z" fill="#09649e" stroke-width="0"/><path d="M238.28718,180.03193c0,0 -0.12291,0.26044 -0.08421,0.51671c0.03871,0.25627 0.07346,0.56335 0.07346,0.56335l1.14935,0.60871c0,0 0.69977,-0.17208 0.98654,-0.30108c0.28677,-0.12901 1.45435,-1.44869 1.45435,-1.44869l0.5124,-0.01355c0,0 -1.02092,1.49708 -1.66897,1.80284c-0.64805,0.30576 -1.58756,0.58004 -1.58756,0.58004l-0.227,0.41811l-0.83154,0.09415l-0.28956,-0.66532l0.2125,-0.41509c0,0 -0.20381,-0.62494 -0.23543,-1.05459c-0.03162,-0.42966 0.02339,-0.62472 0.02339,-0.62472z" fill="#eec522" stroke-width="0"/><g stroke-width="0"><path d="M235.18422,167.96584c0,-0.04237 0.54261,-0.41338 1.08838,-0.99697c0.4541,-0.4856 0.01815,-1.26667 0.3999,-1.26667c0.84059,0 2.47821,-0.34366 2.47821,-0.26606c0,0.0776 -1.88061,2.67021 -2.7212,2.67021c-0.84059,0 -1.24531,-0.06293 -1.24531,-0.14056z" fill="#72878d"/><path d="M243.45333,166.16708l-1.48483,-0.52189c0,0 -0.14735,-1.42657 0.33835,-1.60663c2.55435,-0.94701 4.34968,2.87289 4.34968,2.87289c0,0 0.74906,3.57907 0.35843,6.4777c-0.42518,3.15494 -3.61935,8.08767 -3.61935,8.08767c0,0 0.60947,-5.74043 0.76618,-7.95946c0.10456,-1.48062 0.08281,-4.06033 0.08281,-4.06033z" fill="#2095ad"/><path d="M241.74236,163.33542c0,0 0.26271,-0.89367 1.02773,-0.89367c0.76502,0 0.84899,0.26808 0.84899,0.26808c0,0 2.21439,0.00444 2.53701,2.26224c0.02809,0.19661 -1.84024,-0.80459 -2.13487,-1.0111c-0.62645,-0.43909 -2.27886,-0.62558 -2.27886,-0.62558z" fill="#dceef3"/><path d="M238.25704,163.96097c0,-0.24679 1.40283,-1.21449 2.42667,-1.27176c0.6731,-0.03764 0.61182,0.64617 0.61182,0.64617c0,0 -0.69888,0.71492 -1.34048,0.71492c-0.6416,0 -1.69797,0.15742 -1.69797,-0.08937z" fill="#dceef3"/><path d="M241.65297,163.24606c1.13519,0 2.05544,0.33073 2.05544,0.84898c0,0.51823 -0.92025,0.75961 -2.05544,0.75961c-1.13515,0 -2.14477,-0.24135 -2.14477,-0.75961c0,-0.51826 1.00959,-0.84898 2.14477,-0.84898z" fill="#e8d548"/><path d="M242.27534,165.20156c0,-0.3768 0.4922,-0.88512 1.14658,-0.88512c0.65441,0 1.00779,0.65196 1.00779,1.02876c0,0.3768 -0.31506,0.03591 -0.96947,0.03591c-0.65441,0 -1.18489,0.19725 -1.18489,-0.17955z" fill="#72878d"/><path d="M234.59303,167.40159c0,0 -0.6694,-1.8337 0.24113,-2.92726c0.72979,-0.87646 1.63555,-0.69209 1.63555,-0.69209c0,0 0.43632,-0.48673 1.51595,-0.494c0.66245,-0.06965 1.8181,0.79716 1.87996,0.89615c0.36908,0.59042 -1.34733,-0.25773 -1.87788,-0.02104c-1.3601,0.60673 -3.39475,3.23824 -3.39475,3.23824z" fill="#dceef3"/><path d="M235.12924,168.07197c0,0 0.98655,-2.5116 1.56941,-2.5116c0.58289,0 0.18113,1.01641 0.18113,1.01641l-1.75054,1.49516z" fill="#dceef3"/><path d="M235.30791,170.66357c0,0 1.1822,-4.32301 1.94891,-4.75215c0.58942,-0.32989 2.25133,-0.34173 2.25133,-0.34173c0,0 -1.69794,4.79748 -1.69794,8.40045c0,3.60297 -0.08938,6.6131 -0.08938,6.6131c0,0 -1.55342,-2.56336 -2.02892,-4.51823c-0.4755,-1.95487 -0.38397,-5.40144 -0.38397,-5.40144z" fill="#2095ad"/><path d="M240.84866,168.56703c2.76393,0 4.96535,1.88084 5.00454,4.20021c0.04816,2.8495 -2.52932,3.97622 -5.0527,4.0076c-1.51717,0.01886 -4.712,-0.84071 -4.85887,-3.91243c-0.4497,-2.36698 2.1431,-4.29538 4.90703,-4.29538z" fill="#ecdebd"/><path d="M242.38868,173.90551c-0.4109,-0.03217 -1.84581,-0.28527 -1.84581,-0.28527c0,0 -0.15059,-0.41707 0.09141,-0.8484c0.37857,-0.67468 0.86017,-1.12828 1.43975,-1.09674c0.57958,0.03156 0.64759,0.48519 0.87772,0.90455c0.23012,0.41936 -0.07554,1.2234 -0.07554,1.2234c0,0 -0.28893,0.11804 -0.48753,0.10247z" fill="#000000"/><path d="M240.41085,173.91328c0,0 -0.02725,-1.57437 1.34691,-1.80871c1.32728,-0.2586 1.04147,1.71731 1.04147,1.71731c0,0 -0.41705,0.19242 -1.11843,0.19242c-0.70138,0 -1.26996,-0.10102 -1.26996,-0.10102z" fill="#eaeee9"/><path d="M247.37244,166.86542l0.40215,-1.29582c0,0 0.47982,0.57887 0.67632,1.18631c0.19651,0.60744 0.30673,1.85214 0.30673,1.85214z" fill="#dceef1"/><path d="M235.91205,165.90804c0,-0.03967 1.4607,-1.89142 2.52131,-1.89142c1.06064,0 1.75942,0.8939 1.75942,0.93357c0,0.03967 -1.41689,0.64633 -2.19027,0.64633c-0.77338,0 -2.09047,0.35119 -2.09047,0.31152z" fill="#72878d"/><path d="M246.94314,167.57128c0,-0.53544 0.35907,-0.91977 0.35907,-0.91977c0,0 0.50477,0.71123 0.74256,1.04147c0.23779,0.33024 0.79755,1.06319 0.79755,1.06319c0,0 -1.89918,-0.64948 -1.89918,-1.18489z" fill="#72878d"/><path d="M236.26466,172.35114c0.01863,-0.51353 0.02393,-0.78159 0.60354,-0.81315c0.28134,-0.01531 0.71731,0.43381 0.85632,0.94718c0.14738,0.54425 -0.19345,0.83509 -0.19345,0.83509l-0.91662,0.25428c0,0 -0.39157,-0.07145 -0.34981,-1.2234z" data-paper-data="{&quot;index&quot;:null}" fill="#000000"/><path d="M236.58425,173.58397c0,0 -0.4394,-1.27459 -0.0297,-1.78074c0.40974,-0.50616 0.81724,-0.29457 1.03877,0.47486c0.14442,0.5016 -0.08906,1.42457 -0.08906,1.42457z" fill="#eaeee9"/><g><path d="M236.39542,172.84926c0,-0.53003 0.25562,-0.95965 0.57096,-0.95965c0.31534,0 0.57097,0.42965 0.57097,0.95965c0,0.53003 -0.25563,0.95966 -0.57097,0.95966c-0.31534,0 -0.57096,-0.42966 -0.57096,-0.95966z" fill="#a77baf"/><path d="M236.99017,172.39224c0.13142,0 0.23791,0.20458 0.23791,0.45697c0,0.25239 -0.10652,0.45697 -0.23791,0.45697c-0.13139,0 -0.23791,-0.20458 -0.23791,-0.45697c0,-0.25239 0.10652,-0.45697 0.23791,-0.45697z" fill="#000000"/><path d="M237.07344,172.30082c0.09853,0 0.17842,0.14323 0.17842,0.31988c0,0.17666 -0.07989,0.31988 -0.17842,0.31988c-0.09853,0 -0.17843,-0.14323 -0.17843,-0.31988c0,-0.17666 0.07989,-0.31988 0.17843,-0.31988z" fill="#ffffff"/></g><path d="M235.3277,172.39665c0,0 -0.0072,-2.57917 0.7895,-3.7501c0.79671,-1.17093 2.7463,-2.19206 4.5855,-2.59753c1.83918,-0.40546 2.23541,0.54731 3.10904,0.9012c1.64125,0.66484 0.53379,5.2494 0.53379,5.2494c0,0 -2.44108,-0.08416 -3.32703,0.14033c-1.01248,0.25657 -2.16939,1.17572 -2.56591,1.02677c-0.26648,-0.10009 -0.55899,-1.06878 -0.55899,-1.06878l-0.34305,0.78596c0,0 -0.86858,-1.74757 -1.58222,-1.30576c-0.62458,0.38667 -0.6406,0.6185 -0.6406,0.6185z" fill="#2195ab"/><path d="M244.86129,166.02328c-0.2648,-0.28263 -0.50623,-0.85819 -0.70894,-1.10222c-0.38593,-0.46456 -1.20018,-0.56825 -1.20018,-0.56825c0,0 0.8641,-0.75766 1.34659,-0.80939c0.48248,-0.0517 1.46505,0.41753 1.46505,0.41753c0,0 0.31116,-0.33732 0.95061,-0.17266c0.52154,0.13429 1.40077,0.71595 1.36312,1.15503c-0.03439,0.40134 -0.20464,0.95432 -0.39336,1.36142c-0.27089,0.58431 -0.5799,0.96278 -0.5799,0.96278c0,0 -1.00328,0.07888 -2.24299,-1.24429z" fill="#dceef3"/><path d="M243.20386,165.93141c0,0 0.34463,0.2659 0.44648,0.54091c0.10186,0.27504 0.1257,1.00409 0.1257,1.00409c0,0 -0.20915,-0.27114 -0.89483,-0.77418c-0.59004,-0.43287 -1.43497,-0.71815 -1.43497,-0.81897c0,-0.21803 1.75759,0.04816 1.75759,0.04816z" data-paper-data="{&quot;index&quot;:null}" fill="#0b4754"/><path d="M239.12713,166.03125c0,0.10082 -0.69572,0.52588 -1.28575,0.95875c-0.68568,0.50304 -1.32828,1.2558 -1.32828,1.2558c0,0 0.1321,-0.85928 0.27385,-1.26879c0.14175,-0.40955 0.3923,-0.60741 0.3923,-0.60741c0,0 1.94789,-0.55635 1.94789,-0.33832z" fill="#0b4754"/><path d="M237.90005,167.15804c0,-0.37095 0.86945,-1.8615 1.58331,-2.65596c0.49722,-0.55333 1.00833,0.23103 1.00833,0.23103c0,0 1.5281,-0.32099 1.84828,0.00353c0.16674,0.2862 -0.14937,0.94122 -0.29218,1.52855c-0.12833,0.52791 -0.013,1.11325 -0.12621,1.2503c-0.70559,0.85416 -1.55513,1.31818 -2.59161,1.31818c-1.03648,0 -1.42988,-1.04636 -1.42988,-1.67565z" fill="#dceef3"/><path d="M243.95217,176.06964l0.24081,-4.19008l0.96322,-0.43345l-0.09632,4.52717z" fill="#2095ad"/><path d="M236.39969,172.75195c-0.03693,0.13384 -0.66387,-0.28797 -0.98385,-0.44552c-0.31998,-0.15748 -0.78371,-0.81968 -0.78371,-0.81968c0,0 0.55661,0.47329 0.95117,0.72413c0.39459,0.25084 0.83354,0.47885 0.8164,0.54107z" data-paper-data="{&quot;index&quot;:null}" fill="#000000"/><g><path d="M240.69824,173.26117c0,-0.53003 0.25562,-0.95965 0.57096,-0.95965c0.31534,0 0.57097,0.42965 0.57097,0.95965c0,0.53003 -0.25563,0.95966 -0.57097,0.95966c-0.31534,0 -0.57096,-0.42966 -0.57096,-0.95966z" fill="#a77baf"/><path d="M241.29299,172.80422c0.13142,0 0.23791,0.20458 0.23791,0.45697c0,0.25239 -0.10652,0.45697 -0.23791,0.45697c-0.13139,0 -0.23791,-0.20458 -0.23791,-0.45697c0,-0.25239 0.10652,-0.45697 0.23791,-0.45697z" fill="#000000"/><path d="M241.37627,172.71273c0.09853,0 0.17842,0.14323 0.17842,0.31988c0,0.17666 -0.07988,0.31988 -0.17842,0.31988c-0.09853,0 -0.17842,-0.14323 -0.17842,-0.31988c0,-0.17666 0.07989,-0.31988 0.17842,-0.31988z" fill="#ffffff"/></g><path d="M237.40847,174.1753c-0.43213,0.0288 -0.84661,-0.63073 -0.84661,-0.63073c0,0 0.67282,0.0654 0.91591,0.0451c0.08976,-0.0075 0.18087,-0.42888 0.18087,-0.42888c0,0 0.74368,0.36515 0.7211,0.65747c-0.01451,0.18795 -0.80214,0.34579 -0.97127,0.35704z" fill="#ecdebd"/><path d="M240.45368,174.39126l0.41933,-0.4193c0,0 0.40999,0.07625 0.648,0.07625c0.23801,0 0.72423,-0.03812 0.72423,-0.03812l0.60988,0.3812z" fill="#ecdebd"/><path d="M239.92827,176.10949c0.12625,-0.10919 0.49239,0.08499 0.82685,0.08499c0.33446,0 0.736,-0.25441 0.8367,-0.08499c0.13818,0.13728 -0.47489,0.24026 -0.83178,0.24026c-0.35689,0 -1.08146,-0.02432 -0.83177,-0.24026z" fill="#b1a37f"/><path d="M242.74762,174.09434c0.26612,0 0.06744,-0.01409 0.06744,0.31516c0,0.32925 -0.06744,0.38542 -0.06744,0.38542c0,0 -0.06743,-0.05617 -0.06743,-0.38542c0,-0.32925 -0.19869,-0.31516 0.06743,-0.31516z" fill="#d0bf96"/><path d="M236.56615,173.67286c0.26612,0 0.06743,-0.01409 0.06743,0.31516c0,0.32922 -0.06743,0.38539 -0.06743,0.38539c0,0 -0.06744,-0.05614 -0.06744,-0.38539c0,-0.32925 -0.19869,-0.31516 0.06744,-0.31516z" fill="#d0bf96"/><path d="M236.91734,173.81336c0.26612,0 0.06744,-0.01409 0.06744,0.31516c0,0.32922 -0.06744,0.38538 -0.06744,0.38538c0,0 -0.06743,-0.05613 -0.06743,-0.38538c0,-0.32925 -0.19869,-0.31516 0.06743,-0.31516z" fill="#d0bf96"/><path d="M242.3964,174.23483c0.26612,0 0.06744,-0.01409 0.06744,0.31516c0,0.32922 -0.06744,0.38539 -0.06744,0.38539c0,0 -0.06743,-0.05614 -0.06743,-0.38539c0,-0.32925 -0.1987,-0.31516 0.06743,-0.31516z" fill="#d0bf96"/><path d="M245.0385,175.50016c0,0 -0.42674,-2.45133 -0.62431,-3.38272c-0.14461,-0.68174 -0.45262,-1.6942 -0.45262,-1.6942c0,0 0.82659,-0.83705 1.07692,-0.46154c0.25034,0.37551 1.33832,2.03797 1.15385,3.38462c-0.18447,1.34665 -1.15385,2.15385 -1.15385,2.15385z" fill="#2195ab"/></g><path d="M240.60584,179.38436c0,0 0.31767,0.37105 0.53546,0.40686c0.2178,0.03581 0.47873,0.07872 0.47873,0.07872l0.37424,0.36655c0,0 -0.62919,0.01622 -0.86424,-0.08189c-0.23505,-0.09811 -0.55402,-0.46601 -0.55402,-0.46601z" fill="#2490a6" stroke-width="0"/><path d="M238.33871,180.36664l0.50508,-0.42884c0,0 0.00713,-0.06008 0.1822,-0.0996c0.17507,-0.03952 0.4723,-0.5085 0.4723,-0.5085l0.05232,0.25088c0,0 -0.20342,0.43289 -0.39237,0.54115c-0.18894,0.10826 -0.81954,0.24492 -0.81954,0.24492z" data-paper-data="{&quot;index&quot;:null}" fill="#2490a6" stroke-width="0"/><g><path d="M240.29572,176.92609c0.17008,0.06905 0.3072,0.33949 0.39108,0.72079c0.08399,0.38126 0.11481,0.87325 0.07258,1.38519c-0.0422,0.51204 -0.14953,0.94795 -0.28883,1.23853c-0.1394,0.29062 -0.31073,0.43601 -0.48082,0.36696c-0.17021,-0.06911 -0.30722,-0.33958 -0.3912,-0.72085c-0.08388,-0.3813 -0.11481,-0.87325 -0.07258,-1.38519c0.04219,-0.51204 0.14963,-0.94798 0.28893,-1.23856c0.1393,-0.29058 0.31062,-0.43597 0.48084,-0.36686z" fill="#5ed161" stroke-width="0.01872"/><g data-paper-data="{&quot;index&quot;:null}" fill="#21683c" stroke-width="0.01872"><path d="M240.22625,177.76841c0.09288,0.03771 0.16777,0.1854 0.21357,0.39363c0.04587,0.20821 0.0627,0.47689 0.03964,0.75647c-0.02305,0.27963 -0.08166,0.51769 -0.15773,0.67638c-0.07613,0.15871 -0.16969,0.23811 -0.26258,0.2004c-0.09295,-0.03774 -0.16778,-0.18545 -0.21364,-0.39367c-0.04581,-0.20823 -0.0627,-0.47689 -0.03964,-0.75647c0.02304,-0.27963 0.08172,-0.51771 0.15779,-0.6764c0.07607,-0.15869 0.16963,-0.23809 0.26259,-0.20035z"/></g><path d="M240.15095,177.68612c0.05931,0.02193 0.10212,0.11155 0.12354,0.23878c0.02138,0.12715 0.02128,0.29193 -0.00537,0.46388c-0.02668,0.17188 -0.07488,0.31879 -0.1313,0.41725c-0.05641,0.09846 -0.12094,0.1485 -0.18015,0.12654c-0.05927,-0.02186 -0.10211,-0.11155 -0.12352,-0.23878c-0.02138,-0.12717 -0.02132,-0.29184 0.0054,-0.46381c0.02666,-0.17195 0.07486,-0.31887 0.13128,-0.41732c0.05634,-0.09843 0.12087,-0.1484 0.18015,-0.12655z" fill="#ffffff" stroke-width="0.01896"/></g><path d="M243.93335,172.42521c0.44706,-0.13689 1.1976,-0.42078 1.1976,-0.42078c0,0 -0.65501,0.4588 -1.00537,0.52553c-0.35036,0.06676 -1.27957,0.39018 -1.27957,0.25136c0,-0.06454 0.64025,-0.21925 1.08734,-0.35611z" fill="#000000" stroke-width="0"/></g></g></svg>