<svg version="1.1" xmlns="http://www.w3.org/2000/svg" xmlns:xlink="http://www.w3.org/1999/xlink" width="32.22227" height="19.25264" viewBox="0,0,32.22227,19.25264"><g transform="translate(-224.56898,-178.08369)"><g data-paper-data="{&quot;isPaintingLayer&quot;:true}" fill-rule="nonzero" stroke-linejoin="miter" stroke-miterlimit="10" stroke-dasharray="" stroke-dashoffset="0" style="mix-blend-mode: normal"><g data-paper-data="{&quot;index&quot;:null}"><g stroke="none" stroke-width="0" stroke-linecap="butt"><path d="M229.25616,184.54759c0,0 -0.41831,-1.2302 -0.74497,-1.74589c-0.32381,-0.51117 -1.34751,-1.07042 -1.34751,-1.07042c0,0 2.08512,-1.76912 5.45488,-1.20119c2.93038,0.49389 4.40537,2.57428 4.40537,2.57428c0,0 -1.94623,0.13967 -3.17659,0.36826c-1.23036,0.22859 -4.59118,1.07494 -4.59118,1.07494z" data-paper-data="{&quot;index&quot;:null}" fill="#3ad3cf"/><path d="M225.45979,188.36717c-0.23746,0.12538 -1.49101,-1.00361 -0.53804,-3.62816c0.52008,-1.43231 2.22991,-3.013 2.22991,-3.013c0,0 1.07557,0.54496 1.50892,1.15075c0.43335,0.6058 0.6032,1.68945 0.6032,1.68945c0,0 -1.26605,0.63455 -1.84307,1.22591c-0.57702,0.59136 -1.71539,2.44539 -1.96094,2.57504z" fill="#ffffff"/></g><path d="M228.12995,181.88008l-0.5255,0.405" fill="none" stroke="#808080" stroke-width="0.5" stroke-linecap="round"/><path d="M229.00974,183.0745l-0.50597,0.29763" fill="none" stroke="#808080" stroke-width="0.5" stroke-linecap="round"/><path d="M229.57559,184.22077l-0.47722,0.25789" fill="none" stroke="#808080" stroke-width="0.5" stroke-linecap="round"/></g><g data-paper-data="{&quot;index&quot;:null}"><g stroke="none" stroke-width="0" stroke-linecap="butt"><path d="M229.43963,188.10423c0,0 -0.6914,-1.10677 -1.12809,-1.53656c-0.43285,-0.42604 -1.48065,-1.031 -1.48065,-1.031c0,0 1.73876,-2.17178 4.26254,-2.82047c3.48374,-0.89543 5.88645,0.3442 5.88645,0.3442c0,0 -1.12073,1.60845 -2.28473,2.2781c-1.16399,0.66963 -5.25553,2.76574 -5.25553,2.76574z" fill="#3ad3cf"/><path d="M225.68672,191.37313c-0.38072,-0.16416 -0.35223,-1.94338 -0.18916,-2.63818c0.2366,-1.64131 1.31493,-3.18737 1.31493,-3.18737c0,0 1.12995,0.44451 1.71564,1.04007c0.58571,0.59557 0.94493,1.5105 0.94493,1.5105c0,0 -1.81593,1.62597 -1.95667,1.8297c-0.43751,0.63337 -1.48638,1.59329 -1.8297,1.44526z" fill="#ffffff"/></g><path d="M229.52562,187.70708l-0.44664,0.34081" fill="none" stroke="#808080" stroke-width="0.5" stroke-linecap="round"/><path d="M228.66124,186.58762l-0.42203,0.40477" fill="none" stroke="#808080" stroke-width="0.5" stroke-linecap="round"/><path d="M227.23809,186.0807l0.33543,-0.44211" fill="none" stroke="#808080" stroke-width="0.5" stroke-linecap="round"/></g><g data-paper-data="{&quot;index&quot;:null}"><g><path d="M232.90408,190.0275c0.38105,-0.57884 2.67576,-1.99428 3.60742,-1.64924c0.25414,0.09411 1.4725,2.09251 1.84947,4.39861c0.46855,2.86634 -0.27392,4.64213 -0.71605,4.55651c-1.66576,-0.17341 -3.99122,-3.75389 -4.35151,-4.4742c-0.36029,-0.72028 -0.77039,-2.25284 -0.38934,-2.83168z" fill="#09a400" stroke="none" stroke-width="0" stroke-linecap="butt"/><path d="M234.24433,194.31786c0,0 -0.20643,-0.26029 -0.32248,-0.43801c-0.11606,-0.17774 -0.53536,-0.8757 -0.53536,-0.8757c0,0 1.25044,-1.0669 2.19698,-1.48564c0.94653,-0.41874 2.29414,-0.50118 2.29414,-0.50118c0,0 0.31209,0.86158 0.41521,1.38679c0.10311,0.52519 0.11468,0.94444 0.11468,0.94444c0,0 -1.3724,-0.06335 -2.16945,0.12729c-0.79706,0.19065 -1.9937,0.84201 -1.9937,0.84201z" fill="#a8c8d8" stroke="none" stroke-width="0" stroke-linecap="butt"/><path d="M236.55804,189.04703c0,0 0.83263,2.46844 1.08234,4.10708c0.24971,1.63864 0.13759,4.02968 0.13759,4.02968" fill="none" stroke="#000000" stroke-width="0.25" stroke-linecap="round"/><path d="M236.36593,189.37339l0.4487,-0.05704" fill="none" stroke="#808080" stroke-width="0.5" stroke-linecap="round"/><path d="M237.21659,190.57952l-0.58461,0.08503" fill="none" stroke="#808080" stroke-width="0.5" stroke-linecap="round"/><path d="M237.34607,194.13017l0.48969,-0.03006" fill="none" stroke="#808080" stroke-width="0.5" stroke-linecap="round"/><path d="M237.98195,195.841l-0.51664,0.07104" fill="none" stroke="#808080" stroke-width="0.5" stroke-linecap="round"/><path d="M237.0753,192.25723l0.70119,-0.0964" fill="none" stroke="#808080" stroke-width="0.5" stroke-linecap="round"/></g><path d="M238.03387,186.28534c0,0 0.52864,-0.77211 0.83036,-1.21278c0.30173,-0.44068 0.79972,-1.17127 0.79972,-1.17127l1.50249,-0.16329c0,0 -0.48815,0.88164 -0.90362,1.36839c-0.41547,0.48676 -1.52406,1.58233 -1.52406,1.58233z" fill="#3ad3cf" stroke="none" stroke-width="0" stroke-linecap="butt"/><path d="M238.50167,186.36992c0.42161,0.36327 0.05596,0.70254 -0.67135,1.478c-0.38943,0.41521 -1.27069,1.4071 -1.68208,0.96597c-0.38527,-0.41311 0.34313,-1.164 0.7147,-1.59526c0.37158,-0.43127 1.31897,-1.12422 1.63872,-0.84872z" fill="#ffffff" stroke="none" stroke-width="0" stroke-linecap="butt"/></g><g data-paper-data="{&quot;index&quot;:null}"><path d="M243.31257,185.94072c0,0 -0.8161,-0.84631 -1.39267,-1.30493c-0.68662,-0.54617 -1.88527,-0.706 -1.88527,-0.706l0.98367,-1.19824c0,0 0.90031,0.82439 1.73014,1.45344c0.70733,0.53617 2.17142,2.22616 2.17142,2.22616l-1.6073,-0.47045z" fill="#3ad3cf" stroke="none" stroke-width="0" stroke-linecap="butt"/><g data-paper-data="{&quot;index&quot;:null}"><path d="M246.54569,187.2663c1.69493,1.90343 0.72495,4.54035 0.2316,4.62763c-1.35901,0.25726 -2.2763,-0.49447 -3.6036,-1.78289c-1.60766,-1.56055 -0.94214,-4.22863 0.1093,-4.53119c0.34425,-0.09904 2.03575,0.30861 3.26267,1.68646z" fill="#a8c8d8" stroke="none" stroke-width="0" stroke-linecap="butt"/><path d="M244.02617,186.78176l-1.03393,0.09701" fill="none" stroke="#808080" stroke-width="0.5" stroke-linecap="round"/><path d="M243.28291,188.45981l0.81076,-0.11346" fill="none" stroke="#808080" stroke-width="0.5" stroke-linecap="round"/><path d="M243.76501,189.75167l0.76982,-0.20312" fill="none" stroke="#808080" stroke-width="0.5" stroke-linecap="round"/><path d="M244.65252,190.9869l0.54666,-0.2196" fill="none" stroke="#808080" stroke-width="0.5" stroke-linecap="round"/><path d="M245.62634,191.73172c0,0 -1.62,-1.79916 -1.93655,-2.94907c-0.31655,-1.14993 -0.24606,-3.04026 -0.24606,-3.04026" fill="none" stroke="#020202" stroke-width="0.25" stroke-linecap="round"/></g></g><g data-paper-data="{&quot;index&quot;:null}"><path d="M239.1964,182.23011c1.53946,-0.12377 2.02964,0.05722 3.09657,0.77442c1.59014,1.06892 1.94482,3.05965 -0.07922,4.63442c-2.05147,1.59612 -6.47138,0.88009 -6.63329,-0.89801c-0.15054,-1.65334 0.2819,-4.24281 3.61594,-4.51084z" fill="#3ad3cf" stroke="none" stroke-width="0" stroke-linecap="butt"/><path d="M238.92562,183.65779c3.34482,0.454 3.35883,2.20979 3.36116,2.98201c0.00396,1.31279 -1.02903,2.78015 -3.17241,2.9024c-1.60394,0.09147 -3.61985,-1.52089 -3.50029,-2.77999c0.17721,-1.8664 2.15703,-3.26114 3.31154,-3.10443z" fill="#ffffff" stroke="none" stroke-width="0" stroke-linecap="butt"/><path d="M241.53642,184.29969l-0.38303,0.4153" fill="none" stroke="#808080" stroke-width="0.5" stroke-linecap="round"/><path d="M239.59099,183.97855l0.0477,-0.46838" fill="none" stroke="#808080" stroke-width="0.5" stroke-linecap="round"/><path d="M237.8774,184.4476l-0.23454,-0.85679" fill="none" stroke="#808080" stroke-width="0.5" stroke-linecap="round"/><path d="M236.03077,184.92204l0.2903,0.58799" fill="none" stroke="#808080" stroke-width="0.5" stroke-linecap="round"/></g><g data-paper-data="{&quot;index&quot;:null}"><g><path d="M230.62982,187.90785c0.44659,-0.52992 2.89203,-1.66523 3.77656,-1.21285c0.24129,0.12339 1.21576,2.25139 1.3185,4.58584c0.12767,2.90157 -0.8188,4.57755 -1.24777,4.44045c-1.63374,-0.36841 -3.52124,-4.19789 -3.79421,-4.95562c-0.27295,-0.7577 -0.49967,-2.32789 -0.0531,-2.85782z" fill="#09a400" stroke="none" stroke-width="0" stroke-linecap="butt"/><path d="M231.45538,192.3262c0,0 -0.17432,-0.28278 -0.26865,-0.47294c-0.09432,-0.19017 -0.42849,-0.93268 -0.42849,-0.93268c0,0 1.3674,-0.91219 2.35669,-1.21652c0.98926,-0.30432 2.33722,-0.22747 2.33722,-0.22747c0,0 0.20844,0.89234 0.24896,1.42604c0.04055,0.53368 0.00263,0.95137 0.00263,0.95137c0,0 -1.35539,-0.22456 -2.16933,-0.12913c-0.81396,0.09543 -2.079,0.6013 -2.079,0.6013z" fill="#ffffff" stroke="none" stroke-width="0" stroke-linecap="butt"/><path d="M234.37383,187.36459c0,0 0.53609,2.54933 0.59105,4.20599c0.05496,1.65665 -0.33802,4.01783 -0.33802,4.01783" fill="none" stroke="#000000" stroke-width="0.25" stroke-linecap="round"/><path d="M234.59689,187.66231l-0.45228,0.00379" fill="none" stroke="#808080" stroke-width="0.5" stroke-linecap="round"/><path d="M234.84728,188.96397l-0.59054,0.01557" fill="none" stroke="#808080" stroke-width="0.5" stroke-linecap="round"/><path d="M234.55764,192.50518l0.48981,0.02783" fill="none" stroke="#808080" stroke-width="0.5" stroke-linecap="round"/><path d="M234.98756,194.27901l-0.52142,0.00969" fill="none" stroke="#808080" stroke-width="0.5" stroke-linecap="round"/><path d="M235.217,190.60023l-0.70765,0.01315" fill="none" stroke="#808080" stroke-width="0.5" stroke-linecap="round"/></g><path d="M236.16467,184.79599c0,0 0.6159,-0.70446 0.96743,-1.10654c0.35153,-0.40207 0.93211,-1.06892 0.93211,-1.06892l0.59551,-0.01779c0,0 0.32716,0.85061 -0.14276,1.28504c-0.4699,0.43443 -1.69982,1.39181 -1.69982,1.39181z" fill="#3ad3cf" stroke="none" stroke-width="0" stroke-linecap="butt"/><path d="M236.61925,184.93502c0.3759,0.4104 -0.02719,0.70422 -0.84078,1.38862c-0.43563,0.36644 -1.4276,1.24762 -1.78415,0.76112c-0.33394,-0.45561 0.47785,-1.11548 0.89765,-1.49997c0.41978,-0.3845 1.44221,-0.96103 1.72728,-0.64978z" fill="#ffffff" stroke="none" stroke-width="0" stroke-linecap="butt"/></g><g data-paper-data="{&quot;index&quot;:null}"><path d="M239.55847,184.77868c0.42114,-0.92601 1.02753,-1.915 1.02753,-1.915l0.51874,0.53155c0,0 -0.21638,0.6673 -0.55916,1.42897c-0.36921,0.82041 -1.37566,3.04891 -1.37566,3.04891l-0.54772,-0.66069c0,0 0.51512,-1.50775 0.93627,-2.43376z" fill="#3ad3cf" stroke="none" stroke-width="0" stroke-linecap="butt"/><g><path d="M239.79418,189.71262c-0.28062,2.39981 -2.86113,3.37069 -3.2512,3.07564c-1.08691,-0.80218 -1.13981,-1.92578 -1.06875,-3.67788c0.08608,-2.12219 2.48834,-3.32866 3.40543,-2.77314c0.30025,0.18189 1.11766,1.63822 0.91452,3.3754z" fill="#ffffff" stroke="none" stroke-width="0" stroke-linecap="butt"/><path d="M237.73209,186.94812l0.7543,0.6724" fill="none" stroke="#808080" stroke-width="0.5" stroke-linecap="round"/><path d="M236.76103,188.14901l0.61901,0.50375" fill="none" stroke="#808080" stroke-width="0.5" stroke-linecap="round"/><path d="M236.12914,189.30373l0.65792,0.41829" fill="none" stroke="#808080" stroke-width="0.5" stroke-linecap="round"/><path d="M235.80674,190.71036l0.52263,0.24963" fill="none" stroke="#808080" stroke-width="0.5" stroke-linecap="round"/><path d="M235.92168,191.38948c0,0 0.23382,-1.80075 0.87063,-2.74874c0.63681,-0.94799 2.07394,-2.08722 2.07394,-2.08722" fill="none" stroke="#020202" stroke-width="0.25" stroke-linecap="round"/></g></g><path d="M245.8921,178.08405c4.39801,-0.04125 7.43878,3.53377 7.40595,6.00742c-0.03197,2.40983 -0.48983,3.09088 -1.59798,4.24654c-2.85388,2.97625 -9.79907,0.51322 -9.86051,-1.89186c-0.07233,-2.8314 1.14772,-8.33487 4.05255,-8.3621z" data-paper-data="{&quot;index&quot;:null}" fill="#3ad3cf" stroke="none" stroke-width="0" stroke-linecap="butt"/><path d="M245.45542,178.69958c0.65378,0.00589 1.53143,3.39282 0.14299,6.15868c-0.58999,1.17529 -2.75466,2.65487 -3.14556,2.37386c-1.23647,-0.91073 -1.34275,-2.27037 -1.35232,-3.58541c-0.01761,-2.42046 2.45256,-4.96428 4.35489,-4.94714z" data-paper-data="{&quot;index&quot;:null}" fill="#ffffff" stroke="none" stroke-width="0" stroke-linecap="butt"/><path d="M255.9609,181.47733c0.10324,0.39409 -0.48801,1.40944 -1.03373,1.93201c-0.54572,0.52256 -1.83637,0.81633 -1.83637,0.81633c0,0 -0.44347,-1.42683 -0.87671,-2.29891c-0.43325,-0.87208 -1.39944,-1.85276 -1.55708,-2.10466c-0.2232,-0.35666 4.61801,-0.96275 5.3039,1.65523z" data-paper-data="{&quot;index&quot;:null}" fill="#ffffff" stroke="none" stroke-width="0" stroke-linecap="butt"/><path d="M250.69887,191.84755c-0.64648,0.57247 -1.91872,0.19982 -2.84866,-0.54017c-1.0264,-0.81675 -1.76912,-1.95057 -1.76912,-1.95057c0,0 1.53567,0.00499 2.82906,-0.02805c1.29338,-0.03303 2.54249,-0.86081 2.54249,-0.86081c0,0 0.85477,1.9552 -0.75376,3.3796z" data-paper-data="{&quot;index&quot;:null}" fill="#ffffff" stroke="none" stroke-width="0" stroke-linecap="butt"/><g data-paper-data="{&quot;index&quot;:null}" stroke="none" stroke-width="0" stroke-linecap="butt"><path d="M246.17152,185.89305c0.97445,-0.16924 1.90305,0.41451 2.0741,1.30382c0.17106,0.88932 -0.48023,1.74742 -1.45468,1.91665c-0.97444,0.16924 -1.90304,-0.4145 -2.07409,-1.30381c-0.17104,-0.8893 0.48024,-1.74743 1.45469,-1.91666z" fill="#ffffff"/><path d="M247.90038,187.78699c-0.09009,0.43953 -1.01916,1.24218 -1.73973,1.07028c-0.72057,-0.1719 -1.21131,-1.29826 -1.12121,-1.73781c0.09008,-0.43953 0.88097,-1.19521 1.63462,-1.01542c0.75366,0.17979 1.3164,1.24339 1.22631,1.68294z" fill="#000000"/></g><g data-paper-data="{&quot;index&quot;:null}" stroke="none" stroke-width="0" stroke-linecap="butt"><path d="M250.46351,182.97939c-0.25964,0.79017 -1.33945,1.14506 -2.41181,0.79268c-1.07236,-0.35238 -1.7312,-1.27858 -1.47154,-2.06875c0.25965,-0.79016 1.33945,-1.14506 2.41181,-0.79268c1.07236,0.35238 1.7312,1.27858 1.47154,2.06875z" fill="#ffffff"/><path d="M248.19065,183.43238c-0.78217,-0.25313 -1.51133,-0.906 -1.33039,-1.67221c0.18095,-0.76621 1.07059,-0.83777 1.86261,-0.58146c0.79202,0.25631 1.42878,1.16221 1.3387,1.60175c-0.09009,0.43954 -1.08874,0.90505 -1.87092,0.65193z" fill="#000000"/></g><path d="M248.72003,183.4631c0,0 1.45424,-0.16549 2.01161,-0.00717c0.77251,0.21943 1.10965,1.03282 1.10965,1.03282l-1.47606,3.66335c0,0 -1.05282,0.03885 -1.57747,-0.16917c-0.42371,-0.168 -1.48614,-1.47723 -1.48614,-1.47723c0,0 0.82369,-0.20101 1.42086,-0.27605c0.59716,-0.07504 1.62825,-0.1071 1.62825,-0.1071l-1.63072,-2.65943z" data-paper-data="{&quot;index&quot;:null}" fill="#3ad3cf" stroke="none" stroke-width="0" stroke-linecap="butt"/><g data-paper-data="{&quot;index&quot;:null}" stroke="none" stroke-width="0" stroke-linecap="butt"><path d="M245.5545,183.98614c0.01434,0.56128 -0.46711,1.35552 -1.20567,1.19724c-0.34611,-0.07419 -0.39514,-0.50628 -0.14887,-1.25108c0.17626,-0.53307 0.44457,-1.11673 1.01105,-1.09589c0.35373,0.01302 0.32914,0.58845 0.34348,1.14973z" fill="#71716f"/><path d="M245.27565,182.89426c0.27417,-0.04042 0.49348,0.20644 0.5878,0.5092c0.09433,0.30276 0.01376,0.57562 -0.15105,0.89271c-0.16481,0.31709 -0.73715,0.81015 -0.73715,0.81015c0,0 -0.48945,-0.36954 -0.33679,-1.31785c0.10085,-0.62663 0.16033,-0.8239 0.63719,-0.89421z" fill="#010101"/><path d="M244.71938,184.36119c0.15863,-0.00406 0.2905,0.12126 0.29455,0.27988c0.00406,0.15863 -0.12125,0.29049 -0.27986,0.29454c-0.15863,0.00406 -0.29049,-0.12125 -0.29454,-0.27986c-0.00406,-0.15863 0.12126,-0.2905 0.27988,-0.29455z" fill="#ffffff"/></g><g data-paper-data="{&quot;index&quot;:null}"><path d="M250.65741,185.78824c0,0 1.35333,0.52813 2.04945,1.11508c0.69612,0.58695 1.65821,2.01112 1.65821,2.01112l-0.17928,0.48578c0,0 -1.2063,-1.28088 -2.1079,-1.9436c-0.9016,-0.66271 -1.96892,-1.05304 -1.96892,-1.05304z" fill="#717370" stroke="none" stroke-width="0" stroke-linecap="butt"/><path d="M254.2889,189.76038l-0.38029,-1.38265l1.07927,0.99062l1.57548,0.85234l-0.25281,0.94999l-0.83735,0.01245l-0.18906,1.18003l-0.97151,-1.28123l-0.91505,0.28516z" fill="#009300" stroke="none" stroke-width="0" stroke-linecap="butt"/><path d="M253.97113,188.54429c0.26367,0.70232 1.25579,3.39595 1.25579,3.39595" fill="none" stroke="#000000" stroke-width="0.25" stroke-linecap="round"/><path d="M253.40213,191.39099l1.01935,-1.60147l2.24476,0.39614" fill="none" stroke="#000000" stroke-width="0.25" stroke-linecap="round"/></g></g></g></svg>