<svg version="1.1" xmlns="http://www.w3.org/2000/svg" xmlns:xlink="http://www.w3.org/1999/xlink" width="483.86305" height="366.36637" viewBox="0,0,483.86305,366.36637"><defs><linearGradient x1="171.07668" y1="184.16606" x2="204.04609" y2="184.16606" gradientUnits="userSpaceOnUse" id="color-1"><stop offset="0" stop-color="#f9f4c8"/><stop offset="1" stop-color="#ebdda6"/></linearGradient><linearGradient x1="204.9445" y1="176.81891" x2="245.68911" y2="176.81891" gradientUnits="userSpaceOnUse" id="color-2"><stop offset="0" stop-color="#ecdea7"/><stop offset="1" stop-color="#d9ba70"/></linearGradient><linearGradient x1="228.68909" y1="164.70353" x2="269.16076" y2="164.70353" gradientUnits="userSpaceOnUse" id="color-3"><stop offset="0" stop-color="#dbbe76"/><stop offset="1" stop-color="#cca450"/></linearGradient><linearGradient x1="158.01926" y1="203.95394" x2="354.18905" y2="203.95394" gradientUnits="userSpaceOnUse" id="color-4"><stop offset="0" stop-color="#c39537" stop-opacity="0"/><stop offset="1" stop-color="#c39537"/></linearGradient><linearGradient x1="269.52239" y1="156.83269" x2="307.85574" y2="156.83269" gradientUnits="userSpaceOnUse" id="color-5"><stop offset="0" stop-color="#cea754"/><stop offset="1" stop-color="#c49537"/></linearGradient></defs><g transform="translate(1.93153,3.18319)"><g data-paper-data="{&quot;isPaintingLayer&quot;:true}" fill-rule="nonzero" stroke-linejoin="miter" stroke-miterlimit="10" stroke-dasharray="" stroke-dashoffset="0" style="mix-blend-mode: normal"><path d="M-1.93153,363.18319v-366.36637h483.86305v366.36637z" fill="#000000" stroke="none" stroke-width="0" stroke-linecap="butt"/><path d="M213.30453,189.53694l1.44618,-9.4002l5.35088,7.80939z" fill="#080a04" stroke="none" stroke-width="0" stroke-linecap="butt"/><path d="M171.18911,180.74941c-2.04875,-15.54433 24.58334,-16.58333 24.58334,-16.58333l-0.00121,9.33208c0,0 -11.36303,1.5345 -11.48284,3.99522c-0.24937,5.12153 13.577,-4.3389 18.40071,6.25603c8.24146,18.10175 -23.75,20.41667 -23.75,20.41667l0.47488,-9.50468c0,0 12.04712,-1.90462 11.32119,-5.03546c-1.29344,-2.77192 -17.60908,5.81989 -19.54608,-8.87653z" fill="url(#color-1)" stroke="none" stroke-width="0" stroke-linecap="butt"/><path d="M169.18909,178.33276l1,6.5l-32.5,8.83333l-1.5,-6.5z" fill="#fcf9cf" stroke="none" stroke-width="0" stroke-linecap="butt"/><path d="M144.0224,213.99941l-1.5,-36.33333l7.83333,-2.16667l1.66667,36.66667z" fill="#fcf9cf" stroke="none" stroke-width="0" stroke-linecap="butt"/><path d="M157.85575,210.33276l-1.83333,-36.16667l7.83333,-2.33333l1.83333,36.5z" fill="#fcf9cf" stroke="none" stroke-width="0" stroke-linecap="butt"/><path d="M139.18904,207.49941l-1.5,-6.33333l32.66667,-9l1.83333,6.33333z" fill="#fcf9cf" stroke="none" stroke-width="0" stroke-linecap="butt"/><path d="M232.02245,190.3327l-2.92162,-4.70285l-10.427,2.40804l-0.5871,5.80089l-13.14222,3.79971l2.91127,-37.3058l16.16667,-4.33334l21.66666,30.33334z" fill="url(#color-2)" stroke="none" stroke-width="0" stroke-linecap="butt"/><path d="M218.6891,177.8327l0.33334,-8.83334l5.33333,7.33334z" fill="#000000" stroke="none" stroke-width="0" stroke-linecap="butt"/><path d="M249.85575,185.49939l-21.16667,-31l13.5,-3.66666l13.33334,21.5l0.49927,-25.17375l13.13909,-3.25123l-2.74516,37.21234z" fill="url(#color-3)" stroke="none" stroke-width="0" stroke-linecap="butt"/><path d="M162.60575,229.08278l9.33333,-7c0,0 117.52587,-38.18149 165.4455,-51.84343c1.20683,-0.34407 2.49444,0.4517 3.60983,0.13827c0.75656,-0.2126 -1.63274,2.58125 -0.9188,2.3818c2.30332,-0.64345 7.79911,-2.0718 9.59881,-2.56131c3.49478,-0.95056 -3.0751,2.7934 -1.63698,2.43564c2.57342,-0.64018 5.33106,4.31562 5.33106,4.31562c0,0 6.47004,-0.73766 8.2749,-1.16423c1.41065,-0.33339 -5.35752,2.72871 -5.35752,2.72871l5.60822,0.09798c0,0 -3.97968,3.82048 0.97858,2.91677c6.09463,-1.11084 2.76474,5.2498 2.76474,5.2498l5.53251,1.22468l-0.61239,4.19465l-11.80399,3.40446l13.81161,19.24475l-37.80587,-12.82384l-41.16337,11.29791l6.19678,24.99562l-5.56104,-10.87776c0,0 -1.73304,2.80259 -4.88384,4.14881c-0.52954,0.22626 1.77001,4.14686 0.22688,6.22866c-1.95627,2.63915 -2.34249,-0.28356 -4.81397,3.37981c-1.36636,2.02529 1.46919,5.98466 -1.02366,9.19449c-0.52049,0.67019 -1.98074,4.79832 -3.70015,4.33334c-1.47179,-0.39801 -3.22257,-5.45334 -3.74071,-4.48601c-1.23591,2.30735 1.73394,10.19021 0.1718,10.97836c-1.57226,0.79326 -5.0305,-2.98891 -5.09661,-2.77278c-0.8456,2.76446 -10.53593,-36.13093 -10.53593,-36.13093l-24.75734,6.79503c0,0 -36.61748,12.67958 -47.14162,12.00911c-4.3448,0.17479 -8.94157,3.02913 -14.88433,4.13075c-2.53637,0.47017 4.82701,-3.62507 4.82701,-3.62507l-5.32559,-0.00871l1.41406,-3.51731l-3.13235,-0.46633c0,0 3.14705,-1.34232 2.11836,-1.18931c-3.02253,0.44957 -4.96802,-2.56274 -4.96802,-2.56274l5.71226,-3.99916l-5.121,0.74426l2.02884,-2.207z" fill="#347102" stroke="none" stroke-width="0" stroke-linecap="butt"/><path d="M347.17121,193.93493c2.61269,-6.23497 18.75,-0.875 18.75,-0.875l-7.375,2.5l3.625,5.75c0,0 -16.79182,-3.09899 -15,-7.375z" fill="#3e7914" stroke="none" stroke-width="0" stroke-linecap="butt"/><path d="M333.85569,170.66613l0.8331,0.47606l5.21143,-0.53396l-0.67327,3.65949l7.20085,0.30532l-1.62448,3.11457l6.50445,-0.95649l-2.01724,3.11288l3.74554,-0.06321l-6.7163,4.22072l7.86926,9.49796l-159.34195,43.8002l-0.5872,-2.19691l-3.1457,-0.24934l-1.25848,-2.02062l-8.4458,0.20437l7.17042,-2.6735l-9.42338,-0.10875l0.74674,-1.70645l-9.6674,1.10706l9.79951,-4.04427l-14.2109,1.97465l7.84922,-3.55934l-11.32262,0.73862l7.77913,-2.63044l-9.40144,0.92949l3.6861,-2.50711l-6.39602,0.28134l4.39144,-2.13709l-2.05499,-1.20193z" fill="#faf6cc" stroke="none" stroke-width="0" stroke-linecap="butt"/><path d="M333.85569,170.66614l0.8331,0.47606l5.21143,-0.53396l-0.67327,3.65949l7.20085,0.30532l-1.62448,3.11457l6.50445,-0.95649l-2.01724,3.11288l3.74554,-0.06321l-6.7163,4.22072l7.86926,9.49796l-159.34195,43.8002l-0.5872,-2.19691l-3.1457,-0.24934l-1.25848,-2.02062l-8.4458,0.20437l7.17042,-2.6735l-9.42338,-0.10875l0.74674,-1.70645l-9.6674,1.10706l9.79951,-4.04427l-14.2109,1.97465l7.84922,-3.55934l-11.32262,0.73862l7.77913,-2.63044l-9.40144,0.92949l3.6861,-2.50711l-6.39602,0.28134l4.39144,-2.13709l-2.05499,-1.20193z" fill="url(#color-4)" stroke="none" stroke-width="0" stroke-linecap="butt"/><path d="M217.59439,212.52598c0,0 -0.90205,-4.15949 -1.64851,-4.54883c-0.43734,-0.22811 -1.01539,-0.0873 -1.75376,0.16295c-0.73836,0.25026 -1.877,0.40402 -2.01829,1.2049c-0.08911,0.50512 1.44266,6.31431 2.12589,8.14723c0.27812,0.74612 1.40156,5.74707 2.11948,7.66334c0.16781,0.44792 1.64842,0.36728 2.53522,0.1354c0.88681,-0.23188 1.77589,-1.14796 1.77589,-1.14796l-1.0051,-4.27764l6.80808,-1.49039c0,0 1.69658,4.97779 0.61733,6.67553c-2.90429,4.56867 -13.36712,5.12446 -15.22448,5.06285c-2.59191,-0.08597 -3.8835,-9.444 -4.49767,-11.13626c-1.46501,-4.03666 -2.99999,-9.38759 -1.8644,-11.18598c1.34267,-2.12633 4.05209,-2.75151 7.25,-3.5c3.19791,-0.74849 6.91748,-2.03991 9.22073,-0.35508c1.23671,0.90465 2.27927,6.60508 2.27927,6.60508z" fill="#000000" stroke="none" stroke-width="0" stroke-linecap="butt"/><g fill="#000000" stroke="none" stroke-width="0" stroke-linecap="butt"><path d="M226.66674,202.61679c0.53677,-1.90967 1.96069,-2.15977 6.87129,-3.75248c4.8045,-1.55829 6.03821,-1.77827 8.90145,-0.9683c0.12669,0.03584 0.75713,19.6464 -0.29743,20.45381c-0.44515,0.34083 0.26476,1.73399 -0.54706,-1.77988c-0.9188,-3.97696 -3.37822,-12.98806 -4.1324,-13.84777c-0.57782,-0.65869 -4.09822,-0.03082 -3.93319,1.49038c0.8202,7.56012 3.86129,15.47081 4.46081,15.40016c4.7255,0.15215 -4.68707,4.93985 -5.18712,4.64693c-0.96845,-0.56731 -1.48665,-0.91994 -4.28177,-10.08823c-2.59757,-8.52031 -2.33658,-9.83987 -1.8546,-11.55462z"/><path d="M235.93947,220.85052c0,0 0.77887,-0.84808 5.68947,-2.44079c-0.10775,-7.51791 -2.85629,-20.92409 -2.85629,-20.92409c0,0 2.25633,0.01132 3.66683,0.41033c0.81463,0.23045 1.52264,0.47152 4.1501,10.04686c2.57602,9.38791 2.58512,9.99768 1.89535,11.63495c-0.95843,2.27498 -3.89279,2.8705 -6.32527,3.59672c-2.75463,0.8224 -7.63984,2.09073 -9.35655,1.0851c-0.96845,-0.56731 3.13636,-3.40909 3.13636,-3.40909z"/></g><g fill="#000000" stroke="none" stroke-width="0" stroke-linecap="butt"><path d="M297.47191,183.57784c0.53677,-1.90967 2.24641,-2.30263 7.15701,-3.89533c4.8045,-1.55829 6.03821,-1.77827 8.90145,-0.9683c0.12669,0.03584 0.75712,19.6464 -0.29743,20.45381c-0.44515,0.34083 0.26476,1.73398 -0.54706,-1.77988c-0.91881,-3.97696 -3.37822,-12.98806 -4.1324,-13.84777c-0.57783,-0.65869 -4.09822,-0.03082 -3.93318,1.49039c0.8202,7.56012 3.86129,15.47081 4.46081,15.40016c4.7255,0.15215 -4.68707,4.93985 -5.18711,4.64693c-0.96845,-0.56731 -1.48665,-0.91994 -4.28177,-10.08823c-2.59757,-8.52031 -2.6223,-9.69702 -2.14031,-11.41177z"/><path d="M307.03036,201.66873c0,0 0.77887,-0.84809 5.68947,-2.44079c-0.10775,-7.51791 -2.85629,-20.92408 -2.85629,-20.92408c0,0 2.25633,0.01132 3.66683,0.41033c0.81462,0.23045 1.52264,0.47152 4.1501,10.04686c2.57603,9.38791 2.58512,9.99769 1.89535,11.63496c-0.95843,2.27498 -3.89279,2.87049 -6.32527,3.59671c-2.75462,0.8224 -7.63984,2.09074 -9.35655,1.0851c-0.96844,-0.56731 3.13636,-3.40909 3.13636,-3.40909z"/></g><path d="M274.6667,214.62325l-7.09091,-25.09091l7.54546,-2l8.6019,12.27992l0.9796,-14.69631l7.4801,-2.19434l6.97057,24.93243l-6.03443,1.50448l-4.64607,-15.84446l-0.7554,11.68872l-4.80848,1.29802l-6.56933,-9.31579l4.14517,15.62004z" fill="#000000" stroke="none" stroke-width="0" stroke-linecap="butt"/><path d="M258.00721,210.86145c0,0 0.86646,2.76267 1.25454,2.83636c0.24671,0.04685 3.17961,-0.27849 3.36507,-0.96724c0.08769,-0.32565 0.04758,-4.88378 -1.92484,-5.49444c-1.61276,-0.49931 -7.70664,2.73927 -9.9468,0.87422c-2.47715,-2.06237 -2.9736,-8.90584 -2.7649,-11.22846c0.17396,-1.93596 3.80565,-2.99219 6.3764,-3.99151c2.57074,-0.99932 6.31534,-1.50591 7.27229,-1.31414c3.80552,0.7626 4.50822,6.50694 4.50822,6.50694l-6.51845,1.91279l-1.09069,-3.20855c0,0 -4.01129,-0.58295 -3.56447,1.72664c0.39101,2.02107 0.14797,2.57542 1.73441,4.92548c0.48038,0.71162 6.92252,-2.21069 8.87965,-1.41809c2.65525,1.07532 4.80873,10.4506 4.44938,11.00547c-1.03285,1.59481 0.93502,3.07243 -14.33891,5.85272c-2.95292,0.53752 -3.87013,-6.71948 -3.87013,-6.71948z" fill="#000000" stroke="none" stroke-width="0" stroke-linecap="butt"/><path d="M219.02061,154.3494l-8.8,-3.4l24.00846,-6.56909l1.01741,-24.26731l13.78052,19.81984l22.59361,-5.78345l-4.4,7.2z" fill="#347102" stroke="none" stroke-width="0" stroke-linecap="butt"/><path d="M271.42058,140.1494l3.8,-60.4l32,44.8l62.2754,-16.71502l-9.36704,13.42212l-36.12575,9.8824l-3.96946,5.87102l34.91424,-9.3487l-6.88624,11.57024l-35.99366,9.38648l-4.61538,5.90768l35.13655,-8.97818l-10.29702,14.78444l6.40647,8.39242l-4.22035,2.57634l-63.31587,16.10603l-2.15003,-7.15142l1.91392,-22.63958l6.37809,23.58879l33.83762,-9.70923l-11.12148,-39.14584z" fill="#347102" stroke="none" stroke-width="0" stroke-linecap="butt"/><path d="M105.3391,199.74941c0,0 6.57618,-5.56135 11.6,-7.6c5.02382,-2.03865 16,-3.6 16,-3.6l0.38511,2.16765c0,0 -2.96371,0.35346 -6.54591,1.55159c-2.196,0.73449 -2.46591,2.05265 -5.6392,3.08076c-2.39125,0.77474 -15.8,4.4 -15.8,4.4z" fill="#347102" stroke="none" stroke-width="0" stroke-linecap="butt"/><path d="M230.70806,145.47968l3.875,-1.4l11.4,2.15l-4.4,1.8z" fill="#1a3503" stroke="none" stroke-width="0" stroke-linecap="butt"/><path d="M318.17119,152.87439l23,-6.625l-9.30334,14.86904c0,0 7.04424,8.00596 4.80334,8.00596c-4.97056,0 -21.75,-4.02576 -21.75,-8.375c0,-4.34924 3.25,-7.875 3.25,-7.875z" fill="#3e7914" stroke="none" stroke-width="0" stroke-linecap="butt"/><path d="M235.50806,125.57968v-5.4l3.6,6z" fill="#1a3503" stroke="none" stroke-width="0" stroke-linecap="butt"/><path d="M273.98303,107.2297v-4.6l20.8,4.8l4.2,6.4z" fill="#1a3503" stroke="none" stroke-width="0" stroke-linecap="butt"/><path d="M271.58304,136.02968l0.2,-4.6l36.6,9.6v5z" fill="#1a3503" stroke="none" stroke-width="0" stroke-linecap="butt"/><path d="M331.683,118.02968c2.68265,-0.35622 8.1,-0.74934 8.1,0.3c0,1.04934 -1.5938,2.9 -4.3,2.9c-2.7062,0 -4.9,0.74934 -4.9,-0.3c0,-1.04934 -0.4062,-2.7 1.1,-2.9z" fill="#1a3503" stroke="none" stroke-width="0" stroke-linecap="butt"/><path d="M336.18306,202.62971v-2.2l7.60078,-1.81245l1.99922,2.41245l-0.6,4.2z" fill="#1a3503" stroke="none" stroke-width="0" stroke-linecap="butt"/><path d="M325.78301,150.6297c0,0 0.57016,5.78623 0.21136,8.6267c-0.4287,3.39384 -2.41136,10.5733 -2.41136,10.5733" fill="#1a3503" stroke="#1a3503" stroke-width="0.5" stroke-linecap="round"/><path d="M285.78301,183.42974l2,-5.2l3.66151,-1.05163l5.33849,3.25163v0.2z" fill="#1a3503" stroke="none" stroke-width="0" stroke-linecap="butt"/><path d="M278.68904,178.16605l-9.16667,-34.66667l28.66667,-8l9.66667,34.83333z" fill="url(#color-5)" stroke="none" stroke-width="0" stroke-linecap="butt"/><path d="M286.85574,152.16597l-1.16667,-3.5l15.16667,-3.83333l1,3.66666z" fill="#000000" stroke="none" stroke-width="0" stroke-linecap="butt"/><path d="M290.02239,165.16597l-0.83334,-3.33333l15.33333,-3.83334l1,3.5z" fill="#000000" stroke="none" stroke-width="0" stroke-linecap="butt"/><path d="M292.08191,134.60651l1.28571,2.28571l-13.71429,3.71429l-0.85714,-2.42857z" fill="#000000" stroke="none" stroke-width="0" stroke-linecap="butt"/><path d="M300.57453,145.27762l-1.47989,-6.39877l2.63755,-0.51487l1.62275,6.25591z" fill="#000000" stroke="none" stroke-width="0" stroke-linecap="butt"/><path d="M241.0462,136.99942l-5,-2" fill="none" stroke="#1a3503" stroke-width="1" stroke-linecap="round"/><path d="M249.0462,140.49942l8,2.5" fill="none" stroke="#1a3503" stroke-width="1" stroke-linecap="round"/><path d="M273.79619,114.12439c0,0 4.375,3.24226 4.375,6.625c0,3.38274 -5.125,6.375 -5.125,6.375z" fill="#3e7914" stroke="none" stroke-width="0" stroke-linecap="butt"/><path d="M277.5462,118.4994h-3" fill="none" stroke="#1a3503" stroke-width="1" stroke-linecap="round"/><path d="M304.98263,126.59119c2.50879,3.91999 8.98416,5.20182 6.85616,6.56373c-0.12799,4.02859 -8.88685,-0.04514 -11.39564,-3.96513c-2.50879,-3.91999 -2.81749,-8.20182 -0.6895,-9.56373c2.12799,-1.36192 2.72019,3.04514 5.22898,6.96513z" fill="#3e7914" stroke="none" stroke-width="0" stroke-linecap="butt"/><path d="M288.0462,121.9994l-6.5,-2" fill="none" stroke="#1a3503" stroke-width="1" stroke-linecap="round"/><path d="M295.0462,122.4994l13.5,5" fill="none" stroke="#1a3503" stroke-width="1" stroke-linecap="round"/><path d="M350.5462,113.9994l7.5,2" fill="none" stroke="#1a3503" stroke-width="1" stroke-linecap="round"/><path d="M362.0462,113.9994l-4.5,-1" fill="none" stroke="#1a3503" stroke-width="1" stroke-linecap="round"/><path d="M336.0462,135.99942c0,0 -9.47604,6.18365 -14.34473,6.96612c-4.42149,0.71059 -15.15527,-1.96612 -15.15527,-1.96612" fill="none" stroke="#1a3503" stroke-width="1" stroke-linecap="round"/><path d="M337.5462,168.99942c0,0 -12.58805,0.59218 -17.83978,-1.73236c-4.88894,-2.16396 -12.66022,-11.76764 -12.66022,-11.76764" fill="none" stroke="#1a3503" stroke-width="0.5" stroke-linecap="round"/><path d="M318.17119,124.3744c4.41828,0 14.66308,-0.36201 12.75,0.875c-2.75,1.77817 -6.58172,3.625 -11.25,5.375c-4.13714,1.55089 -11,5.90317 -11,3.625c0,-2.27817 5.08172,-9.875 9.5,-9.875z" fill="#3e7914" stroke="none" stroke-width="0" stroke-linecap="butt"/><path d="M275.17116,80.6244l4.25,5.625c0,0 5.91828,5.625 1.25,7.375c-4.13714,1.55089 -6,-0.875 -6,-0.875z" fill="#3e7914" stroke="none" stroke-width="0" stroke-linecap="butt"/><path d="M346.54619,138.62439c-1.44975,0 -4.125,-5.06332 -4.125,-6.375c0,-1.31168 4.17525,-2.125 5.625,-2.125c1.44975,0 2.375,1.56332 2.375,2.875c0,1.31168 -2.42525,5.625 -3.875,5.625z" fill="#3e7914" stroke="none" stroke-width="0" stroke-linecap="butt"/><path d="M265.59284,137.40171c0.11388,0.6108 -1.82941,1.48546 -4.34046,1.95362c-2.51105,0.46816 -4.63897,0.35253 -4.75285,-0.25826c-0.11388,-0.6108 1.82941,-1.48546 4.34046,-1.95362c2.51105,-0.46816 4.63897,-0.35253 4.75285,0.25826z" fill="#3e7914" stroke="none" stroke-width="0" stroke-linecap="butt"/><path d="M286.34231,224.96637c3.63306,3.68282 -2.96466,5.9066 -7.95181,10.82637c-4.98715,4.91976 -4.47522,12.17251 -8.10828,8.48969c-3.63306,-3.68282 1.46466,-8.1566 6.45181,-13.07637c4.98715,-4.91976 5.97522,-9.92251 9.60828,-6.23969z" fill="#3e7914" stroke="none" stroke-width="0" stroke-linecap="butt"/><path d="M276.17119,216.62439c1.10457,0 2,2.18261 2,4.875c0,2.69239 -0.89543,4.875 -2,4.875c-1.10457,0 -2,-2.18261 -2,-4.875c0,-2.69239 0.89543,-4.875 2,-4.875z" fill="#3e7914" stroke="none" stroke-width="0" stroke-linecap="butt"/><path d="M292.17119,219.37439c0,0.82843 -1.39911,1.5 -3.125,1.5c-1.72589,0 -3.125,-0.67157 -3.125,-1.5c0,-0.82843 1.39911,-1.5 3.125,-1.5c1.72589,0 3.125,0.67157 3.125,1.5z" fill="#3e7914" stroke="none" stroke-width="0" stroke-linecap="butt"/><path d="M314.96289,129.78705c0,-0.25561 12.86335,-5.27356 15.33019,-4.93159c2.07935,0.28826 -6.17127,5.92874 -6.17127,5.92874l-3.99225,6.41951l13.83333,-3.75c0,0 0.04566,2.36285 -2.55457,4.40132c-3.14153,2.46283 -9.22585,4.68201 -11.94543,4.68201c-2.60075,0 -5.87854,-7.70076 -6.34688,-10.90445c-0.42675,-2.91922 1.84688,-1.34087 1.84688,-1.84555z" fill="#3e7914" stroke="none" stroke-width="0" stroke-linecap="butt"/><path d="M318.62955,142.33281c0,0 -2.33611,-3.21659 -3.28369,-4.73846c-0.88088,-1.41475 -2.21631,-4.09488 -2.21631,-4.09488" fill="none" stroke="#1a3503" stroke-width="0.5" stroke-linecap="round"/><path d="M341.96289,131.49947l4,7.66667" fill="none" stroke="#274d09" stroke-width="0.5" stroke-linecap="round"/><path d="M349.62955,129.49947l2,2.66667" fill="none" stroke="#274d09" stroke-width="0.5" stroke-linecap="round"/><path d="M349.29621,124.16614l0.5,-2.16667l1.33333,1.66667" fill="none" stroke="#274d09" stroke-width="0.5" stroke-linecap="round"/><path d="M336.79621,135.3328l4,-3.5" fill="none" stroke="#274d09" stroke-width="0.5" stroke-linecap="round"/><path d="M358.79619,204.3328l-7.16667,-7.83333" fill="none" stroke="#274d09" stroke-width="0.5" stroke-linecap="round"/><path d="M359.62955,201.3328l-3.5,-3" fill="none" stroke="#274d09" stroke-width="0.5" stroke-linecap="round"/><path d="M359.96287,199.16614l1.83333,2.5" fill="none" stroke="#274d09" stroke-width="0.5" stroke-linecap="round"/><path d="M368.12954,187.8328l-9.16667,4.5" fill="none" stroke="#274d09" stroke-width="0.5" stroke-linecap="round"/><path d="M364.62955,186.99947l-5,2.83333" fill="none" stroke="#274d09" stroke-width="0.5" stroke-linecap="round"/><path d="M365.46289,184.49947l-4.83333,3" fill="none" stroke="#274d09" stroke-width="0.5" stroke-linecap="round"/><path d="M370.62955,189.49947l-6.33333,3" fill="none" stroke="#274d09" stroke-width="0.5" stroke-linecap="round"/><path d="M283.12955,219.66614l8.16667,8.16667" fill="none" stroke="#274d09" stroke-width="0.5" stroke-linecap="round"/><path d="M281.46289,218.66614l-7.83333,6.66667" fill="none" stroke="#274d09" stroke-width="0.5" stroke-linecap="round"/><path d="M314.79621,174.99947l19.66667,-4.33333" fill="none" stroke="#274d09" stroke-width="0.5" stroke-linecap="round"/><path d="M263.12951,141.66613l-4.33333,-1.33333" fill="none" stroke="#274d09" stroke-width="0.5" stroke-linecap="round"/><path d="M275.79621,119.16614l19.5,6" fill="none" stroke="#274d09" stroke-width="0.5" stroke-linecap="round"/><path d="M275.79621,115.3328l17.33333,6.5" fill="none" stroke="#274d09" stroke-width="0.5" stroke-linecap="round"/><path d="M274.96289,112.49947l21.5,8.33333" fill="none" stroke="#274d09" stroke-width="0.5" stroke-linecap="round"/><path d="M281.29621,99.16613l-4.66667,2.66667" fill="none" stroke="#274d09" stroke-width="0.5" stroke-linecap="round"/><path d="M278.62955,102.16614l3.5,-1.66667" fill="none" stroke="#274d09" stroke-width="0.5" stroke-linecap="round"/><path d="M287.96286,98.99947l-2.33333,1.16667l-0.33333,-4.16667l1.5,2" fill="#1a3503" stroke="#274d09" stroke-width="0.5" stroke-linecap="round"/><path d="M229.29622,146.66614l7.33333,2.66667" fill="none" stroke="#274d09" stroke-width="0.5" stroke-linecap="round"/><path d="M275.79621,88.3328l3.5,-2" fill="none" stroke="#274d09" stroke-width="0.5" stroke-linecap="round"/></g></g></svg>