<svg version="1.1" xmlns="http://www.w3.org/2000/svg" xmlns:xlink="http://www.w3.org/1999/xlink" width="22.02372" height="23.15101" viewBox="0,0,22.02372,23.15101"><g transform="translate(-227.70642,-167.11117)"><g data-paper-data="{&quot;isPaintingLayer&quot;:true}" fill-rule="nonzero" stroke-width="0" stroke-linecap="butt" stroke-linejoin="miter" stroke-miterlimit="10" stroke-dasharray="" stroke-dashoffset="0" style="mix-blend-mode: normal"><path d="M236.12611,177.99405c0,0 0.73462,0.0689 1.00755,0.4747c0.24402,0.3628 0.3372,0.6858 0.18441,1.31928c-0.16116,0.66819 -0.81936,0.93028 -1.1772,0.93911c-1.07221,0.02644 -1.68736,-0.99585 -1.28302,-2.1031c0.33038,-0.90469 1.20366,-1.1772 1.20366,-1.1772z" data-paper-data="{&quot;index&quot;:null}" fill="#ebc19b" stroke="none"/><path d="M238.92535,178.80743c0,0 -1.0017,1.13076 -1.25607,1.04594c-0.30961,-0.10324 -0.2903,-0.67707 -0.30976,-0.95893c-0.02566,-0.37133 -0.01045,-1.24098 -0.01045,-1.24098c0,0 0.39909,0.38629 0.67908,0.6105c0.27999,0.2242 0.89721,0.54348 0.89721,0.54348z" data-paper-data="{&quot;index&quot;:null}" fill="#ebc19b" stroke="none"/><path d="M241.01347,181.14104c-0.31493,-0.53282 -0.48289,-0.9802 -0.12232,-1.2295c0.32889,-0.22741 0.70321,0.16718 1.01815,0.69999c0.04927,0.08335 1.15139,2.03203 1.11992,2.43267c-0.09102,1.15889 -0.76221,0.77383 -0.76221,0.77383c0,0 -0.49425,-1.00358 -0.7347,-1.52426c-0.24044,-0.52067 -0.40659,-0.96285 -0.51883,-1.15274z" data-paper-data="{&quot;index&quot;:null}" fill="#fde1c0" stroke="none"/><path d="M244.03665,183.60389c-0.3405,0.70151 -1.37246,1.20458 -1.62225,1.15856c-0.39675,-0.07309 -0.5202,-0.62526 -0.5202,-0.62526c0,0 0.16234,-0.69373 0.60684,-1.20666c0.30674,-0.35398 0.88036,-0.36418 0.88036,-0.36418c0,0 0.37149,0.27918 0.49302,0.45247c0.12155,0.17329 0.27693,0.34878 0.16224,0.58507z" data-paper-data="{&quot;index&quot;:null}" fill="#fefefe" stroke="none"/><g data-paper-data="{&quot;index&quot;:null}" stroke="none"><path d="M243.63476,183.57801c0.13792,0.16093 0.21168,0.61283 -0.46884,1.12387c-0.343,0.25759 -0.78876,0.49787 -0.95047,0.30919c-0.13793,-0.16093 0.04096,-0.31045 0.36665,-0.58959c0.32569,-0.27915 0.87904,-1.04604 1.05265,-0.84348z" fill="#000000"/><path d="M243.5603,186.14495c0,0 -0.37198,0.60222 -0.92678,0.08449c-0.63109,-0.58892 -0.73524,-1.30757 -0.73524,-1.30757c0,0 0.145,-0.2405 0.30012,-0.29103c0.15513,-0.05054 0.42769,0.05394 0.42769,0.05394c0,0 0.06938,-0.20925 0.17753,-0.2807c0.10815,-0.07145 0.41141,-0.10839 0.41141,-0.10839c0,0 0.05331,-0.30116 0.1635,-0.45376c0.11019,-0.1526 0.39622,-0.3214 0.39622,-0.3214c0,0 -0.0284,-0.32783 0.0863,-0.47944c0.11471,-0.15162 0.27883,-0.29734 0.46255,-0.24603c0.18371,0.05132 0.91419,0.25937 1.39967,0.8242c0.59735,0.69499 -0.62676,1.18148 -0.62676,1.18148c0,0 0.00348,0.29419 -0.17364,0.47562c-0.22923,0.23479 -0.55479,0.22439 -0.55479,0.22439c0,0 0.10873,0.224 -0.20647,0.48921c-0.21385,0.17995 -0.60129,0.15497 -0.60129,0.15497z" fill="#fefefe"/><path d="M244.38406,182.76732c0.13792,0.16093 0.21169,0.61283 -0.46883,1.12387c-0.343,0.25759 -0.78877,0.49787 -0.95048,0.30919c-0.13793,-0.16093 0.07574,-0.64256 0.40143,-0.9217c0.32569,-0.27914 0.84426,-0.71392 1.01787,-0.51136z" fill="#fefefe"/></g><path d="M240.13646,189.79455c-1.12371,0.37125 -1.94334,0.38792 -2.4999,0.17573c-0.40676,-0.15507 -0.4535,-0.79645 -0.4535,-0.79645c0,0 2.66308,0.39893 3.04977,-0.35769c0.34503,-0.67511 -0.846,-3.90026 -0.846,-3.90026c0,0 0.84439,-0.22679 1.5359,2.78874c0.05939,0.25899 0.12093,0.78189 -0.03233,1.21696c-0.15157,0.43027 -0.55866,0.80846 -0.75394,0.87298z" data-paper-data="{&quot;index&quot;:null}" fill="#686868" stroke="none"/><path d="M230.10091,183.21533c0.59316,-1.15577 1.25115,-0.85202 1.25115,-0.85202c0,0 -2.96349,3.90239 -2.92889,5.25715c0.03424,1.34068 2.61175,2.27141 2.61175,2.27141c0,0 -0.1787,0.43648 -1.02035,0.36169c-0.72518,-0.06444 -1.96406,-1.04231 -2.29401,-1.85411c-0.03072,-0.0756 -0.00102,-0.39185 -0.00639,-0.63342c-0.01967,-0.88522 1.59873,-3.33452 1.77302,-3.48803c0.18811,-0.16567 0.38689,-0.18094 0.51283,-0.44098c0.12013,-0.24806 0.07095,-0.56338 0.10087,-0.62169z" data-paper-data="{&quot;index&quot;:null}" fill="#686868" stroke="none"/><path d="M232.31089,188.67c-0.37956,0.71232 -0.81211,1.22494 -1.3457,1.22494c-0.53359,0 -2.68193,-1.15167 -2.57064,-2.3291c0.15693,-1.66034 2.93106,-5.22545 2.93106,-5.22545c0,0 0.52691,-0.11934 1.05929,0.03735c0.6593,0.19404 0.85764,0.61616 0.85764,0.61616c0,0 -1.34967,0.44438 -1.62302,1.77676c-0.1839,0.8964 0.64821,2.65747 0.71438,3.21267c0.05918,0.49648 0.03315,0.40849 -0.02299,0.68667z" data-paper-data="{&quot;index&quot;:null}" fill="#ef4019" stroke="none"/><path d="M232.32884,188.01787c0,0 -0.70606,-0.7919 -1.36974,-1.20822c-0.13236,-0.08303 -0.52368,-0.19785 -0.85657,-0.12571c-0.34471,0.0747 -0.8623,0.23689 -0.80531,-0.12634c0.13392,-0.85351 1.81474,-3.4892 2.17452,-3.46018c0.19165,0.01546 0.8703,0.313 0.8703,0.313c0,0 -0.28369,1.01537 -0.23385,1.54392c0.05152,0.54637 0.53811,1.68262 0.53811,1.68262c0,0 -0.20784,0.24619 -0.25878,0.46777c-0.05462,0.2376 -0.05867,0.91313 -0.05867,0.91313z" data-paper-data="{&quot;index&quot;:null}" fill="#ffc500" stroke="none"/><path d="M231.67808,184.51007c0.42273,-1.25638 1.33897,-1.52764 1.53962,-1.50788c1.77298,0.1746 0.8147,2.24035 0.79362,2.39673c-0.11111,0.82443 -0.61076,0.72247 -1.46026,0.52379c-0.6507,-0.1522 -1.12013,-0.67811 -0.87298,-1.41265z" data-paper-data="{&quot;index&quot;:null}" fill="#ffffff" stroke="none"/><path d="M240.55591,187.5044c0.01867,0.41283 0.04243,1.56416 -0.68024,1.7573c-1.95475,0.52244 -2.46733,0.47943 -2.84569,-0.29477c-0.09199,-0.18823 -0.08904,-1.24041 -0.08904,-1.24041c0,0 -0.01457,-0.22438 0.18682,-0.54924c0.52799,-0.85165 1.67476,-2.39386 1.98832,-2.39386c0.45084,0 1.39451,1.71817 1.43986,2.72098z" data-paper-data="{&quot;index&quot;:null}" fill="#ef4019" stroke="none"/><path d="M233.86481,184.00893c0,0 0.39404,-0.38837 0.60884,-0.57707c0.22879,-0.20099 0.63631,-0.61716 0.63631,-0.61716l0.86918,0.8257c0,0 -0.91445,1.43119 -1.94354,1.74729c-0.1872,0.05751 -1.5495,-0.00998 -1.35558,-1.02713c0.10386,-0.54479 0.51214,-0.65737 0.80581,-0.5834c0.22242,0.05602 0.37898,0.23178 0.37898,0.23178z" data-paper-data="{&quot;index&quot;:null}" fill="#fedeb5" stroke="none"/><path d="M238.39177,185.53564c0.28478,-0.0953 0.45323,-0.49003 0.5738,-0.67896c0.05531,-0.08667 0.15425,-0.06736 0.15425,-0.06736c0,0 1.24445,2.08053 0.85058,2.67106c-0.26981,0.07975 -0.62107,-0.43517 -0.78088,-0.42477c-0.4046,-0.00004 -1.35404,0.02547 -1.68404,0.12681c-0.45101,0.1385 -0.55818,0.61274 -0.55818,0.61274l-0.12738,-1.42318c0,0 -0.69604,-0.56561 -0.21007,-0.72359c0.08136,-0.02646 1.07115,0.14511 1.78192,-0.09275z" data-paper-data="{&quot;index&quot;:null}" fill="#ffc500" stroke="none"/><path d="M238.9627,184.97483c0,0.08755 0.06131,0.32455 0.06131,0.32455l0.23577,0.65228l-0.58013,-0.16832c0,0 -0.68386,0.31189 -0.95406,0.31189c-0.68323,0 -1.23711,-0.50163 -1.23711,-1.12041c0,-0.61879 0.55387,-1.12041 1.23711,-1.12041c0.68323,0 1.23711,0.50163 1.23711,1.12041z" data-paper-data="{&quot;index&quot;:null}" fill="#ffffff" stroke="none"/><path d="M237.70225,185.50554c-0.30939,0 -0.5602,-0.25328 -0.5602,-0.56573c0,-0.31244 0.25081,-0.56573 0.5602,-0.56573c0.30939,0 0.5602,0.25328 0.5602,0.56573c0,0.31244 -0.25081,0.56573 -0.5602,0.56573z" data-paper-data="{&quot;index&quot;:null}" fill="#f5cda8" stroke="none"/><path d="M232.84235,185.83379c0.42954,0.26405 1.05785,-0.06189 1.05785,-0.06189c0,0 0.29256,0.15752 0.13347,0.36653c-0.31764,0.41732 -1.36358,0.48265 -1.36358,0.48265c0,0 -0.73584,-0.19962 -1.18249,-0.94441c-0.23515,-0.39211 -0.22147,-1.24036 -0.22147,-1.24036c0,0 0.08391,0.23155 0.28073,0.33789c0.10352,0.05593 0.33012,0.01981 0.39311,0.02155c0.15067,0.00416 0.55091,0.82196 0.9024,1.03804z" data-paper-data="{&quot;index&quot;:null}" fill="#ffc500" stroke="none"/><path d="M238.03234,179.11346c1.58497,-0.0308 2.86906,0.31744 2.86906,0.31744c0,0 0.80036,3.04325 0.07611,4.08247c-0.74509,1.06911 -1.8351,1.32467 -2.60127,1.34059c-2.06753,0.08927 -3.17891,-0.63998 -3.99953,-2.07583c-0.77589,-1.35757 -0.4712,-2.92398 -0.4712,-2.92398c0,0 2.36046,-0.70639 4.12682,-0.74071z" data-paper-data="{&quot;index&quot;:null}" fill="#ef4019" stroke="none"/><path d="M239.8493,180.71034c-0.58792,-0.07205 -0.44326,-1.44631 -0.44326,-1.44631l0.99234,0.19109c0,0 -0.17056,1.30162 -0.54908,1.25523z" data-paper-data="{&quot;index&quot;:null}" fill="#08abe8" stroke="none"/><path d="M240.95296,182.29174c-0.0123,0.23058 -0.26738,0.75343 -0.41041,0.73418c-0.06862,-0.00923 -0.11441,-0.52169 -0.23928,-1.08192c-0.13541,-0.60752 -0.3476,-1.26622 -0.3476,-1.26622l0.21731,-0.29675c0,0 0.82192,1.12405 0.77998,1.9107z" data-paper-data="{&quot;index&quot;:null}" fill="#08abe8" stroke="none"/><path d="M239.43142,181.8981c-0.10201,0.52109 -0.15535,1.03158 -0.21849,1.00961c-0.3357,-0.11679 -0.46078,-0.5496 -0.4549,-0.71639c0.03411,-0.96774 0.73641,-1.85046 0.73641,-1.85046l0.19168,0.29745c0,0 -0.13478,0.64715 -0.2547,1.25979z" data-paper-data="{&quot;index&quot;:null}" fill="#08abe8" stroke="none"/><path d="M238.92465,180.72714l-0.0234,-1.82533c0,0 0.22978,0.07703 0.52828,0.17179c0.2985,0.09477 0.45459,0.22604 0.45459,0.22604z" data-paper-data="{&quot;index&quot;:null}" fill="#ffffff" stroke="none"/><path d="M240.5719,180.82228l-0.60344,-1.46017c0,0 0.11626,-0.02067 0.39132,-0.05605c0.27506,-0.03539 0.47493,0.00598 0.47493,0.00598z" data-paper-data="{&quot;index&quot;:null}" fill="#ffffff" stroke="none"/><g data-paper-data="{&quot;index&quot;:null}" stroke="none"><path d="M245.36257,182.14413c-0.27067,-1.30536 0.95816,-7.78361 1.17354,-8.58328c0.44743,-1.66118 1.94736,-2.1355 2.83503,-1.66736c0.8014,0.42265 -0.00914,6.00108 0.12766,9.03621c0.10951,2.42984 -2.47297,4.45516 -2.60728,4.35357c-0.27002,-0.20423 -1.23138,-1.70407 -1.52894,-3.13913z" fill="#fedeb5"/><path d="M249.70742,176.23469c0,0 -0.20424,3.40744 -0.14544,4.71203c0.10952,2.42984 -2.53615,4.43814 -2.67046,4.33655c-0.27002,-0.20423 -1.29457,-1.72109 -1.59213,-3.15615c-0.16844,-0.81233 0.63117,-5.83164 0.63117,-5.83164l1.90983,1.14771z" fill="#ea750b"/><path d="M247.07286,173.25287c0.35065,-1.30184 0.73981,0.01976 1.43547,0.38664c0.62805,0.33123 0.02107,4.78677 0.12827,7.16536c0.08582,1.90423 -1.48981,3.05334 -1.59507,2.97373c-0.21162,-0.16005 -0.55786,-1.14959 -0.79105,-2.27423c-0.21212,-1.02299 0.65358,-7.62481 0.82237,-8.2515z" fill="#ebc0cd"/></g><path d="M238.08199,168.1433c0.23128,-0.54026 1.29407,-0.35488 1.29407,-0.35488c0,0 1.69718,-0.8169 2.18724,-0.65634c1.36736,0.448 1.13386,3.25765 1.13386,3.25765c0,0 -1.485,-0.19446 -2.37582,0.00749c-0.89082,0.20195 -2.05371,0.99669 -2.05371,0.99669c0,0 -0.77957,-1.86324 -0.18564,-3.25061z" data-paper-data="{&quot;index&quot;:null}" fill="#fedeb5" stroke="none"/><path d="M241.86038,179.96635c0,0 0.98693,-0.06163 1.48015,-0.19291c0.49324,-0.1313 1.23457,-0.40536 1.23457,-0.40536c0,0 -0.47916,1.14117 -0.72562,1.61001c-0.18707,0.35586 -0.49117,1.11419 -0.95357,1.07098c-0.37989,-0.0355 -1.03552,-2.08271 -1.03552,-2.08271z" data-paper-data="{&quot;index&quot;:null}" fill="#fedeb5" stroke="none"/><path d="M241.08255,168.52287c0.10701,-0.3391 0.23619,-0.39067 0.23619,-0.39067c0,0 0.2867,0.10056 0.38432,0.2783c0.09762,0.17774 0.1335,0.3913 0.17933,0.96075c0.04205,0.52253 0.05429,0.86424 0.05429,0.86424l-0.78876,-0.04483c0,0 -0.12176,-0.47608 -0.13397,-0.78764c-0.01221,-0.31156 -0.03842,-0.54106 0.06859,-0.88016z" data-paper-data="{&quot;index&quot;:null}" fill="#ebc0cd" stroke="none"/><path d="M237.11516,173.70474c0.92845,-3.4471 3.47853,-4.01332 6.25105,-3.33244c3.12094,0.76646 4.45973,3.4472 3.73169,6.02122c-0.77681,2.74647 -3.45051,4.04967 -6.25104,3.33244c-2.76565,-0.70829 -4.60429,-2.78152 -3.7317,-6.02122z" data-paper-data="{&quot;index&quot;:null}" fill="#fedeb5" stroke="none"/><path d="M238.36003,176.68908c0,0 -0.19372,-0.00199 -0.43231,0.06692c-0.20731,0.05988 -0.33467,0.19276 -0.56235,0.15217c-0.22769,-0.04061 -0.40336,-0.32437 -0.40336,-0.32437c0,0 -0.17007,-0.86888 -0.06171,-1.64521c0.24824,-2.45515 1.31341,-3.36765 1.83991,-3.39614c0.65208,-0.03528 0.38021,0.67879 -0.01398,2.84211c-0.29128,1.59859 -0.36621,2.30452 -0.36621,2.30452z" data-paper-data="{&quot;index&quot;:null}" fill="#ea750b" stroke="none"/><path d="M241.16991,174.24151c1.01079,-1.37928 2.47777,-1.86847 3.34476,-1.26604c0.9276,0.64454 1.23328,2.00022 -0.07583,3.84771c-0.47584,0.67152 -1.61728,1.47956 -2.35428,1.58111c-1.28597,0.17719 -2.1799,-0.74418 -2.1799,-0.74418c0,0 0.25446,-2.03933 1.26524,-3.4186z" data-paper-data="{&quot;index&quot;:null}" fill="#ea750b" stroke="none"/><path d="M240.09095,176.56594c0.10297,-0.37274 2.36405,-3.15586 3.05354,-2.7285c0.68949,0.42737 0.72521,1.56228 0.06254,2.9615c-0.4578,0.96662 -1.22446,1.48816 -1.22446,1.48816c0,0 -0.44226,0.20337 -1.14077,-0.05569c-0.89894,-0.33339 -0.93117,-0.59974 -0.93117,-0.59974c0,0 0.0022,-0.42092 0.18033,-1.06573z" data-paper-data="{&quot;index&quot;:null}" fill="#ffffff" stroke="none"/><g data-paper-data="{&quot;index&quot;:null}" stroke="none"><path d="M240.54884,176.09428c0.02123,-0.07546 1.25953,-1.53172 1.2964,-1.47245c0.16553,0.26612 0.13326,0.90948 -0.10363,1.60638c-0.28964,0.85211 -0.7755,1.46159 -1.08522,1.3613c-0.28165,-0.09121 -0.32062,-0.73795 -0.10754,-1.49523z" fill="#a06803"/><path d="M240.75864,176.00061c0.16778,-0.50234 0.43923,-0.86505 0.60631,-0.81012c0.16708,0.05493 0.1665,0.50669 -0.00128,1.00903c-0.16777,0.50234 -0.43923,0.86506 -0.60631,0.81012c-0.16708,-0.05493 -0.1665,-0.50669 0.00128,-1.00903z" fill="#000000"/><path d="M240.94397,175.58105c0.09985,-0.29164 0.40613,-0.54416 0.40613,-0.54416c0.10973,0.03532 0.09103,0.2203 -0.00881,0.51194c-0.09985,0.29164 -0.26972,0.49941 -0.37944,0.46408c-0.10973,-0.03533 -0.11772,-0.14023 -0.01788,-0.43187z" fill="#ffffff"/></g><path d="M238.50249,175.81442c-0.09402,0.47254 -0.17074,0.88781 -0.17074,0.88781c0,0 -0.16308,0.03783 -0.33827,0.07604c-0.17519,0.03822 -0.44075,0.14221 -0.44075,0.14221c0,0 -0.13701,-0.86454 0.0182,-1.76427c0.15718,-0.91114 0.31287,-2.16925 0.78493,-2.03598c0.18786,0.05304 0.20661,2.39273 0.14663,2.69419z" data-paper-data="{&quot;index&quot;:null}" fill="#ffffff" stroke="none"/><g data-paper-data="{&quot;index&quot;:null}" stroke="none"><path d="M237.77776,174.82478c0.17441,-0.72043 0.49214,-1.26232 0.70965,-1.21034c0.0259,0.00619 0.02491,1.60207 -0.00537,1.69704c-0.18031,0.56552 -0.44001,0.95639 -0.62625,0.91188c-0.2175,-0.05197 -0.25245,-0.67814 -0.07803,-1.39858z" fill="#a06803"/><path d="M238.30287,175.02577c-0.10076,0.42444 -0.27759,0.74522 -0.39496,0.71652c-0.11736,-0.02871 -0.13082,-0.39606 -0.03005,-0.82049c0.10076,-0.42443 0.2776,-0.74522 0.39496,-0.71651c0.11736,0.02872 0.13082,0.39605 0.03005,0.82048z" fill="#000000"/><path d="M238.26742,174.49885c-0.06019,0.24663 -0.17143,0.43179 -0.24849,0.41353c-0.07706,-0.01826 -0.09072,-0.23298 -0.03053,-0.47962c0.06019,-0.24663 0.17143,-0.43179 0.24849,-0.41353c0.07706,0.01826 0.09072,0.23298 0.03053,0.47962z" fill="#ffffff"/></g><path d="M240.21068,176.2396c0,0 0.59718,-0.72737 1.28802,-1.50697c0.49484,-0.55841 1.01174,-1.20652 1.51166,-1.05334c1.33849,0.41012 0.63385,2.28613 0.63385,2.28613c0,0 0.83482,0.29967 1.31343,0.33737c0.47082,0.03708 1.53523,-0.113 1.53523,-0.113c0,0 -0.67182,0.50593 -1.86783,0.37153c-0.63222,-0.07105 -1.20761,-0.34211 -1.20761,-0.34211c0,0 0.27619,-0.64082 0.10642,-1.48266c-0.0986,-0.4889 -0.42111,-0.61741 -0.60917,-0.69502c-0.32974,-0.13608 -0.76878,0.45541 -1.20491,0.87302c-0.8485,0.81248 -1.68595,1.85888 -1.68595,1.85888z" data-paper-data="{&quot;index&quot;:null}" fill="#000000" stroke="none"/><path d="M238.36923,173.32226c-0.43858,-0.09903 -0.66511,0.95484 -0.66511,0.95484c0,0 -0.72034,-0.23837 -1.23873,-0.79188c-0.53113,-0.56712 -0.68403,-1.42484 -0.68403,-1.42484c0,0 0.30281,0.92269 1.11579,1.53809c0.74905,0.56701 0.81144,0.40226 0.81144,0.40226c0,0 0.20187,-1.05858 0.68674,-0.9776c0.43392,0.07248 0.07267,2.86128 0.07267,2.86128z" data-paper-data="{&quot;index&quot;:null}" fill="#000000" stroke="none"/><path d="M239.00228,173.0386l2.23569,1.11937c0,0 -0.38755,0.41627 -0.84301,1.56808c-0.46985,1.18818 -0.47684,1.84829 -0.47684,1.84829c0,0 -0.62145,-0.55447 -0.88364,-0.70672c-0.26474,-0.15372 -0.70188,-0.1694 -0.70188,-0.1694z" data-paper-data="{&quot;index&quot;:null}" fill="#fedeb5" stroke="none"/><path d="M237.45296,176.91686c0.18345,0.05656 0.75057,-0.37 1.28582,-0.16341c0.7314,0.2823 1.2455,1.205 2.19098,1.48712c1.14241,0.34088 2.12377,-0.5292 2.78068,0.14428c0.74855,0.76745 -0.69369,2.16709 -3.15559,1.33819c-2.34366,-0.78909 -3.26327,-1.88368 -3.61545,-2.60252c-0.09813,-0.20031 0.00901,-0.5848 0.00901,-0.5848c0,0 0.30561,0.3198 0.50456,0.38113z" data-paper-data="{&quot;index&quot;:null}" fill="#ffffff" stroke="none"/><g data-paper-data="{&quot;index&quot;:null}" stroke="none"><path d="M238.06939,177.2592c-0.23984,-0.0646 -0.32089,-0.24441 -0.31797,-0.35967c0.00389,-0.15357 0.24561,-0.22232 0.45923,-0.16478c0.21361,0.05753 0.39791,0.24443 0.31435,0.37313c-0.07209,0.11105 -0.20265,0.21945 -0.4556,0.15132z" fill="#6b4209"/><path d="M237.92926,176.81365c0.01169,-0.04344 0.10042,-0.05732 0.19818,-0.03099c0.09776,0.02633 0.16752,0.0829 0.15582,0.12634c-0.0117,0.04345 -0.10044,0.05733 -0.1982,0.031c-0.09775,-0.02633 -0.1675,-0.08291 -0.1558,-0.12635z" fill="#ffffff"/></g><path d="M240.01466,178.55332c0,0 0.16083,0.09956 0.44477,0.17604c0.29269,0.07884 0.647,0.10395 0.647,0.10395c0,0 -0.31152,0.09592 -0.66566,0.01758c-0.35416,-0.07833 -0.4261,-0.29758 -0.4261,-0.29758z" data-paper-data="{&quot;index&quot;:null}" fill="#000000" stroke="none"/><path d="M240.51219,171.1848c0.43335,-0.86068 0.68803,-1.06382 0.68803,-1.06382c0,0 0.88709,-0.04404 1.73755,0.14108c1.24011,0.26994 1.80056,0.62333 1.80056,0.62333c0,0 -1.20794,0.11849 -2.03811,0.39284c-0.4492,0.14845 -0.84465,0.22891 -1.19565,0.40961c-0.57242,0.29471 -1.0293,0.50247 -1.12126,0.4697c-0.17181,-0.06124 -0.06695,-0.58378 0.12888,-0.97271z" data-paper-data="{&quot;index&quot;:null}" fill="#ea750b" stroke="none"/><path d="M247.45663,169.48878c0.5875,0.01496 0.80853,1.07091 0.80853,1.07091c0,0 1.38692,1.27445 1.41908,1.78914c0.05786,0.92574 -0.61432,0.76302 -1.40345,1.12291c-0.43504,0.19839 -1.20343,1.13587 -1.20343,1.13587c0,0 -0.36884,-1.45156 -0.88607,-2.20443c-0.51723,-0.75287 -1.68586,-1.53915 -1.68586,-1.53915c0,0 1.44253,-1.41367 2.9512,-1.37525z" data-paper-data="{&quot;index&quot;:null}" fill="#fedeb5" stroke="none"/><path d="M238.34906,178.3678c0.40075,0.53938 0.63306,1.00326 0.27217,1.31351c-0.32919,0.28299 -0.7783,-0.10037 -1.17903,-0.63974c-0.0627,-0.08438 -1.47469,-2.06274 -1.48636,-2.49888c-0.03377,-1.26161 0.73478,-0.92235 0.73478,-0.92235c0,0 0.64798,1.02722 0.96693,1.56198c0.31895,0.53477 0.5487,0.99324 0.69152,1.18548z" data-paper-data="{&quot;index&quot;:null}" fill="#fde1c0" stroke="none"/><path d="M234.56737,175.66642c0.38413,-0.75442 1.51472,-1.27912 1.7849,-1.22399c0.42916,0.08757 0.55172,0.68947 0.55172,0.68947c0,0 -0.19057,0.74967 -0.68368,1.29724c-0.3403,0.37788 -0.96316,0.37707 -0.96316,0.37707c0,0 -0.39745,-0.31073 -0.52578,-0.50135c-0.12835,-0.19063 -0.29337,-0.38432 -0.16398,-0.63844z" data-paper-data="{&quot;index&quot;:null}" fill="#fefefe" stroke="none"/><path d="M236.34305,175.41898c-0.25811,0.06292 -0.41217,-0.07442 -0.43179,-0.21795c-0.01963,-0.14354 0.13444,-0.43171 0.39255,-0.49463c0.25812,-0.06291 0.35298,0.08641 0.37684,0.2293c0.04232,0.25345 -0.07948,0.42036 -0.33759,0.48328z" data-paper-data="{&quot;index&quot;:null}" fill="#f7e300" stroke="none"/><path d="M235.71269,172.30696c0,0 0.10885,-1.69167 0.74053,-1.58924c0.39434,0.06394 0.17977,1.88605 0.17977,1.88605c0,0 0.38602,1.31413 -1.45546,2.79824c-1.19054,0.95952 -2.50322,-0.58243 -2.50322,-0.58243c0,0 -1.92424,-2.17533 -2.01862,-2.98828c-0.09438,-0.81295 1.79716,1.0807 1.79716,1.0807c0,0 -1.41202,-2.12113 -1.15199,-2.40606c0.32495,-0.35606 1.82394,1.49378 1.82394,1.49378c0,0 -1.2632,-1.84004 -0.76963,-2.21092c0.21714,-0.16317 1.78954,1.64858 1.78954,1.64858c0,0 -1.24935,-1.98566 -0.57528,-2.10707c0.66468,-0.6137 2.14326,2.97665 2.14326,2.97665z" data-paper-data="{&quot;index&quot;:null}" fill="#ffffff" stroke="#000000"/></g></g></svg>