<svg version="1.1" xmlns="http://www.w3.org/2000/svg" xmlns:xlink="http://www.w3.org/1999/xlink" width="21.47974" height="26.34613" viewBox="0,0,21.47974,26.34613"><g transform="translate(-224.47064,-163.90495)"><g data-paper-data="{&quot;isPaintingLayer&quot;:true}" fill-rule="nonzero" stroke-miterlimit="10" stroke-dasharray="" stroke-dashoffset="0" style="mix-blend-mode: normal"><path d="" fill="#000000" stroke="none" stroke-width="1" stroke-linecap="round" stroke-linejoin="round"/><path d="" fill="#ee1a40" stroke="none" stroke-width="1" stroke-linecap="round" stroke-linejoin="round"/><g stroke="none" stroke-width="0" stroke-linecap="butt" stroke-linejoin="miter"><path d="M241.62705,178.22105c0,0 0.42517,5.27035 -0.05563,8.59464c-0.24634,1.70322 -0.84719,1.61891 -1.80143,1.5885c-0.95424,-0.03041 -1.35492,-0.7803 -1.39058,-1.61221c-0.03566,-0.83191 0.93671,-2.77716 1.06055,-6.0854c0.09421,-2.51664 -0.91028,-5.70467 -0.12225,-7.32523c1.82392,-3.75088 4.32165,0.66954 4.66494,1.49948c0.43679,1.05604 0.62629,1.62056 0.62629,1.62056l-2.98186,1.71964z" data-paper-data="{&quot;index&quot;:null}" fill="#fedeb5"/><path d="M235.48596,178.66035c0,0 0.46881,5.99228 -0.06134,9.77192c-0.27163,1.93651 -0.93415,1.84066 -1.98634,1.80609c-1.05219,-0.03456 -1.39661,-0.8776 -1.46775,-1.81856c-0.07114,-0.94096 0.60342,-2.53294 0.82844,-6.63712c0.14101,-2.5718 -1.07962,-7.00416 -0.30487,-8.64704c2.01113,-4.26467 5.2107,0.78333 5.58922,1.72696c0.48163,1.20069 0.69058,1.84255 0.69058,1.84255l-3.28793,1.95519z" data-paper-data="{&quot;index&quot;:null}" fill="#fedeb5"/><path d="M243.05167,185.25175c0,0 0.78193,-0.28183 1.14908,-0.50377c0.36715,-0.22196 0.90093,-0.61746 0.90093,-0.61746c0,0 -0.1183,1.0336 -0.20693,1.46989c-0.06726,0.33117 -0.13433,1.01463 -0.51764,1.08852c-0.31491,0.06071 -1.32543,-1.43716 -1.32543,-1.43716z" data-paper-data="{&quot;index&quot;:null}" fill="#fedeb5"/><path d="M239.76753,185.92993c-3.45752,-0.04282 -6.14004,-2.37964 -6.18285,-5.79324c-0.04013,-3.19926 2.33997,-5.87886 6.18285,-5.79322c3.41386,0.07609 6.18286,1.52328 6.18286,5.79322c0,4.01305 -2.76842,5.83553 -6.18286,5.79324z" data-paper-data="{&quot;index&quot;:null}" fill="#fedeb5"/><path d="M243.58433,183.19615c0,0 0.13305,-0.8386 0.29392,-2.77546c0.21768,-2.62109 0.12583,-3.53037 0.86795,-3.28678c0.59921,0.19669 1.54555,1.58189 1.06851,4.49463c-0.11633,0.93031 -0.58304,1.88091 -0.58304,1.88091c0,0 -0.29115,0.27309 -0.56674,0.24914c-0.27559,-0.02394 -0.38133,-0.21704 -0.60214,-0.35068c-0.25412,-0.15381 -0.47847,-0.21176 -0.47847,-0.21176z" data-paper-data="{&quot;index&quot;:null}" fill="#fedeb5"/><path d="M241.49833,183.83712c0,0 -1.31904,0.78603 -2.74912,0.18137c-0.81959,-0.34654 -1.88653,-1.63485 -2.22718,-2.55841c-0.93723,-2.54094 -0.16246,-4.01156 1.10934,-4.46741c1.18871,-0.42605 2.73078,0.59525 3.46913,2.50265c0.73833,1.90738 0.39783,4.34181 0.39783,4.34181z" data-paper-data="{&quot;index&quot;:null}" fill="#fedeb5"/><path d="M241.43013,180.84737c0.3899,1.74276 0.07015,2.95504 0.07015,2.95504c0,0 -0.12009,0.29759 -1.26201,0.403c-0.88732,0.08191 -1.33482,-0.29055 -1.33482,-0.29055c0,0 -0.72321,-0.84084 -0.95123,-2.09962c-0.33007,-1.82214 0.06421,-3.12175 0.99346,-3.40085c0.92926,-0.27909 2.12777,0.83889 2.48443,2.43299z" data-paper-data="{&quot;index&quot;:null}" fill="#ffffff"/><path d="M239.95329,183.50119c-0.38889,0.01947 -0.76044,-0.83555 -0.82989,-1.90978c-0.06946,-1.07423 0.1895,-1.96084 0.57839,-1.98033c0.38889,-0.01947 0.76045,0.83555 0.82989,1.90978c0.06946,1.07423 -0.1895,1.96084 -0.5784,1.98033z" fill="#fedeb5"/><path d="M244.53409,178.7334c0.40857,0.24364 0.58408,1.36378 0.43841,2.93785c-0.10064,1.08741 -0.52779,2.04327 -0.52779,2.04327c0,0 -0.27435,-0.20272 -0.4648,-0.30135c-0.19045,-0.09862 -0.36701,-0.19305 -0.36701,-0.19305c0,0 0.03561,-0.74954 0.15896,-2.32c0.10852,-1.38179 0.30344,-2.4403 0.76224,-2.16672z" data-paper-data="{&quot;index&quot;:null}" fill="#ffffff"/><path d="M243.71254,183.03781c-0.26738,-0.00763 -0.46576,-0.73232 -0.44309,-1.61861c0.02267,-0.8863 0.25781,-1.59861 0.52518,-1.59098c0.26738,0.00763 0.46576,0.73232 0.44308,1.61861c-0.02267,0.8863 -0.2578,1.59861 -0.52517,1.59098z" fill="#fedeb5"/><path d="M243.61316,183.21523c0,0 -0.50975,-0.11788 -0.86331,-0.02269c-0.35018,0.09428 -1.24037,0.54134 -1.24037,0.54134c0,0 0.19726,-0.76454 0.02423,-2.28296c-0.16773,-1.47194 -0.48582,-2.07326 -0.48582,-2.07326l2.93025,-0.59733z" data-paper-data="{&quot;index&quot;:null}" fill="#fedeb5"/><path d="M245.26236,183.45815c0,0 0.00413,0.47738 -0.17152,0.67819c-0.63035,0.72064 -2.03293,1.69877 -4.98515,1.88106c-3.10116,0.19149 -4.33146,-1.87363 -3.22819,-2.52712c0.96819,-0.57348 1.83093,0.73668 3.25635,0.69836c1.17972,-0.03171 2.0605,-0.93745 2.99303,-1.03597c0.68244,-0.0721 1.20473,0.59696 1.43419,0.5887c0.24884,-0.00895 0.7013,-0.28322 0.7013,-0.28322z" data-paper-data="{&quot;index&quot;:null}" fill="#fedeb5"/><path d="M242.81096,176.16967c0.10518,0.51011 0.06374,1.14622 -0.15375,1.1635c-0.1164,0.00924 -0.57943,-0.37284 -1.14886,-0.89126c-0.34916,-0.31789 -0.78086,-0.53383 -1.25347,-0.845c-0.87344,-0.57509 -2.23166,-1.08768 -2.23166,-1.08768c0,0 0.75721,-0.2338 2.27341,-0.1598c1.0398,0.05076 2.05062,0.37757 2.05062,0.37757c0,0 0.23094,0.31384 0.4637,1.44267z" data-paper-data="{&quot;index&quot;:null}" fill="#fedeb5"/><path d="M237.11569,185.30764c0,0 -1.80472,1.83132 -2.22937,1.66418c-0.51688,-0.20344 -0.4322,-1.177 -0.43982,-1.65781c-0.01003,-0.63345 0.09442,-2.11013 0.09442,-2.11013c0,0 0.64337,0.69263 1.09898,1.09898c0.45561,0.40634 1.47578,1.00477 1.47578,1.00477z" data-paper-data="{&quot;index&quot;:null}" fill="#fedeb5"/></g><g stroke-linecap="butt" stroke-linejoin="miter"><path d="M235.47051,171.08544c0.56803,-0.90182 -0.89624,0.53291 -2.09277,0.14611c-0.26897,-0.08695 2.73886,-2.00282 3.01133,-0.41233c-0.56803,0.90182 1.93048,1.14828 2.67698,1.16837c0.37914,0.0102 0.66145,0.15475 0.72184,0.69115c0.07823,0.69482 -0.98143,1.51231 -1.15892,1.46428c-0.73872,-0.24572 0.50817,-1.23272 -0.0806,-1.67822c-0.58876,-0.44551 -2.34849,-0.25088 -2.62835,-0.3716c-0.41233,-0.17785 -0.66973,-0.65817 -0.44952,-1.00776z" data-paper-data="{&quot;index&quot;:null}" fill="#f2a948" stroke="#f7d665" stroke-width="0.25"/><path d="M231.30862,173.22692c0.34314,1.20977 -1.14376,2.62102 -0.22193,2.08608c0.35735,-0.20737 0.82801,0.06728 0.99079,0.48579c0.11048,0.28405 -0.14786,2.03557 0.276,2.6401c0.42386,0.60453 1.45543,-0.60572 1.6742,0.14142c0.04155,0.1791 -0.81384,1.20842 -1.50536,1.10504c-0.53386,-0.0798 -0.66807,-0.36718 -0.66451,-0.74644c0.00701,-0.74675 -0.14866,-3.25254 -1.07049,-2.71759c-1.57956,-0.32999 0.44416,-3.26635 0.52129,-2.99439z" data-paper-data="{&quot;index&quot;:null}" fill="#f2a948" stroke="#f7d665" stroke-width="0.25"/><path d="M225.20321,165.80467l1.22202,-1.20436l1.6921,-0.69536l0.02327,0.54993l1.98883,2.06233l-0.37893,1.26371l-1.42032,1.38195l-1.32198,0.36433l-1.96816,-2.04089l-0.5694,-0.06464z" data-paper-data="{&quot;index&quot;:null}" fill="#272727" stroke="none" stroke-width="0"/><path d="M230.51691,167.48334c0.20324,0.21104 -0.117,1.07845 -0.117,1.07845l1.05269,1.96357l-0.64338,0.59878l-1.87239,-1.19867c0,0 -0.79575,0.22378 -0.98455,0.02774c-0.1663,-0.17267 -0.49117,-0.70057 -0.49117,-0.70057c0,0 0.86945,-0.80446 1.20353,-1.12619c0.38721,-0.3729 1.22294,-1.16396 1.22294,-1.16396c0,0 0.48667,0.37271 0.62934,0.52087z" data-paper-data="{&quot;index&quot;:null}" fill="#f2a948" stroke="#f7d665" stroke-width="0.25"/><path d="M230.78831,172.01192c-0.09546,-0.09898 -0.07101,-0.77422 0.36081,-1.19064c0.43182,-0.41644 1.12708,-0.39606 1.20295,-0.31738c0.07587,0.07868 0.07101,0.77422 -0.36081,1.19064c-0.43182,0.41644 -1.12708,0.39606 -1.20295,0.31738z" data-paper-data="{&quot;index&quot;:null}" fill="#f2a948" stroke="#f7d665" stroke-width="0.25"/><path d="M238.68273,174.25072c0,0 -1.45378,1.2508 -2.28568,2.02056c-0.83189,0.76975 -2.24723,2.17376 -2.24723,2.17376c0,0 -4.43847,-4.73327 -2.11111,-6.82386c2.32752,-2.09074 6.64402,2.62954 6.64402,2.62954z" data-paper-data="{&quot;index&quot;:null}" fill="#f2a948" stroke="#f7d665" stroke-width="0.25"/></g></g></g></svg>