<svg version="1.1" xmlns="http://www.w3.org/2000/svg" xmlns:xlink="http://www.w3.org/1999/xlink" width="31.40156" height="38.7753" viewBox="0,0,31.40156,38.7753"><defs><radialGradient cx="240" cy="180.00002" r="12.13893" gradientUnits="userSpaceOnUse" id="color-1"><stop offset="0" stop-color="#033397"/><stop offset="1" stop-color="#162636"/></radialGradient><radialGradient cx="240" cy="180.00002" r="13.80237" gradientUnits="userSpaceOnUse" id="color-2"><stop offset="0" stop-color="#a5c0fa" stop-opacity="0.74902"/><stop offset="1" stop-color="#1462fa" stop-opacity="0.0549"/></radialGradient></defs><g transform="translate(-224.65064,-160.10137)"><g data-paper-data="{&quot;isPaintingLayer&quot;:true}" fill-rule="nonzero" stroke="none" stroke-width="0" stroke-linecap="butt" stroke-linejoin="miter" stroke-miterlimit="10" stroke-dasharray="" stroke-dashoffset="0" style="mix-blend-mode: normal"><path d="M248.40909,180.00002c0,6.23305 -3.76487,11.28592 -8.40909,11.28592c-4.64422,0 -8.40909,-5.05288 -8.40909,-11.28592c0,-6.23305 3.76487,-11.28592 8.40909,-11.28592c4.64422,0 8.40909,5.05288 8.40909,11.28592z" fill="url(#color-1)"/><path d="M250.28409,180.00002c0,7.62285 -4.60433,13.80238 -10.28409,13.80238c-5.67975,0 -10.28409,-6.17954 -10.28409,-13.80238c0,-7.62285 4.60433,-13.80237 10.28409,-13.80237c5.67976,0 10.28409,6.17953 10.28409,13.80237z" fill="url(#color-2)"/><path d="M246.95133,192.78672c-6.22289,6.61668 -13.19146,-0.55841 -13.19146,-0.55841c0,0 6.19386,5.17308 11.83594,0.38462c7.33531,-6.41258 5.00903,-11.73973 5.00903,-11.73973c0,0 2.96866,4.8723 -3.65351,11.91352z" fill-opacity="0.25098" fill="#ffffff"/><path d="M233.20182,167.42583c6.22289,-6.61668 13.19146,0.55842 13.19146,0.55842c0,0 -6.19386,-5.17308 -11.83594,-0.38462c-7.33531,6.41258 -5.00904,11.73973 -5.00904,11.73973c0,0 -2.96865,-4.8723 3.65351,-11.91352z" data-paper-data="{&quot;index&quot;:null}" fill-opacity="0.25098" fill="#ffffff"/><path d="M247.9777,196.70834c0,0 10.22161,-8.0608 6.48493,-19.27041c-4.97544,-14.92577 -18.39491,-17.33656 -18.39491,-17.33656c0,0 13.71465,0.5262 18.98195,16.716c4.39256,13.50115 -7.07197,19.89096 -7.07197,19.89096z" data-paper-data="{&quot;index&quot;:null}" fill-opacity="0.10196" fill="#ffffff"/><path d="M241.62288,198.87584c0,0 -13.12024,0.35269 -16.22972,-13.50035c-3.72871,-16.61177 7.7987,-24.06074 7.7987,-24.06074c0,0 -10.31212,8.91932 -6.97722,24.29501c2.50459,11.54751 15.40824,13.26608 15.40824,13.26608z" data-paper-data="{&quot;index&quot;:null}" fill-opacity="0.10196" fill="#ffffff"/><path d="M234.77035,185.63481c1.04097,0.37184 4.31853,0.59017 4.31853,0.59017c0,0 -1.42647,0.47136 -3.22824,0.8549c-1.80178,0.38354 -3.46118,-0.23939 -3.70639,-1.39134c-0.1296,-0.60885 0.38773,-1.80213 0.38773,-1.80213c0,0 1.18741,1.37656 2.22838,1.74839z" fill-opacity="0.25098" fill="#ffffff"/><path d="M245.22965,174.36519c-1.04097,-0.37184 -4.31853,-0.59017 -4.31853,-0.59017c0,0 1.42647,-0.47136 3.22824,-0.8549c1.80178,-0.38354 3.46118,0.23939 3.70639,1.39134c0.1296,0.60885 -0.38773,1.80213 -0.38773,1.80213c0,0 -1.18741,-1.37656 -2.22838,-1.74839z" data-paper-data="{&quot;index&quot;:null}" fill-opacity="0.25098" fill="#ffffff"/></g></g></svg>