<svg version="1.1" xmlns="http://www.w3.org/2000/svg" xmlns:xlink="http://www.w3.org/1999/xlink" width="295.79519" height="387.60973" viewBox="0,0,295.79519,387.60973"><g transform="translate(-67.02219,110.07787)"><g data-paper-data="{&quot;isPaintingLayer&quot;:true}" fill-rule="nonzero" stroke-linejoin="miter" stroke-miterlimit="10" stroke-dasharray="" stroke-dashoffset="0" style="mix-blend-mode: normal"><g data-paper-data="{&quot;index&quot;:null}" stroke="none" stroke-width="0" stroke-linecap="butt"><path d="M212.75544,225.98758c11.10377,9.57214 12.20677,27.37671 9.86656,28.95018c-7.28685,4.89938 -26.03122,11.45374 -39.98306,10.87277c-18.43267,-0.76755 -39.80598,0.79202 -39.36889,-5.68066c1.14983,-17.02616 22.1612,-19.21057 40.59383,-18.44305c4.25491,0.17711 7.76815,-31.50363 28.89151,-15.69928z" fill="#09031a"/><path d="M188.50531,254.72524c0,0 -3.48001,-5.92345 -8.15605,-8.04132c-4.67605,-2.11786 -17.26998,-3.47456 -17.26998,-3.47456c0,0 1.37463,-4.18818 8.08501,-5.61507c6.50498,-1.38324 16.12112,-0.73607 16.26667,-0.71386c14.62629,2.23171 15.04792,18.33011 15.04792,18.33011z" fill="#b16e27"/><path d="M173.35378,263.80737c7.75678,0.14654 15.75395,-0.98029 23.03978,-2.52031c15.46811,-3.26938 27.72994,-8.40063 27.67836,-7.16134c-0.04667,1.1217 -13.84635,12.73107 -26.30274,14.6479c-7.78721,1.1983 -24.58777,1.03928 -30.83361,0.93871c-34.52614,-0.5559 -23.75718,-9.14547 -23.75718,-9.14547c0,0 13.93943,2.93377 30.17534,3.24046z" fill="#a75c1e"/><path d="M206.26575,259.55677c-0.15433,3.70678 -4.91003,6.51892 -10.62213,6.28108c-5.71211,-0.23783 -10.21756,-3.43561 -10.06323,-7.14238c0.15433,-3.70678 4.91005,-6.51896 10.62213,-6.28108c5.71208,0.23781 10.21753,3.43557 10.06319,7.14236z" fill="#999999"/><path d="M200.31046,259.63937c-0.04551,1.09382 -2.14007,1.89478 -4.67837,1.78913c-2.53828,-0.10566 -4.55905,-1.07807 -4.51348,-2.17185c0.04557,-1.09382 2.1401,-1.89483 4.6784,-1.78917c2.53821,0.10567 4.55898,1.07808 4.51343,2.17186z" fill="#b16e27"/></g><g stroke="none" stroke-width="0" stroke-linecap="butt"><path d="M278.98207,225.57172c12.50653,7.64894 16.47643,25.04031 14.42174,26.97175c-6.39788,6.01409 -23.83441,15.51559 -37.69634,17.20021c-18.31389,2.2257 -39.15306,7.22371 -39.76927,0.76563c-1.62081,-16.98781 18.76005,-22.54385 37.0739,-24.76955c4.22747,-0.51385 2.56726,-32.34551 25.96992,-20.16808z" fill="#1c0e4c"/><path d="M259.70245,257.85513c0,0 -4.39277,-5.28215 -9.34993,-6.61536c-4.95715,-1.33317 -17.60462,-0.6338 -17.60462,-0.6338c0,0 0.67871,-4.35544 7.06968,-6.84951c6.19536,-2.41775 15.78948,-3.33538 15.9367,-3.33701c14.79466,-0.1648 17.81605,15.65314 17.81605,15.65314z" fill="#b16e27"/><path d="M246.22051,269.26962c7.67822,-1.11073 15.38762,-3.51697 22.32816,-6.21579c14.73509,-5.72962 26.00484,-12.77766 26.15452,-11.54635c0.13548,1.11446 -11.60343,14.80411 -23.5854,18.71157c-7.49063,2.44278 -24.09544,5.00483 -30.27523,5.91639c-34.16096,5.03907 -24.92409,-5.18008 -24.92409,-5.18008c0,0 14.23047,0.63916 30.30198,-1.68578z" fill="#a75c1e"/><path d="M278.01069,259.74864c0.4476,3.68288 -3.79028,7.22761 -9.46559,7.91734c-5.6753,0.68973 -10.63888,-1.73674 -11.08647,-5.41962c-0.4476,-3.68288 3.7903,-7.22767 9.46559,-7.91734c5.67527,-0.68975 10.63884,1.73671 11.08644,5.41961z" fill="#999999"/><path d="M272.14728,260.79396c0.13211,1.08675 -1.80522,2.21616 -4.32715,2.52268c-2.52193,0.30652 -4.67342,-0.32603 -4.80548,-1.41277c-0.13205,-1.08677 1.80524,-2.21619 4.32717,-2.52273c2.52185,-0.3065 4.67336,0.32606 4.80541,1.41279z" fill="#b16e27"/></g><g data-paper-data="{&quot;index&quot;:null}"><path d="M206.81306,136.40374c-10.00039,9.16733 -34.62641,-5.3222 -55.00382,-32.3632c-7.03808,-9.33958 -12.64883,-18.95498 -16.56661,-27.91914c-1.82852,-4.18376 -3.28826,-8.22564 -4.35216,-12.03152c-0.45686,-1.63434 -4.4134,-15.49652 -4.72214,-17.03642c-1.89209,-9.43562 2.60941,-4.68506 6.85144,-8.57376c4.3854,-4.02004 0.98387,-10.80922 9.40271,-6.66723c0.52547,0.25854 11.65521,7.84949 12.18982,8.13597c10.43191,5.58962 22.52758,16.45179 33.41123,30.89454c20.37743,27.041 28.78972,56.39364 18.78936,65.56092z" fill="#462fb6" stroke="none" stroke-width="0" stroke-linecap="butt"/><path d="M197.29028,84.54147c0,0 5.07006,9.12278 7.3106,13.48501c3.18373,6.19866 3.88003,10.94015 3.88003,10.94015c0,0 -4.82759,11.1294 -12.56,16.5442c-8.73247,6.11507 -17.83981,5.18831 -17.83981,5.18831c0,0 -3.69849,-2.48866 -7.87955,-6.32558c-2.87589,-2.63919 -7.56535,-7.156 -7.56535,-7.156c0,0 13.80717,-1.2238 23.00924,-9.31011c15.18922,-13.34754 11.64477,-23.36606 11.64477,-23.36606z" fill="#0d0627" stroke="none" stroke-width="0" stroke-linecap="butt"/><path d="M178.22129,59.38092c0,0 4.41122,4.55194 6.74251,7.38481c2.3313,2.83292 5.60271,7.6166 5.60271,7.6166c0,0 -7.23892,15.31232 -14.97133,20.72712c-8.73246,6.11505 -22.67063,9.69014 -22.67063,9.69014c0,0 -3.12074,-3.2987 -5.02487,-6.01353c-1.90411,-2.71484 -4.72083,-8.35744 -4.72083,-8.35744c0,0 11.85894,-2.31469 21.06101,-10.40101c15.18919,-13.34743 13.98141,-20.64666 13.98141,-20.64666z" fill="#0d0627" stroke="none" stroke-width="0" stroke-linecap="butt"/><path d="M155.54364,40.9249c0,0 5.37262,2.5282 8.13768,4.93954c3.16552,2.76049 6.85987,5.69571 6.85987,5.69571c0,0 -6.93058,11.64655 -13.72595,17.4562c-6.79535,5.80961 -19.44269,10.9011 -19.44269,10.9011c0,0 -3.2297,-5.96951 -4.13292,-8.22711c-0.90324,-2.2576 -1.91918,-6.39439 -1.91918,-6.39439c0,0 6.7198,-0.96465 15.92186,-9.05098c10.71463,-9.87716 8.30142,-15.31998 8.30142,-15.31998z" fill="#0d0627" stroke="none" stroke-width="0" stroke-linecap="butt"/><path d="M143.17508,29.737l5.73948,5.15345c0,0 -1.94351,7.38834 -5.58121,9.68692c-3.63772,2.29859 -5.68674,-5.20699 -5.60807,-1.99672c0.04718,1.92728 0.22745,5.4346 -1.06261,6.82147c-3.08068,3.3118 -9.96368,1.96219 -12.92997,1.73012c-2.47272,-0.19341 0.23467,-8.9803 -1.11075,-9.79343c-0.63875,-0.38606 -6.47471,-2.54085 -12.19512,-8.17727c-3.73178,-3.67692 -11.7159,-8.43719 -6.61544,-11.98875c1.62284,-1.12999 3.77796,-1.26079 3.77796,-1.26079c0,0 1.58594,-3.38197 3.47179,-4.61451c1.88591,-1.23255 3.26655,1.16339 2.90404,0.44752c-0.65051,-1.28452 0.80433,-3.88068 2.67787,-5.41405c1.87352,-1.53335 5.16131,-1.00181 5.16131,-1.00181c0,0 0.59462,-6.62116 7.06385,-5.33456c4.09633,0.81468 6.01764,10.7584 6.28844,10.43421c0.64461,-0.77159 6.1245,-1.20251 7.78932,2.21788c2.11155,4.33817 0.22905,13.09027 0.22905,13.09027z" fill="#c08f5a" stroke="none" stroke-width="0" stroke-linecap="butt"/><path d="M134.72121,24.82713c0,0 -3.6605,3.73472 -6.49707,4.09392c-8.24159,1.04367 -3.91219,-4.31839 -3.92471,-5.12604c-0.01261,-0.81405 3.65044,-2.00278 6.12936,-4.10835c2.65053,-2.25146 4.12896,-5.3994 4.12896,-5.3994" fill="none" stroke="#b26a37" stroke-width="1.5" stroke-linecap="round"/><path d="M122.04927,9.93635l1.33468,3.98482" fill="none" stroke="#b26a37" stroke-width="1" stroke-linecap="round"/><path d="M114.63613,18.81031l-0.59646,-2.29192" fill="none" stroke="#b26a37" stroke-width="1" stroke-linecap="round"/><path d="M108.77918,23.24463l-0.80779,-2.4685" fill="none" stroke="#b26a37" stroke-width="1" stroke-linecap="round"/><path d="M119.03305,26.42961c0,0 -1.995,2.72139 -3.22437,3.74638c-1.12559,0.93847 -4.04189,0.22803 -4.04189,0.22803" fill="none" stroke="#b26a37" stroke-width="1" stroke-linecap="round"/><path d="M143.24471,30.51268c0,0 -5.66329,5.62468 -8.94224,7.43016c-3.36207,1.85125 -10.98716,3.54363 -10.98716,3.54363" fill="none" stroke="#b26a37" stroke-width="1" stroke-linecap="round"/></g><g data-paper-data="{&quot;index&quot;:null}" stroke="none" stroke-linecap="butt"><path d="M332.74982,196.28322c-3.57619,5.604 -12.19433,18.30002 -19.66635,22.25059c-9.17655,4.8518 -28.72814,-7.88241 -28.72814,-7.88241c0,0 3.51681,-3.8766 5.92346,-12.02134c1.36514,-4.61987 -2.09529,-14.46579 1.95537,-13.78109c5.37953,0.90928 9.53772,-2.9225 9.09394,-4.18169c-3.28583,-9.32348 -1.06951,-19.7047 -1.06951,-19.7047c0,0 -4.78618,-5.56042 -7.02632,-9.11231c-2.84926,-4.51761 -8.68533,-15.79973 -8.68533,-15.79973c0,0 8.83605,6.39968 12.97517,8.76672c3.24691,1.85678 9.83926,4.27987 9.83926,4.27987c0,0 6.40765,-9.44609 11.05947,-15.06267c4.65175,-5.61656 8.90471,-9.04207 8.90471,-9.04207l-2.25662,23.16089c0,0 8.04174,-7.6073 13.68709,-11.86006c5.64536,-4.25276 8.81892,-5.09413 8.81892,-5.09413c0,0 -0.82355,7.72949 -2.07093,12.52385c-1.24734,4.79434 -3.92795,10.53349 -3.92795,10.53349c0,0 6.93732,-2.07737 11.44921,-3.123c4.51188,-1.04561 9.79211,-1.26245 9.79211,-1.26245c0,0 -7.06227,5.79071 -11.4474,10.55057c-3.56921,3.87426 -8.39008,11.26352 -8.39008,11.26352c0,0 -6.65394,18.99414 -10.2301,24.59809z" fill="#1c0e4c" stroke-width="NaN"/><path d="M335.53186,189.7092c0,0 -2.9613,6.67183 -4.81825,9.6739c-1.81596,2.93582 -6.20309,8.14408 -6.20309,8.14408c0,0 -1.82256,-7.616 -4.58611,-14.6167c-0.98378,-2.49216 -4.03683,-7.7412 -8.95884,-9.90903c-4.54123,-2.00014 -9.78409,-2.39624 -9.78409,-2.39624l-0.76325,-4.11728c0,0 7.47566,-10.54123 18.79055,-6.97084c12.88613,4.06621 16.323,20.19223 16.323,20.19223z" fill="#684af8" stroke-width="0"/><path d="M291.5732,185.90191c0,0 8.52345,4.90888 11.51032,12.4753c2.98686,7.56642 -2.92687,18.76642 -4.1644,19.25493c-0.40059,0.15812 -4.02533,-1.50919 -7.43525,-3.05008c-2.97451,-1.3441 -6.83379,-3.65812 -6.83379,-3.65812c0,0 3.5915,-5.78606 4.33219,-8.90409c2.83552,-11.93673 2.59085,-16.11791 2.59085,-16.11791z" fill="#684af8" stroke-width="0"/></g><path d="M293.15796,90.2808c0,1.07541 -2.16712,1.33534 -4.22417,1.89882c-2.45087,0.67131 -5.68698,2.09315 -5.68698,2.09315c0,0 3.21163,1.45138 4.42946,3.2028c1.21784,1.75144 2.21385,6.35148 2.21385,6.35148c0,0 -3.71088,-0.23842 -6.08839,-0.21913c-0.46687,0.0038 1.83733,2.59102 2.96008,5.03734c1.37725,3.00083 0.7606,5.98246 0.7606,5.98246c0,0 -3.64736,-3.45324 -7.493,-6.488c-0.68302,-0.53903 1.72732,3.06228 2.56159,5.96146c1.0095,3.50799 -0.17084,6.86619 -0.17084,6.86619c0,0 -5.90078,-5.34191 -6.36014,-5.29782c-4.15016,0.39847 -22.66393,-7.08813 -24.11799,-9.00262c-2.29737,-3.02482 15.33687,-19.41445 15.33687,-19.41445c0,0 5.21379,-1.51418 12.66421,-1.51418c7.45038,0 13.21482,2.18583 13.21482,4.54261z" data-paper-data="{&quot;index&quot;:null}" fill="#5133c8" stroke="none" stroke-width="NaN" stroke-linecap="butt"/><g data-paper-data="{&quot;index&quot;:null}" stroke="none" stroke-width="0" stroke-linecap="butt"><path d="M302.70224,173.38641c-7.61505,58.46523 -40.22784,67.51976 -79.22432,62.81043c-38.99646,-4.70934 -66.86591,-34.93339 -61.9945,-79.86446c15.82318,-38.61398 48.43745,-66.65003 79.22442,-62.81042c37.33288,4.65598 63.01911,56.10074 61.9945,79.86446z" fill="#684af8"/><path d="M262.04436,114.17913c0,0 -2.32352,1.82545 -5.54409,5.22031c-3.22066,3.39478 -7.93565,8.9887 -7.93565,8.9887c0,0 3.37391,-1.32373 10.56724,0.36564c2.223,0.52205 5.64825,2.71406 5.64825,2.71406c0,0 -1.91642,1.30743 -6.89267,3.96099c-6.7286,3.58801 -10.59588,7.23032 -10.59588,7.23032c0,0 1.29932,0.18876 4.37084,1.91826c1.86276,1.04887 4.84318,3.98482 4.84318,3.98482c0,0 -11.12719,0.26555 -17.98335,6.97158c-5.78831,5.66151 -0.74258,47.05535 -14.43627,64.01154c-10.80738,13.38228 -34.85371,-0.52818 -41.87667,-6.98588c-18.11568,-16.65773 -20.84954,-30.02382 -19.69682,-49.21433c1.64308,-27.35389 13.69656,-32.99394 13.69656,-32.99394c0,0 -1.59525,-2.94629 -2.165,-5.31934c-0.79788,-3.32304 -0.08683,-6.25295 -0.08683,-6.25295l7.03149,4.73243l1.31633,-2.63787c0,0 -0.37765,-2.53762 -1.447,-4.99307c-1.70185,-3.90781 -2.97682,-6.18321 -2.97682,-6.18321c0,0 3.55922,-0.49711 6.23691,0.03962c2.67773,0.53674 6.52859,2.51919 6.52859,2.51919l2.36982,-16.70198c0,0 4.3015,4.55627 6.00712,7.02192c1.70562,2.46565 3.63009,6.90959 3.63009,6.90959c0,0 3.70571,-2.16672 11.51105,-0.86579c6.78575,1.13101 15.54573,8.31008 15.54573,8.31008c0,0 6.91291,-3.41006 14.1016,-4.02166c7.18869,-0.61157 18.23213,1.27094 18.23213,1.27094z" fill="#ffffff"/></g><g data-paper-data="{&quot;index&quot;:null}" stroke="none" stroke-width="0" stroke-linecap="butt"><path d="M180.72818,182.19085c9.92413,4.47442 16.23178,6.81311 16.23178,6.81311c0,0 -2.31821,5.82648 -2.96601,9.09089c-0.10006,0.50403 0.16293,10.67561 0.16293,10.67561c0,0 -13.46187,-4.87552 -22.52708,-11.02945c-5.60607,-3.80561 -9.13095,-9.2507 -10.1433,-11.14192c-3.89072,-7.26836 -0.44837,-21.62207 -0.44837,-21.62207c0,0 5.79239,10.94807 19.69001,17.21385z" fill="#f0993f"/><path d="M187.17638,198.8328c-1.40602,-0.16979 -2.36736,-1.78491 -2.14726,-3.60753c0.22009,-1.82261 1.53834,-3.1625 2.94433,-2.99269c1.40602,0.16979 2.36735,1.78495 2.14726,3.60758c-0.22009,1.82256 -1.53833,3.16244 -2.94432,2.99265z" fill="#a94a00"/><path d="M188.28132,197.49409c-0.80931,-0.09774 -1.36268,-1.02743 -1.23598,-2.07654c0.1267,-1.04912 0.88547,-1.82034 1.69478,-1.72261c0.80935,0.09775 1.36274,1.02743 1.23604,2.07655c-0.1267,1.04912 -0.88552,1.82033 -1.69482,1.7226z" fill="#ffffff"/><path d="M176.06271,193.49761c-1.40602,-0.16979 -2.3674,-1.78496 -2.14731,-3.60759c0.22009,-1.82261 1.53839,-3.16249 2.94438,-2.99269c1.40602,0.16979 2.36735,1.78495 2.14726,3.60758c-0.22009,1.82261 -1.53834,3.1625 -2.94433,2.99269z" fill="#a94a00"/><path d="M177.2386,192.17735c-0.80935,-0.09775 -1.36274,-1.02743 -1.23604,-2.07655c0.1267,-1.04912 0.88552,-1.82033 1.69482,-1.7226c0.80931,0.09774 1.36268,1.02743 1.23598,2.07654c-0.1267,1.04912 -0.88547,1.82034 -1.69478,1.72261z" fill="#ffffff"/></g><g data-paper-data="{&quot;index&quot;:null}" stroke="none" stroke-width="0" stroke-linecap="butt"><path d="M233.96003,196.14898c0.19542,-0.86533 15.17805,0.68191 28.13687,0.15271c18.64984,-0.76162 36.67617,-3.49204 36.67617,-3.49204c0,0 -4.16144,16.78469 -8.09684,19.28434c-1.86262,1.18307 -9.65084,4.55362 -17.95088,5.83392c-8.30003,1.28026 -12.85841,0.55357 -21.5137,0.25351c-8.65529,-0.30007 -21.99814,-2.93515 -21.99814,-2.93515c0,0 3.49593,-13.56029 4.74659,-19.09728z" fill="#f0993f"/><g><g><path d="M251.57374,232.8265c0.33102,3.99394 -7.67073,15.29626 -7.67073,15.29626c0,0 -14.68479,-7.95652 -15.35967,-10.59011c-0.30287,-1.18189 -1.32661,-8.09016 -2.88579,-12.93874c-1.54478,-4.80387 -3.63069,-7.54194 -2.74874,-10.08586c3.53985,-10.2105 5.04932,-17.67187 7.46359,-17.38031c3.62288,0.43751 20.59836,28.42338 21.20133,35.69883z" fill="#f0993f"/><g><path d="M233.61231,207.79725c-3.92046,10.97808 -15.99811,16.69932 -26.97619,12.77887c-10.97808,-3.92051 -16.69932,-15.99816 -12.77886,-26.97623c3.92051,-10.97808 15.99816,-16.69932 26.97623,-12.77886c10.97808,3.92051 16.69932,15.99816 12.77886,26.97623z" fill="#fde02b"/><path d="M222.19644,203.01493c-1.82057,5.09795 -7.42917,7.75475 -12.52713,5.93419c-5.09794,-1.82062 -7.75475,-7.42917 -5.93419,-12.52713c1.82058,-5.09802 7.42917,-7.75481 12.52713,-5.93426c5.09795,1.82057 7.75475,7.42917 5.93419,12.52713z" fill="#f4a51d"/><path d="M210.46244,199.37895c0.76315,-2.137 5.03489,-2.56485 9.54111,-0.95552c4.50628,1.60924 7.54067,4.64624 6.77749,6.78318c-0.7632,2.13699 -5.03489,2.56485 -9.54111,0.95552c-4.50628,-1.60929 -7.54066,-4.64629 -6.77749,-6.78323z" fill="#fffed5"/></g></g><g><path d="M238.7038,234.17715c-1.99257,-0.24063 -3.41277,-2.05103 -3.17214,-4.0436c0.24063,-1.99257 2.05098,-3.41278 4.04355,-3.17215c1.99257,0.24063 3.41278,2.05098 3.17215,4.04355c-0.24063,1.99257 -2.05099,3.41283 -4.04355,3.17221z" fill="#934200"/><path d="M240.63425,231.9699c-0.96606,-0.11666 -1.65465,-0.99435 -1.53797,-1.96045c0.11667,-0.96612 0.99435,-1.65471 1.96046,-1.53803c0.96606,0.11666 1.65464,0.9944 1.53796,1.96051c-0.11666,0.96606 -0.99435,1.65465 -1.96045,1.53797z" fill="#1c0e4c"/></g><g><path d="M233.35871,223.32655c-1.99257,-0.24063 -3.41283,-2.05099 -3.17221,-4.04355c0.24063,-1.99257 2.05103,-3.41277 4.0436,-3.17214c1.99257,0.24063 3.41278,2.05098 3.17215,4.04355c-0.24063,1.99257 -2.05098,3.41278 -4.04355,3.17215z" fill="#934200"/><path d="M235.2892,221.11935c-0.96612,-0.11667 -1.65471,-0.99435 -1.53803,-1.96046c0.11666,-0.96606 0.9944,-1.65464 1.96051,-1.53796c0.96606,0.11666 1.65465,0.99435 1.53797,1.96045c-0.11666,0.96606 -0.99435,1.65465 -1.96045,1.53797z" fill="#684af8"/></g></g></g><g data-paper-data="{&quot;index&quot;:null}" stroke-width="0" stroke-linecap="butt"><g fill="#000000"><path d="M123.17191,23.68829l65.70097,-95.10852l7.44743,5.14468l-65.70097,95.10852z" stroke="#b26a37"/><path d="M131.71082,27.51374c0,0 -1.45989,1.93934 -2.27993,2.7923c-6.99825,7.27955 -18.09395,8.83419 -26.26272,3.19119c-8.31463,-5.74374 -10.72815,-16.96281 -6.07133,-26.17939c0.4544,-0.89924 1.56612,-2.63365 1.56612,-2.63365c0,0 2.0517,-2.33848 4.42307,-0.58128c1.87701,1.39087 0.14848,4.2933 0.14848,4.2933c0,0 -7.37249,14.40702 2.84525,20.88628c10.25616,6.50362 17.51767,-6.24953 17.51767,-6.24953l8.11344,4.48078z" stroke="none"/></g><g stroke="none"><path d="M128.96989,-30.67762l70.52519,-53.68709l2.34315,4.93829l-24.53426,82.13801z" fill="#462fb6"/><path d="M229.21155,25.32917l-31.52785,-104.40078l78.26845,112.44463z" fill="#462fb6"/><path d="M67.02219,-110.07787l129.3551,31.25682l-105.15761,8.38679z" data-paper-data="{&quot;index&quot;:null}" fill="#462fb6"/><path d="M177.30391,2.71145l23.10679,-84.0944l29.17248,106.60477z" fill="#d9874c"/><path d="M90.86432,-70.6051l108.39893,-11.18386l-69.32672,51.77911z" data-paper-data="{&quot;index&quot;:null}" fill="#d9874c"/></g><path d="M186.84561,-80.14557l12.35181,-7.63879l6.66224,4.73583l-1.67509,14.88069z" fill="#000000" stroke="none"/></g><g data-paper-data="{&quot;index&quot;:null}" stroke="none" stroke-width="0" stroke-linecap="butt"><path d="M289.69506,51.8889c17.27043,-6.60538 54.86399,-12.45596 58.11608,-10.10632c1.24392,0.89874 -25.02539,9.56177 -40.49763,18.65344c-20.1151,10.68245 -37.54754,26.72292 -37.54754,26.72292c0,0 -10.88885,-11.28181 -11.04882,-13.364c-0.36278,-4.72135 10.77049,-14.17734 30.9779,-21.90603z" data-paper-data="{&quot;index&quot;:null}" fill="#ffffff"/><path d="M285.73689,50.05243c1.56282,-2.45546 2.98201,-6.32592 2.98201,-6.32592c0,0 10.96563,-3.05157 26.73227,-4.26306c15.76663,-1.21149 28.5395,-0.96416 32.68625,1.35409c1.37902,0.77091 -17.22773,0.57564 -31.95638,4.7348c-15.09249,4.26192 -33.92457,11.09614 -33.92457,11.09614c0,0 1.91753,-4.14073 3.48035,-6.59615z" fill="#1a0c47"/><path d="M255.93801,69.32765c-0.99134,-0.64054 9.75843,-6.96853 19.97974,-8.88772c6.49579,-1.21969 19.00529,-1.17712 19.70262,-0.69624c0.80792,0.55706 -10.27292,9.18583 -13.68219,13.63693c-3.40928,4.45108 -12.45987,14.90568 -12.45987,14.90568c0,0 -4.26422,-6.74248 -8.10802,-12.18755c-2.46605,-3.49338 -4.92055,-6.44042 -5.43228,-6.77108z" data-paper-data="{&quot;index&quot;:null}" fill="#e8e8e8"/><path d="M238.96158,68.58093c0,0 16.51225,-12.47532 25.11449,-16.93237c13.09595,-6.78533 26.62699,-8.02858 26.62699,-8.02858l-7.50252,12.53543c0,0 -9.70246,4.33952 -13.57103,7.25691c-3.86852,2.91739 -10.4188,9.96346 -10.4188,9.96346c0,0 -4.35694,-2.65178 -8.87814,-3.68498c-4.52125,-1.03318 -11.37099,-1.10996 -11.37099,-1.10996z" data-paper-data="{&quot;index&quot;:null}" fill="#684af8"/></g><g data-paper-data="{&quot;index&quot;:null}" stroke="none" stroke-width="0" stroke-linecap="butt"><path d="M162.64049,14.6392c0.17134,-0.38523 8.87839,0.0416 18.77188,3.93998c9.13375,3.59901 19.33453,10.19516 19.33453,10.19516l0.2012,15.35583c0,0 -3.59793,-3.58064 -14.25289,-13.57023c-4.81806,-4.51715 -25.13006,-13.5027 -24.05469,-15.92068z" fill="#1a0c47"/><path d="M203.2795,72.39953c-1.92423,4.32668 -5.17433,-12.21949 -15.36765,-27.58187c-6.41561,-9.66906 -27.14322,-29.15116 -25.66997,-29.58097c3.85153,-1.1238 26.78462,14.94379 39.15173,28.68979c12.36707,13.74596 3.81011,24.1464 1.88588,28.47305z" fill="#ffffff"/><path d="M212.87523,64.93049c-1.51727,0.35825 -9.63386,7.59564 -9.63386,7.59564c0,0 0.62393,-6.18249 0.15989,-12.73911c-0.44676,-6.31138 -1.44217,-13.09678 -0.49426,-13.35083c1.95821,-0.5248 11.94129,18.02836 9.96824,18.49429z" fill="#e8e8e8"/><path d="M230.01537,61.87835c0,0 -5.67957,0.1898 -9.66988,0.82691c-3.99024,0.63714 -7.94153,2.18777 -7.94153,2.18777c0,0 -3.57381,-5.80726 -5.94584,-12.04047c-1.13532,-2.98331 -4.78109,-6.96455 -6.69172,-12.16752c-1.93811,-5.27787 -2.12641,-11.75891 -1.16254,-12.06032c4.61912,-1.44447 15.21003,9.39701 21.78104,16.51647c6.57095,7.11943 9.63052,16.73717 9.63052,16.73717z" fill="#684af8"/></g><path d="M231.27779,100.80115c-18.82101,-3.5785 -33.15092,-11.9471 -30.47874,-25.41188c2.07183,-10.43983 18.8571,-16.03151 37.67811,-12.45301c18.82101,3.5785 32.46684,14.95577 30.47878,25.41189c-1.98805,10.45612 -18.85714,16.0315 -37.67816,12.45301z" fill="#684af8" stroke="none" stroke-width="0" stroke-linecap="butt"/><path d="M219.07441,78.02352c-4.27243,-1.09254 5.89291,-16.25454 5.89291,-16.25454c0,0 2.0278,-1.10113 8.93357,0.16958c5.5519,1.02163 10.04362,2.45775 10.04362,2.45775c0,0 -3.41773,1.6245 -11.306,5.4793c-4.8803,2.3849 -11.21963,8.74743 -13.56416,8.14786z" fill="#1c0e4c" stroke="none" stroke-width="0" stroke-linecap="butt"/><path d="M203.35552,76.25581c2.24417,-5.11924 6.76516,-8.04837 10.09795,-6.54239c3.33277,1.50596 4.21528,6.87679 1.97114,11.99608c-2.24412,5.1193 -7.26952,9.52188 -10.6023,8.01591c-3.33274,-1.50596 -3.71093,-8.35025 -1.46678,-13.46954z" fill="#1c0e4c" stroke="none" stroke-width="0" stroke-linecap="butt"/><path d="M247.72177,75.38718c3.92292,4.96016 1.20557,13.64525 -6.06932,19.39887c-7.27488,5.75355 -16.35247,6.39674 -20.27533,1.4366c-3.92292,-4.96016 -1.20557,-13.64525 6.06932,-19.39887c7.27485,-5.75356 16.35247,-6.39674 20.27533,-1.4366z" fill="#1c0e4c" stroke="none" stroke-width="0" stroke-linecap="butt"/><path d="M276.28827,87.99305c9.98891,0.55856 11.71339,3.35913 11.80584,2.8729c0.24018,-1.26319 -6.65939,1.42273 -10.98452,2.69134c-4.32518,1.26862 -7.56508,2.74954 -7.56508,2.74954c0,0 4.88343,1.19236 7.50796,2.92425c2.62452,1.73195 6.8095,6.52379 6.8095,6.52379c0,0 -8.00873,-1.82871 -13.19198,-2.68919c-5.18332,-0.86043 -9.93274,-1.70757 -9.93274,-1.70757c0,0 -9.49243,10.60371 -48.82163,-0.49013c-1.8414,-0.38266 -3.4631,-1.86964 -3.4631,-1.86964c0,0 -3.96138,-0.79502 -5.86392,-2.31284c-1.90253,-1.51782 -3.60544,-3.7153 -3.60544,-3.7153c0,0 -0.20907,0.47758 -1.365,0.83498c-1.15588,0.35743 -4.74288,-0.60105 -4.74288,-0.60105l2.45751,-3.46251l-3.04093,-7.58019c0,0 1.88821,0.34899 3.00979,0.82331c1.12158,0.47431 1.93425,1.26764 1.93425,1.26764l-0.16243,-8.26639c0,0 2.10047,2.22387 3.99131,5.15346c0.96625,1.49708 2.09621,3.98845 2.94245,5.44896c1.44047,2.48613 2.50652,2.82686 2.57795,2.67362c0.79106,-1.69777 4.70329,-1.35119 6.8332,-0.90899c3.53321,0.73355 9.25436,7.22708 14.00256,8.22644c7.49801,1.13466 12.1734,-3.05341 19.81649,-4.68487c7.64309,-1.63143 9.02436,-1.36219 9.02436,-1.36219c0,0 4.33439,-3.64948 9.02674,-6.71124c9.16025,-5.97708 14.47135,-4.21567 14.47135,-4.21567c0,0 -4.18963,3.42183 -6.42897,5.31531c-1.99779,1.68913 -6.36512,5.50267 -6.36512,5.50267c0,0 -0.66653,-2.98879 9.32238,-2.43023z" fill="#ffffff" stroke="none" stroke-width="0" stroke-linecap="butt"/><path d="M208.85207,93.67586c-0.99682,-0.18953 -2.60376,-1.63447 -2.43966,-2.49751c0.16409,-0.86304 1.32444,-1.04351 3.05052,-0.71532c1.72608,0.32819 2.73924,0.92188 2.57513,1.78494c-0.16409,0.86301 -2.29335,1.59762 -3.186,1.42789z" fill="#000000" stroke="none" stroke-width="0" stroke-linecap="butt"/><path d="M224.67419,103.61186c0,0 -3.6018,-0.10145 -6.12378,-0.99338c-1.66189,-0.58781 -3.30565,-2.80682 -5.95635,-4.3585c-2.16094,-1.26503 -6.79227,-0.12067 -8.7982,-0.97758c-2.50261,-1.06908 -4.43416,-4.98486 -4.43416,-4.98486" fill="none" stroke="#000000" stroke-width="1" stroke-linecap="round"/><g data-paper-data="{&quot;index&quot;:null}"><g data-paper-data="{&quot;index&quot;:null}" stroke="none" stroke-width="0" stroke-linecap="butt"><path d="M267.0609,130.07737c-10.47568,-8.62001 -9.11332,-28.48205 9.79063,-56.57292c10.09664,-15.00345 21.5949,-26.49619 31.71332,-32.6351c0.51856,-0.31462 11.22689,-8.48925 11.73778,-8.77545c8.18558,-4.58577 5.15158,2.37543 9.74544,6.15552c4.44363,3.6565 8.68498,-1.32776 7.29967,8.19554c-0.22607,1.55413 -3.43646,15.60784 -3.80538,17.26436c-0.85909,3.85726 -2.10083,7.9714 -3.70324,12.24688c-3.43331,9.16068 -8.52243,19.06199 -15.05162,28.7642c-18.90398,28.09087 -42.72087,43.87509 -53.1966,35.25505z" fill="#684af8"/><path d="M268.32994,87.6782c0,0 -3.00419,10.19359 12.87626,22.71067c9.62083,7.58323 23.47367,8.06774 23.47367,8.06774c0,0 -4.44153,4.76081 -7.17227,7.54983c-3.9701,4.05473 -7.5304,6.73744 -7.5304,6.73744c0,0 -9.04482,1.41189 -18.09146,-4.22799c-8.01063,-4.99405 -13.4258,-15.8497 -13.4258,-15.8497c0,0 0.44205,-4.7719 3.29018,-11.13178c2.00433,-4.47567 6.57985,-13.85625 6.57985,-13.85625z" fill="#1c0e4c"/><path d="M286.02754,61.53526c0,0 -0.81612,7.35328 15.06432,19.87039c9.62083,7.58323 21.58655,9.26115 21.58655,9.26115c0,0 -2.51134,5.78505 -4.26771,8.59774c-1.75636,2.81268 -4.69648,6.27342 -4.69648,6.27342c0,0 -14.1093,-2.8255 -23.15589,-8.46538c-8.01063,-4.99405 -16.05713,-19.89786 -16.05713,-19.89786c0,0 3.01126,-4.95154 5.18787,-7.90494c2.17667,-2.95335 6.33842,-7.73443 6.33842,-7.73443z" fill="#1c0e4c"/><path d="M307.687,41.89423c0,0 -2.1191,5.56391 9.10784,14.85472c9.62083,7.58323 16.38258,8.18758 16.38258,8.18758c0,0 -0.79349,4.18518 -1.57491,6.48781c-0.78139,2.30266 -3.68755,8.43619 -3.68755,8.43619c0,0 -12.90125,-4.40863 -19.99725,-9.84702c-7.09602,-5.4384 -14.6388,-16.69812 -14.6388,-16.69812c0,0 3.53226,-3.12837 6.54577,-6.05398c2.63235,-2.55555 7.86222,-5.36717 7.86222,-5.36717z" fill="#1c0e4c"/></g><g><path d="M325.08626,7.24121c1.07541,-1.52108 3.96185,-0.60739 4.76141,0.99205c0.79958,1.59945 -2.57928,5.66963 -1.38207,5.76774c1.38333,0.11324 3.20964,-5.78 3.42755,-5.49079c0.25417,0.33734 0.56311,-4.1654 4.6952,-4.77346c6.52565,-0.96027 6.78708,5.68244 6.78708,5.68244c0,0 3.31037,-0.36583 5.10452,1.25967c1.79416,1.62551 3.11686,4.29138 2.40271,5.5417c-0.39796,0.69673 1.10117,-1.62689 2.92288,-0.30121c1.82158,1.32565 3.23579,4.78294 3.23579,4.78294c0,0 2.14585,0.23882 3.70989,1.44885c4.91577,3.8031 -3.29724,8.15655 -7.20889,11.64153c-5.99611,5.34213 -11.93289,7.20126 -12.59024,7.55477c-1.38459,0.74457 0.87841,9.65624 -1.60095,9.7253c-2.97416,0.08281 -9.91622,1.08525 -12.82681,-2.37701c-1.21882,-1.44989 -0.86272,-4.94381 -0.71883,-6.86625c0.23966,-3.2023 -2.18343,4.19095 -5.70125,1.71265c-3.5178,-2.47828 -5.08785,-9.95484 -5.08785,-9.95484l5.99089,-4.85882c0,0 -4.10439,-9.91248 4.07902,-21.48725z" fill="#ffc281" stroke="none" stroke-width="0" stroke-linecap="butt"/><path d="M341.56749,13.92588l1.53303,-3.91278" fill="none" stroke="#d9874c" stroke-width="1" stroke-linecap="round"/><path d="M350.05892,19.24783l0.71076,-2.25911" fill="none" stroke="#d9874c" stroke-width="1" stroke-linecap="round"/><path d="M355.68569,23.97086l0.93065,-2.42483" fill="none" stroke="#d9874c" stroke-width="1" stroke-linecap="round"/><path d="M340.25219,41.46006c0,0 -7.53047,-2.07299 -10.79547,-4.09072c-3.18416,-1.96781 -8.55799,-7.8697 -8.55799,-7.8697" fill="none" stroke="#d9874c" stroke-width="1" stroke-linecap="round"/></g></g><path d="M205.04368,80.76424l7.08491,-9.1687l0.83352,12.2944" fill="none" stroke="#000000" stroke-width="2.5" stroke-linecap="round"/><path d="M227.13193,86.80727l7.08491,-9.1687l0.83352,12.2944" fill="none" stroke="#000000" stroke-width="2.5" stroke-linecap="round"/></g></g></svg>