<svg version="1.1" xmlns="http://www.w3.org/2000/svg" xmlns:xlink="http://www.w3.org/1999/xlink" width="5.32841" height="11.61812" viewBox="0,0,5.32841,11.61812"><g transform="translate(-234.46075,-180.6264)"><g data-paper-data="{&quot;isPaintingLayer&quot;:true}" fill-rule="nonzero" stroke="none" stroke-linejoin="miter" stroke-miterlimit="10" stroke-dasharray="" stroke-dashoffset="0" style="mix-blend-mode: normal"><path d="M237.72372,183.73785c0.04639,1.59938 -0.00948,2.44824 -0.24189,2.45947c-0.09706,0.00469 -1.01117,0.94291 -1.03387,0.15872c-0.03167,-1.09378 0.39465,-3.30936 0.36763,-4.24087c-0.02875,-0.99112 0.78576,-1.97574 1.05911,-1.22275c0.16775,0.46213 -0.1601,2.53075 -0.15097,2.84544z" fill="#005613" stroke-width="NaN" stroke-linecap="butt"/><path d="M238.13507,191.90228c-0.53923,0.25377 -1.15794,0.37887 -1.83194,0.33285c-0.80258,-0.05532 -1.5632,-0.23674 -1.74468,-0.85839c-0.32042,-1.09484 0.24577,-1.95281 0.29391,-2.46433c0.04814,-0.51151 0.15589,-0.92592 -0.0165,-1.41307c-0.17239,-0.48715 -0.15573,-1.25018 0.02667,-1.40702c0.25671,-0.22041 0.10942,-0.03219 0.78645,-0.07866c0.67704,-0.04647 1.02246,-0.05181 1.82029,0.01487c0.79784,0.06667 0.26016,0.00298 0.71636,0.14692c0.12651,0.05375 0.39953,0.63934 0.51262,0.9635c0.11309,0.32416 0.02775,0.51997 0.12671,0.8691c0.09897,0.34912 0.28447,0.62462 0.36231,0.8561c0.19607,0.65284 0.89944,2.0274 0.45991,2.32155c-0.8715,0.63919 -1.28997,-1.03843 -1.37854,-0.95811c-0.08939,0.0814 0.59974,0.28957 0.56278,1.11879c-0.07153,0.41373 -0.24886,0.31667 -0.69635,0.55588z" data-paper-data="{&quot;index&quot;:null}" fill="#a8c8d8" stroke-width="0.67216" stroke-linecap="round"/></g></g></svg>