<svg version="1.1" xmlns="http://www.w3.org/2000/svg" xmlns:xlink="http://www.w3.org/1999/xlink" width="21.32995" height="25.87661" viewBox="0,0,21.32995,25.87661"><g transform="translate(-229.52998,-167.05253)"><g data-paper-data="{&quot;isPaintingLayer&quot;:true}" fill-rule="nonzero" stroke="none" stroke-width="0" stroke-linecap="butt" stroke-linejoin="miter" stroke-miterlimit="10" stroke-dasharray="" stroke-dashoffset="0" style="mix-blend-mode: normal"><path d="M239.29508,167.05253c8.71122,0 10.90572,10.93507 10.90572,10.93507c0,0 -3.08035,-10.20168 -11.12828,-10.29807c-6.04419,-0.0724 -8.56878,10.29807 -8.56878,10.29807c0,0 1.5268,-10.93507 8.79134,-10.93507z" fill-opacity="0.25098" fill="#ffffff"/><path d="M241.1637,192.42536c-8.71122,0 -10.90572,-10.26002 -10.90572,-10.26002c0,0 3.08035,9.57191 11.12828,9.66235c6.04419,0.06793 8.56878,-9.66235 8.56878,-9.66235c0,0 -1.5268,10.26002 -8.79134,10.26002z" data-paper-data="{&quot;index&quot;:null}" fill-opacity="0.25098" fill="#ffffff"/><path d="M229.53331,181.54249c-0.19422,-11.15542 8.19039,-14.41043 8.19039,-14.41043c0,0 -7.79925,4.35958 -7.69415,14.66954c0.07893,7.74301 8.13332,10.55413 8.13332,10.55413c0,0 -8.46758,-1.5104 -8.62955,-10.81324z" data-paper-data="{&quot;index&quot;:null}" fill-opacity="0.10196" fill="#ffffff"/><path d="M242.22706,192.92914c0,0 8.05439,-2.81112 8.13331,-10.55413c0.1051,-10.30994 -7.69415,-14.66954 -7.69415,-14.66954c0,0 8.38462,3.25502 8.19039,14.41043c-0.16197,9.30283 -8.62956,10.81323 -8.62956,10.81323z" data-paper-data="{&quot;index&quot;:null}" fill-opacity="0.10196" fill="#ffffff"/></g></g></svg>