<svg version="1.1" xmlns="http://www.w3.org/2000/svg" xmlns:xlink="http://www.w3.org/1999/xlink" width="131.1468" height="213.78296" viewBox="0,0,131.1468,213.78296"><g transform="translate(-185.84327,-71.36925)"><g data-paper-data="{&quot;isPaintingLayer&quot;:true}" fill-rule="nonzero" stroke-linejoin="miter" stroke-miterlimit="10" stroke-dasharray="" stroke-dashoffset="0" style="mix-blend-mode: normal"><path d="M219.95351,138.31911c2.56149,0 2.57162,-0.8204 14.61118,-1.90166c5.80331,-0.52119 17.9219,-3.14187 17.9219,1.34792c0,0.3908 -4.69575,30.10719 -5.98365,36.28504c-1.28791,6.17784 -1.36052,16.41388 -1.36052,16.41388c0,0 4.04648,11.43511 6.47253,18.76499c2.42605,7.32988 11.33001,35.02224 11.33001,35.02224l-9.47652,0.11742l-15.9727,-46.13728l-6.92702,-0.83548l1.0202,20.04815l2.37477,26.71609l-10.68236,-0.58294c0,0 -2.91451,-30.80129 -3.93183,-43.28061c-3.59686,-10.5091 -2.93827,-28.20534 -2.93827,-28.20534c0,0 -0.25392,-33.77242 3.54228,-33.77242z" fill="#ff3200" stroke="none" stroke-width="0" stroke-linecap="butt"/><path d="M218.247,149.82161c0,0 -14.10158,5.18149 -12.82023,8.79265c2.11477,7.07967 1.89456,10.93568 1.89456,10.93568l-8.92717,7.05496l-0.57965,-10.67851c0,0 -6.43975,-21.28453 20.05912,-25.33177c1.56787,-1.64609 0.37337,9.22699 0.37337,9.22699z" fill="#ff3200" stroke="none" stroke-width="0" stroke-linecap="butt"/><path d="M282.70291,108.10059z" data-paper-data="{&quot;index&quot;:null}" fill="#030000" stroke="none" stroke-width="0" stroke-linecap="butt"/><path d="M242.48026,142.58299c0,0 -8.26797,14.98663 -16.24481,14.07294c-7.97685,-0.91369 -7.80792,-12.74245 -7.80792,-12.74245c0,0 -0.73563,4.0013 7.24121,4.91499c7.97685,0.91369 16.81152,-6.24548 16.81152,-6.24548z" fill="#ffffff" stroke="none" stroke-width="0" stroke-linecap="butt"/><path d="M262.34425,187.26634c0,0 3.92036,-24.04502 1.949,-28.12854c-1.91514,-3.96704 -17.22222,-14.70709 -17.22222,-14.70709l4.999,-7.91508c0,0 18.92627,9.72292 21.55062,14.13661c3.32031,5.58415 -0.26642,35.26197 -0.26642,35.26197z" fill="#ff3200" stroke="none" stroke-width="0" stroke-linecap="butt"/><path d="M291.03695,174.35406c5.13724,-1.63034 25.95312,15.05329 25.95312,15.05329l-24.5065,-1.7495c0,0 -28.2546,28.2954 -31.20255,28.5033c-3.08292,0.21739 -18.42132,-21.7362 -18.42132,-21.7362l1.758,-12.92945l14.58041,18.89502c0,0 25.11729,-23.90331 31.83884,-26.03644z" fill="#ff3200" stroke="none" stroke-width="0" stroke-linecap="butt"/><path d="M262.39985,198.98295c0,0 -6.26193,4.07458 -10.60265,6.02704c-4.34075,1.95245 -9.8894,3.19022 -9.8894,3.19022l-10.58006,-1.70993c0,0 -5.38419,-2.68566 -6.72955,-5.81045c-1.34534,-3.12478 0.71437,-12.75427 0.71437,-12.75427c0,0 -4.86328,-4.9968 -4.04118,-10.00184c0.44653,-2.71854 3.2304,-6.18334 7.10727,-7.4562c3.87685,-1.27286 12.54966,1.00241 12.54966,1.00241c0,0 -7.7024,-1.47373 -6.61938,-1.72251c3.38662,-0.77798 3.36889,-3.82446 6.25341,-3.77599c2.88451,0.04846 11.79087,4.07914 11.79087,4.07914l8.68969,7.02119l10.67541,2.07113c0,0 2.17887,7.14557 2.19249,10.72771c0.01362,3.58215 -3.72099,9.21937 -3.72099,9.21937l-7.78992,-0.10697z" data-paper-data="{&quot;index&quot;:null}" fill="#dcdcd5" stroke="none" stroke-width="0" stroke-linecap="butt"/><path d="M244.53451,172.76487c0,0 -4.50878,-0.2843 -6.13365,-0.56492c-1.95881,-0.33827 -5.64299,-1.22169 -5.64299,-1.22169" fill="none" stroke="#c1b9a5" stroke-width="1" stroke-linecap="round"/><path d="M235.47964,189.19126c-2.9926,0.90044 -8.65032,-1.78843 -8.65032,-1.78843c0,0 3.04902,-5.98084 6.04163,-6.8813c2.9926,-0.90044 6.00254,0.31035 6.72293,2.70443c0.72038,2.39406 -1.12163,5.06483 -4.11424,5.96529z" fill="none" stroke="#c1b9a5" stroke-width="1" stroke-linecap="butt"/><path d="M239.67598,206.64486c-1.99034,2.40937 -8.18932,3.31081 -8.18932,3.31081c0,0 -0.78107,-6.6676 1.20929,-9.07695c1.99034,-2.40937 5.16636,-3.07172 7.09386,-1.47945c1.92749,1.59228 1.87652,4.83626 -0.11383,7.24561z" fill="#dcdcd5" stroke="#c1b9a5" stroke-width="1" stroke-linecap="butt"/><path d="M213.20859,251.01756c-0.30095,-3.72655 5.41954,-7.22919 12.77709,-7.82337c7.35754,-0.59419 16.43749,0.76376 16.73844,4.49031c0.11991,1.4849 0.27904,7.05749 -1.78431,8.52711c-3.11483,2.21852 -16.83633,1.31694 -21.26212,1.67435c-7.35754,0.59418 -6.16815,-3.14185 -6.4691,-6.86839z" fill="#53b761" stroke="#000000" stroke-width="0" stroke-linecap="butt"/><path d="M199.91031,259.29817c-4.09725,0.90895 15.07553,-6.20192 15.07553,-6.20192c0,0 26.42635,0.99674 26.35608,1.9528c-0.07026,0.95604 1.98062,4.40128 1.98062,4.40128c0,0 -36.39748,-1.70832 -43.41221,-0.15216z" fill="#e0e0de" stroke="none" stroke-width="0" stroke-linecap="butt"/><path d="M224.67148,255.30618c0.01693,-0.47902 2.04993,-0.79598 4.54081,-0.70794c2.4909,0.08804 4.49643,0.54774 4.4795,1.02676c-0.01693,0.47902 -2.04993,0.79595 -4.54081,0.70792c-2.4909,-0.08804 -4.49643,-0.54772 -4.4795,-1.02674z" fill="none" stroke="#986d63" stroke-width="1.5" stroke-linecap="butt"/><path d="M210.32282,255.80014c-0.01682,-0.47903 1.98881,-0.9383 4.47973,-1.02582c2.49092,-0.08752 4.52383,0.22986 4.54067,0.70889c0.01682,0.47903 -1.98879,0.9383 -4.47971,1.02582c-2.49092,0.08752 -4.52384,-0.22986 -4.54066,-0.70888z" fill="none" stroke="#986d63" stroke-width="1.5" stroke-linecap="butt"/><path d="M201.18478,258.98386c0,0 34.37032,-3.23713 41.34693,0.27018c2.72989,1.37238 9.33545,12.42612 4.13921,19.59036c-2.52567,3.48223 -13.61874,2.50454 -13.66568,3.14328c-0.05307,0.72201 -16.05629,0.45697 -25.46914,0.44378c-9.41285,-0.01319 -17.3581,-1.00113 -17.3581,-1.00113c0,0 -2.11622,-7.77203 -0.26434,-12.14407c3.25285,-7.67957 11.27113,-10.30241 11.27113,-10.30241z" fill="#ff1c00" stroke="none" stroke-width="0" stroke-linecap="butt"/><path d="M194.07461,105.74914c1.03244,-8.68159 7.81947,-5.78236 7.81947,-5.78236c0,0 5.92948,-19.82983 16.65195,-23.6103c22.69134,-8.00041 51.22382,-3.97408 51.22382,-3.97408c0,0 5.83056,1.68941 16.00116,13.6523c5.58423,6.56826 11.72088,20.59587 11.72088,20.59587c0,0 0.79301,15.0841 0.13154,22.78014c-0.69482,8.08396 -4.20534,24.61718 -4.20534,24.61718l-3.86331,-29.95005c0,0 -2.32945,20.08299 -6.1678,34.6605c-3.83835,14.57753 -16.92948,34.71857 -16.92948,34.71857c0,0 2.54943,-5.82294 4.69027,-29.73193c2.14082,-23.90901 3.47074,-61.41092 3.47074,-61.41092c0,0 -2.12191,38.5738 -5.94549,53.79012c-3.1566,12.56194 -15.38102,31.08049 -15.38102,31.08049c0,0 4.27235,-23.88529 5.47915,-33.47116c0.86468,-6.86858 1.08382,-18.66015 1.08382,-18.66015l-13.02114,35.46832c0,0 5.49727,-33.18063 0.05997,-42.70787c-9.48682,-16.62277 -29.04359,-5.81254 -29.15973,-5.82635c-10.96619,-1.30413 -24.69196,-7.55669 -23.6595,-16.23828z" data-paper-data="{&quot;index&quot;:null}" fill="#ff3300" stroke="none" stroke-width="0" stroke-linecap="butt"/><path d="M200.70725,116.27347c0.36226,-3.04616 -0.02247,-7.07248 2.51622,-6.45966c2.5387,0.61281 7.36167,5.71048 6.99941,8.75664c-0.36226,3.04618 -4.81724,3.38924 -6.78453,3.15528c-1.96731,-0.23397 -3.09334,-2.40608 -2.73108,-5.45224z" data-paper-data="{&quot;index&quot;:null}" fill="#ffffff" stroke="none" stroke-width="0" stroke-linecap="butt"/><path d="M191.05172,129.99147c0,0 8.31887,-12.18303 23.15456,-11.18036c14.50844,0.98055 19.88509,3.71328 19.88509,3.71328c0,0 3.19967,-5.78274 7.69785,-7.56856c3.80574,-1.51095 8.85689,0.04712 10.4322,8.24809c0.45597,2.37373 0.14766,11.47865 -6.62298,14.82048c-9.22486,4.91901 -20.77177,6.47024 -31.69891,3.52411c-26.6605,-7.18814 -22.84779,-11.55701 -22.84779,-11.55701z" data-paper-data="{&quot;index&quot;:null}" fill="#ffbe7e" stroke="none" stroke-width="0" stroke-linecap="butt"/><path d="M185.84595,131.76961c0.18436,-1.55029 7.22086,-5.28421 7.22086,-5.28421c0,0 3.18053,0.87495 3.61282,2.37742c0.43229,1.50245 -1.69143,4.14386 -1.69143,4.14386c0,0 -9.32659,0.31323 -9.14223,-1.23706z" data-paper-data="{&quot;index&quot;:null}" fill="#030000" stroke="none" stroke-width="0" stroke-linecap="butt"/><path d="M237.26863,130.24381c0,0 3.848,-0.8904 6.34887,-0.87114c2.50087,0.01927 4.42886,0.95425 4.42886,0.95425" data-paper-data="{&quot;index&quot;:null}" fill="none" stroke="#000000" stroke-width="0.5" stroke-linecap="round"/><path d="M216.14448,118.89173c0,0 8.78453,-4.63323 12.86213,-7.40439c6.37941,-4.33548 16.28427,-5.78583 16.28427,-5.78583c0,0 0.88852,0.90862 0.24417,3.60443c-1.29147,5.40325 -9.77471,13.86636 -12.18583,13.57963c-4.89564,-0.58222 -17.20475,-3.99382 -17.20475,-3.99382z" data-paper-data="{&quot;index&quot;:null}" fill="#ffffff" stroke="none" stroke-width="0" stroke-linecap="butt"/><path d="M189.52923,279.2006c1.28382,-1.18633 14.12589,1.4459 28.89112,0.98336c13.64885,-0.42759 23.03158,-3.72234 28.17896,-3.84009c2.1685,-0.0496 0.8433,4.21967 0.8433,4.21967c0,0 -18.68672,3.83633 -28.31751,4.46555c-9.24626,0.6041 -29.24457,-1.21104 -29.24457,-1.21104c0,0 -0.99372,-4.02378 -0.35131,-4.61741z" data-paper-data="{&quot;index&quot;:null}" fill="#646362" stroke="none" stroke-width="0" stroke-linecap="butt"/><g stroke-linecap="butt"><path d="M266.38797,255.81097c-4.43989,0.05134 -18.02021,2.21169 -21.32596,0.28917c-2.18983,-1.27353 -2.54416,-6.83712 -2.56136,-8.32676c-0.04323,-3.73843 8.87326,-5.92611 16.25427,-6.01144c7.381,-0.08533 13.39954,2.87609 13.44274,6.61451c0.04323,3.73843 1.57134,7.34918 -5.80966,7.43452z" data-paper-data="{&quot;index&quot;:null}" fill="#53b761" stroke="#000000" stroke-width="0"/><path d="M271.99325,252.22c0.12745,0.95012 2.79163,7.04838 2.79163,7.04838c0,0 -9.93887,-4.74181 -19.61185,-4.36136c-7.48076,0.29425 -16.92441,3.68837 -19.77916,4.9804c-3.82351,1.73045 7.78224,-6.70552 7.78224,-6.70552c0,0 28.68968,-1.91203 28.81714,-0.96191z" fill="#e0e0de" stroke="none" stroke-width="0"/><path d="M259.77463,253.52094c0.0347,-0.47807 2.07806,-0.7193 4.56397,-0.53885c2.48591,0.18048 4.47297,0.71431 4.43827,1.19236c-0.0347,0.47807 -2.07806,0.7193 -4.56397,0.53883c-2.48591,-0.18048 -4.47297,-0.71429 -4.43827,-1.19236z" fill="none" stroke="#986d63" stroke-width="1.5"/><path d="M245.97012,254.59458c-0.0532,-0.47636 1.91169,-1.08684 4.38875,-1.36353c2.47706,-0.27668 4.5282,-0.11485 4.58142,0.36151c0.0532,0.47636 -1.91168,1.08681 -4.38875,1.36352c-2.47706,0.27668 -4.5282,0.11487 -4.58143,-0.36149z" fill="none" stroke="#986d63" stroke-width="1.5"/><path d="M228.11662,266.13248c3.92481,-3.13008 9.41327,-7.58782 9.41327,-7.58782c0,0 12.45805,-4.69301 20.41262,-3.4331c7.95459,1.25992 11.2621,-0.57849 16.20634,3.96606c4.94423,4.54455 9.83087,12.57406 9.31083,18.68299c-2.76662,0.47201 -18.80415,2.77182 -28.33118,3.14968c-15.70357,0.62286 -28.99329,-2.06796 -28.99329,-2.06796c0,0 -1.94343,-9.57981 1.98138,-12.70989z" fill="#ff1c00" stroke="none" stroke-width="0"/><path d="M228.04539,278.39628c1.25835,-1.15004 13.62441,1.83467 27.89561,1.77991c13.19217,-0.05063 22.30677,-3.08408 27.28125,-3.0597c2.09566,0.01027 0.75027,4.23989 0.75027,4.23989c0,0 -18.11109,3.31788 -27.42465,3.68088c-8.94169,0.3485 -28.2336,-2.01718 -28.2336,-2.01718c0,0 -0.89856,-4.04829 -0.2689,-4.62376z" data-paper-data="{&quot;index&quot;:null}" fill="#646362" stroke="none" stroke-width="0"/></g><g stroke="none" stroke-linecap="butt"><path d="M207.34643,121.70358c-1.58921,0.03633 -2.9399,-2.65958 -3.01676,-6.02152c-0.07686,-3.36194 1.14922,-6.11676 2.73842,-6.1531c1.58921,-0.03633 2.9399,2.65958 3.01676,6.02152c0.07686,3.36194 -1.14922,6.11676 -2.73842,6.1531z" fill="#7c5cbb" stroke-width="0"/><path d="M207.1173,110.37303c0.5017,0.03625 0.95609,0.60177 1.28437,1.48772c0.32728,0.88612 0.52912,2.09178 0.52628,3.407c-0.00204,1.31426 -0.20832,2.49119 -0.54017,3.33061c-0.33096,0.83921 -0.78771,1.34119 -1.28995,1.3059c-0.50225,-0.03522 -0.95596,-0.60178 -1.28425,-1.48773c-0.32746,-0.88612 -0.52938,-2.09177 -0.52742,-3.40679c0.00298,-1.31435 0.20914,-2.49133 0.54099,-3.33076c0.33103,-0.83935 0.7877,-1.34132 1.28994,-1.30602z" fill="#000000" stroke-width="0.0278"/><path d="M208.06879,111.86297c0.28136,0.6149 0.45905,1.45869 0.46648,2.38694c0.0083,0.92695 -0.1547,1.76284 -0.42558,2.36501c-0.26968,0.60209 -0.64705,0.97072 -1.06681,0.96094c-0.41958,-0.00978 -0.8036,-0.39608 -1.08388,-1.01108c-0.28136,-0.6149 -0.45905,-1.45869 -0.46648,-2.38694c-0.0083,-0.92695 0.1547,-1.76284 0.42558,-2.36501c0.26969,-0.60196 0.64705,-0.97065 1.06681,-0.96087c0.41958,0.00991 0.80359,0.39595 1.08388,1.01095z" fill="#ffffff" stroke-width="0.01811"/></g><g stroke="none" stroke-linecap="butt"><path d="M233.47546,120.57454c-1.58921,0.03633 -2.9399,-2.65958 -3.01676,-6.02152c-0.07686,-3.36194 1.14922,-6.11676 2.73842,-6.1531c1.58921,-0.03633 2.9399,2.65958 3.01676,6.02152c0.07686,3.36194 -1.14922,6.11676 -2.73842,6.1531z" fill="#7c5cbb" stroke-width="0"/><path d="M233.24633,109.24399c0.5017,0.03625 0.95609,0.60177 1.28437,1.48772c0.32728,0.88612 0.52912,2.09178 0.52628,3.407c-0.00204,1.31426 -0.20832,2.49119 -0.54017,3.33061c-0.33096,0.83921 -0.78771,1.34119 -1.28995,1.3059c-0.50225,-0.03522 -0.95596,-0.60178 -1.28425,-1.48773c-0.32746,-0.88612 -0.52938,-2.09177 -0.52742,-3.40679c0.00298,-1.31435 0.20914,-2.49133 0.54099,-3.33076c0.33103,-0.83935 0.7877,-1.34132 1.28994,-1.30602z" fill="#000000" stroke-width="0.0278"/><path d="M234.19782,110.73393c0.28136,0.6149 0.45905,1.45869 0.46648,2.38694c0.0083,0.92695 -0.1547,1.76284 -0.42558,2.36501c-0.26968,0.60209 -0.64705,0.97072 -1.06681,0.96094c-0.41958,-0.00978 -0.8036,-0.39608 -1.08388,-1.01108c-0.28136,-0.6149 -0.45905,-1.45869 -0.46648,-2.38694c-0.0083,-0.92695 0.1547,-1.76284 0.42558,-2.36501c0.26969,-0.60196 0.64705,-0.97065 1.06681,-0.96087c0.41958,0.00991 0.80359,0.39595 1.08388,1.01095z" fill="#ffffff" stroke-width="0.01811"/></g><path d="M206.08065,124.09238l-2.58065,-3.54839c0,0 1.673,-0.77841 2.80226,-1.1053c1.12925,-0.32689 4.11109,-0.57085 4.11109,-0.57085c0,0 1.03901,2.57019 0.39435,3.53719c-0.50215,0.75323 -4.72705,1.68735 -4.72705,1.68735z" fill="#ffbe7e" stroke="#000000" stroke-width="0" stroke-linecap="butt"/><path d="M201.98572,109.64287l6.11428,-2.94285c0,0 5.61326,4.77898 5.88683,6.22146c0.40607,2.14106 -3.82969,5.94996 -3.82969,5.94996c0,0 -2.26888,-2.37461 -3.38501,-3.98184c-1.11614,-1.60723 -3.07214,-3.96102 -3.07214,-3.96102z" fill="#ff3300" stroke="none" stroke-width="0" stroke-linecap="butt"/><path d="M202.04095,187.90487l-4.81604,-2.43329c0,0 -1.08421,-6.45224 -0.30463,-9.77628c0.77958,-3.32403 3.65857,-9.25519 3.65857,-9.25519l7.0143,1.54636l6.85821,-3.69876c0,0 6.3477,-0.84959 8.13292,0.04321c1.78523,0.89278 1.11845,3.71776 3.03468,5.54172c0.6128,0.58328 -4.44363,-0.55158 -4.44363,-0.55158c0,0 5.82608,0.7056 7.93741,3.14877c2.11134,2.44317 3.07828,6.56771 2.76775,9.23891c-0.57171,4.91789 -4.63975,7.97968 -4.63975,7.97968c0,0 -0.80581,9.61724 -2.30631,12.08333c-1.50051,2.46611 -5.3915,3.21104 -5.3915,3.21104l-6.87787,-1.85098c0,0 -3.14751,-2.95411 -5.39797,-6.17958c-2.25044,-3.22547 -5.22609,-9.0474 -5.22609,-9.0474z" data-paper-data="{&quot;index&quot;:null}" fill="#dcdcd5" stroke="none" stroke-width="0" stroke-linecap="butt"/><path d="M225.19204,170.44584c0,0 -2.94424,-0.42286 -4.47573,-0.78467c-1.27041,-0.30011 -4.66806,-1.6482 -4.66806,-1.6482" data-paper-data="{&quot;index&quot;:null}" fill="none" stroke="#c1b9a5" stroke-width="1" stroke-linecap="round"/><path d="M223.94991,185.77204c-2.79088,-2.03002 -3.7368,-5.48566 -2.11278,-7.71834c1.62404,-2.23269 5.20299,-2.39698 7.99388,-0.36697c2.79088,2.03003 3.78768,9.37608 3.78768,9.37608c0,0 -6.8779,0.73925 -9.66879,-1.29076z" data-paper-data="{&quot;index&quot;:null}" fill="#dcdcd5" stroke="#c1b9a5" stroke-width="1" stroke-linecap="butt"/><path d="M216.21031,199.93407c-1.19589,-3.23726 -0.06588,-6.63717 2.52393,-7.59386c2.58981,-0.9567 5.65872,0.89204 6.85459,4.12931c1.19589,3.23727 -2.05001,9.90227 -2.05001,9.90227c0,0 -6.13264,-3.20046 -7.32851,-6.43773z" data-paper-data="{&quot;index&quot;:null}" fill="#dcdcd5" stroke="#c1b9a5" stroke-width="1" stroke-linecap="butt"/><path d="M230.64286,110.26582l-0.57143,-4.28571h4.85714l0.14286,2.28571z" fill="#ff3300" stroke="none" stroke-width="0" stroke-linecap="butt"/></g></g></svg>