<svg version="1.1" xmlns="http://www.w3.org/2000/svg" xmlns:xlink="http://www.w3.org/1999/xlink" width="411.89451" height="54.10654" viewBox="0,0,411.89451,54.10654"><g transform="translate(-35.75097,-106.46363)"><g data-paper-data="{&quot;isPaintingLayer&quot;:true}" fill-rule="nonzero" stroke-linecap="butt" stroke-linejoin="miter" stroke-dasharray="" stroke-dashoffset="0" style="mix-blend-mode: normal"><g fill="none" stroke="#ff0000" stroke-width="7.5" stroke-miterlimit="10"><path d="M39.50097,121.00001c0,-5.2467 4.52165,-9.5 10.09938,-9.5c5.57773,0 13.8399,9.5 13.8399,9.5c0,0 -8.26216,9.5 -13.8399,9.5c-5.57773,0 -10.09938,-4.2533 -10.09938,-9.5z"/><path d="M75.78394,130.5c-5.57773,0 -13.8399,-9.5 -13.8399,-9.5c0,0 8.26216,-9.5 13.8399,-9.5c5.57773,0 10.09938,4.2533 10.09938,9.5c0,5.2467 -4.52165,9.5 -10.09938,9.5z" data-paper-data="{&quot;index&quot;:null}"/></g><g fill="#ff0000" stroke="none" stroke-width="0.26459" stroke-miterlimit="4"><path d="M97.2676,135.0822v-28.61856h21.13493v8.17673h-12.07709v2.04417h12.07709v8.17673h-12.07709v2.0442h12.07709v8.17673z"/><path d="M121.42181,135.0822v-28.61856h10.26553l6.6424,12.77615v-12.77615h9.05782v28.61856h-10.26553l-6.6424,-12.36732v12.36732z"/><path d="M162.48394,126.90545c1.40899,0 2.51606,-0.45425 3.32119,-1.36279c0.80513,-0.90854 1.20771,-2.27132 1.20771,-4.08836v-1.70351c0,-1.81704 -0.40258,-3.23663 -1.20771,-4.2587c-0.80513,-1.0221 -1.91221,-1.53315 -3.32119,-1.53315h-3.01927v12.94651zM150.40685,106.46363h12.07709c4.22698,0 7.54819,1.30599 9.96361,3.91801c2.41542,2.61201 3.62313,6.18933 3.62313,10.73194c0,3.86124 -1.20771,7.15466 -3.62313,9.88024c-2.41542,2.72558 -5.73663,4.08837 -9.96361,4.08837h-12.07709z"/><path d="M179.08996,135.0822v-28.61856h9.05782v20.44183h12.07709v8.17673z"/><path d="M203.24416,135.0822v-28.61856h21.13492v8.17673h-12.07709v2.04417h12.07709v8.17673h-12.07709v2.0442h12.07709v8.17673z"/><path d="M229.81377,135.0822c-1.00643,-0.22713 -1.81157,-0.45425 -2.41542,-0.68141l1.20771,-6.81394l3.62313,0.34069c2.81799,0.22713 5.03213,0.22713 6.64242,0c0.80513,-0.45425 1.20771,-1.13563 1.20771,-2.04417c-0.20128,-0.90854 -2.01286,-1.36279 -5.43471,-1.36279c-3.01927,-0.45428 -5.13275,-1.70351 -6.34047,-3.74768c-0.60385,-1.58991 -0.90579,-3.40699 -0.90579,-5.45115c0,-3.17983 1.00643,-5.56472 3.01928,-7.15463c1.40899,-1.13566 3.92506,-1.70348 7.54819,-1.70348c3.62313,0 7.24626,0.34069 10.86939,1.02207l-1.20771,6.47325c-4.22698,-0.22713 -7.1456,-0.34069 -8.75589,-0.34069c-1.40899,0.22713 -2.1135,0.79494 -2.1135,1.70348c-0.20128,1.58991 0.90579,2.38489 3.3212,2.38489c3.42185,0 5.93789,0.68137 7.54818,2.04417c1.20771,1.13566 1.81157,3.0663 1.81157,5.79187c0,2.36214 -0.5032,4.40634 -1.50963,6.13253c-1.00643,2.0442 -3.52249,3.29342 -7.54819,3.74767c-3.42185,0.22713 -6.94434,0.1134 -10.56747,-0.34068z"/><path d="M254.87375,135.0822c-1.00643,-0.22713 -1.81157,-0.45425 -2.41542,-0.68141l1.20771,-6.81394l3.62313,0.34069c2.81799,0.22713 5.03213,0.22713 6.6424,0c0.80515,-0.45425 1.20771,-1.13563 1.20771,-2.04417c-0.20128,-0.90854 -2.01284,-1.36279 -5.4347,-1.36279c-3.01927,-0.45428 -5.13277,-1.70351 -6.34048,-3.74768c-0.60385,-1.58991 -0.90577,-3.40699 -0.90577,-5.45115c0,-3.17983 1.00643,-5.56472 3.01927,-7.15463c1.40899,-1.13566 3.92505,-1.70348 7.54818,-1.70348c3.62313,0 7.24626,0.34069 10.86939,1.02207l-1.20771,6.47325c-4.22697,-0.22713 -7.14562,-0.34069 -8.75589,-0.34069c-1.40899,0.22713 -2.1135,0.79494 -2.1135,1.70348c-0.20128,1.58991 0.90579,2.38489 3.32121,2.38489c3.42185,0 5.9379,0.68137 7.54817,2.04417c1.20771,1.13566 1.81158,3.0663 1.81158,5.79187c0,2.36214 -0.5032,4.40634 -1.50963,6.13253c-1.00643,2.0442 -3.52252,3.29342 -7.54821,3.74767c-3.42185,0.22713 -6.94432,0.1134 -10.56745,-0.34068z"/></g><g fill="#71ff33" stroke="none" stroke-width="0.26459" stroke-miterlimit="4"><path d="M101.31842,133.90925v-24.20255h20.16881v6.91502h-11.52503v1.72874h11.52503v6.91502h-11.52503v1.72877h11.52503v6.91502z"/><path d="M124.36848,133.90925v-24.20255h9.79627l6.33876,10.80471v-10.80471h8.64377v24.20255h-9.79627l-6.33876,-10.45897v10.45897z"/><path d="M163.55358,126.99423c1.34458,0 2.40104,-0.38416 3.16937,-1.1525c0.76833,-0.76834 1.1525,-1.92085 1.1525,-3.45751v-1.44065c0,-1.53666 -0.38417,-2.7372 -1.1525,-3.60155c-0.76833,-0.86438 -1.82479,-1.29658 -3.16937,-1.29658h-2.88126v10.94879zM152.02855,109.70669h11.52503c4.03376,0 7.20315,1.10447 9.50815,3.31343c2.30501,2.20897 3.45751,5.23428 3.45751,9.07595c0,3.26543 -1.1525,6.05066 -3.45751,8.35566c-2.30501,2.30501 -5.47439,3.45751 -9.50815,3.45751h-11.52503z"/><path d="M179.4005,133.90925v-24.20255h8.64377v17.28754h11.52503v6.91502z"/><path d="M202.45056,133.90925v-24.20255h20.16879v6.91502h-11.52503v1.72874h11.52503v6.91502h-11.52503v1.72877h11.52503v6.91502z"/><path d="M227.80562,133.90925c-0.96042,-0.19208 -1.72875,-0.38416 -2.30501,-0.57627l1.1525,-5.76251l3.45751,0.28812c2.68918,0.19208 4.8021,0.19208 6.33878,0c0.76833,-0.38416 1.1525,-0.9604 1.1525,-1.72874c-0.19208,-0.76834 -1.92085,-1.1525 -5.18628,-1.1525c-2.88126,-0.38419 -4.89813,-1.44065 -6.05063,-3.16939c-0.57625,-1.34458 -0.86438,-2.88127 -0.86438,-4.61001c0,-2.68916 0.96042,-4.70605 2.88126,-6.05063c1.34458,-0.96042 3.74564,-1.44062 7.20315,-1.44062c3.45751,0 6.91502,0.28812 10.37252,0.86436l-1.1525,5.47439c-4.03376,-0.19208 -6.81896,-0.28812 -8.35564,-0.28812c-1.34458,0.19208 -2.01689,0.67228 -2.01689,1.44062c-0.19208,1.34458 0.86438,2.01689 3.16939,2.01689c3.26543,0 5.66646,0.57624 7.20313,1.72874c1.1525,0.96042 1.72875,2.59315 1.72875,4.89816c0,1.99765 -0.4802,3.72642 -1.44062,5.18625c-0.96042,1.72877 -3.36147,2.78523 -7.20315,3.16939c-3.26543,0.19208 -6.6269,0.0959 -10.0844,-0.28812z"/><path d="M251.72005,133.90925c-0.96042,-0.19208 -1.72875,-0.38416 -2.30501,-0.57627l1.1525,-5.76251l3.45751,0.28812c2.68918,0.19208 4.8021,0.19208 6.33876,0c0.76834,-0.38416 1.1525,-0.9604 1.1525,-1.72874c-0.19208,-0.76834 -1.92082,-1.1525 -5.18626,-1.1525c-2.88126,-0.38419 -4.89814,-1.44065 -6.05065,-3.16939c-0.57625,-1.34458 -0.86437,-2.88127 -0.86437,-4.61001c0,-2.68916 0.96042,-4.70605 2.88126,-6.05063c1.34458,-0.96042 3.74563,-1.44062 7.20313,-1.44062c3.45751,0 6.91502,0.28812 10.37252,0.86436l-1.1525,5.47439c-4.03374,-0.19208 -6.81898,-0.28812 -8.35564,-0.28812c-1.34458,0.19208 -2.01689,0.67228 -2.01689,1.44062c-0.19208,1.34458 0.86438,2.01689 3.16939,2.01689c3.26543,0 5.66647,0.57624 7.20313,1.72874c1.1525,0.96042 1.72877,2.59315 1.72877,4.89816c0,1.99765 -0.4802,3.72642 -1.44062,5.18625c-0.96042,1.72877 -3.3615,2.78523 -7.20316,3.16939c-3.26543,0.19208 -6.62688,0.0959 -10.08439,-0.28812z"/></g><g fill="none" stroke="#71ff33" stroke-width="5" stroke-miterlimit="10"><path d="M42.13332,122.00001c0,-4.69442 4.04569,-8.5 9.03629,-8.5c4.9906,0 12.38306,8.5 12.38306,8.5c0,0 -7.39246,8.5 -12.38306,8.5c-4.9906,0 -9.03629,-3.80558 -9.03629,-8.5z"/><path d="M74.59703,130.50001c-4.99061,0 -12.38306,-8.5 -12.38306,-8.5c0,0 7.39246,-8.5 12.38306,-8.5c4.99061,0 9.03629,3.80558 9.03629,8.5c0,4.69442 -4.04568,8.5 -9.03629,8.5z" data-paper-data="{&quot;index&quot;:null}"/></g><g fill="#ffffff" stroke="none" stroke-width="0.26458" stroke-miterlimit="10"><path d="M45.57814,160.00442c-0.94289,-0.18857 -1.69721,-0.37715 -2.26293,-0.56572l1.13148,-5.65734l3.3944,0.28286c2.6401,0.18857 4.71445,0.18857 6.22308,0c0.75432,-0.37717 1.13147,-0.9429 1.13147,-1.69721c-0.18858,-0.75431 -1.88578,-1.13147 -5.0916,-1.13147c-2.82867,-0.37715 -4.80874,-1.41432 -5.94021,-3.11152c-0.56573,-1.32004 -0.84859,-2.82867 -0.84859,-4.52587c0,-2.6401 0.94289,-4.62017 2.82867,-5.94021c1.32005,-0.94289 3.67727,-1.41434 7.07167,-1.41434c3.39441,0 6.78881,0.28287 10.18322,0.84861l-1.13146,5.37447c-3.96014,-0.18857 -6.69453,-0.28287 -8.20315,-0.28287c-1.32005,0.18857 -1.98007,0.66003 -1.98007,1.41434c-0.18858,1.32004 0.84861,1.98007 3.11154,1.98007c3.20583,0 5.56305,0.56573 7.07167,1.6972c1.13146,0.94289 1.69721,2.54581 1.69721,4.80874c0,1.96122 -0.47145,3.65843 -1.41434,5.09163c-0.94289,1.69719 -3.30012,2.73437 -7.07167,3.11154c-3.20583,0.18857 -6.50594,0.09429 -9.90036,-0.28288z"/><path d="M66.79317,160.00442v-23.76084h19.80071v6.78881h-11.31469v1.6972h11.3147v6.78882h-11.31469v1.69718h11.3147v6.78881z"/><path d="M89.42254,160.00442v-23.76084h8.48601v16.97202h11.31468v6.78881z"/><path d="M112.05191,160.00442v-23.76084h19.80069v6.78881h-11.31468v1.6972h11.31468v6.78882h-11.31468v1.69718h11.31468v6.78881z"/><path d="M134.68129,148.40688c0,-3.77157 1.13147,-6.74167 3.39441,-8.91031c2.26293,-2.16864 5.37448,-3.25298 9.33462,-3.25298c3.3944,0 5.75163,0.09429 7.07167,0.28287l-2.54581,7.92028l-0.56573,-0.56573c-1.13147,-0.75431 -2.5458,-0.84861 -4.24301,-0.28287c-1.88578,1.13146 -3.30012,2.35724 -4.24301,3.67728c-0.94289,1.13146 -1.13147,2.5458 -0.56573,4.24301l0.56573,0.56572c0.94289,1.32004 2.54581,1.69721 4.80874,1.13148c1.88578,-1.13146 3.30011,-2.35722 4.243,-3.67727l3.39441,9.90035c-1.32004,0.75431 -3.96014,1.13146 -7.92028,1.13146c-3.96014,0 -7.07167,-1.22575 -9.33462,-3.67727c-2.26293,-2.45153 -3.39441,-5.2802 -3.39441,-8.48602z"/><path d="M164.94807,160.00442v-16.40628h-6.78881v-7.35454h21.4979v7.35454h-6.78881v16.40628z"/><path d="M203.75744,149.2555l-6.78881,-13.0119h7.92029l2.82867,8.20315l2.82867,-8.20315h7.92028l-6.7888,13.0119v10.74893h-7.92029z"/><path d="M221.29522,148.40688c0,-3.77157 1.13147,-6.74167 3.3944,-8.91031c2.26293,-2.16864 5.37447,-3.25298 9.33461,-3.25298c3.96015,0 7.0717,1.08433 9.33463,3.25298c2.26293,2.16864 3.3944,5.13876 3.3944,8.91031c0,3.20583 -1.13146,6.0345 -3.3944,8.48602c-2.26293,2.45151 -5.37448,3.67727 -9.33463,3.67727c-3.96013,0 -7.07166,-1.22575 -9.33461,-3.67727c-2.26293,-2.45153 -3.3944,-5.2802 -3.3944,-8.48602zM233.74136,143.59814c-1.88578,1.13146 -3.30011,2.35724 -4.243,3.67728c-0.94289,1.13146 -1.13148,2.5458 -0.56574,4.24301l0.56574,0.56572c0.94289,1.32004 2.54581,1.69721 4.80874,1.13148c1.88576,-1.13146 3.30009,-2.35722 4.24299,-3.67727c1.13147,-1.50863 1.13147,-3.20583 0,-5.09162l-0.56572,-0.56573c-1.13147,-0.75431 -2.54581,-0.8486 -4.24301,-0.28286z"/><path d="M249.58192,150.10407v-13.86048h7.92028v13.86048c0,2.26293 0.94289,3.3944 2.82869,3.3944h0.56572c1.69719,0 2.54581,-1.13146 2.54581,-3.3944v-13.86048h7.35456v13.86048c0,6.78883 -3.39441,10.18324 -10.18322,10.18324c-7.35455,0 -11.03182,-3.39441 -11.03182,-10.18324z"/><path d="M273.62564,160.00442v-23.76084h13.86047c5.65734,0 8.48603,2.07437 8.48603,6.22308v1.13146c0,3.01725 -1.22577,4.99732 -3.6773,5.94021c0.75431,0.37715 1.50862,1.22575 2.26293,2.54579l2.26293,7.92028h-8.486l-1.69722,-6.50595c-0.37715,-1.69719 -1.41433,-2.54579 -3.11154,-2.54579h-1.69718v9.05175zM285.22318,145.86108c1.50862,0 2.26293,-0.75432 2.26293,-2.26294v-1.13146c0,-1.13147 -0.75431,-1.6972 -2.26293,-1.6972h-3.39441v5.0916z"/><path d="M314.13221,148.40688c0,-3.77157 1.13147,-6.74167 3.39441,-8.91031c2.26294,-2.16864 5.37447,-3.25298 9.3346,-3.25298c3.96013,0 7.07166,1.08433 9.33461,3.25298c2.26294,2.16864 3.3944,5.13876 3.3944,8.91031c0,3.20583 -1.13146,6.0345 -3.3944,8.48602c-2.26294,2.45151 -5.37447,3.67727 -9.33461,3.67727c-3.96013,0 -7.07168,-1.22575 -9.3346,-3.67727c-2.26294,-2.45153 -3.39441,-5.2802 -3.39441,-8.48602zM326.57835,143.59814c-1.88579,1.13146 -3.30013,2.35724 -4.24301,3.67728c-0.94289,1.13146 -1.13146,2.5458 -0.56574,4.24301l0.56574,0.56572c0.94289,1.32004 2.54581,1.69721 4.80873,1.13148c1.88579,-1.13146 3.30012,-2.35722 4.243,-3.67727c1.13148,-1.50863 1.13148,-3.20583 0,-5.09162l-0.56574,-0.56573c-1.13146,-0.75431 -2.54579,-0.8486 -4.24298,-0.28286z"/><path d="M342.41891,150.10407v-13.86048h7.92028v13.86048c0,2.26293 0.9429,3.3944 2.82868,3.3944h0.56575c1.6972,0 2.54579,-1.13146 2.54579,-3.3944v-13.86048h7.35453v13.86048c0,6.78883 -3.3944,10.18324 -10.18321,10.18324c-7.35455,0 -11.03183,-3.39441 -11.03183,-10.18324z"/><path d="M373.25144,160.00442v-16.40628h-6.78881v-7.35454h21.49791v7.35454h-6.78881v16.40628z"/><path d="M390.78918,160.00442v-23.76084h19.8007v6.78881h-11.31468v1.6972h11.31468v6.78882h-11.31468v8.48599z"/><path d="M413.41857,160.00442v-23.76084h9.90035v23.76084z"/><path d="M432.93639,160.00442v-16.40628h-6.78881v-7.35454h21.4979v7.35454h-6.78881v16.40628z"/></g></g></g></svg>