<svg version="1.1" xmlns="http://www.w3.org/2000/svg" xmlns:xlink="http://www.w3.org/1999/xlink" width="24.13422" height="32.47883" viewBox="0,0,24.13422,32.47883"><g transform="translate(-226.73339,-165.62497)"><g data-paper-data="{&quot;isPaintingLayer&quot;:true}" fill-rule="nonzero" stroke-linejoin="miter" stroke-miterlimit="10" stroke-dasharray="" stroke-dashoffset="0" style="mix-blend-mode: normal"><path d="M248.27347,197.0678c-0.36574,1.32782 -2.79687,-1.35168 -3.45184,-2.22793c-0.88291,-0.91692 -1.71815,-3.1808 -1.71815,-3.1808c0,0 -0.67017,-1.52659 0.33676,-1.13495c0.46872,0.18231 0.93665,0.32889 1.37175,0.52525c0.49958,0.22547 0.95587,0.51662 1.32035,1.00296c0,0 2.6418,3.1978 2.14113,5.01545z" data-paper-data="{&quot;index&quot;:null}" fill="#54c81c" stroke="none" stroke-width="0" stroke-linecap="butt"/><path d="M236.48735,192.84437c0.24268,-0.51498 0.60269,-0.86932 1.01336,-1.17199c0.35767,-0.2636 0.75378,-0.48803 1.14426,-0.74528c0.83885,-0.55265 0.50455,0.97221 0.50455,0.97221c0,0 -0.35272,2.23064 -0.98678,3.23938c-0.43567,0.92751 -2.15423,3.84658 -2.71905,2.70369c-0.77318,-1.56449 1.04366,-4.99801 1.04366,-4.99801z" data-paper-data="{&quot;index&quot;:null}" fill="#54c81c" stroke="none" stroke-width="0" stroke-linecap="butt"/><path d="M240.74527,189.29442c0,0 -1.73232,2.94057 -2.29123,4.0754c-0.37809,0.76769 -0.93318,2.01973 -0.93318,2.01973c-0.2071,0.29463 -1.25508,0.94036 -1.24943,0.13196c0.00443,-0.6355 1.04532,-2.74234 1.04532,-2.74234c0,0 1.71791,-2.72257 1.93476,-3.3332c0.74334,-1.90468 -0.82314,-5.74944 -0.82314,-5.74944l1.46933,-0.30568l0.84759,5.90355z" data-paper-data="{&quot;index&quot;:null}" fill="#ffffff" stroke="none" stroke-width="0" stroke-linecap="butt"/><path d="M241.18495,189.2155l-1.17871,-6.29926l1.25826,0.03077c0,0 0.00777,3.68394 0.91631,5.51556c0.2699,0.58911 2.3661,3.40125 2.3661,3.40125c0,0 1.61207,2.04019 1.67256,2.67283c0.07696,0.80474 -0.67343,0.59511 -1.14211,0.21699c-0.46868,-0.37811 -1.09919,-1.65947 -1.61994,-2.42328c-0.63349,-0.92918 -2.27246,-3.11486 -2.27246,-3.11486z" data-paper-data="{&quot;index&quot;:null}" fill="#ffffff" stroke="none" stroke-width="0" stroke-linecap="butt"/><g data-paper-data="{&quot;index&quot;:null}" stroke="none" stroke-width="0.17188" stroke-linecap="butt"><path d="M246.42698,176.45624c0.37514,0.04313 0.5358,0.61536 0.52615,1.00476c-0.01146,0.50312 -0.11221,1.23744 -0.58041,1.39417c-0.71266,0.23823 -1.45061,-0.35698 -2.2193,-0.41076c-1.21624,-0.08536 -4.38706,-0.34395 -4.61807,-0.64207c-0.23106,-0.29798 2.65891,-0.66537 3.55608,-0.96703c1.10563,-0.3475 2.20091,-0.50933 3.33557,-0.37905z" fill="#319a2b"/><path d="M247.86583,178.19617c0.00823,-0.00603 0.78571,-0.87348 0.83593,-1.09559c0.0847,-0.37372 -0.51383,-0.23021 -0.26715,-0.63373c0.18296,-0.29927 0.5472,-0.28591 0.74041,-0.42933c0.22021,-0.16377 0.68651,0.03377 0.88533,0.26038c0.11044,0.12591 0.00873,0.33694 0.04596,0.31862c0.25167,-0.1241 0.60356,0.01633 0.65317,0.27299l0.10813,0.5585c-0.03795,0.5782 -0.21238,1.22552 -0.214,1.58586c0.03214,0.8328 -0.85211,1.06865 -0.69822,1.03747c-0.77109,0.00462 -1.74718,-0.46712 -2.26953,-1.14882c-0.10163,-0.14205 -0.18685,-0.46403 0.17995,-0.72633z" fill="#f0e9bb"/><path d="M246.57891,177.3715c0.1007,-0.2535 -0.44101,-0.87919 -0.30336,-0.66763c0.02757,0.04235 -0.20313,-0.17709 -0.03837,-0.28187c0.10837,-0.06874 0.57933,-0.01966 0.73207,-0.05493c0.35276,-0.08155 0.81477,0.06727 1.16517,0.09033c0.32979,0.0218 0.60228,0.37984 0.68951,0.51376c0.1263,0.19348 -0.21635,0.51978 -0.52602,0.84987c-0.37665,0.40144 -0.56122,0.8006 -0.57034,0.82883c0,0 -0.12594,0.52967 0.00589,0.61916c-0.43067,-0.28169 -1.43745,0.16574 -1.84539,-0.15954c-0.20574,-0.18471 0.59136,-1.48774 0.69084,-1.73797z" fill="#ead42f"/></g><g stroke="none" stroke-width="0" stroke-linecap="butt"><path d="M238.3938,184.63416c0,0 -2.01524,1.35056 -3.76732,2.02681c-0.96576,0.37275 -2.28688,0.61759 -2.99319,0.87858c-1.19344,0.44098 -1.31329,0.99216 -1.31329,0.99216c0,0 0.23769,-1.44704 0.46773,-2.05437c0.23004,-0.60735 0.46652,-1.18132 0.67566,-1.09421c0.20913,0.08711 6.93042,-0.749 6.93042,-0.749z" fill="#54c81c"/><path d="M231.07114,185.73809c0,0 0.95966,-2.93182 4.84343,-4.22466c3.03551,-1.01047 3.2551,0.35942 3.83187,0.09167c1.67701,-0.77849 2.18789,1.597 -2.71367,3.71131c-3.528,1.52181 -5.96163,0.42167 -5.96163,0.42167z" fill="#ffffff"/></g><g stroke="none" stroke-width="0" stroke-linecap="butt"><path d="M235.50992,194.272c0,0 -1.87366,-1.71975 -1.85969,-3.65483c0.01056,-1.46287 0.67873,-3.51318 0.67873,-3.51318l4.77032,1.75263c0,0 -2.04839,2.07745 -2.6712,3.0827c-0.62281,1.00527 -0.91816,2.33265 -0.91816,2.33265z" fill="#54c81c"/><path d="M234.94001,190.84381c-1.30437,-0.76944 -0.9684,-3.01526 -0.61107,-3.73981c0.35462,-0.7191 0.49851,-2.0054 2.91929,-3.48185c1.65104,-1.00698 1.82499,-2.28529 1.82499,-2.28529l0.85742,0.09496c0,0 1.45445,3.27028 0.59541,5.40546c-0.80364,1.9975 -4.33216,4.74617 -5.58603,4.00652z" fill="#ffffff"/></g><g stroke="none" stroke-width="0" stroke-linecap="butt"><path d="M250.54901,186.67639c0,0 -1.4458,-0.54555 -2.40784,-0.71738c-0.96204,-0.17183 -4.65156,-0.15693 -4.65156,-0.15693c0,0 4.07574,-0.3572 4.48053,-1.29331c0.40485,-0.93623 -2.52278,-3.25786 -1.74131,-3.04611c4.12737,1.11835 4.32016,5.21373 4.32016,5.21373z" fill="#54c81c"/><path d="M238.47094,181.31142c0,0 1.65551,-0.44474 3.96008,-0.53273c2.79245,-0.1066 5.65762,1.42784 6.28385,2.73803c0.62624,1.31019 -3.46688,2.46908 -5.28199,2.16403c-1.96608,-0.33041 -5.11725,-4.19946 -5.11725,-4.19946z" fill="#ffffff"/></g><g data-paper-data="{&quot;index&quot;:null}" stroke="none" stroke-width="0" stroke-linecap="butt"><path d="M241.23915,188.04463c0,0 2.64987,1.44238 3.29695,0.73071c0.65666,-0.72221 0.16563,-4.12501 0.16563,-4.12501c0,0 1.02844,0.64725 1.43085,3.24421c0.23409,1.49938 -0.10808,5.11417 -0.10808,5.11417c0,0 -1.68434,-1.66294 -2.95413,-2.48071c-1.0549,-0.67939 -1.83122,-2.48335 -1.83122,-2.48335z" fill="#54c81c"/><path d="M244.79358,184.63617c0.0928,0.134 0.88022,2.91267 -0.04586,4.27095c-0.84548,1.17977 -3.48801,-0.83537 -3.48801,-0.83537c0,0 -0.95005,-1.34424 -1.55969,-2.50231c-0.73243,-1.39133 -0.23306,-3.14925 0.30481,-3.8695c0.53787,-0.72027 0.27437,0.34865 2.01954,0.72935c1.31489,0.28685 2.68028,2.07847 2.76922,2.2069z" fill="#ffffff"/></g><path d="M238.60043,181.63925c-0.26708,-0.38154 -0.30118,-1.68325 -0.30434,-2.50401c-0.00931,-0.71765 0.05758,-1.42384 0.31392,-1.69625c0.07907,-0.08398 1.96148,0.84776 1.90818,1.02011c-0.05605,0.18218 0.07743,0.60421 0.05451,0.76215c-0.07242,0.49876 -0.1659,0.61373 -0.18319,0.92755c-0.02199,0.39718 0.54709,0.10354 0.33065,0.34636c0,0 -1.79854,1.48706 -2.11973,1.14409z" fill="#319a2b" stroke="none" stroke-width="0.17188" stroke-linecap="butt"/><g stroke="none" stroke-linecap="butt"><path d="M239.34354,177.68972c0.12366,-0.13587 0.34098,-0.07876 0.59215,0.12311c0.25117,0.20188 0.53641,0.54862 0.79568,0.99217c0.25926,0.44345 0.44391,0.90048 0.533,1.2806c0.08899,0.38013 0.08228,0.68325 -0.04137,0.81912c-0.12356,0.13576 -0.34089,0.07866 -0.59217,-0.12321c-0.25117,-0.20188 -0.5363,-0.54864 -0.79557,-0.99219c-0.25926,-0.44345 -0.44403,-0.90047 -0.533,-1.2806c-0.08909,-0.38012 -0.08227,-0.68326 0.04129,-0.81901z" fill="#eb3d66" stroke-width="0.01872"/><path d="M239.73402,177.95908c0.05807,-0.0598 0.16334,-0.03712 0.28649,0.04789c0.12325,0.08499 0.26435,0.23232 0.39408,0.42173c0.12983,0.1894 0.22377,0.3853 0.27081,0.5488c0.04704,0.16359 0.0472,0.29473 -0.01087,0.35453c-0.05795,0.05988 -0.16325,0.03713 -0.28649,-0.04787c-0.12325,-0.08499 -0.26435,-0.23232 -0.39407,-0.42163c-0.12973,-0.18941 -0.22378,-0.38542 -0.27081,-0.5489c-0.04704,-0.16359 -0.04718,-0.29463 0.01088,-0.35454z" fill="#ffffff" stroke-width="0.01896"/></g><path d="M240.88808,169.48429c0.28746,-0.0137 0.51457,0.21031 0.70924,0.39409c0.43366,0.45812 0.74111,1.02854 0.94401,1.62283c0.34617,0.98909 0.38464,2.11503 -0.04323,3.08525c-0.25852,0.42655 -0.20944,0.37592 -0.44444,0.80922c-0.26286,0.74245 -0.96205,1.38906 -1.56522,1.83547c-0.47017,0.38806 -0.99992,0.69627 -1.56414,0.92775c-0.37018,0.13652 -0.7402,0.34652 -1.14569,0.32743c-0.37742,-0.02382 -0.77099,-0.1538 -1.01364,-0.45919c-0.63066,-0.70966 -1.26893,-1.41463 -1.8332,-2.17862c-0.14365,-0.21757 -0.33372,-0.43081 -0.37683,-0.69576c0.02546,-0.26434 -0.87599,-1.8214 2.89534,-4.58585c2.14469,-1.5721 3.21273,-1.05611 3.4378,-1.08262z" fill="#f0e9bb" stroke="none" stroke-width="0.17188" stroke-linecap="butt"/><path d="M238.6418,166.57403c0.65923,-0.65839 1.27688,-0.94235 1.75963,-0.94904c0.06867,-0.00112 0.06927,0.05105 0.1622,0.06292c0.11249,0.01442 0.36218,-0.02193 0.31072,-0.02057c0,0 0.03185,0.17601 0.08304,0.23194c0.06514,0.07107 0.2289,0.0876 0.14176,0.12387c0,0 0.13323,0.07615 0.15395,0.12443c0.22654,0.52722 0.29627,1.37525 0.04007,2.03076c0.55013,0.19699 -2.83594,-0.92679 -2.65135,-1.60432z" fill="#ed3e67" stroke="none" stroke-width="0.17188" stroke-linecap="butt"/><path d="M234.60736,174.9498l1.31585,1.99782l1.34261,1.39939l1.03483,0.92652c0.12182,0.10879 -1.98851,0.12156 -2.53663,-0.02394c-0.67826,-0.17995 -1.26349,-0.49465 -1.84715,-0.81172c-0.42549,-0.23091 -0.54739,-0.36498 -0.79078,-0.58223l-0.75547,-0.67462c-0.14357,-0.12815 -0.79434,-0.8397 -0.74543,-1.08275c0.0139,-0.06896 0.83264,-0.08389 0.89225,-0.13106l0.43417,-0.34559c0.12891,-0.10241 0.31078,-0.6779 0.35523,-0.85577c0.03258,-0.12988 0.10321,-0.99638 -0.22937,-1.54031l-0.32903,-0.53803c-0.04925,-0.08058 -0.83145,-0.72639 -0.812,-0.76317c0.03987,-0.07597 -1.28528,-0.39145 -1.24638,-0.474c0.21602,-0.45987 0.4684,-1.03031 0.87633,-1.50517c0.64129,-0.74653 1.50051,-1.35469 1.93568,-1.67326c0.07422,-0.05432 1.03345,-0.72778 1.7352,-0.96023c1.11119,-0.36816 2.03754,-0.17461 2.09536,-0.16923c0.90783,0.0842 1.73819,0.35297 2.50143,0.78157l0.56038,0.42664c0.28687,0.21836 1.70258,1.5426 1.95939,2.19439l0.8775,2.22557c0.15376,0.3897 0.43666,2.54458 0.19638,2.58779c-0.33649,0.06084 -1.05843,-0.88815 -1.05346,-0.70907c0.01084,0.39677 0.49585,-1.96288 0.29607,-2.37119c-0.34165,-0.69803 -0.54557,-1.45404 -0.92073,-1.84431c-0.07091,-0.07363 -0.49622,-0.6224 -0.60638,-0.7497c-0.08696,-0.10073 -0.21661,-0.13846 -0.30251,-0.03079c-0.05722,0.07162 -0.29078,0.1117 -0.26974,0.36113l0.06279,0.73946c0.01005,0.11982 0.17597,2.30896 0.04477,2.23142c-0.02433,-0.01447 -0.19241,-0.62831 -0.20589,-0.66732c-0.0813,-0.23609 -0.18617,-0.38887 -0.19555,-0.27529c-0.0247,0.29869 0.06183,0.96971 0.06183,0.96971c0.00537,0.08673 -0.44578,0.36996 -0.80698,0.4859c-0.33604,0.10788 -0.91318,0.03862 -1.05741,0.02286l-1.56773,-0.17209c-1.47225,-0.16124 -1.15613,0.14363 -1.27698,0.08802c-0.00802,-0.09126 -0.67894,0.37876 -0.72579,0.63935c-0.01866,0.1038 -0.12463,0.35525 -0.17941,0.48455c-0.07299,0.17193 -0.12863,0.28307 -0.11718,0.38878z" fill="#54c81c" stroke="none" stroke-width="0.17188" stroke-linecap="butt"/><path d="M230.4277,176.12639c-0.60801,0.19863 -1.3921,0.08951 -1.87861,-0.14577c-0.04459,-0.02148 -0.1142,-0.1473 -0.1142,-0.1473c-0.03412,0.07766 -0.04827,-0.07299 -0.11364,-0.13619c-0.05134,-0.0497 -0.21413,-0.08823 -0.21413,-0.08823c-0.00152,0.04698 0.03359,-0.17905 0.02109,-0.28256c-0.01049,-0.08557 -0.05882,-0.08887 -0.05748,-0.15172c0.00931,-0.44025 0.27579,-0.9889 0.88878,-1.55564c0.80213,-0.74136 2.04388,-0.67829 2.27849,-0.36659c0,0 0.22794,2.53463 -0.8103,2.87399z" fill="#ed3e67" stroke="none" stroke-width="0.17188" stroke-linecap="butt"/><path d="M232.29203,173.33056c0.05634,-0.17247 0.59677,1.27646 0.41556,1.67184c-0.31172,0.67989 -0.09535,0.8449 -0.6474,1.0461c-0.12385,0.04535 -0.45745,0.01784 -0.83381,0.11534c-0.4359,0.11313 -0.87401,0.14407 -0.8067,0.00405l0.37072,-0.88792l0.16052,-1.83299c0.00249,-0.0285 -0.32545,-0.04643 -0.8038,-0.03206c-0.33544,0.01001 -0.80131,0.07295 -1.1308,0.16656c-0.19413,0.05522 -0.02417,-0.34578 0.31219,-0.79085c0.16303,-0.21579 0.32457,-0.46039 0.58127,-0.63183c0.44465,-0.29678 1.12436,-0.04279 1.61133,0.36677c0.4561,0.38351 0.73325,0.91962 0.77091,0.80499z" fill="#54c81c" stroke="none" stroke-width="0.17188" stroke-linecap="butt"/><path d="M232.88568,172.83818c0.7519,0.95461 0.43904,2.53548 0.11226,2.74701l-0.42039,0.45659l-1.00038,0.10732c-0.25617,0.0274 1.00761,-0.66224 1.0557,-1.17481c0.03149,-0.33442 0.04823,-0.58705 0.01453,-0.68472c-0.32261,-0.9304 -0.80972,-1.52317 -1.25858,-1.81048c-0.7053,-0.45147 -1.3245,-0.30035 -1.12908,-0.67431c0.46582,-0.89188 1.80415,-0.00982 2.62594,1.0334z" fill="#ead32e" stroke="none" stroke-width="0.17188" stroke-linecap="butt"/><path d="M238.87759,167.51088c0,0 -0.43483,-0.11082 -0.75563,-0.20722c-0.66921,-0.20109 -1.37108,-0.0967 -1.37045,-0.29471c0.04122,-0.11091 0.53079,-0.31129 0.7214,-0.29038l0.38709,0.04228c0.68072,0.07451 1.24823,0.50026 1.40958,0.72807c0.06981,0.09853 0.3043,0.1978 0.35034,0.33125c0,0 -0.51327,-0.1373 -0.74232,-0.30929z" fill="#ead32e" stroke="none" stroke-width="0.17188" stroke-linecap="butt"/><path d="M237.77961,166.67166c0,0 0.84099,-0.67458 1.17463,-0.55263c0.22167,0.08088 0.36861,0.56816 0.57837,0.59834c0.26045,0.03749 0.75936,0.23872 1.08106,0.42086c0.22177,0.22099 0.48912,0.39115 0.59095,0.74723c0.22657,0.21123 -0.04255,1.11575 -0.12477,1.05243l-1.11762,-0.86062c-0.28356,-0.21839 -0.8768,-0.64719 -1.01001,-0.72449z" fill="#54c81c" stroke="none" stroke-width="0.17188" stroke-linecap="butt"/><g fill="none" stroke="#000000" stroke-width="0.5" stroke-linecap="round"><path d="M238.87512,175.96667l-1.91667,-0.91667"/><path d="M238.37512,174.71667l-1,1.66667"/></g><g fill="none" stroke="#000000" stroke-width="0.5" stroke-linecap="round"><path d="M240.62512,172.63333l1.91666,0.91666"/><path d="M241.04178,173.96667l1,-1.66667"/></g><g data-paper-data="{&quot;index&quot;:null}" stroke="none" stroke-width="0.17188" stroke-linecap="butt"><path d="M235.19532,178.20656c0.98546,0.28268 3.52477,-0.11583 3.28929,0.21784c-0.02491,0.64961 -1.95016,1.18474 -3.262,1.3364c-0.82911,0.09568 -2.79352,0.8195 -3.57623,0.59648c-0.51425,-0.14677 -0.65904,-0.93642 -0.69598,-1.48024c-0.02942,-0.42087 0.11652,-1.04786 0.52033,-1.11283c1.22137,-0.19628 2.51132,0.12022 3.72458,0.44234z" fill="#319a2b"/><path d="M230.01788,179.63591c0.40967,0.26594 0.33315,0.61849 0.23012,0.77714c-0.53195,0.76308 -1.56512,1.3211 -2.39968,1.35368c0.16804,0.02625 -0.80025,-0.18586 -0.80607,-1.08853c-0.01933,-0.38982 -0.23962,-1.08172 -0.30886,-1.7055l0.08979,-0.60959c0.04116,-0.28013 0.41507,-0.44923 0.69343,-0.32722c0.04118,0.01802 -0.07918,-0.20539 0.0342,-0.34699c0.20408,-0.25489 0.699,-0.49138 0.94526,-0.3249c0.21607,0.14577 0.60952,0.11358 0.82206,0.42846c0.2866,0.42461 -0.36805,0.2985 -0.25818,0.69874c0.06518,0.23791 0.9487,1.13859 0.95791,1.1447z" fill="#f0e9bb"/><path d="M231.37013,178.68089c0.11983,0.2659 1.04583,1.63696 0.83221,1.84684c-0.42553,0.37185 -1.53669,-0.06321 -1.98897,0.2626c0.13827,-0.10326 -0.02381,-0.67024 -0.02381,-0.67024c-0.01124,-0.0301 -0.23042,-0.45301 -0.65752,-0.86902c-0.35116,-0.34207 -0.73782,-0.67843 -0.6106,-0.89394c0.08786,-0.14917 0.36524,-0.54985 0.72102,-0.58952c0.378,-0.04203 0.87067,-0.22556 1.25634,-0.15452c0.16699,0.03072 0.6742,-0.04534 0.7948,0.02376c0.18339,0.10535 -0.05554,0.35404 -0.02777,0.30687c0.13863,-0.23561 -0.41701,0.46779 -0.2957,0.73717z" fill="#ead42f"/></g><path d="M238.61665,181.54824c0,0 0.74364,-0.19237 1.22545,-0.43119c0.48181,-0.23881 0.52444,-0.64184 0.79741,-0.44297c0.14096,0.1027 -0.20864,0.65946 -0.70473,0.86698c-0.90156,0.37711 -1.49134,0.35059 -1.49134,0.35059z" data-paper-data="{&quot;index&quot;:null}" fill="#ead42f" stroke="none" stroke-width="0" stroke-linecap="butt"/></g></g></svg>