<svg version="1.1" xmlns="http://www.w3.org/2000/svg" xmlns:xlink="http://www.w3.org/1999/xlink" width="26.20773" height="26.05703" viewBox="0,0,26.20773,26.05703"><g transform="translate(-228.26761,-168.68761)"><g data-paper-data="{&quot;isPaintingLayer&quot;:true}" fill-rule="nonzero" stroke-linejoin="miter" stroke-miterlimit="10" stroke-dasharray="" stroke-dashoffset="0" style="mix-blend-mode: normal"><g data-paper-data="{&quot;index&quot;:null}"><g stroke="none" stroke-width="0" stroke-linecap="butt"><path d="M240.70725,179.95281c-1.06963,1.18334 -3.65,3.35164 -3.65,3.35164c0,0 0.38786,-1.82024 0.62899,-3.27475c0.24112,-1.45451 0.89621,-2.67514 0.89621,-2.67514c0,0 0.49742,-1.2649 1.20614,-1.37845c0.70873,-0.11356 3.36672,0.65657 3.36672,0.65657c0,0 -1.37843,2.1368 -2.44806,3.32014z" fill="#f8b820"/><path d="M241.31632,174.20261c1.02855,-0.66751 2.76432,-1.33167 2.76432,-1.33167c0,0 0.17358,1.23067 -0.02341,1.97717c-0.19699,0.74649 -0.98282,1.83601 -0.98282,1.83601l-4.07158,-0.09602c0,0 1.28496,-1.71796 2.31351,-2.38547z" fill="#ffffff"/></g><path d="M240.18294,176.26365l-0.20687,0.5606" fill="none" stroke="#808080" stroke-width="0.5" stroke-linecap="round"/><path d="M241.33595,176.39133l-0.15244,0.52456" fill="none" stroke="#808080" stroke-width="0.5" stroke-linecap="round"/><path d="M242.46032,176.52657l-0.3364,0.50136" fill="none" stroke="#808080" stroke-width="0.5" stroke-linecap="round"/></g><g data-paper-data="{&quot;index&quot;:null}"><g stroke="none" stroke-width="0" stroke-linecap="butt"><path d="M237.07988,183.30445c0,0 -2.72322,-2.16829 -3.79285,-3.35163c-1.06964,-1.18334 -2.30521,-3.32014 -2.30521,-3.32014c0,0 2.658,-0.77013 3.36672,-0.65657c0.70872,0.11356 1.42043,1.37845 1.42043,1.37845c0,0 0.6551,1.22064 0.89621,2.67514c0.24112,1.45451 0.4147,3.27476 0.4147,3.27476z" fill="#f8b820"/><path d="M232.82078,174.20261c1.02854,0.66751 2.31351,2.38548 2.31351,2.38548l-4.07158,0.09603c0,0 -0.78583,-1.08952 -0.98282,-1.83601c-0.19699,-0.74649 -0.02342,-1.97716 -0.02342,-1.97716c0,0 1.73578,0.66415 2.76432,1.33166z" fill="#ffffff"/></g><path d="M233.95419,176.26365l0.20686,0.5606" fill="none" stroke="#808080" stroke-width="0.5" stroke-linecap="round"/><path d="M232.80118,176.39132l0.15244,0.52457" fill="none" stroke="#808080" stroke-width="0.5" stroke-linecap="round"/><path d="M232.01321,177.02794l-0.33641,-0.50137" fill="none" stroke="#808080" stroke-width="0.5" stroke-linecap="round"/></g><g data-paper-data="{&quot;index&quot;:null}"><path d="M244.28689,187.37595c0,0 -0.59919,-1.01155 -1.0546,-1.59065c-0.54233,-0.68966 -1.98443,-2.27387 -1.98443,-2.27387l0.54255,-0.55191c0,0 1.68937,1.77468 2.35198,2.57797c0.56479,0.68469 1.60018,2.66651 1.60018,2.66651l-1.4557,-0.82805z" fill="#f8b820" stroke="none" stroke-width="0" stroke-linecap="butt"/><g data-paper-data="{&quot;index&quot;:null}"><path d="M247.12769,189.41066c1.21086,2.24269 -0.3405,4.58524 -0.84067,4.55652c-1.38172,-0.06274 -2.10116,-1.00555 -3.09595,-2.56508c-1.20492,-1.88892 0.05734,-4.33194 1.1502,-4.38414c0.3578,-0.01707 1.9099,0.76927 2.78642,2.3927z" fill="#a8c8d8" stroke="none" stroke-width="0" stroke-linecap="butt"/><path d="M243.75908,188.21496l1.02847,0.14379" fill="none" stroke="#808080" stroke-width="0.5" stroke-linecap="round"/><path d="M244.49281,189.8968l-0.81509,-0.07637" fill="none" stroke="#808080" stroke-width="0.5" stroke-linecap="round"/><path d="M243.84925,191.18862l0.79591,-0.02031" fill="none" stroke="#808080" stroke-width="0.5" stroke-linecap="round"/><path d="M244.42833,192.59506l0.58255,-0.08776" fill="none" stroke="#808080" stroke-width="0.5" stroke-linecap="round"/><path d="M245.20438,193.54419c0,0 -1.16196,-2.12395 -1.20509,-3.31586c-0.04313,-1.19192 0.46093,-3.01517 0.46093,-3.01517" fill="none" stroke="#020202" stroke-width="0.25" stroke-linecap="round"/></g></g><g data-paper-data="{&quot;index&quot;:null}"><g><path d="M232.17732,185.88587c0.57916,-0.38056 3.24684,-0.77128 3.96562,-0.08542c0.19608,0.18708 0.5232,2.50461 -0.04412,4.77141c-0.70515,2.81748 -2.09029,4.15391 -2.46235,3.90018c-1.46083,-0.81904 -2.1778,-5.02779 -2.22331,-5.83189c-0.04552,-0.80408 0.18498,-2.37372 0.76414,-2.75428z" fill="#c01515" stroke="none" stroke-width="0" stroke-linecap="butt"/><path d="M231.7085,190.35617c0,0 -0.08643,-0.32075 -0.1226,-0.52992c-0.03617,-0.20917 -0.1447,-1.01614 -0.1447,-1.01614c0,0 1.57076,-0.48433 2.60575,-0.49388c1.03497,-0.00956 2.30501,0.44854 2.30501,0.44854c0,0 -0.0547,0.91473 -0.16806,1.43782c-0.11335,0.52308 -0.26881,0.91262 -0.26881,0.91262c0,0 -1.23504,-0.60179 -2.04242,-0.74245c-0.80738,-0.14067 -2.16415,-0.01659 -2.16415,-0.01659z" fill="#a8c8d8" stroke="none" stroke-width="0" stroke-linecap="butt"/><path d="M235.92076,186.43295c0,0 -0.21324,2.59634 -0.63303,4.19987c-0.41979,1.60353 -1.46985,3.75457 -1.46985,3.75457" fill="none" stroke="#000000" stroke-width="0.25" stroke-linecap="round"/><path d="M235.61509,186.65653l0.43459,0.12536" fill="none" stroke="#808080" stroke-width="0.5" stroke-linecap="round"/><path d="M235.34794,187.94746l0.57047,0.15349" fill="none" stroke="#808080" stroke-width="0.5" stroke-linecap="round"/><path d="M234.63086,191.41247l0.46153,0.16637" fill="none" stroke="#808080" stroke-width="0.5" stroke-linecap="round"/><path d="M234.53707,193.23527l-0.50253,-0.13942" fill="none" stroke="#808080" stroke-width="0.5" stroke-linecap="round"/><path d="M235.12413,189.58547l0.68201,0.18922" fill="none" stroke="#808080" stroke-width="0.5" stroke-linecap="round"/></g><path d="M238.36979,184.48174c0,0 0.79123,-0.49955 1.24284,-0.78467c0.4516,-0.28512 1.19825,-0.7587 1.19825,-0.7587l1.44427,0.44521c0,0 -0.79744,0.61617 -1.37174,0.89854c-0.57428,0.28238 -2.02617,0.84922 -2.02617,0.84922z" fill="#f8b820" stroke="none" stroke-width="0" stroke-linecap="butt"/><path d="M236.92497,184.87492c0.51201,-0.2488 1.65638,-0.50981 1.84086,-0.13019c0.24324,0.50056 -0.2269,0.66724 -1.20188,1.09118c-0.52205,0.22699 -1.72412,0.78867 -1.92713,0.22068c-0.19013,-0.53193 0.77613,-0.93287 1.28814,-1.18167z" fill="#ffffff" stroke="none" stroke-width="0" stroke-linecap="butt"/></g><g data-paper-data="{&quot;index&quot;:null}"><path d="M239.23822,182.23026c1.53946,-0.12377 2.02964,0.05722 3.09657,0.77442c1.59014,1.06892 1.94482,3.05965 -0.07922,4.63442c-2.05147,1.59612 -6.47138,0.88009 -6.63329,-0.89801c-0.15054,-1.65334 0.2819,-4.24281 3.61594,-4.51084z" fill="#f8b820" stroke="none" stroke-width="0" stroke-linecap="butt"/><path d="M238.96744,183.658c3.34482,0.454 3.35883,2.20979 3.36116,2.98201c0.00396,1.31279 -1.02903,2.78015 -3.17241,2.9024c-1.60394,0.09147 -3.61985,-1.52089 -3.50029,-2.77999c0.17721,-1.8664 2.15703,-3.26114 3.31154,-3.10443z" fill="#ffffff" stroke="none" stroke-width="0" stroke-linecap="butt"/><path d="M241.57825,184.29983l-0.38303,0.4153" fill="none" stroke="#808080" stroke-width="0.5" stroke-linecap="round"/><path d="M239.63281,183.97873l0.0477,-0.46838" fill="none" stroke="#808080" stroke-width="0.5" stroke-linecap="round"/><path d="M237.68468,183.59099l0.23454,0.85679" fill="none" stroke="#808080" stroke-width="0.5" stroke-linecap="round"/><path d="M236.36289,185.51024l-0.2903,-0.58799" fill="none" stroke="#808080" stroke-width="0.5" stroke-linecap="round"/></g><g data-paper-data="{&quot;index&quot;:null}"><g><path d="M229.03736,185.92383c0.57916,-0.38056 3.24684,-0.77128 3.96562,-0.08542c0.19608,0.18708 0.5232,2.50461 -0.04412,4.77141c-0.70515,2.81748 -2.09029,4.15391 -2.46235,3.90018c-1.46083,-0.81904 -2.1778,-5.02779 -2.22331,-5.83189c-0.04552,-0.80408 0.18498,-2.37372 0.76414,-2.75428z" fill="#f72526" stroke="none" stroke-width="0" stroke-linecap="butt"/><path d="M228.56854,190.39413c0,0 -0.08643,-0.32075 -0.1226,-0.52992c-0.03617,-0.20917 -0.1447,-1.01614 -0.1447,-1.01614c0,0 1.57076,-0.48433 2.60575,-0.49388c1.03497,-0.00956 2.30501,0.44854 2.30501,0.44854c0,0 -0.0547,0.91473 -0.16806,1.43782c-0.11335,0.52308 -0.26881,0.91262 -0.26881,0.91262c0,0 -1.23504,-0.60179 -2.04242,-0.74245c-0.80738,-0.14067 -2.16415,-0.01659 -2.16415,-0.01659z" fill="#ffffff" stroke="none" stroke-width="0" stroke-linecap="butt"/><path d="M232.78081,186.47092c0,0 -0.21324,2.59634 -0.63303,4.19987c-0.41979,1.60353 -1.46985,3.75457 -1.46985,3.75457" fill="none" stroke="#000000" stroke-width="0.25" stroke-linecap="round"/><path d="M232.47513,186.69453l0.43459,0.12536" fill="none" stroke="#808080" stroke-width="0.5" stroke-linecap="round"/><path d="M232.77847,188.13891l-0.57047,-0.15349" fill="none" stroke="#808080" stroke-width="0.5" stroke-linecap="round"/><path d="M231.49093,191.45043l0.46153,0.16637" fill="none" stroke="#808080" stroke-width="0.5" stroke-linecap="round"/><path d="M230.89459,193.13378l0.50253,0.13942" fill="none" stroke="#808080" stroke-width="0.5" stroke-linecap="round"/><path d="M231.98418,189.62342l0.68201,0.18922" fill="none" stroke="#808080" stroke-width="0.5" stroke-linecap="round"/></g><path d="M235.22983,184.51971c0,0 0.79123,-0.49955 1.24284,-0.78467c0.4516,-0.28512 1.19825,-0.7587 1.19825,-0.7587l1.44427,0.44521c0,0 -0.79744,0.61617 -1.37174,0.89854c-0.57428,0.28238 -2.02617,0.84922 -2.02617,0.84922z" fill="#f8b820" stroke="none" stroke-width="0" stroke-linecap="butt"/><path d="M233.78502,184.91288c0.51201,-0.2488 1.65638,-0.50981 1.84086,-0.13019c0.24324,0.50056 -0.2269,0.66724 -1.20188,1.09118c-0.52205,0.22699 -1.72412,0.78867 -1.92713,0.22068c-0.19013,-0.53193 0.77613,-0.93287 1.28814,-1.18167z" fill="#ffffff" stroke="none" stroke-width="0" stroke-linecap="butt"/></g><g data-paper-data="{&quot;index&quot;:null}"><path d="M240.97861,186.2171c-0.0231,-1.01702 0.09328,-2.17124 0.09328,-2.17124l0.69819,0.25332c0,0 0.09509,0.69502 0.11736,1.52998c0.02398,0.89933 0.08593,3.34379 0.08593,3.34379l-0.78041,-0.35703c0,0 -0.19125,-1.5818 -0.21434,-2.59882z" fill="#f8b820" stroke="none" stroke-width="0" stroke-linecap="butt"/><g><path d="M243.33496,190.55841c0.79011,2.28333 -1.11212,4.27911 -1.59164,4.18289c-1.3275,-0.25016 -1.86342,-1.23914 -2.56081,-2.84804c-0.84469,-1.94875 0.79464,-4.07927 1.86201,-3.97747c0.34945,0.03334 1.71852,0.98978 2.29044,2.64263z" fill="#ffffff" stroke="none" stroke-width="0" stroke-linecap="butt"/><path d="M241.24798,189.24252l-0.97155,-0.27782" fill="none" stroke="#808080" stroke-width="0.5" stroke-linecap="round"/><path d="M239.9237,190.46817l0.77641,0.18471" fill="none" stroke="#808080" stroke-width="0.5" stroke-linecap="round"/><path d="M240.6307,191.87366l-0.77432,-0.09085" fill="none" stroke="#808080" stroke-width="0.5" stroke-linecap="round"/><path d="M240.75644,193.18748l-0.57918,0.00228" fill="none" stroke="#808080" stroke-width="0.5" stroke-linecap="round"/><path d="M240.57589,193.75144c0,0 -0.57195,-1.72344 -0.41035,-2.85397c0.16159,-1.13053 0.96088,-2.7811 0.96088,-2.7811" fill="none" stroke="#020202" stroke-width="0.25" stroke-linecap="round"/></g></g><path d="M238.71927,181.24315c-0.89249,-4.3067 2.02573,-7.98245 4.45887,-8.42945c2.37037,-0.43549 3.12723,-0.11825 4.47567,0.74502c3.47275,2.22322 2.40185,9.514 0.05425,10.04021c-2.76375,0.61948 -8.39931,0.48874 -8.98878,-2.35579z" data-paper-data="{&quot;index&quot;:null}" fill="#f8b820" stroke="none" stroke-width="0" stroke-linecap="butt"/><path d="M239.40776,181.5523c-0.12088,-0.64253 3.03186,-2.15971 6.01431,-1.3334c1.26733,0.35112 3.13823,2.18814 2.93827,2.62608c-0.65394,1.38949 -1.96724,1.75715 -3.25551,2.0213c-2.37119,0.48619 -5.34536,-1.44436 -5.69708,-3.31398z" data-paper-data="{&quot;index&quot;:null}" fill="#ffffff" stroke="none" stroke-width="0" stroke-linecap="butt"/><path d="M239.99624,170.61315c0.36663,-0.17763 1.47728,0.20572 2.09567,0.63987c0.61838,0.43414 1.15662,1.64343 1.15662,1.64343c0,0 -1.31389,0.71148 -2.08551,1.30546c-0.77163,0.59399 -1.54655,1.73187 -1.76314,1.93532c-0.30666,0.28807 -1.83915,-4.34401 0.59636,-5.52408z" data-paper-data="{&quot;index&quot;:null}" fill="#ffffff" stroke="none" stroke-width="0" stroke-linecap="butt"/><path d="M247.7278,173.68174c0,0 1.75256,-1.21735 3.4616,0.08476c0.68687,0.52332 0.56775,1.84365 0.02193,2.89934c-0.60243,1.16519 -1.57088,2.1135 -1.57088,2.1135c0,0 -0.29261,-1.50755 -0.57558,-2.77003c-0.28297,-1.26248 -1.33706,-2.32756 -1.33706,-2.32756z" data-paper-data="{&quot;index&quot;:null}" fill="#ffffff" stroke="none" stroke-width="0" stroke-linecap="butt"/><g data-paper-data="{&quot;index&quot;:null}" stroke="none" stroke-width="0" stroke-linecap="butt"><path d="M246.32622,179.45618c-0.3548,-0.92321 0.03798,-1.9473 0.87731,-2.28739c0.83933,-0.34011 1.80736,0.13261 2.16215,1.05581c0.3548,0.92319 -0.03797,1.94729 -0.8773,2.28738c-0.83932,0.34009 -1.80737,-0.13262 -2.16216,-1.05582z" fill="#ffffff"/><path d="M248.6485,178.91328c-0.00368,0.51275 -0.37039,0.92584 -0.81906,0.92261c-0.44865,-0.00323 -0.8094,-0.42152 -0.80572,-0.9343c0.00368,-0.51276 0.39418,-1.02176 0.84285,-1.01853c0.44866,0.00322 0.78561,0.51743 0.78193,1.0302z" fill="#000000"/></g><g data-paper-data="{&quot;index&quot;:null}" stroke="none" stroke-width="0" stroke-linecap="butt"><path d="M240.89179,177.65439c0.13796,-1.12031 0.91898,-1.94609 1.74447,-1.84444c0.8255,0.10165 1.38286,1.09223 1.2449,2.21255c-0.13795,1.12031 -0.91898,1.9461 -1.74447,1.84445c-0.82548,-0.10166 -1.38285,-1.09224 -1.24489,-2.21256z" fill="#ffffff"/><path d="M242.40798,178.88494c-0.44865,-0.00322 -0.8094,-0.42151 -0.80572,-0.93429c0.00368,-0.51275 0.39418,-1.02176 0.84285,-1.01853c0.44866,0.00322 0.78561,0.51744 0.78193,1.03021c-0.00368,0.51276 -0.37039,0.92584 -0.81906,0.92261z" fill="#000000"/></g><path d="M243.44859,177.42668c0,0 -0.44408,-1.39463 -0.39674,-1.9721c0.06561,-0.80038 0.79828,-1.28871 0.79828,-1.28871l3.87991,0.73839c0,0 0.24207,1.02536 0.13963,1.58036c-0.08273,0.44824 -1.16134,1.74417 -1.16134,1.74417c0,0 -0.35677,-0.76913 -0.54608,-1.34046c-0.18931,-0.57131 -0.42051,-1.57666 -0.42051,-1.57666l-2.29314,2.11504z" data-paper-data="{&quot;index&quot;:null}" fill="#f8b820" stroke="none" stroke-width="0" stroke-linecap="butt"/><g data-paper-data="{&quot;index&quot;:null}" stroke="none" stroke-width="0" stroke-linecap="butt"><path d="M245.9831,181.38184c-0.00573,0.35392 -0.42013,0.48574 -1.19853,0.38842c-0.55713,-0.06965 -1.18171,-0.21981 -1.27101,-0.7796c-0.05576,-0.34955 0.51354,-0.43691 1.06141,-0.55971c0.54787,-0.12281 1.42033,0.19567 1.40813,0.95089z" fill="#71716f"/><path d="M243.55779,180.91602c-0.09277,-0.26115 0.10694,-0.52413 0.38568,-0.67531c0.27875,-0.15118 0.56205,-0.12501 0.90506,-0.02475c0.343,0.10026 0.93761,0.56624 0.93761,0.56624c0,0 -0.26772,0.55175 -1.22764,0.58571c-0.6343,0.02244 -0.83935,0.00232 -1.00071,-0.45189z" fill="#010101"/><path d="M245.10471,181.17758c-0.03471,-0.15484 0.06268,-0.30849 0.21751,-0.3432c0.15483,-0.0347 0.30847,0.06269 0.34318,0.21751c0.0347,0.15484 -0.06269,0.30848 -0.21751,0.34319c-0.15483,0.0347 -0.30848,-0.06269 -0.34319,-0.21752z" fill="#ffffff"/></g><g data-paper-data="{&quot;index&quot;:null}"><path d="M245.58826,174.63637c0,0 0.52251,-1.79635 1.20032,-2.75222c0.67782,-0.95587 2.18422,-1.31888 2.18422,-1.31888l0.0699,0.65797c0,0 -1.07282,0.11643 -1.71448,1.02696c-0.64166,0.91053 -1.16463,2.52636 -1.16463,2.52636z" fill="#767578" stroke="none" stroke-width="0" stroke-linecap="butt"/><path d="M248.31555,170.819l2.61591,-1.89769l3.50807,1.91782l-3.47083,1.44894z" fill="#ea035a" stroke="none" stroke-width="0" stroke-linecap="butt"/><path d="M248.84032,171.15908c0,0 -0.53784,-0.33978 -0.34695,-0.34413c0.75001,-0.01708 5.85697,-0.06087 5.85697,-0.06087" fill="none" stroke="#000000" stroke-width="0.25" stroke-linecap="round"/><path d="M250.99275,172.29163l-1.17527,-1.49082l1.11486,-1.9882" fill="none" stroke="#000000" stroke-width="0.25" stroke-linecap="round"/></g></g></g></svg>