<svg version="1.1" xmlns="http://www.w3.org/2000/svg" xmlns:xlink="http://www.w3.org/1999/xlink" width="32.78036" height="32.87305" viewBox="0,0,32.78036,32.87305"><g transform="translate(-225.46736,-166.05557)"><g data-paper-data="{&quot;isPaintingLayer&quot;:true}" fill-rule="nonzero" stroke-linejoin="miter" stroke-miterlimit="10" stroke-dasharray="" stroke-dashoffset="0" style="mix-blend-mode: normal"><path d="M238.99236,198.67481c-0.97879,-1.61136 0.68747,-5.40986 0.68747,-5.40986c0.21754,-0.5675 0.57676,-0.97236 0.99561,-1.3259c0.36477,-0.30789 0.77478,-0.57687 1.17574,-0.88046c0.86138,-0.65215 0.63438,0.99954 0.63438,0.99954c0,0 -0.18408,2.40602 -0.78249,3.52948c-0.39029,1.022 -1.99569,4.26433 -2.71072,3.08721z" data-paper-data="{&quot;index&quot;:null}" fill="#54c81c" stroke="none" stroke-width="0" stroke-linecap="butt"/><path d="M242.32877,192.80063c-0.29194,0.87712 -0.54789,2.28208 -0.89525,2.77398c-0.34737,0.49191 -1.01178,0.89882 -1.15791,0.10372c-0.11486,-0.62505 0.87761,-3.02841 0.87761,-3.02841c0,0 1.24695,-3.27831 1.3454,-3.91877c0.37283,-2.01028 -0.7274,-5.77983 -0.7274,-5.77983l1.50165,-0.38457l0.3896,6.61619c0,0 -0.97856,2.55066 -1.3337,3.61769z" data-paper-data="{&quot;index&quot;:null}" fill="#ffffff" stroke="none" stroke-width="0" stroke-linecap="butt"/><path d="M245.8685,198.26766c-1.71089,-0.34394 -3.31865,-3.8802 -3.31865,-3.8802c-0.25936,-0.50677 -0.31986,-1.00826 -0.30851,-1.5183c0.0099,-0.4442 0.07428,-0.89489 0.10924,-1.3612c0.07511,-1.00173 1.0779,0.19467 1.0779,0.19467c0,0 1.55022,1.64225 1.96129,2.76056c0.468,0.91163 1.72858,4.05573 0.47874,3.80447z" data-paper-data="{&quot;index&quot;:null}" fill="#54c81c" stroke="none" stroke-width="0" stroke-linecap="butt"/><path d="M242.34156,188.84773c0,0 1.26919,3.16813 1.826,4.30399c0.37666,0.76839 1.02857,1.97286 1.02857,1.97286c0.10669,0.34397 -0.02253,1.56811 -0.659,1.06968c-0.50035,-0.39183 -1.53207,-2.50318 -1.53207,-2.50318c0,0 -1.10543,-3.02352 -1.45629,-3.5683c-1.0535,-1.75228 -2.76682,-5.92846 -2.76682,-5.92846l1.01913,-0.65l2.54048,5.30339z" data-paper-data="{&quot;index&quot;:null}" fill="#ffffff" stroke="none" stroke-width="0" stroke-linecap="butt"/><g data-paper-data="{&quot;index&quot;:null}" stroke="none" stroke-width="0" stroke-linecap="butt"><path d="M247.09229,187.33524c-0.30052,1.37325 -0.48157,2.31129 -0.48157,2.31129c0,0 -1.11292,-0.39827 -2.3176,-1.43376c-1.20467,-1.03548 -1.74547,-0.22319 -1.74547,-0.22319l5.06956,-2.91818c0,0 -0.22442,0.89059 -0.52493,2.26384z" fill="#54c81c"/><path d="M246.13892,187.0217c-0.06115,1.82064 -1.87592,0.75731 -5.00382,-0.04629c-1.91825,-2.3733 -1.03111,-7.04718 -1.03111,-7.04718l1.15141,-0.44143c0,0 0.67848,1.54852 3.30357,2.20055c2.59896,1.45603 2.15533,2.35924 2.89156,3.13404c0.74183,0.78068 -1.31161,2.20031 -1.31161,2.20031z" fill="#ffffff"/></g><g data-paper-data="{&quot;index&quot;:null}" stroke="none" stroke-width="0" stroke-linecap="butt"><path d="M234.80805,185.31537c0,0 -3.98797,0.72344 -5.4939,0.50792c-1.50594,-0.21552 -3.84679,0.71477 -3.84679,0.71477c0,0 2.81795,-4.22292 7.84063,-5.46712c0.95098,-0.23557 -3.52837,1.68066 -3.03571,2.72225c0.4926,1.04145 4.53579,1.52218 4.53579,1.52218z" fill="#54c81c"/><path d="M243.18351,180.2248c0,0 -5.91388,4.58797 -8.30644,4.95556c-2.20886,0.33937 -6.68986,0.13341 -6.09445,-0.90755c0.81666,-1.42777 3.91544,-3.66477 7.31363,-3.87949c2.80448,0.09788 7.08727,-0.16851 7.08727,-0.16851z" fill="#ffffff"/></g><g data-paper-data="{&quot;index&quot;:null}" stroke="none" stroke-width="0" stroke-linecap="butt"><path d="M246.71207,184.00893c0,0 3.81304,-2.32354 4.06651,-2.42007c0.25347,-0.09653 4.16418,3.1169 4.8189,3.79577c0.65472,0.67886 2.65024,1.77636 2.65024,1.77636c0,0 -2.1578,0.59571 -3.42508,0.23397c-1.26728,-0.36174 -2.79062,-0.81051 -3.96115,-1.22354c-2.12356,-0.74932 -4.14941,-2.16249 -4.14941,-2.16249z" fill="#54c81c"/><path d="M254.67066,186.14881c0,0 -2.03295,0.30236 -6.30897,-1.3839c-5.94081,-2.34278 -6.46723,-5.24671 -6.46723,-5.24671c0,0 -0.36041,-0.38715 1.67217,0.47547c0.69906,0.29668 2.1379,-0.39567 5.81701,0.72398c4.70723,1.43255 5.28702,5.43116 5.28702,5.43116z" fill="#ffffff"/></g><g data-paper-data="{&quot;index&quot;:null}" stroke="none" stroke-width="0" stroke-linecap="butt"><path d="M239.05002,189.39429c0,0 -2.18315,1.99295 -4.02678,2.49088c-2.21918,0.59937 -6.88148,0.10616 -6.88148,0.10616c0,0 2.68547,-2.86234 3.60452,-4.82737c1.58724,-3.40471 3.37892,-3.86941 3.37892,-3.86941c0,0 -2.02525,4.47621 -1.31061,5.74094c0.7042,1.24627 5.23542,0.35879 5.23542,0.35879z" fill="#54c81c"/><path d="M234.99234,183.2371c0.18235,-0.13981 2.91354,-2.03881 4.99981,-1.88943c2.76896,0.19829 2.77679,-1.38059 3.31348,-0.16768c0.53669,1.21293 0.62314,3.83682 -1.00465,5.44716c-1.35487,1.34036 -3.29219,2.79593 -3.29219,2.79593c0,0 -6.57007,2.01147 -7.39571,0.03944c0.53728,-2.00084 3.18902,-6.07952 3.37927,-6.22541z" fill="#ffffff"/></g><path d="M241.99353,168.74441c3.98805,0.06156 4.28466,3.20475 4.32968,3.46865c0.07099,0.62682 -0.02639,1.26745 -0.22166,1.86429c-0.31822,0.99844 -0.96458,1.92117 -1.88988,2.43906c-0.46306,0.18534 -0.3934,0.17441 -0.84173,0.37929c-0.65649,0.43513 -1.60398,0.53129 -2.35436,0.52524c-0.60902,0.02731 -1.21763,-0.045 -1.80763,-0.19935c-0.37786,-0.11354 -0.79979,-0.16826 -1.11228,-0.42736c-0.28723,-0.246 -0.52352,-0.58652 -0.53374,-0.97644c-0.07713,-0.94626 -0.16315,-1.89334 -0.15456,-2.84309c0.01606,-0.26022 0.37369,-4.29532 4.58616,-4.23029z" data-paper-data="{&quot;index&quot;:null}" fill="#f0e9bb" stroke="none" stroke-width="0.17188" stroke-linecap="butt"/><path d="M243.70178,181.52039c0.42297,0.52034 1.28872,0.82117 1.40645,1.49433c0.07457,0.43574 -0.55726,0.90248 -0.95813,0.7736c-0.52515,-0.10075 -1.61551,-0.68162 -1.82735,-1.19552c-0.487,-1.17948 -0.40765,-3.68851 -0.67718,-4.81931c-0.06924,-0.29244 0.78227,1.64027 0.93068,1.892c0,0 0.65132,1.27258 1.12553,1.8549z" data-paper-data="{&quot;index&quot;:null}" fill="#319a2b" stroke="none" stroke-width="0.17188" stroke-linecap="butt"/><path d="M239.15494,180.80593c-0.26708,-0.38154 0.19882,-0.84992 0.19566,-1.67068c-0.00931,-0.71765 0.05758,-1.42384 0.31392,-1.69625c0.07907,-0.08398 0.58519,-0.13011 0.69208,-0.13011c0.13502,0 0.69341,-0.11068 0.92694,0.32006c0.05994,0.11077 0.34246,0.65781 0.28916,0.83016c-0.05605,0.18218 0.07743,0.60421 0.05451,0.76215c-0.07242,0.49876 -0.1659,0.61373 -0.18319,0.92755c-0.02199,0.39718 0.02077,0.17052 -0.19567,0.41334c0,0 -1.77222,0.58675 -2.09341,0.24378z" data-paper-data="{&quot;index&quot;:null}" fill="#319a2b" stroke="none" stroke-width="0.17188" stroke-linecap="butt"/><path d="M244.24979,172.61082c-0.57076,0.44788 -0.18008,2.25292 -0.18008,2.25292c0,0 -0.61678,-1.64896 0.05779,-2.33696c0.20811,-0.21225 0.32622,-0.32982 0.52276,-0.38144c0.27412,-0.07199 0.40114,0.00137 0.61027,0.18982c0.1163,0.10479 0.31509,0.43597 0.32553,0.75955c0.00241,0.07462 1.18793,0.07506 1.18793,0.07506c0,0 -0.84362,0.13613 -1.02375,0.25868c-0.172,0.11702 -0.05377,0.46302 -0.1514,0.75489c-0.09764,0.29187 -0.22168,0.41893 -0.22168,0.41893c0,0 0.14663,-0.42381 0.12964,-0.98414c-0.01271,-0.41935 -0.16873,-1.03677 -0.39571,-1.21444c-0.30301,-0.26417 -0.44533,-0.21652 -0.86131,0.20713z" data-paper-data="{&quot;index&quot;:null}" fill="#000000" stroke="none" stroke-width="0" stroke-linecap="butt"/><path d="M244.89777,172.36795c0.24826,-0.04061 0.39401,0.08879 0.48279,0.36783c0.06208,0.19567 0.10361,0.48668 0.10168,0.75089c-0.00215,0.28487 -0.00214,0.45569 -0.03743,0.62631c-0.03467,0.16755 -0.10484,0.33684 -0.07917,0.3932c0.03723,0.08163 -0.06894,0.18503 -0.46418,0.27076c-0.25316,0.05494 -0.49978,0.09461 -0.71039,0.12755c-0.20734,0.00501 -0.31126,-1.13601 -0.18074,-1.43449c0.08213,-0.54868 0.28129,-0.89441 0.88745,-1.10205z" data-paper-data="{&quot;index&quot;:null}" fill="#ffffff" stroke="none" stroke-width="0.17188" stroke-linecap="butt"/><path d="M245.96159,167.7956c0.92264,-0.1296 1.58689,0.01494 1.97662,0.2999c0.05554,0.0404 0.02464,0.08245 0.09176,0.14781c0.08121,0.07917 0.30256,0.20028 0.26063,0.17042c0,0 -0.0804,0.15978 -0.07313,0.23526c0.00931,0.09595 0.13021,0.20764 0.03877,0.18422c0,0 0.06066,0.14096 0.04818,0.192c-0.13604,0.55747 -0.59031,1.27696 -1.1892,1.64663c0.32108,0.48822 -1.70852,-2.4459 -1.1536,-2.87623z" data-paper-data="{&quot;index&quot;:null}" fill="#ed3e67" stroke="none" stroke-width="0.17188" stroke-linecap="butt"/><path d="M237.7013,172.06152l-0.15006,2.38751l0.23118,1.92547l0.26963,1.36258c0.03191,0.16018 -1.66188,-1.09868 -2.01231,-1.54455c-0.4337,-0.55165 -0.71203,-1.15503 -0.9877,-1.75935c-0.2011,-0.44036 -0.21787,-0.62079 -0.28169,-0.94074l-0.19792,-0.99332c-0.03764,-0.18873 -0.1297,-1.14859 0.05554,-1.31337c0.05258,-0.04674 0.71571,0.43369 0.79171,0.43185l0.55471,-0.01503c0.16458,-0.0043 0.65597,-0.35474 0.79845,-0.47012c0.10413,-0.08418 0.68165,-0.73402 0.74302,-1.36861l0.06066,-0.62774c0.0091,-0.094 -0.22749,-1.08037 -0.18984,-1.09806c0.07754,-0.03672 -0.79151,-1.08568 -0.71079,-1.12824c0.44914,-0.23752 0.99383,-0.54152 1.60531,-0.67561c0.96131,-0.21082 2.01354,-0.18003 2.5528,-0.17287c0.09196,0.00123 1.26336,0.04 1.96383,0.27628c1.10921,0.37407 1.73296,1.08578 1.77592,1.12485c0.6747,0.61321 1.17652,1.32729 1.52859,2.12871l0.19117,0.67786c0.09789,0.34697 0.43268,2.25637 0.2459,2.93157l-0.63726,2.30588c-0.1115,0.40383 -1.18132,2.29565 -1.39929,2.18569c-0.30543,-0.15374 -0.31157,-1.34611 -0.41529,-1.20004c-0.22994,0.32353 1.57657,-1.27012 1.66249,-1.71649c0.14679,-0.76316 0.4385,-1.48983 0.37345,-2.02725c-0.01237,-0.10147 -0.02219,-0.79569 -0.03365,-0.96365c-0.0089,-0.13278 -0.08981,-0.24089 -0.22319,-0.20652c-0.08879,0.02281 -0.2995,-0.08562 -0.43268,0.12632l-0.39452,0.62857c-0.06403,0.10178 -1.24791,1.95063 -1.30611,1.80978c-0.01074,-0.02619 0.22411,-0.61771 0.23679,-0.65699c0.07702,-0.23752 0.0851,-0.42265 0.00931,-0.33755c-0.19935,0.2238 -0.53374,0.81196 -0.53374,0.81196c-0.04787,0.07252 -0.57865,0.02752 -0.93696,-0.09706c-0.33336,-0.11589 -0.75284,-0.51829 -0.8586,-0.61762l-1.1491,-1.08026c-1.07934,-1.01418 -1.01009,-0.58049 -1.07321,-0.6976c0.04848,-0.07774 -0.77023,-0.10566 -0.96437,0.07437c-0.07733,0.07171 -0.31321,0.20888 -0.43473,0.27925c-0.16171,0.09348 -0.273,0.14882 -0.32742,0.24017z" data-paper-data="{&quot;index&quot;:null}" fill="#54c81c" stroke="none" stroke-width="0.17188" stroke-linecap="butt"/><path d="M233.6543,170.48812c-0.60524,-0.20693 -1.16608,-0.76563 -1.41331,-1.24618c-0.02271,-0.04398 -0.00266,-0.18637 -0.00266,-0.18637c-0.07396,0.04153 0.00532,-0.08735 -0.0089,-0.17716c-0.01114,-0.07058 -0.11803,-0.19926 -0.11803,-0.19926c-0.02946,0.03662 0.13451,-0.12285 0.18677,-0.21307c0.04307,-0.07468 0.00645,-0.10638 0.04531,-0.15579c0.27219,-0.34615 0.81504,-0.62426 1.64562,-0.70845c1.08671,-0.10996 2.04092,0.68716 2.04092,1.07729c0,0 -1.3421,2.16219 -2.37571,1.80898z" data-paper-data="{&quot;index&quot;:null}" fill="#ed3e67" stroke="none" stroke-width="0.17188" stroke-linecap="butt"/><path d="M236.82508,169.37543c0.14873,-0.10392 -0.2908,1.37874 -0.67335,1.58566c-0.65792,0.35576 -0.58427,0.61772 -1.14634,0.44649c-0.12623,-0.03825 -0.37622,-0.26084 -0.73556,-0.40926c-0.41631,-0.17174 -0.78495,-0.41048 -0.64697,-0.48188l0.83016,-0.48649l1.23053,-1.368c0.01913,-0.02128 -0.2321,-0.2328 -0.62294,-0.50898c-0.27403,-0.19373 -0.6841,-0.42358 -1.00365,-0.54693c-0.18831,-0.07262 0.18862,-0.29081 0.72502,-0.44414c0.26002,-0.07437 0.53619,-0.17266 0.84439,-0.15527c0.53374,0.03027 0.92407,0.64195 1.06686,1.26203c0.13379,0.58069 0.03283,1.1757 0.13185,1.10676z" data-paper-data="{&quot;index&quot;:null}" fill="#54c81c" stroke="none" stroke-width="0.17188" stroke-linecap="butt"/><path d="M237.59549,169.33902c0.02669,1.21488 -1.17395,2.28982 -1.56224,2.26231l-0.61046,0.112l-0.86382,-0.51584c-0.22115,-0.13216 1.20331,0.07682 1.54997,-0.30379c0.22626,-0.24826 0.39156,-0.44004 0.42337,-0.53834c0.30175,-0.93737 0.26902,-1.70391 0.08317,-2.20339c-0.29203,-0.78485 -0.87763,-1.03648 -0.49661,-1.21774c0.90852,-0.43247 1.44738,1.07709 1.47663,2.40479z" data-paper-data="{&quot;index&quot;:null}" fill="#ead32e" stroke="none" stroke-width="0.17188" stroke-linecap="butt"/><path d="M245.58658,168.68591c0,0 -0.28078,-0.35003 -0.47912,-0.61997c-0.41376,-0.5631 -1.03731,-0.90177 -0.91773,-1.0596c0.09963,-0.06383 0.61128,0.07048 0.751,0.20181l0.28385,0.26656c0.49907,0.46889 0.69648,1.15033 0.6884,1.42938c-0.00348,0.1207 0.12418,0.34103 0.08071,0.47534c0,0 -0.32753,-0.41836 -0.40711,-0.69352z" data-paper-data="{&quot;index&quot;:null}" fill="#ead32e" stroke="none" stroke-width="0.17188" stroke-linecap="butt"/><path d="M245.21397,167.35512c0,0 1.0776,-0.03324 1.27083,0.26483c0.12847,0.19792 -0.04716,0.67561 0.10229,0.82587c0.18555,0.18658 0.46316,0.64738 0.61066,0.98636c0.04429,0.30993 0.15558,0.60666 0.02281,0.9524c0.054,0.30502 -0.70497,0.86587 -0.73258,0.76583l-0.37541,-1.35971c-0.09523,-0.34501 -0.31136,-1.04436 -0.3713,-1.18623z" data-paper-data="{&quot;index&quot;:null}" fill="#54c81c" stroke="none" stroke-width="0.17188" stroke-linecap="butt"/><path d="M239.5645,176.71892h0.86877" data-paper-data="{&quot;index&quot;:null}" fill="none" stroke="#dfcfa3" stroke-width="0.36953" stroke-linecap="round"/><g data-paper-data="{&quot;index&quot;:null}" stroke="none" stroke-linecap="butt"><path d="M241.18477,177.44148c0.17022,-0.06911 0.34154,0.07628 0.48084,0.36686c0.1393,0.29058 0.24674,0.72652 0.28893,1.23856c0.04223,0.51194 0.0113,1.00389 -0.07258,1.38519c-0.08398,0.38127 -0.22099,0.65174 -0.3912,0.72085c-0.17009,0.06905 -0.34142,-0.07634 -0.48082,-0.36696c-0.1393,-0.29058 -0.24663,-0.72649 -0.28883,-1.23853c-0.04223,-0.51194 -0.01141,-1.00393 0.07258,-1.38519c0.08388,-0.3813 0.221,-0.65174 0.39108,-0.72079z" fill="#eb3d66" stroke-width="0.01872"/><path d="M241.42052,177.85309c0.07821,-0.02884 0.16335,0.03709 0.23768,0.16696c0.07443,0.1299 0.13803,0.32373 0.1732,0.5506c0.03526,0.2269 0.03534,0.44416 0.00713,0.61194c-0.02825,0.16786 -0.08477,0.2862 -0.16297,0.31504c-0.07813,0.02897 -0.16327,-0.03705 -0.23769,-0.16695c-0.07443,-0.1299 -0.13803,-0.32373 -0.17323,-0.5505c-0.03516,-0.22687 -0.0353,-0.44427 -0.00709,-0.61203c0.02825,-0.16786 0.08474,-0.2861 0.16299,-0.31504z" fill="#ffffff" stroke-width="0.01896"/></g><path d="M238.70474,179.10535c-0.39328,0.11227 0.08835,2.34336 -0.06334,1.94968c-0.19699,-0.50824 -0.47648,0.30303 -1.46234,-0.00583c-1.06592,-0.33395 -0.70756,-2.07822 0.08398,-2.34288c1.25251,-0.41851 3.08127,-1.78277 3.43599,-1.58017c0.35468,0.20246 -1.34093,0.96305 -2.11376,1.63667c-0.96247,0.80587 1.30894,0.00277 0.11947,0.34252z" data-paper-data="{&quot;index&quot;:null}" fill="#319a2b" stroke="none" stroke-width="0.17188" stroke-linecap="butt"/><g data-paper-data="{&quot;index&quot;:null}" stroke="none" stroke-width="0.17188" stroke-linecap="butt"><path d="M242.0123,180.1297c-0.03021,-0.94605 -0.53192,-2.88351 -0.17206,-2.7709c0.35998,0.11255 1.54631,2.09485 2.05052,3.20496c0.31852,0.70167 1.13374,1.18567 1.15905,1.93666c0.01641,0.49347 -0.63665,0.84401 -1.10417,1.03024c-0.36157,0.14486 -0.9539,0.19386 -1.12517,-0.14266c-0.51786,-1.01796 -0.74821,-2.1009 -0.80817,-3.25831z" fill="#319a2b"/><path d="M244.95298,184.12961c0.11789,-0.43526 0.44938,-0.46769 0.61795,-0.422c0.82107,0.25178 1.60366,1.00202 1.86827,1.7263c-0.02446,-0.15512 0.06292,0.75588 -0.72879,1.01623c-0.33715,0.12721 -0.88296,0.51646 -1.41162,0.7537l-0.56115,0.09345c-0.25785,0.04305 -0.51218,-0.23778 -0.48366,-0.51692c0.00419,-0.04127 -0.15812,0.12764 -0.31464,0.06806c-0.28171,-0.10729 -0.62951,-0.4754 -0.55283,-0.73891c0.06701,-0.23111 -0.07253,-0.56781 0.14411,-0.84366c0.29215,-0.37193 0.3664,0.23906 0.68711,0.02933c0.19064,-0.12455 0.73244,-1.15576 0.73522,-1.16557z" fill="#f0e9bb"/><path d="M243.73122,183.21114c0.19981,-0.1805 1.143,-1.38204 1.38787,-1.25365c0.44713,0.26885 0.37896,1.36848 0.79318,1.67384c-0.12986,-0.09234 -0.58233,0.21044 -0.58233,0.21044c-0.02327,0.0184 -0.33299,0.33059 -0.57784,0.82361c-0.20134,0.40535 -0.38765,0.8403 -0.61303,0.78941c-0.15593,-0.03502 -0.58651,-0.16553 -0.72199,-0.467c-0.14384,-0.32035 -0.44443,-0.70145 -0.49106,-1.06049c-0.02022,-0.15544 -0.23048,-0.57972 -0.20386,-0.70526c0.04073,-0.19096 0.32685,-0.05129 0.27755,-0.06235c-0.24627,-0.05521 0.52907,0.23424 0.73153,0.05145z" fill="#ead42f"/></g><g data-paper-data="{&quot;index&quot;:null}" stroke="none" stroke-width="0.17188" stroke-linecap="butt"><path d="M239.91696,179.91454c0.00544,-0.00961 0.38572,-1.21264 0.33617,-1.45428c-0.08315,-0.40663 -0.60986,0.00207 -0.54644,-0.50626c0.04703,-0.37698 0.41247,-0.52633 0.53918,-0.7541c0.14425,-0.25991 0.69263,-0.27299 0.98996,-0.13805c0.16518,0.07498 0.15895,0.32866 0.18752,0.29396c0.19302,-0.23477 0.60297,-0.25319 0.76645,-0.02201l0.35593,0.50296c0.22054,0.58759 0.33721,1.30427 0.49638,1.66064c0.40331,0.80759 -0.36418,1.43492 -0.2262,1.33546c-0.75895,0.34861 -1.93281,0.31855 -2.7525,-0.1212c-0.16366,-0.09483 -0.39146,-0.3746 -0.14647,-0.79713z" fill="#f0e9bb"/><path d="M238.27886,179.67486c-0.01372,-0.29512 -0.82754,-0.67092 -0.5973,-0.52355c0.0461,0.0295 -0.27951,-0.08415 -0.16363,-0.26107c0.07628,-0.1162 0.56299,-0.2779 0.698,-0.38087c0.31178,-0.23788 0.83415,-0.29716 1.19026,-0.43073c0.33523,-0.12562 0.7639,0.10613 0.90975,0.1994c0.21099,0.13461 0.01839,0.60953 -0.13995,1.07349c-0.1926,0.56424 -0.19667,1.04056 -0.19307,1.0725c0,0 0.11204,0.57896 0.28208,0.60846c-0.55076,-0.08586 -1.34474,0.80494 -1.89249,0.66592c-0.28547,-0.09048 -0.08017,-1.73218 -0.09363,-2.02352z" fill="#ead42f"/></g><g data-paper-data="{&quot;index&quot;:null}" stroke="none" stroke-linecap="butt"><path d="M244.4426,174.08389c0,-0.5294 0.20288,-0.95856 0.45314,-0.95856c0.25026,0 0.45314,0.42916 0.45314,0.95856c0,0.5294 -0.20288,0.95856 -0.45314,0.95856c-0.25026,0 -0.45314,-0.42916 -0.45314,-0.95856z" fill="#008ae6" stroke-width="0"/><path d="M244.89109,173.25835c0.07892,-0.00736 0.1526,0.06999 0.20772,0.2009c0.05525,0.13092 0.09193,0.31542 0.09713,0.52227c0.00504,0.20696 -0.0224,0.39744 -0.07075,0.53808c-0.04848,0.14062 -0.11785,0.23143 -0.19677,0.23877c-0.07892,0.00736 -0.15262,-0.06999 -0.20772,-0.20089c-0.05525,-0.13093 -0.09195,-0.31542 -0.097,-0.52226c-0.00518,-0.20698 0.02225,-0.39746 0.07057,-0.5381c0.04848,-0.14063 0.11797,-0.23127 0.19679,-0.23878z" fill="#000000" stroke-width="0.0278"/><path d="M244.74664,173.49625c0.0419,-0.09781 0.10095,-0.15996 0.16695,-0.16302c0.06603,-0.00305 0.12675,0.05362 0.17136,0.14739c0.0448,0.0938 0.07346,0.22477 0.07549,0.37069c0.00218,0.14612 -0.02275,0.27957 -0.06482,0.37735c-0.04189,0.09781 -0.10094,0.15998 -0.16694,0.16303c-0.06603,0.00305 -0.12675,-0.05362 -0.17136,-0.1474c-0.0448,-0.0938 -0.07347,-0.22477 -0.0755,-0.37069c-0.00217,-0.14612 0.02276,-0.27956 0.06483,-0.37734z" fill="#ffffff" stroke-width="0.01811"/></g><path d="M246.02863,173.29823l0.10256,-0.15385l0.66667,0.02564z" data-paper-data="{&quot;index&quot;:null}" fill="#000000" stroke="none" stroke-width="0" stroke-linecap="butt"/><path d="M241.1444,175.12206c-0.25971,0 -0.60994,0.03376 -0.92479,0.01872c-0.49139,-0.02363 -0.93532,-0.15374 -0.93532,-0.15374c0,0 -0.34037,-0.32711 -0.32037,-1.01971c0.01782,-0.61715 0.3131,-1.38581 0.81319,-1.38581c0.35709,0 0.66262,0.1376 1.01899,0.65129c0.08756,0.12623 0.59849,1.86225 0.3483,1.88925z" data-paper-data="{&quot;index&quot;:null}" fill="#ffffff" stroke="none" stroke-width="0.17188" stroke-linecap="butt"/><g data-paper-data="{&quot;index&quot;:null}" stroke="none" stroke-linecap="butt"><path d="M240.19262,174.41722c0,-0.5294 0.20288,-0.95856 0.45313,-0.95856c0.25025,0 0.45313,0.42916 0.45313,0.95856c0,0.5294 -0.20288,0.95856 -0.45313,0.95856c-0.25025,0 -0.45313,-0.42916 -0.45313,-0.95856z" fill="#008ae6" stroke-width="0"/><path d="M240.64109,173.59167c0.07892,-0.00736 0.1526,0.07 0.20772,0.20091c0.05525,0.13092 0.09193,0.31542 0.09713,0.52227c0.00504,0.20696 -0.0224,0.39744 -0.07075,0.53808c-0.04848,0.14062 -0.11785,0.23142 -0.19677,0.23877c-0.07892,0.00736 -0.15261,-0.07 -0.20772,-0.20089c-0.05525,-0.13092 -0.09195,-0.31541 -0.097,-0.52225c-0.00518,-0.20699 0.02225,-0.39747 0.07057,-0.53811c0.04848,-0.14062 0.11796,-0.23126 0.19679,-0.23877z" fill="#000000" stroke-width="0.0278"/><path d="M240.49665,173.82959c0.0419,-0.0978 0.10095,-0.15994 0.16695,-0.16301c0.06603,-0.00305 0.12675,0.05362 0.17136,0.14739c0.0448,0.0938 0.07346,0.22477 0.07549,0.37069c0.00217,0.14612 -0.02276,0.27956 -0.06483,0.37735c-0.0419,0.0978 -0.10095,0.15998 -0.16695,0.16303c-0.06603,0.00305 -0.12675,-0.05361 -0.17136,-0.1474c-0.0448,-0.0938 -0.07346,-0.22477 -0.07549,-0.37069c-0.00217,-0.14612 0.02276,-0.27956 0.06483,-0.37735z" fill="#ffffff" stroke-width="0.01811"/></g><path d="M240.64549,175.18845l0.46708,-0.04595c0,0 -0.54629,0.70961 -0.95305,0.63138c-0.40676,-0.07822 -0.43938,-0.6276 -0.43938,-0.6276z" data-paper-data="{&quot;index&quot;:null}" fill="#f0e9bb" stroke="none" stroke-width="0" stroke-linecap="butt"/><path d="M240.54004,173.02232c-0.41598,-0.42365 -0.72904,-0.49569 -1.03205,-0.23153c-0.22698,0.17767 -0.383,0.79509 -0.39571,1.21444c-0.01699,0.56033 0.12964,0.98414 0.12964,0.98414c0,0 -0.12404,-0.12706 -0.22167,-0.41893c-0.09763,-0.29187 0.0206,-0.63787 -0.1514,-0.75489c-0.18012,-0.12255 -1.02374,-0.25869 -1.02374,-0.25869c0,0 1.18552,-0.00044 1.18793,-0.07506c0.01043,-0.32357 0.20922,-0.65476 0.32552,-0.75955c0.20913,-0.18845 0.43372,-0.26181 0.70783,-0.18982c0.19655,0.05163 0.36344,0.21798 0.57155,0.43023c0.67457,0.688 0.61877,2.11745 0.61877,2.11745c0,0 -0.14592,-1.60991 -0.71667,-2.05779z" data-paper-data="{&quot;index&quot;:null}" fill="#000000" stroke="none" stroke-width="0" stroke-linecap="butt"/><path d="M244.92795,174.70248l0.45,-0.13333c0,0 -0.40244,0.8 -0.81666,0.8c-0.41422,0 -0.55,-0.53333 -0.55,-0.53333z" data-paper-data="{&quot;index&quot;:null}" fill="#f0e9bb" stroke="none" stroke-width="0" stroke-linecap="butt"/></g></g></svg>