<svg version="1.1" xmlns="http://www.w3.org/2000/svg" xmlns:xlink="http://www.w3.org/1999/xlink" width="14.07427" height="15.05325" viewBox="0,0,14.07427,15.05325"><g transform="translate(-236.08631,-169.90301)"><g data-paper-data="{&quot;isPaintingLayer&quot;:true}" fill-rule="nonzero" stroke-linejoin="miter" stroke-miterlimit="10" stroke-dasharray="" stroke-dashoffset="0" style="mix-blend-mode: normal"><path d="M240.11531,169.97896c0.508,-0.135 1.16889,-0.10768 1.60789,0.22632c0.309,0.176 1.84579,1.29011 2.31579,1.44211c0.795,0.258 1.65,0.65263 2.45,0.50263c0.683,-0.18 1.068,-0.55458 1.6,-0.98158c0.592,-0.475 1.86453,-1.59958 2.01053,-1.03158c0.329,1.257 -0.76216,2.64116 -1.11316,4.31316c-0.14,0.665 -0.531,1.268 -0.6,1.95c-0.186,1.807 0.823,3.985 -0.25,5.45c-0.908,1.238 -3.076,1.091 -4.65,0.95c-1.949,-0.174 -4.571,-0.133 -5.6,-1.8c-1.209,-1.96 -0.013,-4.578 0.2,-6.85c0.066,-0.703 1.42595,-4.01005 2.02895,-4.17105z" fill="#f8b820" stroke="none" stroke-width="1" stroke-linecap="round"/><path d="M242.73637,180.19901c-0.0133,-0.6487 -0.0151,-1.06894 0.1778,-1.67574c0.1253,-0.4046 1.984,-1.57133 2.2222,-1.57233c0.1991,-0.0011 0.40784,-0.02771 0.4889,0.15743c0.08106,0.18514 0.208,0.81325 0.2222,1.36135c0.0329,1.2776 0.3298,2.7177 -0.0889,3.9303c-0.1858,0.5377 -0.9315,0.4444 -1.4222,0.4716c-0.4551,0.0095 -1.0711,0.0702 -1.3333,-0.3668c-0.3796,-0.633 -0.2507,-1.5092 -0.2667,-2.3058z" fill="#ffffff" stroke="none" stroke-width="0.97175" stroke-linecap="round"/><path d="M247.66577,177.10001c0.1221,-0.318 0.5774,-0.554 0.7765,-0.3c0.2972,0.378 0.2887,1.086 0.2823,1.65c0.0064,1.027 0.0459,2.137 -0.2823,3.05c-0.1115,0.31 -0.5661,0.024 -0.7059,-0.3c-0.228,-0.531 -0.1659,-1.229 -0.1765,-1.85c-0.0127,-0.747 -0.1207,-1.559 0.1059,-2.25z" fill="#ffffff" stroke="none" stroke-width="0.86553" stroke-linecap="round"/><path d="M237.23637,178.45c0.375,0.056 0.766,0.074 1.1,0.3c1.057,0.716 1.934,1.675 2.95,2.45c0.672,0.513 1.28,1.216 2.1,1.35c0.835,0.149 1.74842,-0.09946 2.5,-0.5c0.85,-0.453 2.17033,-0.67634 2.93333,-0.13334c0.437,0.311 -0.01934,1.45633 -0.53334,1.78333c-1.125,0.715 -2.491,1.229 -3.85,1.25c-1.285,0.066 -2.606,-0.398 -3.75,-1c-0.97,-0.511 -1.533,-1.611 -2.4,-2.3c-0.674,-0.536 -2.21,-1.138 -2.2,-1.4c0.01,-0.222 1.686,0.447 2.25,0.15c0.286,-0.15 -0.293,-0.72 -0.55,-1c-0.339,-0.37 -1.008,-0.597 -1.2,-0.95c-0.083,-0.122 0.434,-0.032 0.65,0z" fill="#f8f8f8" stroke="none" stroke-width="1" stroke-linecap="round"/><path d="M248.92824,181.94419c0.23535,0.12161 -0.44373,0.70806 -0.80265,0.70806c-0.35891,0 -0.8637,-0.58644 -0.62833,-0.70806c0.23535,-0.12161 0.26942,-0.19695 0.62833,-0.19695c0.35891,0 0.5673,0.07534 0.80265,0.19695z" fill="#101010" stroke="none" stroke-width="1" stroke-linecap="butt"/><path d="M240.93621,171.22018c0.26367,-0.11559 0.63677,0.70778 0.90541,1.09849c0.25594,0.37238 0.69643,0.73472 0.67118,1.1809c-0.02311,0.34217 -0.53637,0.45792 -0.7882,0.66462c-0.29538,0.24467 -0.64478,0.83832 -0.88884,0.73094c-0.24707,-0.10971 -0.09537,-0.76994 -0.11162,-1.15323c-0.00603,-0.28903 0.02351,-0.57776 0.04569,-0.8602c0.04236,-0.55476 -0.13032,-1.52918 0.16637,-1.66151z" fill="#ffffff" stroke="none" stroke-width="0.85185" stroke-linecap="butt"/><path d="M245.77593,184.26743l-1.9162,-0.01277" fill="none" stroke="#cccccc" stroke-width="0.36953" stroke-linecap="round"/><g stroke="none" stroke-linecap="butt"><path d="M245.33087,178.63116c0.1613,0 0.3067,0.1486 0.4129,0.3885c0.1051,0.241 0.1709,0.5722 0.1709,0.9384c0,0.3662 -0.0658,0.6974 -0.1709,0.9384c-0.1062,0.2399 -0.2516,0.3885 -0.4129,0.3885c-0.1614,0 -0.3068,-0.1486 -0.413,-0.3885c-0.105,-0.241 -0.1709,-0.5722 -0.1709,-0.9384c0,-0.3662 0.0659,-0.6974 0.1709,-0.9384c0.1062,-0.2399 0.2516,-0.3885 0.413,-0.3885z" fill="#4088ed" stroke-width="1.0615"/><path d="M245.31667,179.05456c0.108,0 0.2055,0.0928 0.2761,0.243c0.0711,0.1501 0.1146,0.3571 0.1146,0.5859c0,0.2288 -0.0435,0.4358 -0.1146,0.586c-0.0706,0.1501 -0.1681,0.243 -0.2761,0.243c-0.108,0 -0.2056,-0.0929 -0.2762,-0.243c-0.0711,-0.1502 -0.1146,-0.3572 -0.1146,-0.586c0,-0.2288 0.0435,-0.4358 0.1146,-0.5859c0.0706,-0.1502 0.1682,-0.243 0.2762,-0.243z" fill="#000000" stroke-width="0.47368"/><path d="M245.38647,179.30076c0.0491,0 0.0938,0.0382 0.1255,0.0996c0.0323,0.0615 0.0523,0.1462 0.0523,0.24c0,0.0938 -0.02,0.1785 -0.0523,0.24c-0.0317,0.0614 -0.0764,0.0996 -0.1255,0.0996c-0.0492,0 -0.0938,-0.0382 -0.1255,-0.0996c-0.0323,-0.0615 -0.0524,-0.1462 -0.0524,-0.24c0,-0.0938 0.0201,-0.1785 0.0524,-0.24c0.0317,-0.0614 0.0763,-0.0996 0.1255,-0.0996z" fill="#ffffff" stroke-width="0.64678"/><path d="M248.10367,178.65626c0.1434,0 0.2727,0.1321 0.3671,0.3454c0.0934,0.2142 0.1519,0.5085 0.1519,0.8341c0,0.3255 -0.0585,0.6199 -0.1519,0.8341c-0.0944,0.2132 -0.2237,0.3453 -0.3671,0.3453c-0.1434,0 -0.2727,-0.1321 -0.367,-0.3453c-0.0934,-0.2142 -0.1519,-0.5086 -0.1519,-0.8341c0,-0.3256 0.0585,-0.6199 0.1519,-0.8341c0.0943,-0.2133 0.2236,-0.3454 0.367,-0.3454z" fill="#4088ed" stroke-width="0.94355"/><path d="M248.15217,179.04926c0.096,0 0.1827,0.0825 0.2455,0.216c0.0631,0.1335 0.1019,0.3175 0.1019,0.5208c0,0.2034 -0.0388,0.3874 -0.1019,0.5209c-0.0628,0.1335 -0.1495,0.216 -0.2455,0.216c-0.096,0 -0.1828,-0.0825 -0.2455,-0.216c-0.0631,-0.1335 -0.1019,-0.3175 -0.1019,-0.5209c0,-0.2033 0.0388,-0.3873 0.1019,-0.5208c0.0627,-0.1335 0.1495,-0.216 0.2455,-0.216z" fill="#000000" stroke-width="0.42105"/><path d="M248.24757,179.26816c0.0437,0 0.0833,0.0339 0.1115,0.0886c0.0288,0.0546 0.0466,0.1299 0.0466,0.2132c0,0.0834 -0.0178,0.1587 -0.0466,0.2133c-0.0282,0.0547 -0.0678,0.0886 -0.1115,0.0886c-0.0437,0 -0.0834,-0.0339 -0.1116,-0.0886c-0.0287,-0.0546 -0.0465,-0.1299 -0.0465,-0.2133c0,-0.0833 0.0178,-0.1586 0.0465,-0.2132c0.0282,-0.0547 0.0679,-0.0886 0.1116,-0.0886z" fill="#ffffff" stroke-width="0.57492"/></g><path d="M238.91669,176.15477c0,0.46024 -0.19898,0.83333 -0.44444,0.83333c-0.24546,0 -0.44444,-0.3731 -0.44444,-0.83333c0,-0.46024 0.19898,-0.83333 0.44444,-0.83333c0.24546,0 0.44444,0.3731 0.44444,0.83333z" fill="#6fc0ff" stroke="none" stroke-width="0" stroke-linecap="butt"/><path d="M240.9278,180.07144c0,0.32217 -0.13929,0.58334 -0.31111,0.58334c-0.17182,0 -0.31111,-0.26117 -0.31111,-0.58334c0,-0.32217 0.13929,-0.58333 0.31111,-0.58333c0.17182,0 0.31111,0.26116 0.31111,0.58333z" fill="#6fc0ff" stroke="none" stroke-width="0" stroke-linecap="butt"/></g></g></svg>