<svg version="1.1" xmlns="http://www.w3.org/2000/svg" xmlns:xlink="http://www.w3.org/1999/xlink" width="32.54235" height="36.30996" viewBox="0,0,32.54235,36.30996"><defs><radialGradient cx="239.57579" cy="175.45661" r="1.31225" gradientUnits="userSpaceOnUse" id="color-1"><stop offset="0" stop-color="#f5ab87" stop-opacity="0.25098"/><stop offset="1" stop-color="#f5ab87" stop-opacity="0"/></radialGradient><radialGradient cx="244.84565" cy="175.02183" r="0.73225" gradientUnits="userSpaceOnUse" id="color-2"><stop offset="0" stop-color="#f5ab87" stop-opacity="0.25098"/><stop offset="1" stop-color="#f5ab87" stop-opacity="0"/></radialGradient></defs><g transform="translate(-223.86722,-162.48713)"><g data-paper-data="{&quot;isPaintingLayer&quot;:true}" fill-rule="nonzero" stroke-linejoin="miter" stroke-miterlimit="10" stroke-dasharray="" stroke-dashoffset="0" style="mix-blend-mode: normal"><g stroke="none" stroke-width="0" stroke-linecap="butt"><path d="M244.34215,191.85638c0.57928,1.06893 0.6814,2.04567 0.6814,2.04567c0,0 -1.63449,-0.48153 -3.18068,-1.25881c-0.96948,-0.48736 -2.51333,-2.45447 -2.51333,-2.45447c0,0 -1.04861,-1.15645 -0.04599,-1.09438c0.46672,0.02889 0.92198,0.02652 1.36339,0.07725c0.50683,0.05825 0.9954,0.1865 1.46212,0.5125c0,0 1.49529,0.81078 2.2331,2.17224z" fill="#54c81c"/><path d="M244.32313,194.29398c-0.12628,-0.37373 0.0743,-0.77907 0.44803,-0.90536c0.37373,-0.12628 0.77906,0.07431 0.90535,0.44803c0.12628,0.37373 -0.07431,0.77906 -0.44802,0.90535c-0.37373,0.12628 -0.77907,-0.07429 -0.90535,-0.44802z" fill="#ffffff"/></g><g stroke="none" stroke-width="0" stroke-linecap="butt"><path d="M238.49379,196.02546c-0.31319,1.17477 -0.90985,1.9548 -0.90985,1.9548c0,0 -0.85718,-1.47262 -1.44707,-3.09956c-0.36986,-1.02011 -0.1408,-3.5102 -0.1408,-3.5102c0,0 0.03219,-1.56073 0.71825,-0.82698c0.31937,0.34157 0.65187,0.65254 0.93784,0.99258c0.32836,0.39045 0.59534,0.81925 0.71064,1.37675c0,0 0.52987,1.61632 0.13099,3.11258z" fill="#54c81c"/><path d="M236.80569,197.78403c0.16492,-0.35836 0.58912,-0.51519 0.94749,-0.35027c0.35836,0.16492 0.51517,0.58911 0.35027,0.94748c-0.16492,0.35836 -0.58911,0.51518 -0.94747,0.35027c-0.35836,-0.16492 -0.5152,-0.58911 -0.35028,-0.94747z" fill="#ffffff"/></g><path d="M248.63016,178.13678c0,0 -2.27116,-0.25615 -3.58018,-0.1906c-1.30902,0.06555 -3.71424,0.2899 -3.71424,0.2899l-0.06235,-1.07988c0,0 2.48796,0.00968 4.17663,-0.0464c1.68867,-0.05607 3.30648,0.06577 3.30648,0.06577z" fill="#fba15d" stroke="none" stroke-width="0" stroke-linecap="butt"/><path d="M248.55365,179.19477c0,0 -2.28921,-0.0551 -3.74853,-0.07747c-1.45931,-0.02237 -3.84814,-0.25651 -3.84814,-0.25651l0.33003,-0.99393c0,0 2.16848,-0.03277 3.86085,-0.09523c1.69237,-0.06245 3.51162,0.10888 3.51162,0.10888z" fill="#fba15d" stroke="none" stroke-width="0" stroke-linecap="butt"/><path d="M238.24906,181.05591l1.39463,0.75368c0,0 -3.56275,3.32023 -3.58965,5.36462c-0.02852,0.64736 1.10697,4.96001 1.10697,4.96001c0,0 0.50406,2.5509 0.26934,3.14149c-0.29857,0.75126 -0.87074,0.22244 -1.11536,-0.32783c-0.24463,-0.55026 -0.22129,-1.97816 -0.33634,-2.89541c-0.13995,-1.11584 -1.63581,-5.18026 -1.63581,-5.18026z" fill="#ffffff" stroke="none" stroke-width="0" stroke-linecap="butt"/><path d="M236.43916,188.52772c0,0 -0.2933,-1.32229 0.17624,-2.42779c0.31703,-0.74644 2.36783,-3.56204 2.36783,-3.56204l1.9524,0.21325c0,0 -4.6821,3.87866 -3.11404,5.19074c0.48389,0.43098 3.29982,1.99115 3.29982,1.99115c0,0 1.92617,1.34614 2.23581,1.90112c0.39389,0.70596 -0.8355,0.64412 -1.1588,0.48545c0,0 -1.08902,-0.83052 -1.78984,-1.3216c-1.03597,-0.72595 -3.96942,-2.47029 -3.96942,-2.47029z" fill="#ffffff" stroke="none" stroke-width="0" stroke-linecap="butt"/><g stroke="none" stroke-width="0" stroke-linecap="butt"><path d="M252.96747,185.07328c-1.17073,-0.19117 -5.91058,0.24208 -5.91058,0.24208c0,0 4.62652,-0.6474 5.11912,-1.68885c0.49266,-1.04159 -2.90336,-3.04115 -1.95238,-2.80558c5.02268,1.2442 5.67396,4.38379 5.67396,4.38379c0,0 -1.7594,0.05974 -2.93012,-0.13143z" fill="#54c81c"/><path d="M238.68142,180.2248c0,0 4.28279,0.01639 7.08727,-0.08149c3.39819,-0.11861 6.5803,1.36838 7.39696,2.79615c0.59541,1.04096 -3.96892,2.58026 -6.17778,2.24089c-2.39256,-0.36759 -8.30644,-4.95556 -8.30644,-4.95556z" fill="#ffffff"/></g><g stroke="none" stroke-width="0" stroke-linecap="butt"><path d="M235.15286,184.00892c0,0 -2.19252,1.16317 -4.31608,1.91249c-1.17053,0.41303 -2.61054,0.44513 -3.87782,0.80687c-1.26728,0.36174 -3.09174,1.09937 -3.09174,1.09937c0,0 0.57885,-1.68083 1.23357,-2.35969c0.65472,-0.67887 3.56543,-2.97564 3.8189,-2.87911c0.25347,0.09653 6.23318,1.42007 6.23318,1.42007z" fill="#54c81c"/><path d="M232.56466,180.80097c3.67911,-1.11965 5.03462,-0.51063 5.73368,-0.80731c2.03258,-0.86262 1.67217,-0.47547 1.67217,-0.47547c0,0 -0.52642,2.90393 -6.46723,5.24671c-4.27602,1.68626 -7.05897,0.30057 -7.05897,0.30057c0,0 1.41312,-2.83195 6.12035,-4.2645z" fill="#ffffff"/></g><g stroke="none" stroke-width="0" stroke-linecap="butt"><path d="M229.24305,188.90808c0.53334,-1.90423 2.5465,-3.98658 2.5465,-3.98658l6.01919,3.13496c0,0 -3.90888,2.41622 -5.15373,3.48623c-1.24485,1.07002 -3.55321,2.43716 -3.55321,2.43716c0,0 -0.56426,-2.55285 0.14125,-5.07176z" fill="#54c81c"/><path d="M231.78953,184.92149c0.76078,-0.80064 1.42182,-2.42287 5.39913,-3.41078c2.71263,-0.67377 3.41374,-2.27394 3.41374,-2.27394l1.18981,0.45615c0,0 -0.66661,4.66308 -2.64883,7.11552c-1.85442,2.29431 -7.19643,4.01257 -8.72352,2.56178c-1.52709,-1.45079 0.60311,-3.64201 1.36968,-4.44873z" fill="#ffffff"/></g><path d="M246.29959,172.21303c0.07099,0.62682 -0.02639,1.26745 -0.22166,1.86429c-0.31822,0.99844 -0.96458,1.92117 -1.88988,2.43906c-0.46306,0.18534 -0.3934,0.17441 -0.84173,0.37929c-0.65649,0.43513 -1.60398,0.53129 -2.35436,0.52524c-0.60902,0.02731 -1.21763,-0.045 -1.80763,-0.19935c-0.37786,-0.11354 -0.79979,-0.16826 -1.11228,-0.42736c-0.28723,-0.246 -0.52352,-0.58652 -0.53374,-0.97644c-0.07713,-0.94626 -0.16315,-1.89334 -0.15456,-2.84309c0.01606,-0.26022 -0.00757,-0.54489 0.11732,-0.78251c0.102,-0.11144 0.59916,-3.66541 4.61343,-3.61456c3.83276,0.04854 4.16568,3.52167 4.18509,3.63544z" data-paper-data="{&quot;index&quot;:null}" fill="#f0e9bb" stroke="none" stroke-width="0.17188" stroke-linecap="butt"/><path d="M245.92531,167.79561c0.92264,-0.1296 1.58689,0.01494 1.97662,0.2999c0.05554,0.0404 0.02464,0.08245 0.09176,0.14781c0.08121,0.07917 0.30256,0.20028 0.26063,0.17042c0,0 -0.0804,0.15978 -0.07313,0.23526c0.00931,0.09595 0.13021,0.20764 0.03877,0.18422c0,0 0.06066,0.14096 0.04818,0.192c-0.13604,0.55747 -0.59031,1.27696 -1.1892,1.64663c0.32108,0.48822 -1.70852,-2.4459 -1.1536,-2.87623z" data-paper-data="{&quot;index&quot;:null}" fill="#ed3e67" stroke="none" stroke-width="0.17188" stroke-linecap="butt"/><path d="M244.91272,172.45016c0.24826,-0.04061 0.39401,0.08879 0.48279,0.36783c0.06208,0.19567 0.10361,0.48668 0.10168,0.75089c-0.00215,0.28487 -0.00214,0.45569 -0.03743,0.62631c-0.03467,0.16755 -0.10484,0.33684 -0.07917,0.3932c0.03723,0.08163 -0.06894,0.18503 -0.46418,0.27076c-0.25316,0.05494 -0.49978,0.09461 -0.71039,0.12755c-0.20734,0.00501 -0.31126,-1.13601 -0.18074,-1.43449c0.08213,-0.54868 0.28129,-0.89441 0.88745,-1.10205z" data-paper-data="{&quot;index&quot;:null}" fill="#ffffff" stroke="none" stroke-width="0.17188" stroke-linecap="butt"/><path d="M244.26474,172.69303c-0.57076,0.44788 -0.18008,2.25292 -0.18008,2.25292c0,0 -0.61678,-1.64896 0.05779,-2.33696c0.20811,-0.21225 0.32622,-0.32982 0.52276,-0.38144c0.27412,-0.07199 0.40114,0.00137 0.61027,0.18982c0.1163,0.10479 0.31509,0.43597 0.32553,0.75955c0.00241,0.07462 1.18793,0.07506 1.18793,0.07506c0,0 -0.84362,0.13613 -1.02375,0.25868c-0.172,0.11702 -0.05377,0.46302 -0.1514,0.75489c-0.09764,0.29187 -0.22168,0.41893 -0.22168,0.41893c0,0 0.14663,-0.42381 0.12964,-0.98414c-0.01271,-0.41935 -0.16873,-1.03677 -0.39571,-1.21444c-0.30301,-0.26417 -0.44533,-0.21652 -0.86131,0.20713z" data-paper-data="{&quot;index&quot;:null}" fill="#000000" stroke="none" stroke-width="0" stroke-linecap="butt"/><path d="M237.66502,172.06153l-0.15006,2.38751l0.23118,1.92547l0.26963,1.36258c0.03191,0.16018 -1.66188,-1.09868 -2.01231,-1.54455c-0.4337,-0.55165 -0.71203,-1.15503 -0.9877,-1.75935c-0.2011,-0.44036 -0.21787,-0.62079 -0.28169,-0.94074l-0.19792,-0.99332c-0.03764,-0.18873 -0.1297,-1.14859 0.05554,-1.31337c0.05258,-0.04674 0.71571,0.43369 0.79171,0.43185l0.55471,-0.01503c0.16458,-0.0043 0.65597,-0.35474 0.79845,-0.47012c0.10413,-0.08418 0.68165,-0.73402 0.74302,-1.36861l0.06066,-0.62774c0.0091,-0.094 -0.22749,-1.08037 -0.18984,-1.09806c0.07754,-0.03672 -0.79151,-1.08568 -0.71079,-1.12824c0.44914,-0.23752 0.99383,-0.54152 1.60531,-0.67561c0.96131,-0.21082 2.01354,-0.18003 2.5528,-0.17287c0.09196,0.00123 1.26336,0.04 1.96383,0.27628c1.10921,0.37407 1.73296,1.08578 1.77592,1.12485c0.6747,0.61321 1.17652,1.32729 1.52859,2.12871l0.19117,0.67786c0.09789,0.34697 0.43268,2.25637 0.2459,2.93157l-0.63726,2.30588c-0.1115,0.40383 -1.18132,2.29565 -1.39929,2.18569c-0.30543,-0.15374 -0.31157,-1.34611 -0.41529,-1.20004c-0.22994,0.32353 1.57657,-1.27012 1.66249,-1.71649c0.14679,-0.76316 0.4385,-1.48983 0.37345,-2.02725c-0.01237,-0.10147 -0.02219,-0.79569 -0.03365,-0.96365c-0.0089,-0.13278 -0.08981,-0.24089 -0.22319,-0.20652c-0.08879,0.02281 -0.2995,-0.08562 -0.43268,0.12632l-0.39452,0.62857c-0.06403,0.10178 -1.24791,1.95063 -1.30611,1.80978c-0.01074,-0.02619 0.22411,-0.61771 0.23679,-0.65699c0.07702,-0.23752 0.0851,-0.42265 0.00931,-0.33755c-0.19935,0.2238 -0.53374,0.81196 -0.53374,0.81196c-0.04787,0.07252 -0.57865,0.02752 -0.93696,-0.09706c-0.33336,-0.11589 -0.75284,-0.51829 -0.8586,-0.61762l-1.1491,-1.08026c-1.07934,-1.01418 -1.01009,-0.58049 -1.07321,-0.6976c0.04848,-0.07774 -0.77023,-0.10566 -0.96437,0.07437c-0.07733,0.07171 -0.31321,0.20888 -0.43473,0.27925c-0.16171,0.09348 -0.273,0.14882 -0.32742,0.24017z" data-paper-data="{&quot;index&quot;:null}" fill="#54c81c" stroke="none" stroke-width="0.17188" stroke-linecap="butt"/><path d="M233.618,170.48813c-0.60524,-0.20693 -1.16608,-0.76563 -1.41331,-1.24618c-0.02271,-0.04398 -0.00266,-0.18637 -0.00266,-0.18637c-0.07396,0.04153 0.00532,-0.08735 -0.0089,-0.17716c-0.01114,-0.07058 -0.11803,-0.19926 -0.11803,-0.19926c-0.02946,0.03662 0.13451,-0.12285 0.18677,-0.21307c0.04307,-0.07468 0.00645,-0.10638 0.04531,-0.15579c0.27219,-0.34615 0.81504,-0.62426 1.64562,-0.70845c1.08671,-0.10996 2.04092,0.68716 2.04092,1.07729c0,0 -1.3421,2.16219 -2.37571,1.80898z" data-paper-data="{&quot;index&quot;:null}" fill="#ed3e67" stroke="none" stroke-width="0.17188" stroke-linecap="butt"/><path d="M236.78885,169.37544c0.14873,-0.10392 -0.2908,1.37874 -0.67335,1.58566c-0.65792,0.35576 -0.58427,0.61772 -1.14634,0.44649c-0.12623,-0.03825 -0.37622,-0.26084 -0.73556,-0.40926c-0.41631,-0.17174 -0.78495,-0.41048 -0.64697,-0.48188l0.83016,-0.48649l1.23053,-1.368c0.01913,-0.02128 -0.2321,-0.2328 -0.62294,-0.50898c-0.27403,-0.19373 -0.6841,-0.42358 -1.00365,-0.54693c-0.18831,-0.07262 0.18862,-0.29081 0.72502,-0.44414c0.26002,-0.07437 0.53619,-0.17266 0.84439,-0.15527c0.53374,0.03027 0.92407,0.64195 1.06686,1.26203c0.13379,0.58069 0.03283,1.1757 0.13185,1.10676z" data-paper-data="{&quot;index&quot;:null}" fill="#54c81c" stroke="none" stroke-width="0.17188" stroke-linecap="butt"/><path d="M237.55926,169.33903c0.02669,1.21488 -1.17395,2.28982 -1.56224,2.26231l-0.61046,0.112l-0.86382,-0.51584c-0.22115,-0.13216 1.20331,0.07682 1.54997,-0.30379c0.22626,-0.24826 0.39156,-0.44004 0.42337,-0.53834c0.30175,-0.93737 0.26902,-1.70391 0.08317,-2.20339c-0.29203,-0.78485 -0.87763,-1.03648 -0.49661,-1.21774c0.90852,-0.43247 1.44738,1.07709 1.47663,2.40479z" data-paper-data="{&quot;index&quot;:null}" fill="#ead32e" stroke="none" stroke-width="0.17188" stroke-linecap="butt"/><path d="M245.55031,168.68592c0,0 -0.28078,-0.35003 -0.47912,-0.61997c-0.41376,-0.5631 -1.03731,-0.90177 -0.91773,-1.0596c0.09963,-0.06383 0.61128,0.07048 0.751,0.20181l0.28385,0.26656c0.49907,0.46889 0.69648,1.15033 0.6884,1.42938c-0.00348,0.1207 0.12418,0.34103 0.08071,0.47534c0,0 -0.32753,-0.41836 -0.40711,-0.69352z" data-paper-data="{&quot;index&quot;:null}" fill="#ead32e" stroke="none" stroke-width="0.17188" stroke-linecap="butt"/><path d="M245.1777,167.35512c0,0 1.0776,-0.03324 1.27083,0.26483c0.12847,0.19792 -0.04716,0.67561 0.10229,0.82587c0.18555,0.18658 0.46316,0.64738 0.61066,0.98636c0.04429,0.30993 0.15558,0.60666 0.02281,0.9524c0.054,0.30502 -0.70497,0.86587 -0.73258,0.76583l-0.37541,-1.35971c-0.09523,-0.34501 -0.31136,-1.04436 -0.3713,-1.18623z" data-paper-data="{&quot;index&quot;:null}" fill="#54c81c" stroke="none" stroke-width="0.17188" stroke-linecap="butt"/><path d="M240.22985,176.71893h-0.86877" data-paper-data="{&quot;index&quot;:null}" fill="none" stroke="#dfcfa3" stroke-width="0.36953" stroke-linecap="round"/><path d="M245.68705,183.0821c0.18966,0.14544 0.33443,0.62989 -0.5422,2.87373c-0.82307,1.96588 -3.12838,0.29297 -3.12838,0.29297c0,0 -1.93947,-1.82624 -1.9486,-3.20389c-0.00912,-1.37765 0.87844,-0.96481 1.91515,-1.84685c1.03671,-0.88204 3.70404,1.88403 3.70404,1.88403z" fill="#ffffff" stroke="none" stroke-width="0" stroke-linecap="butt"/><path d="M241.80875,185.97009c0,0 2.60043,0.80139 3.30244,-0.441c0.71241,-1.26079 0.2768,-2.30637 0.2768,-2.30637c0,0 -0.02159,-1.10726 1.5607,2.28684c0.34987,0.74805 -0.57466,1.13489 -0.90033,1.61258c-0.52715,0.77323 -1.11605,1.64144 -1.11605,1.64144c0,0 0.91806,-0.98261 -1.2942,-1.58011c-1.83788,-0.49639 -2.49604,-1.88004 -2.49604,-1.88004z" fill="#54c81c" stroke="none" stroke-width="0" stroke-linecap="butt"/><path d="M239.18175,176.71892h0.86877" data-paper-data="{&quot;index&quot;:null}" fill="none" stroke="#dfcfa3" stroke-width="0.36953" stroke-linecap="round"/><g data-paper-data="{&quot;index&quot;:null}" stroke="none" stroke-linecap="butt"><path d="M244.45757,174.1661c0,-0.5294 0.20288,-0.95856 0.45314,-0.95856c0.25026,0 0.45314,0.42916 0.45314,0.95856c0,0.5294 -0.20288,0.95856 -0.45314,0.95856c-0.25026,0 -0.45314,-0.42916 -0.45314,-0.95856z" fill="#008ae6" stroke-width="0"/><path d="M244.90604,173.34056c0.07892,-0.00736 0.1526,0.06999 0.20772,0.2009c0.05525,0.13092 0.09193,0.31542 0.09713,0.52227c0.00504,0.20696 -0.0224,0.39744 -0.07075,0.53808c-0.04848,0.14062 -0.11785,0.23143 -0.19677,0.23877c-0.07892,0.00736 -0.15262,-0.06999 -0.20772,-0.20089c-0.05525,-0.13093 -0.09195,-0.31542 -0.097,-0.52226c-0.00518,-0.20698 0.02225,-0.39746 0.07057,-0.5381c0.04848,-0.14063 0.11797,-0.23127 0.19679,-0.23878z" fill="#000000" stroke-width="0.0278"/><path d="M244.76161,173.57846c0.0419,-0.09781 0.10095,-0.15996 0.16695,-0.16302c0.06603,-0.00305 0.12675,0.05362 0.17136,0.14739c0.0448,0.0938 0.07346,0.22477 0.07549,0.37069c0.00218,0.14612 -0.02275,0.27957 -0.06482,0.37735c-0.04189,0.09781 -0.10094,0.15998 -0.16694,0.16303c-0.06603,0.00305 -0.12675,-0.05362 -0.17136,-0.1474c-0.0448,-0.0938 -0.07347,-0.22477 -0.0755,-0.37069c-0.00217,-0.14612 0.02276,-0.27956 0.06483,-0.37734z" fill="#ffffff" stroke-width="0.01811"/></g><path d="M244.95317,174.83291l0.45,-0.13333c0,0 -0.40244,0.8 -0.81666,0.8c-0.41422,0 -0.55,-0.53333 -0.55,-0.53333z" data-paper-data="{&quot;index&quot;:null}" fill="#f0e9bb" stroke="none" stroke-width="0" stroke-linecap="butt"/><path d="M246.04358,173.38044l0.10256,-0.15385l0.66667,0.02564z" data-paper-data="{&quot;index&quot;:null}" fill="#000000" stroke="none" stroke-width="0" stroke-linecap="butt"/><path d="M241.15937,175.20427c-0.25971,0 -0.60994,0.03376 -0.92479,0.01872c-0.49139,-0.02363 -0.93532,-0.15374 -0.93532,-0.15374c0,0 -0.34037,-0.32711 -0.32037,-1.01971c0.01782,-0.61715 0.3131,-1.38581 0.81319,-1.38581c0.35709,0 0.66262,0.1376 1.01899,0.65129c0.08756,0.12623 0.59849,1.86225 0.3483,1.88925z" data-paper-data="{&quot;index&quot;:null}" fill="#ffffff" stroke="none" stroke-width="0.17188" stroke-linecap="butt"/><g data-paper-data="{&quot;index&quot;:null}" stroke="none" stroke-linecap="butt"><path d="M240.20759,174.49943c0,-0.5294 0.20288,-0.95856 0.45313,-0.95856c0.25025,0 0.45313,0.42916 0.45313,0.95856c0,0.5294 -0.20288,0.95856 -0.45313,0.95856c-0.25025,0 -0.45313,-0.42916 -0.45313,-0.95856z" fill="#008ae6" stroke-width="0"/><path d="M240.65604,173.67388c0.07892,-0.00736 0.1526,0.07 0.20772,0.20091c0.05525,0.13092 0.09193,0.31542 0.09713,0.52227c0.00504,0.20696 -0.0224,0.39744 -0.07075,0.53808c-0.04848,0.14062 -0.11785,0.23142 -0.19677,0.23877c-0.07892,0.00736 -0.15261,-0.07 -0.20772,-0.20089c-0.05525,-0.13092 -0.09195,-0.31541 -0.097,-0.52225c-0.00518,-0.20699 0.02225,-0.39747 0.07057,-0.53811c0.04848,-0.14062 0.11796,-0.23126 0.19679,-0.23877z" fill="#000000" stroke-width="0.0278"/><path d="M240.51162,173.9118c0.0419,-0.0978 0.10095,-0.15994 0.16695,-0.16301c0.06603,-0.00305 0.12675,0.05362 0.17136,0.14739c0.0448,0.0938 0.07346,0.22477 0.07549,0.37069c0.00217,0.14612 -0.02276,0.27956 -0.06483,0.37735c-0.0419,0.0978 -0.10095,0.15998 -0.16695,0.16303c-0.06603,0.00305 -0.12675,-0.05361 -0.17136,-0.1474c-0.0448,-0.0938 -0.07346,-0.22477 -0.07549,-0.37069c-0.00217,-0.14612 0.02276,-0.27956 0.06483,-0.37735z" fill="#ffffff" stroke-width="0.01811"/></g><path d="M240.66044,175.27066l0.46708,-0.04595c0,0 -0.54629,0.70961 -0.95305,0.63138c-0.40676,-0.07822 -0.43938,-0.6276 -0.43938,-0.6276z" data-paper-data="{&quot;index&quot;:null}" fill="#f0e9bb" stroke="none" stroke-width="0" stroke-linecap="butt"/><path d="M240.55501,173.10453c-0.41598,-0.42365 -0.72904,-0.49569 -1.03205,-0.23153c-0.22698,0.17767 -0.383,0.79509 -0.39571,1.21444c-0.01699,0.56033 0.12964,0.98414 0.12964,0.98414c0,0 -0.12404,-0.12706 -0.22167,-0.41893c-0.09763,-0.29187 0.0206,-0.63787 -0.1514,-0.75489c-0.18012,-0.12255 -1.02374,-0.25869 -1.02374,-0.25869c0,0 1.18552,-0.00044 1.18793,-0.07506c0.01043,-0.32357 0.20922,-0.65476 0.32552,-0.75955c0.20913,-0.18845 0.43372,-0.26181 0.70783,-0.18982c0.19655,0.05163 0.36344,0.21798 0.57155,0.43023c0.67457,0.688 0.61877,2.11745 0.61877,2.11745c0,0 -0.14592,-1.60991 -0.71667,-2.05779z" data-paper-data="{&quot;index&quot;:null}" fill="#000000" stroke="none" stroke-width="0" stroke-linecap="butt"/><path d="M238.35292,165.50551c0.85701,-0.89061 3.25764,-2.32498 3.99699,-2.59968c0.72068,-0.26776 4.39039,-0.69218 7.12765,-0.17337c2.73727,0.51881 6.09993,2.69407 6.09993,2.69407c0,0 -3.92675,-0.23283 -6.21393,0.21305c-2.28717,0.44588 -2.23729,0.64933 -3.50723,1.36832c-1.26994,0.71898 -1.19588,1.26258 -1.19588,1.26258c0,0 -2.23811,-0.77099 -3.52581,-0.80848c-1.38621,-0.04036 -4.40144,-0.23966 -4.40144,-0.23966c0,0 0.57934,-0.63566 1.61972,-1.71683z" fill="#c27e34" stroke="none" stroke-width="0" stroke-linecap="butt"/><g stroke-width="0" stroke-linecap="butt"><path d="M255.09055,166.41957c-0.41026,-0.24867 -0.54122,-0.78283 -0.29255,-1.19307c0.24867,-0.41026 0.78284,-0.54123 1.19308,-0.29257c0.41026,0.24867 0.54122,0.78283 0.29255,1.19307c-0.24867,0.41026 -0.78285,0.54123 -1.19308,0.29257z" fill="#db7b04" stroke="none"/><path d="M256.00962,164.84404c0.14096,0.08545 -0.16054,0.47699 -0.40106,0.87378c-0.24053,0.39678 -0.3841,0.85044 -0.52506,0.765c-0.2147,-0.13015 -0.01555,-0.55012 0.22496,-0.9469c0.24053,-0.39678 0.46188,-0.83691 0.70117,-0.69186z" fill="#feeb00" stroke="#000000"/><path d="M256.24871,166.04826c0.15492,0.0939 0.00631,0.1233 -0.04065,0.20075c-0.04696,0.07746 -0.43703,-0.00591 -0.59193,-0.09981c-0.15492,-0.09389 0.01379,-0.21194 0.06076,-0.28939c0.04697,-0.07745 0.41693,0.09454 0.57183,0.18846z" fill="#000000" stroke="none"/><path d="M256.02599,165.29736c0.02469,-0.04073 0.01506,-0.15892 0.12365,-0.09309c0.10859,0.06583 0.26973,0.27587 0.24505,0.3166c-0.02468,0.04073 -0.10816,0.03527 -0.21676,-0.03056c-0.10859,-0.06583 -0.17664,-0.15221 -0.15194,-0.19294z" fill="#000000" stroke="none"/></g><path d="M240.88804,175.41056c0,0.32172 -0.83042,0.58253 -1.43843,0.58253c-0.6502,0 -1.15691,-0.24128 -1.18527,-0.78252c-0.01988,-0.37923 0.33363,-0.31664 0.72717,-0.20391c0.16813,0.04816 0.34356,0.10547 0.5003,0.14139c0.59098,0.13544 1.39624,-0.0592 1.39624,0.26252z" data-paper-data="{&quot;index&quot;:null}" fill="url(#color-1)" stroke="none" stroke-width="0" stroke-linecap="butt"/><path d="M244.1134,174.97578c0,-0.32172 0.40934,-0.00709 0.73911,-0.14253c0.08746,-0.03592 0.26535,-0.05323 0.35917,-0.10139c0.2196,-0.11272 0.49686,-0.49531 0.48577,-0.11608c-0.01583,0.54124 -0.41857,0.94252 -0.78139,0.94252c-0.33927,0 -0.80266,-0.26081 -0.80266,-0.58253z" data-paper-data="{&quot;index&quot;:null}" fill="url(#color-2)" stroke="none" stroke-width="0" stroke-linecap="butt"/><g stroke="none" stroke-linecap="butt"><path d="M242.59679,183.5739c-0.59842,-0.97277 -1.49297,-3.38343 -1.64627,-4.5322c-0.10656,-0.94049 -0.45177,-1.41853 -0.084,-1.33537c0.08038,0.01816 1.34377,-0.75854 1.80662,0.07431c0.37419,0.67362 1.98807,3.98194 2.07398,4.72843c0.05625,0.49053 -0.56635,0.89269 -1.0173,1.1161c-0.34868,0.17359 -0.93511,0.27033 -1.13302,-0.05127z" data-paper-data="{&quot;index&quot;:null}" fill="#c27e34" stroke-width="0.17188"/><g data-paper-data="{&quot;index&quot;:null}" stroke-width="0.17188"><path d="M244.71399,184.10764c0.17052,-0.44149 0.51328,-0.42022 0.6804,-0.34351c0.81079,0.40459 1.52498,1.33102 1.71243,2.143c-0.00719,-0.16851 -0.02242,0.81164 -0.86198,0.95471c-0.35939,0.07825 -0.96226,0.39918 -1.53013,0.56189l-0.5846,0.00487c-0.26864,0.00233 -0.4965,-0.33794 -0.43528,-0.629c0.00901,-0.04305 -0.17637,0.10876 -0.32959,0.01934c-0.2758,-0.16099 -0.58919,-0.60948 -0.48051,-0.87587c0.09508,-0.2337 -0.00897,-0.61395 0.24425,-0.86992c0.34146,-0.34516 0.29912,0.07187 0.65116,-0.09658c0.20928,-0.09999 0.9299,-0.85897 0.93386,-0.8689z" fill="#ffcfea"/><path d="M243.47296,182.39123c0.38376,-0.11736 0.82092,-0.40624 1.05659,-0.22907c0.42641,0.35997 0.79422,1.36821 0.8501,1.86777c0.04068,0.36383 -0.27156,0.30077 -0.63028,0.55406c-0.3587,0.25327 -0.45921,0.1797 -0.75774,0.41143c-0.29852,0.23172 -0.39085,0.2556 -0.61551,0.16386c-0.15546,-0.0633 -0.46336,-0.62737 -0.65688,-1.08805c-0.19351,-0.46067 -0.2587,-0.86388 -0.21705,-0.99246c0.06357,-0.19554 0.58703,-0.57019 0.97078,-0.68754z" fill="#fca03b"/></g><path d="M238.73245,180.80595c-0.34072,-0.38154 0.25363,-0.84992 0.2496,-1.67068c-0.01187,-0.71765 0.07346,-1.42384 0.40047,-1.69625c0.10087,-0.08398 0.74653,-0.13011 0.88289,-0.13011c0.17225,0 0.88459,-0.11068 1.1825,0.32006c0.07646,0.11077 0.43687,1.10653 0.36888,1.27888c-0.07151,0.18218 0.31105,1.66791 0.03494,1.91073c0,0 -2.70954,0.33034 -3.11928,-0.01263z" data-paper-data="{&quot;index&quot;:null}" fill="#c27e34" stroke-width="0.17188"/><path d="M238.94189,179.01072c-0.94789,0.80587 -0.65157,0.15022 -0.65157,0.15022c-0.38733,0.11227 0.08701,2.34336 -0.06238,1.94968c-0.194,-0.50824 -0.46926,0.30303 -1.44019,-0.00583c-1.04978,-0.33395 -0.69684,-2.07822 0.08271,-2.34288c1.23354,-0.41851 3.03461,-1.64291 3.38395,-1.44031c0.34931,0.20246 -0.55139,1.0155 -1.31251,1.68912z" data-paper-data="{&quot;index&quot;:null}" fill="#c27e34" stroke-width="0.17188"/><path d="M243.0479,177.75705c0,0.07887 -0.15013,0.01377 -0.40873,0.21233c-0.14014,0.10761 0.50942,0.10036 0.3122,0.24058c-0.3286,0.23362 -1.77904,-0.13437 -2.21704,-0.13437c-0.52894,0 -1.80761,0.20015 -2.22423,-0.07931c-0.1849,-0.12403 0.33133,-0.17621 0.19684,-0.28743c-0.24194,-0.20009 -0.18415,-0.25671 -0.18415,-0.3482c0,-0.51334 0.97452,-0.04775 2.16052,-0.04775c1.18599,0 2.3646,-0.0692 2.3646,0.44414z" data-paper-data="{&quot;index&quot;:null}" fill="#ffe340" stroke-width="0"/><path d="M241.72656,177.34591c0,0.07045 0.2485,0.31796 -0.02415,0.30777c-0.27264,-0.01019 -2.16581,-0.32046 -2.16581,-0.3909c0,-0.07045 0.60749,0.0066 1.10443,0.05762c0.79887,0.08202 1.08552,-0.04494 1.08552,0.02551z" data-paper-data="{&quot;index&quot;:null}" fill="#000000" stroke-width="0"/></g><path d="M239.72369,180.55164c0.00685,-0.00821 0.33098,-1.00334 0.31922,-1.23499c-0.01956,-0.38978 -0.36608,-0.15392 -0.22523,-0.61856c0.10446,-0.34458 0.48838,-0.4342 0.64857,-0.62911c0.18246,-0.22245 0.72609,-0.16049 0.999,0.00534c0.15161,0.09214 0.10642,0.32745 0.13998,0.29901c0.22676,-0.19246 0.63449,-0.15417 0.76039,0.08314l0.27416,0.51635c0.12741,0.57682 0.13237,1.25978 0.23474,1.61306c0.27407,0.80635 -0.58049,1.28658 -0.4289,1.21264c-0.80324,0.22191 -1.958,0.0352 -2.69993,-0.48501c-0.14705,-0.11041 -0.329,-0.40166 -0.02202,-0.76188z" data-paper-data="{&quot;index&quot;:null}" fill="#ffcfea" stroke="none" stroke-width="0.17188" stroke-linecap="butt"/><path d="M237.62332,180.27796c-0.0796,-0.39332 0.0005,-1.03204 0.14217,-1.18107c0.09322,-0.09786 0.4788,-0.23259 0.97604,-0.28186c0.49724,-0.04927 1.13987,-0.0472 1.26957,0.05935c0.18768,0.15384 0.21064,0.2464 0.14908,0.61926c-0.06157,0.37286 0.051,0.42619 -0.00085,0.86223c-0.05185,0.43605 0.1523,0.68058 -0.18698,0.8181c-0.46587,0.18881 -1.52758,0.34562 -2.04719,0.14214c-0.26803,-0.12283 -0.22224,-0.64482 -0.30184,-1.03815z" data-paper-data="{&quot;index&quot;:null}" fill="#fca03b" stroke="none" stroke-width="0.17188" stroke-linecap="butt"/><g data-paper-data="{&quot;index&quot;:null}" stroke="none" stroke-width="0" stroke-linecap="butt"><path d="M245.22494,170.84182c-0.0272,0.0846 -0.22274,0.30953 -0.37333,0.45584c-0.14004,0.13607 -0.23674,0.19704 -0.23674,0.19704l0.70783,0.6911l-0.47453,0.11067c0,0 -0.16626,-0.19144 -0.26912,-0.44545c-0.0973,-0.2403 -0.13289,-0.54164 -0.08623,-0.61715c0.12011,-0.19437 0.53784,-0.52556 0.59084,-0.69047c0.04759,-0.14803 -0.0633,-0.25984 -0.07249,-0.40957c-0.01392,-0.22658 0.05845,-0.46471 0.10373,-0.45016c0.04995,0.01606 0.21986,0.24078 0.256,0.46661c0.02758,0.17238 -0.10581,0.56664 -0.14596,0.69155z" fill="#671829"/><path d="M244.95977,170.09241c-0.02112,0.06568 -0.16668,0.81138 -0.7298,0.89736c-0.38965,0.05949 -0.61136,-0.53777 -0.61136,-0.53777l0.24353,-0.25757c0,0 0.076,0.71626 0.3281,0.7039c0.52105,-0.02554 0.31387,-1.11024 0.32317,-1.13916c0.04072,-0.12666 0.28934,-0.16001 0.39621,-0.12566c0.10686,0.03435 0.09087,0.33225 0.05016,0.45891z" fill="#671829"/><path d="M244.27915,169.09722c0,0 0.25282,-0.30657 0.34116,-0.27349c0.17388,0.06514 0.41718,0.57235 0.37334,0.70873c-0.01317,0.04098 -0.23053,0.1654 -0.49269,0.24257c-0.18015,0.05303 -0.39662,0.02805 -0.47193,-0.03622c-0.07015,-0.05987 -0.07378,-0.33155 0.05314,-0.44075c0.11366,-0.09777 0.35751,-0.01912 0.31693,-0.03216c-0.17427,-0.05601 -0.11996,-0.16869 -0.11996,-0.16869z" fill="#804046"/><path d="M245.96049,169.73254c-0.07163,0.08923 -0.37187,0.07384 -0.37187,0.07384l0.24754,0.13453l-0.28068,0.35179c0,0 -0.24767,-0.22646 -0.36318,-0.37452c-0.16809,-0.21545 -0.3091,-0.32856 -0.29593,-0.36954c0.04384,-0.13638 0.77616,-0.31418 0.95543,-0.26581c0.09107,0.02458 0.14646,0.40266 0.1087,0.44972z" data-paper-data="{&quot;index&quot;:null}" fill="#804046"/><path d="M245.15545,169.58206c-0.02862,0.08905 -0.1192,0.13959 -0.20232,0.11287c-0.08312,-0.02672 -0.12729,-0.12057 -0.09867,-0.20962c0.02862,-0.08905 0.1192,-0.13959 0.20232,-0.11287c0.08312,0.02672 0.12729,0.12057 0.09867,0.20962z" fill="#671829"/></g></g></g></svg>