<svg version="1.1" xmlns="http://www.w3.org/2000/svg" xmlns:xlink="http://www.w3.org/1999/xlink" width="23.69615" height="38.82752" viewBox="0,0,23.69615,38.82752"><defs><radialGradient cx="239.5347" cy="196.4127" r="7.81069" gradientUnits="userSpaceOnUse" id="color-1"><stop offset="0" stop-color="#d6feff" stop-opacity="0"/><stop offset="1" stop-color="#d6feff" stop-opacity="0.10196"/></radialGradient></defs><g transform="translate(-223.9544,-163.53736)"><g data-paper-data="{&quot;isPaintingLayer&quot;:true}" fill-rule="nonzero" stroke-linejoin="miter" stroke-miterlimit="10" stroke-dasharray="" stroke-dashoffset="0" style="mix-blend-mode: normal"><path d="M246.3958,199.84231l-0.9771,0.94309l-1.44719,0.57407c0,0 -2.65065,-0.07483 -3.82373,-0.15954c-0.60725,-0.04385 -3.12896,-1.03274 -3.12896,-1.03274c0,0 -1.28696,-1.12469 -2.28146,-1.57898c-0.44129,-0.20159 -1.89249,-0.54959 -1.89249,-0.54959l-1.13488,-0.77976c0,0 -0.60258,-1.28654 -0.61774,-1.31337c-0.13318,-0.23576 0.23866,-1.52675 0.23866,-1.52675c0,0 0.91548,-1.20733 1.33779,-1.17091c0.18151,0.01565 1.32774,-0.44402 1.32774,-0.44402c0,0 0.93919,0.29252 1.63768,0.43675c2.85199,0.58891 8.32826,1.58803 9.8939,3.28845c0.26371,0.2864 1.15467,0.8165 1.15467,0.8165c0,0 0.50899,1.17809 0.2765,1.40056c-0.1871,0.17903 -0.56339,1.09624 -0.56339,1.09624z" data-paper-data="{&quot;index&quot;:null}" fill="url(#color-1)" stroke-opacity="0.25098" stroke="#313040" stroke-width="2" stroke-linecap="butt"/><path d="M239.48183,178.7786c-0.18132,-0.75831 0.20682,-0.95338 0.493,-1.0371c0.28619,-0.08374 0.38406,-0.02095 0.56539,0.73736c0.18132,0.7583 0.20782,2.83447 0.20782,2.83447l0.10855,3.13746l-1.01882,-0.05653l-0.13192,-3.00057c0,0 -0.16065,-2.35008 -0.22401,-2.6151z" data-paper-data="{&quot;index&quot;:null}" fill="#fec267" stroke="none" stroke-width="0" stroke-linecap="butt"/><g data-paper-data="{&quot;index&quot;:null}"><g><path d="M242.90792,188.00494c0.00377,0.28833 -0.46839,1.58812 -0.5632,1.63493c-0.11509,0.05682 0.04654,0.06728 -0.16463,0.05726c-0.21116,-0.01003 -0.22511,-0.30469 -0.22511,-0.30469c0,0 -0.07259,0.38426 -0.39841,0.3843c-0.32581,0.00004 -0.49288,-0.31753 -0.49288,-0.31753c0,0 -0.17959,0.265 -0.43796,0.24861c-0.25836,-0.0164 -0.49357,-0.30924 -0.49357,-0.30924c0,0 -0.33971,0.33326 -0.55302,0.32219c-0.21331,-0.01108 -0.40215,-0.37126 -0.40215,-0.37126c0,0 -0.064,0.32663 -0.5091,0.29212c-0.34644,-0.02686 -0.43555,-0.49522 -0.38054,-1.15226c0.05574,-0.66604 0.10802,-1.36936 0.10357,-1.70941c-0.01348,-1.0305 1.03775,-1.33463 2.06826,-1.34811c0.48265,-0.00632 1.22291,0.1963 1.51833,0.74677c0.39595,0.73783 0.92326,1.27842 0.93043,1.82626z" fill="#fdfdfd" stroke="none" stroke-width="0" stroke-linecap="butt"/><path d="M240.87489,187.46888c0,0 0.65681,-0.00106 0.91941,0.29232c0.12422,0.13878 -0.0479,0.59177 -0.02005,0.97386c0.02784,0.38207 0.24439,0.79829 0.24439,0.79829" fill="none" stroke="#a4a4a4" stroke-width="0.125" stroke-linecap="round"/></g><path d="M240.19884,185.77434c-0.41249,0.03628 -1.48025,0.19085 -1.54219,-0.12561c-0.1257,-0.64225 0.36235,-0.67112 0.36235,-0.67112c0,0 -0.46657,-0.0037 -0.04279,-0.64461c0.16811,-0.25424 0.75366,-0.42207 1.27157,-0.43736c0.51791,-0.01529 1.48359,0.12338 1.56007,0.47265c0.05895,0.26922 -0.33792,0.45993 -0.33792,0.45993c0,0 0.33095,0.2655 0.34949,0.55002c-0.00474,0.29647 -1.2536,0.36382 -1.62062,0.39609z" fill="#fdfdfd" stroke="none" stroke-width="0" stroke-linecap="butt"/></g><path d="M236.93345,177.91101c0,0 0.84414,1.92369 1.50358,1.92369c0.65944,0 -1.06188,0.91077 -1.99003,2.27748c-0.92814,1.36671 -2.03425,3.64839 -2.03425,3.64839c0,0 -0.35268,-3.59223 0.00811,-5.02329c0.67719,-2.68608 2.5126,-2.82628 2.5126,-2.82628z" data-paper-data="{&quot;index&quot;:null}" fill="#02124a" stroke="none" stroke-width="0" stroke-linecap="butt"/><path d="M238.38207,190.24098c0,0 0.47322,-2.51458 0.55979,-4.156c0.08658,-1.64143 -0.17635,-3.11394 -0.17635,-3.11394l1.56689,0.06774l-0.69388,8.344z" data-paper-data="{&quot;index&quot;:null}" fill="#033397" stroke="none" stroke-width="0" stroke-linecap="butt"/><g data-paper-data="{&quot;index&quot;:null}" stroke="none" stroke-width="0" stroke-linecap="butt"><path d="M246.20782,197.05468c0,0 -1.31335,1.12543 -4.48749,0.52199c-0.69072,-0.1313 -2.2775,-0.60291 -2.2775,-0.60291l0.05496,-0.55691l-1.32321,-0.37644l-0.10753,0.39126c0,0 -0.90983,-0.39465 -1.13911,-0.53956c-0.54228,-0.34277 -1.2742,-0.87276 -1.2742,-0.87276c0,0 0.13967,-1.45379 0.96295,-2.71796c0.32484,-0.49881 1.03499,-0.99698 5.86859,0.82513c4.17786,1.10926 3.72252,3.92817 3.72252,3.92817z" fill="#e90023"/><path d="M246.15475,197.05191l-0.04623,0.39359l-0.98327,-0.24032l-0.7451,0.1878l0.08538,0.75864l-1.03158,-0.95688l0.645,-0.96169l1.74659,-0.38364l0.32916,1.20248z" fill="#948a92"/><path d="M238.16521,195.98377c0,0 0.04444,-0.59098 -0.05348,-1.20917c-0.09791,-0.6182 -0.47613,-1.51525 -0.47613,-1.51525l0.11505,-1.23631l1.4232,0.02145c0,0 0.45204,0.97358 0.50822,2.1495c0.05295,1.10838 -0.16577,2.28137 -0.16577,2.28137z" fill="#deca55"/><path d="M245.75558,196.19666l-1.373,0.64169l0.19026,1.30735l-1.83338,0.16236l-3.33256,-1.30826l0.12724,-1.28693l2.90987,1.36144l0.70026,-1.76274l2.10384,-0.82739l0.88023,1.39687l0.24395,1.3287l-0.29523,0.29539z" fill="#edeeee"/><g><path d="M245.4873,197.81358c-0.43683,0.13702 -0.75251,0.08947 -0.93245,-0.2053c-0.17994,-0.29478 -0.10443,-0.69433 0.28081,-0.89246c0.38524,-0.19811 0.81311,-0.08948 0.99305,0.20529c0.17994,0.29478 -0.03455,0.79622 -0.34141,0.89247z" fill="#ece09c"/><path d="M245.59738,197.83212c-0.31743,0.19269 -0.82878,0.086 -0.95495,-0.17726c-0.13236,-0.27617 0.23342,-0.5841 0.45993,-0.68589c0.25683,-0.13209 0.62286,-0.04954 0.74282,0.14696c0.11997,0.19651 0.009,0.5841 -0.24781,0.71619z" fill="#000000"/></g><path d="M239.671,194.87866c0,0 -0.0279,0.54442 -0.06716,0.81247c-0.03846,0.26259 -0.16603,0.77978 -0.16603,0.77978l-0.34611,-0.1418l0.51487,-2.69101c0,0 0.07825,0.50837 0.08976,0.73001c0.00963,0.18536 -0.02531,0.51055 -0.02531,0.51055z" fill="#6a2625"/><path d="M235.91365,193.93763c0,0 1.01413,0.36088 0.91408,0.82038c-0.10004,0.4595 -1.04705,-0.20962 -1.04705,-0.20962l0.13297,-0.61075z" fill="#eac763"/><path d="M240.64756,192.3767c-0.04475,0.50695 -1.01414,0.65606 -1.85947,0.66733c-0.84533,0.01128 -1.97561,-0.06583 -2.00902,-0.61569c-0.06778,-1.1159 0.52747,-1.10187 0.52747,-1.10187c0,0 -0.56493,-0.06704 0.03299,-1.10918c0.23719,-0.41342 0.96891,-0.6246 1.59854,-0.58337c0.62964,0.04121 1.78165,0.40426 1.82837,1.01218c0.03601,0.46857 -0.47003,0.74345 -0.47003,0.74345c0,0 0.36613,0.49765 0.35116,0.98715z" fill="#fdfdfd"/></g><path d="M238.74658,184.03588c0,0 -0.19123,0.96987 -1.20936,1.59486c-1.01812,0.62499 -3.25715,1.14695 -3.25715,1.14695c0,0 2.16872,-1.74449 2.74613,-2.46427c0.48097,-0.59956 0.48215,-1.56001 0.48215,-1.56001l1.23824,1.28246z" data-paper-data="{&quot;index&quot;:null}" fill="#02124a" stroke="none" stroke-width="0" stroke-linecap="butt"/><path d="M237.61399,183.9466c-0.79878,-0.22367 -1.37808,-0.70449 -1.07252,-2.54092c0.17041,-1.02415 -0.28641,-2.61018 -0.0286,-3.53088c0.43137,-1.54049 2.28681,-0.20924 3.62739,0.16616c1.34058,0.37539 1.47123,2.1261 1.03985,3.66659c-0.43138,1.5405 -2.22555,2.61445 -3.56612,2.23905z" data-paper-data="{&quot;index&quot;:null}" fill="#033397" stroke="none" stroke-width="0" stroke-linecap="butt"/><path d="M241.39727,181.42394c-0.31981,1.02594 -1.33078,2.27794 -2.57985,2.07894c-1.12095,-0.1786 -0.93778,-3.77207 -0.14214,-4.49443c0.86212,-0.78271 2.06089,-0.65466 2.29193,-0.23076c0.45565,0.836 0.88166,1.19749 0.43005,2.64625z" data-paper-data="{&quot;index&quot;:null}" fill="#fec267" stroke="none" stroke-width="0" stroke-linecap="butt"/><path d="M235.74982,191.15758c0,0 0.6719,-2.70653 0.86719,-4.49532c0.19529,-1.78879 -0.00227,-3.42732 -0.00227,-3.42732l1.7107,0.2297l-1.27047,9.06793z" data-paper-data="{&quot;index&quot;:null}" fill="#033397" stroke="none" stroke-width="0" stroke-linecap="butt"/><g data-paper-data="{&quot;index&quot;:null}" fill="#033397" stroke-width="0"><path d="M238.11073,178.17691c-2.93513,0 -5.31451,-2.37939 -5.31451,-5.31451c0,-2.93513 2.37939,-5.31452 5.31451,-5.31452c2.93513,0 5.31451,2.3794 5.31451,5.31452c0,2.93513 -2.37939,5.31451 -5.31451,5.31451z" stroke="none" stroke-linecap="butt"/><path d="M236.08379,177.76749c0,0 -2.19401,-0.10199 -3.778,1.33199c-1.584,1.43399 -2.94934,4.52009 -2.94934,4.52009c0,0 -0.94144,-1.50479 -0.83416,-4.21751c0.09089,-2.29854 1.34186,-4.14951 1.34186,-4.14951c0,0 -1.88046,0.41496 -2.70439,0.98256c-1.37019,0.9439 -3.1519,3.06078 -3.1519,3.06078c0,0 -0.45343,-3.03559 1.28092,-6.60284c1.49424,-3.07337 4.31253,-4.24538 4.31253,-4.24538c0,0 -1.29448,-0.94075 -2.38517,-1.24577c-1.3247,-0.37047 -2.89155,-0.24595 -2.89155,-0.24595c0,0 3.7992,-4.14677 9.8224,-3.30609c8.76089,1.1835 9.36625,8.39814 9.36625,8.39814" stroke="#000000" stroke-linecap="round"/></g><path d="M233.38695,169.22577c0,0 -0.212,-1.03955 -0.22167,-1.94582c-0.00966,-0.90627 -0.07522,-2.13511 0.17648,-2.29118c0.25869,-0.1604 0.42021,-0.12845 1.59988,0.58408c1.17965,0.71253 2.82337,2.0609 2.82337,2.0609" data-paper-data="{&quot;index&quot;:null}" fill="#033397" stroke="#000000" stroke-width="0.125" stroke-linecap="round"/><path d="M241.34708,167.54531c0,0 1.00091,-0.09148 1.57345,-0.21722c0.52546,-0.11539 1.48619,-0.54415 1.73266,-0.50884c0.29535,0.0423 -0.15106,1.41546 -0.38103,2.0995c-0.26318,0.78285 -1.11193,2.34129 -1.11193,2.34129" data-paper-data="{&quot;index&quot;:null}" fill="#033397" stroke="#000000" stroke-width="0" stroke-linecap="round"/><path d="M243.24863,171.12736c0,0 0.35031,1.1553 0.19632,2.22034c-0.15398,1.06503 -0.89447,2.60829 -0.89447,2.60829c0,0 -0.73402,-0.55454 -0.87176,-0.58725c-1.1172,-0.26533 -2.22555,1.07957 -3.45707,0.81854c-1.23153,-0.26101 -1.86153,-1.20024 -2.30487,-2.03529c-0.44334,-0.83506 -0.34845,-2.30846 -0.06576,-2.9653c0.40845,-0.77216 1.12628,-0.92354 1.44964,-0.88483c0.37602,0.04501 1.19347,0.17193 1.99891,1.25606c0.79632,1.07182 1.0255,2.9946 1.82419,3.41323c0.24009,0.25084 0.64272,-0.29459 0.64272,-0.29459c0,0 0.15128,0.16808 0.24476,0.00745c0.29347,-0.50421 0.29607,-0.53198 0.59765,-1.36887c0.30158,-0.83689 0.63976,-2.18777 0.63976,-2.18777z" data-paper-data="{&quot;index&quot;:null}" fill="#fdfdfd" stroke="#000000" stroke-width="0" stroke-linecap="butt"/><path d="M242.49137,176.11389c0.01603,0.39315 -0.30941,0.75944 -1.20504,1.24514c-0.73552,0.39888 -2.00675,0.77923 -2.93059,0.80345c-3.87733,-0.09999 -4.52633,-3.03904 -3.19639,-3.39707c1.65129,-0.47215 2.12543,1.32797 3.58526,1.26901c0.97159,-0.03924 1.96313,-0.81799 2.6248,-0.74822c0.85352,0.07728 1.11205,0.58486 1.12196,0.8277z" data-paper-data="{&quot;index&quot;:null}" fill="#fec267" stroke="#000000" stroke-width="0" stroke-linecap="butt"/><path d="M242.9528,170.03806c0,0 0.75931,-0.55885 0.96279,-0.06909c0.13326,0.32072 -0.30905,2.33792 -0.30905,2.33792" data-paper-data="{&quot;index&quot;:null}" fill="#033397" stroke="#000000" stroke-width="0.125" stroke-linecap="round"/><path d="M243.76035,175.07563c0.15628,0.44795 -0.12968,0.78732 -0.96137,0.99982c-0.5252,0.13419 -1.269,0.15671 -1.269,-0.23073c0,-0.23363 0.65205,-0.30708 1.11519,-0.46146c0.46315,-0.15438 1.06752,-0.44427 1.11519,-0.30764z" data-paper-data="{&quot;index&quot;:null}" fill="#0d1114" stroke="none" stroke-width="0" stroke-linecap="butt"/><path d="M243.21141,175.39469c0.01429,0.07663 -0.16049,0.17349 -0.39037,0.21635c-0.22987,0.04287 -0.42781,0.01549 -0.4421,-0.06114c-0.01429,-0.07663 0.16049,-0.17349 0.39037,-0.21635c0.22987,-0.04287 0.42781,-0.01549 0.4421,0.06114z" data-paper-data="{&quot;index&quot;:null}" fill="#fdfdfd" stroke="none" stroke-width="0" stroke-linecap="butt"/><path d="M236.69491,167.58432c0,0 -0.52979,0.14524 -1.49277,0.63353c-1.05335,0.53412 -1.14178,0.96602 -1.14178,0.96602c0,0 -0.57594,-2.98007 -0.09409,-3.10501c0.69139,-0.17927 2.72865,1.50546 2.72865,1.50546z" data-paper-data="{&quot;index&quot;:null}" fill="#fec267" stroke="none" stroke-width="0" stroke-linecap="butt"/><g data-paper-data="{&quot;index&quot;:null}" stroke="none" stroke-width="0" stroke-linecap="butt"><path d="M239.32563,172.27434c0.27916,0.04359 0.32192,0.68272 0.20297,1.4443c-0.11895,0.76158 -0.35457,1.35721 -0.63371,1.31362c-0.31014,-0.04844 -0.32192,-0.68272 -0.20297,-1.4443c0.11895,-0.76158 0.32358,-1.36207 0.63371,-1.31363z" fill="#005c2d"/><path d="M239.2046,173.04904c0.11124,0.01736 0.16242,0.28118 0.11431,0.58924c-0.04811,0.30805 -0.1773,0.54369 -0.28854,0.52632c-0.11124,-0.01737 -0.16242,-0.28118 -0.11431,-0.58924c0.04811,-0.30806 0.1773,-0.5437 0.28854,-0.52633z" fill="#000000"/><path d="M239.2385,172.83212c0.11125,0.01739 0.17867,0.17715 0.15061,0.35684c-0.02806,0.1797 -0.141,0.31129 -0.25224,0.29392c-0.11124,-0.01739 -0.17867,-0.17715 -0.15061,-0.35684c0.02807,-0.1797 0.14101,-0.31129 0.25225,-0.29392z" fill="#ffffff"/></g><g data-paper-data="{&quot;index&quot;:null}" stroke="none" stroke-width="0" stroke-linecap="butt"><path d="M243.07502,174.23749c-0.15669,0.50137 -0.37537,0.87918 -0.55913,0.82175c-0.20417,-0.06381 -0.14838,-0.49251 0.00831,-0.99389c0.15669,-0.50137 0.35496,-0.88556 0.55913,-0.82175c0.18377,0.05742 0.14838,0.49251 -0.00831,0.99389z" fill="#005c2d"/><path d="M242.94177,174.16226c-0.06339,0.2028 -0.17413,0.34866 -0.24737,0.32577c-0.07324,-0.02288 -0.08122,-0.20585 -0.01784,-0.40865c0.06339,-0.2028 0.17413,-0.34866 0.24737,-0.32577c0.07324,0.02288 0.08122,0.20585 0.01784,0.40865z" fill="#000000"/><path d="M242.96854,173.61082c0.07324,0.02289 0.10264,0.13735 0.06566,0.25565c-0.03698,0.1183 -0.12631,0.19565 -0.19955,0.17276c-0.07324,-0.02289 -0.10264,-0.13735 -0.06566,-0.25565c0.03698,-0.11831 0.12631,-0.19566 0.19955,-0.17277z" fill="#ffffff"/></g><path d="M235.9424,176.40466c0,0 0.56334,0.46781 1.01955,0.57653c0.45621,0.10872 1.30721,0.22243 1.30721,0.22243c0,0 -1.00797,0.02399 -1.52383,-0.09895c-0.51585,-0.12293 -0.80293,-0.70001 -0.80293,-0.70001z" data-paper-data="{&quot;index&quot;:null}" fill="#000000" stroke="#000000" stroke-width="0" stroke-linecap="butt"/><path d="M242.12337,172.30742c0.18644,0 0.50637,0.92835 0.50637,0.92835c0,0 -0.1359,0.46568 -0.25977,0.7493c-0.12389,0.28363 -0.38164,0.71916 -0.38164,0.71916c0,0 -0.30382,0.09779 -0.30382,-0.48949c0,-0.58729 0.2524,-1.90733 0.43885,-1.90733z" data-paper-data="{&quot;index&quot;:null}" fill="#033397" stroke="none" stroke-width="0" stroke-linecap="butt"/><g data-paper-data="{&quot;index&quot;:null}" stroke="none" stroke-width="0" stroke-linecap="butt"><path d="M244.04451,197.92419c0,0 -1.38876,1.19003 -4.74513,0.55195c-0.73038,-0.13884 -2.40826,-0.63752 -2.40826,-0.63752l0.05812,-0.58888l-1.39918,-0.39805l-0.1137,0.41372c0,0 -0.96206,-0.41731 -1.20451,-0.57054c-0.57341,-0.36245 -1.34735,-0.92287 -1.34735,-0.92287c0,0 0.14769,-1.53726 1.01823,-2.87401c0.34349,-0.52745 1.09442,-1.05422 6.20553,0.87251c4.41772,1.17295 3.93624,4.1537 3.93624,4.1537z" fill="#e90023"/><path d="M243.98841,197.92125l-0.04889,0.41618l-1.03972,-0.25411l-0.78788,0.19858l0.09028,0.8022l-1.0908,-1.01182l0.68203,-1.0169l1.84687,-0.40567l0.34806,1.27152z" fill="#948a92"/><path d="M235.54017,196.79178c0,0 0.04699,-0.62491 -0.05655,-1.27859c-0.10354,-0.65369 -0.50347,-1.60224 -0.50347,-1.60224l0.12166,-1.30729l1.50491,0.02268c0,0 0.478,1.02947 0.5374,2.27291c0.05599,1.17201 -0.17529,2.41235 -0.17529,2.41235z" fill="#deca55"/><path d="M243.56631,197.01692l-1.45183,0.67853l0.20118,1.38241l-1.93864,0.17168l-3.52389,-1.38338l0.13455,-1.36082l3.07693,1.43961l0.74047,-1.86395l2.22463,-0.8749l0.93077,1.47707l0.25796,1.40499l-0.31218,0.31235z" fill="#edeeee"/><g><path d="M243.64365,197.78295c0.19027,0.31171 -0.03653,0.84193 -0.36101,0.94371c-0.4619,0.14488 -0.79571,0.0946 -0.98598,-0.21709c-0.19027,-0.31171 -0.11043,-0.73419 0.29693,-0.9437c0.40736,-0.20948 0.8598,-0.09461 1.05007,0.21708z" fill="#ece09c"/><path d="M243.39904,198.74626c-0.33565,0.20376 -0.87636,0.09094 -1.00978,-0.18744c-0.13996,-0.29203 0.24682,-0.61764 0.48634,-0.72527c0.27157,-0.13967 0.65861,-0.05238 0.78546,0.1554c0.12686,0.20779 0.00953,0.61763 -0.26203,0.75731z" fill="#000000"/></g><path d="M237.13242,195.62322c0,0 -0.0295,0.57568 -0.07102,0.85912c-0.04067,0.27767 -0.17556,0.82455 -0.17556,0.82455l-0.36598,-0.14994l0.54443,-2.84551c0,0 0.08274,0.53757 0.09491,0.77193c0.01019,0.196 -0.02676,0.53986 -0.02676,0.53986z" fill="#6a2625"/><path d="M233.15934,194.62817c0,0 1.07236,0.3816 0.96656,0.86748c-0.10579,0.48589 -1.10717,-0.22165 -1.10717,-0.22165l0.1406,-0.64581z" fill="#eac763"/><path d="M238.16504,192.97763c-0.04732,0.53606 -1.07236,0.69374 -1.96623,0.70565c-0.89387,0.01193 -2.08903,-0.06961 -2.12436,-0.65104c-0.07167,-1.17997 0.55775,-1.16513 0.55775,-1.16513c0,0 -0.59736,-0.0709 0.03489,-1.17287c0.25081,-0.43715 1.02454,-0.66046 1.69032,-0.61686c0.66579,0.04358 1.88394,0.42747 1.93334,1.07029c0.03807,0.49548 -0.49702,0.78614 -0.49702,0.78614c0,0 0.38715,0.52621 0.37132,1.04382z" fill="#fdfdfd"/></g><path d="M237.22475,178.15249c0.27944,0.10019 0.65194,0.31948 0.41083,1.08591c-0.08425,0.26786 -0.43043,2.66355 -0.43043,2.66355l-0.36881,3.06253l-1.02272,0.006l0.35628,-3.20372c0,0 0.19045,-2.12235 0.43156,-2.88878c0.2411,-0.76643 0.3439,-0.82568 0.62331,-0.72548z" data-paper-data="{&quot;index&quot;:null}" fill="#fec267" stroke="none" stroke-width="0" stroke-linecap="butt"/><g data-paper-data="{&quot;index&quot;:null}" fill="#fdfdfd" stroke="none" stroke-width="0" stroke-linecap="butt"><g><path d="M238.67628,188.77884c-0.02473,0.28729 -0.62306,1.53405 -0.72204,1.57126c-0.12014,0.04519 0.03968,0.07158 -0.16947,0.04072c-0.20914,-0.03086 -0.19389,-0.32545 -0.19389,-0.32545c0,0 -0.11022,0.3752 -0.43445,0.34305c-0.32423,-0.03215 -0.45909,-0.36468 -0.45909,-0.36468c0,0 -0.20489,0.24594 -0.46039,0.20411c-0.25548,-0.04186 -0.46059,-0.35651 -0.46059,-0.35651c0,0 -0.37099,0.29804 -0.58216,0.26594c-0.21116,-0.0321 -0.36349,-0.40919 -0.36349,-0.40919c0,0 -0.09599,0.31871 -0.53549,0.24037c-0.34209,-0.06097 -0.38448,-0.53583 -0.26479,-1.18423c0.12131,-0.65727 0.24283,-1.35197 0.27203,-1.6908c0.08844,-1.02678 1.16459,-1.22553 2.19138,-1.13708c0.48092,0.04143 1.19752,0.31622 1.43709,0.89319c0.32111,0.77334 0.7924,1.36341 0.74538,1.90928z"/></g><path d="M236.20092,186.29142c-0.41406,-0.00467 -1.49186,0.04359 -1.52222,-0.27743c-0.06162,-0.6515 0.42691,-0.63201 0.42691,-0.63201c0,0 -0.46389,-0.04981 0.02115,-0.64568c0.19241,-0.2364 0.79169,-0.34553 1.30857,-0.30955c0.51688,0.03598 1.46413,0.26941 1.50571,0.62454c0.03206,0.27372 -0.38171,0.42427 -0.38171,0.42427c0,0 0.30306,0.29691 0.29341,0.58187c-0.03402,0.29455 -1.28344,0.23812 -1.65184,0.23397z"/></g></g></g></svg>