<svg version="1.1" xmlns="http://www.w3.org/2000/svg" xmlns:xlink="http://www.w3.org/1999/xlink" width="222.59923" height="136.7733" viewBox="0,0,222.59923,136.7733"><g transform="translate(-129.60758,-146.53025)"><g data-paper-data="{&quot;isPaintingLayer&quot;:true}" fill-rule="nonzero" stroke-linejoin="miter" stroke-miterlimit="10" stroke-dasharray="" stroke-dashoffset="0" style="mix-blend-mode: normal"><g data-paper-data="{&quot;index&quot;:null}"><g stroke="none" stroke-width="0" stroke-linecap="butt"><path d="M258.16729,198.76101c0,0 -19.72243,9.19814 -26.62062,12.96122c-6.89825,3.76307 -16.93043,10.7964 -16.93043,10.7964c0,0 -1.06171,-15.97789 11.25258,-29.99742c14.16068,-16.12159 31.32744,-15.76953 31.32744,-15.76953c0,0 -2.76919,6.78103 -2.32028,10.5539c0.45287,3.80619 3.29134,11.4555 3.29134,11.4555z" data-paper-data="{&quot;index&quot;:null}" fill="#f8b820"/><path d="M291.795,202.31691c-1.70976,0.34177 -14.60209,-4.17608 -19.75611,-4.76918c-5.15401,-0.59311 -13.83494,1.33426 -13.83494,1.33426c0,0 -3.46762,-5.95085 -3.75813,-10.61879c-0.29051,-4.66787 2.78799,-11.58483 2.78799,-11.58483c0,0 14.59219,0.92169 22.80186,5.83615c15.04324,9.00524 13.41278,19.47203 11.75932,19.80253z" fill="#ffffff"/></g><path d="M253.08005,181.30605l4.16446,-0.11029" fill="none" stroke="#808080" stroke-width="0.5" stroke-linecap="round"/><path d="M253.52915,190.61012l3.64377,-0.55583" fill="none" stroke="#808080" stroke-width="0.5" stroke-linecap="round"/><path d="M258.66263,197.80003l-3.34635,0.63539" fill="none" stroke="#808080" stroke-width="0.5" stroke-linecap="round"/></g><g data-paper-data="{&quot;index&quot;:null}"><g stroke="none" stroke-width="0" stroke-linecap="butt"><path d="M160.42328,224.92825c0,0 -0.46672,-8.18088 -1.5741,-11.86539c-1.09759,-3.65225 -5.04118,-10.14564 -5.04118,-10.14564c0,0 16.12861,-6.7106 31.98299,-2.66547c21.88477,5.58377 31.37335,19.66106 31.37335,19.66106c0,0 -11.02543,5.47403 -19.45577,5.64825c-8.43025,0.17412 -37.28545,-0.63284 -37.28545,-0.63284z" fill="#f8b820"/><path d="M129.89278,231.60091c-1.60086,-2.05294 3.92579,-11.76376 6.92076,-15.09733c6.25639,-8.32341 16.86011,-13.5818 16.86011,-13.5818c0,0 4.88023,5.85788 6.30771,10.90489c1.42758,5.04708 0.64419,11.16909 0.64419,11.16909c0,0 -14.90633,3.47232 -16.29608,4.16938c-4.3206,2.16706 -12.99306,4.28698 -14.4367,2.43571z" fill="#ffffff"/></g><path d="M162.09525,223.00083l-3.48789,0.52859" fill="none" stroke="#808080" stroke-width="0.5" stroke-linecap="round"/><path d="M157.16896,215.1832l3.54542,-0.95503" fill="none" stroke="#808080" stroke-width="0.5" stroke-linecap="round"/><path d="M154.40814,207.14177l3.18125,-1.42206" fill="none" stroke="#808080" stroke-width="0.5" stroke-linecap="round"/></g><g data-paper-data="{&quot;index&quot;:null}"><g><path d="M172.88862,228.31761c4.07654,-1.5222 20.95379,-0.19408 24.39792,5.00737c0.93959,1.41882 -0.28965,16.06368 -6.92418,29.15057c-8.24631,16.26612 -18.59035,22.5165 -20.51434,20.44422c-7.80142,-7.05165 -6.32157,-33.81881 -5.4788,-38.80526c0.84267,-4.98633 4.44281,-14.27473 8.51935,-15.79693z" fill="#c01515" stroke="none" stroke-width="0" stroke-linecap="butt"/><path d="M163.78422,255.03248c0,0 -0.08188,-2.0843 -0.0116,-3.41533c0.07027,-1.33104 0.53118,-6.4229 0.53118,-6.4229c0,0 10.29215,-0.77467 16.64199,0.61023c6.34975,1.3848 13.48649,5.96059 13.48649,5.96059c0,0 -1.61058,5.52398 -3.0341,8.5684c-1.42342,3.04439 -2.91843,5.21246 -2.91843,5.21246c0,0 -6.72212,-5.4067 -11.46896,-7.39384c-4.74684,-1.98714 -13.22645,-3.1196 -13.22645,-3.1196z" fill="#a8c8d8" stroke="none" stroke-width="0" stroke-linecap="butt"/><path d="M195.04428,236.88755c0,0 -4.9263,15.59827 -9.73262,24.83016c-4.80632,9.23189 -14.23492,20.93684 -14.23492,20.93684" fill="none" stroke="#000000" stroke-width="0.25" stroke-linecap="round"/><path d="M195.34689,239.20365l-2.48586,-1.37356" fill="none" stroke="#808080" stroke-width="0.5" stroke-linecap="round"/><path d="M189.42528,245.36091l3.27854,1.73526" fill="none" stroke="#808080" stroke-width="0.5" stroke-linecap="round"/><path d="M180.20288,265.57481l2.59364,1.66218" fill="none" stroke="#808080" stroke-width="0.5" stroke-linecap="round"/><path d="M177.08662,276.60359l-2.88222,-1.55438" fill="none" stroke="#808080" stroke-width="0.5" stroke-linecap="round"/><path d="M189.68223,257.18685l-3.91161,-2.10959" fill="none" stroke="#808080" stroke-width="0.5" stroke-linecap="round"/></g><path d="M212.7591,228.357c0,0 5.54081,-1.95501 8.70334,-3.07079c3.16248,-1.11579 8.39415,-2.97393 8.39415,-2.97393l8.22143,4.73985c0,0 -5.74152,2.66026 -9.65134,3.58816c-3.90976,0.9279 -13.58917,2.37353 -13.58917,2.37353z" fill="#f8b820" stroke="none" stroke-width="0" stroke-linecap="butt"/><path d="M214.81711,230.51908c0.79111,3.40381 -2.31966,3.76863 -8.88,5.00443c-3.51272,0.66169 -11.65546,2.42408 -12.10626,-1.33642c-0.4222,-3.52181 6.05266,-4.62895 9.53436,-5.43817c3.48169,-0.80921 10.85189,-0.81129 11.4519,1.77014z" fill="#ffffff" stroke="none" stroke-width="0" stroke-linecap="butt"/></g><g data-paper-data="{&quot;index&quot;:null}"><path d="M285.17557,242.47794c0,0 -5.47069,-4.95689 -9.27677,-7.58622c-4.53256,-3.13136 -16.12198,-9.96022 -16.12198,-9.96022l2.23108,-4.31719c0,0 13.42605,7.51286 18.89092,11.10279c4.65809,3.05988 14.54513,13.02834 14.54513,13.02834l-10.26851,-2.26747z" fill="#f8b820" stroke="none" stroke-width="0" stroke-linecap="butt"/><g data-paper-data="{&quot;index&quot;:null}"><path d="M305.99134,249.41527c11.42354,11.20796 6.46185,28.1382 3.40808,28.8936c-8.40524,2.18637 -14.4698,-2.13512 -23.33006,-9.64558c-10.73175,-9.09671 -7.6907,-26.09348 -1.2315,-28.43361c2.11477,-0.76604 12.88422,1.07242 21.15349,9.18558z" fill="#a8c8d8" stroke="none" stroke-width="0" stroke-linecap="butt"/><path d="M290.00193,247.44529l-6.43645,1.04497" fill="none" stroke="#808080" stroke-width="0.5" stroke-linecap="round"/><path d="M286.05518,258.27237l5.03133,-1.05366" fill="none" stroke="#808080" stroke-width="0.5" stroke-linecap="round"/><path d="M289.62181,266.16186l4.73696,-1.59805" fill="none" stroke="#808080" stroke-width="0.5" stroke-linecap="round"/><path d="M299.03618,271.91797l-3.33193,1.60695" fill="none" stroke="#808080" stroke-width="0.5" stroke-linecap="round"/><path d="M302.12019,277.77946c0,0 -10.90996,-10.58633 -13.37939,-17.65655c-2.46946,-7.07028 -2.82729,-18.94278 -2.82729,-18.94278" fill="none" stroke="#020202" stroke-width="0.25" stroke-linecap="round"/></g></g><g data-paper-data="{&quot;index&quot;:null}"><path d="M231.39831,214.99361c9.66648,-0.77717 12.74439,0.35929 19.44379,4.86269c9.98471,6.7119 12.21179,19.21196 -0.49744,29.10017c-12.88147,10.02226 -40.63469,5.5262 -41.65135,-5.63874c-0.94526,-10.38155 1.77009,-26.6412 22.705,-28.3242z" fill="#f8b820" stroke="none" stroke-width="0" stroke-linecap="butt"/><path d="M229.69803,223.95834c21.0026,2.85074 21.09056,13.87558 21.1052,18.72445c0.02487,8.24319 -6.46142,17.45695 -19.92001,18.22457c-10.07136,0.57435 -22.72954,-9.54989 -21.97881,-17.45595c1.11273,-11.71938 13.54429,-20.47716 20.79362,-19.49315z" fill="#ffffff" stroke="none" stroke-width="0" stroke-linecap="butt"/><path d="M243.6865,230.59664l2.40511,-2.60772" fill="none" stroke="#808080" stroke-width="0.5" stroke-linecap="round"/><path d="M233.87598,225.9723l0.29951,-2.94102" fill="none" stroke="#808080" stroke-width="0.5" stroke-linecap="round"/><path d="M221.6434,223.5377l1.47271,5.37991" fill="none" stroke="#808080" stroke-width="0.5" stroke-linecap="round"/><path d="M213.3437,235.58881l-1.82283,-3.69207" fill="none" stroke="#808080" stroke-width="0.5" stroke-linecap="round"/></g><g data-paper-data="{&quot;index&quot;:null}"><g><path d="M153.6119,224.17115c4.07654,-1.5222 20.95379,-0.19408 24.39792,5.00737c0.93959,1.41882 -0.28965,16.06368 -6.92418,29.15057c-8.24631,16.26612 -18.59035,22.5165 -20.51434,20.44422c-7.80142,-7.05165 -6.32157,-33.81881 -5.4788,-38.80526c0.84267,-4.98633 4.44281,-14.27473 8.51935,-15.79693z" fill="#f72526" stroke="none" stroke-width="0" stroke-linecap="butt"/><path d="M144.50751,250.88602c0,0 -0.08188,-2.0843 -0.0116,-3.41533c0.07027,-1.33104 0.53118,-6.4229 0.53118,-6.4229c0,0 10.29215,-0.77467 16.64199,0.61023c6.34975,1.3848 13.48649,5.96059 13.48649,5.96059c0,0 -1.61058,5.52398 -3.0341,8.5684c-1.42342,3.04439 -2.91843,5.21246 -2.91843,5.21246c0,0 -6.72212,-5.4067 -11.46896,-7.39384c-4.74684,-1.98714 -13.22645,-3.1196 -13.22645,-3.1196z" fill="#ffffff" stroke="none" stroke-width="0" stroke-linecap="butt"/><path d="M175.76757,232.74111c0,0 -4.9263,15.59827 -9.73262,24.83016c-4.80632,9.23189 -14.23492,20.93684 -14.23492,20.93684" fill="none" stroke="#000000" stroke-width="0.25" stroke-linecap="round"/><path d="M176.07018,235.05719l-2.48586,-1.37356" fill="none" stroke="#808080" stroke-width="0.5" stroke-linecap="round"/><path d="M173.42714,242.9496l-3.27854,-1.73526" fill="none" stroke="#808080" stroke-width="0.5" stroke-linecap="round"/><path d="M163.5198,263.0906l-2.59364,-1.66218" fill="none" stroke="#808080" stroke-width="0.5" stroke-linecap="round"/><path d="M157.80995,272.45708l-2.88222,-1.55438" fill="none" stroke="#808080" stroke-width="0.5" stroke-linecap="round"/><path d="M170.40555,253.04033l-3.91161,-2.10959" fill="none" stroke="#808080" stroke-width="0.5" stroke-linecap="round"/></g><path d="M193.4824,224.21055c0,0 5.54081,-1.95501 8.70334,-3.07079c3.16248,-1.11579 8.39415,-2.97393 8.39415,-2.97393l8.22143,4.73985c0,0 -5.74152,2.66026 -9.65134,3.58816c-3.90976,0.9279 -13.58917,2.37353 -13.58917,2.37353z" fill="#f8b820" stroke="none" stroke-width="0" stroke-linecap="butt"/><path d="M195.54045,226.37244c0.79111,3.40381 -2.31966,3.76863 -8.88,5.00443c-3.51272,0.66169 -11.65546,2.42408 -12.10626,-1.33642c-0.4222,-3.52181 6.05266,-4.62895 9.53436,-5.43817c3.48169,-0.80921 10.85189,-0.81129 11.4519,1.77014z" fill="#ffffff" stroke="none" stroke-width="0" stroke-linecap="butt"/></g><g data-paper-data="{&quot;index&quot;:null}"><path d="M239.65902,189.9172c14.62263,-23.42811 43.81459,-27.46603 56.80254,-18.94487c12.65291,8.30129 14.71431,13.02398 17.09445,22.79174c6.12982,25.15553 -30.34928,53.62102 -43.29223,45.83047c-15.23721,-9.17153 -40.26282,-34.20345 -30.60471,-49.6774z" fill="#f8b820" stroke="none" stroke-width="0" stroke-linecap="butt"/><path d="M241.44496,194.3067c2.23736,-3.44212 23.13389,3.3396 33.09473,20.02523c4.23266,7.09025 4.76283,23.54565 1.95569,24.6673c-8.99511,3.47428 -16.55346,-0.55106 -23.54933,-4.93798c-12.87651,-8.07454 -18.01133,-29.73897 -11.50114,-39.7546z" fill="#ffffff" stroke="none" stroke-width="0" stroke-linecap="butt"/><path d="M264.89092,169.68161c-2.64178,-0.02163 10.48537,-27.70261 26.66292,-22.50026c2.43526,0.78317 5.81664,7.3403 6.74227,11.99349c0.92562,4.65311 -1.87408,12.47884 -1.87408,12.47884c0,0 -9.05203,-2.46652 -15.13188,-3.1152c-6.07992,-0.64865 -14.53336,1.15836 -16.39921,1.14306z" fill="#ffffff" stroke="none" stroke-width="0" stroke-linecap="butt"/><path d="M328.71094,210.03951c0.84989,5.35513 -5.41655,10.83451 -12.47317,13.26176c-7.78856,2.67902 -16.29878,2.78592 -16.29878,2.78592c0,0 5.20856,-8.11507 9.39814,-15.07541c4.18957,-6.96035 4.0213,-16.36811 4.0213,-16.36811c0,0 13.23781,2.07149 15.35253,15.39585z" fill="#ffffff" stroke="none" stroke-width="0" stroke-linecap="butt"/><g stroke="none" stroke-width="0" stroke-linecap="butt"><path d="M281.95299,214.78913c2.39212,-5.73111 8.61678,-8.67851 13.90316,-6.58326c5.28643,2.0952 7.6326,8.43965 5.24044,14.1707c-2.39208,5.73105 -8.61669,8.6785 -13.90307,6.58325c-5.28633,-2.09521 -7.63265,-8.43969 -5.24049,-14.17075z" fill="#ffffff"/><path d="M294.8535,222.39406c-2.24024,2.31261 -5.69685,2.59832 -7.72038,0.63801c-2.02351,-1.96022 -1.84785,-5.42412 0.39247,-7.73683c2.24024,-2.31261 6.22088,-2.93078 8.24439,-0.97046c2.02351,1.96022 1.32379,5.75654 -0.91649,8.0692z" fill="#000000"/></g><g stroke="none" stroke-width="0" stroke-linecap="butt"><path d="M281.00758,182.22955c3.30799,4.04133 1.54346,10.95677 -3.94119,15.44619c-5.48461,4.48936 -12.61239,4.85265 -15.92038,0.81133c-3.30789,-4.04133 -1.54346,-10.95677 3.94119,-15.44619c5.48461,-4.48936 12.61239,-4.85265 15.92038,-0.81133z" fill="#ffffff"/><path d="M274.35684,194.56597c-2.24024,2.31261 -5.69685,2.59832 -7.72038,0.63801c-2.02351,-1.96022 -1.84785,-5.42412 0.39247,-7.73683c2.24024,-2.31261 6.22088,-2.93078 8.24439,-0.97046c2.02351,1.96022 1.32379,5.75654 -0.91649,8.0692z" fill="#000000"/></g><path d="M277.68567,193.09407c0,0 4.03103,-8.25912 6.75017,-10.67629c3.76877,-3.35022 9.21361,-2.3907 9.21361,-2.3907l14.41768,20.17815c0,0 -3.34705,5.7061 -6.21896,7.78233c-2.31942,1.67683 -12.83741,2.88469 -12.83741,2.88469c0,0 1.71512,-5.03997 3.33292,-8.45544c1.61776,-3.41543 4.9274,-8.98351 4.9274,-8.98351l-19.5854,-0.33906z" fill="#f8b820" stroke="none" stroke-width="0" stroke-linecap="butt"/><g stroke="none" stroke-width="0" stroke-linecap="butt"><path d="M269.77324,211.62147c3.02056,1.81811 5.60167,7.04773 2.27125,10.42449c-1.56075,1.58242 -4.01425,0.38401 -7.1272,-3.43341c-2.22802,-2.73221 -4.41324,-6.12256 -2.39131,-9.05194c1.26257,-1.82918 4.22667,0.24281 7.24722,2.06092z" fill="#71716f"/><path d="M263.05036,209.41362c0.71115,-1.58824 2.75844,-1.91648 4.6799,-1.3943c1.92147,0.52218 3.09454,1.86957 4.21746,3.8123c1.12292,1.94273 1.80251,6.63731 1.80251,6.63731c0,0 -3.60844,1.34473 -8.11495,-2.66366c-2.97785,-2.6486 -3.82176,-3.62922 -2.58492,-6.39163z" fill="#010101"/><path d="M268.9412,217.30936c0.51382,-0.85366 1.62237,-1.12912 2.47602,-0.61529c0.85366,0.51382 1.12906,1.62232 0.61529,2.47594c-0.51382,0.85366 -1.62232,1.12906 -2.47594,0.61529c-0.85366,-0.51382 -1.12912,-1.62237 -0.61529,-2.47602z" fill="#ffffff"/></g><g data-paper-data="{&quot;index&quot;:null}"><path d="M299.44739,189.845c0,0 10.97487,-4.18854 18.32925,-4.41542c7.35438,-0.22689 14.87893,5.94147 14.87893,5.94147l-3.03007,2.84265c0,0 -4.64723,-4.93124 -11.63761,-4.69507c-6.99038,0.23616 -17.06306,3.73854 -17.06306,3.73854z" fill="#767578" stroke="none" stroke-width="0" stroke-linecap="butt"/><path d="M328.89519,189.0409l19.41279,5.91055l3.68581,24.83239l-20.40432,-11.89164z" fill="#ea035a" stroke="none" stroke-width="0" stroke-linecap="butt"/><path d="M329.18022,192.95708c0,0 -0.336,-3.98046 0.4089,-3.04102c2.92674,3.69098 22.49269,29.09895 22.49269,29.09895" fill="none" stroke="#000000" stroke-width="0.25" stroke-linecap="round"/><path d="M331.66263,208.02629l3.01319,-11.533l14.17961,-1.94909" fill="none" stroke="#000000" stroke-width="0.25" stroke-linecap="round"/></g></g><g data-paper-data="{&quot;index&quot;:null}"><path d="M224.37788,229.00125c2.36978,-5.93178 5.88297,-12.3129 5.88297,-12.3129l3.40968,3.18184c0,0 -1.16137,4.24894 -3.08784,9.12698c-2.07504,5.25419 -7.73381,19.52739 -7.73381,19.52739l-3.62938,-3.98326c0,0 2.78853,-9.60821 5.15835,-15.53997z" fill="#f8b820" stroke="none" stroke-width="0" stroke-linecap="butt"/><g><path d="M227.30425,259.8791c-1.05589,15.13461 -16.95663,21.98155 -19.4898,20.24546c-7.05277,-4.7125 -7.71441,-11.74453 -7.78292,-22.75508c-0.08291,-13.33622 14.63082,-21.60855 20.546,-18.39333c1.93662,1.05267 7.49109,9.94739 6.7267,20.90302z" fill="#ffffff" stroke="none" stroke-width="0" stroke-linecap="butt"/><path d="M218.48744,247.1408l-4.92852,-3.99615" fill="none" stroke="#808080" stroke-width="0.5" stroke-linecap="round"/><path d="M207.82065,250.96183l4.03042,2.97796" fill="none" stroke="#808080" stroke-width="0.5" stroke-linecap="round"/><path d="M208.44553,260.82068l-4.24938,-2.4306" fill="none" stroke="#808080" stroke-width="0.5" stroke-linecap="round"/><path d="M205.93801,268.71978l-3.3513,-1.41237" fill="none" stroke="#808080" stroke-width="0.5" stroke-linecap="round"/><path d="M203.50695,271.53339c0,0 0.938,-11.36343 4.65408,-17.49634c3.71609,-6.13292 12.39583,-13.70033 12.39583,-13.70033" fill="none" stroke="#020202" stroke-width="0.25" stroke-linecap="round"/></g></g></g></g></svg>