<svg version="1.1" xmlns="http://www.w3.org/2000/svg" xmlns:xlink="http://www.w3.org/1999/xlink" width="28.39406" height="21.47551" viewBox="0,0,28.39406,21.47551"><g transform="translate(-226.97691,-168.7867)"><g data-paper-data="{&quot;isPaintingLayer&quot;:true}" fill-rule="nonzero" stroke-width="0" stroke-linecap="butt" stroke-linejoin="miter" stroke-miterlimit="10" stroke-dasharray="" stroke-dashoffset="0" style="mix-blend-mode: normal"><path d="M240.93314,180.6152c-0.08865,-0.61256 -0.07387,-1.09019 0.35441,-1.18365c0.39066,-0.08526 0.58681,0.42203 0.67548,1.03457c0.01387,0.09582 0.29218,2.31723 0.11073,2.6758c-0.52488,1.03722 -0.99922,0.42585 -0.99922,0.42585c0,0 -0.07549,-1.11614 -0.09988,-1.68914c-0.02439,-0.573 -0.0099,-1.04514 -0.0415,-1.26344z" data-paper-data="{&quot;index&quot;:null}" fill="#fde1c0" stroke="none"/><path d="M240.85174,184.4973c-0.33916,-0.21847 -0.24336,-0.7761 -0.24336,-0.7761c0,0 0.41395,-0.57989 1.02011,-0.88526c0.4183,-0.21074 0.95271,-0.00205 0.95271,-0.00205c0,0 0.2374,0.39947 0.28391,0.60596c0.04652,0.20649 0.12349,0.42787 -0.07243,0.6028c-0.58168,0.51934 -1.72742,0.5922 -1.94094,0.45465z" data-paper-data="{&quot;index&quot;:null}" fill="#fefefe" stroke="none"/><g data-paper-data="{&quot;index&quot;:null}" stroke="none"><path d="M242.43082,183.86589c0.06636,0.20129 -0.03727,0.64729 -0.86099,0.86116c-0.41518,0.10781 -0.91883,0.16052 -0.99664,-0.07548c-0.06636,-0.20128 0.15594,-0.27155 0.56331,-0.40587c0.40738,-0.13434 1.21078,-0.63319 1.29432,-0.37983z" fill="#000000"/><path d="M241.38586,186.21165c0,0 -0.57304,0.41553 -0.88929,-0.27428c-0.35974,-0.78465 -0.18278,-1.48892 -0.18278,-1.48892c0,0 0.22556,-0.1673 0.38824,-0.15504c0.1627,0.01225 0.37505,0.21253 0.37505,0.21253c0,0 0.14373,-0.16716 0.27092,-0.19211c0.12719,-0.02496 0.42172,0.0562 0.42172,0.0562c0,0 0.16382,-0.25826 0.32376,-0.35749c0.15994,-0.09924 0.48867,-0.14659 0.48867,-0.14659c0,0 0.0984,-0.31401 0.26214,-0.41061c0.16374,-0.0966 0.37095,-0.16897 0.52135,-0.05165c0.1504,0.11731 0.7469,0.58751 0.98111,1.29452c0.2882,0.86994 -1.02895,0.85439 -1.02895,0.85439c0,0 -0.10865,0.27341 -0.34146,0.37386c-0.30131,0.12999 -0.59845,-0.00343 -0.59845,-0.00343c0,0 0.01538,0.24853 -0.37699,0.37395c-0.26621,0.08511 -0.61505,-0.08533 -0.61505,-0.08533z" fill="#fefefe"/><path d="M242.57111,184.26217c-0.41518,0.10781 -0.91883,0.16052 -0.99664,-0.07548c-0.06637,-0.20128 0.3144,-0.56548 0.72177,-0.6998c0.40738,-0.13432 1.05232,-0.33924 1.13586,-0.08588c0.06636,0.20129 -0.03727,0.64729 -0.86099,0.86116z" fill="#fefefe"/></g><path d="M244.0058,178.88121c0,0 0.65877,-0.23744 0.96809,-0.42443c0.30932,-0.187 0.75903,-0.5202 0.75903,-0.5202c0,0 -0.09967,0.8708 -0.17434,1.23837c-0.05667,0.27901 -0.11317,0.85482 -0.43611,0.91707c-0.26531,0.05114 -1.11667,-1.2108 -1.11667,-1.2108z" data-paper-data="{&quot;index&quot;:null}" fill="#ebc19b" stroke="none"/><path d="M240.15655,189.79458c-1.12371,0.37125 -1.94334,0.38792 -2.4999,0.17573c-0.40676,-0.15507 -0.4535,-0.79645 -0.4535,-0.79645c0,0 2.66308,0.39893 3.04977,-0.35769c0.34503,-0.67511 -0.846,-3.90026 -0.846,-3.90026c0,0 0.84439,-0.22679 1.5359,2.78874c0.05939,0.25899 0.12093,0.78189 -0.03233,1.21696c-0.15157,0.43027 -0.55866,0.80846 -0.75394,0.87298z" data-paper-data="{&quot;index&quot;:null}" fill="#686868" stroke="none"/><path d="M241.23893,179.45257c-2.91294,-0.03608 -5.17296,-2.00483 -5.20903,-4.88077c-0.03381,-2.69537 1.97142,-4.95292 5.20903,-4.88077c2.87616,0.0641 5.20903,1.28336 5.20903,4.88077c0,3.38098 -2.33238,4.9164 -5.20903,4.88077z" data-paper-data="{&quot;index&quot;:null}" fill="#fedeb5" stroke="none"/><path d="M244.45456,177.14938c0,0 0.1121,-0.70652 0.24763,-2.33832c0.1834,-2.20826 0.10601,-2.97432 0.73125,-2.76909c0.50483,0.16571 1.30211,1.33274 0.90021,3.78671c-0.09801,0.78378 -0.49121,1.58465 -0.49121,1.58465c0,0 -0.24529,0.23007 -0.47748,0.2099c-0.23218,-0.02017 -0.32127,-0.18285 -0.5073,-0.29544c-0.21409,-0.12958 -0.40311,-0.17841 -0.40311,-0.17841z" data-paper-data="{&quot;index&quot;:null}" fill="#ea750b" stroke="none"/><path d="M242.69712,177.68939c0,0 -1.11128,0.66223 -2.31612,0.1528c-0.6905,-0.29196 -1.58939,-1.37735 -1.87639,-2.15545c-0.78961,-2.14073 -0.13687,-3.37972 0.93462,-3.76377c1.00148,-0.35895 2.30067,0.5015 2.92272,2.10847c0.62204,1.60696 0.33517,3.65795 0.33517,3.65795z" data-paper-data="{&quot;index&quot;:null}" fill="#ea750b" stroke="none"/><path d="M242.63966,175.17054c0.32849,1.46827 0.0591,2.48961 0.0591,2.48961c0,0 -0.10117,0.25071 -1.06323,0.33952c-0.74756,0.06901 -1.12458,-0.24478 -1.12458,-0.24478c0,0 -0.6093,-0.7084 -0.80141,-1.76892c-0.27809,-1.53514 0.0541,-2.63006 0.83699,-2.8652c0.78289,-0.23513 1.79264,0.70676 2.09312,2.04978z" data-paper-data="{&quot;index&quot;:null}" fill="#ffffff" stroke="none"/><g data-paper-data="{&quot;index&quot;:null}" stroke="none"><path d="M242.27918,177.84825c-0.32764,0.01641 -0.64067,-0.70395 -0.69918,-1.60898c-0.05852,-0.90503 0.15965,-1.652 0.48729,-1.66842c0.32764,-0.01641 0.64067,0.70395 0.69918,1.60898c0.05852,0.90503 -0.15965,1.652 -0.48729,1.66842z" fill="#a06803"/><path d="M242.3329,177.25757c-0.17697,0.00966 -0.34604,-0.4144 -0.37764,-0.94716c-0.0316,-0.53276 0.08624,-0.97248 0.2632,-0.98214c0.17697,-0.00966 0.34604,0.4144 0.37764,0.94716c0.0316,0.53276 -0.08624,0.97248 -0.2632,0.98214z" fill="#000000"/><path d="M242.56771,175.66278c0.02072,0.30993 -0.05653,0.56574 -0.17255,0.57136c-0.11602,0.00562 -0.22686,-0.24107 -0.24758,-0.55101c-0.02072,-0.30993 0.05653,-0.56574 0.17255,-0.57136c0.11602,-0.00562 0.22686,0.24107 0.24758,0.55101z" fill="#ffffff"/></g><path d="M245.25473,173.38953c0.34422,0.20526 0.49208,1.14898 0.36936,2.47513c-0.08478,0.91614 -0.44466,1.72144 -0.44466,1.72144c0,0 -0.23114,-0.17078 -0.39159,-0.25388c-0.16045,-0.08309 -0.30921,-0.16265 -0.30921,-0.16265c0,0 0.03,-0.63148 0.13392,-1.95459c0.09143,-1.16415 0.25564,-2.05594 0.64218,-1.82545z" data-paper-data="{&quot;index&quot;:null}" fill="#ffffff" stroke="none"/><g data-paper-data="{&quot;index&quot;:null}" stroke="none"><path d="M244.72828,177.23692c-0.22527,-0.00643 -0.3924,-0.61697 -0.3733,-1.36367c0.0191,-0.74671 0.2172,-1.34682 0.44246,-1.34039c0.22527,0.00643 0.3924,0.61697 0.3733,1.36367c-0.0191,0.74671 -0.2172,1.34682 -0.44246,1.34039z" fill="#a06803"/><path d="M244.85139,175.16401c0.12172,0.00282 0.20971,0.36129 0.19652,0.80068c-0.01318,0.43939 -0.12255,0.7933 -0.24427,0.79048c-0.12172,-0.00283 -0.20971,-0.3613 -0.19652,-0.80069c0.01318,-0.43939 0.12255,-0.79329 0.24427,-0.79048z" fill="#000000"/><path d="M245.06852,175.45988c-0.00607,0.25576 -0.07564,0.46111 -0.1554,0.45868c-0.07976,-0.00243 -0.13948,-0.21174 -0.13341,-0.46749c0.00607,-0.25576 0.07564,-0.46111 0.1554,-0.45868c0.07976,0.00243 0.13948,0.21174 0.13341,0.46749z" fill="#ffffff"/></g><path d="M242.66688,175.16817c0,0 -0.90012,-1.92403 -1.95022,-1.78858c-0.20333,0.02623 -0.55082,0.06675 -0.77489,0.51662c-0.38582,0.77463 -0.28502,1.47054 -0.28502,1.47054c0,0 -0.63091,0.11296 -1.26469,0.0164c-1.19897,-0.18267 -1.72006,-0.85102 -1.72006,-0.85102c0,0 0.99637,0.42499 1.4642,0.5123c0.47558,0.08875 1.36641,0.01595 1.36641,0.01595c0,0 -0.17298,-2.08798 1.23687,-2.13625c1.26172,-0.04319 1.92739,2.24403 1.92739,2.24403z" data-paper-data="{&quot;index&quot;:null}" fill="#000000" stroke="none"/><path d="M245.12423,173.59326c-0.26376,-0.01083 -0.40779,0.61421 -0.40779,0.61421c0,0 -0.00439,-1.07318 0.43682,-1.02998c0.49301,0.04827 0.63971,1.52679 0.63971,1.52679c0,0 0.01753,0.17665 0.89498,-0.17875c0.95233,-0.38573 1.48878,-1.20418 1.48878,-1.20418c0,0 -0.37356,0.7945 -1.039,1.20713c-0.64947,0.40271 -1.48007,0.44145 -1.48007,0.44145c0,0 -0.08074,-1.3581 -0.53344,-1.37668z" data-paper-data="{&quot;index&quot;:null}" fill="#000000" stroke="none"/><path d="M244.47885,177.16545c0,0 -0.42946,-0.09931 -0.72734,-0.01911c-0.29502,0.07943 -1.04501,0.45607 -1.04501,0.45607c0,0 0.16619,-0.64413 0.02041,-1.92339c-0.14131,-1.2401 -0.4093,-1.74671 -0.4093,-1.74671l2.46872,-0.50325z" data-paper-data="{&quot;index&quot;:null}" fill="#fedeb5" stroke="none"/><path d="M230.121,183.21536c0.59316,-1.15577 1.25115,-0.85202 1.25115,-0.85202c0,0 -2.96349,3.90239 -2.92889,5.25715c0.03424,1.34068 2.61175,2.27141 2.61175,2.27141c0,0 -0.1787,0.43648 -1.02035,0.36169c-0.72518,-0.06444 -1.96406,-1.04231 -2.29401,-1.85411c-0.03072,-0.0756 -0.00102,-0.39185 -0.00639,-0.63342c-0.01967,-0.88522 1.59873,-3.33452 1.77302,-3.48803c0.18811,-0.16567 0.38689,-0.18094 0.51283,-0.44098c0.12013,-0.24806 0.07095,-0.56338 0.10087,-0.62169z" data-paper-data="{&quot;index&quot;:null}" fill="#686868" stroke="none"/><path d="M232.33098,188.67003c-0.37956,0.71232 -0.81211,1.22494 -1.3457,1.22494c-0.53359,0 -2.68193,-1.15167 -2.57064,-2.3291c0.15693,-1.66034 2.93106,-5.22545 2.93106,-5.22545c0,0 0.52691,-0.11934 1.05929,0.03735c0.6593,0.19404 0.85764,0.61616 0.85764,0.61616c0,0 -1.34967,0.44438 -1.62302,1.77676c-0.1839,0.8964 0.64821,2.65747 0.71438,3.21267c0.05918,0.49648 0.03315,0.40849 -0.02299,0.68667z" data-paper-data="{&quot;index&quot;:null}" fill="#ef4019" stroke="none"/><path d="M232.34893,188.0179c0,0 -0.70606,-0.7919 -1.36974,-1.20822c-0.13236,-0.08303 -0.52368,-0.19785 -0.85657,-0.12571c-0.34471,0.0747 -0.8623,0.23689 -0.80531,-0.12634c0.13392,-0.85351 1.81474,-3.4892 2.17452,-3.46018c0.19165,0.01546 0.8703,0.313 0.8703,0.313c0,0 -0.28369,1.01537 -0.23385,1.54392c0.05152,0.54637 0.53811,1.68262 0.53811,1.68262c0,0 -0.20784,0.24619 -0.25878,0.46777c-0.05462,0.2376 -0.05867,0.91313 -0.05867,0.91313z" data-paper-data="{&quot;index&quot;:null}" fill="#ffc500" stroke="none"/><path d="M231.69817,184.5101c0.42273,-1.25638 1.33897,-1.52764 1.53962,-1.50788c1.77298,0.1746 0.8147,2.24035 0.79362,2.39673c-0.11111,0.82443 -0.61076,0.72247 -1.46026,0.52379c-0.6507,-0.1522 -1.12013,-0.67811 -0.87298,-1.41265z" data-paper-data="{&quot;index&quot;:null}" fill="#ffffff" stroke="none"/><path d="M240.576,187.50443c0.01867,0.41283 0.04243,1.56416 -0.68024,1.7573c-1.95475,0.52244 -2.46733,0.47943 -2.84569,-0.29477c-0.09199,-0.18823 -0.08904,-1.24041 -0.08904,-1.24041c0,0 -0.01457,-0.22438 0.18682,-0.54924c0.52799,-0.85165 1.67476,-2.39386 1.98832,-2.39386c0.45084,0 1.39451,1.71817 1.43986,2.72098z" data-paper-data="{&quot;index&quot;:null}" fill="#ef4019" stroke="none"/><path d="M233.8849,184.00896c0,0 0.39404,-0.38837 0.60884,-0.57707c0.22879,-0.20099 0.63631,-0.61716 0.63631,-0.61716l0.86918,0.8257c0,0 -0.91445,1.43119 -1.94354,1.74729c-0.1872,0.05751 -1.5495,-0.00998 -1.35558,-1.02713c0.10386,-0.54479 0.51214,-0.65737 0.80581,-0.5834c0.22242,0.05602 0.37898,0.23178 0.37898,0.23178z" data-paper-data="{&quot;index&quot;:null}" fill="#fedeb5" stroke="none"/><path d="M238.41186,185.53567c0.28478,-0.0953 0.45323,-0.49003 0.5738,-0.67896c0.05531,-0.08667 0.15425,-0.06736 0.15425,-0.06736c0,0 1.24445,2.08053 0.85058,2.67106c-0.26981,0.07975 -0.62107,-0.43517 -0.78088,-0.42477c-0.4046,-0.00004 -1.35404,0.02547 -1.68404,0.12681c-0.45101,0.1385 -0.55818,0.61274 -0.55818,0.61274l-0.12738,-1.42318c0,0 -0.69604,-0.56561 -0.21007,-0.72359c0.08136,-0.02646 1.07115,0.14511 1.78192,-0.09275z" data-paper-data="{&quot;index&quot;:null}" fill="#ffc500" stroke="none"/><path d="M238.98279,184.97486c0,0.08755 0.06131,0.32455 0.06131,0.32455l0.23577,0.65228l-0.58013,-0.16832c0,0 -0.68386,0.31189 -0.95406,0.31189c-0.68323,0 -1.23711,-0.50163 -1.23711,-1.12041c0,-0.61879 0.55387,-1.12041 1.23711,-1.12041c0.68323,0 1.23711,0.50163 1.23711,1.12041z" data-paper-data="{&quot;index&quot;:null}" fill="#ffffff" stroke="none"/><path d="M237.72234,185.50557c-0.30939,0 -0.5602,-0.25328 -0.5602,-0.56573c0,-0.31244 0.25081,-0.56573 0.5602,-0.56573c0.30939,0 0.5602,0.25328 0.5602,0.56573c0,0.31244 -0.25081,0.56573 -0.5602,0.56573z" data-paper-data="{&quot;index&quot;:null}" fill="#f5cda8" stroke="none"/><path d="M232.86244,185.83382c0.42954,0.26405 1.05785,-0.06189 1.05785,-0.06189c0,0 0.29256,0.15752 0.13347,0.36653c-0.31764,0.41732 -1.36358,0.48265 -1.36358,0.48265c0,0 -0.73584,-0.19962 -1.18249,-0.94441c-0.23515,-0.39211 -0.22147,-1.24036 -0.22147,-1.24036c0,0 0.08391,0.23155 0.28073,0.33789c0.10352,0.05593 0.33012,0.01981 0.39311,0.02155c0.15067,0.00416 0.55091,0.82196 0.9024,1.03804z" data-paper-data="{&quot;index&quot;:null}" fill="#ffc500" stroke="none"/><path d="M238.05243,179.1135c1.58497,-0.0308 2.86906,0.31744 2.86906,0.31744c0,0 0.7314,3.35359 0.00715,4.39281c-0.74509,1.06911 -1.6282,1.2557 -2.39437,1.27162c-2.06753,0.08927 -3.48926,-0.81239 -4.30988,-2.24824c-0.77589,-1.35757 -0.43672,-3.02743 -0.43672,-3.02743c0,0 2.49839,-0.67191 4.26475,-0.70623z" data-paper-data="{&quot;index&quot;:null}" fill="#ef4019" stroke="none"/><path d="M239.86939,180.71037c-0.58792,-0.07205 -0.44326,-1.44631 -0.44326,-1.44631l0.99234,0.19109c0,0 -0.17056,1.30162 -0.54908,1.25523z" data-paper-data="{&quot;index&quot;:null}" fill="#08abe8" stroke="none"/><path d="M240.97305,182.29177c-0.0123,0.23058 -0.26738,0.75343 -0.41041,0.73418c-0.06862,-0.00923 -0.11441,-0.52169 -0.23928,-1.08192c-0.13541,-0.60752 -0.3476,-1.26622 -0.3476,-1.26622l0.21731,-0.29675c0,0 0.82192,1.12405 0.77998,1.9107z" data-paper-data="{&quot;index&quot;:null}" fill="#08abe8" stroke="none"/><path d="M239.45151,181.89813c-0.10201,0.52109 -0.15535,1.03158 -0.21849,1.00961c-0.3357,-0.11679 -0.46078,-0.5496 -0.4549,-0.71639c0.03411,-0.96774 0.73641,-1.85046 0.73641,-1.85046l0.19168,0.29745c0,0 -0.13478,0.64715 -0.2547,1.25979z" data-paper-data="{&quot;index&quot;:null}" fill="#08abe8" stroke="none"/><path d="M238.94474,180.72717l-0.0234,-1.82533c0,0 0.22978,0.07703 0.52828,0.17179c0.2985,0.09477 0.45459,0.22604 0.45459,0.22604z" data-paper-data="{&quot;index&quot;:null}" fill="#ffffff" stroke="none"/><path d="M240.59199,180.82231l-0.60344,-1.46017c0,0 0.11626,-0.02067 0.39132,-0.05605c0.27506,-0.03539 0.47493,0.00598 0.47493,0.00598z" data-paper-data="{&quot;index&quot;:null}" fill="#ffffff" stroke="none"/><path d="M245.86829,177.37011c0,0 0.00348,0.40219 -0.1445,0.57137c-0.53107,0.60714 -1.71274,1.4312 -4.19997,1.58478c-2.61271,0.16133 -3.64923,-1.57853 -2.71974,-2.12909c0.81569,-0.48315 1.54255,0.62065 2.74346,0.58837c0.99391,-0.02672 1.73596,-0.7898 2.52161,-0.8728c0.57495,-0.06074 1.01498,0.50294 1.2083,0.49598c0.20965,-0.00754 0.59084,-0.23861 0.59084,-0.23861z" data-paper-data="{&quot;index&quot;:null}" fill="#ffffff" stroke="none"/><g data-paper-data="{&quot;index&quot;:null}" stroke="none"><path d="M244.58793,177.78028c-0.26398,0 -0.3626,-0.13969 -0.40365,-0.26664c-0.04758,-0.14713 0.18072,-0.28068 0.40365,-0.28068c0.22293,0 0.44011,0.13024 0.40365,0.28068c-0.02737,0.11291 -0.15335,0.26664 -0.40365,0.26664z" fill="#6b4209"/><path d="M244.65634,177.46558c-0.10202,0 -0.18472,-0.03676 -0.18472,-0.0821c0,-0.04534 0.0827,-0.0821 0.18472,-0.0821c0.10202,0 0.18472,0.03676 0.18472,0.0821c0,0.04534 -0.0827,0.0821 -0.18472,0.0821z" fill="#ffffff"/></g><path d="M242.30968,178.86124c0,0 -0.12746,0.19448 -0.49259,0.17788c-0.36512,-0.01659 -0.6431,-0.19156 -0.6431,-0.19156c0,0 0.35134,0.06842 0.65679,0.06842c0.29633,0 0.47891,-0.05473 0.47891,-0.05473z" data-paper-data="{&quot;index&quot;:null}" fill="#000000" stroke="none"/><path d="M243.803,171.2296c0.08861,0.42976 0.0537,0.96568 -0.12953,0.98024c-0.09807,0.00779 -0.48817,-0.31411 -0.96791,-0.75088c-0.29417,-0.26782 -0.65787,-0.44975 -1.05604,-0.71191c-0.73587,-0.48451 -1.88016,-0.91637 -1.88016,-0.91637c0,0 0.63795,-0.19698 1.91534,-0.13463c0.87603,0.04276 1.72764,0.3181 1.72764,0.3181c0,0 0.19457,0.26441 0.39066,1.21544z" data-paper-data="{&quot;index&quot;:null}" fill="#ea750b" stroke="none"/><path d="M252.86475,169.0642c1.11892,0.02998 2.62738,-0.78425 2.49848,0.24487c-0.05213,0.41619 -1.11613,1.47381 -2.39676,1.87631c-1.0266,0.32265 -1.61878,0.30232 -2.10093,0.35874c-0.48214,0.05642 -0.79623,0.12431 -1.45137,0.10196c-1.41285,-0.04818 -5.15384,-1.74698 -5.15384,-1.74698c0,0 2.48901,-0.39334 3.58016,-0.72314c2.03516,-0.61514 4.53814,-0.12478 5.02425,-0.11176z" data-paper-data="{&quot;index&quot;:null}" fill="#ea750b" stroke="none"/><path d="M248.43764,170.73844c0.35969,0.4721 0.52237,0.89094 0.52237,0.89094c0,0 -1.05555,0.12303 -1.52733,0.048c-0.55969,-0.08902 -1.99545,-0.0201 -1.99545,-0.0201l-1.82571,-1.61689c0,0 1.79718,-0.41321 2.45609,-0.53621c0.6589,-0.12299 0.54686,0.00066 0.54686,0.00066c0,0 1.39627,0.67329 1.82317,1.23361z" data-paper-data="{&quot;index&quot;:null}" fill="#fedeb5" stroke="none"/><path d="M236.21511,178.00029c0,0 0.72881,0.11516 0.97556,0.53739c0.22062,0.37748 0.29322,0.70573 0.10072,1.32829c-0.20304,0.65667 -0.87648,0.87667 -1.23416,0.86288c-1.07174,-0.04134 -1.6211,-1.10044 -1.14763,-2.17994c0.38686,-0.88202 1.27561,-1.09883 1.27561,-1.09883z" data-paper-data="{&quot;index&quot;:null}" fill="#ebc19b" stroke="none"/><path d="M239.00476,178.9283c0,0 -1.52047,1.54288 -1.87823,1.40206c-0.43547,-0.1714 -0.36412,-0.99162 -0.37054,-1.3967c-0.00845,-0.53368 0.07955,-1.77778 0.07955,-1.77778c0,0 0.54204,0.58354 0.92589,0.92589c0.38385,0.34234 1.24334,0.84652 1.24334,0.84652z" data-paper-data="{&quot;index&quot;:null}" fill="#fedeb5" stroke="none"/><path d="M238.86826,179.98485c-0.02851,0.23779 -0.00025,0.74982 -0.01152,1.37238c-0.01126,0.62256 -0.06359,1.83596 -0.06359,1.83596c0,0 -0.49861,0.67612 -1.09581,-0.43569c-0.20645,-0.38435 0.03667,-2.80273 0.04918,-2.9071c0.07998,-0.66717 0.27942,-1.22294 0.70568,-1.14078c0.46733,0.09006 0.49603,0.60807 0.41606,1.27525z" data-paper-data="{&quot;index&quot;:null}" fill="#fde1c0" stroke="none"/><path d="M239.84643,187.0013c0,0 -0.60977,1.64655 -1.37299,1.2845c-0.25349,-0.12024 -0.42063,-0.43827 -0.42063,-0.43827c0,0 -0.34539,0.10839 -0.56419,0.05539c-0.2188,-0.05302 -0.42788,-0.29574 -0.42788,-0.29574c0,0 -0.38848,0.05567 -0.57826,-0.01103c-0.18978,-0.06671 -0.34116,-0.31214 -0.34116,-0.31214c0,0 -1.00233,-0.03904 -0.4554,-2.02557c0.10725,-0.38957 0.61327,0.02969 0.61327,0.02969c0,0 0.74093,-1.73963 2.06908,-1.21569c2.05431,0.81039 2.03454,2.34388 2.03454,2.34388l-0.55634,0.58496z" data-paper-data="{&quot;index&quot;:null}" fill="#ffffff" stroke="#000000"/><path d="M236.97266,184.2111c-0.2385,-0.1563 -0.19144,-0.40639 -0.17471,-0.63558c0.01674,-0.22918 0.2074,-0.69627 0.2074,-0.69627c0,0 0.54023,-0.31003 1.02326,-0.15103c0.69994,0.2304 1.23764,0.78646 1.23764,0.78646c0,0 0.19252,0.58331 -0.13649,0.87244c-0.20713,0.18201 -1.44903,0.28804 -2.15709,-0.17602z" data-paper-data="{&quot;index&quot;:null}" fill="#fefefe" stroke="none"/><path d="M239.88337,186.47694c0.0039,0.23289 -0.03632,0.55392 -0.03632,0.55392c0,0 -0.05288,-0.44009 -0.08999,-0.6579c-0.03712,-0.21781 -0.07599,-0.54872 -0.07599,-0.54872c0,0 0.19725,0.35143 0.2023,0.6527z" data-paper-data="{&quot;index&quot;:null}" fill="#000000" stroke="none"/><path d="M236.39252,186.47828c0,0 -0.15995,-0.3648 -0.135,-0.66509c0.01928,-0.23212 0.0524,-0.52835 0.0524,-0.52835c0,0 0.03289,0.36498 0.04814,0.58541c0.01526,0.22041 0.03447,0.60804 0.03447,0.60804z" data-paper-data="{&quot;index&quot;:null}" fill="#000000" stroke="none"/><path d="M237.52438,183.76925c-0.24698,0.09784 -0.41848,-0.017 -0.45766,-0.15647c-0.03919,-0.13948 0.07376,-0.4461 0.32076,-0.54393c0.24702,-0.09783 0.36152,0.03702 0.40481,0.17527c0.07679,0.24522 -0.02088,0.42731 -0.26788,0.52514z" data-paper-data="{&quot;index&quot;:null}" fill="#f7e300" stroke="none"/><path d="M229.48314,169.20844c0.48611,-0.01302 2.98909,-0.50338 5.02425,0.11176c1.09115,0.3298 3.58016,0.72314 3.58016,0.72314c0,0 -3.74099,1.6988 -5.15384,1.74698c-0.65514,0.02235 -0.96923,-0.04554 -1.45137,-0.10196c-0.48215,-0.05642 -1.07433,-0.03609 -2.10093,-0.35874c-1.28063,-0.4025 -2.34463,-1.46012 -2.39676,-1.87631c-0.1289,-1.02912 1.37956,-0.21489 2.49848,-0.24487z" data-paper-data="{&quot;index&quot;:null}" fill="#ea750b" stroke="none"/><path d="M233.91024,170.88269c0.4269,-0.56032 1.82317,-1.23361 1.82317,-1.23361c0,0 -0.11204,-0.12365 0.54686,-0.00066c0.65891,0.123 2.45609,0.53621 2.45609,0.53621l-1.82571,1.61689c0,0 -1.43576,-0.06892 -1.99545,0.0201c-0.47178,0.07503 -1.52733,-0.048 -1.52733,-0.048c0,0 0.16268,-0.41884 0.52237,-0.89094z" data-paper-data="{&quot;index&quot;:null}" fill="#fedeb5" stroke="none"/></g></g></svg>