<svg version="1.1" xmlns="http://www.w3.org/2000/svg" xmlns:xlink="http://www.w3.org/1999/xlink" width="30.76265" height="19.52789" viewBox="0,0,30.76265,19.52789"><g transform="translate(-225.21009,-178.0837)"><g data-paper-data="{&quot;isPaintingLayer&quot;:true}" fill-rule="nonzero" stroke-linejoin="miter" stroke-miterlimit="10" stroke-dasharray="" stroke-dashoffset="0" style="mix-blend-mode: normal"><g data-paper-data="{&quot;index&quot;:null}"><g stroke="none" stroke-width="0" stroke-linecap="butt"><path d="M229.46101,186.10423c0,0 -0.67271,-1.11168 -1.10249,-1.5452c-0.42602,-0.42971 -1.54593,-0.7561 -1.54593,-0.7561c0,0 1.6566,-2.17559 5.06971,-2.34449c2.96808,-0.14687 4.85538,1.56827 4.85538,1.56827c0,0 -1.87084,0.55432 -3.02342,1.04178c-1.15258,0.48745 -4.25327,2.03572 -4.25327,2.03572z" data-paper-data="{&quot;index&quot;:null}" fill="#3ad3cf"/><path d="M226.57336,190.64991c-0.205,0.17345 -1.67173,-0.66004 -1.30456,-3.428c0.20039,-1.51058 1.53092,-3.42154 1.53092,-3.42154c0,0 1.1675,0.30129 1.72082,0.7999c0.55332,0.49862 0.9519,1.52052 0.9519,1.52052c0,0 -1.10026,0.8916 -1.53684,1.59307c-0.43658,0.70147 -1.15028,2.75669 -1.36227,2.93604z" fill="#ffffff"/></g><path d="M227.78828,183.74078l-0.42628,0.50839" fill="none" stroke="#808080" stroke-width="0.5" stroke-linecap="round"/><path d="M228.47376,185.11775l0.43026,-0.39933" fill="none" stroke="#808080" stroke-width="0.5" stroke-linecap="round"/><path d="M229.70281,185.71645l-0.41071,0.35435" fill="none" stroke="#808080" stroke-width="0.5" stroke-linecap="round"/></g><g data-paper-data="{&quot;index&quot;:null}"><g stroke="none" stroke-width="0" stroke-linecap="butt"><path d="M230.94339,190.00112c0,0 -0.97186,-0.8709 -1.51083,-1.16233c-0.53424,-0.28889 -1.70892,-0.57868 -1.70892,-0.57868c0,0 1.06638,-2.56958 3.31029,-3.89439c3.09742,-1.82872 5.75005,-1.306 5.75005,-1.306c0,0 -0.62934,1.85663 -1.56126,2.82351c-0.93192,0.96686 -4.27935,4.1179 -4.27935,4.1179z" fill="#3ad3cf"/><path d="M228.24731,194.18457c-0.41135,-0.05183 -0.87867,-1.76882 -0.9152,-2.48157c-0.22907,-1.64238 0.37689,-3.42729 0.37689,-3.42729c0,0 1.20899,0.11282 1.93717,0.52206c0.7282,0.40924 1.32764,1.18822 1.32764,1.18822c0,0 -1.29226,2.06675 -1.3708,2.30158c-0.24416,0.73004 -0.98479,1.94373 -1.35573,1.89699z" fill="#ffffff"/></g><path d="M230.58129,190.04727l0.33427,-0.45155" fill="none" stroke="#808080" stroke-width="0.5" stroke-linecap="round"/><path d="M229.48117,189.26688l0.29285,-0.50615" fill="none" stroke="#808080" stroke-width="0.5" stroke-linecap="round"/><path d="M228.26605,188.66948l0.19928,-0.51794" fill="none" stroke="#808080" stroke-width="0.5" stroke-linecap="round"/></g><g data-paper-data="{&quot;index&quot;:null}"><g><path d="M233.60448,190.94113c0.30727,-0.62116 2.4113,-2.30705 3.37821,-2.07874c0.26375,0.06227 1.71775,1.89636 2.37439,4.13891c0.81616,2.78735 0.29682,4.64072 -0.15247,4.60991c-1.67446,0.03196 -4.42102,-3.23668 -4.86684,-3.90742c-0.44581,-0.67072 -1.04057,-2.1415 -0.7333,-2.76266z" fill="#09a400" stroke="none" stroke-width="0" stroke-linecap="butt"/><path d="M235.46023,195.03499c0,0 -0.23676,-0.23304 -0.37371,-0.39521c-0.13696,-0.16218 -0.6386,-0.80352 -0.6386,-0.80352c0,0 1.11032,-1.21205 1.99844,-1.74359c0.8881,-0.53154 2.21546,-0.77845 2.21546,-0.77845c0,0 0.41529,0.81686 0.58197,1.32548c0.16667,0.5086 0.22951,0.92328 0.22951,0.92328c0,0 -1.36982,0.10525 -2.13752,0.3921c-0.7677,0.28686 -1.87553,1.0799 -1.87553,1.0799z" fill="#a8c8d8" stroke="none" stroke-width="0" stroke-linecap="butt"/><path d="M237.11081,189.52042c0,0 1.12875,2.34785 1.57732,3.94355c0.44857,1.59571 0.6302,3.98247 0.6302,3.98247" fill="none" stroke="#000000" stroke-width="0.25" stroke-linecap="round"/><path d="M236.96013,189.86786l0.43833,-0.11158" fill="none" stroke="#808080" stroke-width="0.5" stroke-linecap="round"/><path d="M237.95214,190.96069l-0.56979,0.15601" fill="none" stroke="#808080" stroke-width="0.5" stroke-linecap="round"/><path d="M238.51561,194.46874l0.48232,-0.08982" fill="none" stroke="#808080" stroke-width="0.5" stroke-linecap="round"/><path d="M238.85224,196.22259l0.50405,-0.1338" fill="none" stroke="#808080" stroke-width="0.5" stroke-linecap="round"/><path d="M238.01744,192.64308l0.6841,-0.18157" fill="none" stroke="#808080" stroke-width="0.5" stroke-linecap="round"/></g><path d="M238.23721,186.59874c0,0 0.43007,-0.83105 0.67554,-1.30537c0.24547,-0.47432 0.65021,-1.26042 0.65021,-1.26042l1.47117,-0.34612c0,0 -0.37647,0.9348 -0.72918,1.46878c-0.35271,0.53399 -1.31874,1.75712 -1.31874,1.75712z" fill="#3ad3cf" stroke="none" stroke-width="0" stroke-linecap="butt"/><path d="M238.71185,186.62537c0.46294,0.30888 0.1416,0.69039 -0.48523,1.54911c-0.33563,0.45979 -1.08874,1.55217 -1.55108,1.16476c-0.43298,-0.3628 0.19795,-1.19727 0.51389,-1.6708c0.31595,-0.47354 1.17131,-1.27733 1.52241,-1.04308z" fill="#ffffff" stroke="none" stroke-width="0" stroke-linecap="butt"/></g><g data-paper-data="{&quot;index&quot;:null}"><path d="M243.41884,185.98777c0,0 -0.59497,-1.01404 -1.04796,-1.59504c-0.53945,-0.69191 -1.66724,-1.12827 -1.66724,-1.12827l1.23715,-0.93426c0,0 0.68197,1.01247 1.34122,1.81852c0.56193,0.68704 1.58906,2.67315 1.58906,2.67315l-1.45223,-0.83412z" fill="#3ad3cf" stroke="none" stroke-width="0" stroke-linecap="butt"/><g data-paper-data="{&quot;index&quot;:null}"><path d="M246.25113,188.03432c1.2015,2.24772 -0.3596,4.58378 -0.85966,4.55298c-1.38145,-0.06849 -2.09696,-1.0143 -3.08524,-2.57796c-1.19704,-1.89393 0.07539,-4.33166 1.16846,-4.37931c0.35787,-0.01558 1.90668,0.77723 2.77642,2.4043z" fill="#a8c8d8" stroke="none" stroke-width="0" stroke-linecap="butt"/><path d="M243.9154,186.97266l-1.02786,-0.14807" fill="none" stroke="#808080" stroke-width="0.5" stroke-linecap="round"/><path d="M243.61425,188.50947l-0.81477,-0.07976" fill="none" stroke="#808080" stroke-width="0.5" stroke-linecap="round"/><path d="M242.96531,189.79859l0.79598,-0.017" fill="none" stroke="#808080" stroke-width="0.5" stroke-linecap="round"/><path d="M243.53853,191.20745l0.58291,-0.08533" fill="none" stroke="#808080" stroke-width="0.5" stroke-linecap="round"/><path d="M244.31061,192.1598c0,0 -1.1531,-2.12879 -1.19127,-3.32086c-0.03816,-1.19209 0.47349,-3.01323 0.47349,-3.01323" fill="none" stroke="#020202" stroke-width="0.25" stroke-linecap="round"/></g></g><g data-paper-data="{&quot;index&quot;:null}"><path d="M239.1964,182.23011c1.53946,-0.12377 2.02964,0.05722 3.09657,0.77442c1.59014,1.06892 1.94482,3.05965 -0.07922,4.63442c-2.05147,1.59612 -6.47138,0.88009 -6.63329,-0.89801c-0.15054,-1.65334 0.2819,-4.24281 3.61594,-4.51084z" fill="#3ad3cf" stroke="none" stroke-width="0" stroke-linecap="butt"/><path d="M238.92562,183.65779c3.34482,0.454 3.35883,2.20979 3.36116,2.98201c0.00396,1.31279 -1.02903,2.78015 -3.17241,2.9024c-1.60394,0.09147 -3.61985,-1.52089 -3.50029,-2.77999c0.17721,-1.8664 2.15703,-3.26114 3.31154,-3.10443z" fill="#ffffff" stroke="none" stroke-width="0" stroke-linecap="butt"/><path d="M241.15339,184.71499l0.38303,-0.4153" fill="none" stroke="#808080" stroke-width="0.5" stroke-linecap="round"/><path d="M239.59099,183.97855l0.0477,-0.46838" fill="none" stroke="#808080" stroke-width="0.5" stroke-linecap="round"/><path d="M237.64286,183.59081l0.23454,0.85679" fill="none" stroke="#808080" stroke-width="0.5" stroke-linecap="round"/><path d="M236.03077,184.92204l0.2903,0.58799" fill="none" stroke="#808080" stroke-width="0.5" stroke-linecap="round"/></g><g data-paper-data="{&quot;index&quot;:null}"><g><path d="M231.23299,189.09495c0.38337,-0.57731 2.68368,-1.9836 3.61396,-1.63484c0.25377,0.09512 1.46413,2.09837 1.83192,4.40595c0.45712,2.86818 -0.29243,4.641 -0.73422,4.55362c-1.66506,-0.18005 -3.97619,-3.76979 -4.33363,-4.49153c-0.35742,-0.72171 -0.7614,-2.25588 -0.37805,-2.8332z" fill="#09a400" stroke="none" stroke-width="0" stroke-linecap="butt"/><path d="M232.55611,193.39061c0,0 -0.20538,-0.2611 -0.32074,-0.43929c-0.11535,-0.1782 -0.53187,-0.87784 -0.53187,-0.87784c0,0 1.25468,-1.06191 2.2029,-1.47687c0.94819,-0.41495 2.29614,-0.49203 2.29614,-0.49203c0,0 0.30866,0.86281 0.40966,1.38843c0.10103,0.5256 0.11091,0.94489 0.11091,0.94489c0,0 -1.37214,-0.06882 -2.16993,0.11864c-0.79781,0.18746 -1.99704,0.83404 -1.99704,0.83404z" fill="#ffffff" stroke="none" stroke-width="0" stroke-linecap="butt"/><path d="M234.89083,188.12905c0,0 0.82279,2.47174 1.06596,4.11138c0.24317,1.63963 0.12151,4.03019 0.12151,4.03019" fill="none" stroke="#000000" stroke-width="0.25" stroke-linecap="round"/><path d="M235.14633,188.39944l-0.44891,0.05525" fill="none" stroke="#808080" stroke-width="0.5" stroke-linecap="round"/><path d="M234.95832,189.74683l0.58493,-0.08269" fill="none" stroke="#808080" stroke-width="0.5" stroke-linecap="round"/><path d="M235.65858,193.21531l0.48979,-0.0281" fill="none" stroke="#808080" stroke-width="0.5" stroke-linecap="round"/><path d="M236.28762,194.92867l-0.51693,0.06898" fill="none" stroke="#808080" stroke-width="0.5" stroke-linecap="round"/><path d="M235.39527,191.3413l0.70155,-0.09361" fill="none" stroke="#808080" stroke-width="0.5" stroke-linecap="round"/></g><path d="M236.37765,185.3733c0,0 0.53171,-0.76999 0.83519,-1.20947c0.30348,-0.43947 0.80438,-1.16807 0.80438,-1.16807l0.58961,-0.08546c0,0 0.42186,0.80784 0.00444,1.29294c-0.4174,0.48509 -1.53035,1.57625 -1.53035,1.57625z" fill="#3ad3cf" stroke="none" stroke-width="0" stroke-linecap="butt"/><path d="M236.8451,185.45968c0.42017,0.36495 0.05315,0.70274 -0.67725,1.4753c-0.39109,0.41365 -1.27631,1.40201 -1.68592,0.95926c-0.38363,-0.41464 0.34777,-1.16262 0.72108,-1.5924c0.37329,-0.42978 1.32344,-1.11895 1.64209,-0.84217z" fill="#ffffff" stroke="none" stroke-width="0" stroke-linecap="butt"/></g><g data-paper-data="{&quot;index&quot;:null}"><path d="M239.7407,184.97392c0.19118,-0.99915 0.54757,-2.10314 0.54757,-2.10314l0.62934,0.39441c0,0 -0.05312,0.69949 -0.20685,1.52047c-0.16559,0.88429 -0.61882,3.28715 -0.61882,3.28715l-0.68793,-0.51309c0,0 0.1455,-1.58666 0.33669,-2.58581z" fill="#3ad3cf" stroke="none" stroke-width="0" stroke-linecap="butt"/><g><path d="M241.13191,189.71353c0.29252,2.39839 -1.98671,3.94976 -2.4353,3.75489c-1.24527,-0.5236 -1.56134,-1.60313 -1.90496,-3.32267c-0.4162,-2.08276 1.63431,-3.82111 2.65644,-3.49723c0.33464,0.10605 1.47208,1.32888 1.68382,3.06503z" fill="#ffffff" stroke="none" stroke-width="0" stroke-linecap="butt"/><path d="M238.47669,187.51251l0.89145,0.47582" fill="none" stroke="#808080" stroke-width="0.5" stroke-linecap="round"/><path d="M237.81581,188.90833l0.72025,0.34378" fill="none" stroke="#808080" stroke-width="0.5" stroke-linecap="round"/><path d="M237.47368,190.1794l0.73793,0.25156" fill="none" stroke="#808080" stroke-width="0.5" stroke-linecap="round"/><path d="M238.05838,191.7419l-0.56672,-0.11951" fill="none" stroke="#808080" stroke-width="0.5" stroke-linecap="round"/><path d="M237.76333,192.25533c0,0 -0.1969,-1.80516 0.1987,-2.87647c0.39561,-1.07131 1.52397,-2.51699 1.52397,-2.51699" fill="none" stroke="#020202" stroke-width="0.25" stroke-linecap="round"/></g></g><path d="M245.8921,178.08405c4.39801,-0.04125 7.43878,3.53377 7.40595,6.00742c-0.03197,2.40983 -0.48983,3.09088 -1.59798,4.24654c-2.85388,2.97625 -9.79907,0.51322 -9.86051,-1.89186c-0.07233,-2.8314 1.14772,-8.33487 4.05255,-8.3621z" data-paper-data="{&quot;index&quot;:null}" fill="#3ad3cf" stroke="none" stroke-width="0" stroke-linecap="butt"/><path d="M245.45542,178.69958c0.65378,0.00589 1.53143,3.39282 0.14299,6.15868c-0.58999,1.17529 -2.75466,2.65487 -3.14556,2.37386c-1.23647,-0.91073 -1.34275,-2.27037 -1.35232,-3.58541c-0.01761,-2.42046 2.45256,-4.96428 4.35489,-4.94714z" data-paper-data="{&quot;index&quot;:null}" fill="#ffffff" stroke="none" stroke-width="0" stroke-linecap="butt"/><path d="M255.9609,181.47733c0.10324,0.39409 -0.48801,1.40944 -1.03373,1.93201c-0.54572,0.52256 -1.83637,0.81633 -1.83637,0.81633c0,0 -0.44347,-1.42683 -0.87671,-2.29891c-0.43325,-0.87208 -1.39944,-1.85276 -1.55708,-2.10466c-0.2232,-0.35666 4.61801,-0.96275 5.3039,1.65523z" data-paper-data="{&quot;index&quot;:null}" fill="#ffffff" stroke="none" stroke-width="0" stroke-linecap="butt"/><path d="M250.69887,191.84755c-0.64648,0.57247 -1.91872,0.19982 -2.84866,-0.54017c-1.0264,-0.81675 -1.76912,-1.95057 -1.76912,-1.95057c0,0 1.53567,0.00499 2.82906,-0.02805c1.29338,-0.03303 2.54249,-0.86081 2.54249,-0.86081c0,0 0.85477,1.9552 -0.75376,3.3796z" data-paper-data="{&quot;index&quot;:null}" fill="#ffffff" stroke="none" stroke-width="0" stroke-linecap="butt"/><g data-paper-data="{&quot;index&quot;:null}" stroke="none" stroke-width="0" stroke-linecap="butt"><path d="M246.17152,185.89305c0.97445,-0.16924 1.90305,0.41451 2.0741,1.30382c0.17106,0.88932 -0.48023,1.74742 -1.45468,1.91665c-0.97444,0.16924 -1.90304,-0.4145 -2.07409,-1.30381c-0.17104,-0.8893 0.48024,-1.74743 1.45469,-1.91666z" fill="#ffffff"/><path d="M247.90038,187.78699c-0.09009,0.43953 -1.01916,1.24218 -1.73973,1.07028c-0.72057,-0.1719 -1.21131,-1.29826 -1.12121,-1.73781c0.09008,-0.43953 0.88097,-1.19521 1.63462,-1.01542c0.75366,0.17979 1.3164,1.24339 1.22631,1.68294z" fill="#000000"/></g><g data-paper-data="{&quot;index&quot;:null}" stroke="none" stroke-width="0" stroke-linecap="butt"><path d="M250.46351,182.97939c-0.25964,0.79017 -1.33945,1.14506 -2.41181,0.79268c-1.07236,-0.35238 -1.7312,-1.27858 -1.47154,-2.06875c0.25965,-0.79016 1.33945,-1.14506 2.41181,-0.79268c1.07236,0.35238 1.7312,1.27858 1.47154,2.06875z" fill="#ffffff"/><path d="M248.19065,183.43238c-0.78217,-0.25313 -1.51133,-0.906 -1.33039,-1.67221c0.18095,-0.76621 1.07059,-0.83777 1.86261,-0.58146c0.79202,0.25631 1.42878,1.16221 1.3387,1.60175c-0.09009,0.43954 -1.08874,0.90505 -1.87092,0.65193z" fill="#000000"/></g><path d="M248.72003,183.4631c0,0 1.45424,-0.16549 2.01161,-0.00717c0.77251,0.21943 1.10965,1.03282 1.10965,1.03282l-1.47606,3.66335c0,0 -1.05282,0.03885 -1.57747,-0.16917c-0.42371,-0.168 -1.48614,-1.47723 -1.48614,-1.47723c0,0 0.82369,-0.20101 1.42086,-0.27605c0.59716,-0.07504 1.62825,-0.1071 1.62825,-0.1071l-1.63072,-2.65943z" data-paper-data="{&quot;index&quot;:null}" fill="#3ad3cf" stroke="none" stroke-width="0" stroke-linecap="butt"/><g data-paper-data="{&quot;index&quot;:null}" stroke="none" stroke-width="0" stroke-linecap="butt"><path d="M245.5545,183.98614c0.01434,0.56128 -0.46711,1.35552 -1.20567,1.19724c-0.34611,-0.07419 -0.39514,-0.50628 -0.14887,-1.25108c0.17626,-0.53307 0.44457,-1.11673 1.01105,-1.09589c0.35373,0.01302 0.32914,0.58845 0.34348,1.14973z" fill="#71716f"/><path d="M245.27565,182.89426c0.27417,-0.04042 0.49348,0.20644 0.5878,0.5092c0.09433,0.30276 0.01376,0.57562 -0.15105,0.89271c-0.16481,0.31709 -0.73715,0.81015 -0.73715,0.81015c0,0 -0.48945,-0.36954 -0.33679,-1.31785c0.10085,-0.62663 0.16033,-0.8239 0.63719,-0.89421z" fill="#010101"/><path d="M244.71938,184.36119c0.15863,-0.00406 0.2905,0.12126 0.29455,0.27988c0.00406,0.15863 -0.12125,0.29049 -0.27986,0.29454c-0.15863,0.00406 -0.29049,-0.12125 -0.29454,-0.27986c-0.00406,-0.15863 0.12126,-0.2905 0.27988,-0.29455z" fill="#ffffff"/></g><g data-paper-data="{&quot;index&quot;:null}"><path d="M250.64784,185.77855c0,0 0.14969,1.31842 1.08259,2.02751c0.9329,0.7091 1.24581,2.22671 1.24581,2.22671l-0.34262,0.38825c0,0 -0.39815,-1.41629 -1.28693,-2.08774c-0.88878,-0.67147 -1.43251,-2.17899 -1.43251,-2.17899z" fill="#717370" stroke="none" stroke-width="0" stroke-linecap="butt"/><path d="M252.5997,190.79411l0.14472,-1.42667l0.64867,1.31354l1.16133,1.3638l-0.57884,0.79457l-0.78533,-0.2908l-0.60247,1.03211l-0.44322,-1.54562l-0.95628,-0.06456z" fill="#009300" stroke="none" stroke-width="0" stroke-linecap="butt"/><path d="M252.74257,189.54533c-0.00777,0.75014 -0.05541,3.62028 -0.05541,3.62028" fill="none" stroke="#000000" stroke-width="0.25" stroke-linecap="round"/><path d="M251.18389,191.99441l1.52892,-1.12525l1.95019,1.1801" fill="none" stroke="#000000" stroke-width="0.25" stroke-linecap="round"/></g></g></g></svg>