<svg version="1.1" xmlns="http://www.w3.org/2000/svg" xmlns:xlink="http://www.w3.org/1999/xlink" width="31.17738" height="32.79047" viewBox="0,0,31.17738,32.79047"><g transform="translate(-223.39846,-162.74699)"><g data-paper-data="{&quot;isPaintingLayer&quot;:true}" fill-rule="nonzero" stroke-linejoin="miter" stroke-miterlimit="10" stroke-dasharray="" stroke-dashoffset="0" style="mix-blend-mode: normal"><path d="M230.71696,187.78733l5.19517,-5.74045l0.87024,6.20572c0,0 -5.80371,1.67386 -6.01214,1.77599c-0.68975,0.33797 -1.95398,0.37942 -1.95398,0.37942l-3.9684,-0.12295c0,0 2.86528,-2.01196 4.23276,-2.31592z" data-paper-data="{&quot;index&quot;:null}" fill="#ff3200" stroke="none" stroke-width="0" stroke-linecap="butt"/><path d="M233.37111,184.17996c0,-1.59688 -0.16568,-2.6653 0.74287,-3.63772c0.75815,-0.81145 6.36769,-0.94105 7.13936,-0.05319c0.84121,0.96788 0.75027,2.16304 0.75027,3.69091c0,1.35129 -0.41118,2.29885 -1.08819,3.23544c-0.79065,1.09383 -1.94385,2.06875 -3.22805,2.06875c-2.3838,0 -4.31625,-2.37476 -4.31625,-5.30419z" data-paper-data="{&quot;index&quot;:null}" fill="#ff3200" stroke="none" stroke-width="0" stroke-linecap="butt"/><path d="M237.15645,181.83061c0,0 1.58739,0.933 2.84253,0.59413c1.25513,-0.33888 1.04076,-0.96178 1.04076,-0.96178c0,0 0.17805,1.07641 -0.27413,1.75017c-0.14697,0.21899 -0.36053,0.39544 -0.66841,0.47856c-1.25514,0.33887 -2.94076,-1.86108 -2.94076,-1.86108z" data-paper-data="{&quot;index&quot;:null}" fill="#ffffff" stroke="none" stroke-width="0" stroke-linecap="butt"/><path d="M241.75005,176.4825l1.83355,-3.12464l2.66749,1.09839l-4.63591,8.76174z" fill="#ff3200" stroke="none" stroke-width="0" stroke-linecap="butt"/><path d="M247.63571,173.22393l-1.02316,1.66303c0,0 -1.46764,-0.19329 -2.3209,-0.76691c-0.85325,-0.57362 -1.23276,-1.82137 -1.23276,-1.82137l0.26843,-2.15138l0.53371,-2.54341l1.83431,-1.46831c0,0 0.64598,-2.16019 1.37098,-2.84505c0.72502,-0.68485 3.88988,-0.23516 5.19908,2.58177c1.08029,2.32442 0.72798,4.25541 -0.54906,5.19207c-1.27704,0.93667 -4.08064,2.15953 -4.08064,2.15953z" data-paper-data="{&quot;index&quot;:null}" fill="#dcdcd5" stroke="none" stroke-width="0" stroke-linecap="butt"/><path d="M247.36735,173.03308c0,0 -1.79124,-0.44723 -2.45175,-0.93587c-0.30453,-0.22527 -1.27637,-1.19275 -1.27637,-1.19275" data-paper-data="{&quot;index&quot;:null}" fill="none" stroke="#c1b9a5" stroke-width="1" stroke-linecap="round"/><path d="M246.97983,166.37606c0.03779,0.20864 3.99142,2.34553 3.91678,2.67354c-0.03313,0.14559 -1.923,-0.97332 -3.17256,-0.97618c-1.10789,-0.00253 -1.59423,1.11825 -1.59423,1.11825" data-paper-data="{&quot;index&quot;:null}" fill="none" stroke="#c1b9a5" stroke-width="1" stroke-linecap="round"/><path d="M227.52805,175.01687z" fill="#030000" stroke="none" stroke-width="0" stroke-linecap="butt"/><path d="M244.94759,178.86521c-1.05686,2.82885 -1.31074,7.15756 -1.31074,7.15756c0,0 -1.89467,-2.23883 -1.92467,-3.54644c-0.0653,-2.84608 1.46769,-6.17539 0.86664,-6.25572c-0.01486,-0.00199 -1.53019,-0.20799 -3.17105,-0.45803c-1.00664,-0.1534 -1.92477,-0.95537 -2.9728,0.1258c-1.5798,1.62975 -2.18484,8.56253 -2.18484,8.56253l-0.78522,-7.77831c0,0 -0.56263,2.37452 -0.74265,3.79558c-0.25122,1.98326 -0.6236,6.99009 -0.6236,6.99009c0,0 -1.49743,-4.34027 -1.4839,-7.02029c0.0164,-3.24632 1.57532,-11.08638 1.57532,-11.08638c0,0 -1.66253,7.58449 -2.46332,12.48643c-0.80079,4.90193 -0.58937,6.20009 -0.58937,6.20009c0,0 -1.58767,-4.71003 -1.60709,-7.82908c-0.01943,-3.11904 0.54677,-7.26388 0.54677,-7.26388l-2.31489,5.80383c0,0 0.14688,-3.49414 0.42347,-5.15007c0.2633,-1.57645 1.69121,-4.83134 1.69121,-4.83134c0,0 1.171,-1.66819 2.62805,-2.69735c2.65373,-1.87442 3.76053,-1.28624 3.76053,-1.28624c0,0 4.05694,-1.10599 6.54598,0.02709c3.05841,1.39228 6.25008,4.21778 6.53658,7.14155c0.25306,2.5825 -1.43649,4.33248 -2.40041,6.91259z" data-paper-data="{&quot;index&quot;:null}" fill="#ff3300" stroke="none" stroke-width="0" stroke-linecap="butt"/><path d="M243.40979,174.26012c1.23548,0.89778 2.20588,0.77073 2.38544,2.55972c0.09877,0.98408 -0.53497,2.67776 -2.9573,4.33826c-1.28355,0.01556 -1.30746,1.37433 -3.29258,0.87613c-1.98512,-0.49821 -3.85048,-0.96193 -4.3885,-2.86845c-0.31581,-2.10352 -0.02601,-4.31178 0.18748,-4.76405c0.73757,-1.56259 0.81275,-2.17614 3.42037,-1.87615c1.94925,0.22425 3.40961,0.83676 4.64509,1.73454z" data-paper-data="{&quot;index&quot;:null}" fill="#ffbe7e" stroke="none" stroke-width="0" stroke-linecap="butt"/><path d="M244.99744,177.29944c0,0 -0.28977,-0.63864 -0.12584,-0.91751c0.16393,-0.27889 0.84637,-0.29064 0.84637,-0.29064c0,0 1.21818,1.1103 1.17538,1.43049c-0.04279,0.32019 -1.89591,-0.22234 -1.89591,-0.22234z" data-paper-data="{&quot;index&quot;:null}" fill="#030000" stroke="none" stroke-width="0" stroke-linecap="butt"/><path d="M237.08734,169.55375c0,0 0.4843,-3.00567 2.76805,-2.4863c4.02315,1.62626 2.04514,4.59962 2.04514,4.59962" data-paper-data="{&quot;index&quot;:null}" fill="none" stroke="#000000" stroke-width="0.5" stroke-linecap="round"/><path d="M244.0452,172.74844c0,0 1.05071,-1.39768 2.41355,-0.4528c0.98227,0.7478 0.01458,2.54387 0.01458,2.54387" data-paper-data="{&quot;index&quot;:null}" fill="none" stroke="#000000" stroke-width="0.5" stroke-linecap="round"/><path d="M238.64901,181.05057c-1.64962,-0.85427 -2.44493,-2.59335 -1.77637,-3.88435c0.66855,-1.291 2.5478,-1.64505 4.19742,-0.79078c1.64961,0.85426 2.44492,2.59334 1.77636,3.88435c-0.66855,1.291 -2.54779,1.64505 -4.19741,0.79079z" data-paper-data="{&quot;index&quot;:null}" fill="#000000" stroke="none" stroke-width="0" stroke-linecap="butt"/><path d="M238.0868,180.55468c-1.1146,-0.57721 -1.58768,-1.8764 -1.05666,-2.90184c0.53102,-1.02543 1.86508,-1.38879 2.97968,-0.81159c1.11461,0.57721 1.5877,1.8764 1.05666,2.90183c-0.53102,1.02543 -1.86508,1.3888 -2.97969,0.8116z" data-paper-data="{&quot;index&quot;:null}" fill="#ff0017" stroke="none" stroke-width="0" stroke-linecap="butt"/><path d="M234.0191,183.11807l-5.44962,-8.35416l2.28616,-0.86705l4.09259,7.23286z" fill="#ff3200" stroke="none" stroke-width="0" stroke-linecap="butt"/><path d="M227.0785,173.52593c0,0 -2.53257,-0.14276 -3.35114,-3.99625c-0.43785,-2.06123 -0.70916,-3.22106 1.00977,-5.12244c2.08316,-2.30425 5.23958,-1.79861 5.72983,-0.93009c0.49025,0.86853 -0.53098,3.57767 -0.53098,3.57767c0,0 0.22098,0.63036 0.77068,0.44581c1.08283,-0.36355 2.46296,-1.89623 2.72963,-0.77373c0.40206,1.69234 -0.02792,2.87532 -0.51446,3.86026c-0.32933,0.6667 -0.78843,0.83231 -1.0108,1.22042c-0.23652,0.41281 -0.27761,1.45966 -0.27761,1.45966c0,0 -0.73129,1.07988 -1.71594,1.37573c-0.98466,0.29586 -2.44387,0.04682 -2.44387,0.04682l-0.39511,-1.16385z" fill="#dcdcd5" stroke="none" stroke-width="0" stroke-linecap="butt"/><path d="M231.5008,172.09247c0,0 -1.1145,0.90293 -1.93548,1.12595c-0.82098,0.22302 -2.34609,0.26046 -2.34609,0.26046" fill="none" stroke="#c1b9a5" stroke-width="1" stroke-linecap="round"/><path d="M229.17302,169.99291c0,0 0.50296,-1.12354 -0.55621,-1.44851c-0.38222,-0.11727 -0.4972,-0.5084 -0.97102,-0.49643c-1.00704,0.02543 -2.08332,0.32002 -2.07559,0.21877c0.02563,-0.33541 3.88869,-1.11764 3.98646,-1.30579" fill="none" stroke="#c1b9a5" stroke-width="1" stroke-linecap="round"/><path d="M238.58137,188.02283c0.93928,-0.2963 4.52339,1.0484 4.52339,1.0484l0.16891,2.0628l-5.60376,-1.6752z" data-paper-data="{&quot;index&quot;:null}" fill="#ff3200" stroke="none" stroke-width="0" stroke-linecap="butt"/><path d="M233.8898,184.40582c0.40022,0.26628 5.17546,3.95311 5.58293,6.33576c0.40748,2.38265 -1.32131,5.07379 -3.68321,4.77272c-1.92996,-0.24599 -4.90459,-2.91147 -6.21737,-4.2085c-1.31278,-1.29702 -2.24563,-2.48657 -2.26045,-4.06989c-0.01481,-1.58333 0.41978,-2.80471 1.92528,-3.79648c1.5055,-0.99176 3.6287,0.28499 4.65283,0.96637z" data-paper-data="{&quot;index&quot;:null}" fill="#ff1c00" stroke="none" stroke-width="0" stroke-linecap="butt"/><path d="M236.18691,187.38049c0,0 4.00772,3.62187 1.8581,6.05161c-2.32227,2.87834 -6.28055,-1.44954 -6.28055,-1.44954c0,0 -4.92229,-3.15954 -1.64895,-6.89482c1.84983,-2.15382 5.87572,2.38054 6.0714,2.29275z" data-paper-data="{&quot;index&quot;:null}" fill="#1d1a19" stroke="none" stroke-width="0" stroke-linecap="butt"/><path d="M248.0575,183.44274c1.03885,-0.65874 3.18955,-1.88855 4.67292,-0.86398c1.48337,1.02458 1.89105,2.25521 1.84148,3.83782c-0.04957,1.58261 -1.00831,2.75138 -2.34926,4.01927c-1.34095,1.26789 -4.37337,3.86743 -6.30827,4.071c-2.36795,0.24912 -4.03722,-2.47933 -3.57755,-4.85244c0.45968,-2.37313 5.3147,-5.95423 5.72068,-6.21166z" data-paper-data="{&quot;index&quot;:null}" fill="#ff1c00" stroke="none" stroke-width="0" stroke-linecap="butt"/><path d="M253.12859,185.42128c2.29194,2.70778 -2.54921,6.02326 -2.54921,6.02326c0,0 -4.1284,4.35262 -6.38693,1.42398c-2.09576,-2.47634 2.89192,-5.401 2.89192,-5.401c0,0 4.24213,-4.24014 6.04423,-2.04624z" data-paper-data="{&quot;index&quot;:null}" fill="#1d1a19" stroke="none" stroke-width="0" stroke-linecap="butt"/><path d="M245.24349,188.82575c0,0 0.33931,-2.8967 0.27444,-3.13728c-0.06487,-0.24056 2.32903,-2.02437 2.32903,-2.02437c0,0 1.23822,1.33607 0.49722,2.64271c-0.74102,1.30664 -3.10068,2.51894 -3.10068,2.51894z" data-paper-data="{&quot;index&quot;:null}" fill="#b29b96" stroke="none" stroke-width="0" stroke-linecap="butt"/></g></g></svg>