<svg version="1.1" xmlns="http://www.w3.org/2000/svg" xmlns:xlink="http://www.w3.org/1999/xlink" width="121.70846" height="72.28617" viewBox="0,0,121.70846,72.28617"><g transform="translate(-158.8535,-181.80975)"><g data-paper-data="{&quot;isPaintingLayer&quot;:true}" fill-rule="nonzero" stroke="none" stroke-linecap="butt" stroke-linejoin="miter" stroke-miterlimit="10" stroke-dasharray="" stroke-dashoffset="0" style="mix-blend-mode: normal"><path d="M260.67539,217.69553c15.86943,8.7148 19.88657,36.40039 19.88657,36.40039c0,0 -17.3987,-8.71046 -23.51627,-10.12182c-6.11757,-1.41136 -18.87457,-1.37474 -20.31306,-1.37474c-2.95939,0 -14.45636,2.46854 -21.24737,6.00645c-6.79101,3.53791 -12.81515,3.09618 -12.81515,3.09618c0,0 0.13927,-21.3538 10.16674,-28.16181c10.16998,-6.90476 18.0133,-10.42261 25.08064,-10.98312c8.56913,-0.67962 17.47207,2.2357 22.7579,5.13846z" data-paper-data="{&quot;index&quot;:null}" fill="#3a3a3a" stroke-width="0"/><path d="M199.14898,252.97028c-2.61771,-1.94751 -0.38047,-19.05533 -1.82201,-20.60187c-1.12865,-0.83396 -19.01268,0.32364 -19.82698,-0.33656c-2.90893,-2.1821 10.77549,-12.70842 17.29633,-17.06361c6.52085,-4.35519 16.23507,-8.846 18.79309,-7.10932c2.63985,1.79223 5.74585,16.06209 8.17008,15.72065c2.22987,-1.14392 11.23918,3.75823 6.80407,10.79526c-3.49036,5.53805 1.19571,8.95714 1.19571,8.95714c0,0 -28.79679,10.98748 -30.61027,9.6383z" data-paper-data="{&quot;index&quot;:null}" fill="#3a3a3a" stroke-width="0"/><path d="M192.98857,198.24043c0,0.71173 -3.025,1.83566 -3.1273,2.51889c-0.10752,0.71811 2.84402,1.98451 2.63195,2.66267c-0.18682,0.59741 -3.52602,0.61154 -3.78764,1.17162c-0.42861,0.91757 1.59378,2.91327 0.98538,3.70968c-0.32142,0.42073 -3.2135,-0.30943 -3.57954,0.07194c-0.56927,0.59313 0.08351,3.11762 -0.58181,3.60363c-0.68354,0.49931 -2.68764,-1.04305 -3.45709,-0.67226c-0.36329,0.17507 -0.31071,2.74082 -0.69058,2.88466c-0.79043,0.29931 -2.03953,-1.87665 -2.89074,-1.72353c-0.81106,0.1459 -1.78785,2.911 -2.64092,2.911c-0.91756,0 -1.67302,-2.77705 -2.54142,-2.94528c-0.57581,-0.11155 -1.98818,2.00605 -2.53652,1.82639c-0.609,-0.19953 -0.35047,-2.704 -0.91952,-2.98147c-0.56469,-0.27536 -2.80643,1.11075 -3.32552,0.76491c-0.86901,-0.57897 0.02853,-2.95062 -0.68927,-3.70375c-0.5064,-0.53132 -2.81131,0.59594 -3.23001,-0.00962c-0.42599,-0.6161 1.03587,-2.96625 0.7114,-3.64846c-0.30903,-0.64974 -3.25849,-0.47786 -3.46584,-1.17797c-0.17526,-0.59175 2.37641,-2.04895 2.27996,-2.67052c-0.10964,-0.7066 -3.28004,-1.43063 -3.28004,-2.16795c0,-0.77179 3.17584,-1.529 3.29576,-2.2669c0.10847,-0.66746 -1.43422,-2.59281 -1.23505,-3.22513c0.21691,-0.68866 2.18381,-0.08069 2.49957,-0.71893c0.32727,-0.66151 -0.71002,-3.27482 -0.28652,-3.87222c0.43638,-0.61556 2.33637,0.78693 2.86399,0.25037c0.52045,-0.52928 -0.19111,-3.14026 0.40741,-3.58196c0.63466,-0.46838 2.58393,1.23831 3.29404,0.88074c0.62712,-0.31579 0.29052,-2.99177 0.96717,-3.21183c0.70497,-0.22926 2.42511,2.00169 3.17416,1.88602c0.70337,-0.10861 1.42398,-2.99542 2.15777,-2.99542c0.89921,0 1.77866,2.91508 2.63081,3.0768c0.69345,0.1316 1.93491,-2.65773 2.58815,-2.42807c0.44549,0.15662 0.3146,3.30708 0.73822,3.50612c0.68223,0.32056 2.74964,-1.85294 3.36642,-1.43106c0.57543,0.39361 -0.29519,3.37637 0.21423,3.84913c0.60657,0.56292 3.2861,-0.3779 3.78552,0.28368c0.45527,0.60309 -1.25989,2.80086 -0.90537,3.47423c0.33892,0.64373 3.4597,-0.23973 3.69656,0.45825c0.21477,0.63287 -2.44488,2.84279 -2.32166,3.51262c0.15231,0.82801 3.20389,1.25691 3.20389,2.12897z" data-paper-data="{&quot;index&quot;:null}" fill="#ff81a7" stroke-width="NaN"/><path d="M189.84688,232.06112c0,0 -0.16924,-4.59079 -1.31353,-6.27895c-1.14429,-1.68816 -4.61033,-2.46045 -4.61033,-2.46045l8.36237,-7.02964c0,0 2.22604,1.25127 3.33778,2.52569c1.11002,1.27246 3.32749,5.11498 3.32749,5.11498v8.12838z" data-paper-data="{&quot;index&quot;:null}" fill="#983777" stroke-width="0"/><path d="M190.82229,232.06114c0,0 -12.26039,0.41028 -12.84284,0c-3.42486,-2.41248 6.17757,-8.77865 6.17757,-8.77865c0,0 4.22004,0.50659 5.17759,1.76776c1.20626,1.58874 1.48768,7.01088 1.48768,7.01088z" data-paper-data="{&quot;index&quot;:null}" fill="#f34d64" stroke-width="0"/></g></g></svg>