<svg version="1.1" xmlns="http://www.w3.org/2000/svg" xmlns:xlink="http://www.w3.org/1999/xlink" width="15.44225" height="15.91266" viewBox="0,0,15.44225,15.91266"><g transform="translate(-223.24593,-160.61273)"><g data-paper-data="{&quot;isPaintingLayer&quot;:true}" fill-rule="nonzero" stroke-linecap="butt" stroke-linejoin="miter" stroke-miterlimit="10" stroke-dasharray="" stroke-dashoffset="0" style="mix-blend-mode: normal"><path d="M234.24581,167.79321c0.56803,-0.90182 -0.89624,0.53291 -2.09277,0.14611c-0.26897,-0.08695 2.73886,-2.00282 3.01133,-0.41233c-0.56803,0.90182 1.93048,1.14828 2.67698,1.16837c0.37914,0.0102 0.66145,0.15475 0.72184,0.69115c0.07823,0.69482 -0.98143,1.51231 -1.15892,1.46428c-0.73872,-0.24572 0.50817,-1.23272 -0.0806,-1.67822c-0.58876,-0.44551 -2.34849,-0.25088 -2.62835,-0.3716c-0.41233,-0.17785 -0.66973,-0.65817 -0.44952,-1.00776z" data-paper-data="{&quot;index&quot;:null}" fill="#f2a948" stroke="#f7d665" stroke-width="0.25"/><path d="M230.08392,169.93468c0.34314,1.20977 -1.14376,2.62102 -0.22193,2.08608c0.35735,-0.20737 0.82801,0.06728 0.99079,0.48579c0.11048,0.28405 -0.14786,2.03557 0.276,2.6401c0.42386,0.60453 1.45543,-0.60572 1.6742,0.14142c0.04155,0.1791 -0.81384,1.20842 -1.50536,1.10504c-0.53386,-0.0798 -0.66807,-0.36718 -0.66451,-0.74644c0.00701,-0.74675 -0.14866,-3.25254 -1.07049,-2.71759c-1.57956,-0.32999 0.44416,-3.26635 0.52129,-2.99439z" data-paper-data="{&quot;index&quot;:null}" fill="#f2a948" stroke="#f7d665" stroke-width="0.25"/><path d="M223.97851,162.51245l1.22202,-1.20436l1.6921,-0.69536l0.02327,0.54993l1.98883,2.06233l-0.37893,1.26371l-1.42032,1.38195l-1.32198,0.36433l-1.96816,-2.04089l-0.5694,-0.06464z" data-paper-data="{&quot;index&quot;:null}" fill="#272727" stroke="none" stroke-width="0"/><path d="M229.29221,164.19108c0.20324,0.21104 -0.117,1.07845 -0.117,1.07845l1.05269,1.96357l-0.64338,0.59878l-1.87239,-1.19867c0,0 -0.79575,0.22378 -0.98455,0.02774c-0.1663,-0.17267 -0.49117,-0.70057 -0.49117,-0.70057c0,0 0.86945,-0.80446 1.20353,-1.12619c0.38721,-0.3729 1.22294,-1.16396 1.22294,-1.16396c0,0 0.48667,0.37271 0.62934,0.52087z" data-paper-data="{&quot;index&quot;:null}" fill="#f2a948" stroke="#f7d665" stroke-width="0.25"/><path d="M229.56361,168.71968c-0.09546,-0.09898 -0.07101,-0.77422 0.36081,-1.19064c0.43182,-0.41644 1.12708,-0.39606 1.20295,-0.31738c0.07587,0.07868 0.07101,0.77422 -0.36081,1.19064c-0.43182,0.41644 -1.12708,0.39606 -1.20295,0.31738z" data-paper-data="{&quot;index&quot;:null}" fill="#f2a948" stroke="#f7d665" stroke-width="0.25"/><path d="M237.45803,170.95848c0,0 -1.45378,1.2508 -2.28568,2.02056c-0.83189,0.76975 -2.24723,2.17376 -2.24723,2.17376c0,0 -4.43847,-4.73327 -2.11111,-6.82386c2.32752,-2.09074 6.64402,2.62954 6.64402,2.62954z" data-paper-data="{&quot;index&quot;:null}" fill="#f2a948" stroke="#f7d665" stroke-width="0.25"/></g></g></svg>