<svg version="1.1" xmlns="http://www.w3.org/2000/svg" xmlns:xlink="http://www.w3.org/1999/xlink" width="345.72096" height="36.38279" viewBox="0,0,345.72096,36.38279"><g transform="translate(-67.13952,-10.15696)"><g data-paper-data="{&quot;isPaintingLayer&quot;:true}" fill="#f8b820" fill-rule="nonzero" stroke="none" stroke-width="0.26458" stroke-linecap="butt" stroke-linejoin="miter" stroke-miterlimit="10" stroke-dasharray="" stroke-dashoffset="0" style="mix-blend-mode: normal"><g><path d="M77.29285,45.69362v-24.53723h-10.15333v-10.99942h32.15221v10.99942h-10.15333v24.53723z"/><path d="M103.52231,45.69362l10.57637,-35.53665h19.03752l10.57637,35.53665h-12.2686l-2.11526,-6.76889h-11.4225l-2.11526,6.76889zM126.7904,29.61749l-3.17291,-10.57637l-3.17293,10.57637z"/><path d="M147.94311,45.69362v-35.53665h14.80695v35.53665z"/><path d="M166.98063,45.69362v-35.53665h12.69168v25.38333h16.92222v10.15333z"/><path d="M204.20954,45.69362c-1.4102,-0.28203 -2.53831,-0.56405 -3.38444,-0.84613l1.69223,-8.46111l5.07666,0.42308c3.94851,0.28203 7.05091,0.28203 9.30719,0c1.12815,-0.5641 1.69223,-1.4102 1.69223,-2.53835c-0.28203,-1.12815 -2.82038,-1.69223 -7.61498,-1.69223c-4.23058,-0.56405 -7.19193,-2.11526 -8.88415,-4.65362c-0.84613,-1.97425 -1.26917,-4.23053 -1.26917,-6.76889c0,-3.94851 1.4102,-6.90989 4.23053,-8.88415c1.97425,-1.4102 5.49971,-2.11526 10.57637,-2.11526c5.07666,0 10.15333,0.42304 15.22999,1.26913l-1.69223,8.03807c-5.92279,-0.28203 -10.01232,-0.42304 -12.2686,-0.42304c-1.97425,0.28203 -2.9614,0.98711 -2.9614,2.11526c-0.28203,1.97425 1.26917,2.9614 4.65362,2.9614c4.79463,0 8.32009,0.84613 10.57637,2.53835c1.69223,1.4102 2.53831,3.80749 2.53831,7.19193c0,2.93319 -0.70507,5.47151 -2.11526,7.61498c-1.4102,2.53835 -4.93565,4.08956 -10.57637,4.65362c-4.79463,0.28207 -9.73029,0.14106 -14.80695,-0.42304z"/><path d="M257.59915,10.15696h10.57637l3.80753,12.2686l3.38444,-12.2686h6.76889l3.80749,12.2686l3.38444,-12.2686h10.57637l-9.30719,35.53665h-10.15333l-1.90376,-8.88415l-1.90376,8.88415h-10.15333z"/><path d="M304.13522,45.69362v-35.53665h14.80695v35.53665z"/><path d="M323.17269,45.69362v-35.53665h14.3839l9.30719,15.86458v-15.86458h12.69168v35.53665h-14.3839l-9.30719,-15.35693v15.35693z"/><path d="M367.17045,45.69362c-1.4102,-0.28203 -2.53831,-0.56405 -3.38444,-0.84613l1.69223,-8.46111l5.07666,0.42308c3.94854,0.28203 7.05096,0.28203 9.30724,0c1.12815,-0.5641 1.69223,-1.4102 1.69223,-2.53835c-0.28203,-1.12815 -2.82038,-1.69223 -7.61501,-1.69223c-4.23058,-0.56405 -7.19193,-2.11526 -8.88415,-4.65362c-0.84613,-1.97425 -1.26917,-4.23053 -1.26917,-6.76889c0,-3.94851 1.4102,-6.90989 4.23058,-8.88415c1.97425,-1.4102 5.49971,-2.11526 10.57637,-2.11526c5.07666,0 10.15333,0.42304 15.22999,1.26913l-1.69223,8.03807c-5.92276,-0.28203 -10.01232,-0.42304 -12.2686,-0.42304c-1.97425,0.28203 -2.9614,0.98711 -2.9614,2.11526c-0.28203,1.97425 1.26917,2.9614 4.65362,2.9614c4.79463,0 8.32009,0.84613 10.57637,2.53835c1.69223,1.4102 2.53835,3.80749 2.53835,7.19193c0,2.93319 -0.70512,5.47151 -2.11531,7.61498c-1.4102,2.53835 -4.93565,4.08956 -10.57637,4.65362c-4.79463,0.28207 -9.73029,0.14106 -14.80695,-0.42304z"/><path d="M412.86048,10.15696l-2.11526,21.99888h-9.73029l-2.11531,-21.99888zM399.83037,40.49002c-0.05649,-1.60761 0.47936,-3.046 1.60761,-4.31514c1.12815,-1.26917 2.67937,-1.90376 4.65362,-1.90376c1.69223,0 3.10237,0.63459 4.23053,1.90376c1.12815,1.26913 1.69223,2.74985 1.69223,4.44208c0,1.69223 -0.56405,3.10237 -1.69223,4.23053c-1.12815,1.12815 -2.53831,1.69226 -4.23053,1.69226c-1.97425,0 -3.52546,-0.5641 -4.65362,-1.69226c-1.12815,-1.12815 -1.66402,-2.58064 -1.60761,-4.35747z"/></g></g></g></svg>