<svg version="1.1" xmlns="http://www.w3.org/2000/svg" xmlns:xlink="http://www.w3.org/1999/xlink" width="5.16399" height="14.46662" viewBox="0,0,5.16399,14.46662"><g transform="translate(-235.66009,-180.22218)"><g data-paper-data="{&quot;isPaintingLayer&quot;:true}" fill-rule="nonzero" stroke-linejoin="miter" stroke-miterlimit="10" stroke-dasharray="" stroke-dashoffset="0" style="mix-blend-mode: normal"><g data-paper-data="{&quot;index&quot;:null}"><path d="M237.80637,182.85285c0.29906,1.35359 0.3744,2.08816 0.13536,2.14434c-0.09982,0.02346 -0.89968,1.00628 -1.04627,0.34259c-0.20447,-0.92571 -0.11046,-2.8992 -0.28464,-3.68755c-0.18532,-0.83881 0.50403,-1.8412 0.90542,-1.25436c0.24633,0.36014 0.23129,2.18864 0.29013,2.45497z" fill="#f8b820" stroke="none" stroke-width="NaN" stroke-linecap="butt"/><g data-paper-data="{&quot;index&quot;:null}" stroke="none" stroke-width="0" stroke-linecap="butt"><path d="M239.63372,185.15097c0.22775,0.55591 -0.46747,1.36703 -1.55282,1.81169c-1.08536,0.44466 -2.14984,0.35447 -2.3776,-0.20144c-0.22775,-0.55591 0.46747,-1.36703 1.55282,-1.81169c1.08535,-0.44466 2.14983,-0.35447 2.37759,0.20144z" data-paper-data="{&quot;index&quot;:null}" fill="#ffffff"/><path d="M240.08371,187.21984c0.10266,0.59192 -0.75097,1.23424 -1.90663,1.43466c-1.15567,0.20043 -2.17573,-0.11694 -2.27838,-0.70887c-0.10265,-0.59191 0.75097,-1.23424 1.90663,-1.43466c1.15565,-0.20042 2.17573,0.11695 2.27838,0.70888z" data-paper-data="{&quot;index&quot;:null}" fill="#ffffff"/><path d="M240.0895,188.80903c0.60142,0.90484 1.04563,2.31836 0.45964,3.08964c-0.36351,0.47845 -0.00729,-1.34589 -0.65693,-0.05345c-0.64964,1.29244 0.95024,-0.29498 0.75617,0.38468c-0.14434,0.50551 -0.93689,2.18162 -1.01055,2.21788c-0.41013,0.20184 -1.643,0.37114 -2.13109,0.10111c-0.4881,-0.27002 -1.01708,-0.72952 -1.1079,-0.89786c-0.8822,-1.63504 -0.70775,-2.04866 -0.53308,-2.88225c0.3097,-1.47811 1.41321,-2.28024 1.41321,-2.28024c0,0 0.15858,-0.07216 1.05104,-0.22695c0.89247,-0.15478 1.43681,0.06197 1.75948,0.54743z" data-paper-data="{&quot;index&quot;:null}" fill="#f8f8f8"/></g><path d="M239.23584,188.39382c0,0 -0.69357,0.29183 -1.00285,0.3255c-0.33062,0.036 -1.12094,0.03552 -1.12094,0.03552" fill="none" stroke="#707070" stroke-width="0.5" stroke-linecap="round"/></g></g></g></svg>