<svg version="1.1" xmlns="http://www.w3.org/2000/svg" xmlns:xlink="http://www.w3.org/1999/xlink" width="19.65547" height="28.75003" viewBox="0,0,19.65547,28.75003"><g transform="translate(-231.96436,-190.56163)"><g data-paper-data="{&quot;isPaintingLayer&quot;:true}" fill-rule="nonzero" stroke-linejoin="miter" stroke-miterlimit="10" stroke-dasharray="" stroke-dashoffset="0" style="mix-blend-mode: normal"><g stroke="none" stroke-width="0" stroke-linecap="butt"><path d="M250.947,201.08501c1.37116,-0.12963 -0.27036,3.09458 -0.85689,4.01803c-0.54361,1.15096 -2.36335,2.73572 -2.36335,2.73572c0,0 -1.1891,1.16861 -1.18056,0.08824c0.00398,-0.50292 -0.02519,-0.99239 0.00388,-1.46886c0.03337,-0.54708 0.14351,-1.07703 0.46871,-1.59045c0,0 2.05122,-3.6052 3.92821,-3.78265z" fill="#54c81c"/><path d="M244.75043,210.83754l-4.53445,-2.54405l0.71502,-1.46318c0,0 3.2816,3.42755 4.6712,1.92779c0.45486,-0.4615 1.85518,-2.42693 1.85518,-2.42693c0,0 1.33474,-2.23151 1.90466,-2.51272c0.72496,-0.35772 0.79547,0.41821 0.60843,0.99061c-0.18704,0.57241 -1.16097,1.61687 -1.69006,2.37491c-0.64365,0.92217 -1.02047,1.91813 -2.00127,3.0594c-0.98079,1.14128 -1.5287,0.59418 -1.5287,0.59418z" fill="#ffffff"/></g><g stroke="none" stroke-width="0" stroke-linecap="butt"><path d="M251.06235,202.07311c1.36428,-0.18871 -0.13645,3.10337 -0.68258,4.05128c-0.49341,1.17337 -2.24298,2.83523 -2.24298,2.83523c0,0 -1.13753,1.21887 -1.17565,0.13913c-0.01774,-0.50261 -0.06801,-0.99039 -0.05955,-1.46766c0.00971,-0.54801 0.09686,-1.08223 0.3996,-1.60923c0,0 1.8936,-3.69041 3.76117,-3.94877z" fill="#54c81c"/><path d="M245.29273,212.08416l-4.64008,-2.34584l0.65116,-1.49271c0,0 3.42656,3.28263 4.75009,1.72427c0.4345,-0.48071 1.74863,-2.50479 1.74863,-2.50479c0,0 1.23713,-2.28707 1.79436,-2.59263c0.70884,-0.3887 0.81278,0.38346 0.65064,0.96342c-0.16214,0.57995 -1.09006,1.66549 -1.58591,2.44569c-0.60322,0.9491 -0.93668,1.9604 -1.86727,3.14297c-0.93059,1.18257 -1.50161,0.65963 -1.50161,0.65963z" fill="#ffffff"/></g><path d="M238.69937,206.64248c-0.20733,-0.23604 -0.07196,-2.7266 -0.01329,-2.83315c0.22858,-0.41436 0.7671,-0.30353 0.8975,-0.30258c0.10324,0.00075 0.59171,0.04887 0.6675,0.13053c0.24565,0.2649 0.30528,0.94742 0.29124,1.64047c-0.00882,0.79268 1.34233,2.92163 1.08168,3.28825c-0.31263,0.32898 -2.92461,-1.92351 -2.92461,-1.92351z" data-paper-data="{&quot;index&quot;:null}" fill="#319a2b" stroke="none" stroke-width="0.17188" stroke-linecap="butt"/><g stroke="none" stroke-linecap="butt"><path d="M239.77995,215.36576c-0.22037,-0.66416 4.10534,-0.71041 4.19474,-0.41955c0.03692,0.12015 2.81439,-0.47695 3.54396,-0.39372c0.7296,0.08322 2.26662,0.87027 2.26662,0.87027l-2.67264,1.19536c0,0 -1.61818,0.48953 -2.67916,0.48001c-1.06099,-0.00955 -4.08736,-0.41971 -4.08736,-0.41971z" data-paper-data="{&quot;index&quot;:null}" fill="#54c81c" stroke-width="0.17188"/><g><path d="M237.54451,213.24405c-0.00797,0.11099 -0.75697,1.9082 -0.75598,2.70236c0.00032,0.26028 -1.48678,0.41519 -2.40626,0.35569c-0.91949,-0.0595 -2.35258,-0.75329 -2.35258,-0.75329l0.48096,-0.80832l1.65886,0.36955l1.62057,0.18289z" data-paper-data="{&quot;index&quot;:null}" fill="#54c81c" stroke-width="0.17188"/><path d="M234.89212,214.06366c0.57826,-0.381 0.36213,-0.02359 1.23476,-1.15173c0.87263,-1.12813 1.26146,-3.39004 2.5712,-5.22675c0.3188,0.94596 -0.77522,4.02546 -1.05165,5.1264c-0.27644,1.10096 -0.69397,1.57672 -0.85746,2.21097c-0.17657,0.68453 -2.30282,0.21888 -3.65069,-0.02586c-1.34785,-0.24475 1.17554,-0.55208 1.7538,-0.93308z" data-paper-data="{&quot;index&quot;:null}" fill="#ffffff" stroke-width="0.17188"/><path d="M237.8114,213.55314c0.01803,-0.59569 2.25128,-0.41112 2.23849,-0.15264c-0.00527,0.10686 -0.25118,2.38102 -0.2265,3.1468c0.01453,0.44997 -0.61065,1.42268 -1.43348,1.95695c-0.82283,0.53429 -4.53247,0.80741 -4.53247,0.80741c0,0 0.92986,-0.87892 1.40409,-1.5215c0.47421,-0.64257 1.25543,-1.07993 1.25423,-1.75306z" data-paper-data="{&quot;index&quot;:null}" fill="#54c81c" stroke-width="0.17188"/><path d="M241.22754,207.17427c0,0 0.49793,0.17065 0.51451,0.37276c0.04042,0.49289 0.06997,2.08031 -0.31935,3.38752c-0.38934,1.30723 -1.15234,3.73821 -1.3124,4.36062c-0.17285,0.67175 -0.64936,0.05052 -0.89193,0.38157c-0.49571,0.67748 -2.53293,1.00415 -2.96025,0.9658c-0.4468,-0.04011 0.40806,-1.04921 0.48365,-1.63442c0.07559,-0.5852 0.25847,-0.46577 0.32714,-1.7557c0.06941,-1.30353 0.23457,-1.65007 0.52823,-2.64551c0,0 0.40055,-2.1176 0.88008,-2.87799l0.57681,-0.85234z" data-paper-data="{&quot;index&quot;:null}" fill="#ffffff" stroke-width="0.17188"/><g data-paper-data="{&quot;index&quot;:null}"><path d="M246.26051,212.42132c0.26972,0.84284 -2.31826,2.60191 -2.70058,1.95419c-0.96455,-1.62931 -2.38227,-7.12609 -2.28245,-7.34593c0.08862,-0.15533 1.43859,1.54032 2.48891,3.18558c0.53837,0.84331 2.20559,1.58482 2.4941,2.20613z" data-paper-data="{&quot;index&quot;:null}" fill="#ffffff" stroke-width="0.19137"/><path d="M244.72547,213.47343c0.27136,-0.36407 1.23612,-1.50566 1.23612,-1.50566l0.97085,0.63919c0,0 -1.43849,2.58627 -1.64937,2.30363c-0.48664,-0.65269 -1.3278,-1.13074 -1.42973,-1.39756c-0.14619,-0.38266 0.32518,0.26218 0.59648,-0.10182z" data-paper-data="{&quot;index&quot;:null}" fill="#54c81c" stroke-width="0.17188"/></g><path d="M241.30438,207.90015c0.5207,0.59433 1.85537,2.45233 2.57083,3.66122c0.25425,0.42965 3.26042,2.88188 4.18274,3.52731c0.37083,0.25951 -1.11636,0.48689 -1.9476,0.68595c-0.83125,0.19907 -1.60826,0.16566 -1.60826,0.16566c0,0 -1.04846,0.48033 -1.6245,0.29401c-0.57606,-0.18636 -2.8154,0.3941 -3.25123,-1.02371c-0.44045,-1.43289 -0.61287,-3.86273 -0.81271,-4.84853c-0.19984,-0.9858 0.50799,-3.17482 1.07401,-3.34351c0,0 0.89602,0.28728 1.41672,0.8816z" data-paper-data="{&quot;index&quot;:null}" fill="#ffffff" stroke-width="0.17188"/></g></g><g data-paper-data="{&quot;index&quot;:null}" stroke="none" stroke-width="0.17188" stroke-linecap="butt"><path d="M238.73292,199.58449c0.00026,1.65221 0.2564,2.27291 0.26671,3.35194c0.00782,0.81947 -0.4379,1.16722 -0.57983,1.04799c-0.329,-0.27622 -1.27489,-3.12062 -1.3179,-4.50865c-0.02701,-0.87725 -0.61192,-2.99961 -0.30906,-3.80008c0.19923,-0.52588 1.03947,-0.60784 1.61258,-0.59849c0.44362,0.00636 0.5607,-0.14224 0.5931,0.28664c0.09776,1.29716 -0.26582,2.56845 -0.26559,4.22066z" fill="#319a2b"/><path d="M237.6932,193.94472c-0.31486,0.40577 -0.67751,0.29446 -0.83466,0.17247c-0.7526,-0.62483 -1.24605,-1.75674 -1.20645,-2.63414c-0.04236,0.17376 0.26546,-0.82213 1.21184,-0.74847c0.41018,0.01417 1.15465,-0.1555 1.8144,-0.17295l0.63084,0.14794c0.28991,0.06788 0.43407,0.4746 0.28162,0.75552c-0.02251,0.04156 0.22223,-0.06482 0.36059,0.06649c0.24905,0.23637 0.45315,0.77588 0.25693,1.01921c-0.17184,0.21354 -0.17287,0.62866 -0.5216,0.82355c-0.47025,0.2628 -0.28027,-0.41205 -0.70936,-0.33228c-0.25506,0.04727 -1.27691,0.89351 -1.28413,0.90263z" fill="#f0e9bb"/><path d="M239.05537,195.90738c0.23463,0.16607 -0.18789,-0.56463 -0.48089,-0.46132c-0.28922,0.10206 -1.80769,0.95126 -2.00874,0.70887c-0.35205,-0.47874 0.202,-1.60464 -0.09944,-2.10735c0.09599,0.15401 0.70441,0.03427 0.70441,0.03427c0.03255,-0.00912 0.49506,-0.20143 0.9687,-0.61221c0.38946,-0.33774 0.77608,-0.71319 0.99067,-0.56085c0.14855,0.10524 0.54391,0.43131 0.55403,0.80762c0.01065,0.3998 0.15941,0.93226 0.05091,1.33012c-0.04694,0.17228 -0.45662,1.14858 -0.53966,1.26883c-0.12659,0.18285 -0.18698,-0.44125 -0.13999,-0.40798z" fill="#ead42f"/></g><path d="M242.47735,199.29046c0.00829,0.91731 -0.07479,1.83203 -0.14928,2.74595c-0.00987,0.3766 -0.23809,0.70548 -0.51551,0.94307c-0.30181,0.25026 -0.70933,0.30311 -1.07427,0.41276c-0.56982,0.14908 -1.15765,0.21892 -1.74587,0.19255c-0.72475,0.00583 -1.63987,-0.08704 -2.27393,-0.50729c-0.433,-0.19789 -0.36573,-0.18733 -0.81297,-0.36633c-0.89368,-0.50019 -1.51796,-1.39139 -1.82531,-2.35572c-0.1886,-0.57645 -0.28265,-1.19519 -0.21409,-1.80059c0.04349,-0.25488 0.63824,-4.52602 4.65704,-4.20958c4.38686,0.34543 3.94681,4.82575 3.95419,4.94518z" data-paper-data="{&quot;index&quot;:null}" fill="#f0e9bb" stroke="none" stroke-width="0.17188" stroke-linecap="butt"/><path d="M235.07566,198.72748c0.60616,0.20764 0.80532,0.55337 0.88745,1.10205c0.13052,0.29848 0.0266,1.4395 -0.18074,1.43449c-0.21061,-0.03294 -0.45723,-0.07261 -0.71039,-0.12755c-0.39524,-0.08573 -0.50141,-0.18913 -0.46418,-0.27076c0.02567,-0.05636 -0.0445,-0.22565 -0.07917,-0.3932c-0.03529,-0.17062 -0.03528,-0.34144 -0.03743,-0.62631c-0.00193,-0.26421 0.0396,-0.55522 0.10168,-0.75089c0.08878,-0.27904 0.23453,-0.40844 0.48279,-0.36783z" data-paper-data="{&quot;index&quot;:null}" fill="#ffffff" stroke="none" stroke-width="0.17188" stroke-linecap="butt"/><path d="M235.72366,198.97035c-0.41598,-0.42365 -0.5583,-0.4713 -0.86131,-0.20713c-0.22698,0.17767 -0.383,0.79509 -0.39571,1.21444c-0.01699,0.56033 0.12964,0.98414 0.12964,0.98414c0,0 -0.12404,-0.12706 -0.22168,-0.41893c-0.09763,-0.29187 0.0206,-0.63787 -0.1514,-0.75489c-0.18013,-0.12255 -1.02375,-0.25868 -1.02375,-0.25868c0,0 1.18552,-0.00044 1.18793,-0.07506c0.01044,-0.32358 0.20923,-0.65476 0.32553,-0.75955c0.20913,-0.18845 0.33615,-0.26181 0.61027,-0.18982c0.19654,0.05162 0.31465,0.16919 0.52276,0.38144c0.67457,0.688 0.05779,2.33696 0.05779,2.33696c0,0 0.39068,-1.80504 -0.18008,-2.25292z" data-paper-data="{&quot;index&quot;:null}" fill="#000000" stroke="none" stroke-width="0" stroke-linecap="butt"/><g data-paper-data="{&quot;index&quot;:null}" stroke="none" stroke-linecap="butt"><path d="M235.07767,201.40198c-0.25026,0 -0.45314,-0.42916 -0.45314,-0.95856c0,-0.5294 0.20288,-0.95856 0.45314,-0.95856c0.25026,0 0.45314,0.42916 0.45314,0.95856c0,0.5294 -0.20288,0.95856 -0.45314,0.95856z" fill="#008ae6" stroke-width="0"/><path d="M235.08238,199.61787c0.07882,0.00751 0.14831,0.09815 0.19679,0.23878c0.04832,0.14064 0.07575,0.33112 0.07057,0.5381c-0.00505,0.20684 -0.04175,0.39133 -0.097,0.52226c-0.0551,0.1309 -0.1288,0.20825 -0.20772,0.20089c-0.07892,-0.00734 -0.14829,-0.09815 -0.19677,-0.23877c-0.04835,-0.14064 -0.07579,-0.33112 -0.07075,-0.53808c0.0052,-0.20685 0.04188,-0.39135 0.09713,-0.52227c0.05512,-0.13091 0.1288,-0.20826 0.20772,-0.2009z" fill="#000000" stroke-width="0.0278"/><path d="M235.22676,199.85579c0.04207,0.09778 0.067,0.23122 0.06483,0.37734c-0.00203,0.14592 -0.0307,0.27689 -0.0755,0.37069c-0.04461,0.09378 -0.10533,0.15045 -0.17136,0.1474c-0.066,-0.00305 -0.12505,-0.06522 -0.16694,-0.16303c-0.04207,-0.09778 -0.067,-0.23123 -0.06482,-0.37735c0.00203,-0.14592 0.03069,-0.27689 0.07549,-0.37069c0.04461,-0.09377 0.10533,-0.15044 0.17136,-0.14739c0.066,0.00306 0.12505,0.06521 0.16695,0.16302z" fill="#ffffff" stroke-width="0.01811"/></g><path d="M239.17732,199.59234c0.35637,-0.51369 0.6619,-0.65129 1.01899,-0.65129c0.50009,0 0.79537,0.76866 0.81319,1.38581c0.02,0.6926 -0.32037,1.01971 -0.32037,1.01971c0,0 -0.44393,0.13011 -0.93532,0.15374c-0.31485,0.01504 -0.66508,-0.01872 -0.92479,-0.01872c-0.25019,-0.027 0.26074,-1.76302 0.3483,-1.88925z" data-paper-data="{&quot;index&quot;:null}" fill="#ffffff" stroke="none" stroke-width="0.17188" stroke-linecap="butt"/><g data-paper-data="{&quot;index&quot;:null}" stroke="none" stroke-linecap="butt"><path d="M239.32767,201.73531c-0.25025,0 -0.45313,-0.42916 -0.45313,-0.95856c0,-0.5294 0.20288,-0.95856 0.45313,-0.95856c0.25025,0 0.45313,0.42916 0.45313,0.95856c0,0.5294 -0.20288,0.95856 -0.45313,0.95856z" fill="#008ae6" stroke-width="0"/><path d="M239.33238,199.95121c0.07883,0.00751 0.14831,0.09815 0.19679,0.23877c0.04832,0.14064 0.07575,0.33112 0.07057,0.53811c-0.00505,0.20684 -0.04175,0.39133 -0.097,0.52225c-0.05511,0.13089 -0.1288,0.20825 -0.20772,0.20089c-0.07892,-0.00735 -0.14829,-0.09815 -0.19677,-0.23877c-0.04835,-0.14064 -0.07579,-0.33112 -0.07075,-0.53808c0.0052,-0.20685 0.04188,-0.39135 0.09713,-0.52227c0.05512,-0.13091 0.1288,-0.20827 0.20772,-0.20091z" fill="#000000" stroke-width="0.0278"/><path d="M239.47676,200.18913c0.04207,0.09779 0.067,0.23123 0.06483,0.37735c-0.00203,0.14592 -0.03069,0.27689 -0.07549,0.37069c-0.04461,0.09379 -0.10533,0.15045 -0.17136,0.1474c-0.066,-0.00305 -0.12505,-0.06523 -0.16695,-0.16303c-0.04207,-0.09779 -0.067,-0.23123 -0.06483,-0.37735c0.00203,-0.14592 0.03069,-0.27689 0.07549,-0.37069c0.04461,-0.09377 0.10533,-0.15044 0.17136,-0.14739c0.066,0.00307 0.12505,0.06521 0.16695,0.16301z" fill="#ffffff" stroke-width="0.01811"/></g><path d="M238.71671,201.43964c0,0 -0.0558,-1.42945 0.61877,-2.11745c0.20811,-0.21225 0.375,-0.3786 0.57155,-0.43023c0.27411,-0.07199 0.4987,0.00137 0.70783,0.18982c0.1163,0.10479 0.31509,0.43598 0.32552,0.75955c0.00241,0.07462 1.18793,0.07506 1.18793,0.07506c0,0 -0.84362,0.13614 -1.02374,0.25869c-0.172,0.11702 -0.05377,0.46302 -0.1514,0.75489c-0.09763,0.29187 -0.22167,0.41893 -0.22167,0.41893c0,0 0.14663,-0.42381 0.12964,-0.98414c-0.01271,-0.41935 -0.16873,-1.03677 -0.39571,-1.21444c-0.30301,-0.26416 -0.61607,-0.19212 -1.03205,0.23153c-0.57075,0.44788 -0.71667,2.05779 -0.71667,2.05779z" fill="#000000" stroke="none" stroke-width="0" stroke-linecap="butt"/><path d="M235.95187,201.24357c0,0 -0.13578,0.53333 -0.55,0.53333c-0.41422,0 -0.81666,-0.8 -0.81666,-0.8l0.45,0.13333z" fill="#f0e9bb" stroke="none" stroke-width="0" stroke-linecap="butt"/><path d="M240.2533,201.50581c0,0 -0.03262,0.54938 -0.43938,0.6276c-0.40676,0.07823 -0.95305,-0.63138 -0.95305,-0.63138l0.46708,0.04595z" fill="#f0e9bb" stroke="none" stroke-width="0" stroke-linecap="butt"/><path d="M234.23725,194.27922c0.53291,0.41952 -1.44797,3.23903 -1.13443,2.76977c-0.57581,-0.36125 -1.00948,-1.05934 -1.13694,-1.59871c-0.01168,-0.04938 0.04788,-0.18509 0.04788,-0.18509c-0.08847,0.02195 0.02907,-0.08505 0.03874,-0.17766c0.00756,-0.07285 -0.06897,-0.22774 -0.06897,-0.22774c-0.04071,0.02855 0.17393,-0.08686 0.25292,-0.16276c0.0653,-0.06265 0.03575,-0.10348 0.08967,-0.14211c0.37841,-0.27247 1.02097,-0.40739 1.91114,-0.27572z" data-paper-data="{&quot;index&quot;:null}" fill="#ed3e67" stroke="none" stroke-width="0.17188" stroke-linecap="butt"/><path d="M242.18511,198.45749c-0.05192,-0.08862 -0.15901,-0.14285 -0.31453,-0.23427c-0.11686,-0.06882 -0.3437,-0.20296 -0.4179,-0.27277c-0.18624,-0.17526 -0.97715,-0.15406 -0.93088,-0.07863c-0.06178,0.11265 0.00814,-0.3057 -1.04143,0.66619l-1.11742,1.03524c-0.10286,0.09521 -0.51081,0.48087 -0.8336,0.59047c-0.34694,0.11781 -0.85989,0.15752 -0.90562,0.08715c0,0 -0.3188,-0.57042 -0.50977,-0.78797c-0.07261,-0.08272 -0.0661,0.09614 0.00661,0.32608c0.01196,0.03802 0.23462,0.61098 0.22407,0.63619c-0.0572,0.13561 -1.18757,-1.65837 -1.2487,-1.75711l-0.3766,-0.60986c-0.12713,-0.20563 -0.33143,-0.1024 -0.417,-0.12504c-0.12858,-0.03413 -0.20748,0.06971 -0.21701,0.19788c-0.01227,0.16212 -0.02664,0.83255 -0.0393,0.93047c-0.06663,0.51858 0.21,1.22247 0.3464,1.96056c0.07985,0.4317 1.81335,1.98359 1.59355,1.66951c-0.09915,-0.14181 -0.11348,1.00975 -0.40955,1.15609c-0.21129,0.10467 -1.23121,-1.73001 -1.33604,-2.12083l-0.59922,-2.23153c-0.17564,-0.65343 0.16115,-2.49518 0.25814,-2.8296l0.18943,-0.65333c0.34568,-0.77152 0.83538,-1.45764 1.49133,-2.04514c0.04176,-0.03743 0.64921,-0.72041 1.72312,-1.07386c0.67818,-0.22326 1.80981,-0.25245 1.89862,-0.25298c0.52087,-0.00311 1.53734,-0.02544 2.4643,0.18494c0.58965,0.13382 1.11357,0.43125 1.54567,0.66383c0.07767,0.04168 -0.76907,1.04864 -0.69444,1.08466c0.03625,0.01736 -0.19921,0.96832 -0.19108,1.05917l0.05416,0.60671c0.0548,0.61334 0.60799,1.24503 0.70796,1.32706c0.13679,0.11243 0.60891,0.45435 0.76783,0.45968l0.53564,0.01843c0.07339,0.00231 0.71723,-0.45702 0.76769,-0.41151c0.17775,0.16046 0.08205,1.08685 0.04438,1.26885l-0.19816,0.95796c-0.06389,0.30855 -0.08136,0.4827 -0.27869,0.90659c-0.27048,0.58171 -0.54356,1.16251 -0.96633,1.69223c-0.34159,0.42817 -1.98634,1.63204 -1.9544,1.47756l0.27,-1.31409l0.23684,-1.858l-0.1281,-2.30693z" data-paper-data="{&quot;index&quot;:null}" fill="#54c81c" stroke="none" stroke-width="0.17188" stroke-linecap="butt"/><path d="M246.10485,196.96637c-1.00078,0.33384 -2.28175,-1.76388 -2.28175,-1.76388c0.00276,-0.37679 0.92995,-1.13995 1.97873,-1.02607c0.80157,0.08718 1.32391,0.35958 1.58435,0.69583c0.03719,0.04801 0.00159,0.07835 0.04266,0.15079c0.04983,0.08749 0.20707,0.24266 0.17887,0.2071c0,0 -0.10416,0.12354 -0.11541,0.19163c-0.01437,0.08664 0.0613,0.21166 -0.00985,0.17104c0,0 0.01836,0.13768 -0.00387,0.17998c-0.24216,0.46238 -0.78776,0.99803 -1.37378,1.19361z" data-paper-data="{&quot;index&quot;:null}" fill="#ed3e67" stroke="none" stroke-width="0.17188" stroke-linecap="butt"/><path d="M243.05023,195.86939c0.09515,0.06728 0.00183,-0.50809 0.13513,-1.06798c0.14226,-0.59788 0.52356,-1.1859 1.03928,-1.21136c0.2978,-0.01462 0.56382,0.08224 0.81442,0.1559c0.51699,0.15187 0.87947,0.36527 0.6971,0.43407c-0.3095,0.11688 -0.70715,0.33598 -0.97319,0.52116c-0.37942,0.26397 -0.62357,0.46649 -0.60523,0.48719l1.17881,1.3299l0.79835,0.47571c0.13276,0.06993 -0.22495,0.29791 -0.62822,0.46084c-0.3481,0.14081 -0.5911,0.35404 -0.71329,0.39008c-0.54407,0.16142 -0.47108,-0.09105 -1.10401,-0.4393c-0.36801,-0.20254 -0.78206,-1.63759 -0.63915,-1.53619z" data-paper-data="{&quot;index&quot;:null}" fill="#54c81c" stroke="none" stroke-width="0.17188" stroke-linecap="butt"/><path d="M242.30639,195.8288c0.03762,-1.28213 0.56867,-2.73625 1.44309,-2.31217c0.36672,0.17776 -0.20064,0.41666 -0.48822,1.17262c-0.183,0.48108 -0.22002,1.22118 0.06481,2.12863c0.03003,0.09516 0.18831,0.28156 0.4051,0.52292c0.33212,0.37005 1.70935,0.17825 1.49485,0.30433l-0.83792,0.4921l-0.58878,-0.11246c-0.37521,0.02385 -1.52723,-1.02281 -1.49288,-2.19596z" data-paper-data="{&quot;index&quot;:null}" fill="#ead32e" stroke="none" stroke-width="0.17188" stroke-linecap="butt"/><path d="M234.59319,195.1417c-0.0788,0.26521 -0.39808,0.66696 -0.39808,0.66696c-0.04104,-0.13001 0.08382,-0.34191 0.08131,-0.45852c-0.00585,-0.26957 0.18963,-0.92631 0.67493,-1.37564l0.27603,-0.25544c0.13587,-0.12585 0.63098,-0.25197 0.72674,-0.18961c0.11439,0.15328 -0.49026,0.47597 -0.89382,1.01691c-0.19345,0.25931 -0.46711,0.59538 -0.46711,0.59538z" data-paper-data="{&quot;index&quot;:null}" fill="#ead32e" stroke="none" stroke-width="0.17188" stroke-linecap="butt"/><path d="M234.44434,195.06195c-0.05889,0.1366 -0.27256,0.81052 -0.36697,1.14305l-0.37215,1.31058c-0.02737,0.09642 -0.75643,-0.45059 -0.70213,-0.74481c-0.12581,-0.33486 -0.01622,-0.62067 0.02875,-0.91968c0.14485,-0.32635 0.41623,-0.76942 0.59674,-0.94832c0.14539,-0.14407 -0.02085,-0.60667 0.10462,-0.79693c0.18873,-0.28651 1.22924,-0.2468 1.22924,-0.2468z" data-paper-data="{&quot;index&quot;:null}" fill="#54c81c" stroke="none" stroke-width="0.17188" stroke-linecap="butt"/><path d="M239.51367,202.93638l0.83906,0.00612" data-paper-data="{&quot;index&quot;:null}" fill="none" stroke="#dfcfa3" stroke-width="0.36953" stroke-linecap="round"/><g data-paper-data="{&quot;index&quot;:null}" stroke="none" stroke-width="0.17188" stroke-linecap="butt"><path d="M240.03452,203.73838c0.02604,-1.07873 0.29123,-1.69564 0.31558,-3.34768c0.02433,-1.65204 -0.32064,-2.92848 -0.20396,-4.22409c0.03865,-0.42837 0.15356,-0.27807 0.59722,-0.27795c0.57317,-0.00099 1.41213,0.09322 1.60367,0.62197c0.29113,0.8048 -0.32467,2.91841 -0.36447,3.79517c-0.06326,1.38725 -1.05057,4.21756 -1.38357,4.48893c-0.14365,0.11716 -0.58427,-0.23705 -0.56447,-1.05633z" fill="#319a2b"/><path d="M241.47194,194.76671c-0.00707,-0.00922 -1.01647,-0.87026 -1.27081,-0.92127c-0.42789,-0.08601 -0.24777,0.59152 -0.71413,0.32188c-0.34585,-0.19996 -0.34081,-0.61505 -0.50953,-0.83109c-0.19264,-0.24619 0.0193,-0.78264 0.27177,-1.01535c0.14027,-0.12928 0.38344,-0.01934 0.36152,-0.06123c-0.14833,-0.28309 0.00176,-0.68769 0.29261,-0.75133l0.63293,-0.13873c0.65942,0.02707 1.40133,0.20761 1.81168,0.19941c0.94738,-0.05984 1.2406,0.94044 1.2008,0.76607c0.02679,0.87786 -0.48311,2.00245 -1.24476,2.61624c-0.1589,0.11968 -0.52315,0.22568 -0.83205,-0.18463z" fill="#f0e9bb"/><path d="M240.56889,196.25504c-0.29145,-0.10757 -0.72461,0.6169 -0.48757,0.45425c0.04746,-0.03257 -0.02203,0.59057 -0.14594,0.40588c-0.0813,-0.12146 -0.47666,-1.10364 -0.52109,-1.27658c-0.10271,-0.39939 0.05383,-0.92961 0.07032,-1.32924c0.01565,-0.37613 0.4157,-0.69638 0.56576,-0.79945c0.21678,-0.14919 0.59788,0.23186 0.98238,0.57524c0.46762,0.41767 0.92727,0.6167 0.95967,0.62628c0,0 0.60663,0.1286 0.70485,-0.024c-0.30873,0.49824 0.22882,1.63211 -0.13018,2.10568c-0.20455,0.23942 -1.71049,-0.63181 -1.99819,-0.7381z" fill="#ead42f"/></g><g data-paper-data="{&quot;index&quot;:null}" stroke="none" stroke-linecap="butt"><path d="M238.78276,203.62893c0.16379,0.0679 0.29431,0.33007 0.37263,0.69891c0.07843,0.36882 0.10473,0.84419 0.06035,1.33833c-0.04436,0.49423 -0.1511,0.91448 -0.28768,1.19414c-0.13669,0.2797 -0.30319,0.41891 -0.46697,0.35103c-0.16389,-0.06795 -0.29433,-0.33014 -0.37274,-0.69897c-0.07834,-0.36884 -0.10473,-0.84419 -0.06035,-1.33833c0.04437,-0.49422 0.15121,-0.91453 0.28779,-1.19417c0.1366,-0.27966 0.30308,-0.41887 0.46699,-0.35092z" fill="#eb3d66" stroke-width="0.01872"/><path d="M238.55215,204.02485c0.07536,0.02851 0.12909,0.1431 0.1552,0.30541c0.02608,0.16222 0.02441,0.3722 -0.01116,0.59106c-0.0356,0.21877 -0.09837,0.40551 -0.17119,0.53046c-0.07281,0.12492 -0.15549,0.1881 -0.23074,0.15956c-0.07532,-0.0284 -0.12908,-0.1431 -0.15518,-0.30542c-0.02604,-0.16225 -0.02445,-0.37208 0.01121,-0.59097c0.03559,-0.21886 0.09835,-0.40559 0.17117,-0.53055c0.07272,-0.12492 0.15539,-0.18798 0.23072,-0.15957z" fill="#ffffff" stroke-width="0.01896"/></g><path d="M233.17558,199.52955l0.88618,-0.02564l0.05378,0.20263z" fill="#000000" stroke="none" stroke-width="0" stroke-linecap="butt"/><path d="M241.41841,206.8662l0.23391,0.60534c0,0 -0.84963,-0.32402 -1.56843,-0.15139c-0.63846,0.03439 -1.30529,-0.3092 -1.2093,-0.46382c0.18589,-0.29941 0.44429,0.04276 1.08406,0.04276c0.63977,0 1.45976,-0.03289 1.45976,-0.03289z" fill="#ead42f" stroke="none" stroke-width="0" stroke-linecap="butt"/></g></g></svg>