<svg version="1.1" xmlns="http://www.w3.org/2000/svg" xmlns:xlink="http://www.w3.org/1999/xlink" width="38" height="30.67406" viewBox="0,0,38,30.67406"><g transform="translate(-225.30893,-163.30542)"><g data-paper-data="{&quot;isPaintingLayer&quot;:true}" fill-rule="nonzero" stroke-linejoin="miter" stroke-miterlimit="10" stroke-dasharray="" stroke-dashoffset="0" style="mix-blend-mode: normal"><g><g><path d="M248.21734,184.97283l0.82475,0.00697c0,0 1.37406,2.48892 1.80668,3.86843c0.3609,1.15079 0.63233,2.91075 0.65782,3.63186c0.04401,1.24507 -0.58158,1.0435 -0.58158,1.0435c0,0 -0.01557,-3.26871 -0.38046,-4.54369c-0.26011,-0.90899 -2.3272,-4.00707 -2.3272,-4.00707z" fill="#989898" stroke="#989898" stroke-width="0" stroke-linecap="round"/><path d="M246.96979,186.82097c0.09253,-0.55464 0.15713,-0.99127 0.56964,-1.43162c0.58641,-0.62598 0.98821,-0.43541 1.30361,-0.01271c0.66362,0.88995 1.36214,2.63517 1.36214,2.63517l-2.95639,1.87341c0,0 -0.4196,-2.21389 -0.27899,-3.06426z" fill="#f82020" stroke="none" stroke-width="1.13968" stroke-linecap="round"/><path d="M250.15127,187.93774c0,0 0.16784,0.10435 0.4386,1.06105c0.27076,0.95668 0.50255,2.24591 0.58329,3.33887c0.0318,0.43826 0.12309,1.18522 -0.21958,1.2448c-0.58335,0.10153 -1.81394,-0.12238 -2.30061,-0.63829c-0.48358,-0.51301 -1.49119,-2.46368 -1.41687,-3.19592c0.14613,-1.30357 2.91519,-1.81051 2.91519,-1.81051z" fill="#f8f8f8" stroke="none" stroke-width="1.15102" stroke-linecap="round"/><path d="M245.15229,187.07242c-0.02771,-0.42771 -0.39127,-1.16175 0.04162,-1.63134c0.49172,-0.5334 0.92414,0.11095 0.92414,0.11095c0,0 0.13597,-0.63047 0.54866,-0.41187c0.4007,0.21223 0.40718,0.49459 0.46408,0.79556c0.09561,0.50574 -0.11687,1.37856 -0.1054,1.55549c0.05732,0.8847 0.39484,2.18503 -0.06927,2.2151c-0.12311,0.00797 -0.71824,-0.19216 -0.71824,-0.19216c0,0 -0.58813,0.5299 -0.80272,0.16269c-0.27838,-0.47636 -0.2591,-2.23736 -0.28288,-2.60443z" fill="#ffffff" stroke="none" stroke-width="0" stroke-linecap="butt"/></g><path d="M247.51699,187.79776c0.08927,1.37782 0.03698,2.16881 -0.31196,2.19142c-0.12718,0.00824 -0.05576,-0.72832 -0.14503,-2.10614c-0.08927,-1.37782 -0.05494,-2.446 0.07225,-2.45424c0.34894,-0.0226 0.29547,0.99115 0.38474,2.36897z" fill="#424242" stroke="none" stroke-width="0" stroke-linecap="butt"/></g><path d="M245.27556,186.81782c0.2319,0.451 0.0744,1.2097 -0.3455,1.4122c-0.6542,0.3237 -1.5113,0.1313 -2.1297,-0.1995c-0.3795,-0.1978 -0.5472,-0.6966 -0.5726,-1.1504c-0.0465,-0.8117 -0.0631,-1.7152 0.3326,-2.4196c0.1563,-0.2754 0.8034,-0.1828 1.004,0.0852c0.3591,0.4777 -0.0556,1.2983 0.3044,1.7794c0.3061,0.4074 1.1775,0.0537 1.4068,0.4927z" data-paper-data="{&quot;index&quot;:null}" fill="#e88820" stroke="none" stroke-width="0.49091" stroke-linecap="round"/><path d="M245.74901,175.36029c0,3.60743 -0.78356,6.23963 -1.13412,7.14121c-0.21833,0.5615 -0.30152,0.07428 -0.30152,0.07428c0,0 0.31437,-0.95255 0.31437,-6.80662c0,-1.96926 -2.1099,-4.2209 -2.28757,-4.94621c-0.19596,-0.80001 2.82257,-0.61154 2.82257,-0.61154c0,0 3.14631,-1.07395 3.04959,0.02036c-0.07751,0.87693 -2.46334,3.45322 -2.46334,5.12852z" data-paper-data="{&quot;index&quot;:null}" fill="#e2a026" stroke="none" stroke-width="0" stroke-linecap="butt"/><path d="M242.78346,175.56473c0,-1.67529 -1.63601,-3.97836 -1.72729,-4.8553c-0.1139,-1.0943 2.13304,-0.29359 2.13304,-0.29359c0,0 3.25394,-0.82599 3.02318,-0.02599c-0.20923,0.72531 -2.10851,3.61447 -2.10851,5.58373c0,5.85408 0.21037,6.71555 0.21037,6.71555c0,0 0.0267,0.4834 -0.26404,-0.21431c-0.39979,-0.95941 -1.26675,-3.52083 -1.26675,-6.91011z" data-paper-data="{&quot;index&quot;:null}" fill="#e2a026" stroke="none" stroke-width="0" stroke-linecap="butt"/><path d="M245.53838,183.7346c0,1.55828 -1.22886,2.82152 -3.6322,2.82152c-1.84808,0 -4.99425,-0.67232 -5.62522,-1.72602c-0.18957,-0.31658 -1.37185,-0.33836 0.52477,-2.58898c1.14432,-1.3579 3.55812,0.43997 4.02687,0.48073c1.46685,-0.76968 2.32821,-1.19229 3.28569,-1.19229c0.76569,0 1.4201,0.64676 1.4201,2.20504z" data-paper-data="{&quot;index&quot;:null}" fill="#089c4e" stroke="none" stroke-width="0" stroke-linecap="butt"/><path d="M239.29265,185.97705c0,-0.23545 0.19087,-0.42631 0.42631,-0.42631c0.23545,0 0.42632,0.19087 0.42632,0.42631c0,0.23545 -0.19087,0.42632 -0.42632,0.42632c-0.23545,0 -0.42631,-0.19087 -0.42631,-0.42632z" fill="#ffffff" stroke="none" stroke-width="0" stroke-linecap="butt"/><path d="M243.04027,183.89671c0.12289,-1.03243 0.34511,-2.51605 0.64097,-2.51605c0.29586,0 -0.14129,1.59924 -0.26504,2.63879c-0.12375,1.03955 -0.06316,2.60372 -0.35902,2.60372c-0.29587,0 -0.13982,-1.69403 -0.01692,-2.72646z" fill="#000000" stroke="#000000" stroke-width="0" stroke-linecap="butt"/><path d="M238.02598,185.84371c0,-0.23545 0.19087,-0.42632 0.42632,-0.42632c0.23545,0 0.42632,0.19087 0.42632,0.42632c0,0.23545 -0.19087,0.42631 -0.42632,0.42631c-0.23545,0 -0.42632,-0.19087 -0.42632,-0.42631z" fill="#ffffff" stroke="none" stroke-width="0" stroke-linecap="butt"/><path d="M234.41526,185.34284l1.09233,-0.82376c0,0 1.43237,-0.42828 2.2103,-0.49052c0.96986,-0.07759 3.45961,-0.08844 3.45961,-0.08844l-2.00992,0.67487l0.39771,1.66607l-1.63584,-1.03845l-1.06935,1.62494l-0.70794,-1.38162l-1.99462,1.56303l1.56491,-2.10017z" fill="#cf0000" stroke="none" stroke-width="0" stroke-linecap="butt"/><path d="M244.49054,185.92826c-0.79373,0.71714 -0.99414,0.39537 -0.99414,0.39537l0.60475,-4.95716c0,0 1.28777,0.41907 1.43026,0.92992c0.31708,1.38621 0.10706,2.58999 -1.04086,3.63188z" data-paper-data="{&quot;index&quot;:null}" fill="#f8b820" stroke="none" stroke-width="0.49091" stroke-linecap="round"/><path d="M246.88641,187.26893c0.27487,0.42608 0.19239,1.19646 -0.20562,1.43913c-0.61944,0.38627 -1.49129,0.27864 -2.139,0.01001c-0.39698,-0.15978 -0.61277,-0.63972 -0.68246,-1.08886c-0.12568,-0.80325 -0.23066,-1.70076 0.09418,-2.44055c0.12859,-0.28934 0.78163,-0.26059 1.00751,-0.01342c0.40409,0.44018 0.07173,1.29745 0.47713,1.74106c0.34446,0.37545 1.17703,-0.06184 1.44827,0.35263z" data-paper-data="{&quot;index&quot;:null}" fill="#f8b820" stroke="none" stroke-width="0.49091" stroke-linecap="round"/><path d="M263.30893,168.56733c0,2.90607 -8.50659,5.2619 -19,5.2619c-10.49341,0 -19,-2.35583 -19,-5.2619c0,-2.90607 8.50659,-5.26191 19,-5.26191c10.49341,0 19,2.35583 19,5.26191z" fill-opacity="0.90196" fill="#e3a127" stroke="none" stroke-width="0" stroke-linecap="butt"/><path d="M241.40066,171.08367c0.68067,1.3392 0.8592,3.05684 0.8592,3.05684c0,0 1.6943,3.51224 0.7869,5.62882c-0.77248,1.80027 -3.37197,2.14558 -5.27415,2.60448c-1.53611,0.37109 -3.65887,0.83552 -4.73917,-0.25538c-1.27691,-1.29115 -1.12261,-4.39228 -1.57249,-6.15223c-0.16861,-0.66442 -0.86264,-1.38166 -1.31107,-2.52841c-0.44843,-1.14675 -1.17146,-2.1146 -0.94518,-2.82935c0.06083,-0.5833 1.33535,0.32787 2.10407,0.76537c0.76872,0.4375 2.13771,0.9472 2.83977,1.02472c0.81337,0.03064 1.0229,0.1592 1.77128,-0.21298c0.44251,-0.21952 3.24079,-4.29197 3.76314,-4.23319c0.62013,0.07051 1.03704,1.79212 1.7177,3.13132z" data-paper-data="{&quot;index&quot;:null}" fill="#f8b820" stroke="none" stroke-width="1" stroke-linecap="round"/><path d="M233.23576,179.56084c0.0809,0.6158 0.24505,1.29706 0.09767,1.85583c-0.0906,0.34105 -0.49817,0.69084 -0.65407,0.40061c-0.45899,-0.85476 -0.58326,-1.95848 -0.72807,-2.97525c-0.08933,-0.55692 -0.20193,-1.25597 0.03641,-1.67359c0.15956,-0.28053 0.64463,-0.1141 0.81221,0.18247c0.32582,0.65014 0.33848,1.46919 0.43584,2.20992z" data-paper-data="{&quot;index&quot;:null}" fill="#ffffff" stroke="none" stroke-width="0.86553" stroke-linecap="round"/><path d="M240.87572,173.68184c-0.10639,0.08927 -1.36077,-0.56524 -2.14275,-0.80553c-0.78198,-0.24029 -1.65049,-0.20912 -1.70401,-0.3887c-0.13689,-0.47634 0.61619,-1.01838 0.77077,-1.48394c0.16227,-0.48849 1.49922,-2.22816 1.7842,-2.16787c0.32125,0.07029 1.50392,4.66673 1.2918,4.84603z" data-paper-data="{&quot;index&quot;:null}" fill="#ffffff" stroke="none" stroke-width="0.85185" stroke-linecap="butt"/><path d="M238.2072,182.01071c-0.19504,0.47082 -0.81326,0.50144 -1.2648,0.55901c-0.48936,0.04531 -1.21322,0.24732 -1.47612,-0.25717c-0.59259,-1.13778 -0.51083,-2.60589 -0.66631,-3.87443c-0.06662,-0.54423 -0.18256,-1.11832 -0.01929,-1.63952c0.01358,-0.19279 0.27107,-0.14739 0.46817,-0.17561c0.23576,-0.03406 0.44993,-0.05005 0.71877,-0.00098c0.27752,0.05303 0.56995,0.15259 0.80907,0.30345c0.33202,0.23247 0.71034,0.49193 0.8938,0.87368c0.28009,0.5718 0.37888,1.24803 0.46119,1.89162c0.10141,0.79029 0.35784,1.63798 0.07552,2.31994z" data-paper-data="{&quot;index&quot;:null}" fill="#ffffff" stroke="none" stroke-width="0.97175" stroke-linecap="round"/><path d="M242.82325,178.46521c-0.213,0.31476 -0.84476,1.29459 -0.53981,1.40087c0.60156,0.21077 1.68366,0.3599 1.68366,0.3599c0,0 -0.8291,-0.10217 -1.41689,0.52717c-0.10993,0.11762 1.49544,0.2089 1.49544,0.2089l-1.38741,1.1175l1.30181,0.93584c0,0 -2.90214,-0.162 -3.23476,0.08183c-0.36712,0.26884 -1.12375,0.85505 -1.95666,1.16654c-0.83292,0.31149 -2.01592,0.60512 -2.84583,0.68535c-0.75741,0.04525 -1.87735,-0.12373 -2.81387,-0.78193c-0.55653,-0.24781 -1.1141,-1.51235 -0.72762,-1.88427c0.67478,-0.64938 2.01361,-0.62277 2.92101,-0.29979c0.80234,0.28558 1.80027,0.2198 2.60426,-0.05047c0.79136,-0.25321 1.3506,-0.6259 1.93979,-1.2322c0.8909,-0.91609 3.25775,-2.65112 2.97689,-2.23526z" data-paper-data="{&quot;index&quot;:null}" fill="#f8f8f8" stroke="none" stroke-width="1" stroke-linecap="round"/><path d="M233.0429,182.01315c0.355,-0.05282 0.39979,0.01668 0.65047,0.10234c0.2507,0.08566 -0.16227,0.73999 -0.51729,0.79281c-0.35501,0.05282 -1.113,-0.42731 -0.89811,-0.58224c0.2149,-0.15492 0.40992,-0.2601 0.76494,-0.31292z" data-paper-data="{&quot;index&quot;:null}" fill="#101010" stroke="none" stroke-width="1" stroke-linecap="butt"/><path d="M237.91143,183.54342l-1.61764,1.02723" data-paper-data="{&quot;index&quot;:null}" fill="none" stroke="#cccccc" stroke-width="0.36953" stroke-linecap="round"/><path d="M235.89498,179.48115c0.13932,0.22292 0.25325,0.54083 0.30714,0.90303c0.05389,0.3622 0.03743,0.6995 -0.03095,0.95334c-0.06974,0.25292 -0.19167,0.42128 -0.35132,0.44503c-0.15955,0.02373 -0.32524,-0.10184 -0.46558,-0.3235c-0.13942,-0.22291 -0.25324,-0.54082 -0.30712,-0.90304c-0.05389,-0.3622 -0.03755,-0.69949 0.03093,-0.95334c0.06974,-0.25292 0.19169,-0.42129 0.35124,-0.44502c0.15965,-0.02374 0.32533,0.10184 0.46567,0.32349z" fill="#4088ed" stroke="none" stroke-width="1.0615" stroke-linecap="butt"/><path d="M235.81461,179.77405c0.09241,0.138 0.16591,0.33635 0.19957,0.56267c0.03367,0.22631 0.0211,0.43744 -0.02712,0.59647c-0.04773,0.15885 -0.13059,0.26511 -0.23743,0.281c-0.10683,0.0159 -0.21695,-0.06166 -0.30886,-0.19974c-0.09244,-0.13809 -0.16592,-0.33644 -0.19958,-0.56276c-0.03367,-0.22631 -0.02111,-0.43744 0.02713,-0.59637c0.04773,-0.15895 0.1305,-0.2651 0.23733,-0.28099c0.10683,-0.0159 0.21702,0.06154 0.30895,0.1997z" fill="#000000" stroke="none" stroke-width="0.47368" stroke-linecap="butt"/><path d="M235.61164,179.90817c0.041,0.05607 0.07334,0.13688 0.08715,0.22967c0.0138,0.09278 0.00638,0.17951 -0.01651,0.2451c-0.02232,0.0654 -0.06081,0.10975 -0.10947,0.11698c-0.04856,0.00722 -0.0984,-0.02397 -0.13879,-0.08004c-0.041,-0.05607 -0.07325,-0.13691 -0.08706,-0.2297c-0.0138,-0.09278 -0.00647,-0.17949 0.01642,-0.24507c0.02232,-0.0654 0.06091,-0.10977 0.10947,-0.11698c0.04866,-0.00724 0.09839,0.02397 0.13879,0.08005z" fill="#ffffff" stroke="none" stroke-width="0.64678" stroke-linecap="butt"/><path d="M233.10422,179.87813c0.12391,0.19813 0.22508,0.48062 0.27299,0.80267c0.0479,0.32195 0.03336,0.62177 -0.0275,0.84737c-0.0619,0.22475 -0.17036,0.37444 -0.31219,0.39555c-0.14184,0.0211 -0.28916,-0.09053 -0.41392,-0.28752c-0.12391,-0.19813 -0.2251,-0.48071 -0.273,-0.80267c-0.04791,-0.32206 -0.03334,-0.62177 0.02751,-0.84737c0.06198,-0.22486 0.17042,-0.37455 0.31226,-0.39565c0.14184,-0.0211 0.28917,0.09052 0.41383,0.28762z" fill="#4088ed" stroke="none" stroke-width="0.94355" stroke-linecap="butt"/><path d="M232.97486,180.16387c0.08205,0.12276 0.14752,0.29905 0.17744,0.50013c0.02993,0.20119 0.01863,0.38889 -0.02414,0.53023c-0.04237,0.14127 -0.1161,0.23565 -0.21105,0.24978c-0.09495,0.01413 -0.19285,-0.05473 -0.27461,-0.17754c-0.08205,-0.12276 -0.14751,-0.29904 -0.17744,-0.50023c-0.02992,-0.20108 -0.01862,-0.38879 0.02415,-0.53012c0.04247,-0.14129 0.11608,-0.23565 0.21104,-0.24979c0.09495,-0.01413 0.19295,0.0547 0.27461,0.17753z" fill="#000000" stroke="none" stroke-width="0.42105" stroke-linecap="butt"/><path d="M232.76152,180.28812c0.03643,0.04979 0.06511,0.12165 0.07737,0.20404c0.01227,0.08249 0.00574,0.1596 -0.01461,0.21783c-0.01985,0.05825 -0.05411,0.09762 -0.09733,0.10406c-0.04323,0.00644 -0.08737,-0.02126 -0.12332,-0.07122c-0.03653,-0.04977 -0.06522,-0.12164 -0.07749,-0.20413c-0.01226,-0.08239 -0.00572,-0.15949 0.01472,-0.21773c0.01985,-0.05825 0.05401,-0.09762 0.09724,-0.10405c0.04323,-0.00644 0.08747,0.02125 0.12342,0.07121z" fill="#ffffff" stroke="none" stroke-width="0.57492" stroke-linecap="butt"/><path d="M233.18259,173.1948c0,0 -1.46993,1.04589 -1.76791,1.0902c-0.15276,0.02273 -0.98555,-1.03456 -1.31589,-1.8076c-0.33035,-0.77303 -0.49641,-1.66938 -0.49641,-1.66938z" fill="#ffffff" stroke="none" stroke-width="0" stroke-linecap="butt"/><path d="M233.85164,176.50882l-2.68112,1.32678l-1.67836,2.09796l1.25567,-3.00502l2.82624,-1.01818z" fill="#f8b820" stroke="none" stroke-width="1.22222" stroke-linecap="round"/><path d="M233.13382,175.82628l-2.39231,-0.14802l-2.45569,1.70611c0,0 1.485,-2.43308 1.90321,-2.60715c0.29335,-0.12212 3.06146,0.23457 3.06146,0.23457z" fill="#f8b820" stroke="none" stroke-width="1.22222" stroke-linecap="round"/><path d="M233.05469,174.66991c0,0 -1.3331,-0.85707 -2.31307,-0.96487c-0.97996,-0.1078 -4.30844,0.23641 -4.30844,0.23641c0,0 3.24514,-1.43594 3.90215,-1.35687c0.39834,0.04796 3.24498,1.33318 3.24498,1.33318z" fill="#f8b820" stroke="none" stroke-width="1.22222" stroke-linecap="round"/><path d="M229.99008,165.37825c0.07543,-0.02489 1.46756,-0.57942 2.50881,-0.66435c1.64503,-0.13417 3.19049,0.18933 3.19049,0.18933c0,0 -2.24313,0.22033 -2.81139,0.3829c-1.01128,0.28933 -2.73645,1.20437 -2.73645,1.20437c0,0 1.54876,-0.75946 2.36791,-0.9524c0.69495,-0.16368 2.23596,-0.13197 2.23596,-0.13197c0,0 -1.21259,0.38897 -1.72312,0.61022c-0.58022,0.25145 -1.57594,0.81954 -1.57594,0.81954c0,0 0.78108,-0.31641 1.30425,-0.43622c0.52318,-0.11981 1.16764,-0.12987 1.16764,-0.12987c0,0 -0.54578,0.32414 -0.77671,0.49106c-0.25753,0.18614 -0.73362,0.66122 -0.73362,0.66122c0,0 0.66449,-0.23199 1.10758,-0.28799c0.44309,-0.056 1.14476,0.00334 1.14476,0.00334c0,0 -0.40621,0.27572 -0.65486,0.46749c-0.24865,0.19177 -0.44798,0.38306 -0.44798,0.38306c0,0 0.36636,-0.12239 0.60963,-0.13274c0.24327,-0.01036 0.5832,0.08193 0.5832,0.08193c0,0 -0.31439,0.17928 -0.4429,0.27922c-0.16324,0.12696 -0.45754,0.42104 -0.45754,0.42104c0,0 0.61418,-0.11832 0.8373,-0.12043c0.16595,-0.00158 0.51264,0.04521 0.51264,0.04521l-0.5525,0.2684l0.64872,0.26875l-1.07057,0.21341l0.17909,-0.57442l-0.96779,0.10011l0.42549,-0.65059c0,0 -0.28252,-0.05663 -0.46476,-0.04925c-0.18224,0.00738 -0.50452,0.0885 -0.50452,0.0885c0,0 0.207,-0.29253 0.3887,-0.42469c0.1817,-0.13216 0.75648,-0.40827 0.75648,-0.40827l-1.20678,0.22575l-1.48855,0.54908c0,0 0.27449,-0.45829 0.50349,-0.70855c0.22901,-0.25026 0.78255,-0.69684 0.78255,-0.69684c0,0 -0.70808,0.23667 -1.15398,0.40797c-0.4459,0.1713 -1.25743,0.51841 -1.25743,0.51841c0,0 0.43018,-0.70586 0.84434,-1.00973c0.41415,-0.30387 1.52888,-0.73151 1.52888,-0.73151c0,0 -1.35168,0.30979 -2.13721,0.70173c-0.78554,0.39194 -2.56834,1.6461 -2.56834,1.6461c0,0 0.94853,-1.46231 1.8555,-2.0435c0.90697,-0.58119 3.25062,-1.22854 3.25062,-1.22854c0,0 -2.95113,0.79844 -3.47329,1.10061c-1.31181,0.75913 -3.56304,3.05082 -3.56304,3.05082c0,0 1.01465,-2.8013 4.03525,-3.79772z" fill="#dcdce1" stroke="none" stroke-width="0" stroke-linecap="butt"/><path d="M257.8523,171.54169c-0.07718,0.01877 -1.50924,0.46008 -2.55394,0.46138c-1.65049,0.00205 -3.1651,-0.44414 -3.1651,-0.44414c0,0 2.25358,-0.04004 2.83302,-0.15661c1.03119,-0.20745 2.82407,-0.98144 2.82407,-0.98144c0,0 -1.60459,0.63304 -2.43656,0.75978c-0.70583,0.10753 -2.23934,-0.04745 -2.23934,-0.04745c0,0 1.23983,-0.29065 1.76644,-0.47033c0.59849,-0.2042 1.63649,-0.69074 1.63649,-0.69074c0,0 -0.80391,0.25287 -1.33499,0.33041c-0.53108,0.07754 -1.17429,0.03598 -1.17429,0.03598c0,0 0.56998,-0.27942 0.81353,-0.42731c0.2716,-0.16493 0.7842,-0.60037 0.7842,-0.60037c0,0 -0.68093,0.17805 -1.12708,0.1984c-0.44616,0.02035 -1.14082,-0.09497 -1.14082,-0.09497c0,0 0.42698,-0.24232 0.69019,-0.41357c0.2632,-0.17124 0.47721,-0.34597 0.47721,-0.34597c0,0 -0.37498,0.09266 -0.6183,0.08351c-0.24332,-0.00915 -0.57477,-0.12836 -0.57477,-0.12836c0,0 0.32774,-0.15353 0.46384,-0.24286c0.17289,-0.11348 0.48978,-0.38307 0.48978,-0.38307c0,0 -0.62168,0.06878 -0.84425,0.05302c-0.16555,-0.01172 -0.50737,-0.08611 -0.50737,-0.08611l0.57221,-0.22331l-0.62512,-0.31983l1.08422,-0.12702l-0.2245,0.55824l0.9727,-0.02232l-0.47621,0.61445c0,0 0.27708,0.07906 0.45934,0.08629c0.18225,0.00724 0.50999,-0.04783 0.50999,-0.04783c0,0 -0.22976,0.27502 -0.42146,0.39221c-0.1917,0.11719 -0.78674,0.34639 -0.78674,0.34639l1.22098,-0.12841l1.52774,-0.42815c0,0 -0.3103,0.43484 -0.5586,0.66596c-0.2483,0.23112 -0.83582,0.63196 -0.83582,0.63196c0,0 0.72475,-0.17922 1.18293,-0.31427c0.45818,-0.13505 1.29489,-0.41608 1.29489,-0.41608c0,0 -0.48531,0.66915 -0.92246,0.93889c-0.43715,0.26974 -1.58253,0.60676 -1.58253,0.60676c0,0 1.37215,-0.20058 2.18654,-0.52838c0.81439,-0.3278 2.69188,-1.4352 2.69188,-1.4352c0,0 -1.06256,1.38168 -2.01315,1.8884c-0.95058,0.50672 -3.33854,0.96436 -3.33854,0.96436c0,0 3.00558,-0.55962 3.55025,-0.81901c1.36837,-0.65168 3.79583,-2.75579 3.79583,-2.75579c0,0 -1.23564,2.71107 -4.32632,3.46248z" data-paper-data="{&quot;index&quot;:null}" fill="#dcdce1" stroke="none" stroke-width="0" stroke-linecap="butt"/><path d="M243.67186,173.02641c0.42288,0.05033 1.19488,0.05725 1.19488,0.05725c0,0 -0.56178,-0.08062 -0.90685,-0.18823c-0.34507,-0.10761 -0.72351,-0.3202 -0.72351,-0.3202c0,0 0.42748,-0.00364 0.61845,-0.0225c0.21296,-0.02103 0.65104,-0.13613 0.65104,-0.13613c0,0 -0.46532,-0.09022 -0.74216,-0.20782c-0.27684,-0.1176 -0.66504,-0.38996 -0.66504,-0.38996c0,0 0.32985,-0.02277 0.53954,-0.05009c0.2097,-0.02731 0.39053,-0.07107 0.39053,-0.07107c0,0 -0.25468,-0.05295 -0.39976,-0.12938c-0.14508,-0.07643 -0.31161,-0.24536 -0.31161,-0.24536c0,0 0.24372,0.00223 0.35238,-0.01237c0.13803,-0.01855 0.40897,-0.08993 0.40897,-0.08993c0,0 -0.39752,-0.13932 -0.52808,-0.21372c-0.0971,-0.05533 -0.283,-0.20007 -0.283,-0.20007l0.4125,0.03108l-0.28642,-0.37628l0.69534,0.23868l-0.29892,0.27357l0.59712,0.26978l-0.46813,0.23439c0,0 0.14522,0.12871 0.25378,0.18619c0.10855,0.05748 0.32359,0.1195 0.32359,0.1195c0,0 -0.21962,0.10008 -0.37015,0.1154c-0.15053,0.01532 -0.5786,-0.01883 -0.5786,-0.01883l0.77878,0.27767l1.05235,0.18502c0,0 -0.31507,0.17366 -0.53316,0.24167c-0.21809,0.06801 -0.69159,0.14027 -0.69159,0.14027c0,0 0.49228,0.10228 0.80982,0.15374c0.31754,0.05146 0.90746,0.12452 0.90746,0.12452c0,0 -0.48958,0.26495 -0.83359,0.30141c-0.34401,0.03645 -1.13766,-0.09252 -1.13766,-0.09252c0,0 -0.6004,-0.22996 -0.22831,-0.18568z" data-paper-data="{&quot;index&quot;:null}" fill="#dcdce1" stroke="none" stroke-width="0" stroke-linecap="butt"/><path d="M236.72844,169.71453c0,0 0.69647,-1.19183 1.84281,-2.15995c0.9443,-0.79748 2.15416,-1.36895 2.91789,-1.56593c0.74445,-0.19201 1.64022,1.06518 2.43442,2.67453c1.00969,2.04602 1.31923,4.80704 1.31923,4.80704l-1.87561,-3.02602l-1.08406,1.38864l-1.21248,-1.06651c0,0 -1.09533,0.60937 -1.25237,0.64987c-0.64471,0.16629 -0.75741,-1.73602 -0.75741,-1.73602l-1.40451,0.90381l-0.9279,-0.86949z" fill="#23d892" stroke="none" stroke-width="0" stroke-linecap="butt"/><path d="M235.21573,172.60213c-0.58837,-0.00285 0.42436,-1.4334 0.91221,-2.0389c0.49098,-0.6094 1.14868,-1.38202 1.14868,-1.38202l0.24064,1.32492l1.89508,-1.15172c0,0 0.07642,0.59059 0.15666,0.96267c0.08024,0.37208 0.25856,0.96279 0.25856,0.96279l1.69405,-0.94961l0.48689,1.51259l0.79008,-0.82963l-0.13842,1.6284c0,0 0.50984,0.98334 0.0961,1.22828c-0.87948,0.52065 -2.22727,-0.62904 -3.93493,-0.81902c-1.92253,-0.2139 -0.87513,-0.43556 -3.60559,-0.44874z" fill="#fd0000" stroke="none" stroke-width="0" stroke-linecap="butt"/><g stroke-width="0" stroke-linecap="butt"><path d="M244.19283,173.82986c-0.04309,-0.47779 0.3093,-0.90005 0.78709,-0.94314c0.47779,-0.04309 0.90005,0.3093 0.94314,0.78709c0.04309,0.47779 -0.3093,0.90005 -0.78709,0.94314c-0.47779,0.04309 -0.90005,-0.3093 -0.94314,-0.78709z" fill="#db7b04" stroke="none"/><path d="M246.00645,173.63542c0.01481,0.16418 -0.47925,0.15363 -0.94138,0.19532c-0.46213,0.04168 -0.91253,0.19513 -0.92734,0.03095c-0.02255,-0.25005 0.4337,-0.33879 0.89581,-0.38047c0.46213,-0.04168 0.94777,-0.12448 0.9729,0.15419z" fill="#feeb00" stroke="#000000"/><path d="M245.17868,174.54212c0.01627,0.18042 -0.09553,0.0782 -0.18574,0.08633c-0.09021,0.00813 -0.25444,-0.35537 -0.27072,-0.53579c-0.01627,-0.18042 0.17883,-0.11458 0.26904,-0.12272c0.09021,-0.00813 0.17114,0.39175 0.18741,0.57217z" fill="#000000" stroke="none"/><path d="M245.65117,173.91746c0.04743,-0.00427 0.13689,-0.08213 0.14829,0.04435c0.01141,0.12648 -0.06212,0.38078 -0.10956,0.38506c-0.04744,0.00428 -0.09255,-0.06616 -0.10396,-0.19264c-0.01141,-0.12648 0.01779,-0.23248 0.06523,-0.23677z" fill="#000000" stroke="none"/></g><g><g><path d="M249.41137,185.34597l0.82475,0.00697c0,0 1.37406,2.48892 1.80668,3.86843c0.3609,1.15079 0.63232,2.91075 0.65782,3.63186c0.04401,1.24507 -0.58158,1.0435 -0.58158,1.0435c0,0 -0.01557,-3.26871 -0.38047,-4.54369c-0.26012,-0.90899 -2.32719,-4.00707 -2.32719,-4.00707z" fill="#989898" stroke="#989898" stroke-width="0" stroke-linecap="round"/><path d="M248.16382,187.19411c0.09253,-0.55464 0.15713,-0.99127 0.56964,-1.43162c0.58641,-0.62598 0.98821,-0.43541 1.30361,-0.01271c0.66362,0.88995 1.36214,2.63517 1.36214,2.63517l-2.95639,1.87341c0,0 -0.4196,-2.21389 -0.27899,-3.06426z" fill="#f82020" stroke="none" stroke-width="1.13968" stroke-linecap="round"/><path d="M251.3453,188.31088c0,0 0.16784,0.10435 0.4386,1.06105c0.27076,0.95668 0.50255,2.24591 0.58328,3.33887c0.0318,0.43826 0.12309,1.18522 -0.21957,1.2448c-0.58336,0.10153 -1.81394,-0.12238 -2.30061,-0.63829c-0.48358,-0.51301 -1.49119,-2.46368 -1.41687,-3.19592c0.14613,-1.30357 2.91519,-1.81051 2.91519,-1.81051z" fill="#f8f8f8" stroke="none" stroke-width="1.15102" stroke-linecap="round"/><path d="M246.34632,187.44556c-0.02771,-0.42771 -0.39127,-1.16175 0.04162,-1.63134c0.49172,-0.5334 0.92414,0.11095 0.92414,0.11095c0,0 0.13597,-0.63047 0.54866,-0.41187c0.4007,0.21223 0.40718,0.49459 0.46408,0.79556c0.09561,0.50574 -0.11687,1.37856 -0.1054,1.55549c0.05732,0.8847 0.39484,2.18503 -0.06927,2.2151c-0.12311,0.00797 -0.71824,-0.19216 -0.71824,-0.19216c0,0 -0.58813,0.5299 -0.80272,0.16269c-0.27838,-0.47636 -0.2591,-2.23736 -0.28288,-2.60443z" fill="#ffffff" stroke="none" stroke-width="0" stroke-linecap="butt"/></g><path d="M248.71102,188.1709c0.08927,1.37782 0.03698,2.16881 -0.31196,2.19142c-0.12718,0.00824 -0.05576,-0.72832 -0.14503,-2.10614c-0.08927,-1.37782 -0.05494,-2.446 0.07225,-2.45424c0.34894,-0.0226 0.29547,0.99115 0.38474,2.36897z" fill="#424242" stroke="none" stroke-width="0" stroke-linecap="butt"/></g></g></g></svg>