<svg version="1.1" xmlns="http://www.w3.org/2000/svg" xmlns:xlink="http://www.w3.org/1999/xlink" width="406.5488" height="39.10004" viewBox="0,0,406.5488,39.10004"><g transform="translate(-36.7256,-8.79836)"><g data-paper-data="{&quot;isPaintingLayer&quot;:true}" fill="#54c81c" fill-rule="nonzero" stroke="none" stroke-width="0.26458" stroke-linecap="butt" stroke-linejoin="miter" stroke-miterlimit="10" stroke-dasharray="" stroke-dashoffset="0" style="mix-blend-mode: normal"><path d="M36.7256,28.34839c0,-6.06199 1.81861,-10.83582 5.45581,-14.32148c3.6372,-3.48565 8.63838,-5.22851 15.00347,-5.22851c5.45581,0 9.24456,0.15155 11.36625,0.45464l-4.09184,12.73026l-0.90928,-0.90932c-1.81861,-1.21242 -4.09184,-1.36396 -6.81977,-0.45464c-3.03102,1.81861 -5.30426,3.78875 -6.81977,5.91045c-1.51551,1.81861 -1.81861,4.09188 -0.90932,6.81977l0.90932,0.90928c1.51551,2.1217 4.09184,2.72793 7.72905,1.81861c3.03102,-1.81861 5.30426,-3.78875 6.81977,-5.91045l5.45581,15.91279c-2.1217,1.21242 -6.36513,1.81861 -12.73022,1.81861c-6.36513,0 -11.36625,-1.97015 -15.00347,-5.91045c-3.6372,-3.94035 -5.45581,-8.48683 -5.45581,-13.63954z"/><path d="M74.46166,28.34839c0,-6.06199 1.81861,-10.83582 5.45581,-14.32148c3.6372,-3.48565 8.63838,-5.22851 15.00347,-5.22851c6.36513,0 11.36625,1.74285 15.00347,5.22851c3.6372,3.48565 5.45581,8.25949 5.45581,14.32148c0,5.15271 -1.81861,9.6992 -5.45581,13.63954c-3.6372,3.9403 -8.63838,5.91045 -15.00347,5.91045c-6.36513,0 -11.36625,-1.97015 -15.00347,-5.91045c-3.6372,-3.94035 -5.45581,-8.48683 -5.45581,-13.63954zM94.46625,20.61934c-3.03102,1.81861 -5.30426,3.78875 -6.81977,5.91045c-1.51551,1.81861 -1.81861,4.09188 -0.90928,6.81977l0.90928,0.90928c1.51551,2.1217 4.09184,2.72793 7.72905,1.81861c3.03102,-1.81861 5.30426,-3.78875 6.81977,-5.91045c1.81861,-2.42479 1.81861,-5.15271 0,-8.18369l-0.90928,-0.90932c-1.81861,-1.21242 -4.09184,-1.36396 -6.81977,-0.45464z"/><path d="M123.56389,46.98905c-1.51551,-0.30309 -2.72789,-0.60619 -3.6372,-0.90928l1.81861,-9.09302l5.45581,0.45464c4.24339,0.30309 7.57751,0.30309 10.00234,0c1.21242,-0.60619 1.81861,-1.51547 1.81861,-2.72789c-0.30309,-1.21242 -3.03102,-1.81861 -8.18374,-1.81861c-4.54653,-0.60623 -7.72905,-2.27329 -9.54765,-5.00117c-0.90932,-2.1217 -1.36396,-4.54653 -1.36396,-7.27441c0,-4.24343 1.51551,-7.426 4.54653,-9.5477c2.1217,-1.51551 5.91045,-2.27325 11.36625,-2.27325c5.45581,0 10.91161,0.45464 16.36742,1.36396l-1.81861,8.63838c-6.36513,-0.30314 -10.76007,-0.45468 -13.18486,-0.45468c-2.1217,0.30314 -3.18257,1.06087 -3.18257,2.27329c-0.30309,2.1217 1.36396,3.18257 5.00117,3.18257c5.15271,0 8.94147,0.90928 11.36625,2.72789c1.81861,1.51551 2.72789,4.09184 2.72789,7.72905c0,3.15225 -0.75773,5.88018 -2.27325,8.18374c-1.51551,2.72789 -5.30426,4.39494 -11.36625,5.00117c-5.15271,0.30309 -10.45697,0.15155 -15.91279,-0.45468z"/><path d="M157.66275,46.98905l6.81977,-38.19066h10.91161l5.00117,15.45815l5.00117,-15.45815h10.91161l6.81977,38.19066h-11.36625l-2.72793,-16.82206l-3.6372,16.82206h-10.00234l-3.6372,-16.82206l-2.72789,16.82206z"/><path d="M207.6743,28.34839c0,-6.06199 1.81861,-10.83582 5.45581,-14.32148c3.6372,-3.48565 8.63838,-5.22851 15.00347,-5.22851c6.36513,0 11.36625,1.74285 15.00347,5.22851c3.6372,3.48565 5.45581,8.25949 5.45581,14.32148c0,5.15271 -1.81861,9.6992 -5.45581,13.63954c-3.6372,3.9403 -8.63838,5.91045 -15.00347,5.91045c-6.36513,0 -11.36625,-1.97015 -15.00347,-5.91045c-3.6372,-3.94035 -5.45581,-8.48683 -5.45581,-13.63954zM227.67897,20.61934c-3.03102,1.81861 -5.30426,3.78875 -6.81977,5.91045c-1.51551,1.81861 -1.81861,4.09188 -0.90928,6.81977l0.90928,0.90928c1.51551,2.1217 4.09184,2.72793 7.72905,1.81861c3.03102,-1.81861 5.30426,-3.78875 6.81977,-5.91045c1.81861,-2.42479 1.81861,-5.15271 0,-8.18369l-0.90928,-0.90932c-1.81861,-1.21242 -4.09184,-1.36396 -6.81977,-0.45464z"/><path d="M276.4175,8.79839h11.3663l4.09184,13.1849l3.6372,-13.1849h7.27441l4.09184,13.1849l3.6372,-13.1849h11.3663l-10.00234,38.19066h-10.91161l-2.04595,-9.54765l-2.0459,9.54765h-10.91161z"/><path d="M326.42914,46.98905v-38.19066h15.91279v38.19066z"/><path d="M346.88845,46.98905v-38.19066h15.45815l10.00229,17.0494v-17.0494h13.63954v38.19066h-15.45815l-10.00229,-16.50379v16.50379z"/><path d="M394.17208,46.98905c-1.51551,-0.30309 -2.72789,-0.60619 -3.6372,-0.90928l1.81861,-9.09302l5.45585,0.45464c4.24339,0.30309 7.57751,0.30309 10.00229,0c1.21242,-0.60619 1.81861,-1.51547 1.81861,-2.72789c-0.30309,-1.21242 -3.03097,-1.81861 -8.18369,-1.81861c-4.54653,-0.60623 -7.7291,-2.27329 -9.5477,-5.00117c-0.90932,-2.1217 -1.36396,-4.54653 -1.36396,-7.27441c0,-4.24343 1.51551,-7.426 4.54653,-9.5477c2.1217,-1.51551 5.91045,-2.27325 11.36625,-2.27325c5.45581,0 10.91161,0.45464 16.36742,1.36396l-1.81861,8.63838c-6.36509,-0.30314 -10.76007,-0.45468 -13.18486,-0.45468c-2.1217,0.30314 -3.18257,1.06087 -3.18257,2.27329c-0.30309,2.1217 1.36396,3.18257 5.00117,3.18257c5.15271,0 8.94147,0.90928 11.36625,2.72789c1.81861,1.51551 2.72793,4.09184 2.72793,7.72905c0,3.15225 -0.75773,5.88018 -2.27325,8.18374c-1.51551,2.72789 -5.3043,4.39494 -11.3663,5.00117c-5.15271,0.30309 -10.45697,0.15155 -15.91279,-0.45468z"/><path d="M443.2744,8.79839l-2.27325,23.64183h-10.45697l-2.27325,-23.64183zM429.27111,41.39688c-0.06071,-1.72768 0.51517,-3.2735 1.72768,-4.63746c1.21242,-1.36392 2.87948,-2.0459 5.00117,-2.0459c1.81861,0 3.33412,0.68198 4.54653,2.0459c1.21242,1.36396 1.81861,2.95523 1.81861,4.77382c0,1.81861 -0.60619,3.33412 -1.81861,4.54653c-1.21242,1.21242 -2.72793,1.81861 -4.54653,1.81861c-2.1217,0 -3.78875,-0.60619 -5.00117,-1.81861c-1.21242,-1.21242 -1.78829,-2.77337 -1.72768,-4.6829z"/></g></g></svg>