<svg version="1.1" xmlns="http://www.w3.org/2000/svg" xmlns:xlink="http://www.w3.org/1999/xlink" width="48.07388" height="22.23716" viewBox="0,0,48.07388,22.23716"><defs><linearGradient x1="215.00064" y1="181.90482" x2="233.3542" y2="181.90482" gradientUnits="userSpaceOnUse" id="color-1"><stop offset="0" stop-color="#b5b2b2"/><stop offset="1" stop-color="#e8e6e6" stop-opacity="0.25098"/></linearGradient></defs><g transform="translate(-215.00063,-167.87402)"><g data-paper-data="{&quot;isPaintingLayer&quot;:true}" fill-rule="nonzero" stroke-linejoin="miter" stroke-miterlimit="10" stroke-dasharray="" stroke-dashoffset="0" style="mix-blend-mode: normal"><path d="M233.60854,184.74908c0.53937,0.39243 0.4139,1.00929 0.41577,1.64955c0.00185,0.64026 0.10821,1.06725 -0.40636,1.58946c-0.51457,0.5222 -1.43504,0.63384 -1.76758,0.61675c-0.93553,-0.04808 -1.6865,-1.15675 -1.62925,-2.27047c0.05725,-1.11372 1.27572,-1.77828 1.27572,-1.77828c0,0 1.57231,-0.19944 2.11168,0.193z" fill="#c3b0b0" stroke="none" stroke-width="0" stroke-linecap="butt"/><path d="M230.82628,182.59454c0.89992,0.55907 1.83184,2.52313 1.35515,3.29041c-0.47669,0.76729 0.41542,1.76549 -0.14954,2.49825c-0.14235,0.86539 -3.34911,2.29335 -6.5589,0.15253c-0.65216,-0.43496 0.26014,-1.00802 0.40988,-1.83725c0.05648,-0.3128 -1.0584,-2.76505 -0.9667,-3.11435c0.02646,-0.10082 1.45071,-0.16927 1.76431,-0.31178c0.44945,-0.20426 0.41304,-0.4116 0.50999,-0.56765c0.22763,-0.36639 1.27601,-0.27671 1.94218,-0.19557c0.72889,0.0888 1.2234,-0.20668 1.69359,0.08542z" fill="#c3b0b0" stroke="none" stroke-width="0" stroke-linecap="butt"/><path d="M228.49369,182.71375c0,0 -1.03826,0.79308 -1.15954,1.5582c-0.07692,0.48527 1.9201,1.74553 1.9201,1.74553c0,0 -0.93375,0.16033 -1.21883,0.5165c-0.28509,0.35615 -0.56698,0.72737 -0.56698,0.72737" data-paper-data="{&quot;index&quot;:null}" fill="none" stroke="#685c5c" stroke-width="0.5" stroke-linecap="round"/><path d="M235.12769,185.55132c0,0 -0.29098,-3.59362 0.02881,-3.06827c0.08358,0.13729 0.66626,-0.42663 1.10945,-0.1625c0.56368,0.33592 0.11716,0.83552 0.32648,1.54203c0.43647,1.47324 -0.25188,3.51971 -0.25188,3.51971l-3.26116,0.07115c0,0 -0.65356,-0.65055 -0.58381,-1.14848c0.06975,-0.49794 0.84892,-0.74412 0.84892,-0.74412l1.78317,-0.00951z" data-paper-data="{&quot;index&quot;:null}" fill="#cc0000" stroke="none" stroke-width="0" stroke-linecap="butt"/><path d="M228.29641,179.31407c0,0 -0.65178,-4.05293 0.31787,-3.70063c0.96965,0.3523 1.35799,3.97503 1.35799,3.97503z" data-paper-data="{&quot;index&quot;:null}" fill="#ffffff" stroke="none" stroke-width="0" stroke-linecap="butt"/><g data-paper-data="{&quot;index&quot;:null}" stroke="none" stroke-width="0" stroke-linecap="butt"><path d="M229.32938,178.62472c0.09427,0.33206 -0.33275,0.53578 -0.67967,0.47798c-0.34692,-0.0578 -0.49832,-1.27674 -0.39403,-1.90266c0.03475,-0.20853 0.29104,0.20789 0.56657,0.62247c0.21032,0.31646 0.449,0.59748 0.50713,0.8022z" fill="#7c5cbb"/><path d="M228.75592,178.77802c-0.20558,-0.03425 -0.34447,-0.22868 -0.31022,-0.43426c0.03425,-0.20558 0.18101,-0.2968 0.38659,-0.26255c0.20558,0.03426 0.29678,0.27635 0.26253,0.48193c-0.03425,0.20558 -0.13332,0.24914 -0.3389,0.21489z" fill="#000000"/><path d="M228.74055,178.26622c-0.20558,-0.03425 -0.34446,-0.22868 -0.31021,-0.43426c0.03425,-0.20558 -0.0622,-0.29436 0.14338,-0.26011c0.20558,0.03426 0.54223,0.61541 0.33665,0.58116z" fill="#ffffff"/></g><path d="M246.21948,188.30361c0,0 0.98202,-4.49537 1.90502,-4.83008c0.92298,-0.33475 3.0871,2.90079 3.63056,4.25466c0.18277,0.30852 -0.73269,1.83298 -1.63918,2.20654c-1.36047,0.56065 -3.35296,-0.27726 -3.89641,-1.63113z" data-paper-data="{&quot;index&quot;:null}" fill="#ff1c00" stroke="none" stroke-width="0" stroke-linecap="butt"/><path d="M247.3023,182.75445c-0.49478,1.02109 -2.34437,2.61025 -3.89721,2.41659c-1.55284,-0.19365 -3.53911,-1.63714 -3.04433,-2.65825c0.49477,-1.02109 2.40234,-3.52305 3.9169,-3.36298c0.55228,0.05838 0.76718,0.51238 1.58569,1.43296c0.02061,0.0232 1.73783,1.67732 1.55174,2.06135z" data-paper-data="{&quot;index&quot;:null}" fill="#ff1c00" stroke="none" stroke-width="0" stroke-linecap="butt"/><path d="M243.28748,185.01205c0.58164,-1.20041 4.00002,-2.82505 4.00002,-2.82505c0.42726,0.22226 2.66879,2.49505 2.46042,2.92508c-0.27938,0.57651 -2.08521,1.70045 -2.98989,1.92346c-0.97902,0.24134 -1.81591,0.02325 -2.03797,-0.09226c-0.42726,-0.22223 -2.01427,-0.73081 -1.4326,-1.93122z" data-paper-data="{&quot;index&quot;:null}" fill="#ded000" stroke="none" stroke-width="0" stroke-linecap="butt"/><path d="M244.67521,179.11204c0.37375,0.19016 4.36556,4.23821 5.28432,5.47081c0.61195,0.82097 1.51327,2.23767 1.84543,3.19129c0.16654,0.47813 -0.22668,0.47509 -0.22668,0.47509c0,0 -0.41918,-1.2793 -2.30351,-3.68335c-1.88433,-2.40404 -5.20497,-5.56449 -4.83121,-5.37433z" data-paper-data="{&quot;index&quot;:null}" fill="#646362" stroke="none" stroke-width="0" stroke-linecap="butt"/><path d="M242.81089,185.38195c0,0 -0.08384,-0.42445 -0.01885,-0.71267c0.06498,-0.28824 0.2697,-0.73068 0.2697,-0.73068c0,0 2.19846,1.47263 2.69253,1.95066c0.49406,0.47803 1.37768,1.22659 1.37768,1.22659c0,0 -0.09343,0.84847 -0.36048,0.95163c-0.26706,0.10315 -0.91457,0.20636 -0.91457,0.20636c0,0 -0.74384,-0.45797 -1.31837,-0.98981c-0.5745,-0.53185 -1.72763,-1.90207 -1.72763,-1.90207z" data-paper-data="{&quot;index&quot;:null}" fill="#e0e0de" stroke="none" stroke-width="0" stroke-linecap="butt"/><path d="M257.6836,188.53562c0,0 -0.13889,-4.59929 0.67521,-5.1481c0.8141,-0.54883 3.69906,2.0644 4.555,3.2458c0.25222,0.2549 -0.2657,1.95602 -1.05435,2.53851c-1.18361,0.87422 -3.31993,0.54519 -4.17585,-0.63621z" data-paper-data="{&quot;index&quot;:null}" fill="#ff1c00" stroke="none" stroke-width="0" stroke-linecap="butt"/><path d="M257.38666,182.88961c-0.23205,1.11068 -1.64042,3.10137 -3.19381,3.29056c-1.55339,0.18919 -3.8307,-0.72882 -3.59867,-1.83951c0.23203,-1.11067 1.475,-4.00093 2.98311,-4.2134c0.54991,-0.07747 0.86862,0.31079 1.88616,1.00506c0.02563,0.01749 2.09309,1.20514 2.00582,1.62287z" data-paper-data="{&quot;index&quot;:null}" fill="#ff1c00" stroke="none" stroke-width="0" stroke-linecap="butt"/><path d="M254.04015,186.05449c0.27276,-1.30572 3.19436,-3.71176 3.19436,-3.71176c0.46845,0.11186 3.19475,1.77236 3.09703,2.24012c-0.13103,0.62709 -1.60992,2.15588 -2.43337,2.59188c-0.89112,0.47184 -1.75592,0.46349 -1.99938,0.40535c-0.46844,-0.11184 -2.13145,-0.21986 -1.85866,-1.52558z" data-paper-data="{&quot;index&quot;:null}" fill="#ded000" stroke="none" stroke-width="0" stroke-linecap="butt"/><path d="M253.95376,179.99409c0.40875,0.09372 5.264,3.05137 6.45456,4.024c0.79298,0.64781 2.01131,1.80326 2.56508,2.6477c0.27765,0.4234 -0.10454,0.51591 -0.10454,0.51591c0,0 -0.71726,-1.13924 -3.12893,-3.01381c-2.41167,-1.87458 -6.40031,-4.13416 -5.99158,-4.04044z" data-paper-data="{&quot;index&quot;:null}" fill="#646362" stroke="none" stroke-width="0" stroke-linecap="butt"/><path d="M253.74964,186.6772c0,0 -0.18439,-0.39138 -0.19133,-0.68676c-0.00696,-0.2954 0.08421,-0.7743 0.08421,-0.7743c0,0 2.49025,0.89476 3.0856,1.23851c0.59535,0.34376 1.63429,0.85537 1.63429,0.85537c0,0 0.11538,0.84577 -0.11863,1.01068c-0.23402,0.16491 -0.83709,0.42225 -0.83709,0.42225c0,0 -0.83277,-0.26364 -1.51925,-0.64007c-0.68645,-0.37643 -2.13777,-1.42565 -2.13777,-1.42565z" data-paper-data="{&quot;index&quot;:null}" fill="#e0e0de" stroke="none" stroke-width="0" stroke-linecap="butt"/><path d="M252.71781,183.22485c0,1.32195 -0.81229,2.39358 -1.8143,2.39358c-1.00201,0 -1.8143,-1.07163 -1.8143,-2.39358c0,-1.32195 0.81229,-2.39358 1.8143,-2.39358c1.00201,0 1.8143,1.07163 1.8143,2.39358z" data-paper-data="{&quot;index&quot;:null}" fill="#53b761" stroke="none" stroke-width="0" stroke-linecap="butt"/><path d="M241.19101,184.29521c-0.60195,-0.14478 -3.14311,-0.0439 -5.0963,-0.1528c-1.89888,-0.10587 -3.13713,-0.50588 -3.13713,-0.50588c0,0 5.61402,-2.90984 7.49624,-3.08859c2.71702,-0.25804 7.81794,-0.28712 7.81794,-0.28712c0,0 -5.89359,4.31991 -7.08075,4.03439z" data-paper-data="{&quot;index&quot;:null}" fill="#ff3300" stroke="none" stroke-width="0" stroke-linecap="butt"/><path d="M228.2803,177.29933c-0.61095,-0.98833 -0.38705,-1.70224 0.81148,-3.35932c1.04431,-1.44386 2.13535,-3.35693 5.1615,-4.74493c3.02614,-1.388 7.23942,-1.32053 7.23942,-1.32053l5.98345,0.20767l-1.74163,1.68512c0,0 3.80592,0.85784 5.27684,1.5846c1.47092,0.72676 3.28403,2.64521 3.28403,2.64521l-5.60181,-0.04053c0,0 2.26195,1.40847 3.1767,2.21239c0.91476,0.80392 2.03374,2.36671 2.03374,2.36671l-4.91454,-0.16024l1.49512,3.78311c0,0 -3.49766,-0.36904 -5.90639,-0.7938c-2.40873,-0.42476 -5.4459,-0.51763 -5.4459,-0.51763c0,0 -1.8386,1.30064 -2.77106,1.05415c-1.97373,-0.52174 -3.89936,-2.81725 -3.91533,-2.8199c-0.57019,-0.095 -1.86547,0.32569 -2.42382,0.07625c-0.52308,-0.23369 -1.03469,-0.71446 -1.74181,-1.85834z" data-paper-data="{&quot;index&quot;:null}" fill="#ff3300" stroke="none" stroke-width="0" stroke-linecap="butt"/><path d="M226.94003,173.78729z" data-paper-data="{&quot;index&quot;:null}" fill="#030000" stroke="none" stroke-width="0" stroke-linecap="butt"/><path d="M229.97227,179.28657c0,0 1.3812,-1.05099 3.36827,-2.0801c1.13883,-0.5898 2.98458,-1.2704 2.98458,-1.2704c0,0 0.104,1.10021 -0.20891,1.92617c-0.27651,0.72983 -1.35099,1.99936 -1.84516,2.02623c-0.44137,0.02399 -1.01783,0.19609 -2.08877,-0.06955c-1.36362,-0.33824 -2.21,-0.53234 -2.21,-0.53234z" data-paper-data="{&quot;index&quot;:null}" fill="#ffffff" stroke="none" stroke-width="0" stroke-linecap="butt"/><g data-paper-data="{&quot;index&quot;:null}" stroke="none" stroke-width="0" stroke-linecap="butt"><path d="M231.82037,179.47594c-0.35146,-0.01303 -0.55482,-0.28763 -0.53133,-0.92175c0.0235,-0.63411 0.51495,-0.7626 0.86642,-0.74957c0.35147,0.01302 0.36732,-0.08739 0.34383,0.54673c-0.0235,0.63411 -0.32745,1.1376 -0.67891,1.12458z" fill="#7c5cbb"/><path d="M231.8158,178.96326c-0.20827,-0.00772 -0.37086,-0.18282 -0.36314,-0.39109c0.00771,-0.20827 0.18281,-0.37085 0.39108,-0.36313c0.20827,0.00772 0.37084,0.18281 0.36312,0.39108c-0.00771,0.20827 -0.1828,0.37086 -0.39107,0.36314z" fill="#000000"/><path d="M231.73518,178.4576c-0.20827,-0.00772 -0.18335,0.00468 -0.17563,-0.20359c0.00772,-0.20827 0.18281,-0.30835 0.39108,-0.30063c0.20827,0.00772 0.18335,-0.06719 0.17563,0.14108c-0.00772,0.20827 -0.18281,0.37085 -0.39108,0.36313z" fill="#ffffff"/></g><path d="M230.37206,182.56088c-2.14851,-0.56461 -3.54573,-1.538 -3.66895,-2.50646c-0.09115,-0.7164 1.81313,-1.14631 3.13613,-1.2668c1.323,-0.12049 1.43862,0.80307 2.38555,0.85122c1.94641,0.09899 1.9922,-0.35697 2.68638,-0.2558c3.30532,0.48171 3.10234,2.14622 1.69206,2.76214c-1.92497,0.91367 -4.61085,0.70788 -6.23118,0.4157z" data-paper-data="{&quot;index&quot;:null}" fill="#ffbe7e" stroke="none" stroke-width="0" stroke-linecap="butt"/><path d="M234.05738,181.03068c0,0 0.79192,-0.14464 1.3009,-0.11691c0.50898,0.02774 0.89261,0.23645 0.89261,0.23645" data-paper-data="{&quot;index&quot;:null}" fill="none" stroke="#000000" stroke-width="0.5" stroke-linecap="round"/><path d="M227.06487,179.44853c0,0 0.14109,-0.0633 0.21479,0.24672c0.0737,0.31 -0.38382,0.82757 -0.38382,0.82757c0,0 -1.40372,-0.56844 -1.35143,-0.88231z" data-paper-data="{&quot;index&quot;:null}" fill="#030000" stroke="none" stroke-width="0" stroke-linecap="butt"/><path d="M242.17901,184.13053v-2.38769h8.64511c0,0 0.64692,0.84011 0.64692,1.32548c0,0.48537 -0.64692,1.06221 -0.64692,1.06221z" data-paper-data="{&quot;index&quot;:null}" fill="#ff3200" stroke="none" stroke-width="0" stroke-linecap="butt"/><path d="M235.19378,184.22954l-8.73039,-0.36945c0,0 0.3539,-0.04057 0.72664,-0.87215c0.28942,-0.64569 11.89095,-0.39407 11.89095,-0.39407z" fill="#ff3300" stroke="none" stroke-width="0" stroke-linecap="butt"/><path d="M228.09343,181.50371c0.61077,0.53296 0.39266,1.26617 0.32616,2.0414c-0.06651,0.77521 0.01636,1.30352 -0.66258,1.88036c-0.67893,0.57686 -1.80515,0.61315 -2.20584,0.55675c-1.12729,-0.15867 -1.91723,-1.58133 -1.72835,-2.92332c0.1889,-1.34197 1.7352,-2.01557 1.7352,-2.01557c0,0 1.92465,-0.07256 2.53542,0.46039z" data-paper-data="{&quot;index&quot;:null}" fill="#e8e6e6" stroke="none" stroke-width="0" stroke-linecap="butt"/><path d="M223.44411,178.27437c1.02927,0.77341 1.94645,3.25092 1.28704,4.12851c-0.65941,0.87759 0.58001,3.78139 -0.44927,3.00799c-0.35466,-0.26647 -3.46465,2.80253 -7.12015,-0.13357c-0.7427,-0.59651 -0.45371,-1.41897 -0.1834,-2.40664c0.10195,-0.37253 -0.54992,-2.83812 -0.4014,-3.2511c0.04287,-0.11918 0.69947,-0.49708 1.09438,-0.6359c0.56598,-0.19897 0.33653,-1.01195 0.47065,-1.19046c0.31488,-0.41905 2.46359,0.02612 3.26126,0.19589c0.87275,0.18577 1.50309,-0.11879 2.04086,0.28528z" data-paper-data="{&quot;index&quot;:null}" fill="#e8e6e6" stroke="none" stroke-width="0" stroke-linecap="butt"/><path d="M218.99786,180.29166c0.66521,0.0852 1.14921,0.5857 1.08105,1.11785c-0.06819,0.53218 -0.6627,0.8945 -1.3279,0.80929c-0.6652,-0.08522 -1.52129,-1.24386 -1.52129,-1.24386c0,0 1.10294,-0.7685 1.76814,-0.6833z" data-paper-data="{&quot;index&quot;:null}" fill="#e8e6e6" stroke="#999797" stroke-width="0.5" stroke-linecap="butt"/><path d="M219.10051,183.51872c0.66398,-0.09418 1.26335,0.26006 1.3387,0.79125c0.07536,0.53119 -0.40182,1.03818 -1.06581,1.13236c-0.664,0.09421 -1.79664,-0.79601 -1.79664,-0.79601c0,0 0.85974,-1.03339 1.52373,-1.12758z" data-paper-data="{&quot;index&quot;:null}" fill="#e8e6e6" stroke="#999797" stroke-width="0.5" stroke-linecap="butt"/><path d="M224.79712,181.50482c0,3.89361 14.43151,7.45 5.81147,7.45c-8.62004,0 -15.60796,-3.15639 -15.60796,-7.05c0,-3.89361 6.98792,-7.05 15.60796,-7.05c8.62004,0 -5.81147,2.75639 -5.81147,6.65z" fill="url(#color-1)" stroke="none" stroke-width="NaN" stroke-linecap="butt"/></g></g></svg>