<svg version="1.1" xmlns="http://www.w3.org/2000/svg" xmlns:xlink="http://www.w3.org/1999/xlink" width="32.7353" height="44.9034" viewBox="0,0,32.7353,44.9034"><defs><radialGradient cx="224.40188" cy="188.20258" r="15.77076" gradientUnits="userSpaceOnUse" id="color-1"><stop offset="0" stop-color="#fadd00" stop-opacity="0.50196"/><stop offset="1" stop-color="#fbdd00"/></radialGradient></defs><g transform="translate(-222.10919,-161.31986)"><g data-paper-data="{&quot;isPaintingLayer&quot;:true}" fill-rule="nonzero" stroke-miterlimit="10" stroke-dasharray="" stroke-dashoffset="0" style="mix-blend-mode: normal"><path d="M239.82187,180.92169l1.03042,-0.84391l3.06721,0.19768l1.80728,-1.87681c0,0 -0.58348,1.97955 -1.30938,2.50279c-0.66802,0.48151 -4.59556,0.02024 -4.59556,0.02024z" fill="#f79db4" stroke="none" stroke-width="0" stroke-linecap="butt" stroke-linejoin="miter"/><g data-paper-data="{&quot;index&quot;:null}" stroke-width="0" stroke-linecap="butt" stroke-linejoin="miter"><g data-paper-data="{&quot;index&quot;:null}"><path d="M222.48523,175.28204c-0.63208,-0.85523 -0.44861,-2.06285 0.40977,-2.69724c0.85839,-0.63441 2.06664,-0.45538 2.69872,0.39985c0.63208,0.85523 0.44862,2.06283 -0.40975,2.69723c-0.85839,0.63441 -2.06665,0.4554 -2.69874,-0.39984z" fill="#e0cb17" stroke="none"/><path d="M223.3998,175.39588c-0.3905,-0.52836 -0.27717,-1.27441 0.25315,-1.66636c0.53032,-0.39195 1.27677,-0.28135 1.66727,0.24702c0.3905,0.52836 0.27717,1.27441 -0.25315,1.66636c-0.53032,0.39195 -1.27678,0.28134 -1.66727,-0.24702z" fill="#e0cb17" stroke="#000000"/><path d="M225.30633,178.5753c-0.89122,-0.62641 -0.91133,-1.97599 -0.91133,-1.97599l1.68256,-1.26203c0,0 0.24389,0.07219 1.28536,0.92173c1.08138,0.88209 1.18,3.25571 1.18,3.25571c0,0 -2.34536,-0.31301 -3.23659,-0.93942z" fill="#e8edf4" stroke="#000000"/><path d="M225.39909,176.1372c-0.4098,0.3057 -1.27187,0.58179 -1.27187,0.58179l-0.22985,-0.67746c0,0 0.74583,-0.04827 1.12636,-0.2975c0.38052,-0.24921 0.69606,-0.89605 0.69606,-0.89605l0.51823,0.22617c0,0 -0.37071,0.71375 -0.83894,1.06304z" fill="#dbded5" stroke="#000000"/></g><g data-paper-data="{&quot;index&quot;:null}" stroke="none"><path d="M232.5005,175.55421c0.16179,-0.11957 0.49414,0.05574 0.74234,0.39156c0.2482,0.33583 0.31825,0.70499 0.15646,0.82457c-0.16179,0.11957 -0.49416,-0.05573 -0.74236,-0.39155c-0.2482,-0.33583 -0.31824,-0.705 -0.15645,-0.82458z" fill="#000000"/><path d="M236.76595,178.96102c0.16853,-0.12456 1.20927,0.23168 1.31848,0.37944c0.10921,0.14776 0.5438,1.32806 0.37528,1.45262c-0.16853,0.12456 -1.21084,0.48121 -1.21084,0.48121c0,0 -0.65143,-2.18873 -0.48291,-2.31328z" fill="#807d5a"/><path d="M225.9135,174.48326l0.0159,-0.19979l7.41944,1.85011l0.10437,0.31149z" fill="#6e6e73"/><path d="M228.40502,174.77299l-0.05237,0.43987l-1.75286,-0.39689l0.07678,-0.45791z" fill="#ddcb1e"/></g></g><g stroke-width="0" stroke-linecap="butt" stroke-linejoin="miter"><g data-paper-data="{&quot;index&quot;:null}"><path d="M241.15636,165.77994c-1.10117,0.81384 -2.65116,0.5842 -3.46202,-0.51292c-0.81085,-1.09712 -0.57552,-2.64627 0.52566,-3.46012c1.10117,-0.81384 2.65117,-0.5842 3.46202,0.51293c0.81085,1.09712 0.5755,2.64627 -0.52566,3.46011z" fill="#e0cb17" stroke="none"/><path d="M241.15256,165.62194c-0.68029,0.50278 -1.63789,0.36091 -2.13884,-0.31689c-0.50095,-0.67781 -0.35555,-1.63486 0.32474,-2.13766c0.68029,-0.50278 1.63789,-0.36093 2.13884,0.31688c0.50095,0.67781 0.35555,1.63487 -0.32475,2.13767z" fill="#e0cb17" stroke="#000000"/><path d="M244.65863,167.0193c0.43267,1.32877 -0.06645,4.32286 -0.06645,4.32286c0,0 -2.87374,-1.01455 -3.54837,-2.67277c-0.64974,-1.59703 -0.64646,-1.92331 -0.64646,-1.92331l2.18111,-1.58829c0,0 1.64749,0.53274 2.08017,1.86151z" fill="#e8edf4" stroke="#000000"/><path d="M241.63373,166.21517c-0.60461,0.44273 -1.61949,0.62862 -1.61949,0.62862l-0.08227,-0.72068c0,0 0.91205,-0.14342 1.36094,-0.51627c0.44889,-0.37283 0.78886,-1.26932 0.78886,-1.26932l0.74427,0.53692c0,0 -0.66314,0.95324 -1.1923,1.34072z" fill="#dbded5" stroke="#000000"/></g><g data-paper-data="{&quot;index&quot;:null}" stroke="none"><path d="M240.76423,175.95649c0.41761,0.21883 1.33423,1.73976 1.33423,1.73976l-2.49381,1.86723c0,0 -1.58268,-0.43317 -2.17227,-1.76781c-0.43344,-0.98114 0.03878,-2.9439 0.19633,-3.06782c1.0151,-0.79848 2.7179,1.00983 3.13552,1.22865z" fill="#e4dcaa"/><path d="M239.19761,175.2068c0.3184,0.43081 0.40826,0.90439 0.20072,1.05779c-0.20755,0.1534 -0.63393,-0.07149 -0.95232,-0.5023c-0.3184,-0.43081 -0.40825,-0.9044 -0.20071,-1.0578c0.20755,-0.1534 0.6339,0.07149 0.9523,0.50231z" fill="#000000"/><path d="M243.27419,179.54327c0.38518,0.76921 0.82085,2.13807 0.82085,2.13807l-0.66258,1.08993c0,0 -1.48967,0.38674 -1.92683,-0.24843c-0.21707,-0.31539 -1.82692,-2.84085 -1.82692,-2.84085l0.52365,-1.36297c0,0 0.51586,-0.31717 0.87275,-0.44731c0.3569,-0.13014 1.01757,-0.18912 1.01757,-0.18912c0,0 0.79632,1.09148 1.1815,1.86069z" fill="#dfcc17"/><path d="M243.47248,182.68112c0,0 -0.82979,1.14397 -1.04599,1.30375c-0.2162,0.15978 -1.50006,-0.81754 -1.64016,-1.0071c-0.1401,-0.18955 -0.18516,-1.59999 0.03104,-1.75977c0.2162,-0.15978 2.65508,1.46311 2.65508,1.46311z" fill="#807d5a"/><path d="M238.97909,176.20826l-0.34268,-0.24527l0.52435,-9.79534l0.25101,0.05572z" fill="#6e6e73"/><path d="M238.97096,167.11202l0.59046,0.07822l-0.17319,2.29904l-0.55916,-0.10137z" fill="#ddcb1e"/></g></g><g data-paper-data="{&quot;index&quot;:null}" stroke="none" stroke-width="0" stroke-linecap="butt" stroke-linejoin="miter"><g><path d="M235.86977,196.56633l1.52574,0.38549c0,0 0.4085,0.89217 -0.68892,0.77176c-1.09741,-0.12042 -1.76436,-0.52951 -2.58199,-1.13067c-0.48537,-0.35685 -1.17171,-1.48687 -1.17171,-1.48687l-0.94783,-0.26059c0,0 -0.59193,-0.47127 -0.58404,-0.89937c0.02809,-1.52223 0.84322,-1.90856 0.84322,-1.90856c0,0 0.51912,1.6276 1.0455,2.28877c0.64943,0.81572 2.56,2.24005 2.56,2.24005z" fill="#393939"/><path d="M237.74113,190.54807l0.04645,0.35904l-0.13006,0.40127c0,0 -0.05372,0.90486 -0.03076,1.25369c0.02826,0.42921 0.05566,0.89111 0.22331,1.88329c-0.02865,1.07126 -0.72575,2.51255 -0.72575,2.51255c0,0 -0.66118,0.10736 -1.65495,-0.49115c-3.3579,-2.02229 -3.18862,-4.20691 -3.18862,-4.20691c0,0 0.12759,-1.04884 0.38247,-1.55355c0.2549,-0.50471 0.6634,-0.82209 0.95277,-1.0905c0.28937,-0.26842 0.79654,-0.35573 0.79654,-0.35573c0,0 -0.14644,-0.03009 0.0635,-0.29218c0.04794,-0.05983 0.32777,-0.15409 0.32777,-0.15409l-0.14508,-0.12751l0.3772,-0.61559l2.68222,1.41874z" fill="#f01a40"/><path d="M237.77702,186.24093c0.79708,0.37689 1.39933,1.45243 1.31228,1.73791c-0.08707,0.28546 -0.72053,0.57384 -0.72053,0.57384c0,0 -0.07108,0.80825 -0.40553,0.90038c-0.49855,0.13732 -0.83736,0.10187 -1.87728,-0.253c-0.54847,-0.25959 -0.7774,-0.76946 -1.00273,-1.139c-0.27584,-0.45236 0.16891,-0.39708 0.25564,-0.72475c0.08673,-0.32767 0.05116,0.23789 0.10718,-0.64579c0.04012,-0.63298 1.93857,-0.63514 2.33098,-0.44959z" fill="#ffffff"/><path d="M236.96915,190.37201c-0.00844,0.05912 -0.10333,0.65598 -0.10333,0.65598c0,0 0.492,2.71214 0.36119,3.51952c-0.1611,0.99437 -0.66667,2.38598 -0.66667,2.38598c0,0 -0.50345,-0.12461 -0.73918,-0.22473c-0.24251,-0.10301 -1.18858,-0.75608 -1.18858,-0.75608c0,0 0.89242,-2.54078 0.98538,-2.98021c0.16091,-1.16786 0.15209,-2.20956 0.15209,-2.20956l0.04701,-0.34214l-0.1293,-0.37898l0.26555,-0.95257l1.37977,0.44747c0,0 -0.31908,0.521 -0.36395,0.83532z" fill="#ffffff"/></g><path d="M236.07887,186.91229c0.10805,-0.36901 0.70324,-0.51952 1.32941,-0.33618c0.62617,0.18332 1.04622,0.63108 0.93817,1.00008c-0.10804,0.36902 -0.70324,0.51953 -1.32942,0.33619c-0.62618,-0.18334 -1.04622,-0.63109 -0.93818,-1.00009z" fill="#afafaf"/></g><path d="M240.31536,182.74957l-1.58728,3.07811l-1.13167,1.93996c0,0 -0.41622,0.08333 -0.679,0.08422c-0.26277,0.00088 -0.60117,-0.17312 -0.60117,-0.17312l1.04655,-2.0534l1.75986,-3.30819z" fill="#f79db4" stroke="none" stroke-width="0" stroke-linecap="butt" stroke-linejoin="miter"/><g stroke="none" stroke-width="0" stroke-linecap="butt" stroke-linejoin="miter"><g><path d="M253.82775,189.4935c0,0 -0.09627,-2.38112 -0.40264,-3.37778c-0.24832,-0.8078 -1.29826,-2.15548 -1.29826,-2.15548c0,0 0.77922,-0.45445 2.05125,0.3821c0.35774,0.23527 0.4123,0.98995 0.4123,0.98995l-0.32028,0.92935c0,0 0.54486,1.20463 0.56522,1.80671c0.0343,1.01426 -0.0048,1.7957 -0.52526,2.76933c-0.52046,0.97363 -1.02599,0.13262 -1.02599,0.13262l0.54363,-1.47682z" fill="#393939"/><path d="M246.94375,187.02181l0.34415,-3.01473l0.72105,0.0364l0.02328,0.19177c0,0 0.23584,-0.17769 0.3123,-0.18346c0.33487,-0.02523 0.27697,0.11261 0.27697,0.11261c0,0 0.35852,-0.36923 0.74345,-0.45642c0.38494,-0.08719 0.87757,-0.24505 1.43804,-0.17034c0.56047,0.07472 1.49805,0.56183 1.49805,0.56183c0,0 1.8984,1.09418 1.6707,5.00741c-0.06739,1.15811 -0.52941,1.64312 -0.52941,1.64312c0,0 -1.5831,-0.2388 -2.48333,-0.8202c-0.72409,-0.69874 -1.08974,-0.98223 -1.42801,-1.24797c-0.2749,-0.21597 -1.05196,-0.68272 -1.05196,-0.68272l-0.4046,-0.11931l-0.27006,-0.24111z" fill="#f01a40"/><path d="M244.22972,185.23561c0.06851,-0.42861 1.14255,-1.99404 1.68756,-1.66963c0.76088,0.45288 0.27406,0.1628 0.59346,0.27629c0.31939,0.11349 0.52497,-0.28472 0.74245,0.19839c0.17768,0.39466 0.46914,0.87155 0.3736,1.47078c-0.29451,1.05858 -0.45659,1.35823 -0.85151,1.69207c-0.26493,0.22395 -0.97206,-0.17389 -0.97206,-0.17389c0,0 -0.59576,0.35987 -0.88052,0.27049c-0.28474,-0.08939 -0.83215,-1.19388 -0.69298,-2.06449z" fill="#ffffff"/><path d="M248.0951,186.90215c-0.28472,-0.14051 -0.89489,-0.17145 -0.89489,-0.17145l0.41005,-1.39137l0.93606,0.31889l0.23972,0.32073l0.30888,0.15445c0,0 0.85466,0.59564 1.9093,1.12246c0.41514,0.17148 3.01588,0.87008 3.01588,0.87008c0,0 0.00459,1.14956 -0.04737,1.40788c-0.05051,0.25108 -0.23203,0.73694 -0.23203,0.73694c0,0 -1.43393,-0.36877 -2.34552,-0.79746c-0.74014,-0.34805 -2.70038,-2.28591 -2.70038,-2.28591c0,0 -0.54615,-0.25882 -0.59969,-0.28523z" fill="#ffffff"/></g><path d="M245.74286,184.21344c0.36552,0.11926 0.49777,0.71876 0.2954,1.33906c-0.20238,0.62029 -0.66275,1.02645 -1.02827,0.90719c-0.36552,-0.11926 -0.49779,-0.71878 -0.29541,-1.33907c0.20238,-0.62029 0.66276,-1.02644 1.02829,-0.90718z" fill="#afafaf"/></g><path d="M238.49934,178.44268c0,0 -0.85539,0.02892 -1.14483,-0.14677c-0.30687,-0.18627 -0.70874,-0.89547 -0.70874,-0.89547l0.54193,-0.86126z" fill="#f25c76" stroke="none" stroke-width="0" stroke-linecap="butt" stroke-linejoin="miter"/><path d="M241.21972,182.51468l3.50418,1.40902l1.26065,0.49022c0,0 0.14594,0.41519 0.13514,0.68899c-0.0108,0.2738 -0.19416,0.80621 -0.19416,0.80621l-1.67593,-0.67947l-3.80643,-1.62954z" fill="#f79db4" stroke="none" stroke-width="0" stroke-linecap="butt" stroke-linejoin="miter"/><path d="M238.72783,184.68972l1.42774,-2.12616c0,0 0.32722,-0.19227 0.90633,-0.1046c0.37609,0.05693 0.86129,0.45631 0.86129,0.45631c0,0 -0.25812,-0.69514 0.32684,-0.83739c0.37558,-0.09134 1.12312,0.79182 1.309,1.16294c0.10943,0.21848 0.16946,0.66479 0.0597,0.9985c-0.06923,0.21051 -0.31484,0.39273 -0.31484,0.39273c0,0 0.24232,0.30909 -0.06349,0.59529c-0.09369,0.08767 -0.19707,0.23397 -0.19707,0.23397c0,0 0.10389,0.27501 0.09851,0.43275c-0.00539,0.15775 -0.14616,0.37712 -0.14616,0.37712l-0.41167,0.14844c0,0 -0.03771,0.56302 -0.10048,0.66026c-0.24615,0.38138 -0.74088,0.28847 -1.00671,0.24032c-0.48672,-0.08816 -1.52548,-0.44086 -1.60484,-0.5579c-0.49808,-0.73458 -1.14414,-2.07259 -1.14414,-2.07259z" fill="#ffffff" stroke="none" stroke-width="0" stroke-linecap="butt" stroke-linejoin="miter"/><g stroke="none" stroke-width="0" stroke-linecap="butt" stroke-linejoin="miter"><path d="M237.996,181.94762c1.44378,-0.82242 1.80446,-0.50699 2.04811,0.08383c0.37305,0.90459 0.26834,2.1655 -1.74374,2.93723c-0.5508,0.21126 -1.16546,-0.64247 -1.30424,-1.09216c-0.13879,-0.4497 0.48727,-1.63691 0.99986,-1.92892z" fill="#fed000"/><path d="M238.14294,182.34305c0.40574,-0.36344 0.8782,-0.4978 1.05527,-0.30014c0.17707,0.19768 -0.00831,0.65253 -0.41407,1.01599c-0.40574,0.36344 -0.8782,0.49781 -1.05526,0.30014c-0.17707,-0.19768 0.00831,-0.65255 0.41406,-1.01598z" fill="#c28830"/><path d="M234.6033,178.76493c-0.1967,-0.33862 -0.08315,-0.52529 0.09249,-0.64925c0.26144,-0.18446 0.50203,-0.14 0.69309,0.10856c0.76248,0.99201 1.44729,1.84542 2.01425,2.49561c0.34564,0.39639 1.75079,1.8942 1.75079,1.8942c0,0 -0.08527,0.07117 -0.23701,0.35802c-0.15174,0.28685 -0.66628,0.46223 -0.66628,0.46223c0,0 -0.73426,-0.90025 -1.59102,-1.88277c-0.59926,-0.68721 -1.46227,-1.76404 -2.05629,-2.78663z" fill="#fed5c7"/></g><path d="M240.44188,183.76803l2.53399,-5.46326l1.02619,-0.45072c0,0 0.78137,1.81795 -0.10848,3.50203c-0.48444,1.27868 -2.41517,3.15913 -2.41517,3.15913z" fill="#ffffff" stroke="none" stroke-width="0" stroke-linecap="butt" stroke-linejoin="miter"/><path d="M228.57886,192.78481c0.23225,-0.78349 8.0926,1.72942 8.0926,1.72942c0,0 2.41161,11.49787 -1.58969,10.69213c-4.0013,-0.80573 -6.95902,-5.56041 -6.50291,-12.42155z" fill="url(#color-1)" stroke="none" stroke-width="NaN" stroke-linecap="butt" stroke-linejoin="miter"/><g stroke-linecap="butt" stroke-linejoin="miter"><path d="M236.15122,205.35951c0,0 -4.63726,-0.57446 -4.05277,-5.75987c0.22444,-1.9911 0.98804,-3.23209 2.3836,-4.48561c1.47256,-1.32266 3.98117,0.18294 3.98117,0.18294l-0.53663,9.06803z" fill="#fbdd00" stroke="none" stroke-width="0"/><path d="M237.47189,204.64296l-0.45725,0.26754c0,0 -0.93556,-0.22761 -1.2634,-0.44221c-0.7031,-0.46023 -1.00964,-0.66403 -0.58825,-0.72263c0.20951,-0.02915 0.60775,0.37373 1.03177,0.55327c0.63364,0.2683 1.27711,0.34406 1.27711,0.34406z" fill="#a58c48" stroke="#000000" stroke-width="0"/><path d="M233.71319,201.64954c-0.18751,-0.01609 -0.64373,-0.70439 -0.48944,-2.03382c0.10339,-0.89077 0.51803,-2.36735 0.97943,-2.26994c0.42134,0.08894 -0.42686,1.45752 -0.50352,2.351c-0.07667,0.89346 0.20102,1.96885 0.01351,1.95276z" fill="#a58c48" stroke="#000000" stroke-width="0"/><path d="M237.78757,195.19879c0,0 -0.4228,-0.00504 -0.88597,0.12559c-0.4287,0.12091 -0.74155,0.48027 -0.87964,0.28625c-0.04859,-0.06828 -0.00089,-0.42191 0.38159,-0.53627c0.42602,-0.12736 1.04166,-0.10616 1.04166,-0.10616l0.34237,0.23058z" fill="#a58c48" stroke="#000000" stroke-width="0"/><path d="M239.22746,199.99003c0.15041,-2.54983 2.24025,-4.39328 2.24025,-4.39328l0.59396,-0.03122c0,0 -2.63366,1.99592 -2.24046,5.47711c0.24707,2.18746 1.81505,3.70157 1.81505,3.70157c0,0 0.28175,0.07432 -0.31236,0.02266c-0.5941,-0.05166 -0.37616,-0.08526 -0.37616,-0.08526c0,0 -1.93136,-1.11373 -1.72028,-4.69157z" fill="#edeee6" stroke="none" stroke-width="0"/><path d="M238.0652,195.11699l0.3674,0.15152c0,0 -3.11732,2.0293 -2.6443,5.45198c0.29723,2.15071 2.13159,3.64523 2.13159,3.64523l-0.30017,0.16099c0,0 -2.723,-1.26264 -2.65402,-4.84599c0.05442,-2.82754 3.09949,-4.56372 3.09949,-4.56372z" fill="#edeee6" stroke="none" stroke-width="0"/><path d="M235.3842,199.66072c0.15137,-2.56079 2.95669,-4.41897 2.95669,-4.41897l3.32134,0.2895c0,0 -2.63447,2.00543 -2.24253,5.50136c0.24628,2.19676 1.81374,3.71676 1.81374,3.71676c0,0 -0.93392,0.0395 -1.52804,-0.01216c-0.5941,-0.05167 -1.51721,-0.25268 -1.51721,-0.25268c0,0 -3.01639,-1.23059 -2.804,-4.82382z" fill="#ff1a07" stroke="none" stroke-width="0"/><path d="M239.50615,197.68009c0,0 -0.44383,1.42087 -0.50465,2.12959c-0.0591,0.68875 0.1379,2.14448 0.1379,2.14448l-3.19557,-0.2742c0,0 -0.65115,-1.20707 -0.56584,-2.10132c0.08531,-0.89424 0.84925,-2.13968 0.84925,-2.13968z" fill="#ff1808" stroke="#000000" stroke-width="0"/><path d="M241.11701,204.69915c0,0 -1.84306,-0.07766 -2.38356,-0.12404c-0.20409,-0.01751 -0.85565,-0.23563 -1.28005,-0.58636c-0.4244,-0.35073 -0.73018,-1.07496 -0.73018,-1.07496l2.97245,0.29529c0,0 0.32038,0.55356 0.59986,0.84656c0.27948,0.293 0.82149,0.64353 0.82149,0.64353z" fill="#ff1808" stroke="#000000" stroke-width="0"/><path d="M241.612,195.64765c0,0 -0.58162,0.35477 -0.81556,0.51744c-0.23393,0.16267 -0.57518,0.44968 -0.57518,0.44968l-3.13566,-0.26905c0,0 0.86556,-0.89177 1.30744,-0.93403c0.60357,-0.05772 3.21896,0.23596 3.21896,0.23596z" fill="#ff1808" stroke="#000000" stroke-width="0"/><path d="M242.80606,198.61413c-0.11452,1.33469 1.42823,7.50636 1.42823,7.50636c0,0 -5.14813,-1.00709 -4.42644,-6.79787c0.37844,-3.03666 2.14263,-4.20989 3.48406,-4.56701c0.85743,-0.22827 1.58854,0.06974 1.58854,0.06974c0,0 -1.95986,2.4541 -2.07439,3.78878z" fill="#fbdd00" stroke="none" stroke-width="0"/><path d="M240.59414,200.00671c-0.07676,0.89464 0.09702,2.04037 -0.0133,2.03091c-0.1103,-0.00946 -0.53027,-0.85442 -0.46261,-2.11199c0.03747,-0.69646 0.37944,-2.01211 0.74944,-2.16892c0.25007,-0.106 -0.21391,1.55512 -0.27354,2.25003z" fill="#a58c48" stroke="#000000" stroke-width="0"/><path d="M242.27423,205.2813l-0.497,-0.30419c0,0 -0.99505,-1.26828 -0.58823,-1.11681c0.26107,0.0972 1.08523,1.42099 1.08523,1.42099z" fill="#a58c48" stroke="#000000" stroke-width="0"/><path d="M241.67356,196.337c-0.37504,-0.03217 0.73481,-1.21263 0.73481,-1.21263l0.78723,-0.27718c0,0 -1.14701,1.522 -1.52205,1.48983z" fill="#a58c48" stroke="#000000" stroke-width="0"/><path d="M248.14009,201.09151c-0.20071,2.73825 -2.20272,5.14794 -3.92346,5.0003c-1.72075,-0.14765 -3.04228,-3.01833 -2.84586,-5.7569c0.20506,-2.85881 1.73213,-5.68601 3.45288,-5.53834c2.39982,0.20591 3.57757,3.07882 3.34166,6.29713z" fill="#fbdd00" stroke="#000000" stroke-width="0.25"/><path d="M246.00631,205.00429c-1.03686,-0.08896 -1.70782,-2.13724 -1.49866,-4.57495c0.20916,-2.43773 1.21926,-4.34177 2.25612,-4.25281c1.03686,0.08896 1.70784,2.13725 1.49868,4.57497c-0.20916,2.43773 -1.21928,4.34176 -2.25614,4.2528z" fill="#fbdd00" stroke="#000000" stroke-width="0.25"/><path d="M241.89931,193.44833c0,0 -0.54685,-0.26499 -0.94839,-0.33416c-0.40154,-0.06917 -1.044,-0.00904 -1.044,-0.00904l0.93556,-4.20021l1.44148,-6.8755c0,0 0.56404,-0.24049 0.79478,-0.20943c0.23074,0.03107 0.49251,0.51586 0.49251,0.51586l-1.04134,6.98914l-0.63059,4.12336z" fill="#fbdd00" stroke="none" stroke-width="0"/><path d="M241.56763,195.74836l-2.7502,0.04617c0,0 0.5275,-2.47954 0.83622,-2.63449c0.52283,-0.26242 2.20721,0.11652 2.42672,0.46941c0.05783,0.09296 -0.2255,1.90161 -0.2255,1.90161z" fill="#c8c8c6" stroke="none" stroke-width="0"/><path d="M235.95492,205.30243c0,0 -4.11734,-0.35725 -4.33185,-5.32106c-0.14475,-3.34919 3.22344,-5.03859 3.22344,-5.03859c0,0 -1.23579,0.91179 -1.95914,2.15048c-0.58544,1.00253 -0.79699,2.33904 -0.72275,3.48329c0.04995,0.7697 0.12274,1.58583 0.37189,2.13238c1.02715,2.25314 3.41842,2.59348 3.41842,2.59348z" fill="#fbdd00" stroke="#000000" stroke-width="0.25"/><path d="M243.14468,185.23149c0,0 -0.38775,0.02457 -0.78929,-0.04459c-0.40154,-0.06917 -0.70486,-0.20987 -0.70486,-0.20987l0.63342,-2.94765c0,0 0.56403,-0.24048 0.79477,-0.20942c0.23074,0.03107 0.49251,0.51586 0.49251,0.51586z" fill="#a56402" stroke="none" stroke-width="0"/></g><path d="M235.24945,179.66682c-0.26865,-0.52875 -0.06583,-1.6966 -0.06583,-1.6966l0.27299,-0.24876l1.1649,-0.43005c0,0 0.43837,0.61122 0.78113,0.84021c0.43267,0.28907 1.03066,0.23124 1.03066,0.23124l0.76125,0.75378l1.59508,-0.28909l0.15762,0.0869l0.67759,-0.14244l1.39516,-0.46421c0,0 0.57033,0.73587 0.03332,2.20278c-0.49485,1.35178 -0.71748,1.85878 -2.11883,3.09173c-1.2801,1.12626 -3.92461,-2.29453 -3.92461,-2.29453c0,0 -1.46023,-1.05023 -1.76039,-1.64097z" fill="#f01a40" stroke="none" stroke-width="0" stroke-linecap="butt" stroke-linejoin="miter"/><g stroke="none" stroke-width="0" stroke-linecap="butt" stroke-linejoin="miter"><path d="M240.92387,186.09504c-0.44911,-0.72261 -1.01697,-2.02888 -1.01697,-2.02888l1.4486,-1.98221c0,0 0.32076,-0.17172 0.87215,-0.06568c0.35808,0.06888 0.80761,0.46989 0.80761,0.46989c0,0 -0.22078,-0.67568 0.34496,-0.78966c0.36324,-0.07317 1.04564,0.80125 1.20955,1.16381c0.0965,0.21343 0.137,0.64323 0.01915,0.95873c-0.07434,0.19902 -0.31655,0.36418 -0.31655,0.36418c0,0 0.22032,0.30533 -0.08351,0.56781c-0.09309,0.08042 -0.19767,0.21663 -0.19767,0.21663c0,0 0.08904,0.26736 0.07786,0.41826c-0.01118,0.1509 -0.15437,0.35568 -0.15437,0.35568l-0.39998,0.1265c0,0 -0.05757,0.53788 -0.12138,0.62861c-0.25032,0.35595 -0.72065,0.24809 -0.97345,0.19187c-0.46288,-0.10299 -1.44443,-0.48039 -1.51599,-0.59552z" fill="#ffffff"/><path d="M238.53133,183.27176c-0.22234,-0.39256 0.11993,-1.63284 0.53991,-2.01159c1.1829,-1.06673 1.58545,-0.84549 1.93499,-0.34232c0.53517,0.77037 0.6962,1.97257 -1.02925,3.10859c-0.47234,0.31098 -1.2233,-0.36213 -1.44564,-0.75468z" fill="#fed000"/><path d="M238.25999,180.45643c-0.43079,-0.76054 -1.03445,-1.93768 -1.39591,-3.01219c-0.1197,-0.3558 0.02283,-0.50932 0.2116,-0.59198c0.28098,-0.12302 0.4984,-0.03504 0.63008,0.2351c0.52555,1.07817 1.00474,2.01123 1.41232,2.73078c0.24846,0.43868 1.14821,1.81793 1.14821,1.81793c0,0 -0.00851,0.24997 -0.20613,0.49021c-0.19762,0.24025 -0.61805,0.57676 -0.61805,0.57676c0,0 -0.56622,-1.15926 -1.18213,-2.24662z" fill="#fed5c7"/></g><path d="M237.30121,176.13443c0,0 0.35084,0.70619 -0.76961,1.56294c-1.04216,0.79689 -1.50505,0.23183 -1.50505,0.23183c0,0 0.04305,-0.66922 0.44261,-0.98446c0.39955,-0.31525 1.83206,-0.8103 1.83206,-0.8103z" fill="#afafaf" stroke="none" stroke-width="0" stroke-linecap="butt" stroke-linejoin="miter"/><g><g><path d="M232.97759,172.09838c0,0 0.25133,-0.87943 0.91761,-1.31353c0.59462,-0.3874 0.96317,-0.35017 1.60032,-0.0946c0.96518,0.38712 1.21562,1.76391 1.21562,1.76391c0,0 -0.58812,-1.96998 -2.18749,-1.72553c-0.9895,0.15125 -1.54607,1.36976 -1.54607,1.36976z" fill="#000000" stroke="none" stroke-width="0" stroke-linecap="butt" stroke-linejoin="miter"/><path d="M231.75513,167.21013c2.98685,-1.4907 6.45037,-0.6109 7.73599,1.96506c1.28562,2.57595 -0.09349,5.87261 -3.08034,7.36332c-2.98685,1.4907 -6.45037,0.61093 -7.736,-1.96504c-1.28562,-2.57595 0.09349,-5.87262 3.08035,-7.36333z" fill="#f79eb4" stroke="none" stroke-width="0" stroke-linecap="butt" stroke-linejoin="miter"/><path d="M229.92218,175.36293c-0.00049,-0.00054 0.69786,0.95634 1.35092,1.35399c0.65308,0.39766 2.81185,1.24734 2.81185,1.24734l0.65976,0.68906c0,0 -1.34982,0.60918 -3.40186,-0.79117c-1.27572,-0.86534 -1.7226,-1.82756 -1.70979,-1.81594" fill="#f79eb4" stroke="#f89db5" stroke-width="0" stroke-linecap="butt" stroke-linejoin="round"/><g fill="#ffd5c5" stroke="none" stroke-width="1" stroke-linecap="round" stroke-linejoin="round"><path d="M231.81722,177.09413c-0.01451,-0.05788 0.12236,0.005 0.17929,0.02286c0.3518,0.11007 0.48409,-0.28656 0.5917,-0.51291c0.08272,-0.1739 0.27667,-0.34111 0.4444,-0.4273c0.81128,-0.40622 2.63636,-0.65742 2.92309,-0.78557c0.26685,-0.11927 0.81651,-0.91796 1.04693,-1.15096c0.2364,-0.23905 0.52359,-0.26948 0.58354,-0.2576c0.12569,0.02498 0.99141,0.15077 0.59414,1.5031c-0.0552,0.18789 -0.57253,1.03626 -0.97072,1.29747c-0.33391,0.21899 -1.48081,1.01276 -2.57301,1.16652c-0.87044,0.12253 -1.49935,-0.00188 -1.57974,-0.01804c-0.49138,-0.0988 -1.10615,-0.3066 -1.23961,-0.83754z"/><path d=""/></g><g fill="#000000" stroke="#000000" stroke-width="0.125" stroke-linecap="butt" stroke-linejoin="round"><path d="M230.33689,176.09962c0.01411,0.02041 -0.60077,0.20805 -0.68019,0.22266c-0.36169,0.06664 -0.67882,0.10303 -1.04716,0.10895c-0.11751,0.0019 -0.52644,-0.03486 -0.52068,-0.03565c0.16913,-0.02394 0.34718,0.00486 0.51831,-0.01207c0.2858,-0.02834 0.56832,-0.08177 0.85013,-0.13771c0.44012,-0.10424 0.69157,-0.26378 0.75673,-0.27301"/><path d="M229.99901,175.71911c0.01315,0.01903 -0.60249,0.17056 -0.93809,0.15956c-0.3356,-0.011 -1.14433,-0.19545 -1.13194,-0.18612c0.03285,0.02471 0.71209,0.09039 1.169,0.07118c0.45692,-0.0192 0.74786,-0.17826 0.75938,-0.21246"/></g><g fill="#000000" stroke="none" stroke-width="1" stroke-linecap="round" stroke-linejoin="round"><path d="M233.08389,176.89295c-0.0951,0.05567 -0.54391,0.00388 -0.45435,-0.17015c0.05176,-0.1006 0.49899,-0.38921 0.68077,-0.35917c0.23917,0.03954 -0.02836,0.39076 -0.22642,0.52933z"/><path d=""/></g><path d="M238.29182,170.27026c0.02657,0.0021 0.90571,2.12197 1.00699,2.65574c0.15195,0.80092 0.16538,1.62888 -0.03019,2.4231c-0.08316,0.33768 -0.19453,0.63779 -0.33283,0.95364c-0.04475,0.10226 -0.26016,0.47175 -0.26016,0.47175c0,0 -0.11654,-1.09112 -0.8203,-2.59295c-0.37372,-0.79751 -1.35153,-2.48743 -1.30953,-2.44914" fill="#f79eb4" stroke="#f89db5" stroke-width="0" stroke-linecap="butt" stroke-linejoin="round"/><path d="M239.22711,169.05507c0.32133,0.24137 1.06288,1.95716 1.33936,3.33784c0.21307,1.06401 0.08936,1.4413 -0.1058,2.16145c-0.22103,0.81556 -0.56069,1.056 -0.56069,1.056c0,0 -0.09814,-1.24279 -0.31461,-2.00448c-0.21646,-0.76171 -1.20331,-3.39947 -1.22294,-3.40603" fill="#f79eb4" stroke="#f89db5" stroke-width="0" stroke-linecap="butt" stroke-linejoin="round"/><g fill="#ee1a40" stroke="none" stroke-width="1" stroke-linecap="round" stroke-linejoin="round"><path d="M228.90443,170.82192c0.02967,-0.14669 1.20761,-2.73471 3.86861,-3.55117c3.30651,-0.97412 5.43989,2.54756 5.43744,2.54808c-0.03433,0.00713 -1.22108,-1.15443 -2.31382,-1.37823c-1.41694,-0.29023 -2.23821,-0.45956 -3.45282,-0.09575c-1.54105,0.46158 -2.89466,2.69164 -2.94718,2.78035"/><path d=""/></g><path d="M230.07269,173.34858c-0.03756,-0.00835 -1.02838,1.82454 -1.43977,2.27116c-0.75344,0.81794 -2.8205,0.93418 -2.84018,0.94673c-0.01374,0.0087 1.38645,-1.46739 1.90522,-2.13146c0.51877,-0.66406 2.07115,-2.19403 2.04261,-2.20038" fill="#f79eb4" stroke="#f89db5" stroke-width="0" stroke-linecap="butt" stroke-linejoin="round"/><path d="M229.73402,172.24062c-0.13028,-0.02827 -1.22992,0.50836 -2.24607,0.79704c-0.73242,0.20808 -3.22621,-0.56103 -3.22621,-0.56103c0,0 1.17581,0.16573 2.97542,-0.83517c0.55495,-0.24181 1.14158,-0.86316 1.50609,-0.76209c0.36451,0.10106 1.7273,0.94048 1.77253,1.01078" fill="#f79eb4" stroke="#f89db5" stroke-width="0" stroke-linecap="butt" stroke-linejoin="round"/><g stroke="none" stroke-width="1" stroke-linecap="round" stroke-linejoin="round"><g fill="#f79eb4"><path d="M232.44521,168.81268c-0.02824,-0.15596 0.49292,-1.27935 1.02783,-1.95998c0.53492,-0.68061 1.12276,-1.22064 1.36775,-1.08814c0.1874,0.10134 0.62656,0.85171 0.92622,1.45803c0.29967,0.60631 0.42796,1.23425 0.56806,1.56536"/></g><g fill="#ffd5c5"><path d="M233.12914,168.65551c0.01753,-0.18817 0.22769,-0.71684 0.51354,-1.0928c0.28584,-0.37596 0.92488,-1.0131 1.04418,-0.95607c0.02943,0.01406 0.42795,0.65767 0.63813,1.11193c0.21018,0.45423 0.28213,0.85787 0.3106,0.9385"/></g></g><g fill="#f79eb4" stroke="none" stroke-width="1" stroke-linecap="round" stroke-linejoin="round"><path d="M228.0716,173.29343c-0.01334,-0.00769 -0.79577,-0.54331 -1.26632,-1.18451c-0.30146,-0.41077 -0.48465,-1.03954 -0.45663,-1.07935c0.1369,-0.19434 0.90582,-0.50364 1.52038,-0.75979c0.61457,-0.25616 0.92576,-0.33358 1.22917,-0.38622"/><path d=""/></g><path d="M232.79141,174.57409c0.45608,-0.54158 0.13544,-0.68126 1.83805,-2.82014c0.375,-0.2441 1.34399,-1.41244 2.04646,0.63123c0.23377,0.68009 0.42266,1.78465 -0.45152,2.88024c-0.49774,0.4649 -2.20367,0.49345 -2.82421,0.76435c-1.08949,0.47562 -0.69682,0.87574 -1.23043,1.11822c-0.13355,0.06068 -1.25751,-0.34094 -2.09782,-1.28757c-0.39623,-0.44638 -0.11851,-0.26321 -0.05734,-0.29308c0.40362,-0.1971 0.55011,-0.49194 1.14689,-0.20537c0.41742,0.20043 0.89256,0.3003 1.1807,0.12283c0.16797,-0.10345 0.34995,-0.18318 0.44922,-0.91073z" fill="#ffffff" stroke="none" stroke-width="0" stroke-linecap="butt" stroke-linejoin="miter"/><path d="M230.57918,174.23711c-0.06531,0.1268 0.37492,1.61003 -0.10951,2.42495c-0.48443,0.81492 -2.44135,0.99289 -2.39912,0.99947c0.00195,0.00031 1.22576,-1.09056 1.46297,-1.71224c0.23721,-0.62167 0.65885,-2.59326 0.63575,-2.54849" fill="#f79eb4" stroke="#f89db5" stroke-width="0" stroke-linecap="butt" stroke-linejoin="round"/><g fill="#000000" stroke="#000000" stroke-width="0.125" stroke-linecap="butt" stroke-linejoin="round"><path d="M235.84409,171.30708c0.03609,-0.03825 0.08801,-0.02477 0.13084,-0.04335c0.0449,-0.01949 0.2371,-0.13934 0.36821,-0.25508c0.67328,-0.59438 0.81572,-1.24266 0.81572,-1.24266c0,0 0.03096,0.41118 -0.82225,1.44124c-0.13289,0.16044 -0.27576,0.21733 -0.3137,0.19602"/><path d="M236.11131,171.26158c0.03187,-0.01162 0.11262,0.01398 0.14809,0.02002c0.08049,0.01373 0.64611,0.05116 1.25929,-0.38394c0.20257,-0.14542 0.7961,-0.69071 0.7961,-0.69071c0,0 -0.24127,0.37561 -0.80852,0.77279c-0.2379,0.16657 -0.791,0.44672 -1.04441,0.48408c-0.13666,0.02015 -0.18853,-0.00204 -0.18853,-0.00204"/></g><g stroke="none" stroke-linecap="butt" stroke-linejoin="miter"><path d="M234.68823,174.10552c0.36264,0.62273 0.4933,1.22265 0.29185,1.33997c-0.20146,0.11732 -0.65877,-0.29238 -1.02143,-0.9151c-0.36264,-0.62273 -0.49329,-1.22267 -0.29184,-1.33998c0.20146,-0.11732 0.65877,0.29238 1.02142,0.91511z" fill="#169c5b" stroke-width="NaN"/><path d="M234.55932,174.36715c0.15146,0.2601 0.20251,0.51275 0.11398,0.56429c-0.08853,0.05156 -0.28309,-0.11752 -0.43455,-0.37762c-0.15146,-0.2601 -0.20251,-0.51275 -0.11398,-0.56429c0.08853,-0.05156 0.28309,0.11752 0.43455,0.37762z" fill="#000000" stroke-width="0"/><path d="M234.1486,173.81436c0.15326,0.26316 0.19087,0.52691 0.08403,0.58913c-0.10685,0.06222 -0.31768,-0.10066 -0.47093,-0.36382c-0.15326,-0.26316 -0.19087,-0.52691 -0.08404,-0.58914c0.10685,-0.06222 0.31768,0.10067 0.47093,0.36382z" fill="#ffffff" stroke-width="0"/></g><g stroke="none" stroke-linecap="butt" stroke-linejoin="miter"><path d="M231.84882,176.06771c0.25578,0.43924 0.34796,0.86238 0.20585,0.94513c-0.14212,0.08275 -0.46466,-0.20622 -0.72045,-0.64546c-0.25578,-0.43924 -0.34795,-0.86238 -0.20585,-0.94513c0.14212,-0.08275 0.46465,0.20621 0.72044,0.64545z" fill="#169c5b" stroke-width="NaN"/><path d="M231.75791,176.25223c0.10685,0.18346 0.14283,0.36165 0.08039,0.39802c-0.06244,0.03637 -0.19966,-0.08288 -0.3065,-0.26634c-0.10685,-0.18346 -0.14283,-0.36165 -0.08038,-0.39802c0.06244,-0.03637 0.19966,0.08287 0.30649,0.26633z" fill="#000000" stroke-width="0"/><path d="M231.4682,175.86234c0.10809,0.18562 0.13462,0.37164 0.05927,0.41552c-0.07536,0.0439 -0.22407,-0.07101 -0.33218,-0.25661c-0.10809,-0.18562 -0.13464,-0.37165 -0.05927,-0.41554c0.07536,-0.0439 0.22407,0.07103 0.33217,0.25663z" fill="#ffffff" stroke-width="0"/></g></g><path d="M236.37823,176.20233c0,0 0.41344,-0.26737 0.69387,-0.4162c0.28044,-0.14882 0.44354,-0.15146 0.44354,-0.15146" fill="none" stroke="#000000" stroke-width="0.125" stroke-linecap="round" stroke-linejoin="miter"/></g></g></g></svg>