<svg version="1.1" xmlns="http://www.w3.org/2000/svg" xmlns:xlink="http://www.w3.org/1999/xlink" width="32.03037" height="39.02422" viewBox="0,0,32.03037,39.02422"><g transform="translate(-224.04904,-162.44176)"><g data-paper-data="{&quot;isPaintingLayer&quot;:true}" fill-rule="nonzero" stroke="none" stroke-linecap="butt" stroke-linejoin="miter" stroke-miterlimit="10" stroke-dasharray="" stroke-dashoffset="0" style="mix-blend-mode: normal"><path d="M237.66937,195.81346c0.1323,-0.59319 0.42855,-1.0462 0.79125,-1.45712c0.31589,-0.35788 0.68219,-0.68387 1.03451,-1.04277c0.75687,-0.77099 0.77359,0.89614 0.77359,0.89614c0,0 0.16936,2.40709 -0.2585,3.60592c-0.2368,1.06805 -1.35134,4.51012 -2.23065,3.45008c-1.20369,-1.45109 -0.1102,-5.45225 -0.1102,-5.45225z" data-paper-data="{&quot;index&quot;:null}" fill="#09649e" stroke-width="0"/><path d="M228.73759,196.30339c-0.01046,-1.74508 3.12589,-4.0371 3.12589,-4.0371c0.44358,-0.35682 0.92236,-0.51785 1.42409,-0.61025c0.43696,-0.08046 0.89134,-0.10889 1.35504,-0.1693c0.99612,-0.12976 0.02815,1.09498 0.02815,1.09498c0,0 -1.29343,1.85128 -2.30504,2.48076c-0.79768,0.64328 -3.6205,2.51576 -3.62813,1.24093z" data-paper-data="{&quot;index&quot;:null}" fill="#09649e" stroke-width="0"/><path d="M237.43336,190.22707c0,0 -3.03231,2.5967 -4.03153,3.37245c-0.67595,0.52478 -1.72304,1.40757 -1.72304,1.40757c-0.31516,0.17428 -1.54004,0.2962 -1.18116,-0.42819c0.28212,-0.56946 2.14013,-2.00822 2.14013,-2.00822c0,0 2.92395,-2.407 3.38618,-2.86113c1.50198,-1.38722 3.09311,-4.5817 3.09311,-4.5817l1.43312,0.59079l-3.1168,4.50842z" data-paper-data="{&quot;index&quot;:null}" fill="#ffffff" stroke-width="0"/><path d="M241.1194,190.46585c0,0 -0.70183,3.39381 -0.8973,4.50127c-0.16069,0.91036 -0.20865,2.33764 -0.48043,2.87501c-0.27179,0.53738 -0.86964,1.03698 -1.13034,0.27176c-0.20494,-0.60157 0.4258,-3.12413 0.4258,-3.12413c0,0 0.86107,-4.15285 0.8649,-4.80083c0.07516,-2.04319 -0.67182,-4.93873 -0.67182,-4.93873l1.42937,-0.59981l0.45981,5.81547z" data-paper-data="{&quot;index&quot;:null}" fill="#ffffff" stroke-width="0"/><path d="M244.10248,174.6852l0.17113,5.12718l2.3758,2.64768c0,0 -4.22473,-0.27772 -6.13288,-1.86112c-1.7273,-1.43332 -1.77608,-3.85835 -1.77608,-3.85835z" data-paper-data="{&quot;index&quot;:null}" fill="#2095ad" stroke-width="0"/><path d="M231.59115,184.24736c0,0 1.6086,-3.19705 1.6086,-4.82579c0,-0.87109 -1.14169,-3.96796 -1.19876,-7.24271c-0.04968,-2.84835 1.38564,-6.87721 2.44989,-6.87721c1.13519,0 1.08773,8.21611 1.17656,9.8424c0.50549,7.87617 -4.03629,9.10331 -4.03629,9.10331z" data-paper-data="{&quot;index&quot;:null}" fill="#2095ad" stroke-width="0"/><path d="M239.08134,176.53408c0.38847,3.5098 -2.8431,7.80272 -2.8431,7.80272c0,0 -1.3405,-1.18701 -0.89367,-6.30033c0.07949,-0.90963 0.29878,-5.22794 0.44683,-5.22794c0.09922,0 0.3685,1.7368 1.31117,2.84995c0.46417,0.54811 1.90402,0.20033 1.97876,0.87562z" data-paper-data="{&quot;index&quot;:null}" fill="#0d4d58" stroke-width="0"/><g data-paper-data="{&quot;index&quot;:null}" stroke-width="0"><path d="M226.97916,185.07333c-1.17072,0.19117 -2.93012,0.13143 -2.93012,0.13143c0,0 0.65128,-3.13959 5.67396,-4.38379c0.95098,-0.23557 -2.44504,1.76399 -1.95238,2.80558c0.4926,1.04145 5.11912,1.68885 5.11912,1.68885c0,0 -4.73985,-0.43325 -5.91058,-0.24208z" fill="#2095ad"/><path d="M241.2652,180.22481c0,0 -5.91388,4.58797 -8.30644,4.95556c-2.20886,0.33937 -6.77319,-1.19993 -6.17778,-2.24089c0.81666,-1.42777 3.99877,-2.91476 7.39696,-2.79615c1.04551,0.03649 2.81117,-0.23702 3.96909,-0.22552c1.94811,0.01934 3.11818,0.30701 3.11818,0.30701z" fill="#ffffff"/></g><g data-paper-data="{&quot;index&quot;:null}" stroke-width="0"><path d="M244.79376,184.00895c0,0 5.97971,-1.32354 6.23318,-1.42007c0.25347,-0.09653 3.16418,2.20024 3.8189,2.87911c0.65472,0.67886 1.23357,2.35969 1.23357,2.35969c0,0 -1.82446,-0.73763 -3.09174,-1.09937c-1.26728,-0.36174 -2.70729,-0.39384 -3.87782,-0.80687c-2.12356,-0.74932 -4.31608,-1.91249 -4.31608,-1.91249z" fill="#2095ad"/><path d="M253.50232,185.06552c0,0 -2.78295,1.38569 -7.05897,-0.30057c-5.94081,-2.34278 -6.46723,-5.24671 -6.46723,-5.24671c0,0 -0.36041,-0.38715 1.67217,0.47547c0.69906,0.29668 2.05457,-0.31234 5.73368,0.80731c4.70723,1.43255 6.12035,4.2645 6.12035,4.2645z" fill="#ffffff"/></g><g data-paper-data="{&quot;index&quot;:null}" stroke-width="0"><path d="M236.98845,188.21693c0,0 -2.18534,1.53688 -4.13805,2.48764c-1.95271,0.95076 -4.37696,3.83879 -4.37696,3.83879c0,0 -0.81051,-4.36664 0.82455,-7.87393c1.63506,-3.50729 3.73072,-3.48599 3.73072,-3.48599c0,0 -2.1696,3.6944 -1.43343,4.99724c0.72542,1.28382 5.39317,0.03625 5.39317,0.03625z" fill="#2095ad"/><path d="M232.89189,183.12426c0.18784,-0.14403 3.00132,-2.10024 5.15045,-1.94636c2.85238,0.20426 2.86045,-1.42219 3.41331,-0.17273c0.55286,1.24946 0.64191,3.95242 -1.03492,5.61127c-1.39569,1.38075 -4.05804,1.9635 -4.05804,1.9635c0,0 -4.62946,1.14537 -5.47998,-0.88607c-0.15587,-2.48534 1.81321,-4.41932 2.00919,-4.56961z" fill="#ffffff"/></g><g data-paper-data="{&quot;index&quot;:null}" stroke-width="0"><path d="M247.31481,188.01491c-0.00957,0.89915 -2.39182,3.46514 -2.39182,3.46514c0,0 -1.01677,-1.71878 -1.68299,-2.13889c-0.82005,-0.65086 -1.85701,-1.66678 -1.85701,-1.66678c0,0 1.64844,-1.39047 2.47779,-1.84722c0.74559,-0.41062 2.27383,-0.76967 2.27383,-0.76967c0,0 0.66407,1.11465 1.1802,2.95743z" fill="#2095ad"/><path d="M243.38456,186.33858c-1.47781,1.40397 -1.75797,2.31885 -3.55254,0.09858c-1.91825,-2.3733 -1.6465,-6.50872 -1.6465,-6.50872l1.15141,-0.82279c0,0 0.67848,1.92988 3.30357,2.58191c2.84897,1.80603 2.81559,2.61053 3.55182,3.38533c-0.25818,0.83068 -1.04349,-0.21788 -2.58083,1.24263z" fill="#ffffff"/></g><path d="M242.17173,180.09281c0,0 0.05501,0.19506 0.02339,0.62472c-0.03162,0.42965 -0.23543,1.05459 -0.23543,1.05459l0.2125,0.41509l-0.28956,0.66532l-0.83154,-0.09415l-0.227,-0.41811c0,0 -0.93951,-0.27428 -1.58756,-0.58004c-0.64805,-0.30576 -1.66897,-1.80284 -1.66897,-1.80284l0.5124,0.01355c0,0 1.16758,1.31968 1.45435,1.44869c0.28677,0.129 0.98654,0.30108 0.98654,0.30108l1.14935,-0.60871c0,0 0.03475,-0.30708 0.07346,-0.56335c0.0387,-0.25627 -0.08421,-0.51671 -0.08421,-0.51671z" data-paper-data="{&quot;index&quot;:null}" fill="#eec522" stroke-width="0"/><path d="M240.34919,176.64199c0.57293,0 1.04707,1.66348 1.04707,1.66348c0.07191,0.27088 -0.12211,0.78707 -0.13155,1.27342c-0.00788,0.40586 0.1735,0.81523 0.1735,0.81523l-0.11055,-0.14195c0,0 -0.85417,-0.71627 -1.08002,-0.67774c-0.11273,0.01923 -0.55348,-0.05417 -0.55348,-0.05417c0,0 -0.35911,0.22575 -0.53861,0.31464c-0.27707,0.13721 -0.96219,0.42856 -0.96219,0.42856c0,0 0.15254,-0.40899 0.19368,-0.59337c-0.03908,-1.469 -0.50943,-2.42213 0.40456,-3.01343c0.28535,-0.16851 1.28507,-0.01468 1.55758,-0.01468z" data-paper-data="{&quot;index&quot;:null}" fill="#09649e" stroke-width="0"/><g data-paper-data="{&quot;index&quot;:null}" stroke-width="0.17188"><path d="M232.17987,177.62872c-0.4669,-0.11886 -2.06219,-0.56295 -1.97862,-0.94409c0.10672,-0.49265 0.91326,-1.19974 1.53462,-1.25856c0.94566,-0.08921 2.11222,0.17792 3.07533,0.38742c1.52378,0.33172 3.74475,0.58871 3.98254,0.92907c0.23783,0.34023 -1.25675,0.9313 -2.12293,1.06918c-0.86617,0.13789 -3.07866,0.1763 -4.49094,-0.18301z" data-paper-data="{&quot;index&quot;:null}" fill="#09649e"/><path d="M230.21528,176.6695c0.24673,0.37834 0.04996,0.64776 -0.0966,0.74329c-0.16389,0.09933 -0.4545,-0.04399 -0.72946,0.02908c-1.41402,0.13396 -2.03817,-0.0355 -2.63966,-0.49233c0.13966,-0.50234 2.06376,0.12021 1.46013,-0.43734c-0.68155,-0.89152 -2.27386,-0.2976 -2.50385,-0.5959c-0.19953,-0.25879 1.1938,-0.41073 0.9635,-0.48186c-0.10173,-0.03141 -1.21667,0.14811 -1.27964,-0.20904c-0.00959,-0.38463 1.19993,-0.15194 1.19993,-0.15194c0,0 -0.91405,0.11292 -0.80927,-0.24649c0.10478,-0.35939 0.74596,-0.13885 1.05454,-0.17773c0.10088,-0.06423 1.52593,0.27229 1.75338,0.32429c0.97439,0.22277 1.63296,-0.20701 1.6947,0.13885c0.08322,0.46637 -0.05313,0.20529 -0.11017,0.58485c-0.03402,0.22555 0.03693,0.96362 0.04244,0.97225z" fill="#ebd9bb"/><path d="M231.47285,177.84487c-0.52471,0.24683 -1.49824,-0.49582 -2.03632,-0.30197c0.16557,-0.06288 0.14136,-0.46944 0.14136,-0.46944c-0.00259,-0.03288 -0.09951,-0.51189 -0.40356,-1.04281c-0.24996,-0.43653 -0.27074,-0.72248 -0.08441,-0.89921c0.12874,-0.12238 0.23347,-0.46206 0.59565,-0.40083c0.3848,0.06515 0.92261,0.02304 1.28305,0.2019c0.15606,0.07742 0.67791,0.14543 0.77742,0.24763c0.15122,0.15566 -0.13851,0.20127 -0.09781,0.16256c0.20321,-0.19334 -0.10316,0.48916 -0.05947,0.78916c0,0 0.15404,1.56619 -0.11591,1.71302z" fill="#ecc51e"/></g><g data-paper-data="{&quot;index&quot;:null}" stroke-width="0"><path d="M244.76243,167.96582c0,0.07763 -0.40472,0.14056 -1.24531,0.14056c-0.84059,0 -2.7212,-2.59261 -2.7212,-2.67021c0,-0.0776 1.63762,0.26606 2.47821,0.26606c0.38175,0 -0.0542,0.78107 0.3999,1.26667c0.54577,0.58359 1.08838,0.9546 1.08838,0.99697z" fill="#72878d"/><path d="M235.70203,169.45705c0,0 -0.02175,2.57971 0.08281,4.06033c0.15671,2.21903 0.76618,7.95946 0.76618,7.95946c0,0 -3.19417,-4.93273 -3.61935,-8.08767c-0.39063,-2.89863 0.35843,-6.4777 0.35843,-6.4777c0,0 1.79533,-3.8199 4.34968,-2.87289c0.4857,0.18006 0.33835,1.60663 0.33835,1.60663l-1.48483,0.52189z" fill="#2095ad"/><path d="M238.20427,163.3354c0,0 -1.65241,0.18649 -2.27886,0.62558c-0.29463,0.20651 -2.16296,1.20771 -2.13487,1.0111c0.32262,-2.2578 2.53701,-2.26224 2.53701,-2.26224c0,0 0.08397,-0.26808 0.84899,-0.26808c0.76502,0 1.02773,0.89367 1.02773,0.89367z" fill="#dceef3"/><path d="M241.68955,163.96094c0,0.24679 -1.05637,0.08937 -1.69797,0.08937c-0.6416,0 -1.34048,-0.71492 -1.34048,-0.71492c0,0 -0.06128,-0.68381 0.61182,-0.64617c1.02384,0.05727 2.42667,1.02497 2.42667,1.27176z" fill="#dceef3"/><path d="M240.43843,164.09505c0,0.51826 -1.00962,0.75961 -2.14477,0.75961c-1.13519,0 -2.05544,-0.24138 -2.05544,-0.75961c0,-0.51825 0.92025,-0.84898 2.05544,-0.84898c1.13518,0 2.14477,0.33072 2.14477,0.84898z" fill="#e8d548"/><path d="M237.67128,165.20156c0,0.3768 -0.53048,0.17955 -1.18489,0.17955c-0.65441,0 -0.96947,0.34089 -0.96947,-0.03591c0,-0.3768 0.35338,-1.02876 1.00779,-1.02876c0.65438,0 1.14658,0.50832 1.14658,0.88512z" fill="#72878d"/><path d="M245.35364,167.40159c0,0 -2.03465,-2.63151 -3.39475,-3.23824c-0.53055,-0.23669 -2.24696,0.61146 -1.87788,0.02104c0.06186,-0.09899 1.21751,-0.9658 1.87996,-0.89615c1.07963,0.00727 1.51595,0.494 1.51595,0.494c0,0 0.90576,-0.18437 1.63555,0.69209c0.91053,1.09356 0.24113,2.92726 0.24113,2.92726z" fill="#dceef3"/><path d="M244.81739,168.07203l-1.75054,-1.49516c0,0 -0.40176,-1.01641 0.18113,-1.01641c0.58286,0 1.56941,2.5116 1.56941,2.5116z" fill="#dceef3"/><path d="M244.63869,170.66365c0,0 0.09153,3.44657 -0.38397,5.40144c-0.4755,1.95487 -2.02892,4.51823 -2.02892,4.51823c0,0 -0.08938,-3.01013 -0.08938,-6.6131c0,-3.60297 -1.69794,-8.40045 -1.69794,-8.40045c0,0 1.66191,0.01184 2.25133,0.34173c0.76671,0.42914 1.94891,4.75215 1.94891,4.75215z" fill="#2095ad"/><path d="M244.005,172.86243c-0.14687,3.07172 -3.3417,3.93129 -4.85887,3.91243c-2.52338,-0.03138 -5.10086,-1.1581 -5.0527,-4.0076c0.03919,-2.31937 2.24061,-4.20021 5.00454,-4.20021c2.76393,0 5.35673,1.9284 4.90703,4.29538z" fill="#ecdebd"/><path d="M237.55795,173.9056c-0.1986,0.01557 -0.48753,-0.10247 -0.48753,-0.10247c0,0 -0.30566,-0.80404 -0.07554,-1.2234c0.23013,-0.41936 0.29814,-0.87299 0.87772,-0.90455c0.57958,-0.03154 1.06118,0.42206 1.43975,1.09674c0.242,0.43133 0.09141,0.8484 0.09141,0.8484c0,0 -1.43491,0.2531 -1.84581,0.28527z" fill="#000000"/><path d="M239.53579,173.9133c0,0 -0.56858,0.10102 -1.26996,0.10102c-0.70138,0 -1.11843,-0.19242 -1.11843,-0.19242c0,0 -0.28581,-1.97591 1.04147,-1.71731c1.37416,0.23434 1.34691,1.80871 1.34691,1.80871z" fill="#eaeee9"/><path d="M231.18899,168.60807c0,0 0.11022,-1.2447 0.30673,-1.85214c0.1965,-0.60744 0.67632,-1.18631 0.67632,-1.18631l0.40215,1.29582z" fill="#dceef1"/><path d="M244.03459,165.90804c0,0.03967 -1.31709,-0.31152 -2.09047,-0.31152c-0.77338,0 -2.19027,-0.60666 -2.19027,-0.64633c0,-0.03967 0.69878,-0.93357 1.75942,-0.93357c1.06061,0 2.52131,1.85175 2.52131,1.89142z" fill="#72878d"/><path d="M231.10431,168.75619c0,0 0.55976,-0.73295 0.79755,-1.06319c0.23779,-0.33024 0.74256,-1.04147 0.74256,-1.04147c0,0 0.35907,0.38433 0.35907,0.91977c0,0.53541 -1.89918,1.18489 -1.89918,1.18489z" fill="#72878d"/><path d="M243.68199,172.35116c0.04176,1.15195 -0.34981,1.2234 -0.34981,1.2234l-0.91662,-0.25428c0,0 -0.34083,-0.29084 -0.19345,-0.83509c0.13901,-0.51337 0.57498,-0.96249 0.85632,-0.94718c0.57961,0.03156 0.58491,0.29962 0.60354,0.81315z" data-paper-data="{&quot;index&quot;:null}" fill="#000000"/><path d="M242.44237,173.70275c0,0 -0.23348,-0.92297 -0.08906,-1.42457c0.22153,-0.76943 0.62903,-0.98102 1.03877,-0.47486c0.4097,0.50615 -0.0297,1.78074 -0.0297,1.78074z" fill="#eaeee9"/><g><path d="M242.98025,173.80895c-0.31534,0 -0.57097,-0.42963 -0.57097,-0.95966c0,-0.53 0.25563,-0.95965 0.57097,-0.95965c0.31534,0 0.57096,0.42962 0.57096,0.95965c0,0.53 -0.25562,0.95966 -0.57096,0.95966z" fill="#a77baf"/><path d="M243.19437,172.84924c0,0.25239 -0.10652,0.45697 -0.23791,0.45697c-0.13139,0 -0.23791,-0.20458 -0.23791,-0.45697c0,-0.25239 0.10649,-0.45697 0.23791,-0.45697c0.13139,0 0.23791,0.20458 0.23791,0.45697z" fill="#000000"/><path d="M243.05162,172.62073c0,0.17665 -0.0799,0.31988 -0.17843,0.31988c-0.09853,0 -0.17842,-0.14322 -0.17842,-0.31988c0,-0.17665 0.07989,-0.31988 0.17842,-0.31988c0.09854,0 0.17843,0.14322 0.17843,0.31988z" fill="#ffffff"/></g><path d="M244.6189,172.39672c0,0 -0.01602,-0.23183 -0.6406,-0.6185c-0.71364,-0.44181 -1.58222,1.30576 -1.58222,1.30576l-0.34305,-0.78596c0,0 -0.29251,0.96869 -0.55899,1.06878c-0.39652,0.14895 -1.55343,-0.7702 -2.56591,-1.02677c-0.88595,-0.22449 -3.32703,-0.14033 -3.32703,-0.14033c0,0 -1.10746,-4.58456 0.53379,-5.2494c0.87363,-0.35389 1.26986,-1.30666 3.10904,-0.9012c1.8392,0.40547 3.78879,1.4266 4.5855,2.59753c0.7967,1.17093 0.7895,3.7501 0.7895,3.7501z" fill="#2195ab"/><path d="M235.08534,166.02324c-1.23971,1.32317 -2.24299,1.24429 -2.24299,1.24429c0,0 -0.30901,-0.37847 -0.5799,-0.96278c-0.18872,-0.4071 -0.35897,-0.96008 -0.39336,-1.36142c-0.03765,-0.43908 0.84158,-1.02074 1.36312,-1.15503c0.63945,-0.16466 0.95061,0.17266 0.95061,0.17266c0,0 0.98257,-0.46923 1.46505,-0.41753c0.48249,0.05173 1.34659,0.80939 1.34659,0.80939c0,0 -0.81425,0.10369 -1.20018,0.56825c-0.20271,0.24403 -0.44414,0.81959 -0.70894,1.10222z" fill="#dceef3"/><path d="M236.7428,165.93142c0,0 1.75759,-0.26619 1.75759,-0.04816c0,0.10082 -0.84493,0.3861 -1.43497,0.81897c-0.68568,0.50304 -0.89483,0.77418 -0.89483,0.77418c0,0 0.02384,-0.72905 0.1257,-1.00409c0.10185,-0.27501 0.44648,-0.54091 0.44648,-0.54091z" data-paper-data="{&quot;index&quot;:null}" fill="#0b4754"/><path d="M240.81949,166.0313c0,-0.21803 1.94789,0.33832 1.94789,0.33832c0,0 0.25055,0.19786 0.3923,0.60741c0.14175,0.40951 0.27385,1.26879 0.27385,1.26879c0,0 -0.6426,-0.75276 -1.32828,-1.2558c-0.59003,-0.43287 -1.28575,-0.85793 -1.28575,-0.95875z" fill="#0b4754"/><path d="M242.04654,167.15803c0,0.62929 -0.3934,1.67565 -1.42988,1.67565c-1.03648,0 -1.88602,-0.46402 -2.59161,-1.31818c-0.11321,-0.13705 0.00212,-0.72239 -0.12621,-1.2503c-0.14281,-0.58733 -0.45892,-1.24235 -0.29218,-1.52855c0.32018,-0.32452 1.84828,-0.00353 1.84828,-0.00353c0,0 0.51111,-0.78436 1.00833,-0.23103c0.71386,0.79446 1.58331,2.28501 1.58331,2.65596z" fill="#dceef3"/><path d="M234.88675,175.97337l-0.09632,-4.52717l0.96322,0.43345l0.24081,4.19008z" fill="#2095ad"/><path d="M243.54693,172.75203c-0.01714,-0.06222 0.42181,-0.29023 0.8164,-0.54107c0.39456,-0.25084 0.95117,-0.72413 0.95117,-0.72413c0,0 -0.46373,0.6622 -0.78371,0.81968c-0.31998,0.15755 -0.94692,0.57936 -0.98385,0.44552z" data-paper-data="{&quot;index&quot;:null}" fill="#000000"/><g><path d="M238.67743,174.22092c-0.31534,0 -0.57097,-0.42963 -0.57097,-0.95966c0,-0.53 0.25563,-0.95965 0.57097,-0.95965c0.31534,0 0.57096,0.42962 0.57096,0.95965c0,0.53 -0.25562,0.95966 -0.57096,0.95966z" fill="#a77baf"/><path d="M238.89155,173.26122c0,0.25239 -0.10652,0.45697 -0.23791,0.45697c-0.13139,0 -0.23791,-0.20458 -0.23791,-0.45697c0,-0.25239 0.10649,-0.45697 0.23791,-0.45697c0.13139,0 0.23791,0.20458 0.23791,0.45697z" fill="#000000"/><path d="M238.74878,173.0327c0,0.17665 -0.07989,0.31988 -0.17842,0.31988c-0.09854,0 -0.17842,-0.14322 -0.17842,-0.31988c0,-0.17665 0.07989,-0.31988 0.17842,-0.31988c0.09853,0 0.17842,0.14322 0.17842,0.31988z" fill="#ffffff"/></g><path d="M241.56689,173.81835c-0.02258,-0.29232 0.7211,-0.65747 0.7211,-0.65747c0,0 0.09111,0.42138 0.18087,0.42888c0.24309,0.0203 0.91591,-0.0451 0.91591,-0.0451c0,0 -0.41448,0.65953 -0.84661,0.63073c-0.16913,-0.01125 -0.95676,-0.16909 -0.97127,-0.35704z" fill="#ecdebd"/><path d="M237.09151,174.39132l0.60988,-0.3812c0,0 0.48622,0.03812 0.72423,0.03812c0.23801,0 0.648,-0.07625 0.648,-0.07625l0.41933,0.4193z" fill="#ecdebd"/><path d="M239.18659,176.34984c-0.35689,0 -0.96996,-0.10298 -0.83178,-0.24026c0.1007,-0.16942 0.50224,0.08499 0.8367,0.08499c0.33446,0 0.7006,-0.19418 0.82685,-0.08499c0.24969,0.21594 -0.47488,0.24026 -0.83177,0.24026z" fill="#b1a37f"/><path d="M237.26644,174.40952c0,0.32925 -0.06743,0.38542 -0.06743,0.38542c0,0 -0.06744,-0.05617 -0.06744,-0.38542c0,-0.32925 -0.19868,-0.31516 0.06744,-0.31516c0.26612,0 0.06743,-0.01409 0.06743,0.31516z" fill="#d0bf96"/><path d="M243.44792,173.98805c0,0.32925 -0.06744,0.38539 -0.06744,0.38539c0,0 -0.06743,-0.05617 -0.06743,-0.38539c0,-0.32925 -0.19869,-0.31516 0.06743,-0.31516c0.26613,0 0.06744,-0.01409 0.06744,0.31516z" fill="#d0bf96"/><path d="M243.09672,174.12854c0,0.32925 -0.06743,0.38538 -0.06743,0.38538c0,0 -0.06744,-0.05616 -0.06744,-0.38538c0,-0.32925 -0.19868,-0.31516 0.06744,-0.31516c0.26612,0 0.06743,-0.01409 0.06743,0.31516z" fill="#d0bf96"/><path d="M237.61766,174.55001c0,0.32925 -0.06743,0.38539 -0.06743,0.38539c0,0 -0.06744,-0.05617 -0.06744,-0.38539c0,-0.32925 -0.19868,-0.31516 0.06744,-0.31516c0.26613,0 0.06743,-0.01409 0.06743,0.31516z" fill="#d0bf96"/><path d="M234.90814,175.50026c0,0 -0.96938,-0.8072 -1.15385,-2.15385c-0.18447,-1.34665 0.90351,-3.00911 1.15385,-3.38462c0.25033,-0.37551 1.07692,0.46154 1.07692,0.46154c0,0 -0.30801,1.01246 -0.45262,1.6942c-0.19757,0.93139 -0.62431,3.38272 -0.62431,3.38272z" fill="#2195ab"/></g><path d="M239.37062,179.68862c0,0 -0.31897,0.3679 -0.55402,0.46601c-0.23505,0.09811 -0.86424,0.08189 -0.86424,0.08189l0.37424,-0.36655c0,0 0.26093,-0.04291 0.47873,-0.07872c0.21779,-0.03581 0.53546,-0.40686 0.53546,-0.40686z" data-paper-data="{&quot;index&quot;:null}" fill="#2490a6" stroke-width="0"/><path d="M241.60793,180.36668c0,0 -0.6306,-0.13666 -0.81954,-0.24492c-0.18895,-0.10826 -0.39237,-0.54115 -0.39237,-0.54115l0.05232,-0.25088c0,0 0.29723,0.46898 0.4723,0.5085c0.17507,0.03952 0.1822,0.0996 0.1822,0.0996l0.50508,0.42884z" data-paper-data="{&quot;index&quot;:null}" fill="#2490a6" stroke-width="0"/><g data-paper-data="{&quot;index&quot;:null}" stroke-width="0.17188"><path d="M241.24969,183.26531c-0.68927,-1.28396 -1.18553,-3.44041 -1.2606,-4.31427c-0.07506,-0.87386 0.13815,-2.46689 0.5257,-2.31811c0.38765,0.14869 1.17264,2.24213 1.86203,3.64097c0.43556,0.88415 0.97613,1.95186 1.11759,2.89114c0.09275,0.61719 -0.39897,1.57045 -0.85135,1.79282c-0.34974,0.17302 -1.16542,-1.2681 -1.39337,-1.69257z" data-paper-data="{&quot;index&quot;:null}" fill="#09649e"/><path d="M242.65434,184.94059c0.0097,0.00327 0.7431,-0.10586 0.95379,-0.19326c0.3546,-0.14689 0.06834,-0.21625 0.54102,-0.24795c0.35054,-0.02348 0.09224,0.71931 0.54341,1.61121c0.10531,0.20819 0.82555,1.21004 0.78755,1.32343c0.03668,0.30886 0.34765,0.90487 0.02413,1.09322c-0.32352,0.18835 -1.27042,0.34437 -1.61169,0.15982c-0.62041,-0.33551 -0.62056,-0.29743 -0.76982,-1.52865c-0.34496,-0.15128 0.44745,-0.16289 0.16788,-0.30934c-0.68665,-0.45137 0.38151,1.26582 -0.07231,1.5225c-0.58841,-0.47356 -0.90338,-1.03845 -1.11435,-2.44303c0.00461,-0.28447 -0.20457,-0.53193 -0.14769,-0.71494c0.05737,-0.16526 0.27138,-0.42121 0.69805,-0.27299z" fill="#ebd9bb"/><path d="M241.21034,184.00358c0.07739,-0.29739 1.63452,-0.52557 1.63452,-0.52557c0.30167,-0.02994 0.89016,-0.49185 0.75153,-0.24801c-0.02774,0.04883 -0.05337,-0.24334 0.13417,-0.13413c0.12317,0.07193 0.31503,0.56198 0.42779,0.69477c0.26049,0.30667 0.34933,0.83876 0.50534,1.19649c0.14676,0.33672 -0.15764,0.52028 -0.24536,0.67473c-0.12659,0.22344 -0.40911,0.27223 -0.89304,0.13491c-0.58855,-0.16704 -1.07683,-0.14559 -1.10935,-0.14019c0,0 -0.4004,0.07456 -0.42149,0.25039c0.05837,-0.56895 -0.89712,-1.33466 -0.78411,-1.90341z" fill="#ecc51e"/></g><g data-paper-data="{&quot;index&quot;:null}"><path d="M239.65091,176.92613c0.17022,-0.06911 0.34154,0.07628 0.48084,0.36686c0.1393,0.29058 0.24674,0.72652 0.28893,1.23856c0.04223,0.51194 0.0113,1.00389 -0.07258,1.38519c-0.08398,0.38127 -0.22099,0.65174 -0.3912,0.72085c-0.17009,0.06905 -0.34142,-0.07634 -0.48082,-0.36696c-0.1393,-0.29058 -0.24663,-0.72649 -0.28883,-1.23853c-0.04223,-0.51194 -0.01141,-1.00393 0.07258,-1.38519c0.08388,-0.3813 0.221,-0.65174 0.39108,-0.72079z" fill="#5ed161" stroke-width="0.01872"/><g data-paper-data="{&quot;index&quot;:null}" fill="#21683c" stroke-width="0.01872"><path d="M239.72038,177.76842c0.09296,-0.03774 0.18652,0.04166 0.26259,0.20035c0.07607,0.15869 0.13475,0.39677 0.15779,0.6764c0.02306,0.27958 0.00617,0.54824 -0.03964,0.75647c-0.04586,0.20822 -0.12069,0.35593 -0.21364,0.39367c-0.09289,0.03771 -0.18645,-0.04169 -0.26258,-0.2004c-0.07607,-0.15869 -0.13468,-0.39675 -0.15773,-0.67638c-0.02306,-0.27958 -0.00623,-0.54826 0.03964,-0.75647c0.0458,-0.20823 0.12069,-0.35592 0.21357,-0.39363z"/></g><path d="M239.79565,177.68613c0.05928,-0.02185 0.12381,0.02812 0.18015,0.12655c0.05642,0.09845 0.10462,0.24537 0.13128,0.41732c0.02672,0.17197 0.02678,0.33664 0.0054,0.46381c-0.02141,0.12723 -0.06425,0.21692 -0.12352,0.23878c-0.05921,0.02196 -0.12374,-0.02808 -0.18015,-0.12654c-0.05642,-0.09846 -0.10462,-0.24537 -0.1313,-0.41725c-0.02665,-0.17195 -0.02675,-0.33673 -0.00537,-0.46388c0.02142,-0.12723 0.06423,-0.21685 0.12354,-0.23878z" fill="#ffffff" stroke-width="0.01896"/></g><path d="M237.10062,172.7814c0,0.13882 -0.92921,-0.1846 -1.27957,-0.25136c-0.35036,-0.06673 -1.00537,-0.52553 -1.00537,-0.52553c0,0 0.75054,0.28389 1.1976,0.42078c0.44709,0.13686 1.08734,0.29157 1.08734,0.35611z" data-paper-data="{&quot;index&quot;:null}" fill="#000000" stroke-width="0"/></g></g></svg>