<svg version="1.1" xmlns="http://www.w3.org/2000/svg" xmlns:xlink="http://www.w3.org/1999/xlink" width="33.69703" height="38.49045" viewBox="0,0,33.69703,38.49045"><g transform="translate(-223.37703,-162.44177)"><g data-paper-data="{&quot;isPaintingLayer&quot;:true}" fill-rule="nonzero" stroke="none" stroke-linecap="butt" stroke-linejoin="miter" stroke-miterlimit="10" stroke-dasharray="" stroke-dashoffset="0" style="mix-blend-mode: normal"><path d="M244.2638,174.6852l0.17113,5.12718l2.3758,2.64768c0,0 -4.22473,-0.27772 -6.13288,-1.86112c-1.7273,-1.43332 -1.77608,-3.85835 -1.77608,-3.85835z" data-paper-data="{&quot;index&quot;:null}" fill="#2095ad" stroke-width="0"/><path d="M231.75247,184.24729c0,0 1.6086,-3.19705 1.6086,-4.82579c0,-0.87109 -1.14169,-3.96796 -1.19876,-7.24271c-0.04968,-2.84835 1.38564,-6.87721 2.44989,-6.87721c1.13519,0 1.08773,8.21611 1.17656,9.8424c0.50549,7.87617 -4.03629,9.10331 -4.03629,9.10331z" data-paper-data="{&quot;index&quot;:null}" fill="#2095ad" stroke-width="0"/><path d="M239.24266,176.53409c0.38847,3.5098 -2.8431,7.80272 -2.8431,7.80272c0,0 -1.3405,-1.18701 -0.89367,-6.30033c0.07949,-0.90963 0.29878,-5.22794 0.44683,-5.22794c0.09922,0 0.3685,1.7368 1.31117,2.84995c0.46417,0.54811 1.90402,0.20033 1.97876,0.87562z" data-paper-data="{&quot;index&quot;:null}" fill="#0d4d58" stroke-width="0"/><g data-paper-data="{&quot;index&quot;:null}" stroke-width="0.17188"><path d="M232.48014,178.87223c-0.48062,-0.0337 -2.12953,-0.18622 -2.11525,-0.57616c0.01716,-0.50379 0.68471,-1.34335 1.28562,-1.51203c0.91461,-0.2564 2.1101,-0.20156 3.09513,-0.16714c1.55853,0.0547 3.78972,-0.08844 4.08439,0.20407c0.29469,0.29237 -1.07055,1.14047 -1.89826,1.43058c-0.82771,0.29011 -2.99788,0.72241 -4.4516,0.62068z" data-paper-data="{&quot;index&quot;:null}" fill="#09649e"/><path d="M230.37598,178.27873c0.31024,0.32828 0.16465,0.62847 0.03748,0.7486c-0.14355,0.12696 -0.45506,0.03775 -0.71258,0.15868c-1.36746,0.38395 -2.01184,0.3285 -2.68514,-0.01377c0.04786,-0.51918 2.05213,-0.24969 1.35876,-0.69067c-0.8296,-0.75571 -2.29049,0.1126 -2.56998,-0.13991c-0.24246,-0.21907 1.10144,-0.61702 0.86215,-0.64594c-0.1057,-0.01277 -1.17076,0.36267 -1.2964,0.02247c-0.07801,-0.37677 1.15361,-0.36346 1.15361,-0.36346c0,0 -0.87927,0.27408 -0.84025,-0.09824c0.03902,-0.37231 0.70926,-0.26963 1.00596,-0.36291c0.08781,-0.08118 1.55003,-0.00415 1.7831,0.00646c0.99849,0.04546 1.56988,-0.49487 1.6923,-0.16556c0.16505,0.44406 -0.01567,0.21147 -0.00412,0.59512c0.00675,0.228 0.20816,0.94159 0.21512,0.9491z" fill="#ebd9bb"/><path d="M231.82301,179.21102c-0.4723,0.33643 -1.56264,-0.22073 -2.05753,0.06596c0.15169,-0.09138 0.05539,-0.48712 0.05539,-0.48712c-0.00842,-0.03188 -0.18921,-0.48595 -0.58304,-0.95414c-0.3238,-0.38497 -0.39523,-0.66263 -0.2434,-0.86975c0.10486,-0.14337 0.14735,-0.49628 0.51464,-0.50061c0.39025,-0.00451 0.91193,-0.14183 1.29849,-0.03011c0.16737,0.04835 0.69299,0.02223 0.80912,0.10504c0.17655,0.12621 -0.10041,0.22273 -0.06726,0.17739c0.16548,-0.22647 -0.01428,0.49972 0.0822,0.78712c0,0 0.43085,1.51363 0.1914,1.70623z" fill="#ecc51e"/></g><path d="M240.52009,200.78167c-1.40098,-1.26166 -0.89793,-5.37893 -0.89793,-5.37893c0.04508,-0.60609 0.27266,-1.09719 0.57209,-1.55627c0.26078,-0.39982 0.57606,-0.77538 0.87274,-1.18148c0.63735,-0.87239 0.89511,0.77478 0.89511,0.77478c0,0 0.51587,2.35726 0.26597,3.60538c-0.07977,1.09107 -0.68454,4.65819 -1.70798,3.73653z" data-paper-data="{&quot;index&quot;:null}" fill="#09649e" stroke-width="0"/><path d="M234.59812,193.09186c0.33779,-0.45825 0.75959,-0.73617 1.2211,-0.9536c0.40194,-0.18936 0.834,-0.33285 1.26691,-0.50964c0.92998,-0.37978 0.30677,1.0515 0.30677,1.0515c0,0 -0.77794,2.12014 -1.59531,2.98703c-0.60701,0.82561 -2.85823,3.35671 -3.19108,2.12608c-0.45564,-1.68459 1.99161,-4.70137 1.99161,-4.70137z" data-paper-data="{&quot;index&quot;:null}" fill="#09649e" stroke-width="0"/><path d="M239.46279,189.69818c0,0 -2.26888,3.28481 -3.03693,4.28996c-0.51957,0.67996 -1.30658,1.80083 -1.30658,1.80083c-0.26022,0.24897 -1.41339,0.67956 -1.25134,-0.11244c0.12739,-0.62262 1.5565,-2.48806 1.5565,-2.48806c0,0 2.21254,-3.07373 2.54351,-3.63082c1.09805,-1.72471 1.82088,-5.21955 1.82088,-5.21955l1.53646,0.20533l-1.86249,5.15474z" data-paper-data="{&quot;index&quot;:null}" fill="#ffffff" stroke-width="0"/><path d="M242.26211,189.6122c0,0 -0.20339,3.45964 -0.23656,4.58373c-0.02727,0.92403 0.13179,2.34323 -0.05938,2.91427c-0.19117,0.57105 -0.71044,1.1519 -1.07912,0.43245c-0.28983,-0.56558 -0.03072,-3.15286 -0.03072,-3.15286c0,0 0.25113,-4.23374 0.16116,-4.87545c-0.22126,-2.03256 -1.37934,-4.78955 -1.37934,-4.78955l1.32754,-0.80032l1.29642,5.68774z" data-paper-data="{&quot;index&quot;:null}" fill="#ffffff" stroke-width="0"/><g data-paper-data="{&quot;index&quot;:null}" stroke-width="0"><path d="M227.22382,185.24003c-1.50594,-0.21552 -3.84679,-1.28523 -3.84679,-1.28523c0,0 2.48461,-1.63959 7.50729,-2.88379c0.95098,-0.23557 -3.44504,1.51399 -2.95238,2.55558c0.4926,1.04145 5.11912,1.68885 5.11912,1.68885c0,0 -4.32131,0.14011 -5.82724,-0.07541z" fill="#2095ad"/><path d="M241.42652,180.2249c0,0 -5.91388,4.58797 -8.30644,4.95556c-2.20886,0.33937 -6.85652,-1.03326 -6.26111,-2.07422c2.14999,-1.2611 4.0821,-2.4981 7.48029,-2.71282c1.22611,0.0428 2.73478,-0.49874 4.04458,-0.5425c1.68612,-0.05634 3.04269,0.37399 3.04269,0.37399z" fill="#ffffff"/></g><g data-paper-data="{&quot;index&quot;:null}" stroke-width="0"><path d="M244.95508,184.00902c0,0 3.81304,-2.32354 4.06651,-2.42007c0.25347,-0.09653 4.91418,2.70024 5.5689,3.37911c0.65472,0.67886 2.48357,1.60969 2.48357,1.60969c0,0 -2.57446,0.76237 -3.84174,0.40063c-1.26728,-0.36174 -2.79062,-0.64384 -3.96115,-1.05687c-2.12356,-0.74932 -4.31608,-1.91249 -4.31608,-1.91249z" fill="#2095ad"/><path d="M253.08031,185.89892c0,0 -2.19962,0.55236 -6.47564,-1.1339c-5.94081,-2.34278 -6.46723,-5.24671 -6.46723,-5.24671c0,0 -0.36041,-0.38715 1.67217,0.47547c0.69906,0.29668 1.8879,-0.14567 5.56701,0.97398c4.70723,1.43255 5.70369,4.93116 5.70369,4.93116z" fill="#ffffff"/></g><g data-paper-data="{&quot;index&quot;:null}" stroke-width="0"><path d="M231.42159,190.85035c-2.38633,0.64452 -5.12017,1.93774 -5.12017,1.93774c0,0 0.83298,-3.74741 1.82126,-5.86045c1.7068,-3.66116 4.8001,-3.91086 4.8001,-3.91086c0,0 -2.26114,2.73001 -1.49267,4.09001c0.75725,1.34014 5.96311,1.05249 5.96311,1.05249c0,0 -3.98914,2.15563 -5.97163,2.69107z" fill="#2095ad"/><path d="M232.77995,182.95495c0.19608,-0.15035 3.13299,-2.19238 5.37641,-2.03175c2.97752,0.21322 2.98595,-1.48459 3.56306,-0.18031c0.57712,1.30428 0.67008,4.12582 -1.08032,5.85745c-1.45693,1.44133 -3.87351,1.75653 -3.87351,1.75653c0,0 -5.84352,0.30453 -6.56468,-1.14936c-0.61228,-2.08705 2.37448,-4.09567 2.57906,-4.25255z" fill="#ffffff"/></g><g data-paper-data="{&quot;index&quot;:null}" stroke-width="0"><path d="M252.02512,188.67386c1.06691,1.86521 2.83163,3.4792 2.83163,3.4792c0,0 -5.72078,-0.80694 -7.64694,-1.72169c-2.07865,-0.98717 -4.78553,-2.20057 -4.78553,-2.20057l5.20724,-3.3997c0,0 3.32669,1.97755 4.3936,3.84276z" fill="#2095ad"/><path d="M250.52108,189.42091c-1.51074,0.6811 -9.19971,-0.80113 -10.63549,-2.4461c-2.06919,-2.56003 -1.46519,-7.01343 -1.46519,-7.01343l1.09495,-1.0644c0,0 0.73187,1.67037 3.56351,2.3737c4.1518,1.03125 3.67517,2.47465 4.46933,3.31042c0.80021,0.84211 3.96456,2.43107 3.30625,4.58983z" fill="#ffffff"/></g><path d="M242.31156,179.96514c0,0 -0.02346,0.43954 -0.07684,0.86704c-0.05338,0.4275 -0.37942,1.03668 -0.37942,1.03668l0.19117,0.42534l-0.32294,0.64977l-0.82569,-0.13621l-0.2055,-0.42909c0,0 -0.92439,-0.32159 -1.55609,-0.65983c-0.6317,-0.33824 -1.52889,-1.83374 -1.52889,-1.83374l0.51105,0.03953c0,0 1.05265,1.32577 1.33251,1.46916c0.27986,0.14338 0.97,0.35074 0.97,0.35074l1.17875,-0.54962c0,0 0.14108,-0.30031 0.19274,-0.55429c0.05165,-0.25397 0.05461,-0.66185 0.05461,-0.66185z" data-paper-data="{&quot;index&quot;:null}" fill="#eec522" stroke-width="0"/><g data-paper-data="{&quot;index&quot;:null}" stroke-width="0.17188"><path d="M246.75752,178.8722c-1.45372,0.10173 -3.62389,-0.33057 -4.4516,-0.62068c-0.82771,-0.29011 -2.19295,-1.13821 -1.89826,-1.43058c0.29467,-0.29251 2.52586,-0.14937 4.08439,-0.20407c0.98503,-0.03442 2.18052,-0.08926 3.09513,0.16714c0.60091,0.16868 1.26846,1.00824 1.28562,1.51203c0.01428,0.38994 -1.63463,0.54246 -2.11525,0.57616z" data-paper-data="{&quot;index&quot;:null}" fill="#09649e"/><path d="M248.8617,178.27868c0.00696,-0.00751 0.20837,-0.7211 0.21512,-0.9491c0.01155,-0.38365 -0.16917,-0.15106 -0.00412,-0.59512c0.12242,-0.32931 0.69381,0.21102 1.6923,0.16556c0.23307,-0.01061 1.69529,-0.08764 1.7831,-0.00646c0.2967,0.09328 0.96694,-0.0094 1.00596,0.36291c0.03902,0.37232 -0.84025,0.09824 -0.84025,0.09824c0,0 1.23162,-0.01331 1.15361,0.36346c-0.12564,0.3402 -1.1907,-0.03524 -1.2964,-0.02247c-0.23929,0.02892 1.10461,0.42687 0.86215,0.64594c-0.27949,0.25251 -1.74038,-0.6158 -2.56998,0.13991c-0.69337,0.44098 1.3109,0.17149 1.35876,0.69067c-0.6733,0.34227 -1.31768,0.39772 -2.68514,0.01377c-0.25752,-0.12093 -0.56903,-0.03172 -0.71258,-0.15868c-0.12717,-0.12013 -0.27276,-0.42032 0.03748,-0.7486z" fill="#ebd9bb"/><path d="M247.41467,179.21097c-0.23945,-0.1926 0.1914,-1.70623 0.1914,-1.70623c0.09648,-0.2874 -0.08328,-1.01359 0.0822,-0.78712c0.03315,0.04534 -0.24381,-0.05118 -0.06726,-0.17739c0.11613,-0.08281 0.64175,-0.05669 0.80912,-0.10504c0.38656,-0.11172 0.90824,0.0256 1.29849,0.03011c0.36729,0.00433 0.40978,0.35724 0.51464,0.50061c0.15183,0.20712 0.0804,0.48478 -0.2434,0.86975c-0.39383,0.46819 -0.57462,0.92226 -0.58304,0.95414c0,0 -0.0963,0.39574 0.05539,0.48712c-0.49489,-0.28669 -1.58523,0.27047 -2.05753,-0.06596z" fill="#ecc51e"/></g><path d="M240.51051,176.64194c0.57293,0 1.04707,1.66348 1.04707,1.66348c0.07191,0.27088 -0.12211,0.78707 -0.13155,1.27342c-0.00788,0.40586 0.1735,0.81523 0.1735,0.81523l-0.11055,-0.14195c0,0 -0.85417,-0.71627 -1.08002,-0.67774c-0.11273,0.01923 -0.55348,-0.05417 -0.55348,-0.05417c0,0 -0.35911,0.22575 -0.53861,0.31464c-0.27707,0.13721 -0.96219,0.42856 -0.96219,0.42856c0,0 0.15254,-0.40899 0.19368,-0.59337c-0.03908,-1.469 -0.50943,-2.42213 0.40456,-3.01343c0.28535,-0.16851 1.28507,-0.01468 1.55758,-0.01468z" data-paper-data="{&quot;index&quot;:null}" fill="#09649e" stroke-width="0"/><g data-paper-data="{&quot;index&quot;:null}" stroke-width="0"><path d="M244.92375,167.96582c0,0.07763 -0.40472,0.14056 -1.24531,0.14056c-0.84059,0 -2.7212,-2.59261 -2.7212,-2.67021c0,-0.0776 1.63762,0.26606 2.47821,0.26606c0.38175,0 -0.0542,0.78107 0.3999,1.26667c0.54577,0.58359 1.08838,0.9546 1.08838,0.99697z" fill="#72878d"/><path d="M235.86335,169.45706c0,0 -0.02175,2.57971 0.08281,4.06033c0.15671,2.21903 0.76618,7.95946 0.76618,7.95946c0,0 -3.19417,-4.93273 -3.61935,-8.08767c-0.39063,-2.89863 0.35843,-6.4777 0.35843,-6.4777c0,0 1.79533,-3.8199 4.34968,-2.87289c0.4857,0.18006 0.33835,1.60663 0.33835,1.60663l-1.48483,0.52189z" fill="#2095ad"/><path d="M238.36559,163.33541c0,0 -1.65241,0.18649 -2.27886,0.62558c-0.29463,0.20651 -2.16296,1.20771 -2.13487,1.0111c0.32262,-2.2578 2.53701,-2.26224 2.53701,-2.26224c0,0 0.08397,-0.26808 0.84899,-0.26808c0.76502,0 1.02773,0.89367 1.02773,0.89367z" fill="#dceef3"/><path d="M241.85087,163.96095c0,0.24679 -1.05637,0.08937 -1.69797,0.08937c-0.6416,0 -1.34048,-0.71492 -1.34048,-0.71492c0,0 -0.06128,-0.68381 0.61182,-0.64617c1.02384,0.05727 2.42667,1.02497 2.42667,1.27176z" fill="#dceef3"/><path d="M240.59975,164.09506c0,0.51826 -1.00962,0.75961 -2.14477,0.75961c-1.13519,0 -2.05544,-0.24138 -2.05544,-0.75961c0,-0.51825 0.92025,-0.84898 2.05544,-0.84898c1.13518,0 2.14477,0.33072 2.14477,0.84898z" fill="#e8d548"/><path d="M237.8326,165.20157c0,0.3768 -0.53048,0.17955 -1.18489,0.17955c-0.65441,0 -0.96947,0.34089 -0.96947,-0.03591c0,-0.3768 0.35338,-1.02876 1.00779,-1.02876c0.65438,0 1.14658,0.50832 1.14658,0.88512z" fill="#72878d"/><path d="M245.51496,167.4016c0,0 -2.03465,-2.63151 -3.39475,-3.23824c-0.53055,-0.23669 -2.24696,0.61146 -1.87788,0.02104c0.06186,-0.09899 1.21751,-0.9658 1.87996,-0.89615c1.07963,0.00727 1.51595,0.494 1.51595,0.494c0,0 0.90576,-0.18437 1.63555,0.69209c0.91053,1.09356 0.24113,2.92726 0.24113,2.92726z" fill="#dceef3"/><path d="M244.97871,168.07196l-1.75054,-1.49516c0,0 -0.40176,-1.01641 0.18113,-1.01641c0.58286,0 1.56941,2.5116 1.56941,2.5116z" fill="#dceef3"/><path d="M244.80001,170.6636c0,0 0.09153,3.44657 -0.38397,5.40144c-0.4755,1.95487 -2.02892,4.51823 -2.02892,4.51823c0,0 -0.08938,-3.01013 -0.08938,-6.6131c0,-3.60297 -1.69794,-8.40045 -1.69794,-8.40045c0,0 1.66191,0.01184 2.25133,0.34173c0.76671,0.42914 1.94891,4.75215 1.94891,4.75215z" fill="#2095ad"/><path d="M244.16632,172.86243c-0.14687,3.07172 -3.3417,3.93129 -4.85887,3.91243c-2.52338,-0.03138 -5.10086,-1.1581 -5.0527,-4.0076c0.03919,-2.31937 2.24061,-4.20021 5.00454,-4.20021c2.76393,0 5.35673,1.9284 4.90703,4.29538z" fill="#ecdebd"/><path d="M237.71927,173.90555c-0.1986,0.01557 -0.48753,-0.10247 -0.48753,-0.10247c0,0 -0.30566,-0.80404 -0.07554,-1.2234c0.23013,-0.41936 0.29814,-0.87299 0.87772,-0.90455c0.57958,-0.03154 1.06118,0.42206 1.43975,1.09674c0.242,0.43133 0.09141,0.8484 0.09141,0.8484c0,0 -1.43491,0.2531 -1.84581,0.28527z" fill="#000000"/><path d="M239.69711,173.9133c0,0 -0.56858,0.10102 -1.26996,0.10102c-0.70138,0 -1.11843,-0.19242 -1.11843,-0.19242c0,0 -0.28581,-1.97591 1.04147,-1.71731c1.37416,0.23434 1.34691,1.80871 1.34691,1.80871z" fill="#eaeee9"/><path d="M231.35031,168.60808c0,0 0.11022,-1.2447 0.30673,-1.85214c0.1965,-0.60744 0.67632,-1.18631 0.67632,-1.18631l0.40215,1.29582z" fill="#dceef1"/><path d="M244.19591,165.90805c0,0.03967 -1.31709,-0.31152 -2.09047,-0.31152c-0.77338,0 -2.19027,-0.60666 -2.19027,-0.64633c0,-0.03967 0.69878,-0.93357 1.75942,-0.93357c1.06061,0 2.52131,1.85175 2.52131,1.89142z" fill="#72878d"/><path d="M231.26563,168.7562c0,0 0.55976,-0.73295 0.79755,-1.06319c0.23779,-0.33024 0.74256,-1.04147 0.74256,-1.04147c0,0 0.35907,0.38433 0.35907,0.91977c0,0.53541 -1.89918,1.18489 -1.89918,1.18489z" fill="#72878d"/><path d="M243.84331,172.35116c0.04176,1.15195 -0.34981,1.2234 -0.34981,1.2234l-0.91662,-0.25428c0,0 -0.34083,-0.29084 -0.19345,-0.83509c0.13901,-0.51337 0.57498,-0.96249 0.85632,-0.94718c0.57961,0.03156 0.58491,0.29962 0.60354,0.81315z" data-paper-data="{&quot;index&quot;:null}" fill="#000000"/><path d="M242.60369,173.70269c0,0 -0.23348,-0.92297 -0.08906,-1.42457c0.22153,-0.76943 0.62903,-0.98102 1.03877,-0.47486c0.4097,0.50615 -0.0297,1.78074 -0.0297,1.78074z" fill="#eaeee9"/><g><path d="M243.14157,173.80895c-0.31534,0 -0.57097,-0.42963 -0.57097,-0.95966c0,-0.53 0.25563,-0.95965 0.57097,-0.95965c0.31534,0 0.57096,0.42962 0.57096,0.95965c0,0.53 -0.25562,0.95966 -0.57096,0.95966z" fill="#a77baf"/><path d="M243.35569,172.84924c0,0.25239 -0.10652,0.45697 -0.23791,0.45697c-0.13139,0 -0.23791,-0.20458 -0.23791,-0.45697c0,-0.25239 0.10649,-0.45697 0.23791,-0.45697c0.13139,0 0.23791,0.20458 0.23791,0.45697z" fill="#000000"/><path d="M243.21294,172.62073c0,0.17665 -0.0799,0.31988 -0.17843,0.31988c-0.09853,0 -0.17842,-0.14322 -0.17842,-0.31988c0,-0.17665 0.07989,-0.31988 0.17842,-0.31988c0.09854,0 0.17843,0.14322 0.17843,0.31988z" fill="#ffffff"/></g><path d="M244.78022,172.39666c0,0 -0.01602,-0.23183 -0.6406,-0.6185c-0.71364,-0.44181 -1.58222,1.30576 -1.58222,1.30576l-0.34305,-0.78596c0,0 -0.29251,0.96869 -0.55899,1.06878c-0.39652,0.14895 -1.55343,-0.7702 -2.56591,-1.02677c-0.88595,-0.22449 -3.32703,-0.14033 -3.32703,-0.14033c0,0 -1.10746,-4.58456 0.53379,-5.2494c0.87363,-0.35389 1.26986,-1.30666 3.10904,-0.9012c1.8392,0.40547 3.78879,1.4266 4.5855,2.59753c0.7967,1.17093 0.7895,3.7501 0.7895,3.7501z" fill="#2195ab"/><path d="M235.24666,166.02325c-1.23971,1.32317 -2.24299,1.24429 -2.24299,1.24429c0,0 -0.30901,-0.37847 -0.5799,-0.96278c-0.18872,-0.4071 -0.35897,-0.96008 -0.39336,-1.36142c-0.03765,-0.43908 0.84158,-1.02074 1.36312,-1.15503c0.63945,-0.16466 0.95061,0.17266 0.95061,0.17266c0,0 0.98257,-0.46923 1.46505,-0.41753c0.48249,0.05173 1.34659,0.80939 1.34659,0.80939c0,0 -0.81425,0.10369 -1.20018,0.56825c-0.20271,0.24403 -0.44414,0.81959 -0.70894,1.10222z" fill="#dceef3"/><path d="M236.90412,165.93143c0,0 1.75759,-0.26619 1.75759,-0.04816c0,0.10082 -0.84493,0.3861 -1.43497,0.81897c-0.68568,0.50304 -0.89483,0.77418 -0.89483,0.77418c0,0 0.02384,-0.72905 0.1257,-1.00409c0.10185,-0.27501 0.44648,-0.54091 0.44648,-0.54091z" data-paper-data="{&quot;index&quot;:null}" fill="#0b4754"/><path d="M240.98081,166.03131c0,-0.21803 1.94789,0.33832 1.94789,0.33832c0,0 0.25055,0.19786 0.3923,0.60741c0.14175,0.40951 0.27385,1.26879 0.27385,1.26879c0,0 -0.6426,-0.75276 -1.32828,-1.2558c-0.59003,-0.43287 -1.28575,-0.85793 -1.28575,-0.95875z" fill="#0b4754"/><path d="M242.20786,167.15804c0,0.62929 -0.3934,1.67565 -1.42988,1.67565c-1.03648,0 -1.88602,-0.46402 -2.59161,-1.31818c-0.11321,-0.13705 0.00212,-0.72239 -0.12621,-1.2503c-0.14281,-0.58733 -0.45892,-1.24235 -0.29218,-1.52855c0.32018,-0.32452 1.84828,-0.00353 1.84828,-0.00353c0,0 0.51111,-0.78436 1.00833,-0.23103c0.71386,0.79446 1.58331,2.28501 1.58331,2.65596z" fill="#dceef3"/><path d="M235.04807,175.9733l-0.09632,-4.52717l0.96322,0.43345l0.24081,4.19008z" fill="#2095ad"/><path d="M243.70825,172.75198c-0.01714,-0.06222 0.42181,-0.29023 0.8164,-0.54107c0.39456,-0.25084 0.95117,-0.72413 0.95117,-0.72413c0,0 -0.46373,0.6622 -0.78371,0.81968c-0.31998,0.15755 -0.94692,0.57936 -0.98385,0.44552z" data-paper-data="{&quot;index&quot;:null}" fill="#000000"/><g><path d="M238.83875,174.22086c-0.31534,0 -0.57097,-0.42963 -0.57097,-0.95966c0,-0.53 0.25563,-0.95965 0.57097,-0.95965c0.31534,0 0.57096,0.42962 0.57096,0.95965c0,0.53 -0.25562,0.95966 -0.57096,0.95966z" fill="#a77baf"/><path d="M239.05287,173.26122c0,0.25239 -0.10652,0.45697 -0.23791,0.45697c-0.13139,0 -0.23791,-0.20458 -0.23791,-0.45697c0,-0.25239 0.10649,-0.45697 0.23791,-0.45697c0.13139,0 0.23791,0.20458 0.23791,0.45697z" fill="#000000"/><path d="M238.9101,173.03264c0,0.17665 -0.07989,0.31988 -0.17842,0.31988c-0.09854,0 -0.17842,-0.14322 -0.17842,-0.31988c0,-0.17665 0.07989,-0.31988 0.17842,-0.31988c0.09853,0 0.17842,0.14322 0.17842,0.31988z" fill="#ffffff"/></g><path d="M241.72821,173.81829c-0.02258,-0.29232 0.7211,-0.65747 0.7211,-0.65747c0,0 0.09111,0.42138 0.18087,0.42888c0.24309,0.0203 0.91591,-0.0451 0.91591,-0.0451c0,0 -0.41448,0.65953 -0.84661,0.63073c-0.16913,-0.01125 -0.95676,-0.16909 -0.97127,-0.35704z" fill="#ecdebd"/><path d="M237.25283,174.39132l0.60988,-0.3812c0,0 0.48622,0.03812 0.72423,0.03812c0.23801,0 0.648,-0.07625 0.648,-0.07625l0.41933,0.4193z" fill="#ecdebd"/><path d="M239.34791,176.34978c-0.35689,0 -0.96996,-0.10298 -0.83178,-0.24026c0.1007,-0.16942 0.50224,0.08499 0.8367,0.08499c0.33446,0 0.7006,-0.19418 0.82685,-0.08499c0.24969,0.21594 -0.47488,0.24026 -0.83177,0.24026z" fill="#b1a37f"/><path d="M237.42776,174.40953c0,0.32925 -0.06743,0.38542 -0.06743,0.38542c0,0 -0.06744,-0.05617 -0.06744,-0.38542c0,-0.32925 -0.19868,-0.31516 0.06744,-0.31516c0.26612,0 0.06743,-0.01409 0.06743,0.31516z" fill="#d0bf96"/><path d="M243.60924,173.98805c0,0.32925 -0.06744,0.38539 -0.06744,0.38539c0,0 -0.06743,-0.05617 -0.06743,-0.38539c0,-0.32925 -0.19869,-0.31516 0.06743,-0.31516c0.26613,0 0.06744,-0.01409 0.06744,0.31516z" fill="#d0bf96"/><path d="M243.25804,174.12855c0,0.32925 -0.06743,0.38538 -0.06743,0.38538c0,0 -0.06744,-0.05616 -0.06744,-0.38538c0,-0.32925 -0.19868,-0.31516 0.06744,-0.31516c0.26612,0 0.06743,-0.01409 0.06743,0.31516z" fill="#d0bf96"/><path d="M237.77898,174.55002c0,0.32925 -0.06743,0.38539 -0.06743,0.38539c0,0 -0.06744,-0.05617 -0.06744,-0.38539c0,-0.32925 -0.19868,-0.31516 0.06744,-0.31516c0.26613,0 0.06743,-0.01409 0.06743,0.31516z" fill="#d0bf96"/><path d="M235.06946,175.5002c0,0 -0.96938,-0.8072 -1.15385,-2.15385c-0.18447,-1.34665 0.90351,-3.00911 1.15385,-3.38462c0.25033,-0.37551 1.07692,0.46154 1.07692,0.46154c0,0 -0.30801,1.01246 -0.45262,1.6942c-0.19757,0.93139 -0.62431,3.38272 -0.62431,3.38272z" fill="#2195ab"/></g><path d="M239.53194,179.68862c0,0 -0.31897,0.3679 -0.55402,0.46601c-0.23505,0.09811 -0.86424,0.08189 -0.86424,0.08189l0.37424,-0.36655c0,0 0.26093,-0.04291 0.47873,-0.07872c0.21779,-0.03581 0.53546,-0.40686 0.53546,-0.40686z" data-paper-data="{&quot;index&quot;:null}" fill="#2490a6" stroke-width="0"/><path d="M241.76925,180.36668c0,0 -0.6306,-0.13666 -0.81954,-0.24492c-0.18895,-0.10826 -0.39237,-0.54115 -0.39237,-0.54115l0.05232,-0.25088c0,0 0.29723,0.46898 0.4723,0.5085c0.17507,0.03952 0.1822,0.0996 0.1822,0.0996l0.50508,0.42884z" data-paper-data="{&quot;index&quot;:null}" fill="#2490a6" stroke-width="0"/><g data-paper-data="{&quot;index&quot;:null}"><path d="M239.81223,176.92613c0.17022,-0.06911 0.34154,0.07628 0.48084,0.36686c0.1393,0.29058 0.24674,0.72652 0.28893,1.23856c0.04223,0.51194 0.0113,1.00389 -0.07258,1.38519c-0.08398,0.38127 -0.22099,0.65174 -0.3912,0.72085c-0.17009,0.06905 -0.34142,-0.07634 -0.48082,-0.36696c-0.1393,-0.29058 -0.24663,-0.72649 -0.28883,-1.23853c-0.04223,-0.51194 -0.01141,-1.00393 0.07258,-1.38519c0.08388,-0.3813 0.221,-0.65174 0.39108,-0.72079z" fill="#5ed161" stroke-width="0.01872"/><g data-paper-data="{&quot;index&quot;:null}" fill="#21683c" stroke-width="0.01872"><path d="M239.8817,177.76842c0.09296,-0.03774 0.18652,0.04166 0.26259,0.20035c0.07607,0.15869 0.13475,0.39677 0.15779,0.6764c0.02306,0.27958 0.00617,0.54824 -0.03964,0.75647c-0.04586,0.20822 -0.12069,0.35593 -0.21364,0.39367c-0.09289,0.03771 -0.18645,-0.04169 -0.26258,-0.2004c-0.07607,-0.15869 -0.13468,-0.39675 -0.15773,-0.67638c-0.02306,-0.27958 -0.00623,-0.54826 0.03964,-0.75647c0.0458,-0.20823 0.12069,-0.35592 0.21357,-0.39363z"/></g><path d="M239.95697,177.68613c0.05928,-0.02185 0.12381,0.02812 0.18015,0.12655c0.05642,0.09845 0.10462,0.24537 0.13128,0.41732c0.02672,0.17197 0.02678,0.33664 0.0054,0.46381c-0.02141,0.12723 -0.06425,0.21692 -0.12352,0.23878c-0.05921,0.02196 -0.12374,-0.02808 -0.18015,-0.12654c-0.05642,-0.09846 -0.10462,-0.24537 -0.1313,-0.41725c-0.02665,-0.17195 -0.02675,-0.33673 -0.00537,-0.46388c0.02142,-0.12723 0.06423,-0.21685 0.12354,-0.23878z" fill="#ffffff" stroke-width="0.01896"/></g><path d="M237.26194,172.78135c0,0.13882 -0.92921,-0.1846 -1.27957,-0.25136c-0.35036,-0.06673 -1.00537,-0.52553 -1.00537,-0.52553c0,0 0.75054,0.28389 1.1976,0.42078c0.44709,0.13686 1.08734,0.29157 1.08734,0.35611z" data-paper-data="{&quot;index&quot;:null}" fill="#000000" stroke-width="0"/></g></g></svg>