<svg version="1.1" xmlns="http://www.w3.org/2000/svg" xmlns:xlink="http://www.w3.org/1999/xlink" width="50.89521" height="153.38073" viewBox="0,0,50.89521,153.38073"><g transform="translate(-211.48294,-52.69334)"><g data-paper-data="{&quot;isPaintingLayer&quot;:true}" fill-rule="nonzero" stroke-linejoin="miter" stroke-miterlimit="10" stroke-dasharray="" stroke-dashoffset="0" style="mix-blend-mode: normal"><g stroke="none" stroke-linecap="butt"><path d="M218.8992,187.00019c-0.88492,-0.96627 -2.82291,-4.42737 -2.82291,-4.42737c0,0 -1.1873,-1.27052 -2.01203,-1.90123c-1.01326,-0.77488 -2.58132,-1.6588 -2.58132,-1.6588c0,0 1.03247,-0.13755 1.94397,-0.08805c0.9115,0.04949 2.32897,0.21677 2.32897,0.21677c0,0 -0.71566,-1.02299 -1.12093,-1.91131c-0.40528,-0.88833 -0.82813,-2.36089 -0.82813,-2.36089c0,0 0.64473,0.05537 1.88539,0.68893c1.24066,0.63356 3.06068,1.83683 3.06068,1.83683l-1.22606,-4.41963c0,0 0.9422,0.52033 2.03636,1.45245c1.09417,0.93213 2.65951,2.54797 2.65951,2.54797c0,0 1.19739,-0.6947 1.76456,-1.16563c0.72303,-0.60035 2.22071,-2.14338 2.22071,-2.14338c0,0 -0.74917,2.38883 -1.14862,3.36281c-0.31405,0.76577 -1.05406,2.00809 -1.05406,2.00809c0,0 0.78346,1.93998 0.46275,3.86181c-0.04331,0.25955 0.89431,0.86198 1.90774,0.50243c0.76309,-0.27074 0.42626,1.75845 0.84847,2.6089c0.74432,1.49932 1.55895,2.13227 1.55895,2.13227c0,0 -3.36246,3.13736 -5.30904,2.50765c-1.585,-0.51275 -3.69005,-2.68432 -4.57498,-3.6506z" fill="#1c0e4c" stroke-width="NaN"/><path d="M218.13546,185.81858c0,0 0.11859,-3.24759 2.48194,-4.4754c2.07518,-1.0781 3.88511,0.71402 3.88511,0.71402l-0.0081,0.82528c0,0 -1.00436,0.25527 -1.81793,0.79807c-0.88179,0.58831 -1.29592,1.71122 -1.40213,2.22851c-0.29833,1.45312 -0.39305,2.99368 -0.39305,2.99368c0,0 -1.0289,-0.86186 -1.48133,-1.37003c-0.46264,-0.51964 -1.26452,-1.71414 -1.26452,-1.71414z" fill="#684af8" stroke-width="0"/><path d="M226.53995,183.5839c0,0 0.09475,0.82005 1.05134,3.04095c0.24988,0.58013 1.14397,1.58123 1.14397,1.58123c0,0 -0.6705,0.58054 -1.20224,0.94268c-0.60957,0.41515 -1.25654,0.86216 -1.33969,0.84509c-0.25687,-0.05274 -1.78599,-2.02589 -1.46355,-3.59643c0.32244,-1.57054 1.81016,-2.81352 1.81016,-2.81352z" fill="#684af8" stroke-width="0"/></g><g stroke="none" stroke-width="0" stroke-linecap="butt"><path d="M245.25226,192.4155c-0.04398,-5.19947 5.39725,-2.05912 5.86582,-2.75551c2.02986,-3.01682 4.82954,-6.09857 7.66763,-4.29362c1.07893,0.68618 -1.66377,3.89835 -3.69363,6.91518c-1.53641,2.28347 -4.76543,4.49507 -6.39412,5.08034c-0.52306,0.18796 -3.22179,-2.06564 -3.44571,-4.9464z" fill="#09031a"/><path d="M251.0927,194.1949c0,0 -2.50731,-1.94622 -1.15432,-4.52949c0.01347,-0.02571 1.03324,-1.62836 2.01227,-2.49993c1.00995,-0.89909 1.83552,-0.62848 1.83552,-0.62848c0,0 -1.25471,2.15837 -1.46424,3.1482c-0.20953,0.98981 0.32491,2.23394 0.32491,2.23394z" fill="#b16e27"/><path d="M255.85788,190.57318c1.84661,-2.61418 3.00794,-5.17032 3.00794,-5.17032c0,0 2.62121,-0.70747 -1.32095,4.8404c-0.71315,1.00363 -2.64911,3.69024 -3.74845,4.78701c-1.75851,1.75439 -5.21307,2.59065 -5.39665,2.46712c-0.20283,-0.13648 2.04344,-1.48474 4.36832,-3.55953c1.09508,-0.97727 2.20759,-2.11573 3.0898,-3.36466z" fill="#a75c1e"/><path d="M251.34082,195.30361c-0.60667,-0.4082 -0.58856,-1.49699 0.04048,-2.43187c0.62903,-0.93489 1.63078,-1.36185 2.23747,-0.95364c0.60667,0.4082 0.58856,1.49699 -0.04048,2.43188c-0.62904,0.93489 -1.63078,1.36185 -2.23747,0.95364z" fill="#999999"/><path d="M252.04914,194.36753c-0.17902,-0.12045 -0.09755,-0.55487 0.18197,-0.97029c0.27953,-0.41543 0.65124,-0.65455 0.83027,-0.5341c0.17902,0.12045 0.09755,0.55487 -0.18198,0.97031c-0.27953,0.41543 -0.65124,0.65456 -0.83026,0.53411z" fill="#b16e27"/></g><path d="M226.72188,169.38957c-0.16201,-0.43534 0.75255,-1.23536 2.12879,-1.7475c1.37625,-0.51215 2.44343,-0.59084 2.44343,-0.59084c0,0 4.38403,1.81531 4.16759,2.53198c-0.13699,0.4536 -3.04223,3.10917 -3.83624,3.32085c-0.08789,0.02343 -0.81067,1.41581 -0.81067,1.41581c0,0 -0.44888,-0.53919 -0.50354,-1.25658c-0.04519,-0.59289 0.1525,-1.42381 0.06339,-1.27729c-0.50176,0.82493 -0.93812,1.71354 -0.93812,1.71354c0,0 -0.31887,-0.50838 -0.27074,-1.15737c0.03923,-0.52906 0.28702,-1.16537 0.20052,-1.13398c-0.4405,0.15987 -1.10959,0.459 -1.10959,0.459c0,0 -0.13223,-0.91819 -0.02766,-1.32543c0.10456,-0.40724 0.59805,-0.89611 0.59805,-0.89611c0,0 -0.69551,-0.04019 -1.19438,0.00428c-0.41872,0.03732 -0.83689,0.13827 -0.91082,-0.06038z" fill="#5133c8" stroke="none" stroke-width="NaN" stroke-linecap="butt"/><g><path d="M243.50635,175.37935c-2.48888,-0.97727 -3.02194,-6.97181 -1.19063,-13.38916c0.97811,-3.42754 2.43288,-6.28247 3.95531,-8.04977c0.07802,-0.09057 1.58697,-2.27541 1.66529,-2.3602c1.25481,-1.3584 1.11036,0.13128 2.2018,0.55984c1.05576,0.41455 1.54698,-0.77816 1.86769,1.09127c0.05235,0.30508 0.30709,3.13494 0.33889,3.46789c0.07405,0.77536 0.09203,1.62215 0.05225,2.5212c-0.08524,1.92629 -0.4357,4.09232 -1.06821,6.30879c-1.83131,6.41735 -5.33352,10.82741 -7.82242,9.85014z" fill="#462fb6" stroke="none" stroke-width="0" stroke-linecap="butt"/><path d="M241.58226,165.16625c0,0 0.05813,2.09374 3.79758,3.47209c2.26547,0.83504 4.89153,0.08161 4.89153,0.08161c0,0 -0.54235,1.16305 -0.88423,1.85224c-0.49704,1.00197 -1.00087,1.72178 -1.00087,1.72178c0,0 -1.60929,0.81588 -3.64869,0.31009c-1.80584,-0.44787 -3.48244,-2.15259 -3.48244,-2.15259c0,0 -0.20797,-0.92138 -0.06173,-2.28703c0.10292,-0.96105 0.38885,-2.99817 0.38885,-2.99817z" fill="#0d0627" stroke="none" stroke-width="0" stroke-linecap="butt"/><path d="M243.30619,159.1875c0,0 0.29517,1.42803 4.03459,2.80636c2.26547,0.83504 4.61053,0.42031 4.61053,0.42031c0,0 -0.11814,1.23738 -0.27594,1.87161c-0.1578,0.63425 -0.49796,1.46208 -0.49796,1.46208c0,0 -2.8168,0.33028 -4.85619,-0.1755c-1.80584,-0.44787 -4.22235,-2.751 -4.22235,-2.751c0,0 0.26264,-1.11163 0.49064,-1.79786c0.22799,-0.68622 0.71668,-1.836 0.71668,-1.836z" fill="#0d0627" stroke="none" stroke-width="0" stroke-linecap="butt"/><path d="M246.16895,154.18604c0,0 -0.0581,1.17203 2.61246,2.22924c2.26547,0.83504 3.56968,0.53623 3.56968,0.53623c0,0 0.10633,0.8328 0.10021,1.31202c-0.00613,0.47922 -0.17705,1.80598 -0.17705,1.80598c0,0 -2.68685,-0.04009 -4.34834,-0.62697c-1.6615,-0.58689 -3.76151,-2.23769 -3.76151,-2.23769c0,0 0.47143,-0.80165 0.85798,-1.53368c0.33764,-0.63944 1.14657,-1.48517 1.14657,-1.48517z" fill="#0d0627" stroke="none" stroke-width="0" stroke-linecap="butt"/><path d="M247.65084,151.25185c0,0 -0.96647,-1.47623 -0.88556,-2.42372c0.06379,-0.74704 1.10215,-1.05614 1.27538,-0.95993c0.07277,0.04042 -0.27857,-1.92452 0.41707,-2.36466c1.0986,-0.69508 1.6772,0.48049 1.6772,0.48049c0,0 0.567,-0.33076 1.02024,-0.18153c0.45325,0.14923 0.90479,0.5236 0.87619,0.80594c-0.01594,0.15735 0.06818,-0.38114 0.50237,-0.28812c0.43418,0.09303 0.96554,0.60263 0.96554,0.60263c0,0 0.40562,-0.12867 0.78417,-0.03587c1.18974,0.29171 0.05871,1.73303 -0.36704,2.67373c-0.65262,1.44202 -1.57321,2.2519 -1.66333,2.36817c-0.18981,0.2449 0.93083,1.66906 0.48978,1.87988c-0.5291,0.2529 -1.69933,0.98891 -2.50062,0.59815c-0.33554,-0.16364 -0.55096,-0.82146 -0.67886,-1.17925c-0.21305,-0.59599 -0.05797,0.92961 -0.8899,0.76466c-0.83193,-0.16494 -1.71297,-1.38602 -1.71297,-1.38602l0.69035,-1.35454z" fill="#c08f5a" stroke="none" stroke-width="0" stroke-linecap="butt"/><path d="M248.14078,147.79969c0,0 0.49498,0.47418 1.14202,0.70041c0.60513,0.21157 1.36307,0.17058 1.41844,0.3212c0.05493,0.14942 1.23118,0.82877 -0.35853,1.22089c-0.54715,0.13496 -1.48504,-0.29248 -1.48504,-0.29248" fill="none" stroke="#b26a37" stroke-width="0.5" stroke-linecap="round"/><path d="M250.16985,146.9405l-0.03694,-0.82745" fill="none" stroke="#b26a37" stroke-width="0.5" stroke-linecap="round"/><path d="M252.07246,146.75597l0.05273,0.46379" fill="none" stroke="#b26a37" stroke-width="0.5" stroke-linecap="round"/><path d="M253.5166,147.62021l-0.02638,-0.51124" fill="none" stroke="#b26a37" stroke-width="0.5" stroke-linecap="round"/><path d="M253.47453,149.14862c0,0 -0.486,0.33734 -0.75952,0.24451c-0.29874,-0.10138 -0.85852,-0.4605 -0.85852,-0.4605" fill="none" stroke="#b26a37" stroke-width="0.5" stroke-linecap="round"/><path d="M252.136,152.00529c0,0 -1.5223,0.22913 -2.27183,0.12693c-0.731,-0.09968 -2.17118,-0.73278 -2.17118,-0.73278" fill="none" stroke="#b26a37" stroke-width="1" stroke-linecap="round"/></g><g stroke="none" stroke-width="0" stroke-linecap="butt"><path d="M225.22677,179.55582c0.36105,-4.67416 6.60284,-14.13361 14.01795,-14.16248c6.11495,-0.02381 11.83423,6.23281 14.01796,14.16248c-0.10852,8.90697 -6.27606,14.16248 -14.01795,14.16248c-7.74189,0 -13.90942,-2.54239 -14.01794,-14.16248z" fill="#684af8"/><path d="M234.5816,168.93125c0,0 2.2054,-0.1074 3.59759,0.18214c1.39219,0.28954 2.66429,1.12016 2.66429,1.12016c0,0 1.88375,-1.19776 3.23827,-1.25872c1.55805,-0.07012 2.23196,0.44142 2.23196,0.44142c0,0 0.48158,-0.82409 0.87359,-1.26625c0.39201,-0.44216 1.34137,-1.23206 1.34137,-1.23206l0.06904,3.32415c0,0 0.80036,-0.29692 1.33701,-0.33867c0.53664,-0.04175 1.22134,0.13963 1.22134,0.13963c0,0 -0.30325,0.41511 -0.7286,1.13955c-0.26727,0.4552 -0.40113,0.94282 -0.40113,0.94282l0.19524,0.54727l1.48771,-0.75986c0,0 0.0699,0.59011 -0.16475,1.22149c-0.16756,0.45088 -0.54933,0.9897 -0.54933,0.9897c0,0 2.22528,1.38844 1.90041,6.77972c-0.22792,3.78233 -1.07871,6.33313 -5.01711,9.16454c-1.52681,1.09765 -6.56077,3.25135 -8.35927,0.3774c-2.27883,-3.64148 -0.31336,-11.62196 -1.3122,-12.86655c-1.18311,-1.47421 -3.35414,-1.78911 -3.35414,-1.78911c0,0 0.65257,-0.50406 1.04185,-0.66528c0.64189,-0.26584 0.90059,-0.27207 0.90059,-0.27207c0,0 -0.67066,-0.80409 -1.90249,-1.66517c-0.91102,-0.63682 -1.25512,-0.93794 -1.25512,-0.93794c0,0 0.72203,-0.34798 1.16935,-0.3976c1.44747,-0.16059 2.07638,0.17816 2.07638,0.17816c0,0 -0.79042,-1.206 -1.3404,-1.94638c-0.54996,-0.74039 -0.96148,-1.15249 -0.96148,-1.15249z" fill="#ffffff"/></g><g stroke="none" stroke-width="0" stroke-linecap="butt"><path d="M248.88594,184.16087c2.86747,-0.89765 4.2596,-2.90303 4.2596,-2.90303c0,0 0.3344,2.89 -0.59867,4.22029c-0.24278,0.34614 -1.06118,1.32831 -2.24807,1.9405c-1.91925,0.98995 -4.6686,1.62586 -4.6686,1.62586c0,0 0.29182,-1.9841 0.28415,-2.08509c-0.04962,-0.65407 -0.36555,-1.84894 -0.36555,-1.84894c0,0 1.28951,-0.30857 3.33714,-0.94959z" fill="#f0993f"/><path d="M246.72552,186.60979c0,-0.36184 0.22628,-0.65517 0.50541,-0.65517c0.27913,0 0.50541,0.29333 0.50541,0.65517c0,0.36184 -0.22628,0.65516 -0.50541,0.65516c-0.27913,0 -0.50541,-0.29333 -0.50541,-0.65516z" fill="#a94a00"/><path d="M246.75543,186.59972c0,-0.20828 0.13025,-0.37712 0.29093,-0.37712c0.16067,0 0.29092,0.16884 0.29092,0.37712c0,0.20828 -0.13025,0.37712 -0.29092,0.37712c-0.16067,0 -0.29093,-0.16884 -0.29093,-0.37712z" fill="#ffffff"/><path d="M249.02625,185.8284c0,-0.36184 0.22628,-0.65517 0.50541,-0.65517c0.27913,0 0.50542,0.29333 0.50542,0.65517c0,0.36184 -0.22629,0.65517 -0.50542,0.65517c-0.27913,0 -0.50541,-0.29333 -0.50541,-0.65517z" fill="#a94a00"/><path d="M249.04185,185.82034c0,-0.20828 0.13025,-0.37712 0.29092,-0.37712c0.16067,0 0.29093,0.16884 0.29093,0.37712c0,0.20828 -0.13025,0.37712 -0.29093,0.37712c-0.16067,0 -0.29092,-0.16884 -0.29092,-0.37712z" fill="#ffffff"/></g><g data-paper-data="{&quot;index&quot;:null}" stroke="none" stroke-width="0" stroke-linecap="butt"><path d="M229.86861,204.02301c-2.58454,2.37406 -4.69662,0.00782 -5.86785,-1.43732c-0.29246,-0.36085 -1.48813,-3.01856 -1.18276,-4.38788c0.67976,-3.04805 3.7525,-5.9366 5.04841,-6.98687c0.70559,-0.57184 0.22013,-3.07407 1.69667,-2.49832c1.56185,0.609 5.08448,4.33158 5.68593,4.96169c0.34343,0.35979 -2.34416,-0.32583 -2.13008,-0.06168c0.40772,0.50308 -1.67608,4.35691 -2.09024,5.84049c-0.5442,1.94941 -0.14911,3.64129 -1.16008,4.56991z" fill="#1c0e4c"/><path d="M231.32348,199.83122c0,0 -0.43283,-1.24242 -2.04299,-3.03786c-1.61015,-1.79544 -5.45514,-2.28401 -5.45514,-2.28401c0,0 2.15536,-5.3616 7.31111,-0.1142c2.6082,2.65458 0.18704,5.43608 0.18704,5.43608z" fill="#f0993f"/><path d="M231.69253,199.67359c-0.48413,0.68536 -1.07504,1.10078 -1.31981,0.92787c-0.24477,-0.17293 -0.05071,-0.86868 0.43342,-1.55404c0.48413,-0.68536 1.07504,-1.10078 1.31981,-0.92787c0.24477,0.17292 0.05071,0.86868 -0.43342,1.55404z" fill="#c3c3c3"/><path d="M224.5714,194.01644c0.15778,-0.22418 0.37196,0.55338 0.37196,0.55338c0,0 -1.4518,1.71996 -1.89154,3.63919c-0.35562,1.55217 0.15468,3.22396 1.03114,4.30541c1.98516,2.44943 4.44218,2.37858 4.44218,2.37858c0,0 -1.34886,3.31791 -4.9701,-1.16845c-4.10535,-5.0861 -1.27218,-6.45639 1.01636,-9.70809z" fill="#f0993f"/><g><path d="M224.2381,192.7779c0.98716,-0.80005 2.09335,-1.07115 2.47072,-0.6055c0.37738,0.46564 -0.11694,1.49169 -1.1041,2.29174c-0.98714,0.80004 -2.09333,1.07115 -2.4707,0.6055c-0.37737,-0.46563 0.11694,-1.49169 1.10409,-2.29174z" fill="#c3c3c3"/><path d="M225.99696,193.01764c0.13885,0.17132 -0.04303,0.54882 -0.40623,0.84319c-0.36319,0.29435 -0.77019,0.39409 -0.90904,0.22277c-0.13885,-0.17132 0.04303,-0.54881 0.40623,-0.84318c0.3632,-0.29436 0.77018,-0.3941 0.90903,-0.22278z" fill="#dd6c23"/></g></g><g stroke="none" stroke-width="0" stroke-linecap="butt"><path d="M238.13998,185.63426c0.11388,1.113 0.47751,3.84901 0.47751,3.84901c0,0 -2.67312,0.20032 -4.37383,0.05451c-1.70071,-0.14581 -2.60984,-0.11133 -4.20369,-0.55798c-1.59385,-0.44665 -3.03816,-1.29022 -3.37467,-1.56573c-0.71099,-0.58211 -1.12865,-3.96478 -1.12865,-3.96478c0,0 3.46277,0.96024 7.09407,1.54997c2.5232,0.40977 5.49148,0.46106 5.50927,0.635z" fill="#f0993f"/><g><g><path d="M233.82674,192.39491c0.28991,-1.40937 4.27289,-6.48435 4.99213,-6.48435c0.4793,0 0.59835,1.49567 1.04973,3.57725c0.11246,0.51862 -0.3604,1.0051 -0.77619,1.90859c-0.41966,0.9119 -0.78323,2.23948 -0.87042,2.46359c-0.19429,0.49938 -3.25574,1.70926 -3.25574,1.70926c0,0 -1.29866,-2.40066 -1.13951,-3.17435z" fill="#f0993f"/><g><path d="M237.93277,187.92177c-0.50772,-2.24077 0.89718,-4.46886 3.13795,-4.97659c2.24077,-0.50772 4.46886,0.89718 4.97659,3.13795c0.50772,2.24077 -0.89718,4.46886 -3.13795,4.97659c-2.24077,0.50772 -4.46886,-0.89718 -4.97658,-3.13795z" fill="#fde02b"/><path d="M240.27958,187.2557c-0.23577,-1.04056 0.41663,-2.07524 1.45719,-2.31101c1.04056,-0.23577 2.07524,0.41663 2.31101,1.4572c0.23577,1.04056 -0.41663,2.07523 -1.45719,2.31101c-1.04056,0.23577 -2.07524,-0.41663 -2.31101,-1.45719z" fill="#f4a51d"/><path d="M242.66154,186.82151c0.09884,0.43618 -0.56668,0.95874 -1.48647,1.16715c-0.91978,0.20842 -1.74553,0.02376 -1.84437,-0.41243c-0.09884,-0.43618 0.56668,-0.95874 1.48647,-1.16714c0.91978,-0.20842 1.74554,-0.02376 1.84437,0.41243z" fill="#fffed5"/></g></g><g><path d="M235.59688,192.24706c0,-0.39558 0.32068,-0.71626 0.71626,-0.71626c0.39558,0 0.71626,0.32068 0.71626,0.71626c0,0.39558 -0.32068,0.71627 -0.71626,0.71627c-0.39558,0 -0.71626,-0.32069 -0.71626,-0.71627z" fill="#934200"/><path d="M235.64029,192.13854c0,-0.1918 0.15548,-0.34728 0.34727,-0.34728c0.1918,0 0.34727,0.15548 0.34727,0.34728c0,0.1918 -0.15548,0.34727 -0.34727,0.34727c-0.1918,0 -0.34727,-0.15548 -0.34727,-0.34727z" fill="#1c0e4c"/></g><g><path d="M236.89918,190.25016c0,-0.39558 0.32068,-0.71626 0.71626,-0.71626c0.39558,0 0.71627,0.32068 0.71627,0.71626c0,0.39558 -0.32069,0.71626 -0.71627,0.71626c-0.39558,0 -0.71626,-0.32068 -0.71626,-0.71626z" fill="#934200"/><path d="M236.94258,190.14167c0,-0.1918 0.15548,-0.34727 0.34727,-0.34727c0.1918,0 0.34728,0.15548 0.34728,0.34727c0,0.1918 -0.15548,0.34727 -0.34728,0.34727c-0.1918,0 -0.34727,-0.15548 -0.34727,-0.34727z" fill="#684af8"/></g></g></g><g stroke-width="0" stroke-linecap="butt"><g fill="#000000"><path d="M236.5036,79.287v-22.78335h1.78404v22.78335z" stroke="#b26a37"/><path d="M236.47438,78.95077l1.81767,0.18227c0,0 -0.25109,2.88158 2.14066,2.97585c2.38279,0.09392 2.80116,-3.06829 2.80116,-3.06829c0,0 0.04483,-0.66431 0.50503,-0.67959c0.5814,-0.01931 0.65215,0.58975 0.65215,0.58975c0,0 -0.01401,0.4058 -0.04106,0.60253c-0.2773,2.01628 -1.92549,3.56525 -3.91727,3.56525c-1.95684,0 -3.58202,-1.49509 -3.90141,-3.45955c-0.03743,-0.23018 -0.05692,-0.70822 -0.05692,-0.70822z" stroke="none"/></g><g stroke="none"><path d="M231.8592,69.8212l5.2228,-16.06834l0.93318,-0.53833l5.4225,16.60667z" fill="#462fb6"/><path d="M212.42709,63.74251l25.28888,-9.46668l-16.80808,13.3983z" fill="#462fb6"/><path d="M254.01314,67.60301l-16.11338,-13.14019l24.47839,9.42207z" data-paper-data="{&quot;index&quot;:null}" fill="#462fb6"/><path d="M220.85965,67.6151l16.67302,-14.01957l-5.67345,16.22569z" fill="#d9874c"/><path d="M243.20612,69.8212l-5.44189,-16.163l16.32567,13.95688z" data-paper-data="{&quot;index&quot;:null}" fill="#d9874c"/></g><path d="M235.44027,55.31578l1.39535,-2.60078l1.61091,-0.02166l1.14731,2.62244z" fill="#000000" stroke="none"/></g><g stroke="none" stroke-width="0" stroke-linecap="butt"><path d="M235.93736,161.68595c-0.07023,0.40557 -2.41714,2.41612 -2.41714,2.41612c0,0 -3.1213,-3.47244 -6.86889,-5.9436c-2.86628,-2.07244 -7.85905,-4.26215 -7.59822,-4.41529c0.68192,-0.40038 7.9491,1.44869 11.21457,3.06683c3.82079,1.89332 5.82892,3.95633 5.66969,4.87595z" data-paper-data="{&quot;index&quot;:null}" fill="#ffffff"/><path d="M231.07858,156.52346c0.26085,0.51092 0.55987,1.35915 0.55987,1.35915c0,0 -3.56762,-1.69217 -6.44946,-2.80988c-2.81236,-1.09076 -6.46687,-1.39946 -6.18191,-1.525c0.85687,-0.37753 3.36768,-0.18785 6.43868,0.3439c3.071,0.53175 5.16568,1.33501 5.16568,1.33501c0,0 0.20628,0.78589 0.46713,1.29683z" fill="#1a0c47"/><path d="M236.56598,160.86125c-0.10657,0.05534 -0.64314,0.5878 -1.19215,1.22726c-0.85575,0.9967 -1.81819,2.24013 -1.81819,2.24013c0,0 -1.58086,-2.22011 -2.16678,-3.15704c-0.58593,-0.93693 -2.5992,-2.83666 -2.43028,-2.93089c0.1458,-0.08135 2.6011,0.1436 3.8529,0.50406c1.96975,0.56719 3.96096,2.00929 3.75451,2.11649z" data-paper-data="{&quot;index&quot;:null}" fill="#e8e8e8"/><path d="M239.91088,161.0313c0,0 -1.34543,-0.11268 -2.25182,0.00572c-0.90638,0.1184 -1.81072,0.55746 -1.81072,0.55746c0,0 -1.15384,-1.50468 -1.85848,-2.14925c-0.70465,-0.64457 -2.52745,-1.67698 -2.52745,-1.67698l-1.2383,-2.59952c0,0 2.63176,0.49629 5.07479,2.07189c1.60474,1.03496 4.61198,3.7907 4.61198,3.7907z" data-paper-data="{&quot;index&quot;:null}" fill="#684af8"/></g><g stroke="none" stroke-width="0" stroke-linecap="butt"><path d="M254.96226,157.57007c-0.03099,0.52066 -4.40038,0.25197 -5.65308,0.60577c-2.77031,0.78243 -3.72458,1.08294 -3.72458,1.08294l1.42721,-2.66923c0,0 2.38321,-0.22971 4.30798,-0.03162c2.08488,0.21457 3.64742,0.92916 3.64248,1.01212z" fill="#1a0c47"/><path d="M245.5251,159.18275c3.41047,-1.28465 8.88058,-2.01781 9.45278,-1.47199c0.21888,0.20877 -5.17477,1.73944 -7.17408,2.85008c-3.17655,1.7646 -5.24526,4.36576 -5.18982,3.43411c0.05544,-0.93165 -0.49934,-3.52755 2.91112,-4.8122z" fill="#ffffff"/><path d="M245.03274,159.48482c0.14286,0.13039 -0.64643,1.22768 -1.29674,2.29176c-0.67556,1.10543 -1.12681,2.244 -1.12681,2.244c0,0 -0.76444,-2.0024 -0.99751,-2.20264c-0.30308,-0.2604 3.12593,-2.60248 3.42107,-2.33312z" fill="#e8e8e8"/><path d="M238.88859,159.73001c0,0 1.40731,-1.40588 3.20268,-2.05622c1.79539,-0.65034 4.63171,-1.58768 5.30917,-0.91615c0.14137,0.14012 -0.47909,1.25732 -1.29672,2.00533c-0.80603,0.73739 -1.80498,1.10367 -2.27412,1.52287c-0.98017,0.87587 -2.13206,1.56825 -2.13206,1.56825c0,0 -0.55097,-0.62956 -1.19155,-1.10279c-0.6406,-0.47322 -1.61739,-1.02129 -1.61739,-1.02129z" fill="#684af8"/></g><path d="M231.64153,166.58029c-0.73163,-1.96606 1.54412,-4.62745 5.08302,-5.94439c3.5389,-1.31694 6.98512,-0.7848 7.73249,1.17533c0.96393,2.52807 -1.54411,4.62745 -5.08301,5.94439c-3.5389,1.31694 -7.00086,0.79073 -7.7325,-1.17533z" fill="#684af8" stroke="none" stroke-width="0" stroke-linecap="butt"/><path d="M240.99298,162.92665c-0.43576,0.19394 -1.87769,-0.83299 -2.90474,-1.13521c-1.66008,-0.48849 -2.37783,-0.69127 -2.37783,-0.69127c0,0 0.82535,-0.4274 1.87039,-0.80927c1.29989,-0.47499 1.73028,-0.32801 1.73028,-0.32801c0,0 2.47598,2.61038 1.68189,2.96378z" fill="#1c0e4c" stroke="none" stroke-width="0" stroke-linecap="butt"/><path d="M243.98893,162.06406c0.60513,0.92061 0.7577,2.26301 0.15985,2.6657c-0.59785,0.4027 -1.71974,-0.28679 -2.32487,-1.2074c-0.60513,-0.92061 -0.61104,-1.99335 -0.01319,-2.39605c0.59785,-0.4027 1.57306,0.01715 2.1782,0.93774z" fill="#1c0e4c" stroke="none" stroke-width="0" stroke-linecap="butt"/><g stroke="none" stroke-width="0" stroke-linecap="butt"><path d="M241.53667,163.18746c-0.13065,-0.35109 0.04804,-0.74159 0.39913,-0.87224c0.35109,-0.13065 0.74159,0.04804 0.87224,0.39912c0.13065,0.35109 -0.04804,0.7416 -0.39912,0.87225c-0.35109,0.13065 -0.7416,-0.04804 -0.87225,-0.39913z" fill="#ffff9b"/><path d="M241.91565,163.0637c-0.05703,-0.15325 0.02096,-0.32372 0.17423,-0.38075c0.15324,-0.05703 0.32372,0.02096 0.38075,0.17423c0.05703,0.15325 -0.02096,0.32372 -0.17423,0.38075c-0.15324,0.05703 -0.32372,-0.02097 -0.38075,-0.17423z" fill="#000000"/></g><path d="M239.32659,162.97006c1.60361,0.87771 2.41845,2.47556 1.82002,3.56892c-0.59843,1.09336 -2.38353,1.26819 -3.98713,0.3905c-1.60361,-0.87771 -2.41845,-2.47556 -1.82002,-3.56892c0.59843,-1.09336 2.38354,-1.2682 3.98713,-0.3905z" fill="#1c0e4c" stroke="none" stroke-width="0" stroke-linecap="butt"/><g stroke="none" stroke-width="0" stroke-linecap="butt"><path d="M239.1203,164.93446c-0.18813,-0.50555 0.06919,-1.0679 0.57475,-1.25604c0.50555,-0.18813 1.0679,0.06919 1.25604,0.57474c0.18813,0.50555 -0.06919,1.0679 -0.57474,1.25604c-0.50555,0.18813 -1.06791,-0.06918 -1.25605,-0.57474z" fill="#ffff9b"/><path d="M239.66603,164.75622c-0.08212,-0.22068 0.0302,-0.46614 0.25089,-0.54827c0.22068,-0.08212 0.46614,0.0302 0.54826,0.25088c0.08212,0.22068 -0.0302,0.46614 -0.25088,0.54826c-0.22068,0.08212 -0.46615,-0.0302 -0.54827,-0.25087z" fill="#000000"/></g><path d="M230.20509,166.75353c1.92249,-0.43844 1.89169,0.16432 1.89169,0.16432c0,0 -0.97456,-0.59677 -1.41854,-0.859c-0.49766,-0.29396 -1.42476,-0.82048 -1.42476,-0.82048c0,0 0.97382,-0.51767 2.95115,0.34119c1.01289,0.43995 1.97563,1.00593 1.97563,1.00593c0,0 0.2595,-0.09793 1.7985,-0.03336c1.539,0.06457 2.5858,0.72394 4.00525,0.25583c0.88961,-0.35101 1.78682,-1.80171 2.44913,-2.06094c0.39926,-0.15627 1.14799,-0.35282 1.35778,-0.04906c0.01894,0.02742 0.21483,-0.074 0.41262,-0.60465c0.11619,-0.31174 0.25347,-0.83316 0.39178,-1.15596c0.27065,-0.6317 0.60534,-1.13319 0.60534,-1.13319l0.24145,1.6116c0,0 0.13171,-0.18099 0.33397,-0.3102c0.20227,-0.12921 0.55764,-0.25938 0.55764,-0.25938l-0.34053,1.57333l0.59188,0.59163c0,0 -0.66533,0.30471 -0.90174,0.27343c-0.23641,-0.03127 -0.29281,-0.11717 -0.29281,-0.11717c0,0 -0.25831,0.48323 -0.57786,0.841c-0.31955,0.35776 -1.06302,0.64308 -1.06302,0.64308c0,0 -0.266,0.3425 -0.61116,0.47767c-7.27562,3.45457 -9.4703,1.70768 -9.4703,1.70768c0,0 -0.89487,0.32147 -1.87362,0.65985c-0.97874,0.33839 -2.47451,0.95823 -2.47451,0.95823c0,0 0.65492,-1.06932 1.10769,-1.49253c0.45277,-0.4232 1.36228,-0.81618 1.36228,-0.81618c0,0 -0.67845,-0.18075 -1.56077,-0.2844c-0.88231,-0.10366 -2.31167,-0.39768 -2.22328,-0.16016c0.03402,0.09142 0.27661,-0.50971 2.1991,-0.94815z" fill="#ffffff" stroke="none" stroke-width="0" stroke-linecap="butt"/><path d="M242.83,165.45824c-0.06039,-0.16228 0.11687,-0.3111 0.44142,-0.43188c0.32456,-0.12078 0.55598,-0.12404 0.61637,0.03824c0.06039,0.16228 -0.20413,0.49611 -0.39156,0.56586c-0.16784,0.06246 -0.60584,-0.00996 -0.66623,-0.17223z" fill="#000000" stroke="none" stroke-width="0" stroke-linecap="butt"/><path d="M240.6046,167.8323c0,0 0.46749,-0.53461 0.91958,-0.80591c0.29792,-0.17877 0.84144,-0.15004 1.40994,-0.35809c0.46347,-0.16961 0.87087,-1.01703 1.25286,-1.21431c0.47658,-0.24612 1.31407,-0.04816 1.31407,-0.04816" data-paper-data="{&quot;index&quot;:null}" fill="none" stroke="#000000" stroke-width="0.5" stroke-linecap="round"/><g><g data-paper-data="{&quot;index&quot;:null}" stroke="none" stroke-width="0" stroke-linecap="butt"><path d="M234.47903,175.87361c-2.6559,0.30942 -5.94815,-4.7284 -7.35341,-11.25233c-0.75056,-3.48445 -0.81101,-6.68808 -0.29978,-8.96402c0.0262,-0.11664 0.32897,-2.75459 0.35816,-2.86625c0.4676,-1.78918 1.04144,-0.40687 2.20613,-0.54257c1.1266,-0.13125 0.99851,-1.41478 2.16153,0.08358c0.1898,0.24452 1.7467,2.62126 1.9315,2.90007c0.43033,0.6492 0.84484,1.38787 1.23296,2.19978c0.83159,1.73963 1.54205,3.81562 2.02741,6.06889c1.40526,6.52392 0.39141,12.06343 -2.2645,12.37285z" fill="#684af8"/><path d="M227.97365,167.76867c0,0 1.03693,1.81987 4.98495,1.27559c2.39183,-0.32973 4.35403,-2.23068 4.35403,-2.23068c0,0 0.06899,1.28143 0.09182,2.05042c0.03316,1.11798 -0.07251,1.99023 -0.07251,1.99023c0,0 -1.03574,1.47739 -3.07313,1.9912c-1.80408,0.45497 -4.08578,-0.2598 -4.08578,-0.2598c0,0 -0.61722,-0.71499 -1.13107,-1.98871c-0.36161,-0.89635 -1.06833,-2.82824 -1.06833,-2.82824z" fill="#1c0e4c"/><path d="M226.68011,161.68228c0,0 0.93265,1.12094 4.88069,0.57667c2.39183,-0.32973 4.26558,-1.79959 4.26558,-1.79959c0,0 0.47825,1.14732 0.63762,1.78117c0.15935,0.63385 0.24895,1.52438 0.24895,1.52438c0,0 -2.32969,1.6174 -4.36707,2.13121c-1.80408,0.45497 -5.02028,-0.43943 -5.02028,-0.43943c0,0 -0.29156,-1.1044 -0.41347,-1.81715c-0.12188,-0.71276 -0.232,-1.95723 -0.232,-1.95723z" fill="#1c0e4c"/><path d="M226.85139,155.92199c0,0 0.50047,1.0614 3.3543,0.73699c2.39183,-0.32973 3.40185,-1.20733 3.40185,-1.20733c0,0 0.48586,0.6847 0.70604,1.11041c0.22019,0.42569 0.69397,1.67671 0.69397,1.67671c0,0 -2.38939,1.22947 -4.13155,1.49382c-1.74216,0.26435 -4.37204,-0.20351 -4.37204,-0.20351c0,0 0.03855,-0.92919 0.03498,-1.75699c-0.00312,-0.72309 0.31244,-1.85006 0.31244,-1.85006z" fill="#1c0e4c"/></g><g><path d="M224.3086,148.71486c-0.06902,-0.36062 0.45526,-0.64563 0.79167,-0.54055c0.33641,0.10507 0.45258,1.1412 0.63014,0.98459c0.20516,-0.18097 -0.38209,-1.2458 -0.31124,-1.23721c0.08264,0.01002 -0.51454,-0.64929 -0.03611,-1.31917c0.75556,-1.05793 1.7346,-0.18713 1.7346,-0.18713c0,0 0.4005,-0.5201 0.87657,-0.5527c0.47605,-0.03261 1.03541,0.14393 1.11535,0.41624c0.04455,0.15174 -0.08052,-0.37873 0.35672,-0.45623c0.43722,-0.07749 1.12147,0.19423 1.12147,0.19423c0,0 0.3272,-0.27208 0.71281,-0.32879c1.21195,-0.17825 0.70761,1.58307 0.66785,2.61487c-0.06093,1.58164 -0.60837,2.6788 -0.64801,2.82046c-0.08352,0.29839 1.4913,1.19507 1.16223,1.5566c-0.39474,0.43367 -1.20124,1.55649 -2.09071,1.49658c-0.37248,-0.02509 -0.81996,-0.55321 -1.07329,-0.8364c-0.42199,-0.47172 0.2967,0.88288 -0.53604,1.04369c-0.83274,0.16081 -2.10904,-0.63812 -2.10904,-0.63812l0.12886,-1.51483c0,0 -1.96861,-0.77199 -2.49378,-3.51612z" fill="#ffc281" stroke="none" stroke-width="0" stroke-linecap="butt"/><path d="M227.51051,147.2881l-0.34611,-0.75249" fill="none" stroke="#d9874c" stroke-width="0.5" stroke-linecap="round"/><path d="M229.42687,146.80969l-0.22366,-0.40971" fill="none" stroke="#d9874c" stroke-width="0.5" stroke-linecap="round"/><path d="M230.6495,146.19261l0.21714,0.46358" fill="none" stroke="#d9874c" stroke-width="0.5" stroke-linecap="round"/><path d="M231.24073,151.23823c0,0 -1.32364,0.78604 -2.05642,0.97389c-0.71465,0.18321 -2.28724,0.13965 -2.28724,0.13965" fill="none" stroke="#d9874c" stroke-width="1" stroke-linecap="round"/></g></g></g></g></svg>