<svg version="1.1" xmlns="http://www.w3.org/2000/svg" xmlns:xlink="http://www.w3.org/1999/xlink" width="4.51636" height="11.87738" viewBox="0,0,4.51636,11.87738"><g transform="translate(-241.12487,-182.41314)"><g data-paper-data="{&quot;isPaintingLayer&quot;:true}" fill-rule="nonzero" stroke-linejoin="miter" stroke-miterlimit="10" stroke-dasharray="" stroke-dashoffset="0" style="mix-blend-mode: normal"><path d="M243.52845,187.39134c0,0 -0.2498,-1.14885 -0.49946,-1.84198c-0.2973,-0.82545 -1.16654,-2.78346 -1.16654,-2.78346l0.68886,-0.35276c0,0 1.04387,2.21671 1.4195,3.18791c0.32018,0.82781 0.67812,3.03496 0.67812,3.03496l-1.12049,-1.24468z" data-paper-data="{&quot;index&quot;:null}" fill="#f8b820" stroke="none" stroke-width="0" stroke-linecap="butt"/><g data-paper-data="{&quot;index&quot;:null}"><path d="M243.69289,187.06874c0.34495,0.09658 1.57007,1.33206 1.8902,3.14902c0.44224,2.51004 -1.76842,4.24418 -2.23404,4.05927c-1.29151,-0.49506 -1.6771,-1.61658 -2.12961,-3.41017c-0.54811,-2.17242 1.41986,-4.09304 2.47346,-3.79811z" fill="#a8c8d8" stroke="none" stroke-width="0" stroke-linecap="butt"/><path d="M243.69381,188.48186l-0.93072,-0.46064" fill="none" stroke="#808080" stroke-width="0.5" stroke-linecap="round"/><path d="M242.9293,189.84861l-0.74947,-0.3294" fill="none" stroke="#808080" stroke-width="0.5" stroke-linecap="round"/><path d="M242.6731,191.10332l-0.76174,-0.2316" fill="none" stroke="#808080" stroke-width="0.5" stroke-linecap="round"/><path d="M242.59813,192.48933l-0.58052,-0.10033" fill="none" stroke="#808080" stroke-width="0.5" stroke-linecap="round"/><path d="M242.45493,193.53436c0,0 -0.43325,-2.38193 -0.09849,-3.52668c0.33476,-1.14475 1.38782,-2.71618 1.38782,-2.71618" fill="none" stroke="#020202" stroke-width="0.25" stroke-linecap="round"/></g></g></g></svg>