<svg version="1.1" xmlns="http://www.w3.org/2000/svg" xmlns:xlink="http://www.w3.org/1999/xlink" width="145.99201" height="83.64397" viewBox="0,0,145.99201,83.64397"><g transform="translate(-158.31296,-159.92764)"><g data-paper-data="{&quot;isPaintingLayer&quot;:true}" fill-rule="nonzero" stroke-linejoin="miter" stroke-miterlimit="10" stroke-dasharray="" stroke-dashoffset="0" style="mix-blend-mode: normal"><path d="M263.11323,194.00297c-17.57171,2.60622 -30.59792,6.47429 -51.9969,1.73879c-4.43615,-0.17881 7.81737,-0.73722 8.36266,-4.97813c0.70961,-5.55117 -7.0723,-10.07006 -6.33156,-15.57327c0.19574,-2.77702 8.59429,1.02548 8.2047,-0.98668c-0.69036,-3.52386 -13.41402,-9.31767 -10.12019,-9.6291c7.75937,2.82636 12.99144,2.03299 20.85307,5.53563c11.06071,4.92795 24.72679,14.79183 35.26732,20.83429c4.50797,2.58301 0.15423,2.40865 -4.23911,3.05843z" data-paper-data="{&quot;index&quot;:null}" fill="#e2a026" stroke="none" stroke-width="1" stroke-linecap="round"/><path d="M261.05635,180.99978c-2.22221,-0.96205 -5.0519,1.42993 -7.25989,0.46822c-1.23794,-0.5361 -2.2052,-2.98648 -1.27151,-3.85636c2.39191,-2.20896 5.94935,-2.98757 9.17481,-3.56322c1.80275,-0.32418 3.91472,-0.1325 5.04452,1.17056c1.87425,2.11541 3.42884,5.29577 2.77071,8.16264c-0.40173,1.83521 -3.22895,3.16106 -5.21352,2.67308c-1.93507,-0.48899 -1.36216,-4.23533 -3.24511,-5.05494z" fill="#e88820" stroke="none" stroke-width="0.49091" stroke-linecap="round"/><g data-paper-data="{&quot;index&quot;:null}"><g><path d="M261.03393,192.66122c0,0 13.59521,4.30996 17.21572,4.30026c5.07835,-0.0134 17.11968,-3.43193 17.11968,-3.43193c0,0 1.40673,2.08705 -3.22039,3.24911c-2.6799,0.67302 -9.443,1.54595 -14.06023,1.44199c-5.53494,-0.12462 -16.15217,-2.53285 -16.15217,-2.53285l-0.90261,-3.02663z" fill="#989898" stroke="#989898" stroke-width="0" stroke-linecap="round"/><path d="M266.50621,186.10651c2.97879,-1.42153 11.56933,-2.23205 11.56933,-2.23205l-3.74814,12.86796c0,0 -7.16296,-0.71386 -11.14256,-2.20885c-1.89036,-0.71077 -3.01873,-1.98627 -1.33945,-4.8092c1.18132,-1.98575 2.71887,-2.68765 4.66087,-3.61787z" fill="#f82020" stroke="none" stroke-width="1.13968" stroke-linecap="round"/><path d="M273.99757,196.62294c0,0 -1.07961,-10.72577 3.56054,-12.64948c2.61471,-1.05199 10.8622,0.58043 13.26366,1.81393c2.41544,1.24177 4.54767,5.53066 4.7945,7.78468c0.14522,1.32395 -2.69975,1.78242 -4.3458,2.13144c-4.1066,0.86519 -9.09585,1.38339 -12.90318,1.40462c-3.80734,0.02126 -4.3697,-0.48523 -4.3697,-0.48523z" fill="#f8f8f8" stroke="none" stroke-width="1.15102" stroke-linecap="round"/><path d="M265.49857,179.15297c1.37563,-0.30284 7.83347,-2.24637 9.8819,-1.72879c1.57907,0.39897 0.25504,3.12601 0.25504,3.12601c0,0 1.36912,1.97654 1.47069,2.43792c0.38286,1.73932 -4.75962,1.8804 -8.07517,2.61028c-0.66307,0.14595 -3.648,1.85573 -5.61018,2.04179c-1.16769,0.11075 -2.21328,0.38711 -3.42016,-0.8613c-1.243,-1.28579 0.93176,-2.45639 0.93176,-2.45639c0,0 -2.83026,-0.90559 -1.39087,-3.28172c1.26715,-2.09178 4.3542,-1.53492 5.95706,-1.88781z" fill="#ffffff" stroke="none" stroke-width="0" stroke-linecap="butt"/></g><path d="M270.68148,187.08084c-5.1636,1.13671 -8.83611,2.41141 -9.12402,1.10371c-0.10496,-0.47665 3.78819,-1.73881 8.95179,-2.87551c5.1636,-1.13671 7.79726,-2.18272 7.90218,-1.70608c0.28791,1.30769 -2.56643,2.34118 -7.73003,3.47789z" fill="#424242" stroke="none" stroke-width="0" stroke-linecap="butt"/></g><path d="M266.10677,189.63765c-2.35047,0.58328 -3.14922,4.20141 -5.48763,4.77611c-1.30957,0.325 -3.56471,-1.03649 -3.35023,-2.29428c0.56172,-3.20715 2.9176,-5.98399 5.13246,-8.39833c1.23652,-1.35127 3.03198,-2.47977 4.72052,-2.1296c2.7728,0.54471 5.93819,2.13006 7.15406,4.80885c0.79362,1.70267 -0.64961,4.47149 -2.52294,5.28733c-1.83532,0.78505 -3.65237,-2.54079 -5.64621,-2.0501z" fill="#f8b820" stroke="none" stroke-width="0.49091" stroke-linecap="round"/><g data-paper-data="{&quot;index&quot;:null}"><g><path d="M277.13134,202.04362c0,0 13.00219,-5.86076 15.69248,-8.28367c3.7737,-3.39837 10.46184,-13.97896 10.46184,-13.97896c0,0 2.44035,0.61595 -0.23084,4.56884c-1.54708,2.2894 -6.00219,7.45211 -9.51073,10.45541c-4.20589,3.60022 -13.72104,8.89051 -13.72104,8.89051l-2.69176,-1.65216z" fill="#989898" stroke="#989898" stroke-width="0" stroke-linecap="round"/><path d="M276.83395,193.51005c1.27029,-3.04636 7.12821,-9.38191 7.12821,-9.38191l5.79399,12.08564c0,0 -5.81169,4.24758 -9.77341,5.78931c-1.88229,0.73187 -3.5738,0.53469 -4.20651,-2.68845c-0.44502,-2.2673 0.23191,-3.81601 1.05775,-5.80464z" fill="#f82020" stroke="none" stroke-width="1.13968" stroke-linecap="round"/><path d="M289.43075,196.34488c0,0 -7.96065,-7.26882 -5.78794,-11.79773c1.24567,-2.52818 8.47807,-6.81519 11.08983,-7.49872c2.6277,-0.6867 7.07755,1.08524 8.76534,2.59947c0.99153,0.88926 -0.82166,3.12898 -1.81486,4.48724c-2.48155,3.38446 -5.85207,7.0994 -8.67382,9.65556c-2.82173,2.55619 -3.57856,2.55414 -3.57856,2.55414z" fill="#f8f8f8" stroke="none" stroke-width="1.15102" stroke-linecap="round"/><path d="M271.44383,189.00299c0.82258,-1.14343 4.33598,-6.8999 6.20711,-7.88115c1.44238,-0.75642 2.27571,2.15827 2.27571,2.15827c0,0 2.33859,0.55872 2.72209,0.83462c1.4457,1.04009 -2.29059,4.57637 -4.2732,7.33223c-0.39652,0.55113 -1.47905,3.81628 -2.81645,5.26409c-0.79587,0.86161 -1.39029,1.76509 -3.12221,1.64047c-1.78377,-0.12838 -0.94494,-2.45135 -0.94494,-2.45135c0,0 -2.71237,1.21389 -3.22564,-1.51639c-0.45184,-2.40356 2.21912,-4.04852 3.17756,-5.38084z" fill="#ffffff" stroke="none" stroke-width="0" stroke-linecap="butt"/></g><path d="M280.59402,191.44995c-3.08771,4.29197 -4.97269,7.69181 -6.05966,6.90988c-0.39621,-0.28501 1.66148,-3.82272 4.74919,-8.11469c3.08771,-4.29197 4.35148,-6.82834 4.74766,-6.54332c1.08697,0.78194 -0.34953,3.45623 -3.43723,7.7482z" fill="#424242" stroke="none" stroke-width="0" stroke-linecap="butt"/></g><path d="M227.1143,177.00145c2.2224,2.97578 1.4186,4.09362 -0.69573,7.44218c-2.02227,3.20035 0.0318,8.77678 -3.06628,10.95015c-7.3187,5.13106 -21.73699,-4.22596 -32.12201,-7.4304c-10.38502,-3.20438 -19.49763,-12.47331 -23.84254,-16.68457c-2.76223,-2.67727 9.40895,-1.26678 8.27802,-3.00972c-0.95341,-1.45451 -9.50829,-2.53297 -9.42536,-4.69815c2.36824,-4.48056 10.73509,0.75631 15.54247,-2.50073c3.46784,-4.00243 24.6046,3.76277 30.51747,4.18464c8.57039,0.61988 12.07527,5.07226 16.81388,11.41328z" data-paper-data="{&quot;index&quot;:null}" fill="#f8f8f8" stroke="none" stroke-width="1" stroke-linecap="round"/><path d="M224.06934,203.42335c3.61558,0.84953 -2.44808,7.83696 -1.91366,11.76096c0.50962,3.75128 5.66882,6.70055 4.69408,10.35726c-2.30458,8.636 -19.36331,10.74318 -29.37668,14.96811c-10.01332,4.22492 -22.95251,2.98744 -28.98801,2.55687c-3.83703,-0.27371 6.39043,-7.02108 4.40352,-7.62845c-1.66551,-0.50067 -8.91014,4.17525 -10.2391,2.46387c-1.06798,-4.95415 8.70702,-6.32469 10.29372,-11.91055c0.08154,-5.29515 21.2614,-12.94209 26.06061,-16.42169c6.96162,-5.03705 17.35879,-7.95465 25.0655,-6.14634z" data-paper-data="{&quot;index&quot;:null}" fill="#f8f8f8" stroke="none" stroke-width="1" stroke-linecap="round"/><g data-paper-data="{&quot;index&quot;:null}" stroke="none" stroke-linecap="round"><path d="M227.31323,177.80565c2.47549,0.16547 3.79865,3.45842 5.89274,5.01583c1.54746,1.15289 3.19611,2.26618 5.00261,3.09323c2.37985,1.08969 5.74444,0.73188 7.44299,2.56802c1.05244,1.13886 0.43005,3.94201 -1.12729,4.08565c-3.36437,0.25862 -6.76404,-1.88369 -10.04246,-3.21616c-1.51505,-0.61756 -3.18945,-1.33663 -4.56391,-2.32046c-1.87142,-1.35173 -4.84768,-2.65937 -5.38766,-4.84197c-0.42864,-1.81847 0.93168,-4.5084 2.78301,-4.38412z" data-paper-data="{&quot;index&quot;:null}" fill="#005613" stroke-width="0.65663"/><path d="M209.95294,169.28377c1.4897,-2.115 3.35474,-3.65266 5.41055,-4.64357c1.79113,-0.75322 1.93052,-1.51477 3.33322,-0.72899c2.5547,1.8912 0.54522,4.10949 1.00301,4.04017c0.45255,-0.06947 -2.56038,-5.02915 1.44328,-6.07789c1.93526,-0.59697 4.32491,4.81144 5.79276,6.96983c0.50039,0.79006 0.87186,2.00644 1.67111,3.14323c0.79925,1.1368 1.5874,1.35548 2.27833,2.47406c0.69091,1.11853 1.77315,3.34349 1.62768,3.84936c-0.67292,1.70377 0.4352,-0.04864 -1.2919,2.48446c-1.7271,2.53309 -2.57652,3.54726 -4.34852,5.4481c-1.772,1.90084 -0.85698,1.91715 -2.13179,2.14856c-0.90651,0.16382 -3.21541,-1.62799 -4.24778,-3.31617c-1.03239,-1.68815 -2.5246,-2.36785 -4.16168,-3.4591c-1.637,-1.09122 -5.55436,-1.47825 -8.03642,-5.07302c-1.41037,-2.03972 -0.11424,-4.73917 1.6581,-7.25896z" fill="#a8c8d8" stroke-width="0.67216"/></g><path d="M256.40312,198.90577c-11.77981,13.29635 -21.91739,27.18581 -37.82622,34.19344c-3.51203,2.716 4.63892,-5.01401 2.32911,-8.61227c-3.02662,-4.70728 -11.89193,-3.16309 -14.86389,-7.85369c-1.63602,-2.25245 7.24074,-4.74181 5.64836,-6.03213c-2.79492,-2.2545 -19.24171,0.52584 -14.62315,-1.16002c18.67673,-6.80152 40.1583,-11.9227 60.61503,-15.60364c5.11324,-0.92111 1.66713,1.74529 -1.2793,5.06828z" data-paper-data="{&quot;index&quot;:null}" fill="#e2a026" stroke="none" stroke-width="1" stroke-linecap="round"/><g data-paper-data="{&quot;index&quot;:null}" stroke="none" stroke-linecap="round"><path d="M262.1571,206.66565c1.23082,1.38847 -0.06487,4.1101 -1.76565,4.88342c-2.0569,0.90805 -4.91204,-0.64649 -7.12614,-1.29995c-1.61909,-0.48546 -3.21228,-1.37013 -4.62757,-2.19087c-3.05959,-1.77831 -6.83397,-3.15707 -8.68749,-5.97674c-0.839,-1.31979 0.9977,-3.52698 2.54241,-3.39113c2.49161,0.22044 4.26678,3.1009 6.58461,4.31691c1.75937,0.92316 3.64857,1.5463 5.50719,2.06516c2.51305,0.70383 5.9274,-0.26389 7.57264,1.59317z" data-paper-data="{&quot;index&quot;:null}" fill="#089c4e" stroke-width="0.65663"/><path d="M279.88187,208.06492c0.47375,2.23243 0.39826,4.64839 -0.36358,7.12069c-0.90913,2.9435 -2.25159,5.62013 -4.72794,5.75222c-4.36205,0.2356 -7.06463,-2.62646 -8.92928,-3.25393c-1.86469,-0.62749 -3.31523,-1.39213 -5.28221,-1.17607c-1.96698,0.21606 -4.79689,-0.51436 -5.22182,-1.33166c-0.59679,-1.15001 -0.02413,-0.43616 0.39557,-3.00073c0.41972,-2.56458 0.70236,-3.85691 1.64967,-6.77271c0.94732,-2.91581 0.23894,-0.96723 1.17509,-2.54178c0.31116,-0.42457 2.73329,-0.92947 4.04078,-1.06717c1.30753,-0.13771 1.96266,0.35195 3.35085,0.28883c1.38819,-0.06311 2.57767,-0.5134 3.50878,-0.60085c2.60535,-0.15916 8.34555,-1.57735 9.05719,0.31878c1.61954,3.80867 -4.14695,4.45927 -3.92505,4.85977c0.22519,0.40455 0.75075,-2.54201 3.80958,-1.67802c1.47964,0.62892 0.96254,1.20506 1.46236,3.08273z" fill="#ffffff" stroke-width="0.67216"/></g><path d="M172.76934,214.10347c-0.60363,-2.47412 14.6512,-9.40753 16.2269,-12.94131c2.27088,-5.17519 4.42146,-13.09249 3.26097,-14.9614c-1.488,-2.39639 -4.61176,-3.00099 -7.16633,-5.55514c-2.55456,-2.55415 -8.28789,-3.68926 -7.45248,-6.56729c0.5214,-1.79631 10.27998,-0.48461 16.92186,0.37013c6.64188,0.85474 11.60697,3.33254 14.35057,3.65429c7.26919,0.86537 16.10995,-3.06056 21.94418,1.35696c4.93016,3.7381 4.19877,12.4644 3.52966,18.79764c-0.82612,7.84214 -0.80176,18.46267 -7.61213,22.44918c-8.33194,4.87717 -19.48327,-0.49154 -29.2067,-0.86799c-2.42885,-0.0951 -3.89219,-0.32795 -5.83301,-0.69743c-1.12932,-0.2034 -18.20406,-1.92487 -18.96353,-5.03764z" fill="#f8b820" stroke="none" stroke-width="1" stroke-linecap="round"/><path d="M258.09274,185.72332c1.73914,3.51369 1.47317,6.30819 0.66045,8.06959c-0.97509,2.04723 -3.68542,2.73332 -5.70408,3.76871c-3.61695,1.85501 -7.43803,3.44285 -11.37812,4.454c-0.98433,0.25284 -1.40829,-0.37316 -1.65327,-0.93817c-1.13375,-2.31338 -2.59897,-4.82207 -2.28633,-7.28864c0.31593,-2.47133 2.31184,-4.45805 3.84324,-6.42275c1.65712,-2.14299 7.06564,-8.63467 9.7852,-8.51047c3.94459,0.18865 4.9938,3.35399 6.73294,6.86768z" data-paper-data="{&quot;index&quot;:null}" fill="#089c4e" stroke="none" stroke-width="0.49091" stroke-linecap="round"/><path d="M245.49493,189.27959c0.80442,-0.40724 1.78664,-0.08526 2.19384,0.71917c0.40724,0.80442 0.08522,1.78665 -0.71921,2.19385c-0.80442,0.40724 -1.78665,0.08522 -2.19389,-0.7192c-0.40719,-0.80439 -0.08521,-1.78661 0.71925,-2.19383z" data-paper-data="{&quot;index&quot;:null}" fill="#ffffff" stroke="none" stroke-width="0" stroke-linecap="butt"/><path d="M240.25144,187.08032l3.75229,-6.49741l-1.30752,7.47806l3.85089,1.37047l-2.77542,5.41419l4.35816,4.63053l-5.28833,0.60306l-0.03234,6.85566c0,0 -2.93304,-7.87958 -3.72223,-11.52085c-0.633,-2.92069 -0.6486,-8.64566 -0.6486,-8.64566l0.66483,-2.77914z" data-paper-data="{&quot;index&quot;:null}" fill="#cf0000" stroke="none" stroke-width="0" stroke-linecap="butt"/><path d="M252.11742,188.00064c-1.48042,-3.08664 -3.74306,-8.20436 -2.66383,-8.54922c1.07919,-0.34485 2.42182,4.61915 3.91246,7.72707c1.49061,3.10793 4.68388,7.60145 3.60469,7.94629c-1.07919,0.34485 -3.3729,-4.0375 -4.85327,-7.12412z" data-paper-data="{&quot;index&quot;:null}" fill="#000000" stroke="#000000" stroke-width="0" stroke-linecap="butt"/><path d="M249.32624,186.71346c0.80442,-0.40724 1.78665,-0.08522 2.19389,0.7192c0.40719,0.80439 0.08521,1.78661 -0.71924,2.19386c-0.80439,0.40719 -1.78657,0.08524 -2.19381,-0.71918c-0.40724,-0.80442 -0.08525,-1.7866 0.71917,-2.19384z" data-paper-data="{&quot;index&quot;:null}" fill="#ffffff" stroke="none" stroke-width="0" stroke-linecap="butt"/><path d="M260.49905,191.09494c0.15153,1.6405 -2.4102,3.57452 -2.4102,3.57452l-7.4057,-15.83986c0,0 -0.81891,-0.84859 2.43922,0.23186c4.71746,1.57613 6.7523,7.66751 7.37672,12.03348z" data-paper-data="{&quot;index&quot;:null}" fill="#f8b820" stroke="none" stroke-width="0.49091" stroke-linecap="round"/><path d="M180.81543,213.61129c-0.05408,-1.64204 6.82309,-5.29132 8.30478,-6.33661c1.82722,-1.18003 3.9754,-3.68339 5.91229,-3.60056c1.12208,0.05089 2.8006,3.78077 3.49488,4.77969c0.87112,1.28224 2.19173,3.06415 1.4723,4.43109c-0.71842,1.35286 -7.06912,1.35214 -8.6914,1.48067c-1.20356,0.18275 -10.19036,0.54873 -10.49288,-0.75429z" fill="#ffffff" stroke="none" stroke-width="0.85185" stroke-linecap="butt"/><path d="M215.60192,226.17127c0.26645,-2.55913 0.75251,-5.2437 2.13338,-7.4223c2.75747,-4.34522 6.87329,-7.68543 10.06127,-11.72956c2.11018,-2.67483 4.98184,-5.07963 5.57438,-8.37513c0.65394,-3.355 -1.69531,-6.67717 -1.85434,-10.10558c-0.3954,-4.27854 -2.03163,-9.85448 0.20529,-12.89406c1.28115,-1.74091 5.31257,1.23728 6.59719,3.32936c2.80885,4.57892 4.79233,10.11607 4.78978,15.59337c0.18352,5.18201 -2.07333,10.23245 -4.26996,15.04608c-1.71665,3.77739 -5.41151,6.24565 -7.21502,10.16271c-1.69092,3.68108 -1.36703,11.94454 -2.80836,11.84501c-1.43728,-0.09948 -1.41722,-10.21952 -4.43173,-12.76637c-1.46077,-1.15579 -3.3216,3.3246 -4.51891,5.36913c-1.77577,2.9341 -2.98001,9.21042 -3.7804,9.6128c-0.80039,0.40238 -0.73432,-5.26736 -0.48252,-7.66548z" fill="#f8f8f8" stroke="none" stroke-width="1" stroke-linecap="round"/><path d="M239.13073,198.19266l3.2472,-7.00638" fill="none" stroke="#cccccc" stroke-width="0.36953" stroke-linecap="round"/><path d="M215.97579,208.40846l14.2,-11.8" fill="none" stroke="#000000" stroke-width="1.5" stroke-linecap="round"/><path d="M217.97579,194.80846l12.9,12.9" fill="none" stroke="#000000" stroke-width="1.5" stroke-linecap="round"/><path d="M229.17579,184.40846l-9.6,-5.2" fill="none" stroke="#000000" stroke-width="1.5" stroke-linecap="round"/><path d="M222.77579,185.80846l3.6,-7.6" fill="none" stroke="#000000" stroke-width="1.5" stroke-linecap="round"/><path d="M231.76627,180.98108c-0.12812,-1.66337 0.0949,-3.19378 0.55798,-4.32665c0.46307,-1.1329 3.38511,2.34969 3.51323,4.01306c0.12812,1.66338 -2.22611,5.55235 -2.85721,4.50376c-0.63108,-1.04859 -1.08587,-2.5268 -1.214,-4.19017z" data-paper-data="{&quot;index&quot;:null}" fill="#101010" stroke="none" stroke-width="1" stroke-linecap="butt"/><g data-paper-data="{&quot;index&quot;:null}" fill="#f8b820" stroke="none" stroke-width="1.22222" stroke-linecap="round"><path d="M208.1752,181.60084l4.25727,-9.08837l10.38312,-3.25193l-7.49584,4.93732l-5.2391,8.51055z"/><path d="M205.67376,181.78712c0,0 -1.60769,-9.18453 -1.24441,-10.18202c0.51787,-1.42196 8.41427,-6.74483 8.41427,-6.74483l-5.32382,8.45287l0.85464,7.9619z"/><path d="M202.64223,184.08123c0,0 -5.09283,-9.10723 -5.36649,-10.41945c-0.45132,-2.16422 3.39938,-13.37685 3.39938,-13.37685c0,0 -0.19297,11.17748 0.44639,14.40847c0.63936,3.23098 3.87371,7.42298 3.87371,7.42298z"/></g><path d="M181.70209,200.67743l3.74702,3.10993l-2.76275,5.76831c0,0 7.28154,-0.48094 6.95787,2.04805c-0.07887,0.616 -1.87064,5.06887 -1.87064,5.06887l4.63157,4.09705l-8.42444,1.99988l-24.22642,2.26012c0,0 13.4782,-11.75067 16.05689,-15.71958c3.13045,-4.81809 5.89093,-8.63265 5.89093,-8.63265z" data-paper-data="{&quot;index&quot;:null}" fill="#23d892" stroke="none" stroke-width="0" stroke-linecap="butt"/><path d="M191.66698,193.58566c1.35496,10.36783 1.69661,6.28241 3.42808,13.48469c1.53791,6.39735 6.55016,10.96876 4.99229,14.55907c-0.73289,1.68904 -4.71267,0.2219 -4.71267,0.2219l-10.45751,0.96178l7.1112,-3.05593l-5.97965,-1.12706l2.79836,-6.89025c0,0 -2.32957,-0.39522 -3.78157,-0.52227c-1.452,-0.12705 -3.73248,-0.13518 -3.73248,-0.13518l3.47022,-7.75062l-5.14893,-0.28114c0,0 2.51418,-3.71877 4.59493,-5.87541c2.06737,-2.14293 7.12566,-5.82374 7.41766,-3.58964z" data-paper-data="{&quot;index&quot;:null}" fill="#fd0000" stroke="none" stroke-width="0" stroke-linecap="butt"/><g data-paper-data="{&quot;index&quot;:null}" stroke-width="0" stroke-linecap="butt"><path d="M159.61874,226.81163c-1.45924,-1.11604 -1.73749,-3.20363 -0.62147,-4.66289c1.11604,-1.45924 3.20366,-1.73746 4.66289,-0.62147c1.45924,1.11604 1.73749,3.20363 0.62145,4.66287c-1.11604,1.45924 -3.20363,1.73749 -4.66286,0.6215z" fill="#db7b04" stroke="none"/><path d="M158.80569,221.85401c0.65094,-0.8511 2.05447,0.40955 3.46585,1.48894c1.41136,1.07938 2.70752,2.29916 2.12349,3.06287c-0.38349,0.50144 -1.52845,-0.91601 -2.93983,-1.99542c-1.41136,-1.07943 -3.03292,-2.05501 -2.64942,-2.55639z" fill="#feeb00" stroke="#000000"/><path d="M161.40964,225.0121c0.27552,0.21071 1.04189,0.39618 0.62048,0.9472c-0.4214,0.55102 -1.69614,1.39259 -1.97164,1.1819c-0.27552,-0.21071 -0.8465,-0.10814 -0.42507,-0.65919c0.4214,-0.55102 1.50074,-1.68061 1.77626,-1.4699z" fill="#000000" stroke="none"/><path d="M159.10724,224.39355c-0.2954,0.38624 -0.58545,0.52218 -0.73034,0.41139c-0.14491,-0.11077 0.13667,-1.08461 0.43209,-1.47088c0.29542,-0.38627 0.42603,0.04865 0.57088,0.15941c0.14489,0.11079 0.02276,0.51378 -0.27267,0.90004z" fill="#000000" stroke="none"/></g></g></g></svg>