<svg version="1.1" xmlns="http://www.w3.org/2000/svg" xmlns:xlink="http://www.w3.org/1999/xlink" width="34.87802" height="35.6199" viewBox="0,0,34.87802,35.6199"><g transform="translate(-227.91016,-164.14049)"><g data-paper-data="{&quot;isPaintingLayer&quot;:true}" fill-rule="nonzero" stroke-miterlimit="10" stroke-dasharray="" stroke-dashoffset="0" style="mix-blend-mode: normal"><path d="M239.03209,181.51513c0,0 -3.22068,2.618 -4.03935,2.52924c-0.88961,-0.09646 -2.24174,-1.23238 -2.24174,-1.23238l2.39892,0.16501l2.5694,-1.68674l1.31277,0.22489z" data-paper-data="{&quot;index&quot;:null}" fill="#f79db4" stroke="none" stroke-width="0" stroke-linecap="butt" stroke-linejoin="miter"/><g data-paper-data="{&quot;index&quot;:null}" stroke-width="0" stroke-linecap="butt" stroke-linejoin="miter"><g data-paper-data="{&quot;index&quot;:null}"><path d="M249.16555,169.78495c-1.05971,-0.12769 -1.81564,-1.08712 -1.68842,-2.14294c0.12722,-1.05582 1.08941,-1.80823 2.14913,-1.68054c1.05971,0.12769 1.81566,1.08712 1.68844,2.14294c-0.12722,1.05582 -1.08943,1.80822 -2.14915,1.68054z" fill="#e0cb17" stroke="none"/><path d="M249.24794,169.69333c-0.6547,-0.07889 -1.12171,-0.67162 -1.04311,-1.32391c0.0786,-0.6523 0.67303,-1.11712 1.32774,-1.03823c0.6547,0.07889 1.12171,0.67162 1.04311,1.32391c-0.0786,0.65229 -0.67303,1.11712 -1.32774,1.03823z" fill="#e0cb17" stroke="#000000"/><path d="M247.99826,175.93494c0,0 -0.94697,-3.27092 -0.44234,-4.572c0.48602,-1.25305 0.66243,-1.43629 0.66243,-1.43629l2.08633,0.26637c0,0 0.64905,1.18342 0.18349,2.16827c-0.46557,0.98484 -2.48991,3.57365 -2.48991,3.57365z" fill="#e8edf4" stroke="#000000"/><path d="M249.20338,170.2871c-0.57965,-0.07246 -1.25451,-0.51 -1.25451,-0.51l0.33891,-0.45261c0,0 0.59383,0.4066 1.04779,0.43536c0.45397,0.02877 1.12633,-0.29762 1.12633,-0.29762l0.13472,0.70259c0,0 -0.88596,0.18569 -1.39327,0.12228z" fill="#dbded5" stroke="#000000"/></g><g data-paper-data="{&quot;index&quot;:null}" stroke="none"><path d="M243.01178,174.08174c-0.04995,0.41458 -0.25238,0.73117 -0.45212,0.7071c-0.19974,-0.02407 -0.32115,-0.37966 -0.27119,-0.79426c0.04995,-0.41459 0.25236,-0.73117 0.4521,-0.7071c0.19975,0.02407 0.32117,0.37967 0.27121,0.79426z" fill="#000000"/><path d="M240.71421,178.35643c0.20806,0.02507 0.72259,2.24996 0.72259,2.24996c0,0 -1.08247,0.20467 -1.29052,0.1796c-0.20805,-0.02507 -0.41309,-1.26601 -0.39111,-1.44843c0.02198,-0.18242 0.75099,-1.00618 0.95905,-0.98111z" fill="#807d5a"/><path d="M242.35214,174.53263l-0.06308,-0.32239l5.53765,-5.27308l0.11251,0.16587z" fill="#6e6e73"/><path d="M247.21387,169.37102l0.29292,0.36024l-1.32814,1.21082l-0.26279,-0.35661z" fill="#ddcb1e"/></g></g><g data-paper-data="{&quot;index&quot;:null}" stroke-width="0" stroke-linecap="butt" stroke-linejoin="miter"><g data-paper-data="{&quot;index&quot;:null}"><path d="M228.22072,166.31446c0.1632,-1.35445 1.39756,-2.31966 2.75699,-2.15586c1.35944,0.16381 2.32918,1.39461 2.16598,2.74905c-0.1632,1.35445 -1.39755,2.31965 -2.75699,2.15585c-1.35943,-0.1638 -2.32919,-1.3946 -2.16598,-2.74904z" fill="#e0cb17" stroke="none"/><path d="M228.97382,167.22587c0.10082,-0.83679 0.86341,-1.43308 1.70327,-1.33189c0.83987,0.1012 1.43896,0.86157 1.33814,1.69836c-0.10082,0.83678 -0.86341,1.4331 -1.70327,1.3319c-0.83987,-0.1012 -1.43897,-0.86158 -1.33814,-1.69837z" fill="#e0cb17" stroke="#000000"/><path d="M227.95348,171.8709c-0.28004,-1.36911 0.88938,-2.64601 0.88938,-2.64601l2.68097,0.30383c0,0 0.16401,0.28209 0.38779,1.99164c0.23236,1.77505 -1.89829,5.17967 -1.89829,5.17967c0,0 -1.77981,-3.46006 -2.05986,-4.82915z" fill="#e8edf4" stroke="#000000"/><path d="M230.18655,169.67772c-0.65148,-0.07557 -1.69889,-0.57693 -1.69889,-0.57693l0.38197,-0.83446c0,0 0.73838,0.61161 1.31284,0.7141c0.57446,0.10249 1.43834,-0.22324 1.43834,-0.22324l0.28439,0.66729c0,0 -0.97427,0.3396 -1.71866,0.25324z" fill="#dbded5" stroke="#000000"/></g><g data-paper-data="{&quot;index&quot;:null}" stroke="none"><path d="M235.75374,177.71862c0.25505,-0.39653 0.84259,-2.80989 2.1196,-2.61694c0.1982,0.02994 1.57819,1.5034 1.68587,2.57059c0.14649,1.45169 -1.01575,2.61001 -1.01575,2.61001l-3.09063,-0.39195c0,0 0.04586,-1.7752 0.3009,-2.17173z" fill="#e4dcaa"/><path d="M237.32566,175.38591c0.25623,0.03087 0.412,0.48705 0.34792,1.01891c-0.06408,0.53185 -0.32377,0.93798 -0.57999,0.9071c-0.25622,-0.03087 -0.41198,-0.48705 -0.3479,-1.0189c0.06408,-0.53186 0.32375,-0.93798 0.57997,-0.90711z" fill="#000000"/><path d="M235.34273,182.07706c-0.04498,-0.85908 0.10837,-2.20144 0.10837,-2.20144c0,0 0.6036,-0.27501 0.9782,-0.33812c0.3746,-0.06311 0.9798,-0.04209 0.9798,-0.04209l1.12849,0.92652c0,0 -0.15251,2.99103 -0.18549,3.37248c-0.06643,0.76821 -1.55273,1.16766 -1.55273,1.16766l-1.11443,-0.62048c0,0 -0.29723,-1.40544 -0.34221,-2.26452z" fill="#dfcc17"/><path d="M236.72005,184.90339c0,0 1.31915,-2.61569 1.58606,-2.58352c0.26691,0.03216 0.92431,1.28083 0.89612,1.51484c-0.0282,0.23402 -0.66185,1.71791 -0.92877,1.68575c-0.26691,-0.03216 -1.55342,-0.61704 -1.55342,-0.61704z" fill="#807d5a"/><path d="M232.12267,168.58744l0.19075,-0.17242l5.29373,8.25834l-0.17684,0.38251z" fill="#6e6e73"/><path d="M234.19226,171.05131l-0.43613,0.3643l-1.28606,-1.91354l0.47479,-0.35964z" fill="#ddcb1e"/></g></g><g data-paper-data="{&quot;index&quot;:null}" stroke="none" stroke-width="0" stroke-linecap="butt" stroke-linejoin="miter"><g><path d="M238.25551,198.51716l1.49379,0.49505c0,0 0.34277,0.91945 -0.74304,0.71981c-1.08581,-0.19964 -1.72135,-0.65599 -2.49325,-1.31483c-0.45821,-0.39109 -1.06086,-1.56789 -1.06086,-1.56789l-0.92646,-0.3286c0,0 -0.55623,-0.51294 -0.51732,-0.93934c0.13834,-1.51618 0.97933,-1.84243 0.97933,-1.84243c0,0 0.39979,1.66094 0.87687,2.35853c0.5886,0.86064 2.39092,2.41969 2.39092,2.41969z" fill="#393939"/><path d="M240.55816,192.65039l0.02031,0.36147l-0.1588,0.39079c0,0 -0.11915,0.89858 -0.12154,1.24816c-0.00293,0.43014 -0.00907,0.8928 0.08623,1.89452c-0.10622,1.06636 -0.90594,2.45334 -0.90594,2.45334c0,0 -0.66723,0.05915 -1.61501,-0.6098c-3.2025,-2.26034 -2.87533,-4.42694 -2.87533,-4.42694c0,0 0.20328,-1.03684 0.49407,-1.52174c0.2908,-0.48491 0.72125,-0.77185 1.02931,-1.01858c0.30806,-0.24674 0.82023,-0.29707 0.82023,-0.29707c0,0 -0.1439,-0.04063 0.08451,-0.28681c0.05214,-0.05619 0.33807,-0.12994 0.33807,-0.12994l-0.13546,-0.1377l0.42082,-0.58663l2.57234,1.60941z" fill="#f01a40"/><path d="M240.90612,188.35715c0.76766,0.43366 1.29038,1.55002 1.18286,1.82844c-0.10753,0.27841 -0.76022,0.52012 -0.76022,0.52012c0,0 -0.12948,0.80097 -0.46973,0.86861c-0.5072,0.10084 -0.84254,0.04091 -1.854,-0.38839c-0.52821,-0.29866 -0.71959,-0.82379 -0.91754,-1.20868c-0.24233,-0.47115 0.19723,-0.38379 0.30748,-0.70431c0.11026,-0.32051 0.03379,0.24099 0.1537,-0.63631c0.08589,-0.62841 1.97951,-0.49298 2.35743,-0.27947z" fill="#ffffff"/><path d="M239.80095,192.41881c-0.01271,0.05835 -0.15059,0.64677 -0.15059,0.64677c0,0 0.29415,2.74069 0.10516,3.53645c-0.23275,0.98009 -0.83785,2.33139 -0.83785,2.33139c0,0 -0.49311,-0.16078 -0.72095,-0.27772c-0.23441,-0.12032 -1.13065,-0.84024 -1.13065,-0.84024c0,0 1.07421,-2.46943 1.19878,-2.90096c0.24513,-1.15312 0.31184,-2.19272 0.31184,-2.19272l0.07168,-0.33784l-0.10149,-0.38735l0.33388,-0.93082l1.34372,0.54629c0,0 -0.356,0.49652 -0.42353,0.80675z" fill="#ffffff"/></g><path d="M239.16376,188.90367c0.1345,-0.3602 0.73903,-0.46717 1.35028,-0.23895c0.61125,0.22823 0.99773,0.70525 0.86323,1.06543c-0.13449,0.36021 -0.73903,0.46718 -1.35028,0.23896c-0.61125,-0.22825 -0.99772,-0.70527 -0.86323,-1.06545z" fill="#afafaf"/></g><g data-paper-data="{&quot;index&quot;:null}" stroke="none" stroke-width="0" stroke-linecap="butt" stroke-linejoin="miter"><path d="M250.03688,182.87747c0.10163,0.08971 0.31047,1.12037 0.33503,1.59395c0.0134,0.25864 0.0415,0.74036 -0.35113,0.92796c-0.10006,0.04781 -0.64005,0.0151 -0.64005,0.0151l-0.19127,0.37337c0,0 -0.22576,0.10713 -0.3764,0.09305c-0.15065,-0.01408 -0.39948,-0.14637 -0.39948,-0.14637c0,0 -0.15169,0.08046 -0.24648,0.15888c-0.30936,0.25594 -0.57378,-0.01211 -0.57378,-0.01211c0,0 -0.20314,0.21137 -0.41176,0.25155c-0.33071,0.06372 -0.7478,-0.04771 -0.94218,-0.17837c-0.33024,-0.22194 -1.07894,-1.04031 -0.94636,-1.38631c0.20651,-0.53889 0.83604,-0.20878 0.83604,-0.20878c0,0 -0.32066,-0.50997 -0.32899,-0.87452c-0.01284,-0.56134 0.20985,-0.84907 0.20985,-0.84907l2.19558,-1.09865c0,0 1.1936,0.77727 1.83143,1.34033z" fill="#ffffff"/><path d="M247.65101,180.0486c0.35008,0.28455 0.88889,1.13704 0.50366,1.55105c-1.40724,1.51243 -2.56589,1.15363 -3.2365,0.49777c-0.43801,-0.42839 -0.5892,-0.86212 0.65945,-1.85108c0.44334,-0.35113 1.72327,-0.48229 2.07337,-0.19774z" fill="#fed000"/><path d="M244.92004,179.31268c0.96975,0.78821 2.01865,1.53939 2.01865,1.53939c0,0 -0.40175,0.35859 -0.67153,0.5135c-0.26978,0.1549 -0.51768,0.1217 -0.51768,0.1217c0,0 -1.21034,-1.11666 -1.60157,-1.43465c-0.64174,-0.52161 -1.48207,-1.14934 -2.45778,-1.84694c-0.24448,-0.17479 -0.29506,-0.40382 -0.12701,-0.66042c0.1129,-0.17239 0.288,-0.28739 0.61894,-0.11016c0.9994,0.53518 2.0597,1.32625 2.73798,1.87757z" fill="#fed5c7"/></g><path d="M241.13024,184.10141l-0.40622,3.72509l-0.29002,2.28639c0,0 -0.37766,-0.04653 -0.5944,-0.19509c-0.21675,-0.14856 -0.51397,-0.45163 -0.51397,-0.45163l0.15582,-2.2405l0.41947,-3.43778z" data-paper-data="{&quot;index&quot;:null}" fill="#f79db4" stroke="none" stroke-width="0" stroke-linecap="butt" stroke-linejoin="miter"/><g data-paper-data="{&quot;index&quot;:null}" stroke="none" stroke-width="0" stroke-linecap="butt" stroke-linejoin="miter"><g><path d="M236.24041,198.03743l1.4938,0.49507c0,0 0.34276,0.91945 -0.74305,0.71981c-1.08581,-0.19965 -1.72135,-0.656 -2.49325,-1.31484c-0.45821,-0.39109 -1.06086,-1.56788 -1.06086,-1.56788l-0.92644,-0.32861c0,0 -0.55625,-0.51294 -0.51734,-0.93934c0.13834,-1.51617 0.97934,-1.84243 0.97934,-1.84243c0,0 0.3998,1.66094 0.87687,2.35853c0.5886,0.86066 2.39093,2.4197 2.39093,2.4197z" fill="#393939"/><path d="M238.54306,192.1707l0.02031,0.36147l-0.1588,0.39079c0,0 -0.11916,0.89859 -0.12154,1.24817c-0.00293,0.43015 -0.00907,0.8928 0.08623,1.89452c-0.10623,1.06637 -0.90594,2.45334 -0.90594,2.45334c0,0 -0.66723,0.05914 -1.61501,-0.60981c-3.20249,-2.26035 -2.87533,-4.42694 -2.87533,-4.42694c0,0 0.20327,-1.03684 0.49406,-1.52174c0.29079,-0.48492 0.72124,-0.77185 1.0293,-1.01858c0.30805,-0.24674 0.82023,-0.29707 0.82023,-0.29707c0,0 -0.14389,-0.04062 0.08452,-0.2868c0.05214,-0.05619 0.33808,-0.12994 0.33808,-0.12994l-0.13547,-0.13771l0.42083,-0.58663l2.57234,1.6094z" fill="#f01a40"/><path d="M238.89103,187.87745c0.76764,0.43365 1.29038,1.55002 1.18286,1.82844c-0.10754,0.2784 -0.76023,0.52012 -0.76023,0.52012c0,0 -0.12947,0.80097 -0.46972,0.86861c-0.5072,0.10085 -0.84255,0.0409 -1.85401,-0.3884c-0.5282,-0.29866 -0.71957,-0.82379 -0.91752,-1.20868c-0.24233,-0.47114 0.19723,-0.38379 0.30748,-0.70431c0.11026,-0.32052 0.03379,0.24099 0.1537,-0.63631c0.0859,-0.62841 1.9795,-0.49299 2.35742,-0.27948z" fill="#ffffff"/><path d="M237.78584,191.93909c-0.0127,0.05833 -0.15059,0.64677 -0.15059,0.64677c0,0 0.29416,2.74068 0.10517,3.53644c-0.23275,0.98009 -0.83785,2.33139 -0.83785,2.33139c0,0 -0.49311,-0.16079 -0.72095,-0.27773c-0.23442,-0.12032 -1.13065,-0.84024 -1.13065,-0.84024c0,0 1.07421,-2.46942 1.19878,-2.90095c0.24513,-1.15313 0.31184,-2.19273 0.31184,-2.19273l0.07168,-0.33783l-0.10148,-0.38735l0.33387,-0.93082l1.34372,0.54629c0,0 -0.356,0.49652 -0.42353,0.80675z" fill="#ffffff"/></g><path d="M237.14867,188.42393c0.13449,-0.3602 0.73903,-0.46718 1.35028,-0.23896c0.61125,0.22825 0.99773,0.70527 0.86324,1.06546c-0.13449,0.3602 -0.73903,0.46717 -1.35028,0.23895c-0.61125,-0.22825 -0.99772,-0.70526 -0.86323,-1.06544z" fill="#afafaf"/></g><path d="M239.15139,176.45889l0.89659,0.48123c0,0 0.00083,0.81514 -0.174,1.12867c-0.1649,0.29571 -0.92296,0.69303 -0.92296,0.69303z" data-paper-data="{&quot;index&quot;:null}" fill="#f25c76" stroke="none" stroke-width="0" stroke-linecap="butt" stroke-linejoin="miter"/><path d="M239.97137,183.89674l-1.0974,3.9925l-0.51289,1.73417c0,0 -0.53067,-0.18834 -0.75154,-0.3505c-0.22087,-0.16216 -0.45466,-0.53501 -0.45466,-0.53501l0.40214,-1.29145l1.08153,-3.61869z" data-paper-data="{&quot;index&quot;:null}" fill="#f79db4" stroke="none" stroke-width="0" stroke-linecap="butt" stroke-linejoin="miter"/><path d="M246.03997,182.2985c0,0 -2.13444,3.86991 -6.68021,3.21487c-4.69341,-0.5902 -5.48423,-4.54566 -5.48423,-4.54566l1.1149,-0.11491c0,0 0.15206,3.08711 4.9016,3.49894c4.11316,0.35664 5.00527,-2.48516 5.00527,-2.48516z" data-paper-data="{&quot;index&quot;:null}" fill="#ffffff" stroke="none" stroke-width="0" stroke-linecap="butt" stroke-linejoin="miter"/><path d="M242.38143,178.22116c0.03077,0.66191 -0.39311,2.18821 -0.39311,2.18821l0.30495,0.19618l0.02805,0.16143l2.67865,1.13356c0,0 -0.46074,1.06416 -1.37044,1.64252c-1.41536,0.89984 -2.57835,1.25496 -4.24767,0.90787c-1.82744,-0.37997 -2.27143,-0.71087 -3.36934,-1.64187c-1.19144,-1.0103 -1.05895,-1.93183 -1.05895,-1.93183l1.44239,-0.2854l0.65953,-0.21079l0.09414,-0.15341l1.52974,-0.53641l0.28965,-1.03139c0,0 0.54853,-0.24505 0.78197,-0.71009c0.18494,-0.3684 0.26423,-1.11638 0.26423,-1.11638l1.22531,-0.2014l0.36023,0.08148c0,0 0.75315,0.91531 0.78069,1.50775z" data-paper-data="{&quot;index&quot;:null}" fill="#f01a40" stroke="none" stroke-width="0" stroke-linecap="butt" stroke-linejoin="miter"/><path d="M238.85281,176.16301c0,0 1.05862,0.31847 1.56174,0.39526c0.5031,0.07678 1.30255,0.0419 1.30255,0.0419c0,0 -0.12342,0.71996 -1.42318,0.54175c-1.3974,-0.19159 -1.44111,-0.97892 -1.44111,-0.97892z" data-paper-data="{&quot;index&quot;:null}" fill="#afafaf" stroke="none" stroke-width="0" stroke-linecap="butt" stroke-linejoin="miter"/><g data-paper-data="{&quot;index&quot;:null}" stroke-linecap="butt" stroke-linejoin="miter"><path d="M261.45468,183.15771l-9.05208,-0.75957c0,0 -1.1332,-2.69738 0.38559,-3.96667c1.4394,-1.20293 2.77643,-1.78212 4.7792,-1.72085c5.21581,0.15954 5.12436,4.83136 5.12436,4.83136z" fill="#fbdd00" stroke="none" stroke-width="0"/><path d="M261.79454,182.74719c0,0 0.01661,-0.64769 -0.15877,-1.31307c-0.11735,-0.44526 -0.45945,-0.89679 -0.40078,-1.10002c0.11798,-0.40876 0.27608,-0.07633 0.63155,0.68511c0.16576,0.35505 0.25788,1.31349 0.25788,1.31349l-0.32989,0.41451z" fill="#a58c48" stroke="#000000" stroke-width="0"/><path d="M259.36659,178.60069c-0.01076,0.18789 -1.03568,-0.24004 -1.93094,-0.29133c-0.89529,-0.05129 -2.37067,0.59347 -2.39873,0.16376c-0.03074,-0.47056 1.48982,-0.67081 2.38623,-0.64636c1.33785,0.0365 1.95421,0.58605 1.94344,0.77394z" fill="#a58c48" stroke="#000000" stroke-width="0"/><path d="M252.40157,181.71541l-0.1795,-0.37169c0,0 0.06663,-0.61239 0.25335,-1.01595c0.16764,-0.3623 0.52445,-0.35918 0.58512,-0.30137c0.17238,0.16429 -0.22785,0.4228 -0.40855,0.82993c-0.19522,0.43987 -0.25042,0.85907 -0.25042,0.85907z" fill="#a58c48" stroke="#000000" stroke-width="0"/><path d="M256.93909,183.82262c3.57145,0.30033 4.39894,2.37055 4.39894,2.37055c0,0 0.06428,-0.21095 0.03085,0.38446c-0.03343,0.59541 -0.06689,0.30596 -0.06689,0.30596c0,0 -1.2755,-1.76753 -3.40553,-2.32345c-3.38977,-0.8847 -5.74024,1.43805 -5.74024,1.43805l0.11544,-0.58347c0,0 2.12215,-1.80615 4.66742,-1.5921z" fill="#edeee6" stroke="none" stroke-width="0"/><path d="M252.2811,181.97854c0,0 2.15193,-2.76694 4.95843,-2.41834c3.55669,0.44178 4.41889,3.31677 4.41889,3.31677l-0.20208,0.27419c0,0 -1.2182,-2.0284 -3.30471,-2.62874c-3.3205,-0.95537 -5.77285,1.84135 -5.77285,1.84135l-0.09769,-0.38522z" fill="#edeee6" stroke="none" stroke-width="0"/><path d="M257.16017,179.97158c3.58688,0.30123 4.37559,3.46206 4.37559,3.46206c0,0 0.06756,0.94232 0.03414,1.53772c-0.03342,0.59542 -0.20545,1.51421 -0.20545,1.51421c0,0 -1.28142,-1.76786 -3.42074,-2.32432c-3.40455,-0.88555 -5.76456,1.43664 -5.76456,1.43664l0.18621,-3.32873c0,0 2.23856,-2.51226 4.79482,-2.29759z" fill="#ff1a07" stroke="none" stroke-width="0"/><path d="M254.84106,180.48983c0,0 1.34149,-0.57889 2.23878,-0.53604c0.89727,0.04284 1.99937,0.85917 1.99937,0.85917l-0.18345,3.20206c0,0 -1.41286,-0.4022 -2.10302,-0.44173c-0.71016,-0.04068 -2.17974,0.19638 -2.17974,0.19638z" fill="#ff1808" stroke="#000000" stroke-width="0"/><path d="M261.33131,186.36321c0,0 -0.26981,-0.58638 -0.52004,-0.90472c-0.25024,-0.31834 -0.75255,-0.71425 -0.75255,-0.71425l0.13081,-2.98422c0,0 0.67333,0.40577 0.96008,0.87576c0.28675,0.47 0.40991,1.14597 0.39819,1.35047c-0.03103,0.54159 -0.2165,2.37694 -0.2165,2.37694z" fill="#ff1808" stroke="#000000" stroke-width="0"/><path d="M252.30152,185.56479c0,0 0.08158,-2.63057 0.22462,-3.21978c0.10472,-0.43136 1.11062,-1.16117 1.11062,-1.16117l-0.18002,3.14203c0,0 -0.33267,0.29692 -0.52697,0.50532c-0.19431,0.2084 -0.62826,0.7336 -0.62826,0.7336z" fill="#ff1808" stroke="#000000" stroke-width="0"/><path d="M255.06782,187.16891c-1.33739,-0.07661 -4.04548,1.51398 -4.04548,1.51398c0,0 -0.1909,-0.7661 0.15708,-1.5823c0.54441,-1.27693 1.95682,-2.85616 5.01642,-2.79851c5.83455,0.1099 6.09861,5.34897 6.09861,5.34897c0,0 -5.88924,-2.4055 -7.22663,-2.48213z" fill="#fbdd00" stroke="none" stroke-width="0"/><path d="M256.76108,185.17774c-0.69632,-0.03988 -2.40656,0.18294 -2.26605,-0.0495c0.20789,-0.3439 1.55882,-0.49514 2.25353,-0.43309c1.2544,0.11202 2.03098,0.64799 2.02464,0.75852c-0.00634,0.11054 -1.11568,-0.22454 -2.01214,-0.27591z" fill="#a58c48" stroke="#000000" stroke-width="0"/><path d="M260.49076,186.31505c-0.09203,-0.42424 1.02171,0.74121 1.02171,0.74121l0.23036,0.53525c0,0 -1.19301,-1.0042 -1.25206,-1.27645z" fill="#a58c48" stroke="#000000" stroke-width="0"/><path d="M252.97509,185.72383c-0.02153,0.37581 -1.69131,1.2945 -1.69131,1.2945l0.38643,-0.73976c0,0 1.3264,-0.93054 1.30487,-0.55473z" fill="#a58c48" stroke="#000000" stroke-width="0"/><path d="M256.75929,192.82654c-3.21911,-0.22458 -5.89513,-1.79927 -5.75735,-4.20396c0.09877,-1.72425 3.11453,-2.83334 5.97344,-2.6294c2.73865,0.19538 5.39199,1.91206 5.29322,3.63631c-0.09879,1.72424 -2.76889,3.36287 -5.50783,3.17178z" fill="#fbdd00" stroke="#000000" stroke-width="0.25"/><path d="M260.93742,191.24616c-0.05953,1.03896 -2.08796,1.76778 -4.53063,1.62783c-2.44267,-0.13995 -4.37461,-1.09564 -4.31508,-2.13461c0.05953,-1.03896 2.08797,-1.76777 4.53064,-1.62782c2.44266,0.13995 4.37459,1.09563 4.31506,2.1346z" fill="#fbdd00" stroke="#000000" stroke-width="0.25"/><path d="M250.08369,185.5361l-4.17113,0.03727l-7.06619,0.03592c0,0 -0.4426,-0.32811 -0.44051,-0.56093c0.00209,-0.23282 0.32042,-0.75688 0.32042,-0.75688l7.01067,-0.44815l4.29063,-0.32818c0,0 -0.15097,0.62737 -0.13966,1.03466c0.0113,0.4073 0.19577,0.9863 0.19577,0.9863z" fill="#fbdd00" stroke="none" stroke-width="0"/><path d="M252.15153,185.78857c0,0 -1.83056,0.023 -1.91434,-0.04746c-0.31805,-0.2675 -0.45338,-1.98867 -0.11921,-2.46883c0.1973,-0.28352 2.72669,-0.45272 2.72669,-0.45272l-0.43715,2.71563z" fill="#c8c8c6" stroke="none" stroke-width="0"/><path d="M262.66318,181.33955c0,0 0.00349,-2.41537 -2.08051,-3.75276c-0.50552,-0.32442 -1.30297,-0.51263 -2.05773,-0.67163c-1.12203,-0.23636 -2.47505,-0.21719 -3.55069,0.21959c-1.32904,0.53967 -2.40744,1.6331 -2.40744,1.6331c0,0 2.15163,-3.09342 5.44611,-2.47343c4.88273,0.91887 4.6503,5.04514 4.6503,5.04514z" fill="#fbdd00" stroke="#000000" stroke-width="0.25"/><path d="M238.84636,185.6093c0,0 -0.4426,-0.32811 -0.44051,-0.56093c0.00209,-0.23282 0.32041,-0.75688 0.32041,-0.75688l3.00779,-0.20741c0,0 0.0961,0.32026 0.10741,0.72755c0.0113,0.40729 -0.06821,0.7876 -0.06821,0.7876z" fill="#a56402" stroke="none" stroke-width="0"/></g><g data-paper-data="{&quot;index&quot;:null}"><path d="M241.59594,170.603c0,0 -0.93396,-0.96035 -1.91669,-0.77002c-1.58843,0.30767 -1.47976,2.3607 -1.47976,2.3607c0,0 -0.22716,-1.38081 0.55159,-2.06999c0.51409,-0.45497 0.84865,-0.61399 1.53892,-0.44913c0.77348,0.18474 1.30592,0.92841 1.30592,0.92841z" fill="#000000" stroke="none" stroke-width="0" stroke-linecap="butt" stroke-linejoin="miter"/><path d="M241.10321,165.58835c3.31421,0.39935 5.72171,3.04018 5.37729,5.89845c-0.34441,2.85828 -3.3103,4.85163 -6.62451,4.45228c-3.3142,-0.39935 -5.7217,-3.04017 -5.37729,-5.89844c0.34441,-2.85828 3.3103,-4.85165 6.6245,-4.4523z" fill="#f79eb4" stroke="none" stroke-width="0" stroke-linecap="butt" stroke-linejoin="miter"/><path d="M246.07335,173.19605c0.00815,-0.01525 -0.08909,1.04121 -0.99948,2.28518c-1.46156,2.00891 -2.93763,1.88917 -2.93763,1.88917l0.38959,-0.87081c0,0 1.74726,-1.5262 2.22856,-2.12033c0.48129,-0.59413 0.81714,-1.73014 0.81687,-1.72946" fill="#f79eb4" stroke="#f89db5" stroke-width="0" stroke-linecap="butt" stroke-linejoin="round"/><g fill="#ffd5c5" stroke="none" stroke-width="1" stroke-linecap="round" stroke-linejoin="round"><path d="M244.36886,174.91751c0.05288,0.54489 -0.4562,0.94734 -0.88572,1.20565c-0.07027,0.04224 -0.62071,0.37093 -1.48167,0.54828c-1.08029,0.22251 -2.42733,-0.1393 -2.81544,-0.23324c-0.46284,-0.11208 -1.23535,-0.73704 -1.35053,-0.89542c-0.82894,-1.13995 -0.05595,-1.54956 0.05401,-1.61536c0.05245,-0.03136 0.33315,-0.09928 0.63618,0.04634c0.29536,0.14194 1.08161,0.70924 1.37303,0.73182c0.31312,0.02426 2.11638,-0.35296 3.01702,-0.24325c0.18694,0.02477 0.42584,0.11701 0.56222,0.25295c0.17748,0.17697 0.43544,0.50601 0.72973,0.28404c0.04762,-0.03596 0.15537,-0.14122 0.16116,-0.08182z"/><path d=""/></g><g fill="#000000" stroke="#000000" stroke-width="0.125" stroke-linecap="butt" stroke-linejoin="round"><path d="M245.50151,173.32229c0.06446,-0.01323 0.35492,0.05246 0.80447,0.0026c0.28422,-0.04209 0.56825,-0.0868 0.84694,-0.15623c0.16685,-0.04161 0.32486,-0.12861 0.49218,-0.16296c0.00569,-0.00118 -0.36706,0.17095 -0.47836,0.2087c-0.34887,0.11832 -0.65977,0.19069 -1.0228,0.24958c-0.07971,0.01295 -0.72188,0.04302 -0.71545,0.01906"/><path d="M245.69568,172.80538c0.02235,0.02834 0.34983,0.08029 0.7866,-0.0553c0.43675,-0.13559 1.05433,-0.42587 1.07697,-0.46019c0.00853,-0.01295 -0.69107,0.43274 -1.00342,0.55597c-0.31235,0.12323 -0.94309,0.18757 -0.93712,0.16522"/></g><g fill="#000000" stroke="none" stroke-width="1" stroke-linecap="round" stroke-linejoin="round"><path d="M242.71706,174.73167c0.16109,-0.08942 0.67933,0.03197 0.76191,0.1093c0.14286,0.13378 -0.26238,0.33349 -0.37066,0.31305c-0.23312,-0.06389 -0.60319,-0.30468 -0.39125,-0.42235z"/><path d=""/></g><path d="M238.11252,171.45838c0.02666,-0.05019 -0.32584,1.87016 -0.40958,2.74689c-0.15767,1.65103 0.09953,2.71778 0.09953,2.71778c0,0 -0.32713,-0.27552 -0.40366,-0.35677c-0.23647,-0.25095 -0.44228,-0.49614 -0.63416,-0.78616c-0.45129,-0.68219 -0.71711,-1.46644 -0.84336,-2.27181c-0.08414,-0.53673 0.03085,-2.82878 0.05517,-2.8397" fill="#f79eb4" stroke="#f89db5" stroke-width="0" stroke-linecap="butt" stroke-linejoin="round"/><path d="M235.88624,170.62603c-0.01629,0.01279 -0.05853,2.82879 -0.00621,3.61892c0.05231,0.79013 0.37786,1.99353 0.37786,1.99353c0,0 -0.40073,-0.1122 -0.88317,-0.80592c-0.42598,-0.61257 -0.66938,-0.92628 -0.82656,-1.99997c-0.20396,-1.39324 -0.08264,-3.25848 0.13878,-3.59385" fill="#f79eb4" stroke="#f89db5" stroke-width="0" stroke-linecap="butt" stroke-linejoin="round"/><g fill="#ee1a40" stroke="none" stroke-width="1" stroke-linecap="round" stroke-linejoin="round"><path d="M244.54682,168.5158c-0.07928,-0.06588 -2.10405,-1.7108 -3.71057,-1.62722c-1.26621,0.06587 -1.9827,0.50154 -3.2195,1.2514c-0.95383,0.57827 -1.6808,2.07129 -1.71552,2.07612c-0.00248,0.00035 0.82223,-4.03369 4.26375,-4.22834c2.78057,-0.12602 4.76029,1.91509 4.83757,2.04325"/><path d=""/></g><path d="M244.68446,169.69039c-0.02474,0.01557 0.74169,-0.83476 2.45911,-0.1891c0.30584,0.11686 1.41187,-0.0409 1.58561,0.73185c0.23903,0.71255 1.27565,1.67321 1.25979,1.66964c-0.02276,-0.0052 -1.52615,-0.69068 -2.51079,-1.20759c-0.53762,-0.28224 -2.69928,0.13543 -2.73184,0.15593" fill="#f79eb4" stroke="#f89db5" stroke-width="0" stroke-linecap="butt" stroke-linejoin="round"/><path d="M243.84433,169.57893c0.01896,-0.0814 0.98382,-1.43147 1.29311,-1.64923c0.30929,-0.21776 0.54363,-0.35596 1.14759,-0.31486c2.0314,0.33736 4.07012,0.51261 4.07012,0.51261c0,0 -1.78609,0.50532 -2.54583,0.55567c-1.05405,0.06987 -2.99773,0.89253 -3.11091,0.96296" fill="#f79eb4" stroke="#f89db5" stroke-width="0" stroke-linecap="butt" stroke-linejoin="round"/><g stroke="none" stroke-width="1" stroke-linecap="round" stroke-linejoin="round"><g fill="#f79eb4"><path d="M237.32069,168.61455c0.02058,-0.35894 -0.06979,-0.99345 0.00851,-1.66522c0.07831,-0.67178 0.23953,-1.52614 0.38192,-1.6846c0.18616,-0.20717 0.92138,0.1037 1.65403,0.56477c0.73265,0.46109 1.60127,1.34376 1.62712,1.50014"/></g><g fill="#ffd5c5"><path d="M237.9354,168.25603c-0.0003,-0.08551 -0.0683,-0.48983 -0.02313,-0.98829c0.04516,-0.49847 0.20402,-1.23862 0.227,-1.26176c0.09319,-0.09384 0.90927,0.29128 1.3049,0.54921c0.39564,0.25793 0.77137,0.68513 0.85116,0.85644"/></g></g><g fill="#f79eb4" stroke="none" stroke-width="1" stroke-linecap="round" stroke-linejoin="round"><path d="M244.50447,167.21249c0.30344,-0.05247 0.62255,-0.08422 1.28747,-0.04967c0.66491,0.03455 1.49306,0.06723 1.68735,0.20422c0.03979,0.02807 0.07873,0.68182 -0.06702,1.17006c-0.22749,0.7621 -0.7842,1.52967 -0.79419,1.54139"/><path d=""/></g><path d="M242.60388,172.87186c0.33817,0.65177 0.53637,0.66565 0.72934,0.70659c0.33105,0.07024 0.74491,-0.1836 1.07061,-0.51276c0.46565,-0.47058 0.95727,-1.34938 1.40366,-1.29949c0.06765,0.00755 0.01308,0.84885 -0.20995,1.40248c-0.473,1.1741 -1.39641,1.93033 -1.5426,1.9181c-0.58408,-0.04889 -0.34884,-0.55777 -1.53482,-0.63927c-0.67549,-0.04642 -2.29165,0.5004 -2.91676,0.22999c-1.19173,-0.73777 -1.38532,-1.84153 -1.39389,-2.56062c-0.02576,-2.16088 1.34262,-2.5846 1.77787,-2.48084c2.00372,0.47765 2.08605,2.2134 2.61653,3.23582z" fill="#ffffff" stroke="none" stroke-width="0" stroke-linecap="butt" stroke-linejoin="miter"/><path d="M244.67866,170.88507c-0.03681,-0.0344 0.92631,-0.29523 1.72033,0.30255c0.2281,0.17174 1.04107,1.24039 1.00616,1.38733c-0.04795,0.60856 0.7781,1.69692 0.77982,1.69597c0.03756,-0.02041 -1.31287,-0.97838 -1.86212,-1.90623c-0.18653,-0.31096 -1.64479,-0.45673 -1.74894,-0.55417" fill="#f79eb4" stroke="#f89db5" stroke-width="0" stroke-linecap="butt" stroke-linejoin="round"/><g fill="#000000" stroke="#000000" stroke-width="0.125" stroke-linecap="butt" stroke-linejoin="round"><path d="M238.64208,170.35649c-0.02856,0.03284 -0.18224,0.02731 -0.36135,-0.0791c-1.14994,-0.68312 -1.25906,-1.08075 -1.25906,-1.08075c0,0 0.35218,0.56261 1.18613,0.89593c0.1624,0.06491 0.38371,0.11314 0.43255,0.11638c0.0466,0.0031 0.09095,-0.02706 0.1378,-0.00317"/><path d="M238.27805,171.11188c0,0 -0.04139,0.03835 -0.17685,0.06533c-0.25121,0.05003 -0.86632,-0.02778 -1.14637,-0.10463c-0.66778,-0.18328 -1.02132,-0.45586 -1.02132,-0.45586c0,0 0.74235,0.31391 0.98203,0.38274c0.72379,0.20353 1.24389,-0.02194 1.31507,-0.06194c0.03137,-0.01762 0.09882,-0.06888 0.13274,-0.06866"/></g><g stroke="none" stroke-linecap="butt" stroke-linejoin="miter"><path d="M241.31412,171.8632c0.22919,0.04274 0.30791,0.65167 0.17581,1.36008c-0.13209,0.7084 -0.42499,1.24803 -0.65416,1.2053c-0.22919,-0.04274 -0.3079,-0.65166 -0.1758,-1.36007c0.13208,-0.70841 0.42498,-1.24804 0.65415,-1.20531z" fill="#169c5b" stroke-width="NaN"/><path d="M241.15159,172.76979c0.10071,0.01877 0.13761,0.27386 0.08244,0.56975c-0.05516,0.2959 -0.18153,0.52055 -0.28224,0.50177c-0.10071,-0.01877 -0.13761,-0.27386 -0.08244,-0.56975c0.05516,-0.2959 0.18153,-0.52055 0.28224,-0.50177z" fill="#000000" stroke-width="0"/><path d="M241.07024,172.61284c0.05583,-0.29936 0.1996,-0.52367 0.32115,-0.50101c0.12154,0.02266 0.17481,0.28371 0.119,0.58308c-0.05583,0.29937 -0.1996,0.52367 -0.32115,0.50101c-0.12154,-0.02266 -0.17481,-0.2837 -0.119,-0.58307z" fill="#ffffff" stroke-width="0"/></g><g stroke="none" stroke-linecap="butt" stroke-linejoin="miter"><path d="M243.99388,173.96148c0.09317,-0.49968 0.29974,-0.88029 0.4614,-0.85014c0.16165,0.03013 0.21716,0.45963 0.12401,0.95931c-0.09318,0.49967 -0.29975,0.8803 -0.46141,0.85015c-0.16165,-0.03013 -0.21715,-0.45963 -0.124,-0.95931z" fill="#169c5b" stroke-width="NaN"/><path d="M244.14157,174.1047c0.03891,-0.20871 0.12803,-0.36715 0.19906,-0.35389c0.07104,0.01324 0.09709,0.19316 0.05816,0.40186c-0.03892,0.20871 -0.12804,0.36716 -0.19907,0.3539c-0.07104,-0.01325 -0.09708,-0.19317 -0.05816,-0.40187z" fill="#000000" stroke-width="0"/><path d="M244.50978,173.28669c0.08573,0.01599 0.12329,0.20011 0.08393,0.41128c-0.03939,0.21114 -0.14079,0.36936 -0.22652,0.35337c-0.08572,-0.01599 -0.12329,-0.20009 -0.08393,-0.41126c0.03939,-0.21114 0.14078,-0.36938 0.22651,-0.35339z" fill="#ffffff" stroke-width="0"/></g></g><g data-paper-data="{&quot;index&quot;:null}" stroke="none" stroke-width="0" stroke-linecap="butt" stroke-linejoin="miter"><path d="M242.41161,183.34619c0,0 1.0072,1.09236 1.50749,1.82543c0.0797,0.1168 0.0262,1.2125 -0.07057,1.69758c-0.05285,0.26495 -0.14814,0.75921 -0.59328,0.84808c-0.11349,0.02266 -0.65101,-0.14907 -0.65101,-0.14907l-0.28926,0.32837c0,0 -0.25574,0.05035 -0.40445,-0.00256c-0.1487,-0.05292 -0.36632,-0.25057 -0.36632,-0.25057c0,0 -0.17403,0.04241 -0.28999,0.09734c-0.37851,0.17933 -0.577,-0.15959 -0.577,-0.15959c0,0 -0.25969,0.16152 -0.48092,0.1486c-0.35072,-0.0205 -0.74379,-0.24025 -0.90679,-0.42229c-0.27689,-0.30919 -0.82375,-1.32887 -0.60085,-1.64465c0.34717,-0.49182 0.89891,0.0036 0.89891,0.0036c0,0 -0.19325,-0.59796 -0.10807,-0.96868c0.13116,-0.57085 0.43019,-0.80457 0.43019,-0.80457l2.50196,-0.54701z" fill="#ffffff"/><path d="M240.45105,181.68193c0.52409,-0.27083 1.86073,-0.14923 2.16228,0.2121c0.30154,0.36133 0.68272,1.34183 0.20554,1.68869c-1.74314,1.26708 -2.85765,0.66809 -3.41308,-0.13747c-0.36279,-0.52615 -0.43086,-1.00044 1.04526,-1.76331z" fill="#fed000"/><path d="M240.70264,182.02056c0.5258,-0.14233 1.00825,-0.05004 1.07758,0.20613c0.06933,0.25616 -0.30068,0.57919 -0.82649,0.72151c-0.5258,0.14233 -1.00826,0.05005 -1.07759,-0.20612c-0.06933,-0.25617 0.3007,-0.57921 0.8265,-0.72153z" fill="#c28830"/><path d="M240.73303,180.27032c0.35733,1.25368 0.82615,2.43493 0.82615,2.43493c0,0 -0.42734,0.336 -0.75056,0.30702c-0.32322,-0.02897 -0.42935,0.00376 -0.42935,0.00376c0,0 -0.54403,-2.06207 -0.68818,-2.56784c-0.23647,-0.82962 -0.52594,-1.80094 -0.94257,-2.98073c-0.1044,-0.29563 -0.01064,-0.5216 0.28647,-0.64039c0.19961,-0.07979 0.41802,-0.07334 0.59486,0.27605c0.53403,1.05517 0.85327,2.29031 1.10319,3.16719z" fill="#fed5c7"/></g><path d="M238.51154,175.45951c0,0 0.15449,-0.05237 0.46863,-0.00653c0.31414,0.04584 0.79342,0.1586 0.79342,0.1586" data-paper-data="{&quot;index&quot;:null}" fill="none" stroke="#000000" stroke-width="0.125" stroke-linecap="round" stroke-linejoin="miter"/></g></g></svg>