<svg version="1.1" xmlns="http://www.w3.org/2000/svg" xmlns:xlink="http://www.w3.org/1999/xlink" width="32.81306" height="34.73238" viewBox="0,0,32.81306,34.73238"><g transform="translate(-226.4081,-165.50483)"><g data-paper-data="{&quot;isPaintingLayer&quot;:true}" fill-rule="nonzero" stroke-miterlimit="10" stroke-dasharray="" stroke-dashoffset="0" style="mix-blend-mode: normal"><g data-paper-data="{&quot;index&quot;:null}" stroke="none" stroke-width="0" stroke-linecap="butt" stroke-linejoin="miter"><g><path d="M240.33862,199.14069l1.54924,0.27633c0,0 0.47074,0.86098 -0.63245,0.81868c-1.10319,-0.0423 -1.79746,-0.40306 -2.65566,-0.94474c-0.50944,-0.32154 -1.27419,-1.40005 -1.27419,-1.40005l-0.96392,-0.19273c0,0 -0.62387,-0.42812 -0.64634,-0.8557c-0.07991,-1.52037 0.70577,-1.96354 0.70577,-1.96354c0,0 0.63322,1.5867 1.20516,2.20888c0.70563,0.76762 2.7124,2.05288 2.7124,2.05288z" fill="#393939"/><path d="M241.77857,193.00492l0.07179,0.35485l-0.10128,0.40948c0,0 0.01059,0.90639 0.05822,1.25272c0.05861,0.42613 0.11871,0.88491 0.35629,1.86271c0.04738,1.07059 -0.54576,2.55769 -0.54576,2.55769c0,0 -0.65191,0.15396 -1.68562,-0.37256c-3.49284,-1.77909 -3.4789,-3.97022 -3.4789,-3.97022c0,0 0.0529,-1.05525 0.27136,-1.57676c0.21846,-0.52152 0.60344,-0.86707 0.87305,-1.15532c0.2696,-0.28826 0.76931,-0.41132 0.76931,-0.41132c0,0 -0.14823,-0.01963 0.04262,-0.29595c0.04357,-0.06307 0.31601,-0.17695 0.31601,-0.17695l-0.15376,-0.11691l0.3326,-0.64078l2.77607,1.22498z" fill="#f01a40"/><path d="M242.94115,190.34653c-0.0666,0.29093 -0.67802,0.6235 -0.67802,0.6235c0,0 -0.0136,0.81124 -0.34067,0.92686c-0.48756,0.17234 -0.82802,0.16099 -1.89049,-0.11924c-0.56549,-0.22005 -0.83,-0.71241 -1.08097,-1.06504c-0.30721,-0.43165 0.14032,-0.40805 0.2036,-0.74105c0.06328,-0.33298 0.0679,0.23368 0.06112,-0.65175c-0.00486,-0.63424 1.88866,-0.77101 2.29323,-0.61375c0.82179,0.31941 1.4988,1.34954 1.4322,1.64047z" fill="#ffffff"/><path d="M240.99603,192.88402c-0.00423,0.05958 -0.05655,0.66166 -0.05655,0.66166c0,0 0.68308,2.67045 0.60985,3.48505c-0.09019,1.00331 -0.49581,2.42725 -0.49581,2.42725c0,0 -0.51103,-0.0886 -0.75326,-0.17176c-0.24921,-0.08556 -1.2392,-0.6699 -1.2392,-0.6699c0,0 0.71,-2.59767 0.77157,-3.04259c0.07769,-1.17632 -0.00497,-2.21478 -0.00497,-2.21478l0.02263,-0.34462l-0.15584,-0.36886l0.19733,-0.969l1.40803,0.3485c0,0 -0.28133,0.54233 -0.3038,0.85904z" fill="#ffffff"/></g><path d="M239.86267,189.49614c0.08161,-0.37573 0.66463,-0.56807 1.30223,-0.4296c0.6376,0.13846 1.08833,0.5553 1.00673,0.93103c-0.0816,0.37574 -0.66463,0.56808 -1.30223,0.42961c-0.6376,-0.13848 -1.08833,-0.55532 -1.00673,-0.93105z" fill="#afafaf"/></g><g data-paper-data="{&quot;index&quot;:null}" stroke="none" stroke-width="0" stroke-linecap="butt" stroke-linejoin="miter"><path d="M248.26195,184.05017c0.09622,0.09548 0.24464,1.13657 0.24155,1.61076c-0.0017,0.25898 -0.00172,0.74152 -0.40462,0.90593c-0.10269,0.0419 -0.63984,-0.02223 -0.63984,-0.02223l-0.21271,0.36159c0,0 -0.23161,0.09379 -0.38118,0.07095c-0.14957,-0.02284 -0.39027,-0.16939 -0.39027,-0.16939c0,0 -0.15613,0.07148 -0.25533,0.14424c-0.32375,0.23748 -0.5721,-0.04553 -0.5721,-0.04553c0,0 -0.21513,0.19916 -0.42573,0.22713c-0.33386,0.04434 -0.74374,-0.09121 -0.93019,-0.23298c-0.31674,-0.24081 -1.01649,-1.10142 -0.86396,-1.43911c0.23757,-0.52595 0.84679,-0.15971 0.84679,-0.15971c0,0 -0.29039,-0.5278 -0.27747,-0.89222c0.0199,-0.56113 0.25898,-0.83539 0.25898,-0.83539l2.25588,-0.96882c0,0 1.14626,0.84551 1.75019,1.44479z" fill="#ffffff"/><path d="M246.04496,181.08705c0.33291,0.30447 0.82111,1.18691 0.41241,1.57777c-1.493,1.42783 -2.62877,1.00211 -3.26001,0.30828c-0.41229,-0.45318 -0.53795,-0.895 0.76622,-1.8095c0.46305,-0.32469 1.74845,-0.38103 2.08138,-0.07656z" fill="#fed000"/><path d="M243.36154,180.1932c0.92217,0.84339 1.9255,1.65443 1.9255,1.65443c0,0 -0.42197,0.33456 -0.70032,0.47348c-0.27835,0.13892 -0.52389,0.09133 -0.52389,0.09133c0,0 -1.14321,-1.18531 -1.51524,-1.52555c-0.61025,-0.55811 -1.41256,-1.23377 -2.34596,-1.98704c-0.23388,-0.18874 -0.27102,-0.42032 -0.0883,-0.66669c0.12276,-0.16552 0.30426,-0.27012 0.6243,-0.07391c0.96651,0.59253 1.97891,1.44405 2.6239,2.03396z" fill="#fed5c7"/></g><g data-paper-data="{&quot;index&quot;:null}" stroke-width="0" stroke-linecap="butt" stroke-linejoin="miter"><g data-paper-data="{&quot;index&quot;:null}"><path d="M247.61769,169.35597c-1.06737,0 -1.93265,-0.86211 -1.93265,-1.92557c0,-1.06346 0.86527,-1.92557 1.93265,-1.92557c1.06737,0 1.93267,0.86211 1.93267,1.92557c0,1.06346 -0.86529,1.92557 -1.93267,1.92557z" fill="#e0cb17" stroke="none"/><path d="M247.68853,169.25516c-0.65944,0 -1.194,-0.53261 -1.194,-1.18962c0,-0.65702 0.53456,-1.18962 1.194,-1.18962c0.65944,0 1.194,0.53261 1.194,1.18962c0,0.65701 -0.53456,1.18962 -1.194,1.18962z" fill="#e0cb17" stroke="#000000"/><path d="M247.19451,175.60144c0,0 -1.33147,-3.13414 -0.98611,-4.48625c0.33262,-1.3022 0.48585,-1.50522 0.48585,-1.50522l2.10321,0.01487c0,0 0.78596,1.09728 0.44156,2.13075c-0.34441,1.03347 -2.04451,3.84585 -2.04451,3.84585z" fill="#e8edf4" stroke="#000000"/><path d="M247.71532,169.84999c-0.58416,-0.0026 -1.30651,-0.35626 -1.30651,-0.35626l0.28233,-0.4899c0,0 0.63821,0.33264 1.09235,0.30689c0.45415,-0.02575 1.08264,-0.43022 1.08264,-0.43022l0.21781,0.68142c0,0 -0.85738,0.29035 -1.36863,0.28808z" fill="#dbded5" stroke="#000000"/></g><g data-paper-data="{&quot;index&quot;:null}" stroke="none"><path d="M242.02214,174.35808c0,0.41758 -0.1631,0.75611 -0.36428,0.75611c-0.20118,0 -0.36426,-0.33852 -0.36426,-0.75611c0,-0.41759 0.16308,-0.75611 0.36426,-0.75611c0.20119,0 0.36428,0.33852 0.36428,0.75611z" fill="#000000"/><path d="M240.25245,178.87692c0.20956,0 0.98657,2.14736 0.98657,2.14736c0,0 -1.05021,0.33269 -1.25977,0.33269c-0.20955,0 -0.56158,-1.2075 -0.56158,-1.39124c0,-0.18374 0.62523,-1.0888 0.83479,-1.0888z" fill="#807d5a"/><path d="M241.42118,174.88465l-0.1012,-0.31253l4.86707,-5.89768l0.13154,0.15122z" fill="#6e6e73"/><path d="M245.63051,169.1785l0.33391,0.32261l-1.17375,1.36101l-0.30356,-0.32261z" fill="#ddcb1e"/></g></g><g data-paper-data="{&quot;index&quot;:null}" stroke-width="0" stroke-linecap="butt" stroke-linejoin="miter"><g data-paper-data="{&quot;index&quot;:null}"><path d="M226.4081,168.41603c0,-1.36425 1.11002,-2.47019 2.47929,-2.47019c1.36928,0 2.47929,1.10595 2.47929,2.47019c0,1.36425 -1.11002,2.47018 -2.47929,2.47018c-1.36927,0 -2.47929,-1.10594 -2.47929,-2.47018z" fill="#e0cb17" stroke="none"/><path d="M227.26482,169.2308c0,-0.84284 0.68578,-1.52608 1.53171,-1.52608c0.84594,0 1.5317,0.68324 1.5317,1.52608c0,0.84283 -0.68577,1.52609 -1.5317,1.52609c-0.84594,0 -1.53171,-0.68325 -1.53171,-1.52609z" fill="#e0cb17" stroke="#000000"/><path d="M226.8075,173.96453c-0.44181,-1.32577 0.56646,-2.7334 0.56646,-2.7334l2.69807,-0.01907c0,0 0.19657,0.26044 0.62326,1.93095c0.44304,1.73451 -1.26501,5.36956 -1.26501,5.36956c0,0 -2.18096,-3.22229 -2.62278,-4.54805z" fill="#e8edf4" stroke="#000000"/><path d="M228.76216,171.51996c-0.65585,0.00291 -1.75571,-0.36955 -1.75571,-0.36955l0.27941,-0.87416c0,0 0.80625,0.51889 1.38884,0.55192c0.5826,0.03303 1.40131,-0.39371 1.40131,-0.39371l0.36218,0.62847c0,0 -0.92665,0.45371 -1.67602,0.45702z" fill="#dbded5" stroke="#000000"/></g><g data-paper-data="{&quot;index&quot;:null}" stroke="none"><path d="M235.2513,178.83712c0.20578,-0.4242 0.50039,-2.89051 1.79131,-2.85171c0.20036,0.00602 1.7467,1.3038 1.98128,2.35045c0.3191,1.42374 -0.69622,2.71278 -0.69622,2.71278l-3.11533,-0.0194c0,0 -0.16684,-1.76794 0.03894,-2.19213z" fill="#e4dcaa"/><path d="M236.53286,176.33311c0.25809,0 0.46731,0.43427 0.46731,0.96997c0,0.5357 -0.20923,0.96997 -0.46731,0.96997c-0.25808,0 -0.46729,-0.43427 -0.46729,-0.96997c0,-0.53571 0.20921,-0.96997 0.46729,-0.96997z" fill="#000000"/><path d="M235.36464,183.21343c-0.14743,-0.84753 -0.15577,-2.1986 -0.15577,-2.1986c0,0 0.56637,-0.34524 0.93073,-0.45271c0.36436,-0.10747 0.96773,-0.159 0.96773,-0.159l1.23122,0.78486c0,0 0.2064,2.9878 0.21929,3.37045c0.02595,0.77064 -1.4019,1.34502 -1.4019,1.34502l-1.18066,-0.48271c0,0 -0.46323,-1.35979 -0.61066,-2.20732z" fill="#dfcc17"/><path d="M237.07018,185.8547c0,0 0.99676,-2.75471 1.2656,-2.75471c0.26884,0 1.0709,1.16105 1.0709,1.39676c0,0.23571 -0.45159,1.78475 -0.72043,1.78475c-0.26884,0 -1.61608,-0.42678 -1.61608,-0.42678z" fill="#807d5a"/><path d="M230.55394,170.2059l0.16875,-0.194l6.24365,7.56575l-0.12981,0.40092z" fill="#6e6e73"/><path d="M232.90342,172.40449l-0.38942,0.41386l-1.50574,-1.74595l0.42836,-0.41385z" fill="#ddcb1e"/></g></g><path d="M238.96026,182.27c0,0 -2.88436,2.70534 -3.70777,2.71515c-0.89476,0.01065 -2.54056,-1.2345 -2.54056,-1.2345l2.56892,0.43515l2.34916,-1.98201l1.33025,0.06623z" data-paper-data="{&quot;index&quot;:null}" fill="#f79db4" stroke="none" stroke-width="0" stroke-linecap="butt" stroke-linejoin="miter"/><path d="M241.35558,184.53088l0.04232,3.74693l-0.01442,2.30467c0,0 -0.38051,-0.00101 -0.61347,-0.12258c-0.23297,-0.12157 -0.56431,-0.3869 -0.56431,-0.3869l-0.11333,-2.24305l0.0052,-3.46327z" data-paper-data="{&quot;index&quot;:null}" fill="#f79db4" stroke="none" stroke-width="0" stroke-linecap="butt" stroke-linejoin="miter"/><path d="M238.47384,177.17997l0.94772,0.37052c0,0 0.09834,0.80919 -0.03773,1.14138c-0.12834,0.31332 -0.83343,0.79847 -0.83343,0.79847z" data-paper-data="{&quot;index&quot;:null}" fill="#f25c76" stroke="none" stroke-width="0" stroke-linecap="butt" stroke-linejoin="miter"/><g data-paper-data="{&quot;index&quot;:null}" stroke="none" stroke-width="0" stroke-linecap="butt" stroke-linejoin="miter"><g><path d="M238.27562,198.95409l1.54925,0.27634c0,0 0.47073,0.86098 -0.63246,0.81868c-1.10319,-0.04231 -1.79746,-0.40307 -2.65566,-0.94475c-0.50944,-0.32154 -1.27419,-1.40004 -1.27419,-1.40004l-0.96391,-0.19274c0,0 -0.62389,-0.42812 -0.64636,-0.8557c-0.07991,-1.52036 0.70578,-1.96354 0.70578,-1.96354c0,0 0.63323,1.5867 1.20516,2.20888c0.70563,0.76764 2.71241,2.05289 2.71241,2.05289z" fill="#393939"/><path d="M239.71559,192.81834l0.07179,0.35485l-0.10128,0.40948c0,0 0.01059,0.9064 0.05822,1.25273c0.05861,0.42614 0.11871,0.88491 0.35629,1.86271c0.04737,1.07061 -0.54576,2.55769 -0.54576,2.55769c0,0 -0.65191,0.15395 -1.68562,-0.37257c-3.49284,-1.7791 -3.4789,-3.97022 -3.4789,-3.97022c0,0 0.05289,-1.05525 0.27135,-1.57676c0.21845,-0.52152 0.60343,-0.86707 0.87304,-1.15532c0.26959,-0.28826 0.76931,-0.41132 0.76931,-0.41132c0,0 -0.14822,-0.01962 0.04263,-0.29594c0.04357,-0.06307 0.31602,-0.17695 0.31602,-0.17695l-0.15377,-0.11692l0.33261,-0.64078l2.77607,1.22497z" fill="#f01a40"/><path d="M239.44597,188.51947c0.82177,0.31941 1.4988,1.34954 1.4322,1.64047c-0.06661,0.29092 -0.67803,0.6235 -0.67803,0.6235c0,0 -0.01359,0.81124 -0.34066,0.92686c-0.48756,0.17235 -0.82803,0.16098 -1.8905,-0.11925c-0.56548,-0.22005 -0.82998,-0.71241 -1.08095,-1.06504c-0.30721,-0.43164 0.14032,-0.40805 0.2036,-0.74105c0.06328,-0.33299 0.0679,0.23368 0.06112,-0.65175c-0.00485,-0.63423 1.88865,-0.77101 2.29322,-0.61375z" fill="#ffffff"/><path d="M238.93304,192.69744c-0.00423,0.05956 -0.05655,0.66166 -0.05655,0.66166c0,0 0.68309,2.67044 0.60986,3.48504c-0.09019,1.00331 -0.49581,2.42725 -0.49581,2.42725c0,0 -0.51103,-0.08861 -0.75326,-0.17177c-0.24922,-0.08556 -1.2392,-0.6699 -1.2392,-0.6699c0,0 0.71,-2.59766 0.77157,-3.04258c0.07769,-1.17633 -0.00497,-2.21479 -0.00497,-2.21479l0.02263,-0.34461l-0.15583,-0.36886l0.19732,-0.969l1.40803,0.3485c0,0 -0.28133,0.54233 -0.3038,0.85904z" fill="#ffffff"/></g><path d="M237.79968,189.30953c0.0816,-0.37573 0.66463,-0.56808 1.30223,-0.42961c0.6376,0.13848 1.08834,0.55532 1.00674,0.93105c-0.0816,0.37573 -0.66463,0.56807 -1.30223,0.4296c-0.6376,-0.13848 -1.08833,-0.55531 -1.00673,-0.93104z" fill="#afafaf"/></g><path d="M240.67566,184.66801l-0.87361,4.04736l-0.41563,1.76002c0,0 -0.54032,-0.15854 -0.76988,-0.30816c-0.22956,-0.14962 -0.48372,-0.50889 -0.48372,-0.50889l0.32967,-1.31182l0.87856,-3.67325z" data-paper-data="{&quot;index&quot;:null}" fill="#f79db4" stroke="none" stroke-width="0" stroke-linecap="butt" stroke-linejoin="miter"/><path d="M246.01154,182.15357c0,0 -1.65616,4.09746 -6.24764,3.99094c-4.73031,-0.02449 -5.98864,-3.85694 -5.98864,-3.85694l1.09315,-0.24746c0,0 0.52027,3.04675 5.28498,2.88744c4.12629,-0.13797 4.67202,-3.06609 4.67202,-3.06609z" data-paper-data="{&quot;index&quot;:null}" fill="#ffffff" stroke="none" stroke-width="0" stroke-linecap="butt" stroke-linejoin="miter"/><path d="M241.8915,178.54318c0.10973,0.65348 -0.12852,2.21952 -0.12852,2.21952l0.32623,0.1583l0.04716,0.15691l2.79502,0.80497c0,0 -0.33013,1.11164 -1.1641,1.79467c-1.29755,1.0627 -2.4097,1.5544 -4.10856,1.4095c-1.85978,-0.15863 -2.34016,-0.43403 -3.54156,-1.22701c-1.30374,-0.86052 -1.28245,-1.79128 -1.28245,-1.79128l1.39789,-0.45591l0.62958,-0.28818l0.07511,-0.16357l1.45459,-0.71556l0.16418,-1.05864c0,0 0.51527,-0.30891 0.69141,-0.79854c0.13954,-0.38788 0.12879,-1.13997 0.12879,-1.13997l1.19241,-0.34653l0.36739,0.0378c0,0 0.85724,0.81864 0.95546,1.40353z" data-paper-data="{&quot;index&quot;:null}" fill="#f01a40" stroke="none" stroke-width="0" stroke-linecap="butt" stroke-linejoin="miter"/><path d="M238.142,176.92194c0,0 1.08912,0.18954 1.59781,0.20559c0.50868,0.01604 1.29821,-0.11422 1.29821,-0.11422c0,0 -0.0364,0.72955 -1.34815,0.70811c-1.41028,-0.02305 -1.54787,-0.79949 -1.54787,-0.79949z" data-paper-data="{&quot;index&quot;:null}" fill="#afafaf" stroke="none" stroke-width="0" stroke-linecap="butt" stroke-linejoin="miter"/><g data-paper-data="{&quot;index&quot;:null}" stroke-linecap="butt" stroke-linejoin="miter"><path d="M256.89379,180.77124l-9.00491,1.19519c0,0 -1.6842,-2.39238 -0.47222,-3.95729c1.14862,-1.4831 2.33073,-2.33499 4.30022,-2.70375c5.1291,-0.96035 6.03956,3.6228 6.03956,3.6228z" fill="#fbdd00" stroke="none" stroke-width="0"/><path d="M257.13793,180.29752c0,0 -0.12238,-0.63624 -0.43609,-1.24868c-0.20993,-0.40984 -0.64072,-0.77769 -0.6269,-0.98877c0.02778,-0.42454 0.25334,-0.13365 0.76353,0.53408c0.23789,0.31135 0.53299,1.22786 0.53299,1.22786l-0.23354,0.4755z" fill="#a58c48" stroke="#000000" stroke-width="0"/><path d="M253.87887,176.76664c0.0297,0.18585 -1.06304,-0.01284 -1.94855,0.12865c-0.88551,0.14148 -2.18874,1.08704 -2.30811,0.67329c-0.13075,-0.45308 1.31174,-0.9741 2.19262,-1.14204c1.31466,-0.25064 2.03434,0.15428 2.06404,0.34012z" fill="#a58c48" stroke="#000000" stroke-width="0"/><path d="M247.74177,181.29972l-0.25488,-0.32467c0,0 -0.06595,-0.61247 0.03007,-1.04663c0.08621,-0.38978 0.43543,-0.46309 0.50707,-0.4196c0.20355,0.1236 -0.1321,0.46176 -0.22148,0.89814c-0.09657,0.47147 -0.06078,0.89277 -0.06078,0.89277z" fill="#a58c48" stroke="#000000" stroke-width="0"/><path d="M252.62512,182.38709c3.55298,-0.47092 4.80433,1.37425 4.80433,1.37425c0,0 0.01765,-0.21981 0.11241,0.36895c0.09477,0.58877 0.00013,0.31318 0.00013,0.31318c0,0 -1.62421,-1.45362 -3.82385,-1.54083c-3.50058,-0.13878 -5.29952,2.63316 -5.29952,2.63316l-0.0121,-0.59467c0,0 1.68647,-2.21845 4.21858,-2.55406z" fill="#edeee6" stroke="none" stroke-width="0"/><path d="M247.68039,181.58255c0,0 1.50994,-3.16334 4.32602,-3.42343c3.56884,-0.3296 5.02631,2.29428 5.02631,2.29428l-0.13871,0.31108c0,0 -1.62406,-1.7207 -3.7907,-1.86062c-3.44801,-0.22264 -5.24505,3.0341 -5.24505,3.0341l-0.17787,-0.3554z" fill="#edeee6" stroke="none" stroke-width="0"/><path d="M257.03206,181.02344c0,0 0.26766,0.90604 0.36243,1.4948c0.09477,0.58879 0.12335,1.5231 0.12335,1.5231c0,0 -1.63007,-1.45268 -3.83892,-1.53842c-3.51519,-0.13645 -5.32357,2.63699 -5.32357,2.63699l-0.53046,-3.29147c0,0 1.64907,-2.93312 4.19205,-3.27047c3.56825,-0.47335 5.01512,2.44547 5.01512,2.44547z" fill="#ff1a07" stroke="none" stroke-width="0"/><path d="M249.86243,179.58049c0,0 1.18655,-0.85255 2.0722,-1.00273c0.88567,-0.15017 2.13693,0.4114 2.13693,0.4114l0.50606,3.16713c0,0 -1.4662,-0.09053 -2.14883,0.01855c-0.70242,0.11224 -2.08721,0.6583 -2.08721,0.6583z" fill="#ff1808" stroke="#000000" stroke-width="0"/><path d="M257.45926,183.92889c0,0 -0.38905,-0.51505 -0.70161,-0.77247c-0.31256,-0.25741 -0.88796,-0.53665 -0.88796,-0.53665l-0.51085,-2.94308c0,0 0.74456,0.25226 1.12525,0.65001c0.3807,0.39775 0.64565,1.03169 0.67797,1.23397c0.08559,0.53568 0.29719,2.3682 0.29719,2.3682z" fill="#ff1808" stroke="#000000" stroke-width="0"/><path d="M247.99818,181.88809c0.00999,-0.44378 0.8364,-1.37195 0.8364,-1.37195l0.49656,3.10777c0,0 -0.26142,0.36125 -0.40663,0.60639c-0.14523,0.24515 -0.45671,0.85105 -0.45671,0.85105c0,0 -0.48326,-2.58709 -0.46962,-3.19326z" fill="#ff1808" stroke="#000000" stroke-width="0"/><path d="M251.51331,186.05629c-1.3228,0.21138 -3.62776,2.34466 -3.62776,2.34466c0,0 -0.35042,-0.7075 -0.18517,-1.57926c0.25854,-1.36386 1.30025,-3.20875 4.30131,-3.80721c5.7229,-1.14124 7.10202,3.91994 7.10202,3.91994c0,0 -6.26757,-1.08945 -7.59039,-0.8781z" fill="#fbdd00" stroke="none" stroke-width="0"/><path d="M252.74121,183.74892c-0.68874,0.11004 -2.31166,0.6937 -2.22415,0.43658c0.12949,-0.38042 1.41675,-0.81724 2.10864,-0.90531c1.24931,-0.15901 2.12261,0.19835 2.14006,0.30767c0.01747,0.10932 -1.13788,0.01942 -2.02456,0.16108z" fill="#a58c48" stroke="#000000" stroke-width="0"/><path d="M258.1241,185.04065c0,0 -1.38027,-0.72563 -1.49622,-0.97894c-0.18069,-0.39471 1.15665,0.50539 1.15665,0.50539l0.33956,0.47355z" fill="#a58c48" stroke="#000000" stroke-width="0"/><path d="M249.15981,185.09256c0.05939,0.3717 -1.3751,1.62645 -1.3751,1.62645l0.21916,-0.80531c0,0 1.09653,-1.19284 1.15592,-0.82113z" fill="#a58c48" stroke="#000000" stroke-width="0"/><path d="M254.37633,191.2209c-3.1926,0.46952 -6.1436,-0.49602 -6.52364,-2.87448c-0.2725,-1.70545 2.43604,-3.43424 5.27235,-3.84683c2.71702,-0.39523 5.67627,0.71388 5.94877,2.41931c0.27249,1.70542 -1.9851,3.87751 -4.70147,4.27699z" fill="#fbdd00" stroke="#000000" stroke-width="0.25"/><path d="M258.11946,188.783c0.16418,1.02763 -1.66129,2.17364 -4.07732,2.55968c-2.41603,0.38603 -4.50773,-0.13408 -4.67192,-1.16172c-0.16419,-1.02763 1.6613,-2.17363 4.07733,-2.55967c2.41602,-0.38603 4.50771,0.13407 4.6719,1.16171z" fill="#fbdd00" stroke="#000000" stroke-width="0.25"/><path d="M246.29522,185.52798l-4.06653,0.92904l-6.8948,1.54727c0,0 -0.50256,-0.22579 -0.55035,-0.45366c-0.04776,-0.22788 0.15104,-0.80792 0.15104,-0.80792l6.75235,-1.93808l4.12099,-1.23879c0,0 -0.01321,0.64515 0.085,1.04059c0.0982,0.39544 0.40229,0.92154 0.40229,0.92154z" fill="#fbdd00" stroke="none" stroke-width="0"/><path d="M248.36919,185.33206c0,0 -1.78323,0.41422 -1.88015,0.36331c-0.36793,-0.19324 -0.86846,-1.84557 -0.64479,-2.38613c0.13205,-0.31918 2.56664,-1.02575 2.56664,-1.02575l0.15413,2.74626z" fill="#c8c8c6" stroke="none" stroke-width="0"/><path d="M257.68522,178.73658c0,0 -0.51348,-2.36015 -2.83541,-3.22058c-0.56325,-0.20873 -1.38251,-0.22191 -2.1538,-0.21572c-1.14662,0.00923 -2.46419,0.31751 -3.42145,0.97436c-1.18275,0.81158 -2.00218,2.11046 -2.00218,2.11046c0,0 1.43977,-3.4822 4.79061,-3.58161c4.96626,-0.14734 5.62224,3.93308 5.62224,3.93308z" fill="#fbdd00" stroke="#000000" stroke-width="0.25"/><path d="M235.33388,188.00427c0,0 -0.50256,-0.22579 -0.55035,-0.45366c-0.04776,-0.22788 0.15103,-0.80792 0.15103,-0.80792l2.89373,-0.84628c0,0 0.1624,0.29228 0.26061,0.68772c0.09821,0.39544 0.10192,0.78395 0.10192,0.78395z" fill="#a56402" stroke="none" stroke-width="0"/></g><g data-paper-data="{&quot;index&quot;:null}" stroke="none" stroke-width="0" stroke-linecap="butt" stroke-linejoin="miter"><path d="M241.02299,184.42125c0,0 0.90906,1.1753 1.34413,1.94885c0.06932,0.12324 -0.07866,1.21023 -0.21698,1.68513c-0.07556,0.25939 -0.21319,0.74356 -0.66435,0.79363c-0.11501,0.01276 -0.6357,-0.20476 -0.6357,-0.20476l-0.31655,0.30216c0,0 -0.25912,0.02807 -0.4027,-0.0375c-0.14357,-0.06557 -0.34331,-0.28129 -0.34331,-0.28129c0,0 -0.17706,0.02722 -0.29733,0.07193c-0.39259,0.14594 -0.56106,-0.20885 -0.56106,-0.20885c0,0 -0.27268,0.13849 -0.49196,0.10649c-0.34764,-0.05072 -0.72025,-0.30362 -0.86692,-0.49905c-0.24914,-0.33197 -0.70585,-1.39508 -0.45649,-1.69042c0.38836,-0.45999 0.89522,0.08124 0.89522,0.08124c0,0 -0.14086,-0.61243 -0.02396,-0.9744c0.18,-0.55738 0.4981,-0.7644 0.4981,-0.7644l2.53986,-0.32879z" fill="#ffffff"/><path d="M239.21354,182.5938c0.54552,-0.22454 1.86666,0.01209 2.13586,0.39814c0.26919,0.38604 0.56423,1.39579 0.05886,1.70013c-1.8461,1.11175 -2.90469,0.41869 -3.38844,-0.43185c-0.31598,-0.55553 -0.34281,-1.03393 1.19371,-1.6664z" fill="#fed000"/><path d="M239.43494,182.95291c0.53612,-0.09635 1.00879,0.03728 1.05573,0.29848c0.04694,0.2612 -0.34961,0.55104 -0.88574,0.6474c-0.53614,0.09635 -1.00881,-0.03727 -1.05575,-0.29847c-0.04694,-0.26121 0.34962,-0.55106 0.88575,-0.64742z" fill="#c28830"/><path d="M238.791,177.96116c0.44088,1.09737 0.75905,2.44015 0.93228,3.33534c0.24768,1.27986 0.50581,2.41253 0.50581,2.41253c0,0 -0.45478,0.2978 -0.77428,0.24101c-0.31951,-0.0568 -0.42807,-0.03335 -0.42807,-0.03335c0,0 -0.31663,-2.02919 -0.41655,-2.54552c-0.1639,-0.84695 -0.41555,-1.91182 -0.72869,-3.12319c-0.07845,-0.30354 0.03447,-0.52057 0.34073,-0.61324c0.20576,-0.06224 0.4228,-0.03694 0.56878,0.32643z" fill="#fed5c7"/></g><g data-paper-data="{&quot;index&quot;:null}"><path d="M240.2003,171.0737c0,0 -1.04214,-0.84173 -1.99504,-0.53519c-1.54021,0.49549 -1.18672,2.52077 -1.18672,2.52077c0,0 -0.39072,-1.34372 0.3,-2.12111c0.45597,-0.5132 0.76911,-0.71111 1.47414,-0.63c0.79002,0.09088 1.40761,0.76552 1.40761,0.76552z" fill="#000000" stroke="none" stroke-width="0" stroke-linecap="butt" stroke-linejoin="miter"/><path d="M239.1112,166.15401c3.33819,0 6.04431,2.33386 6.04431,5.21281c0,2.87896 -2.70613,5.2128 -6.04431,5.2128c-3.33818,0 -6.0443,-2.33385 -6.0443,-5.2128c0,-2.87896 2.70612,-5.21282 6.0443,-5.21282z" fill="#f79eb4" stroke="none" stroke-width="0" stroke-linecap="butt" stroke-linejoin="miter"/><path d="M244.95576,173.11249c0.00627,-0.01611 0.03611,1.04439 -0.71892,2.38834c-1.21074,2.16933 -2.69053,2.22704 -2.69053,2.22704l0.28262,-0.91116c0,0 1.55213,-1.72427 1.9589,-2.37171c0.40676,-0.64744 0.6043,-1.81547 0.60411,-1.81476" fill="#f79eb4" stroke="#f89db5" stroke-width="0" stroke-linecap="butt" stroke-linejoin="round"/><g fill="#ffd5c5" stroke="none" stroke-width="1" stroke-linecap="round" stroke-linejoin="round"><path d="M243.46944,175.0255c0.11769,0.53465 -0.33959,0.99511 -0.73513,1.30295c-0.06472,0.05035 -0.57188,0.44252 -1.40543,0.72159c-1.04591,0.35015 -2.42657,0.15208 -2.82313,0.10525c-0.47293,-0.0559 -1.31465,-0.58396 -1.44795,-0.72743c-0.95936,-1.0326 -0.24093,-1.53174 -0.13962,-1.61022c0.04832,-0.03741 0.31888,-0.13842 0.63715,-0.0301c0.31022,0.10558 1.15869,0.57476 1.45072,0.56231c0.31377,-0.01337 2.05895,-0.60361 2.96625,-0.60243c0.18856,0.00223 0.43678,0.06523 0.58844,0.18388c0.19737,0.15447 0.49285,0.45028 0.75847,0.1947c0.04298,-0.0414 0.13736,-0.15879 0.15022,-0.10052z"/><path d=""/></g><g fill="#000000" stroke="#000000" stroke-width="0.125" stroke-linecap="butt" stroke-linejoin="round"><path d="M244.40313,173.30624c0.06242,-0.02085 0.35865,0.00962 0.799,-0.09365c0.27714,-0.07579 0.55378,-0.15415 0.82216,-0.25642c0.16067,-0.06127 0.30714,-0.16655 0.46915,-0.22066c0.00551,-0.00185 -0.34397,0.21364 -0.44996,0.26442c-0.33221,0.1592 -0.63222,0.26825 -0.9856,0.37014c-0.07759,0.02239 -0.71155,0.12907 -0.70803,0.10451"/><path d="M244.53406,172.76981c0.02558,0.02546 0.35692,0.03786 0.77433,-0.149c0.4174,-0.18686 0.99582,-0.54894 1.01418,-0.58572c0.00692,-0.01388 -0.63433,0.5123 -0.9297,0.67201c-0.29537,0.15971 -0.91388,0.29905 -0.91062,0.27614"/></g><g fill="#000000" stroke="none" stroke-width="1" stroke-linecap="round" stroke-linejoin="round"><path d="M241.80727,175.0386c0.14923,-0.10805 0.67827,-0.04953 0.76951,0.01737c0.15784,0.11573 -0.2206,0.36249 -0.33055,0.35514c-0.23909,-0.03554 -0.6353,-0.23033 -0.43896,-0.37251z"/><path d=""/></g><path d="M236.84422,172.33965c0.02047,-0.05301 -0.09977,1.8957 -0.07803,2.77616c0.04097,1.65803 0.42394,2.68636 0.42394,2.68636c0,0 -0.35774,-0.23441 -0.44345,-0.30592c-0.2648,-0.22085 -0.49846,-0.43966 -0.72366,-0.70465c-0.52966,-0.6233 -0.88739,-1.37012 -1.10908,-2.1546c-0.14774,-0.52281 -0.30777,-2.81216 -0.28494,-2.82591" fill="#f79eb4" stroke="#f89db5" stroke-width="0" stroke-linecap="butt" stroke-linejoin="round"/><path d="M234.53435,171.77961c-0.01464,0.01464 0.28029,2.81548 0.42676,3.59368c0.14646,0.7782 0.61363,1.93401 0.61363,1.93401c0,0 -0.41128,-0.06345 -0.97324,-0.69448c-0.4962,-0.55721 -0.77538,-0.83955 -1.05988,-1.88672c-0.36917,-1.35883 -0.47186,-3.22519 -0.29214,-3.58465" fill="#f79eb4" stroke="#f89db5" stroke-width="0" stroke-linecap="butt" stroke-linejoin="round"/><g fill="#ee1a40" stroke="none" stroke-width="1" stroke-linecap="round" stroke-linejoin="round"><path d="M242.88029,168.64848c-0.0866,-0.05592 -2.2936,-1.44681 -3.87859,-1.17164c-1.24924,0.21687 -1.90847,0.73513 -3.04667,1.62756c-0.8778,0.68823 -1.42094,2.25749 -1.45484,2.26644c-0.00243,0.00064 0.33378,-4.10309 3.7273,-4.70804c2.74553,-0.45776 4.95521,1.33186 5.04726,1.44986"/><path d=""/></g><path d="M243.15747,169.75011c-0.0227,0.01843 0.64581,0.25651 2.42814,0.69208c0.31763,0.07944 1.29293,0.4403 1.55786,1.18672c0.32256,0.67883 1.16889,1.15653 1.15271,1.15488c-0.02322,-0.00244 -1.79788,-0.6567 -2.83728,-1.0521c-0.56753,-0.2159 -2.07127,-0.86084 -2.10115,-0.83659" fill="#f79eb4" stroke="#f89db5" stroke-width="0" stroke-linecap="butt" stroke-linejoin="round"/><path d="M242.31003,169.788c0.00908,-0.08308 1.30023,-0.54945 1.58125,-0.80265c0.28102,-0.2532 0.78405,-0.15479 1.38858,-0.18624c2.05717,0.09193 3.33454,0.33995 3.33454,0.33995c0,0 -1.91287,0.5091 -2.66113,0.64998c-1.03812,0.19546 -2.68332,-0.12 -2.78726,-0.03653" fill="#f79eb4" stroke="#f89db5" stroke-width="0" stroke-linecap="butt" stroke-linejoin="round"/><g stroke="none" stroke-width="1" stroke-linecap="round" stroke-linejoin="round"><g fill="#f79eb4"><path d="M235.71787,169.61097c-0.02251,-0.35882 -0.18813,-0.97796 -0.19076,-1.65428c-0.00262,-0.67632 0.05523,-1.54383 0.17765,-1.71819c0.16004,-0.22796 0.92717,-0.00727 1.70972,0.36284c0.78255,0.37013 1.75052,1.14255 1.7949,1.29471"/></g><g fill="#ffd5c5"><path d="M236.28527,169.18149c-0.01053,-0.08486 -0.1264,-0.47814 -0.14119,-0.97843c-0.0148,-0.50029 0.05438,-1.25413 0.07443,-1.27986c0.08129,-0.10431 0.93758,0.18041 1.36123,0.38916c0.42366,0.20875 0.84779,0.58793 0.9475,0.74847"/></g></g><g fill="#f79eb4" stroke="none" stroke-width="1" stroke-linecap="round" stroke-linejoin="round"><path d="M242.68233,167.35959c0.29499,-0.08839 0.608,-0.15809 1.27228,-0.20333c0.66427,-0.04524 1.49038,-0.11186 1.69966,0.00089c0.04286,0.02311 0.15973,0.66751 0.07343,1.16967c-0.13469,0.78385 -0.59558,1.61249 -0.60409,1.62533"/><path d=""/></g><path d="M241.47242,173.20568c0.41372,0.60664 0.61215,0.59671 0.80863,0.61427c0.33707,0.03013 0.7176,-0.2714 1.00158,-0.63715c0.40601,-0.5229 0.78897,-1.4542 1.23813,-1.45808c0.06807,-0.00059 0.11454,0.84119 -0.04066,1.41753c-0.32914,1.22225 -1.15546,2.08352 -1.30206,2.08886c-0.58573,0.02133 -0.41306,-0.51203 -1.60028,-0.45107c-0.6762,0.03473 -2.21533,0.77096 -2.8683,0.57727c-1.27143,-0.58991 -1.59567,-1.66258 -1.6902,-2.37548c-0.28408,-2.14228 1.02378,-2.72666 1.46832,-2.67571c2.04647,0.23452 2.33585,1.94796 2.98484,2.89957z" fill="#ffffff" stroke="none" stroke-width="0" stroke-linecap="butt" stroke-linejoin="miter"/><path d="M243.29462,170.98496c-0.04066,-0.02975 0.49353,0.35444 1.35336,0.85294c0.24701,0.14321 0.87026,0.98753 0.85318,1.13759c0.0252,0.60993 -0.41405,2.21354 -0.41245,2.21239c0.03485,-0.02475 -0.11932,-1.09189 -0.77563,-1.94737c-0.22239,-0.28642 -0.89668,-1.23992 -1.01174,-1.32421" fill="#f79eb4" stroke="#f89db5" stroke-width="0" stroke-linecap="butt" stroke-linejoin="round"/><g fill="#000000" stroke="#000000" stroke-width="0.125" stroke-linecap="butt" stroke-linejoin="round"><path d="M237.23816,171.18233c-0.02443,0.03602 -0.17767,0.04892 -0.36822,-0.0353c-1.2234,-0.54065 -1.37931,-0.92237 -1.37931,-0.92237c0,0 0.41695,0.51644 1.28479,0.7476c0.169,0.04501 0.39449,0.06642 0.44337,0.0638c0.04663,-0.0025 0.08706,-0.03774 0.13643,-0.01964"/><path d="M236.96711,171.97584c0,0 -0.0365,0.04303 -0.16777,0.08602c-0.24342,0.07973 -0.86342,0.07606 -1.15066,0.03326c-0.68491,-0.10208 -1.06852,-0.33041 -1.06852,-0.33041c0,0 0.77457,0.22285 1.02076,0.26251c0.74294,0.11548 1.23233,-0.17059 1.29821,-0.21882c0.02904,-0.02124 0.08987,-0.08021 0.12357,-0.08405"/></g><g stroke="none" stroke-linecap="butt" stroke-linejoin="miter"><path d="M240.07126,172.35856c0.23265,0.01501 0.38365,0.61015 0.33726,1.32928c-0.0464,0.71912 -0.27263,1.28991 -0.50528,1.27491c-0.23265,-0.01501 -0.38364,-0.61014 -0.33725,-1.32927c0.04639,-0.71913 0.27262,-1.28992 0.50527,-1.27492z" fill="#169c5b" stroke-width="NaN"/><path d="M240.01835,173.27808c0.10223,0.00659 0.16938,0.25544 0.15001,0.5558c-0.01936,0.30037 -0.11795,0.53853 -0.22018,0.53193c-0.10223,-0.00659 -0.16938,-0.25544 -0.15001,-0.5558c0.01936,-0.30037 0.11795,-0.53853 0.22018,-0.53193z" fill="#000000" stroke-width="0"/><path d="M239.91881,173.13199c0.01961,-0.30389 0.13552,-0.54379 0.2589,-0.53583c0.12337,0.00796 0.2075,0.26076 0.18789,0.56466c-0.01961,0.3039 -0.13552,0.54379 -0.2589,0.53583c-0.12337,-0.00796 -0.2075,-0.26075 -0.18789,-0.56465z" fill="#ffffff" stroke-width="0"/></g><g stroke="none" stroke-linecap="butt" stroke-linejoin="miter"><path d="M242.98279,174.12119c0.03272,-0.50723 0.19227,-0.90982 0.35638,-0.89924c0.1641,0.01058 0.27059,0.43035 0.23788,0.93758c-0.03273,0.50723 -0.19228,0.90983 -0.35639,0.89925c-0.1641,-0.01058 -0.27058,-0.43035 -0.23787,-0.93758z" fill="#169c5b" stroke-width="NaN"/><path d="M243.14655,174.24571c0.01367,-0.21186 0.08319,-0.37983 0.1553,-0.37517c0.07212,0.00465 0.1195,0.18016 0.10582,0.39202c-0.01368,0.21186 -0.0832,0.37984 -0.15531,0.37518c-0.07212,-0.00466 -0.1195,-0.18017 -0.10582,-0.39203z" fill="#000000" stroke-width="0"/><path d="M243.41426,173.38953c0.08703,0.00562 0.14635,0.18393 0.13253,0.39828c-0.01384,0.21434 -0.09559,0.38355 -0.18262,0.37793c-0.08702,-0.00562 -0.14634,-0.18391 -0.13252,-0.39826c0.01384,-0.21434 0.09558,-0.38357 0.18261,-0.37795z" fill="#ffffff" stroke-width="0"/></g></g><path d="M237.71903,176.26431c0,0 0.14712,-0.07048 0.46449,-0.06254c0.31737,0.00793 0.8067,0.06254 0.8067,0.06254" data-paper-data="{&quot;index&quot;:null}" fill="none" stroke="#000000" stroke-width="0.125" stroke-linecap="round" stroke-linejoin="miter"/></g></g></svg>