<svg version="1.1" xmlns="http://www.w3.org/2000/svg" xmlns:xlink="http://www.w3.org/1999/xlink" width="30.67363" height="44.97028" viewBox="0,0,30.67363,44.97028"><defs><radialGradient cx="257.64169" cy="188.20258" r="15.77076" gradientUnits="userSpaceOnUse" id="color-1"><stop offset="0" stop-color="#b7be45" stop-opacity="0.50196"/><stop offset="1" stop-color="#c2e266"/></radialGradient></defs><g transform="translate(-225.62146,-160.24268)"><g data-paper-data="{&quot;isPaintingLayer&quot;:true}" fill-rule="nonzero" stroke-miterlimit="10" stroke-dasharray="" stroke-dashoffset="0" style="mix-blend-mode: normal"><path d="M253.4647,192.78481c0.45611,6.86114 -2.50161,11.61582 -6.50291,12.42155c-0.54858,0.11046 -7.29601,-1.19926 -7.65858,-1.47152c-1.81593,-1.36364 0.39706,-4.50471 0.79253,-6.77977c0.10149,-0.58381 5.27637,-2.44084 5.27637,-2.44084c0,0 7.86035,-2.51291 8.0926,-1.72942z" data-paper-data="{&quot;index&quot;:null}" fill="url(#color-1)" stroke="none" stroke-width="NaN" stroke-linecap="butt" stroke-linejoin="miter"/><g data-paper-data="{&quot;index&quot;:null}" stroke-linejoin="miter"><path d="M226.26907,190.27492c0,0 -0.28607,0.3107 -0.58125,-0.7531c-0.19313,-0.76843 0.05907,-2.26833 0.45006,-3.06202c0.391,-0.79368 1.1337,-1.24848 1.98532,-1.67951c0.85163,-0.43103 1.51465,-0.46788 1.91516,-0.61931c1.42406,-0.53847 1.86536,0.77685 1.86536,0.77685c0,0 -4.16832,0.38697 -4.58711,1.12102c-0.51669,0.90564 -1.21243,2.97192 -1.21243,2.97192z" fill="#947043" stroke="none" stroke-width="0" stroke-linecap="butt"/><path d="M232.32664,188.55762l-0.3162,0.17631l-0.42089,0.02805c0,0 -0.86025,0.2857 -1.1757,0.43642c-0.38812,0.18541 -0.80689,0.38217 -1.66614,0.90585c-1.0055,0.37067 -2.60253,0.25785 -2.60253,0.25785c0,0 -0.33305,-1.30569 -0.14583,-2.45054c0.23687,-0.85427 0.82262,-1.97587 1.42347,-2.35297c0.71312,-0.44754 1.50828,-0.60908 2.01421,-0.77198c0.05826,-0.01877 1.59389,-0.41381 1.95047,-0.24461c0.35659,0.16916 0.90076,0.4467 0.90076,0.4467c0,0 -0.02638,-0.14717 0.29489,-0.04939c0.07333,0.02232 0.26467,0.24724 0.26467,0.24724l0.06461,-0.18204l0.71159,0.12199l-0.32275,3.01709z" fill="#20201f" stroke="none" stroke-width="0" stroke-linecap="butt"/><path d="M230.14058,184.65987c0,0 1.4117,0.49825 1.95752,0.71293c0.43069,0.1694 0.99016,0.44039 0.99016,0.44039" fill="none" stroke="#c8c7c6" stroke-width="0.125" stroke-linecap="round"/><path d="M235.05791,184.99543c0.93394,-0.04259 1.22713,1.25249 1.28203,1.998c0.0549,0.7455 -0.83699,1.57173 -1.01608,1.61261c-0.68296,0.15586 -1.73407,-0.10445 -1.89792,-0.24837c-0.31243,-0.41204 -0.40515,-0.73985 -0.46128,-1.83722c0.03767,-0.6056 0.23831,-1.02756 0.68589,-1.35363c0.44759,-0.32606 0.66435,-0.13744 1.40735,-0.17134z" fill="#c274a1" stroke="none" stroke-width="0" stroke-linecap="butt"/><path d="M234.99887,185.01588c0.93394,-0.04259 1.22713,1.25249 1.28203,1.998c0.0549,0.74551 -0.837,1.57176 -1.01608,1.61262c-0.68296,0.15584 -0.91117,-1.38662 -0.96953,-1.85445c-0.04787,-0.38363 -0.03948,-1.72227 0.70354,-1.75616z" fill="#cacacd" stroke="none" stroke-width="0" stroke-linecap="butt"/><path d="M226.75623,187.83029c0.2314,-0.00047 0.81476,0.14366 0.81476,0.14366c0,0 -0.43367,0.10433 -0.8111,0.19514c-0.37744,0.09082 -0.69533,0.03801 -0.72914,-0.05987c-0.02115,-0.0613 -0.04412,-0.28388 0.249,-0.42075c0.17491,-0.08167 0.24507,0.1423 0.47648,0.14183z" fill="#c8c7c6" stroke="none" stroke-width="0" stroke-linecap="butt"/><path d="M226.77945,186.57424c0,0 2.13652,0.26359 2.4655,2.05779c0.23105,1.25994 -0.86498,1.59415 -0.86498,1.59415" fill="none" stroke="#c8c7c6" stroke-width="0.125" stroke-linecap="round"/><path d="M227.65117,189.90245c0,0 -0.55354,0.23383 -0.78214,0.26965c-0.22862,0.03582 -0.2628,0.26802 -0.44834,0.2148c-0.31099,-0.08921 -0.32322,-0.31263 -0.31193,-0.3765c0.01806,-0.10196 0.32373,-0.20396 0.71075,-0.17348c0.387,0.03049 0.83165,0.06552 0.83165,0.06552z" data-paper-data="{&quot;index&quot;:null}" fill="#c8c7c6" stroke="none" stroke-width="0" stroke-linecap="butt"/></g><path d="M239.39797,183.42232c0,0 -0.22744,2.52378 -0.5508,3.11684c-0.36618,0.67161 -1.53386,0.70654 -1.53386,0.70654l-2.29885,0.1643c0,0 -0.02849,-0.37944 0.07466,-0.62113c0.10315,-0.24169 0.34199,-0.59261 0.34199,-0.59261l2.22752,-0.2869l0.29796,-2.63274z" data-paper-data="{&quot;index&quot;:null}" fill="#20201f" stroke="none" stroke-width="0" stroke-linecap="butt" stroke-linejoin="miter"/><g data-paper-data="{&quot;index&quot;:null}" stroke-linejoin="miter"><path d="M228.71446,194.42059l0.9837,0.77936c0,0 0.01052,0.42223 -0.9414,-0.13696c-0.67319,-0.41788 -1.535,-1.67113 -1.80599,-2.51335c-0.27098,-0.84222 -0.05356,-1.68555 0.25868,-2.58752c0.31226,-0.90195 0.76308,-1.38954 0.94558,-1.77687c0.64889,-1.37727 1.88071,-0.73897 1.88071,-0.73897c0,0 -2.72622,3.17681 -2.51671,3.99553c0.2585,1.01014 1.19547,2.97881 1.19547,2.97881z" fill="#947043" stroke="none" stroke-width="0" stroke-linecap="butt"/><path d="M232.85697,189.75336l-0.10464,0.34659l-0.28294,0.31285c0,0 -0.41948,0.80356 -0.54137,1.13121c-0.14996,0.40315 -0.31406,0.83579 -0.56734,1.80963c-0.46477,0.96563 -1.69085,1.99516 -1.69085,1.99516c0,0 -1.14733,-0.70665 -1.80895,-1.65956c-0.42385,-0.77858 -0.78292,-1.99195 -0.61339,-2.68076c0.20123,-0.81754 0.66027,-1.48657 0.91056,-1.95547c0.02882,-0.05401 0.85762,-1.4058 1.2315,-1.53218c0.37388,-0.1264 0.95792,-0.3054 0.95792,-0.3054c0,0 -0.1213,-0.08741 0.17756,-0.24057c0.06823,-0.03495 0.36214,-0.0064 0.36214,-0.0064l-0.08016,-0.17576l0.59617,-0.40719l1.86622,2.39257z" fill="#20201f" stroke="none" stroke-width="0" stroke-linecap="butt"/><path d="M228.57542,188.47272c0,0 1.36097,-0.6237 1.90248,-0.84901c0.42733,-0.17779 1.0178,-0.37212 1.0178,-0.37212" fill="none" stroke="#c8c7c6" stroke-width="0.125" stroke-linecap="round"/><path d="M234.65319,185.83845c0.5579,0.49753 0.49157,1.71151 0.39129,1.86543c-0.38241,0.58691 -1.31875,1.13083 -1.53657,1.14136c-0.51109,-0.07883 -0.80566,-0.24993 -1.60913,-0.99946c-0.3941,-0.4614 -0.54333,-0.90414 -0.44847,-1.44971c0.09488,-0.54557 0.38179,-0.56076 0.89215,-1.10183c0.64151,-0.68011 1.75281,0.04667 2.31073,0.54421z" fill="#c274a1" stroke="none" stroke-width="0" stroke-linecap="butt"/><path d="M232.31418,185.34995c0.64151,-0.68009 1.75281,0.04667 2.31073,0.54421c0.55791,0.49754 0.49157,1.71154 0.3913,1.86544c-0.3824,0.58693 -1.61904,-0.36277 -1.98632,-0.65838c-0.30118,-0.24239 -1.22607,-1.21017 -0.7157,-1.75124z" fill="#cacacd" stroke="none" stroke-width="0" stroke-linecap="butt"/><path d="M228.34825,193.10446c0.16594,-0.16127 0.68538,-0.46337 0.68538,-0.46337c0,0 -0.23907,0.37656 -0.44715,0.7043c-0.20807,0.32774 -0.47324,0.51086 -0.5656,0.46404c-0.05784,-0.02933 -0.22912,-0.1733 -0.11367,-0.47551c0.06889,-0.18031 0.27506,-0.06815 0.44102,-0.22942z" fill="#c8c7c6" stroke="none" stroke-width="0" stroke-linecap="butt"/><path d="M230.15038,193.69699c0,0 -0.19912,0.56695 -0.32631,0.76026c-0.12721,0.1933 0.02167,0.37473 -0.14247,0.47629c-0.27512,0.17019 -0.44872,0.02901 -0.4884,-0.02229c-0.06335,-0.08192 0.06669,-0.37678 0.34947,-0.64274c0.28277,-0.26595 0.60769,-0.57152 0.60769,-0.57152z" data-paper-data="{&quot;index&quot;:null}" fill="#c8c7c6" stroke="none" stroke-width="0" stroke-linecap="butt"/><path d="M227.49146,192.18574c0,0 1.71859,-1.29635 3.20273,-0.23582c1.04221,0.74474 0.48703,1.74708 0.48703,1.74708" fill="none" stroke="#c8c7c6" stroke-width="0.125" stroke-linecap="round"/><g fill="#83c4ac" stroke="none" stroke-width="0" stroke-linecap="butt"><path d="M230.92309,188.36673c-0.09119,-0.06463 0.19254,-1.07319 0.19254,-1.07319l0.21384,0.02727l0.37885,0.96216c0,0 -0.67764,0.16004 -0.78524,0.08379z"/><path d="M231.04705,186.46062c0.1112,0.0113 0.32325,0.89013 0.32325,0.89013l-0.28983,0.00327l-0.58596,-0.56706c0,0 0.42134,-0.33968 0.55254,-0.32635z" data-paper-data="{&quot;index&quot;:null}"/><path d="M229.86432,188.6102c-0.07827,-0.07979 0.37977,-1.02207 0.37977,-1.02207l0.24879,0.07582l0.15908,1.00302c0,0 -0.69527,0.03732 -0.78763,-0.05678z"/><path d="M230.44761,186.73247c0.10388,0.04124 0.06798,0.94458 0.06798,0.94458l-0.27971,-0.07595l-0.4089,-0.70548c0,0 0.49805,-0.21179 0.62064,-0.16313z" data-paper-data="{&quot;index&quot;:null}"/><path d="M228.74456,188.59356l0.11931,-0.37787l0.82556,-0.31269c0,0 0.3154,-0.25892 0.37531,-0.09812c0.05991,0.16081 -0.28812,0.33216 -0.28812,0.33216l-0.65516,0.72446z"/></g></g><path d="M237.39489,182.30216l-2.3975,3.37584l-1.0754,1.45394c0,0 -0.43417,-0.35858 -0.58622,-0.58654c-0.15204,-0.22795 -0.24411,-0.6583 -0.24411,-0.6583l0.81984,-1.07585l2.25466,-3.03004z" data-paper-data="{&quot;index&quot;:null}" fill="#20201f" stroke="none" stroke-width="0" stroke-linecap="butt" stroke-linejoin="miter"/><g data-paper-data="{&quot;index&quot;:null}" stroke-width="0" stroke-linecap="butt" stroke-linejoin="miter"><g data-paper-data="{&quot;index&quot;:null}"><path d="M255.77251,176.1685c-0.72922,0.77407 -1.9502,0.80824 -2.72712,0.07633c-0.77691,-0.7319 -0.81557,-1.95274 -0.08635,-2.72681c0.72922,-0.77407 1.95019,-0.80826 2.72711,-0.07635c0.7769,0.7319 0.81558,1.95274 0.08636,2.72681z" fill="#c2e266" stroke="none"/><path d="M253.16607,176.22002c-0.47999,-0.45218 -0.50387,-1.20641 -0.05335,-1.68463c0.45051,-0.47824 1.20482,-0.49936 1.68481,-0.04717c0.47999,0.45218 0.50387,1.20641 0.05335,1.68463c-0.45051,0.47823 -1.20482,0.49936 -1.68481,0.04717z" fill="#c2e266" stroke="#000000"/><path d="M252.58008,179.10319c-0.95935,0.51608 -3.32529,0.54818 -3.32529,0.54818c0,0 0.37996,-2.34508 1.55849,-3.09243c1.13504,-0.71975 1.38578,-0.76245 1.38578,-0.76245l1.52068,1.45301c0,0 -0.18034,1.33761 -1.13967,1.8537z" fill="#e8edf4" stroke="#000000"/><path d="M252.77768,176.6713c-0.42341,-0.40246 -0.70669,-1.15519 -0.70669,-1.15519l0.54142,-0.16298c0,0 0.23644,0.67977 0.58466,0.97242c0.34823,0.29268 1.08305,0.42923 1.08305,0.42923l-0.30871,0.64536c0,0 -0.82316,-0.37656 -1.19373,-0.72879z" fill="#dbded5" stroke="#000000"/></g><g data-paper-data="{&quot;index&quot;:null}" stroke="none"><path d="M245.54253,176.04882c-0.28634,0.30396 -0.63718,0.43852 -0.78362,0.30057c-0.14642,-0.13796 -0.03301,-0.49619 0.25334,-0.80014c0.28634,-0.30395 0.63716,-0.43853 0.7836,-0.30058c0.14645,0.13795 0.03303,0.4962 -0.25332,0.80015z" fill="#000000"/><path d="M241.15581,178.12449c0.15253,0.1437 -0.75437,2.23951 -0.75437,2.23951c0,0 -0.99256,-0.47798 -1.14509,-0.62168c-0.15254,-0.14369 0.41921,-1.26399 0.54521,-1.39773c0.126,-0.13374 1.2017,-0.36379 1.35423,-0.22009z" fill="#807d5a"/><path d="M244.74403,176.02002l0.14064,-0.29688l7.58671,-0.9554l-0.00795,0.20028z" fill="#6e6e73"/><path d="M251.72064,174.75298l0.02183,0.4638l-1.78761,0.1858l0.00027,-0.44297z" fill="#c2e266"/></g></g><g data-paper-data="{&quot;index&quot;:null}" stroke-width="0" stroke-linecap="butt" stroke-linejoin="miter"><g data-paper-data="{&quot;index&quot;:null}"><path d="M238.36275,164.51516c-0.99667,-0.93894 -1.04628,-2.50507 -0.1108,-3.49807c0.93546,-0.99301 2.50179,-1.03685 3.49844,-0.09793c0.99666,0.93893 1.04626,2.50506 0.11078,3.49806c-0.93548,0.99301 -2.50179,1.03684 -3.49844,0.09792z" fill="#c2e266" stroke="none"/><path d="M238.38529,164.35867c-0.61574,-0.58006 -0.6464,-1.54763 -0.06845,-2.16111c0.57794,-0.61348 1.54561,-0.64055 2.16134,-0.06049c0.61574,0.58006 0.64639,1.54762 0.06844,2.1611c-0.57794,0.61349 -1.54561,0.64057 -2.16134,0.06051z" fill="#c2e266" stroke="#000000"/><path d="M234.73798,165.32957c0.5875,-1.26796 2.28662,-1.60116 2.28662,-1.60116l1.97694,1.83621c0,0 -0.0355,0.32436 -0.8704,1.83287c-0.86689,1.56629 -3.84082,2.23219 -3.84082,2.23219c0,0 -0.13982,-3.03219 0.44768,-4.30013z" fill="#e8edf4" stroke="#000000"/><path d="M237.83701,164.89054c-0.47937,-0.44759 -1.02453,-1.47288 -1.02453,-1.47288l0.8028,-0.44469c0,0 0.23105,0.93053 0.63245,1.35407c0.40141,0.42354 1.28995,0.67432 1.28995,0.67432l-0.16732,0.70579c0,0 -0.98561,-0.30516 -1.53333,-0.8166z" fill="#dbded5" stroke="#000000"/></g><g data-paper-data="{&quot;index&quot;:null}" stroke="none"><path d="M237.5429,174.66619c0.44067,-0.16768 2.34627,-1.76083 3.2593,-0.84739c0.14171,0.14177 0.37736,2.14674 -0.1696,3.06942c-0.744,1.25513 -2.36694,1.49717 -2.36694,1.49717l-2.25429,-2.15032c0,0 1.09084,-1.40125 1.5315,-1.5689z" fill="#c2e266"/><path d="M239.18746,174.10794c0.36734,-0.38994 0.8174,-0.56257 1.00525,-0.3856c0.18786,0.17697 0.04236,0.63653 -0.32497,1.02646c-0.36732,0.38994 -0.8174,0.56256 -1.00525,0.38559c-0.18785,-0.17696 -0.04234,-0.63651 0.32499,-1.02644z" fill="#000000"/><path d="M234.6245,177.92932c0.47384,-0.718 1.39421,-1.70713 1.39421,-1.70713c0,0 0.64897,0.13706 0.98788,0.30869c0.33891,0.17162 0.81342,0.54785 0.81342,0.54785l0.35799,1.41553c0,0 -1.89852,2.31629 -2.15152,2.60365c-0.50954,0.57874 -1.9427,0.01773 -1.9427,0.01773l-0.52837,-1.16094c0,0 0.59525,-1.30741 1.06909,-2.0254z" fill="#20201f"/><path d="M234.05479,181.02137c0,0 2.61444,-1.32161 2.81013,-1.13727c0.19569,0.18433 -0.01664,1.5794 -0.17828,1.75098c-0.16163,0.17157 -1.55251,0.98942 -1.7482,0.80508c-0.1957,-0.18434 -0.88367,-1.41881 -0.88367,-1.41881z" fill="#c274a1"/><path d="M240.04227,165.1627l0.25586,-0.02549l-0.64329,9.78826l-0.3694,0.20281z" fill="#6e6e73"/><path d="M240.24481,168.37409l-0.56724,0.03421l0.10122,-2.30334l0.59557,-0.00751z" fill="#c2e266"/></g></g><g data-paper-data="{&quot;index&quot;:null}" stroke="none" stroke-width="0" stroke-linecap="butt" stroke-linejoin="miter"><g><g><path d="M239.35702,187.59515c-0.06368,0.1197 -1.01773,0.56207 -1.47265,0.69587c-0.24845,0.07308 -0.7105,0.21222 -0.98411,-0.12614c-0.06973,-0.08625 -0.16325,-0.61906 -0.16325,-0.61906l-0.40756,-0.09937c0,0 -0.1566,-0.19471 -0.17788,-0.34453c-0.02128,-0.14981 0.04963,-0.42256 0.04963,-0.42256c0,0 -0.11349,-0.12888 -0.21175,-0.20288c-0.32075,-0.24149 -0.1214,-0.56092 -0.1214,-0.56092c0,0 -0.25273,-0.14852 -0.34026,-0.34211c-0.13874,-0.3069 -0.12714,-0.73844 -0.04518,-0.95786c0.13923,-0.37273 0.76144,-1.29093 1.12877,-1.2423c0.5721,0.07577 0.39714,0.76474 0.39714,0.76474c0,0 0.4216,-0.43027 0.77428,-0.52301c0.54302,-0.1428 0.87458,0.00704 0.87458,0.00704l1.57826,1.88058c0,0 -0.47899,1.34144 -0.87863,2.09253z" fill="#20201f"/><path d="M241.84939,184.83235c-0.35348,0.86946 -1.07249,1.38662 -2.12918,0.55152c-1.05668,-0.83508 -1.47555,-2.25605 -1.14472,-3.13888c0.33082,-0.88283 1.48556,-0.53903 2.32325,0.123c0.83767,0.66203 1.30415,1.59491 0.95064,2.46436z" fill="#20201f"/><path d="M241.63679,181.79064c-0.54158,1.1262 -1.02879,2.32083 -1.02879,2.32083l-0.8939,-1.00929c0,0 0.80525,-1.4365 1.02373,-1.89085c0.35838,-0.74527 0.77393,-1.70838 1.22599,-2.81936c0.11327,-0.2784 0.32429,-0.38075 0.61289,-0.27685c0.19388,0.06981 0.34637,0.21341 0.2508,0.57645c-0.28861,1.09634 -0.81195,2.31129 -1.19077,3.09902z" fill="#fed5c7"/></g><path d="M237.07216,184.29317c0,0 -1.38059,-0.17372 -1.24138,-0.37453c0.23647,-0.34109 0.67734,-0.64418 1.03622,-0.50066c0.55898,0.22352 0.20516,0.87518 0.20516,0.87518z" fill="#c0c2c6"/><path d="M237.69024,185.5659c0,0 -1.38059,-0.17372 -1.24138,-0.37453c0.23647,-0.34109 0.67734,-0.64418 1.03622,-0.50066c0.55898,0.22352 0.20516,0.87518 0.20516,0.87518z" fill="#c0c2c6"/><path d="M238.28514,186.69107c0,0 -1.38059,-0.17372 -1.24138,-0.37453c0.23647,-0.34109 0.67734,-0.64418 1.03622,-0.50066c0.55898,0.22352 0.20516,0.87518 0.20516,0.87518z" fill="#c0c2c6"/><path d="M239.74683,185.81211c0,0 -1.34839,0.34365 -1.29232,0.10582c0.0952,-0.40397 0.39457,-0.8474 0.78108,-0.84518c0.60201,0.00342 0.51126,0.73937 0.51126,0.73937z" fill="#c0c2c6"/><path d="M238.8721,187.4261c0,0 -1.38059,-0.17372 -1.24138,-0.37453c0.23647,-0.34109 0.67734,-0.64418 1.03622,-0.50066c0.55898,0.22352 0.20516,0.87518 0.20516,0.87518z" fill="#c0c2c6"/></g><g><path d="M240.66856,180.77451l0.44227,-1.05141l1.28528,0.6538l-0.41295,1.06906z" fill="#83c4ac"/><path d="M243.20996,179.47538c-0.42221,1.01669 -1.03208,1.03446 -1.58606,0.76644c-0.55395,-0.26804 -0.89752,-0.66574 -0.42001,-1.73709c0.2686,-0.60262 0.93537,-0.87386 1.48935,-0.60584c0.55397,0.26804 0.76997,0.96661 0.51671,1.57646z" fill="#20201f"/><path d="M241.19472,182.83425l-1.03938,-0.47335l-0.49868,-0.43672l1.02956,-1.17902l1.34394,0.68913l-0.28407,1.46789z" fill="#bebec0"/></g></g><g data-paper-data="{&quot;index&quot;:null}" stroke="none" stroke-width="0" stroke-linecap="butt" stroke-linejoin="miter"><path d="M237.88858,179.70817c0,0 -3.95453,-0.00868 -4.5606,-0.56616c-0.65856,-0.60578 -1.0027,-2.64064 -1.0027,-2.64064l1.57147,2.07826l3.06898,0.16817l0.92284,0.96037z" fill="#f79db4"/><path d="M238.84494,176.67465c-0.0853,0.68507 -0.71771,0.90623 -1.40278,0.82092c-0.68507,-0.0853 -1.16336,-0.44476 -1.07805,-1.12983c0.0853,-0.68506 0.7098,-1.17127 1.39487,-1.08596c0.68507,0.08531 1.17128,0.70982 1.08597,1.39489z" fill="#83c4ac"/><path d="M238.83911,184.81287c-0.5306,0.20117 -1.2794,0.06551 -1.76477,-0.73913c-0.50508,0.08399 -1.17523,-0.23542 -1.2576,-0.99436c-0.77587,-0.13363 -1.34546,-0.74471 -1.26213,-1.55238c-0.74908,-0.40181 -0.52723,-1.31284 -0.64795,-1.94448c-0.41036,-0.44362 -0.67657,-1.19429 -0.17799,-1.99793c0.40324,-0.77583 0.37383,-1.41903 0.37383,-1.41903l1.74867,0.82534c0,0 0.06837,0.32096 0.12984,1.11937c0.05069,0.65838 -0.11196,1.63769 1.50479,3.06185c1.81316,1.59718 2.43075,1.62426 3.24981,1.40501c0.58043,-0.15536 -1.0942,2.79452 -1.8965,2.23574z" fill="#c0c2c6"/><path d="M242.84467,177.32874c0,0 -0.38164,0.70487 -0.73865,1.23238c-0.35701,0.52752 -0.90832,1.23121 -0.90832,1.23121c0,0 0.0924,0.93041 0.33391,1.68434c0.2415,0.75396 -0.17749,1.22141 -0.67393,1.36648c-0.29501,0.08621 -0.36484,0.54086 -0.76567,0.51302c-0.53333,-0.03705 -0.7138,-0.71396 -1.06171,-0.8054c-0.74355,-0.19541 -1.43308,0.04518 -2.20779,-0.82027c-0.43386,-0.48469 -0.30828,-1.26181 -0.51999,-1.60013c-0.39576,-0.63241 -0.91532,-0.69151 -1.04574,-1.19909c-0.07704,-0.29983 0.29688,-0.58756 0.36315,-0.93001c0.10591,-0.54737 -0.0397,-1.10573 -0.0397,-1.10573c0,0 1.28767,0.44006 2.06947,0.45112c0.7818,0.01104 0.92959,-0.05352 1.6946,-0.39564c0.76501,-0.34212 1.5609,-1.52785 1.5609,-1.52785l1.69795,1.62612l0.2415,0.27944z" fill="#20201f"/><path d="M236.88798,177.64713l0.03615,-0.38198c0,0 0.40459,0.06348 0.6521,0.05973c0.27476,-0.00415 0.42725,-0.0164 0.42725,-0.0164l-0.06012,0.95534l-0.50614,0.02816z" data-paper-data="{&quot;index&quot;:null}" fill="#c274a1"/><path d="M237.58552,179.25867l-0.16113,-0.95695l0.40726,-0.02356l0.1779,1.08098z" data-paper-data="{&quot;index&quot;:null}" fill="#c0c2c6"/><path d="M240.39038,181.0227l-0.05503,-0.50392l0.93261,-0.21564c0,0 0.01287,0.15245 0.05373,0.42419c0.03681,0.2448 0.16563,0.63354 0.16563,0.63354l-0.37091,0.09816z" fill="#c274a1"/><path d="M238.82734,180.46552l1.5402,0.08361l0.0434,0.40563l-1.41509,-0.08733z" fill="#c0c2c6"/><path d="M239.44716,176.45478c1.22852,-1.09216 1.71514,-0.98484 1.71514,-0.98484l1.86704,1.8524c0,0 0.36017,0.42659 -0.60259,1.45985c-0.425,0.45612 -1.2698,0.88352 -1.2698,0.88352l0.12282,-0.8247c0,0 -0.71362,0.15058 -1.05006,0.15016c-0.33042,-0.00041 -0.81668,-0.1068 -0.98026,-0.1803c-0.16856,-0.07572 -1.30191,-1.02291 0.19768,-2.35607z" fill="#c0c0c3"/><path d="M241.56754,176.1583l1.54498,1.24923l-0.79775,0.01926z" fill="#222225"/><g><g><path d="M238.52291,181.46994c-0.62119,0.13782 -1.27641,-0.43385 -1.46348,-1.27688c-0.18707,-0.84305 0.16484,-1.63821 0.78603,-1.77603c0.62119,-0.13782 1.27641,0.43385 1.46348,1.27688c0.18707,0.84305 -0.16485,1.6382 -0.78604,1.77604z" fill="#c0c2c6"/><path d="M239.68479,178.71564c-0.01546,0.2503 -0.23092,0.44068 -0.48122,0.42522c-0.25029,-0.01546 -0.44068,-0.23092 -0.42522,-0.48122c0.01546,-0.25029 0.23093,-0.44068 0.48123,-0.42522c0.2503,0.01547 0.44068,0.23093 0.42522,0.48123z" fill="#000000"/><path d="M239.49081,178.9069c-0.13378,0.13242 -0.22521,-0.01868 -0.35764,-0.15244c-0.13242,-0.13377 -0.25567,-0.19954 -0.12191,-0.33197c0.13377,-0.13243 0.34955,-0.13134 0.48198,0.00242c0.13243,0.13377 0.13134,0.34955 -0.00242,0.48198z" fill="#c478a9"/><path d="M239.83346,181.07055c-0.23574,0.08553 -0.49619,-0.03625 -0.58173,-0.27201c-0.08552,-0.23574 0.03626,-0.49618 0.27202,-0.58172c0.23574,-0.08553 0.49619,0.03625 0.58173,0.27201c0.08553,0.23574 -0.03625,0.49619 -0.27201,0.58173z" fill="#000000"/><path d="M239.58079,180.96882c-0.17476,-0.06996 -0.07259,-0.21401 -0.00264,-0.38877c0.06993,-0.17474 0.08116,-0.31402 0.25592,-0.24407c0.17474,0.06995 0.25972,0.2683 0.18977,0.44306c-0.06995,0.17474 -0.2683,0.25972 -0.44306,0.18977z" fill="#c478a9"/><path d="M239.17903,180.745c-0.05896,0.06257 -0.26178,0.01758 -0.43848,-0.14888c-0.1767,-0.16646 -0.17168,-0.45879 -0.11272,-0.52138c0.05896,-0.06259 0.301,-0.0058 0.47771,0.16067c0.1767,0.16645 0.13246,0.44699 0.0735,0.50958z" fill="#000000"/><path d="M238.75121,178.87009c0.08107,0.02862 0.24892,0.25773 0.16809,0.48665c-0.08083,0.22892 -0.26998,0.39026 -0.35105,0.36164c-0.08109,-0.02862 -0.21946,-0.28617 -0.13863,-0.51509c0.08082,-0.22893 0.2405,-0.36182 0.32157,-0.3332z" data-paper-data="{&quot;index&quot;:null}" fill="#000000"/><path d="M239.02226,180.48403c-0.06242,0.06626 -0.16673,0.06939 -0.233,0.00696c-0.06626,-0.06243 -0.06938,-0.16674 -0.00695,-0.23301c0.06243,-0.06626 0.16674,-0.06938 0.23301,-0.00695c0.06625,0.06242 0.06938,0.16673 0.00695,0.233z" fill="#ffffff"/><path d="M238.52179,179.55963c-0.06995,-0.06588 -0.07324,-0.17602 -0.00735,-0.24595c0.06588,-0.06995 0.17602,-0.07324 0.24595,-0.00735c0.06995,0.06588 0.07324,0.17602 0.00735,0.24595c-0.06588,0.06995 -0.17602,0.07324 -0.24595,0.00735z" fill="#ffffff"/></g><path d="M238.38183,179.81659c0.06479,-0.0112 0.12413,0.3317 0.05934,0.34291c-0.06479,0.01122 -0.14863,-0.05333 -0.16501,-0.14802c-0.01637,-0.09469 0.04091,-0.18366 0.1057,-0.19487z" fill="#000000"/><path d="M238.56928,180.65789c0.04573,0.13402 0.0246,0.26253 -0.04721,0.28703c-0.07182,0.0245 -0.16708,-0.06431 -0.21281,-0.19833c-0.04573,-0.13402 -0.0246,-0.26253 0.04721,-0.28703c0.07182,-0.0245 0.16708,0.06431 0.21281,0.19833z" fill="#ad597c"/><path d="M238.2538,179.20324c0.04573,0.13402 0.0246,0.26253 -0.04721,0.28703c-0.07182,0.0245 -0.16708,-0.06431 -0.21281,-0.19833c-0.04573,-0.13402 -0.0246,-0.26253 0.04721,-0.28703c0.07182,-0.0245 0.16708,0.06431 0.21281,0.19833z" fill="#ad597c"/></g><g fill="#83c4ac"><path d="M241.58052,179.69317c0,0 -0.09963,-0.4505 -0.14683,-0.62942c-0.05312,-0.20131 -0.1562,-0.51919 -0.1562,-0.51919l0.18573,-0.0802c0,0 0.32222,0.24138 0.42909,0.38731c0.11674,0.15938 0.24437,0.53223 0.24437,0.53223l-0.55616,0.30925z"/><path d="M240.56457,178.65029c-0.18433,0.01594 -0.64203,0.07412 -0.64203,0.07412l0.10346,-0.62787c0,0 0.39407,-0.00565 0.58349,0.05047c0.17345,0.05137 0.89928,0.34671 0.89928,0.34671l-0.22462,0.07584c0,0 -0.51213,0.0628 -0.71955,0.08073z" data-paper-data="{&quot;index&quot;:null}"/><path d="M240.17529,179.89492c0,0 0.415,-0.44583 0.61518,-0.68305c0.20018,-0.23721 0.48996,-0.6265 0.48996,-0.6265l0.18598,0.21195c0,0 -0.16799,0.27909 -0.35241,0.51262c-0.18442,0.23354 -0.50413,0.57204 -0.50413,0.57204z"/><path d="M239.94527,179.47626c0,0 0.31884,-0.33931 0.54097,-0.53732c0.22211,-0.19801 0.63847,-0.50023 0.63847,-0.50023l0.21178,0.12608c0,0 -0.4452,0.3714 -0.67006,0.58537c-0.22485,0.21398 -0.67323,0.66511 -0.67323,0.66511z" data-paper-data="{&quot;index&quot;:null}"/></g></g><g data-paper-data="{&quot;index&quot;:null}"><g data-paper-data="{&quot;index&quot;:null}" fill="#86cbb6" stroke="none" stroke-width="0" stroke-linecap="butt" stroke-linejoin="miter"><path d="M250.52988,178.80918c-0.04002,-0.48085 -0.11309,-0.73584 -0.11309,-0.73584l0.08833,-0.68539c0,0 0.59667,0.59784 0.76669,0.99631c0.17002,0.39844 0.29221,1.29674 0.29221,1.29674l-1.01067,0.18074c0,0 0.01647,-0.57169 -0.02351,-1.05257z"/><path d="M249.03531,179.37718c0,0 0.37472,-0.47128 0.55155,-0.69202c0.2436,-0.30407 0.96373,-1.28116 0.96373,-1.28116l0.12719,0.5823c0,0 -0.35524,0.76885 -0.51815,1.0995c-0.13067,0.26526 -0.38405,0.73178 -0.38405,0.73178z"/></g><g stroke="none" stroke-width="0" stroke-linecap="butt" stroke-linejoin="miter"><path d="M253.73375,177.68915c-0.30352,0.7861 -0.65948,1.00122 -1.55711,1.15195c-0.89763,0.15072 -2.24585,-0.87578 -2.24585,-0.87578c0,0 0.79117,-0.51184 1.15528,-0.97095c0.36412,-0.4591 0.72745,-1.40296 0.72745,-1.40296c0,0 0.77422,0.24259 1.31772,0.61325c0.41838,0.28138 0.81482,0.65921 0.60251,1.48451z" data-paper-data="{&quot;index&quot;:null}" fill="#20201f"/><path d="M253.04057,178.49501c-0.55265,0.41675 -1.59399,0.25354 -1.59399,0.25354l0.45637,-0.93891c0,0 1.56431,0.36363 1.13761,0.6854z" data-paper-data="{&quot;index&quot;:null}" fill="#b2b1b2"/></g><path d="M251.73191,171.43998c1.12158,3.14414 -0.1674,6.47709 -2.87899,7.44436c-2.71162,0.96727 -5.819,-0.7974 -6.94057,-3.94153c-1.12156,-3.14414 0.16742,-6.47708 2.87901,-7.44435c2.71161,-0.96728 5.81901,0.79739 6.94058,3.94152z" fill="#f79eb4" stroke="none" stroke-width="0" stroke-linecap="butt" stroke-linejoin="miter"/><path d="M247.14159,179.28272c0.01728,0.00051 -0.97155,0.38492 -2.49104,0.12531c-2.45001,-0.41151 -3.00155,-1.78588 -3.00155,-1.78588l0.95316,-0.03994c0,0 2.14553,0.88257 2.892,1.04817c0.74648,0.16558 1.91297,-0.0408 1.91224,-0.04073" fill="#f79eb4" stroke="#f89db5" stroke-width="0" stroke-linecap="butt" stroke-linejoin="round"/><g fill="#ffd5c5" stroke="none" stroke-width="1" stroke-linecap="round" stroke-linejoin="round"><path d="M244.84046,178.52552c-0.46403,0.29051 -1.05136,0.01448 -1.47419,-0.25462c-0.06918,-0.04405 -0.60894,-0.38998 -1.15185,-1.0813c-0.68121,-0.86747 -0.95852,-2.23444 -1.04766,-2.62366c-0.10627,-0.46422 0.10831,-1.43443 0.19865,-1.60818c0.65025,-1.2505 1.36175,-0.74156 1.4697,-0.67249c0.05149,0.03293 0.23752,0.25381 0.24243,0.59c0.00478,0.32767 -0.15205,1.28445 -0.04221,1.55532c0.118,0.29105 1.2603,1.73647 1.56402,2.59141c0.06123,0.17835 0.08529,0.43332 0.0245,0.61602c-0.07918,0.23777 -0.25851,0.61547 0.07145,0.77979c0.05345,0.02658 0.19572,0.07603 0.14516,0.10772z"/><path d=""/></g><g fill="#000000" stroke="#000000" stroke-width="0.125" stroke-linecap="butt" stroke-linejoin="round"><path d="M246.77344,178.82734c0.04062,0.0518 0.11146,0.34106 0.35667,0.7211c0.16453,0.23557 0.33127,0.46979 0.51776,0.68821c0.11168,0.13075 0.26006,0.23333 0.36545,0.36774c0.00359,0.00456 -0.31681,-0.25221 -0.40023,-0.33496c-0.26155,-0.25942 -0.46506,-0.50535 -0.67976,-0.80395c-0.04718,-0.06557 -0.36063,-0.62683 -0.33633,-0.63177"/><path d="M247.24452,178.82761c-0.0154,0.03263 0.08425,0.34888 0.40049,0.67924c0.31622,0.33036 0.85158,0.75351 0.8924,0.75844c0.01539,0.00184 -0.69564,-0.42534 -0.94531,-0.64988c-0.24967,-0.22456 -0.5887,-0.76028 -0.56603,-0.76492"/></g><g fill="#000000" stroke="none" stroke-width="1" stroke-linecap="round" stroke-linejoin="round"><path d="M244.06625,177.50301c-0.04685,-0.23713 0.00349,-0.67576 0.20338,-0.53861c0.15194,0.10425 0.27455,0.62221 0.2422,0.73062c-0.05596,0.18752 -0.41552,-0.08599 -0.44555,-0.19202z"/><path d=""/></g><path d="M245.14419,171.38308c0.05681,0.00149 -1.81902,0.54296 -2.64099,0.85925c-1.54787,0.59566 -2.38775,1.30186 -2.38775,1.30186c0,0 0.10059,-0.4157 0.13915,-0.52046c0.11904,-0.32362 0.24662,-0.61722 0.42054,-0.91835c0.40913,-0.70829 0.99233,-1.29613 1.65673,-1.76852c0.44277,-0.31481 2.54527,-1.23472 2.56589,-1.21783" fill="#f79eb4" stroke="#f89db5" stroke-width="0" stroke-linecap="butt" stroke-linejoin="round"/><path d="M244.89562,169.01933c-0.01871,-0.00888 -2.55763,1.20995 -3.24139,1.60936c-0.68378,0.3994 -1.61543,1.22774 -1.61543,1.22774c0,0 -0.07842,-0.40867 0.32711,-1.14999c0.3581,-0.65458 0.53023,-1.01241 1.42094,-1.63219c1.15581,-0.80427 2.87918,-1.52805 3.27813,-1.47954" fill="#f79eb4" stroke="#f89db5" stroke-width="0" stroke-linecap="butt" stroke-linejoin="round"/><g stroke="none" stroke-width="1" stroke-linecap="round" stroke-linejoin="round"><path d="M250.63682,175.79453c0.02095,-0.10773 0.52249,-2.84152 -0.31732,-4.37679c-0.6619,-1.21007 -1.39152,-1.71293 -2.64904,-2.58197c-0.96979,-0.67023 -2.6468,-0.70078 -2.66765,-0.73258c-0.0015,-0.00228 3.98684,-1.0358 5.79979,2.24595c1.43694,2.66573 0.56084,5.53627 0.48342,5.67044" fill="#20201f"/><path d="" fill="#ee1a40"/></g><path d="M249.70436,176.45927c-0.02496,-0.01519 0.24447,1.38199 0.7398,2.24624c0.49533,0.86425 1.66306,1.95532 1.65918,1.93952c-0.0037,-0.01523 -2.19435,-1.04345 -2.75266,-1.63488c-0.55832,-0.59142 -0.64665,-1.97096 -0.65747,-1.97753" fill="#f79eb4" stroke="#f89db5" stroke-width="0" stroke-linecap="butt" stroke-linejoin="round"/><path d="M249.31624,175.66329c0.0813,-0.01936 1.97984,0.40737 2.87471,1.04341c0.89489,0.63603 2.70487,1.21082 2.70487,1.21082c0,0 -2.29144,0.19886 -3.22117,-0.05925c-0.92974,-0.25811 -1.92384,-1.33081 -2.03737,-1.40066" fill="#f79eb4" stroke="#f89db5" stroke-width="0" stroke-linecap="butt" stroke-linejoin="round"/><path d="M245.85724,173.35687c-0.20409,-0.57221 -0.93709,-1.77468 -0.93709,-1.77468c0,0 1.7453,-1.29621 2.68004,-0.42515c1.60157,2.33328 -1.83651,4.89176 -1.83651,4.89176c0,0 0.29769,-2.11972 0.09357,-2.69192z" data-paper-data="{&quot;index&quot;:null}" fill="#20201f" stroke="none" stroke-width="0" stroke-linecap="butt" stroke-linejoin="miter"/><path d="M245.88355,176.0332c-0.43237,0.59348 -0.35635,0.77704 -0.30687,0.968c0.08485,0.32758 0.49672,0.5847 0.93662,0.72928c0.6289,0.20672 1.13626,0.48061 1.29082,0.90234c0.02341,0.0639 -0.25535,0.16442 -0.85033,0.21189c-1.26179,0.10064 -2.35062,-0.38825 -2.4049,-0.52455c-0.21689,-0.54453 0.34349,-0.56109 -0.11282,-1.65881c-0.25991,-0.62522 -1.47045,-1.82752 -1.50742,-2.50761c0.12844,-1.39571 1.02981,-2.0615 1.66951,-2.39007c1.9223,-0.98732 2.60341,-0.79902 1.95496,2.11634c-0.09542,0.88766 -0.6,1.68059 -0.66962,2.15317z" fill="#ffffff" stroke="none" stroke-width="0" stroke-linecap="butt" stroke-linejoin="miter"/><path d="M247.65845,178.79516c0,0 -0.40912,-0.31122 -0.46613,-0.47104c-0.05699,-0.15978 -1.13383,-0.7724 -1.13383,-0.7724c0,0 2.3242,-0.16746 2.27512,0.66131c-0.14161,0.38694 -0.67515,0.58215 -0.67515,0.58215z" data-paper-data="{&quot;index&quot;:null}" fill="#20201f" stroke="none" stroke-width="0" stroke-linecap="butt" stroke-linejoin="miter"/><path d="M248.58733,177.00335c0.00667,-0.02243 0.08256,1.19245 0.30259,1.91061c0.22004,0.71814 1.02189,1.9834 1.02189,1.9834c0,0 -1.42508,-0.79332 -1.84706,-1.49878c-0.42197,-0.70546 -0.37194,-2.01016 -0.35233,-2.076" fill="#f79eb4" stroke="#f89db5" stroke-width="0" stroke-linecap="butt" stroke-linejoin="round"/><g fill="#000000" stroke="#000000" stroke-width="0.125" stroke-linecap="butt" stroke-linejoin="round"><path d="M245.98153,171.16688c-0.04213,-0.01091 -0.10577,-0.15092 -0.09046,-0.35868c0.0982,-1.33394 0.40534,-1.60904 0.40534,-1.60904c0,0 -0.34635,0.56624 -0.27249,1.46128c0.01439,0.1743 0.06996,0.39386 0.08886,0.43902c0.01802,0.04307 0.06479,0.0693 0.06433,0.12189"/><path d="M245.52815,171.37659c0,0 -0.05279,-0.0199 -0.13739,-0.1291c-0.15688,-0.20249 -0.36172,-0.78768 -0.41792,-1.0726c-0.13396,-0.67941 -0.0478,-1.11743 -0.0478,-1.11743c0,0 0.05035,0.80443 0.09571,1.04962c0.14084,0.73856 0.5747,1.10337 0.64227,1.14923c0.02976,0.02021 0.10574,0.05769 0.12068,0.08815"/></g><g stroke="none" stroke-linecap="butt" stroke-linejoin="miter"><path d="M244.84006,174.38134c0.6929,-0.19794 1.30653,-0.17664 1.37057,0.04753c0.06404,0.22416 -0.44579,0.56634 -1.1387,0.76426c-0.6929,0.19792 -1.30653,0.17662 -1.37057,-0.04755c-0.06402,-0.22418 0.44579,-0.56635 1.1387,-0.76427z" fill="#169c5b" stroke-width="NaN"/><path d="M245.32677,174.68799c0.02814,0.09852 -0.1837,0.24536 -0.4731,0.32804c-0.28941,0.08269 -0.54685,0.06983 -0.57498,-0.02867c-0.02814,-0.09852 0.1837,-0.24536 0.4731,-0.32804c0.28941,-0.08269 0.54685,-0.06983 0.57498,0.02867z" fill="#000000" stroke-width="0"/><path d="M245.43093,174.54515c0.29279,-0.08364 0.5577,-0.05505 0.59166,0.06382c0.03396,0.11885 -0.17588,0.28305 -0.46871,0.36667c-0.29282,0.08363 -0.5577,0.05505 -0.59166,-0.06382c-0.03395,-0.11885 0.17587,-0.28305 0.4687,-0.36667z" fill="#ffffff" stroke-width="0"/></g><g stroke="none" stroke-linecap="butt" stroke-linejoin="miter"><path d="M245.52864,177.76336c0.48876,-0.13961 0.92155,-0.1246 0.96672,0.03353c0.04518,0.15812 -0.31441,0.39944 -0.80314,0.53906c-0.48874,0.13959 -0.92154,0.12458 -0.96671,-0.03355c-0.04517,-0.15811 0.31443,-0.39942 0.80316,-0.53904z" fill="#169c5b" stroke-width="NaN"/><path d="M245.46639,177.95946c0.20414,-0.05831 0.38571,-0.04927 0.40555,0.02022c0.01986,0.06946 -0.12952,0.17306 -0.33367,0.23136c-0.20414,0.0583 -0.38571,0.04926 -0.40555,-0.02023c-0.01984,-0.06949 0.12954,-0.17309 0.33369,-0.23139z" fill="#000000" stroke-width="0"/><path d="M245.94544,177.87892c0.20652,-0.05898 0.39339,-0.03886 0.41734,0.04501c0.02394,0.08388 -0.12408,0.19964 -0.33061,0.25865c-0.20652,0.05897 -0.39337,0.03884 -0.41732,-0.04503c-0.02395,-0.08386 0.12405,-0.19963 0.33058,-0.25864z" fill="#ffffff" stroke-width="0"/></g><path d="M242.16728,174.71881c0,0 -0.18669,-0.54281 -0.23303,-0.73674c-0.04635,-0.19392 -0.01783,-0.55519 -0.01783,-0.55519" data-paper-data="{&quot;index&quot;:null}" fill="none" stroke="#000000" stroke-width="0.125" stroke-linecap="round" stroke-linejoin="miter"/><g fill="#86cbb6" stroke="none" stroke-width="0" stroke-linecap="butt" stroke-linejoin="miter"><path d="M247.62203,168.84871c0,0 -0.1253,-0.29126 -0.45208,-0.76657c-0.32679,-0.47534 -0.77454,-0.99194 -0.77454,-0.99194l1.07212,-0.59735c0,0 0.56649,0.9238 0.7106,1.42122c0.1441,0.4974 0.04418,1.50211 0.04418,1.50211l-0.60028,-0.56748z"/><path d="M245.70904,167.71951c0,0 0.58743,0.24006 0.90907,0.38669c0.40089,0.18276 1.31135,0.62557 1.31135,0.62557l0.32283,0.63512c0,0 -1.40571,-0.35948 -1.8612,-0.4566c-0.33068,-0.07052 -1.034,-0.22318 -1.034,-0.22318z"/></g><path d="M249.10535,168.10921c1.21951,-0.24873 1.7795,-0.14914 2.55309,0.70482c0.67642,0.94883 0.35624,1.62576 -0.03935,2.19043c-0.51142,0.74003 -1.38017,1.43005 -1.38017,1.43005c0,0 -0.67849,-0.9562 -1.39458,-1.66737c-1.22499,-1.21654 -1.6634,-1.36539 -1.6634,-1.36539c0,0 0.70488,-1.04379 1.92439,-1.29253z" fill="#20201f" stroke="none" stroke-width="0" stroke-linecap="butt" stroke-linejoin="miter"/><path d="M248.92665,169.40799c0,0 1.23116,-0.67524 1.87065,0.23435c0.60657,0.86273 -0.40811,1.69273 -0.40811,1.69273c0,0 -0.30707,-0.57201 -0.64949,-1.02376c-0.58578,-0.77281 -0.81303,-0.9033 -0.81303,-0.9033z" fill="#b2b1b2" stroke="none" stroke-width="0" stroke-linecap="butt" stroke-linejoin="miter"/></g><g data-paper-data="{&quot;index&quot;:null}" stroke-width="0" stroke-linecap="butt" stroke-linejoin="miter"><path d="M239.82287,200.42268c-0.10266,3.03053 -2.56308,3.78383 -2.56308,3.78383c0,0 0.26167,0.049 -0.46597,0.03593c-0.72761,-0.01306 -0.37755,-0.04879 -0.37755,-0.04879c0,0 0.47683,-2.20722 0.99699,-4.02425c-0.38287,-2.79742 -0.83389,-3.57069 -0.83389,-3.57069l0.95428,0.07114c0,0 2.36245,1.59304 2.28927,3.75283z" fill="#cacacd" stroke="none"/><path d="M236.33858,204.22048c0,0 -2.76262,-0.60928 -2.68079,-3.9321c0.09182,-3.7289 2.95132,-3.70349 2.95132,-3.70349c0,0 1.51525,1.35223 1.43664,4.10362c-0.07404,2.59063 -1.70718,3.532 -1.70718,3.532z" fill="#c2e266" stroke="#000000"/><path d="M240.21238,196.91625c0,0 4.07307,0.23725 3.91923,3.85459c-0.15164,3.56574 -4.04393,3.56066 -4.04393,3.56066l0.12468,-7.41524z" fill="#c2e266" stroke="none"/><path d="M240.46595,196.92178c0,0 2.12866,0.9917 2.00068,3.8433c-0.13277,2.88456 -2.0929,3.56955 -2.0929,3.56955l-0.27952,-0.00957l1.65889,-3.5721l-1.63644,-3.85392z" fill="#cacacd" stroke="none"/><path d="M242.01432,200.55306c-0.00058,2.95914 -1.92233,3.78413 -1.92233,3.78413l-3.10527,-0.10331c0,0 1.6524,-1.87918 1.67617,-3.50744c0.02377,-1.62826 -1.56554,-4.07216 -1.56554,-4.07216l3.13321,0.23288c0,0 1.78418,1.55697 1.78375,3.66588z" fill="#c274a1" stroke="none"/><path d="M237.66372,182.97861c0,0 0.3959,-0.22547 0.82887,-0.22403c0.43295,0.00146 1.08521,0.23047 1.08521,0.23047l0.25508,11.28927c0,0 -0.56671,-0.09305 -0.97417,-0.09339c-0.40744,-0.00037 -1.04755,0.09168 -1.04755,0.09168z" fill="#c2e266" stroke="none"/><path d="M237.40331,196.75777c0,0 0.08056,-2.26114 0.15339,-2.34288c0.27648,-0.31025 2.00084,-0.39634 2.47123,-0.04856c0.27776,0.20534 0.15279,2.60702 0.15279,2.60702l-2.7774,-0.21558z" fill="#cacacd" stroke="none"/></g><g data-paper-data="{&quot;index&quot;:null}" stroke="none" stroke-width="0" stroke-linecap="butt" stroke-linejoin="miter"><path d="M240.1309,180.92135c1.3773,0.53055 2.19126,1.74616 1.81801,2.71507c-0.37324,0.96892 -1.79233,1.32431 -3.16964,0.79373c-1.37728,-0.53055 -2.19122,-1.74615 -1.81797,-2.71506c0.37323,-0.9689 1.79234,-1.32431 3.16964,-0.79373z" fill="#20201f"/><path d="M241.30413,176.72107c-0.07772,1.18008 -0.37231,2.52821 -0.60376,3.41016c-0.3309,1.26092 -0.58863,2.39368 -0.58863,2.39368l-1.17372,-0.33342c0,0 0.5932,-1.96622 0.72668,-2.47491c0.21898,-0.8344 0.45321,-1.90323 0.69541,-3.13076c0.06071,-0.30759 0.25647,-0.45435 0.57265,-0.40526c0.21241,0.03298 0.39711,0.14973 0.37136,0.5405z" fill="#fed5c7"/><path d="M239.70704,178.8718l0.25338,-1.11214l1.37915,0.42116l-0.22142,1.12445z" fill="#83c4ac"/><path d="M241.98486,177.15185c-0.23961,1.0745 -0.83719,1.19772 -1.42921,1.02975c-0.59203,-0.16796 -0.99932,-0.50012 -0.71472,-1.63801c0.1601,-0.64005 0.76981,-1.02275 1.36183,-0.85478c0.59199,0.16797 0.92581,0.8185 0.78208,1.46305z" fill="#20201f"/><path d="M240.58227,180.80918l-1.10571,-0.28606l-0.56684,-0.34366l0.80966,-1.3396l1.44305,0.44579l-0.02537,1.49491z" fill="#bebec0"/><g><path d="M240.51901,183.51051c0,0 0.31054,1.45303 0.36779,2.3387c0.0091,0.14112 -0.5949,1.05684 -0.92521,1.42504c-0.1804,0.20111 -0.51411,0.57794 -0.94246,0.42774c-0.10921,-0.03827 -0.48438,-0.4598 -0.48438,-0.4598l-0.41618,0.1353c0,0 -0.24574,-0.08688 -0.34676,-0.20815c-0.10102,-0.12126 -0.18767,-0.40219 -0.18767,-0.40219c0,0 -0.17137,-0.05211 -0.29915,-0.06389c-0.41707,-0.03841 -0.4153,-0.43116 -0.4153,-0.43116c0,0 -0.30574,0.00678 -0.48956,-0.11703c-0.2914,-0.19623 -0.51776,-0.58552 -0.56536,-0.82519c-0.08087,-0.40711 -0.03222,-1.56318 0.32041,-1.72142c0.54921,-0.2465 0.77177,0.46084 0.77177,0.46084c0,0 0.13819,-0.61302 0.4003,-0.88869c0.40356,-0.4245 0.77994,-0.47337 0.77994,-0.47337l2.43181,0.80333z" fill="#20201f"/><path d="M236.90695,184.06933c0,0 -1.08454,0.87178 -1.13214,0.63211c-0.08083,-0.40708 0.00773,-0.93471 0.36036,-1.09295c0.54921,-0.2465 0.77177,0.46084 0.77177,0.46084z" fill="#c0c2c6"/></g></g></g></g></svg>