<svg version="1.1" xmlns="http://www.w3.org/2000/svg" xmlns:xlink="http://www.w3.org/1999/xlink" width="19.72661" height="37.57688" viewBox="0,0,19.72661,37.57688"><g transform="translate(-230.61928,-161.74935)"><g data-paper-data="{&quot;isPaintingLayer&quot;:true}" fill-rule="nonzero" stroke="none" stroke-linecap="butt" stroke-linejoin="miter" stroke-miterlimit="10" stroke-dasharray="" stroke-dashoffset="0" style="mix-blend-mode: normal"><path d="M231.08066,198.16003c-0.52313,-1.81132 2.07886,-5.04158 2.07886,-5.04158c0.35843,-0.49082 0.81107,-0.7876 1.30783,-1.01924c0.43262,-0.20174 0.89871,-0.35408 1.36514,-0.54219c1.002,-0.40407 0.35078,1.1307 0.35078,1.1307c0,0 -0.80715,2.27406 -1.67862,3.20183c-0.64407,0.88429 -3.04183,3.59369 -3.42398,2.2705z" data-paper-data="{&quot;index&quot;:null}" fill="#09649e" stroke-width="0"/><path d="M244.97522,196.5392c-0.70532,-0.96027 -1.21836,-3.15958 -1.21836,-3.15958c0,0 -0.44365,-1.49671 0.43296,-1.00614c0.40806,0.22837 0.81935,0.42358 1.19514,0.66063c0.43148,0.27219 0.81616,0.59957 1.09543,1.09567c0,0 2.06029,3.29321 1.40221,4.9095c-0.48074,1.18073 -2.4058,-1.60648 -2.90738,-2.50008z" data-paper-data="{&quot;index&quot;:null}" fill="#09649e" stroke-width="0"/><path d="M242.06686,190.16707l-1.21867,-5.34369l1.55004,-0.01605c0,0 0.29036,3.55698 1.16944,5.40295c0.26042,0.59337 2.08078,3.91441 2.08078,3.91441c0,0 1.19045,2.0261 1.2408,2.65962c0.06406,0.80587 -1.02785,0.2376 -1.2557,-0.0413c0,0 -0.64415,-1.20864 -1.07674,-1.947c-0.63947,-1.09147 -2.48997,-4.6289 -2.48997,-4.6289z" data-paper-data="{&quot;index&quot;:null}" fill="#ffffff" stroke-width="0"/><path d="M238.45982,189.5962c0,0 -2.00017,2.83015 -2.62211,3.7671c-0.51126,0.77019 -1.12585,2.05926 -1.58981,2.44315c-0.46396,0.3839 -1.2117,0.6028 -1.14471,-0.20283c0.05266,-0.63332 1.63934,-2.69333 1.63934,-2.69333c0,0 2.44962,-3.46222 2.71219,-4.05463c0.88579,-1.84272 1.35878,-4.79542 1.35878,-4.79542l1.54997,0.02168l-1.90363,5.51428z" data-paper-data="{&quot;index&quot;:null}" fill="#ffffff" stroke-width="0"/><path d="M241.00916,175.87827c0,0 0.80924,2.28654 -0.30188,4.23676c-1.22746,2.15442 -5.08306,3.90365 -5.08306,3.90365l1.2899,-3.31523l-1.64733,-4.85834z" data-paper-data="{&quot;index&quot;:null}" fill="#2095ad" stroke-width="0"/><path d="M243.35953,173.28679c-0.49019,-1.5532 -3.43099,-9.22512 -2.36868,-9.6253c0.99592,-0.37518 3.75939,2.88905 4.71702,5.57205c1.10102,3.08463 1.12437,6.38517 1.43146,7.20034c0.57418,1.52418 3.20656,3.94891 3.20656,3.94891c0,0 -4.68281,0.45275 -6.98634,-7.09599z" data-paper-data="{&quot;index&quot;:null}" fill="#2095ad" stroke-width="0"/><path d="M240.61739,175.80518c-0.16811,-0.65828 1.3019,-0.84042 1.54306,-1.51697c0.48975,-1.37401 0.12946,-3.09424 0.22231,-3.12921c0.13854,-0.05218 1.86607,3.91159 2.26113,4.7348c2.22073,4.62754 1.38474,6.21091 1.38474,6.21091c0,0 -4.53748,-2.87812 -5.41125,-6.29954z" data-paper-data="{&quot;index&quot;:null}" fill="#0d4d58" stroke-width="0"/><path d="M232.28048,169.78976c-0.01494,-0.03965 0.36204,-0.57814 0.66705,-1.31666c0.25376,-0.61451 -0.42955,-1.19175 -0.07231,-1.32632c0.78663,-0.29632 2.19797,-1.19522 2.22533,-1.12261c0.02736,0.07261 -0.81855,3.16175 -1.60518,3.45809c-0.78663,0.29633 -1.18755,0.38012 -1.21493,0.30747z" data-paper-data="{&quot;index&quot;:null}" fill="#72878d" stroke-width="0"/><path d="M239.38463,165.19149l-1.57349,0.03505c0,0 -0.6408,-1.28304 -0.24976,-1.62276c2.05651,-1.78669 5.0832,1.15508 5.0832,1.15508c0,0 1.96269,3.08524 2.61898,5.93548c0.71432,3.10228 -0.53587,8.84438 -0.53587,8.84438c0,0 -1.45331,-5.58676 -2.08893,-7.71858c-0.4241,-1.42242 -1.35387,-3.82886 -1.35387,-3.82886z" data-paper-data="{&quot;index&quot;:null}" fill="#2095ad" stroke-width="0"/><path d="M236.78526,163.14479c0,0 -0.06921,-0.92891 0.64671,-1.19861c0.7159,-0.2697 0.889,-0.04842 0.889,-0.04842c0,0 2.0738,-0.77647 3.17164,1.22265c0.09559,0.17408 -2.00575,-0.1042 -2.35426,-0.19359c-0.74103,-0.19007 -2.35309,0.21794 -2.35309,0.21794z" data-paper-data="{&quot;index&quot;:null}" fill="#dceef3" stroke-width="0"/><path d="M233.74423,164.95884c-0.08701,-0.23094 0.88461,-1.63106 1.82255,-2.04559c0.61661,-0.27251 0.80033,0.38901 0.80033,0.38901c0,0 -0.40198,0.91539 -1.00239,1.14157c-0.60041,0.22618 -1.53347,0.74589 -1.62048,0.51494z" data-paper-data="{&quot;index&quot;:null}" fill="#dceef3" stroke-width="0"/><path d="M236.67012,163.09264c1.06232,-0.40019 2.04007,-0.4151 2.22277,0.06988c0.18269,0.48495 -0.59338,1.03525 -1.6557,1.43544c-1.06228,0.40018 -2.09216,0.53023 -2.27487,0.04525c-0.18269,-0.485 0.64548,-1.15039 1.70779,-1.55057z" data-paper-data="{&quot;index&quot;:null}" fill="#e8d548" stroke-width="0"/><path d="M237.94188,164.70322c-0.13283,-0.35261 0.14858,-1.00181 0.76096,-1.23249c0.61239,-0.23071 1.17293,0.25483 1.30576,0.60745c0.13283,0.35262 -0.28218,0.14467 -0.89457,0.37537c-0.6124,0.2307 -1.03929,0.6023 -1.17212,0.24968z" data-paper-data="{&quot;index&quot;:null}" fill="#72878d" stroke-width="0"/><path d="M231.52837,169.4702c0,0 -1.27285,-1.48 -0.80629,-2.82434c0.37397,-1.07747 1.28657,-1.22423 1.28657,-1.22423c0,0 0.23673,-0.60929 1.24448,-0.9967c0.59537,-0.29871 1.9824,0.10505 2.07519,0.17589c0.55353,0.42241 -1.35169,0.23379 -1.76474,0.64232c-1.0589,1.04726 -2.03525,4.22709 -2.03525,4.22709z" data-paper-data="{&quot;index&quot;:null}" fill="#dceef3" stroke-width="0"/><path d="M232.26646,169.90853c0,0 0.0378,-2.69815 0.58325,-2.90361c0.54546,-0.20548 0.52782,0.88731 0.52782,0.88731l-1.11107,2.01629z" data-paper-data="{&quot;index&quot;:null}" fill="#dceef3" stroke-width="0"/><path d="M233.34727,172.27075c0,0 -0.41768,-4.46224 0.14853,-5.13412c0.43528,-0.51649 1.98633,-1.11344 1.98633,-1.11344c0,0 0.1023,5.08808 1.37245,8.45973c1.27015,3.37166 2.24766,6.22005 2.24766,6.22005c0,0 -2.35734,-1.85117 -3.49146,-3.51291c-1.13412,-1.66174 -2.26349,-4.91931 -2.26349,-4.91931z" data-paper-data="{&quot;index&quot;:null}" fill="#2095ad" stroke-width="0"/><path d="M237.79319,168.3555c2.5865,-0.97436 5.30965,0.00968 6.16395,2.16632c1.04959,2.64959 -0.96522,4.61261 -3.31554,5.53153c-1.41312,0.55248 -4.70587,0.87437 -5.92617,-1.94838c-1.25526,-2.05648 0.49128,-4.77512 3.07776,-5.74949z" data-paper-data="{&quot;index&quot;:null}" fill="#ecdebd" stroke-width="0"/><path d="M243.29835,164.46337l-0.08048,-1.35441c0,0 0.65308,0.37256 1.05111,0.87172c0.39804,0.49918 0.93997,1.62511 0.93997,1.62511z" data-paper-data="{&quot;index&quot;:null}" fill="#dceef1" stroke-width="0"/><path d="M232.2362,167.60756c-0.01399,-0.03712 0.70015,-2.28492 1.69266,-2.65882c0.99254,-0.3739 1.9616,0.21627 1.97557,0.2534c0.01399,0.03713 -1.09808,1.10433 -1.82181,1.37697c-0.72373,0.27263 -1.83248,1.06559 -1.84646,1.02846z" data-paper-data="{&quot;index&quot;:null}" fill="#72878d" stroke-width="0"/><path d="M243.1454,165.27529c-0.18875,-0.50108 0.01179,-0.98731 0.01179,-0.98731c0,0 0.72309,0.48762 1.06203,0.71284c0.33894,0.22521 1.12116,0.71377 1.12116,0.71377c0,0 -2.00621,0.06172 -2.19496,-0.43932z" data-paper-data="{&quot;index&quot;:null}" fill="#72878d" stroke-width="0"/><path d="M233.97674,173.88563c0,0 -0.91597,-2.41106 -0.5832,-3.78767c0.33278,-1.37662 1.79722,-3.01948 3.37541,-4.04729c1.57817,-1.02779 2.28485,-0.27587 3.22715,-0.25267c1.77027,0.04357 2.35007,4.72422 2.35007,4.72422c0,0 -2.31404,0.7818 -3.06397,1.3042c-0.85703,0.59704 -1.61565,1.86501 -2.03923,1.86541c-0.28466,0.00028 -0.89987,-0.8031 -0.89987,-0.8031l-0.04395,0.85644c0,0 -1.42889,-1.32919 -1.94097,-0.66415c-0.44818,0.58203 -0.38144,0.80462 -0.38144,0.80462z" data-paper-data="{&quot;index&quot;:null}" fill="#2195ab" stroke-width="0"/><path d="M240.65152,164.56056c-0.34745,-0.17114 -0.77627,-0.62463 -1.05199,-0.78154c-0.52493,-0.29869 -1.32345,-0.10867 -1.32345,-0.10867c0,0 0.54154,-1.01364 0.97481,-1.23214c0.43327,-0.21846 1.51817,-0.12574 1.51817,-0.12574c0,0 0.17227,-0.42536 0.82872,-0.49668c0.53538,-0.05819 1.56323,0.17617 1.68278,0.60035c0.10931,0.3877 0.14492,0.96519 0.11183,1.41269c-0.04753,0.6423 -0.20327,1.10539 -0.20327,1.10539c0,0 -0.91106,0.42749 -2.53764,-0.37369z" data-paper-data="{&quot;index&quot;:null}" fill="#dceef3" stroke-width="0"/><path d="M239.06812,165.05887c0,0 0.41623,0.12734 0.60849,0.34879c0.19227,0.22147 0.4716,0.89531 0.4716,0.89531c0,0 -0.29131,-0.18001 -1.1103,-0.40902c-0.70475,-0.19708 -1.59601,-0.16616 -1.63155,-0.26053c-0.07687,-0.20403 1.66173,-0.57454 1.66173,-0.57454z" data-paper-data="{&quot;index&quot;:null}" fill="#0b4754" stroke-width="0"/><path d="M235.28827,166.58948c0.03555,0.09435 -0.46566,0.73738 -0.86522,1.35046c-0.46432,0.71246 -0.80031,1.64343 -0.80031,1.64343c0,0 -0.17929,-0.85068 -0.19101,-1.28387c-0.01173,-0.43323 0.15298,-0.70671 0.15298,-0.70671c0,0 1.62671,-1.20731 1.70357,-1.00329z" data-paper-data="{&quot;index&quot;:null}" fill="#0b4754" stroke-width="0"/><path d="M234.53721,168.07648c-0.13077,-0.34715 0.15741,-2.0485 0.54537,-3.04362c0.27024,-0.6931 1.02503,-0.13926 1.02503,-0.13926c0,0 1.31684,-0.83908 1.73087,-0.64826c0.25692,0.20906 0.19203,0.93345 0.26544,1.53342c0.06602,0.53926 0.38029,1.04636 0.32266,1.21453c-0.35918,1.04807 -0.9906,1.78179 -1.96053,2.14717c-0.96993,0.36538 -1.70695,-0.47512 -1.92879,-1.06401z" data-paper-data="{&quot;index&quot;:null}" fill="#dceef3" stroke-width="0"/><path d="M243.34239,174.28243l-1.25177,-4.00597l0.74859,-0.74517l1.50581,4.27048z" data-paper-data="{&quot;index&quot;:null}" fill="#2095ad" stroke-width="0"/><path d="M241.51434,172.72137c0.24904,-0.09382 0.05813,-0.03696 0.17422,0.27116c0.11606,0.30812 0.07276,0.38445 0.07276,0.38445c0,0 -0.0829,-0.02878 -0.19898,-0.33689c-0.11606,-0.30812 -0.29703,-0.22488 -0.048,-0.3187z" data-paper-data="{&quot;index&quot;:null}" fill="#d0bf96" stroke-width="0"/><path d="M235.58558,174.64325c0.24904,-0.09382 0.05813,-0.03696 0.1742,0.27115c0.11607,0.30809 0.07277,0.38442 0.07277,0.38442c0,0 -0.08291,-0.02876 -0.19897,-0.33688c-0.11606,-0.30811 -0.29703,-0.22488 -0.04799,-0.3187z" data-paper-data="{&quot;index&quot;:null}" fill="#d0bf96" stroke-width="0"/><path d="M235.96373,174.65092c0.24904,-0.09382 0.05813,-0.03696 0.17422,0.27116c0.11607,0.30809 0.07275,0.38442 0.07275,0.38442c0,0 -0.08288,-0.02875 -0.19896,-0.33686c-0.11606,-0.30812 -0.29703,-0.22488 -0.048,-0.3187z" data-paper-data="{&quot;index&quot;:null}" fill="#d0bf96" stroke-width="0"/><path d="M241.23519,172.97666c0.24904,-0.09382 0.05813,-0.03696 0.17422,0.27116c0.11607,0.30809 0.07276,0.38442 0.07276,0.38442c0,0 -0.08289,-0.02876 -0.19896,-0.33688c-0.11605,-0.30812 -0.29705,-0.22488 -0.048,-0.3187z" data-paper-data="{&quot;index&quot;:null}" fill="#d0bf96" stroke-width="0"/><path d="M244.1582,173.36657c0,0 -1.26351,-2.14352 -1.77673,-2.94547c-0.37564,-0.58701 -1.02081,-1.42588 -1.02081,-1.42588c0,0 0.47844,-1.07471 0.84509,-0.81155c0.36664,0.26315 1.97084,1.43534 2.27294,2.76058c0.30211,1.32523 -0.32049,2.42233 -0.32049,2.42233z" data-paper-data="{&quot;index&quot;:null}" fill="#2195ab" stroke-width="0"/><g data-paper-data="{&quot;index&quot;:null}" stroke-width="0"><path d="M240.98216,196.68236c0,0 -0.00457,-1.79031 -0.20086,-2.91438c-0.19628,-1.12406 -1.6302,-5.19804 -1.6302,-5.19804c0,0 1.92844,4.38065 3.03031,4.49908c1.10203,0.11845 2.32282,-3.93463 2.40932,-2.99618c0.45682,4.9565 -3.60857,6.60949 -3.60857,6.60949z" fill="#2095ad"/><path d="M241.12936,179.35178c0,0 1.7171,3.76461 2.69228,6.28166c1.18163,3.04992 0.73248,6.75719 -0.35102,7.91021c-1.08349,1.15302 -3.82894,-2.96498 -4.21864,-5.07907c-0.42211,-2.2899 1.87738,-9.11277 1.87738,-9.11277z" fill="#ffffff"/></g><g data-paper-data="{&quot;index&quot;:null}" stroke-width="0"><path d="M235.44596,192.31817c0.22383,-0.13611 4.34516,-6.8977 4.34516,-6.8977c0,0 -0.30629,2.7496 -0.99335,4.81314c-0.37872,1.13744 -1.12078,2.51934 -1.40756,3.34359c-0.4846,1.39268 -0.10493,1.86542 -0.10493,1.86542c0,0 -1.05205,-1.16994 -1.40002,-1.78139c-0.34799,-0.61145 -0.66314,-1.20696 -0.4393,-1.34305z" fill="#2095ad"/><path d="M239.39003,187.12646c-1.24818,4.26031 -3.92588,5.7873 -3.92588,5.7873c0,0 -1.78813,-2.81228 -0.09092,-7.25107c1.32653,-3.4693 2.92507,-4.99572 3.11309,-5.70466c0.12705,-0.479 0.36129,-0.11564 0.44292,-0.35609c0.04344,-0.12793 -0.30729,-0.57024 -0.27572,-0.64821c0.16434,-0.40606 0.56803,0.13131 0.56803,0.13131c0,0 1.9026,2.12245 0.16848,8.04143z" fill="#ffffff"/></g><g data-paper-data="{&quot;index&quot;:null}" stroke-width="0"><path d="M237.82967,187.34792c0,0 2.64495,3.76712 4.01187,3.35738c1.38716,-0.41581 2.36278,-5.08754 2.36278,-5.08754c0,0 1.6266,1.6263 0.41664,5.17025c-0.69618,2.04744 -2.13034,6.2016 -2.13034,6.2016c0,0 -2.65905,-3.21709 -3.84067,-5.18048c-0.98166,-1.63112 -0.8203,-4.46122 -0.8203,-4.46122z" fill="#2095ad"/><path d="M242.10446,180.80216c1.60311,1.33328 2.18004,4.9759 2.18004,4.9759c0.03604,0.23628 0.49299,4.23779 -1.69358,5.24883c-1.95541,0.84767 -4.75157,-3.62982 -4.75157,-3.62982c0,0 -0.38771,-2.38433 -0.43623,-4.28362c-0.05831,-2.28184 1.81579,-4.10865 3.03924,-4.61009c1.22344,-0.50143 0.63328,0.03474 1.66209,2.2988z" fill="#ffffff"/></g><g data-paper-data="{&quot;index&quot;:null}" stroke-width="0"><path d="M237.09003,197.35582c0,0 -0.88824,-1.64622 -1.56457,-4.08561c-0.51129,-1.84414 -0.32897,-4.68567 -0.32897,-4.68567l7.19297,0.3289c0,0 -2.07147,3.41834 -2.567,4.9276c-0.49554,1.50929 -2.73243,3.51478 -2.73243,3.51478z" fill="#2095ad"/><path d="M237.38145,193.0482c-2.07111,-0.45495 -2.41611,-3.41179 -2.18494,-4.46362c0.22942,-1.0439 -0.03497,-2.71836 2.76485,-5.52719c1.90955,-1.91569 1.49217,-3.91833 1.49217,-3.91833l1.411,0.10873c0,0 3.17649,3.54148 2.7621,6.56482c-0.38768,2.82839 -4.25424,7.67292 -6.24516,7.23557z" fill="#ffffff"/></g><path d="M239.5067,176.0908c0.27246,-0.00545 1.2689,-0.17926 1.55757,-0.0165c0.92565,0.57288 0.47447,1.53525 0.46481,3.00473c0.04482,0.18351 0.20552,0.58937 0.20552,0.58937c0,0 -0.69081,-0.27757 -0.97057,-0.4092c-0.18124,-0.08529 -0.5448,-0.3038 -0.5448,-0.3038c0,0 -0.43919,0.0822 -0.55229,0.06524c-0.22658,-0.034 -1.06623,0.69924 -1.06623,0.69924l-0.10769,0.14414c0,0 0.17315,-0.41292 0.15714,-0.81854c-0.01917,-0.48607 -0.22349,-0.99826 -0.15702,-1.27053c0,0 0.44074,-1.67264 1.01355,-1.68411z" data-paper-data="{&quot;index&quot;:null}" fill="#09649e" stroke-width="0"/><g data-paper-data="{&quot;index&quot;:null}"><path d="M240.21052,176.36089c0.17143,0.06563 0.31393,0.33327 0.40543,0.71282c0.0916,0.3795 0.13227,0.87078 0.1003,1.38346c-0.03195,0.51278 -0.13052,0.95076 -0.26398,1.24407c-0.13356,0.29335 -0.30194,0.44214 -0.47339,0.37651c-0.17156,-0.06569 -0.31395,-0.33336 -0.40555,-0.71287c-0.09149,-0.37954 -0.13226,-0.87077 -0.10029,-1.38345c0.03193,-0.51279 0.13061,-0.95078 0.26407,-1.2441c0.13345,-0.29331 0.30182,-0.44211 0.47339,-0.37642z" fill="#5ed161" stroke-width="0.01872"/><g data-paper-data="{&quot;index&quot;:null}" fill="#21683c" stroke-width="0.01872"><path d="M240.15796,177.20446c0.09361,0.03584 0.17145,0.182 0.22141,0.38927c0.05003,0.20725 0.07224,0.47554 0.05478,0.75553c-0.01745,0.28004 -0.07128,0.51921 -0.14416,0.67939c-0.07293,0.1602 -0.16488,0.24145 -0.25852,0.20562c-0.09368,-0.03588 -0.17145,-0.18206 -0.22148,-0.38932c-0.04996,-0.20727 -0.07223,-0.47554 -0.05477,-0.75553c0.01744,-0.28003 0.07134,-0.51923 0.14421,-0.67942c0.07288,-0.16017 0.16483,-0.24144 0.25852,-0.20557z"/></g><path d="M240.08102,177.1237c0.05974,0.02073 0.10434,0.10947 0.1283,0.23625c0.02392,0.1267 0.02711,0.29144 0.00392,0.46389c-0.02324,0.17238 -0.06848,0.32023 -0.12292,0.4198c-0.05443,0.09956 -0.11794,0.15089 -0.17758,0.13011c-0.05969,-0.02067 -0.10433,-0.10949 -0.12827,-0.23626c-0.02393,-0.12672 -0.02716,-0.29136 -0.00389,-0.46383c0.02321,-0.17246 0.06845,-0.3203 0.12289,-0.41986c0.05435,-0.09954 0.11786,-0.15079 0.17758,-0.13013z" fill="#ffffff" stroke-width="0.01896"/></g><path d="M240.56981,178.81255c0,0 0.32502,0.36461 0.54349,0.39606c0.21848,0.03144 0.48021,0.06912 0.48021,0.06912l0.38151,0.35899c0,0 -0.62873,0.02881 -0.8657,-0.06457c-0.23697,-0.09338 -0.56325,-0.45483 -0.56325,-0.45483z" data-paper-data="{&quot;index&quot;:null}" fill="#2490a6" stroke-width="0"/><path d="M238.32281,179.84003l0.4964,-0.43887c0,0 0.00592,-0.06022 0.18017,-0.10323c0.17424,-0.04302 0.46203,-0.51785 0.46203,-0.51785l0.05733,0.24977c0,0 -0.19471,0.43687 -0.38145,0.5489c-0.18673,0.11202 -0.81447,0.26128 -0.81447,0.26128z" data-paper-data="{&quot;index&quot;:null}" fill="#2490a6" stroke-width="0"/><path d="M238.69882,179.53069l0.50242,1.51864l0.88182,0.30613c0,0 0.30122,-0.38597 0.57816,-0.53493c0.27694,-0.14896 1.07207,-1.34169 1.07207,-1.34169l0.43324,0.41178c0,0 -0.55937,0.89778 -1.18418,1.2486c-0.62479,0.35082 -1.15795,1.07547 -1.15795,1.07547l-0.19687,0.43312l-0.8228,0.15272l-0.33588,-0.64318l0.18261,-0.42908l-0.25252,-1.70739z" data-paper-data="{&quot;index&quot;:null}" fill="#eec522" stroke-width="0"/><g data-paper-data="{&quot;index&quot;:null}" stroke-width="0.17188"><path d="M238.23231,182.53325c-0.22285,0.42717 -1.02122,1.87795 -1.37301,1.70913c-0.45502,-0.21693 -0.9581,-1.16424 -0.87275,-1.78251c0.13021,-0.9409 0.65794,-2.01501 1.08289,-2.90431c0.6726,-1.40699 1.43247,-3.50969 1.81831,-3.66302c0.38574,-0.1534 0.61801,1.43696 0.55342,2.31166c-0.0646,0.87471 -0.53501,3.03694 -1.20886,4.32906z" data-paper-data="{&quot;index&quot;:null}" fill="#09649e"/><path d="M236.8479,184.2253c0.42487,-0.15331 0.64192,0.10005 0.70127,0.26461c0.05906,0.18231 -0.14712,0.43227 -0.13911,0.71666c-0.19414,1.40701 -0.50233,1.97562 -1.08501,2.45618c-0.45686,-0.25123 0.59066,-1.98108 -0.09054,-1.52152c-1.02415,0.45874 -0.81154,2.14487 -1.15467,2.30024c-0.29766,0.13478 -0.12579,-1.2562 -0.24786,-1.04837c-0.05391,0.0918 -0.1351,1.21818 -0.49715,1.19749c-0.37658,-0.07895 0.12751,-1.20278 0.12751,-1.20278c0,0 -0.09989,0.91557 -0.42565,0.73111c-0.32575,-0.18446 0.03607,-0.75793 0.06904,-1.0672c-0.03936,-0.11292 0.61526,-1.42271 0.71805,-1.63215c0.44046,-0.89724 0.1733,-1.63688 0.52408,-1.61759c0.47302,0.02604 0.18762,0.09882 0.54394,0.24145c0.21173,0.08488 0.94638,0.18521 0.95604,0.18183z" fill="#ebd9bb"/><path d="M238.28045,183.271c0.11981,0.56735 -0.82646,1.34445 -0.76128,1.91266c-0.0232,-0.17557 -0.42445,-0.24533 -0.42445,-0.24533c-0.03258,-0.005 -0.5211,-0.02062 -1.1076,0.15346c-0.48224,0.1431 -0.76533,0.0977 -0.89459,-0.1242c-0.08957,-0.15339 -0.39615,-0.33329 -0.25342,-0.67174c0.15172,-0.35957 0.23418,-0.8927 0.49097,-1.20247c0.11116,-0.13413 0.29714,-0.62645 0.41944,-0.69984c0.18623,-0.11146 0.1641,0.18101 0.13577,0.13251c-0.14153,-0.24216 0.45244,0.21267 0.75444,0.23899c0,0 1.55974,0.20952 1.64069,0.50596z" fill="#ecc51e"/></g><g data-paper-data="{&quot;index&quot;:null}" stroke-width="0.17188"><path d="M237.38425,180.96575c0.49773,-1.36965 1.7745,-3.17697 2.3759,-3.81539c0.60139,-0.63842 1.93105,-1.5413 2.07847,-1.15324c0.14755,0.38809 -0.88982,2.36865 -1.4731,3.81496c-0.36879,0.91403 -0.80442,2.02866 -1.41033,2.76021c-0.39829,0.48053 -1.43666,0.74936 -1.90395,0.56034c-0.3621,-0.1454 0.16852,-1.71403 0.33302,-2.16688z" data-paper-data="{&quot;index&quot;:null}" fill="#09649e"/><path d="M237.07159,183.12953c0.00403,0.0094 0.57423,0.48339 0.77982,0.58219c0.34586,0.16643 0.20676,-0.0932 0.54546,0.23803c0.25115,0.24566 -0.47474,0.54821 -0.83889,1.47903c-0.08501,0.21726 -0.60876,1.58464 -0.71861,1.63189c-0.20579,0.23322 -0.38429,0.88737 -0.74034,0.77173c-0.35605,-0.11563 0.25165,-0.80769 0.25165,-0.80769c0,0 -0.48828,1.13078 -0.80084,0.9064c-0.2598,-0.25301 0.51601,-1.07366 0.54728,-1.17542c0.07081,-0.23039 -0.83886,0.83586 -0.94051,0.52532c-0.11718,-0.35798 1.26982,-1.34004 0.91639,-2.40512c-0.12121,-0.81274 -0.68933,1.12813 -1.18318,0.9609c-0.03917,-0.75429 0.17199,-1.3656 1.07844,-2.45909c0.21513,-0.18617 0.26018,-0.50705 0.43452,-0.58664c0.16143,-0.06739 0.49488,-0.07845 0.66879,0.33841z" fill="#ebd9bb"/><path d="M236.8077,181.42855c0.27327,-0.14053 1.48127,0.86817 1.48127,0.86817c0.22339,0.20494 0.95998,0.33576 0.68581,0.39494c-0.05488,0.01186 0.14582,-0.20198 0.18941,0.01061c0.02847,0.13976 -0.20897,0.60943 -0.23279,0.78199c-0.05498,0.3986 -0.39242,0.81949 -0.55511,1.17423c-0.1532,0.33385 -0.49292,0.22926 -0.66653,0.26683c-0.25095,0.05455 -0.47562,-0.12352 -0.69581,-0.57579c-0.26777,-0.55008 -0.60923,-0.89979 -0.63493,-0.92043c0,0 -0.32245,-0.2488 -0.4676,-0.14732c0.46304,-0.33571 0.39697,-1.55838 0.89629,-1.85323z" fill="#ecc51e"/></g><path d="M239.70065,175.36111c-0.15341,0 -0.27778,-0.12437 -0.27778,-0.27778c0,-0.15341 0.12437,-0.27778 0.27778,-0.27778c0.15341,0 0.27778,0.12437 0.27778,0.27778c0,0.15341 -0.12437,0.27778 -0.27778,0.27778z" data-paper-data="{&quot;index&quot;:null}" fill="#000000" stroke-width="0"/><path d="M239.84548,172.16432l0.12132,-0.36948l1.47792,0.48529l-0.12132,0.36948z" data-paper-data="{&quot;index&quot;:null}" fill="#000000" stroke-width="0"/><path d="M240.5569,173.01906l-0.36461,-0.13525l0.54101,-1.45844l0.36461,0.13525z" data-paper-data="{&quot;index&quot;:null}" fill="#000000" stroke-width="0"/><path d="M234.67881,173.88654l0.12132,-0.36948l1.47792,0.48529l-0.12132,0.36948z" data-paper-data="{&quot;index&quot;:null}" fill="#000000" stroke-width="0"/><path d="M235.39023,174.74129l-0.36462,-0.13525l0.54101,-1.45844l0.36462,0.13525z" data-paper-data="{&quot;index&quot;:null}" fill="#000000" stroke-width="0"/></g></g></svg>