<svg version="1.1" xmlns="http://www.w3.org/2000/svg" xmlns:xlink="http://www.w3.org/1999/xlink" width="51.16757" height="85.99423" viewBox="0,0,51.16757,85.99423"><g transform="translate(-211.21058,-120.19331)"><g data-paper-data="{&quot;isPaintingLayer&quot;:true}" fill-rule="nonzero" stroke-linejoin="miter" stroke-miterlimit="10" stroke-dasharray="" stroke-dashoffset="0" style="mix-blend-mode: normal"><g stroke="none" stroke-width="0" stroke-linecap="butt"><path d="M245.1586,190.59506c1.16706,-5.06699 5.72823,-0.74675 6.34598,-1.31499c2.67611,-2.4617 6.11602,-4.80742 8.45623,-2.39163c0.88965,0.9184 -2.52519,3.40422 -5.2013,5.86593c-2.02557,1.86329 -5.68056,3.26285 -7.40073,3.45309c-0.55244,0.06109 -2.65272,-2.7586 -2.20018,-5.61239z" fill="#09031a"/><path d="M250.4247,193.6846c0,0 -1.98564,-2.47621 -0.06869,-4.67376c0.01908,-0.02187 1.38377,-1.34325 2.53873,-1.96309c1.19143,-0.63941 1.93138,-0.18413 1.93138,-0.18413c0,0 -1.72249,1.80718 -2.15659,2.72108c-0.43409,0.91389 -0.20381,2.24823 -0.20381,2.24823z" fill="#b16e27"/><path d="M255.9018,191.27107c2.4042,-2.11275 4.12843,-4.32851 4.12843,-4.32851c0,0 2.71388,-0.07814 -2.41098,4.40018c-0.9271,0.81014 -3.43506,2.97254 -4.75943,3.78341c-2.11846,1.29706 -5.67279,1.30654 -5.82259,1.14369c-0.16551,-0.17993 2.33283,-0.96851 5.07667,-2.44539c1.29242,-0.69564 2.63929,-1.54399 3.7879,-2.55336z" fill="#a75c1e"/><path d="M250.40803,194.82061c-0.49504,-0.53816 -0.22408,-1.59285 0.60523,-2.3557c0.8293,-0.76286 1.9029,-0.94501 2.39795,-0.40684c0.49504,0.53816 0.22408,1.59285 -0.60523,2.35571c-0.82931,0.76286 -1.9029,0.94501 -2.39795,0.40684z" fill="#999999"/><path d="M251.31472,194.07504c-0.14608,-0.1588 0.03424,-0.56234 0.40275,-0.90132c0.36852,-0.33899 0.78567,-0.48505 0.93176,-0.32625c0.14608,0.1588 -0.03424,0.56234 -0.40276,0.90133c-0.36852,0.33899 -0.78567,0.48506 -0.93175,0.32626z" fill="#b16e27"/></g><path d="M226.72188,169.38957c-0.16201,-0.43534 0.75255,-1.23536 2.12879,-1.7475c1.37625,-0.51215 2.44343,-0.59084 2.44343,-0.59084c0,0 4.38403,1.81531 4.16759,2.53198c-0.13699,0.4536 -3.04223,3.10917 -3.83624,3.32085c-0.08789,0.02343 -0.81067,1.41581 -0.81067,1.41581c0,0 -0.44888,-0.53919 -0.50354,-1.25658c-0.04519,-0.59289 0.1525,-1.42381 0.06339,-1.27729c-0.50176,0.82493 -0.93812,1.71354 -0.93812,1.71354c0,0 -0.31887,-0.50838 -0.27074,-1.15737c0.03923,-0.52906 0.28702,-1.16537 0.20052,-1.13398c-0.4405,0.15987 -1.10959,0.459 -1.10959,0.459c0,0 -0.13223,-0.91819 -0.02766,-1.32543c0.10456,-0.40724 0.59805,-0.89611 0.59805,-0.89611c0,0 -0.69551,-0.04019 -1.19438,0.00428c-0.41872,0.03732 -0.83689,0.13827 -0.91082,-0.06038z" fill="#5133c8" stroke="none" stroke-width="NaN" stroke-linecap="butt"/><g><path d="M246.91311,175.12065c-2.67279,-0.07609 -5.20559,-5.53535 -5.65717,-12.19359c-0.24119,-3.5562 0.16011,-6.73518 0.99362,-8.91382c0.04271,-0.11165 0.72205,-2.67855 0.767,-2.78486c0.72027,-1.70324 1.08915,-0.25274 2.26124,-0.21937c1.13377,0.03228 1.19177,-1.25632 2.12698,0.39384c0.15263,0.2693 1.35121,2.84541 1.49395,3.14789c0.33241,0.70439 0.63626,1.49501 0.90347,2.35434c0.57253,1.84121 0.97677,3.99785 1.13274,6.29752c0.45158,6.65825 -1.34907,11.99414 -4.02187,11.91805z" fill="#462fb6" stroke="none" stroke-width="0" stroke-linecap="butt"/><path d="M241.64209,166.16375c0,0 0.76417,1.95017 4.74944,1.97985c2.41439,0.01798 4.62979,-1.58073 4.62979,-1.58073c0,0 -0.11617,1.27802 -0.20428,2.04229c-0.12811,1.11112 -0.35822,1.95907 -0.35822,1.95907c0,0 -1.23762,1.31292 -3.32775,1.52812c-1.85077,0.19055 -4.00583,-0.8452 -4.00583,-0.8452c0,0 -0.50788,-0.79639 -0.83305,-2.1308c-0.22883,-0.93908 -0.6501,-2.95257 -0.6501,-2.95257z" fill="#0d0627" stroke="none" stroke-width="0" stroke-linecap="butt"/><path d="M241.23811,159.95456c0,0 0.76159,1.24352 4.74685,1.27319c2.41439,0.01798 4.48019,-1.16685 4.48019,-1.16685c0,0 0.30813,1.20421 0.37459,1.85439c0.06645,0.65019 0.02693,1.54432 0.02693,1.54432c0,0 -2.53823,1.26522 -4.62836,1.48042c-1.85077,0.19055 -4.90475,-1.15749 -4.90475,-1.15749c0,0 -0.12958,-1.13486 -0.1476,-1.85775c-0.01802,-0.72288 0.05215,-1.97024 0.05215,-1.97024z" fill="#0d0627" stroke="none" stroke-width="0" stroke-linecap="butt"/><path d="M242.23674,154.27891c0,0 0.34249,1.12238 3.2133,1.21212c2.41439,0.01798 3.54021,-0.7051 3.54021,-0.7051c0,0 0.38224,0.74751 0.53886,1.20045c0.15662,0.45294 0.44539,1.75913 0.44539,1.75913c0,0 -2.54148,0.87274 -4.30354,0.88357c-1.76207,0.01083 -4.29722,-0.8307 -4.29722,-0.8307c0,0 0.1719,-0.91397 0.28753,-1.73367c0.101,-0.71602 0.57549,-1.78582 0.57549,-1.78582z" fill="#0d0627" stroke="none" stroke-width="0" stroke-linecap="butt"/><path d="M242.6367,151.01617c0,0 -1.40952,-1.0614 -1.65447,-1.98025c-0.19312,-0.72446 0.67907,-1.36713 0.87466,-1.3353c0.08217,0.01337 -0.91422,-1.71627 -0.40888,-2.36609c0.79807,-1.02623 1.74079,-0.11626 1.74079,-0.11626c0,0 0.42138,-0.50332 0.89836,-0.5165c0.477,-0.01318 1.02869,0.18603 1.09745,0.46136c0.03832,0.15344 -0.06501,-0.3817 0.37503,-0.4413c0.44002,-0.0596 1.11262,0.2398 1.11262,0.2398c0,0 0.33803,-0.25851 0.72562,-0.29946c1.21821,-0.12869 0.64248,1.6106 0.56069,2.63992c-0.12537,1.57785 -0.71708,2.65177 -0.76247,2.7917c-0.0956,0.29473 1.44133,1.2549 1.0978,1.60269c-0.4121,0.41722 -1.2637,1.50622 -2.14999,1.4101c-0.37115,-0.04026 -0.79671,-0.58617 -1.0383,-0.87946c-0.40239,-0.48854 0.26046,0.89425 -0.57814,1.02097c-0.8386,0.12672 -2.08129,-0.72358 -2.08129,-0.72358l0.19051,-1.50834z" fill="#c08f5a" stroke="none" stroke-width="0" stroke-linecap="butt"/><path d="M241.92787,147.60224c0,0 0.62638,0.27839 1.3118,0.27199c0.64102,-0.006 1.34023,-0.30138 1.44336,-0.17844c0.10232,0.12197 1.43917,0.36254 0.07639,1.27015c-0.46904,0.31238 -1.49629,0.22803 -1.49629,0.22803" fill="none" stroke="#b26a37" stroke-width="0.5" stroke-linecap="round"/><path d="M243.23062,145.34033l0.31513,0.76598" fill="none" stroke="#b26a37" stroke-width="0.5" stroke-linecap="round"/><path d="M245.27327,145.28796l0.20677,0.41848" fill="none" stroke="#b26a37" stroke-width="0.5" stroke-linecap="round"/><path d="M246.92484,145.61174l-0.19805,-0.47205" fill="none" stroke="#b26a37" stroke-width="0.5" stroke-linecap="round"/><path d="M247.40317,147.06401c0,0 -0.34294,0.48206 -0.63174,0.48741c-0.31542,0.00585 -0.96376,-0.14235 -0.96376,-0.14235" fill="none" stroke="#b26a37" stroke-width="0.5" stroke-linecap="round"/><path d="M247.11182,150.20522c0,0 -1.3546,0.73142 -2.09441,0.88924c-0.72153,0.15392 -2.29103,0.04628 -2.29103,0.04628" fill="none" stroke="#b26a37" stroke-width="1" stroke-linecap="round"/></g><g stroke="none" stroke-linecap="butt"><path d="M220.08167,192.22607c-1.06117,-0.76856 -3.65563,-3.76919 -3.65563,-3.76919c0,0 -1.41856,-1.00578 -2.35328,-1.45774c-1.14839,-0.55527 -2.86218,-1.10578 -2.86218,-1.10578c0,0 0.98371,-0.34238 1.88654,-0.47721c0.90283,-0.13483 2.32498,-0.25604 2.32498,-0.25604c0,0 -0.90677,-0.85816 -1.48241,-1.64683c-0.57565,-0.78867 -1.28601,-2.14611 -1.28601,-2.14611c0,0 0.64269,-0.07542 1.98542,0.29568c1.34273,0.3711 3.36755,1.18376 3.36755,1.18376l-2.08985,-4.08275c0,0 1.02759,0.32021 2.28686,1.01324c1.25928,0.69303 3.1176,1.96105 3.1176,1.96105c0,0 1.03321,-0.92131 1.49409,-1.49669c0.58752,-0.73349 1.74428,-2.5462 1.74428,-2.5462c0,0 -0.25344,2.49069 -0.44885,3.5251c-0.15363,0.81328 -0.62867,2.17904 -0.62867,2.17904c0,0 1.1576,1.74278 1.22995,3.68984c0.00977,0.26296 1.04939,0.66451 1.96981,0.1085c0.69305,-0.41867 0.7712,1.6368 1.35581,2.38496c1.03064,1.319 1.95592,1.77518 1.95592,1.77518c0,0 -2.6628,3.74949 -4.69625,3.52412c-1.65574,-0.18351 -4.1545,-1.88736 -5.21568,-2.65593z" fill="#1c0e4c" stroke-width="NaN"/><path d="M219.0959,191.2222c0,0 -0.53696,-3.20509 1.53117,-4.88311c1.81596,-1.47341 3.94933,-0.08191 3.94933,-0.08191l0.15804,0.81005c0,0 -0.9325,0.45204 -1.62029,1.14737c-0.74546,0.75363 -0.9253,1.93688 -0.9253,2.46496c0,1.48343 0.21704,3.01156 0.21704,3.01156c0,0 -1.18121,-0.63733 -1.72659,-1.04413c-0.55769,-0.41598 -1.58342,-1.42481 -1.58342,-1.42481z" fill="#684af8" stroke-width="0"/><path d="M226.87925,187.34294c0,0 0.25774,0.78424 1.64143,2.76738c0.36144,0.51802 1.4386,1.31886 1.4386,1.31886c0,0 -0.54005,0.70352 -0.98809,1.1652c-0.51362,0.52926 -1.05748,1.09725 -1.14236,1.09725c-0.26223,0 -2.15693,-1.62531 -2.15693,-3.22861c0,-1.6033 1.20734,-3.12008 1.20734,-3.12008z" fill="#684af8" stroke-width="0"/></g><g stroke="none" stroke-width="0" stroke-linecap="butt"><path d="M225.22677,179.55579c0.36105,-4.67416 6.60284,-14.13361 14.01795,-14.16248c6.11495,-0.02381 11.83423,6.23281 14.01796,14.16248c-0.10852,8.90697 -6.27606,14.16248 -14.01795,14.16248c-7.74189,0 -13.90942,-2.54239 -14.01794,-14.16248z" fill="#684af8"/><path d="M234.5816,168.93122c0,0 2.2054,-0.1074 3.59759,0.18214c1.39219,0.28954 2.66429,1.12016 2.66429,1.12016c0,0 1.88375,-1.19776 3.23827,-1.25872c1.55805,-0.07012 2.23196,0.44142 2.23196,0.44142c0,0 0.48158,-0.82409 0.87359,-1.26625c0.39201,-0.44216 1.34137,-1.23206 1.34137,-1.23206l0.06904,3.32415c0,0 0.80036,-0.29692 1.33701,-0.33867c0.53664,-0.04175 1.22134,0.13963 1.22134,0.13963c0,0 -0.30325,0.41511 -0.7286,1.13955c-0.26727,0.4552 -0.40113,0.94282 -0.40113,0.94282l0.19524,0.54727l1.48771,-0.75986c0,0 0.0699,0.59011 -0.16475,1.22149c-0.16756,0.45088 -0.54933,0.9897 -0.54933,0.9897c0,0 2.22528,1.38844 1.90041,6.77972c-0.22792,3.78233 -1.07871,6.33313 -5.01711,9.16454c-1.52681,1.09765 -6.56077,3.25135 -8.35927,0.3774c-2.27883,-3.64148 -0.31336,-11.62196 -1.3122,-12.86655c-1.18311,-1.47421 -3.35414,-1.78911 -3.35414,-1.78911c0,0 0.65257,-0.50406 1.04185,-0.66528c0.64189,-0.26584 0.90059,-0.27207 0.90059,-0.27207c0,0 -0.67066,-0.80409 -1.90249,-1.66517c-0.91102,-0.63682 -1.25512,-0.93794 -1.25512,-0.93794c0,0 0.72203,-0.34798 1.16935,-0.3976c1.44747,-0.16059 2.07638,0.17816 2.07638,0.17816c0,0 -0.79042,-1.206 -1.3404,-1.94638c-0.54996,-0.74039 -0.96148,-1.15249 -0.96148,-1.15249z" fill="#ffffff"/></g><g data-paper-data="{&quot;index&quot;:null}" stroke="none" stroke-width="0" stroke-linecap="butt"><path d="M230.64165,203.78664c-2.2861,2.66266 -4.66283,0.5624 -5.99653,-0.73431c-0.33303,-0.32379 -1.83419,-2.8217 -1.69266,-4.2175c0.31505,-3.107 3.02517,-6.3382 4.18798,-7.53416c0.63312,-0.65116 -0.14444,-3.07855 1.38976,-2.6812c1.62284,0.4203 5.56043,3.70083 6.23208,4.2555c0.38352,0.31672 -2.36623,-0.04672 -2.12246,0.1903c0.46428,0.45141 -1.14983,4.52436 -1.38589,6.04646c-0.31018,2.00004 0.28194,3.63342 -0.61229,4.67493z" fill="#1c0e4c"/><path d="M231.59132,199.45237c0,0 -0.57652,-1.18261 -2.38744,-2.77534c-1.81091,-1.59273 -5.68669,-1.62382 -5.68669,-1.62382c0,0 1.50711,-5.57862 7.24646,-0.97679c2.90344,2.32799 0.82769,5.37595 0.82769,5.37595z" fill="#f0993f"/><path d="M231.93918,199.25227c-0.39981,0.73774 -0.93752,1.22003 -1.201,1.07724c-0.26348,-0.14281 -0.15294,-0.85661 0.24687,-1.59435c0.39981,-0.73774 0.93752,-1.22003 1.201,-1.07724c0.26348,0.1428 0.15294,0.85661 -0.24687,1.59435z" fill="#c3c3c3"/><path d="M224.19981,194.47565c0.1302,-0.24124 0.43471,0.50558 0.43471,0.50558c0,0 -1.23853,1.87937 -1.44854,3.8371c-0.16983,1.5833 0.53432,3.18313 1.53236,4.15351c2.26053,2.19786 4.69199,1.83735 4.69199,1.83735c0,0 -0.9476,3.45398 -5.07331,-0.57334c-4.67726,-4.5657 -2.02573,-6.26098 -0.13721,-9.76018z" fill="#f0993f"/><g><path d="M223.72258,193.28514c0.88577,-0.91103 1.95221,-1.31086 2.38193,-0.89304c0.42973,0.41782 0.06004,1.49506 -0.82574,2.40609c-0.88575,0.91102 -1.95219,1.31086 -2.38191,0.89304c-0.42972,-0.41781 -0.06004,-1.49506 0.82573,-2.40609z" fill="#c3c3c3"/><path d="M225.49744,193.3155c0.15811,0.15372 0.02208,0.55006 -0.30381,0.88526c-0.32589,0.33518 -0.71826,0.48229 -0.87637,0.32856c-0.15811,-0.15372 -0.02208,-0.55005 0.30381,-0.88525c0.3259,-0.33519 0.71825,-0.4823 0.87636,-0.32857z" fill="#dd6c23"/></g></g><g stroke="none" stroke-width="0" stroke-linecap="butt"><path d="M248.88594,184.16087c2.86747,-0.89765 4.2596,-2.90303 4.2596,-2.90303c0,0 0.3344,2.89 -0.59867,4.22029c-0.24278,0.34614 -1.06118,1.32831 -2.24807,1.9405c-1.91925,0.98995 -4.6686,1.62586 -4.6686,1.62586c0,0 0.29182,-1.9841 0.28415,-2.08509c-0.04962,-0.65407 -0.36555,-1.84894 -0.36555,-1.84894c0,0 1.28951,-0.30857 3.33714,-0.94959z" fill="#f0993f"/><path d="M246.72552,186.60976c0,-0.36184 0.22628,-0.65517 0.50541,-0.65517c0.27913,0 0.50541,0.29333 0.50541,0.65517c0,0.36184 -0.22628,0.65516 -0.50541,0.65516c-0.27913,0 -0.50541,-0.29333 -0.50541,-0.65516z" fill="#a94a00"/><path d="M246.75543,186.59972c0,-0.20828 0.13025,-0.37712 0.29093,-0.37712c0.16067,0 0.29092,0.16884 0.29092,0.37712c0,0.20828 -0.13025,0.37712 -0.29092,0.37712c-0.16067,0 -0.29093,-0.16884 -0.29093,-0.37712z" fill="#ffffff"/><path d="M249.02625,185.82839c0,-0.36184 0.22628,-0.65517 0.50541,-0.65517c0.27913,0 0.50542,0.29333 0.50542,0.65517c0,0.36184 -0.22629,0.65517 -0.50542,0.65517c-0.27913,0 -0.50541,-0.29333 -0.50541,-0.65517z" fill="#a94a00"/><path d="M249.04185,185.82031c0,-0.20828 0.13025,-0.37712 0.29092,-0.37712c0.16067,0 0.29093,0.16884 0.29093,0.37712c0,0.20828 -0.13025,0.37712 -0.29093,0.37712c-0.16067,0 -0.29092,-0.16884 -0.29092,-0.37712z" fill="#ffffff"/></g><g stroke="none" stroke-width="0" stroke-linecap="butt"><path d="M238.13998,185.63423c0.11388,1.113 0.47751,3.84901 0.47751,3.84901c0,0 -2.67312,0.20032 -4.37383,0.05451c-1.70071,-0.14581 -2.60984,-0.11133 -4.20369,-0.55798c-1.59385,-0.44665 -3.03816,-1.29022 -3.37467,-1.56573c-0.71099,-0.58211 -1.12865,-3.96478 -1.12865,-3.96478c0,0 3.46277,0.96024 7.09407,1.54997c2.5232,0.40977 5.49148,0.46106 5.50927,0.635z" fill="#f0993f"/><g><g><path d="M233.82674,192.39488c0.28991,-1.40937 4.27289,-6.48435 4.99213,-6.48435c0.4793,0 0.59835,1.49567 1.04973,3.57725c0.11246,0.51862 -0.3604,1.0051 -0.77619,1.90859c-0.41966,0.9119 -0.78323,2.23948 -0.87042,2.46359c-0.19429,0.49938 -3.25574,1.70926 -3.25574,1.70926c0,0 -1.29866,-2.40066 -1.13951,-3.17435z" fill="#f0993f"/><g><path d="M237.93277,187.92174c-0.50772,-2.24077 0.89718,-4.46886 3.13795,-4.97659c2.24077,-0.50772 4.46886,0.89718 4.97659,3.13795c0.50772,2.24077 -0.89718,4.46886 -3.13795,4.97659c-2.24077,0.50772 -4.46886,-0.89718 -4.97658,-3.13795z" fill="#fde02b"/><path d="M240.27958,187.25569c-0.23577,-1.04056 0.41663,-2.07524 1.45719,-2.31101c1.04056,-0.23577 2.07524,0.41663 2.31101,1.4572c0.23577,1.04056 -0.41663,2.07523 -1.45719,2.31101c-1.04056,0.23577 -2.07524,-0.41663 -2.31101,-1.45719z" fill="#f4a51d"/><path d="M242.66154,186.8215c0.09884,0.43618 -0.56668,0.95874 -1.48647,1.16715c-0.91978,0.20842 -1.74553,0.02376 -1.84437,-0.41243c-0.09884,-0.43618 0.56668,-0.95874 1.48647,-1.16714c0.91978,-0.20842 1.74554,-0.02376 1.84437,0.41243z" fill="#fffed5"/></g></g><g><path d="M235.59688,192.24703c0,-0.39558 0.32068,-0.71626 0.71626,-0.71626c0.39558,0 0.71626,0.32068 0.71626,0.71626c0,0.39558 -0.32068,0.71627 -0.71626,0.71627c-0.39558,0 -0.71626,-0.32069 -0.71626,-0.71627z" fill="#934200"/><path d="M235.64029,192.13851c0,-0.1918 0.15548,-0.34728 0.34727,-0.34728c0.1918,0 0.34727,0.15548 0.34727,0.34728c0,0.1918 -0.15548,0.34727 -0.34727,0.34727c-0.1918,0 -0.34727,-0.15548 -0.34727,-0.34727z" fill="#1c0e4c"/></g><g><path d="M236.89918,190.25016c0,-0.39558 0.32068,-0.71626 0.71626,-0.71626c0.39558,0 0.71627,0.32068 0.71627,0.71626c0,0.39558 -0.32069,0.71626 -0.71627,0.71626c-0.39558,0 -0.71626,-0.32068 -0.71626,-0.71626z" fill="#934200"/><path d="M236.94258,190.14164c0,-0.1918 0.15548,-0.34727 0.34727,-0.34727c0.1918,0 0.34728,0.15548 0.34728,0.34727c0,0.1918 -0.15548,0.34727 -0.34728,0.34727c-0.1918,0 -0.34727,-0.15548 -0.34727,-0.34727z" fill="#684af8"/></g></g></g><g stroke="none" stroke-width="0" stroke-linecap="butt"><path d="M235.93736,161.68594c-0.07023,0.40557 -2.41714,2.41612 -2.41714,2.41612c0,0 -3.1213,-3.47244 -6.86889,-5.9436c-2.86628,-2.07244 -7.85905,-4.26215 -7.59822,-4.41529c0.68192,-0.40038 7.9491,1.44869 11.21457,3.06683c3.82079,1.89332 5.82892,3.95633 5.66969,4.87595z" data-paper-data="{&quot;index&quot;:null}" fill="#ffffff"/><path d="M231.07858,156.52346c0.26085,0.51092 0.55987,1.35915 0.55987,1.35915c0,0 -3.56762,-1.69217 -6.44946,-2.80988c-2.81236,-1.09076 -6.46687,-1.39946 -6.18191,-1.525c0.85687,-0.37753 3.36768,-0.18785 6.43868,0.3439c3.071,0.53175 5.16568,1.33501 5.16568,1.33501c0,0 0.20628,0.78589 0.46713,1.29683z" fill="#1a0c47"/><path d="M236.56598,160.86125c-0.10657,0.05534 -0.64314,0.5878 -1.19215,1.22726c-0.85575,0.9967 -1.81819,2.24013 -1.81819,2.24013c0,0 -1.58086,-2.22011 -2.16678,-3.15704c-0.58593,-0.93693 -2.5992,-2.83666 -2.43028,-2.93089c0.1458,-0.08135 2.6011,0.1436 3.8529,0.50406c1.96975,0.56719 3.96096,2.00929 3.75451,2.11649z" data-paper-data="{&quot;index&quot;:null}" fill="#e8e8e8"/><path d="M239.91088,161.0313c0,0 -1.34543,-0.11268 -2.25182,0.00572c-0.90638,0.1184 -1.81072,0.55746 -1.81072,0.55746c0,0 -1.15384,-1.50468 -1.85848,-2.14925c-0.70465,-0.64457 -2.52745,-1.67698 -2.52745,-1.67698l-1.2383,-2.59952c0,0 2.63176,0.49629 5.07479,2.07189c1.60474,1.03496 4.61198,3.7907 4.61198,3.7907z" data-paper-data="{&quot;index&quot;:null}" fill="#684af8"/></g><g stroke="none" stroke-width="0" stroke-linecap="butt"><path d="M254.96226,157.57007c-0.03099,0.52066 -4.40038,0.25197 -5.65308,0.60577c-2.77031,0.78243 -3.72458,1.08294 -3.72458,1.08294l1.42721,-2.66923c0,0 2.38321,-0.22971 4.30798,-0.03162c2.08488,0.21457 3.64742,0.92916 3.64248,1.01212z" fill="#1a0c47"/><path d="M245.5251,159.18275c3.41047,-1.28465 8.88058,-2.01781 9.45278,-1.47199c0.21888,0.20877 -5.17477,1.73944 -7.17408,2.85008c-3.17655,1.7646 -5.24526,4.36576 -5.18982,3.43411c0.05544,-0.93165 -0.49934,-3.52755 2.91112,-4.8122z" fill="#ffffff"/><path d="M245.03274,159.48481c0.14286,0.13039 -0.64643,1.22768 -1.29674,2.29176c-0.67556,1.10543 -1.12681,2.244 -1.12681,2.244c0,0 -0.76444,-2.0024 -0.99751,-2.20264c-0.30308,-0.2604 3.12593,-2.60248 3.42107,-2.33312z" fill="#e8e8e8"/><path d="M238.88859,159.73001c0,0 1.40731,-1.40588 3.20268,-2.05622c1.79539,-0.65034 4.63171,-1.58768 5.30917,-0.91615c0.14137,0.14012 -0.47909,1.25732 -1.29672,2.00533c-0.80603,0.73739 -1.80498,1.10367 -2.27412,1.52287c-0.98017,0.87587 -2.13206,1.56825 -2.13206,1.56825c0,0 -0.55097,-0.62956 -1.19155,-1.10279c-0.6406,-0.47322 -1.61739,-1.02129 -1.61739,-1.02129z" fill="#684af8"/></g><path d="M231.64153,166.58029c-0.73163,-1.96606 1.54412,-4.62745 5.08302,-5.94439c3.5389,-1.31694 6.98512,-0.7848 7.73249,1.17533c0.96393,2.52807 -1.54411,4.62745 -5.08301,5.94439c-3.5389,1.31694 -7.00086,0.79073 -7.7325,-1.17533z" fill="#684af8" stroke="none" stroke-width="0" stroke-linecap="butt"/><path d="M240.99298,162.92665c-0.43576,0.19394 -1.87769,-0.83299 -2.90474,-1.13521c-1.66008,-0.48849 -2.37783,-0.69127 -2.37783,-0.69127c0,0 0.82535,-0.4274 1.87039,-0.80927c1.29989,-0.47499 1.73028,-0.32801 1.73028,-0.32801c0,0 2.47598,2.61038 1.68189,2.96378z" fill="#1c0e4c" stroke="none" stroke-width="0" stroke-linecap="butt"/><path d="M243.98893,162.06406c0.60513,0.92061 0.7577,2.26301 0.15985,2.6657c-0.59785,0.4027 -1.71974,-0.28679 -2.32487,-1.2074c-0.60513,-0.92061 -0.61104,-1.99335 -0.01319,-2.39605c0.59785,-0.4027 1.57306,0.01715 2.1782,0.93774z" fill="#1c0e4c" stroke="none" stroke-width="0" stroke-linecap="butt"/><g stroke="none" stroke-width="0" stroke-linecap="butt"><path d="M241.53667,163.18746c-0.13065,-0.35109 0.04804,-0.74159 0.39913,-0.87224c0.35109,-0.13065 0.74159,0.04804 0.87224,0.39912c0.13065,0.35109 -0.04804,0.7416 -0.39912,0.87225c-0.35109,0.13065 -0.7416,-0.04804 -0.87225,-0.39913z" fill="#ffff9b"/><path d="M241.91565,163.0637c-0.05703,-0.15325 0.02096,-0.32372 0.17423,-0.38075c0.15324,-0.05703 0.32372,0.02096 0.38075,0.17423c0.05703,0.15325 -0.02096,0.32372 -0.17423,0.38075c-0.15324,0.05703 -0.32372,-0.02097 -0.38075,-0.17423z" fill="#000000"/></g><path d="M239.32659,162.97006c1.60361,0.87771 2.41845,2.47556 1.82002,3.56892c-0.59843,1.09336 -2.38353,1.26819 -3.98713,0.3905c-1.60361,-0.87771 -2.41845,-2.47556 -1.82002,-3.56892c0.59843,-1.09336 2.38354,-1.2682 3.98713,-0.3905z" fill="#1c0e4c" stroke="none" stroke-width="0" stroke-linecap="butt"/><g stroke="none" stroke-width="0" stroke-linecap="butt"><path d="M239.1203,164.93446c-0.18813,-0.50555 0.06919,-1.0679 0.57475,-1.25604c0.50555,-0.18813 1.0679,0.06919 1.25604,0.57474c0.18813,0.50555 -0.06919,1.0679 -0.57474,1.25604c-0.50555,0.18813 -1.06791,-0.06918 -1.25605,-0.57474z" fill="#ffff9b"/><path d="M239.66603,164.75622c-0.08212,-0.22068 0.0302,-0.46614 0.25089,-0.54827c0.22068,-0.08212 0.46614,0.0302 0.54826,0.25088c0.08212,0.22068 -0.0302,0.46614 -0.25088,0.54826c-0.22068,0.08212 -0.46615,-0.0302 -0.54827,-0.25087z" fill="#000000"/></g><path d="M230.20509,166.75352c1.92249,-0.43844 1.89169,0.16432 1.89169,0.16432c0,0 -0.97456,-0.59677 -1.41854,-0.859c-0.49766,-0.29396 -1.42476,-0.82048 -1.42476,-0.82048c0,0 0.97382,-0.51767 2.95115,0.34119c1.01289,0.43995 1.97563,1.00593 1.97563,1.00593c0,0 0.2595,-0.09793 1.7985,-0.03336c1.539,0.06457 2.5858,0.72394 4.00525,0.25583c0.88961,-0.35101 1.78682,-1.80171 2.44913,-2.06094c0.39926,-0.15627 1.14799,-0.35282 1.35778,-0.04906c0.01894,0.02742 0.21483,-0.074 0.41262,-0.60465c0.11619,-0.31174 0.25347,-0.83316 0.39178,-1.15596c0.27065,-0.6317 0.60534,-1.13319 0.60534,-1.13319l0.24145,1.6116c0,0 0.13171,-0.18099 0.33397,-0.3102c0.20227,-0.12921 0.55764,-0.25938 0.55764,-0.25938l-0.34053,1.57333l0.59188,0.59163c0,0 -0.66533,0.30471 -0.90174,0.27343c-0.23641,-0.03127 -0.29281,-0.11717 -0.29281,-0.11717c0,0 -0.25831,0.48323 -0.57786,0.841c-0.31955,0.35776 -1.06302,0.64308 -1.06302,0.64308c0,0 -0.266,0.3425 -0.61116,0.47767c-7.27562,3.45457 -9.4703,1.70768 -9.4703,1.70768c0,0 -0.89487,0.32147 -1.87362,0.65985c-0.97874,0.33839 -2.47451,0.95823 -2.47451,0.95823c0,0 0.65492,-1.06932 1.10769,-1.49253c0.45277,-0.4232 1.36228,-0.81618 1.36228,-0.81618c0,0 -0.67845,-0.18075 -1.56077,-0.2844c-0.88231,-0.10366 -2.31167,-0.39768 -2.22328,-0.16016c0.03402,0.09142 0.27661,-0.50971 2.1991,-0.94815z" fill="#ffffff" stroke="none" stroke-width="0" stroke-linecap="butt"/><path d="M242.83,165.45823c-0.06039,-0.16228 0.11687,-0.3111 0.44142,-0.43188c0.32456,-0.12078 0.55598,-0.12404 0.61637,0.03824c0.06039,0.16228 -0.20413,0.49611 -0.39156,0.56586c-0.16784,0.06246 -0.60584,-0.00996 -0.66623,-0.17223z" fill="#000000" stroke="none" stroke-width="0" stroke-linecap="butt"/><path d="M240.6046,167.83229c0,0 0.46749,-0.53461 0.91958,-0.80591c0.29792,-0.17877 0.84144,-0.15004 1.40994,-0.35809c0.46347,-0.16961 0.87087,-1.01703 1.25286,-1.21431c0.47658,-0.24612 1.31407,-0.04816 1.31407,-0.04816" data-paper-data="{&quot;index&quot;:null}" fill="none" stroke="#000000" stroke-width="0.5" stroke-linecap="round"/><g stroke-width="0" stroke-linecap="butt"><g fill="#000000"><path d="M236.5036,146.78697v-22.78335h1.78404v22.78335z" stroke="#b26a37"/><path d="M236.47438,146.45076l1.81767,0.18227c0,0 -0.25109,2.88158 2.14066,2.97585c2.38279,0.09392 2.80116,-3.06829 2.80116,-3.06829c0,0 0.04483,-0.66431 0.50503,-0.67959c0.5814,-0.01931 0.65215,0.58975 0.65215,0.58975c0,0 -0.01401,0.4058 -0.04106,0.60253c-0.2773,2.01628 -1.92549,3.56525 -3.91727,3.56525c-1.95684,0 -3.58202,-1.49509 -3.90141,-3.45955c-0.03743,-0.23018 -0.05692,-0.70822 -0.05692,-0.70822z" stroke="none"/></g><g stroke="none"><path d="M231.8592,137.32119l5.2228,-16.06834l0.93318,-0.53833l5.4225,16.60667z" fill="#462fb6"/><path d="M212.42709,131.24248l25.28888,-9.46668l-16.80808,13.3983z" fill="#462fb6"/><path d="M254.01314,135.10298l-16.11338,-13.14019l24.47839,9.42207z" data-paper-data="{&quot;index&quot;:null}" fill="#462fb6"/><path d="M220.85965,135.11507l16.67302,-14.01957l-5.67345,16.22569z" fill="#d9874c"/><path d="M243.20612,137.32119l-5.44189,-16.163l16.32567,13.95688z" data-paper-data="{&quot;index&quot;:null}" fill="#d9874c"/></g><path d="M235.44027,122.81575l1.39535,-2.60078l1.61091,-0.02166l1.14731,2.62244z" fill="#000000" stroke="none"/></g><g><g data-paper-data="{&quot;index&quot;:null}" stroke="none" stroke-width="0" stroke-linecap="butt"><path d="M233.69942,175.64727c-2.62315,-0.51832 -4.21547,-6.32203 -3.55652,-12.96297c0.35194,-3.54695 1.27493,-6.61534 2.45821,-8.62558c0.06064,-0.10302 1.15628,-2.5217 1.21824,-2.61908c0.99277,-1.5602 1.11599,-0.0686 2.26631,0.1587c1.1127,0.21986 1.38361,-1.04128 2.03221,0.74114c0.10585,0.29088 0.86059,3.03009 0.95119,3.35207c0.21097,0.74976 0.37951,1.57984 0.50051,2.47158c0.25924,1.91067 0.30021,4.10448 0.07261,6.39817c-0.65895,6.64094 -3.31961,11.60429 -5.94277,11.08597z" fill="#684af8"/><path d="M229.98691,165.9402c0,0 0.43016,2.0499 4.35531,2.74012c2.37797,0.41816 4.82783,-0.791 4.82783,-0.791c0,0 -0.32653,1.24104 -0.54016,1.98011c-0.31061,1.07447 -0.67817,1.87252 -0.67817,1.87252c0,0 -1.43823,1.08948 -3.5351,0.95505c-1.85674,-0.11904 -3.81018,-1.49786 -3.81018,-1.49786c0,0 -0.36876,-0.8696 -0.46811,-2.23946c-0.06991,-0.96402 -0.15142,-3.0195 -0.15142,-3.0195z" fill="#1c0e4c"/><path d="M230.6183,159.75c0,0 0.54481,1.3526 4.46996,2.04282c2.37797,0.41816 4.61167,-0.40766 4.61167,-0.40766c0,0 0.10415,1.23864 0.06185,1.89085c-0.04229,0.65221 -0.22957,1.52741 -0.22957,1.52741c0,0 -2.71293,0.82674 -4.80979,0.69231c-1.85674,-0.11904 -4.64486,-1.9549 -4.64486,-1.9549c0,0 0.06044,-1.14063 0.16255,-1.85649c0.10212,-0.71586 0.37819,-1.93431 0.37819,-1.93431z" fill="#1c0e4c"/><path d="M232.54441,154.31858c0,0 0.15159,1.16364 2.96776,1.72826c2.37797,0.41816 3.60812,-0.10819 3.60812,-0.10819c0,0 0.25298,0.80055 0.3323,1.27321c0.07933,0.47265 0.14748,1.80864 0.14748,1.80864c0,0 -2.65102,0.43915 -4.39049,0.15759c-1.73946,-0.28156 -4.09994,-1.53189 -4.09994,-1.53189c0,0 0.32109,-0.87279 0.57106,-1.66197c0.21835,-0.68935 0.86369,-1.66564 0.86369,-1.66564z" fill="#1c0e4c"/></g><g><path d="M232.32954,146.67904c0.04467,-0.36443 0.63101,-0.4753 0.91912,-0.27231c0.28812,0.20299 0.08158,1.22495 0.29855,1.13021c0.25069,-0.10949 0.01754,-1.30295 0.08237,-1.27309c0.07561,0.03483 -0.29112,-0.77562 0.36938,-1.26692c1.0431,-0.7759 1.70862,0.35276 1.70862,0.35276c0,0 0.54047,-0.37255 1.00366,-0.25788c0.46319,0.11466 0.94167,0.45393 0.93443,0.73764c-0.00404,0.15809 0.03927,-0.3852 0.47924,-0.32515c0.43996,0.06005 1.0082,0.52816 1.0082,0.52816c0,0 0.39478,-0.15887 0.77924,-0.09484c1.20834,0.20124 0.18912,1.72366 -0.16453,2.69378c-0.5421,1.48708 -1.39907,2.36404 -1.48017,2.48677c-0.17083,0.2585 1.05395,1.59416 0.63002,1.83761c-0.50854,0.29203 -1.61998,1.11413 -2.44843,0.78486c-0.34693,-0.13789 -0.61129,-0.77763 -0.76579,-1.12476c-0.25736,-0.57824 0.01224,0.93132 -0.82976,0.82954c-0.842,-0.10178 -1.81252,-1.25301 -1.81252,-1.25301l0.58632,-1.4027c0,0 -1.63785,-1.33747 -1.29793,-4.11064z" fill="#ffc281" stroke="none" stroke-width="0" stroke-linecap="butt"/><path d="M235.7153,145.47845l0.09918,0.82232" fill="none" stroke="#d9874c" stroke-width="0.5" stroke-linecap="round"/><path d="M237.7853,146.43183l-0.08753,-0.4585" fill="none" stroke="#d9874c" stroke-width="0.5" stroke-linecap="round"/><path d="M239.13811,146.21859l0.06483,0.50779" fill="none" stroke="#d9874c" stroke-width="0.5" stroke-linecap="round"/><path d="M238.15666,151.20302c0,0 -1.5007,0.34319 -2.25581,0.29775c-0.73643,-0.04432 -2.22022,-0.56711 -2.22022,-0.56711" fill="none" stroke="#d9874c" stroke-width="1" stroke-linecap="round"/></g></g></g></g></svg>