<svg version="1.1" xmlns="http://www.w3.org/2000/svg" xmlns:xlink="http://www.w3.org/1999/xlink" width="9.10308" height="23.27288" viewBox="0,0,9.10308,23.27288"><g transform="translate(-235.18464,-164.93211)"><g data-paper-data="{&quot;isPaintingLayer&quot;:true}" fill-rule="nonzero" stroke="none" stroke-width="0" stroke-linecap="butt" stroke-linejoin="miter" stroke-miterlimit="10" stroke-dasharray="" stroke-dashoffset="0" style="mix-blend-mode: normal"><g><path d="M235.31928,183.55022c0.25378,-0.55959 1.3236,-0.63471 2.38949,-0.16777c1.0659,0.46693 1.72426,1.29909 1.47048,1.85869c-0.25378,0.55959 -1.3236,0.63471 -2.38949,0.16777c-1.0659,-0.46693 -1.72426,-1.29909 -1.47048,-1.85869z" fill="#9ad6ef"/><path d="M235.22199,183.69575c0.41315,-0.90119 1.71343,-0.55087 1.71343,-0.55087c0,0 0.56039,0.64393 0.40178,1.46209c-0.11262,0.58093 -0.8058,0.66871 -0.8058,0.66871c0,0 -1.60971,-0.92489 -1.30942,-1.57991z" fill="#eaec6e"/></g><path d="M243.2139,181.98279c-0.90249,0.94477 -2.47519,0.27527 -2.5249,-0.15778c-0.06323,-0.55088 2.82807,-2.47986 3.52726,-1.50911c0.4643,0.72415 -1.48572,1.09568 -1.48572,1.09568c0,0 0.87387,0.18432 0.48336,0.57121z" data-paper-data="{&quot;index&quot;:null}" fill="#d4a5b9"/><path d="M238.03278,181.92104c0,0 -1.74883,-0.2155 -1.70311,-1.05789c0.39054,-0.67805 3.72197,0.44703 3.78522,0.99791c0.04971,0.43306 -1.40617,1.30103 -2.36456,0.7191c-0.4545,-0.17052 0.28244,-0.65912 0.28244,-0.65912z" data-paper-data="{&quot;index&quot;:null}" fill="#d4a5b9"/><path d="M237.63716,182.86199c0.16827,-1.03436 1.20869,-1.7258 2.32386,-1.54438c1.11516,0.18142 1.88277,1.16698 1.71449,2.20133c-0.16827,1.03436 -1.20869,1.7258 -2.32386,1.54438c-1.11516,-0.18142 -1.88277,-1.16698 -1.71449,-2.20133z" fill="#9ad6ef"/><path d="M237.1039,182.02543c0.35718,-0.35547 1.28063,-0.61063 1.28063,-0.61063c0,0 -0.64319,0.61195 -0.60042,1.43893c0.02528,0.48892 0.61316,1.23512 0.70528,1.45362c0.24919,0.59108 -0.30652,1.31325 -0.93356,1.34271c-0.95437,0.04483 -1.39741,-0.98738 -1.21352,-1.98514c0.0941,-0.51058 0.40443,-1.28403 0.76159,-1.63951z" fill="#9ad6ef"/><path d="M236.55432,185.10488c0,0 0.05318,-0.76097 0.82087,-1.08773c0.57148,-0.24324 0.94268,0.0289 0.94268,0.0289c0,0 0.76943,0.94857 -0.24893,1.4615c-0.90309,0.45486 -1.5146,-0.40268 -1.5146,-0.40268z" fill="#eaec6e"/><path d="M240.17842,174.13434c0.83837,-0.25642 1.56567,-1.0802 1.6078,-1.07327c0.06118,0.01008 0.12221,0.19729 0.25183,0.32026c0.74928,0.71092 2.43747,3.00008 2.1322,4.85995c-0.1394,0.84932 -0.56765,3.5925 -4.68312,3.19565c-3.35866,-0.22119 -4.42455,-2.13773 -3.92292,-3.8494c0.80979,-2.76328 2.96498,-2.94874 4.61423,-3.45319z" fill="#9ad6ef"/><path d="M241.27852,173.49242c0.22635,-0.2182 0.40762,-0.4625 0.5087,-0.45026c0.09678,0.01171 0.37865,0.3891 0.68615,0.79977c0.29653,0.39603 0.58504,0.80334 0.58504,0.80334c0,0 -1.07,0.10478 -1.58727,-0.12651c-0.36502,-0.16322 -0.81785,-0.59278 -0.81785,-0.59278c0,0 0.40409,-0.2204 0.62521,-0.43356z" fill="#eaec6e"/><path d="M239.21081,180.76959l-0.5721,-0.58162l-0.55005,0.28893l0.61461,-0.50945z" data-paper-data="{&quot;index&quot;:null}" fill="#000000"/><path d="M236.53079,179.257l1.35299,-0.87237l-0.8463,-1.23737l1.45851,1.41388z" data-paper-data="{&quot;index&quot;:null}" fill="#000000"/><path d="M239.97698,178.84445l1.91864,-0.66717l-1.28907,0.76523l0.85908,1.36147z" data-paper-data="{&quot;index&quot;:null}" fill="#000000"/><path d="M240.71379,170.99682c0.05063,-0.48834 0.47941,-0.84404 0.95771,-0.79445c0.47829,0.04959 0.80478,0.46078 0.75415,0.94913c-0.05063,0.48834 -0.48876,0.93421 -0.96705,0.88463c-0.47829,-0.04959 -0.79543,-0.55096 -0.74481,-1.03932z" fill="#eaec6e"/><path d="M240.85883,166.84632c0.04101,-1.16985 0.38832,-2.02194 0.77574,-1.90315c0.38742,0.11879 0.65187,1.10384 0.61086,2.27369c-0.04101,1.16985 -0.3959,2.23796 -0.78331,2.11919c-0.38742,-0.11879 -0.6443,-1.31985 -0.6033,-2.48975z" fill="#eaec6e"/><g><path d="M242.30107,188.13281c-0.57459,0.2366 -1.41655,-0.43769 -1.88056,-1.50602c-0.464,-1.06835 -0.37433,-2.12622 0.20026,-2.36282c0.57459,-0.2366 1.41655,0.43769 1.88056,1.50602c0.464,1.06835 0.37433,2.12622 -0.20026,2.36282z" data-paper-data="{&quot;index&quot;:null}" fill="#9ad6ef"/><path d="M242.67452,186.22758c0,0 0.47333,1.70484 -0.4751,1.94782c-0.85721,0.21899 -1.3854,-0.84929 -1.3854,-0.84929c0,0 -0.04106,-0.66923 0.80924,-1.17705c0.3693,-0.21353 1.05125,0.0785 1.05125,0.0785z" data-paper-data="{&quot;index&quot;:null}" fill="#eaec6e"/></g><path d="M242.53496,183.62361c0.28463,0.97381 -0.17164,2.06484 -1.1256,2.11752c-0.62678,0.03462 -1.25583,-0.59763 -1.06555,-1.24056c0.10345,-0.61067 0.59221,-0.94897 0.59221,-0.94897c0,0 0.2576,-0.70009 0.21326,-0.96753c-0.06643,-0.40071 -0.581,-1.11444 -0.581,-1.11444c0,0 0.5887,0.30771 0.98025,0.62492c0.39156,0.31721 0.85914,0.82399 0.98643,1.52904z" data-paper-data="{&quot;index&quot;:null}" fill="#9ad6ef"/><path d="M242.3174,185.25289c0,0 -0.43097,0.76944 -1.43412,0.37303c-0.96519,-0.3206 -0.39833,-1.58262 -0.39833,-1.58262c0,0 0.50873,-0.21549 1.13239,0.07745c0.79446,0.37318 0.70004,1.13214 0.70004,1.13214z" data-paper-data="{&quot;index&quot;:null}" fill="#eaec6e"/><g fill="#d62c35"><path d="M239.3687,181.9007c0,0 -0.09657,-0.39544 0.0342,-0.55244c0.36978,-0.44394 1.19362,-0.95433 1.71519,-0.66227c0.57526,0.32214 -0.6702,1.50823 -0.6702,1.50823c0,0 0.16302,0.98069 -0.03922,0.98569c-0.15552,0.00385 -0.57666,-0.16511 -0.80936,-0.4249c-0.37188,-0.41516 -0.23061,-0.8543 -0.23061,-0.8543z"/><path d="M238.44587,181.76041c-0.01009,-0.40812 0.19803,-0.58321 0.45993,-0.58968c0.26191,-0.00648 0.611,0.01884 0.56517,0.56434c-0.03007,0.40964 -0.12649,0.58144 -0.53659,0.59158c-0.41009,0.01014 -0.48061,-0.24703 -0.48852,-0.56622z"/><path d="M238.50328,182.61792c-0.2004,0.27041 -0.44031,0.526 -0.73976,0.48057c-0.28516,-0.04382 -0.12572,-0.94363 -0.12572,-0.94363c0,0 -0.97886,-1.12542 -0.54526,-1.54342c0.36166,-0.11683 1.06809,0.30373 1.46306,0.69729c0.13968,0.13917 0.09295,0.46772 0.09295,0.46772c0,0 0.17495,0.40935 -0.14528,0.84148z" data-paper-data="{&quot;index&quot;:null}"/></g></g></g></svg>