<svg version="1.1" xmlns="http://www.w3.org/2000/svg" xmlns:xlink="http://www.w3.org/1999/xlink" width="31.37867" height="22.24455" viewBox="0,0,31.37867,22.24455"><g transform="translate(-224.32166,-168.04525)"><g data-paper-data="{&quot;isPaintingLayer&quot;:true}" fill-rule="nonzero" stroke-width="0" stroke-linecap="butt" stroke-linejoin="miter" stroke-miterlimit="10" stroke-dasharray="" stroke-dashoffset="0" style="mix-blend-mode: normal"><path d="M230.12752,183.24538c0.57349,-1.16565 1.23654,-0.87309 1.23654,-0.87309c0,0 -2.89697,3.95203 -2.83942,5.30601c0.05696,1.33992 2.64986,2.22685 2.64986,2.22685c0,0 -0.17128,0.43944 -1.01408,0.37892c-0.72617,-0.05215 -1.98143,-1.00889 -2.32509,-1.81499c-0.03199,-0.07507 -0.00765,-0.39177 -0.01711,-0.63322c-0.03467,-0.88476 1.542,-3.36112 1.71367,-3.51756c0.18527,-0.16883 0.38377,-0.18746 0.50528,-0.4496c0.11592,-0.25006 0.06141,-0.5645 0.09033,-0.62331z" data-paper-data="{&quot;index&quot;:null}" fill="#686868" stroke="none"/><path d="M232.42959,188.66184c-0.36744,0.71864 -0.79123,1.23852 -1.32475,1.24756c-0.53352,0.00906 -2.70105,-1.10607 -2.60973,-2.28521c0.12878,-1.66276 2.84212,-5.27435 2.84212,-5.27435c0,0 0.52481,-0.12825 1.05977,0.0194c0.66249,0.18284 0.86795,0.60154 0.86795,0.60154c0,0 -1.34195,0.46717 -1.59269,1.80399c-0.16869,0.89939 0.69313,2.64611 0.7687,3.20011c0.06757,0.4954 0.04006,0.40786 -0.01136,0.68696z" data-paper-data="{&quot;index&quot;:null}" fill="#ef4019" stroke="none"/><path d="M232.43648,188.00949c0,0 -0.71937,-0.77982 -1.39,-1.18484c-0.13374,-0.08077 -0.52696,-0.18895 -0.85858,-0.11118c-0.3434,0.08053 -0.85817,0.25146 -0.80734,-0.11268c0.11945,-0.85565 1.75538,-3.51945 2.1156,-3.49652c0.19187,0.01221 0.87547,0.29821 0.87547,0.29821c0,0 -0.26644,1.02004 -0.20766,1.54766c0.06078,0.54542 0.56654,1.67326 0.56654,1.67326c0,0 -0.20363,0.24968 -0.25082,0.47209c-0.05059,0.23849 -0.0432,0.91399 -0.0432,0.91399z" data-paper-data="{&quot;index&quot;:null}" fill="#ffc500" stroke="none"/><path d="M231.72637,184.51324c0.40139,-1.26335 1.3129,-1.5501 1.51386,-1.53374c1.77568,0.14454 0.85254,2.22622 0.83411,2.38294c-0.09713,0.82619 -0.59843,0.73271 -1.45117,0.54845c-0.65317,-0.14117 -1.13146,-0.65905 -0.89678,-1.39767z" data-paper-data="{&quot;index&quot;:null}" fill="#ffffff" stroke="none"/><path d="M233.90433,183.97514c0,0 0.38741,-0.39498 0.59898,-0.5873c0.22537,-0.20484 0.62577,-0.62785 0.62577,-0.62785l0.88304,0.81085c0,0 -0.89009,1.44646 -1.91367,1.77995c-0.18619,0.06067 -1.54944,0.01627 -1.37278,-1.00402c0.09462,-0.54647 0.50094,-0.66596 0.79582,-0.59697c0.22333,0.05224 0.38284,0.22532 0.38284,0.22532z" data-paper-data="{&quot;index&quot;:null}" fill="#fedeb5" stroke="none"/><path d="M232.91294,185.81706c0.43395,0.25673 1.05665,-0.0798 1.05665,-0.0798c0,0 0.29519,0.15254 0.13966,0.36421c-0.31054,0.42264 -1.35522,0.50568 -1.35522,0.50568c0,0 -0.73912,-0.18713 -1.19832,-0.92424c-0.24175,-0.38808 -0.24244,-1.23644 -0.24244,-1.23644c0,0 0.08781,0.23008 0.28641,0.33308c0.10444,0.05416 0.3304,0.01421 0.39341,0.01488c0.15071,0.0016 0.56475,0.8125 0.91985,1.0226z" data-paper-data="{&quot;index&quot;:null}" fill="#ffc500" stroke="none"/><g data-paper-data="{&quot;index&quot;:null}" stroke="none"><path d="M239.98912,189.83713c-1.13462,0.33645 -1.95437,0.32785 -2.50413,0.09861c-0.40179,-0.16753 -0.42874,-0.81005 -0.42874,-0.81005c0,0 2.64952,0.4808 3.05934,-0.26354c0.36568,-0.66416 -0.7254,-3.92448 -0.7254,-3.92448c0,0 0.85098,-0.20066 1.44923,2.83475c0.05138,0.2607 0.09677,0.78525 -0.06982,1.21539c-0.16475,0.42539 -0.5833,0.79086 -0.78048,0.84933z" fill="#686868"/><path d="M240.47893,187.56099c0.00594,0.41321 -0.00579,1.56472 -0.73407,1.7355c-1.96992,0.46196 -2.48093,0.40317 -2.83525,-0.38232c-0.08614,-0.19097 -0.05077,-1.24256 -0.05077,-1.24256c0,0 -0.00765,-0.22472 0.20366,-0.54322c0.55399,-0.83498 1.74774,-2.34111 2.06115,-2.33145c0.45062,0.01389 1.34089,1.76033 1.35532,2.76406z" fill="#ef4019"/><path d="M236.59258,185.56426c0.08213,-0.02394 1.06617,0.17805 1.78393,-0.03779c0.28758,-0.08647 0.46812,-0.47583 0.59445,-0.66095c0.05795,-0.08492 0.15625,-0.06257 0.15625,-0.06257c0,0 1.17974,2.11789 0.76786,2.696c-0.27214,0.0714 -0.60737,-0.4541 -0.76742,-0.44863c-0.40441,-0.01251 -1.35418,-0.01627 -1.68715,0.07485c-0.45507,0.12454 -0.5768,0.59525 -0.5768,0.59525l-0.08346,-1.42643c0,0 -0.67828,-0.58679 -0.18767,-0.72972z" fill="#ffc500"/><path d="M239.01572,185.30981l0.21556,0.65924l-0.57467,-0.18612c0,0 -0.69315,0.29067 -0.96322,0.28234c-0.68291,-0.02105 -1.22107,-0.53951 -1.202,-1.158c0.01907,-0.61849 0.58813,-1.10281 1.27105,-1.08175c0.68291,0.02105 1.22107,0.53951 1.202,1.158c-0.0027,0.08751 0.05128,0.32629 0.05128,0.32629z" fill="#ffffff"/><path d="M237.68824,185.47515c-0.30924,-0.00953 -0.55213,-0.27042 -0.5425,-0.58272c0.00963,-0.31229 0.26813,-0.55773 0.57737,-0.5482c0.30924,0.00953 0.55213,0.27042 0.5425,0.58272c-0.00963,0.31229 -0.26813,0.55773 -0.57737,0.5482z" fill="#f5cda8"/></g><path d="M240.93683,180.48044c0.00104,-0.61893 0.08487,-1.08938 0.52218,-1.1198c0.3989,-0.02775 0.51947,0.5026 0.51844,1.12153c-0.00016,0.09682 -0.04667,2.3351 -0.27817,2.6636c-0.66963,0.95022 -1.05038,0.27657 -1.05038,0.27657c0,0 0.08703,-1.1153 0.14593,-1.68579c0.05889,-0.57047 0.14165,-1.03553 0.14201,-1.25611z" data-paper-data="{&quot;index&quot;:null}" fill="#fde1c0" stroke="none"/><path d="M242.28009,184.14118c-0.6508,0.42956 -1.795,0.33564 -1.98634,0.1686c-0.30392,-0.26532 -0.12833,-0.80318 -0.12833,-0.80318c0,0 0.4936,-0.51379 1.13761,-0.7281c0.44443,-0.1479 0.94295,0.13603 0.94295,0.13603c0,0 0.17703,0.42965 0.19312,0.6407c0.0161,0.21105 0.06018,0.44125 -0.15902,0.58594z" data-paper-data="{&quot;index&quot;:null}" fill="#fefefe" stroke="none"/><g data-paper-data="{&quot;index&quot;:null}" stroke="none"><path d="M241.94765,183.91383c0.0365,0.20879 -0.13066,0.63506 -0.97668,0.72732c-0.42643,0.04651 -0.9324,0.02568 -0.97519,-0.2191c-0.0365,-0.20878 0.19363,-0.24609 0.61617,-0.31996c0.42254,-0.07389 1.28976,-0.45106 1.3357,-0.18827z" fill="#000000"/><path d="M240.5738,186.08342c0,0 -0.6272,0.3281 -0.84016,-0.40025c-0.24224,-0.8285 0.0349,-1.4997 0.0349,-1.4997c0,0 0.24741,-0.13285 0.4066,-0.09715c0.1592,0.0357 0.3403,0.26463 0.3403,0.26463c0,0 0.16644,-0.14456 0.2959,-0.15082c0.12946,-0.00627 0.40912,0.11671 0.40912,0.11671c0,0 0.19952,-0.23178 0.37215,-0.3068c0.17264,-0.07501 0.50476,-0.07423 0.50476,-0.07423c0,0 0.14286,-0.29643 0.31887,-0.36829c0.17601,-0.07186 0.39152,-0.11344 0.52333,0.02444c0.13182,0.13788 0.65388,0.68955 0.78318,1.42303c0.1591,0.90252 -1.14189,0.69628 -1.14189,0.69628c0,0 -0.14712,0.25479 -0.39203,0.32044c-0.31696,0.08495 -0.59163,-0.09011 -0.59163,-0.09011c0,0 -0.0208,0.24814 -0.4272,0.31538c-0.27573,0.04563 -0.59619,-0.17355 -0.59619,-0.17355z" fill="#fefefe"/><path d="M243.00571,183.59898c0.0365,0.20879 -0.13066,0.63506 -0.97668,0.72732c-0.42643,0.04651 -0.9324,0.02568 -0.97519,-0.2191c-0.03649,-0.20879 0.39302,-0.51397 0.81556,-0.58784c0.42254,-0.07388 1.09038,-0.18318 1.13632,0.07961z" fill="#fefefe"/></g><path d="M243.99472,178.8812c0,0 0.65877,-0.23744 0.96809,-0.42443c0.30932,-0.187 0.75903,-0.5202 0.75903,-0.5202c0,0 -0.09967,0.8708 -0.17434,1.23837c-0.05667,0.27901 -0.11317,0.85482 -0.43611,0.91707c-0.26531,0.05114 -1.11667,-1.2108 -1.11667,-1.2108z" data-paper-data="{&quot;index&quot;:null}" fill="#ebc19b" stroke="none"/><path d="M241.22785,179.45256c-2.91294,-0.03608 -5.17296,-2.00483 -5.20903,-4.88077c-0.03381,-2.69537 1.97142,-4.95292 5.20903,-4.88077c2.87616,0.0641 5.20903,1.28336 5.20903,4.88077c0,3.38098 -2.33238,4.9164 -5.20903,4.88077z" data-paper-data="{&quot;index&quot;:null}" fill="#fedeb5" stroke="none"/><path d="M244.44348,177.14937c0,0 0.1121,-0.70652 0.24763,-2.33832c0.1834,-2.20826 0.10601,-2.97432 0.73125,-2.76909c0.50483,0.16571 1.30211,1.33274 0.90021,3.78671c-0.09801,0.78378 -0.49121,1.58465 -0.49121,1.58465c0,0 -0.24529,0.23007 -0.47748,0.2099c-0.23218,-0.02017 -0.32127,-0.18285 -0.5073,-0.29544c-0.21409,-0.12958 -0.40311,-0.17841 -0.40311,-0.17841z" data-paper-data="{&quot;index&quot;:null}" fill="#ea750b" stroke="none"/><path d="M242.68604,177.68938c0,0 -1.11128,0.66223 -2.31612,0.1528c-0.6905,-0.29196 -1.58939,-1.37735 -1.87639,-2.15545c-0.78961,-2.14073 -0.13687,-3.37972 0.93462,-3.76377c1.00148,-0.35895 2.30067,0.5015 2.92272,2.10847c0.62204,1.60696 0.33517,3.65795 0.33517,3.65795z" data-paper-data="{&quot;index&quot;:null}" fill="#ea750b" stroke="none"/><path d="M242.62858,175.17053c0.32849,1.46827 0.0591,2.48961 0.0591,2.48961c0,0 -0.10117,0.25071 -1.06323,0.33952c-0.74756,0.06901 -1.12458,-0.24478 -1.12458,-0.24478c0,0 -0.6093,-0.7084 -0.80141,-1.76892c-0.27809,-1.53514 0.0541,-2.63006 0.83699,-2.8652c0.78289,-0.23513 1.79264,0.70676 2.09312,2.04978z" data-paper-data="{&quot;index&quot;:null}" fill="#ffffff" stroke="none"/><g data-paper-data="{&quot;index&quot;:null}" stroke="none"><path d="M242.2681,177.84824c-0.32764,0.01641 -0.64067,-0.70395 -0.69918,-1.60898c-0.05852,-0.90503 0.15965,-1.652 0.48729,-1.66842c0.32764,-0.01641 0.64067,0.70395 0.69918,1.60898c0.05852,0.90503 -0.15965,1.652 -0.48729,1.66842z" fill="#a06803"/><path d="M242.32182,177.25756c-0.17697,0.00966 -0.34604,-0.4144 -0.37764,-0.94716c-0.0316,-0.53276 0.08624,-0.97248 0.2632,-0.98214c0.17697,-0.00966 0.34604,0.4144 0.37764,0.94716c0.0316,0.53276 -0.08624,0.97248 -0.2632,0.98214z" fill="#000000"/><path d="M242.55663,175.66277c0.02072,0.30993 -0.05653,0.56574 -0.17255,0.57136c-0.11602,0.00562 -0.22686,-0.24107 -0.24758,-0.55101c-0.02072,-0.30993 0.05653,-0.56574 0.17255,-0.57136c0.11602,-0.00562 0.22686,0.24107 0.24758,0.55101z" fill="#ffffff"/></g><path d="M245.24365,173.38952c0.34422,0.20526 0.49208,1.14898 0.36936,2.47513c-0.08478,0.91614 -0.44466,1.72144 -0.44466,1.72144c0,0 -0.23114,-0.17078 -0.39159,-0.25388c-0.16045,-0.08309 -0.30921,-0.16265 -0.30921,-0.16265c0,0 0.03,-0.63148 0.13392,-1.95459c0.09143,-1.16415 0.25564,-2.05594 0.64218,-1.82545z" data-paper-data="{&quot;index&quot;:null}" fill="#ffffff" stroke="none"/><g data-paper-data="{&quot;index&quot;:null}" stroke="none"><path d="M244.7172,177.23691c-0.22527,-0.00643 -0.3924,-0.61697 -0.3733,-1.36367c0.0191,-0.74671 0.2172,-1.34682 0.44246,-1.34039c0.22527,0.00643 0.3924,0.61697 0.3733,1.36367c-0.0191,0.74671 -0.2172,1.34682 -0.44246,1.34039z" fill="#a06803"/><path d="M244.84031,175.164c0.12172,0.00282 0.20971,0.36129 0.19652,0.80068c-0.01318,0.43939 -0.12255,0.7933 -0.24427,0.79048c-0.12172,-0.00283 -0.20971,-0.3613 -0.19652,-0.80069c0.01318,-0.43939 0.12255,-0.79329 0.24427,-0.79048z" fill="#000000"/><path d="M245.05744,175.45987c-0.00607,0.25576 -0.07564,0.46111 -0.1554,0.45868c-0.07976,-0.00243 -0.13948,-0.21174 -0.13341,-0.46749c0.00607,-0.25576 0.07564,-0.46111 0.1554,-0.45868c0.07976,0.00243 0.13948,0.21174 0.13341,0.46749z" fill="#ffffff"/></g><path d="M242.6558,175.16816c0,0 -0.90012,-1.92403 -1.95022,-1.78858c-0.20333,0.02623 -0.55082,0.06675 -0.77489,0.51662c-0.38582,0.77463 -0.28502,1.47054 -0.28502,1.47054c0,0 -0.63091,0.11296 -1.26469,0.0164c-1.19897,-0.18267 -1.72006,-0.85102 -1.72006,-0.85102c0,0 0.99637,0.42499 1.4642,0.5123c0.47558,0.08875 1.36641,0.01595 1.36641,0.01595c0,0 -0.17298,-2.08798 1.23687,-2.13625c1.26172,-0.04319 1.92739,2.24403 1.92739,2.24403z" data-paper-data="{&quot;index&quot;:null}" fill="#000000" stroke="none"/><path d="M245.11315,173.59325c-0.26376,-0.01083 -0.40779,0.61421 -0.40779,0.61421c0,0 -0.00439,-1.07318 0.43682,-1.02998c0.49301,0.04827 0.63971,1.52679 0.63971,1.52679c0,0 0.01753,0.17665 0.89498,-0.17875c0.95233,-0.38573 1.48878,-1.20418 1.48878,-1.20418c0,0 -0.37356,0.7945 -1.039,1.20713c-0.64947,0.40271 -1.48007,0.44145 -1.48007,0.44145c0,0 -0.08074,-1.3581 -0.53344,-1.37668z" data-paper-data="{&quot;index&quot;:null}" fill="#000000" stroke="none"/><path d="M244.46777,177.16544c0,0 -0.42946,-0.09931 -0.72734,-0.01911c-0.29502,0.07943 -1.04501,0.45607 -1.04501,0.45607c0,0 0.16619,-0.64413 0.02041,-1.92339c-0.14131,-1.2401 -0.4093,-1.74671 -0.4093,-1.74671l2.46872,-0.50325z" data-paper-data="{&quot;index&quot;:null}" fill="#fedeb5" stroke="none"/><path d="M238.04134,179.11348c1.58497,-0.0308 2.86906,0.31744 2.86906,0.31744c0,0 0.66243,3.28463 -0.06182,4.32385c-0.74509,1.06911 -1.76613,1.22122 -2.5323,1.23714c-2.06753,0.08927 -3.17891,-0.63998 -3.99953,-2.07583c-0.77589,-1.35757 -0.50568,-2.95846 -0.50568,-2.95846c0,0 2.46391,-0.80984 4.23027,-0.84416z" data-paper-data="{&quot;index&quot;:null}" fill="#ef4019" stroke="none"/><path d="M239.85831,180.71036c-0.58792,-0.07205 -0.44326,-1.44631 -0.44326,-1.44631l0.99234,0.19109c0,0 -0.17056,1.30162 -0.54908,1.25523z" data-paper-data="{&quot;index&quot;:null}" fill="#08abe8" stroke="none"/><path d="M236.20404,178.00028c0,0 0.72879,0.11516 0.97555,0.53739c0.22062,0.37748 0.29322,0.70572 0.10072,1.32829c-0.20303,0.65668 -0.87647,0.87667 -1.23416,0.86288c-1.07175,-0.04134 -1.6211,-1.10044 -1.14763,-2.17994c0.38686,-0.88201 1.27561,-1.09882 1.27561,-1.09882z" data-paper-data="{&quot;index&quot;:null}" fill="#ebc19b" stroke="none"/><path d="M240.96197,182.29176c-0.0123,0.23058 -0.26738,0.75343 -0.41041,0.73418c-0.06862,-0.00923 -0.11441,-0.52169 -0.23928,-1.08192c-0.13541,-0.60752 -0.3476,-1.26622 -0.3476,-1.26622l0.21731,-0.29675c0,0 0.82192,1.12405 0.77998,1.9107z" data-paper-data="{&quot;index&quot;:null}" fill="#08abe8" stroke="none"/><path d="M239.44043,181.89812c-0.10201,0.52109 -0.15535,1.03158 -0.21849,1.00961c-0.3357,-0.11679 -0.46078,-0.5496 -0.4549,-0.71639c0.03411,-0.96774 0.73641,-1.85046 0.73641,-1.85046l0.19168,0.29745c0,0 -0.13478,0.64715 -0.2547,1.25979z" data-paper-data="{&quot;index&quot;:null}" fill="#08abe8" stroke="none"/><path d="M238.93366,180.72716l-0.0234,-1.82533c0,0 0.22978,0.07703 0.52828,0.17179c0.2985,0.09477 0.45459,0.22604 0.45459,0.22604z" data-paper-data="{&quot;index&quot;:null}" fill="#ffffff" stroke="none"/><path d="M240.58091,180.8223l-0.60344,-1.46017c0,0 0.11626,-0.02067 0.39132,-0.05605c0.27506,-0.03539 0.47493,0.00598 0.47493,0.00598z" data-paper-data="{&quot;index&quot;:null}" fill="#ffffff" stroke="none"/><path d="M245.85721,177.3701c0,0 0.00348,0.40219 -0.1445,0.57137c-0.53107,0.60714 -1.71274,1.4312 -4.19997,1.58478c-2.61271,0.16133 -3.64923,-1.57853 -2.71974,-2.12909c0.81569,-0.48315 1.54255,0.62065 2.74346,0.58837c0.99391,-0.02672 1.73596,-0.7898 2.52161,-0.8728c0.57495,-0.06074 1.01498,0.50294 1.2083,0.49598c0.20965,-0.00754 0.59084,-0.23861 0.59084,-0.23861z" data-paper-data="{&quot;index&quot;:null}" fill="#ffffff" stroke="none"/><g data-paper-data="{&quot;index&quot;:null}" stroke="none"><path d="M244.57685,177.78027c-0.26398,0 -0.3626,-0.13969 -0.40365,-0.26664c-0.04758,-0.14713 0.18072,-0.28068 0.40365,-0.28068c0.22293,0 0.44011,0.13024 0.40365,0.28068c-0.02737,0.11291 -0.15335,0.26664 -0.40365,0.26664z" fill="#6b4209"/><path d="M244.64526,177.46557c-0.10202,0 -0.18472,-0.03676 -0.18472,-0.0821c0,-0.04534 0.0827,-0.0821 0.18472,-0.0821c0.10202,0 0.18472,0.03676 0.18472,0.0821c0,0.04534 -0.0827,0.0821 -0.18472,0.0821z" fill="#ffffff"/></g><path d="M242.2986,178.86123c0,0 -0.12746,0.19448 -0.49259,0.17788c-0.36512,-0.01659 -0.6431,-0.19156 -0.6431,-0.19156c0,0 0.35134,0.06842 0.65679,0.06842c0.29633,0 0.47891,-0.05473 0.47891,-0.05473z" data-paper-data="{&quot;index&quot;:null}" fill="#000000" stroke="none"/><path d="M243.79192,171.22959c0.08861,0.42976 0.0537,0.96568 -0.12953,0.98024c-0.09807,0.00779 -0.48817,-0.31411 -0.96791,-0.75088c-0.29417,-0.26782 -0.65787,-0.44975 -1.05604,-0.71191c-0.73587,-0.48451 -1.88016,-0.91637 -1.88016,-0.91637c0,0 0.63795,-0.19698 1.91534,-0.13463c0.87603,0.04276 1.72764,0.3181 1.72764,0.3181c0,0 0.19457,0.26441 0.39066,1.21544z" data-paper-data="{&quot;index&quot;:null}" fill="#ea750b" stroke="none"/><path d="M238.99368,178.92829c0,0 -1.52047,1.54288 -1.87823,1.40206c-0.43547,-0.1714 -0.36412,-0.99162 -0.37054,-1.3967c-0.00845,-0.53368 0.07955,-1.77778 0.07955,-1.77778c0,0 0.54204,0.58354 0.92589,0.92589c0.38385,0.34234 1.24334,0.84652 1.24334,0.84652z" data-paper-data="{&quot;index&quot;:null}" fill="#fedeb5" stroke="none"/><path d="M238.81337,180.10283c-0.06685,0.22996 -0.12234,0.73977 -0.23484,1.35218c-0.11249,0.61241 -0.3617,1.80109 -0.3617,1.80109c0,0 -0.60205,0.58591 -1.01024,-0.60831c-0.14112,-0.41284 0.49256,-2.75936 0.5219,-2.8603c0.18755,-0.64525 0.47483,-1.16113 0.88203,-1.01065c0.44641,0.16496 0.39039,0.68073 0.20284,1.32598z" data-paper-data="{&quot;index&quot;:null}" fill="#fde1c0" stroke="none"/><path d="M238.63509,187.21934c0,0 -0.86975,1.52528 -1.56382,1.04379c-0.23052,-0.15992 -0.34365,-0.50092 -0.34365,-0.50092c0,0 -0.35843,0.0507 -0.56568,-0.03722c-0.20724,-0.08793 -0.37401,-0.36146 -0.37401,-0.36146c0,0 -0.39236,-0.00832 -0.56875,-0.10504c-0.17639,-0.09673 -0.28578,-0.36353 -0.28578,-0.36353c0,0 -0.98261,-0.20173 -0.1195,-2.07269c0.16927,-0.36691 0.60026,0.12916 0.60026,0.12916c0,0 1.01431,-1.59575 2.23942,-0.86254c1.89492,1.13408 1.62571,2.64389 1.62571,2.64389l-0.64418,0.48656z" data-paper-data="{&quot;index&quot;:null}" fill="#ffffff" stroke="#000000"/><path d="M236.20987,183.98759c-0.20987,-0.19306 -0.12272,-0.43214 -0.06889,-0.65555c0.05382,-0.2234 0.318,-0.6532 0.318,-0.6532c0,0 0.5835,-0.21791 1.03419,0.01762c0.65307,0.3413 1.09305,0.97749 1.09305,0.97749c0,0 0.09498,0.60688 -0.27672,0.83857c-0.23401,0.14586 -1.47659,0.04825 -2.09964,-0.52492z" data-paper-data="{&quot;index&quot;:null}" fill="#fefefe" stroke="none"/><path d="M238.6636,186.03108c0,0 0.13739,0.37885 0.09331,0.67693c-0.03408,0.23042 -0.12604,0.54061 -0.12604,0.54061c0,0 0.01949,-0.44283 0.01834,-0.66377c-0.00114,-0.22094 0.01438,-0.55377 0.01438,-0.55377z" data-paper-data="{&quot;index&quot;:null}" fill="#000000" stroke="none"/><path d="M235.31331,186.10643c0,0 -0.09842,-0.38598 -0.0249,-0.6782c0.05684,-0.22587 0.13774,-0.51276 0.13774,-0.51276c0,0 -0.02699,0.36547 -0.04783,0.58543c-0.02083,0.21996 -0.065,0.60554 -0.065,0.60554z" data-paper-data="{&quot;index&quot;:null}" fill="#000000" stroke="none"/><path d="M236.87032,183.65233c-0.25963,0.0563 -0.41013,-0.08493 -0.42608,-0.22891c-0.01596,-0.14399 0.14542,-0.42813 0.40505,-0.48444c0.25964,-0.0563 0.35066,0.0954 0.37086,0.23885c0.03584,0.25445 -0.09019,0.41819 -0.34982,0.4745z" data-paper-data="{&quot;index&quot;:null}" fill="#f7e300" stroke="none"/><path d="M255.70033,171.08779c0,0.38602 -1.49511,0.00486 -2.82461,0.00486c-1.06577,0 -1.72323,-0.15356 -2.2011,-0.23485c-0.47787,-0.08129 -0.45573,-0.12849 -1.08146,-0.32357c-1.34944,-0.4207 -3.0658,-1.92849 -3.0658,-1.92849c0,0 0.99647,-0.57156 2.12612,-0.56033c2.10698,0.02095 4.53522,1.42358 5.00036,1.56529c1.07065,0.32619 2.04647,1.09108 2.04647,1.4771z" data-paper-data="{&quot;index&quot;:null}" fill="#ea750b" stroke="none"/><path d="M248.68806,170.09908c0,0 -0.94882,0.25647 -1.40148,0.40913c-0.53701,0.18109 -1.84351,0.7812 -1.84351,0.7812l-1.79398,-1.08133c0,0 0.62588,-0.35382 1.35854,-0.7958c1.00111,-0.60395 1.54906,-0.81159 1.54906,-0.81159c0,0 0.47857,0.18356 1.11686,0.48152c0.5378,0.25105 1.01451,1.01687 1.01451,1.01687z" data-paper-data="{&quot;index&quot;:null}" fill="#fedeb5" stroke="none"/><path d="M247.13492,170.44359c-0.74301,0.23226 -1.72308,0.77889 -1.72308,0.77889l-0.44397,-0.25466c0,0 2.66129,-1.2768 2.82057,-1.19692c0.20042,0.10053 0.60456,0.35046 0.60456,0.35046c0,0 -0.56316,0.105 -1.25808,0.32223z" data-paper-data="{&quot;index&quot;:null}" fill="#ebc0cd" stroke="none"/><path d="M236.99576,171.63545c0,0 -0.51218,-0.37165 -2.49261,-0.78578c-0.79916,-0.16712 -2.32579,-0.50861 -2.32579,-0.50861c0,0 -0.19504,-0.46314 0.50134,-0.84125c0.10999,-0.05971 0.38932,-0.25724 0.78352,-0.4412c0.4688,-0.21878 1.05308,-0.42333 1.05308,-0.42333l-0.07044,-0.29573c0,0 1.43236,0.55791 2.17299,0.8688c0.94239,0.39559 3.04222,1.34843 3.04222,1.34843l-2.66429,1.07866z" data-paper-data="{&quot;index&quot;:null}" fill="#fedeb5" stroke="none"/><path d="M231.52301,170.43358c-1.25578,0.36115 -1.6033,0.81557 -3.24685,0.63837c-1.64354,-0.1772 -4.05495,-0.02258 -3.95126,-0.89806c0.05054,-0.42675 2.57249,-0.80593 2.98179,-0.92299c1.1076,-0.2217 4.36192,-1.22292 5.9924,-1.15423c0.37309,0.01572 0.88971,0.11325 1.17365,0.24986c0.19809,0.0953 0.43924,0.16533 0.43924,0.16533c0,0 -1.07405,0.51924 -1.99002,1.22403c-0.36271,0.2791 -0.14316,0.33655 -1.39894,0.69769z" data-paper-data="{&quot;index&quot;:null}" fill="#ea750b" stroke="none"/><path d="M237.02508,171.50269c0,0 -0.82129,-0.36377 -1.95822,-0.65499c-1.23373,-0.31602 -2.59313,-0.57272 -2.59313,-0.57272c0,0 0.73149,-0.2123 1.09585,-0.29853c0.36437,-0.08623 3.97402,1.17857 3.97402,1.17857l-0.51852,0.34766z" data-paper-data="{&quot;index&quot;:null}" fill="#ebc0cd" stroke="none"/></g></g></svg>