<svg version="1.1" xmlns="http://www.w3.org/2000/svg" xmlns:xlink="http://www.w3.org/1999/xlink" width="26.46734" height="35.47738" viewBox="0,0,26.46734,35.47738"><g transform="translate(-223.63365,-162.82885)"><g data-paper-data="{&quot;isPaintingLayer&quot;:true}" fill-rule="nonzero" stroke-miterlimit="10" stroke-dasharray="" stroke-dashoffset="0" style="mix-blend-mode: normal"><g data-paper-data="{&quot;index&quot;:null}" stroke-linejoin="miter"><path d="M249.98978,196.28588c0,0 0.36375,0.21462 -0.6146,0.72614c-0.71092,0.34986 -2.23038,0.41748 -3.08836,0.20147c-0.85798,-0.21602 -1.4583,-0.84694 -2.05819,-1.58936c-0.59988,-0.74242 -0.77483,-1.38302 -1.00682,-1.7429c-0.82488,-1.27964 0.36879,-1.98674 0.36879,-1.98674c0,0 1.2517,3.99472 2.0572,4.25042c0.99381,0.31548 3.15999,0.56289 3.15999,0.56289z" fill="#947043" stroke="none" stroke-width="0" stroke-linecap="butt"/><path d="M247.04147,190.72258l0.23863,0.27225l0.11561,0.40568c0,0 0.4596,0.7813 0.67304,1.05817c0.26263,0.34067 0.54275,0.70892 1.23483,1.43939c0.57312,0.90552 0.7974,2.49073 0.7974,2.49073c0,0 -1.20691,0.59922 -2.36559,0.656c-0.88491,-0.05266 -2.10435,-0.39041 -2.59898,-0.89892c-0.58702,-0.60353 -0.91156,-1.34718 -1.17684,-1.80777c-0.03056,-0.05303 -0.73855,-1.47181 -0.64783,-1.85593c0.0907,-0.38412 0.24806,-0.97436 0.24806,-0.97436c0,0 -0.13837,0.05662 -0.11007,-0.278c0.00647,-0.0764 0.18631,-0.3106 0.18631,-0.3106l-0.19153,-0.02505l-0.0298,-0.72134l3.01777,-0.31653z" fill="#20201f" stroke="none" stroke-width="0" stroke-linecap="butt"/><path d="M243.68828,193.67677c0,0 0.19143,-1.48478 0.28697,-2.06346c0.0754,-0.45665 0.22317,-1.06046 0.22317,-1.06046" fill="none" stroke="#c8c7c6" stroke-width="0.125" stroke-linecap="round"/><path d="M242.98618,188.79824c-0.23733,-0.9043 0.96758,-1.4623 1.68504,-1.67219c0.71745,-0.20989 1.71222,0.48911 1.78971,0.65566c0.29547,0.63514 0.26118,1.71747 0.15478,1.90783c-0.33746,0.39184 -0.63856,0.55117 -1.69981,0.83598c-0.60007,0.09006 -1.05469,-0.01773 -1.4673,-0.38706c-0.41261,-0.36933 -0.2736,-0.62078 -0.46241,-1.3402z" fill="#c274a1" stroke="none" stroke-width="0" stroke-linecap="butt"/><path d="M243.01851,188.85172c-0.23733,-0.90428 0.96758,-1.4623 1.68504,-1.67219c0.71746,-0.20989 1.71224,0.4891 1.78971,0.65565c0.29545,0.63515 -1.16494,1.18146 -1.61017,1.33654c-0.36509,0.12718 -1.67577,0.39944 -1.86459,-0.31998z" fill="#cacacd" stroke="none" stroke-width="0" stroke-linecap="butt"/><path d="M247.46715,195.49497c0,0 0.19286,0.40217 0.36074,0.75221c0.16786,0.35004 0.18284,0.67195 0.09422,0.7255c-0.05549,0.03353 -0.26833,0.10263 -0.46358,-0.15532c-0.11651,-0.15391 0.0878,-0.26945 0.03885,-0.49562c-0.04894,-0.22616 -0.03024,-0.82678 -0.03024,-0.82678z" fill="#c8c7c6" stroke="none" stroke-width="0" stroke-linecap="butt"/><path d="M246.26436,196.56218c0,0 -0.1899,-2.1443 1.49555,-2.8419c1.18358,-0.48988 1.73999,0.51179 1.73999,0.51179" fill="none" stroke="#c8c7c6" stroke-width="0.125" stroke-linecap="round"/><path d="M249.33603,195.01252c0,0 0.34461,0.49227 0.42754,0.70829c0.08293,0.21603 0.31714,0.2008 0.30397,0.39338c-0.02208,0.32276 -0.23797,0.38154 -0.30279,0.38387c-0.10348,0.00372 -0.26727,-0.27381 -0.31854,-0.65862c-0.05127,-0.38479 -0.11017,-0.82692 -0.11017,-0.82692z" data-paper-data="{&quot;index&quot;:null}" fill="#c8c7c6" stroke="none" stroke-width="0" stroke-linecap="butt"/></g><path d="M243.60667,182.54158l1.10727,3.57983l0.64228,2.21341c0,0 -0.36505,0.10736 -0.62298,0.05714c-0.25794,-0.05022 -0.65111,-0.21024 -0.65111,-0.21024l-0.7472,-2.11797l-0.98097,-3.32144z" data-paper-data="{&quot;index&quot;:null}" fill="#20201f" stroke="none" stroke-width="0" stroke-linecap="butt" stroke-linejoin="miter"/><g data-paper-data="{&quot;index&quot;:null}" stroke-linejoin="miter"><path d="M241.4463,197.79381l1.25064,0.10478c0,0 0.2424,0.34587 -0.85991,0.40687c-0.79196,0.02446 -2.20331,-0.54248 -2.89509,-1.09405c-0.69179,-0.55157 -0.97737,-1.3743 -1.21643,-2.29837c-0.23906,-0.92407 -0.13335,-1.57966 -0.1957,-2.00327c-0.22168,-1.50624 1.15757,-1.65625 1.15757,-1.65625c0,0 -0.51278,4.1547 0.1148,4.7207c0.7743,0.69831 2.64415,1.81959 2.64415,1.81959z" fill="#947043" stroke="none" stroke-width="0" stroke-linecap="butt"/><path d="M242.31388,191.61399l0.10465,0.34658l-0.06256,0.41716c0,0 0.09527,0.90144 0.17506,1.24179c0.09818,0.4188 0.2009,0.86994 0.52885,1.82126c0.14724,1.06148 -0.30429,2.59751 -0.30429,2.59751c0,0 -1.34668,0.04632 -2.42508,-0.38126c-0.78388,-0.41398 -1.75441,-1.2259 -1.99438,-1.89345c-0.2848,-0.79229 -0.27267,-1.60358 -0.32368,-2.13266c-0.00588,-0.06093 -0.0636,-1.6455 0.17789,-1.95768c0.24147,-0.3122 0.62888,-0.78448 0.62888,-0.78448c0,0 -0.14939,-0.00568 0.01478,-0.29862c0.03749,-0.06688 0.2981,-0.20572 0.2981,-0.20572l-0.16402,-0.10203l0.27125,-0.66907l2.87842,0.9601z" fill="#20201f" stroke="none" stroke-width="0" stroke-linecap="butt"/><path d="M238.03903,192.91659c0,0 0.78845,-1.27262 1.11481,-1.75994c0.25754,-0.38457 0.64183,-0.87318 0.64183,-0.87318" fill="none" stroke="#c8c7c6" stroke-width="0.125" stroke-linecap="round"/><path d="M241.64361,187.35915c0.74001,0.10567 1.35656,1.15355 1.35821,1.33723c0.00629,0.70048 -0.47264,1.67169 -0.64825,1.80098c-0.46932,0.21717 -0.80936,0.23767 -1.89337,0.05799c-0.58358,-0.16623 -0.95288,-0.45241 -1.17578,-0.95933c-0.22288,-0.50692 0.00768,-0.67837 0.13337,-1.41145c0.15797,-0.92148 1.4858,-0.9311 2.22582,-0.82542z" fill="#c274a1" stroke="none" stroke-width="0" stroke-linecap="butt"/><path d="M239.42509,188.24663c0.15797,-0.92146 1.4858,-0.9311 2.22582,-0.82542c0.74002,0.10568 1.35658,1.15356 1.35822,1.33724c0.00628,0.70048 -1.5493,0.59378 -2.0188,0.5508c-0.385,-0.03523 -1.69091,-0.32951 -1.56523,-1.06261z" fill="#cacacd" stroke="none" stroke-width="0" stroke-linecap="butt"/><path d="M240.41291,196.90028c0.049,-0.22615 0.31446,-0.76524 0.31446,-0.76524c0,0 0.00924,0.44594 0.01729,0.83406c0.00806,0.38812 -0.11147,0.68739 -0.21431,0.6995c-0.06441,0.00758 -0.28675,-0.01755 -0.35782,-0.33317c-0.0424,-0.18831 0.1914,-0.209 0.24038,-0.43516z" fill="#c8c7c6" stroke="none" stroke-width="0" stroke-linecap="butt"/><path d="M242.2418,196.39652c0,0 0.14789,0.58242 0.14892,0.81381c0.00103,0.2314 0.22544,0.30013 0.1449,0.47555c-0.13498,0.29401 -0.35769,0.2725 -0.41913,0.25172c-0.09809,-0.03318 -0.15294,-0.35073 -0.06458,-0.72875c0.08838,-0.37801 0.1899,-0.81233 0.1899,-0.81233z" data-paper-data="{&quot;index&quot;:null}" fill="#c8c7c6" stroke="none" stroke-width="0" stroke-linecap="butt"/><path d="M239.19086,196.60916c0,0 0.71409,-2.0308 2.53715,-1.96875c1.28022,0.04357 1.37246,1.18569 1.37246,1.18569" fill="none" stroke="#c8c7c6" stroke-width="0.125" stroke-linecap="round"/><g fill="#83c4ac" stroke="none" stroke-width="0" stroke-linecap="butt"><path d="M239.50231,190.52877l0.1932,-0.09563l0.848,0.59177c0,0 -0.47587,0.50828 -0.60769,0.50431c-0.11171,-0.00338 -0.43351,-1.00045 -0.43351,-1.00045z"/><path d="M238.98426,189.87292c0.09887,-0.05211 0.76183,0.56255 0.76183,0.56255l-0.23959,0.1631l-0.80187,-0.14806c0,0 0.16297,-0.51609 0.27963,-0.57759z" data-paper-data="{&quot;index&quot;:null}"/><path d="M239.18864,192.31788c-0.10935,-0.02314 -0.24927,-1.06146 -0.24927,-1.06146l0.24918,-0.07453l0.68756,0.74741c0,0 -0.55846,0.41586 -0.68747,0.38858z"/><path d="M238.63542,190.43108c0.10935,-0.02315 0.57933,0.74915 0.57933,0.74915l-0.27502,0.09151l-0.73099,-0.36134c0,0 0.29766,-0.45202 0.42668,-0.47933z" data-paper-data="{&quot;index&quot;:null}"/><path d="M238.24679,192.92366l-0.10974,-0.38076l0.5146,-0.71729c0,0 0.11941,-0.39021 0.25829,-0.28943c0.13888,0.10079 -0.05618,0.4361 -0.05618,0.4361l-0.1448,0.96598z"/></g></g><path d="M241.97037,182.89646l-0.12883,4.13857l-0.09118,1.80613c0,0 -0.56007,-0.05842 -0.81285,-0.16416c-0.25279,-0.10573 -0.56761,-0.41324 -0.56761,-0.41324l0.08751,-1.34977l0.20122,-3.77149z" data-paper-data="{&quot;index&quot;:null}" fill="#20201f" stroke="none" stroke-width="0" stroke-linecap="butt" stroke-linejoin="miter"/><g stroke="none" stroke-width="0" stroke-linecap="butt" stroke-linejoin="miter"><path d="M241.93176,168.05724c0.00264,-0.13553 0.6533,-0.96168 0.99848,-1.28684c0.18853,-0.17758 0.53761,-0.51072 0.93471,-0.33276c0.10122,0.04536 0.42568,0.47822 0.42568,0.47822l0.40843,-0.09576c0,0 0.22776,0.1028 0.3145,0.22677c0.08675,0.12397 0.14691,0.39929 0.14691,0.39929c0,0 0.15951,0.06359 0.28062,0.08513c0.39531,0.07025 0.36204,0.44531 0.36204,0.44531c0,0 0.2926,0.01812 0.45824,0.15117c0.26258,0.2109 0.4475,0.601 0.47367,0.83376c0.04447,0.3954 -0.09499,1.49577 -0.44458,1.61859c-0.5445,0.19127 -0.70017,-0.50232 -0.70017,-0.50232c0,0 -0.18133,0.57447 -0.45387,0.81673c-0.41967,0.37302 -0.78314,0.38942 -0.78314,0.38942l-2.25834,-0.96305c0,0 -0.17974,-1.41298 -0.16317,-2.26362z" fill="#20201f"/><path d="M243.28645,169.81037c1.16748,0.67153 1.7897,2.01592 1.59158,2.93766c-0.19812,0.92173 -1.39074,0.75056 -2.31625,0.2182c-0.92552,-0.53236 -1.52343,-1.38696 -1.30093,-2.29879c0.2225,-0.91183 0.85812,-1.5286 2.0256,-0.85707z" fill="#20201f"/><path d="M241.91617,173.64535c0.37101,-1.19334 0.67822,-2.44637 0.67822,-2.44637l1.03191,0.86767c0,0 -0.58642,1.53883 -0.73609,2.02025c-0.24551,0.78969 -0.5157,1.80321 -0.80037,2.96837c-0.07132,0.29195 -0.26511,0.42407 -0.56581,0.36352c-0.20201,-0.04069 -0.37389,-0.16045 -0.33245,-0.53356c0.1251,-1.12675 0.46509,-2.40521 0.7246,-3.23987z" fill="#fed5c7"/><path d="M246.73986,169.74057c-0.05656,0.41118 -0.3126,0.88092 -0.69759,0.91531c-0.59962,0.05356 -0.57893,-0.68766 -0.57893,-0.68766c0,0 1.30982,-0.4697 1.27651,-0.22764z" fill="#c0c2c6"/><path d="M245.61281,168.88518c-0.05656,0.41118 -0.3126,0.88092 -0.69759,0.91531c-0.59962,0.05356 -0.57893,-0.68766 -0.57893,-0.68766c0,0 1.30982,-0.4697 1.27651,-0.22764z" fill="#c0c2c6"/><path d="M244.5732,168.15092c-0.05656,0.41118 -0.3126,0.88092 -0.69759,0.91531c-0.59962,0.05356 -0.57893,-0.68766 -0.57893,-0.68766c0,0 1.30982,-0.4697 1.27651,-0.22764z" fill="#c0c2c6"/><path d="M243.49544,169.14468c0.09785,0.40334 0.03152,0.93421 -0.31418,1.10711c-0.53841,0.26931 -0.79044,-0.42806 -0.79044,-0.42806c0,0 1.04702,-0.91651 1.10463,-0.67905z" fill="#c0c2c6"/><path d="M243.7172,167.76099c-0.05656,0.41118 -0.3126,0.88092 -0.69759,0.91531c-0.59962,0.05356 -0.57893,-0.68766 -0.57893,-0.68766c0,0 1.30982,-0.4697 1.27651,-0.22764z" fill="#c0c2c6"/><g><path d="M243.02263,174.50888l-0.28371,1.1048l-1.3671,-0.45875l0.2521,-1.11798z" fill="#83c4ac"/><path d="M242.15548,175.1756c0.58721,0.18412 0.98525,0.52728 0.66962,1.65696c-0.17754,0.63542 -0.79749,1.0013 -1.3847,0.8172c-0.58721,-0.18411 -0.90309,-0.84356 -0.74177,-1.48391c0.26893,-1.06754 0.86966,-1.17435 1.45687,-0.99026z" fill="#20201f"/><path d="M242.20078,172.54825l1.09746,0.31622l0.55721,0.35907l-0.84599,1.31693l-1.43033,-0.48511l0.06628,-1.49366z" fill="#bebec0"/></g></g><g data-paper-data="{&quot;index&quot;:null}" stroke-width="0" stroke-linecap="butt" stroke-linejoin="miter"><g data-paper-data="{&quot;index&quot;:null}"><path d="M243.32205,166.48275c-0.95704,0.47261 -2.1146,0.08275 -2.58548,-0.87078c-0.47088,-0.95353 -0.07678,-2.10965 0.88027,-2.58226c0.95704,-0.47261 2.11462,-0.08275 2.58549,0.87078c0.47088,0.95353 0.07676,2.10966 -0.88029,2.58227z" fill="#c2e266" stroke="none"/><path d="M243.34093,166.36099c-0.59127,0.29199 -1.30641,0.05113 -1.59732,-0.53797c-0.29092,-0.5891 -0.04744,-1.30334 0.54384,-1.59533c0.59127,-0.29199 1.30641,-0.05113 1.59732,0.53797c0.29091,0.58909 0.04744,1.30334 -0.54384,1.59533z" fill="#c2e266" stroke="#000000"/><path d="M243.62833,166.88247c-0.52493,0.25632 -1.3292,0.25906 -1.3292,0.25906l0.03623,-0.56427c0,0 0.71952,0.01567 1.11532,-0.2085c0.3958,-0.22418 0.78023,-0.86512 0.78023,-0.86512l0.49701,0.51454c0,0 -0.64019,0.63997 -1.0996,0.8643z" fill="#dbded5" stroke="#000000"/></g><g data-paper-data="{&quot;index&quot;:null}" stroke="none"><path d="M240.51975,173.44539c0.1849,0.37441 0.18855,0.75017 0.00817,0.83925c-0.18038,0.08908 -0.4765,-0.14224 -0.6614,-0.51666c-0.1849,-0.37442 -0.18857,-0.75016 -0.00818,-0.83924c0.18039,-0.08908 0.47651,0.14223 0.66142,0.51666z" fill="#000000"/><path d="M240.93384,178.2807c0.1879,-0.09279 1.8354,1.48855 1.8354,1.48855c0,0 -0.79434,0.76331 -0.98224,0.8561c-0.18789,0.09278 -1.03819,-0.83402 -1.11954,-0.99877c-0.08136,-0.16475 0.0785,-1.25309 0.2664,-1.34588z" fill="#807d5a"/><path d="M240.21406,174.18362l-0.22912,-0.23541l1.75259,-7.44308l0.1849,0.07735z" fill="#6e6e73"/><path d="M241.4617,167.20351l0.44224,0.14141l-0.44979,1.74004l-0.41503,-0.15485z" fill="#c2e266"/></g></g><g data-paper-data="{&quot;index&quot;:null}" stroke-width="0" stroke-linecap="butt" stroke-linejoin="miter"><g data-paper-data="{&quot;index&quot;:null}"><path d="M223.8887,175.03116c-0.60406,-1.22323 -0.09847,-2.70634 1.12925,-3.31263c1.22774,-0.60629 2.7127,-0.10615 3.31676,1.11707c0.60406,1.22323 0.09847,2.70633 -1.12926,3.31262c-1.22773,0.60629 -2.71269,0.10616 -3.31675,-1.11706z" fill="#c2e266" stroke="none"/><path d="M225.01763,175.38237c-0.37319,-0.75572 -0.06083,-1.67198 0.69766,-2.04654c0.7585,-0.37457 1.67589,-0.06559 2.04909,0.69012c0.37319,0.75571 0.06084,1.67198 -0.69765,2.04654c-0.7585,0.37457 -1.67591,0.06559 -2.0491,-0.69013z" fill="#c2e266" stroke="#000000"/><path d="M227.37378,176.7719c-0.58677,0.29301 -1.73785,0.44604 -1.73785,0.44604l-0.13653,-0.90752c0,0 0.95266,0.10826 1.48966,-0.12008c0.537,-0.22835 1.08213,-0.97348 1.08213,-0.97348l0.60302,0.40314c0,0 -0.62997,0.81711 -1.30041,1.15189z" fill="#dbded5" stroke="#000000"/></g><g data-paper-data="{&quot;index&quot;:null}" stroke="none"><path d="M236.43204,180.45943c-0.00332,-0.47147 -0.8312,-2.81328 0.34346,-3.35009c0.18231,-0.08332 2.14344,0.39562 2.81721,1.23021c0.91652,1.13528 0.57691,2.74063 0.57691,2.74063l-2.80189,1.36201c0,0 -0.9324,-1.51131 -0.93572,-1.98277z" fill="#c2e266"/><path d="M236.4724,177.64681c0.23141,-0.11428 0.61129,0.18246 0.84849,0.66279c0.2372,0.48032 0.24188,0.96235 0.01048,1.07662c-0.2314,0.11427 -0.61127,-0.18247 -0.84847,-0.6628c-0.2372,-0.48033 -0.2419,-0.96234 -0.0105,-1.07661z" fill="#000000"/><path d="M238.4714,184.33317c-0.50746,-0.69464 -1.11316,-1.90236 -1.11316,-1.90236c0,0 0.35496,-0.56033 0.63407,-0.81802c0.27911,-0.25769 0.79729,-0.57106 0.79729,-0.57106l1.45147,0.15857c0,0 1.508,2.58756 1.68899,2.92495c0.36449,0.67949 -0.66144,1.82672 -0.66144,1.82672l-1.27235,0.08996c0,0 -1.01743,-1.01412 -1.52489,-1.70876z" fill="#20201f"/><path d="M241.17015,185.94624c0,0 -0.32601,-2.9113 -0.08496,-3.03034c0.24105,-0.11904 1.47429,0.56686 1.57866,0.7782c0.10437,0.21134 0.38534,1.80022 0.14429,1.91925c-0.24105,0.11904 -1.638,0.3329 -1.638,0.3329z" fill="#c274a1"/><path d="M228.39851,174.80031l0.06541,-0.24867l8.94821,4.01911l0.06113,0.41695z" fill="#6e6e73"/><path d="M231.47861,175.73133l-0.16592,0.54351l-2.12316,-0.89876l0.20084,-0.56074z" fill="#c2e266"/></g></g><g data-paper-data="{&quot;index&quot;:null}" stroke="none" stroke-width="0" stroke-linecap="butt" stroke-linejoin="miter"><path d="M241.2776,181.8952c0,0 -1.38833,3.70283 -2.12228,4.07621c-0.79755,0.40573 -2.82455,0.01802 -2.82455,0.01802l2.49605,-0.7473l1.22873,-2.81729l1.22207,-0.52962z" fill="#f79db4"/><path d="M238.76866,179.94022c0.61221,0.31904 0.59874,0.98888 0.27969,1.60109c-0.31904,0.61221 -0.82284,0.93497 -1.43505,0.61593c-0.61221,-0.31904 -0.84987,-1.07397 -0.53083,-1.68618c0.31904,-0.61221 1.07398,-0.84988 1.68619,-0.53083z" fill="#83c4ac"/><path d="M245.5496,185.17027c-0.09758,0.50262 -1.09592,1.36798 -1.83588,1.1803c-0.39603,0.68043 -1.28376,0.36139 -2.01156,0.00142c-0.638,0.56173 -1.24315,0.06635 -2.04836,-0.18773c-0.80521,-0.25408 -0.91238,-0.6272 -0.91238,-0.6272c0,0 -0.24959,-0.75008 -0.15492,-1.10899c0.09466,-0.35891 0.21451,-1.12335 0.21451,-1.12335c0,0 -0.45626,-0.40064 0.3134,-0.17959c0.63467,0.18228 1.49563,0.67649 3.39451,-0.34153c2.12957,-1.1417 1.64823,-2.03337 1.64823,-2.03337c0,0 1.45031,0.89072 1.5228,2.78733c0.05509,1.44138 0.79311,1.45871 -0.13035,1.63272z" fill="#c0c2c6"/><path d="M240.77759,176.42033c0,0 0.52735,0.60365 0.89708,1.12232c0.36975,0.51867 0.83677,1.28091 0.83677,1.28091c0,0 0.3882,0.87034 1.17902,0.90717c0.26755,0.09497 1.88122,2.3504 1.71522,2.7163c-0.22086,0.48686 -1.55633,1.05298 -1.76343,1.34709c-0.44264,0.62859 -3.49005,0.35115 -4.01123,0.29621c-0.30787,-0.03245 -0.447,-0.4833 -0.74479,-0.6649c-0.47599,-0.29029 -0.18824,-1.40182 0.09498,-2.13059c0.28322,-0.72878 0.27429,-0.88981 0.22069,-1.72612c-0.0536,-0.83631 -0.88699,-1.996 -0.88699,-1.996l2.11649,-1.02363l0.34615,-0.12878z" fill="#20201f"/><path d="M238.99695,182.11356l-0.34535,-0.1672c0,0 0.20069,-0.35698 0.28357,-0.59024c0.092,-0.25895 0.13375,-0.40611 0.13375,-0.40611l0.87428,0.38976l-0.15025,0.48413z" data-paper-data="{&quot;index&quot;:null}" fill="#c274a1"/><path d="M240.7506,182.02234l-0.95301,-0.183l0.12006,-0.38987l1.07509,0.21056z" data-paper-data="{&quot;index&quot;:null}" fill="#c0c2c6"/><path d="M243.38266,180.00953l-0.49143,-0.12431l-0.0871,-0.72769c0,0 0.30524,0.24616 0.57416,0.30271c0.24225,0.05094 0.50877,0.44224 0.50877,0.44224z" fill="#c274a1"/><path d="M242.315,181.27979l0.61591,-1.41417l0.39527,0.1009l-0.57575,1.29563z" fill="#c0c2c6"/><path d="M238.4485,177.34816l2.38754,-1.10312c0,0 0.52548,-0.18863 1.15773,1.07421c0.2791,0.55745 0.38477,1.4983 0.38477,1.4983l-0.72997,-0.40294c0,0 -0.10797,0.72129 -0.22578,1.03644c-0.1157,0.3095 -0.38512,0.72805 -0.51109,0.85569c-0.1298,0.13152 -1.41299,0.86302 -2.13892,-1.00757c-0.5947,-1.53245 -0.32429,-1.95102 -0.32429,-1.95102z" fill="#c0c0c3"/><path d="M239.23499,177.20859l1.7099,-1.01181l-0.26037,0.75431z" fill="#222225"/><g><g><path d="M243.14999,181.91565c-0.08764,0.63023 -0.85204,1.04472 -1.70736,0.92579c-0.85531,-0.11893 -1.47764,-0.72624 -1.39,-1.35647c0.08764,-0.63023 0.85204,-1.04472 1.70736,-0.92579c0.85531,0.11893 1.47764,0.72624 1.39001,1.35648z" fill="#c0c2c6"/><path d="M240.97441,179.86553c0.22918,0.10185 0.33238,0.37021 0.23053,0.59937c-0.10185,0.22917 -0.37021,0.33238 -0.59937,0.23053c-0.22917,-0.10185 -0.33237,-0.37021 -0.23052,-0.59938c0.10186,-0.22917 0.37021,-0.33237 0.59938,-0.23052z" fill="#000000"/><path d="M241.08594,180.11405c0.0774,0.17158 -0.0961,0.20453 -0.26768,0.28195c-0.17158,0.07741 -0.27623,0.16997 -0.35365,-0.00161c-0.07741,-0.17157 -0.00108,-0.37341 0.1705,-0.45082c0.17157,-0.07741 0.37341,-0.00108 0.45082,0.1705z" fill="#c478a9"/><path d="M243.23312,180.54812c-0.00213,0.25078 -0.20716,0.45234 -0.45793,0.45021c-0.25078,-0.00213 -0.45233,-0.20716 -0.4502,-0.45794c0.00213,-0.25078 0.20716,-0.45234 0.45793,-0.45021c0.25078,0.00213 0.45234,0.20716 0.45021,0.45793z" fill="#000000"/><path d="M243.0496,180.74941c-0.12654,0.13935 -0.22588,-0.00667 -0.36524,-0.13321c-0.13935,-0.12654 -0.26594,-0.18567 -0.1394,-0.32502c0.12654,-0.13935 0.34208,-0.14974 0.48143,-0.02321c0.13935,0.12654 0.14974,0.34208 0.02321,0.48143z" fill="#c478a9"/><path d="M242.69961,181.04774c0.03807,0.07709 -0.07488,0.25146 -0.29255,0.35895c-0.21767,0.10749 -0.48986,0.00076 -0.52793,-0.07633c-0.03807,-0.07709 0.09962,-0.28409 0.31729,-0.39159c0.21767,-0.10749 0.46512,0.03188 0.5032,0.10898z" fill="#000000"/><path d="M241.30802,180.80664c0.18631,0.15564 0.27149,0.3892 0.21637,0.45519c-0.05512,0.06599 -0.34477,0.10577 -0.53108,-0.04987c-0.18632,-0.15564 -0.25513,-0.35165 -0.20001,-0.41764c0.05512,-0.06599 0.3284,-0.14331 0.51471,0.01233z" data-paper-data="{&quot;index&quot;:null}" fill="#000000"/><path d="M242.32556,181.32438c-0.08163,0.04031 -0.18048,0.00682 -0.22079,-0.07481c-0.04031,-0.08162 -0.00681,-0.18047 0.07482,-0.22078c0.08162,-0.04031 0.18046,-0.00682 0.22078,0.07481c0.04031,0.08163 0.00683,0.18047 -0.0748,0.22078z" fill="#ffffff"/><path d="M241.35941,181.24997c-0.08616,0.04255 -0.1905,0.00719 -0.23304,-0.07897c-0.04255,-0.08616 -0.00719,-0.1905 0.07897,-0.23304c0.08616,-0.04255 0.1905,-0.00719 0.23304,0.07897c0.04255,0.08616 0.00719,0.1905 -0.07897,0.23304z" fill="#ffffff"/></g><path d="M241.89342,181.53487c-0.0121,0.06463 -0.10187,0.12067 -0.19632,0.10298c-0.09445,-0.0177 -0.15783,-0.10243 -0.14572,-0.16706c0.01211,-0.06462 0.35415,-0.00055 0.34204,0.06408z" fill="#000000"/><path d="M242.40519,181.58879c0.14155,0.00393 0.2546,0.06859 0.2525,0.14443c-0.00211,0.07584 -0.11858,0.13413 -0.26013,0.1302c-0.14155,-0.00393 -0.2546,-0.06859 -0.2525,-0.14443c0.00211,-0.07584 0.11858,-0.13413 0.26013,-0.1302z" fill="#ad597c"/><path d="M240.9319,181.37673c0.14155,0.00393 0.2546,0.06859 0.2525,0.14443c-0.00211,0.07584 -0.11858,0.13413 -0.26013,0.1302c-0.14155,-0.00393 -0.2546,-0.06859 -0.2525,-0.14443c0.00211,-0.07584 0.11858,-0.13413 0.26013,-0.1302z" fill="#ad597c"/></g><g fill="#83c4ac"><path d="M242.5521,178.43018c0,0 -0.45694,-0.06387 -0.64108,-0.08208c-0.20719,-0.0205 -0.54107,-0.03484 -0.54107,-0.03484l-0.01032,-0.20205c0,0 0.33866,-0.21769 0.51272,-0.26691c0.19011,-0.05375 0.58406,-0.04324 0.58406,-0.04324l0.09568,0.62912z"/><path d="M241.06562,179.64577l-0.55228,-0.3161c0,0 0.13225,-0.37124 0.25095,-0.52918c0.10868,-0.1446 0.63877,-0.72171 0.63877,-0.72171l-0.00733,0.23697c0,0 -0.11989,0.50184 -0.17549,0.70248c-0.04941,0.17831 -0.15462,0.62753 -0.15462,0.62753z" data-paper-data="{&quot;index&quot;:null}"/><path d="M242.25073,179.8175c0,0 -0.27297,-0.54451 -0.42539,-0.8149c-0.15243,-0.27039 -0.4161,-0.6778 -0.4161,-0.6778l0.26354,-0.10032c0,0 0.2029,0.25483 0.35738,0.50916c0.15448,0.25433 0.36012,0.67208 0.36012,0.67208z"/><path d="M241.77812,179.88691c0,0 -0.20669,-0.41723 -0.31472,-0.6945c-0.10804,-0.27727 -0.24593,-0.77291 -0.24593,-0.77291l0.19207,-0.15447c0,0 0.19266,0.54683 0.31469,0.83223c0.12203,0.2854 0.38831,0.86304 0.38831,0.86304z" data-paper-data="{&quot;index&quot;:null}"/></g></g><g data-paper-data="{&quot;index&quot;:null}" stroke="none" stroke-width="0" stroke-linecap="butt" stroke-linejoin="miter"><path d="M245.07929,182.27127c0.47188,0.9249 -0.21138,2.21847 -1.52611,2.88924c-1.31472,0.67076 -2.76306,0.46475 -3.23495,-0.46016c-0.47188,-0.9249 0.21138,-2.21847 1.52609,-2.88924c1.31472,-0.67076 2.76307,-0.46474 3.23496,0.46016z" fill="#20201f"/><path d="M239.50161,178.13271c0.82638,0.84596 1.63307,1.9656 2.13491,2.72687c0.71749,1.08839 1.38847,2.03674 1.38847,2.03674l-1.03202,0.65091c0,0 -1.06729,-1.75464 -1.35674,-2.19373c-0.4748,-0.72025 -1.11389,-1.60842 -1.86575,-2.6085c-0.18838,-0.2506 -0.16686,-0.49429 0.08083,-0.69687c0.16642,-0.13609 0.37668,-0.19555 0.65032,0.08457z" fill="#fed5c7"/><path d="M240.03576,180.7578l-0.65855,-0.93134l1.23455,-0.7452l0.68905,0.91578z" fill="#83c4ac"/><path d="M240.27688,177.91374c0.63969,0.89596 0.33231,1.42303 -0.18809,1.75149c-0.52041,0.32846 -1.03963,0.40975 -1.69647,-0.56203c-0.36946,-0.54661 -0.2471,-1.25599 0.27331,-1.58445c0.52041,-0.32845 1.22754,-0.14243 1.61126,0.395z" fill="#20201f"/><path d="M242.06226,181.4003l-0.95136,0.63192l-0.63437,0.19234l-0.45632,-1.49728l1.29556,-0.77633l1.0957,1.01728z" fill="#bebec0"/><g><path d="M244.0306,183.25154c0,0 1.28886,0.73929 1.98629,1.28817c0.11111,0.08746 0.38929,1.14859 0.44273,1.64035c0.02919,0.26859 0.08682,0.76863 -0.31107,0.98713c-0.10144,0.0557 -0.66573,0.05343 -0.66573,0.05343l-0.17723,0.40011c0,0 -0.2288,0.12487 -0.38653,0.11907c-0.15773,-0.0058 -0.42468,-0.12893 -0.42468,-0.12893c0,0 -0.15325,0.09276 -0.24735,0.17998c-0.30714,0.28476 -0.59829,0.02114 -0.59829,0.02114c0,0 -0.19916,0.23208 -0.41405,0.28623c-0.34067,0.08584 -0.78161,-0.00567 -0.99176,-0.13031c-0.357,-0.21171 -1.18496,-1.01997 -1.06723,-1.38814c0.18337,-0.57341 0.85845,-0.26666 0.85845,-0.26666c0,0 -0.36398,-0.51228 -0.39411,-0.89146c-0.0464,-0.58388 0.16859,-0.89665 0.16859,-0.89665l2.22201,-1.27345z" fill="#20201f"/><path d="M241.74851,187.5779c-0.357,-0.21171 -0.69054,-0.62999 -0.57282,-0.99815c0.18337,-0.57341 0.85844,-0.26666 0.85844,-0.26666c0,0 -0.07547,1.38945 -0.28562,1.26481z" fill="#c0c2c6"/></g></g><g><g data-paper-data="{&quot;index&quot;:null}"><g data-paper-data="{&quot;index&quot;:null}" fill="#86cbb6" stroke="none" stroke-width="0" stroke-linecap="butt" stroke-linejoin="miter"><path d="M240.41539,167.43261c-0.4507,0.17236 -0.67524,0.31357 -0.67524,0.31357l-0.68286,0.10608c0,0 0.40798,-0.7396 0.74332,-1.01389c0.33534,-0.27429 1.16403,-0.64185 1.16403,-0.64185l0.45511,0.92032c0,0 -0.55363,0.14342 -1.00434,0.31577z"/><path d="M241.37722,168.70975c0,0 -0.55699,-0.22861 -0.81827,-0.33696c-0.3599,-0.14925 -1.49891,-0.56872 -1.49891,-0.56872l0.52383,-0.28434c0,0 0.83738,0.12703 1.20031,0.19137c0.29115,0.05161 0.8098,0.16501 0.8098,0.16501z"/></g><g stroke="none" stroke-width="0" stroke-linecap="butt" stroke-linejoin="miter"><path d="M238.44726,164.6675c0.83953,0.07254 1.1453,0.3545 1.5401,1.17462c0.3948,0.82012 -0.21552,2.4009 -0.21552,2.4009c0,0 -0.71197,-0.61728 -1.25434,-0.83911c-0.54237,-0.22182 -1.55008,-0.30786 -1.55008,-0.30786c0,0 0.01734,-0.81115 0.22193,-1.43639c0.15372,-0.48019 0.40617,-0.96616 1.25794,-0.99216z" data-paper-data="{&quot;index&quot;:null}" fill="#20201f"/><path d="M239.41432,165.10877c0.55419,0.41469 0.6875,1.46027 0.6875,1.46027l-1.02888,-0.17678c0,0 -0.08652,-1.6037 0.34138,-1.2835z" data-paper-data="{&quot;index&quot;:null}" fill="#b2b1b2"/></g><path d="M233.00303,168.33079c2.70728,-1.95298 6.26736,-1.64342 7.95167,0.69141c1.68432,2.33484 0.85504,5.81079 -1.85224,7.76377c-2.70727,1.95298 -6.26734,1.64343 -7.95166,-0.69141c-1.68432,-2.33484 -0.85506,-5.81081 1.85221,-7.76379z" fill="#f79eb4" stroke="none" stroke-width="0" stroke-linecap="butt" stroke-linejoin="miter"/><path d="M241.814,170.55482c-0.00434,-0.01673 0.6403,0.82587 0.81423,2.35755c0.28724,2.46767 -0.87911,3.38021 -0.87911,3.38021l-0.30386,-0.9043c0,0 0.25,-2.30645 0.20112,-3.0695c-0.0489,-0.76305 -0.57204,-1.82589 -0.57178,-1.82521" fill="#f79eb4" stroke="#f89db5" stroke-width="0" stroke-linecap="butt" stroke-linejoin="round"/><g fill="#ffd5c5" stroke="none" stroke-width="1" stroke-linecap="round" stroke-linejoin="round"><path d="M241.72779,172.97583c0.40824,0.36475 0.30678,1.00571 0.16609,1.48678c-0.02304,0.0787 -0.20491,0.69346 -0.71765,1.40745c-0.64338,0.89587 -1.87898,1.54299 -2.22799,1.73702c-0.41625,0.23135 -1.40783,0.29553 -1.59987,0.25717c-1.38216,-0.27617 -1.09153,-1.10129 -1.05528,-1.22421c0.0173,-0.05861 0.17763,-0.29882 0.49912,-0.39718c0.31336,-0.09586 1.27596,-0.21175 1.50551,-0.3927c0.24665,-0.19441 1.31667,-1.69411 2.05319,-2.22395c0.15423,-0.10851 0.39239,-0.20263 0.5848,-0.19514c0.25043,0.00981 0.66314,0.07684 0.72903,-0.28583c0.01064,-0.05872 0.0185,-0.20914 0.06302,-0.1694z"/><path d=""/></g><g fill="#000000" stroke="#000000" stroke-width="0.125" stroke-linecap="butt" stroke-linejoin="round"><path d="M241.50957,172.62186c0.03843,-0.05343 0.2965,-0.20203 0.5932,-0.5434c0.18042,-0.22361 0.35893,-0.449 0.51676,-0.68896c0.09446,-0.14369 0.15166,-0.31476 0.25139,-0.45343c0.00338,-0.00473 -0.15397,0.3745 -0.21022,0.47769c-0.17629,0.32347 -0.35579,0.58743 -0.58278,0.8768c-0.04983,0.06355 -0.50156,0.52097 -0.51307,0.49899"/><path d="M241.34039,172.33957c0.03564,0.00568 0.31161,-0.17811 0.54081,-0.57386c0.2292,-0.39574 0.48645,-1.02779 0.47983,-1.06836c-0.00251,-0.01531 -0.21472,0.78658 -0.36083,1.08892c-0.14611,0.30232 -0.5662,0.77719 -0.57696,0.7567"/></g><g fill="#000000" stroke="none" stroke-width="1" stroke-linecap="round" stroke-linejoin="round"><path d="M240.38743,173.9589c0.05781,-0.17494 0.52111,-0.43698 0.63424,-0.43611c0.19572,0.00151 0.03317,0.42304 -0.0603,0.4814c-0.21469,0.11106 -0.64998,0.18488 -0.57393,-0.0453z"/><path d=""/></g><path d="M234.78339,174.67365c-0.01441,-0.05496 1.02815,1.59579 1.56089,2.29712c1.00325,1.3207 1.91545,1.93062 1.91545,1.93062c0,0 -0.42727,0.01919 -0.53862,0.01133c-0.34396,-0.02419 -0.66147,-0.06494 -0.99914,-0.1481c-0.79421,-0.19563 -1.52125,-0.59201 -2.16,-1.09852c-0.42569,-0.33756 -1.89483,-2.10061 -1.88436,-2.12512" fill="#f79eb4" stroke="#f89db5" stroke-width="0" stroke-linecap="butt" stroke-linejoin="round"/><path d="M232.58242,175.57082c-0.0033,0.02044 1.8745,2.11938 2.44857,2.66481c0.57406,0.54544 1.62913,1.20949 1.62913,1.20949c0,0 -0.37067,0.18916 -1.1956,0.00616c-0.72841,-0.1616 -1.12001,-0.22724 -1.96338,-0.91006c-1.09437,-0.88604 -2.26955,-2.33957 -2.3341,-2.73624" fill="#f79eb4" stroke="#f89db5" stroke-width="0" stroke-linecap="butt" stroke-linejoin="round"/><g stroke="none" stroke-width="1" stroke-linecap="round" stroke-linejoin="round"><path d="M237.49025,168.16959c-0.1093,0.00989 -2.8746,0.28971 -4.11517,1.52393c-0.97778,0.97277 -1.25752,1.8136 -1.74187,3.26341c-0.37357,1.1181 0.06423,2.73725 0.0395,2.76613c-0.00177,0.00207 -2.10534,-3.54053 0.54152,-6.19586c2.15996,-2.12261 5.16092,-2.08076 5.31135,-2.04379" fill="#20201f"/><path d="" fill="#ee1a40"/></g><path d="M238.38843,168.87998c-0.00764,0.02822 0.41026,-1.01229 2.11057,-1.70179c0.30407,-0.1214 1.44944,-0.29615 2.10099,0.15419c0.65874,0.36182 0.87247,1.21554 0.85838,1.22366c-0.02026,0.0116 -1.36925,-0.44736 -2.44353,-0.15994c-0.58658,0.15694 -1.78405,1.25814 -1.79409,1.29529" fill="#f79eb4" stroke="#f89db5" stroke-width="0" stroke-linecap="butt" stroke-linejoin="round"/><path d="M237.72334,169.40653c-0.04124,-0.07269 -0.1518,-1.66945 -0.07202,-2.03919c0.07978,-0.36976 0.17565,-0.5241 0.64752,-0.90329c1.72216,-1.12898 3.55712,-0.5163 3.55712,-0.5163c0,0 -1.6558,0.05394 -2.18022,0.60596c-0.72756,0.76586 -1.24351,2.19474 -1.27898,2.32324" fill="#f79eb4" stroke="#f89db5" stroke-width="0" stroke-linecap="butt" stroke-linejoin="round"/><path d="M239.22212,169.80122c-0.05038,-0.00034 0.56527,-0.72798 1.55424,-0.82674c0.28411,-0.02836 1.51736,0.32959 1.5913,0.46128c0.37727,0.47991 1.26842,2.04062 1.26905,2.03875c0.01379,-0.04046 -1.12271,-0.83153 -2.15548,-1.14135c-0.34792,-0.10218 -1.56615,0.22049 -1.70878,0.21945" fill="#f79eb4" stroke="#f89db5" stroke-width="0" stroke-linecap="butt" stroke-linejoin="round"/><g fill="#000000" stroke="#000000" stroke-width="0.125" stroke-linecap="butt" stroke-linejoin="round"><path d="M236.0251,176.36071c0.00126,0.0435 -0.11547,0.14362 -0.31928,0.1868c-1.30849,0.27727 -1.65825,0.05892 -1.65825,0.05892c0,0 0.64029,0.1749 1.47934,-0.14535c0.16339,-0.06237 0.35879,-0.17693 0.3969,-0.20765c0.03635,-0.02931 0.04853,-0.08154 0.09915,-0.09575"/><path d="M236.22102,176.52249c0,0 -0.00442,0.05625 -0.08574,0.16791c-0.15076,0.20707 -0.65574,0.56682 -0.91373,0.70016c-0.61518,0.31792 -1.05988,0.35716 -1.05988,0.35716c0,0 0.75856,-0.27243 0.98142,-0.3843c0.67008,-0.341 0.89962,-0.85932 0.92484,-0.93697c0.01112,-0.03421 0.02595,-0.11763 0.05104,-0.14046"/></g><g fill="none" stroke="none" stroke-width="1" stroke-linecap="butt" stroke-linejoin="miter" font-family="sans-serif" font-weight="normal" font-size="12" text-anchor="start"/><g fill="none" stroke="none" stroke-width="1" stroke-linecap="butt" stroke-linejoin="miter" font-family="sans-serif" font-weight="normal" font-size="12" text-anchor="start"/><g fill="#86cbb6" stroke="none" stroke-width="0" stroke-linecap="butt" stroke-linejoin="miter"><path d="M231.65911,172.99984c0,0 -0.24483,0.20145 -0.61031,0.64771c-0.36548,0.44626 -0.73691,1.02019 -0.73691,1.02019l-0.87233,-0.86328c0,0 0.72943,-0.8014 1.16702,-1.07836c0.43758,-0.27696 1.43037,-0.46086 1.43037,-0.46086l-0.37781,0.73459z"/><path d="M231.10745,175.15168c0,0 0.06695,-0.63108 0.11817,-0.98081c0.06385,-0.43596 0.23553,-1.43372 0.23553,-1.43372l0.52007,-0.48697c0,0 0.04633,1.4502 0.07991,1.91471c0.02439,0.33724 0.07368,1.05526 0.07368,1.05526z"/></g><path d="M230.50149,169.13286c0.72285,-0.91396 1.46218,-0.79501 2.11468,-0.57236c0.85323,0.28502 1.75792,0.92719 1.75792,0.92719c0,0 -0.72937,0.918 -1.21293,1.80383c-0.82719,1.51538 -0.84801,1.9779 -0.84801,1.9779c0,0 -1.19881,-0.38625 -1.77741,-1.4882c-0.5786,-1.10195 -0.63893,-1.6675 -0.03425,-2.64836z" fill="#20201f" stroke="none" stroke-width="0" stroke-linecap="butt" stroke-linejoin="miter"/><path d="M231.53686,169.72917c0.65964,-0.82287 1.73941,-0.07954 1.73941,-0.07954c0,0 -0.46381,0.45425 -0.80231,0.90896c-0.57904,0.77785 -0.64107,1.03246 -0.64107,1.03246c0,0 -0.99147,-0.99434 -0.29602,-1.86187z" fill="#b2b1b2" stroke="none" stroke-width="0" stroke-linecap="butt" stroke-linejoin="miter"/></g><g fill="none" stroke="#000000" stroke-width="0.5" stroke-linecap="round" stroke-linejoin="miter"><path d="M235.63785,174.69821l2.9755,0.42819"/><path d="M237.32975,173.36953l-0.42819,2.9755"/></g><g fill="none" stroke="#000000" stroke-width="0.5" stroke-linecap="round" stroke-linejoin="miter"><path d="M238.56978,172.49666l2.97551,0.42819"/><path d="M239.8335,174.14347l0.42819,-2.9755"/></g></g></g></g></svg>