<svg version="1.1" xmlns="http://www.w3.org/2000/svg" xmlns:xlink="http://www.w3.org/1999/xlink" width="21.93026" height="33.80846" viewBox="0,0,21.93026,33.80846"><g transform="translate(-233.73301,-163.59987)"><g data-paper-data="{&quot;isPaintingLayer&quot;:true}" fill-rule="nonzero" stroke-linejoin="miter" stroke-miterlimit="10" stroke-dasharray="" stroke-dashoffset="0" style="mix-blend-mode: normal"><path d="M240.1758,178.80336c-0.07553,0.26181 -0.34449,2.60197 -0.34449,2.60197l-0.27028,2.99128l-1.02035,0.00944l0.25326,-3.1291c0,0 0.12231,-2.07274 0.33844,-2.82186c0.21614,-0.74913 0.31682,-0.80733 0.59882,-0.71048c0.28201,0.09684 0.66073,0.30962 0.4446,1.05875z" data-paper-data="{&quot;index&quot;:null}" fill="#fec267" stroke="none" stroke-width="0" stroke-linecap="butt"/><g><g><path d="M236.32744,187.86166c0.03245,-0.54692 0.58415,-1.0626 1.01375,-1.78136c0.32052,-0.53625 1.06934,-0.70448 1.55118,-0.67589c1.02879,0.06103 2.06486,0.41337 2.00382,1.44214c-0.02014,0.33948 -0.00038,1.04447 0.02456,1.71237c0.02462,0.65888 -0.08602,1.12263 -0.43332,1.13347c-0.44622,0.01393 -0.49508,-0.31531 -0.49508,-0.31531c0,0 -0.20527,0.35108 -0.41887,0.3523c-0.2136,0.00121 -0.53755,-0.34738 -0.53755,-0.34738c0,0 -0.24847,0.28167 -0.50732,0.28612c-0.25885,0.00444 -0.42602,-0.26856 -0.42602,-0.26856c0,0 -0.18155,0.30952 -0.50702,0.29444c-0.32547,-0.01509 -0.38025,-0.40228 -0.38025,-0.40228c0,0 -0.02753,0.2937 -0.23894,0.29397c-0.21141,0.00027 -0.04946,-0.00272 -0.1618,-0.0648c-0.09255,-0.05114 -0.50421,-1.37134 -0.48713,-1.65919z" fill="#fdfdfd" stroke="none" stroke-width="0" stroke-linecap="butt"/><path d="M237.14524,189.42955c0,0 0.23553,-0.40578 0.28098,-0.78617c0.04545,-0.3804 -0.10557,-0.84085 0.02493,-0.97375c0.27586,-0.28095 0.93192,-0.24957 0.93192,-0.24957" fill="none" stroke="#a4a4a4" stroke-width="0.125" stroke-linecap="round"/></g><path d="M239.13667,185.75854c-0.36514,-0.04918 -1.60956,-0.17411 -1.60061,-0.47048c0.03166,-0.28336 0.37451,-0.5333 0.37451,-0.5333c0,0 -0.38764,-0.20883 -0.31632,-0.47503c0.09252,-0.34537 1.06357,-0.4393 1.58022,-0.40013c0.51664,0.03918 1.09383,0.23386 1.25002,0.49559c0.39373,0.65978 -0.07249,0.64195 -0.07249,0.64195c0,0 0.4862,0.05137 0.33099,0.68713c-0.07648,0.31326 -1.13596,0.10957 -1.54634,0.05429z" fill="#fdfdfd" stroke="none" stroke-width="0" stroke-linecap="butt"/></g><path d="M240.08582,189.83537l-0.69388,-6.80904l1.56689,-0.05528c0,0 -0.26293,1.20163 -0.17635,2.5411c0.08657,1.33946 0.55979,3.39146 0.55979,3.39146z" data-paper-data="{&quot;index&quot;:null}" fill="#033397" stroke="none" stroke-width="0" stroke-linecap="butt"/><path d="M242.79088,177.911c0,0 1.83541,0.1402 2.5126,2.82628c0.36079,1.43106 0.00811,5.02329 0.00811,5.02329c0,0 -1.10611,-2.28168 -2.03425,-3.64839c-0.92815,-1.36671 -2.64947,-2.27748 -1.99003,-2.27748c0.65944,0 1.50358,-1.92369 1.50358,-1.92369z" fill="#02124a" stroke="none" stroke-width="0" stroke-linecap="butt"/><path d="M240.97775,184.03587l1.23824,-1.28246c0,0 0.00118,0.96045 0.48215,1.56001c0.57741,0.71978 2.74613,2.46427 2.74613,2.46427c0,0 -2.23903,-0.52196 -3.25715,-1.14695c-1.01813,-0.62499 -1.20936,-1.59486 -1.20936,-1.59486z" fill="#02124a" stroke="none" stroke-width="0" stroke-linecap="butt"/><path d="M238.54426,181.70755c-0.43138,-1.54049 -0.30073,-3.2912 1.03985,-3.66659c1.34058,-0.3754 3.19602,-1.70665 3.62739,-0.16616c0.25781,0.9207 -0.19901,2.50673 -0.0286,3.53088c0.30556,1.83643 -0.27374,2.31725 -1.07252,2.54092c-1.34057,0.3754 -3.13474,-0.69855 -3.56612,-2.23905z" fill="#033397" stroke="none" stroke-width="0" stroke-linecap="butt"/><path d="M238.32708,181.42394c-0.45161,-1.44876 -0.0256,-1.81025 0.43005,-2.64625c0.23104,-0.4239 1.42981,-0.55195 2.29193,0.23076c0.79564,0.72236 0.97881,4.31583 -0.14214,4.49443c-1.24907,0.199 -2.26004,-1.053 -2.57985,-2.07894z" fill="#fec267" stroke="none" stroke-width="0" stroke-linecap="butt"/><path d="M242.66937,190.77364l-1.27047,-7.3998l1.7107,-0.18744c0,0 -0.19756,1.33711 -0.00227,2.79683c0.19529,1.45973 0.86719,3.66836 0.86719,3.66836z" data-paper-data="{&quot;index&quot;:null}" fill="#033397" stroke="none" stroke-width="0" stroke-linecap="butt"/><g fill="#033397" stroke-width="0"><path d="M236.2991,172.8624c0,-2.93512 2.37938,-5.31452 5.31451,-5.31452c2.93512,0 5.31451,2.37939 5.31451,5.31452c0,2.93512 -2.37938,5.31451 -5.31451,5.31451c-2.93512,0 -5.31451,-2.37938 -5.31451,-5.31451z" stroke="none" stroke-linecap="butt"/><path d="M236.2111,172.048c0,0 0.60536,-7.15214 9.36625,-8.33564c6.0232,-0.84068 9.8224,3.30609 9.8224,3.30609c0,0 -1.56685,-0.12452 -2.89155,0.24595c-1.09069,0.30502 -2.32267,1.24577 -2.32267,1.24577c0,0 2.69329,1.17201 4.18753,4.24538c1.73435,3.56725 1.21842,6.60284 1.21842,6.60284c0,0 -1.71921,-2.05438 -3.0894,-2.99828c-0.82393,-0.5676 -2.57939,-1.04506 -2.57939,-1.04506c0,0 1.12597,1.91347 1.21686,4.21201c0.10728,2.71272 -0.89666,4.21751 -0.89666,4.21751c0,0 -1.24034,-3.0861 -2.82434,-4.52009c-1.58399,-1.43398 -3.778,-1.45699 -3.778,-1.45699" stroke="#000000" stroke-linecap="round"/></g><path d="M241.95934,167.63375c0,0 1.64372,-1.34837 2.82337,-2.0609c1.17967,-0.71253 1.34119,-0.74448 1.59988,-0.58408c0.2517,0.15607 0.18614,1.38491 0.17648,2.29118c-0.00967,0.90627 -0.22167,1.94582 -0.22167,1.94582" fill="#033397" stroke="#000000" stroke-width="0.125" stroke-linecap="round"/><path d="M236.56414,171.26004c0,0 -0.84875,-1.55844 -1.11193,-2.34129c-0.22997,-0.68404 -0.67638,-2.0572 -0.38103,-2.0995c0.24647,-0.03531 1.2072,0.39345 1.73266,0.50884c0.57254,0.12574 1.57345,0.21722 1.57345,0.21722" fill="#033397" stroke="#000000" stroke-width="0" stroke-linecap="round"/><path d="M236.47569,171.12737c0,0 0.33818,1.35088 0.63976,2.18777c0.30158,0.83689 0.30418,0.86466 0.59765,1.36887c0.09348,0.16063 0.24476,-0.00745 0.24476,-0.00745c0,0 0.40263,0.54543 0.64272,0.29459c0.79869,-0.41863 1.02787,-2.34141 1.82419,-3.41323c0.80544,-1.08413 1.62289,-1.21105 1.99891,-1.25606c0.32336,-0.03871 1.04119,0.11267 1.44964,0.88483c0.28269,0.65684 0.37758,2.13024 -0.06576,2.9653c-0.44334,0.83505 -1.07334,1.77428 -2.30487,2.03529c-1.23152,0.26103 -2.33987,-1.08387 -3.45707,-0.81854c-0.13774,0.03271 -0.87176,0.58725 -0.87176,0.58725c0,0 -0.74049,-1.54326 -0.89447,-2.60829c-0.15399,-1.06504 0.19632,-2.22034 0.19632,-2.22034z" fill="#fdfdfd" stroke="#000000" stroke-width="0" stroke-linecap="butt"/><path d="M237.233,176.1139c0.00991,-0.24284 0.26844,-0.75042 1.12196,-0.8277c0.66167,-0.06977 1.65321,0.70898 2.6248,0.74822c1.45983,0.05896 1.93397,-1.74116 3.58526,-1.26901c1.32994,0.35803 0.68094,3.29708 -3.19639,3.39707c-0.92384,-0.02422 -2.19507,-0.40457 -2.93059,-0.80345c-0.89563,-0.4857 -1.22107,-0.85199 -1.20504,-1.24514z" fill="#fec267" stroke="#000000" stroke-width="0" stroke-linecap="butt"/><path d="M236.1178,172.30689c0,0 -0.44231,-2.0172 -0.30905,-2.33792c0.20348,-0.48976 0.96279,0.06909 0.96279,0.06909" fill="#033397" stroke="#000000" stroke-width="0.125" stroke-linecap="round"/><path d="M235.96399,175.07562c0.04767,-0.13663 0.65204,0.15326 1.11519,0.30764c0.46314,0.15438 1.11519,0.22783 1.11519,0.46146c0,0.38744 -0.7438,0.36492 -1.269,0.23073c-0.83169,-0.2125 -1.11765,-0.55187 -0.96137,-0.99982z" fill="#0d1114" stroke="none" stroke-width="0" stroke-linecap="butt"/><path d="M236.95503,175.33355c0.22988,0.04286 0.40466,0.13972 0.39037,0.21635c-0.01429,0.07663 -0.21223,0.10401 -0.4421,0.06114c-0.22988,-0.04286 -0.40466,-0.13972 -0.39037,-0.21635c0.01429,-0.07663 0.21223,-0.10401 0.4421,-0.06114z" fill="#fdfdfd" stroke="none" stroke-width="0" stroke-linecap="butt"/><path d="M243.02942,167.58432c0,0 2.03726,-1.68473 2.72865,-1.50546c0.48185,0.12494 -0.09409,3.10501 -0.09409,3.10501c0,0 -0.08843,-0.4319 -1.14178,-0.96602c-0.96298,-0.48829 -1.49277,-0.63353 -1.49277,-0.63353z" fill="#fec267" stroke="none" stroke-width="0" stroke-linecap="butt"/><g stroke="none" stroke-width="0" stroke-linecap="butt"><path d="M240.39874,172.27433c0.31013,-0.04844 0.51476,0.55205 0.63371,1.31363c0.11895,0.76158 0.10717,1.39586 -0.20297,1.4443c-0.27914,0.04359 -0.51476,-0.55204 -0.63371,-1.31362c-0.11895,-0.76158 -0.07619,-1.40071 0.20297,-1.4443z" fill="#005c2d"/><path d="M240.51974,173.04903c0.11124,-0.01737 0.24043,0.21827 0.28854,0.52633c0.04811,0.30806 -0.00307,0.57187 -0.11431,0.58924c-0.11124,0.01737 -0.24043,-0.21827 -0.28854,-0.52632c-0.04811,-0.30806 0.00307,-0.57188 0.11431,-0.58924z" fill="#000000"/><path d="M240.48586,172.83212c0.11124,-0.01737 0.22418,0.11422 0.25225,0.29392c0.02806,0.17969 -0.03937,0.33945 -0.15061,0.35684c-0.11124,0.01737 -0.22418,-0.11422 -0.25224,-0.29392c-0.02806,-0.17969 0.03936,-0.33945 0.15061,-0.35684z" fill="#ffffff"/></g><g stroke="none" stroke-width="0" stroke-linecap="butt"><path d="M236.64104,173.2436c0.20417,-0.06381 0.40244,0.32038 0.55913,0.82175c0.15669,0.50138 0.21248,0.93008 0.00831,0.99389c-0.18376,0.05743 -0.40244,-0.32038 -0.55913,-0.82175c-0.15669,-0.50138 -0.19208,-0.93647 -0.00831,-0.99389z" fill="#005c2d"/><path d="M236.80044,173.75361c0.07324,-0.02289 0.18398,0.12297 0.24737,0.32577c0.06338,0.2028 0.0554,0.38577 -0.01784,0.40865c-0.07324,0.02289 -0.18398,-0.12297 -0.24737,-0.32577c-0.06338,-0.2028 -0.0554,-0.38577 0.01784,-0.40865z" fill="#000000"/><path d="M236.75581,173.61081c0.07324,-0.02289 0.16257,0.05446 0.19955,0.17277c0.03698,0.1183 0.00758,0.23276 -0.06566,0.25565c-0.07324,0.02289 -0.16257,-0.05446 -0.19955,-0.17276c-0.03698,-0.1183 -0.00758,-0.23276 0.06566,-0.25565z" fill="#ffffff"/></g><path d="M243.02068,176.56678c0.54704,-0.42812 0.44223,-0.9729 0.44223,-0.9729c0,0 1.04757,0.44879 0.4857,0.96987c-0.73654,0.68309 -1.69451,0.39744 -1.69451,0.39744c0,0 0.21954,0.03372 0.76658,-0.3944z" fill="#fdfdfd" stroke="#000000" stroke-width="0" stroke-linecap="butt"/><path d="M237.60098,172.30741c0.18645,0 0.43885,1.32004 0.43885,1.90733c0,0.58728 -0.30382,0.48949 -0.30382,0.48949c0,0 -0.25775,-0.43553 -0.38164,-0.71916c-0.12387,-0.28362 -0.25977,-0.7493 -0.25977,-0.7493c0,0 0.31993,-0.92835 0.50637,-0.92835z" fill="#033397" stroke="none" stroke-width="0" stroke-linecap="butt"/><path d="M242.47921,177.99002c0.27162,-0.11972 0.37835,-0.06789 0.67309,0.67955c0.29475,0.74744 0.63492,2.85099 0.63492,2.85099l0.58212,3.17048l-1.02058,0.0664l-0.58462,-3.02875c0,0 -0.51486,-2.36518 -0.61785,-2.62641c-0.29475,-0.74744 0.06131,-0.99254 0.33294,-1.11226z" data-paper-data="{&quot;index&quot;:null}" fill="#fec267" stroke="none" stroke-width="0" stroke-linecap="butt"/><g stroke="none" stroke-width="0" stroke-linecap="butt"><path d="M233.88416,195.04208c0,0 -0.41835,-2.58991 3.42011,-3.60905c4.44094,-1.67409 5.09339,-1.21639 5.39184,-0.7581c0.7564,1.16147 0.88472,2.49716 0.88472,2.49716c0,0 -0.67246,0.48694 -1.17069,0.80186c-0.21065,0.13314 -1.04657,0.49573 -1.04657,0.49573l-0.09879,-0.35948l-1.21572,0.34586l0.0505,0.51166c0,0 -1.45787,0.4333 -2.09248,0.55393c-2.91628,0.55442 -4.12294,-0.47959 -4.12294,-0.47959z" fill="#e90023"/><path d="M233.93292,195.03951l0.30242,-1.1048l1.6047,0.35248l0.59261,0.88356l-0.94777,0.87915c0,0 -0.57276,-0.00403 -0.90864,-0.14575c-0.33587,-0.14173 -0.62871,-0.50301 -0.62871,-0.50301l-0.01464,-0.36162z" fill="#948a92"/><path d="M240.03203,194.50982c0,0 -0.20095,-1.0777 -0.1523,-2.09604c0.05161,-1.08039 0.46693,-1.97488 0.46693,-1.97488l1.30758,-0.01971l0.10571,1.13588c0,0 -0.3475,0.82417 -0.43746,1.39215c-0.08997,0.56797 -0.04914,1.11094 -0.04914,1.11094z" fill="#deca55"/><path d="M234.00426,195.45595l-0.27125,-0.2714l0.22413,-1.22076l0.80872,-1.28339l1.93293,0.76017l0.64338,1.61955l2.67347,-1.25084l0.11691,1.18238l-3.06184,1.20198l-1.68444,-0.14917l0.31401,-1.53525l-1.37283,-0.39467z" fill="#edeeee"/><g><path d="M234.13974,194.99244c0.03295,-0.41986 0.36938,-0.71395 0.75146,-0.65686c0.38208,0.05709 0.66509,0.44375 0.63215,0.86361c-0.03295,0.41986 -0.36938,0.71395 -0.75146,0.65686c-0.38208,-0.05709 -0.66511,-0.44375 -0.63216,-0.86361z" fill="#ece09c"/><path d="M234.38351,195.01538c0.02197,-0.2799 0.24626,-0.47597 0.50098,-0.4379c0.2547,0.03806 0.4434,0.29581 0.42144,0.57572c-0.02197,0.2799 -0.24624,0.47597 -0.50098,0.4379c-0.2547,-0.03806 -0.4434,-0.29582 -0.42144,-0.57572z" fill="#000000"/></g><path d="M239.88988,193.04283c0,0 -0.0321,-0.29877 -0.02325,-0.46907c0.01058,-0.20364 0.08246,-0.67071 0.08246,-0.67071l0.47305,2.4724l-0.318,0.13028c0,0 -0.11721,-0.47517 -0.15255,-0.71643c-0.03607,-0.24627 -0.06171,-0.74647 -0.06171,-0.74647z" fill="#6a2625"/><path d="M243.34203,192.17826l0.12217,0.56114c0,0 -0.87008,0.61477 -0.96199,0.1926c-0.09192,-0.42217 0.83982,-0.75374 0.83982,-0.75374z" fill="#eac763"/></g><path d="M238.99266,190.74413c-0.01376,-0.44974 0.32263,-0.90695 0.32263,-0.90695c0,0 -0.46493,-0.25255 -0.43185,-0.68306c0.04293,-0.55854 1.10135,-0.89208 1.67984,-0.92995c0.57848,-0.03788 1.25075,0.15614 1.46868,0.53598c0.54934,0.95748 0.03031,1.01908 0.03031,1.01908c0,0 0.54689,-0.0129 0.48461,1.01235c-0.0307,0.50519 -1.06915,0.57604 -1.84581,0.56567c-0.77665,-0.01036 -1.6673,-0.14735 -1.70841,-0.61312z" fill="#fdfdfd" stroke="none" stroke-width="0" stroke-linecap="butt"/><g fill="#fdfdfd" stroke="none" stroke-width="0" stroke-linecap="butt"><g><path d="M241.78779,188.75476c-0.08553,-0.54117 0.34282,-1.16312 0.60838,-1.95724c0.19814,-0.59248 0.89349,-0.9173 1.37027,-0.99266c1.01795,-0.16089 2.10547,-0.03881 2.26635,0.97914c0.0531,0.33591 0.22349,1.02027 0.39101,1.66731c0.16527,0.6383 0.1566,1.11498 -0.18031,1.2c-0.43286,0.10925 -0.55116,-0.20187 -0.55116,-0.20187c0,0 -0.12526,0.38692 -0.33362,0.43389c-0.20837,0.04697 -0.59952,-0.22408 -0.59952,-0.22408c0,0 -0.18232,0.32838 -0.43421,0.38821c-0.25189,0.05981 -0.47368,-0.17101 -0.47368,-0.17101c0,0 -0.11099,0.34124 -0.43213,0.39626c-0.32114,0.05502 -0.45764,-0.31144 -0.45764,-0.31144c0,0 0.03606,0.29277 -0.17037,0.33835c-0.20644,0.04558 -0.04889,0.00795 -0.17193,-0.02862c-0.10136,-0.03011 -0.78643,-1.2314 -0.83143,-1.51622z"/></g><path d="M244.08096,186.09839c-0.36719,0.03022 -1.60948,0.17492 -1.66425,-0.11648c-0.0298,-0.28356 0.2515,-0.60118 0.2515,-0.60118c0,0 -0.42339,-0.12089 -0.41078,-0.39619c0.01635,-0.35718 0.9447,-0.65706 1.45773,-0.72953c0.51303,-0.07247 1.11854,-0.00602 1.3272,0.21616c0.526,0.56005 0.06679,0.64257 0.06679,0.64257c0,0 0.48592,-0.05402 0.47057,0.60021c-0.00756,0.32237 -1.08608,0.3505 -1.49876,0.38447z"/></g><g stroke="none" stroke-width="0" stroke-linecap="butt"><path d="M236.52624,196.28125c0,0 -0.43362,-2.58664 3.39874,-3.63524c4.43095,-1.70816 5.0861,-1.2555 5.38725,-0.79952c0.76323,1.15564 0.89943,2.49032 0.89943,2.49032c0,0 -0.66958,0.49209 -1.16593,0.81083c-0.20986,0.13476 -1.04362,0.50376 -1.04362,0.50376l-0.10092,-0.35871l-1.21366,0.3552l0.05353,0.51126c0,0 -1.45529,0.44449 -2.08917,0.57001c-2.91294,0.57682 -4.12568,-0.44789 -4.12568,-0.44789z" fill="#e90023"/><path d="M236.57498,196.27832l0.29589,-1.1071l1.60675,0.34015l0.59781,0.879l-0.94256,0.88641c0,0 -0.57278,0.00038 -0.90948,-0.13877c-0.33669,-0.13915 -0.63167,-0.49817 -0.63167,-0.49817l-0.01676,-0.36149z" fill="#948a92"/><path d="M242.67083,195.70177c0,0 -0.2073,-1.07614 -0.16467,-2.09481c0.04524,-1.08078 0.45526,-1.97842 0.45526,-1.97842l1.30743,-0.02977l0.11242,1.13505c0,0 -0.34262,0.82682 -0.42923,1.39548c-0.08661,0.56865 -0.04259,1.11128 -0.04259,1.11128z" fill="#deca55"/><path d="M236.64876,196.69418l-0.27285,-0.2693l0.21692,-1.22245l0.80113,-1.28955l1.93737,0.7453l0.65292,1.61456l2.66604,-1.27135l0.12388,1.18146l-3.05468,1.22547l-1.68529,-0.13623l0.30495,-1.53763l-1.37512,-0.38411z" fill="#edeeee"/><g><path d="M236.78151,196.22964c0.03047,-0.42012 0.36516,-0.71678 0.74757,-0.66262c0.38241,0.05414 0.6677,0.43863 0.63724,0.85873c-0.03047,0.42012 -0.36516,0.71678 -0.74757,0.66262c-0.38241,-0.05414 -0.66772,-0.43862 -0.63724,-0.85873z" fill="#ece09c"/><path d="M237.02542,196.25071c0.02031,-0.28006 0.24345,-0.47784 0.49838,-0.44174c0.25492,0.03611 0.44513,0.2924 0.42482,0.57248c-0.02031,0.28006 -0.24343,0.47784 -0.49838,0.44174c-0.25492,-0.03611 -0.44513,-0.29241 -0.42482,-0.57248z" fill="#000000"/></g><path d="M242.4962,194.23589c0,0 -0.00651,-0.42345 0.0022,-0.61263c0.00879,-0.19088 0.07409,-0.52758 0.07409,-0.52758l0.48763,2.46871l-0.31722,0.13273c0,0 -0.15687,-0.56017 -0.19594,-0.81626c-0.03472,-0.22764 -0.05076,-0.64497 -0.05076,-0.64497z" fill="#6a2625"/><path d="M245.96699,193.34481l0.12549,0.56019c0,0 -0.86642,0.62144 -0.96083,0.19999c-0.09441,-0.42145 0.83536,-0.76017 0.83536,-0.76017z" fill="#eac763"/></g><path d="M241.50075,191.20027c-0.01679,-0.44965 0.31651,-0.9091 0.31651,-0.9091c0,0 -0.46662,-0.24941 -0.43644,-0.68012c0.03916,-0.55883 1.09533,-0.89949 1.67355,-0.94125c0.57822,-0.04175 1.25178,0.14771 1.47225,0.52607c0.55577,0.95376 0.03718,1.01885 0.03718,1.01885c0,0 0.54679,-0.0166 0.49141,1.00906c-0.02729,0.50537 -1.06526,0.58323 -1.84196,0.5781c-0.77671,-0.00515 -1.66825,-0.13613 -1.71249,-0.6016z" fill="#fdfdfd" stroke="none" stroke-width="0" stroke-linecap="butt"/></g></g></svg>