<svg version="1.1" xmlns="http://www.w3.org/2000/svg" xmlns:xlink="http://www.w3.org/1999/xlink" width="19.80465" height="28.86367" viewBox="0,0,19.80465,28.86367"><g transform="translate(-232.05413,-190.65323)"><g data-paper-data="{&quot;isPaintingLayer&quot;:true}" fill-rule="nonzero" stroke-linejoin="miter" stroke-miterlimit="10" stroke-dasharray="" stroke-dashoffset="0" style="mix-blend-mode: normal"><g stroke="none" stroke-width="0" stroke-linecap="butt"><path d="M247.99463,217.72876c0.58185,1.24833 -3.0061,0.78286 -4.07276,0.53989c-1.26661,-0.12625 -3.36976,-1.3093 -3.36976,-1.3093c0,0 -1.49965,-0.72845 -0.47895,-1.08264c0.47514,-0.16487 0.92651,-0.35646 1.38514,-0.48883c0.5266,-0.15199 1.0628,-0.22591 1.65555,-0.09167c0,0 4.08426,0.72372 4.88077,2.43256z" fill="#54c81c"/><path d="M236.72899,215.16074l0.87646,-5.12496l1.61822,0.18305c0,0 -2.12888,4.24085 -0.25002,5.04717c0.5873,0.2738 2.90847,0.93408 2.90847,0.93408c0,0 2.54986,0.50929 3.00588,0.95193c0.58008,0.56306 -0.12729,0.88964 -0.72928,0.90535c-0.60198,0.01571 -1.91253,-0.55165 -2.8041,-0.79596c-1.0846,-0.2972 -2.14925,-0.31828 -3.55331,-0.85966c-1.40406,-0.54137 -1.07233,-1.241 -1.07233,-1.241z" fill="#ffffff"/></g><g stroke="none" stroke-width="0" stroke-linecap="butt"><path d="M251.73841,215.90519c0.82101,1.10582 -2.78725,1.37141 -3.88098,1.3479c-1.26613,0.13105 -3.56422,-0.60487 -3.56422,-0.60487c0,0 -1.61551,-0.41199 -0.68689,-0.9642c0.43227,-0.25705 0.8359,-0.5355 1.25854,-0.7574c0.48528,-0.25479 0.99566,-0.43503 1.6033,-0.42274c0,0 4.14636,-0.11243 5.27025,1.40131z" fill="#54c81c"/><path d="M240.18648,215.6552l-0.1721,-5.19651l1.62198,-0.14613c0,0 -1.23253,4.58234 0.77009,4.99434c0.63036,0.1501 3.0369,0.33009 3.0369,0.33009c0,0 2.60019,-0.0139 3.1359,0.32799c0.68147,0.4349 0.05422,0.89706 -0.53231,1.03352c-0.58653,0.13645 -1.98439,-0.15577 -2.90688,-0.21578c-1.12221,-0.07301 -2.16934,0.12044 -3.65359,-0.12751c-1.48425,-0.24795 -1.29999,-1 -1.29999,-1z" fill="#ffffff"/></g><g data-paper-data="{&quot;index&quot;:null}" stroke="none" stroke-width="0.17188" stroke-linecap="butt"><path d="M238.85277,199.67544c0.01231,1.65217 0.27298,2.27098 0.29115,3.3499c0.0138,0.8194 -0.42937,1.17039 -0.57217,1.05219c-0.331,-0.27381 -1.29763,-3.11124 -1.35077,-4.49891c-0.03341,-0.87703 -0.63379,-2.99507 -0.33677,-3.79772c0.19539,-0.52732 1.035,-0.61541 1.60817,-0.61025c0.44365,0.00312 0.55965,-0.14633 0.59518,0.2823c0.10722,1.29642 -0.24708,2.57032 -0.23478,4.22249z" fill="#319a2b"/><path d="M237.77193,194.04341c-0.31189,0.40806 -0.67535,0.29939 -0.83338,0.17856c-0.75714,-0.61932 -1.25883,-1.74761 -1.22564,-2.62526c-0.04109,0.17406 0.25945,-0.82405 1.20634,-0.75729c0.41026,0.01118 1.15349,-0.16393 1.81309,-0.18619l0.6319,0.14334c0.29039,0.06576 0.43752,0.47143 0.28713,0.75345c-0.02221,0.04172 0.22175,-0.06644 0.36106,0.06386c0.25077,0.23455 0.45879,0.77255 0.26436,1.01731c-0.17028,0.21479 -0.16828,0.6299 -0.51558,0.82734c-0.46832,0.26623 -0.28327,-0.40999 -0.71177,-0.32709c-0.2547,0.04913 -1.27036,0.9028 -1.2775,0.91197z" fill="#f0e9bb"/><path d="M239.14837,195.99608c0.23584,0.16435 -0.19201,-0.56325 -0.48424,-0.4578c-0.28846,0.10417 -1.8007,0.96442 -2.00352,0.7235c-0.35553,-0.47616 0.19028,-1.60607 -0.11481,-2.10657c0.09711,0.1533 0.70465,0.02913 0.70465,0.02913c0.03248,-0.00936 0.49358,-0.20504 0.96421,-0.61926c0.38698,-0.34058 0.77086,-0.71884 0.98655,-0.56806c0.14931,0.10416 0.54704,0.42733 0.55991,0.80355c0.01356,0.39971 0.16621,0.93107 0.06062,1.32971c-0.04569,0.17261 -0.44822,1.15188 -0.53039,1.27274c-0.12525,0.18377 -0.19019,-0.43987 -0.14297,-0.40694z" fill="#ead42f"/></g><path d="M238.87073,206.73348c-0.20905,-0.23452 -0.09186,-2.726 -0.03398,-2.83298c0.22555,-0.41602 0.76487,-0.30912 0.89527,-0.30912c0.10324,0 0.59206,0.04455 0.66843,0.12566c0.24758,0.2631 0.31218,0.94517 0.3032,1.6383c-0.00304,0.79272 0.57788,1.34033 0.31992,1.70884c-0.31022,0.33125 -2.15284,-0.33069 -2.15284,-0.33069z" data-paper-data="{&quot;index&quot;:null}" fill="#319a2b" stroke="none" stroke-width="0.17188" stroke-linecap="butt"/><path d="M242.56828,199.4052c0.00829,0.91731 -0.07479,1.83203 -0.14928,2.74595c-0.00987,0.3766 -0.23809,0.70548 -0.51551,0.94307c-0.30181,0.25026 -0.70933,0.30311 -1.07427,0.41276c-0.56982,0.14908 -1.15765,0.21892 -1.74587,0.19255c-0.72475,0.00583 -1.63987,-0.08704 -2.27393,-0.50729c-0.433,-0.19789 -0.36573,-0.18733 -0.81297,-0.36633c-0.89368,-0.50019 -1.51796,-1.39139 -1.82531,-2.35572c-0.1886,-0.57645 -0.28265,-1.19519 -0.21409,-1.80059c0.04349,-0.25488 0.63824,-4.52602 4.65704,-4.20958c4.38686,0.34542 3.94681,4.82575 3.95419,4.94518z" data-paper-data="{&quot;index&quot;:null}" fill="#f0e9bb" stroke="none" stroke-width="0.17188" stroke-linecap="butt"/><path d="M235.21359,198.72748c0.60616,0.20764 0.80532,0.55337 0.88745,1.10205c0.13052,0.29848 0.0266,1.4395 -0.18074,1.43449c-0.21061,-0.03294 -0.45723,-0.07261 -0.71039,-0.12755c-0.39524,-0.08573 -0.50141,-0.18913 -0.46418,-0.27076c0.02567,-0.05636 -0.0445,-0.22565 -0.07917,-0.3932c-0.03529,-0.17062 -0.03528,-0.34144 -0.03743,-0.62631c-0.00193,-0.26421 0.0396,-0.55522 0.10168,-0.75089c0.08878,-0.27904 0.23453,-0.40844 0.48279,-0.36783z" data-paper-data="{&quot;index&quot;:null}" fill="#ffffff" stroke="none" stroke-width="0.17188" stroke-linecap="butt"/><path d="M235.86159,198.97035c-0.41598,-0.42365 -0.5583,-0.4713 -0.86131,-0.20713c-0.22698,0.17767 -0.383,0.79509 -0.39571,1.21444c-0.01699,0.56033 0.12964,0.98414 0.12964,0.98414c0,0 -0.12404,-0.12706 -0.22168,-0.41893c-0.09763,-0.29187 0.0206,-0.63787 -0.1514,-0.75489c-0.18013,-0.12255 -1.02375,-0.25868 -1.02375,-0.25868c0,0 1.18552,-0.00044 1.18793,-0.07506c0.01044,-0.32358 0.20923,-0.65476 0.32553,-0.75955c0.20913,-0.18845 0.33615,-0.26181 0.61027,-0.18982c0.19654,0.05162 0.31465,0.16919 0.52276,0.38144c0.67457,0.688 0.05779,2.33696 0.05779,2.33696c0,0 0.39068,-1.80504 -0.18008,-2.25292z" data-paper-data="{&quot;index&quot;:null}" fill="#000000" stroke="none" stroke-width="0" stroke-linecap="butt"/><g data-paper-data="{&quot;index&quot;:null}" stroke="none" stroke-linecap="butt"><path d="M235.2156,201.40198c-0.25026,0 -0.45314,-0.42916 -0.45314,-0.95856c0,-0.5294 0.20288,-0.95856 0.45314,-0.95856c0.25026,0 0.45314,0.42916 0.45314,0.95856c0,0.5294 -0.20288,0.95856 -0.45314,0.95856z" fill="#008ae6" stroke-width="0"/><path d="M235.22031,199.61787c0.07882,0.00751 0.14831,0.09815 0.19679,0.23878c0.04832,0.14064 0.07575,0.33112 0.07057,0.5381c-0.00505,0.20684 -0.04175,0.39133 -0.097,0.52226c-0.0551,0.1309 -0.1288,0.20825 -0.20772,0.20089c-0.07892,-0.00734 -0.14829,-0.09815 -0.19677,-0.23877c-0.04835,-0.14064 -0.07579,-0.33112 -0.07075,-0.53808c0.0052,-0.20685 0.04188,-0.39135 0.09713,-0.52227c0.05512,-0.13091 0.1288,-0.20826 0.20772,-0.2009z" fill="#000000" stroke-width="0.0278"/><path d="M235.36469,199.85579c0.04207,0.09778 0.067,0.23122 0.06483,0.37734c-0.00203,0.14592 -0.0307,0.27689 -0.0755,0.37069c-0.04461,0.09378 -0.10533,0.15045 -0.17136,0.1474c-0.066,-0.00305 -0.12505,-0.06522 -0.16694,-0.16303c-0.04207,-0.09778 -0.067,-0.23123 -0.06482,-0.37735c0.00203,-0.14592 0.03069,-0.27689 0.07549,-0.37069c0.04461,-0.09377 0.10533,-0.15044 0.17136,-0.14739c0.066,0.00306 0.12505,0.06521 0.16695,0.16302z" fill="#ffffff" stroke-width="0.01811"/></g><path d="M239.31525,199.59234c0.35637,-0.51369 0.6619,-0.65129 1.01899,-0.65129c0.50009,0 0.79537,0.76866 0.81319,1.38581c0.02,0.6926 -0.32037,1.01971 -0.32037,1.01971c0,0 -0.44393,0.13011 -0.93532,0.15374c-0.31485,0.01504 -0.66508,-0.01872 -0.92479,-0.01872c-0.25019,-0.027 0.26074,-1.76302 0.3483,-1.88925z" data-paper-data="{&quot;index&quot;:null}" fill="#ffffff" stroke="none" stroke-width="0.17188" stroke-linecap="butt"/><g data-paper-data="{&quot;index&quot;:null}" stroke="none" stroke-linecap="butt"><path d="M239.4656,201.73531c-0.25025,0 -0.45313,-0.42916 -0.45313,-0.95856c0,-0.5294 0.20288,-0.95856 0.45313,-0.95856c0.25025,0 0.45313,0.42916 0.45313,0.95856c0,0.5294 -0.20288,0.95856 -0.45313,0.95856z" fill="#008ae6" stroke-width="0"/><path d="M239.47031,199.95121c0.07883,0.00751 0.14831,0.09815 0.19679,0.23877c0.04832,0.14064 0.07575,0.33112 0.07057,0.53811c-0.00505,0.20684 -0.04175,0.39133 -0.097,0.52225c-0.05511,0.13089 -0.1288,0.20825 -0.20772,0.20089c-0.07892,-0.00735 -0.14829,-0.09815 -0.19677,-0.23877c-0.04835,-0.14064 -0.07579,-0.33112 -0.07075,-0.53808c0.0052,-0.20685 0.04188,-0.39135 0.09713,-0.52227c0.05512,-0.13091 0.1288,-0.20827 0.20772,-0.20091z" fill="#000000" stroke-width="0.0278"/><path d="M239.61469,200.18913c0.04207,0.09779 0.067,0.23123 0.06483,0.37735c-0.00203,0.14592 -0.03069,0.27689 -0.07549,0.37069c-0.04461,0.09379 -0.10533,0.15045 -0.17136,0.1474c-0.066,-0.00305 -0.12505,-0.06523 -0.16695,-0.16303c-0.04207,-0.09779 -0.067,-0.23123 -0.06483,-0.37735c0.00203,-0.14592 0.03069,-0.27689 0.07549,-0.37069c0.04461,-0.09377 0.10533,-0.15044 0.17136,-0.14739c0.066,0.00307 0.12505,0.06521 0.16695,0.16301z" fill="#ffffff" stroke-width="0.01811"/></g><path d="M238.85464,201.43964c0,0 -0.0558,-1.42945 0.61877,-2.11745c0.20811,-0.21225 0.375,-0.3786 0.57155,-0.43023c0.27411,-0.07199 0.4987,0.00137 0.70783,0.18982c0.1163,0.10479 0.31509,0.43598 0.32552,0.75955c0.00241,0.07462 1.18793,0.07506 1.18793,0.07506c0,0 -0.84362,0.13614 -1.02374,0.25869c-0.172,0.11702 -0.05377,0.46302 -0.1514,0.75489c-0.09763,0.29187 -0.22167,0.41893 -0.22167,0.41893c0,0 0.14663,-0.42381 0.12964,-0.98414c-0.01271,-0.41935 -0.16873,-1.03677 -0.39571,-1.21444c-0.30301,-0.26416 -0.61607,-0.19212 -1.03205,0.23153c-0.57075,0.44788 -0.71667,2.05779 -0.71667,2.05779z" fill="#000000" stroke="none" stroke-width="0" stroke-linecap="butt"/><path d="M236.0898,201.24357c0,0 -0.13578,0.53333 -0.55,0.53333c-0.41422,0 -0.81666,-0.8 -0.81666,-0.8l0.45,0.13333z" fill="#f0e9bb" stroke="none" stroke-width="0" stroke-linecap="butt"/><path d="M240.39123,201.50581c0,0 -0.03262,0.54938 -0.43938,0.6276c-0.40676,0.07823 -0.95305,-0.63138 -0.95305,-0.63138l0.46708,0.04595z" fill="#f0e9bb" stroke="none" stroke-width="0" stroke-linecap="butt"/><path d="M234.31852,194.40312c0.53595,0.41563 -1.4243,3.24951 -1.11419,2.77797c-0.57843,-0.35704 -1.01718,-1.05194 -1.14857,-1.59037c-0.01204,-0.04929 0.04654,-0.18544 0.04654,-0.18544c-0.08831,0.0226 0.02845,-0.08526 0.03744,-0.17793c0.00703,-0.07291 -0.07063,-0.22723 -0.07063,-0.22723c-0.0405,0.02885 0.17329,-0.08813 0.25173,-0.1646c0.06484,-0.06313 0.035,-0.10374 0.08863,-0.14276c0.37642,-0.27523 1.01796,-0.41483 1.90908,-0.28966z" data-paper-data="{&quot;index&quot;:null}" fill="#ed3e67" stroke="none" stroke-width="0.17188" stroke-linecap="butt"/><path d="M242.29664,198.52328c-0.05257,-0.08824 -0.16005,-0.14169 -0.31623,-0.23197c-0.11736,-0.06797 -0.34518,-0.20045 -0.41988,-0.26971c-0.18751,-0.17389 -0.97825,-0.14692 -0.93143,-0.07183c-0.06096,0.1131 0.00591,-0.30576 -1.03655,0.67376l-1.10984,1.04336c-0.10216,0.09595 -0.50729,0.48459 -0.82927,0.59653c-0.34608,0.12033 -0.85872,0.1638 -0.90496,0.09376c0,0 -0.32296,-0.56808 -0.51551,-0.78422c-0.07321,-0.08218 -0.06539,0.09662 0.00899,0.32602c0.01224,0.03794 0.23907,0.60925 0.2287,0.63454c-0.05621,0.13603 -1.19964,-1.64966 -1.26148,-1.74795l-0.38104,-0.60709c-0.12863,-0.2047 -0.33216,-0.09998 -0.4179,-0.122c-0.12882,-0.03319 -0.20696,0.07122 -0.21556,0.19946c-0.01109,0.16221 -0.02056,0.83272 -0.03251,0.93073c-0.06284,0.51905 0.21891,1.2209 0.3607,1.95798c0.08299,0.43111 1.82778,1.97031 1.60569,1.65784c-0.10018,-0.14108 -0.10611,1.01055 -0.4011,1.15904c-0.21052,0.1062 -1.2438,-1.72098 -1.35149,-2.11102l-0.61548,-2.2271c-0.18041,-0.65213 0.14294,-2.4963 0.23749,-2.83141l0.18465,-0.6547c0.34004,-0.77402 0.82472,-1.4637 1.47637,-2.05597c0.04149,-0.03773 0.64393,-0.72513 1.71524,-1.08641c0.67653,-0.2282 1.80792,-0.26565 1.89673,-0.26683c0.52083,-0.00691 1.53711,-0.03666 2.46558,0.16696c0.59061,0.12951 1.11669,0.42312 1.55047,0.65253c0.07797,0.04111 -0.7614,1.05422 -0.68651,1.08969c0.03637,0.01709 -0.19214,0.96974 -0.18334,1.06054l0.05858,0.6063c0.05927,0.61292 0.61706,1.24055 0.71763,1.32186c0.1376,0.11143 0.61221,0.44989 0.77117,0.45406l0.53576,0.01452c0.0734,0.00178 0.71388,-0.46224 0.76466,-0.4171c0.17891,0.15916 0.08998,1.08622 0.05363,1.2685l-0.19116,0.95938c-0.06164,0.30901 -0.07784,0.48328 -0.27206,0.9086c-0.26624,0.58367 -0.53506,1.16644 -0.95396,1.69924c-0.33845,0.43065 -1.97438,1.64649 -1.94356,1.49178l0.26041,-1.31603l0.22328,-1.85968l-0.14493,-2.30593z" data-paper-data="{&quot;index&quot;:null}" fill="#54c81c" stroke="none" stroke-width="0.17188" stroke-linecap="butt"/><path d="M246.2054,197.0036c-0.99831,0.34114 -2.29455,-1.74718 -2.29455,-1.74718c0,-0.3768 0.9216,-1.1467 1.97119,-1.04049c0.80219,0.08132 1.3265,0.34991 1.58939,0.68425c0.03753,0.04773 0.00216,0.07834 0.04376,0.15048c0.05046,0.08713 0.20884,0.24114 0.18038,0.20579c0,0 -0.10325,0.12429 -0.11401,0.19246c-0.01374,0.08674 0.06284,0.21121 -0.0086,0.17111c0,0 0.01937,0.13753 -0.00256,0.18001c-0.23878,0.46413 -0.78046,1.00374 -1.36503,1.20361z" data-paper-data="{&quot;index&quot;:null}" fill="#ed3e67" stroke="none" stroke-width="0.17188" stroke-linecap="butt"/><path d="M243.14286,195.92894c0.09563,0.06659 -0.00187,-0.50809 0.12734,-1.06894c0.1379,-0.5989 0.5149,-1.18969 1.03041,-1.21892c0.29768,-0.01679 0.56441,0.07813 0.81554,0.14996c0.51808,0.1481 0.88212,0.35884 0.70025,0.42897c-0.30863,0.11913 -0.70468,0.34113 -0.96936,0.52824c-0.37748,0.26674 -0.62014,0.47103 -0.60166,0.49159l1.18848,1.32126l0.8018,0.46987c0.13327,0.06896 -0.22277,0.29954 -0.62485,0.46541c-0.34706,0.14335 -0.5885,0.35834 -0.71043,0.39528c-0.54287,0.16539 -0.47173,-0.08762 -1.10718,-0.43123c-0.36948,-0.19986 -0.79399,-1.63185 -0.65034,-1.53148z" data-paper-data="{&quot;index&quot;:null}" fill="#54c81c" stroke="none" stroke-width="0.17188" stroke-linecap="butt"/><path d="M242.39875,195.89377c0.02826,-1.28236 0.54869,-2.74033 1.42618,-2.32263c0.368,0.17507 -0.1976,0.41811 -0.47965,1.17615c-0.17948,0.48241 -0.2111,1.22276 0.08034,2.1281c0.03072,0.09494 0.19037,0.28017 0.4089,0.51995c0.33482,0.36762 1.71061,0.16577 1.49702,0.29341l-0.83431,0.4982l-0.58959,-0.10817c-0.37503,0.02659 -1.53465,-1.01164 -1.50887,-2.18501z" data-paper-data="{&quot;index&quot;:null}" fill="#ead32e" stroke="none" stroke-width="0.17188" stroke-linecap="butt"/><path d="M234.68074,195.26297c-0.07686,0.26577 -0.3932,0.66984 -0.3932,0.66984c-0.04198,-0.12971 0.08132,-0.34252 0.07796,-0.4591c-0.00781,-0.26952 0.18286,-0.92767 0.66487,-1.38054l0.27415,-0.25745c0.13495,-0.12684 0.62912,-0.25657 0.72534,-0.19491c0.1155,0.15244 -0.48677,0.47954 -0.88638,1.02341c-0.19156,0.26072 -0.46275,0.59878 -0.46275,0.59878z" data-paper-data="{&quot;index&quot;:null}" fill="#ead32e" stroke="none" stroke-width="0.17188" stroke-linecap="butt"/><path d="M234.53132,195.18432c-0.0579,0.13702 -0.26664,0.81248 -0.35862,1.1457l-0.36258,1.31326c-0.02667,0.09662 -0.7597,-0.44506 -0.70755,-0.73967c-0.12824,-0.33393 -0.02075,-0.62053 0.02203,-0.91986c0.14247,-0.3274 0.4106,-0.77244 0.5898,-0.95265c0.14434,-0.14513 -0.02528,-0.6065 0.0988,-0.79767c0.18663,-0.28788 1.22741,-0.25577 1.22741,-0.25577z" data-paper-data="{&quot;index&quot;:null}" fill="#54c81c" stroke="none" stroke-width="0.17188" stroke-linecap="butt"/><path d="M239.65796,203.02155h0.83908" data-paper-data="{&quot;index&quot;:null}" fill="none" stroke="#dfcfa3" stroke-width="0.36953" stroke-linecap="round"/><g data-paper-data="{&quot;index&quot;:null}" stroke="none" stroke-width="0.17188" stroke-linecap="butt"><path d="M240.18465,203.81972c0.01817,-1.07889 0.27885,-1.69772 0.29114,-3.3499c0.01228,-1.65217 -0.342,-2.92607 -0.23478,-4.22249c0.03552,-0.42864 0.15153,-0.27918 0.59518,-0.2823c0.57316,-0.00517 1.41277,0.08291 1.60817,0.61025c0.29699,0.80266 -0.30337,2.92071 -0.33677,3.79772c-0.05314,1.38767 -1.01977,4.22512 -1.35077,4.49891c-0.14279,0.1182 -0.58598,-0.23279 -0.57216,-1.05219z" fill="#319a2b"/><path d="M241.55656,194.83779c-0.00714,-0.00917 -1.02279,-0.86282 -1.2775,-0.91197c-0.42851,-0.08289 -0.24346,0.59331 -0.71177,0.32709c-0.3473,-0.19743 -0.3453,-0.61255 -0.51558,-0.82734c-0.19443,-0.24477 0.01358,-0.78276 0.26436,-1.01731c0.13933,-0.1303 0.38329,-0.02214 0.36106,-0.06386c-0.15039,-0.282 -0.00326,-0.68769 0.28712,-0.75345l0.6319,-0.14334c0.6596,0.02226 1.40281,0.19738 1.81309,0.18619c0.94691,-0.06675 1.24743,0.93136 1.20635,0.75729c0.03319,0.87764 -0.46849,2.00593 -1.22564,2.62526c-0.15802,0.12083 -0.52149,0.2295 -0.83338,-0.17856z" fill="#f0e9bb"/><path d="M240.66441,196.33269c-0.29223,-0.10544 -0.72009,0.62217 -0.48424,0.4578c0.04722,-0.03292 -0.01772,0.59072 -0.14297,0.40694c-0.08218,-0.12087 -0.4847,-1.10014 -0.53039,-1.27274c-0.10562,-0.39863 0.04705,-0.92998 0.06062,-1.32971c0.0129,-0.37624 0.4106,-0.6994 0.55991,-0.80355c0.21568,-0.15077 0.59956,0.22749 0.98655,0.56806c0.47066,0.41424 0.93175,0.60991 0.96421,0.61926c0,0 0.60755,0.12417 0.70465,-0.02913c-0.30509,0.50049 0.24072,1.6304 -0.11481,2.10657c-0.20281,0.24091 -1.71506,-0.61932 -2.00352,-0.7235z" fill="#ead42f"/></g><path d="M237.32771,213.68674c0,0.10516 -0.77258,1.62259 -0.71918,2.37063c0.0175,0.24517 -1.33989,0.50234 -2.18943,0.51508c-0.84955,0.01273 -2.21334,-0.53366 -2.21334,-0.53366l0.38892,-0.79746l3.09193,0.33373z" data-paper-data="{&quot;index&quot;:null}" fill="#54c81c" stroke="none" stroke-width="0.17188" stroke-linecap="butt"/><path d="M236.62785,213.1056c-0.00969,-0.58517 2.68388,-0.19714 2.68388,0.05723c0,0.10516 -0.11452,2.35532 -0.06112,3.10325c0.03138,0.43948 -0.46248,1.44923 -1.14394,2.04748c-0.68146,0.59825 -3.84381,1.20334 -3.84381,1.20334c0,0 0.75853,-0.9456 1.13716,-1.61822c0.37863,-0.67262 0.89531,-1.28089 0.86591,-1.94017z" data-paper-data="{&quot;index&quot;:null}" fill="#54c81c" stroke="none" stroke-width="0.17188" stroke-linecap="butt"/><path d="M234.7401,214.4256c0.50663,-0.40217 0.33148,-0.04932 1.05946,-1.17733c0.72798,-1.12802 0.70087,-3.57203 1.98561,-5.16403c0.35568,0.86729 -0.41326,3.898 -0.59476,4.95584c-0.1815,1.05784 -0.53403,1.56951 -0.64249,2.17924c-0.11717,0.65807 -2.10334,0.34619 -3.35908,0.21648c-1.25574,-0.12971 1.04463,-0.60803 1.55126,-1.0102z" data-paper-data="{&quot;index&quot;:null}" fill="#ffffff" stroke="none" stroke-width="0.17188" stroke-linecap="butt"/><path d="M239.05779,206.5939c0.16968,-0.06071 -0.05465,0.38889 0.1269,0.42303c0.51791,0.09739 1.41894,0.05836 1.46114,0.40525c0.05699,0.46849 -0.01341,2.06698 -0.28671,3.35214c-0.27331,1.28516 -0.81486,3.67852 -0.92333,4.28824c-0.11717,0.65808 -0.55277,0.10419 -0.74504,0.44203c-0.3929,0.69132 -2.11945,1.17924 -2.48647,1.17924c-0.38376,0 0.30104,-1.03972 0.33902,-1.60658c0.03798,-0.56686 0.19974,-0.46821 0.19974,-1.70925c0,-1.25414 0.1254,-1.60016 0.3311,-2.57856c0,0 0.32061,-2.19715 0.75899,-2.84453c0,0 0.57092,-1.11712 1.22466,-1.35101z" data-paper-data="{&quot;index&quot;:null}" fill="#ffffff" stroke="none" stroke-width="0.17188" stroke-linecap="butt"/><path d="M239.15417,215.37163c-0.01497,-0.67002 2.22071,-0.36947 2.22071,-0.07813c0,0.12034 2.73429,0.38509 3.3844,0.6736c0.65012,0.2885 1.84606,1.45427 1.84606,1.45427l-2.80734,0.3115c0,0 -1.63325,-0.02504 -2.6103,-0.34291c-0.97705,-0.31787 -1.9616,-1.11739 -1.9616,-1.11739z" data-paper-data="{&quot;index&quot;:null}" fill="#54c81c" stroke="none" stroke-width="0.17188" stroke-linecap="butt"/><g data-paper-data="{&quot;index&quot;:null}" stroke="none" stroke-linecap="butt"><path d="M247.05376,214.03177c0.04051,0.77199 -4.67408,0.93179 -5.04534,0.26347c-0.9395,-1.68236 -1.89284,-7.07243 -1.57271,-7.20079c0.94315,-0.31021 1.94014,2.41826 3.03717,4.14983c0.5623,0.88754 3.37675,2.17995 3.58089,2.78748z" data-paper-data="{&quot;index&quot;:null}" fill="#ffffff" stroke-width="0.19137"/><path d="M243.46698,214.19272c0.73625,-0.16713 3.26615,-0.64231 3.26615,-0.64231l1.51988,0.91407c0,0 -4.27953,1.39699 -4.52714,1.08647c-0.57115,-0.71694 -1.93151,-1.44993 -1.97648,-1.7014c-0.06451,-0.36068 0.48148,0.34362 1.21759,0.17652z" data-paper-data="{&quot;index&quot;:null}" fill="#54c81c" stroke-width="0.17188"/></g><path d="M240.01763,207.08299c0.19308,0.00362 0.26425,-0.27439 0.41509,-0.0151c0.16358,0.2812 0.31395,0.65975 0.47634,1.02072c0.31212,0.69381 1.01721,2.77745 1.33473,4.08856c0.11284,0.46597 2.19277,3.57869 2.86126,4.43616c0.26878,0.34476 -1.1691,0.11878 -1.9932,0.05813c-0.82411,-0.06064 -1.53216,-0.31755 -1.53216,-0.31755c0,0 -0.87492,-0.25271 -1.35397,-0.59052c-0.47905,-0.33782 -0.94045,0.22607 -0.94045,-1.19411c0,-1.4353 -0.00886,-4.00791 0.08643,-4.96529c0.0646,-0.64902 0.03447,-1.79063 0.18612,-2.45525c0.07205,-0.31578 0.27604,-0.06932 0.45982,-0.06575z" data-paper-data="{&quot;index&quot;:null}" fill="#ffffff" stroke="none" stroke-width="0.17188" stroke-linecap="butt"/><g data-paper-data="{&quot;index&quot;:null}" stroke="none" stroke-linecap="butt"><path d="M238.93211,203.71941c0.16428,0.0667 0.29671,0.32791 0.37772,0.69617c0.08112,0.36823 0.11089,0.84341 0.07011,1.33786c-0.04075,0.49454 -0.14442,0.91556 -0.27896,1.19621c-0.13465,0.28069 -0.30012,0.42112 -0.4644,0.35443c-0.16438,-0.06676 -0.29673,-0.32798 -0.37783,-0.69623c-0.08103,-0.36826 -0.11089,-0.84341 -0.07011,-1.33786c0.04076,-0.49454 0.14453,-0.9156 0.27907,-1.19624c0.13455,-0.28065 0.30001,-0.42107 0.46441,-0.35432z" fill="#eb3d66" stroke-width="0.01872"/><path d="M238.7044,204.117c0.07557,0.02796 0.13014,0.14216 0.15743,0.30428c0.02726,0.16203 0.02712,0.37201 -0.00685,0.59112c-0.034,0.21902 -0.09541,0.40621 -0.16731,0.53169c-0.07189,0.12545 -0.15411,0.18923 -0.22957,0.16124c-0.07553,-0.02785 -0.13012,-0.14216 -0.1574,-0.30428c-0.02723,-0.16205 -0.02717,-0.37189 0.0069,-0.59104c0.03399,-0.21911 0.09539,-0.40631 0.16729,-0.53178c0.0718,-0.12544 0.15401,-0.18911 0.22956,-0.16125z" fill="#ffffff" stroke-width="0.01896"/></g><path d="M233.31351,199.52955l0.88618,-0.02564l0.05378,0.20263z" fill="#000000" stroke="none" stroke-width="0" stroke-linecap="butt"/><path d="M241.17788,206.92177l0.19661,0.60534c0,0 -0.71413,-0.32402 -1.31831,-0.15139c-0.53665,0.03439 -1.09714,-0.3092 -1.01645,-0.46382c0.15625,-0.29941 0.37343,0.04276 0.91118,0.04276c0.53775,0 1.22697,-0.03289 1.22697,-0.03289z" fill="#ead42f" stroke="none" stroke-width="0" stroke-linecap="butt"/></g></g></svg>