<svg version="1.1" xmlns="http://www.w3.org/2000/svg" xmlns:xlink="http://www.w3.org/1999/xlink" width="28.39406" height="21.47551" viewBox="0,0,28.39406,21.47551"><g transform="translate(-224.6621,-168.7867)"><g data-paper-data="{&quot;isPaintingLayer&quot;:true}" fill-rule="nonzero" stroke-width="0" stroke-linecap="butt" stroke-linejoin="miter" stroke-miterlimit="10" stroke-dasharray="" stroke-dashoffset="0" style="mix-blend-mode: normal"><path d="M239.09991,180.61519c-0.0316,0.2183 -0.01711,0.69044 -0.0415,1.26344c-0.02439,0.573 -0.09988,1.68914 -0.09988,1.68914c0,0 -0.47434,0.61137 -0.99922,-0.42585c-0.18145,-0.35857 0.09686,-2.57998 0.11073,-2.6758c0.08867,-0.61254 0.28482,-1.11983 0.67548,-1.03457c0.42828,0.09346 0.44306,0.57109 0.35441,1.18365z" data-paper-data="{&quot;index&quot;:null}" fill="#fde1c0" stroke="none"/><path d="M237.24039,184.04265c-0.19592,-0.17493 -0.11895,-0.39631 -0.07243,-0.6028c0.04651,-0.20649 0.28391,-0.60596 0.28391,-0.60596c0,0 0.53441,-0.20869 0.95271,0.00205c0.60616,0.30537 1.02011,0.88526 1.02011,0.88526c0,0 0.0958,0.55763 -0.24336,0.7761c-0.21352,0.13755 -1.35926,0.06469 -1.94094,-0.45465z" data-paper-data="{&quot;index&quot;:null}" fill="#fefefe" stroke="none"/><g stroke="none"><path d="M237.60225,183.86587c0.08354,-0.25336 0.88694,0.24549 1.29432,0.37983c0.40737,0.13432 0.62967,0.20459 0.56331,0.40587c-0.07781,0.236 -0.58146,0.18329 -0.99664,0.07548c-0.82372,-0.21387 -0.92735,-0.65987 -0.86099,-0.86116z" fill="#000000"/><path d="M238.64722,186.21165c0,0 -0.34884,0.17044 -0.61505,0.08533c-0.39237,-0.12542 -0.37699,-0.37395 -0.37699,-0.37395c0,0 -0.29714,0.13342 -0.59845,0.00343c-0.23281,-0.10045 -0.34146,-0.37386 -0.34146,-0.37386c0,0 -1.31715,0.01555 -1.02895,-0.85439c0.23421,-0.70701 0.83071,-1.17721 0.98111,-1.29452c0.1504,-0.11732 0.35761,-0.04495 0.52135,0.05165c0.16374,0.0966 0.26214,0.41061 0.26214,0.41061c0,0 0.32873,0.04735 0.48867,0.14659c0.15994,0.09923 0.32376,0.35749 0.32376,0.35749c0,0 0.29453,-0.08116 0.42172,-0.0562c0.12719,0.02495 0.27092,0.19211 0.27092,0.19211c0,0 0.21235,-0.20028 0.37505,-0.21253c0.16268,-0.01226 0.38824,0.15504 0.38824,0.15504c0,0 0.17696,0.70427 -0.18278,1.48892c-0.31625,0.68981 -0.88929,0.27428 -0.88929,0.27428z" fill="#fefefe"/><path d="M236.60097,183.40101c0.08354,-0.25336 0.72848,-0.04844 1.13586,0.08588c0.40737,0.13432 0.78814,0.49852 0.72177,0.6998c-0.07781,0.236 -0.58146,0.18329 -0.99664,0.07548c-0.82372,-0.21387 -0.92735,-0.65987 -0.86099,-0.86116z" fill="#fefefe"/></g><path d="M236.02727,178.88122c0,0 -0.85136,1.26194 -1.11667,1.2108c-0.32294,-0.06225 -0.37944,-0.63806 -0.43611,-0.91707c-0.07467,-0.36757 -0.17434,-1.23837 -0.17434,-1.23837c0,0 0.44971,0.3332 0.75903,0.5202c0.30932,0.18699 0.96809,0.42443 0.96809,0.42443z" data-paper-data="{&quot;index&quot;:null}" fill="#ebc19b" stroke="none"/><path d="M239.87652,189.79459c-0.19528,-0.06452 -0.60237,-0.44271 -0.75394,-0.87298c-0.15326,-0.43507 -0.09172,-0.95797 -0.03233,-1.21696c0.69151,-3.01553 1.5359,-2.78874 1.5359,-2.78874c0,0 -1.19103,3.22515 -0.846,3.90026c0.38669,0.75662 3.04977,0.35769 3.04977,0.35769c0,0 -0.04674,0.64138 -0.4535,0.79645c-0.55656,0.21219 -1.37619,0.19552 -2.4999,-0.17573z" fill="#686868" stroke="none"/><path d="M233.58511,174.5718c0,-3.59741 2.33287,-4.81667 5.20903,-4.88077c3.23761,-0.07215 5.24284,2.1854 5.20903,4.88077c-0.03607,2.87594 -2.29609,4.84469 -5.20903,4.88077c-2.87665,0.03563 -5.20903,-1.49979 -5.20903,-4.88077z" fill="#fedeb5" stroke="none"/><path d="M235.57852,177.14938c0,0 -0.18902,0.04883 -0.40311,0.17841c-0.18603,0.11259 -0.27512,0.27527 -0.5073,0.29544c-0.23219,0.02017 -0.47748,-0.2099 -0.47748,-0.2099c0,0 -0.3932,-0.80087 -0.49121,-1.58465c-0.4019,-2.45397 0.39538,-3.621 0.90021,-3.78671c0.62524,-0.20523 0.54785,0.56083 0.73125,2.76909c0.13553,1.6318 0.24763,2.33832 0.24763,2.33832z" data-paper-data="{&quot;index&quot;:null}" fill="#ea750b" stroke="none"/><path d="M237.67112,174.03144c0.62205,-1.60697 1.92124,-2.46742 2.92272,-2.10847c1.07149,0.38405 1.72423,1.62304 0.93462,3.76377c-0.287,0.7781 -1.18589,1.86349 -1.87639,2.15545c-1.20484,0.50943 -2.31612,-0.1528 -2.31612,-0.1528c0,0 -0.28687,-2.05099 0.33517,-3.65795z" fill="#ea750b" stroke="none"/><path d="M237.39342,175.17055c0.30048,-1.34302 1.31023,-2.28491 2.09312,-2.04978c0.78289,0.23514 1.11508,1.33006 0.83699,2.8652c-0.19211,1.06052 -0.80141,1.76892 -0.80141,1.76892c0,0 -0.37702,0.31379 -1.12458,0.24478c-0.96206,-0.08881 -1.06323,-0.33952 -1.06323,-0.33952c0,0 -0.26939,-1.02134 0.0591,-2.48961z" fill="#ffffff" stroke="none"/><g stroke="none"><path d="M237.2666,176.17983c0.05851,-0.90503 0.37154,-1.62539 0.69918,-1.60898c0.32764,0.01642 0.54581,0.76339 0.48729,1.66842c-0.05851,0.90503 -0.37154,1.62539 -0.69918,1.60898c-0.32764,-0.01642 -0.54581,-0.76339 -0.48729,-1.66842z" fill="#a06803"/><path d="M237.43697,176.27543c0.0316,-0.53276 0.20067,-0.95682 0.37764,-0.94716c0.17696,0.00966 0.2948,0.44938 0.2632,0.98214c-0.0316,0.53276 -0.20067,0.95682 -0.37764,0.94716c-0.17696,-0.00966 -0.2948,-0.44938 -0.2632,-0.98214z" fill="#000000"/><path d="M237.71294,175.11177c0.11602,0.00562 0.19327,0.26143 0.17255,0.57136c-0.02072,0.30994 -0.13156,0.55663 -0.24758,0.55101c-0.11602,-0.00562 -0.19327,-0.26143 -0.17255,-0.57136c0.02072,-0.30994 0.13156,-0.55663 0.24758,-0.55101z" fill="#ffffff"/></g><path d="M235.42052,175.21498c0.10392,1.32311 0.13392,1.95459 0.13392,1.95459c0,0 -0.14876,0.07956 -0.30921,0.16265c-0.16045,0.0831 -0.39159,0.25388 -0.39159,0.25388c0,0 -0.35988,-0.8053 -0.44466,-1.72144c-0.12272,-1.32615 0.02514,-2.26987 0.36936,-2.47513c0.38654,-0.23049 0.55075,0.6613 0.64218,1.82545z" data-paper-data="{&quot;index&quot;:null}" fill="#ffffff" stroke="none"/><g stroke="none"><path d="M234.86233,175.89653c-0.0191,-0.7467 0.14803,-1.35724 0.3733,-1.36367c0.22526,-0.00643 0.42336,0.59368 0.44246,1.34039c0.0191,0.7467 -0.14803,1.35724 -0.3733,1.36367c-0.22526,0.00643 -0.42336,-0.59368 -0.44246,-1.34039z" fill="#a06803"/><path d="M235.18168,175.164c0.12172,-0.00281 0.23109,0.35109 0.24427,0.79048c0.01319,0.43939 -0.0748,0.79786 -0.19652,0.80069c-0.12172,0.00282 -0.23109,-0.35109 -0.24427,-0.79048c-0.01319,-0.43939 0.0748,-0.79786 0.19652,-0.80068z" fill="#000000"/><path d="M235.09796,174.99239c0.07976,-0.00243 0.14933,0.20292 0.1554,0.45868c0.00607,0.25575 -0.05365,0.46506 -0.13341,0.46749c-0.07976,0.00243 -0.14933,-0.20292 -0.1554,-0.45868c-0.00607,-0.25575 0.05365,-0.46506 0.13341,-0.46749z" fill="#ffffff"/></g><path d="M237.3662,175.16816c0,0 0.66567,-2.28722 1.92739,-2.24403c1.40985,0.04827 1.23687,2.13625 1.23687,2.13625c0,0 0.89083,0.0728 1.36641,-0.01595c0.46783,-0.08731 1.4642,-0.5123 1.4642,-0.5123c0,0 -0.52109,0.66835 -1.72006,0.85102c-0.63378,0.09656 -1.26469,-0.0164 -1.26469,-0.0164c0,0 0.1008,-0.69591 -0.28502,-1.47054c-0.22407,-0.44987 -0.57156,-0.49039 -0.77489,-0.51662c-1.0501,-0.13545 -1.95022,1.78858 -1.95022,1.78858z" fill="#000000" stroke="none"/><path d="M234.90885,173.59325c-0.4527,0.01858 -0.53344,1.37668 -0.53344,1.37668c0,0 -0.8306,-0.03874 -1.48007,-0.44145c-0.66544,-0.41263 -1.039,-1.20713 -1.039,-1.20713c0,0 0.53645,0.81845 1.48878,1.20418c0.87745,0.3554 0.89498,0.17875 0.89498,0.17875c0,0 0.1467,-1.47852 0.63971,-1.52679c0.44121,-0.0432 0.43682,1.02998 0.43682,1.02998c0,0 -0.14403,-0.62504 -0.40779,-0.61421z" fill="#000000" stroke="none"/><path d="M235.24674,173.42906l2.46872,0.50325c0,0 -0.26799,0.50661 -0.4093,1.74671c-0.14578,1.27926 0.02041,1.92339 0.02041,1.92339c0,0 -0.74999,-0.37664 -1.04501,-0.45607c-0.29788,-0.0802 -0.72734,0.01911 -0.72734,0.01911z" fill="#fedeb5" stroke="none"/><path d="M249.91209,183.21536c0.02992,0.05831 -0.01926,0.37363 0.10087,0.62169c0.12594,0.26004 0.32472,0.27531 0.51283,0.44098c0.17429,0.15351 1.79269,2.60281 1.77302,3.48803c-0.00537,0.24157 0.02433,0.55782 -0.00639,0.63342c-0.32995,0.8118 -1.56883,1.78967 -2.29401,1.85411c-0.84165,0.07479 -1.02035,-0.36169 -1.02035,-0.36169c0,0 2.57751,-0.93073 2.61175,-2.27141c0.0346,-1.35476 -2.92889,-5.25715 -2.92889,-5.25715c0,0 0.65799,-0.30375 1.25115,0.85202z" fill="#686868" stroke="none"/><path d="M247.70207,188.67003c-0.05614,-0.27818 -0.08217,-0.19019 -0.02299,-0.68667c0.06617,-0.5552 0.89828,-2.31627 0.71438,-3.21267c-0.27335,-1.33238 -1.62302,-1.77676 -1.62302,-1.77676c0,0 0.19834,-0.42212 0.85764,-0.61616c0.53238,-0.15669 1.05929,-0.03735 1.05929,-0.03735c0,0 2.77413,3.56511 2.93106,5.22545c0.11129,1.17743 -2.03705,2.3291 -2.57064,2.3291c-0.53359,0 -0.96614,-0.51262 -1.3457,-1.22494z" fill="#ef4019" stroke="none"/><path d="M247.68413,188.01789c0,0 -0.00405,-0.67553 -0.05867,-0.91313c-0.05094,-0.22158 -0.25878,-0.46777 -0.25878,-0.46777c0,0 0.48659,-1.13625 0.53811,-1.68262c0.04984,-0.52855 -0.23385,-1.54392 -0.23385,-1.54392c0,0 0.67865,-0.29754 0.8703,-0.313c0.35978,-0.02902 2.0406,2.60667 2.17452,3.46018c0.05699,0.36323 -0.4606,0.20104 -0.80531,0.12634c-0.33289,-0.07214 -0.72421,0.04268 -0.85657,0.12571c-0.66368,0.41632 -1.36974,1.20822 -1.36974,1.20822z" fill="#ffc500" stroke="none"/><path d="M248.3349,184.51009c0.24715,0.73454 -0.22228,1.26045 -0.87298,1.41265c-0.8495,0.19868 -1.34915,0.30064 -1.46026,-0.52379c-0.02108,-0.15638 -0.97936,-2.22213 0.79362,-2.39673c0.20065,-0.01976 1.11689,0.2515 1.53962,1.50788z" fill="#ffffff" stroke="none"/><path d="M239.45704,187.50443c0.04535,-1.00281 0.98902,-2.72098 1.43986,-2.72098c0.31356,0 1.46033,1.54221 1.98832,2.39386c0.20139,0.32486 0.18682,0.54924 0.18682,0.54924c0,0 0.00295,1.05218 -0.08904,1.24041c-0.37836,0.7742 -0.89094,0.81721 -2.84569,0.29477c-0.72267,-0.19314 -0.69891,-1.34447 -0.68024,-1.7573z" fill="#ef4019" stroke="none"/><path d="M246.14817,184.00897c0,0 0.15656,-0.17576 0.37898,-0.23178c0.29367,-0.07397 0.70195,0.03861 0.80581,0.5834c0.19392,1.01715 -1.16838,1.08464 -1.35558,1.02713c-1.02909,-0.3161 -1.94354,-1.74729 -1.94354,-1.74729l0.86918,-0.8257c0,0 0.40752,0.41617 0.63631,0.61716c0.2148,0.1887 0.60884,0.57707 0.60884,0.57707z" fill="#fedeb5" stroke="none"/><path d="M243.40313,185.62842c0.48597,0.15798 -0.21007,0.72359 -0.21007,0.72359l-0.12738,1.42318c0,0 -0.10717,-0.47424 -0.55818,-0.61274c-0.33,-0.10134 -1.27944,-0.12685 -1.68404,-0.12681c-0.15981,-0.0104 -0.51107,0.50452 -0.78088,0.42477c-0.39387,-0.59053 0.85058,-2.67106 0.85058,-2.67106c0,0 0.09894,-0.01931 0.15425,0.06736c0.12057,0.18893 0.28902,0.58366 0.5738,0.67896c0.71077,0.23786 1.70056,0.06629 1.78192,0.09275z" fill="#ffc500" stroke="none"/><path d="M241.05028,184.97485c0,-0.61878 0.55388,-1.12041 1.23711,-1.12041c0.68324,0 1.23711,0.50162 1.23711,1.12041c0,0.61878 -0.55388,1.12041 -1.23711,1.12041c-0.2702,0 -0.95406,-0.31189 -0.95406,-0.31189l-0.58013,0.16832l0.23577,-0.65228c0,0 0.06131,-0.237 0.06131,-0.32455z" fill="#ffffff" stroke="none"/><path d="M241.75053,184.93984c0,-0.31245 0.25081,-0.56573 0.5602,-0.56573c0.30939,0 0.5602,0.25329 0.5602,0.56573c0,0.31245 -0.25081,0.56573 -0.5602,0.56573c-0.30939,0 -0.5602,-0.25329 -0.5602,-0.56573z" fill="#f5cda8" stroke="none"/><path d="M247.17061,185.83382c0.35149,-0.21608 0.75173,-1.03388 0.9024,-1.03804c0.06299,-0.00174 0.28959,0.03438 0.39311,-0.02155c0.19682,-0.10634 0.28073,-0.33789 0.28073,-0.33789c0,0 0.01368,0.84825 -0.22147,1.24036c-0.44665,0.74479 -1.18249,0.94441 -1.18249,0.94441c0,0 -1.04594,-0.06533 -1.36358,-0.48265c-0.15909,-0.20901 0.13347,-0.36653 0.13347,-0.36653c0,0 0.62831,0.32594 1.05785,0.06189z" fill="#ffc500" stroke="none"/><path d="M241.98065,179.11347c1.76636,0.03432 4.26475,0.70623 4.26475,0.70623c0,0 0.33917,1.66986 -0.43672,3.02743c-0.82062,1.43585 -2.24235,2.33751 -4.30988,2.24824c-0.76617,-0.01592 -1.64928,-0.20251 -2.39437,-1.27162c-0.72425,-1.03922 0.00715,-4.39281 0.00715,-4.39281c0,0 1.28409,-0.34824 2.86906,-0.31744z" fill="#ef4019" stroke="none"/><path d="M240.16368,180.71038c-0.37852,0.04639 -0.54908,-1.25523 -0.54908,-1.25523l0.99234,-0.19109c0,0 0.14466,1.37426 -0.44326,1.44631z" fill="#08abe8" stroke="none"/><path d="M239.06002,182.29176c-0.04194,-0.78665 0.77998,-1.9107 0.77998,-1.9107l0.21731,0.29675c0,0 -0.21219,0.6587 -0.3476,1.26622c-0.12487,0.56023 -0.17066,1.07269 -0.23928,1.08192c-0.14303,0.01925 -0.39811,-0.5036 -0.41041,-0.73418z" fill="#08abe8" stroke="none"/><path d="M240.32686,180.63834l0.19168,-0.29745c0,0 0.7023,0.88272 0.73641,1.85046c0.00588,0.16679 -0.1192,0.5996 -0.4549,0.71639c-0.06314,0.02197 -0.11648,-0.48852 -0.21849,-1.00961c-0.11992,-0.61264 -0.2547,-1.25979 -0.2547,-1.25979z" fill="#08abe8" stroke="none"/><path d="M240.12886,179.29967c0,0 0.15609,-0.13127 0.45459,-0.22604c0.2985,-0.09476 0.52828,-0.17179 0.52828,-0.17179l-0.0234,1.82533z" fill="#ffffff" stroke="none"/><path d="M239.17827,179.31207c0,0 0.19987,-0.04137 0.47493,-0.00598c0.27506,0.03538 0.39132,0.05605 0.39132,0.05605l-0.60344,1.46017z" fill="#ffffff" stroke="none"/><path d="M234.75562,177.60872c0.19332,0.00696 0.63335,-0.55672 1.2083,-0.49598c0.78565,0.083 1.5277,0.84608 2.52161,0.8728c1.20091,0.03228 1.92777,-1.07152 2.74346,-0.58837c0.92949,0.55056 -0.10703,2.29042 -2.71974,2.12909c-2.48723,-0.15358 -3.6689,-0.97764 -4.19997,-1.58478c-0.14798,-0.16918 -0.1445,-0.57137 -0.1445,-0.57137c0,0 0.38119,0.23107 0.59084,0.23861z" fill="#ffffff" stroke="none"/><g stroke="none"><path d="M235.04149,177.51364c-0.03646,-0.15044 0.18072,-0.28068 0.40365,-0.28068c0.22293,0 0.45123,0.13355 0.40365,0.28068c-0.04105,0.12695 -0.13967,0.26664 -0.40365,0.26664c-0.2503,0 -0.37628,-0.15373 -0.40365,-0.26664z" fill="#6b4209"/><path d="M235.19201,177.38348c0,-0.04534 0.0827,-0.0821 0.18472,-0.0821c0.10202,0 0.18472,0.03676 0.18472,0.0821c0,0.04534 -0.0827,0.0821 -0.18472,0.0821c-0.10202,0 -0.18472,-0.03676 -0.18472,-0.0821z" fill="#ffffff"/></g><path d="M237.72338,178.86125c0,0 0.18258,0.05473 0.47891,0.05473c0.30545,0 0.65679,-0.06842 0.65679,-0.06842c0,0 -0.27798,0.17497 -0.6431,0.19156c-0.36513,0.0166 -0.49259,-0.17788 -0.49259,-0.17788z" fill="#000000" stroke="none"/><path d="M236.23007,171.22959c0.19609,-0.95103 0.39066,-1.21544 0.39066,-1.21544c0,0 0.85161,-0.27534 1.72764,-0.3181c1.27739,-0.06235 1.91534,0.13463 1.91534,0.13463c0,0 -1.14429,0.43186 -1.88016,0.91637c-0.39817,0.26216 -0.76187,0.44409 -1.05604,0.71191c-0.47974,0.43677 -0.86984,0.75867 -0.96791,0.75088c-0.18323,-0.01456 -0.21814,-0.55048 -0.12953,-0.98024z" fill="#ea750b" stroke="none"/><path d="M227.16833,169.0642c0.48611,-0.01302 2.98909,-0.50338 5.02425,0.11176c1.09115,0.3298 3.58016,0.72314 3.58016,0.72314c0,0 -3.74099,1.6988 -5.15384,1.74698c-0.65514,0.02235 -0.96923,-0.04554 -1.45137,-0.10196c-0.48215,-0.05642 -1.07433,-0.03609 -2.10093,-0.35874c-1.28063,-0.4025 -2.34463,-1.46012 -2.39676,-1.87631c-0.1289,-1.02912 1.37956,-0.21489 2.49848,-0.24487z" fill="#ea750b" stroke="none"/><path d="M231.59543,170.73845c0.4269,-0.56032 1.82317,-1.23361 1.82317,-1.23361c0,0 -0.11204,-0.12365 0.54686,-0.00066c0.65891,0.123 2.45609,0.53621 2.45609,0.53621l-1.82571,1.61689c0,0 -1.43576,-0.06892 -1.99545,0.0201c-0.47178,0.07503 -1.52733,-0.048 -1.52733,-0.048c0,0 0.16268,-0.41884 0.52237,-0.89094z" fill="#fedeb5" stroke="none"/><path d="M243.84786,177.45008c0,0 0.88875,0.21681 1.27561,1.09883c0.47347,1.0795 -0.07589,2.1386 -1.14763,2.17994c-0.35768,0.01379 -1.03112,-0.20621 -1.23416,-0.86288c-0.1925,-0.62256 -0.1199,-0.95081 0.10072,-1.32829c0.24675,-0.42223 0.97556,-0.53739 0.97556,-0.53739z" fill="#ebc19b" stroke="none"/><path d="M241.0283,178.92829c0,0 0.85949,-0.50418 1.24334,-0.84652c0.38385,-0.34235 0.92589,-0.92589 0.92589,-0.92589c0,0 0.088,1.2441 0.07955,1.77778c-0.00642,0.40508 0.06493,1.2253 -0.37054,1.3967c-0.35776,0.14082 -1.87823,-1.40206 -1.87823,-1.40206z" fill="#fedeb5" stroke="none"/><path d="M241.16481,179.98487c-0.07997,-0.66718 -0.05127,-1.18519 0.41606,-1.27525c0.42626,-0.08216 0.6257,0.47361 0.70568,1.14078c0.01251,0.10437 0.25563,2.52275 0.04918,2.9071c-0.5972,1.11181 -1.09581,0.43569 -1.09581,0.43569c0,0 -0.05233,-1.2134 -0.06359,-1.83596c-0.01127,-0.62256 0.01699,-1.13459 -0.01152,-1.37238z" fill="#fde1c0" stroke="none"/><path d="M240.1866,187.00128l-0.55634,-0.58496c0,0 -0.01977,-1.53349 2.03454,-2.34388c1.32815,-0.52394 2.06908,1.21569 2.06908,1.21569c0,0 0.50602,-0.41926 0.61327,-0.02969c0.54693,1.98653 -0.4554,2.02557 -0.4554,2.02557c0,0 -0.15138,0.24543 -0.34116,0.31214c-0.18978,0.0667 -0.57826,0.01103 -0.57826,0.01103c0,0 -0.20908,0.24272 -0.42788,0.29574c-0.2188,0.053 -0.56419,-0.05539 -0.56419,-0.05539c0,0 -0.16714,0.31803 -0.42063,0.43827c-0.76322,0.36205 -1.37299,-1.2845 -1.37299,-1.2845z" fill="#ffffff" stroke="#000000"/><path d="M243.0604,184.2111c-0.70806,0.46406 -1.94996,0.35803 -2.15709,0.17602c-0.32901,-0.28913 -0.13649,-0.87244 -0.13649,-0.87244c0,0 0.5377,-0.55606 1.23764,-0.78646c0.48303,-0.159 1.02326,0.15103 1.02326,0.15103c0,0 0.19066,0.46709 0.2074,0.69627c0.01673,0.22919 0.06379,0.47928 -0.17471,0.63558z" fill="#fefefe" stroke="none"/><path d="M240.352,185.82424c0,0 -0.03887,0.33091 -0.07599,0.54872c-0.03711,0.21781 -0.08999,0.6579 -0.08999,0.6579c0,0 -0.04022,-0.32103 -0.03632,-0.55392c0.00505,-0.30127 0.2023,-0.6527 0.2023,-0.6527z" fill="#000000" stroke="none"/><path d="M243.64054,186.47829c0,0 0.01921,-0.38763 0.03447,-0.60804c0.01525,-0.22043 0.04814,-0.58541 0.04814,-0.58541c0,0 0.03312,0.29623 0.0524,0.52835c0.02495,0.30029 -0.135,0.66509 -0.135,0.66509z" data-paper-data="{&quot;index&quot;:null}" fill="#000000" stroke="none"/><path d="M242.50866,183.76926c-0.247,-0.09783 -0.34467,-0.27992 -0.26788,-0.52514c0.04329,-0.13825 0.15779,-0.2731 0.40481,-0.17527c0.247,0.09783 0.35995,0.40445 0.32076,0.54393c-0.03918,0.13947 -0.21068,0.25431 -0.45766,0.15647z" fill="#f7e300" stroke="none"/><path d="M250.54994,169.20844c1.11892,0.02998 2.62738,-0.78425 2.49848,0.24487c-0.05213,0.41619 -1.11613,1.47381 -2.39676,1.87631c-1.0266,0.32265 -1.61878,0.30232 -2.10093,0.35874c-0.48214,0.05642 -0.79623,0.12431 -1.45137,0.10196c-1.41285,-0.04818 -5.15384,-1.74698 -5.15384,-1.74698c0,0 2.48901,-0.39334 3.58016,-0.72314c2.03516,-0.61514 4.53814,-0.12478 5.02425,-0.11176z" data-paper-data="{&quot;index&quot;:null}" fill="#ea750b" stroke="none"/><path d="M246.12283,170.88268c0.35969,0.4721 0.52237,0.89094 0.52237,0.89094c0,0 -1.05555,0.12303 -1.52733,0.048c-0.55969,-0.08902 -1.99545,-0.0201 -1.99545,-0.0201l-1.82571,-1.61689c0,0 1.79718,-0.41321 2.45609,-0.53621c0.6589,-0.12299 0.54686,0.00066 0.54686,0.00066c0,0 1.39627,0.67329 1.82317,1.23361z" data-paper-data="{&quot;index&quot;:null}" fill="#fedeb5" stroke="none"/></g></g></svg>