<svg version="1.1" xmlns="http://www.w3.org/2000/svg" xmlns:xlink="http://www.w3.org/1999/xlink" width="33.69703" height="38.45976" viewBox="0,0,33.69703,38.45976"><g transform="translate(-223.03389,-162.44175)"><g data-paper-data="{&quot;isPaintingLayer&quot;:true}" fill-rule="nonzero" stroke="none" stroke-linecap="butt" stroke-linejoin="miter" stroke-miterlimit="10" stroke-dasharray="" stroke-dashoffset="0" style="mix-blend-mode: normal"><path d="M241.20618,176.74056c0,0 -0.04878,2.42503 -1.77608,3.85835c-1.90815,1.5834 -6.13288,1.86112 -6.13288,1.86112l2.3758,-2.64768l0.17113,-5.12718z" fill="#2095ad" stroke-width="0"/><path d="M244.31919,175.14396c0.08883,-1.62629 0.04137,-9.8424 1.17656,-9.8424c1.06425,0 2.49957,4.02886 2.44989,6.87721c-0.05707,3.27475 -1.19876,6.37162 -1.19876,7.24271c0,1.62874 1.6086,4.82579 1.6086,4.82579c0,0 -4.54178,-1.22714 -4.03629,-9.10331z" fill="#2095ad" stroke-width="0"/><path d="M240.8653,176.53408c0.07474,-0.67529 1.51459,-0.32751 1.97876,-0.87562c0.94267,-1.11315 1.21195,-2.84995 1.31117,-2.84995c0.14805,0 0.36734,4.31831 0.44683,5.22794c0.44683,5.11332 -0.89367,6.30033 -0.89367,6.30033c0,0 -3.23157,-4.29292 -2.8431,-7.80272z" fill="#0d4d58" stroke-width="0"/><g stroke-width="0.17188"><path d="M247.73564,178.59234c-1.4454,0.18569 -3.63696,-0.12027 -4.48007,-0.36199c-0.84311,-0.24172 -2.25516,-1.00938 -1.97788,-1.31832c0.27724,-0.30907 2.51298,-0.29531 4.06573,-0.44012c0.98138,-0.09137 2.17169,-0.21532 3.09961,-0.01228c0.60966,0.13361 1.32468,0.93313 1.37097,1.43508c0.03682,0.38846 -1.60049,0.63616 -2.07836,0.69762z" data-paper-data="{&quot;index&quot;:null}" fill="#09649e"/><path d="M249.80194,177.87798c0.00651,-0.0079 0.16629,-0.73195 0.15983,-0.95996c-0.01068,-0.38367 -0.17763,-0.14101 -0.03856,-0.59388c0.10316,-0.33584 0.70487,0.17052 1.69905,0.06734c0.23206,-0.02408 1.68738,-0.18561 1.77974,-0.10965c0.30161,0.07595 0.96478,-0.06535 1.02528,0.30408c0.0605,0.36944 -0.83316,0.14671 -0.83316,0.14671c0,0 1.22879,-0.08457 1.17271,0.29608c-0.10574,0.3469 -1.19075,0.03373 -1.29553,0.0526c-0.23721,0.04271 1.12746,0.36222 0.89809,0.59495c-0.26441,0.26827 -1.77311,-0.51404 -2.55758,0.28842c-0.66669,0.48037 1.31862,0.09533 1.39645,0.61087c-0.65236,0.38067 -1.29245,0.47332 -2.67984,0.16916c-0.26409,-0.10582 -0.56991,0.00127 -0.72057,-0.11717c-0.13391,-0.11257 -0.29663,-0.40383 -0.00591,-0.74951z" data-paper-data="{&quot;index&quot;:null}" fill="#ebd9bb"/><path d="M248.50362,177.17807c0.07969,-0.29249 -0.14181,-1.00707 0.03651,-0.79055c0.03571,0.04334 -0.24637,-0.03698 -0.07742,-0.1732c0.11115,-0.08939 0.6374,-0.09374 0.80169,-0.15169c0.37944,-0.1339 0.9082,-0.02701 1.29805,-0.04509c0.36693,-0.01693 0.42977,0.33293 0.54275,0.46999c0.16355,0.19799 0.10831,0.47932 -0.19266,0.88238c-0.36607,0.49019 -0.52028,0.95397 -0.52684,0.98628c0,0 -0.07324,0.40064 0.08349,0.48309c-0.51066,-0.25756 -1.56692,0.36177 -2.0579,0.05324c-0.25019,-0.17842 0.09233,-1.71445 0.09233,-1.71445z" data-paper-data="{&quot;index&quot;:null}" fill="#ecc51e"/></g><path d="M238.93926,200.78137c-1.1064,0.82022 -1.36943,-2.78823 -1.34514,-3.88194c-0.13015,-1.26622 0.60741,-3.56378 0.60741,-3.56378c0,0 0.41313,-1.61522 0.96469,-0.68621c0.25674,0.43246 0.5349,0.83628 0.75651,1.25907c0.25445,0.48546 0.43432,0.99596 0.4216,1.6036c0,0 0.10948,4.14644 -1.40506,5.26925z" fill="#09649e" stroke-width="0"/><path d="M247.78246,197.48964c-0.25001,1.25009 -2.66507,-1.12519 -3.3258,-1.90847c-0.87338,-0.81043 -1.79102,-2.87396 -1.79102,-2.87396c0,0 -0.7173,-1.38652 0.23594,-1.06962c0.44374,0.14752 0.88441,0.26187 1.29809,0.42399c0.47499,0.18616 0.91439,0.43532 1.28199,0.87002c0,0 2.64304,2.84681 2.3008,4.55804z" fill="#09649e" stroke-width="0"/><path d="M240.45048,189.94185l-0.92773,-5.16444l1.51934,-0.23384c0,0 -0.32012,3.51073 0.89053,5.15835c0.3674,0.53377 2.731,3.38117 2.731,3.38117c0,0 1.55037,1.76595 1.71901,2.37869c0.21452,0.77943 -0.9648,0.42672 -1.24105,0.19566c0,0 -0.86003,-1.06587 -1.4238,-1.70966c-0.83339,-0.95168 -3.26729,-4.00592 -3.26729,-4.00592z" fill="#ffffff" stroke-width="0"/><path d="M238.19675,189.56708l1.90097,-5.60899l1.24547,0.92286c0,0 -1.48473,2.70465 -1.89816,4.70699c-0.15055,0.63026 -0.23303,4.7985 -0.23303,4.7985c0,0 0.01205,2.60019 -0.33022,3.13567c-0.43539,0.68116 -0.8971,0.05359 -1.03314,-0.53305c-0.13604,-0.58662 0.15718,-1.98428 0.21785,-2.90672c0.07381,-1.12215 0.13025,-4.51526 0.13025,-4.51526z" fill="#ffffff" stroke-width="0"/><g stroke-width="0"><path d="M247.05689,185.31542c0,0 4.62652,-0.6474 5.11912,-1.68885c0.49266,-1.04159 -3.90336,-2.79115 -2.95238,-2.55558c5.02268,1.2442 7.50729,2.88379 7.50729,2.88379c0,0 -2.34085,1.06971 -3.84679,1.28523c-1.50593,0.21552 -5.82724,0.07541 -5.82724,0.07541z" fill="#2095ad"/><path d="M238.68142,180.2248c0,0 1.42778,-0.43962 2.98001,-0.38382c1.37147,0.0493 2.79171,0.59825 4.10726,0.55233c3.39819,0.21472 5.3303,1.45172 7.48029,2.71282c0.59541,1.04096 -4.05225,2.41359 -6.26111,2.07422c-2.39256,-0.36759 -8.30644,-4.95556 -8.30644,-4.95556z" fill="#ffffff"/></g><g stroke-width="0"><path d="M235.15286,184.00892c0,0 -2.19252,1.16317 -4.31608,1.91249c-1.17053,0.41303 -2.69387,0.69513 -3.96115,1.05687c-1.26728,0.36174 -3.84174,-0.40063 -3.84174,-0.40063c0,0 1.82885,-0.93083 2.48357,-1.60969c0.65472,-0.67887 5.31543,-3.47564 5.5689,-3.37911c0.25347,0.09653 4.06651,2.42007 4.06651,2.42007z" fill="#2095ad"/><path d="M232.73133,180.96764c3.67911,-1.11965 4.86795,-0.6773 5.56701,-0.97398c2.03258,-0.86262 1.67217,-0.47547 1.67217,-0.47547c0,0 -0.52642,2.90393 -6.46723,5.24671c-4.27602,1.68626 -6.47564,1.1339 -6.47564,1.1339c0,0 0.99646,-3.49861 5.70369,-4.93116z" fill="#ffffff"/></g><g data-paper-data="{&quot;index&quot;:null}" stroke-width="0"><path d="M242.71473,188.15925c0,0 5.20586,0.28765 5.96311,-1.05249c0.76847,-1.36 -1.49267,-4.09001 -1.49267,-4.09001c0,0 3.0933,0.2497 4.8001,3.91086c0.98828,2.11304 1.82126,5.86045 1.82126,5.86045c0,0 -2.73384,-1.29322 -5.12017,-1.93774c-1.98249,-0.53544 -5.97163,-2.69107 -5.97163,-2.69107z" fill="#2095ad"/><path d="M247.32798,182.95493c0.20458,0.15688 3.19134,2.1655 2.57906,4.25255c-0.72116,1.45389 -6.56468,1.14936 -6.56468,1.14936c0,0 -2.41658,-0.3152 -3.87351,-1.75653c-1.7504,-1.73163 -1.65744,-4.55317 -1.08032,-5.85745c0.57711,-1.30428 0.58554,0.39353 3.56306,0.18031c2.24342,-0.16063 5.18033,1.8814 5.37641,2.03175z" fill="#ffffff"/></g><g stroke-width="0"><path d="M232.47643,184.83108l5.20724,3.3997c0,0 -2.70688,1.2134 -4.78553,2.20057c-1.92616,0.91475 -7.64694,1.72169 -7.64694,1.72169c0,0 1.76472,-1.61399 2.83163,-3.4792c1.06691,-1.86521 4.3936,-3.84276 4.3936,-3.84276z" fill="#2095ad"/><path d="M229.25351,189.1709c-0.65831,-2.15876 2.50604,-3.74772 3.30625,-4.58983c0.79416,-0.83577 0.31753,-2.27917 4.46933,-3.31042c2.83164,-0.70333 3.56351,-2.3737 3.56351,-2.3737l1.24201,1.13792c0,0 0.45694,4.37988 -1.61225,6.93991c-1.43578,1.64497 -9.12475,3.1272 -10.63549,2.4461z" fill="#ffffff"/></g><path d="M238.26093,180.07678c0,0 0.00296,0.30984 0.05461,0.56381c0.05166,0.25398 0.19274,0.55429 0.19274,0.55429l1.17875,0.54962c0,0 0.69014,-0.20736 0.97,-0.35074c0.27986,-0.14339 1.33251,-1.46916 1.33251,-1.46916l0.51105,-0.03953c0,0 -0.89719,1.4955 -1.52889,1.83374c-0.6317,0.33824 -1.55609,0.65983 -1.55609,0.65983l-0.2055,0.42909l-0.82569,0.13621l-0.32294,-0.64977l0.19117,-0.42534c0,0 -0.32604,-0.60918 -0.37942,-1.03668c-0.05338,-0.4275 -0.07684,-0.769 -0.07684,-0.769z" fill="#eec522" stroke-width="0"/><g stroke-width="0.17188"><path d="M233.27525,178.59228c-0.47787,-0.06146 -2.11518,-0.30916 -2.07836,-0.69762c0.04629,-0.50195 0.76131,-1.30147 1.37097,-1.43508c0.92792,-0.20304 2.11823,-0.07909 3.09961,0.01228c1.55275,0.14481 3.78849,0.13105 4.06573,0.44012c0.27728,0.30894 -1.13477,1.0766 -1.97788,1.31832c-0.84311,0.24172 -3.03467,0.54768 -4.48007,0.36199z" data-paper-data="{&quot;index&quot;:null}" fill="#09649e"/><path d="M231.20897,177.878c0.29072,0.34568 0.128,0.63694 -0.00591,0.74951c-0.15066,0.11844 -0.45648,0.01135 -0.72057,0.11717c-1.38739,0.30416 -2.02748,0.21151 -2.67984,-0.16916c0.07783,-0.51554 2.06314,-0.1305 1.39645,-0.61087c-0.78447,-0.80246 -2.29317,-0.02015 -2.55758,-0.28842c-0.22937,-0.23273 1.1353,-0.55224 0.89809,-0.59495c-0.10478,-0.01887 -1.18979,0.2943 -1.29553,-0.0526c-0.05608,-0.38065 1.17271,-0.29608 1.17271,-0.29608c0,0 -0.89366,0.22273 -0.83316,-0.14671c0.0605,-0.36943 0.72367,-0.22813 1.02528,-0.30408c0.09236,-0.07596 1.54768,0.08557 1.77974,0.10965c0.99418,0.10318 1.59589,-0.40318 1.69905,-0.06734c0.13907,0.45287 -0.02788,0.21021 -0.03856,0.59388c-0.00646,0.22801 0.15332,0.95206 0.15983,0.95996z" fill="#ebd9bb"/><path d="M232.59962,178.89244c-0.49098,0.30853 -1.54724,-0.3108 -2.0579,-0.05324c0.15673,-0.08245 0.08349,-0.48309 0.08349,-0.48309c-0.00656,-0.03231 -0.16077,-0.49609 -0.52684,-0.98628c-0.30097,-0.40306 -0.35621,-0.68439 -0.19266,-0.88238c0.11298,-0.13706 0.17582,-0.48692 0.54275,-0.46999c0.38985,0.01808 0.91861,-0.08881 1.29805,0.04509c0.16429,0.05795 0.69054,0.0623 0.80169,0.15169c0.16895,0.13622 -0.11313,0.21654 -0.07742,0.1732c0.17831,-0.21652 -0.04318,0.49806 0.03651,0.79055c0,0 0.34252,1.53603 0.09233,1.71445z" fill="#ecc51e"/></g><path d="M239.59745,176.6419c0.27251,0 1.27223,-0.15383 1.55758,0.01468c0.91399,0.5913 0.44364,1.54443 0.40456,3.01343c0.04114,0.18438 0.19368,0.59337 0.19368,0.59337c0,0 -0.68512,-0.29135 -0.96219,-0.42856c-0.1795,-0.08889 -0.53861,-0.31464 -0.53861,-0.31464c0,0 -0.44075,0.0734 -0.55348,0.05417c-0.22585,-0.03853 -1.08002,0.67774 -1.08002,0.67774l-0.11055,0.14195c0,0 0.18138,-0.40937 0.1735,-0.81523c-0.00944,-0.48635 -0.20346,-1.00254 -0.13155,-1.27342c0,0 0.47414,-1.66348 1.04707,-1.66348z" fill="#09649e" stroke-width="0"/><g stroke-width="0"><path d="M235.18422,167.96584c0,-0.04237 0.54261,-0.41338 1.08838,-0.99697c0.4541,-0.4856 0.01815,-1.26667 0.3999,-1.26667c0.84059,0 2.47821,-0.34366 2.47821,-0.26606c0,0.0776 -1.88061,2.67021 -2.7212,2.67021c-0.84059,0 -1.24531,-0.06293 -1.24531,-0.14056z" fill="#72878d"/><path d="M243.45333,166.16708l-1.48483,-0.52189c0,0 -0.14735,-1.42657 0.33835,-1.60663c2.55435,-0.94701 4.34968,2.87289 4.34968,2.87289c0,0 0.74906,3.57907 0.35843,6.4777c-0.42518,3.15494 -3.61935,8.08767 -3.61935,8.08767c0,0 0.60947,-5.74043 0.76618,-7.95946c0.10456,-1.48062 0.08281,-4.06033 0.08281,-4.06033z" fill="#2095ad"/><path d="M241.74236,163.33542c0,0 0.26271,-0.89367 1.02773,-0.89367c0.76502,0 0.84899,0.26808 0.84899,0.26808c0,0 2.21439,0.00444 2.53701,2.26224c0.02809,0.19661 -1.84024,-0.80459 -2.13487,-1.0111c-0.62645,-0.43909 -2.27886,-0.62558 -2.27886,-0.62558z" fill="#dceef3"/><path d="M238.25704,163.96097c0,-0.24679 1.40283,-1.21449 2.42667,-1.27176c0.6731,-0.03764 0.61182,0.64617 0.61182,0.64617c0,0 -0.69888,0.71492 -1.34048,0.71492c-0.6416,0 -1.69797,0.15742 -1.69797,-0.08937z" fill="#dceef3"/><path d="M241.65297,163.24606c1.13519,0 2.05544,0.33073 2.05544,0.84898c0,0.51823 -0.92025,0.75961 -2.05544,0.75961c-1.13515,0 -2.14477,-0.24135 -2.14477,-0.75961c0,-0.51826 1.00959,-0.84898 2.14477,-0.84898z" fill="#e8d548"/><path d="M242.27534,165.20156c0,-0.3768 0.4922,-0.88512 1.14658,-0.88512c0.65441,0 1.00779,0.65196 1.00779,1.02876c0,0.3768 -0.31506,0.03591 -0.96947,0.03591c-0.65441,0 -1.18489,0.19725 -1.18489,-0.17955z" fill="#72878d"/><path d="M234.59303,167.40159c0,0 -0.6694,-1.8337 0.24113,-2.92726c0.72979,-0.87646 1.63555,-0.69209 1.63555,-0.69209c0,0 0.43632,-0.48673 1.51595,-0.494c0.66245,-0.06965 1.8181,0.79716 1.87996,0.89615c0.36908,0.59042 -1.34733,-0.25773 -1.87788,-0.02104c-1.3601,0.60673 -3.39475,3.23824 -3.39475,3.23824z" fill="#dceef3"/><path d="M235.12924,168.07197c0,0 0.98655,-2.5116 1.56941,-2.5116c0.58289,0 0.18113,1.01641 0.18113,1.01641l-1.75054,1.49516z" fill="#dceef3"/><path d="M235.30791,170.66357c0,0 1.1822,-4.32301 1.94891,-4.75215c0.58942,-0.32989 2.25133,-0.34173 2.25133,-0.34173c0,0 -1.69794,4.79748 -1.69794,8.40045c0,3.60297 -0.08938,6.6131 -0.08938,6.6131c0,0 -1.55342,-2.56336 -2.02892,-4.51823c-0.4755,-1.95487 -0.38397,-5.40144 -0.38397,-5.40144z" fill="#2095ad"/><path d="M240.84866,168.56703c2.76393,0 4.96535,1.88084 5.00454,4.20021c0.04816,2.8495 -2.52932,3.97622 -5.0527,4.0076c-1.51717,0.01886 -4.712,-0.84071 -4.85887,-3.91243c-0.4497,-2.36698 2.1431,-4.29538 4.90703,-4.29538z" fill="#ecdebd"/><path d="M242.38868,173.90551c-0.4109,-0.03217 -1.84581,-0.28527 -1.84581,-0.28527c0,0 -0.15059,-0.41707 0.09141,-0.8484c0.37857,-0.67468 0.86017,-1.12828 1.43975,-1.09674c0.57958,0.03156 0.64759,0.48519 0.87772,0.90455c0.23012,0.41936 -0.07554,1.2234 -0.07554,1.2234c0,0 -0.28893,0.11804 -0.48753,0.10247z" fill="#000000"/><path d="M240.41085,173.91328c0,0 -0.02725,-1.57437 1.34691,-1.80871c1.32728,-0.2586 1.04147,1.71731 1.04147,1.71731c0,0 -0.41705,0.19242 -1.11843,0.19242c-0.70138,0 -1.26996,-0.10102 -1.26996,-0.10102z" fill="#eaeee9"/><path d="M247.37244,166.86542l0.40215,-1.29582c0,0 0.47982,0.57887 0.67632,1.18631c0.19651,0.60744 0.30673,1.85214 0.30673,1.85214z" fill="#dceef1"/><path d="M235.91205,165.90804c0,-0.03967 1.4607,-1.89142 2.52131,-1.89142c1.06064,0 1.75942,0.8939 1.75942,0.93357c0,0.03967 -1.41689,0.64633 -2.19027,0.64633c-0.77338,0 -2.09047,0.35119 -2.09047,0.31152z" fill="#72878d"/><path d="M246.94314,167.57128c0,-0.53544 0.35907,-0.91977 0.35907,-0.91977c0,0 0.50477,0.71123 0.74256,1.04147c0.23779,0.33024 0.79755,1.06319 0.79755,1.06319c0,0 -1.89918,-0.64948 -1.89918,-1.18489z" fill="#72878d"/><path d="M236.26466,172.35114c0.01863,-0.51353 0.02393,-0.78159 0.60354,-0.81315c0.28134,-0.01531 0.71731,0.43381 0.85632,0.94718c0.14738,0.54425 -0.19345,0.83509 -0.19345,0.83509l-0.91662,0.25428c0,0 -0.39157,-0.07145 -0.34981,-1.2234z" data-paper-data="{&quot;index&quot;:null}" fill="#000000"/><path d="M236.58425,173.58397c0,0 -0.4394,-1.27459 -0.0297,-1.78074c0.40974,-0.50616 0.81724,-0.29457 1.03877,0.47486c0.14442,0.5016 -0.08906,1.42457 -0.08906,1.42457z" fill="#eaeee9"/><g><path d="M236.39542,172.84926c0,-0.53003 0.25562,-0.95965 0.57096,-0.95965c0.31534,0 0.57097,0.42965 0.57097,0.95965c0,0.53003 -0.25563,0.95966 -0.57097,0.95966c-0.31534,0 -0.57096,-0.42966 -0.57096,-0.95966z" fill="#a77baf"/><path d="M236.99017,172.39224c0.13142,0 0.23791,0.20458 0.23791,0.45697c0,0.25239 -0.10652,0.45697 -0.23791,0.45697c-0.13139,0 -0.23791,-0.20458 -0.23791,-0.45697c0,-0.25239 0.10652,-0.45697 0.23791,-0.45697z" fill="#000000"/><path d="M237.07344,172.30082c0.09853,0 0.17842,0.14323 0.17842,0.31988c0,0.17666 -0.07989,0.31988 -0.17842,0.31988c-0.09853,0 -0.17843,-0.14323 -0.17843,-0.31988c0,-0.17666 0.07989,-0.31988 0.17843,-0.31988z" fill="#ffffff"/></g><path d="M235.3277,172.39665c0,0 -0.0072,-2.57917 0.7895,-3.7501c0.79671,-1.17093 2.7463,-2.19206 4.5855,-2.59753c1.83918,-0.40546 2.23541,0.54731 3.10904,0.9012c1.64125,0.66484 0.53379,5.2494 0.53379,5.2494c0,0 -2.44108,-0.08416 -3.32703,0.14033c-1.01248,0.25657 -2.16939,1.17572 -2.56591,1.02677c-0.26648,-0.10009 -0.55899,-1.06878 -0.55899,-1.06878l-0.34305,0.78596c0,0 -0.86858,-1.74757 -1.58222,-1.30576c-0.62458,0.38667 -0.6406,0.6185 -0.6406,0.6185z" fill="#2195ab"/><path d="M244.86129,166.02328c-0.2648,-0.28263 -0.50623,-0.85819 -0.70894,-1.10222c-0.38593,-0.46456 -1.20018,-0.56825 -1.20018,-0.56825c0,0 0.8641,-0.75766 1.34659,-0.80939c0.48248,-0.0517 1.46505,0.41753 1.46505,0.41753c0,0 0.31116,-0.33732 0.95061,-0.17266c0.52154,0.13429 1.40077,0.71595 1.36312,1.15503c-0.03439,0.40134 -0.20464,0.95432 -0.39336,1.36142c-0.27089,0.58431 -0.5799,0.96278 -0.5799,0.96278c0,0 -1.00328,0.07888 -2.24299,-1.24429z" fill="#dceef3"/><path d="M243.20386,165.93141c0,0 0.34463,0.2659 0.44648,0.54091c0.10186,0.27504 0.1257,1.00409 0.1257,1.00409c0,0 -0.20915,-0.27114 -0.89483,-0.77418c-0.59004,-0.43287 -1.43497,-0.71815 -1.43497,-0.81897c0,-0.21803 1.75759,0.04816 1.75759,0.04816z" data-paper-data="{&quot;index&quot;:null}" fill="#0b4754"/><path d="M239.12713,166.03125c0,0.10082 -0.69572,0.52588 -1.28575,0.95875c-0.68568,0.50304 -1.32828,1.2558 -1.32828,1.2558c0,0 0.1321,-0.85928 0.27385,-1.26879c0.14175,-0.40955 0.3923,-0.60741 0.3923,-0.60741c0,0 1.94789,-0.55635 1.94789,-0.33832z" fill="#0b4754"/><path d="M237.90005,167.15804c0,-0.37095 0.86945,-1.8615 1.58331,-2.65596c0.49722,-0.55333 1.00833,0.23103 1.00833,0.23103c0,0 1.5281,-0.32099 1.84828,0.00353c0.16674,0.2862 -0.14937,0.94122 -0.29218,1.52855c-0.12833,0.52791 -0.013,1.11325 -0.12621,1.2503c-0.70559,0.85416 -1.55513,1.31818 -2.59161,1.31818c-1.03648,0 -1.42988,-1.04636 -1.42988,-1.67565z" fill="#dceef3"/><path d="M243.95217,176.06964l0.24081,-4.19008l0.96322,-0.43345l-0.09632,4.52717z" fill="#2095ad"/><path d="M236.39969,172.75195c-0.03693,0.13384 -0.66387,-0.28797 -0.98385,-0.44552c-0.31998,-0.15748 -0.78371,-0.81968 -0.78371,-0.81968c0,0 0.55661,0.47329 0.95117,0.72413c0.39459,0.25084 0.83354,0.47885 0.8164,0.54107z" data-paper-data="{&quot;index&quot;:null}" fill="#000000"/><g><path d="M240.69824,173.26117c0,-0.53003 0.25562,-0.95965 0.57096,-0.95965c0.31534,0 0.57097,0.42965 0.57097,0.95965c0,0.53003 -0.25563,0.95966 -0.57097,0.95966c-0.31534,0 -0.57096,-0.42966 -0.57096,-0.95966z" fill="#a77baf"/><path d="M241.29299,172.80422c0.13142,0 0.23791,0.20458 0.23791,0.45697c0,0.25239 -0.10652,0.45697 -0.23791,0.45697c-0.13139,0 -0.23791,-0.20458 -0.23791,-0.45697c0,-0.25239 0.10652,-0.45697 0.23791,-0.45697z" fill="#000000"/><path d="M241.37627,172.71273c0.09853,0 0.17842,0.14323 0.17842,0.31988c0,0.17666 -0.07988,0.31988 -0.17842,0.31988c-0.09853,0 -0.17842,-0.14323 -0.17842,-0.31988c0,-0.17666 0.07989,-0.31988 0.17842,-0.31988z" fill="#ffffff"/></g><path d="M237.40847,174.1753c-0.43213,0.0288 -0.84661,-0.63073 -0.84661,-0.63073c0,0 0.67282,0.0654 0.91591,0.0451c0.08976,-0.0075 0.18087,-0.42888 0.18087,-0.42888c0,0 0.74368,0.36515 0.7211,0.65747c-0.01451,0.18795 -0.80214,0.34579 -0.97127,0.35704z" fill="#ecdebd"/><path d="M240.45368,174.39126l0.41933,-0.4193c0,0 0.40999,0.07625 0.648,0.07625c0.23801,0 0.72423,-0.03812 0.72423,-0.03812l0.60988,0.3812z" fill="#ecdebd"/><path d="M239.92827,176.10949c0.12625,-0.10919 0.49239,0.08499 0.82685,0.08499c0.33446,0 0.736,-0.25441 0.8367,-0.08499c0.13818,0.13728 -0.47489,0.24026 -0.83178,0.24026c-0.35689,0 -1.08146,-0.02432 -0.83177,-0.24026z" fill="#b1a37f"/><path d="M242.74762,174.09434c0.26612,0 0.06744,-0.01409 0.06744,0.31516c0,0.32925 -0.06744,0.38542 -0.06744,0.38542c0,0 -0.06743,-0.05617 -0.06743,-0.38542c0,-0.32925 -0.19869,-0.31516 0.06743,-0.31516z" fill="#d0bf96"/><path d="M236.56615,173.67286c0.26612,0 0.06743,-0.01409 0.06743,0.31516c0,0.32922 -0.06743,0.38539 -0.06743,0.38539c0,0 -0.06744,-0.05614 -0.06744,-0.38539c0,-0.32925 -0.19869,-0.31516 0.06744,-0.31516z" fill="#d0bf96"/><path d="M236.91734,173.81336c0.26612,0 0.06744,-0.01409 0.06744,0.31516c0,0.32922 -0.06744,0.38538 -0.06744,0.38538c0,0 -0.06743,-0.05613 -0.06743,-0.38538c0,-0.32925 -0.19869,-0.31516 0.06743,-0.31516z" fill="#d0bf96"/><path d="M242.3964,174.23483c0.26612,0 0.06744,-0.01409 0.06744,0.31516c0,0.32922 -0.06744,0.38539 -0.06744,0.38539c0,0 -0.06743,-0.05614 -0.06743,-0.38539c0,-0.32925 -0.1987,-0.31516 0.06743,-0.31516z" fill="#d0bf96"/><path d="M245.0385,175.50016c0,0 -0.42674,-2.45133 -0.62431,-3.38272c-0.14461,-0.68174 -0.45262,-1.6942 -0.45262,-1.6942c0,0 0.82659,-0.83705 1.07692,-0.46154c0.25034,0.37551 1.33832,2.03797 1.15385,3.38462c-0.18447,1.34665 -1.15385,2.15385 -1.15385,2.15385z" fill="#2195ab"/></g><path d="M240.60584,179.38436c0,0 0.31767,0.37105 0.53546,0.40686c0.2178,0.03581 0.47873,0.07872 0.47873,0.07872l0.37424,0.36655c0,0 -0.62919,0.01622 -0.86424,-0.08189c-0.23505,-0.09811 -0.55402,-0.46601 -0.55402,-0.46601z" fill="#2490a6" stroke-width="0"/><path d="M238.33871,180.36664l0.50508,-0.42884c0,0 0.00713,-0.06008 0.1822,-0.0996c0.17507,-0.03952 0.4723,-0.5085 0.4723,-0.5085l0.05232,0.25088c0,0 -0.20342,0.43289 -0.39237,0.54115c-0.18894,0.10826 -0.81954,0.24492 -0.81954,0.24492z" data-paper-data="{&quot;index&quot;:null}" fill="#2490a6" stroke-width="0"/><g><path d="M240.29572,176.92609c0.17008,0.06905 0.3072,0.33949 0.39108,0.72079c0.08399,0.38126 0.11481,0.87325 0.07258,1.38519c-0.0422,0.51204 -0.14953,0.94795 -0.28883,1.23853c-0.1394,0.29062 -0.31073,0.43601 -0.48082,0.36696c-0.17021,-0.06911 -0.30722,-0.33958 -0.3912,-0.72085c-0.08388,-0.3813 -0.11481,-0.87325 -0.07258,-1.38519c0.04219,-0.51204 0.14963,-0.94798 0.28893,-1.23856c0.1393,-0.29058 0.31062,-0.43597 0.48084,-0.36686z" fill="#5ed161" stroke-width="0.01872"/><g data-paper-data="{&quot;index&quot;:null}" fill="#21683c" stroke-width="0.01872"><path d="M240.22625,177.76841c0.09288,0.03771 0.16777,0.1854 0.21357,0.39363c0.04587,0.20821 0.0627,0.47689 0.03964,0.75647c-0.02305,0.27963 -0.08166,0.51769 -0.15773,0.67638c-0.07613,0.15871 -0.16969,0.23811 -0.26258,0.2004c-0.09295,-0.03774 -0.16778,-0.18545 -0.21364,-0.39367c-0.04581,-0.20823 -0.0627,-0.47689 -0.03964,-0.75647c0.02304,-0.27963 0.08172,-0.51771 0.15779,-0.6764c0.07607,-0.15869 0.16963,-0.23809 0.26259,-0.20035z"/></g><path d="M240.15095,177.68612c0.05931,0.02193 0.10212,0.11155 0.12354,0.23878c0.02138,0.12715 0.02128,0.29193 -0.00537,0.46388c-0.02668,0.17188 -0.07488,0.31879 -0.1313,0.41725c-0.05641,0.09846 -0.12094,0.1485 -0.18015,0.12654c-0.05927,-0.02186 -0.10211,-0.11155 -0.12352,-0.23878c-0.02138,-0.12717 -0.02132,-0.29184 0.0054,-0.46381c0.02666,-0.17195 0.07486,-0.31887 0.13128,-0.41732c0.05634,-0.09843 0.12087,-0.1484 0.18015,-0.12655z" fill="#ffffff" stroke-width="0.01896"/></g><path d="M243.93335,172.42521c0.44706,-0.13689 1.1976,-0.42078 1.1976,-0.42078c0,0 -0.65501,0.4588 -1.00537,0.52553c-0.35036,0.06676 -1.27957,0.39018 -1.27957,0.25136c0,-0.06454 0.64025,-0.21925 1.08734,-0.35611z" fill="#000000" stroke-width="0"/></g></g></svg>