<svg version="1.1" xmlns="http://www.w3.org/2000/svg" xmlns:xlink="http://www.w3.org/1999/xlink" width="29.33362" height="44.512" viewBox="0,0,29.33362,44.512"><g transform="translate(-228.19905,-158.34529)"><g data-paper-data="{&quot;isPaintingLayer&quot;:true}" fill-rule="nonzero" stroke-linejoin="miter" stroke-miterlimit="10" stroke-dasharray="" stroke-dashoffset="0" style="mix-blend-mode: normal"><g stroke="none" stroke-width="0" stroke-linecap="butt"><path d="M244.38939,167.92241c0.16026,-0.88055 1.87156,-2.14306 1.87156,-2.14306c0,0 1.79852,-0.48321 2.88554,0.54513c1.08701,1.02834 1.38464,2.80027 0.52083,3.71336c-0.30705,0.32457 -1.30416,1.06863 -2.28738,1.03815c-0.98323,-0.03048 -1.27542,-0.54355 -1.86657,-1.16692c-0.59114,-0.62337 -1.28425,-1.10612 -1.12399,-1.98667z" fill="#c3b0b0"/><path d="M241.41724,172.16968l3.31844,-3.46451c0,0 1.02036,-0.09024 1.53367,0.49875c0.6611,0.75856 0.23912,1.3031 0.23912,1.3031l-3.41864,2.83628z" fill="#cc0000"/><path d="M246.17929,161.93377c0.18599,-0.71907 0.93978,-0.89015 1.56524,-1.65141c0.57165,-0.69574 0.76127,-1.97266 1.32161,-1.82773c0.23867,0.06173 0.91671,0.93132 0.91671,0.93132c0,0 -0.81261,1.46904 -0.26786,1.18854c0.26508,-0.13649 0.99552,-0.5593 1.49549,-1.0767c0.49997,-0.51738 -0.1854,-0.70847 0.44016,-0.92641c0.43647,-0.15206 1.26341,-0.27796 1.38247,-0.20459c0.41253,0.25422 1.54742,2.8313 1.89195,3.08269c0.91336,0.66646 1.72906,1.17739 1.49869,2.20366c-1.13385,5.05124 -5.93141,4.54335 -6.05407,5.01757c-0.35597,1.37625 -1.28542,-1.98363 -2.45885,-2.28714c-1.17343,-0.30351 -2.08753,-3.07356 -1.73155,-4.44981z" fill="#c3b0b0"/></g><path d="M242.84693,180.30788l-0.02389,4.20868l-1.06658,1.92203l-4.29091,-0.66208c0,0 0.23631,-3.09542 -0.45764,-3.82693c-0.69394,-0.7315 -0.48469,-6.47405 -0.51432,-6.52695c-0.34039,-0.60778 0.60579,1.0111 1.66172,0.60953c2.19064,-0.83309 4.55195,-0.46318 5.00058,-0.67156c0.66488,-0.30883 0.30129,1.20335 0.24415,2.11826c-0.05714,0.91491 -0.55313,2.82904 -0.55313,2.82904z" data-paper-data="{&quot;index&quot;:null}" fill="#ff3200" stroke="none" stroke-width="0" stroke-linecap="butt"/><path d="M242.24181,176.37859l2.39924,-1.02936c0,0 -0.26066,2.61732 0.13932,5.01793c0.39998,2.40061 1.10967,4.93821 1.10967,4.93821c0,0 -2.21266,-1.67025 -2.90418,-4.39332c-0.44129,-1.73775 -0.74405,-4.53346 -0.74405,-4.53346z" data-paper-data="{&quot;index&quot;:null}" fill="#ff3300" stroke="none" stroke-width="0" stroke-linecap="butt"/><path d="M248.24188,169.73329c0.27889,1.67382 -2.32556,3.0105 -4.43985,3.36277c-0.02239,0.00373 -3.91205,-1.91484 -5.60064,1.39399c-0.9678,1.89643 0.39884,8.27962 0.39884,8.27962l-2.8461,-6.75851c0,0 0.14939,2.28415 0.37931,3.60799c0.32089,1.84756 1.36576,6.43968 1.36576,6.43968c0,0 -2.53796,-3.47952 -3.26385,-5.8864c-0.87928,-2.91546 -1.6404,-10.37488 -1.6404,-10.37488c0,0 0.59785,7.25879 1.22969,11.87483c0.63183,4.61605 1.17891,5.72188 1.17891,5.72188c0,0 -2.72071,-3.78624 -3.59705,-6.57771c-0.87634,-2.79147 -1.51006,-6.66403 -1.51006,-6.66403l-0.47747,5.84171c0,0 -0.83052,-3.17362 -1.03852,-4.73463c-0.19803,-1.48611 -0.18104,-4.41778 -0.18104,-4.41778c0,0 1.06259,-2.7753 2.0857,-4.09938c1.86341,-2.41156 2.97851,-2.79197 2.97851,-2.79197c0,0 5.49535,-1.03931 9.96726,0.30607c2.11314,0.63574 3.44253,4.42657 3.44253,4.42657c0,0 1.28958,-0.62364 1.56846,1.05018z" data-paper-data="{&quot;index&quot;:null}" fill="#ff3300" stroke="none" stroke-width="0" stroke-linecap="butt"/><path d="M249.04775,174.40596c0,0 0.77882,0.81247 -4.32493,2.44781c-2.09183,0.67027 -4.34461,0.47421 -6.17771,-0.39585c-1.34298,-0.58652 -1.48532,-2.34898 -1.41843,-2.81333c0.23107,-1.60429 1.19625,-1.95216 1.94781,-1.69372c0.88829,0.30545 1.56107,1.39759 1.56107,1.39759c0,0 1.01764,-0.57856 3.82164,-0.90022c2.86724,-0.3289 4.59056,1.95771 4.59056,1.95771z" data-paper-data="{&quot;index&quot;:null}" fill="#ffbe7e" stroke="none" stroke-width="0" stroke-linecap="butt"/><path d="M250.07317,174.7035c0.0498,0.29889 -1.76128,0.32273 -1.76128,0.32273c0,0 -0.43569,-0.49286 -0.3655,-0.78807c0.07019,-0.29522 0.67889,-0.49368 0.67889,-0.49368c0,0 1.39809,0.66013 1.44789,0.95903z" data-paper-data="{&quot;index&quot;:null}" fill="#030000" stroke="none" stroke-width="0" stroke-linecap="butt"/><path d="M249.2368,168.3421z" data-paper-data="{&quot;index&quot;:null}" fill="#030000" stroke="none" stroke-width="0" stroke-linecap="butt"/><path d="M238.00074,174.98774c0,0 0.36532,-0.19875 0.85001,-0.22516c0.48469,-0.02641 1.23881,0.11133 1.23881,0.11133" data-paper-data="{&quot;index&quot;:null}" fill="none" stroke="#000000" stroke-width="0.5" stroke-linecap="round"/><path d="M244.08216,172.48146c0,0 -2.35555,0.77304 -3.29943,0.93031c-0.46487,0.07745 -2.28326,-1.48192 -2.58264,-2.51779c-0.14936,-0.51682 0.07628,-1.27999 0.04303,-1.47958c-0.06553,-0.39328 1.95674,-0.004 3.23288,0.77872c0.81569,0.50029 2.60616,2.28834 2.60616,2.28834z" data-paper-data="{&quot;index&quot;:null}" fill="#ffffff" stroke="none" stroke-width="0" stroke-linecap="butt"/><path d="M247.05136,171.83387c0.09786,0.5873 -0.10076,1.01864 -0.48006,1.08184c-0.3793,0.0632 -1.24614,0.03707 -1.34399,-0.55023c-0.09786,-0.5873 0.791,-1.61937 1.27765,-1.7612c0.48665,-0.14183 0.44856,0.64228 0.54641,1.22959z" data-paper-data="{&quot;index&quot;:null}" fill="#ffffff" stroke="none" stroke-width="0" stroke-linecap="butt"/><g data-paper-data="{&quot;index&quot;:null}" stroke="none" stroke-width="0" stroke-linecap="butt"><path d="M241.18304,173.74511c-0.33036,0.05504 -0.67867,-0.38353 -0.77798,-0.97957c-0.09931,-0.59605 0.08799,-1.12385 0.41835,-1.17889c0.33036,-0.05505 0.67867,0.38352 0.77799,0.97957c0.09931,0.59605 -0.08799,1.12386 -0.41835,1.1789z" fill="#7c5cbb"/><path d="M241.12503,173.26035c-0.19577,0.03262 -0.3809,-0.09964 -0.41352,-0.29541c-0.03262,-0.19577 0.09963,-0.38091 0.2954,-0.41353c0.19577,-0.03262 0.38092,0.09964 0.41353,0.29541c0.03262,0.19577 -0.09964,0.38091 -0.29541,0.41353z" fill="#000000"/><path d="M241.04383,172.77296c-0.19577,0.03262 -0.38091,-0.09964 -0.41353,-0.29541c-0.03262,-0.19577 0.09964,-0.38091 0.29541,-0.41353c0.19577,-0.03262 0.38091,0.09964 0.41353,0.29541c0.03262,0.19577 -0.09964,0.38091 -0.29541,0.41353z" fill="#ffffff"/></g><g data-paper-data="{&quot;index&quot;:null}" stroke="none" stroke-width="0" stroke-linecap="butt"><path d="M246.2848,173.6087c-0.33036,0.05504 -0.67867,-0.38353 -0.77799,-0.97957c-0.09931,-0.59605 0.08799,-1.12385 0.41835,-1.17889c0.33036,-0.05505 0.67867,0.38352 0.77799,0.97957c0.09931,0.59605 -0.08799,1.12386 -0.41835,1.1789z" fill="#7c5cbb"/><path d="M246.22685,173.12394c-0.19577,0.03262 -0.38091,-0.09964 -0.41352,-0.29541c-0.03262,-0.19577 0.09963,-0.38091 0.2954,-0.41353c0.19577,-0.03262 0.38091,0.09964 0.41353,0.29541c0.03262,0.19577 -0.09964,0.38091 -0.29541,0.41353z" fill="#000000"/><path d="M246.14564,172.63655c-0.19577,0.03262 -0.38091,-0.09964 -0.41352,-0.29541c-0.03262,-0.19577 0.09964,-0.38091 0.29541,-0.41353c0.19577,-0.03262 0.38091,0.09964 0.41353,0.29541c0.03262,0.19577 -0.09964,0.38091 -0.29541,0.41353z" fill="#ffffff"/></g><path d="M242.68862,179.7833c0,0.59855 0.02107,0.65026 -0.48769,0.65026c-0.50876,0 -1.30051,-2.05914 -1.30051,-2.05914c0,0 1.7882,0.81034 1.7882,1.40888z" fill="#f3f3f3" stroke="none" stroke-width="0" stroke-linecap="butt"/><path d="M243.74656,190.77888l-3.66903,-4.38123l1.02905,-1.76953l4.16632,4.65991l1.34539,3.21549c0,0 -0.3122,0.77549 -0.74991,0.96467c-0.43771,0.1892 -1.46067,-0.0092 -1.46067,-0.0092z" fill="#ff3200" stroke="none" stroke-width="NaN" stroke-linecap="butt"/><path d="M244.28986,196.87961c-0.53094,-0.19853 -1.36448,-2.71207 -1.05436,-3.06616c0.49945,-0.57024 1.29679,-1.00747 2.28657,-1.3015c0.98978,-0.29404 1.5773,-0.42694 2.36429,-0.08013c0.3418,0.15063 1.60894,2.05358 0.8718,3.29892c-0.14343,0.24232 -0.88584,0.95384 -1.78802,1.25985c-0.86202,0.29239 -1.86893,0.19242 -2.68029,-0.11097z" fill="#53b761" stroke="none" stroke-width="0" stroke-linecap="butt"/><path d="M247.95895,202.40383c-0.47021,0.05685 5.56161,-3.38233 6.25944,-5.56059c0.45889,-1.4324 0.24745,-4.74942 0.24745,-4.74942c0,0 1.1997,2.9557 0.32624,5.31213c-1.14032,3.07638 -6.36293,4.94102 -6.83314,4.99787z" fill="#646362" stroke="none" stroke-width="0" stroke-linecap="butt"/><path d="M251.55705,199.92509c0.0584,0.48308 -2.24521,1.70958 -2.275,1.72589c-1.18243,0.64739 -2.18985,1.34383 -2.78809,1.18283c-1.64066,-0.44153 -2.12657,-4.17045 -2.28187,-5.45493c-0.1553,-1.28447 2.4338,-2.01582 4.12638,-1.59452c1.6926,0.4213 3.06327,2.85625 3.21857,4.14072z" fill="#ff1c00" stroke="none" stroke-width="0" stroke-linecap="butt"/><path d="M249.52281,194.41941c-0.19297,-1.59604 0.72463,-3.58159 2.39536,-3.71337c1.11325,-0.0878 2.57604,0.68526 2.76901,2.2813c0.19297,1.59604 -0.14611,4.88113 -1.25474,5.01517c-1.10862,0.13404 -3.71668,-1.98707 -3.90964,-3.5831z" fill="#ff1c00" stroke="none" stroke-width="0" stroke-linecap="butt"/><path d="M251.23524,200.30488c-0.52563,0.06356 -2.36514,-2.57135 -2.54771,-4.08137c-0.18258,-1.51003 0.94368,-1.86987 1.46933,-1.93342c0.27319,-0.03303 1.32881,0.16616 2.26704,0.81784c0.86701,0.6022 1.49367,1.67875 1.58135,2.40397c0.06541,0.54096 -2.24437,2.72943 -2.77001,2.79299z" fill="#ded000" stroke="none" stroke-width="0" stroke-linecap="butt"/><path d="M249.12703,193.32501c0.21012,-0.4254 0.58904,-0.81273 0.58904,-0.81273c0,0 0.42162,-0.05027 0.68163,0.00024c0.26001,0.05051 0.78679,0.14401 0.78679,0.14401c0,0 0.00853,0.88521 -0.16259,1.26567c-0.17112,0.38045 -0.82363,1.80275 -0.82363,1.80275c0,0 -1.15115,0.46063 -1.41461,0.2973c-0.26346,-0.16332 -1.03713,-0.31466 -1.03713,-0.31466c0,0 1.17039,-1.9572 1.3805,-2.38258z" fill="#e0e0de" stroke="none" stroke-width="0" stroke-linecap="butt"/><path d="M242.06484,184.44444v-2.14398h3.9219c0,0 0.36605,0.58032 0.36605,0.99355c0,0.41323 -0.36605,1.15043 -0.36605,1.15043z" fill="#ff3200" stroke="none" stroke-width="0" stroke-linecap="butt"/><g stroke="none" stroke-width="0" stroke-linecap="butt"><path d="M249.30789,178.51882c-0.5553,-1.33985 0.27775,-3.3207 1.63424,-3.86837c0.90384,-0.36492 2.61435,0.08165 2.69902,0.42795c0.5553,1.33986 1.26754,5.14361 0.37897,5.54759c-0.88856,0.404 -4.71223,-2.10717 -4.71223,-2.10717z" fill="#ff1c00"/><path d="M254.09282,181.70859c0.39926,0.14346 0.32937,2.51283 0.33085,2.54365c0.05857,1.22325 0.22159,1.69526 -0.13022,2.12077c-0.96482,1.16691 -4.05995,0.71568 -5.12153,0.33422c-1.0616,-0.38146 -0.65408,-2.78827 0.31458,-4.00566c0.96866,-1.21739 3.38787,-1.37441 4.44946,-0.99296z" fill="#ff1c00"/><path d="M249.51348,182.89634c-1.24801,-0.44844 -0.47406,-1.91334 -0.32502,-2.36835c0.07746,-0.23649 0.52043,-0.97339 1.38386,-1.48269c0.79787,-0.47063 2.8625,-0.92777 3.46188,-0.71241c0.44709,0.16065 0.43485,3.33419 0.28582,3.78921c0,0 -3.55854,1.22269 -4.80653,0.77424z" fill="#ded000"/><path d="M254.3823,186.22801c-0.13333,0.395 0.02837,-4.1596 -0.30447,-7.17802c-0.33285,-3.01842 -0.9246,-4.21886 -0.9246,-4.21886c0,0 0.27727,-0.2756 0.49142,0.17993c0.42712,0.90854 0.77183,2.54188 0.90791,3.55072c0.20432,1.51466 0.18294,7.16664 0.04961,7.56164z" fill="#646362"/><path d="M248.85231,186.33711c-0.41003,0.39139 -3.03561,0.04651 -3.2192,-0.38691c-0.29567,-0.698 -0.34181,-1.60619 -0.17523,-2.62518c0.16658,-1.019 0.30294,-1.60573 0.95798,-2.16299c0.2845,-0.24203 2.02651,-0.71032 2.82627,0.49575c0.15561,0.23468 0.26341,1.3175 0.14577,2.26288c-0.1124,0.90329 0.091,1.81834 -0.53558,2.41646z" fill="#53b761"/><path d="M249.09326,180.96424c0,0 -0.13349,-1.77541 -0.09512,-2.55279c0.03838,-0.77739 0.24845,-1.62002 0.24845,-1.62002c0,0 0.53184,-0.37692 0.79331,-0.48934c0.26147,-0.1124 0.91786,0.42548 0.91786,0.42548c0,0 -0.10731,1.14631 -0.12594,1.82951c-0.01864,0.6832 -0.55667,3.25827 -0.55667,3.25827c0,0 -0.45311,-0.17201 -0.69971,-0.33162c-0.2466,-0.1596 -0.48217,-0.51947 -0.48217,-0.51947z" fill="#e0e0de"/></g><g stroke-linecap="butt"><path d="M245.54312,180.22987c0.88056,-0.16027 2.66505,0.99645 2.66505,0.99645c0,0 1.0859,1.51295 0.50652,2.89257c-0.57941,1.37963 -2.13282,2.2825 -3.29172,1.79581c-0.41193,-0.173 -1.45962,-0.844 -1.77752,-1.77492c-0.31792,-0.9309 0.05931,-1.38515 0.43441,-2.15802c0.37512,-0.77287 0.58269,-1.59161 1.46325,-1.75188z" fill="#e8e6e6" stroke="none" stroke-width="0"/><path d="M237.85974,177.11965l7.07281,3.71012c0,0 0.44395,0.92313 0.07362,1.61105c-0.47698,0.88599 -1.13527,0.68292 -1.13527,0.68292l-6.52018,-4.02523z" fill="#ff3300" stroke="none" stroke-width="0"/><path d="M251.77835,179.79492c0.73847,-0.07929 1.16418,0.56588 2.09699,0.88301c0.85254,0.28985 2.11439,0.01741 2.17618,0.59287c0.02631,0.24512 -0.5486,1.18608 -0.5486,1.18608c0,0 -1.66115,-0.24289 -1.20671,0.16808c0.22114,0.19999 0.8742,0.73461 1.53456,1.02023c0.66036,0.28561 0.59772,-0.42312 1.02208,0.08552c0.2961,0.3549 0.70528,1.08448 0.67857,1.22174c-0.09256,0.47566 -2.10452,2.44578 -2.21839,2.85676c-0.3019,1.08959 -0.49269,2.03303 -1.5343,2.17901c-5.12682,0.71861 -6.34187,-3.95023 -6.82889,-3.89795c-1.41342,0.15176 1.40352,-1.9019 1.27412,-3.10701c-0.12939,-1.20512 2.14094,-3.03659 3.55436,-3.18837z" fill="#e8e6e6" stroke="none" stroke-width="0"/><path d="M254.85533,184.22148c0.6791,0.29518 1.29084,1.64753 1.29084,1.64753c0,0 -1.46692,0.61506 -2.14602,0.31988c-0.6791,-0.29518 -1.0382,-0.97489 -0.80205,-1.51819c0.23614,-0.54327 0.97811,-0.74441 1.65723,-0.44921z" fill="#e8e6e6" stroke="#999797" stroke-width="0.5"/><path d="M252.93387,187.22433c0.57654,0.46466 0.80788,1.93078 0.80788,1.93078c0,0 -1.5775,0.20416 -2.15404,-0.26053c-0.57654,-0.46466 -0.74258,-1.21524 -0.37085,-1.67648c0.37173,-0.46123 1.14046,-0.45845 1.717,0.0062z" fill="#e8e6e6" stroke="#999797" stroke-width="0.5"/></g><path d="M239.5895,191.0454l-4.02973,1.22192l-3.14644,7.41008l1.66435,-10.48612l2.76271,-1.68481l1.72945,-5.81351l2.08523,1.64686l1.77986,1.00855z" fill="#ff3200" stroke="none" stroke-width="0" stroke-linecap="butt"/></g></g></svg>