<svg version="1.1" xmlns="http://www.w3.org/2000/svg" xmlns:xlink="http://www.w3.org/1999/xlink" width="31.37867" height="22.1874" viewBox="0,0,31.37867,22.1874"><g transform="translate(-224.32166,-168.04523)"><g data-paper-data="{&quot;isPaintingLayer&quot;:true}" fill-rule="nonzero" stroke-width="0" stroke-linecap="butt" stroke-linejoin="miter" stroke-miterlimit="10" stroke-dasharray="" stroke-dashoffset="0" style="mix-blend-mode: normal"><g stroke="none"><path d="M239.80788,189.77701c-0.19448,-0.06689 -0.59693,-0.45001 -0.74325,-0.8821c-0.14795,-0.4369 -0.08005,-0.95902 -0.01751,-1.21726c0.72818,-3.00689 1.56975,-2.76983 1.56975,-2.76983c0,0 -1.23022,3.21041 -0.89343,3.88967c0.37745,0.76127 3.04519,0.3948 3.04519,0.3948c0,0 -0.05455,0.64076 -0.46317,0.79087c-0.5591,0.2054 -1.37847,0.17875 -2.49757,-0.20616z" fill="#686868"/><path d="M239.41632,187.48191c0.05756,-1.00218 1.02208,-2.70873 1.47289,-2.70324c0.31354,0.00382 1.44144,1.55988 1.95902,2.4179c0.19742,0.32729 0.18012,0.55147 0.18012,0.55147c0,0 -0.00986,1.05214 -0.10414,1.23923c-0.38776,0.76954 -0.90083,0.8063 -2.84907,0.26009c-0.72026,-0.20193 -0.68249,-1.35288 -0.65879,-1.76545z" fill="#ef4019"/><path d="M243.38496,185.6541c0.48401,0.16389 -0.21887,0.72098 -0.21887,0.72098l-0.1447,1.42152c0,0 -0.10139,-0.47551 -0.55068,-0.61949c-0.32874,-0.10535 -1.2778,-0.14242 -1.68237,-0.14731c-0.15967,-0.01235 -0.51718,0.49826 -0.78599,0.41523c-0.38665,-0.59528 0.88304,-2.6605 0.88304,-2.6605c0,0 0.09917,-0.0181 0.15342,0.06923c0.11826,0.19038 0.28189,0.58714 0.56549,0.6859c0.70782,0.2465 1.69963,0.08699 1.78066,0.11444z" fill="#ffc500"/><path d="M241.04025,184.97192c0.00754,-0.61873 0.56748,-1.11358 1.25066,-1.10526c0.68319,0.00832 1.23091,0.51665 1.22337,1.13539c-0.00754,0.61873 -0.56748,1.11358 -1.25066,1.10526c-0.27018,-0.00329 -0.95019,-0.32348 -0.95019,-0.32348l-0.58214,0.16124l0.2437,-0.64936c0,0 0.06419,-0.23624 0.06526,-0.32378z" fill="#ffffff"/><path d="M241.74087,184.94544c0.0038,-0.31243 0.25768,-0.56263 0.56705,-0.55887c0.30937,0.00377 0.55707,0.26009 0.55327,0.57251c-0.0038,0.31243 -0.25768,0.56263 -0.56705,0.55887c-0.30937,-0.00377 -0.55707,-0.26009 -0.55327,-0.57251z" fill="#f5cda8"/></g><path d="M239.08731,180.6013c-0.02484,0.21917 0.00424,0.69064 -0.00243,1.26411c-0.00667,0.57348 -0.04763,1.69142 -0.04763,1.69142c0,0 -0.45522,0.62574 -1.01191,-0.39477c-0.19245,-0.35279 0.01706,-2.58173 0.02797,-2.67794c0.06969,-0.61499 0.25007,-1.1281 0.64318,-1.05495c0.43097,0.08018 0.46051,0.55713 0.39082,1.17212z" data-paper-data="{&quot;index&quot;:null}" fill="#fde1c0" stroke="none"/><path d="M237.33463,184.0846c-0.20124,-0.16879 -0.13114,-0.39245 -0.09103,-0.60028c0.0401,-0.20783 0.26505,-0.61444 0.26505,-0.61444c0,0 0.5277,-0.22511 0.95232,-0.02741c0.61531,0.28649 1.04698,0.8533 1.04698,0.8533c0,0 0.11299,0.5544 -0.21925,0.78326c-0.20917,0.14409 -1.35661,0.10667 -1.95407,-0.39443z" data-paper-data="{&quot;index&quot;:null}" fill="#fefefe" stroke="none"/><g stroke="none"><path d="M237.69085,183.89672c0.07567,-0.25582 0.89411,0.21796 1.30544,0.33964c0.41133,0.12166 0.6357,0.18502 0.57558,0.38827c-0.07048,0.23829 -0.57552,0.20117 -0.99383,0.10625c-0.82994,-0.18831 -0.94731,-0.63089 -0.88719,-0.83414z" fill="#000000"/><path d="M238.80782,186.20908c0,0 -0.3434,0.18114 -0.61212,0.1043c-0.39606,-0.11323 -0.38837,-0.36212 -0.38837,-0.36212c0,0 -0.29287,0.14254 -0.59805,0.02193c-0.2358,-0.09321 -0.35285,-0.36313 -0.35285,-0.36313c0,0 -1.31604,0.05626 -1.05487,-0.82218c0.21225,-0.71391 0.79393,-1.20232 0.94063,-1.32424c0.1467,-0.12192 0.35604,-0.05599 0.5227,0.03551c0.16665,0.0915 0.27471,0.40231 0.27471,0.40231c0,0 0.33004,0.03717 0.49297,0.13142c0.16293,0.09425 0.33466,0.34731 0.33466,0.34731c0,0 0.29188,-0.09022 0.41978,-0.06921c0.1279,0.02101 0.27673,0.18364 0.27673,0.18364c0,0 0.20606,-0.20674 0.3683,-0.22402c0.16223,-0.01728 0.39284,0.14297 0.39284,0.14297c0,0 0.19864,0.69846 -0.13667,1.49386c-0.29478,0.69925 -0.88038,0.30164 -0.88038,0.30164z" fill="#fefefe"/><path d="M236.67568,183.46304c0.07567,-0.25582 0.72664,-0.07094 1.13797,0.05073c0.41133,0.12166 0.80317,0.47392 0.74306,0.67716c-0.07048,0.23829 -0.57552,0.20117 -0.99383,0.10625c-0.82994,-0.18831 -0.94731,-0.63089 -0.88719,-0.83414z" fill="#fefefe"/></g><path d="M236.02727,178.8812c0,0 -0.85136,1.26194 -1.11667,1.2108c-0.32294,-0.06225 -0.37944,-0.63806 -0.43611,-0.91707c-0.07467,-0.36757 -0.17434,-1.23837 -0.17434,-1.23837c0,0 0.44971,0.3332 0.75903,0.5202c0.30932,0.18699 0.96809,0.42443 0.96809,0.42443z" data-paper-data="{&quot;index&quot;:null}" fill="#ebc19b" stroke="none"/><path d="M233.58511,174.57178c0,-3.59741 2.33287,-4.81667 5.20903,-4.88077c3.23761,-0.07215 5.24284,2.1854 5.20903,4.88077c-0.03607,2.87594 -2.29609,4.84469 -5.20903,4.88077c-2.87665,0.03563 -5.20903,-1.49979 -5.20903,-4.88077z" fill="#fedeb5" stroke="none"/><path d="M235.57852,177.14936c0,0 -0.18902,0.04883 -0.40311,0.17841c-0.18603,0.11259 -0.27512,0.27527 -0.5073,0.29544c-0.23219,0.02017 -0.47748,-0.2099 -0.47748,-0.2099c0,0 -0.3932,-0.80087 -0.49121,-1.58465c-0.4019,-2.45397 0.39538,-3.621 0.90021,-3.78671c0.62524,-0.20523 0.54785,0.56083 0.73125,2.76909c0.13553,1.6318 0.24763,2.33832 0.24763,2.33832z" data-paper-data="{&quot;index&quot;:null}" fill="#ea750b" stroke="none"/><path d="M237.67112,174.03142c0.62205,-1.60697 1.92124,-2.46742 2.92272,-2.10847c1.07149,0.38405 1.72423,1.62304 0.93462,3.76377c-0.287,0.7781 -1.18589,1.86349 -1.87639,2.15545c-1.20484,0.50943 -2.31612,-0.1528 -2.31612,-0.1528c0,0 -0.28687,-2.05099 0.33517,-3.65795z" fill="#ea750b" stroke="none"/><path d="M237.39342,175.17053c0.30048,-1.34302 1.31023,-2.28491 2.09312,-2.04978c0.78289,0.23514 1.11508,1.33006 0.83699,2.8652c-0.19211,1.06052 -0.80141,1.76892 -0.80141,1.76892c0,0 -0.37702,0.31379 -1.12458,0.24478c-0.96206,-0.08881 -1.06323,-0.33952 -1.06323,-0.33952c0,0 -0.26939,-1.02134 0.0591,-2.48961z" fill="#ffffff" stroke="none"/><g stroke="none"><path d="M237.2666,176.17981c0.05851,-0.90503 0.37154,-1.62539 0.69918,-1.60898c0.32764,0.01642 0.54581,0.76339 0.48729,1.66842c-0.05851,0.90503 -0.37154,1.62539 -0.69918,1.60898c-0.32764,-0.01642 -0.54581,-0.76339 -0.48729,-1.66842z" fill="#a06803"/><path d="M237.43697,176.27541c0.0316,-0.53276 0.20067,-0.95682 0.37764,-0.94716c0.17696,0.00966 0.2948,0.44938 0.2632,0.98214c-0.0316,0.53276 -0.20067,0.95682 -0.37764,0.94716c-0.17696,-0.00966 -0.2948,-0.44938 -0.2632,-0.98214z" fill="#000000"/><path d="M237.71294,175.11175c0.11602,0.00562 0.19327,0.26143 0.17255,0.57136c-0.02072,0.30994 -0.13156,0.55663 -0.24758,0.55101c-0.11602,-0.00562 -0.19327,-0.26143 -0.17255,-0.57136c0.02072,-0.30994 0.13156,-0.55663 0.24758,-0.55101z" fill="#ffffff"/></g><path d="M235.42052,175.21496c0.10392,1.32311 0.13392,1.95459 0.13392,1.95459c0,0 -0.14876,0.07956 -0.30921,0.16265c-0.16045,0.0831 -0.39159,0.25388 -0.39159,0.25388c0,0 -0.35988,-0.8053 -0.44466,-1.72144c-0.12272,-1.32615 0.02514,-2.26987 0.36936,-2.47513c0.38654,-0.23049 0.55075,0.6613 0.64218,1.82545z" data-paper-data="{&quot;index&quot;:null}" fill="#ffffff" stroke="none"/><g stroke="none"><path d="M234.86233,175.89651c-0.0191,-0.7467 0.14803,-1.35724 0.3733,-1.36367c0.22526,-0.00643 0.42336,0.59368 0.44246,1.34039c0.0191,0.7467 -0.14803,1.35724 -0.3733,1.36367c-0.22526,0.00643 -0.42336,-0.59368 -0.44246,-1.34039z" fill="#a06803"/><path d="M235.18168,175.16398c0.12172,-0.00281 0.23109,0.35109 0.24427,0.79048c0.01319,0.43939 -0.0748,0.79786 -0.19652,0.80069c-0.12172,0.00282 -0.23109,-0.35109 -0.24427,-0.79048c-0.01319,-0.43939 0.0748,-0.79786 0.19652,-0.80068z" fill="#000000"/><path d="M235.09796,174.99237c0.07976,-0.00243 0.14933,0.20292 0.1554,0.45868c0.00607,0.25575 -0.05365,0.46506 -0.13341,0.46749c-0.07976,0.00243 -0.14933,-0.20292 -0.1554,-0.45868c-0.00607,-0.25575 0.05365,-0.46506 0.13341,-0.46749z" fill="#ffffff"/></g><path d="M237.3662,175.16814c0,0 0.66567,-2.28722 1.92739,-2.24403c1.40985,0.04827 1.23687,2.13625 1.23687,2.13625c0,0 0.89083,0.0728 1.36641,-0.01595c0.46783,-0.08731 1.4642,-0.5123 1.4642,-0.5123c0,0 -0.52109,0.66835 -1.72006,0.85102c-0.63378,0.09656 -1.26469,-0.0164 -1.26469,-0.0164c0,0 0.1008,-0.69591 -0.28502,-1.47054c-0.22407,-0.44987 -0.57156,-0.49039 -0.77489,-0.51662c-1.0501,-0.13545 -1.95022,1.78858 -1.95022,1.78858z" fill="#000000" stroke="none"/><path d="M234.90885,173.59323c-0.4527,0.01858 -0.53344,1.37668 -0.53344,1.37668c0,0 -0.8306,-0.03874 -1.48007,-0.44145c-0.66544,-0.41263 -1.039,-1.20713 -1.039,-1.20713c0,0 0.53645,0.81845 1.48878,1.20418c0.87745,0.3554 0.89498,0.17875 0.89498,0.17875c0,0 0.1467,-1.47852 0.63971,-1.52679c0.44121,-0.0432 0.43682,1.02998 0.43682,1.02998c0,0 -0.14403,-0.62504 -0.40779,-0.61421z" fill="#000000" stroke="none"/><path d="M235.24674,173.42904l2.46872,0.50325c0,0 -0.26799,0.50661 -0.4093,1.74671c-0.14578,1.27926 0.02041,1.92339 0.02041,1.92339c0,0 -0.74999,-0.37664 -1.04501,-0.45607c-0.29788,-0.0802 -0.72734,0.01911 -0.72734,0.01911z" fill="#fedeb5" stroke="none"/><path d="M249.85726,183.18481c0.03095,0.05777 -0.01261,0.37391 0.11192,0.6198c0.13055,0.25776 0.32957,0.26949 0.5206,0.43178c0.177,0.15038 1.83874,2.57048 1.83483,3.45591c-0.00107,0.24163 0.03426,0.5573 0.00489,0.63343c-0.31545,0.81755 -1.53672,1.81732 -2.26064,1.89466c-0.84019,0.08976 -1.02663,-0.34347 -1.02663,-0.34347c0,0 2.56053,-0.97647 2.5709,-2.31755c0.01048,-1.35516 -3.02202,-5.20418 -3.02202,-5.20418c0,0 0.65248,-0.31542 1.26612,0.82961z" fill="#686868" stroke="none"/><path d="M247.7447,188.67796c-0.06108,-0.27714 -0.08554,-0.1887 -0.03521,-0.68615c0.05628,-0.55629 0.8569,-2.33189 0.65707,-3.22488c-0.29703,-1.3273 -1.65439,-1.74758 -1.65439,-1.74758c0,0 0.19079,-0.42558 0.84653,-0.63133c0.52951,-0.16614 1.05846,-0.0562 1.05846,-0.0562c0,0 2.83716,3.51516 3.02362,5.17244c0.13223,1.17526 -1.99526,2.365 -2.52877,2.37449c-0.53351,0.0095 -0.97511,-0.49534 -1.36729,-1.20079z" fill="#ef4019" stroke="none"/><path d="M247.71515,188.02624c0,0 -0.01608,-0.67535 -0.07492,-0.91194c-0.05488,-0.22064 -0.26707,-0.46309 -0.26707,-0.46309c0,0 0.46628,-1.14473 0.50807,-1.69193c0.04042,-0.52935 -0.2613,-1.53951 -0.2613,-1.53951c0,0 0.67325,-0.30957 0.86459,-0.32844c0.35921,-0.03542 2.08668,2.56993 2.23578,3.42092c0.06345,0.36216 -0.45695,0.20921 -0.80293,0.14066c-0.33412,-0.0662 -0.72334,0.05557 -0.8542,0.14094c-0.65616,0.42807 -1.34801,1.23241 -1.34801,1.23241z" fill="#ffc500" stroke="none"/><path d="M248.30337,184.50741c0.26019,0.73002 -0.19981,1.26421 -0.84769,1.42797c-0.84583,0.21377 -1.34358,0.32461 -1.46935,-0.49771c-0.02386,-0.15598 -1.01876,-2.20434 0.75083,-2.41048c0.20027,-0.02333 1.12119,0.23158 1.56622,1.48023z" fill="#ffffff" stroke="none"/><path d="M246.10806,184.0453c0,0 0.15341,-0.17852 0.37479,-0.23849c0.29231,-0.07919 0.70253,0.02611 0.81607,0.56896c0.212,1.01354 -1.14889,1.10527 -1.33708,1.0511c-1.03455,-0.29773 -1.97434,-1.71241 -1.97434,-1.71241l0.85434,-0.84104c0,0 0.41486,0.40885 0.6472,0.60573c0.21813,0.18485 0.61902,0.56614 0.61902,0.56614z" fill="#fedeb5" stroke="none"/><path d="M247.16283,185.85166c0.34759,-0.2223 0.73321,-1.0471 0.88378,-1.05394c0.06295,-0.00286 0.29016,0.02922 0.39266,-0.02854c0.1949,-0.10983 0.27467,-0.34283 0.27467,-0.34283c0,0 0.02878,0.84787 -0.19935,1.24411c-0.43332,0.75262 -1.16549,0.96531 -1.16549,0.96531c0,0 -1.04694,-0.0467 -1.37196,-0.4583c-0.16279,-0.20614 0.12692,-0.36885 0.12692,-0.36885c0,0 0.63401,0.3147 1.05878,0.04305z" fill="#ffc500" stroke="none"/><path d="M241.98065,179.11345c1.76636,0.03432 4.26475,0.60278 4.26475,0.60278c0,0 0.30469,1.70434 -0.4712,3.06191c-0.82062,1.43585 -1.89752,2.30303 -3.96505,2.21376c-0.76617,-0.01592 -1.95963,-0.237 -2.70472,-1.30611c-0.72425,-1.03922 0.00714,-4.25488 0.00714,-4.25488c0,0 1.28409,-0.34824 2.86906,-0.31744z" fill="#ef4019" stroke="none"/><path d="M240.16368,180.71036c-0.37852,0.04639 -0.54908,-1.25523 -0.54908,-1.25523l0.99234,-0.19109c0,0 0.14466,1.37426 -0.44326,1.44631z" fill="#08abe8" stroke="none"/><path d="M239.06002,182.29174c-0.04194,-0.78665 0.77998,-1.9107 0.77998,-1.9107l0.21731,0.29675c0,0 -0.21219,0.6587 -0.3476,1.26622c-0.12487,0.56023 -0.17066,1.07269 -0.23928,1.08192c-0.14303,0.01925 -0.39811,-0.5036 -0.41041,-0.73418z" fill="#08abe8" stroke="none"/><path d="M240.32686,180.63832l0.19168,-0.29745c0,0 0.7023,0.88272 0.73641,1.85046c0.00588,0.16679 -0.1192,0.5996 -0.4549,0.71639c-0.06314,0.02197 -0.11648,-0.48852 -0.21849,-1.00961c-0.11992,-0.61264 -0.2547,-1.25979 -0.2547,-1.25979z" fill="#08abe8" stroke="none"/><path d="M240.12886,179.29965c0,0 0.15609,-0.13127 0.45459,-0.22604c0.2985,-0.09476 0.52828,-0.17179 0.52828,-0.17179l-0.0234,1.82533z" fill="#ffffff" stroke="none"/><path d="M239.17827,179.31205c0,0 0.19987,-0.04137 0.47493,-0.00598c0.27506,0.03538 0.39132,0.05605 0.39132,0.05605l-0.60344,1.46017z" fill="#ffffff" stroke="none"/><path d="M234.75562,177.6087c0.19332,0.00696 0.63335,-0.55672 1.2083,-0.49598c0.78565,0.083 1.5277,0.84608 2.52161,0.8728c1.20091,0.03228 1.92777,-1.07152 2.74346,-0.58837c0.92949,0.55056 -0.10703,2.29042 -2.71974,2.12909c-2.48723,-0.15358 -3.6689,-0.97764 -4.19997,-1.58478c-0.14798,-0.16918 -0.1445,-0.57137 -0.1445,-0.57137c0,0 0.38119,0.23107 0.59084,0.23861z" fill="#ffffff" stroke="none"/><g stroke="none"><path d="M235.04149,177.51362c-0.03646,-0.15044 0.18072,-0.28068 0.40365,-0.28068c0.22293,0 0.45123,0.13355 0.40365,0.28068c-0.04105,0.12695 -0.13967,0.26664 -0.40365,0.26664c-0.2503,0 -0.37628,-0.15373 -0.40365,-0.26664z" fill="#6b4209"/><path d="M235.19201,177.38346c0,-0.04534 0.0827,-0.0821 0.18472,-0.0821c0.10202,0 0.18472,0.03676 0.18472,0.0821c0,0.04534 -0.0827,0.0821 -0.18472,0.0821c-0.10202,0 -0.18472,-0.03676 -0.18472,-0.0821z" fill="#ffffff"/></g><path d="M237.72338,178.86123c0,0 0.18258,0.05473 0.47891,0.05473c0.30545,0 0.65679,-0.06842 0.65679,-0.06842c0,0 -0.27798,0.17497 -0.6431,0.19156c-0.36513,0.0166 -0.49259,-0.17788 -0.49259,-0.17788z" fill="#000000" stroke="none"/><path d="M236.23007,171.22957c0.19609,-0.95103 0.39066,-1.21544 0.39066,-1.21544c0,0 0.85161,-0.27534 1.72764,-0.3181c1.27739,-0.06235 1.91534,0.13463 1.91534,0.13463c0,0 -1.14429,0.43186 -1.88016,0.91637c-0.39817,0.26216 -0.76187,0.44409 -1.05604,0.71191c-0.47974,0.43677 -0.86984,0.75867 -0.96791,0.75088c-0.18323,-0.01456 -0.21814,-0.55048 -0.12953,-0.98024z" fill="#ea750b" stroke="none"/><path d="M224.32168,171.08779c0,-0.38602 0.97582,-1.15091 2.04647,-1.4771c0.46514,-0.14171 2.89338,-1.54434 5.00036,-1.56529c1.12965,-0.01123 2.12612,0.56033 2.12612,0.56033c0,0 -1.71636,1.50779 -3.0658,1.92849c-0.62573,0.19508 -0.60359,0.24228 -1.08146,0.32357c-0.47787,0.08129 -1.13533,0.23485 -2.2011,0.23485c-1.3295,0 -2.82461,0.38116 -2.82461,-0.00486z" fill="#ea750b" stroke="none"/><path d="M232.58882,169.22643c0.63829,-0.29796 0.87648,-0.62575 0.87648,-0.62575c0,0 0.54795,0.20764 1.54906,0.81159c0.73266,0.44198 1.35854,0.7958 1.35854,0.7958l-1.79398,1.08133c0,0 -1.3065,-0.60011 -1.84351,-0.7812c-0.45266,-0.15266 -1.40148,-0.40913 -1.40148,-0.40913c0,0 0.71709,-0.62159 1.25489,-0.87264z" fill="#fedeb5" stroke="none"/><path d="M231.62899,170.12135c0,0 0.40414,-0.24993 0.60456,-0.35046c0.15928,-0.07988 0.68655,0.1133 1.31608,0.46036c0.57766,0.31846 1.45641,0.78464 1.45641,0.78464l-0.3959,0.20658c0,0 -0.98007,-0.54663 -1.72308,-0.77889c-0.69492,-0.21723 -1.25808,-0.32223 -1.25808,-0.32223z" fill="#ebc0cd" stroke="none"/><path d="M243.02621,171.63543l-2.66429,-1.07866c0,0 2.09983,-0.95284 3.04222,-1.34843c0.74063,-0.31089 2.17299,-0.8688 2.17299,-0.8688l-0.07044,0.29573c0,0 0.58428,0.20455 1.05308,0.42333c0.3942,0.18396 0.67353,0.38149 0.78352,0.4412c0.69638,0.37811 0.50134,0.84125 0.50134,0.84125c0,0 -1.52663,0.34149 -2.32579,0.50861c-1.98043,0.41413 -2.49261,0.78578 -2.49261,0.78578z" fill="#fedeb5" stroke="none"/><path d="M248.49897,170.43357c-1.25578,-0.36114 -1.03623,-0.41859 -1.39894,-0.69769c-0.91597,-0.70479 -1.99002,-1.22403 -1.99002,-1.22403c0,0 0.24115,-0.07003 0.43924,-0.16533c0.28394,-0.13661 0.80056,-0.23414 1.17365,-0.24986c1.63048,-0.06869 4.8848,0.93253 5.9924,1.15423c0.4093,0.11706 2.93125,0.49624 2.98179,0.92299c0.10369,0.87548 -2.30772,0.72086 -3.95126,0.89806c-1.64355,0.1772 -1.99107,-0.27722 -3.24685,-0.63837z" data-paper-data="{&quot;index&quot;:null}" fill="#ea750b" stroke="none"/><path d="M242.99691,171.50267l-0.47045,-0.34766c0,0 3.56158,-1.2648 3.92595,-1.17857c0.36436,0.08623 1.09585,0.29853 1.09585,0.29853c0,0 -1.3594,0.2567 -2.59313,0.57272c-1.13693,0.29122 -1.95822,0.65499 -1.95822,0.65499z" data-paper-data="{&quot;index&quot;:null}" fill="#ebc0cd" stroke="none"/><path d="M243.95147,177.44685c0,0 0.87328,0.27251 1.20366,1.1772c0.40434,1.10725 -0.21081,2.12954 -1.28302,2.1031c-0.35784,-0.00883 -1.01604,-0.27092 -1.1772,-0.93911c-0.15279,-0.63348 -0.05961,-0.95648 0.18441,-1.31928c0.27293,-0.4058 1.00755,-0.4747 1.00755,-0.4747z" fill="#ebc19b" stroke="none"/><path d="M241.0283,178.92827c0,0 0.85949,-0.50418 1.24334,-0.84652c0.38385,-0.34235 0.92589,-0.92589 0.92589,-0.92589c0,0 0.088,1.2441 0.07955,1.77778c-0.00642,0.40508 0.06493,1.2253 -0.37054,1.3967c-0.35776,0.14082 -1.87823,-1.40206 -1.87823,-1.40206z" fill="#fedeb5" stroke="none"/><path d="M241.14753,179.9534c-0.1307,-0.65912 -0.14163,-1.17781 0.31744,-1.30331c0.41875,-0.11448 0.66005,0.42444 0.79075,1.08355c0.02044,0.10311 0.44757,2.49586 0.27107,2.89486c-0.51054,1.15418 -1.05933,0.51811 -1.05933,0.51811c0,0 -0.14484,-1.20586 -0.20363,-1.82573c-0.05879,-0.61987 -0.06972,-1.13258 -0.1163,-1.36749z" fill="#fde1c0" stroke="none"/><path d="M240.70807,187.02403l-0.5994,-0.54076c0,0 -0.13683,-1.5275 1.84958,-2.49242c1.28425,-0.62385 2.15588,1.05411 2.15588,1.05411c0,0 0.47252,-0.45669 0.60922,-0.07645c0.69706,1.93896 -0.29938,2.05443 -0.29938,2.05443c0,0 -0.13219,0.25627 -0.31632,0.33728c-0.18413,0.081 -0.57574,0.05516 -0.57574,0.05516c0,0 -0.18993,0.25798 -0.40404,0.32755c-0.21412,0.06956 -0.56678,-0.01214 -0.56678,-0.01214c0,0 -0.14237,0.32986 -0.38593,0.46912c-0.73333,0.41928 -1.46708,-1.17589 -1.46708,-1.17589z" fill="#ffffff" stroke="#000000"/><path d="M243.4053,184.01555c-0.67055,0.51679 -1.91691,0.50592 -2.13735,0.34025c-0.35013,-0.26315 -0.20272,-0.85946 -0.20272,-0.85946c0,0 0.49366,-0.5955 1.17395,-0.87869c0.46947,-0.19542 1.0318,0.07243 1.0318,0.07243c0,0 0.22579,0.45116 0.25997,0.67839c0.03419,0.22724 0.1002,0.473 -0.12567,0.64707z" fill="#fefefe" stroke="none"/><path d="M240.78309,185.8378c0,0 -0.01349,0.33292 -0.03386,0.55292c-0.02037,0.22 -0.03948,0.66285 -0.03948,0.66285c0,0 -0.06462,-0.31702 -0.07852,-0.54952c-0.01798,-0.30079 0.15186,-0.66625 0.15186,-0.66625z" fill="#000000" stroke="none"/><path d="M244.11197,186.23877c0,0 -0.01046,-0.38796 -0.01207,-0.6089c-0.00163,-0.22094 0.00329,-0.58737 0.00329,-0.58737c0,0 0.05564,0.29284 0.09261,0.5228c0.04781,0.29751 -0.08381,0.67346 -0.08381,0.67346z" data-paper-data="{&quot;index&quot;:null}" fill="#000000" stroke="none"/><path d="M242.77651,183.62409c-0.25375,-0.07868 -0.36505,-0.25277 -0.30721,-0.50314c0.03261,-0.14115 0.13648,-0.28435 0.39024,-0.20568c0.25375,0.07868 0.38979,0.37579 0.36137,0.51785c-0.02841,0.14205 -0.19063,0.26965 -0.44438,0.19097z" fill="#f7e300" stroke="none"/></g></g></svg>