<svg version="1.1" xmlns="http://www.w3.org/2000/svg" xmlns:xlink="http://www.w3.org/1999/xlink" width="35.12943" height="40.46196" viewBox="0,0,35.12943,40.46196"><g transform="translate(-230.09308,-162.99502)"><g data-paper-data="{&quot;isPaintingLayer&quot;:true}" fill-rule="nonzero" stroke-miterlimit="10" stroke-dasharray="" stroke-dashoffset="0" style="mix-blend-mode: normal"><path d="M241.25822,181.90887c0,0 -3.62859,1.57217 -4.40693,1.3033c-0.84578,-0.29218 -1.97432,-2.02002 -1.97432,-2.02002l2.27099,1.27722l2.88052,-1.07211l1.22971,0.51163z" data-paper-data="{&quot;index&quot;:null}" fill="#f79db4" stroke="none" stroke-width="0" stroke-linecap="butt" stroke-linejoin="miter"/><g data-paper-data="{&quot;index&quot;:null}" stroke-width="0" stroke-linecap="butt" stroke-linejoin="miter"><g data-paper-data="{&quot;index&quot;:null}"><path d="M256.23802,171.51806c-0.35919,1.00098 -1.4648,1.52017 -2.46946,1.15967c-1.00463,-0.36049 -1.5279,-1.46419 -1.16872,-2.46516c0.35919,-1.00096 1.46478,-1.52017 2.46944,-1.15967c1.00465,0.36049 1.52793,1.4642 1.16875,2.46517z" fill="#e0cb17" stroke="none"/><path d="M253.86931,172.60676c-0.62069,-0.22272 -0.94395,-0.90459 -0.72205,-1.52298c0.2219,-0.61841 0.90493,-0.93917 1.52562,-0.71644c0.62069,0.22272 0.94395,0.90459 0.72205,1.52298c-0.22189,0.6184 -0.90493,0.93917 -1.52562,0.71644z" fill="#e0cb17" stroke="#000000"/><path d="M251.65492,177.31516c0,0 -0.58872,-2.30156 0.19301,-3.45757c0.75289,-1.11334 0.96568,-1.25267 0.96568,-1.25267l1.9746,0.72435c0,0 0.36917,1.29825 -0.30404,2.15467c-0.67322,0.85642 -2.82925,1.83122 -2.82925,1.83122z" fill="#e8edf4" stroke="#000000"/><path d="M253.6936,173.17568c-0.54896,-0.19974 -1.10941,-0.77659 -1.10941,-0.77659l0.43121,-0.36575c0,0 0.48837,0.52866 0.92451,0.6578c0.43617,0.12915 1.16433,-0.03928 1.16433,-0.03928l-0.02513,0.71495c0,0 -0.90506,-0.01628 -1.3855,-0.1911z" fill="#dbded5" stroke="#000000"/></g><g data-paper-data="{&quot;index&quot;:null}" stroke="none"><path d="M246.72491,174.6613c0.18936,0.06796 0.22854,0.44166 0.0875,0.83472c-0.14104,0.39305 -0.40889,0.6566 -0.59825,0.58865c-0.18936,-0.06796 -0.22853,-0.44165 -0.08749,-0.83471c0.14105,-0.39304 0.40887,-0.6566 0.59823,-0.58865z" fill="#000000"/><path d="M243.62047,179.15163c0.19724,0.07078 0.20333,2.35438 0.20333,2.35438c0,0 -1.10085,-0.04156 -1.2981,-0.11235c-0.19723,-0.07078 -0.12076,-1.32622 -0.05869,-1.49916c0.06205,-0.17294 0.95622,-0.81366 1.15347,-0.74287z" fill="#807d5a"/><path d="M246.06891,175.78868l0.0103,-0.32835l6.57299,-3.90728l0.07273,0.18676z" fill="#6e6e73"/><path d="M251.95811,171.83955l0.20532,0.41643l-1.56445,0.8846l-0.17675,-0.40619z" fill="#ddcb1e"/></g></g><g data-paper-data="{&quot;index&quot;:null}" stroke-width="0" stroke-linecap="butt" stroke-linejoin="miter"><g data-paper-data="{&quot;index&quot;:null}"><path d="M235.62208,167.79195c-1.2888,-0.46246 -1.96007,-1.87833 -1.4993,-3.1624c0.46076,-1.28408 1.87908,-1.95012 3.16789,-1.48766c1.28883,0.46247 1.96008,1.87834 1.49931,3.16241c-0.46077,1.28408 -1.87908,1.95011 -3.16789,1.48765z" fill="#e0cb17" stroke="none"/><path d="M235.58027,167.63953c-0.79623,-0.28572 -1.21094,-1.16043 -0.92627,-1.95374c0.28467,-0.79331 1.16092,-1.20477 1.95713,-0.91907c0.79623,0.28573 1.21093,1.16043 0.92626,1.95374c-0.28467,0.7933 -1.16092,1.20478 -1.95713,0.91908z" fill="#e0cb17" stroke="#000000"/><path d="M232.62472,169.98688c0.03193,-1.39709 1.45637,-2.38146 1.45637,-2.38146l2.54596,0.89332c0,0 0.09706,0.31154 -0.06554,2.02799c-0.1688,1.78223 -2.62894,3.58096 -2.62894,3.58096c0,0 -1.33974,-2.72374 -1.30783,-4.12081z" fill="#e8edf4" stroke="#000000"/><path d="M235.29018,168.34613c-0.61829,-0.21878 -1.52773,-0.94082 -1.52773,-0.94082l0.55824,-0.72841c0,0 0.5836,0.76071 1.12081,0.98856c0.53721,0.22788 1.45194,0.10272 1.45194,0.10272l0.12864,0.71387c0,0 -1.02544,0.11408 -1.73189,-0.1359z" fill="#dbded5" stroke="#000000"/></g><g data-paper-data="{&quot;index&quot;:null}" stroke="none"><path d="M238.92662,177.42505c0.33697,-0.32976 1.44724,-2.55164 2.64921,-2.07912c0.18655,0.07332 1.20371,1.81712 1.071,2.88149c-0.18051,1.44785 -1.57154,2.31822 -1.57154,2.31822l-2.9257,-1.07046c0,0 0.44008,-1.7204 0.77704,-2.05016z" fill="#e4dcaa"/><path d="M240.21121,176.25615c0.18093,-0.50423 0.52451,-0.84231 0.76743,-0.75514c0.24291,0.08717 0.29316,0.56658 0.11223,1.0708c-0.18093,0.50422 -0.52454,0.84231 -0.76746,0.75514c-0.24291,-0.08717 -0.29315,-0.56658 -0.11222,-1.0708z" fill="#000000"/><path d="M237.55523,181.58244c0.14749,-0.84752 0.59597,-2.12201 0.59597,-2.12201c0,0 0.64968,-0.13367 1.02894,-0.11176c0.37924,0.02191 0.96456,0.17719 0.96456,0.17719l0.89378,1.15458c0,0 -0.81486,2.88194 -0.93197,3.24646c-0.23584,0.73412 -1.77379,0.7925 -1.77379,0.7925l-0.94824,-0.8531c0,0 0.02325,-1.43634 0.17074,-2.28386z" fill="#dfcc17"/><path d="M238.26847,184.64457c0,0 1.86859,-2.25617 2.12162,-2.16538c0.25304,0.09079 0.61584,1.45451 0.53622,1.67637c-0.07961,0.22185 -1.02786,1.52734 -1.28089,1.43655c-0.25303,-0.09079 -1.37697,-0.94753 -1.37697,-0.94753z" fill="#807d5a"/><path d="M237.42049,167.7145l0.22435,-0.12561l3.32144,9.22993l-0.25758,0.33352z" fill="#6e6e73"/><path d="M238.88935,170.5774l-0.50633,0.25802l-0.82757,-2.15191l0.54296,-0.24486z" fill="#ddcb1e"/></g></g><g data-paper-data="{&quot;index&quot;:null}" stroke="none" stroke-width="0" stroke-linecap="butt" stroke-linejoin="miter"><g><path d="M246.79454,197.11562l1.55767,-0.22399c0,0 0.71722,0.66967 -0.34348,0.97583c-1.0607,0.30616 -1.83314,0.18158 -2.81799,-0.06329c-0.58464,-0.14535 -1.6493,-0.92926 -1.6493,-0.92926l-0.9757,0.11962c0,0 -0.72672,-0.21062 -0.88229,-0.60953c-0.55316,-1.41843 0.05368,-2.08584 0.05368,-2.08584c0,0 1.09932,1.30769 1.83767,1.71888c0.91095,0.50729 3.21974,1.09761 3.21974,1.09761z" fill="#393939"/><path d="M246.23548,190.83799l0.17956,0.31437l0.03238,0.42058c0,0 0.29458,0.85724 0.44853,1.17111c0.18943,0.38618 0.3905,0.80292 0.92303,1.6567c0.38106,1.0016 0.28475,2.59971 0.28475,2.59971c0,0 -0.57061,0.35083 -1.71735,0.17543c-3.87477,-0.59265 -4.54938,-2.67739 -4.54938,-2.67739c0,0 -0.28105,-1.01851 -0.23736,-1.58223c0.04371,-0.56373 0.30073,-1.01266 0.46623,-1.37098c0.16549,-0.35833 0.6013,-0.63203 0.6013,-0.63203c0,0 -0.14687,0.0279 -0.05243,-0.29436c0.02158,-0.07357 0.2445,-0.26721 0.2445,-0.26721l-0.18268,-0.06273l0.11463,-0.7128l3.02028,0.29157z" fill="#f01a40"/><path d="M244.62998,186.84113c0.88052,0.04528 1.84668,0.81081 1.87479,1.10794c0.02808,0.29712 -0.44802,0.80482 -0.44802,0.80482c0,0 0.24178,0.77451 -0.03247,0.98696c-0.40881,0.31667 -0.73563,0.41279 -1.83235,0.48026c-0.606,-0.03141 -1.01169,-0.41583 -1.36067,-0.67185c-0.4272,-0.3134 0.00513,-0.43149 -0.03933,-0.76751c-0.04447,-0.33602 0.13782,0.20053 -0.14658,-0.638c-0.20372,-0.60064 1.55114,-1.32493 1.98463,-1.30263z" fill="#ffffff"/><path d="M245.45456,190.96888c0.01469,0.05788 0.15401,0.64596 0.15401,0.64596c0,0 1.48686,2.32101 1.67306,3.11743c0.22934,0.98089 0.29124,2.46019 0.29124,2.46019c0,0 -0.513,0.07631 -0.76909,0.0734c-0.26348,-0.00299 -1.38686,-0.24701 -1.38686,-0.24701c0,0 -0.14135,-2.68923 -0.22257,-3.13099c-0.29552,-1.14125 -0.7,-2.10126 -0.7,-2.10126l-0.08669,-0.3343l-0.26376,-0.30128l-0.11684,-0.98197l1.44626,-0.11113c0,0 -0.09686,0.60321 -0.01877,0.91097z" fill="#ffffff"/></g><path d="M243.31497,188.10805c-0.04048,-0.38236 0.45269,-0.748 1.10153,-0.81669c0.64883,-0.0687 1.20763,0.18557 1.24811,0.56793c0.04048,0.38237 -0.4527,0.74801 -1.10154,0.8167c-0.64884,0.06869 -1.20764,-0.18558 -1.24812,-0.56794z" fill="#afafaf"/></g><path d="M242.9304,182.93305l1.2997,3.51455l0.76134,2.17533c0,0 -0.3587,0.12698 -0.61897,0.09082c-0.26028,-0.03617 -0.66154,-0.17464 -0.66154,-0.17464l-0.86092,-2.07435l-1.15957,-3.26337z" data-paper-data="{&quot;index&quot;:null}" fill="#f79db4" stroke="none" stroke-width="0" stroke-linecap="butt" stroke-linejoin="miter"/><g data-paper-data="{&quot;index&quot;:null}" stroke="none" stroke-width="0" stroke-linecap="butt" stroke-linejoin="miter"><g><path d="M233.11991,194.50228l1.23114,0.98021c0,0 0.00436,0.98124 -0.94583,0.41912c-0.9502,-0.56212 -1.38918,-1.20978 -1.88626,-2.09455c-0.29508,-0.52521 -0.45455,-1.83768 -0.45455,-1.83768l-0.7561,-0.62816c0,0 -0.34504,-0.6734 -0.16136,-1.06017c0.65313,-1.37524 1.55505,-1.3912 1.55505,-1.3912c0,0 -0.19802,1.69689 0.00897,2.51625c0.25539,1.01093 1.40889,3.09622 1.40889,3.09622z" fill="#393939"/><path d="M237.30588,189.79075l-0.1057,0.34625l-0.28392,0.31197c0,0 -0.42197,0.80225 -0.54486,1.12953c-0.15123,0.40271 -0.31665,0.8348 -0.57294,1.80787c-0.46775,0.96419 -1.69701,1.98993 -1.69701,1.98993c0,0 -0.64665,-0.17479 -1.3053,-1.12974c-2.22559,-3.22676 -1.17076,-5.1473 -1.17076,-5.1473c0,0 0.54861,-0.90297 0.9889,-1.25772c0.44031,-0.35474 0.94333,-0.47548 1.31761,-0.60073c0.37427,-0.12525 0.87236,0.00429 0.87236,0.00429c0,0 -0.12103,-0.08777 0.1783,-0.24c0.06835,-0.03476 0.36216,-0.00527 0.36216,-0.00527l-0.07963,-0.176l0.59744,-0.40533l1.85881,2.3983z" fill="#f01a40"/><path d="M239.11421,185.88144c0.5708,0.67194 0.67612,1.90014 0.47912,2.12433c-0.19701,0.22419 -0.89303,0.22578 -0.89303,0.22578c0,0 -0.39795,0.70706 -0.74064,0.65313c-0.51083,-0.0804 -0.80489,-0.25241 -1.60603,-1.00441c-0.39267,-0.46262 -0.39104,-1.02151 -0.44399,-1.45108c-0.06484,-0.52582 0.31756,-0.29214 0.53166,-0.55491c0.21411,-0.26277 -0.05145,0.23784 0.36388,-0.54417c0.2975,-0.56016 2.02802,0.22051 2.30902,0.55132z" fill="#ffffff"/><path d="M236.67509,189.31208c-0.03205,0.05036 -0.36456,0.55504 -0.36456,0.55504c0,0 -0.66983,2.6738 -1.12184,3.35544c-0.55673,0.83955 -1.59102,1.89897 -1.59102,1.89897c0,0 -0.40732,-0.3211 -0.58081,-0.5095c-0.17848,-0.19384 -0.77118,-1.17884 -0.77118,-1.17884c0,0 1.86047,-1.94693 2.12633,-2.30896c0.62806,-0.99768 1.04947,-1.95038 1.04947,-1.95038l0.18387,-0.29233l0.03845,-0.39856l0.63462,-0.75839l1.07262,0.9765c0,0 -0.5055,0.34313 -0.67595,0.611z" fill="#ffffff"/></g><path d="M237.29029,185.79303c0.25056,-0.29165 0.85487,-0.18341 1.34979,0.24176c0.49492,0.42517 0.693,1.00628 0.44246,1.29792c-0.25055,0.29164 -0.85485,0.18339 -1.34977,-0.24178c-0.49492,-0.42519 -0.69301,-1.00627 -0.44247,-1.29791z" fill="#afafaf"/></g><path d="M242.51954,176.95367l0.76688,0.66883c0,0 -0.18075,0.79486 -0.42102,1.06157c-0.22663,0.25156 -1.05415,0.47006 -1.05415,0.47006z" data-paper-data="{&quot;index&quot;:null}" fill="#f25c76" stroke="none" stroke-width="0" stroke-linecap="butt" stroke-linejoin="miter"/><path d="M241.50203,182.51822l-2.40792,3.36842l-1.0799,1.4506c0,0 -0.43305,-0.35993 -0.58438,-0.58836c-0.15133,-0.22843 -0.24207,-0.65907 -0.24207,-0.65907l0.82315,-1.0733l2.26401,-3.02305z" data-paper-data="{&quot;index&quot;:null}" fill="#f79db4" stroke="none" stroke-width="0" stroke-linecap="butt" stroke-linejoin="miter"/><g data-paper-data="{&quot;index&quot;:null}" stroke="none" stroke-width="0" stroke-linecap="butt" stroke-linejoin="miter"><path d="M247.32193,184.25712c0,0 0.88627,1.19257 1.30639,1.97435c0.06693,0.12457 -0.10191,1.20849 -0.24935,1.68065c-0.08052,0.25788 -0.22746,0.73934 -0.67949,0.78072c-0.11524,0.01055 -0.63164,-0.21695 -0.63164,-0.21695l-0.32231,0.29601c0,0 -0.25963,0.02308 -0.40191,-0.04524c-0.14228,-0.06833 -0.33783,-0.28783 -0.33783,-0.28783c0,0 -0.17753,0.0238 -0.29865,0.06619c-0.39533,0.13837 -0.55693,-0.2196 -0.55693,-0.2196c0,0 -0.2753,0.13321 -0.49392,0.09699c-0.34659,-0.0574 -0.71427,-0.31742 -0.85715,-0.51564c-0.2427,-0.33669 -0.67888,-1.4084 -0.42389,-1.69888c0.39714,-0.45242 0.8935,0.09845 0.8935,0.09845c0,0 -0.12905,-0.61502 -0.00521,-0.97468c0.19069,-0.5538 0.51271,-0.75466 0.51271,-0.75466l2.54572,-0.27987z" fill="#ffffff"/><g><path d="M245.548,182.39524c0.54974,-0.21402 1.86607,0.04801 2.1278,0.43915c0.26171,0.39113 0.53729,1.4064 0.02615,1.70094c-1.86713,1.07602 -2.91219,0.36274 -3.37949,-0.49695c-0.30524,-0.56151 -0.32286,-1.04033 1.22553,-1.64313z" fill="#fed000"/><path d="M245.76245,182.75854c0.53787,-0.08605 1.00789,0.05665 1.0498,0.31871c0.0419,0.26206 -0.36015,0.54422 -0.89803,0.63024c-0.5379,0.08604 -1.0079,-0.05665 -1.04981,-0.31871c-0.0419,-0.26206 0.36015,-0.54424 0.89803,-0.63026z" fill="#c28830"/><path d="M245.21463,177.75532c0.41969,1.10563 0.71199,2.45429 0.86796,3.35265c0.22301,1.28438 0.45932,2.42181 0.45932,2.42181c0,0 -0.46041,0.28901 -0.77876,0.22607c-0.31835,-0.06293 -0.42735,-0.04157 -0.42735,-0.04157c0,0 -0.27754,-2.03491 -0.36751,-2.55307c-0.14758,-0.84994 -0.3787,-1.91945 -0.66848,-3.13662c-0.0726,-0.30498 0.04448,-0.51981 0.35246,-0.60657c0.20692,-0.05827 0.42342,-0.0288 0.56239,0.33731z" fill="#fed5c7"/></g></g><path d="M242.57406,186.26706c0,0 -1.21197,-0.18718 -1.86803,-0.43992c-4.44408,-1.62069 -4.33407,-5.65294 -4.33407,-5.65294l1.1125,0.13629c0,0 -0.53933,3.04343 3.99919,4.50275c0.70803,0.22765 1.62287,0.27946 1.62287,0.27946z" data-paper-data="{&quot;index&quot;:null}" fill="#ffffff" stroke="none" stroke-width="0" stroke-linecap="butt" stroke-linejoin="miter"/><g data-paper-data="{&quot;index&quot;:null}" stroke-linecap="butt" stroke-linejoin="miter"><path d="M262.01137,196.8734l-6.74179,-6.08815c0,0 0.73251,-2.83256 2.70983,-2.92233c1.87394,-0.08506 3.28858,0.26413 4.8449,1.52616c4.0531,3.28671 1.15012,6.94825 1.15012,6.94825z" fill="#fbdd00" stroke="none" stroke-width="0"/><path d="M262.53048,196.75267c0,0 0.40559,-0.50526 0.66915,-1.14088c0.17637,-0.42535 0.17774,-0.99183 0.34754,-1.11798c0.3415,-0.25374 0.26589,0.10652 0.08741,0.92768c-0.08322,0.38291 -0.59055,1.20125 -0.59055,1.20125l-0.51359,0.12993z" fill="#a58c48" stroke="#000000" stroke-width="0"/><path d="M263.11075,191.98278c-0.12239,0.14297 -0.67858,-0.8184 -1.3598,-1.40157c-0.68124,-0.58318 -2.24567,-0.964 -2.00767,-1.32288c0.26062,-0.39301 1.5917,0.36884 2.29009,0.93136c1.0423,0.83952 1.19976,1.65014 1.07737,1.79311z" fill="#a58c48" stroke="#000000" stroke-width="0"/><path d="M255.68238,190.24143l0.08237,-0.40448c0,0 0.42401,-0.44684 0.81703,-0.65481c0.35287,-0.18669 0.63486,0.03195 0.64811,0.1147c0.03761,0.23515 -0.43742,0.19837 -0.82783,0.41281c-0.4218,0.23168 -0.71967,0.53178 -0.71967,0.53178z" fill="#a58c48" stroke="#000000" stroke-width="0"/><path d="M258.01592,194.66681c2.65955,2.40257 2.06374,4.55095 2.06374,4.55095c0,0 0.17893,-0.12888 -0.20837,0.32458c-0.3873,0.45346 -0.23856,0.20289 -0.23856,0.20289c0,0 0.05597,-2.17897 -1.30191,-3.91165c-2.16098,-2.75744 -5.43818,-2.33337 -5.43818,-2.33337l0.44532,-0.39428c0,0 2.78259,-0.15139 4.67796,1.56087z" fill="#edeee6" stroke="none" stroke-width="0"/><path d="M255.42713,190.3778c0,0 3.38834,-0.89774 5.41003,1.07981c2.5621,2.50614 1.50638,5.31585 1.50638,5.31585l-0.32688,0.09574c0,0 0.25962,-2.35181 -1.03674,-4.09347c-2.06305,-2.77171 -5.70845,-2.03225 -5.70845,-2.03225l0.15565,-0.36567z" fill="#edeee6" stroke="none" stroke-width="0"/><path d="M260.52479,191.73681c2.67126,2.41263 1.38391,5.40523 1.38391,5.40523c0,0 -0.51711,0.79065 -0.9044,1.24412c-0.38731,0.45347 -1.08079,1.08025 -1.08079,1.08025c0,0 0.05147,-2.1828 -1.3135,-3.92156c-2.17222,-2.76706 -5.45666,-2.3492 -5.45666,-2.3492l2.16472,-2.53557c0,0 3.30298,-0.64264 5.20672,1.07676z" fill="#ff1a07" stroke="none" stroke-width="0"/><path d="M258.36572,190.7442c0,0 1.418,0.35213 2.10593,0.92979c0.68794,0.57767 1.07024,1.89481 1.07024,1.89481l-2.08579,2.43646c0,0 -0.88044,-1.17593 -1.40557,-1.62548c-0.54037,-0.46259 -1.8532,-1.16426 -1.8532,-1.16426z" fill="#ff1808" stroke="#000000" stroke-width="0"/><path d="M259.9713,199.349c0,0 0.14057,-0.62999 0.13433,-1.03486c-0.00624,-0.40487 -0.16605,-1.02417 -0.16605,-1.02417l1.91193,-2.29503c0,0 0.28991,0.73072 0.23332,1.27838c-0.05658,0.54765 -0.3681,1.16007 -0.50132,1.31568c-0.35279,0.41211 -1.61222,1.75997 -1.61222,1.75997z" fill="#ff1808" stroke="#000000" stroke-width="0"/><path d="M253.27078,193.24342c0,0 1.65853,-2.04348 2.12928,-2.4256c0.34465,-0.27976 1.58708,-0.25103 1.58708,-0.25103l-2.04668,2.39077c0,0 -0.44454,0.0347 -0.72539,0.08279c-0.28086,0.04809 -0.94428,0.20306 -0.94428,0.20306z" fill="#ff1808" stroke="#000000" stroke-width="0"/><path d="M254.49988,196.19554c-1.01762,-0.87116 -4.13579,-1.24624 -4.13579,-1.24624c0,0 0.31221,-0.72515 1.08354,-1.16372c1.20673,-0.68613 3.28716,-1.08694 5.68649,0.81246c4.57544,3.62206 1.61166,7.95028 1.61166,7.95028c0,0 -3.22825,-5.4816 -4.24589,-6.35277z" fill="#fbdd00" stroke="none" stroke-width="0"/><path d="M257.05337,195.63713c-0.52984,-0.45357 -2.02552,-1.31239 -1.77291,-1.41219c0.37374,-0.14768 1.54016,0.55041 2.05528,1.02063c0.93014,0.84906 1.2233,1.74593 1.1513,1.83003c-0.07201,0.08411 -0.75159,-0.85453 -1.43371,-1.43848z" fill="#a58c48" stroke="#000000" stroke-width="0"/><path d="M259.55456,200.5755c0,0 -0.34081,-1.52168 -0.22286,-1.77405c0.1838,-0.39328 0.36386,1.20867 0.36386,1.20867l-0.14098,0.56539z" fill="#a58c48" stroke="#000000" stroke-width="0"/><path d="M253.71037,193.77802c-0.2448,0.28593 -2.12984,0.0053 -2.12984,0.0053l0.75558,-0.35447c0,0 1.61903,0.06322 1.37423,0.34916z" fill="#a58c48" stroke="#000000" stroke-width="0"/><path d="M252.41822,201.72153c-2.4251,-2.12885 -3.60021,-5.00284 -2.03382,-6.83258c1.12314,-1.312 4.19443,-0.36743 6.34544,1.52677c2.06052,1.81455 3.13157,4.78777 2.00842,6.09976c-1.12315,1.31197 -4.24022,0.99811 -6.30359,-0.8132z" fill="#fbdd00" stroke="#000000" stroke-width="0.25"/><path d="M256.69979,202.99527c-0.67679,0.79054 -2.73214,0.14156 -4.59078,-1.44958c-1.85864,-1.59113 -2.81673,-3.52188 -2.13995,-4.31242c0.67679,-0.79054 2.73213,-0.14154 4.59077,1.4496c1.85862,1.59113 2.81672,3.52186 2.13994,4.3124z" fill="#fbdd00" stroke="#000000" stroke-width="0.25"/><path d="M251.52364,191.87704l-3.34117,-2.49726l-5.6437,-4.25219c0,0 -0.15336,-0.52918 -0.01066,-0.71314c0.14271,-0.18395 0.71346,-0.40806 0.71346,-0.40806l5.84926,3.89057l3.61247,2.33818c0,0 -0.50017,0.40768 -0.73791,0.73858c-0.23775,0.3309 -0.44176,0.90331 -0.44176,0.90331z" fill="#fbdd00" stroke="none" stroke-width="0"/><path d="M253.01589,193.33063c0,0 -1.47036,-1.09067 -1.49432,-1.19749c-0.09098,-0.40551 0.84404,-1.85687 1.40079,-2.03645c0.32876,-0.10604 2.44365,1.29166 2.44365,1.29166l-1.99296,1.89574z" fill="#c8c8c6" stroke="none" stroke-width="0"/><path d="M264.07433,196.15897c0,0 1.46603,-1.91957 0.61819,-4.24612c-0.20567,-0.56436 -0.72611,-1.19721 -1.23028,-1.78095c-0.74952,-0.86778 -1.83759,-1.67221 -2.958,-1.97634c-1.38433,-0.37577 -2.90473,-0.15914 -2.90473,-0.15914c0,0 3.58587,-1.15769 5.8314,1.33141c3.3281,3.68906 0.64344,6.83115 0.64344,6.83115z" fill="#fbdd00" stroke="#000000" stroke-width="0.25"/><path d="M242.53876,185.12756c0,0 -0.15336,-0.52918 -0.01066,-0.71314c0.14271,-0.18396 0.71345,-0.40807 0.71345,-0.40807l2.51868,1.65714c0,0 -0.11757,0.31302 -0.35531,0.64392c-0.23775,0.33089 -0.5314,0.5853 -0.5314,0.5853z" fill="#a56402" stroke="none" stroke-width="0"/></g><path d="M245.27592,179.3911c-0.11742,0.65214 -0.8706,2.04568 -0.8706,2.04568l0.2536,0.25918l-0.0086,0.16362c0,0 -0.48944,2.90677 -1.5051,3.26799c-1.58023,0.56202 -0.63094,0.37892 -2.18103,-0.33125c-1.69692,-0.77744 -2.05605,-1.19891 -2.91903,-2.35106c-0.93649,-1.25028 -0.60209,-2.11916 -0.60209,-2.11916l1.46973,0.04301l0.68991,-0.05861l0.12594,-0.12859l1.61079,-0.18224l0.51209,-0.94099c0,0 0.58933,-0.11673 0.92049,-0.5181c0.26235,-0.31795 0.50625,-1.02948 0.50625,-1.02948l1.23938,0.07657l0.33303,0.15966c0,0 0.53037,1.06007 0.42527,1.64376z" data-paper-data="{&quot;index&quot;:null}" fill="#f01a40" stroke="none" stroke-width="0" stroke-linecap="butt" stroke-linejoin="miter"/><g data-paper-data="{&quot;index&quot;:null}" stroke="none" stroke-width="0" stroke-linecap="butt" stroke-linejoin="miter"><path d="M246.67621,186.42555c0.02972,0.13227 -0.40535,1.08966 -0.6631,1.48768c-0.14079,0.21736 -0.40044,0.62409 -0.82851,0.54588c-0.10911,-0.01992 -0.52736,-0.363 -0.52736,-0.363l-0.37386,0.19032c0,0 -0.24569,-0.04556 -0.35948,-0.1453c-0.11379,-0.09974 -0.23781,-0.35278 -0.23781,-0.35278c0,0 -0.17008,-0.02376 -0.29284,-0.01581c-0.40066,0.02595 -0.45772,-0.34622 -0.45772,-0.34622c0,0 -0.28849,0.05212 -0.48106,-0.03763c-0.30526,-0.14228 -0.5778,-0.47707 -0.65868,-0.6969c-0.13741,-0.37341 -0.26415,-1.47533 0.04611,-1.6779c0.48323,-0.3155 0.79968,0.32102 0.79968,0.32102c0,0 0.03924,-0.60113 0.2462,-0.90134c0.31871,-0.46228 0.6678,-0.5648 0.6678,-0.5648l2.42277,0.39722c0,0 0.51124,1.32945 0.69783,2.15954z" fill="#ffffff"/><path d="M246.40186,182.73501c0.11679,0.43577 0.05348,1.44225 -0.50133,1.5518c-2.02672,0.40018 -2.755,-0.56978 -2.91373,-1.49427c-0.10368,-0.60383 0.02815,-1.04385 1.61949,-1.11294c0.56502,-0.02452 1.6788,0.61964 1.79559,1.05541z" fill="#fed000"/><path d="M244.62096,180.53771c0.32347,1.20709 0.73279,2.43059 0.73279,2.43059c0,0 -0.53571,0.05494 -0.84507,0.02226c-0.30935,-0.03268 -0.49072,-0.20491 -0.49072,-0.20491c0,0 -0.32582,-1.61422 -0.45633,-2.10119c-0.21405,-0.79878 -0.52678,-1.8 -0.90822,-2.93717c-0.09556,-0.28492 -0.00227,-0.50011 0.28431,-0.60946c0.19254,-0.07346 0.40181,-0.06397 0.56599,0.27362c0.49586,1.01948 0.89102,2.28199 1.11727,3.12627z" fill="#fed5c7"/></g><path d="M242.5119,176.35737c0,0 1.4876,0.29015 1.92726,0.54652c0.43967,0.25636 0.57575,0.91301 0.57575,0.91301c0,0 -0.37945,0.62416 -1.52268,-0.01939c-1.22912,-0.69189 -0.98033,-1.44015 -0.98033,-1.44015z" data-paper-data="{&quot;index&quot;:null}" fill="#afafaf" stroke="none" stroke-width="0" stroke-linecap="butt" stroke-linejoin="miter"/><g data-paper-data="{&quot;index&quot;:null}"><g><path d="M245.47939,171.25775c0,0 -0.9293,-0.96486 -1.91294,-0.77927c-1.58988,0.29999 -1.49115,2.35351 -1.49115,2.35351c0,0 -0.2205,-1.3819 0.56159,-2.0673c0.51628,-0.45247 0.85161,-0.60987 1.54107,-0.44167c0.77256,0.18848 1.30141,0.93472 1.30141,0.93472z" fill="#000000" stroke="none" stroke-width="0" stroke-linecap="butt" stroke-linejoin="miter"/><path d="M250.35961,172.16517c-0.35823,2.8566 -3.33373,4.83557 -6.64597,4.4202c-3.31224,-0.41538 -5.70692,-3.06782 -5.3487,-5.92439c0.35823,-2.85658 3.33372,-4.83558 6.64596,-4.42021c3.31225,0.41538 5.70693,3.06783 5.34871,5.9244z" fill="#f79eb4" stroke="none" stroke-width="0" stroke-linecap="butt" stroke-linejoin="miter"/><path d="M249.9442,173.87242c0.00822,-0.0152 -0.09413,1.04078 -1.01052,2.28033c-1.47126,2.00182 -2.94673,1.87495 -2.94673,1.87495l0.3938,-0.86892c0,0 1.75462,-1.51774 2.23879,-2.10954c0.48415,-0.59178 0.8255,-1.72616 0.82522,-1.72548" fill="#f79eb4" stroke="#f89db5" stroke-width="0" stroke-linecap="butt" stroke-linejoin="round"/><g fill="#ffd5c5" stroke="none" stroke-width="1" stroke-linecap="round" stroke-linejoin="round"><path d="M247.33982,176.78695c-0.07048,0.04192 -0.6225,0.36793 -1.48429,0.54111c-1.08136,0.21729 -2.42664,-0.15103 -2.81429,-0.24685c-0.46229,-0.11431 -1.23177,-0.74301 -1.34618,-0.90195c-0.82341,-1.14394 -0.04846,-1.54982 0.06183,-1.61508c0.05261,-0.0311 0.33363,-0.09766 0.63595,0.04942c0.29467,0.14337 1.07817,0.71447 1.36947,0.73846c0.313,0.02577 2.11806,-0.34273 3.01816,-0.22866c0.18683,0.02567 0.42526,0.11906 0.56099,0.25567c0.17661,0.17783 0.43299,0.50812 0.72835,0.28757c0.04779,-0.03573 0.15605,-0.14045 0.16156,-0.08104c0.05024,0.54514 -0.46078,0.94512 -0.89155,1.20135z"/><path d=""/></g><g fill="#000000" stroke="#000000" stroke-width="0.125" stroke-linecap="butt" stroke-linejoin="round"><path d="M249.37177,173.9959c0.06453,-0.01292 0.35466,0.05418 0.80444,0.0065c0.28441,-0.04071 0.56865,-0.08404 0.84767,-0.15212c0.16705,-0.0408 0.32547,-0.12703 0.49296,-0.16056c0.00569,-0.00116 -0.36788,0.16918 -0.47937,0.20637c-0.34945,0.11662 -0.66069,0.1875 -1.024,0.24462c-0.07977,0.01256 -0.72207,0.03954 -0.71553,0.0156"/><path d="M249.5684,173.47993c0.02222,0.02844 0.34944,0.08197 0.78686,-0.0515c0.43741,-0.13346 1.05638,-0.42076 1.07918,-0.45497c0.00859,-0.01291 -0.69315,0.4294 -1.00609,0.55111c-0.31295,0.12172 -0.94399,0.18301 -0.9379,0.16069"/></g><g fill="#000000" stroke="none" stroke-width="1" stroke-linecap="round" stroke-linejoin="round"><path d="M246.96971,175.81605c-0.23282,-0.06502 -0.60171,-0.30759 -0.38921,-0.42424c0.16152,-0.08864 0.67917,0.03526 0.76137,0.11299c0.14222,0.13446 -0.26399,0.33221 -0.37217,0.31124z"/><path d=""/></g><path d="M241.99185,172.09627c0.02691,-0.05006 -0.33488,1.86855 -0.42286,2.74487c-0.16567,1.65025 0.08637,2.71824 0.08637,2.71824c0,0 -0.32579,-0.27711 -0.40193,-0.35873c-0.23526,-0.25208 -0.43988,-0.49826 -0.63036,-0.78922c-0.44799,-0.68436 -0.71,-1.46989 -0.83236,-2.27586c-0.08153,-0.53713 0.04454,-2.8286 0.06891,-2.8394" fill="#f79eb4" stroke="#f89db5" stroke-width="0" stroke-linecap="butt" stroke-linejoin="round"/><path d="M239.76962,171.25316c-0.01635,0.01271 -0.07222,2.82847 -0.02372,3.61885c0.04849,0.79037 0.36821,1.99533 0.36821,1.99533c0,0 -0.40019,-0.11413 -0.87926,-0.81018c-0.42301,-0.61462 -0.66488,-0.92951 -0.81687,-2.00394c-0.19722,-1.3942 -0.06688,-3.25884 0.15617,-3.59314" fill="#f79eb4" stroke="#f89db5" stroke-width="0" stroke-linecap="butt" stroke-linejoin="round"/><g fill="#ee1a40" stroke="none" stroke-width="1" stroke-linecap="round" stroke-linejoin="round"><path d="M248.44031,169.18485c-0.07897,-0.06626 -2.09575,-1.72096 -3.70266,-1.64515c-1.26652,0.05974 -1.9851,0.49194 -3.22551,1.23581c-0.95662,0.57365 -1.6908,2.06314 -1.72555,2.0678c-0.00249,0.00033 0.84175,-4.02967 4.28416,-4.20766c2.78116,-0.11257 4.75098,1.93809 4.82763,2.06663"/><path d=""/></g><path d="M248.57828,170.31239c-0.02482,0.01546 0.99006,-0.46135 2.70434,0.19262c0.30527,0.11834 1.33022,0.56819 1.50021,1.34178c0.23558,0.7137 1.06286,1.16636 1.04701,1.16271c-0.02274,-0.00531 -2.01748,-0.73993 -2.9996,-1.26159c-0.53627,-0.28485 -2.16307,-0.29483 -2.19573,-0.27449" fill="#f79eb4" stroke="#f89db5" stroke-width="0" stroke-linecap="butt" stroke-linejoin="round"/><path d="M247.73266,170.24459c0.01935,-0.08131 1.02648,-1.3253 1.33682,-1.54157c0.31034,-0.21628 0.48569,-0.26391 1.08943,-0.2199c2.02975,0.34719 3.66818,0.98318 3.66818,0.98318c0,0 -1.96152,0.44697 -2.7215,0.49365c-1.05437,0.06477 -2.40564,0.28602 -2.51916,0.35591" fill="#f79eb4" stroke="#f89db5" stroke-width="0" stroke-linecap="butt" stroke-linejoin="round"/><g stroke="none" stroke-width="1" stroke-linecap="round" stroke-linejoin="round"><g fill="#f79eb4"><path d="M241.2138,169.24864c0.02232,-0.35883 -0.06498,-0.99377 0.01657,-1.66516c0.08155,-0.67139 0.24689,-1.52496 0.39006,-1.68273c0.18716,-0.20628 0.92086,0.10816 1.65128,0.57276c0.73041,0.46462 1.59475,1.35149 1.61985,1.50799"/></g><g fill="#ffd5c5"><path d="M241.83023,168.89311c0.00011,-0.08551 -0.06592,-0.49015 -0.01834,-0.98839c0.04757,-0.49825 0.21,-1.23762 0.2331,-1.26065c0.09362,-0.09338 0.90784,0.29567 1.30222,0.55551c0.39439,0.25984 0.76804,0.68884 0.847,0.86054"/></g></g><g fill="#f79eb4" stroke="none" stroke-width="1" stroke-linecap="round" stroke-linejoin="round"><path d="M248.40428,167.88136c0.30369,-0.051 0.62294,-0.08121 1.28769,-0.04344c0.66474,0.03776 1.49272,0.07446 1.68634,0.21237c0.03964,0.02826 0.07542,0.68219 -0.07269,1.16971c-0.23118,0.76099 -0.7916,1.52584 -0.80164,1.53753"/><path d=""/></g><path d="M246.47632,173.53146c0.33502,0.65341 0.53314,0.66825 0.72592,0.71012c0.3307,0.07184 0.7458,-0.18001 1.07308,-0.50757c0.46791,-0.46832 0.70392,-0.23878 1.15007,-0.18674c0.06762,0.00788 0.26884,-0.25705 0.04314,0.2955c-0.47868,1.1718 -1.40574,1.92355 -1.55186,1.91061c-0.58384,-0.05172 -0.34614,-0.55945 -1.53172,-0.64669c-0.67527,-0.04969 -2.29405,0.48932 -2.91784,0.21588c-1.18814,-0.74353 -1.37639,-1.8482 -1.38148,-2.56733c-0.01531,-2.16098 1.28641,-1.38028 1.72115,-1.27441c2.31577,1.4529 2.05963,1.69104 2.66955,2.05064z" fill="#ffffff" stroke="none" stroke-width="0" stroke-linecap="butt" stroke-linejoin="miter"/><path d="M248.56071,171.55472c-0.03665,-0.03457 0.90977,-0.14762 1.70089,0.45399c0.22726,0.17283 0.73592,0.61952 1.12061,1.21924c0.38469,0.59972 0.73206,1.67266 0.7338,1.67172c0.03766,-0.02022 -1.56195,-0.79431 -2.19678,-1.21354c-0.63483,-0.41923 -1.36409,-1.10852 -1.46776,-1.20647" fill="#f79eb4" stroke="#f89db5" stroke-width="0" stroke-linecap="butt" stroke-linejoin="round"/><g fill="#000000" stroke="#000000" stroke-width="0.125" stroke-linecap="butt" stroke-linejoin="round"><path d="M242.37591,171.61226c-0.02873,0.03269 -0.18238,0.02642 -0.36097,-0.08085c-1.14662,-0.68867 -1.25382,-1.08683 -1.25382,-1.08683c0,0 0.34944,0.56432 1.18178,0.90167c0.16208,0.06569 0.38315,0.11499 0.43198,0.11848c0.04657,0.00332 0.09108,-0.02662 0.13781,-0.00251"/><path d="M242.15905,171.75057c0,0 -0.04157,0.03815 -0.17717,0.06447c-0.25144,0.04882 -0.86617,-0.03197 -1.14585,-0.11018c-0.66689,-0.1865 -1.0191,-0.46079 -1.0191,-0.46079c0,0 0.74082,0.3175 0.98016,0.38748c0.72281,0.20703 1.24398,-0.01592 1.31535,-0.05558c0.03146,-0.01747 0.09915,-0.06841 0.13307,-0.06802"/></g><g stroke="none" stroke-linecap="butt" stroke-linejoin="miter"><path d="M244.53149,173.71871c0.13552,-0.70777 0.43101,-1.24597 0.65998,-1.20214c0.22896,0.04383 0.30474,0.65314 0.16923,1.36091c-0.13554,0.70776 -0.43103,1.24596 -0.66,1.20213c-0.22897,-0.04384 -0.30473,-0.65313 -0.16922,-1.3609z" fill="#169c5b" stroke-width="NaN"/><path d="M245.02455,173.42238c0.10062,0.01926 0.13627,0.27453 0.07968,0.57015c-0.05659,0.29561 -0.18404,0.51966 -0.28466,0.50039c-0.10062,-0.01926 -0.13627,-0.27453 -0.07968,-0.57015c0.05659,-0.29561 0.18404,-0.51966 0.28466,-0.50039z" fill="#000000" stroke-width="0"/><path d="M244.94396,173.26502c0.05728,-0.29909 0.20213,-0.5227 0.32357,-0.49945c0.12143,0.02327 0.17344,0.28456 0.11617,0.58366c-0.05728,0.2991 -0.20213,0.5227 -0.32357,0.49945c-0.12143,-0.02326 -0.17344,-0.28455 -0.11617,-0.58365z" fill="#ffffff" stroke-width="0"/></g><g stroke="none" stroke-linecap="butt" stroke-linejoin="miter"><path d="M247.86103,174.62778c0.09559,-0.49922 0.30399,-0.87882 0.46551,-0.8479c0.16151,0.03092 0.21493,0.46068 0.11936,0.9599c-0.09558,0.49921 -0.30399,0.87883 -0.46551,0.84791c-0.16151,-0.03092 -0.21492,-0.46068 -0.11935,-0.9599z" fill="#169c5b" stroke-width="NaN"/><path d="M248.20879,174.41878c0.07099,0.01359 0.09615,0.19362 0.05622,0.40214c-0.03992,0.20851 -0.12981,0.36653 -0.20078,0.35294c-0.07098,-0.0136 -0.09614,-0.19363 -0.05621,-0.40215c0.03991,-0.20851 0.1298,-0.36652 0.20077,-0.35293z" fill="#000000" stroke-width="0"/><path d="M248.15199,174.30779c0.04041,-0.21095 0.14257,-0.3687 0.22822,-0.35229c0.08566,0.0164 0.12233,0.2007 0.08194,0.41167c-0.0404,0.21095 -0.14258,0.36868 -0.22823,0.35227c-0.08564,-0.0164 -0.12233,-0.20068 -0.08194,-0.41165z" fill="#ffffff" stroke-width="0"/></g></g><path d="M242.37149,176.09927c0,0 0.15474,-0.05162 0.46867,-0.00426c0.31392,0.04736 0.79265,0.16243 0.79265,0.16243" fill="none" stroke="#000000" stroke-width="0.125" stroke-linecap="round" stroke-linejoin="miter"/></g></g></g></svg>