<svg version="1.1" xmlns="http://www.w3.org/2000/svg" xmlns:xlink="http://www.w3.org/1999/xlink" width="148.06012" height="23.62371" viewBox="0,0,148.06012,23.62371"><g transform="translate(-165.96994,-168.18814)"><g data-paper-data="{&quot;isPaintingLayer&quot;:true}" fill="#ffffff" fill-rule="nonzero" stroke="none" stroke-width="0.26458" stroke-linecap="butt" stroke-linejoin="miter" stroke-miterlimit="10" stroke-dasharray="" stroke-dashoffset="0" style="mix-blend-mode: normal"><path d="M176.95771,184.66981c1.2819,0 2.28912,-0.36625 3.02164,-1.09877c0.73252,-0.73252 1.09877,-1.8313 1.09877,-3.29633v-1.37346c0,-1.46504 -0.36625,-2.6096 -1.09877,-3.43368c-0.73252,-0.8241 -1.73974,-1.23612 -3.02164,-1.23612h-2.74692v10.43838zM165.96994,168.18818h10.98776c3.84573,0 6.86734,1.05298 9.0649,3.15896c2.19756,2.10599 3.29633,4.99028 3.29633,8.65287c0,3.1132 -1.09877,5.76857 -3.29633,7.96613c-2.19756,2.19756 -5.21919,3.29633 -9.0649,3.29633h-10.98776z"/><path d="M192.06587,191.26247v-23.07429h19.22859v6.59265h-10.98776v1.64815h10.98776v6.59265h-10.98776v1.64815h10.98776v6.59265z"/><path d="M214.04139,191.26247v-23.07429h8.24083v16.48164h10.98776v6.59265z"/><path d="M236.01694,181.6482v-13.46h7.69144v13.46c0,2.19756 0.91566,3.29633 2.74692,3.29633h0.54941c1.64815,0 2.47225,-1.09877 2.47225,-3.29633v-13.46h7.14206v13.46c0,6.59265 -3.29633,9.88898 -9.88901,9.88898c-7.14203,0 -10.71305,-3.29633 -10.71305,-9.88898z"/><path d="M259.36592,191.26247l4.39511,-11.53716l-4.39511,-11.53716h7.69144l2.74695,7.96613l2.74692,-7.96613h7.69144l-4.39511,11.53716l4.39511,11.53716h-7.69144l-2.74692,-7.96613l-2.74695,7.96613z"/><path d="M282.98961,191.26247v-23.07429h19.22859v6.59265h-10.98778v1.64815h10.98778v6.59265h-10.98778v1.64815h10.98778v6.59265z"/><path d="M314.03006,168.18818l-1.37349,14.28408h-6.31795l-1.37349,-14.28408zM305.56948,187.88376c-0.03668,-1.04383 0.31126,-1.97781 1.04383,-2.80189c0.73252,-0.8241 1.73974,-1.23612 3.02164,-1.23612c1.09877,0 2.0144,0.41204 2.74692,1.23612c0.73252,0.8241 1.09877,1.7855 1.09877,2.88427c0,1.09877 -0.36625,2.01443 -1.09877,2.74695c-0.73252,0.73252 -1.64815,1.09877 -2.74692,1.09877c-1.2819,0 -2.28912,-0.36625 -3.02164,-1.09877c-0.73252,-0.73252 -1.08047,-1.67563 -1.04383,-2.82934z"/></g></g></svg>