<svg version="1.1" xmlns="http://www.w3.org/2000/svg" xmlns:xlink="http://www.w3.org/1999/xlink" width="216.90628" height="226.36376" viewBox="0,0,216.90628,226.36376"><g transform="translate(-114.57524,-64.80948)"><g data-paper-data="{&quot;isPaintingLayer&quot;:true}" fill-rule="nonzero" stroke-miterlimit="10" stroke-dasharray="" stroke-dashoffset="0" style="mix-blend-mode: normal"><g stroke-width="0" stroke-linecap="butt" stroke-linejoin="miter"><path d="M225.246,277.8636c0,-1.47962 25.61356,5.32792 35.00847,-5.0796c6.55252,-7.25877 8.79365,-20.87197 11.14875,-30.83266c2.9774,-12.59258 5.12161,-20.94299 5.12161,-20.94299c0,0 4.1522,1.78928 5.21274,5.4552c1.45472,5.02851 -1.33349,15.15332 -1.33349,15.15332l-5.70837,0.27374c0,0 3.29449,29.36742 -7.00216,32.70936c-23.39591,7.5935 -42.44756,4.17775 -42.44756,3.26364z" fill="#1c1c1c" stroke="none"/><path d="M276.7559,223.11087c0,3.51557 -2.66861,8.4936 -3.78022,12.63711c-1.60343,5.97673 -1.83409,10.68384 -1.83409,10.68384c0,0 0.98369,19.96467 -7.00815,27.78969c-7.99184,7.82502 -23.61274,3.78154 -30.4927,5.28654c-12.5539,2.7462 -17.02546,-12.88558 -15.94578,-20.69916c0.8875,-6.42282 2.204,-10.46102 8.74753,-12.98139c5.3065,-2.04389 11.05426,-2.19902 11.05426,-2.19902l3.32158,-3.42213c0,0 -1.37748,-9.34237 -1.37748,-11.13264c0,-4.13369 5.69098,-6.12578 8.27393,-10.60075c2.78239,-4.82049 1.08681,-12.22016 3.18955,-12.22016c4.05475,0 25.85156,8.27153 25.85156,16.85807z" fill="#a7113a" stroke="#000000"/><path d="M222.579,256.4065c0,-2.67147 3.3934,-7.19519 7.42558,-10.22311c2.43521,-1.82871 5.71951,-3.11181 6.87916,-3.11181c1.02996,0 5.15363,-4.02646 5.15363,-4.02646c0,0 2.93581,3.93528 1.29583,8.67422c-0.24641,0.71204 -8.87399,7.34481 -8.87399,7.71735c0,4.28491 -3.22401,8.72831 -6.30379,8.72831c-3.07978,0 -5.57643,-3.47359 -5.57643,-7.75849z" fill="#fffbfe" stroke="none"/></g><g stroke="none" stroke-width="0" stroke-linecap="butt" stroke-linejoin="miter"><path d="M229.65953,195.75989c-2.05178,-5.14536 -4.19701,-14.16755 -4.19701,-14.16755l11.55255,-11.04753c0,0 2.25236,-0.73363 5.66512,0.5769c2.21634,0.85112 4.63874,3.93577 4.63874,3.93577c0,0 -0.64205,-4.58332 3.11446,-4.66661c2.41191,-0.05343 5.78529,6.33186 6.4211,8.84322c0.37432,1.47836 0.14216,4.27949 -0.9742,6.16684c-0.70415,1.19056 -2.4456,1.972 -2.4456,1.972c0,0 1.06283,2.20908 -1.18487,3.54376c-0.68867,0.40895 -1.51478,1.16226 -1.51478,1.16226c0,0 0.26478,1.81556 0.02051,2.76992c-0.24428,0.95436 -1.39637,2.10307 -1.39637,2.10307l-2.70841,0.35312c0,0 -0.98439,3.38171 -1.49712,3.89022c-2.01163,1.99506 -4.9028,0.76568 -6.45881,0.11599c-2.84898,-1.18972 -8.70847,-4.73164 -9.03536,-5.55143z" fill="#ffffff"/><path d="M217.55474,174.9269c-0.97594,-2.77051 2.6368,-10.32839 5.762,-12.27546c8.80221,-5.48379 11.12918,-3.60518 12.7939,0.01978c2.5487,5.5499 2.20548,13.43959 -10.15348,18.74677c-3.38319,1.45281 -7.42636,-3.72066 -8.40237,-6.49105z" fill="#fed000"/><path d="M215.11842,154.67175c1.25975,-1.93773 18.98791,-15.71758 20.29239,-16.03136c1.9417,-0.46703 2.79829,0.10134 3.3332,1.98352c0.15657,5.37025 -15.80236,16.38745 -15.80236,16.38745l7.60459,9.41675c0,0 -0.34048,1.59242 -1.88203,2.90617c-1.54154,1.31375 -4.62127,2.98953 -4.62127,2.98953c0,0 -5.06042,-5.97958 -7.51502,-10.6328c-2.4546,-4.65321 -2.66926,-5.08155 -1.40951,-7.01928z" fill="#fed5c7"/></g><path d="M231.47184,214.3121c1.55678,-2.35862 12.12926,-8.76165 14.49155,-5.37461c3.29789,4.72852 1.18875,1.70124 2.77869,3.23168c1.58994,1.53045 3.87821,-0.27993 3.87166,3.16952c-0.00528,2.81797 0.44368,6.42907 -1.73139,9.72711c-4.58822,5.48891 -6.35385,6.8313 -9.5925,7.75166c-2.17261,0.61741 -5.29935,-3.64041 -5.29935,-3.64041c0,0 -4.49981,0.53566 -5.94904,-0.75877c-1.44917,-1.29454 -1.7318,-9.31534 1.43036,-14.10608z" fill="#ffffff" stroke="none" stroke-width="0" stroke-linecap="butt" stroke-linejoin="miter"/><path d="M244.73857,210.36578c2.13965,1.2994 2.08662,5.29618 -0.11838,8.92714c-2.20506,3.63092 -5.72712,5.521 -7.86678,4.22161c-2.13965,-1.2994 -2.08664,-5.29628 0.11838,-8.92724c2.20506,-3.63092 5.72718,-5.52096 7.86683,-4.22156z" fill="#afafaf" stroke="none" stroke-width="0" stroke-linecap="butt" stroke-linejoin="miter"/><g stroke="none" stroke-width="0" stroke-linecap="butt" stroke-linejoin="miter"><path d="M213.71685,274.11765c0,0 -2.85213,-11.86189 2.05789,-17.05107c3.61619,-3.82178 22.63673,-10.87741 22.63673,-10.87741c0,0 0.24551,-2.63416 2.46207,-4.20286c0.97378,-0.68913 0.45547,-8.18148 0.45547,-8.18148c0,0 6.54976,0.5546 10.43702,-0.19678c3.88718,-0.75137 9.51388,-3.60294 9.51388,-3.60294l2.16226,9.63239c0,0 2.78886,1.82064 3.34957,4.52219c0.3187,1.5356 0.433,4.40613 0.433,4.40613c0,0 3.69628,2.01377 4.13952,5.26269c0.9275,6.79742 -4.49909,11.59551 -5.50462,12.70241c-10.02792,11.0394 -19.82882,12.83947 -28.0361,14.64249c-2.85673,0.62763 -8.96554,-0.00675 -13.34422,-1.40368c-6.31608,-2.01504 -10.76246,-5.65185 -10.76246,-5.65185z" fill="#f01b3e"/><path d="M217.69015,266.74635c0,-1.63743 0.54103,-6.91235 3.07707,-10.33677c1.50116,-2.02702 6.72588,-5.33865 11.55105,-7.71428c4.22438,-2.07972 8.21109,-3.37338 8.21109,-3.37338c0,0 0.36966,-1.77832 0.77424,-2.8626c0.40457,-1.08427 1.23056,-2.50969 1.23056,-2.50969l0.27059,-5.41549l9.42538,-0.65048l0.44339,7.75888c0,0 -1.74689,0.00318 -2.59812,2.03147c-0.35179,0.83813 -0.93592,4.15349 -0.93592,4.15349c0,0 -10.01815,6.87138 -11.96746,10.6164c-4.39804,8.44945 -1.00299,21.82576 -1.00299,21.82576c0,0 -4.66689,0.68286 -7.77967,0.18899c-3.11279,-0.49387 -9.39737,-2.96087 -9.39737,-2.96087c0,0 -1.30199,-4.48885 -1.30199,-10.75142z" fill="#ffffff"/><path d="M212.9692,272.11429c0,0 13.49623,12.73693 30.51738,6.2717c14.35389,-5.45207 28.07697,-19.73564 28.07697,-19.73564c0,0 0.95529,7.41566 -0.57475,12.54269c-1.46519,4.90954 -5.44397,6.39109 -5.44397,6.39109l-6.57968,-0.13605c0,0 -8.61995,7.67998 -23.91643,7.94153c-17.30802,0.19772 -22.58761,-6.50943 -22.58761,-6.50943l0.50817,-6.76582z" fill="#393939"/></g><path d="M249.75746,173.96366l8.66095,-0.43121l15.29482,12.9044l16.72563,-2.83316c0,0 -10.71541,8.10688 -16.54098,8.03753c-5.36102,-0.06387 -24.14041,-17.6777 -24.14041,-17.6777z" fill="#f79db4" stroke="none" stroke-width="0" stroke-linecap="butt" stroke-linejoin="miter"/><g data-paper-data="{&quot;index&quot;:null}" stroke-width="0" stroke-linecap="butt" stroke-linejoin="miter"><g data-paper-data="{&quot;index&quot;:null}"><path d="M180.80776,77.34641c0,-6.92393 5.63376,-12.53693 12.58316,-12.53693c6.94946,0 12.58302,5.61299 12.58302,12.53693c0,6.92394 -5.63363,12.53693 -12.58302,12.53693c-6.94946,0 -12.58316,-5.61299 -12.58316,-12.53693z" fill="#e0cb17" stroke="none"/><path d="M185.15584,81.48165c0,-4.27764 3.48039,-7.74533 7.77385,-7.74533c4.29346,0 7.77385,3.46764 7.77385,7.74533c0,4.27764 -3.48039,7.74534 -7.77385,7.74534c-4.29346,0 -7.77385,-3.4677 -7.77385,-7.74534z" fill="#e0cb17" stroke="#000000"/><path d="M192.75534,93.09985c-3.32863,0.01478 -8.91082,-1.87562 -8.91082,-1.87562l1.41811,-4.43657c0,0 4.09195,2.63341 7.04881,2.80106c2.9568,0.16765 7.11203,-1.99809 7.11203,-1.99809l1.83818,3.18962c0,0 -4.70305,2.30259 -8.50637,2.31952z" fill="#dbded5" stroke="#000000"/></g><g data-paper-data="{&quot;index&quot;:null}" stroke="none"><path d="M232.19396,117.52804c1.30983,0 2.37161,2.20402 2.37161,4.92285c0,2.71883 -1.06178,4.92285 -2.37161,4.92285c-1.30983,0 -2.37174,-2.20409 -2.37174,-4.92285c0,-2.71883 1.06184,-4.92285 2.37174,-4.92285z" fill="#000000"/><path d="M241.34418,151.87205c1.3644,0 5.43512,5.89263 5.43512,7.08892c0,1.19629 -2.29198,9.05803 -3.65631,9.05803c-1.3644,0 -8.20206,-2.16607 -8.20206,-2.16607c0,0 5.05892,-13.98095 6.42332,-13.98095z" fill="#807d5a"/><path d="M201.84905,86.43061l0.85643,-0.98456l31.68834,38.39839l-0.65889,2.03481z" fill="#6e6e73"/><path d="M213.77338,97.58908l-1.97641,2.10044l-7.642,-8.86122l2.17401,-2.10043z" fill="#ddcb1e"/></g></g><g stroke-width="0" stroke-linecap="butt" stroke-linejoin="miter"><g data-paper-data="{&quot;index&quot;:null}"><path d="M315.33946,99.84637c-8.91499,0 -16.14207,-7.20045 -16.14207,-16.08276c0,-8.88224 7.22701,-16.08282 16.14207,-16.08282c8.91499,0 16.14207,7.20051 16.14207,16.08282c0,8.88224 -7.22708,16.08276 -16.14207,16.08276z" fill="#e0cb17" stroke="none"/><path d="M315.93102,99.00439c-5.50765,0 -9.97254,-4.44854 -9.97254,-9.93601c0,-5.48753 4.46483,-9.93595 9.97254,-9.93595c5.50765,0 9.9726,4.44841 9.9726,9.93595c0,5.48753 -4.46488,9.93601 -9.9726,9.93601z" fill="#e0cb17" stroke="#000000"/><path d="M316.15474,103.9725c-4.87897,-0.02155 -10.91217,-2.97555 -10.91217,-2.97555l2.35807,-4.09182c0,0 5.33043,2.7784 9.1236,2.56335c3.79311,-0.21505 9.0424,-3.59342 9.0424,-3.59342l1.81918,5.69145c0,0 -7.16093,2.425 -11.43101,2.40605z" fill="#dbded5" stroke="#000000"/></g><g data-paper-data="{&quot;index&quot;:null}" stroke="none"><path d="M273.90567,151.61279c1.33979,2.7618 0.25353,14.27244 0.25353,14.27244l-20.28317,0.12631c0,0 -6.61051,-8.39263 -4.53293,-17.66226c1.5273,-6.81449 11.59515,-15.26403 12.89964,-15.30323c8.40488,-0.25262 10.32301,15.80495 11.6628,18.56681z" fill="#e4dcaa"/><path d="M268.60402,141.62509c0,3.48782 -1.36212,6.31525 -3.04242,6.31525c-1.6803,0 -3.04255,-2.82743 -3.04255,-6.31525c0,-3.48782 1.36218,-6.31525 3.04255,-6.31525c1.6803,0 3.04242,2.82737 3.04242,6.31525z" fill="#000000"/><path d="M273.16775,180.10591c-0.95988,5.51807 -3.97586,14.37134 -3.97586,14.37134l-7.687,3.14281c0,0 -9.29639,-3.73965 -9.12744,-8.7571c0.08392,-2.49134 1.42774,-21.94421 1.42774,-21.94421l8.01618,-5.11003c0,0 3.9284,0.3355 6.30066,1.03521c2.37226,0.69971 6.05976,2.94749 6.05976,2.94749c0,0 -0.0543,8.79649 -1.01418,14.31456z" fill="#dfcc17"/><path d="M262.06332,197.30279c0,0 -8.77156,2.77867 -10.52191,2.77867c-1.75036,0 -4.69055,-10.08544 -4.69055,-11.62009c0,-1.53465 5.22202,-9.09397 6.97238,-9.09397c1.75036,0 8.24003,17.93527 8.24003,17.93527z" fill="#807d5a"/><path d="M263.5845,146.02301l-0.84517,-2.6103l40.65093,-49.2588l1.09869,1.26309z" fill="#6e6e73"/><path d="M298.74203,98.36413l2.78895,2.69448l-9.80352,11.36747l-2.53542,-2.69455z" fill="#ddcb1e"/></g></g><path d="M239.71881,190.78224l-0.05496,16.63164l2.26309,3.03344l5.36342,3.82159c0,0 0.177,3.3437 -0.38853,4.95844c-0.56547,1.6147 -3.50834,2.09744 -3.50834,2.09744l-5.67482,-3.23163c0,0 -5.52102,-2.87842 -6.5497,-6.58332c-1.34155,-4.83177 -0.22497,-21.99384 -0.22497,-21.99384z" fill="#f79db4" stroke="none" stroke-width="0" stroke-linecap="butt" stroke-linejoin="miter"/><path d="M247.54411,213.59033c2.80358,-0.35587 14.54957,3.49218 13.51943,7.49108c-1.43816,5.58271 -0.51597,2.01025 -0.64098,4.21355c-0.12501,2.20331 2.7393,2.75955 0.11833,5.00217c-2.14111,1.83212 -4.5879,4.52559 -8.50696,5.02454c-7.15338,0.09589 -9.32213,-0.36882 -12.13052,-2.22593c-1.88398,-1.24581 -0.69137,-6.392 -0.69137,-6.392c0,0 -3.33831,-3.06446 -3.30066,-5.00724c0.03778,-1.94281 5.93806,-7.38336 11.63263,-8.10613z" fill="#ffffff" stroke="none" stroke-width="0" stroke-linecap="butt" stroke-linejoin="miter"/><path d="M256.69881,221.17564c-0.07664,2.50213 -3.58085,4.42504 -7.82692,4.29503c-4.24605,-0.13008 -7.62602,-2.26388 -7.54939,-4.76602c0.07664,-2.50213 3.58093,-4.4251 7.827,-4.29508c4.24605,0.13008 7.62601,2.26395 7.54937,4.76608z" fill="#afafaf" stroke="none" stroke-width="0" stroke-linecap="butt" stroke-linejoin="miter"/><path d="M252.42589,155.86582c0,0 -4.59068,-3.1587 -5.42627,-5.19865c-0.88592,-2.16281 -0.24565,-7.43125 -0.24565,-7.43125l6.17038,-2.41237z" fill="#f25c76" stroke="none" stroke-width="0" stroke-linecap="butt" stroke-linejoin="miter"/><path d="M249.3965,188.85546l4.17248,24.23365l1.84059,10.63774c0,0 -2.54282,0.74559 -4.09688,1.62175c-1.55406,0.87616 -5.131,-0.2963 -5.131,-0.2963l-1.47047,-10.12677l-3.98394,-26.66229z" fill="#f79db4" stroke="none" stroke-width="0" stroke-linecap="butt" stroke-linejoin="miter"/><path d="M211.57079,171.30362c0,0 3.55312,19.06429 30.41842,19.96258c31.0219,1.03723 34.40925,-18.79943 34.40925,-18.79943l7.11724,1.61115c0,0 -8.19268,24.95217 -38.99061,25.11162c-29.89404,0.69352 -40.67691,-25.98406 -40.67691,-25.98406z" fill="#ffffff" stroke="none" stroke-width="0" stroke-linecap="butt" stroke-linejoin="miter"/><path d="M230.67259,149.69914c0.63949,-3.80808 6.22078,-9.13805 6.22078,-9.13805l2.39199,-0.2461l7.7635,2.25617c0,0 -0.06999,4.89668 0.83852,7.42207c1.14681,3.18786 4.5016,5.19911 4.5016,5.19911l1.06894,6.89256l9.47049,4.65884l0.48902,1.06497l4.09905,1.87627l9.10133,2.96832c0,0 0.13861,6.05996 -8.34973,11.6626c-7.82203,5.1629 -10.94967,6.95597 -23.05826,7.98878c-11.06088,0.94341 -18.30183,-2.25794 -26.74986,-9.17693c-5.42978,-4.44705 -7.57918,-11.68467 -7.57918,-11.68467l18.19771,-5.24097l0.30705,-1.0216l2.12401,-1.03065c0,0 -1.55119,-10.19612 -0.83677,-14.45077z" fill="#f01a40" stroke="none" stroke-width="0" stroke-linecap="butt" stroke-linejoin="miter"/><path d="M255.08489,139.14351c0,0 -0.89581,5.05522 -10.07781,5.20529c-8.54049,0.13959 -8.77749,-4.61033 -8.77749,-4.61033c0,0 5.14045,0.8481 8.45234,0.74366c3.31196,-0.1045 10.40296,-1.33855 10.40296,-1.33855z" fill="#afafaf" stroke="none" stroke-width="0" stroke-linecap="butt" stroke-linejoin="miter"/><g stroke-linecap="butt" stroke-linejoin="miter"><path d="M117.524,232.83209c0,0 -12.16294,-27.88574 18.82704,-41.81065c11.8996,-5.34691 21.38501,-5.18512 33.03681,-1.52423c12.29454,3.86284 12.18023,22.91132 12.18023,22.91132l-52.58365,27.07145z" fill="#fbdd00" stroke="none" stroke-width="0"/><path d="M125.91895,237.85446l-3.01547,-1.67438c0,0 -1.82801,-5.99645 -1.71309,-8.54501c0.24638,-5.46565 0.37136,-7.85902 2.09741,-5.69255c0.85824,1.07711 -0.07796,4.64455 0.32264,7.61569c0.59856,4.43992 2.30849,8.2962 2.30849,8.2962z" fill="#a58c48" stroke="#000000" stroke-width="0"/><path d="M130.2224,206.8674c-0.53182,-1.1039 1.81113,-5.94293 9.77105,-9.48804c5.33345,-2.37536 14.98134,-4.95003 15.96599,-2.04192c0.89925,2.6556 -9.58165,2.44302 -14.8416,4.97707c-5.25991,2.53401 -10.36366,7.65673 -10.89548,6.55283z" fill="#a58c48" stroke="#000000" stroke-width="0"/><path d="M179.87716,208.29758c0,0 -1.37418,-2.38541 -3.64231,-4.54708c-2.0994,-2.00081 -5.15038,-2.56155 -4.52143,-3.97868c0.22138,-0.4987 2.36082,-1.40441 4.27014,0.35905c2.12663,1.96431 4.04986,5.48382 4.04986,5.48382l-0.15621,2.68285z" fill="#a58c48" stroke="#000000" stroke-width="0"/><path d="M157.81017,232.25668c14.78435,-7.6148 32.04409,-2.02114 32.04409,-2.02114l2.14498,3.22414c0,0 -19.91777,-8.13479 -38.11697,5.61491c-11.43576,8.63986 -14.71768,22.44662 -14.71768,22.44662c0,0 0.51815,1.82504 -1.16304,-1.67484c-1.68115,-3.49982 -0.77002,-2.3902 -0.77002,-2.3902c0,0 -0.1664,-14.51463 20.57859,-25.19939z" fill="#edeee6" stroke="none" stroke-width="0"/><path d="M181.25629,209.58159l0.3697,2.56094c0,0 -21.70903,-10.73373 -39.31565,3.26901c-11.06348,8.799 -13.35214,24.03315 -13.35214,24.03315l-1.89756,-1.1477c0,0 -1.95805,-19.44365 18.34654,-30.94291c16.02183,-9.07376 35.84902,2.22749 35.84902,2.22749z" fill="#edeee6" stroke="none" stroke-width="0"/><path d="M146.90731,209.63241c14.84893,-7.64592 34.56437,1.90749 34.56437,1.90749l9.39473,19.56806c0,0 -19.97377,-8.10777 -38.25977,5.68373c-11.49048,8.66623 -14.80714,22.4897 -14.80714,22.4897c0,0 -3.31903,-5.10127 -5.00016,-8.60119c-1.68109,-3.49986 -3.61688,-9.33827 -3.61688,-9.33827c0,0 -3.11069,-20.98109 17.72489,-31.70961z" fill="#ff1a07" stroke="none" stroke-width="0"/><path d="M171.67597,226.15614c0,0 -9.43254,2.22639 -13.60489,4.23641c-4.0548,1.95344 -11.55708,7.88563 -11.55708,7.88563l-9.06324,-18.81269c0,0 4.60281,-7.65185 9.89578,-10.13998c5.29298,-2.48813 14.80447,-2.33919 14.80447,-2.33919z" fill="#ff1808" stroke="#000000" stroke-width="0"/><path d="M137.69478,258.4626c0,0 -5.67817,-10.58339 -7.21113,-13.76531c-0.57887,-1.2015 -1.51799,-5.57533 -0.96069,-9.11638c0.55729,-3.54105 3.60047,-7.65644 3.60047,-7.65644l8.20503,17.63267c0,0 -2.03864,3.63099 -2.75315,6.16864c-0.71451,2.53765 -0.88055,6.7369 -0.88055,6.7369z" fill="#ff1808" stroke="#000000" stroke-width="0"/><path d="M190.04767,231.21279c0,0 -3.91674,-2.08182 -5.60408,-2.85287c-1.68725,-0.77104 -4.42718,-1.7309 -4.42718,-1.7309l-8.89335,-18.45999c0,0 7.86714,1.8914 9.56956,4.22683c2.32537,3.19006 9.35507,18.81698 9.35507,18.81698z" fill="#ff1808" stroke="#000000" stroke-width="0"/><path d="M177.38853,247.74206c-7.85745,3.78544 -37.31711,32.89956 -37.31711,32.89956c0,0 -11.43368,-32.1829 23.40308,-47.34714c18.26818,-7.9521 30.69285,-1.95974 37.143,4.37105c4.1229,4.04657 4.87839,9.13117 4.87839,9.13117c0,0 -20.24989,-2.84007 -28.10733,0.94528z" fill="#fbdd00" stroke="none" stroke-width="0"/><path d="M162.24991,239.96887c-5.26679,2.53744 -11.10945,7.31126 -11.42236,6.66186c-0.31287,-0.64935 3.02804,-5.80488 10.29802,-9.59705c4.02624,-2.10019 12.53142,-4.54813 14.6373,-2.99539c1.42334,1.04944 -9.42205,3.95969 -13.51312,5.93058z" fill="#a58c48" stroke="#000000" stroke-width="0"/><path d="M138.27157,266.87694l0.05573,-3.79345c0,0 3.80507,-9.78157 4.3058,-6.99994c0.32136,1.78508 -4.36153,10.79339 -4.36153,10.79339z" fill="#a58c48" stroke="#000000" stroke-width="0"/><path d="M186.38981,233.84415c-1.06369,-2.20791 9.23108,0.09465 9.23108,0.09465l4.16413,3.49102c0,0 -12.3316,-1.37778 -13.3953,-3.58569z" fill="#a58c48" stroke="#000000" stroke-width="0"/><path d="M181.20153,285.84323c-16.00682,7.95805 -36.14755,4.73447 -41.02793,-5.39571c-4.88036,-10.13026 6.81925,-27.05598 22.81365,-35.03909c16.69671,-8.33356 37.60125,-9.15572 42.48154,0.97458c6.80636,14.12797 -5.38264,30.25555 -24.19568,39.60871z" fill="#fbdd00" stroke="#000000" stroke-width="0.25"/><path d="M152.20253,286.86715c-2.94078,-6.10411 6.30924,-16.65717 20.66029,-23.57103c14.35111,-6.91388 28.36902,-7.57033 31.30977,-1.46626c2.94078,6.10411 -6.30927,16.65726 -20.66037,23.57115c-14.35111,6.91388 -28.369,7.57025 -31.30975,1.46618z" fill="#fbdd00" stroke="#000000" stroke-width="0.25"/><path d="M203.3224,225.52747c0,0 -0.3292,-3.94267 -1.27358,-6.42173c-0.94438,-2.47905 -3.41226,-5.87902 -3.41226,-5.87902l26.63496,-8.69029l43.30131,-14.72952c0,0 3.21823,2.36232 3.80954,3.75806c0.59126,1.39578 -1.25652,4.4704 -1.25652,4.4704l-42.61074,17.34819l-25.1928,10.14389z" fill="#fbdd00" stroke="none" stroke-width="0"/><path d="M189.33624,231.29821l-9.38078,-15.25491c0,0 15.64137,-5.26911 17.53342,-4.05343c3.20444,2.05877 6.66837,12.75244 5.41939,15.15273c-0.329,0.6323 -11.40173,5.04407 -11.40173,5.04407z" fill="#c8c8c6" stroke="none" stroke-width="0"/><path d="M117.19264,231.54306c0,0 -11.6553,-24.25243 15.44295,-41.91875c18.28373,-11.9199 38.9206,1.34674 38.9206,1.34674c0,0 -9.20734,-3.89917 -18.54639,-3.84313c-7.55855,0.0454 -15.74804,3.29322 -21.91247,7.50453c-4.1466,2.83291 -8.4775,5.9477 -10.71311,9.15646c-9.21634,13.22807 -3.19146,27.75409 -3.19146,27.75409z" fill="#fbdd00" stroke="#000000" stroke-width="0.25"/><path d="M253.48806,205.25015c0,0 -1.42383,-2.09088 -2.36817,-4.56987c-0.94438,-2.47905 -1.16216,-4.64509 -1.16216,-4.64509l18.61522,-6.22834c0,0 3.21816,2.36236 3.80948,3.7581c0.59126,1.39578 -1.25653,4.4704 -1.25653,4.4704z" fill="#a56402" stroke="none" stroke-width="0"/></g><path d="M244.06295,190.57734l16.59375,-1.63858c0,0 2.32146,0.84676 4.28052,4.11856c1.27234,2.12476 1.27679,6.21622 1.27679,6.21622c0,0 2.4217,-4.17652 5.55977,-1.82806c2.01486,1.50784 0.67657,8.9214 -0.41708,11.39251c-0.64382,1.45478 -2.63671,3.60541 -4.76754,4.43689c-1.3441,0.52452 -3.27687,0.04589 -3.27687,0.04589c0,0 -0.54843,2.49769 -3.25283,2.14753c-0.82855,-0.10724 -1.99158,-0.02031 -1.99158,-0.02031c0,0 -0.95075,1.66124 -1.76531,2.28771c-0.81463,0.62649 -2.49961,0.82838 -2.49961,0.82838l-2.45109,-1.45256c0,0 -2.98399,2.14338 -3.73233,2.23106c-2.93535,0.34394 -4.51838,-2.52567 -5.37796,-4.0603c-1.57385,-2.80975 -4.10631,-9.48802 -3.84734,-10.37148c1.62564,-5.54496 5.66882,-14.33346 5.66882,-14.33346z" fill="#ffffff" stroke="none" stroke-width="0" stroke-linecap="butt" stroke-linejoin="miter"/><path d="M252.86169,176.3319c10.67427,1.75907 11.20553,4.83314 10.01575,8.82046c-1.82151,6.10474 -7.52042,12.05329 -20.86129,7.708c-3.65206,-1.18948 -3.26107,-8.02752 -2.11952,-10.87108c1.14161,-2.84357 9.17527,-6.28194 12.96504,-5.65743z" fill="#fed000" stroke="none" stroke-width="0" stroke-linecap="butt" stroke-linejoin="miter"/><path d="M251.98377,178.93441c3.54223,-0.17491 6.48282,1.08231 6.56807,2.80808c0.08524,1.72577 -2.71724,3.26647 -6.25954,3.44133c-3.54223,0.17491 -6.48275,-1.08227 -6.568,-2.80802c-0.08524,-1.72577 2.71723,-3.26653 6.2594,-3.44137z" fill="#c28830" stroke="none" stroke-width="0" stroke-linecap="butt" stroke-linejoin="miter"/><path d="M248.74903,146.32517c0.39322,-2.51913 1.73291,-2.99783 3.12944,-2.90464c2.07862,0.13879 3.11321,1.34993 3.0606,3.39046c-0.21018,8.14349 -0.24507,15.26747 -0.04287,20.88043c0.12325,3.42186 1.09007,16.75833 1.09007,16.75833c0,0 -0.72304,0.01042 -2.66656,0.83922c-1.94346,0.82879 -5.26504,-0.39353 -5.26504,-0.39353c0,0 -0.02333,-7.56358 -0.32888,-16.04559c-0.21374,-5.93264 -0.16436,-14.91716 1.02325,-22.52474z" fill="#fed5c7" stroke="none" stroke-width="0" stroke-linecap="butt" stroke-linejoin="miter"/><path d="M241.68385,101.067c0,0 4.02098,-4.39242 9.16461,-4.98412c4.59028,-0.52809 6.62906,0.76046 9.59777,4.10178c4.49712,5.0614 1.95323,13.81005 1.95323,13.81005c0,0 2.30148,-13.18611 -7.72646,-16.41214c-6.2041,-1.99581 -12.98923,3.48449 -12.98923,3.48449z" fill="#000000" stroke="none" stroke-width="0" stroke-linecap="butt" stroke-linejoin="miter"/><path d="M248.77466,69.03606c21.7341,0 39.353,15.19521 39.353,33.93944c0,18.74416 -17.6189,33.9393 -39.353,33.9393c-21.7341,0 -39.35307,-15.19508 -39.35307,-33.9393c0,-18.74416 17.61891,-33.93937 39.35307,-33.93937z" fill="#f79eb4" stroke="none" stroke-width="0" stroke-linecap="butt" stroke-linejoin="miter"/><path d="M214.39301,111.20133c-0.00124,-0.00463 1.28489,7.60014 3.93321,11.81547c2.64838,4.21533 12.75394,15.44165 12.75394,15.44165l1.84007,5.93234c0,0 -9.63456,-0.37573 -17.5174,-14.49973c-4.91582,-8.75014 -4.72154,-15.6548 -4.68072,-15.54991" fill="#f79eb4" stroke="#f89db5" stroke-width="0" stroke-linecap="butt" stroke-linejoin="round"/><g fill="#ffd5c5" stroke="none" stroke-width="1" stroke-linecap="round" stroke-linejoin="round"><path d="M220.39926,126.79617c0.08373,-0.37938 0.69821,0.38492 0.97804,0.65446c1.72939,1.66402 3.65319,-0.26193 4.93822,-1.26765c0.98742,-0.7725 2.60352,-1.18268 3.83119,-1.1972c5.90722,-0.00769 17.26967,3.83523 19.31255,3.92228c1.90134,0.08106 7.42552,-2.97366 9.44529,-3.66106c2.07218,-0.70524 3.83374,-0.0476 4.14834,0.19597c0.6596,0.51096 5.33713,3.76075 -0.90904,10.48377c-0.86789,0.9341 -6.34812,4.37217 -9.42726,4.73612c-2.58191,0.3049 -11.57106,1.59448 -18.38073,-0.68526c-5.42704,-1.81696 -8.72905,-4.37028 -9.15042,-4.6981c-2.57527,-2.00428 -5.5525,-5.00222 -4.78625,-8.4832z"/><path d=""/></g><g fill="#000000" stroke="#000000" stroke-width="0.125" stroke-linecap="butt" stroke-linejoin="round"><path d="M214.66705,116.69863c0.02292,0.1599 -4.10465,-0.53467 -4.60981,-0.68044c-2.30077,-0.66338 -4.25407,-1.37337 -6.41701,-2.40989c-0.69008,-0.33061 -2.96546,-1.73363 -2.92958,-1.72158c1.05481,0.35229 2.00844,1.03775 3.05452,1.43666c1.74736,0.66585 3.5485,1.17604 5.35289,1.66949c2.86702,0.67236 4.7957,0.47398 5.2021,0.60974"/><path d="M213.80502,113.49963c0.02122,0.14916 -4.00575,-0.75805 -5.92883,-1.79789c-1.92308,-1.03983 -6.09811,-4.46566 -6.05305,-4.37529c0.11954,0.23946 3.88549,2.59689 6.60308,3.81349c2.71766,1.2166 4.87493,1.13586 5.04148,0.9701"/></g><g fill="#000000" stroke="none" stroke-width="1" stroke-linecap="round" stroke-linejoin="round"><path d="M228.36322,129.30692c-0.71586,0.04785 -3.1798,-1.55874 -2.15214,-2.31223c0.59404,-0.43557 4.0385,-0.81658 5.0101,-0.11309c1.27832,0.9257 -1.3013,2.19393 -2.85796,2.42532z"/><path d=""/></g><path d="M277.9572,105.86804c0.14864,0.08952 -0.89328,14.99494 -1.85518,18.39883c-1.44337,5.10756 -3.77247,9.96993 -7.22096,14.02809c-1.46623,1.72529 -2.98753,3.1499 -4.71158,4.58781c-0.55804,0.46559 -2.8872,1.99177 -2.8872,1.99177c0,0 2.49343,-6.69521 2.76018,-17.49025c0.14155,-5.73247 -0.64131,-18.42006 -0.50804,-18.07492" fill="#f79eb4" stroke="#f89db5" stroke-width="0" stroke-linecap="butt" stroke-linejoin="round"/><path d="M286.93893,101.50817c1.17012,2.34036 0.50153,14.49179 -1.90205,23.33881c-1.85231,6.81787 -3.66999,8.65613 -6.90063,12.28399c-3.65879,4.10849 -6.33653,4.52159 -6.33653,4.52159c0,0 3.04163,-7.5252 3.9952,-12.59188c0.95363,-5.06668 2.87385,-23.30228 2.77853,-23.3976" fill="#f79eb4" stroke="#f89db5" stroke-width="0" stroke-linecap="butt" stroke-linejoin="round"/><g fill="#ee1a40" stroke="none" stroke-width="1" stroke-linecap="round" stroke-linejoin="round"><path d="M221.66677,81.78844c0.59931,-0.76827 14.98601,-12.42006 32.86151,-9.43969c22.0944,3.93869 24.28339,30.6571 24.26757,30.65294c-0.22071,-0.05827 -3.75697,-10.27535 -9.47212,-14.75625c-7.41055,-5.8104 -11.70264,-9.18466 -19.83615,-10.59665c-10.31949,-1.79157 -24.68875,7.26419 -25.25258,7.62827"/><path d=""/></g><g stroke="none" stroke-width="1" stroke-linecap="round" stroke-linejoin="round"><g fill="#f79eb4"><path d="M248.13543,80.37814c0.28895,-0.99068 6.59117,-6.01972 11.68617,-8.42955c5.095,-2.4097 10.08959,-3.84656 11.13158,-2.36236c0.79705,1.13522 1.1737,6.78337 1.15664,11.18673c-0.01713,4.40336 -1.09544,8.43443 -1.24199,10.77062"/></g><g fill="#ffd5c5"><path d="M252.57668,81.45099c0.64919,-1.04524 3.4106,-3.51399 6.16895,-4.87311c2.75829,-1.35912 8.33338,-3.21287 8.86264,-2.53373c0.13054,0.16752 0.58096,5.0756 0.4846,8.33287c-0.09629,3.25727 -0.8507,5.81782 -0.91926,6.37032"/></g></g><g fill="#f79eb4" stroke="none" stroke-width="1" stroke-linecap="round" stroke-linejoin="round"><path d="M209.62928,93.76492c-0.05541,-0.0836 -3.05615,-5.47868 -3.93309,-10.58214c-0.56188,-3.26945 0.19903,-7.46498 0.47808,-7.61545c1.36257,-0.73409 6.74118,-0.30033 11.06609,-0.00579c4.32497,0.29454 6.3629,0.74835 8.28351,1.32383"/><path d=""/></g><path d="M233.40131,114.94795c4.22542,-6.19571 6.10951,-17.35151 19.43359,-18.87842c2.89429,-0.33173 11.40946,3.47304 9.55988,17.42092c-0.61546,4.64153 -2.72651,11.62542 -11.00449,15.46618c-4.25134,1.26107 -14.27224,-3.53234 -18.67482,-3.75847c-7.72971,-0.3969 -6.6055,3.07569 -10.41905,2.93681c-0.95448,-0.03476 -6.33445,-5.6423 -8.47741,-13.60008c-1.01047,-3.75241 -0.70792,-9.23304 -0.26473,-9.2292c2.92437,0.02526 5.41774,6.08873 8.06117,9.49321c1.84893,2.38131 4.32647,4.3445 6.52105,4.14834c1.27923,-0.11433 2.57116,-0.04968 5.26479,-3.99937z" fill="#ffffff" stroke="none" stroke-width="0" stroke-linecap="butt" stroke-linejoin="miter"/><g fill="#000000" stroke="#000000" stroke-width="0.125" stroke-linecap="butt" stroke-linejoin="round"><path d="M260.20743,100.69413c0.32144,-0.11785 0.58467,0.1116 0.88826,0.12787c0.31824,0.01706 1.78636,-0.12234 2.88668,-0.41539c5.6503,-1.50503 8.36496,-4.86744 8.36496,-4.86744c0,0 -1.01509,2.48528 -8.98036,6.00533c-1.24063,0.54833 -2.23834,0.46435 -2.3974,0.22983"/><path d="M262.37239,105.3033c0.21942,0.025 0.61546,0.40894 0.80453,0.54723c0.42893,0.31401 3.61523,2.17655 8.45234,1.42468c1.60289,-0.25822 6.64593,-1.70914 6.64593,-1.70914c0,0 -2.49759,1.4866 -6.95688,2.15122c-1.87015,0.27866 -5.90682,0.30255 -7.49167,-0.21655c-0.85467,-0.2799 -1.09231,-0.56006 -1.09231,-0.56006"/></g><g stroke="none" stroke-linecap="butt" stroke-linejoin="miter"><path d="M253.81363,116.73319c0.30203,4.68209 -0.68103,8.55684 -2.19575,8.65457c-1.51473,0.09766 -2.98766,-3.61862 -3.28976,-8.30064c-0.30203,-4.68209 0.68109,-8.5569 2.19582,-8.65463c1.51473,-0.09766 2.98766,3.61862 3.28969,8.3007z" fill="#169c5b" stroke-width="NaN"/><path d="M252.30196,117.88253c0.12611,1.95557 -0.31108,3.57578 -0.97668,3.61868c-0.66559,0.04297 -1.30749,-1.50763 -1.43354,-3.46327c-0.12611,-1.95557 0.31108,-3.57578 0.97668,-3.61868c0.66559,-0.04297 1.30749,1.50763 1.43354,3.46327z" fill="#000000" stroke-width="0"/><path d="M251.5165,113.46817c0.12768,1.97862 -0.42007,3.62448 -1.22331,3.6763c-0.8033,0.05182 -1.55796,-1.51004 -1.68564,-3.48866c-0.12768,-1.97862 0.42007,-3.62454 1.22331,-3.67636c0.8033,-0.05182 1.55796,1.5101 1.68564,3.48866z" fill="#ffffff" stroke-width="0"/></g><g stroke="none" stroke-linecap="butt" stroke-linejoin="miter"><path d="M225.06765,120.40862c0.21296,3.30246 -0.4803,6.03548 -1.54871,6.10437c-1.06848,0.06888 -2.10727,-2.55235 -2.32037,-5.8548c-0.21296,-3.30245 0.48037,-6.03548 1.54878,-6.10436c1.06848,-0.06888 2.10727,2.55228 2.3203,5.85473z" fill="#169c5b" stroke-width="NaN"/><path d="M224.00152,121.21927c0.08907,1.37937 -0.21941,2.52208 -0.68897,2.55242c-0.46949,0.03034 -0.92212,-1.06334 -1.01119,-2.44271c-0.08907,-1.37937 0.21941,-2.52207 0.68897,-2.55235c0.46949,-0.03034 0.92212,1.06327 1.01112,2.44264z" fill="#000000" stroke-width="0"/><path d="M223.44738,118.10563c0.08998,1.39558 -0.29624,2.55638 -0.86281,2.59297c-0.56663,0.03659 -1.09888,-1.06509 -1.189,-2.46061c-0.08998,-1.39558 0.29624,-2.55652 0.86287,-2.59311c0.56663,-0.03659 1.09882,1.06523 1.18893,2.46075z" fill="#ffffff" stroke-width="0"/></g><g fill="#f59eb2" stroke="none" stroke-width="0" stroke-linecap="butt" stroke-linejoin="miter"><path d="M200.34941,119.6087c0,-0.95502 -0.92622,-5.65985 0.14225,-10.01229c1.01262,-4.12494 4.02293,-7.9334 4.02293,-7.9334c0,0 3.87098,-0.95944 5.93904,-1.16304c2.26136,-0.22264 7.10113,-0.1208 7.10113,-0.1208l-0.375,7.43332c0,0 -6.0885,4.95158 -8.73373,9.19371c-2.64522,4.24213 -4.48206,12.00038 -4.48206,12.00038c0,0 -3.61457,-4.52699 -3.61457,-9.39789z"/><path d="M188.78275,107.17458c0.67068,-3.53045 1.13882,-5.06282 3.0339,-8.56646c1.89508,-3.50365 6.0471,-8.22257 6.0471,-8.22257c0,0 5.81974,-1.56109 9.98737,-1.16304c4.16763,0.39804 10.28196,3.06003 10.28196,3.06003l-1.53167,8.30081c0,0 -15.16695,1.70073 -19.14368,5.43456c-3.84679,3.61183 -8.81955,10.84371 -8.81955,10.84371c0,0 -0.52609,-6.1566 0.14459,-9.68705z"/><path d="M184.73445,87.65589c0,0 9.59779,-8.67496 18.94035,-8.67496c3.82889,0 9.58136,-0.70604 12.98971,1.87372c4.9081,3.71489 6.81814,11.13873 6.81814,11.13873l-9.65611,-0.35728c0,0 -10.95523,-4.55853 -15.35673,-4.55853c-9.34256,0 -13.73537,0.57832 -13.73537,0.57832z"/></g><g fill="none" stroke="#000000" stroke-width="1" stroke-linecap="round" stroke-linejoin="miter"><path d="M258.48016,130.82682c0,0 -1.51863,3.23559 -3.34348,4.367c-1.69994,1.05395 -7.25745,2.20558 -7.25745,2.20558"/><path d="M255.72391,131.46289c0,0 1.72336,-1.02899 2.56488,-0.79523c0.84153,0.23375 1.25145,1.85532 1.25145,1.85532"/></g></g></g></svg>