<svg version="1.1" xmlns="http://www.w3.org/2000/svg" xmlns:xlink="http://www.w3.org/1999/xlink" width="19.40819" height="46.6991" viewBox="0,0,19.40819,46.6991"><g transform="translate(-229.43736,-168.9553)"><g data-paper-data="{&quot;isPaintingLayer&quot;:true}" fill-rule="nonzero" stroke-linejoin="miter" stroke-miterlimit="10" stroke-dasharray="" stroke-dashoffset="0" style="mix-blend-mode: normal"><path d="M238.91345,195.52138c-0.20905,-0.23452 -0.16774,-0.01562 -0.18898,-0.39922c-0.01669,-0.30311 -0.10698,-0.41414 -0.17693,-0.89586c-0.02213,-0.15253 0.10679,-0.56014 0.05265,-0.7361c-0.05148,-0.16647 0.2214,-0.69482 0.27928,-0.8018c0.22555,-0.41602 0.76487,-0.30912 0.89527,-0.30912c0.10324,0 0.59206,0.04455 0.66843,0.12566c0.24758,0.2631 0.22127,0.94517 0.21229,1.6383c-0.00304,0.79272 1.24888,3.15418 0.99092,3.52269c-0.31022,0.33125 -2.73293,-2.14454 -2.73293,-2.14454z" data-paper-data="{&quot;index&quot;:null}" fill="#319a2b" stroke="none" stroke-width="0.17188" stroke-linecap="butt"/><g stroke="none" stroke-width="0" stroke-linecap="butt"><path d="M238.59391,215.65367c-0.29979,-0.01904 -0.60254,-1.1673 -0.6515,-2.02049c-0.06594,-1.14888 0.02391,-2.12199 0.02391,-2.12199l2.25853,0.08371c0,0 -0.04992,1.06255 -0.11516,2.0892c0,0 -0.81232,2.01428 -1.51577,1.96957z" fill="#54c81c"/><path d="M240.19696,211.48942c-0.02791,0.43908 -0.81957,2.15367 -1.35183,2.15808c-0.49882,0.00412 -0.62893,-1.68008 -0.84558,-2.26235c-0.13948,-2.63391 0.57136,-8.69712 0.57136,-8.69712l0.6886,-0.26299c0,0 0.28981,3.53306 0.5176,5.49458c0.1939,1.66947 0.46155,2.91417 0.41988,3.56977z" fill="#ffffff"/></g><g data-paper-data="{&quot;index&quot;:null}" stroke="none" stroke-linecap="butt"><path d="M238.97484,192.55277c0.16428,0.0667 0.29671,0.32791 0.37772,0.69617c0.08112,0.36823 0.11089,0.84341 0.07011,1.33786c-0.04075,0.49454 -0.14442,0.91556 -0.27896,1.19621c-0.13465,0.28069 -0.30012,0.42112 -0.4644,0.35443c-0.16438,-0.06676 -0.29673,-0.32798 -0.37783,-0.69623c-0.08103,-0.36826 -0.11089,-0.84341 -0.07011,-1.33786c0.04076,-0.49454 0.14453,-0.9156 0.27907,-1.19624c0.13455,-0.28065 0.30001,-0.42107 0.46441,-0.35432z" fill="#eb3d66" stroke-width="0.01872"/><path d="M238.74713,192.95036c0.07557,0.02796 0.13014,0.14216 0.15743,0.30428c0.02726,0.16203 0.02712,0.37201 -0.00685,0.59112c-0.034,0.21902 -0.09541,0.40621 -0.16731,0.53169c-0.07189,0.12545 -0.15411,0.18923 -0.22957,0.16124c-0.07553,-0.02785 -0.13012,-0.14216 -0.1574,-0.30428c-0.02723,-0.16205 -0.02717,-0.37189 0.0069,-0.59104c0.03399,-0.21911 0.09539,-0.40631 0.16729,-0.53178c0.0718,-0.12544 0.15401,-0.18911 0.22956,-0.16125z" fill="#ffffff" stroke-width="0.01896"/></g><g data-paper-data="{&quot;index&quot;:null}" stroke="none" stroke-width="0.17188" stroke-linecap="butt"><path d="M238.8955,188.5088c0.01231,1.65217 0.27298,2.27098 0.29115,3.3499c0.0138,0.8194 -0.42937,1.17039 -0.57217,1.05219c-0.331,-0.27381 -1.29763,-3.11124 -1.35077,-4.49891c-0.03341,-0.87703 -0.63379,-2.99507 -0.33677,-3.79772c0.19539,-0.52732 1.035,-0.61541 1.60817,-0.61025c0.44365,0.00312 0.55965,-0.14633 0.59518,0.2823c0.10722,1.29642 -0.24708,2.57032 -0.23478,4.22249z" fill="#319a2b"/><path d="M237.81466,182.87677c-0.31189,0.40806 -0.67535,0.29939 -0.83338,0.17856c-0.75714,-0.61932 -1.25883,-1.74761 -1.22564,-2.62526c-0.04109,0.17406 0.25945,-0.82405 1.20634,-0.75729c0.41026,0.01118 1.15349,-0.16393 1.81309,-0.18619l0.6319,0.14334c0.29039,0.06576 0.43752,0.47143 0.28713,0.75345c-0.02221,0.04172 0.22175,-0.06644 0.36106,0.06386c0.25077,0.23455 0.45879,0.77255 0.26436,1.01731c-0.17028,0.21479 -0.16828,0.6299 -0.51558,0.82734c-0.46832,0.26623 -0.28327,-0.40999 -0.71177,-0.32709c-0.2547,0.04913 -1.27036,0.9028 -1.2775,0.91197z" fill="#f0e9bb"/><path d="M239.1911,184.82944c0.23584,0.16435 -0.19201,-0.56325 -0.48424,-0.4578c-0.28846,0.10417 -1.8007,0.96442 -2.00352,0.7235c-0.35553,-0.47616 0.19028,-1.60607 -0.11481,-2.10657c0.09711,0.1533 0.70465,0.02913 0.70465,0.02913c0.03248,-0.00936 0.49358,-0.20504 0.96421,-0.61926c0.38698,-0.34058 0.77086,-0.71884 0.98655,-0.56806c0.14931,0.10416 0.54704,0.42733 0.55991,0.80355c0.01356,0.39971 0.16621,0.93107 0.06062,1.32971c-0.04569,0.17261 -0.44822,1.15188 -0.53039,1.27274c-0.12525,0.18377 -0.19019,-0.43987 -0.14297,-0.40694z" fill="#ead42f"/></g><path d="M239.24324,186.60399c0.7448,0.53553 1.43351,1.14323 2.12665,1.74353c0.29793,0.23057 0.42831,0.60905 0.45597,0.97326c0.02346,0.39137 -0.17479,0.75131 -0.30206,1.11049c-0.21657,0.54774 -0.5077,1.06317 -0.87666,1.52204c-0.42369,0.58803 -1.03952,1.27127 -1.75329,1.5343c-0.41556,0.23229 -0.36728,0.18427 -0.77602,0.43921c-0.9317,0.42518 -2.01956,0.40195 -2.97906,0.07985c-0.57645,-0.18861 -1.13112,-0.47848 -1.57891,-0.89163c-0.09142,-0.0944 -3.45824,-2.68457 -1.99698,-4.31353c4.63278,-5.1645 7.57617,-2.26441 7.68036,-2.19752z" data-paper-data="{&quot;index&quot;:null}" fill="#f0e9bb" stroke="none" stroke-width="0.17188" stroke-linecap="butt"/><path d="M230.33216,190.30155c0.65205,-0.18662 1.77917,3.06961 1.58213,2.54075c-0.6299,0.25552 -1.44975,0.19866 -1.96171,-0.01362c-0.04687,-0.01942 -0.12207,-0.14715 -0.12207,-0.14715c-0.03397,0.08459 -0.05195,-0.07334 -0.12139,-0.13537c-0.05465,-0.04877 -0.22503,-0.07734 -0.22503,-0.07734c-0.00067,0.04972 0.03134,-0.19187 0.01603,-0.30034c-0.01259,-0.08962 -0.06299,-0.08955 -0.06276,-0.15587c0.0005,-0.46631 0.26711,-1.06629 0.89481,-1.71108z" data-paper-data="{&quot;index&quot;:null}" fill="#ed3e67" stroke="none" stroke-width="0.17188" stroke-linecap="butt"/><path d="M238.37132,186.30178c-0.10225,-0.00976 -0.20889,0.04534 -0.37403,0.11796c-0.1242,0.05449 -0.36572,0.15994 -0.46574,0.17925c-0.2511,0.04846 -0.69674,0.70222 -0.6085,0.70884c0.05519,0.11602 -0.24313,-0.1855 -0.06924,1.23434l0.18556,1.51192c0.01701,0.13912 0.09102,0.69562 -0.00901,1.0215c-0.10751,0.35028 -0.37546,0.78947 -0.45929,0.78536c0,0 -0.64911,-0.07529 -0.93727,-0.04774c-0.10956,0.01048 0.03928,0.10986 0.26828,0.18546c0.03784,0.01255 0.63274,0.16729 0.647,0.1906c0.0765,0.12575 -2.03972,-0.00747 -2.15555,-0.01569l-0.71491,-0.0515c-0.24114,-0.01724 -0.27698,0.20882 -0.34542,0.26497c-0.10292,0.08429 -0.06489,0.20903 0.03347,0.29177c0.12428,0.10483 0.65952,0.5088 0.73151,0.57637c0.38152,0.35749 1.11418,0.54509 1.79252,0.86641c0.39679,0.18789 2.66965,-0.30965 2.28633,-0.31521c-0.17301,-0.00259 0.75239,0.68292 0.6978,1.00863c-0.03878,0.23258 -2.12335,-0.01401 -2.50161,-0.1577l-2.16019,-0.81998c-0.63265,-0.23995 -1.92903,-1.59085 -2.14344,-1.86519l-0.41894,-0.53593c-0.42333,-0.7318 -0.69314,-1.53041 -0.78568,-2.40612c-0.00591,-0.05577 -0.20427,-0.94802 0.13757,-2.02569c0.21583,-0.68058 0.85438,-1.6153 0.90592,-1.68763c0.30229,-0.42419 0.87901,-1.26151 1.59206,-1.89005c0.45357,-0.39983 1.00136,-0.65062 1.44281,-0.86491c0.07925,-0.03859 0.40028,1.23729 0.47315,1.19785c0.03528,-0.01923 0.66862,0.72819 0.74706,0.77476l0.52367,0.31113c0.52942,0.31449 1.36537,0.23556 1.4904,0.2025c0.17121,-0.04512 0.72476,-0.22788 0.82208,-0.35364l0.3284,-0.42356c0.04482,-0.05815 0.04913,-0.84904 0.11555,-0.86332c0.23413,-0.05023 0.92933,0.56948 1.05488,0.70655l0.66084,0.72127c0.21281,0.23237 0.3438,0.34845 0.57207,0.75651c0.31342,0.55975 0.62458,1.12106 0.80673,1.77388c0.14731,0.52755 0.16102,2.56577 0.05445,2.44946l-0.90759,-0.98795l-1.36804,-1.27934l-1.94564,-1.24612z" data-paper-data="{&quot;index&quot;:null}" fill="#54c81c" stroke="none" stroke-width="0.17188" stroke-linecap="butt"/><path d="M239.45599,182.25069c-0.31493,1.00689 -2.76558,0.81804 -2.76558,0.81804c-0.30393,-0.22272 -0.38018,-1.42117 0.3259,-2.20499c0.53976,-0.59898 1.06633,-0.86313 1.4914,-0.87755c0.06068,-0.00206 0.06447,0.04456 0.14724,0.05365c0.10011,0.0108 0.31795,-0.02591 0.27261,-0.02385c0,0 0.03922,0.15675 0.08785,0.20572c0.06184,0.06235 0.20751,0.07416 0.13293,0.10808c0,0 0.12238,0.06567 0.14368,0.10847c0.23323,0.46695 0.34829,1.22283 0.16397,1.81248z" data-paper-data="{&quot;index&quot;:null}" fill="#ed3e67" stroke="none" stroke-width="0.17188" stroke-linecap="butt"/><path d="M236.77891,184.08572c0.11024,-0.03777 -0.41093,-0.29882 -0.78694,-0.73456c-0.40156,-0.46524 -0.65525,-1.11854 -0.37411,-1.55163c0.16241,-0.25003 0.39664,-0.40907 0.60302,-0.56918c0.42569,-0.33034 0.81086,-0.49941 0.75992,-0.31126c-0.08634,0.31936 -0.14138,0.77004 -0.1469,1.09413c-0.00797,0.46214 0.01337,0.77863 0.04088,0.77588l1.76824,-0.17764l0.85294,-0.369c0.1344,-0.06673 0.10993,0.35674 0.00606,0.77911c-0.08952,0.36467 -0.05882,0.6865 -0.1011,0.80668c-0.18748,0.53564 -0.34951,0.32871 -1.00228,0.63816c-0.37961,0.17989 -1.78558,-0.32414 -1.61971,-0.38068z" data-paper-data="{&quot;index&quot;:null}" fill="#54c81c" stroke="none" stroke-width="0.17188" stroke-linecap="butt"/><path d="M236.3107,184.66513c-1.01765,-0.78079 -1.88603,-2.06237 -1.03043,-2.52325c0.35873,-0.19335 0.22045,0.40653 0.66517,1.0821c0.28302,0.42992 0.8615,0.89304 1.76402,1.19311c0.09474,0.03134 0.33851,0.01205 0.66109,-0.02248c0.49443,-0.05277 1.14484,-1.2818 1.12155,-1.03407l-0.09131,0.96744l-0.43575,0.41163c-0.20023,0.31822 -1.72311,0.63988 -2.65432,-0.07449z" data-paper-data="{&quot;index&quot;:null}" fill="#ead32e" stroke="none" stroke-width="0.17188" stroke-linecap="butt"/><path d="M231.23982,190.51764c0.16894,0.21909 0.30788,0.71309 0.30788,0.71309c-0.12944,-0.04281 -0.22821,-0.26805 -0.32423,-0.33425c-0.22201,-0.15301 -0.64017,-0.69584 -0.72055,-1.35232l-0.04561,-0.37331c-0.02254,-0.18383 0.16492,-0.65911 0.27153,-0.70027c0.19123,-0.00306 0.09907,0.67608 0.30155,1.31989c0.09707,0.30862 0.20945,0.72719 0.20945,0.72719z" data-paper-data="{&quot;index&quot;:null}" fill="#ead32e" stroke="none" stroke-width="0.17188" stroke-linecap="butt"/><path d="M231.08806,190.59167c0.0763,0.12769 0.49774,0.69532 0.71215,0.96648l0.84496,1.06872c0.06217,0.07862 -0.80804,0.3497 -1.01485,0.1335c-0.34515,-0.09395 -0.51279,-0.35005 -0.72894,-0.56149c-0.17987,-0.30844 -0.38035,-0.78778 -0.41978,-1.03884c-0.03174,-0.20221 -0.50415,-0.33811 -0.585,-0.55119c-0.12189,-0.3207 0.51921,-1.14122 0.51921,-1.14122z" data-paper-data="{&quot;index&quot;:null}" fill="#54c81c" stroke="none" stroke-width="0.17188" stroke-linecap="butt"/><path d="M239.44816,192.03042c-0.33755,0.60498 -0.7026,0.81992 -0.7026,0.81992c0,0 -0.52757,-0.54068 0.21842,-1.9615c0.18826,-0.35858 1.15586,-0.50159 1.15586,-0.50159c0,0 -0.33413,1.03819 -0.67169,1.64316z" fill="none" stroke="#dfcfa3" stroke-width="0.36953" stroke-linecap="round"/><g stroke="none" stroke-width="0" stroke-linecap="butt"><path d="M243.4031,213.3304c-0.10967,0.75203 -0.75915,1.71731 -1.08315,1.62807c-0.82649,-0.22766 -1.49088,-3.80965 -1.49088,-3.80965l1.29058,1.67933l0.83947,-1.90965c0,0 0.61409,1.24556 0.44398,2.4119z" data-paper-data="{&quot;index&quot;:null}" fill="#54c81c"/><path d="M242.93669,211.55049c-0.51604,1.87338 -0.89036,1.54367 -0.89036,1.54367c0,0 -0.8825,-0.21959 -1.23801,-2.12995c-0.03621,-0.1946 -0.5255,-5.64748 -0.5255,-5.64748c0,0 -0.26623,-1.4297 0.35924,-2.14345c0.64271,-0.73345 -0.051,-0.85047 0.52468,-0.0883c0.57568,0.76216 0.44909,4.21012 0.90147,5.94609c0.19465,0.74699 1.02371,1.95579 0.86846,2.51939z" fill="#ffffff"/></g><g data-paper-data="{&quot;index&quot;:null}" stroke="none" stroke-width="0.17188" stroke-linecap="butt"><path d="M240.22737,192.65308c0.01817,-1.07889 0.27885,-1.69772 0.29114,-3.3499c0.01228,-1.65217 -0.342,-2.92607 -0.23478,-4.22249c0.03552,-0.42864 0.15153,-0.27918 0.59518,-0.2823c0.57316,-0.00517 1.41277,0.08291 1.60817,0.61025c0.29699,0.80266 -0.30337,2.92071 -0.33677,3.79772c-0.05314,1.38767 -1.01977,4.22512 -1.35077,4.49891c-0.14279,0.1182 -0.58598,-0.23279 -0.57216,-1.05219z" fill="#319a2b"/><path d="M241.59928,183.67115c-0.00714,-0.00917 -1.02279,-0.86282 -1.2775,-0.91197c-0.42851,-0.08289 -0.24346,0.59331 -0.71177,0.32709c-0.3473,-0.19743 -0.3453,-0.61255 -0.51558,-0.82734c-0.19443,-0.24477 0.01358,-0.78276 0.26436,-1.01731c0.13933,-0.1303 0.38329,-0.02214 0.36106,-0.06386c-0.15039,-0.282 -0.00326,-0.68769 0.28712,-0.75345l0.6319,-0.14334c0.6596,0.02226 1.40281,0.19738 1.81309,0.18619c0.94691,-0.06675 1.24743,0.93136 1.20635,0.75729c0.03319,0.87764 -0.46849,2.00593 -1.22564,2.62526c-0.15802,0.12083 -0.52149,0.2295 -0.83338,-0.17856z" fill="#f0e9bb"/><path d="M240.70713,185.16605c-0.29223,-0.10544 -0.72009,0.62217 -0.48424,0.4578c0.04722,-0.03292 -0.01772,0.59072 -0.14297,0.40694c-0.08218,-0.12087 -0.4847,-1.10014 -0.53039,-1.27274c-0.10562,-0.39863 0.04705,-0.92998 0.06062,-1.32971c0.0129,-0.37624 0.4106,-0.6994 0.55991,-0.80355c0.21568,-0.15077 0.59956,0.22749 0.98655,0.56806c0.47066,0.41424 0.93175,0.60991 0.96421,0.61926c0,0 0.60755,0.12417 0.70465,-0.02913c-0.30509,0.50049 0.24072,1.6304 -0.11481,2.10657c-0.20281,0.24091 -1.71506,-0.61932 -2.00352,-0.7235z" fill="#ead42f"/></g><path d="M237.31157,176.1868c-0.35638,-0.55692 0.14013,-1.36182 0.14254,-2.05729c0.0022,-0.51424 0.52596,-3.57748 0.52107,-4.04919c0.20569,-1.45017 0.64557,-1.28908 1.02251,-0.6813c0.24977,0.36147 -0.12654,4.31835 -0.12048,4.76893c0.00707,0.62983 0.19723,1.46022 -0.18522,1.92147c-0.32199,0.37975 -1.11402,0.51392 -1.38042,0.09734z" data-paper-data="{&quot;index&quot;:null}" fill="#f8b820" stroke="none" stroke-width="0.65663" stroke-linecap="round"/><g data-paper-data="{&quot;index&quot;:null}" stroke-linecap="round"><path d="M239.33278,179.14798c0,0 0.1339,0.21837 -0.03805,0.61119c-0.16411,0.37468 -0.72853,0.68404 -1.23385,0.76165c-0.69336,0.10627 -1.49719,0.07975 -2.02925,-0.23579c-0.61506,-0.3644 -0.99995,-0.99841 -1.0726,-1.60889c-0.07363,-0.62372 0.33715,-1.25423 0.66305,-1.84701c0.30947,-0.56273 0.64636,-1.17081 1.22206,-1.58594c0.16502,-0.11881 0.21702,0.33659 0.42632,0.36752c0.34127,0.05044 0.706,-0.06753 1.05383,-0.12468c0.19989,-0.03295 0.44315,-0.273 0.55885,-0.17726c0.30172,0.29982 0.33146,0.70797 0.39386,1.08105c0.02508,0.15098 -0.02611,0.30551 -0.08506,0.45253c-0.11386,0.28336 -0.06093,0.46216 -0.23863,0.68192c0.19816,0.41369 1.54599,0.67753 0.37947,1.62371z" fill="#a8c8d8" stroke="none" stroke-width="0.6774"/><path d="M238.79871,176.82685l-1.06691,0.31504l-1.49311,-0.67119" fill="none" stroke="#707070" stroke-width="0.7719"/></g><path d="M241.58416,178.04703c-0.33655,-0.56911 0.18802,-1.35604 0.21492,-2.05099c0.02033,-0.51386 0.0167,-1.04397 -0.07363,-1.56568c-0.11897,-0.6873 0.4273,-3.9115 0.57506,-4.5615c0.09182,-0.4029 0.54121,-1.07298 0.80738,-0.75229c0.56367,0.70062 -0.26633,4.69376 -0.06538,5.61517c0.09247,0.42607 0.18664,0.90249 0.17743,1.35284c-0.01524,0.615 0.14567,1.46628 -0.25279,1.91376c-0.33518,0.36818 -1.13144,0.47435 -1.38299,0.04865z" data-paper-data="{&quot;index&quot;:null}" fill="#f8b820" stroke="none" stroke-width="0.65663" stroke-linecap="round"/><g data-paper-data="{&quot;index&quot;:null}" stroke-linecap="round"><path d="M242.23716,183.41581c-0.68935,-0.00886 -1.21945,-0.45592 -1.74696,-0.75857c-0.43539,-0.28027 -1.07213,-0.54325 -1.1107,-0.96997c-0.04284,-0.47339 0.99227,-1.18585 0.90807,-1.27603c-0.08345,-0.08901 -1.08873,1.04834 -1.3743,0.8222c-0.42276,-0.33551 -0.29808,-1.31859 -0.04473,-1.96642c0.18909,-0.44059 1.14219,-0.59565 1.27805,-1.06698c0.13406,-0.46249 -0.87606,-1.21966 -0.58076,-1.31774c0.47591,-0.10874 1.37625,0.72575 2.13383,0.90095c0.42684,0.09878 0.93049,0.02623 1.35174,-0.11181c0.57033,-0.1871 1.29569,-1.08899 1.5386,-0.84359c0.34764,0.35173 -0.16729,1.36938 -0.36247,2.0409c-0.06468,0.22843 -0.46942,0.23577 -0.44739,0.50849c0.08871,1.09086 1.18212,2.20031 0.7658,3.28747c-0.23591,0.61731 -1.48784,0.76114 -2.30875,0.75113z" fill="#ffffff" stroke="none" stroke-width="0.67216"/><path d="M243.9688,178.87515l-1.41862,0.36497l-1.93366,-0.95243" fill="none" stroke="#707070" stroke-width="0.84586"/></g><g fill="none" stroke="#000000" stroke-width="0.5" stroke-linecap="round"><path d="M239.11029,188.90786l-1.91667,-0.91667"/><path d="M237.61029,189.32453l1,-1.66667"/></g><g fill="none" stroke="#000000" stroke-width="0.5" stroke-linecap="round"><path d="M234.01715,192.34413l1.91667,0.91667"/><path d="M235.43382,192.0108l-1,1.66667"/></g><path d="M237.92025,202.72004c0,0.10516 -0.77257,1.62259 -0.71917,2.37063c0.01751,0.24517 -1.33989,0.50235 -2.18943,0.51508c-0.84954,0.01274 -3.3562,-0.67652 -3.3562,-0.67652l1.53178,-0.6546l1.55001,0.22406l1.4705,0.03133z" data-paper-data="{&quot;index&quot;:null}" fill="#54c81c" stroke="none" stroke-width="0.17188" stroke-linecap="butt"/><path d="M237.2204,202.13891c-0.00969,-0.58517 2.68388,-0.19714 2.68388,0.05723c0,0.10516 -0.11452,2.35532 -0.06112,3.10325c0.03138,0.43948 -0.46248,1.44923 -1.14394,2.04748c-0.68146,0.59825 -4.41524,0.91763 -4.41524,0.91763c0,0 0.75853,-0.80274 1.13716,-1.47536c0.37863,-0.67262 1.18102,-1.20946 1.15162,-1.86874z" data-paper-data="{&quot;index&quot;:null}" fill="#54c81c" stroke="none" stroke-width="0.17188" stroke-linecap="butt"/><path d="M234.61836,203.38746c0.50664,-0.40216 0.61719,-0.19217 1.34518,-1.32019c0.72799,-1.12802 0.97481,-3.35775 2.25954,-4.94974c0.35568,0.86729 -0.25862,3.898 -0.44012,4.95584c-0.1815,1.05784 -0.53403,1.53725 -0.64249,2.14698c-0.11717,0.65807 -2.46049,0.37845 -3.71623,0.24874c-1.25574,-0.12971 0.68749,-0.67946 1.19412,-1.08163z" data-paper-data="{&quot;index&quot;:null}" fill="#ffffff" stroke="none" stroke-width="0.17188" stroke-linecap="butt"/><path d="M238.16795,196.87512c0.20621,-0.3003 0.23791,-0.44298 0.43396,-0.68278c0.05801,-0.07095 0.24994,-0.10548 0.33132,-0.16458c0.08876,-0.06445 0.12884,-0.24215 0.25917,-0.28878c0.34343,-0.12287 0.47581,0.42863 0.85601,0.76628c0.34354,0.3051 0.68251,0.71342 0.70957,0.9358c0.05699,0.46849 0.46698,1.0814 0.19368,2.36656c-0.27331,1.28516 -0.81486,3.67852 -0.92333,4.28824c-0.11717,0.65808 -0.55277,0.10419 -0.74504,0.44203c-0.3929,0.69132 -2.11945,1.17924 -2.48647,1.17924c-0.38376,0 0.30104,-1.03972 0.33902,-1.60658c0.03798,-0.56686 0.19974,-0.46821 0.19974,-1.70925c0,-1.25414 0.1254,-1.60016 0.3311,-2.57856c0,0 0.06288,-2.30024 0.50126,-2.94762z" data-paper-data="{&quot;index&quot;:null}" fill="#ffffff" stroke="none" stroke-width="0.17188" stroke-linecap="butt"/><path d="M239.74672,204.40494c-0.01497,-0.67002 2.22071,-0.36947 2.22071,-0.07813c0,0.12034 2.73429,0.38509 3.3844,0.6736c0.65012,0.2885 1.84606,1.45427 1.84606,1.45427l-2.80734,0.3115c0,0 -1.63325,-0.02504 -2.6103,-0.34291c-0.97705,-0.31787 -1.9616,-1.11739 -1.9616,-1.11739z" data-paper-data="{&quot;index&quot;:null}" fill="#54c81c" stroke="none" stroke-width="0.17188" stroke-linecap="butt"/><g data-paper-data="{&quot;index&quot;:null}" stroke="none" stroke-linecap="butt"><path d="M247.6463,203.06507c0.04051,0.77199 -4.67408,0.93179 -5.04534,0.26347c-0.9395,-1.68236 -2.61389,-6.6549 -2.29376,-6.78326c0.26133,-0.08294 0.86405,0.57645 3.40108,3.26802c0.5623,0.88754 3.73388,2.64425 3.93802,3.25178z" data-paper-data="{&quot;index&quot;:null}" fill="#ffffff" stroke-width="0.19137"/><path d="M244.05952,203.22603c0.73625,-0.16713 3.26615,-0.64231 3.26615,-0.64231l1.51988,0.91407c0,0 -4.27953,1.39698 -4.52714,1.08646c-0.57115,-0.71694 -1.93151,-1.44992 -1.97648,-1.7014c-0.06451,-0.36068 0.48148,0.34362 1.21759,0.17652z" data-paper-data="{&quot;index&quot;:null}" fill="#54c81c" stroke-width="0.17188"/></g><path d="M239.5016,195.863c1.88355,1.05095 3.01721,4.03638 3.33473,5.34749c0.11284,0.46597 2.19277,3.57869 2.86126,4.43616c0.26878,0.34476 -1.1691,0.11878 -1.9932,0.05813c-0.82411,-0.06064 -1.53216,-0.31755 -1.53216,-0.31755c0,0 -0.87492,-0.25271 -1.35397,-0.59052c-0.47905,-0.33782 -0.94045,0.22607 -0.94045,-1.19411c0,-1.4353 -0.00886,-4.00791 0.08643,-4.96529c0.09529,-0.95738 -1.127,-3.145 -0.46264,-2.77431z" data-paper-data="{&quot;index&quot;:null}" fill="#ffffff" stroke="none" stroke-width="0.17188" stroke-linecap="butt"/></g></g></svg>