<svg version="1.1" xmlns="http://www.w3.org/2000/svg" xmlns:xlink="http://www.w3.org/1999/xlink" width="231.60058" height="98.91302" viewBox="0,0,231.60058,98.91302"><g transform="translate(-129.60758,-203.27004)"><g data-paper-data="{&quot;isPaintingLayer&quot;:true}" fill-rule="nonzero" stroke-linejoin="miter" stroke-miterlimit="10" stroke-dasharray="" stroke-dashoffset="0" style="mix-blend-mode: normal"><g data-paper-data="{&quot;index&quot;:null}"><g stroke="none" stroke-width="0" stroke-linecap="butt"><path d="M265.27442,231.35303c0,0 -21.62852,2.40567 -29.36802,3.76431c-7.73956,1.35861 -19.49451,4.8131 -19.49451,4.8131c0,0 4.10535,-15.47793 20.25735,-24.82148c18.57381,-10.7445 34.72588,-4.91935 34.72588,-4.91935c0,0 -4.7929,5.53885 -5.57451,9.25707c-0.78851,3.75106 -0.54618,11.90643 -0.54618,11.90643z" data-paper-data="{&quot;index&quot;:null}" fill="#f8b820"/><path d="M295.99756,245.47945c-1.72925,-0.22313 -12.49888,-8.62779 -17.19234,-10.83848c-4.69345,-2.21069 -13.53477,-3.1616 -13.53477,-3.1616c0,0 -1.38175,-6.74743 -0.16374,-11.26301c1.21799,-4.51552 6.34743,-10.08421 6.34743,-10.08421c0,0 13.53056,5.54124 19.73672,12.8237c11.37202,13.34431 6.47895,22.73952 4.80665,22.52372z" fill="#ffffff"/></g><path d="M270.01918,214.4156l-3.98091,-1.2277" fill="none" stroke="#808080" stroke-width="0.5" stroke-linecap="round"/><path d="M263.48744,222.14672l3.63011,0.63901" fill="none" stroke="#808080" stroke-width="0.5" stroke-linecap="round"/><path d="M266.05114,230.601l-3.37377,-0.46848" fill="none" stroke="#808080" stroke-width="0.5" stroke-linecap="round"/></g><g data-paper-data="{&quot;index&quot;:null}"><g stroke="none" stroke-width="0" stroke-linecap="butt"><path d="M160.42328,244.02627c0,0 -0.46672,-8.18088 -1.5741,-11.86539c-1.09759,-3.65225 -5.04118,-10.14564 -5.04118,-10.14564c0,0 16.12861,-6.7106 31.98299,-2.66547c21.88477,5.58377 31.37335,19.66106 31.37335,19.66106c0,0 -11.02543,5.47403 -19.45577,5.64825c-8.43025,0.17412 -37.28545,-0.63284 -37.28545,-0.63284z" fill="#f8b820"/><path d="M129.89278,250.69893c-1.60086,-2.05294 3.92579,-11.76376 6.92076,-15.09733c6.25639,-8.32341 16.86011,-13.5818 16.86011,-13.5818c0,0 4.88023,5.85788 6.30771,10.90489c1.42758,5.04708 0.64419,11.16909 0.64419,11.16909c0,0 -14.90633,3.47232 -16.29608,4.16938c-4.3206,2.16706 -12.99306,4.28698 -14.4367,2.43571z" fill="#ffffff"/></g><path d="M162.09525,242.09885l-3.48789,0.52859" fill="none" stroke="#808080" stroke-width="0.5" stroke-linecap="round"/><path d="M157.16896,234.28122l3.54542,-0.95503" fill="none" stroke="#808080" stroke-width="0.5" stroke-linecap="round"/><path d="M154.40814,226.23979l3.18125,-1.42206" fill="none" stroke="#808080" stroke-width="0.5" stroke-linecap="round"/></g><g data-paper-data="{&quot;index&quot;:null}"><g><path d="M172.03456,233.5781c4.3445,0.24614 19.26193,8.25087 20.32289,14.39835c0.28951,1.67692 -6.72672,14.5903 -18.06498,23.90307c-14.09272,11.57512 -26.07721,13.13671 -27.00512,10.46555c-4.30596,-9.59409 7.81584,-33.50503 10.5932,-37.73128c2.77722,-4.22618 9.80947,-11.28188 14.15397,-11.03573z" fill="#c01515" stroke="none" stroke-width="0" stroke-linecap="butt"/><path d="M152.95327,254.37422c0,0 0.76344,-1.94118 1.36318,-3.13151c0.59974,-1.19034 3.06989,-5.66671 3.06989,-5.66671c0,0 9.7344,3.43073 14.99081,7.25284c5.25637,3.82198 9.9497,10.88198 9.9497,10.88198c0,0 -3.69653,4.40953 -6.22441,6.6242c-2.52778,2.21467 -4.7686,3.59825 -4.7686,3.59825c0,0 -3.9795,-7.65395 -7.52607,-11.38263c-3.54657,-3.72868 -10.8544,-8.17637 -10.8544,-8.17637z" fill="#a8c8d8" stroke="none" stroke-width="0" stroke-linecap="butt"/><path d="M188.87156,250.33616c0,0 -10.78451,12.29914 -18.89833,18.81791c-8.11382,6.51877 -21.45426,13.44243 -21.45426,13.44243" fill="none" stroke="#000000" stroke-width="0.25" stroke-linecap="round"/><path d="M186.4936,250.32088l1.72338,2.25746" fill="none" stroke="#808080" stroke-width="0.5" stroke-linecap="round"/><path d="M180.31882,255.83358l2.30361,2.90746" fill="none" stroke="#808080" stroke-width="0.5" stroke-linecap="round"/><path d="M165.45044,273.19545l-1.70596,-2.56506" fill="none" stroke="#808080" stroke-width="0.5" stroke-linecap="round"/><path d="M156.45518,279.47409l-2.01352,-2.58244" fill="none" stroke="#808080" stroke-width="0.5" stroke-linecap="round"/><path d="M173.06452,263.25914l2.73263,3.50482" fill="none" stroke="#808080" stroke-width="0.5" stroke-linecap="round"/></g><path d="M208.52142,249.65186c0,0 5.85918,0.43889 9.2034,0.68947c3.34417,0.25055 8.88136,0.65377 8.88136,0.65377l5.6204,7.64651c0,0 -6.32662,0.12606 -10.27943,-0.59713c-3.95275,-0.72316 -13.39606,-3.29313 -13.39606,-3.29313z" fill="#f8b820" stroke="none" stroke-width="0" stroke-linecap="butt"/><path d="M209.53591,252.45914c-0.64488,3.43452 -3.63963,2.51723 -10.14293,1.00978c-3.48217,-0.80717 -11.64602,-2.46903 -10.5461,-6.09322c1.03009,-3.39416 7.40338,-1.8033 10.91649,-1.14367c3.5131,0.65963 10.26159,3.62236 9.77255,6.22709z" fill="#ffffff" stroke="none" stroke-width="0" stroke-linecap="butt"/></g><g data-paper-data="{&quot;index&quot;:null}"><path d="M296.51732,254.48859c0,0 -6.99502,-2.35986 -11.53443,-3.25054c-5.40593,-1.06083 -18.75818,-2.6935 -18.75818,-2.6935l0.32146,-4.84897c0,0 15.30923,1.52633 21.75303,2.63528c5.49247,0.94517 18.53773,6.13606 18.53773,6.13606l-10.3197,2.02176z" fill="#f8b820" stroke="none" stroke-width="0" stroke-linecap="butt"/><g data-paper-data="{&quot;index&quot;:null}"><path d="M318.37165,252.5363c14.94889,5.71369 17.16083,23.21679 14.66279,25.12883c-6.83287,5.36099 -14.11862,3.82083 -25.24093,0.47341c-13.47156,-4.05434 -17.47092,-20.85146 -12.48359,-25.57629c1.63292,-1.54681 12.24057,-4.16193 23.06175,-0.02596z" fill="#a8c8d8" stroke="none" stroke-width="0" stroke-linecap="butt"/><path d="M297.44212,260.64368l5.48367,-3.52833" fill="none" stroke="#808080" stroke-width="0.5" stroke-linecap="round"/><path d="M303.63103,268.61775l4.19199,-2.97519" fill="none" stroke="#808080" stroke-width="0.5" stroke-linecap="round"/><path d="M313.7562,271.06986l-3.70471,3.35673" fill="none" stroke="#808080" stroke-width="0.5" stroke-linecap="round"/><path d="M320.98125,275.94433l-2.41301,2.80381" fill="none" stroke="#808080" stroke-width="0.5" stroke-linecap="round"/><path d="M326.14939,280.08662c0,0 -14.2298,-5.34887 -19.31717,-10.84475c-5.08742,-5.49592 -10.1566,-16.2378 -10.1566,-16.2378" fill="none" stroke="#020202" stroke-width="0.25" stroke-linecap="round"/></g></g><g data-paper-data="{&quot;index&quot;:null}"><path d="M231.39831,234.09163c9.66648,-0.77717 12.74439,0.35929 19.44379,4.86269c9.98471,6.7119 12.21179,19.21196 -0.49744,29.10017c-12.88147,10.02226 -40.63469,5.5262 -41.65135,-5.63874c-0.94526,-10.38155 1.77009,-26.6412 22.705,-28.3242z" fill="#f8b820" stroke="none" stroke-width="0" stroke-linecap="butt"/><path d="M229.69803,243.05636c21.0026,2.85074 21.09056,13.87558 21.1052,18.72445c0.02487,8.24319 -6.46142,17.45695 -19.92001,18.22457c-10.07136,0.57435 -22.72954,-9.54989 -21.97881,-17.45595c1.11273,-11.71938 13.54429,-20.47716 20.79362,-19.49315z" fill="#ffffff" stroke="none" stroke-width="0" stroke-linecap="butt"/><path d="M243.6865,249.69466l2.40511,-2.60772" fill="none" stroke="#808080" stroke-width="0.5" stroke-linecap="round"/><path d="M234.17549,242.1293l-0.29951,2.94102" fill="none" stroke="#808080" stroke-width="0.5" stroke-linecap="round"/><path d="M221.6434,242.63572l1.47271,5.37991" fill="none" stroke="#808080" stroke-width="0.5" stroke-linecap="round"/><path d="M211.52087,250.99476l1.82283,3.69207" fill="none" stroke="#808080" stroke-width="0.5" stroke-linecap="round"/></g><g data-paper-data="{&quot;index&quot;:null}"><g><path d="M156.054,222.02792c4.3445,0.24614 19.26193,8.25087 20.32289,14.39835c0.28951,1.67692 -6.72672,14.5903 -18.06498,23.90307c-14.09272,11.57512 -26.07721,13.13671 -27.00512,10.46555c-4.30596,-9.59409 7.81584,-33.50503 10.5932,-37.73128c2.77722,-4.22618 9.80947,-11.28188 14.15397,-11.03573z" fill="#f72526" stroke="none" stroke-width="0" stroke-linecap="butt"/><path d="M136.97271,242.82405c0,0 0.76344,-1.94118 1.36318,-3.13151c0.59974,-1.19034 3.06989,-5.66671 3.06989,-5.66671c0,0 9.7344,3.43073 14.99081,7.25284c5.25637,3.82198 9.9497,10.88198 9.9497,10.88198c0,0 -3.69653,4.40953 -6.22441,6.6242c-2.52778,2.21467 -4.7686,3.59825 -4.7686,3.59825c0,0 -3.9795,-7.65395 -7.52607,-11.38263c-3.54657,-3.72868 -10.8544,-8.17637 -10.8544,-8.17637z" fill="#ffffff" stroke="none" stroke-width="0" stroke-linecap="butt"/><path d="M172.891,238.786c0,0 -10.78451,12.29914 -18.89833,18.81791c-8.11382,6.51877 -21.45426,13.44243 -21.45426,13.44243" fill="none" stroke="#000000" stroke-width="0.25" stroke-linecap="round"/><path d="M172.23642,241.02817l-1.72338,-2.25746" fill="none" stroke="#808080" stroke-width="0.5" stroke-linecap="round"/><path d="M164.33834,244.28331l2.30361,2.90746" fill="none" stroke="#808080" stroke-width="0.5" stroke-linecap="round"/><path d="M149.46985,261.64533l-1.70596,-2.56506" fill="none" stroke="#808080" stroke-width="0.5" stroke-linecap="round"/><path d="M140.47467,267.92388l-2.01352,-2.58244" fill="none" stroke="#808080" stroke-width="0.5" stroke-linecap="round"/><path d="M159.81664,255.21374l-2.73263,-3.50482" fill="none" stroke="#808080" stroke-width="0.5" stroke-linecap="round"/></g><path d="M192.54087,238.1017c0,0 5.85918,0.43889 9.2034,0.68947c3.34417,0.25055 8.88136,0.65377 8.88136,0.65377l5.6204,7.64651c0,0 -6.32662,0.12606 -10.27943,-0.59713c-3.95275,-0.72316 -13.39606,-3.29313 -13.39606,-3.29313z" fill="#f8b820" stroke="none" stroke-width="0" stroke-linecap="butt"/><path d="M193.55547,240.90882c-0.64488,3.43452 -3.63963,2.51723 -10.14293,1.00978c-3.48217,-0.80717 -11.64602,-2.46903 -10.5461,-6.09322c1.03009,-3.39416 7.40338,-1.8033 10.91649,-1.14367c3.5131,0.65963 10.26159,3.62236 9.77255,6.22709z" fill="#ffffff" stroke="none" stroke-width="0" stroke-linecap="butt"/></g><g data-paper-data="{&quot;index&quot;:null}"><path d="M271.8912,216.11596c24.99897,-11.73667 51.70669,0.72014 57.98805,14.92724c6.11935,13.84055 5.28665,18.92581 1.98273,28.42099c-8.5087,24.45358 -54.5976,28.55512 -61.2378,14.98602c-7.81722,-15.97437 -15.24444,-50.58239 1.26709,-58.33427z" fill="#f8b820" stroke="none" stroke-width="0" stroke-linecap="butt"/><path d="M271.00805,220.77184c3.74763,-1.67609 17.61498,15.36367 16.92178,34.78397c-0.29458,8.25229 -8.78273,22.35947 -11.74911,21.77748c-9.44029,-1.96559 -13.60255,-9.44941 -17.09613,-16.93153c-6.43024,-13.77152 1.01882,-34.75308 11.92345,-39.62998z" fill="#ffffff" stroke="none" stroke-width="0" stroke-linecap="butt"/><path d="M304.06672,212.81999c-2.20684,-1.45234 23.84502,-17.57249 34.60677,-4.42096c1.61997,1.97978 0.89991,9.32221 -0.84888,13.73249c-1.74876,4.41021 -8.34845,9.46241 -8.34845,9.46241c0,0 -6.26291,-6.98562 -11.01666,-10.83104c-4.75382,-3.84544 -12.83407,-6.91715 -14.39272,-7.94294z" fill="#ffffff" stroke="none" stroke-width="0" stroke-linecap="butt"/><path d="M335.7535,281.35979c-2.19348,4.95866 -10.43076,6.15833 -17.67467,4.36581c-7.99528,-1.97844 -15.20026,-6.50873 -15.20026,-6.50873c0,0 8.77973,-3.98744 16.07684,-7.55832c7.29711,-3.57089 12.26312,-11.56295 12.26312,-11.56295c0,0 9.99262,8.92627 4.53497,21.2642z" fill="#ffffff" stroke="none" stroke-width="0" stroke-linecap="butt"/><g stroke="none" stroke-width="0" stroke-linecap="butt"><path d="M293.90735,259.96434c5.12025,-3.51437 11.94787,-2.61034 15.24992,2.01916c3.30212,4.62949 1.82815,11.23131 -3.29211,14.74561c-5.12019,3.51435 -11.94778,2.61039 -15.24984,-2.01912c-3.30204,-4.62944 -1.82817,-11.23137 3.29209,-14.74568z" fill="#ffffff"/><path d="M300.61268,273.35452c-3.13685,0.72595 -6.19484,-0.91065 -6.82999,-3.65547c-0.63519,-2.74474 1.39284,-5.55838 4.52981,-6.28438c3.13685,-0.72595 6.81542,0.91593 7.45054,3.66076c0.63519,2.74474 -2.01341,5.55305 -5.15032,6.27902z" fill="#000000"/></g><g stroke="none" stroke-width="0" stroke-linecap="butt"><path d="M310.78951,232.10734c0.58409,5.18979 -4.65206,10.03949 -11.69535,10.8322c-7.04322,0.79268 -13.2264,-2.7718 -13.8105,-7.96158c-0.58401,-5.18974 4.65206,-10.03949 11.69535,-10.8322c7.04322,-0.79268 13.2264,2.7718 13.8105,7.96158z" fill="#ffffff"/><path d="M298.50691,238.85696c-3.13685,0.72595 -6.19484,-0.91065 -6.82999,-3.65547c-0.63519,-2.74474 1.39284,-5.55838 4.52981,-6.28438c3.13685,-0.72595 6.81542,0.91593 7.45054,3.66076c0.63519,2.74474 -2.01341,5.55305 -5.15032,6.27902z" fill="#000000"/></g><path d="M302.10156,239.42803c0,0 7.86904,-4.74768 11.46484,-5.30145c4.98382,-0.76753 9.03553,2.99421 9.03553,2.99421l1.15364,24.7729c0,0 -5.90863,2.97496 -9.44764,3.15947c-2.85819,0.14903 -12.347,-4.54665 -12.347,-4.54665c0,0 4.1765,-3.30149 7.38934,-5.29154c3.21279,-1.99004 9.01508,-4.8694 9.01508,-4.8694l-16.26388,-10.91737z" fill="#f8b820" stroke="none" stroke-width="0" stroke-linecap="butt"/><g stroke="none" stroke-width="0" stroke-linecap="butt"><path d="M285.3984,250.69192c1.54966,3.16668 0.87821,8.9598 -3.75189,9.98758c-2.1698,0.48161 -3.57967,-1.85678 -4.12152,-6.75265c-0.38783,-3.50409 -0.38242,-7.53765 2.90592,-8.90009c2.05335,-0.85073 3.41777,2.49851 4.96742,5.66518z" fill="#71716f"/><path d="M280.95109,245.188c1.45946,-0.94774 3.35698,-0.11195 4.68716,1.36971c1.33018,1.48167 1.58385,3.25005 1.47221,5.4912c-0.11164,2.24113 -2.08954,6.55261 -2.08954,6.55261c0,0 -3.76043,-0.82966 -5.36893,-6.64245c-1.06293,-3.84095 -1.23929,-5.12262 1.29909,-6.77105z" fill="#010101"/><path d="M281.61177,255.01694c0.89494,-0.43797 1.97546,-0.06748 2.4134,0.82747c0.43797,0.89494 0.06746,1.97539 -0.82743,2.41334c-0.89494,0.43797 -1.97539,0.06746 -2.41334,-0.82743c-0.43797,-0.89494 -0.06748,-1.97546 0.82747,-2.4134z" fill="#ffffff"/></g><g data-paper-data="{&quot;index&quot;:null}"><path d="M322.14107,248.51355c0,0 11.49067,2.44053 17.7901,6.24258c6.29944,3.80205 9.26988,13.06724 9.26988,13.06724l-4.0879,0.74229c0,0 -1.22568,-6.66421 -7.22446,-10.26084c-5.99878,-3.59665 -16.35927,-6.12363 -16.35927,-6.12363z" fill="#767578" stroke="none" stroke-width="0" stroke-linecap="butt"/><path d="M347.30807,263.82504l13.09425,15.50264l-10.38577,22.85538l-10.67988,-21.06389z" fill="#ea035a" stroke="none" stroke-width="0" stroke-linecap="butt"/><path d="M345.4214,267.26861c0,0 1.87876,-3.52522 1.99432,-2.33189c0.45411,4.68859 3.09212,36.64845 3.09212,36.64845" fill="none" stroke="#000000" stroke-width="0.25" stroke-linecap="round"/><path d="M339.3253,281.2715l8.7916,-8.04968l12.96626,6.06104" fill="none" stroke="#000000" stroke-width="0.25" stroke-linecap="round"/></g></g><g data-paper-data="{&quot;index&quot;:null}"><path d="M223.8703,245.87947c4.92423,-4.06864 11.0673,-7.98321 11.0673,-7.98321l1.46605,4.42727c0,0 -3.0568,3.17147 -7.08668,6.52805c-4.34064,3.6154 -16.15132,13.4263 -16.15132,13.4263l-1.27449,-5.23588c0,0 7.05482,-7.09388 11.97908,-11.16248z" fill="#f8b820" stroke="none" stroke-width="0" stroke-linecap="butt"/><g><path d="M211.62984,274.37818c-8.18477,12.77423 -25.4213,11.15676 -26.81156,8.41849c-3.92879,-7.51757 -1.13697,-14.00548 4.08333,-23.70008c6.32301,-11.74228 23.20152,-11.94486 26.85014,-6.28672c1.19454,1.85248 1.80287,12.32139 -4.12196,21.56836z" fill="#ffffff" stroke="none" stroke-width="0" stroke-linecap="butt"/><path d="M207.59381,253.10175l2.4083,5.87023" fill="none" stroke="#808080" stroke-width="0.5" stroke-linecap="round"/><path d="M200.91805,261.75543l-2.10852,-4.54606" fill="none" stroke="#808080" stroke-width="0.5" stroke-linecap="round"/><path d="M194.62977,266.16018l-2.56316,-4.17076" fill="none" stroke="#808080" stroke-width="0.5" stroke-linecap="round"/><path d="M188.64119,271.88908l-2.26342,-2.84656" fill="none" stroke="#808080" stroke-width="0.5" stroke-linecap="round"/><path d="M185.15859,273.19214c0,0 6.27275,-9.52155 12.47482,-13.12103c6.20208,-3.59948 17.44771,-6.07726 17.44771,-6.07726" fill="none" stroke="#020202" stroke-width="0.25" stroke-linecap="round"/></g></g></g></g></svg>