<svg version="1.1" xmlns="http://www.w3.org/2000/svg" xmlns:xlink="http://www.w3.org/1999/xlink" width="25.50665" height="51.80047" viewBox="0,0,25.50665,51.80047"><g transform="translate(-230.38452,-148.50669)"><g data-paper-data="{&quot;isPaintingLayer&quot;:true}" fill-rule="nonzero" stroke-miterlimit="10" stroke-dasharray="" stroke-dashoffset="0" style="mix-blend-mode: normal"><path d="M240.97463,182.27003l1.33025,-0.06623l2.34916,1.98201l2.56892,-0.43515c0,0 -1.6458,1.24515 -2.54056,1.2345c-0.82341,-0.00981 -3.70777,-2.71515 -3.70777,-2.71515z" fill="#f79db4" stroke="none" stroke-width="0" stroke-linecap="butt" stroke-linejoin="miter"/><g data-paper-data="{&quot;index&quot;:null}" stroke-width="0" stroke-linecap="butt" stroke-linejoin="miter"><g data-paper-data="{&quot;index&quot;:null}"><path d="M230.38452,167.43041c0,-1.06346 0.8653,-1.92557 1.93267,-1.92557c1.06738,0 1.93265,0.86211 1.93265,1.92557c0,1.06346 -0.86528,1.92557 -1.93265,1.92557c-1.06738,0 -1.93267,-0.86211 -1.93267,-1.92557z" fill="#e0cb17" stroke="none"/><path d="M231.05235,168.06555c0,-0.65701 0.53456,-1.18962 1.194,-1.18962c0.65944,0 1.194,0.5326 1.194,1.18962c0,0.65701 -0.53456,1.18962 -1.194,1.18962c-0.65944,0 -1.194,-0.53261 -1.194,-1.18962z" fill="#e0cb17" stroke="#000000"/><path d="M230.69586,171.7556c-0.3444,-1.03347 0.44156,-2.13075 0.44156,-2.13075l2.10321,-0.01487c0,0 0.15323,0.20302 0.48585,1.50522c0.34536,1.35211 -0.98611,3.31958 -0.98611,3.31958c0,0 -1.7001,-1.64571 -2.04451,-2.67918z" fill="#e8edf4" stroke="#000000"/><path d="M232.21957,169.85001c-0.51125,0.00227 -1.36863,-0.28808 -1.36863,-0.28808l0.21781,-0.68142c0,0 0.62849,0.40447 1.08264,0.43022c0.45414,0.02575 1.09235,-0.30689 1.09235,-0.30689l0.28233,0.4899c0,0 -0.72235,0.35366 -1.30651,0.35626z" fill="#dbded5" stroke="#000000"/></g><g data-paper-data="{&quot;index&quot;:null}" stroke="none"><path d="M238.27702,173.60198c0.20118,0 0.36426,0.33852 0.36426,0.75611c0,0.41759 -0.16308,0.75611 -0.36426,0.75611c-0.20118,0 -0.36428,-0.33853 -0.36428,-0.75611c0,-0.41759 0.16309,-0.75611 0.36428,-0.75611z" fill="#000000"/><path d="M239.68242,178.87694c0.20956,0 0.83479,0.90506 0.83479,1.0888c0,0.18374 -0.35203,1.39124 -0.56158,1.39124c-0.20956,0 -1.25977,-0.33269 -1.25977,-0.33269c0,0 0.77701,-2.14736 0.98657,-2.14736z" fill="#807d5a"/><path d="M233.61629,168.82567l0.13154,-0.15122l4.86707,5.89768l-0.1012,0.31253z" fill="#6e6e73"/><path d="M235.44777,170.53952l-0.30356,0.32261l-1.17375,-1.36101l0.33391,-0.32261z" fill="#ddcb1e"/></g></g><g stroke-width="0" stroke-linecap="butt" stroke-linejoin="miter"><g data-paper-data="{&quot;index&quot;:null}"><path d="M251.04749,170.88622c-1.36927,0 -2.47929,-1.10593 -2.47929,-2.47018c0,-1.36424 1.11001,-2.47019 2.47929,-2.47019c1.36927,0 2.47929,1.10594 2.47929,2.47019c0,1.36424 -1.11002,2.47018 -2.47929,2.47018z" fill="#e0cb17" stroke="none"/><path d="M251.13835,170.7569c-0.84593,0 -1.5317,-0.68326 -1.5317,-1.52609c0,-0.84284 0.68576,-1.52608 1.5317,-1.52608c0.84593,0 1.53171,0.68324 1.53171,1.52608c0,0.84284 -0.68577,1.52609 -1.53171,1.52609z" fill="#e0cb17" stroke="#000000"/><path d="M253.12738,173.96453c-0.44182,1.32576 -2.62278,3.43694 -2.62278,3.43694c0,0 -1.70805,-2.52394 -1.26501,-4.25845c0.42669,-1.67051 0.62326,-1.93095 0.62326,-1.93095l2.69807,0.01907c0,0 1.00827,1.40763 0.56646,2.7334z" fill="#e8edf4" stroke="#000000"/><path d="M251.17271,171.51996c-0.74937,-0.00331 -1.67602,-0.45702 -1.67602,-0.45702l0.36218,-0.62847c0,0 0.81871,0.42674 1.40131,0.39371c0.58259,-0.03303 1.38884,-0.55192 1.38884,-0.55192l0.27941,0.87416c0,0 -1.09986,0.37246 -1.75571,0.36955z" fill="#dbded5" stroke="#000000"/></g><g data-paper-data="{&quot;index&quot;:null}" stroke="none"><path d="M244.6836,178.83712c0.20578,0.42419 0.03894,2.19213 0.03894,2.19213l-3.11533,0.0194c0,0 -1.01532,-1.28904 -0.69622,-2.71278c0.23458,-1.04665 1.78092,-2.34443 1.98128,-2.35045c1.29092,-0.0388 1.58553,2.42751 1.79131,2.85171z" fill="#e4dcaa"/><path d="M243.86931,177.30309c0,0.5357 -0.20921,0.96997 -0.46729,0.96997c-0.25808,0 -0.46731,-0.43427 -0.46731,-0.96997c0,-0.5357 0.20922,-0.96997 0.46731,-0.96997c0.25808,0 0.46729,0.43426 0.46729,0.96997z" fill="#000000"/><path d="M244.57026,183.21343c-0.14743,0.84753 -0.61066,2.20732 -0.61066,2.20732l-1.18066,0.48271c0,0 -1.42785,-0.57438 -1.4019,-1.34502c0.01289,-0.38265 0.21929,-3.37045 0.21929,-3.37045l1.23122,-0.78486c0,0 0.60337,0.05153 0.96773,0.159c0.36436,0.10747 0.93073,0.45271 0.93073,0.45271c0,0 -0.00834,1.35107 -0.15577,2.1986z" fill="#dfcc17"/><path d="M242.86471,185.85473c0,0 -1.34724,0.42678 -1.61608,0.42678c-0.26884,0 -0.72043,-1.54904 -0.72043,-1.78475c0,-0.23571 0.80206,-1.39676 1.0709,-1.39676c0.26884,0 1.2656,2.75471 1.2656,2.75471z" fill="#807d5a"/><path d="M243.09835,177.97858l-0.12981,-0.40092l6.24365,-7.56575l0.16875,0.194z" fill="#6e6e73"/><path d="M248.49826,170.65856l0.42836,0.41385l-1.50574,1.74595l-0.38942,-0.41386z" fill="#ddcb1e"/></g></g><g stroke="none" stroke-width="0" stroke-linecap="butt" stroke-linejoin="miter"><g><path d="M239.54219,199.18702c0,0 1.97589,-1.33224 2.66322,-2.11629c0.5571,-0.6355 1.15272,-2.23669 1.15272,-2.23669c0,0 0.79592,0.42451 0.75189,1.94635c-0.01238,0.42799 -0.62598,0.87071 -0.62598,0.87071l-0.95911,0.21541c0,0 -0.7391,1.09625 -1.24081,1.42972c-0.84518,0.56177 -1.53075,0.93881 -2.63264,1.00712c-1.10189,0.06831 -0.65159,-0.80353 -0.65159,-0.80353l1.54229,-0.3128z" fill="#393939"/><path d="M238.03101,192.03055l2.7464,-1.29012l0.34762,0.63276l-0.15096,0.1205c0,0 0.27505,0.10742 0.3201,0.16945c0.19731,0.27174 0.04959,0.29486 0.04959,0.29486c0,0 0.50247,0.11124 0.7788,0.39306c0.27633,0.28181 0.66936,0.61818 0.90006,1.1344c0.2307,0.51621 0.30848,1.56992 0.30848,1.56992c0,0 0.06562,2.19019 -3.38428,4.05118c-1.021,0.55076 -1.67636,0.41222 -1.67636,0.41222c0,0 -0.62805,-1.47269 -0.60594,-2.5441c0.21445,-0.98313 0.26371,-1.4432 0.31225,-1.8706c0.03945,-0.34736 0.02865,-1.25374 0.02865,-1.25374l-0.11091,-0.40698l0.0634,-0.35644z" fill="#f01a40"/><path d="M238.12605,188.78289c0.40075,-0.16676 2.29697,-0.07469 2.30707,0.55948c0.01411,0.88534 0.00536,0.31873 0.07648,0.65013c0.07112,0.33141 0.51797,0.29726 0.22102,0.73604c-0.24258,0.35845 -0.4954,0.85691 -1.05555,1.09024c-1.05556,0.30521 -1.39566,0.32459 -1.88715,0.1638c-0.32971,-0.10787 -0.36244,-0.91857 -0.36244,-0.91857c0,0 -0.61909,-0.31805 -0.69254,-0.60733c-0.07344,-0.28928 0.57908,-1.33509 1.3931,-1.6738z" fill="#ffffff"/><path d="M238.7374,192.94758c-0.02993,-0.31609 -0.32398,-0.85163 -0.32398,-0.85163l1.39942,-0.38162l0.22013,0.96408l-0.1471,0.37243l0.03075,0.34399c0,0 -0.05814,1.04012 0.04728,2.21428c0.07205,0.44334 0.84313,3.02354 0.84313,3.02354c0,0 -0.97593,0.60753 -1.22305,0.69894c-0.2402,0.08885 -0.749,0.18948 -0.749,0.18948c0,0 -0.4391,-1.41398 -0.55293,-2.41488c-0.09243,-0.81265 0.52747,-3.49847 0.52747,-3.49847c0,0 -0.06651,-0.60068 -0.07214,-0.66014z" fill="#ffffff"/></g><path d="M239.79051,189.5339c0.09044,0.3737 -0.35033,0.80106 -0.98449,0.95454c-0.63416,0.15347 -1.22156,-0.02506 -1.312,-0.39877c-0.09044,-0.3737 0.35033,-0.80106 0.98449,-0.95452c0.63416,-0.15347 1.22155,0.02506 1.312,0.39876z" fill="#afafaf"/></g><path d="M239.67065,184.36669l0.0052,3.46327l-0.11333,2.24305c0,0 -0.33134,0.26533 -0.56431,0.3869c-0.23296,0.12157 -0.61347,0.12258 -0.61347,0.12258l-0.01442,-2.30467l0.04232,-3.74693z" fill="#f79db4" stroke="none" stroke-width="0" stroke-linecap="butt" stroke-linejoin="miter"/><g stroke="none" stroke-width="0" stroke-linecap="butt" stroke-linejoin="miter"><g><path d="M241.6002,198.95182c0,0 1.9759,-1.33223 2.66323,-2.1163c0.55709,-0.6355 1.15272,-2.23669 1.15272,-2.23669c0,0 0.79593,0.42452 0.7519,1.94635c-0.01238,0.42799 -0.626,0.87071 -0.626,0.87071l-0.9591,0.21542c0,0 -0.7391,1.09624 -1.24081,1.42971c-0.84518,0.56177 -1.53075,0.93881 -2.63264,1.00713c-1.10189,0.06831 -0.6516,-0.80353 -0.6516,-0.80353l1.5423,-0.31281z" fill="#393939"/><path d="M240.08902,191.79535l2.7464,-1.29011l0.34763,0.63276l-0.15097,0.12051c0,0 0.27506,0.10742 0.32011,0.16945c0.19731,0.27174 0.0496,0.29485 0.0496,0.29485c0,0 0.50248,0.11124 0.7788,0.39306c0.27633,0.28181 0.66936,0.61818 0.90005,1.1344c0.2307,0.51621 0.30847,1.56992 0.30847,1.56992c0,0 0.06562,2.19018 -3.38428,4.05118c-1.021,0.55076 -1.67636,0.41223 -1.67636,0.41223c0,0 -0.62804,-1.47268 -0.60594,-2.5441c0.21445,-0.98313 0.26371,-1.44319 0.31225,-1.8706c0.03945,-0.34736 0.02865,-1.25375 0.02865,-1.25375l-0.11091,-0.40698l0.0634,-0.35644z" fill="#f01a40"/><path d="M240.18406,188.54768c0.40075,-0.16676 2.29695,-0.07468 2.30706,0.55949c0.01411,0.88534 0.00536,0.31872 0.07648,0.65013c0.07112,0.33141 0.51797,0.29727 0.22102,0.73604c-0.24258,0.35845 -0.49539,0.85691 -1.05553,1.09024c-1.05556,0.30521 -1.39567,0.32461 -1.88716,0.16381c-0.32971,-0.10787 -0.36243,-0.91857 -0.36243,-0.91857c0,0 -0.61909,-0.31806 -0.69255,-0.60733c-0.07344,-0.28928 0.5791,-1.33509 1.3931,-1.6738z" fill="#ffffff"/><path d="M240.79541,192.71237c-0.02993,-0.31609 -0.32398,-0.85163 -0.32398,-0.85163l1.39942,-0.38162l0.22012,0.96408l-0.14709,0.37243l0.03075,0.34398c0,0 -0.05814,1.04012 0.04728,2.21429c0.07205,0.44334 0.84313,3.02353 0.84313,3.02353c0,0 -0.97592,0.60753 -1.22305,0.69894c-0.2402,0.08885 -0.749,0.18949 -0.749,0.18949c0,0 -0.4391,-1.41398 -0.55293,-2.41488c-0.09243,-0.81265 0.52748,-3.49846 0.52748,-3.49846c0,0 -0.06651,-0.6007 -0.07214,-0.66014z" fill="#ffffff"/></g><path d="M241.84851,189.29869c0.09044,0.3737 -0.35033,0.80105 -0.98449,0.95453c-0.63416,0.15347 -1.22156,-0.02506 -1.312,-0.39876c-0.09044,-0.3737 0.35034,-0.80106 0.9845,-0.95454c0.63416,-0.15347 1.22156,0.02507 1.312,0.39877z" fill="#afafaf"/></g><path d="M241.38448,179.49035c0,0 -0.70509,-0.48515 -0.83343,-0.79847c-0.13607,-0.33219 -0.03773,-1.14138 -0.03773,-1.14138l0.94772,-0.37052z" fill="#f25c76" stroke="none" stroke-width="0" stroke-linecap="butt" stroke-linejoin="miter"/><path d="M240.91919,184.55729l0.64086,3.72209l0.24475,1.33028c0,0 -0.27671,0.34221 -0.5154,0.47678c-0.23869,0.13457 -0.78808,0.25808 -0.78808,0.25808l-0.30175,-1.78308l-0.6119,-4.09511z" fill="#f79db4" stroke="none" stroke-width="0" stroke-linecap="butt" stroke-linejoin="miter"/><path d="M235.10947,181.86147c0,0 0.54573,2.92812 4.67202,3.06609c4.76471,0.15931 5.28498,-2.88744 5.28498,-2.88744l1.09315,0.24746c0,0 -1.25833,3.83245 -5.98864,3.85694c-4.59148,0.10652 -6.24764,-3.99094 -6.24764,-3.99094z" fill="#ffffff" stroke="none" stroke-width="0" stroke-linecap="butt" stroke-linejoin="miter"/><g stroke="none" stroke-width="0" stroke-linecap="butt" stroke-linejoin="miter"><path d="M239.86974,167.83165c0.06041,0.84866 -0.04624,2.26902 -0.04624,2.26902l-2.20568,1.07822c0,0 -0.36382,0.00236 -0.80217,-0.34852c-0.28467,-0.22788 -0.49539,-0.79223 -0.49539,-0.79223c0,0 -0.1197,0.70068 -0.67334,0.53776c-0.35547,-0.10462 -0.55148,-1.19635 -0.52745,-1.59351c0.01414,-0.2338 0.17869,-0.63291 0.43005,-0.85708c0.15855,-0.14141 0.44983,-0.17459 0.44983,-0.17459c0,0 -0.05256,-0.37284 0.33861,-0.46338c0.11985,-0.02775 0.27587,-0.09948 0.27587,-0.09948c0,0 0.04588,-0.27804 0.12613,-0.40632c0.08024,-0.12828 0.30239,-0.24268 0.30239,-0.24268l0.41283,0.07458c0,0 0.30171,-0.44901 0.40045,-0.49953c0.3874,-0.19819 0.7532,0.1165 0.95063,0.28411c0.36148,0.30693 1.05388,1.09842 1.0635,1.23364z" fill="#ffffff"/><path d="M240.67006,171.44478c0.01368,0.45095 -0.86737,1.3886 -1.4155,1.52786c-1.54381,0.3922 -1.79678,0.00879 -1.87142,-0.59931c-0.11427,-0.93102 0.30375,-2.06965 2.35985,-2.2702c0.56285,-0.0549 0.91338,0.8907 0.92706,1.34163z" fill="#fed000"/><path d="M239.59753,174.06191c0.02652,0.87367 0.01175,2.19648 -0.16944,3.31558c-0.05999,0.37058 -0.25765,0.43994 -0.46319,0.42505c-0.30594,-0.02217 -0.45725,-0.20136 -0.44779,-0.50175c0.03773,-1.19885 0.04882,-2.2477 0.02373,-3.0743c-0.01529,-0.50393 -0.16822,-2.14359 -0.16822,-2.14359c0,0 0.12406,-0.21717 0.4109,-0.33757c0.28684,-0.1204 0.81567,-0.22208 0.81567,-0.22208c0,0 -0.03956,1.28954 -0.00165,2.53865z" fill="#fed5c7"/></g><path d="M238.04335,178.5432c0.09822,-0.58489 0.95546,-1.40353 0.95546,-1.40353l0.36739,-0.0378l1.19241,0.34653c0,0 -0.01075,0.75209 0.12879,1.13997c0.17614,0.48963 0.69141,0.79854 0.69141,0.79854l0.16418,1.05864l1.45459,0.71556l0.07511,0.16357l0.62958,0.28818l1.39789,0.45591c0,0 0.02129,0.93076 -1.28245,1.79128c-1.2014,0.79298 -1.68178,1.06838 -3.54156,1.22701c-1.69886,0.1449 -2.81101,-0.3468 -4.10856,-1.4095c-0.83397,-0.68303 -1.1641,-1.79467 -1.1641,-1.79467l2.79502,-0.80497l0.04716,-0.15691l0.32623,-0.1583c0,0 -0.23825,-1.56604 -0.12852,-2.21952z" fill="#f01a40" stroke="none" stroke-width="0" stroke-linecap="butt" stroke-linejoin="miter"/><path d="M241.79288,176.92194c0,0 -0.13759,0.77644 -1.54787,0.79949c-1.31175,0.02144 -1.34815,-0.70811 -1.34815,-0.70811c0,0 0.43239,-0.5126 0.94107,-0.52864c0.50869,-0.01605 1.95495,0.43726 1.95495,0.43726z" fill="#afafaf" stroke="none" stroke-width="0" stroke-linecap="butt" stroke-linejoin="miter"/><g><g><path d="M242.43816,171.26586c0,0 0.8365,-0.36991 1.59653,-0.13594c0.67827,0.20879 0.8856,0.51578 1.09715,1.16887c0.32047,0.98931 -0.57688,2.06308 -0.57688,2.06308c0,0 1.13691,-1.71293 -0.07476,-2.78513c-0.74964,-0.66334 -2.04205,-0.31087 -2.04205,-0.31087z" fill="#000000" stroke="none" stroke-width="0" stroke-linecap="butt" stroke-linejoin="miter"/><path d="M245.4109,167.19741c3.0573,1.3403 4.59866,4.5643 3.44273,7.20102c-1.15591,2.63671 -4.57138,3.68766 -7.62868,2.34735c-3.0573,-1.3403 -4.59868,-4.56429 -3.44276,-7.20101c1.15591,-2.63671 4.57139,-3.68766 7.62869,-2.34736z" fill="#f79eb4" stroke="none" stroke-width="0" stroke-linecap="butt" stroke-linejoin="miter"/><path d="M237.97425,171.00847c0.00011,-0.00072 -0.28794,1.14834 -0.17535,1.90462c0.11259,0.75628 0.84181,2.95865 0.84181,2.95865l-0.10699,0.94797c0,0 -1.33211,-0.647 -1.56997,-3.11991c-0.15189,-1.53402 0.30123,-2.4933 0.3005,-2.47603" fill="#f79eb4" stroke="#f89db5" stroke-width="0" stroke-linecap="butt" stroke-linejoin="round"/><g fill="#ffd5c5" stroke="none" stroke-width="1" stroke-linecap="round" stroke-linejoin="round"><path d="M237.85743,173.57256c0.03518,-0.0482 0.07448,0.0972 0.09722,0.15238c0.14066,0.34072 0.53004,0.18844 0.77283,0.12622c0.18653,-0.04778 0.43917,-0.00581 0.61275,0.06786c0.83143,0.3632 2.19278,1.60448 2.47478,1.74271c0.26246,0.12866 1.22791,0.03961 1.55442,0.06748c0.33498,0.02858 0.54222,0.22973 0.57146,0.28339c0.06127,0.11255 0.51884,0.85814 -0.77438,1.41867c-0.17969,0.07788 -1.1626,0.22355 -1.61818,0.08486c-0.38199,-0.11633 -1.72601,-0.48927 -2.54332,-1.22989c-0.65136,-0.59026 -0.95839,-1.15306 -0.99745,-1.22516c-0.23866,-0.44075 -0.47258,-1.04606 -0.15013,-1.48847z"/><path d=""/></g><g fill="#000000" stroke="#000000" stroke-width="0.125" stroke-linecap="butt" stroke-linejoin="round"><path d="M237.67379,171.79866c-0.00663,0.02391 -0.54442,-0.32834 -0.60649,-0.38c-0.28274,-0.2352 -0.51372,-0.45553 -0.75405,-0.73472c-0.07668,-0.08907 -0.31024,-0.42674 -0.30593,-0.42283c0.12665,0.11461 0.21853,0.26984 0.34108,0.39046c0.20473,0.20142 0.42664,0.38426 0.65002,0.56494c0.36184,0.27139 0.64537,0.36241 0.69417,0.40657"/><path d="M237.74981,171.29551c-0.00621,0.02229 -0.51674,-0.35366 -0.72313,-0.61853c-0.20639,-0.26486 -0.58242,-1.00423 -0.58166,-0.98874c0.00205,0.04106 0.38642,0.60491 0.69367,0.94364c0.30726,0.33873 0.6157,0.46041 0.64935,0.44736"/></g><g fill="#000000" stroke="none" stroke-width="1" stroke-linecap="round" stroke-linejoin="round"><path d="M238.82288,174.41686c-0.10365,-0.03742 -0.35117,-0.41536 -0.16014,-0.45798c0.11042,-0.02463 0.61844,0.13418 0.71173,0.29305c0.12274,0.20905 -0.31835,0.22837 -0.55159,0.16492z"/><path d=""/></g><path d="M247.24459,174.17812c0.01539,0.02176 -1.05036,2.05422 -1.39558,2.47372c-0.51801,0.62946 -1.14549,1.16981 -1.88084,1.52801c-0.31265,0.15228 -0.6145,0.25886 -0.94569,0.3548c-0.10721,0.03108 -0.52896,0.10213 -0.52896,0.10213c0,0 0.76363,-0.78803 1.46686,-2.2901c0.37342,-0.79764 1.04571,-2.63066 1.04318,-2.57389" fill="#f79eb4" stroke="#f89db5" stroke-width="0" stroke-linecap="butt" stroke-linejoin="round"/><path d="M248.7769,174.11871c0.02027,0.40137 -0.82313,2.06946 -1.70682,3.16573c-0.681,0.84483 -1.05006,0.99132 -1.72823,1.30242c-0.76803,0.35231 -1.17019,0.24528 -1.17019,0.24528c0,0 0.89193,-0.87098 1.33852,-1.5249c0.4466,-0.65391 1.84126,-3.10067 1.83373,-3.11995" fill="#f79eb4" stroke="#f89db5" stroke-width="0" stroke-linecap="butt" stroke-linejoin="round"/><g fill="#ee1a40" stroke="none" stroke-width="1" stroke-linecap="round" stroke-linejoin="round"><path d="M240.81127,167.31957c0.13168,-0.07111 2.87398,-0.82295 5.2047,0.69864c2.86508,1.91656 1.52533,5.80998 1.52336,5.80842c-0.02746,-0.02181 0.10518,-1.6771 -0.42243,-2.65986c-0.68411,-1.27433 -1.07979,-2.01367 -2.13684,-2.71387c-1.34114,-0.8884 -3.92089,-0.50067 -4.02265,-0.48422"/><path d=""/></g><path d="M239.61809,169.83456c-0.01763,-0.0342 0.58019,-3.27578 -0.02627,-3.30591c-1.11069,-0.05519 -1.30967,1.44289 -1.33192,1.4358c-0.01548,-0.00499 1.34022,-2.45366 1.97525,-2.2259c0.63504,0.22776 0.11592,0.42962 0.4383,0.90763c0.32238,0.47801 -0.39882,2.24613 -0.41222,2.22014" fill="#f79eb4" stroke="#f89db5" stroke-width="0" stroke-linecap="butt" stroke-linejoin="round"/><path d="M240.25245,168.8651c-0.06168,-0.11818 1.55022,-1.57335 0.67793,-2.16917c-0.62874,-0.42945 -0.52912,-1.38373 -0.52912,-1.38373c0,0 -0.73124,-0.06845 1.18975,0.67332c0.54103,0.27152 0.1672,0.73561 0.32291,1.08034c0.15571,0.34473 -0.86675,2.09571 -0.89178,2.17545" fill="#f79eb4" stroke="#f89db5" stroke-width="0" stroke-linecap="butt" stroke-linejoin="round"/><g stroke="none" stroke-width="1" stroke-linecap="round" stroke-linejoin="round"><g fill="#f79eb4"><path d="M244.62154,168.75346c0.10174,-0.12154 1.29838,-0.44031 2.1637,-0.4651c0.86531,-0.02477 1.6565,0.08112 1.71155,0.35415c0.04211,0.20884 -0.25322,1.02658 -0.52716,1.64494c-0.27396,0.61836 -0.67423,1.1189 -0.83891,1.43849"/></g><g fill="#ffd5c5"><path d="M245.18012,169.17826c0.15578,-0.107 0.69647,-0.28398 1.16829,-0.30507c0.47181,-0.02108 1.37037,0.06195 1.40294,0.19012c0.00803,0.03161 -0.23128,0.74981 -0.4457,1.20206c-0.21442,0.45226 -0.47844,0.76592 -0.52215,0.83941"/></g></g><g fill="#f79eb4" stroke="none" stroke-width="1" stroke-linecap="round" stroke-linejoin="round"><path d="M238.37941,168.26195c-0.00264,-0.01517 -0.09204,-0.95914 0.09932,-1.73112c0.12258,-0.49455 0.48835,-1.03781 0.53688,-1.04176c0.23694,-0.01924 0.96679,0.37346 1.55701,0.6816c0.59022,0.30814 0.84891,0.49766 1.08358,0.69705"/><path d=""/></g><path d="M240.71118,173.11947c1.44705,-0.25802 0.45886,-0.41698 3.30964,-0.33951c0.42759,0.13182 1.68489,-0.33726 0.56458,1.5107c-0.37281,0.61496 -1.10045,1.46719 -2.50175,1.49697c-0.67579,-0.08478 -1.78982,-1.37703 -2.39517,-1.68034c-1.06285,-0.5325 -1.11885,0.0253 -1.64674,-0.22941c-0.13212,-0.06375 -0.5431,-1.18433 -0.35381,-2.43588c0.08927,-0.59016 0.11687,-0.40127 0.17897,-0.3734c0.40981,0.1839 0.73956,0.24941 0.90146,0.89133c0.11324,0.44899 0.34068,0.87794 0.66148,0.98568c0.187,0.0628 0.36474,0.15157 0.98722,-0.23791z" fill="#ffffff" stroke="none" stroke-width="0" stroke-linecap="butt" stroke-linejoin="miter"/><path d="M239.25973,170.79248c-0.13922,0.031 -0.98139,0.30494 -1.30006,0.47797c-0.94457,0.51998 -2.07249,1.11373 -2.05051,1.15039c0.001,0.0017 0.72729,-0.87625 0.99526,-1.42474c0.0446,-0.14429 0.92506,-0.92015 1.20878,-0.95213c0.98763,-0.11133 1.57581,-0.11267 1.52663,-0.10175" fill="#f79eb4" stroke="#f89db5" stroke-width="0" stroke-linecap="butt" stroke-linejoin="round"/><g fill="#000000" stroke="#000000" stroke-width="0.125" stroke-linecap="butt" stroke-linejoin="round"><path d="M244.77272,172.94396c0.05248,0.00324 0.07536,0.05176 0.11706,0.07277c0.04371,0.02203 0.25883,0.09295 0.43168,0.11959c0.88763,0.13673 1.47685,-0.16885 1.47685,-0.16885c0,0 -0.29605,0.28701 -1.63359,0.29096c-0.20833,0.00063 -0.3435,-0.07272 -0.35141,-0.11552"/><path d="M244.9695,173.3729c0.02933,0.01705 0.06136,0.09547 0.07943,0.12659c0.04097,0.07063 0.37432,0.52911 1.10111,0.72164c0.2414,0.06252 1.04027,0.16942 1.04027,0.16942c0,0 -0.44301,0.05509 -1.11127,-0.12641c-0.28026,-0.07613 -0.84956,-0.3217 -1.04049,-0.49246c-0.10297,-0.09208 -0.11911,-0.14614 -0.11911,-0.14614"/></g><g stroke="none" stroke-linecap="butt" stroke-linejoin="miter"><path d="M241.99132,173.86494c-0.24625,0.67724 -0.62349,1.16168 -0.84259,1.08201c-0.2191,-0.07967 -0.19711,-0.69327 0.04912,-1.37051c0.24625,-0.67724 0.62349,-1.16168 0.84259,-1.08201c0.2191,0.07967 0.19712,0.69326 -0.04913,1.37051z" fill="#169c5b" stroke-width="NaN"/><path d="M241.7078,173.93339c-0.10286,0.28286 -0.26427,0.48381 -0.36055,0.4488c-0.09628,-0.035 -0.09095,-0.2927 0.01192,-0.57557c0.10286,-0.28286 0.26427,-0.48382 0.36055,-0.44881c0.09628,0.035 0.09095,0.29271 -0.01192,0.57558z" fill="#000000" stroke-width="0"/><path d="M241.86954,173.264c-0.10406,0.2862 -0.28261,0.48395 -0.3988,0.4417c-0.1162,-0.04225 -0.12604,-0.30849 -0.02197,-0.5947c0.10406,-0.2862 0.28261,-0.48396 0.39879,-0.44171c0.1162,0.04225 0.12603,0.3085 0.02198,0.5947z" fill="#ffffff" stroke-width="0"/></g><g stroke="none" stroke-linecap="butt" stroke-linejoin="miter"><path d="M238.6662,172.93976c-0.1737,0.47769 -0.43975,0.81938 -0.59429,0.76318c-0.15455,-0.0562 -0.13903,-0.48899 0.03465,-0.96668c0.1737,-0.47769 0.43977,-0.81937 0.59431,-0.76318c0.15455,0.0562 0.13903,0.48898 -0.03466,0.96666z" fill="#169c5b" stroke-width="NaN"/><path d="M238.46624,172.98804c-0.07253,0.19952 -0.1864,0.34124 -0.25432,0.31655c-0.06791,-0.02469 -0.06414,-0.20645 0.0084,-0.40597c0.07253,-0.19952 0.1864,-0.34125 0.25431,-0.31655c0.06791,0.02469 0.06414,0.20643 -0.0084,0.40596z" fill="#000000" stroke-width="0"/><path d="M238.5803,172.51588c-0.07341,0.20186 -0.19932,0.34133 -0.28127,0.31154c-0.08196,-0.0298 -0.0889,-0.21759 -0.01551,-0.41945c0.07341,-0.20186 0.19932,-0.34135 0.28129,-0.31155c0.08196,0.0298 0.08889,0.2176 0.0155,0.41947z" fill="#ffffff" stroke-width="0"/></g></g><path d="M241.41775,176.60733c0,0 0.47007,0.14645 0.76393,0.26662c0.29386,0.12016 0.40029,0.24377 0.40029,0.24377" fill="none" stroke="#000000" stroke-width="0.125" stroke-linecap="round" stroke-linejoin="miter"/></g><g stroke-linecap="butt" stroke-linejoin="miter"><path d="M253.57999,153.35746c0,0 3.8346,2.67022 0.89995,6.98506c-1.12685,1.65682 -2.38096,2.39867 -4.19999,2.85696c-1.91937,0.48357 -3.43671,-2.01797 -3.43671,-2.01797l4.70248,-7.77199z" fill="#fbdd00" stroke="none" stroke-width="0"/><path d="M252.07757,153.37563l0.52924,-0.02349c0,0 0.72154,0.63754 0.91152,0.98024c0.40743,0.73496 0.5836,1.05816 0.18349,0.91354c-0.19894,-0.07189 -0.36342,-0.61397 -0.65483,-0.9705c-0.43547,-0.53278 -0.96941,-0.89979 -0.96941,-0.89979z" fill="#a58c48" stroke="#000000" stroke-width="0"/><path d="M254.00714,157.77621c0.15838,0.10165 0.24108,0.92327 -0.51523,2.02743c-0.50676,0.73983 -1.562,1.85279 -1.92477,1.5515c-0.33128,-0.27512 1.05716,-1.09041 1.54154,-1.84509c0.48438,-0.75467 0.74009,-1.83549 0.89847,-1.73384z" fill="#a58c48" stroke="#000000" stroke-width="0"/><path d="M247.39518,161.58339c0,0 0.37168,0.20157 0.84234,0.30196c0.43564,0.09291 0.87994,-0.07915 0.91165,0.15687c0.01115,0.08306 -0.19592,0.37366 -0.5876,0.29651c-0.43626,-0.08595 -0.97102,-0.39173 -0.97102,-0.39173l-0.19538,-0.3636z" fill="#a58c48" stroke="#000000" stroke-width="0"/><path d="M248.35515,156.67343c-1.32187,2.18561 -4.03013,2.84212 -4.03013,2.84212l-0.54001,-0.2493c0,0 3.26046,-0.53785 4.53563,-3.80085c0.80128,-2.05037 0.12005,-4.12087 0.12005,-4.12087c0,0 -0.2146,-0.19711 0.2869,0.12558c0.5015,0.32269 0.29302,0.2508 0.29302,0.2508c0,0 1.18935,1.88573 -0.66546,4.95251z" fill="#edeee6" stroke="none" stroke-width="0"/><path d="M247.11144,161.52632l-0.25438,-0.30534c0,0 3.70389,-0.34189 4.88117,-3.59034c0.73976,-2.04124 -0.18624,-4.21861 -0.18624,-4.21861l0.3406,-0.00247c0,0 1.82027,2.38653 0.0886,5.52445c-1.36642,2.47605 -4.86974,2.5923 -4.86974,2.5923z" fill="#edeee6" stroke="none" stroke-width="0"/><path d="M251.60164,158.75659c-1.32782,2.19488 -4.67591,2.53083 -4.67591,2.53083l-2.80331,-1.8046c0,0 3.2656,-0.54589 4.54877,-3.82135c0.80631,-2.05822 0.12829,-4.1337 0.12829,-4.1337c0,0 0.84462,0.40047 1.34612,0.72317c0.50149,0.3227 1.22442,0.93089 1.22442,0.93089c0,0 2.09476,2.49498 0.23161,5.57476z" fill="#ff1a07" stroke="none" stroke-width="0"/><path d="M247.03166,158.58702c0,0 1.05508,-1.05008 1.43931,-1.6487c0.3734,-0.58177 0.87782,-1.96144 0.87782,-1.96144l2.69917,1.73243c0,0 0.01328,1.37144 -0.47911,2.12277c-0.49239,0.75133 -1.74887,1.49696 -1.74887,1.49696z" fill="#ff1808" stroke="#000000" stroke-width="0"/><path d="M248.87905,151.62648c0,0 1.59429,0.92799 2.05082,1.221c0.17239,0.11064 0.64711,0.60738 0.85904,1.11553c0.21193,0.50815 0.1448,1.29141 0.1448,1.29141l-2.49196,-1.64707c0,0 -0.02534,-0.63908 -0.13599,-1.02859c-0.11065,-0.38951 -0.42671,-0.9523 -0.42671,-0.9523z" fill="#ff1808" stroke="#000000" stroke-width="0"/><path d="M244.22111,159.40325c0,0 0.67993,-0.04268 0.96273,-0.07753c0.28279,-0.03484 0.7185,-0.12966 0.7185,-0.12966l2.64857,1.69995c0,0 -1.1815,0.38537 -1.59211,0.21674c-0.56087,-0.23034 -2.7377,-1.70951 -2.7377,-1.70951z" fill="#ff1808" stroke="#000000" stroke-width="0"/><path d="M244.54782,156.22221c0.72358,-1.12736 2.23615,-7.30649 2.23615,-7.30649c0,0 4.08485,3.29113 0.74658,8.07757c-1.75056,2.50999 -3.85827,2.7254 -5.21148,2.41592c-0.86496,-0.19781 -1.37282,-0.80231 -1.37282,-0.80231c0,0 2.87799,-1.25733 3.60157,-2.38468z" fill="#fbdd00" stroke="none" stroke-width="0"/><path d="M247.15387,156.02149c0.485,-0.75567 0.86545,-1.85028 0.95863,-1.79048c0.09317,0.0598 0.07075,1.0031 -0.57541,2.08408c-0.35786,0.59867 -1.27377,1.60313 -1.67422,1.56937c-0.27065,-0.02282 0.91427,-1.27602 1.29102,-1.86299z" fill="#a58c48" stroke="#000000" stroke-width="0"/><path d="M248.12672,150.57193l0.29786,0.50082c0,0 0.28898,1.58593 -0.00029,1.26225c-0.18564,-0.20771 -0.29756,-1.76307 -0.29756,-1.76307z" fill="#a58c48" stroke="#000000" stroke-width="0"/><path d="M244.48804,158.76471c0.31678,0.20332 -1.21542,0.73018 -1.21542,0.73018l-0.82566,-0.12181c0,0 1.72432,-0.8117 2.04111,-0.60838z" fill="#a58c48" stroke="#000000" stroke-width="0"/><path d="M240.984,151.5437c1.4542,-2.32886 4.34877,-3.52724 5.80221,-2.59437c1.45345,0.93288 1.28418,4.08861 -0.16638,6.41975c-1.51427,2.43349 -4.18332,4.22266 -5.63676,3.28977c-2.02703,-1.30102 -1.72953,-4.39169 -0.02038,-7.12882z" fill="#fbdd00" stroke="#000000" stroke-width="0.25"/><path d="M244.69592,149.077c0.8758,0.56212 0.51442,2.68698 -0.80714,4.74602c-1.32156,2.05905 -3.10288,3.27256 -3.97868,2.71045c-0.8758,-0.56212 -0.51442,-2.68699 0.80714,-4.74605c1.32156,-2.05905 3.10289,-3.27255 3.97869,-2.71044z" fill="#fbdd00" stroke="#000000" stroke-width="0.25"/><path d="M242.94155,161.21497c0,0 0.36023,0.48938 0.68321,0.73778c0.32298,0.24839 0.91938,0.49474 0.91938,0.49474l-2.78591,3.27961l-4.48076,5.41047c0,0 -0.61111,-0.05021 -0.80075,-0.18527c-0.18964,-0.13507 -0.1952,-0.68599 -0.1952,-0.68599l4.17975,-5.69754l2.48028,-3.35379z" fill="#fbdd00" stroke="none" stroke-width="0"/><path d="M244.30732,159.33484l2.45453,1.24138c0,0 -1.62269,1.94764 -1.96804,1.94077c-0.58488,-0.01161 -1.89833,-1.13214 -1.92799,-1.54667c-0.00782,-0.1092 1.08607,-1.57715 1.08607,-1.57715z" fill="#c8c8c6" stroke="none" stroke-width="0"/><path d="M253.72703,153.49947c0,0 3.47591,2.23566 1.35142,6.72698c-1.43342,3.03039 -5.20078,2.95462 -5.20078,2.95462c0,0 1.51836,-0.23048 2.73579,-0.98906c0.98532,-0.61396 1.79559,-1.69769 2.26339,-2.74458c0.31466,-0.70422 0.63077,-1.46015 0.66517,-2.05983c0.1418,-2.47216 -1.81501,-3.88812 -1.81501,-3.88812z" fill="#fbdd00" stroke="#000000" stroke-width="0.25"/><path d="M238.00892,167.90349c0,0 0.35449,0.15904 0.67747,0.40743c0.32298,0.24839 0.52572,0.51429 0.52572,0.51429l-1.93463,2.31237c0,0 -0.61111,-0.05022 -0.80075,-0.18528c-0.18964,-0.13507 -0.1952,-0.68599 -0.1952,-0.68599z" fill="#a56402" stroke="none" stroke-width="0"/></g><g stroke="none" stroke-width="0" stroke-linecap="butt" stroke-linejoin="miter"><path d="M241.59011,170.97243l-2.51845,0.46524c0,0 -0.36623,-0.09959 -0.70835,-0.57501c-0.22219,-0.30874 -0.27575,-0.93488 -0.27575,-0.93488c0,0 -0.31665,0.6705 -0.82728,0.35163c-0.32786,-0.20473 -0.21885,-1.35665 -0.0834,-1.74898c0.07973,-0.23097 0.35694,-0.58587 0.67231,-0.74067c0.19893,-0.09764 0.50092,-0.04938 0.50092,-0.04938c0,0 0.05165,-0.38935 0.47008,-0.37071c0.12819,0.0057 0.30507,-0.02263 0.30507,-0.02263c0,0 0.12404,-0.26654 0.24061,-0.37295c0.11658,-0.10641 0.37185,-0.15909 0.37185,-0.15909l0.39391,0.19063c0,0 0.42898,-0.3666 0.54238,-0.38969c0.4448,-0.09058 0.72417,0.32816 0.87556,0.55192c0.27719,0.40968 0.75108,1.39904 0.72286,1.5376c-0.17713,0.86965 -0.68235,2.26695 -0.68235,2.26695z" fill="#ffffff"/><g><path d="M240.42759,173.26637c-1.6564,-0.13127 -1.77744,-0.59487 -1.64688,-1.2205c0.19988,-0.95785 0.9952,-1.94191 3.09314,-1.4493c0.57431,0.13485 0.60285,1.18644 0.46489,1.63639c-0.13797,0.44995 -1.32306,1.08002 -1.91115,1.03341z" fill="#fed000"/><path d="M240.52832,172.85672c-0.53986,0.07255 -1.00616,-0.08186 -1.04151,-0.34489c-0.03535,-0.26302 0.37364,-0.53504 0.91352,-0.60759c0.53986,-0.07255 1.00616,0.08185 1.04151,0.34488c0.03535,0.26302 -0.37365,0.53506 -0.91351,0.60759z" fill="#c28830"/><path d="M241.44483,177.80566c-0.02763,0.39063 -0.22647,0.48121 -0.44141,0.48499c-0.31992,0.00563 -0.49392,-0.16637 -0.51224,-0.47934c-0.07308,-1.24905 -0.15981,-2.33981 -0.2633,-3.19625c-0.06309,-0.52212 -0.38342,-2.55072 -0.38342,-2.55072c0,0 0.11052,-0.01094 0.39726,-0.1629c0.28673,-0.15196 0.81088,-0.00781 0.81088,-0.00781c0,0 0.10132,1.15729 0.25771,2.45148c0.10939,0.90521 0.21795,2.2809 0.13451,3.46057z" fill="#fed5c7"/></g></g></g></g></svg>