<svg version="1.1" xmlns="http://www.w3.org/2000/svg" xmlns:xlink="http://www.w3.org/1999/xlink" width="11.33784" height="4.36972" viewBox="0,0,11.33784,4.36972"><g transform="translate(-234.33108,-177.81514)"><g data-paper-data="{&quot;isPaintingLayer&quot;:true}" fill-rule="nonzero" stroke="none" stroke-width="0.26459" stroke-linecap="butt" stroke-linejoin="miter" stroke-miterlimit="4" stroke-dasharray="" stroke-dashoffset="0" style="mix-blend-mode: normal"><path d="M234.73757,182.10018c-0.16937,-0.03387 -0.30486,-0.06775 -0.40649,-0.10162l0.20324,-1.01621l0.60973,0.05081c0.47424,0.03387 0.84684,0.03387 1.11783,0c0.1355,-0.06775 0.20324,-0.16936 0.20324,-0.30486c-0.03387,-0.1355 -0.33873,-0.20324 -0.91459,-0.20324c-0.5081,-0.06775 -0.86378,-0.25406 -1.06702,-0.55892c-0.10162,-0.23712 -0.15243,-0.50811 -0.15243,-0.81297c0,-0.47424 0.16937,-0.82991 0.5081,-1.06702c0.23712,-0.16937 0.66054,-0.25406 1.27027,-0.25406c0.60973,0 1.21946,0.05081 1.82918,0.15243l-0.20324,0.9654c-0.71135,-0.03387 -1.20252,-0.05081 -1.47351,-0.05081c-0.23712,0.03387 -0.35568,0.11856 -0.35568,0.25405c-0.03387,0.23712 0.15243,0.35568 0.55892,0.35568c0.57585,0 0.99928,0.10162 1.27027,0.30486c0.20324,0.16937 0.30486,0.4573 0.30486,0.86378c0,0.35228 -0.08468,0.65715 -0.25405,0.91459c-0.16937,0.30486 -0.59279,0.49117 -1.27027,0.55892c-0.57585,0.03387 -1.16865,0.01696 -1.77837,-0.05081z" fill="#ffd700"/><path d="M237.99299,182.13407v-4.2681h2.48972c1.01621,0 1.52432,0.37261 1.52432,1.11784v0.20324c0,0.81297 -0.50811,1.21946 -1.52432,1.21946h-1.01621v1.72756zM240.07623,179.59354c0.27099,0 0.40649,-0.1355 0.40649,-0.40649v-0.20324c0,-0.20324 -0.1355,-0.30487 -0.40649,-0.30487h-0.60973v0.91459z" fill="#ffd700"/><path d="M241.95974,180c0,-0.67747 0.20324,-1.21099 0.60973,-1.60054c0.40649,-0.38955 0.9654,-0.58432 1.67676,-0.58432c0.60973,0 1.03315,0.01691 1.27027,0.05081l-0.45729,1.4227l-0.10162,-0.10162c-0.20324,-0.1355 -0.4573,-0.15243 -0.76216,-0.05081c-0.33874,0.20324 -0.59279,0.42342 -0.76216,0.66054c-0.16937,0.20324 -0.20324,0.45729 -0.10162,0.76216l0.10162,0.10162c0.16937,0.23712 0.45729,0.30487 0.86378,0.20324c0.33874,-0.20324 0.59279,-0.42342 0.76216,-0.66054l0.60973,1.77837c-0.23712,0.1355 -0.71135,0.20324 -1.4227,0.20324c-0.71135,0 -1.27027,-0.22018 -1.67676,-0.66054c-0.40649,-0.44036 -0.60973,-0.94846 -0.60973,-1.52432z" fill="#ffd700"/></g></g></svg>