<svg version="1.1" xmlns="http://www.w3.org/2000/svg" xmlns:xlink="http://www.w3.org/1999/xlink" width="7.34015" height="10.63401" viewBox="0,0,7.34015,10.63401"><g transform="translate(-236.32993,-174.683)"><g data-paper-data="{&quot;isPaintingLayer&quot;:true}" fill="#bfffff" fill-rule="nonzero" stroke="none" stroke-width="none" stroke-linecap="butt" stroke-linejoin="miter" stroke-miterlimit="10" stroke-dasharray="" stroke-dashoffset="0" style="mix-blend-mode: normal"><path d="M238.47836,177.57362c0,0 -0.0533,1.86553 -0.38449,2.6363c-0.37859,0.88109 -1.76394,2.3637 -1.76394,2.3637c0,0 1.18491,1.71151 2.08054,2.17185c0.88337,0.45404 3.25698,0.57154 3.25698,0.57154c0,0 0.97875,-2.09458 1.28474,-3.18438c0.32279,-1.14959 0.60429,-3.54338 0.60429,-3.54338c0,0 0.24169,-1.1227 0.01996,-1.54105c-0.37947,-0.71599 -2.09028,-2.3652 -2.09028,-2.3652c0,0 -1.70688,0.95856 -2.23499,1.4661c-0.46694,0.44875 -0.77282,1.42453 -0.77282,1.42453z"/></g></g></svg>