<svg version="1.1" xmlns="http://www.w3.org/2000/svg" xmlns:xlink="http://www.w3.org/1999/xlink" width="149.56002" height="29.86735" viewBox="0,0,149.56002,29.86735"><g transform="translate(-150.04454,-166.29042)"><g data-paper-data="{&quot;isPaintingLayer&quot;:true}" fill-rule="nonzero" stroke="none" stroke-linecap="butt" stroke-linejoin="miter" stroke-miterlimit="10" stroke-dasharray="" stroke-dashoffset="0" style="mix-blend-mode: normal"><g fill="#ff0000" stroke-width="0.26459"><path d="M150.04456,180.94926c0,-3.44774 1.03432,-6.16282 3.10296,-8.14526c2.06864,-1.98244 4.91303,-2.97367 8.53314,-2.97367c3.10296,0 5.25779,0.0862 6.46449,0.25858l-2.32722,7.24024l-0.51716,-0.51717c-1.03432,-0.68954 -2.32723,-0.77573 -3.8787,-0.25858c-1.72386,1.03433 -3.01676,2.15484 -3.8787,3.36154c-0.86193,1.03433 -1.03432,2.32723 -0.51716,3.87871l0.51716,0.51717c0.86193,1.20669 2.32722,1.55147 4.39585,1.03432c1.72386,-1.03433 3.01677,-2.15484 3.8787,-3.36156l3.10296,9.0503c-1.2067,0.68954 -3.62012,1.03432 -7.24024,1.03432c-3.62012,0 -6.4645,-1.12051 -8.53314,-3.36154c-2.06864,-2.24103 -3.10296,-4.82683 -3.10296,-7.75742z"/><path d="M171.5067,191.55106v-21.72073h12.67043c5.1716,0 7.7574,1.89626 7.7574,5.68876v1.03432c0,2.75818 -1.12051,4.56826 -3.36154,5.43018c0.68954,0.34478 1.37909,1.12052 2.06863,2.32724l2.06864,7.24024h-7.75742l-1.55148,-5.94735c-0.34478,-1.55148 -1.2929,-2.32722 -2.84437,-2.32722h-1.55148v8.27456zM182.10849,178.62205c1.3791,0 2.06864,-0.68954 2.06864,-2.06864v-1.03432c0,-1.03431 -0.68954,-1.55147 -2.06864,-1.55147h-3.10295v4.65443z"/><path d="M195.29608,191.55106v-21.72073h18.10061v6.20593h-10.34321v1.55147h10.34321v6.20592h-10.34321v1.55149h10.34321v6.20592z"/><path d="M215.98247,191.55106l6.46449,-21.72073h11.63612l6.46449,21.72073h-7.49881l-1.2929,-4.13728h-7.24024l-1.03435,4.13728zM230.20438,181.72501l-1.93934,-6.46449l-1.93937,6.46449z"/><path d="M243.1334,191.55106l3.8787,-21.72073h6.20592l2.84436,8.79172l2.84438,-8.79172h6.20592l3.87871,21.72073h-6.4645l-1.55149,-9.56747l-2.06864,9.56747h-5.68875l-2.06864,-9.56747l-1.55149,9.56747z"/></g><g stroke-width="0"><path d="M292.73733,177.04921c0,0 0.67534,8.37145 -0.08836,13.65177c-0.39129,2.70541 -1.34568,2.57149 -2.8614,2.52318c-1.51572,-0.0483 -2.15216,-1.23944 -2.20881,-2.56085c-0.05665,-1.32141 1.48788,-4.41125 1.68459,-9.66608c0.14965,-3.99744 -1.4459,-9.06132 -0.19419,-11.63543c2.89713,-5.95791 6.86453,1.0635 7.40981,2.38178c0.6938,1.67742 0.9948,2.57411 0.9948,2.57411l-4.7364,2.73148z" data-paper-data="{&quot;index&quot;:null}" fill="#fedeb5"/><path d="M282.9828,177.74699c0,0 0.74466,9.51816 -0.09743,15.52176c-0.43146,3.07596 -1.48381,2.92372 -3.15511,2.86881c-1.67131,-0.05489 -2.21838,-1.39398 -2.33138,-2.88861c-0.113,-1.49463 0.95848,-4.02334 1.3159,-10.54244c0.22398,-4.08506 -1.71488,-11.12544 -0.48426,-13.735c3.19449,-6.77402 8.2767,1.24425 8.87795,2.74311c0.76502,1.90718 1.09692,2.92672 1.09692,2.92672l-5.22257,3.10563z" data-paper-data="{&quot;index&quot;:null}" fill="#fedeb5"/><path d="M295.00021,188.2168c0,0 1.24202,-0.44766 1.8252,-0.80019c0.58319,-0.35256 1.43105,-0.98077 1.43105,-0.98077c0,0 -0.18791,1.64177 -0.32869,2.33478c-0.10683,0.52603 -0.21337,1.61165 -0.82223,1.72901c-0.5002,0.09643 -2.10532,-2.28279 -2.10532,-2.28279z" data-paper-data="{&quot;index&quot;:null}" fill="#fedeb5"/><path d="M289.78367,189.29403c-5.49194,-0.06802 -9.75287,-3.77983 -9.82087,-9.20201c-0.06374,-5.08172 3.71682,-9.33801 9.82087,-9.20198c5.42259,0.12086 9.82089,2.41958 9.82089,9.20198c0,6.37435 -4.39737,9.26918 -9.82089,9.20201z" data-paper-data="{&quot;index&quot;:null}" fill="#fedeb5"/><path d="M295.84629,184.95168c0,0 0.21134,-1.33203 0.46686,-4.40855c0.34576,-4.16335 0.19987,-5.60766 1.37865,-5.22074c0.95179,0.31242 2.45497,2.51268 1.69723,7.13929c-0.18478,1.47771 -0.92611,2.98765 -0.92611,2.98765c0,0 -0.46246,0.43377 -0.90021,0.39573c-0.43775,-0.03803 -0.60571,-0.34475 -0.95644,-0.55702c-0.40364,-0.24432 -0.76,-0.33636 -0.76,-0.33636z" data-paper-data="{&quot;index&quot;:null}" fill="#fedeb5"/><path d="M292.53288,185.9698c0,0 -2.09517,1.24854 -4.36671,0.28809c-1.30184,-0.55044 -2.99658,-2.59681 -3.53767,-4.06379c-1.4887,-4.03604 -0.25805,-6.37198 1.76208,-7.09606c1.88815,-0.67674 4.33758,0.94549 5.51038,3.97522c1.17277,3.02969 0.63191,6.89656 0.63191,6.89656z" data-paper-data="{&quot;index&quot;:null}" fill="#fedeb5"/><path d="M292.42455,181.22087c0.61932,2.76821 0.11142,4.6938 0.11142,4.6938c0,0 -0.19075,0.47269 -2.00458,0.64012c-1.40942,0.1301 -2.12023,-0.46151 -2.12023,-0.46151c0,0 -1.14875,-1.33559 -1.51094,-3.33504c-0.52429,-2.89429 0.10199,-4.95861 1.57801,-5.40193c1.47604,-0.44331 3.37976,1.3325 3.94628,3.86458z" data-paper-data="{&quot;index&quot;:null}" fill="#ffffff"/><path d="M290.07873,185.43621c-0.61771,0.03092 -1.20789,-1.32719 -1.3182,-3.0335c-0.11033,-1.70631 0.301,-3.11461 0.91872,-3.14557c0.61771,-0.03092 1.2079,1.32719 1.3182,3.0335c0.11033,1.70631 -0.301,3.11461 -0.91873,3.14557z" fill="#fedeb5"/><path d="M297.35489,177.86303c0.64898,0.387 0.92776,2.16624 0.69637,4.66649c-0.15985,1.72725 -0.83835,3.24554 -0.83835,3.24554c0,0 -0.43578,-0.322 -0.73829,-0.47867c-0.30251,-0.15665 -0.58297,-0.30664 -0.58297,-0.30664c0,0 0.05657,-1.19057 0.2525,-3.6851c0.17237,-2.19484 0.48198,-3.87618 1.21074,-3.44163z" data-paper-data="{&quot;index&quot;:null}" fill="#ffffff"/><path d="M296.04994,184.70017c-0.42471,-0.01212 -0.73981,-1.16323 -0.7038,-2.57101c0.03601,-1.4078 0.40951,-2.53924 0.8342,-2.52712c0.42471,0.01212 0.73981,1.16322 0.70379,2.57101c-0.03601,1.4078 -0.40949,2.53924 -0.83418,2.52712z" fill="#fedeb5"/><path d="M295.89208,184.98199c0,0 -0.80969,-0.18724 -1.37129,-0.03604c-0.55623,0.14975 -1.97021,0.85987 -1.97021,0.85987c0,0 0.31332,-1.2144 0.03848,-3.62627c-0.26643,-2.33803 -0.77168,-3.29317 -0.77168,-3.29317l4.65442,-0.9488z" data-paper-data="{&quot;index&quot;:null}" fill="#fedeb5"/><path d="M298.51168,185.36784c0,0 0.00656,0.75827 -0.27245,1.07724c-1.00125,1.14467 -3.22911,2.69834 -7.91843,2.98789c-4.9259,0.30417 -6.88011,-2.97608 -5.12768,-4.01409c1.53788,-0.91092 2.90825,1.17015 5.1724,1.10928c1.87387,-0.05037 3.27291,-1.48905 4.75414,-1.64554c1.08399,-0.11452 1.9136,0.94821 2.27808,0.93509c0.39526,-0.01422 1.11395,-0.44986 1.11395,-0.44986z" data-paper-data="{&quot;index&quot;:null}" fill="#fedeb5"/><path d="M294.61786,173.79078c0.16707,0.81026 0.10125,1.82066 -0.24421,1.84811c-0.18489,0.01468 -0.92037,-0.59222 -1.82486,-1.41568c-0.5546,-0.50494 -1.24032,-0.84794 -1.99102,-1.3422c-1.38738,-0.91348 -3.54478,-1.72768 -3.54478,-1.72768c0,0 1.20276,-0.37136 3.6111,-0.25383c1.65163,0.08062 3.25721,0.59974 3.25721,0.59974c0,0 0.36683,0.4985 0.73654,2.29154z" data-paper-data="{&quot;index&quot;:null}" fill="#fedeb5"/><path d="M285.57147,188.30558c0,0 -2.86662,2.90888 -3.54114,2.64339c-0.82101,-0.32315 -0.68651,-1.86955 -0.69861,-2.63327c-0.01593,-1.00618 0.14998,-3.35174 0.14998,-3.35174c0,0 1.02193,1.10018 1.74562,1.74563c0.7237,0.64543 2.34414,1.59598 2.34414,1.59598z" data-paper-data="{&quot;index&quot;:null}" fill="#fedeb5"/></g><g fill="#71ff33" stroke-width="0.26459"><path d="M153.25386,181.94928c0,-3.26169 0.97851,-5.83027 2.93552,-7.70573c1.95701,-1.87547 4.64791,-2.81321 8.07268,-2.81321c2.93552,0 4.97407,0.08154 6.11566,0.24462l-2.20163,6.84955l-0.48925,-0.48926c-0.97851,-0.65233 -2.20164,-0.73387 -3.6694,-0.24462c-1.63084,0.97852 -2.85397,2.03856 -3.66939,3.18014c-0.81543,0.97852 -0.97851,2.20164 -0.48925,3.6694l0.48925,0.48926c0.81543,1.14157 2.20163,1.46775 4.15864,0.97851c1.63084,-0.97852 2.85398,-2.03856 3.6694,-3.18016l2.93552,8.56193c-1.14159,0.65233 -3.42477,0.97851 -6.84954,0.97851c-3.42477,0 -6.11567,-1.06005 -8.07268,-3.18014c-1.95701,-2.12009 -2.93552,-4.56636 -2.93552,-7.33881z"/><path d="M173.55787,191.97898v-20.54864h11.98671c4.89253,0 7.3388,1.79393 7.3388,5.38178v0.97851c0,2.60935 -1.06005,4.32174 -3.18014,5.13715c0.65233,0.32617 1.30468,1.06006 1.95701,2.20166l1.95701,6.84954h-7.33881l-1.46776,-5.62642c-0.32617,-1.46776 -1.22313,-2.20163 -2.69089,-2.20163h-1.46776v7.82805zM183.58756,179.74764c1.30468,0 1.95701,-0.65233 1.95701,-1.95701v-0.97851c0,-0.97849 -0.65233,-1.46775 -1.95701,-1.46775h-2.93552v4.40327z"/><path d="M196.06352,191.97898v-20.54864h17.12387v5.87105h-9.78507v1.46775h9.78507v5.87104h-9.78507v1.46777h9.78507v5.87104z"/><path d="M215.63364,191.97898l6.11566,-20.54864h11.00821l6.11566,20.54864h-7.09416l-1.22313,-3.91402h-6.84954l-0.97853,3.91402zM229.0881,182.68316l-1.83469,-6.11566l-1.83471,6.11566z"/><path d="M241.31944,191.97898l3.6694,-20.54864h5.87104l2.69087,8.3173l2.6909,-8.3173h5.87104l3.6694,20.54864h-6.11566l-1.46777,-9.0512l-1.95701,9.0512h-5.38177l-1.95701,-9.0512l-1.46777,9.0512z"/></g></g></g></svg>