<svg version="1.1" xmlns="http://www.w3.org/2000/svg" xmlns:xlink="http://www.w3.org/1999/xlink" width="35.60744" height="38.74779" viewBox="0,0,35.60744,38.74779"><g transform="translate(-221.61435,-161.29042)"><g data-paper-data="{&quot;isPaintingLayer&quot;:true}" fill-rule="nonzero" stroke-linejoin="miter" stroke-miterlimit="10" stroke-dasharray="" stroke-dashoffset="0" style="mix-blend-mode: normal"><g data-paper-data="{&quot;index&quot;:null}"><path d="M250.04344,165.19422l-1.72604,0.16231l-0.83301,-1.53545z" fill="#b96a37" stroke="none" stroke-width="0" stroke-linecap="butt"/><path d="M248.38432,165.42777l-1.63481,1.24563l0.79799,-2.91015z" fill="#ebb9a2" stroke="none" stroke-width="0" stroke-linecap="butt"/><path d="M253.41346,170.75289l0.53887,-1.64778l1.74021,-0.15222z" fill="#b96a37" stroke="none" stroke-width="0" stroke-linecap="butt"/><path d="M253.86034,169.13812l-0.4911,-1.99575l2.3512,1.89146z" fill="#ebb9a2" stroke="none" stroke-width="0" stroke-linecap="butt"/><path d="M243.13295,176.01442l2.5541,-2.5694l2.30979,1.72824l-5.32927,3.74615z" data-paper-data="{&quot;index&quot;:null}" fill="#ff3200" stroke="none" stroke-width="0" stroke-linecap="butt"/><path d="M243.82578,175.24515l0.75439,-0.6938l1.95837,1.59806l-0.6383,0.47872z" fill="#caa487" stroke="none" stroke-width="0" stroke-linecap="butt"/><path d="M243.1389,176.04072l0.42091,-0.5296l2.31869,1.14847l-0.50046,0.37234z" fill="#caa487" stroke="none" stroke-width="0" stroke-linecap="butt"/><path d="M242.93123,177.15079l0.06522,-0.49352l2.15911,0.50278l-0.5222,0.38205z" fill="#caa487" stroke="none" stroke-width="0" stroke-linecap="butt"/><path d="M242.86601,177.7884l0.04348,-0.41304l1.15217,0.58696l-0.36957,0.23913z" fill="#caa487" stroke="none" stroke-width="0" stroke-linecap="butt"/><path d="M246.56226,171.83737c0,0 -0.32958,-3.04088 -0.15009,-4.6144c0.17948,-1.57352 1.68111,-2.83762 4.23522,-3.05319c3.0953,-0.26124 5.05624,2.2633 4.82144,3.2326c-0.23481,0.9693 -1.7897,2.60209 -1.7897,2.60209l-0.36451,2.32116l-1.94331,1.72549l-1.7346,1.30064c0,0 -1.27161,0.2897 -2.19303,-0.16643c-0.92143,-0.45613 -1.81754,-1.6344 -1.81754,-1.6344l0.9361,-1.71355z" data-paper-data="{&quot;index&quot;:null}" fill="#906d5f" stroke="none" stroke-width="0" stroke-linecap="butt"/><path d="M251.02333,167.71642c-1.80914,-0.83241 -4.20605,-0.91154 -4.11116,-1.74345c1.17948,-0.69852 1.18111,-1.58762 3.73522,-1.80319c3.0953,-0.26124 5.05624,2.2633 4.82144,3.2326c-0.23481,0.9693 -1.7897,2.60209 -1.7897,2.60209c0,0 -1.04302,-1.54599 -2.6558,-2.28805z" data-paper-data="{&quot;index&quot;:null}" fill="#a38273" stroke="none" stroke-width="0" stroke-linecap="butt"/><path d="M250.81026,171.1438c0,0 0.73172,-0.9784 0.17974,-1.939c-0.62256,-1.08342 -2.53181,-2.16894 -2.42185,-2.26995c0.24774,-0.22756 4.06489,2.14451 4.26479,2.07379" data-paper-data="{&quot;index&quot;:null}" fill="none" stroke="#564343" stroke-width="1" stroke-linecap="round"/><path d="M248.22306,166.90033c0.57519,0.13894 0.8502,1.8719 0.65569,2.67716c-0.19452,0.80527 -2.38206,-0.58095 -2.95725,-0.71989c-0.57518,-0.13894 -1.19392,-1.90777 -0.32803,-2.64413c0.86589,-0.73635 2.62959,0.68686 2.62959,0.68686z" fill="#c3b0b0" stroke="none" stroke-width="0" stroke-linecap="butt"/><path d="M244.9256,173.96738c-0.00333,-0.81059 1.31098,-2.21848 1.31098,-2.21848c0,0 1.52122,-0.72849 2.65959,0.00682c1.13837,0.73535 1.69723,2.26363 1.07955,3.21988c-0.21956,0.33989 -0.98396,1.16776 -1.86444,1.30367c-0.88047,0.13593 -1.2425,-0.203 -1.87222,-0.65999c-0.62971,-0.45699 -1.31011,-0.8413 -1.31344,-1.6519z" data-paper-data="{&quot;index&quot;:null}" fill="#21242a" stroke="none" stroke-width="0" stroke-linecap="butt"/></g><path d="M230.24751,187.65142l5.32337,-3.04814l1.51127,2.93649c0,0 -6.57294,2.25079 -6.78137,2.35291c-0.68975,0.33797 -1.95398,0.37942 -1.95398,0.37942l-3.9684,-0.12295c0,0 2.86528,-2.01196 4.23276,-2.31592z" data-paper-data="{&quot;index&quot;:null}" fill="#ff3200" stroke="none" stroke-width="0" stroke-linecap="butt"/><g data-paper-data="{&quot;index&quot;:null}" stroke-linecap="butt"><path d="M239.36484,185.37894c2.03324,-1.46856 3.62288,-2.12765 5.03163,-1.16783c2.30934,1.57341 2.86132,3.98725 2.86132,3.98725l-2.56793,1.36556c0,0 -0.36129,-1.73794 -1.21663,-2.90649c-0.77373,-1.05705 -3.26602,1.7821 -3.26602,1.7821z" data-paper-data="{&quot;index&quot;:null}" fill="#ff3200" stroke="none" stroke-width="0"/><path d="M241.36908,187.25001l-0.2,-2.8l0.9,-0.6l0.2,2.8z" fill="#caa487" stroke="none" stroke-width="0"/><path d="M240.16908,188.35001l-0.1,-3.4l0.6,-0.4l0.4,3z" fill="#caa487" stroke="none" stroke-width="0"/><path d="M248.39856,188.80279c-1.07947,0 1.18998,-2.24699 2.5,-3.13636c1.31002,-0.88937 2.56764,-1.20409 4.22727,-0.5c1.65963,0.70408 2.09596,2.2194 2.09596,3.44949c0,1.23009 -7.74376,0.18687 -8.82323,0.18687z" data-paper-data="{&quot;index&quot;:null}" fill="#2d3635" stroke="none" stroke-width="0"/><path d="M253.34977,193.92712c0,0 -1.41825,1.52151 -2.87491,2.14221c-1.45666,0.6207 -2.4786,0.50576 -3.97176,-0.50449c-0.84751,-0.57341 -2.37553,-2.20817 -1.76561,-3.73546c0.46464,-1.16352 3.00933,-2.26467 3.11167,-2.78663c0.08299,-0.42331 1.43641,-0.9739 2.31207,-0.17955c1.62137,1.47082 3.18854,5.06391 3.18854,5.06391z" data-paper-data="{&quot;index&quot;:null}" fill="#2d3635" stroke="none" stroke-width="0"/><path d="M254.65968,192.9836c0,0 -3.70645,3.98702 -5.54544,2.72727c-2.37977,-1.63019 0.94117,-5.90643 0.94117,-5.90643c0,0 2.84966,-5.16796 6.50279,-2.51221c1.93207,1.40457 -2.0062,5.50589 -1.89852,5.69136z" data-paper-data="{&quot;index&quot;:null}" fill="#ac5626" stroke="none" stroke-width="0"/><path d="M256.38693,190.71187l-3.11637,3.45307l-3.76617,-3.36367l0.32721,-1.8942c0,0 -1.27746,-0.94818 -1.34677,-1.06757c-0.12511,-0.21547 1.49487,-1.18346 1.49487,-1.18346l1.89641,0.42563l0.52416,0.37087z" data-paper-data="{&quot;index&quot;:null}" fill="#b3937c" stroke="none" stroke-width="0"/><path d="M248.1129,188.90891c-0.71696,0.5623 -2.66001,2.60864 -3.43847,2.70785c-0.51567,0.06572 -1.26754,-0.79653 -1.4562,-1.03708c-0.47347,-0.60369 0.70632,-2.07258 1.89822,-3.00737c1.1919,-0.9348 2.54195,-1.2032 3.01542,-0.59951c0.47347,0.60369 1.17293,1.00132 -0.01897,1.93612z" data-paper-data="{&quot;index&quot;:null}" fill="#21242a" stroke="#000000" stroke-width="0"/><path d="M243.46908,186.55001l1.6,-1.8l0.8,0.8l-1.9,1.8z" fill="#caa487" stroke="none" stroke-width="NaN"/><path d="M242.56908,186.45001l0.6,-2.7l1,0.3l-0.8,2.3z" fill="#caa487" stroke="none" stroke-width="0"/><path d="M256.11566,185.83435c0,0 -1.63502,-0.63093 -3.00501,-0.29344c-0.86399,0.21285 -1.85735,1.39514 -1.85735,1.39514l-0.35832,-0.06882c0,0 1.15976,-1.28006 2.18747,-1.54134c1.02771,-0.26128 2.81253,0.27016 2.81253,0.27016l0.22068,0.23831z" fill="#da8657" stroke="none" stroke-width="0"/></g><g data-paper-data="{&quot;index&quot;:null}" stroke="none" stroke-width="0" stroke-linecap="butt"><path d="M235.14525,184.36456c0,-1.59688 -0.16568,-2.6012 0.74287,-3.57362c0.75815,-0.81145 4.1241,-1.32566 4.89577,-0.4378c0.84121,0.96788 0.75027,2.16304 0.75027,3.69091c0,1.35129 -0.41118,2.29885 -1.08819,3.23544c-0.79065,1.09383 -1.30283,0.01747 -2.58703,0.01747c-2.3838,0 -2.7137,-2.93239 -2.7137,-2.93239z" data-paper-data="{&quot;index&quot;:null}" fill="#59423a"/><path d="M238.8848,184.96152c-1.46534,-0.05862 -3.71969,-0.53341 -3.71969,-0.53341v-0.83334c0,0 3.21558,0.46021 4.10184,0.47812c0.88627,0.01791 2.24431,-0.34991 2.24431,-0.34991l0.0641,0.96154c0,0 -1.22523,0.33561 -2.69057,0.27699z" fill="#6e2b11"/><path d="M241.77898,190.08177l-2.52236,-1.13383l-0.82345,-4.00921l2.77909,-0.98883l1.93971,3.63235z" fill="#d79774"/><path d="M241.5564,189.22185l-2.12824,-0.95666l-0.72484,-3.55104l2.28075,-0.60797l1.73078,3.0067z" fill="#494a42"/><path d="M236.63948,181.62533l5.0641,-0.78832l-1.5009,3.06242z" fill="#ebb074"/><path d="M239.97281,183.21017l-2.69231,-1.66666l4.03847,-0.57692z" fill="#4f5945"/><path d="M237.92153,181.4794l3.01282,-0.51282l-1.02564,1.41026z" fill="#ebb074"/><path d="M238.43435,184.68453l0.49077,-0.55324l1.75282,-0.28009l0.51282,0.19231l-0.76923,2.11539z" fill="#3fcf78"/></g><g data-paper-data="{&quot;index&quot;:null}"><path d="M244.12308,175.85579c0.36237,2.99801 2.1275,6.95862 2.1275,6.95862c0,0 -2.71199,-1.1168 -3.33994,-2.26416c-1.36676,-2.49728 -1.53647,-6.15864 -2.10714,-5.95358c-0.01411,0.00507 -1.45445,0.51897 -3.02651,1.05149c-0.96443,0.32669 -2.14852,0.03675 -2.58199,1.47876c-0.65341,2.17368 1.99739,8.60819 1.99739,8.60819l-4.27415,-6.54601c0,0 0.59232,2.36729 1.08595,3.71197c0.68893,1.87665 2.66066,6.49393 2.66066,6.49393c0,0 -3.3256,-3.16554 -4.546,-5.55161c-1.47827,-2.89026 -3.69923,-10.56907 -3.69923,-10.56907c0,0 2.01144,7.4995 3.55451,12.22065c1.54307,4.72114 2.32778,5.77668 2.32778,5.77668c0,0 -3.57576,-3.45239 -5.02732,-6.21316c-1.45155,-2.76076 -2.85479,-6.70172 -2.85479,-6.70172l0.6133,6.21828c0,0 -1.47636,-3.17033 -1.99224,-4.76796c-0.49113,-1.52096 -0.71993,-5.06791 -0.71993,-5.06791c0,0 0.27272,-2.01984 1.09331,-3.60375c1.49454,-2.8848 2.74785,-2.87147 2.74785,-2.87147c0,0 3.09395,-2.84771 5.82525,-2.98614c3.3561,-0.17009 7.4896,0.87125 9.08852,3.33579c1.41229,2.17687 0.71671,4.50779 1.04722,7.24218z" data-paper-data="{&quot;index&quot;:null}" fill="#ff3300" stroke="none" stroke-width="0" stroke-linecap="butt"/><path d="M240.63985,172.40183c1.50995,0.22908 2.31323,-0.32997 3.29535,1.17607c0.54024,0.82844 0.75633,2.62385 -0.6311,5.21228c-1.13263,0.60406 -0.52903,1.82164 -2.5209,2.2921c-1.99188,0.47046 -3.86155,0.91647 -5.21603,-0.52911c-1.24775,-1.72269 -2.00588,-3.81687 -2.02429,-4.31667c-0.06361,-1.72675 -0.27899,-2.30615 2.17452,-3.23888c1.83405,-0.69724 3.4125,-0.82488 4.92245,-0.5958z" data-paper-data="{&quot;index&quot;:null}" fill="#ffbe7e" stroke="none" stroke-width="0" stroke-linecap="butt"/><path d="M232.86132,171.80967c0,0 -0.95211,-3.5714 1.31467,-4.16039c4.32037,-0.40595 3.79528,2.60023 3.79528,2.60023" data-paper-data="{&quot;index&quot;:null}" fill="none" stroke="#000000" stroke-width="0.5" stroke-linecap="round"/><path d="M240.50895,170.4954c0,0 0.29028,-2.26805 1.93499,-2.0557c1.21612,0.21234 0.91089,2.25223 0.91089,2.25223" data-paper-data="{&quot;index&quot;:null}" fill="none" stroke="#000000" stroke-width="0.5" stroke-linecap="round"/><path d="M239.53492,180.62098c-1.85769,0 -3.36364,-1.17857 -3.36364,-2.63241c0,-1.45384 1.50595,-2.63241 3.36364,-2.63241c1.85768,0 3.36363,1.17857 3.36363,2.63241c0,1.45384 -1.50594,2.63241 -3.36363,2.63241z" data-paper-data="{&quot;index&quot;:null}" fill="#000000" stroke="none" stroke-width="0" stroke-linecap="butt"/><path d="M238.80764,180.43916c-1.25519,0 -2.27273,-0.93613 -2.27273,-2.09091c0,-1.15477 1.01754,-2.0909 2.27273,-2.0909c1.2552,0 2.27273,0.93612 2.27273,2.0909c0,1.15477 -1.01754,2.09091 -2.27273,2.09091z" data-paper-data="{&quot;index&quot;:null}" fill="#ff0017" stroke="none" stroke-width="0" stroke-linecap="butt"/><g stroke="none" stroke-width="0" stroke-linecap="butt"><g><path d="M243.41259,162.94561c0.73277,1.58088 -0.73702,4.05217 -2.35088,5.53697c-1.12425,1.03434 -1.39147,1.65741 -1.65257,1.62816c-0.37145,-0.04161 -1.11979,-1.3319 -1.89062,-1.94656c-1.80978,-1.44306 -3.79397,-4.57696 -1.63095,-6.08648c1.79507,-1.25276 3.9483,1.45576 3.9483,1.45576c0,0 2.65615,-2.57391 3.57669,-0.58786z" fill="#d67a49"/><path d="M240.90233,162.47243c-0.03467,0.32498 -0.24338,0.56098 -0.49404,0.73137c-0.20199,0.1373 -0.6729,0.47065 -0.6729,0.47065c0,0 -0.40774,-0.5184 -0.57077,-0.66953c-0.23886,-0.22143 -0.42465,-0.41038 -0.38743,-0.75917c0.06261,-0.58684 0.58909,-1.01182 1.17594,-0.94922c0.58686,0.06261 1.01182,0.58909 0.94922,1.17594z" fill="#d67a49"/><path d="M239.82141,163.07797c-0.43392,-0.04629 -0.74814,-0.43558 -0.70185,-0.86949c0.04628,-0.4339 0.43557,-0.74813 0.86948,-0.70184c0.4339,0.04629 0.74813,0.43556 0.70184,0.86947c-0.04629,0.43392 -0.43556,0.74815 -0.86947,0.70186z" fill="#770000"/><path d="M243.10556,163.20503c0.65595,1.41519 -0.80968,3.68341 -2.25436,5.01258c-1.00638,0.92594 -1.24563,1.48371 -1.47934,1.45751c-0.33249,-0.03725 -1.00239,-1.19227 -1.69245,-1.74252c-1.62007,-1.29182 -3.42046,-4.20772 -1.48416,-5.55903c1.60691,-1.12146 3.62383,1.49442 3.62383,1.49442c0,0 2.46241,-2.44085 3.28647,-0.66298z" fill="#29382d"/><path d="M243.21999,164.5427c0,0 -2.85323,0.21922 -3.49647,0.17505c-1.33268,-0.0915 -4.35774,-0.72514 -4.35774,-0.72514c0,0 -0.09903,-0.32801 0.16875,-0.9296c0.1247,-0.28019 0.53724,-0.63002 0.53724,-0.63002c0,0 3.12195,1.77815 3.66564,1.83616c1.23767,0.13204 3.28295,-1.28472 3.28295,-1.28472c0,0 0.22821,0.45166 0.25444,0.77089c0.02621,0.31923 -0.05484,0.78737 -0.05484,0.78737z" fill="#ffac5f"/><path d="M241.64141,167.38622c0,0 -0.99718,-0.80994 -1.71299,-0.85814c-0.79899,-0.05379 -3.0785,0.65695 -3.0785,0.65695c0,0 -0.42428,-0.50337 -0.57716,-0.71968c-0.11939,-0.16892 -0.28778,-0.50003 -0.28778,-0.50003c0,0 2.84926,-0.46146 3.68317,-0.3725c0.89313,0.09528 2.7569,0.76179 2.7569,0.76179c0,0 -0.22047,0.33877 -0.34547,0.50937c-0.1276,0.17411 -0.43814,0.52225 -0.43814,0.52225z" fill="#ffac5f"/><path d="M240.40146,168.68658c0,0 -0.82355,1.0242 -1.07337,1.06653c-0.23796,0.04032 -0.98967,-1.10209 -0.98967,-1.10209c0,0 0.03112,-0.86131 -0.19139,-2.04249c-0.35902,-1.90593 -0.6281,-2.78299 0.2163,-3.3803c0.52732,-0.37302 1.59751,0.24752 1.59751,0.24752c0,0 1.75395,-0.79356 1.96395,0.36758c0.10545,0.5831 0.10467,0.60435 -0.26382,1.38867c-0.21647,0.46071 -0.08716,0.94465 -0.17386,1.13076c-0.18594,0.39913 -0.63628,0.19265 -0.89315,0.66358c-0.50862,1.15942 -0.19252,1.66019 -0.19252,1.66019z" fill="#d67a49"/><path d="M240.41926,166.80057c-0.41627,0.99543 -0.17129,2.22373 -0.17129,2.22373c0,0 -0.62902,0.84872 -0.83063,0.88633c-0.19204,0.03582 -0.93389,-0.99028 -0.93389,-0.99028c0,0 0.09202,-1.32147 -0.08096,-2.33157c-0.27912,-1.62987 -0.61391,-2.61388 0.06999,-3.12983c0.42712,-0.32222 1.35139,0.28651 1.35139,0.28651c0,0 1.59945,-0.75245 1.64986,-0.20926c0.04276,0.46095 -0.47484,1.87825 -1.05447,3.26434z" fill="#ffac5f"/><path d="M240.41925,166.80059c-0.21261,0.50843 -1.64304,-0.31957 -2.16806,-1.24203c-0.50287,-0.88356 -0.1668,-1.91348 0.16778,-2.1659c0.42712,-0.32222 1.44124,0.2961 1.44124,0.2961c0,0 1.56311,-0.69576 1.61352,-0.15257c0.04276,0.46095 -0.47484,1.87825 -1.05447,3.26434z" fill="#d67a49"/><path d="M241.33371,166.43284c-0.23858,0.22891 -1.04802,0.18082 -1.47236,0.05388c-0.58717,-0.17565 -0.89017,-0.87611 -1.08749,-2.23561c-0.05411,-0.37283 0.17821,-0.56751 0.58854,-0.59391c0.40459,-0.02604 0.50651,0.20184 0.95448,0.24279c0.44438,0.04063 0.86127,-0.54759 0.96263,-0.53678c0.09233,0.00986 0.73686,0.11543 0.59002,1.02402c-0.52711,0.75712 -0.37201,1.88849 -0.53578,2.04563z" fill="#ffac5f"/><path d="M240.33515,167.88334l-0.30062,0.36974c0,0 0.11875,-0.94645 0.14077,-1.25095c0.02007,-0.27788 -0.01388,-0.5035 -0.01388,-0.5035l0.70252,0.01467c0,0 -0.1477,0.18257 -0.15078,0.4101c-0.00429,0.3172 -0.05223,1.29606 -0.05223,1.29606z" fill="#8c3e22"/><path d="M239.74719,165.10835c0,0 -0.1401,0.35062 -0.59089,0.07758c-0.21336,-0.12922 -0.12025,-0.75617 -0.12025,-0.75617l0.71115,0.67859z" fill="#016929"/><path d="M241.34307,165.10377l0.2927,-0.75628c0,0 0.10897,0.21317 -0.02436,0.5123c-0.08986,0.20162 -0.26834,0.24398 -0.26834,0.24398z" fill="#016929"/></g><path d="M237.58209,168.27628c0,0 -5.60972,1.34413 -6.65125,-1.49526c-0.11517,-0.48935 0.14143,-0.49929 0.14143,-0.49929l0.69846,-0.30049c0,0 -0.22147,0.09729 -0.03475,0.5973c0.60236,1.61304 5.20499,0.78298 5.20499,0.78298l0.64111,0.91476z" fill="#ffac5f"/><path d="M235.66031,168.53632c0,0 -0.89239,0.08291 -1.41042,0.06939c-0.51803,-0.01353 -1.32036,-0.1407 -1.32036,-0.1407l-0.01454,-1.03582c0,0 0.77669,0.1022 1.29832,0.12992c0.52163,0.02772 1.18657,-0.02764 1.18657,-0.02764l0.26044,1.00486z" fill="#29382d"/><path d="M231.16147,167.22834c0,0 -0.17623,-0.23567 -0.23104,-0.43302c-0.05481,-0.19735 -0.01784,-0.46315 -0.01784,-0.46315l0.84468,-0.36308c0,0 -0.10136,0.20086 -0.04562,0.43681c0.05573,0.23595 0.27983,0.55464 0.27983,0.55464z" fill="#29382d"/></g><path d="M244.08204,181.72222l-0.77778,-0.55555l2.03704,-0.59259l0.2963,0.81482z" fill="#caa487" stroke="none" stroke-width="NaN" stroke-linecap="butt"/><path d="M242.80806,180.46727l-0.33333,-0.70371l2.37037,-0.66666l0.29629,0.81482z" fill="#caa487" stroke="none" stroke-width="0" stroke-linecap="butt"/><path d="M235.60688,183.25961l-0.82475,-1.28866h1.08248l0.36083,1.34021z" fill="#caa487" stroke="none" stroke-width="0" stroke-linecap="butt"/><path d="M234.06049,181.09467l-0.51546,-1.03093l1.95876,0.15464l0.05155,0.77319z" fill="#caa487" stroke="none" stroke-width="0" stroke-linecap="butt"/><path d="M233.80276,186.45549l-1.08247,-1.64948l1.70103,-0.72165l0.6701,1.70103z" fill="#caa487" stroke="none" stroke-width="0" stroke-linecap="butt"/><path d="M231.94708,183.51735l-0.77319,-1.95876l2.26804,-0.25773l0.51547,1.49484z" fill="#caa487" stroke="none" stroke-width="0" stroke-linecap="butt"/><path d="M229.21514,184.96064l-0.61856,-1.3402l2.42268,-1.03093l0.41237,1.49485z" fill="#caa487" stroke="none" stroke-width="0" stroke-linecap="butt"/><path d="M231.27698,188.00188l-1.03092,-1.39175l1.59794,-1.70103l0.72165,2.31959z" fill="#caa487" stroke="none" stroke-width="0" stroke-linecap="butt"/><path d="M225.14297,180.21838l-0.30927,-1.49484l1.59793,-0.30928l0.15464,1.80412z" fill="#caa487" stroke="none" stroke-width="0" stroke-linecap="butt"/><path d="M224.42132,176.40395v-1.75258l0.56701,-0.10309l0.56701,1.54639z" fill="#caa487" stroke="none" stroke-width="0" stroke-linecap="butt"/><path d="M243.44732,174.37065c0,0 -0.55099,-0.43385 -0.53367,-0.75688c0.01732,-0.32303 0.61792,-0.64729 0.61792,-0.64729c0,0 1.59231,0.42575 1.70155,0.72976c0.10924,0.30401 -1.7858,0.67441 -1.7858,0.67441z" data-paper-data="{&quot;index&quot;:null}" fill="#030000" stroke="none" stroke-width="0" stroke-linecap="butt"/></g><path d="M227.0586,174.88096z" data-paper-data="{&quot;index&quot;:null}" fill="#030000" stroke="none" stroke-width="0" stroke-linecap="butt"/><g data-paper-data="{&quot;index&quot;:null}"><g><path d="M224.50342,166.16593l-1.33897,1.10122l-1.55009,-0.80542z" fill="#b96a37" stroke="none" stroke-width="0" stroke-linecap="butt"/><path d="M223.25979,167.28869l-0.34404,2.1488l-1.28149,-3.05902z" fill="#ebb9a2" stroke="none" stroke-width="0" stroke-linecap="butt"/><path d="M235.47457,183.08592l-6.53689,-7.53388l2.14673,-1.1704l5.03976,6.6079z" data-paper-data="{&quot;index&quot;:null}" fill="#ff3200" stroke="none" stroke-width="0" stroke-linecap="butt"/><path d="M227.29195,174.52871c0,0 -2.52841,0.20358 -3.86431,-3.50247c-0.71456,-1.98236 -1.14135,-3.09443 0.30254,-5.21225c1.74983,-2.56655 4.94572,-2.49562 5.54971,-1.70198c0.604,0.79364 -0.03866,3.61665 -0.03866,3.61665c0,0 0.3048,0.59438 0.82423,0.33667c1.02321,-0.50768 2.18168,-2.21408 2.59878,-1.13837c0.62885,1.62179 0.36404,2.85232 0.01621,3.89436c-0.23543,0.70535 -0.6677,0.93195 -0.83512,1.34674c-0.17808,0.44118 -0.07618,1.48387 -0.07618,1.48387c0,0 -0.57736,1.16943 -1.51253,1.59667c-0.93517,0.42724 -2.41471,0.37931 -2.41471,0.37931l-0.54997,-1.09918z" data-paper-data="{&quot;index&quot;:null}" fill="#906d5f" stroke="none" stroke-width="0" stroke-linecap="butt"/><path d="M228.88565,170.7433c0,0 0.34521,-1.18158 -0.74835,-1.35923c-0.39463,-0.06411 -0.56183,-0.43593 -1.0296,-0.35953c-0.99419,0.16238 -2.0203,0.60085 -2.02644,0.49949c-0.0203,-0.33578 3.70019,-1.63697 3.77141,-1.83669" data-paper-data="{&quot;index&quot;:null}" fill="none" stroke="#564343" stroke-width="1" stroke-linecap="round"/><path d="M230.06547,168.06532c1.02321,-0.50768 2.18168,-2.21408 2.59878,-1.13837c0.62885,1.62179 0.36404,2.85232 0.01621,3.89436c-0.23543,0.70535 -0.6677,0.93195 -0.83512,1.34674c-0.17808,0.44118 -2.2993,-3.84501 -1.77987,-4.10273z" data-paper-data="{&quot;index&quot;:null}" fill="#c3b0b0" stroke="none" stroke-width="0" stroke-linecap="butt"/><path d="M229.27006,177.64259c-0.75899,-0.28463 -1.60865,-2.0131 -1.60865,-2.0131c0,0 -0.14105,-1.68074 0.95047,-2.48397c1.09155,-0.80321 2.71868,-0.78318 3.3934,0.13372c0.23981,0.32591 0.74242,1.33441 0.55694,2.20579c-0.18546,0.87139 -0.63084,1.08953 -1.2816,1.51602c-0.65077,0.42648 -1.25157,0.92614 -2.01056,0.64153z" data-paper-data="{&quot;index&quot;:null}" fill="#21242a" stroke="none" stroke-width="0" stroke-linecap="butt"/><path d="M234.21334,181.57044l-1.13692,-1.23966l1.81008,-0.89321l0.77003,0.91427z" fill="#caa487" stroke="none" stroke-width="NaN" stroke-linecap="butt"/><path d="M232.50795,179.71095l-0.44858,-0.52894l1.90099,-1.01309l0.65014,0.82337z" fill="#caa487" stroke="none" stroke-width="0" stroke-linecap="butt"/><path d="M231.86505,178.94028l-0.52301,-0.67977l1.76661,-1.20938l0.46307,0.63432z" fill="#caa487" stroke="none" stroke-width="0" stroke-linecap="butt"/><path d="M231.02784,177.92788l-0.38139,-0.43078l1.81931,-1.21663l0.50852,0.57438z" fill="#caa487" stroke="none" stroke-width="0" stroke-linecap="butt"/></g><path d="M229.2228,167.67004c0,0 -0.74323,-0.10324 -2.3483,0.65535c-1.80049,0.85095 -3.21843,2.48904 -3.79476,1.88165c-0.21096,-1.25218 -0.77371,-2.45154 0.70275,-4.54678c1.78932,-2.53919 4.87485,-2.32247 5.46651,-1.5196c0.59165,0.80289 -0.0262,3.52938 -0.0262,3.52938z" data-paper-data="{&quot;index&quot;:null}" fill="#a38273" stroke="none" stroke-width="0" stroke-linecap="butt"/></g><g data-paper-data="{&quot;index&quot;:null}" stroke="none" stroke-width="0" stroke-linecap="butt"><path d="M240.53491,190.66643c0,0.48071 -0.42446,6.49864 -2.18248,8.15768c-1.75801,1.65904 -4.95618,1.71038 -6.01384,-0.42283c-0.86424,-1.74309 -0.29273,-5.69614 0.05996,-7.50757c0.35269,-1.81143 0.82634,-3.247 2.13636,-4.13637c1.31002,-0.88937 2.56764,-1.20408 4.22728,-0.5c1.65964,0.70409 1.77273,3.179 1.77273,4.40909z" data-paper-data="{&quot;index&quot;:null}" fill="#ac5626"/><path d="M231.97623,195.07145c0,0 -0.12536,-1.56344 -0.00874,-2.70053c0.11662,-1.13709 0.72302,-2.8709 0.72302,-2.8709l7.71429,0.71428c0,0 0.26426,0.20915 0.10874,1.72544c-0.15552,1.51629 -0.68018,3.84599 -0.68018,3.84599z" fill="#b3937c"/></g></g></g></svg>