<svg version="1.1" xmlns="http://www.w3.org/2000/svg" xmlns:xlink="http://www.w3.org/1999/xlink" width="102.60134" height="194.75273" viewBox="0,0,102.60134,194.75273"><g transform="translate(-197.21739,-86.20429)"><g data-paper-data="{&quot;isPaintingLayer&quot;:true}" fill-rule="nonzero" stroke="none" stroke-linecap="butt" stroke-linejoin="miter" stroke-miterlimit="10" stroke-dasharray="" stroke-dashoffset="0" style="mix-blend-mode: normal"><path d="M236.27239,261.66229c0,2.28129 3.28477,5.65012 -0.45352,10.75157c-1.60817,2.19528 -12.24702,7.70138 -13.90928,7.70138c-1.97438,0 -5.58039,0.11534 -8.16208,-1.94701c-1.79193,-1.43224 -3.4203,-3.79889 -3.22091,-4.34234c0.74675,-2.03498 1.40291,-2.66183 2.47612,-3.43725l7.63492,3.72656c4.96266,2.42269 15.63474,-15.71554 15.63474,-12.45293z" data-paper-data="{&quot;index&quot;:null}" fill="#319a2b" stroke-width="0.17188"/><path d="M236.71613,258.46875l-0.72785,6.04173c-0.93311,5.30867 -1.13055,4.11557 -6.51154,7.44074c-2.01739,1.24588 -12.88559,5.84951 -15.00463,2.08906c-1.44397,-2.56148 -2.85862,-2.37707 0.97285,-5.94594c4.78022,-4.45245 7.34496,-3.73307 13.05566,-11.48463c2.13533,-2.89836 2.97264,-20.20644 3.53173,-23.57983c0.33362,-3.35775 6.91815,-10.19249 7.07453,-6.81845l-1.49349,23.55506z" data-paper-data="{&quot;index&quot;:null}" fill="#ffffff" stroke-width="0.17188"/><path d="M255.20167,274.95709l7.63492,-3.72721c1.07255,0.77541 1.72873,1.40357 2.47612,3.43855c0.19939,0.54344 -1.42898,2.90944 -3.22091,4.34103c-2.58168,2.063 -6.18834,1.94636 -8.16272,1.94636c-1.66226,0 -12.30045,-5.50546 -13.90992,-7.70074c-3.73894,-5.10145 -0.45287,-8.46963 -0.45287,-10.75092c0,-3.26327 10.67272,14.87561 15.6354,12.45293z" data-paper-data="{&quot;index&quot;:null}" fill="#319a2b" stroke-width="0.17188"/><path d="M238.22592,250.25585l-1.31299,-19.10978c0.15704,-3.45875 8.01481,8.7974 8.34843,12.2392c2.19789,13.60628 8.35104,19.9699 15.13235,25.66107c4.02174,3.37404 2.41552,3.46917 0.97351,6.09451c-2.11904,3.85623 -12.9879,-0.86338 -15.00463,-2.1412c-5.38165,-3.40923 -5.57843,-2.18616 -6.51284,-7.62841l-0.72654,-6.19356z" data-paper-data="{&quot;index&quot;:null}" fill="#ffffff" stroke-width="0.17188"/><path d="M263.80814,230.36545c-0.44114,3.13555 -10.88971,3.07951 -12.02808,0.05864c-1.52876,-4.02781 -5.99903,-13.76432 -8.16604,-24.09418c-1.92665,-9.1841 -0.53204,-19.09232 0.19815,-19.19751c0.55275,-0.04194 3.29808,6.11998 5.94034,10.50239c6.38782,10.5947 14.80143,27.33761 14.05562,32.73066z" data-paper-data="{&quot;index&quot;:null}" fill="#ffffff" stroke-width="0.19137"/><path d="M221.29476,215.30704c0,0.62229 -0.13358,11.5739 0.18245,16.00029c0.18571,2.60058 -5.14446,8.14969 -5.83517,8.76612l-4.10906,3.66401l2.76152,-9.52264l1.72742,-9.81782z" data-paper-data="{&quot;index&quot;:null}" fill="#54c81c" stroke-width="0.17188"/><path d="M235.72243,210.79954c-0.05669,-3.46462 14.08977,12.30957 14.08977,13.81609c0,0.62229 1.43876,1.20027 1.45569,5.63773c0.00716,2.06496 -2.44288,6.85298 -3.10753,9.67446l-2.11056,8.93619l-5.78239,-12.97682l-4.27261,-8.36342z" data-paper-data="{&quot;index&quot;:null}" fill="#54c81c" stroke-width="0.17188"/><path d="M218.94542,210.27044c-0.05734,-3.46266 17.36086,0.31277 17.36086,1.81799c0,0.62229 -0.67767,13.93729 -0.36164,18.36303c0.18571,2.60058 -4.80628,10.33976 -5.28977,11.12951l-6.47245,10.57238l-2.14706,-10.06868c-1.1325,-4.85906 -2.09883,-9.55196 -2.27281,-13.45315z" data-paper-data="{&quot;index&quot;:null}" fill="#54c81c" stroke-width="0.17188"/><path d="M215.35207,223.13093c1.83754,-6.37796 -1.76651,-14.40711 0.35187,-14.36345c1.52542,0.03258 4.21853,-15.21966 5.41032,-12.31218c2.1047,5.13209 -0.13879,3.88164 -0.13879,14.03894c0,3.71288 -0.20135,7.12406 -0.84319,10.73202c-0.69331,3.89402 -2.96027,3.4177 -4.09733,5.41684z" data-paper-data="{&quot;index&quot;:null}" fill="#ffffff" stroke-width="0.17188"/><path d="M233.47047,175.33695c-0.11013,-1.99914 -0.70569,-2.73155 -1.16703,-5.9088c-0.14596,-1.00608 0.70439,-3.69463 0.34731,-4.85515c-0.33949,-1.09796 1.46026,-4.58278 1.84211,-5.28847c1.48763,-2.74393 5.04476,-2.03889 5.90489,-2.03889c0.68094,0 3.9051,0.29388 4.4088,0.82885c1.63294,1.73524 1.99979,5.74134 1.99979,10.80565c0,2.32509 -1.94771,6.54338 -2.04936,10.60439c-0.18806,7.5135 4.09694,16.98861 1.54891,10.43914c-1.76587,-1.44201 -10.71767,-9.15034 -11.58887,-11.95356c-1.33319,-4.28499 -1.10643,-0.10295 -1.24653,-2.63316z" data-paper-data="{&quot;index&quot;:null}" fill="#319a2b" stroke-width="0.17188"/><path d="M221.09312,193.60615c0.99371,-5.11123 1.90662,-10.62842 4.93856,-15.07566c1.69093,-2.48134 6.79174,-10.75353 8.47419,-8.04088c3.87839,6.25285 2.57386,16.32089 2.57386,26.47884c0,3.71157 -0.3838,15.84977 -1.02563,19.45774c-0.69331,3.89402 -2.77782,5.05454 -3.91553,7.05369c-2.32495,4.09081 -4.15858,6.48483 -6.3304,6.48483c-2.27086,0 -3.88816,-3.33429 -4.89751,-6.54803c-0.86534,-2.7537 -1.28367,-4.74308 -1.28367,-12.08672c0,-7.42119 0.35773,-11.94532 1.46612,-17.7238z" data-paper-data="{&quot;index&quot;:null}" fill="#ffffff" stroke-width="0.17188"/><path d="M236.54606,195.19543c-1.23545,-7.25633 -2.89901,-15.87453 -0.73827,-15.81719c1.52411,0.0391 6.94486,5.5048 8.13796,8.41229c2.1034,5.13143 0.952,6.24503 0.952,16.40169c0,3.71288 5.79673,9.85169 5.15489,13.45901c-0.69331,3.89402 -0.0378,8.04934 -1.55214,9.78068l-2.33081,2.66704c-1.49479,1.70982 -4.43356,-2.42465 -5.44291,-5.63903c-0.86599,-2.75436 -4.19246,-8.74201 -4.19246,-16.08565c0,-7.42184 0.89531,-7.98614 0.01173,-13.17882z" data-paper-data="{&quot;index&quot;:null}" fill="#ffffff" stroke-width="0.17188"/><path d="M255.48443,121.99688c1.48636,0.18692 2.44581,1.52304 3.5624,2.38739c1.20111,1.1802 2.62443,2.19737 3.59667,3.5818c0.59426,1.60348 0.21167,3.38246 0.09985,5.03955c-0.72413,6.00696 -2.04382,11.91957 -3.3066,17.83431c-0.3842,2.45491 -2.156,4.41244 -4.17214,5.73113c-2.18649,1.3807 -4.89689,1.38058 -7.37699,1.78817c-3.85375,0.49154 -7.75789,0.44958 -11.58294,-0.22211c-4.74543,-0.57689 -10.65232,-1.96087 -14.44298,-5.24784c-2.66435,-1.66177 -2.23326,-1.53554 -5.00667,-3.08597c-5.42102,-4.03006 -8.74805,-10.38914 -9.94004,-16.95746c-0.74441,-3.93059 -0.83452,-8.05751 0.12768,-11.95922c0.50061,-1.6303 1.05456,-3.58549 2.69033,-4.41342c1.33038,-0.56069 2.60856,0.55723 3.3017,1.59597c1.30299,1.93459 2.26431,4.08178 3.21275,6.20166c1.34018,3.16223 2.22921,6.60104 4.38459,9.30921c0.20904,0.13093 0.08709,-0.494 0.15097,-0.6066c0.78053,-0.87054 -0.5503,-4.40873 -0.0215,-4.55958c0.42377,-0.19208 2.21743,1.065 2.40166,1.30114c0.57316,1.43187 0.3622,1.83225 1.35465,3.04058c2.48948,0.19879 2.4555,1.48881 4.812,0.393c3.24382,-1.48795 6.50754,-3.72172 9.42408,-5.74099c3.34242,-2.31884 6.00337,-4.8345 9.87177,-6.21382c1.58223,-0.51159 5.22935,0.55425 6.8588,0.8031z" data-paper-data="{&quot;index&quot;:null}" fill="#f0e9bb" stroke-width="0.17188"/><path d="M252.12967,135.33519c-0.78416,4.21589 5.84374,3.07104 7.96387,3.04254c1.29369,0.16784 5.25374,-1.76598 4.53266,-1.05988c-1.81876,1.78256 -11.73635,2.27195 -12.78427,1.52164c1.47942,-2.43373 -9.14614,-4.62636 0.28774,-3.50428z" data-paper-data="{&quot;index&quot;:null}" fill="#000000" stroke-width="0.17188"/><path d="M241.22814,131.56262c2.67237,-2.9531 4.61697,-2.81384 6.87283,-2.52118c3.15924,0.40987 4.60582,4.76272 4.09979,8.66315c-0.28898,2.22743 -1.51747,4.49462 -2.85963,6.17935c-0.01511,0.57233 -2.91112,0.45811 -6.03481,0.20464c-2.00131,-0.16305 -4.18622,-0.66335 -5.8269,-0.8762c-1.55846,-0.37566 0.21683,-7.64252 1.78804,-9.20357c0.58576,-1.11659 1.30411,-1.72054 1.9607,-2.44619z" data-paper-data="{&quot;index&quot;:null}" fill="#ffffff" stroke-width="0.17188"/><path d="M242.9522,152.40684c0.13835,0.03766 -1.08349,2.82553 -4.8547,2.44822c-2.11709,-0.21182 -4.79917,-2.52025 -4.98773,-2.55588c-0.07066,-0.01245 3.33214,1.80755 5.78801,1.83442c2.45587,0.02687 4.05442,-1.72675 4.05442,-1.72675z" data-paper-data="{&quot;index&quot;:null}" fill="#9a9578" stroke-width="0.17188"/><path d="M213.61426,130.51769c-0.89712,0.49797 -7.71799,-2.16236 -8.59526,-4.29403c-0.34837,-0.84485 1.99343,1.90525 2.93364,2.02723c1.47385,0.49609 5.85145,3.06744 6.23285,-1.19938c6.83796,0.98898 -1.06871,0.7773 -0.57125,3.46619z" data-paper-data="{&quot;index&quot;:null}" fill="#000000" stroke-width="0.17188"/><path d="M220.72833,130.42679c0.57992,1.99257 -1.01181,9.1157 -2.31753,8.9141c-1.30352,-0.38069 -2.82897,-0.83354 -4.38328,-1.38804c-2.42664,-0.86545 -3.01264,-1.60578 -2.71052,-2.09093c0.20839,-0.33501 -0.09616,-1.46198 -0.17789,-2.54887c-0.0831,-1.10678 0.05691,-2.18592 0.27681,-3.98734c0.20427,-1.67072 0.70514,-3.4751 1.25776,-4.66039c0.78961,-1.69005 1.81648,-2.38802 3.35151,-1.92801c3.65917,1.80858 4.63395,4.15595 4.70315,7.68947z" data-paper-data="{&quot;index&quot;:null}" fill="#ffffff" stroke-width="0.17188"/><g data-paper-data="{&quot;index&quot;:null}"><path d="M218.23396,139.24069c-1.5892,0.03633 -2.9399,-2.65958 -3.01676,-6.02152c-0.07686,-3.36194 1.14922,-6.11676 2.73842,-6.1531c1.5892,-0.03633 2.9399,2.65958 3.01676,6.02152c0.07686,3.36194 -1.14922,6.11676 -2.73842,6.1531z" fill="#008ae6" stroke-width="0"/><path d="M218.00484,127.91013c0.5017,0.03625 0.95609,0.60177 1.28437,1.48772c0.32728,0.88612 0.52912,2.09178 0.52628,3.407c-0.00203,1.31426 -0.20832,2.49118 -0.54017,3.33061c-0.33097,0.83922 -0.7877,1.34119 -1.28994,1.3059c-0.50225,-0.03523 -0.95596,-0.60178 -1.28426,-1.48773c-0.32746,-0.88612 -0.52938,-2.09177 -0.52742,-3.40679c0.00298,-1.31435 0.20914,-2.49132 0.54099,-3.33076c0.33103,-0.83934 0.7877,-1.34132 1.28994,-1.30603z" fill="#000000" stroke-width="0.0278"/><path d="M218.95632,129.40007c0.28137,0.61491 0.45905,1.4587 0.46648,2.38694c0.0083,0.92695 -0.1547,1.76284 -0.42558,2.36501c-0.26968,0.60208 -0.64705,0.97072 -1.06681,0.96095c-0.41958,-0.00978 -0.8036,-0.39609 -1.08388,-1.01109c-0.28137,-0.61491 -0.45905,-1.4587 -0.46648,-2.38694c-0.0083,-0.92695 0.1547,-1.76284 0.42558,-2.36501c0.26968,-0.60196 0.64705,-0.97065 1.06681,-0.96087c0.41958,0.00991 0.8036,0.39595 1.08388,1.01095z" fill="#ffffff" stroke-width="0.01811"/></g><path d="M203.38243,110.51168c-3.48049,-2.8262 -5.76055,-7.74386 -6.16308,-11.37712c-0.037,-0.33268 0.46171,-1.17342 0.46171,-1.17342c-0.5969,0.07303 0.25846,-0.53352 0.3959,-1.13202c0.10775,-0.47094 -0.26921,-1.54618 -0.26921,-1.54618c-0.28941,0.15432 1.2082,-0.42936 1.78618,-0.86295c0.47747,-0.35792 0.31678,-0.64883 0.70078,-0.85855c2.69557,-1.48088 7.01042,-1.84953 12.73288,-0.27461c3.15292,3.17336 -12.0737,20.04598 -9.64516,17.22486z" data-paper-data="{&quot;index&quot;:null}" fill="#ed3e67" stroke-width="0.17188"/><path d="M259.84307,125.22088c-0.71,-0.54419 -2.0877,-1.60406 -2.51745,-2.12042c-1.07892,-1.29641 -5.73314,-3.25512 -13.38302,2.26727l-8.14474,5.88266c-0.74957,0.54076 -3.72942,2.73909 -5.93035,3.19801c-2.36573,0.49339 -5.75573,0.34269 -5.99871,-0.15469c0,0 -1.63036,-3.98967 -2.70637,-5.56695c-0.40908,-0.59976 -0.50977,0.57648 -0.21785,2.14007c0.04794,0.25854 1.04677,4.18796 0.95747,4.34458c-0.48313,0.84211 -6.44686,-11.80818 -6.76797,-12.50362l-1.9772,-4.29423c-0.66764,-1.44807 -2.08766,-0.93581 -2.62986,-1.15267c-0.81447,-0.32645 -1.41422,0.29027 -1.57926,1.12174c-0.21004,1.05167 -0.84106,5.42934 -1.00241,6.06022c-0.85145,3.34179 0.39593,8.17146 0.69773,13.11302c0.17695,2.89041 10.28324,14.43875 9.09576,12.20637c-0.53553,-1.00777 -1.55156,6.51988 -3.60711,7.24078c-1.46717,0.51601 -6.67518,-12.3122 -7.04855,-14.95475l-2.13589,-15.08947c-0.62655,-4.41862 3.0534,-16.20673 3.95618,-18.31841l1.76332,-4.12564c2.88106,-4.77437 6.63653,-8.87416 11.40144,-12.19513c0.30343,-0.21164 4.82724,-4.19663 12.14117,-5.65065c4.6188,-0.9186 12.0508,-0.20344 12.63274,-0.13582c3.41261,0.39674 10.08525,1.06466 15.9854,3.18435c3.75304,1.34833 6.94487,3.71523 9.58766,5.58383c0.47498,0.33496 -5.87483,6.24943 -5.41512,6.54495c0.22329,0.14264 -2.07978,6.17998 -2.0993,6.78131l-0.13131,4.01541c-0.1324,4.0593 2.98341,8.6379 3.57225,9.25507c0.80559,0.84569 3.62268,3.4623 4.65889,3.62433l3.49198,0.54963c0.47861,0.07392 5.06166,-2.41775 5.3555,-2.07935c1.0352,1.19285 -0.33309,7.18129 -0.72556,8.34266l-2.06451,6.11297c-0.66546,1.96898 -0.91932,3.09512 -2.55065,5.71216c-2.2368,3.59179 -4.48964,7.17557 -7.68162,10.30504c-2.5793,2.52954 -14.3114,9.09404 -13.9785,8.10826l2.82014,-8.38698l3.03852,-11.9745l1.00883,-15.20582c-0.26892,-0.62165 -0.92662,-1.06246 -1.87162,-1.78562z" data-paper-data="{&quot;index&quot;:null}" fill="#54c81c" stroke-width="0.17188"/><path d="M288.82153,101.8756c5.1781,1.21256 8.37951,3.41447 9.81533,5.82428c0.20506,0.34397 -0.05226,0.51428 0.15858,1.02129c0.25627,0.61278 1.16141,1.75459 1.00532,1.49911c0,0 -0.78074,0.72531 -0.90902,1.16205c-0.16343,0.5557 0.23175,1.43489 -0.20143,1.11192c0,0 0.00996,0.91594 -0.16954,1.1752c-1.95571,2.8332 -5.95671,5.90303 -9.94984,6.71424c-6.81928,1.38416 -12.07047,-10.68088 -11.7508,-13.14482c0.31975,-2.46459 5.22633,-6.94858 12.00138,-5.36325z" data-paper-data="{&quot;index&quot;:null}" fill="#ed3e67" stroke-width="0.17188"/><path d="M271.19156,103.87179c1.4103,-3.80019 4.37751,-7.34453 7.77417,-7.09834c1.96124,0.14274 3.6254,0.99009 5.20707,1.67298c3.26297,1.40828 5.46539,3.09554 4.21621,3.40001c-2.11982,0.5174 -4.89879,1.63331 -6.78873,2.63262c-2.69546,1.42439 -4.45589,2.55483 -4.35249,2.70491l6.65252,9.65075l4.8458,3.75372c0.8132,0.56413 -1.71136,1.77021 -4.48213,2.51397c-2.39173,0.64311 -4.15345,1.84434 -4.98221,1.98256c-3.69118,0.62106 -3.01121,-0.97349 -6.87596,-3.76019c-2.24717,-1.6208 -3.80868,-11.34763 -2.95429,-10.56921c0.56901,0.51668 0.41888,-3.32497 1.74004,-6.88376z" data-paper-data="{&quot;index&quot;:null}" fill="#54c81c" stroke-width="0.17188"/><path d="M275.91366,95.91227c2.25851,1.45734 -1.64718,2.56703 -4.13534,7.28593c-1.5835,3.00304 -2.41855,7.8188 -1.28054,13.98784c0.1204,0.64707 1.00746,1.99416 2.23338,3.74792c1.878,2.68862 11.04819,2.53592 9.5428,3.18955l-5.8799,2.55077l-3.76469,-1.20791c-2.47551,-0.14441 -9.17952,-7.91933 -8.01515,-15.57231c1.273,-8.36363 5.91439,-17.45853 11.29943,-13.98179z" data-paper-data="{&quot;index&quot;:null}" fill="#ead32e" stroke-width="0.17188"/><path d="M211.52657,103.26618c-0.16456,-0.88408 0.82248,-2.17136 0.89943,-2.93672c0.17766,-1.76944 1.98332,-5.91259 5.5204,-8.46572l2.01167,-1.45134c0.99035,-0.71519 4.33269,-1.1443 4.90977,-0.65942c0.62604,1.09509 -3.59074,2.72357 -6.66611,5.94176c-1.47422,1.54274 -3.5349,3.52391 -3.5349,3.52391c-0.72826,1.67303 -3.14025,4.04754 -3.14025,4.04754z" data-paper-data="{&quot;index&quot;:null}" fill="#ead32e" stroke-width="0.17188"/><path d="M213.75651,98.57752c-0.49495,0.84715 -2.43354,5.08803 -3.31793,7.1896l-3.48596,8.28219c-0.25646,0.60934 -4.59157,-3.5558 -4.00038,-5.43849c-0.5554,-2.29295 0.39087,-4.07635 0.92469,-5.99802c1.20964,-2.02059 3.3411,-4.70418 4.66621,-5.73076c1.06724,-0.82678 0.34924,-3.98845 1.32309,-5.13354c1.46495,-1.72465 8.24538,-0.63143 8.24538,-0.63143z" data-paper-data="{&quot;index&quot;:null}" fill="#54c81c" stroke-width="0.17188"/><path d="M235.74589,178.33631c0.42224,-0.32255 3.10948,2.62338 5.66315,5.1197c2.55301,2.49632 4.59735,5.10536 4.59735,5.10536c0,0 1.03778,2.39991 1.4418,3.74824c0.59505,1.98591 2.17439,4.66441 1.91556,4.85983c-0.7075,0.53419 -5.44463,-8.60984 -6.90235,-10.03445c-2.55366,-2.49632 -7.13774,-8.47615 -6.7155,-8.7987z" data-paper-data="{&quot;index&quot;:null}" fill="#d3d656" stroke-width="0.17188"/><path d="M256.98643,231.0555c3.46462,0 6.99895,-2.77912 6.99895,-1.2726c0,0.62164 -0.19614,6.65359 -0.1805,11.09106c0.01694,4.38273 0.20851,9.752 -0.67181,8.79413l-5.41945,-5.88665c-0.70895,-0.7702 -3.48742,-6.66011 -4.35602,-8.1321c-2.00305,-3.39815 -1.73459,-5.36145 -1.73459,-6.41185c0,-1.50652 1.89944,1.81799 5.3634,1.81799z" data-paper-data="{&quot;index&quot;:null}" fill="#54c81c" stroke-width="0.17188"/><path d="M230.46199,183.23949c5.25879,-8.7563 11.91332,-25.15166 13.64081,-25.48963c0.73349,-0.14355 5.38911,-1.25529 4.78091,2.60075c-0.82683,5.24218 -6.06413,16.15412 -6.80564,20.57545c-1.28761,5.99195 -1.74535,12.34024 -4.52172,17.60835c-1.39617,2.65332 -4.71948,4.74591 -7.73753,4.61903c-3.68913,-0.17094 -9.67808,-1.84777 -9.63866,-5.50863c0.07931,-5.79708 7.30355,-9.47951 10.28182,-14.40533z" data-paper-data="{&quot;index&quot;:null}" fill="#319a2b" stroke-width="0.17188"/><path d="M239.35196,198.7691c1.12463,3.42056 -4.18794,8.85765 -3.39979,12.32073c-0.26185,-1.06832 -3.99102,-1.52569 -3.99102,-1.52569c-0.2042,-0.00886 -3.22937,0.22684 -6.73084,1.69917c-2.87944,1.20974 -5.81253,2.64192 -6.76119,1.36084c-0.656,-0.88602 -2.31791,-3.50816 -1.66669,-5.69364c0.69244,-2.32171 0.83915,-5.66774 2.21438,-7.75429c0.59453,-0.90286 1.40822,-4.06743 2.11294,-4.60309c1.0737,-0.81405 1.93939,1.20504 1.73162,0.92553c-1.03834,-1.39869 1.70819,3.6078 3.58973,3.56515c1.85734,-0.04248 12.20045,-2.06903 12.90085,-0.29473z" data-paper-data="{&quot;index&quot;:null}" fill="#ead42f" stroke-width="0.17188"/><path d="M234.81584,210.72796c1.91383,5.60818 0.88545,13.01736 -2.09336,17.42604c0.76798,-0.76388 -3.97117,3.40904 -8.62838,0.03653c-2.07518,-1.37031 -6.45868,-2.84718 -9.92235,-4.84328l-2.79279,-2.75871c-1.28351,-1.26695 -0.74218,-3.82518 0.93348,-4.79476c0.24804,-0.14328 -1.35321,-0.36769 -1.65271,-1.48354c-0.53999,-2.00877 0.11148,-5.44163 1.89455,-6.0786c1.5629,-0.55973 2.88075,-2.70234 5.29879,-2.60652c3.26157,0.12861 0.14582,3.01467 2.61601,3.95953c1.46665,0.56163 9.42313,-0.58009 9.48893,-0.60414c2.90993,-1.1014 4.43191,0.62022 4.85782,1.74747z" data-paper-data="{&quot;index&quot;:null}" fill="#d5cb8e" stroke-width="0.17188"/><g data-paper-data="{&quot;index&quot;:null}"><path d="M245.89482,143.63905c-1.58921,0.03633 -2.9399,-2.65958 -3.01676,-6.02152c-0.07686,-3.36194 1.14922,-6.11676 2.73842,-6.1531c1.58921,-0.03633 2.9399,2.65958 3.01676,6.02152c0.07686,3.36194 -1.14922,6.11676 -2.73842,6.1531z" fill="#008ae6" stroke-width="0"/><path d="M245.66569,132.3085c0.5017,0.03625 0.95609,0.60177 1.28437,1.48772c0.32728,0.88612 0.52912,2.09178 0.52628,3.407c-0.00204,1.31426 -0.20832,2.49119 -0.54017,3.33061c-0.33096,0.83921 -0.78771,1.34119 -1.28995,1.3059c-0.50225,-0.03522 -0.95596,-0.60178 -1.28425,-1.48773c-0.32746,-0.88612 -0.52938,-2.09177 -0.52742,-3.40679c0.00298,-1.31435 0.20914,-2.49133 0.54099,-3.33076c0.33103,-0.83935 0.7877,-1.34132 1.28994,-1.30602z" fill="#000000" stroke-width="0.0278"/><path d="M246.61718,133.79844c0.28136,0.6149 0.45905,1.45869 0.46648,2.38694c0.0083,0.92695 -0.1547,1.76284 -0.42558,2.36501c-0.26968,0.60209 -0.64705,0.97072 -1.06681,0.96094c-0.41958,-0.00978 -0.8036,-0.39608 -1.08388,-1.01108c-0.28136,-0.6149 -0.45905,-1.45869 -0.46648,-2.38694c-0.0083,-0.92695 0.1547,-1.76284 0.42558,-2.36501c0.26969,-0.60196 0.64705,-0.97065 1.06681,-0.96087c0.41958,0.00991 0.80359,0.39595 1.08388,1.01095z" fill="#ffffff" stroke-width="0.01811"/></g><path d="M229.56107,187.24532c1.99683,5.61457 5.97189,4.64743 5.22676,10.69863c-0.48018,3.81959 -6.12747,4.59338 -9.48469,4.1722c-2.74469,-0.35808 -7.01634,-1.01678 -7.90393,-4.0073c-1.76619,-5.93831 0.83156,-5.82453 0.51244,-12.27498c-0.02094,-2.10535 0.26936,-4.64341 0.81034,-8.4744c0.33115,-1.3761 6.69997,-13.16482 11.17609,-16.2004c1.41736,-0.96121 2.74745,-2.40688 3.81582,-3.00237c1.44936,-0.80785 2.57678,-0.26812 2.57678,-0.26812l-1.99579,5.90786l-4.74327,10.22641c0,0 -2.2166,4.33013 -2.07577,6.45245c0.14084,2.12232 2.08522,6.77003 2.08522,6.77003z" data-paper-data="{&quot;index&quot;:null}" fill="#319a2b" stroke-width="0.17188"/><path d="M215.53111,196.00083c0.96542,-1.73438 10.87275,2.05659 12.70138,2.40254c1.85252,0.35005 5.33765,-4.41864 4.09619,-3.13041c-0.24836,0.25738 0.9181,-1.70511 1.85355,-0.68277c0.61377,0.67243 0.93013,4.10085 1.37844,5.13786c1.0373,2.39676 0.6667,5.90587 0.99313,8.43667c0.30669,2.38221 -1.73938,4.84351 -2.52407,5.65984c-1.13472,1.1803 -3.81213,-0.78792 -6.47077,-2.51572c-3.23278,-2.10236 -6.18552,-2.83926 -6.38864,-2.8632c0,0 -3.75511,-0.12934 -4.17844,0.9409c1.31235,-3.47917 -3.09903,-10.00547 -1.46077,-13.3857z" data-paper-data="{&quot;index&quot;:null}" fill="#ead42f" stroke-width="0.17188"/><path d="M218.17041,209.19421c0.59452,-1.10498 2.36359,-2.65102 5.06906,-1.03111c0.0613,0.03575 7.74684,2.51739 9.28252,2.17062c2.58628,-0.58293 -0.04757,-4.09521 3.19487,-3.69937c2.40392,0.29297 3.3759,2.73882 4.83388,3.57571c1.66363,0.9531 1.77838,4.63465 0.93532,6.63929c-0.46786,1.11363 -2.08456,1.08729 -1.86156,1.27682c1.50627,1.28212 1.64695,4.03473 0.18354,5.14593l-3.18451,2.41986c-3.72988,1.51654 -8.28858,2.34284 -10.55013,3.43309c-5.12125,2.75636 -9.16084,-2.36002 -8.51972,-1.43961c-2.26393,-5.07601 -2.13839,-12.96056 0.61671,-18.49124z" data-paper-data="{&quot;index&quot;:null}" fill="#f0e9bb" stroke-width="0.17188"/><path d="M237.69036,163.26772c0.19079,2.47969 -0.05219,5.61057 -0.77369,8.80232c-0.72139,3.19239 -1.78605,5.84668 -2.92315,7.5558c-1.13772,1.70926 -2.34776,2.47402 -3.35926,1.88727c-1.01226,-0.58727 -1.63604,-2.41527 -1.82683,-4.89497c-0.19015,-2.47981 0.05219,-5.61057 0.77369,-8.80232c0.72139,-3.19239 1.7867,-5.84679 2.92378,-7.55593c1.1371,-1.70914 2.34712,-2.4739 3.35938,-1.88663c1.01149,0.58675 1.63592,2.41463 1.82607,4.89446z" data-paper-data="{&quot;index&quot;:null}" fill="#eb3d66" stroke-width="0.01872"/><path d="M234.75934,162.89232c0.0288,1.08331 -0.16536,2.45455 -0.58886,3.85437c-0.42363,1.39918 -0.99719,2.56533 -1.58216,3.31856c-0.58496,0.75324 -1.18056,1.09406 -1.64773,0.84183c-0.46769,-0.25147 -0.71907,-1.04823 -0.748,-2.13216c-0.0288,-1.08331 0.16484,-2.45379 0.58899,-3.85372c0.42351,-1.39982 0.99707,-2.56597 1.58204,-3.3192c0.58432,-0.75311 1.18003,-1.0933 1.64773,-0.84183c0.46782,0.25211 0.71907,1.04823 0.748,2.13216z" data-paper-data="{&quot;index&quot;:null}" fill="#ffffff" stroke-width="0.01896"/></g></g></svg>