<svg version="1.1" xmlns="http://www.w3.org/2000/svg" xmlns:xlink="http://www.w3.org/1999/xlink" width="254.8964" height="207.55872" viewBox="0,0,254.8964,207.55872"><defs><radialGradient cx="196.09138" cy="274.60465" r="42.6576" gradientUnits="userSpaceOnUse" id="color-1"><stop offset="0" stop-color="#989898"/><stop offset="1" stop-color="#707070"/></radialGradient><radialGradient cx="269.69514" cy="279.65041" r="40.43425" gradientUnits="userSpaceOnUse" id="color-2"><stop offset="0" stop-color="#989898"/><stop offset="1" stop-color="#707070"/></radialGradient></defs><g transform="translate(-182.55186,-76.22065)"><g data-paper-data="{&quot;isPaintingLayer&quot;:true}" fill-rule="nonzero" stroke-linejoin="miter" stroke-miterlimit="10" stroke-dasharray="" stroke-dashoffset="0" style="mix-blend-mode: normal"><path d="M397.48532,149.14578c13.94615,2.86959 26.17287,9.12123 26.17287,9.12123c0,0 -22.48012,-0.29805 -22.52064,4.39317c-0.04117,5.269 29.89668,8.07388 29.89668,8.07388c0,0 -22.30294,3.35679 -31.1926,8.40064c-13.18575,7.47579 -23.92147,32.61392 -38.76018,36.35746c-9.00322,2.07731 -27.07316,0.44327 -34.46794,-5.27132c-6.4471,-4.98343 -5.56147,-18.11928 -6.82924,-26.16489c-1.36606,-8.72165 12.08258,-12.56881 21.65967,-19.02336c9.57709,-6.45454 24.24619,-11.2174 32.13306,-13.77087c9.86457,-3.195 23.90832,-2.11595 23.90832,-2.11595z" fill="#f8f8f8" stroke="none" stroke-width="1" stroke-linecap="round"/><path d="M235.15026,222.43413c0.84915,3.82933 -0.851,9.45871 -1.2536,13.08335c-0.37098,3.73617 -0.67155,8.68949 -2.05437,11.70831c-0.46101,1.00999 0.062,3.51794 -1.44289,5.16564c-1.17197,1.28319 -4.45656,0.65421 -5.13278,0.56568c-1.40642,-0.19713 -0.52878,-6.00578 -0.74148,-7.95704c-0.49528,-4.52018 0.75978,-8.99092 1.28976,-13.44438c0.53823,-3.5273 0.96503,-7.11974 1.91895,-10.49811c0.39439,-1.39511 3.37241,-2.49237 4.50336,-2.06657z" fill="#f8b820" stroke="none" stroke-width="1" stroke-linecap="round"/><path d="M437.44827,238.07236c0,0 -18.48033,1.62302 -19.59152,4.39831c-2.85884,7.14015 22.34612,4.96391 18.28159,6.06699c-5.87593,1.59765 -6.76902,3.16297 -23.42914,3.09862c-11.66222,-0.04505 -20.56189,6.67497 -29.92885,6.88758c-15.85619,0.35999 -33.66929,6.09441 -47.56293,-0.39755c-6.17403,-2.78054 6.9666,-11.57285 7.42694,-18.14802c0.49173,-7.07556 -8.17114,-14.49148 -4.74028,-20.83668c3.08295,-5.70783 12.61687,-6.33652 19.62868,-6.77278c9.09118,-0.40911 20.99805,0.30873 29.6088,3.16901c8.95364,2.97758 19.20379,3.74706 28.37524,9.3897c9.17145,5.64264 21.93147,13.14481 21.93147,13.14481z" fill="#f8f8f8" stroke="none" stroke-width="1" stroke-linecap="round"/><path d="M349.90538,225.26683l10.15986,5.75825l-4.77171,10.18494l10.21718,5.09199l-7.62447,8.55952l12.46732,4.81987c0,0 -30.33997,3.61246 -47.71722,2.86128c-17.47144,-0.75696 -35.81585,-5.51253 -49.92739,-15.02368c-12.66712,-8.5346 -27.24342,-26.29142 -26.69075,-36.40351c0.54639,-6.06724 16.86505,4.04484 28.88881,4.04484c12.02376,0 9.31753,-2.89222 15.70045,-4.04484c6.38291,-1.15262 11.83186,-2.25933 17.8985,-2.02243c12.94344,0.51427 -13.76616,0.9881 38.62309,4.33376c6.88307,1.53703 11.60257,7.19948 11.60257,7.19948z" fill="#eda725" stroke="none" stroke-width="1" stroke-linecap="round"/><path d="M354.59977,210.4184l-5.6259,3.33981c0,0 -10.36617,-1.36473 -14.96126,-1.01544c-6.3953,0.48479 -12.86366,0.74379 -19.25896,0.33205c-6.30232,-0.41175 -12.14643,-2.09192 -18.2628,-1.99231c-3.40064,0.05295 -11.30217,5.73197 -14.70695,5.97448c-9.83355,0.70039 -15.19423,-3.56965 -25.13918,-3.31807c-3.16777,0.07306 -2.35092,-0.39846 0.33205,-1.66026c10.7186,-5.04718 23.30352,-6.89979 33.82952,-12.33877c9.88184,-5.10695 18.01027,-12.98343 27.26785,-19.20607c2.36421,-1.52744 6.95984,-5.63166 6.95984,-5.63166l-2.724,16.76271l13.65523,-2.04667l-4.4965,11.57085l16.81638,-2.70601l-1.4574,9.7515c0,0 7.79067,1.36908 7.77205,2.18387z" fill="#e2a026" stroke="none" stroke-width="1" stroke-linecap="round"/><path d="M207.18056,221.9323c-0.76313,-4.00994 1.06137,-8.38302 2.94572,-12.05329c2.42091,-4.61472 9.0275,-26.50264 12.98676,-28.58444c1.45335,-0.76191 5.53605,-2.22019 3.72421,4.01165c-0.61793,2.12538 -6.46026,15.37916 -6.47958,16.03743c-0.13238,4.51819 -3.54343,9.56286 -5.25633,14.09495c-1.22129,2.94159 -1.99796,7.69025 -5.26453,8.93152c0,0 -2.11769,0.40576 -2.65625,-2.43782z" fill="#f8b820" stroke="none" stroke-width="1" stroke-linecap="butt"/><path d="M265.4054,196.64827c2.60594,3.73757 12.22965,16.39965 12.47935,20.95406c0.22646,4.09353 0.1352,3.0344 -2.99471,3.17387c-3.71698,0.33737 -8.25999,-12.94254 -12.11521,-17.32628c-3.85522,-4.38374 -16.16666,-18.07441 -15.21235,-23.09636c0.517,-2.28779 2.30026,-1.32338 2.5526,-1.18026c0,0 11.83964,12.51145 15.29032,17.47497z" fill="#f8b820" stroke="none" stroke-width="1" stroke-linecap="round"/><path d="M253.7595,218.06822c1.07193,3.38028 1.185,7.16698 1.46462,10.80361c0.33219,4.31666 0.82699,7.78728 0.96665,12.77467c0.13966,4.98739 0.66412,6.04971 -0.37253,8.44258c-0.98039,2.26303 -4.35581,2.22556 -5.20247,2.41246c-3.49271,0.74218 -2.87853,-1.02163 -3.1273,-4.28078c-0.3648,-4.7794 -0.46601,-12.47179 -0.67378,-17.70394c-0.16144,-4.04505 -0.60198,-6.45963 0.18383,-10.41768c0.42151,-2.11384 2.43834,-3.01162 3.99228,-3.11123c1.57813,-0.09496 2.11037,-0.98039 2.7687,1.08032z" fill="#f8b820" stroke="none" stroke-width="1.04082" stroke-linecap="round"/><path d="M276.82991,245.87585c-4.04775,-2.84144 -0.50148,-6.83796 -2.88927,-9.49685c-0.40958,-0.20389 -2.55195,-3.6766 -2.55195,-3.6766c0,0 -3.16435,11.33527 -4.65774,8.90555c-4.8822,-7.95755 -2.96386,-9.82791 -4.12818,-19.59229c-0.38761,-3.25905 -0.95965,-7.19808 1.04361,-9.80561c1.73111,-2.25742 6.13348,-0.04574 8.34515,-1.87806c1.81059,-1.49795 0.16719,-5.72864 2.2949,-6.67627c2.05274,-0.90491 4.56507,1.38999 6.25869,2.92093c3.00489,2.76273 5.30354,5.89209 8.34592,8.34592c2.74099,3.05438 2.19906,2.28465 4.90705,5.27603c3.0124,3.34303 4.02949,7.91772 4.47632,12.4363c-1.07196,7.88325 -1.6395,6.70607 -7.67086,11.10968c-6.03137,4.4036 -13.77364,2.13126 -13.77364,2.13126z" fill="#ffffff" stroke="none" stroke-width="0.55656" stroke-linecap="round"/><path d="M283.42609,210.48877c0,0 -1.87474,4.20102 -3.9358,6.1857c-2.06106,1.98469 -4.06518,4.10446 -7.45448,4.78249c-3.3893,0.67802 -9.4215,-1.40648 -9.4215,-1.40648" fill="none" stroke="#707070" stroke-width="2.5" stroke-linecap="round"/><path d="M221.60904,212.73629c3.67981,6.57752 3.18124,15.51143 1.63694,23.0415c-0.4336,2.08051 -4.41269,-0.24821 -6.02226,-1.54304c-2.57221,-2.08378 -1.80563,-7.42834 -3.20073,-5.56532c-1.28482,1.71782 -1.71552,-2.71738 1.0245,3.6992c0.91556,2.14407 6.71293,2.54415 6.56435,4.30783c-0.14791,1.75579 -10.50514,8.52187 -11.71967,8.85109c-5.21102,1.41477 -15.03071,-7.58544 -18.50944,-14.38418c-1.95876,-3.85187 2.10415,-8.24978 4.06655,-12.11414c2.85936,-5.2486 8.63859,-9.7461 13.5244,-12.40898c0.98289,-0.52519 2.77716,0.73275 4.04435,1.5353c3.37409,2.13522 6.62794,1.08393 8.59102,4.58075z" fill="#ffffff" stroke="none" stroke-width="1" stroke-linecap="round"/><path d="M221.20361,214.59227c0,0 -3.87133,2.34478 -6.59979,2.30871c-2.72846,-0.03607 -5.4324,-0.65782 -8.24083,-2.50487c-2.80842,-1.84705 -1.54647,-3.93208 -1.54647,-3.93208" fill="none" stroke="#707070" stroke-width="2" stroke-linecap="round"/><path d="M249.35812,178.89271c3.87842,5.30857 4.55079,9.71873 6.09335,16.06659c1.56459,6.45254 5.63175,15.93436 3.16368,22.06538c-1.68947,4.19452 -8.19926,4.95717 -12.56248,5.9815c-5.65603,1.00937 -12.36246,3.07299 -17.26191,0c-4.84069,-3.03561 -6.59624,-9.73486 -7.34547,-15.70142c-1.02837,-8.19463 -0.82269,-16.97996 2.57093,-24.67364c2.23302,-5.0394 7.91109,-8.8526 13.22187,-9.71991c4.42934,-0.72526 9.4463,2.3253 12.12006,5.9815z" fill="#f8b820" stroke="none" stroke-width="1" stroke-linecap="round"/><path d="M254.94704,178.78879c0,0 -4.41817,5.65902 -4.57109,6.59996c-0.13461,0.82828 5.46736,-0.19383 5.46736,-0.19383c0,0 -4.64903,3.31334 -5.91197,4.77454c-0.17994,0.20819 -0.29115,0.37879 -0.31037,0.49684c-0.15464,0.94968 4.796,-0.31892 4.796,-0.31892c0,0 -5.10612,4.31191 -5.58172,5.49771c-1.36153,2.9797 3.95897,7.72271 3.88053,13.62733c-0.06537,4.91993 -6.97746,9.88923 -12.97515,10.07558c-4.35587,1.39666 -12.7732,-4.16216 -15.19722,-8.06291c-2.6958,-4.38046 -0.21243,-10.73477 -1.55666,-15.77124c-0.39665,-1.49542 -4.87704,-3.96463 -4.87704,-3.96463c0,0 3.99544,-0.86568 4.11548,-1.66664c0.06978,-0.32457 -3.64283,-4.40042 -3.64283,-4.40042c0,0 5.33238,-0.29468 4.7784,-1.05766c-1.42001,-1.9557 -3.0573,-5.8385 -3.0573,-5.8385c0,0 2.37404,0.24704 7.12067,1.0671c3.19317,0.55168 5.57855,2.33687 7.58443,2.50141c4.78928,0.39502 6.72758,-1.65254 11.16006,-2.40077c4.43248,-0.74823 8.77841,-0.96497 8.77841,-0.96497z" fill="#f8f8f8" stroke="#b3b3b3" stroke-width="0" stroke-linecap="round"/><path d="M224.58678,191.65156l-2.68647,-1.14452" fill="none" stroke="#b3b3b3" stroke-width="0.5" stroke-linecap="round"/><path d="M225.40119,186.00585l-2.3448,-0.91119" fill="none" stroke="#b3b3b3" stroke-width="0.5" stroke-linecap="round"/><path d="M250.25121,185.91538l-3.1866,1.32021" data-paper-data="{&quot;index&quot;:null}" fill="none" stroke="#b3b3b3" stroke-width="0.5" stroke-linecap="round"/><path d="M246.94566,192.3332l2.63531,-1.33944" data-paper-data="{&quot;index&quot;:null}" fill="none" stroke="#b3b3b3" stroke-width="0.5" stroke-linecap="round"/><path d="M269.86895,153.70727c-8.55463,10.26871 -19.33102,5.02881 -31.28052,8.0543c-8.82433,2.23292 -24.43044,6.64567 -29.87163,-1.52108c-6.64903,-9.98616 -6.3458,-21.8691 -5.53756,-36.47121c0.49221,-8.8926 3.25652,-8.44507 1.2747,-12.98675c-1.10215,-2.84466 -3.75442,-10.57666 -5.26416,-14.59074c-2.79532,-7.4321 -4.46477,-16.89265 -3.2872,-18.60677c1.27934,-1.86228 13.47461,3.10442 22.63168,9.76787c5.33259,3.88044 9.83446,10.39375 10.98229,11.07018c1.58207,0.93232 5.55873,-0.02261 9.19861,-0.08732c3.63989,-0.06472 7.58923,0.12979 8.73571,-1.2778c0.38279,-0.46995 6.7729,-6.88746 14.2613,-11.95951c9.11837,-6.17606 23.36864,-10.23297 25.56559,-8.45882c2.31345,1.86823 0.9728,12.56775 -1.45783,24.1149c-2.43064,11.54716 -8.38608,20.35788 -9.02657,26.23231c0,0 1.45953,1.78318 -0.86689,13.99772c-1.21852,6.39768 -3.64271,9.82392 -6.05752,12.72274z" fill="#f8b820" stroke="none" stroke-width="1" stroke-linecap="round"/><path d="M199.96167,98.92313c-1.89252,-7.26265 -4.3545,-15.47293 -3.6282,-15.98659c2.84475,-2.01186 26.10729,13.83241 27.20959,17.21504c0.67775,2.10323 -6.84309,2.70414 -10.13115,5.68166c-3.28806,2.97752 -6.77978,9.63205 -6.77978,9.63205c0,0 -5.07126,-10.40502 -6.67047,-16.54215z" data-paper-data="{&quot;index&quot;:null}" fill="#ffffff" stroke="none" stroke-width="1" stroke-linecap="butt"/><path d="M273.5841,121.14795c0,0 -6.52941,-12.72928 -10.09102,-15.23472c-3.56159,-2.50544 -15.02666,-4.05104 -15.02666,-4.05104c0,0 8.66216,-8.61862 15.54872,-13.48498c7.00689,-4.9514 18.65314,-9.14515 20.17888,-8.33454c0.7724,0.41037 -0.69504,12.66426 -2.75459,20.64341c-2.05955,7.97915 -7.85533,20.46187 -7.85533,20.46187z" fill="#ffffff" stroke="none" stroke-width="1" stroke-linecap="butt"/><path d="M217.13277,130.16781c0.30248,4.9051 0.36972,10.08236 0,15.08804c-0.26327,3.61522 0.40891,9.28929 -1.40042,12.43116c-1.10913,1.91707 -4.7334,2.12436 -5.60163,0.29013c-2.66639,-5.63287 -2.94647,-12.35445 -3.08092,-18.63817c0.13444,-4.08266 1.36121,-8.25996 3.08092,-11.83378c1.0195,-2.12416 3.58505,-4.94651 5.32156,-4.43767c1.70289,0.51478 1.52925,4.67435 1.6805,7.10026z" fill="#ffffff" stroke="none" stroke-width="1" stroke-linecap="round"/><path d="M246.17759,129.6402c1.90219,3.77669 2.53058,7.60621 2.98518,12.62432c0.4546,5.01811 2.1183,12.59508 -0.29074,17.11808c-1.7233,3.15258 -7.70928,2.25958 -11.04259,2.42686c-2.96361,0.14799 -6.9051,0.84097 -8.34815,-1.9835c-2.48655,-4.87043 -2.16457,-12.69213 -1.78889,-18.28316c0.32797,-4.92834 1.13893,-10.36494 3.57778,-14.79786c1.63385,-2.50278 4.83596,-4.96693 7.75185,-4.5037c3.26173,0.51471 5.58132,4.27209 7.15555,7.39893z" fill="#ffffff" stroke="none" stroke-width="1" stroke-linecap="round"/><path d="M212.17401,121.0695l-16.66714,1.60754l-12.955,7.63741l12.54808,-13.22403l16.81258,0.29566z" fill="#f8b820" stroke="none" stroke-width="1.22222" stroke-linecap="round"/><path d="M269.99442,156.1632c-0.11649,1.2372 5.73649,-1.05176 9.48205,-0.44611c3.74556,0.60565 8.76882,3.39722 8.76882,3.39722c0,0 -6.11733,0.58816 -9.80664,1.83211c-3.68931,1.24395 -5.01063,2.37085 -5.01063,2.37085c0,0 3.4489,0.62516 6.24493,2.07756c2.79603,1.4524 5.9739,6.60452 5.9739,6.60452c0,0 -4.62102,-2.11444 -7.77756,-2.74331c-3.15654,-0.62887 -4.59931,0.03846 -5.19698,0.15841c-0.91801,0.18424 5.14513,9.69662 5.14513,9.69662c0,0 -4.20896,-3.5671 -7.50024,-5.18323c-3.29128,-1.61614 -5.98581,-0.3523 -6.49862,-0.09788c-5.01522,2.48815 -4.05642,2.87898 -10.60369,4.44378c-3.5765,0.85479 -9.41716,1.87121 -14.80217,2.11613c-4.47302,0.20345 -8.63163,-0.24152 -10.91709,-0.69117c-4.09929,-0.60982 -15.55558,-4.12899 -15.55558,-4.12899c0,0 -2.01224,0.79575 -3.5241,1.43858c-1.66735,0.70895 -5.85925,4.63619 -5.85925,4.63619c0,0 0.59924,-3.27605 1.57383,-5.1293c0.97459,-1.85325 2.10007,-3.48604 1.78745,-3.49733c-1.0949,-0.03954 -1.61757,-1.03601 -3.16214,-0.81466c-1.54458,0.22136 -6.35851,2.60851 -6.35851,2.60851c0,0 1.59171,-4.10966 3.67524,-5.45983c2.08353,-1.35018 4.50145,-2.14425 4.50145,-2.14425c0,0 -2.8443,-1.01433 -4.3862,-1.70448c-1.59205,-0.71258 -5.52049,-0.83918 -5.52049,-0.83918c0,0 3.26357,-1.91366 4.91758,-2.46168c1.39742,-0.46301 4.36711,-0.61463 4.36711,-0.61463c0,0 -1.64972,-2.43607 -3.12429,-3.54202c-1.47457,-1.10595 -3.92266,-2.11832 -3.92266,-2.11832c0,0 1.86977,-0.68936 4.34454,-0.74705c4.36608,-0.10178 5.01084,2.71702 9.29677,3.55597c2.35118,0.46022 5.19963,-1.38417 7.22991,-1.27053c6.90646,0.38114 14.08735,4.79599 20.58216,3.17615c2.88173,-0.72007 10.22182,-2.24418 12.0119,-3.04584c5.88462,-2.63533 5.8678,-4.98499 14.14171,-7.27462c10.79077,-2.98612 21.75011,-0.38989 21.75011,-0.38989c0,0 -14.84174,2.55561 -16.26774,6.23173z" fill="#f8f8f8" stroke="none" stroke-width="1" stroke-linecap="round"/><path d="M223.13145,159.71333c1.09396,0.54871 -2.60272,3.19466 -4.27103,3.19466c-1.6683,0 -5.36501,-2.64595 -4.27102,-3.19466c1.09396,-0.54871 2.60272,-0.88861 4.27102,-0.88861c1.6683,0 3.17707,0.33992 4.27103,0.88861z" fill="#101010" stroke="none" stroke-width="1" stroke-linecap="butt"/><path d="M238.7657,141.09823c0.6261,1.53091 1.01907,3.63478 1.01907,5.96098c0,2.32622 -0.39297,4.4301 -1.01907,5.96099c-0.63327,1.52392 -1.50028,2.46787 -2.4627,2.46787c-0.96182,0 -1.82884,-0.94395 -2.46211,-2.46787c-0.6267,-1.53091 -1.01907,-3.63479 -1.01907,-5.96099c0,-2.32622 0.39237,-4.43009 1.01907,-5.96098c0.63327,-1.52392 1.50028,-2.46787 2.46211,-2.46787c0.96242,0 1.82943,0.94395 2.4627,2.46787z" fill="#4088ed" stroke="none" stroke-width="1.0615" stroke-linecap="butt"/><path d="M238.03462,142.86354c0.42397,0.95347 0.68336,2.26841 0.68336,3.72181c0,1.4534 -0.25939,2.76834 -0.68336,3.72244c-0.42098,0.95347 -1.00297,1.54361 -1.64697,1.54361c-0.644,0 -1.22539,-0.59014 -1.64637,-1.54361c-0.42397,-0.95412 -0.68336,-2.26904 -0.68336,-3.72244c0,-1.4534 0.25939,-2.76834 0.68336,-3.72181c0.42098,-0.95412 1.00237,-1.54361 1.64637,-1.54361c0.644,0 1.22599,0.58949 1.64697,1.54361z" fill="#000000" stroke="none" stroke-width="0.47368" stroke-linecap="butt"/><path d="M236.71979,142.88135c0.1926,0.39067 0.31246,0.92871 0.31246,1.52455c0,0.59584 -0.11985,1.13388 -0.31246,1.52454c-0.18902,0.39003 -0.45497,0.63269 -0.74836,0.63269c-0.29278,0 -0.55932,-0.24265 -0.74836,-0.63269c-0.1926,-0.39067 -0.31186,-0.9287 -0.31186,-1.52454c0,-0.59584 0.11926,-1.13388 0.31186,-1.52455c0.18902,-0.39003 0.45558,-0.63269 0.74836,-0.63269c0.29338,0 0.55932,0.24265 0.74836,0.63269z" fill="#ffffff" stroke="none" stroke-width="0.64678" stroke-linecap="butt"/><path d="M211.27545,117.44562l-11.34877,-7.15613l-16.64281,1.77754c0,0 13.83043,-7.95579 16.35162,-7.68652c1.7686,0.18888 14.40161,9.37944 14.40161,9.37944z" fill="#f8b820" stroke="none" stroke-width="1.22222" stroke-linecap="round"/><path d="M215.03273,112.98185c0,0 -3.92228,-7.95693 -8.31198,-11.30107c-4.3897,-3.34414 -21.3488,-11.29496 -21.3488,-11.29496c0,0 19.70883,2.47357 22.63219,4.74828c1.77251,1.37922 11.71964,15.75627 11.71964,15.75627z" fill="#f8b820" stroke="none" stroke-width="1.22222" stroke-linecap="round"/><path d="M217.7657,140.83158c0.6261,1.53091 1.01907,3.63478 1.01907,5.96098c0,2.32622 -0.39297,4.4301 -1.01907,5.96099c-0.63327,1.52392 -1.50028,2.46787 -2.4627,2.46787c-0.96182,0 -1.82884,-0.94395 -2.46211,-2.46787c-0.6267,-1.53091 -1.01907,-3.63479 -1.01907,-5.96099c0,-2.32622 0.39237,-4.43009 1.01907,-5.96098c0.63327,-1.52392 1.50028,-2.46787 2.46211,-2.46787c0.96242,0 1.82943,0.94395 2.4627,2.46787z" fill="#4088ed" stroke="none" stroke-width="1.0615" stroke-linecap="butt"/><path d="M217.03463,142.59689c0.42397,0.95347 0.68336,2.26841 0.68336,3.72181c0,1.4534 -0.25939,2.76834 -0.68336,3.72245c-0.42098,0.95347 -1.00297,1.54361 -1.64697,1.54361c-0.644,0 -1.22539,-0.59014 -1.64637,-1.54361c-0.42397,-0.95412 -0.68336,-2.26904 -0.68336,-3.72245c0,-1.4534 0.25939,-2.76834 0.68336,-3.72181c0.42098,-0.95412 1.00237,-1.54361 1.64637,-1.54361c0.644,0 1.22599,0.58949 1.64697,1.54361z" fill="#000000" stroke="none" stroke-width="0.47368" stroke-linecap="butt"/><path d="M215.71979,142.61469c0.1926,0.39067 0.31246,0.92871 0.31246,1.52455c0,0.59584 -0.11985,1.13388 -0.31246,1.52455c-0.18902,0.39003 -0.45497,0.63269 -0.74836,0.63269c-0.29278,0 -0.55932,-0.24265 -0.74836,-0.63269c-0.1926,-0.39067 -0.31186,-0.92871 -0.31186,-1.52455c0,-0.59584 0.11926,-1.13388 0.31186,-1.52455c0.18902,-0.39003 0.45558,-0.63269 0.74836,-0.63269c0.29338,0 0.55932,0.24265 0.74836,0.63269z" fill="#ffffff" stroke="none" stroke-width="0.64678" stroke-linecap="butt"/><path d="M236.46704,166.90181c0.26923,-0.01942 -0.05822,4.55007 -6.97045,5.9945c-3.88041,0.81087 -10.1368,-1.03717 -10.49342,-0.98857c-0.13305,0.01948 7.07605,0.80145 11.43362,-0.44761c1.28361,-0.36793 2.33425,-0.91464 3.17779,-1.50286c2.02009,-1.40866 2.85247,-3.05543 2.85247,-3.05543z" data-paper-data="{&quot;index&quot;:null}" fill="#b3b3b3" stroke="#000000" stroke-width="0" stroke-linecap="butt"/><path d="M235.3987,273.72798c0.43329,2.36708 1.43746,3.35498 -0.24452,4.17996c-3.92247,1.92386 -17.37655,0.63486 -19.33938,0.70644c-4.74435,0.17401 -26.38956,-0.16584 -26.38956,-0.16584c0,0 -1.46634,-4.02285 -0.26921,-4.28955c2.34362,-0.51515 15.78155,-1.722 22.63242,-1.25798c4.89976,0.33123 9.20802,-1.39669 14.13699,-1.40356c0,0 9.19582,0.71488 9.47326,2.23053z" fill="#989898" stroke="url(#color-1)" stroke-width="0.89474" stroke-linecap="round"/><path d="M235.43792,274.63469c-0.45425,0.6278 -6.3178,0.75481 -6.3178,0.75481c0,0 -8.17259,1.24901 -10.36213,-0.25113c-2.98514,-2.01621 -3.91289,-6.79042 -6.24719,-9.76698c-1.9591,-2.50073 -3.69391,-8.726 -3.69391,-8.726c0,0 6.6313,-2.58994 12.8997,-1.041c4.20244,1.03927 10.20453,0.79062 13.30789,4.31484c0,0 2.41797,11.94504 0.41344,14.71544z" fill="#f82020" stroke="none" stroke-width="0.99015" stroke-linecap="round"/><path d="M222.07106,276.13909l-27.57148,0.42573c0,0 -7.18043,0.77636 -6.56283,-1.66204c0.89654,-3.55106 6.06283,-10.56835 9.05127,-12.35177c2.75603,-1.64927 10.06583,-6.52889 13.2535,-6.30005c0,0 3.543,0.74349 7.37247,7.75419c4.95947,9.07941 4.45707,12.13394 4.45707,12.13394z" fill="#f8f8f8" stroke="none" stroke-width="1" stroke-linecap="round"/><path d="M237.01811,250.39511c1.21731,0.69023 1.39926,3.06111 1.22859,4.40945c-0.11025,2.60125 -0.36791,6.32412 -2.00825,6.56185c-3.44935,0.48832 -6.58922,-3.39246 -9.96219,-4.25158c-3.91555,-1.0014 -8.14322,0.01377 -11.88411,-1.844c-1.06589,-0.53054 -1.40325,-3.0152 -0.89986,-4.34519c0.73118,-1.91559 2.47046,-3.25569 4.0331,-3.38786c3.20894,-0.56357 6.34814,0.88023 9.58232,1.397c3.29993,0.51951 6.84025,-0.26711 9.9104,1.46035z" fill="#ffffff" stroke="none" stroke-width="1" stroke-linecap="round"/><path d="M238.35143,244.40592c1.21731,0.69023 1.39926,3.06111 1.22859,4.40945c-0.11025,2.60125 -0.36791,6.32412 -2.00825,6.56186c-3.44935,0.48832 -6.58922,-3.39246 -9.96219,-4.25159c-3.91555,-1.0014 -8.14322,0.01377 -11.88411,-1.844c-1.06589,-0.53054 -1.40325,-3.01521 -0.89986,-4.3452c0.73118,-1.91559 2.47046,-3.25568 4.0331,-3.38786c3.20894,-0.56357 6.34814,0.88023 9.58232,1.39699c3.29993,0.51951 6.84025,-0.26711 9.9104,1.46035z" fill="#ffffff" stroke="none" stroke-width="1" stroke-linecap="round"/><path d="M263.64034,250.11718c1.82381,0.51367 4.16458,3.03164 4.03836,5.78526c-0.00575,2.662 -2.34437,4.86219 -4.30581,5.39984c-3.38009,0.92813 -6.99025,-1.6651 -10.42305,-1.64556c-3.98525,0.01844 -7.98901,2.40186 -11.89812,1.24273c-1.5545,-0.46613 -3.15985,-3.54399 -3.40594,-6.29191c0.1206,-1.51551 1.88484,-2.62657 3.1318,-2.99654c3.73366,-1.11875 7.7578,-0.13463 11.62733,-0.2944c3.74362,-0.15154 7.5131,-2.2498 11.23544,-1.19943z" fill="#ffffff" stroke="none" stroke-width="1" stroke-linecap="round"/><path d="M264.1144,243.48547c1.82381,0.51367 4.16458,3.03164 4.03836,5.78526c-0.00575,2.662 -2.34437,4.86219 -4.30581,5.39984c-3.38009,0.92813 -6.99025,-1.66511 -10.42305,-1.64557c-3.98525,0.01844 -7.98901,2.40187 -11.89812,1.24273c-1.5545,-0.46613 -3.15985,-3.54399 -3.40594,-6.29191c0.1206,-1.51551 1.88484,-2.62657 3.1318,-2.99654c3.73366,-1.11875 7.7578,-0.13463 11.62733,-0.2944c3.74362,-0.15154 7.5131,-2.2498 11.23544,-1.19943z" data-paper-data="{&quot;index&quot;:null}" fill="#ffffff" stroke="none" stroke-width="1" stroke-linecap="round"/><path d="M236.40875,270.3744c-0.16352,-0.76106 7.3935,6.5609 7.3935,6.5609c4.22384,0.62501 8.14392,1.69447 12.3347,1.38991c5.87791,-0.42624 16.00365,-3.73843 18.68507,-2.99779c0.91738,0.25351 2.14426,7.98988 2.14426,7.98988l-5.9717,-0.16488c0,0 -14.23796,0.12098 -18.53587,0.1618c-1.53765,0.01466 -9.09216,-0.31222 -12.59364,-1.28654c-2.99903,-0.8345 -1.99621,-2.28588 -3.23802,-2.81132z" data-paper-data="{&quot;index&quot;:null}" fill="#989898" stroke="url(#color-2)" stroke-width="0.89474" stroke-linecap="round"/><path d="M241.48229,262.05372c3.32299,-2.94554 7.01293,-5.78236 11.00144,-6.54557c3.84779,-0.74189 7.84198,0.40694 11.2835,2.54522c3.10305,1.64393 9.17358,6.50225 7.61634,8.36434c-2.38055,2.84345 -10.44817,-1.46176 -15.23268,0.7272c-4.0113,1.84004 -5.68134,8.37169 -9.59066,10.90956c-2.43756,1.57855 -5.95769,2.32045 -8.18044,0.3636c-2.0142,-1.77467 -2.55037,-6.0292 -1.97488,-9.09154c0.59826,-3.1637 2.91103,-5.34531 5.07736,-7.27278z" data-paper-data="{&quot;index&quot;:null}" fill="#f82020" stroke="none" stroke-width="0.99015" stroke-linecap="round"/><path d="M238.458,278.06919c0,-2.6003 2.5356,-8.44827 5.92443,-12.07959c3.38883,-3.63133 8.0737,-5.66332 10.89415,-5.94244c4.22783,-0.96226 10.31409,0.15596 14.76497,4.07261c4.45088,3.91665 4.61855,8.25497 6.56026,14.69295c0.74735,2.47794 -4.9719,1.69021 -4.9719,1.69021c0,0 -13.43819,0.31374 -16.86261,0.40923c-2.78746,0.07799 -11.90048,-0.41744 -15.14741,-1.78616c-0.72867,-0.30716 -1.1619,-0.6583 -1.1619,-1.05682z" data-paper-data="{&quot;index&quot;:null}" fill="#f8f8f8" stroke="none" stroke-width="1" stroke-linecap="round"/></g></g></svg>