<svg version="1.1" xmlns="http://www.w3.org/2000/svg" xmlns:xlink="http://www.w3.org/1999/xlink" width="41.22372" height="34.36667" viewBox="0,0,41.22372,34.36667"><g transform="translate(-216.74629,-162.28397)"><g data-paper-data="{&quot;isPaintingLayer&quot;:true}" fill-rule="nonzero" stroke-linejoin="miter" stroke-miterlimit="10" stroke-dasharray="" stroke-dashoffset="0" style="mix-blend-mode: normal"><g data-paper-data="{&quot;index&quot;:null}"><path d="M250.19872,166.65962l-1.72641,0.15841l-0.82953,-1.53734z" fill="#b96a37" stroke="none" stroke-width="0" stroke-linecap="butt"/><path d="M248.53908,166.88942l-1.63762,1.24192l0.80458,-2.90833z" fill="#ebb9a2" stroke="none" stroke-width="0" stroke-linecap="butt"/><path d="M253.55617,172.22591l0.5426,-1.64655l1.74055,-0.14827z" fill="#b96a37" stroke="none" stroke-width="0" stroke-linecap="butt"/><path d="M254.00669,170.61215l-0.48658,-1.99685l2.34692,1.89678z" fill="#ebb9a2" stroke="none" stroke-width="0" stroke-linecap="butt"/><path d="M243.26377,177.46415l2.5599,-2.56361l2.30587,1.73346l-5.33774,3.73408z" data-paper-data="{&quot;index&quot;:null}" fill="#ff3200" stroke="none" stroke-width="0" stroke-linecap="butt"/><path d="M243.95834,176.69645l0.75596,-0.69209l1.95475,1.60249l-0.63938,0.47727z" fill="#caa487" stroke="none" stroke-width="0" stroke-linecap="butt"/><path d="M243.26965,177.49046l0.42211,-0.52865l2.31608,1.15372l-0.50129,0.37121z" fill="#caa487" stroke="none" stroke-width="0" stroke-linecap="butt"/><path d="M243.05947,178.60006l0.06633,-0.49337l2.15797,0.50766l-0.52306,0.38087z" fill="#caa487" stroke="none" stroke-width="0" stroke-linecap="butt"/><path d="M242.9928,179.23752l0.04442,-0.41293l1.15083,0.58957l-0.3701,0.2383z" fill="#caa487" stroke="none" stroke-width="0" stroke-linecap="butt"/><path d="M246.70252,173.29488c0,0 -0.3227,-3.04161 -0.13964,-4.61473c0.18304,-1.57311 1.68753,-2.8338 4.24212,-3.04359c3.09588,-0.25423 5.0511,2.27474 4.81411,3.2435c-0.237,0.96878 -1.79559,2.59804 -1.79559,2.59804l-0.36977,2.32033l-1.94721,1.72109l-1.73754,1.29671c0,0 -1.27226,0.28682 -2.19265,-0.17139c-0.9204,-0.45821 -1.81384,-1.6385 -1.81384,-1.6385l0.93998,-1.71142z" data-paper-data="{&quot;index&quot;:null}" fill="#906d5f" stroke="none" stroke-width="0" stroke-linecap="butt"/><path d="M251.1729,169.18404c-1.80724,-0.8365 -4.20398,-0.92106 -4.10721,-1.75276c1.18106,-0.69585 1.1847,-1.58494 3.73929,-1.79472c3.09588,-0.25423 5.0511,2.27474 4.81411,3.2435c-0.237,0.96878 -1.79559,2.59804 -1.79559,2.59804c0,0 -1.03952,-1.54834 -2.65062,-2.29405z" data-paper-data="{&quot;index&quot;:null}" fill="#a38273" stroke="none" stroke-width="0" stroke-linecap="butt"/><path d="M250.95208,172.61092c0,0 0.73393,-0.97674 0.18413,-1.93859c-0.6201,-1.08483 -2.5269,-2.17467 -2.41671,-2.27542c0.24825,-0.22699 4.06003,2.15371 4.26008,2.08344" data-paper-data="{&quot;index&quot;:null}" fill="none" stroke="#564343" stroke-width="1" stroke-linecap="round"/><path d="M248.37449,168.3616c0.57487,0.14024 0.84596,1.87382 0.64963,2.67864c-0.19634,0.80483 -2.38074,-0.58634 -2.95562,-0.72658c-0.57486,-0.14023 -1.18959,-1.91046 -0.32204,-2.64487c0.86755,-0.73439 2.62803,0.69281 2.62803,0.69281z" fill="#c3b0b0" stroke="none" stroke-width="0" stroke-linecap="butt"/><path d="M245.06105,175.42117c-0.00149,-0.81059 1.316,-2.2155 1.316,-2.2155c0,0 1.52287,-0.72505 2.65957,0.01284c1.13671,0.73792 1.6921,2.26748 1.07226,3.22232c-0.22033,0.33939 -0.9866,1.16553 -1.86738,1.29944c-0.88078,0.13394 -1.24204,-0.20581 -1.87072,-0.66423c-0.62867,-0.45841 -1.3082,-0.84426 -1.30969,-1.65487z" data-paper-data="{&quot;index&quot;:null}" fill="#21242a" stroke="none" stroke-width="0" stroke-linecap="butt"/></g><path d="M231.29617,188.42134l5.35397,-2.99407l1.48145,2.95165c0,0 -6.5954,2.1841 -6.80486,2.2841c-0.69314,0.33096 -1.95772,0.3596 -1.95772,0.3596l-3.96695,-0.16314c0,0 2.88551,-1.98284 4.256,-2.27293z" data-paper-data="{&quot;index&quot;:null}" fill="#ff3200" stroke="none" stroke-width="0" stroke-linecap="butt"/><g data-paper-data="{&quot;index&quot;:null}" stroke-linecap="butt"><path d="M240.02259,184.46177c1.98755,-1.52983 3.55638,-2.23704 4.99371,-1.32058c2.35621,1.50231 2.98148,3.89823 2.98148,3.89823l-2.52514,1.44316c0,0 -0.41407,-1.72613 -1.30462,-2.86808c-0.80558,-1.03298 -3.21021,1.88078 -3.21021,1.88078z" data-paper-data="{&quot;index&quot;:null}" fill="#ff3200" stroke="none" stroke-width="0"/><path d="M242.0829,186.2709l-0.28523,-2.79261l0.8813,-0.62714l0.28523,2.79261z" fill="#caa487" stroke="none" stroke-width="0"/><path d="M240.91698,187.40695l-0.20355,-3.39537l0.58754,-0.41809l0.49121,2.98642z" fill="#caa487" stroke="none" stroke-width="0"/><path d="M249.15643,187.60879c-1.07898,0.03289 1.12097,-2.2822 2.40328,-3.21107c1.28233,-0.92887 2.52976,-1.28177 4.21008,-0.62856c1.68031,0.65319 2.16261,2.15451 2.20008,3.38403c0.03748,1.22953 -7.73447,0.42271 -8.81345,0.4556z" data-paper-data="{&quot;index&quot;:null}" fill="#2d3635" stroke="none" stroke-width="0"/><path d="M254.26146,192.57989c0,0 -1.37124,1.56402 -2.80831,2.22881c-1.43708,0.66479 -2.46204,0.58104 -3.98529,-0.38324c-0.86459,-0.54733 -2.44171,-2.13477 -1.8786,-3.67993c0.42897,-1.17714 2.93893,-2.35531 3.02531,-2.88014c0.07005,-0.42564 1.40607,-1.01721 2.30552,-0.24991c1.66542,1.42074 3.34134,4.96442 3.34134,4.96442z" data-paper-data="{&quot;index&quot;:null}" fill="#2d3635" stroke="none" stroke-width="0"/><path d="M255.54202,191.59691c0,0 -3.58326,4.0981 -5.45978,2.89495c-2.42833,-1.55693 0.76078,-5.93237 0.76078,-5.93237c0,0 2.69088,-5.25238 6.42323,-2.70917c1.97396,1.34505 -1.83752,5.56446 -1.72424,5.74656z" data-paper-data="{&quot;index&quot;:null}" fill="#ac5626" stroke="none" stroke-width="0"/><path d="M257.19926,189.27361l-3.00972,3.54642l-3.86689,-3.24737l0.26935,-1.90329c0,0 -1.30575,-0.90881 -1.37867,-1.02604c-0.13161,-0.21156 1.45812,-1.22846 1.45812,-1.22846l1.9085,0.36766l0.53521,0.35472z" data-paper-data="{&quot;index&quot;:null}" fill="#b3937c" stroke="none" stroke-width="0"/><path d="M248.87413,187.72357c-0.69949,0.58387 -2.57929,2.68848 -3.35437,2.81135c-0.51343,0.08139 -1.29122,-0.75754 -1.48712,-0.99223c-0.49165,-0.58899 0.64285,-2.09314 1.80571,-3.06382c1.16286,-0.97069 2.50412,-1.28009 2.99576,-0.6911c0.49165,0.58899 1.20289,0.96512 0.04002,1.9358z" data-paper-data="{&quot;index&quot;:null}" fill="#21242a" stroke="#000000" stroke-width="0"/><path d="M244.16061,185.50724l1.54441,-1.84791l0.82401,0.77526l-1.84427,1.85704z" fill="#caa487" stroke="none" stroke-width="NaN"/><path d="M243.25796,185.43471l0.51746,-2.71703l1.00868,0.26939l-0.72955,2.3233z" fill="#caa487" stroke="none" stroke-width="0"/><path d="M256.77951,184.40661c0,0 -1.65349,-0.58082 -3.01255,-0.20176c-0.85711,0.23907 -1.81398,1.45108 -1.81398,1.45108l-0.36025,-0.05787c0,0 1.12022,-1.3148 2.13949,-1.60727c1.01927,-0.29247 2.81945,0.18434 2.81945,0.18434l0.22783,0.23147z" fill="#da8657" stroke="none" stroke-width="0"/></g><g data-paper-data="{&quot;index&quot;:null}" stroke="none" stroke-width="0" stroke-linecap="butt"><path d="M236.22695,185.18425c0.01617,-1.5968 -0.13932,-2.60274 0.77903,-3.56591c0.76633,-0.80373 4.13732,-1.28382 4.89995,-0.38819c0.83137,0.97635 0.72832,2.17053 0.71285,3.69832c-0.01369,1.35122 -0.43444,2.29457 -1.1209,3.22425c-0.80169,1.08577 -1.30294,0.00427 -2.58708,-0.00873c-2.38368,-0.02415 -2.68386,-2.95972 -2.68386,-2.95972z" data-paper-data="{&quot;index&quot;:null}" fill="#59423a"/><path d="M239.96025,185.81906c-1.46467,-0.07346 -3.7141,-0.57106 -3.7141,-0.57106l0.00844,-0.8333c0,0 3.21075,0.49276 4.09679,0.51964c0.88605,0.02689 2.24773,-0.32716 2.24773,-0.32716l0.05436,0.96214c0,0 -1.22857,0.32318 -2.69324,0.24972z" fill="#6e2b11"/><path d="M242.80243,190.96836l-2.51075,-1.15932l-0.7828,-4.01734l2.78896,-0.96064l1.90282,3.65181z" fill="#d79774"/><path d="M242.58857,190.10623l-2.11844,-0.97816l-0.68884,-3.5582l2.28679,-0.58484l1.70024,3.02408z" fill="#494a42"/><path d="M237.74884,182.46029l5.07183,-0.73699l-1.53184,3.04707z" fill="#ebb074"/><path d="M241.06595,184.07882l-2.67529,-1.69385l4.0441,-0.53599z" fill="#4f5945"/><path d="M239.03231,182.32736l3.01786,-0.48228l-1.03987,1.3998z" fill="#ebb074"/><path d="M239.51264,185.53752l0.49635,-0.54824l1.75557,-0.26232l0.51084,0.1975l-0.79061,2.10749z" fill="#3fcf78"/></g><g data-paper-data="{&quot;index&quot;:null}"><path d="M243.80834,175.11936c1.18412,2.778 3.98379,6.08918 3.98379,6.08918c0,0 -2.91585,-0.31614 -3.83888,-1.24285c-2.009,-2.01701 -3.19311,-5.48577 -3.68393,-5.1297c-0.01214,0.00881 -1.252,0.90401 -2.61317,1.85383c-0.83505,0.5827 -2.05302,0.6345 -2.06713,2.14018c-0.02126,2.26966 4.3189,7.70958 4.3189,7.70958l-5.93019,-5.09425c0,0 1.22904,2.10816 2.0781,3.26182c1.18497,1.61006 4.3662,5.49424 4.3662,5.49424c0,0 -4.07649,-2.11246 -5.91392,-4.06349c-2.22569,-2.3633 -6.50008,-9.11803 -6.50008,-9.11803c0,0 4.02319,6.64097 6.82172,10.74444c2.79853,4.10347 3.84648,4.89828 3.84648,4.89828c0,0 -4.39672,-2.31816 -6.56065,-4.56456c-2.1639,-2.24639 -4.61058,-5.63964 -4.61058,-5.63964l2.32318,5.80051c0,0 -2.30196,-2.63279 -3.24293,-4.02317c-0.89583,-1.32364 -2.10476,-4.66604 -2.10476,-4.66604c0,0 -0.30142,-2.01575 0.04487,-3.76568c0.63069,-3.18716 1.838,-3.52389 1.838,-3.52389c0,0 2.17699,-3.5976 4.76131,-4.49228c3.1755,-1.09934 7.43541,-1.2521 9.65823,0.66872c1.96336,1.69662 1.94546,4.12905 3.02545,6.66277z" data-paper-data="{&quot;index&quot;:null}" fill="#ff3300" stroke="none" stroke-width="0" stroke-linecap="butt"/><path d="M239.50003,172.77389c1.51393,-0.20113 2.12942,-0.96202 3.4926,0.21037c0.74985,0.6449 1.45809,2.3088 0.84761,5.18148c-0.91922,0.89598 0,1.89691 -1.78163,2.90422c-1.78165,1.00732 -3.45274,1.95706 -5.15663,0.94659c-1.67868,-1.30635 -2.99079,-3.106 -3.14785,-3.58084c-0.54267,-1.6405 -0.91108,-2.13683 1.18495,-3.71683c1.56682,-1.18108 3.04705,-1.74387 4.56097,-1.945z" data-paper-data="{&quot;index&quot;:null}" fill="#ffbe7e" stroke="none" stroke-width="0" stroke-linecap="butt"/><path d="M231.86499,174.37459c0,0 -1.91037,-3.16417 0.1022,-4.36197c4.03573,-1.59475 4.36987,1.43858 4.36987,1.43858" data-paper-data="{&quot;index&quot;:null}" fill="none" stroke="#000000" stroke-width="0.5" stroke-linecap="round"/><path d="M238.84264,170.97961c0,0 -0.35377,-2.25902 1.28489,-2.51379c1.22709,-0.13525 1.50288,1.90883 1.50288,1.90883" data-paper-data="{&quot;index&quot;:null}" fill="none" stroke="#000000" stroke-width="0.5" stroke-linecap="round"/><path d="M240.7312,180.97508c-1.78398,0.51809 -3.55887,-0.19371 -3.96434,-1.58987c-0.40546,-1.39616 0.71205,-2.94796 2.49603,-3.46605c1.78397,-0.51809 3.55886,0.19372 3.96434,1.58987c0.40546,1.39616 -0.71204,2.94796 -2.49601,3.46605z" data-paper-data="{&quot;index&quot;:null}" fill="#000000" stroke="none" stroke-width="0" stroke-linecap="butt"/><path d="M239.98206,181.00331c-1.20539,0.35006 -2.44363,-0.26514 -2.7657,-1.37411c-0.32206,-1.10895 0.39403,-2.29173 1.59942,-2.64178c1.20539,-0.35007 2.44363,0.26513 2.76569,1.37409c0.32206,1.10895 -0.39403,2.29173 -1.59942,2.64179z" data-paper-data="{&quot;index&quot;:null}" fill="#ff0017" stroke="none" stroke-width="0" stroke-linecap="butt"/><g stroke="none" stroke-width="0" stroke-linecap="butt"><g><path d="M239.5255,162.91957c1.14459,1.31379 0.42234,4.09694 -0.71339,5.97292c-0.79117,1.30684 -0.87403,1.97972 -1.13293,2.02445c-0.36831,0.06363 -1.44681,-0.96675 -2.35849,-1.34205c-2.14042,-0.88107 -4.91992,-3.33725 -3.2637,-5.39012c1.37447,-1.70368 4.19764,0.29685 4.19764,0.29685c0,0 1.83292,-3.21256 3.27083,-1.56204z" fill="#d67a49"/><path d="M236.98287,163.16526c0.05735,0.32176 -0.07727,0.6066 -0.27047,0.84013c-0.15569,0.18818 -0.51494,0.63963 -0.51494,0.63963c0,0 -0.53614,-0.38412 -0.73485,-0.48378c-0.29113,-0.14602 -0.52226,-0.27566 -0.58378,-0.62099c-0.10354,-0.58102 0.28352,-1.13596 0.86455,-1.23952c0.58103,-0.10354 1.13596,0.28352 1.23952,0.86455z" fill="#d67a49"/><path d="M236.11373,164.04824c-0.42962,0.07657 -0.83994,-0.20965 -0.91649,-0.63925c-0.07656,-0.42959 0.20964,-0.83992 0.63925,-0.91648c0.4296,-0.07655 0.83992,0.20963 0.91648,0.63924c0.07657,0.42962 -0.20963,0.83994 -0.63922,0.9165z" fill="#770000"/><path d="M239.303,163.25434c1.02461,1.1761 0.24972,3.76307 -0.76694,5.44241c-0.70821,1.16988 -0.78241,1.77223 -1.01416,1.81225c-0.32968,0.05696 -1.29513,-0.86541 -2.11127,-1.20137c-1.91606,-0.78874 -4.45824,-3.08684 -2.97563,-4.92454c1.23039,-1.52512 3.89683,0.42447 3.89683,0.42447c0,0 1.68397,-3.03075 2.97117,-1.55325z" fill="#29382d"/><path d="M239.78596,164.50701c0,0 -2.67887,1.00627 -3.30891,1.14324c-1.30533,0.28381 -4.38708,0.51897 -4.38708,0.51897c0,0 -0.18658,-0.28737 -0.09721,-0.93978c0.04161,-0.30386 0.34021,-0.75485 0.34021,-0.75485c0,0 3.49399,0.83691 4.03229,0.74099c1.22539,-0.21837 2.79439,-2.14933 2.79439,-2.14933c0,0 0.34511,0.37009 0.45935,0.66934c0.1142,0.29925 0.16693,0.77142 0.16693,0.77142z" fill="#ffac5f"/><path d="M239.06304,167.67796c0,0 -1.1835,-0.4997 -1.88435,-0.34635c-0.78229,0.17117 -2.77314,1.48945 -2.77314,1.48945c0,0 -0.54783,-0.36507 -0.75497,-0.53016c-0.16177,-0.12893 -0.41582,-0.39993 -0.41582,-0.39993c0,0 2.60751,-1.23778 3.43314,-1.38493c0.88426,-0.15759 2.85998,-0.03731 2.85998,-0.03731c0,0 -0.11724,0.38681 -0.1897,0.58551c-0.07398,0.2028 -0.2751,0.62372 -0.2751,0.62372z" fill="#ffac5f"/><path d="M238.23495,169.27254c0,0 -0.50524,1.21325 -0.73334,1.32357c-0.21727,0.10508 -1.25777,-0.78235 -1.25777,-0.78235c0,0 -0.21033,-0.83582 -0.75344,-1.90807c-0.87632,-1.73018 -1.37933,-2.4974 -0.73501,-3.3065c0.40237,-0.50528 1.60316,-0.20783 1.60316,-0.20783c0,0 1.46304,-1.25123 1.98854,-0.19473c0.26389,0.53055 0.26907,0.55118 0.13394,1.40715c-0.07939,0.5028 0.17976,0.93148 0.1484,1.13438c-0.06725,0.43515 -0.55731,0.36246 -0.67264,0.88634c-0.16508,1.25526 0.27813,1.64801 0.27813,1.64801z" fill="#d67a49"/><path d="M237.72604,167.4564c-0.12213,1.07202 0.45569,2.18327 0.45569,2.18327c0,0 -0.36736,0.99047 -0.55049,1.08282c-0.17443,0.08796 -1.17301,-0.69054 -1.17301,-0.69054c0,0 -0.28018,-1.29471 -0.728,-2.21648c-0.72261,-1.48735 -1.31854,-2.33896 -0.80567,-3.02517c0.32031,-0.42855 1.37767,-0.10175 1.37767,-0.10175c0,0 1.32613,-1.16867 1.52604,-0.66109c0.16962,0.43074 0.06784,1.93616 -0.10223,3.4289z" fill="#ffac5f"/><path d="M237.72605,167.45642c-0.06238,0.54755 -1.66698,0.15135 -2.42843,-0.58809c-0.72933,-0.70825 -0.69384,-1.79104 -0.44293,-2.12675c0.32031,-0.42855 1.46664,-0.1176 1.46664,-0.1176c0,0 1.30705,-1.10409 1.50695,-0.59651c0.16962,0.43074 0.06784,1.93616 -0.10223,3.4289z" fill="#d67a49"/><path d="M238.50166,166.84822c-0.16527,0.28636 -0.95601,0.46593 -1.39892,0.46237c-0.61286,-0.00493 -1.09919,-0.59308 -1.66783,-1.84362c-0.15595,-0.34295 0.01287,-0.59469 0.39955,-0.73448c0.38128,-0.13785 0.5427,0.05257 0.98433,-0.03304c0.43808,-0.08492 0.67438,-0.76607 0.77473,-0.78395c0.09142,-0.01629 0.73982,-0.09465 0.8522,0.81884c-0.29503,0.87409 0.16944,1.91732 0.05599,2.11389z" fill="#ffac5f"/><path d="M237.94725,168.51966l-0.18558,0.43891c0,0 -0.14992,-0.94202 -0.21369,-1.24057c-0.05822,-0.27245 -0.15375,-0.47965 -0.15375,-0.47965l0.67874,-0.18184c0,0 -0.09091,0.21652 -0.03042,0.43588c0.08435,0.30581 0.3113,1.2592 0.3113,1.2592z" fill="#8c3e22"/><path d="M236.6087,166.01876c0,0 -0.03676,0.37578 -0.54581,0.2393c-0.24093,-0.06458 -0.32637,-0.69263 -0.32637,-0.69263z" fill="#016929"/><path d="M238.13998,165.56927l0.07017,-0.8079c0,0 0.16409,0.17432 0.11949,0.49876c-0.03007,0.21867 -0.18965,0.30913 -0.18965,0.30913z" fill="#016929"/></g><path d="M235.41301,169.66482c0,0 -5.01228,2.8553 -6.80437,0.41904c-0.24707,-0.43782 -0.00343,-0.51892 -0.00343,-0.51892l0.58695,-0.48336c0,0 -0.18555,0.1552 0.1332,0.58329c1.02832,1.38105 5.21683,-0.69971 5.21683,-0.69971l0.87079,0.69967z" fill="#ffac5f"/><path d="M233.64001,170.45051c0,0 -0.83386,0.32851 -1.33511,0.45999c-0.50124,0.13148 -1.30721,0.23312 -1.30721,0.23312l-0.30284,-0.99066c0,0 0.77438,-0.11846 1.28304,-0.23732c0.50867,-0.11886 1.13178,-0.35747 1.13178,-0.35747l0.53035,0.89236z" fill="#29382d"/><path d="M228.95489,170.44911c0,0 -0.23497,-0.17717 -0.34264,-0.35141c-0.10767,-0.17423 -0.14631,-0.43979 -0.14631,-0.43979l0.70991,-0.58425c0,0 -0.04132,0.22116 0.07802,0.4322c0.11932,0.21105 0.42341,0.45459 0.42341,0.45459z" fill="#29382d"/></g><path d="M245.40502,180.76448l-0.90186,-0.31659l1.79095,-1.13719l0.51179,0.69985z" fill="#caa487" stroke="none" stroke-width="NaN" stroke-linecap="butt"/><path d="M243.8316,179.91462l-0.51637,-0.58283l2.0904,-1.30129l0.51178,0.69986z" fill="#caa487" stroke="none" stroke-width="0" stroke-linecap="butt"/><path d="M237.6949,184.60451l-1.15142,-1.00752l1.03953,-0.3019l0.72029,1.18641z" fill="#caa487" stroke="none" stroke-width="0" stroke-linecap="butt"/><path d="M235.60609,182.95675l-0.78253,-0.84627l1.92417,-0.39779l0.26514,0.72814z" fill="#caa487" stroke="none" stroke-width="0" stroke-linecap="butt"/><path d="M236.85367,188.17675l-1.49955,-1.28215l1.43228,-1.16742l1.11791,1.44666z" fill="#caa487" stroke="none" stroke-width="0" stroke-linecap="butt"/><path d="M234.2522,185.87272l-1.2888,-1.66541l2.10617,-0.88005l0.91191,1.29177z" fill="#caa487" stroke="none" stroke-width="0" stroke-linecap="butt"/><path d="M232.03118,188.02065l-0.9678,-1.11451l2.03903,-1.66569l0.8129,1.32053z" fill="#caa487" stroke="none" stroke-width="0" stroke-linecap="butt"/><path d="M234.85939,190.3662l-1.37817,-1.04901l1.06014,-2.07919l1.33994,2.02629z" fill="#caa487" stroke="none" stroke-width="0" stroke-linecap="butt"/><path d="M226.798,184.60226l-0.7139,-1.34928l1.44828,-0.74266l0.65166,1.6894z" fill="#caa487" stroke="none" stroke-width="0" stroke-linecap="butt"/><path d="M225.04118,181.14043l-0.48878,-1.68305l0.51576,-0.25713l0.97579,1.3269z" fill="#caa487" stroke="none" stroke-width="0" stroke-linecap="butt"/><path d="M242.7452,173.88162c0,0 -0.65013,-0.26297 -0.72358,-0.57801c-0.07346,-0.31504 0.41289,-0.79394 0.41289,-0.79394c0,0 1.64787,-0.03522 1.83756,0.22625c0.18969,0.26148 -1.52686,1.1457 -1.52686,1.1457z" data-paper-data="{&quot;index&quot;:null}" fill="#030000" stroke="none" stroke-width="0" stroke-linecap="butt"/></g><path d="M228.23676,175.61924z" data-paper-data="{&quot;index&quot;:null}" fill="#030000" stroke="none" stroke-width="0" stroke-linecap="butt"/><g data-paper-data="{&quot;index&quot;:null}"><g><path d="M218.90292,177.2489l-0.40052,1.68675l-1.72161,0.29586z" fill="#b96a37" stroke="none" stroke-width="0" stroke-linecap="butt"/><path d="M218.59136,178.89514l1.02537,1.91946l-2.87044,-1.66144z" fill="#ebb9a2" stroke="none" stroke-width="0" stroke-linecap="butt"/><path d="M237.87245,184.09059l-9.76207,-2.04751l1.00202,-2.23029l8.00974,2.21533z" data-paper-data="{&quot;index&quot;:null}" fill="#ff3200" stroke="none" stroke-width="0" stroke-linecap="butt"/><path d="M226.18083,182.22322c0,0 -1.89065,1.69107 -5.19569,-0.4528c-1.76784,-1.14676 -2.78024,-1.77439 -2.9109,-4.33426c-0.15834,-3.10226 2.42992,-4.97832 3.39089,-4.71146c0.96096,0.26686 2.1562,2.90387 2.1562,2.90387c0,0 0.60219,0.28908 0.86005,-0.23027c0.50794,-1.02308 0.39874,-3.08267 1.38143,-2.47814c1.48155,0.91141 2.01474,2.0516 2.36784,3.09186c0.23902,0.70414 0.03177,1.14601 0.14925,1.57761c0.12495,0.45907 0.83662,1.2279 0.83662,1.2279c0,0 0.24732,1.28052 -0.23914,2.18631c-0.48646,0.90577 -1.69383,1.76228 -1.69383,1.76228l-1.10269,-0.54287z" data-paper-data="{&quot;index&quot;:null}" fill="#906d5f" stroke="none" stroke-width="0" stroke-linecap="butt"/><path d="M225.16109,178.24461c0,0 -0.43955,-1.14982 -1.41795,-0.63004c-0.35307,0.18757 -0.71107,-0.00746 -1.03743,0.33625c-0.69363,0.73052 -1.24573,1.70022 -1.31192,1.62321c-0.21921,-0.25516 1.95715,-3.54128 1.8931,-3.74342" data-paper-data="{&quot;index&quot;:null}" fill="none" stroke="#564343" stroke-width="1" stroke-linecap="round"/><path d="M224.48138,175.39829c0.50794,-1.02308 0.39874,-3.08267 1.38143,-2.47814c1.48155,0.91141 2.01474,2.0516 2.36784,3.09186c0.23902,0.70414 0.03177,1.14601 0.14925,1.57761c0.12495,0.45907 -4.15636,-1.67198 -3.89851,-2.19135z" data-paper-data="{&quot;index&quot;:null}" fill="#c3b0b0" stroke="none" stroke-width="0" stroke-linecap="butt"/><path d="M229.63927,183.50711c-0.77662,0.23227 -2.49853,-0.63058 -2.49853,-0.63058c0,0 -1.12869,-1.25334 -0.74506,-2.55312c0.38367,-1.29978 1.69171,-2.26775 2.78354,-1.9455c0.38808,0.11456 1.39822,0.61385 1.77741,1.42003c0.37923,0.80617 0.15641,1.24924 -0.10399,1.98243c-0.26041,0.73319 -0.43677,1.49445 -1.21338,1.72674z" data-paper-data="{&quot;index&quot;:null}" fill="#21242a" stroke="none" stroke-width="0" stroke-linecap="butt"/><path d="M235.95153,183.64625l-1.65513,-0.29984l0.90152,-1.80595l1.16616,0.26254z" fill="#caa487" stroke="none" stroke-width="NaN" stroke-linecap="butt"/><path d="M233.46884,183.19651l-0.67712,-0.15002l0.90144,-1.95641l1.0157,0.26263z" fill="#caa487" stroke="none" stroke-width="0" stroke-linecap="butt"/><path d="M232.49077,182.97147l-0.82761,-0.22514l0.67571,-2.03148l0.75238,0.22519z" fill="#caa487" stroke="none" stroke-width="0" stroke-linecap="butt"/><path d="M231.21177,182.67141l-0.56426,-0.11247l0.7133,-2.06913l0.75234,0.14996z" fill="#caa487" stroke="none" stroke-width="0" stroke-linecap="butt"/></g><path d="M223.57121,175.59303c0,0 -0.65438,0.36721 -1.47403,1.94198c-0.91944,1.7665 -1.0582,3.9286 -1.88451,3.79334c-0.92522,-0.86974 -2.09867,-1.48467 -2.18973,-4.04625c-0.11034,-3.10434 2.47819,-4.79757 3.43492,-4.51589c0.95674,0.28169 2.11335,2.82683 2.11335,2.82683z" data-paper-data="{&quot;index&quot;:null}" fill="#a38273" stroke="none" stroke-width="0" stroke-linecap="butt"/></g><g data-paper-data="{&quot;index&quot;:null}" stroke="none" stroke-width="0" stroke-linecap="butt"><path d="M237.61405,185.52474c0.4009,0.26526 5.18545,3.94 5.59895,6.32162c0.4135,2.3816 -1.30846,5.07711 -3.67112,4.78204c-1.93058,-0.24111 -4.91193,-2.89907 -6.22801,-4.19276c-1.31607,-1.2937 -2.25192,-2.48087 -2.27074,-4.06414c-0.01883,-1.58328 0.41269,-2.80575 1.91567,-3.80133c1.503,-0.99556 3.6294,0.2758 4.65525,0.95458z" data-paper-data="{&quot;index&quot;:null}" fill="#ac5626"/><path d="M236.56494,195.09317c0,0 -1.37304,-0.75817 -2.25699,-1.48289c-0.88394,-0.72471 -1.99528,-2.18718 -1.99528,-2.18718l4.85251,-6.03933c0,0 0.32025,-0.10497 1.49897,0.86143c1.17872,0.9664 2.83211,2.68951 2.83211,2.68951z" fill="#b3937c"/></g></g></g></svg>