<svg version="1.1" xmlns="http://www.w3.org/2000/svg" xmlns:xlink="http://www.w3.org/1999/xlink" width="51.1164" height="118.44352" viewBox="0,0,51.1164,118.44352"><g transform="translate(-211.26175,-87.69331)"><g data-paper-data="{&quot;isPaintingLayer&quot;:true}" fill-rule="nonzero" stroke-linejoin="miter" stroke-miterlimit="10" stroke-dasharray="" stroke-dashoffset="0" style="mix-blend-mode: normal"><g stroke="none" stroke-linecap="butt"><path d="M219.667,189.67498c-1.00467,-0.84107 -3.38236,-4.01622 -3.38236,-4.01622c0,0 -1.34455,-1.10276 -2.24528,-1.61915c-1.10663,-0.63442 -2.77761,-1.30374 -2.77761,-1.30374c0,0 1.00529,-0.27257 1.91536,-0.34376c0.91006,-0.0712 2.33721,-0.0924 2.33721,-0.0924c0,0 -0.84437,-0.91962 -1.3633,-1.74671c-0.51894,-0.82709 -1.13237,-2.23099 -1.13237,-2.23099c0,0 0.6464,-0.03017 1.9598,0.43416c1.31341,0.46433 3.27627,1.41696 3.27627,1.41696l-1.79845,-4.21923c0,0 1.00261,0.39147 2.21019,1.17109c1.20759,0.77962 2.97243,2.17481 2.97243,2.17481c0,0 1.09526,-0.8466 1.59535,-1.38825c0.6375,-0.69049 1.91851,-2.41764 1.91851,-2.41764c0,0 -0.42745,2.46679 -0.6949,3.48495c-0.21027,0.80051 -0.7799,2.1296 -0.7799,2.1296c0,0 1.03256,1.81965 0.96822,3.767c-0.00869,0.263 1.00022,0.73645 1.95736,0.24634c0.7207,-0.36905 0.65454,1.68684 1.18526,2.47415c0.93562,1.38802 1.82664,1.90795 1.82664,1.90795c0,0 -2.91914,3.55357 -4.93178,3.18618c-1.6388,-0.29915 -4.01195,-2.174 -5.01663,-3.01508z" fill="#1c0e4c" stroke-width="NaN"/><path d="M218.75404,188.60446c0,0 -0.31092,-3.23485 1.86977,-4.76374c1.9148,-1.34246 3.94535,0.19519 3.94535,0.19519l0.10086,0.81914c0,0 -0.9619,0.38555 -1.69675,1.03094c-0.79646,0.69951 -1.05882,1.86724 -1.09585,2.39402c-0.10401,1.47978 0.00536,3.01937 0.00536,3.01937c0,0 -1.13362,-0.71858 -1.64913,-1.16262c-0.52715,-0.45406 -1.47963,-1.53232 -1.47963,-1.53232z" fill="#684af8" stroke-width="0"/><path d="M226.79022,185.28046c0,0 0.20212,0.80038 1.44336,2.87566c0.32423,0.54209 1.34259,1.41648 1.34259,1.41648c0,0 -0.58805,0.66392 -1.06735,1.09305c-0.54946,0.49195 -1.13181,1.02041 -1.21648,1.01446c-0.26158,-0.01839 -2.03767,-1.77254 -1.92525,-3.37189c0.11241,-1.59935 1.42313,-3.02775 1.42313,-3.02775z" fill="#684af8" stroke-width="0"/></g><g stroke="none" stroke-width="0" stroke-linecap="butt"><path d="M245.14428,191.31064c0.69648,-5.1528 5.63537,-1.27 6.19828,-1.8926c2.43856,-2.69721 5.64835,-5.34912 8.20066,-3.15862c0.97028,0.83276 -2.20167,3.62187 -4.64023,6.31909c-1.84577,2.04155 -5.35668,3.77107 -7.05208,4.11859c-0.54449,0.1116 -2.895,-2.50315 -2.70663,-5.38645z" fill="#09031a"/><path d="M250.67202,193.90316c0,0 -2.2048,-2.28326 -0.49791,-4.64767c0.01699,-0.02353 1.25447,-1.46473 2.34758,-2.18809c1.12763,-0.74619 1.90629,-0.36084 1.90629,-0.36084c0,0 -1.54913,1.95783 -1.8974,2.90775c-0.34827,0.94991 0.00366,2.25745 0.00366,2.25745z" fill="#b16e27"/><path d="M255.90415,190.99651c2.19987,-2.32475 3.71318,-4.68959 3.71318,-4.68959c0,0 2.69522,-0.32721 -1.99641,4.60312c-0.84873,0.89191 -3.14736,3.27563 -4.3916,4.20478c-1.9903,1.48625 -5.52872,1.82233 -5.69285,1.67393c-0.18134,-0.16396 2.23396,-1.17879 4.83046,-2.90158c1.22302,-0.81147 2.48623,-1.78 3.53722,-2.89065z" fill="#a75c1e"/><path d="M250.75982,195.0359c-0.5424,-0.49039 -0.36951,-1.56552 0.38619,-2.40135c0.75569,-0.83584 1.808,-1.11588 2.35042,-0.62548c0.5424,0.49039 0.36951,1.56552 -0.38619,2.40136c-0.7557,0.83584 -1.808,1.11588 -2.35042,0.62548z" fill="#999999"/><path d="M251.59415,194.21016c-0.16006,-0.1447 -0.01758,-0.56311 0.31822,-0.93452c0.33581,-0.37142 0.73777,-0.5552 0.89784,-0.4105c0.16006,0.1447 0.01758,0.56311 -0.31823,0.93453c-0.33581,0.37142 -0.73777,0.55521 -0.89782,0.4105z" fill="#b16e27"/></g><path d="M226.72188,169.38957c-0.16201,-0.43534 0.75255,-1.23536 2.12879,-1.7475c1.37625,-0.51215 2.44343,-0.59084 2.44343,-0.59084c0,0 4.38403,1.81531 4.16759,2.53198c-0.13699,0.4536 -3.04223,3.10917 -3.83624,3.32085c-0.08789,0.02343 -0.81067,1.41581 -0.81067,1.41581c0,0 -0.44888,-0.53919 -0.50354,-1.25658c-0.04519,-0.59289 0.1525,-1.42381 0.06339,-1.27729c-0.50176,0.82493 -0.93812,1.71354 -0.93812,1.71354c0,0 -0.31887,-0.50838 -0.27074,-1.15737c0.03923,-0.52906 0.28702,-1.16537 0.20052,-1.13398c-0.4405,0.15987 -1.10959,0.459 -1.10959,0.459c0,0 -0.13223,-0.91819 -0.02766,-1.32543c0.10456,-0.40724 0.59805,-0.89611 0.59805,-0.89611c0,0 -0.69551,-0.04019 -1.19438,0.00428c-0.41872,0.03732 -0.83689,0.13827 -0.91082,-0.06038z" fill="#5133c8" stroke="none" stroke-width="NaN" stroke-linecap="butt"/><g><path d="M244.39533,174.92689c-2.58411,-0.68699 -3.79747,-6.5816 -2.71011,-13.16596c0.58076,-3.51674 1.70038,-6.51897 3.01129,-8.4484c0.06718,-0.09888 1.31706,-2.44158 1.3852,-2.53475c1.09167,-1.49267 1.11809,0.00377 2.25129,0.30503c1.09616,0.29142 1.44812,-0.94954 1.97998,0.87111c0.08681,0.29712 0.66268,3.07945 0.73225,3.4066c0.16201,0.76185 0.27646,1.60107 0.33949,2.49878c0.13504,1.92344 0.03394,4.11531 -0.34162,6.38946c-1.08735,6.58436 -4.06366,11.36512 -6.64779,10.67812z" fill="#462fb6" stroke="none" stroke-width="0" stroke-linecap="butt"/><path d="M241.31883,164.99991c0,0 0.29658,2.07344 4.16884,3.01625c2.34593,0.57118 4.86891,-0.47688 4.86891,-0.47688c0,0 -0.40615,1.21732 -0.66718,1.94101c-0.3795,1.05213 -0.79794,1.82471 -0.79794,1.82471c0,0 -1.50572,0.99412 -3.5895,0.72426c-1.84514,-0.23896 -3.70525,-1.74131 -3.70525,-1.74131c0,0 -0.31171,-0.89164 -0.3222,-2.26506c-0.00738,-0.96652 0.04432,-3.02296 0.04432,-3.02296z" fill="#0d0627" stroke="none" stroke-width="0" stroke-linecap="butt"/><path d="M242.34953,158.86354c0,0 0.45613,1.38504 4.32837,2.32783c2.34593,0.57118 4.62838,-0.10834 4.62838,-0.10834c0,0 0.02377,1.24278 -0.06065,1.89087c-0.08442,0.64811 -0.32794,1.50934 -0.32794,1.50934c0,0 -2.76074,0.64943 -4.84451,0.37957c-1.84514,-0.23896 -4.50859,-2.25142 -4.50859,-2.25142c0,0 0.13413,-1.13433 0.28236,-1.84209c0.14823,-0.70775 0.50258,-1.90577 0.50258,-1.90577z" fill="#0d0627" stroke="none" stroke-width="0" stroke-linecap="butt"/><path d="M244.62311,153.56817c0,0 0.07597,1.17101 2.84969,1.9167c2.34593,0.57118 3.60755,0.12555 3.60755,0.12555c0,0 0.20063,0.81524 0.24921,1.29203c0.04857,0.47679 0.03011,1.81439 0.03011,1.81439c0,0 -2.67389,0.26665 -4.39148,-0.12688c-1.7176,-0.39354 -3.9922,-1.79402 -3.9922,-1.79402c0,0 0.37691,-0.85019 0.67744,-1.62154c0.2625,-0.67378 0.96968,-1.60626 0.96968,-1.60626z" fill="#0d0627" stroke="none" stroke-width="0" stroke-linecap="butt"/><path d="M245.76063,150.4841c0,0 -1.12855,-1.35635 -1.15625,-2.30689c-0.02184,-0.74944 0.97449,-1.17497 1.15756,-1.09914c0.07691,0.03186 -0.49627,-1.88018 0.14462,-2.3968c1.01214,-0.81586 1.72106,0.28604 1.72106,0.28604c0,0 0.52557,-0.39328 0.99287,-0.29672c0.46731,0.09656 0.95861,0.41698 0.9624,0.70074c0.00211,0.15814 0.02426,-0.38643 0.46623,-0.34354c0.44196,0.0429 1.02798,0.48856 1.02798,0.48856c0,0 0.3883,-0.1741 0.77496,-0.12508c1.21525,0.1541 0.25601,1.71502 -0.05966,2.69815c-0.48387,1.50705 -1.30608,2.41665 -1.38235,2.54244c-0.16064,0.26495 1.11514,1.55199 0.70101,1.81174c-0.4968,0.3116 -1.57544,1.17629 -2.41607,0.87948c-0.35202,-0.1243 -0.64106,-0.75325 -0.80894,-1.09412c-0.27964,-0.5678 0.04845,0.93015 -0.79687,0.86118c-0.84531,-0.06897 -1.85989,-1.18158 -1.85989,-1.18158l0.53134,-1.42445z" fill="#c08f5a" stroke="none" stroke-width="0" stroke-linecap="butt"/><path d="M245.8536,146.9986c0,0 0.54584,0.41462 1.21446,0.56557c0.62531,0.14116 1.37363,0.01399 1.44582,0.15731c0.07162,0.14218 1.31768,0.68292 -0.21693,1.25382c-0.52818,0.19649 -1.50871,-0.12118 -1.50871,-0.12118" fill="none" stroke="#b26a37" stroke-width="0.5" stroke-linecap="round"/><path d="M247.64034,145.09573l0.13108,0.81784" fill="none" stroke="#b26a37" stroke-width="0.5" stroke-linecap="round"/><path d="M249.74585,145.96794l-0.10529,-0.45475" fill="none" stroke="#b26a37" stroke-width="0.5" stroke-linecap="round"/><path d="M251.17386,146.20707l-0.08452,-0.50489" fill="none" stroke="#b26a37" stroke-width="0.5" stroke-linecap="round"/><path d="M251.30641,147.73033c0,0 -0.44435,0.39057 -0.72667,0.32955c-0.30835,-0.06664 -0.90544,-0.35957 -0.90544,-0.35957" fill="none" stroke="#b26a37" stroke-width="0.5" stroke-linecap="round"/><path d="M250.30246,150.72103c0,0 -1.48623,0.40128 -2.24252,0.38524c-0.7376,-0.01565 -2.24059,-0.48034 -2.24059,-0.48034" fill="none" stroke="#b26a37" stroke-width="1" stroke-linecap="round"/></g><g stroke="none" stroke-width="0" stroke-linecap="butt"><path d="M225.22677,179.55579c0.36105,-4.67416 6.60284,-14.13361 14.01795,-14.16248c6.11495,-0.02381 11.83423,6.23281 14.01796,14.16248c-0.10852,8.90697 -6.27606,14.16248 -14.01795,14.16248c-7.74189,0 -13.90942,-2.54239 -14.01794,-14.16248z" fill="#684af8"/><path d="M234.5816,168.93122c0,0 2.2054,-0.1074 3.59759,0.18214c1.39219,0.28954 2.66429,1.12016 2.66429,1.12016c0,0 1.88375,-1.19776 3.23827,-1.25872c1.55805,-0.07012 2.23196,0.44142 2.23196,0.44142c0,0 0.48158,-0.82409 0.87359,-1.26625c0.39201,-0.44216 1.34137,-1.23206 1.34137,-1.23206l0.06904,3.32415c0,0 0.80036,-0.29692 1.33701,-0.33867c0.53664,-0.04175 1.22134,0.13963 1.22134,0.13963c0,0 -0.30325,0.41511 -0.7286,1.13955c-0.26727,0.4552 -0.40113,0.94282 -0.40113,0.94282l0.19524,0.54727l1.48771,-0.75986c0,0 0.0699,0.59011 -0.16475,1.22149c-0.16756,0.45088 -0.54933,0.9897 -0.54933,0.9897c0,0 2.22528,1.38844 1.90041,6.77972c-0.22792,3.78233 -1.07871,6.33313 -5.01711,9.16454c-1.52681,1.09765 -6.56077,3.25135 -8.35927,0.3774c-2.27883,-3.64148 -0.31336,-11.62196 -1.3122,-12.86655c-1.18311,-1.47421 -3.35414,-1.78911 -3.35414,-1.78911c0,0 0.65257,-0.50406 1.04185,-0.66528c0.64189,-0.26584 0.90059,-0.27207 0.90059,-0.27207c0,0 -0.67066,-0.80409 -1.90249,-1.66517c-0.91102,-0.63682 -1.25512,-0.93794 -1.25512,-0.93794c0,0 0.72203,-0.34798 1.16935,-0.3976c1.44747,-0.16059 2.07638,0.17816 2.07638,0.17816c0,0 -0.79042,-1.206 -1.3404,-1.94638c-0.54996,-0.74039 -0.96148,-1.15249 -0.96148,-1.15249z" fill="#ffffff"/></g><g data-paper-data="{&quot;index&quot;:null}" stroke="none" stroke-width="0" stroke-linecap="butt"><path d="M230.21742,203.92872c-2.45544,2.50736 -4.68964,0.25607 -5.93563,-1.12513c-0.31113,-0.34489 -1.64561,-2.93568 -1.41305,-4.31922c0.51769,-3.07972 3.43344,-6.12666 4.67202,-7.24396c0.67437,-0.60833 0.05732,-3.0814 1.56223,-2.58451c1.59186,0.52559 5.30634,4.05676 5.94025,4.65419c0.36197,0.34114 -2.3581,-0.20146 -2.13036,0.051c0.43375,0.48082 -1.44343,4.43942 -1.77858,5.94281c-0.44039,1.97546 0.04357,3.64408 -0.91689,4.62484z" fill="#1c0e4c"/><path d="M231.44868,199.66588c0,0 -0.4979,-1.2178 -2.20071,-2.92562c-1.7028,-1.70782 -5.56824,-1.99246 -5.56824,-1.99246c0,0 1.86893,-5.46804 7.29485,-0.50051c2.74488,2.51299 0.47413,5.41859 0.47413,5.41859z" fill="#f0993f"/><path d="M231.80889,199.48898c-0.44723,0.71 -1.01535,1.15607 -1.26892,0.99634c-0.25357,-0.15975 -0.09656,-0.86478 0.35067,-1.57478c0.44723,-0.71 1.01535,-1.15607 1.26892,-0.99634c0.25357,0.15974 0.09656,0.86478 -0.35067,1.57478z" fill="#c3c3c3"/><path d="M224.39867,194.21615c0.14571,-0.2322 0.40069,0.53294 0.40069,0.53294c0,0 -1.35886,1.7943 -1.69652,3.73409c-0.27307,1.56879 0.32488,3.21127 1.25728,4.24488c2.11186,2.34107 4.5617,2.14044 4.5617,2.14044c0,0 -1.17159,3.38457 -5.02492,-0.9041c-4.36847,-4.86198 -1.61169,-6.38012 0.50176,-9.74824z" fill="#f0993f"/><g><path d="M224.00037,192.99696c0.94349,-0.85111 2.0338,-1.1803 2.43526,-0.73526c0.40147,0.44504 -0.03792,1.49578 -0.98142,2.3469c-0.94347,0.85111 -2.03379,1.1803 -2.43524,0.73526c-0.40146,-0.44503 0.03792,-1.49578 0.98141,-2.3469z" fill="#c3c3c3"/><path d="M225.76944,193.1434c0.14771,0.16374 -0.01396,0.55033 -0.36109,0.86348c-0.34712,0.31314 -0.74828,0.43426 -0.89599,0.27051c-0.14771,-0.16374 0.01396,-0.55032 0.36109,-0.86347c0.34714,-0.31315 0.74827,-0.43427 0.89598,-0.27052z" fill="#dd6c23"/></g></g><g stroke="none" stroke-width="0" stroke-linecap="butt"><path d="M248.88594,184.16087c2.86747,-0.89765 4.2596,-2.90303 4.2596,-2.90303c0,0 0.3344,2.89 -0.59867,4.22029c-0.24278,0.34614 -1.06118,1.32831 -2.24807,1.9405c-1.91925,0.98995 -4.6686,1.62586 -4.6686,1.62586c0,0 0.29182,-1.9841 0.28415,-2.08509c-0.04962,-0.65407 -0.36555,-1.84894 -0.36555,-1.84894c0,0 1.28951,-0.30857 3.33714,-0.94959z" fill="#f0993f"/><path d="M246.72552,186.60976c0,-0.36184 0.22628,-0.65517 0.50541,-0.65517c0.27913,0 0.50541,0.29333 0.50541,0.65517c0,0.36184 -0.22628,0.65516 -0.50541,0.65516c-0.27913,0 -0.50541,-0.29333 -0.50541,-0.65516z" fill="#a94a00"/><path d="M246.75543,186.59972c0,-0.20828 0.13025,-0.37712 0.29093,-0.37712c0.16067,0 0.29092,0.16884 0.29092,0.37712c0,0.20828 -0.13025,0.37712 -0.29092,0.37712c-0.16067,0 -0.29093,-0.16884 -0.29093,-0.37712z" fill="#ffffff"/><path d="M249.02625,185.82839c0,-0.36184 0.22628,-0.65517 0.50541,-0.65517c0.27913,0 0.50542,0.29333 0.50542,0.65517c0,0.36184 -0.22629,0.65517 -0.50542,0.65517c-0.27913,0 -0.50541,-0.29333 -0.50541,-0.65517z" fill="#a94a00"/><path d="M249.04185,185.82031c0,-0.20828 0.13025,-0.37712 0.29092,-0.37712c0.16067,0 0.29093,0.16884 0.29093,0.37712c0,0.20828 -0.13025,0.37712 -0.29093,0.37712c-0.16067,0 -0.29092,-0.16884 -0.29092,-0.37712z" fill="#ffffff"/></g><g stroke="none" stroke-width="0" stroke-linecap="butt"><path d="M238.13998,185.63423c0.11388,1.113 0.47751,3.84901 0.47751,3.84901c0,0 -2.67312,0.20032 -4.37383,0.05451c-1.70071,-0.14581 -2.60984,-0.11133 -4.20369,-0.55798c-1.59385,-0.44665 -3.03816,-1.29022 -3.37467,-1.56573c-0.71099,-0.58211 -1.12865,-3.96478 -1.12865,-3.96478c0,0 3.46277,0.96024 7.09407,1.54997c2.5232,0.40977 5.49148,0.46106 5.50927,0.635z" fill="#f0993f"/><g><g><path d="M233.82674,192.39488c0.28991,-1.40937 4.27289,-6.48435 4.99213,-6.48435c0.4793,0 0.59835,1.49567 1.04973,3.57725c0.11246,0.51862 -0.3604,1.0051 -0.77619,1.90859c-0.41966,0.9119 -0.78323,2.23948 -0.87042,2.46359c-0.19429,0.49938 -3.25574,1.70926 -3.25574,1.70926c0,0 -1.29866,-2.40066 -1.13951,-3.17435z" fill="#f0993f"/><g><path d="M237.93277,187.92174c-0.50772,-2.24077 0.89718,-4.46886 3.13795,-4.97659c2.24077,-0.50772 4.46886,0.89718 4.97659,3.13795c0.50772,2.24077 -0.89718,4.46886 -3.13795,4.97659c-2.24077,0.50772 -4.46886,-0.89718 -4.97658,-3.13795z" fill="#fde02b"/><path d="M240.27958,187.25569c-0.23577,-1.04056 0.41663,-2.07524 1.45719,-2.31101c1.04056,-0.23577 2.07524,0.41663 2.31101,1.4572c0.23577,1.04056 -0.41663,2.07523 -1.45719,2.31101c-1.04056,0.23577 -2.07524,-0.41663 -2.31101,-1.45719z" fill="#f4a51d"/><path d="M242.66154,186.8215c0.09884,0.43618 -0.56668,0.95874 -1.48647,1.16715c-0.91978,0.20842 -1.74553,0.02376 -1.84437,-0.41243c-0.09884,-0.43618 0.56668,-0.95874 1.48647,-1.16714c0.91978,-0.20842 1.74554,-0.02376 1.84437,0.41243z" fill="#fffed5"/></g></g><g><path d="M235.59688,192.24703c0,-0.39558 0.32068,-0.71626 0.71626,-0.71626c0.39558,0 0.71626,0.32068 0.71626,0.71626c0,0.39558 -0.32068,0.71627 -0.71626,0.71627c-0.39558,0 -0.71626,-0.32069 -0.71626,-0.71627z" fill="#934200"/><path d="M235.64029,192.13851c0,-0.1918 0.15548,-0.34728 0.34727,-0.34728c0.1918,0 0.34727,0.15548 0.34727,0.34728c0,0.1918 -0.15548,0.34727 -0.34727,0.34727c-0.1918,0 -0.34727,-0.15548 -0.34727,-0.34727z" fill="#1c0e4c"/></g><g><path d="M236.89918,190.25016c0,-0.39558 0.32068,-0.71626 0.71626,-0.71626c0.39558,0 0.71627,0.32068 0.71627,0.71626c0,0.39558 -0.32069,0.71626 -0.71627,0.71626c-0.39558,0 -0.71626,-0.32068 -0.71626,-0.71626z" fill="#934200"/><path d="M236.94258,190.14164c0,-0.1918 0.15548,-0.34727 0.34727,-0.34727c0.1918,0 0.34728,0.15548 0.34728,0.34727c0,0.1918 -0.15548,0.34727 -0.34728,0.34727c-0.1918,0 -0.34727,-0.15548 -0.34727,-0.34727z" fill="#684af8"/></g></g></g><g stroke-width="0" stroke-linecap="butt"><g fill="#000000"><path d="M236.5036,114.28697v-22.78335h1.78404v22.78335z" stroke="#b26a37"/><path d="M236.47438,113.95076l1.81767,0.18227c0,0 -0.25109,2.88158 2.14066,2.97585c2.38279,0.09392 2.80116,-3.06829 2.80116,-3.06829c0,0 0.04483,-0.66431 0.50503,-0.67959c0.5814,-0.01931 0.65215,0.58975 0.65215,0.58975c0,0 -0.01401,0.4058 -0.04106,0.60253c-0.2773,2.01628 -1.92549,3.56525 -3.91727,3.56525c-1.95684,0 -3.58202,-1.49509 -3.90141,-3.45955c-0.03743,-0.23018 -0.05692,-0.70822 -0.05692,-0.70822z" stroke="none"/></g><g stroke="none"><path d="M231.8592,104.82119l5.2228,-16.06834l0.93318,-0.53833l5.4225,16.60667z" fill="#462fb6"/><path d="M212.42709,98.74248l25.28888,-9.46668l-16.80808,13.3983z" fill="#462fb6"/><path d="M254.01314,102.60298l-16.11338,-13.14019l24.47839,9.42207z" data-paper-data="{&quot;index&quot;:null}" fill="#462fb6"/><path d="M220.85965,102.61507l16.67302,-14.01957l-5.67345,16.22569z" fill="#d9874c"/><path d="M243.20612,104.82119l-5.44189,-16.163l16.32567,13.95688z" data-paper-data="{&quot;index&quot;:null}" fill="#d9874c"/></g><path d="M235.44027,90.31575l1.39535,-2.60078l1.61091,-0.02166l1.14731,2.62244z" fill="#000000" stroke="none"/></g><g stroke="none" stroke-width="0" stroke-linecap="butt"><path d="M235.93736,161.68594c-0.07023,0.40557 -2.41714,2.41612 -2.41714,2.41612c0,0 -3.1213,-3.47244 -6.86889,-5.9436c-2.86628,-2.07244 -7.85905,-4.26215 -7.59822,-4.41529c0.68192,-0.40038 7.9491,1.44869 11.21457,3.06683c3.82079,1.89332 5.82892,3.95633 5.66969,4.87595z" data-paper-data="{&quot;index&quot;:null}" fill="#ffffff"/><path d="M231.07858,156.52346c0.26085,0.51092 0.55987,1.35915 0.55987,1.35915c0,0 -3.56762,-1.69217 -6.44946,-2.80988c-2.81236,-1.09076 -6.46687,-1.39946 -6.18191,-1.525c0.85687,-0.37753 3.36768,-0.18785 6.43868,0.3439c3.071,0.53175 5.16568,1.33501 5.16568,1.33501c0,0 0.20628,0.78589 0.46713,1.29683z" fill="#1a0c47"/><path d="M236.56598,160.86125c-0.10657,0.05534 -0.64314,0.5878 -1.19215,1.22726c-0.85575,0.9967 -1.81819,2.24013 -1.81819,2.24013c0,0 -1.58086,-2.22011 -2.16678,-3.15704c-0.58593,-0.93693 -2.5992,-2.83666 -2.43028,-2.93089c0.1458,-0.08135 2.6011,0.1436 3.8529,0.50406c1.96975,0.56719 3.96096,2.00929 3.75451,2.11649z" data-paper-data="{&quot;index&quot;:null}" fill="#e8e8e8"/><path d="M239.91088,161.0313c0,0 -1.34543,-0.11268 -2.25182,0.00572c-0.90638,0.1184 -1.81072,0.55746 -1.81072,0.55746c0,0 -1.15384,-1.50468 -1.85848,-2.14925c-0.70465,-0.64457 -2.52745,-1.67698 -2.52745,-1.67698l-1.2383,-2.59952c0,0 2.63176,0.49629 5.07479,2.07189c1.60474,1.03496 4.61198,3.7907 4.61198,3.7907z" data-paper-data="{&quot;index&quot;:null}" fill="#684af8"/></g><g stroke="none" stroke-width="0" stroke-linecap="butt"><path d="M254.96226,157.57007c-0.03099,0.52066 -4.40038,0.25197 -5.65308,0.60577c-2.77031,0.78243 -3.72458,1.08294 -3.72458,1.08294l1.42721,-2.66923c0,0 2.38321,-0.22971 4.30798,-0.03162c2.08488,0.21457 3.64742,0.92916 3.64248,1.01212z" fill="#1a0c47"/><path d="M245.5251,159.18275c3.41047,-1.28465 8.88058,-2.01781 9.45278,-1.47199c0.21888,0.20877 -5.17477,1.73944 -7.17408,2.85008c-3.17655,1.7646 -5.24526,4.36576 -5.18982,3.43411c0.05544,-0.93165 -0.49934,-3.52755 2.91112,-4.8122z" fill="#ffffff"/><path d="M245.03274,159.48481c0.14286,0.13039 -0.64643,1.22768 -1.29674,2.29176c-0.67556,1.10543 -1.12681,2.244 -1.12681,2.244c0,0 -0.76444,-2.0024 -0.99751,-2.20264c-0.30308,-0.2604 3.12593,-2.60248 3.42107,-2.33312z" fill="#e8e8e8"/><path d="M238.88859,159.73001c0,0 1.40731,-1.40588 3.20268,-2.05622c1.79539,-0.65034 4.63171,-1.58768 5.30917,-0.91615c0.14137,0.14012 -0.47909,1.25732 -1.29672,2.00533c-0.80603,0.73739 -1.80498,1.10367 -2.27412,1.52287c-0.98017,0.87587 -2.13206,1.56825 -2.13206,1.56825c0,0 -0.55097,-0.62956 -1.19155,-1.10279c-0.6406,-0.47322 -1.61739,-1.02129 -1.61739,-1.02129z" fill="#684af8"/></g><path d="M231.64153,166.58029c-0.73163,-1.96606 1.54412,-4.62745 5.08302,-5.94439c3.5389,-1.31694 6.98512,-0.7848 7.73249,1.17533c0.96393,2.52807 -1.54411,4.62745 -5.08301,5.94439c-3.5389,1.31694 -7.00086,0.79073 -7.7325,-1.17533z" fill="#684af8" stroke="none" stroke-width="0" stroke-linecap="butt"/><path d="M240.99298,162.92665c-0.43576,0.19394 -1.87769,-0.83299 -2.90474,-1.13521c-1.66008,-0.48849 -2.37783,-0.69127 -2.37783,-0.69127c0,0 0.82535,-0.4274 1.87039,-0.80927c1.29989,-0.47499 1.73028,-0.32801 1.73028,-0.32801c0,0 2.47598,2.61038 1.68189,2.96378z" fill="#1c0e4c" stroke="none" stroke-width="0" stroke-linecap="butt"/><path d="M243.98893,162.06406c0.60513,0.92061 0.7577,2.26301 0.15985,2.6657c-0.59785,0.4027 -1.71974,-0.28679 -2.32487,-1.2074c-0.60513,-0.92061 -0.61104,-1.99335 -0.01319,-2.39605c0.59785,-0.4027 1.57306,0.01715 2.1782,0.93774z" fill="#1c0e4c" stroke="none" stroke-width="0" stroke-linecap="butt"/><g stroke="none" stroke-width="0" stroke-linecap="butt"><path d="M241.53667,163.18746c-0.13065,-0.35109 0.04804,-0.74159 0.39913,-0.87224c0.35109,-0.13065 0.74159,0.04804 0.87224,0.39912c0.13065,0.35109 -0.04804,0.7416 -0.39912,0.87225c-0.35109,0.13065 -0.7416,-0.04804 -0.87225,-0.39913z" fill="#ffff9b"/><path d="M241.91565,163.0637c-0.05703,-0.15325 0.02096,-0.32372 0.17423,-0.38075c0.15324,-0.05703 0.32372,0.02096 0.38075,0.17423c0.05703,0.15325 -0.02096,0.32372 -0.17423,0.38075c-0.15324,0.05703 -0.32372,-0.02097 -0.38075,-0.17423z" fill="#000000"/></g><path d="M239.32659,162.97006c1.60361,0.87771 2.41845,2.47556 1.82002,3.56892c-0.59843,1.09336 -2.38353,1.26819 -3.98713,0.3905c-1.60361,-0.87771 -2.41845,-2.47556 -1.82002,-3.56892c0.59843,-1.09336 2.38354,-1.2682 3.98713,-0.3905z" fill="#1c0e4c" stroke="none" stroke-width="0" stroke-linecap="butt"/><g stroke="none" stroke-width="0" stroke-linecap="butt"><path d="M239.1203,164.93446c-0.18813,-0.50555 0.06919,-1.0679 0.57475,-1.25604c0.50555,-0.18813 1.0679,0.06919 1.25604,0.57474c0.18813,0.50555 -0.06919,1.0679 -0.57474,1.25604c-0.50555,0.18813 -1.06791,-0.06918 -1.25605,-0.57474z" fill="#ffff9b"/><path d="M239.66603,164.75622c-0.08212,-0.22068 0.0302,-0.46614 0.25089,-0.54827c0.22068,-0.08212 0.46614,0.0302 0.54826,0.25088c0.08212,0.22068 -0.0302,0.46614 -0.25088,0.54826c-0.22068,0.08212 -0.46615,-0.0302 -0.54827,-0.25087z" fill="#000000"/></g><path d="M230.20509,166.75352c1.92249,-0.43844 1.89169,0.16432 1.89169,0.16432c0,0 -0.97456,-0.59677 -1.41854,-0.859c-0.49766,-0.29396 -1.42476,-0.82048 -1.42476,-0.82048c0,0 0.97382,-0.51767 2.95115,0.34119c1.01289,0.43995 1.97563,1.00593 1.97563,1.00593c0,0 0.2595,-0.09793 1.7985,-0.03336c1.539,0.06457 2.5858,0.72394 4.00525,0.25583c0.88961,-0.35101 1.78682,-1.80171 2.44913,-2.06094c0.39926,-0.15627 1.14799,-0.35282 1.35778,-0.04906c0.01894,0.02742 0.21483,-0.074 0.41262,-0.60465c0.11619,-0.31174 0.25347,-0.83316 0.39178,-1.15596c0.27065,-0.6317 0.60534,-1.13319 0.60534,-1.13319l0.24145,1.6116c0,0 0.13171,-0.18099 0.33397,-0.3102c0.20227,-0.12921 0.55764,-0.25938 0.55764,-0.25938l-0.34053,1.57333l0.59188,0.59163c0,0 -0.66533,0.30471 -0.90174,0.27343c-0.23641,-0.03127 -0.29281,-0.11717 -0.29281,-0.11717c0,0 -0.25831,0.48323 -0.57786,0.841c-0.31955,0.35776 -1.06302,0.64308 -1.06302,0.64308c0,0 -0.266,0.3425 -0.61116,0.47767c-7.27562,3.45457 -9.4703,1.70768 -9.4703,1.70768c0,0 -0.89487,0.32147 -1.87362,0.65985c-0.97874,0.33839 -2.47451,0.95823 -2.47451,0.95823c0,0 0.65492,-1.06932 1.10769,-1.49253c0.45277,-0.4232 1.36228,-0.81618 1.36228,-0.81618c0,0 -0.67845,-0.18075 -1.56077,-0.2844c-0.88231,-0.10366 -2.31167,-0.39768 -2.22328,-0.16016c0.03402,0.09142 0.27661,-0.50971 2.1991,-0.94815z" fill="#ffffff" stroke="none" stroke-width="0" stroke-linecap="butt"/><path d="M242.83,165.45823c-0.06039,-0.16228 0.11687,-0.3111 0.44142,-0.43188c0.32456,-0.12078 0.55598,-0.12404 0.61637,0.03824c0.06039,0.16228 -0.20413,0.49611 -0.39156,0.56586c-0.16784,0.06246 -0.60584,-0.00996 -0.66623,-0.17223z" fill="#000000" stroke="none" stroke-width="0" stroke-linecap="butt"/><path d="M240.6046,167.83229c0,0 0.46749,-0.53461 0.91958,-0.80591c0.29792,-0.17877 0.84144,-0.15004 1.40994,-0.35809c0.46347,-0.16961 0.87087,-1.01703 1.25286,-1.21431c0.47658,-0.24612 1.31407,-0.04816 1.31407,-0.04816" data-paper-data="{&quot;index&quot;:null}" fill="none" stroke="#000000" stroke-width="0.5" stroke-linecap="round"/><g><g data-paper-data="{&quot;index&quot;:null}" stroke="none" stroke-width="0" stroke-linecap="butt"><path d="M234.74214,175.66575c-2.67374,-0.02537 -5.30969,-5.43558 -5.8875,-12.08407c-0.30862,-3.55098 0.0323,-6.737 0.82432,-8.93107c0.04059,-0.11244 0.67109,-2.69177 0.71402,-2.7989c0.68782,-1.7166 1.08417,-0.27335 2.25668,-0.26223c1.13417,0.01076 1.16771,-1.27871 2.13408,0.35341c0.15771,0.26635 1.40495,2.81924 1.55341,3.11898c0.34571,0.69795 0.66452,1.48268 0.94799,2.33678c0.60736,1.83002 1.05245,3.9786 1.25202,6.27489c0.57782,6.64849 -1.12127,12.01758 -3.79502,11.99221z" fill="#684af8"/><path d="M229.30214,166.81045c0,0 0.80104,1.93532 4.78614,1.88937c2.41429,-0.02783 4.59895,-1.66829 4.59895,-1.66829c0,0 -0.09191,1.27999 -0.16549,2.04579c-0.107,1.11334 -0.32099,1.96551 -0.32099,1.96551c0,0 -1.21248,1.33617 -3.29815,1.59098c-1.84683,0.22563 -4.02115,-0.76905 -4.02115,-0.76905c0,0 -0.52289,-0.78661 -0.87331,-2.11462c-0.2466,-0.93456 -0.70601,-2.9397 -0.70601,-2.9397z" fill="#1c0e4c"/><path d="M228.78041,160.61005c0,0 0.78505,1.22884 4.77016,1.1829c2.41429,-0.02783 4.45725,-1.25165 4.45725,-1.25165c0,0 0.33092,1.19815 0.40971,1.84696c0.07878,0.64881 0.05623,1.54355 0.05623,1.54355c0,0 -2.51378,1.31315 -4.59944,1.56797c-1.84683,0.22563 -4.92583,-1.06421 -4.92583,-1.06421c0,0 -0.15107,-1.1322 -0.18282,-1.85461c-0.03173,-0.72241 0.01475,-1.97088 0.01475,-1.97088z" fill="#1c0e4c"/><path d="M229.67118,154.91647c0,0 0.36371,1.11568 3.23571,1.15095c2.41429,-0.02783 3.52619,-0.77214 3.52619,-0.77214c0,0 0.39636,0.74012 0.56154,1.19003c0.16519,0.4499 0.47869,1.75037 0.47869,1.75037c0,0 -2.52446,0.9208 -4.28601,0.96506c-1.76155,0.04426 -4.31221,-0.74902 -4.31221,-0.74902c0,0 0.15452,-0.91706 0.25457,-1.7388c0.08739,-0.7178 0.5415,-1.79642 0.5415,-1.79642z" fill="#1c0e4c"/></g><g><path d="M228.05028,147.44777c-0.02335,-0.36642 0.53247,-0.58358 0.85309,-0.43723c0.32062,0.14634 0.30621,1.18886 0.50198,1.05571c0.22619,-0.15387 -0.22319,-1.28382 -0.15397,-1.26643c0.08074,0.02028 -0.42924,-0.70857 0.12925,-1.31332c0.88201,-0.95506 1.74438,0.03141 1.74438,0.03141c0,0 0.46244,-0.46589 0.93884,-0.43866c0.47639,0.02722 1.00926,0.27237 1.05449,0.55254c0.02521,0.15612 -0.03249,-0.38583 0.41101,-0.408c0.44348,-0.02217 1.08835,0.33304 1.08835,0.33304c0,0 0.35868,-0.229 0.74835,-0.23701c1.22473,-0.02519 0.50394,1.65917 0.33538,2.67789c-0.25838,1.56158 -0.93881,2.58161 -0.99587,2.7172c-0.1202,0.28559 1.33003,1.3723 0.9583,1.6898c-0.44591,0.38086 -1.38657,1.39393 -2.26156,1.22319c-0.36641,-0.0715 -0.74429,-0.65147 -0.96019,-0.96414c-0.35964,-0.52082 0.18389,0.91307 -0.66243,0.96841c-0.84632,0.05534 -2.01261,-0.89703 -2.01261,-0.89703l0.31741,-1.4868c0,0 -1.85653,-1.01227 -2.03417,-3.80055z" fill="#ffc281" stroke="none" stroke-width="0" stroke-linecap="butt"/><path d="M231.15634,145.64302l0.24922,0.78989" fill="none" stroke="#d9874c" stroke-width="0.5" stroke-linecap="round"/><path d="M233.19609,145.7636l0.17063,0.43448" fill="none" stroke="#d9874c" stroke-width="0.5" stroke-linecap="round"/><path d="M234.81438,146.22596l-0.15742,-0.48711" fill="none" stroke="#d9874c" stroke-width="0.5" stroke-linecap="round"/><path d="M234.61214,150.81879c0,0 -1.4116,0.61422 -2.16213,0.7089c-0.73196,0.09234 -2.28674,-0.14767 -2.28674,-0.14767" fill="none" stroke="#d9874c" stroke-width="1" stroke-linecap="round"/></g></g></g></g></svg>