<svg version="1.1" xmlns="http://www.w3.org/2000/svg" xmlns:xlink="http://www.w3.org/1999/xlink" width="29.66818" height="27.15399" viewBox="0,0,29.66818,27.15399"><g transform="translate(-224.94637,-173.25987)"><g data-paper-data="{&quot;isPaintingLayer&quot;:true}" fill-rule="nonzero" stroke-linejoin="miter" stroke-miterlimit="10" stroke-dasharray="" stroke-dashoffset="0" style="mix-blend-mode: normal"><g data-paper-data="{&quot;index&quot;:null}"><g stroke="none" stroke-width="0" stroke-linecap="butt"><path d="M241.73369,177.52585c0,0 -2.44872,2.45258 -3.2754,3.39208c-0.82669,0.9395 -1.94377,2.53932 -1.94377,2.53932c0,0 -1.03089,-2.33256 0.04633,-5.10216c1.23874,-3.18487 3.82633,-4.06913 3.82633,-4.06913c0,0 -0.04421,1.16567 0.22887,1.70564c0.27549,0.54474 1.11765,1.53426 1.11765,1.53426z" data-paper-data="{&quot;index&quot;:null}" fill="#3ad3cf"/><path d="M246.95892,176.22252c-0.23715,0.14445 -2.41259,0.17216 -3.21607,0.36472c-0.80348,0.19256 -1.99707,0.95471 -1.99707,0.95471c0,0 -0.84359,-0.70107 -1.14182,-1.3836c-0.29823,-0.68252 -0.21516,-1.88541 -0.21516,-1.88541c0,0 2.23349,-0.65852 3.72999,-0.37132c2.74216,0.52627 3.06948,2.18123 2.84014,2.32092z" fill="#ffffff"/></g><path d="M240.01991,175.19201l0.61704,-0.24379" fill="none" stroke="#808080" stroke-width="0.5" stroke-linecap="round"/><path d="M240.5949,176.5595l0.51482,-0.28203" fill="none" stroke="#808080" stroke-width="0.5" stroke-linecap="round"/><path d="M241.75535,177.35503l-0.46598,0.2777" fill="none" stroke="#808080" stroke-width="0.5" stroke-linecap="round"/></g><g data-paper-data="{&quot;index&quot;:null}"><g stroke="none" stroke-width="0" stroke-linecap="butt"><path d="M230.05096,177.00403c0,0 0.94555,-0.8994 1.27899,-1.41344c0.33053,-0.50953 0.71297,-1.65739 0.71297,-1.65739c0,0 2.47646,1.26768 3.61831,3.61c1.57616,3.23325 0.84379,5.83581 0.84379,5.83581c0,0 -1.80059,-0.77524 -2.69016,-1.78122c-0.88955,-1.00598 -3.76391,-4.59378 -3.76391,-4.59378z" fill="#3ad3cf"/><path d="M226.09557,173.98325c0.08444,-0.40591 1.83319,-0.73497 2.54659,-0.7146c1.65541,-0.09751 3.38637,0.64872 3.38637,0.64872c0,0 -0.20877,1.19616 -0.67472,1.88943c-0.46595,0.69329 -1.29021,1.22877 -1.29021,1.22877c0,0 -1.95724,-1.4528 -2.18506,-1.54979c-0.70827,-0.30154 -1.8591,-1.1365 -1.78296,-1.50254z" fill="#ffffff"/></g><path d="M230.0338,176.6394l0.42349,0.36918" fill="none" stroke="#808080" stroke-width="0.5" stroke-linecap="round"/><path d="M231.38055,175.93718l-0.48121,-0.33224" fill="none" stroke="#808080" stroke-width="0.5" stroke-linecap="round"/><path d="M232.09206,174.68118l-0.50042,-0.2399" fill="none" stroke="#808080" stroke-width="0.5" stroke-linecap="round"/></g><g data-paper-data="{&quot;index&quot;:null}"><g><path d="M232.54947,193.5424c0.32979,-0.6095 2.49411,-2.21726 3.45202,-1.95372c0.2613,0.07188 1.6472,1.95795 2.22134,4.22303c0.71361,2.81535 0.12679,4.64847 -0.32107,4.60125c-1.67451,-0.02934 -4.29961,-3.3963 -4.72058,-4.08291c-0.42097,-0.68659 -0.96151,-2.17814 -0.63171,-2.78764z" fill="#09a400" stroke="none" stroke-width="0" stroke-linecap="butt"/><path d="M234.25415,197.70143c0,0 -0.22807,-0.24154 -0.359,-0.40862c-0.13093,-0.16708 -0.60877,-0.82635 -0.60877,-0.82635c0,0 1.15393,-1.1706 2.06091,-1.66929c0.90696,-0.49868 2.24246,-0.69685 2.24246,-0.69685c0,0 0.38512,0.83151 0.53307,1.34589c0.14795,0.51436 0.19557,0.93106 0.19557,0.93106c0,0 -1.37275,0.05505 -2.15043,0.31361c-0.77768,0.25857 -1.9138,1.01054 -1.9138,1.01054z" fill="#a8c8d8" stroke="none" stroke-width="0" stroke-linecap="butt"/><path d="M236.10544,192.25096c0,0 1.04207,2.38758 1.43195,3.99864c0.38988,1.61106 0.48404,4.00287 0.48404,4.00287" fill="none" stroke="#000000" stroke-width="0.25" stroke-linecap="round"/><path d="M235.94214,192.59266l0.44212,-0.09546" fill="none" stroke="#808080" stroke-width="0.5" stroke-linecap="round"/><path d="M236.31838,193.85611l0.57512,-0.13505" fill="none" stroke="#808080" stroke-width="0.5" stroke-linecap="round"/><path d="M237.81349,197.17526l-0.48528,0.07211" fill="none" stroke="#808080" stroke-width="0.5" stroke-linecap="round"/><path d="M237.60043,199.01236l0.50861,-0.11526" fill="none" stroke="#808080" stroke-width="0.5" stroke-linecap="round"/><path d="M237.58746,195.24829l-0.69028,0.15642" fill="none" stroke="#808080" stroke-width="0.5" stroke-linecap="round"/></g><path d="M237.338,189.37246c0,0 0.46019,-0.81475 0.72286,-1.27978c0.26266,-0.46502 0.6959,-1.23578 0.6959,-1.23578l1.48285,-0.29205c0,0 -0.41043,0.9204 -0.78244,1.44112c-0.37201,0.52072 -1.38216,1.70768 -1.38216,1.70768z" fill="#3ad3cf" stroke="none" stroke-width="0" stroke-linecap="butt"/><path d="M237.81135,189.41644c0.45133,0.32562 0.11624,0.69511 -0.5416,1.53031c-0.35224,0.4472 -1.14482,1.51128 -1.59267,1.10722c-0.41942,-0.3784 0.24164,-1.18922 0.5747,-1.65088c0.33307,-0.46166 1.21727,-1.23361 1.55956,-0.98666z" fill="#ffffff" stroke="none" stroke-width="0" stroke-linecap="butt"/></g><g data-paper-data="{&quot;index&quot;:null}"><path d="M246.06713,187.0256c0,0 -0.78199,-0.87793 -1.33997,-1.35899c-0.66448,-0.5729 -2.38352,-1.85128 -2.38352,-1.85128l0.42668,-0.64568c0,0 1.99825,1.41791 2.80256,2.07928c0.68557,0.56372 2.08167,2.3103 2.08167,2.3103l-1.58744,-0.53364z" fill="#3ad3cf" stroke="none" stroke-width="0" stroke-linecap="butt"/><g data-paper-data="{&quot;index&quot;:null}"><path d="M249.2453,188.47801c1.61832,1.96898 0.5448,4.56547 0.0484,4.63317c-1.36812,0.2033 -2.25496,-0.58411 -3.53026,-1.92402c-1.54468,-1.62291 -0.77415,-4.26259 0.28843,-4.52332c0.34789,-0.08534 2.02195,0.38888 3.19342,1.81417z" fill="#a8c8d8" stroke="none" stroke-width="0" stroke-linecap="butt"/><path d="M246.74691,187.8942l-1.03696,0.05603" fill="none" stroke="#808080" stroke-width="0.5" stroke-linecap="round"/><path d="M246.75248,189.46024l-0.81462,0.0813" fill="none" stroke="#808080" stroke-width="0.5" stroke-linecap="round"/><path d="M247.14574,190.67895l-0.77725,0.17251" fill="none" stroke="#808080" stroke-width="0.5" stroke-linecap="round"/><path d="M247.76137,191.92302l-0.55492,0.1978" fill="none" stroke="#808080" stroke-width="0.5" stroke-linecap="round"/><path d="M248.15005,192.90358c0,0 -1.54757,-1.86182 -1.81839,-3.02335c-0.27082,-1.16154 -0.12562,-3.04761 -0.12562,-3.04761" fill="none" stroke="#020202" stroke-width="0.25" stroke-linecap="round"/></g></g><g data-paper-data="{&quot;index&quot;:null}"><path d="M239.19639,182.2301c1.53946,-0.12377 2.02964,0.05722 3.09657,0.77442c1.59014,1.06892 1.94482,3.05965 -0.07922,4.63442c-2.05147,1.59612 -6.47138,0.88009 -6.63329,-0.89801c-0.15054,-1.65334 0.2819,-4.24281 3.61594,-4.51084z" fill="#3ad3cf" stroke="none" stroke-width="0" stroke-linecap="butt"/><path d="M238.92561,183.65778c3.34482,0.454 3.35883,2.20979 3.36116,2.98201c0.00396,1.31279 -1.02903,2.78015 -3.17241,2.9024c-1.60394,0.09147 -3.61985,-1.52089 -3.50029,-2.77999c0.17721,-1.8664 2.15703,-3.26114 3.31154,-3.10443z" fill="#ffffff" stroke="none" stroke-width="0" stroke-linecap="butt"/><path d="M241.53641,184.29968l-0.38303,0.4153" fill="none" stroke="#808080" stroke-width="0.5" stroke-linecap="round"/><path d="M239.59098,183.97854l0.0477,-0.46838" fill="none" stroke="#808080" stroke-width="0.5" stroke-linecap="round"/><path d="M237.87739,184.44759l-0.23454,-0.85679" fill="none" stroke="#808080" stroke-width="0.5" stroke-linecap="round"/><path d="M236.32106,185.51002l-0.2903,-0.58799" fill="none" stroke="#808080" stroke-width="0.5" stroke-linecap="round"/></g><g data-paper-data="{&quot;index&quot;:null}"><g><path d="M230.64935,178.18608c0.66257,0.20314 2.66555,2.00791 2.59607,2.99898c-0.01894,0.27035 -1.59469,2.00094 -3.70209,3.01046c-2.61935,1.25476 -4.53219,1.04094 -4.57421,0.59256c-0.30144,-1.64741 2.48178,-4.8849 3.07189,-5.43301c0.59009,-0.5481 1.94576,-1.37214 2.60833,-1.16901z" fill="#09a400" stroke="none" stroke-width="0" stroke-linecap="butt"/><path d="M226.90813,180.67741c0,0 0.19182,-0.27121 0.3298,-0.43252c0.13798,-0.16131 0.69009,-0.75977 0.69009,-0.75977c0,0 1.37517,0.90044 2.0429,1.69127c0.66773,0.79082 1.12536,2.06103 1.12536,2.06103c0,0 -0.73924,0.54153 -1.21434,0.788c-0.47509,0.24648 -0.87422,0.37533 -0.87422,0.37533c0,0 -0.32467,-1.33495 -0.7315,-2.04637c-0.40684,-0.71142 -1.36808,-1.67695 -1.36808,-1.67695z" fill="#ffffff" stroke="none" stroke-width="0" stroke-linecap="butt"/><path d="M232.61664,181.41757c0,0 -2.13521,1.49243 -3.63777,2.19234c-1.50255,0.69991 -3.82882,1.26386 -3.82882,1.26386" fill="none" stroke="#000000" stroke-width="0.25" stroke-linecap="round"/><path d="M232.24943,181.32487l0.18077,0.41461" fill="none" stroke="#808080" stroke-width="0.5" stroke-linecap="round"/><path d="M231.33082,182.48003l-0.2458,-0.53719" fill="none" stroke="#808080" stroke-width="0.5" stroke-linecap="round"/><path d="M227.95944,183.60158l0.16638,0.46152" fill="none" stroke="#808080" stroke-width="0.5" stroke-linecap="round"/><path d="M226.28279,184.21649l0.21329,0.4759" fill="none" stroke="#808080" stroke-width="0.5" stroke-linecap="round"/><path d="M229.68094,182.81565l0.28947,0.64587" fill="none" stroke="#808080" stroke-width="0.5" stroke-linecap="round"/></g><path d="M235.68166,182.05831c0,0 0.88951,0.29049 1.3972,0.4563c0.50769,0.16581 1.34874,0.43855 1.34874,0.43855l0.24978,0.54088c0,0 -0.65431,0.63439 -1.23817,0.37235c-0.58385,-0.26202 -1.94671,-1.01828 -1.94671,-1.01828z" fill="#3ad3cf" stroke="none" stroke-width="0" stroke-linecap="butt"/><path d="M235.73193,182.53101c-0.23022,0.50668 -0.65854,0.25102 -1.60706,-0.2292c-0.50788,-0.25714 -1.70735,-0.82434 -1.39954,-1.34306c0.28827,-0.4858 1.21352,0.00239 1.73179,0.23789c0.51827,0.23549 1.44942,0.95011 1.27482,1.33437z" fill="#ffffff" stroke="none" stroke-width="0" stroke-linecap="butt"/></g><path d="M243.89254,177.10204c4.10564,-1.57732 8.20499,0.70794 9.03965,3.03675c0.81314,2.26872 0.62249,3.06692 -0.01131,4.53724c-1.63226,3.78661 -9.00025,3.90905 -9.89924,1.67746c-1.05834,-2.62716 -1.84082,-8.20967 0.87091,-9.25146z" data-paper-data="{&quot;index&quot;:null}" fill="#3ad3cf" stroke="none" stroke-width="0" stroke-linecap="butt"/><path d="M243.69881,177.83145c0.61452,-0.22321 2.62165,2.64262 2.28861,5.71945c-0.14152,1.30743 -1.65175,3.45083 -2.11626,3.32433c-1.47696,-0.42059 -2.0522,-1.65712 -2.52124,-2.88571c-0.86331,-2.26133 0.56078,-5.5086 2.34889,-6.15808z" data-paper-data="{&quot;index&quot;:null}" fill="#ffffff" stroke="none" stroke-width="0" stroke-linecap="butt"/><path d="M254.51219,176.75824c0.23459,0.33307 0.03593,1.4911 -0.29248,2.17157c-0.32841,0.68046 -1.43472,1.40721 -1.43472,1.40721c0,0 -0.91463,-1.18151 -1.62559,-1.8469c-0.71097,-0.66539 -1.9592,-1.24607 -2.19501,-1.4269c-0.33387,-0.25603 3.98934,-2.51755 5.5478,-0.30498z" data-paper-data="{&quot;index&quot;:null}" fill="#ffffff" stroke="none" stroke-width="0" stroke-linecap="butt"/><path d="M253.21079,188.31405c-0.40534,0.76247 -1.72755,0.85847 -2.85762,0.49059c-1.24728,-0.40604 -2.33974,-1.20836 -2.33974,-1.20836c0,0 1.44037,-0.53259 2.64046,-1.01604c1.20009,-0.48344 2.08065,-1.69592 2.08065,-1.69592c0,0 1.48479,1.53259 0.47625,3.42973z" data-paper-data="{&quot;index&quot;:null}" fill="#ffffff" stroke="none" stroke-width="0" stroke-linecap="butt"/><g data-paper-data="{&quot;index&quot;:null}" stroke="none" stroke-width="0" stroke-linecap="butt"><path d="M246.88633,184.31978c0.85366,-0.49946 1.9278,-0.27748 2.39917,0.49579c0.47138,0.77327 0.16146,1.805 -0.6922,2.30445c-0.85365,0.49946 -1.92779,0.27749 -2.39916,-0.49578c-0.47136,-0.77326 -0.16146,-1.80501 0.6922,-2.30446z" fill="#ffffff"/><path d="M249.16854,185.48918c0.06938,0.44327 -0.52017,1.52024 -1.25534,1.6113c-0.73517,0.09106 -1.58896,-0.79243 -1.65834,-1.23572c-0.06939,-0.44327 0.40714,-1.42789 1.17607,-1.52313c0.76893,-0.09524 1.66822,0.70426 1.7376,1.14755z" fill="#000000"/></g><g data-paper-data="{&quot;index&quot;:null}" stroke="none" stroke-width="0" stroke-linecap="butt"><path d="M249.88772,180.08868c0.03321,0.83107 -0.85419,1.54131 -1.98207,1.58637c-1.12787,0.04506 -2.06911,-0.59211 -2.10231,-1.42318c-0.0332,-0.83106 0.85419,-1.54131 1.98207,-1.58637c1.12787,-0.04506 2.06911,0.59211 2.10231,1.42318z" fill="#ffffff"/><path d="M247.91698,181.30821c-0.8213,0.03651 -1.73279,-0.31999 -1.83135,-1.10109c-0.09855,-0.78109 0.70983,-1.15938 1.54147,-1.19636c0.83164,-0.03698 1.74509,0.5889 1.81448,1.03217c0.06938,0.44328 -0.7033,1.22876 -1.5246,1.26528z" fill="#000000"/></g><path d="M248.42365,181.15178c0,0 1.30444,-0.66381 1.88197,-0.71049c0.80046,-0.06471 1.40086,0.57933 1.40086,0.57933l-0.10113,3.94825c0,0 -0.97269,0.40473 -1.53696,0.39341c-0.45571,-0.00914 -1.90904,-0.86394 -1.90904,-0.86394c0,0 0.70131,-0.47648 1.23449,-0.7557c0.53317,-0.27922 1.48788,-0.66998 1.48788,-0.66998l-2.45808,-1.92085z" data-paper-data="{&quot;index&quot;:null}" fill="#3ad3cf" stroke="none" stroke-width="0" stroke-linecap="butt"/><g data-paper-data="{&quot;index&quot;:null}" stroke="none" stroke-width="0" stroke-linecap="butt"><path d="M245.64116,182.74925c0.2098,0.52079 0.03665,1.43328 -0.71061,1.54339c-0.35019,0.05159 -0.54729,-0.33604 -0.57716,-1.11993c-0.02138,-0.56105 0.02578,-1.20169 0.56375,-1.38036c0.33593,-0.11156 0.51421,0.43611 0.72401,0.9569z" fill="#71716f"/><path d="M244.99793,181.82393c0.2427,-0.13379 0.53452,0.02075 0.7288,0.27137c0.19429,0.25062 0.21428,0.53443 0.17082,0.88914c-0.04346,0.35471 -0.40713,1.01685 -0.40713,1.01685c0,0 -0.5878,-0.17495 -0.77657,-1.11674c-0.12475,-0.62231 -0.13805,-0.82792 0.28408,-1.06062z" fill="#010101"/><path d="M244.99003,183.39277c0.14718,-0.0593 0.31456,0.01196 0.37385,0.15914c0.0593,0.14718 -0.01196,0.31455 -0.15913,0.37384c-0.14718,0.0593 -0.31455,-0.01196 -0.37384,-0.15913c-0.0593,-0.14718 0.01196,-0.31456 0.15914,-0.37385z" fill="#ffffff"/></g><g data-paper-data="{&quot;index&quot;:null}"><path d="M252.11503,182.69239c0,0 -0.54403,1.21023 -0.10358,2.2961c0.44045,1.08587 -0.06486,2.55069 -0.06486,2.55069l-0.49277,0.15907c0,0 0.38029,-1.42118 -0.04142,-2.45217c-0.42171,-1.031 -0.12006,-2.60494 -0.12006,-2.60494z" fill="#717370" stroke="none" stroke-width="0" stroke-linecap="butt"/><path d="M251.23428,188.00182l0.85246,-1.1531l-0.11243,1.46065l0.30283,1.76549l-0.90326,0.38796l-0.52699,-0.65084l-1.04481,0.58019l0.40753,-1.55541l-0.78946,-0.5435z" fill="#009300" stroke="none" stroke-width="0" stroke-linecap="butt"/><path d="M251.99439,187.00075c-0.38947,0.64116 -1.89503,3.08517 -1.89503,3.08517" fill="none" stroke="#000000" stroke-width="0.25" stroke-linecap="round"/><path d="M249.40418,188.31161l1.88908,-0.18753l1.07498,2.01005" fill="none" stroke="#000000" stroke-width="0.25" stroke-linecap="round"/></g><g data-paper-data="{&quot;index&quot;:null}"><path d="M239.08763,184.13061c0.86756,-0.53123 1.92384,-1.01086 1.92384,-1.01086l0.132,0.7309c0,0 -0.55302,0.4316 -1.26361,0.87058c-0.76539,0.47283 -2.84737,1.75522 -2.84737,1.75522l-0.08368,-0.85411c0,0 1.27125,-0.96051 2.13881,-1.49173z" fill="#3ad3cf" stroke="none" stroke-width="0" stroke-linecap="butt"/><g><path d="M236.5193,188.34997c-1.57665,1.83085 -4.25818,1.18974 -4.41606,0.72684c-0.45109,-1.27333 0.13443,-2.23377 1.17468,-3.64543c1.25999,-1.70983 3.92583,-1.36373 4.37439,-0.38986c0.14685,0.31885 0.00829,1.98315 -1.13303,3.30846z" fill="#ffffff" stroke="none" stroke-width="0" stroke-linecap="butt"/><path d="M236.35949,184.90481l0.24824,0.97952" fill="none" stroke="#808080" stroke-width="0.5" stroke-linecap="round"/><path d="M234.88241,185.35573l0.23064,0.76403" fill="none" stroke="#808080" stroke-width="0.5" stroke-linecap="round"/><path d="M234.02289,186.67342l-0.31073,-0.71503" fill="none" stroke="#808080" stroke-width="0.5" stroke-linecap="round"/><path d="M232.95033,187.44259l-0.29313,-0.49953" fill="none" stroke="#808080" stroke-width="0.5" stroke-linecap="round"/><path d="M232.37203,187.57004c0,0 1.20233,-1.3608 2.26086,-1.78943c1.05853,-0.42863 2.88718,-0.56743 2.88718,-0.56743" fill="none" stroke="#020202" stroke-width="0.25" stroke-linecap="round"/></g></g></g></g></svg>