<svg version="1.1" xmlns="http://www.w3.org/2000/svg" xmlns:xlink="http://www.w3.org/1999/xlink" width="37.22654" height="49.41275" viewBox="0,0,37.22654,49.41275"><defs><radialGradient cx="290.06777" cy="247.56853" r="24.57715" gradientUnits="userSpaceOnUse" id="color-1"><stop offset="0" stop-color="#00050f"/><stop offset="1" stop-color="#000510"/></radialGradient></defs><g transform="translate(-281.38673,-215.29364)"><g data-paper-data="{&quot;isPaintingLayer&quot;:true}" fill-rule="nonzero" stroke="#000000" stroke-width="0" stroke-linejoin="miter" stroke-miterlimit="10" stroke-dasharray="" stroke-dashoffset="0" style="mix-blend-mode: normal"><path d="M293.81561,217.52439c13.5771,-8.99148 24.34411,27.39472 24.34411,27.39472c0,0 -1.8432,13.18361 -4.0919,15.41929c-2.50446,2.49004 -4.97269,4.36799 -4.97269,4.36799c0,0 -7.96827,-2.27643 -11.65248,-3.76537c-3.477,-1.4052 -8.53979,-3.96111 -11.41219,-6.61412c-2.88805,-2.66747 -3.57633,-5.42823 -3.57633,-5.42823c0,0 -1.60711,-13.58362 -0.87734,-17.7604c-0.55398,-2.2515 12.23879,-13.61386 12.23879,-13.61386z" fill="url(#color-1)" stroke-linecap="round"/><path d="M288.44646,227.37591c0.582,-1.86616 6.80005,-10.30225 9.06456,-11.49654c0.90628,-0.47794 9.20705,-0.93857 10.28252,-0.19329c0.58608,0.40613 9.79335,13.14167 10.42598,14.04811c0.486,0.69636 0.6291,13.36167 -0.19694,15.25607c-0.66134,1.51665 -6.83638,9.49245 -8.86765,10.24267c-1.23703,0.45688 -16.47648,-4.97369 -19.23736,-10.42282c-2.26064,-4.46187 -1.98636,-15.7822 -1.47115,-17.43417z" fill="#081d34" stroke-linecap="butt"/></g></g></svg>