<svg version="1.1" xmlns="http://www.w3.org/2000/svg" xmlns:xlink="http://www.w3.org/1999/xlink" width="55.00441" height="75.12514" viewBox="0,0,55.00441,75.12514"><g transform="translate(-214.02947,-130.0624)"><g data-paper-data="{&quot;isPaintingLayer&quot;:true}" fill-rule="nonzero" stroke-linejoin="miter" stroke-miterlimit="10" stroke-dasharray="" stroke-dashoffset="0" style="mix-blend-mode: normal"><g data-paper-data="{&quot;index&quot;:null}" stroke="none" stroke-width="0" stroke-linecap="butt"><path d="M234.61903,189.59509c0.45254,2.85379 -1.64774,5.67348 -2.20018,5.61239c-1.72017,-0.19024 -5.37516,-1.5898 -7.40073,-3.45309c-2.67611,-2.46171 -6.09095,-4.94753 -5.2013,-5.86593c2.34021,-2.41579 5.78012,-0.07007 8.45623,2.39163c0.61775,0.56824 5.17892,-3.752 6.34598,1.31499z" fill="#09031a"/><path d="M227.31191,190.83293c0,0 0.23028,-1.33434 -0.20381,-2.24823c-0.4341,-0.9139 -2.15659,-2.72108 -2.15659,-2.72108c0,0 0.73995,-0.45528 1.93138,0.18413c1.15496,0.61984 2.51965,1.94122 2.53873,1.96309c1.91695,2.19755 -0.06869,4.67376 -0.06869,4.67376z" fill="#b16e27"/><path d="M223.87583,190.27109c1.14861,1.00937 2.49548,1.85772 3.7879,2.55336c2.74384,1.47688 5.24218,2.26546 5.07667,2.44539c-0.1498,0.16285 -3.70413,0.15337 -5.82259,-1.14369c-1.32437,-0.81087 -3.83233,-2.97327 -4.75943,-3.78341c-5.12486,-4.47832 -2.41098,-4.40018 -2.41098,-4.40018c0,0 1.72423,2.21576 4.12843,4.32851z" fill="#a75c1e"/><path d="M229.3696,193.82064c-0.49505,0.53817 -1.56864,0.35602 -2.39795,-0.40684c-0.82931,-0.76286 -1.10027,-1.81755 -0.60523,-2.35571c0.49505,-0.53817 1.56865,-0.35602 2.39795,0.40684c0.82931,0.76285 1.10027,1.81754 0.60523,2.3557z" fill="#999999"/><path d="M228.46291,193.07507c-0.14608,0.1588 -0.56323,0.01273 -0.93175,-0.32626c-0.36852,-0.33899 -0.54884,-0.74253 -0.40276,-0.90133c0.14609,-0.1588 0.56324,-0.01274 0.93176,0.32625c0.36851,0.33898 0.54883,0.74252 0.40275,0.90132z" fill="#b16e27"/></g><g data-paper-data="{&quot;index&quot;:null}"><path d="M237.03651,165.65679c2.12385,1.62448 0.16136,6.90299 -4.38333,11.7899c-1.56968,1.68787 -3.2421,3.10828 -4.84653,4.17769c-0.74883,0.49912 -1.48283,0.92178 -2.18469,1.25949c-0.3014,0.14501 -2.85498,1.39088 -3.14316,1.50389c-1.76578,0.69258 -0.99917,-0.34479 -1.90008,-1.03387c-0.93135,-0.71237 -2.13151,0.18185 -1.61808,-1.59472c0.03205,-0.11089 1.12128,-2.53246 1.15843,-2.64608c0.72493,-2.21714 2.41564,-4.93898 4.84299,-7.5491c4.5447,-4.88691 9.95062,-7.53165 12.07446,-5.90718z" fill="#462fb6" stroke="none" stroke-width="0" stroke-linecap="butt"/><path d="M227.30076,169.29333c0,0 1.59548,-1.29849 2.36472,-1.88372c1.09308,-0.83159 1.98918,-1.13023 1.98918,-1.13023c0,0 2.32621,0.553 3.64365,1.86677c1.48782,1.48369 1.62206,3.28298 1.62206,3.28298c0,0 -0.35539,0.80354 -0.95577,1.74722c-0.41297,0.6491 -1.12776,1.71489 -1.12776,1.71489c0,0 -0.71365,-2.63716 -2.6002,-4.14399c-3.11399,-2.48723 -4.9359,-1.4539 -4.9359,-1.4539z" fill="#0d0627" stroke="none" stroke-width="0" stroke-linecap="butt"/><path d="M223.07585,173.8615c0,0 0.7312,-1.01301 1.20053,-1.5631c0.46935,-0.5501 1.28482,-1.34992 1.28482,-1.34992c0,0 3.22109,0.87668 4.53853,2.19045c1.48782,1.48369 2.66227,4.06518 2.66227,4.06518c0,0 -0.53251,0.71936 -0.99367,1.18249c-0.46116,0.46312 -1.459,1.20433 -1.459,1.20433c0,0 -0.85815,-2.22148 -2.7447,-3.72831c-3.11397,-2.48723 -4.48877,-2.00112 -4.48877,-2.00112z" fill="#0d0627" stroke="none" stroke-width="0" stroke-linecap="butt"/><path d="M220.27646,178.8987c0,0 0.30532,-1.12978 0.67789,-1.74951c0.42652,-0.70949 0.86871,-1.52763 0.86871,-1.52763c0,0 2.49908,0.94326 3.86083,2.06158c1.36174,1.11832 2.78594,3.39701 2.78594,3.39701c0,0 -1.04703,0.83261 -1.45398,1.08575c-0.40695,0.25314 -1.17468,0.59295 -1.17468,0.59295c0,0 -0.41894,-1.27075 -2.30549,-2.77758c-2.28623,-1.7386 -3.25922,-1.08259 -3.25922,-1.08259z" fill="#0d0627" stroke="none" stroke-width="0" stroke-linecap="butt"/><path d="M218.53193,181.68472l0.80212,-1.29151c0,0 1.50077,0.12234 2.07228,0.74899c0.5715,0.62665 -0.81433,1.28312 -0.19407,1.15714c0.37237,-0.07562 1.04677,-0.23156 1.36039,-0.02905c0.74892,0.48361 0.7244,1.86584 0.78166,2.44947c0.04774,0.48652 -1.75077,0.26417 -1.86217,0.5533c-0.05289,0.13727 -0.26977,1.34408 -1.16627,2.64854c-0.58483,0.85097 -1.23324,2.5645 -2.09834,1.69721c-0.27524,-0.27595 -0.37495,-0.68965 -0.37495,-0.68965c0,0 -0.71099,-0.19113 -1.0152,-0.51458c-0.30423,-0.32346 0.11311,-0.67401 -0.01331,-0.57898c-0.22684,0.17054 -0.78082,-0.02225 -1.14299,-0.33294c-0.36216,-0.31069 -0.3724,-0.96703 -0.3724,-0.96703c0,0 -1.30538,0.11296 -1.27881,-1.1868c0.01682,-0.82301 1.8802,-1.53878 1.80795,-1.58015c-0.17196,-0.09848 -0.44457,-1.14702 0.16176,-1.58805c0.76902,-0.55936 2.53234,-0.49589 2.53234,-0.49589z" fill="#c08f5a" stroke="none" stroke-width="0" stroke-linecap="butt"/><path d="M217.87069,183.49458c0,0 0.85098,0.58155 1.01851,1.11961c0.48676,1.56333 -0.70308,0.90811 -0.85938,0.93839c-0.15754,0.03052 -0.51455,-0.63932 -1.00864,-1.04775c-0.52832,-0.43671 -1.19018,-0.61504 -1.19018,-0.61504" fill="none" stroke="#b26a37" stroke-width="0.5" stroke-linecap="round"/><path d="M216.14531,186.07076l-0.72724,0.39642" fill="none" stroke="#b26a37" stroke-width="0.5" stroke-linecap="round"/><path d="M217.39577,187.5997l-0.42419,0.19478" fill="none" stroke="#b26a37" stroke-width="0.5" stroke-linecap="round"/><path d="M218.00711,188.82521l0.45116,-0.24189" fill="none" stroke="#b26a37" stroke-width="0.5" stroke-linecap="round"/><path d="M218.72269,186.48367c0,0 0.59691,0.29329 0.83821,0.49651c0.22094,0.18606 0.18365,0.77649 0.18365,0.77649" fill="none" stroke="#b26a37" stroke-width="0.5" stroke-linecap="round"/><path d="M218.68005,181.64446c0,0 1.2868,0.905 1.75025,1.47904c0.47519,0.58858 1.06658,2.00991 1.06658,2.00991" fill="none" stroke="#b26a37" stroke-width="1" stroke-linecap="round"/></g><g data-paper-data="{&quot;index&quot;:null}" stroke="none" stroke-linecap="butt"><path d="M262.00329,182.77054c-0.83828,1.00702 -2.83836,3.27562 -4.39737,3.86269c-1.91465,0.72099 -5.4216,-2.25399 -5.4216,-2.25399c0,0 0.78382,-0.67073 1.45646,-2.20355c0.38155,-0.86945 -0.05078,-2.88046 0.72425,-2.64608c1.02929,0.31125 1.9374,-0.3348 1.88187,-0.59202c-0.41115,-1.90453 0.27976,-3.87936 0.27976,-3.87936c0,0 -0.79788,-1.20597 -1.14776,-1.95604c-0.44502,-0.95402 -1.30623,-3.30478 -1.30623,-3.30478c0,0 1.56892,1.47055 2.31951,2.03606c0.5888,0.44361 1.81767,1.08095 1.81767,1.08095c0,0 1.48724,-1.688 2.53615,-2.67079c1.0489,-0.98278 1.96546,-1.54705 1.96546,-1.54705l-1.01586,4.47262c0,0 1.76113,-1.28792 2.97047,-1.97939c1.20934,-0.69147 1.85073,-0.77725 1.85073,-0.77725c0,0 -0.3528,1.49091 -0.71565,2.39739c-0.36284,0.90648 -1.02936,1.96214 -1.02936,1.96214c0,0 1.40799,-0.23406 2.31613,-0.32657c0.90815,-0.09251 1.94596,-0.0039 1.94596,-0.0039c0,0 -1.52454,0.95703 -2.50005,1.77892c-0.79401,0.66897 -1.91995,1.99417 -1.91995,1.99417c0,0 -1.77228,3.54881 -2.61056,4.55581z" fill="#1c0e4c" stroke-width="NaN"/><path d="M262.7104,181.55411c0,0 -0.74455,1.23106 -1.18212,1.77198c-0.42791,0.52898 -1.41494,1.4385 -1.41494,1.4385c0,0 -0.16741,-1.53436 -0.53407,-2.97176c-0.13053,-0.5117 -0.59725,-1.61378 -1.50586,-2.15977c-0.83831,-0.50375 -1.85361,-0.71128 -1.85361,-0.71128l-0.04709,-0.82398c0,0 1.72323,-1.87564 3.84703,-0.8968c2.41872,1.11477 2.69063,4.35313 2.69063,4.35313z" fill="#684af8" stroke-width="0"/><path d="M254.20969,179.71907c0,0 1.54478,1.1713 1.94107,2.72485c0.39629,1.55355 -1.03789,3.59674 -1.29198,3.66156c-0.08224,0.02098 -0.74962,-0.39495 -1.37812,-0.78084c-0.54826,-0.33661 -1.24544,-0.88482 -1.24544,-0.88482c0,0 0.84579,-1.04224 1.06798,-1.63352c0.85058,-2.26362 0.90648,-3.08723 0.90648,-3.08723z" fill="#684af8" stroke-width="0"/></g><g data-paper-data="{&quot;index&quot;:null}" stroke="none" stroke-width="0" stroke-linecap="butt"><path d="M243.84026,160.68595c-0.15923,-0.91962 1.8489,-2.98263 5.66969,-4.87595c3.26547,-1.61814 10.53265,-3.46721 11.21457,-3.06683c0.26083,0.15314 -4.73194,2.34285 -7.59822,4.41529c-3.74759,2.47116 -6.86889,5.9436 -6.86889,5.9436c0,0 -2.34691,-2.01055 -2.41714,-2.41612z" data-paper-data="{&quot;index&quot;:null}" fill="#ffffff"/><path d="M248.69906,155.52346c0.26085,-0.51094 0.46713,-1.29683 0.46713,-1.29683c0,0 2.09468,-0.80326 5.16568,-1.33501c3.071,-0.53175 5.58181,-0.72143 6.43868,-0.3439c0.28496,0.12554 -3.36955,0.43424 -6.18191,1.525c-2.88184,1.11771 -6.44946,2.80988 -6.44946,2.80988c0,0 0.29902,-0.84823 0.55987,-1.35915z" fill="#1a0c47"/><path d="M243.21164,159.86126c-0.20645,-0.1072 1.78476,-1.5493 3.75451,-2.11649c1.2518,-0.36046 3.7071,-0.58541 3.8529,-0.50406c0.16892,0.09423 -1.84435,1.99396 -2.43028,2.93089c-0.58592,0.93693 -2.16678,3.15704 -2.16678,3.15704c0,0 -0.96244,-1.24343 -1.81819,-2.24013c-0.54901,-0.63946 -1.08558,-1.17192 -1.19215,-1.22726z" data-paper-data="{&quot;index&quot;:null}" fill="#e8e8e8"/><path d="M239.86675,160.03133c0,0 3.00724,-2.75574 4.61198,-3.7907c2.44303,-1.5756 5.07479,-2.07189 5.07479,-2.07189l-1.2383,2.59952c0,0 -1.8228,1.03241 -2.52745,1.67698c-0.70464,0.64457 -1.85848,2.14925 -1.85848,2.14925c0,0 -0.90434,-0.43906 -1.81072,-0.55746c-0.90639,-0.1184 -2.25182,-0.00572 -2.25182,-0.00572z" data-paper-data="{&quot;index&quot;:null}" fill="#684af8"/></g><g data-paper-data="{&quot;index&quot;:null}" stroke="none" stroke-width="0" stroke-linecap="butt"><path d="M224.81536,156.57005c-0.00494,-0.08296 1.5576,-0.79755 3.64248,-1.01212c1.92477,-0.19809 4.30798,0.03162 4.30798,0.03162l1.42721,2.66923c0,0 -0.95427,-0.30051 -3.72458,-1.08294c-1.2527,-0.3538 -5.62209,-0.08511 -5.65308,-0.60577z" fill="#1a0c47"/><path d="M237.16365,162.99496c0.05544,0.93165 -2.01327,-1.66951 -5.18982,-3.43411c-1.99931,-1.11064 -7.39296,-2.64131 -7.17408,-2.85008c0.5722,-0.54582 6.04231,0.18734 9.45278,1.47199c3.41046,1.28465 2.85568,3.88055 2.91112,4.8122z" fill="#ffffff"/><path d="M234.74488,158.48481c0.29514,-0.26936 3.72415,2.07272 3.42107,2.33312c-0.23307,0.20024 -0.99751,2.20264 -0.99751,2.20264c0,0 -0.45125,-1.13857 -1.12681,-2.244c-0.65031,-1.06408 -1.4396,-2.16137 -1.29674,-2.29176z" fill="#e8e8e8"/><path d="M240.88903,158.73001c0,0 -0.97679,0.54807 -1.61739,1.02129c-0.64058,0.47323 -1.19155,1.10279 -1.19155,1.10279c0,0 -1.15189,-0.69238 -2.13206,-1.56825c-0.46914,-0.4192 -1.46809,-0.78548 -2.27412,-1.52287c-0.81763,-0.74801 -1.43809,-1.86521 -1.29672,-2.00533c0.67746,-0.67153 3.51378,0.26581 5.30917,0.91615c1.79537,0.65034 3.20268,2.05622 3.20268,2.05622z" fill="#684af8"/></g><path d="M253.05574,168.38956c-0.07393,0.19865 -0.4921,0.0977 -0.91082,0.06038c-0.49887,-0.04447 -1.19438,-0.00428 -1.19438,-0.00428c0,0 0.49349,0.48887 0.59805,0.89611c0.10457,0.40724 -0.02766,1.32543 -0.02766,1.32543c0,0 -0.66909,-0.29913 -1.10959,-0.459c-0.0865,-0.03139 0.16129,0.60492 0.20052,1.13398c0.04813,0.64899 -0.27074,1.15737 -0.27074,1.15737c0,0 -0.43636,-0.88861 -0.93812,-1.71354c-0.08911,-0.14652 0.10858,0.6844 0.06339,1.27729c-0.05466,0.71739 -0.50354,1.25658 -0.50354,1.25658c0,0 -0.72278,-1.39238 -0.81067,-1.41581c-0.79401,-0.21168 -3.69925,-2.86725 -3.83624,-3.32085c-0.21644,-0.71667 4.16759,-2.53198 4.16759,-2.53198c0,0 1.06718,0.07869 2.44343,0.59084c1.37624,0.51214 2.2908,1.31216 2.12879,1.7475z" data-paper-data="{&quot;index&quot;:null}" fill="#5133c8" stroke="none" stroke-width="NaN" stroke-linecap="butt"/><g data-paper-data="{&quot;index&quot;:null}" stroke="none" stroke-width="0" stroke-linecap="butt"><path d="M254.55084,178.5558c-0.10852,11.62009 -6.27605,14.16248 -14.01794,14.16248c-7.74189,0 -13.90943,-5.25551 -14.01795,-14.16248c2.18373,-7.92967 7.90301,-14.18629 14.01796,-14.16248c7.41511,0.02887 13.6569,9.48832 14.01795,14.16248z" fill="#684af8"/><path d="M245.19606,167.93123c0,0 -0.41152,0.4121 -0.96148,1.15249c-0.54998,0.74038 -1.3404,1.94638 -1.3404,1.94638c0,0 0.62891,-0.33875 2.07638,-0.17816c0.44732,0.04962 1.16935,0.3976 1.16935,0.3976c0,0 -0.3441,0.30112 -1.25512,0.93794c-1.23183,0.86108 -1.90249,1.66517 -1.90249,1.66517c0,0 0.2587,0.00623 0.90059,0.27207c0.38928,0.16122 1.04185,0.66528 1.04185,0.66528c0,0 -2.17103,0.3149 -3.35414,1.78911c-0.99884,1.24459 0.96663,9.22507 -1.3122,12.86655c-1.7985,2.87395 -6.83246,0.72025 -8.35927,-0.3774c-3.9384,-2.83141 -4.78919,-5.38221 -5.01711,-9.16454c-0.32487,-5.39128 1.90041,-6.77972 1.90041,-6.77972c0,0 -0.38177,-0.53882 -0.54933,-0.9897c-0.23465,-0.63138 -0.16475,-1.22149 -0.16475,-1.22149l1.48771,0.75986l0.19524,-0.54727c0,0 -0.13386,-0.48762 -0.40113,-0.94282c-0.42535,-0.72444 -0.7286,-1.13955 -0.7286,-1.13955c0,0 0.6847,-0.18138 1.22134,-0.13963c0.53665,0.04175 1.33701,0.33867 1.33701,0.33867l0.06904,-3.32415c0,0 0.94936,0.7899 1.34137,1.23206c0.39201,0.44216 0.87359,1.26625 0.87359,1.26625c0,0 0.67391,-0.51154 2.23196,-0.44142c1.35452,0.06096 3.23827,1.25872 3.23827,1.25872c0,0 1.2721,-0.83062 2.66429,-1.12016c1.39219,-0.28954 3.59759,-0.18214 3.59759,-0.18214z" fill="#ffffff"/></g><path d="M240.4036,166.75563c-3.5389,-1.31694 -6.04694,-3.41632 -5.08301,-5.94439c0.74737,-1.96013 4.19359,-2.49227 7.73249,-1.17533c3.5389,1.31694 5.81465,3.97833 5.08302,5.94439c-0.73164,1.96606 -4.1936,2.49227 -7.7325,1.17533z" data-paper-data="{&quot;index&quot;:null}" fill="#684af8" stroke="none" stroke-width="0" stroke-linecap="butt"/><path d="M238.78466,161.92667c-0.79409,-0.3534 1.68189,-2.96378 1.68189,-2.96378c0,0 0.43039,-0.14698 1.73028,0.32801c1.04504,0.38187 1.87039,0.80927 1.87039,0.80927c0,0 -0.71775,0.20278 -2.37783,0.69127c-1.02705,0.30222 -2.46898,1.32915 -2.90474,1.13521z" data-paper-data="{&quot;index&quot;:null}" fill="#1c0e4c" stroke="none" stroke-width="0" stroke-linecap="butt"/><path d="M235.78871,161.06406c0.60514,-0.92059 1.58035,-1.34044 2.1782,-0.93774c0.59785,0.4027 0.59194,1.47544 -0.01319,2.39605c-0.60513,0.92061 -1.72702,1.6101 -2.32487,1.2074c-0.59785,-0.40269 -0.44528,-1.74509 0.15985,-2.6657z" data-paper-data="{&quot;index&quot;:null}" fill="#1c0e4c" stroke="none" stroke-width="0" stroke-linecap="butt"/><g data-paper-data="{&quot;index&quot;:null}" stroke="none" stroke-width="0" stroke-linecap="butt"><path d="M237.36871,162.58659c-0.35108,-0.13065 -0.52977,-0.52116 -0.39912,-0.87225c0.13065,-0.35108 0.52115,-0.52977 0.87224,-0.39912c0.35109,0.13065 0.52978,0.52115 0.39913,0.87224c-0.13065,0.35109 -0.52116,0.52978 -0.87225,0.39913z" fill="#ffff9b"/><path d="M237.48123,162.23792c-0.15327,-0.05703 -0.23126,-0.2275 -0.17423,-0.38075c0.05703,-0.15327 0.22751,-0.23126 0.38075,-0.17423c0.15327,0.05703 0.23126,0.2275 0.17423,0.38075c-0.05703,0.15326 -0.22751,0.23126 -0.38075,0.17423z" fill="#000000"/></g><path d="M244.43817,162.36056c0.59843,1.09336 -0.21641,2.69121 -1.82002,3.56892c-1.6036,0.87769 -3.3887,0.70286 -3.98713,-0.3905c-0.59843,-1.09336 0.21641,-2.69121 1.82002,-3.56892c1.60359,-0.8777 3.3887,-0.70286 3.98713,0.3905z" data-paper-data="{&quot;index&quot;:null}" fill="#1c0e4c" stroke="none" stroke-width="0" stroke-linecap="butt"/><g data-paper-data="{&quot;index&quot;:null}" stroke="none" stroke-width="0" stroke-linecap="butt"><path d="M239.40128,164.5092c-0.50555,-0.18814 -0.76287,-0.75049 -0.57474,-1.25604c0.18814,-0.50555 0.75049,-0.76287 1.25604,-0.57474c0.50556,0.18814 0.76288,0.75049 0.57475,1.25604c-0.18814,0.50556 -0.7505,0.76287 -1.25605,0.57474z" fill="#ffff9b"/><path d="M239.56333,164.00708c-0.22068,-0.08212 -0.333,-0.32758 -0.25088,-0.54826c0.08212,-0.22068 0.32758,-0.333 0.54826,-0.25088c0.22069,0.08213 0.33301,0.32759 0.25089,0.54827c-0.08212,0.22067 -0.32759,0.33299 -0.54827,0.25087z" fill="#000000"/></g><path d="M249.57256,165.75348c1.92249,0.43844 2.16508,1.03957 2.1991,0.94815c0.08839,-0.23752 -1.34097,0.0565 -2.22328,0.16016c-0.88232,0.10365 -1.56077,0.2844 -1.56077,0.2844c0,0 0.90951,0.39298 1.36228,0.81618c0.45277,0.42321 1.10769,1.49253 1.10769,1.49253c0,0 -1.49577,-0.61984 -2.47451,-0.95823c-0.97875,-0.33838 -1.87362,-0.65985 -1.87362,-0.65985c0,0 -2.19468,1.74689 -9.4703,-1.70768c-0.34516,-0.13517 -0.61116,-0.47767 -0.61116,-0.47767c0,0 -0.74347,-0.28532 -1.06302,-0.64308c-0.31955,-0.35777 -0.57786,-0.841 -0.57786,-0.841c0,0 -0.0564,0.0859 -0.29281,0.11717c-0.23641,0.03128 -0.90174,-0.27343 -0.90174,-0.27343l0.59188,-0.59163l-0.34053,-1.57333c0,0 0.35537,0.13017 0.55764,0.25938c0.20226,0.12921 0.33397,0.3102 0.33397,0.3102l0.24145,-1.6116c0,0 0.33469,0.50149 0.60534,1.13319c0.13831,0.3228 0.27559,0.84422 0.39178,1.15596c0.19779,0.53065 0.39368,0.63207 0.41262,0.60465c0.20979,-0.30376 0.95852,-0.10721 1.35778,0.04906c0.66231,0.25923 1.55952,1.70993 2.44913,2.06094c1.41945,0.46811 2.46625,-0.19126 4.00525,-0.25583c1.539,-0.06457 1.7985,0.03336 1.7985,0.03336c0,0 0.96274,-0.56598 1.97563,-1.00593c1.97733,-0.85886 2.95115,-0.34119 2.95115,-0.34119c0,0 -0.9271,0.52652 -1.42476,0.82048c-0.44398,0.26223 -1.41854,0.859 -1.41854,0.859c0,0 -0.0308,-0.60276 1.89169,-0.16432z" data-paper-data="{&quot;index&quot;:null}" fill="#ffffff" stroke="none" stroke-width="0" stroke-linecap="butt"/><path d="M236.94763,164.45822c-0.06039,0.16227 -0.49839,0.23469 -0.66623,0.17223c-0.18743,-0.06975 -0.45195,-0.40358 -0.39156,-0.56586c0.06039,-0.16228 0.29181,-0.15902 0.61637,-0.03824c0.32455,0.12078 0.50181,0.2696 0.44142,0.43188z" data-paper-data="{&quot;index&quot;:null}" fill="#000000" stroke="none" stroke-width="0" stroke-linecap="butt"/><path d="M234.27658,164.40581c0,0 0.83749,-0.19796 1.31407,0.04816c0.38199,0.19728 0.78939,1.0447 1.25286,1.21431c0.5685,0.20805 1.11202,0.17932 1.40994,0.35809c0.45209,0.2713 0.91958,0.80591 0.91958,0.80591" data-paper-data="{&quot;index&quot;:null}" fill="none" stroke="#000000" stroke-width="0.5" stroke-linecap="round"/><g data-paper-data="{&quot;index&quot;:null}" stroke="none" stroke-width="0" stroke-linecap="butt"><path d="M234.22883,184.11047c0,0 -0.31593,1.19487 -0.36555,1.84894c-0.00767,0.10099 0.28415,2.08509 0.28415,2.08509c0,0 -2.74935,-0.63591 -4.6686,-1.62586c-1.18689,-0.61219 -2.00529,-1.59436 -2.24807,-1.9405c-0.93307,-1.33029 -0.59867,-4.22029 -0.59867,-4.22029c0,0 1.39213,2.00538 4.2596,2.90303c2.04763,0.64102 3.33714,0.94959 3.33714,0.94959z" fill="#f0993f"/><path d="M232.5467,186.26493c-0.27913,0 -0.50541,-0.29332 -0.50541,-0.65516c0,-0.36184 0.22628,-0.65517 0.50541,-0.65517c0.27913,0 0.50541,0.29333 0.50541,0.65517c0,0.36183 -0.22628,0.65516 -0.50541,0.65516z" fill="#a94a00"/><path d="M232.73127,185.97686c-0.16067,0 -0.29092,-0.16884 -0.29092,-0.37712c0,-0.20828 0.13025,-0.37712 0.29092,-0.37712c0.16068,0 0.29093,0.16884 0.29093,0.37712c0,0.20828 -0.13026,0.37712 -0.29093,0.37712z" fill="#ffffff"/><path d="M230.24597,185.48357c-0.27913,0 -0.50542,-0.29333 -0.50542,-0.65517c0,-0.36184 0.22629,-0.65517 0.50542,-0.65517c0.27913,0 0.50541,0.29333 0.50541,0.65517c0,0.36184 -0.22628,0.65517 -0.50541,0.65517z" fill="#a94a00"/><path d="M230.44486,185.19744c-0.16068,0 -0.29093,-0.16884 -0.29093,-0.37712c0,-0.20828 0.13026,-0.37712 0.29093,-0.37712c0.16067,0 0.29092,0.16884 0.29092,0.37712c0,0.20828 -0.13025,0.37712 -0.29092,0.37712z" fill="#ffffff"/></g><g data-paper-data="{&quot;index&quot;:null}" stroke="none" stroke-width="0" stroke-linecap="butt"><path d="M249.13599,202.78666c-0.89423,-1.04151 -0.30211,-2.67489 -0.61229,-4.67493c-0.23606,-1.5221 -1.85017,-5.59505 -1.38589,-6.04646c0.24377,-0.23702 -2.50598,0.12642 -2.12246,-0.1903c0.67165,-0.55467 4.60924,-3.8352 6.23208,-4.2555c1.5342,-0.39735 0.75664,2.03004 1.38976,2.6812c1.16281,1.19596 3.87293,4.42716 4.18798,7.53416c0.14153,1.3958 -1.35963,3.89371 -1.69266,4.2175c-1.3337,1.29671 -3.71043,3.39697 -5.99653,0.73431z" fill="#1c0e4c"/><path d="M248.18629,198.45237c0,0 -2.07575,-3.04796 0.82769,-5.37595c5.73935,-4.60183 7.24646,0.97679 7.24646,0.97679c0,0 -3.87578,0.03109 -5.68669,1.62382c-1.81092,1.59273 -2.38744,2.77534 -2.38744,2.77534z" fill="#f0993f"/><path d="M247.59158,196.65792c0.26348,-0.14279 0.80119,0.3395 1.201,1.07724c0.39981,0.73774 0.51035,1.45154 0.24687,1.59435c-0.26348,0.14279 -0.80119,-0.3395 -1.201,-1.07724c-0.39981,-0.73774 -0.51035,-1.45155 -0.24687,-1.59435z" fill="#c3c3c3"/><path d="M255.57782,193.47567c1.88852,3.4992 4.54005,5.19448 -0.13721,9.76018c-4.12571,4.02732 -5.07331,0.57334 -5.07331,0.57334c0,0 2.43146,0.36051 4.69199,-1.83735c0.99804,-0.97038 1.70219,-2.57021 1.53236,-4.15351c-0.21001,-1.95773 -1.44854,-3.8371 -1.44854,-3.8371c0,0 0.30451,-0.74682 0.43471,-0.50558z" fill="#f0993f"/><g><path d="M256.05504,192.28515c0.88577,0.91103 1.25545,1.98828 0.82573,2.40609c-0.42972,0.41782 -1.49616,0.01798 -2.38191,-0.89304c-0.88578,-0.91103 -1.25547,-1.98827 -0.82574,-2.40609c0.42972,-0.41782 1.49616,-0.01799 2.38193,0.89304z" fill="#c3c3c3"/><path d="M254.2802,192.3155c0.15811,-0.15373 0.55046,-0.00662 0.87636,0.32857c0.32589,0.3352 0.46192,0.73153 0.30381,0.88525c-0.15811,0.15373 -0.55048,0.00662 -0.87637,-0.32856c-0.32589,-0.3352 -0.46192,-0.73154 -0.30381,-0.88526z" fill="#dd6c23"/></g></g><g data-paper-data="{&quot;index&quot;:null}" stroke="none" stroke-width="0" stroke-linecap="butt"><path d="M241.63764,184.63424c0.01779,-0.17394 2.98607,-0.22523 5.50927,-0.635c3.6313,-0.58973 7.09407,-1.54997 7.09407,-1.54997c0,0 -0.41766,3.38267 -1.12865,3.96478c-0.33651,0.27551 -1.78082,1.11908 -3.37467,1.56573c-1.59385,0.44665 -2.50298,0.41217 -4.20369,0.55798c-1.70071,0.14581 -4.37383,-0.05451 -4.37383,-0.05451c0,0 0.36363,-2.73601 0.47751,-3.84901z" fill="#f0993f"/><g><g><path d="M245.95089,191.39489c0.15915,0.77369 -1.13951,3.17435 -1.13951,3.17435c0,0 -3.06145,-1.20988 -3.25574,-1.70926c-0.08719,-0.22411 -0.45076,-1.55169 -0.87042,-2.46359c-0.41579,-0.90349 -0.88865,-1.38997 -0.77619,-1.90859c0.45138,-2.08158 0.57043,-3.57725 1.04973,-3.57725c0.71924,0 4.70222,5.07498 4.99213,6.48435z" fill="#f0993f"/><g><path d="M241.84485,186.92175c-0.50772,2.24077 -2.73581,3.64567 -4.97658,3.13795c-2.24077,-0.50773 -3.64567,-2.73582 -3.13795,-4.97659c0.50773,-2.24077 2.73582,-3.64567 4.97659,-3.13795c2.24077,0.50773 3.64567,2.73582 3.13795,4.97659z" fill="#fde02b"/><path d="M239.49805,186.25571c-0.23577,1.04056 -1.27045,1.69296 -2.31101,1.45719c-1.04056,-0.23578 -1.69296,-1.27045 -1.45719,-2.31101c0.23577,-1.04057 1.27045,-1.69297 2.31101,-1.4572c1.04056,0.23577 1.69296,1.27045 1.45719,2.31101z" fill="#f4a51d"/><path d="M237.11609,185.82152c0.09883,-0.43619 0.92459,-0.62085 1.84437,-0.41243c0.91979,0.2084 1.58531,0.73096 1.48647,1.16714c-0.09884,0.43619 -0.92459,0.62085 -1.84437,0.41243c-0.91979,-0.20841 -1.58531,-0.73097 -1.48647,-1.16715z" fill="#fffed5"/></g></g><g><path d="M243.46449,191.96331c-0.39558,0 -0.71626,-0.32069 -0.71626,-0.71627c0,-0.39558 0.32068,-0.71626 0.71626,-0.71626c0.39558,0 0.71626,0.32068 0.71626,0.71626c0,0.39558 -0.32068,0.71627 -0.71626,0.71627z" fill="#934200"/><path d="M243.79007,191.4858c-0.19179,0 -0.34727,-0.15547 -0.34727,-0.34727c0,-0.1918 0.15547,-0.34728 0.34727,-0.34728c0.19179,0 0.34727,0.15548 0.34727,0.34728c0,0.19179 -0.15547,0.34727 -0.34727,0.34727z" fill="#1c0e4c"/></g><g><path d="M242.16219,189.96644c-0.39558,0 -0.71627,-0.32068 -0.71627,-0.71626c0,-0.39558 0.32069,-0.71626 0.71627,-0.71626c0.39558,0 0.71626,0.32068 0.71626,0.71626c0,0.39558 -0.32068,0.71626 -0.71626,0.71626z" fill="#934200"/><path d="M242.48778,189.48893c-0.1918,0 -0.34728,-0.15547 -0.34728,-0.34727c0,-0.19179 0.15548,-0.34727 0.34728,-0.34727c0.19179,0 0.34727,0.15547 0.34727,0.34727c0,0.19179 -0.15547,0.34727 -0.34727,0.34727z" fill="#684af8"/></g></g></g><g data-paper-data="{&quot;index&quot;:null}" fill="#000000" stroke-width="0" stroke-linecap="butt"><path d="M239.69789,148.53281l16.48604,-15.7255l1.23138,1.29093l-16.48604,15.7255z" stroke="#b26a37"/><path d="M241.19272,149.61281c0,0 -0.35936,0.31585 -0.55176,0.44764c-1.64194,1.12479 -3.84551,0.98075 -5.19616,-0.43522c-1.37476,-1.44125 -1.39154,-3.70301 -0.12396,-5.29534c0.12368,-0.15535 0.40765,-0.44559 0.40765,-0.44559c0,0 0.48955,-0.36919 0.87687,0.06484c0.30658,0.34354 -0.14317,0.83451 -0.14317,0.83451c0,0 -1.99941,2.48535 -0.28681,4.14471c1.71905,1.66561 3.63085,-0.505 3.63085,-0.505l1.38648,1.18947z" stroke="none"/></g><g data-paper-data="{&quot;index&quot;:null}" stroke="none" stroke-width="0" stroke-linecap="butt"><path d="M245.92336,141.34519l13.07441,-10.35327l-0.20749,0.56242l-10.60821,12.1588z" fill="#462fb6"/><path d="M251.87205,144.47087l6.41614,-12.68522l-1.9168,11.70597z" fill="#462fb6"/><path d="M246.52405,133.37428l11.59299,-1.49716l-12.6516,5.77423z" data-paper-data="{&quot;index&quot;:null}" fill="#462fb6"/><path d="M248.18206,143.71314l10.63417,-12.35956l-6.89204,13.08641z" fill="#d9874c"/><path d="M245.44172,137.644l13.28397,-6.2945l-12.75715,10.04308z" data-paper-data="{&quot;index&quot;:null}" fill="#d9874c"/></g><path d="M256.14192,131.04226l2.6895,-0.97986l1.09621,1.1806l-0.91883,2.80479z" data-paper-data="{&quot;index&quot;:null}" fill="#000000" stroke="none" stroke-width="0" stroke-linecap="butt"/><g data-paper-data="{&quot;index&quot;:null}"><g data-paper-data="{&quot;index&quot;:null}" stroke="none" stroke-width="0" stroke-linecap="butt"><path d="M246.56861,175.75739c-2.49384,0.96455 -5.97348,-3.46333 -7.772,-9.88996c-0.62119,-2.21967 -0.96058,-4.38746 -1.03598,-6.31416c-0.03519,-0.89923 -0.01288,-1.74595 0.06513,-2.52091c0.0335,-0.33281 0.3027,-3.16131 0.3566,-3.46612c0.33028,-1.86778 0.8154,-0.67257 1.87325,-1.08172c1.09361,-0.42298 0.95678,-1.91339 2.20463,-0.54859c0.07788,0.08518 1.57564,2.2777 1.6532,2.36867c1.51339,1.77507 2.95357,4.63738 3.91416,8.06987c1.79852,6.42663 1.23483,12.41836 -1.259,13.38291z" fill="#684af8"/><path d="M248.54482,165.5542c0,0 0.27552,2.03856 0.37353,3.00013c0.13927,1.36638 -0.0734,2.28668 -0.0734,2.28668c0,0 -1.68528,1.69614 -3.49339,2.13478c-2.04195,0.49536 -3.64705,-0.32872 -3.64705,-0.32872c0,0 -0.50015,-0.72238 -0.99206,-1.72687c-0.33834,-0.69093 -0.87476,-1.85672 -0.87476,-1.85672c0,0 2.62218,0.76684 4.89187,-0.05662c3.74642,-1.35922 3.81526,-3.45264 3.81526,-3.45264z" fill="#1c0e4c"/><path d="M246.85146,159.56678c0,0 0.48281,1.15227 0.7073,1.83965c0.22448,0.68738 0.48145,1.80033 0.48145,1.80033c0,0 -2.42825,2.29076 -4.23636,2.7294c-2.04194,0.49536 -4.85702,0.1507 -4.85702,0.1507c0,0 -0.33594,-0.82958 -0.49049,-1.46462c-0.15455,-0.63504 -0.26638,-1.87301 -0.26638,-1.87301c0,0 2.34293,0.42671 4.61262,-0.39675c3.74642,-1.35923 4.04888,-2.78572 4.04888,-2.78572z" fill="#1c0e4c"/><path d="M244.01429,154.55073c0,0 0.80459,0.84985 1.13897,1.491c0.3828,0.73399 0.85012,1.53803 0.85012,1.53803c0,0 -2.10842,1.64005 -3.77289,2.21845c-1.66447,0.5784 -4.35149,0.60476 -4.35149,0.60476c0,0 -0.16414,-1.32762 -0.16782,-1.80687c-0.00369,-0.47925 0.1069,-1.31151 0.1069,-1.31151c0,0 1.30269,0.30547 3.57238,-0.51799c2.67593,-1.04357 2.62381,-2.21588 2.62381,-2.21588z" fill="#1c0e4c"/></g><g><path d="M242.90351,146.98932c0.81482,2.67247 -0.5668,4.27326 -0.5668,4.27326l0.82027,1.28004c0,0 -0.7566,1.30185 -1.56827,1.54784c-0.81167,0.24599 -0.80744,-1.28745 -0.96082,-0.67339c-0.09208,0.36864 -0.24172,1.04448 -0.55954,1.24034c-0.75895,0.4677 -1.99592,-0.1496 -2.54733,-0.3492c-0.45967,-0.1664 0.51543,-1.6939 0.30243,-1.91893c-0.10112,-0.10684 -1.09695,-0.82222 -1.88828,-2.19302c-0.51624,-0.89426 -1.7836,-2.21728 -0.62833,-2.62464c0.36757,-0.12961 0.78389,-0.04147 0.78389,-0.04147c0,0 0.47864,-0.5594 0.90156,-0.6947c0.42294,-0.1353 0.55963,0.3923 0.52829,0.23729c-0.05624,-0.27817 0.35629,-0.69514 0.79264,-0.88825c0.43635,-0.19311 1.03315,0.08026 1.03315,0.08026c0,0 0.46011,-1.22682 1.62177,-0.64319c0.73557,0.36956 0.51466,1.23125 0.5831,1.18386c0.05868,-0.04063 0.03563,1.17518 0.30149,1.23962c0.2301,0.05575 -0.15022,-0.91503 0.09841,-1.16483c0.24862,-0.2498 0.8453,-0.2421 0.95238,0.1091z" fill="#ffc281" stroke="none" stroke-width="0" stroke-linecap="butt"/><path d="M239.36105,146.3929l0.04466,0.82707" fill="none" stroke="#d9874c" stroke-width="0.5" stroke-linecap="round"/><path d="M237.49417,147.22346l-0.00684,0.46673" fill="none" stroke="#d9874c" stroke-width="0.5" stroke-linecap="round"/><path d="M236.14207,148.22569l-0.02405,-0.51135" fill="none" stroke="#d9874c" stroke-width="0.5" stroke-linecap="round"/><path d="M242.30928,151.41357c0,0 -1.3709,0.77174 -2.08854,0.94286c-0.73585,0.17546 -2.2733,0.09722 -2.2733,0.09722" fill="none" stroke="#d9874c" stroke-width="1" stroke-linecap="round"/></g></g></g></g></svg>