<svg version="1.1" xmlns="http://www.w3.org/2000/svg" xmlns:xlink="http://www.w3.org/1999/xlink" width="29.07775" height="33.80687" viewBox="0,0,29.07775,33.80687"><defs><radialGradient cx="237.68245" cy="176.63891" r="1.31225" gradientUnits="userSpaceOnUse" id="color-1"><stop offset="0" stop-color="#f5ab87" stop-opacity="0.25098"/><stop offset="1" stop-color="#f5ab87" stop-opacity="0"/></radialGradient><radialGradient cx="241.95203" cy="173.51943" r="0.73225" gradientUnits="userSpaceOnUse" id="color-2"><stop offset="0" stop-color="#f5ab87" stop-opacity="0.25098"/><stop offset="1" stop-color="#f5ab87" stop-opacity="0"/></radialGradient></defs><g transform="translate(-225.17401,-164.81658)"><g data-paper-data="{&quot;isPaintingLayer&quot;:true}" fill-rule="nonzero" stroke-linejoin="miter" stroke-miterlimit="10" stroke-dasharray="" stroke-dashoffset="0" style="mix-blend-mode: normal"><g data-paper-data="{&quot;index&quot;:null}" stroke="none" stroke-width="0" stroke-linecap="butt"><path d="M236.48942,192.69369c0.26839,-0.50206 0.64585,-0.83774 1.0713,-1.11927c0.37054,-0.24519 0.77748,-0.44931 1.18046,-0.68651c0.86571,-0.50955 0.45478,0.99647 0.45478,0.99647c0,0 -0.48519,2.45308 -1.12869,3.32675c-1.0263,1.3934 -2.26531,2.56314 -2.26531,2.56314c0,0 -0.35145,-0.91701 -0.31927,-2.1324c0.04099,-1.54798 1.00673,-2.94818 1.00673,-2.94818z" fill="#54c81c"/><path d="M235.99977,198.61594c-0.3904,0.05673 -0.75284,-0.21376 -0.80956,-0.60415c-0.05673,-0.3904 0.21375,-0.75285 0.60415,-0.80956c0.3904,-0.05673 0.75285,0.21377 0.80957,0.60416c0.05673,0.3904 -0.21376,0.75284 -0.60416,0.80956z" fill="#ffffff"/></g><g data-paper-data="{&quot;index&quot;:null}" stroke="none" stroke-width="0" stroke-linecap="butt"><path d="M247.73101,195.26047c-0.01413,1.45807 -2.5056,2.03361 -2.5056,2.03361c0,0 1.13803,-0.97205 -0.28605,-2.59926c-0.96562,-0.82934 -2.01116,-3.00412 -2.01116,-3.00412c0,0 -0.81149,-1.4564 0.22795,-1.16171c0.48385,0.13718 0.96356,0.23886 1.41526,0.39321c0.51865,0.17723 1.00043,0.42394 1.40926,0.87365c0,0 1.76447,2.00653 1.75034,3.46461z" fill="#54c81c"/><path d="M244.52537,197.71306c-0.24299,-0.31079 -0.18803,-0.75969 0.12275,-1.00266c0.31079,-0.24299 0.75969,-0.18802 1.00266,0.12275c0.24299,0.31079 0.18803,0.75969 -0.12275,1.00266c-0.31079,0.24299 -0.75969,0.18803 -1.00266,-0.12275z" fill="#ffffff"/></g><path d="M242.18605,171.39759c0.23736,-0.29368 0.80663,-0.12283 1.13029,0.09389c0.4187,0.27919 0.98486,0.75757 0.86641,1.2369c-0.18055,0.72941 -2.1909,3.99013 -2.64807,4.61043c-0.72353,0.98133 -1.57039,0.64436 -1.94588,0.67977c-0.37538,0.0355 0.15974,-1.41699 0.38556,-2.33619c0.29878,-1.11978 1.49391,-3.39642 2.21169,-4.2848z" fill="#c27e34" stroke="none" stroke-width="0.17188" stroke-linecap="butt"/><g data-paper-data="{&quot;index&quot;:null}" stroke="none" stroke-width="0.17188" stroke-linecap="butt"><path d="M244.35404,171.13862c-0.00265,-0.01035 -0.62043,-0.85515 -0.81523,-0.98107c-0.32764,-0.21205 -0.33891,0.20696 -0.63349,-0.17899c-0.21846,-0.28623 -0.06667,-0.65006 -0.13113,-0.89397c-0.07377,-0.27809 0.29434,-0.68288 0.58845,-0.80732c0.1634,-0.06913 0.32787,0.10512 0.32443,0.06129c-0.02354,-0.29649 0.24591,-0.60486 0.51206,-0.56825l0.57918,0.0795c0.54243,0.23392 1.09937,0.62922 1.44582,0.75274c0.8144,0.24913 0.70432,1.2232 0.73297,1.05699c-0.28963,0.78139 -1.11629,1.60901 -1.97213,1.90671c-0.17554,0.05474 -0.51821,0.03206 -0.63094,-0.42759z" fill="#ffcfea"/><path d="M242.90393,172.68248c-0.36562,-0.1654 -0.83694,-0.60384 -0.875,-0.80588c-0.02488,-0.13285 0.09127,-0.52443 0.34205,-0.95662c0.25077,-0.4322 0.62819,-0.95231 0.79048,-0.99523c0.23453,-0.0623 0.32306,-0.02681 0.58954,0.24114c0.26649,0.26796 0.37557,0.20784 0.69899,0.50485c0.32343,0.29703 0.64118,0.27437 0.55435,0.63003c-0.11924,0.48832 -0.61282,1.44133 -1.08171,1.74389c-0.25636,0.14561 -0.65304,-0.19673 -1.01868,-0.36214z" fill="#fca03b"/></g><path d="M240.74527,189.29442c0,0 -1.73232,2.94057 -2.29123,4.0754c-0.37809,0.76769 -0.93318,2.01973 -0.93318,2.01973c-0.2071,0.29463 -1.25508,0.94036 -1.24943,0.13196c0.00443,-0.6355 1.04532,-2.74234 1.04532,-2.74234c0,0 1.71791,-2.72257 1.93476,-3.3332c0.74334,-1.90468 -0.82314,-5.74944 -0.82314,-5.74944l1.46933,-0.30568l0.84759,5.90355z" data-paper-data="{&quot;index&quot;:null}" fill="#ffffff" stroke="none" stroke-width="0" stroke-linecap="butt"/><path d="M241.18495,189.2155l-1.17871,-6.29926l1.25826,0.03077c0,0 0.00777,3.68394 0.91631,5.51556c0.2699,0.58911 2.3661,3.40125 2.3661,3.40125c0,0 1.61207,2.04019 1.67256,2.67283c0.07696,0.80474 -0.67343,0.59511 -1.14211,0.21699c-0.46868,-0.37811 -1.09919,-1.65947 -1.61994,-2.42328c-0.63349,-0.92918 -2.27246,-3.11486 -2.27246,-3.11486z" data-paper-data="{&quot;index&quot;:null}" fill="#ffffff" stroke="none" stroke-width="0" stroke-linecap="butt"/><g stroke="none" stroke-width="0" stroke-linecap="butt"><path d="M254.25176,186.03805c0,0 -1.69245,-0.58383 -2.81861,-0.76772c-1.12616,-0.18389 -5.44509,-0.16794 -5.44509,-0.16794c0,0 4.77104,-0.38227 5.24489,-1.38408c0.47391,-1.00194 -2.95315,-3.4865 -2.03837,-3.2599c4.83148,1.19684 5.05716,5.57964 5.05716,5.57964z" fill="#54c81c"/><path d="M237.93142,180.20563c0,0 4.11975,-0.38504 6.81747,-0.4792c3.26883,-0.11409 6.62278,1.52805 7.35585,2.93019c0.73307,1.40214 -4.05831,2.64236 -6.18308,2.31591c-2.30148,-0.3536 -7.99023,-4.76691 -7.99023,-4.76691z" fill="#ffffff"/></g><g stroke="none" stroke-width="0" stroke-linecap="butt"><path d="M235.31838,183.85248c0,0 -2.35903,1.44535 -4.41001,2.16906c-1.13052,0.39891 -2.67701,0.66093 -3.50382,0.94025c-1.39703,0.47192 -1.53733,1.06179 -1.53733,1.06179c0,0 0.27824,-1.54859 0.54752,-2.19855c0.26928,-0.64997 0.54611,-1.26423 0.79092,-1.171c0.24481,0.09323 8.11272,-0.80156 8.11272,-0.80156z" fill="#54c81c"/><path d="M226.74651,185.03388c0,0 1.12337,-3.13758 5.6697,-4.52116c3.55335,-1.08138 5.26496,-0.25172 5.94012,-0.53826c1.9631,-0.83313 1.61501,-0.45922 1.61501,-0.45922c0,0 -0.50843,2.80467 -6.24617,5.06737c-4.12986,1.62862 -6.97866,0.45127 -6.97866,0.45127z" fill="#ffffff"/></g><g data-paper-data="{&quot;index&quot;:null}" stroke="none" stroke-width="0" stroke-linecap="butt"><path d="M242.80875,189.38676c0,0 4.5171,0.88472 5.21911,-0.35767c0.71241,-1.26079 -1.30653,-5.72304 -1.30653,-5.72304c0,0 1.7861,0.46325 3.36839,3.85735c0.91619,1.9589 1.76567,7.05531 1.76567,7.05531c0,0 -3.15245,-1.58517 -5.36471,-2.18267c-1.83788,-0.49639 -3.68194,-2.64927 -3.68194,-2.64927z" fill="#54c81c"/><path d="M246.85372,183.24877c0.18966,0.14544 2.41776,3.62989 1.54113,5.87373c-0.82307,1.96588 -5.54505,0.29297 -5.54505,0.29297c0,0 -1.93128,-1.45103 -3.28193,-2.78722c-1.62271,-1.60531 -1.53654,-4.22104 -1.00152,-5.43018c0.53502,-1.20914 0.54283,0.36482 3.30315,0.16716c2.07977,-0.14891 4.80245,1.74416 4.98423,1.88355z" fill="#ffffff"/></g><g stroke="none" stroke-width="0" stroke-linecap="butt"><path d="M231.25434,194.47987c0,0 -1.99763,-2.8737 -1.31489,-5.31131c0.51613,-1.84278 2.14174,-4.18051 2.14174,-4.18051l5.98623,4.00151c0,0 -3.5408,1.85438 -4.74547,2.88986c-1.20468,1.03549 -2.0676,2.60043 -2.0676,2.60043z" fill="#54c81c"/><path d="M231.64276,189.93837c-1.53734,-1.46051 -0.30342,-4.16964 0.43841,-4.95032c0.73623,-0.7748 1.37593,-2.34468 5.22489,-3.30071c2.62509,-0.65203 3.30357,-2.20055 3.30357,-2.20055l1.15141,0.44143c0,0 0.88714,4.67388 -1.03111,7.04718c-1.79457,2.22027 -7.60934,4.36693 -9.08715,2.96296z" fill="#ffffff"/></g><path d="M237.06981,170.34793c3.41729,-1.88426 4.33275,-0.65333 4.52742,-0.46955c0.43366,0.45812 0.74111,1.02854 0.94401,1.62283c0.34617,0.98909 0.38464,2.11503 -0.04323,3.08525c-0.25852,0.42655 -0.20944,0.37592 -0.44444,0.80922c-0.26286,0.74245 -0.96205,1.38906 -1.56522,1.83547c-0.47017,0.38806 -0.99992,0.69627 -1.56414,0.92775c-0.37018,0.13652 -0.7402,0.34652 -1.14569,0.32743c-0.37742,-0.02382 -0.77099,-0.1538 -1.01364,-0.45919c-0.63066,-0.70966 -1.26893,-1.41463 -1.8332,-2.17862c-0.14365,-0.21757 -0.33372,-0.43081 -0.37683,-0.69576c0.02546,-0.26434 -1.91128,-2.36425 2.51496,-4.80483z" fill="#f0e9bb" stroke="none" stroke-width="0.17188" stroke-linecap="butt"/><path d="M238.64171,166.57403c0.65923,-0.65839 1.27688,-0.94235 1.75963,-0.94904c0.06867,-0.00112 0.06927,0.05105 0.1622,0.06292c0.11249,0.01442 0.36218,-0.02193 0.31072,-0.02057c0,0 0.03185,0.17601 0.08304,0.23194c0.06514,0.07107 0.2289,0.0876 0.14176,0.12387c0,0 0.13323,0.07615 0.15395,0.12443c0.22654,0.52722 0.29627,1.37525 0.04007,2.03076c0.55013,0.19699 -2.83594,-0.92679 -2.65135,-1.60432z" fill="#ed3e67" stroke="none" stroke-width="0.17188" stroke-linecap="butt"/><path d="M234.60726,174.9498l1.31585,1.99782l1.34261,1.39939l1.03483,0.92652c0.12182,0.10879 -1.98851,0.12156 -2.53663,-0.02394c-0.67826,-0.17995 -1.26349,-0.49465 -1.84715,-0.81172c-0.42549,-0.23091 -0.54739,-0.36498 -0.79078,-0.58223l-0.75547,-0.67462c-0.14357,-0.12815 -0.79434,-0.8397 -0.74543,-1.08275c0.0139,-0.06896 0.83264,-0.08389 0.89225,-0.13106l0.43417,-0.34559c0.12891,-0.10241 0.31078,-0.6779 0.35523,-0.85577c0.03258,-0.12988 0.10321,-0.99638 -0.22937,-1.54031l-0.32903,-0.53803c-0.04925,-0.08058 -0.83145,-0.72639 -0.812,-0.76317c0.03987,-0.07597 -1.28528,-0.39145 -1.24638,-0.474c0.21602,-0.45987 0.4684,-1.03031 0.87633,-1.50517c0.64129,-0.74653 1.50051,-1.35469 1.93568,-1.67326c0.07422,-0.05432 1.03345,-0.72778 1.7352,-0.96023c1.11119,-0.36816 2.03754,-0.17461 2.09536,-0.16923c0.90783,0.0842 1.73819,0.35297 2.50143,0.78157l0.56038,0.42664c0.28687,0.21836 1.70258,1.5426 1.95939,2.19439l0.8775,2.22557c0.15376,0.3897 0.43666,2.54458 0.19638,2.58779c-0.33649,0.06084 -1.05843,-0.88815 -1.05346,-0.70907c0.01084,0.39677 0.49585,-1.96288 0.29607,-2.37119c-0.34165,-0.69803 -0.54557,-1.45404 -0.92073,-1.84431c-0.07091,-0.07363 -0.49622,-0.6224 -0.60638,-0.7497c-0.08696,-0.10073 -0.21661,-0.13846 -0.30251,-0.03079c-0.05722,0.07162 -0.29078,0.1117 -0.26974,0.36113l0.06279,0.73946c0.01005,0.11982 0.17597,2.30896 0.04477,2.23142c-0.02433,-0.01447 -0.19241,-0.62831 -0.20589,-0.66732c-0.0813,-0.23609 -0.18617,-0.38887 -0.19555,-0.27529c-0.0247,0.29869 0.06183,0.96971 0.06183,0.96971c0.00537,0.08673 -0.44578,0.36996 -0.80698,0.4859c-0.33604,0.10788 -0.91318,0.03862 -1.05741,0.02286l-1.56773,-0.17209c-1.47225,-0.16124 -1.15613,0.14363 -1.27698,0.08802c-0.00802,-0.09126 -0.67894,0.37876 -0.72579,0.63935c-0.01866,0.1038 -0.12463,0.35525 -0.17941,0.48455c-0.07299,0.17193 -0.12863,0.28307 -0.11718,0.38878z" fill="#54c81c" stroke="none" stroke-width="0.17188" stroke-linecap="butt"/><path d="M230.4276,176.12639c-0.60801,0.19863 -1.3921,0.08951 -1.87861,-0.14577c-0.04459,-0.02148 -0.1142,-0.1473 -0.1142,-0.1473c-0.03412,0.07766 -0.04827,-0.07299 -0.11364,-0.13619c-0.05134,-0.0497 -0.21413,-0.08823 -0.21413,-0.08823c-0.00152,0.04698 0.03359,-0.17905 0.02109,-0.28256c-0.01049,-0.08557 -0.05882,-0.08887 -0.05748,-0.15172c0.00931,-0.44025 0.27579,-0.9889 0.88878,-1.55564c0.80213,-0.74136 2.04388,-0.67829 2.27849,-0.36659c0,0 0.22794,2.53463 -0.8103,2.87399z" fill="#ed3e67" stroke="none" stroke-width="0.17188" stroke-linecap="butt"/><path d="M232.29191,173.33056c0.05634,-0.17247 0.59677,1.27646 0.41556,1.67184c-0.31172,0.67989 -0.09535,0.8449 -0.6474,1.0461c-0.12385,0.04535 -0.45745,0.01784 -0.83381,0.11534c-0.4359,0.11313 -0.87401,0.14407 -0.8067,0.00405l0.37072,-0.88792l0.16052,-1.83299c0.00249,-0.0285 -0.32545,-0.04643 -0.8038,-0.03206c-0.33544,0.01001 -0.80131,0.07295 -1.1308,0.16656c-0.19413,0.05522 -0.02417,-0.34578 0.31219,-0.79085c0.16303,-0.21579 0.32457,-0.46039 0.58127,-0.63183c0.44465,-0.29678 1.12436,-0.04279 1.61133,0.36677c0.4561,0.38351 0.73325,0.91962 0.77091,0.80499z" fill="#54c81c" stroke="none" stroke-width="0.17188" stroke-linecap="butt"/><path d="M232.88556,172.83818c0.7519,0.95461 0.43904,2.53548 0.11226,2.74701l-0.42039,0.45659l-1.00038,0.10732c-0.25617,0.0274 1.00761,-0.66224 1.0557,-1.17481c0.03149,-0.33442 0.04823,-0.58705 0.01453,-0.68472c-0.32261,-0.9304 -0.80972,-1.52317 -1.25858,-1.81048c-0.7053,-0.45147 -1.3245,-0.30035 -1.12908,-0.67431c0.46582,-0.89188 1.80415,-0.00982 2.62594,1.0334z" fill="#ead32e" stroke="none" stroke-width="0.17188" stroke-linecap="butt"/><path d="M238.87749,167.51088c0,0 -0.43483,-0.11082 -0.75563,-0.20722c-0.66921,-0.20109 -1.37108,-0.0967 -1.37045,-0.29471c0.04122,-0.11091 0.53079,-0.31129 0.7214,-0.29038l0.38709,0.04228c0.68072,0.07451 1.24823,0.50026 1.40958,0.72807c0.06981,0.09853 0.3043,0.1978 0.35034,0.33125c0,0 -0.51327,-0.1373 -0.74232,-0.30929z" fill="#ead32e" stroke="none" stroke-width="0.17188" stroke-linecap="butt"/><path d="M237.77952,166.67166c0,0 0.84099,-0.67458 1.17463,-0.55263c0.22167,0.08088 0.36861,0.56816 0.57837,0.59834c0.26045,0.03749 0.75936,0.23872 1.08106,0.42086c0.22177,0.22099 0.48912,0.39115 0.59095,0.74723c0.22657,0.21123 -0.04255,1.11575 -0.12477,1.05243l-1.11762,-0.86062c-0.28356,-0.21839 -0.8768,-0.64719 -1.01001,-0.72449z" fill="#54c81c" stroke="none" stroke-width="0.17188" stroke-linecap="butt"/><g fill="none" stroke="#000000" stroke-width="0.5" stroke-linecap="round"><path d="M238.875,175.96667l-1.91667,-0.91667"/><path d="M237.375,176.38334l1,-1.66667"/></g><g fill="none" stroke="#000000" stroke-width="0.5" stroke-linecap="round"><path d="M242.54166,173.54999l-1.91666,-0.91666"/><path d="M241.04167,173.96667l1,-1.66667"/></g><path d="M233.73223,169.52681c-0.99744,0.81528 -2.30046,2.79157 -2.30046,2.79157c0,0 -0.64217,-0.60002 -1.5362,-0.12706c-0.89404,0.47295 -1.2896,0.4224 -1.58192,1.50678c-0.22319,0.82798 -0.25214,1.65855 -0.11563,2.15169c0.5779,2.08764 2.39308,2.76476 2.39308,2.76476c0,0 -5.10849,-0.39738 -5.41304,-6.25083c-0.15166,-3.56702 4.00157,-6.31146 4.73595,-6.53896c0.75341,-0.23339 3.75788,-1.16746 4.98026,-0.98462c1.48393,0.22197 2.76793,2.38559 2.76793,2.38559c0,0 -2.85623,1.4234 -3.92998,2.30106z" fill="#c27e34" stroke="none" stroke-width="0" stroke-linecap="butt"/><g stroke-width="0" stroke-linecap="butt"><path d="M230.68114,177.37341c0.47483,-0.06838 0.9152,0.26112 0.98357,0.73595c0.06838,0.47483 -0.26112,0.91519 -0.73595,0.98356c-0.47483,0.06838 -0.91519,-0.26111 -0.98358,-0.73595c-0.06839,-0.47483 0.26111,-0.91519 0.73594,-0.98356z" fill="#db7b04" stroke="none"/><path d="M230.536,178.2719c-0.06614,-0.45926 -0.08514,-0.92365 0.16338,-0.95944c0.16315,-0.0235 0.11783,0.45017 0.18398,0.90943c0.06615,0.45926 0.19046,0.93755 0.02731,0.96104c-0.27695,0.03988 -0.30851,-0.45176 -0.37465,-0.91102z" fill="#feeb00" stroke="#000000"/><path d="M231.60176,178.16818c-0.1793,0.02582 -0.58707,0.0394 -0.59999,-0.05025c-0.01292,-0.08965 -0.12202,-0.26428 0.05729,-0.2901c0.1793,-0.02582 0.5709,0.05005 0.58381,0.13969c0.01291,0.08965 0.13818,0.17485 -0.04113,0.20067z" fill="#000000" stroke="none"/><path d="M231.10304,178.77211c-0.00679,-0.04714 0.08962,-0.10002 0.21531,-0.11812c0.1257,-0.01811 0.20465,0.00952 0.21145,0.05667c0.00679,0.04714 -0.22367,0.17739 -0.34936,0.19551c-0.12569,0.0181 -0.0706,-0.08691 -0.07739,-0.13405z" fill="#000000" stroke="none"/></g><path d="M239.94327,177.57447c0,0.15188 -0.66193,0.45 -0.8,0.45c-0.13807,0 -0.25,-0.12312 -0.25,-0.275c0,-0.15188 0.11193,-0.275 0.25,-0.275c0.13807,0 0.8,-0.05188 0.8,0.1z" fill="#f0e9bb" stroke="none" stroke-width="0" stroke-linecap="butt"/><g stroke="none" stroke-linecap="butt"><path d="M234.18357,172.62031c0,0 0.48654,2.73609 1.5247,4.08382c1.03816,1.34773 2.84906,1.59413 2.84906,1.59413l-0.27859,1.04495c0,0 -2.0247,-0.46702 -2.95348,-1.32285c-0.92879,-0.85583 -2.11552,-3.34798 -2.11552,-3.34798z" fill="#fba15d" stroke-width="0"/><path d="M232.9745,173.57702c0,0 0.79053,2.65938 1.99841,3.67074c1.20788,1.01137 3.42617,1.74341 3.42617,1.74341l2.90749,-1.09826c0,0 -2.36234,3.13528 -5.91453,1.60694c-2.19716,-0.94533 -3.34077,-4.63329 -3.34077,-4.63329z" fill="#fba15d" stroke-width="0"/><path d="M238.86934,181.54713c-0.42796,-0.28021 -0.0414,-0.76568 -0.25799,-1.55736c-0.19744,-0.69006 -0.35157,-0.91368 -0.10632,-1.26153c0.07566,-0.10725 0.67475,-0.10868 0.80645,-0.14402c0.16637,-0.04464 0.73459,-0.93292 1.13395,-0.5941c0.10255,0.08717 0.51283,0.61158 0.49183,0.79566c-0.02185,0.19448 0.37402,1.1217 0.17027,1.42778c0,0 -1.75356,1.55862 -2.23818,1.33355z" data-paper-data="{&quot;index&quot;:null}" fill="#c27e34" stroke-width="0.17188"/><path d="M241.59819,177.16376c0.04047,0.06769 -0.1218,0.08887 -0.24185,0.392c-0.06506,0.16428 0.48874,-0.1753 0.39142,0.04627c-0.16215,0.36914 -1.59587,0.79763 -1.97181,1.02241c-0.45398,0.27144 -1.44871,1.09941 -1.94971,1.07336c-0.22234,-0.01156 0.19395,-0.32127 0.02144,-0.34771c-0.31033,-0.04757 -0.28979,-0.12583 -0.33674,-0.20435c-0.26344,-0.4406 0.8119,-0.5411 1.82984,-1.14972c1.01791,-0.60862 1.99398,-1.27286 2.25742,-0.83227z" fill="#ffe340" stroke-width="0"/><path d="M240.25312,177.48896c0.03616,0.06046 0.37645,0.14538 0.13721,0.27655c-0.23923,0.13117 -2.02332,0.83641 -2.05947,0.77595c-0.03616,-0.06046 0.52478,-0.30608 0.97748,-0.51731c0.72774,-0.33956 0.90863,-0.59564 0.94478,-0.53518z" fill="#000000" stroke-width="0"/><path d="M241.71129,177.51963c0.10496,0.39118 -0.85759,1.54158 -1.76439,1.78489c-0.9068,0.24331 -1.62647,1.26989 -1.73144,0.87871c-0.10496,-0.39118 -0.08625,-0.9432 0.82055,-1.18651c0.90681,-0.24331 2.57031,-1.86826 2.67527,-1.47709z" fill="#fba15d" stroke-width="0"/></g><g data-paper-data="{&quot;index&quot;:null}" stroke="none" stroke-width="0" stroke-linecap="butt"><path d="M240.57753,167.93639l0.30864,0.24235c0,0 -0.63381,1.25902 -0.84446,1.08372c-0.19928,-0.16583 -0.23245,-0.08208 -0.31129,-0.20971c-0.1193,-0.19313 -0.16801,-0.4372 -0.12123,-0.44576c0.05161,-0.00945 0.30753,0.10835 0.44606,0.29032c0.10574,0.1389 0.52227,-0.96092 0.52227,-0.96092z" fill="#671829"/><path d="M239.79196,168.06035l0.58801,0.10348c0,0 -0.69633,1.14478 -1.25948,1.85154c-0.56315,0.70675 -0.00032,-1.02781 -0.00579,-1.05769c-0.02395,-0.13087 0.17943,-0.27772 0.28984,-0.29792c0.11042,-0.02021 -0.03051,0.36897 -0.00656,0.49984z" fill="#671829"/><path d="M238.59554,168.48493c0,0 0.07801,-0.38965 0.1715,-0.40221c0.18403,-0.02472 0.63807,0.30739 0.66386,0.4483c0.00775,0.04235 -0.12505,0.25469 -0.31965,0.44655c-0.13373,0.13184 -0.33633,0.21208 -0.43306,0.19101c-0.09011,-0.01963 -0.22165,-0.25737 -0.16137,-0.41358c0.05398,-0.13986 0.30607,-0.18573 0.26414,-0.17806c-0.18005,0.03295 -0.18541,-0.09202 -0.18541,-0.09202z" fill="#804046"/><path d="M240.08471,168.49138l0.28173,0.00163l-0.0812,0.44266c0,0 -0.32527,-0.0826 -0.49703,-0.15853c-0.24993,-0.11049 -0.42765,-0.14357 -0.4354,-0.18592c-0.02579,-0.14091 0.53568,-0.64357 0.71653,-0.68562c0.09188,-0.02136 0.3193,0.28571 0.30825,0.34503c-0.02097,0.11248 -0.29287,0.24076 -0.29287,0.24076z" data-paper-data="{&quot;index&quot;:null}" fill="#804046"/><path d="M239.59695,168.49829c0.01684,0.09201 -0.03912,0.17934 -0.12501,0.19506c-0.08588,0.01572 -0.16915,-0.04613 -0.18599,-0.13815c-0.01684,-0.09201 0.03912,-0.17934 0.12501,-0.19506c0.08588,-0.01572 0.16915,0.04613 0.18599,0.13815z" fill="#671829"/></g><path d="M238.77807,175.91521c0.1678,0.2745 -0.40471,0.93014 -0.92348,1.24725c-0.55476,0.33911 -1.11293,0.39753 -1.41942,-0.04948c-0.21475,-0.3132 0.11952,-0.44417 0.51409,-0.55324c0.16857,-0.0466 0.34813,-0.0892 0.5006,-0.1403c0.57487,-0.19267 1.16043,-0.77872 1.32822,-0.50422z" data-paper-data="{&quot;index&quot;:null}" fill="url(#color-1)" stroke="none" stroke-width="0" stroke-linecap="butt"/><path d="M241.30324,173.86204c-0.1678,-0.2745 0.34556,-0.21954 0.55629,-0.5071c0.05589,-0.07627 0.19864,-0.18381 0.25357,-0.27383c0.12858,-0.21071 0.1656,-0.68175 0.35393,-0.3524c0.26878,0.47005 0.13444,1.02248 -0.17512,1.21171c-0.28947,0.17695 -0.82087,0.1961 -0.98866,-0.0784z" data-paper-data="{&quot;index&quot;:null}" fill="url(#color-2)" stroke="none" stroke-width="0" stroke-linecap="butt"/><path d="M238.23688,175.00879c0.41911,1.43345 1.40857,2.91022 1.02998,3.76299c-0.37859,0.85278 -1.51158,-0.03132 -2.18141,-1.16939c-0.4232,-0.71937 -2.33907,-4.16202 -2.45207,-4.96799c-0.07402,-0.52964 0.58937,-0.98176 1.07166,-1.23572c0.37291,-0.19731 1.00529,-0.31773 1.22819,0.02518c0.674,1.03731 0.88452,2.1515 1.30364,3.58494z" fill="#c27e34" stroke="none" stroke-width="0.17188" stroke-linecap="butt"/><g data-paper-data="{&quot;index&quot;:null}" stroke="none" stroke-width="0.17188" stroke-linecap="butt"><path d="M234.70262,170.85703c-0.09286,0.47012 -0.42457,0.49363 -0.59692,0.43779c-0.84123,-0.30379 -1.67324,-1.14943 -1.98244,-1.94821c0.03379,0.16993 -0.1081,-0.82604 0.67325,-1.08144c0.33176,-0.12657 0.858,-0.53125 1.37599,-0.77088l0.55921,-0.08174c0.25694,-0.03769 0.52954,0.27745 0.51737,0.58064c-0.00176,0.04484 0.15156,-0.13345 0.31261,-0.06292c0.28985,0.12701 0.66169,0.54062 0.60013,0.82505c-0.05373,0.24947 0.10661,0.62142 -0.09507,0.91428c-0.272,0.39488 -0.13766,0.02368 -0.44796,0.24077c-0.18447,0.12892 -0.91395,0.93601 -0.91616,0.94661z" fill="#ffcfea"/><path d="M236.58802,171.66077c-0.25242,0.26539 -0.37072,0.32125 -0.78374,0.48833c-0.41303,0.16708 -0.83814,0.41737 -1.09219,0.26868c-0.35843,-0.33485 -0.24523,-0.39386 -0.37888,-0.75562c-0.13365,-0.36174 -0.23584,-0.95557 -0.23584,-0.95557c0.02236,-0.01921 0.51502,-0.45609 0.85049,-0.64787c0.33549,-0.19179 0.68955,-0.4005 0.9194,-0.33697c0.159,0.04376 0.17606,-0.07845 0.33025,0.25495c0.16372,0.35426 0.48884,0.78035 0.55703,1.17331c0.02954,0.17012 0.08592,0.24536 -0.16649,0.51076z" fill="#fca03b"/></g></g></g></svg>