<svg version="1.1" xmlns="http://www.w3.org/2000/svg" xmlns:xlink="http://www.w3.org/1999/xlink" width="32.54235" height="36.30996" viewBox="0,0,32.54235,36.30996"><defs><radialGradient cx="241.33391" cy="175.45661" r="1.31225" gradientUnits="userSpaceOnUse" id="color-1"><stop offset="0" stop-color="#f5ab87" stop-opacity="0.25098"/><stop offset="1" stop-color="#f5ab87" stop-opacity="0"/></radialGradient><radialGradient cx="236.06405" cy="175.02183" r="0.73225" gradientUnits="userSpaceOnUse" id="color-2"><stop offset="0" stop-color="#f5ab87" stop-opacity="0.25098"/><stop offset="1" stop-color="#f5ab87" stop-opacity="0"/></radialGradient></defs><g transform="translate(-224.50013,-162.48712)"><g data-paper-data="{&quot;isPaintingLayer&quot;:true}" fill-rule="nonzero" stroke-linejoin="miter" stroke-miterlimit="10" stroke-dasharray="" stroke-dashoffset="0" style="mix-blend-mode: normal"><g data-paper-data="{&quot;index&quot;:null}" stroke="none" stroke-width="0" stroke-linecap="butt"><path d="M236.56754,191.85638c0.73781,-1.36146 2.2331,-2.17224 2.2331,-2.17224c0.46672,-0.326 0.95529,-0.45425 1.46212,-0.5125c0.44141,-0.05073 0.89667,-0.04836 1.36339,-0.07725c1.00262,-0.06207 -0.04599,1.09438 -0.04599,1.09438c0,0 -1.54385,1.96711 -2.51333,2.45447c-1.54619,0.77728 -3.18068,1.25881 -3.18068,1.25881c0,0 0.10212,-0.97674 0.6814,-2.04567z" fill="#54c81c"/><path d="M236.58656,194.29398c-0.12628,0.37373 -0.53162,0.5743 -0.90535,0.44802c-0.37371,-0.12629 -0.5743,-0.53162 -0.44802,-0.90535c0.12629,-0.37372 0.53162,-0.57431 0.90535,-0.44803c0.37373,0.12629 0.57431,0.53163 0.44803,0.90536z" fill="#ffffff"/></g><g data-paper-data="{&quot;index&quot;:null}" stroke="none" stroke-width="0" stroke-linecap="butt"><path d="M242.41591,196.02543c-0.39888,-1.49626 0.13099,-3.11258 0.13099,-3.11258c0.1153,-0.5575 0.38228,-0.9863 0.71064,-1.37675c0.28597,-0.34004 0.61847,-0.65101 0.93784,-0.99258c0.68606,-0.73375 0.71825,0.82698 0.71825,0.82698c0,0 0.22906,2.49009 -0.1408,3.5102c-0.58989,1.62694 -1.44707,3.09956 -1.44707,3.09956c0,0 -0.59666,-0.78003 -0.90985,-1.9548z" fill="#54c81c"/><path d="M244.104,197.78404c0.16492,0.35836 0.00808,0.78255 -0.35028,0.94747c-0.35836,0.16491 -0.78255,0.00809 -0.94747,-0.35027c-0.1649,-0.35837 -0.00809,-0.78256 0.35027,-0.94748c0.35837,-0.16492 0.78257,-0.00809 0.94749,0.35027z" fill="#ffffff"/></g><path d="M232.1532,177.17557c0,0 1.61781,-0.12184 3.30648,-0.06577c1.68867,0.05608 4.17663,0.0464 4.17663,0.0464l-0.06235,1.07988c0,0 -2.40522,-0.22435 -3.71424,-0.2899c-1.30902,-0.06555 -3.58018,0.1906 -3.58018,0.1906z" data-paper-data="{&quot;index&quot;:null}" fill="#fba15d" stroke="none" stroke-width="0" stroke-linecap="butt"/><path d="M232.25022,177.88051c0,0 1.81925,-0.17133 3.51162,-0.10888c1.69237,0.06246 3.86085,0.09523 3.86085,0.09523l0.33003,0.99393c0,0 -2.38883,0.23414 -3.84814,0.25651c-1.45932,0.02237 -3.74853,0.07747 -3.74853,0.07747z" data-paper-data="{&quot;index&quot;:null}" fill="#fba15d" stroke="none" stroke-width="0" stroke-linecap="butt"/><path d="M246.56686,186.87221c0,0 -1.49586,4.06442 -1.63581,5.18026c-0.11505,0.91725 -0.09171,2.34515 -0.33634,2.89541c-0.24462,0.55027 -0.81679,1.07909 -1.11536,0.32783c-0.23472,-0.59059 0.26934,-3.14149 0.26934,-3.14149c0,0 1.13549,-4.31265 1.10697,-4.96001c-0.0269,-2.04439 -3.58965,-5.36462 -3.58965,-5.36462l1.39463,-0.75368z" data-paper-data="{&quot;index&quot;:null}" fill="#ffffff" stroke="none" stroke-width="0" stroke-linecap="butt"/><path d="M244.47054,188.52771c0,0 -2.93345,1.74434 -3.96942,2.47029c-0.70082,0.49108 -1.78984,1.3216 -1.78984,1.3216c-0.3233,0.15867 -1.55269,0.22051 -1.1588,-0.48545c0.30964,-0.55498 2.23581,-1.90112 2.23581,-1.90112c0,0 2.81593,-1.56017 3.29982,-1.99115c1.56806,-1.31208 -3.11404,-5.19074 -3.11404,-5.19074l1.9524,-0.21325c0,0 2.0508,2.8156 2.36783,3.56204c0.46954,1.1055 0.17624,2.42779 0.17624,2.42779z" data-paper-data="{&quot;index&quot;:null}" fill="#ffffff" stroke="none" stroke-width="0" stroke-linecap="butt"/><g data-paper-data="{&quot;index&quot;:null}" stroke="none" stroke-width="0" stroke-linecap="butt"><path d="M227.94223,185.07329c-1.17072,0.19117 -2.93012,0.13143 -2.93012,0.13143c0,0 0.65128,-3.13959 5.67396,-4.38379c0.95098,-0.23557 -2.44504,1.76399 -1.95238,2.80558c0.4926,1.04145 5.11912,1.68885 5.11912,1.68885c0,0 -4.73985,-0.43325 -5.91058,-0.24208z" fill="#54c81c"/><path d="M242.22827,180.22479c0,0 -5.91388,4.58797 -8.30644,4.95556c-2.20886,0.33937 -6.77319,-1.19993 -6.17778,-2.24089c0.81666,-1.42777 3.99877,-2.91476 7.39696,-2.79615c2.80448,0.09788 7.08727,0.08149 7.08727,0.08149z" fill="#ffffff"/></g><g data-paper-data="{&quot;index&quot;:null}" stroke="none" stroke-width="0" stroke-linecap="butt"><path d="M245.75683,184.00892c0,0 5.97971,-1.32354 6.23318,-1.42007c0.25347,-0.09653 3.16418,2.20024 3.8189,2.87911c0.65472,0.67886 1.23357,2.35969 1.23357,2.35969c0,0 -1.82446,-0.73763 -3.09174,-1.09937c-1.26728,-0.36174 -2.70729,-0.39384 -3.87782,-0.80687c-2.12356,-0.74932 -4.31608,-1.91249 -4.31608,-1.91249z" fill="#54c81c"/><path d="M254.46539,185.06547c0,0 -2.78295,1.38569 -7.05897,-0.30057c-5.94081,-2.34278 -6.46723,-5.24671 -6.46723,-5.24671c0,0 -0.36041,-0.38715 1.67217,0.47547c0.69906,0.29668 2.05457,-0.31234 5.73368,0.80731c4.70723,1.43255 6.12035,4.2645 6.12035,4.2645z" fill="#ffffff"/></g><g data-paper-data="{&quot;index&quot;:null}" stroke="none" stroke-width="0" stroke-linecap="butt"><path d="M251.66665,188.90809c0.70551,2.51891 0.14125,5.07176 0.14125,5.07176c0,0 -2.30836,-1.36714 -3.55321,-2.43716c-1.24485,-1.07001 -5.15373,-3.48623 -5.15373,-3.48623l6.01919,-3.13496c0,0 2.01316,2.08235 2.5465,3.98658z" fill="#54c81c"/><path d="M249.12016,184.92149c0.76657,0.80672 2.89677,2.99794 1.36968,4.44873c-1.52709,1.45079 -6.8691,-0.26747 -8.72352,-2.56178c-1.98222,-2.45244 -2.64883,-7.11552 -2.64883,-7.11552l1.18981,-0.45615c0,0 0.70111,1.60017 3.41374,2.27394c3.97731,0.98791 4.63835,2.61014 5.39913,3.41078z" fill="#ffffff"/></g><path d="M234.61011,172.21304c0.01941,-0.11377 0.35233,-3.5869 4.18509,-3.63544c4.01427,-0.05085 4.51143,3.50312 4.61343,3.61456c0.12489,0.23762 0.10126,0.52229 0.11732,0.78251c0.00859,0.94975 -0.07743,1.89683 -0.15456,2.84309c-0.01022,0.38992 -0.24651,0.73044 -0.53374,0.97644c-0.31249,0.2591 -0.73442,0.31382 -1.11228,0.42736c-0.59,0.15435 -1.19861,0.22666 -1.80763,0.19935c-0.75038,0.00605 -1.69787,-0.09011 -2.35436,-0.52524c-0.44833,-0.20488 -0.37867,-0.19395 -0.84173,-0.37929c-0.9253,-0.51789 -1.57166,-1.44062 -1.88988,-2.43906c-0.19527,-0.59684 -0.29265,-1.23747 -0.22166,-1.86429z" data-paper-data="{&quot;index&quot;:null}" fill="#f0e9bb" stroke="none" stroke-width="0.17188" stroke-linecap="butt"/><path d="M234.98436,167.79562c0.55492,0.43033 -1.47468,3.36445 -1.1536,2.87623c-0.59889,-0.36967 -1.05316,-1.08916 -1.1892,-1.64663c-0.01248,-0.05104 0.04818,-0.192 0.04818,-0.192c-0.09144,0.02342 0.02946,-0.08827 0.03877,-0.18422c0.00727,-0.07548 -0.07313,-0.23526 -0.07313,-0.23526c-0.04193,0.02986 0.17942,-0.09125 0.26063,-0.17042c0.06712,-0.06536 0.03622,-0.10741 0.09176,-0.14781c0.38973,-0.28496 1.05398,-0.4295 1.97662,-0.2999z" data-paper-data="{&quot;index&quot;:null}" fill="#ed3e67" stroke="none" stroke-width="0.17188" stroke-linecap="butt"/><path d="M235.99697,172.45016c0.60616,0.20764 0.80532,0.55337 0.88745,1.10205c0.13052,0.29848 0.0266,1.4395 -0.18074,1.43449c-0.21061,-0.03294 -0.45723,-0.07261 -0.71039,-0.12755c-0.39524,-0.08573 -0.50141,-0.18913 -0.46418,-0.27076c0.02567,-0.05636 -0.0445,-0.22565 -0.07917,-0.3932c-0.03529,-0.17062 -0.03528,-0.34144 -0.03743,-0.62631c-0.00193,-0.26421 0.0396,-0.55522 0.10168,-0.75089c0.08878,-0.27904 0.23453,-0.40844 0.48279,-0.36783z" data-paper-data="{&quot;index&quot;:null}" fill="#ffffff" stroke="none" stroke-width="0.17188" stroke-linecap="butt"/><path d="M236.64497,172.69303c-0.41598,-0.42365 -0.5583,-0.4713 -0.86131,-0.20713c-0.22698,0.17767 -0.383,0.79509 -0.39571,1.21444c-0.01699,0.56033 0.12964,0.98414 0.12964,0.98414c0,0 -0.12404,-0.12706 -0.22168,-0.41893c-0.09763,-0.29187 0.0206,-0.63787 -0.1514,-0.75489c-0.18013,-0.12255 -1.02375,-0.25868 -1.02375,-0.25868c0,0 1.18552,-0.00044 1.18793,-0.07506c0.01044,-0.32358 0.20923,-0.65476 0.32553,-0.75955c0.20913,-0.18845 0.33615,-0.26181 0.61027,-0.18982c0.19654,0.05162 0.31465,0.16919 0.52276,0.38144c0.67457,0.688 0.05779,2.33696 0.05779,2.33696c0,0 0.39068,-1.80504 -0.18008,-2.25292z" data-paper-data="{&quot;index&quot;:null}" fill="#000000" stroke="none" stroke-width="0" stroke-linecap="butt"/><path d="M243.24465,172.06156c-0.05442,-0.09135 -0.16571,-0.14669 -0.32742,-0.24017c-0.12152,-0.07037 -0.3574,-0.20754 -0.43473,-0.27925c-0.19414,-0.18003 -1.01285,-0.15211 -0.96437,-0.07437c-0.06312,0.11711 0.00613,-0.31658 -1.07321,0.6976l-1.1491,1.08026c-0.10576,0.09933 -0.52524,0.50173 -0.8586,0.61762c-0.35831,0.12458 -0.88909,0.16958 -0.93696,0.09706c0,0 -0.33439,-0.58816 -0.53374,-0.81196c-0.07579,-0.0851 -0.06771,0.10003 0.00931,0.33755c0.01268,0.03928 0.24753,0.6308 0.23679,0.65699c-0.0582,0.14085 -1.24208,-1.708 -1.30611,-1.80978l-0.39452,-0.62857c-0.13318,-0.21194 -0.34389,-0.10351 -0.43268,-0.12632c-0.13338,-0.03437 -0.21429,0.07374 -0.22319,0.20652c-0.01146,0.16796 -0.02128,0.86218 -0.03365,0.96365c-0.06505,0.53742 0.22666,1.26409 0.37345,2.02725c0.08592,0.44637 1.89243,2.04002 1.66249,1.71649c-0.10372,-0.14607 -0.10986,1.0463 -0.41529,1.20004c-0.21797,0.10996 -1.28779,-1.78186 -1.39929,-2.18569l-0.63726,-2.30588c-0.18678,-0.6752 0.14801,-2.5846 0.2459,-2.93157l0.19117,-0.67786c0.35207,-0.80142 0.85389,-1.5155 1.52859,-2.12871c0.04296,-0.03907 0.66671,-0.75078 1.77592,-1.12485c0.70047,-0.23628 1.87187,-0.27505 1.96383,-0.27628c0.53926,-0.00716 1.59149,-0.03795 2.5528,0.17287c0.61148,0.13409 1.15617,0.43809 1.60531,0.67561c0.08072,0.04256 -0.78833,1.09152 -0.71079,1.12824c0.03765,0.01769 -0.19894,1.00406 -0.18984,1.09806l0.06066,0.62774c0.06137,0.63459 0.63889,1.28443 0.74302,1.36861c0.14248,0.11538 0.63387,0.46582 0.79845,0.47012l0.55471,0.01503c0.076,0.00184 0.73913,-0.47859 0.79171,-0.43185c0.18524,0.16478 0.09318,1.12464 0.05554,1.31337l-0.19792,0.99332c-0.06382,0.31995 -0.08059,0.50038 -0.28169,0.94074c-0.27567,0.60432 -0.554,1.2077 -0.9877,1.75935c-0.35043,0.44587 -2.04422,1.70473 -2.01231,1.54455l0.26963,-1.36258l0.23118,-1.92547l-0.15006,-2.38751z" data-paper-data="{&quot;index&quot;:null}" fill="#54c81c" stroke="none" stroke-width="0.17188" stroke-linecap="butt"/><path d="M247.29169,170.48812c-1.03361,0.35321 -2.37571,-1.80898 -2.37571,-1.80898c0,-0.39013 0.95421,-1.18725 2.04092,-1.07729c0.83058,0.08419 1.37343,0.3623 1.64562,0.70845c0.03886,0.04941 0.00224,0.08111 0.04531,0.15579c0.05226,0.09022 0.21623,0.24969 0.18677,0.21307c0,0 -0.10689,0.12868 -0.11803,0.19926c-0.01422,0.08981 0.06506,0.21869 -0.0089,0.17716c0,0 0.02005,0.14239 -0.00266,0.18637c-0.24723,0.48055 -0.80807,1.03925 -1.41331,1.24618z" data-paper-data="{&quot;index&quot;:null}" fill="#ed3e67" stroke="none" stroke-width="0.17188" stroke-linecap="butt"/><path d="M244.12085,169.37543c0.09902,0.06894 -0.00194,-0.52607 0.13185,-1.10676c0.14279,-0.62008 0.53312,-1.23176 1.06686,-1.26203c0.3082,-0.01739 0.58437,0.0809 0.84439,0.15527c0.5364,0.15333 0.91333,0.37152 0.72502,0.44414c-0.31955,0.12335 -0.72962,0.3532 -1.00365,0.54693c-0.39084,0.27618 -0.64207,0.4877 -0.62294,0.50898l1.23053,1.368l0.83016,0.48649c0.13798,0.0714 -0.23066,0.31014 -0.64697,0.48188c-0.35934,0.14842 -0.60933,0.37101 -0.73556,0.40926c-0.56207,0.17123 -0.48842,-0.09073 -1.14634,-0.44649c-0.38255,-0.20692 -0.82208,-1.68958 -0.67335,-1.58566z" data-paper-data="{&quot;index&quot;:null}" fill="#54c81c" stroke="none" stroke-width="0.17188" stroke-linecap="butt"/><path d="M243.35043,169.33903c0.02925,-1.3277 0.56811,-2.83726 1.47663,-2.40479c0.38102,0.18126 -0.20458,0.43289 -0.49661,1.21774c-0.18585,0.49948 -0.21858,1.26602 0.08317,2.20339c0.03181,0.0983 0.19711,0.29008 0.42337,0.53834c0.34666,0.38061 1.77112,0.17163 1.54997,0.30379l-0.86382,0.51584l-0.61046,-0.112c-0.38829,0.02751 -1.58893,-1.04743 -1.56224,-2.26231z" data-paper-data="{&quot;index&quot;:null}" fill="#ead32e" stroke="none" stroke-width="0.17188" stroke-linecap="butt"/><path d="M234.95228,169.37944c-0.04347,-0.13431 0.08419,-0.35464 0.08071,-0.47534c-0.00808,-0.27905 0.18933,-0.96049 0.6884,-1.42938l0.28385,-0.26656c0.13972,-0.13133 0.65137,-0.26564 0.751,-0.20181c0.11958,0.15783 -0.50397,0.4965 -0.91773,1.0596c-0.19834,0.26994 -0.47912,0.61997 -0.47912,0.61997c-0.07958,0.27516 -0.40711,0.69352 -0.40711,0.69352z" data-paper-data="{&quot;index&quot;:null}" fill="#ead32e" stroke="none" stroke-width="0.17188" stroke-linecap="butt"/><path d="M235.2047,168.60447c-0.05994,0.14187 -0.27607,0.84122 -0.3713,1.18623l-0.37541,1.35971c-0.02761,0.10004 -0.78658,-0.46081 -0.73258,-0.76583c-0.13277,-0.34574 -0.02148,-0.64247 0.02281,-0.9524c0.1475,-0.33898 0.42511,-0.79978 0.61066,-0.98636c0.14945,-0.15026 -0.02618,-0.62795 0.10229,-0.82587c0.19323,-0.29807 1.27083,-0.26483 1.27083,-0.26483z" data-paper-data="{&quot;index&quot;:null}" fill="#54c81c" stroke="none" stroke-width="0.17188" stroke-linecap="butt"/><path d="M240.67985,176.71893h0.86877" data-paper-data="{&quot;index&quot;:null}" fill="none" stroke="#dfcfa3" stroke-width="0.36953" stroke-linecap="round"/><path d="M235.22264,183.08209c0,0 2.66733,-2.76607 3.70404,-1.88403c1.03671,0.88204 1.92427,0.4692 1.91515,1.84685c-0.00913,1.37765 -1.9486,3.20389 -1.9486,3.20389c0,0 -2.30531,1.67291 -3.12838,-0.29297c-0.87663,-2.24384 -0.73186,-2.72829 -0.5422,-2.87373z" data-paper-data="{&quot;index&quot;:null}" fill="#ffffff" stroke="none" stroke-width="0" stroke-linecap="butt"/><path d="M239.76763,185.30343c0,0 -0.65816,1.38365 -2.49604,1.88004c-2.21226,0.5975 -1.2942,1.58011 -1.2942,1.58011c0,0 -0.5889,-0.86821 -1.11605,-1.64144c-0.32567,-0.47769 -1.2502,-0.86453 -0.90033,-1.61258c1.58229,-3.3941 1.5607,-2.28684 1.5607,-2.28684c0,0 -0.43561,1.04558 0.2768,2.30637c0.70201,1.24239 3.30244,0.441 3.30244,0.441z" data-paper-data="{&quot;index&quot;:null}" fill="#54c81c" stroke="none" stroke-width="0" stroke-linecap="butt"/><path d="M240.85918,176.71892h0.86877" data-paper-data="{&quot;index&quot;:null}" fill="none" stroke="#dfcfa3" stroke-width="0.36953" stroke-linecap="round"/><g data-paper-data="{&quot;index&quot;:null}" stroke="none" stroke-linecap="butt"><path d="M235.99899,175.12466c-0.25026,0 -0.45314,-0.42916 -0.45314,-0.95856c0,-0.5294 0.20288,-0.95856 0.45314,-0.95856c0.25026,0 0.45314,0.42916 0.45314,0.95856c0,0.5294 -0.20288,0.95856 -0.45314,0.95856z" fill="#008ae6" stroke-width="0"/><path d="M236.00369,173.34055c0.07882,0.00751 0.14831,0.09815 0.19679,0.23878c0.04832,0.14064 0.07575,0.33112 0.07057,0.5381c-0.00505,0.20684 -0.04175,0.39133 -0.097,0.52226c-0.0551,0.1309 -0.1288,0.20825 -0.20772,0.20089c-0.07892,-0.00734 -0.14829,-0.09815 -0.19677,-0.23877c-0.04835,-0.14064 -0.07579,-0.33112 -0.07075,-0.53808c0.0052,-0.20685 0.04188,-0.39135 0.09713,-0.52227c0.05512,-0.13091 0.1288,-0.20826 0.20772,-0.2009z" fill="#000000" stroke-width="0.0278"/><path d="M236.14808,173.57847c0.04207,0.09778 0.067,0.23122 0.06483,0.37734c-0.00203,0.14592 -0.0307,0.27689 -0.0755,0.37069c-0.04461,0.09378 -0.10533,0.15045 -0.17136,0.1474c-0.066,-0.00305 -0.12505,-0.06522 -0.16694,-0.16303c-0.04207,-0.09778 -0.067,-0.23123 -0.06482,-0.37735c0.00203,-0.14592 0.03069,-0.27689 0.07549,-0.37069c0.04461,-0.09377 0.10533,-0.15044 0.17136,-0.14739c0.066,0.00306 0.12505,0.06521 0.16695,0.16302z" fill="#ffffff" stroke-width="0.01811"/></g><path d="M236.87319,174.96625c0,0 -0.13578,0.53333 -0.55,0.53333c-0.41422,0 -0.81666,-0.8 -0.81666,-0.8l0.45,0.13333z" data-paper-data="{&quot;index&quot;:null}" fill="#f0e9bb" stroke="none" stroke-width="0" stroke-linecap="butt"/><path d="M234.09689,173.25223l0.66667,-0.02564l0.10256,0.15385z" data-paper-data="{&quot;index&quot;:null}" fill="#000000" stroke="none" stroke-width="0" stroke-linecap="butt"/><path d="M240.09863,173.31502c0.35637,-0.51369 0.6619,-0.65129 1.01899,-0.65129c0.50009,0 0.79537,0.76866 0.81319,1.38581c0.02,0.6926 -0.32037,1.01971 -0.32037,1.01971c0,0 -0.44393,0.13011 -0.93532,0.15374c-0.31485,0.01504 -0.66508,-0.01872 -0.92479,-0.01872c-0.25019,-0.027 0.26074,-1.76302 0.3483,-1.88925z" data-paper-data="{&quot;index&quot;:null}" fill="#ffffff" stroke="none" stroke-width="0.17188" stroke-linecap="butt"/><g data-paper-data="{&quot;index&quot;:null}" stroke="none" stroke-linecap="butt"><path d="M240.24898,175.45799c-0.25025,0 -0.45313,-0.42916 -0.45313,-0.95856c0,-0.5294 0.20288,-0.95856 0.45313,-0.95856c0.25025,0 0.45313,0.42916 0.45313,0.95856c0,0.5294 -0.20288,0.95856 -0.45313,0.95856z" fill="#008ae6" stroke-width="0"/><path d="M240.25369,173.67389c0.07883,0.00751 0.14831,0.09815 0.19679,0.23877c0.04832,0.14064 0.07575,0.33112 0.07057,0.53811c-0.00505,0.20684 -0.04175,0.39133 -0.097,0.52225c-0.05511,0.13089 -0.1288,0.20825 -0.20772,0.20089c-0.07892,-0.00735 -0.14829,-0.09815 -0.19677,-0.23877c-0.04835,-0.14064 -0.07579,-0.33112 -0.07075,-0.53808c0.0052,-0.20685 0.04188,-0.39135 0.09713,-0.52227c0.05512,-0.13091 0.1288,-0.20827 0.20772,-0.20091z" fill="#000000" stroke-width="0.0278"/><path d="M240.39808,173.91181c0.04207,0.09779 0.067,0.23123 0.06483,0.37735c-0.00203,0.14592 -0.03069,0.27689 -0.07549,0.37069c-0.04461,0.09379 -0.10533,0.15045 -0.17136,0.1474c-0.066,-0.00305 -0.12505,-0.06523 -0.16695,-0.16303c-0.04207,-0.09779 -0.067,-0.23123 -0.06483,-0.37735c0.00203,-0.14592 0.03069,-0.27689 0.07549,-0.37069c0.04461,-0.09377 0.10533,-0.15044 0.17136,-0.14739c0.066,0.00307 0.12505,0.06521 0.16695,0.16301z" fill="#ffffff" stroke-width="0.01811"/></g><path d="M241.17461,175.22849c0,0 -0.03262,0.54938 -0.43938,0.6276c-0.40676,0.07823 -0.95305,-0.63138 -0.95305,-0.63138l0.46708,0.04595z" data-paper-data="{&quot;index&quot;:null}" fill="#f0e9bb" stroke="none" stroke-width="0" stroke-linecap="butt"/><path d="M239.63802,175.16232c0,0 -0.0558,-1.42945 0.61877,-2.11745c0.20811,-0.21225 0.375,-0.3786 0.57155,-0.43023c0.27411,-0.07199 0.4987,0.00137 0.70783,0.18982c0.1163,0.10479 0.31509,0.43598 0.32552,0.75955c0.00241,0.07462 1.18793,0.07506 1.18793,0.07506c0,0 -0.84362,0.13614 -1.02374,0.25869c-0.172,0.11702 -0.05377,0.46302 -0.1514,0.75489c-0.09763,0.29187 -0.22167,0.41893 -0.22167,0.41893c0,0 0.14663,-0.42381 0.12964,-0.98414c-0.01271,-0.41935 -0.16873,-1.03677 -0.39571,-1.21444c-0.30301,-0.26416 -0.61607,-0.19212 -1.03205,0.23153c-0.57075,0.44788 -0.71667,2.05779 -0.71667,2.05779z" data-paper-data="{&quot;index&quot;:null}" fill="#000000" stroke="none" stroke-width="0" stroke-linecap="butt"/><path d="M244.1765,167.22234c0,0 -3.01523,0.1993 -4.40144,0.23966c-1.2877,0.03749 -3.52581,0.80848 -3.52581,0.80848c0,0 0.07406,-0.5436 -1.19588,-1.26258c-1.26994,-0.71899 -1.22006,-0.92244 -3.50723,-1.36832c-2.28718,-0.44588 -6.21393,-0.21305 -6.21393,-0.21305c0,0 3.36266,-2.17526 6.09993,-2.69407c2.73726,-0.51881 6.40697,-0.09439 7.12765,0.17337c0.73935,0.2747 3.13998,1.70907 3.99699,2.59968c1.04038,1.08117 1.61972,1.71683 1.61972,1.71683z" data-paper-data="{&quot;index&quot;:null}" fill="#c27e34" stroke="none" stroke-width="0" stroke-linecap="butt"/><g data-paper-data="{&quot;index&quot;:null}" stroke-width="0" stroke-linecap="butt"><path d="M224.62607,166.127c-0.24867,-0.41024 -0.11771,-0.9444 0.29255,-1.19307c0.41024,-0.24866 0.94441,-0.11769 1.19308,0.29257c0.24867,0.41024 0.11771,0.9444 -0.29255,1.19307c-0.41023,0.24866 -0.94441,0.11769 -1.19308,-0.29257z" fill="#db7b04" stroke="none"/><path d="M224.90007,164.84406c0.23929,-0.14505 0.46064,0.29508 0.70117,0.69186c0.24051,0.39678 0.43966,0.81675 0.22496,0.9469c-0.14096,0.08544 -0.28453,-0.36822 -0.52506,-0.765c-0.24052,-0.39679 -0.54202,-0.78833 -0.40106,-0.87378z" fill="#feeb00" stroke="#000000"/><path d="M224.66098,166.04827c0.1549,-0.09392 0.52486,-0.26591 0.57183,-0.18846c0.04697,0.07745 0.21568,0.1955 0.06076,0.28939c-0.1549,0.0939 -0.54497,0.17727 -0.59193,0.09981c-0.04696,-0.07745 -0.19557,-0.10685 -0.04065,-0.20075z" fill="#000000" stroke="none"/><path d="M224.88371,165.29737c0.0247,0.04073 -0.04335,0.12711 -0.15194,0.19294c-0.1086,0.06583 -0.19208,0.07129 -0.21676,0.03056c-0.02468,-0.04073 0.13646,-0.25077 0.24505,-0.3166c0.10859,-0.06583 0.09896,0.05236 0.12365,0.09309z" fill="#000000" stroke="none"/></g><path d="M240.02165,175.41057c0,-0.32172 0.80526,-0.12708 1.39624,-0.26252c0.15674,-0.03592 0.33217,-0.09323 0.5003,-0.14139c0.39354,-0.11273 0.74705,-0.17532 0.72717,0.20391c-0.02836,0.54124 -0.53507,0.78252 -1.18527,0.78252c-0.60801,0 -1.43843,-0.26081 -1.43843,-0.58253z" data-paper-data="{&quot;index&quot;:null}" fill="url(#color-1)" stroke="none" stroke-width="0" stroke-linecap="butt"/><path d="M236.7963,174.97577c0,0.32172 -0.46339,0.58253 -0.80266,0.58253c-0.36282,0 -0.76556,-0.40128 -0.78139,-0.94252c-0.01109,-0.37923 0.26617,0.00336 0.48577,0.11608c0.09382,0.04816 0.27171,0.06547 0.35917,0.10139c0.32977,0.13544 0.73911,-0.17919 0.73911,0.14253z" data-paper-data="{&quot;index&quot;:null}" fill="url(#color-2)" stroke="none" stroke-width="0" stroke-linecap="butt"/><g data-paper-data="{&quot;index&quot;:null}" stroke="none" stroke-linecap="butt"><path d="M238.3129,183.5739c-0.19791,0.3216 -0.78434,0.22486 -1.13302,0.05127c-0.45095,-0.22341 -1.07355,-0.62557 -1.0173,-1.1161c0.08591,-0.74649 1.69979,-4.05481 2.07398,-4.72843c0.46285,-0.83285 1.72624,-0.05615 1.80662,-0.07431c0.36777,-0.08316 0.02256,0.39488 -0.084,1.33537c-0.1533,1.14877 -1.04785,3.55943 -1.64627,4.5322z" data-paper-data="{&quot;index&quot;:null}" fill="#c27e34" stroke-width="0.17188"/><g data-paper-data="{&quot;index&quot;:null}" stroke-width="0.17188"><path d="M236.1957,184.10767c0.00396,0.00993 0.72458,0.76891 0.93386,0.8689c0.35204,0.16845 0.3097,-0.24858 0.65116,0.09658c0.25322,0.25597 0.14917,0.63622 0.24425,0.86992c0.10868,0.26639 -0.20471,0.71488 -0.48051,0.87587c-0.15322,0.08942 -0.3386,-0.06239 -0.32959,-0.01934c0.06122,0.29106 -0.16664,0.63133 -0.43528,0.629l-0.5846,-0.00487c-0.56787,-0.16271 -1.17074,-0.48364 -1.53013,-0.56189c-0.83956,-0.14307 -0.85479,-1.12322 -0.86198,-0.95471c0.18745,-0.81198 0.90164,-1.73841 1.71243,-2.143c0.16712,-0.07671 0.50988,-0.09798 0.6804,0.34351z" fill="#ffcfea"/><path d="M237.43673,182.39123c0.38375,0.11735 0.90721,0.492 0.97078,0.68754c0.04165,0.12858 -0.02354,0.53179 -0.21705,0.99246c-0.19352,0.46068 -0.50142,1.02475 -0.65688,1.08805c-0.22466,0.09174 -0.31699,0.06786 -0.61551,-0.16386c-0.29853,-0.23173 -0.39904,-0.15816 -0.75774,-0.41143c-0.35872,-0.25329 -0.67096,-0.19023 -0.63028,-0.55406c0.05588,-0.49956 0.42369,-1.5078 0.8501,-1.86777c0.23567,-0.17717 0.67283,0.11171 1.05659,0.22907z" fill="#fca03b"/></g><path d="M239.05797,180.81858c-0.27611,-0.24282 0.10645,-1.72855 0.03494,-1.91073c-0.06799,-0.17235 0.29242,-1.16811 0.36888,-1.27888c0.29791,-0.43074 1.01025,-0.32006 1.1825,-0.32006c0.13636,0 0.78202,0.04613 0.88289,0.13011c0.32701,0.27241 0.41234,0.9786 0.40047,1.69625c-0.00403,0.82076 0.59032,1.28914 0.2496,1.67068c-0.40974,0.34297 -3.11928,0.01263 -3.11928,0.01263z" data-paper-data="{&quot;index&quot;:null}" fill="#c27e34" stroke-width="0.17188"/><path d="M241.9678,179.01072c-0.76112,-0.67362 -1.66182,-1.48666 -1.31251,-1.68912c0.34934,-0.2026 2.15041,1.0218 3.38395,1.44031c0.77955,0.26466 1.13249,2.00893 0.08271,2.34288c-0.97093,0.30886 -1.24619,-0.50241 -1.44019,0.00583c-0.14939,0.39368 0.32495,-1.83741 -0.06238,-1.94968c0,0 0.29632,0.65565 -0.65157,-0.15022z" data-paper-data="{&quot;index&quot;:null}" fill="#c27e34" stroke-width="0.17188"/><path d="M237.86179,177.75704c0,-0.51334 1.17861,-0.44414 2.3646,-0.44414c1.186,0 2.16052,-0.46559 2.16052,0.04775c0,0.09149 0.05779,0.14811 -0.18415,0.3482c-0.13449,0.11122 0.38174,0.1634 0.19684,0.28743c-0.41662,0.27946 -1.69529,0.07931 -2.22423,0.07931c-0.438,0 -1.88844,0.36799 -2.21704,0.13437c-0.19722,-0.14022 0.45234,-0.13297 0.3122,-0.24058c-0.2586,-0.19856 -0.40873,-0.13346 -0.40873,-0.21233z" data-paper-data="{&quot;index&quot;:null}" fill="#ffe340" stroke-width="0"/><path d="M239.18315,177.34591c0,-0.07045 0.28665,0.05651 1.08552,-0.02551c0.49694,-0.05102 1.10443,-0.12807 1.10443,-0.05762c0,0.07044 -1.89317,0.38071 -2.16581,0.3909c-0.27265,0.01019 -0.02415,-0.23732 -0.02415,-0.30777z" data-paper-data="{&quot;index&quot;:null}" fill="#000000" stroke-width="0"/></g><path d="M241.18603,180.55163c0.30698,0.36022 0.12503,0.65147 -0.02202,0.76188c-0.74193,0.52021 -1.89669,0.70692 -2.69993,0.48501c0.15159,0.07394 -0.70297,-0.40629 -0.4289,-1.21264c0.10237,-0.35328 0.10733,-1.03624 0.23474,-1.61306l0.27416,-0.51635c0.1259,-0.23731 0.53363,-0.2756 0.76039,-0.08314c0.03356,0.02844 -0.01163,-0.20687 0.13998,-0.29901c0.27291,-0.16583 0.81654,-0.22779 0.999,-0.00534c0.16019,0.19491 0.54411,0.28453 0.64857,0.62911c0.14085,0.46464 -0.20567,0.22878 -0.22523,0.61856c-0.01176,0.23165 0.31237,1.22678 0.31922,1.23499z" data-paper-data="{&quot;index&quot;:null}" fill="#ffcfea" stroke="none" stroke-width="0.17188" stroke-linecap="butt"/><path d="M242.98454,181.31611c-0.51961,0.20348 -1.58132,0.04667 -2.04719,-0.14214c-0.33928,-0.13752 -0.13513,-0.38205 -0.18698,-0.8181c-0.05185,-0.43604 0.06072,-0.48937 -0.00085,-0.86223c-0.06156,-0.37286 -0.0386,-0.46542 0.14908,-0.61926c0.1297,-0.10655 0.77233,-0.10862 1.26957,-0.05935c0.49724,0.04927 0.88282,0.184 0.97604,0.28186c0.14167,0.14903 0.22177,0.78775 0.14217,1.18107c-0.0796,0.39333 -0.03381,0.91532 -0.30184,1.03815z" data-paper-data="{&quot;index&quot;:null}" fill="#fca03b" stroke="none" stroke-width="0.17188" stroke-linecap="butt"/><g data-paper-data="{&quot;index&quot;:null}" stroke="none" stroke-width="0" stroke-linecap="butt"><path d="M235.68476,170.84183c-0.04015,-0.12491 -0.17354,-0.51917 -0.14596,-0.69155c0.03614,-0.22583 0.20605,-0.45055 0.256,-0.46661c0.04528,-0.01455 0.11765,0.22358 0.10373,0.45016c-0.00919,0.14973 -0.12008,0.26154 -0.07249,0.40957c0.053,0.16491 0.47073,0.4961 0.59084,0.69047c0.04666,0.07551 0.01107,0.37685 -0.08623,0.61715c-0.10286,0.25401 -0.26912,0.44545 -0.26912,0.44545l-0.47453,-0.11067l0.70783,-0.6911c0,0 -0.0967,-0.06097 -0.23674,-0.19704c-0.15059,-0.14631 -0.34613,-0.37124 -0.37333,-0.45584z" fill="#671829"/><path d="M235.94992,170.09242c-0.04071,-0.12666 -0.0567,-0.42456 0.05016,-0.45891c0.10687,-0.03435 0.35549,-0.001 0.39621,0.12566c0.0093,0.02892 -0.19788,1.11362 0.32317,1.13916c0.2521,0.01236 0.3281,-0.7039 0.3281,-0.7039l0.24353,0.25757c0,0 -0.22171,0.59726 -0.61136,0.53777c-0.56312,-0.08598 -0.70868,-0.83168 -0.7298,-0.89736z" fill="#671829"/><path d="M236.63056,169.09721c0,0 0.05431,0.11268 -0.11996,0.16869c-0.04058,0.01304 0.20327,-0.06561 0.31693,0.03216c0.12692,0.1092 0.12329,0.38088 0.05314,0.44075c-0.07531,0.06427 -0.29178,0.08925 -0.47193,0.03622c-0.26216,-0.07717 -0.47952,-0.20159 -0.49269,-0.24257c-0.04384,-0.13638 0.19946,-0.64359 0.37334,-0.70873c0.08834,-0.03308 0.34116,0.27349 0.34116,0.27349z" fill="#804046"/><path d="M234.9492,169.73255c-0.03776,-0.04706 0.01763,-0.42514 0.1087,-0.44972c0.17927,-0.04837 0.91159,0.12943 0.95543,0.26581c0.01317,0.04098 -0.12784,0.15409 -0.29593,0.36954c-0.11551,0.14806 -0.36318,0.37452 -0.36318,0.37452l-0.28068,-0.35179l0.24754,-0.13453c0,0 -0.30024,0.01539 -0.37187,-0.07384z" data-paper-data="{&quot;index&quot;:null}" fill="#804046"/><path d="M235.85292,169.37244c0.08312,-0.02672 0.1737,0.02382 0.20232,0.11287c0.02862,0.08905 -0.01555,0.1829 -0.09867,0.20962c-0.08312,0.02672 -0.1737,-0.02382 -0.20232,-0.11287c-0.02862,-0.08905 0.01555,-0.1829 0.09867,-0.20962z" fill="#671829"/></g></g></g></svg>