<svg version="1.1" xmlns="http://www.w3.org/2000/svg" xmlns:xlink="http://www.w3.org/1999/xlink" width="20.05579" height="40.37726" viewBox="0,0,20.05579,40.37726"><g transform="translate(-231.15834,-159.25409)"><g data-paper-data="{&quot;isPaintingLayer&quot;:true}" fill-rule="nonzero" stroke-linejoin="miter" stroke-miterlimit="10" stroke-dasharray="" stroke-dashoffset="0" style="mix-blend-mode: normal"><g data-paper-data="{&quot;index&quot;:null}"><g data-paper-data="{&quot;index&quot;:null}" stroke="none" stroke-width="0" stroke-linecap="butt"><path d="M242.45142,199.12005c-1.50124,-0.88981 -1.85059,-4.75865 -1.85059,-4.75865c-0.0774,-0.564 0.03116,-1.05733 0.21036,-1.53499c0.15608,-0.41601 0.36572,-0.82012 0.55276,-1.2487c0.4018,-0.92067 0.95308,0.53981 0.95308,0.53981c0,0 0.9207,2.06215 0.93929,3.25347c0.14058,1.01505 0.2918,4.39907 -0.80489,3.74905z" data-paper-data="{&quot;index&quot;:null}" fill="#54c81c"/><path d="M242.23418,189.06384c0,0 0.15139,3.40953 0.30174,4.66557c0.1017,0.84968 0.31913,2.20188 0.31913,2.20188c-0.01292,0.35991 -0.53927,1.47264 -0.97537,0.79194c-0.34282,-0.53512 -0.61917,-2.86875 -0.61917,-2.86875c0,0 -0.26727,-4.16493 -0.41848,-4.79503c-0.41553,-2.00192 -0.48856,-5.62339 -0.48856,-5.62339l1.46717,0.0218l0.41355,5.60595z" data-paper-data="{&quot;index&quot;:null}" fill="#ffffff"/></g><path d="M241.63067,196.81541l0.32175,-0.38933" fill="none" stroke="#000000" stroke-width="0.5" stroke-linecap="round"/><path d="M241.39382,195.83341l0.25065,-0.38257" fill="none" stroke="#000000" stroke-width="0.5" stroke-linecap="round"/></g><g data-paper-data="{&quot;index&quot;:null}"><g data-paper-data="{&quot;index&quot;:null}" stroke="none" stroke-width="0" stroke-linecap="butt"><path d="M239.49941,199.51468c-1.00614,0.78291 -1.2821,-2.59323 -1.27042,-3.61791c-0.13154,-1.18418 0.52226,-3.34583 0.52226,-3.34583c0,0 0.36305,-1.51827 0.87755,-0.65549c0.2395,0.40163 0.49834,0.77615 0.70554,1.16919c0.2379,0.45129 0.40771,0.92704 0.40192,1.4963c0,0 0.14043,3.88204 -1.23685,4.95374z" data-paper-data="{&quot;index&quot;:null}" fill="#54c81c"/><path d="M238.44905,189.51111l-0.29542,-5.61342l1.45276,-0.20632c0,0 0.38341,3.60187 0.22319,5.64017c-0.0707,0.64412 0.18844,4.80955 0.18844,4.80955c0,0 0.0196,2.34986 -0.25313,2.92388c-0.34693,0.73017 -1.00917,-0.30744 -1.06729,-0.66286c0,0 0.04548,-1.36883 0.03942,-2.22455c-0.00898,-1.26496 -0.28797,-4.66644 -0.28797,-4.66644z" data-paper-data="{&quot;index&quot;:null}" fill="#ffffff"/></g><path d="M239.92346,195.57984l0.43959,0.3435" fill="none" stroke="#000000" stroke-width="0.5" stroke-linecap="round"/><path d="M240.10893,196.93183l-0.3682,-0.34574" fill="none" stroke="#000000" stroke-width="0.5" stroke-linecap="round"/></g><g><path d="M241.38698,168.54253c4.28391,1.52822 3.24567,4.56495 3.35135,4.80859c0.04063,0.26535 -0.07448,0.52677 -0.14411,0.77802c-0.3014,0.9007 -0.69138,1.76804 -1.07269,2.6375c-0.13674,0.3653 -0.47111,0.61022 -0.82283,0.74918c-0.37987,0.14311 -0.79659,0.05734 -1.19083,0.04153c-0.60809,-0.04635 -1.20704,-0.17634 -1.77391,-0.40064c-0.71139,-0.23883 -1.5758,-0.63853 -2.05464,-1.26386c-0.35708,-0.3398 -0.29478,-0.30677 -0.67216,-0.6329c-0.706,-0.79117 -1.01635,-1.87417 -0.9918,-2.92181c0.00991,-0.6279 0.12662,-1.26529 0.39802,-1.83475c0.12857,-0.23482 1.42247,-3.22766 4.9736,-1.96085z" data-paper-data="{&quot;index&quot;:null}" fill="#f0e9bb" stroke="none" stroke-width="0.17188" stroke-linecap="butt"/><path d="M238.20687,166.44914c0.38437,0.58768 -2.49065,2.70015 -2.02799,2.34323c-0.44571,-0.54467 -0.6407,-1.37292 -0.58763,-1.94429c0.00484,-0.05232 0.10813,-0.16582 0.10813,-0.16582c-0.09408,-0.00766 0.05662,-0.07386 0.09669,-0.16153c0.03147,-0.06899 0.00754,-0.24625 0.00754,-0.24625c-0.04937,0.01457 0.19936,-0.02779 0.30194,-0.07617c0.08475,-0.03992 0.06925,-0.08975 0.13492,-0.10984c0.46132,-0.14239 1.13641,-0.06255 1.96644,0.36066z" data-paper-data="{&quot;index&quot;:null}" fill="#ed3e67" stroke="none" stroke-width="0.17188" stroke-linecap="butt"/><path d="M244.62589,173.17421c-0.02167,-0.10409 -0.10886,-0.19268 -0.23127,-0.33376c-0.09195,-0.10613 -0.27026,-0.31268 -0.31999,-0.40568c-0.12487,-0.23347 -1.01598,-0.56354 -1.98282,-0.48012c-0.96684,0.08341 -1.91865,1.21191 -2.03418,0.93536c-0.04392,-0.10516 -0.42486,-0.81633 -0.42945,-0.56668c-0.00081,0.04127 -0.43017,0.16635 -0.44886,0.18761c-0.05037,0.05699 -0.45819,-1.27617 -0.74128,-1.63592c-0.28309,-0.35974 -1.19118,-0.8727 -1.26769,-0.9232c-0.1149,-0.07597 -0.22662,-0.00012 -0.27831,0.12251c-0.06557,0.15506 -0.82751,2.08228 -0.75998,3.04268c0.06753,0.96039 1.12425,2.54539 1.01231,2.16458c-0.05045,-0.1719 -1.0164,1.17944 -1.35526,1.22525c-0.2419,0.03292 -1.09644,-2.20824 -0.20943,-4.82315c0.42148,-1.24253 1.30171,-2.70824 1.50733,-3.00436l0.40165,-0.57855c0.59404,-0.64292 1.30118,-1.15446 2.13889,-1.51431c0.05335,-0.02294 0.87499,-0.49251 2.04555,-0.48466c0.73923,0.00491 1.85931,0.35002 1.94665,0.37883c0.51215,0.16898 1.51697,0.48278 2.35709,0.99539c0.5344,0.32606 0.95027,0.79098 1.29748,1.16191c0.06244,0.06654 -1.10102,0.775 -1.03968,0.83499c0.02983,0.029 -0.51531,0.8844 -0.53734,0.97624l-0.14723,0.61324c-0.14879,0.61995 0.18541,1.42252 0.25642,1.53604c0.0971,0.15551 0.44745,0.64697 0.60164,0.70467l0.51952,0.19499c0.07125,0.02651 0.85476,-0.21158 0.88923,-0.15025c0.12142,0.21616 -0.27843,1.09361 -0.37552,1.25977l-0.51084,0.87458c-0.16461,0.28167 -0.23927,0.44679 -0.5729,0.79757c-0.45757,0.48148 -0.91735,0.96121 -1.50716,1.3414c-0.47661,0.30733 -2.48818,0.94544 -2.40581,0.80441l0.69897,-1.20031l0.84608,-1.74501l0.63623,-2.30606z" data-paper-data="{&quot;index&quot;:null}" fill="#54c81c" stroke="none" stroke-width="0.17188" stroke-linecap="butt"/><path d="M248.96473,173.00562c-1.09229,-0.00293 -1.65644,-2.48447 -1.65644,-2.48447c0.12715,-0.36883 1.28904,-0.81145 2.28058,-0.35333c0.75779,0.35029 1.18037,0.79013 1.32489,1.20609c0.02063,0.05937 -0.02432,0.07741 -0.00794,0.16205c0.02,0.10232 0.12305,0.30652 0.10713,0.2623c0,0 -0.14298,0.08682 -0.17652,0.14992c-0.04271,0.08027 -0.00976,0.22796 -0.06615,0.16459c0,0 -0.02744,0.14115 -0.06325,0.17533c-0.39035,0.37374 -1.10265,0.71916 -1.74228,0.71754z" data-paper-data="{&quot;index&quot;:null}" fill="#ed3e67" stroke="none" stroke-width="0.17188" stroke-linecap="butt"/><path d="M246.32968,170.92029c0.07115,0.09745 0.16962,-0.49798 0.48535,-1.00336c0.33708,-0.53969 0.90544,-0.99076 1.41991,-0.84543c0.29704,0.084 0.5261,0.26693 0.74769,0.42198c0.45714,0.31978 0.74238,0.6489 0.54068,0.65618c-0.3423,0.01248 -0.8049,0.09614 -1.1271,0.18998c-0.45951,0.13373 -0.76596,0.25183 -0.75481,0.27818l0.71751,1.69434l0.62628,0.73048c0.10718,0.11247 -0.31914,0.21804 -0.76869,0.24472c-0.38809,0.02321 -0.69697,0.15218 -0.82878,0.1472c-0.58718,-0.0213 -0.43218,-0.24495 -0.93824,-0.79571c-0.29423,-0.3203 -0.22656,-1.86526 -0.11982,-1.71854z" data-paper-data="{&quot;index&quot;:null}" fill="#54c81c" stroke="none" stroke-width="0.17188" stroke-linecap="butt"/><path d="M245.61318,170.63479c0.46035,-1.24568 1.46177,-2.4972 2.17974,-1.79225c0.30115,0.29554 -0.33449,0.34258 -0.86636,0.98941c-0.33849,0.41164 -0.61925,1.12567 -0.63947,2.1102c-0.00197,0.1033 0.09181,0.33847 0.22481,0.64692c0.20369,0.47281 1.61848,0.73948 1.36633,0.79235l-0.98477,0.20615l-0.54063,-0.30483c-0.37605,-0.10053 -1.16082,-1.50807 -0.73965,-2.64793z" data-paper-data="{&quot;index&quot;:null}" fill="#ead32e" stroke="none" stroke-width="0.17188" stroke-linecap="butt"/><path d="M238.27128,167.41304c-0.16491,0.2342 -0.61091,0.52298 -0.61091,0.52298c0.00268,-0.14114 0.19517,-0.30784 0.23122,-0.42308c0.08331,-0.26645 0.49202,-0.84635 1.11666,-1.12699l0.35522,-0.1595c0.17489,-0.07862 0.70238,-0.03885 0.77577,0.05397c0.06162,0.18818 -0.63827,0.30514 -1.21295,0.70265c-0.27548,0.19056 -0.65501,0.42998 -0.65501,0.42998z" data-paper-data="{&quot;index&quot;:null}" fill="#ead32e" stroke="none" stroke-width="0.17188" stroke-linecap="butt"/><path d="M238.15154,167.28563c-0.1029,0.11459 -0.53515,0.70532 -0.73762,1.00046l-0.79805,1.16313c-0.0587,0.08558 -0.59345,-0.692 -0.44299,-0.96277c-0.01285,-0.37014 0.18907,-0.6144 0.33195,-0.89297c0.24993,-0.2724 0.66256,-0.61757 0.89878,-0.73349c0.19026,-0.09335 0.1799,-0.6022 0.36586,-0.74744c0.27982,-0.21882 1.28776,0.16379 1.28776,0.16379z" data-paper-data="{&quot;index&quot;:null}" fill="#54c81c" stroke="none" stroke-width="0.17188" stroke-linecap="butt"/><path d="M244.09115,173.14897c0.19079,0.72129 -0.47518,1.5274 -1.06502,1.716c-0.58984,0.1886 -1.22266,-0.24322 -1.41345,-0.96451c-0.19079,-0.72129 0.13271,-1.4589 0.72255,-1.6475c0.58984,-0.1886 1.56513,0.17473 1.75592,0.89602z" fill="#000000" stroke="none" stroke-width="0" stroke-linecap="butt"/><path d="M236.70869,170.65458c0.59473,-0.4505 1.49622,-0.12666 1.84454,0.38535c0.34832,0.51201 0.14857,1.29228 -0.44616,1.74278c-0.59473,0.4505 -1.35924,0.40063 -1.70756,-0.11138c-0.34832,-0.51201 -0.28555,-1.56625 0.30918,-2.01675z" data-paper-data="{&quot;index&quot;:null}" fill="#000000" stroke="none" stroke-width="0" stroke-linecap="butt"/><path d="M240.8704,176.62284l0.5773,-0.21096" fill="none" stroke="#000000" stroke-width="0.25" stroke-linecap="round"/><path d="M240.30388,176.64566l-0.58897,-0.13252" fill="none" stroke="#000000" stroke-width="0.25" stroke-linecap="round"/><path d="M238.55869,176.18509l0.56725,0.19554" fill="none" stroke="#000000" stroke-width="0.25" stroke-linecap="round"/><path d="M237.63718,175.58535l0.46076,0.29987" fill="none" stroke="#000000" stroke-width="0.25" stroke-linecap="round"/><path d="M237.13942,174.77911l0.22823,0.36075" fill="none" stroke="#000000" stroke-width="0.25" stroke-linecap="round"/><path d="M242.21423,176.00403l-0.43704,0.03662l-0.15036,-0.51339" fill="none" stroke="#000000" stroke-width="0.25" stroke-linecap="round"/><path d="M237.4138,174.008l-0.35292,0.40202l-0.38079,-0.21758" data-paper-data="{&quot;index&quot;:null}" fill="none" stroke="#000000" stroke-width="0.25" stroke-linecap="round"/><path d="M242.14351,173.91431l1.36986,-0.68493" fill="none" stroke="#ffffff" stroke-width="0.25" stroke-linecap="round"/><path d="M243.10242,174.32527l-0.47946,-1.50685" fill="none" stroke="#ffffff" stroke-width="0.25" stroke-linecap="round"/><path d="M243.61612,173.57184c-0.20805,0 -0.37671,-0.16866 -0.37671,-0.37671c0,-0.20805 0.16866,-0.37671 0.37671,-0.37671c0.20805,0 0.37671,0.16866 0.37671,0.37671c0,0.20805 -0.16866,0.37671 -0.37671,0.37671z" fill="#ffffff" stroke="none" stroke-width="0" stroke-linecap="butt"/><path d="M242.04078,174.25677c-0.20805,0 -0.37671,-0.16866 -0.37671,-0.37671c0,-0.20805 0.16866,-0.37671 0.37671,-0.37671c0.20804,0 0.37671,0.16866 0.37671,0.37671c0,0.20804 -0.16866,0.37671 -0.37671,0.37671z" fill="#ffffff" stroke="none" stroke-width="0" stroke-linecap="butt"/><path d="M242.58871,173.0239c-0.20805,0 -0.37671,-0.16866 -0.37671,-0.37671c0,-0.20805 0.16866,-0.37671 0.37671,-0.37671c0.20805,0 0.37672,0.16866 0.37672,0.37671c0,0.20804 -0.16867,0.37671 -0.37672,0.37671z" fill="#ffffff" stroke="none" stroke-width="0" stroke-linecap="butt"/><path d="M243.06817,174.73623c-0.20805,0 -0.37671,-0.16866 -0.37671,-0.37671c0,-0.20805 0.16866,-0.37671 0.37671,-0.37671c0.20804,0 0.37671,0.16866 0.37671,0.37671c0,0.20804 -0.16866,0.37671 -0.37671,0.37671z" fill="#ffffff" stroke="none" stroke-width="0" stroke-linecap="butt"/><path d="M238.13837,171.44813l-1.36986,0.68493" fill="none" stroke="#ffffff" stroke-width="0.25" stroke-linecap="round"/><path d="M237.24796,171.03717l0.47946,1.50685" fill="none" stroke="#ffffff" stroke-width="0.25" stroke-linecap="round"/><path d="M238.24112,171.79059c-0.20805,0 -0.37671,-0.16866 -0.37671,-0.37671c0,-0.20805 0.16866,-0.37671 0.37671,-0.37671c0.20805,0 0.37671,0.16866 0.37671,0.37671c0,0.20805 -0.16866,0.37671 -0.37671,0.37671z" fill="#ffffff" stroke="none" stroke-width="0" stroke-linecap="butt"/><path d="M236.66578,172.47552c-0.20805,0 -0.37671,-0.16866 -0.37671,-0.37671c0,-0.20805 0.16866,-0.37671 0.37671,-0.37671c0.20804,0 0.37671,0.16866 0.37671,0.37671c0,0.20804 -0.16866,0.37671 -0.37671,0.37671z" fill="#ffffff" stroke="none" stroke-width="0" stroke-linecap="butt"/><path d="M237.21371,171.24265c-0.20805,0 -0.37671,-0.16866 -0.37671,-0.37671c0,-0.20805 0.16866,-0.37671 0.37671,-0.37671c0.20805,0 0.37672,0.16866 0.37672,0.37671c0,0.20804 -0.16867,0.37671 -0.37672,0.37671z" fill="#ffffff" stroke="none" stroke-width="0" stroke-linecap="butt"/><path d="M237.69317,172.95498c-0.20805,0 -0.37671,-0.16866 -0.37671,-0.37671c0,-0.20805 0.16866,-0.37671 0.37671,-0.37671c0.20804,0 0.37671,0.16866 0.37671,0.37671c0,0.20804 -0.16866,0.37671 -0.37671,0.37671z" fill="#ffffff" stroke="none" stroke-width="0" stroke-linecap="butt"/></g><g><path d="M242.33087,167.71263c0,0 0.15103,-1.92443 -0.12842,-3.15928c-0.27945,-1.23485 -1.35616,-1.82227 -1.35616,-1.82227l0.35869,-0.66101c0,0 1.42539,1.03447 1.72316,2.33262c0.29777,1.29815 0.06801,3.41206 0.06801,3.41206z" fill="#000000" stroke="none" stroke-width="0" stroke-linecap="butt"/><path d="M238.36109,163.01489l-3.01858,-3.02705l4.51727,-0.49419l1.9258,3.12791z" fill="#ea035a" stroke="none" stroke-width="0" stroke-linecap="butt"/><path d="M235.4731,159.93713l6.14514,2.70088" fill="none" stroke="#000000" stroke-width="0.25" stroke-linecap="round"/><path d="M239.90597,159.37909l0.30943,2.57228l-1.88114,1.05686" fill="none" stroke="#000000" stroke-width="0.25" stroke-linecap="round"/></g><g data-paper-data="{&quot;index&quot;:null}"><g data-paper-data="{&quot;index&quot;:null}" stroke="none" stroke-width="0" stroke-linecap="butt"><path d="M237.72376,182.46156c0,0 -1.61679,0.9906 -3.02247,1.4866c-0.77482,0.2734 -1.83474,0.45298 -2.40141,0.64442c-0.95748,0.32344 -1.05364,0.72771 -1.05364,0.72771c0,0 0.19071,-1.06135 0.37526,-1.50681c0.18455,-0.44547 0.37428,-0.86647 0.54207,-0.80257c0.16778,0.0639 5.56019,-0.54936 5.56019,-0.54936z" fill="#54c81c"/><path d="M236.63182,182.96196c-2.83048,1.11621 -4.78295,0.30929 -4.78295,0.30929c0,0 0.76992,-2.1504 3.88583,-3.09866c2.43535,-0.74115 3.60843,-0.17253 4.07117,-0.36891c1.34545,-0.571 1.10688,-0.31473 1.10688,-0.31473c0,0 -0.34846,1.92223 -4.28092,3.47301z" fill="#ffffff"/></g><path d="M233.74625,183.29787l-0.47946,0.47946" fill="none" stroke="#ffffff" stroke-width="0.25" stroke-linecap="round"/><path d="M232.2394,183.77733l0.34247,-0.47946" fill="none" stroke="#ffffff" stroke-width="0.25" stroke-linecap="round"/></g><g data-paper-data="{&quot;index&quot;:null}"><g data-paper-data="{&quot;index&quot;:null}" stroke="none" stroke-width="0" stroke-linecap="butt"><path d="M234.64498,190.15592c0,0 -1.42383,-2.04826 -0.9372,-3.78569c0.36787,-1.31345 1.52654,-2.9797 1.52654,-2.9797l4.26675,2.85212c0,0 -2.52374,1.32173 -3.38238,2.05978c-0.85865,0.73806 -1.4737,1.85349 -1.4737,1.85349z" fill="#54c81c"/><path d="M234.92184,186.91892c-1.09576,-1.04099 -0.21626,-2.97195 0.31248,-3.52839c0.52476,-0.55225 0.98072,-1.6712 3.7241,-2.35262c1.87106,-0.46474 2.35465,-1.56846 2.35465,-1.56846l0.82068,0.31463c0,0 0.63231,3.33135 -0.73494,5.02295c-1.2791,1.58252 -5.42363,3.11259 -6.47696,2.11189z" fill="#ffffff"/></g><path d="M236.212,187.47596l0.41096,-0.41096" fill="none" stroke="#ffffff" stroke-width="0.25" stroke-linecap="round"/><path d="M235.32159,186.85952l-0.34247,0.41096" fill="none" stroke="#ffffff" stroke-width="0.25" stroke-linecap="round"/><path d="M234.22571,186.38007l0.54794,-0.47946" fill="none" stroke="#ffffff" stroke-width="0.25" stroke-linecap="round"/></g><g data-paper-data="{&quot;index&quot;:null}"><g data-paper-data="{&quot;index&quot;:null}" stroke="none" stroke-width="0" stroke-linecap="butt"><path d="M251.21413,183.95947c0,0 -1.15995,-0.40014 -1.93179,-0.52617c-0.77184,-0.12603 -3.73189,-0.1151 -3.73189,-0.1151c0,0 3.26992,-0.262 3.59468,-0.94861c0.3248,-0.68669 -2.024,-2.38953 -1.39704,-2.23423c3.31134,0.82028 3.46601,3.82411 3.46601,3.82411z" fill="#54c81c"/><path d="M240.02869,179.96213c0,0 2.82354,-0.26389 4.67247,-0.32843c2.24035,-0.0782 4.53904,1.04728 5.04146,2.00826c0.50242,0.96098 -2.78143,1.81099 -4.23768,1.58725c-1.57736,-0.24235 -5.47625,-3.26709 -5.47625,-3.26709z" fill="#ffffff"/></g><path d="M248.54077,182.40746l0.75342,0.47946" fill="none" stroke="#ffffff" stroke-width="0.25" stroke-linecap="round"/><path d="M249.56817,181.85952l0.47946,0.34247" fill="none" stroke="#ffffff" stroke-width="0.25" stroke-linecap="round"/></g><g data-paper-data="{&quot;index&quot;:null}"><g data-paper-data="{&quot;index&quot;:null}" stroke="none" stroke-width="0" stroke-linecap="butt"><path d="M242.85742,186.25457c0,0 3.09588,0.60635 3.57701,-0.24514c0.48827,-0.8641 -0.89545,-3.92238 -0.89545,-3.92238c0,0 1.22413,0.3175 2.30858,2.6437c0.62793,1.34257 1.21014,4.83549 1.21014,4.83549c0,0 -2.16059,-1.08644 -3.6768,-1.49594c-1.25962,-0.34021 -2.52348,-1.81572 -2.52348,-1.81572z" fill="#54c81c"/><path d="M245.62971,182.04781c0.12999,0.09968 1.65706,2.4878 1.05624,4.02566c-0.56411,1.34735 -3.8004,0.20079 -3.8004,0.20079c0,0 -1.32364,-0.99449 -2.24933,-1.91027c-1.11215,-1.10023 -1.05309,-2.89296 -0.68641,-3.72167c0.36669,-0.82871 0.37205,0.25003 2.26388,0.11456c1.42541,-0.10206 3.29145,1.19538 3.41603,1.29092z" fill="#ffffff"/></g><path d="M245.11612,186.99651l-0.34247,-0.41096" fill="none" stroke="#ffffff" stroke-width="0.25" stroke-linecap="round"/><path d="M246.55447,186.79102l-0.20548,-0.47945" fill="none" stroke="#ffffff" stroke-width="0.25" stroke-linecap="round"/><path d="M247.10241,185.35266l-0.54794,-0.54794" fill="none" stroke="#ffffff" stroke-width="0.25" stroke-linecap="round"/></g><g data-paper-data="{&quot;index&quot;:null}"><path d="M242.35037,181.28861c-0.36591,0.39828 -2.69739,-0.28309 -2.69739,-0.28309c-0.24658,-0.28197 -1.67704,-0.07531 -1.70209,-0.53654c-0.00974,-0.1801 0.14956,-1.14428 0.32786,-1.71279c0.1783,-0.56852 -0.05954,-0.98345 0.64221,-1.38034c0.70175,-0.39689 1.90661,-0.1482 2.06043,-0.1482c0.12177,0 0.72348,0.19835 1.07941,1.25421c0.35594,1.05586 0.59384,2.36369 0.28957,2.80676z" data-paper-data="{&quot;index&quot;:null}" fill="#319a2b" stroke="none" stroke-width="0.17188" stroke-linecap="butt"/><path d="M240.97721,181.03802c0.61263,0 1.39781,-0.03289 1.39781,-0.03289l0.22399,0.60534c0,0 -0.81357,-0.32402 -1.50188,-0.15139c-0.61138,0.03439 -1.24991,-0.3092 -1.15798,-0.46382c0.178,-0.29941 0.42542,0.04276 1.03805,0.04276z" data-paper-data="{&quot;index&quot;:null}" fill="#ead42f" stroke="none" stroke-width="0" stroke-linecap="butt"/><path d="M237.89108,180.3842c0,0 0.60465,0.11279 1.21306,0.18453c0.60841,0.07174 0.41111,0.46852 -0.19203,0.36277c-0.66335,-0.25204 -1.3616,-0.05504 -1.3616,-0.05504l0.34058,-0.49225z" data-paper-data="{&quot;index&quot;:null}" fill="#ead42f" stroke="none" stroke-width="0" stroke-linecap="butt"/><path d="M240.88,180.77492l0.07853,0.38091" fill="none" stroke="#ffffff" stroke-width="0.25" stroke-linecap="round"/><path d="M241.81312,180.83174l0.09109,0.32829" fill="none" stroke="#ffffff" stroke-width="0.25" stroke-linecap="round"/><path d="M238.83152,180.32128l-0.03093,0.30573" fill="none" stroke="#ffffff" stroke-width="0.25" stroke-linecap="round"/><path d="M238.01448,180.65292l0.147,-0.38175" fill="none" stroke="#ffffff" stroke-width="0.25" stroke-linecap="round"/></g><g data-paper-data="{&quot;index&quot;:null}"><g stroke="#ffffff" stroke-width="0" stroke-linecap="butt"><path d="M238.90526,177.53327l-0.2171,0.83131l-2.29543,-1.46364l0.36791,-0.63163z" data-paper-data="{&quot;index&quot;:null}" fill="#319a2b"/><path d="M236.77988,176.0854c0.38843,0.51788 -0.00944,0.97255 -0.43577,0.85484c-1.03012,-0.2844 -2.75628,-1.50719 -2.75628,-1.50719l0.30888,-1.50383c0,0 2.52008,1.67208 2.88317,2.15618z" data-paper-data="{&quot;index&quot;:null}" fill="#ead42f"/><path d="M233.33482,173.62098c0.8776,0.06772 1.9224,2.08154 0.98031,3.5881c-0.7778,1.24384 -1.2416,1.81416 -2.50935,1.85128c-0.40096,0.01173 -1.02282,-1.87584 -0.34873,-3.17881c0.67409,-1.30296 1.59044,-2.28275 1.87777,-2.26057z" data-paper-data="{&quot;index&quot;:null}" fill="#f0e9bb"/></g><path d="M232.87597,174.03716c0,0 0.47322,1.47917 0.48344,2.44656c0.01022,0.96739 -0.63992,2.34509 -0.63992,2.34509" data-paper-data="{&quot;index&quot;:null}" fill="none" stroke="#d3c49c" stroke-width="0.25" stroke-linecap="round"/><path d="M232.6563,174.96725l0.82018,-0.11782" data-paper-data="{&quot;index&quot;:null}" fill="none" stroke="#ffffff" stroke-width="0.5" stroke-linecap="round"/><path d="M233.60219,176.15231l-0.65143,0.06286" data-paper-data="{&quot;index&quot;:null}" fill="none" stroke="#ffffff" stroke-width="0.5" stroke-linecap="round"/><path d="M232.8763,177.24728l0.63967,0.01563" data-paper-data="{&quot;index&quot;:null}" fill="none" stroke="#ffffff" stroke-width="0.5" stroke-linecap="round"/><path d="M233.10404,178.40494l-0.47093,-0.07059" data-paper-data="{&quot;index&quot;:null}" fill="none" stroke="#ffffff" stroke-width="0.5" stroke-linecap="round"/></g><g data-paper-data="{&quot;index&quot;:null}" stroke="none" stroke-linecap="butt"><path d="M239.97595,177.35818c0.17008,0.06905 0.3072,0.33949 0.39108,0.72079c0.08399,0.38126 0.11481,0.87325 0.07258,1.38519c-0.0422,0.51204 -0.14953,0.94795 -0.28883,1.23853c-0.1394,0.29062 -0.31073,0.43601 -0.48082,0.36696c-0.17021,-0.06911 -0.30722,-0.33958 -0.3912,-0.72085c-0.08388,-0.3813 -0.11481,-0.87325 -0.07258,-1.38519c0.04219,-0.51204 0.14963,-0.94798 0.28893,-1.23856c0.1393,-0.29058 0.31062,-0.43597 0.48084,-0.36686z" fill="#eb3d66" stroke-width="0.01872"/><path d="M239.86386,178.32515c0.20905,0.00794 0.3635,0.4098 0.34498,0.89758c-0.01852,0.48778 -0.203,0.87677 -0.41205,0.86883c-0.20905,-0.00794 -0.3635,-0.4098 -0.34498,-0.89758c0.01852,-0.48778 0.203,-0.87677 0.41205,-0.86883z" fill="#492116" stroke-width="0"/><path d="M240.08425,177.56189c0.07287,0.00749 0.14677,0.09569 0.20751,0.23227c0.06069,0.1365 0.10811,0.32141 0.12783,0.52204c0.01966,0.20055 0.00797,0.3793 -0.02692,0.50605c-0.03488,0.12675 -0.09285,0.20152 -0.16563,0.19397c-0.07281,-0.00742 -0.14676,-0.0957 -0.2075,-0.23228c-0.06068,-0.13652 -0.10813,-0.3213 -0.12777,-0.52198c-0.0197,-0.20063 -0.00801,-0.37938 0.02688,-0.50613c0.03481,-0.1267 0.0928,-0.20139 0.16562,-0.19397z" fill="#ffffff" stroke-width="0.01896"/></g><g data-paper-data="{&quot;index&quot;:null}"><g stroke="none" stroke-width="0" stroke-linecap="butt"><path d="M243.66141,176.81347l0.28972,0.6711l-2.45401,1.1786l-0.11611,-0.85131z" fill="#319a2b"/><path d="M243.66431,176.62856c0.41838,-0.4372 3.12035,-1.79586 3.12035,-1.79586l0.1268,1.52997c0,0 -1.86001,1.00757 -2.91676,1.16673c-0.43734,0.06587 -0.77798,-0.43313 -0.3304,-0.90083z" fill="#ead42f"/><path d="M248.85604,177.13735c0.43134,1.40216 -0.51665,3.14887 -0.90911,3.06593c-1.24089,-0.26223 -1.59573,-0.90602 -2.13966,-2.26846c-0.65882,-1.65022 0.72784,-3.44585 1.60347,-3.35624c0.28668,0.02934 1.01396,1.15661 1.4453,2.55877z" fill="#f0e9bb"/></g><path d="M246.91884,179.51036c0,0 -0.43872,-1.45885 -0.28521,-2.41403c0.15351,-0.95518 0.84077,-2.34787 0.84077,-2.34787" fill="none" stroke="#d3c49c" stroke-width="0.25" stroke-linecap="round"/><path d="M247.55376,175.70084l-0.79365,-0.23809" fill="none" stroke="#ffffff" stroke-width="0.5" stroke-linecap="round"/><path d="M247.07757,176.89132l-0.63492,-0.15873" fill="none" stroke="#ffffff" stroke-width="0.5" stroke-linecap="round"/><path d="M246.99821,177.92306l-0.63492,-0.07937" fill="none" stroke="#ffffff" stroke-width="0.5" stroke-linecap="round"/><path d="M247.07757,179.03418h-0.47619" fill="none" stroke="#ffffff" stroke-width="0.5" stroke-linecap="round"/></g></g></g></svg>