<svg version="1.1" xmlns="http://www.w3.org/2000/svg" xmlns:xlink="http://www.w3.org/1999/xlink" width="31.28585" height="35.19215" viewBox="0,0,31.28585,35.19215"><g transform="translate(-221.60563,-165.17565)"><g data-paper-data="{&quot;isPaintingLayer&quot;:true}" fill-rule="nonzero" stroke-miterlimit="10" stroke-dasharray="" stroke-dashoffset="0" style="mix-blend-mode: normal"><g stroke-linejoin="miter"><path d="M240.45903,199.87238c0,0 1.92993,-1.01434 2.74229,-1.66802c0.65842,-0.52982 0.38008,-4.70677 0.38008,-4.70677c0,0 1.36864,0.22733 1.0626,1.71872c-0.08606,0.41943 -0.0174,1.07993 -0.30804,1.98909c-0.29064,0.90916 -0.62204,1.71453 -1.34375,2.22634c-0.7217,0.51179 -2.1627,0.99848 -2.95204,0.92951c-1.09713,-0.1229 -0.83569,-0.45459 -0.83569,-0.45459z" fill="#947043" stroke="none" stroke-width="0" stroke-linecap="butt"/><path d="M240.19466,192.62562l2.92785,-0.79671l0.23319,0.68327l-0.1695,0.09265c0,0 0.25239,0.15328 0.28606,0.22215c0.14745,0.30172 -0.00203,0.29899 -0.00203,0.29899c0,0 0.36024,0.49331 0.58377,0.81861c0.22356,0.32528 0.07682,1.90409 0.06752,1.96459c-0.08067,0.52536 -0.11419,1.33606 -0.44309,2.11107c-0.27714,0.65301 -1.2918,1.40907 -2.09769,1.77831c-1.10074,0.36627 -2.44267,0.24429 -2.44267,0.24429c0,0 -0.36442,-1.55897 -0.15774,-2.61051c0.38092,-0.93138 0.50883,-1.37602 0.63043,-1.78863c0.09881,-0.33535 0.24462,-1.22999 0.24462,-1.22999l-0.03899,-0.42001l0.12397,-0.34014z" fill="#20201f" stroke="none" stroke-width="0" stroke-linecap="butt"/><path d="M242.52937,192.46673c0,0 0.35621,0.50945 0.59173,0.90788c0.29845,0.50491 1.01407,1.81984 1.01407,1.81984" fill="none" stroke="#c8c7c6" stroke-width="0.125" stroke-linecap="round"/><path d="M243.02468,190.3924c0.08426,0.73899 0.30483,0.92312 0.05379,1.41672c-0.25104,0.4936 -0.63586,0.75856 -1.22787,0.8917c-1.0924,0.11844 -1.43075,0.07885 -1.88711,-0.16437c-0.16807,-0.13896 -0.59161,-1.13556 -0.54594,-1.83459c0.01197,-0.1833 0.68647,-1.19485 1.43126,-1.25873c0.7448,-0.0639 2.06999,0.02038 2.17588,0.94928z" fill="#c274a1" stroke="none" stroke-width="0" stroke-linecap="butt"/><path d="M243.01391,190.45397c0.08424,0.73901 -1.23614,0.95937 -1.62251,0.9729c-0.47117,0.0165 -2.03028,0.03556 -1.98464,-0.66346c0.01196,-0.18329 0.68647,-1.19485 1.43127,-1.25873c0.7448,-0.0639 2.06998,0.02039 2.17588,0.94928z" fill="#cacacd" stroke="none" stroke-width="0" stroke-linecap="butt"/><path d="M241.54101,199.03837c0.0362,0.22855 0.26845,0.26236 0.21553,0.44799c-0.0887,0.31112 -0.31211,0.3237 -0.37599,0.31252c-0.10199,-0.01787 -0.2045,-0.3234 -0.17465,-0.71045c0.02986,-0.38705 0.06417,-0.83177 0.06417,-0.83177c0,0 0.23473,0.55316 0.27093,0.78172z" fill="#c8c7c6" stroke="none" stroke-width="0" stroke-linecap="butt"/><path d="M238.91812,197.81475c0,0 0.15632,-1.13512 1.43698,-1.10663c1.82366,0.04056 2.42242,2.10831 2.42242,2.10831" fill="none" stroke="#c8c7c6" stroke-width="0.125" stroke-linecap="round"/><path d="M239.35326,198.48305c0,0 0.10504,0.43349 0.19646,0.81077c0.09142,0.37729 0.03914,0.69528 -0.05868,0.72925c-0.06128,0.02128 -0.28379,0.04459 -0.42116,-0.24831c-0.08195,-0.17477 0.1419,-0.2453 0.14107,-0.47671c-0.00083,-0.2314 0.14234,-0.815 0.14234,-0.815z" data-paper-data="{&quot;index&quot;:null}" fill="#c8c7c6" stroke="none" stroke-width="0" stroke-linecap="butt"/></g><path d="M241.4231,184.51797l0.28715,3.45135l0.06967,2.24484c0,0 -0.30863,0.29142 -0.53094,0.43157c-0.22229,0.14013 -0.60147,0.17212 -0.60147,0.17212l-0.20201,-2.29585l-0.26289,-3.73793z" fill="#20201f" stroke="none" stroke-width="0" stroke-linecap="butt" stroke-linejoin="miter"/><g stroke-linejoin="miter"><path d="M246.77581,198.53325c0,0 1.32557,-1.73103 1.7883,-2.6654c0.37507,-0.75733 -1.63161,-4.43127 -1.63161,-4.43127c0,0 1.33757,-0.36842 1.68611,1.11361c0.09802,0.41679 0.43772,0.9874 0.55573,1.93456c0.11802,0.94716 0.15546,1.81725 -0.2846,2.58481c-0.44006,0.76755 -1.54347,1.81436 -2.28879,2.08326c-1.04733,0.34919 -0.94931,-0.06163 -0.94931,-0.06163l1.12418,-0.55795z" fill="#947043" stroke="none" stroke-width="0" stroke-linecap="butt"/><path d="M243.4927,192.06746l2.32261,-1.95258l0.49857,0.52218l-0.11493,0.15526c0,0 0.29343,0.03313 0.35291,0.0815c0.26052,0.21191 0.12371,0.2722 0.12371,0.2722c0,0 0.5341,0.29643 0.87356,0.49778c0.33947,0.20133 0.8693,1.6958 0.88627,1.75461c0.1474,0.51067 0.45743,1.26048 0.48439,2.10199c0.02271,0.70902 -0.58064,1.82127 -1.15699,2.49481c-0.84517,0.79465 -2.11428,1.24748 -2.11428,1.24748c0,0 -0.9854,-1.26182 -1.2394,-2.30293c-0.04541,-1.00523 -0.11603,-1.46249 -0.17897,-1.88802c-0.05114,-0.34583 -0.29452,-1.219 -0.29452,-1.219l-0.21178,-0.3648l-0.03033,-0.36075z" fill="#20201f" stroke="none" stroke-width="0" stroke-linecap="butt"/><path d="M245.54487,190.94281c0,0 0.53721,0.31277 0.91825,0.57548c0.48286,0.33291 1.68455,1.22577 1.68455,1.22577" fill="none" stroke="#c8c7c6" stroke-width="0.125" stroke-linecap="round"/><path d="M245.1233,188.85224c0.3868,0.63529 0.6643,0.70978 0.64375,1.26316c-0.02056,0.55339 -0.25854,0.95544 -0.7399,1.32489c-0.94167,0.56623 -1.26537,0.67238 -1.78168,0.6433c-0.21088,-0.05554 -1.01378,-0.78214 -1.26588,-1.43572c-0.0661,-0.17137 0.12125,-1.37267 0.77036,-1.74342c0.64912,-0.37076 1.88718,-0.85075 2.37337,-0.05221z" fill="#c274a1" stroke="none" stroke-width="0" stroke-linecap="butt"/><path d="M245.13935,188.91265c0.3868,0.6353 -0.71898,1.38979 -1.06396,1.56431c-0.42068,0.21284 -1.82766,0.88487 -2.07978,0.2313c-0.06611,-0.17137 0.12125,-1.37267 0.77036,-1.74343c0.64912,-0.37076 1.88718,-0.85074 2.37337,-0.05221z" fill="#cacacd" stroke="none" stroke-width="0" stroke-linecap="butt"/><path d="M247.40753,197.32197c0.12882,0.19221 0.35381,0.12537 0.38374,0.31605c0.05014,0.31959 -0.1473,0.42484 -0.20999,0.44152c-0.10007,0.02661 -0.32139,-0.20762 -0.45684,-0.57143c-0.13543,-0.36381 -0.29105,-0.78181 -0.29105,-0.78181c0,0 0.44533,0.40344 0.57416,0.59567z" fill="#c8c7c6" stroke="none" stroke-width="0" stroke-linecap="butt"/><path d="M245.52167,197.52708c0,0 0.25433,0.36641 0.47569,0.68532c0.22136,0.31892 0.28729,0.63434 0.20832,0.70132c-0.04948,0.04194 -0.24861,0.14395 -0.48237,-0.0797c-0.13948,-0.13343 0.04386,-0.27997 -0.0404,-0.49549c-0.08426,-0.21551 -0.16122,-0.81147 -0.16122,-0.81147z" data-paper-data="{&quot;index&quot;:null}" fill="#c8c7c6" stroke="none" stroke-width="0" stroke-linecap="butt"/><path d="M244.51328,197.31291c0,0 -0.33481,-1.09583 0.83941,-1.60775c1.67211,-0.72901 3.08383,0.89614 3.08383,0.89614" fill="none" stroke="#c8c7c6" stroke-width="0.125" stroke-linecap="round"/><g fill="#83c4ac" stroke="none" stroke-width="0" stroke-linecap="butt"><path d="M245.87329,192.15263c-0.12109,0.05224 -0.75069,-0.24511 -0.75069,-0.24511l0.5705,-0.86245l0.21485,0.01777c0,0 0.06797,1.04551 -0.03465,1.08979z"/><path d="M246.14806,190.26232c0.13111,0.01422 0.47267,0.43403 0.47267,0.43403l-0.691,0.43294l-0.28282,-0.06341c0,0 0.39003,-0.81559 0.50113,-0.80355z" data-paper-data="{&quot;index&quot;:null}"/><path d="M246.85838,192.61073c-0.1099,0.07288 -0.78225,-0.10812 -0.78225,-0.10812l0.36401,-0.94806l0.25911,-0.02247c0,0 0.25227,1.0169 0.15913,1.07867z"/><path d="M246.67793,190.65282c0.13002,-0.02212 0.57319,0.28852 0.57319,0.28852l-0.54656,0.60513l-0.2894,0.01618c0,0 0.15258,-0.8911 0.26276,-0.90984z" data-paper-data="{&quot;index&quot;:null}"/><path d="M247.53281,193.01089l-0.49034,-0.84478c0,0 -0.30483,-0.23991 -0.21282,-0.38477c0.09202,-0.14484 0.34672,0.17398 0.34672,0.17398l0.74258,0.47739l0.03816,0.39442z"/></g></g><path d="M242.11296,184.6214l1.57588,3.43239l0.5784,1.2227c0,0 -0.17948,0.40183 -0.37556,0.59322c-0.1961,0.19139 -0.69529,0.45193 -0.69529,0.45193l-0.74985,-1.64565l-1.64376,-3.80032z" fill="#20201f" stroke="none" stroke-width="0" stroke-linecap="butt" stroke-linejoin="miter"/><g stroke="none" stroke-width="0" stroke-linecap="butt" stroke-linejoin="miter"><path d="M231.24408,178.928c0.83753,0.14966 2.18832,0.60154 2.18832,0.60154l0.50408,2.40281c0,0 -0.08697,0.35329 -0.53468,0.69214c-0.29076,0.22006 -0.88956,0.28586 -0.88956,0.28586c0,0 0.6499,0.28796 0.35611,0.7847c-0.18863,0.31893 -1.29508,0.2411 -1.67421,0.12036c-0.22319,-0.07106 -0.56973,-0.32852 -0.72537,-0.6272c-0.09818,-0.1884 -0.05888,-0.47893 -0.05888,-0.47893c0,0 -0.37434,-0.04052 -0.36614,-0.44195c0.00251,-0.123 -0.02875,-0.29184 -0.02875,-0.29184c0,0 -0.25828,-0.11271 -0.36296,-0.22197c-0.10467,-0.10925 -0.16108,-0.35269 -0.16108,-0.35269l0.17359,-0.3819c0,0 -0.36126,-0.40266 -0.386,-0.51077c-0.09708,-0.42418 0.29774,-0.7016 0.50868,-0.85186c0.38624,-0.27512 1.32343,-0.75216 1.45686,-0.72831z" fill="#20201f"/><path d="M236.29939,179.19701c0.80098,-0.3499 2.03419,-0.8287 3.14029,-1.07722c0.36627,-0.08229 0.50424,0.07533 0.56695,0.27162c0.09333,0.29219 -0.01663,0.49935 -0.29895,0.60242c-1.1267,0.41134 -2.10427,0.79156 -2.86209,1.12261c-0.46201,0.20182 -1.92683,0.95423 -1.92683,0.95423l-0.97609,-0.93001c0,0 1.21155,-0.44342 2.35673,-0.94367z" fill="#fed5c7"/><path d="M234.28425,178.61357c0.92432,0.16295 1.46634,1.05406 1.58157,2.11553c0.11522,1.06147 -0.20765,2.22224 -1.13124,2.03297c-0.92359,-0.18927 -1.90427,-1.29959 -2.04962,-2.63857c-0.14535,-1.33896 0.67497,-1.6729 1.5993,-1.50994z" fill="#20201f"/><path d="M232.42956,182.76448c0,0 0.73103,0.12427 0.56155,0.70193c-0.10881,0.3709 -0.61947,0.53038 -1.03379,0.50566c-0.24391,-0.01454 0.47224,-1.2076 0.47224,-1.2076z" fill="#c0c2c6"/><path d="M231.81043,181.49224c0,0 0.73103,0.12427 0.56155,0.70193c-0.10881,0.3709 -0.61947,0.53038 -1.03379,0.50566c-0.24391,-0.01454 0.47224,-1.2076 0.47224,-1.2076z" fill="#c0c2c6"/><path d="M231.29302,180.32938c0,0 0.73103,0.12427 0.56155,0.70193c-0.10881,0.3709 -0.61947,0.53038 -1.03379,0.50566c-0.24391,-0.01454 0.47224,-1.2076 0.47224,-1.2076z" fill="#c0c2c6"/><path d="M232.88714,179.72278c0,0 0.63482,0.38321 0.26567,0.85875c-0.23702,0.30534 -0.77061,0.26685 -1.14712,0.09221c-0.22166,-0.10282 0.88146,-0.95098 0.88146,-0.95098z" fill="#c0c2c6"/><path d="M231.07753,179.41377c0,0 0.73103,0.12427 0.56155,0.70193c-0.10881,0.3709 -0.61947,0.53038 -1.03379,0.50566c-0.24391,-0.01454 0.47224,-1.2076 0.47224,-1.2076z" fill="#c0c2c6"/><g><path d="M236.65639,178.86337l1.08339,-0.37377l0.60662,1.30822l-1.06681,0.40374z" fill="#83c4ac"/><path d="M238.67036,177.70909c0.61867,-0.2309 1.30892,0.01039 1.55661,0.57374c0.2477,0.56335 -0.04763,1.21984 -0.65963,1.46633c-1.08802,0.43821 -1.47295,0.08041 -1.72066,-0.48294c-0.2477,-0.56335 -0.20772,-1.17218 0.82367,-1.55711z" fill="#20201f"/><path d="M235.19251,179.0473l1.47725,-0.23047l0.63978,1.36815l-1.21569,0.98597l-0.41829,-0.51424l-0.43524,-1.05593z" fill="#bebec0"/></g></g><g data-paper-data="{&quot;index&quot;:null}" stroke-width="0" stroke-linecap="butt" stroke-linejoin="miter"><g data-paper-data="{&quot;index&quot;:null}"><path d="M229.46948,169.2498c-0.13286,-1.05513 0.61796,-2.01859 1.67696,-2.15194c1.05902,-0.13335 2.02522,0.6139 2.15807,1.66903c0.13286,1.05513 -0.61794,2.01859 -1.67694,2.15193c-1.05902,0.13335 -2.02524,-0.6139 -2.15809,-1.66903z" fill="#c2e266" stroke="none"/><path d="M230.21143,169.79653c-0.08208,-0.65186 0.38175,-1.24709 1.03602,-1.32946c0.65427,-0.08239 1.25118,0.37926 1.33327,1.03113c0.08208,0.65186 -0.38175,1.24709 -1.03602,1.32946c-0.65427,0.08239 -1.25118,-0.37927 -1.33327,-1.03113z" fill="#c2e266" stroke="#000000"/><path d="M230.31874,173.50221c-0.47082,-0.98235 0.1719,-2.16922 0.1719,-2.16922l2.08487,-0.27751c0,0 0.17739,0.18229 0.67009,1.43273c0.51158,1.29837 -0.65457,4.23495 -0.65457,4.23495c0,0 -1.80148,-2.2386 -2.27229,-3.22094z" fill="#e8edf4" stroke="#000000"/><path d="M231.59244,171.4212c-0.50697,0.06612 -1.3939,-0.11484 -1.3939,-0.11484l0.13098,-0.70329c0,0 0.6741,0.32278 1.12791,0.29159c0.4538,-0.03118 1.04545,-0.44096 1.04545,-0.44096l0.34132,0.45079c0,0 -0.67251,0.44114 -1.25176,0.51669z" fill="#dbded5" stroke="#000000"/></g><g data-paper-data="{&quot;index&quot;:null}" stroke="none"><path d="M238.07117,174.387c0.1996,-0.02513 0.4037,0.29036 0.45587,0.70467c0.05217,0.41432 -0.06734,0.77056 -0.26695,0.79569c-0.1996,0.02513 -0.40372,-0.29036 -0.45589,-0.70467c-0.05217,-0.41432 0.06735,-0.77056 0.26697,-0.79569z" fill="#000000"/><path d="M240.12458,179.44505c0.20792,-0.02618 0.94132,0.79367 0.96427,0.97598c0.02296,0.1823 -0.17546,1.42432 -0.38336,1.4505c-0.20792,0.02618 -1.29146,-0.1727 -1.29146,-0.1727c0,0 0.50265,-2.22761 0.71056,-2.25379z" fill="#807d5a"/><path d="M232.85024,170.23039l0.11162,-0.16647l5.56574,5.24342l-0.06136,0.32272z" fill="#6e6e73"/><path d="M234.88149,171.70199l-0.26088,0.35801l-1.33459,-1.20371l0.29099,-0.36179z" fill="#c2e266"/></g></g><g stroke-width="0" stroke-linecap="butt" stroke-linejoin="miter"><g data-paper-data="{&quot;index&quot;:null}"><path d="M250.40231,170.09707c-1.35855,0.17106 -2.59804,-0.78752 -2.76847,-2.14108c-0.17044,-1.35355 0.7927,-2.58951 2.15126,-2.76058c1.35855,-0.17106 2.59804,0.78753 2.76847,2.14109c0.17044,1.35355 -0.79271,2.58951 -2.15126,2.76057z" fill="#c2e266" stroke="none"/><path d="M250.4763,169.95741c-0.83931,0.10569 -1.60506,-0.48655 -1.71035,-1.32278c-0.1053,-0.83623 0.48973,-1.5998 1.32905,-1.70549c0.83931,-0.10569 1.60507,0.48652 1.71036,1.32277c0.1053,0.83623 -0.48974,1.59981 -1.32905,1.7055z" fill="#c2e266" stroke="#000000"/><path d="M252.85048,172.89142c-0.27272,1.37057 -1.62741,4.73769 -1.62741,4.73769c0,0 -2.55543,-3.29078 -2.33256,-5.06706c0.21465,-1.71073 0.37713,-1.99369 0.37713,-1.99369l2.67931,-0.31815c0,0 1.17623,1.27064 0.90351,2.64121z" fill="#e8edf4" stroke="#000000"/><path d="M250.60572,170.7102c-0.74391,0.09034 -1.71998,-0.24405 -1.71998,-0.24405l0.28083,-0.66879c0,0 0.86561,0.32111 1.43952,0.21555c0.5739,-0.10556 1.309,-0.72111 1.309,-0.72111l0.38643,0.8324c0,0 -1.04472,0.50695 -1.69578,0.586z" fill="#dbded5" stroke="#000000"/></g><g data-paper-data="{&quot;index&quot;:null}" stroke="none"><path d="M245.0816,178.78073c0.25716,0.39516 0.3125,2.17009 0.3125,2.17009l-3.0885,0.40845c0,0 -1.16841,-1.15209 -1.02968,-2.60454c0.10199,-1.06776 1.47408,-2.54856 1.67211,-2.57956c1.27596,-0.19978 1.87638,2.2104 2.13354,2.60557z" fill="#c2e266"/><path d="M244.08204,177.36045c0.06693,0.5315 -0.08639,0.9885 -0.34245,1.02075c-0.25606,0.03224 -0.51791,-0.37249 -0.58483,-0.90399c-0.06693,-0.5315 0.0864,-0.9885 0.34247,-1.02075c0.25606,-0.03224 0.51789,0.37248 0.58481,0.90399z" fill="#000000"/><path d="M245.51588,183.13691c-0.04039,0.85931 -0.33011,2.26632 -0.33011,2.26632l-1.11111,0.62644c0,0 -1.48842,-0.3915 -1.55895,-1.15934c-0.03502,-0.38127 -0.20351,-3.37144 -0.20351,-3.37144l1.12352,-0.93253c0,0 0.60508,-0.02425 0.98002,0.03686c0.37493,0.06111 0.98,0.33289 0.98,0.33289c0,0 0.16051,1.34153 0.12013,2.20083z" fill="#20201f"/><path d="M244.15368,185.9706c0,0 -1.28336,0.59175 -1.5501,0.62534c-0.26673,0.03359 -0.90831,-1.4469 -0.93776,-1.68076c-0.02945,-0.23386 0.62128,-1.48602 0.88801,-1.5196c0.26673,-0.03359 1.59983,2.57501 1.59983,2.57501z" fill="#c274a1"/><path d="M243.40151,178.12697l-0.17888,-0.38156l5.24952,-8.28651l0.19166,0.1714z" fill="#6e6e73"/><path d="M247.84461,170.18968l0.47671,0.35709l-1.27582,1.92039l-0.43807,-0.36197z" fill="#c2e266"/></g></g><g stroke="none" stroke-width="0" stroke-linecap="butt" stroke-linejoin="miter"><path d="M241.83057,182.65011l1.31155,-0.23191l2.57837,1.673l2.49443,-0.75268c0,0 -1.47735,1.44101 -2.36643,1.54223c-0.81819,0.09314 -4.01793,-2.23066 -4.01793,-2.23066z" fill="#f79db4"/><path d="M242.84591,179.63583c0.33487,-0.6037 1.09572,-0.82164 1.69943,-0.48677c0.6037,0.33487 0.82164,1.09571 0.48677,1.69942c-0.33487,0.6037 -0.93312,0.61218 -1.53682,0.27733c-0.6037,-0.33487 -0.98424,-0.88627 -0.64938,-1.48998z" fill="#83c4ac"/><path d="M236.80873,182.69384c0,0 0.6536,0.12827 1.03092,0.59588c0.53244,0.65987 1.04732,1.00201 3.45344,0.78041c2.14547,-0.19759 2.5913,-1.08457 3.02029,-1.58656c0.52025,-0.60876 0.76465,-0.82774 0.76465,-0.82774l1.8991,0.36392c0,0 -0.40286,0.50226 -0.53439,1.36669c-0.07089,0.94307 -0.72838,1.39259 -1.32136,1.5091c-0.46981,0.43911 -0.82755,1.30583 -1.66953,1.18893c-0.40872,0.70157 -1.22904,0.85952 -1.93457,0.51018c-0.51387,0.56454 -1.24351,0.4276 -1.60202,0.06206c-0.86636,0.36395 -1.55122,0.0322 -1.86129,-0.44306c-0.97747,-0.02146 -1.57827,-0.74563 -1.79128,-1.47241c-0.95985,-0.33223 -1.29572,-1.21163 -1.29572,-1.21163z" fill="#c0c2c6"/><path d="M239.22928,177.80679l0.35978,-0.08341l2.33011,-0.31288c0,0 -0.05591,1.42699 0.36045,2.15426c0.41636,0.72727 0.49769,0.86654 1.13578,1.3184c0.63808,0.45187 1.9377,0.85531 1.9377,0.85531c0,0 -0.44673,0.36524 -0.68379,0.86986c-0.14831,0.31569 -0.01582,0.76853 -0.25478,0.96534c-0.40454,0.33318 -0.85908,0.07469 -1.55154,0.35231c-0.37043,0.14852 -0.72702,0.85034 -1.36319,0.98617c-1.13594,0.24252 -1.55117,-0.35824 -2.26701,-0.63862c-0.33493,-0.1312 -0.87971,0.30927 -1.3324,0.02486c-0.34022,-0.21375 -0.12867,-0.62221 -0.31616,-0.86572c-0.31554,-0.4098 -0.90433,-0.62232 -0.90433,-0.62232c0,0 0.52586,-0.41205 1.16531,-0.87877c0.63947,-0.46673 1.26248,-1.16387 1.26248,-1.16387c0,0 -0.03062,-0.89342 -0.00809,-1.52998c0.02251,-0.63657 0.12966,-1.43092 0.12966,-1.43092z" fill="#20201f"/><path d="M243.02989,181.77208l-0.39227,-0.32107l0.51451,-0.80719c0,0 0.11597,0.09977 0.33549,0.26508c0.19775,0.14892 0.56199,0.3361 0.56199,0.3361l-0.19594,0.32989z" data-paper-data="{&quot;index&quot;:null}" fill="#c274a1"/><path d="M241.93856,182.29683l0.78085,-0.7684l0.31511,0.25907l-0.6942,0.6781z" data-paper-data="{&quot;index&quot;:null}" fill="#c0c2c6"/><path d="M238.19101,182.16204l-0.24178,-0.29792c0,0 0.33319,-0.23811 0.50722,-0.41417c0.19318,-0.19544 0.29343,-0.311 0.29343,-0.311l0.62631,0.72389l-0.34146,0.37466z" fill="#c274a1"/><path d="M240.25279,182.93396l-1.19466,-0.7635l0.27413,-0.3021l1.29352,0.84025z" fill="#c0c2c6"/><path d="M242.48904,179.10329c0.42568,1.96084 -1.04817,2.05801 -1.22897,2.01985c-0.17546,-0.03704 -0.631,-0.23769 -0.89816,-0.43212c-0.27203,-0.19796 -0.75978,-0.74021 -0.75978,-0.74021l-0.38685,0.73862c0,0 -0.43055,-0.84319 -0.50504,-1.46215c-0.16876,-1.40215 0.37364,-1.53449 0.37364,-1.53449l2.60007,-0.39601c0,0 0.45636,0.20012 0.8051,1.8065z" fill="#c0c0c3"/><path d="M239.59953,178.19831l-0.63309,-0.48576l1.98439,-0.09857z" fill="#222225"/><g><g><path d="M240.27973,183.69947c-0.42058,-0.47749 -0.23621,-1.32727 0.41179,-1.89804c0.64801,-0.57078 1.51426,-0.64641 1.93485,-0.16893c0.42057,0.47748 0.23621,1.32726 -0.41181,1.89803c-0.64801,0.57078 -1.51426,0.64641 -1.93485,0.16893z" fill="#c0c2c6"/><path d="M240.96449,180.78962c0.13504,-0.21132 0.41582,-0.27317 0.62715,-0.13814c0.21132,0.13504 0.27317,0.41583 0.13814,0.62715c-0.13504,0.21132 -0.41583,0.27316 -0.62715,0.13813c-0.21132,-0.13504 -0.27317,-0.41582 -0.13813,-0.62715z" fill="#000000"/><path d="M241.00848,181.05844c-0.03001,-0.18583 0.0963,-0.36079 0.28212,-0.3908c0.18583,-0.03001 0.36079,0.0963 0.3908,0.28212c0.03001,0.18583 -0.10833,0.16631 -0.29416,0.19632c-0.18583,0.03001 -0.34874,0.09818 -0.37877,-0.08765z" fill="#c478a9"/><path d="M239.4564,182.60438c-0.14004,-0.20804 -0.08491,-0.49022 0.12313,-0.63026c0.20804,-0.14004 0.49022,-0.08491 0.63026,0.12313c0.14004,0.20804 0.08492,0.49022 -0.12312,0.63026c-0.20804,0.14004 -0.49022,0.08491 -0.63026,-0.12313z" fill="#000000"/><path d="M239.7205,182.67111c-0.1824,-0.0465 -0.29256,-0.23205 -0.24607,-0.41444c0.0465,-0.1824 0.23205,-0.29256 0.41444,-0.24607c0.1824,0.0465 0.10939,0.16562 0.06289,0.34802c-0.0465,0.1824 -0.04887,0.359 -0.23127,0.3125z" fill="#c478a9"/><path d="M240.17697,182.72708c-0.01074,-0.08532 0.11887,-0.33802 0.35973,-0.36835c0.24087,-0.03033 0.46987,0.06646 0.48061,0.15177c0.01074,0.08531 -0.1575,0.32441 -0.39836,0.35475c-0.24086,0.03033 -0.43123,-0.05287 -0.44197,-0.13817z" fill="#000000"/><path d="M241.62766,181.46463c0.08236,0.02467 0.13303,0.22613 0.06339,0.4587c-0.06963,0.23257 -0.33321,0.35908 -0.41558,0.33441c-0.08236,-0.02467 -0.14007,-0.26648 -0.07044,-0.49905c0.06963,-0.23257 0.34026,-0.31873 0.42262,-0.29406z" data-paper-data="{&quot;index&quot;:null}" fill="#000000"/><path d="M240.45742,182.60868c-0.01137,-0.09032 0.05263,-0.17276 0.14295,-0.18413c0.09032,-0.01137 0.17276,0.05263 0.18414,0.14295c0.01137,0.09032 -0.05263,0.17276 -0.14296,0.18415c-0.09032,0.01137 -0.17276,-0.05263 -0.18414,-0.14296z" fill="#ffffff"/><path d="M241.21222,182.006c-0.012,-0.09534 0.05556,-0.18236 0.15089,-0.19437c0.09534,-0.012 0.18236,0.05556 0.19437,0.15089c0.012,0.09534 -0.05556,0.18236 -0.15089,0.19437c-0.09534,0.012 -0.18236,-0.05556 -0.19437,-0.15089z" fill="#ffffff"/></g><path d="M241.36817,182.44696c0.04573,0.04724 0.03957,0.15288 -0.02947,0.21971c-0.06904,0.06683 -0.17483,0.06957 -0.22056,0.02232c-0.04573,-0.04724 0.2043,-0.28927 0.25003,-0.24203z" fill="#000000"/><path d="M241.0097,182.98135c0.04356,0.06211 -0.01511,0.17839 -0.13103,0.2597c-0.11593,0.08132 -0.24523,0.09691 -0.28881,0.0348c-0.04356,-0.06211 0.01511,-0.17839 0.13103,-0.2597c0.11593,-0.08132 0.24523,-0.09691 0.28881,-0.0348z" fill="#ad597c"/><path d="M242.12194,181.99215c0.04356,0.06211 -0.01511,0.17839 -0.13103,0.2597c-0.11593,0.08132 -0.24523,0.09691 -0.28881,0.0348c-0.04356,-0.06211 0.01511,-0.17839 0.13103,-0.2597c0.11593,-0.08132 0.24523,-0.09691 0.28881,-0.0348z" fill="#ad597c"/></g><g fill="#83c4ac"><path d="M238.85691,180.46194l-0.26703,-0.57761c0,0 0.32287,-0.22597 0.51112,-0.28594c0.17235,-0.0549 0.57491,-0.06 0.57491,-0.06l0.10279,0.17425c0,0 -0.27064,0.19604 -0.4322,0.32737c-0.14358,0.11671 -0.4896,0.42192 -0.4896,0.42192z"/><path d="M240.29227,180.21825c-0.15701,-0.13674 -0.5337,-0.48932 -0.5337,-0.48932l-0.13677,-0.19366c0,0 0.76043,0.18922 0.93082,0.24994c0.18611,0.06632 0.50112,0.30312 0.50112,0.30312l-0.28649,0.56821c0,0 -0.33545,-0.31678 -0.47498,-0.43829z" data-paper-data="{&quot;index&quot;:null}"/><path d="M239.52975,181.1866c0,0 -0.05875,-0.4619 -0.07009,-0.75925c-0.01134,-0.29736 0.01744,-0.62182 0.01744,-0.62182l0.27518,-0.0616c0,0 0.00465,0.48527 0.02654,0.79489c0.0219,0.30962 0.09438,0.9144 0.09438,0.9144z"/><path d="M240.06723,181.49616c0,0 -0.09632,-0.62872 -0.15186,-0.9341c-0.05554,-0.30538 -0.19628,-0.86782 -0.19628,-0.86782l0.2454,0.02298c0,0 0.15822,0.48953 0.22095,0.78043c0.06273,0.29088 0.12033,0.75292 0.12033,0.75292z" data-paper-data="{&quot;index&quot;:null}"/></g></g><g stroke-width="0" stroke-linecap="butt" stroke-linejoin="miter"><path d="M227.18724,174.34772c1.6175,1.43307 1.14779,4.24347 1.14779,4.24347l-0.60503,0.74138c0,0 -0.25073,-0.85936 -2.0171,-3.06211c-1.67638,-0.8729 -3.60605,-2.04573 -3.60605,-2.04573c0,0 -0.26682,0.22942 0.22439,-0.30753c0.49121,-0.53696 0.34671,-0.31338 0.34671,-0.31338c0,0 2.23965,-1.26691 4.50926,0.74393z" fill="#cacacd" stroke="none"/><path d="M222.03393,174.26261c0,0 1.80684,-0.53725 3.73754,1.19168c2.05052,1.83622 1.98901,3.8662 1.98901,3.8662c0,0 -1.94922,2.09236 -4.71811,-0.40694c-2.46735,-2.2271 -1.00844,-4.65094 -1.00844,-4.65094z" fill="#c2e266" stroke="#000000"/><path d="M229.99949,176.47797l-5.46632,-5.01206c0,0 2.67465,-2.82774 5.36629,-0.48416c2.73062,2.37754 0.10001,5.49621 0.10001,5.49621z" fill="#c2e266" stroke="none"/><path d="M229.94615,176.55924l-1.67034,-3.83936l-3.73343,-1.25432l0.1854,-0.20941c0,0 1.84581,-0.95093 4.03024,0.93766c2.15719,1.86935 1.412,4.09633 1.412,4.09633z" fill="#cacacd" stroke="none"/><path d="M228.60062,172.66793c1.53052,1.45085 1.43255,3.81685 1.43255,3.81685l-1.98701,2.43372c0,0 -0.67968,-2.83489 -1.87751,-3.93807c-1.19781,-1.10319 -3.69841,-1.19728 -3.69841,-1.19728l2.06182,-2.32427c0,0 1.921,-0.82675 4.06856,1.20905z" fill="#c274a1" stroke="none"/><path d="M230.26544,180.03941c0,0 0.50725,-0.40114 0.78737,-0.69702c0.28013,-0.29589 0.60258,-0.77112 0.60258,-0.77112l8.01601,7.95339c0,0 -0.28265,0.63087 -0.57952,0.94603c-0.29687,0.31517 -0.73293,0.44727 -0.73293,0.44727l-8.0935,-7.87856z" fill="#c2e266" stroke="none"/><path d="M228.18157,178.62526l1.75476,-2.16364c0,0 1.82866,1.56196 1.78651,1.9048c-0.07136,0.58063 -1.32035,1.77259 -1.73574,1.75972c-0.10943,-0.00338 -1.80555,-1.50087 -1.80555,-1.50087z" fill="#cacacd" stroke="none"/></g><g><g data-paper-data="{&quot;index&quot;:null}" fill="#86cbb6" stroke="none" stroke-width="0" stroke-linecap="butt" stroke-linejoin="miter"><path d="M233.63246,171.07575c-0.44724,0.18119 -0.95002,0.45373 -0.95002,0.45373l-0.29451,-0.98355c0,0 0.85683,-0.29608 1.28916,-0.32405c0.43233,-0.02797 1.23503,0.23493 1.23503,0.23493l-0.57187,0.38796c0,0 -0.26053,0.04979 -0.70776,0.23097z"/><path d="M233.07262,172.20373c0,0 0.30211,-0.43655 0.47991,-0.67281c0.22164,-0.29452 0.74762,-0.95835 0.74762,-0.95835l0.57707,-0.14912c0,0 -0.54727,1.08342 -0.70879,1.43797c-0.11727,0.25741 -0.36888,0.80439 -0.36888,0.80439z"/></g><g stroke="none" stroke-width="0" stroke-linecap="butt" stroke-linejoin="miter"><path d="M233.18707,167.71108c0.64085,-0.56169 1.15685,-0.3783 1.59669,-0.13181c0.57594,0.31792 1.14165,0.8995 1.14165,0.8995c0,0 -0.67854,0.74998 -0.92408,1.28203c-0.24555,0.53206 -0.34554,1.46904 -0.34554,1.46904c0,0 -1.52424,-0.74032 -1.79455,-1.60946c-0.27032,-0.86913 -0.23887,-1.28387 0.32584,-1.9093z" data-paper-data="{&quot;index&quot;:null}" fill="#20201f"/><path d="M232.78045,168.69321c0.09473,-0.52597 1.12481,0.70621 1.12481,0.70621l-0.63216,0.83078c0,0 -0.61533,-0.85579 -0.49264,-1.537z" data-paper-data="{&quot;index&quot;:null}" fill="#b2b1b2"/></g><path d="M239.66738,166.6792c3.31203,-0.41705 6.28852,1.56045 6.64819,4.41685c0.35967,2.85639 -2.03368,5.51004 -5.3457,5.92709c-3.31203,0.41705 -6.28852,-1.56043 -6.6482,-4.41683c-0.35967,-2.85639 2.03367,-5.51005 5.3457,-5.9271z" fill="#f79eb4" stroke="none" stroke-width="0" stroke-linecap="butt" stroke-linejoin="miter"/><path d="M235.23712,173.76446c-0.00028,-0.00068 0.34164,1.13352 0.8261,1.72507c0.48447,0.59155 2.23985,2.1084 2.23985,2.1084l0.39423,0.86871c0,0 -1.47541,0.12762 -2.94768,-1.87346c-0.91702,-1.23909 -1.0199,-2.29501 -1.01167,-2.27981" fill="#f79eb4" stroke="#f89db5" stroke-width="0" stroke-linecap="butt" stroke-linejoin="round"/><g fill="#ffd5c5" stroke="none" stroke-width="1" stroke-linecap="round" stroke-linejoin="round"><path d="M236.45164,176.02568c0.00548,-0.05942 0.11378,0.04526 0.1616,0.08097c0.29547,0.2204 0.55167,-0.11002 0.72821,-0.28793c0.13565,-0.13667 0.37406,-0.23019 0.56086,-0.25596c0.90005,-0.11452 2.70529,0.25307 3.01827,0.22713c0.2913,-0.02413 1.07451,-0.59564 1.3691,-0.73914c0.30225,-0.14723 0.58331,-0.08081 0.63592,-0.04974c0.11032,0.06521 0.88548,0.47068 0.06265,1.61504c-0.11434,0.159 -0.88349,0.78808 -1.34572,0.90263c-0.3876,0.09601 -1.7327,0.46502 -2.81417,0.24828c-0.86189,-0.17275 -1.41406,-0.49849 -1.48457,-0.54035c-0.4309,-0.25601 -0.94212,-0.65574 -0.89215,-1.2009z"/><path d=""/></g><g fill="#000000" stroke="#000000" stroke-width="0.125" stroke-linecap="butt" stroke-linejoin="round"><path d="M235.38436,174.59692c0.00656,0.02393 -0.63576,-0.00272 -0.71554,-0.01524c-0.36334,-0.05694 -0.67462,-0.12766 -1.02413,-0.2441c-0.11151,-0.03714 -0.48517,-0.20728 -0.47947,-0.20614c0.1675,0.03345 0.32598,0.11961 0.49305,0.16032c0.27905,0.06793 0.56331,0.11112 0.84775,0.1517c0.4498,0.04745 0.73991,-0.01979 0.80444,-0.0069"/><path d="M235.19161,174.12597c0.0061,0.02232 -0.62497,-0.03865 -0.93798,-0.16022c-0.31301,-0.12156 -1.01497,-0.5635 -1.00637,-0.55059c0.02281,0.0342 0.64194,0.32118 1.07941,0.45443c0.43748,0.13325 0.76468,0.07955 0.78688,0.05109"/></g><g fill="#000000" stroke="none" stroke-width="1" stroke-linecap="round" stroke-linejoin="round"><path d="M237.71343,176.25547c-0.10817,0.02103 -0.51448,-0.17652 -0.37233,-0.31106c0.08217,-0.07777 0.59975,-0.20193 0.76131,-0.11337c0.21257,0.11654 -0.15621,0.3593 -0.38899,0.42443z"/><path d=""/></g><path d="M244.82123,171.73201c0.02437,0.01079 0.1516,2.3022 0.07034,2.83937c-0.12195,0.80603 -0.38357,1.59169 -0.83121,2.27628c-0.19033,0.29105 -0.39482,0.53734 -0.62995,0.78953c-0.0761,0.08166 -0.40175,0.35893 -0.40175,0.35893c0,0 0.2515,-1.06812 0.08501,-2.71828c-0.08843,-0.87628 -0.45118,-2.7947 -0.42425,-2.74467" fill="#f79eb4" stroke="#f89db5" stroke-width="0" stroke-linecap="butt" stroke-linejoin="round"/><path d="M246.10628,170.89527c0.22323,0.33419 0.3545,2.19876 0.15798,3.59306c-0.15145,1.07451 -0.39316,1.38951 -0.81587,2.00435c-0.47872,0.69629 -0.87886,0.81063 -0.87886,0.81063c0,0 0.31911,-1.20512 0.3672,-1.99552c0.0481,-0.79041 -0.00919,-3.60614 -0.02555,-3.61884" fill="#f79eb4" stroke="#f89db5" stroke-width="0" stroke-linecap="butt" stroke-linejoin="round"/><g stroke="none" stroke-width="1" stroke-linecap="round" stroke-linejoin="round"><path d="M235.78116,169.14269c0.08484,-0.12961 2.25168,-2.20622 5.27897,-2.12603c3.74668,0.13795 4.62307,4.16373 4.62036,4.16343c-0.03778,-0.00426 -0.82141,-1.48724 -1.85699,-2.05051c-1.34279,-0.7304 -2.1207,-1.15479 -3.49921,-1.19979c-1.74902,-0.05711 -3.96277,1.62352 -4.04947,1.6908" fill="#20201f"/><path d="" fill="#ee1a40"/></g><path d="M236.04643,171.91371c-0.03267,-0.02032 -1.65947,-0.00951 -2.19558,0.2756c-0.98186,0.52215 -2.20697,2.02663 -2.2297,2.03196c-0.01585,0.00366 0.10962,-1.01559 0.34484,-1.7294c0.1696,-0.77367 1.12665,-1.42671 1.43186,-1.54522c1.71395,-0.65483 2.72907,-0.17854 2.70425,-0.19399" fill="#f79eb4" stroke="#f89db5" stroke-width="0" stroke-linecap="butt" stroke-linejoin="round"/><path d="M236.09392,170.75611c-0.11355,-0.06983 -1.46518,-0.76337 -2.51959,-0.8276c-0.76,-0.0463 -2.7219,-0.2171 -2.7219,-0.2171c0,0 1.63848,-0.43903 3.66805,-0.78724c0.60372,-0.04432 0.77909,0.00323 1.08954,0.21934c0.31045,0.2161 1.31821,1.4596 1.33759,1.54089" fill="#f79eb4" stroke="#f89db5" stroke-width="0" stroke-linecap="butt" stroke-linejoin="round"/><path d="M241.06714,171.35457c-0.60275,0.0759 -2.72617,2.03089 -2.72617,2.03089c0,0 0.63761,-3.52328 3.44245,-3.14618c1.19901,0.4414 0.82929,2.58371 0.82929,2.58371c0,0 -0.94281,-1.54431 -1.54556,-1.46841z" data-paper-data="{&quot;index&quot;:null}" fill="#20201f" stroke="none" stroke-width="0" stroke-linecap="butt" stroke-linejoin="miter"/><path d="M238.20565,173.97065c0.52502,-1.02523 0.59807,-2.7614 2.59921,-3.24976c0.43469,-0.10609 1.80531,0.31032 1.7911,2.47131c-0.00473,0.71913 -0.19242,1.8239 -1.38019,2.56803c-0.62365,0.27375 -2.2427,-0.26442 -2.91795,-0.21441c-1.18553,0.08784 -0.94758,0.59545 -1.53139,0.64746c-0.14612,0.01302 -1.07357,-0.73827 -1.55282,-1.90982c-0.22599,-0.55244 -0.28504,-1.39343 -0.21744,-1.40135c0.44613,-0.05226 0.94243,0.8239 1.41059,1.29198c0.32745,0.32741 0.74267,0.57903 1.07333,0.50703c0.19275,-0.04197 0.39087,-0.05691 0.72555,-0.71048z" fill="#ffffff" stroke="none" stroke-width="0" stroke-linecap="butt" stroke-linejoin="miter"/><path d="M236.22997,172.91986c-0.10363,0.098 -1.21482,0.69252 -1.39968,1.00447c-0.54429,0.93077 -0.96585,2.25928 -0.92818,2.27948c0.00174,0.00094 -0.28092,-1.72333 -0.33212,-2.33163c-0.0357,-0.14675 0.62245,-1.24942 0.84963,-1.42237c0.79082,-0.60201 1.7373,-0.48943 1.70067,-0.45485" fill="#f79eb4" stroke="#f89db5" stroke-width="0" stroke-linecap="butt" stroke-linejoin="round"/><g fill="#000000" stroke="#000000" stroke-width="0.125" stroke-linecap="butt" stroke-linejoin="round"><path d="M242.01708,171.28416c0.04673,-0.02413 0.09124,0.00579 0.13781,0.00244c0.04883,-0.00351 0.26987,-0.05292 0.43193,-0.11869c0.83216,-0.33777 1.18133,-0.90225 1.18133,-0.90225c0,0 -0.107,0.39821 -1.25327,1.08747c-0.17854,0.10737 -0.33218,0.11372 -0.36093,0.08102"/><path d="M242.43545,171.945c0.03391,-0.0004 0.10163,0.05051 0.1331,0.06796c0.07139,0.03962 0.59268,0.26231 1.31537,0.05492c0.23931,-0.0701 0.97997,-0.38798 0.97997,-0.38798c0,0 -0.35208,0.27447 -1.01887,0.46131c-0.27964,0.07835 -0.89433,0.15945 -1.1458,0.11076c-0.13561,-0.02626 -0.1772,-0.06438 -0.1772,-0.06438"/></g><g stroke="none" stroke-linecap="butt" stroke-linejoin="miter"><path d="M240.15059,174.15691c0.13587,0.7077 0.06041,1.31703 -0.16854,1.36099c-0.22895,0.04395 -0.52472,-0.4941 -0.6606,-1.2018c-0.13587,-0.7077 -0.0604,-1.31704 0.16855,-1.361c0.22895,-0.04395 0.52472,0.4941 0.66059,1.20181z" fill="#169c5b" stroke-width="NaN"/><path d="M239.94228,174.36108c0.05674,0.29559 0.02121,0.55087 -0.07939,0.57019c-0.1006,0.01932 -0.22817,-0.20466 -0.28491,-0.50026c-0.05674,-0.29559 -0.02121,-0.55087 0.07939,-0.57019c0.1006,-0.01932 0.22817,0.20466 0.28491,0.50026z" fill="#000000" stroke-width="0"/><path d="M239.73789,173.70344c0.05742,0.29907 0.00554,0.56039 -0.11587,0.5837c-0.12142,0.02331 -0.26639,-0.20022 -0.32381,-0.49928c-0.05742,-0.29907 -0.00554,-0.5604 0.11587,-0.58371c0.12142,-0.02331 0.26639,0.20023 0.32381,0.49928z" fill="#ffffff" stroke-width="0"/></g><g stroke="none" stroke-linecap="butt" stroke-linejoin="miter"><path d="M236.82149,175.06768c0.09582,0.49917 0.04262,0.92895 -0.11888,0.95995c-0.16151,0.031 -0.3701,-0.34851 -0.46594,-0.84768c-0.09582,-0.49917 -0.04261,-0.92895 0.11889,-0.95995c0.16151,-0.031 0.3701,0.3485 0.46593,0.84767z" fill="#169c5b" stroke-width="NaN"/><path d="M236.67459,175.21168c0.04004,0.2085 0.01496,0.38854 -0.05601,0.40218c-0.07096,0.01363 -0.16093,-0.14435 -0.20096,-0.35284c-0.04004,-0.2085 -0.01496,-0.38854 0.05601,-0.40217c0.07096,-0.01363 0.16092,0.14434 0.20095,0.35283z" fill="#000000" stroke-width="0"/><path d="M236.53039,174.74782c0.04049,0.21094 0.00391,0.39525 -0.08172,0.4117c-0.08565,0.01645 -0.18789,-0.14122 -0.22841,-0.35215c-0.04049,-0.21094 -0.00392,-0.39527 0.08173,-0.41172c0.08565,-0.01645 0.18788,0.14124 0.2284,0.35217z" fill="#ffffff" stroke-width="0"/></g><path d="M242.32106,176.33584c0,0 -0.30957,0.18839 -0.50357,0.2345c-0.19399,0.0461 -0.76265,0.1243 -0.76265,0.1243" data-paper-data="{&quot;index&quot;:null}" fill="none" stroke="#000000" stroke-width="0.125" stroke-linecap="round" stroke-linejoin="miter"/><g fill="#86cbb6" stroke="none" stroke-width="0" stroke-linecap="butt" stroke-linejoin="miter"><path d="M243.83381,169.17864l-0.77722,-0.27981c0,0 0.85166,-0.54233 1.3606,-0.63806c0.50895,-0.09573 1.58895,-0.00676 1.58895,-0.00676l-0.0496,1.22628c0,0 -0.66302,-0.16662 -1.23463,-0.24392c-0.57161,-0.0773 -0.88807,-0.05774 -0.88807,-0.05774z"/><path d="M244.99957,171.12726c0,0 -0.45346,-0.55887 -0.66554,-0.82222c-0.29212,-0.36272 -1.24695,-1.45521 -1.24695,-1.45521l0.71247,0.00167c0,0 0.80584,0.61288 1.14978,0.88826c0.27591,0.22092 0.75514,0.63695 0.75514,0.63695z"/></g><path d="M243.82479,167.52125c0.328,1.20062 -0.28565,2.30051 -0.28565,2.30051c0,0 -0.33058,-0.32416 -1.96886,-0.86878c-0.9577,-0.31836 -2.11715,-0.49266 -2.11715,-0.49266c0,0 0.22402,-1.08658 0.65388,-1.87681c0.32556,-0.60775 0.78532,-1.19882 1.93724,-1.02304c1.11108,0.30529 1.45254,0.76016 1.78054,1.96077z" fill="#20201f" stroke="none" stroke-width="0" stroke-linecap="butt" stroke-linejoin="miter"/><path d="M242.7462,168.26649c0,0 -0.21898,-0.14397 -1.17289,-0.31823c-0.55764,-0.10186 -1.20665,-0.11795 -1.20665,-0.11795c0,0 0.28314,-1.27995 1.32671,-1.12771c1.10025,0.16051 1.05284,1.56389 1.05284,1.56389z" fill="#b2b1b2" stroke="none" stroke-width="0" stroke-linecap="butt" stroke-linejoin="miter"/></g><g stroke="none" stroke-width="0" stroke-linecap="butt" stroke-linejoin="miter"><path d="M238.77346,181.64957c1.23864,0.80261 1.78505,2.15966 1.22041,3.03105c-0.56464,0.8714 -2.0265,0.92714 -3.26514,0.12453c-1.23865,-0.80261 -1.78506,-2.15967 -1.22042,-3.03105c0.56463,-0.87139 2.02651,-0.92714 3.26515,-0.12454z" fill="#20201f"/><path d="M241.48257,178.23202c0.30104,-0.25046 0.50405,-0.16964 0.65557,-0.01714c0.22551,0.227 0.22182,0.47162 0.00863,0.70148c-0.85086,0.91734 -1.57803,1.73495 -2.12449,2.40248c-0.33313,0.40693 -1.57547,2.04233 -1.57547,2.04233l-0.95948,-0.75376c0,0 0.76508,-0.8742 1.59086,-1.88291c0.57758,-0.70553 1.49527,-1.73614 2.4044,-2.49248z" fill="#fed5c7"/><path d="M239.50091,179.90111l0.7797,-0.83993l1.15123,0.86839l-0.75096,0.85856z" fill="#83c4ac"/><path d="M240.73397,177.9344c0.43703,-0.49505 1.15955,-0.60724 1.64337,-0.22694c0.48381,0.3803 0.53245,1.09853 0.10867,1.60418c-0.75344,0.89897 -1.26153,0.76461 -1.74534,0.3843c-0.48381,-0.3803 -0.73526,-0.93622 -0.0067,-1.76155z" fill="#20201f"/><path d="M238.29614,180.75277l1.19466,-0.89902l1.2087,0.90564l-0.60812,1.44231l-0.61118,-0.25666l-0.88123,-0.72654z" fill="#bebec0"/><g><path d="M236.45042,182.85717l2.07903,1.49554c0,0 0.18164,0.33326 0.07533,0.90924c-0.06902,0.37406 -0.48382,0.84613 -0.48382,0.84613c0,0 0.7031,-0.23558 0.82643,0.35365c0.07919,0.37833 -0.82761,1.09702 -1.20452,1.27084c-0.22188,0.10233 -0.6699,0.14793 -0.99991,0.02748c-0.20818,-0.07598 -0.38237,-0.32733 -0.38237,-0.32733c0,0 -0.31675,0.23222 -0.59293,-0.08265c-0.08462,-0.09646 -0.22751,-0.20451 -0.22751,-0.20451c0,0 -0.27821,0.09498 -0.4357,0.0845c-0.1575,-0.01048 -0.37221,-0.15825 -0.37221,-0.15825l-0.13509,-0.41624c0,0 -0.56153,-0.05584 -0.65668,-0.1217c-0.37326,-0.25832 -0.26443,-0.74978 -0.20774,-1.01393c0.1038,-0.48363 0.48979,-1.51048 0.60932,-1.58603c0.75024,-0.47414 2.10841,-1.07674 2.10841,-1.07674z" fill="#20201f"/><path d="M238.12097,186.10806c0,0 0.7031,-0.23558 0.82643,0.35365c0.07919,0.37833 -0.29567,0.76002 -0.67258,0.93385c-0.22188,0.10233 -0.15385,-1.28749 -0.15385,-1.28749z" fill="#c0c2c6"/></g></g></g></g></svg>