<svg version="1.1" xmlns="http://www.w3.org/2000/svg" xmlns:xlink="http://www.w3.org/1999/xlink" width="31.36891" height="34.9232" viewBox="0,0,31.36891,34.9232"><g transform="translate(-221.61064,-165.41965)"><g data-paper-data="{&quot;isPaintingLayer&quot;:true}" fill-rule="nonzero" stroke-miterlimit="10" stroke-dasharray="" stroke-dashoffset="0" style="mix-blend-mode: normal"><g stroke-linejoin="miter"><path d="M239.83477,199.8536c0,0 1.95577,-0.96359 2.78492,-1.59582c0.67203,-0.51244 0.50289,-4.69524 0.50289,-4.69524c0,0 1.36224,0.263 1.01735,1.74589c-0.09699,0.41704 -0.0456,1.07911 -0.35989,1.98037c-0.31429,0.90126 -0.66661,1.6977 -1.40144,2.19048c-0.73482,0.49277 -2.18804,0.94165 -2.97531,0.85209c-1.09355,-0.15151 -0.82353,-0.47626 -0.82353,-0.47626z" fill="#947043" stroke="none" stroke-width="0" stroke-linecap="butt"/><path d="M239.75977,192.60241l2.94766,-0.71996l0.21526,0.68913l-0.17186,0.08819c0,0 0.2483,0.15982 0.28016,0.22955c0.13952,0.30547 -0.00984,0.29883 -0.00984,0.29883c0,0 0.34723,0.50255 0.56219,0.83358c0.21499,0.33101 0.02706,1.90545 0.01618,1.96568c-0.09436,0.52307 -0.14905,1.33262 -0.49808,2.09878c-0.2941,0.64555 -1.32816,1.37485 -2.14342,1.72291c-1.10993,0.33739 -2.44822,0.18041 -2.44822,0.18041c0,0 -0.32358,-1.56796 -0.0895,-2.61374c0.40512,-0.92111 0.5446,-1.36226 0.67693,-1.77155c0.10754,-0.33265 0.27666,-1.22318 0.27666,-1.22318l-0.02801,-0.42089l0.13281,-0.33679z" fill="#20201f" stroke="none" stroke-width="0" stroke-linecap="butt"/><path d="M242.09784,192.50455c0,0 0.34278,0.51858 0.56781,0.92303c0.28516,0.51253 0.96619,1.84571 0.96619,1.84571" fill="none" stroke="#c8c7c6" stroke-width="0.125" stroke-linecap="round"/><path d="M242.64716,190.44387c0.06493,0.74094 0.28061,0.93077 0.01677,1.41764c-0.26385,0.48687 -0.65546,0.74169 -1.25074,0.85932c-1.09512,0.08987 -1.43232,0.04145 -1.88217,-0.2136c-0.16438,-0.1433 -0.56175,-1.15063 -0.49784,-1.84822c0.01675,-0.18292 0.71744,-1.17651 1.46365,-1.22092c0.74621,-0.04442 2.06875,0.07444 2.15034,1.00579z" fill="#c274a1" stroke="none" stroke-width="0" stroke-linecap="butt"/><path d="M242.63478,190.50513c0.06491,0.74096 -1.26078,0.92676 -1.64737,0.93019c-0.47144,0.00419 -2.03052,-0.01748 -1.96663,-0.71507c0.01674,-0.18292 0.71744,-1.17651 1.46366,-1.22092c0.74621,-0.04442 2.06874,0.07445 2.15034,1.00579z" fill="#cacacd" stroke="none" stroke-width="0" stroke-linecap="butt"/><path d="M240.93817,199.04813c0.03022,0.22942 0.26151,0.26928 0.20376,0.45347c-0.0968,0.3087 -0.32046,0.31544 -0.38402,0.30259c-0.10149,-0.02053 -0.19598,-0.32863 -0.15603,-0.71477c0.03996,-0.38614 0.08587,-0.82981 0.08587,-0.82981c0,0 0.2202,0.5591 0.25042,0.78853z" fill="#c8c7c6" stroke="none" stroke-width="0" stroke-linecap="butt"/><path d="M238.34813,197.75642c0,0 0.18592,-1.13065 1.46539,-1.06872c1.82198,0.08818 2.36653,2.17086 2.36653,2.17086" fill="none" stroke="#c8c7c6" stroke-width="0.125" stroke-linecap="round"/><path d="M238.76567,198.43586c0,0 0.09368,0.43609 0.17522,0.81562c0.08153,0.37955 0.02097,0.69607 -0.07771,0.72747c-0.06181,0.01967 -0.28486,0.03716 -0.41453,-0.25923c-0.07736,-0.17685 0.14826,-0.24151 0.15347,-0.47286c0.00521,-0.23134 0.16358,-0.811 0.16358,-0.811z" data-paper-data="{&quot;index&quot;:null}" fill="#c8c7c6" stroke="none" stroke-width="0" stroke-linecap="butt"/></g><path d="M241.19956,184.52961l0.19691,3.45767l0.01101,2.24589c0,0 -0.31614,0.28326 -0.54203,0.41755c-0.22587,0.13428 -0.60576,0.15635 -0.60576,0.15635l-0.14198,-2.30034l-0.16517,-3.74352z" fill="#20201f" stroke="none" stroke-width="0" stroke-linecap="butt" stroke-linejoin="miter"/><g stroke-linejoin="miter"><path d="M246.18437,198.67991c0,0 1.37033,-1.69582 1.85731,-2.61778c0.39472,-0.74728 -1.51531,-4.47237 -1.51531,-4.47237c0,0 1.34674,-0.33336 1.65645,1.15727c0.0871,0.41921 0.41178,0.9985 0.50501,1.94842c0.09324,0.94992 0.10794,1.82069 -0.35202,2.57649c-0.45996,0.75579 -1.59033,1.77343 -2.34242,2.02277c-1.05609,0.32172 -0.94738,-0.0864 -0.94738,-0.0864l1.13837,-0.5284z" fill="#947043" stroke="none" stroke-width="0" stroke-linecap="butt"/><path d="M243.07127,192.13058l2.37282,-1.89125l0.48476,0.53502l-0.11895,0.15221c0,0 0.29246,0.04078 0.35066,0.09069c0.2549,0.21864 0.11656,0.27534 0.11656,0.27534c0,0 0.52618,0.31028 0.86026,0.52043c0.3341,0.21013 0.82471,1.71793 0.84014,1.77716c0.13401,0.51435 0.42435,1.272 0.42932,2.11392c0.00418,0.70937 -0.62801,1.80548 -1.22176,2.46374c-0.86564,0.7723 -2.14614,1.19183 -2.14614,1.19183c0,0 -0.95211,-1.28713 -1.17883,-2.33452c-0.01914,-1.00607 -0.07779,-1.46502 -0.1296,-1.89205c-0.04209,-0.34705 -0.26258,-1.22628 -0.26258,-1.22628l-0.20218,-0.37021l-0.0209,-0.36142z" fill="#20201f" stroke="none" stroke-width="0" stroke-linecap="butt"/><path d="M245.15211,191.05991c0,0 0.52886,0.32669 0.90291,0.59927c0.474,0.34541 1.65196,1.26935 1.65196,1.26935" fill="none" stroke="#c8c7c6" stroke-width="0.125" stroke-linecap="round"/><path d="M244.78529,188.95905c0.37007,0.64518 0.64553,0.72689 0.61054,1.27954c-0.03501,0.55266 -0.28341,0.94836 -0.77425,1.30511c-0.95614,0.54144 -1.2825,0.6391 -1.79787,0.59654c-0.20936,-0.06103 -0.99301,-0.80835 -1.22795,-1.46829c-0.0616,-0.17304 0.15706,-1.36903 0.81563,-1.7227c0.65858,-0.35368 1.90876,-0.80117 2.37392,0.0098z" fill="#c274a1" stroke="none" stroke-width="0" stroke-linecap="butt"/><path d="M244.79976,189.01985c0.37007,0.64519 -0.75504,1.37054 -1.10446,1.53599c-0.4261,0.20178 -1.85015,0.83683 -2.08511,0.1769c-0.06161,-0.17304 0.15706,-1.36903 0.81563,-1.72271c0.65858,-0.35368 1.90876,-0.80116 2.37392,0.0098z" fill="#cacacd" stroke="none" stroke-width="0" stroke-linecap="butt"/><path d="M246.84752,197.48555c0.12376,0.19551 0.35041,0.13457 0.37535,0.32597c0.04178,0.32079 -0.15835,0.42085 -0.22145,0.43588c-0.10073,0.02399 -0.31586,-0.21594 -0.44176,-0.58317c-0.12588,-0.36722 -0.27053,-0.78915 -0.27053,-0.78915c0,0 0.43464,0.41493 0.55841,0.61046z" fill="#c8c7c6" stroke="none" stroke-width="0" stroke-linecap="butt"/><path d="M244.95694,197.64133c0,0 0.24467,0.37293 0.45763,0.69751c0.21295,0.32459 0.27062,0.64163 0.18993,0.70652c-0.05056,0.04063 -0.25229,0.13741 -0.48012,-0.09227c-0.13595,-0.13703 0.05116,-0.27873 -0.02744,-0.49638c-0.0786,-0.21764 -0.13997,-0.8154 -0.13997,-0.8154z" data-paper-data="{&quot;index&quot;:null}" fill="#c8c7c6" stroke="none" stroke-width="0" stroke-linecap="butt"/><path d="M243.95449,197.4009c0,0 -0.30607,-1.1042 0.88112,-1.58528c1.69058,-0.68509 3.05937,0.97638 3.05937,0.97638" fill="none" stroke="#c8c7c6" stroke-width="0.125" stroke-linecap="round"/><g fill="#83c4ac" stroke="none" stroke-width="0" stroke-linecap="butt"><path d="M245.44882,192.2779c-0.12241,0.04906 -0.74403,-0.26463 -0.74403,-0.26463l0.59283,-0.84725l0.21431,0.02338c0,0 0.04064,1.04693 -0.0631,1.08851z"/><path d="M245.77287,190.39541c0.13069,0.01764 0.46117,0.44623 0.46117,0.44623l-0.70207,0.41474l-0.28107,-0.07078c0,0 0.4112,-0.80512 0.52195,-0.79019z" data-paper-data="{&quot;index&quot;:null}"/><path d="M246.42161,192.76157c-0.11177,0.06998 -0.77916,-0.12852 -0.77916,-0.12852l0.38865,-0.93823l0.25961,-0.01569c0,0 0.22562,1.02314 0.1309,1.08246z"/><path d="M246.29236,190.79962c0.13055,-0.01872 0.56546,0.30339 0.56546,0.30339l-0.56218,0.59065l-0.28972,0.00862c0,0 0.1758,-0.88681 0.28643,-0.90267z" data-paper-data="{&quot;index&quot;:null}"/><path d="M247.08536,193.17921l-0.46811,-0.8573c0,0 -0.29846,-0.24779 -0.2027,-0.3902c0.09577,-0.14239 0.34206,0.18298 0.34206,0.18298l0.72986,0.49662l0.02785,0.39528z"/></g></g><path d="M241.88648,184.65102l1.48569,3.47238l0.54627,1.23739c0,0 -0.18991,0.39701 -0.39093,0.58321c-0.20103,0.1862 -0.70686,0.43362 -0.70686,0.43362l-0.70661,-1.66467l-1.54394,-3.84196z" fill="#20201f" stroke="none" stroke-width="0" stroke-linecap="butt" stroke-linejoin="miter"/><g stroke="none" stroke-width="0" stroke-linecap="butt" stroke-linejoin="miter"><path d="M231.17002,178.67568c0.83334,0.17148 2.17186,0.65849 2.17186,0.65849l0.44115,2.41516c0,0 -0.09617,0.3509 -0.55258,0.67794c-0.29641,0.21239 -0.89672,0.26253 -0.89672,0.26253c0,0 0.64216,0.30484 0.33549,0.79373c-0.1969,0.31389 -1.30094,0.20719 -1.67678,0.07659c-0.22126,-0.07687 -0.56095,-0.34329 -0.70874,-0.64593c-0.09323,-0.1909 -0.04635,-0.4803 -0.04635,-0.4803c0,0 -0.37315,-0.05028 -0.35447,-0.45136c0.00572,-0.12289 -0.02112,-0.29249 -0.02112,-0.29249c0,0 -0.25525,-0.11942 -0.35704,-0.23137c-0.10178,-0.11195 -0.15181,-0.35678 -0.15181,-0.35678l0.18351,-0.37724c0,0 -0.35062,-0.41196 -0.37253,-0.52068c-0.08597,-0.42657 0.31596,-0.69358 0.53076,-0.83828c0.39329,-0.26494 1.34262,-0.71734 1.47539,-0.69001z" fill="#20201f"/><path d="M236.21658,179.07663c0.80985,-0.32886 2.05514,-0.77529 3.16735,-0.99483c0.36829,-0.0727 0.5021,0.08847 0.55966,0.28634c0.08567,0.29453 -0.02967,0.49875 -0.31458,0.59441c-1.13706,0.38177 -2.12423,0.73633 -2.89044,1.04747c-0.46712,0.18968 -1.9511,0.90358 -1.9511,0.90358l-0.95147,-0.95519c0,0 1.22272,-0.41162 2.38057,-0.88179z" fill="#fed5c7"/><path d="M234.21736,178.44076c0.91975,0.18704 1.43831,1.092 1.52577,2.15612c0.08746,1.06412 -0.26562,2.21606 -1.18395,2.00273c-0.91833,-0.21333 -1.86968,-1.34889 -1.98,-2.6912c-0.11033,-1.3423 0.71843,-1.6547 1.63819,-1.46765z" fill="#20201f"/><path d="M232.25489,182.54181c0,0 0.72753,0.14332 0.54302,0.71636c-0.11846,0.36793 -0.63311,0.51402 -1.04664,0.47849c-0.24345,-0.02091 0.50362,-1.19485 0.50362,-1.19485z" fill="#c0c2c6"/><path d="M231.6692,181.25383c0,0 0.72753,0.14332 0.54302,0.71636c-0.11846,0.36793 -0.63311,0.51402 -1.04664,0.47849c-0.24345,-0.02091 0.50362,-1.19485 0.50362,-1.19485z" fill="#c0c2c6"/><path d="M231.18234,180.07786c0,0 0.72753,0.14332 0.54302,0.71636c-0.11846,0.36793 -0.63311,0.51402 -1.04664,0.47849c-0.24345,-0.02091 0.50362,-1.19485 0.50362,-1.19485z" fill="#c0c2c6"/><path d="M232.79176,179.5131c0,0 0.62459,0.39966 0.24315,0.8654c-0.24491,0.29905 -0.77732,0.24663 -1.14914,0.06222c-0.2189,-0.10857 0.906,-0.92763 0.906,-0.92763z" fill="#c0c2c6"/><path d="M230.99084,179.15693c0,0 0.72753,0.14332 0.54302,0.71636c-0.11846,0.36793 -0.63311,0.51402 -1.04664,0.47849c-0.24345,-0.02091 0.50362,-1.19485 0.50362,-1.19485z" fill="#c0c2c6"/><g><path d="M236.58217,178.75243l1.09278,-0.34535l0.57224,1.32362l-1.07699,0.37574z" fill="#83c4ac"/><path d="M238.6256,177.65115c0.62449,-0.21466 1.3082,0.04457 1.54109,0.6142c0.2329,0.56963 -0.07948,1.21818 -0.6977,1.4486c-1.09909,0.40964 -1.47455,0.04191 -1.70746,-0.52772c-0.2329,-0.56963 -0.17703,-1.17721 0.86406,-1.53507z" fill="#20201f"/><path d="M235.11399,178.89806l1.48277,-0.19181l0.60383,1.38439l-1.24103,0.95388l-0.40472,-0.52499l-0.40751,-1.06694z" fill="#bebec0"/></g></g><g data-paper-data="{&quot;index&quot;:null}" stroke-width="0" stroke-linecap="butt" stroke-linejoin="miter"><g data-paper-data="{&quot;index&quot;:null}"><path d="M229.64881,168.95443c-0.10526,-1.05824 0.67047,-2.00176 1.7326,-2.1074c1.06214,-0.10564 2.00849,0.66659 2.11374,1.72483c0.10526,1.05824 -0.67045,2.00176 -1.73258,2.1074c-1.06214,0.10564 -2.00851,-0.66659 -2.11376,-1.72483z" fill="#c2e266" stroke="none"/><path d="M230.37623,169.52035c-0.06503,-0.65378 0.41419,-1.23669 1.07039,-1.30195c0.6562,-0.06527 1.24085,0.41181 1.30588,1.0656c0.06503,0.65378 -0.41419,1.23669 -1.07039,1.30195c-0.6562,0.06527 -1.24085,-0.41182 -1.30588,-1.0656z" fill="#c2e266" stroke="#000000"/><path d="M230.38671,173.22757c-0.445,-0.99431 0.2285,-2.16399 0.2285,-2.16399l2.09141,-0.22296c0,0 0.17257,0.18686 0.63244,1.44974c0.47749,1.31129 -0.65271,3.40088 -0.65271,3.40088c0,0 -1.85464,-1.46936 -2.29964,-2.46367z" fill="#e8edf4" stroke="#000000"/><path d="M231.71433,171.18053c-0.50852,0.05286 -1.39042,-0.15121 -1.39042,-0.15121l0.1493,-0.69963c0,0 0.66544,0.34028 1.11991,0.32095c0.45446,-0.01932 1.05661,-0.4135 1.05661,-0.4135l0.32943,0.45955c0,0 -0.6838,0.42342 -1.26483,0.48382z" fill="#dbded5" stroke="#000000"/></g><g data-paper-data="{&quot;index&quot;:null}" stroke="none"><path d="M238.11339,174.31454c0.20019,-0.01991 0.39598,0.30081 0.43731,0.71634c0.04133,0.41554 -0.08744,0.76854 -0.28764,0.78845c-0.20019,0.01991 -0.396,-0.30081 -0.43733,-0.71634c-0.04133,-0.41554 0.08745,-0.76854 0.28766,-0.78845z" fill="#000000"/><path d="M240.03398,179.4245c0.20853,-0.02074 0.92027,0.81799 0.93845,1.00083c0.01819,0.18284 -0.2126,1.41925 -0.42112,1.43999c-0.20853,0.02074 -1.28651,-0.20637 -1.28651,-0.20637c0,0 0.56066,-2.21372 0.76919,-2.23446z" fill="#807d5a"/><path d="M233.00281,170.02298l0.11593,-0.1635l5.42689,5.387l-0.06977,0.32101z" fill="#6e6e73"/><path d="M234.99493,171.54714l-0.27014,0.35107l-1.30269,-1.23816l0.30034,-0.35407z" fill="#c2e266"/></g></g><g stroke-width="0" stroke-linecap="butt" stroke-linejoin="miter"><g data-paper-data="{&quot;index&quot;:null}"><path d="M250.55237,170.34816c-1.36255,0.13552 -2.57658,-0.85511 -2.7116,-2.21266c-0.13503,-1.35754 0.86007,-2.56792 2.22263,-2.70345c1.36255,-0.13552 2.57658,0.85512 2.7116,2.21267c0.13503,1.35754 -0.86008,2.56792 -2.22263,2.70344z" fill="#c2e266" stroke="none"/><path d="M250.62998,170.21048c-0.84178,0.08373 -1.5918,-0.52831 -1.67522,-1.367c-0.08342,-0.8387 0.53135,-1.58646 1.37314,-1.67019c0.84178,-0.08373 1.59181,0.52828 1.67523,1.36699c0.08342,0.8387 -0.53136,1.58647 -1.37314,1.6702z" fill="#c2e266" stroke="#000000"/><path d="M252.92672,173.2055c-0.30843,1.36298 -2.26973,3.67965 -2.26973,3.67965c0,0 -1.94947,-2.34249 -1.68028,-4.11234c0.25926,-1.70454 0.42908,-1.98316 0.42908,-1.98316l2.68671,-0.24806c0,0 1.14264,1.30093 0.83422,2.66391z" fill="#e8edf4" stroke="#000000"/><path d="M250.7397,170.96639c-0.74602,0.07088 -1.71302,-0.28889 -1.71302,-0.28889l0.2982,-0.66123c0,0 0.85693,0.34361 1.4334,0.25308c0.57646,-0.09053 1.32739,-0.68667 1.32739,-0.68667l0.36456,0.84221c0,0 -1.0576,0.47949 -1.71051,0.54151z" fill="#dbded5" stroke="#000000"/></g><g data-paper-data="{&quot;index&quot;:null}" stroke="none"><path d="M245.00666,178.88988c0.24675,0.40174 0.25571,2.17751 0.25571,2.17751l-3.09811,0.32764c0,0 -1.13792,-1.18222 -0.9613,-2.63055c0.12984,-1.06473 1.54014,-2.50919 1.73892,-2.53501c1.28074,-0.16638 1.81801,2.25866 2.06476,2.66041z" fill="#c2e266"/><path d="M244.04454,177.44398c0.05302,0.53307 -0.11218,0.98591 -0.36899,1.01146c-0.25681,0.02554 -0.508,-0.38589 -0.56102,-0.91896c-0.05302,-0.53307 0.11219,-0.98591 0.36901,-1.01146c0.25681,-0.02554 0.50798,0.38588 0.561,0.91896z" fill="#000000"/><path d="M245.32702,183.25592c-0.06282,0.85796 -0.38919,2.25692 -0.38919,2.25692l-1.12709,0.5972c0,0 -1.47769,-0.43024 -1.52814,-1.19966c-0.02505,-0.38205 -0.11538,-3.37561 -0.11538,-3.37561l1.14749,-0.90287c0,0 0.60551,-0.00844 0.97872,0.06244c0.37321,0.07088 0.97097,0.35837 0.97097,0.35837c0,0 0.12542,1.34526 0.0626,2.20322z" fill="#20201f"/><path d="M243.89127,186.05306c0,0 -1.29838,0.55803 -1.5659,0.58464c-0.26752,0.02661 -0.87021,-1.47013 -0.89354,-1.70468c-0.02333,-0.23455 0.65988,-1.46929 0.9274,-1.49589c0.26752,-0.02661 1.53203,2.61592 1.53203,2.61592z" fill="#c274a1"/><path d="M243.34422,178.19246l-0.16885,-0.3861l5.46417,-8.14657l0.18712,0.17635z" fill="#6e6e73"/><path d="M247.99312,170.37393l0.46722,0.36942l-1.32554,1.88641l-0.42847,-0.37329z" fill="#c2e266"/></g></g><g stroke="none" stroke-width="0" stroke-linecap="butt" stroke-linejoin="miter"><path d="M241.65568,182.67303l1.31716,-0.19757l2.53379,1.73977l2.51324,-0.68727c0,0 -1.51448,1.40193 -2.4059,1.47989c-0.82034,0.07174 -3.9583,-2.33484 -3.9583,-2.33484z" fill="#f79db4"/><path d="M242.7494,179.6863c0.35052,-0.59475 1.11681,-0.79274 1.71156,-0.44222c0.59475,0.35052 0.79274,1.1168 0.44222,1.71155c-0.35052,0.59475 -0.94879,0.5876 -1.54354,0.23709c-0.59475,-0.35052 -0.96076,-0.91168 -0.61024,-1.50643z" fill="#83c4ac"/><path d="M236.63441,182.58558c0,0 0.65003,0.1453 1.015,0.6226c0.51502,0.67355 1.02079,1.02902 3.43188,0.87035c2.1499,-0.14148 2.61874,-1.01652 3.0607,-1.50713c0.53597,-0.59496 0.78601,-0.80749 0.78601,-0.80749l1.88895,0.4134c0,0 -0.41584,0.49157 -0.5699,1.35227c-0.0955,0.9409 -0.76451,1.37309 -1.36033,1.47407c-0.48112,0.42669 -0.86138,1.28377 -1.70001,1.14492c-0.42691,0.69066 -1.25107,0.82713 -1.94724,0.45948c-0.52844,0.55093 -1.25425,0.39497 -1.60309,0.0202c-0.87557,0.3412 -1.55153,-0.00833 -1.84908,-0.49152c-0.97658,-0.04698 -1.55826,-0.7866 -1.75221,-1.51869c-0.95084,-0.35719 -1.26363,-1.24506 -1.26363,-1.24506z" fill="#c0c2c6"/><path d="M239.18178,177.76342l0.36184,-0.07398l2.33749,-0.25191c0,0 -0.09316,1.42504 0.30406,2.16294c0.39722,0.7379 0.47489,0.87924 1.10096,1.34762c0.62606,0.46838 1.9147,0.90563 1.9147,0.90563c0,0 -0.45612,0.35345 -0.70628,0.8517c-0.15651,0.31171 -0.03589,0.76785 -0.27991,0.95836c-0.4131,0.3225 -0.86074,0.05223 -1.56021,0.31166c-0.37418,0.13879 -0.74898,0.83106 -1.38848,0.95023c-1.14189,0.21277 -1.54128,-0.39863 -2.24956,-0.69762c-0.33139,-0.1399 -0.88749,0.28619 -1.33259,-0.00995c-0.33452,-0.22256 -0.11237,-0.62536 -0.29344,-0.87368c-0.30473,-0.4179 -0.88777,-0.64573 -0.88777,-0.64573c0,0 0.53644,-0.39817 1.18787,-0.84803c0.65144,-0.44987 1.29245,-1.1305 1.29245,-1.1305c0,0 -0.00727,-0.89391 0.03187,-1.52967c0.03913,-0.63576 0.16699,-1.42705 0.16699,-1.42705z" fill="#20201f"/><path d="M242.87752,181.82662l-0.38375,-0.33121l0.53542,-0.79348c0,0 0.11332,0.10276 0.32845,0.27375c0.19379,0.15403 0.55302,0.35066 0.55302,0.35066l-0.20449,0.32466z" data-paper-data="{&quot;index&quot;:null}" fill="#c274a1"/><path d="M241.77286,182.32269l0.80065,-0.74774l0.30824,0.26721l-0.71167,0.65974z" data-paper-data="{&quot;index&quot;:null}" fill="#c0c2c6"/><path d="M238.03011,182.09006l-0.23392,-0.30413c0,0 0.3393,-0.22933 0.51786,-0.40078c0.19822,-0.19033 0.30145,-0.30323 0.30145,-0.30323l0.60719,0.74l-0.35113,0.36561z" fill="#c274a1"/><path d="M240.07102,182.91557l-1.17431,-0.79444l0.28193,-0.29484l1.27113,0.87375z" fill="#c0c2c6"/><path d="M242.40656,179.14462c0.37432,1.97129 -1.10157,2.02993 -1.28131,1.98706c-0.17443,-0.04161 -0.62458,-0.25409 -0.88657,-0.45543c-0.26677,-0.205 -0.74019,-0.7598 -0.74019,-0.7598l-0.40601,0.72826c0,0 -0.40838,-0.85415 -0.46668,-1.47484c-0.13208,-1.40608 0.41359,-1.52421 0.41359,-1.52421l2.60953,-0.32796c0,0 0.45098,0.21197 0.75764,1.82691z" fill="#c0c0c3"/><path d="M239.54168,178.16447l-0.62019,-0.50213l1.98629,-0.04671z" fill="#222225"/><g><g><path d="M240.07796,183.68152c-0.40796,-0.48831 -0.20146,-1.33299 0.46123,-1.88664c0.6627,-0.55366 1.53063,-0.60664 1.9386,-0.11834c0.40796,0.4883 0.20146,1.33298 -0.46124,1.88663c-0.6627,0.55366 -1.53063,0.60664 -1.9386,0.11834z" fill="#c0c2c6"/><path d="M240.83849,180.79055c0.14051,-0.20772 0.42281,-0.26222 0.63054,-0.12171c0.20772,0.14051 0.26222,0.42282 0.12171,0.63054c-0.14051,0.20772 -0.42282,0.26221 -0.63054,0.1217c-0.20772,-0.14051 -0.26222,-0.42281 -0.1217,-0.63054z" fill="#000000"/><path d="M240.87544,181.06043c-0.02515,-0.18655 0.10569,-0.35815 0.29223,-0.3833c0.18655,-0.02515 0.35815,0.10569 0.3833,0.29223c0.02515,0.18655 -0.11264,0.16342 -0.29919,0.18857c-0.18655,0.02515 -0.35119,0.08904 -0.37635,-0.09751z" fill="#c478a9"/><path d="M239.28351,182.5653c-0.13456,-0.21163 -0.07208,-0.49227 0.13955,-0.62683c0.21163,-0.13456 0.49227,-0.07208 0.62683,0.13955c0.13456,0.21163 0.07209,0.49227 -0.13954,0.62683c-0.21163,0.13456 -0.49227,0.07208 -0.62683,-0.13955z" fill="#000000"/><path d="M239.54578,182.63891c-0.18112,-0.05125 -0.2864,-0.23961 -0.23516,-0.42073c0.05125,-0.18112 0.23961,-0.2864 0.42073,-0.23516c0.18112,0.05125 0.10503,0.16842 0.05378,0.34954c-0.05125,0.18112 -0.05823,0.3576 -0.23935,0.30635z" fill="#c478a9"/><path d="M240.00063,182.70678c-0.00851,-0.08557 0.12766,-0.3348 0.36923,-0.35883c0.24158,-0.02403 0.46797,0.07871 0.47648,0.16427c0.00851,0.08556 -0.16592,0.32019 -0.40749,0.34422c-0.24157,0.02403 -0.4297,-0.06412 -0.43821,-0.14967z" fill="#000000"/><path d="M241.4838,181.48265c0.08169,0.02681 0.12708,0.22953 0.05139,0.4602c-0.07568,0.23067 -0.34248,0.35025 -0.42417,0.32344c-0.08169,-0.02681 -0.13306,-0.27005 -0.05738,-0.50072c0.07568,-0.23067 0.34847,-0.30973 0.43016,-0.28292z" data-paper-data="{&quot;index&quot;:null}" fill="#000000"/><path d="M240.28408,182.59575c-0.00901,-0.09059 0.05712,-0.17133 0.14771,-0.18033c0.09059,-0.00901 0.17133,0.05712 0.18034,0.14771c0.00901,0.09059 -0.05712,0.17133 -0.14772,0.18035c-0.09059,0.00901 -0.17133,-0.05712 -0.18034,-0.14772z" fill="#ffffff"/><path d="M241.05436,182.01299c-0.00951,-0.09562 0.0603,-0.18085 0.15592,-0.19036c0.09562,-0.00951 0.18085,0.0603 0.19036,0.15592c0.00951,0.09562 -0.0603,0.18085 -0.15592,0.19036c-0.09562,0.00951 -0.18085,-0.0603 -0.19036,-0.15592z" fill="#ffffff"/></g><path d="M241.19874,182.45787c0.04448,0.04842 0.03556,0.15386 -0.0352,0.21887c-0.07076,0.065 -0.17659,0.06498 -0.22107,0.01655c-0.04448,-0.04842 0.21179,-0.28384 0.25627,-0.23542z" fill="#000000"/><path d="M240.82644,182.98271c0.04192,0.06323 -0.01976,0.17793 -0.13777,0.25619c-0.11801,0.07826 -0.24768,0.09047 -0.28962,0.02724c-0.04192,-0.06323 0.01976,-0.17793 0.13777,-0.25619c0.11801,-0.07826 0.24768,-0.09047 0.28962,-0.02724z" fill="#ad597c"/><path d="M241.96413,182.0229c0.04192,0.06323 -0.01976,0.17793 -0.13777,0.25619c-0.11801,0.07826 -0.24768,0.09047 -0.28962,0.02724c-0.04192,-0.06323 0.01976,-0.17793 0.13777,-0.25619c0.11801,-0.07826 0.24768,-0.09047 0.28962,-0.02724z" fill="#ad597c"/></g><g fill="#83c4ac"><path d="M238.74019,180.40793l-0.25185,-0.58439c0,0 0.32866,-0.21746 0.51841,-0.27249c0.17373,-0.05038 0.57628,-0.04496 0.57628,-0.04496l0.0982,0.17688c0,0 -0.27567,0.1889 -0.4406,0.31597c-0.14658,0.11292 -0.50045,0.40899 -0.50045,0.40899z"/><path d="M240.18142,180.20182c-0.15338,-0.14079 -0.52074,-0.50309 -0.52074,-0.50309l-0.13166,-0.19717c0,0 0.75523,0.20902 0.92397,0.27417c0.18431,0.07116 0.49303,0.31611 0.49303,0.31611l-0.30123,0.56053c0,0 -0.32706,-0.32543 -0.46337,-0.45055z" data-paper-data="{&quot;index&quot;:null}"/><path d="M239.39387,181.14992c0,0 -0.04667,-0.46328 -0.05024,-0.76082c-0.00357,-0.29755 0.03368,-0.62115 0.03368,-0.62115l0.2767,-0.05439c0,0 -0.00803,0.48523 0.00577,0.79531c0.01381,0.31009 0.07046,0.91655 0.07046,0.91655z"/><path d="M239.92308,181.47341c0,0 -0.07987,-0.63102 -0.12741,-0.93775c-0.04754,-0.30673 -0.17355,-0.87265 -0.17355,-0.87265l0.24472,0.02938c0,0 0.14538,0.4935 0.20049,0.78593c0.05511,0.29242 0.10062,0.75581 0.10062,0.75581z" data-paper-data="{&quot;index&quot;:null}"/></g></g><g stroke-width="0" stroke-linecap="butt" stroke-linejoin="miter"><path d="M227.2342,173.991c1.57952,1.47483 1.03656,4.272 1.03656,4.272l-0.62419,0.72532c0,0 -0.2282,-0.86562 -1.93643,-3.11375c-1.65301,-0.91639 -3.55139,-2.13922 -3.55139,-2.13922c0,0 -0.27272,0.22237 0.23235,-0.30156c0.50507,-0.52395 0.35478,-0.30422 0.35478,-0.30422c0,0 2.27198,-1.20798 4.48829,0.86146z" fill="#cacacd" stroke="none"/><path d="M222.08487,173.77131c0,0 1.82026,-0.48987 3.70514,1.2889c2.00186,1.88915 1.88735,3.91683 1.88735,3.91683c0,0 -2.00321,2.04073 -4.70587,-0.53004c-2.40834,-2.29079 -0.88662,-4.67569 -0.88662,-4.67569z" fill="#c2e266" stroke="#000000"/><path d="M229.98985,176.19397l-5.33354,-5.15313c0,0 2.7476,-2.75692 5.37711,-0.34383c2.66759,2.44805 -0.04358,5.49695 -0.04358,5.49695z" fill="#c2e266" stroke="none"/><path d="M229.9344,176.27382l-1.56949,-3.88168l-3.69939,-1.35141l0.19081,-0.2045c0,0 1.87002,-0.90239 4.00437,1.04261c2.10763,1.92506 1.30452,4.13181 1.30452,4.13181z" fill="#cacacd" stroke="none"/><path d="M228.69097,172.3487c1.4921,1.49033 1.33237,3.85297 1.33237,3.85297l-2.0499,2.38099c0,0 -0.6054,-2.85168 -1.77401,-3.98577c-1.16859,-1.1341 -3.66588,-1.29347 -3.66588,-1.29347l2.12182,-2.26962c0,0 1.94194,-0.77629 4.03559,1.31491z" fill="#c274a1" stroke="none"/><path d="M230.16268,179.76114c0,0 0.51755,-0.38775 0.80531,-0.67622c0.28776,-0.28847 0.62252,-0.75512 0.62252,-0.75512l7.80554,8.16005c0,0 -0.29903,0.62327 -0.60403,0.93057c-0.305,0.30731 -0.74436,0.42797 -0.74436,0.42797l-7.88496,-8.08727z" fill="#c2e266" stroke="none"/><path d="M228.11646,178.29305l1.81067,-2.11707c0,0 1.78724,1.60919 1.73615,1.95081c-0.0865,0.57857 -1.3662,1.7375 -1.78111,1.71378c-0.1093,-0.00624 -1.76573,-1.54752 -1.76573,-1.54752z" fill="#cacacd" stroke="none"/></g><g><g data-paper-data="{&quot;index&quot;:null}" fill="#86cbb6" stroke="none" stroke-width="0" stroke-linecap="butt" stroke-linejoin="miter"><path d="M233.76268,170.88849c-0.45182,0.16945 -0.96155,0.42876 -0.96155,0.42876l-0.26872,-0.99091c0,0 0.86427,-0.2736 1.29718,-0.29027c0.43291,-0.01667 1.22847,0.26711 1.22847,0.26711l-0.58181,0.37289c0,0 -0.26174,0.04297 -0.71355,0.21241z"/><path d="M233.17357,172.00146c0,0 0.31341,-0.42851 0.49732,-0.66005c0.22926,-0.28863 0.7724,-0.9385 0.7724,-0.9385l0.58077,-0.134c0,0 -0.57538,1.06876 -0.74611,1.41897c-0.12395,0.25426 -0.38976,0.79448 -0.38976,0.79448z"/></g><g stroke="none" stroke-width="0" stroke-linecap="butt" stroke-linejoin="miter"><path d="M233.40532,167.51333c0.6553,-0.54476 1.16634,-0.34795 1.59959,-0.09006c0.56744,0.33285 1.11777,0.92901 1.11777,0.92901c0,0 -0.6979,0.732 -0.95725,1.25746c-0.25936,0.52546 -0.38379,1.45951 -0.38379,1.45951c0,0 -1.50438,-0.77988 -1.7519,-1.65578c-0.24753,-0.87589 -0.20525,-1.28967 0.3756,-1.90014z" data-paper-data="{&quot;index&quot;:null}" fill="#20201f"/><path d="M232.97319,168.48451c0.10844,-0.52332 1.10598,0.73535 1.10598,0.73535l-0.65364,0.81399c0,0 -0.59277,-0.87157 -0.45233,-1.54934z" data-paper-data="{&quot;index&quot;:null}" fill="#b2b1b2"/></g><path d="M239.91038,166.65107c3.32179,-0.3304 6.24562,1.72417 6.53056,4.58899c0.28494,2.86481 -2.1769,5.45504 -5.49869,5.78544c-3.32179,0.3304 -6.24562,-1.72415 -6.53057,-4.58897c-0.28494,-2.86481 2.1769,-5.45505 5.49869,-5.78545z" fill="#f79eb4" stroke="none" stroke-width="0" stroke-linecap="butt" stroke-linejoin="miter"/><path d="M235.29656,173.61819c-0.00026,-0.00069 0.31192,1.14206 0.78076,1.74606c0.46885,0.604 2.18402,2.16618 2.18402,2.16618l0.37141,0.87871c0,0 -1.47824,0.08904 -2.89774,-1.94981c-0.88434,-1.26262 -0.95961,-2.32087 -0.95178,-2.30546" fill="#f79eb4" stroke="#f89db5" stroke-width="0" stroke-linecap="butt" stroke-linejoin="round"/><g fill="#ffd5c5" stroke="none" stroke-width="1" stroke-linecap="round" stroke-linejoin="round"><path d="M236.45161,175.91036c0.00703,-0.05926 0.11256,0.04822 0.15943,0.08516c0.28961,0.22804 0.55436,-0.09557 0.73548,-0.26881c0.13917,-0.13308 0.37994,-0.22034 0.56735,-0.24122c0.90273,-0.09097 2.69776,0.32364 3.01131,0.30589c0.29183,-0.01651 1.0897,-0.56737 1.38794,-0.70313c0.30599,-0.13929 0.58522,-0.06555 0.637,-0.03311c0.10858,0.06807 0.87288,0.49365 0.02044,1.61613c-0.11845,0.15596 -0.90377,0.76474 -1.36884,0.86717c-0.38998,0.08585 -1.74425,0.4196 -2.81969,0.17469c-0.85708,-0.1952 -1.40056,-0.53525 -1.46995,-0.57894c-0.42407,-0.26718 -0.92467,-0.68012 -0.86048,-1.22379z"/><path d=""/></g><g fill="#000000" stroke="#000000" stroke-width="0.125" stroke-linecap="butt" stroke-linejoin="round"><path d="M235.42201,174.45421c0.00593,0.02409 -0.63547,-0.01932 -0.7149,-0.03392c-0.36173,-0.06641 -0.67106,-0.14524 -1.0174,-0.27077c-0.1105,-0.04004 -0.47959,-0.21988 -0.47392,-0.21859c0.16657,0.03781 0.32274,0.12808 0.48869,0.17314c0.27718,0.0752 0.56022,0.1258 0.8435,0.17379c0.44841,0.05918 0.74017,-0.00046 0.80435,0.01411"/><path d="M235.24163,173.97839c0.00551,0.02247 -0.62375,-0.05496 -0.93348,-0.18466c-0.30973,-0.12969 -0.99991,-0.58982 -0.99165,-0.57669c0.02191,0.03478 0.63333,0.33784 1.06717,0.48247c0.43385,0.14463 0.76234,0.0995 0.78528,0.07163"/></g><g fill="#000000" stroke="none" stroke-width="1" stroke-linecap="round" stroke-linejoin="round"><path d="M237.70697,176.17303c-0.10868,0.0182 -0.50969,-0.1899 -0.36408,-0.32068c0.08417,-0.0756 0.60482,-0.1862 0.76401,-0.09345c0.20945,0.12205 -0.16554,0.3551 -0.39994,0.41413z"/><path d=""/></g><path d="M244.93049,171.83677c0.02408,0.01142 0.09142,2.30537 -0.00385,2.84024c-0.14296,0.80257 -0.42501,1.58113 -0.89038,2.25379c-0.19787,0.28598 -0.40872,0.52684 -0.65036,0.77281c-0.07821,0.07964 -0.41099,0.34831 -0.41099,0.34831c0,0 0.27931,-1.06119 0.15598,-2.71513c-0.06551,-0.87829 -0.37803,-2.80553 -0.35242,-2.75481" fill="#f79eb4" stroke="#f89db5" stroke-width="0" stroke-linecap="butt" stroke-linejoin="round"/><path d="M246.23696,171.03388c0.21442,0.33991 0.29695,2.20727 0.06408,3.59596c-0.17946,1.07019 -0.42932,1.37877 -0.86794,1.98236c-0.49674,0.68355 -0.89973,0.7874 -0.89973,0.7874c0,0 0.35048,-1.19637 0.4192,-1.98525c0.06873,-0.78888 0.085,-3.60515 0.06898,-3.61827" fill="#f79eb4" stroke="#f89db5" stroke-width="0" stroke-linecap="butt" stroke-linejoin="round"/><g stroke="none" stroke-width="1" stroke-linecap="round" stroke-linejoin="round"><path d="M235.96114,169.01221c0.0882,-0.12735 2.30854,-2.14665 5.3327,-1.98742c3.7418,0.23576 4.51274,4.28306 4.51004,4.28269c-0.03766,-0.00525 -0.78228,-1.50819 -1.8028,-2.09831c-1.32325,-0.76522 -2.08981,-1.20979 -3.46668,-1.29078c-1.74693,-0.10277 -4.00382,1.51946 -4.09225,1.58445" fill="#20201f"/><path d="" fill="#ee1a40"/></g><path d="M236.15394,171.78921c-0.03213,-0.02117 -1.65866,-0.05285 -2.20203,0.21816c-0.99516,0.49633 -2.61317,1.59528 -2.63603,1.60001c-0.01594,0.00324 0.49013,-0.63937 0.74391,-1.34679c0.18975,-0.76898 1.16353,-1.3968 1.47173,-1.50729c1.73047,-0.60984 2.7328,-0.1072 2.70839,-0.12329" fill="#f79eb4" stroke="#f89db5" stroke-width="0" stroke-linecap="butt" stroke-linejoin="round"/><path d="M236.23165,170.63325c-0.11169,-0.07277 -1.44474,-0.80138 -2.49711,-0.89313c-0.75853,-0.06613 -2.70105,-0.83338 -2.70105,-0.83338c0,0 1.63514,0.14918 3.67311,-0.1459c0.60467,-0.02854 0.77874,0.02358 1.08344,0.24772c0.3047,0.22414 1.27964,1.49353 1.29689,1.5753" fill="#f79eb4" stroke="#f89db5" stroke-width="0" stroke-linecap="butt" stroke-linejoin="round"/><path d="M241.18754,171.3614c-0.60453,0.06013 -2.77829,1.95899 -2.77829,1.95899c0,0 0.72942,-3.50542 3.52345,-3.05519c1.18707,0.47257 0.76152,2.60449 0.76152,2.60449c0,0 -0.90215,-1.56841 -1.50668,-1.50828z" data-paper-data="{&quot;index&quot;:null}" fill="#20201f" stroke="none" stroke-width="0" stroke-linecap="butt" stroke-linejoin="miter"/><path d="M238.2587,173.90185c0.55162,-1.01117 0.66999,-2.74484 2.6832,-3.18076c0.43731,-0.0947 1.79659,0.35737 1.72594,2.51725c-0.02351,0.71876 -0.23999,1.81825 -1.44679,2.5311c-0.63059,0.25737 -2.23503,-0.32291 -2.91135,-0.29055c-1.18742,0.05684 -0.96281,0.5705 -1.54778,0.60724c-0.14641,0.0092 -1.05392,-0.76606 -1.50241,-1.94973c-0.21148,-0.55815 -0.24855,-1.4004 -0.18076,-1.40655c0.44734,-0.04059 0.92059,0.84823 1.37636,1.32838c0.31879,0.33585 0.72729,0.59823 1.05972,0.53489c0.19378,-0.03692 0.39222,-0.04668 0.74386,-0.69129z" fill="#ffffff" stroke="none" stroke-width="0" stroke-linecap="butt" stroke-linejoin="miter"/><path d="M236.31114,172.79981c-0.10615,0.09526 -1.23249,0.66055 -1.42544,0.96757c-0.56842,0.91624 -1.73256,1.48726 -1.69543,1.50844c0.00171,0.00099 0.47221,-0.98406 0.43692,-1.59349c-0.03185,-0.14763 0.65487,-1.23274 0.88649,-1.39969c0.80627,-0.58115 1.74949,-0.44389 1.71197,-0.41027" fill="#f79eb4" stroke="#f89db5" stroke-width="0" stroke-linecap="butt" stroke-linejoin="round"/><g fill="#000000" stroke="#000000" stroke-width="0.125" stroke-linecap="butt" stroke-linejoin="round"><path d="M242.139,171.31583c0.04734,-0.0229 0.09106,0.00817 0.1377,0.00604c0.0489,-0.00223 0.27116,-0.04585 0.43488,-0.10737c0.8407,-0.31592 1.20449,-0.87109 1.20449,-0.87109c0,0 -0.11736,0.39528 -1.28125,1.05436c-0.18128,0.10267 -0.33504,0.105 -0.36292,0.07157"/><path d="M242.53996,171.98737c0.03391,0.00049 0.10028,0.05315 0.13128,0.07141c0.07033,0.04147 0.58563,0.2777 1.31349,0.08926c0.24106,-0.06383 0.98977,-0.36225 0.98977,-0.36225c0,0 -0.35913,0.26518 -1.03057,0.43454c-0.28159,0.07102 -0.89819,0.13604 -1.1483,0.08079c-0.13488,-0.02979 -0.17546,-0.06899 -0.17546,-0.06899"/></g><g stroke="none" stroke-linecap="butt" stroke-linejoin="miter"><path d="M240.19811,174.13885c0.11734,0.71101 0.02599,1.31816 -0.20403,1.35612c-0.23002,0.03795 -0.51164,-0.50764 -0.62898,-1.21864c-0.11734,-0.71101 -0.02598,-1.31817 0.20404,-1.35613c0.23002,-0.03795 0.51164,0.50764 0.62897,1.21865z" fill="#169c5b" stroke-width="NaN"/><path d="M239.98454,174.3375c0.049,0.29697 0.00681,0.55124 -0.09426,0.56792c-0.10107,0.01669 -0.22275,-0.21055 -0.27175,-0.50753c-0.049,-0.29697 -0.00681,-0.55124 0.09426,-0.56792c0.10107,-0.01669 0.22275,0.21055 0.27175,0.50753z" fill="#000000" stroke-width="0"/><path d="M239.79739,173.67475c0.04959,0.30047 -0.0091,0.56034 -0.13108,0.58047c-0.12199,0.02013 -0.26107,-0.20711 -0.31066,-0.50757c-0.04959,-0.30047 0.0091,-0.56035 0.13108,-0.58048c0.12199,-0.02013 0.26107,0.20712 0.31066,0.50757z" fill="#ffffff" stroke-width="0"/></g><g stroke="none" stroke-linecap="butt" stroke-linejoin="miter"><path d="M236.84636,174.96235c0.08275,0.5015 0.01834,0.92975 -0.14391,0.95652c-0.16226,0.02677 -0.36087,-0.35806 -0.44364,-0.85956c-0.08275,-0.5015 -0.01833,-0.92975 0.14392,-0.95652c0.16226,-0.02677 0.36087,0.35805 0.44363,0.85955z" fill="#169c5b" stroke-width="NaN"/><path d="M236.69574,175.10246c0.03458,0.20947 0.00481,0.3888 -0.0665,0.40058c-0.07129,0.01177 -0.1571,-0.1485 -0.19168,-0.35797c-0.03458,-0.20947 -0.00481,-0.3888 0.0665,-0.40057c0.07129,-0.01177 0.1571,0.14849 0.19167,0.35796z" fill="#000000" stroke-width="0"/><path d="M236.56371,174.635c0.03497,0.21193 -0.00642,0.39522 -0.09245,0.40942c-0.08605,0.01421 -0.18414,-0.14608 -0.21913,-0.358c-0.03497,-0.21193 0.00641,-0.39524 0.09246,-0.40944c0.08605,-0.01421 0.18413,0.1461 0.21912,0.35802z" fill="#ffffff" stroke-width="0"/></g><path d="M242.31093,176.37372c0,0 -0.31439,0.18024 -0.50952,0.22127c-0.19513,0.04102 -0.76564,0.10434 -0.76564,0.10434" data-paper-data="{&quot;index&quot;:null}" fill="none" stroke="#000000" stroke-width="0.125" stroke-linecap="round" stroke-linejoin="miter"/><g fill="#86cbb6" stroke="none" stroke-width="0" stroke-linecap="butt" stroke-linejoin="miter"><path d="M244.0101,169.25848l-0.76965,-0.30002c0,0 0.86553,-0.5199 1.3768,-0.6023c0.51128,-0.0824 1.58858,0.03474 1.58858,0.03474l-0.08161,1.22457c0,0 -0.65844,-0.18388 -1.22784,-0.27608c-0.5694,-0.0922 -0.88626,-0.08092 -0.88626,-0.08092z"/><path d="M245.12457,171.23688c0,0 -0.43871,-0.57052 -0.64384,-0.83932c-0.28255,-0.37023 -1.20852,-1.48728 -1.20852,-1.48728l0.71218,0.02028c0,0 0.78956,0.63372 1.12619,0.91799c0.27005,0.22805 0.73825,0.65646 0.73825,0.65646z"/></g><path d="M244.04437,167.60142c0.29653,1.20878 -0.34564,2.29226 -0.34564,2.29226c0,0 -0.322,-0.33268 -1.9455,-0.91991c-0.94906,-0.34327 -2.10356,-0.54779 -2.10356,-0.54779c0,0 0.25232,-1.08036 0.70268,-1.85909c0.34132,-0.59904 0.81636,-1.1779 1.9633,-0.97209c1.10273,0.33421 1.43219,0.79784 1.72872,2.00661z" fill="#20201f" stroke="none" stroke-width="0" stroke-linecap="butt" stroke-linejoin="miter"/><path d="M242.94669,168.31823c0,0 -0.21514,-0.14964 -1.16418,-0.34876c-0.55479,-0.11639 -1.20316,-0.14943 -1.20316,-0.14943c0,0 0.31647,-1.27212 1.35571,-1.09267c1.09568,0.18919 1.01163,1.59086 1.01163,1.59086z" fill="#b2b1b2" stroke="none" stroke-width="0" stroke-linecap="butt" stroke-linejoin="miter"/></g><g stroke="none" stroke-width="0" stroke-linecap="butt" stroke-linejoin="miter"><path d="M238.62574,181.59298c1.21725,0.83469 1.72803,2.20555 1.14082,3.06189c-0.58721,0.85635 -2.05002,0.87389 -3.26728,0.0392c-1.21726,-0.83469 -1.72804,-2.20556 -1.14083,-3.06189c0.5872,-0.85634 2.05003,-0.87389 3.26729,-0.03921z" fill="#20201f"/><path d="M241.42319,178.24736c0.30748,-0.24251 0.50831,-0.15642 0.65579,-0.00001c0.2195,0.23281 0.20943,0.47725 -0.0097,0.70147c-0.87453,0.8948 -1.62281,1.69314 -2.18652,2.34617c-0.34365,0.39809 -1.62828,2.00048 -1.62828,2.00048l-0.93947,-0.77856c0,0 0.78765,-0.85392 1.6395,-1.84072c0.59581,-0.6902 1.54011,-1.69649 2.46868,-2.42883z" fill="#fed5c7"/><path d="M239.39861,179.86412l0.80137,-0.81928l1.12816,0.89816l-0.77313,0.83865z" fill="#83c4ac"/><path d="M240.68262,177.93028c0.44981,-0.48347 1.17502,-0.57675 1.64874,-0.18394c0.47371,0.39281 0.50358,1.11206 0.06673,1.60647c-0.77666,0.87898 -1.28107,0.7314 -1.75478,0.33858c-0.47371,-0.39281 -0.71056,-0.95511 0.03931,-1.76112z" fill="#20201f"/><path d="M238.17201,180.68402l1.21773,-0.86751l1.18463,0.9369l-0.64558,1.42593l-0.60427,-0.27254l-0.86195,-0.74931z" fill="#bebec0"/><g><path d="M236.27196,182.73949l2.03926,1.54933c0,0 0.17287,0.33789 0.05156,0.9109c-0.07877,0.37213 -0.50576,0.8332 -0.50576,0.8332c0,0 0.70901,-0.21714 0.81691,0.37512c0.06928,0.38027 -0.85598,1.07503 -1.2373,1.23895c-0.22448,0.0965 -0.67354,0.13038 -1.00029,0.00135c-0.20612,-0.08139 -0.37369,-0.33721 -0.37369,-0.33721c0,0 -0.32271,0.22387 -0.59057,-0.09811c-0.08207,-0.09864 -0.22209,-0.21038 -0.22209,-0.21038c0,0 -0.2806,0.08768 -0.43776,0.07309c-0.15717,-0.01459 -0.36795,-0.16792 -0.36795,-0.16792l-0.12417,-0.41963c0,0 -0.55988,-0.07049 -0.65328,-0.13881c-0.36639,-0.26798 -0.24476,-0.75643 -0.18119,-1.01901c0.1164,-0.48075 0.52908,-1.49717 0.65054,-1.56957c0.76237,-0.45438 2.13581,-1.0213 2.13581,-1.0213z" fill="#20201f"/><path d="M237.85702,186.03291c0,0 0.70901,-0.21714 0.81691,0.37512c0.06928,0.38027 -0.31542,0.75204 -0.69674,0.91596c-0.22448,0.0965 -0.12017,-1.29107 -0.12017,-1.29107z" fill="#c0c2c6"/></g></g></g></g></svg>