<svg version="1.1" xmlns="http://www.w3.org/2000/svg" xmlns:xlink="http://www.w3.org/1999/xlink" width="26.75347" height="19.89361" viewBox="0,0,26.75347,19.89361"><g transform="translate(-224.8217,-170.23615)"><g data-paper-data="{&quot;isPaintingLayer&quot;:true}" fill="#000000" fill-rule="nonzero" stroke="none" stroke-width="0" stroke-linecap="butt" stroke-linejoin="miter" stroke-miterlimit="10" stroke-dasharray="" stroke-dashoffset="0" style="mix-blend-mode: normal"><path d="M231.3167,178c3.58709,0 6.495,0.89543 6.495,2c0,1.10457 -2.90791,2 -6.495,2c-3.58709,0 -6.495,-0.89543 -6.495,-2c0,-1.10457 2.90791,-2 6.495,-2z"/><path d="M230.5,177c0.88366,0 1.6,1.34315 1.6,3c0,1.65685 -0.71634,3 -1.6,3c-0.88366,0 -1.6,-1.34315 -1.6,-3c0,-1.65685 0.71634,-3 1.6,-3z"/><path d="M232.6788,180.02338l14.89362,-9.78723v19.89361z"/><path d="M251.57518,179.99296l-4.05366,-4.53979v9.22762z"/></g></g></svg>