<svg version="1.1" xmlns="http://www.w3.org/2000/svg" xmlns:xlink="http://www.w3.org/1999/xlink" width="27.31128" height="31.15542" viewBox="0,0,27.31128,31.15542"><g transform="translate(-226.8659,-170.34639)"><g data-paper-data="{&quot;isPaintingLayer&quot;:true}" fill-rule="nonzero" stroke="none" stroke-width="0" stroke-linecap="butt" stroke-linejoin="miter" stroke-miterlimit="10" stroke-dasharray="" stroke-dashoffset="0" style="mix-blend-mode: normal"><path d="M230.74068,179.71982z" fill="#030000"/><path d="M253.35765,179.11977c0.26347,2.21544 -3.23919,3.81103 -6.03764,4.14383c-0.02963,0.00352 -5.0203,-2.75512 -7.44124,1.48682c-1.38754,2.43125 0.0153,10.89857 0.0153,10.89857l-3.32285,-9.05112c0,0 0.05593,3.00908 0.27658,4.76186c0.30796,2.4462 1.39822,8.54147 1.39822,8.54147c0,0 -3.11954,-4.72573 -3.92507,-7.93139c-0.97574,-3.88303 -1.30757,-9.74308 -1.30757,-9.74308c0,0 0.12972,5.58651 0.67604,11.68782c0.54632,6.10131 1.1969,7.58726 1.1969,7.58726c0,0 -3.34071,-5.13977 -4.32021,-8.8598c-0.97951,-3.72002 -1.57396,-8.84497 -1.57396,-8.84497l-0.98588,7.64292c0,0 -0.89585,-4.2191 -1.07316,-6.28203c-0.1688,-1.96394 0.03357,-5.81324 0.03357,-5.81324c0,0 1.56601,-3.57969 2.99104,-5.25583c2.59543,-3.0528 4.08332,-3.48392 4.08332,-3.48392c0,0 7.28117,-1.02748 13.07175,1.01414c2.73626,0.96473 4.24939,6.02509 4.24939,6.02509c0,0 1.73197,-0.73985 1.99544,1.47559z" data-paper-data="{&quot;index&quot;:null}" fill="#ff3300"/><path d="M254.12905,185.30613c0,0 0.97296,1.11489 -5.8305,2.94922c-2.78849,0.75182 -5.73513,0.35597 -8.0892,-0.89931c-1.72779,-0.8528 -1.80647,-3.17628 -1.69011,-3.78202c0.402,-2.0928 4.54966,-1.01955 4.54966,-1.01955c0,0 1.44898,0.14879 5.15137,-0.10144c3.7859,-0.25587 5.90879,2.85311 5.90879,2.85311z" data-paper-data="{&quot;index&quot;:null}" fill="#ff3300"/><path d="M247.72566,182.47361c0,0 -3.14115,0.8706 -4.39046,1.01918c-0.61529,0.07317 -2.90771,-2.08652 -3.23728,-3.46537c-0.16443,-0.68794 0.17879,-1.67639 0.14737,-1.94057c-0.06191,-0.52055 2.57014,0.11492 4.19809,1.22129c1.04056,0.70717 3.28227,3.16546 3.28227,3.16546z" data-paper-data="{&quot;index&quot;:null}" fill="#ffffff"/><path d="M251.66506,181.80545c0.09244,0.77734 -0.1949,1.33164 -0.69694,1.39135c-0.50203,0.0597 -1.6389,-0.02784 -1.73134,-0.80519c-0.09244,-0.77734 1.13832,-2.07821 1.78617,-2.2346c0.64785,-0.15639 0.54967,0.87109 0.64211,1.64844z" data-paper-data="{&quot;index&quot;:null}" fill="#ffffff"/><path d="M243.062,182.9655c-0.43726,0.052 -0.86778,-0.54538 -0.9616,-1.3343c-0.09382,-0.78892 0.18459,-1.47061 0.62184,-1.52261c0.43726,-0.052 0.86778,0.54538 0.9616,1.3343c0.09382,0.78892 -0.18459,1.47061 -0.62184,1.52261z" fill="#ff3300"/><path d="M250.32952,183.05407c-0.43726,0.052 -0.98001,-0.4548 -0.86875,-1.24145c0.09189,-0.64964 0.64886,-1.17859 0.94683,-1.27702c0.43726,-0.052 0.44994,0.20693 0.54376,0.99585c0.09382,0.78892 -0.18459,1.47061 -0.62185,1.52261z" fill="#ff3300"/></g></g></svg>