<svg version="1.1" xmlns="http://www.w3.org/2000/svg" xmlns:xlink="http://www.w3.org/1999/xlink" width="23.08867" height="40.7633" viewBox="0,0,23.08867,40.7633"><g transform="translate(-227.25047,-158.84841)"><g data-paper-data="{&quot;isPaintingLayer&quot;:true}" fill-rule="nonzero" stroke-linejoin="miter" stroke-miterlimit="10" stroke-dasharray="" stroke-dashoffset="0" style="mix-blend-mode: normal"><g data-paper-data="{&quot;index&quot;:null}"><g data-paper-data="{&quot;index&quot;:null}" stroke="none" stroke-width="0" stroke-linecap="butt"><path d="M235.31306,198.92271c-1.18382,0.47308 -0.51243,-2.84711 -0.21696,-3.82833c0.20213,-1.1742 1.4299,-3.06965 1.4299,-3.06965c0,0 0.76995,-1.35797 1.02493,-0.38634c0.11869,0.45231 0.26349,0.88392 0.35353,1.31902c0.10337,0.49959 0.13453,1.00375 -0.02894,1.54907c0,0 -0.94193,3.76865 -2.56246,4.41624z" data-paper-data="{&quot;index&quot;:null}" fill="#54c81c"/><path d="M237.07887,189.02034l1.27332,-5.47507l1.45298,0.20477c0,0 -0.63077,3.56686 -1.35012,5.48073c-0.24659,0.59923 -1.1531,4.67309 -1.1531,4.67309c0,0 -0.63301,2.26307 -1.05427,2.73891c-0.53588,0.60528 -0.88428,-0.57533 -0.84154,-0.93292c0,0 0.4234,-1.30247 0.65495,-2.1263c0.34229,-1.21783 1.01779,-4.56319 1.01779,-4.56319z" data-paper-data="{&quot;index&quot;:null}" fill="#ffffff"/></g><path d="M236.22164,196.33796l0.25784,0.43429" fill="none" stroke="#000000" stroke-width="0.5" stroke-linecap="round"/><path d="M236.67635,195.42189l0.18863,0.41665" fill="none" stroke="#000000" stroke-width="0.5" stroke-linecap="round"/></g><g data-paper-data="{&quot;index&quot;:null}"><g data-paper-data="{&quot;index&quot;:null}" stroke="none" stroke-width="0" stroke-linecap="butt"><path d="M241.32892,199.51027c-1.4334,-0.99538 -1.50383,-4.87932 -1.50383,-4.87932c-0.03667,-0.56811 0.10707,-1.05236 0.32013,-1.5159c0.18557,-0.4037 0.42371,-0.79172 0.64106,-1.20575c0.46693,-0.88942 0.91183,0.60691 0.91183,0.60691c0,0 0.77014,2.12299 0.70305,3.31256c0.06726,1.02253 -0.02509,4.40867 -1.07223,3.68151z" data-paper-data="{&quot;index&quot;:null}" fill="#54c81c"/><path d="M241.83493,189.46447c0,0 -0.09401,3.4116 -0.03433,4.67519c0.04038,0.85479 0.16007,2.21913 0.16007,2.21913c-0.03875,0.35805 -0.64371,1.43007 -1.02975,0.7198c-0.30348,-0.55837 -0.41142,-2.90583 -0.41142,-2.90583c0,0 0.03273,-4.17335 -0.07282,-4.81269c-0.27058,-2.0266 -0.08319,-5.64397 -0.08319,-5.64397l1.46182,0.12718l0.00961,5.62118z" data-paper-data="{&quot;index&quot;:null}" fill="#ffffff"/></g><path d="M240.27168,195.97109l0.4203,-0.36684" fill="none" stroke="#000000" stroke-width="0.5" stroke-linecap="round"/><path d="M240.58016,196.96431l0.34889,-0.36521" fill="none" stroke="#000000" stroke-width="0.5" stroke-linecap="round"/></g><g data-paper-data="{&quot;index&quot;:null}"><g><path d="M238.07599,168.4427c3.46769,-1.48002 4.94086,1.42876 5.08345,1.65535c0.30547,0.55194 0.46064,1.18107 0.50865,1.80721c0.08808,1.04422 -0.15595,2.14405 -0.81263,2.97662c-0.35689,0.34844 -0.29671,0.31168 -0.63251,0.67253c-0.44,0.65324 -1.27856,1.10467 -1.97414,1.38624c-0.5522,0.25829 -1.14216,0.42439 -1.74632,0.50757c-0.39256,0.0397 -0.8033,0.15061 -1.19116,0.03082c-0.35951,-0.11736 -0.70813,-0.34153 -0.86679,-0.69786c-0.43338,-0.84471 -0.87528,-1.68679 -1.2308,-2.56753c-0.08476,-0.24656 -0.21552,-0.50051 -0.19107,-0.76784c0.0907,-0.2496 -1.12995,-3.21772 3.0533,-5.00314z" data-paper-data="{&quot;index&quot;:null}" fill="#f0e9bb" stroke="none" stroke-width="0.17188" stroke-linecap="butt"/><path d="M241.12309,166.1601c0.80282,-0.47281 1.47182,-0.59347 1.94093,-0.47935c0.06677,0.01606 0.05432,0.06675 0.14134,0.10145c0.10533,0.04207 0.35617,0.06926 0.30601,0.05771c0,0 -0.01313,0.17839 0.02247,0.24534c0.04533,0.08507 0.19977,0.142 0.10632,0.15536c0,0 0.10998,0.10702 0.11799,0.15895c0.08765,0.5671 -0.0567,1.40565 -0.46853,1.97637c0.48348,0.32817 -2.51446,-1.60589 -2.16647,-2.21582z" data-paper-data="{&quot;index&quot;:null}" fill="#ed3e67" stroke="none" stroke-width="0.17188" stroke-linecap="butt"/><path d="M235.12409,173.26239l0.77503,2.26319l0.95044,1.69044l0.77054,1.15567c0.09078,0.13577 -1.95581,-0.37907 -2.4502,-0.6569c-0.6118,-0.34369 -1.09985,-0.79463 -1.5858,-1.24745c-0.3543,-0.32989 -0.43885,-0.49017 -0.62025,-0.76133l-0.56299,-0.84196c-0.10699,-0.15997 -0.55937,-1.01153 -0.45129,-1.23466c0.03069,-0.06331 0.8272,0.12679 0.89671,0.096l0.50673,-0.22616c0.1504,-0.06695 0.47028,-0.57877 0.55776,-0.73989c0.06399,-0.11763 0.34886,-0.93901 0.16271,-1.54878l-0.18418,-0.60318c-0.02757,-0.09033 -0.62362,-0.91106 -0.59561,-0.94182c0.05758,-0.0636 -1.14674,-0.70013 -1.08845,-0.77034c0.32406,-0.39132 0.71094,-0.88063 1.22457,-1.23852c0.80745,-0.56266 1.79137,-0.93686 2.29232,-1.13662c0.08544,-0.03405 1.18251,-0.44651 1.92007,-0.49628c1.16793,-0.07889 2.01656,0.33994 2.0712,0.3596c0.85801,0.30833 1.59489,0.77601 2.22686,1.38169l0.43603,0.55311c0.22321,0.28309 1.19079,1.69268 1.68691,2.90733c1.04409,2.55625 0.32717,4.84514 0.08371,4.82697c-0.34101,-0.02516 -1.38721,-1.31537 -1.42713,-1.14073c-0.08862,0.38691 0.86995,-1.25931 0.87906,-2.22203c0.00911,-0.96273 -0.8684,-2.84014 -0.94326,-2.99094c-0.05903,-0.11926 -0.17515,-0.18819 -0.28523,-0.10539c-0.0733,0.05505 -0.94858,0.62218 -1.20931,0.99844c-0.26073,0.37627 -0.58689,1.73173 -0.64062,1.6779c-0.01995,-0.02008 -0.45611,-0.11888 -0.45942,-0.16002c-0.01973,-0.24891 -0.3568,0.48406 -0.39426,0.5917c-0.09853,0.28306 -1.11708,-0.78559 -2.0872,-0.81016c-0.97012,-0.02458 -1.83955,0.35897 -1.95002,0.59959c-0.04399,0.09584 -0.20944,0.31283 -0.29478,0.42435c-0.11361,0.14825 -0.19526,0.24197 -0.21058,0.34718z" data-paper-data="{&quot;index&quot;:null}" fill="#54c81c" stroke="none" stroke-width="0.17188" stroke-linecap="butt"/><path d="M230.78307,173.3575c-0.63835,0.04044 -1.37031,-0.26111 -1.78262,-0.61047c-0.03783,-0.03195 -0.07378,-0.17117 -0.07378,-0.17117c-0.05244,0.06667 -0.02851,-0.08274 -0.07601,-0.16027c-0.03731,-0.06094 -0.1853,-0.13892 -0.1853,-0.13892c-0.01321,0.04511 0.07726,-0.16497 0.09101,-0.26832c0.01121,-0.08548 -0.03475,-0.10076 -0.01776,-0.16127c0.11901,-0.42398 0.51411,-0.88865 1.24924,-1.28429c0.9619,-0.51745 2.14852,-0.14617 2.29782,0.21426c0,0 -0.41248,2.51121 -1.50258,2.58043z" data-paper-data="{&quot;index&quot;:null}" fill="#ed3e67" stroke="none" stroke-width="0.17188" stroke-linecap="butt"/><path d="M233.28674,171.11604c0.09764,-0.15292 0.25895,1.38509 -0.01529,1.72265c-0.47169,0.58047 -0.3034,0.7943 -0.88821,0.8512c-0.13126,0.01298 -0.44739,-0.09701 -0.83618,-0.09662c-0.45035,0.00066 -0.88229,-0.07884 -0.78213,-0.19761l0.58078,-0.76715l0.61335,-1.73476c0.00953,-0.02699 -0.30353,-0.12627 -0.77031,-0.23186c-0.3273,-0.07411 -0.79412,-0.12954 -1.13655,-0.12122c-0.20178,0.00498 0.06296,-0.34085 0.49985,-0.68778c0.21177,-0.16821 0.42929,-0.3647 0.72069,-0.46658c0.5047,-0.17629 1.0994,0.23945 1.46861,0.75769c0.34583,0.48528 0.48026,1.07364 0.54536,0.97205z" data-paper-data="{&quot;index&quot;:null}" fill="#54c81c" stroke="none" stroke-width="0.17188" stroke-linecap="butt"/><path d="M233.98457,170.78761c0.48957,1.1122 -0.20831,2.56477 -0.57757,2.68794l-0.52113,0.33708l-0.99547,-0.146c-0.2549,-0.03747 1.1411,-0.38951 1.31572,-0.87382c0.11403,-0.31596 0.19336,-0.55639 0.18512,-0.65938c-0.07994,-0.98148 -0.40352,-1.67715 -0.76637,-2.06749c-0.57015,-0.61335 -1.20748,-0.62173 -0.92482,-0.935c0.67385,-0.74723 1.74939,0.4412 2.2845,1.65664z" data-paper-data="{&quot;index&quot;:null}" fill="#ead32e" stroke="none" stroke-width="0.17188" stroke-linecap="butt"/><path d="M241.11735,167.12615c0,0 -0.39336,-0.21594 -0.6799,-0.38943c-0.59775,-0.3619 -1.30345,-0.43616 -1.25336,-0.62773c0.06763,-0.0971 0.59173,-0.16882 0.77107,-0.10096l0.36425,0.13765c0.64053,0.24222 1.08368,0.79624 1.18301,1.05714c0.04299,0.11285 0.24524,0.26755 0.25648,0.40827c0,0 -0.46271,-0.26118 -0.64153,-0.48494z" data-paper-data="{&quot;index&quot;:null}" fill="#ead32e" stroke="none" stroke-width="0.17188" stroke-linecap="butt"/><path d="M240.26388,166.03925c0,0 0.98285,-0.44309 1.27544,-0.24165c0.19443,0.13368 0.21498,0.64222 0.41055,0.72385c0.24281,0.10137 0.67564,0.42086 0.94164,0.67759c0.15953,0.26937 0.3759,0.50093 0.38554,0.87117c0.16661,0.26114 -0.31996,1.06974 -0.38374,0.98788l-0.86718,-1.11255c-0.22001,-0.28231 -0.68732,-0.84571 -0.79698,-0.95384z" data-paper-data="{&quot;index&quot;:null}" fill="#54c81c" stroke="none" stroke-width="0.17188" stroke-linecap="butt"/><path d="M235.65638,173.20477c0.14666,-0.73154 1.0981,-1.1534 1.6983,-1.00095c0.6002,0.15244 0.96788,0.86906 0.82122,1.6006c-0.14666,0.73153 -0.7521,1.20097 -1.3523,1.04852c-0.60021,-0.15244 -1.31388,-0.91665 -1.16722,-1.64819z" fill="#000000" stroke="none" stroke-width="0" stroke-linecap="butt"/><path d="M242.87382,170.26684c0.62098,0.41358 0.74763,1.46206 0.43103,1.99427c-0.3166,0.53221 -1.07667,0.6284 -1.69765,0.21482c-0.62098,-0.41356 -0.86772,-1.18027 -0.55112,-1.71248c0.3166,-0.5322 1.19677,-0.91017 1.81775,-0.49659z" data-paper-data="{&quot;index&quot;:null}" fill="#000000" stroke="none" stroke-width="0" stroke-linecap="butt"/><path d="M239.08204,176.47672l-0.58904,-0.17553" fill="none" stroke="#000000" stroke-width="0.25" stroke-linecap="round"/><path d="M240.22874,176.29708l-0.57984,0.16803" fill="none" stroke="#000000" stroke-width="0.25" stroke-linecap="round"/><path d="M241.36293,175.89946l-0.55434,0.22961" fill="none" stroke="#000000" stroke-width="0.25" stroke-linecap="round"/><path d="M241.80462,175.57218l0.44171,-0.32728" fill="none" stroke="#000000" stroke-width="0.25" stroke-linecap="round"/><path d="M242.48833,174.78387l0.20591,-0.37394" fill="none" stroke="#000000" stroke-width="0.25" stroke-linecap="round"/><path d="M238.26051,175.42909l-0.11892,0.52156l-0.43846,-0.01003" fill="none" stroke="#000000" stroke-width="0.25" stroke-linecap="round"/><path d="M243.11711,173.79647l-0.36688,0.24029l-0.37667,-0.37986" data-paper-data="{&quot;index&quot;:null}" fill="none" stroke="#000000" stroke-width="0.25" stroke-linecap="round"/><path d="M236.23797,173.24994l1.40891,0.60052" fill="none" stroke="#ffffff" stroke-width="0.25" stroke-linecap="round"/><path d="M237.1018,172.78569l-0.38712,1.53317" fill="none" stroke="#ffffff" stroke-width="0.25" stroke-linecap="round"/><path d="M235.75732,173.24486c-0.01263,-0.20766 0.14549,-0.38626 0.35315,-0.39888c0.20766,-0.01263 0.38626,0.14549 0.39888,0.35315c0.01263,0.20766 -0.14549,0.38626 -0.35315,0.39888c-0.20766,0.01263 -0.38626,-0.14549 -0.39888,-0.35315z" fill="#ffffff" stroke="none" stroke-width="0" stroke-linecap="butt"/><path d="M237.37133,173.8329c-0.01263,-0.20766 0.1455,-0.38626 0.35315,-0.39888c0.20766,-0.01263 0.38626,0.14549 0.39888,0.35315c0.01263,0.20766 -0.14549,0.38626 -0.35315,0.39888c-0.20766,0.01263 -0.38626,-0.1455 -0.39888,-0.35315z" fill="#ffffff" stroke="none" stroke-width="0" stroke-linecap="butt"/><path d="M236.74956,172.63557c-0.01263,-0.20766 0.1455,-0.38626 0.35316,-0.39888c0.20766,-0.01263 0.38626,0.14549 0.39888,0.35315c0.01263,0.20766 -0.14549,0.38626 -0.35315,0.39888c-0.20766,0.01263 -0.38627,-0.1455 -0.39889,-0.35315z" fill="#ffffff" stroke="none" stroke-width="0" stroke-linecap="butt"/><path d="M236.37493,174.37384c-0.01263,-0.20766 0.1455,-0.38626 0.35315,-0.39888c0.20766,-0.01263 0.38626,0.14549 0.39888,0.35315c0.01263,0.20766 -0.14549,0.38626 -0.35315,0.39888c-0.20766,0.01263 -0.38626,-0.1455 -0.39888,-0.35315z" fill="#ffffff" stroke="none" stroke-width="0" stroke-linecap="butt"/><path d="M242.90386,171.74625l-1.40891,-0.60052" fill="none" stroke="#ffffff" stroke-width="0.25" stroke-linecap="round"/><path d="M241.97165,172.21465l0.38712,-1.53317" fill="none" stroke="#ffffff" stroke-width="0.25" stroke-linecap="round"/><path d="M241.0143,171.14064c-0.01263,-0.20766 0.14549,-0.38626 0.35315,-0.39888c0.20766,-0.01263 0.38626,0.14549 0.39888,0.35315c0.01263,0.20766 -0.14549,0.38626 -0.35315,0.39888c-0.20766,0.01263 -0.38626,-0.14549 -0.39888,-0.35315z" fill="#ffffff" stroke="none" stroke-width="0" stroke-linecap="butt"/><path d="M242.6283,171.72869c-0.01263,-0.20766 0.1455,-0.38626 0.35315,-0.39888c0.20766,-0.01263 0.38626,0.14549 0.39888,0.35315c0.01263,0.20766 -0.14549,0.38626 -0.35315,0.39888c-0.20766,0.01263 -0.38626,-0.1455 -0.39888,-0.35315z" fill="#ffffff" stroke="none" stroke-width="0" stroke-linecap="butt"/><path d="M242.00654,170.53135c-0.01263,-0.20766 0.1455,-0.38626 0.35316,-0.39888c0.20766,-0.01263 0.38626,0.14549 0.39888,0.35315c0.01263,0.20766 -0.14549,0.38626 -0.35315,0.39888c-0.20766,0.01263 -0.38627,-0.1455 -0.39889,-0.35315z" fill="#ffffff" stroke="none" stroke-width="0" stroke-linecap="butt"/><path d="M241.63191,172.26962c-0.01263,-0.20766 0.1455,-0.38626 0.35315,-0.39888c0.20766,-0.01263 0.38626,0.14549 0.39888,0.35315c0.01263,0.20766 -0.14549,0.38626 -0.35315,0.39888c-0.20766,0.01263 -0.38626,-0.1455 -0.39888,-0.35315z" fill="#ffffff" stroke="none" stroke-width="0" stroke-linecap="butt"/></g><g><path d="M236.47295,167.86159c0,0 -0.53481,-2.058 -0.42904,-3.38566c0.10578,-1.32766 1.36552,-2.55847 1.36552,-2.55847l0.45103,0.6018c0,0 -0.97981,0.7378 -1.07666,2.00016c-0.09685,1.26236 0.3325,3.14435 0.3325,3.14435z" fill="#000000" stroke="none" stroke-width="0" stroke-linecap="butt"/><path d="M236.91523,162.54753l1.45032,-3.37477l4.5411,-0.16817l-2.54614,3.43395z" fill="#ea035a" stroke="none" stroke-width="0" stroke-linecap="butt"/><path d="M237.08318,162.53945l5.68689,-3.56604" fill="none" stroke="#000000" stroke-width="0.25" stroke-linecap="round"/><path d="M240.38608,162.42807l-2.01486,-0.77199l-0.06804,-2.58994" fill="none" stroke="#000000" stroke-width="0.25" stroke-linecap="round"/></g></g><g data-paper-data="{&quot;index&quot;:null}"><g data-paper-data="{&quot;index&quot;:null}" stroke="none" stroke-width="0" stroke-linecap="butt"><path d="M242.52292,182.4403c0,0 5.57009,0.1358 5.74937,0.06837c0.17929,-0.06744 0.95731,1.01607 1.15451,1.48617c0.1972,0.47011 0.91234,1.718 0.91234,1.718c0,0 -1.18942,-0.74624 -2.2125,-1.08757c-0.6055,-0.20203 -1.54627,-0.32761 -2.37417,-0.61614c-1.50199,-0.52343 -3.22955,-1.56882 -3.22955,-1.56882z" fill="#54c81c"/><path d="M243.68967,182.96838c-4.20189,-1.63655 -4.57422,-3.6651 -4.57422,-3.6651c0,0 -0.12992,0.36024 1.30771,0.96282c0.49445,0.20725 1.68683,-1.21527 4.28903,-0.43313c3.3294,1.00071 4.08814,3.46181 4.08814,3.46181c0,0 -2.08625,0.85155 -5.11065,-0.3264z" fill="#ffffff"/></g><path d="M246.77296,183.32288l0.51231,0.50598" fill="none" stroke="#ffffff" stroke-width="0.25" stroke-linecap="round"/><path d="M248.0171,183.32287l0.36594,0.50598" fill="none" stroke="#ffffff" stroke-width="0.25" stroke-linecap="round"/></g><g data-paper-data="{&quot;index&quot;:null}"><g data-paper-data="{&quot;index&quot;:null}" stroke="none" stroke-width="0" stroke-linecap="butt"><path d="M246.9943,186.63148c0.53539,1.77112 -0.01172,3.92281 -0.01172,3.92281c0,0 -1.8872,-1.3282 -2.83188,-2.08057c-0.94467,-0.75236 -3.72128,-2.09972 -3.72128,-2.09972l4.69426,-2.90743c0,0 1.46589,1.82598 1.87062,3.1649z" fill="#54c81c"/><path d="M245.12366,183.46656c0.58172,0.56723 2.13667,3.88199 0.91719,3.97908c-3.06459,0.24399 -6.29206,-0.9219 -7.69932,-2.53511c-1.50424,-1.7244 -0.80858,-5.12035 -0.80858,-5.12035l0.90291,-0.32073c0,0 0.53204,1.12512 2.59057,1.59887c3.01826,0.69463 3.5199,1.83528 4.09724,2.39824z" fill="#ffffff"/></g><path d="M243.46846,187.08486l0.64328,0.73749" fill="none" stroke="#ffffff" stroke-width="0.25" stroke-linecap="round"/><path d="M245.78671,187.93145l-0.56792,-0.73749" fill="none" stroke="#ffffff" stroke-width="0.25" stroke-linecap="round"/><path d="M246.67931,187.15119l-0.73026,-0.87103" fill="none" stroke="#ffffff" stroke-width="0.25" stroke-linecap="round"/></g><g data-paper-data="{&quot;index&quot;:null}"><g data-paper-data="{&quot;index&quot;:null}" stroke="none" stroke-width="0" stroke-linecap="butt"><path d="M227.25047,183.83447c0,0 0.72063,-3.05228 4.79348,-4.04492c0.64098,-0.16427 -1.32282,1.5744 -0.99076,2.30074c0.33202,0.72625 3.30002,1.19088 3.30002,1.19088c0,0 -3.02621,-0.01156 -3.8153,0.12175c-0.78909,0.13331 -3.28744,0.43155 -3.28744,0.43155z" fill="#54c81c"/><path d="M239.56088,180.73131c0,0 -3.54854,2.1994 -5.16115,2.45574c-1.48879,0.23666 -5.34604,-0.97493 -4.83239,-1.9914c0.51365,-1.01647 3.30122,-2.08194 5.59164,-1.99922c1.89025,0.06826 4.4019,1.53488 4.4019,1.53488z" fill="#ffffff"/></g><path d="M231.04605,182.31785l-0.77026,0.50714" fill="none" stroke="#ffffff" stroke-width="0.25" stroke-linecap="round"/><path d="M229.87069,181.55077l-0.49018,0.36224" fill="none" stroke="#ffffff" stroke-width="0.25" stroke-linecap="round"/></g><g data-paper-data="{&quot;index&quot;:null}"><g data-paper-data="{&quot;index&quot;:null}" stroke="none" stroke-width="0" stroke-linecap="butt"><path d="M237.00137,186.14258c0,0 -1.10055,0.65734 -2.90849,1.50213c-1.80794,0.84479 -4.49852,2.29653 -4.49852,2.29653c0,0 1.05086,-3.73605 1.71239,-5.12403c1.14248,-2.40487 2.8696,-2.98311 2.8696,-2.98311c0,0 -1.45775,3.16172 -0.94336,4.05504c0.50687,0.88029 3.76839,0.25343 3.76839,0.25343z" fill="#54c81c"/><path d="M234.08076,181.79351c0.13125,-0.09877 2.09713,-1.44009 3.5988,-1.33458c1.99304,0.14006 1.99869,-0.97517 2.385,-0.11843c0.3863,0.85674 0.44852,2.7101 -0.72313,3.84754c-0.97522,0.94676 -2.36968,1.97488 -2.36968,1.97488c0,0 -4.09694,0.93534 -4.69123,-0.45758c-0.63297,-1.58987 1.66331,-3.80876 1.80025,-3.91181z" fill="#ffffff"/></g><path d="M234.79513,186.29724l-0.36079,0.42486" fill="none" stroke="#ffffff" stroke-width="0.25" stroke-linecap="round"/><path d="M233.0105,186.13899l-0.21647,0.49567" fill="none" stroke="#ffffff" stroke-width="0.25" stroke-linecap="round"/><path d="M232.73154,184.51869l-0.95226,0.75397" fill="none" stroke="#ffffff" stroke-width="0.25" stroke-linecap="round"/></g><g data-paper-data="{&quot;index&quot;:null}"><path d="M237.6767,181.28862c-0.30427,-0.44307 -0.06637,-1.7509 0.28957,-2.80676c0.35593,-1.05586 0.95764,-1.25421 1.07941,-1.25421c0.15382,0 1.35868,-0.24869 2.06043,0.1482c0.70175,0.39689 0.46391,0.81182 0.64221,1.38034c0.1783,0.56851 0.3376,1.53269 0.32786,1.71279c-0.02505,0.46123 -1.45551,0.25457 -1.70209,0.53654c0,0 -2.33148,0.68137 -2.69739,0.28309z" data-paper-data="{&quot;index&quot;:null}" fill="#319a2b" stroke="none" stroke-width="0.17188" stroke-linecap="butt"/><path d="M239.04987,181.03802c0.61263,0 0.86005,-0.34217 1.03805,-0.04276c0.09193,0.15462 -0.5466,0.49821 -1.15798,0.46382c-0.68831,-0.17263 -1.50188,0.15139 -1.50188,0.15139l0.22399,-0.60534c0,0 0.78518,0.03289 1.39781,0.03289z" data-paper-data="{&quot;index&quot;:null}" fill="#ead42f" stroke="none" stroke-width="0" stroke-linecap="butt"/><path d="M242.13598,180.38421l0.34058,0.49225c0,0 -0.69825,-0.197 -1.3616,0.05504c-0.60314,0.10575 -0.80044,-0.29103 -0.19203,-0.36277c0.60841,-0.07174 1.21306,-0.18453 1.21306,-0.18453z" data-paper-data="{&quot;index&quot;:null}" fill="#ead42f" stroke="none" stroke-width="0" stroke-linecap="butt"/><path d="M239.14707,180.77492l-0.07853,0.38091" fill="none" stroke="#ffffff" stroke-width="0.25" stroke-linecap="round"/><path d="M238.12286,181.16003l0.09109,-0.32829" fill="none" stroke="#ffffff" stroke-width="0.25" stroke-linecap="round"/><path d="M241.19555,180.32128l0.03093,0.30573" fill="none" stroke="#ffffff" stroke-width="0.25" stroke-linecap="round"/><path d="M241.86559,180.27117l0.147,0.38175" fill="none" stroke="#ffffff" stroke-width="0.25" stroke-linecap="round"/></g><g data-paper-data="{&quot;index&quot;:null}" stroke="none" stroke-linecap="butt"><path d="M240.05112,177.35819c0.17022,-0.06911 0.34154,0.07628 0.48084,0.36686c0.1393,0.29058 0.24674,0.72652 0.28893,1.23856c0.04223,0.51194 0.0113,1.00389 -0.07258,1.38519c-0.08398,0.38127 -0.22099,0.65174 -0.3912,0.72085c-0.17009,0.06905 -0.34142,-0.07634 -0.48082,-0.36696c-0.1393,-0.29058 -0.24663,-0.72649 -0.28883,-1.23853c-0.04223,-0.51194 -0.01141,-1.00393 0.07258,-1.38519c0.08388,-0.3813 0.221,-0.65174 0.39108,-0.72079z" fill="#eb3d66" stroke-width="0.01872"/><path d="M240.57526,179.19398c0.01852,0.48778 -0.13593,0.88964 -0.34498,0.89758c-0.20905,0.00794 -0.39353,-0.38105 -0.41205,-0.86883c-0.01852,-0.48778 0.13593,-0.88964 0.34498,-0.89758c0.20905,-0.00794 0.39353,0.38105 0.41205,0.86883z" fill="#492116" stroke-width="0"/><path d="M239.9428,177.56186c0.07282,-0.00742 0.13081,0.06727 0.16562,0.19397c0.03489,0.12675 0.04658,0.3055 0.02688,0.50613c-0.01964,0.20068 -0.06709,0.38546 -0.12777,0.52198c-0.06074,0.13658 -0.13469,0.22486 -0.2075,0.23228c-0.07278,0.00755 -0.13075,-0.06722 -0.16563,-0.19397c-0.03489,-0.12675 -0.04658,-0.3055 -0.02692,-0.50605c0.01972,-0.20063 0.06714,-0.38554 0.12783,-0.52204c0.06074,-0.13658 0.13464,-0.22478 0.20751,-0.23227z" fill="#ffffff" stroke-width="0.01896"/></g><g data-paper-data="{&quot;index&quot;:null}"><g stroke="none" stroke-width="0" stroke-linecap="butt"><path d="M238.64606,177.81186l-0.11611,0.85131l-2.45401,-1.1786l0.28972,-0.6711z" fill="#319a2b"/><path d="M236.36277,176.62857c0.44758,0.4677 0.10694,0.9667 -0.3304,0.90083c-1.05675,-0.15916 -2.91676,-1.16673 -2.91676,-1.16673l0.1268,-1.52997c0,0 2.70197,1.35866 3.12035,1.79586z" fill="#ead42f"/><path d="M232.61633,174.57858c0.87563,-0.08961 2.26229,1.70602 1.60347,3.35624c-0.54393,1.36244 -0.89877,2.00623 -2.13966,2.26846c-0.39246,0.08294 -1.34045,-1.66377 -0.90911,-3.06593c0.43134,-1.40216 1.15862,-2.52943 1.4453,-2.55877z" fill="#f0e9bb"/></g><path d="M232.55267,174.74846c0,0 0.68726,1.39269 0.84077,2.34787c0.15351,0.95518 -0.28521,2.41403 -0.28521,2.41403" fill="none" stroke="#d3c49c" stroke-width="0.25" stroke-linecap="round"/><path d="M232.47331,175.70084l0.79365,-0.23809" fill="none" stroke="#ffffff" stroke-width="0.5" stroke-linecap="round"/><path d="M232.9495,176.89132l0.63492,-0.15873" fill="none" stroke="#ffffff" stroke-width="0.5" stroke-linecap="round"/><path d="M233.02886,177.92306l0.63492,-0.07937" fill="none" stroke="#ffffff" stroke-width="0.5" stroke-linecap="round"/><path d="M232.9495,179.03418h0.47619" fill="none" stroke="#ffffff" stroke-width="0.5" stroke-linecap="round"/></g><g data-paper-data="{&quot;index&quot;:null}"><g stroke="#ffffff" stroke-width="0" stroke-linecap="butt"><path d="M243.26643,176.26931l0.36791,0.63163l-2.29543,1.46364l-0.2171,-0.83131z" data-paper-data="{&quot;index&quot;:null}" fill="#319a2b"/><path d="M246.13036,173.92922l0.30888,1.50383c0,0 -1.72616,1.22279 -2.75628,1.50719c-0.42633,0.11771 -0.8242,-0.33696 -0.43577,-0.85484c0.36309,-0.4841 2.88317,-2.15618 2.88317,-2.15618z" data-paper-data="{&quot;index&quot;:null}" fill="#ead42f"/><path d="M248.57002,175.88155c0.67409,1.30297 0.05223,3.19054 -0.34873,3.17881c-1.26775,-0.03712 -1.73155,-0.60744 -2.50935,-1.85128c-0.94209,-1.50656 0.10271,-3.52038 0.98031,-3.5881c0.28733,-0.02218 1.20368,0.95761 1.87777,2.26057z" data-paper-data="{&quot;index&quot;:null}" fill="#f0e9bb"/></g><path d="M247.30758,178.82881c0,0 -0.65014,-1.3777 -0.63992,-2.34509c0.01022,-0.96739 0.48344,-2.44656 0.48344,-2.44656" data-paper-data="{&quot;index&quot;:null}" fill="none" stroke="#d3c49c" stroke-width="0.25" stroke-linecap="round"/><path d="M247.37077,174.96725l-0.82018,-0.11782" data-paper-data="{&quot;index&quot;:null}" fill="none" stroke="#ffffff" stroke-width="0.5" stroke-linecap="round"/><path d="M247.07631,176.21517l-0.65143,-0.06286" data-paper-data="{&quot;index&quot;:null}" fill="none" stroke="#ffffff" stroke-width="0.5" stroke-linecap="round"/><path d="M246.5111,177.26291l0.63967,-0.01563" data-paper-data="{&quot;index&quot;:null}" fill="none" stroke="#ffffff" stroke-width="0.5" stroke-linecap="round"/><path d="M246.92303,178.40494l0.47093,-0.07059" data-paper-data="{&quot;index&quot;:null}" fill="none" stroke="#ffffff" stroke-width="0.5" stroke-linecap="round"/></g></g></g></svg>