<svg version="1.1" xmlns="http://www.w3.org/2000/svg" xmlns:xlink="http://www.w3.org/1999/xlink" width="31.28585" height="35.19215" viewBox="0,0,31.28585,35.19215"><g transform="translate(-227.1511,-165.17565)"><g data-paper-data="{&quot;isPaintingLayer&quot;:true}" fill-rule="nonzero" stroke-miterlimit="10" stroke-dasharray="" stroke-dashoffset="0" style="mix-blend-mode: normal"><g data-paper-data="{&quot;index&quot;:null}" stroke-linejoin="miter"><path d="M240.83811,199.90666c0,0 0.26144,0.33169 -0.83569,0.45459c-0.78934,0.06897 -2.23034,-0.41772 -2.95204,-0.92951c-0.72171,-0.51181 -1.05311,-1.31718 -1.34375,-2.22634c-0.29064,-0.90916 -0.22198,-1.56966 -0.30804,-1.98909c-0.30604,-1.49139 1.0626,-1.71872 1.0626,-1.71872c0,0 -0.27834,4.17695 0.38008,4.70677c0.81236,0.65368 2.74229,1.66802 2.74229,1.66802z" fill="#947043" stroke="none" stroke-width="0" stroke-linecap="butt"/><path d="M240.10223,193.65356l0.12397,0.34014l-0.03899,0.42001c0,0 0.14581,0.89464 0.24462,1.22999c0.1216,0.41261 0.24951,0.85725 0.63043,1.78863c0.20668,1.05154 -0.15774,2.61051 -0.15774,2.61051c0,0 -1.34193,0.12198 -2.44267,-0.24429c-0.80589,-0.36924 -1.82055,-1.1253 -2.09769,-1.77831c-0.3289,-0.77501 -0.36242,-1.58571 -0.44309,-2.11107c-0.0093,-0.0605 -0.15604,-1.63931 0.06752,-1.96459c0.22353,-0.3253 0.58377,-0.81861 0.58377,-0.81861c0,0 -0.14948,0.00273 -0.00203,-0.29899c0.03367,-0.06887 0.28606,-0.22215 0.28606,-0.22215l-0.1695,-0.09265l0.23319,-0.68327l2.92785,0.79671z" fill="#20201f" stroke="none" stroke-width="0" stroke-linecap="butt"/><path d="M235.90742,195.19445c0,0 0.71562,-1.31493 1.01407,-1.81984c0.23552,-0.39843 0.59173,-0.90788 0.59173,-0.90788" fill="none" stroke="#c8c7c6" stroke-width="0.125" stroke-linecap="round"/><path d="M237.0179,190.39241c0.10589,-0.9289 1.43108,-1.01318 2.17588,-0.94928c0.74479,0.06388 1.41929,1.07543 1.43126,1.25873c0.04567,0.69903 -0.37787,1.69563 -0.54594,1.83459c-0.45636,0.24322 -0.79471,0.28281 -1.88711,0.16437c-0.59201,-0.13314 -0.97683,-0.3981 -1.22787,-0.8917c-0.25104,-0.4936 -0.03047,-0.67773 0.05379,-1.41672z" fill="#c274a1" stroke="none" stroke-width="0" stroke-linecap="butt"/><path d="M237.02868,190.45396c0.1059,-0.92889 1.43108,-1.01318 2.17588,-0.94928c0.7448,0.06388 1.41931,1.07544 1.43127,1.25873c0.04564,0.69902 -1.51347,0.67996 -1.98464,0.66346c-0.38637,-0.01353 -1.70675,-0.23389 -1.62251,-0.9729z" fill="#cacacd" stroke="none" stroke-width="0" stroke-linecap="butt"/><path d="M238.50159,199.03838c0.0362,-0.22856 0.27093,-0.78172 0.27093,-0.78172c0,0 0.03431,0.44472 0.06417,0.83177c0.02985,0.38705 -0.07266,0.69258 -0.17465,0.71045c-0.06388,0.01118 -0.28729,-0.0014 -0.37599,-0.31252c-0.05292,-0.18563 0.17933,-0.21944 0.21553,-0.44799z" fill="#c8c7c6" stroke="none" stroke-width="0" stroke-linecap="butt"/><path d="M237.26507,198.81643c0,0 0.59876,-2.06775 2.42242,-2.10831c1.28066,-0.02849 1.43698,1.10663 1.43698,1.10663" fill="none" stroke="#c8c7c6" stroke-width="0.125" stroke-linecap="round"/><path d="M240.6893,198.48305c0,0 0.14317,0.5836 0.14234,0.815c-0.00083,0.23141 0.22302,0.30194 0.14107,0.47671c-0.13737,0.2929 -0.35988,0.26959 -0.42116,0.24831c-0.09782,-0.03397 -0.1501,-0.35196 -0.05868,-0.72925c0.09142,-0.37728 0.19646,-0.81077 0.19646,-0.81077z" data-paper-data="{&quot;index&quot;:null}" fill="#c8c7c6" stroke="none" stroke-width="0" stroke-linecap="butt"/></g><path d="M239.85998,184.78407l-0.26289,3.73793l-0.20201,2.29585c0,0 -0.37918,-0.03199 -0.60147,-0.17212c-0.22231,-0.14015 -0.53094,-0.43157 -0.53094,-0.43157l0.06967,-2.24484l0.28715,-3.45135z" data-paper-data="{&quot;index&quot;:null}" fill="#20201f" stroke="none" stroke-width="0" stroke-linecap="butt" stroke-linejoin="miter"/><g data-paper-data="{&quot;index&quot;:null}" stroke-linejoin="miter"><path d="M233.26677,198.53324l1.12418,0.55795c0,0 0.09802,0.41082 -0.94931,0.06163c-0.74532,-0.2689 -1.84873,-1.31571 -2.28879,-2.08326c-0.44006,-0.76756 -0.40262,-1.63765 -0.2846,-2.58481c0.11801,-0.94716 0.45771,-1.51777 0.55573,-1.93456c0.34854,-1.48203 1.68611,-1.11361 1.68611,-1.11361c0,0 -2.00668,3.67394 -1.63161,4.43127c0.46273,0.93437 1.7883,2.6654 1.7883,2.6654z" fill="#947043" stroke="none" stroke-width="0" stroke-linecap="butt"/><path d="M236.34907,193.10719l-0.03033,0.36075l-0.21178,0.3648c0,0 -0.24338,0.87317 -0.29452,1.219c-0.06294,0.42553 -0.13356,0.88279 -0.17897,1.88802c-0.254,1.04111 -1.2394,2.30293 -1.2394,2.30293c0,0 -1.26911,-0.45283 -2.11428,-1.24748c-0.57635,-0.67354 -1.1797,-1.78579 -1.15699,-2.49481c0.02696,-0.84151 0.33699,-1.59132 0.48439,-2.10199c0.01697,-0.05881 0.5468,-1.55328 0.88627,-1.75461c0.33946,-0.20135 0.87356,-0.49778 0.87356,-0.49778c0,0 -0.13681,-0.06029 0.12371,-0.2722c0.05948,-0.04837 0.35291,-0.0815 0.35291,-0.0815l-0.11493,-0.15526l0.49857,-0.52218l2.32261,1.95258z" fill="#20201f" stroke="none" stroke-width="0" stroke-linecap="butt"/><path d="M231.89492,192.74406c0,0 1.20169,-0.89286 1.68455,-1.22577c0.38104,-0.26271 0.91825,-0.57548 0.91825,-0.57548" fill="none" stroke="#c8c7c6" stroke-width="0.125" stroke-linecap="round"/><path d="M234.91927,188.85224c0.48619,-0.79854 1.72425,-0.31855 2.37337,0.05221c0.64911,0.37075 0.83646,1.57205 0.77036,1.74342c-0.2521,0.65358 -1.055,1.38018 -1.26588,1.43572c-0.51631,0.02908 -0.84001,-0.07707 -1.78168,-0.6433c-0.48136,-0.36945 -0.71934,-0.7715 -0.7399,-1.32489c-0.02055,-0.55338 0.25695,-0.62787 0.64375,-1.26316z" fill="#c274a1" stroke="none" stroke-width="0" stroke-linecap="butt"/><path d="M234.90325,188.91262c0.48619,-0.79853 1.72425,-0.31855 2.37337,0.05221c0.64911,0.37076 0.83647,1.57206 0.77036,1.74343c-0.25212,0.65357 -1.6591,-0.01846 -2.07978,-0.2313c-0.34498,-0.17452 -1.45076,-0.92901 -1.06396,-1.56431z" fill="#cacacd" stroke="none" stroke-width="0" stroke-linecap="butt"/><path d="M232.63504,197.32197c0.12883,-0.19223 0.57416,-0.59567 0.57416,-0.59567c0,0 -0.15562,0.418 -0.29105,0.78181c-0.13545,0.36381 -0.35677,0.59804 -0.45684,0.57143c-0.06269,-0.01668 -0.26013,-0.12193 -0.20999,-0.44152c0.02993,-0.19068 0.25492,-0.12384 0.38374,-0.31605z" fill="#c8c7c6" stroke="none" stroke-width="0" stroke-linecap="butt"/><path d="M234.5209,197.52706c0,0 -0.07696,0.59596 -0.16122,0.81147c-0.08426,0.21552 0.09908,0.36206 -0.0404,0.49549c-0.23376,0.22365 -0.43289,0.12164 -0.48237,0.0797c-0.07897,-0.06698 -0.01304,-0.3824 0.20832,-0.70132c0.22136,-0.31891 0.47569,-0.68532 0.47569,-0.68532z" data-paper-data="{&quot;index&quot;:null}" fill="#c8c7c6" stroke="none" stroke-width="0" stroke-linecap="butt"/><path d="M231.60607,196.6013c0,0 1.41172,-1.62515 3.08383,-0.89614c1.17422,0.51192 0.83941,1.60775 0.83941,1.60775" fill="none" stroke="#c8c7c6" stroke-width="0.125" stroke-linecap="round"/><g fill="#83c4ac" stroke="none" stroke-width="0" stroke-linecap="butt"><path d="M234.16929,192.15263c-0.10262,-0.04428 -0.03465,-1.08979 -0.03465,-1.08979l0.21485,-0.01777l0.5705,0.86245c0,0 -0.6296,0.29735 -0.75069,0.24511z"/><path d="M233.89455,190.26233c0.1111,-0.01204 0.50113,0.80355 0.50113,0.80355l-0.28282,0.06341l-0.691,-0.43294c0,0 0.34156,-0.41981 0.47267,-0.43403z" data-paper-data="{&quot;index&quot;:null}"/><path d="M233.18421,192.61075c-0.09314,-0.06177 0.15913,-1.07867 0.15913,-1.07867l0.25911,0.02247l0.36401,0.94806c0,0 -0.67235,0.181 -0.78225,0.10812z"/><path d="M233.36467,190.65281c0.11018,0.01874 0.26276,0.90984 0.26276,0.90984l-0.2894,-0.01618l-0.54656,-0.60513c0,0 0.44317,-0.31064 0.57319,-0.28852z" data-paper-data="{&quot;index&quot;:null}"/><path d="M232.08548,192.82713l0.03816,-0.39442l0.74258,-0.47739c0,0 0.2547,-0.31882 0.34672,-0.17398c0.09201,0.14486 -0.21282,0.38477 -0.21282,0.38477l-0.49034,0.84478z"/></g></g><path d="M239.23981,184.87567l-1.64376,3.80032l-0.74985,1.64565c0,0 -0.49919,-0.26054 -0.69529,-0.45193c-0.19608,-0.19139 -0.37556,-0.59322 -0.37556,-0.59322l0.5784,-1.2227l1.57588,-3.43239z" data-paper-data="{&quot;index&quot;:null}" fill="#20201f" stroke="none" stroke-width="0" stroke-linecap="butt" stroke-linejoin="miter"/><g data-paper-data="{&quot;index&quot;:null}" stroke="none" stroke-width="0" stroke-linecap="butt" stroke-linejoin="miter"><path d="M248.7985,178.92799c0.13343,-0.02385 1.07062,0.45319 1.45686,0.72831c0.21094,0.15026 0.60576,0.42768 0.50868,0.85186c-0.02474,0.10811 -0.386,0.51077 -0.386,0.51077l0.17359,0.3819c0,0 -0.05641,0.24344 -0.16108,0.35269c-0.10468,0.10926 -0.36296,0.22197 -0.36296,0.22197c0,0 -0.03126,0.16884 -0.02875,0.29184c0.0082,0.40143 -0.36614,0.44195 -0.36614,0.44195c0,0 0.0393,0.29053 -0.05888,0.47893c-0.15564,0.29868 -0.50218,0.55614 -0.72537,0.6272c-0.37913,0.12074 -1.48558,0.19857 -1.67421,-0.12036c-0.29379,-0.49674 0.35611,-0.7847 0.35611,-0.7847c0,0 -0.5988,-0.0658 -0.88956,-0.28586c-0.44771,-0.33885 -0.53468,-0.69214 -0.53468,-0.69214l0.50408,-2.40281c0,0 1.35079,-0.45188 2.18832,-0.60154z" fill="#20201f"/><path d="M243.74319,179.19699c1.14518,0.50025 2.35673,0.94367 2.35673,0.94367l-0.97609,0.93001c0,0 -1.46482,-0.75241 -1.92683,-0.95423c-0.75782,-0.33105 -1.73539,-0.71127 -2.86209,-1.12261c-0.28232,-0.10307 -0.39228,-0.31023 -0.29895,-0.60242c0.06271,-0.19629 0.20068,-0.35391 0.56695,-0.27162c1.1061,0.24852 2.33931,0.72732 3.14029,1.07722z" fill="#fed5c7"/><path d="M245.75833,178.61356c0.92433,-0.16296 1.74465,0.17098 1.5993,1.50994c-0.14535,1.33898 -1.12603,2.4493 -2.04962,2.63857c-0.92359,0.18927 -1.24646,-0.9715 -1.13124,-2.03297c0.11523,-1.06147 0.65725,-1.95258 1.58157,-2.11553z" fill="#20201f"/><path d="M247.61303,182.76447c0,0 0.71615,1.19306 0.47224,1.2076c-0.41432,0.02472 -0.92498,-0.13476 -1.03379,-0.50566c-0.16948,-0.57766 0.56155,-0.70193 0.56155,-0.70193z" fill="#c0c2c6"/><path d="M248.23216,181.49223c0,0 0.71615,1.19306 0.47224,1.2076c-0.41432,0.02472 -0.92498,-0.13476 -1.03379,-0.50566c-0.16948,-0.57766 0.56155,-0.70193 0.56155,-0.70193z" fill="#c0c2c6"/><path d="M248.74957,180.32937c0,0 0.71615,1.19306 0.47224,1.2076c-0.41432,0.02472 -0.92498,-0.13476 -1.03379,-0.50566c-0.16948,-0.57766 0.56155,-0.70193 0.56155,-0.70193z" fill="#c0c2c6"/><path d="M247.15544,179.72276c0,0 1.10312,0.84816 0.88146,0.95098c-0.37651,0.17464 -0.9101,0.21313 -1.14712,-0.09221c-0.36915,-0.47554 0.26567,-0.85875 0.26567,-0.85875z" fill="#c0c2c6"/><path d="M248.96506,179.41376c0,0 0.71615,1.19306 0.47224,1.2076c-0.41432,0.02472 -0.92498,-0.13476 -1.03379,-0.50566c-0.16948,-0.57766 0.56155,-0.70193 0.56155,-0.70193z" fill="#c0c2c6"/><g><path d="M242.763,180.20156l-1.06681,-0.40374l0.60662,-1.30822l1.08339,0.37377z" fill="#83c4ac"/><path d="M241.37224,177.70911c1.03139,0.38493 1.07137,0.99376 0.82367,1.55711c-0.24771,0.56335 -0.63264,0.92115 -1.72066,0.48294c-0.612,-0.24649 -0.90733,-0.90298 -0.65963,-1.46633c0.24769,-0.56335 0.93794,-0.80464 1.55661,-0.57374z" fill="#20201f"/><path d="M244.80227,179.60078l-0.43524,1.05593l-0.41829,0.51424l-1.21569,-0.98597l0.63978,-1.36815l1.47725,0.23047z" fill="#bebec0"/></g></g><g data-paper-data="{&quot;index&quot;:null}" stroke-width="0" stroke-linecap="butt" stroke-linejoin="miter"><g data-paper-data="{&quot;index&quot;:null}"><path d="M250.57311,169.24979c-0.13285,1.05513 -1.09907,1.80238 -2.15809,1.66903c-1.059,-0.13334 -1.8098,-1.0968 -1.67694,-2.15193c0.13285,-1.05513 1.09905,-1.80238 2.15807,-1.66903c1.059,0.13335 1.80982,1.09681 1.67696,2.15194z" fill="#c2e266" stroke="none"/><path d="M248.49789,170.82766c-0.65427,-0.08237 -1.1181,-0.6776 -1.03602,-1.32946c0.08209,-0.65187 0.679,-1.11352 1.33327,-1.03113c0.65427,0.08237 1.1181,0.6776 1.03602,1.32946c-0.08209,0.65186 -0.679,1.11352 -1.33327,1.03113z" fill="#c2e266" stroke="#000000"/><path d="M249.72385,173.50222c-0.47081,0.98234 -2.27229,3.22094 -2.27229,3.22094c0,0 -1.16615,-2.93658 -0.65457,-4.23495c0.4927,-1.25044 0.67009,-1.43273 0.67009,-1.43273l2.08487,0.27751c0,0 0.64272,1.18687 0.1719,2.16922z" fill="#e8edf4" stroke="#000000"/><path d="M248.45015,171.42118c-0.57925,-0.07555 -1.25176,-0.51669 -1.25176,-0.51669l0.34132,-0.45079c0,0 0.59165,0.40978 1.04545,0.44096c0.45381,0.03119 1.12791,-0.29159 1.12791,-0.29159l0.13098,0.70329c0,0 -0.88693,0.18096 -1.3939,0.11484z" fill="#dbded5" stroke="#000000"/></g><g data-paper-data="{&quot;index&quot;:null}" stroke="none"><path d="M242.23839,175.18269c-0.05217,0.41431 -0.25629,0.7298 -0.45589,0.70467c-0.19961,-0.02513 -0.31912,-0.38137 -0.26695,-0.79569c0.05217,-0.41431 0.25627,-0.7298 0.45587,-0.70467c0.19962,0.02513 0.31914,0.38137 0.26697,0.79569z" fill="#000000"/><path d="M239.918,179.44504c0.20791,0.02618 0.71056,2.25379 0.71056,2.25379c0,0 -1.08354,0.19888 -1.29146,0.1727c-0.2079,-0.02618 -0.40632,-1.2682 -0.38336,-1.4505c0.02295,-0.18231 0.75635,-1.00216 0.96427,-0.97598z" fill="#807d5a"/><path d="M241.57635,175.63006l-0.06136,-0.32272l5.56574,-5.24342l0.11162,0.16647z" fill="#6e6e73"/><path d="M246.46558,170.4945l0.29099,0.36179l-1.33459,1.20371l-0.26088,-0.35801z" fill="#c2e266"/></g></g><g data-paper-data="{&quot;index&quot;:null}" stroke-width="0" stroke-linecap="butt" stroke-linejoin="miter"><g data-paper-data="{&quot;index&quot;:null}"><path d="M227.48902,167.3365c0.17043,-1.35356 1.40992,-2.31215 2.76847,-2.14109c1.35856,0.17107 2.3217,1.40703 2.15126,2.76058c-0.17043,1.35356 -1.40992,2.31214 -2.76847,2.14108c-1.35855,-0.17106 -2.3217,-1.40702 -2.15126,-2.76057z" fill="#c2e266" stroke="none"/><path d="M229.56628,169.95741c-0.83931,-0.10569 -1.43435,-0.86927 -1.32905,-1.7055c0.10529,-0.83625 0.87105,-1.42846 1.71036,-1.32277c0.83932,0.10569 1.43435,0.86926 1.32905,1.70549c-0.10529,0.83623 -0.87104,1.42847 -1.71035,1.32278z" fill="#c2e266" stroke="#000000"/><path d="M227.19213,172.89142c-0.27272,-1.37057 0.90351,-2.64121 0.90351,-2.64121l2.67931,0.31815c0,0 0.16248,0.28296 0.37713,1.99369c0.22287,1.77628 -2.33256,5.06706 -2.33256,5.06706c0,0 -1.35469,-3.36712 -1.62741,-4.73769z" fill="#e8edf4" stroke="#000000"/><path d="M229.43685,170.7102c-0.65106,-0.07905 -1.69578,-0.586 -1.69578,-0.586l0.38643,-0.8324c0,0 0.7351,0.61555 1.309,0.72111c0.57391,0.10556 1.43952,-0.21555 1.43952,-0.21555l0.28083,0.66879c0,0 -0.97607,0.33439 -1.71998,0.24405z" fill="#dbded5" stroke="#000000"/></g><g data-paper-data="{&quot;index&quot;:null}" stroke="none"><path d="M234.96102,178.78074c0.25716,-0.39517 0.85758,-2.80535 2.13354,-2.60557c0.19803,0.031 1.57012,1.5118 1.67211,2.57956c0.13873,1.45245 -1.02968,2.60454 -1.02968,2.60454l-3.0885,-0.40845c0,0 0.05534,-1.77493 0.3125,-2.17009z" fill="#c2e266"/><path d="M236.54536,176.45646c0.25607,0.03225 0.4094,0.48925 0.34247,1.02075c-0.06692,0.5315 -0.32877,0.93623 -0.58483,0.90399c-0.25606,-0.03225 -0.40938,-0.48925 -0.34245,-1.02075c0.06692,-0.53151 0.32875,-0.93623 0.58481,-0.90399z" fill="#000000"/><path d="M234.52672,183.13694c-0.04038,-0.8593 0.12013,-2.20083 0.12013,-2.20083c0,0 0.60507,-0.27178 0.98,-0.33289c0.37494,-0.06111 0.98002,-0.03686 0.98002,-0.03686l1.12352,0.93253c0,0 -0.16849,2.99017 -0.20351,3.37144c-0.07053,0.76784 -1.55895,1.15934 -1.55895,1.15934l-1.11111,-0.62644c0,0 -0.28972,-1.40701 -0.33011,-2.26632z" fill="#20201f"/><path d="M235.88893,185.97059c0,0 1.3331,-2.6086 1.59983,-2.57501c0.26673,0.03358 0.91746,1.28574 0.88801,1.5196c-0.02945,0.23386 -0.67103,1.71435 -0.93776,1.68076c-0.26674,-0.03359 -1.5501,-0.62534 -1.5501,-0.62534z" fill="#c274a1"/><path d="M231.37878,169.6303l0.19166,-0.1714l5.24952,8.28651l-0.17888,0.38156z" fill="#6e6e73"/><path d="M233.43516,172.10519l-0.43807,0.36197l-1.27582,-1.92039l0.47671,-0.35709z" fill="#c2e266"/></g></g><g data-paper-data="{&quot;index&quot;:null}" stroke="none" stroke-width="0" stroke-linecap="butt" stroke-linejoin="miter"><path d="M238.21203,182.65009c0,0 -3.19974,2.3238 -4.01793,2.23066c-0.88908,-0.10122 -2.36643,-1.54223 -2.36643,-1.54223l2.49443,0.75268l2.57837,-1.673l1.31155,0.23191z" fill="#f79db4"/><path d="M236.5473,181.12581c-0.6037,0.33485 -1.20195,0.32637 -1.53682,-0.27733c-0.33487,-0.60371 -0.11693,-1.36455 0.48677,-1.69942c0.60371,-0.33487 1.36456,-0.11693 1.69943,0.48677c0.33486,0.60371 -0.04568,1.15511 -0.64938,1.48998z" fill="#83c4ac"/><path d="M245.07562,183.52961c0,0 -0.33587,0.8794 -1.29572,1.21163c-0.21301,0.72678 -0.81381,1.45095 -1.79128,1.47241c-0.31007,0.47526 -0.99493,0.80701 -1.86129,0.44306c-0.35851,0.36554 -1.08815,0.50248 -1.60202,-0.06206c-0.70553,0.34934 -1.52585,0.19139 -1.93457,-0.51018c-0.84198,0.1169 -1.19972,-0.74982 -1.66953,-1.18893c-0.59298,-0.11651 -1.25047,-0.56603 -1.32136,-1.5091c-0.13153,-0.86443 -0.53439,-1.36669 -0.53439,-1.36669l1.8991,-0.36392c0,0 0.2444,0.21898 0.76465,0.82774c0.42899,0.50199 0.87482,1.38897 3.02029,1.58656c2.40612,0.2216 2.921,-0.12054 3.45344,-0.78041c0.37732,-0.46761 1.03092,-0.59588 1.03092,-0.59588z" fill="#c0c2c6"/><path d="M240.81333,177.80681c0,0 0.10715,0.79435 0.12966,1.43092c0.02253,0.63656 -0.00809,1.52998 -0.00809,1.52998c0,0 0.62301,0.69714 1.26248,1.16387c0.63945,0.46672 1.16531,0.87877 1.16531,0.87877c0,0 -0.58879,0.21252 -0.90433,0.62232c-0.18749,0.24351 0.02406,0.65197 -0.31616,0.86572c-0.45269,0.28441 -0.99747,-0.15606 -1.3324,-0.02486c-0.71584,0.28038 -1.13107,0.88114 -2.26701,0.63862c-0.63617,-0.13583 -0.99276,-0.83765 -1.36319,-0.98617c-0.69246,-0.27762 -1.147,-0.01913 -1.55154,-0.35231c-0.23896,-0.19681 -0.10647,-0.64965 -0.25478,-0.96534c-0.23706,-0.50462 -0.68379,-0.86986 -0.68379,-0.86986c0,0 1.29962,-0.40344 1.9377,-0.85531c0.63809,-0.45186 0.71942,-0.59113 1.13578,-1.3184c0.41636,-0.72727 0.36045,-2.15426 0.36045,-2.15426l2.33011,0.31288l0.35978,0.08341z" fill="#20201f"/><path d="M236.18892,181.57489l-0.19594,-0.32989c0,0 0.36424,-0.18718 0.56199,-0.3361c0.21952,-0.16531 0.33549,-0.26508 0.33549,-0.26508l0.51451,0.80719l-0.39227,0.32107z" data-paper-data="{&quot;index&quot;:null}" fill="#c274a1"/><path d="M237.70227,182.4656l-0.6942,-0.6781l0.31511,-0.25907l0.78085,0.7684z" data-paper-data="{&quot;index&quot;:null}" fill="#c0c2c6"/><path d="M241.00786,182.2375l-0.34146,-0.37466l0.62631,-0.72389c0,0 0.10025,0.11556 0.29343,0.311c0.17403,0.17606 0.50722,0.41417 0.50722,0.41417l-0.24178,0.29792z" fill="#c274a1"/><path d="M239.41681,182.70861l1.29352,-0.84025l0.27413,0.3021l-1.19466,0.7635z" fill="#c0c2c6"/><path d="M237.55354,179.10328c0.34874,-1.60638 0.8051,-1.8065 0.8051,-1.8065l2.60007,0.39601c0,0 0.5424,0.13234 0.37364,1.53449c-0.07449,0.61896 -0.50504,1.46215 -0.50504,1.46215l-0.38685,-0.73862c0,0 -0.48775,0.54225 -0.75978,0.74021c-0.26716,0.19443 -0.7227,0.39508 -0.89816,0.43212c-0.1808,0.03816 -1.65465,-0.05901 -1.22897,-2.01985z" fill="#c0c0c3"/><path d="M239.09176,177.61398l1.98439,0.09857l-0.63309,0.48576z" fill="#222225"/><g><g><path d="M239.76288,183.69946c-0.42059,0.47748 -1.28684,0.40185 -1.93485,-0.16893c-0.64802,-0.57077 -0.83238,-1.42055 -0.41181,-1.89803c0.42059,-0.47748 1.28684,-0.40185 1.93485,0.16893c0.648,0.57077 0.83237,1.42055 0.41179,1.89804z" fill="#c0c2c6"/><path d="M239.07809,180.78961c0.13504,0.21133 0.07319,0.49211 -0.13813,0.62715c-0.21132,0.13503 -0.49211,0.07319 -0.62715,-0.13813c-0.13503,-0.21132 -0.07318,-0.49211 0.13814,-0.62715c0.21133,-0.13503 0.49211,-0.07318 0.62715,0.13814z" fill="#000000"/><path d="M239.03412,181.05843c-0.03003,0.18583 -0.19294,0.11766 -0.37877,0.08765c-0.18583,-0.03001 -0.32417,-0.01049 -0.29416,-0.19632c0.03001,-0.18582 0.20497,-0.31213 0.3908,-0.28212c0.18582,0.03001 0.31213,0.20497 0.28212,0.3908z" fill="#c478a9"/><path d="M240.58618,182.60438c-0.14004,0.20804 -0.42222,0.26317 -0.63026,0.12313c-0.20804,-0.14004 -0.26316,-0.42222 -0.12312,-0.63026c0.14004,-0.20804 0.42222,-0.26317 0.63026,-0.12313c0.20804,0.14004 0.26317,0.42222 0.12313,0.63026z" fill="#000000"/><path d="M240.3221,182.67112c-0.1824,0.0465 -0.18477,-0.1301 -0.23127,-0.3125c-0.0465,-0.1824 -0.11951,-0.30152 0.06289,-0.34802c0.18239,-0.04649 0.36794,0.06367 0.41444,0.24607c0.04649,0.18239 -0.06367,0.36794 -0.24607,0.41444z" fill="#c478a9"/><path d="M239.86561,182.72708c-0.01074,0.0853 -0.20111,0.1685 -0.44197,0.13817c-0.24086,-0.03034 -0.4091,-0.26944 -0.39836,-0.35475c0.01074,-0.08531 0.23974,-0.1821 0.48061,-0.15177c0.24086,0.03033 0.37047,0.28303 0.35973,0.36835z" fill="#000000"/><path d="M238.41494,181.46463c0.08236,-0.02467 0.35299,0.06149 0.42262,0.29406c0.06963,0.23257 0.01192,0.47438 -0.07044,0.49905c-0.08237,0.02467 -0.34595,-0.10184 -0.41558,-0.33441c-0.06964,-0.23257 -0.01897,-0.43403 0.06339,-0.4587z" data-paper-data="{&quot;index&quot;:null}" fill="#000000"/><path d="M239.58518,182.60869c-0.01138,0.09033 -0.09382,0.15433 -0.18414,0.14296c-0.09033,-0.01139 -0.15433,-0.09383 -0.14296,-0.18415c0.01138,-0.09032 0.09382,-0.15432 0.18414,-0.14295c0.09032,0.01137 0.15432,0.09381 0.14295,0.18413z" fill="#ffffff"/><path d="M238.636,182.15689c-0.09533,-0.01201 -0.16289,-0.09903 -0.15089,-0.19437c0.01201,-0.09533 0.09903,-0.16289 0.19437,-0.15089c0.09533,0.01201 0.16289,0.09903 0.15089,0.19437c-0.01201,0.09533 -0.09903,0.16289 -0.19437,0.15089z" fill="#ffffff"/></g><path d="M238.92445,182.68899c-0.04573,0.04725 -0.15152,0.04451 -0.22056,-0.02232c-0.06904,-0.06683 -0.0752,-0.17247 -0.02947,-0.21971c0.04573,-0.04724 0.29576,0.19479 0.25003,0.24203z" fill="#000000"/><path d="M239.3217,183.01615c0.11592,0.08131 0.17459,0.19759 0.13103,0.2597c-0.04358,0.06211 -0.17288,0.04652 -0.28881,-0.0348c-0.11592,-0.08131 -0.17459,-0.19759 -0.13103,-0.2597c0.04358,-0.06211 0.17288,-0.04652 0.28881,0.0348z" fill="#ad597c"/><path d="M238.20946,182.02695c0.11592,0.08131 0.17459,0.19759 0.13103,0.2597c-0.04358,0.06211 -0.17288,0.04652 -0.28881,-0.0348c-0.11592,-0.08131 -0.17459,-0.19759 -0.13103,-0.2597c0.04358,-0.06211 0.17288,-0.04652 0.28881,0.0348z" fill="#ad597c"/></g><g fill="#83c4ac"><path d="M241.18569,180.46193c0,0 -0.34602,-0.30521 -0.4896,-0.42192c-0.16156,-0.13133 -0.4322,-0.32737 -0.4322,-0.32737l0.10279,-0.17425c0,0 0.40256,0.0051 0.57491,0.06c0.18825,0.05997 0.51112,0.28594 0.51112,0.28594l-0.26703,0.57761z"/><path d="M239.27534,180.65654l-0.28649,-0.56821c0,0 0.31501,-0.2368 0.50112,-0.30312c0.17039,-0.06072 0.93082,-0.24994 0.93082,-0.24994l-0.13677,0.19366c0,0 -0.37669,0.35258 -0.5337,0.48932c-0.13953,0.12151 -0.47498,0.43829 -0.47498,0.43829z" data-paper-data="{&quot;index&quot;:null}"/><path d="M240.16939,181.45322c0,0 0.07248,-0.60478 0.09438,-0.9144c0.02189,-0.30962 0.02654,-0.79489 0.02654,-0.79489l0.27518,0.0616c0,0 0.02878,0.32446 0.01744,0.62182c-0.01134,0.29735 -0.07009,0.75925 -0.07009,0.75925z"/><path d="M239.73682,181.25057c0,0 0.0576,-0.46204 0.12033,-0.75292c0.06273,-0.2909 0.22095,-0.78043 0.22095,-0.78043l0.2454,-0.02298c0,0 -0.14074,0.56244 -0.19628,0.86782c-0.05554,0.30538 -0.15186,0.9341 -0.15186,0.9341z" data-paper-data="{&quot;index&quot;:null}"/></g></g><g data-paper-data="{&quot;index&quot;:null}" stroke-width="0" stroke-linecap="butt" stroke-linejoin="miter"><path d="M252.85538,174.34775c2.26961,-2.01084 4.50926,-0.74393 4.50926,-0.74393c0,0 -0.1445,-0.22358 0.34671,0.31338c0.49121,0.53695 0.22439,0.30753 0.22439,0.30753c0,0 -1.92967,1.17283 -3.60605,2.04573c-1.76637,2.20275 -2.0171,3.06211 -2.0171,3.06211l-0.60503,-0.74138c0,0 -0.46971,-2.8104 1.14779,-4.24347z" fill="#cacacd" stroke="none"/><path d="M257.00022,178.91355c-2.76889,2.4993 -4.71811,0.40694 -4.71811,0.40694c0,0 -0.06151,-2.02998 1.98901,-3.8662c1.9307,-1.72893 3.73754,-1.19168 3.73754,-1.19168c0,0 1.45891,2.42384 -1.00844,4.65094z" fill="#c2e266" stroke="#000000"/><path d="M250.04312,176.47796c0,0 -2.63061,-3.11867 0.10001,-5.49621c2.69164,-2.34358 5.36629,0.48416 5.36629,0.48416l-5.46632,5.01206z" fill="#c2e266" stroke="none"/><path d="M249.87257,176.29014c0,0 -0.74519,-2.22698 1.412,-4.09633c2.18443,-1.88859 4.03024,-0.93766 4.03024,-0.93766l0.1854,0.20941l-3.73343,1.25432l-1.67034,3.83936z" fill="#cacacd" stroke="none"/><path d="M255.51053,171.45888l2.06182,2.32427c0,0 -2.5006,0.09409 -3.69841,1.19728c-1.19783,1.10318 -1.87751,3.93807 -1.87751,3.93807l-1.98701,-2.43372c0,0 -0.09797,-2.366 1.43255,-3.81685c2.14756,-2.0358 4.06856,-1.20905 4.06856,-1.20905z" fill="#c274a1" stroke="none"/><path d="M249.77714,180.0394l-8.0935,7.87856c0,0 -0.43606,-0.1321 -0.73293,-0.44727c-0.29687,-0.31516 -0.57952,-0.94603 -0.57952,-0.94603l8.01601,-7.95339c0,0 0.32245,0.47523 0.60258,0.77112c0.28012,0.29588 0.78737,0.69702 0.78737,0.69702z" fill="#c2e266" stroke="none"/><path d="M251.86104,178.62527c0,0 -1.69612,1.49749 -1.80555,1.50087c-0.41539,0.01287 -1.66438,-1.17909 -1.73574,-1.75972c-0.04215,-0.34284 1.78651,-1.9048 1.78651,-1.9048l1.75476,2.16364z" fill="#cacacd" stroke="none"/></g><g data-paper-data="{&quot;index&quot;:null}"><g data-paper-data="{&quot;index&quot;:null}" fill="#86cbb6" stroke="none" stroke-width="0" stroke-linecap="butt" stroke-linejoin="miter"><path d="M246.4101,171.07574c-0.44723,-0.18118 -0.70776,-0.23097 -0.70776,-0.23097l-0.57187,-0.38796c0,0 0.8027,-0.2629 1.23503,-0.23493c0.43233,0.02797 1.28916,0.32405 1.28916,0.32405l-0.29451,0.98355c0,0 -0.50278,-0.27254 -0.95002,-0.45373z"/><path d="M246.24304,172.66581c0,0 -0.25161,-0.54698 -0.36888,-0.80439c-0.16152,-0.35455 -0.70879,-1.43797 -0.70879,-1.43797l0.57707,0.14912c0,0 0.52598,0.66383 0.74762,0.95835c0.1778,0.23626 0.47991,0.67281 0.47991,0.67281z"/></g><g stroke="none" stroke-width="0" stroke-linecap="butt" stroke-linejoin="miter"><path d="M246.85551,167.71108c0.56471,0.62543 0.59616,1.04017 0.32584,1.9093c-0.27031,0.86914 -1.79455,1.60946 -1.79455,1.60946c0,0 -0.09999,-0.93698 -0.34554,-1.46904c-0.24554,-0.53205 -0.92408,-1.28203 -0.92408,-1.28203c0,0 0.56571,-0.58158 1.14165,-0.8995c0.43984,-0.24649 0.95584,-0.42988 1.59669,0.13181z" data-paper-data="{&quot;index&quot;:null}" fill="#20201f"/><path d="M247.26213,168.6932c0.12269,0.68121 -0.49264,1.537 -0.49264,1.537l-0.63216,-0.83078c0,0 1.03008,-1.23218 1.12481,-0.70621z" data-paper-data="{&quot;index&quot;:null}" fill="#b2b1b2"/></g><path d="M240.37522,166.67921c3.31203,0.41705 5.70537,3.07071 5.3457,5.9271c-0.35968,2.8564 -3.33617,4.83388 -6.6482,4.41683c-3.31202,-0.41705 -5.70537,-3.0707 -5.3457,-5.92709c0.35967,-2.8564 3.33616,-4.8339 6.64819,-4.41685z" fill="#f79eb4" stroke="none" stroke-width="0" stroke-linecap="butt" stroke-linejoin="miter"/><path d="M245.30464,174.31337c0.00823,-0.0152 -0.09465,1.04072 -1.01167,2.27981c-1.47227,2.00108 -2.94768,1.87346 -2.94768,1.87346l0.39423,-0.86871c0,0 1.75538,-1.51685 2.23985,-2.1084c0.48446,-0.59155 0.82638,-1.72575 0.8261,-1.72507" fill="#f79eb4" stroke="#f89db5" stroke-width="0" stroke-linecap="butt" stroke-linejoin="round"/><g fill="#ffd5c5" stroke="none" stroke-width="1" stroke-linecap="round" stroke-linejoin="round"><path d="M243.59095,176.02571c0.04997,0.54516 -0.46125,0.94489 -0.89215,1.2009c-0.07051,0.04186 -0.62268,0.3676 -1.48457,0.54035c-1.08147,0.21674 -2.42657,-0.15227 -2.81417,-0.24828c-0.46223,-0.11455 -1.23138,-0.74363 -1.34572,-0.90263c-0.82283,-1.14436 -0.04767,-1.54983 0.06265,-1.61504c0.05261,-0.03107 0.33367,-0.09749 0.63592,0.04974c0.29459,0.1435 1.0778,0.71501 1.3691,0.73914c0.31298,0.02594 2.11822,-0.34165 3.01827,-0.22713c0.1868,0.02577 0.42521,0.11929 0.56086,0.25596c0.17654,0.17791 0.43274,0.50833 0.72821,0.28793c0.04782,-0.03571 0.15612,-0.14039 0.1616,-0.08097z"/><path d=""/></g><g fill="#000000" stroke="#000000" stroke-width="0.125" stroke-linecap="butt" stroke-linejoin="round"><path d="M244.73213,174.43656c0.06453,-0.01289 0.35464,0.05435 0.80444,0.0069c0.28444,-0.04058 0.5687,-0.08377 0.84775,-0.1517c0.16707,-0.04071 0.32555,-0.12687 0.49305,-0.16032c0.0057,-0.00114 -0.36796,0.169 -0.47947,0.20614c-0.34951,0.11644 -0.66079,0.18716 -1.02413,0.2441c-0.07978,0.01252 -0.7221,0.03917 -0.71554,0.01524"/><path d="M244.92904,173.92068c0.0222,0.02846 0.3494,0.08216 0.78688,-0.05109c0.43747,-0.13325 1.0566,-0.42023 1.07941,-0.45443c0.0086,-0.01291 -0.69336,0.42903 -1.00637,0.55059c-0.31301,0.12157 -0.94408,0.18254 -0.93798,0.16022"/></g><g fill="#000000" stroke="none" stroke-width="1" stroke-linecap="round" stroke-linejoin="round"><path d="M242.32917,176.25547c-0.23278,-0.06513 -0.60156,-0.30789 -0.38899,-0.42443c0.16156,-0.08856 0.67914,0.0356 0.76131,0.11337c0.14215,0.13454 -0.26416,0.33209 -0.37233,0.31106z"/><path d=""/></g><path d="M237.35317,172.53317c0.02693,-0.05003 -0.33582,1.86839 -0.42425,2.74467c-0.16649,1.65016 0.08501,2.71828 0.08501,2.71828c0,0 -0.32565,-0.27727 -0.40175,-0.35893c-0.23513,-0.25219 -0.43962,-0.49848 -0.62995,-0.78953c-0.44764,-0.68459 -0.70926,-1.47025 -0.83121,-2.27628c-0.08126,-0.53717 0.04597,-2.82858 0.07034,-2.83937" fill="#f79eb4" stroke="#f89db5" stroke-width="0" stroke-linecap="butt" stroke-linejoin="round"/><path d="M235.13141,171.68895c-0.01636,0.0127 -0.07365,2.82843 -0.02555,3.61884c0.04809,0.7904 0.3672,1.99552 0.3672,1.99552c0,0 -0.40014,-0.11434 -0.87886,-0.81063c-0.42271,-0.61484 -0.66442,-0.92984 -0.81587,-2.00435c-0.19652,-1.3943 -0.06525,-3.25887 0.15798,-3.59306" fill="#f79eb4" stroke="#f89db5" stroke-width="0" stroke-linecap="butt" stroke-linejoin="round"/><g stroke="none" stroke-width="1" stroke-linecap="round" stroke-linejoin="round"><path d="M243.76777,169.62059c-0.0867,-0.06728 -2.30045,-1.74791 -4.04947,-1.6908c-1.37851,0.045 -2.15642,0.46939 -3.49921,1.19979c-1.03558,0.56327 -1.81921,2.04625 -1.85699,2.05051c-0.00271,0.0003 0.87368,-4.02548 4.62036,-4.16343c3.02729,-0.08019 5.19413,1.99642 5.27897,2.12603" fill="#20201f"/><path d="" fill="#ee1a40"/></g><path d="M243.94049,170.75266c-0.02482,0.01545 0.9903,-0.46084 2.70425,0.19399c0.30521,0.11851 1.26226,0.77155 1.43186,1.54522c0.23522,0.71381 0.36069,1.73306 0.34484,1.7294c-0.02273,-0.00533 -1.24784,-1.50981 -2.2297,-2.03196c-0.53611,-0.28511 -2.16291,-0.29592 -2.19558,-0.2756" fill="#f79eb4" stroke="#f89db5" stroke-width="0" stroke-linecap="butt" stroke-linejoin="round"/><path d="M243.09498,170.6844c0.01938,-0.08129 1.02714,-1.32479 1.33759,-1.54089c0.31045,-0.21611 0.48582,-0.26366 1.08954,-0.21934c2.02957,0.34821 3.66805,0.78724 3.66805,0.78724c0,0 -1.9619,0.1708 -2.7219,0.2171c-1.05441,0.06423 -2.40604,0.75777 -2.51959,0.8276" fill="#f79eb4" stroke="#f89db5" stroke-width="0" stroke-linecap="butt" stroke-linejoin="round"/><path d="M238.97544,171.35458c-0.60275,-0.0759 -1.54556,1.46841 -1.54556,1.46841c0,0 -0.36972,-2.14231 0.82929,-2.58371c2.80484,-0.3771 3.44245,3.14618 3.44245,3.14618c0,0 -2.12342,-1.95499 -2.72617,-2.03089z" data-paper-data="{&quot;index&quot;:null}" fill="#20201f" stroke="none" stroke-width="0" stroke-linecap="butt" stroke-linejoin="miter"/><path d="M241.83695,173.97064c0.33468,0.65357 0.5328,0.66851 0.72555,0.71048c0.33066,0.072 0.74588,-0.17962 1.07333,-0.50703c0.46816,-0.46808 0.96446,-1.34424 1.41059,-1.29198c0.0676,0.00792 0.00855,0.84891 -0.21744,1.40135c-0.47925,1.17155 -1.4067,1.92284 -1.55282,1.90982c-0.58381,-0.05201 -0.34586,-0.55962 -1.53139,-0.64746c-0.67525,-0.05001 -2.2943,0.48816 -2.91795,0.21441c-1.18777,-0.74413 -1.37546,-1.8489 -1.38019,-2.56803c-0.01421,-2.16099 1.35641,-2.5774 1.7911,-2.47131c2.00114,0.48836 2.07419,2.22453 2.59921,3.24976z" fill="#ffffff" stroke="none" stroke-width="0" stroke-linecap="butt" stroke-linejoin="miter"/><path d="M243.9223,171.99496c-0.03663,-0.03458 0.90985,-0.14716 1.70067,0.45485c0.22718,0.17295 0.88533,1.27562 0.84963,1.42237c-0.0512,0.6083 -0.33386,2.33257 -0.33212,2.33163c0.03767,-0.0202 -0.38389,-1.34871 -0.92818,-2.27948c-0.18486,-0.31195 -1.29605,-0.90647 -1.39968,-1.00447" fill="#f79eb4" stroke="#f89db5" stroke-width="0" stroke-linecap="butt" stroke-linejoin="round"/><g fill="#000000" stroke="#000000" stroke-width="0.125" stroke-linecap="butt" stroke-linejoin="round"><path d="M237.88864,171.43415c-0.02875,0.0327 -0.18239,0.02635 -0.36093,-0.08102c-1.14627,-0.68926 -1.25327,-1.08747 -1.25327,-1.08747c0,0 0.34917,0.56448 1.18133,0.90225c0.16206,0.06577 0.3831,0.11518 0.43193,0.11869c0.04657,0.00335 0.09108,-0.02657 0.13781,-0.00244"/><path d="M237.52057,172.18759c0,0 -0.04159,0.03812 -0.1772,0.06438c-0.25147,0.04869 -0.86616,-0.03241 -1.1458,-0.11076c-0.66679,-0.18684 -1.01887,-0.46131 -1.01887,-0.46131c0,0 0.74066,0.31788 0.97997,0.38798c0.72269,0.20739 1.24398,-0.0153 1.31537,-0.05492c0.03147,-0.01745 0.09919,-0.06836 0.1331,-0.06796"/></g><g stroke="none" stroke-linecap="butt" stroke-linejoin="miter"><path d="M240.55259,172.9551c0.22895,0.04396 0.30442,0.6533 0.16855,1.361c-0.13588,0.7077 -0.43165,1.24575 -0.6606,1.2018c-0.22895,-0.04396 -0.30441,-0.65329 -0.16854,-1.36099c0.13587,-0.70771 0.43164,-1.24576 0.66059,-1.20181z" fill="#169c5b" stroke-width="NaN"/><path d="M240.38522,173.86082c0.1006,0.01932 0.13613,0.2746 0.07939,0.57019c-0.05674,0.2956 -0.18431,0.51958 -0.28491,0.50026c-0.1006,-0.01932 -0.13613,-0.2746 -0.07939,-0.57019c0.05674,-0.2956 0.18431,-0.51958 0.28491,-0.50026z" fill="#000000" stroke-width="0"/><path d="M240.3047,173.70343c0.05742,-0.29905 0.20239,-0.52259 0.32381,-0.49928c0.12141,0.02331 0.17329,0.28464 0.11587,0.58371c-0.05742,0.29906 -0.20239,0.52259 -0.32381,0.49928c-0.12141,-0.02331 -0.17329,-0.28463 -0.11587,-0.5837z" fill="#ffffff" stroke-width="0"/></g><g stroke="none" stroke-linecap="butt" stroke-linejoin="miter"><path d="M243.2211,175.06767c0.09583,-0.49917 0.30442,-0.87867 0.46593,-0.84767c0.1615,0.031 0.21471,0.46078 0.11889,0.95995c-0.09584,0.49917 -0.30443,0.87868 -0.46594,0.84768c-0.1615,-0.031 -0.2147,-0.46078 -0.11888,-0.95995z" fill="#169c5b" stroke-width="NaN"/><path d="M243.36801,175.21168c0.04003,-0.20849 0.12999,-0.36646 0.20095,-0.35283c0.07097,0.01363 0.09605,0.19367 0.05601,0.40217c-0.04003,0.20849 -0.13,0.36647 -0.20096,0.35284c-0.07097,-0.01364 -0.09605,-0.19368 -0.05601,-0.40218z" fill="#000000" stroke-width="0"/><path d="M243.7406,174.39565c0.08565,0.01645 0.12222,0.20078 0.08173,0.41172c-0.04052,0.21093 -0.14276,0.3686 -0.22841,0.35215c-0.08563,-0.01645 -0.12221,-0.20076 -0.08172,-0.4117c0.04052,-0.21093 0.14275,-0.36862 0.2284,-0.35217z" fill="#ffffff" stroke-width="0"/></g><path d="M238.98775,176.69464c0,0 -0.56866,-0.0782 -0.76265,-0.1243c-0.194,-0.04611 -0.50357,-0.2345 -0.50357,-0.2345" data-paper-data="{&quot;index&quot;:null}" fill="none" stroke="#000000" stroke-width="0.125" stroke-linecap="round" stroke-linejoin="miter"/><g fill="#86cbb6" stroke="none" stroke-width="0" stroke-linecap="butt" stroke-linejoin="miter"><path d="M236.20875,169.17863c0,0 -0.31646,-0.01956 -0.88807,0.05774c-0.57161,0.0773 -1.23463,0.24392 -1.23463,0.24392l-0.0496,-1.22628c0,0 1.08,-0.08897 1.58895,0.00676c0.50894,0.09573 1.3606,0.63806 1.3606,0.63806l-0.77722,0.27981z"/><path d="M234.33812,170.37671c0,0 0.47923,-0.41603 0.75514,-0.63695c0.34394,-0.27538 1.14978,-0.88826 1.14978,-0.88826l0.71247,-0.00167c0,0 -0.95483,1.09249 -1.24695,1.45521c-0.21208,0.26335 -0.66554,0.82222 -0.66554,0.82222z"/></g><path d="M236.2178,167.52123c0.328,-1.20061 0.66946,-1.65548 1.78054,-1.96077c1.15192,-0.17578 1.61168,0.41529 1.93724,1.02304c0.42986,0.79023 0.65388,1.87681 0.65388,1.87681c0,0 -1.15945,0.1743 -2.11715,0.49266c-1.63828,0.54462 -1.96886,0.86878 -1.96886,0.86878c0,0 -0.61365,-1.09989 -0.28565,-2.30051z" fill="#20201f" stroke="none" stroke-width="0" stroke-linecap="butt" stroke-linejoin="miter"/><path d="M237.29638,168.26649c0,0 -0.04741,-1.40338 1.05284,-1.56389c1.04357,-0.15224 1.32671,1.12771 1.32671,1.12771c0,0 -0.64901,0.01609 -1.20665,0.11795c-0.95391,0.17426 -1.17289,0.31823 -1.17289,0.31823z" fill="#b2b1b2" stroke="none" stroke-width="0" stroke-linecap="butt" stroke-linejoin="miter"/></g><g data-paper-data="{&quot;index&quot;:null}" stroke="none" stroke-width="0" stroke-linecap="butt" stroke-linejoin="miter"><path d="M241.26913,181.64956c1.23864,-0.8026 2.70052,-0.74685 3.26515,0.12454c0.56464,0.87138 0.01823,2.22844 -1.22042,3.03105c-1.23864,0.80261 -2.7005,0.74687 -3.26514,-0.12453c-0.56464,-0.87139 -0.01823,-2.22844 1.22041,-3.03105z" fill="#20201f"/><path d="M238.56,178.23202c0.90913,0.75634 1.82682,1.78695 2.4044,2.49248c0.82578,1.00871 1.59086,1.88291 1.59086,1.88291l-0.95948,0.75376c0,0 -1.24234,-1.6354 -1.57547,-2.04233c-0.54646,-0.66753 -1.27363,-1.48514 -2.12449,-2.40248c-0.21319,-0.22986 -0.21688,-0.47448 0.00863,-0.70148c0.15152,-0.1525 0.35453,-0.23332 0.65557,0.01714z" fill="#fed5c7"/><path d="M239.36171,180.78813l-0.75096,-0.85856l1.15123,-0.86839l0.7797,0.83993z" fill="#83c4ac"/><path d="M239.30862,177.93439c0.72856,0.82533 0.47711,1.38125 -0.0067,1.76155c-0.48381,0.38031 -0.9919,0.51467 -1.74534,-0.3843c-0.42378,-0.50565 -0.37514,-1.22388 0.10867,-1.60418c0.48382,-0.3803 1.20634,-0.26811 1.64337,0.22694z" fill="#20201f"/><path d="M241.44362,181.2185l-0.88123,0.72654l-0.61118,0.25666l-0.60812,-1.44231l1.2087,-0.90564l1.19466,0.89902z" fill="#bebec0"/><g><path d="M243.59213,182.85717c0,0 1.35817,0.6026 2.10841,1.07674c0.11953,0.07555 0.50552,1.1024 0.60932,1.58603c0.05669,0.26415 0.16552,0.75561 -0.20774,1.01393c-0.09515,0.06586 -0.65668,0.1217 -0.65668,0.1217l-0.13509,0.41624c0,0 -0.21471,0.14777 -0.37221,0.15825c-0.15749,0.01048 -0.4357,-0.0845 -0.4357,-0.0845c0,0 -0.14289,0.10805 -0.22751,0.20451c-0.27618,0.31487 -0.59293,0.08265 -0.59293,0.08265c0,0 -0.17419,0.25135 -0.38237,0.32733c-0.33001,0.12045 -0.77803,0.07485 -0.99991,-0.02748c-0.37691,-0.17382 -1.28371,-0.89251 -1.20452,-1.27084c0.12333,-0.58923 0.82643,-0.35365 0.82643,-0.35365c0,0 -0.4148,-0.47207 -0.48382,-0.84613c-0.10631,-0.57598 0.07533,-0.90924 0.07533,-0.90924l2.07903,-1.49554z" fill="#20201f"/><path d="M241.92162,186.10807c0,0 0.06803,1.38982 -0.15385,1.28749c-0.37691,-0.17383 -0.75177,-0.55552 -0.67258,-0.93385c0.12333,-0.58923 0.82643,-0.35365 0.82643,-0.35365z" fill="#c0c2c6"/></g></g></g></g></svg>