<svg version="1.1" xmlns="http://www.w3.org/2000/svg" xmlns:xlink="http://www.w3.org/1999/xlink" width="19.34583" height="13.96809" viewBox="0,0,19.34583,13.96809"><g transform="translate(-229.22709,-172.49097)"><g data-paper-data="{&quot;isPaintingLayer&quot;:true}" fill-rule="nonzero" stroke="none" stroke-linejoin="miter" stroke-miterlimit="10" stroke-dasharray="" stroke-dashoffset="0" style="mix-blend-mode: normal"><path d="" data-paper-data="{&quot;index&quot;:null}" fill="#f8b820" stroke-width="1" stroke-linecap="round"/><path d="" data-paper-data="{&quot;index&quot;:null}" fill="#ffffff" stroke-width="1" stroke-linecap="round"/><path d="" data-paper-data="{&quot;index&quot;:null}" fill="#ffffff" stroke-width="1" stroke-linecap="round"/><path d="" data-paper-data="{&quot;index&quot;:null}" fill="#f8b820" stroke-width="1.22222" stroke-linecap="round"/><path d="" data-paper-data="{&quot;index&quot;:null}" fill="#f8b820" stroke-width="1" stroke-linecap="round"/><path d="" data-paper-data="{&quot;index&quot;:null}" fill="#f8b820" stroke-width="1.0615" stroke-linecap="butt"/><path d="" data-paper-data="{&quot;index&quot;:null}" fill="#f8b820" stroke-width="1.22222" stroke-linecap="round"/><path d="" data-paper-data="{&quot;index&quot;:null}" fill="#f8b820" stroke-width="1.22222" stroke-linecap="round"/><path d="" data-paper-data="{&quot;index&quot;:null}" fill="#f8b820" stroke-width="1.0615" stroke-linecap="butt"/><g stroke-linecap="butt"><path d="M245.84503,179.28274c0.08479,0.74862 0.34327,2.0759 0.11006,2.78871c-0.38006,1.19244 -1.15201,2.29448 -2.25711,2.913c-0.55304,0.22135 -0.46985,0.2083 -1.00529,0.45299c-0.78405,0.51969 -1.91565,0.63453 -2.81184,0.6273c-0.72736,0.03262 -1.45423,-0.05374 -2.15887,-0.23808c-0.45128,-0.13559 -0.9552,-0.20096 -1.32841,-0.5104c-0.34304,-0.2938 -0.62524,-0.70049 -0.63745,-1.16617c-0.09211,-1.13013 -0.26512,-2.07385 -0.25486,-3.20814c-0.05986,-1.50167 7.42276,-3.20949 10.34377,-1.65921z" data-paper-data="{&quot;index&quot;:null}" fill="#54c81c" stroke-width="0.17188"/><path d="M239.91203,181.50729c0.25447,0.32813 0.40925,1.72203 0.11045,1.75428c-0.31018,0 -0.72846,0.04032 -1.10449,0.02236c-0.58687,-0.02822 -1.5497,-0.19396 -1.5387,-0.30073c0.03542,-0.3456 0.03904,-0.67962 0.03904,-1.10072c0,-0.73737 0.37394,-1.51177 0.97121,-1.51177c0.42648,0 0.79137,0.02102 1.21699,0.63453c0.10457,0.15076 0.22356,0.28036 0.30552,0.50209z" data-paper-data="{&quot;index&quot;:null}" fill="#ffffff" stroke-width="0.17188"/><path d="M244.50514,179.97229c0.2965,-0.0485 0.47058,0.10604 0.5766,0.43931c0.07414,0.23369 0.12374,0.58125 0.12144,0.8968c-0.00259,0.34022 -0.00259,0.54423 -0.04469,0.74801c-0.04138,0.2001 -0.02562,0.37887 -0.06527,0.48717c-0.02873,0.12385 -0.11162,0.20342 -0.58365,0.30581c-0.30235,0.06561 -0.5969,0.11299 -0.84842,0.15233c-0.24763,0.00597 -0.37174,-1.35675 -0.21586,-1.71323c0.0981,-0.65529 0.33595,-1.0682 1.0599,-1.31619z" data-paper-data="{&quot;index&quot;:null}" fill="#ffffff" stroke-width="0.17188"/><path d="M245.77284,174.56912c1.10192,-0.15478 1.89524,0.01785 2.36069,0.35817c0.06633,0.04825 0.02944,0.09847 0.10959,0.17653c0.09699,0.09455 0.36135,0.2392 0.31128,0.20354c0,0 -0.09602,0.19082 -0.08734,0.28097c0.01109,0.1146 0.15551,0.24799 0.04631,0.22002c0,0 0.07244,0.16835 0.05753,0.2293c-0.16247,0.66579 -0.70502,1.52509 -1.42028,1.96659c-0.79252,0.10274 -2.04051,-2.92117 -1.37776,-3.43512z" data-paper-data="{&quot;index&quot;:null}" fill="#54c81c" stroke-width="0.17188"/><path d="M240.39815,179.01295c-5.11051,0.78875 -4.39382,5.80205 -4.39382,5.80205l0.32202,1.62734c0.03814,0.19131 -1.98481,-1.31217 -2.40333,-1.84468c-0.51797,-0.65884 -0.85039,-1.37946 -1.17962,-2.10122c-0.24017,-0.52593 -0.2602,-0.74141 -0.33642,-1.12354l-0.23637,-1.18634c-0.04495,-0.22541 -0.1549,-1.37178 0.06633,-1.56857c0.06279,-0.05583 0.78452,-0.60639 0.87528,-0.60859c2.14075,0.59487 0.91712,-3.00281 1.57057,-4.49822c0.53641,-0.28367 1.18695,-0.64674 1.91724,-0.80689c1.1481,-0.25178 2.40479,-0.21501 3.04884,-0.20646c0.10983,0.00146 1.50884,0.04777 2.34543,0.32997c1.32475,0.44676 2.06969,1.29676 2.121,1.34342c0.8058,0.73236 1.40513,1.5852 1.82561,2.54234l0.22832,0.80958c0.11691,0.41439 0.51675,2.69481 0.29368,3.50121l-0.76109,2.75394c-0.13316,0.48231 -1.41086,2.74173 -1.67119,2.6104c-0.36478,-0.18361 -0.37212,-1.60767 -0.49598,-1.43322c1.20167,-0.49949 2.86505,-3.38193 2.03701,-4.87427c-0.54733,-0.98642 -2.14412,1.99967 -2.14412,1.99967c0,0 -1.42365,-3.31576 -3.02939,-3.06793z" data-paper-data="{&quot;index&quot;:null}" fill="#54c81c" stroke-width="0.17188"/><path d="M231.07406,177.78483c-0.72285,-0.24713 -1.39266,-0.9144 -1.68793,-1.48833c-0.02711,-0.05252 -0.00324,-0.22258 -0.00324,-0.22258c-0.08833,0.0496 0.00648,-0.10433 -0.01064,-0.21158c-0.01329,-0.08429 -0.14097,-0.23799 -0.14097,-0.23799c-0.03515,0.04374 0.16065,-0.14672 0.22306,-0.25447c0.05143,-0.08919 0.00772,-0.12706 0.05409,-0.18607c0.32508,-0.41341 0.97341,-0.74557 1.96539,-0.84611c1.29787,-0.13133 0.83461,3.86895 -0.39984,3.44711z" data-paper-data="{&quot;index&quot;:null}" fill="#54c81c" stroke-width="0.17188"/><path d="M234.86105,176.45594c-0.17412,1.26713 -1.26391,2.68848 -2.17328,2.42702c-0.15076,-0.04569 -0.44933,-0.31153 -0.87849,-0.48879c-0.4972,-0.20511 -0.93748,-0.49024 -0.77269,-0.57551c1.05374,-1.6578 1.14444,-2.42847 0.51845,-3.47592c-0.2249,-0.08673 0.22527,-0.34731 0.8659,-0.53045c0.31054,-0.08882 0.64037,-0.20621 1.00846,-0.18543c1.05198,0.64167 1.35106,1.75366 1.43165,2.82908z" data-paper-data="{&quot;index&quot;:null}" fill="#54c81c" stroke-width="0.17188"/><path d="M235.78114,176.41245c-0.55854,1.83274 -2.01661,3.18099 -3.62655,2.21959c-0.26412,-0.15784 -0.01651,-4.54391 1.86301,-5.09166c1.08506,-0.5165 1.72862,1.28638 1.76356,2.87207z" data-paper-data="{&quot;index&quot;:null}" fill="#54c81c" stroke-width="0.17188"/><path d="M245.32496,175.63244c0,0 -0.68317,-0.23585 -0.92005,-0.55824c-0.49416,-0.67252 -0.89104,-1.25919 -0.74823,-1.44769c0.11899,-0.07624 0.73006,0.08418 0.89693,0.24103l0.33901,0.31836c0.59604,0.56001 1.29559,1.58918 1.28594,1.92245c-0.00389,0.14416 -0.44797,0.82138 -0.49989,0.98179c0,0 -0.25866,-1.12906 -0.3537,-1.45769z" data-paper-data="{&quot;index&quot;:null}" fill="#54c81c" stroke-width="0.17188"/><path d="M244.68119,174.04305c0,0 1.48575,-0.0397 1.71653,0.31629c0.15343,0.23638 1.0373,2.88892 0.87873,3.30184c0.06447,0.36429 -1.41739,1.41778 -1.45037,1.2983z" data-paper-data="{&quot;index&quot;:null}" fill="#54c81c" stroke-width="0.17188"/><path d="M237.80905,181.85881c0,-0.63227 0.24231,-1.14482 0.54118,-1.14482c0.29888,0 0.54118,0.51256 0.54118,1.14482c0,0.63227 -0.2423,1.14482 -0.54118,1.14482c-0.29888,0 -0.54118,-0.51256 -0.54118,-1.14482z" fill="#54c81c" stroke-width="0"/><path d="M243.52725,181.64165c0,-0.63227 0.24231,-1.14482 0.54119,-1.14482c0.29889,0 0.54119,0.51256 0.54119,1.14482c0,0.63227 -0.2423,1.14482 -0.54119,1.14482c-0.29889,0 -0.54119,-0.51255 -0.54119,-1.14482z" fill="#54c81c" stroke-width="0"/></g></g></g></svg>