<svg version="1.1" xmlns="http://www.w3.org/2000/svg" xmlns:xlink="http://www.w3.org/1999/xlink" width="30.56578" height="32.31024" viewBox="0,0,30.56578,32.31024"><g transform="translate(-223.5125,-165.96549)"><g data-paper-data="{&quot;isPaintingLayer&quot;:true}" fill-rule="nonzero" stroke-miterlimit="10" stroke-dasharray="" stroke-dashoffset="0" style="mix-blend-mode: normal"><g data-paper-data="{&quot;index&quot;:null}" stroke="none" stroke-width="0" stroke-linecap="butt" stroke-linejoin="miter"><g><path d="M251.30345,196.32297c0,0 1.02027,-2.15362 1.21169,-3.17856c0.15514,-0.83075 -0.14906,-2.51184 -0.14906,-2.51184c0,0 0.90112,-0.04072 1.63933,1.29082c0.20761,0.37448 -0.09445,1.06821 -0.09445,1.06821l-0.71518,0.67439c0,0 -0.07674,1.31991 -0.33824,1.8626c-0.44055,0.91424 -0.83801,1.58817 -1.75101,2.20885c-0.91301,0.62067 -0.97027,-0.35892 -0.97027,-0.35892l1.16716,-1.05557z" fill="#393939"/><path d="M246.35405,190.9376l1.70454,-2.51031l0.6217,0.36702l-0.0684,0.18064c0,0 0.29138,-0.04786 0.36177,-0.01748c0.3083,0.13313 0.19302,0.22834 0.19302,0.22834c0,0 0.48895,-0.16054 0.87036,-0.05902c0.38141,0.1015 0.89101,0.19041 1.35274,0.51683c0.46169,0.32641 1.06595,1.19313 1.06595,1.19313c0,0 1.17334,1.85055 -0.84524,5.21066c-0.59741,0.99443 -1.23179,1.20946 -1.23179,1.20946c0,0 -1.29125,-0.94653 -1.8186,-1.87943c-0.31689,-0.95505 -0.50913,-1.37592 -0.68534,-1.76832c-0.14321,-0.31892 -0.61472,-1.09309 -0.61472,-1.09309l-0.30295,-0.29352l-0.12724,-0.33894z" fill="#f01a40"/><path d="M244.77965,188.09549c0.25968,-0.34781 1.93777,-1.23559 2.26985,-0.69522c0.46361,0.75437 0.16715,0.27143 0.39733,0.52024c0.23018,0.24882 0.59716,-0.00844 0.56547,0.52044c-0.02587,0.43203 0.01084,0.98974 -0.35201,1.47613c-0.75236,0.80085 -1.03502,0.99094 -1.53981,1.10327c-0.33862,0.07535 -0.78021,-0.60534 -0.78021,-0.60534c0,0 -0.69472,0.04211 -0.90542,-0.16926c-0.2107,-0.21139 -0.18274,-1.44376 0.34479,-2.15024z" fill="#ffffff"/><path d="M247.42934,191.36619c-0.18694,-0.25663 -0.71298,-0.56736 -0.71298,-0.56736l1.00916,-1.0419l0.681,0.71703l0.06338,0.39537l0.20187,0.28023c0,0 0.48041,0.92436 1.16987,1.88062c0.28805,0.34462 2.26712,2.1709 2.26712,2.1709c0,0 -0.52967,1.02028 -0.69563,1.22493c-0.16131,0.19892 -0.54768,0.54495 -0.54768,0.54495c0,0 -1.09878,-0.99239 -1.70711,-1.7953c-0.49392,-0.65189 -1.33033,-3.27837 -1.33033,-3.27837c0,0 -0.36354,-0.48278 -0.39869,-0.53106z" fill="#ffffff"/></g><path d="M246.59439,187.8927c0.26836,0.27534 0.10715,0.86772 -0.36008,1.32314c-0.46725,0.45542 -1.06357,0.60139 -1.33194,0.32605c-0.26836,-0.27534 -0.10715,-0.86772 0.3601,-1.32312c0.46725,-0.45542 1.06356,-0.60137 1.33194,-0.32604z" fill="#afafaf"/></g><path d="M243.28601,184.27499l1.91081,2.88845l1.79751,1.23704c0,0 -0.38469,0.41152 -0.51225,0.64125c-0.12756,0.22972 -0.44974,0.27064 -0.44974,0.27064l-1.67891,-1.05635l-2.02728,-3.15143z" data-paper-data="{&quot;index&quot;:null}" fill="#f79db4" stroke="none" stroke-width="0" stroke-linecap="butt" stroke-linejoin="miter"/><g data-paper-data="{&quot;index&quot;:null}" stroke="none" stroke-width="0" stroke-linecap="butt" stroke-linejoin="miter"><g><path d="M233.61023,196.61341l1.10031,1.12509c0,0 -0.11715,0.97425 -0.99043,0.29882c-0.87328,-0.67544 -1.2287,-1.37245 -1.61244,-2.31196c-0.22778,-0.5577 -0.22354,-1.87981 -0.22354,-1.87981l-0.67252,-0.71693c0,0 -0.25902,-0.71094 -0.02886,-1.07199c0.81835,-1.28383 1.71531,-1.18799 1.71531,-1.18799c0,0 -0.40658,1.65931 -0.3026,2.498c0.12825,1.03477 1.01473,3.24682 1.01473,3.24682z" fill="#393939"/><path d="M238.34728,192.45636l-0.14774,0.33051l-0.32036,0.27442c0,0 -0.51804,0.74384 -0.68051,1.05338c-0.19991,0.38089 -0.41755,0.78918 -0.79235,1.72303c-0.58351,0.89884 -1.93029,1.76453 -1.93029,1.76453c0,0 -0.62002,-0.25351 -1.1554,-1.28265c-1.809,-3.47745 -0.52451,-5.25264 -0.52451,-5.25264c0,0 0.65619,-0.82811 1.13701,-1.12562c0.48081,-0.29753 0.99491,-0.35506 1.38183,-0.43301c0.38692,-0.07797 0.86511,0.11223 0.86511,0.11223c0,0 -0.10922,-0.10208 0.20665,-0.21608c0.07212,-0.02603 0.36002,0.0396 0.36002,0.0396l-0.05722,-0.1845l0.64302,-0.32826l1.54762,2.60998z" fill="#f01a40"/><path d="M240.62571,188.80097c0.48322,0.73744 0.43567,1.96922 0.21244,2.1673c-0.22326,0.19807 -0.91411,0.11348 -0.91411,0.11348c0,0 -0.48243,0.65236 -0.8158,0.55641c-0.49696,-0.14302 -0.76744,-0.35011 -1.46934,-1.19552c-0.33237,-0.50766 -0.26157,-1.06206 -0.26093,-1.49489c0.00076,-0.52982 0.35129,-0.25057 0.59628,-0.48483c0.24499,-0.23425 -0.08051,0.22964 0.42844,-0.49494c0.36456,-0.51902 1.9851,0.46988 2.22301,0.83294z" fill="#ffffff"/><path d="M237.78065,191.90325c-0.03804,0.046 -0.43047,0.50565 -0.43047,0.50565c0,0 -0.99571,2.5703 -1.52863,3.19072c-0.65637,0.76415 -1.81386,1.68739 -1.81386,1.68739c0,0 -0.36442,-0.36903 -0.51325,-0.57747c-0.15312,-0.21444 -0.61931,-1.26523 -0.61931,-1.26523c0,0 2.08721,-1.70162 2.39583,-2.02795c0.74673,-0.91223 1.28285,-1.80544 1.28285,-1.80544l0.21866,-0.26732l0.08748,-0.39074l0.72361,-0.67401l0.94347,1.10177c0,0 -0.54407,0.27792 -0.74639,0.52263z" fill="#ffffff"/></g><path d="M240.13624,188.89441c0.43846,0.48318 0.5631,1.08434 0.27837,1.34272c-0.28473,0.25838 -0.87099,0.07615 -1.30946,-0.40702c-0.43847,-0.48318 -0.56312,-1.08433 -0.27839,-1.34271c0.28473,-0.25839 0.871,-0.07617 1.30948,0.40701z" fill="#afafaf"/></g><path d="M242.63488,184.94006l-1.07123,3.99961l-2.02694,1.22904c0,0 -0.27766,-0.1001 -0.4996,-0.26082c-0.22195,-0.16071 -0.28867,-0.95575 -0.28867,-0.95575l1.49535,-0.44659l1.0578,-3.6257z" data-paper-data="{&quot;index&quot;:null}" fill="#f79db4" stroke="none" stroke-width="0" stroke-linecap="butt" stroke-linejoin="miter"/><path d="M238.92537,180.80595c-0.26708,-0.38154 0.19882,-0.84992 0.19566,-1.67068c-0.00931,-0.71765 0.05758,-1.42384 0.31392,-1.69625c0.07907,-0.08398 0.58519,-0.13011 0.69208,-0.13011c0.13502,0 0.69341,-0.11068 0.92694,0.32006c0.05994,0.11077 0.34246,0.65781 0.28916,0.83016c-0.05605,0.18218 0.07743,0.60421 0.05451,0.76215c-0.07242,0.49876 -0.1659,0.61373 -0.18319,0.92755c-0.02199,0.39718 0.02077,0.17052 -0.19567,0.41334c0,0 -1.77222,0.58675 -2.09341,0.24378z" data-paper-data="{&quot;index&quot;:null}" fill="#319a2b" stroke="none" stroke-width="0.17188" stroke-linecap="butt" stroke-linejoin="miter"/><g data-paper-data="{&quot;index&quot;:null}" stroke="none" stroke-linecap="butt" stroke-linejoin="miter"><path d="M240.88423,177.78924c0.23367,0.22191 0.48934,0.59099 0.71114,1.05442c0.2218,0.46332 0.36813,0.93402 0.42556,1.32019c0.05733,0.38617 0.02564,0.68771 -0.10879,0.81291c-0.13434,0.12511 -0.34622,0.05028 -0.57999,-0.17163c-0.23366,-0.2219 -0.48922,-0.59099 -0.71103,-1.05442c-0.2218,-0.46332 -0.36824,-0.93402 -0.42556,-1.32019c-0.05743,-0.38617 -0.02563,-0.68771 0.1087,-0.81281c0.13444,-0.12521 0.34631,-0.05038 0.57997,0.17153z" fill="#eb3d66" stroke-width="0.01872"/><path d="M240.67115,177.91834c0.06281,-0.05481 0.16585,-0.02353 0.28156,0.07135c0.11582,0.09487 0.24429,0.25334 0.35796,0.4528c0.11377,0.19946 0.19123,0.40245 0.22463,0.56927c0.03339,0.16692 0.02273,0.29763 -0.04007,0.35243c-0.06269,0.0549 -0.16576,0.02353 -0.28157,-0.07134c-0.11582,-0.09487 -0.24429,-0.25333 -0.35795,-0.45269c-0.11366,-0.19946 -0.19123,-0.40255 -0.22462,-0.56936c-0.03339,-0.16691 -0.02272,-0.29752 0.04009,-0.35243z" fill="#ffffff" stroke-width="0.01896"/></g><path d="M239.06382,180.50812c0,0 0.75172,0.15789 1.28947,0.15789c0.53775,0 0.75493,-0.34217 0.91118,-0.04276c0.08069,0.15462 -0.4798,0.49821 -1.01645,0.46382c-0.97525,-0.0625 -1.4919,-0.34818 -1.4919,-0.34818z" data-paper-data="{&quot;index&quot;:null}" fill="#ead42f" stroke="none" stroke-width="0" stroke-linecap="butt" stroke-linejoin="miter"/><g data-paper-data="{&quot;index&quot;:null}" stroke-width="0" stroke-linecap="butt" stroke-linejoin="miter"><g data-paper-data="{&quot;index&quot;:null}"><path d="M243.84889,170.62678c-0.94641,0.49356 -2.11227,0.12927 -2.60402,-0.81367c-0.49176,-0.94294 -0.12319,-2.10745 0.82322,-2.60101c0.94641,-0.49356 2.11229,-0.12928 2.60404,0.81366c0.49176,0.94294 0.12317,2.10746 -0.82324,2.60102z" fill="#e0cb17" stroke="none"/><path d="M244.37366,168.89773c0.30381,0.58255 0.07611,1.30198 -0.50859,1.60691c-0.5847,0.30493 -1.30496,0.07986 -1.60877,-0.50269c-0.30381,-0.58256 -0.0761,-1.30198 0.5086,-1.60691c0.58471,-0.30493 1.30496,-0.07986 1.60877,0.50269z" fill="#e0cb17" stroke="#000000"/><path d="M244.16388,171.01967c-0.51916,0.26782 -1.32318,0.28825 -1.32318,0.28825l0.0238,-0.56493c0,0 0.7197,-0.00017 1.11046,-0.233c0.39078,-0.23283 0.76101,-0.88208 0.76101,-0.88208l0.50822,0.50348c0,0 -0.62595,0.6539 -1.08031,0.88829z" fill="#dbded5" stroke="#000000"/></g><g data-paper-data="{&quot;index&quot;:null}" stroke="none"><path d="M240.52788,177.14744c0.17838,-0.09303 0.47952,0.13172 0.67262,0.50198c0.19308,0.37025 0.20501,0.74583 0.02663,0.83886c-0.17838,0.09302 -0.47951,-0.13173 -0.67261,-0.50199c-0.1931,-0.37026 -0.20503,-0.74582 -0.02665,-0.83885z" fill="#000000"/><path d="M240.91113,178.39419l-0.23425,-0.23031l1.58836,-7.47985l0.18655,0.07326z" fill="#6e6e73"/><path d="M242.00486,171.38831l0.44524,0.13164l-0.41139,1.74952l-0.41834,-0.14568z" fill="#ddcb1e"/></g></g><g data-paper-data="{&quot;index&quot;:null}" stroke-width="0" stroke-linecap="butt" stroke-linejoin="miter"><g data-paper-data="{&quot;index&quot;:null}"><path d="M227.13257,176.05275c-1.21409,0.63316 -2.7097,0.16584 -3.34053,-1.04379c-0.63083,-1.20963 -0.15801,-2.70351 1.05608,-3.33667c1.2141,-0.63316 2.70971,-0.16583 3.34054,1.0438c0.63083,1.20963 0.15801,2.70351 -1.05608,3.33667z" fill="#e0cb17" stroke="none"/><path d="M224.92843,175.33524c-0.38973,-0.74732 -0.09761,-1.67023 0.65245,-2.0614c0.75007,-0.39117 1.67405,-0.10246 2.06378,0.64486c0.38973,0.74731 0.09763,1.67024 -0.65243,2.06141c-0.75007,0.39116 -1.67407,0.10245 -2.0638,-0.64487z" fill="#e0cb17" stroke="#000000"/><path d="M227.31459,176.67259c-0.58018,0.30584 -1.72762,0.48418 -1.72762,0.48418l-0.15647,-0.90429c0,0 0.95481,0.08726 1.48665,-0.15284c0.53185,-0.2401 1.06045,-0.99706 1.06045,-0.99706l0.61174,0.38977c0,0 -0.61183,0.83078 -1.27474,1.18023z" fill="#dbded5" stroke="#000000"/></g><g data-paper-data="{&quot;index&quot;:null}" stroke="none"><path d="M236.45181,180.15987c-0.01369,-0.47128 -0.89291,-2.79431 0.26965,-3.35683c0.18043,-0.08731 2.15163,0.34835 2.8436,1.16791c0.94128,1.11483 0.63709,2.72727 0.63709,2.72727l-2.77124,1.42335c0,0 -0.96543,-1.49043 -0.97912,-1.9617z" fill="#e4dcaa"/><path d="M236.43026,177.34704c0.22884,-0.11933 0.61516,0.16897 0.86287,0.64396c0.24771,0.47499 0.263,0.95679 0.03417,1.07613c-0.22883,0.11934 -0.61514,-0.16898 -0.86285,-0.64397c-0.24772,-0.475 -0.26302,-0.95678 -0.03419,-1.07612z" fill="#000000"/><path d="M238.57594,183.98781c-0.52262,-0.6833 -1.15476,-1.8774 -1.15476,-1.8774c0,0 0.34254,-0.56801 0.61591,-0.83178c0.27337,-0.26377 0.78453,-0.58846 0.78453,-0.58846l1.45461,0.12658c0,0 1.56458,2.55374 1.75295,2.88707c0.37936,0.6713 -0.62108,1.84083 -0.62108,1.84083l-1.27006,0.11794c0,0 -1.0395,-0.99149 -1.56213,-1.67479z" fill="#dfcc17"/><path d="M241.30952,185.54107c0,0 -0.39,-2.90342 -0.15163,-3.02773c0.23837,-0.12431 1.48641,0.53428 1.5954,0.74327c0.109,0.209 0.42487,1.79131 0.1865,1.91562c-0.23837,0.12432 -1.63027,0.36887 -1.63027,0.36887z" fill="#807d5a"/><path d="M228.29568,174.67893l0.05992,-0.25004l9.03449,3.82121l0.07029,0.4155z" fill="#6e6e73"/><path d="M231.39552,175.54194l-0.15391,0.54702l-2.14243,-0.85181l0.18845,-0.56503z" fill="#ddcb1e"/></g></g><g data-paper-data="{&quot;index&quot;:null}" stroke="none" stroke-width="0" stroke-linecap="butt" stroke-linejoin="miter"><path d="M241.91424,182.86773c0,0 -1.17743,3.97999 -1.90298,4.36944c-0.78843,0.42319 -2.54588,0.25025 -2.54588,0.25025l2.07232,-1.21964l1.16643,-2.84365l1.21012,-0.55639z" fill="#f79db4"/><path d="M239.15511,178.62898l1.01164,-0.1097c0,0 0.46137,0.67201 0.49433,1.02947c0.03109,0.33716 -0.36976,1.09336 -0.36976,1.09336z" fill="#f25c76"/><path d="M247.69183,184.16061c0,0 -0.04349,0.84239 -3.00964,2.33666c-5.73504,2.25329 -6.81895,-0.82696 -6.81895,-0.82696l0.88851,-0.39001c0,0 2.69779,0.90338 4.51618,0.46899c1.81839,-0.43439 3.66519,-2.42341 3.66519,-2.42341z" fill="#ffffff"/><path d="M242.81579,178.25733c0.39946,0.52868 0.91236,2.02741 0.91236,2.02741c0,0 1.37632,1.09726 2.19137,1.87262c0.81504,0.77536 1.11679,1.27444 1.11679,1.27444c0,0 -0.55053,0.76651 -0.82489,1.04118c-0.27436,0.27466 -0.46077,0.54755 -2.0341,1.20463c-1.72236,0.71932 -2.68106,0.83239 -4.11298,0.68482c-1.5539,-0.16014 -1.27379,-1.38538 -1.27379,-1.38538l0.42712,-1.38122l0.42498,-0.54665l-0.00904,-0.17976l0.95886,-1.30708l-0.34395,-1.01458c0,0 0.31404,-0.51216 0.24381,-1.02775c-0.05564,-0.40844 -0.41294,-1.07033 -0.41294,-1.07033l0.89704,-0.85863l0.34323,-0.13636c0,0 1.13862,0.32946 1.49617,0.80265z" fill="#f01a40"/><path d="M238.74155,178.55364c0,0 1.05334,-0.33556 1.5118,-0.55655c0.45845,-0.22099 1.09827,-0.70157 1.09827,-0.70157c0,0 0.30507,0.6637 -0.86793,1.25125c-1.26111,0.63168 -1.74214,0.00686 -1.74214,0.00686z" fill="#afafaf"/></g><g><g data-paper-data="{&quot;index&quot;:null}"><path d="M238.61307,172.32882c0,0 -1.3375,-0.07536 -1.93242,0.72965c-0.96159,1.3012 0.50738,2.73956 0.50738,2.73956c0,0 -1.10146,-0.86316 -0.99421,-1.89754c0.07078,-0.68284 0.20957,-1.02629 0.82944,-1.37186c0.69459,-0.38723 1.5898,-0.19979 1.5898,-0.19979z" fill="#000000" stroke="none" stroke-width="0" stroke-linecap="butt" stroke-linejoin="miter"/><path d="M234.85764,168.9693c2.71081,-1.94808 6.27032,-1.63207 7.9504,0.70581c1.68008,2.33788 0.84451,5.81233 -1.86628,7.76041c-2.7108,1.94807 -6.27031,1.63207 -7.95039,-0.70581c-1.68008,-2.33788 -0.84453,-5.81235 1.86628,-7.76042z" fill="#f79eb4" stroke="none" stroke-width="0" stroke-linecap="butt" stroke-linejoin="miter"/><path d="M243.66458,171.20928c-0.00432,-0.01674 0.63881,0.82704 0.80996,2.35902c0.28276,2.46818 -0.88524,3.37861 -0.88524,3.37861l-0.30223,-0.90485c0,0 0.25419,-2.306 0.20667,-3.06913c-0.04752,-0.76313 -0.56874,-1.82693 -0.56848,-1.82624" fill="#f79eb4" stroke="#f89db5" stroke-width="0" stroke-linecap="butt" stroke-linejoin="round"/><g fill="#ffd5c5" stroke="none" stroke-width="1" stroke-linecap="round" stroke-linejoin="round"><path d="M243.52446,173.63016c0.40758,0.36548 0.30495,1.00626 0.16339,1.48708c-0.02317,0.07866 -0.20615,0.69309 -0.72018,1.40615c-0.64501,0.89471 -1.88177,1.53958 -2.23112,1.73297c-0.41668,0.2306 -1.40836,0.29298 -1.60034,0.25427c-1.38165,-0.27868 -1.08953,-1.10326 -1.05306,-1.22611c0.01742,-0.05858 0.17818,-0.2985 0.49984,-0.39627c0.31354,-0.0953 1.27634,-0.20944 1.50622,-0.38997c0.247,-0.19397 1.31974,-1.69172 2.05721,-2.22023c0.15443,-0.10823 0.39276,-0.20191 0.58516,-0.19408c0.25042,0.01026 0.663,0.07803 0.72955,-0.28452c0.01075,-0.0587 0.01889,-0.2091 0.06333,-0.16929z"/><path d=""/></g><g fill="#000000" stroke="#000000" stroke-width="0.25" stroke-linecap="butt" stroke-linejoin="round"><path d="M243.49031,173.50914c0.03853,-0.05336 0.29687,-0.20149 0.59419,-0.54233c0.18082,-0.22327 0.35973,-0.44835 0.518,-0.68801c0.09472,-0.14352 0.15223,-0.31449 0.25221,-0.45298c0.00339,-0.00472 -0.15466,0.37422 -0.2111,0.47731c-0.17687,0.32314 -0.35686,0.58679 -0.58436,0.87574c-0.04994,0.06346 -0.50249,0.52006 -0.51398,0.49806"/><path d="M243.43217,173.0655c0.03563,0.00575 0.31193,-0.17754 0.54185,-0.57287c0.2299,-0.39533 0.48832,-1.02692 0.48176,-1.0675c-0.00248,-0.01531 -0.21615,0.78619 -0.36281,1.08827c-0.14666,0.30206 -0.5676,0.77617 -0.57832,0.75566"/></g><g fill="#000000" stroke="none" stroke-width="1" stroke-linecap="round" stroke-linejoin="round"><path d="M242.23183,174.61077c0.05813,-0.17484 0.52189,-0.43605 0.63503,-0.43496c0.19571,0.00187 0.0324,0.4231 -0.06118,0.4813c-0.21489,0.11067 -0.65031,0.1837 -0.57385,-0.04634z"/><path d=""/></g><path d="M236.62649,175.31539c-0.01431,-0.055 1.02527,1.59764 1.55673,2.29994c1.00085,1.32252 1.91195,1.93408 1.91195,1.93408c0,0 -0.4273,0.01841 -0.53864,0.01036c-0.34392,-0.02481 -0.66136,-0.06615 -0.99887,-0.14991c-0.79385,-0.19707 -1.52017,-0.59477 -2.158,-1.10244c-0.42508,-0.33834 -1.89104,-2.10404 -1.88051,-2.12853" fill="#f79eb4" stroke="#f89db5" stroke-width="0" stroke-linecap="butt" stroke-linejoin="round"/><path d="M234.42393,176.20856c-0.00334,0.02043 1.87066,2.12276 2.44373,2.66924c0.57307,0.54647 1.62694,1.21244 1.62694,1.21244c0,0 -0.371,0.18849 -1.19561,0.004c-0.72812,-0.16292 -1.1196,-0.22928 -1.96173,-0.91362c-1.09277,-0.88801 -2.26532,-2.34369 -2.32915,-2.74046" fill="#f79eb4" stroke="#f89db5" stroke-width="0" stroke-linecap="butt" stroke-linejoin="round"/><g fill="#ee1a40" stroke="none" stroke-width="1" stroke-linecap="round" stroke-linejoin="round"><path d="M239.37408,168.79542c-0.10295,0.00513 -2.70686,0.16359 -3.83339,1.31201c-0.88789,0.90514 -1.1208,1.71071 -1.52428,3.09964c-0.31119,1.07114 0.16352,2.66243 0.14122,2.68949c-0.00159,0.00193 -2.12341,-3.52674 0.2793,-5.99837c1.9624,-1.97394 4.80116,-1.81018 4.94478,-1.76808"/><path d=""/></g><path d="M240.24206,169.52825c-0.00768,0.02821 0.37245,-1.25807 2.07399,-1.94447c0.3043,-0.12084 1.67234,0.30294 2.32307,0.75446c0.6581,0.36302 1.18628,1.46548 1.17218,1.47358c-0.02028,0.01156 -1.69154,-0.8994 -2.76634,-0.61391c-0.58686,0.15587 -1.96198,1.10614 -1.97209,1.14327" fill="#f79eb4" stroke="#f89db5" stroke-width="0" stroke-linecap="butt" stroke-linejoin="round"/><path d="M239.57598,170.05358c-0.04112,-0.07277 -0.32444,-1.8185 -0.24399,-2.1881c0.08044,-0.36962 0.06608,-0.58188 0.53865,-0.9602c1.7242,-1.12586 3.73921,-0.89346 3.73921,-0.89346c0,0 -1.40779,0.74484 -1.93322,1.29591c-0.72895,0.76456 -1.39056,2.08906 -1.42626,2.2175" fill="#f79eb4" stroke="#f89db5" stroke-width="0" stroke-linecap="butt" stroke-linejoin="round"/><g stroke="none" stroke-width="1" stroke-linecap="round" stroke-linejoin="round"><g fill="#f79eb4"><path d="M234.11945,173.75682c-0.22768,-0.27824 -0.72347,-0.68437 -1.1203,-1.23205c-0.39682,-0.54768 -0.8561,-1.28592 -0.85843,-1.49894c-0.00308,-0.27851 0.74867,-0.54698 1.60014,-0.7031c0.85147,-0.1561 2.08829,-0.09373 2.21312,0.00393"/></g><g fill="#ffd5c5"><path d="M234.32958,173.07694c-0.05806,-0.06276 -0.38167,-0.31452 -0.68564,-0.71215c-0.30397,-0.39762 -0.68771,-1.05017 -0.68645,-1.08275c0.00514,-0.13215 0.86666,-0.40065 1.3325,-0.47836c0.46586,-0.07772 1.03155,-0.01732 1.20621,0.05486"/></g></g><g fill="#f79eb4" stroke="none" stroke-width="1" stroke-linecap="round" stroke-linejoin="round"><path d="M238.46117,167.8643c0.18796,-0.24393 0.40147,-0.4832 0.9145,-0.90759c0.51303,-0.42439 1.145,-0.96058 1.38075,-0.99115c0.04829,-0.00624 0.51924,0.44883 0.74222,0.90699c0.34806,0.71513 0.45735,1.657 0.45794,1.67239"/><path d=""/></g><path d="M241.07405,170.45099c-0.05038,-0.00043 0.63744,-0.91539 1.62659,-1.01234c0.28415,-0.02786 1.51813,0.81262 1.59183,0.94443c0.3764,0.4806 0.78692,2.09156 0.78756,2.08969c0.01386,-0.04044 -0.93525,-0.80997 -1.96745,-1.12167c-0.34774,-0.10281 -1.34692,-0.14641 -1.48956,-0.14772" fill="#f79eb4" stroke="#f89db5" stroke-width="0" stroke-linecap="butt" stroke-linejoin="round"/><g fill="#000000" stroke="#000000" stroke-width="0.25" stroke-linecap="butt" stroke-linejoin="round"><path d="M238.04407,177.1046c0.00118,0.04351 -0.11573,0.14341 -0.31961,0.18622c-1.30898,0.27491 -1.65836,0.05591 -1.65836,0.05591c0,0 0.63996,0.17606 1.4796,-0.14268c0.16351,-0.06206 0.35912,-0.17628 0.39728,-0.20693c0.0364,-0.02925 0.04868,-0.08146 0.09934,-0.09557"/><path d="M238.14493,176.97949c0,0 -0.00453,0.05623 -0.08604,0.16776c-0.15115,0.2068 -0.65677,0.56564 -0.915,0.69851c-0.61576,0.31679 -1.06053,0.35525 -1.06053,0.35525c0,0 0.75905,-0.27104 0.98211,-0.38251c0.67071,-0.33979 0.90117,-0.85768 0.92653,-0.93529c0.0112,-0.03419 0.02617,-0.11758 0.0513,-0.14036"/></g><g fill="none" stroke="none" stroke-width="1" stroke-linecap="butt" stroke-linejoin="miter" font-family="sans-serif" font-weight="normal" font-size="12" text-anchor="start"/><g fill="none" stroke="none" stroke-width="1" stroke-linecap="butt" stroke-linejoin="miter" font-family="sans-serif" font-weight="normal" font-size="12" text-anchor="start"/><path d="M239.89049,177.61176" fill="none" stroke="#000000" stroke-width="0.25" stroke-linecap="round" stroke-linejoin="miter"/></g><path d="M242.5757,171.45833l-0.74077,2.32731" data-paper-data="{&quot;index&quot;:null}" fill="none" stroke="#e57e89" stroke-width="0.5" stroke-linecap="round" stroke-linejoin="miter"/><path d="M236.87094,175.26641l3.46124,-0.38731" fill="none" stroke="#e57e89" stroke-width="0.5" stroke-linecap="round" stroke-linejoin="miter"/><path d="M238.56195,173.57278l0.15588,2.61526" fill="none" stroke="#e57e89" stroke-width="0.5" stroke-linecap="round" stroke-linejoin="miter"/><path d="M240.80001,172.10951l2.30828,0.76744" fill="none" stroke="#e57e89" stroke-width="0.5" stroke-linecap="round" stroke-linejoin="miter"/></g><g stroke="none" stroke-width="0" stroke-linecap="butt" stroke-linejoin="miter"><path d="M240.84829,186.16402c0.28594,-0.8013 0.95476,-2.05889 0.95476,-2.05889l2.45306,-0.10026c0,0 0.33407,0.14413 0.59431,0.64167c0.16901,0.32312 0.135,0.92455 0.135,0.92455c0,0 0.39136,-0.5934 0.83274,-0.22161c0.2834,0.23873 0.02386,1.31713 -0.15785,1.67109c-0.10697,0.20837 -0.41811,0.50763 -0.73838,0.61181c-0.20205,0.06571 -0.48208,-0.02104 -0.48208,-0.02104c0,0 -0.10179,0.36251 -0.49634,0.28811c-0.12089,-0.0228 -0.29258,-0.01986 -0.29258,-0.01986c0,0 -0.15383,0.23611 -0.27889,0.32131c-0.12504,0.08519 -0.37444,0.1006 -0.37444,0.1006l-0.34799,-0.2343c0,0 -0.4568,0.28981 -0.56752,0.29634c-0.4344,0.02569 -0.64277,-0.40955 -0.75613,-0.64241c-0.20755,-0.42638 -0.52322,-1.4295 -0.47765,-1.55715z" data-paper-data="{&quot;index&quot;:null}" fill="#ffffff"/><path d="M244.37135,182.22231c0.27708,0.35602 0.61027,1.30787 0.14178,1.62461c-1.71144,1.15703 -2.75967,0.54673 -3.26552,-0.24319c-0.33039,-0.51595 -0.38011,-0.97259 1.05903,-1.65526c0.51098,-0.24237 1.78759,-0.0822 2.0647,0.27383z" fill="#fed000"/><path d="M243.10544,180.66627c0.19269,1.23474 0.46897,2.49495 0.46897,2.49495c0,0 -0.53852,-0.00258 -0.84261,-0.06812c-0.30411,-0.06554 -0.46604,-0.25616 -0.46604,-0.25616c0,0 -0.15152,-1.6398 -0.22928,-2.13792c-0.12751,-0.81709 -0.33149,-1.84597 -0.58929,-3.01738c-0.06461,-0.29352 0.05115,-0.49749 0.34777,-0.5756c0.19928,-0.05247 0.40633,-0.02067 0.53352,0.3325c0.38411,1.06662 0.64216,2.36409 0.77693,3.22772z" fill="#fed5c7"/></g><g data-paper-data="{&quot;index&quot;:null}" stroke="none" stroke-width="0" stroke-linecap="butt" stroke-linejoin="miter"><path d="M241.4925,172.40276c0,0 -0.80837,-0.92106 -0.84621,-1.62462c-0.03784,-0.70355 0.12934,-2.23869 0.83724,-2.79984c0.94334,-0.74778 0.51015,1.76351 0.51015,1.76351c0,0 0.33353,-0.30838 0.70848,-0.84831c0.66368,-0.95569 1.28848,-1.9741 1.61274,-1.91247c0.58153,0.11053 -0.55238,2.34303 -0.55238,2.34303c0,0 1.72907,-2.18283 2.09033,-1.9495c0.34931,0.22561 -0.93524,2.66368 -0.93524,2.66368c0,0 1.39974,-1.51961 1.88756,-1.48305c0.38143,0.36638 -1.11865,2.34341 -1.11865,2.34341c0,0 1.50064,-1.11814 1.91002,-0.97346c0.20691,0.24166 -0.80257,1.44082 -1.54332,2.2149c-0.74075,0.77408 -1.15328,0.94081 -1.46069,1.16486c-0.47334,0.345 -0.85237,0.32538 -0.85237,0.32538l-2.24769,-1.22754z" fill="#ffffff"/><path d="M241.88148,174.94485c-0.57328,-0.13915 -1.50273,-1.10743 -1.49347,-1.57797c0.00926,-0.47053 0.36437,-1.46077 0.95209,-1.40975c2.14693,0.18633 2.59565,1.36936 2.48681,2.34177c-0.07109,0.63514 -0.33071,1.03788 -1.94541,0.64595z" fill="#fed000"/><path d="M241.91357,174.52421c-0.49031,-0.2373 -0.79406,-0.62333 -0.67843,-0.8622c0.11562,-0.23889 0.60681,-0.24014 1.09711,-0.00283c0.49032,0.23731 0.79407,0.62333 0.67844,0.8622c-0.11563,0.23887 -0.60683,0.24014 -1.09714,0.00283z" fill="#c28830"/><path d="M239.49916,178.9404c0.28867,-1.14685 0.82089,-2.42005 1.20716,-3.24598c0.55226,-1.18086 1.00949,-2.2488 1.00949,-2.2488c0,0 0.54298,0.02652 0.768,0.26034c0.22503,0.23381 0.32664,0.2787 0.32664,0.2787c0,0 -0.93708,1.8275 -1.15987,2.30388c-0.36545,0.78143 -0.78807,1.79072 -1.24709,2.95467c-0.11502,0.29164 -0.33398,0.40079 -0.63619,0.29567c-0.20303,-0.07064 -0.36371,-0.21872 -0.26813,-0.59848z" fill="#fed5c7"/></g></g></g></svg>