<svg version="1.1" xmlns="http://www.w3.org/2000/svg" xmlns:xlink="http://www.w3.org/1999/xlink" width="17.98718" height="16.32946" viewBox="0,0,17.98718,16.32946"><g transform="translate(-231.00642,-171.62955)"><g data-paper-data="{&quot;isPaintingLayer&quot;:true}" fill="#000000" fill-rule="nonzero" stroke="#000000" stroke-width="0" stroke-linecap="butt" stroke-linejoin="miter" stroke-miterlimit="10" stroke-dasharray="" stroke-dashoffset="0" style="mix-blend-mode: normal"><g><path d="M231.00642,182.03306l1.6969,-7.56447c0,0 2.25277,-1.39584 3.76375,-1.88068c1.51098,-0.48484 3.58948,-0.40626 3.58948,-0.40626l-0.11311,15.65669c0,0 -2.81331,-3.92512 -4.40329,-4.95793c-1.34937,-0.87653 -4.53373,-0.84734 -4.53373,-0.84734z"/><path d="M244.39833,182.90926c-1.61154,1.05192 -4.46303,5.04975 -4.46303,5.04975l-0.11464,-15.94669c0,0 2.10671,-0.08004 3.63817,0.4138c1.53148,0.49382 3.81481,1.9155 3.81481,1.9155l1.71995,7.70456c0,0 -3.22757,-0.02971 -4.59524,0.86303z" data-paper-data="{&quot;index&quot;:null}"/></g><g><path d="M240.01698,186.94469c0,0 -3.81705,-3.09025 -5.31671,-5.34317c-1.32466,-1.99004 -3.82939,-6.87765 -3.32564,-7.48375c0.621,-0.74718 4.29629,-2.60303 6.14335,-2.48263c2.06205,0.13441 4.58149,3.20673 4.58149,3.20673z"/></g><g><path d="M237.90057,175.02561c0,0 2.51943,-3.07233 4.58149,-3.20673c1.84706,-0.12038 5.52237,1.73546 6.14336,2.48262c0.50374,0.60609 -2.00098,5.49372 -3.32564,7.48377c-1.49964,2.25291 -5.31672,5.34316 -5.31672,5.34316z"/></g></g></g></svg>