<svg version="1.1" xmlns="http://www.w3.org/2000/svg" xmlns:xlink="http://www.w3.org/1999/xlink" width="28.89844" height="32.17243" viewBox="0,0,28.89844,32.17243"><g transform="translate(-224.45409,-165.62499)"><g data-paper-data="{&quot;isPaintingLayer&quot;:true}" fill-rule="nonzero" stroke-linejoin="miter" stroke-miterlimit="10" stroke-dasharray="" stroke-dashoffset="0" style="mix-blend-mode: normal"><path d="M230.63516,196.22133c-0.63251,-1.77608 1.76785,-5.15887 1.76785,-5.15887c0.32786,-0.51175 0.76159,-0.83555 1.2433,-1.09703c0.41953,-0.22772 0.87547,-0.40818 1.32957,-0.62436c0.97552,-0.46438 0.41902,1.10722 0.41902,1.10722c0,0 -0.6671,2.319 -1.48044,3.29815c-0.58899,0.92189 -2.81723,3.77234 -3.2793,2.47488z" data-paper-data="{&quot;index&quot;:null}" fill="#54c81c" stroke="none" stroke-width="0" stroke-linecap="butt"/><path d="M243.19853,197.57313c-0.68497,1.0752 -2.07817,-2.01243 -2.4111,-2.98157c-0.52139,-1.07133 -0.63111,-3.32702 -0.63111,-3.32702c0,0 -0.16763,-1.55205 0.60661,-0.91202c0.36042,0.29794 0.72996,0.56384 1.05706,0.86453c0.37558,0.34526 0.69521,0.7364 0.88084,1.27458c0,0 1.43534,3.60968 0.49769,5.0815z" fill="#54c81c" stroke="none" stroke-width="0" stroke-linecap="butt"/><path d="M238.85128,188.50251l-0.0197,-6.17745l1.52772,0.26259c0,0 -0.57262,4.25307 -0.03936,6.22689c0.14962,0.63048 1.5634,3.52269 1.5634,3.52269c0,0 0.80723,2.20695 0.74299,2.83921c-0.08171,0.80427 -1.05381,0.04913 -1.22787,-0.26615c0,0 -0.41661,-1.30467 -0.70956,-2.10871c-0.43305,-1.18857 -1.83761,-4.29905 -1.83761,-4.29905z" fill="#ffffff" stroke="none" stroke-width="0" stroke-linecap="butt"/><path d="M237.1292,187.87069c0,0 -1.47439,2.29992 -2.03809,3.27301c-0.46338,0.79991 -0.9983,2.12403 -1.43802,2.53547c-0.43972,0.41145 -1.17273,0.67551 -1.15495,-0.13271c0.01398,-0.63536 1.47221,-2.7882 1.47221,-2.7882c0,0 1.88449,-2.9582 2.11048,-3.5655c0.77187,-1.89327 1.41373,-5.51614 1.41373,-5.51614l1.54841,-0.07278l-1.91378,6.26686z" data-paper-data="{&quot;index&quot;:null}" fill="#ffffff" stroke="none" stroke-width="0" stroke-linecap="butt"/><g stroke="none" stroke-width="0" stroke-linecap="butt"><path d="M253.3047,189.2876c0,0 -1.52109,-0.94422 -2.57854,-1.37299c-1.05745,-0.42877 -5.27263,-1.36989 -5.27263,-1.36989c0,0 4.7372,0.68404 5.42118,-0.18792c0.68407,-0.87208 -2.10751,-4.05403 -1.26565,-3.63043c4.44635,2.23731 3.69561,6.56123 3.69561,6.56123z" fill="#54c81c"/><path d="M238.6817,179.985c0,0 4.1027,0.53708 6.75426,1.04282c3.2129,0.61281 6.11979,2.95708 6.52407,4.48677c0.40428,1.52969 -4.5428,1.67778 -6.54247,0.88879c-2.16598,-0.85461 -6.73584,-6.41838 -6.73584,-6.41838z" fill="#ffffff"/></g><g stroke="none" stroke-width="0" stroke-linecap="butt"><path d="M234.5944,182.79632c0,0 -2.62058,0.88691 -4.78092,1.13833c-1.1908,0.13858 -2.75691,0.05154 -3.62505,0.14077c-1.46686,0.15075 -1.73433,0.69489 -1.73433,0.69489c0,0 0.61435,-1.44849 1.02091,-2.02266c0.40656,-0.57418 0.81258,-1.11186 1.03066,-0.96672c0.21808,0.14514 8.08874,1.01537 8.08874,1.01537z" fill="#54c81c"/><path d="M225.97377,182.04965c0,0 1.79046,-2.81081 6.53032,-3.15297c3.70461,-0.26743 5.18993,0.92076 5.91179,0.79089c2.09888,-0.37759 1.67661,-0.09008 1.67661,-0.09008c0,0 -1.11705,2.62238 -7.21346,3.55792c-4.38802,0.67337 -6.90526,-1.10576 -6.90526,-1.10576z" fill="#ffffff"/></g><g data-paper-data="{&quot;index&quot;:null}" stroke="none" stroke-width="0.17188" stroke-linecap="butt"><path d="M232.82163,177.01417c1.12097,-0.21873 2.22556,-0.14315 3.35501,0.1167c0.91804,0.23048 3.9188,0.37044 3.71179,0.6856c-0.20697,0.31529 -3.4387,0.82139 -4.64453,1.00172c-0.76212,0.11382 -1.4512,0.76498 -2.18032,0.58329c-0.47904,-0.11958 -0.63697,-0.84376 -0.6878,-1.34444c-0.04011,-0.38744 0.07525,-0.97049 0.44586,-1.04287z" fill="#319a2b"/><path d="M231.52346,178.86143c0.38622,0.23277 0.32647,0.56044 0.23628,0.71001c-0.46736,0.72051 -1.40352,1.26724 -2.1726,1.32301c0.15587,0.01904 -0.74414,-0.14685 -0.77731,-0.97961c-0.02984,-0.35911 -0.25442,-0.99077 -0.33753,-1.56423l0.06407,-0.56525c0.02935,-0.25976 0.36916,-0.42731 0.62978,-0.3233c0.03855,0.01535 -0.07938,-0.18707 0.02087,-0.32124c0.18046,-0.24148 0.62986,-0.47494 0.86222,-0.32891c0.20386,0.12785 0.56593,0.08602 0.77176,0.37004c0.27752,0.38297 -0.33041,0.28676 -0.21671,0.6527c0.06746,0.2175 0.91048,1.02141 0.91916,1.02677z" fill="#f0e9bb"/><path d="M232.74185,177.93852c0.11876,0.24166 1.01545,1.47828 0.82481,1.67853c-0.38121,0.35623 -1.41994,-0.01099 -1.82723,0.30356c0.12442,-0.09954 -0.04261,-0.61772 -0.04261,-0.61772c-0.01131,-0.02742 -0.22656,-0.41091 -0.63349,-0.78162c-0.33457,-0.30482 -0.70172,-0.60329 -0.59095,-0.80607c0.07647,-0.14035 0.32009,-0.51862 0.64716,-0.56618c0.34752,-0.05043 0.79646,-0.23496 1.15452,-0.18129c0.15504,0.02321 0.62071,-0.0626 0.73413,-0.00256c0.17246,0.09156 -0.04034,0.32839 -0.01618,0.28401c0.12066,-0.22168 -0.37039,0.4445 -0.25015,0.68934z" fill="#ead42f"/></g><g data-paper-data="{&quot;index&quot;:null}" stroke="none" stroke-width="0" stroke-linecap="butt"><path d="M240.67282,189.85229c0,0 4.20892,1.86331 5.16869,0.80728c0.97399,-1.07167 -0.00638,-5.87028 -0.00638,-5.87028c0,0 1.63912,0.84738 2.43029,4.50765c0.45952,2.11318 0.15901,7.27116 0.15901,7.27116c0,0 -2.72301,-2.24408 -4.74797,-3.31677c-1.68227,-0.89116 -3.00365,-3.39903 -3.00365,-3.39903z" fill="#54c81c"/><path d="M245.97691,184.76276c0.15273,0.18384 1.55366,4.07527 0.20178,6.06919c-1.23808,1.73473 -5.4722,-0.94257 -5.4722,-0.94257c0,0 -1.56189,-1.84278 -2.58302,-3.44495c-1.22681,-1.92487 -0.56338,-4.45654 0.22618,-5.51713c0.78956,-1.06059 0.44854,0.476 3.18407,0.89468c2.06109,0.31547 4.29681,2.76461 4.4432,2.9408z" fill="#ffffff"/></g><g stroke="none" stroke-width="0" stroke-linecap="butt"><path d="M228.27728,192.2595c0,0 -1.31146,-3.2448 -0.10574,-5.47063c0.9115,-1.68268 3.01455,-3.60225 3.01455,-3.60225l4.95116,5.2281c0,0 -3.8636,1.024 -5.26771,1.76692c-1.40412,0.74292 -2.59225,2.07785 -2.59225,2.07785z" fill="#54c81c"/><path d="M229.66202,187.91686c-1.17564,-1.76476 0.62772,-4.13327 1.52405,-4.73024c0.88956,-0.59247 1.86111,-1.98166 5.82623,-2.06137c2.70431,-0.05436 3.70894,-1.41412 3.70894,-1.41412l1.02503,0.68551c0,0 -0.17019,4.75428 -2.56649,6.64372c-2.2418,1.76761 -8.38762,2.57293 -9.51773,0.87649z" fill="#ffffff"/></g><path d="M238.94179,180.56215c-0.21644,-0.24282 -0.17368,-0.01616 -0.19567,-0.41334c-0.01729,-0.31382 -0.11077,-0.42879 -0.18319,-0.92755c-0.02292,-0.15794 0.11056,-0.57997 0.05451,-0.76215c-0.0533,-0.17235 0.22922,-0.71939 0.28916,-0.83016c0.23353,-0.43074 0.79192,-0.32006 0.92694,-0.32006c0.10689,0 0.61301,0.04613 0.69208,0.13011c0.25634,0.27241 0.32323,0.9786 0.31392,1.69625c-0.00316,0.82076 0.46274,1.28914 0.19566,1.67068c-0.32119,0.34297 -2.09341,-0.24378 -2.09341,-0.24378z" data-paper-data="{&quot;index&quot;:null}" fill="#319a2b" stroke="none" stroke-width="0.17188" stroke-linecap="butt"/><g data-paper-data="{&quot;index&quot;:null}" stroke="none" stroke-width="0.17188" stroke-linecap="butt"><path d="M243.54213,178.72029c1.25483,-0.03395 2.583,-0.04476 3.7263,0.42761c0.37798,0.15624 0.37556,0.79999 0.24997,1.20276c-0.16123,0.52069 -0.48404,1.25574 -1.01827,1.28009c-0.81304,0.03671 -2.55785,-1.1202 -3.34262,-1.40431c-1.24161,-0.44979 -2.71417,-1.67285 -2.86638,-2.05193c-0.15227,-0.37895 2.22693,0.59384 3.251,0.54579z" fill="#319a2b"/><path d="M248.25104,181.38729c0.01037,-0.00383 1.07762,-0.67675 1.19585,-0.89324c0.19911,-0.36416 -0.46697,-0.39226 -0.09027,-0.73942c0.27937,-0.25745 0.65482,-0.13549 0.89866,-0.22756c0.27798,-0.10528 0.70511,0.23887 0.84498,0.53392c0.0777,0.16392 -0.09088,0.35359 -0.04666,0.34554c0.29898,-0.0546 0.62388,0.19609 0.59939,0.47817l-0.05306,0.61387c-0.21109,0.59105 -0.58484,1.21359 -0.69346,1.58847c-0.21362,0.87705 -1.20473,0.86038 -1.03516,0.87355c-0.8046,-0.22397 -1.68143,-1.005 -2.02328,-1.8701c-0.06371,-0.17811 -0.05696,-0.53881 0.40296,-0.70322z" fill="#f0e9bb"/><path d="M247.15511,180.1464c0.18011,-0.23419 -0.19854,-1.04668 -0.11792,-0.78547c0.01615,0.0523 -0.15905,-0.24475 0.04367,-0.30501c0.13327,-0.03946 0.60931,0.1514 0.77889,0.15998c0.39166,0.01973 0.82879,0.31182 1.18695,0.4398c0.33708,0.12057 0.51469,0.57437 0.56582,0.73977c0.07416,0.23903 -0.37959,0.47726 -0.80011,0.72923c-0.51145,0.30643 -0.82216,0.66747 -0.84003,0.69417c0,0 -0.28835,0.51439 -0.17758,0.64673c-0.36505,-0.42123 -1.54655,-0.25386 -1.87497,-0.71374c-0.15952,-0.25344 1.05743,-1.3743 1.23529,-1.60544z" fill="#ead42f"/></g><g data-paper-data="{&quot;index&quot;:null}" stroke="none" stroke-linecap="butt"><path d="M239.65631,177.61769c0.13433,0.1251 0.16613,0.42664 0.1087,0.81281c-0.05732,0.38617 -0.20376,0.85687 -0.42556,1.32019c-0.22181,0.46343 -0.47737,0.83252 -0.71103,1.05442c-0.23377,0.22191 -0.44565,0.29674 -0.57999,0.17163c-0.13443,-0.1252 -0.16612,-0.42674 -0.10879,-0.81291c0.05743,-0.38617 0.20376,-0.85687 0.42556,-1.32019c0.2218,-0.46343 0.47747,-0.83251 0.71114,-1.05442c0.23366,-0.22191 0.44553,-0.29674 0.57997,-0.17153z" fill="#eb3d66" stroke-width="0.01872"/><path d="M239.28939,177.91835c0.06281,0.05491 0.07348,0.18552 0.04009,0.35243c-0.03339,0.16681 -0.11096,0.3699 -0.22462,0.56936c-0.11366,0.19936 -0.24213,0.35782 -0.35795,0.45269c-0.11581,0.09487 -0.21888,0.12624 -0.28157,0.07134c-0.0628,-0.0548 -0.07346,-0.18551 -0.04007,-0.35243c0.0334,-0.16682 0.11086,-0.36981 0.22463,-0.56927c0.11367,-0.19946 0.24214,-0.35793 0.35796,-0.4528c0.11571,-0.09488 0.21875,-0.12616 0.28156,-0.07135z" fill="#ffffff" stroke-width="0.01896"/></g><path d="M244.84259,174.60515c-0.04311,0.26495 -0.49508,1.02581 -0.63873,1.24338c-0.56427,0.76399 -1.20254,1.46896 -1.8332,2.17862c-0.24265,0.30539 -0.63622,0.43537 -1.01364,0.45919c-0.40549,0.01909 -0.77551,-0.19091 -1.14569,-0.32743c-0.56422,-0.23148 -1.09397,-0.53969 -1.56414,-0.92775c-0.60317,-0.44641 -1.30236,-1.09302 -1.56522,-1.83547c-0.235,-0.4333 -0.18592,-0.38267 -0.44444,-0.80922c-0.42787,-0.97022 -0.3894,-2.09616 -0.04323,-3.08525c0.2029,-0.59429 0.51035,-1.16471 0.94401,-1.62283c0.19467,-0.18378 0.42178,-0.40779 0.70924,-0.39409c0.22507,0.02651 2.97574,1.7845 3.61074,1.89589c0,0 2.95885,2.96063 2.98431,3.22497z" fill="#f0e9bb" stroke="none" stroke-width="0.17188" stroke-linecap="butt"/><path d="M240.49381,166.57403c0.18459,0.67753 -3.20148,1.80131 -2.65135,1.60432c-0.2562,-0.65551 -0.18647,-1.50354 0.04007,-2.03076c0.02072,-0.04828 0.15395,-0.12443 0.15395,-0.12443c-0.08714,-0.03627 0.07662,-0.0528 0.14176,-0.12387c0.05119,-0.05593 0.08304,-0.23194 0.08304,-0.23194c-0.05146,-0.00136 0.19823,0.03499 0.31072,0.02057c0.09293,-0.01187 0.09353,-0.06404 0.1622,-0.06292c0.48275,0.00669 1.1004,0.29065 1.75963,0.94904z" fill="#ed3e67" stroke="none" stroke-width="0.17188" stroke-linecap="butt"/><path d="M244.52821,174.94984c0.01145,-0.10571 -0.04419,-0.21685 -0.11718,-0.38878c-0.05478,-0.1293 -0.16075,-0.38075 -0.17941,-0.48455c-0.04685,-0.26059 -0.71777,-0.73061 -0.72579,-0.63935c-0.12085,0.05561 0.19527,-0.24926 -1.27698,-0.08802l-1.56773,0.17209c-0.14423,0.01576 -0.72137,0.08502 -1.05741,-0.02286c-0.3612,-0.11594 -0.81235,-0.39917 -0.80698,-0.4859c0,0 0.08653,-0.67102 0.06183,-0.96971c-0.00938,-0.11358 -0.11425,0.0392 -0.19555,0.27529c-0.01348,0.03901 -0.18156,0.65285 -0.20589,0.66732c-0.1312,0.07754 0.03472,-2.1116 0.04477,-2.23142l0.06279,-0.73946c0.02104,-0.24943 -0.21252,-0.28951 -0.26974,-0.36113c-0.0859,-0.10767 -0.21555,-0.06994 -0.30251,0.03079c-0.11016,0.1273 -0.53547,0.67607 -0.60638,0.7497c-0.37516,0.39027 -0.57908,1.14628 -0.92073,1.84431c-0.19978,0.40831 0.28523,2.76796 0.29607,2.37119c0.00497,-0.17908 -0.71697,0.76991 -1.05346,0.70907c-0.24028,-0.04321 0.04262,-2.19809 0.19638,-2.58779l0.8775,-2.22557c0.25681,-0.65179 1.67252,-1.97603 1.95939,-2.19439l0.56038,-0.42664c0.76324,-0.4286 1.5936,-0.69737 2.50143,-0.78157c0.05782,-0.00538 0.98417,-0.19893 2.09536,0.16923c0.70175,0.23245 1.66098,0.90591 1.7352,0.96023c0.43517,0.31857 1.29439,0.92673 1.93568,1.67326c0.40793,0.47486 0.66031,1.0453 0.87633,1.50517c0.0389,0.08255 -1.28625,0.39803 -1.24638,0.474c0.01945,0.03678 -0.76275,0.68259 -0.812,0.76317l-0.32903,0.53803c-0.33258,0.54393 -0.26195,1.41043 -0.22937,1.54031c0.04445,0.17787 0.22632,0.75336 0.35523,0.85577l0.43417,0.34559c0.05961,0.04717 0.87835,0.0621 0.89225,0.13106c0.04891,0.24305 -0.60186,0.9546 -0.74543,1.08275l-0.75547,0.67462c-0.24339,0.21725 -0.36529,0.35132 -0.79078,0.58223c-0.58366,0.31707 -1.16889,0.63177 -1.84715,0.81172c-0.54812,0.1455 -2.65845,0.13273 -2.53663,0.02394l1.03483,-0.92652l1.34261,-1.39939l1.31585,-1.99782z" fill="#54c81c" stroke="none" stroke-width="0.17188" stroke-linecap="butt"/><path d="M248.70794,176.12639c-1.03824,-0.33936 -0.8103,-2.87399 -0.8103,-2.87399c0.23461,-0.3117 1.47636,-0.37477 2.27849,0.36659c0.61299,0.56674 0.87947,1.11539 0.88878,1.55564c0.00134,0.06285 -0.04699,0.06615 -0.05748,0.15172c-0.0125,0.10351 0.02261,0.32954 0.02109,0.28256c0,0 -0.16279,0.03853 -0.21413,0.08823c-0.06537,0.0632 -0.07952,0.21385 -0.11364,0.13619c0,0 -0.06961,0.12582 -0.1142,0.1473c-0.48651,0.23528 -1.2706,0.3444 -1.87861,0.14577z" fill="#ed3e67" stroke="none" stroke-width="0.17188" stroke-linecap="butt"/><path d="M246.84364,173.33057c0.03766,0.11463 0.31481,-0.42148 0.77091,-0.80499c0.48697,-0.40956 1.16668,-0.66355 1.61133,-0.36677c0.2567,0.17144 0.41824,0.41604 0.58127,0.63183c0.33636,0.44507 0.50632,0.84607 0.31219,0.79085c-0.32949,-0.09361 -0.79536,-0.15655 -1.1308,-0.16656c-0.47835,-0.01437 -0.80629,0.00356 -0.8038,0.03206l0.16052,1.83299l0.37072,0.88792c0.06731,0.14002 -0.3708,0.10908 -0.8067,-0.00405c-0.37636,-0.0975 -0.70996,-0.06999 -0.83381,-0.11534c-0.55205,-0.2012 -0.33568,-0.36621 -0.6474,-1.0461c-0.18121,-0.39538 0.35922,-1.84431 0.41556,-1.67184z" fill="#54c81c" stroke="none" stroke-width="0.17188" stroke-linecap="butt"/><path d="M248.87592,171.80479c0.19542,0.37396 -0.42378,0.22284 -1.12908,0.67431c-0.44886,0.28731 -0.93597,0.88008 -1.25858,1.81048c-0.0337,0.09767 -0.01696,0.3503 0.01453,0.68472c0.04809,0.51257 1.31187,1.20221 1.0557,1.17481l-1.00038,-0.10732l-0.42039,-0.45659c-0.32678,-0.21153 -0.63964,-1.7924 0.11226,-2.74701c0.82179,-1.04322 2.16012,-1.92528 2.62594,-1.0334z" fill="#ead32e" stroke="none" stroke-width="0.17188" stroke-linecap="butt"/><path d="M240.25804,167.51089c-0.22905,0.17199 -0.74232,0.30929 -0.74232,0.30929c0.04604,-0.13345 0.28053,-0.23272 0.35034,-0.33125c0.16135,-0.22781 0.72886,-0.65356 1.40958,-0.72807l0.38709,-0.04228c0.19061,-0.02091 0.68018,0.17947 0.7214,0.29038c0.00063,0.19801 -0.70124,0.09362 -1.37045,0.29471c-0.3208,0.0964 -0.75563,0.20722 -0.75563,0.20722z" fill="#ead32e" stroke="none" stroke-width="0.17188" stroke-linecap="butt"/><path d="M240.18341,167.35279c-0.13321,0.0773 -0.72645,0.5061 -1.01001,0.72449l-1.11762,0.86062c-0.08222,0.06332 -0.35134,-0.8412 -0.12477,-1.05243c0.10183,-0.35608 0.36918,-0.52624 0.59095,-0.74723c0.3217,-0.18214 0.82061,-0.38337 1.08106,-0.42086c0.20976,-0.03018 0.3567,-0.51746 0.57837,-0.59834c0.33364,-0.12195 1.17463,0.55263 1.17463,0.55263z" fill="#54c81c" stroke="none" stroke-width="0.17188" stroke-linecap="butt"/><path d="M238.44468,176.57741c-0.53839,-0.43597 -0.68779,-0.83238 -0.68779,-0.83238c0,0 0.62288,-0.42741 1.89532,0.55041c0.32113,0.24677 0.29669,1.22458 0.29669,1.22458c0,0 -0.96582,-0.50663 -1.50421,-0.94261z" fill="none" stroke="#dfcfa3" stroke-width="0.36953" stroke-linecap="round"/><path d="M237.28913,173.3898c-0.14341,-0.10795 -0.17217,-0.31169 -0.06422,-0.45511c0.10795,-0.14341 0.31169,-0.17218 0.45511,-0.06423c0.1434,0.10794 0.17217,0.31169 0.06422,0.45511c-0.10795,0.14341 -0.31169,0.17218 -0.45511,0.06423z" fill="#ffffff" stroke="none" stroke-width="0" stroke-linecap="butt"/><path d="M236.93606,173.0447c-0.14341,-0.10795 -0.17217,-0.31169 -0.06422,-0.45511c0.10795,-0.14341 0.31169,-0.17218 0.45511,-0.06423c0.1434,0.10794 0.17217,0.31169 0.06422,0.45511c-0.10795,0.14341 -0.31169,0.17218 -0.45511,0.06423z" fill="#000000" stroke="none" stroke-width="0" stroke-linecap="butt"/><path d="M240.11503,175.466c-0.14341,-0.10795 -0.17217,-0.31169 -0.06422,-0.45511c0.10795,-0.14341 0.31169,-0.17218 0.45511,-0.06423c0.1434,0.10794 0.17217,0.31169 0.06422,0.45511c-0.10795,0.14341 -0.31169,0.17218 -0.45511,0.06423z" fill="#ffffff" stroke="none" stroke-width="0" stroke-linecap="butt"/><path d="M240.95651,175.72653c-0.10794,0.1434 -0.3117,0.17216 -0.45511,0.06422c-0.1434,-0.10794 -0.17216,-0.3117 -0.06422,-0.45511c0.10795,-0.1434 0.3117,-0.17216 0.45511,-0.06422c0.14341,0.10794 0.17217,0.3117 0.06423,0.45511z" fill="#000000" stroke="none" stroke-width="0" stroke-linecap="butt"/><path d="M241.20445,180.73887c0,0 -0.51665,0.28568 -1.4919,0.34818c-0.53665,0.03439 -1.09714,-0.3092 -1.01645,-0.46382c0.15625,-0.29941 0.37343,0.04276 0.91118,0.04276c0.53775,0 1.28947,-0.15789 1.28947,-0.15789z" fill="#ead42f" stroke="none" stroke-width="0" stroke-linecap="butt"/></g></g></svg>