<svg version="1.1" xmlns="http://www.w3.org/2000/svg" xmlns:xlink="http://www.w3.org/1999/xlink" width="4.75776" height="13.53232" viewBox="0,0,4.75776,13.53232"><g transform="translate(-239.8192,-180.21657)"><g data-paper-data="{&quot;isPaintingLayer&quot;:true}" fill-rule="nonzero" stroke-linejoin="miter" stroke-miterlimit="10" stroke-dasharray="" stroke-dashoffset="0" style="mix-blend-mode: normal"><path d="M241.63019,187.46856c0.85841,0.01952 1.01723,0.06486 1.01723,0.06486c0,0 1.14735,0.59669 1.64567,1.93875c0.28103,0.75686 0.50279,1.12007 -0.09416,2.77697c-0.06146,0.17058 -0.49268,0.67577 -0.91225,0.99759c-0.41957,0.32182 -0.58665,0.60033 -0.99953,0.46882c-0.07415,-0.02362 -0.69851,0.04477 -0.90496,-0.40882c-0.27758,-0.60982 0.45122,-0.5076 -0.33965,-1.62778c-0.79088,-1.12018 -0.03032,0.77082 -0.43842,0.37345c-0.65789,-0.64058 -0.98283,-2.89018 -0.54635,-3.82305c0.23419,-0.50049 0.71398,-0.78029 1.57241,-0.76077z" data-paper-data="{&quot;index&quot;:null}" fill="#a8c8d8" stroke="none" stroke-width="0" stroke-linecap="butt"/><path d="M241.2125,182.69488c0.00913,-0.25065 -0.31872,-1.89833 -0.15097,-2.26642c0.27335,-0.59977 1.08786,0.18449 1.05911,0.97393c-0.02702,0.74196 0.3993,2.5067 0.36763,3.37791c-0.0227,0.62462 -0.93681,-0.12268 -1.03387,-0.12642c-0.23241,-0.00894 -0.28828,-0.68508 -0.24189,-1.959z" data-paper-data="{&quot;index&quot;:null}" fill="#f8b820" stroke="none" stroke-width="NaN" stroke-linecap="butt"/><path d="M239.87471,185.23267c0.11442,-0.55787 1.09014,-0.82904 2.17932,-0.60565c1.08919,0.2234 1.8794,0.85674 1.76498,1.41461c-0.11442,0.55787 -1.09015,0.82903 -2.17933,0.60564c-1.08919,-0.2234 -1.87939,-0.85674 -1.76497,-1.41461z" data-paper-data="{&quot;index&quot;:null}" fill="#a8c8d8" stroke="none" stroke-width="0" stroke-linecap="butt"/><path d="M239.81926,187.23895c-0.00844,-0.56943 0.88595,-1.04439 1.9977,-1.06087c1.11174,-0.01648 2.01982,0.43178 2.02826,1.0012c0.00845,0.56943 -0.88594,1.04439 -1.99769,1.06087c-1.11174,0.01649 -2.01983,-0.43177 -2.02827,-1.00119z" data-paper-data="{&quot;index&quot;:null}" fill="#a8c8d8" stroke="none" stroke-width="0" stroke-linecap="butt"/><path d="M243.28031,187.94524c0,0 -0.95885,0.25974 -1.42857,0.25974c-0.50215,0 -1.4935,-0.25974 -1.4935,-0.25974" data-paper-data="{&quot;index&quot;:null}" fill="none" stroke="#707070" stroke-width="0.5" stroke-linecap="round"/></g></g></svg>