<svg version="1.1" xmlns="http://www.w3.org/2000/svg" xmlns:xlink="http://www.w3.org/1999/xlink" width="38" height="31.61912" viewBox="0,0,38,31.61912"><g transform="translate(-225.30894,-163.30537)"><g data-paper-data="{&quot;isPaintingLayer&quot;:true}" fill-rule="nonzero" stroke-linejoin="miter" stroke-miterlimit="10" stroke-dasharray="" stroke-dashoffset="0" style="mix-blend-mode: normal"><g><g><path d="M248.11463,184.57483l0.82308,0.05296c0,0 1.23308,2.5617 1.58808,3.96319c0.29614,1.16914 0.46896,2.94149 0.4542,3.6629c-0.02551,1.24559 -0.63888,1.00944 -0.63888,1.00944c0,0 0.1668,-3.26449 -0.12641,-4.55784c-0.209,-0.92208 -2.10005,-4.13065 -2.10005,-4.13065z" fill="#989898" stroke="#989898" stroke-width="0" stroke-linecap="round"/><path d="M246.76593,186.3505c0.12333,-0.54862 0.21218,-0.98096 0.6486,-1.39762c0.62042,-0.59229 1.01096,-0.3796 1.30229,0.06003c0.61295,0.92559 1.21302,2.70705 1.21302,2.70705l-3.05629,1.70557c0,0 -0.29545,-2.23384 -0.10762,-3.07505z" fill="#f82020" stroke="none" stroke-width="1.13968" stroke-linecap="round"/><path d="M249.88016,187.64299c0,0 0.16176,0.11354 0.37873,1.08386c0.21697,0.9703 0.37649,2.27045 0.39613,3.36622c0.0073,0.43935 0.05678,1.19024 -0.28868,1.23061c-0.58811,0.06883 -1.80428,-0.22337 -2.26142,-0.76564c-0.45421,-0.53918 -1.35143,-2.54303 -1.23639,-3.26998c0.21861,-1.29339 3.01164,-1.64507 3.01164,-1.64507z" fill="#f8f8f8" stroke="none" stroke-width="1.15102" stroke-linecap="round"/><path d="M244.93723,186.50017c-0.00381,-0.42858 -0.32586,-1.18177 0.13255,-1.62647c0.52071,-0.50514 0.91651,0.16233 0.91651,0.16233c0,0 0.17093,-0.62191 0.57079,-0.38063c0.38824,0.23426 0.37895,0.51653 0.41897,0.82021c0.06724,0.51029 -0.19359,1.36989 -0.19201,1.54718c0.00788,0.88652 0.27234,2.20365 -0.19273,2.20779c-0.12336,0.0011 -0.70641,-0.23193 -0.70641,-0.23193c0,0 -0.61676,0.49627 -0.81054,0.11766c-0.25138,-0.49114 -0.13388,-2.24833 -0.13715,-2.61616z" fill="#ffffff" stroke="none" stroke-width="0" stroke-linecap="butt"/></g><path d="M247.25779,187.35628c0.01227,1.38065 -0.08406,2.1675 -0.43372,2.17061c-0.12744,0.00114 -0.01504,-0.7303 -0.02731,-2.11095c-0.01227,-1.38065 0.08159,-2.44527 0.20903,-2.4464c0.34967,-0.00311 0.23972,1.00608 0.25199,2.38674z" fill="#424242" stroke="none" stroke-width="0" stroke-linecap="butt"/></g><path d="M245.10044,186.54492c0.2319,0.451 0.0744,1.2097 -0.3455,1.4122c-0.6542,0.3237 -1.5113,0.1313 -2.1297,-0.1995c-0.3795,-0.1978 -0.5472,-0.6966 -0.5726,-1.1504c-0.0465,-0.8117 -0.0631,-1.7152 0.3326,-2.4196c0.1563,-0.2754 0.8034,-0.1828 1.004,0.0852c0.3591,0.4777 -0.0556,1.2983 0.3044,1.7794c0.3061,0.4074 1.1775,0.0537 1.4068,0.4927z" data-paper-data="{&quot;index&quot;:null}" fill="#e88820" stroke="none" stroke-width="0.49091" stroke-linecap="round"/><path d="M236.13924,185.90452c0.1528,-0.4802 0.2038,-1.0559 0.3375,-1.4984c0.6174,-1.2957 0.9917,-0.0516 1.166,0.6272c0.1276,0.4112 -0.0577,0.9012 -0.1841,1.3243c-0.178,0.591 -0.2436,1.4232 -0.7364,1.7424c-0.4124,0.2607 -1.1923,0.154 -1.3193,-0.3136c-0.17,-0.6252 0.5302,-1.2323 0.7363,-1.8819z" data-paper-data="{&quot;index&quot;:null}" fill="#005613" stroke="none" stroke-width="0.65663" stroke-linecap="round"/><path d="M232.37984,191.60416c-0.27185,-0.42844 -0.474,-0.43121 -0.33268,-0.82658c0.37586,-0.74007 1.07822,-0.58219 1.04046,-0.69704c-0.03758,-0.11351 -1.22739,1.14104 -1.67156,0.15575c-0.23789,-0.47236 1.05081,-1.32288 1.54274,-1.79473c0.18167,-0.16322 0.47873,-0.31177 0.73668,-0.567c0.25795,-0.25524 0.28,-0.4677 0.53796,-0.69425c0.25796,-0.22655 0.78379,-0.602 0.92038,-0.58654c0.46797,0.09917 -0.03145,-0.10995 0.69592,0.2246c0.72737,0.33454 1.02545,0.50915 1.59198,0.88276c0.56653,0.3736 0.53093,0.13727 0.64595,0.45547c0.08161,0.22629 -0.27935,0.89875 -0.66914,1.23801c-0.38979,0.33926 -0.4999,0.75305 -0.70969,1.22204c-0.20979,0.46899 -0.13908,1.49451 -0.95676,2.28996c-0.46388,0.45188 -1.21532,0.23554 -1.94123,-0.11123c-0.6094,-0.2916 -1.08646,-0.70495 -1.43102,-1.19121z" fill="#a8c8d8" stroke="none" stroke-width="0.67216" stroke-linecap="round"/><path d="M244.22572,185.86915c-0.27874,0.23923 -0.71876,0.62176 -1.22073,0.65269c-0.71255,0.04389 -1.54991,-0.33071 -2.22796,-0.33358c-1.06277,-0.002 -2.25525,0.0879 -3.16802,-0.2455c-0.91033,-0.3333 -1.36663,-1.0387 -1.84467,-1.6445c-0.12516,-0.1414 -0.22366,-0.3294 0.12041,-0.4909c1.37693,-0.6466 2.9161,-1.1758 4.49121,-1.62c0.87912,-0.2479 2.00463,-0.30531 2.94861,-0.17571c0.80528,0.1169 1.66449,0.51394 1.78555,0.92624c0.26941,1.1188 0.09096,2.09037 -0.88439,2.93127z" data-paper-data="{&quot;index&quot;:null}" fill="#089c4e" stroke="none" stroke-width="0.49091" stroke-linecap="round"/><path d="M243.04027,184.28481c0.12289,-0.88547 0.34511,-2.15789 0.64097,-2.15789c0.29586,0 -0.14129,1.37159 -0.26504,2.26316c-0.12375,0.89157 -0.06316,2.23308 -0.35902,2.23308c-0.29587,0 -0.13982,-1.45288 -0.01692,-2.33835z" fill="#000000" stroke="#000000" stroke-width="0" stroke-linecap="butt"/><path d="M238.84489,186.12629c0,-0.23545 0.19087,-0.42631 0.42631,-0.42631c0.23545,0 0.42632,0.19087 0.42632,0.42631c0,0.23545 -0.19087,0.42632 -0.42632,0.42632c-0.23545,0 -0.42631,-0.19087 -0.42631,-0.42632z" fill="#ffffff" stroke="none" stroke-width="0" stroke-linecap="butt"/><path d="M237.57822,185.99295c0,-0.23545 0.19087,-0.42632 0.42632,-0.42632c0.23545,0 0.42632,0.19087 0.42632,0.42632c0,0.23545 -0.19087,0.42631 -0.42632,0.42631c-0.23545,0 -0.42632,-0.19087 -0.42632,-0.42631z" fill="#ffffff" stroke="none" stroke-width="0" stroke-linecap="butt"/><path d="M246.70474,187.31822c0.2479,0.4423 0.1178,1.2061 -0.2945,1.4236c-0.6422,0.3471 -1.5057,0.1856 -2.1355,-0.1227c-0.3863,-0.1841 -0.5719,-0.6765 -0.6136,-1.1291c-0.0756,-0.8095 -0.1247,-1.7118 0.2454,-2.43c0.1463,-0.2808 0.7963,-0.2116 1.0064,0.0491c0.376,0.4644 -0.0089,1.2994 0.3682,1.7673c0.3205,0.3961 1.1786,0.0113 1.4236,0.4418z" data-paper-data="{&quot;index&quot;:null}" fill="#f8b820" stroke="none" stroke-width="0.49091" stroke-linecap="round"/><path d="M239.38924,187.85455c0.1528,-0.4802 0.2872,-0.982 0.3375,-1.4984c0.0663,-0.6803 -0.3086,-1.4804 0,-2.0561c0.1915,-0.3568 0.9365,-0.4419 1.1046,-0.0697c0.3504,0.8085 0.1111,1.8302 0.0614,2.753c-0.0234,0.4266 -0.0583,0.9012 -0.1841,1.3243c-0.1743,0.5771 -0.2436,1.4232 -0.7364,1.7424c-0.4124,0.2607 -1.1923,0.154 -1.3193,-0.3136c-0.17,-0.6252 0.5302,-1.2323 0.7363,-1.8819z" data-paper-data="{&quot;index&quot;:null}" fill="#089c4e" stroke="none" stroke-width="0.65663" stroke-linecap="round"/><path d="M234.41526,185.04432l0.64457,-0.376c0,0 1.43237,-0.42828 2.2103,-0.49052c0.96986,-0.07759 3.1611,0.06081 3.1611,0.06081l-1.71141,0.52562l0.24846,1.36756l-1.48659,-0.73994l-1.14398,1.10255l-0.63331,-0.85923l-1.77074,0.89139l1.34103,-1.42853z" fill="#cf0000" stroke="none" stroke-width="0" stroke-linecap="butt"/><path d="M236.42074,193.80772c-0.3385,-0.378 -0.53836,-0.34755 -0.46386,-0.76075c0.24927,-0.79173 0.96802,-0.48462 0.91192,-0.59172c-0.0557,-0.1058 -1.02342,1.06039 -1.62331,0.16138c-0.3122,-0.4269 0.81938,-1.47744 1.22718,-2.02364c0.15241,-0.19083 0.42105,-0.38612 0.6336,-0.68025c0.21255,-0.29413 0.19941,-0.50732 0.41669,-0.77315c0.21727,-0.26583 0.67434,-0.7225 0.81161,-0.72967c0.4779,0.021 -0.04907,-0.1033 0.72335,0.1073c0.77242,0.2106 1.09512,0.33391 1.71529,0.60944c0.62017,0.27553 0.54627,0.04826 0.71197,0.34325c0.11765,0.20983 -0.12802,0.93242 -0.45683,1.33106c-0.32881,0.39864 -0.3695,0.8249 -0.49945,1.32197c-0.12995,0.49706 0.10815,1.49706 -0.56785,2.41596c-0.3834,0.5219 -1.16017,0.43185 -1.93316,0.20895c-0.649,-0.1876 -1.18744,-0.51703 -1.60715,-0.94013z" fill="#ffffff" stroke="none" stroke-width="0.67216" stroke-linecap="round"/><path d="M245.59396,175.14442c0,3.67923 -0.79915,6.36383 -1.15669,7.28335c-0.22267,0.57267 -0.30752,0.07576 -0.30752,0.07576c0,0 0.32063,-0.97151 0.32063,-6.9421c0,-2.00845 -2.15189,-4.30491 -2.3331,-5.04466c-0.19986,-0.81593 2.87875,-0.62371 2.87875,-0.62371c0,0 3.20894,-1.09532 3.11029,0.02077c-0.07905,0.89439 -2.51236,3.52196 -2.51236,5.2306z" data-paper-data="{&quot;index&quot;:null}" fill="#e2a026" stroke="none" stroke-width="0" stroke-linecap="butt"/><path d="M242.73939,175.35294c0,-1.70864 -1.66857,-4.05755 -1.76167,-4.95194c-0.11617,-1.11608 2.1755,-0.29943 2.1755,-0.29943c0,0 3.31872,-0.84244 3.08336,-0.02651c-0.21339,0.73975 -2.15048,3.68642 -2.15048,5.69487c0,5.9706 0.21456,6.84921 0.21456,6.84921c0,0 0.02724,0.49302 -0.26929,-0.21858c-0.40775,-0.9785 -1.29197,-3.5909 -1.29197,-7.04764z" fill="#e2a026" stroke="none" stroke-width="0" stroke-linecap="butt"/><path d="M263.30894,168.48394c0,2.86005 -8.50659,5.17857 -19,5.17857c-10.49341,0 -19,-2.31852 -19,-5.17857c0,-2.86005 8.50659,-5.17857 19,-5.17857c10.49341,0 19,2.31852 19,5.17857z" fill-opacity="0.90196" fill="#e3a127" stroke="none" stroke-width="0" stroke-linecap="butt"/><path d="M229.99009,165.37824c0.07543,-0.02489 1.46756,-0.57942 2.50881,-0.66435c1.64503,-0.13417 3.19049,0.18933 3.19049,0.18933c0,0 -2.24313,0.22033 -2.81139,0.3829c-1.01128,0.28933 -2.73645,1.20437 -2.73645,1.20437c0,0 1.54876,-0.75946 2.36791,-0.9524c0.69495,-0.16368 2.23596,-0.13197 2.23596,-0.13197c0,0 -1.21259,0.38897 -1.72312,0.61022c-0.58022,0.25145 -1.57594,0.81954 -1.57594,0.81954c0,0 0.78108,-0.31641 1.30425,-0.43622c0.52318,-0.11981 1.16764,-0.12987 1.16764,-0.12987c0,0 -0.54578,0.32414 -0.77671,0.49106c-0.25753,0.18614 -0.73362,0.66122 -0.73362,0.66122c0,0 0.66449,-0.23199 1.10758,-0.28799c0.44309,-0.056 1.14476,0.00334 1.14476,0.00334c0,0 -0.40621,0.27572 -0.65486,0.46749c-0.24865,0.19177 -0.44798,0.38306 -0.44798,0.38306c0,0 0.36636,-0.12239 0.60963,-0.13274c0.24327,-0.01036 0.5832,0.08193 0.5832,0.08193c0,0 -0.31439,0.17928 -0.4429,0.27922c-0.16324,0.12696 -0.45754,0.42104 -0.45754,0.42104c0,0 0.61418,-0.11832 0.8373,-0.12043c0.16595,-0.00158 0.51264,0.04521 0.51264,0.04521l-0.5525,0.2684l0.64872,0.26875l-1.07057,0.21341l0.17909,-0.57442l-0.96779,0.10011l0.42549,-0.65059c0,0 -0.28252,-0.05663 -0.46476,-0.04925c-0.18224,0.00738 -0.50452,0.0885 -0.50452,0.0885c0,0 0.207,-0.29253 0.3887,-0.42469c0.1817,-0.13216 0.75648,-0.40827 0.75648,-0.40827l-1.20678,0.22575l-1.48855,0.54908c0,0 0.27449,-0.45829 0.50349,-0.70855c0.22901,-0.25026 0.78255,-0.69684 0.78255,-0.69684c0,0 -0.70808,0.23667 -1.15398,0.40797c-0.4459,0.1713 -1.25743,0.51841 -1.25743,0.51841c0,0 0.43018,-0.70586 0.84434,-1.00973c0.41415,-0.30387 1.52888,-0.73151 1.52888,-0.73151c0,0 -1.35168,0.30979 -2.13721,0.70173c-0.78554,0.39194 -2.56834,1.6461 -2.56834,1.6461c0,0 0.94853,-1.46231 1.8555,-2.0435c0.90697,-0.58119 3.25062,-1.22854 3.25062,-1.22854c0,0 -2.95113,0.79844 -3.47329,1.10061c-1.31181,0.75913 -3.56304,3.05082 -3.56304,3.05082c0,0 1.01465,-2.8013 4.03525,-3.79772z" fill="#dcdce1" stroke="none" stroke-width="0" stroke-linecap="butt"/><path d="M257.85231,171.54166c-0.07718,0.01877 -1.50924,0.46008 -2.55394,0.46138c-1.65049,0.00205 -3.1651,-0.44414 -3.1651,-0.44414c0,0 2.25358,-0.04004 2.83302,-0.15661c1.03119,-0.20745 2.82407,-0.98144 2.82407,-0.98144c0,0 -1.60459,0.63304 -2.43656,0.75978c-0.70583,0.10753 -2.23934,-0.04745 -2.23934,-0.04745c0,0 1.23983,-0.29065 1.76644,-0.47033c0.59849,-0.2042 1.63649,-0.69074 1.63649,-0.69074c0,0 -0.80391,0.25287 -1.33499,0.33041c-0.53108,0.07754 -1.17429,0.03598 -1.17429,0.03598c0,0 0.56998,-0.27942 0.81353,-0.42731c0.2716,-0.16493 0.7842,-0.60037 0.7842,-0.60037c0,0 -0.68093,0.17805 -1.12708,0.1984c-0.44616,0.02035 -1.14082,-0.09497 -1.14082,-0.09497c0,0 0.42698,-0.24232 0.69019,-0.41357c0.2632,-0.17124 0.47721,-0.34597 0.47721,-0.34597c0,0 -0.37498,0.09266 -0.6183,0.08351c-0.24332,-0.00915 -0.57477,-0.12836 -0.57477,-0.12836c0,0 0.32774,-0.15353 0.46384,-0.24286c0.17289,-0.11348 0.48978,-0.38307 0.48978,-0.38307c0,0 -0.62168,0.06878 -0.84425,0.05302c-0.16555,-0.01172 -0.50737,-0.08611 -0.50737,-0.08611l0.57221,-0.22331l-0.62512,-0.31983l1.08422,-0.12702l-0.2245,0.55824l0.9727,-0.02232l-0.47621,0.61445c0,0 0.27708,0.07906 0.45934,0.08629c0.18225,0.00724 0.50999,-0.04783 0.50999,-0.04783c0,0 -0.22976,0.27502 -0.42146,0.39221c-0.1917,0.11719 -0.78674,0.34639 -0.78674,0.34639l1.22098,-0.12841l1.52774,-0.42815c0,0 -0.3103,0.43484 -0.5586,0.66596c-0.2483,0.23112 -0.83582,0.63196 -0.83582,0.63196c0,0 0.72475,-0.17922 1.18293,-0.31427c0.45818,-0.13505 1.29489,-0.41608 1.29489,-0.41608c0,0 -0.48531,0.66915 -0.92246,0.93889c-0.43715,0.26974 -1.58253,0.60676 -1.58253,0.60676c0,0 1.37215,-0.20058 2.18654,-0.52838c0.81439,-0.3278 2.69188,-1.4352 2.69188,-1.4352c0,0 -1.06256,1.38168 -2.01315,1.8884c-0.95058,0.50672 -3.33854,0.96436 -3.33854,0.96436c0,0 3.00558,-0.55962 3.55025,-0.81901c1.36837,-0.65168 3.79583,-2.75579 3.79583,-2.75579c0,0 -1.23564,2.71107 -4.32632,3.46248z" data-paper-data="{&quot;index&quot;:null}" fill="#dcdce1" stroke="none" stroke-width="0" stroke-linecap="butt"/><path d="M243.67187,173.02638c0.42288,0.05033 1.19488,0.05725 1.19488,0.05725c0,0 -0.56178,-0.08062 -0.90685,-0.18823c-0.34507,-0.10761 -0.72351,-0.3202 -0.72351,-0.3202c0,0 0.42748,-0.00364 0.61845,-0.0225c0.21296,-0.02103 0.65104,-0.13613 0.65104,-0.13613c0,0 -0.46532,-0.09022 -0.74216,-0.20782c-0.27684,-0.1176 -0.66504,-0.38996 -0.66504,-0.38996c0,0 0.32985,-0.02277 0.53954,-0.05009c0.2097,-0.02731 0.39053,-0.07107 0.39053,-0.07107c0,0 -0.25468,-0.05295 -0.39976,-0.12938c-0.14508,-0.07643 -0.31161,-0.24536 -0.31161,-0.24536c0,0 0.24372,0.00223 0.35238,-0.01237c0.13803,-0.01855 0.40897,-0.08993 0.40897,-0.08993c0,0 -0.39752,-0.13932 -0.52808,-0.21372c-0.0971,-0.05533 -0.283,-0.20007 -0.283,-0.20007l0.4125,0.03108l-0.28642,-0.37628l0.69534,0.23868l-0.29892,0.27357l0.59712,0.26978l-0.46813,0.23439c0,0 0.14522,0.12871 0.25378,0.18619c0.10855,0.05748 0.32359,0.1195 0.32359,0.1195c0,0 -0.21962,0.10008 -0.37015,0.1154c-0.15053,0.01532 -0.5786,-0.01883 -0.5786,-0.01883l0.77878,0.27767l1.05235,0.18502c0,0 -0.31507,0.17366 -0.53316,0.24167c-0.21809,0.06801 -0.69159,0.14027 -0.69159,0.14027c0,0 0.49228,0.10228 0.80982,0.15374c0.31754,0.05146 0.90746,0.12452 0.90746,0.12452c0,0 -0.48958,0.26495 -0.83359,0.30141c-0.34401,0.03645 -1.13766,-0.09252 -1.13766,-0.09252c0,0 -0.6004,-0.22996 -0.22831,-0.18568z" data-paper-data="{&quot;index&quot;:null}" fill="#dcdce1" stroke="none" stroke-width="0" stroke-linecap="butt"/><path d="M242.48474,172.1667c0.47618,1.42479 0.4,3.15 0.4,3.15c0,0 1.159,3.72333 -0.05,5.68333c-1.029,1.667 -3.651,1.626 -5.6,1.8c-1.574,0.141 -3.742,0.288 -4.65,-0.95c-1.073,-1.465 -0.464,-4.50967 -0.65,-6.31667c-0.069,-0.682 -0.42521,-1.54975 -0.7,-2.75c-0.27479,-1.20025 -0.679,-2.37633 -0.35,-3.05c0.146,-0.568 1.10402,0.5208 1.8,1.06667c0.69598,0.54587 1.75033,1.42 2.43333,1.6c0.8,0.15 0.98833,0.308 1.78333,0.05c0.47,-0.152 3.27533,-3.76833 3.78333,-3.63333c0.603,0.161 1.32382,1.92521 1.8,3.35z" data-paper-data="{&quot;index&quot;:null}" fill="#f8b820" stroke="none" stroke-width="1" stroke-linecap="round"/><path d="M233.16124,179.35005c-0.0106,0.621 0.0515,1.319 -0.1765,1.85c-0.1398,0.324 -0.5944,0.61 -0.7059,0.3c-0.3282,-0.913 -0.2887,-2.023 -0.2823,-3.05c-0.0064,-0.564 -0.0149,-1.272 0.2823,-1.65c0.1991,-0.254 0.6544,-0.018 0.7765,0.3c0.2266,0.691 0.1186,1.503 0.1059,2.25z" data-paper-data="{&quot;index&quot;:null}" fill="#ffffff" stroke="none" stroke-width="0.86553" stroke-linecap="round"/><path d="M241.58317,174.65934c-0.11837,0.07265 -1.26277,-0.75934 -2.00088,-1.11208c-0.73811,-0.35274 -1.60174,-0.44973 -1.62826,-0.63523c-0.0653,-0.4913 0.5908,-1.02897 0.8122,-1.46671c0.2324,-0.45929 1.5299,-1.87092 1.8029,-1.76935c0.3074,0.1168 1.25023,4.83723 1.01403,4.98336z" data-paper-data="{&quot;index&quot;:null}" fill="#ffffff" stroke="none" stroke-width="0.85185" stroke-linecap="butt"/><path d="M237.71804,182.50482c-0.2622,0.437 -0.8782,0.3763 -1.3333,0.3668c-0.4907,-0.0272 -1.2364,0.0661 -1.4222,-0.4716c-0.4187,-1.2126 -0.1218,-2.6527 -0.0889,-3.9303c0.0142,-0.5481 -0.016,-1.133 0.2222,-1.6245c0.0418,-0.1887 0.2898,-0.1059 0.4889,-0.1048c0.2382,0.001 0.4524,0.0167 0.7111,0.1048c0.2667,0.0933 0.5413,0.2348 0.7556,0.4192c0.2942,0.2788 0.6302,0.5911 0.7555,0.9957c0.1929,0.6068 0.1911,1.2902 0.1778,1.9389c-0.016,0.7966 0.1129,1.6728 -0.2667,2.3058z" data-paper-data="{&quot;index&quot;:null}" fill="#ffffff" stroke="none" stroke-width="0.97175" stroke-linecap="round"/><path d="M243.19884,179.7334c-0.257,0.28 -1.41933,1.1 -1.13333,1.25c0.564,0.297 1.5,0.26667 1.5,0.26667c0,0 -0.69267,0.114 -1.36667,0.65c-0.12604,0.10016 1.4484,0.93232 1.4484,0.93232l-1.53674,0.39554l0.98138,0.94868c0,0 -2.67816,-0.41876 -3.04304,-0.22654c-0.40268,0.2119 -1.23734,0.68037 -2.10702,0.8659c-0.86968,0.18553 -2.08302,0.30186 -2.91571,0.2591c-0.75581,-0.0667 -1.83871,-0.39865 -2.66818,-1.1875c-0.514,-0.327 -0.87942,-1.65983 -0.44242,-1.97083c0.763,-0.543 2.08333,-0.31967 2.93333,0.13333c0.75158,0.40055 1.74833,0.48233 2.58333,0.33333c0.82,-0.134 1.428,-0.42033 2.1,-0.93333c1.016,-0.775 4.00567,-2.08667 3.66667,-1.71667z" data-paper-data="{&quot;index&quot;:null}" fill="#f8f8f8" stroke="none" stroke-width="1" stroke-linecap="round"/><path d="M232.60961,181.74728c0.35891,0 0.39298,0.07533 0.62833,0.19695c0.23536,0.12162 -0.26941,0.70806 -0.62833,0.70806c-0.35892,0 -1.038,-0.58644 -0.80265,-0.70806c0.23535,-0.12161 0.44373,-0.19695 0.80265,-0.19695z" data-paper-data="{&quot;index&quot;:null}" fill="#101010" stroke="none" stroke-width="1" stroke-linecap="butt"/><path d="M235.44874,184.75534l1.7512,-0.778" data-paper-data="{&quot;index&quot;:null}" fill="none" stroke="#cccccc" stroke-width="0.36953" stroke-linecap="round"/><path d="M235.80324,179.66255c0.105,0.241 0.1709,0.5722 0.1709,0.9384c0,0.3662 -0.0659,0.6974 -0.1709,0.9384c-0.1062,0.2399 -0.2516,0.3885 -0.413,0.3885c-0.1613,0 -0.3067,-0.1486 -0.4129,-0.3885c-0.1051,-0.241 -0.1709,-0.5722 -0.1709,-0.9384c0,-0.3662 0.0658,-0.6974 0.1709,-0.9384c0.1062,-0.2399 0.2516,-0.3885 0.4129,-0.3885c0.1614,0 0.3068,0.1486 0.413,0.3885z" fill="#4088ed" stroke="none" stroke-width="1.0615" stroke-linecap="butt"/><path d="M235.68064,179.94043c0.0711,0.1501 0.1146,0.3571 0.1146,0.5859c0,0.2288 -0.0435,0.4358 -0.1146,0.586c-0.0706,0.1501 -0.1682,0.243 -0.2762,0.243c-0.108,0 -0.2055,-0.0929 -0.2761,-0.243c-0.0711,-0.1502 -0.1146,-0.3572 -0.1146,-0.586c0,-0.2288 0.0435,-0.4358 0.1146,-0.5859c0.0706,-0.1502 0.1681,-0.243 0.2761,-0.243c0.108,0 0.2056,0.0928 0.2762,0.243z" fill="#000000" stroke="none" stroke-width="0.47368" stroke-linecap="butt"/><path d="M235.46014,180.04322c0.0323,0.0615 0.0524,0.1462 0.0524,0.24c0,0.0938 -0.0201,0.1785 -0.0524,0.24c-0.0317,0.0614 -0.0763,0.0996 -0.1255,0.0996c-0.0491,0 -0.0938,-0.0382 -0.1255,-0.0996c-0.0323,-0.0615 -0.0523,-0.1462 -0.0523,-0.24c0,-0.0938 0.02,-0.1785 0.0523,-0.24c0.0317,-0.0614 0.0764,-0.0996 0.1255,-0.0996c0.0492,0 0.0938,0.0382 0.1255,0.0996z" fill="#ffffff" stroke="none" stroke-width="0.64678" stroke-linecap="butt"/><path d="M232.98444,179.64455c0.0934,0.2142 0.1519,0.5085 0.1519,0.8341c0,0.3255 -0.0585,0.6199 -0.1519,0.8341c-0.0943,0.2132 -0.2236,0.3453 -0.367,0.3453c-0.1434,0 -0.2727,-0.1321 -0.3671,-0.3453c-0.0934,-0.2142 -0.1519,-0.5086 -0.1519,-0.8341c0,-0.3256 0.0585,-0.6199 0.1519,-0.8341c0.0944,-0.2133 0.2237,-0.3454 0.3671,-0.3454c0.1434,0 0.2727,0.1321 0.367,0.3454z" fill="#4088ed" stroke="none" stroke-width="0.94355" stroke-linecap="butt"/><path d="M232.81444,179.90812c0.0631,0.1335 0.1019,0.3175 0.1019,0.5208c0,0.2034 -0.0388,0.3874 -0.1019,0.5209c-0.0627,0.1335 -0.1495,0.216 -0.2455,0.216c-0.096,0 -0.1827,-0.0825 -0.2455,-0.216c-0.0631,-0.1335 -0.1019,-0.3175 -0.1019,-0.5209c0,-0.2033 0.0388,-0.3873 0.1019,-0.5208c0.0628,-0.1335 0.1495,-0.216 0.2455,-0.216c0.096,0 0.1828,0.0825 0.2455,0.216z" fill="#000000" stroke="none" stroke-width="0.42105" stroke-linecap="butt"/><path d="M232.58514,179.99962c0.0287,0.0546 0.0465,0.1299 0.0465,0.2132c0,0.0834 -0.0178,0.1587 -0.0465,0.2133c-0.0282,0.0547 -0.0679,0.0886 -0.1116,0.0886c-0.0437,0 -0.0833,-0.0339 -0.1115,-0.0886c-0.0288,-0.0546 -0.0466,-0.1299 -0.0466,-0.2133c0,-0.0833 0.0178,-0.1586 0.0466,-0.2132c0.0282,-0.0547 0.0678,-0.0886 0.1115,-0.0886c0.0437,0 0.0834,0.0339 0.1116,0.0886z" fill="#ffffff" stroke="none" stroke-width="0.57492" stroke-linecap="butt"/><path d="M233.9679,176.14511l-2.57826,1.517l-1.5224,2.21374l1.03528,-3.08788l2.7453,-1.21972z" fill="#f8b820" stroke="none" stroke-width="1.22222" stroke-linecap="round"/><path d="M233.54914,175.62592l-2.37762,-0.30337l-2.56149,1.5427c0,0 1.64017,-2.33131 2.06882,-2.47778c0.30068,-0.10276 3.0397,0.43329 3.0397,0.43329z" fill="#f8b820" stroke="none" stroke-width="1.22222" stroke-linecap="round"/><path d="M234.04547,173.04547c0,0 -1.60784,0.81818 -1.90909,0.81818c-0.15444,0 -0.59786,-1.16834 -0.81084,-1.98157c-0.21299,-0.81322 -0.18916,-1.83661 -0.18916,-1.83661z" fill="#ffffff" stroke="none" stroke-width="0" stroke-linecap="butt"/><path d="M233.82113,174.61967c0,0 -1.23518,-0.993 -2.19829,-1.20366c-0.96311,-0.21066 -4.30931,-0.21974 -4.30931,-0.21974c0,0 3.37859,-1.08534 4.02358,-0.93734c0.39107,0.08974 3.08611,1.66831 3.08611,1.66831z" fill="#f8b820" stroke="none" stroke-width="1.22222" stroke-linecap="round"/><g stroke-width="0" stroke-linecap="butt"><path d="M238.51914,170.46548c0,0 0.89979,-0.99876 2.25159,-1.6499c1.11354,-0.53637 2.55367,-0.67803 3.3424,-0.67803c0.76881,0 1.52036,1.56924 1.88746,3.32594c0.4667,2.23335 0.44047,4.7697 0.44047,4.7697l-1.92986,-3.31452l-1.14246,0.98529l-0.9077,-1.33553c0,0 -1.21281,0.3165 -1.37499,0.3165c-0.66581,0 -0.29984,-1.87017 -0.29984,-1.87017l-1.58573,0.52439l-0.68134,-1.07368z" fill="#23d892" stroke="none"/><path d="M236.35183,172.81152c-0.56901,-0.1497 0.55212,-1.33791 1.17573,-1.80238c0.62762,-0.46747 1.67422,-0.99543 1.67422,-0.99543l-0.09788,1.34303l2.12267,-0.64193c0,0 -0.0735,0.59096 -0.08873,0.97129c-0.01523,0.38033 0.00991,0.99685 0.00991,0.99685l1.87753,-0.49643l0.09369,1.58626l0.97224,-0.60602l-0.54073,1.54223c0,0 0.2481,1.07951 -0.21371,1.21336c-0.98164,0.2845 -1.99959,-1.16536 -3.60569,-1.77581c-1.80819,-0.68727 -0.73862,-0.64032 -3.37926,-1.33501z" fill="#fd0000" stroke="none"/><g><path d="M245.51776,176.89715c0,-0.47973 0.3889,-0.86863 0.86863,-0.86863c0.47973,0 0.86863,0.3889 0.86863,0.86863c0,0.47973 -0.3889,0.86863 -0.86863,0.86863c-0.47973,0 -0.86863,-0.3889 -0.86863,-0.86863z" fill="#db7b04" stroke="none"/><path d="M247.34151,176.86641c0,0.16484 -0.49112,0.10996 -0.95512,0.10996c-0.464,0 -0.92637,0.11237 -0.92637,-0.05247c0,-0.25107 0.46238,-0.29846 0.92637,-0.29846c0.464,0 0.95512,-0.03884 0.95512,0.24097z" fill="#feeb00" stroke="#000000"/><path d="M246.43564,177.69509c0,0.18115 -0.10217,0.0693 -0.19275,0.0693c-0.09058,0 -0.22149,-0.37679 -0.22149,-0.55794c0,-0.18115 0.1884,-0.09805 0.27898,-0.09805c0.09058,0 0.13526,0.40554 0.13526,0.58669z" fill="#000000" stroke="none"/><path d="M246.96233,177.11539c0.04762,0 0.14371,-0.0695 0.14371,0.05749c0,0.12699 -0.09608,0.37366 -0.14371,0.37366c-0.04763,0 -0.08623,-0.07421 -0.08623,-0.2012c0,-0.12699 0.0386,-0.22995 0.08623,-0.22995z" fill="#000000" stroke="none"/></g></g><path d="M244.35369,185.86915c-0.68447,0.5788 -0.85729,0.3191 -0.85729,0.3191l0.5215,-4.0009c0,0 1.1105,0.33823 1.23337,0.75053c0.27343,1.1188 0.09232,2.09037 -0.89758,2.93127z" data-paper-data="{&quot;index&quot;:null}" fill="#f8b820" stroke="none" stroke-width="0.49091" stroke-linecap="round"/><g><g><path d="M249.32597,185.5767l0.82257,0.06027c0,0 1.21027,2.57255 1.5528,3.97715c0.28574,1.17172 0.44281,2.94554 0.42163,3.66679c-0.03658,1.24531 -0.64783,1.00372 -0.64783,1.00372c0,0 0.1958,-3.26288 -0.0859,-4.55878c-0.2008,-0.9239 -2.06326,-4.14915 -2.06326,-4.14915z" fill="#989898" stroke="#989898" stroke-width="0" stroke-linecap="round"/><path d="M247.96154,187.34032c0.1282,-0.5475 0.22089,-0.97904 0.661,-1.3918c0.62566,-0.58676 1.0143,-0.3706 1.3017,0.0716c0.6047,0.931 1.18892,2.71772 1.18892,2.71772l-3.07133,1.67835c0,0 -0.27559,-2.23638 -0.08029,-3.07588z" fill="#f82020" stroke="none" stroke-width="1.13968" stroke-linecap="round"/><path d="M251.06416,188.66044c0,0 0.16074,0.11498 0.36908,1.08718c0.20834,0.97219 0.3563,2.2737 0.3662,3.3696c0.0034,0.4394 0.0462,1.1907 -0.2996,1.228c-0.5887,0.0636 -1.80223,-0.2394 -2.25453,-0.7857c-0.4494,-0.5432 -1.32878,-2.55494 -1.20728,-3.28084c0.2301,-1.2914 3.02614,-1.61824 3.02614,-1.61824z" fill="#f8f8f8" stroke="none" stroke-width="1.15102" stroke-linecap="round"/><path d="M246.13159,187.47373c0,-0.4286 -0.31534,-1.18462 0.147,-1.62523c0.52518,-0.5005 0.91503,0.17047 0.91503,0.17047c0,0 0.17645,-0.62036 0.57415,-0.37554c0.38614,0.2377 0.37435,0.51988 0.41167,0.8239c0.06271,0.51087 -0.20575,1.36812 -0.20575,1.54542c0,0.88656 0.25274,2.20599 -0.21234,2.20599c-0.12337,0 -0.70432,-0.2382 -0.70432,-0.2382c0,0 -0.62115,0.49077 -0.81155,0.11046c-0.247,-0.49336 -0.1139,-2.24943 -0.1139,-2.61727z" fill="#ffffff" stroke="none" stroke-width="0" stroke-linecap="butt"/></g><path d="M248.44444,188.35044c0,1.38071 -0.10332,2.16667 -0.45299,2.16667c-0.12745,0 -0.00855,-0.7304 -0.00855,-2.11111c0,-1.38071 0.10332,-2.44444 0.23077,-2.44444c0.34967,0 0.23077,1.00818 0.23077,2.38889z" fill="#424242" stroke="none" stroke-width="0" stroke-linecap="butt"/></g></g></g></svg>