<svg version="1.1" xmlns="http://www.w3.org/2000/svg" xmlns:xlink="http://www.w3.org/1999/xlink" width="26.44778" height="23.88197" viewBox="0,0,26.44778,23.88197"><defs><radialGradient cx="242.54166" cy="182.56189" r="3.59005" gradientUnits="userSpaceOnUse" id="color-1"><stop offset="0" stop-color="#bf4c00"/><stop offset="1" stop-color="#bf4c00" stop-opacity="0"/></radialGradient><radialGradient cx="237.50324" cy="182.62766" r="3.59002" gradientUnits="userSpaceOnUse" id="color-2"><stop offset="0" stop-color="#bf4c00"/><stop offset="1" stop-color="#bf4c00" stop-opacity="0"/></radialGradient><radialGradient cx="242.67326" cy="177.56905" r="3.59005" gradientUnits="userSpaceOnUse" id="color-3"><stop offset="0" stop-color="#bf4c00"/><stop offset="1" stop-color="#bf4c00" stop-opacity="0"/></radialGradient><radialGradient cx="237.37164" cy="177.50325" r="3.59005" gradientUnits="userSpaceOnUse" id="color-4"><stop offset="0" stop-color="#bf4c00"/><stop offset="1" stop-color="#bf4c00" stop-opacity="0"/></radialGradient><radialGradient cx="240.13484" cy="183.29282" r="4.96719" gradientUnits="userSpaceOnUse" id="color-5"><stop offset="0" stop-color="#bf4c00"/><stop offset="1" stop-color="#bf4c00" stop-opacity="0"/></radialGradient><radialGradient cx="240.06907" cy="176.64797" r="4.96719" gradientUnits="userSpaceOnUse" id="color-6"><stop offset="0" stop-color="#bf4c00"/><stop offset="1" stop-color="#bf4c00" stop-opacity="0"/></radialGradient><radialGradient cx="243.62176" cy="180.06907" r="4.96719" gradientUnits="userSpaceOnUse" id="color-7"><stop offset="0" stop-color="#bf4c00"/><stop offset="1" stop-color="#bf4c00" stop-opacity="0"/></radialGradient><radialGradient cx="236.58216" cy="180.06907" r="4.96719" gradientUnits="userSpaceOnUse" id="color-8"><stop offset="0" stop-color="#bf4c00"/><stop offset="1" stop-color="#bf4c00" stop-opacity="0"/></radialGradient><radialGradient cx="239.97037" cy="180.0033" r="3.66549" gradientUnits="userSpaceOnUse" id="color-9"><stop offset="0" stop-color="#ffd600"/><stop offset="1" stop-color="#ffd600" stop-opacity="0"/></radialGradient><radialGradient cx="239.97037" cy="180.0033" r="3.66549" gradientUnits="userSpaceOnUse" id="color-10"><stop offset="0" stop-color="#ffd600"/><stop offset="1" stop-color="#ffd600" stop-opacity="0"/></radialGradient><radialGradient cx="239.97037" cy="180.0033" r="3.66549" gradientUnits="userSpaceOnUse" id="color-11"><stop offset="0" stop-color="#ffd600"/><stop offset="1" stop-color="#ffd600" stop-opacity="0"/></radialGradient><radialGradient cx="239.97037" cy="180.0033" r="3.66549" gradientUnits="userSpaceOnUse" id="color-12"><stop offset="0" stop-color="#ffd600"/><stop offset="1" stop-color="#ffd600" stop-opacity="0"/></radialGradient><radialGradient cx="239.97037" cy="180.0033" r="3.66549" gradientUnits="userSpaceOnUse" id="color-13"><stop offset="0" stop-color="#ffd600"/><stop offset="1" stop-color="#ffd600" stop-opacity="0"/></radialGradient></defs><g transform="translate(-227.20702,-167.73335)"><g data-paper-data="{&quot;isPaintingLayer&quot;:true}" fill-rule="nonzero" stroke-linecap="butt" stroke-linejoin="miter" stroke-miterlimit="10" stroke-dasharray="" stroke-dashoffset="0" style="mix-blend-mode: normal"><g stroke="none" stroke-width="0"><path d="M245.9914,184.14913l-1.87482,1.87482l-5.26037,-4.07628l3.01402,-3.10378z" data-paper-data="{&quot;index&quot;:null}" fill="url(#color-1)"/><path d="M238.17468,178.90969l3.01402,3.10378l-5.26037,4.07629l-1.87482,-1.87483z" data-paper-data="{&quot;index&quot;:null}" fill="url(#color-2)"/><path d="M242.00181,181.28703l-3.01403,-3.10378l5.26037,-4.07629l1.87482,1.87482z" data-paper-data="{&quot;index&quot;:null}" fill="url(#color-3)"/><path d="M233.92192,175.916l1.87482,-1.87482l5.26037,4.07628l-3.01403,3.10378z" fill="url(#color-4)"/><path d="M240.00539,191.61532l-3.16007,-11.81347l6.44747,-0.09462z" data-paper-data="{&quot;index&quot;:null}" fill="url(#color-5)"/><path d="M243.22701,180.23355l-6.44747,-0.09459l3.15583,-12.40561z" data-paper-data="{&quot;index&quot;:null}" fill="url(#color-6)"/><path d="M240.03617,183.22703l0.09462,-6.44749l13.52401,3.16007z" data-paper-data="{&quot;index&quot;:null}" fill="url(#color-7)"/><path d="M227.20702,180.00542l12.86612,-3.22587l0.09462,6.44747z" fill="url(#color-8)"/><path d="M236.30489,180.0033c0,-2.02438 1.6411,-3.66548 3.66548,-3.66548c2.02438,0 3.66549,1.6411 3.66549,3.66548c0,2.02438 -1.64111,3.66548 -3.66549,3.66548c-2.02438,0 -3.66548,-1.6411 -3.66548,-3.66548z" fill="#bf4c00"/><path d="M236.30489,180.0033c0,-2.02438 1.6411,-3.66548 3.66548,-3.66548c2.02438,0 3.66549,1.6411 3.66549,3.66548c0,2.02438 -1.64111,3.66548 -3.66549,3.66548c-2.02438,0 -3.66548,-1.6411 -3.66548,-3.66548z" fill="url(#color-9)"/><path d="M236.30489,180.0033c0,-2.02438 1.6411,-3.66548 3.66548,-3.66548c2.02438,0 3.66549,1.6411 3.66549,3.66548c0,2.02438 -1.64111,3.66548 -3.66549,3.66548c-2.02438,0 -3.66548,-1.6411 -3.66548,-3.66548z" fill="url(#color-10)"/><path d="M236.30489,180.0033c0,-2.02438 1.6411,-3.66548 3.66548,-3.66548c2.02438,0 3.66549,1.6411 3.66549,3.66548c0,2.02438 -1.64111,3.66548 -3.66549,3.66548c-2.02438,0 -3.66548,-1.6411 -3.66548,-3.66548z" fill="url(#color-11)"/><path d="M236.30489,180.0033c0,-2.02438 1.6411,-3.66548 3.66548,-3.66548c2.02438,0 3.66549,1.6411 3.66549,3.66548c0,2.02438 -1.64111,3.66548 -3.66549,3.66548c-2.02438,0 -3.66548,-1.6411 -3.66548,-3.66548z" fill="url(#color-12)"/><path d="M236.30489,180.0033c0,-2.02438 1.6411,-3.66548 3.66548,-3.66548c2.02438,0 3.66549,1.6411 3.66549,3.66548c0,2.02438 -1.64111,3.66548 -3.66549,3.66548c-2.02438,0 -3.66548,-1.6411 -3.66548,-3.66548z" fill="url(#color-13)"/></g><path d="M235.90964,180c0,-2.25906 1.8313,-4.09036 4.09036,-4.09036c2.25906,0 4.09036,1.8313 4.09036,4.09036c0,2.25906 -1.8313,4.09036 -4.09036,4.09036c-2.25906,0 -4.09036,-1.8313 -4.09036,-4.09036z" fill="none" stroke="#000000" stroke-width="0.25"/></g></g></svg>