<svg version="1.1" xmlns="http://www.w3.org/2000/svg" xmlns:xlink="http://www.w3.org/1999/xlink" width="441.72602" height="29.56363" viewBox="0,0,441.72602,29.56363"><g transform="translate(-19.36813,-7.36367)"><g data-paper-data="{&quot;isPaintingLayer&quot;:true}" fill="#d10f0f" fill-rule="nonzero" stroke="none" stroke-linecap="butt" stroke-linejoin="miter" stroke-miterlimit="10" stroke-dasharray="" stroke-dashoffset="0" style="mix-blend-mode: normal"><path d="M222.42693,36.46797v-28.93873h8.5218v9.99077h5.6812v-9.99077h8.52181v28.93873h-8.52181v-9.99077h-5.6812v9.99077z" stroke-width="0.26459"/><path d="M247.99233,36.46797l7.10151,-28.93873h12.7827l7.10151,28.93873h-8.23774l-1.42031,-5.51217h-7.95368l-1.13624,5.51217zM263.61562,23.37665l-2.13044,-8.6127l-2.13046,8.6127z" stroke-width="0.26459"/><path d="M280.09111,36.46797c-0.94686,-0.22968 -1.70436,-0.45937 -2.27248,-0.68903l1.13624,-6.89017l3.40872,0.3445c2.65123,0.22967 4.73434,0.22967 6.24933,0c0.75749,-0.45933 1.13624,-1.14835 1.13624,-2.06703c-0.18937,-0.91868 -1.89373,-1.37803 -5.1131,-1.37803c-2.84059,-0.45935 -4.829,-1.72255 -5.96525,-3.7896c-0.56812,-1.60772 -0.85218,-3.44508 -0.85218,-5.51213c0,-3.21542 0.94687,-5.62698 2.84061,-7.23467c1.32562,-1.14838 3.69279,-1.72257 7.10149,-1.72257c3.40874,0 6.81745,0.34452 10.22616,1.03353l-1.13624,6.54567c-3.97684,-0.22967 -6.72274,-0.3445 -8.23773,-0.3445c-1.32562,0.22967 -1.98843,0.80385 -1.98843,1.72253c-0.18937,1.60772 0.85218,2.41157 3.12467,2.41157c3.21934,0 5.5865,0.68902 7.10149,2.06703c1.13625,1.14835 1.70438,3.10057 1.70438,5.85663c0,2.3886 -0.47343,4.45565 -1.42032,6.20117c-0.94686,2.06705 -3.31402,3.33025 -7.10149,3.7896c-3.21934,0.22967 -6.53337,0.11483 -9.9421,-0.3445z" stroke-width="0.26459"/><path d="M315.93949,36.46797v-28.93873h19.88418v8.2682h-11.36239v2.06707h11.36239v8.2682h-11.36239v10.33527z" stroke-width="0.26459"/><path d="M338.66429,36.46797l7.10149,-28.93873h12.78272l7.10149,28.93873h-8.23773l-1.42032,-5.51217h-7.95368l-1.13624,5.51217zM354.28759,23.37665l-2.13044,-8.6127l-2.13046,8.6127z" stroke-width="0.26459"/><path d="M368.4906,36.46797v-28.93873h8.52181v20.6705h11.36239v8.26823z" stroke-width="0.26459"/><path d="M391.21539,36.46797v-28.93873h8.52181v20.6705h11.36239v8.26823z" stroke-width="0.26459"/><path d="M413.94021,36.46797v-28.93873h19.88418v8.2682h-11.36239v2.06707h11.36239v8.2682h-11.36239v2.06703h11.36239v8.26823z" stroke-width="0.26459"/><path d="M436.66499,36.46797v-28.93873h9.65805l6.24933,12.91907v-12.91907h8.52178v28.93873h-9.65803l-6.24933,-12.50567v12.50567z" stroke-width="0.26459"/><g stroke-width="0.26458"><path d="M19.36813,35.7706v-28.40693h7.80752v13.18893l4.74028,-13.18893h8.3652l-5.85564,14.20347l5.85564,14.20347h-8.3652l-4.74028,-13.18893v13.18894z"/><path d="M43.06952,35.7706v-28.40693h9.48056l6.13448,12.68167v-12.68166h8.3652v28.40693h-9.48056l-6.13448,-12.27585v12.27586z"/><path d="M69.83816,23.93438v-16.57071h7.80752v16.57071c0,2.70542 0.92947,4.05813 2.7884,4.05813h0.55768c1.67304,0 2.50956,-1.35271 2.50956,-4.05813v-16.57071h7.24984v16.57071c0,8.11626 -3.34608,12.1744 -10.03824,12.1744c-7.24984,0 -10.87476,-4.05813 -10.87476,-12.1744z"/><path d="M93.53956,21.90531c0,-4.50903 1.11536,-8.0599 3.34608,-10.6526c2.23072,-2.5927 5.29796,-3.88904 9.20172,-3.88904c3.34608,0 5.66974,0.11273 6.971,0.33818l-2.50956,9.46898l-0.55768,-0.67636c-1.11536,-0.9018 -2.50956,-1.01453 -4.1826,-0.33817c-1.85894,1.35271 -3.25313,2.81815 -4.18259,4.39631c-0.92946,1.35271 -1.11536,3.0436 -0.55768,5.07267l0.55768,0.67636c0.92946,1.57816 2.50955,2.02907 4.74027,1.35272c1.85894,-1.35271 3.25314,-2.81815 4.1826,-4.39631l3.34609,11.83622c-1.30125,0.90181 -3.90376,1.35271 -7.80752,1.35271c-3.90376,0 -6.971,-1.46543 -9.20172,-4.39631c-2.23072,-2.93088 -3.34608,-6.31265 -3.34608,-10.14534z"/><path d="M116.68327,35.7706v-28.40693h7.80752v13.18893l4.74028,-13.18893h8.3652l-5.85564,14.20347l5.85564,14.20347h-8.3652l-4.74028,-13.18893v13.18894z"/><path d="M140.38467,35.7706v-28.40693h8.3652v20.29067h11.15359v8.11626z"/><path d="M162.69187,35.7706v-28.40693h19.5188v8.11627h-11.1536v2.02906h11.1536v8.11626h-11.1536v2.02907h11.1536v8.11626z"/><path d="M187.22979,35.7706c-0.92946,-0.22545 -1.67304,-0.4509 -2.23072,-0.67636l1.11536,-6.76355l3.34608,0.33817c2.60251,0.22545 4.64733,0.22545 6.13448,0c0.74357,-0.4509 1.11536,-1.12726 1.11536,-2.02907c-0.18589,-0.9018 -1.85893,-1.35271 -5.01912,-1.35271c-2.7884,-0.4509 -4.74028,-1.69089 -5.85564,-3.71995c-0.55768,-1.57816 -0.83652,-3.38178 -0.83652,-5.41085c0,-3.15632 0.92946,-5.52357 2.7884,-7.10173c1.30125,-1.12726 3.62492,-1.69088 6.971,-1.69088c3.34608,0 6.69216,0.33818 10.03824,1.01453l-1.11536,6.42538c-3.90376,-0.22545 -6.59921,-0.33818 -8.08636,-0.33818c-1.30125,0.22545 -1.95188,0.78909 -1.95188,1.69089c-0.18589,1.57816 0.83652,2.36725 3.06724,2.36725c3.16019,0 5.48386,0.67636 6.971,2.02906c1.11536,1.12726 1.67303,3.0436 1.67303,5.74902c0,2.3447 -0.46473,4.37376 -1.3942,6.0872c-0.92946,2.02907 -3.25313,3.26906 -6.971,3.71996c-3.16019,0.22545 -6.41332,0.11272 -9.7594,-0.33818z"/></g></g></g></svg>