<svg version="1.1" xmlns="http://www.w3.org/2000/svg" xmlns:xlink="http://www.w3.org/1999/xlink" width="37.46893" height="33.9591" viewBox="0,0,37.46893,33.9591"><g transform="translate(-229.81458,-161.99858)"><g data-paper-data="{&quot;isPaintingLayer&quot;:true}" fill-rule="nonzero" stroke-linejoin="miter" stroke-miterlimit="10" stroke-dasharray="" stroke-dashoffset="0" style="mix-blend-mode: normal"><path d="M235.0359,181.57194c-0.44076,-0.20126 -0.41938,-0.98814 -0.09516,-1.35272c0.395,-0.43441 1.24113,-0.36536 1.83887,-0.44362c0.43792,-0.05541 0.91188,-0.01276 1.33662,0.03344c0.91862,0.10084 1.96562,0.03066 2.70647,0.50772c0.33996,0.22632 0.13498,0.94761 -0.24819,1.07861c-0.61818,0.21099 -1.34676,-0.28887 -2.0288,-0.33395c-0.51772,-0.03424 -1.03468,0.01687 -1.53332,0.08965c-0.67445,0.09786 -1.38722,0.69016 -1.9765,0.42086z" data-paper-data="{&quot;index&quot;:null}" fill="#f8b820" stroke="none" stroke-width="0.65663" stroke-linecap="round"/><g data-paper-data="{&quot;index&quot;:null}" stroke-linecap="round"><path d="M230.6561,183.11325c-0.34931,-0.48286 -0.58692,-1.06766 -0.66662,-1.73851c-0.09439,-0.79893 -0.05708,-1.58001 0.52016,-1.87355c1.01649,-0.51778 1.96013,-0.08016 2.88826,0.40666c0.14076,-0.00349 0.29665,-0.7354 0.67986,-0.82861c0.65813,-0.16007 0.77088,0.81451 0.77088,0.81451c0,0 -0.00441,-0.42674 0.07888,-0.84c0.08211,-0.40736 0.45517,-0.55909 0.6431,-0.40892c0.26417,0.21141 0.24016,0.27734 0.4113,0.93403c0.17114,0.65669 0.2404,0.99513 0.32275,1.79149c0.08235,0.79637 0.06937,0.54973 0.01247,1.0247c-0.02937,0.13429 -0.03528,0.37134 -0.25158,0.49398c-0.42604,0.24154 -0.79929,-0.97749 -0.79929,-0.97749c0,0 0.17333,1.18064 -0.01173,1.28918c-0.33344,0.19557 -0.49609,-0.02884 -0.54041,0.04256c-0.06641,0.10699 -0.29022,-0.63261 -0.33894,-0.50218c-0.11219,0.3003 -0.32556,0.72364 -0.53861,0.84303c-0.60518,0.31367 -1.82557,1.25959 -2.19609,0.8822c-0.78964,-0.73794 1.27474,-1.37887 1.17939,-1.45102c-0.09656,-0.07275 -0.66676,0.56181 -1.48847,0.67918c-0.41981,0.0064 -0.35731,-0.18586 -0.67531,-0.58126z" fill="#a8c8d8" stroke="none" stroke-width="0.67216"/><path d="M234.37658,182.84094c0,0 -0.46333,-1.00401 -0.64579,-1.62425c-0.18247,-0.62024 -0.2231,-1.29641 -0.2231,-1.29641" fill="none" stroke="#707070" stroke-width="0.25"/></g><g data-paper-data="{&quot;index&quot;:null}" stroke="none" stroke-width="1" stroke-linecap="round"><path d="M249.33587,185.86863c1.9173,-0.42717 4.489,0.24247 6.20231,1.51175c2.09778,0.54346 6.41508,2.9167 6.42053,4.23081c0.37811,1.39044 2.79974,1.75782 2.52091,2.9841c-0.33453,0.42093 -2.11907,-0.75953 -2.53373,-0.63995c-0.49471,0.14515 2.02418,1.84793 1.07133,1.90514c-1.49879,0.08999 -4.71282,0.36089 -7.18562,-0.71539c-2.4728,-1.07629 -6.69969,-1.64679 -7.2474,-3.79606c-0.23164,-0.91005 1.05674,-1.62745 1.19367,-2.55683c0.14356,-0.97216 -1.3415,-2.72289 -0.44199,-2.92358z" data-paper-data="{&quot;index&quot;:null}" fill="#f8f8f8"/><path d="M241.32555,184.65736c-0.72181,-0.83276 -1.56944,-1.504 -0.30327,-1.26116c5.06563,0.97047 10.38153,2.30119 14.99677,4.041c1.14129,0.43121 -2.93188,-0.3046 -3.63167,0.247c-0.39872,0.31572 1.79692,0.95819 1.38468,1.51252c-0.75053,1.15557 -2.94596,0.74765 -3.7101,1.90721c-0.58318,0.88638 1.6328,2.97304 0.76894,2.28931c-4.79337,-2.56922 -6.61957,-5.40377 -9.50536,-8.73587z" data-paper-data="{&quot;index&quot;:null}" fill="#e2a026"/></g><g data-paper-data="{&quot;index&quot;:null}" stroke="none" stroke-width="1" stroke-linecap="round"><path d="M249.84547,181.21216c1.53456,-1.22624 4.42553,-0.92994 6.93899,-1.37599c1.44625,0.26859 6.34092,-0.19051 6.92327,0.98753c0.95065,1.08285 3.28738,0.34871 3.57578,1.57278c-0.11553,0.52512 -2.23728,0.24892 -2.55721,0.53855c-0.3806,0.34778 2.63031,0.77047 1.79953,1.24056c-1.30678,0.73944 -4.07483,2.39515 -6.76904,2.51497c-2.69421,0.11982 -6.74182,1.46478 -8.17828,-0.22518c-0.60799,-0.71569 0.23409,-1.92626 -0.05131,-2.82127c-0.29824,-0.93636 -2.40155,-1.85641 -1.68174,-2.43196z" data-paper-data="{&quot;index&quot;:null}" fill="#f8f8f8"/><path d="M242.11772,183.72743c-1.01433,-0.43086 -2.0707,-0.66134 -0.82662,-0.9996c4.97679,-1.35424 10.33669,-2.49487 15.24698,-2.96012c1.21468,-0.11417 -2.76748,1.01474 -3.1537,1.81774c-0.21942,0.45881 2.03518,0.0711 1.90847,0.75019c-0.16639,1.36783 -2.31774,1.96615 -2.4946,3.34354c-0.13435,1.05248 2.51586,1.9166 1.43943,1.68203c-4.31192,0.1242 -8.06351,-1.90872 -12.11997,-3.63377z" data-paper-data="{&quot;index&quot;:null}" fill="#eda725"/></g><path d="M237.82817,184.84323c-0.34452,0.37548 0.16264,1.16745 -0.22699,1.4732c-0.40096,0.3105 -1.17567,0.29448 -1.45157,-0.08129c-0.43793,-0.58393 -0.40559,-1.46176 -0.19352,-2.13025c0.12503,-0.40929 0.58472,-0.66542 1.02622,-0.77342c0.78949,-0.19422 1.67471,-0.37584 2.43961,-0.1157c0.29935,0.10327 0.32671,0.7564 0.09993,1.00264c-0.40393,0.44044 -1.28655,0.18287 -1.69367,0.62482z" fill="#e88820" stroke="none" stroke-width="0.49091" stroke-linecap="round"/><path d="M240.73956,184.44674c-1.00968,-0.16952 -1.88019,-0.19286 -2.22513,-1.16473c-0.23635,-0.67049 0.97822,-2.51263 1.38885,-3.08867c0.37555,-0.53115 0.72154,-1.18009 1.3155,-1.44563c0.59302,-0.26436 1.33078,-0.08745 1.99469,0.02134c0.15974,0.01859 0.34824,0.07732 0.35934,0.34248c0.04466,1.06132 -0.06383,2.13642 -0.25452,3.18066c-0.10645,0.58281 -0.07336,1.31216 -0.51154,1.71047c-0.37898,0.33614 -1.0575,0.61359 -2.06718,0.44407z" data-paper-data="{&quot;index&quot;:null}" fill="#f8b820" stroke="none" stroke-width="0.49091" stroke-linecap="round"/><path d="M245.59955,182.32903c-0.28578,-0.41505 -0.59991,-0.8288 -0.97712,-1.18505c-0.49691,-0.46934 -1.35889,-0.66349 -1.62465,-1.26018c-0.16456,-0.37 0.22481,-1.01083 0.62193,-0.91553c0.85361,0.21866 1.51425,1.03394 2.21294,1.6388c0.32274,0.27995 0.67636,0.59841 0.93358,0.95713c0.34917,0.49143 0.97525,1.06476 0.92544,1.64979c-0.04676,0.48565 -0.60908,1.0365 -1.05639,0.85025c-0.5982,-0.24886 -0.64876,-1.17422 -1.03573,-1.73521z" data-paper-data="{&quot;index&quot;:null}" fill="#f8b820" stroke="none" stroke-width="0.65663" stroke-linecap="round"/><g data-paper-data="{&quot;index&quot;:null}" stroke-linecap="round"><path d="M248.48414,188.32333c-0.50615,0.03579 -0.60458,0.21238 -0.88541,-0.09974c-0.47282,-0.68221 -0.39542,-1.53181 -0.51443,-1.55312c-0.11774,-0.02083 0.81642,1.92847 -0.26162,1.85148c-0.52867,-0.01496 -0.66522,-1.55296 -0.84686,-2.20996c-0.05737,-0.23739 0.10786,-0.68174 0.25171,-0.96822c0.06248,-0.12442 -0.63194,0.21451 -0.59867,0.09306c0.0222,-0.08105 -0.25293,-0.04766 -0.33634,-0.42512c-0.04629,-0.20948 0.93711,-0.8854 0.93711,-0.8854c0,0 -1.14753,0.55546 -1.26021,0.07885c-0.05721,-0.24198 0.11257,-0.40753 0.19104,-0.52039c0.3095,-0.36475 0.11986,-0.20652 0.75968,-0.68778c0.63982,-0.48126 0.93504,-0.66067 1.53286,-0.98183c0.59781,-0.32116 0.62981,-0.38361 0.96447,-0.33373c0.23791,0.03564 0.3804,0.41232 0.13761,0.74957c-0.24631,0.34213 -0.56216,0.62913 -0.56216,0.62913c0,0 0.79115,-0.58018 1.12141,0.01117c0.19231,0.34433 -0.23823,0.95639 -0.14507,1.06196c0.98813,0.34932 1.95073,0.74346 2.26249,1.8408c0.1774,0.62282 -0.36984,1.1814 -1.01973,1.65557c-0.54601,0.39783 -1.13632,0.62138 -1.72788,0.6937z" fill="#ffffff" stroke="none" stroke-width="0.67216"/><path d="M248.88548,184.06125c0,0 -0.52334,0.43009 -1.10213,0.71816c-0.5788,0.28808 -1.62995,0.63125 -1.62995,0.63125" fill="none" stroke="#707070" stroke-width="0.25"/></g><path d="M241.40611,183.69711c-1.00174,0.3749 -2.4597,0.24306 -2.49169,-0.88007c-0.01455,-0.53513 0.70238,-2.48562 1.19409,-2.57791c0.47338,-0.10543 2.46879,-0.17527 2.57162,0.21204c0.13183,0.57618 -0.13705,0.83432 -0.31395,1.60474c-0.1769,0.77042 0.04169,1.2663 -0.96006,1.64121z" data-paper-data="{&quot;index&quot;:null}" fill="#f8f8f8" stroke="none" stroke-width="1" stroke-linecap="round"/><path d="M242.26561,185.89365c0.04036,0.50792 0.96569,0.67576 0.92433,1.16937c-0.04564,0.50497 -0.58484,1.06137 -1.04788,1.00762c-0.72594,-0.07686 -1.34682,-0.69834 -1.69193,-1.30874c-0.21451,-0.37027 -0.08915,-0.88135 0.13238,-1.27822c0.39538,-0.7104 0.8651,-1.48236 1.57646,-1.86544c0.27944,-0.14887 0.77642,0.27575 0.80229,0.60957c0.04752,0.59564 -0.74209,1.06668 -0.69565,1.66583z" fill="#f8b820" stroke="none" stroke-width="0.49091" stroke-linecap="round"/><path d="M243.1227,180.79552c-0.8086,0.1756 -1.7056,0.3704 -2.4815,0.0701c-0.3508,-0.1109 -1.0435,-0.6117 -0.8819,-0.9457c0.1489,-0.3079 1.2551,-0.3931 1.5828,-0.4926c0.7283,-0.2024 1.5658,-0.6497 2.2083,-0.5369c0.2693,0.0478 0.3536,-0.4173 -0.3712,0.8759c0.0269,0.3124 0.8874,0.1309 0.876,0.3712c-0.0136,0.2927 -0.5608,0.5778 -0.9325,0.658z" data-paper-data="{&quot;index&quot;:null}" fill="#f8f8f8" stroke="none" stroke-width="1" stroke-linecap="round"/><path d="M240.72843,161.99937c0.79245,-0.06456 2.53309,3.82194 2.6693,4.07199c0.23878,0.42817 0.40805,0.75458 0.62038,1.31914c0.84902,2.26044 2.98538,4.46676 2.48835,6.81033c-0.40626,1.91559 -2.90931,2.74037 -4.69154,3.54817c-1.43916,0.65283 -3.43702,1.50746 -4.70288,0.63872c-1.49656,-1.02852 -1.26334,-3.41753 -2.03558,-5.06176c-0.29032,-0.62096 -1.26211,-1.59648 -1.98279,-3.09381c-0.72068,-1.49733 -1.7927,-3.69291 -1.41044,-3.95617c0.61245,-0.4218 1.32811,0.83964 2.12938,1.24151c0.80127,0.40187 1.18793,1.09024 1.86864,1.25327c0.53088,0.12715 2.22724,-0.99844 3.26842,-1.93793c0.70899,-0.64742 1.1489,-4.78213 1.77876,-4.83345z" data-paper-data="{&quot;index&quot;:null}" fill="#f8b820" stroke="none" stroke-width="1" stroke-linecap="round"/><path d="M241.24172,163.93272c0.33052,-0.03065 0.94709,2.11437 0.99817,2.4121c0.09659,0.3921 0.59338,1.88764 0.33096,2.16262c-0.26566,0.27632 -0.78857,0.10466 -1.15866,-0.00022c-0.28954,-0.08539 -1.29919,-0.18901 -1.39892,-0.44928c-0.17097,-0.44966 0.25059,-1.15132 0.3856,-1.67391c0.1303,-0.43068 0.45192,-2.33563 0.84285,-2.4513z" data-paper-data="{&quot;index&quot;:null}" fill="#ffffff" stroke="none" stroke-width="0.85185" stroke-linecap="butt"/><path d="M243.34053,175.20191l-3.16667,1.66667l2.16667,-4.41667" data-paper-data="{&quot;index&quot;:null}" fill="none" stroke="#5d2404" stroke-width="0.5" stroke-linecap="round"/><path d="M234.42387,175.28525l3.66667,2.16667l-3,0.5" data-paper-data="{&quot;index&quot;:null}" fill="none" stroke="#5d2404" stroke-width="0.5" stroke-linecap="round"/><path d="M248.86935,170.64161c-0.03689,0.21922 -1.43711,0.96373 -2.00301,1.59936c-0.39726,0.43342 -1.3236,1.2023 -0.94272,1.46417c0.82435,0.52858 3.22261,-0.21618 3.3513,0.11736c0.129,0.3345 -1.85417,0.86195 -2.6034,1.53208c-0.79696,0.71409 -1.11207,1.77072 -1.88226,2.454c-0.98081,0.87286 -2.01338,1.77733 -3.25559,2.11274c-1.29862,0.40113 -2.75666,0.33568 -4.04784,0.00446c-0.59002,-0.15164 -1.37437,-1.1287 -1.05524,-1.5598c0.5572,-0.75269 2.08612,-0.81055 2.82587,-0.75265c0.65837,0.05154 1.78415,0.10115 2.53189,-0.29925c0.73812,-0.38148 1.09837,-1.23827 1.57834,-1.93425c0.72586,-1.05167 1.21694,-2.27189 2.04567,-3.24349c0.41564,-0.48674 1.01668,-0.79831 1.60403,-1.04862c0.55024,-0.23506 1.88986,-0.66533 1.85297,-0.44611z" data-paper-data="{&quot;index&quot;:null}" fill="#f8f8f8" stroke="none" stroke-width="1" stroke-linecap="round"/><path d="M237.03362,178.01931c0.34124,-0.11121 0.39698,-0.05014 0.65843,-0.00743c0.26146,0.04271 -0.03675,0.75669 -0.37801,0.8679c-0.34125,0.11121 -1.16862,-0.23595 -0.98254,-0.42451c0.18608,-0.18855 0.36087,-0.32475 0.70212,-0.43596z" data-paper-data="{&quot;index&quot;:null}" fill="#101010" stroke="none" stroke-width="1" stroke-linecap="butt"/><g data-paper-data="{&quot;index&quot;:null}"><path d="M239.39733,187.78713l0.09835,0.81889c0,0 -2.29322,1.68045 -3.60624,2.28559c-1.09533,0.50481 -2.80625,0.99861 -3.51822,1.11592c-1.22927,0.20254 -1.10919,-0.44366 -1.10919,-0.44366c0,0 3.24,-0.43258 4.45799,-0.95719c0.86836,-0.37399 3.67732,-2.81954 3.67732,-2.81954z" fill="#989898" stroke="#989898" stroke-width="0" stroke-linecap="round"/><path d="M237.40506,186.78564c0.56192,0.021 1.00322,0.02934 1.49261,0.38228c0.6957,0.50174 0.55795,0.92457 0.17897,1.29133c-0.79799,0.77177 -2.43979,1.68729 -2.43979,1.68729l-2.23537,-2.69314c0,0 2.14223,-0.6987 3.0036,-0.66775z" fill="#f82020" stroke="none" stroke-width="1.13968" stroke-linecap="round"/><path d="M236.70343,190.08362c0,0 -0.08208,0.17978 -0.9964,0.57042c-0.91431,0.39063 -2.16341,0.78506 -3.23714,1.00461c-0.43062,0.08747 -1.15982,0.27333 -1.26264,-0.05893c-0.17514,-0.56563 -0.11011,-1.81472 0.33948,-2.36326c0.4471,-0.54509 2.25324,-1.7934 2.98898,-1.81314c1.31156,-0.02143 2.16772,2.6603 2.16772,2.6603z" fill="#f8f8f8" stroke="none" stroke-width="1.15102" stroke-linecap="round"/><path d="M236.92376,185.01508c0.42067,-0.08207 1.10232,-0.53633 1.62331,-0.16691c0.5918,0.41963 0.00789,0.93074 0.00789,0.93074c0,0 0.64267,0.0544 0.47853,0.49162c-0.15937,0.42451 -0.43858,0.46697 -0.72983,0.56181c-0.48941,0.15937 -1.3822,0.06002 -1.55622,0.09396c-0.87016,0.16975 -2.11678,0.67045 -2.20583,0.21398c-0.02362,-0.12109 0.09893,-0.7369 0.09893,-0.7369c0,0 -0.60062,-0.51569 -0.26381,-0.77538c0.43694,-0.3369 2.186,-0.5425 2.54704,-0.61293z" fill="#ffffff" stroke="none" stroke-width="0" stroke-linecap="butt"/></g><g data-paper-data="{&quot;index&quot;:null}"><path d="M246.20671,187.20467l0.62031,0.54357c0,0 -0.58343,2.78252 -1.15604,4.11005c-0.47767,1.10743 -1.42072,2.61799 -1.87206,3.18096c-0.77929,0.97203 -1.1217,0.41101 -1.1217,0.41101c0,0 2.12163,-2.48665 2.67732,-3.69077c0.39621,-0.85845 0.85217,-4.55481 0.85217,-4.55481z" fill="#989898" stroke="#989898" stroke-width="0" stroke-linecap="round"/><path d="M244.05526,187.79066c0.43211,-0.35982 0.76603,-0.64847 1.36596,-0.71286c0.85285,-0.09152 1.03289,0.31511 0.99595,0.84121c-0.07807,1.1074 -0.68792,2.88553 -0.68792,2.88553l-3.4626,-0.51022c0,0 1.12706,-1.95118 1.78861,-2.50367z" fill="#f82020" stroke="none" stroke-width="1.13968" stroke-linecap="round"/><path d="M245.73677,190.71325c0,0 0.05905,0.1886 -0.36023,1.09014c-0.41927,0.90154 -1.0851,2.02959 -1.7373,2.91035c-0.26195,0.3528 -0.68032,0.9783 -0.97881,0.79978c-0.50824,-0.30382 -1.29443,-1.27663 -1.32642,-1.98515c-0.03155,-0.7043 0.47822,-2.83983 1.01244,-3.3461c0.96153,-0.89226 3.39032,0.53098 3.39032,0.53098z" fill="#f8f8f8" stroke="none" stroke-width="1.15102" stroke-linecap="round"/><path d="M242.51417,186.7949c0.25816,-0.34213 0.46181,-1.13556 1.09627,-1.20879c0.72069,-0.08319 0.62774,0.68723 0.62774,0.68723c0,0 0.51451,-0.38892 0.68451,0.04605c0.16506,0.42233 -0.01432,0.64048 -0.16765,0.90564c-0.25765,0.44557 -0.9883,0.96817 -1.09509,1.1097c-0.534,0.70769 -1.12699,1.91315 -1.49824,1.63302c-0.09848,-0.07431 -0.41875,-0.61438 -0.41875,-0.61438c0,0 -0.79144,0.01762 -0.71435,-0.40064c0.1,-0.5426 1.26398,-1.86421 1.48554,-2.15783z" fill="#ffffff" stroke="none" stroke-width="0" stroke-linecap="butt"/></g><path d="M240.77474,180.18437l1.39608,-1.31261" data-paper-data="{&quot;index&quot;:null}" fill="none" stroke="#cccccc" stroke-width="0.36953" stroke-linecap="round"/><path d="M235.87323,173.36124l-2.79798,1.0583l-1.87541,1.92384l1.54342,-2.86787l2.91225,-0.73702z" data-paper-data="{&quot;index&quot;:null}" fill="#f8b820" stroke="none" stroke-width="1.22222" stroke-linecap="round"/><path d="M235.54847,172.77862l-2.29186,-0.70177l-2.78581,1.08647c0,0 2.0114,-2.01976 2.45867,-2.0915c0.31374,-0.05034 2.92236,0.94197 2.92236,0.94197z" data-paper-data="{&quot;index&quot;:null}" fill="#f8b820" stroke="none" stroke-width="1.22222" stroke-linecap="round"/><path d="M235.98699,171.83299c0,0 -1.04911,-1.18789 -1.96261,-1.55866c-0.9135,-0.37077 -4.2098,-0.94658 -4.2098,-0.94658c0,0 3.51362,-0.4973 4.12422,-0.24218c0.37022,0.15469 2.75889,2.167 2.75889,2.167z" data-paper-data="{&quot;index&quot;:null}" fill="#f8b820" stroke="none" stroke-width="1.22222" stroke-linecap="round"/></g></g></svg>