<svg version="1.1" xmlns="http://www.w3.org/2000/svg" xmlns:xlink="http://www.w3.org/1999/xlink" width="28.38454" height="32.47883" viewBox="0,0,28.38454,32.47883"><g transform="translate(-225.86722,-165.62497)"><g data-paper-data="{&quot;isPaintingLayer&quot;:true}" fill-rule="nonzero" stroke-linejoin="miter" stroke-miterlimit="10" stroke-dasharray="" stroke-dashoffset="0" style="mix-blend-mode: normal"><path d="M248.27347,197.0678c-0.36574,1.32782 -2.79687,-1.35168 -3.45184,-2.22793c-0.88291,-0.91692 -1.71815,-3.1808 -1.71815,-3.1808c0,0 -0.67017,-1.52659 0.33676,-1.13495c0.46872,0.18231 0.93665,0.32889 1.37175,0.52525c0.49958,0.22547 0.95587,0.51662 1.32035,1.00296c0,0 2.6418,3.1978 2.14113,5.01545z" data-paper-data="{&quot;index&quot;:null}" fill="#54c81c" stroke="none" stroke-width="0" stroke-linecap="butt"/><path d="M236.48735,192.84437c0.24268,-0.51498 0.60269,-0.86932 1.01336,-1.17199c0.35767,-0.2636 0.75378,-0.48803 1.14426,-0.74528c0.83885,-0.55265 0.50455,0.97221 0.50455,0.97221c0,0 -0.35272,2.23064 -0.98678,3.23938c-0.43567,0.92751 -2.15423,3.84658 -2.71905,2.70369c-0.77318,-1.56449 1.04366,-4.99801 1.04366,-4.99801z" data-paper-data="{&quot;index&quot;:null}" fill="#54c81c" stroke="none" stroke-width="0" stroke-linecap="butt"/><path d="M240.74527,189.29442c0,0 -1.73232,2.94057 -2.29123,4.0754c-0.37809,0.76769 -0.93318,2.01973 -0.93318,2.01973c-0.2071,0.29463 -1.25508,0.94036 -1.24943,0.13196c0.00443,-0.6355 1.04532,-2.74234 1.04532,-2.74234c0,0 1.71791,-2.72257 1.93476,-3.3332c0.74334,-1.90468 -0.82314,-5.74944 -0.82314,-5.74944l1.46933,-0.30568l0.84759,5.90355z" data-paper-data="{&quot;index&quot;:null}" fill="#ffffff" stroke="none" stroke-width="0" stroke-linecap="butt"/><path d="M241.18495,189.2155l-1.17871,-6.29926l1.25826,0.03077c0,0 0.00777,3.68394 0.91631,5.51556c0.2699,0.58911 2.3661,3.40125 2.3661,3.40125c0,0 1.61207,2.04019 1.67256,2.67283c0.07696,0.80474 -0.67343,0.59511 -1.14211,0.21699c-0.46868,-0.37811 -1.09919,-1.65947 -1.61994,-2.42328c-0.63349,-0.92918 -2.27246,-3.11486 -2.27246,-3.11486z" data-paper-data="{&quot;index&quot;:null}" fill="#ffffff" stroke="none" stroke-width="0" stroke-linecap="butt"/><g stroke="none" stroke-width="0" stroke-linecap="butt"><path d="M254.25176,186.03805c0,0 -1.69245,-0.58383 -2.81861,-0.76772c-1.12616,-0.18389 -5.44509,-0.16794 -5.44509,-0.16794c0,0 4.77104,-0.38227 5.24489,-1.38408c0.47391,-1.00194 -2.95315,-3.4865 -2.03837,-3.2599c4.83148,1.19684 5.05716,5.57964 5.05716,5.57964z" fill="#54c81c"/><path d="M237.93142,180.20563c0,0 4.11975,-0.38504 6.81747,-0.4792c3.26883,-0.11409 6.62278,1.52805 7.35585,2.93019c0.73307,1.40214 -4.05831,2.64236 -6.18308,2.31591c-2.30148,-0.3536 -7.99023,-4.76691 -7.99023,-4.76691z" fill="#ffffff"/></g><g stroke="none" stroke-width="0" stroke-linecap="butt"><path d="M235.31838,183.85248c0,0 -2.35903,1.44535 -4.41001,2.16906c-1.13052,0.39891 -2.67701,0.66093 -3.50382,0.94025c-1.39703,0.47192 -1.53733,1.06179 -1.53733,1.06179c0,0 0.27824,-1.54859 0.54752,-2.19855c0.26928,-0.64997 0.54611,-1.26423 0.79092,-1.171c0.24481,0.09323 8.11272,-0.80156 8.11272,-0.80156z" fill="#54c81c"/><path d="M226.74651,185.03388c0,0 1.12337,-3.13758 5.6697,-4.52116c3.55335,-1.08138 5.26496,-0.25172 5.94012,-0.53826c1.9631,-0.83313 1.61501,-0.45922 1.61501,-0.45922c0,0 -0.50843,2.80467 -6.24617,5.06737c-4.12986,1.62862 -6.97866,0.45127 -6.97866,0.45127z" fill="#ffffff"/></g><g data-paper-data="{&quot;index&quot;:null}" stroke="none" stroke-width="0" stroke-linecap="butt"><path d="M242.80875,189.38676c0,0 4.5171,0.88472 5.21911,-0.35767c0.71241,-1.26079 -1.30653,-5.72304 -1.30653,-5.72304c0,0 1.7861,0.46325 3.36839,3.85735c0.91619,1.9589 1.76567,7.05531 1.76567,7.05531c0,0 -3.15245,-1.58517 -5.36471,-2.18267c-1.83788,-0.49639 -3.68194,-2.64927 -3.68194,-2.64927z" fill="#54c81c"/><path d="M246.85372,183.24877c0.18966,0.14544 2.41776,3.62989 1.54113,5.87373c-0.82307,1.96588 -5.54505,0.29297 -5.54505,0.29297c0,0 -1.93128,-1.45103 -3.28193,-2.78722c-1.62271,-1.60531 -1.53654,-4.22104 -1.00152,-5.43018c0.53502,-1.20914 0.54283,0.36482 3.30315,0.16716c2.07977,-0.14891 4.80245,1.74416 4.98423,1.88355z" fill="#ffffff"/></g><g stroke="none" stroke-width="0" stroke-linecap="butt"><path d="M231.25434,194.47987c0,0 -1.99763,-2.8737 -1.31489,-5.31131c0.51613,-1.84278 2.14174,-4.18051 2.14174,-4.18051l5.98623,4.00151c0,0 -3.5408,1.85438 -4.74547,2.88986c-1.20468,1.03549 -2.0676,2.60043 -2.0676,2.60043z" fill="#54c81c"/><path d="M231.64276,189.93837c-1.53734,-1.46051 -0.30342,-4.16964 0.43841,-4.95032c0.73623,-0.7748 1.37593,-2.34468 5.22489,-3.30071c2.62509,-0.65203 3.30357,-2.20055 3.30357,-2.20055l1.15141,0.44143c0,0 0.88714,4.67388 -1.03111,7.04718c-1.79457,2.22027 -7.60934,4.36693 -9.08715,2.96296z" fill="#ffffff"/></g><g data-paper-data="{&quot;index&quot;:null}" stroke="none" stroke-width="0.17188" stroke-linecap="butt"><path d="M241.13993,171.10719c0.15545,-0.34413 0.74942,-0.32268 1.11734,-0.19478c0.47567,0.16431 1.14432,0.48413 1.15085,0.97782c0.00962,0.75136 -0.78223,1.27271 -1.06781,1.98842c-0.45209,1.13232 -2.42507,4.87334 -2.77943,5.00247c-0.35424,0.12921 0.93694,-3.53518 0.92316,-4.4816c0.00612,-1.15894 0.18592,-2.25141 0.65592,-3.29234z" fill="#319a2b"/><path d="M243.23569,170.26729c-0.00322,-0.00968 -0.59235,-1.01461 -0.78858,-1.13015c-0.3301,-0.1946 -0.3759,0.41919 -0.685,0.06123c-0.22924,-0.26549 -0.10548,-0.60831 -0.18316,-0.83605c-0.08884,-0.25965 0.24146,-0.64353 0.5179,-0.7638c0.15359,-0.0668 0.32356,0.09441 0.31747,0.05337c-0.04146,-0.27752 0.19957,-0.56985 0.45912,-0.53884l0.56488,0.06729c0.5391,0.21242 1.10243,0.57589 1.44512,0.68731c0.80295,0.22329 0.75799,1.13734 0.77522,0.98128c-0.23068,0.73579 -0.97755,1.52159 -1.78604,1.81124c-0.16628,0.05347 -0.49891,0.03649 -0.63689,-0.39283z" fill="#f0e9bb"/><path d="M242.05793,171.24154c-0.21073,-0.17319 -0.97178,0.15198 -0.72834,0.08538c0.04874,-0.01334 -0.23059,0.13947 -0.28015,-0.04939c-0.03243,-0.12417 0.1579,-0.55774 0.17088,-0.71397c0.02989,-0.36083 0.31247,-0.75547 0.44126,-1.08215c0.1213,-0.30744 0.54537,-0.45781 0.69952,-0.50005c0.22278,-0.0613 0.42908,0.36452 0.64904,0.76009c0.2675,0.48111 0.59139,0.77858 0.61549,0.79588c0,0 0.46606,0.28143 0.59148,0.18316c-0.39957,0.32429 -0.28039,1.41956 -0.71456,1.70889c-0.23864,0.13963 -1.23663,-1.01679 -1.44461,-1.18781z" fill="#ead42f"/></g><path d="M238.60034,181.63925c-0.26708,-0.38154 -0.30118,-1.68325 -0.30434,-2.50401c-0.00931,-0.71765 0.05758,-1.42384 0.31392,-1.69625c0.07907,-0.08398 1.46148,0.72276 1.40818,0.89511c-0.05605,0.18218 0.57743,0.72921 0.55451,0.88715c-0.07242,0.49876 0.4341,0.61373 0.41681,0.92755c-0.02199,0.39718 -0.17923,0.57052 -0.39567,0.81334c0,0 -1.67222,1.02008 -1.99341,0.67711z" fill="#319a2b" stroke="none" stroke-width="0.17188" stroke-linecap="butt"/><path d="M237.06981,170.34793c3.41729,-1.88426 4.33275,-0.65333 4.52742,-0.46955c0.43366,0.45812 0.74111,1.02854 0.94401,1.62283c0.34617,0.98909 0.38464,2.11503 -0.04323,3.08525c-0.25852,0.42655 -0.20944,0.37592 -0.44444,0.80922c-0.26286,0.74245 -0.96205,1.38906 -1.56522,1.83547c-0.47017,0.38806 -0.99992,0.69627 -1.56414,0.92775c-0.37018,0.13652 -0.7402,0.34652 -1.14569,0.32743c-0.37742,-0.02382 -0.77099,-0.1538 -1.01364,-0.45919c-0.63066,-0.70966 -1.26893,-1.41463 -1.8332,-2.17862c-0.14365,-0.21757 -0.33372,-0.43081 -0.37683,-0.69576c0.02546,-0.26434 -1.91128,-2.36425 2.51496,-4.80483z" fill="#f0e9bb" stroke="none" stroke-width="0.17188" stroke-linecap="butt"/><path d="M238.64171,166.57403c0.65923,-0.65839 1.27688,-0.94235 1.75963,-0.94904c0.06867,-0.00112 0.06927,0.05105 0.1622,0.06292c0.11249,0.01442 0.36218,-0.02193 0.31072,-0.02057c0,0 0.03185,0.17601 0.08304,0.23194c0.06514,0.07107 0.2289,0.0876 0.14176,0.12387c0,0 0.13323,0.07615 0.15395,0.12443c0.22654,0.52722 0.29627,1.37525 0.04007,2.03076c0.55013,0.19699 -2.83594,-0.92679 -2.65135,-1.60432z" fill="#ed3e67" stroke="none" stroke-width="0.17188" stroke-linecap="butt"/><path d="M234.60726,174.9498l1.31585,1.99782l1.34261,1.39939l1.03483,0.92652c0.12182,0.10879 -1.98851,0.12156 -2.53663,-0.02394c-0.67826,-0.17995 -1.26349,-0.49465 -1.84715,-0.81172c-0.42549,-0.23091 -0.54739,-0.36498 -0.79078,-0.58223l-0.75547,-0.67462c-0.14357,-0.12815 -0.79434,-0.8397 -0.74543,-1.08275c0.0139,-0.06896 0.83264,-0.08389 0.89225,-0.13106l0.43417,-0.34559c0.12891,-0.10241 0.31078,-0.6779 0.35523,-0.85577c0.03258,-0.12988 0.10321,-0.99638 -0.22937,-1.54031l-0.32903,-0.53803c-0.04925,-0.08058 -0.83145,-0.72639 -0.812,-0.76317c0.03987,-0.07597 -1.28528,-0.39145 -1.24638,-0.474c0.21602,-0.45987 0.4684,-1.03031 0.87633,-1.50517c0.64129,-0.74653 1.50051,-1.35469 1.93568,-1.67326c0.07422,-0.05432 1.03345,-0.72778 1.7352,-0.96023c1.11119,-0.36816 2.03754,-0.17461 2.09536,-0.16923c0.90783,0.0842 1.73819,0.35297 2.50143,0.78157l0.56038,0.42664c0.28687,0.21836 1.70258,1.5426 1.95939,2.19439l0.8775,2.22557c0.15376,0.3897 0.43666,2.54458 0.19638,2.58779c-0.33649,0.06084 -1.05843,-0.88815 -1.05346,-0.70907c0.01084,0.39677 0.49585,-1.96288 0.29607,-2.37119c-0.34165,-0.69803 -0.54557,-1.45404 -0.92073,-1.84431c-0.07091,-0.07363 -0.49622,-0.6224 -0.60638,-0.7497c-0.08696,-0.10073 -0.21661,-0.13846 -0.30251,-0.03079c-0.05722,0.07162 -0.29078,0.1117 -0.26974,0.36113l0.06279,0.73946c0.01005,0.11982 0.17597,2.30896 0.04477,2.23142c-0.02433,-0.01447 -0.19241,-0.62831 -0.20589,-0.66732c-0.0813,-0.23609 -0.18617,-0.38887 -0.19555,-0.27529c-0.0247,0.29869 0.06183,0.96971 0.06183,0.96971c0.00537,0.08673 -0.44578,0.36996 -0.80698,0.4859c-0.33604,0.10788 -0.91318,0.03862 -1.05741,0.02286l-1.56773,-0.17209c-1.47225,-0.16124 -1.15613,0.14363 -1.27698,0.08802c-0.00802,-0.09126 -0.67894,0.37876 -0.72579,0.63935c-0.01866,0.1038 -0.12463,0.35525 -0.17941,0.48455c-0.07299,0.17193 -0.12863,0.28307 -0.11718,0.38878z" fill="#54c81c" stroke="none" stroke-width="0.17188" stroke-linecap="butt"/><path d="M230.4276,176.12639c-0.60801,0.19863 -1.3921,0.08951 -1.87861,-0.14577c-0.04459,-0.02148 -0.1142,-0.1473 -0.1142,-0.1473c-0.03412,0.07766 -0.04827,-0.07299 -0.11364,-0.13619c-0.05134,-0.0497 -0.21413,-0.08823 -0.21413,-0.08823c-0.00152,0.04698 0.03359,-0.17905 0.02109,-0.28256c-0.01049,-0.08557 -0.05882,-0.08887 -0.05748,-0.15172c0.00931,-0.44025 0.27579,-0.9889 0.88878,-1.55564c0.80213,-0.74136 2.04388,-0.67829 2.27849,-0.36659c0,0 0.22794,2.53463 -0.8103,2.87399z" fill="#ed3e67" stroke="none" stroke-width="0.17188" stroke-linecap="butt"/><path d="M232.29191,173.33056c0.05634,-0.17247 0.59677,1.27646 0.41556,1.67184c-0.31172,0.67989 -0.09535,0.8449 -0.6474,1.0461c-0.12385,0.04535 -0.45745,0.01784 -0.83381,0.11534c-0.4359,0.11313 -0.87401,0.14407 -0.8067,0.00405l0.37072,-0.88792l0.16052,-1.83299c0.00249,-0.0285 -0.32545,-0.04643 -0.8038,-0.03206c-0.33544,0.01001 -0.80131,0.07295 -1.1308,0.16656c-0.19413,0.05522 -0.02417,-0.34578 0.31219,-0.79085c0.16303,-0.21579 0.32457,-0.46039 0.58127,-0.63183c0.44465,-0.29678 1.12436,-0.04279 1.61133,0.36677c0.4561,0.38351 0.73325,0.91962 0.77091,0.80499z" fill="#54c81c" stroke="none" stroke-width="0.17188" stroke-linecap="butt"/><path d="M232.88556,172.83818c0.7519,0.95461 0.43904,2.53548 0.11226,2.74701l-0.42039,0.45659l-1.00038,0.10732c-0.25617,0.0274 1.00761,-0.66224 1.0557,-1.17481c0.03149,-0.33442 0.04823,-0.58705 0.01453,-0.68472c-0.32261,-0.9304 -0.80972,-1.52317 -1.25858,-1.81048c-0.7053,-0.45147 -1.3245,-0.30035 -1.12908,-0.67431c0.46582,-0.89188 1.80415,-0.00982 2.62594,1.0334z" fill="#ead32e" stroke="none" stroke-width="0.17188" stroke-linecap="butt"/><path d="M238.87749,167.51088c0,0 -0.43483,-0.11082 -0.75563,-0.20722c-0.66921,-0.20109 -1.37108,-0.0967 -1.37045,-0.29471c0.04122,-0.11091 0.53079,-0.31129 0.7214,-0.29038l0.38709,0.04228c0.68072,0.07451 1.24823,0.50026 1.40958,0.72807c0.06981,0.09853 0.3043,0.1978 0.35034,0.33125c0,0 -0.51327,-0.1373 -0.74232,-0.30929z" fill="#ead32e" stroke="none" stroke-width="0.17188" stroke-linecap="butt"/><path d="M237.77952,166.67167c0,0 0.84099,-0.67458 1.17463,-0.55263c0.22167,0.08088 0.36861,0.56816 0.57837,0.59834c0.26045,0.03749 0.75936,0.23872 1.08106,0.42086c0.22177,0.22099 0.48912,0.39115 0.59095,0.74723c0.22657,0.21123 -0.04255,1.11575 -0.12477,1.05243l-1.11762,-0.86062c-0.28356,-0.21839 -0.8768,-0.64719 -1.01001,-0.72449z" fill="#54c81c" stroke="none" stroke-width="0.17188" stroke-linecap="butt"/><g stroke="none" stroke-linecap="butt"><path d="M239.34346,177.68972c0.12366,-0.13587 0.34098,-0.07876 0.59215,0.12311c0.25117,0.20188 0.53641,0.54862 0.79568,0.99217c0.25926,0.44345 0.44391,0.90048 0.533,1.2806c0.08899,0.38013 0.08228,0.68325 -0.04137,0.81912c-0.12356,0.13576 -0.34089,0.07866 -0.59217,-0.12321c-0.25117,-0.20188 -0.5363,-0.54864 -0.79557,-0.99219c-0.25926,-0.44345 -0.44403,-0.90047 -0.533,-1.2806c-0.08909,-0.38012 -0.08227,-0.68326 0.04129,-0.81901z" fill="#eb3d66" stroke-width="0.01872"/><path d="M239.7339,177.95908c0.05807,-0.0598 0.16334,-0.03712 0.28649,0.04789c0.12325,0.08499 0.26435,0.23232 0.39408,0.42173c0.12983,0.1894 0.22377,0.3853 0.27081,0.5488c0.04704,0.16359 0.0472,0.29473 -0.01087,0.35453c-0.05795,0.05988 -0.16325,0.03713 -0.28649,-0.04787c-0.12325,-0.08499 -0.26435,-0.23232 -0.39407,-0.42163c-0.12973,-0.18941 -0.22378,-0.38542 -0.27081,-0.5489c-0.04704,-0.16359 -0.04718,-0.29463 0.01088,-0.35454z" fill="#ffffff" stroke-width="0.01896"/></g><g fill="none" stroke="#000000" stroke-width="0.5" stroke-linecap="round"><path d="M238.875,175.96667l-1.91667,-0.91667"/><path d="M237.375,176.38334l1,-1.66667"/></g><g fill="none" stroke="#000000" stroke-width="0.5" stroke-linecap="round"><path d="M242.54166,173.54999l-1.91666,-0.91666"/><path d="M242.04167,172.3l-1,1.66667"/></g><g data-paper-data="{&quot;index&quot;:null}" stroke="none" stroke-width="0.17188" stroke-linecap="butt"><path d="M237.48085,175.32318c0.07791,1.02224 1.59833,4.001 1.20356,3.89636c-0.39489,-0.10457 -2.05248,-2.15285 -2.65116,-3.32991c-0.37822,-0.74399 -1.74039,-2.33374 -1.80368,-3.14514c-0.04136,-0.53318 0.64856,-0.94371 1.14553,-1.16759c0.38433,-0.17405 1.02292,-0.2554 1.22434,0.10056c0.60903,1.07674 0.76119,2.3962 0.8814,3.64571z" fill="#319a2b"/><path d="M234.33917,170.96675c-0.10676,0.47661 -0.46391,0.52755 -0.64849,0.48616c-0.90049,-0.23316 -1.78317,-1.00758 -2.10413,-1.77864c0.03387,0.16668 -0.10423,-0.81492 0.73999,-1.13449c0.35873,-0.15378 0.93072,-0.60107 1.49142,-0.88305l0.60273,-0.12795c0.27694,-0.0589 0.5656,0.2328 0.54808,0.53622c-0.00257,0.04487 0.165,-0.1457 0.3372,-0.08869c0.30998,0.10263 0.70391,0.48432 0.63353,0.77312c-0.06147,0.25329 0.10563,0.61095 -0.11562,0.91978c-0.29834,0.41644 -0.40792,-0.24117 -0.74491,0.0011c-0.20036,0.14389 -0.73729,1.28562 -0.73982,1.29638z" fill="#f0e9bb"/><path d="M235.70506,171.90215c-0.20758,0.20486 -1.17071,1.55011 -1.44181,1.42287c-0.49669,-0.26953 -0.47549,-1.46264 -0.93832,-1.77328c0.14493,0.0937 0.62007,-0.25556 0.62007,-0.25556c0.02431,-0.02101 0.34451,-0.37366 0.5859,-0.91883c0.19849,-0.44825 0.37927,-0.92779 0.62559,-0.88351c0.17042,0.03046 0.64258,0.15108 0.80357,0.47081c0.17095,0.33975 0.51444,0.73776 0.58206,1.12405c0.02931,0.16724 0.27711,0.61629 0.25431,0.75339c-0.03494,0.20858 -0.35124,0.07113 -0.29735,0.08075c0.26912,0.04797 -0.58367,-0.22816 -0.794,-0.02069z" fill="#ead42f"/></g><path d="M239.94327,177.57447c0,0.15188 -0.66193,0.45 -0.8,0.45c-0.13807,0 -0.25,-0.12312 -0.25,-0.275c0,-0.15188 0.11193,-0.275 0.25,-0.275c0.13807,0 0.8,-0.05188 0.8,0.1z" fill="#f0e9bb" stroke="none" stroke-width="0" stroke-linecap="butt"/><path d="M238.61664,181.54824c0,0 0.74364,-0.19237 1.22545,-0.43119c0.48181,-0.23881 0.52444,-0.64184 0.79741,-0.44297c0.14096,0.1027 -0.20864,0.65946 -0.70473,0.86698c-0.90156,0.37711 -1.49134,0.35059 -1.49134,0.35059z" data-paper-data="{&quot;index&quot;:null}" fill="#ead42f" stroke="none" stroke-width="0" stroke-linecap="butt"/></g></g></svg>