<svg version="1.1" xmlns="http://www.w3.org/2000/svg" xmlns:xlink="http://www.w3.org/1999/xlink" width="26.39072" height="20.6305" viewBox="0,0,26.39072,20.6305"><g transform="translate(-227.70598,-169.63173)"><g data-paper-data="{&quot;isPaintingLayer&quot;:true}" fill-rule="nonzero" stroke-width="0" stroke-linecap="butt" stroke-linejoin="miter" stroke-miterlimit="10" stroke-dasharray="" stroke-dashoffset="0" style="mix-blend-mode: normal"><path d="M240.88376,180.59924c-0.06859,-0.61512 -0.03821,-1.09201 0.3929,-1.17143c0.39324,-0.07245 0.57271,0.44098 0.64131,1.05609c0.01073,0.09622 0.21631,2.32553 0.02323,2.67798c-0.55849,1.01952 -1.0126,0.39298 -1.0126,0.39298c0,0 -0.03898,-1.11801 -0.04463,-1.6915c-0.00565,-0.57348 0.02426,-1.0449 -0.00019,-1.26412z" data-paper-data="{&quot;index&quot;:null}" fill="#fde1c0" stroke="none"/><path d="M242.63029,184.08564c-0.59834,0.50004 -1.74585,0.53543 -1.95476,0.39097c-0.33184,-0.22944 -0.21787,-0.78364 -0.21787,-0.78364c0,0 0.43267,-0.56605 1.04849,-0.85145c0.42497,-0.19696 0.95227,0.02909 0.95227,0.02909c0,0 0.22424,0.40701 0.26397,0.61491c0.03974,0.2079 0.10944,0.43168 -0.0921,0.60011z" data-paper-data="{&quot;index&quot;:null}" fill="#fefefe" stroke="none"/><g data-paper-data="{&quot;index&quot;:null}" stroke="none"><path d="M242.2744,183.89713c0.05975,0.20335 -0.0584,0.64573 -0.88867,0.83257c-0.41848,0.09419 -0.92358,0.13042 -0.99364,-0.108c-0.05975,-0.20335 0.16472,-0.26631 0.57627,-0.38725c0.41155,-0.12095 1.23083,-0.59328 1.30604,-0.33733z" fill="#000000"/><path d="M241.15331,186.2075c0,0 -0.58631,0.39657 -0.87985,-0.3032c-0.3339,-0.79599 -0.13402,-1.4941 -0.13402,-1.4941c0,0 0.2309,-0.15983 0.3931,-0.14227c0.1622,0.01756 0.3679,0.22467 0.3679,0.22467c0,0 0.14912,-0.16236 0.27706,-0.18315c0.12794,-0.02079 0.41966,0.06995 0.41966,0.06995c0,0 0.17218,-0.25276 0.33528,-0.34672c0.1631,-0.09395 0.4932,-0.13054 0.4932,-0.13054c0,0 0.10861,-0.31062 0.27542,-0.40182c0.16681,-0.09121 0.37628,-0.15676 0.52276,-0.03459c0.14648,0.12218 0.72729,0.61162 0.93828,1.3259c0.25961,0.87889 -1.05632,0.82031 -1.05632,0.82031c0,0 -0.11752,0.26972 -0.35349,0.36251c-0.30539,0.12006 -0.59801,-0.02299 -0.59801,-0.02299c0,0 0.00725,0.2489 -0.38901,0.36143c-0.26885,0.07636 -0.61193,-0.10538 -0.61193,-0.10538z" fill="#fefefe"/><path d="M242.40167,184.29781c-0.41848,0.09419 -0.92358,0.13042 -0.99364,-0.108c-0.05976,-0.20335 0.3327,-0.55491 0.74425,-0.67585c0.41155,-0.12094 1.06285,-0.30467 1.13806,-0.04872c0.05975,0.20335 -0.0584,0.64573 -0.88867,0.83257z" fill="#fefefe"/></g><path d="M243.98528,178.88123c0,0 0.65877,-0.23744 0.96809,-0.42443c0.30932,-0.187 0.75903,-0.5202 0.75903,-0.5202c0,0 -0.09967,0.8708 -0.17434,1.23837c-0.05667,0.27901 -0.11317,0.85482 -0.43611,0.91707c-0.26531,0.05114 -1.11667,-1.2108 -1.11667,-1.2108z" data-paper-data="{&quot;index&quot;:null}" fill="#ebc19b" stroke="none"/><path d="M240.13603,189.7946c-1.12371,0.37125 -1.94334,0.38792 -2.4999,0.17573c-0.40676,-0.15507 -0.4535,-0.79645 -0.4535,-0.79645c0,0 2.66308,0.39893 3.04977,-0.35769c0.34503,-0.67511 -0.846,-3.90026 -0.846,-3.90026c0,0 0.84439,-0.22679 1.5359,2.78874c0.05939,0.25899 0.12093,0.78189 -0.03233,1.21696c-0.15157,0.43027 -0.55866,0.80846 -0.75394,0.87298z" data-paper-data="{&quot;index&quot;:null}" fill="#686868" stroke="none"/><path d="M241.21841,179.45259c-2.91294,-0.03608 -5.17296,-2.00483 -5.20903,-4.88077c-0.03381,-2.69537 1.97142,-4.95292 5.20903,-4.88077c2.87616,0.0641 5.20903,1.28336 5.20903,4.88077c0,3.38098 -2.33238,4.9164 -5.20903,4.88077z" data-paper-data="{&quot;index&quot;:null}" fill="#fedeb5" stroke="none"/><path d="M244.43404,177.1494c0,0 0.1121,-0.70652 0.24763,-2.33832c0.1834,-2.20826 0.10601,-2.97432 0.73125,-2.76909c0.50483,0.16571 1.30211,1.33274 0.90021,3.78671c-0.09801,0.78378 -0.49121,1.58465 -0.49121,1.58465c0,0 -0.24529,0.23007 -0.47748,0.2099c-0.23218,-0.02017 -0.32127,-0.18285 -0.5073,-0.29544c-0.21409,-0.12958 -0.40311,-0.17841 -0.40311,-0.17841z" data-paper-data="{&quot;index&quot;:null}" fill="#ea750b" stroke="none"/><path d="M242.6766,177.68941c0,0 -1.11128,0.66223 -2.31612,0.1528c-0.6905,-0.29196 -1.58939,-1.37735 -1.87639,-2.15545c-0.78961,-2.14073 -0.13687,-3.37972 0.93462,-3.76377c1.00148,-0.35895 2.30067,0.5015 2.92272,2.10847c0.62204,1.60696 0.33517,3.65795 0.33517,3.65795z" data-paper-data="{&quot;index&quot;:null}" fill="#ea750b" stroke="none"/><path d="M242.61914,175.17056c0.32849,1.46827 0.0591,2.48961 0.0591,2.48961c0,0 -0.10117,0.25071 -1.06323,0.33952c-0.74756,0.06901 -1.12458,-0.24478 -1.12458,-0.24478c0,0 -0.6093,-0.7084 -0.80141,-1.76892c-0.27809,-1.53514 0.0541,-2.63006 0.83699,-2.8652c0.78289,-0.23513 1.79264,0.70676 2.09312,2.04978z" data-paper-data="{&quot;index&quot;:null}" fill="#ffffff" stroke="none"/><g data-paper-data="{&quot;index&quot;:null}" stroke="none"><path d="M242.25866,177.84827c-0.32764,0.01641 -0.64067,-0.70395 -0.69918,-1.60898c-0.05852,-0.90503 0.15965,-1.652 0.48729,-1.66842c0.32764,-0.01641 0.64067,0.70395 0.69918,1.60898c0.05852,0.90503 -0.15965,1.652 -0.48729,1.66842z" fill="#a06803"/><path d="M242.31238,177.25759c-0.17697,0.00966 -0.34604,-0.4144 -0.37764,-0.94716c-0.0316,-0.53276 0.08624,-0.97248 0.2632,-0.98214c0.17697,-0.00966 0.34604,0.4144 0.37764,0.94716c0.0316,0.53276 -0.08624,0.97248 -0.2632,0.98214z" fill="#000000"/><path d="M242.54719,175.6628c0.02072,0.30993 -0.05653,0.56574 -0.17255,0.57136c-0.11602,0.00562 -0.22686,-0.24107 -0.24758,-0.55101c-0.02072,-0.30993 0.05653,-0.56574 0.17255,-0.57136c0.11602,-0.00562 0.22686,0.24107 0.24758,0.55101z" fill="#ffffff"/></g><path d="M245.23421,173.38955c0.34422,0.20526 0.49208,1.14898 0.36936,2.47513c-0.08478,0.91614 -0.44466,1.72144 -0.44466,1.72144c0,0 -0.23114,-0.17078 -0.39159,-0.25388c-0.16045,-0.08309 -0.30921,-0.16265 -0.30921,-0.16265c0,0 0.03,-0.63148 0.13392,-1.95459c0.09143,-1.16415 0.25564,-2.05594 0.64218,-1.82545z" data-paper-data="{&quot;index&quot;:null}" fill="#ffffff" stroke="none"/><g data-paper-data="{&quot;index&quot;:null}" stroke="none"><path d="M244.70776,177.23694c-0.22527,-0.00643 -0.3924,-0.61697 -0.3733,-1.36367c0.0191,-0.74671 0.2172,-1.34682 0.44246,-1.34039c0.22527,0.00643 0.3924,0.61697 0.3733,1.36367c-0.0191,0.74671 -0.2172,1.34682 -0.44246,1.34039z" fill="#a06803"/><path d="M244.83087,175.16403c0.12172,0.00282 0.20971,0.36129 0.19652,0.80068c-0.01318,0.43939 -0.12255,0.7933 -0.24427,0.79048c-0.12172,-0.00283 -0.20971,-0.3613 -0.19652,-0.80069c0.01318,-0.43939 0.12255,-0.79329 0.24427,-0.79048z" fill="#000000"/><path d="M245.048,175.4599c-0.00607,0.25576 -0.07564,0.46111 -0.1554,0.45868c-0.07976,-0.00243 -0.13948,-0.21174 -0.13341,-0.46749c0.00607,-0.25576 0.07564,-0.46111 0.1554,-0.45868c0.07976,0.00243 0.13948,0.21174 0.13341,0.46749z" fill="#ffffff"/></g><path d="M242.64636,175.16819c0,0 -0.90012,-1.92403 -1.95022,-1.78858c-0.20333,0.02623 -0.55082,0.06675 -0.77489,0.51662c-0.38582,0.77463 -0.28502,1.47054 -0.28502,1.47054c0,0 -0.63091,0.11296 -1.26469,0.0164c-1.19897,-0.18267 -1.72006,-0.85102 -1.72006,-0.85102c0,0 0.99637,0.42499 1.4642,0.5123c0.47558,0.08875 1.36641,0.01595 1.36641,0.01595c0,0 -0.17298,-2.08798 1.23687,-2.13625c1.26172,-0.04319 1.92739,2.24403 1.92739,2.24403z" data-paper-data="{&quot;index&quot;:null}" fill="#000000" stroke="none"/><path d="M245.10371,173.59328c-0.26376,-0.01083 -0.40779,0.61421 -0.40779,0.61421c0,0 -0.00439,-1.07318 0.43682,-1.02998c0.49301,0.04827 0.63971,1.52679 0.63971,1.52679c0,0 0.01753,0.17665 0.89498,-0.17875c0.95233,-0.38573 1.48878,-1.20418 1.48878,-1.20418c0,0 -0.37356,0.7945 -1.039,1.20713c-0.64947,0.40271 -1.48007,0.44145 -1.48007,0.44145c0,0 -0.08074,-1.3581 -0.53344,-1.37668z" data-paper-data="{&quot;index&quot;:null}" fill="#000000" stroke="none"/><path d="M244.45833,177.16547c0,0 -0.42946,-0.09931 -0.72734,-0.01911c-0.29502,0.07943 -1.04501,0.45607 -1.04501,0.45607c0,0 0.16619,-0.64413 0.02041,-1.92339c-0.14131,-1.2401 -0.4093,-1.74671 -0.4093,-1.74671l2.46872,-0.50325z" data-paper-data="{&quot;index&quot;:null}" fill="#fedeb5" stroke="none"/><path d="M230.10048,183.21538c0.59316,-1.15577 1.25115,-0.85202 1.25115,-0.85202c0,0 -2.96349,3.90239 -2.92889,5.25715c0.03424,1.34068 2.61175,2.27141 2.61175,2.27141c0,0 -0.1787,0.43648 -1.02035,0.36169c-0.72518,-0.06444 -1.96406,-1.04231 -2.29401,-1.85411c-0.03072,-0.0756 -0.00102,-0.39185 -0.00639,-0.63342c-0.01967,-0.88522 1.59873,-3.33452 1.77302,-3.48803c0.18811,-0.16567 0.38689,-0.18094 0.51283,-0.44098c0.12013,-0.24806 0.07095,-0.56338 0.10087,-0.62169z" data-paper-data="{&quot;index&quot;:null}" fill="#686868" stroke="none"/><path d="M232.31046,188.67005c-0.37956,0.71232 -0.81211,1.22494 -1.3457,1.22494c-0.53359,0 -2.68193,-1.15167 -2.57064,-2.3291c0.15693,-1.66034 2.93106,-5.22545 2.93106,-5.22545c0,0 0.52691,-0.11934 1.05929,0.03735c0.6593,0.19404 0.85764,0.61616 0.85764,0.61616c0,0 -1.34967,0.44438 -1.62302,1.77676c-0.1839,0.8964 0.64821,2.65747 0.71438,3.21267c0.05918,0.49648 0.03315,0.40849 -0.02299,0.68667z" data-paper-data="{&quot;index&quot;:null}" fill="#ef4019" stroke="none"/><path d="M232.32841,188.01792c0,0 -0.70606,-0.7919 -1.36974,-1.20822c-0.13236,-0.08303 -0.52368,-0.19785 -0.85657,-0.12571c-0.34471,0.0747 -0.8623,0.23689 -0.80531,-0.12634c0.13392,-0.85351 1.81474,-3.4892 2.17452,-3.46018c0.19165,0.01546 0.8703,0.313 0.8703,0.313c0,0 -0.28369,1.01537 -0.23385,1.54392c0.05152,0.54637 0.53811,1.68262 0.53811,1.68262c0,0 -0.20784,0.24619 -0.25878,0.46777c-0.05462,0.2376 -0.05867,0.91313 -0.05867,0.91313z" data-paper-data="{&quot;index&quot;:null}" fill="#ffc500" stroke="none"/><path d="M231.67765,184.51012c0.42273,-1.25638 1.33897,-1.52764 1.53962,-1.50788c1.77298,0.1746 0.8147,2.24035 0.79362,2.39673c-0.11111,0.82443 -0.61076,0.72247 -1.46026,0.52379c-0.6507,-0.1522 -1.12013,-0.67811 -0.87298,-1.41265z" data-paper-data="{&quot;index&quot;:null}" fill="#ffffff" stroke="none"/><path d="M240.55548,187.50445c0.01867,0.41283 0.04243,1.56416 -0.68024,1.7573c-1.95475,0.52244 -2.46733,0.47943 -2.84569,-0.29477c-0.09199,-0.18823 -0.08904,-1.24041 -0.08904,-1.24041c0,0 -0.01457,-0.22438 0.18682,-0.54924c0.52799,-0.85165 1.67476,-2.39386 1.98832,-2.39386c0.45084,0 1.39451,1.71817 1.43986,2.72098z" data-paper-data="{&quot;index&quot;:null}" fill="#ef4019" stroke="none"/><path d="M233.86438,184.00898c0,0 0.39404,-0.38837 0.60884,-0.57707c0.22879,-0.20099 0.63631,-0.61716 0.63631,-0.61716l0.86918,0.8257c0,0 -0.91445,1.43119 -1.94354,1.74729c-0.1872,0.05751 -1.5495,-0.00998 -1.35558,-1.02713c0.10386,-0.54479 0.51214,-0.65737 0.80581,-0.5834c0.22242,0.05602 0.37898,0.23178 0.37898,0.23178z" data-paper-data="{&quot;index&quot;:null}" fill="#fedeb5" stroke="none"/><path d="M238.39134,185.53569c0.28478,-0.0953 0.45323,-0.49003 0.5738,-0.67896c0.05531,-0.08667 0.15425,-0.06736 0.15425,-0.06736c0,0 1.24445,2.08053 0.85058,2.67106c-0.26981,0.07975 -0.62107,-0.43517 -0.78088,-0.42477c-0.4046,-0.00004 -1.35404,0.02547 -1.68404,0.12681c-0.45101,0.1385 -0.55818,0.61274 -0.55818,0.61274l-0.12738,-1.42318c0,0 -0.69604,-0.56561 -0.21007,-0.72359c0.08136,-0.02646 1.07115,0.14511 1.78192,-0.09275z" data-paper-data="{&quot;index&quot;:null}" fill="#ffc500" stroke="none"/><path d="M238.96227,184.97488c0,0.08755 0.06131,0.32455 0.06131,0.32455l0.23577,0.65228l-0.58013,-0.16832c0,0 -0.68386,0.31189 -0.95406,0.31189c-0.68323,0 -1.23711,-0.50163 -1.23711,-1.12041c0,-0.61879 0.55387,-1.12041 1.23711,-1.12041c0.68323,0 1.23711,0.50163 1.23711,1.12041z" data-paper-data="{&quot;index&quot;:null}" fill="#ffffff" stroke="none"/><path d="M237.70182,185.50559c-0.30939,0 -0.5602,-0.25328 -0.5602,-0.56573c0,-0.31244 0.25081,-0.56573 0.5602,-0.56573c0.30939,0 0.5602,0.25328 0.5602,0.56573c0,0.31244 -0.25081,0.56573 -0.5602,0.56573z" data-paper-data="{&quot;index&quot;:null}" fill="#f5cda8" stroke="none"/><path d="M232.84192,185.83384c0.42954,0.26405 1.05785,-0.06189 1.05785,-0.06189c0,0 0.29256,0.15752 0.13347,0.36653c-0.31764,0.41732 -1.36358,0.48265 -1.36358,0.48265c0,0 -0.73584,-0.19962 -1.18249,-0.94441c-0.23515,-0.39211 -0.22147,-1.24036 -0.22147,-1.24036c0,0 0.08391,0.23155 0.28073,0.33789c0.10352,0.05593 0.33012,0.01981 0.39311,0.02155c0.15067,0.00416 0.55091,0.82196 0.9024,1.03804z" data-paper-data="{&quot;index&quot;:null}" fill="#ffc500" stroke="none"/><path d="M238.03191,179.11351c1.58497,-0.0308 2.86906,0.31744 2.86906,0.31744c0,0 0.73139,3.04325 0.00714,4.08247c-0.74509,1.06911 -1.76613,1.32467 -2.5323,1.34059c-2.06753,0.08927 -3.17891,-0.63998 -3.99953,-2.07583c-0.77589,-1.35757 -0.4712,-2.92398 -0.4712,-2.92398c0,0 2.36046,-0.70639 4.12682,-0.74071z" data-paper-data="{&quot;index&quot;:null}" fill="#ef4019" stroke="none"/><path d="M239.84887,180.71039c-0.58792,-0.07205 -0.44326,-1.44631 -0.44326,-1.44631l0.99234,0.19109c0,0 -0.17056,1.30162 -0.54908,1.25523z" data-paper-data="{&quot;index&quot;:null}" fill="#08abe8" stroke="none"/><path d="M240.95253,182.29179c-0.0123,0.23058 -0.26738,0.75343 -0.41041,0.73418c-0.06862,-0.00923 -0.11441,-0.52169 -0.23928,-1.08192c-0.13541,-0.60752 -0.3476,-1.26622 -0.3476,-1.26622l0.21731,-0.29675c0,0 0.82192,1.12405 0.77998,1.9107z" data-paper-data="{&quot;index&quot;:null}" fill="#08abe8" stroke="none"/><path d="M239.43099,181.89815c-0.10201,0.52109 -0.15535,1.03158 -0.21849,1.00961c-0.3357,-0.11679 -0.46078,-0.5496 -0.4549,-0.71639c0.03411,-0.96774 0.73641,-1.85046 0.73641,-1.85046l0.19168,0.29745c0,0 -0.13478,0.64715 -0.2547,1.25979z" data-paper-data="{&quot;index&quot;:null}" fill="#08abe8" stroke="none"/><path d="M238.92422,180.72719l-0.0234,-1.82533c0,0 0.22978,0.07703 0.52828,0.17179c0.2985,0.09477 0.45459,0.22604 0.45459,0.22604z" data-paper-data="{&quot;index&quot;:null}" fill="#ffffff" stroke="none"/><path d="M240.57147,180.82233l-0.60344,-1.46017c0,0 0.11626,-0.02067 0.39132,-0.05605c0.27506,-0.03539 0.47493,0.00598 0.47493,0.00598z" data-paper-data="{&quot;index&quot;:null}" fill="#ffffff" stroke="none"/><path d="M245.84777,177.37013c0,0 0.00348,0.40219 -0.1445,0.57137c-0.53107,0.60714 -1.71274,1.4312 -4.19997,1.58478c-2.61271,0.16133 -3.64923,-1.57853 -2.71974,-2.12909c0.81569,-0.48315 1.54255,0.62065 2.74346,0.58837c0.99391,-0.02672 1.73596,-0.7898 2.52161,-0.8728c0.57495,-0.06074 1.01498,0.50294 1.2083,0.49598c0.20965,-0.00754 0.59084,-0.23861 0.59084,-0.23861z" data-paper-data="{&quot;index&quot;:null}" fill="#ffffff" stroke="none"/><g data-paper-data="{&quot;index&quot;:null}" stroke="none"><path d="M244.56741,177.7803c-0.26398,0 -0.3626,-0.13969 -0.40365,-0.26664c-0.04758,-0.14713 0.18072,-0.28068 0.40365,-0.28068c0.22293,0 0.44011,0.13024 0.40365,0.28068c-0.02737,0.11291 -0.15335,0.26664 -0.40365,0.26664z" fill="#6b4209"/><path d="M244.63582,177.4656c-0.10202,0 -0.18472,-0.03676 -0.18472,-0.0821c0,-0.04534 0.0827,-0.0821 0.18472,-0.0821c0.10202,0 0.18472,0.03676 0.18472,0.0821c0,0.04534 -0.0827,0.0821 -0.18472,0.0821z" fill="#ffffff"/></g><path d="M242.28916,178.86126c0,0 -0.12746,0.19448 -0.49259,0.17788c-0.36512,-0.01659 -0.6431,-0.19156 -0.6431,-0.19156c0,0 0.35134,0.06842 0.65679,0.06842c0.29633,0 0.47891,-0.05473 0.47891,-0.05473z" data-paper-data="{&quot;index&quot;:null}" fill="#000000" stroke="none"/><path d="M243.78248,171.22962c0.08861,0.42976 0.0537,0.96568 -0.12953,0.98024c-0.09807,0.00779 -0.48817,-0.31411 -0.96791,-0.75088c-0.29417,-0.26782 -0.65787,-0.44975 -1.05604,-0.71191c-0.73587,-0.48451 -1.88016,-0.91637 -1.88016,-0.91637c0,0 0.63795,-0.19698 1.91534,-0.13463c0.87603,0.04276 1.72764,0.3181 1.72764,0.3181c0,0 0.19457,0.26441 0.39066,1.21544z" data-paper-data="{&quot;index&quot;:null}" fill="#ea750b" stroke="none"/><path d="M236.12568,177.9941c0,0 0.73462,0.0689 1.00755,0.4747c0.24402,0.3628 0.3372,0.6858 0.18441,1.31928c-0.16116,0.66819 -0.81936,0.93028 -1.1772,0.93911c-1.07221,0.02644 -1.68736,-0.99585 -1.28302,-2.1031c0.33038,-0.90469 1.20366,-1.1772 1.20366,-1.1772z" data-paper-data="{&quot;index&quot;:null}" fill="#ebc19b" stroke="none"/><path d="M238.98424,178.92832c0,0 -1.52047,1.54288 -1.87823,1.40206c-0.43547,-0.1714 -0.36412,-0.99162 -0.37054,-1.3967c-0.00845,-0.53368 0.07955,-1.77778 0.07955,-1.77778c0,0 0.54204,0.58354 0.92589,0.92589c0.38385,0.34234 1.24334,0.84652 1.24334,0.84652z" data-paper-data="{&quot;index&quot;:null}" fill="#fedeb5" stroke="none"/><path d="M238.86164,179.9974c-0.04636,0.23496 -0.0568,0.74767 -0.115,1.3676c-0.0582,0.61992 -0.2019,1.82592 -0.2019,1.82592c0,0 -0.54818,0.6366 -1.05982,-0.5171c-0.17688,-0.39883 0.24797,-2.79198 0.26832,-2.89511c0.13007,-0.65923 0.37086,-1.19838 0.78972,-1.0843c0.45919,0.12506 0.44875,0.64375 0.31868,1.303z" data-paper-data="{&quot;index&quot;:null}" fill="#fde1c0" stroke="none"/><path d="M239.3078,187.06761c0,0 -0.73223,1.59586 -1.46596,1.17728c-0.24369,-0.13902 -0.38637,-0.46875 -0.38637,-0.46875c0,0 -0.35259,0.08203 -0.56677,0.01268c-0.21417,-0.06936 -0.40435,-0.32716 -0.40435,-0.32716c0,0 -0.39158,0.02622 -0.57579,-0.05461c-0.18421,-0.08083 -0.31664,-0.33698 -0.31664,-0.33698c0,0 -0.99655,-0.11453 -0.30133,-2.05415c0.13634,-0.38037 0.60929,0.07587 0.60929,0.07587c0,0 0.87004,-1.67879 2.15488,-1.05616c1.98732,0.96303 1.85194,2.49066 1.85194,2.49066l-0.59889,0.54133z" data-paper-data="{&quot;index&quot;:null}" fill="#ffffff" stroke="#000000"/><path d="M236.60774,184.06169c-0.22603,-0.17385 -0.16026,-0.41967 -0.12628,-0.64695c0.03396,-0.22727 0.25932,-0.67864 0.25932,-0.67864c0,0 0.56207,-0.26839 1.03173,-0.07341c0.68057,0.28254 1.17479,0.87757 1.17479,0.87757c0,0 0.14798,0.59617 -0.2019,0.85966c-0.22028,0.16588 -1.46663,0.17793 -2.13767,-0.33822z" data-paper-data="{&quot;index&quot;:null}" fill="#fefefe" stroke="none"/><path d="M239.38416,186.54756c-0.01368,0.23252 -0.078,0.5496 -0.078,0.5496c0,0 -0.01953,-0.44283 -0.04011,-0.66281c-0.02057,-0.21998 -0.03438,-0.55289 -0.03438,-0.55289c0,0 0.17018,0.3653 0.15249,0.6661z" data-paper-data="{&quot;index&quot;:null}" fill="#000000" stroke="none"/><path d="M235.90316,186.28558c0,0 -0.13198,-0.37583 -0.08445,-0.67338c0.03675,-0.23 0.09211,-0.52289 0.09211,-0.52289c0,0 0.00527,0.36643 0.00385,0.58737c-0.00141,0.22094 -0.0115,0.60891 -0.0115,0.60891z" data-paper-data="{&quot;index&quot;:null}" fill="#000000" stroke="none"/><path d="M237.23613,183.66963c-0.25367,0.07893 -0.41601,-0.04852 -0.44456,-0.19054c-0.02856,-0.14203 0.10721,-0.43927 0.36088,-0.51819c0.25368,-0.07891 0.35769,0.06419 0.39043,0.20531c0.05808,0.25031 -0.05306,0.42451 -0.30673,0.50343z" data-paper-data="{&quot;index&quot;:null}" fill="#f7e300" stroke="none"/><path d="M244.76867,170.18491c0,0 3.021,-0.47294 4.17598,-0.53368c1.15498,-0.06074 1.30014,0.02324 2.03738,0.21223c0.73724,0.18899 1.28295,0.33414 1.77996,0.76636c0.49701,0.43223 1.69729,1.47879 1.22792,1.97388c-0.22577,0.23814 -1.86527,-0.53165 -2.70798,-0.66702c-0.84272,-0.13537 -1.52862,-0.09643 -2.18376,-0.11878c-1.41285,-0.04818 -4.3295,-1.63298 -4.3295,-1.63298z" data-paper-data="{&quot;index&quot;:null}" fill="#ea750b" stroke="none"/><path d="M248.04618,170.88097c0.35969,0.4721 1.29892,0.87024 1.29892,0.87024c0,0 -1.07683,0.10899 -1.83415,0.04082c-0.75732,-0.06816 -2.09423,-0.13475 -2.09423,-0.13475l-1.82571,-1.61689l2.44846,0.02065l0.75408,0.09043z" data-paper-data="{&quot;index&quot;:null}" fill="#fedeb5" stroke="none"/><path d="M237.28269,170.5031c0,0 -2.91665,1.5848 -4.3295,1.63298c-0.65514,0.02234 -1.34105,-0.01661 -2.18376,0.11877c-0.84272,0.13538 -2.48221,0.90517 -2.70798,0.66703c-0.46937,-0.49509 0.73091,-1.54165 1.22792,-1.97388c0.49701,-0.43222 1.04272,-0.57737 1.77996,-0.76637c0.73724,-0.18899 0.88239,-0.27296 2.03737,-0.21222c1.15498,0.06074 4.17598,0.53368 4.17598,0.53368z" data-paper-data="{&quot;index&quot;:null}" fill="#ea750b" stroke="none"/><path d="M235.2578,170.46965l0.75408,-0.09043l2.44846,-0.02065l-1.82571,1.61689c0,0 -1.33691,0.06659 -2.09423,0.13475c-0.75732,0.06817 -1.83415,-0.04082 -1.83415,-0.04082c0,0 0.93923,-0.39814 1.29892,-0.87024z" data-paper-data="{&quot;index&quot;:null}" fill="#fedeb5" stroke="none"/></g></g></svg>