<svg version="1.1" xmlns="http://www.w3.org/2000/svg" xmlns:xlink="http://www.w3.org/1999/xlink" width="285.09251" height="33.27733" viewBox="0,0,285.09251,33.27733"><g transform="translate(-132.97743,-160.76271)"><g data-paper-data="{&quot;isPaintingLayer&quot;:true}" fill-rule="nonzero" stroke="none" stroke-linejoin="miter" stroke-miterlimit="10" stroke-dasharray="" stroke-dashoffset="0" style="mix-blend-mode: normal"><g data-paper-data="{&quot;index&quot;:null}" stroke-linecap="butt"><path d="M368.86674,179.22295c2.3604,-0.107 6.17608,0.10358 6.05058,3.25153c0.02151,2.37785 -0.34117,4.35617 -0.53427,6.72528c-0.02559,0.97622 -0.61717,1.82877 -1.3363,2.44466c-0.78236,0.64869 -1.83874,0.78571 -2.78477,1.06996c-1.47716,0.38643 -3.0009,0.56747 -4.52567,0.49909c-1.87869,0.01514 -4.25088,-0.2256 -5.8945,-1.31502c-1.12247,-0.51295 -0.94806,-0.48558 -2.10741,-0.94961c-2.31663,-1.29661 -3.9349,-3.60682 -4.73161,-6.10656c-0.48887,-1.49429 0.05298,-4.2767 0.23072,-5.84604c6.12336,-3.24986 2.64923,0.05232 5.15261,5.43861c0.08811,0.04045 0.00884,-0.19695 0.02815,-0.24406c0.26014,-0.37878 -0.43742,-1.69052 -0.23895,-1.77604c0.91087,0.33879 1.17602,0.6122 1.68357,1.50224c0.98036,-0.04841 1.17963,0.4561 2.04267,-0.09015c1.18904,-0.74396 1.90621,-0.30649 2.94081,-1.24095c1.18546,-1.07279 2.5864,-2.62973 4.02435,-3.36296z" data-paper-data="{&quot;index&quot;:null}" fill="#54c81c" stroke-width="0.17188"/><path d="M365.67091,183.65961c0.17182,-0.4648 0.42125,-0.73649 0.64047,-1.05253c0.89224,-1.28609 1.65718,-1.33016 2.5512,-1.33016c1.25206,0 2.03595,1.62339 2.03595,3.16914c0,0.88277 0.00761,1.58298 0.08185,2.30747c0.02306,0.22381 -1.99533,0.57127 -3.2256,0.63043c-0.78827,0.03765 -1.66512,-0.04687 -2.31535,-0.04687c-0.62639,-0.0676 -0.30193,-2.98966 0.23152,-3.67752z" data-paper-data="{&quot;index&quot;:null}" fill="#ffffff" stroke-width="0.17188"/><path d="M356.04228,180.44175c1.51763,0.51986 2.01624,1.38545 2.22188,2.75915c0.32678,0.74729 0.0666,3.60397 -0.45251,3.59146c-0.52729,-0.08246 -1.14475,-0.18179 -1.77857,-0.31933c-0.98954,-0.21463 -1.1633,-0.38144 -1.22353,-0.64106c-0.08311,-0.22703 -0.05007,-0.60176 -0.13682,-1.02125c-0.08824,-0.42719 -0.08824,-0.85486 -0.09368,-1.56807c-0.00483,-0.66149 0.09915,-1.39008 0.25457,-1.87997c0.22225,-0.69862 0.58717,-1.02261 1.20873,-0.92093z" data-paper-data="{&quot;index&quot;:null}" fill="#ffffff" stroke-width="0.17188"/><path d="M353.38481,169.11504c1.38933,1.0774 -1.22684,7.41648 -2.88822,7.20109c-1.49942,-0.92553 -2.63675,-2.72689 -2.97735,-4.1226c-0.03126,-0.1278 0.1206,-0.4807 0.1206,-0.4807c-0.22893,0.05864 0.07383,-0.221 0.09708,-0.46123c0.0182,-0.18898 -0.18309,-0.58901 -0.18309,-0.58901c-0.10497,0.07475 0.44921,-0.22847 0.65253,-0.42668c0.16801,-0.16365 0.09069,-0.26892 0.22974,-0.37007c0.97574,-0.71344 2.63879,-1.07531 4.94876,-0.75084z" data-paper-data="{&quot;index&quot;:null}" fill="#54c81c" stroke-width="0.17188"/><path d="M374.44152,185.77288c-0.41506,-6.0618 -3.75646,-8.45534 -8.83815,-2.91472c-1.83038,1.58457 -5.84989,2.69909 -7.25579,-0.34175c-0.18981,-0.21306 -0.01959,0.25044 0.17325,0.8451c1.5504,4.06804 -1.85905,-1.80437 -2.8272,-2.8862c-3.96544,-5.30888 -2.96532,8.18959 2.38317,10.41277c-0.25967,-0.36569 -0.27505,2.61958 -1.03974,3.00449c-0.54572,0.2753 -3.22419,-4.46116 -3.50334,-5.47222l-1.59548,-5.77313c-0.46764,-1.69047 0.37056,-6.47095 0.61564,-7.33964l0.47863,-1.69714c0.88146,-2.00648 2.13785,-3.79428 3.82706,-5.32955c0.10756,-0.09783 1.66921,-1.87969 4.44629,-2.81624c1.75374,-0.59157 4.68652,-0.68865 4.91675,-0.69172c1.35013,-0.01792 3.98454,-0.095 6.39133,0.43281c1.53092,0.33572 2.89465,1.09684 4.01914,1.6915c1.36984,3.13484 -1.19529,10.67673 3.29241,9.42969c0.19027,0.00461 1.70324,1.15878 1.83486,1.27581c0.46377,0.41255 0.23328,2.81569 0.13905,3.28822l-0.49552,2.48693c-0.15979,0.80105 -0.20179,1.25278 -0.70526,2.35529c-0.69018,1.51303 -1.38703,3.02367 -2.47286,4.40481c-0.87735,1.1163 -5.11808,4.26807 -5.03813,3.86702l0.67506,-3.41142l0.5788,-4.82071z" data-paper-data="{&quot;index&quot;:null}" fill="#54c81c" stroke-width="0.17188"/><path d="M384.19826,175.8561c-2.5878,0.88432 -5.94795,-4.52907 -5.94795,-4.52907c0,-0.97674 2.38901,-2.97247 5.10976,-2.69716c2.07949,0.21078 3.4386,0.90708 4.12007,1.77372c0.09722,0.1237 0.00558,0.20308 0.1134,0.39005c0.13084,0.22588 0.54131,0.62513 0.46762,0.53345c0,0 -0.26764,0.32219 -0.29551,0.49889c-0.0359,0.22485 0.16287,0.54752 -0.0223,0.44355c0,0 0.05003,0.35649 -0.0068,0.4666c-0.61899,1.20313 -2.02313,2.60193 -3.53844,3.12z" data-paper-data="{&quot;index&quot;:null}" fill="#54c81c" stroke-width="0.17188"/><path d="M376.2594,173.07034c0.16896,-2.25441 0.79593,-4.58549 3.0012,-5.93064c0.77162,-0.04355 1.46305,0.20254 2.11405,0.38873c1.34296,0.3839 2.28667,0.93017 1.8152,1.11198c-1.3123,2.19579 -1.12215,3.81138 1.08682,7.28663c0.34545,0.17875 -0.57751,0.77648 -1.6198,1.20646c-0.89967,0.37159 -1.52555,0.92887 -1.84159,1.02465c-1.90633,0.5481 -4.19088,-2.43149 -4.55588,-5.0878z" data-paper-data="{&quot;index&quot;:null}" fill="#54c81c" stroke-width="0.17188"/><path d="M374.33056,172.97918c0.07323,-3.3241 1.42235,-7.10351 3.69697,-6.02076c3.94005,1.14825 0.04334,1.29214 -0.68779,3.25713c-0.46531,1.25053 -0.26946,2.68358 0.48601,5.03042c0.07964,0.2461 1.11849,0.51792 1.68497,1.13948c0.86792,0.95292 2.97593,0.91581 2.42225,1.24669c-3.37494,2.01539 -6.43151,-0.81096 -7.6024,-4.65296z" data-paper-data="{&quot;index&quot;:null}" fill="#54c81c" stroke-width="0.17188"/><path d="M354.32375,171.34404c-0.19923,0.6889 -0.74148,3.05577 -0.74148,3.05577c-0.10882,-0.33627 -1.03976,-1.75594 -1.04792,-2.05814c-0.02024,-0.69864 1.44624,-2.85611 2.69573,-4.03006l0.71066,-0.66738c0.34982,-0.32881 1.63081,-0.66509 1.88025,-0.50527c0.29937,0.39516 -0.53261,1.62502 -1.56853,3.03482c-0.49658,0.67583 -1.92872,1.17025 -1.92872,1.17025z" data-paper-data="{&quot;index&quot;:null}" fill="#54c81c" stroke-width="0.17188"/><path d="M353.93643,171.14013c-0.15008,0.3552 -0.6912,2.10613 -0.92962,2.96991l0.2664,4.20852c-0.06912,0.25047 -3.17557,-1.95797 -3.04042,-2.72164c-0.33241,-0.86561 -0.05384,-1.60852 0.05711,-2.38448c0.36929,-0.84869 1.06432,-2.00238 1.52888,-2.46951c0.37413,-0.37619 -0.06553,-1.57217 0.25611,-2.0677c0.48379,-0.74627 3.59838,-0.66304 3.59838,-0.66304z" data-paper-data="{&quot;index&quot;:null}" fill="#54c81c" stroke-width="0.17188"/><path d="M368.94496,186.79637c-0.62654,0 -1.13447,-1.07448 -1.13447,-2.39991c0,-1.32542 0.50793,-2.3999 1.13447,-2.3999c0.62653,0 1.13448,1.07447 1.13448,2.3999c0,1.32543 -0.50794,2.39991 -1.13448,2.39991z" fill="#54c81c" stroke-width="0"/><path d="M356.95779,186.34114c-0.62658,0 -1.13451,-1.07447 -1.13451,-2.3999c0,-1.32542 0.50795,-2.3999 1.13451,-2.3999c0.62656,0 1.13451,1.07447 1.13451,2.3999c0,1.32544 -0.50795,2.3999 -1.13451,2.3999z" fill="#54c81c" stroke-width="0"/></g><path d="M171.65335,193.57356v-27.58486h13.9816c5.70676,0 8.56016,2.40821 8.56016,7.22462v1.31356c0,5.25426 -2.8534,7.88139 -8.56016,7.88139h-5.70676v11.16528zM183.35224,177.15401c1.52179,0 2.2827,-0.87572 2.2827,-2.62713v-1.31356c0,-1.31357 -0.76091,-1.97037 -2.2827,-1.97037h-3.42406v5.91106z" fill="#ff0000" stroke-width="0.26458" stroke-linecap="butt"/><path d="M197.04848,193.57356v-27.58486h8.56016v19.70347h11.41353v7.88139z" fill="#ff0000" stroke-width="0.26458" stroke-linecap="butt"/><path d="M219.87554,193.57356l7.13348,-27.58486h12.84021l7.13348,27.58486h-8.27483l-1.42669,-5.25426h-7.98947l-1.14135,5.25426zM235.56915,181.09471l-2.14002,-8.2098l-2.14003,8.2098z" fill="#ff0000" stroke-width="0.26458" stroke-linecap="butt"/><path d="M256.68419,181.09471l-6.84812,-15.10601h7.98947l2.85339,9.52333l2.85337,-9.52333h7.98947l-6.84812,15.10601v12.47885h-7.98947z" fill="#ff0000" stroke-width="0.26458" stroke-linecap="butt"/><path d="M274.37517,193.57356v-27.58486h19.97369v7.88139h-11.41356v1.97036h11.41356v7.88139h-11.41356v1.97033h11.41356v7.88139z" fill="#ff0000" stroke-width="0.26458" stroke-linecap="butt"/><path d="M297.20223,193.57356v-27.58486h13.9816c5.70676,0 8.56013,2.40821 8.56013,7.22462v1.31356c0,3.50285 -1.23646,5.80156 -3.70939,6.89621c0.76091,0.43785 1.52179,1.42303 2.2827,2.95552l2.2827,9.19495h-8.56016l-1.71202,-7.55297c-0.38047,-1.97036 -1.42671,-2.95555 -3.13872,-2.95555h-1.71202v10.50852zM308.90112,177.15401c1.52179,0 2.2827,-0.87572 2.2827,-2.62713v-1.31356c0,-1.31357 -0.76091,-1.97037 -2.2827,-1.97037h-3.42406v5.91106z" fill="#ff0000" stroke-width="0.26458" stroke-linecap="butt"/><path d="M325.73609,193.57356c-0.95113,-0.21892 -1.71204,-0.43785 -2.2827,-0.65677l1.14135,-6.56782l3.42406,0.32838c2.66315,0.21892 4.75563,0.21892 6.27743,0c0.76091,-0.43785 1.14135,-1.09461 1.14135,-1.97033c-0.19022,-0.87572 -1.90224,-1.31357 -5.13608,-1.31357c-2.8534,-0.43788 -4.85077,-1.64197 -5.99212,-3.61231c-0.57066,-1.53249 -0.85599,-3.28393 -0.85599,-5.25426c0,-3.065 0.95113,-5.36375 2.85337,-6.89624c1.33157,-1.09464 3.70939,-1.64195 7.13345,-1.64195c3.42406,0 6.84815,0.32839 10.2722,0.98518l-1.14135,6.23944c-3.99475,-0.21896 -6.75304,-0.32842 -8.27483,-0.32842c-1.33157,0.21896 -1.99737,0.76626 -1.99737,1.64198c-0.19022,1.53249 0.85602,2.29872 3.13873,2.29872c3.23384,0 5.61168,0.6568 7.13348,1.97036c1.14135,1.09464 1.71202,2.95552 1.71202,5.58264c0,2.27686 -0.47556,4.24722 -1.42669,5.91106c-0.95113,1.97033 -3.32895,3.17443 -7.13348,3.61231c-3.23384,0.21892 -6.56276,0.10946 -9.98682,-0.32841z" fill="#ff0000" stroke-width="0.26458" stroke-linecap="butt"/><path d="M174.0105,193.64388v-23.15519h13.50721c5.51314,0 8.26972,2.02149 8.26972,6.06447v1.10263c0,4.41051 -2.75658,6.61577 -8.26972,6.61577h-5.51314v9.37233zM185.31246,179.86104c1.47016,0 2.20526,-0.73509 2.20526,-2.20526v-1.10263c0,-1.10263 -0.73509,-1.65396 -2.20526,-1.65396h-3.30788v4.96184z" fill="#71ff33" stroke-width="0.26458" stroke-linecap="butt"/><path d="M198.544,193.64388v-23.15519h8.26972v16.53942h11.02628v6.61577z" fill="#71ff33" stroke-width="0.26458" stroke-linecap="butt"/><path d="M220.59656,193.64388l6.89145,-23.15519h12.40456l6.89145,23.15519h-7.99407l-1.37828,-4.41051h-7.7184l-1.10263,4.41051zM235.7577,183.16893l-2.06742,-6.89145l-2.06742,6.89145z" fill="#71ff33" stroke-width="0.26458" stroke-linecap="butt"/><path d="M256.15633,183.16893l-6.61577,-12.68024h7.7184l2.75658,7.99405l2.75656,-7.99405h7.7184l-6.61577,12.68024v10.47495h-7.7184z" fill="#71ff33" stroke-width="0.26458" stroke-linecap="butt"/><path d="M273.24708,193.64388v-23.15519h19.29601v6.61577h-11.02631v1.65396h11.02631v6.61577h-11.02631v1.65393h11.02631v6.61577z" fill="#71ff33" stroke-width="0.26458" stroke-linecap="butt"/><path d="M295.29965,193.64388v-23.15519h13.50721c5.51314,0 8.2697,2.02149 8.2697,6.06447v1.10263c0,2.94035 -1.19451,4.86993 -3.58353,5.78879c0.73509,0.36753 1.47016,1.19451 2.20526,2.48091l2.20526,7.7184h-8.26972l-1.65393,-6.34009c-0.36756,-1.65396 -1.37831,-2.48093 -3.03223,-2.48093h-1.65393v8.82102zM306.60159,179.86104c1.47016,0 2.20526,-0.73509 2.20526,-2.20526v-1.10263c0,-1.10263 -0.73509,-1.65396 -2.20526,-1.65396h-3.30788v4.96184z" fill="#71ff33" stroke-width="0.26458" stroke-linecap="butt"/><path d="M322.86537,193.64388c-0.91886,-0.18377 -1.65396,-0.36753 -2.20526,-0.5513l1.10263,-5.51314l3.30788,0.27565c2.57279,0.18377 4.59428,0.18377 6.06444,0c0.73509,-0.36753 1.10263,-0.91883 1.10263,-1.65393c-0.18377,-0.73509 -1.8377,-1.10263 -4.96181,-1.10263c-2.75658,-0.36756 -4.68619,-1.37831 -5.78882,-3.03223c-0.5513,-1.2864 -0.82695,-2.75658 -0.82695,-4.41051c0,-2.57282 0.91886,-4.50242 2.75656,-5.78882c1.2864,-0.91886 3.58353,-1.37828 6.89142,-1.37828c3.30788,0 6.6158,0.27565 9.92368,0.82698l-1.10263,5.23749c-3.85921,-0.18379 -6.52391,-0.27568 -7.99407,-0.27568c-1.2864,0.18379 -1.92961,0.64321 -1.92961,1.37831c-0.18377,1.2864 0.82698,1.92958 3.03223,1.92958c3.12412,0 5.42128,0.55133 6.89145,1.65396c1.10263,0.91886 1.65393,2.48091 1.65393,4.68616c0,1.91123 -0.45942,3.56518 -1.37828,4.96184c-0.91886,1.65393 -3.216,2.66467 -6.89145,3.03223c-3.12412,0.18377 -6.34009,0.09188 -9.64798,-0.27568z" fill="#71ff33" stroke-width="0.26458" stroke-linecap="butt"/><path d="M374.27272,175.94511c-2.60517,0.89025 -5.98787,-4.55946 -5.98787,-4.55946c0,-0.98331 2.40504,-2.99241 5.14405,-2.71526c2.09344,0.2122 3.46167,0.91316 4.14772,1.78562c0.09794,0.12454 0.00564,0.20443 0.1142,0.39266c0.13172,0.2274 0.545,0.62933 0.47075,0.53704c0,0 -0.26941,0.32433 -0.29749,0.50222c-0.03584,0.22636 0.16399,0.5512 -0.02243,0.44653c0,0 0.05053,0.35888 -0.00671,0.46973c-0.62313,1.21121 -2.0367,2.61939 -3.56218,3.14095z" data-paper-data="{&quot;index&quot;:null}" fill="#54c81c" stroke-width="0.17188" stroke-linecap="butt"/><path d="M369.88652,185.09351c-0.75825,-0.91023 -1.51945,-1.98607 -1.90206,-3.99494c-0.7305,-3.83536 -0.2722,-4.39528 -0.2722,-4.39528c-0.20111,-1.84457 -2.07112,-4.61114 -2.83434,-8.23694c-0.76322,-3.6258 -1.18418,-6.98545 -0.45776,-7.57208c0.68984,-0.55708 5.16443,0.71679 8.02759,2.65607c2.35136,1.59262 4.35785,3.60772 4.47805,3.75529c0.35999,0.44198 1.60009,0.38091 2.74301,0.40123c1.14292,0.02032 2.39159,0.32017 2.88836,0.02742c0.36042,-0.2124 1.77401,-2.25758 3.44844,-3.47604c2.87532,-2.09232 6.70463,-3.65187 7.10635,-3.06711c0.36976,0.53823 -0.15445,3.50885 -1.03218,5.84252c-0.47406,1.26042 -1.30687,3.68827 -1.65295,4.58149c-0.62229,1.42609 0.2457,1.28556 0.40026,4.07784c0.25379,4.58506 0.349,8.3163 -1.73879,11.45196c-1.70853,2.56436 -6.60885,1.17876 -9.37969,0.47762c-3.75214,-0.95 -7.13593,0.69532 -9.82208,-2.52905z" data-paper-data="{&quot;index&quot;:null}" fill="#f8b820" stroke-width="1" stroke-linecap="round"/><path d="M386.44568,177.7021c0.04749,-0.76174 -0.00703,-2.06784 0.52768,-2.22948c0.54526,-0.15978 1.35085,0.72644 1.67097,1.39343c0.53999,1.12218 0.92519,2.43385 0.96741,3.71581c-0.04222,1.97309 -0.13016,4.08366 -0.96741,5.85238c-0.27262,0.57595 -1.41064,0.51086 -1.75891,-0.0911c-0.56813,-0.98655 -0.35707,-2.7682 -0.43973,-3.90338c-0.11609,-1.57178 -0.09498,-3.19744 0,-4.73764z" data-paper-data="{&quot;index&quot;:null}" fill="#ffffff" stroke-width="1" stroke-linecap="round"/><path d="M377.32562,177.53643c0.49431,-0.98183 1.22266,-2.16164 2.24684,-2.32326c0.91559,-0.14545 1.92105,0.62829 2.43408,1.41416c0.7658,1.39194 1.02044,3.09903 1.12342,4.64653c0.11796,1.75558 0.21907,4.2116 -0.56171,5.74091c-0.45312,0.88688 -1.69075,0.66929 -2.62132,0.62282c-1.04666,-0.05253 -2.92626,0.22788 -3.46737,-0.76203c-0.75644,-1.42022 -0.23404,-3.79939 -0.09129,-5.37508c0.14274,-1.57569 0.34006,-2.77816 0.93735,-3.96404z" data-paper-data="{&quot;index&quot;:null}" fill="#ffffff" stroke-width="1" stroke-linecap="round"/><path d="M388.08484,173.68865l5.27915,-0.09284l3.9401,4.15234l-4.06787,-2.39815l-5.23348,-0.50477z" data-paper-data="{&quot;index&quot;:null}" fill="#f8b820" stroke-width="1.22222" stroke-linecap="round"/><path d="M369.84712,185.86467c-0.44776,-1.1543 -5.10807,-1.95676 -5.10807,-1.95676c0,0 3.44123,-0.81522 6.82953,0.12243c2.59801,0.71894 2.59273,1.45674 4.4405,2.28423c0.56208,0.25172 2.86687,0.73029 3.77174,0.95639c2.03937,0.50863 4.29417,-0.87763 6.4628,-0.99731c0.63751,-0.03568 1.53192,0.54346 2.27019,0.39895c1.34578,-0.26343 1.54824,-1.14853 2.91919,-1.11657c0.77708,0.01811 1.36419,0.23457 1.36419,0.23457c0,0 -0.7687,0.31788 -1.23171,0.66515c-0.46301,0.34727 -0.98103,1.11219 -0.98103,1.11219c0,0 0.93248,0.04761 1.37127,0.19299c0.51936,0.17208 1.54412,0.77297 1.54412,0.77297c0,0 -1.23353,0.03975 -1.73343,0.2635c-0.48416,0.21671 -1.37727,0.53521 -1.37727,0.53521c0,0 0.75923,0.24934 1.41345,0.67329c0.65423,0.42395 1.15403,1.71439 1.15403,1.71439c0,0 -1.51157,-0.74956 -1.99657,-0.81907c-0.48499,-0.0695 -0.64911,0.24339 -0.99291,0.2558c-0.09816,0.00355 0.25524,0.51624 0.56126,1.09816c0.30602,0.58192 0.49418,1.6106 0.49418,1.6106c0,0 -1.31626,-1.23315 -1.8398,-1.45576c-0.47472,-0.20185 -1.10657,-0.45171 -1.10657,-0.45171c0,0 -3.59727,1.10502 -4.88445,1.2965c-0.71763,0.14119 -2.02344,0.28091 -3.42797,0.21703c-1.69089,-0.0769 -3.52486,-0.39606 -4.64788,-0.66446c-2.05584,-0.49135 -1.75478,-0.61407 -3.32956,-1.39535c-0.16102,-0.07989 -1.0071,-0.47673 -2.04057,0.03073c-1.03346,0.50746 -2.35507,1.62753 -2.35507,1.62753c0,0 1.90383,-2.98689 1.61557,-3.04474c-0.18767,-0.03766 -0.6407,-0.24721 -1.63185,-0.04974c-0.99115,0.19747 -2.44215,0.8614 -2.44215,0.8614c0,0 0.99785,-1.61777 1.8758,-2.07382c0.87795,-0.45605 1.96091,-0.65235 1.96091,-0.65235c0,0 -0.41489,-0.35385 -1.57334,-0.74445c-1.15844,-0.3906 -3.07928,-0.57528 -3.07928,-0.57528c0,0 1.5773,-0.87655 2.75341,-1.06673c1.17611,-0.19017 3.01394,0.52856 2.97736,0.14008z" data-paper-data="{&quot;index&quot;:null}" fill="#f8b820" stroke-width="1" stroke-linecap="round"/><path d="M378.92624,178.69268c0.30201,0 0.57426,0.2964 0.7731,0.77491c0.19678,0.4807 0.31999,1.14131 0.31999,1.87175c0,0.73043 -0.1232,1.39104 -0.31999,1.87175c-0.19885,0.47851 -0.47109,0.77491 -0.7731,0.77491c-0.3022,0 -0.57444,-0.2964 -0.77329,-0.77491c-0.1966,-0.4807 -0.31999,-1.14132 -0.31999,-1.87175c0,-0.73043 0.12339,-1.39104 0.31999,-1.87175c0.19885,-0.47851 0.47109,-0.77491 0.77329,-0.77491z" data-paper-data="{&quot;index&quot;:null}" fill="#f8b820" stroke-width="1.0615" stroke-linecap="butt"/><path d="M132.97743,166.63019c2.13836,-0.21384 4.59748,-0.42766 7.37733,-0.64149c3.42137,0 6.30815,0.32074 8.66034,0.96223c3.42137,0.64153 5.55971,2.4591 6.41506,5.45282c0,4.91822 -1.49685,7.37733 -4.49056,7.37733c2.77985,0.21384 4.27669,1.71067 4.49056,4.49053v0.96227c0,3.63521 -1.22953,5.88046 -3.68865,6.7358c-2.4591,0.85535 -6.25468,1.38992 -11.38675,1.60376c-2.35219,0 -4.81131,-0.21383 -7.37733,-0.64149l2.56602,-7.05659c2.13836,0.85535 3.95595,1.12263 5.4528,0.80188c1.49685,-0.32075 2.35218,-1.22953 2.56602,-2.72638c-0.21384,-1.06918 -1.06918,-1.65724 -2.56602,-1.76415c-1.49685,-0.10697 -3.52829,0.05341 -6.09431,0.48114v-4.8113c2.56602,0.21384 4.59747,0.21384 6.09431,0c1.49685,-0.21384 2.35219,-0.96227 2.56603,-2.24528c-0.42766,-1.49685 -1.55032,-2.19179 -3.36791,-2.08488c-1.81759,0.10697 -3.47482,0.5881 -4.97165,1.4434z" fill="#ff0000" stroke-width="0.26458" stroke-linecap="butt"/><path d="M387.41772,172.55004c0,0 3.96676,-2.88584 4.5221,-2.94514c0.79165,-0.08455 5.13441,2.41357 5.13441,2.41357l-5.22584,-0.55815l-3.56351,2.24702z" data-paper-data="{&quot;index&quot;:null}" fill="#f8b820" stroke-width="1.22222" stroke-linecap="round"/><path d="M385.63211,171.649c0,0 3.1234,-4.51439 3.67997,-4.94747c0.91793,-0.71426 7.10651,-1.49096 7.10651,-1.49096c0,0 -5.32516,2.49656 -6.70352,3.54662c-1.37837,1.05006 -2.60996,3.54854 -2.60996,3.54854z" data-paper-data="{&quot;index&quot;:null}" fill="#f8b820" stroke-width="1.22222" stroke-linecap="round"/><path d="M387.42499,178.53754c0.30201,0 0.57426,0.2964 0.7731,0.77491c0.19678,0.4807 0.31999,1.14131 0.31999,1.87175c0,0.73043 -0.1232,1.39104 -0.31999,1.87175c-0.19885,0.47851 -0.47109,0.77491 -0.7731,0.77491c-0.3022,0 -0.57444,-0.2964 -0.77329,-0.77491c-0.1966,-0.4807 -0.31999,-1.14132 -0.31999,-1.87175c0,-0.73043 0.12339,-1.39104 0.31999,-1.87175c0.19885,-0.47851 0.47109,-0.77491 0.77329,-0.77491z" data-paper-data="{&quot;index&quot;:null}" fill="#f8b820" stroke-width="1.0615" stroke-linecap="butt"/><path d="M137.84428,170.76429c1.83772,-0.18377 3.9511,-0.36754 6.34013,-0.5513c2.94035,0 5.42126,0.27564 7.44275,0.82695c2.94035,0.55133 4.77805,2.11337 5.51315,4.68619c0,4.22674 -1.2864,6.34013 -3.85921,6.34013c2.38903,0.18377 3.67542,1.47016 3.85921,3.85918v0.82698c0,3.12412 -1.05667,5.0537 -3.17005,5.7888c-2.11337,0.7351 -5.37531,1.1945 -9.78585,1.37828c-2.02149,0 -4.13486,-0.18377 -6.34012,-0.55131l2.20526,-6.06447c1.83772,0.7351 3.39977,0.9648 4.68617,0.68914c1.2864,-0.27566 2.02148,-1.05667 2.20526,-2.34307c-0.18377,-0.91886 -0.91886,-1.42424 -2.20525,-1.51612c-1.2864,-0.09193 -3.03223,0.04591 -5.23749,0.4135v-4.13487c2.20526,0.18377 3.9511,0.18377 5.23749,0c1.2864,-0.18377 2.02148,-0.82698 2.20526,-1.9296c-0.36754,-1.2864 -1.33235,-1.88365 -2.8944,-1.79176c-1.56205,0.09193 -2.98628,0.50542 -4.27267,1.24047z" fill="#71ff33" stroke-width="0.26458" stroke-linecap="butt"/><g data-paper-data="{&quot;index&quot;:null}" stroke-linecap="butt"><path d="M396.71821,179.22293c1.43795,0.73323 2.83889,2.29017 4.02435,3.36296c1.0346,0.93446 1.75177,0.49699 2.94081,1.24095c0.86304,0.54625 1.06231,0.04174 2.04267,0.09015c0.50755,-0.89004 0.7727,-1.16345 1.68357,-1.50224c0.19847,0.08552 -0.49909,1.39726 -0.23895,1.77604c0.01931,0.04711 -0.05996,0.28451 0.02815,0.24406c2.50338,-5.38629 -0.97075,-8.68847 5.15261,-5.43861c0.17774,1.56934 0.71959,4.35175 0.23072,5.84604c-0.79671,2.49974 -2.41498,4.80995 -4.73161,6.10656c-1.15935,0.46403 -0.98494,0.43666 -2.10741,0.94961c-1.64362,1.08942 -4.01581,1.33016 -5.8945,1.31502c-1.52477,0.06838 -3.04851,-0.11266 -4.52567,-0.49909c-0.94603,-0.28425 -2.00241,-0.42127 -2.78477,-1.06996c-0.71913,-0.61589 -1.31071,-1.46844 -1.3363,-2.44466c-0.1931,-2.36911 -0.55578,-4.34743 -0.53427,-6.72528c-0.1255,-3.14795 3.69018,-3.35853 6.05058,-3.25153z" data-paper-data="{&quot;index&quot;:null}" fill="#54c81c" stroke-width="0.17188"/><path d="M399.91399,183.65957c0.53345,0.68786 0.85791,3.60992 0.23152,3.67752c-0.65023,0 -1.52708,0.08452 -2.31535,0.04687c-1.23027,-0.05916 -3.24866,-0.40662 -3.2256,-0.63043c0.07424,-0.72449 0.08185,-1.4247 0.08185,-2.30747c0,-1.54575 0.78389,-3.16914 2.03595,-3.16914c0.89402,0 1.65896,0.04407 2.5512,1.33016c0.21922,0.31604 0.46865,0.58773 0.64047,1.05253z" data-paper-data="{&quot;index&quot;:null}" fill="#ffffff" stroke-width="0.17188"/><path d="M409.54259,180.44175c0.62156,-0.10168 0.98648,0.22231 1.20873,0.92093c0.15542,0.48989 0.2594,1.21848 0.25457,1.87997c-0.00544,0.71321 -0.00544,1.14088 -0.09368,1.56807c-0.08675,0.41949 -0.05371,0.79422 -0.13682,1.02125c-0.06023,0.25962 -0.23399,0.42643 -1.22353,0.64106c-0.63382,0.13754 -1.25128,0.23687 -1.77857,0.31933c-0.51911,0.01251 -0.77929,-2.84417 -0.45251,-3.59146c0.20564,-1.3737 0.70425,-2.23929 2.22188,-2.75915z" data-paper-data="{&quot;index&quot;:null}" fill="#ffffff" stroke-width="0.17188"/><path d="M412.20008,169.115c2.30997,-0.32447 3.97302,0.0374 4.94876,0.75084c0.13905,0.10115 0.06173,0.20642 0.22974,0.37007c0.20332,0.19821 0.7575,0.50143 0.65253,0.42668c0,0 -0.20129,0.40003 -0.18309,0.58901c0.02325,0.24023 0.32601,0.51987 0.09708,0.46123c0,0 0.15186,0.3529 0.1206,0.4807c-0.3406,1.39571 -1.47793,3.19707 -2.97735,4.1226c-1.66138,0.21539 -4.27755,-6.12369 -2.88822,-7.20109z" data-paper-data="{&quot;index&quot;:null}" fill="#54c81c" stroke-width="0.17188"/><path d="M391.14345,185.77288l0.5788,4.82071l0.67506,3.41142c0.07995,0.40105 -4.16078,-2.75072 -5.03813,-3.86702c-1.08583,-1.38114 -1.78268,-2.89178 -2.47286,-4.40481c-0.50347,-1.10251 -0.54547,-1.55424 -0.70526,-2.35529l-0.49552,-2.48693c-0.09423,-0.47253 -0.32472,-2.87567 0.13905,-3.28822c0.13162,-0.11703 1.64459,-1.2712 1.83486,-1.27581c4.4877,1.24704 1.92257,-6.29485 3.29241,-9.42969c1.12449,-0.59466 2.48822,-1.35578 4.01914,-1.6915c2.40679,-0.52781 5.0412,-0.45073 6.39133,-0.43281c0.23023,0.00307 3.16301,0.10015 4.91675,0.69172c2.77708,0.93655 4.33873,2.71841 4.44629,2.81624c1.68921,1.53527 2.9456,3.32307 3.82706,5.32955l0.47863,1.69714c0.24508,0.86869 1.08328,5.64917 0.61564,7.33964l-1.59548,5.77313c-0.27915,1.01106 -2.95762,5.74752 -3.50334,5.47222c-0.76469,-0.38491 -0.78007,-3.37018 -1.03974,-3.00449c5.34849,-2.22318 6.34861,-15.72165 2.38317,-10.41277c-0.96815,1.08183 -4.3776,6.95424 -2.8272,2.8862c0.19284,-0.59466 0.36306,-1.05816 0.17325,-0.8451c-1.4059,3.04084 -5.42541,1.92632 -7.25579,0.34175c-5.08169,-5.54062 -8.42309,-3.14708 -8.83815,2.91472z" data-paper-data="{&quot;index&quot;:null}" fill="#54c81c" stroke-width="0.17188"/><path d="M381.38683,175.85613c-1.51531,-0.51807 -2.91945,-1.91687 -3.53844,-3.12c-0.05683,-0.11011 -0.0068,-0.4666 -0.0068,-0.4666c-0.18517,0.10397 0.0136,-0.2187 -0.0223,-0.44355c-0.02787,-0.1767 -0.29551,-0.49889 -0.29551,-0.49889c-0.07369,0.09168 0.33678,-0.30757 0.46762,-0.53345c0.10782,-0.18697 0.01618,-0.26635 0.1134,-0.39005c0.68147,-0.86664 2.04058,-1.56294 4.12007,-1.77372c2.72075,-0.27531 5.10976,1.72042 5.10976,2.69716c0,0 -3.36015,5.41339 -5.94795,4.52907z" data-paper-data="{&quot;index&quot;:null}" fill="#54c81c" stroke-width="0.17188"/><path d="M389.32554,173.07035c-0.365,2.65631 -2.64955,5.6359 -4.55588,5.0878c-0.31604,-0.09578 -0.94192,-0.65306 -1.84159,-1.02465c-1.04229,-0.42998 -1.96525,-1.02771 -1.6198,-1.20646c2.20897,-3.47525 2.39912,-5.09084 1.08682,-7.28663c-0.47147,-0.18181 0.47224,-0.72808 1.8152,-1.11198c0.651,-0.18619 1.34243,-0.43228 2.11405,-0.38873c2.20527,1.34515 2.83224,3.67623 3.0012,5.93064z" data-paper-data="{&quot;index&quot;:null}" fill="#54c81c" stroke-width="0.17188"/><path d="M391.25437,172.97918c-1.17089,3.842 -4.22746,6.66835 -7.6024,4.65296c-0.55368,-0.33088 1.55433,-0.29377 2.42225,-1.24669c0.56648,-0.62156 1.60533,-0.89338 1.68497,-1.13948c0.75547,-2.34684 0.95132,-3.77989 0.48601,-5.03042c-0.73113,-1.96499 -4.62784,-2.10888 -0.68779,-3.25713c2.27462,-1.08275 3.62374,2.69666 3.69697,6.02076z" data-paper-data="{&quot;index&quot;:null}" fill="#54c81c" stroke-width="0.17188"/><path d="M411.2612,171.34403c0,0 -1.43214,-0.49442 -1.92872,-1.17025c-1.03592,-1.4098 -1.8679,-2.63966 -1.56853,-3.03482c0.24944,-0.15982 1.53043,0.17646 1.88025,0.50527l0.71066,0.66738c1.24949,1.17395 2.71597,3.33142 2.69573,4.03006c-0.00816,0.3022 -0.9391,1.72187 -1.04792,2.05814c0,0 -0.54225,-2.36687 -0.74148,-3.05577z" data-paper-data="{&quot;index&quot;:null}" fill="#54c81c" stroke-width="0.17188"/><path d="M409.91166,168.01219c0,0 3.11459,-0.08323 3.59838,0.66304c0.32164,0.49553 -0.11802,1.69151 0.25611,2.0677c0.46456,0.46713 1.15959,1.62082 1.52888,2.46951c0.11095,0.77596 0.38952,1.51887 0.05711,2.38448c0.13515,0.76367 -2.9713,2.97211 -3.04042,2.72164l0.2664,-4.20852c-0.23842,-0.86378 -0.77954,-2.61471 -0.92962,-2.96991z" data-paper-data="{&quot;index&quot;:null}" fill="#54c81c" stroke-width="0.17188"/><path d="M395.5055,184.39646c0,-1.32543 0.50795,-2.3999 1.13448,-2.3999c0.62654,0 1.13447,1.07448 1.13447,2.3999c0,1.32543 -0.50793,2.39991 -1.13447,2.39991c-0.62654,0 -1.13448,-1.07448 -1.13448,-2.39991z" fill="#54c81c" stroke-width="0"/><path d="M407.49264,183.94124c0,-1.32543 0.50795,-2.3999 1.13451,-2.3999c0.62656,0 1.13451,1.07448 1.13451,2.3999c0,1.32543 -0.50793,2.3999 -1.13451,2.3999c-0.62656,0 -1.13451,-1.07446 -1.13451,-2.3999z" fill="#54c81c" stroke-width="0"/></g></g></g></svg>