<svg version="1.1" xmlns="http://www.w3.org/2000/svg" xmlns:xlink="http://www.w3.org/1999/xlink" width="25.77983" height="39.03131" viewBox="0,0,25.77983,39.03131"><defs><radialGradient cx="240.07923" cy="196.41271" r="9.35088" gradientUnits="userSpaceOnUse" id="color-1"><stop offset="0" stop-color="#d6feff" stop-opacity="0"/><stop offset="1" stop-color="#d6feff" stop-opacity="0.14902"/></radialGradient></defs><g transform="translate(-224.28914,-163.16862)"><g data-paper-data="{&quot;isPaintingLayer&quot;:true}" fill-rule="nonzero" stroke-linejoin="miter" stroke-miterlimit="10" stroke-dasharray="" stroke-dashoffset="0" style="mix-blend-mode: normal"><g data-paper-data="{&quot;index&quot;:null}"><g><g><path d="M234.81314,186.06823c-0.13608,0.25422 -1.17776,1.16378 -1.2834,1.15891c-0.12821,-0.0059 0.00822,0.08141 -0.17178,-0.02946c-0.18001,-0.11087 -0.04976,-0.37554 -0.04976,-0.37554c0,0 -0.2493,0.30127 -0.53455,0.14381c-0.28522,-0.15747 -0.27796,-0.51624 -0.27796,-0.51624c0,0 -0.28532,0.14517 -0.50356,0.00592c-0.21824,-0.13927 -0.28259,-0.50931 -0.28259,-0.50931c0,0 -0.45848,0.12751 -0.63986,0.01471c-0.18138,-0.11284 -0.17256,-0.51941 -0.17256,-0.51941c0,0 -0.21393,0.25499 -0.58688,0.0096c-0.29027,-0.19098 -0.14184,-0.64407 0.22392,-1.19263c0.37078,-0.55608 0.75656,-1.14649 0.91705,-1.44632c0.48637,-0.9086 1.55364,-0.66662 2.46223,-0.18023c0.42556,0.2278 0.9756,0.76304 0.96809,1.38771c-0.01006,0.8373 0.19019,1.56544 -0.06838,2.04848z" fill="#fdfdfd" stroke="none" stroke-width="0" stroke-linecap="butt"/><path d="M233.2926,184.61615c0,0 0.57547,0.31659 0.66351,0.70037c0.04166,0.18155 -0.32799,0.49488 -0.48834,0.84282c-0.16033,0.34793 -0.17198,0.81697 -0.17198,0.81697" fill="none" stroke="#a4a4a4" stroke-width="0.125" stroke-linecap="round"/></g><path d="M233.51999,182.80597c-0.37863,-0.16766 -1.38803,-0.54855 -1.28927,-0.8555c0.20045,-0.62298 0.64164,-0.41232 0.64164,-0.41232c0,0 -0.40661,-0.22879 0.27417,-0.58497c0.27006,-0.14129 0.86379,-0.00514 1.32454,0.23186c0.46074,0.237 1.23905,0.82521 1.13716,1.16794c-0.07852,0.26416 -0.51814,0.23925 -0.51814,0.23925c0,0 0.16135,0.3924 0.04005,0.65043c-0.14747,0.25722 -1.27325,-0.28755 -1.61014,-0.43672z" fill="#fdfdfd" stroke="none" stroke-width="0" stroke-linecap="butt"/></g><path d="M239.33492,179.58636c-0.10173,0.55379 -0.73083,0.23667 -0.73083,0.23667l-1.85862,-0.71187l-1.75939,2.5337l-0.90659,-0.47342l2.20598,-3.30941c0,0 2.45293,0.78115 2.91246,1.04535c0.45952,0.26421 0.23874,0.12519 0.137,0.67899z" data-paper-data="{&quot;index&quot;:null}" fill="#fec267" stroke="none" stroke-width="0" stroke-linecap="butt"/></g><path d="M247.12349,200.78541c0,0 -4.1069,0.54744 -6.3103,0.41453c-1.41319,-0.08524 -4.02528,-1.67612 -6.4773,-2.61172c-1.53091,-0.58415 -4.30583,-2.55687 -4.3639,-2.64272c-0.34074,-0.50382 0.93706,-2.76612 1.88731,-2.69766c0.32476,0.02339 1.02263,-0.44322 3.55018,-0.00727c3.41438,0.58891 9.97051,1.58803 11.84489,3.28845c0.70252,0.63732 2.21888,1.81302 1.71338,2.21706c-0.5055,0.40404 -1.84425,2.03933 -1.84425,2.03933z" data-paper-data="{&quot;index&quot;:null}" fill="url(#color-1)" stroke-opacity="0.25098" stroke="#313040" stroke-width="2" stroke-linecap="butt"/><path d="M236.9573,178.07735c0,0 0.67318,1.98996 1.33011,2.04747c0.65693,0.0575 -1.13725,0.81471 -2.18104,2.09528c-1.04378,1.28058 -2.34463,3.45712 -2.34463,3.45712c0,0 -0.03811,-3.6093 0.44609,-5.00345c0.90882,-2.6168 2.74947,-2.59643 2.74947,-2.59643z" data-paper-data="{&quot;index&quot;:null}" fill="#02124a" stroke="none" stroke-width="0" stroke-linecap="butt"/><path d="M233.85092,189.718c0,0 1.38025,-2.15453 2.07505,-3.64416c0.69483,-1.48963 1.00231,-2.95348 1.00231,-2.95348l1.42757,0.64944l-3.76734,7.47737z" data-paper-data="{&quot;index&quot;:null}" fill="#033397" stroke="none" stroke-width="0" stroke-linecap="butt"/><g data-paper-data="{&quot;index&quot;:null}" stroke="none" stroke-width="0" stroke-linecap="butt"><path d="M241.74496,196.80469c0,0 -1.31335,1.12543 -4.48749,0.52199c-0.69072,-0.1313 -2.2775,-0.60291 -2.2775,-0.60291l0.05496,-0.55691l-1.32321,-0.37644l-0.10753,0.39126c0,0 -0.90983,-0.39465 -1.13911,-0.53956c-0.54228,-0.34277 -1.2742,-0.87276 -1.2742,-0.87276c0,0 0.13967,-1.45379 0.96295,-2.71796c0.32484,-0.49881 1.03499,-0.99698 5.86859,0.82513c4.17786,1.10926 3.72252,3.92817 3.72252,3.92817z" fill="#e90023"/><path d="M241.69189,196.80192l-0.04623,0.39359l-0.98327,-0.24032l-0.7451,0.1878l0.08538,0.75864l-1.03158,-0.95688l0.645,-0.96169l1.74659,-0.38364l0.32916,1.20248z" fill="#948a92"/><path d="M233.70235,195.73378c0,0 0.04444,-0.59098 -0.05348,-1.20917c-0.09791,-0.6182 -0.47613,-1.51525 -0.47613,-1.51525l0.11505,-1.23631l1.4232,0.02145c0,0 0.45204,0.97358 0.50822,2.1495c0.05295,1.10838 -0.16577,2.28137 -0.16577,2.28137z" fill="#deca55"/><path d="M241.29272,195.94667l-1.373,0.64169l0.19026,1.30735l-1.83338,0.16236l-3.33256,-1.30826l0.12724,-1.28693l2.90987,1.36144l0.70026,-1.76274l2.10384,-0.82739l0.88023,1.39687l0.24395,1.3287l-0.29523,0.29539z" fill="#edeeee"/><g><path d="M241.02444,197.56359c-0.43683,0.13702 -0.75251,0.08947 -0.93245,-0.2053c-0.17994,-0.29478 -0.10443,-0.69433 0.28081,-0.89246c0.38524,-0.19811 0.81311,-0.08948 0.99305,0.20529c0.17994,0.29478 -0.03455,0.79622 -0.34141,0.89247z" fill="#ece09c"/><path d="M241.13452,197.58213c-0.31743,0.19269 -0.82878,0.086 -0.95495,-0.17726c-0.13236,-0.27617 0.23342,-0.5841 0.45993,-0.68589c0.25683,-0.13209 0.62286,-0.04954 0.74282,0.14696c0.11997,0.19651 0.009,0.5841 -0.24781,0.71619z" fill="#000000"/></g><path d="M235.20814,194.62867c0,0 -0.0279,0.54442 -0.06716,0.81247c-0.03846,0.26259 -0.16603,0.77978 -0.16603,0.77978l-0.34611,-0.1418l0.51487,-2.69101c0,0 0.07825,0.50837 0.08976,0.73001c0.00963,0.18536 -0.02531,0.51055 -0.02531,0.51055z" fill="#6a2625"/><path d="M231.45079,193.68764c0,0 1.01413,0.36088 0.91408,0.82038c-0.10004,0.4595 -1.04705,-0.20962 -1.04705,-0.20962l0.13297,-0.61075z" fill="#eac763"/><path d="M236.1847,192.12671c-0.04475,0.50695 -1.01414,0.65606 -1.85947,0.66733c-0.84533,0.01128 -1.97561,-0.06583 -2.00902,-0.61569c-0.06778,-1.1159 0.52747,-1.10187 0.52747,-1.10187c0,0 -0.56493,-0.06704 0.03299,-1.10918c0.23719,-0.41342 0.96891,-0.6246 1.59854,-0.58337c0.62964,0.04121 1.78165,0.40426 1.82837,1.01218c0.03601,0.46857 -0.47003,0.74345 -0.47003,0.74345c0,0 0.36613,0.49765 0.35116,0.98715z" fill="#fdfdfd"/></g><path d="M237.15803,183.97985c0,0 -0.27507,0.9495 -1.34382,1.48334c-1.06874,0.53384 -3.34475,0.85857 -3.34475,0.85857c0,0 2.31257,-1.54875 2.95054,-2.21543c0.53142,-0.55533 0.61634,-1.51203 0.61634,-1.51203l1.1217,1.38555z" data-paper-data="{&quot;index&quot;:null}" fill="#02124a" stroke="none" stroke-width="0" stroke-linecap="butt"/><path d="M237.10897,184.1493c-0.77623,-0.29247 -1.31141,-0.82197 -0.84688,-2.62476c0.25907,-1.00539 -0.05773,-2.62521 0.27939,-3.51992c0.56405,-1.49701 2.29635,-0.00905 3.59909,0.48182c1.30274,0.49085 1.28024,2.24629 0.71617,3.7433c-0.56406,1.49702 -2.44504,2.41044 -3.74777,1.91957z" data-paper-data="{&quot;index&quot;:null}" fill="#033397" stroke="none" stroke-width="0" stroke-linecap="butt"/><path d="M241.09781,181.96614c-0.40805,0.99415 -1.52434,2.15322 -2.7513,1.84607c-1.1011,-0.27566 -0.6053,-3.83947 0.2503,-4.48971c0.92709,-0.70455 2.11013,-0.47247 2.30332,-0.03004c0.38102,0.87255 0.77389,1.26981 0.19768,2.67367z" data-paper-data="{&quot;index&quot;:null}" fill="#fec267" stroke="none" stroke-width="0" stroke-linecap="butt"/><path d="M238.05798,191.10752c0,0 -0.32527,-2.76965 -0.77305,-4.51246c-0.44779,-1.74281 -0.99596,-3.27796 -0.99596,-3.27796l1.46758,-0.31663l2.00748,8.93372z" data-paper-data="{&quot;index&quot;:null}" fill="#033397" stroke="none" stroke-width="0" stroke-linecap="butt"/><g data-paper-data="{&quot;index&quot;:null}" stroke="none" stroke-width="0" stroke-linecap="butt"><path d="M247.19397,197.57766c0,0 -1.31711,1.26887 -4.70495,0.82731c-0.73723,-0.09609 -2.44129,-0.49622 -2.44129,-0.49622l0.02374,-0.59126l-1.41998,-0.31591l-0.08941,0.41964c0,0 -0.98472,-0.36059 -1.23569,-0.49944c-0.59355,-0.32845 -1.3988,-0.84285 -1.3988,-0.84285c0,0 0.05793,-1.54325 0.84915,-2.92841c0.31219,-0.54656 1.03118,-1.11616 6.2458,0.50971c4.47852,0.91374 4.17142,3.91746 4.17142,3.91746z" fill="#e90023"/><path d="M247.1378,197.57799l-0.02458,0.41832l-1.05276,-0.19315l-0.77498,0.24411l0.13683,0.79558l-1.14787,-0.94659l0.62165,-1.05489l1.82011,-0.51251l0.42151,1.24909z" fill="#948a92"/><path d="M238.63813,196.94236c0,0 0.01053,-0.62659 -0.1309,-1.27314c-0.14143,-0.64655 -0.5959,-1.5702 -0.5959,-1.5702l0.04533,-1.31217l1.50368,-0.06499c0,0 0.53713,0.99989 0.66883,2.23776c0.12414,1.16676 -0.03453,2.41846 -0.03453,2.41846z" fill="#deca55"/><path d="M246.66376,196.69978l-1.40985,0.76191l0.28133,1.36835l-1.92536,0.28426l-3.59847,-1.17586l0.05509,-1.36634l3.15553,1.258l0.63069,-1.9039l2.16991,-1.00295l1.0152,1.42037l0.33932,1.38758l-0.29346,0.33z" fill="#edeeee"/><g><path d="M246.78558,197.46c0.2081,0.3001 0.01256,0.84263 -0.30545,0.96312c-0.45268,0.17153 -0.78885,0.14076 -0.99694,-0.15931c-0.2081,-0.3001 -0.15299,-0.72651 0.24147,-0.95939c0.39447,-0.23283 0.85283,-0.14452 1.06093,0.15557z" fill="#ece09c"/><path d="M246.59746,198.43592c-0.32322,0.22297 -0.86958,0.14181 -1.01897,-0.12833c-0.15672,-0.28338 0.21044,-0.63095 0.44328,-0.75236c0.26298,-0.15524 0.65444,-0.09064 0.79318,0.10941c0.13874,0.20005 0.04548,0.61603 -0.2175,0.77128z" fill="#000000"/></g><path d="M240.15963,195.68307c0,0 0.00407,0.57642 -0.02088,0.8618c-0.02443,0.27957 -0.12725,0.83337 -0.12725,0.83337l-0.37409,-0.12838l0.37783,-2.87239c0,0 0.11391,0.53184 0.13971,0.7651c0.02159,0.19507 0.00471,0.5405 0.00471,0.5405z" fill="#6a2625"/><path d="M236.13535,194.92103c0,0 1.09275,0.31851 1.01543,0.80972c-0.07731,0.49124 -1.11819,-0.15681 -1.11819,-0.15681l0.10276,-0.6529z" fill="#eac763"/><path d="M241.03646,192.98183c-0.01602,0.53791 -1.03014,0.75501 -1.92181,0.81894c-0.89166,0.06396 -2.08954,0.05214 -2.15866,-0.52624c-0.14025,-1.17379 0.48897,-1.19563 0.48897,-1.19563c0,0 -0.60048,-0.03599 -0.03345,-1.17292c0.22492,-0.45102 0.98435,-0.719 1.65154,-0.71424c0.66719,0.00474 1.90563,0.31705 1.99237,0.9559c0.06686,0.49243 -0.45041,0.81374 -0.45041,0.81374c0,0 0.41714,0.50278 0.43147,1.02042z" fill="#fdfdfd"/></g><g data-paper-data="{&quot;index&quot;:null}"><g fill="#033397" stroke-width="0"><path d="M238.29888,178.46976c-2.90806,-0.39771 -4.94309,-3.07755 -4.54538,-5.98561c0.39771,-2.90806 3.07755,-4.9431 5.98561,-4.54539c2.90806,0.39771 4.94309,3.07756 4.54538,5.98562c-0.39771,2.90806 -3.07755,4.94309 -5.98561,4.54538z" stroke="none" stroke-linecap="butt"/><path d="M236.34609,177.78948c0,0 -2.17688,-0.27449 -3.94058,0.93164c-1.76369,1.20614 -3.41075,4.09571 -3.41075,4.09571c0,0 -0.79078,-1.62695 -0.31692,-4.30012c0.4015,-2.26503 1.77637,-4.00829 1.77637,-4.00829c0,0 -1.80396,0.23519 -2.69721,0.68592c-1.48545,0.74954 -3.46717,2.55202 -3.46717,2.55202c0,0 -0.09985,-3.07751 2.10186,-6.37686c1.89689,-2.84256 4.72415,-3.63882 4.72415,-3.63882c0,0 -1.09315,-1.099 -2.13244,-1.549c-1.26228,-0.54655 -2.83156,-0.63548 -2.83156,-0.63548c0,0 4.32605,-3.59373 10.17979,-1.94467c8.51973,2.35969 8.15039,9.52789 8.15039,9.52789" stroke="#000000" stroke-linecap="round"/></g><path d="M234.83155,168.96111c0,0 -0.06919,-1.05868 0.04403,-1.95791c0.11322,-0.89922 0.21477,-2.12561 0.4853,-2.24614c0.27804,-0.12387 0.43374,-0.07032 1.50598,0.79548c1.07222,0.8658 2.51808,2.42446 2.51808,2.42446" fill="#033397" stroke="#000000" stroke-width="0.125" stroke-linecap="round"/><path d="M242.94595,168.37476c0,0 1.00408,0.04498 1.58837,-0.00202c0.53625,-0.04313 1.54622,-0.33775 1.78563,-0.26938c0.28689,0.08193 -0.34146,1.38193 -0.662,2.0285c-0.36683,0.73997 -1.41891,2.16903 -1.41891,2.16903" fill="#033397" stroke="#000000" stroke-width="0" stroke-linecap="round"/><path d="M244.34459,172.18139c0,0 0.19054,1.19211 -0.10635,2.22647c-0.29687,1.03434 -1.23964,2.46304 -1.23964,2.46304c0,0 -0.6521,-0.6489 -0.78415,-0.69996c-1.07094,-0.41426 -2.35131,0.76805 -3.5361,0.34256c-1.1848,-0.42547 -1.68173,-1.4414 -2.00783,-2.32882c-0.3261,-0.88742 -0.03243,-2.33438 0.33665,-2.94686c0.50931,-0.7097 1.24102,-0.76241 1.55616,-0.68024c0.36644,0.09555 1.15917,0.33206 1.81027,1.51533c0.64375,1.16984 0.61028,3.10593 1.34487,3.62893c0.20389,0.28106 0.67671,-0.20478 0.67671,-0.20478c0,0 0.12712,0.18703 0.2415,0.04054c0.35908,-0.45979 0.36543,-0.48696 0.77762,-1.27527c0.4122,-0.78831 0.9303,-2.08091 0.9303,-2.08091z" fill="#fdfdfd" stroke="#000000" stroke-width="0" stroke-linecap="butt"/><path d="M242.91864,177.01935c-0.03738,0.39169 -0.40947,0.7105 -1.36264,1.07037c-0.78278,0.29555 -2.09383,0.50013 -3.01243,0.39895c-3.82802,-0.62444 -4.0728,-3.62433 -2.70661,-3.79885c1.70003,-0.24405 1.92589,1.60372 3.38024,1.74311c0.96795,0.09277 2.05586,-0.54445 2.70198,-0.38566c0.83518,0.19221 1.02254,0.73015 0.99946,0.97209z" fill="#fec267" stroke="#000000" stroke-width="0" stroke-linecap="butt"/><path d="M244.19912,171.06207c0,0 0.82804,-0.45081 0.96327,0.06201c0.08857,0.33582 -0.62299,2.27449 -0.62299,2.27449" fill="#033397" stroke="#000000" stroke-width="0.125" stroke-linecap="round"/><path d="M244.31662,176.16261c0.09414,0.46499 -0.23517,0.76248 -1.08798,0.86033c-0.53854,0.06178 -1.27853,-0.01669 -1.22603,-0.40055c0.03166,-0.23148 0.68765,-0.2159 1.16743,-0.3061c0.47979,-0.0902 1.11788,-0.29552 1.14659,-0.1537z" fill="#0d1114" stroke="none" stroke-width="0" stroke-linecap="butt"/><path d="M243.72951,176.40434c0.00377,0.07786 -0.18252,0.15015 -0.41608,0.16147c-0.23355,0.01133 -0.42597,-0.04263 -0.42974,-0.12048c-0.00377,-0.07786 0.18252,-0.15015 0.41608,-0.16147c0.23355,-0.01133 0.42597,0.04263 0.42974,0.12048z" fill="#fdfdfd" stroke="none" stroke-width="0" stroke-linecap="butt"/><path d="M238.33142,167.78301c0,0 -0.54458,0.07212 -1.56485,0.42542c-1.116,0.38647 -1.26214,0.8024 -1.26214,0.8024c0,0 -0.16683,-3.03062 0.32751,-3.08912c0.7093,-0.08393 2.49949,1.8613 2.49949,1.8613z" fill="#fec267" stroke="none" stroke-width="0" stroke-linecap="butt"/><g stroke="none" stroke-width="0" stroke-linecap="butt"><path d="M240.30237,172.78625c0.27068,0.08103 0.22644,0.72005 0.0054,1.45848c-0.22104,0.73845 -0.5352,1.29665 -0.80586,1.21564c-0.30072,-0.09003 -0.22644,-0.72005 -0.0054,-1.45848c0.22104,-0.73845 0.50515,-1.30566 0.80586,-1.21565z" fill="#005c2d"/><path d="M240.07748,173.5374c0.10786,0.03228 0.12282,0.30059 0.03341,0.5993c-0.08941,0.29869 -0.24933,0.51465 -0.35719,0.48237c-0.10786,-0.03229 -0.12282,-0.30059 -0.03341,-0.5993c0.08941,-0.2987 0.24933,-0.51466 0.35719,-0.48238z" fill="#000000"/><path d="M240.14046,173.32708c0.10787,0.03231 0.15301,0.19974 0.10087,0.37396c-0.05214,0.17425 -0.18188,0.28931 -0.28974,0.25704c-0.10786,-0.03231 -0.15301,-0.19974 -0.10087,-0.37396c0.05215,-0.17425 0.18189,-0.28931 0.28975,-0.25704z" fill="#ffffff"/></g><g stroke="none" stroke-width="0" stroke-linecap="butt"><path d="M243.75117,175.23933c-0.22318,0.47551 -0.49104,0.82021 -0.66532,0.73841c-0.19364,-0.09088 -0.08028,-0.50807 0.14291,-0.98359c0.22318,-0.47551 0.47168,-0.8293 0.66532,-0.73841c0.17429,0.08179 0.08028,0.50807 -0.14291,0.98359z" fill="#005c2d"/><path d="M243.62935,175.14674c-0.09028,0.19235 -0.21977,0.32185 -0.28923,0.28925c-0.06946,-0.03259 -0.05257,-0.21495 0.0377,-0.40729c0.09028,-0.19235 0.21977,-0.32185 0.28923,-0.28925c0.06946,0.03259 0.05257,0.21495 -0.0377,0.40729z" fill="#000000"/><path d="M243.73059,174.60403c0.06946,0.0326 0.08308,0.15 0.03041,0.2622c-0.05268,0.1122 -0.15166,0.17673 -0.22112,0.14413c-0.06946,-0.0326 -0.08308,-0.15 -0.03041,-0.2622c0.05268,-0.11221 0.15166,-0.17674 0.22112,-0.14414z" fill="#ffffff"/></g><path d="M236.39068,176.42005c0,0 0.49476,0.53982 0.93203,0.70936c0.43727,0.16954 1.26501,0.39751 1.26501,0.39751c0,0 -1.00192,-0.11282 -1.49637,-0.30452c-0.49444,-0.1917 -0.70067,-0.80235 -0.70067,-0.80235z" fill="#000000" stroke="#000000" stroke-width="0" stroke-linecap="butt"/><path d="M243.06982,173.19811c0.18472,0.02527 0.3759,0.9884 0.3759,0.9884c0,0 -0.19774,0.44297 -0.3589,0.70718c-0.16117,0.26423 -0.47556,0.66082 -0.47556,0.66082c0,0 -0.31428,0.05573 -0.2347,-0.52614c0.07958,-0.58187 0.50851,-1.85553 0.69324,-1.83028z" fill="#033397" stroke="none" stroke-width="0" stroke-linecap="butt"/></g><g data-paper-data="{&quot;index&quot;:null}" stroke="none" stroke-width="0" stroke-linecap="butt"><path d="M237.04033,178.94405c0.14801,-0.50898 0.06517,-0.26158 0.62729,-0.29372c0.56215,-0.03215 0.40283,0.65409 0.40283,0.65409l-0.25203,1.97428l2.87795,1.11017l-0.24553,0.99282l-3.7373,-1.36058c0,0 0.17878,-2.56809 0.3268,-3.07708z" data-paper-data="{&quot;index&quot;:null}" fill="#fec267"/><g data-paper-data="{&quot;index&quot;:null}" fill="#fdfdfd"><g><path d="M244.90651,181.55813c0.27241,0.09459 1.33386,0.98098 1.34562,1.08607c0.01427,0.12756 0.07912,-0.02086 -0.00219,0.17429c-0.08132,0.19515 -0.36312,0.10796 -0.36312,0.10796c0,0 0.3366,0.19905 0.22576,0.50542c-0.11086,0.30639 -0.46633,0.3554 -0.46633,0.3554c0,0 0.18804,0.25906 0.08468,0.49643c-0.10335,0.23736 -0.45878,0.35885 -0.45878,0.35885c0,0 0.19775,0.43285 0.11472,0.62966c-0.08303,0.19677 -0.48598,0.25177 -0.48598,0.25177c0,0 0.28534,0.17136 0.10139,0.57815c-0.14317,0.3166 -0.6139,0.24099 -1.21298,-0.03439c-0.6073,-0.27911 -1.25083,-0.56765 -1.57209,-0.67923c-0.97357,-0.33808 -0.90172,-1.43006 -0.56363,-2.40362c0.15835,-0.456 0.60082,-1.08307 1.21898,-1.17349c0.82851,-0.12119 1.51632,-0.433 2.03391,-0.25326z"/></g><path d="M241.88701,183.34628c-0.1063,0.4002 -0.3244,1.45679 -0.64304,1.40733c-0.64667,-0.10039 -0.5077,-0.56914 -0.5077,-0.56914c0,0 -0.16231,0.43743 -0.62069,-0.17918c-0.18187,-0.24461 -0.14035,-0.85233 0.02155,-1.34452c0.1619,-0.49219 0.62096,-1.353 0.97544,-1.30603c0.2732,0.0362 0.31743,0.47428 0.31743,0.47428c0,0 0.3623,-0.22082 0.63614,-0.14141c0.27716,0.10536 -0.0846,1.30258 -0.17918,1.65866z"/></g></g></g></g></svg>