<svg version="1.1" xmlns="http://www.w3.org/2000/svg" xmlns:xlink="http://www.w3.org/1999/xlink" width="49.16479" height="28.39893" viewBox="0,0,49.16479,28.39893"><defs><linearGradient x1="266.0745" y1="182.45028" x2="247.72094" y2="182.45028" gradientUnits="userSpaceOnUse" id="color-1"><stop offset="0" stop-color="#b5b2b2"/><stop offset="1" stop-color="#e8e6e6" stop-opacity="0.25098"/></linearGradient></defs><g transform="translate(-216.90971,-167.87402)"><g data-paper-data="{&quot;isPaintingLayer&quot;:true}" fill-rule="nonzero" stroke-linejoin="miter" stroke-miterlimit="10" stroke-dasharray="" stroke-dashoffset="0" style="mix-blend-mode: normal"><path d="M250.01196,179.58847c0,0 0.38834,-3.62273 1.35799,-3.97503c0.96965,-0.3523 0.31787,3.70063 0.31787,3.70063z" data-paper-data="{&quot;index&quot;:null}" fill="#ffffff" stroke="none" stroke-width="0" stroke-linecap="butt"/><g data-paper-data="{&quot;index&quot;:null}" stroke="none" stroke-width="0" stroke-linecap="butt"><path d="M250.65485,178.62471c0.05813,-0.20472 0.29681,-0.48574 0.50713,-0.8022c0.27553,-0.41458 0.53182,-0.831 0.56657,-0.62247c0.10429,0.62592 -0.04711,1.84486 -0.39403,1.90266c-0.34692,0.0578 -0.77394,-0.14592 -0.67967,-0.47798z" fill="#7c5cbb"/><path d="M251.22831,178.77803c-0.20558,0.03425 -0.30465,-0.00931 -0.3389,-0.21489c-0.03425,-0.20558 0.05695,-0.44767 0.26253,-0.48193c0.20558,-0.03425 0.35234,0.05697 0.38659,0.26255c0.03425,0.20558 -0.10464,0.40001 -0.31022,0.43426z" fill="#000000"/><path d="M251.07386,178.15301c-0.20558,0.03425 0.13107,-0.5469 0.33665,-0.58116c0.20558,-0.03425 0.10913,0.05453 0.14338,0.26011c0.03425,0.20558 -0.10463,0.40001 -0.31021,0.43426z" fill="#ffffff"/></g><path d="M250.46655,175.40028c8.62004,0 15.60796,3.15639 15.60796,7.05c0,3.89361 -6.98792,7.05 -15.60796,7.05c-8.62004,0 5.81147,-3.55639 5.81147,-7.45c0,-3.89361 -14.43151,-6.65 -5.81147,-6.65z" data-paper-data="{&quot;index&quot;:null}" fill="url(#color-1)" stroke="none" stroke-width="NaN" stroke-linecap="butt"/><path d="M233.76476,188.3036c-0.54345,1.35387 -2.53594,2.19178 -3.89641,1.63113c-0.90649,-0.37356 -1.82195,-1.89802 -1.63918,-2.20654c0.54346,-1.35387 2.70758,-4.58941 3.63056,-4.25466c0.923,0.33471 1.90502,4.83008 1.90502,4.83008z" data-paper-data="{&quot;index&quot;:null}" fill="#ff1c00" stroke="none" stroke-width="0" stroke-linecap="butt"/><path d="M232.56914,182.64412c-0.18609,-0.38403 1.53113,-2.03815 1.55174,-2.06135c0.81851,-0.92058 1.03341,-1.37458 1.58569,-1.43296c1.51456,-0.16007 3.42213,2.34189 3.9169,3.36298c0.49478,1.02111 -1.49149,2.4646 -3.04433,2.65825c-1.55284,0.19366 -3.40243,-1.3955 -3.89721,-2.41659z" data-paper-data="{&quot;index&quot;:null}" fill="#ff1c00" stroke="none" stroke-width="0" stroke-linecap="butt"/><path d="M236.69677,185.01206c0.58167,1.20041 -1.00534,1.70899 -1.4326,1.93122c-0.22206,0.11551 -1.05895,0.3336 -2.03797,0.09226c-0.90468,-0.22301 -2.71051,-1.34695 -2.98989,-1.92346c-0.20837,-0.43003 2.03316,-2.70282 2.46042,-2.92508c0,0 3.41838,1.62464 4.00002,2.82505z" data-paper-data="{&quot;index&quot;:null}" fill="#ded000" stroke="none" stroke-width="0" stroke-linecap="butt"/><path d="M235.54067,179.19155c0.37376,-0.19016 -2.94688,2.97029 -4.83121,5.37433c-1.88433,2.40405 -2.30351,3.68335 -2.30351,3.68335c0,0 -0.39322,0.00304 -0.22668,-0.47509c0.33216,-0.95362 1.23348,-2.37032 1.84543,-3.19129c0.91876,-1.2326 4.91057,-5.28065 5.28432,-5.47081z" data-paper-data="{&quot;index&quot;:null}" fill="#646362" stroke="none" stroke-width="0" stroke-linecap="butt"/><path d="M237.17333,185.38196c0,0 -1.15313,1.37022 -1.72763,1.90207c-0.57453,0.53184 -1.31837,0.98981 -1.31837,0.98981c0,0 -0.64751,-0.10321 -0.91457,-0.20636c-0.26705,-0.10316 -0.36048,-0.95163 -0.36048,-0.95163c0,0 0.88362,-0.74856 1.37768,-1.22659c0.49407,-0.47803 2.69253,-1.95066 2.69253,-1.95066c0,0 0.20472,0.44244 0.2697,0.73068c0.06499,0.28822 -0.01885,0.71267 -0.01885,0.71267z" data-paper-data="{&quot;index&quot;:null}" fill="#e0e0de" stroke="none" stroke-width="0" stroke-linecap="butt"/><path d="M222.30062,188.53562c-0.85592,1.1814 -2.99224,1.51043 -4.17585,0.63621c-0.78865,-0.58249 -1.30657,-2.28361 -1.05435,-2.53851c0.85594,-1.1814 3.7409,-3.79463 4.555,-3.2458c0.8141,0.54881 0.67521,5.1481 0.67521,5.1481z" data-paper-data="{&quot;index&quot;:null}" fill="#ff1c00" stroke="none" stroke-width="0" stroke-linecap="butt"/><path d="M222.51496,182.75519c-0.08727,-0.41773 1.98019,-1.60538 2.00582,-1.62287c1.01754,-0.69427 1.33625,-1.08253 1.88616,-1.00506c1.50811,0.21247 2.75108,3.10273 2.98311,4.2134c0.23203,1.11069 -2.04528,2.0287 -3.59867,1.83951c-1.55339,-0.18919 -2.96176,-2.17988 -3.19381,-3.29056z" data-paper-data="{&quot;index&quot;:null}" fill="#ff1c00" stroke="none" stroke-width="0" stroke-linecap="butt"/><path d="M225.9441,186.0545c0.27279,1.30572 -1.39022,1.41374 -1.85866,1.52558c-0.24346,0.05814 -1.10826,0.06649 -1.99938,-0.40535c-0.82345,-0.436 -2.30234,-1.96479 -2.43337,-2.59188c-0.09772,-0.46776 2.62858,-2.12826 3.09703,-2.24012c0,0 2.9216,2.40604 3.19436,3.71176z" data-paper-data="{&quot;index&quot;:null}" fill="#ded000" stroke="none" stroke-width="0" stroke-linecap="butt"/><path d="M226.23588,180.12745c0.40873,-0.09372 -3.57991,2.16586 -5.99158,4.04044c-2.41167,1.87457 -3.12893,3.01381 -3.12893,3.01381c0,0 -0.38219,-0.09251 -0.10454,-0.51591c0.55377,-0.84444 1.7721,-1.99989 2.56508,-2.6477c1.19056,-0.97263 6.04581,-3.93028 6.45456,-4.024z" data-paper-data="{&quot;index&quot;:null}" fill="#646362" stroke="none" stroke-width="0" stroke-linecap="butt"/><path d="M226.23456,186.67723c0,0 -1.45132,1.04922 -2.13777,1.42565c-0.68648,0.37643 -1.51925,0.64007 -1.51925,0.64007c0,0 -0.60307,-0.25734 -0.83709,-0.42225c-0.23401,-0.16491 -0.11863,-1.01068 -0.11863,-1.01068c0,0 1.03894,-0.51161 1.63429,-0.85537c0.59535,-0.34375 3.0856,-1.23851 3.0856,-1.23851c0,0 0.09117,0.4789 0.08421,0.7743c-0.00694,0.29538 -0.19133,0.68676 -0.19133,0.68676z" data-paper-data="{&quot;index&quot;:null}" fill="#e0e0de" stroke="none" stroke-width="0" stroke-linecap="butt"/><path d="M229.08072,180.83127c1.00201,0 1.8143,1.07163 1.8143,2.39358c0,1.32195 -0.81229,2.39358 -1.8143,2.39358c-1.00201,0 -1.8143,-1.07163 -1.8143,-2.39358c0,-1.32195 0.81229,-2.39358 1.8143,-2.39358z" data-paper-data="{&quot;index&quot;:null}" fill="#53b761" stroke="none" stroke-width="0" stroke-linecap="butt"/><path d="M231.71247,180.26082c0,0 5.10092,0.02908 7.81794,0.28712c1.88222,0.17875 7.49624,3.08859 7.49624,3.08859c0,0 -1.23825,0.40001 -3.13713,0.50588c-1.95319,0.1089 -4.49435,0.00802 -5.0963,0.1528c-1.18716,0.28552 -7.08075,-4.03439 -7.08075,-4.03439z" data-paper-data="{&quot;index&quot;:null}" fill="#ff3300" stroke="none" stroke-width="0" stroke-linecap="butt"/><path d="M254.46472,180.80326c0.6427,-0.49397 2.55913,-0.30191 2.55913,-0.30191c0,0 1.50144,0.7684 1.60656,2.11953c0.10512,1.35114 -0.77175,2.72195 -1.90671,2.81024c-0.40343,0.03138 -1.5252,-0.07484 -2.16698,-0.69278c-0.64178,-0.61794 -0.52622,-1.14006 -0.54442,-1.91791c-0.01818,-0.77786 -0.1903,-1.52323 0.4524,-2.01718z" data-paper-data="{&quot;index&quot;:null}" fill="#e8e6e6" stroke="none" stroke-width="0" stroke-linecap="butt"/><path d="M242.53961,182.13933c0,0 11.60153,-0.25162 11.89095,0.39407c0.37274,0.83158 0.72664,0.87215 0.72664,0.87215l-8.73039,0.36945z" data-paper-data="{&quot;index&quot;:null}" fill="#ff3300" stroke="none" stroke-width="0" stroke-linecap="butt"/><path d="M257.77583,178.09703c0.56186,-0.36988 1.17204,-0.02672 2.05467,-0.15787c0.80668,-0.11986 2.0774,-0.26229 2.36563,0.17554c0.12277,0.18648 0.08515,0.43952 0.63768,0.6733c0.38551,0.16311 2.11789,0.20077 2.15326,0.3224c0.12256,0.4214 -1.15349,3.43604 -1.07488,3.81423c0.20839,1.00258 1.33496,1.6696 0.55661,2.21883c-3.83091,2.70321 -7.77213,1.07094 -7.9727,0.0242c-0.70971,-0.87211 0.34215,-2.11324 -0.26145,-3.03012c-0.6036,-0.91687 0.46578,-3.3326 1.54115,-4.04051z" data-paper-data="{&quot;index&quot;:null}" fill="#e8e6e6" stroke="none" stroke-width="0" stroke-linecap="butt"/><path d="M239.74072,184.63696c0.48612,0.64866 0.27084,2.56261 0.27084,2.56261c0,0 -0.78657,1.49201 -2.13886,1.58074c-1.35232,0.0887 -2.71239,-0.8047 -2.78691,-1.94066c-0.02649,-0.40377 0.09333,-1.52419 0.71901,-2.15841c0.62566,-0.63423 1.14636,-0.51236 1.92437,-0.52112c0.77802,-0.00875 1.52541,-0.17181 2.01154,0.47685z" data-paper-data="{&quot;index&quot;:null}" fill="#e8e6e6" stroke="none" stroke-width="0" stroke-linecap="butt"/><path d="M238.9754,182.26363l-0.02091,2.1669c0,0 -0.30325,0.94558 -0.90872,1.02773c-0.60546,0.08215 -1.3926,-0.71548 -1.3926,-0.71548l0.10355,-3.96266c0,0 2.49051,-0.82577 4.27854,-0.28764c0.85746,0.25807 1.46693,-0.28192 1.87219,0.40483c0.31865,0.53996 -0.36969,1.24509 -0.20329,1.34738c0.63673,0.39137 -3.72878,0.01893 -3.72878,0.01893z" data-paper-data="{&quot;index&quot;:null}" fill="#ff3300" stroke="none" stroke-width="0" stroke-linecap="butt"/><path d="M242.61588,189.51329c0.36302,0.56629 0.01249,1.17227 0.13294,2.05641c0.11007,0.80807 0.39446,2.98391 -0.04682,3.2668c-0.18797,0.12049 -0.98167,-0.16869 -1.22212,0.38095c-0.16776,0.38351 -0.59338,1.01024 -0.71541,1.04414c-0.42287,0.11744 -2.83325,-0.71572 -3.21232,-0.64171c-1.00502,0.19622 -1.84667,0.42333 -2.38638,-0.36161c-2.65654,-3.86344 0.63493,-6.73694 0.39553,-7.11041c-0.69483,-1.08387 2.10892,0.36776 3.03305,-0.22466c0.92413,-0.59242 3.3267,0.5062 4.02154,1.59006z" data-paper-data="{&quot;index&quot;:null}" fill="#e8e6e6" stroke="none" stroke-width="0" stroke-linecap="butt"/><path d="M240.27402,193.79745c0.03557,0.66969 -0.81271,1.71252 -0.81271,1.71252c0,0 -1.09187,-0.93977 -1.12746,-1.60946c-0.03558,-0.66969 0.36989,-1.23566 0.90566,-1.26414c0.53574,-0.02846 0.99892,0.49137 1.03449,1.16107z" data-paper-data="{&quot;index&quot;:null}" fill="#e8e6e6" stroke="#999797" stroke-width="0.5" stroke-linecap="butt"/><path d="M237.06345,193.45546c-0.14324,0.65516 -1.23762,1.43579 -1.23762,1.43579c0,0 -0.80366,-1.19562 -0.6604,-1.85079c0.14323,-0.65516 0.68425,-1.09338 1.20838,-0.97878c0.52413,0.11459 0.83289,0.73861 0.68966,1.39376z" data-paper-data="{&quot;index&quot;:null}" fill="#e8e6e6" stroke="#999797" stroke-width="0.5" stroke-linecap="butt"/><path d="M251.70394,177.29932c-0.70712,1.14388 -1.21873,1.62465 -1.74181,1.85834c-0.55835,0.24944 -1.85363,-0.17125 -2.42382,-0.07625c-0.01597,0.00265 -1.9416,2.29816 -3.91533,2.8199c-0.93246,0.24649 -2.77106,-1.05415 -2.77106,-1.05415c0,0 -3.03717,0.09287 -5.4459,0.51763c-2.40873,0.42476 -5.90639,0.7938 -5.90639,0.7938l1.49512,-3.78311l-4.91454,0.16024c0,0 1.11898,-1.56279 2.03374,-2.36671c0.91475,-0.80392 3.1767,-2.21239 3.1767,-2.21239l-5.60181,0.04053c0,0 1.81311,-1.91845 3.28403,-2.64521c1.47092,-0.72676 5.27684,-1.5846 5.27684,-1.5846l-1.74163,-1.68512l5.98345,-0.20767c0,0 4.21328,-0.06747 7.23942,1.32053c3.02615,1.388 4.11719,3.30107 5.1615,4.74493c1.19853,1.65708 1.42243,2.37099 0.81148,3.35932z" data-paper-data="{&quot;index&quot;:null}" fill="#ff3300" stroke="none" stroke-width="0" stroke-linecap="butt"/><path d="M253.0442,173.78729z" data-paper-data="{&quot;index&quot;:null}" fill="#030000" stroke="none" stroke-width="0" stroke-linecap="butt"/><path d="M250.01195,179.28658c0,0 -0.84638,0.1941 -2.21,0.53234c-1.07094,0.26564 -1.6474,0.09354 -2.08877,0.06955c-0.49417,-0.02687 -1.56865,-1.2964 -1.84516,-2.02623c-0.31291,-0.82596 -0.20891,-1.92617 -0.20891,-1.92617c0,0 1.84575,0.6806 2.98458,1.2704c1.98707,1.02911 3.36827,2.0801 3.36827,2.0801z" data-paper-data="{&quot;index&quot;:null}" fill="#ffffff" stroke="none" stroke-width="0" stroke-linecap="butt"/><g data-paper-data="{&quot;index&quot;:null}" stroke="none" stroke-width="0" stroke-linecap="butt"><path d="M248.16385,179.47593c-0.35146,0.01302 -0.65541,-0.49047 -0.67891,-1.12458c-0.02349,-0.63412 -0.00764,-0.53371 0.34383,-0.54673c0.35147,-0.01303 0.84292,0.11546 0.86642,0.74957c0.02349,0.63412 -0.17987,0.90872 -0.53133,0.92175z" fill="#7c5cbb"/><path d="M248.16844,178.96326c-0.20827,0.00772 -0.38336,-0.15487 -0.39107,-0.36314c-0.00772,-0.20827 0.15485,-0.38336 0.36312,-0.39108c0.20827,-0.00772 0.38337,0.15486 0.39108,0.36313c0.00772,0.20827 -0.15487,0.38337 -0.36314,0.39109z" fill="#000000"/><path d="M248.24905,178.45759c-0.20827,0.00772 -0.38336,-0.15486 -0.39108,-0.36313c-0.00772,-0.20827 -0.03264,-0.13336 0.17563,-0.14108c0.20827,-0.00772 0.38336,0.09236 0.39108,0.30063c0.00772,0.20827 0.03264,0.19587 -0.17563,0.20359z" fill="#ffffff"/></g><path d="M249.61218,182.56088c-1.62033,0.29218 -4.30621,0.49797 -6.23118,-0.4157c-1.41028,-0.61592 -1.61326,-2.28043 1.69206,-2.76214c0.69418,-0.10117 0.73997,0.35479 2.68638,0.2558c0.94693,-0.04815 1.06255,-0.97171 2.38555,-0.85122c1.323,0.12049 3.22728,0.5504 3.13613,1.2668c-0.12322,0.96846 -1.52044,1.94185 -3.66895,2.50646z" data-paper-data="{&quot;index&quot;:null}" fill="#ffbe7e" stroke="none" stroke-width="0" stroke-linecap="butt"/><path d="M243.73334,181.15022c0,0 0.38363,-0.20871 0.89261,-0.23645c0.50898,-0.02773 1.3009,0.11691 1.3009,0.11691" data-paper-data="{&quot;index&quot;:null}" fill="none" stroke="#000000" stroke-width="0.5" stroke-linecap="round"/><path d="M254.43982,179.64051c0.05229,0.31387 -1.35143,0.88231 -1.35143,0.88231c0,0 -0.45752,-0.51757 -0.38382,-0.82757c0.0737,-0.31002 0.21479,-0.24672 0.21479,-0.24672z" data-paper-data="{&quot;index&quot;:null}" fill="#030000" stroke="none" stroke-width="0" stroke-linecap="butt"/><path d="M229.16011,184.13053c0,0 -0.64692,-0.57684 -0.64692,-1.06221c0,-0.48537 0.64692,-1.32548 0.64692,-1.32548h8.64511v2.38769z" data-paper-data="{&quot;index&quot;:null}" fill="#ff3200" stroke="none" stroke-width="0" stroke-linecap="butt"/><path d="M262.00401,183.65907c0,0 -0.3543,-0.44195 -0.71201,-0.8655c-0.3577,-0.42357 -1.49715,-0.58852 -1.49715,-0.58852c0,0 2.38575,-1.59476 2.27681,-2.18182c-0.17176,-0.92561 -1.45839,-1.85589 -1.45839,-1.85589" data-paper-data="{&quot;index&quot;:null}" fill="none" stroke="#999797" stroke-width="0.5" stroke-linecap="round"/></g></g></svg>