<svg version="1.1" xmlns="http://www.w3.org/2000/svg" xmlns:xlink="http://www.w3.org/1999/xlink" width="32.42036" height="35.15033" viewBox="0,0,32.42036,35.15033"><g transform="translate(-220.82929,-165.3899)"><g data-paper-data="{&quot;isPaintingLayer&quot;:true}" fill-rule="nonzero" stroke-miterlimit="10" stroke-dasharray="" stroke-dashoffset="0" style="mix-blend-mode: normal"><g data-paper-data="{&quot;index&quot;:null}" stroke-linejoin="miter"><path d="M246.53275,198.37036c0,0 0.90855,-1.98194 1.15249,-2.99567c0.19774,-0.82166 -2.57395,-3.95892 -2.57395,-3.95892c0,0 1.2225,-0.65596 1.89113,0.71183c0.18805,0.38467 0.64585,0.8657 0.97103,1.7631c0.32518,0.89739 0.55471,1.73747 0.2959,2.58354c-0.25883,0.84606 -1.10254,2.11155 -1.76963,2.53908c-0.94376,0.57281 -0.93934,0.1505 -0.93934,0.1505z" fill="#947043" stroke="none" stroke-width="0" stroke-linecap="butt"/><path d="M241.89715,192.79394l1.83161,-2.41913l0.60198,0.39857l-0.07762,0.17688c0,0 0.29347,-0.0328 0.36219,0.00119c0.30103,0.14883 0.181,0.23797 0.181,0.23797c0,0 0.58657,0.17057 0.96222,0.29159c0.37568,0.12099 1.22383,1.46072 1.25343,1.5143c0.257,0.46524 0.72564,1.12762 0.9386,1.94216c0.17943,0.68632 -0.16214,1.90468 -0.57477,2.6893c-0.64784,0.96231 -1.78488,1.68541 -1.78488,1.68541c0,0 -1.24077,-1.0118 -1.71941,-1.97061c-0.26728,-0.97011 -0.43757,-1.40032 -0.59332,-1.80127c-0.12657,-0.32589 -0.55758,-1.12331 -0.55758,-1.12331l-0.28743,-0.30875l-0.10959,-0.34505z" fill="#20201f" stroke="none" stroke-width="0" stroke-linecap="butt"/><path d="M243.64868,191.24207c0,0 0.59323,0.18582 1.02304,0.35743c0.5447,0.2175 1.91448,0.82154 1.91448,0.82154" fill="none" stroke="#c8c7c6" stroke-width="0.125" stroke-linecap="round"/><path d="M242.77386,189.29712c0.51807,0.53366 0.80521,0.54473 0.90793,1.08888c0.10271,0.54414 -0.04016,0.989 -0.42756,1.45601c-0.7926,0.76101 -1.0847,0.93633 -1.59458,1.02249c-0.21796,-0.00738 -1.16204,-0.53777 -1.55284,-1.11915c-0.10248,-0.15246 -0.18626,-1.36535 0.3644,-1.87086c0.55067,-0.50551 1.65142,-1.24819 2.30265,-0.57741z" fill="#c274a1" stroke="none" stroke-width="0" stroke-linecap="butt"/><path d="M242.80293,189.35247c0.5181,0.53367 -0.39276,1.51465 -0.69043,1.76136c-0.36298,0.30085 -1.58585,1.26825 -1.97664,0.68688c-0.10247,-0.15243 -0.18626,-1.36535 0.36441,-1.87087c0.55067,-0.50551 1.65142,-1.24819 2.30265,-0.57741z" fill="#cacacd" stroke="none" stroke-width="0" stroke-linecap="butt"/><path d="M246.88004,197.04911c0.16828,0.15887 0.37281,0.04376 0.44428,0.22306c0.11979,0.30051 -0.04941,0.44692 -0.10682,0.4771c-0.09168,0.04815 -0.35945,-0.13113 -0.57221,-0.45584c-0.21276,-0.32471 -0.45724,-0.69778 -0.45724,-0.69778c0,0 0.52373,0.29461 0.69199,0.45346z" fill="#c8c7c6" stroke="none" stroke-width="0" stroke-linecap="butt"/><path d="M244.05589,197.68231c0,0 -0.56957,-0.99428 0.46184,-1.75391c1.46872,-1.08178 3.2058,0.18973 3.2058,0.18973" fill="none" stroke="#c8c7c6" stroke-width="0.125" stroke-linecap="round"/><path d="M244.80861,197.9457c0,0 0.34794,0.27907 0.65076,0.52196c0.30283,0.24291 0.45566,0.5266 0.39897,0.61326c-0.03553,0.05427 -0.19748,0.20866 -0.48516,0.06063c-0.17162,-0.08833 -0.03748,-0.28091 -0.17949,-0.46361c-0.142,-0.18268 -0.3851,-0.73222 -0.3851,-0.73222z" data-paper-data="{&quot;index&quot;:null}" fill="#c8c7c6" stroke="none" stroke-width="0" stroke-linecap="butt"/></g><path d="M241.83951,186.05924l-1.58638,2.12215l1.4263,1.73489c0,0 -0.06638,0.41926 -0.15679,0.66601c-0.09041,0.24673 -0.3711,0.50366 -0.3711,0.50366l-1.56225,-1.69443c0,0 -0.82677,-0.82532 -0.63348,-1.56545c0.17068,-0.65357 1.73379,-2.64803 1.73379,-2.64803z" data-paper-data="{&quot;index&quot;:null}" fill="#20201f" stroke="none" stroke-width="0" stroke-linecap="butt" stroke-linejoin="miter"/><g data-paper-data="{&quot;index&quot;:null}" stroke-linejoin="miter"><path d="M246.5796,199.89845c0,0 1.56173,-1.52137 2.15461,-2.3791c0.48052,-0.6952 -0.97433,-4.62048 -0.97433,-4.62048c0,0 1.37676,-0.17132 1.50756,1.34551c0.0368,0.42659 0.29047,1.04029 0.27044,1.99455c-0.02005,0.95427 -0.10869,1.82065 -0.65502,2.51656c-0.54633,0.69591 -1.78939,1.57236 -2.56574,1.73075c-1.0868,0.19423 -0.93045,-0.19812 -0.93045,-0.19812l1.19297,-0.38971z" fill="#947043" stroke="none" stroke-width="0" stroke-linecap="butt"/><path d="M244.26502,193.02619l2.58033,-1.59657l0.4179,0.58872l-0.13615,0.13704c0,0 0.28556,0.07519 0.33743,0.13164c0.22716,0.24733 0.08307,0.28723 0.08307,0.28723c0,0 0.48568,0.37049 0.79249,0.61875c0.30682,0.24824 0.6152,1.8036 0.62349,1.86425c0.07208,0.52661 0.27051,1.31333 0.17563,2.14991c-0.07995,0.70485 -0.83766,1.7183 -1.50528,2.30149c-0.95112,0.66421 -2.27233,0.92895 -2.27233,0.92895c0,0 -0.79278,-1.39094 -0.8937,-2.45782c0.10029,-1.00123 0.09645,-1.46393 0.09567,-1.89407c-0.00065,-0.34959 -0.11533,-1.24877 -0.11533,-1.24877l-0.15684,-0.39158l0.02209,-0.36136z" fill="#20201f" stroke="none" stroke-width="0" stroke-linecap="butt"/><path d="M246.45813,192.2098c0,0 0.48639,0.3871 0.8255,0.7021c0.42971,0.39917 1.4898,1.45627 1.4898,1.45627" fill="none" stroke="#c8c7c6" stroke-width="0.125" stroke-linecap="round"/><path d="M246.34298,190.08025c0.29097,0.68452 0.55478,0.79829 0.45451,1.3429c-0.1003,0.5446 -0.39385,0.90808 -0.92354,1.20411c-1.0136,0.42424 -1.34922,0.48254 -1.85593,0.37916c-0.20064,-0.08545 -0.89014,-0.92041 -1.0452,-1.60353c-0.04066,-0.17915 0.31827,-1.34076 1.01413,-1.61384c0.69588,-0.27311 1.99029,-0.56922 2.35603,0.29121z" fill="#c274a1" stroke="none" stroke-width="0" stroke-linecap="butt"/><path d="M246.35015,190.14235c0.29098,0.68452 -0.91222,1.27135 -1.27878,1.3942c-0.44702,0.14984 -1.93632,0.61155 -2.09136,-0.07158c-0.04065,-0.17913 0.31827,-1.34076 1.01414,-1.61385c0.69588,-0.27311 1.99029,-0.5692 2.35603,0.29121z" fill="#cacacd" stroke="none" stroke-width="0" stroke-linecap="butt"/><path d="M247.3797,198.79113c0.0997,0.20883 0.33199,0.17515 0.33405,0.36817c0.00344,0.3235 -0.20715,0.39911 -0.27157,0.40655c-0.10287,0.01187 -0.28804,-0.25187 -0.3695,-0.63143c-0.08146,-0.37958 -0.17505,-0.81568 -0.17505,-0.81568c0,0 0.38238,0.46354 0.48206,0.67236z" fill="#c8c7c6" stroke="none" stroke-width="0" stroke-linecap="butt"/><path d="M245.48394,198.72164c0,0 0.19872,0.39931 0.37169,0.74684c0.17296,0.34754 0.19262,0.6692 0.10479,0.72407c-0.05501,0.03435 -0.2668,0.10654 -0.46579,-0.14853c-0.11871,-0.15219 0.08386,-0.27072 0.03162,-0.49614c-0.05223,-0.22543 -0.04231,-0.82626 -0.04231,-0.82626z" data-paper-data="{&quot;index&quot;:null}" fill="#c8c7c6" stroke="none" stroke-width="0" stroke-linecap="butt"/><path d="M244.5171,198.36404c0,0 -0.17298,-1.13269 1.06287,-1.46963c1.75988,-0.4798 2.92202,1.33223 2.92202,1.33223" fill="none" stroke="#c8c7c6" stroke-width="0.125" stroke-linecap="round"/><g fill="#83c4ac" stroke="none" stroke-width="0" stroke-linecap="butt"><path d="M246.60833,193.45436c-0.12737,0.03419 -0.70741,-0.35099 -0.70741,-0.35099l0.68912,-0.77098l0.21001,0.04861c0,0 -0.08377,1.04436 -0.19172,1.07334z"/><path d="M247.15332,191.62359c0.12767,0.033 0.40501,0.49777 0.40501,0.49777l-0.74628,0.32857l-0.2707,-0.10361c0,0 0.50376,-0.75069 0.61197,-0.72271z" data-paper-data="{&quot;index&quot;:null}"/><path d="M247.51687,194.04997c-0.11927,0.05621 -0.75842,-0.21999 -0.75842,-0.21999l0.49716,-0.88555l0.25964,0.0152c0,0 0.10271,1.04265 0.00162,1.09034z"/><path d="M247.6212,192.08654c0.13185,-0.00311 0.52551,0.3683 0.52551,0.3683l-0.62824,0.51982l-0.28868,-0.0258c0,0 0.2797,-0.85969 0.39144,-0.86233z" data-paper-data="{&quot;index&quot;:null}"/><path d="M248.12642,194.54337l-0.36315,-0.90675c0,0 -0.26697,-0.28144 -0.155,-0.41148c0.11197,-0.13003 0.31796,0.22223 0.31796,0.22223l0.66581,0.57967l-0.01919,0.39578z"/></g></g><path d="M243.97544,185.45891l1.06349,3.62404l0.39569,1.29344c0,0 -0.23564,0.37169 -0.45732,0.53274c-0.22169,0.16106 -0.7533,0.34676 -0.7533,0.34676l-0.50423,-1.73673l-1.0775,-3.99792z" data-paper-data="{&quot;index&quot;:null}" fill="#20201f" stroke="none" stroke-width="0" stroke-linecap="butt" stroke-linejoin="miter"/><g data-paper-data="{&quot;index&quot;:null}" stroke-width="0" stroke-linecap="butt" stroke-linejoin="miter"><g data-paper-data="{&quot;index&quot;:null}"><path d="M229.63729,171.1185c-0.21732,-1.04101 0.45355,-2.06175 1.49839,-2.27986c1.04486,-0.21811 2.06804,0.449 2.28535,1.49002c0.21732,1.04101 -0.45354,2.06176 -1.49838,2.27986c-1.04486,0.21811 -2.06806,-0.44898 -2.28537,-1.49z" fill="#c2e266" stroke="none"/><path d="M230.42082,171.60378c-0.13426,-0.64315 0.28019,-1.27375 0.9257,-1.40851c0.64552,-0.13476 1.27765,0.27737 1.41189,0.92053c0.13426,0.64315 -0.28019,1.27375 -0.9257,1.40851c-0.64552,0.13476 -1.27765,-0.27738 -1.41189,-0.92053z" fill="#c2e266" stroke="#000000"/><path d="M230.8259,175.28882c-0.5483,-0.94128 -0.00317,-2.17601 -0.00317,-2.17601l2.05579,-0.44434c0,0 0.19147,0.16743 0.78318,1.37417c0.61438,1.253 -0.28697,3.45103 -0.28697,3.45103c0,0 -2.00052,-1.26357 -2.54885,-2.20486z" fill="#e8edf4" stroke="#000000"/><path d="M231.92806,173.11207c-0.5,0.10671 -1.39861,-0.00232 -1.39861,-0.00232l0.07398,-0.71156c0,0 0.69788,0.26752 1.14773,0.19992c0.44981,-0.06758 1.0066,-0.52365 1.0066,-0.52365l0.37647,0.42185c0,0 -0.63484,0.4938 -1.20614,0.61571z" fill="#dbded5" stroke="#000000"/></g><g data-paper-data="{&quot;index&quot;:null}" stroke="none"><path d="M238.62439,175.54705c0.19694,-0.04111 0.42574,0.25694 0.51107,0.66572c0.08534,0.40878 -0.00513,0.77348 -0.20206,0.81459c-0.19694,0.04111 -0.42577,-0.25695 -0.5111,-0.66572c-0.08534,-0.40878 0.00515,-0.77351 0.20208,-0.8146z" fill="#000000"/><path d="M241.07806,180.42352c0.20514,-0.04283 1.00212,0.71537 1.03967,0.89524c0.03755,0.17987 -0.0603,1.43382 -0.26545,1.47662c-0.20514,0.04283 -1.30118,-0.06824 -1.30118,-0.06824c0,0 0.32179,-2.26082 0.52694,-2.30365z" fill="#807d5a"/><path d="M233.08598,171.82395l0.09787,-0.17492l5.96953,4.77867l-0.03521,0.32661z" fill="#6e6e73"/><path d="M235.22905,173.12735l-0.23122,0.37784l-1.4271,-1.09245l0.26095,-0.38405z" fill="#c2e266"/></g></g><g data-paper-data="{&quot;index&quot;:null}" stroke-width="0" stroke-linecap="butt" stroke-linejoin="miter"><g data-paper-data="{&quot;index&quot;:null}"><path d="M250.57042,170.27903c-1.34037,0.27981 -2.65297,-0.57596 -2.93175,-1.91143c-0.27878,-1.33546 0.58181,-2.64488 1.9222,-2.9247c1.34037,-0.27981 2.65297,0.57598 2.93175,1.91144c0.27878,1.33546 -0.58182,2.64488 -1.92222,2.9247z" fill="#c2e266" stroke="none"/><path d="M250.63295,170.13384c-0.82808,0.17286 -1.639,-0.35584 -1.81123,-1.18089c-0.17225,-0.82506 0.35945,-1.63402 1.18752,-1.80688c0.82808,-0.17286 1.639,0.35583 1.81124,1.18088c0.17225,0.82506 -0.35946,1.63403 -1.18754,1.80688z" fill="#c2e266" stroke="#000000"/><path d="M253.23548,172.86734c-0.16157,1.38807 -1.86511,3.90037 -1.86511,3.90037c0,0 -2.18776,-2.12164 -2.10851,-3.91009c0.07632,-1.72245 0.21554,-2.01756 0.21554,-2.01756l2.64504,-0.53268c0,0 1.27464,1.17189 1.11305,2.55997z" fill="#e8edf4" stroke="#000000"/><path d="M250.8225,170.87379c-0.73423,0.1499 -1.73406,-0.10491 -1.73406,-0.10491l0.22611,-0.68921c0,0 0.88864,0.25044 1.4522,0.09905c0.56355,-0.1514 1.24676,-0.82408 1.24676,-0.82408l0.45215,0.79862c0,0 -1.00055,0.58936 -1.64314,0.72051z" fill="#dbded5" stroke="#000000"/></g><g data-paper-data="{&quot;index&quot;:null}" stroke="none"><path d="M245.96556,179.36256c0.28813,0.37319 0.48607,2.13791 0.48607,2.13791l-3.04564,0.65558c0,0 -1.25731,-1.05437 -1.23588,-2.51327c0.01575,-1.0725 1.26426,-2.65888 1.45916,-2.70572c1.25576,-0.30178 2.04812,2.05229 2.33625,2.4255z" fill="#c2e266"/><path d="M244.85496,178.0273c0.10947,0.5244 -0.00659,0.99226 -0.25921,1.04499c-0.25263,0.05274 -0.5462,-0.3296 -0.65564,-0.85401c-0.10947,-0.5244 0.00661,-0.99226 0.25924,-1.04499c0.25263,-0.05274 0.54618,0.3296 0.65564,0.85402z" fill="#000000"/><path d="M246.74889,183.66969c0.02887,0.85977 -0.14673,2.28554 -0.14673,2.28554l-1.0571,0.7138c0,0 -1.51509,-0.27049 -1.64716,-1.03018c-0.06557,-0.37721 -0.47407,-3.34414 -0.47407,-3.34414l1.04485,-1.01989c0,0 0.60117,-0.07286 0.97981,-0.04211c0.37864,0.03074 1.00359,0.25296 1.00359,0.25296c0,0 0.26792,1.32426 0.29678,2.18404z" fill="#20201f"/><path d="M245.61906,186.60377c0,0 -1.2316,0.69309 -1.49478,0.74802c-0.26317,0.05493 -1.02176,-1.36913 -1.06993,-1.59988c-0.04817,-0.23076 0.49971,-1.53119 0.76288,-1.58611c0.26317,-0.05493 1.80181,2.43797 1.80181,2.43797z" fill="#c274a1"/><path d="M244.23832,178.84609l-0.209,-0.36594l4.56586,-8.68198l0.20484,0.15542z" fill="#6e6e73"/><path d="M248.02848,170.57707l0.50388,0.31759l-1.11719,2.01681l-0.46578,-0.32555z" fill="#c2e266"/></g></g><g data-paper-data="{&quot;index&quot;:null}" stroke="none" stroke-width="0" stroke-linecap="butt" stroke-linejoin="miter"><g><g><path d="M234.23839,187.53415c0.46079,-0.7152 1.39827,-1.7876 1.39827,-1.7876l2.4115,0.46065c0,0 0.29253,0.21637 0.43269,0.76008c0.09105,0.35313 -0.07896,0.93102 -0.07896,0.93102c0,0 0.51614,-0.48876 0.86131,-0.02627c0.22161,0.29697 -0.27652,1.28797 -0.53401,1.59131c-0.15158,0.17857 -0.52266,0.39916 -0.85825,0.42772c-0.21169,0.01801 -0.46461,-0.13018 -0.46461,-0.13018c0,0 -0.18163,0.32981 -0.54889,0.16759c-0.11253,-0.04969 -0.28039,-0.0859 -0.28039,-0.0859c0,0 -0.20353,0.19492 -0.3447,0.24942c-0.14116,0.0545 -0.38754,0.01273 -0.38754,0.01273l-0.28553,-0.30734c0,0 -0.51076,0.17821 -0.62006,0.15941c-0.42883,-0.07384 -0.53271,-0.54508 -0.59009,-0.79761c-0.10505,-0.4624 -0.18418,-1.51104 -0.11073,-1.62501z" fill="#20201f"/><path d="M235.43477,184.01083c0.58662,-0.73266 1.62853,-0.78039 2.61504,-0.37198c0.98651,0.40842 1.84984,1.24884 1.24045,1.96821c-0.60937,0.71938 -2.05417,1.04673 -3.29854,0.53154c-1.24441,-0.51521 -1.14359,-1.39513 -0.55696,-2.12777z" fill="#20201f"/><path d="M238.19394,182.71296c0.50294,-0.7149 1.30835,-1.76433 2.1247,-2.55099c0.27032,-0.2605 0.47006,-0.1974 0.62556,-0.0622c0.23145,0.20128 0.24503,0.43541 0.05722,0.67007c-0.74942,0.93649 -1.38754,1.769 -1.86338,2.44533c-0.29009,0.41233 -1.15143,1.81591 -1.15143,1.81591l-1.31707,-0.28813c0,0 0.8053,-1.00797 1.52434,-2.03003z" fill="#fed5c7"/></g><path d="M238.2354,187.9184c0,0 0.39634,-0.62671 0.86409,-0.24773c0.30032,0.24331 0.25074,0.77601 0.0683,1.1488c-0.10742,0.21947 -0.93241,-0.90107 -0.93241,-0.90107z" fill="#c0c2c6"/><path d="M236.82285,187.99953c0,0 0.39634,-0.62671 0.86409,-0.24773c0.30032,0.24331 0.25074,0.77601 0.0683,1.1488c-0.10742,0.21947 -0.93241,-0.90107 -0.93241,-0.90107z" fill="#c0c2c6"/><path d="M235.55044,188.02896c0,0 0.39634,-0.62671 0.86409,-0.24773c0.30032,0.24331 0.25074,0.77601 0.0683,1.1488c-0.10742,0.21947 -0.93241,-0.90107 -0.93241,-0.90107z" fill="#c0c2c6"/><path d="M235.60486,186.32419c0,0 0.59822,-0.43815 0.89482,0.08574c0.19045,0.33634 -0.05067,0.81396 -0.3569,1.09408c-0.18028,0.16494 -0.5379,-1.17981 -0.5379,-1.17981z" fill="#c0c2c6"/><path d="M234.62249,187.87501c0,0 0.39634,-0.62671 0.86409,-0.24773c0.30032,0.24331 0.25074,0.77601 0.0683,1.1488c-0.10742,0.21947 -0.93241,-0.90107 -0.93241,-0.90107z" fill="#c0c2c6"/></g><g><path d="M238.32585,182.24245l0.73189,-0.8819l1.19762,0.80319l-0.70219,0.89889z" fill="#83c4ac"/><path d="M239.44789,180.21037c0.40888,-0.51852 1.12409,-0.67066 1.62826,-0.31778c0.50417,0.35291 0.59257,1.06729 0.19747,1.59569c-0.70241,0.93938 -1.21716,0.8334 -1.72133,0.48053c-0.50417,-0.35291 -0.7861,-0.894 -0.10444,-1.75844z" fill="#20201f"/><path d="M237.17019,183.15964l1.14292,-0.96392l1.25707,0.83717l-0.52716,1.47383l-0.62447,-0.22235l-0.92016,-0.67652z" fill="#bebec0"/></g></g><g data-paper-data="{&quot;index&quot;:null}" stroke="none" stroke-width="0" stroke-linecap="butt" stroke-linejoin="miter"><path d="M243.03635,183.48094l1.28864,-0.33666l2.7046,1.46015l2.42579,-0.95092c0,0 -1.35664,1.55519 -2.23469,1.7276c-0.80805,0.15866 -4.18436,-1.90018 -4.18436,-1.90018z" fill="#f79db4"/><path d="M243.80591,180.39476c0.28522,-0.62869 1.02608,-0.90713 1.65477,-0.62192c0.62869,0.28522 0.90712,1.02607 0.62191,1.65475c-0.28522,0.62869 -0.88084,0.68528 -1.50953,0.40006c-0.62869,-0.28522 -1.05236,-0.80422 -0.76713,-1.4329z" fill="#83c4ac"/><path d="M238.03431,183.92854c0,0 0.6618,0.07527 1.07551,0.51101c0.5838,0.61491 1.12453,0.9145 3.50503,0.50006c2.12262,-0.36954 2.49563,-1.28952 2.88285,-1.8244c0.46958,-0.64864 0.69558,-0.88658 0.69558,-0.88658l1.92223,0.20996c0,0 -0.36115,0.53305 -0.4227,1.40524c0.0052,0.94572 -0.61399,1.44669 -1.19568,1.61051c-0.43297,0.47548 -0.71982,1.36819 -1.56845,1.31938c-0.35096,0.73219 -1.1559,0.95561 -1.88726,0.66415c-0.46677,0.60407 -1.20507,0.52625 -1.59183,0.19073c-0.83426,0.43247 -1.54361,0.15688 -1.8909,-0.29188c-0.97603,0.05724 -1.63315,-0.61625 -1.90392,-1.32354c-0.98347,-0.25394 0.37954,-2.08464 0.37954,-2.08464z" fill="#c0c2c6"/><path d="M240.05386,178.8626l0.35192,-0.11209l2.29739,-0.49931c0,0 0.05906,1.42685 0.53259,2.11827c0.47352,0.69142 0.5658,0.82369 1.23816,1.22277c0.67238,0.39906 2.00022,0.69666 2.00022,0.69666c0,0 -0.4159,0.39999 -0.61159,0.92205c-0.12243,0.32662 0.04606,0.76731 -0.17629,0.98271c-0.37641,0.36464 -0.85029,0.14356 -1.51816,0.476c-0.35728,0.17784 -0.65626,0.90606 -1.27943,1.09264c-1.11274,0.33313 -1.57496,-0.23228 -2.31105,-0.45418c-0.34441,-0.10382 -0.85198,0.37905 -1.32607,0.13197c-0.35631,-0.1857 -0.1783,-0.60984 -0.38478,-0.83747c-0.34749,-0.38308 -0.95148,-0.54757 -0.95148,-0.54757c0,0 0.49099,-0.45301 1.09084,-0.96968c0.59985,-0.51664 1.16478,-1.26166 1.16478,-1.26166c0,0 -0.10239,-0.88805 -0.13116,-1.52439c-0.02878,-0.63632 0.01411,-1.43673 0.01411,-1.43673z" fill="#20201f"/><path d="M244.16115,182.50928l-0.41684,-0.28847l0.4479,-0.84597c0,0 0.12362,0.09011 0.35573,0.23722c0.20908,0.13252 0.58721,0.28979 0.58721,0.28979l-0.16876,0.34458z" data-paper-data="{&quot;index&quot;:null}" fill="#c274a1"/><path d="M243.11557,183.12013l0.7165,-0.82873l0.33493,0.23288l-0.63739,0.73175z" data-paper-data="{&quot;index&quot;:null}" fill="#c0c2c6"/><path d="M239.36935,183.28725l-0.26496,-0.27749c0,0 0.31295,-0.26414 0.47225,-0.45365c0.17682,-0.21035 0.26745,-0.33361 0.26745,-0.33361l0.68251,0.67115l-0.31022,0.4009z" fill="#c274a1"/><path d="M241.48653,183.89082l-1.25218,-0.66493l0.24895,-0.32319l1.35692,0.73346z" fill="#c0c2c6"/><path d="M243.40735,179.89265c0.58203,1.92025 -0.87921,2.13568 -1.06249,2.11217c-0.17787,-0.0228 -0.64807,-0.18616 -0.93001,-0.35845c-0.28708,-0.17543 -0.81686,-0.67668 -0.81686,-0.67668l-0.32618,0.76735c0,0 -0.49699,-0.80583 -0.62104,-1.4168c-0.28101,-1.38404 0.24897,-1.55958 0.24897,-1.55958l2.55979,-0.6039c0,0 0.47099,0.16275 0.94782,1.73588z" fill="#c0c0c3"/><path d="M240.45442,179.22306l-0.67013,-0.43325l1.97003,-0.25789z" fill="#222225"/><g><g><path d="M241.57497,184.65166c-0.45763,-0.4421 -0.34222,-1.30395 0.25776,-1.92503c0.59999,-0.62106 1.45735,-0.76613 1.91499,-0.32405c0.45765,0.44208 0.34222,1.30394 -0.25777,1.92501c-0.59999,0.62106 -1.45735,0.76613 -1.91499,0.32405z" fill="#c0c2c6"/><path d="M242.02341,181.69615c0.11761,-0.22149 0.39251,-0.30573 0.614,-0.18813c0.22149,0.11761 0.30573,0.39252 0.18813,0.614c-0.11761,0.22149 -0.39251,0.30572 -0.614,0.18812c-0.22149,-0.11761 -0.30573,-0.39251 -0.18812,-0.614z" fill="#000000"/><path d="M242.08889,181.96057c-0.04485,-0.1828 0.06696,-0.36736 0.24977,-0.41222c0.1828,-0.04485 0.36736,0.06696 0.41222,0.24977c0.04485,0.1828 -0.09459,0.17449 -0.2774,0.21935c-0.1828,0.04485 -0.33972,0.12592 -0.38459,-0.05688z" fill="#c478a9"/><path d="M240.6662,183.62636c-0.15632,-0.19612 -0.12407,-0.48182 0.07203,-0.63813c0.19612,-0.15632 0.48182,-0.12407 0.63813,0.07203c0.15632,0.19612 0.12407,0.48181 -0.07202,0.63812c-0.19612,0.15632 -0.48182,0.12407 -0.63813,-0.07203z" fill="#000000"/><path d="M240.93483,183.67164c-0.18555,-0.03167 -0.31028,-0.20776 -0.27862,-0.39331c0.03167,-0.18555 0.20776,-0.31028 0.39331,-0.27862c0.18555,0.03167 0.12236,0.1563 0.09068,0.34182c-0.03167,0.18555 -0.01982,0.36176 -0.20539,0.3301z" fill="#c478a9"/><path d="M241.39431,183.69071c-0.01757,-0.08418 0.0913,-0.34649 0.32893,-0.39608c0.23765,-0.04961 0.4737,0.02845 0.49126,0.11261c0.01757,0.08418 -0.13089,0.33605 -0.36853,0.38565c-0.23764,0.04961 -0.43408,-0.01802 -0.45166,-0.10216z" fill="#000000"/><path d="M242.73874,182.31565c0.08408,0.01796 0.15078,0.21469 0.10009,0.45213c-0.05068,0.23743 -0.30325,0.38472 -0.38733,0.36675c-0.08408,-0.01796 -0.16106,-0.25436 -0.11035,-0.49178c0.05068,-0.23743 0.31352,-0.34506 0.39759,-0.32711z" data-paper-data="{&quot;index&quot;:null}" fill="#000000"/><path d="M241.66433,183.55012c-0.01861,-0.08912 0.03857,-0.17643 0.12766,-0.19503c0.08912,-0.01861 0.17643,0.03857 0.19504,0.12767c0.01861,0.08912 -0.03857,0.17643 -0.12767,0.19504c-0.08912,0.01861 -0.17643,-0.03857 -0.19503,-0.12767z" fill="#ffffff"/><path d="M242.36819,182.88866c-0.01965,-0.09405 0.04071,-0.18624 0.13478,-0.20587c0.09405,-0.01965 0.18624,0.04071 0.20587,0.13478c0.01965,0.09405 -0.04071,0.18624 -0.13478,0.20587c-0.09405,0.01965 -0.18624,-0.04071 -0.20587,-0.13478z" fill="#ffffff"/></g><path d="M242.5591,183.31566c0.04938,0.04342 0.05174,0.1492 -0.0117,0.22138c-0.06344,0.07217 -0.16865,0.08341 -0.21804,0.03999c-0.04938,-0.04342 0.18037,-0.30477 0.22977,-0.26138z" fill="#000000"/><path d="M242.2448,183.87713c0.04842,0.05841 -0.00071,0.17903 -0.10972,0.2694c-0.10901,0.09037 -0.23664,0.11632 -0.28507,0.05791c-0.04842,-0.05841 0.00071,-0.17903 0.10972,-0.2694c0.10901,-0.09037 0.23664,-0.11632 0.28507,-0.05791z" fill="#ad597c"/><path d="M243.27385,182.80168c0.04842,0.05841 -0.00071,0.17903 -0.10972,0.2694c-0.10901,0.09037 -0.23664,0.11632 -0.28507,0.05791c-0.04842,-0.05841 0.00071,-0.17903 0.10972,-0.2694c0.10901,-0.09037 0.23664,-0.11632 0.28507,-0.05791z" fill="#ad597c"/></g><g fill="#83c4ac"><path d="M239.8963,181.5391l-0.31263,-0.55427c0,0 0.30364,-0.25123 0.48645,-0.32611c0.16738,-0.06858 0.56823,-0.10604 0.56823,-0.10604l0.11645,0.16543c0,0 -0.25398,0.21718 -0.40446,0.36107c-0.13373,0.12789 -0.45406,0.45995 -0.45406,0.45995z"/><path d="M241.30741,181.18073c-0.16748,-0.12367 -0.57133,-0.4448 -0.57133,-0.4448l-0.1519,-0.18203c0,0 0.77319,0.12743 0.94792,0.17426c0.19083,0.05112 0.52387,0.26184 0.52387,0.26184l-0.23985,0.5894c0,0 -0.35986,-0.28875 -0.50869,-0.39866z" data-paper-data="{&quot;index&quot;:null}"/><path d="M240.62525,182.20726c0,0 -0.09572,-0.45566 -0.13095,-0.75116c-0.03523,-0.29548 -0.03264,-0.62122 -0.03264,-0.62122l0.26932,-0.08354c0,0 0.04367,0.48334 0.09041,0.79018c0.04673,0.30686 0.16763,0.90382 0.16763,0.90382z"/><path d="M241.1859,182.47259c0,0 -0.14659,-0.61892 -0.2265,-0.91885c-0.07992,-0.29992 -0.26546,-0.84922 -0.26546,-0.84922l0.24645,0.00315c0,0 0.19709,0.47523 0.28302,0.76012c0.08594,0.28489 0.18051,0.74079 0.18051,0.74079z" data-paper-data="{&quot;index&quot;:null}"/></g></g><g data-paper-data="{&quot;index&quot;:null}"><g data-paper-data="{&quot;index&quot;:null}" fill="#86cbb6" stroke="none" stroke-width="0" stroke-linecap="butt" stroke-linejoin="miter"><path d="M234.40548,171.74488c-0.45381,0.16401 -0.96666,0.41717 -0.96666,0.41717l-0.25678,-0.99408c0,0 0.86753,-0.26319 1.30058,-0.27464c0.43307,-0.01146 1.22514,0.28186 1.22514,0.28186l-0.58628,0.36586c0,0 -0.26226,0.03981 -0.71605,0.20378z"/><path d="M233.80303,172.8507c0,0 0.31852,-0.42471 0.50523,-0.65402c0.23272,-0.28587 0.78363,-0.92913 0.78363,-0.92913l0.58235,-0.12699c0,0 -0.58821,1.06175 -0.76313,1.40989c-0.12698,0.25272 -0.3993,0.78972 -0.3993,0.78972z"/></g><g stroke="none" stroke-width="0" stroke-linecap="butt" stroke-linejoin="miter"><path d="M234.08874,168.36567c0.66181,-0.53686 1.17046,-0.33389 1.60056,-0.07079c0.5634,0.33965 1.10652,0.94239 1.10652,0.94239c0,0 -0.70666,0.72355 -0.97231,1.24583c-0.26567,0.52228 -0.40133,1.45477 -0.40133,1.45477c0,0 -1.49489,-0.79795 -1.73186,-1.67674c-0.23697,-0.87881 -0.18972,-1.29203 0.39845,-1.89548z" data-paper-data="{&quot;index&quot;:null}" fill="#20201f"/><path d="M233.64497,169.33159c0.11473,-0.52196 1.09706,0.7486 1.09706,0.7486l-0.66338,0.80606c0,0 -0.58223,-0.87865 -0.43364,-1.55467z" data-paper-data="{&quot;index&quot;:null}" fill="#b2b1b2"/></g><path d="M240.60374,167.58176c3.32554,-0.29039 6.22442,1.79922 6.47488,4.66726c0.25045,2.86803 -2.24239,5.42847 -5.56791,5.71886c-3.32554,0.29039 -6.22441,-1.7992 -6.47487,-4.66725c-0.25045,-2.86803 2.2424,-5.42845 5.56793,-5.71885z" fill="#f79eb4" stroke="none" stroke-width="0" stroke-linecap="butt" stroke-linejoin="miter"/><path d="M235.90639,174.49284c-0.00024,-0.0007 0.29815,1.14572 0.75969,1.75533c0.46156,0.6096 2.15779,2.19231 2.15779,2.19231l0.36083,0.88313c0,0 -1.4792,0.07124 -2.87406,-1.98455c-0.86909,-1.27315 -0.93161,-2.33223 -0.92396,-2.31675" fill="#f79eb4" stroke="#f89db5" stroke-width="0" stroke-linecap="butt" stroke-linejoin="round"/><g fill="#ffd5c5" stroke="none" stroke-width="1" stroke-linecap="round" stroke-linejoin="round"><path d="M237.03376,176.79876c0.00775,-0.05917 0.11198,0.04957 0.1584,0.08708c0.28685,0.2315 0.5555,-0.08889 0.73867,-0.25994c0.14075,-0.13138 0.38257,-0.21575 0.57022,-0.23438c0.90374,-0.08009 2.69367,0.3561 3.00742,0.34211c0.29199,-0.013 1.09643,-0.55422 1.39631,-0.68639c0.30768,-0.13562 0.58597,-0.05853 0.63736,-0.02544c0.10777,0.06936 0.86688,0.50411 0.001,1.61625c-0.1203,0.15451 -0.9129,0.75381 -1.37918,0.85062c-0.39096,0.08113 -1.74918,0.39857 -2.8216,0.14073c-0.85465,-0.2055 -1.39402,-0.55207 -1.4629,-0.5966c-0.4208,-0.27227 -0.91643,-0.69119 -0.84568,-1.23405z"/><path d=""/></g><g fill="#000000" stroke="#000000" stroke-width="0.125" stroke-linecap="butt" stroke-linejoin="round"><path d="M235.77374,174.61269c0.00564,0.02416 -0.63519,-0.02695 -0.71445,-0.04251c-0.3609,-0.07076 -0.66926,-0.15331 -1.01407,-0.283c-0.10999,-0.04136 -0.47691,-0.22564 -0.47126,-0.22428c0.1661,0.03981 0.32118,0.13195 0.48656,0.179c0.27626,0.07853 0.55866,0.13253 0.84135,0.18394c0.44764,0.06456 0.74013,0.00845 0.80412,0.02379"/><path d="M235.63287,174.42454c0.00523,0.02253 -0.62303,-0.06245 -0.93119,-0.19586c-0.30815,-0.13341 -0.99273,-0.6018 -0.98465,-0.58859c0.02149,0.03505 0.62922,0.34542 1.06129,0.49526c0.43207,0.14983 0.7611,0.10866 0.78435,0.08108"/></g><g fill="#000000" stroke="none" stroke-width="1" stroke-linecap="round" stroke-linejoin="round"><path d="M238.28587,177.0765c-0.1089,0.01688 -0.50734,-0.19603 -0.3602,-0.32503c0.08507,-0.07458 0.60703,-0.17893 0.76511,-0.08423c0.20796,0.12457 -0.16981,0.35309 -0.4049,0.4093z"/><path d=""/></g><path d="M245.56105,172.82752c0.02394,0.01171 0.06368,2.3063 -0.03804,2.83997c-0.15261,0.80081 -0.44401,1.57589 -0.91744,2.24292c-0.20128,0.28357 -0.41504,0.52187 -0.65962,0.76493c-0.07917,0.0787 -0.41516,0.34333 -0.41516,0.34333c0,0 0.29206,-1.05773 0.18865,-2.71304c-0.05493,-0.87901 -0.34425,-2.80987 -0.31923,-2.75885" fill="#f79eb4" stroke="#f89db5" stroke-width="0" stroke-linecap="butt" stroke-linejoin="round"/><path d="M246.8771,172.04039c0.21031,0.34246 0.27039,2.21069 0.02081,3.59649c-0.19232,1.06793 -0.44589,1.3735 -0.89175,1.97178c-0.50495,0.67752 -0.90914,0.7765 -0.90914,0.7765c0,0 0.36486,-1.19206 0.44305,-1.98008c0.07821,-0.788 0.12838,-3.60387 0.11253,-3.61718" fill="#f79eb4" stroke="#f89db5" stroke-width="0" stroke-linecap="butt" stroke-linejoin="round"/><g stroke="none" stroke-width="1" stroke-linecap="round" stroke-linejoin="round"><path d="M236.62635,169.8952c0.08971,-0.12627 2.33421,-2.1187 5.35624,-1.92308c3.7387,0.28077 4.46087,4.33708 4.45817,4.33666c-0.0376,-0.00571 -0.76409,-1.5175 -1.77744,-2.11986c-1.31396,-0.78109 -2.07508,-1.23486 -3.45089,-1.3324c-1.74556,-0.12379 -4.02181,1.47116 -4.11101,1.53509" fill="#20201f"/><path d="" fill="#ee1a40"/></g><path d="M236.7857,172.67432c-0.01049,-0.0071 -1.30138,0.48738 -2.07165,0.22624c-0.77026,-0.26113 -1.98888,0.67428 -2.00427,0.67726c-0.01598,0.00305 0.83357,-1.88845 1.82562,-1.79824c0.99205,0.09021 2.37443,-0.24698 2.35021,-0.26335" fill="#f79eb4" stroke="#f89db5" stroke-width="0" stroke-linecap="butt" stroke-linejoin="round"/><path d="M236.91508,171.57653c-0.1108,-0.07411 -1.24322,-0.54859 -1.86523,-1.28624c-0.62201,-0.73765 -2.63646,-0.73307 -2.63646,-0.73307c0,0 2.26021,-0.74689 3.21128,-0.19838c0.95106,0.54849 2.12999,2.09661 2.14626,2.17858" fill="#f79eb4" stroke="#f89db5" stroke-width="0" stroke-linecap="butt" stroke-linejoin="round"/><path d="M241.30879,173.72094c-0.60521,0.05285 -2.40816,1.20664 -2.40816,1.20664c0,0 0.84898,-2.81819 3.68178,-3.70763c1.18132,0.48683 0.73012,2.61348 0.73012,2.61348c0,0 -1.39853,-0.16534 -2.00374,-0.11247z" data-paper-data="{&quot;index&quot;:null}" fill="#20201f" stroke="none" stroke-width="0" stroke-linecap="butt" stroke-linejoin="miter"/><path d="M238.86491,174.81212c0.40061,-0.26018 1.01749,-0.65944 1.78467,-1.11601c2.38009,-1.80416 2.99449,-0.67867 2.63214,0.5056c-0.03217,0.71842 -0.26188,1.81522 -1.47714,2.51351c-0.63365,0.24974 -2.23099,-0.34979 -2.90765,-0.32557c-1.18802,0.04253 -0.96959,0.55886 -1.55498,0.58857c-0.14652,0.00745 -1.04461,-0.77868 -1.47883,-1.96767c-0.20474,-0.56065 -0.22951,-0.85596 -0.16166,-0.86129c0.44777,-0.0352 0.90815,0.31191 1.35809,0.79749c0.31472,0.33967 0.72006,0.60696 1.05321,0.5476c0.19421,-0.03459 0.39276,-0.04196 0.75213,-0.68228z" fill="#ffffff" stroke="none" stroke-width="0" stroke-linecap="butt" stroke-linejoin="miter"/><path d="M235.61454,174.34934c0,0 -0.04484,-0.56636 0.24792,-0.8563c0.73296,-0.38992 1.5491,1.79272 1.5491,1.79272c0,0 -1.00556,-0.72367 -1.17457,-0.70891c-0.16903,0.01476 -0.62243,-0.22749 -0.62243,-0.22749z" data-paper-data="{&quot;index&quot;:null}" fill="#20201f" stroke="none" stroke-width="0" stroke-linecap="butt" stroke-linejoin="miter"/><path d="M236.93074,173.68673c-0.05168,0.04526 -0.82707,0.52804 -1.64419,0.43837c-0.81712,-0.08968 -1.94617,0.77929 -1.94617,0.77929c0,0 0.90856,-1.52589 1.65308,-1.62508c0.74453,-0.09919 1.88057,-0.53637 1.86295,-0.52097" fill="#f79eb4" stroke="#f89db5" stroke-width="0" stroke-linecap="butt" stroke-linejoin="round"/><g fill="#000000" stroke="#000000" stroke-width="0.125" stroke-linecap="butt" stroke-linejoin="round"><path d="M243.1257,172.95681c0.04762,-0.02234 0.09094,0.00926 0.1376,0.0077c0.04892,-0.00164 0.27168,-0.04259 0.43613,-0.10213c0.84443,-0.30576 1.21488,-0.85654 1.21488,-0.85654c0,0 -0.12212,0.39383 -1.29386,1.03889c-0.18248,0.10046 -0.33628,0.10095 -0.36376,0.0672"/><path d="M243.222,173.14425c0.03392,0.00088 0.09965,0.05434 0.13042,0.07297c0.06985,0.04231 0.58224,0.28473 1.31233,0.10506c0.24179,-0.06092 0.99406,-0.35031 0.99406,-0.35031c0,0 -0.36229,0.26082 -1.03574,0.4221c-0.28242,0.06763 -0.89975,0.12522 -1.1492,0.06698c-0.13451,-0.03141 -0.17461,-0.0711 -0.17461,-0.0711"/></g><g stroke="none" stroke-linecap="butt" stroke-linejoin="miter"><path d="M240.80132,175.07246c0.10877,0.71238 0.01012,1.31837 -0.22034,1.35358c-0.23048,0.03518 -0.50549,-0.51378 -0.61426,-1.22612c-0.10877,-0.71238 -0.01012,-1.31841 0.22033,-1.35357c0.23048,-0.03518 0.50549,0.51378 0.61425,1.22614z" fill="#169c5b" stroke-width="NaN"/><path d="M240.58536,175.26854c0.04541,0.29753 0.00019,0.55129 -0.10109,0.56676c-0.10128,0.01546 -0.22021,-0.2132 -0.26562,-0.51075c-0.04541,-0.29753 -0.00019,-0.55129 0.10109,-0.56676c0.10128,-0.01546 0.22021,0.2132 0.26562,0.51075z" fill="#000000" stroke-width="0"/><path d="M240.40619,174.60358c0.04599,0.30104 -0.01586,0.5602 -0.13805,0.57885c-0.12221,0.01865 -0.25855,-0.21022 -0.30453,-0.51128c-0.04599,-0.30104 0.01585,-0.56022 0.13804,-0.57885c0.12221,-0.01865 0.25857,0.21025 0.30453,0.51128z" fill="#ffffff" stroke-width="0"/></g><g stroke="none" stroke-linecap="butt" stroke-linejoin="miter"><path d="M237.43989,175.85557c0.07671,0.50247 0.00715,0.9299 -0.1554,0.95472c-0.16257,0.02482 -0.35654,-0.36238 -0.43327,-0.86483c-0.07671,-0.50247 -0.00715,-0.92989 0.15543,-0.9547c0.16257,-0.02482 0.35654,0.36237 0.43326,0.86485z" fill="#169c5b" stroke-width="NaN"/><path d="M237.2876,175.99386c0.03207,0.20988 0.00012,0.38884 -0.07131,0.39976c-0.07143,0.01092 -0.15531,-0.15038 -0.18737,-0.36024c-0.03207,-0.20988 -0.00012,-0.38884 0.07129,-0.39971c0.07143,-0.01092 0.15531,0.15038 0.18736,0.36024z" fill="#000000" stroke-width="0"/><path d="M237.1612,175.52485c0.03239,0.21233 -0.01116,0.39511 -0.09739,0.40828c-0.08624,0.01317 -0.18237,-0.1483 -0.2148,-0.36061c-0.03239,-0.21233 0.01116,-0.39513 0.09739,-0.40832c0.08624,-0.01317 0.18238,0.14833 0.21479,0.36065z" fill="#ffffff" stroke-width="0"/></g><path d="M241.63469,177.74027c0,0 0.54464,-0.15391 0.74026,-0.19257c0.1956,-0.03865 0.75132,0.08615 0.75132,0.08615" data-paper-data="{&quot;index&quot;:null}" fill="none" stroke="#000000" stroke-width="0.125" stroke-linecap="round" stroke-linejoin="miter"/><g fill="#86cbb6" stroke="none" stroke-width="0" stroke-linecap="butt" stroke-linejoin="miter"><path d="M244.67176,170.23831l-0.76598,-0.30927c0,0 0.87171,-0.50943 1.38393,-0.58567c0.51222,-0.07624 1.58805,0.05384 1.58805,0.05384l-0.09634,1.22351c0,0 -0.65618,-0.1918 -1.22445,-0.29082c-0.56824,-0.09903 -0.88522,-0.09159 -0.88522,-0.09159z"/><path d="M245.76233,172.22999c0,0 -0.43182,-0.57576 -0.63369,-0.84699c-0.27807,-0.37361 -1.19054,-1.50172 -1.19054,-1.50172l0.71188,0.02886c0,0 0.78187,0.64318 1.11505,0.93148c0.26731,0.2313 0.73028,0.66529 0.73028,0.66529z"/></g><path d="M244.72599,168.5818c0.28198,1.21225 -0.37321,2.28793 -0.37321,2.28793c0,0 -0.31797,-0.33653 -1.93428,-0.94327c-0.94486,-0.35468 -2.0968,-0.57307 -2.0968,-0.57307c0,0 0.26532,-1.07725 0.72498,-1.85049c0.3485,-0.59487 0.83049,-1.16799 1.97487,-0.9484c1.09861,0.34745 1.42247,0.81503 1.70446,2.02727z" fill="#20201f" stroke="none" stroke-width="0" stroke-linecap="butt" stroke-linejoin="miter"/><path d="M243.61973,169.28535c0,0 -0.2133,-0.15222 -1.15991,-0.36275c-0.55334,-0.12306 -1.20128,-0.16389 -1.20128,-0.16389c0,0 0.33177,-1.26822 1.36878,-1.07626c1.09332,0.20236 0.99243,1.60291 0.99243,1.60291z" fill="#b2b1b2" stroke="none" stroke-width="0" stroke-linecap="butt" stroke-linejoin="miter"/></g><g data-paper-data="{&quot;index&quot;:null}" stroke-width="0" stroke-linecap="butt" stroke-linejoin="miter"><path d="M225.06483,183.57416c2.14974,0.2206 3.40743,2.77738 3.40743,2.77738l-0.05902,0.95511c0,0 -0.70492,-0.5518 -3.42449,-1.31075c-1.87081,0.26877 -4.12233,0.44163 -4.12233,0.44163c0,0 -0.08291,0.34197 0.0029,-0.38068c0.08579,-0.72267 0.09883,-0.45679 0.09883,-0.45679c0,0 1.08023,-2.33544 4.09665,-2.02586z" fill="#cacacd" stroke="none"/><path d="M220.82929,186.51087c0,0 1.1543,-1.49028 3.73099,-1.21205c2.7366,0.29551 3.87069,1.98025 3.87069,1.98025c0,0 -0.36288,2.83649 -4.06975,2.42141c-3.30318,-0.36986 -3.53191,-3.18961 -3.53191,-3.18961z" fill="#c2e266" stroke="#000000"/><path d="M228.59168,183.66418l-7.36355,-0.88279c0,0 0.52319,-3.85697 4.07651,-3.52331c3.60476,0.33849 3.28705,4.40607 3.28705,4.40607z" fill="#c2e266" stroke="none"/><path d="M228.59573,183.76133l-3.5962,-2.14431l-3.76419,1.15877l0.02845,-0.27825c0,0 0.94466,-1.84904 3.82055,-1.58911c2.84259,0.26019 3.53623,2.50375 3.53623,2.50375z" fill="#cacacd" stroke="none"/><path d="M225.23308,181.38535c2.08946,0.28577 3.3899,2.26474 3.3899,2.26474l-0.19449,3.13584c0,0 -2.20561,-1.90627 -3.82202,-2.10369c-1.61643,-0.19743 -3.70246,1.18466 -3.70246,1.18466l0.31906,-3.09056c0,0 1.07816,-1.79201 4.00999,-1.391z" fill="#c274a1" stroke="none"/><path d="M230.885,186.40194c0,0 0.17808,-0.62169 0.233,-1.02541c0.05495,-0.40373 0.03967,-0.97784 0.03967,-0.97784l11.15022,1.78477c0,0 0.13838,0.67729 0.08107,1.10645c-0.05733,0.42916 -0.33445,0.7908 -0.33445,0.7908z" fill="#c2e266" stroke="none"/><path d="M228.36747,186.46875l0.16333,-2.78097c0,0 2.39643,0.20213 2.56216,0.50518c0.28073,0.51324 -0.03859,2.20997 -0.38349,2.44178c-0.09086,0.06107 -2.34201,-0.16598 -2.34201,-0.16598z" fill="#cacacd" stroke="none"/></g><g data-paper-data="{&quot;index&quot;:null}" stroke="none" stroke-width="0" stroke-linecap="butt" stroke-linejoin="miter"><path d="M240.07071,183.12801c1.3863,0.50662 2.22113,1.70797 1.86473,2.68318c-0.35641,0.97524 -1.76916,1.35513 -3.15541,0.84849c-1.3863,-0.50663 -2.22114,-1.70795 -1.86473,-2.68318c0.35641,-0.97524 1.76918,-1.35513 3.15545,-0.84847z" fill="#20201f"/><path d="M241.9508,179.19303c0.23772,-0.31122 0.45362,-0.27762 0.63529,-0.16269c0.2704,0.17106 0.32127,0.41037 0.16461,0.68196c-0.62525,1.08377 -1.15209,2.04278 -1.53618,2.81521c-0.23416,0.4709 -1.08112,2.34188 -1.08112,2.34188l-1.10326,-0.52116c0,0 0.55121,-1.02262 1.13162,-2.18989c0.40598,-0.81646 1.07112,-2.0255 1.78903,-2.96532z" fill="#fed5c7"/><path d="M240.39057,181.26145l0.57307,-0.99247l1.31571,0.59024l-0.54091,1.00422z" fill="#83c4ac"/><path d="M241.15472,179.06957c0.31584,-0.57995 0.99525,-0.85022 1.55156,-0.58721c0.55636,0.26303 0.76369,0.95238 0.46315,1.53971c-0.53434,1.04416 -1.0596,1.02633 -1.61596,0.76329c-0.55636,-0.26303 -0.9253,-0.74899 -0.39877,-1.71581z" fill="#20201f"/><path d="M239.40568,182.36l0.96446,-1.14246l1.38001,0.61373l-0.27165,1.54152l-0.65298,-0.11415l-1.02089,-0.51207z" fill="#bebec0"/><g><path d="M238.07492,184.82255l2.35986,0.99504c0,0 0.25128,0.28444 0.27589,0.86964c0.01601,0.38006 -0.28326,0.93262 -0.28326,0.93262c0,0 0.63299,-0.38624 0.8844,0.16074c0.16144,0.35116 -0.56255,1.25378 -0.89131,1.50715c-0.19353,0.14916 -0.62013,0.2934 -0.96868,0.24944c-0.2199,-0.02771 -0.44567,-0.23397 -0.44567,-0.23397c0,0 -0.25707,0.29694 -0.59642,0.05145c-0.10398,-0.07521 -0.26732,-0.14871 -0.26732,-0.14871c0,0 -0.25009,0.15455 -0.40595,0.17939c-0.15587,0.02485 -0.39809,-0.07139 -0.39809,-0.07139l-0.22439,-0.37571c0,0 -0.55986,0.0706 -0.66729,0.02756c-0.4214,-0.16872 -0.42477,-0.67206 -0.42831,-0.94221c-0.00649,-0.4946 0.14115,-1.58159 0.24085,-1.68189c0.62583,-0.6293 1.8157,-1.51921 1.8157,-1.51921z" fill="#20201f"/><path d="M240.42741,187.61986c0,0 0.63299,-0.38624 0.8844,0.16074c0.16144,0.35116 -0.11902,0.80679 -0.44772,1.06016c-0.19353,0.14916 -0.43669,-1.22092 -0.43669,-1.22092z" fill="#c0c2c6"/></g></g></g></g></svg>