<svg version="1.1" xmlns="http://www.w3.org/2000/svg" xmlns:xlink="http://www.w3.org/1999/xlink" width="31.60662" height="34.79343" viewBox="0,0,31.60662,34.79343"><g transform="translate(-221.92017,-165.50483)"><g data-paper-data="{&quot;isPaintingLayer&quot;:true}" fill-rule="nonzero" stroke-miterlimit="10" stroke-dasharray="" stroke-dashoffset="0" style="mix-blend-mode: normal"><path d="M240.97463,182.27002l1.33025,-0.06623l2.34916,1.98201l2.56892,-0.43515c0,0 -1.6458,1.24515 -2.54056,1.2345c-0.82341,-0.00981 -3.70777,-2.71515 -3.70777,-2.71515z" fill="#f79db4" stroke="none" stroke-width="0" stroke-linecap="butt" stroke-linejoin="miter"/><g stroke="none" stroke-width="0" stroke-linecap="butt" stroke-linejoin="miter"><path d="M232.69296,185.08937c0.50074,-0.68784 1.49767,-1.70516 1.49767,-1.70516l2.38141,0.59706c0,0 0.27972,0.23267 0.38876,0.78347c0.07081,0.35771 -0.13178,0.92503 -0.13178,0.92503c0,0 0.5431,-0.45862 0.86142,0.02276c0.20438,0.30908 -0.34933,1.27017 -0.62366,1.55837c-0.16149,0.16966 -0.54453,0.36878 -0.88119,0.37819c-0.21237,0.00594 -0.45647,-0.15641 -0.45647,-0.15641c0,0 -0.20009,0.31896 -0.55754,0.13609c-0.10952,-0.05603 -0.27504,-0.10172 -0.27504,-0.10172c0,0 -0.21428,0.18303 -0.3583,0.2294c-0.14403,0.04637 -0.38762,-0.00932 -0.38762,-0.00932l-0.26759,-0.32308c0,0 -0.52007,0.14888 -0.62813,0.12388c-0.42395,-0.09812 -0.50084,-0.5745 -0.54377,-0.8299c-0.07859,-0.46764 -0.09792,-1.51908 -0.01814,-1.62867z" fill="#ffffff"/><path d="M234.40957,181.81089c0.28017,-0.35362 1.55813,-0.50277 2.06699,-0.256c1.4332,0.69505 1.37954,1.15125 1.0447,1.66433c-0.51264,0.78553 -1.56609,1.38675 -3.26749,0.215c-0.46575,-0.32076 -0.12436,-1.2697 0.15579,-1.62332z" fill="#fed000"/><path d="M236.91633,180.50098c0.54278,-0.68512 1.40659,-1.68706 2.26636,-2.42599c0.2847,-0.24469 0.48054,-0.17034 0.6281,-0.02649c0.21964,0.21412 0.21986,0.44866 0.01904,0.67224c-0.80148,0.89235 -1.48591,1.68719 -1.99944,2.3354c-0.31308,0.39517 -1.25285,1.74746 -1.25285,1.74746c0,0 -0.23482,0.0861 -0.53175,-0.0067c-0.29692,-0.0928 -0.7668,-0.35587 -0.7668,-0.35587c0,0 0.86131,-0.96052 1.63734,-1.94006z" fill="#fed5c7"/></g><g data-paper-data="{&quot;index&quot;:null}" stroke-width="0" stroke-linecap="butt" stroke-linejoin="miter"><g data-paper-data="{&quot;index&quot;:null}"><path d="M230.38453,167.4304c0,-1.06346 0.8653,-1.92557 1.93267,-1.92557c1.06738,0 1.93265,0.86211 1.93265,1.92557c0,1.06346 -0.86528,1.92557 -1.93265,1.92557c-1.06738,0 -1.93267,-0.86211 -1.93267,-1.92557z" fill="#e0cb17" stroke="none"/><path d="M231.05236,168.06554c0,-0.65701 0.53456,-1.18962 1.194,-1.18962c0.65944,0 1.194,0.5326 1.194,1.18962c0,0.65701 -0.53456,1.18962 -1.194,1.18962c-0.65944,0 -1.194,-0.53261 -1.194,-1.18962z" fill="#e0cb17" stroke="#000000"/><path d="M230.69587,171.75559c-0.3444,-1.03347 0.44156,-2.13075 0.44156,-2.13075l2.10321,-0.01487c0,0 0.15323,0.20302 0.48585,1.50522c0.34536,1.35211 -0.98611,4.48625 -0.98611,4.48625c0,0 -1.7001,-2.81238 -2.04451,-3.84585z" fill="#e8edf4" stroke="#000000"/><path d="M232.21958,169.85c-0.51125,0.00227 -1.36863,-0.28808 -1.36863,-0.28808l0.21781,-0.68142c0,0 0.62849,0.40447 1.08264,0.43022c0.45414,0.02575 1.09235,-0.30689 1.09235,-0.30689l0.28233,0.4899c0,0 -0.72235,0.35366 -1.30651,0.35626z" fill="#dbded5" stroke="#000000"/></g><g data-paper-data="{&quot;index&quot;:null}" stroke="none"><path d="M238.27703,173.60197c0.20118,0 0.36426,0.33852 0.36426,0.75611c0,0.41759 -0.16308,0.75611 -0.36426,0.75611c-0.20118,0 -0.36428,-0.33853 -0.36428,-0.75611c0,-0.41759 0.16309,-0.75611 0.36428,-0.75611z" fill="#000000"/><path d="M239.68243,178.87693c0.20956,0 0.83479,0.90506 0.83479,1.0888c0,0.18374 -0.35203,1.39124 -0.56158,1.39124c-0.20956,0 -1.25977,-0.33269 -1.25977,-0.33269c0,0 0.77701,-2.14736 0.98657,-2.14736z" fill="#807d5a"/><path d="M233.6163,168.82566l0.13154,-0.15122l4.86707,5.89768l-0.1012,0.31253z" fill="#6e6e73"/><path d="M235.44778,170.53951l-0.30356,0.32261l-1.17375,-1.36101l0.33391,-0.32261z" fill="#ddcb1e"/></g></g><g stroke-width="0" stroke-linecap="butt" stroke-linejoin="miter"><g data-paper-data="{&quot;index&quot;:null}"><path d="M251.0475,170.88621c-1.36927,0 -2.47929,-1.10593 -2.47929,-2.47018c0,-1.36424 1.11001,-2.47019 2.47929,-2.47019c1.36927,0 2.47929,1.10594 2.47929,2.47019c0,1.36424 -1.11002,2.47018 -2.47929,2.47018z" fill="#e0cb17" stroke="none"/><path d="M251.13836,170.75689c-0.84593,0 -1.5317,-0.68326 -1.5317,-1.52609c0,-0.84284 0.68576,-1.52608 1.5317,-1.52608c0.84593,0 1.53171,0.68324 1.53171,1.52608c0,0.84284 -0.68577,1.52609 -1.53171,1.52609z" fill="#e0cb17" stroke="#000000"/><path d="M253.12739,173.96452c-0.44182,1.32576 -2.62278,4.54805 -2.62278,4.54805c0,0 -1.70805,-3.63505 -1.26501,-5.36956c0.42669,-1.67051 0.62326,-1.93095 0.62326,-1.93095l2.69807,0.01907c0,0 1.00827,1.40763 0.56646,2.7334z" fill="#e8edf4" stroke="#000000"/><path d="M251.17272,171.51995c-0.74937,-0.00331 -1.67602,-0.45702 -1.67602,-0.45702l0.36218,-0.62847c0,0 0.81871,0.42674 1.40131,0.39371c0.58259,-0.03303 1.38884,-0.55192 1.38884,-0.55192l0.27941,0.87416c0,0 -1.09986,0.37246 -1.75571,0.36955z" fill="#dbded5" stroke="#000000"/></g><g data-paper-data="{&quot;index&quot;:null}" stroke="none"><path d="M244.68361,178.83711c0.20578,0.42419 0.03894,2.19213 0.03894,2.19213l-3.11533,0.0194c0,0 -1.01532,-1.28904 -0.69622,-2.71278c0.23458,-1.04665 1.78092,-2.34443 1.98128,-2.35045c1.29092,-0.0388 1.58553,2.42751 1.79131,2.85171z" fill="#e4dcaa"/><path d="M243.86932,177.30308c0,0.5357 -0.20921,0.96997 -0.46729,0.96997c-0.25808,0 -0.46731,-0.43427 -0.46731,-0.96997c0,-0.5357 0.20922,-0.96997 0.46731,-0.96997c0.25808,0 0.46729,0.43426 0.46729,0.96997z" fill="#000000"/><path d="M244.57027,183.21342c-0.14743,0.84753 -0.61066,2.20732 -0.61066,2.20732l-1.18066,0.48271c0,0 -1.42785,-0.57438 -1.4019,-1.34502c0.01289,-0.38265 0.21929,-3.37045 0.21929,-3.37045l1.23122,-0.78486c0,0 0.60337,0.05153 0.96773,0.159c0.36436,0.10747 0.93073,0.45271 0.93073,0.45271c0,0 -0.00834,1.35107 -0.15577,2.1986z" fill="#dfcc17"/><path d="M242.86472,185.85472c0,0 -1.34724,0.42678 -1.61608,0.42678c-0.26884,0 -0.72043,-1.54904 -0.72043,-1.78475c0,-0.23571 0.80206,-1.39676 1.0709,-1.39676c0.26884,0 1.2656,2.75471 1.2656,2.75471z" fill="#807d5a"/><path d="M243.09836,177.97857l-0.12981,-0.40092l6.24365,-7.56575l0.16875,0.194z" fill="#6e6e73"/><path d="M248.49827,170.65855l0.42836,0.41385l-1.50574,1.74595l-0.38942,-0.41386z" fill="#ddcb1e"/></g></g><g stroke="none" stroke-width="0" stroke-linecap="butt" stroke-linejoin="miter"><g><path d="M239.27267,199.18262c0,0 1.98182,-1.3234 2.67265,-2.10437c0.55993,-0.63301 1.1627,-2.23152 1.1627,-2.23152c0,0 0.79401,0.42806 0.74319,1.94969c-0.01429,0.42793 -0.62987,0.8679 -0.62987,0.8679l-0.96007,0.21112c0,0 -0.74399,1.09293 -1.24719,1.42417c-0.84768,0.55799 -1.53493,0.93196 -2.63712,0.99535c-1.10219,0.06338 -0.64799,-0.80643 -0.64799,-0.80643l1.54367,-0.30591z" fill="#393939"/><path d="M237.79347,192.01947l2.75214,-1.27784l0.34479,0.63431l-0.1515,0.11982c0,0 0.27457,0.10865 0.31934,0.17088c0.1961,0.27262 0.04828,0.29508 0.04828,0.29508c0,0 0.50196,0.11348 0.77704,0.39653c0.27506,0.28304 0.66659,0.62117 0.89498,1.13841c0.22839,0.51724 0.30146,1.57128 0.30146,1.57128c0,0 0.05583,2.19046 -3.40234,4.03603c-1.02345,0.54619 -1.67819,0.40472 -1.67819,0.40472c0,0 -0.62147,-1.47548 -0.59457,-2.54678c0.21884,-0.98216 0.27016,-1.442 0.32061,-1.86919c0.041,-0.34718 0.03425,-1.2536 0.03425,-1.2536l-0.10909,-0.40747l0.065,-0.35615z" fill="#f01a40"/><path d="M237.90302,188.77227c0.40149,-0.16496 2.29728,-0.06443 2.30455,0.56978c0.01015,0.8854 0.00394,0.31875 0.07357,0.65047c0.06964,0.33172 0.51664,0.29957 0.21773,0.73702c-0.24418,0.35736 -0.49922,0.85468 -1.06041,1.08551c-1.05692,0.30049 -1.39709,0.31835 -1.88787,0.15536c-0.32922,-0.10934 -0.35833,-0.92018 -0.35833,-0.92018c0,0 -0.61766,-0.32082 -0.68982,-0.61041c-0.07214,-0.28961 0.58504,-1.33249 1.40056,-1.66756z" fill="#ffffff"/><path d="M238.49576,192.93965c-0.02852,-0.31622 -0.32018,-0.85307 -0.32018,-0.85307l1.40111,-0.37536l0.21582,0.96505l-0.14876,0.37177l0.02921,0.34413c0,0 -0.06278,1.03985 0.03738,2.21447c0.07007,0.44366 0.82961,3.02728 0.82961,3.02728c0,0 -0.97864,0.60316 -1.22616,0.69347c-0.24059,0.08778 -0.74984,0.18613 -0.74984,0.18613c0,0 -0.43278,-1.41593 -0.54214,-2.41732c-0.0888,-0.81305 0.5431,-3.49608 0.5431,-3.49608c0,0 -0.06382,-0.60097 -0.06919,-0.66045z" fill="#ffffff"/></g><path d="M239.56411,189.53071c0.08877,0.3741 -0.35391,0.79949 -0.98874,0.95014c-0.63484,0.15063 -1.22144,-0.03052 -1.31021,-0.40462c-0.08877,-0.3741 0.35391,-0.79949 0.98874,-0.95012c0.63484,-0.15063 1.22143,0.03052 1.31021,0.40461z" fill="#afafaf"/></g><path d="M239.86408,184.34102l-0.15094,3.45998l-0.21434,2.23566c0,0 -0.34297,0.25012 -0.58118,0.36107c-0.2382,0.11094 -0.61837,0.0948 -0.61837,0.0948l0.0895,-2.30298l0.2112,-3.74121z" fill="#f79db4" stroke="none" stroke-width="0" stroke-linecap="butt" stroke-linejoin="miter"/><g stroke="none" stroke-width="0" stroke-linecap="butt" stroke-linejoin="miter"><g><path d="M241.3226,198.92963c0,0 2.007,-1.2849 2.71277,-2.05241c0.57203,-0.62208 1.20555,-2.20866 1.20555,-2.20866c0,0 0.78562,0.44331 0.70543,1.96367c-0.02255,0.42757 -0.64652,0.85559 -0.64652,0.85559l-0.96395,0.19257c0,0 -0.76494,1.07837 -1.27444,1.39982c-0.85829,0.54153 -1.55263,0.90217 -2.65583,0.94428c-1.1032,0.04211 -0.63232,-0.81879 -0.63232,-0.81879l1.5493,-0.27607z" fill="#393939"/><path d="M239.98192,191.73927l2.77628,-1.22448l0.33249,0.64084l-0.15379,0.11689c0,0 0.27243,0.11393 0.31599,0.17701c0.1908,0.27635 0.04258,0.29595 0.04258,0.29595c0,0 0.49969,0.12315 0.76924,0.41146c0.26955,0.2883 0.65448,0.63391 0.87284,1.15547c0.21837,0.52155 0.27107,1.57681 0.27107,1.57681c0,0 0.01355,2.19112 -3.4796,3.96961c-1.0338,0.52634 -1.68568,0.37228 -1.68568,0.37228c0,0 -0.59287,-1.48719 -0.54531,-2.55778c0.23775,-0.97776 0.29793,-1.43652 0.35662,-1.86265c0.04769,-0.34632 0.05844,-1.25272 0.05844,-1.25272l-0.10121,-0.4095l0.07185,-0.35483z" fill="#f01a40"/><path d="M240.15411,188.49478c0.4046,-0.15719 2.29808,-0.02007 2.29311,0.61416c-0.00693,0.88543 -0.00222,0.31876 0.06101,0.65176c0.06322,0.33301 0.51076,0.3095 0.20347,0.74108c-0.25103,0.35258 -0.51561,0.8449 -1.08114,1.06485c-1.06252,0.28004 -1.40299,0.29135 -1.89052,0.11892c-0.32705,-0.11567 -0.3405,-0.92692 -0.3405,-0.92692c0,0 -0.61136,-0.33268 -0.67792,-0.62362c-0.06654,-0.29094 0.61066,-1.32095 1.43248,-1.64022z" fill="#ffffff"/><path d="M240.66632,192.67282c-0.02241,-0.31671 -0.30365,-0.85909 -0.30365,-0.85909l1.40809,-0.34826l0.19715,0.96904l-0.1559,0.36883l0.02257,0.34461c0,0 -0.08284,1.03844 -0.00535,2.21479c0.06149,0.44493 0.77104,3.04271 0.77104,3.04271c0,0 -0.99008,0.58417 -1.23931,0.66968c-0.24224,0.08312 -0.75329,0.17164 -0.75329,0.17164c0,0 -0.40537,-1.42402 -0.49539,-2.42734c-0.07309,-0.81462 0.61047,-3.48494 0.61047,-3.48494c0,0 -0.05222,-0.60211 -0.05643,-0.66167z" fill="#ffffff"/></g><path d="M241.80024,189.28513c0.08153,0.37574 -0.36927,0.7925 -1.0069,0.93086c-0.63763,0.13836 -1.22062,-0.05408 -1.30215,-0.42983c-0.08153,-0.37574 0.36928,-0.79251 1.00691,-0.93087c0.63763,-0.13836 1.22062,0.05409 1.30215,0.42984z" fill="#afafaf"/></g><path d="M241.38449,179.49034c0,0 -0.70509,-0.48515 -0.83343,-0.79847c-0.13607,-0.33219 -0.03773,-1.14138 -0.03773,-1.14138l0.94772,-0.37052z" fill="#f25c76" stroke="none" stroke-width="0" stroke-linecap="butt" stroke-linejoin="miter"/><path d="M240.75253,184.55728l0.64086,3.72209l0.24475,1.33028c0,0 -0.27671,0.34221 -0.5154,0.47678c-0.23869,0.13457 -0.78808,0.25808 -0.78808,0.25808l-0.30175,-1.78308l-0.6119,-4.09511z" fill="#f79db4" stroke="none" stroke-width="0" stroke-linecap="butt" stroke-linejoin="miter"/><path d="M235.10948,181.86146c0,0 0.54573,2.92812 4.67202,3.06609c4.76471,0.15931 5.28498,-2.88744 5.28498,-2.88744l1.09315,0.24746c0,0 -1.25833,3.83245 -5.98864,3.85694c-4.59148,0.10652 -6.24764,-3.99094 -6.24764,-3.99094z" fill="#ffffff" stroke="none" stroke-width="0" stroke-linecap="butt" stroke-linejoin="miter"/><path d="M238.04336,178.54319c0.09822,-0.58489 0.95546,-1.40353 0.95546,-1.40353l0.36739,-0.0378l1.19241,0.34653c0,0 -0.01075,0.75209 0.12879,1.13997c0.17614,0.48963 0.69141,0.79854 0.69141,0.79854l0.16418,1.05864l1.45459,0.71556l0.07511,0.16357l0.62958,0.28818l1.39789,0.45591c0,0 0.02129,0.93076 -1.28245,1.79128c-1.2014,0.79298 -1.68178,1.06838 -3.54156,1.22701c-1.69886,0.1449 -2.81101,-0.3468 -4.10856,-1.4095c-0.83397,-0.68303 -1.1641,-1.79467 -1.1641,-1.79467l2.79502,-0.80497l0.04716,-0.15691l0.32623,-0.1583c0,0 -0.23825,-1.56604 -0.12852,-2.21952z" fill="#f01a40" stroke="none" stroke-width="0" stroke-linecap="butt" stroke-linejoin="miter"/><path d="M241.79289,176.92193c0,0 -0.13759,0.77644 -1.54787,0.79949c-1.31175,0.02144 -1.34815,-0.70811 -1.34815,-0.70811c0,0 0.78953,0.13026 1.29821,0.11422c0.50869,-0.01605 1.59781,-0.20559 1.59781,-0.20559z" fill="#afafaf" stroke="none" stroke-width="0" stroke-linecap="butt" stroke-linejoin="miter"/><g><path d="M239.73459,171.07369c0,0 0.61759,-0.67464 1.40761,-0.76552c0.70503,-0.08111 1.01817,0.1168 1.47414,0.63c0.69072,0.77739 0.3,2.12111 0.3,2.12111c0,0 0.35349,-2.02528 -1.18672,-2.52077c-0.9529,-0.30654 -1.99504,0.53519 -1.99504,0.53519z" fill="#000000" stroke="none" stroke-width="0" stroke-linecap="butt" stroke-linejoin="miter"/><path d="M240.82368,166.154c3.33818,0 6.0443,2.33386 6.0443,5.21282c0,2.87895 -2.70612,5.2128 -6.0443,5.2128c-3.33818,0 -6.04431,-2.33384 -6.04431,-5.2128c0,-2.87895 2.70612,-5.21281 6.04431,-5.21281z" fill="#f79eb4" stroke="none" stroke-width="0" stroke-linecap="butt" stroke-linejoin="miter"/><path d="M235.54294,172.63024c-0.00019,-0.00071 0.19735,1.16732 0.60411,1.81476c0.40677,0.64744 1.9589,2.37171 1.9589,2.37171l0.28262,0.91116c0,0 -1.47979,-0.05771 -2.69053,-2.22704c-0.75503,-1.34395 -0.72519,-2.40445 -0.71892,-2.38834" fill="#f79eb4" stroke="#f89db5" stroke-width="0" stroke-linecap="butt" stroke-linejoin="round"/><g fill="#ffd5c5" stroke="none" stroke-width="1" stroke-linecap="round" stroke-linejoin="round"><path d="M236.46545,175.02548c0.01286,-0.05827 0.10724,0.05912 0.15022,0.10052c0.26562,0.25558 0.5611,-0.04023 0.75847,-0.1947c0.15166,-0.11865 0.39988,-0.18165 0.58844,-0.18388c0.9073,-0.00118 2.65248,0.58906 2.96625,0.60243c0.29203,0.01245 1.1405,-0.45673 1.45072,-0.56231c0.31827,-0.10832 0.58883,-0.00731 0.63715,0.0301c0.10131,0.07848 0.81974,0.57762 -0.13962,1.61022c-0.1333,0.14347 -0.97502,0.67153 -1.44795,0.72743c-0.39656,0.04683 -1.77722,0.2449 -2.82313,-0.10525c-0.83355,-0.27907 -1.34071,-0.67124 -1.40543,-0.72159c-0.39554,-0.30784 -0.85282,-0.7683 -0.73513,-1.30295z"/><path d=""/></g><g fill="#000000" stroke="#000000" stroke-width="0.125" stroke-linecap="butt" stroke-linejoin="round"><path d="M235.58503,173.47458c0.00352,0.02456 -0.63044,-0.08212 -0.70803,-0.10451c-0.35338,-0.10189 -0.65339,-0.21094 -0.9856,-0.37014c-0.10599,-0.05078 -0.45547,-0.26627 -0.44996,-0.26442c0.16201,0.05411 0.30848,0.15939 0.46915,0.22066c0.26838,0.10227 0.54502,0.18063 0.82216,0.25642c0.44035,0.10327 0.73658,0.0728 0.799,0.09365"/><path d="M235.45263,172.98324c0.00326,0.02291 -0.61525,-0.11643 -0.91062,-0.27614c-0.29537,-0.15971 -0.93662,-0.68589 -0.9297,-0.67201c0.01836,0.03678 0.59678,0.39886 1.01418,0.58572c0.41741,0.18686 0.74875,0.17446 0.77433,0.149"/></g><g fill="#000000" stroke="none" stroke-width="1" stroke-linecap="round" stroke-linejoin="round"><path d="M237.68865,175.41111c-0.10995,0.00735 -0.48839,-0.23941 -0.33055,-0.35514c0.09124,-0.0669 0.62028,-0.12542 0.76951,-0.01737c0.19634,0.14218 -0.19987,0.33697 -0.43896,0.37251z"/><path d=""/></g><path d="M245.30588,171.81109c0.02283,0.01375 -0.1372,2.3031 -0.28494,2.82591c-0.22169,0.78448 -0.57942,1.5313 -1.10908,2.1546c-0.2252,0.26499 -0.45886,0.4838 -0.72366,0.70465c-0.08571,0.07151 -0.44345,0.30592 -0.44345,0.30592c0,0 0.38297,-1.02833 0.42394,-2.68636c0.02174,-0.88046 -0.0985,-2.82917 -0.07803,-2.77616" fill="#f79eb4" stroke="#f89db5" stroke-width="0" stroke-linecap="butt" stroke-linejoin="round"/><path d="M246.6854,171.14145c0.17972,0.35946 0.07703,2.22582 -0.29214,3.58465c-0.2845,1.04717 -0.56368,1.32951 -1.05988,1.88672c-0.56196,0.63103 -0.97324,0.69448 -0.97324,0.69448c0,0 0.46717,-1.15581 0.61363,-1.93401c0.14647,-0.7782 0.4414,-3.57904 0.42676,-3.59368" fill="#f79eb4" stroke="#f89db5" stroke-width="0" stroke-linecap="butt" stroke-linejoin="round"/><g fill="#ee1a40" stroke="none" stroke-width="1" stroke-linecap="round" stroke-linejoin="round"><path d="M236.66013,168.11266c0.09205,-0.118 2.30173,-1.90762 5.04726,-1.44986c3.39352,0.60495 3.72973,4.70868 3.7273,4.70804c-0.0339,-0.00895 -0.57704,-1.57821 -1.45484,-2.26644c-1.1382,-0.89243 -1.79743,-1.41069 -3.04667,-1.62756c-1.58499,-0.27517 -3.79199,1.11572 -3.87859,1.17164"/><path d=""/></g><path d="M236.57713,170.8951c-0.02988,-0.02425 -1.64528,-0.38425 -2.21281,-0.16835c-1.0394,0.3954 -2.42325,1.83129 -2.44647,1.83373c-0.01618,0.00165 0.16018,-1.03436 0.48274,-1.71319c0.26493,-0.74642 1.29606,-1.4981 1.61369,-1.57754c1.78233,-0.43557 2.78582,0.49879 2.76312,0.48036" fill="#f79eb4" stroke="#f89db5" stroke-width="0" stroke-linecap="butt" stroke-linejoin="round"/><path d="M236.76887,169.75251c-0.10394,-0.08347 -1.35833,-0.94044 -2.39645,-1.1359c-0.74826,-0.14088 -2.43781,-0.76164 -2.43781,-0.76164c0,0 1.55652,-0.35968 3.61369,-0.45161c0.60453,0.03145 0.71675,0.2122 0.99777,0.4654c0.28102,0.2532 1.0697,1.83617 1.07878,1.91925" fill="#f79eb4" stroke="#f89db5" stroke-width="0" stroke-linecap="butt" stroke-linejoin="round"/><g stroke="none" stroke-width="1" stroke-linecap="round" stroke-linejoin="round"><g fill="#f79eb4"><path d="M240.7255,167.89605c0.04438,-0.15216 1.01235,-0.92458 1.7949,-1.29471c0.78255,-0.37011 1.54968,-0.5908 1.70972,-0.36284c0.12242,0.17436 0.18027,1.04187 0.17765,1.71819c-0.00263,0.67632 -0.16825,1.29546 -0.19076,1.65428"/></g><g fill="#ffd5c5"><path d="M241.40764,168.06083c0.09971,-0.16054 0.52384,-0.53972 0.9475,-0.74847c0.42365,-0.20875 1.27994,-0.49347 1.36123,-0.38916c0.02005,0.02573 0.08923,0.77957 0.07443,1.27986c-0.01479,0.50029 -0.13066,0.89357 -0.14119,0.97843"/></g></g><g fill="#f79eb4" stroke="none" stroke-width="1" stroke-linecap="round" stroke-linejoin="round"><path d="M234.81127,169.95215c-0.00851,-0.01284 -0.4694,-0.84148 -0.60409,-1.62533c-0.0863,-0.50216 0.03057,-1.14656 0.07343,-1.16967c0.20928,-0.11275 1.03539,-0.04613 1.69966,-0.00089c0.66428,0.04524 0.97729,0.11494 1.27228,0.20333"/><path d=""/></g><path d="M238.46246,173.20569c0.64899,-0.95161 0.93837,-2.66505 2.98484,-2.89957c0.44454,-0.05095 1.7524,0.53343 1.46832,2.67571c-0.09453,0.7129 -0.41877,1.78557 -1.6902,2.37548c-0.65297,0.19369 -2.1921,-0.54254 -2.8683,-0.57727c-1.18722,-0.06096 -1.01455,0.4724 -1.60028,0.45107c-0.1466,-0.00534 -0.97292,-0.86661 -1.30206,-2.08886c-0.1552,-0.57634 -0.10873,-1.41812 -0.04066,-1.41753c0.44916,0.00388 0.83212,0.93518 1.23813,1.45808c0.28398,0.36575 0.66451,0.66728 1.00158,0.63715c0.19648,-0.01756 0.39491,-0.00763 0.80863,-0.61427z" fill="#ffffff" stroke="none" stroke-width="0" stroke-linecap="butt" stroke-linejoin="miter"/><path d="M236.63354,171.9163c-0.11506,0.08429 -1.12433,0.53532 -1.34672,0.82174c-0.65631,0.85548 -1.64793,1.58763 -1.61308,1.61238c0.0016,0.00115 0.06482,-1.21164 0.09002,-1.82157c-0.01708,-0.15006 0.71783,-1.27353 0.96484,-1.41674c0.85983,-0.4985 1.95232,-0.1569 1.91166,-0.12715" fill="#f79eb4" stroke="#f89db5" stroke-width="0" stroke-linecap="butt" stroke-linejoin="round"/><g fill="#000000" stroke="#000000" stroke-width="0.125" stroke-linecap="butt" stroke-linejoin="round"><path d="M242.57966,171.01642c0.04937,-0.0181 0.0898,0.01714 0.13643,0.01964c0.04888,0.00262 0.27437,-0.01879 0.44337,-0.0638c0.86784,-0.23116 1.28479,-0.7476 1.28479,-0.7476c0,0 -0.15591,0.38172 -1.37931,0.92237c-0.19055,0.08422 -0.34379,0.07132 -0.36822,0.0353"/><path d="M242.91218,171.72435c0.0337,0.00384 0.09453,0.06281 0.12357,0.08405c0.06588,0.04823 0.55527,0.3343 1.29821,0.21882c0.24619,-0.03966 1.02076,-0.26251 1.02076,-0.26251c0,0 -0.38361,0.22833 -1.06852,0.33041c-0.28724,0.0428 -0.90724,0.04647 -1.15066,-0.03326c-0.13127,-0.04299 -0.16777,-0.08602 -0.16777,-0.08602"/></g><g stroke="none" stroke-linecap="butt" stroke-linejoin="miter"><path d="M240.36889,173.63348c0.04639,0.71913 -0.1046,1.31426 -0.33725,1.32927c-0.23265,0.015 -0.45888,-0.55579 -0.50528,-1.27491c-0.04639,-0.71913 0.10461,-1.31427 0.33726,-1.32928c0.23265,-0.015 0.45888,0.55579 0.50527,1.27492z" fill="#169c5b" stroke-width="NaN"/><path d="M240.13671,173.81001c0.01937,0.30036 -0.04778,0.54921 -0.15001,0.5558c-0.10223,0.0066 -0.20082,-0.23156 -0.22018,-0.53193c-0.01937,-0.30036 0.04778,-0.54921 0.15001,-0.5558c0.10223,-0.0066 0.20082,0.23156 0.22018,0.53193z" fill="#000000" stroke-width="0"/><path d="M240.01607,173.132c0.01961,0.3039 -0.06452,0.55669 -0.18789,0.56465c-0.12338,0.00796 -0.23929,-0.23193 -0.2589,-0.53583c-0.01961,-0.3039 0.06452,-0.5567 0.18789,-0.56466c0.12338,-0.00796 0.23929,0.23194 0.2589,0.53583z" fill="#ffffff" stroke-width="0"/></g><g stroke="none" stroke-linecap="butt" stroke-linejoin="miter"><path d="M236.95209,174.1212c0.03271,0.50723 -0.07377,0.927 -0.23787,0.93758c-0.16411,0.01058 -0.32366,-0.39202 -0.35639,-0.89925c-0.03271,-0.50723 0.07378,-0.927 0.23788,-0.93758c0.16411,-0.01058 0.32366,0.39201 0.35638,0.89924z" fill="#169c5b" stroke-width="NaN"/><path d="M236.78834,174.24571c0.01368,0.21186 -0.0337,0.38737 -0.10582,0.39203c-0.07211,0.00466 -0.14163,-0.16332 -0.15531,-0.37518c-0.01368,-0.21186 0.0337,-0.38737 0.10582,-0.39202c0.07211,-0.00466 0.14163,0.16331 0.1553,0.37517z" fill="#000000" stroke-width="0"/><path d="M236.70323,173.76748c0.01382,0.21435 -0.0455,0.39264 -0.13252,0.39826c-0.08703,0.00562 -0.16878,-0.16359 -0.18262,-0.37793c-0.01382,-0.21435 0.0455,-0.39266 0.13253,-0.39828c0.08703,-0.00562 0.16877,0.16361 0.18261,0.37795z" fill="#ffffff" stroke-width="0"/></g></g><g stroke-linecap="butt" stroke-linejoin="miter"><path d="M222.25679,181.32478c0,0 0.27455,-4.66463 5.48684,-4.41538c2.00142,0.0957 3.28902,0.77778 4.62983,2.0897c1.41477,1.3843 0.07389,3.98468 0.07389,3.98468l-9.08376,0.04862z" fill="#fbdd00" stroke="none" stroke-width="0"/><path d="M223.05691,182.59655l-0.29643,-0.43907c0,0 0.16687,-0.94829 0.35991,-1.28927c0.41399,-0.73128 0.59761,-1.05031 0.68324,-0.63357c0.04259,0.2072 -0.3338,0.63056 -0.48565,1.06528c-0.22693,0.64961 -0.26107,1.29661 -0.26107,1.29661z" fill="#a58c48" stroke="#000000" stroke-width="0"/><path d="M225.802,178.65284c0.00398,-0.18816 0.66146,-0.68778 1.99807,-0.61943c0.89558,0.04579 2.3958,0.36446 2.32831,0.83118c-0.06162,0.4262 -1.482,-0.33209 -2.37854,-0.35103c-0.89655,-0.01895 -1.9518,0.32744 -1.94783,0.13928z" fill="#a58c48" stroke="#000000" stroke-width="0"/><path d="M232.50181,182.30322c0,0 -0.02221,-0.42224 -0.1824,-0.87604c-0.14827,-0.42003 -0.52704,-0.70907 -0.34233,-0.85937c0.06501,-0.05288 0.42098,-0.02806 0.55973,0.34625c0.15454,0.41692 0.17304,1.03266 0.17304,1.03266z" fill="#a58c48" stroke="#000000" stroke-width="0"/><path d="M227.81328,184.04876c2.55421,-0.01415 4.52847,1.95259 4.52847,1.95259l0.06941,0.59072c0,0 -2.16142,-2.49962 -5.61005,-1.88299c-2.16701,0.38747 -3.57696,2.04972 -3.57696,2.04972c0,0 -0.05602,0.28595 -0.04274,-0.31025c0.01328,-0.5962 0.06085,-0.38087 0.06085,-0.38087c0,0 0.98702,-1.99909 4.57101,-2.01891z" fill="#edeee6" stroke="none" stroke-width="0"/><path d="M232.60132,182.57499l-0.12754,0.3764c0,0 -2.2259,-2.98011 -5.61099,-2.28761c-2.1271,0.43516 -3.50035,2.36198 -3.50035,2.36198l-0.17999,-0.28917c0,0 1.08461,-2.79867 4.66496,-2.96067c2.82517,-0.12782 4.75389,2.79908 4.75389,2.79908z" fill="#edeee6" stroke="none" stroke-width="0"/><path d="M227.89433,180.19225c2.56522,-0.01391 4.60025,2.66589 4.60025,2.66589l-0.07494,3.33309c0,0 -2.17097,-2.49981 -5.6344,-1.8835c-2.17633,0.38728 -3.59221,2.0494 -3.59221,2.0494c0,0 -0.09957,-0.92944 -0.08628,-1.52564c0.01329,-0.5962 0.15441,-1.53033 0.15441,-1.53033c0,0 1.03374,-3.08939 4.63318,-3.10891z" fill="#ff1a07" stroke="none" stroke-width="0"/><path d="M230.13636,184.17806c0,0 -1.4465,-0.35137 -2.15767,-0.36641c-0.69113,-0.01461 -2.13115,0.27575 -2.13115,0.27575l0.06778,-3.20659c0,0 1.16262,-0.72756 2.0605,-0.70002c0.89788,0.02753 2.18994,0.70966 2.18994,0.70966z" fill="#ff1808" stroke="#000000" stroke-width="0"/><path d="M223.23566,186.23772c0,0 -0.04122,-1.84424 -0.02976,-2.3866c0.00433,-0.2048 0.18002,-0.86905 0.50269,-1.31516c0.32267,-0.44611 1.02569,-0.79792 1.02569,-0.79792l-0.1032,2.98531c0,0 -0.53177,0.35537 -0.80615,0.65315c-0.27439,0.29777 -0.58927,0.86124 -0.58927,0.86124z" fill="#ff1808" stroke="#000000" stroke-width="0"/><path d="M232.30023,186.14862c0,0 -0.39149,-0.55756 -0.5689,-0.78053c-0.17739,-0.22297 -0.4858,-0.54502 -0.4858,-0.54502l0.06651,-3.14648c0,0 0.94567,0.80633 1.01631,1.24456c0.09648,0.5986 -0.02811,3.22748 -0.02811,3.22748z" fill="#ff1808" stroke="#000000" stroke-width="0"/><path d="M229.41684,187.53128c-1.33929,-0.02831 -7.39876,1.90879 -7.39876,1.90879c0,0 0.67338,-5.20231 6.49863,-4.85514c3.05473,0.18204 4.33917,1.867 4.78196,3.18263c0.28303,0.84093 0.03274,1.58974 0.03274,1.58974c0,0 -2.57526,-1.79771 -3.91455,-1.82603z" fill="#fbdd00" stroke="none" stroke-width="0"/><path d="M227.88467,185.41368c-0.89773,-0.01896 -2.02989,0.22825 -2.02756,0.11755c0.00233,-0.11069 0.81848,-0.5842 2.0778,-0.59769c0.69743,-0.00747 2.03237,0.24905 2.2127,0.60818c0.12189,0.24273 -1.56566,-0.11329 -2.26297,-0.12804z" fill="#a58c48" stroke="#000000" stroke-width="0"/><path d="M222.72925,187.43004l0.27154,-0.51556c0,0 1.20155,-1.07469 1.0766,-0.65895c-0.08019,0.26679 -1.34814,1.17452 -1.34814,1.17452z" fill="#a58c48" stroke="#000000" stroke-width="0"/><path d="M231.61629,186.25445c0.00795,-0.37634 1.25744,0.65518 1.25744,0.65518l0.32732,0.76774c0,0 -1.59273,-1.04659 -1.58478,-1.42292z" fill="#a58c48" stroke="#000000" stroke-width="0"/><path d="M227.2882,193.01381c-2.7455,-0.02391 -5.27913,-1.86653 -5.24264,-3.59321c0.03651,-1.72669 2.8161,-3.23039 5.56163,-3.21079c2.86609,0.02048 5.78577,1.36227 5.74927,3.08895c-0.0509,2.40809 -2.84197,3.76846 -6.06878,3.74036z" fill="#fbdd00" stroke="#000000" stroke-width="0.25"/><path d="M223.24608,191.13653c0.02199,-1.04044 2.0228,-1.84195 4.46891,-1.79025c2.44613,0.0517 4.41129,0.93705 4.38931,1.97749c-0.02199,1.04044 -2.02281,1.84196 -4.46893,1.79026c-2.44613,-0.0517 -4.41129,-0.93706 -4.3893,-1.9775z" fill="#fbdd00" stroke="#000000" stroke-width="0.25"/><path d="M234.5135,186.29366c0,0 0.22922,-0.56277 0.27237,-0.96794c0.04316,-0.40517 -0.05823,-1.04242 -0.05823,-1.04242l4.25176,0.66306l6.95407,0.99559c0,0 0.27633,0.54738 0.26019,0.77963c-0.01614,0.23226 -0.48307,0.52472 -0.48307,0.52472l-7.0417,-0.58897l-4.15541,-0.36368z" fill="#fbdd00" stroke="none" stroke-width="0"/><path d="M232.19688,186.11082l-0.22322,-2.74151c0,0 2.50838,0.36668 2.68288,0.66478c0.29556,0.50485 0.02591,2.21014 -0.31211,2.45192c-0.08904,0.06369 -1.91218,-0.10254 -1.91218,-0.10254z" fill="#c8c8c6" stroke="none" stroke-width="0"/><path d="M222.3011,181.12521c0,0 0.0913,-4.1318 5.03097,-4.66561c3.33291,-0.36019 5.23577,2.89217 5.23577,2.89217c0,0 -0.98951,-1.17449 -2.27222,-1.81654c-1.03817,-0.51965 -2.38552,-0.64467 -3.52261,-0.49687c-0.76489,0.09943 -1.57463,0.22464 -2.10399,0.50849c-2.1823,1.17014 -2.3679,3.57837 -2.3679,3.57837z" fill="#fbdd00" stroke="#000000" stroke-width="0.25"/><path d="M242.79349,187.00714c0,0 -0.0495,-0.38536 -0.00634,-0.79052c0.04316,-0.40517 0.16403,-0.71691 0.16403,-0.71691l2.98233,0.44222c0,0 0.27632,0.54738 0.26018,0.77964c-0.01614,0.23226 -0.48307,0.52472 -0.48307,0.52472z" fill="#a56402" stroke="none" stroke-width="0"/></g><g stroke="none" stroke-width="0" stroke-linecap="butt" stroke-linejoin="miter"><path d="M239.78301,184.68669l2.56105,0.00725c0,0 0.34158,0.16543 0.59014,0.69579c0.16143,0.34443 0.09859,0.96969 0.09859,0.96969c0,0 0.4349,-0.60059 0.87794,-0.19302c0.28447,0.26169 -0.03513,1.37374 -0.24061,1.73436c-0.12096,0.2123 -0.45887,0.50999 -0.79739,0.60396c-0.21353,0.05928 -0.50143,-0.04387 -0.50143,-0.04387c0,0 -0.12258,0.37314 -0.53039,0.27765c-0.12494,-0.02925 -0.30401,-0.03402 -0.30401,-0.03402c0,0 -0.17107,0.23908 -0.30526,0.32217c-0.1342,0.08309 -0.39482,0.08777 -0.39482,0.08777l-0.35199,-0.26002c0,0 -0.48925,0.28119 -0.60496,0.28297c-0.45388,0.00699 -0.65122,-0.45609 -0.75874,-0.70394c-0.19687,-0.45378 -0.48016,-1.51357 -0.42687,-1.64455c0.33449,-0.82206 1.08876,-2.10222 1.08876,-2.10222z" fill="#ffffff"/><path d="M241.34867,182.64651c1.60377,0.43452 1.63723,0.9125 1.39352,1.50331c-0.37311,0.90455 -1.33629,1.72504 -3.30738,0.85394c-0.53959,-0.23846 -0.37367,-1.27727 -0.15509,-1.69407c0.2186,-0.41678 1.49955,-0.81747 2.06896,-0.6632z" fill="#fed000"/><path d="M241.17412,183.03057c0.54399,0.02827 0.97381,0.26603 0.96004,0.53106c-0.01377,0.26503 -0.46592,0.45695 -1.00992,0.42867c-0.54399,-0.02827 -0.9738,-0.26602 -0.96003,-0.53105c0.01377,-0.26503 0.46592,-0.45696 1.0099,-0.42868z" fill="#c28830"/><path d="M241.18611,177.99749c0.0992,-0.37883 0.31134,-0.43118 0.52329,-0.39526c0.31547,0.05348 0.45476,0.25461 0.41504,0.5656c-0.15855,1.24111 -0.27448,2.32914 -0.33073,3.18997c-0.03429,0.52479 -0.09361,2.57768 -0.09361,2.57768c0,0 -0.11064,-0.00963 -0.4205,0.08684c-0.30984,0.09647 -0.79841,-0.14187 -0.79841,-0.14187c0,0 0.11386,-1.15612 0.19886,-2.45695c0.05945,-0.90986 0.20648,-2.28197 0.50606,-3.42601z" fill="#fed5c7"/></g><path d="M240.94467,176.26431c0,0 0.48933,-0.05461 0.8067,-0.06254c0.31737,-0.00794 0.46449,0.06254 0.46449,0.06254" fill="none" stroke="#000000" stroke-width="0.125" stroke-linecap="round" stroke-linejoin="miter"/></g></g></svg>