<svg version="1.1" xmlns="http://www.w3.org/2000/svg" xmlns:xlink="http://www.w3.org/1999/xlink" width="28.13291" height="22.42181" viewBox="0,0,28.13291,22.42181"><g transform="translate(-226.92819,-167.2958)"><g data-paper-data="{&quot;isPaintingLayer&quot;:true}" fill-rule="nonzero" stroke-miterlimit="10" stroke-dasharray="" stroke-dashoffset="0" style="mix-blend-mode: normal"><path d="M240.64445,176.61087c0,0 -2.06222,-1.51806 -3.85562,-0.85102c-2.89873,1.0782 -2.05013,4.91539 -2.05013,4.91539c0,0 -0.86129,-2.53249 0.39109,-4.0762c0.82674,-1.01909 1.40775,-1.42386 2.76104,-1.32939c1.51642,0.10584 2.75359,1.34121 2.75359,1.34121z" fill="#000000" stroke="none" stroke-width="0" stroke-linecap="butt" stroke-linejoin="miter"/><path d="M238.14306,167.30951c6.37464,-0.2861 11.74229,3.93874 11.98903,9.43641c0.24674,5.49769 -4.72089,10.18634 -11.09551,10.47244c-6.37462,0.2861 -11.74227,-3.93872 -11.98901,-9.43639c-0.24674,-5.49769 4.72087,-10.18638 11.09549,-10.47247z" fill="#f79eb4" stroke="none" stroke-width="0" stroke-linecap="butt" stroke-linejoin="miter"/><path d="M250.02526,179.03891c0.01059,-0.0313 0.03346,3.04897 -1.29317,5.6801c-2.12612,4.24634 -4.94699,4.48337 -4.94699,4.48337l0.30775,-1.76418" fill="#f79eb4" stroke="#f89db5" stroke-width="0" stroke-linecap="butt" stroke-linejoin="round"/><g stroke="none" stroke-width="1" stroke-linecap="round" stroke-linejoin="round"><path d="M247.0107,184.19745c-0.11927,0.1017 -2.13106,3.12482 -3.6989,3.72918c-1.96727,0.75829 -4.62077,0.49838 -5.38206,0.44294c-0.9079,-0.06622 -2.56052,-1.00246 -2.82736,-1.26501c-1.9205,-1.88964 -0.59136,-2.90438 -0.40462,-3.06293c0.08907,-0.07558 13.04188,-0.46593 12.31294,0.15582z" fill="#f79eb4"/><path d="" fill="#ffd5c5"/></g><path d="" fill="#000000" stroke="none" stroke-width="1" stroke-linecap="round" stroke-linejoin="round"/><path d="M234.34415,179.31597c0.03455,-0.10298 -0.02805,3.6286 0.08892,5.30807c0.22034,3.16268 1.03979,5.09357 1.03979,5.09357c0,0 -0.70323,-0.41697 -0.87304,-0.54618c-0.52459,-0.39904 -0.98954,-0.79686 -1.4423,-1.28359c-1.06486,-1.14487 -1.81199,-2.54034 -2.30257,-4.01939c-0.32693,-0.9857 -0.82873,-5.34375 -0.78632,-5.37196" fill="#f79eb4" stroke="#f89db5" stroke-width="0" stroke-linecap="butt" stroke-linejoin="round"/><path d="M229.8852,178.44448c-0.0267,0.02921 0.77654,5.35245 1.12294,6.82595c0.34638,1.47351 1.33755,3.64061 1.33755,3.64061c0,0 -0.79082,-0.08592 -1.91803,-1.24277c-0.9953,-1.02153 -1.55263,-1.53676 -2.18566,-3.51206c-0.82143,-2.5632 -1.55248,-6.36841 -1.24009,-7.07024" fill="#f79eb4" stroke="#f89db5" stroke-width="0" stroke-linecap="butt" stroke-linejoin="round"/><path d="" fill="#ee1a40" stroke="none" stroke-width="1" stroke-linecap="round" stroke-linejoin="round"/><path d="M246.17805,173.82987c-0.04177,0.03712 1.71652,-1.18866 5.15741,-0.50965c0.61336,0.12448 2.0027,0.67007 2.57258,2.07273c0.67414,1.26866 1.18275,3.47051 1.15171,3.46875c-0.04455,-0.00267 -2.15684,-2.38781 -4.17558,-3.05379c-1.10226,-0.36364 -4.17055,0.14242 -4.22553,0.19129" fill="#f79eb4" stroke="#f89db5" stroke-width="0" stroke-linecap="butt" stroke-linejoin="round"/><path d="M248.56598,169.8733c3.93627,-0.00076 5.86364,1.89352 5.86364,1.89352c0,0 -2.71431,-0.14075 -4.13112,0.1924" fill="#f79eb4" stroke="#f89db5" stroke-width="0" stroke-linecap="butt" stroke-linejoin="round"/><g stroke="none" stroke-width="1"><g fill="#f79eb4" stroke-linecap="round" stroke-linejoin="round"><path d="M231.45334,171.05911c-0.06297,-1.29128 -0.02685,-2.95285 0.19199,-3.2963c0.28608,-0.44903 1.76991,-0.09335 3.29599,0.54635"/></g><g fill="none" stroke-linecap="butt" stroke-linejoin="miter" font-family="sans-serif" font-weight="normal" font-size="12" text-anchor="start"/></g><g fill="#f79eb4" stroke="none" stroke-width="1" stroke-linecap="round" stroke-linejoin="round"><path d="M245.06584,169.30565c0.55574,-0.19407 1.14749,-0.354 2.41213,-0.49732c1.26462,-0.14332 2.83646,-0.34134 3.24576,-0.14397c0.08383,0.04046 0.36223,1.26099 0.24047,2.22732c-0.19003,1.50839 -0.99913,3.13027 -1.01428,3.15552"/><path d=""/></g><path d="M243.25642,180.5731c0.84204,1.12299 1.22011,1.08702 1.59681,1.10371c0.64625,0.02865 1.34708,-0.57977 1.85802,-1.30255c0.73051,-1.03333 1.38199,-2.84457 2.23938,-2.89048c0.12994,-0.00696 0.29082,1.59653 0.04384,2.71041c-0.52378,2.36223 -2.02791,4.07774 -2.3074,4.1005c-1.11669,0.09093 -0.83267,-0.94238 -3.09457,-0.72422c-1.2883,0.12427 -4.16434,1.6621 -5.42786,1.34819c-2.47849,-1.01753 -3.1896,-3.03812 -3.43121,-4.39138c-0.72608,-4.06657 1.72133,-5.2946 2.5746,-5.2354c3.92806,0.27245 4.62751,3.51965 5.94838,5.28123z" fill="#ffffff" stroke="none" stroke-width="0" stroke-linecap="butt" stroke-linejoin="miter"/><path d="M249.89694,176.60777c0.48397,0.25231 1.57157,0.7777 2.18593,1.65472c0.61436,0.87702 1.26362,3.26964 1.26362,3.26964c0,0 -2.54446,-0.81118 -3.87107,-2.38856" fill="#f79eb4" stroke="#f89db5" stroke-width="0" stroke-linecap="butt" stroke-linejoin="round"/><path d="M239.00815,177.70051c0.44556,0.00872 0.78491,1.13227 0.75796,2.5095c-0.02697,1.37722 -0.41007,2.48659 -0.85562,2.47789c-0.44556,-0.00872 -0.78489,-1.13225 -0.75794,-2.50948c0.02695,-1.37723 0.41005,-2.48661 0.8556,-2.4779z" fill="#f79eb4" stroke="none" stroke-width="NaN" stroke-linecap="butt" stroke-linejoin="miter"/><path d="M246.0941,180.44192c0.01901,-0.97142 0.28919,-1.75388 0.60348,-1.74774c0.31427,0.00614 0.5536,0.79861 0.53461,1.77002c-0.01903,0.97142 -0.2892,1.7539 -0.6035,1.74776c-0.31427,-0.00614 -0.55359,-0.79861 -0.53459,-1.77003z" fill="#f79eb4" stroke="none" stroke-width="NaN" stroke-linecap="butt" stroke-linejoin="miter"/></g></g></svg>