<svg version="1.1" xmlns="http://www.w3.org/2000/svg" xmlns:xlink="http://www.w3.org/1999/xlink" width="26.83159" height="24.53842" viewBox="0,0,26.83159,24.53842"><g transform="translate(-228.58335,-170.48471)"><g data-paper-data="{&quot;isPaintingLayer&quot;:true}" fill-rule="nonzero" stroke-linejoin="miter" stroke-miterlimit="10" stroke-dasharray="" stroke-dashoffset="0" style="mix-blend-mode: normal"><g data-paper-data="{&quot;index&quot;:null}"><g stroke="none" stroke-width="0" stroke-linecap="butt"><path d="M236.82274,183.44721c0,0 2.51573,-3.08244 1.16698,-4.85608c-1.34876,-1.77364 -4.19249,-1.14399 -4.19249,-1.14399c0,0 0.23128,-1.15146 0.56472,-1.6871c0.33053,-0.53095 0.85582,-1.29848 0.85582,-1.29848c0,0 5.40504,-0.46476 6.54689,1.976c1.57616,3.36914 -4.94193,7.00966 -4.94193,7.00966z" fill="#f8b820"/><path d="M234.02416,177.48004c0,0 -1.16541,-0.06545 -2.11364,-0.04349c-0.94823,0.02195 -2.42582,0.1486 -2.42582,0.1486c0,0 1.561,-2.3787 2.68945,-2.74462c1.12846,-0.36592 3.02923,-0.39545 3.02923,-0.39545c0,0 -0.13734,1.10357 -0.60329,1.82598c-0.46595,0.72242 -0.57593,1.20898 -0.57593,1.20898z" fill="#ffffff"/></g><path d="M234.56071,176.9519l-0.56635,-0.17041" fill="none" stroke="#808080" stroke-width="0.5" stroke-linecap="round"/><path d="M234.98397,176.40693l-0.48121,-0.20334" fill="none" stroke="#808080" stroke-width="0.5" stroke-linecap="round"/><path d="M235.40977,175.45528l-0.64328,-0.10712" fill="none" stroke="#808080" stroke-width="0.5" stroke-linecap="round"/></g><g data-paper-data="{&quot;index&quot;:null}"><g stroke="none" stroke-width="0" stroke-linecap="butt"><path d="M240.09555,177.37571c0,0 -3.18164,-0.25281 -4.40678,1.35828c-1.22515,1.61109 1.38127,4.57037 1.38127,4.57037c0,0 -6.66095,-3.35481 -5.08479,-6.72395c1.14185,-2.44076 6.83261,-2.19029 6.83261,-2.19029c0,0 0.52529,0.83896 0.85582,1.36991c0.33344,0.53564 0.42186,1.61567 0.42186,1.61567z" fill="#f8b820"/><path d="M240.93553,176.19962c-0.46595,-0.72241 -0.60329,-1.82598 -0.60329,-1.82598c0,0 1.90077,0.02953 3.02923,0.39545c1.12845,0.36592 2.68945,2.74462 2.68945,2.74462c0,0 -1.47759,-0.12665 -2.42582,-0.1486c-0.94823,-0.02196 -2.11364,0.04349 -2.11364,0.04349c0,0 -0.10998,-0.48656 -0.57593,-1.20898z" fill="#ffffff"/></g><path d="M241.75554,176.63863l-0.56635,0.17041" fill="none" stroke="#808080" stroke-width="0.5" stroke-linecap="round"/><path d="M241.31857,175.84644l-0.48121,0.20334" fill="none" stroke="#808080" stroke-width="0.5" stroke-linecap="round"/><path d="M240.76913,174.84815l-0.64328,0.10712" fill="none" stroke="#808080" stroke-width="0.5" stroke-linecap="round"/></g><g data-paper-data="{&quot;index&quot;:null}"><path d="M244.1342,187.37582c0,0 -0.59919,-1.01155 -1.0546,-1.59065c-0.54233,-0.68966 -1.98443,-2.27387 -1.98443,-2.27387l0.54255,-0.55191c0,0 1.68937,1.77468 2.35198,2.57797c0.56479,0.68469 1.60018,2.66651 1.60018,2.66651l-1.4557,-0.82805z" fill="#f8b820" stroke="none" stroke-width="0" stroke-linecap="butt"/><g data-paper-data="{&quot;index&quot;:null}"><path d="M246.975,189.41056c1.21086,2.24269 -0.3405,4.58524 -0.84067,4.55652c-1.38172,-0.06274 -2.10116,-1.00555 -3.09595,-2.56508c-1.20492,-1.88892 0.05734,-4.33194 1.1502,-4.38414c0.3578,-0.01707 1.9099,0.76927 2.78642,2.3927z" fill="#a8c8d8" stroke="none" stroke-width="0" stroke-linecap="butt"/><path d="M244.63486,188.35867l-1.02847,-0.14379" fill="none" stroke="#808080" stroke-width="0.5" stroke-linecap="round"/><path d="M243.52503,189.82034l0.81509,0.07637" fill="none" stroke="#808080" stroke-width="0.5" stroke-linecap="round"/><path d="M243.69656,191.18852l0.79591,-0.02031" fill="none" stroke="#808080" stroke-width="0.5" stroke-linecap="round"/><path d="M244.85819,192.50719l-0.58255,0.08776" fill="none" stroke="#808080" stroke-width="0.5" stroke-linecap="round"/><path d="M245.05169,193.54411c0,0 -1.16196,-2.12395 -1.20509,-3.31586c-0.04313,-1.19192 0.46093,-3.01517 0.46093,-3.01517" fill="none" stroke="#020202" stroke-width="0.25" stroke-linecap="round"/></g></g><g data-paper-data="{&quot;index&quot;:null}"><path d="M231.87841,186.6388c0.47882,-0.50099 2.99042,-1.48132 3.84496,-0.97455c0.23311,0.13822 1.07274,2.32294 1.02942,4.65925c-0.05385,2.90387 -1.10319,4.51743 -1.52275,4.35382c-1.60753,-0.46974 -3.25211,-4.40967 -3.47719,-5.18297c-0.22508,-0.77328 -0.35327,-2.35457 0.12554,-2.85556z" fill="#c01515" stroke="none" stroke-width="0" stroke-linecap="butt"/><path d="M232.42634,191.10011c0,0 -0.15633,-0.29312 -0.23858,-0.48881c-0.08226,-0.1957 -0.36939,-0.95762 -0.36939,-0.95762c0,0 1.42172,-0.82497 2.42808,-1.0669c1.00634,-0.24194 2.34685,-0.08101 2.34685,-0.08101c0,0 0.1523,0.90362 0.15941,1.43881c0.00711,0.53517 -0.05681,0.94968 -0.05681,0.94968c0,0 -1.33871,-0.30881 -2.15704,-0.26441c-0.81833,0.04439 -2.1125,0.47024 -2.1125,0.47024z" fill="#a8c8d8" stroke="none" stroke-width="0" stroke-linecap="butt"/><path d="M235.64904,186.33049c0,0 0.37577,2.57784 0.32713,4.23469c-0.04864,1.65687 -0.58837,3.98888 -0.58837,3.98888" fill="none" stroke="#000000" stroke-width="0.25" stroke-linecap="round"/><path d="M235.40143,186.61705l0.45165,0.02448" fill="none" stroke="#808080" stroke-width="0.5" stroke-linecap="round"/><path d="M236.02166,187.95634l-0.59036,-0.02135" fill="none" stroke="#808080" stroke-width="0.5" stroke-linecap="round"/><path d="M235.99846,191.53089l-0.48711,-0.05838" fill="none" stroke="#808080" stroke-width="0.5" stroke-linecap="round"/><path d="M235.30862,193.24681l0.52101,0.02291" fill="none" stroke="#808080" stroke-width="0.5" stroke-linecap="round"/><path d="M236.28843,189.6125l-0.70709,-0.0311" fill="none" stroke="#808080" stroke-width="0.5" stroke-linecap="round"/></g><path d="M238.04912,184.14172c0,0 0.70566,-0.61453 1.10843,-0.96527c0.40277,-0.35075 1.06833,-0.9328 1.06833,-0.9328l1.49532,0.21942c0,0 -0.69399,0.73073 -1.21843,1.0975c-0.52442,0.36676 -1.87271,1.14869 -1.87271,1.14869z" data-paper-data="{&quot;index&quot;:null}" fill="#f8b820" stroke="none" stroke-width="0" stroke-linecap="butt"/><path d="M236.68127,184.75089c0.46802,-0.32408 1.5591,-0.7568 1.79939,-0.4098c0.31683,0.45755 -0.12233,0.69407 -1.02113,1.26193c-0.48126,0.30406 -1.58345,1.04273 -1.87082,0.51241c-0.26913,-0.49666 0.62456,-1.04045 1.09257,-1.36453z" data-paper-data="{&quot;index&quot;:null}" fill="#ffffff" stroke="none" stroke-width="0" stroke-linecap="butt"/><g data-paper-data="{&quot;index&quot;:null}"><path d="M239.22839,182.23016c1.53946,-0.12377 2.02964,0.05722 3.09657,0.77442c1.59014,1.06892 1.94482,3.05965 -0.07922,4.63442c-2.05147,1.59612 -6.47138,0.88009 -6.63329,-0.89801c-0.15054,-1.65334 0.2819,-4.24281 3.61594,-4.51084z" fill="#f8b820" stroke="none" stroke-width="0" stroke-linecap="butt"/><path d="M238.95761,183.65786c3.34482,0.454 3.35883,2.20979 3.36116,2.98201c0.00396,1.31279 -1.02903,2.78015 -3.17241,2.9024c-1.60394,0.09147 -3.61985,-1.52089 -3.50029,-2.77999c0.17721,-1.8664 2.15703,-3.26114 3.31154,-3.10443z" fill="#ffffff" stroke="none" stroke-width="0" stroke-linecap="butt"/><path d="M241.56841,184.29975l-0.38303,0.4153" fill="none" stroke="#808080" stroke-width="0.5" stroke-linecap="round"/><path d="M239.62298,183.97859l0.0477,-0.46838" fill="none" stroke="#808080" stroke-width="0.5" stroke-linecap="round"/><path d="M237.67485,183.59086l0.23454,0.85679" fill="none" stroke="#808080" stroke-width="0.5" stroke-linecap="round"/><path d="M236.06276,184.92211l0.2903,0.58799" fill="none" stroke="#808080" stroke-width="0.5" stroke-linecap="round"/></g><g data-paper-data="{&quot;index&quot;:null}"><g><path d="M232.95537,186.06706c0.22055,0.15749 0.87191,2.40553 0.63063,4.72976c-0.2999,2.88886 -1.48228,4.40762 -1.88645,4.20902c-1.5619,-0.60437 -2.86648,-4.66956 -3.02516,-5.45916c-0.15869,-0.78958 -0.15234,-2.37604 0.36723,-2.83463c0.51957,-0.45859 3.10525,-1.22238 3.91375,-0.64499z" fill="#f72526" stroke="none" stroke-width="0" stroke-linecap="butt"/><path d="M229.20928,191.20378c0,0 -0.1309,-0.30532 -0.19626,-0.50728c-0.06536,-0.20196 -0.28684,-0.98549 -0.28684,-0.98549c0,0 1.48655,-0.70144 2.5098,-0.85717c1.02323,-0.15574 2.34527,0.11828 2.34527,0.11828c0,0 0.07511,0.91329 0.03681,1.44715c-0.03829,0.53384 -0.13714,0.94144 -0.13714,0.94144c0,0 -1.30771,-0.42121 -2.12686,-0.44636c-0.81915,-0.02515 -2.14477,0.28942 -2.14477,0.28942z" fill="#ffffff" stroke="none" stroke-width="0" stroke-linecap="butt"/><path d="M232.82483,186.72462c0,0 0.15583,2.60043 -0.03314,4.24719c-0.18896,1.64677 -0.9245,3.92461 -0.9245,3.92461" fill="none" stroke="#000000" stroke-width="0.25" stroke-linecap="round"/><path d="M233.00175,187.05186l-0.44794,-0.06269" fill="none" stroke="#808080" stroke-width="0.5" stroke-linecap="round"/><path d="M232.47179,188.30486l0.58643,0.07132" fill="none" stroke="#808080" stroke-width="0.5" stroke-linecap="round"/><path d="M232.732,191.93592l-0.48041,-0.09947" fill="none" stroke="#808080" stroke-width="0.5" stroke-linecap="round"/><path d="M232.41633,193.65418l-0.51719,-0.067" fill="none" stroke="#808080" stroke-width="0.5" stroke-linecap="round"/><path d="M232.48171,189.95807l0.70191,0.09094" fill="none" stroke="#808080" stroke-width="0.5" stroke-linecap="round"/></g><path d="M234.97353,184.44692c0,0 0.71268,-0.60636 1.11947,-0.95244c0.40678,-0.34607 1.07901,-0.92042 1.07901,-0.92042l1.4927,0.23663c0,0 -0.70237,0.72268 -1.23099,1.08338c-0.52863,0.36069 -1.88583,1.12703 -1.88583,1.12703z" fill="#f8b820" stroke="none" stroke-width="0" stroke-linecap="butt"/><path d="M235.40275,184.65121c0.31153,0.46116 -0.13033,0.69261 -1.03561,1.25008c-0.48473,0.29849 -1.59536,1.0244 -1.8766,0.49081c-0.26339,-0.49972 0.63651,-1.03319 1.10822,-1.35185c0.47172,-0.31867 1.56772,-0.73879 1.80399,-0.38904z" fill="#ffffff" stroke="none" stroke-width="0" stroke-linecap="butt"/></g><path d="M238.5793,181.09951c-0.74048,-4.33543 2.3052,-7.90627 4.75256,-8.26743c2.38422,-0.35185 3.12945,-0.00819 4.4467,0.90197c3.39241,2.34398 2.06577,9.59259 -0.29889,10.03591c-2.78382,0.5219 -8.4113,0.19304 -8.90037,-2.67046z" data-paper-data="{&quot;index&quot;:null}" fill="#f8b820" stroke="none" stroke-width="0" stroke-linecap="butt"/><path d="M239.25648,181.43269c-0.09821,-0.64639 3.10594,-2.05175 6.05748,-1.12106c1.2542,0.39548 3.05934,2.29716 2.8441,2.72779c-0.7024,1.36563 -2.02781,1.68688 -3.32458,1.90556c-2.38682,0.4025 -5.29126,-1.63146 -5.57701,-3.51229z" data-paper-data="{&quot;index&quot;:null}" fill="#ffffff" stroke="none" stroke-width="0" stroke-linecap="butt"/><path d="M239.43905,176.02075c-0.3166,0.2771 -1.68524,-4.406 0.79026,-5.49969c0.37265,-0.16463 1.46913,0.25754 2.07187,0.71317c0.60273,0.45562 1.09811,1.68309 1.09811,1.68309c0,0 -1.3381,0.66484 -2.13013,1.23131c-0.79204,0.56648 -1.6065,1.6764 -1.83011,1.87211z" data-paper-data="{&quot;index&quot;:null}" fill="#ffffff" stroke="none" stroke-width="0" stroke-linecap="butt"/><path d="M251.30465,174.06606c0.66804,0.54716 0.50256,1.86248 -0.08005,2.89832c-0.64304,1.14328 -1.64424,2.05694 -1.64424,2.05694c0,0 -0.23941,-1.51691 -0.47781,-2.78856c-0.2384,-1.27165 -1.25438,-2.37314 -1.25438,-2.37314c0,0 1.79429,-1.15497 3.45648,0.20644z" data-paper-data="{&quot;index&quot;:null}" fill="#ffffff" stroke="none" stroke-width="0" stroke-linecap="butt"/><g data-paper-data="{&quot;index&quot;:null}" stroke="none" stroke-width="0" stroke-linecap="butt"><path d="M246.24437,179.58121c-0.32212,-0.93511 0.10644,-1.94476 0.95721,-2.25512c0.85077,-0.31037 1.80157,0.19609 2.12368,1.1312c0.32212,0.9351 -0.10643,1.94475 -0.9572,2.25511c-0.85076,0.31036 -1.80158,-0.19609 -2.12369,-1.1312z" fill="#ffffff"/><path d="M248.58433,179.1203c-0.02171,0.51231 -0.40272,0.91224 -0.851,0.89323c-0.44827,-0.019 -0.79408,-0.44972 -0.77237,-0.96205c0.02171,-0.51231 0.42987,-1.00727 0.87815,-0.98826c0.44827,0.019 0.76692,0.54475 0.74521,1.05707z" fill="#000000"/></g><g data-paper-data="{&quot;index&quot;:null}" stroke="none" stroke-width="0" stroke-linecap="butt"><path d="M242.68495,175.80745c0.82141,0.13062 1.34358,1.1402 1.16631,2.25497c-0.17727,1.11476 -0.98685,1.91257 -1.80826,1.78195c-0.8214,-0.13063 -1.34358,-1.1402 -1.16631,-2.25497c0.17727,-1.11476 0.98685,-1.91257 1.80826,-1.78195z" fill="#ffffff"/><path d="M243.19967,177.97929c-0.02171,0.51231 -0.40272,0.91224 -0.851,0.89323c-0.44827,-0.019 -0.79408,-0.44972 -0.77237,-0.96205c0.02171,-0.51231 0.42987,-1.00727 0.87815,-0.98826c0.44827,0.019 0.76692,0.54475 0.74521,1.05707z" fill="#000000"/></g><path d="M243.4399,177.45176c0,0 -0.39476,-1.40939 -0.32714,-1.98484c0.09372,-0.79758 0.84311,-1.25984 0.84311,-1.25984l3.85154,0.87439c0,0 0.20586,1.03323 0.08397,1.58429c-0.09844,0.44505 -1.22196,1.70225 -1.22196,1.70225c0,0 -0.3295,-0.78121 -0.4986,-1.35884c-0.1691,-0.57762 -0.3648,-1.59047 -0.3648,-1.59047l-2.3661,2.03308z" data-paper-data="{&quot;index&quot;:null}" fill="#f8b820" stroke="none" stroke-width="0" stroke-linecap="butt"/><g data-paper-data="{&quot;index&quot;:null}" stroke="none" stroke-width="0" stroke-linecap="butt"><path d="M244.45992,180.49375c0.55185,-0.10346 1.41258,0.24549 1.37382,0.99982c-0.01817,0.3535 -0.43695,0.47066 -1.21145,0.34603c-0.55433,-0.0892 -1.17324,-0.26123 -1.2428,-0.82381c-0.04343,-0.35129 0.52858,-0.41857 1.08043,-0.52203z" fill="#71716f"/><path d="M243.42632,180.94278c-0.08353,-0.26425 0.1253,-0.52004 0.40919,-0.66133c0.28389,-0.14129 0.5661,-0.10517 0.90537,0.00709c0.33927,0.11226 0.91712,0.59886 0.91712,0.59886c0,0 -0.28696,0.542 -1.24748,0.54218c-0.63469,0.00013 -0.83891,-0.0272 -0.9842,-0.4868z" fill="#010101"/><path d="M244.96308,181.25856c-0.02924,-0.15596 0.07349,-0.30609 0.22945,-0.33533c0.15596,-0.02924 0.30608,0.07349 0.33532,0.22944c0.02924,0.15596 -0.07349,0.30608 -0.22944,0.33532c-0.15596,0.02924 -0.30609,-0.07349 -0.33533,-0.22945z" fill="#ffffff"/></g><g data-paper-data="{&quot;index&quot;:null}"><path d="M240.9487,186.21983c0.03822,-1.01656 0.22393,-2.16168 0.22393,-2.16168l0.68166,0.29493c0,0 0.05304,0.69949 0.02496,1.53427c-0.03025,0.89915 -0.1157,3.3429 -0.1157,3.3429l-0.75748,-0.4034c0,0 -0.0956,-1.59045 -0.05737,-2.60701z" fill="#f8b820" stroke="none" stroke-width="0" stroke-linecap="butt"/><g><path d="M243.03919,190.69522c0.65109,2.32678 -1.36793,4.20433 -1.84078,4.07939c-1.31002,-0.32969 -1.78538,-1.34916 -2.38456,-2.99716c-0.72573,-1.9961 1.03899,-4.02398 2.09828,-3.85805c0.34681,0.05433 1.65576,1.09152 2.12706,2.77583z" fill="#ffffff" stroke="none" stroke-width="0" stroke-linecap="butt"/><path d="M241.03529,189.25596l-0.95305,-0.33585" fill="none" stroke="#808080" stroke-width="0.5" stroke-linecap="round"/><path d="M240.40343,190.6308l-0.76387,-0.23115" fill="none" stroke="#808080" stroke-width="0.5" stroke-linecap="round"/><path d="M240.2606,191.84513l-0.76744,-0.13733" fill="none" stroke="#808080" stroke-width="0.5" stroke-linecap="round"/><path d="M240.30694,193.16417l-0.57826,-0.03262" fill="none" stroke="#808080" stroke-width="0.5" stroke-linecap="round"/><path d="M240.09275,193.71626c0,0 -0.46707,-1.75477 -0.23765,-2.87351c0.22942,-1.11874 1.1267,-2.71815 1.1267,-2.71815" fill="none" stroke="#020202" stroke-width="0.25" stroke-linecap="round"/></g></g><g data-paper-data="{&quot;index&quot;:null}"><path d="M245.73393,174.8776c0,0 1.31052,-1.33508 2.36003,-1.85628c1.04951,-0.5212 2.54831,-0.12797 2.54831,-0.12797l-0.24985,0.61269c0,0 -1.00015,-0.40522 -1.99635,0.09315c-0.9962,0.49838 -2.22168,1.67422 -2.22168,1.67422z" fill="#767578" stroke="none" stroke-width="0" stroke-linecap="butt"/><path d="M249.94321,172.80577l3.20254,-0.43351l2.18249,3.34982l-3.74323,-0.36643z" fill="#ea035a" stroke="none" stroke-width="0" stroke-linecap="butt"/><path d="M250.24451,173.35372c0,0 -0.31295,-0.55388 -0.14274,-0.46736c0.66876,0.33995 5.18817,2.71858 5.18817,2.71858" fill="none" stroke="#000000" stroke-width="0.25" stroke-linecap="round"/><path d="M251.60452,175.37016l-0.32966,-1.86953l1.92312,-1.22371" fill="none" stroke="#000000" stroke-width="0.25" stroke-linecap="round"/></g></g></g></svg>