<svg version="1.1" xmlns="http://www.w3.org/2000/svg" xmlns:xlink="http://www.w3.org/1999/xlink" width="21.91829" height="42.74655" viewBox="0,0,21.91829,42.74655"><g transform="translate(-232.97734,-158.36442)"><g data-paper-data="{&quot;isPaintingLayer&quot;:true}" fill-rule="nonzero" stroke-linejoin="miter" stroke-miterlimit="10" stroke-dasharray="" stroke-dashoffset="0" style="mix-blend-mode: normal"><g stroke="none" stroke-width="0" stroke-linecap="butt"><path d="M239.72794,198.08293c1.86905,-1.94697 2.96421,-5.69645 3.59517,-5.09074c0.63096,0.60571 -0.5708,2.45833 -3.21442,5.6645c-1.71696,2.08233 -3.4344,1.82293 -4.06536,1.21722c-0.63097,-0.60572 1.81556,0.15599 3.68461,-1.79098z" fill="#310808"/><path d="M235.91147,199.8053c-0.8886,-0.64762 0.19174,-3.88742 1.64888,-5.88677c0.81248,-1.11482 2.2952,-2.51745 3.48061,-2.52323c0.94053,-0.00458 1.80793,1.1466 2.19253,1.44446c0.54999,0.42595 -1.077,2.72743 -2.9122,5.15649c-1.49136,1.97395 -3.52123,2.45667 -4.40983,1.80905z" fill="#6b1c27"/><path d="M241.09853,196.92538c0,0 -1.32694,-1.33464 -2.36565,-1.80929c-1.32771,-0.60671 -2.33306,0.82359 -2.33306,0.82359l0.89,-1.67998c0,0 0.98283,-1.40208 2.66383,-0.59167c1.09909,0.52987 2.2956,1.664 2.2956,1.664z" fill="#747875"/></g><g stroke="none" stroke-width="0" stroke-linecap="butt"><g><path d="M238.81028,200.74078c-0.6624,-0.57117 1.8213,0.05884 3.58374,-1.98514c1.76244,-2.04398 2.65586,-5.84657 3.31826,-5.27541c0.6624,0.57117 -0.43874,2.48529 -2.90743,5.82803c-1.60336,2.17102 -3.33218,2.00368 -3.99458,1.43252z" fill="#310808"/><path d="M238.67489,200.6793c-0.92191,-0.59925 -0.01607,-3.89211 1.33225,-5.9664c0.75182,-1.15661 2.15754,-2.6364 3.34095,-2.70546c0.93895,-0.05479 1.86657,1.04845 2.26652,1.32535c0.57195,0.39598 -0.92986,2.78104 -2.63276,5.30461c-1.38384,2.05076 -3.38504,2.64115 -4.30695,2.0419z" fill="#6b1c27"/><path d="M243.70081,197.52658c0,0 -1.39629,-1.26189 -2.45886,-1.68042c-1.35821,-0.53497 -2.28577,0.94697 -2.28577,0.94697l0.79904,-1.7251c0,0 0.90658,-1.45255 2.62844,-0.73304c1.12581,0.47044 2.38116,1.53907 2.38116,1.53907z" fill="#747875"/></g><path d="M242.77484,196.75634c-0.71845,-0.52425 -0.77416,-0.71049 -0.29247,-1.32372c0.40579,-0.51662 0.69291,-0.67169 1.38384,-0.16641c0.73048,0.5342 0.8016,0.57399 0.33216,1.25718c-0.5154,0.75005 -0.72354,0.7572 -1.42352,0.23295z" fill="#b29540"/><path d="M243.06301,196.38946c-0.35639,-0.26006 -0.38403,-0.35245 -0.14508,-0.65665c0.2013,-0.25627 0.34372,-0.3332 0.68647,-0.08255c0.36236,0.26499 0.39764,0.28474 0.16477,0.62364c-0.25567,0.37207 -0.35892,0.37562 -0.70615,0.11556z" fill="#747875"/></g><path d="M234.68754,174.93751c-1.3765,-1.72736 -1.7102,-4.71684 -1.7102,-4.71684l3.3352,1.59184l3.25,6c0,0 -3.4985,-1.14764 -4.875,-2.875z" fill="#0d0a0e" stroke="none" stroke-width="0" stroke-linecap="butt"/><g fill="#0d0a0e" stroke-width="0"><path d="M236.29922,172.86242c0,-2.93512 2.37938,-5.31452 5.31451,-5.31452c2.93512,0 5.31451,2.37939 5.31451,5.31452c0,2.93512 -2.37938,5.31451 -5.31451,5.31451c-2.93512,0 -5.31451,-2.37938 -5.31451,-5.31451z" stroke="none" stroke-linecap="butt"/><path d="M236.21124,172.04802c0,0 -0.01588,-3.84768 2.39396,-7.76081c2.66708,-4.33085 5.83647,-5.92279 5.83647,-5.92279l-0.27683,6.28466c0,0 1.65443,0.01045 4.04403,-1.24758c2.44161,-1.2854 3.45322,-2.99038 3.45322,-2.99038c0,0 0.32393,2.80114 -1.2506,6.676c-1.351,3.32476 -1.96783,4.00572 -1.96783,4.00572c0,0 1.38711,0.03358 2.59573,-0.10916c1.20863,-0.14274 3.85624,-0.53796 3.85624,-0.53796c0,0 -3.59167,4.07959 -5.62109,5.23245c-2.02943,1.15286 -5.63385,2.08934 -5.63385,2.08934" stroke="#000000" stroke-linecap="round"/></g><path d="M240.20162,178.71065c-0.05655,0.26656 -0.15693,2.61998 -0.15693,2.61998l-0.05497,3.00296l-1.01704,0.08262l0.02811,-3.1392c0,0 -0.02671,-2.07617 0.13512,-2.83887c0.16184,-0.7627 0.25809,-0.82798 0.5463,-0.75161c0.28824,0.07636 0.68124,0.26142 0.51941,1.02413z" data-paper-data="{&quot;index&quot;:null}" fill="#111115" stroke="none" stroke-width="0" stroke-linecap="butt"/><g><g><path d="M237.01306,188.02171c-0.00688,-0.54784 0.50641,-1.10177 0.88334,-1.8495c0.28122,-0.55786 1.01604,-0.77939 1.49869,-0.78544c1.03052,-0.01294 2.0892,0.26416 2.10213,1.29466c0.00427,0.34005 0.07456,1.0418 0.14735,1.70619c0.07182,0.65541 -0.00525,1.12591 -0.35088,1.16164c-0.44407,0.04591 -0.51643,-0.27898 -0.51643,-0.27898c0,0 -0.17955,0.3649 -0.39251,0.38145c-0.21296,0.01653 -0.56109,-0.30792 -0.56109,-0.30792c0,0 -0.22763,0.29877 -0.48548,0.32178c-0.25787,0.023 -0.44419,-0.23731 -0.44419,-0.23731c0,0 -0.15888,0.32175 -0.48459,0.33006c-0.32571,0.0083 -0.40813,-0.37396 -0.40813,-0.37396c0,0 -0.00639,0.29492 -0.21723,0.31036c-0.21084,0.01544 -0.04953,0.00083 -0.16603,-0.05302c-0.09598,-0.04437 -0.6013,-1.33163 -0.60491,-1.61997z" fill="#747875" stroke="none" stroke-width="0" stroke-linecap="butt"/><path d="M237.94124,189.52689c0,0 0.20581,-0.42164 0.22386,-0.8043c0.01804,-0.38268 -0.16563,-0.83111 -0.04499,-0.97303c0.25499,-0.30002 0.91162,-0.31578 0.91162,-0.31578" fill="none" stroke="#000000" stroke-width="0.125" stroke-linecap="round"/></g><path d="M239.66416,185.72247c-0.36773,-0.02286 -1.6179,-0.05818 -1.63024,-0.35443c0.01125,-0.2849 0.33529,-0.55879 0.33529,-0.55879c0,0 -0.40162,-0.18048 -0.34958,-0.45111c0.0675,-0.35112 1.02931,-0.51447 1.54744,-0.51247c0.51812,0.00201 1.10779,0.15478 1.28236,0.40463c0.44005,0.62983 -0.02625,0.6455 -0.02625,0.6455c0,0 0.48864,0.01636 0.37944,0.66162c-0.0538,0.31794 -1.12517,0.19079 -1.53846,0.16509z" fill="#747875" stroke="none" stroke-width="0" stroke-linecap="butt"/></g><path d="M245.26927,178.2664c1.61916,0.77467 3.55029,2.67032 3.55029,2.67032c0,0 -2.32064,-0.22756 -3.82521,-0.3083c-1.50457,-0.08075 -2.25205,-0.15849 -2.25205,-0.15849l-0.7567,-2.80954c0,0 1.66452,-0.16866 3.28367,0.60601z" fill="#0d0a0e" stroke="none" stroke-width="0" stroke-linecap="butt"/><path d="M239.81989,191.38471l-0.24743,-8.36914l1.56827,0.01601c0,0 -0.34117,1.45637 -0.34234,3.10008c-0.00118,1.6437 0.33712,4.17996 0.33712,4.17996z" data-paper-data="{&quot;index&quot;:null}" fill="#0d0a0e" stroke="none" stroke-width="0" stroke-linecap="butt"/><path d="M240.97786,184.03589l1.23824,-1.28246c0,0 0.00118,0.96045 0.48215,1.56001c0.57741,0.71978 2.74613,2.46427 2.74613,2.46427c0,0 -2.23903,-0.52196 -3.25715,-1.14695c-1.01813,-0.62499 -1.20936,-1.59486 -1.20936,-1.59486z" fill="#0d0a0e" stroke="none" stroke-width="0" stroke-linecap="butt"/><path d="M238.72366,192.377c0.01183,-0.51772 0.42652,-1.02251 0.42652,-1.02251c0,0 -0.51881,-0.31881 -0.45434,-0.81155c0.08365,-0.63927 1.32056,-0.95758 1.98772,-0.96555c0.66716,-0.00799 1.42786,0.2563 1.65498,0.70622c0.57252,1.13415 -0.02778,1.17306 -0.02778,1.17306c0,0 0.62931,0.01878 0.49475,1.19324c-0.06632,0.57871 -1.26413,0.59633 -2.15609,0.5367c-0.89196,-0.05961 -1.90712,-0.27179 -1.92575,-0.80961z" fill="#747875" stroke="none" stroke-width="0" stroke-linecap="butt"/><path d="M238.54436,181.70757c-0.43138,-1.54049 -0.30073,-3.2912 1.03985,-3.66659c1.34058,-0.3754 3.19602,-1.70665 3.62739,-0.16616c0.25781,0.9207 -0.19901,2.50673 -0.0286,3.53088c0.30556,1.83643 -0.27374,2.31725 -1.07252,2.54092c-1.34057,0.3754 -3.13474,-0.69855 -3.56612,-2.23905z" fill="#0d0a0e" stroke="none" stroke-width="0" stroke-linecap="butt"/><path d="M238.32721,181.42396c-0.45161,-1.44876 -0.0256,-1.81025 0.43005,-2.64625c0.23104,-0.4239 1.42981,-0.55195 2.29193,0.23076c0.79564,0.72236 0.97881,4.31583 -0.14214,4.49443c-1.24907,0.199 -2.26004,-1.053 -2.57985,-2.07894z" fill="#111115" stroke="none" stroke-width="0" stroke-linecap="butt"/><path d="M242.66948,192.53259l-1.27047,-9.06793l1.7107,-0.2297c0,0 -0.19756,1.63853 -0.00227,3.42732c0.19529,1.78879 0.86719,4.49532 0.86719,4.49532z" data-paper-data="{&quot;index&quot;:null}" fill="#0d0a0e" stroke="none" stroke-width="0" stroke-linecap="butt"/><path d="M241.95946,167.63377c0,0 1.64372,-1.34837 2.82337,-2.0609c1.17967,-0.71253 1.34119,-0.74448 1.59988,-0.58408c0.2517,0.15607 0.18614,1.38491 0.17648,2.29118c-0.00967,0.90627 -0.22167,1.94582 -0.22167,1.94582" fill="#0d0a0e" stroke="#000000" stroke-width="0.125" stroke-linecap="round"/><path d="M236.56424,171.26006c0,0 -0.84875,-1.55844 -1.11193,-2.34129c-0.22997,-0.68404 -0.67638,-2.0572 -0.38103,-2.0995c0.24647,-0.03531 1.2072,0.39345 1.73266,0.50884c0.57254,0.12574 1.57345,0.21722 1.57345,0.21722" fill="#0d0a0e" stroke="#000000" stroke-width="0" stroke-linecap="round"/><path d="M236.91452,173.21615c0.30158,0.83689 0.65734,1.46231 0.95081,1.96652c0.09348,0.16063 0.33459,-0.26416 0.33459,-0.26416c0,0 0.16069,0.50511 0.40078,0.25427c0.79869,-0.41863 1.36346,-1.17711 2.13031,-1.98423c0.76686,-0.80712 2.22697,-2.5437 2.60299,-2.58871c0.32336,-0.03871 0.13099,-0.18529 0.53944,0.58687c0.28269,0.65684 0.37758,2.13024 -0.06576,2.9653c-0.44334,0.83505 -1.07334,1.77428 -2.30487,2.03529c-1.23152,0.26103 -2.33987,-1.08387 -3.45707,-0.81854c-0.13774,0.03271 -0.87176,0.58725 -0.87176,0.58725c0,0 -0.74049,-1.54326 -0.89447,-2.60829c-0.15399,-1.06504 -0.0512,-2.22034 -0.0512,-2.22034c0,0 0.38463,1.25188 0.68621,2.08877z" fill="#78828a" stroke="#000000" stroke-width="0" stroke-linecap="butt"/><path d="M237.2331,176.11392c0.00991,-0.24284 0.26844,-0.75042 1.12196,-0.8277c0.66167,-0.06977 1.65321,0.70898 2.6248,0.74822c1.45983,0.05896 1.93397,-1.74116 3.58526,-1.26901c1.32994,0.35803 0.68094,3.29708 -3.19639,3.39707c-0.92384,-0.02422 -2.19507,-0.40457 -2.93059,-0.80345c-0.89563,-0.4857 -1.22107,-0.85199 -1.20504,-1.24514z" fill="#111115" stroke="#000000" stroke-width="0" stroke-linecap="butt"/><path d="M236.11791,172.30691c0,0 -0.44231,-2.0172 -0.30905,-2.33792c0.20348,-0.48976 0.96279,0.06909 0.96279,0.06909" fill="#0d0a0e" stroke="#000000" stroke-width="0.125" stroke-linecap="round"/><path d="M235.96411,175.07564c0.04767,-0.13663 0.65204,0.15326 1.11519,0.30764c0.46314,0.15438 1.11519,0.22783 1.11519,0.46146c0,0.38744 -0.7438,0.36492 -1.269,0.23073c-0.83169,-0.2125 -1.11765,-0.55187 -0.96137,-0.99982z" fill="#0d1114" stroke="none" stroke-width="0" stroke-linecap="butt"/><path d="M236.95516,175.33357c0.22988,0.04286 0.40466,0.13972 0.39037,0.21635c-0.01429,0.07663 -0.21223,0.10401 -0.4421,0.06114c-0.22988,-0.04286 -0.40466,-0.13972 -0.39037,-0.21635c0.01429,-0.07663 0.21223,-0.10401 0.4421,-0.06114z" fill="#78828a" stroke="none" stroke-width="0" stroke-linecap="butt"/><path d="M243.02953,167.58434c0,0 2.03726,-1.68473 2.72865,-1.50546c0.48185,0.12494 -0.09409,3.10501 -0.09409,3.10501c0,0 -0.08843,-0.4319 -1.14178,-0.96602c-0.96298,-0.48829 -1.49277,-0.63353 -1.49277,-0.63353z" fill="#111115" stroke="none" stroke-width="0" stroke-linecap="butt"/><path d="M242.5468,178.16053c0.27022,-0.12285 0.37754,-0.07226 0.6809,0.67173c0.30336,0.74398 0.66782,2.84347 0.66782,2.84347l0.61871,3.16354l-1.01975,0.07819l-0.61957,-3.02179c0,0 -0.54215,-2.35907 -0.64815,-2.6191c-0.30336,-0.74398 0.04984,-0.99318 0.32007,-1.11603z" data-paper-data="{&quot;index&quot;:null}" fill="#111115" stroke="none" stroke-width="0" stroke-linecap="butt"/><g fill="#747875" stroke="none" stroke-width="0" stroke-linecap="butt"><g><path d="M241.97974,188.93254c-0.09178,-0.54015 0.32936,-1.167 0.58573,-1.96414c0.19128,-0.59473 0.88283,-0.92756 1.35871,-1.00842c1.01603,-0.17264 2.10488,-0.06313 2.27751,0.9529c0.05698,0.33527 0.23526,1.01762 0.41024,1.66269c0.17264,0.63634 0.16947,1.1131 -0.16643,1.20201c-0.43157,0.11425 -0.55346,-0.19549 -0.55346,-0.19549c0,0 -0.12078,0.38834 -0.32858,0.43772c-0.20782,0.04938 -0.60207,-0.21714 -0.60207,-0.21714c0,0 -0.17852,0.33046 -0.4297,0.3932c-0.25118,0.06271 -0.47563,-0.16552 -0.47563,-0.16552c0,0 -0.10704,0.3425 -0.42753,0.40122c-0.32048,0.05873 -0.46121,-0.30613 -0.46121,-0.30613c0,0 0.03944,0.29233 -0.16645,0.34029c-0.2059,0.04796 -0.0488,0.00852 -0.17225,-0.02663c-0.1017,-0.02894 -0.8006,-1.22223 -0.84889,-1.50652z"/></g><path d="M244.24209,186.24986c-0.36682,0.03446 -1.60736,0.19351 -1.66548,-0.09724c-0.03307,-0.2832 0.24454,-0.60405 0.24454,-0.60405c0,0 -0.42476,-0.11599 -0.41533,-0.39141c0.01222,-0.35734 0.93705,-0.66793 1.4492,-0.74632c0.51216,-0.07839 1.1184,-0.01894 1.32961,0.20082c0.53244,0.55394 0.07421,0.64175 0.07421,0.64175c0,0 0.48526,-0.05963 0.47747,0.59473c-0.00384,0.32243 -1.08196,0.36302 -1.49421,0.40176z"/></g><path d="M241.55942,192.97765c-0.01583,-0.51761 0.37132,-1.04382 0.37132,-1.04382c0,0 -0.53509,-0.29066 -0.49702,-0.78614c0.0494,-0.64282 1.26755,-1.02671 1.93334,-1.07029c0.66578,-0.0436 1.43951,0.17971 1.69032,0.61686c0.63225,1.10197 0.03489,1.17287 0.03489,1.17287c0,0 0.62942,-0.01484 0.55775,1.16513c-0.03533,0.58143 -1.23049,0.66297 -2.12436,0.65104c-0.89387,-0.01191 -1.91891,-0.16959 -1.96623,-0.70565z" fill="#747875" stroke="none" stroke-width="0" stroke-linecap="butt"/></g></g></svg>