<svg version="1.1" xmlns="http://www.w3.org/2000/svg" xmlns:xlink="http://www.w3.org/1999/xlink" width="28.38772" height="24.53519" viewBox="0,0,28.38772,24.53519"><g transform="translate(-227.11765,-170.16762)"><g data-paper-data="{&quot;isPaintingLayer&quot;:true}" fill-rule="nonzero" stroke-linejoin="miter" stroke-miterlimit="10" stroke-dasharray="" stroke-dashoffset="0" style="mix-blend-mode: normal"><g data-paper-data="{&quot;index&quot;:null}"><g stroke="none" stroke-width="0" stroke-linecap="butt"><path d="M238.82546,178.59112c-0.88957,1.04826 -1.69016,4.85608 -1.69016,4.85608c0,0 -4.08952,-3.42623 -2.51336,-6.79537c1.14185,-2.44076 7.18975,-2.19029 7.18975,-2.19029c0,0 0.23958,0.83896 0.57011,1.36991c0.33344,0.53564 0.63615,1.75853 0.63615,1.75853c0,0 -3.5493,0.24321 -4.19249,1.00114z" fill="#f8b820"/><path d="M243.00529,177.55145c0,0 -0.1814,-0.48656 -0.64735,-1.20898c-0.46595,-0.72241 -0.60329,-1.82598 -0.60329,-1.82598c0,0 1.90077,0.02953 3.02923,0.39545c1.12845,0.36592 2.68945,1.45891 2.68945,1.45891c0,0 -1.38866,0.40081 -2.28296,0.63711c-0.89431,0.23631 -2.18507,0.54349 -2.18507,0.54349z" fill="#ffffff"/></g><path d="M242.68303,176.9519l0.56635,-0.17041" fill="none" stroke="#808080" stroke-width="0.5" stroke-linecap="round"/><path d="M241.90263,175.90692l0.48121,-0.20334" fill="none" stroke="#808080" stroke-width="0.5" stroke-linecap="round"/><path d="M242.12011,174.991l-0.64328,0.10712" fill="none" stroke="#808080" stroke-width="0.5" stroke-linecap="round"/></g><g data-paper-data="{&quot;index&quot;:null}"><g stroke="none" stroke-width="0" stroke-linecap="butt"><path d="M231.57304,177.58998c0,0 0.30271,-1.22289 0.63615,-1.75853c0.33053,-0.53095 0.57011,-1.36991 0.57011,-1.36991c0,0 6.0479,-0.25047 7.18975,2.19029c1.57616,3.36914 -2.51336,6.79537 -2.51336,6.79537c0,0 -0.80059,-3.80782 -1.69016,-4.85608c-0.64319,-0.75793 -4.19249,-1.00114 -4.19249,-1.00114z" fill="#f8b820"/><path d="M231.58569,177.55146c0,0 -1.29076,-0.30718 -2.18507,-0.54349c-0.8943,-0.2363 -2.28296,-0.63711 -2.28296,-0.63711c0,0 1.561,-1.09299 2.68945,-1.45891c1.12846,-0.36592 3.02923,-0.39545 3.02923,-0.39545c0,0 -0.13734,1.10357 -0.60329,1.82598c-0.46595,0.72242 -0.64735,1.20898 -0.64735,1.20898z" fill="#ffffff"/></g><path d="M231.34161,176.78148l0.56635,0.17041" fill="none" stroke="#808080" stroke-width="0.5" stroke-linecap="round"/><path d="M232.13572,175.9893l0.48121,0.20334" fill="none" stroke="#808080" stroke-width="0.5" stroke-linecap="round"/><path d="M233.11416,175.09813l-0.64328,-0.10712" fill="none" stroke="#808080" stroke-width="0.5" stroke-linecap="round"/></g><g data-paper-data="{&quot;index&quot;:null}"><g><path d="M236.34875,185.80161c0.21295,0.16763 0.75852,2.44366 0.40886,4.75407c-0.4346,2.87168 -1.68668,4.33352 -2.08113,4.11624c-1.53195,-0.67672 -2.64507,-4.79844 -2.76668,-5.5946c-0.12161,-0.79613 -0.04111,-2.38056 0.49933,-2.81436c0.54044,-0.4338 3.159,-1.07591 3.93962,-0.46135z" fill="#c01515" stroke="none" stroke-width="0" stroke-linecap="butt"/><path d="M232.36664,190.75759c0,0 -0.11649,-0.31111 -0.17234,-0.5159c-0.05585,-0.20479 -0.24047,-0.99782 -0.24047,-0.99782c0,0 1.51772,-0.6312 2.54713,-0.73892c1.02939,-0.10773 2.33717,0.22778 2.33717,0.22778c0,0 0.03234,0.91579 -0.03087,1.44728c-0.0632,0.53148 -0.18099,0.93401 -0.18099,0.93401c0,0 -1.28658,-0.48188 -2.10366,-0.54529c-0.81708,-0.06342 -2.15595,0.18885 -2.15595,0.18885z" fill="#a8c8d8" stroke="none" stroke-width="0" stroke-linecap="butt"/><path d="M236.18762,186.45234c0,0 0.0341,2.60486 -0.23163,4.24099c-0.26573,1.63613 -1.10694,3.87711 -1.10694,3.87711" fill="none" stroke="#000000" stroke-width="0.25" stroke-linecap="round"/><path d="M235.90453,186.70392l0.44452,0.08355" fill="none" stroke="#808080" stroke-width="0.5" stroke-linecap="round"/><path d="M236.34356,188.11303l-0.58246,-0.09866" fill="none" stroke="#808080" stroke-width="0.5" stroke-linecap="round"/><path d="M235.85131,191.6536l-0.47524,-0.12182" fill="none" stroke="#808080" stroke-width="0.5" stroke-linecap="round"/><path d="M234.94217,193.26413l0.51349,0.0911" fill="none" stroke="#808080" stroke-width="0.5" stroke-linecap="round"/><path d="M236.39062,189.78988l-0.69689,-0.12365" fill="none" stroke="#808080" stroke-width="0.5" stroke-linecap="round"/></g><path d="M238.44044,184.27755c0,0 0.74025,-0.57238 1.16277,-0.89907c0.42251,-0.32668 1.12085,-0.86898 1.12085,-0.86898l1.48,0.30615c0,0 -0.73538,0.68906 -1.28029,1.02466c-0.54489,0.33559 -1.93644,1.03765 -1.93644,1.03765z" fill="#f8b820" stroke="none" stroke-width="0" stroke-linecap="butt"/><path d="M237.03944,184.80606c0.48609,-0.29627 1.60053,-0.66469 1.8202,-0.30429c0.28964,0.47522 -0.16256,0.68575 -1.09291,1.2003c-0.49815,0.27551 -1.6415,0.94872 -1.89749,0.40256c-0.23975,-0.51149 0.68411,-1.00231 1.1702,-1.29858z" fill="#ffffff" stroke="none" stroke-width="0" stroke-linecap="butt"/></g><g data-paper-data="{&quot;index&quot;:null}"><path d="M239.21849,182.2301c1.53946,-0.12377 2.02964,0.05722 3.09657,0.77442c1.59014,1.06892 1.94482,3.05965 -0.07922,4.63442c-2.05147,1.59612 -6.47138,0.88009 -6.63329,-0.89801c-0.15054,-1.65334 0.2819,-4.24281 3.61594,-4.51084z" fill="#f8b820" stroke="none" stroke-width="0" stroke-linecap="butt"/><path d="M238.94771,183.65784c3.34482,0.454 3.35883,2.20979 3.36116,2.98201c0.00396,1.31279 -1.02903,2.78015 -3.17241,2.9024c-1.60394,0.09147 -3.61985,-1.52089 -3.50029,-2.77999c0.17721,-1.8664 2.15703,-3.26114 3.31154,-3.10443z" fill="#ffffff" stroke="none" stroke-width="0" stroke-linecap="butt"/><path d="M241.17548,184.71498l0.38303,-0.4153" fill="none" stroke="#808080" stroke-width="0.5" stroke-linecap="round"/><path d="M239.61308,183.97857l0.0477,-0.46838" fill="none" stroke="#808080" stroke-width="0.5" stroke-linecap="round"/><path d="M237.89949,184.44764l-0.23454,-0.85679" fill="none" stroke="#808080" stroke-width="0.5" stroke-linecap="round"/><path d="M236.34316,185.5101l-0.2903,-0.58799" fill="none" stroke="#808080" stroke-width="0.5" stroke-linecap="round"/></g><g data-paper-data="{&quot;index&quot;:null}"><path d="M229.07517,186.35115c0.52647,-0.45065 3.12345,-1.17514 3.92309,-0.58554c0.21814,0.16082 0.83531,2.41848 0.5588,4.73878c-0.34369,2.88398 -1.54897,4.38464 -1.95009,4.17992c-1.55256,-0.628 -2.79531,-4.71251 -2.942,-5.50443c-0.1467,-0.7919 -0.11628,-2.37808 0.41019,-2.82873z" fill="#f72526" stroke="none" stroke-width="0" stroke-linecap="butt"/><path d="M229.17464,190.84491c0,0 -0.12625,-0.30727 -0.18854,-0.5102c-0.0623,-0.20293 -0.27187,-0.98973 -0.27187,-0.98973c0,0 1.49702,-0.67882 2.52252,-0.819c1.02548,-0.14019 2.3432,0.15385 2.3432,0.15385c0,0 0.06125,0.91431 0.01486,1.44753c-0.04638,0.53321 -0.1514,0.93926 -0.1514,0.93926c0,0 -1.30115,-0.441 -2.11983,-0.47858c-0.81867,-0.03758 -2.14891,0.25685 -2.14891,0.25685z" fill="#ffffff" stroke="none" stroke-width="0" stroke-linecap="butt"/><path d="M232.85774,186.42112c0,0 0.11635,2.60249 -0.09757,4.24619c-0.21392,1.6437 -0.98393,3.91013 -0.98393,3.91013" fill="none" stroke="#000000" stroke-width="0.25" stroke-linecap="round"/><path d="M232.58275,186.68154l0.44694,0.06947" fill="none" stroke="#808080" stroke-width="0.5" stroke-linecap="round"/><path d="M232.48078,187.99589l0.58529,0.08022" fill="none" stroke="#808080" stroke-width="0.5" stroke-linecap="round"/><path d="M232.68587,191.6304l-0.47885,-0.10675" fill="none" stroke="#808080" stroke-width="0.5" stroke-linecap="round"/><path d="M231.82806,193.26884l0.51611,0.07484" fill="none" stroke="#808080" stroke-width="0.5" stroke-linecap="round"/><path d="M233.16606,189.75064l-0.70045,-0.10158" fill="none" stroke="#808080" stroke-width="0.5" stroke-linecap="round"/></g><path d="M235.53422,184.51957c0,0 0.7696,-0.53227 1.20887,-0.83606c0.43926,-0.30379 1.16541,-0.80824 1.16541,-0.80824l1.46166,0.3843c0,0 -0.77093,0.64904 -1.33289,0.95523c-0.56195,0.30619 -1.98881,0.93337 -1.98881,0.93337z" data-paper-data="{&quot;index&quot;:null}" fill="#f8b820" stroke="none" stroke-width="0" stroke-linecap="butt"/><path d="M235.94093,184.76572c0.264,0.48993 -0.19874,0.67616 -1.1551,1.14058c-0.51208,0.24867 -1.68956,0.86022 -1.91619,0.30124c-0.21225,-0.5235 0.73636,-0.96457 1.2375,-1.23461c0.50114,-0.27004 1.63357,-0.57877 1.83379,-0.20721z" data-paper-data="{&quot;index&quot;:null}" fill="#ffffff" stroke="none" stroke-width="0" stroke-linecap="butt"/><path d="M238.32732,180.61376c-0.41088,-4.37897 2.89583,-7.70954 5.36348,-7.88481c2.40398,-0.17074 3.12112,0.22823 4.36586,1.23529c3.20566,2.59354 1.33527,9.72123 -1.05612,9.98466c-2.8153,0.31013 -8.40186,-0.44288 -8.67323,-3.33514z" data-paper-data="{&quot;index&quot;:null}" fill="#f8b820" stroke="none" stroke-width="0" stroke-linecap="butt"/><path d="M238.97737,180.99713c-0.0491,-0.65196 3.25206,-1.81127 6.12486,-0.66029c1.22073,0.48908 2.87707,2.52169 2.62992,2.93483c-0.80355,1.30868 -2.14944,1.52889 -3.45902,1.64899c-2.41039,0.22106 -5.1529,-2.02648 -5.29576,-3.92352z" data-paper-data="{&quot;index&quot;:null}" fill="#ffffff" stroke="none" stroke-width="0" stroke-linecap="butt"/><path d="M239.56822,175.61443c-0.33662,0.2524 -1.34761,-4.52071 1.20344,-5.42428c0.38402,-0.13601 1.44547,0.36778 2.01208,0.86764c0.5666,0.49985 0.96784,1.76123 0.96784,1.76123c0,0 -1.38449,0.56185 -2.21705,1.06688c-0.83257,0.50503 -1.72854,1.55026 -1.9663,1.72852z" data-paper-data="{&quot;index&quot;:null}" fill="#ffffff" stroke="none" stroke-width="0" stroke-linecap="butt"/><path d="M248.11657,174.0947c0,0 1.8764,-1.01613 3.43101,0.46694c0.62481,0.59607 0.36044,1.89513 -0.29875,2.884c-0.72757,1.09144 -1.79492,1.92686 -1.79492,1.92686c0,0 -0.12413,-1.53065 -0.2658,-2.81668c-0.14167,-1.28603 -1.07154,-2.46111 -1.07154,-2.46111z" data-paper-data="{&quot;index&quot;:null}" fill="#ffffff" stroke="none" stroke-width="0" stroke-linecap="butt"/><g data-paper-data="{&quot;index&quot;:null}" stroke="none" stroke-width="0" stroke-linecap="butt"><path d="M246.08517,179.67876c-0.25056,-0.95676 0.25304,-1.93116 1.12482,-2.17637c0.87178,-0.24523 1.78161,0.33161 2.03216,1.28838c0.25056,0.95675 -0.25303,1.93115 -1.12481,2.17636c-0.87177,0.24522 -1.78162,-0.33161 -2.03217,-1.28838z" fill="#ffffff"/><path d="M248.45325,179.39593c-0.06034,0.50921 -0.47047,0.87922 -0.91604,0.8264c-0.44555,-0.0528 -0.75783,-0.50841 -0.69749,-1.01764c0.06034,-0.5092 0.50472,-0.97192 0.95029,-0.9191c0.44556,0.05282 0.72358,0.60113 0.66324,1.11035z" fill="#000000"/></g><g data-paper-data="{&quot;index&quot;:null}" stroke="none" stroke-width="0" stroke-linecap="butt"><path d="M242.82098,175.64694c0.80919,0.1923 1.25361,1.23844 0.99264,2.33663c-0.26097,1.09818 -1.1285,1.83256 -1.9377,1.64027c-0.80918,-0.19231 -1.25361,-1.23844 -0.99264,-2.33663c0.26097,-1.09818 1.1285,-1.83256 1.9377,-1.64027z" fill="#ffffff"/><path d="M243.17016,177.85143c-0.06034,0.50921 -0.47047,0.87922 -0.91604,0.8264c-0.44555,-0.0528 -0.75783,-0.50841 -0.69749,-1.01764c0.06034,-0.5092 0.50472,-0.97192 0.95029,-0.9191c0.44556,0.05282 0.72358,0.60113 0.66324,1.11035z" fill="#000000"/></g><path d="M243.44956,177.34358c0,0 -0.28717,-1.43518 -0.17628,-2.00388c0.1537,-0.78821 0.93587,-1.19255 0.93587,-1.19255l3.77449,1.16282c0,0 0.12722,1.04583 -0.03594,1.5861c-0.13178,0.43635 -1.34705,1.60509 -1.34705,1.60509c0,0 -0.26955,-0.80387 -0.39453,-1.39262c-0.12498,-0.58874 -0.24362,-1.61348 -0.24362,-1.61348l-2.51292,1.84854z" data-paper-data="{&quot;index&quot;:null}" fill="#f8b820" stroke="none" stroke-width="0" stroke-linecap="butt"/><g data-paper-data="{&quot;index&quot;:null}" stroke="none" stroke-width="0" stroke-linecap="butt"><path d="M244.23686,180.45394c0.55808,-0.06148 1.38999,0.35149 1.29437,1.10074c-0.04481,0.35112 -0.47125,0.43631 -1.23412,0.25353c-0.54601,-0.13081 -1.15015,-0.3491 -1.17702,-0.91533c-0.01677,-0.35357 0.55869,-0.37745 1.11678,-0.43893z" fill="#71716f"/><path d="M244.11692,181.38334c-0.63288,-0.04782 -0.83445,-0.0905 -0.94461,-0.55976c-0.06333,-0.2698 0.16423,-0.50909 0.45798,-0.62853c0.29375,-0.11944 0.57243,-0.06211 0.90225,0.07546c0.32981,0.13757 0.86926,0.66643 0.86926,0.66643c0,0 -0.32708,0.51878 -1.28487,0.4464z" fill="#010101"/><path d="M244.68082,181.25455c-0.01738,-0.15773 0.0964,-0.29966 0.25412,-0.31704c0.15773,-0.01738 0.29966,0.0964 0.31704,0.25411c0.01738,0.15773 -0.0964,0.29966 -0.25411,0.31704c-0.15773,0.01738 -0.29966,-0.0964 -0.31704,-0.25412z" fill="#ffffff"/></g><g data-paper-data="{&quot;index&quot;:null}"><path d="M245.79687,174.80699c0,0 1.21265,-1.42456 2.2226,-2.0188c1.00995,-0.59424 2.53284,-0.30817 2.53284,-0.30817l-0.20582,0.62885c0,0 -1.02635,-0.33335 -1.98474,0.23434c-0.9584,0.5677 -2.0975,1.82739 -2.0975,1.82739z" fill="#767578" stroke="none" stroke-width="0" stroke-linecap="butt"/><path d="M249.8488,172.44218l3.16379,-0.65929l2.41431,3.1868l-3.75979,-0.10034z" fill="#ea035a" stroke="none" stroke-width="0" stroke-linecap="butt"/><path d="M250.18815,172.96741c0,0 -0.3514,-0.53031 -0.17549,-0.45607c0.69116,0.29172 5.36772,2.34422 5.36772,2.34422" fill="none" stroke="#000000" stroke-width="0.25" stroke-linecap="round"/><path d="M251.6876,174.88244l-0.46127,-1.84148l1.8316,-1.35687" fill="none" stroke="#000000" stroke-width="0.25" stroke-linecap="round"/></g></g></g></svg>