<svg version="1.1" xmlns="http://www.w3.org/2000/svg" xmlns:xlink="http://www.w3.org/1999/xlink" width="499.98757" height="59.44079" viewBox="0,0,499.98757,59.44079"><defs><radialGradient cx="240" cy="180" r="239.39493" gradientUnits="userSpaceOnUse" id="color-1"><stop offset="0" stop-color="#ff0000" stop-opacity="0.14902"/><stop offset="1" stop-color="#ff0000" stop-opacity="0.32941"/></radialGradient></defs><g transform="translate(9.99379,-150.25)"><g data-paper-data="{&quot;isPaintingLayer&quot;:true}" fill-rule="nonzero" stroke-opacity="0.25098" stroke="#ff0000" stroke-width="2.5" stroke-linejoin="miter" stroke-miterlimit="10" stroke-dasharray="" stroke-dashoffset="0" style="mix-blend-mode: normal"><path d="M240,208.43201l-73.85124,-8.77103l-93.45545,0.20942v-11.30876l-72.08824,-8.56164l71.20659,-8.45693l1.76331,-11.51818h95.21876l71.20628,-8.45689l65.91665,7.82867l99.62703,0.52356l0.88166,11.41347l72.96959,8.66631l-69.44297,8.24747l-5.28993,11.30876l-93.45545,0.41884z" fill="url(#color-1)" stroke-linecap="butt"/><path d="M72.5,159.5l330,38" fill="none" stroke-linecap="round"/><path d="M403.5,161.5l-330,38" fill="none" stroke-linecap="round"/><path d="M1.5,179.5l470,1" fill="none" stroke-linecap="round"/><path d="M238.5,151.5v55" fill="none" stroke-linecap="round"/><path d="M171.5,160.5l137,38" fill="none" stroke-linecap="round"/><path d="M300.5,159.5l-130,41" fill="none" stroke-linecap="round"/></g></g></svg>