<svg version="1.1" xmlns="http://www.w3.org/2000/svg" xmlns:xlink="http://www.w3.org/1999/xlink" width="45.77924" height="52.57806" viewBox="0,0,45.77924,52.57806"><defs><radialGradient cx="308.36738" cy="255.72384" r="25.6481" gradientUnits="userSpaceOnUse" id="color-1"><stop offset="0" stop-color="#010007"/><stop offset="1" stop-color="#000713"/></radialGradient><radialGradient cx="306.71835" cy="225.71153" r="16.34081" gradientUnits="userSpaceOnUse" id="color-2"><stop offset="0" stop-color="#081c2d"/><stop offset="1" stop-color="#08192b"/></radialGradient></defs><g transform="translate(-277.11037,-213.71097)"><g data-paper-data="{&quot;isPaintingLayer&quot;:true}" fill-rule="nonzero" stroke="#000000" stroke-width="0" stroke-linecap="butt" stroke-linejoin="miter" stroke-miterlimit="10" stroke-dasharray="" stroke-dashoffset="0" style="mix-blend-mode: normal"><path d="M322.88962,239.77726c0,0 -1.64487,20.10539 -2.84415,20.93758c-3.00062,2.08216 -14.75726,5.38766 -15.80067,5.56277c-2.78189,0.4669 -22.83106,-13.51662 -24.57052,-18.63402c-1.7048,-5.0154 -2.91142,-22.22467 -2.47355,-23.58109c0.69309,-2.14695 9.36931,-9.49805 15.32029,-9.49822z" fill="url(#color-1)"/><path d="M322.54902,240.22297c0,0 -7.36536,6.47411 -12.36772,4.94707c-5.00236,-1.52704 -18.31748,-12.88322 -18.96382,-14.51144c-0.7637,-1.92389 -1.24116,-14.34833 0.49471,-15.83067c1.65108,-1.40993 12.70183,-1.0845 12.70183,-1.0845c0,0 6.9395,6.33532 10.47652,11.69284c3.53703,5.35749 7.65848,14.7867 7.65848,14.7867z" fill="url(#color-2)"/></g></g></svg>