<svg version="1.1" xmlns="http://www.w3.org/2000/svg" xmlns:xlink="http://www.w3.org/1999/xlink" width="33.43333" height="35.39624" viewBox="0,0,33.43333,35.39624"><g transform="translate(-223.63572,-163.42401)"><g data-paper-data="{&quot;isPaintingLayer&quot;:true}" fill-rule="nonzero" stroke-miterlimit="10" stroke-dasharray="" stroke-dashoffset="0" style="mix-blend-mode: normal"><g stroke="none" stroke-width="0" stroke-linecap="butt" stroke-linejoin="miter"><g data-paper-data="{&quot;index&quot;:null}"><g><path d="M250.67125,184.8766c0,0 0.87948,-1.32245 2.09311,-0.74405c0.11277,0.05375 -0.00702,0.3038 -0.00702,0.3038l0.35977,-0.11444l0.59895,0.50827l-0.18007,0.16682c0,0 0.44637,0.84536 0.75766,1.13488c0.31038,0.28872 1.1074,0.59989 1.1074,0.59989l0.20674,-0.01184l0.55863,0.56093l-0.12469,0.12841l0.13451,0.1869c0,0 0.24324,-0.16851 0.39467,0.28247c0.04865,0.14491 0.28337,0.58618 0.28337,0.58618l-0.15641,0.0877l0.00741,0.1728c0,0 0.27228,-0.02216 0.27738,0.11443c0.00611,0.16375 0.10733,0.56845 0.08248,0.837c-0.00962,0.10403 -0.10535,-0.03778 -0.12246,0.06206c-0.01115,0.06502 0.01369,0.09437 0.00276,0.16279c-0.01774,0.11087 0.09243,-0.00553 0.10594,0.0784c0.01104,0.06865 -0.03827,0.25992 -0.08852,0.42033c-0.05028,0.1604 -0.15005,0.3043 -0.15005,0.3043l-0.17493,-0.00172l-0.00926,0.25959c0,0 -0.25399,0.25068 -0.46378,0.30138c-0.20982,0.05071 -0.51694,-0.06435 -0.51694,-0.06435c0,0 0.39125,-0.50855 0.49769,-0.87288c0.19256,-3.2829 -1.5478,-3.28848 -3.19145,-4.26475c-0.7586,-0.45058 -0.95087,-0.94375 -1.48353,-1.13613c-0.43721,-0.1579 -0.79932,-0.04921 -0.79932,-0.04921z" data-paper-data="{&quot;index&quot;:null}" fill="#a87643"/><path d="M251.6812,188.21128c-1.01104,-0.14309 -4.45954,-0.63099 -4.59905,-0.9093c-0.16599,-0.36565 -0.13948,-2.17326 -0.13948,-2.17326c0,0 0.69348,0.02423 1.09795,0.07887c0.40447,0.05464 1.65595,0.16252 1.65595,0.16252c0,0 1.16022,-0.77434 1.80481,-0.53156c0.86434,0.32557 2.78887,2.63858 2.78887,2.63858c0,0 -0.84342,0.98405 -2.60901,0.73414z" data-paper-data="{&quot;index&quot;:null}" fill="#f3e2e2"/><path d="M246.51182,186.5939c0.22137,-0.18003 0.54383,0.64692 0.54383,0.64692c0,0 0.17938,0.19203 0.48554,0.2479c0.50368,0.09191 1.26871,0.15002 2.03988,0.31977c0.87805,0.19327 1.89983,0.36527 2.4265,0.37928c0.64974,0.0173 2.02672,-0.44132 2.1476,-0.78457c0.01185,-0.03359 -0.26254,-0.16442 -0.44962,-0.23217c-0.48184,-0.22012 -0.36582,-0.09115 -0.98705,-0.44188c-0.49455,-0.29262 0.1642,-0.74606 0.1642,-0.74606c0,0 3.05174,1.03751 3.46557,3.00992c0.31194,1.48687 -0.64188,2.2091 -0.64815,2.21576c-0.01126,0.01196 -1.06681,0.07831 -1.73869,-0.13223c-0.18676,-0.05854 -0.8608,-1.00824 -1.67931,-1.29944c-0.76163,-0.27098 -2.02893,-0.7852 -2.90043,-0.98658c-1.56106,-0.36069 -2.86432,-0.34568 -2.9272,-0.57476c-0.2099,-0.76464 -0.08026,-1.50991 0.05739,-1.62185z" data-paper-data="{&quot;index&quot;:null}" fill="#fc6293"/><path d="M252.47426,189.84979c0,0 -2.04371,-0.67675 -2.64339,-0.86426c-0.83012,-0.25954 -1.66139,-0.33807 -3.12122,-0.55813c-0.25398,-0.03829 -0.34961,-0.45677 -0.34961,-0.45677l0.09369,-0.09948c0,0 0.12527,0.37253 0.31902,0.42488c0.38511,0.10407 1.84029,0.30305 3.01174,0.52511c0.88798,0.16833 2.14747,0.6743 2.14747,0.6743z" data-paper-data="{&quot;index&quot;:null}" fill="#bfa4a4"/><path d="M250.61884,187.16127l-1.21011,-0.12363l0.08005,-0.63272l1.16959,0.16662z" data-paper-data="{&quot;index&quot;:null}" fill="#fffff6"/><path d="M248.83323,186.80335l-0.9984,-0.19364l0.05627,-0.56918l0.95475,0.12976z" data-paper-data="{&quot;index&quot;:null}" fill="#fffff6"/><path d="M248.1281,188.59806l-0.913,-0.07843c0,0 0.34903,-0.56643 0.47839,-0.96722c0.12933,-0.40076 0.13463,-0.9324 0.13463,-0.9324l0.99956,0.1789c0,0 -0.10428,0.72633 -0.30405,1.16706c-0.19977,0.44073 -0.3955,0.63203 -0.3955,0.63203z" data-paper-data="{&quot;index&quot;:null}" fill="#754c86"/><path d="M250.48312,188.11878c-0.09705,0.394 -0.34375,0.95203 -0.34375,0.95203c0,0 -0.38034,-0.11077 -0.62567,-0.17467c-0.24533,-0.06386 -0.70969,-0.17299 -0.70969,-0.17299c0,0 0.3189,-0.58264 0.44719,-0.94704c0.12829,-0.36441 0.17119,-0.78539 0.17119,-0.78539l1.21566,0.14401c0,0 -0.05786,0.59007 -0.15487,0.98407z" data-paper-data="{&quot;index&quot;:null}" fill="#754c86"/><path d="M246.96187,185.32487l-0.55953,1.54185c0,0 -0.02942,-0.09917 0.06341,-0.43864c0.09282,-0.33948 0.14716,-0.66529 0.18791,-0.78998c0.06734,-0.206 0.29408,-0.49015 0.29408,-0.49015z" data-paper-data="{&quot;index&quot;:null}" fill="#ae8484"/><path d="M246.62228,187.86903c-0.19853,-0.03196 -0.25963,-0.44076 -0.1236,-1.28591c0.13603,-0.84513 0.46602,-1.24135 0.46602,-1.24135c0,0 0.02533,0.69352 0.021,1.05099c0.00159,0.73105 0.0796,0.64266 0.00072,1.01777c-0.07885,0.37512 -0.20671,0.48197 -0.35444,0.45819z" data-paper-data="{&quot;index&quot;:null}" fill="#532c31"/></g><path d="M246.4223,186.68251c0,0 -0.69058,-0.2558 -0.84036,-0.58059c-0.14977,-0.32479 -0.16831,-0.71156 0.1947,-0.81956c0.36299,-0.10799 0.86884,0.49527 0.86884,0.49527z" fill="#f3e2e2"/></g><g data-paper-data="{&quot;index&quot;:null}"><path d="M243.41945,182.92159l2.02751,2.80772l-0.79794,1.12619l-2.15467,-3.06575z" data-paper-data="{&quot;index&quot;:null}" fill="#8e5173"/><path d="M245.15282,185.32966l0.29411,0.39972c0,0 0.29569,0.26792 0.43362,0.48313c0.20938,0.32669 1.18043,-0.05388 1.18043,-0.05388l0.11847,1.27964c0,0 -1.44795,0.07523 -1.91494,-0.03231c-0.29813,-0.06866 -0.61553,-0.55039 -0.61553,-0.55039l-0.42546,-0.63213z" data-paper-data="{&quot;index&quot;:null}" fill="#c5c0b5"/><path d="M244.37316,186.44858l-0.16069,-0.22326l0.9335,-0.89127l0.16438,0.20068z" fill="#af2753"/><path d="M244.65677,186.84258l-0.16069,-0.22326l0.9335,-0.89127l0.16438,0.20068z" fill="#af2753"/></g></g><g data-paper-data="{&quot;index&quot;:null}" stroke="none" stroke-width="0" stroke-linecap="butt" stroke-linejoin="miter"><path d="M238.28456,187.84807c0,0 -0.12873,-0.77669 0.18953,-0.98196c0.31826,-0.20528 0.59985,0.06053 0.74891,0.38563c0.14909,0.32511 -0.10622,1.01586 -0.10622,1.01586z" fill="#fc6293"/><g><path d="M235.04209,189.93438c0,0 -0.37321,0.13635 -0.64188,0.54437c-0.32731,0.49708 -0.1789,1.03321 -0.53394,1.88978c-0.7693,1.85598 -2.23078,2.95572 -0.00309,5.59797c0.31879,0.23971 0.96815,0.42162 0.96815,0.42162c0,0 -0.18613,0.29007 -0.39464,0.3794c-0.20852,0.08932 -0.58004,0.03813 -0.58004,0.03813l-0.17114,-0.21269l-0.14618,0.11151c0,0 -0.17455,-0.05837 -0.31778,-0.16175c-0.14323,-0.10336 -0.30507,-0.2334 -0.33898,-0.29812c-0.04147,-0.07914 0.12452,-0.05048 0.03984,-0.13263c-0.05223,-0.0507 -0.04977,-0.09104 -0.10008,-0.13875c-0.07719,-0.07325 -0.06855,0.10631 -0.14212,0.02483c-0.1899,-0.2104 -0.35933,-0.61478 -0.45721,-0.75646c-0.08166,-0.11818 0.16145,-0.27087 0.16145,-0.27087l-0.10248,-0.15011l-0.18684,0.02461c0,0 -0.08006,-0.51916 -0.1303,-0.67174c-0.1563,-0.47488 0.15447,-0.48608 0.15447,-0.48608l-0.00434,-0.24198l-0.18576,-0.02963l0.1173,-0.82366l0.18146,-0.12012c0,0 0.47511,-0.76339 0.55473,-1.20172c0.07985,-0.43958 -0.07631,-1.43204 -0.07631,-1.43204l-0.25653,-0.02716l0.18437,-0.80471l0.37484,-0.13003c0,0 -0.25814,-0.13513 -0.19704,-0.25131c0.65768,-1.25046 2.23009,-0.69064 2.23009,-0.69064z" data-paper-data="{&quot;index&quot;:null}" fill="#a87643"/><path d="M236.29017,193.37687c-1.32899,1.32127 -2.65811,1.02363 -2.65811,1.02363c0,0 0.16468,-3.1579 0.68742,-3.9758c0.38983,-0.60995 1.85367,-0.68813 1.85367,-0.68813c0,0 0.98559,-0.87826 1.29167,-1.17874c0.3061,-0.30047 0.87459,-0.75721 0.87459,-0.75721c0,0 1.15962,1.50492 1.24998,1.91714c0.05769,0.32206 -2.53818,2.90257 -3.29919,3.65915z" data-paper-data="{&quot;index&quot;:null}" fill="#fc6293"/><path d="M239.62389,188.76283c0.18629,0.00763 0.76434,0.55344 1.06877,1.32912c0.09121,0.23238 -1.01527,1.03977 -2.10238,2.32561c-0.6069,0.71787 -1.35014,1.94809 -1.82075,2.65542c-0.50578,0.76014 -0.47559,1.98366 -0.596,2.15046c-0.43311,0.59998 -1.36336,1.20826 -1.38037,1.2053c-0.00951,-0.00164 -1.26682,-0.00947 -1.93976,-1.45734c-0.89271,-1.92069 1.02337,-4.71417 1.02337,-4.71417c0,0 0.8398,-0.03281 0.60764,0.5247c-0.30227,0.68613 -0.28576,0.50453 -0.55285,0.99303c-0.11485,0.17471 -0.26351,0.45748 -0.2324,0.47831c0.3177,0.2129 1.76118,-0.25686 2.29723,-0.68023c0.43452,-0.34317 1.1906,-1.14147 1.8081,-1.85661c0.54236,-0.62809 1.14975,-1.1584 1.5159,-1.55265c0.22255,-0.23964 0.25272,-0.51418 0.25272,-0.51418c0,0 -0.24886,-0.89899 0.05074,-0.88672z" data-paper-data="{&quot;index&quot;:null}" fill="#f3e2e2"/><path d="M236.88704,194.61566c0,0 0.74185,-1.21841 1.3834,-1.9188c0.84638,-0.924 1.94608,-2.00711 2.20477,-2.337c0.13012,-0.16597 0.00121,-0.55837 0.00121,-0.55837l0.14145,0.02478c0,0 0.18279,0.41245 -0.00689,0.60446c-1.09037,1.10377 -1.7407,1.69291 -2.27615,2.43367c-0.38681,0.53514 -1.68131,2.39072 -1.68131,2.39072z" data-paper-data="{&quot;index&quot;:null}" fill="#766565"/><path d="M236.11941,191.35308l0.87969,-0.87618l0.46548,0.48225l-0.94083,0.86549z" data-paper-data="{&quot;index&quot;:null}" fill="#fffff6"/><path d="M237.3927,189.87485l0.72202,-0.70994l0.40551,0.44372l-0.71862,0.79119z" data-paper-data="{&quot;index&quot;:null}" fill="#fffff6"/><path d="M239.52434,191.46687c0,0 -0.28512,-0.03786 -0.73059,-0.28317c-0.44543,-0.24528 -0.99024,-0.79109 -0.99024,-0.79109l0.72882,-0.77952c0,0 0.33896,0.44418 0.69997,0.70015c0.36102,0.25599 1.01124,0.51318 1.01124,0.51318z" data-paper-data="{&quot;index&quot;:null}" fill="#754c86"/><path d="M238.12887,193.13034c0,0 -0.55879,-0.31452 -0.88837,-0.58511c-0.32959,-0.27059 -0.74955,-0.73091 -0.74955,-0.73091l0.93268,-0.88612c0,0 0.301,0.32741 0.63827,0.55342c0.33727,0.22603 0.9723,0.51583 0.9723,0.51583c0,0 -0.32224,0.38403 -0.48856,0.59216c-0.16633,0.20815 -0.41679,0.54069 -0.41679,0.54069z" data-paper-data="{&quot;index&quot;:null}" fill="#754c86"/><path d="M238.34712,187.82005c0,0 0.36967,0.0965 0.55598,0.22754c0.11277,0.0793 0.36353,0.31938 0.65526,0.54674c0.29173,0.22735 0.32937,0.32934 0.32937,0.32934l-1.44112,-0.94584z" data-paper-data="{&quot;index&quot;:null}" fill="#ae8484"/><path d="M240.32487,189.91163c-0.10939,0.11296 -0.28424,0.10349 -0.58664,-0.16267c-0.30242,-0.26615 -0.18115,-0.24081 -0.63978,-0.85718c-0.22856,-0.29819 -0.6436,-0.89792 -0.6436,-0.89792c0,0 0.52706,0.12587 1.17333,0.75168c0.64626,0.62582 0.85206,1.00838 0.70504,1.1602z" data-paper-data="{&quot;index&quot;:null}" fill="#532c31"/></g></g><g data-paper-data="{&quot;index&quot;:null}" stroke="none" stroke-width="0" stroke-linecap="butt" stroke-linejoin="miter"><path d="M242.04993,184.44276l-0.66255,3.85358l-1.35688,-0.06522l0.68689,-3.71388z" data-paper-data="{&quot;index&quot;:null}" fill="#8e5173"/><path d="M241.57541,187.25759l-0.28157,1.22564l-1.6525,1.24553l-0.7348,-1.17338l1.17061,-0.65138l0.18833,-0.91964z" data-paper-data="{&quot;index&quot;:null}" fill="#a71e48"/><path d="M241.57541,187.25759l-0.03574,0.26443l-1.31375,-0.3048l0.03955,-0.23285z" data-paper-data="{&quot;index&quot;:null}" fill="#a19589"/><path d="M241.48855,187.74198l-0.03574,0.26443l-1.31375,-0.30479l0.03956,-0.23286z" data-paper-data="{&quot;index&quot;:null}" fill="#a19589"/></g><g data-paper-data="{&quot;index&quot;:null}" stroke-width="0" stroke-linecap="butt" stroke-linejoin="miter"><g data-paper-data="{&quot;index&quot;:null}"><path d="M244.60589,164.5711c0.42926,0.97298 -0.01443,2.11101 -0.99099,2.54185c-0.97656,0.43084 -2.1162,-0.00865 -2.54546,-0.98163c-0.42926,-0.97298 0.01441,-2.111 0.99097,-2.54184c0.97656,-0.43083 2.11622,0.00865 2.54548,0.98163z" fill="#e0cb17" stroke="none"/><path d="M243.63901,166.99212c-0.60333,0.26618 -1.30739,-0.00534 -1.57259,-0.60645c-0.2652,-0.60112 0.0089,-1.30417 0.61223,-1.57035c0.60333,-0.26618 1.30739,0.00534 1.57259,0.60645c0.2652,0.60111 -0.0089,1.30417 -0.61223,1.57035z" fill="#e0cb17" stroke="#000000"/><path d="M243.90361,167.52555c-0.53551,0.23342 -1.33915,0.20142 -1.33915,0.20142l0.06056,-0.56218c0,0 0.71817,0.04673 1.12328,-0.16014c0.40512,-0.20688 0.81687,-0.83062 0.81687,-0.83062l0.47433,0.53552c0,0 -0.66723,0.61172 -1.1359,0.81601z" fill="#dbded5" stroke="#000000"/></g><g data-paper-data="{&quot;index&quot;:null}" stroke="none"><path d="M239.87605,173.40333c0.18407,-0.08121 0.46992,0.16268 0.63848,0.54474c0.16855,0.38205 0.15597,0.75761 -0.02809,0.83882c-0.18407,0.0812 -0.46991,-0.16269 -0.63847,-0.54475c-0.16856,-0.38206 -0.15599,-0.7576 0.02807,-0.83881z" fill="#000000"/><path d="M240.71939,178.79676c0.19173,-0.08459 1.7694,1.56643 1.7694,1.56643c0,0 -0.82657,0.72829 -1.0183,0.81288c-0.19172,0.08458 -1.00119,-0.87808 -1.07536,-1.04619c-0.07416,-0.16811 0.13255,-1.24853 0.32428,-1.33312z" fill="#807d5a"/><path d="M240.1772,174.67244l-0.21874,-0.24509l2.0724,-7.36045l0.18139,0.08526z" fill="#6e6e73"/><path d="M241.72515,167.75269l0.43572,0.16038l-0.52452,1.71899l-0.40795,-0.17263z" fill="#ddcb1e"/></g></g><g data-paper-data="{&quot;index&quot;:null}" stroke-width="0" stroke-linecap="butt" stroke-linejoin="miter"><g data-paper-data="{&quot;index&quot;:null}"><path d="M223.9162,175.19028c-0.63182,-1.20913 -0.16021,-2.70339 1.05337,-3.33754c1.21359,-0.63415 2.70957,-0.16803 3.34139,1.04109c0.63182,1.20913 0.16021,2.70338 -1.05337,3.33753c-1.21358,0.63415 -2.70957,0.16804 -3.34139,-1.04108z" fill="#e0cb17" stroke="none"/><path d="M225.05286,175.51564c-0.39034,-0.747 -0.09898,-1.67016 0.65077,-2.06193c0.74975,-0.39178 1.67396,-0.10383 2.0643,0.64318c0.39033,0.747 0.09899,1.67017 -0.65076,2.06194c-0.74975,0.39178 -1.67397,0.10382 -2.06431,-0.64319z" fill="#e0cb17" stroke="#000000"/><path d="M227.44009,176.85106c-0.57992,0.30632 -1.72722,0.48558 -1.72722,0.48558l-0.15721,-0.90417c0,0 0.95489,0.08649 1.48653,-0.15405c0.53165,-0.24054 1.05963,-0.99792 1.05963,-0.99792l0.61206,0.38928c0,0 -0.61116,0.83127 -1.27378,1.18126z" fill="#dbded5" stroke="#000000"/></g><g data-paper-data="{&quot;index&quot;:null}" stroke="none"><path d="M236.58017,180.3309c-0.01408,-0.47127 -0.89519,-2.79359 0.26692,-3.35705c0.18036,-0.08746 2.15192,0.3466 2.84455,1.1656c0.94218,1.11407 0.6393,2.72675 0.6393,2.72675l-2.77008,1.42559c0,0 -0.96665,-1.48964 -0.98072,-1.9609z" fill="#e4dcaa"/><path d="M236.55629,177.51811c0.22874,-0.11953 0.61529,0.16846 0.86339,0.64325c0.24809,0.47479 0.26378,0.95658 0.03504,1.0761c-0.22873,0.11953 -0.61528,-0.16847 -0.86337,-0.64326c-0.2481,-0.4748 -0.26379,-0.95657 -0.03506,-1.07609z" fill="#000000"/><path d="M238.7074,184.15708c-0.52318,-0.68288 -1.15629,-1.87646 -1.15629,-1.87646c0,0 0.34208,-0.56828 0.61524,-0.83227c0.27316,-0.264 0.78405,-0.5891 0.78405,-0.5891l1.45471,0.12541c0,0 1.56665,2.55247 1.7553,2.88564c0.37991,0.671 -0.61958,1.84134 -0.61958,1.84134l-1.26997,0.11898c0,0 -1.0403,-0.99063 -1.56349,-1.67351z" fill="#dfcc17"/><path d="M241.44222,185.70817c0,0 -0.39236,-2.9031 -0.15408,-3.02761c0.23828,-0.1245 1.48685,0.53308 1.59601,0.74198c0.10916,0.2089 0.42633,1.79094 0.18805,1.91546c-0.23827,0.1245 -1.62997,0.37019 -1.62997,0.37019z" fill="#807d5a"/><path d="M228.41959,174.85657l0.05972,-0.25009l9.03759,3.81387l0.07062,0.41546z" fill="#6e6e73"/><path d="M231.52013,175.71707l-0.15347,0.54715l-2.14312,-0.85008l0.18799,-0.56517z" fill="#ddcb1e"/></g></g><path d="M243.61391,171.47307c0,0 -0.91004,-0.65545 -1.08826,-1.27514c-0.1782,-0.61967 -0.34432,-2.02309 0.17179,-2.66889c0.68775,-0.86059 0.81706,1.46802 0.81706,1.46802c0,0 0.23413,-0.34351 0.45766,-0.90202c0.39566,-0.98858 0.74377,-2.02512 1.04561,-2.03674c0.54132,-0.02083 -0.01154,2.20302 -0.01154,2.20302c0,0 1.09386,-2.30174 1.46395,-2.16783c0.35785,0.12948 -0.28715,2.56759 -0.28715,2.56759c0,0 0.93632,-1.64264 1.37888,-1.71019c0.4154,0.24844 -0.51648,2.31963 -0.51648,2.31963c0,0 1.10874,-1.30531 1.50354,-1.26034c0.23415,0.17304 -0.41992,1.44976 -0.92161,2.29221c-0.50169,0.84244 -0.83537,1.07584 -1.06352,1.33878c-0.3513,0.40486 -0.69337,0.46519 -0.69337,0.46519l-2.25662,-0.63325z" data-paper-data="{&quot;index&quot;:null}" fill="#ffffff" stroke="none" stroke-width="0" stroke-linecap="butt" stroke-linejoin="miter"/><g data-paper-data="{&quot;index&quot;:null}" stroke="none" stroke-width="0" stroke-linecap="butt" stroke-linejoin="miter"><path d="M241.78434,177.83978c0.14467,-1.17375 0.5154,-2.50298 0.79659,-3.37033c0.40201,-1.24007 0.7237,-2.35636 0.7237,-2.35636c0,0 0.54208,-0.0408 0.79429,0.1634c0.25222,0.20421 0.35858,0.23616 0.35858,0.23616c0,0 -0.70395,1.92932 -0.86613,2.4296c-0.26604,0.82061 -0.56063,1.87441 -0.87222,3.08619c-0.07808,0.30363 -0.28187,0.439 -0.59475,0.37205c-0.21021,-0.045 -0.38797,-0.17208 -0.34006,-0.56074z" data-paper-data="{&quot;index&quot;:null}" fill="#fff9fb"/><g data-paper-data="{&quot;index&quot;:null}"><path d="M245.30186,173.00266c-0.54053,0.91732 -1.22306,0.65799 -1.96064,0.20737c-0.73757,-0.45061 -1.26536,-0.93068 -0.71034,-1.83916c0.55501,-0.90846 1.22306,-0.65799 1.96064,-0.20737c0.73757,0.45061 1.25074,0.92206 0.71034,1.83916z" fill="#fed000"/><path d="M245.70639,173.24981c-0.43404,0.75288 -1.28918,0.35909 -2.25018,-0.22802c-0.961,-0.5871 -1.68281,-1.15673 -1.22989,-1.89807c0.45291,-0.74135 1.28918,-0.35909 2.25018,0.22802c0.961,0.5871 1.66382,1.14537 1.22989,1.89807z" fill="#e68b9c"/></g></g><path d="M242.49107,184.28939c0,0 -0.81997,1.96121 -1.48779,2.44298c-0.7257,0.52352 -2.88097,1.05474 -2.88097,1.05474l2.24335,-1.75577l0.99929,-1.03075z" data-paper-data="{&quot;index&quot;:null}" fill="#f79db4" stroke="none" stroke-width="0" stroke-linecap="butt" stroke-linejoin="miter"/><path d="M246.46786,183.07036c0,0 -0.95585,2.7175 -2.91048,3.58101c-2.38407,0.834 -3.83167,-0.25222 -3.83167,-0.25222l0.11743,-0.50931c0,0 1.15434,1.41903 3.563,0.39978c2.06079,-0.91828 2.76525,-3.57261 2.76525,-3.57261z" data-paper-data="{&quot;index&quot;:null}" fill="#ee3377" stroke="none" stroke-width="0" stroke-linecap="butt" stroke-linejoin="miter"/><path d="M243.43216,179.90329l2.78706,2.88099c0,0 -1.26361,3.26074 -3.1192,3.79395c-2.42984,0.6538 -3.26317,-0.54206 -3.26317,-0.54206c0,0 0.2522,-1.28113 0.31391,-2.1637c0.06171,-0.88257 0.02847,-2.73322 0.02847,-2.73322z" data-paper-data="{&quot;index&quot;:null}" fill="#fcf4f4" stroke="none" stroke-width="0" stroke-linecap="butt" stroke-linejoin="miter"/><path d="M245.93785,182.51337c0,0 -0.77879,2.46835 -2.73341,3.33186c-2.80038,0.97903 -3.24485,-0.21428 -3.24485,-0.21428l-0.00055,-0.16788c0,0 0.76649,1.14761 3.17515,0.12834c2.156,-0.95881 2.6812,-3.20455 2.6812,-3.20455z" data-paper-data="{&quot;index&quot;:null}" fill="#ee3377" stroke="none" stroke-width="0" stroke-linecap="butt" stroke-linejoin="miter"/><path d="M241.04502,181.31075l0.18712,-0.67372l1.46153,-0.58984l0.51896,0.34668z" data-paper-data="{&quot;index&quot;:null}" fill="#aa4455" stroke="none" stroke-width="0" stroke-linecap="butt" stroke-linejoin="miter"/><path d="M242.46681,178.43107c0.31807,0.53626 0.64123,1.53548 0.64123,1.53548l-3.15348,1.20548l-0.14879,-0.99958l-0.648,-2.16674c0,0 0.70973,-0.14436 1.15098,-0.28329c0.44126,-0.13894 1.07532,-0.41764 1.07532,-0.41764c0,0 0.7647,0.59002 1.08275,1.12627z" data-paper-data="{&quot;index&quot;:null}" fill="#6d3b75" stroke="none" stroke-width="0" stroke-linecap="butt" stroke-linejoin="miter"/><g data-paper-data="{&quot;index&quot;:null}" stroke="none" stroke-width="0" stroke-linecap="butt" stroke-linejoin="miter"><path d="M245.60545,184.15708l-2.79891,-4.3159l0.55901,-0.13968c0,0 1.34831,0.7567 2.10441,1.38524c0.7561,0.62854 1.57743,1.67542 1.57743,1.67542c0,0 -0.22352,0.74037 -1.04163,1.23697c-0.19968,0.12122 -0.4003,0.15795 -0.4003,0.15795z" fill="#fab5b7"/><path d="M246.14118,183.85734c0.58092,-0.37466 0.89734,-1.14949 0.89734,-1.14949l0.24209,0.33331c0,0 -0.34506,0.84174 -0.93639,1.22914c-0.65963,0.43214 -0.52957,0.28273 -0.52957,0.28273l-0.19862,-0.35273c0,0 -0.1211,0.07382 0.52515,-0.34297z" fill="#fed000"/></g><path d="M243.15566,180.53112c0,0 -0.90282,-0.7502 -1.15676,-1.21449c-0.04547,-0.08312 -0.12636,-0.25368 -0.12636,-0.25368c0,0 -0.01684,-0.30522 0.46446,-1.02039c0.10545,-0.15671 -0.00548,-0.2086 -0.04226,-0.42643c-0.01161,-0.06881 -0.32351,-0.30165 -0.32351,-0.30165c0,0 0.10628,-0.10026 0.20609,-0.03465c0.29903,0.49652 0.67467,1.60561 0.67467,1.60561l0.7167,0.9637z" data-paper-data="{&quot;index&quot;:null}" fill="#efe6e6" stroke="none" stroke-width="0" stroke-linecap="butt" stroke-linejoin="miter"/><path d="M239.62476,181.87382l0.12138,-1.68218c0,0 -0.80321,-1.71436 -0.63839,-2.14261c0.0429,-0.11148 0.58105,-0.16399 0.58105,-0.16399c0,0 0.1816,-0.0233 0.28425,0.27249c0.021,0.06052 -0.07265,0.391 -0.04202,0.45369c0.09699,0.19846 0.21177,0.28535 0.38877,0.35127c0.80782,0.30088 0.97196,0.55878 0.97196,0.55878c0,0 0.03361,0.18577 0.04509,0.2798c0.06407,0.52531 -0.1613,1.60236 -0.1613,1.60236z" data-paper-data="{&quot;index&quot;:null}" fill="#efe6e6" stroke="none" stroke-width="0" stroke-linecap="butt" stroke-linejoin="miter"/><path d="M239.38069,178.24537l0.14945,-0.35964c0,0 0.66594,-0.17236 0.7437,-0.17121c0.13624,0.04073 0.38263,0.39088 0.5711,0.71582c0.15474,0.26678 0.50438,1.04507 0.50438,1.04507c0,0 -0.17502,-0.10096 -0.35877,-0.18425c-0.26577,-0.12047 -0.54159,-0.21734 -0.75052,-0.35825c-0.36744,-0.26145 -0.25313,-0.88534 -0.25313,-0.88534z" data-paper-data="{&quot;index&quot;:null}" fill="#fd4275" stroke="none" stroke-width="0" stroke-linecap="butt" stroke-linejoin="miter"/><path d="M241.18679,180.97896c0,0 0.19073,-0.96054 -0.01166,-1.40701c-0.13718,-0.30264 -1.35445,-0.71614 -1.35445,-0.71614l0.11903,-0.15562c0,0 1.23583,0.52333 1.35746,0.80181c0.23037,0.5274 0.03472,1.4496 0.03472,1.4496z" data-paper-data="{&quot;index&quot;:null}" fill="#fed000" stroke="none" stroke-width="0" stroke-linecap="butt" stroke-linejoin="miter"/><path d="M239.88469,178.73263l0.04885,-0.58051l-0.71097,0.2469l0.12959,-0.45478l0.18916,-0.02312l-0.12771,0.26989l0.63665,-0.19946l0.00793,0.65241l1.10957,0.54786c0,0 0.11474,0.10954 0.13175,0.17049c0.01701,0.06095 0.03707,0.28654 0.03707,0.28654c0,0 -0.06716,-0.15271 -0.19892,-0.28c-0.12868,-0.1243 -0.32079,-0.22261 -0.4245,-0.27531c-0.24461,-0.12429 -0.82849,-0.36092 -0.82849,-0.36092z" data-paper-data="{&quot;index&quot;:null}" fill="#fff9f9" stroke="none" stroke-width="0" stroke-linecap="butt" stroke-linejoin="miter"/><path d="M240.99787,178.06437l-0.50561,-0.16157c0,0 -0.05969,-0.06867 -0.102,-0.10412c-0.04229,-0.03544 -0.09481,-0.0879 -0.09481,-0.0879c0,0 0.35846,-0.12909 0.5381,-0.19936c0.18238,-0.07133 0.54809,-0.22551 0.54809,-0.22551z" data-paper-data="{&quot;index&quot;:null}" fill="#fff9f9" stroke="none" stroke-width="0" stroke-linecap="butt" stroke-linejoin="miter"/><path d="M240.88922,177.83013l-0.49562,-0.15837l0.71705,-0.2728z" data-paper-data="{&quot;index&quot;:null}" fill="#fd4275" stroke="none" stroke-width="0" stroke-linecap="butt" stroke-linejoin="miter"/><path d="M241.9526,177.27632c0,0 0.43768,0.19661 0.33675,0.63614c-0.06253,0.24413 -0.14205,0.69351 -0.26067,0.96011c-0.082,0.18433 -0.14573,0.37605 -0.14573,0.37605c0,0 -0.25577,-0.814 -0.31736,-1.11619c-0.07501,-0.36808 -0.22347,-0.74143 -0.14872,-0.86237c0.05735,-0.05251 0.42433,-0.27237 0.42433,-0.27237l0.64884,-0.02312z" data-paper-data="{&quot;index&quot;:null}" fill="#fd4275" stroke="none" stroke-width="0" stroke-linecap="butt" stroke-linejoin="miter"/><path d="M242.8586,180.34725c0,0 -0.75891,-0.55928 -0.93712,-1.1065c-0.0941,-0.28897 0.48187,-1.50115 0.48187,-1.50115l0.05049,0.04662c0,0 -0.4932,1.10838 -0.39468,1.42572c0.14535,0.46814 0.92608,1.05935 0.92608,1.05935z" data-paper-data="{&quot;index&quot;:null}" fill="#fed000" stroke="none" stroke-width="0" stroke-linecap="butt" stroke-linejoin="miter"/><path d="M242.46601,177.72729c0,0 -0.27918,0.56479 -0.37943,0.82019c-0.04249,0.10828 -0.12076,0.30939 -0.13435,0.48779c-0.01391,0.18267 0.03734,0.34143 0.03734,0.34143c0,0 -0.13488,-0.18194 -0.16268,-0.2388c-0.0278,-0.05684 -0.0148,-0.21496 -0.0148,-0.21496l0.46532,-1.14663l-0.42752,-0.4929l0.60836,-0.2739l-0.67714,0.0217l0.35442,-0.25945l0.6213,0.152l-0.71301,0.40212l0.42219,0.40142z" data-paper-data="{&quot;index&quot;:null}" fill="#fff9f9" stroke="none" stroke-width="0" stroke-linecap="butt" stroke-linejoin="miter"/><g stroke="none" stroke-linecap="butt" stroke-linejoin="miter"><path d="M243.71779,183.27607c0,0 1.27448,0.7638 1.96129,1.32591c0.10942,0.08956 0.36724,1.15583 0.41128,1.64851c0.02405,0.26909 0.07211,0.77017 -0.32988,0.98101c-0.10249,0.05374 -0.66663,0.04066 -0.66663,0.04066l-0.18485,0.39665c0,0 -0.23114,0.12049 -0.38872,0.11167c-0.15758,-0.00882 -0.42214,-0.13702 -0.42214,-0.13702c0,0 -0.155,0.08979 -0.25076,0.17522c-0.31253,0.27883 -0.5986,0.0097 -0.5986,0.0097c0,0 -0.20356,0.22824 -0.41945,0.27827c-0.34225,0.07927 -0.78137,-0.02062 -0.9891,-0.14927c-0.3529,-0.2185 -1.16524,-1.04244 -1.0405,-1.40828c0.19428,-0.56981 0.86338,-0.2502 0.86338,-0.2502c0,0 -0.35411,-0.51915 -0.37698,-0.89883c-0.03524,-0.58464 0.1857,-0.89326 0.1857,-0.89326l2.24595,-1.23075z" data-paper-data="{&quot;index&quot;:null}" fill="#f44a7d" stroke-width="0"/><g data-paper-data="{&quot;index&quot;:null}"><path d="M241.33731,180.743c0.6746,1.11549 1.30816,2.08923 1.30816,2.08923c0,0 -0.32389,0.43659 -0.64334,0.49367c-0.31947,0.05707 -0.41322,0.1166 -0.41322,0.1166c0,0 -0.99819,-1.79485 -1.27034,-2.24487c-0.4464,-0.73818 0.5469,-1.23485 1.01873,-0.45463z" data-paper-data="{&quot;index&quot;:null}" fill="#4c2b5c" stroke-width="0"/><g data-paper-data="{&quot;index&quot;:null}" fill="none" stroke-width="1" font-family="sans-serif" font-weight="normal" font-size="12" text-anchor="start"/></g><path d="M241.06482,184.23377c-0.48089,-0.94994 0.10567,-1.3848 0.88295,-1.76281c0.7773,-0.37802 1.46624,-0.56348 1.93183,0.39389c0.46561,0.95737 -0.10567,1.38481 -0.88296,1.76281c-0.7773,0.37802 -1.45106,0.55583 -1.93183,-0.39389z" data-paper-data="{&quot;index&quot;:null}" fill="#fed000" stroke-width="0"/><path d="M240.63851,184.44106c-0.39983,-0.77159 0.39302,-1.27924 1.40574,-1.77177c1.01275,-0.49252 1.88174,-0.79306 2.26169,-0.0118c0.37994,0.78126 -0.39302,1.27924 -1.40574,1.77177c-1.01275,0.49252 -1.86193,0.78319 -2.26169,0.0118z" data-paper-data="{&quot;index&quot;:null}" fill="#e68b9c" stroke-width="0"/><path d="M242.78946,186.81365l0.16738,-0.48433l0.48433,0.16737l-0.16738,0.48434z" data-paper-data="{&quot;index&quot;:null}" fill="#baba3e" stroke-width="NaN"/><path d="M243.71,186.46955l0.16738,-0.48433l0.48433,0.16737l-0.16737,0.48434z" data-paper-data="{&quot;index&quot;:null}" fill="#baba3e" stroke-width="NaN"/><path d="M244.71431,186.08473l0.16737,-0.48434l0.48433,0.16738l-0.16737,0.48433z" data-paper-data="{&quot;index&quot;:null}" fill="#baba3e" stroke-width="NaN"/><path d="M246.00493,186.00098l-0.19593,-0.31531l0.02879,-0.38043l0.55702,0.24275z" data-paper-data="{&quot;index&quot;:null}" fill="#baba3e" stroke-width="0"/></g><path d="M241.13509,180.60831c0,0 -0.67929,0.82075 -0.81652,0.64069c-0.4464,-0.73818 -0.96721,-2.07449 -0.96721,-2.07449c0,0 -0.13886,-0.67392 0.15294,-0.79052c0.2918,-0.1166 0.50166,0.16968 0.70538,0.44754c0.20372,0.27787 0.92541,1.77678 0.92541,1.77678z" data-paper-data="{&quot;index&quot;:null}" fill="#edbb82" stroke="none" stroke-width="0" stroke-linecap="butt" stroke-linejoin="miter"/><path d="M237.74797,172.4004c0,0 -1.33886,0.04499 -1.85911,0.90016c-0.8409,1.38226 0.75124,2.68295 0.75124,2.68295c0,0 -1.17448,-0.76082 -1.16053,-1.80064c0.0092,-0.68644 0.1166,-1.04097 0.70294,-1.44079c0.65702,-0.44801 1.56545,-0.3417 1.56545,-0.3417z" data-paper-data="{&quot;index&quot;:null}" fill="#000000" stroke="none" stroke-width="0" stroke-linecap="butt" stroke-linejoin="miter"/><path d="M233.70616,169.39153c2.52499,-2.18356 6.0985,-2.18834 7.98166,-0.01072c1.88317,2.17763 1.36286,5.71306 -1.16213,7.89661c-2.52499,2.18355 -6.09849,2.18834 -7.98165,0.01072c-1.88317,-2.17763 -1.36288,-5.71307 1.16211,-7.89661z" data-paper-data="{&quot;index&quot;:null}" fill="#f79eb4" stroke="none" stroke-width="0" stroke-linecap="butt" stroke-linejoin="miter"/><path d="M242.67859,170.83191c-0.00579,-0.01629 0.71047,0.76635 1.01846,2.27678c0.50319,2.43283 -0.57837,3.44444 -0.57837,3.44444l-0.38223,-0.87407c0,0 0.04616,-2.3195 -0.06966,-3.0753c-0.11583,-0.75578 -0.73043,-1.76849 -0.73011,-1.76783" data-paper-data="{&quot;index&quot;:null}" fill="#f79eb4" stroke="#f89db5" stroke-width="0" stroke-linecap="butt" stroke-linejoin="round"/><g fill="none" stroke="#e569c4" stroke-width="0.5" stroke-linecap="round" stroke-linejoin="miter"><path d="M239.9847,172.32212l3.03877,0.25095"/><path d="M241.28062,173.95568l0.44693,-3.01618" data-paper-data="{&quot;index&quot;:null}"/></g><g data-paper-data="{&quot;index&quot;:null}" fill="#ffd5c5" stroke="none" stroke-width="1" stroke-linecap="round" stroke-linejoin="round"><path d="M242.8057,173.2511c0.43874,0.32743 0.39406,0.97483 0.29623,1.46641c-0.01602,0.08042 -0.14311,0.7088 -0.59106,1.46512c-0.56209,0.949 -1.73598,1.70228 -2.06657,1.92626c-0.39429,0.26706 -1.37638,0.41822 -1.57105,0.39689c-1.40109,-0.15352 -1.18418,-1.001 -1.15888,-1.12663c0.01209,-0.0599 0.15066,-0.31328 0.46225,-0.43954c0.30371,-0.12306 1.25238,-0.32317 1.46513,-0.52361c0.22858,-0.21535 1.16254,-1.80336 1.8496,-2.39594c0.14409,-0.12165 0.37305,-0.23636 0.56537,-0.24582c0.25033,-0.01226 0.66732,0.01821 0.70106,-0.34886c0.00543,-0.05942 0.00003,-0.20995 0.04788,-0.17429z"/><path d=""/></g><g data-paper-data="{&quot;index&quot;:null}" fill="#000000" stroke="none" stroke-width="1" stroke-linecap="round" stroke-linejoin="round"><path d="M241.557,174.34826c0.0422,-0.17934 0.48064,-0.48113 0.59342,-0.49021c0.19509,-0.01571 0.07025,0.41848 -0.01772,0.48484c-0.2041,0.12951 -0.63121,0.24134 -0.57569,0.00537z"/><path d=""/></g><path d="M236.03752,175.55321c-0.0192,-0.05348 1.16454,1.49916 1.7569,2.15092c1.11553,1.22733 2.07785,1.75465 2.07785,1.75465c0,0 -0.42393,0.0567 -0.53553,0.05868c-0.34475,0.00616 -0.66462,-0.0065 -1.0083,-0.05963c-0.80834,-0.12501 -1.56744,-0.4559 -2.24826,-0.90427c-0.45373,-0.29881 -2.07227,-1.9258 -2.064,-1.95113" data-paper-data="{&quot;index&quot;:null}" fill="#f79eb4" stroke="#f89db5" stroke-width="0" stroke-linecap="butt" stroke-linejoin="round"/><path d="M233.92404,176.64049c-0.00149,0.02065 2.05366,1.94627 2.67348,2.4391c0.61981,0.49283 1.72921,1.0615 1.72921,1.0615c0,0 -0.3526,0.22103 -1.19043,0.11131c-0.73981,-0.0969 -1.13566,-0.12785 -2.03582,-0.73383c-1.16806,-0.78634 -2.46655,-2.13087 -2.56574,-2.52033" data-paper-data="{&quot;index&quot;:null}" fill="#f79eb4" stroke="#f89db5" stroke-width="0" stroke-linecap="butt" stroke-linejoin="round"/><g data-paper-data="{&quot;index&quot;:null}" fill="#ff4488" stroke="none" stroke-width="1" stroke-linecap="round" stroke-linejoin="round"><path d="M238.18874,168.81295c-0.10208,0.01435 -2.68125,0.40592 -3.70013,1.65082c-0.80307,0.98118 -0.9627,1.80441 -1.23988,3.22395c-0.21378,1.09476 0.40186,2.63702 0.38207,2.66596c-0.00142,0.00207 -2.43142,-3.32189 -0.26027,-5.99922c1.77728,-2.14214 4.61929,-2.23385 4.7661,-2.20481"/><path d=""/></g><g data-paper-data="{&quot;index&quot;:null}" stroke="none" stroke-width="1" stroke-linecap="round" stroke-linejoin="round"><g fill="#f79eb4"><path d="M233.40067,174.22602c-0.25173,-0.25669 -0.782,-0.61667 -1.22638,-1.12651c-0.44437,-0.50985 -0.96807,-1.20387 -0.98952,-1.41584c-0.02805,-0.27711 0.69656,-0.61198 1.53057,-0.8439c0.83402,-0.23191 2.07144,-0.28082 2.20454,-0.19475"/></g><g fill="#ffd5c5"><path d="M233.54895,173.53c-0.06348,-0.05731 -0.40836,-0.27899 -0.7468,-0.64773c-0.33844,-0.36874 -0.77922,-0.98419 -0.78088,-1.01677c-0.00674,-0.13207 0.82719,-0.47682 1.28418,-0.59604c0.457,-0.11922 1.02584,-0.10985 1.20627,-0.05363"/></g></g><g data-paper-data="{&quot;index&quot;:null}" stroke="none" stroke-width="0" stroke-linecap="butt" stroke-linejoin="miter"><g data-paper-data="{&quot;index&quot;:null}"><path d="M241.46495,164.31778c0,0 0.23058,0.39726 0.40735,1.52439c0.35241,2.24717 -0.67423,2.9296 -0.67423,2.9296c0,0 -0.78891,-0.42339 -0.84011,-1.53567c-0.05246,-1.13971 1.10697,-2.91833 1.10697,-2.91833z" data-paper-data="{&quot;index&quot;:null}" fill="#ce204f"/><path d="M240.63915,166.15281c-0.43917,1.053 0.51032,2.57901 0.51032,2.57901c0,0 -1.86521,-0.37314 -1.03339,-2.49021c0.41723,-1.06188 1.37454,-1.94636 1.37454,-1.94636c0,0 -0.4123,0.80457 -0.85148,1.85756z" fill="#ff4488"/></g><g data-paper-data="{&quot;index&quot;:null}"><path d="M241.31472,168.82632c0,0 0.43462,-0.96925 0.93667,-1.38716c0.99379,-0.82724 2.63441,-0.55117 2.63441,-0.55117c0,0 -0.89959,0.995 -1.49247,1.61579c-0.80908,0.84715 -2.07862,0.32253 -2.07862,0.32253z" fill="#f5e4ec"/><path d="M242.362,167.52149c0.82816,-0.68938 2.19535,-0.45933 2.19535,-0.45933c0,0 -0.74965,0.82918 -1.24371,1.3465c-0.67425,0.70597 -1.73218,0.26878 -1.73218,0.26878c0,0 0.36218,-0.8077 0.78055,-1.15595z" fill="#e2c1c1"/></g></g><g data-paper-data="{&quot;index&quot;:null}" fill="#f79eb4" stroke="none" stroke-width="1" stroke-linecap="round" stroke-linejoin="round"><path d="M237.19589,167.96755c0.16532,-0.25982 0.35648,-0.51729 0.82935,-0.98602c0.47286,-0.46873 1.05415,-1.05949 1.2862,-1.1111c0.04754,-0.01056 0.55745,0.40041 0.82064,0.8367c0.41086,0.68101 0.60427,1.60926 0.60622,1.62454"/><path d=""/></g><path d="M233.98014,176.3951c0,0 -0.29274,0.20496 -0.36882,0.18552c-0.08425,-0.02153 -0.29612,-0.40939 -0.27193,-0.57943c0.02421,-0.17004 0.34211,-0.27687 0.34211,-0.27687z" data-paper-data="{&quot;index&quot;:null}" fill-opacity="0.01176" fill="#f7bf74" stroke="none" stroke-width="0" stroke-linecap="butt" stroke-linejoin="miter"/><path d="M236.96607,177.97005c0.5003,-0.23959 0.89958,-0.41114 0.94197,-0.32262c0.03252,0.06791 -0.24752,0.37594 -0.49581,0.50299c-0.88596,0.45336 -1.77397,0.37847 -2.23685,0.16616c-0.393,-0.18026 -0.61924,-0.314 -0.47761,-0.46809c0.10708,-0.11648 0.33379,-0.14143 0.81208,0.27729c0.38779,0.33948 1.17055,-0.01892 1.45623,-0.15573z" data-paper-data="{&quot;index&quot;:null}" fill-opacity="0.01176" fill="#212121" stroke="none" stroke-width="0" stroke-linecap="butt" stroke-linejoin="miter"/><path d="M236.52267,178.43939l-0.10012,-0.20905l0.08362,-0.04005l0.10012,0.20905z" data-paper-data="{&quot;index&quot;:null}" fill-opacity="0.01176" fill="#b3916f" stroke="none" stroke-width="0" stroke-linecap="butt" stroke-linejoin="miter"/><path d="M235.09428,178.10407c0.09435,0.05607 0.27619,0.21895 0.27619,0.21895c0,0 -0.29216,0.00088 -0.41006,-0.06918c-0.1179,-0.07006 -0.1162,-0.27843 -0.1162,-0.27843c0,0 0.15572,0.07259 0.25008,0.12866z" data-paper-data="{&quot;index&quot;:null}" fill-opacity="0.01176" fill="#cc7889" stroke="none" stroke-width="0" stroke-linecap="butt" stroke-linejoin="miter"/><g data-paper-data="{&quot;index&quot;:null}" stroke="none" stroke-width="0" stroke-linecap="butt" stroke-linejoin="miter"><g data-paper-data="{&quot;index&quot;:null}"><path d="M228.53013,174.65902c0,0 1.91719,-0.91217 3.03977,-0.70836c1.09554,0.19891 1.41007,1.03718 1.41007,1.03718c0,0 -0.8131,0.92659 -2.9933,0.27798c-1.09353,-0.32534 -1.45654,-0.60678 -1.45654,-0.60678z" data-paper-data="{&quot;index&quot;:null}" fill-opacity="0.01176" fill="#cf214f"/><path d="M228.50436,174.68148c0,0 1.00412,-0.83096 2.11212,-1.10301c2.209,-0.54239 2.33035,1.35589 2.33035,1.35589c0,0 -1.38593,-1.14432 -2.48804,-0.84932c-1.10211,0.295 -1.95443,0.59644 -1.95443,0.59644z" fill-opacity="0.01176" fill="#ff4589"/></g><g data-paper-data="{&quot;index&quot;:null}"><path d="M233.01847,175.11071c0,0 0.35082,1.32811 -0.59655,2.01714c-0.69424,0.50489 -1.8002,1.26393 -1.8002,1.26393c0,0 -0.05506,-1.66277 0.89719,-2.53751c0.48108,-0.44189 1.49958,-0.74354 1.49958,-0.74354z" fill-opacity="0.01176" fill="#f5e4ec"/><path d="M231.58581,175.97484c0.40088,-0.36825 1.24963,-0.61961 1.24963,-0.61961c0,0 0.29237,1.10675 -0.49712,1.68094c-0.57853,0.42075 -1.50018,1.05327 -1.50018,1.05327c0,0 -0.04589,-1.38565 0.74766,-2.1146z" fill-opacity="0.01176" fill="#e3c1c1"/></g></g><path d="M239.47738,169.98197c0.00386,0.02899 -0.14431,-1.30407 1.15816,-2.59636c0.23367,-0.22935 1.65903,-0.36897 2.4339,-0.20497c0.74735,0.07956 1.66157,0.8911 1.65171,0.90404c-0.01421,0.01852 -1.90792,-0.17343 -2.78803,0.50634c-0.48056,0.37116 -1.37985,1.78015 -1.37478,1.8183" data-paper-data="{&quot;index&quot;:null}" fill="#f79eb4" stroke="#f89db5" stroke-width="0" stroke-linecap="butt" stroke-linejoin="round"/><path d="M239.06699,170.72441c-0.06611,-0.05114 -1.00394,-1.55058 -1.07304,-1.92247c-0.06911,-0.3719 -0.16462,-0.56201 0.12436,-1.09393c1.15301,-1.70616 3.10058,-2.27297 3.10058,-2.27297c0,0 -1.00903,1.23229 -1.27978,1.94393c-0.37561,0.98733 -0.47211,2.46474 -0.45524,2.59697" data-paper-data="{&quot;index&quot;:null}" fill="#f79eb4" stroke="#f89db5" stroke-width="0" stroke-linecap="butt" stroke-linejoin="round"/><path d="M240.60198,170.51008c-0.04661,0.01913 0.23279,-1.0909 1.10703,-1.56368c0.25114,-0.13582 1.71443,0.16064 1.83346,0.25359c0.53326,0.29713 1.53611,1.62303 1.53597,1.62106c-0.0029,-0.04265 -1.17609,-0.38414 -2.24841,-0.27138c-0.36041,0.04001 -1.29838,0.38711 -1.43037,0.44119" data-paper-data="{&quot;index&quot;:null}" fill="#f79eb4" stroke="#f89db5" stroke-width="0" stroke-linecap="butt" stroke-linejoin="round"/><path d="M239.21192,178.44448l0.0184,-0.08609l0.69459,-0.22323l-0.00424,0.05849z" data-paper-data="{&quot;index&quot;:null}" fill="#fed000" stroke="none" stroke-width="0" stroke-linecap="butt" stroke-linejoin="miter"/><g fill="none" stroke="#e569c4" stroke-width="0.5" stroke-linecap="round" stroke-linejoin="miter"><path d="M239.92441,175.27419l-3.03876,-0.25095"/><path d="M238.6285,173.64064l-0.44693,3.01618" data-paper-data="{&quot;index&quot;:null}"/></g><path d="M236.97038,177.57189c-0.4046,0.17937 -1.17539,0.2098 -1.17539,0.2098c0,0 0.70913,-0.19914 1.10583,-0.44101c0.39669,-0.24187 0.67084,-0.64812 0.67084,-0.64812l0.14667,0.32969c0,0 -0.34335,0.37026 -0.74795,0.54964z" fill="#000000" stroke="none" stroke-width="0" stroke-linecap="butt" stroke-linejoin="miter"/><path d="M237.32444,178.12642c-0.29113,0.33334 -1.06818,0.81262 -1.06818,0.81262c0,0 0.77516,-0.58008 1.03276,-0.96674c0.2576,-0.38666 0.36426,-1.08945 0.36426,-1.08945l0.2564,0.23797c0,0 -0.29411,0.67225 -0.58525,1.0056z" fill="#000000" stroke="none" stroke-width="0" stroke-linecap="butt" stroke-linejoin="miter"/><path d="M242.76192,173.12504l-0.28133,-0.22597c0,0 0.46277,-0.16136 0.79789,-0.48317c0.33512,-0.32181 0.70869,-0.95661 0.70869,-0.95661c0,0 -0.22618,0.73749 -0.50289,1.08289c-0.27672,0.3454 -0.72236,0.58286 -0.72236,0.58286z" data-paper-data="{&quot;index&quot;:null}" fill="#000000" stroke="none" stroke-width="0" stroke-linecap="butt" stroke-linejoin="miter"/><path d="M243.93007,173.02605c-0.39662,0.1964 -1.12168,0.30916 -1.12168,0.30916l-0.16463,-0.30865c0,0 0.70673,0.07627 1.14634,-0.07409c0.43961,-0.15036 1.19834,-0.75176 1.19834,-0.75176c0,0 -0.66176,0.62896 -1.05837,0.82535z" data-paper-data="{&quot;index&quot;:null}" fill="#000000" stroke="none" stroke-width="0" stroke-linecap="butt" stroke-linejoin="miter"/></g></g></svg>