<svg version="1.1" xmlns="http://www.w3.org/2000/svg" xmlns:xlink="http://www.w3.org/1999/xlink" width="223.36539" height="24.30891" viewBox="0,0,223.36539,24.30891"><g transform="translate(-128.3173,-167.84554)"><g data-paper-data="{&quot;isPaintingLayer&quot;:true}" fill-rule="nonzero" stroke="none" stroke-width="0.26458" stroke-linecap="butt" stroke-linejoin="miter" stroke-miterlimit="10" stroke-dasharray="" stroke-dashoffset="0" style="mix-blend-mode: normal"><g fill="#ff0000"><path d="M128.3173,191.58912v-23.74356h8.78782l5.68623,10.59981v-10.59981h7.75396v23.74356h-8.78782l-5.68621,-10.26062v10.26062z"/><path d="M153.12993,180.00001c0,-3.76881 1.03387,-6.73678 3.10158,-8.90385c2.06771,-2.16707 4.91084,-3.2506 8.52933,-3.2506c3.61852,0 6.46162,1.08353 8.52933,3.2506c2.06771,2.16707 3.10158,5.13505 3.10158,8.90385c0,3.2035 -1.03387,6.0301 -3.10158,8.47983c-2.06771,2.44976 -4.91084,3.67462 -8.52933,3.67462c-3.61852,0 -6.46162,-1.22486 -8.52933,-3.67462c-2.06771,-2.44973 -3.10158,-5.27633 -3.10158,-8.47983zM164.50238,175.19474c-1.72311,1.13065 -3.01543,2.35554 -3.87698,3.67462c-0.86155,1.13065 -1.03386,2.54395 -0.51692,4.23993l0.51692,0.56531c0.86155,1.31908 2.32618,1.69598 4.39389,1.13065c1.72311,-1.13065 3.01543,-2.35551 3.87698,-3.67459c1.03386,-1.50752 1.03386,-3.2035 0,-5.08792l-0.51692,-0.56531c-1.03386,-0.75377 -2.32618,-0.84799 -3.87697,-0.28268z"/><path d="M192.20982,180.00001c0,-3.76881 1.03387,-6.73678 3.10158,-8.90385c2.06771,-2.16707 4.91084,-3.2506 8.52933,-3.2506c3.10158,0 5.25545,0.09422 6.46162,0.28265l-2.32618,7.91452l-0.51692,-0.56531c-1.03386,-0.75377 -2.32618,-0.84799 -3.87698,-0.28268c-1.72311,1.13065 -3.01542,2.35554 -3.87697,3.67462c-0.86155,1.13065 -1.03387,2.54395 -0.51692,4.23993l0.51692,0.56531c0.86155,1.31908 2.32618,1.69598 4.39389,1.13065c1.72311,-1.13065 3.01542,-2.35551 3.87697,-3.67459l3.10158,9.89316c-1.20616,0.75377 -3.61852,1.13065 -7.23701,1.13065c-3.61852,0 -6.46162,-1.22486 -8.52933,-3.67462c-2.06771,-2.44973 -3.10158,-5.27633 -3.10158,-8.47983z"/><path d="M213.66241,180.00001c0,-3.76881 1.03387,-6.73678 3.10158,-8.90385c2.06771,-2.16707 4.91083,-3.2506 8.52933,-3.2506c3.61852,0 6.46162,1.08353 8.52933,3.2506c2.06771,2.16707 3.10158,5.13505 3.10158,8.90385c0,3.2035 -1.03387,6.0301 -3.10158,8.47983c-2.06771,2.44976 -4.91084,3.67462 -8.52933,3.67462c-3.61852,0 -6.46162,-1.22486 -8.52933,-3.67462c-2.06771,-2.44973 -3.10158,-5.27633 -3.10158,-8.47983zM225.03487,175.19474c-1.72311,1.13065 -3.01542,2.35554 -3.87697,3.67462c-0.86155,1.13065 -1.03387,2.54395 -0.51692,4.23993l0.51692,0.56531c0.86155,1.31908 2.32618,1.69598 4.39389,1.13065c1.72311,-1.13065 3.01542,-2.35551 3.87697,-3.67459c1.03386,-1.50752 1.03386,-3.2035 0,-5.08792l-0.51692,-0.56531c-1.03386,-0.75377 -2.32618,-0.84799 -3.87698,-0.28268z"/><path d="M241.57664,191.58912c-0.86155,-0.18844 -1.5508,-0.37687 -2.06771,-0.56531l1.03386,-5.65323l3.10158,0.28265c2.41233,0.18844 4.30774,0.18844 5.68623,0c0.68924,-0.3769 1.03386,-0.94221 1.03386,-1.69598c-0.1723,-0.75377 -1.72311,-1.13065 -4.65236,-1.13065c-2.58466,-0.37687 -4.39389,-1.4133 -5.42775,-3.10926c-0.51692,-1.31908 -0.7754,-2.82662 -0.7754,-4.5226c0,-2.63816 0.86155,-4.6168 2.58463,-5.93589c1.20616,-0.94221 3.36004,-1.4133 6.46162,-1.4133c3.10158,0 6.20315,0.28265 9.30473,0.84799l-1.03386,5.37054c-3.61852,-0.18844 -6.117,-0.28265 -7.49547,-0.28265c-1.20616,0.18844 -1.80926,0.65954 -1.80926,1.4133c-0.1723,1.31908 0.7754,1.97864 2.84312,1.97864c2.92928,0 5.08314,0.56534 6.46162,1.69598c1.03386,0.94221 1.55078,2.54395 1.55078,4.80524c0,1.95979 -0.43077,3.65577 -1.29232,5.08792c-0.86155,1.69595 -3.01542,2.73238 -6.46162,3.10925c-2.92928,0.18847 -5.9447,0.09425 -9.04628,-0.28265z"/><path d="M267.16468,191.58912v-16.39438h-6.20315v-7.34918h19.64334v7.34918h-6.20315v16.39438z"/><path d="M283.18951,181.69596v-13.8504h7.23701v13.8504c0,2.26129 0.86155,3.39194 2.58466,3.39194h0.51692c1.55078,0 2.32618,-1.13065 2.32618,-3.39194v-13.8504h6.7201v13.8504c0,6.78387 -3.10157,10.17581 -9.30475,10.17581c-6.7201,0 -10.08014,-3.39194 -10.08014,-10.17581z"/><path d="M305.15901,191.58912l3.87698,-23.74356h6.20315l2.84312,9.6105l2.84313,-9.6105h6.20315l3.87695,23.74356h-6.46162l-1.55078,-10.45847l-2.06771,10.45847h-5.68624l-2.06771,-10.45847l-1.55081,10.45847z"/><path d="M333.59017,191.58912v-23.74356h18.09253v6.78387h-10.3386v1.69595h10.3386v6.78391h-10.3386v1.69595h10.3386v6.78387z"/></g><path d="M131.81731,191.65243v-21.08465h8.53428l5.52218,9.41279v-9.41279h7.53025v21.08465h-8.53428l-5.52216,-9.11159v9.11159z" fill="#71ff33"/><path d="M155.91404,181.36112c0,-3.34676 1.00403,-5.98236 3.01209,-7.90676c2.00806,-1.9244 4.76916,-2.88658 8.28325,-2.88658c3.51412,0 6.27519,0.96219 8.28325,2.88658c2.00806,1.9244 3.0121,4.56 3.0121,7.90676c0,2.84476 -1.00404,5.35482 -3.0121,7.53022c-2.00806,2.17542 -4.76915,3.26312 -8.28325,3.26312c-3.51412,0 -6.27519,-1.0877 -8.28325,-3.26312c-2.00806,-2.1754 -3.01209,-4.68546 -3.01209,-7.53022zM166.95838,177.09397c-1.67339,1.00403 -2.92843,2.09176 -3.76513,3.26312c-0.83669,1.00403 -1.00403,2.25906 -0.502,3.76512l0.502,0.502c0.83669,1.17137 2.25907,1.50606 4.26713,1.00403c1.67339,-1.00403 2.92843,-2.09173 3.76512,-3.26309c1.00403,-1.3387 1.00403,-2.84475 0,-4.51815l-0.502,-0.50201c-1.00403,-0.66936 -2.25906,-0.75303 -3.76512,-0.25102z" fill="#71ff33"/><path d="M193.86643,181.36112c0,-3.34676 1.00404,-5.98236 3.0121,-7.90676c2.00806,-1.9244 4.76916,-2.88658 8.28325,-2.88658c3.01209,0 5.10382,0.08366 6.27518,0.251l-2.25906,7.02822l-0.502,-0.50201c-1.00403,-0.66936 -2.25907,-0.75303 -3.76513,-0.25102c-1.67339,1.00403 -2.92843,2.09176 -3.76512,3.26312c-0.83669,1.00403 -1.00403,2.25906 -0.502,3.76512l0.502,0.502c0.83669,1.17137 2.25906,1.50606 4.26712,1.00403c1.67339,-1.00403 2.92843,-2.09173 3.76512,-3.26309l3.01209,8.78527c-1.17137,0.66936 -3.51412,1.00404 -7.02821,1.00404c-3.51412,0 -6.27519,-1.0877 -8.28325,-3.26312c-2.00806,-2.1754 -3.0121,-4.68546 -3.0121,-7.53022z" fill="#71ff33"/><path d="M214.70008,181.36112c0,-3.34676 1.00404,-5.98236 3.0121,-7.90676c2.00806,-1.9244 4.76915,-2.88658 8.28324,-2.88658c3.51412,0 6.27519,0.96219 8.28325,2.88658c2.00806,1.9244 3.01209,4.56 3.01209,7.90676c0,2.84476 -1.00403,5.35482 -3.01209,7.53022c-2.00806,2.17542 -4.76916,3.26312 -8.28325,3.26312c-3.51412,0 -6.27518,-1.0877 -8.28324,-3.26312c-2.00806,-2.1754 -3.0121,-4.68546 -3.0121,-7.53022zM225.74442,177.09397c-1.67339,1.00403 -2.92843,2.09176 -3.76512,3.26312c-0.83669,1.00403 -1.00403,2.25906 -0.502,3.76512l0.502,0.502c0.83669,1.17137 2.25906,1.50606 4.26712,1.00403c1.67339,-1.00403 2.92843,-2.09173 3.76512,-3.26309c1.00403,-1.3387 1.00403,-2.84475 0,-4.51815l-0.502,-0.50201c-1.00403,-0.66936 -2.25907,-0.75303 -3.76513,-0.25102z" fill="#71ff33"/><path d="M241.80894,191.65243c-0.83669,-0.16734 -1.50606,-0.33467 -2.00806,-0.50201l1.00403,-5.02015l3.01209,0.251c2.34273,0.16734 4.18345,0.16734 5.52218,0c0.66936,-0.3347 1.00403,-0.8367 1.00403,-1.50606c-0.16734,-0.66936 -1.67339,-1.00403 -4.51812,-1.00403c-2.51009,-0.33467 -4.26712,-1.25503 -5.27115,-2.76107c-0.502,-1.17137 -0.75303,-2.51009 -0.75303,-4.01615c0,-2.34273 0.83669,-4.09979 2.51006,-5.27116c1.17137,-0.83669 3.26309,-1.25503 6.27518,-1.25503c3.01209,0 6.02419,0.251 9.03628,0.75303l-1.00403,4.76913c-3.51412,-0.16734 -5.94052,-0.251 -7.27922,-0.251c-1.17137,0.16734 -1.75706,0.58567 -1.75706,1.25503c-0.16734,1.17137 0.75303,1.75706 2.76109,1.75706c2.84476,0 4.93649,0.50203 6.27519,1.50606c1.00403,0.83669 1.50603,2.25906 1.50603,4.26712c0,1.74033 -0.41834,3.24639 -1.25503,4.51815c-0.8367,1.50603 -2.92843,2.4264 -6.27519,2.76107c-2.84476,0.16736 -5.77319,0.0837 -8.78528,-0.251z" fill="#71ff33"/><path d="M266.6587,191.65243v-14.55846h-6.02418v-6.52619h19.07659v6.52619h-6.02418v14.55846z" fill="#71ff33"/><path d="M282.2212,182.86716v-12.29937h7.02821v12.29937c0,2.00806 0.83669,3.01209 2.51009,3.01209h0.50201c1.50603,0 2.25906,-1.00403 2.25906,-3.01209v-12.29937h6.52621v12.29937c0,6.02418 -3.01209,9.03627 -9.0363,9.03627c-6.52621,0 -9.78931,-3.01209 -9.78931,-9.03627z" fill="#71ff33"/><path d="M303.55686,191.65243l3.76513,-21.08465h6.02418l2.76109,8.53428l2.76109,-8.53428h6.02418l3.7651,21.08465h-6.27519l-1.50603,-9.28728l-2.00806,9.28728h-5.52218l-2.00806,-9.28728l-1.50606,9.28728z" fill="#71ff33"/><path d="M331.16772,191.65243v-21.08465h17.57053v6.02418h-10.04031v1.50603h10.04031v6.02421h-10.04031v1.50603h10.04031v6.02419z" fill="#71ff33"/></g></g></svg>