<svg version="1.1" xmlns="http://www.w3.org/2000/svg" xmlns:xlink="http://www.w3.org/1999/xlink" width="26.90465" height="24.30241" viewBox="0,0,26.90465,24.30241"><g transform="translate(-224.68847,-170.48472)"><g data-paper-data="{&quot;isPaintingLayer&quot;:true}" fill-rule="nonzero" stroke-linejoin="miter" stroke-miterlimit="10" stroke-dasharray="" stroke-dashoffset="0" style="mix-blend-mode: normal"><g data-paper-data="{&quot;index&quot;:null}"><g stroke="none" stroke-width="0" stroke-linecap="butt"><path d="M241.8151,175.76007c0.33344,0.53564 1.13616,1.47283 1.13616,1.47283c0,0 -0.75307,-0.18138 -1.97822,1.42971c-1.22515,1.61109 2.16698,4.57037 2.16698,4.57037c0,0 -8.51809,-3.0691 -6.94193,-6.43824c1.14185,-2.44076 3.90404,-2.40458 3.90404,-2.40458z" fill="#f8b820"/><path d="M241.64837,176.12825c-0.46595,-0.72241 -1.74614,-1.68312 -1.74614,-1.68312c0,0 2.68648,-0.32762 3.81494,0.0383c1.12845,0.36592 2.76088,1.38748 2.76088,1.38748c0,0 -1.12045,1.15907 -2.06868,1.13712c-0.94823,-0.02196 -2.04221,0.3292 -2.04221,0.3292c0,0 -0.25284,-0.48656 -0.71879,-1.20898z" fill="#ffffff"/></g><path d="M242.2541,176.56727l-0.56635,0.17041" fill="none" stroke="#808080" stroke-width="0.5" stroke-linecap="round"/><path d="M241.12164,175.97843l0.48121,-0.20334" fill="none" stroke="#808080" stroke-width="0.5" stroke-linecap="round"/><path d="M240.3387,175.16962l0.57185,-0.24998" fill="none" stroke="#808080" stroke-width="0.5" stroke-linecap="round"/></g><g><path d="M248.11177,186.20187c0.52533,0.45197 0.55176,2.03823 0.40308,2.82975c-0.14869,0.79154 -1.4017,4.87292 -2.95584,5.49701c-0.40163,0.20371 -1.60313,-1.29998 -1.93957,-4.18481c-0.27067,-2.32099 0.35218,-4.57709 0.57073,-4.73736c0.80112,-0.58759 3.39626,0.14344 3.92159,0.59541z" fill="#c01515" stroke="none" stroke-width="0" stroke-linecap="butt"/><path d="M248.00096,190.69534c0,0 -1.32949,-0.29777 -2.14826,-0.26225c-0.81877,0.03551 -2.12103,0.47325 -2.12103,0.47325c0,0 -0.104,-0.40632 -0.14904,-0.93964c-0.04505,-0.53333 0.0185,-1.44749 0.0185,-1.44749c0,0 1.31846,-0.29073 2.34358,-0.14796c1.02514,0.14276 2.52045,0.82534 2.52045,0.82534c0,0 -0.21155,0.78627 -0.27436,0.98904c-0.0628,0.20277 -0.18983,0.50972 -0.18983,0.50972z" fill="#a8c8d8" stroke="none" stroke-width="0" stroke-linecap="butt"/><path d="M245.39001,194.42133c0,0 -0.7643,-2.26836 -0.9741,-3.91259c-0.20979,-1.64424 -0.08689,-4.24642 -0.08689,-4.24642" fill="none" stroke="#000000" stroke-width="0.25" stroke-linecap="round"/><path d="M244.15625,186.59175l0.44711,-0.06835" fill="none" stroke="#808080" stroke-width="0.5" stroke-linecap="round"/><path d="M244.11655,187.91672l0.58549,-0.07875" fill="none" stroke="#808080" stroke-width="0.5" stroke-linecap="round"/><path d="M244.96691,191.36648l-0.47911,0.10554" fill="none" stroke="#808080" stroke-width="0.5" stroke-linecap="round"/><path d="M245.34148,193.11261l-0.5163,0.07354" fill="none" stroke="#808080" stroke-width="0.5" stroke-linecap="round"/><path d="M244.01234,189.59098l0.7007,-0.09981" fill="none" stroke="#808080" stroke-width="0.5" stroke-linecap="round"/></g><path d="M241.19548,184.93241c0,0 -1.41852,-0.64582 -1.97641,-0.95935c-0.5579,-0.31353 -1.32026,-0.97261 -1.32026,-0.97261l1.46657,-0.36511c0,0 0.71948,0.51392 1.15472,0.82344c0.43525,0.30952 1.19781,0.85183 1.19781,0.85183z" fill="#f8b820" stroke="none" stroke-width="0" stroke-linecap="butt"/><path d="M243.13893,184.78263c0.49756,0.27658 1.44031,0.73004 1.22122,1.25072c-0.23393,0.55596 -1.4033,-0.07096 -1.91208,-0.32632c-0.95019,-0.47691 -1.41045,-0.66919 -1.14006,-1.15562c0.20507,-0.3689 1.33336,-0.04536 1.83092,0.23122z" fill="#ffffff" stroke="none" stroke-width="0" stroke-linecap="butt"/><g data-paper-data="{&quot;index&quot;:null}"><path d="M240.82606,182.23019c3.33404,0.26803 3.76648,2.8575 3.61594,4.51084c-0.16191,1.7781 -4.58182,2.49413 -6.63329,0.89801c-2.02404,-1.57477 -1.66936,-3.5655 -0.07922,-4.63442c1.06693,-0.7172 1.55711,-0.89819 3.09657,-0.77442z" fill="#f8b820" stroke="none" stroke-width="0" stroke-linecap="butt"/><path d="M241.09684,183.65786c1.15451,-0.15671 3.13433,1.23803 3.31154,3.10443c0.11956,1.2591 -1.89635,2.87146 -3.50029,2.77999c-2.14338,-0.12225 -3.17637,-1.58961 -3.17241,-2.9024c0.00233,-0.77222 0.01634,-2.52801 3.36116,-2.98201z" fill="#ffffff" stroke="none" stroke-width="0" stroke-linecap="butt"/><path d="M238.86907,184.71506l-0.38303,-0.4153" fill="none" stroke="#808080" stroke-width="0.5" stroke-linecap="round"/><path d="M240.38377,183.51029l0.0477,0.46838" fill="none" stroke="#808080" stroke-width="0.5" stroke-linecap="round"/><path d="M242.3796,183.59096l-0.23454,0.85679" fill="none" stroke="#808080" stroke-width="0.5" stroke-linecap="round"/><path d="M243.70139,185.51023l0.2903,-0.58799" fill="none" stroke="#808080" stroke-width="0.5" stroke-linecap="round"/></g><g data-paper-data="{&quot;index&quot;:null}"><g><path d="M250.95693,186.26369c0.55736,0.41183 0.70119,1.99177 0.61153,2.79213c-0.08966,0.80038 -1.03698,4.96334 -2.54064,5.70081c-0.38544,0.23289 -1.695,-1.17769 -2.24415,-4.02968c-0.44181,-2.29457 0.01225,-4.5906 0.21833,-4.76662c0.75541,-0.6453 3.39756,-0.10847 3.95492,0.30336z" fill="#f72526" stroke="none" stroke-width="0" stroke-linecap="butt"/><path d="M251.17919,190.75302c0,0 -1.34789,-0.1985 -2.16178,-0.10244c-0.81389,0.09605 -2.08016,0.62902 -2.08016,0.62902c0,0 -0.1338,-0.3975 -0.21822,-0.92602c-0.08442,-0.52853 -0.08875,-1.44489 -0.08875,-1.44489c0,0 1.29331,-0.38757 2.32619,-0.32111c1.0329,0.06645 2.57465,0.63642 2.57465,0.63642c0,0 -0.15274,0.79978 -0.20036,1.00664c-0.04761,0.20686 -0.15156,0.52238 -0.15156,0.52238z" fill="#ffffff" stroke="none" stroke-width="0" stroke-linecap="butt"/><path d="M248.85134,194.66214c0,0 -0.93019,-2.20553 -1.26117,-3.82971c-0.33098,-1.62419 -0.40112,-4.22833 -0.40112,-4.22833" fill="none" stroke="#000000" stroke-width="0.25" stroke-linecap="round"/><path d="M247.04115,186.94546l0.44082,-0.10127" fill="none" stroke="#808080" stroke-width="0.5" stroke-linecap="round"/><path d="M247.09966,188.2697l0.57805,-0.12189" fill="none" stroke="#808080" stroke-width="0.5" stroke-linecap="round"/><path d="M248.20317,191.64701l-0.46998,0.14073" fill="none" stroke="#808080" stroke-width="0.5" stroke-linecap="round"/><path d="M248.70603,193.36061l-0.50944,0.11157" fill="none" stroke="#808080" stroke-width="0.5" stroke-linecap="round"/><path d="M247.11974,189.94707l0.69138,-0.15143" fill="none" stroke="#808080" stroke-width="0.5" stroke-linecap="round"/></g><path d="M244.32859,185.14298c0,0 -1.41852,-0.64582 -1.97641,-0.95935c-0.5579,-0.31353 -1.32026,-0.97261 -1.32026,-0.97261l1.46657,-0.36511c0,0 0.71948,0.51392 1.15472,0.82344c0.43525,0.30952 1.19781,0.85183 1.19781,0.85183z" fill="#f8b820" stroke="none" stroke-width="0" stroke-linecap="butt"/><path d="M246.27204,184.99312c0.49756,0.27658 1.44031,0.73004 1.22122,1.25072c-0.23393,0.55596 -1.4033,-0.07096 -1.91208,-0.32632c-0.95019,-0.47691 -1.41045,-0.66919 -1.14006,-1.15562c0.20507,-0.3689 1.33336,-0.04536 1.83092,0.23122z" fill="#ffffff" stroke="none" stroke-width="0" stroke-linecap="butt"/></g><g data-paper-data="{&quot;index&quot;:null}"><g stroke="none" stroke-width="0" stroke-linecap="butt"><path d="M246.02231,174.39016c0,0 2.76219,-0.03618 3.90404,2.40458c1.57616,3.36914 -6.94193,6.43824 -6.94193,6.43824c0,0 3.39213,-2.95928 2.16698,-4.57037c-1.22514,-1.61109 -1.97821,-1.42971 -1.97821,-1.42971c0,0 0.80271,-0.93718 1.13615,-1.47282z" fill="#f8b820"/><path d="M243.75728,177.33724c0,0 -1.09398,-0.35116 -2.04221,-0.3292c-0.94823,0.02195 -2.06868,-1.13712 -2.06868,-1.13712c0,0 1.63243,-1.02156 2.76088,-1.38748c1.12846,-0.36592 3.81494,-0.0383 3.81494,-0.0383c0,0 -1.28019,0.96071 -1.74614,1.68312c-0.46595,0.72242 -0.71879,1.20898 -0.71879,1.20898z" fill="#ffffff"/></g><path d="M243.87034,176.56728l0.56635,0.17041" fill="none" stroke="#808080" stroke-width="0.5" stroke-linecap="round"/><path d="M245.0028,175.97844l-0.48121,-0.20334" fill="none" stroke="#808080" stroke-width="0.5" stroke-linecap="round"/><path d="M245.21389,174.91965l0.57185,0.24998" fill="none" stroke="#808080" stroke-width="0.5" stroke-linecap="round"/></g><path d="M241.47515,181.09955c-0.48907,2.8635 -6.11655,3.19236 -8.90037,2.67046c-2.36466,-0.44332 -3.6913,-7.69193 -0.29889,-10.03591c1.31725,-0.91016 2.06248,-1.25382 4.4467,-0.90197c2.44736,0.36116 5.49304,3.932 4.75256,8.26743z" fill="#f8b820" stroke="none" stroke-width="0" stroke-linecap="butt"/><path d="M240.79798,181.43273c-0.28575,1.88083 -3.19019,3.91479 -5.57701,3.51229c-1.29677,-0.21868 -2.62218,-0.53993 -3.32458,-1.90556c-0.21524,-0.43063 1.5899,-2.33231 2.8441,-2.72779c2.95154,-0.93069 6.15569,0.47467 6.05748,1.12106z" fill="#ffffff" stroke="none" stroke-width="0" stroke-linecap="butt"/><path d="M240.6154,176.02075c-0.22361,-0.19571 -1.03807,-1.30563 -1.83011,-1.87211c-0.79203,-0.56647 -2.13013,-1.23131 -2.13013,-1.23131c0,0 0.49538,-1.22747 1.09811,-1.68309c0.60274,-0.45563 1.69922,-0.8778 2.07187,-0.71317c2.4755,1.09369 1.10686,5.77679 0.79026,5.49969z" fill="#ffffff" stroke="none" stroke-width="0" stroke-linecap="butt"/><path d="M232.20628,173.85967c0,0 -1.01598,1.10149 -1.25438,2.37314c-0.2384,1.27165 -0.47781,2.78856 -0.47781,2.78856c0,0 -1.0012,-0.91366 -1.64424,-2.05694c-0.58261,-1.03584 -0.74809,-2.35116 -0.08005,-2.89832c1.66219,-1.36141 3.45648,-0.20644 3.45648,-0.20644z" fill="#ffffff" stroke="none" stroke-width="0" stroke-linecap="butt"/><g stroke="none" stroke-width="0" stroke-linecap="butt"><path d="M233.81008,179.58121c-0.32211,0.93511 -1.27293,1.44156 -2.12369,1.1312c-0.85077,-0.31036 -1.27932,-1.32001 -0.9572,-2.25511c0.32211,-0.93511 1.27291,-1.44157 2.12368,-1.1312c0.85077,0.31036 1.27933,1.32001 0.95721,2.25512z" fill="#ffffff"/><path d="M231.47013,179.12032c-0.02171,-0.51232 0.29694,-1.03807 0.74521,-1.05707c0.44828,-0.01901 0.85644,0.47595 0.87815,0.98826c0.02171,0.51233 -0.3241,0.94305 -0.77237,0.96205c-0.44828,0.01901 -0.82929,-0.38092 -0.851,-0.89323z" fill="#000000"/></g><g stroke="none" stroke-width="0" stroke-linecap="butt"><path d="M239.17776,177.58943c0.17727,1.11477 -0.34491,2.12434 -1.16631,2.25497c-0.82141,0.13062 -1.63099,-0.66719 -1.80826,-1.78195c-0.17727,-1.11477 0.3449,-2.12435 1.16631,-2.25497c0.82141,-0.13062 1.63099,0.66719 1.80826,1.78195z" fill="#ffffff"/><path d="M236.85479,177.9793c-0.02171,-0.51232 0.29694,-1.03807 0.74521,-1.05707c0.44828,-0.01901 0.85644,0.47595 0.87815,0.98826c0.02171,0.51233 -0.3241,0.94305 -0.77237,0.96205c-0.44828,0.01901 -0.82929,-0.38092 -0.851,-0.89323z" fill="#000000"/></g><path d="M236.61453,177.45181l-2.3661,-2.03308c0,0 -0.1957,1.01285 -0.3648,1.59047c-0.1691,0.57763 -0.4986,1.35884 -0.4986,1.35884c0,0 -1.12352,-1.2572 -1.22196,-1.70225c-0.12189,-0.55106 0.08397,-1.58429 0.08397,-1.58429l3.85154,-0.87439c0,0 0.74939,0.46226 0.84311,1.25984c0.06762,0.57545 -0.32714,1.98484 -0.32714,1.98484z" fill="#f8b820" stroke="none" stroke-width="0" stroke-linecap="butt"/><g stroke="none" stroke-width="0" stroke-linecap="butt"><path d="M235.59453,180.4938c0.55185,0.10346 1.12386,0.17074 1.08043,0.52203c-0.06956,0.56258 -0.68847,0.73461 -1.2428,0.82381c-0.7745,0.12463 -1.19328,0.00747 -1.21145,-0.34603c-0.03876,-0.75433 0.82197,-1.10328 1.37382,-0.99982z" fill="#71716f"/><path d="M235.64393,181.4296c-0.96052,-0.00018 -1.24748,-0.54218 -1.24748,-0.54218c0,0 0.57785,-0.4866 0.91712,-0.59886c0.33927,-0.11226 0.62148,-0.14838 0.90537,-0.00709c0.28389,0.14129 0.49272,0.39708 0.40919,0.66133c-0.14529,0.4596 -0.34951,0.48693 -0.9842,0.4868z" fill="#010101"/><path d="M235.09137,181.25858c-0.02924,0.15596 -0.17937,0.25869 -0.33533,0.22945c-0.15595,-0.02924 -0.25868,-0.17936 -0.22944,-0.33532c0.02924,-0.15595 0.17936,-0.25868 0.33532,-0.22944c0.15596,0.02924 0.25869,0.17937 0.22945,0.33533z" fill="#ffffff"/></g><g data-paper-data="{&quot;index&quot;:null}"><path d="M233.77925,175.11989c0,0 -0.93729,-1.41629 -1.7997,-2.12131c-0.86241,-0.70501 -1.92714,-0.52936 -1.92714,-0.52936l-0.10918,-0.65261c0,0 1.54857,-0.05443 2.45797,0.68456c0.9094,0.73899 1.89468,2.32931 1.89468,2.32931z" fill="#767578" stroke="none" stroke-width="0" stroke-linecap="butt"/><path d="M228.48269,174.01172l-3.73231,-0.46469l2.86496,-2.78865l3.02912,1.12634z" fill="#ea035a" stroke="none" stroke-width="0" stroke-linecap="butt"/><path d="M224.81348,173.44117c0,0 4.9315,-1.32789 5.65859,-1.51265c0.18506,-0.04702 -0.24191,0.42459 -0.24191,0.42459" fill="none" stroke="#000000" stroke-width="0.25" stroke-linecap="round"/><path d="M227.58533,170.6539l1.60738,1.61623l-0.73224,1.75147" fill="none" stroke="#000000" stroke-width="0.25" stroke-linecap="round"/></g></g></g></svg>