<svg version="1.1" xmlns="http://www.w3.org/2000/svg" xmlns:xlink="http://www.w3.org/1999/xlink" width="28.80132" height="39.49023" viewBox="0,0,28.80132,39.49023"><defs><radialGradient cx="243.06755" cy="197.24884" r="7.85137" gradientUnits="userSpaceOnUse" id="color-1"><stop offset="0" stop-color="#d6feff" stop-opacity="0"/><stop offset="1" stop-color="#d6feff" stop-opacity="0.25098"/></radialGradient></defs><g transform="translate(-226.57925,-163.34114)"><g data-paper-data="{&quot;isPaintingLayer&quot;:true}" fill-rule="nonzero" stroke-linejoin="miter" stroke-miterlimit="10" stroke-dasharray="" stroke-dashoffset="0" style="mix-blend-mode: normal"><g><g><g><path d="M240.00911,186.5343c-0.0032,-0.54788 0.5138,-1.09834 0.89575,-1.84352c0.28496,-0.55596 1.02126,-0.77254 1.50393,-0.77535c1.03058,-0.00601 2.08738,0.2782 2.09338,1.30876c0.00199,0.34007 0.06755,1.04228 0.13588,1.70714c0.06742,0.65588 -0.01282,1.12585 -0.35868,1.15925c-0.44437,0.04292 -0.51454,-0.28244 -0.51454,-0.28244c0,0 -0.182,0.36369 -0.39507,0.3788c-0.21307,0.0151 -0.55901,-0.31169 -0.55901,-0.31169c0,0 -0.22963,0.29723 -0.48764,0.31851c-0.25802,0.02127 -0.44258,-0.24029 -0.44258,-0.24029c0,0 -0.16104,0.32067 -0.48679,0.32679c-0.32576,0.00611 -0.40561,-0.3767 -0.40561,-0.3767c0,0 -0.00837,0.29487 -0.21931,0.30889c-0.21094,0.01402 -0.04953,0.0005 -0.16567,-0.05413c-0.09568,-0.04501 -0.59234,-1.33564 -0.59401,-1.62399z" fill="#fdfdfd" stroke="none" stroke-width="0" stroke-linecap="butt"/><path d="M240.92715,188.04568c0,0 0.20864,-0.42024 0.22926,-0.80278c0.02061,-0.38255 -0.16004,-0.8322 -0.03845,-0.97331c0.257,-0.2983 0.91372,-0.30965 0.91372,-0.30965" fill="none" stroke="#a4a4a4" stroke-width="0.125" stroke-linecap="round"/></g><path d="M242.67558,184.25292c-0.36757,-0.02533 -1.61748,-0.06906 -1.62782,-0.36538c0.01317,-0.28482 0.33904,-0.55653 0.33904,-0.55653c0,0 -0.4004,-0.18318 -0.34654,-0.45345c0.06986,-0.35066 1.03275,-0.50754 1.55084,-0.50206c0.5181,0.00549 1.10673,0.16222 1.27961,0.41324c0.4358,0.63278 -0.03059,0.64531 -0.03059,0.64531c0,0 0.48851,0.01964 0.37498,0.66415c-0.05594,0.31757 -1.12643,0.18322 -1.53953,0.15475z" fill="#fdfdfd" stroke="none" stroke-width="0" stroke-linecap="butt"/></g><path d="M239.47405,178.15475c0.52972,-0.01915 3.06364,0.43505 3.06364,0.43505l0.40606,3.95647l-1.02273,-0.00452l-0.37323,-3.06199l-1.97601,-0.23805c0,0 -0.70438,-0.01321 -0.53584,-0.55045c0.16854,-0.53724 -0.09161,-0.51735 0.43811,-0.53651z" data-paper-data="{&quot;index&quot;:null}" fill="#fec267" stroke="none" stroke-width="0" stroke-linecap="butt"/></g><path d="M249.70612,200.41631c0,0 -3.28117,1.19354 -5.12272,1.41506c-1.18111,0.14208 -3.63696,-1.00244 -5.83617,-1.52923c-1.37307,-0.32891 -4.03579,-1.82229 -4.09999,-1.89729c-0.37673,-0.44018 0.24613,-2.86529 1.04244,-2.94989c0.27215,-0.02892 0.75863,-0.59849 2.92503,-0.57429c2.92653,0.03269 8.52086,-0.03381 10.38944,1.3361c0.70034,0.51345 2.17398,1.42542 1.83417,1.90284c-0.33981,0.47742 -1.13221,2.2967 -1.13221,2.2967z" data-paper-data="{&quot;index&quot;:null}" fill="url(#color-1)" stroke-opacity="0.25098" stroke="#313040" stroke-width="2" stroke-linecap="butt"/><path d="M242.79096,177.911c0,0 1.83541,0.1402 2.5126,2.82628c0.36079,1.43106 0.00811,5.02329 0.00811,5.02329c0,0 -1.10611,-2.28168 -2.03425,-3.64839c-0.92815,-1.36671 -2.64947,-2.27748 -1.99003,-2.27748c0.65944,0 1.50358,-1.92369 1.50358,-1.92369z" fill="#02124a" stroke="none" stroke-width="0" stroke-linecap="butt"/><path d="M242.28083,191.4088l-2.6965,-7.92671l1.5037,-0.44567c0,0 0.10198,1.49232 0.58401,3.06376c0.48201,1.57144 1.55087,3.89622 1.55087,3.89622z" data-paper-data="{&quot;index&quot;:null}" fill="#033397" stroke="none" stroke-width="0" stroke-linecap="butt"/><g stroke="none" stroke-width="0" stroke-linecap="butt"><path d="M235.26662,196.80469c0,0 -0.45534,-2.81891 3.72252,-3.92817c4.8336,-1.82211 5.54375,-1.32394 5.86859,-0.82513c0.82328,1.26417 0.96295,2.71796 0.96295,2.71796c0,0 -0.73192,0.52999 -1.2742,0.87276c-0.22928,0.14491 -1.13911,0.53956 -1.13911,0.53956l-0.10753,-0.39126l-1.32321,0.37644l0.05496,0.55691c0,0 -1.58678,0.47161 -2.2775,0.60291c-3.17414,0.60344 -4.48749,-0.52199 -4.48749,-0.52199z" fill="#e90023"/><path d="M235.31972,196.80189l0.32916,-1.20248l1.74659,0.38364l0.645,0.96169l-1.03158,0.95688l0.08538,-0.75864l-0.7451,-0.1878l-0.98327,0.24032l-0.04623,-0.39359z" fill="#948a92"/><path d="M241.95812,196.22536c0,0 -0.21872,-1.17299 -0.16577,-2.28137c0.05618,-1.17592 0.50822,-2.1495 0.50822,-2.1495l1.4232,-0.02145l0.11505,1.23631c0,0 -0.37822,0.89705 -0.47613,1.51525c-0.09792,0.61819 -0.05348,1.20917 -0.05348,1.20917z" fill="#deca55"/><path d="M235.39736,197.25514l-0.29523,-0.29539l0.24395,-1.3287l0.88023,-1.39687l2.10384,0.82739l0.70026,1.76274l2.90987,-1.36144l0.12724,1.28693l-3.33256,1.30826l-1.83338,-0.16236l0.19026,-1.30735l-1.373,-0.64169z" fill="#edeeee"/><g><path d="M235.64571,196.67111c0.17994,-0.29477 0.60781,-0.4034 0.99305,-0.20529c0.38524,0.19813 0.46075,0.59768 0.28081,0.89246c-0.17994,0.29477 -0.49562,0.34232 -0.93245,0.2053c-0.30686,-0.09625 -0.52135,-0.59769 -0.34141,-0.89247z" fill="#ece09c"/><path d="M235.87705,197.58212c-0.25681,-0.13209 -0.36778,-0.51968 -0.24781,-0.71619c0.11996,-0.1965 0.48599,-0.27905 0.74282,-0.14696c0.22651,0.10179 0.59229,0.40972 0.45993,0.68589c-0.12617,0.26326 -0.63752,0.36995 -0.95495,0.17726z" fill="#000000"/></g><path d="M241.8034,194.62866c0,0 -0.03494,-0.32519 -0.02531,-0.51055c0.01151,-0.22164 0.08976,-0.73001 0.08976,-0.73001l0.51487,2.69101l-0.34611,0.1418c0,0 -0.12757,-0.51719 -0.16603,-0.77978c-0.03926,-0.26805 -0.06716,-0.81247 -0.06716,-0.81247z" fill="#6a2625"/><path d="M245.56077,193.68764l0.13297,0.61075c0,0 -0.94701,0.66912 -1.04705,0.20962c-0.10005,-0.4595 0.91408,-0.82038 0.91408,-0.82038z" fill="#eac763"/><path d="M240.82685,192.1267c-0.01497,-0.4895 0.35116,-0.98715 0.35116,-0.98715c0,0 -0.50604,-0.27488 -0.47003,-0.74345c0.04672,-0.60792 1.19873,-0.97097 1.82837,-1.01218c0.62963,-0.04123 1.36135,0.16995 1.59854,0.58337c0.59792,1.04214 0.03299,1.10918 0.03299,1.10918c0,0 0.59525,-0.01403 0.52747,1.10187c-0.03341,0.54986 -1.16369,0.62697 -2.00902,0.61569c-0.84533,-0.01127 -1.81472,-0.16038 -1.85947,-0.66733z" fill="#fdfdfd"/></g><path d="M240.97783,184.03587l1.23824,-1.28246c0,0 0.00118,0.96045 0.48215,1.56001c0.57741,0.71978 2.74613,2.46427 2.74613,2.46427c0,0 -2.23903,-0.52196 -3.25715,-1.14695c-1.01813,-0.62499 -1.20936,-1.59486 -1.20936,-1.59486z" fill="#02124a" stroke="none" stroke-width="0" stroke-linecap="butt"/><path d="M238.54431,181.70755c-0.43138,-1.54049 -0.30073,-3.2912 1.03985,-3.66659c1.34058,-0.3754 3.19602,-1.70665 3.62739,-0.16616c0.25781,0.9207 -0.19901,2.50673 -0.0286,3.53088c0.30556,1.83643 -0.27374,2.31725 -1.07252,2.54092c-1.34057,0.3754 -3.13474,-0.69855 -3.56612,-2.23905z" fill="#033397" stroke="none" stroke-width="0" stroke-linecap="butt"/><path d="M238.32716,181.42394c-0.45161,-1.44876 -0.0256,-1.81025 0.43005,-2.64625c0.23104,-0.4239 1.42981,-0.55195 2.29193,0.23076c0.79564,0.72236 0.97881,4.31583 -0.14214,4.49443c-1.24907,0.199 -2.26004,-1.053 -2.57985,-2.07894z" fill="#fec267" stroke="none" stroke-width="0" stroke-linecap="butt"/><path d="M241.53322,192.23643l-0.01717,-9.15648l1.72604,0.00665c0,0 -0.42,1.59606 -0.47143,3.39474c-0.05142,1.79868 0.24365,4.57171 0.24365,4.57171z" data-paper-data="{&quot;index&quot;:null}" fill="#033397" stroke="none" stroke-width="0" stroke-linecap="butt"/><g data-paper-data="{&quot;index&quot;:null}" stroke="none" stroke-width="0" stroke-linecap="butt"><path d="M249.91599,198.09085c0,0 -1.38876,1.19003 -4.74513,0.55195c-0.73038,-0.13884 -2.40826,-0.63752 -2.40826,-0.63752l0.05812,-0.58888l-1.39918,-0.39805l-0.1137,0.41372c0,0 -0.96206,-0.41731 -1.20451,-0.57054c-0.57341,-0.36245 -1.34735,-0.92287 -1.34735,-0.92287c0,0 0.14769,-1.53726 1.01823,-2.87401c0.34349,-0.52745 1.09442,-1.05422 6.20553,0.87251c4.41772,1.17295 3.93624,4.1537 3.93624,4.1537z" fill="#e90023"/><path d="M249.85989,198.08791l-0.04889,0.41618l-1.03972,-0.25411l-0.78788,0.19858l0.09028,0.8022l-1.0908,-1.01182l0.68203,-1.0169l1.84687,-0.40567l0.34806,1.27152z" fill="#948a92"/><path d="M241.41165,196.95844c0,0 0.04699,-0.62491 -0.05655,-1.27859c-0.10354,-0.65369 -0.50347,-1.60224 -0.50347,-1.60224l0.12166,-1.30729l1.50491,0.02268c0,0 0.478,1.02947 0.5374,2.27291c0.05599,1.17201 -0.17529,2.41235 -0.17529,2.41235z" fill="#deca55"/><path d="M249.43779,197.18358l-1.45183,0.67853l0.20118,1.38241l-1.93864,0.17168l-3.52389,-1.38338l0.13455,-1.36082l3.07693,1.43961l0.74047,-1.86395l2.22463,-0.8749l0.93077,1.47707l0.25796,1.40499l-0.31218,0.31235z" fill="#edeeee"/><g><path d="M249.51513,197.94961c0.19027,0.31171 -0.03653,0.84193 -0.36101,0.94371c-0.4619,0.14488 -0.79571,0.0946 -0.98598,-0.21709c-0.19027,-0.31171 -0.11043,-0.73419 0.29693,-0.9437c0.40736,-0.20948 0.8598,-0.09461 1.05007,0.21708z" fill="#ece09c"/><path d="M249.27052,198.91292c-0.33565,0.20376 -0.87636,0.09094 -1.00978,-0.18744c-0.13996,-0.29203 0.24682,-0.61764 0.48634,-0.72527c0.27157,-0.13967 0.65861,-0.05238 0.78546,0.1554c0.12686,0.20779 0.00953,0.61763 -0.26203,0.75731z" fill="#000000"/></g><path d="M243.0039,195.78988c0,0 -0.0295,0.57568 -0.07102,0.85912c-0.04067,0.27767 -0.17556,0.82455 -0.17556,0.82455l-0.36598,-0.14994l0.54443,-2.84551c0,0 0.08274,0.53757 0.09491,0.77193c0.01019,0.196 -0.02676,0.53986 -0.02676,0.53986z" fill="#6a2625"/><path d="M239.03082,194.79483c0,0 1.07236,0.3816 0.96656,0.86748c-0.10579,0.48589 -1.10717,-0.22165 -1.10717,-0.22165l0.1406,-0.64581z" fill="#eac763"/><path d="M244.03652,193.14429c-0.04732,0.53606 -1.07236,0.69374 -1.96623,0.70565c-0.89387,0.01193 -2.08903,-0.06961 -2.12436,-0.65104c-0.07167,-1.17997 0.55775,-1.16513 0.55775,-1.16513c0,0 -0.59736,-0.0709 0.03489,-1.17287c0.25081,-0.43715 1.02454,-0.66046 1.69032,-0.61686c0.66579,0.04358 1.88394,0.42747 1.93334,1.07029c0.03807,0.49548 -0.49702,0.78614 -0.49702,0.78614c0,0 0.38715,0.52621 0.37132,1.04382z" fill="#fdfdfd"/></g><path d="M242.5036,178.40547c0.35028,0.39784 1.60341,2.64655 1.60341,2.64655l-2.8049,2.81977l-0.64416,-0.79438l2.13342,-2.22791l-1.0671,-1.68005c0,0 -0.43584,-0.5535 0.08668,-0.76328c0.52252,-0.20978 0.34238,-0.39852 0.69266,-0.00069z" data-paper-data="{&quot;index&quot;:null}" fill="#fec267" stroke="none" stroke-width="0" stroke-linecap="butt"/><g fill="#fdfdfd" stroke="none" stroke-width="0" stroke-linecap="butt"><g><path d="M236.49385,184.11446c0.39214,-0.38264 1.14726,-0.39265 1.94875,-0.63503c0.59799,-0.18083 1.26501,0.19878 1.60212,0.54427c0.71974,0.73762 1.24881,1.69558 0.51119,2.41532c-0.2434,0.23751 -0.70332,0.77217 -1.13445,1.2829c-0.42529,0.50385 -0.81927,0.77234 -1.0834,0.54658c-0.33938,-0.29005 -0.1539,-0.56643 -0.1539,-0.56643c0,0 -0.38813,0.12146 -0.5469,-0.02139c-0.15879,-0.14287 -0.16373,-0.61874 -0.16373,-0.61874c0,0 -0.37335,0.04106 -0.56778,-0.12989c-0.19442,-0.17096 -0.13429,-0.48537 -0.13429,-0.48537c0,0 -0.34261,0.1067 -0.57315,-0.12354c-0.23055,-0.23024 -0.01043,-0.55346 -0.01043,-0.55346c0,0 -0.21805,0.19867 -0.37458,0.05657c-0.15653,-0.1421 -0.03475,-0.0353 -0.07604,-0.15684c-0.03402,-0.10011 0.55017,-1.35356 0.75656,-1.55494z"/></g><path d="M239.98703,184.45002c-0.23692,-0.28215 -1.07315,-1.21218 -0.86703,-1.42532c0.21415,-0.18824 0.63594,-0.14232 0.63594,-0.14232c0,0 -0.14611,-0.41536 0.08581,-0.56422c0.3009,-0.19314 1.08226,0.39101 1.43797,0.76774c0.35571,0.37673 0.65153,0.90922 0.59085,1.20793c-0.15291,0.75296 -0.48571,0.42596 -0.48571,0.42596c0,0 0.32498,0.36527 -0.21773,0.73094c-0.26742,0.18018 -0.91384,-0.68359 -1.18013,-1.00069z"/></g><g data-paper-data="{&quot;index&quot;:null}"><g fill="#033397" stroke-width="0"><path d="M240.62655,178.18494c-2.93166,-0.14262 -5.19261,-2.63482 -5.04999,-5.56647c0.14262,-2.93166 2.63482,-5.19262 5.56647,-5.05c2.93166,0.14262 5.19261,2.63483 5.04999,5.56648c-0.14262,2.93166 -2.63482,5.19261 -5.56647,5.04999z" stroke="none" stroke-linecap="butt"/><path d="M238.62188,177.67752c0,0 -2.19253,-0.08363 -3.84433,1.27169c-1.65181,1.35533 -3.04064,4.37751 -3.04064,4.37751c0,0 -0.92963,-1.5518 -0.69066,-4.2561c0.20247,-2.29141 1.42009,-4.14791 1.42009,-4.14791c0,0 -1.77658,0.3916 -2.62712,0.91849c-1.41443,0.87621 -3.23144,2.84462 -3.23144,2.84462c0,0 -0.36782,-3.05708 1.53782,-6.53584c1.64181,-2.99714 4.38887,-4.03689 4.38887,-4.03689c0,0 -1.18481,-0.9995 -2.25939,-1.35716c-1.30513,-0.4344 -2.87618,-0.38616 -2.87618,-0.38616c0,0 3.99622,-3.95726 9.97145,-2.8249c8.69303,1.60781 8.95014,8.78092 8.95014,8.78092" stroke="#000000" stroke-linecap="round"/></g><path d="M236.34331,169.01484c0,0 -0.16124,-1.04862 -0.12686,-1.95429c0.03438,-0.90567 0.02861,-2.13624 0.2876,-2.2799c0.26618,-0.14764 0.42596,-0.10788 1.56961,0.66113c1.14363,0.76901 2.71989,2.19566 2.71989,2.19566" fill="#033397" stroke="#000000" stroke-width="0.125" stroke-linecap="round"/><path d="M244.37568,167.72318c0,0 1.00418,-0.04274 1.58215,-0.14051c0.53045,-0.08972 1.51088,-0.47129 1.75534,-0.42405c0.29294,0.0566 -0.21966,1.40644 -0.4826,2.0785c-0.30091,0.76913 -1.22438,2.28449 -1.22438,2.28449" fill="#033397" stroke="#000000" stroke-width="0" stroke-linecap="round"/><path d="M246.10092,171.39336c0,0 0.29376,1.17096 0.0882,2.22726c-0.20555,1.05629 -1.02015,2.56175 -1.02015,2.56175c0,0 -0.7062,-0.58956 -0.84219,-0.62892c-1.10299,-0.3193 -2.27538,0.97015 -3.49276,0.64959c-1.21739,-0.32054 -1.80101,-1.28927 -2.20325,-2.14488c-0.40224,-0.85561 -0.23586,-2.32266 0.07841,-2.96499c0.44549,-0.7514 1.16982,-0.86772 1.49092,-0.81334c0.37338,0.06323 1.1837,0.22972 1.93551,1.35171c0.7433,1.10925 0.87878,3.04089 1.65618,3.49784c0.22762,0.26221 0.65628,-0.26301 0.65628,-0.26301c0,0 0.14294,0.17523 0.24411,0.01933c0.31762,-0.48935 0.32157,-0.51696 0.66346,-1.33821c0.34189,-0.82125 0.74531,-2.1541 0.74531,-2.1541z" fill="#fdfdfd" stroke="#000000" stroke-width="0" stroke-linecap="butt"/><path d="M245.10225,176.33722c-0.00309,0.39346 -0.34595,0.7435 -1.26412,1.18511c-0.75403,0.36267 -2.04224,0.6808 -2.96617,0.6601c-3.86789,-0.28828 -4.37331,-3.2554 -3.02754,-3.54838c1.67228,-0.39135 2.05839,1.42968 3.51936,1.44173c0.97235,0.00802 2.00056,-0.72163 2.65806,-0.61979c0.84876,0.11866 1.08232,0.63821 1.08042,0.88124z" fill="#fec267" stroke="#000000" stroke-width="0" stroke-linecap="butt"/><path d="M245.85839,170.29099c0,0 0.78557,-0.52129 0.96501,-0.02222c0.11752,0.32682 -0.42229,2.32014 -0.42229,2.32014" fill="#033397" stroke="#000000" stroke-width="0.125" stroke-linecap="round"/><path d="M246.4202,175.36186c0.13433,0.45501 -0.16779,0.78008 -1.00882,0.95192c-0.5311,0.10851 -1.27512,0.09486 -1.25629,-0.29212c0.01136,-0.23336 0.66621,-0.27504 1.1363,-0.40673c0.4701,-0.13169 1.08785,-0.39187 1.12882,-0.25309z" fill="#0d1114" stroke="none" stroke-width="0" stroke-linecap="butt"/><path d="M245.8564,175.65386c0.01055,0.07724 -0.16873,0.16549 -0.40042,0.19713c-0.23168,0.03165 -0.42806,-0.00532 -0.43861,-0.08255c-0.01055,-0.07724 0.16873,-0.16549 0.40042,-0.19713c0.23168,-0.03165 0.42806,0.00532 0.43861,0.08255z" fill="#fdfdfd" stroke="none" stroke-width="0" stroke-linecap="butt"/><path d="M239.72712,167.53606c0,0 -0.53622,0.11933 -1.52179,0.56025c-1.07806,0.48231 -1.18737,0.9094 -1.18737,0.9094c0,0 -0.43045,-3.00453 0.0569,-3.10591c0.69928,-0.14546 2.65227,1.63627 2.65227,1.63627z" fill="#fec267" stroke="none" stroke-width="0" stroke-linecap="butt"/><g stroke="none" stroke-width="0" stroke-linecap="butt"><path d="M242.12684,172.34838c0.27671,0.05711 0.28837,0.69756 0.13255,1.45246c-0.15581,0.75491 -0.4201,1.33838 -0.69679,1.28128c-0.30742,-0.06346 -0.28837,-0.69756 -0.13255,-1.45246c0.15581,-0.75491 0.38938,-1.34474 0.69679,-1.28129z" fill="#005c2d"/><path d="M241.9683,173.11628c0.11026,0.02275 0.14856,0.28874 0.08554,0.5941c-0.06302,0.30535 -0.20351,0.53443 -0.31377,0.51168c-0.11026,-0.02276 -0.14856,-0.28874 -0.08554,-0.5941c0.06302,-0.30536 0.20351,-0.53444 0.31377,-0.51169z" fill="#000000"/><path d="M242.0127,172.90127c0.11027,0.02278 0.16985,0.18563 0.13309,0.36374c-0.03675,0.17813 -0.15596,0.30407 -0.26622,0.28132c-0.11026,-0.02278 -0.16985,-0.18563 -0.13309,-0.36374c0.03676,-0.17813 0.15597,-0.30407 0.26623,-0.28132z" fill="#ffffff"/></g><g stroke="none" stroke-width="0" stroke-linecap="butt"><path d="M245.7764,174.4914c-0.18087,0.49316 -0.41765,0.8599 -0.5984,0.79361c-0.20082,-0.07365 -0.12427,-0.49914 0.0566,-0.99231c0.18087,-0.49316 0.39757,-0.86727 0.5984,-0.79361c0.18076,0.06628 0.12427,0.49914 -0.0566,0.99231z" fill="#005c2d"/><path d="M245.64696,174.40978c-0.07317,0.19949 -0.19087,0.33979 -0.26291,0.31337c-0.07204,-0.02641 -0.07112,-0.20955 0.00204,-0.40903c0.07317,-0.19949 0.19087,-0.33979 0.26291,-0.31337c0.07204,0.02641 0.07112,0.20955 -0.00204,0.40903z" fill="#000000"/><path d="M245.7005,173.8603c0.07204,0.02642 0.09584,0.14218 0.05316,0.25854c-0.04269,0.11636 -0.13567,0.18928 -0.20771,0.16286c-0.07204,-0.02642 -0.09584,-0.14218 -0.05316,-0.25854c0.04269,-0.11637 0.13567,-0.18929 0.20771,-0.16287z" fill="#ffffff"/></g><path d="M238.5469,176.30942c0,0 0.53994,0.49463 0.99033,0.62539c0.45039,0.13076 1.29486,0.28569 1.29486,0.28569c0,0 -1.00794,-0.02502 -1.51722,-0.17288c-0.50927,-0.14785 -0.76797,-0.7382 -0.76797,-0.7382z" fill="#000000" stroke="#000000" stroke-width="0" stroke-linecap="butt"/><path d="M244.91966,172.51736c0.18622,0.00906 0.46066,0.95186 0.46066,0.95186c0,0 -0.15836,0.45852 -0.29587,0.73579c-0.13752,0.27728 -0.41613,0.69977 -0.41613,0.69977c0,0 -0.30822,0.08292 -0.27968,-0.50367c0.02854,-0.58659 0.34478,-1.89281 0.53101,-1.88375z" fill="#033397" stroke="none" stroke-width="0" stroke-linecap="butt"/></g></g></g></svg>