<svg version="1.1" xmlns="http://www.w3.org/2000/svg" xmlns:xlink="http://www.w3.org/1999/xlink" width="19.93406" height="35.85714" viewBox="0,0,19.93406,35.85714"><g transform="translate(-230.42308,-162.78571)"><g data-paper-data="{&quot;isPaintingLayer&quot;:true}" fill="#000000" fill-rule="nonzero" stroke="none" stroke-width="0" stroke-linecap="butt" stroke-linejoin="miter" stroke-miterlimit="10" stroke-dasharray="" stroke-dashoffset="0" style="mix-blend-mode: normal"><path d="M237.35714,178.42857c0,8.63931 2.91015,15.64286 6.5,15.64286c3.58985,0 6.5,-7.00355 6.5,-15.64286c0,-8.63931 -2.91015,-15.64286 -6.5,-15.64286c-3.58985,0 -6.5,7.00355 -6.5,15.64286z"/><path d="M231.92857,183.85714c0,7.85033 2.91015,14.21429 6.5,14.21429c3.58985,0 6.5,-6.36396 6.5,-14.21429c0,-7.85033 -2.91015,-14.21428 -6.5,-14.21428c-3.58985,0 -6.5,6.36395 -6.5,14.21428z"/><path d="M239.96155,183.5c-5.26794,0 -9.53846,3.38985 -9.53846,7.57143c0,4.18158 4.27052,7.57143 9.53846,7.57143c5.26794,0 9.53846,-3.38985 9.53846,-7.57143c0,-4.18158 -4.27051,-7.57143 -9.53846,-7.57143z"/></g></g></svg>