<svg version="1.1" xmlns="http://www.w3.org/2000/svg" xmlns:xlink="http://www.w3.org/1999/xlink" width="37.43977" height="16.77144" viewBox="0,0,37.43977,16.77144"><g transform="translate(-221.47734,-171.34135)"><g data-paper-data="{&quot;isPaintingLayer&quot;:true}" fill-rule="nonzero" stroke-linejoin="miter" stroke-miterlimit="10" stroke-dasharray="" stroke-dashoffset="0" style="mix-blend-mode: normal"><g data-paper-data="{&quot;index&quot;:null}"><g data-paper-data="{&quot;index&quot;:null}" stroke="none" stroke-width="0" stroke-linecap="butt"><path d="M258.8474,180.43763c-0.81348,1.54394 -4.65995,2.08667 -4.65995,2.08667c-0.55942,0.10556 -1.05757,0.02185 -1.54361,-0.1332c-0.42331,-0.13504 -0.83741,-0.32416 -1.27482,-0.4895c-0.93963,-0.35517 0.4914,-0.97892 0.4914,-0.97892c0,0 2.01344,-1.02286 3.20232,-1.10111c1.00674,-0.19126 4.37893,-0.51183 3.78466,0.61605z" data-paper-data="{&quot;index&quot;:null}" fill="#d757d7"/><path d="M248.81473,181.15842c0,0 3.39767,-0.32202 4.64459,-0.5351c0.84352,-0.14416 2.18313,-0.42903 2.18313,-0.42903c0.36011,-0.00514 1.4978,0.46482 0.8398,0.93448c-0.51727,0.36919 -2.83413,0.76211 -2.83413,0.76211c0,0 -4.14631,0.4756 -4.76805,0.65819c-1.9786,0.5153 -5.59185,0.76967 -5.59185,0.76967l-0.05173,-1.46641l5.57819,-0.69389z" data-paper-data="{&quot;index&quot;:null}" fill="#f8ffff"/></g><path d="M256.58678,181.3728l-0.40495,-0.30184" fill="none" stroke="#000000" stroke-width="0.5" stroke-linecap="round"/><path d="M255.22322,181.4274l0.39465,0.23116" fill="none" stroke="#000000" stroke-width="0.5" stroke-linecap="round"/></g><g data-paper-data="{&quot;index&quot;:null}"><g data-paper-data="{&quot;index&quot;:null}" stroke="none" stroke-width="0" stroke-linecap="butt"><path d="M256.96403,172.71207c-0.02691,1.74492 -3.21164,3.96922 -3.21164,3.96922c-0.45112,0.34724 -0.93326,0.49797 -1.43684,0.57959c-0.43858,0.07109 -0.89345,0.08979 -1.35835,0.14026c-0.99867,0.10839 -0.0047,-1.09533 -0.0047,-1.09533c0,0 1.3328,-1.82314 2.35765,-2.43081c0.81128,-0.62604 3.67356,-2.43763 3.65389,-1.16292z" data-paper-data="{&quot;index&quot;:null}" fill="#d757d7"/><path d="M248.34304,177.89401c0,0 2.88433,-1.82442 3.89993,-2.57857c0.68702,-0.51019 1.7528,-1.37035 1.7528,-1.37035c0.31882,-0.1675 1.54604,-0.26313 1.17173,0.45338c-0.29426,0.56328 -2.18266,1.96193 -2.18266,1.96193c0,0 -3.48248,2.30007 -3.95431,2.7442c-1.53135,1.35472 -4.63857,3.21638 -4.63857,3.21638l-0.7096,-1.28434l4.66067,-3.14259z" data-paper-data="{&quot;index&quot;:null}" fill="#f8ffff"/></g><path d="M254.61579,175.56326l-0.53889,-0.14431" fill="none" stroke="#000000" stroke-width="0.5" stroke-linecap="round"/><path d="M255.26824,174.75336l-0.49773,-0.08595" fill="none" stroke="#000000" stroke-width="0.5" stroke-linecap="round"/></g><g data-paper-data="{&quot;index&quot;:null}"><path d="M229.01003,178.07986c0.88024,-3.66613 4.09369,-3.11373 4.3606,-3.09304c0.62522,0.084 1.22274,0.33467 1.75396,0.66959c0.8907,0.55209 1.62797,1.40395 1.90457,2.4276c0.06681,0.49428 0.07322,0.42404 0.16257,0.90881c0.26192,0.74279 0.12412,1.68512 -0.06473,2.41137c-0.12203,0.59729 -0.34056,1.16991 -0.63414,1.70444c-0.20226,0.33878 -0.35821,0.73462 -0.6857,0.97449c-0.30861,0.21857 -0.69647,0.36469 -1.07712,0.27952c-0.9365,-0.15595 -1.87597,-0.30347 -2.79495,-0.54342c-0.24845,-0.07902 -0.53029,-0.12552 -0.73027,-0.30458c-0.14625,-0.22168 -3.25669,-1.01216 -2.19481,-5.43478z" data-paper-data="{&quot;index&quot;:null}" fill="#a0a8a8" stroke="none" stroke-width="0.17188" stroke-linecap="butt"/><path d="M228.99526,174.27261c0.09931,-0.9264 0.40146,-1.53535 0.77284,-1.84383c0.05272,-0.04401 0.08597,-0.00379 0.16573,-0.05294c0.09659,-0.05946 0.26802,-0.24459 0.22884,-0.21121c0,0 0.13537,0.11692 0.21033,0.12828c0.09532,0.01437 0.23313,-0.07563 0.18812,0.00733c0,0 0.15151,-0.02446 0.19797,0.0001c0.50747,0.26788 1.09445,0.88388 1.30692,1.55484c0.55177,-0.19234 -2.78869,1.06049 -3.07072,0.4174z" data-paper-data="{&quot;index&quot;:null}" fill="#ff7fff" stroke="none" stroke-width="0.17188" stroke-linecap="butt"/><path d="M231.11811,183.3238l2.27885,0.72773l1.92372,0.24534l1.38718,0.07079c0.16311,0.00811 -1.47075,1.34379 -1.98862,1.57491c-0.64076,0.28609 -1.2938,0.40888 -1.9471,0.52887c-0.4761,0.08764 -0.65518,0.05991 -0.98103,0.04379l-1.01159,-0.05027c-0.19221,-0.00951 -1.14554,-0.15431 -1.26017,-0.37413c-0.03252,-0.06239 0.59512,-0.58835 0.61187,-0.6625l0.12069,-0.54163c0.03596,-0.16066 -0.18407,-0.72267 -0.26122,-0.88898c-0.05624,-0.12151 -0.54564,-0.84007 -1.14611,-1.05433l-0.59399,-0.21191c-0.08894,-0.03175 -1.10322,-0.04281 -1.1112,-0.08366c-0.01671,-0.08416 -1.24592,0.50286 -1.2675,0.41421c-0.12083,-0.4935 -0.28284,-1.09588 -0.26376,-1.7216c0.02996,-0.98371 0.31642,-1.99665 0.45487,-2.51789c0.02361,-0.08889 0.34686,-1.21549 0.74682,-1.83718c0.63326,-0.98451 1.47559,-1.41586 1.52395,-1.44801c0.75923,-0.50478 1.57413,-0.81733 2.43719,-0.96337l0.70403,-0.02009c0.36036,-0.01032 2.06887,0.05376 3.33973,0.37997c2.67455,0.68654 4.08418,2.62715 3.92437,2.81173c-0.22359,0.25872 -1.88317,0.32894 -1.7668,0.46515c0.25769,0.30189 -0.49195,-1.44937 -1.25927,-2.03086c-0.76733,-0.58151 -2.79763,-0.9969 -2.96332,-1.02676c-0.13093,-0.02374 -0.25553,0.02835 -0.25472,0.16611c0.00046,0.09167 -0.06636,1.13248 0.08015,1.56617c0.14651,0.43369 1.03997,1.50391 0.96472,1.51494c-0.02803,0.00405 -0.36744,0.29521 -0.40246,0.27333c-0.21157,-0.13261 0.17573,0.57511 0.23979,0.66936c0.16843,0.24791 -1.29683,0.42811 -1.89515,1.19212c-0.59833,0.76403 -0.80902,1.69065 -0.68177,1.92283c0.05069,0.09247 0.12619,0.3547 0.1648,0.48971c0.05123,0.17962 0.07776,0.30105 0.15308,0.37609z" data-paper-data="{&quot;index&quot;:null}" fill="#d757d7" stroke="none" stroke-width="0.17188" stroke-linecap="butt"/><path d="M228.60533,186.86495c-0.34827,0.53651 -1.02687,0.94417 -1.5532,1.06676c-0.04819,0.0113 -0.18139,-0.04288 -0.18139,-0.04288c0.02225,0.08186 -0.08342,-0.02646 -0.17398,-0.03458c-0.07118,-0.00641 -0.22203,0.06587 -0.22203,0.06587c0.02832,0.03752 -0.08633,-0.1604 -0.16109,-0.23309c-0.06192,-0.05999 -0.1016,-0.0322 -0.14003,-0.08192c-0.26934,-0.34839 -0.40667,-0.94267 -0.28578,-1.7687c0.15835,-1.08072 1.1641,-1.81174 1.54246,-1.71662c0,0 1.76965,1.82883 1.17505,2.74511z" data-paper-data="{&quot;index&quot;:null}" fill="#ff7fff" stroke="none" stroke-width="0.17188" stroke-linecap="butt"/><path d="M228.29947,183.51851c-0.06452,-0.1696 1.26621,0.61822 1.37361,1.0397c0.1846,0.72482 0.45658,0.71727 0.15347,1.22062c-0.06788,0.1131 -0.34472,0.30125 -0.57628,0.61355c-0.26807,0.36185 -0.5895,0.66115 -0.62509,0.50992l-0.26937,-0.92373l-1.02664,-1.52696c-0.01598,-0.02374 -0.28237,0.16833 -0.64553,0.48002c-0.2547,0.21852 -0.57762,0.56017 -0.77517,0.83998c-0.11635,0.16493 -0.23603,-0.25383 -0.25393,-0.81142c-0.00871,-0.2703 -0.0367,-0.56212 0.05533,-0.85677c0.15952,-0.51025 0.8479,-0.73963 1.48408,-0.72691c0.59578,0.01185 1.14821,0.25485 1.10551,0.14201z" data-paper-data="{&quot;index&quot;:null}" fill="#d757d7" stroke="none" stroke-width="0.17188" stroke-linecap="butt"/><path d="M228.45202,182.76247c1.18473,0.27038 1.93443,1.69689 1.81305,2.06675l-0.04025,0.61935l-0.71091,0.71195c-0.18211,0.18224 0.36793,-1.14824 0.08333,-1.57725c-0.18559,-0.27999 -0.33126,-0.48706 -0.41884,-0.54188c-0.83548,-0.52121 -1.58687,-0.6764 -2.11659,-0.61796c-0.83238,0.09182 -1.21921,0.59839 -1.30208,0.18466c-0.19788,-0.98655 1.39752,-1.14104 2.69227,-0.84564z" data-paper-data="{&quot;index&quot;:null}" fill="#ace6ff" stroke="none" stroke-width="0.17188" stroke-linecap="butt"/><path d="M229.76728,174.85341c0,0 -0.40794,0.18694 -0.7181,0.31347c-0.647,0.26396 -1.1275,0.7861 -1.2514,0.63164c-0.03761,-0.11219 0.21741,-0.57564 0.37885,-0.67913l0.32773,-0.21027c0.57644,-0.36967 1.28545,-0.39497 1.5541,-0.31908c0.11621,0.03281 0.36101,-0.03728 0.48066,0.03764c0,0 -0.48559,0.21562 -0.77186,0.2257z" data-paper-data="{&quot;index&quot;:null}" fill="#ace6ff" stroke="none" stroke-width="0.17188" stroke-linecap="butt"/><path d="M228.38579,174.89022c0,0 0.23055,-1.05318 0.56673,-1.16789c0.22326,-0.07633 0.64371,0.21048 0.82587,0.10218c0.22618,-0.13443 0.74077,-0.2913 1.10549,-0.3517c0.31137,0.03262 0.62628,-0.00296 0.92921,0.21012c0.30899,0.022 0.66783,0.89483 0.56407,0.89722l-1.41021,0.03249c-0.35782,0.00822 -1.08875,0.04729 -1.24096,0.07083z" data-paper-data="{&quot;index&quot;:null}" fill="#d757d7" stroke="none" stroke-width="0.17188" stroke-linecap="butt"/><path d="M231.3893,182.86219c-0.49972,-0.55402 -0.27086,-1.56933 0.20947,-1.96015c0.48035,-0.39084 1.27484,-0.25856 1.77455,0.29548c0.49972,0.55401 0.51541,1.31997 0.03507,1.71082c-0.48035,0.39084 -1.5194,0.50789 -2.01911,-0.04614z" fill="#272d3a" stroke="none" stroke-width="0" stroke-linecap="butt"/><path d="M233.3358,175.31675c0.70232,-0.25179 1.61945,0.27191 1.85782,0.84345c0.23836,0.57154 -0.13777,1.23899 -0.84009,1.49077c-0.70232,0.25177 -1.4649,-0.00745 -1.70326,-0.57901c-0.23836,-0.57154 -0.01678,-1.50347 0.68556,-1.75523z" data-paper-data="{&quot;index&quot;:null}" fill="#272d3a" stroke="none" stroke-width="0" stroke-linecap="butt"/><path d="M233.09477,181.6496l-1.32232,0.77272" fill="none" stroke="#000000" stroke-width="0.25" stroke-linecap="round"/><path d="M231.91502,181.45206l0.99975,1.22515" fill="none" stroke="#000000" stroke-width="0.25" stroke-linecap="round"/><path d="M231.48169,182.80509c-0.17423,-0.11372 -0.22327,-0.34715 -0.10955,-0.52136c0.11372,-0.17423 0.34715,-0.22327 0.52136,-0.10955c0.17423,0.11372 0.22327,0.34715 0.10955,0.52136c-0.11372,0.17423 -0.34715,0.22327 -0.52136,0.10955z" fill="#000000" stroke="none" stroke-width="0" stroke-linecap="butt"/><path d="M232.91633,181.8603c-0.17423,-0.11372 -0.22327,-0.34716 -0.10955,-0.52136c0.11372,-0.17423 0.34716,-0.22327 0.52137,-0.10955c0.17423,0.11372 0.22327,0.34715 0.10955,0.52136c-0.11372,0.17423 -0.34716,0.22327 -0.52137,0.10955z" fill="#000000" stroke="none" stroke-width="0" stroke-linecap="butt"/><path d="M231.58443,181.64526c-0.17423,-0.11372 -0.22327,-0.34716 -0.10954,-0.52137c0.11372,-0.17423 0.34715,-0.22327 0.52136,-0.10955c0.17423,0.11372 0.22327,0.34715 0.10955,0.52136c-0.11372,0.17422 -0.34716,0.22327 -0.52137,0.10955z" fill="#000000" stroke="none" stroke-width="0" stroke-linecap="butt"/><path d="M232.75626,182.9827c-0.17423,-0.11372 -0.22327,-0.34716 -0.10955,-0.52136c0.11372,-0.17423 0.34716,-0.22327 0.52137,-0.10955c0.17423,0.11372 0.22327,0.34715 0.10955,0.52136c-0.11372,0.17423 -0.34716,0.22327 -0.52137,0.10955z" fill="#000000" stroke="none" stroke-width="0" stroke-linecap="butt"/><path d="M234.54118,176.17498l-1.32232,0.77272" fill="none" stroke="#000000" stroke-width="0.25" stroke-linecap="round"/><path d="M233.36141,175.97743l0.99975,1.22515" fill="none" stroke="#000000" stroke-width="0.25" stroke-linecap="round"/><path d="M232.92809,177.33048c-0.17423,-0.11372 -0.22327,-0.34715 -0.10955,-0.52136c0.11372,-0.17423 0.34716,-0.22327 0.52137,-0.10955c0.17423,0.11372 0.22327,0.34716 0.10954,0.52137c-0.11372,0.17423 -0.34715,0.22327 -0.52136,0.10955z" fill="#000000" stroke="none" stroke-width="0" stroke-linecap="butt"/><path d="M234.36273,176.38569c-0.17423,-0.11372 -0.22327,-0.34716 -0.10955,-0.52136c0.11372,-0.17423 0.34715,-0.22327 0.52136,-0.10955c0.17423,0.11372 0.22327,0.34715 0.10955,0.52136c-0.11372,0.17423 -0.34716,0.22327 -0.52136,0.10955z" fill="#000000" stroke="none" stroke-width="0" stroke-linecap="butt"/><path d="M233.03082,176.17063c-0.17423,-0.11372 -0.22327,-0.34716 -0.10954,-0.52137c0.11372,-0.17423 0.34716,-0.22327 0.52137,-0.10955c0.17423,0.11372 0.22327,0.34715 0.10955,0.52136c-0.11372,0.17422 -0.34717,0.22327 -0.52137,0.10956z" fill="#000000" stroke="none" stroke-width="0" stroke-linecap="butt"/><path d="M234.20266,177.50809c-0.17423,-0.11372 -0.22327,-0.34716 -0.10955,-0.52136c0.11372,-0.17423 0.34715,-0.22327 0.52136,-0.10955c0.17423,0.11372 0.22327,0.34715 0.10955,0.52136c-0.11372,0.17423 -0.34716,0.22327 -0.52136,0.10955z" fill="#000000" stroke="none" stroke-width="0" stroke-linecap="butt"/></g><g data-paper-data="{&quot;index&quot;:null}"><g data-paper-data="{&quot;index&quot;:null}" stroke="none" stroke-width="0" stroke-linecap="butt"><path d="M242.5912,179.40642c0,0 1.75636,-5.13512 1.72996,-5.3127c-0.02641,-0.17759 0.42551,-0.27254 0.90021,-0.35717c0.47469,-0.08464 1.55223,-0.0431 1.55223,-0.0431c0,0 -0.41549,0.00716 -0.9369,0.87289c-0.30861,0.51238 -0.71149,1.50906 -1.14482,2.20714c-0.78615,1.26646 -2.10067,2.63296 -2.10067,2.63296z" fill="#d757d7"/><path d="M243.31431,178.44735c-2.35868,3.50797 -4.3109,3.43574 -4.3109,3.43574c0,0 -0.30149,0.178 0.54498,-1.01353c0.29113,-0.4098 -0.01246,-1.67759 1.23411,-3.89712c1.59493,-2.83977 3.86046,-3.1302 3.86046,-3.1302c0,0 0.36905,2.08015 -1.32866,4.6051z" fill="#f8ffff"/></g><path d="M244.21137,175.69004l0.57119,-0.36538" fill="none" stroke="#000000" stroke-width="0.25" stroke-linecap="round"/><path d="M244.46128,174.55279l0.54179,-0.23158" fill="none" stroke="#000000" stroke-width="0.25" stroke-linecap="round"/></g><g data-paper-data="{&quot;index&quot;:null}"><g data-paper-data="{&quot;index&quot;:null}" stroke="none" stroke-width="0" stroke-linecap="butt"><path d="M250.39566,177.47756c0,0 -1.19289,0.44663 -2.04777,1.18905c-0.85486,0.74243 -2.52892,3.04758 -2.52892,3.04758l-2.2026,-4.63555c0,0 1.81679,-0.90454 3.16972,-1.07787c1.78967,-0.22929 3.60957,1.47677 3.60957,1.47677z" fill="#d757d7"/><path d="M247.15277,177.28163c0.83721,1.18743 -1.27823,5.06597 -3.02965,6.10183c-1.87215,1.10724 -5.07643,-0.00193 -5.07643,-0.00193l-0.19218,-0.85766c0,0 1.16223,-0.31826 1.89362,-2.10205c1.07241,-2.61542 2.24569,-2.90414 2.86826,-3.34318c0.6273,-0.44238 2.66546,-1.03228 3.53638,0.20297z" fill="#f8ffff"/></g><path d="M247.05038,178.98593l0.46625,-0.34696" fill="none" stroke="#000000" stroke-width="0.25" stroke-linecap="round"/><path d="M247.03597,177.66852l0.45632,-0.27918" fill="none" stroke="#000000" stroke-width="0.25" stroke-linecap="round"/><path d="M246.16675,176.98719l0.55392,-0.47254" fill="none" stroke="#000000" stroke-width="0.25" stroke-linecap="round"/></g><g data-paper-data="{&quot;index&quot;:null}"><g data-paper-data="{&quot;index&quot;:null}" stroke="none" stroke-width="0" stroke-linecap="butt"><path d="M251.39343,186.00374c0,0 -1.4069,2.65848 -4.75534,2.00596c-0.63398,-0.12356 2.21383,-0.67715 2.20888,-1.43678c-0.00495,-0.75953 -2.85944,-2.37595 -2.85944,-2.37595c0,0 2.67939,1.2581 3.43241,1.4693c0.753,0.2112 1.97352,0.3375 1.97352,0.3375z" fill="#d757d7"/><path d="M239.56551,184.91167c0,0 4.81077,-1.09859 6.34324,-0.6532c1.41479,0.4112 4.03397,2.56666 3.17318,3.22618c-0.86079,0.6595 -3.41971,0.71072 -5.41815,-0.30491c-1.64929,-0.83816 -4.09825,-2.26809 -4.09825,-2.26809z" fill="#f8ffff"/></g><path d="M249.20028,186.1667l-0.88532,0.11704" fill="none" stroke="#000000" stroke-width="0.25" stroke-linecap="round"/><path d="M249.01548,187.21381l0.57917,-0.10836" fill="none" stroke="#000000" stroke-width="0.25" stroke-linecap="round"/></g><g data-paper-data="{&quot;index&quot;:null}"><g data-paper-data="{&quot;index&quot;:null}" stroke="none" stroke-width="0" stroke-linecap="butt"><path d="M244.99966,182.09704c0,0 1.86177,-0.55524 3.10477,-0.15861c1.49621,0.47744 3.90081,0.73512 3.90081,0.73512c0,0 -2.38207,2.62016 -3.63734,3.40826c-2.17195,1.36743 -3.37283,0.97094 -3.37283,0.97094c0,0 2.82017,-1.82055 2.87804,-2.81136c0.05704,-0.97635 -2.87349,-2.14434 -2.87349,-2.14434z" fill="#d757d7"/><path d="M245.05009,187.13489c-0.15648,0.01279 -2.42786,0.09207 -3.57054,-0.76612c-1.5166,-1.139 -2.10563,-0.23528 -1.96477,-1.13047c0.14088,-0.89519 1.06269,-2.43391 2.59361,-2.75594c1.27424,-0.26807 2.92561,-0.38664 2.92561,-0.38664c0,0 3.34126,0.79005 3.08526,2.22811c-0.32837,1.61808 -2.90589,2.79769 -3.06915,2.81104z" fill="#f8ffff"/></g><path d="M246.78951,182.85723l0.51052,-0.15982" fill="none" stroke="#000000" stroke-width="0.25" stroke-linecap="round"/><path d="M247.96506,183.94114l0.4325,-0.29161" fill="none" stroke="#000000" stroke-width="0.25" stroke-linecap="round"/><path d="M247.32122,185.31895l0.75744,-0.16362" fill="none" stroke="#000000" stroke-width="0.25" stroke-linecap="round"/></g><g data-paper-data="{&quot;index&quot;:null}"><path d="M240.03903,184.91678c-0.49985,0.19757 -1.72145,-0.32658 -2.67108,-0.90945c-0.94962,-0.58288 -1.0085,-1.21369 -0.98128,-1.33239c0.03437,-0.14993 0.06122,-1.37989 0.60488,-1.97522c0.54367,-0.59532 0.89496,-0.27077 1.48895,-0.31752c0.59398,-0.04675 1.56937,0.01345 1.74275,0.06317c0.44396,0.12749 -0.07711,1.47559 0.14262,1.77894c0,0 0.14313,2.42477 -0.32684,2.69244z" data-paper-data="{&quot;index&quot;:null}" fill="#d757d7" stroke="none" stroke-width="0.17188" stroke-linecap="butt"/><path d="M240.10162,183.52233c0.1369,-0.59714 -0.14133,-0.91476 0.19029,-1.02135c0.17125,-0.05505 0.36347,0.64411 0.19332,1.23234c-0.32208,0.63232 -0.18806,1.49773 -0.18806,1.49773l-0.53998,-0.3536c0,0 0.20751,-0.75798 0.34442,-1.35511z" data-paper-data="{&quot;index&quot;:null}" fill="#ace6ff" stroke="none" stroke-width="0" stroke-linecap="butt"/><path d="M240.15398,180.36817l0.5559,-0.22196c0,0 -0.34805,0.63657 -0.25062,1.33947c-0.03169,0.61152 -0.46254,0.71517 -0.39651,0.10611c0.06603,-0.60906 0.09121,-1.22361 0.09121,-1.22361z" data-paper-data="{&quot;index&quot;:null}" fill="#ace6ff" stroke="none" stroke-width="0" stroke-linecap="butt"/><path d="M239.8669,183.36879l0.35373,0.16166" fill="none" stroke="#000000" stroke-width="0.25" stroke-linecap="round"/><path d="M239.71376,184.29103l0.29964,0.16215" fill="none" stroke="#000000" stroke-width="0.25" stroke-linecap="round"/><path d="M239.88249,181.27075l0.30491,0.03818" fill="none" stroke="#000000" stroke-width="0.25" stroke-linecap="round"/><path d="M240.33808,180.53696l-0.40494,0.05798" fill="none" stroke="#000000" stroke-width="0.25" stroke-linecap="round"/></g><g data-paper-data="{&quot;index&quot;:null}"><g stroke="#ffffff" stroke-width="0" stroke-linecap="butt"><path d="M236.27341,178.25588l0.71385,-0.15727l0.69211,2.63291l-0.85788,-0.04735z" data-paper-data="{&quot;index&quot;:null}" fill="#d757d7"/><path d="M234.92053,174.81382l1.52627,0.16549c0,0 0.63676,2.01728 0.59273,3.08502c-0.01821,0.44191 -0.57273,0.6818 -0.94713,0.15368c-0.34997,-0.49367 -1.17188,-3.40419 -1.17188,-3.40419z" data-paper-data="{&quot;index&quot;:null}" fill="#ace6ff"/><path d="M237.52506,173.08754c1.44665,-0.24364 3.05386,0.92534 2.92015,1.30354c-0.42279,1.19576 -1.10756,1.46305 -2.5296,1.82351c-1.72239,0.43659 -3.32055,-1.17368 -3.11682,-2.02998c0.06669,-0.28036 1.27966,-0.85343 2.72629,-1.09706z" data-paper-data="{&quot;index&quot;:null}" fill="#f8ffff"/></g><path d="M239.94548,175.19031c0,0 -1.51047,0.19799 -2.42845,-0.10738c-0.91798,-0.30537 -2.18177,-1.20802 -2.18177,-1.20802" data-paper-data="{&quot;index&quot;:null}" fill="none" stroke="#000000" stroke-width="0.5" stroke-linecap="round"/><path d="M235.92515,174.69492l0.36283,-0.74493" data-paper-data="{&quot;index&quot;:null}" fill="none" stroke="#f8ffff" stroke-width="0.5" stroke-linecap="round"/><path d="M237.38621,174.61174l-0.25894,0.60105" data-paper-data="{&quot;index&quot;:null}" fill="none" stroke="#f8ffff" stroke-width="0.5" stroke-linecap="round"/><path d="M238.21109,175.47011l0.18061,-0.61385" data-paper-data="{&quot;index&quot;:null}" fill="none" stroke="#f8ffff" stroke-width="0.5" stroke-linecap="round"/><path d="M239.42437,175.42692l0.07671,-0.46998" data-paper-data="{&quot;index&quot;:null}" fill="none" stroke="#f8ffff" stroke-width="0.5" stroke-linecap="round"/></g><g data-paper-data="{&quot;index&quot;:null}" stroke="none" stroke-linecap="butt"><path d="M236.73859,181.72409c-0.02933,-0.18136 0.15067,-0.31587 0.46503,-0.3867c0.31437,-0.07085 0.76329,-0.07814 1.2718,-0.00484c0.50843,0.07325 0.98103,0.21333 1.33394,0.38028c0.35286,0.16706 0.58587,0.36104 0.6152,0.54239c0.0293,0.18123 -0.1507,0.31573 -0.46514,0.38666c-0.31437,0.07085 -0.76323,0.07805 -1.27176,0.00476c-0.50843,-0.07325 -0.98109,-0.21322 -1.33394,-0.38028c-0.35291,-0.16696 -0.58586,-0.36105 -0.61516,-0.54226z" fill="#03e1b6" stroke-width="0.01872"/><path d="M238.64509,181.62344c0.47959,0.09095 0.83676,0.3313 0.79779,0.53684c-0.03898,0.20553 -0.45935,0.29842 -0.93894,0.20747c-0.47959,-0.09095 -0.83676,-0.3313 -0.79779,-0.53684c0.03898,-0.20553 0.45935,-0.29842 0.93894,-0.20747z" fill="#216375" stroke-width="0"/><path d="M236.91291,181.87519c0.00904,-0.07264 0.0948,-0.11247 0.22607,-0.11809c0.13134,-0.00569 0.30818,0.02287 0.49933,0.0869c0.19121,0.06399 0.36072,0.15152 0.48022,0.24118c0.11955,0.08972 0.18908,0.18153 0.18004,0.25416c-0.00891,0.07263 -0.09473,0.11242 -0.22608,0.1181c-0.13134,0.00569 -0.30818,-0.02287 -0.49927,-0.08685c-0.19115,-0.06405 -0.36079,-0.1516 -0.48029,-0.24125c-0.11955,-0.08972 -0.18901,-0.18147 -0.18002,-0.25417z" fill="#000000" stroke-width="0.01896"/></g><g data-paper-data="{&quot;index&quot;:null}"><g stroke="none" stroke-width="0" stroke-linecap="butt"><path d="M235.77164,180.84233l0.69161,-0.23665l0.98421,2.53823l-0.85776,0.04956z" fill="#d757d7"/><path d="M235.58752,180.82507c-0.40334,-0.45111 -1.54778,-3.25055 -1.54778,-3.25055l1.5352,-0.00744c0,0 0.85988,1.93273 0.93639,2.99865c0.03166,0.44114 -0.49231,0.74194 -0.92378,0.25934z" fill="#ace6ff"/><path d="M236.4985,175.68862c1.43146,-0.32101 3.09915,0.75994 2.98595,1.14477c-0.35794,1.21674 -1.02737,1.52044 -2.42797,1.95679c-1.69646,0.5285 -3.3788,-0.9936 -3.22139,-1.85961c0.05155,-0.28353 1.23196,-0.92095 2.66341,-1.24195z" fill="#f8ffff"/></g><path d="M238.71368,177.80447c0,0 -1.48856,0.32393 -2.42891,0.09662c-0.94035,-0.22731 -2.27538,-1.0208 -2.27538,-1.0208" fill="none" stroke="#000000" stroke-width="0.5" stroke-linecap="round"/><path d="M234.66598,177.64798l0.29908,-0.77274" fill="none" stroke="#f8ffff" stroke-width="0.5" stroke-linecap="round"/><path d="M236.1149,177.44256l-0.20762,0.62065" fill="none" stroke="#f8ffff" stroke-width="0.5" stroke-linecap="round"/><path d="M237.00886,178.22874l0.12851,-0.62683" fill="none" stroke="#f8ffff" stroke-width="0.5" stroke-linecap="round"/><path d="M238.21425,178.08393l0.03703,-0.47474" fill="none" stroke="#f8ffff" stroke-width="0.5" stroke-linecap="round"/></g><g data-paper-data="{&quot;index&quot;:null}"><path d="M227.82325,179.08405c0,0 -1.99997,-0.72214 -3.03539,-1.55986c-1.03542,-0.83774 -1.33863,-2.57265 -1.33863,-2.57265l0.75138,-0.03189c0,0 0.05477,1.22531 1.04135,2.01877c0.98659,0.79345 2.78177,1.5031 2.78177,1.5031z" fill="#565e69" stroke="none" stroke-width="0" stroke-linecap="butt"/><path d="M223.68965,175.71537l-1.96407,-3.10403l1.04939,-0.35411l0.57346,-0.91589l1.0986,0.21167l0.50157,0.90537l0.59863,0.35332z" fill="#00eb5c" stroke="none" stroke-width="0" stroke-linecap="butt"/><path d="M223.77792,175.57226l0.27954,-3.79623" fill="none" stroke="#000000" stroke-width="0.25" stroke-linecap="round"/><path d="M225.55301,172.78469l-1.77575,1.22571l-2.17492,-1.40788" fill="none" stroke="#000000" stroke-width="0.25" stroke-linecap="round"/></g></g></g></svg>