<svg version="1.1" xmlns="http://www.w3.org/2000/svg" xmlns:xlink="http://www.w3.org/1999/xlink" width="5.72523" height="7.80376" viewBox="0,0,5.72523,7.80376"><defs><radialGradient cx="240" cy="182.10412" r="2.93603" gradientUnits="userSpaceOnUse" id="color-1"><stop offset="0" stop-color="#95d5ef"/><stop offset="1" stop-color="#2882af"/></radialGradient></defs><g transform="translate(-237.12366,-176.09812)"><g data-paper-data="{&quot;isPaintingLayer&quot;:true}" fill-rule="nonzero" stroke="none" stroke-miterlimit="10" stroke-dasharray="" stroke-dashoffset="0" style="mix-blend-mode: normal"><path d="" fill="#000000" stroke-width="1" stroke-linecap="round" stroke-linejoin="round"/><path d="" fill="#ee1a40" stroke-width="1" stroke-linecap="round" stroke-linejoin="round"/><g stroke-width="0" stroke-linecap="butt" stroke-linejoin="miter"><path d="M240.37774,178.72655c1.0069,0.5691 2.31986,1.00257 2.45005,2.92923c0.08066,1.19344 -0.82335,2.29408 -3.05465,1.95265c-2.7523,-0.33598 -2.63556,-2.19423 -2.60387,-2.77056c0.06938,-1.26206 1.50625,-2.51659 2.09982,-2.87363c0.10268,-0.06176 0.16975,-0.17552 0.21126,-0.17326c0.02859,0.00156 0.38556,0.64628 0.8974,0.93556z" data-paper-data="{&quot;index&quot;:null}" fill="#9ad6ef"/><path d="M240.49537,176.96511c-0.04913,0.42786 -0.41569,0.79722 -0.83473,0.74911c-0.41904,-0.04811 -0.70985,-0.51297 -0.66073,-0.94081c0.0491,-0.42784 0.4066,-0.71819 0.82564,-0.67009c0.41905,0.0481 0.71893,0.43395 0.66981,0.86179z" data-paper-data="{&quot;index&quot;:null}" fill="#eaec6e"/><path d="M239.75034,178.14695c0.11393,0.17159 0.34663,0.37441 0.34663,0.37441c0,0 -0.35871,0.21571 -0.62136,0.26975c-0.37219,0.07656 -1.05767,-0.14696 -1.05767,-0.14696c0,0 0.24788,-0.22495 0.4994,-0.44133c0.26081,-0.22439 0.50001,-0.4307 0.56509,-0.42435c0.06796,0.00662 0.15129,0.19284 0.26791,0.36848z" data-paper-data="{&quot;index&quot;:null}" fill="#eaec6e"/><path d="M242.53504,180.30636c0,0 1.64252,3.61339 -2.58751,3.59545c-3.40308,-0.01443 -2.77891,-3.20622 -2.77891,-3.20622l1.34078,1.24625l1.72993,-1.6225l0.68806,1.62826z" fill="url(#color-1)"/></g></g></g></svg>