<svg version="1.1" xmlns="http://www.w3.org/2000/svg" xmlns:xlink="http://www.w3.org/1999/xlink" width="199.22" height="122.35378" viewBox="0,0,199.22,122.35378"><g transform="translate(-128.36866,-136.6019)"><g data-paper-data="{&quot;isPaintingLayer&quot;:true}" fill-rule="nonzero" stroke-miterlimit="10" stroke-dasharray="" stroke-dashoffset="0" style="mix-blend-mode: normal"><g data-paper-data="{&quot;index&quot;:null}" stroke-width="0" stroke-linecap="butt" stroke-linejoin="miter"><g data-paper-data="{&quot;index&quot;:null}"><path d="M170.92333,208.71058c-3.04064,-3.10259 -2.99966,-8.07361 0.09156,-11.1031c3.09119,-3.02953 8.06203,-2.97028 11.10267,0.13231c3.04064,3.10259 2.99972,8.07368 -0.0915,11.10317c-3.09119,3.02953 -8.0621,2.97021 -11.10273,-0.13237z" fill="#e0cb17" stroke="none"/><path d="M178.27739,208.71101c-1.90975,1.87165 -4.9807,1.83505 -6.85925,-0.08175c-1.87855,-1.9168 -1.85317,-4.98789 0.05658,-6.85953c1.90978,-1.87166 4.98072,-1.83501 6.85927,0.08179c1.87856,1.91684 1.85317,4.98789 -0.05658,6.85953z" fill="#e0cb17" stroke="#000000"/><path d="M169.76543,210.40165c-1.65657,-1.70541 -2.6863,-4.81258 -2.6863,-4.81258l2.22828,-0.57493c0,0 0.85118,2.80272 2.21973,4.04941c1.36858,1.24677 4.33465,1.9214 4.33465,1.9214l-1.36025,2.5743c0,0 -3.28638,-1.66506 -4.73618,-3.1576z" fill="#dbded5" stroke="#000000"/></g><g data-paper-data="{&quot;index&quot;:null}" stroke="none"><path d="M153.20109,204.95085l-0.16325,-1.29083l15.79103,-1.0494l-0.06486,0.81311z" fill="#6e6e73"/><path d="M165.77828,202.42883l0.01349,1.88958l-7.2998,0.46534l0.07298,-1.80142z" fill="#ddcb1e"/></g></g><path d="M136.60699,239.74802c-5.47738,-1.027 -9.08819,-6.28353 -8.06495,-11.74078c1.02324,-5.45725 6.29302,-9.04869 11.7704,-8.02169c5.47742,1.02703 9.08821,6.28359 8.06496,11.74084c-1.02324,5.45725 -6.29302,9.04869 -11.77041,8.02169z" fill="#e0cb17" stroke="none" stroke-width="0" stroke-linecap="butt" stroke-linejoin="miter"/><path d="M131.35801,231.90909c0.63217,-3.37153 3.88786,-5.59026 7.27178,-4.95581c3.38395,0.63449 5.61468,3.88195 4.98251,7.25347c-0.63215,3.3715 -3.88782,5.59035 -7.27174,4.95589c-3.38393,-0.63451 -5.61472,-3.88202 -4.98254,-7.25356z" fill="#e0cb17" stroke="#000000" stroke-width="0" stroke-linecap="butt" stroke-linejoin="miter"/><path d="M223.79452,227.88544c-1.7899,-0.69165 -11.89241,-1.05515 -12.17019,-6.30411c-0.04314,-0.81465 4.6993,-7.52403 8.86536,-8.82829c5.66702,-1.77419 11.23755,1.90933 11.23755,1.90933l0.97151,12.64214c0,0 -7.1144,1.27264 -8.90426,0.58101z" fill="#e4dcaa" stroke="none" stroke-width="0" stroke-linecap="butt" stroke-linejoin="miter"/><path d="M241.5064,225.95048c-3.3878,0.88366 -8.86486,1.37294 -8.86486,1.37294c0,0 -1.59121,-2.18078 -2.14992,-3.62236c-0.55871,-1.44158 -0.97111,-3.87143 -0.97111,-3.87143l2.76827,-5.25835c0,0 12.04871,-1.84433 13.59639,-2.0256c3.11691,-0.36505 5.92788,5.23262 5.92788,5.23262l-1.55984,4.95139c0,0 -5.35908,2.33718 -8.7469,3.22088z" fill="#dfcc17" stroke="none" stroke-width="0" stroke-linecap="butt" stroke-linejoin="miter"/><path d="M154.86121,247.32472l-0.1053,-1.04115l39.84124,2.55879l0.82765,1.50216z" fill="#6e6e73" stroke="none" stroke-width="0" stroke-linecap="butt" stroke-linejoin="miter"/><path d="M167.92992,246.48095l0.14269,2.30837l-9.37498,-0.39796l-0.03414,-2.42392z" fill="#ddcb1e" stroke="none" stroke-width="0" stroke-linecap="butt" stroke-linejoin="miter"/><g stroke="none" stroke-width="0" stroke-linecap="butt" stroke-linejoin="miter"><path d="M261.18688,206.29088c0.51071,0.15762 2.93252,3.5232 3.78867,5.18537c0.46753,0.90782 1.34967,2.59354 0.24277,3.90448c-0.28213,0.33414 -2.27585,1.09214 -2.27585,1.09214l-0.08201,1.65203c0,0 -0.63763,0.75108 -1.2019,0.94476c-0.56428,0.19367 -1.67306,0.12176 -1.67306,0.12176c0,0 -0.41473,0.53516 -0.62824,0.97069c-0.69683,1.42146 -2.08182,0.88687 -2.08182,0.88687c0,0 -0.38738,1.08906 -1.07198,1.57178c-1.08524,0.76528 -2.76491,1.04107 -3.67545,0.8867c-1.54677,-0.26218 -5.56462,-1.98933 -5.64916,-3.44787c-0.13164,-2.27166 2.66618,-2.10603 2.66618,-2.10603c0,0 -1.97936,-1.31291 -2.60048,-2.60958c-0.95637,-1.99665 -0.62257,-3.39182 -0.62257,-3.39182l6.1094,-7.5087c0,0 5.55014,0.85808 8.75551,1.84746z" fill="#ffffff"/><path d="M237.01669,201.77593c4.76338,1.26037 9.75118,2.25932 9.75118,2.25932c0,0 -0.86245,1.94023 -1.58085,2.9344c-0.71839,0.99417 -1.66318,1.27682 -1.66318,1.27682c0,0 -6.16066,-2.05068 -8.08235,-2.55913c-3.15217,-0.83404 -7.19021,-1.72754 -11.82808,-2.65255c-1.16209,-0.23175 -1.71524,-0.97284 -1.52733,-2.16757c0.12625,-0.80265 0.56906,-1.49988 2.0458,-1.39955c4.45964,0.30291 9.55311,1.42673 12.88479,2.3083z" fill="#fff9fb"/><g><path d="M244.05644,212.17225c-3.75352,-1.88011 -2.91653,-4.63462 -1.34188,-7.65696c1.57465,-3.02232 3.32147,-5.22732 7.04412,-3.28782c3.72258,1.93948 2.91653,4.63463 1.34188,7.65695c-1.57465,3.02232 -3.29147,5.16748 -7.04412,3.28784z" fill="#fed000"/><path d="M243.1928,213.82992c-3.07807,-1.50535 -1.75851,-4.97494 0.29313,-8.91276c2.05162,-3.93785 4.09866,-6.93009 7.13645,-5.34738c3.03779,1.5827 1.7585,4.97493 -0.29313,8.91275c-2.05162,3.93785 -4.05908,6.85234 -7.13645,5.3474z" fill="#e68b9c"/></g></g><g stroke="none" stroke-width="0" stroke-linecap="butt" stroke-linejoin="miter"><g><path d="M278.5042,215.94758c0,0 1.33127,0.67067 3.13724,0.3579c2.2002,-0.38112 3.28549,-2.1638 6.54022,-3.39217c7.05211,-2.66153 13.81304,-1.48796 15.32014,-14.36627c-0.16297,-1.4876 -1.33282,-3.73085 -1.33282,-3.73085c0,0 1.27144,-0.23578 2.05125,0.1052c0.77982,0.34099 1.59373,1.48867 1.59373,1.48867l-0.14233,1.01428l0.68036,0.11348c0,0 0.28853,0.6273 0.37355,1.28455c0.08503,0.65726 0.14502,1.43378 0.05503,1.6927c-0.11003,0.31657 -0.45783,-0.21102 -0.46513,0.2316c-0.00451,0.27313 -0.12112,0.36998 -0.12253,0.6301c-0.00212,0.39934 0.46691,-0.08545 0.43283,0.32503c-0.0879,1.05971 -0.75892,2.56146 -0.89509,3.19304c-0.11363,0.52681 -1.15551,0.25387 -1.15551,0.25387l-0.14749,0.66583l0.54709,0.4479c0,0 -1.21444,1.55215 -1.50283,2.08131c-0.8976,1.64699 -1.72625,0.82568 -1.72625,0.82568l-0.65068,0.63325l0.39591,0.58423l-2.55415,1.79419l-0.79454,-0.18791c0,0 -3.30815,0.66074 -4.71155,1.56853c-1.40744,0.91037 -3.72111,3.88594 -3.72111,3.88594l0.58448,0.7714l-2.67454,1.5621l-1.31826,-0.6914c0,0 0.29332,1.05309 -0.18143,1.18431c-5.10919,1.41208 -7.61559,-4.32646 -7.61559,-4.32646z" data-paper-data="{&quot;index&quot;:null}" fill="#a87643"/><path d="M284.71561,203.69409c7.0267,0.24243 9.62549,4.64228 9.62549,4.64228c0,0 -9.06074,7.65858 -12.64018,8.32899c-2.66945,0.49992 -6.64221,-3.30334 -6.64221,-3.30334c0,0 -4.93313,-0.44063 -6.54099,-0.50631c-1.60786,-0.06565 -4.31702,-0.44785 -4.31702,-0.44785c0,0 1.13866,-7.03636 2.0342,-8.34204c0.73285,-0.98474 14.45707,-0.51058 18.4807,-0.37177z" data-paper-data="{&quot;index&quot;:null}" fill="#f3e2e2"/><path d="M263.53431,206.42329c-0.45754,-0.52915 -0.44894,-3.5118 0.89111,-6.33639c0.40145,-0.84619 5.45114,0.10711 11.75979,-0.22116c3.52197,-0.18327 8.79557,-1.30939 11.93872,-1.83841c3.37792,-0.56852 6.64718,-3.79286 7.41256,-3.89183c2.75331,-0.35598 6.80593,0.62656 6.84143,0.68072c0.01983,0.03025 3.22706,3.48945 0.99473,9.04807c-2.96139,7.37388 -15.52256,9.30607 -15.52256,9.30607c0,0 -2.24624,-2.21286 -0.12509,-3.00937c2.65293,-0.93506 2.11385,-0.51395 4.13586,-1.0377c0.77288,-0.13451 1.92798,-0.45402 1.90511,-0.59261c-0.23353,-1.41573 -5.26476,-4.14208 -7.79931,-4.52119c-2.05441,-0.30727 -6.13982,-0.34128 -9.6816,-0.19395c-3.11069,0.12941 -6.12091,-0.17038 -8.13964,-0.1595c-1.22701,0.00664 -2.05544,0.62901 -2.05544,0.62901c0,0 -1.81997,2.98917 -2.55578,2.1382z" data-paper-data="{&quot;index&quot;:null}" fill="#fc6293"/><path d="M286.57126,198.88038c0,0 -5.23762,1.09947 -8.80084,1.14314c-4.70081,0.05764 -10.48731,-0.16921 -12.05398,-0.02965c-0.78814,0.0702 -1.53041,1.43053 -1.53041,1.43053l-0.29544,-0.45058c0,0 0.65868,-1.55906 1.67108,-1.53329c5.81905,0.14816 9.10046,0.41426 12.50169,-0.0233c2.45711,-0.31612 10.85674,-1.54007 10.85674,-1.54007z" data-paper-data="{&quot;index&quot;:null}" fill="#766565"/><path d="M279.61835,209.35802l-4.65553,-0.15639l0.12379,-2.51152l4.78323,0.35111z" data-paper-data="{&quot;index&quot;:null}" fill="#fffff6"/><path d="M272.30534,209.67098l-3.79597,-0.15195l0.17245,-2.24858l4.00939,-0.06603z" data-paper-data="{&quot;index&quot;:null}" fill="#fffff6"/><path d="M271.1862,199.7521c0,0 0.62857,0.87721 1.10148,2.72556c0.47291,1.84831 0.3789,4.74006 0.3789,4.74006l-4.00374,0.00813c0,0 0.34456,-2.06776 0.11769,-3.71259c-0.22688,-1.64482 -1.19304,-4.08382 -1.19304,-4.08382l3.59865,0.32259z" data-paper-data="{&quot;index&quot;:null}" fill="#754c86"/><path d="M280.00043,203.23018c0.10616,1.59637 -0.0745,3.92713 -0.0745,3.92713l-4.81876,-0.27582c0,0 0.12263,-1.66397 -0.12519,-3.16695c-0.24781,-1.50297 -1.08577,-3.98412 -1.08577,-3.98412c0,0 1.8779,-0.10475 2.87425,-0.18424c0.99637,-0.07949 2.54916,-0.24837 2.54916,-0.24837c0,0 0.57459,2.33604 0.68079,3.9324z" data-paper-data="{&quot;index&quot;:null}" fill="#754c86"/><path d="M264.23377,212.33679c0,0 -0.68525,-1.25894 -0.80521,-2.10506c-0.07258,-0.51213 -0.05983,-1.81451 -0.18703,-3.19627c-0.12722,-1.38176 0.0551,-1.7466 0.0551,-1.7466l1.11343,6.37067z" data-paper-data="{&quot;index&quot;:null}" fill="#ae8484"/><path d="M264.87655,201.55617c0.58987,0.00911 1.01287,0.51174 1.06142,2.02238c0.04855,1.51064 -0.19359,1.11385 -0.70185,3.95112c-0.22874,1.39082 -0.80339,4.06611 -0.80339,4.06611c0,0 -1.00911,-1.76494 -0.95683,-5.13966c0.05227,-3.37475 0.57027,-4.91997 1.36305,-4.90772z" data-paper-data="{&quot;index&quot;:null}" fill="#532c31"/></g><path d="M263.49271,209.68432c0,0 -2.37826,1.99478 -3.71348,1.32618c-1.33523,-0.66859 -0.99761,-2.15759 -0.19304,-3.31573c0.80455,-1.15813 3.66146,-1.67698 3.66146,-1.67698z" fill="#f3e2e2"/></g><g stroke="none" stroke-width="0" stroke-linecap="butt" stroke-linejoin="miter"><path d="M243.86431,205.13952l14.72128,-1.25347l7.58914,-0.50292l-0.75251,4.71195l-8.21894,1.05447l-13.61966,0.98431z" data-paper-data="{&quot;index&quot;:null}" fill="#8e5173"/><path d="M255.59785,204.20125l2.98774,-0.31533l7.58913,-0.50292l-0.7525,4.71197l-8.21894,1.05446l-1.9528,0.12352z" data-paper-data="{&quot;index&quot;:null}" fill="#c5c0b5"/><path d="M256.26903,209.22961l-1.02274,0.01148l0.32907,-5.07821l1.08166,-0.0798z" fill="#af2753"/><path d="M258.17787,209.08879l-1.02274,0.01149l0.32906,-5.07822l1.08166,-0.0798z" fill="#af2753"/></g><g stroke="none" stroke-width="0" stroke-linecap="butt" stroke-linejoin="miter"><path d="M261.97505,219.01643c0,0 -1.8429,2.4978 -3.29781,2.1617c-1.45492,-0.3361 -1.47671,-1.86271 -0.96684,-3.17748c0.50987,-1.31481 3.16483,-2.49049 3.16483,-2.49049z" fill="#fc6293"/><g><path d="M276.7837,222.45461c0,0 1.41092,0.68083 3.30298,0.31972c2.30509,-0.43994 3.41356,-2.33261 6.81145,-3.68178c7.36248,-2.92325 14.48782,-1.81137 15.84032,-15.37073c-0.1979,-1.56024 -1.46742,-3.89639 -1.46742,-3.89639c0,0 1.33176,-0.2706 2.15728,0.07372c0.82553,0.34432 1.70136,1.53569 1.70136,1.53569l-0.13137,1.06833l0.71695,0.10707c0,0 0.31443,0.65397 0.41557,1.34308c0.10118,0.68911 0.17807,1.504 0.08816,1.7777c-0.1099,0.33466 -0.48486,-0.2135 -0.48458,0.25171c0.00013,0.28706 -0.12066,0.39091 -0.11741,0.66425c0.00496,0.41965 0.48905,-0.09817 0.46067,0.33378c-0.07335,1.11511 -0.75149,2.70517 -0.88328,3.37124c-0.10995,0.55563 -1.20966,0.28752 -1.20966,0.28752l-0.14302,0.70229l0.58288,0.46082c0,0 -1.24827,1.65278 -1.54179,2.21399c-0.91366,1.74672 -1.79908,0.89857 -1.79908,0.89857l-0.67239,0.67712l0.42651,0.60675l-2.65171,1.93115l-0.83822,-0.18321c0,0 -3.46429,0.75365 -4.9227,1.7327c-1.46258,0.98186 -3.84032,4.15007 -3.84032,4.15007l0.628,0.80005l-2.78231,1.68938l-1.39758,-0.70288c0,0 0.32709,1.10131 -0.16937,1.24769c-5.34329,1.57544 -8.07995,-4.40953 -8.07995,-4.40953z" data-paper-data="{&quot;index&quot;:null}" fill="#a87643"/><path d="M283.09061,209.46727c7.38788,0.12865 10.19757,4.7053 10.19757,4.7053c0,0 -9.38344,8.21007 -13.13267,8.97872c-2.79605,0.57321 -7.03877,-3.35191 -7.03877,-3.35191c0,0 -5.19153,-0.37452 -6.88221,-0.41465c-1.69068,-0.04013 -4.54426,-0.39312 -4.54426,-0.39312c0,0 1.07022,-7.41414 1.98783,-8.80217c0.75237,-1.04792 15.18205,-0.79594 19.41251,-0.72227z" data-paper-data="{&quot;index&quot;:null}" fill="#fc6293"/><path d="M260.88271,212.71544c-0.49027,-0.54779 -0.53474,-3.68213 0.82266,-6.67414c0.40662,-0.89637 5.7299,0.01473 12.35303,-0.44338c3.69752,-0.25581 9.21876,-1.53368 12.51203,-2.14597c3.53929,-0.658 6.91666,-4.10473 7.71914,-4.22249c2.88673,-0.42344 7.16275,0.53626 7.20107,0.59252c0.0214,0.03142 3.45353,3.60876 1.20757,9.48969c-2.97947,7.80146 -16.14384,10.05716 -16.14384,10.05716c0,0 -2.40003,-2.28492 -0.18542,-3.15995c2.77089,-1.03014 2.21197,-0.57797 4.32725,-1.16462c0.80971,-0.15518 2.01778,-0.51165 1.99123,-0.65687c-0.27079,-1.48344 -5.56498,-4.27529 -8.23502,-4.62816c-2.16425,-0.286 -6.49917,-0.23112 -10.21817,-0.01276c-3.26632,0.19177 -6.43481,-0.0692 -8.55582,-0.02155c-1.28917,0.02897 -2.14849,0.69784 -2.14849,0.69784c0,0 -1.85877,3.17359 -2.6472,2.29262z" data-paper-data="{&quot;index&quot;:null}" fill="#f3e2e2"/><path d="M284.95421,204.37605c0,0 -5.48388,1.24928 -9.22724,1.35911c-4.93847,0.14489 -11.0229,0.01038 -12.66662,0.18512c-0.82692,0.08794 -1.58246,1.5306 -1.58246,1.5306l-0.31851,-0.46814c0,0 0.66415,-1.65004 1.72839,-1.64112c6.11723,0.05129 9.57005,0.27197 13.13612,-0.2488c2.5762,-0.37623 11.38042,-1.81311 11.38042,-1.81311z" data-paper-data="{&quot;index&quot;:null}" fill="#766565"/><path d="M277.83615,215.51031l-4.89477,-0.0808l0.08501,-2.64128l5.03244,0.28308z" data-paper-data="{&quot;index&quot;:null}" fill="#fffff6"/><path d="M270.1574,215.97048l-3.99145,-0.09152l0.14083,-2.36587l4.21182,-0.14133z" data-paper-data="{&quot;index&quot;:null}" fill="#fffff6"/><path d="M268.80349,205.56806c0,0 0.6762,0.91048 1.2063,2.84421c0.5301,1.9337 0.48325,4.97396 0.48325,4.97396l-4.20689,0.08042c0,0 0.32494,-2.17895 0.05705,-3.90319c-0.26791,-1.72429 -1.32692,-4.26977 -1.32692,-4.26977z" data-paper-data="{&quot;index&quot;:null}" fill="#754c86"/><path d="M278.12769,209.0646c0.1402,1.67551 -0.00779,4.12786 -0.00779,4.12786l-5.06842,-0.20335c0,0 0.09899,-1.75069 -0.18837,-3.32552c-0.28736,-1.57485 -1.2124,-4.16696 -1.2124,-4.16696c0,0 1.97134,-0.14376 3.01692,-0.24518c1.04558,-0.10142 2.67415,-0.30673 2.67415,-0.30673c0,0 0.64573,2.44435 0.78593,4.11988z" data-paper-data="{&quot;index&quot;:null}" fill="#754c86"/><path d="M261.7238,218.91647c0,0 -0.74263,-1.31055 -0.88389,-2.19748c-0.08545,-0.53682 -0.09541,-1.90554 -0.2539,-3.35521c-0.15848,-1.44966 0.02657,-1.83629 0.02657,-1.83629l1.28426,6.67418z" data-paper-data="{&quot;index&quot;:null}" fill="#ae8484"/><path d="M262.20577,207.57677c0.61999,-0.00101 1.07348,0.51956 1.15159,2.106c0.07812,1.58649 -0.18342,1.1739 -0.66658,4.16437c-0.21537,1.46558 -0.77125,4.28703 -0.77125,4.28703c0,0 -1.09199,-1.83646 -1.09763,-5.38349c-0.00561,-3.54703 0.51097,-5.18005 1.34423,-5.18138z" data-paper-data="{&quot;index&quot;:null}" fill="#532c31"/></g></g><g stroke="none" stroke-width="0" stroke-linecap="butt" stroke-linejoin="miter"><path d="M241.39743,211.1684l16.27305,-1.30972l5.89946,-0.43243l-1.08247,5.71603l-4.68436,0.19299l-14.86645,0.86516z" data-paper-data="{&quot;index&quot;:null}" fill="#8e5173"/><path d="M252.62178,210.33624l5.0488,-0.47721l5.89945,-0.43244l-1.08247,5.71604l-4.68436,0.19299l-4.99487,0.27331z" data-paper-data="{&quot;index&quot;:null}" fill="#a71e48"/><path d="M252.62178,210.33624l1.0461,-0.112l0.06928,5.31702l-0.92883,0.06765z" data-paper-data="{&quot;index&quot;:null}" fill="#a19589"/><path d="M254.55824,210.21289l1.04611,-0.11198l0.06931,5.31702l-0.92887,0.06766z" data-paper-data="{&quot;index&quot;:null}" fill="#a19589"/></g><g data-paper-data="{&quot;index&quot;:null}" stroke-width="0" stroke-linecap="butt" stroke-linejoin="miter"><path d="M322.30444,221.65531l-35.43938,-5.18365c0,0 -3.80568,-10.88996 2.47908,-15.51694c5.9562,-4.38509 11.35838,-6.34025 19.22524,-5.61365c20.48757,1.89228 18.99514,20.25555 18.99514,20.25555z" fill="#ffff00" stroke="none"/><path d="M323.74129,220.12209c0,0 0.22239,-2.5449 -0.30649,-5.20594c-0.3539,-1.78075 -1.5907,-3.64062 -1.31053,-4.42619c0.56342,-1.58003 1.10497,-0.23348 2.3193,2.84928c0.56624,1.43744 0.69645,5.23159 0.69645,5.23159l-1.39873,1.55131z" fill="#a58c48" stroke="#000000"/><path d="M315.19213,203.21549c-0.08792,0.73683 -4.01758,-1.19573 -7.52841,-1.61461c-3.51087,-0.41889 -9.47337,1.76084 -9.47964,0.06295c-0.00692,-1.85933 6.02564,-2.27875 9.54745,-1.96519c5.25613,0.46796 7.54851,2.78008 7.4606,3.5169z" fill="#a58c48" stroke="#000000"/><path d="M287.02673,213.78461l-0.61627,-1.50627c0,0 0.41071,-2.39386 1.24331,-3.93674c0.74755,-1.38515 2.15101,-1.28637 2.37575,-1.04415c0.63857,0.68834 -0.99915,1.60864 -1.80899,3.16707c-0.87491,1.68372 -1.19377,3.32008 -1.19377,3.32008z" fill="#a58c48" stroke="#000000"/><path d="M304.37304,223.17735c13.98226,2.04772 16.7369,10.39545 16.7369,10.39545c0,0 0.3041,-0.81457 0.0282,1.52049c-0.27591,2.33509 -0.33742,1.18784 -0.33742,1.18784c0,0 -4.59111,-7.26515 -12.83882,-9.96927c-13.12564,-4.30342 -22.93876,4.2677 -22.93876,4.2677l0.59575,-2.26821c0,0 8.78936,-6.59345 18.75412,-5.13405z" fill="#edeee6" stroke="none"/><path d="M286.48892,214.79097c0,0 9.13947,-10.36731 20.09962,-8.3151c13.88989,2.6008 16.58597,14.12404 16.58597,14.12404l-0.86171,1.03007c0,0 -4.30237,-8.27788 -12.36807,-11.14626c-12.83586,-4.56473 -23.16483,5.84696 -23.16483,5.84696l-0.29105,-1.53968z" fill="#edeee6" stroke="none"/><path d="M306.1766,208.07562c14.04275,2.055 16.38038,14.68534 16.38038,14.68534c0,0 0.03742,3.72477 -0.23844,6.05984c-0.27586,2.33509 -1.1756,5.9092 -1.1756,5.9092c0,0 -4.61429,-7.26788 -12.89853,-9.97637c-13.18358,-4.3103 -23.03407,4.25629 -23.03407,4.25629l1.53978,-13.05472c0,0 9.41864,-9.34407 19.42652,-7.87954z" fill="#754c86" stroke="none"/><path d="M296.19749,235.89269c-5.24458,-0.62571 -16.28759,4.9774 -16.28759,4.9774c0,0 -0.56556,-3.06118 1.00179,-6.1889c2.45205,-4.89326 8.39324,-10.76574 20.42002,-9.79717c22.93463,1.84695 22.70373,22.52875 22.70373,22.52875c0,0 -22.59331,-10.89429 -27.83792,-11.52005z" fill="#ffff00" stroke="none"/><path d="M303.34374,228.46711c-2.73066,-0.32578 -9.51515,0.13651 -8.90581,-0.74417c0.90152,-1.30302 6.25459,-1.57065 8.9735,-1.15807c4.90939,0.74497 7.83561,3.04244 7.78388,3.47588c-0.05174,0.43347 -4.33621,-1.15413 -7.85165,-1.57361z" fill="#a58c48" stroke="#000000"/><path d="M317.74521,233.84693c-0.25932,-1.69185 3.84114,3.16464 3.84114,3.16464l0.77678,2.16223c0,0 -4.45151,-4.24114 -4.61791,-5.32686z" fill="#a58c48" stroke="#000000"/><path d="M288.31225,229.69838c-0.17585,1.47371 -6.96978,4.68434 -6.96978,4.68434l1.70005,-2.81754c0,0 5.44552,-3.34047 5.26968,-1.86676z" fill="#a58c48" stroke="#000000"/><path d="M301.48273,258.56775c-12.61403,-1.66422 -22.76347,-8.50997 -21.63833,-17.93997c0.80669,-6.76165 12.94381,-10.3953 24.14525,-8.89963c10.73029,1.43279 20.75608,8.83187 19.94934,15.59351c-0.80677,6.7616 -11.71193,12.56297 -22.44441,11.14697z" fill="#ffff00" stroke="#000000"/><path d="M318.30797,253.36117c-0.48615,4.07429 -8.64551,6.45072 -18.22446,5.30779c-9.57894,-1.14292 -16.9502,-5.3723 -16.46406,-9.44662c0.48613,-4.07429 8.64555,-6.45066 18.2245,-5.30775c9.5789,1.14291 16.95011,5.37224 16.46398,9.44657z" fill="#ffff00" stroke="#000000"/><path d="M276.97895,228.25874l-16.42409,-0.86452l-27.81697,-1.57165c0,0 -1.66224,-1.39855 -1.59759,-2.31426c0.0647,-0.9157 1.44447,-2.90091 1.44447,-2.90091l27.6984,-0.06411l16.96486,-0.25137c0,0 -0.7462,2.43233 -0.80043,4.03795c-0.05425,1.60562 0.53131,3.92892 0.53131,3.92892z" fill="#ffff00" stroke="none"/><path d="M285.0555,229.75354c0,0 -7.20955,-0.35323 -7.52218,-0.65087c-1.18682,-1.12982 -1.30215,-7.93612 0.12936,-9.74473c0.84521,-1.06795 10.84035,-1.12061 10.84035,-1.12061l-2.37868,10.58109z" fill="#c8c8c6" stroke="none"/><path d="M327.50107,214.79305c0,0 0.59929,-9.50458 -7.27788,-15.27296c-1.91078,-1.39926 -5.00343,-2.33325 -7.93516,-3.14197c-4.35834,-1.20216 -9.68761,-1.45473 -14.02663,0.00339c-5.36111,1.80163 -9.87015,5.84325 -9.87015,5.84325c0,0 9.21741,-11.65222 22.0322,-8.41365c18.99273,4.7998 17.0777,20.98194 17.0777,20.98194z" fill="#ffff00" stroke="#000000"/><path d="M232.73769,225.82249c0,0 -1.66224,-1.39855 -1.59759,-2.31426c0.0647,-0.9157 1.44445,-2.90092 1.44445,-2.90092l11.88714,-0.08708c0,0 0.30055,1.28364 0.2463,2.88925c-0.05424,1.60557 -0.45937,3.08297 -0.45937,3.08297z" fill="#a56402" stroke="none"/></g><path d="M197.77162,208.93657c0,0 -1.85807,4.9443 0.4709,8.13065c3.76448,5.1502 10.90628,1.31568 10.90628,1.31568c0,0 -4.54472,3.12869 -8.31085,1.5075c-2.48622,-1.07019 -3.61527,-1.99678 -4.18598,-4.73612c-0.63954,-3.06956 1.11962,-6.21766 1.11962,-6.21766z" fill="#000000" stroke="none" stroke-width="0" stroke-linecap="butt" stroke-linejoin="miter"/><g data-paper-data="{&quot;index&quot;:null}" stroke="none" stroke-width="0" stroke-linecap="butt" stroke-linejoin="miter"><g data-paper-data="{&quot;index&quot;:null}"><path d="M172.25311,187.72202c0,0 1.75715,-0.43864 6.22007,0.12536c8.89778,1.12446 10.35918,5.76016 10.35918,5.76016c0,0 -2.46719,2.52492 -6.73642,1.50157c-4.37456,-1.04864 -9.84289,-7.38702 -9.84289,-7.38702z" data-paper-data="{&quot;index&quot;:null}" fill="#ce204f"/><path d="M178.3002,192.85832c3.50801,2.81598 10.32761,0.88947 10.32761,0.88947c0,0 -3.45473,6.65689 -10.56367,1.18905c-3.56572,-2.74257 -5.86834,-7.33681 -5.86834,-7.33681c0,0 2.59638,2.44231 6.1044,5.25829z" fill="#ff4488"/></g><g data-paper-data="{&quot;index&quot;:null}"><path d="M189.16661,193.22534c0,0 -3.19576,-2.7071 -4.22934,-5.06618c-2.04589,-4.66975 0.79538,-10.58216 0.79538,-10.58216c0,0 2.78442,4.49654 4.48707,7.42175c2.32346,3.99186 -1.05317,8.22661 -1.05317,8.22661z" fill="#f5e4ec"/><path d="M185.37023,187.83028c-1.70495,-3.89146 0.66276,-8.81849 0.66276,-8.81849c0,0 2.32042,3.74711 3.73928,6.18475c1.93624,3.32661 -0.87763,6.85552 -0.87763,6.85552c0,0 -2.66313,-2.25588 -3.52441,-4.22179z" fill="#e2c1c1"/></g></g><path d="M180.70887,219.11359c-4.1396,-12.49408 1.23971,-25.51662 12.01496,-29.08673c10.77528,-3.57012 22.86611,3.66416 27.0057,16.15821c4.13959,12.49404 -1.23969,25.51657 -12.01494,29.08668c-10.77528,3.57012 -22.86617,-3.6641 -27.00576,-16.15814z" fill="#f79eb4" stroke="none" stroke-width="0" stroke-linecap="butt" stroke-linejoin="miter"/><path d="M199.50521,188.60974c-0.06807,-0.00349 3.86414,-1.43027 9.83053,-0.27097c9.62071,1.84139 11.67175,7.30834 11.67175,7.30834l-3.76073,0.07212c0,0 -8.3783,-3.67104 -11.30594,-4.39061c-2.92763,-0.71954 -7.54426,-0.01044 -7.54137,-0.01061" fill="#f79eb4" stroke="#f89db5" stroke-width="0" stroke-linecap="butt" stroke-linejoin="round"/><g fill="#ffd5c5" stroke="none" stroke-width="1" stroke-linecap="round" stroke-linejoin="round"><path d="M208.50829,191.80029c1.85513,-1.10349 4.14558,0.037 5.78825,1.13567c0.26871,0.1798 2.36543,1.59166 4.44359,4.36538c2.60754,3.48039 3.57833,8.89351 3.89481,10.43581c0.37724,1.83939 -0.55536,5.64459 -0.92704,6.32141c-2.67511,4.87116 -5.43417,2.80121 -5.85354,2.51935c-0.19994,-0.13446 -0.91351,-1.02185 -0.90277,-2.34738c0.01047,-1.29201 0.71433,-5.04945 0.30559,-6.12701c-0.43914,-1.15779 -4.81242,-6.95765 -5.93312,-10.35493c-0.22548,-0.7085 -0.2975,-1.71565 -0.04149,-2.43042c0.33339,-0.93026 1.07413,-2.40301 -0.21184,-3.08022c-0.20825,-0.10952 -0.76466,-0.3172 -0.56251,-0.43759z"/><path d=""/></g><g fill="#000000" stroke="none" stroke-width="1" stroke-linecap="round" stroke-linejoin="round"><path d="M210.61852,198.00515c-0.58946,-0.42454 -1.02648,-2.47719 -0.88924,-2.90164c0.23742,-0.73427 1.63028,0.37614 1.73911,0.79677c0.16347,0.93893 -0.07425,2.66341 -0.84987,2.10487z"/><path d=""/></g><path d="M206.67159,219.92781c-0.22379,-0.01088 7.21889,-1.97739 10.48729,-3.1506c6.15482,-2.20942 9.52871,-4.91799 9.52871,-4.91799c0,0 -0.43372,1.62963 -0.59508,2.0391c-0.49822,1.26495 -1.02742,2.41083 -1.73995,3.58231c-1.67605,2.75534 -4.02762,5.02035 -6.68884,6.8229c-1.77355,1.20128 -10.1436,4.6392 -10.22338,4.5708" fill="#f79eb4" stroke="#f89db5" stroke-width="0" stroke-linecap="butt" stroke-linejoin="round"/><path d="M207.43984,229.26742c0.07295,0.03664 10.19012,-4.54046 12.92111,-6.05369c2.731,-1.51319 6.47761,-4.69499 6.47761,-4.69499c0,0 0.27254,1.61801 -1.39239,4.50382c-1.47018,2.54815 -2.18071,3.94317 -5.74723,6.30656c-4.62799,3.06677 -11.486,5.76554 -13.05424,5.53865" fill="#f79eb4" stroke="#f89db5" stroke-width="0" stroke-linecap="butt" stroke-linejoin="round"/><g fill="#ff4488" stroke="none" stroke-width="1" stroke-linecap="round" stroke-linejoin="round"><path d="M185.37121,201.91347c-0.1019,0.39347 -2.57085,10.37857 0.42456,15.96959c2.36085,4.40669 5.11807,6.23135 9.86968,9.38469c3.66442,2.43195 10.21133,2.51879 10.28687,2.63457c0.00541,0.0083 -15.77083,3.83888 -22.24323,-8.1121c-5.11795,-9.70823 -1.15998,-20.19782 -0.83248,-20.68867"/><path d=""/></g><g stroke="none" stroke-width="1" stroke-linecap="round" stroke-linejoin="round"><g fill="#f79eb4"><path d="M197.85553,227.52727c-1.31507,0.52921 -3.42698,1.91687 -5.95503,2.7654c-2.52806,0.8485 -5.84669,1.70775 -6.65109,1.46578c-1.05167,-0.3163 -1.17697,-3.46117 -0.76216,-6.84904c0.41489,-3.38789 2.10553,-7.96864 2.62,-8.32343"/></g><g fill="#ffd5c5"><path d="M195.54443,225.93612c-0.30455,0.14464 -1.63282,1.06601 -3.48695,1.74176c-1.85412,0.67579 -4.76136,1.35169 -4.88252,1.30855c-0.49122,-0.1749 -0.48744,-3.73287 -0.23149,-5.57736c0.25593,-1.84453 1.14916,-3.90216 1.62638,-4.47443"/></g></g><g fill="#f79eb4" stroke="none" stroke-width="1" stroke-linecap="round" stroke-linejoin="round"><path d="M180.79269,204.25275c-0.69663,-0.99447 -1.34566,-2.07957 -2.33874,-4.50971c-0.99307,-2.43011 -2.26685,-5.43944 -2.10437,-6.36254c0.03334,-0.18908 2.30026,-1.42559 4.28675,-1.7253c3.1008,-0.46792 6.77374,0.22951 6.83235,0.24544"/><path d=""/></g><path d="M207.52581,191.79894l-1.35285,0.23091c0,0 -0.07846,-1.13316 -1.23601,-2.55298c-1.15757,-1.41986 -3.56566,-3.02545 -3.56566,-3.02545c0,0 2.82594,1.12456 4.09488,2.32243c1.26894,1.19787 2.05964,3.02509 2.05964,3.02509z" data-paper-data="{&quot;index&quot;:null}" fill="#000000" stroke="none" stroke-width="0" stroke-linecap="butt" stroke-linejoin="miter"/><path d="M208.75087,191.78211l-1.37128,0.05592c0,0 0.06718,-1.13386 -0.89921,-2.69016c-0.96638,-1.55626 -3.31135,-4.27526 -3.31135,-4.27526c0,0 2.82095,2.29534 3.92619,3.64572c1.10523,1.35038 1.65566,3.26377 1.65566,3.26377z" data-paper-data="{&quot;index&quot;:null}" fill="#000000" stroke="none" stroke-width="0" stroke-linecap="butt" stroke-linejoin="miter"/><path d="M214.06362,219.19911c-0.36276,1.70688 -2.04794,4.23882 -2.04794,4.23882c0,0 1.00381,-2.72516 1.14869,-4.55134c0.14488,-1.82618 -0.51859,-3.6411 -0.51859,-3.6411l1.39205,0.29399c0,0 0.3885,1.95271 0.02579,3.65962z" fill="#000000" stroke="none" stroke-width="0" stroke-linecap="butt" stroke-linejoin="miter"/><path d="M217.01817,219.44042c0.39135,1.70056 0.12511,5.2904 0.12511,5.2904c0,0 -0.06003,-3.81691 -0.69921,-5.53367c-0.63917,-1.71676 -2.63692,-3.68253 -2.63692,-3.68253l1.35287,-0.26856c0,0 1.46679,2.4938 1.85816,4.19439z" fill="#000000" stroke="none" stroke-width="0" stroke-linecap="butt" stroke-linejoin="miter"/><path d="M206.63084,228.69265c0,0 0.30443,1.37575 0.11872,1.62349c-0.20568,0.27433 -1.93828,0.46027 -2.52105,0.11534c-0.58279,-0.34497 -0.49174,-1.66418 -0.49174,-1.66418z" data-paper-data="{&quot;index&quot;:null}" fill-opacity="0.01176" fill="#f7bf74" stroke="none" stroke-width="0" stroke-linecap="butt" stroke-linejoin="miter"/><path d="M217.12401,216.27772c0.29646,-0.0159 0.99542,1.46926 1.08319,2.56544c0.31322,3.91146 -1.30065,7.03265 -2.77293,8.39791c-1.25008,1.15913 -2.07881,1.78117 -2.42614,1.03262c-0.26254,-0.56588 -0.01102,-1.42931 2.23634,-2.53894c1.82209,-0.8997 1.69887,-4.29189 1.632,-5.53901c-0.11705,-2.184 -0.13886,-3.89733 0.24755,-3.91802z" data-paper-data="{&quot;index&quot;:null}" fill-opacity="0.01176" fill="#212121" stroke="none" stroke-width="0" stroke-linecap="butt" stroke-linejoin="miter"/><path d="M217.91624,222.51966l-0.91258,0.04895l-0.01955,-0.36502l0.91258,-0.04895z" data-paper-data="{&quot;index&quot;:null}" fill-opacity="0.01176" fill="#b3916f" stroke="none" stroke-width="0" stroke-linecap="butt" stroke-linejoin="miter"/><path d="M214.53776,227.21558c0.34671,-0.25896 1.21455,-0.67526 1.21455,-0.67526c0,0 -0.43799,1.0654 -0.87124,1.389c-0.43325,0.3236 -1.18957,0.00274 -1.18957,0.00274c0,0 0.49954,-0.45751 0.84625,-0.71651z" data-paper-data="{&quot;index&quot;:null}" fill-opacity="0.01176" fill="#cc7889" stroke="none" stroke-width="0" stroke-linecap="butt" stroke-linejoin="miter"/><path d="M228.88165,136.6019z" fill="#fff9fb" stroke="none" stroke-width="0" stroke-linecap="butt" stroke-linejoin="miter"/><path d="M203.33714,203.96819l11.09756,8.90244" fill="none" stroke="#e569c4" stroke-width="1" stroke-linecap="round" stroke-linejoin="miter"/><path d="M212.23957,202.74871l-7.80487,14.14634" fill="none" stroke="#e569c4" stroke-width="1" stroke-linecap="round" stroke-linejoin="miter"/><path d="M199.9225,200.06583l7.68292,-14.02439" fill="none" stroke="#e569c4" stroke-width="1" stroke-linecap="round" stroke-linejoin="miter"/><path d="M198.33714,188.72435l10.60976,7.92683" fill="none" stroke="#e569c4" stroke-width="1" stroke-linecap="round" stroke-linejoin="miter"/><path d="M238.20031,214.39573c0,0 8.38101,-0.086 11.16651,1.58214c3.02687,1.81275 8.30915,8.79119 8.30915,8.79119l-9.85474,-5.3895l-5.29038,-2.01332z" data-paper-data="{&quot;index&quot;:null}" fill="#f79db4" stroke="none" stroke-width="0" stroke-linecap="butt" stroke-linejoin="miter"/><path d="M251.79498,200.24056c0,0 1.88503,2.34649 1.34339,10.86434c-1.33802,10.09345 -2.93375,10.34085 -2.93375,10.34085l-1.3811,-1.12895c0,0 2.19471,1.18542 3.00067,-9.25057c0.54671,-8.99115 -1.16688,-10.3344 -1.16688,-10.3344z" data-paper-data="{&quot;index&quot;:null}" fill="#ee3377" stroke="none" stroke-width="0" stroke-linecap="butt" stroke-linejoin="miter"/><path d="M234.81578,202.38642l15.83385,-1.59677c0,0 2.6356,4.54321 1.23584,12.24286c-1.97023,10.02254 -2.64939,7.77106 -2.64939,7.77106l-8.07142,-2.74768l-7.8718,-1.76521z" data-paper-data="{&quot;index&quot;:null}" fill="#fcf4f4" stroke="none" stroke-width="0" stroke-linecap="butt" stroke-linejoin="miter"/><path d="M248.61506,200.60016c0,0 2.64987,1.37575 2.10824,9.89355c-1.57367,11.85525 -2.89561,9.97488 -2.89561,9.97488l-0.44645,-0.39234c0,0 1.92717,0.76017 2.73315,-9.67582c0.57777,-9.404 -2.09149,-9.5103 -2.09149,-9.5103z" data-paper-data="{&quot;index&quot;:null}" fill="#ee3377" stroke="none" stroke-width="0" stroke-linecap="butt" stroke-linejoin="miter"/><g data-paper-data="{&quot;index&quot;:null}" stroke="none" stroke-width="0" stroke-linecap="butt" stroke-linejoin="miter"><path d="M251.19534,211.52951l-18.76586,-7.69445l1.49731,-1.7086l18.80613,1.64363c0,0 0.65011,3.10163 -0.8848,6.54884c-0.37463,0.8414 -0.65279,1.21058 -0.65279,1.21058z" fill="#fab5b7"/><path d="M252.25758,209.35463c1.04031,-2.51917 0.32456,-5.74057 0.32456,-5.74057l1.53331,0.53594c0,0 0.77337,3.50254 -0.2721,6.08641c-1.16621,2.88226 -1.08051,2.10596 -1.08051,2.10596l-1.43609,-0.69659c0,0 -0.22647,0.51131 0.93085,-2.29118z" fill="#fed000"/></g><path d="M236.05417,213.41885l-2.13925,-1.73906l0.17441,-6.21175l2.07146,-1.32828z" fill="#aa4455" stroke="none" stroke-width="0" stroke-linecap="butt" stroke-linejoin="miter"/><path d="M234.45164,203.84353l-0.61913,13.29685l-3.84665,-1.03935l-8.85174,-1.07685c0,0 0.59807,-2.7924 0.79221,-4.606c0.19413,-1.8136 0.18739,-4.54447 0.18739,-4.54447c0,0 3.33839,-1.83231 5.77791,-2.1356c2.43951,-0.30325 6.56002,0.10541 6.56002,0.10541z" data-paper-data="{&quot;index&quot;:null}" fill="#6d3b75" stroke="none" stroke-width="0" stroke-linecap="butt" stroke-linejoin="miter"/><path d="M236.56699,204.56219c0,0 -4.13516,2.07874 -6.21353,2.26385c-0.37206,0.03314 -1.11603,0.05635 -1.11603,0.05635c0,0 -1.12953,-0.42075 -2.95441,-3.28816c-0.39986,-0.62827 -0.76239,-0.30935 -1.60752,-0.52006c-0.26695,-0.06656 -1.60037,0.69308 -1.60037,0.69308c0,0 -0.19463,-0.54222 0.19991,-0.79937c2.26588,-0.29718 6.86619,0.09523 6.86619,0.09523l4.61302,-1.06935z" data-paper-data="{&quot;index&quot;:null}" fill="#efe6e6" stroke="none" stroke-width="0" stroke-linecap="butt" stroke-linejoin="miter"/><path d="M236.28287,218.24369l-6.32181,-1.89682c0,0 -7.46194,0.19771 -8.74939,-1.07348c-0.33511,-0.33089 0.32416,-2.35832 0.32416,-2.35832c0,0 0.2023,-0.69295 1.43311,-0.59723c0.25178,0.01958 1.29821,0.8794 1.57307,0.86758c0.87019,-0.03738 1.36522,-0.31504 1.88269,-0.85061c2.36167,-2.44434 3.55255,-2.6306 3.55255,-2.6306c0,0 0.72428,0.17159 1.08219,0.2785c1.99927,0.59718 5.5356,3.11078 5.5356,3.11078z" data-paper-data="{&quot;index&quot;:null}" fill="#efe6e6" stroke="none" stroke-width="0" stroke-linecap="butt" stroke-linejoin="miter"/><path d="M222.69225,212.13741l-0.24168,2.50259l-1.06376,-1.10746c0,0 0.4278,-2.67836 0.55464,-2.95749c0.36211,-0.42798 2.0161,-0.76588 3.4876,-0.93429c1.20808,-0.13824 4.57205,-0.17378 4.57205,-0.17378c0,0 -0.64091,0.47312 -1.23179,1.0057c-0.85458,0.77031 -1.63979,1.61417 -2.47855,2.1468c-1.52447,0.91526 -3.59849,-0.48211 -3.59849,-0.48211z" data-paper-data="{&quot;index&quot;:null}" fill="#fd4275" stroke="none" stroke-width="0" stroke-linecap="butt" stroke-linejoin="miter"/><path d="M235.07897,212.3832c0,0 -3.17,-2.20464 -5.10259,-2.17765c-1.31001,0.01829 -4.72459,3.76448 -4.72459,3.76448l-0.37454,-0.67561c0,0 3.84076,-3.64 5.03893,-3.64018c2.26918,-0.00038 5.29282,2.16149 5.29282,2.16149z" fill="#fed000" stroke="none" stroke-width="0" stroke-linecap="butt" stroke-linejoin="miter"/><path d="M224.90766,213.54437l-2.02056,-1.09232l-0.22947,2.9586l-1.43891,-1.18576l0.21486,-0.71999l0.77378,0.88727l0.28366,-2.61521l2.37001,1.00062l3.73015,-3.1451c0,0 0.57684,-0.24185 0.82391,-0.20714c0.24711,0.03472 1.09392,0.31817 1.09392,0.31817c0,0 -0.65775,0.00173 -1.32558,0.27704c-0.65221,0.26888 -1.31056,0.80797 -1.66459,1.09957c-0.83503,0.6878 -2.61126,2.4243 -2.61126,2.4243z" fill="#fff9f9" stroke="none" stroke-width="0" stroke-linecap="butt" stroke-linejoin="miter"/><path d="M222.90376,215.56389l-0.28205,-0.20231l0.28923,-2.8621l0.20472,0.1076z" fill="#fed000" stroke="none" stroke-width="0" stroke-linecap="butt" stroke-linejoin="miter"/><path d="M224.34796,208.51071l-1.38151,1.5721c0,0 -0.34231,0.10737 -0.53713,0.2043c-0.19479,0.09695 -0.46724,0.20395 -0.46724,0.20395c0,0 0.09908,-1.49891 0.12857,-2.25891c0.02997,-0.77153 0.04983,-2.33626 0.04983,-2.33626z" fill="#fff9f9" stroke="none" stroke-width="0" stroke-linecap="butt" stroke-linejoin="miter"/><path d="M223.33008,208.53381l-1.35419,1.54102l0.14554,-3.02142z" fill="#fd4275" stroke="none" stroke-width="0" stroke-linecap="butt" stroke-linejoin="miter"/><path d="M223.00646,203.81747c0,0 1.40097,-1.27133 2.82996,-0.2132c0.78346,0.61108 2.28183,1.60744 3.05807,2.45663c0.53673,0.58713 1.12897,1.11988 1.12897,1.11988c0,0 -3.34487,-0.36002 -4.53395,-0.6142c-1.4484,-0.30964 -3.03166,-0.3622 -3.35075,-0.82311c-0.09929,-0.29005 -0.31474,-1.96299 -0.31474,-1.96299l0.94011,-2.381z" data-paper-data="{&quot;index&quot;:null}" fill="#fd4275" stroke="none" stroke-width="0" stroke-linecap="butt" stroke-linejoin="miter"/><path d="M235.43374,205.3455c0,0 -3.21818,1.85996 -5.47672,1.6406c-1.19255,-0.11584 -4.66409,-4.1095 -4.66409,-4.1095l0.24806,-0.10893c0,0 3.22704,3.53085 4.52919,3.67548c1.92096,0.21334 5.28895,-1.67506 5.28895,-1.67506z" data-paper-data="{&quot;index&quot;:null}" fill="#fed000" stroke="none" stroke-width="0" stroke-linecap="butt" stroke-linejoin="miter"/><path d="M225.34726,202.63078c0,0 1.60036,1.89983 2.36509,2.66499c0.32424,0.3244 0.92747,0.92448 1.55068,1.25507c0.63814,0.33845 1.29266,0.40371 1.29266,0.40371c0,0 -0.87019,0.20041 -1.11951,0.21112c-0.24925,0.01072 -0.8001,-0.28569 -0.8001,-0.28569l-3.40921,-3.49042l-2.45554,0.7672l-0.02994,-2.63038l-0.98988,2.48102l-0.37837,-1.68999l1.52943,-2.00524l0.32818,3.21084l2.11657,-0.8922z" data-paper-data="{&quot;index&quot;:null}" fill="#fff9f9" stroke="none" stroke-width="0" stroke-linecap="butt" stroke-linejoin="miter"/><g stroke="none" stroke-linecap="butt" stroke-linejoin="miter"><path d="M249.57112,219.54893c0,0 5.85668,-0.14353 9.33021,0.28059c0.55342,0.0676 3.66118,3.07593 4.84695,4.62437c0.64764,0.84573 1.8645,2.41361 0.97004,3.96386c-0.22804,0.39521 -2.13499,1.54146 -2.13499,1.54146l0.22076,1.71124c0,0 -0.51593,0.88882 -1.05953,1.19184c-0.54357,0.30299 -1.6953,0.43383 -1.6953,0.43383c0,0 -0.32695,0.62606 -0.46578,1.11257c-0.45307,1.58807 -1.97367,1.29478 -1.97367,1.29478c0,0 -0.19679,1.18967 -0.8105,1.8116c-0.97291,0.98599 -2.64648,1.57923 -3.60984,1.58882c-1.63641,0.01633 -6.08041,-1.01524 -6.4364,-2.4971c-0.55449,-2.30795 2.34862,-2.65441 2.34862,-2.65441c0,0 -2.2746,-0.98259 -3.15159,-2.19924c-1.35048,-1.87339 -1.26532,-3.36742 -1.26532,-3.36742l4.88641,-8.83687z" data-paper-data="{&quot;index&quot;:null}" fill="#f44a7d" stroke-width="0"/><path d="M223.83571,211.55449c4.5158,1.16187 9.5248,3.28662 12.77332,4.82668c4.64447,2.20181 8.84573,4.02665 8.84573,4.02665c0,0 -0.11585,2.14026 -1.04236,3.02267c-0.92655,0.88245 -1.10555,1.2821 -1.10555,1.2821c0,0 -7.1861,-3.7325 -9.0598,-4.62075c-3.07347,-1.45706 -7.04417,-3.14419 -11.62391,-4.97807c-1.14754,-0.45954 -1.57334,-1.32511 -1.1526,-2.51448c0.2827,-0.79907 0.86989,-1.42952 2.36522,-1.04477z" data-paper-data="{&quot;index&quot;:null}" fill="#4c2b5c" stroke-width="0"/><path d="M223.83571,211.55449c3.2804,0.84398 9.75807,3.46312 9.75807,3.46312l3.18429,6.3358c0,0 -2.00927,-1.01426 -2.53101,-1.26161c-3.07347,-1.45706 -7.04418,-3.1442 -11.6239,-4.97808c-1.14754,-0.45954 -1.57335,-1.3251 -1.1526,-2.51447c0.2827,-0.79907 0.86988,-1.42952 2.3652,-1.04478z" data-paper-data="{&quot;index&quot;:null}" fill="#edbb82" stroke-width="0"/><path d="M242.75296,228.3345c-3.60545,-2.15046 -2.56859,-4.83612 -0.77642,-7.73476c1.79217,-2.89865 3.69611,-4.9695 7.26638,-2.7621c3.57024,2.20739 2.56858,4.83612 0.77642,7.73476c-1.79217,2.89865 -3.66178,4.91202 -7.26638,2.7621z" fill="#fed000" stroke-width="0"/><path d="M241.77007,229.92426c-2.95933,-1.72716 -1.38871,-5.09055 0.94633,-8.86723c2.33503,-3.77669 4.59611,-6.61066 7.50958,-4.80934c2.91346,1.80133 1.38871,5.09055 -0.94632,8.86724c-2.33503,3.77669 -4.55097,6.53604 -7.50958,4.80934z" fill="#e68b9c" stroke-width="0"/><path d="M253.93948,233.29169l-0.46386,-1.96652l1.9665,-0.46387l0.46386,1.96652z" fill="#baba3e" stroke-width="NaN"/><path d="M256.28048,230.20394l-0.46387,-1.9665l1.9665,-0.46387l0.46386,1.96651z" fill="#baba3e" stroke-width="NaN"/><path d="M258.81455,226.80386l-0.46386,-1.96651l1.96651,-0.46386l0.46387,1.96652z" fill="#baba3e" stroke-width="NaN"/><path d="M262.93743,223.80294l-1.31778,-0.6372l-0.7064,-1.32809l2.36761,-0.36601z" fill="#baba3e" stroke-width="0"/></g><path d="M188.2097,198.34556c0.10329,0.05913 -4.57439,-2.75484 -5.5365,-10.16002c-0.16454,-1.32236 2.90511,-6.27745 5.3498,-8.37855c2.10359,-2.2207 6.98694,-3.17279 7.00442,-3.10894c0.0248,0.09172 -5.27429,5.7425 -5.2499,10.26846c0.0133,2.47125 2.34891,8.8607 2.48482,8.93853" fill="#f79eb4" stroke="#f89db5" stroke-width="0" stroke-linecap="butt" stroke-linejoin="round"/><path d="M189.59722,201.50704c-0.32872,0.08748 -7.49533,-0.58345 -8.86889,-1.27866c-1.3736,-0.69521 -2.22444,-0.85595 -3.23098,-3.10468c-2.66997,-7.94421 0.30804,-15.64365 0.30804,-15.64365c0,0 1.49299,6.30785 3.12586,8.94162c2.26551,3.65399 6.80562,7.61592 7.275,7.88802" fill="#f79eb4" stroke="#f89db5" stroke-width="0" stroke-linecap="butt" stroke-linejoin="round"/><path d="M192.69606,196.0128c-0.05326,0.19801 -2.9533,-3.44793 -2.32273,-7.44351c0.18111,-1.1478 4.75491,-5.14827 5.34962,-5.30366c2.27841,-0.99074 9.04435,-0.95884 9.03763,-0.96323c-0.14511,-0.09598 -4.1479,2.85494 -6.43227,6.60182c-0.76093,1.26455 -1.95546,5.15579 -2.10662,5.71629" fill="#f79eb4" stroke="#f89db5" stroke-width="0" stroke-linecap="butt" stroke-linejoin="round"/></g></g></svg>