<svg version="1.1" xmlns="http://www.w3.org/2000/svg" xmlns:xlink="http://www.w3.org/1999/xlink" width="35.12943" height="40.46196" viewBox="0,0,35.12943,40.46196"><g transform="translate(-214.83295,-162.99503)"><g data-paper-data="{&quot;isPaintingLayer&quot;:true}" fill-rule="nonzero" stroke-miterlimit="10" stroke-dasharray="" stroke-dashoffset="0" style="mix-blend-mode: normal"><path d="M238.79728,181.90889l1.22971,-0.51163l2.88052,1.07211l2.27099,-1.27722c0,0 -1.12854,1.72784 -1.97432,2.02002c-0.77834,0.26887 -4.40693,-1.3033 -4.40693,-1.3033z" fill="#f79db4" stroke="none" stroke-width="0" stroke-linecap="butt" stroke-linejoin="miter"/><g data-paper-data="{&quot;index&quot;:null}" stroke-width="0" stroke-linecap="butt" stroke-linejoin="miter"><g data-paper-data="{&quot;index&quot;:null}"><path d="M223.81744,171.51807c-0.35918,-1.00097 0.1641,-2.10468 1.16875,-2.46517c1.00466,-0.3605 2.11025,0.15871 2.46944,1.15967c0.35918,1.00097 -0.16409,2.10467 -1.16872,2.46516c-1.00466,0.3605 -2.11027,-0.15869 -2.46946,-1.15967z" fill="#e0cb17" stroke="none"/><path d="M224.66054,171.89032c-0.2219,-0.61839 0.10136,-1.30026 0.72205,-1.52298c0.62069,-0.22273 1.30372,0.09803 1.52562,0.71644c0.2219,0.61839 -0.10136,1.30026 -0.72205,1.52298c-0.62069,0.22273 -1.30373,-0.09804 -1.52562,-0.71644z" fill="#e0cb17" stroke="#000000"/><path d="M225.5713,175.48394c-0.67321,-0.85642 -0.30404,-2.15467 -0.30404,-2.15467l1.9746,-0.72435c0,0 0.21279,0.13933 0.96568,1.25267c0.78173,1.15601 0.19301,3.45757 0.19301,3.45757c0,0 -2.15603,-0.9748 -2.82925,-1.83122z" fill="#e8edf4" stroke="#000000"/><path d="M226.36186,173.17571c-0.48044,0.17482 -1.3855,0.1911 -1.3855,0.1911l-0.02513,-0.71495c0,0 0.72816,0.16843 1.16433,0.03928c0.43614,-0.12914 0.92451,-0.6578 0.92451,-0.6578l0.43121,0.36575c0,0 -0.56045,0.57685 -1.10941,0.77659z" fill="#dbded5" stroke="#000000"/></g><g data-paper-data="{&quot;index&quot;:null}" stroke="none"><path d="M233.33057,174.66131c0.18936,-0.06795 0.45718,0.19561 0.59823,0.58865c0.14104,0.39306 0.10187,0.76675 -0.08749,0.83471c-0.18936,0.06795 -0.45721,-0.1956 -0.59825,-0.58865c-0.14104,-0.39306 -0.10186,-0.76676 0.0875,-0.83472z" fill="#000000"/><path d="M236.43499,179.15163c0.19725,-0.07079 1.09142,0.56993 1.15347,0.74287c0.06207,0.17294 0.13854,1.42838 -0.05869,1.49916c-0.19725,0.07079 -1.2981,0.11235 -1.2981,0.11235c0,0 0.00609,-2.2836 0.20333,-2.35438z" fill="#807d5a"/><path d="M227.33054,171.73981l0.07273,-0.18676l6.57299,3.90728l0.0103,0.32835z" fill="#6e6e73"/><path d="M229.63324,172.73439l-0.17675,0.40619l-1.56445,-0.8846l0.20532,-0.41643z" fill="#ddcb1e"/></g></g><g stroke-width="0" stroke-linecap="butt" stroke-linejoin="miter"><g data-paper-data="{&quot;index&quot;:null}"><path d="M244.43338,167.79195c-1.28881,0.46246 -2.70712,-0.20357 -3.16789,-1.48765c-0.46077,-1.28407 0.21048,-2.69994 1.49931,-3.16241c1.28881,-0.46246 2.70713,0.20358 3.16789,1.48766c0.46077,1.28407 -0.2105,2.69994 -1.4993,3.1624z" fill="#e0cb17" stroke="none"/><path d="M244.47521,167.63954c-0.79621,0.2857 -1.67246,-0.12578 -1.95713,-0.91908c-0.28467,-0.79331 0.13003,-1.66801 0.92626,-1.95374c0.79621,-0.2857 1.67246,0.12576 1.95713,0.91907c0.28467,0.79331 -0.13004,1.66802 -0.92627,1.95374z" fill="#e0cb17" stroke="#000000"/><path d="M247.43073,169.98688c0.03191,1.39707 -1.30783,4.12081 -1.30783,4.12081c0,0 -2.46014,-1.79873 -2.62894,-3.58096c-0.1626,-1.71645 -0.06554,-2.02799 -0.06554,-2.02799l2.54596,-0.89332c0,0 1.42444,0.98437 1.45637,2.38146z" fill="#e8edf4" stroke="#000000"/><path d="M244.76528,168.34615c-0.70645,0.24998 -1.73189,0.1359 -1.73189,0.1359l0.12864,-0.71387c0,0 0.91473,0.12516 1.45194,-0.10272c0.53721,-0.22785 1.12081,-0.98856 1.12081,-0.98856l0.55824,0.72841c0,0 -0.90944,0.72204 -1.52773,0.94082z" fill="#dbded5" stroke="#000000"/></g><g data-paper-data="{&quot;index&quot;:null}" stroke="none"><path d="M241.12884,177.42502c0.33696,0.32976 0.77704,2.05016 0.77704,2.05016l-2.9257,1.07046c0,0 -1.39103,-0.87037 -1.57154,-2.31822c-0.13271,-1.06437 0.88445,-2.80817 1.071,-2.88149c1.20197,-0.47252 2.31224,1.74936 2.64921,2.07912z" fill="#e4dcaa"/><path d="M239.84428,176.25615c0.18093,0.50422 0.13069,0.98363 -0.11222,1.0708c-0.24292,0.08717 -0.58653,-0.25092 -0.76746,-0.75514c-0.18093,-0.50422 -0.13068,-0.98363 0.11223,-1.0708c0.24292,-0.08717 0.5865,0.25091 0.76743,0.75514z" fill="#000000"/><path d="M242.50025,181.58244c0.14749,0.84752 0.17074,2.28386 0.17074,2.28386l-0.94824,0.8531c0,0 -1.53795,-0.05838 -1.77379,-0.7925c-0.11711,-0.36452 -0.93197,-3.24646 -0.93197,-3.24646l0.89378,-1.15458c0,0 0.58532,-0.15528 0.96456,-0.17719c0.37926,-0.02191 1.02894,0.11176 1.02894,0.11176c0,0 0.44848,1.27449 0.59597,2.12201z" fill="#dfcc17"/><path d="M241.78702,184.64458c0,0 -1.12394,0.85674 -1.37697,0.94753c-0.25303,0.09079 -1.20128,-1.2147 -1.28089,-1.43655c-0.07962,-0.22186 0.28318,-1.58558 0.53622,-1.67637c0.25303,-0.09079 2.12162,2.16538 2.12162,2.16538z" fill="#807d5a"/><path d="M239.34677,177.15234l-0.25758,-0.33352l3.32144,-9.22993l0.22435,0.12561z" fill="#6e6e73"/><path d="M241.95706,168.43865l0.54296,0.24486l-0.82757,2.15191l-0.50633,-0.25802z" fill="#ddcb1e"/></g></g><g stroke="none" stroke-width="0" stroke-linecap="butt" stroke-linejoin="miter"><g><path d="M233.26093,197.11565c0,0 2.30879,-0.59032 3.21974,-1.09761c0.73835,-0.41119 1.83767,-1.71888 1.83767,-1.71888c0,0 0.60684,0.66741 0.05368,2.08584c-0.15557,0.39891 -0.88229,0.60953 -0.88229,0.60953l-0.9757,-0.11962c0,0 -1.06466,0.78391 -1.6493,0.92926c-0.98485,0.24487 -1.75729,0.36945 -2.81799,0.06329c-1.0607,-0.30616 -0.34348,-0.97583 -0.34348,-0.97583l1.55767,0.22399z" fill="#393939"/><path d="M234.244,189.86773l3.02028,-0.29157l0.11463,0.7128l-0.18268,0.06273c0,0 0.22292,0.19364 0.2445,0.26721c0.09444,0.32226 -0.05243,0.29436 -0.05243,0.29436c0,0 0.43581,0.2737 0.6013,0.63203c0.1655,0.35832 0.42252,0.80725 0.46623,1.37098c0.04369,0.56372 -0.23736,1.58223 -0.23736,1.58223c0,0 -0.67461,2.08474 -4.54938,2.67739c-1.14674,0.1754 -1.71735,-0.17543 -1.71735,-0.17543c0,0 -0.09631,-1.59811 0.28475,-2.59971c0.53253,-0.85378 0.7336,-1.27052 0.92303,-1.6567c0.15395,-0.31387 0.44853,-1.17111 0.44853,-1.17111l0.03238,-0.42058l0.17956,-0.31437z" fill="#f01a40"/><path d="M235.42549,186.84112c0.43349,-0.0223 2.18835,0.70199 1.98463,1.30263c-0.2844,0.83853 -0.10211,0.30198 -0.14658,0.638c-0.04446,0.33602 0.38787,0.45411 -0.03933,0.76751c-0.34898,0.25602 -0.75467,0.64044 -1.36067,0.67185c-1.09672,-0.06747 -1.42354,-0.16359 -1.83235,-0.48026c-0.27425,-0.21245 -0.03247,-0.98696 -0.03247,-0.98696c0,0 -0.4761,-0.5077 -0.44802,-0.80482c0.02811,-0.29713 0.99427,-1.06266 1.87479,-1.10794z" fill="#ffffff"/><path d="M234.60092,190.96889c0.07809,-0.30776 -0.01877,-0.91097 -0.01877,-0.91097l1.44626,0.11113l-0.11684,0.98197l-0.26376,0.30128l-0.08669,0.3343c0,0 -0.40448,0.96001 -0.7,2.10126c-0.08122,0.44176 -0.22257,3.13099 -0.22257,3.13099c0,0 -1.12338,0.24402 -1.38686,0.24701c-0.25609,0.00291 -0.76909,-0.0734 -0.76909,-0.0734c0,0 0.0619,-1.4793 0.29124,-2.46019c0.1862,-0.79642 1.67306,-3.11743 1.67306,-3.11743c0,0 0.13932,-0.58808 0.15401,-0.64596z" fill="#ffffff"/></g><path d="M236.74052,188.10805c-0.04048,0.38236 -0.59928,0.63663 -1.24812,0.56794c-0.64884,-0.06869 -1.14202,-0.43433 -1.10154,-0.8167c0.04048,-0.38236 0.59928,-0.63663 1.24811,-0.56793c0.64884,0.06869 1.14201,0.43433 1.10153,0.81669z" fill="#afafaf"/></g><path d="M238.36503,183.20139l-1.15957,3.26337l-0.86092,2.07435c0,0 -0.40126,0.13847 -0.66154,0.17464c-0.26027,0.03616 -0.61897,-0.09082 -0.61897,-0.09082l0.76134,-2.17533l1.2997,-3.51455z" fill="#f79db4" stroke="none" stroke-width="0" stroke-linecap="butt" stroke-linejoin="miter"/><g stroke="none" stroke-width="0" stroke-linecap="butt" stroke-linejoin="miter"><g><path d="M246.93561,194.50232c0,0 1.1535,-2.08529 1.40889,-3.09622c0.20699,-0.81936 0.00897,-2.51625 0.00897,-2.51625c0,0 0.90192,0.01596 1.55505,1.3912c0.18368,0.38677 -0.16136,1.06017 -0.16136,1.06017l-0.7561,0.62816c0,0 -0.15947,1.31247 -0.45455,1.83768c-0.49708,0.88477 -0.93606,1.53243 -1.88626,2.09455c-0.95019,0.56212 -0.94583,-0.41912 -0.94583,-0.41912l1.23114,-0.98021z" fill="#393939"/><path d="M242.33413,188.8168l1.85881,-2.3983l0.59744,0.40533l-0.07963,0.176c0,0 0.29381,-0.02949 0.36216,0.00527c0.29933,0.15223 0.1783,0.24 0.1783,0.24c0,0 0.49809,-0.12954 0.87236,-0.00429c0.37428,0.12525 0.8773,0.24599 1.31761,0.60073c0.44029,0.35475 0.9889,1.25772 0.9889,1.25772c0,0 1.05483,1.92054 -1.17076,5.1473c-0.65865,0.95495 -1.3053,1.12974 -1.3053,1.12974c0,0 -1.22926,-1.02574 -1.69701,-1.98993c-0.25629,-0.97307 -0.42171,-1.40516 -0.57294,-1.80787c-0.12289,-0.32728 -0.54486,-1.12953 -0.54486,-1.12953l-0.28392,-0.31197l-0.1057,-0.34625z" fill="#f01a40"/><path d="M240.94127,185.88143c0.281,-0.33081 2.01152,-1.11148 2.30902,-0.55132c0.41533,0.78201 0.14977,0.2814 0.36388,0.54417c0.2141,0.26277 0.5965,0.02909 0.53166,0.55491c-0.05295,0.42957 -0.05132,0.98846 -0.44399,1.45108c-0.80114,0.752 -1.0952,0.92401 -1.60603,1.00441c-0.34269,0.05393 -0.74064,-0.65313 -0.74064,-0.65313c0,0 -0.69602,-0.00159 -0.89303,-0.22578c-0.197,-0.22419 -0.09168,-1.45239 0.47912,-2.12433z" fill="#ffffff"/><path d="M243.38038,189.31207c-0.17045,-0.26787 -0.67595,-0.611 -0.67595,-0.611l1.07262,-0.9765l0.63462,0.75839l0.03845,0.39856l0.18387,0.29233c0,0 0.42141,0.9527 1.04947,1.95038c0.26586,0.36203 2.12633,2.30896 2.12633,2.30896c0,0 -0.5927,0.985 -0.77118,1.17884c-0.17349,0.1884 -0.58081,0.5095 -0.58081,0.5095c0,0 -1.03429,-1.05942 -1.59102,-1.89897c-0.45201,-0.68164 -1.12184,-3.35544 -1.12184,-3.35544c0,0 -0.33251,-0.50468 -0.36456,-0.55504z" fill="#ffffff"/></g><path d="M242.76517,185.79302c0.25054,0.29164 0.05245,0.87272 -0.44247,1.29791c-0.49492,0.42517 -1.09922,0.53342 -1.34977,0.24178c-0.25054,-0.29164 -0.05246,-0.87275 0.44246,-1.29792c0.49492,-0.42517 1.09923,-0.53341 1.34979,-0.24176z" fill="#afafaf"/></g><path d="M238.24422,179.15413c0,0 -0.82752,-0.2185 -1.05415,-0.47006c-0.24027,-0.26671 -0.42102,-1.06157 -0.42102,-1.06157l0.76688,-0.66883z" fill="#f25c76" stroke="none" stroke-width="0" stroke-linecap="butt" stroke-linejoin="miter"/><path d="M239.78055,181.99346l2.26401,3.02305l0.82315,1.0733c0,0 -0.09074,0.43064 -0.24207,0.65907c-0.15133,0.22843 -0.58438,0.58836 -0.58438,0.58836l-1.0799,-1.4506l-2.40792,-3.36842z" fill="#f79db4" stroke="none" stroke-width="0" stroke-linecap="butt" stroke-linejoin="miter"/><g stroke="none" stroke-width="0" stroke-linecap="butt" stroke-linejoin="miter"><path d="M232.7335,184.25713l2.54572,0.27987c0,0 0.32202,0.20086 0.51271,0.75466c0.12384,0.35966 -0.00521,0.97468 -0.00521,0.97468c0,0 0.49636,-0.55087 0.8935,-0.09845c0.25499,0.29048 -0.18119,1.36219 -0.42389,1.69888c-0.14288,0.19822 -0.51056,0.45824 -0.85715,0.51564c-0.21862,0.03622 -0.49392,-0.09699 -0.49392,-0.09699c0,0 -0.1616,0.35797 -0.55693,0.2196c-0.12112,-0.04239 -0.29865,-0.06619 -0.29865,-0.06619c0,0 -0.19555,0.2195 -0.33783,0.28783c-0.14228,0.06832 -0.40191,0.04524 -0.40191,0.04524l-0.32231,-0.29601c0,0 -0.5164,0.2275 -0.63164,0.21695c-0.45203,-0.04138 -0.59897,-0.52284 -0.67949,-0.78072c-0.14744,-0.47216 -0.31628,-1.55608 -0.24935,-1.68065c0.42012,-0.78178 1.30639,-1.97435 1.30639,-1.97435z" fill="#ffffff"/><g><path d="M234.50748,182.39525c1.54839,0.6028 1.53077,1.08162 1.22553,1.64313c-0.4673,0.85969 -1.51236,1.57297 -3.37949,0.49695c-0.51114,-0.29454 -0.23556,-1.30981 0.02615,-1.70094c0.26173,-0.39114 1.57806,-0.65317 2.1278,-0.43915z" fill="#fed000"/><path d="M234.29303,182.75852c0.53788,0.08602 0.93993,0.3682 0.89803,0.63026c-0.04191,0.26206 -0.51191,0.40475 -1.04981,0.31871c-0.53788,-0.08602 -0.93993,-0.36818 -0.89803,-0.63024c0.04191,-0.26206 0.51193,-0.40476 1.0498,-0.31871z" fill="#c28830"/><path d="M234.84081,177.75533c0.13897,-0.36611 0.35547,-0.39558 0.56239,-0.33731c0.30798,0.08676 0.42506,0.30159 0.35246,0.60657c-0.28978,1.21717 -0.5209,2.28668 -0.66848,3.13662c-0.08997,0.51816 -0.36751,2.55307 -0.36751,2.55307c0,0 -0.109,-0.02136 -0.42735,0.04157c-0.31835,0.06294 -0.77876,-0.22607 -0.77876,-0.22607c0,0 0.23631,-1.13743 0.45932,-2.42181c0.15597,-0.89836 0.44827,-2.24702 0.86796,-3.35265z" fill="#fed5c7"/></g></g><path d="M236.94895,185.0927c0,0 0.91484,-0.05181 1.62287,-0.27946c4.53852,-1.45932 3.99919,-4.50275 3.99919,-4.50275l1.1125,-0.13629c0,0 0.11001,4.03225 -4.33407,5.65294c-0.65606,0.25274 -1.86803,0.43992 -1.86803,0.43992z" fill="#ffffff" stroke="none" stroke-width="0" stroke-linecap="butt" stroke-linejoin="miter"/><g stroke-linecap="butt" stroke-linejoin="miter"><path d="M216.08104,196.33733c0,0 -2.90298,-3.66154 1.15012,-6.94825c1.55632,-1.26203 2.97096,-1.61122 4.8449,-1.52616c1.97732,0.08977 2.70983,2.92233 2.70983,2.92233l-6.74179,6.08815z" fill="#fbdd00" stroke="none" stroke-width="0"/><path d="M217.52503,196.75267l-0.51359,-0.12993c0,0 -0.50733,-0.81834 -0.59055,-1.20125c-0.17848,-0.82116 -0.25409,-1.18142 0.08741,-0.92768c0.1698,0.12615 0.17117,0.69263 0.34754,1.11798c0.26356,0.63562 0.66915,1.14088 0.66915,1.14088z" fill="#a58c48" stroke="#000000" stroke-width="0"/><path d="M216.94473,191.9828c-0.12239,-0.14297 0.03507,-0.95359 1.07737,-1.79311c0.69839,-0.56252 2.02947,-1.32437 2.29009,-0.93136c0.238,0.35888 -1.32643,0.7397 -2.00767,1.32288c-0.68122,0.58317 -1.23741,1.54454 -1.3598,1.40157z" fill="#a58c48" stroke="#000000" stroke-width="0"/><path d="M224.37308,190.24143c0,0 -0.29787,-0.3001 -0.71967,-0.53178c-0.39041,-0.21444 -0.86544,-0.17766 -0.82783,-0.41281c0.01325,-0.08275 0.29524,-0.30139 0.64811,-0.1147c0.39302,0.20797 0.81703,0.65481 0.81703,0.65481l0.08237,0.40448z" fill="#a58c48" stroke="#000000" stroke-width="0"/><path d="M222.03955,194.6668c1.89537,-1.71226 4.67796,-1.56087 4.67796,-1.56087l0.44532,0.39428c0,0 -3.2772,-0.42407 -5.43818,2.33337c-1.35788,1.73268 -1.30191,3.91165 -1.30191,3.91165c0,0 0.14874,0.25057 -0.23856,-0.20289c-0.3873,-0.45346 -0.20837,-0.32458 -0.20837,-0.32458c0,0 -0.59581,-2.14838 2.06374,-4.55095z" fill="#edeee6" stroke="none" stroke-width="0"/><path d="M224.62835,190.37781l0.15565,0.36567c0,0 -3.6454,-0.73946 -5.70845,2.03225c-1.29636,1.74166 -1.03674,4.09347 -1.03674,4.09347l-0.32688,-0.09574c0,0 -1.05572,-2.80971 1.50638,-5.31585c2.02169,-1.97755 5.41003,-1.07981 5.41003,-1.07981z" fill="#edeee6" stroke="none" stroke-width="0"/><path d="M219.53068,191.73684c1.90374,-1.7194 5.20672,-1.07676 5.20672,-1.07676l2.16472,2.53557c0,0 -3.28444,-0.41786 -5.45666,2.3492c-1.36497,1.73876 -1.3135,3.92156 -1.3135,3.92156c0,0 -0.69348,-0.62678 -1.08079,-1.08025c-0.38729,-0.45347 -0.9044,-1.24412 -0.9044,-1.24412c0,0 -1.28735,-2.9926 1.38391,-5.40523z" fill="#ff1a07" stroke="none" stroke-width="0"/><path d="M223.85814,193.21552c0,0 -1.31283,0.70167 -1.8532,1.16426c-0.52513,0.44955 -1.40557,1.62548 -1.40557,1.62548l-2.08579,-2.43646c0,0 0.3823,-1.31714 1.07024,-1.89481c0.68793,-0.57766 2.10593,-0.92979 2.10593,-0.92979z" fill="#ff1808" stroke="#000000" stroke-width="0"/><path d="M220.08418,199.34897c0,0 -1.25943,-1.34786 -1.61222,-1.75997c-0.13322,-0.15561 -0.44474,-0.76803 -0.50132,-1.31568c-0.05659,-0.54766 0.23332,-1.27838 0.23332,-1.27838l1.91193,2.29503c0,0 -0.15981,0.6193 -0.16605,1.02417c-0.00624,0.40487 0.13433,1.03486 0.13433,1.03486z" fill="#ff1808" stroke="#000000" stroke-width="0"/><path d="M226.78468,193.24341c0,0 -0.66342,-0.15497 -0.94428,-0.20306c-0.28085,-0.04809 -0.72539,-0.08279 -0.72539,-0.08279l-2.04668,-2.39077c0,0 1.24243,-0.02873 1.58708,0.25103c0.47075,0.38212 2.12928,2.4256 2.12928,2.4256z" fill="#ff1808" stroke="#000000" stroke-width="0"/><path d="M225.55558,196.19555c-1.01764,0.87117 -4.24589,6.35277 -4.24589,6.35277c0,0 -2.96378,-4.32822 1.61166,-7.95028c2.39933,-1.8994 4.47976,-1.49859 5.68649,-0.81246c0.77133,0.43857 1.08354,1.16372 1.08354,1.16372c0,0 -3.11817,0.37508 -4.13579,1.24624z" fill="#fbdd00" stroke="none" stroke-width="0"/><path d="M223.00214,195.63712c-0.68212,0.58395 -1.3617,1.52259 -1.43371,1.43848c-0.072,-0.0841 0.22116,-0.98097 1.1513,-1.83003c0.51512,-0.47022 1.68154,-1.16831 2.05528,-1.02063c0.25261,0.0998 -1.24307,0.95862 -1.77291,1.41219z" fill="#a58c48" stroke="#000000" stroke-width="0"/><path d="M220.50089,200.57551l-0.14098,-0.56539c0,0 0.18006,-1.60195 0.36386,-1.20867c0.11795,0.25237 -0.22286,1.77405 -0.22286,1.77405z" fill="#a58c48" stroke="#000000" stroke-width="0"/><path d="M226.34513,193.77801c-0.2448,-0.28594 1.37423,-0.34916 1.37423,-0.34916l0.75558,0.35447c0,0 -1.88504,0.28063 -2.12984,-0.0053z" fill="#a58c48" stroke="#000000" stroke-width="0"/><path d="M227.6208,201.70228c-2.06337,1.81131 -5.18044,2.12517 -6.30359,0.8132c-1.12315,-1.31199 -0.0521,-4.28521 2.00842,-6.09976c2.15101,-1.8942 5.2223,-2.83877 6.34544,-1.52677c1.56639,1.82974 0.39128,4.70373 -2.03382,6.83258z" fill="#fbdd00" stroke="#000000" stroke-width="0.25"/><path d="M223.3557,202.99527c-0.67678,-0.79054 0.28132,-2.72127 2.13994,-4.3124c1.85864,-1.59114 3.91398,-2.24014 4.59077,-1.4496c0.67678,0.79054 -0.28131,2.72129 -2.13995,4.31242c-1.85864,1.59114 -3.91399,2.24012 -4.59078,1.44958z" fill="#fbdd00" stroke="#000000" stroke-width="0.25"/><path d="M228.53184,191.87703c0,0 -0.20401,-0.57241 -0.44176,-0.90331c-0.23774,-0.3309 -0.73791,-0.73858 -0.73791,-0.73858l3.61247,-2.33818l5.84926,-3.89057c0,0 0.57075,0.22411 0.71346,0.40806c0.1427,0.18396 -0.01066,0.71314 -0.01066,0.71314l-5.6437,4.25219l-3.34117,2.49726z" fill="#fbdd00" stroke="none" stroke-width="0"/><path d="M226.68242,193.28409l-1.99296,-1.89574c0,0 2.11489,-1.3977 2.44365,-1.29166c0.55675,0.17958 1.49177,1.63094 1.40079,2.03645c-0.02396,0.10682 -1.49432,1.19749 -1.49432,1.19749z" fill="#c8c8c6" stroke="none" stroke-width="0"/><path d="M215.98112,196.15898c0,0 -2.68466,-3.14209 0.64344,-6.83115c2.24553,-2.4891 5.8314,-1.33141 5.8314,-1.33141c0,0 -1.5204,-0.21663 -2.90473,0.15914c-1.12041,0.30413 -2.20848,1.10856 -2.958,1.97634c-0.50417,0.58374 -1.02461,1.21659 -1.23028,1.78095c-0.84784,2.32655 0.61819,4.24612 0.61819,4.24612z" fill="#fbdd00" stroke="#000000" stroke-width="0.25"/><path d="M235.18195,186.89271c0,0 -0.29365,-0.25441 -0.5314,-0.5853c-0.23774,-0.3309 -0.35531,-0.64392 -0.35531,-0.64392l2.51868,-1.65714c0,0 0.57074,0.22411 0.71345,0.40807c0.1427,0.18396 -0.01066,0.71314 -0.01066,0.71314z" fill="#a56402" stroke="none" stroke-width="0"/></g><path d="M234.77952,179.39109c-0.1051,-0.58369 0.42527,-1.64376 0.42527,-1.64376l0.33303,-0.15966l1.23938,-0.07657c0,0 0.2439,0.71153 0.50625,1.02948c0.33116,0.40137 0.92049,0.5181 0.92049,0.5181l0.51209,0.94099l1.61079,0.18224l0.12594,0.12859l0.68991,0.05861l1.46973,-0.04301c0,0 0.3344,0.86888 -0.60209,2.11916c-0.86298,1.15215 -1.22211,1.57362 -2.91903,2.35106c-1.55009,0.71017 -0.6008,0.89327 -2.18103,0.33125c-1.01566,-0.36122 -1.5051,-3.26799 -1.5051,-3.26799l-0.0086,-0.16362l0.2536,-0.25918c0,0 -0.75318,-1.39354 -0.8706,-2.04568z" fill="#f01a40" stroke="none" stroke-width="0" stroke-linecap="butt" stroke-linejoin="miter"/><g stroke="none" stroke-width="0" stroke-linecap="butt" stroke-linejoin="miter"><path d="M233.37929,186.42553c0.18659,-0.83009 0.69783,-2.15954 0.69783,-2.15954l2.42277,-0.39722c0,0 0.34909,0.10252 0.6678,0.5648c0.20696,0.30021 0.2462,0.90134 0.2462,0.90134c0,0 0.31645,-0.63652 0.79968,-0.32102c0.31026,0.20257 0.18352,1.30449 0.04611,1.6779c-0.08088,0.21983 -0.35342,0.55462 -0.65868,0.6969c-0.19257,0.08975 -0.48106,0.03763 -0.48106,0.03763c0,0 -0.05706,0.37217 -0.45772,0.34622c-0.12276,-0.00795 -0.29284,0.01581 -0.29284,0.01581c0,0 -0.12402,0.25304 -0.23781,0.35278c-0.11379,0.09974 -0.35948,0.1453 -0.35948,0.1453l-0.37386,-0.19032c0,0 -0.41825,0.34308 -0.52736,0.363c-0.42807,0.07821 -0.68772,-0.32852 -0.82851,-0.54588c-0.25775,-0.39802 -0.69282,-1.35541 -0.6631,-1.48768z" fill="#ffffff"/><path d="M233.65359,182.73501c0.11679,-0.43577 1.23057,-1.07993 1.79559,-1.05541c1.59134,0.06909 1.72317,0.50911 1.61949,1.11294c-0.15873,0.92449 -0.88701,1.89445 -2.91373,1.49427c-0.55481,-0.10955 -0.61812,-1.11603 -0.50133,-1.5518z" fill="#fed000"/><path d="M235.43449,180.53772c0.22625,-0.84428 0.62141,-2.10679 1.11727,-3.12627c0.16418,-0.33759 0.37345,-0.34708 0.56599,-0.27362c0.28658,0.10935 0.37987,0.32454 0.28431,0.60946c-0.38144,1.13717 -0.69417,2.13839 -0.90822,2.93717c-0.13051,0.48697 -0.45633,2.10119 -0.45633,2.10119c0,0 -0.18137,0.17223 -0.49072,0.20491c-0.30936,0.03268 -0.84507,-0.02226 -0.84507,-0.02226c0,0 0.40932,-1.2235 0.73279,-2.43059z" fill="#fed5c7"/></g><path d="M237.54357,176.35736c0,0 0.24879,0.74826 -0.98033,1.44015c-1.14323,0.64355 -1.52268,0.01939 -1.52268,0.01939c0,0 0.13608,-0.65665 0.57575,-0.91301c0.43966,-0.25637 1.92726,-0.54652 1.92726,-0.54652z" fill="#afafaf" stroke="none" stroke-width="0" stroke-linecap="butt" stroke-linejoin="miter"/><g><g><path d="M234.5761,171.25774c0,0 0.52885,-0.74624 1.30141,-0.93472c0.68946,-0.1682 1.02479,-0.0108 1.54107,0.44167c0.78209,0.6854 0.56159,2.0673 0.56159,2.0673c0,0 0.09873,-2.05352 -1.49115,-2.35351c-0.98364,-0.18559 -1.91294,0.77927 -1.91294,0.77927z" fill="#000000" stroke="none" stroke-width="0" stroke-linecap="butt" stroke-linejoin="miter"/><path d="M235.04457,166.24077c3.31224,-0.41537 6.28773,1.56363 6.64596,4.42021c0.35822,2.85657 -2.03646,5.50901 -5.3487,5.92439c-3.31224,0.41537 -6.28774,-1.5636 -6.64597,-4.4202c-0.35822,-2.85657 2.03646,-5.50902 5.34871,-5.9244z" fill="#f79eb4" stroke="none" stroke-width="0" stroke-linecap="butt" stroke-linejoin="miter"/><path d="M230.61071,173.32376c-0.00028,-0.00068 0.34107,1.1337 0.82522,1.72548c0.48417,0.5918 2.23879,2.10954 2.23879,2.10954l0.3938,0.86892c0,0 -1.47547,0.12687 -2.94673,-1.87495c-0.91639,-1.23955 -1.01874,-2.29553 -1.01052,-2.28033" fill="#f79eb4" stroke="#f89db5" stroke-width="0" stroke-linecap="butt" stroke-linejoin="round"/><g fill="#ffd5c5" stroke="none" stroke-width="1" stroke-linecap="round" stroke-linejoin="round"><path d="M231.8241,175.5856c0.00551,-0.05941 0.11377,0.04531 0.16156,0.08104c0.29536,0.22055 0.55174,-0.10974 0.72835,-0.28757c0.13573,-0.13661 0.37416,-0.23 0.56099,-0.25567c0.9001,-0.11407 2.70516,0.25443 3.01816,0.22866c0.2913,-0.02399 1.0748,-0.59509 1.36947,-0.73846c0.30232,-0.14708 0.58334,-0.08052 0.63595,-0.04942c0.11029,0.06526 0.88524,0.47114 0.06183,1.61508c-0.11441,0.15894 -0.88389,0.78764 -1.34618,0.90195c-0.38765,0.09582 -1.73293,0.46414 -2.81429,0.24685c-0.86179,-0.17318 -1.41381,-0.49919 -1.48429,-0.54111c-0.43077,-0.25623 -0.94179,-0.65621 -0.89155,-1.20135z"/><path d=""/></g><g fill="#000000" stroke="#000000" stroke-width="0.125" stroke-linecap="butt" stroke-linejoin="round"><path d="M230.75753,174.15631c0.00654,0.02394 -0.63576,-0.00304 -0.71553,-0.0156c-0.36331,-0.05712 -0.67455,-0.128 -1.024,-0.24462c-0.11149,-0.03719 -0.48506,-0.20753 -0.47937,-0.20637c0.16749,0.03353 0.32591,0.11976 0.49296,0.16056c0.27902,0.06808 0.56326,0.11141 0.84767,0.15212c0.44978,0.04768 0.73991,-0.01942 0.80444,-0.0065"/><path d="M230.56502,173.68526c0.00609,0.02232 -0.62495,-0.03897 -0.9379,-0.16069c-0.31294,-0.12171 -1.01468,-0.56402 -1.00609,-0.55111c0.0228,0.03421 0.64177,0.32151 1.07918,0.45497c0.43742,0.13347 0.76464,0.07994 0.78686,0.0515"/></g><g fill="#000000" stroke="none" stroke-width="1" stroke-linecap="round" stroke-linejoin="round"><path d="M233.08577,175.81604c-0.10818,0.02097 -0.51439,-0.17678 -0.37217,-0.31124c0.0822,-0.07773 0.59985,-0.20163 0.76137,-0.11299c0.2125,0.11665 -0.15639,0.35922 -0.38921,0.42424z"/><path d=""/></g><path d="M240.19585,171.29617c0.02437,0.0108 0.15044,2.30227 0.06891,2.8394c-0.12236,0.80597 -0.38437,1.5915 -0.83236,2.27586c-0.19048,0.29096 -0.3951,0.53714 -0.63036,0.78922c-0.07614,0.08162 -0.40193,0.35873 -0.40193,0.35873c0,0 0.25204,-1.06799 0.08637,-2.71824c-0.08798,-0.87632 -0.44977,-2.79493 -0.42286,-2.74487" fill="#f79eb4" stroke="#f89db5" stroke-width="0" stroke-linecap="butt" stroke-linejoin="round"/><path d="M241.48132,170.46008c0.22305,0.3343 0.35339,2.19894 0.15617,3.59314c-0.15199,1.07443 -0.39386,1.38932 -0.81687,2.00394c-0.47907,0.69605 -0.87926,0.81018 -0.87926,0.81018c0,0 0.31972,-1.20496 0.36821,-1.99533c0.0485,-0.79038 -0.00737,-3.60614 -0.02372,-3.61885" fill="#f79eb4" stroke="#f89db5" stroke-width="0" stroke-linecap="butt" stroke-linejoin="round"/><g fill="#ee1a40" stroke="none" stroke-width="1" stroke-linecap="round" stroke-linejoin="round"><path d="M231.15709,168.70228c0.07665,-0.12854 2.04647,-2.1792 4.82763,-2.06663c3.44241,0.17799 4.28665,4.20799 4.28416,4.20766c-0.03475,-0.00466 -0.76893,-1.49415 -1.72555,-2.0678c-1.24041,-0.74387 -1.95899,-1.17607 -3.22551,-1.23581c-1.60691,-0.07581 -3.62369,1.57889 -3.70266,1.64515"/><path d=""/></g><path d="M231.42096,171.47342c-0.03266,-0.02034 -1.65946,-0.01036 -2.19573,0.27449c-0.98212,0.52166 -2.97686,1.25628 -2.9996,1.26159c-0.01585,0.00365 0.81143,-0.44901 1.04701,-1.16271c0.16999,-0.77359 1.19494,-1.22344 1.50021,-1.34178c1.71428,-0.65397 2.72916,-0.17716 2.70434,-0.19262" fill="#f79eb4" stroke="#f89db5" stroke-width="0" stroke-linecap="butt" stroke-linejoin="round"/><path d="M231.46904,170.31586c-0.11352,-0.06989 -1.46479,-0.29114 -2.51916,-0.35591c-0.75998,-0.04668 -2.7215,-0.49365 -2.7215,-0.49365c0,0 1.63843,-0.63599 3.66818,-0.98318c0.60374,-0.04401 0.77909,0.00362 1.08943,0.2199c0.31034,0.21627 1.31747,1.46026 1.33682,1.54157" fill="#f79eb4" stroke="#f89db5" stroke-width="0" stroke-linecap="butt" stroke-linejoin="round"/><g stroke="none" stroke-width="1" stroke-linecap="round" stroke-linejoin="round"><g fill="#f79eb4"><path d="M235.16391,167.9815c0.0251,-0.1565 0.88944,-1.04337 1.61985,-1.50799c0.73042,-0.4646 1.46412,-0.77904 1.65128,-0.57276c0.14317,0.15777 0.30851,1.01134 0.39006,1.68273c0.08155,0.67139 -0.00575,1.30633 0.01657,1.66516"/></g><g fill="#ffd5c5"><path d="M235.86126,168.06012c0.07896,-0.1717 0.45261,-0.6007 0.847,-0.86054c0.39438,-0.25984 1.2086,-0.64889 1.30222,-0.55551c0.0231,0.02303 0.18553,0.7624 0.2331,1.26065c0.04758,0.49824 -0.01845,0.90288 -0.01834,0.98839"/></g></g><g fill="#f79eb4" stroke="none" stroke-width="1" stroke-linecap="round" stroke-linejoin="round"><path d="M229.55149,170.75753c-0.01004,-0.01169 -0.57046,-0.77654 -0.80164,-1.53753c-0.14811,-0.48752 -0.11233,-1.14145 -0.07269,-1.16971c0.19362,-0.13791 1.0216,-0.17461 1.68634,-0.21237c0.66475,-0.03777 0.984,-0.00756 1.28769,0.04344"/><path d=""/></g><path d="M233.57914,173.53147c0.60992,-0.3596 0.35378,-0.59774 2.66955,-2.05064c0.43474,-0.10587 1.73646,-0.88657 1.72115,1.27441c-0.00509,0.71913 -0.19334,1.8238 -1.38148,2.56733c-0.62379,0.27344 -2.24257,-0.26557 -2.91784,-0.21588c-1.18558,0.08724 -0.94788,0.59497 -1.53172,0.64669c-0.14612,0.01294 -1.07318,-0.73881 -1.55186,-1.91061c-0.2257,-0.55255 -0.02448,-0.28762 0.04314,-0.2955c0.44615,-0.05204 0.68216,-0.28158 1.15007,0.18674c0.32728,0.32756 0.74238,0.57941 1.07308,0.50757c0.19278,-0.04187 0.3909,-0.05671 0.72592,-0.71012z" fill="#ffffff" stroke="none" stroke-width="0" stroke-linecap="butt" stroke-linejoin="miter"/><path d="M231.604,172.47966c-0.10367,0.09795 -0.83293,0.78724 -1.46776,1.20647c-0.63483,0.41923 -2.23444,1.19332 -2.19678,1.21354c0.00174,0.00094 0.34911,-1.072 0.7338,-1.67172c0.38469,-0.59972 0.89335,-1.04641 1.12061,-1.21924c0.79112,-0.60161 1.73754,-0.48856 1.70089,-0.45399" fill="#f79eb4" stroke="#f89db5" stroke-width="0" stroke-linecap="butt" stroke-linejoin="round"/><g fill="#000000" stroke="#000000" stroke-width="0.125" stroke-linecap="butt" stroke-linejoin="round"><path d="M237.54278,171.46222c0.04673,-0.02411 0.09124,0.00583 0.13781,0.00251c0.04883,-0.00349 0.2699,-0.05279 0.43198,-0.11848c0.83234,-0.33735 1.18178,-0.90167 1.18178,-0.90167c0,0 -0.1072,0.39816 -1.25382,1.08683c-0.17859,0.10727 -0.33224,0.11354 -0.36097,0.08085"/><path d="M237.80996,171.50795c0.03392,-0.00039 0.10161,0.05055 0.13307,0.06802c0.07137,0.03966 0.59254,0.26261 1.31535,0.05558c0.23934,-0.06998 0.98016,-0.38748 0.98016,-0.38748c0,0 -0.35221,0.27429 -1.0191,0.46079c-0.27968,0.07821 -0.89441,0.159 -1.14585,0.11018c-0.1356,-0.02632 -0.17717,-0.06447 -0.17717,-0.06447"/></g><g stroke="none" stroke-linecap="butt" stroke-linejoin="miter"><path d="M235.52399,173.71871c0.13551,0.70777 0.05975,1.31706 -0.16922,1.3609c-0.22897,0.04383 -0.52446,-0.49437 -0.66,-1.20213c-0.13551,-0.70777 -0.05973,-1.31708 0.16923,-1.36091c0.22897,-0.04383 0.52446,0.49437 0.65998,1.20214z" fill="#169c5b" stroke-width="NaN"/><path d="M235.31558,173.92277c0.05659,0.29562 0.02094,0.55089 -0.07968,0.57015c-0.10062,0.01927 -0.22807,-0.20478 -0.28466,-0.50039c-0.05659,-0.29562 -0.02094,-0.55089 0.07968,-0.57015c0.10062,-0.01927 0.22807,0.20478 0.28466,0.50039z" fill="#000000" stroke-width="0"/><path d="M235.11151,173.26503c0.05727,0.2991 0.00526,0.56039 -0.11617,0.58365c-0.12144,0.02325 -0.26629,-0.20035 -0.32357,-0.49945c-0.05727,-0.2991 -0.00526,-0.56039 0.11617,-0.58366c0.12144,-0.02325 0.26629,0.20036 0.32357,0.49945z" fill="#ffffff" stroke-width="0"/></g><g stroke="none" stroke-linecap="butt" stroke-linejoin="miter"><path d="M232.19443,174.62779c0.09557,0.49922 0.04216,0.92898 -0.11935,0.9599c-0.16152,0.03092 -0.36993,-0.3487 -0.46551,-0.84791c-0.09557,-0.49922 -0.04215,-0.92898 0.11936,-0.9599c0.16152,-0.03092 0.36992,0.34868 0.46551,0.8479z" fill="#169c5b" stroke-width="NaN"/><path d="M232.04745,174.77171c0.03993,0.20852 0.01477,0.38855 -0.05621,0.40215c-0.07097,0.01359 -0.16086,-0.14443 -0.20078,-0.35294c-0.03993,-0.20852 -0.01477,-0.38855 0.05622,-0.40214c0.07097,-0.01359 0.16086,0.14442 0.20077,0.35293z" fill="#000000" stroke-width="0"/><path d="M231.90349,174.30779c0.04039,0.21097 0.0037,0.39525 -0.08194,0.41165c-0.08565,0.01641 -0.18783,-0.14132 -0.22823,-0.35227c-0.04039,-0.21097 -0.00372,-0.39527 0.08194,-0.41167c0.08565,-0.01641 0.18781,0.14134 0.22822,0.35229z" fill="#ffffff" stroke-width="0"/></g></g><path d="M236.42266,176.25744c0,0 0.47873,-0.11507 0.79265,-0.16243c0.31393,-0.04736 0.46867,0.00426 0.46867,0.00426" fill="none" stroke="#000000" stroke-width="0.125" stroke-linecap="round" stroke-linejoin="miter"/></g></g></g></svg>