<svg version="1.1" xmlns="http://www.w3.org/2000/svg" xmlns:xlink="http://www.w3.org/1999/xlink" width="101.85875" height="46.46126" viewBox="0,0,101.85875,46.46126"><g transform="translate(-185.6444,-216.08559)"><g data-paper-data="{&quot;isPaintingLayer&quot;:true}" fill-rule="nonzero" stroke="none" stroke-width="0" stroke-linecap="butt" stroke-linejoin="miter" stroke-miterlimit="10" stroke-dasharray="" stroke-dashoffset="0" style="mix-blend-mode: normal"><g data-paper-data="{&quot;index&quot;:null}"><path d="M280.5216,250.2691c-1.93515,0.12921 -5.24446,-3.13394 -5.37035,-5.01947c-0.12589,-1.88553 3.46786,-2.4699 5.40301,-2.59911c1.93514,-0.1292 3.10285,0.24552 3.22874,2.13105c0.12589,1.88553 -1.32625,5.35832 -3.2614,5.48753z" fill="#ecd26c"/><path d="M274.438,247.38647c1.88664,-0.10625 5.30474,0.90039 5.36852,2.28092c0.06378,1.38053 -3.30545,3.77164 -5.19209,3.8779c-1.88663,0.10626 -2.34894,-2.45453 -2.41272,-3.83506c-0.06379,-1.38053 0.34966,-2.2175 2.2363,-2.32376z" fill="#ecd26c"/><path d="M276.16703,255.87709c0.02087,-1.89012 1.5271,-5.20932 3.22273,-5.15177c1.69563,0.05755 4.354,3.62614 4.33313,5.51626c-0.02088,1.89012 -3.19368,2.12632 -4.88931,2.06877c-1.69563,-0.05755 -2.68743,-0.54314 -2.66656,-2.43326z" fill="#ecd26c"/><path d="M279.91118,250.98721c0.06697,-1.69529 3.6503,-4.33378 5.54026,-4.3024c1.88996,0.03139 2.10851,3.20545 2.04154,4.90074c-0.06697,1.69529 -0.55809,2.68437 -2.44805,2.65299c-1.88996,-0.03139 -5.20072,-1.55604 -5.13375,-3.25133z" fill="#ecd26c"/><path d="M279.8825,252.25886c-1.0715,0.07154 -1.99811,-0.73908 -2.06965,-1.81058c-0.07153,-1.0715 0.73908,-1.99811 1.81058,-2.06965c1.0715,-0.07153 1.99811,0.73908 2.06965,1.81058c0.07153,1.0715 -0.73908,1.99811 -1.81058,2.06965z" fill="#fce47d"/></g><g data-paper-data="{&quot;index&quot;:null}"><path d="M274.36872,230.7221c-1.17553,2.02648 -6.67748,3.14242 -8.65202,1.99704c-1.97453,-1.14538 -0.13664,-5.14103 1.03888,-7.16753c1.17552,-2.02649 2.33851,-2.94402 4.31305,-1.79864c1.97453,1.14538 4.47561,4.94263 3.30009,6.96913z" fill="#ecd26c"/><path d="M267.37719,234.87499c1.16581,-1.9624 4.47971,-4.70909 5.90626,-3.84202c1.42655,0.86708 1.55076,5.85615 0.38495,7.81855c-1.16581,1.96241 -4.04394,0.69879 -5.47049,-0.16828c-1.42656,-0.86707 -1.98653,-1.84584 -0.82072,-3.80824z" fill="#ecd26c"/><path d="M277.05228,238.86805c-1.88015,-1.29556 -4.19081,-5.04344 -2.98965,-6.70396c1.20116,-1.66052 6.57026,-1.91813 8.45041,-0.62256c1.88015,1.29556 -0.02277,4.63455 -1.22393,6.29507c-1.20116,1.66052 -2.35667,2.32702 -4.23682,1.03145z" fill="#ecd26c"/><path d="M281.39721,228.86582c-1.306,1.87292 -5.06666,4.1627 -6.72048,2.95233c-1.65382,-1.21038 -1.88156,-6.58081 -0.57557,-8.45374c1.30599,-1.87291 4.63435,0.04856 6.28817,1.25893c1.65381,1.21037 2.31386,2.36955 1.00787,4.24248z" fill="#ecd26c"/><path d="M275.07864,229.4942c1.12208,0.65089 1.50405,2.08817 0.85316,3.21025c-0.65089,1.12208 -2.08816,1.50404 -3.21024,0.85315c-1.12208,-0.65088 -1.50405,-2.08815 -0.85316,-3.21023c0.65089,-1.12208 2.08816,-1.50405 3.21024,-0.85316z" fill="#fce47d"/></g><g data-paper-data="{&quot;index&quot;:null}"><path d="M272.74252,236.38199c1.04737,1.57714 1.65437,5.22497 0.20014,6.19071c-1.45423,0.96573 -5.69382,-0.39961 -6.74119,-1.97673c-1.04737,-1.57713 1.48,-3.66885 2.93423,-4.63459c1.45422,-0.96575 2.55944,-1.15652 3.60681,0.4206z" fill="#b59bb9"/><path d="M266.71648,242.76099c1.42768,-0.92447 4.61752,-1.56103 5.36208,-0.39377c0.74457,1.16725 -0.69765,4.72436 -2.12533,5.64883c-1.42768,0.92447 -3.07886,-1.08893 -3.82342,-2.25619c-0.74457,-1.16726 -0.84102,-2.07442 0.58666,-2.99889z" fill="#b59bb9"/><path d="M272.34514,249.35007c-0.93445,-1.64586 -1.4217,-5.18456 -0.06157,-5.88291c1.36013,-0.69836 5.24235,1.21869 6.1768,2.86455c0.93445,1.64586 -1.4376,3.25035 -2.79773,3.9487c-1.36012,0.69835 -2.38305,0.71551 -3.3175,-0.93035z" fill="#b59bb9"/><path d="M278.49062,244.01394c-1.49954,0.80675 -4.86571,0.9474 -5.66596,-0.55009c-0.80026,-1.49749 0.68558,-5.36326 2.18513,-6.17002c1.49954,-0.80675 3.26786,1.84523 4.06811,3.34272c0.80026,1.49749 0.91227,2.57064 -0.58728,3.3774z" fill="#b59bb9"/><path d="M273.82213,241.9866c0.59519,0.89625 0.42494,2.05627 -0.38027,2.59101c-0.80521,0.53474 -1.94044,0.24169 -2.53563,-0.65455c-0.59519,-0.89624 -0.42495,-2.05627 0.38026,-2.59101c0.80521,-0.53474 1.94045,-0.24168 2.53564,0.65456z" fill="#e5d4b1"/></g><g data-paper-data="{&quot;index&quot;:null}"><path d="M256.4792,237.65115c2.01579,1.2044 4.66068,4.32936 3.56629,5.4584c-1.09439,1.12904 -6.54324,0.70906 -8.55903,-0.49535c-2.0158,-1.20441 -0.33701,-3.53354 0.75738,-4.66259c1.09439,-1.12904 2.21956,-1.50488 4.23535,-0.30047z" fill="#def4ea"/><path d="M268.20975,241.98251c-1.45514,1.56851 -5.85484,3.30781 -7.93945,2.08832c-2.08461,-1.2195 -2.72314,-6.04446 -1.268,-7.61297c1.45514,-1.56851 5.61572,0.42536 7.70033,1.64485c2.0846,1.21949 2.96227,2.31129 1.50713,3.8798z" fill="#def4ea"/><path d="M251.11337,245.50758c1.60886,-1.47193 5.93478,-3.05351 7.61795,-1.8507c1.68317,1.2028 1.40045,5.82357 -0.20841,7.29549c-1.60886,1.47193 -5.04715,-0.50834 -6.73032,-1.71115c-1.68318,-1.20281 -2.28809,-2.26173 -0.67923,-3.73365z" fill="#def4ea"/><path d="M261.55529,250.2799c-1.90358,-1.3149 -4.00378,-4.77391 -2.51148,-6.06117c1.49229,-1.28726 7.36751,-0.91564 9.2711,0.39927c1.90359,1.31492 -0.53919,3.95985 -2.03149,5.24711c-1.4923,1.28728 -2.82454,1.72972 -4.72813,0.41481z" fill="#def4ea"/><path d="M257.94644,245.19906c-1.15425,-0.67522 -1.41961,-1.94517 -0.59269,-2.83653c0.82691,-0.89136 2.43296,-1.06654 3.58721,-0.39131c1.15425,0.67522 1.41961,1.94517 0.59269,2.83653c-0.82691,0.89136 -2.43296,1.06654 -3.58721,0.39131z" fill="#dff1a4"/></g><g data-paper-data="{&quot;index&quot;:null}"><path d="M210.1196,228.92906c1.01139,-2.04639 4.63372,-4.79472 6.73397,-3.75672c2.10025,1.03801 3.58002,6.45349 2.56863,8.49988c-1.01138,2.0464 -5.12054,0.4786 -7.22079,-0.5594c-2.10025,-1.038 -3.09319,-2.13736 -2.0818,-4.18375z" fill="#ecd26c"/><path d="M221.46271,231.87188c-2.03568,-1.03258 -4.99688,-4.15627 -4.22671,-5.63738c0.77017,-1.48111 5.73989,-1.93721 7.77557,-0.90462c2.03568,1.03258 0.96647,3.98845 0.1963,5.46956c-0.77017,1.48111 -1.70948,2.10502 -3.74516,1.07243z" fill="#ecd26c"/><path d="M218.31275,225.38172c-1.73679,-1.08794 -2.35127,-6.42799 -1.18376,-8.39022c1.16752,-1.96222 4.6258,-0.28579 6.36259,0.80215c1.73681,1.08794 2.47875,2.19652 1.31123,4.15875c-1.16752,1.96223 -4.75327,4.51726 -6.49006,3.42932z" fill="#ecd26c"/><path d="M214.53349,218.28303c1.95571,1.17841 4.49077,4.77829 3.39319,6.50902c-1.09757,1.73072 -6.44096,2.31551 -8.39667,1.13709c-1.95571,-1.17842 -0.26007,-4.62731 0.83751,-6.35804c1.09758,-1.73072 2.21027,-2.46647 4.16598,-1.28807z" fill="#ecd26c"/><path d="M215.58115,224.54574c0.57475,-1.16292 1.9834,-1.63974 3.14632,-1.06499c1.16292,0.57474 1.63972,1.9834 1.06498,3.14632c-0.57474,1.16292 -1.9834,1.63973 -3.14632,1.06498c-1.16292,-0.57475 -1.63972,-1.9834 -1.06498,-3.14632z" fill="#fce47d"/></g><g data-paper-data="{&quot;index&quot;:null}"><path d="M223.77745,239.9173c-2.13642,2.18396 -9.44891,1.82799 -11.57688,-0.25366c-2.12796,-2.08165 1.47788,-6.54187 3.61432,-8.72584c2.13643,-2.18397 3.90098,-2.97029 6.02895,-0.88864c2.12795,2.08165 4.07005,7.68417 1.93361,9.86814z" fill="#b59bb9"/><path d="M213.60722,242.92164c2.10358,-2.10607 7.17403,-4.51377 8.69873,-2.95983c1.5247,1.55394 0.07988,7.89973 -2.02369,10.00582c-2.10357,2.10608 -5.33569,-0.41513 -6.86039,-1.96907c-1.52471,-1.55394 -1.91823,-2.97083 0.18534,-5.07692z" fill="#b59bb9"/><path d="M224.55401,251.07494c-1.96046,-2.24115 -3.6777,-7.72013 -1.62638,-9.4333c2.05132,-1.71317 8.92029,-0.31495 10.88075,1.92621c1.96045,2.24116 -1.51678,5.85051 -3.5681,7.56368c-2.05132,1.71316 -3.72581,2.18458 -5.68627,-0.05658z" fill="#b59bb9"/><path d="M223.81485,241.40154c-1.70173,-2.06082 -0.26532,-8.9219 1.9867,-10.86987c2.25204,-1.94797 5.84198,1.5493 7.54372,3.61011c1.70174,2.06082 2.16383,3.73789 -0.0882,5.68586c-2.25204,1.94797 -7.74048,3.63471 -9.44222,1.5739z" fill="#b59bb9"/><path d="M225.06899,238.59327c1.20927,1.18294 1.23059,3.12221 0.04765,4.33148c-1.18295,1.20927 -3.12221,1.23059 -4.33148,0.04765c-1.20927,-1.18296 -1.23061,-3.12223 -0.04766,-4.3315c1.18296,-1.20927 3.12223,-1.23059 4.3315,-0.04765z" fill="#e5d4b1"/></g><g data-paper-data="{&quot;index&quot;:null}"><path d="M244.77212,230.39036c2.31864,-0.37148 6.35294,0.32509 6.23922,1.89338c-0.11372,1.56829 -4.55995,4.74591 -6.87858,5.11739c-2.31863,0.37147 -2.52775,-2.49198 -2.41403,-4.06027c0.11372,-1.56828 0.73477,-2.57901 3.0534,-2.95049z" fill="#def4ea"/><path d="M256.54536,226.17635c-0.10796,2.13681 -2.36324,6.2957 -4.74429,6.69981c-2.38105,0.40412 -5.96934,-2.88408 -5.86137,-5.0209c0.10797,-2.13682 4.5776,-3.28068 6.95865,-3.68479c2.38105,-0.40411 3.75499,-0.13094 3.64702,2.00588z" fill="#def4ea"/><path d="M250.35556,233.5473c2.06264,-0.15907 4.81364,3.56428 4.52581,5.7258c-0.28783,2.16152 -4.19507,2.8519 -6.25772,3.01098c-2.06265,0.15908 -3.20641,-0.26406 -2.91858,-2.42558c0.28784,-2.16152 2.58784,-6.15212 4.65049,-6.3112z" fill="#def4ea"/><path d="M256.7738,236.81012c-2.30359,0.21472 -6.13492,-1.08773 -5.81785,-3.03284c0.31707,-1.94511 5.05906,-5.43364 7.36265,-5.64836c2.30359,-0.21471 2.12992,3.38149 1.81285,5.3266c-0.31707,1.9451 -1.05407,3.13987 -3.35766,3.35459z" fill="#def4ea"/><path d="M253.2427,232.62962c-0.06136,1.21432 -1.17987,2.38009 -2.49826,2.60385c-1.3184,0.22376 -2.33742,-0.57923 -2.27607,-1.79353c0.06136,-1.21431 1.17986,-2.38008 2.49825,-2.60384c1.31839,-0.22376 2.33742,0.57923 2.27607,1.79353z" fill="#dff1a4"/></g><g data-paper-data="{&quot;index&quot;:null}"><path d="M222.61901,222.471c2.49456,0.1635 6.82142,2.03443 6.68344,3.85756c-0.138,1.82313 -4.94648,4.4219 -7.44103,4.25839c-2.49455,-0.16352 -2.69031,-3.60054 -2.55232,-5.42367c0.13799,-1.82313 0.81536,-2.85581 3.30991,-2.6923z" fill="#def4ea"/><path d="M230.14483,227.23354c-2.56195,-0.14116 -6.38351,-4.95782 -6.24597,-7.45407c0.13755,-2.49625 4.95065,-2.68638 7.5126,-2.54521c2.56195,0.14117 4.03514,0.82081 3.8976,3.31706c-0.13755,2.49625 -2.60228,6.82339 -5.16423,6.68222z" fill="#def4ea"/><path d="M223.52569,233.89838c0.33102,-2.4787 2.84212,-6.59545 5.05953,-6.24752c2.21742,0.34793 5.13514,5.46113 4.80412,7.93983c-0.33101,2.4787 -4.5354,2.27924 -6.75281,1.93131c-2.21742,-0.34793 -3.44184,-1.14492 -3.11083,-3.62362z" fill="#def4ea"/><path d="M235.44715,233.1727c-2.47682,-0.34479 -6.57953,-2.87875 -6.21928,-5.09419c0.36025,-2.21544 5.4896,-5.10467 7.96642,-4.75988c2.47682,0.34479 2.25397,4.54801 1.89372,6.76345c-0.36025,2.21544 -1.16404,3.43542 -3.64086,3.09063z" fill="#def4ea"/><path d="M228.98595,229.74382c-1.41857,-0.07816 -2.50517,-1.29149 -2.427,-2.71005c0.07817,-1.41857 1.2915,-2.50517 2.71006,-2.427c1.41856,0.07816 2.50516,1.29149 2.42699,2.71005c-0.07817,1.41857 -1.29149,2.50517 -2.71005,2.427z" fill="#dff1a4"/></g><g data-paper-data="{&quot;index&quot;:null}"><path d="M264.68081,222.59914c-0.13755,2.49626 -2.60228,6.8234 -5.16423,6.68223c-2.56194,-0.14116 -6.3835,-4.95782 -6.24596,-7.45407c0.13755,-2.49626 4.95065,-2.68638 7.5126,-2.54521c2.56195,0.14117 4.03514,0.8208 3.8976,3.31705z" fill="#b59bb9"/><path d="M251.99076,224.5188c2.49457,0.16351 6.82143,2.03443 6.68344,3.85756c-0.13799,1.82313 -4.94648,4.4219 -7.44103,4.25839c-2.49456,-0.1635 -2.69031,-3.60054 -2.55232,-5.42367c0.13799,-1.82313 0.81537,-2.85579 3.30992,-2.69228z" fill="#b59bb9"/><path d="M252.89747,235.94619c0.33102,-2.4787 2.84212,-6.59544 5.05953,-6.24751c2.21741,0.34793 5.13513,5.46113 4.80411,7.93983c-0.33103,2.47869 -4.53542,2.27923 -6.75283,1.9313c-2.21743,-0.34793 -3.44185,-1.14492 -3.11083,-3.62362z" fill="#b59bb9"/><path d="M264.81891,235.22053c-2.47682,-0.34479 -6.57953,-2.87874 -6.21928,-5.09418c0.36025,-2.21546 5.48961,-5.10469 7.96643,-4.7599c2.47682,0.34478 2.25396,4.54801 1.89371,6.76345c-0.36025,2.21544 -1.16404,3.43541 -3.64086,3.09062z" fill="#b59bb9"/><path d="M258.35771,231.79162c-1.41857,-0.07817 -2.50517,-1.2915 -2.427,-2.71006c0.07817,-1.41856 1.2915,-2.50516 2.71006,-2.42699c1.41857,0.07817 2.50517,1.29149 2.427,2.71005c-0.07817,1.41857 -1.2915,2.50517 -2.71006,2.427z" fill="#e5d4b1"/></g><g data-paper-data="{&quot;index&quot;:null}"><path d="M244.12375,235.55298c1.0262,2.27972 0.82832,7.25565 -1.51139,8.30886c-2.3397,1.0532 -7.94867,-1.46554 -8.97487,-3.74526c-1.0262,-2.27971 3.15993,-4.66265 5.49964,-5.71586c2.33971,-1.05321 3.96043,-1.12746 4.98663,1.15226z" fill="#ecd26c"/><path d="M233.73926,243.09515c2.29015,-1.00237 6.99268,-1.3316 7.70884,0.35065c0.71615,1.68225 -2.35786,6.2017 -4.64801,7.20407c-2.29016,1.00238 -4.04508,-1.95933 -4.76123,-3.64158c-0.71616,-1.68225 -0.58976,-2.91077 1.70039,-3.91314z" fill="#ecd26c"/><path d="M239.80114,252.82455c-0.84635,-2.35313 -0.51052,-7.16358 1.6184,-7.87471c2.12891,-0.71114 7.07176,2.4867 7.9181,4.83984c0.84635,2.35313 -2.97852,4.11012 -5.10744,4.82125c-2.12892,0.71113 -3.58272,0.56675 -4.42906,-1.78639z" fill="#ecd26c"/><path d="M250.05247,246.6961c-2.3578,0.83324 -7.16629,0.47067 -7.86558,-1.66218c-0.69928,-2.13284 2.526,-7.05782 4.8838,-7.89106c2.3578,-0.83324 4.09349,3.00132 4.79278,5.13417c0.69929,2.13284 0.5468,3.58582 -1.811,4.41906z" fill="#ecd26c"/><path d="M242.73815,246.62383c-1.2955,0.58315 -2.81846,0.00568 -3.40163,-1.28982c-0.58315,-1.2955 -0.00568,-2.81846 1.28982,-3.40163c1.2955,-0.58315 2.81846,-0.00568 3.40163,1.28982c0.58315,1.2955 0.00568,2.81846 -1.28982,3.40163z" fill="#fce47d"/></g><g data-paper-data="{&quot;index&quot;:null}"><path d="M252.16673,223.76299c-1.21187,1.93443 -5.09198,4.30494 -7.07733,3.06119c-1.98535,-1.24375 -2.91356,-6.78048 -1.7017,-8.71492c1.21187,-1.93445 5.14272,0.03824 7.12807,1.28199c1.98535,1.24375 2.86282,2.43727 1.65096,4.37172z" fill="#ecd26c"/><path d="M241.17663,219.69549c1.92163,1.23187 4.55405,4.63724 3.63897,6.03349c-0.91507,1.39625 -5.90548,1.35073 -7.82711,0.11886c-1.92162,-1.23186 -0.56088,-4.06536 0.3542,-5.46161c0.91508,-1.39624 1.91232,-1.9226 3.83395,-0.69074z" fill="#ecd26c"/><path d="M236.85692,229.2292c1.35875,-1.835 5.18302,-4.01688 6.80174,-2.75996c1.61871,1.25692 1.6936,6.63169 0.33486,8.46669c-1.35875,1.83501 -4.63109,-0.18037 -6.24981,-1.43729c-1.61871,-1.25692 -2.24553,-2.43443 -0.88679,-4.26943z" fill="#ecd26c"/><path d="M246.70561,233.91171c-1.82742,-1.36892 -3.98801,-5.20529 -2.7221,-6.81698c1.2659,-1.6117 6.64099,-1.65669 8.46842,-0.28777c1.82743,1.36893 -0.2061,4.63004 -1.47201,6.24173c-1.2659,1.61169 -2.44687,2.23194 -4.2743,0.86302z" fill="#ecd26c"/><path d="M246.29245,227.57545c-0.68867,1.0993 -2.1381,1.43217 -3.2374,0.7435c-1.0993,-0.68867 -1.43217,-2.1381 -0.7435,-3.2374c0.68866,-1.0993 2.13809,-1.43217 3.23739,-0.7435c1.0993,0.68867 1.43217,2.1381 0.7435,3.2374z" fill="#fce47d"/></g><g data-paper-data="{&quot;index&quot;:null}"><path d="M195.41371,244.73991c1.26696,1.8988 1.83692,6.40987 -0.11186,7.71018c-1.94877,1.30031 -7.3789,-0.12473 -8.64586,-2.02353c-1.26696,-1.8988 2.14475,-4.67428 4.09353,-5.97459c1.94878,-1.3003 3.39724,-1.61085 4.6642,0.28795z" fill="#ecd26c"/><path d="M187.1955,253.09378c1.91179,-1.24708 6.09737,-2.25064 6.99527,-0.8433c0.8979,1.40735 -1.191,5.93977 -3.10279,7.18684c-1.91179,1.24707 -3.93759,-1.15639 -4.83549,-2.56373c-0.89792,-1.40735 -0.9688,-2.53276 0.94299,-3.77983z" fill="#ecd26c"/><path d="M194.11767,260.94457c-1.11601,-1.99197 -1.53686,-6.37474 0.27352,-7.33528c1.81038,-0.96054 6.7427,1.17623 7.85872,3.1682c1.11602,1.99197 -2.06446,4.14941 -3.87484,5.10995c-1.81037,0.96055 -3.14137,1.0491 -4.25739,-0.94287z" fill="#ecd26c"/><path d="M202.42857,253.88394c-1.99814,1.10494 -6.3832,1.50139 -7.33365,-0.31429c-0.95046,-1.81569 1.21372,-6.73607 3.21185,-7.841c1.99813,-1.10494 4.13787,2.08752 5.08832,3.9032c0.95045,1.81568 1.03159,3.14715 -0.96654,4.25208z" fill="#ecd26c"/><path d="M196.48057,251.66119c0.71998,1.07905 0.42892,2.53745 -0.65013,3.25744c-1.07905,0.71997 -2.53744,0.4289 -3.25743,-0.65015c-0.71999,-1.07904 -0.42892,-2.53743 0.65013,-3.25742c1.07904,-0.71999 2.53743,-0.42892 3.25742,0.65013z" fill="#fce47d"/></g><g data-paper-data="{&quot;index&quot;:null}"><path d="M193.77868,225.38355c3.17648,0.20821 8.68616,2.59058 8.51045,4.91209c-0.17571,2.32151 -6.29866,5.63069 -9.47513,5.42248c-3.17648,-0.20821 -3.42575,-4.58479 -3.25004,-6.9063c0.17571,-2.3215 1.03825,-3.63647 4.21472,-3.42826z" fill="#def4ea"/><path d="M209.93773,222.93913c-0.17515,3.17865 -3.31365,8.68868 -6.57593,8.50892c-3.26229,-0.17976 -8.12854,-6.31311 -7.95339,-9.49175c0.17515,-3.17864 6.30398,-3.42074 9.56626,-3.24098c3.26228,0.17976 5.13821,1.04518 4.96306,4.22382z" fill="#def4ea"/><path d="M194.93323,239.93478c0.42149,-3.15629 3.61903,-8.3984 6.44261,-7.95536c2.82358,0.44304 6.53889,6.954 6.11739,10.11029c-0.4215,3.15629 -5.77522,2.9023 -8.5988,2.45926c-2.82358,-0.44303 -4.38271,-1.45789 -3.96121,-4.61418z" fill="#def4ea"/><path d="M210.11357,239.01074c-3.15389,-0.43903 -8.37814,-3.66567 -7.91941,-6.48675c0.45873,-2.82108 6.99026,-6.50011 10.14415,-6.06107c3.1539,0.43905 2.87013,5.79126 2.4114,8.61234c-0.45873,2.82108 -1.48225,4.37453 -4.63614,3.93549z" fill="#def4ea"/><path d="M201.88611,234.64452c-1.80634,-0.09953 -3.18998,-1.64455 -3.09045,-3.45089c0.09953,-1.80634 1.64455,-3.18998 3.45089,-3.09045c1.80634,0.09952 3.18998,1.64454 3.09045,3.45088c-0.09953,1.80634 -1.64455,3.18999 -3.45089,3.09046z" fill="#dff1a4"/></g><g data-paper-data="{&quot;index&quot;:null}"><path d="M205.51663,246.73537c-1.4912,1.91392 -7.29343,2.28498 -9.15827,0.83202c-1.86484,-1.45297 0.58297,-5.29415 2.07417,-7.20807c1.4912,-1.91392 2.81355,-2.69175 4.67839,-1.23879c1.86484,1.45296 3.89691,5.70092 2.40571,7.61484z" fill="#b59bb9"/><path d="M197.75886,250.01294c1.47222,-1.84952 5.25879,-4.20159 6.60053,-3.11127c1.34173,1.09031 0.76738,6.22679 -0.70484,8.07631c-1.4722,1.84953 -4.24755,0.14815 -5.58928,-0.94217c-1.34174,-1.09031 -1.77862,-2.17333 -0.3064,-4.02286z" fill="#b59bb9"/><path d="M207.12425,255.47097c-1.74688,-1.59378 -3.59051,-5.76428 -2.1245,-7.29909c1.46601,-1.5348 7.01118,-1.04386 8.75806,0.54991c1.74688,1.59377 -0.67531,4.75203 -2.14132,6.28684c-1.46601,1.53479 -2.74536,2.0561 -4.49224,0.46233z" fill="#b59bb9"/><path d="M212.98928,245.81944c-1.60346,1.73799 -5.78416,3.5584 -7.31079,2.08387c-1.52663,-1.47452 -1.00485,-7.01687 0.59861,-8.75486c1.60346,-1.73799 4.7482,0.70172 6.27483,2.17624c1.52663,1.47452 2.04081,2.75675 0.43735,4.49474z" fill="#b59bb9"/><path d="M206.84159,248.98922c-0.82569,1.05974 -2.35412,1.24948 -3.41386,0.4238c-1.05973,-0.82568 -1.24948,-2.35412 -0.42379,-3.41386c0.82568,-1.05974 2.35411,-1.24947 3.41385,-0.42379c1.05974,0.82568 1.24949,2.35411 0.4238,3.41385z" fill="#e5d4b1"/></g><g data-paper-data="{&quot;index&quot;:null}"><path d="M208.83731,231.27045c-2.1661,0.89249 -7.21088,-1.57067 -8.08049,-3.68122c-0.86962,-2.11056 3.02051,-4.16239 5.18662,-5.05488c2.16611,-0.89249 3.64734,-0.91269 4.51695,1.19786c0.86961,2.11056 0.54303,6.64575 -1.62308,7.53824z" fill="#ecd26c"/><path d="M200.76229,230.31042c2.11939,-0.84756 6.42052,-1.01004 7.02472,0.54618c0.6042,1.55622 -2.3337,5.59044 -4.45309,6.438c-2.11939,0.84756 -3.63401,-1.90676 -4.23821,-3.46298c-0.60419,-1.55622 -0.45282,-2.67364 1.66657,-3.5212z" fill="#ecd26c"/><path d="M207.71684,232.22833c1.9637,-0.58651 6.38067,2.47683 7.08398,4.64911c0.70331,2.17228 -2.83878,3.66347 -4.80247,4.24998c-1.96369,0.5865 -3.2862,0.41208 -3.98951,-1.7602c-0.70331,-2.17228 -0.25569,-6.55238 1.708,-7.13889z" fill="#ecd26c"/><path d="M215.5439,234.07526c-2.17614,0.69123 -6.5537,0.21926 -7.12928,-1.74767c-0.57558,-1.96692 2.51229,-6.36679 4.68844,-7.05802c2.17615,-0.69124 3.64763,2.85909 4.22321,4.82602c0.57558,1.96693 0.3938,3.28843 -1.78235,3.97966z" fill="#ecd26c"/><path d="M210.14794,230.72824c0.49417,1.19937 -0.07751,2.57227 -1.27688,3.06645c-1.19937,0.49418 -2.57226,-0.07749 -3.06644,-1.27687c-0.49417,-1.19938 0.07751,-2.57227 1.27688,-3.06645c1.19938,-0.49417 2.57227,0.07749 3.06645,1.27687z" fill="#fce47d"/></g></g></g></svg>