<svg version="1.1" xmlns="http://www.w3.org/2000/svg" xmlns:xlink="http://www.w3.org/1999/xlink" width="18.81565" height="35.84541" viewBox="0,0,18.81565,35.84541"><g transform="translate(-231.65959,-188.58744)"><g data-paper-data="{&quot;isPaintingLayer&quot;:true}" fill-rule="nonzero" stroke-linejoin="miter" stroke-miterlimit="10" stroke-dasharray="" stroke-dashoffset="0" style="mix-blend-mode: normal"><path d="M236.79935,211.43224c0,0 0.64457,-2.01471 1.20509,-3.74498c0.38447,-1.22056 0.69304,-4.15277 0.69304,-4.15277l0.97291,0.36942c0,0 0.74436,2.39887 -0.07304,3.93097c-1.10811,2.07699 -1.81763,4.01095 -1.81763,4.01095z" data-paper-data="{&quot;index&quot;:null}" fill="#fba15d" stroke="none" stroke-width="0" stroke-linecap="butt"/><path d="M241.50067,207.07033c-0.145,0.29558 -2.22146,0.25482 -2.56046,-0.10433c-0.2755,-0.39263 0.18273,-1.72136 0.18273,-1.72136c0,0 0.37798,-1.36955 0.68476,-1.61563c0.09463,-0.07585 0.66771,-0.08208 0.7881,-0.07389c0.15207,0.01035 0.78832,-0.05484 1.02276,0.3832c0.06015,0.11263 0.3065,2.26684 -0.1179,3.13201z" data-paper-data="{&quot;index&quot;:null}" fill="#c27e34" stroke="none" stroke-width="0.17188" stroke-linecap="butt"/><path d="M242.05733,194.19521c-0.00714,-0.00917 -1.0228,-0.86284 -1.2775,-0.91197c-0.4285,-0.0829 -0.24345,0.59332 -0.71177,0.32709c-0.3473,-0.19744 -0.3453,-0.61255 -0.51558,-0.82734c-0.19443,-0.24476 0.01359,-0.78276 0.26436,-1.01731c0.13931,-0.1303 0.38327,-0.02214 0.36106,-0.06386c-0.15039,-0.28202 -0.00326,-0.68769 0.28713,-0.75345l0.6319,-0.14334c0.6596,0.02226 1.40283,0.19737 1.81309,0.18619c0.94689,-0.06676 1.24743,0.93135 1.20634,0.75729c0.03319,0.87765 -0.4685,2.00594 -1.22564,2.62526c-0.15803,0.12083 -0.52149,0.2295 -0.83338,-0.17856z" data-paper-data="{&quot;index&quot;:null}" fill="#ffcfea" stroke="none" stroke-width="0.17188" stroke-linecap="butt"/><g data-paper-data="{&quot;index&quot;:null}" stroke="none" stroke-width="0" stroke-linecap="butt"><path d="M234.21705,222.17107c-0.25528,-1.43562 1.1527,-3.70656 1.1527,-3.70656c0.32875,-0.51118 0.76304,-0.83423 1.2452,-1.09487c0.41992,-0.22699 0.87618,-0.40666 1.33065,-0.62205c0.97632,-0.46269 0.4171,1.10794 0.4171,1.10794c0,0 -0.67112,2.31785 -1.48615,3.29559c-1.13508,1.84049 0.14816,2.61075 0.14816,2.61075c0,0 -2.55238,-0.15519 -2.80767,-1.5908z" fill="#54c81c"/><path d="M237.78446,224.05917c-0.18819,0.3467 -0.62181,0.47522 -0.96852,0.28704c-0.34671,-0.18817 -0.47522,-0.62181 -0.28704,-0.96852c0.18818,-0.3467 0.62181,-0.4752 0.96852,-0.28702c0.34671,0.18819 0.47521,0.62181 0.28703,0.96852z" fill="#ffffff"/></g><g data-paper-data="{&quot;index&quot;:null}" stroke="none" stroke-width="0" stroke-linecap="butt"><path d="M246.53068,222.04522c-0.3226,1.422 -2.87946,1.45683 -2.87946,1.45683c0,0 1.31809,-0.70898 0.27093,-2.60088c-0.76809,-1.01504 -1.32932,-3.36191 -1.32932,-3.36191c0,0 -0.48465,-1.59521 0.4688,-1.08707c0.44382,0.23655 0.89111,0.4375 1.29988,0.68401c0.46936,0.28306 0.88795,0.6262 1.19227,1.15229c0,0 1.29949,2.33472 0.97689,3.75673z" fill="#54c81c"/><path d="M242.87831,223.76328c-0.17165,-0.35518 -0.02287,-0.78227 0.33232,-0.95393c0.35519,-0.17165 0.78228,-0.02288 0.95393,0.33231c0.17165,0.35518 0.02287,0.78228 -0.33232,0.95393c-0.35518,0.17165 -0.78227,0.02286 -0.95393,-0.33232z" fill="#ffffff"/></g><path d="M240.02739,215.27484c0,0 -1.91105,2.82768 -2.53914,3.92574c-0.42488,0.74281 -1.05643,1.95808 -1.05643,1.95808c-0.22494,0.28125 -1.31089,0.86085 -1.25521,0.05436c0.04376,-0.63401 1.21309,-2.67237 1.21309,-2.67237c0,0 1.88318,-2.611 2.13741,-3.20703c0.85984,-1.855 1.01577,-6.14361 1.01577,-6.14361l1.55012,-0.00007l-1.0656,6.08488z" data-paper-data="{&quot;index&quot;:null}" fill="#ffffff" stroke="none" stroke-width="0" stroke-linecap="butt"/><path d="M241.83161,214.94379l-0.8248,-6.50045l1.51372,0.33396c0,0 0.01904,3.67924 0.45912,5.67588c0.11987,0.6368 1.47615,3.87142 1.47615,3.87142c0,0 1.07257,2.3687 0.97875,2.99725c-0.11935,0.79956 -0.79705,0.41518 -1.16074,-0.0648c-0.36369,-0.47996 -0.66663,-1.87555 -0.98785,-2.74238c-0.39076,-1.0545 -1.45435,-3.57089 -1.45435,-3.57089z" data-paper-data="{&quot;index&quot;:null}" fill="#ffffff" stroke="none" stroke-width="0" stroke-linecap="butt"/><path d="M244.22599,215.57506l3.09193,-0.33373l0.38892,0.79746c0,0 -1.36379,0.54639 -2.21334,0.53366c-0.84954,-0.01274 -2.20693,-0.26991 -2.18943,-0.51508c0.0534,-0.74804 -0.71918,-2.26547 -0.71918,-2.37063z" data-paper-data="{&quot;index&quot;:null}" fill="#54c81c" stroke="none" stroke-width="0.17188" stroke-linecap="butt"/><path d="M243.64667,215.95851c-0.0294,0.65928 0.48728,1.26755 0.86591,1.94017c0.37863,0.67262 1.13716,1.61822 1.13716,1.61822c0,0 -3.16235,-0.60509 -3.84381,-1.20334c-0.68146,-0.59825 -1.17532,-1.608 -1.14394,-2.04748c0.0534,-0.74793 -0.06112,-2.99809 -0.06112,-3.10325c0,-0.25437 2.69357,-0.6424 2.68388,-0.05723z" data-paper-data="{&quot;index&quot;:null}" fill="#54c81c" stroke="none" stroke-width="0.17188" stroke-linecap="butt"/><path d="M246.72376,215.4358c-1.25574,0.12971 -3.24191,0.44159 -3.35908,-0.21648c-0.10846,-0.60973 -0.46099,-1.1214 -0.64249,-2.17924c-0.1815,-1.05784 -0.95044,-4.08855 -0.59476,-4.95584c1.28474,1.592 1.25763,4.03601 1.98561,5.16403c0.72798,1.12801 0.55283,0.77516 1.05946,1.17733c0.50663,0.40217 2.807,0.88049 1.55126,1.0102z" data-paper-data="{&quot;index&quot;:null}" fill="#ffffff" stroke="none" stroke-width="0.17188" stroke-linecap="butt"/><path d="M242.07947,207.94491c0.43838,0.64738 0.75899,2.84453 0.75899,2.84453c0.2057,0.9784 0.3311,1.32442 0.3311,2.57856c0,1.24104 0.16176,1.14239 0.19974,1.70925c0.03798,0.56686 0.72278,1.60658 0.33902,1.60658c-0.36702,0 -2.09357,-0.48792 -2.48647,-1.17924c-0.19227,-0.33784 -0.62787,0.21605 -0.74504,-0.44203c-0.10847,-0.60972 -0.65002,-3.00308 -0.92333,-4.28824c-0.2733,-1.28516 -0.3437,-2.88365 -0.28671,-3.35214c0.0422,-0.34689 1.22492,-0.23744 1.74283,-0.33483c0.18155,-0.03414 1.06987,0.85756 1.06987,0.85756z" data-paper-data="{&quot;index&quot;:null}" fill="#ffffff" stroke="none" stroke-width="0.17188" stroke-linecap="butt"/><path d="M240.6865,216.27257c0,0 -0.98455,0.79952 -1.9616,1.11739c-0.97705,0.31787 -2.6103,0.34291 -2.6103,0.34291l-2.80734,-0.3115c0,0 1.19594,-1.16577 1.84606,-1.45427c0.65011,-0.28851 3.3844,-0.55326 3.3844,-0.6736c0,-0.29134 2.23568,-0.59189 2.22071,0.07813z" data-paper-data="{&quot;index&quot;:null}" fill="#54c81c" stroke="none" stroke-width="0.17188" stroke-linecap="butt"/><g data-paper-data="{&quot;index&quot;:null}" stroke="none" stroke-linecap="butt"><path d="M232.85883,214.03176c0.20414,-0.60753 3.01859,-1.89994 3.58089,-2.78748c1.09703,-1.73157 2.09402,-4.60089 3.03717,-4.29067c0.32013,0.12836 -0.63321,5.65928 -1.57271,7.34163c-0.37126,0.66832 -5.08585,0.50852 -5.04534,-0.26347z" data-paper-data="{&quot;index&quot;:null}" fill="#ffffff" stroke-width="0.19137"/><path d="M236.94562,214.02607c0.73611,0.1671 1.2821,-0.5372 1.21759,-0.17652c-0.04497,0.25147 -1.40533,0.98446 -1.97648,1.7014c-0.24761,0.31052 -4.52714,-1.08647 -4.52714,-1.08647l1.51988,-0.91407c0,0 2.5299,0.47518 3.26615,0.64231z" data-paper-data="{&quot;index&quot;:null}" fill="#54c81c" stroke-width="0.17188"/></g><path d="M239.89496,207.08299c0.18378,-0.00357 0.38777,-0.25003 0.45982,0.06575c0.15165,0.66462 0.12152,1.80623 0.18612,2.45525c0.09529,0.95738 0.08643,3.52999 0.08643,4.96529c0,1.42018 -0.4614,0.85629 -0.94045,1.19411c-0.47905,0.33781 -1.35397,0.59052 -1.35397,0.59052c0,0 -0.70805,0.25691 -1.53216,0.31755c-0.8241,0.06065 -2.26198,0.28663 -1.9932,-0.05813c0.66849,-0.85747 2.74842,-3.97019 2.86126,-4.43616c0.31752,-1.31111 1.02261,-3.39475 1.33473,-4.08856c0.16239,-0.36097 0.31276,-0.73952 0.47634,-1.02072c0.15084,-0.25929 0.22201,0.01872 0.41509,0.0151z" data-paper-data="{&quot;index&quot;:null}" fill="#ffffff" stroke="none" stroke-width="0.17188" stroke-linecap="butt"/><g data-paper-data="{&quot;index&quot;:null}"><path d="M247.37586,198.7835c2.25839,2.77208 -0.92795,5.52735 -1.02312,5.62562c-0.44779,0.41315 -1.00246,0.70302 -1.57891,0.89163c-0.9595,0.3221 -2.04736,0.34533 -2.97906,-0.07985c-0.40874,-0.25494 -0.36046,-0.20692 -0.77602,-0.43921c-0.71377,-0.26303 -1.3296,-0.94627 -1.75329,-1.5343c-0.36896,-0.45887 -0.66009,-0.9743 -0.87666,-1.52204c-0.12727,-0.35918 -0.32552,-0.71912 -0.30206,-1.11049c0.02766,-0.36421 0.15804,-0.74269 0.45597,-0.97326c0.69314,-0.6003 1.38185,-1.208 2.12665,-1.74353c0.21189,-0.13604 0.42017,-0.31698 0.67658,-0.35534c0.12008,0.01312 3.25379,-2.1668 6.02992,1.24077z" data-paper-data="{&quot;index&quot;:null}" fill="#f0e9bb" stroke="none" stroke-width="0.17188" stroke-linecap="butt"/><path d="M249.58043,201.59561c0.6277,0.64479 0.89431,1.24477 0.89481,1.71108c0.00023,0.06632 -0.05017,0.06625 -0.06276,0.15587c-0.01531,0.10847 0.0167,0.35006 0.01603,0.30034c0,0 -0.17038,0.02857 -0.22503,0.07734c-0.06944,0.06203 -0.08742,0.21996 -0.12139,0.13537c0,0 -0.0752,0.12773 -0.12207,0.14715c-0.51196,0.21228 -1.33181,0.26914 -1.96171,0.01362c-0.19704,0.52886 0.93008,-2.72737 1.58213,-2.54075z" data-paper-data="{&quot;index&quot;:null}" fill="#ed3e67" stroke="none" stroke-width="0.17188" stroke-linecap="butt"/><path d="M241.54126,197.59588l-1.94564,1.24612l-1.36804,1.27934l-0.90759,0.98795c-0.10657,0.11631 -0.09286,-1.92191 0.05445,-2.44946c0.18215,-0.65282 0.49331,-1.21413 0.80673,-1.77388c0.22827,-0.40806 0.35926,-0.52414 0.57207,-0.75651l0.66084,-0.72127c0.12555,-0.13707 0.82075,-0.75678 1.05488,-0.70655c0.06642,0.01428 0.07073,0.80517 0.11555,0.86332l0.3284,0.42356c0.09732,0.12576 0.65087,0.30852 0.82208,0.35364c0.12503,0.03306 0.96098,0.11199 1.4904,-0.2025l0.52367,-0.31113c0.07844,-0.04657 0.71178,-0.79399 0.74706,-0.77476c0.07287,0.03944 0.3939,-1.23644 0.47315,-1.19785c0.44145,0.21429 0.98924,0.46508 1.44281,0.86491c0.71305,0.62854 1.28977,1.46586 1.59206,1.89005c0.05154,0.07233 0.69009,1.00705 0.90592,1.68763c0.34184,1.07767 0.14348,1.96992 0.13757,2.02569c-0.09254,0.87571 -0.36235,1.67432 -0.78568,2.40612l-0.41894,0.53593c-0.21441,0.27434 -1.51079,1.62524 -2.14344,1.86519l-2.16019,0.81998c-0.37826,0.14369 -2.46283,0.39028 -2.50161,0.1577c-0.05459,-0.32571 0.87081,-1.01122 0.6978,-1.00863c-0.38332,0.00556 1.88954,0.5031 2.28633,0.31521c0.67834,-0.32132 1.411,-0.50892 1.79252,-0.86641c0.07199,-0.06757 0.60723,-0.47154 0.73151,-0.57637c0.09836,-0.08274 0.13639,-0.20748 0.03347,-0.29177c-0.06844,-0.05615 -0.10428,-0.28221 -0.34542,-0.26497l-0.71491,0.0515c-0.11583,0.00822 -2.23205,0.14144 -2.15555,0.01569c0.01426,-0.02331 0.60916,-0.17805 0.647,-0.1906c0.229,-0.0756 0.37784,-0.17498 0.26828,-0.18546c-0.28816,-0.02755 -0.93727,0.04774 -0.93727,0.04774c-0.08383,0.00411 -0.35178,-0.43508 -0.45929,-0.78536c-0.10003,-0.32588 -0.02602,-0.88238 -0.00901,-1.0215l0.18556,-1.51192c0.17389,-1.41984 -0.12443,-1.11832 -0.06924,-1.23434c0.08824,-0.00662 -0.3574,-0.66038 -0.6085,-0.70884c-0.10002,-0.01931 -0.34154,-0.12476 -0.46574,-0.17925c-0.16514,-0.07262 -0.27178,-0.12772 -0.37403,-0.11796z" data-paper-data="{&quot;index&quot;:null}" fill="#54c81c" stroke="none" stroke-width="0.17188" stroke-linecap="butt"/><path d="M240.45661,193.54482c-0.18432,-0.58965 -0.06926,-1.34553 0.16397,-1.81248c0.0213,-0.0428 0.14368,-0.10847 0.14368,-0.10847c-0.07458,-0.03392 0.07109,-0.04573 0.13293,-0.10808c0.04863,-0.04897 0.08785,-0.20572 0.08785,-0.20572c-0.04534,-0.00206 0.1725,0.03465 0.27261,0.02385c0.08277,-0.00909 0.08656,-0.05571 0.14724,-0.05365c0.42507,0.01442 0.95164,0.27857 1.4914,0.87755c0.70608,0.78382 0.62983,1.98227 0.3259,2.20499c0,0 -2.45065,0.18885 -2.76558,-0.81804z" data-paper-data="{&quot;index&quot;:null}" fill="#ed3e67" stroke="none" stroke-width="0.17188" stroke-linecap="butt"/><path d="M243.13367,195.37981c0.16587,0.05654 -1.2401,0.56057 -1.61971,0.38068c-0.65277,-0.30945 -0.8148,-0.10252 -1.00228,-0.63816c-0.04228,-0.12018 -0.01158,-0.44201 -0.1011,-0.80668c-0.10387,-0.42237 -0.12834,-0.84584 0.00606,-0.77911l0.85294,0.369l1.76824,0.17764c0.02751,0.00275 0.04885,-0.31374 0.04088,-0.77588c-0.00552,-0.32409 -0.06056,-0.77477 -0.1469,-1.09413c-0.05094,-0.18815 0.33423,-0.01908 0.75992,0.31126c0.20638,0.16011 0.44061,0.31915 0.60302,0.56918c0.28114,0.43309 0.02745,1.08639 -0.37411,1.55163c-0.37601,0.43574 -0.89718,0.69679 -0.78694,0.73456z" data-paper-data="{&quot;index&quot;:null}" fill="#54c81c" stroke="none" stroke-width="0.17188" stroke-linecap="butt"/><path d="M243.60188,195.9592c-0.93121,0.71437 -2.45409,0.39271 -2.65432,0.07449l-0.43575,-0.41163l-0.09131,-0.96744c-0.02329,-0.24773 0.62712,0.9813 1.12155,1.03407c0.32258,0.03453 0.56635,0.05382 0.66109,0.02248c0.90252,-0.30007 1.481,-0.76319 1.76402,-1.19311c0.44472,-0.67557 0.30644,-1.27545 0.66517,-1.0821c0.8556,0.46088 -0.01278,1.74246 -1.03043,2.52325z" data-paper-data="{&quot;index&quot;:null}" fill="#ead32e" stroke="none" stroke-width="0.17188" stroke-linecap="butt"/><path d="M248.67276,201.81174c0,0 0.11238,-0.41857 0.20945,-0.72719c0.20248,-0.64381 0.11032,-1.32295 0.30155,-1.31989c0.10661,0.04116 0.29407,0.51644 0.27153,0.70027l-0.04561,0.37331c-0.08038,0.65648 -0.49854,1.19931 -0.72055,1.35232c-0.09602,0.0662 -0.19479,0.29144 -0.32423,0.33425c0,0 0.13894,-0.494 0.30788,-0.71309z" data-paper-data="{&quot;index&quot;:null}" fill="#ead32e" stroke="none" stroke-width="0.17188" stroke-linecap="butt"/><path d="M249.49679,200.76171c0,0 0.6411,0.82052 0.51921,1.14122c-0.08085,0.21308 -0.55326,0.34898 -0.585,0.55119c-0.03943,0.25106 -0.23991,0.7304 -0.41978,1.03884c-0.21615,0.21144 -0.38379,0.46754 -0.72894,0.56149c-0.20681,0.2162 -1.07702,-0.05488 -1.01485,-0.1335l0.84496,-1.06872c0.21441,-0.27116 0.63585,-0.83879 0.71215,-0.96648z" data-paper-data="{&quot;index&quot;:null}" fill="#54c81c" stroke="none" stroke-width="0.17188" stroke-linecap="butt"/><path d="M240.46445,203.32449c-0.33756,-0.60497 -0.67169,-1.64316 -0.67169,-1.64316c0,0 0.9676,0.14301 1.15586,0.50159c0.74599,1.42082 0.21842,1.9615 0.21842,1.9615c0,0 -0.36505,-0.21494 -0.7026,-0.81992z" fill="none" stroke="#dfcfa3" stroke-width="0.36953" stroke-linecap="round"/><path d="M241.23743,200.67475c0.05187,-0.17184 0.23322,-0.26907 0.40505,-0.21721c0.17184,0.05188 0.26907,0.23322 0.2172,0.40506c-0.05187,0.17184 -0.23321,0.26908 -0.40505,0.21721c-0.17184,-0.05188 -0.26907,-0.23322 -0.2172,-0.40506z" fill="#ffffff" stroke="none" stroke-width="0" stroke-linecap="butt"/><path d="M243.96222,204.44456c0.05187,-0.17184 0.23322,-0.26907 0.40505,-0.21721c0.17184,0.05188 0.26907,0.23322 0.2172,0.40506c-0.05187,0.17184 -0.23321,0.26908 -0.40505,0.21721c-0.17184,-0.05188 -0.26907,-0.23322 -0.2172,-0.40506z" fill="#ffffff" stroke="none" stroke-width="0" stroke-linecap="butt"/><path d="M241.06291,200.36688c0.05187,-0.17183 0.23323,-0.26907 0.40506,-0.2172c0.17183,0.05187 0.26907,0.23321 0.21721,0.40505c-0.05187,0.17183 -0.23322,0.26907 -0.40505,0.21721c-0.17183,-0.05187 -0.26907,-0.23322 -0.21721,-0.40505z" fill="#000000" stroke="none" stroke-width="0" stroke-linecap="butt"/><path d="M244.19532,204.72994c0.05187,-0.17184 0.23322,-0.26907 0.40505,-0.21721c0.17184,0.05188 0.26907,0.23322 0.2172,0.40506c-0.05187,0.17184 -0.23321,0.26908 -0.40505,0.21721c-0.17184,-0.05188 -0.26907,-0.23322 -0.2172,-0.40506z" fill="#000000" stroke="none" stroke-width="0" stroke-linecap="butt"/></g><g data-paper-data="{&quot;index&quot;:null}" stroke="none" stroke-width="0" stroke-linecap="butt"><path d="M243.00082,205.83622c-0.0305,0.07273 -0.14378,-0.04535 -0.45904,0.03778c-0.17085,0.04505 0.431,0.28952 0.1949,0.34258c-0.39337,0.0884 -1.58873,-0.81178 -1.99267,-0.98113c-0.48781,-0.20451 -1.74442,-0.51432 -2.02058,-0.93313c-0.12257,-0.18588 0.37369,-0.0344 0.29266,-0.18897c-0.14576,-0.27808 -0.07057,-0.30794 -0.03519,-0.39232c0.19848,-0.47341 0.91719,0.33276 2.01095,0.79133c1.09375,0.45856 2.20746,0.85045 2.00898,1.32386z" fill="#ffe340"/><path d="M241.94123,204.94617c-0.02724,0.06497 0.10623,0.38931 -0.14127,0.2745c-0.24749,-0.11481 -1.87347,-1.13295 -1.84623,-1.19791c0.02724,-0.06497 0.55769,0.24097 0.99626,0.48016c0.70503,0.38452 1.01847,0.37827 0.99123,0.44324z" fill="#000000"/></g><g data-paper-data="{&quot;index&quot;:null}" stroke="none" stroke-width="0.17188" stroke-linecap="butt"><path d="M239.64461,203.97153c0.01382,0.8194 -0.42937,1.53624 -0.57216,1.41804c-0.331,-0.27379 -1.29763,-3.41612 -1.35077,-4.80379c-0.0334,-0.87701 -0.63376,-3.05604 -0.33677,-3.8587c0.1954,-0.52734 1.03501,-0.61542 1.60817,-0.61025c0.44365,0.00312 0.55966,-0.14634 0.59518,0.2823c0.10722,1.29642 0.05782,2.44837 0.0701,4.10054c0.01229,1.65218 -0.03191,2.39296 -0.01374,3.47185z" fill="#c27e34"/><path d="M238.2727,194.98959c-0.31189,0.40806 -0.67536,0.29939 -0.83338,0.17856c-0.75715,-0.61933 -1.25883,-1.74762 -1.22564,-2.62526c-0.04108,0.17407 0.25944,-0.82404 1.20635,-0.75729c0.41028,0.01119 1.15349,-0.16393 1.81309,-0.18619l0.6319,0.14334c0.29038,0.06576 0.43751,0.47145 0.28712,0.75345c-0.02223,0.04172 0.22173,-0.06644 0.36106,0.06386c0.25078,0.23455 0.45879,0.77254 0.26436,1.01731c-0.17028,0.21479 -0.16828,0.62991 -0.51558,0.82734c-0.46831,0.26622 -0.28326,-0.40998 -0.71177,-0.32709c-0.25471,0.04915 -1.27036,0.9028 -1.2775,0.91197z" fill="#ffcfea"/></g><path d="M239.78624,196.36954c-0.43194,0.18369 -0.59952,0.18919 -1.17032,0.17551c-0.57081,-0.01367 -1.19819,0.06435 -1.42132,-0.23981c-0.25117,-0.57624 -0.088,-0.58805 -0.06108,-1.08154c0.02691,-0.49349 0.20893,-1.24393 0.20893,-1.24393c0.03605,-0.01123 0.83782,-0.27433 1.33,-0.32917c0.49217,-0.05484 1.01485,-0.12013 1.25285,0.07156c0.16475,0.13238 0.24701,-0.00264 0.25868,0.46795c0.01229,0.49999 0.17782,1.1666 0.05803,1.66347c-0.05182,0.21512 -0.02382,0.3323 -0.45576,0.51599z" data-paper-data="{&quot;index&quot;:null}" fill="#fca03b" stroke="none" stroke-width="0.17188" stroke-linecap="butt"/><g data-paper-data="{&quot;index&quot;:null}" stroke="none" stroke-width="0" stroke-linecap="butt"><path d="M247.67509,202.70541c0,0.08886 -0.11734,0.36284 -0.21592,0.54821c-0.09168,0.1724 -0.16509,0.26003 -0.16509,0.26003l0.88536,0.44134l-0.4179,0.25058c0,0 -0.21687,-0.13138 -0.39252,-0.34173c-0.16617,-0.199 -0.29227,-0.47499 -0.27095,-0.56116c0.05486,-0.2218 0.3512,-0.66493 0.3512,-0.83815c0,-0.15549 -0.13978,-0.22801 -0.19435,-0.36774c-0.08258,-0.21145 -0.08656,-0.4603 -0.039,-0.4603c0.05247,0 0.283,0.16194 0.38651,0.36588c0.07901,0.15567 0.07267,0.57184 0.07267,0.70304z" fill="#671829"/><path d="M247.19332,202.0731c0,0.06899 0.08961,0.82347 -0.42018,1.07764c-0.35275,0.17587 -0.7466,-0.32488 -0.7466,-0.32488l0.15302,-0.31974c0,0 0.29154,0.65863 0.52777,0.56972c0.48824,-0.18377 -0.04094,-1.15303 -0.04094,-1.1834c0,-0.13304 0.22649,-0.24088 0.33874,-0.24088c0.11225,0 0.18819,0.28851 0.18819,0.42155z" fill="#671829"/><path d="M246.2408,201.33394c0,0 0.14688,-0.36924 0.2411,-0.36477c0.18547,0.00881 0.57231,0.41723 0.57231,0.56048c0,0.04305 -0.16886,0.22802 -0.39482,0.38171c-0.15528,0.10561 -0.36901,0.14807 -0.46037,0.10993c-0.0851,-0.03553 -0.1717,-0.29307 -0.08428,-0.43587c0.07828,-0.12786 0.33451,-0.1276 0.29188,-0.1276c-0.18304,0 -0.16582,-0.12389 -0.16582,-0.12389z" fill="#804046"/><path d="M247.70448,201.60836l0.27683,0.05232l-0.15956,0.42081c0,0 -0.30509,-0.13981 -0.46037,-0.24542c-0.22596,-0.15368 -0.39482,-0.21821 -0.39482,-0.26126c0,-0.14325 0.64278,-0.53662 0.82825,-0.54543c0.09422,-0.00447 0.26265,0.33852 0.2411,0.39488c-0.04088,0.10687 -0.33143,0.1841 -0.33143,0.1841z" data-paper-data="{&quot;index&quot;:null}" fill="#804046"/><path d="M247.22344,201.52734c0,0.09354 -0.07077,0.16937 -0.15808,0.16937c-0.08731,0 -0.15808,-0.07583 -0.15808,-0.16937c0,-0.09354 0.07077,-0.16937 0.15808,-0.16937c0.08731,0 0.15808,0.07583 0.15808,0.16937z" fill="#671829"/></g><path d="M237.87593,211.54047c0,0 -0.4486,-2.95164 -0.18113,-3.90167c0.34679,-1.23179 0.74843,-3.78131 0.74843,-3.78131l0.67154,1.56536c0,0 0.21355,1.85053 -0.02275,3.11146c-0.21661,1.15587 0.16152,3.56857 0.16152,3.56857z" data-paper-data="{&quot;index&quot;:null}" fill="#fba15d" stroke="none" stroke-width="0" stroke-linecap="butt"/><g data-paper-data="{&quot;index&quot;:null}" stroke-width="0" stroke-linecap="butt"><path d="M247.04122,196.44731c-0.75295,-1.0453 -2.64611,-2.4664 -2.64611,-2.4664c0,0 0.63805,-0.6044 0.22049,-1.5256c-0.41755,-0.92121 -0.65006,-1.25582 -1.7146,-1.61372c-0.81283,-0.27327 -1.86232,-0.44229 -2.36286,-0.3361c-2.11899,0.44953 -5.06609,1.55677 -5.06609,1.55677c0,0 2.43516,-3.52716 8.29629,-3.47423c3.56963,0.06612 5.87874,3.65128 6.06104,4.39817c0.18702,0.76624 0.64849,3.45879 0.39145,4.66775c-0.31204,1.46764 -1.12246,2.85633 -1.12246,2.85633c0,0 -1.24659,-2.93771 -2.05714,-4.06297z" fill="#c27e34" stroke="none"/><g><path d="M236.09453,192.58994c-0.37865,0.29454 -0.92439,0.22637 -1.21895,-0.15229c-0.29454,-0.37865 -0.22638,-0.92439 0.15228,-1.21894c0.37866,-0.29456 0.92441,-0.22638 1.21896,0.15228c0.29456,0.37865 0.22638,0.9244 -0.15228,1.21895z" fill="#db7b04" stroke="none"/><path d="M235.77568,191.73749c0.28489,0.36623 0.53138,0.76027 0.3332,0.91444c-0.13011,0.10121 -0.3253,-0.33274 -0.6102,-0.69897c-0.2849,-0.36623 -0.62976,-0.72018 -0.49965,-0.82139c0.22086,-0.1718 0.49175,0.23969 0.77665,0.60593z" fill="#feeb00" stroke="#000000"/><path d="M234.90114,192.35539c0.14299,-0.11123 0.49051,-0.32496 0.54613,-0.25347c0.05562,0.07149 0.23689,0.16917 0.0939,0.28039c-0.14298,0.11122 -0.52076,0.23925 -0.57638,0.16776c-0.05561,-0.07149 -0.20663,-0.08346 -0.06364,-0.19469z" fill="#000000" stroke="none"/><path d="M235.03533,191.58374c0.02924,0.03759 -0.02832,0.13127 -0.12856,0.20925c-0.10023,0.07798 -0.18251,0.09308 -0.21175,0.05548c-0.02925,-0.0376 0.10646,-0.26488 0.20669,-0.34286c0.10023,-0.07798 0.10437,0.04054 0.13361,0.07813z" fill="#000000" stroke="none"/></g></g></g></g></svg>