<svg version="1.1" xmlns="http://www.w3.org/2000/svg" xmlns:xlink="http://www.w3.org/1999/xlink" width="34.28686" height="34.87822" viewBox="0,0,34.28686,34.87822"><g transform="translate(-224.1153,-163.84522)"><g data-paper-data="{&quot;isPaintingLayer&quot;:true}" fill-rule="nonzero" stroke-miterlimit="10" stroke-dasharray="" stroke-dashoffset="0" style="mix-blend-mode: normal"><path d="M238.6917,176.72201c1.17886,0.09425 2.52276,0.40769 3.40137,0.65145c1.25617,0.34851 2.3852,0.62207 2.3852,0.62207c0,0 0.06399,0.53983 -0.12922,0.80056c-0.19321,0.26071 -0.22058,0.36836 -0.22058,0.36836c0,0 -1.95772,-0.62065 -2.46449,-0.76124c-0.83125,-0.23062 -1.89671,-0.4798 -3.12073,-0.73918c-0.3067,-0.06501 -0.45069,-0.2628 -0.39719,-0.57826c0.03597,-0.21193 0.1553,-0.39497 0.54567,-0.36376z" data-paper-data="{&quot;index&quot;:null}" fill="#fff9fb" stroke="none" stroke-width="0" stroke-linecap="butt" stroke-linejoin="miter"/><g data-paper-data="{&quot;index&quot;:null}" stroke-width="0" stroke-linecap="butt" stroke-linejoin="miter"><g data-paper-data="{&quot;index&quot;:null}"><path d="M246.82643,165.88656c0.17197,1.04946 -0.54251,2.04014 -1.59585,2.21276c-1.0533,0.17261 -2.04661,-0.53823 -2.2186,-1.58769c-0.17198,-1.04944 0.54248,-2.04014 1.59582,-2.21276c1.05332,-0.1726 2.04663,0.53823 2.21862,1.58769z" fill="#e0cb17" stroke="none"/><path d="M245.28414,167.98837c-0.65076,0.10662 -1.26441,-0.33252 -1.37066,-0.98089c-0.10625,-0.64838 0.33515,-1.26042 0.98591,-1.36705c0.65076,-0.10662 1.26441,0.33252 1.37066,0.98089c0.10625,0.64837 -0.33515,1.26042 -0.98591,1.36705z" fill="#e0cb17" stroke="#000000"/><path d="M247.21861,170.20516c-0.17275,1.07556 -1.58435,2.97454 -1.58435,2.97454c0,0 -1.63211,-1.72625 -1.50994,-3.11642c0.11767,-1.33886 0.23605,-1.56398 0.23605,-1.56398l2.07792,-0.32544c0,0 0.95305,0.95573 0.78031,2.0313z" fill="#e8edf4" stroke="#000000"/><path d="M245.40677,168.57104c-0.5769,0.09189 -1.34692,-0.1403 -1.34692,-0.1403l0.19939,-0.52912c0,0 0.68361,0.22507 1.12761,0.12621c0.44401,-0.09884 0.99882,-0.59963 0.99882,-0.59963l0.32514,0.63724c0,0 -0.79916,0.42519 -1.30404,0.50562z" fill="#dbded5" stroke="#000000"/></g><g data-paper-data="{&quot;index&quot;:null}" stroke="none"><path d="M240.03583,173.2532c0.19854,-0.03253 0.41424,0.27516 0.48177,0.68726c0.06753,0.41208 -0.03868,0.77253 -0.23721,0.80507c-0.19853,0.03253 -0.41422,-0.27516 -0.48175,-0.68726c-0.06753,-0.41207 0.03866,-0.77252 0.23719,-0.80506z" fill="#000000"/><path d="M239.50195,178.68601c0.20681,-0.03389 1.32084,1.95955 1.32084,1.95955c0,0 -0.9826,0.49813 -1.18939,0.53202c-0.20681,0.03389 -0.74946,-1.10078 -0.77918,-1.28211c-0.02972,-0.18132 0.44093,-1.17558 0.64772,-1.20947z" fill="#807d5a"/><path d="M240.00965,174.55729l-0.1504,-0.29205l3.84929,-6.60712l0.15426,0.12796z" fill="#6e6e73"/><path d="M243.24083,168.24552l0.38169,0.26437l-0.93821,1.53291l-0.35174,-0.26927z" fill="#ddcb1e"/></g></g><g data-paper-data="{&quot;index&quot;:null}" stroke-width="0" stroke-linecap="butt" stroke-linejoin="miter"><g data-paper-data="{&quot;index&quot;:null}"><path d="M226.9942,172.63835c-1.35125,0.22143 -2.62551,-0.69044 -2.84612,-2.03673c-0.22062,-1.34628 0.69594,-2.61716 2.0472,-2.8386c1.35127,-0.22145 2.62552,0.69044 2.84613,2.03673c0.22063,1.34628 -0.69593,2.61715 -2.04719,2.83859z" fill="#e0cb17" stroke="none"/><path d="M226.88363,172.52542c-0.8348,0.1368 -1.62203,-0.42655 -1.75833,-1.2583c-0.13629,-0.83177 0.42997,-1.61691 1.26477,-1.7537c0.83481,-0.1368 1.62203,0.42654 1.75833,1.25829c0.1363,0.83175 -0.42995,1.61691 -1.26475,1.7537z" fill="#e0cb17" stroke="#000000"/><path d="M225.43947,176.01246c-0.65039,-1.23688 0.11698,-2.78902 0.11698,-2.78902l2.65948,-0.45513c0,0 0.23611,0.22523 0.92733,1.80475c0.7177,1.64004 -0.49305,5.9403 -0.49305,5.9403c0,0 -2.56032,-3.26403 -3.21072,-4.50089z" fill="#e8edf4" stroke="#000000"/><path d="M226.9731,173.28398c-0.64675,0.10892 -1.79236,-0.08077 -1.79236,-0.08077l0.13436,-0.90783c0,0 0.87955,0.38169 1.45982,0.32007c0.58026,-0.06164 1.3192,-0.61515 1.3192,-0.61515l0.45905,0.56165c0,0 -0.84107,0.5976 -1.58004,0.72205z" fill="#dbded5" stroke="#000000"/></g><g data-paper-data="{&quot;index&quot;:null}" stroke="none"><path d="M234.56014,179.45545c0.13448,-0.45189 0.02637,-2.93338 1.30658,-3.10385c0.19872,-0.02646 1.93455,1.00417 2.33531,1.99911c0.54513,1.35342 -0.24836,2.78967 -0.24836,2.78967l-3.07747,0.48464c0,0 -0.45054,-1.71767 -0.31607,-2.16956z" fill="#e4dcaa"/><path d="M235.11558,177.80994c-0.08661,-0.52866 0.0496,-0.99104 0.3043,-1.03277c0.2547,-0.04173 0.53139,0.35298 0.61802,0.88163c0.08661,0.52866 -0.04962,0.99105 -0.30432,1.03278c-0.25469,0.04174 -0.53137,-0.35298 -0.618,-0.88163z" fill="#000000"/><path d="M235.37972,183.75582c-0.28253,-0.81254 -0.50926,-2.14447 -0.50926,-2.14447c0,0 0.50309,-0.43228 0.84528,-0.59726c0.34219,-0.165 0.92928,-0.31341 0.92928,-0.31341l1.34193,0.57543c0,0 0.68685,2.91512 0.76145,3.29064c0.15025,0.75631 -1.16594,1.55403 -1.16594,1.55403l-1.24317,-0.28543c0,0 -0.67703,-1.26697 -0.95958,-2.0795z" fill="#dfcc17"/><path d="M237.4899,186.08652c0,0 0.53816,-2.87963 0.80346,-2.9231c0.2653,-0.04348 1.24457,0.9726 1.28268,1.2052c0.03811,0.23261 -0.15703,1.83429 -0.42233,1.87776c-0.2653,0.04348 -1.66382,-0.15981 -1.66382,-0.15981z" fill="#807d5a"/><path d="M228.52886,171.69748l0.13516,-0.21874l7.38493,6.4565l-0.06327,0.41663z" fill="#6e6e73"/><path d="M231.20296,173.48717l-0.31738,0.47137l-1.76826,-1.47946l0.35579,-0.47765z" fill="#ddcb1e"/></g></g><g data-paper-data="{&quot;index&quot;:null}" stroke="none" stroke-width="0" stroke-linecap="butt" stroke-linejoin="miter"><g><path d="M241.12603,192.63143c0,0 -0.08568,0.36822 0.09938,0.79464c0.2255,0.51949 0.72977,0.68041 1.22714,1.40917c1.07766,1.57903 1.19265,3.31559 4.45694,2.91704c0.35691,-0.12912 0.83987,-0.55158 0.83987,-0.55158c0,0 0.13413,0.2993 0.09672,0.51188c-0.03743,0.21259 -0.27164,0.48183 -0.27164,0.48183l-0.25852,0.02556l0.0127,0.17448c0,0 -0.13738,0.10862 -0.29429,0.16887c-0.15691,0.06026 -0.34472,0.12146 -0.41391,0.11477c-0.0846,-0.0082 0.02465,-0.12548 -0.08489,-0.10081c-0.06759,0.01522 -0.09843,-0.00772 -0.16263,0.00747c-0.09855,0.02336 0.04898,0.10997 -0.05423,0.12611c-0.26645,0.0417 -0.67671,-0.0339 -0.84052,-0.0297c-0.13665,0.00349 -0.13166,-0.26964 -0.13166,-0.26964l-0.17294,0.00346l-0.0777,0.16163c0,0 -0.45517,-0.20653 -0.60284,-0.24598c-0.45961,-0.12277 -0.30673,-0.37611 -0.30673,-0.37611l-0.19498,-0.12252l-0.12032,0.13254l-0.59494,-0.52226l-0.00119,-0.20706c0,0 -0.36066,-0.77587 -0.66832,-1.0675c-0.30854,-0.29245 -1.18028,-0.6848 -1.18028,-0.6848l-0.15519,0.19018l-0.54493,-0.5658l0.0916,-0.36625c0,0 -0.24202,0.13527 -0.30275,0.0261c-0.65352,-1.17487 0.61102,-2.13575 0.61102,-2.13575z" data-paper-data="{&quot;index&quot;:null}" fill="#a87643"/><path d="M244.51756,193.42966c0.36039,1.7464 -0.56868,2.65001 -0.56868,2.65001c0,0 -2.4294,-1.77532 -2.80866,-2.61747c-0.28283,-0.62807 0.41705,-1.83466 0.41705,-1.83466c0,0 -0.18635,-1.24222 -0.2663,-1.64245c-0.07997,-0.40021 -0.14775,-1.0908 -0.14775,-1.0908c0,0 1.80238,-0.14008 2.17774,0.0026c0.28654,0.12174 0.99025,3.53278 1.19662,4.5328z" data-paper-data="{&quot;index&quot;:null}" fill="#fc6293"/><path d="M242.57842,188.37221c0.10306,-0.14442 0.83874,-0.32064 1.61504,-0.15923c0.23258,0.04834 0.29954,1.34997 0.75765,2.88527c0.25574,0.85714 0.84864,2.08963 1.16695,2.83269c0.34211,0.7986 1.3323,1.41159 1.40245,1.59432c0.25235,0.65735 0.2525,1.71496 0.24128,1.72695c-0.00626,0.00669 -0.66712,1.00402 -2.17064,0.78617c-1.99452,-0.28902 -3.22182,-3.26949 -3.22182,-3.26949c0,0 0.4111,-0.68594 0.73425,-0.21076c0.3891,0.59797 0.25307,0.49027 0.50306,0.95733c0.07937,0.18245 0.22718,0.44805 0.25997,0.43412c0.33497,-0.14221 0.70614,-1.5453 0.64803,-2.19266c-0.04708,-0.52473 -0.28299,-1.53371 -0.53106,-2.39786c-0.21787,-0.75896 -0.324,-1.51884 -0.44737,-2.01575c-0.07501,-0.30203 -0.27794,-0.469 -0.27794,-0.469c0,0 -0.84557,-0.26984 -0.67983,-0.50209z" data-paper-data="{&quot;index&quot;:null}" fill="#fc6293"/><path d="M245.81496,193.59925c0,0 -0.58417,-1.22521 -0.80797,-2.10084c-0.29527,-1.15519 -0.58534,-2.59498 -0.71341,-2.97278c-0.06442,-0.19005 -0.44408,-0.29167 -0.44408,-0.29167l0.0934,-0.09977c0,0 0.42365,0.06913 0.47783,0.3202c0.31141,1.44311 0.44203,2.2678 0.75324,3.07996c0.22483,0.58673 1.02873,2.58384 1.02873,2.58384z" data-paper-data="{&quot;index&quot;:null}" fill="#766565"/><path d="M242.81682,192.51201l-0.23982,-1.15682l0.62643,-0.11965l0.19945,1.19994z" data-paper-data="{&quot;index&quot;:null}" fill="#fffff6"/><path d="M242.30241,190.72828l-0.18951,-0.9447l0.56452,-0.09195l0.256,0.98426z" data-paper-data="{&quot;index&quot;:null}" fill="#fffff6"/><path d="M244.68025,189.85935c0,0 -0.17863,0.20736 -0.60593,0.43444c-0.42729,0.22707 -1.14564,0.37681 -1.14564,0.37681l-0.2414,-0.98634c0,0 0.53026,-0.03871 0.9221,-0.19297c0.39185,-0.15426 0.93523,-0.53823 0.93523,-0.53823l0.13565,0.90627z" data-paper-data="{&quot;index&quot;:null}" fill="#754c86"/><path d="M244.34998,192.23976c-0.38712,0.12162 -0.97239,0.21645 -0.97239,0.21645l-0.22014,-1.20418c0,0 0.41745,-0.06925 0.77308,-0.2202c0.35561,-0.15095 0.91706,-0.50583 0.91706,-0.50583c0,0 0.13809,0.45659 0.21727,0.69742c0.07917,0.24084 0.21364,0.61347 0.21364,0.61347c0,0 -0.54141,0.28128 -0.92853,0.40291z" data-paper-data="{&quot;index&quot;:null}" fill="#754c86"/><path d="M241.16275,188.89817c0,0 0.26932,-0.24416 0.4707,-0.32432c0.12189,-0.04851 0.44366,-0.12323 0.77662,-0.2372c0.33296,-0.11395 0.43378,-0.09084 0.43378,-0.09084l-1.50365,0.65534z" data-paper-data="{&quot;index&quot;:null}" fill="#ae8484"/><path d="M243.85835,188.41206c0.03301,0.14594 -0.06559,0.28026 -0.43501,0.38254c-0.36942,0.10226 -0.28612,0.01888 -1.01581,0.06324c-0.35649,0.02678 -1.05024,0.0451 -1.05024,0.0451c0,0 0.37468,-0.35426 1.20958,-0.54315c0.83492,-0.1889 1.24673,-0.15362 1.29113,0.04251z" data-paper-data="{&quot;index&quot;:null}" fill="#532c31"/></g><path d="M241.7722,188.55696c0,0 -0.63386,-0.46691 -0.54891,-0.83599c0.08498,-0.36908 0.47214,-0.37489 0.80571,-0.24583c0.33354,0.12906 0.63225,0.80219 0.63225,0.80219z" fill="#f3e2e2"/></g><g data-paper-data="{&quot;index&quot;:null}" stroke="none" stroke-width="0" stroke-linecap="butt" stroke-linejoin="miter"><path d="M241.71876,183.44729l1.18916,3.55349l0.57773,1.84045l-1.20638,0.09626l-0.75131,-1.96271l-1.05695,-3.29805z" data-paper-data="{&quot;index&quot;:null}" fill="#8e5173"/><path d="M242.6516,186.28325l0.25635,0.71755l0.57773,1.84045l-1.20638,0.09626l-0.75131,-1.96271l-0.14721,-0.47393z" data-paper-data="{&quot;index&quot;:null}" fill="#c5c0b5"/><path d="M241.45236,186.74931l-0.06399,-0.2514l1.27133,-0.22252l0.08434,0.26183z" fill="#af2753"/><path d="M241.60121,187.21138l-0.06399,-0.2514l1.27133,-0.22252l0.08434,0.26183z" fill="#af2753"/></g><g data-paper-data="{&quot;index&quot;:null}" stroke="none" stroke-width="0" stroke-linecap="butt" stroke-linejoin="miter"><path d="M241.70512,186.30374c0,0 -0.56723,-0.54592 -0.43464,-0.90068c0.13258,-0.35476 0.51719,-0.30979 0.83096,-0.13814c0.3138,0.17165 0.52171,0.87811 0.52171,0.87811z" fill="#fc6293"/><g><path d="M240.35127,189.91401c0,0 -0.21782,0.3323 -0.1895,0.82001c0.0345,0.59419 0.47382,0.93545 0.70082,1.83447c0.49189,1.94795 -0.02312,3.70299 3.34189,4.49103c0.39887,0.00176 1.02826,-0.24029 1.02826,-0.24029c0,0 0.02406,0.34385 -0.08979,0.54005c-0.11386,0.1962 -0.44237,0.37709 -0.44237,0.37709l-0.26431,-0.06832l-0.05061,0.17675c0,0 -0.17482,0.05746 -0.35145,0.06013c-0.17662,0.00267 -0.38407,-0.0049 -0.44993,-0.03656c-0.08054,-0.03869 0.06971,-0.11485 -0.04728,-0.13016c-0.0722,-0.00944 -0.09433,-0.04325 -0.16317,-0.05146c-0.10569,-0.0126 0.00854,0.12625 -0.09915,0.10483c-0.27798,-0.0553 -0.65542,-0.27833 -0.81856,-0.33349c-0.13608,-0.04598 -0.03233,-0.31367 -0.03233,-0.31367l-0.17187,-0.05916l-0.13514,0.13134c0,0 -0.37435,-0.36849 -0.50579,-0.46085c-0.40906,-0.28745 -0.16653,-0.4821 -0.16653,-0.4821l-0.14806,-0.19146l-0.16667,0.0872l-0.39802,-0.73061l0.07377,-0.20472c0,0 -0.07509,-0.89603 -0.27309,-1.29512c-0.19859,-0.40022 -0.91673,-1.10281 -0.91673,-1.10281l-0.22193,0.13148l-0.3329,-0.75545l0.22292,-0.32821c0,0 -0.28775,0.04589 -0.30816,-0.0838c-0.21964,-1.39568 1.37576,-1.88614 1.37576,-1.88614z" data-paper-data="{&quot;index&quot;:null}" fill="#a87643"/><path d="M243.40881,191.92901c-0.2764,1.85351 -1.52009,2.40886 -1.52009,2.40886c0,0 -1.75454,-2.63082 -1.82397,-3.599c-0.05177,-0.72204 1.0754,-1.65926 1.0754,-1.65926c0,0 0.26568,-1.29309 0.33162,-1.71691c0.06595,-0.42379 0.24897,-1.12972 0.24897,-1.12972c0,0 1.82902,0.51406 2.14773,0.79065c0.23868,0.2238 -0.30137,3.84399 -0.45965,4.90538z" data-paper-data="{&quot;index&quot;:null}" fill="#fc6293"/><path d="M243.32562,186.23729c0.15393,-0.10519 0.9436,-0.01283 1.65112,0.42735c0.21196,0.13185 -0.19298,1.44038 -0.29658,3.12099c-0.05783,0.93823 0.08112,2.36882 0.12629,3.21718c0.04854,0.91174 0.8037,1.87489 0.8068,2.08057c0.01113,0.73989 -0.37149,1.78344 -0.38688,1.79121c-0.00862,0.00433 -1.02156,0.74919 -2.4262,-0.00985c-1.86334,-1.00694 -1.99569,-4.39181 -1.99569,-4.39181c0,0 0.65386,-0.52805 0.80073,0.05775c0.16752,0.7308 0.07228,0.57531 0.14992,1.12661c0.01227,0.20875 0.06199,0.5243 0.09939,0.52242c0.38198,-0.0191 1.25894,-1.25816 1.43587,-1.91791c0.14339,-0.53478 0.2728,-1.62667 0.34075,-2.56907c0.05968,-0.82769 0.22998,-1.61582 0.28806,-2.15076c0.03531,-0.32515 -0.10451,-0.56332 -0.10451,-0.56332c0,0 -0.73663,-0.57224 -0.48905,-0.74141z" data-paper-data="{&quot;index&quot;:null}" fill="#f3e2e2"/><path d="M244.62748,192.56581c0,0 -0.133,-1.42028 -0.03695,-2.36521c0.12672,-1.24664 0.36154,-2.77217 0.3719,-3.19129c0.00521,-0.21085 -0.33261,-0.44851 -0.33261,-0.44851l0.12823,-0.06463c0,0 0.39299,0.22153 0.35558,0.48884c-0.21497,1.53656 -0.38454,2.39751 -0.37139,3.31147c0.00951,0.66024 0.07997,2.92165 0.07997,2.92165z" data-paper-data="{&quot;index&quot;:null}" fill="#bfa4a4"/><path d="M242.06275,190.40806l0.18202,-1.22819l0.66138,0.10863l-0.23742,1.25614z" data-paper-data="{&quot;index&quot;:null}" fill="#fffff6"/><path d="M242.20071,188.46197l0.15488,-1.00069l0.59028,0.11356l-0.1036,1.06379z" data-paper-data="{&quot;index&quot;:null}" fill="#fffff6"/><path d="M244.86129,188.46515c0,0 -0.25131,0.13995 -0.75507,0.20937c-0.50379,0.0694 -1.26675,-0.0428 -1.26675,-0.0428l0.11876,-1.06053c0,0 0.53718,0.15369 0.97961,0.14329c0.44245,-0.0104 1.11753,-0.19262 1.11753,-0.19262z" data-paper-data="{&quot;index&quot;:null}" fill="#754c86"/><path d="M244.73595,190.63277c0,0 -0.63599,0.08164 -1.06196,0.06154c-0.42596,-0.02008 -1.03773,-0.13832 -1.03773,-0.13832l0.21856,-1.2678c0,0 0.43697,0.08275 0.84247,0.06251c0.40552,-0.02025 1.0879,-0.16724 1.0879,-0.16724c0,0 -0.02896,0.50048 -0.03801,0.76675c-0.00905,0.26628 -0.01121,0.68257 -0.01121,0.68257z" data-paper-data="{&quot;index&quot;:null}" fill="#754c86"/><path d="M241.73852,186.2439c0,0 0.35409,-0.14344 0.5818,-0.14967c0.13782,-0.00377 0.48233,0.03895 0.85209,0.04699c0.36976,0.00805 0.46088,0.06735 0.46088,0.06735l-1.72074,0.10246z" data-paper-data="{&quot;index&quot;:null}" fill="#ae8484"/><path d="M244.57411,186.73968c-0.02021,0.15597 -0.16611,0.2528 -0.56762,0.22002c-0.40153,-0.03277 -0.28914,-0.08489 -1.02517,-0.30518c-0.36142,-0.10256 -1.05254,-0.33555 -1.05254,-0.33555c0,0 0.49787,-0.21394 1.38999,-0.09818c0.89213,0.11575 1.28572,0.29961 1.25852,0.50919z" data-paper-data="{&quot;index&quot;:null}" fill="#532c31"/></g></g><path d="M241.38066,182.14865l2.83666,2.82433l-0.15333,2.04867l-1.40162,-0.46103l0.10621,-1.18431l-2.50215,-2.94645z" data-paper-data="{&quot;index&quot;:null}" fill="#8e5173" stroke="none" stroke-width="0" stroke-linecap="butt" stroke-linejoin="miter"/><path d="M243.06472,183.80954l1.13144,1.16408l-0.13225,2.04801l-1.40161,-0.46102l0.10621,-1.18431l-0.89019,-1.08646z" data-paper-data="{&quot;index&quot;:null}" fill="#a71e48" stroke="none" stroke-width="0" stroke-linecap="butt" stroke-linejoin="miter"/><path d="M243.26181,184.03338l0.18091,0.19615l-0.9684,0.77218l-0.15415,-0.17895z" data-paper-data="{&quot;index&quot;:null}" fill="#a19589" stroke="none" stroke-width="0" stroke-linecap="butt" stroke-linejoin="miter"/><path d="M243.62108,184.3868l0.18091,0.19615l-1.0099,0.79459l-0.15416,-0.17897z" data-paper-data="{&quot;index&quot;:null}" fill="#a19589" stroke="none" stroke-width="0" stroke-linecap="butt" stroke-linejoin="miter"/><path d="M240.80542,182.1738c0,0 -0.81862,1.96178 -1.48611,2.44401c-0.72534,0.524 -2.88024,1.05672 -2.88024,1.05672l2.24215,-1.75731l0.99859,-1.03145z" data-paper-data="{&quot;index&quot;:null}" fill="#f79db4" stroke="none" stroke-width="0" stroke-linecap="butt" stroke-linejoin="miter"/><path d="M246.95999,176.78353c0.12677,-0.04797 1.13566,0.24872 1.56588,0.44818c0.23496,0.10895 0.67404,0.30907 0.65656,0.74388c-0.00446,0.11083 -0.28556,0.57302 -0.28556,0.57302l0.24082,0.3435c0,0 -0.0107,0.24965 -0.09351,0.37629c-0.08281,0.12663 -0.31598,0.28489 -0.31598,0.28489c0,0 0.00029,0.1717 0.02536,0.29214c0.08184,0.39309 -0.27867,0.50172 -0.27867,0.50172c0,0 0.09201,0.27836 0.03013,0.48158c-0.09808,0.3222 -0.39141,0.63895 -0.59773,0.74983c-0.35048,0.18834 -1.42378,0.46821 -1.66781,0.18937c-0.38007,-0.43428 0.20583,-0.83677 0.20583,-0.83677c0,0 -0.60072,0.04536 -0.92696,-0.11752c-0.50234,-0.25082 -0.65277,-0.5821 -0.65277,-0.5821l0.05393,-2.45453c0,0 1.24471,-0.69243 2.04048,-0.99345z" data-paper-data="{&quot;index&quot;:null}" fill="#ffffff" stroke="none" stroke-width="0" stroke-linecap="butt" stroke-linejoin="miter"/><g data-paper-data="{&quot;index&quot;:null}" stroke="none" stroke-width="0" stroke-linecap="butt" stroke-linejoin="miter"><path d="M245.59319,178.96356c-0.21975,0.83594 -0.52389,1.46292 -1.55758,1.20877c-1.03392,-0.25421 -0.98159,-0.98248 -0.76188,-1.81842c0.21974,-0.83593 0.52793,-1.47938 1.55757,-1.20876c1.0296,0.27063 0.98159,0.98247 0.76188,1.81841z" fill="#fed000"/><path d="M243.91511,180.6308c-0.84584,-0.19943 -0.71433,-1.13167 -0.42805,-2.22082c0.28627,-1.08916 0.62453,-1.94419 1.46473,-1.72335c0.84021,0.22084 0.71433,1.13167 0.42805,2.22082c-0.28627,1.08916 -0.61909,1.92273 -1.46473,1.72335z" fill="#e68b9c"/></g><path d="M244.95804,181.89538c0,0 -1.29126,1.6973 -3.32557,2.43722c-2.48135,0.715 -4.71365,0.37713 -4.71365,0.37713l0.12196,-0.43567c0,0 1.96024,0.6227 4.46712,-0.25078c2.14479,-0.78685 3.14135,-2.42991 3.14135,-2.42991z" data-paper-data="{&quot;index&quot;:null}" fill="#ee3377" stroke="none" stroke-width="0" stroke-linecap="butt" stroke-linejoin="miter"/><path d="M241.79599,179.1889l2.9031,2.46197c0,0 -1.71046,2.12916 -3.64187,2.58651c-2.52915,0.56092 -4.02291,0.12361 -4.02291,0.12361l0.70518,-2.12159l0.67083,-1.99112z" data-paper-data="{&quot;index&quot;:null}" fill="#fcf4f4" stroke="none" stroke-width="0" stroke-linecap="butt" stroke-linejoin="miter"/><path d="M244.40603,181.41937c0,0 -0.8427,1.54999 -2.87701,2.28991c-2.91468,0.83933 -4.36113,0.26358 -4.36113,0.26358l0.04579,-0.14361c0,0 1.76825,0.60255 4.27513,-0.27093c2.24389,-0.82159 2.78966,-2.24706 2.78966,-2.24706z" data-paper-data="{&quot;index&quot;:null}" fill="#ee3377" stroke="none" stroke-width="0" stroke-linecap="butt" stroke-linejoin="miter"/><g data-paper-data="{&quot;index&quot;:null}" stroke="none" stroke-width="0" stroke-linecap="butt" stroke-linejoin="miter"><path d="M243.21472,183.3828l-2.39236,-4.55384l0.56944,-0.08795l3.38642,3.38464c0,0 -0.37922,0.70866 -1.23933,1.12832c-0.20993,0.10244 -0.32416,0.12883 -0.32416,0.12883z" fill="#fab5b7"/><path d="M243.77561,183.13333c0.61276,-0.31995 0.99874,-1.06258 0.99874,-1.06258l0.21059,0.35406c0,0 -0.42061,0.80665 -1.0449,1.13833c-0.6964,0.36999 -0.55322,0.23311 -0.55322,0.23311l-0.16551,-0.36944c0,0 -0.12735,0.06245 0.55432,-0.29349z" fill="#fed000"/></g><path d="M239.3583,180.598l0.18666,-0.67384l1.46113,-0.59086l0.5192,0.34633z" data-paper-data="{&quot;index&quot;:null}" fill="#aa4455" stroke="none" stroke-width="0" stroke-linecap="butt" stroke-linejoin="miter"/><g data-paper-data="{&quot;index&quot;:null}" stroke-width="0" stroke-linecap="butt" stroke-linejoin="miter"><path d="M250.29094,165.92224l-3.84912,8.22809c0,0 -2.92293,0.12834 -3.58732,-1.73617c-0.62963,-1.76704 -0.70964,-3.22192 0.0418,-5.0794c1.95697,-4.83738 6.30766,-3.13279 6.30766,-3.13279z" fill="#ffff00" stroke="none"/><path d="M248.73689,165.15516c-0.45835,-0.0442 -1.00042,0.12025 -1.17075,-0.00522c-0.34254,-0.25232 0.02407,-0.28543 0.86151,-0.35502c0.3905,-0.03245 1.32146,0.21322 1.32146,0.21322l0.27453,0.45308c0,0 -0.60183,-0.24002 -1.28675,-0.30606z" fill="#a58c48" stroke="#000000"/><path d="M245.29272,166.3019c0.17251,0.07519 -0.58404,0.88833 -0.94237,1.71037c-0.35833,0.82206 -0.26475,2.42943 -0.67756,2.30686c-0.45207,-0.13422 -0.11301,-1.62997 0.22054,-2.46237c0.49782,-1.24233 1.22687,-1.63006 1.39941,-1.55486z" fill="#a58c48" stroke="#000000"/><path d="M245.80099,173.91473l-0.41086,0.03958c0,0 -0.55134,-0.27472 -0.8652,-0.58968c-0.28176,-0.28279 -0.1552,-0.61641 -0.07994,-0.6533c0.21385,-0.10478 0.31766,0.36023 0.63695,0.67081c0.34497,0.33555 0.71909,0.53258 0.71909,0.53258z" fill="#a58c48" stroke="#000000"/><path d="M249.35,170.38845c1.51924,-3.24614 3.74795,-3.30502 3.74795,-3.30502c0,0 -0.17561,-0.1334 0.37133,0.10427c0.54694,0.23769 0.26382,0.16877 0.26382,0.16877c0,0 -2.09999,0.58402 -3.35954,2.38945c-2.00448,2.87321 -0.64009,5.88291 -0.64009,5.88291l-0.50732,-0.31045c0,0 -0.95891,-2.61653 0.12383,-4.92994z" fill="#edeee6" stroke="none"/><path d="M246.00611,174.11895c0,0 -1.84985,-2.97737 -0.55039,-5.48922c1.64684,-3.18327 4.64246,-2.99585 4.64246,-2.99585l0.18719,0.28456c0,0 -2.32486,0.43987 -3.61099,2.1891c-2.04675,2.78373 -0.27305,6.05324 -0.27305,6.05324l-0.3952,-0.04185z" fill="#edeee6" stroke="none"/><path d="M245.81414,168.84663c1.52544,-3.26029 4.76375,-2.90488 4.76375,-2.90488c0,0 0.90734,0.26316 1.45428,0.50081c0.54696,0.23767 1.34922,0.71741 1.34922,0.71741c0,0 -2.10235,0.58945 -3.36563,2.40344c-2.01036,2.88679 -0.6498,5.90524 -0.6498,5.90524l-3.05799,-1.32809c0,0 -1.58095,-2.97039 -0.49381,-5.2939z" fill="#754c86" stroke="none"/><path d="M251.84055,173.30333c-0.53526,1.228 0.01841,4.31946 0.01841,4.31946c0,0 -0.78478,-0.08638 -1.42983,-0.69564c-1.00917,-0.95314 -2.00116,-2.82526 -0.88691,-5.67534c2.1248,-5.43502 7.13079,-3.86734 7.13079,-3.86734c0,0 -4.29715,4.69086 -4.83244,5.91885z" fill="#ffff00" stroke="none"/><path d="M250.55948,171.02501c-0.27869,0.63937 -0.66228,2.32086 -0.83164,2.10851c-0.25056,-0.31419 0.07568,-1.63381 0.37461,-2.26398c0.53975,-1.13786 1.3116,-1.68062 1.41307,-1.63638c0.10148,0.04425 -0.59722,0.96876 -0.95604,1.79188z" fill="#a58c48" stroke="#000000"/><path d="M254.54986,167.18835c0,0 -1.35538,0.77112 -1.63122,0.73219c-0.42983,-0.06067 1.04933,-0.70157 1.04933,-0.70157l0.5819,-0.03062z" fill="#a58c48" stroke="#000000"/><path d="M249.75987,174.76564c0.34506,0.15042 0.62825,2.03508 0.62825,2.03508l-0.56003,-0.61881c0,0 -0.41328,-1.56667 -0.06822,-1.41625z" fill="#a58c48" stroke="#000000"/><path d="M257.73381,173.67704c-1.32611,2.94186 -3.73051,4.90643 -5.93848,3.94396c-1.5832,-0.69013 -1.57861,-3.90338 -0.39667,-6.51448c1.13222,-2.50127 3.66196,-4.3954 5.24516,-3.70527c1.58318,0.69011 2.1951,3.7626 1.06678,6.26564z" fill="#ffff00" stroke="#000000"/><path d="M257.69907,169.2102c0.95397,0.41583 0.93477,2.57114 -0.04292,4.81399c-0.9777,2.24285 -2.54361,3.72393 -3.49758,3.30809c-0.95397,-0.41584 -0.93476,-2.57115 0.04293,-4.814c0.97769,-2.24284 2.54359,-3.72392 3.49756,-3.30808z" fill="#ffff00" stroke="#000000"/><path d="M248.58184,177.41285l-1.41036,3.92563l-2.41479,6.64088c0,0 -0.46114,0.30148 -0.67881,0.21885c-0.21766,-0.08262 -0.59895,-0.56283 -0.59895,-0.56283l2.00887,-6.73162l1.17889,-4.13852c0,0 0.53618,0.35899 0.92217,0.48952c0.38599,0.13052 0.99303,0.15813 0.99303,0.15813z" fill="#fbdd00" stroke="none"/><path d="M249.53525,175.56062c0,0 -0.61273,1.72512 -0.70786,1.7793c-0.36113,0.20565 -2.02257,-0.26381 -2.35719,-0.74365c-0.19759,-0.28332 0.52015,-2.71463 0.52015,-2.71463l2.39591,1.35105z" fill="#c8c8c6" stroke="none"/><path d="M249.0042,164.1586c0,0 -2.26451,-0.84022 -4.24118,0.65125c-0.47948,0.36179 -0.93236,1.04461 -1.34304,1.69753c-0.61052,0.97062 -1.06137,2.24644 -1.02436,3.40681c0.04572,1.4337 0.69772,2.82418 0.69772,2.82418c0,0 -2.15622,-3.09023 -0.43307,-5.96577c2.55385,-4.26184 6.34394,-2.61402 6.34394,-2.61402z" fill="#ffff00" stroke="#000000"/><path d="M244.75668,187.97942c0,0 -0.46114,0.30148 -0.67881,0.21885c-0.21766,-0.08262 -0.59896,-0.56282 -0.59896,-0.56282l0.84768,-2.89333c0,0 0.33371,0.02083 0.7197,0.15136c0.38598,0.13052 0.71517,0.33689 0.71517,0.33689z" fill="#a56402" stroke="none"/></g><path d="M240.77812,177.71738c0.31842,0.53603 0.64228,1.53503 0.64228,1.53503l-3.15266,1.20767l-0.14947,-0.99948l-0.64949,-2.16629c0,0 0.70964,-0.14485 1.15078,-0.28408c0.44115,-0.13925 1.07502,-0.41838 1.07502,-0.41838c0,0 0.76509,0.58946 1.08353,1.1255z" data-paper-data="{&quot;index&quot;:null}" fill="#6d3b75" stroke="none" stroke-width="0" stroke-linecap="butt" stroke-linejoin="miter"/><path d="M241.46838,179.81697c0,0 -0.90333,-0.74958 -1.15759,-1.21371c-0.0455,-0.08311 -0.12652,-0.25361 -0.12652,-0.25361c0,0 -0.01704,-0.30522 0.46376,-1.02072c0.10533,-0.15679 -0.00561,-0.2086 -0.04255,-0.4264c-0.01165,-0.06878 -0.3237,-0.30141 -0.3237,-0.30141c0,0 0.10621,-0.10034 0.20606,-0.03481c0.29935,0.49629 0.67576,1.60514 0.67576,1.60514l0.71737,0.96322z" data-paper-data="{&quot;index&quot;:null}" fill="#efe6e6" stroke="none" stroke-width="0" stroke-linecap="butt" stroke-linejoin="miter"/><path d="M237.93845,181.1621l0.1202,-1.68227c0,0 -0.8044,-1.71381 -0.63988,-2.14217c0.04283,-0.11149 0.58094,-0.16439 0.58094,-0.16439c0,0 0.18159,-0.02342 0.28444,0.2723c0.02103,0.06048 -0.07239,0.39103 -0.04171,0.45371c0.09713,0.19838 0.21197,0.28518 0.38901,0.35099c0.80803,0.30031 0.97236,0.5581 0.97236,0.5581c0,0 0.03375,0.18573 0.04528,0.27977c0.06443,0.52527 -0.16019,1.60247 -0.16019,1.60247z" data-paper-data="{&quot;index&quot;:null}" fill="#efe6e6" stroke="none" stroke-width="0" stroke-linecap="butt" stroke-linejoin="miter"/><path d="M238.2979,177.36296l-0.60609,0.19822l0.14922,-0.35976c0,0 0.66585,-0.17284 0.7436,-0.17173c0.13627,0.04064 0.3829,0.39062 0.57159,0.71542c0.15493,0.26666 0.5051,1.04471 0.5051,1.04471c0,0 -0.17507,-0.10083 -0.35888,-0.184c-0.26587,-0.12028 -0.54177,-0.21697 -0.75078,-0.35773c-0.36763,-0.2612 -0.25374,-0.88517 -0.25374,-0.88517z" data-paper-data="{&quot;index&quot;:null}" fill="#fd4275" stroke="none" stroke-width="0" stroke-linecap="butt" stroke-linejoin="miter"/><path d="M239.49982,180.26614c0,0 0.19009,-0.96068 -0.01262,-1.407c-0.1374,-0.30256 -1.35494,-0.7152 -1.35494,-0.7152l0.11891,-0.1557c0,0 1.23621,0.52247 1.35803,0.80087c0.23076,0.52723 0.03573,1.44956 0.03573,1.44956z" data-paper-data="{&quot;index&quot;:null}" fill="#fed000" stroke="none" stroke-width="0" stroke-linecap="butt" stroke-linejoin="miter"/><path d="M238.19618,178.02068l0.04844,-0.58054l-0.7108,0.24741l0.12927,-0.45487l0.18915,-0.02325l-0.12752,0.26999l0.63651,-0.19991l0.00839,0.65242l1.10995,0.54708c0,0 0.11484,0.10946 0.13188,0.17039c0.01704,0.06094 0.03725,0.28653 0.03725,0.28653c0,0 -0.06726,-0.15265 -0.1991,-0.27985c-0.12877,-0.12423 -0.32094,-0.22241 -0.42469,-0.27503c-0.24469,-0.12413 -0.82874,-0.36036 -0.82874,-0.36036z" data-paper-data="{&quot;index&quot;:null}" fill="#fff9f9" stroke="none" stroke-width="0" stroke-linecap="butt" stroke-linejoin="miter"/><path d="M237.52323,177.76036l0.01835,-0.08611l0.69445,-0.22371l-0.0042,0.05851z" data-paper-data="{&quot;index&quot;:null}" fill="#fed000" stroke="none" stroke-width="0" stroke-linecap="butt" stroke-linejoin="miter"/><path d="M239.30893,177.37904l-0.50573,-0.16122c0,0 -0.05972,-0.06864 -0.10206,-0.10405c-0.04232,-0.03542 -0.09488,-0.08784 -0.09488,-0.08784c0,0 0.35836,-0.12932 0.53796,-0.19972c0.18233,-0.07146 0.54794,-0.2259 0.54794,-0.2259z" data-paper-data="{&quot;index&quot;:null}" fill="#fff9f9" stroke="none" stroke-width="0" stroke-linecap="butt" stroke-linejoin="miter"/><path d="M239.20011,177.14484l-0.49572,-0.15803l0.71686,-0.27328z" data-paper-data="{&quot;index&quot;:null}" fill="#fd4275" stroke="none" stroke-width="0" stroke-linecap="butt" stroke-linejoin="miter"/><path d="M240.26314,176.59023c0,0 0.43782,0.19632 0.33719,0.63592c-0.06236,0.24417 -0.14158,0.6936 -0.26,0.96029c-0.08186,0.18441 -0.14547,0.37617 -0.14547,0.37617c0,0 -0.25635,-0.81382 -0.31813,-1.11595c-0.0753,-0.36802 -0.22399,-0.74128 -0.14933,-0.86226c0.05729,-0.05254 0.42413,-0.27265 0.42413,-0.27265l0.64883,-0.02355z" data-paper-data="{&quot;index&quot;:null}" fill="#fd4275" stroke="none" stroke-width="0" stroke-linecap="butt" stroke-linejoin="miter"/><path d="M241.1712,179.63321c0,0 -0.75929,-0.55873 -0.93787,-1.10584c-0.09429,-0.28888 0.48084,-1.50146 0.48084,-1.50146l0.05052,0.04657c0,0 -0.49246,1.10874 -0.3937,1.42602c0.1457,0.46806 0.92682,1.05872 0.92682,1.05872z" data-paper-data="{&quot;index&quot;:null}" fill="#fed000" stroke="none" stroke-width="0" stroke-linecap="butt" stroke-linejoin="miter"/><path d="M240.77681,177.01358c0,0 -0.2788,0.56497 -0.37886,0.82044c-0.04242,0.10831 -0.12055,0.30947 -0.13403,0.48789c-0.01379,0.1827 0.03757,0.34141 0.03757,0.34141c0,0 -0.13502,-0.18181 -0.16284,-0.23867c-0.02782,-0.05683 -0.01493,-0.21496 -0.01493,-0.21496l0.46453,-1.14696l-0.42786,-0.4926l0.60816,-0.27431l-0.67712,0.02216l0.35424,-0.25969l0.62141,0.15157l-0.71273,0.40262l0.42245,0.40112z" data-paper-data="{&quot;index&quot;:null}" fill="#fff9f9" stroke="none" stroke-width="0" stroke-linecap="butt" stroke-linejoin="miter"/><g stroke="none" stroke-width="0" stroke-linecap="butt" stroke-linejoin="miter"><path d="M238.21658,177.52386c1.13264,0.34014 2.38052,0.9293 3.18819,1.35245c1.15473,0.60498 2.20095,1.10997 2.20095,1.10997c0,0 -0.05101,0.54122 -0.29475,0.75545c-0.24373,0.21426 -0.29314,0.31372 -0.29314,0.31372c0,0 -1.78334,-1.01863 -2.24919,-1.26269c-0.76414,-0.40034 -1.75333,-0.8681 -2.89536,-1.37919c-0.28617,-0.12807 -0.3853,-0.35174 -0.26664,-0.64891c0.07973,-0.19965 0.23492,-0.35346 0.60997,-0.24084z" data-paper-data="{&quot;index&quot;:null}" fill="#4c2b5c"/><path d="M238.21658,177.52386c0.82278,0.24708 2.43786,0.97639 2.43786,0.97639l0.74284,1.63786c0,0 -0.49891,-0.27737 -0.62864,-0.34534c-0.76414,-0.40034 -1.75333,-0.8681 -2.89537,-1.37919c-0.28617,-0.12807 -0.3853,-0.35174 -0.26664,-0.64891c0.07973,-0.19965 0.23491,-0.35346 0.60996,-0.24084z" data-paper-data="{&quot;index&quot;:null}" fill="#edbb82"/></g><g data-paper-data="{&quot;index&quot;:null}" stroke="none" stroke-linecap="butt" stroke-linejoin="miter"><path d="M244.64699,179.82964c0,0 1.48543,0.03439 2.36028,0.18381c0.13938,0.02383 0.89034,0.82351 1.17203,1.23009c0.15387,0.22208 0.44319,0.63396 0.19786,1.0159c-0.06254,0.09737 -0.55949,0.36471 -0.55949,0.36471l0.03526,0.43617c0,0 -0.14144,0.2189 -0.28281,0.28911c-0.14135,0.07019 -0.43471,0.08943 -0.43471,0.08943c0,0 -0.09039,0.15465 -0.13144,0.27622c-0.13399,0.39683 -0.51565,0.30416 -0.51565,0.30416c0,0 -0.06422,0.29898 -0.22722,0.44914c-0.25838,0.23802 -0.68952,0.3681 -0.9337,0.35889c-0.41476,-0.01563 -1.52813,-0.33066 -1.6004,-0.71036c-0.11259,-0.59139 0.62705,-0.64409 0.62705,-0.64409c0,0 -0.56438,-0.27641 -0.77184,-0.59523c-0.31949,-0.49091 -0.27986,-0.86837 -0.27986,-0.86837l1.34468,-2.17964z" data-paper-data="{&quot;index&quot;:null}" fill="#f44a7d" stroke-width="0"/><path d="M245.58762,183.36388l-0.09374,-0.50379l0.50379,-0.09374l0.09374,0.50379z" data-paper-data="{&quot;index&quot;:null}" fill="#baba3e" stroke-width="NaN"/><path d="M246.21798,182.60993l-0.09374,-0.50379l0.50379,-0.09374l0.09374,0.50379z" data-paper-data="{&quot;index&quot;:null}" fill="#baba3e" stroke-width="NaN"/><path d="M246.90106,181.77918l-0.09374,-0.50379l0.50379,-0.09374l0.09374,0.50379z" data-paper-data="{&quot;index&quot;:null}" fill="#baba3e" stroke-width="NaN"/><path d="M247.98178,181.06878l-0.32614,-0.17735l-0.16292,-0.34499l0.60424,-0.06413z" data-paper-data="{&quot;index&quot;:null}" fill="#baba3e" stroke-width="0"/><g stroke-width="0"><path d="M242.81359,181.9729c-0.88737,-0.58836 -0.59225,-1.25623 -0.10322,-1.96889c0.48905,-0.71265 0.99641,-1.21429 1.87422,-0.61193c0.87777,0.60237 0.59225,1.25623 0.10322,1.96889c-0.48905,0.71265 -0.98703,1.20015 -1.87422,0.61193z" data-paper-data="{&quot;index&quot;:null}" fill="#fed000"/><path d="M242.54538,182.36376c-0.72882,-0.47329 -0.29031,-1.30638 0.34688,-2.23494c0.63719,-0.92856 1.24425,-1.61919 1.96055,-1.12764c0.71631,0.49154 0.29031,1.30638 -0.34688,2.23494c-0.63719,0.92856 -1.23189,1.60082 -1.96055,1.12764z" data-paper-data="{&quot;index&quot;:null}" fill="#e68b9c"/></g></g><g data-paper-data="{&quot;index&quot;:null}"><path d="M237.34741,170.9982c0,0 0.61428,-0.67763 1.40385,-0.77237c0.70463,-0.08455 1.01873,0.11184 1.4772,0.6228c0.69451,0.774 0.31034,2.11962 0.31034,2.11962c0,0 0.34362,-2.02697 -1.19899,-2.51496c-0.95439,-0.3019 -1.99241,0.5449 -1.99241,0.5449z" fill="#000000" stroke="none" stroke-width="0" stroke-linecap="butt" stroke-linejoin="miter"/><g data-paper-data="{&quot;index&quot;:null}" fill="none" stroke="none" stroke-width="1" stroke-linecap="butt" stroke-linejoin="miter" font-family="sans-serif" font-weight="normal" font-size="12" text-anchor="start"><g data-paper-data="{&quot;index&quot;:null}"/><g data-paper-data="{&quot;index&quot;:null}"/></g><path d="M238.4125,166.07323c3.33814,-0.01626 6.05559,2.30438 6.06962,5.18331c0.01402,2.87891 -2.68069,5.22592 -6.01883,5.24219c-3.33814,0.01627 -6.0556,-2.30436 -6.06963,-5.18329c-0.01402,-2.87892 2.68069,-5.22594 6.01884,-5.2422z" fill="#f79eb4" stroke="none" stroke-width="0" stroke-linecap="butt" stroke-linejoin="miter"/><path d="M233.16339,172.57512c-0.0002,-0.0007 0.20302,1.16635 0.61294,1.8118c0.40993,0.64545 1.97043,2.36214 1.97043,2.36214l0.28706,0.90977c0,0 -1.48007,-0.0505 -2.70136,-2.2139c-0.76156,-1.34026 -0.7369,-2.4009 -0.73054,-2.38481" fill="#f79eb4" stroke="#f89db5" stroke-width="0" stroke-linecap="butt" stroke-linejoin="round"/><g fill="#ffd5c5" stroke="none" stroke-width="1" stroke-linecap="round" stroke-linejoin="round"><path d="M234.09754,174.96584c0.01257,-0.05832 0.10753,0.0586 0.15071,0.09979c0.26686,0.2543 0.5609,-0.04296 0.75751,-0.19839c0.15107,-0.11938 0.39899,-0.18359 0.58753,-0.18674c0.90728,-0.00559 2.65532,0.57612 2.96915,0.58797c0.29208,0.01102 1.13826,-0.46228 1.44796,-0.56937c0.31775,-0.10988 0.58879,-0.01018 0.6373,0.02699c0.1017,0.07798 0.82254,0.57362 -0.13177,1.61088c-0.13261,0.14412 -0.97175,0.67627 -1.44439,0.73448c-0.39632,0.04877 -1.77601,0.25355 -2.82361,-0.09149c-0.83488,-0.275 -1.34395,-0.66471 -1.40892,-0.71473c-0.39704,-0.30592 -0.85657,-0.76414 -0.74148,-1.29936z"/><path d=""/></g><g fill="#000000" stroke="none" stroke-width="1" stroke-linecap="round" stroke-linejoin="round"><path d="M235.32259,175.34552c-0.10992,0.00789 -0.48956,-0.23704 -0.33228,-0.35353c0.09091,-0.06735 0.61967,-0.12844 0.76942,-0.02112c0.19702,0.14122 -0.19822,0.33795 -0.43714,0.37465z"/><path d=""/></g><path d="M242.92226,171.70842c0.02289,0.01363 -0.12598,2.30375 -0.27117,2.82727c-0.21786,0.78554 -0.57196,1.5341 -1.09857,2.15997c-0.22391,0.26608 -0.45649,0.48604 -0.72022,0.70817c-0.08537,0.07194 -0.44196,0.30809 -0.44196,0.30809c0,0 0.37795,-1.03019 0.41084,-2.6884c0.01746,-0.88057 -0.11227,-2.82866 -0.09155,-2.77575" fill="#f79eb4" stroke="#f89db5" stroke-width="0" stroke-linecap="butt" stroke-linejoin="round"/><path d="M244.29846,171.03203c0.18148,0.35858 0.08789,2.22541 -0.27466,3.58603c-0.2794,1.04855 -0.5572,1.33226 -1.05068,1.89188c-0.55889,0.63377 -0.96986,0.69922 -0.96986,0.69922c0,0 0.46153,-1.15808 0.6042,-1.93698c0.14267,-0.77889 0.42395,-3.58114 0.40924,-3.59571" fill="#f79eb4" stroke="#f89db5" stroke-width="0" stroke-linecap="butt" stroke-linejoin="round"/><g fill="#ff4488" stroke="none" stroke-width="1" stroke-linecap="round" stroke-linejoin="round"><path d="M234.25856,168.05213c0.09149,-0.11844 2.29242,-1.9188 5.04014,-1.47443c3.39643,0.5884 3.75263,4.69046 3.7502,4.68983c-0.03394,-0.00876 -0.58472,-1.57536 -1.46587,-2.25931c-1.14254,-0.88688 -1.80427,-1.40193 -3.05456,-1.6127c-1.58633,-0.26744 -3.78652,1.13418 -3.87284,1.19053"/><path d=""/></g><path d="M234.1891,170.83496c-0.03,-0.0241 -1.64632,-0.20874 -2.21279,0.00993c-1.03747,0.40047 -2.75173,1.34225 -2.77493,1.3448c-0.01619,0.00173 0.54812,-0.59041 0.86737,-1.27079c0.2613,-0.74769 1.28985,-1.28108 1.60708,-1.36207c1.78018,-0.44425 2.73075,0.15049 2.70796,0.13218" fill="#f79eb4" stroke="#f89db5" stroke-width="0" stroke-linecap="butt" stroke-linejoin="round"/><path d="M234.37533,169.69145c-0.10433,-0.08296 -1.36289,-0.93382 -2.40195,-1.1242c-0.74893,-0.13722 -2.61061,-1.08391 -2.61061,-1.08391c0,0 1.61383,0.30244 3.67054,0.20048c0.60465,0.0285 0.77305,0.09677 1.0553,0.3486c0.28225,0.25183 1.13337,1.60735 1.14286,1.69038" fill="#f79eb4" stroke="#f89db5" stroke-width="0" stroke-linecap="butt" stroke-linejoin="round"/><g stroke="none" stroke-width="1" stroke-linecap="round" stroke-linejoin="round"><g fill="#f79eb4"><path d="M238.32284,167.81574c0.04364,-0.15237 1.00783,-0.9295 1.78857,-1.30344c0.78072,-0.37392 1.54676,-0.59834 1.70792,-0.37116c0.12328,0.17376 0.18535,1.04098 0.18603,1.7173c0.00067,0.67634 -0.16192,1.29627 -0.18269,1.65519"/></g><g fill="#ffd5c5"><path d="M239.00576,167.97719c0.09892,-0.16102 0.5212,-0.54227 0.94384,-0.75308c0.42263,-0.21081 1.27751,-0.49968 1.35931,-0.39578c0.02017,0.02563 0.09302,0.77913 0.08066,1.27948c-0.01235,0.50036 -0.12631,0.8942 -0.13642,0.97911"/></g></g><g fill="#f79eb4" stroke="none" stroke-width="1" stroke-linecap="round" stroke-linejoin="round"><path d="M232.41872,169.90063c-0.00857,-0.0128 -0.4735,-0.83919 -0.61201,-1.62236c-0.08875,-0.50173 0.02499,-1.14669 0.06773,-1.17001c0.20872,-0.11376 1.03514,-0.05117 1.69963,-0.00917c0.66448,0.042 0.97783,0.11017 1.27325,0.19713"/><path d=""/></g><path d="M233.04409,173.0016c0,0 -0.50322,-0.04216 -0.89383,-0.2502c-0.39062,-0.20804 -0.88965,-0.79627 -0.88965,-0.79627c0,0 0.58083,0.44887 1.0158,0.61217c0.43498,0.1633 0.71369,0.09045 0.71369,0.09045l0.05398,0.34385z" data-paper-data="{&quot;index&quot;:null}" fill="#000000" stroke="none" stroke-width="0" stroke-linecap="butt" stroke-linejoin="miter"/><path d="M239.21158,170.883c-0.60751,0.00295 -1.79926,0.15877 -1.79926,0.15877c0,0 1.12334,-2.14103 2.64339,-1.3629c1.13734,0.5822 0.51389,2.84753 0.51389,2.84753c0,0 -0.75052,-1.64636 -1.35802,-1.6434z" fill="#e569c4" stroke="none" stroke-width="0" stroke-linecap="butt" stroke-linejoin="miter"/><path d="M233.19841,173.47332c0,0 -0.50446,0.02255 -0.91849,-0.13379c-0.41405,-0.15635 -1.19408,-0.64862 -1.19408,-0.64862c0,0 0.84333,0.34355 1.29562,0.44987c0.45229,0.10631 0.71939,-0.00161 0.71939,-0.00161l0.09755,0.33412z" data-paper-data="{&quot;index&quot;:null}" fill="#000000" stroke="none" stroke-width="0" stroke-linecap="butt" stroke-linejoin="miter"/><path d="M236.08564,173.13636c0.64435,-0.95478 0.92537,-2.6696 2.97068,-2.91409c0.44429,-0.05312 1.75498,0.52488 1.48135,2.66852c-0.09105,0.71336 -0.41007,1.7876 -1.6786,2.38369c-0.65202,0.19687 -2.19472,-0.53185 -2.87108,-0.56328c-1.18751,-0.05517 -1.01224,0.47733 -1.59806,0.45886c-0.14662,-0.00464 -0.97713,-0.86187 -1.31222,-2.0825c-0.15801,-0.57557 -0.11564,-1.41756 -0.04757,-1.41731c0.4492,0.00169 0.83668,0.93112 1.24524,1.45203c0.28575,0.36437 0.66775,0.66404 1.00466,0.63226c0.19641,-0.01852 0.39486,-0.00955 0.80563,-0.6182z" fill="#ffffff" stroke="none" stroke-width="0" stroke-linecap="butt" stroke-linejoin="miter"/><path d="M234.25054,171.85589c-0.11464,0.08484 -1.2892,0.5416 -1.51018,0.8291c-0.65214,0.85867 -1.86486,1.31757 -1.82988,1.34216c0.0016,0.00114 0.56274,-0.93524 0.58496,-1.54528c-0.0178,-0.14996 0.76798,-1.16562 1.0143,-1.31003c0.85739,-0.50267 1.78349,-0.27725 1.74298,-0.24731" fill="#f79eb4" stroke="#f89db5" stroke-width="0" stroke-linecap="butt" stroke-linejoin="round"/><g stroke="none" stroke-linecap="butt" stroke-linejoin="miter"><path d="M237.48268,172.28239c0.23257,-0.01614 0.46157,0.55355 0.51147,1.27244c0.0499,0.7189 -0.0982,1.31476 -0.33077,1.3309c-0.23256,0.01613 -0.46157,-0.55354 -0.51148,-1.27243c-0.04989,-0.71888 0.09821,-1.31476 0.33078,-1.3309z" fill="#169c5b" stroke-width="NaN"/><path d="M237.76284,173.73252c0.02082,0.30026 -0.04511,0.54942 -0.14731,0.55652c-0.1022,0.00709 -0.20193,-0.23058 -0.22277,-0.53086c-0.02082,-0.30026 0.04511,-0.54942 0.14731,-0.55652c0.1022,-0.00709 0.20193,0.23058 0.22277,0.53086z" fill="#000000" stroke-width="0"/><path d="M237.63892,173.0551c0.02109,0.30381 -0.0618,0.55697 -0.18513,0.56555c-0.12334,0.00857 -0.24042,-0.23075 -0.26151,-0.53456c-0.02109,-0.30381 0.06181,-0.55698 0.18514,-0.56556c0.12334,-0.00857 0.24041,0.23076 0.26151,0.53456z" fill="#ffffff" stroke-width="0"/></g><g stroke="none" stroke-linecap="butt" stroke-linejoin="miter"><path d="M234.34647,174.99793c-0.16405,0.01138 -0.32557,-0.39042 -0.36077,-0.8975c-0.03518,-0.50705 0.06927,-0.92733 0.23331,-0.93871c0.16405,-0.0114 0.32557,0.39042 0.36076,0.89749c0.03518,0.50706 -0.06926,0.92734 -0.2333,0.93872z" fill="#169c5b" stroke-width="NaN"/><path d="M234.4166,174.1845c0.01474,0.2118 -0.03181,0.38754 -0.1039,0.39256c-0.07209,0.00501 -0.14242,-0.16263 -0.15713,-0.37442c-0.01472,-0.21179 0.03182,-0.38753 0.10391,-0.39254c0.07209,-0.00501 0.14242,0.16262 0.15713,0.37441z" fill="#000000" stroke-width="0"/><path d="M234.14482,173.32966c0.08702,-0.00604 0.16957,0.16279 0.18446,0.37706c0.01485,0.21428 -0.0436,0.39286 -0.13059,0.3989c-0.087,0.00603 -0.16957,-0.16277 -0.18446,-0.37704c-0.01487,-0.21428 0.04358,-0.39287 0.13057,-0.39892z" fill="#ffffff" stroke-width="0"/></g><path d="M239.85818,175.97879c0,0 -0.32995,0.14985 -0.52808,0.17233c-0.19812,0.02247 -0.77207,0.03181 -0.77207,0.03181" fill="none" stroke="#000000" stroke-width="0.125" stroke-linecap="round" stroke-linejoin="miter"/><path d="M241.2306,170.88487c-0.38092,0.22533 -0.88172,0.29 -0.88172,0.29l-0.18334,-0.31079c0,0 0.48993,0.01258 0.91714,-0.17005c0.42721,-0.18264 1.00098,-0.64449 1.00098,-0.64449c0,0 -0.47219,0.60998 -0.85309,0.83533z" fill="#000000" stroke="none" stroke-width="0" stroke-linecap="butt" stroke-linejoin="miter"/><path d="M241.68565,172.0445c-0.44044,0.04358 -1.15857,-0.10714 -1.15857,-0.10714l-0.04496,-0.34691c0,0 0.63421,0.32107 1.09858,0.33574c0.46438,0.01467 1.38667,-0.27984 1.38667,-0.27984c0,0 -0.84131,0.35456 -1.28174,0.39814z" fill="#000000" stroke="none" stroke-width="0" stroke-linecap="butt" stroke-linejoin="miter"/><path d="M242.59676,170.82689c0,0 0.30972,-0.12867 0.43981,-0.01651c0.13007,0.11216 0.2256,0.54365 0.17632,0.6153c-0.04451,0.06469 -0.39984,0.10287 -0.39984,0.10287z" data-paper-data="{&quot;index&quot;:null}" fill-opacity="0.01176" fill="#f7bf74" stroke="none" stroke-width="0" stroke-linecap="butt" stroke-linejoin="miter"/><path d="M240.67832,175.05557c-0.0263,-0.09454 0.38728,-0.22799 0.92171,-0.37662c0.30516,-0.08487 1.13049,-0.32982 1.19926,-0.8406c0.08481,-0.62999 0.27199,-0.76033 0.42925,-0.74303c0.20805,0.02289 0.1256,0.27243 -0.05182,0.66673c-0.20899,0.46437 -0.82859,1.10491 -1.7941,1.34622c-0.27059,0.06764 -0.68414,0.01984 -0.70431,-0.0527z" data-paper-data="{&quot;index&quot;:null}" fill-opacity="0.01176" fill="#212121" stroke="none" stroke-width="0" stroke-linecap="butt" stroke-linejoin="miter"/><path d="M242.1534,174.76562l-0.06209,-0.22331l0.08932,-0.02485l0.06209,0.22331z" data-paper-data="{&quot;index&quot;:null}" fill-opacity="0.01176" fill="#b3916f" stroke="none" stroke-width="0" stroke-linecap="butt" stroke-linejoin="miter"/><path d="M243.09799,173.54862c0.03419,-0.1043 0.10372,-0.2614 0.10372,-0.2614c0,0 0.13835,0.15582 0.09563,0.28615c-0.04272,0.13033 -0.26335,0.32184 -0.26335,0.32184c0,0 0.02982,-0.24228 0.06401,-0.34658z" data-paper-data="{&quot;index&quot;:null}" fill-opacity="0.01176" fill="#cc7889" stroke="none" stroke-width="0" stroke-linecap="butt" stroke-linejoin="miter"/></g><g stroke="none" stroke-width="0" stroke-linecap="butt" stroke-linejoin="miter"><path d="M242.6573,170.86979c0,0 0.31073,-0.12618 0.43993,-0.01298c0.12917,0.1132 0.22126,0.54546 0.17138,0.61669c-0.04503,0.06433 -0.40064,0.09966 -0.40064,0.09966z" data-paper-data="{&quot;index&quot;:null}" fill="#f7bf74"/><path d="M241.62973,174.71373c0.30583,-0.08243 1.1331,-0.32073 1.20596,-0.83094c0.08985,-0.62929 0.27808,-0.75813 0.43519,-0.73957c0.20785,0.02457 0.12341,0.27344 -0.05718,0.6663c-0.21271,0.46269 -0.83741,1.09824 -1.80483,1.33179c-0.27112,0.06546 -0.68427,0.01434 -0.70387,-0.05836c-0.02554,-0.09476 0.3891,-0.22488 0.92471,-0.36923z" data-paper-data="{&quot;index&quot;:null}" fill="#212121"/><path d="M242.18241,174.80485l-0.06031,-0.2238l0.08951,-0.02413l0.06031,0.2238z" data-paper-data="{&quot;index&quot;:null}" fill="#b3916f"/><path d="M243.13673,173.59547c0.03502,-0.10401 0.10582,-0.26056 0.10582,-0.26056c0,0 0.13709,0.15692 0.09332,0.28691c-0.04376,0.12999 -0.26591,0.31972 -0.26591,0.31972c0,0 0.03176,-0.24204 0.06678,-0.34607z" data-paper-data="{&quot;index&quot;:null}" fill="#cc7889"/></g><g data-paper-data="{&quot;index&quot;:null}" stroke="none" stroke-width="0" stroke-linecap="butt" stroke-linejoin="miter"><g data-paper-data="{&quot;index&quot;:null}"><path d="M245.39713,166.39653c0,0 -0.03532,0.45798 -0.52878,1.48662c-0.98387,2.05085 -2.21646,2.03086 -2.21646,2.03086c0,0 -0.40976,-0.79607 0.17872,-1.7413c0.60302,-0.96854 2.56653,-1.77621 2.56653,-1.77621z" data-paper-data="{&quot;index&quot;:null}" fill="#ce204f"/><path d="M243.67646,167.43983c-0.95881,0.61835 -1.04194,2.41373 -1.04194,2.41373c0,0 -1.32483,-1.36492 0.56072,-2.63715c0.94576,-0.63813 2.23582,-0.82388 2.23582,-0.82388c0,0 -0.7958,0.42897 -1.75461,1.04732z" fill="#ff4488"/></g><g data-paper-data="{&quot;index&quot;:null}"><path d="M242.71704,170.02508c0,0 0.90757,-0.55194 1.55807,-0.61156c1.28765,-0.11793 2.48252,1.03971 2.48252,1.03971c0,0 -1.30517,0.30951 -2.14553,0.48471c-1.14679,0.23907 -1.89507,-0.9129 -1.89507,-0.9129z" fill="#f5e4ec"/><path d="M244.31951,169.54409c1.07304,-0.09829 2.06877,0.8664 2.06877,0.8664c0,0 -1.08764,0.25796 -1.78795,0.40396c-0.95568,0.19921 -1.57923,-0.76074 -1.57923,-0.76074c0,0 0.75629,-0.45996 1.29839,-0.50962z" fill="#e2c1c1"/></g></g></g></g></svg>