<svg version="1.1" xmlns="http://www.w3.org/2000/svg" xmlns:xlink="http://www.w3.org/1999/xlink" width="26.17888" height="24.49978" viewBox="0,0,26.17888,24.49978"><g transform="translate(-223.91508,-162.34939)"><g data-paper-data="{&quot;isPaintingLayer&quot;:true}" fill-rule="nonzero" stroke-miterlimit="10" stroke-dasharray="" stroke-dashoffset="0" style="mix-blend-mode: normal"><path d="" fill="#000000" stroke="none" stroke-width="1" stroke-linecap="round" stroke-linejoin="round"/><path d="" fill="#ee1a40" stroke="none" stroke-width="1" stroke-linecap="round" stroke-linejoin="round"/><g><path d="M240.76811,178.37068c0,0 -1.33401,-0.982 -2.49413,-0.55051c-1.87513,0.69747 -1.32619,3.17967 -1.32619,3.17967c0,0 -0.55715,-1.63822 0.25299,-2.63682c0.5348,-0.65923 0.91065,-0.92107 1.78606,-0.85996c0.98094,0.06847 1.78124,0.8676 1.78124,0.8676z" fill="#000000" stroke="none" stroke-width="0" stroke-linecap="butt" stroke-linejoin="miter"/><path d="M239.15001,172.3538c4.12363,-0.18507 7.59586,2.5479 7.75547,6.10423c0.15961,3.55635 -3.05385,6.58935 -7.17747,6.77442c-4.12362,0.18507 -7.59585,-2.54788 -7.75546,-6.10422c-0.15961,-3.55635 3.05384,-6.58937 7.17746,-6.77444z" fill="#f79eb4" stroke="none" stroke-width="0" stroke-linecap="butt" stroke-linejoin="miter"/><path d="M246.83637,180.14037c0.00685,-0.02025 0.02164,1.77328 -0.83653,3.47531c-1.37535,2.74688 -3.20011,2.90021 -3.20011,2.90021l0.2986,-1.14121c0,0 1.82173,-2.21603 2.28832,-3.03835c0.46657,-0.82233 0.64583,-2.27613 0.64564,-2.27525" fill="#f79eb4" stroke="#f89db5" stroke-width="0" stroke-linecap="butt" stroke-linejoin="round"/><g stroke="none" stroke-width="1" stroke-linecap="round" stroke-linejoin="round"><path d="M245.02553,183.07105c0.17502,0.65393 -0.36432,1.24808 -0.83586,1.65028c-0.07715,0.06579 -0.6819,0.57834 -1.69611,0.96929c-1.27259,0.49052 -2.98909,0.32239 -3.48155,0.28653c-0.5873,-0.04284 -1.65635,-0.64847 -1.82896,-0.81831c-1.24233,-1.22237 -0.38254,-1.87879 -0.26174,-1.98135c0.05762,-0.04889 0.38623,-0.18867 0.7854,-0.07251c0.38907,0.11322 1.46318,0.64576 1.82323,0.61419c0.38685,-0.03391 2.50994,-0.85978 3.63078,-0.90863c0.23305,-0.0077 0.54317,0.05636 0.73709,0.19452c0.25237,0.17987 0.63378,0.5289 0.94773,0.19846c0.0508,-0.05352 0.16087,-0.20377 0.17999,-0.1325z" fill="#f79eb4"/><path d="" fill="#ffd5c5"/></g><path d="M236.69256,180.12055c0.02235,-0.06662 -0.01815,2.34727 0.05752,3.43369c0.14253,2.04588 0.67262,3.29493 0.67262,3.29493c0,0 -0.45491,-0.26973 -0.56475,-0.35331c-0.33935,-0.25813 -0.64011,-0.51547 -0.933,-0.83033c-0.68884,-0.74059 -1.17214,-1.6433 -1.48949,-2.60007c-0.21148,-0.63763 -0.53609,-3.45677 -0.50866,-3.47502" fill="#f79eb4" stroke="#f89db5" stroke-width="0" stroke-linecap="butt" stroke-linejoin="round"/><path d="M233.80816,179.5568c-0.01727,0.0189 0.50233,3.4624 0.72641,4.41558c0.22407,0.95319 0.86524,2.35504 0.86524,2.35504c0,0 -0.51157,-0.05558 -1.24074,-0.80392c-0.64384,-0.66081 -1.00437,-0.9941 -1.41386,-2.27188c-0.53137,-1.65808 -1.00427,-4.1196 -0.80219,-4.5736" fill="#f79eb4" stroke="#f89db5" stroke-width="0" stroke-linecap="butt" stroke-linejoin="round"/><path d="M244.34769,176.5717c-0.02702,0.02401 1.11038,-0.76892 3.33623,-0.32968c0.39677,0.08052 1.29551,0.43346 1.66415,1.34081c0.43609,0.82067 0.7651,2.24501 0.74502,2.24387c-0.02882,-0.00173 -1.39522,-1.54463 -2.7011,-1.97544c-0.71303,-0.23523 -2.69785,0.09213 -2.73341,0.12374" fill="#f79eb4" stroke="#f89db5" stroke-width="0" stroke-linecap="butt" stroke-linejoin="round"/><path d="M243.30296,176.66552c0.00661,-0.10313 0.97445,-1.82951 1.30755,-2.15787c0.3331,-0.32836 0.53687,-0.42302 1.28189,-0.49538c2.5463,-0.00049 3.79308,1.22488 3.79308,1.22488c0,0 -1.75584,-0.09105 -2.67234,0.12446c-1.27154,0.299 -2.53099,1.10371 -2.65475,1.21258" fill="#f79eb4" stroke="#f89db5" stroke-width="0" stroke-linecap="butt" stroke-linejoin="round"/><g stroke="none" stroke-width="1"><g fill="#f79eb4" stroke-linecap="round" stroke-linejoin="round"><path d="M235.14992,176.81229c-0.0477,-0.442 -0.28661,-1.19764 -0.32736,-2.03294c-0.04073,-0.8353 -0.01737,-1.91014 0.12419,-2.13231c0.18506,-0.29047 1.14492,-0.06039 2.13211,0.35342c0.9872,0.41384 2.22574,1.31433 2.289,1.49983"/></g><g fill="none" stroke-linecap="butt" stroke-linejoin="miter" font-family="sans-serif" font-weight="normal" font-size="12" text-anchor="start"/></g><g fill="#f79eb4" stroke="none" stroke-width="1" stroke-linecap="round" stroke-linejoin="round"><path d="M243.62822,173.64507c0.3595,-0.12554 0.74229,-0.229 1.56036,-0.32171c0.81806,-0.09271 1.83485,-0.22081 2.09962,-0.09313c0.05423,0.02617 0.23432,0.81571 0.15556,1.44081c-0.12293,0.97575 -0.64632,2.02491 -0.65612,2.04125"/><path d=""/></g><path d="M242.45774,180.93377c0.5447,0.72644 0.78927,0.70317 1.03295,0.71397c0.41805,0.01853 0.8714,-0.37504 1.20192,-0.84259c0.47255,-0.66844 0.89398,-1.8401 1.44861,-1.8698c0.08406,-0.0045 0.18813,1.03276 0.02836,1.75331c-0.33882,1.52808 -1.31182,2.63781 -1.49261,2.65253c-0.72237,0.05882 -0.53864,-0.60961 -2.00182,-0.46848c-0.83338,0.08039 -2.69383,1.07518 -3.51118,0.87212c-1.60329,-0.65822 -2.06329,-1.9653 -2.21958,-2.8407c-0.46969,-2.63059 1.1135,-3.42498 1.66546,-3.38668c2.54099,0.17624 2.99345,2.27679 3.84789,3.41633z" fill="#ffffff" stroke="none" stroke-width="0" stroke-linecap="butt" stroke-linejoin="miter"/><path d="M244.58557,178.17037c-0.05187,-0.0345 1.07802,-0.36982 2.16779,0.1983c0.31307,0.16321 1.01662,0.50308 1.41404,1.07041c0.39742,0.56733 0.81741,2.11507 0.81741,2.11507c0,0 -1.64596,-0.52474 -2.50412,-1.54511c-0.2906,-0.34148 -1.68838,-0.59082 -1.83519,-0.68856" fill="#f79eb4" stroke="#f89db5" stroke-width="0" stroke-linecap="butt" stroke-linejoin="round"/><path d="M239.70962,179.07554c0.28822,0.00564 0.50774,0.73244 0.49031,1.62335c-0.01745,0.8909 -0.26527,1.60853 -0.55348,1.6029c-0.28822,-0.00564 -0.50773,-0.73243 -0.4903,-1.62333c0.01743,-0.8909 0.26525,-1.60854 0.55347,-1.60291z" fill="#f79eb4" stroke="none" stroke-width="NaN" stroke-linecap="butt" stroke-linejoin="miter"/><path d="M244.29338,180.84891c0.0123,-0.62839 0.18707,-1.13455 0.39038,-1.13058c0.2033,0.00397 0.35811,0.51661 0.34583,1.14499c-0.01231,0.62839 -0.18708,1.13456 -0.39039,1.13059c-0.2033,-0.00397 -0.35811,-0.51661 -0.34582,-1.145z" fill="#f79eb4" stroke="none" stroke-width="NaN" stroke-linecap="butt" stroke-linejoin="miter"/></g><path d="M234.91495,169.52988c0.56803,-0.90182 -0.89624,0.53291 -2.09277,0.14611c-0.26897,-0.08695 2.73886,-2.00282 3.01133,-0.41233c-0.56803,0.90182 1.93048,1.14828 2.67698,1.16837c0.37914,0.0102 0.66145,0.15475 0.72184,0.69115c0.07823,0.69482 -0.98143,1.51231 -1.15892,1.46428c-0.73872,-0.24572 0.50817,-1.23272 -0.0806,-1.67822c-0.58876,-0.44551 -2.34849,-0.25088 -2.62835,-0.3716c-0.41233,-0.17785 -0.66973,-0.65817 -0.44952,-1.00776z" data-paper-data="{&quot;index&quot;:null}" fill="#f2a948" stroke="#f7d665" stroke-width="0.25" stroke-linecap="butt" stroke-linejoin="miter"/><path d="M230.75306,171.67136c0.34314,1.20977 -1.14376,2.62102 -0.22193,2.08608c0.35735,-0.20737 0.82801,0.06728 0.99079,0.48579c0.11048,0.28405 -0.14786,2.03557 0.276,2.6401c0.42386,0.60453 1.45543,-0.60572 1.6742,0.14142c0.04155,0.1791 -0.81384,1.20842 -1.50536,1.10504c-0.53386,-0.0798 -0.66807,-0.36718 -0.66451,-0.74644c0.00701,-0.74675 -0.14866,-3.25254 -1.07049,-2.71759c-1.57956,-0.32999 0.44416,-3.26635 0.52129,-2.99439z" data-paper-data="{&quot;index&quot;:null}" fill="#f2a948" stroke="#f7d665" stroke-width="0.25" stroke-linecap="butt" stroke-linejoin="miter"/><path d="M224.64765,164.24911l1.22202,-1.20436l1.6921,-0.69536l0.02327,0.54993l1.98883,2.06233l-0.37893,1.26371l-1.42032,1.38195l-1.32198,0.36433l-1.96816,-2.04089l-0.5694,-0.06464z" data-paper-data="{&quot;index&quot;:null}" fill="#272727" stroke="none" stroke-width="0" stroke-linecap="butt" stroke-linejoin="miter"/><path d="M229.96135,165.92778c0.20324,0.21104 -0.117,1.07845 -0.117,1.07845l1.05269,1.96357l-0.64338,0.59878l-1.87239,-1.19867c0,0 -0.79575,0.22378 -0.98455,0.02774c-0.1663,-0.17267 -0.49117,-0.70057 -0.49117,-0.70057c0,0 0.86945,-0.80446 1.20353,-1.12619c0.38721,-0.3729 1.22294,-1.16396 1.22294,-1.16396c0,0 0.48667,0.37271 0.62934,0.52087z" data-paper-data="{&quot;index&quot;:null}" fill="#f2a948" stroke="#f7d665" stroke-width="0.25" stroke-linecap="butt" stroke-linejoin="miter"/><path d="M230.23275,170.45636c-0.09546,-0.09898 -0.07101,-0.77422 0.36081,-1.19064c0.43182,-0.41644 1.12708,-0.39606 1.20295,-0.31738c0.07587,0.07868 0.07101,0.77422 -0.36081,1.19064c-0.43182,0.41644 -1.12708,0.39606 -1.20295,0.31738z" data-paper-data="{&quot;index&quot;:null}" fill="#f2a948" stroke="#f7d665" stroke-width="0.25" stroke-linecap="butt" stroke-linejoin="miter"/><path d="M238.12717,172.69516c0,0 -1.45378,1.2508 -2.28568,2.02056c-0.83189,0.76975 -2.24723,2.17376 -2.24723,2.17376c0,0 -4.43847,-4.73327 -2.11111,-6.82386c2.32752,-2.09074 6.64402,2.62954 6.64402,2.62954z" data-paper-data="{&quot;index&quot;:null}" fill="#f2a948" stroke="#f7d665" stroke-width="0.25" stroke-linecap="butt" stroke-linejoin="miter"/></g></g></svg>