<svg version="1.1" xmlns="http://www.w3.org/2000/svg" xmlns:xlink="http://www.w3.org/1999/xlink" width="23.98268" height="38.60007" viewBox="0,0,23.98268,38.60007"><defs><radialGradient cx="240.18972" cy="196.4127" r="7.81069" gradientUnits="userSpaceOnUse" id="color-1"><stop offset="0" stop-color="#d6feff" stop-opacity="0"/><stop offset="1" stop-color="#d6feff" stop-opacity="0.25098"/></radialGradient></defs><g transform="translate(-231.68068,-163.59986)"><g data-paper-data="{&quot;isPaintingLayer&quot;:true}" fill-rule="nonzero" stroke-linejoin="miter" stroke-miterlimit="10" stroke-dasharray="" stroke-dashoffset="0" style="mix-blend-mode: normal"><g fill="#033397" stroke-width="0"><path d="M236.29919,172.8624c0,-2.93512 2.37938,-5.31452 5.31451,-5.31452c2.93512,0 5.31451,2.37939 5.31451,5.31452c0,2.93512 -2.37938,5.31451 -5.31451,5.31451c-2.93512,0 -5.31451,-2.37938 -5.31451,-5.31451z" stroke="none" stroke-linecap="butt"/><path d="M236.21119,172.048c0,0 0.60536,-7.15214 9.36625,-8.33564c6.0232,-0.84068 9.8224,3.30609 9.8224,3.30609c0,0 -1.56685,-0.12452 -2.89155,0.24595c-1.09069,0.30502 -2.32267,1.24577 -2.32267,1.24577c0,0 2.69329,1.17201 4.18753,4.24538c1.73435,3.56725 1.21842,6.60284 1.21842,6.60284c0,0 -1.71921,-2.05438 -3.0894,-2.99828c-0.82393,-0.5676 -2.57939,-1.04506 -2.57939,-1.04506c0,0 1.12597,1.91347 1.21686,4.21201c0.10728,2.71272 -0.89666,4.21751 -0.89666,4.21751c0,0 -1.24034,-3.0861 -2.82434,-4.52009c-1.58399,-1.43398 -3.778,-1.45699 -3.778,-1.45699" stroke="#000000" stroke-linecap="round"/></g><path d="M240.15641,178.74436c-0.06482,0.26467 -0.23836,2.61383 -0.23836,2.61383l-0.14837,2.9998l-1.01912,0.05094l0.12576,-3.13681c0,0 0.03789,-2.076 0.22337,-2.83329c0.18549,-0.7573 0.28372,-0.81955 0.56942,-0.73425c0.28572,0.08529 0.67278,0.28249 0.4873,1.03979z" data-paper-data="{&quot;index&quot;:null}" fill="#fec267" stroke="none" stroke-width="0" stroke-linecap="butt"/><g><g><path d="M236.67974,187.95171c0.01017,-0.54779 0.54044,-1.08548 0.94045,-1.82112c0.29844,-0.54884 1.0398,-0.7474 1.5224,-0.73843c1.03042,0.01913 2.07997,0.32903 2.06083,1.35943c-0.00631,0.34002 0.04211,1.04362 0.0942,1.70995c0.0514,0.65733 -0.04028,1.1252 -0.38685,1.15016c-0.44528,0.03207 -0.5075,-0.29491 -0.5075,-0.29491c0,0 -0.19082,0.35914 -0.40419,0.36905c-0.21337,0.0099 -0.55124,-0.32523 -0.55124,-0.32523c0,0 -0.23681,0.29154 -0.49526,0.30652c-0.25846,0.01497 -0.43659,-0.25101 -0.43659,-0.25101c0,0 -0.16881,0.31665 -0.49462,0.31482c-0.32581,-0.00184 -0.3963,-0.38648 -0.3963,-0.38648c0,0 -0.01556,0.29458 -0.22678,0.30345c-0.21122,0.00887 -0.04953,-0.00071 -0.1643,-0.05816c-0.09455,-0.04733 -0.55958,-1.34969 -0.55422,-1.638z" fill="#fdfdfd" stroke="none" stroke-width="0" stroke-linecap="butt"/><path d="M237.56064,189.48504c0,0 0.21883,-0.41503 0.24877,-0.79695c0.02994,-0.38193 -0.13969,-0.83586 -0.0147,-0.97396c0.2642,-0.29194 0.921,-0.28727 0.921,-0.28727" fill="none" stroke="#a4a4a4" stroke-width="0.125" stroke-linecap="round"/></g><path d="M239.40107,185.73606c-0.36684,-0.03429 -1.61531,-0.10849 -1.61842,-0.40498c0.02011,-0.28441 0.35251,-0.54809 0.35251,-0.54809c0,0 -0.39581,-0.19289 -0.33538,-0.46177c0.07839,-0.34885 1.04482,-0.4822 1.56263,-0.46408c0.51781,0.01813 1.10244,0.18917 1.26915,0.44433c0.42024,0.64322 -0.04632,0.64437 -0.04632,0.64437c0,0 0.48789,0.03155 0.35867,0.6731c-0.06367,0.31611 -1.13056,0.15569 -1.54285,0.11715z" fill="#fdfdfd" stroke="none" stroke-width="0" stroke-linecap="butt"/></g><path d="M232.76523,198.74607c-0.42224,-0.40404 0.84436,-1.57974 1.43117,-2.21706c1.56564,-1.70042 7.04191,-2.69954 9.8939,-3.28845c2.11123,-0.43595 2.69416,0.03066 2.96542,0.00727c0.79373,-0.06846 1.86107,2.19384 1.57645,2.69766c-0.0485,0.08585 -2.36636,2.05857 -3.64511,2.64272c-2.04814,0.9356 -4.23,2.52648 -5.41042,2.61172c-1.84047,0.13291 -5.27092,-0.41453 -5.27092,-0.41453c0,0 -1.11825,-1.63529 -1.54049,-2.03933z" fill="url(#color-1)" stroke-opacity="0.25098" stroke="#313040" stroke-width="2" stroke-linecap="butt"/><path d="M242.79096,177.911c0,0 1.83541,0.1402 2.5126,2.82628c0.36079,1.43106 0.00811,5.02329 0.00811,5.02329c0,0 -1.10611,-2.28168 -2.03425,-3.64839c-0.92815,-1.36671 -2.64947,-2.27748 -1.99003,-2.27748c0.65944,0 1.50358,-1.92369 1.50358,-1.92369z" fill="#02124a" stroke="none" stroke-width="0" stroke-linecap="butt"/><path d="M240.0859,191.38278l-0.69388,-8.344l1.56689,-0.06774c0,0 -0.26293,1.47251 -0.17635,3.11394c0.08657,1.64142 0.55979,4.156 0.55979,4.156z" data-paper-data="{&quot;index&quot;:null}" fill="#033397" stroke="none" stroke-width="0" stroke-linecap="butt"/><g stroke="none" stroke-width="0" stroke-linecap="butt"><path d="M233.51662,197.05469c0,0 -0.45534,-2.81891 3.72252,-3.92817c4.8336,-1.82211 5.54375,-1.32394 5.86859,-0.82513c0.82328,1.26417 0.96295,2.71796 0.96295,2.71796c0,0 -0.73192,0.52999 -1.2742,0.87276c-0.22928,0.14491 -1.13911,0.53956 -1.13911,0.53956l-0.10753,-0.39126l-1.32321,0.37644l0.05496,0.55691c0,0 -1.58678,0.47161 -2.2775,0.60291c-3.17414,0.60344 -4.48749,-0.52199 -4.48749,-0.52199z" fill="#e90023"/><path d="M233.56972,197.05189l0.32916,-1.20248l1.74659,0.38364l0.645,0.96169l-1.03158,0.95688l0.08538,-0.75864l-0.7451,-0.1878l-0.98327,0.24032l-0.04623,-0.39359z" fill="#948a92"/><path d="M240.20812,196.47536c0,0 -0.21872,-1.17299 -0.16577,-2.28137c0.05618,-1.17592 0.50822,-2.1495 0.50822,-2.1495l1.4232,-0.02145l0.11505,1.23631c0,0 -0.37822,0.89705 -0.47613,1.51525c-0.09792,0.61819 -0.05348,1.20917 -0.05348,1.20917z" fill="#deca55"/><path d="M233.64736,197.50514l-0.29523,-0.29539l0.24395,-1.3287l0.88023,-1.39687l2.10384,0.82739l0.70026,1.76274l2.90987,-1.36144l0.12724,1.28693l-3.33256,1.30826l-1.83338,-0.16236l0.19026,-1.30735l-1.373,-0.64169z" fill="#edeeee"/><g><path d="M233.89571,196.92111c0.17994,-0.29477 0.60781,-0.4034 0.99305,-0.20529c0.38524,0.19813 0.46075,0.59768 0.28081,0.89246c-0.17994,0.29477 -0.49562,0.34232 -0.93245,0.2053c-0.30686,-0.09625 -0.52135,-0.59769 -0.34141,-0.89247z" fill="#ece09c"/><path d="M234.12705,197.83212c-0.25681,-0.13209 -0.36778,-0.51968 -0.24781,-0.71619c0.11996,-0.1965 0.48599,-0.27905 0.74282,-0.14696c0.22651,0.10179 0.59229,0.40972 0.45993,0.68589c-0.12617,0.26326 -0.63752,0.36995 -0.95495,0.17726z" fill="#000000"/></g><path d="M240.0534,194.87866c0,0 -0.03494,-0.32519 -0.02531,-0.51055c0.01151,-0.22164 0.08976,-0.73001 0.08976,-0.73001l0.51487,2.69101l-0.34611,0.1418c0,0 -0.12757,-0.51719 -0.16603,-0.77978c-0.03926,-0.26805 -0.06716,-0.81247 -0.06716,-0.81247z" fill="#6a2625"/><path d="M243.81077,193.93764l0.13297,0.61075c0,0 -0.94701,0.66912 -1.04705,0.20962c-0.10005,-0.4595 0.91408,-0.82038 0.91408,-0.82038z" fill="#eac763"/><path d="M239.07685,192.3767c-0.01497,-0.4895 0.35116,-0.98715 0.35116,-0.98715c0,0 -0.50604,-0.27488 -0.47003,-0.74345c0.04672,-0.60792 1.19873,-0.97097 1.82837,-1.01218c0.62963,-0.04123 1.36135,0.16995 1.59854,0.58337c0.59792,1.04214 0.03299,1.10918 0.03299,1.10918c0,0 0.59525,-0.01403 0.52747,1.10187c-0.03341,0.54986 -1.16369,0.62697 -2.00902,0.61569c-0.84533,-0.01127 -1.81472,-0.16038 -1.85947,-0.66733z" fill="#fdfdfd"/></g><path d="M240.97783,184.03587l1.23824,-1.28246c0,0 0.00118,0.96045 0.48215,1.56001c0.57741,0.71978 2.74613,2.46427 2.74613,2.46427c0,0 -2.23903,-0.52196 -3.25715,-1.14695c-1.01813,-0.62499 -1.20936,-1.59486 -1.20936,-1.59486z" fill="#02124a" stroke="none" stroke-width="0" stroke-linecap="butt"/><path d="M238.54431,181.70755c-0.43138,-1.54049 -0.30073,-3.2912 1.03985,-3.66659c1.34058,-0.3754 3.19602,-1.70665 3.62739,-0.16616c0.25781,0.9207 -0.19901,2.50673 -0.0286,3.53088c0.30556,1.83643 -0.27374,2.31725 -1.07252,2.54092c-1.34057,0.3754 -3.13474,-0.69855 -3.56612,-2.23905z" fill="#033397" stroke="none" stroke-width="0" stroke-linecap="butt"/><path d="M238.32716,181.42394c-0.45161,-1.44876 -0.0256,-1.81025 0.43005,-2.64625c0.23104,-0.4239 1.42981,-0.55195 2.29193,0.23076c0.79564,0.72236 0.97881,4.31583 -0.14214,4.49443c-1.24907,0.199 -2.26004,-1.053 -2.57985,-2.07894z" fill="#fec267" stroke="none" stroke-width="0" stroke-linecap="butt"/><path d="M242.66945,192.53257l-1.27047,-9.06793l1.7107,-0.2297c0,0 -0.19756,1.63853 -0.00227,3.42732c0.19529,1.78879 0.86719,4.49532 0.86719,4.49532z" data-paper-data="{&quot;index&quot;:null}" fill="#033397" stroke="none" stroke-width="0" stroke-linecap="butt"/><path d="M241.95941,167.63375c0,0 1.64372,-1.34837 2.82337,-2.0609c1.17967,-0.71253 1.34119,-0.74448 1.59988,-0.58408c0.2517,0.15607 0.18614,1.38491 0.17648,2.29118c-0.00967,0.90627 -0.22167,1.94582 -0.22167,1.94582" fill="#033397" stroke="#000000" stroke-width="0.125" stroke-linecap="round"/><path d="M236.56419,171.26004c0,0 -0.84875,-1.55844 -1.11193,-2.34129c-0.22997,-0.68404 -0.67638,-2.0572 -0.38103,-2.0995c0.24647,-0.03531 1.2072,0.39345 1.73266,0.50884c0.57254,0.12574 1.57345,0.21722 1.57345,0.21722" fill="#033397" stroke="#000000" stroke-width="0" stroke-linecap="round"/><path d="M236.47577,171.12737c0,0 0.33818,1.35088 0.63976,2.18777c0.30158,0.83689 0.30418,0.86466 0.59765,1.36887c0.09348,0.16063 0.24476,-0.00745 0.24476,-0.00745c0,0 0.40263,0.54543 0.64272,0.29459c0.79869,-0.41863 1.02787,-2.34141 1.82419,-3.41323c0.80544,-1.08413 1.62289,-1.21105 1.99891,-1.25606c0.32336,-0.03871 1.04119,0.11267 1.44964,0.88483c0.28269,0.65684 0.37758,2.13024 -0.06576,2.9653c-0.44334,0.83505 -1.07334,1.77428 -2.30487,2.03529c-1.23152,0.26103 -2.33987,-1.08387 -3.45707,-0.81854c-0.13774,0.03271 -0.87176,0.58725 -0.87176,0.58725c0,0 -0.74049,-1.54326 -0.89447,-2.60829c-0.15399,-1.06504 0.19632,-2.22034 0.19632,-2.22034z" fill="#fdfdfd" stroke="#000000" stroke-width="0" stroke-linecap="butt"/><path d="M237.23305,176.1139c0.00991,-0.24284 0.26844,-0.75042 1.12196,-0.8277c0.66167,-0.06977 1.65321,0.70898 2.6248,0.74822c1.45983,0.05896 1.93397,-1.74116 3.58526,-1.26901c1.32994,0.35803 0.68094,3.29708 -3.19639,3.39707c-0.92384,-0.02422 -2.19507,-0.40457 -2.93059,-0.80345c-0.89563,-0.4857 -1.22107,-0.85199 -1.20504,-1.24514z" fill="#fec267" stroke="#000000" stroke-width="0" stroke-linecap="butt"/><path d="M236.11788,172.30689c0,0 -0.44231,-2.0172 -0.30905,-2.33792c0.20348,-0.48976 0.96279,0.06909 0.96279,0.06909" fill="#033397" stroke="#000000" stroke-width="0.125" stroke-linecap="round"/><path d="M235.96406,175.07562c0.04767,-0.13663 0.65204,0.15326 1.11519,0.30764c0.46314,0.15438 1.11519,0.22783 1.11519,0.46146c0,0.38744 -0.7438,0.36492 -1.269,0.23073c-0.83169,-0.2125 -1.11765,-0.55187 -0.96137,-0.99982z" fill="#0d1114" stroke="none" stroke-width="0" stroke-linecap="butt"/><path d="M236.95511,175.33355c0.22988,0.04286 0.40466,0.13972 0.39037,0.21635c-0.01429,0.07663 -0.21223,0.10401 -0.4421,0.06114c-0.22988,-0.04286 -0.40466,-0.13972 -0.39037,-0.21635c0.01429,-0.07663 0.21223,-0.10401 0.4421,-0.06114z" fill="#fdfdfd" stroke="none" stroke-width="0" stroke-linecap="butt"/><path d="M243.0295,167.58432c0,0 2.03726,-1.68473 2.72865,-1.50546c0.48185,0.12494 -0.09409,3.10501 -0.09409,3.10501c0,0 -0.08843,-0.4319 -1.14178,-0.96602c-0.96298,-0.48829 -1.49277,-0.63353 -1.49277,-0.63353z" fill="#fec267" stroke="none" stroke-width="0" stroke-linecap="butt"/><g stroke="none" stroke-width="0" stroke-linecap="butt"><path d="M240.39879,172.27433c0.31013,-0.04844 0.51476,0.55205 0.63371,1.31363c0.11895,0.76158 0.10717,1.39586 -0.20297,1.4443c-0.27914,0.04359 -0.51476,-0.55204 -0.63371,-1.31362c-0.11895,-0.76158 -0.07619,-1.40071 0.20297,-1.4443z" fill="#005c2d"/><path d="M240.51982,173.04903c0.11124,-0.01737 0.24043,0.21827 0.28854,0.52633c0.04811,0.30806 -0.00307,0.57187 -0.11431,0.58924c-0.11124,0.01737 -0.24043,-0.21827 -0.28854,-0.52632c-0.04811,-0.30806 0.00307,-0.57188 0.11431,-0.58924z" fill="#000000"/><path d="M240.48591,172.83212c0.11124,-0.01737 0.22418,0.11422 0.25225,0.29392c0.02806,0.17969 -0.03937,0.33945 -0.15061,0.35684c-0.11124,0.01737 -0.22418,-0.11422 -0.25224,-0.29392c-0.02806,-0.17969 0.03936,-0.33945 0.15061,-0.35684z" fill="#ffffff"/></g><g stroke="none" stroke-width="0" stroke-linecap="butt"><path d="M236.64109,173.2436c0.20417,-0.06381 0.40244,0.32038 0.55913,0.82175c0.15669,0.50138 0.21248,0.93008 0.00831,0.99389c-0.18376,0.05743 -0.40244,-0.32038 -0.55913,-0.82175c-0.15669,-0.50138 -0.19208,-0.93647 -0.00831,-0.99389z" fill="#005c2d"/><path d="M236.80049,173.75361c0.07324,-0.02289 0.18398,0.12297 0.24737,0.32577c0.06338,0.2028 0.0554,0.38577 -0.01784,0.40865c-0.07324,0.02289 -0.18398,-0.12297 -0.24737,-0.32577c-0.06338,-0.2028 -0.0554,-0.38577 0.01784,-0.40865z" fill="#000000"/><path d="M236.75588,173.61081c0.07324,-0.02289 0.16257,0.05446 0.19955,0.17277c0.03698,0.1183 0.00758,0.23276 -0.06566,0.25565c-0.07324,0.02289 -0.16257,-0.05446 -0.19955,-0.17276c-0.03698,-0.1183 -0.00758,-0.23276 0.06566,-0.25565z" fill="#ffffff"/></g><path d="M242.97909,177.10467c-0.51586,0.12294 -1.52383,0.09895 -1.52383,0.09895c0,0 0.851,-0.11371 1.30721,-0.22243c0.45621,-0.10872 1.01955,-0.57653 1.01955,-0.57653c0,0 -0.28708,0.57708 -0.80293,0.70001z" fill="#000000" stroke="#000000" stroke-width="0" stroke-linecap="butt"/><path d="M237.60106,172.30741c0.18645,0 0.43885,1.32004 0.43885,1.90733c0,0.58728 -0.30382,0.48949 -0.30382,0.48949c0,0 -0.25775,-0.43553 -0.38164,-0.71916c-0.12387,-0.28362 -0.25977,-0.7493 -0.25977,-0.7493c0,0 0.31993,-0.92835 0.50637,-0.92835z" fill="#033397" stroke="none" stroke-width="0" stroke-linecap="butt"/><g stroke="none" stroke-width="0" stroke-linecap="butt"><path d="M235.67992,197.9242c0,0 -0.48148,-2.98075 3.93624,-4.1537c5.11111,-1.92673 5.86204,-1.39996 6.20553,-0.87251c0.87054,1.33675 1.01823,2.87401 1.01823,2.87401c0,0 -0.77394,0.56042 -1.34735,0.92287c-0.24245,0.15323 -1.20451,0.57054 -1.20451,0.57054l-0.1137,-0.41372l-1.39918,0.39805l0.05812,0.58888c0,0 -1.67788,0.49868 -2.40826,0.63752c-3.35637,0.63808 -4.74513,-0.55195 -4.74513,-0.55195z" fill="#e90023"/><path d="M235.73606,197.92123l0.34806,-1.27152l1.84687,0.40567l0.68203,1.0169l-1.0908,1.01182l0.09028,-0.8022l-0.78788,-0.19858l-1.03972,0.25411l-0.04889,-0.41618z" fill="#948a92"/><path d="M242.75559,197.3116c0,0 -0.23128,-1.24034 -0.17529,-2.41235c0.0594,-1.24344 0.5374,-2.27291 0.5374,-2.27291l1.50491,-0.02268l0.12166,1.30729c0,0 -0.39993,0.94855 -0.50347,1.60224c-0.10354,0.65368 -0.05655,1.27859 -0.05655,1.27859z" fill="#deca55"/><path d="M235.81816,198.40051l-0.31218,-0.31235l0.25796,-1.40499l0.93077,-1.47707l2.22463,0.8749l0.74047,1.86395l3.07693,-1.43961l0.13455,1.36082l-3.52389,1.38338l-1.93864,-0.17168l0.20118,-1.38241l-1.45183,-0.67853z" fill="#edeeee"/><g><path d="M236.08076,197.78295c0.19027,-0.31169 0.64271,-0.42656 1.05007,-0.21708c0.40736,0.20951 0.4872,0.63199 0.29693,0.9437c-0.19027,0.31169 -0.52408,0.36197 -0.98598,0.21709c-0.32448,-0.10178 -0.55128,-0.632 -0.36101,-0.94371z" fill="#ece09c"/><path d="M236.32539,198.74626c-0.27156,-0.13968 -0.38889,-0.54952 -0.26203,-0.75731c0.12685,-0.20778 0.51389,-0.29507 0.78546,-0.1554c0.23952,0.10763 0.6263,0.43324 0.48634,0.72527c-0.13342,0.27838 -0.67413,0.3912 -1.00978,0.18744z" fill="#000000"/></g><path d="M242.59198,195.62323c0,0 -0.03695,-0.34386 -0.02676,-0.53986c0.01217,-0.23436 0.09491,-0.77193 0.09491,-0.77193l0.54443,2.84551l-0.36598,0.14994c0,0 -0.13489,-0.54688 -0.17556,-0.82455c-0.04152,-0.28344 -0.07102,-0.85912 -0.07102,-0.85912z" fill="#6a2625"/><path d="M246.56509,194.62819l0.1406,0.64581c0,0 -1.00138,0.70754 -1.10717,0.22165c-0.1058,-0.48588 0.96656,-0.86748 0.96656,-0.86748z" fill="#eac763"/><path d="M241.55937,192.97763c-0.01583,-0.51761 0.37132,-1.04382 0.37132,-1.04382c0,0 -0.53509,-0.29066 -0.49702,-0.78614c0.0494,-0.64282 1.26755,-1.02671 1.93334,-1.07029c0.66578,-0.0436 1.43951,0.17971 1.69032,0.61686c0.63225,1.10197 0.03489,1.17287 0.03489,1.17287c0,0 0.62942,-0.01484 0.55775,1.16513c-0.03533,0.58143 -1.23049,0.66297 -2.12436,0.65104c-0.89387,-0.01191 -1.91891,-0.16959 -1.96623,-0.70565z" fill="#fdfdfd"/></g><path d="M242.53132,178.11336c0.2738,-0.11465 0.37955,-0.06084 0.66033,0.69196c0.28079,0.75279 0.58177,2.86231 0.58177,2.86231l0.52303,3.18076l-1.02164,0.0474l-0.52817,-3.0391c0,0 -0.47077,-2.37435 -0.56888,-2.63745c-0.28079,-0.75279 0.07977,-0.99123 0.35358,-1.10587z" data-paper-data="{&quot;index&quot;:null}" fill="#fec267" stroke="none" stroke-width="0" stroke-linecap="butt"/><g fill="#fdfdfd" stroke="none" stroke-width="0" stroke-linecap="butt"><g><path d="M241.63972,188.86337c-0.07545,-0.54267 0.3644,-1.15654 0.64469,-1.94558c0.20913,-0.58869 0.9104,-0.90052 1.3885,-0.96699c1.02077,-0.14192 2.10583,0.00037 2.24774,1.02114c0.04684,0.33684 0.20447,1.02425 0.35992,1.6743c0.15337,0.64126 0.13583,1.1177 -0.2026,1.19644c-0.43482,0.10118 -0.54731,-0.21209 -0.54731,-0.21209c0,0 -0.13244,0.38452 -0.34163,0.42761c-0.20921,0.04309 -0.59525,-0.2352 -0.59525,-0.2352c0,0 -0.1884,0.32493 -0.44136,0.38006c-0.25296,0.05511 -0.47042,-0.17979 -0.47042,-0.17979c0,0 -0.11732,0.33912 -0.43943,0.38815c-0.32211,0.04904 -0.45177,-0.3199 -0.45177,-0.3199c0,0 0.03061,0.29339 -0.17664,0.33512c-0.20725,0.04173 -0.04903,0.00704 -0.17137,-0.03181c-0.10078,-0.03199 -0.76338,-1.24582 -0.80308,-1.53143z"/></g><path d="M243.98191,186.25013c-0.36769,0.02338 -1.61246,0.14495 -1.66179,-0.14742c-0.02452,-0.28407 0.26264,-0.5964 0.26264,-0.5964c0,0 -0.42107,-0.12875 -0.40334,-0.40376c0.02299,-0.35681 0.95676,-0.63937 1.47105,-0.70228c0.51429,-0.06291 1.11846,0.01479 1.32295,0.24082c0.51549,0.56974 0.05482,0.6437 0.05482,0.6437c0,0 0.48684,-0.04497 0.45932,0.60886c-0.01356,0.32217 -1.09241,0.33023 -1.50565,0.35652z"/></g></g></g></svg>