<svg version="1.1" xmlns="http://www.w3.org/2000/svg" xmlns:xlink="http://www.w3.org/1999/xlink" width="38" height="31.61914" viewBox="0,0,38,31.61914"><g transform="translate(-217.3779,-163.30539)"><g data-paper-data="{&quot;isPaintingLayer&quot;:true}" fill-rule="nonzero" stroke-linejoin="miter" stroke-miterlimit="10" stroke-dasharray="" stroke-dashoffset="0" style="mix-blend-mode: normal"><path d="M244.68759,185.99108c0.22217,0.64428 0.93723,1.2338 0.78281,1.86303c-0.11534,0.47061 -0.89235,0.59664 -1.3111,0.34627c-0.50058,-0.30686 -0.58683,-1.13717 -0.77945,-1.72357c-0.13687,-0.41983 -0.33429,-0.90508 -0.21694,-1.31932c0.15739,-0.68292 0.50067,-1.93594 1.15006,-0.65597c0.14466,0.43904 0.20994,1.01329 0.37462,1.48955z" data-paper-data="{&quot;index&quot;:null}" fill="#005613" stroke="none" stroke-width="0.65663" stroke-linecap="round"/><path d="M248.58741,191.59557c-0.33238,0.49467 -0.79902,0.91974 -1.40099,1.22639c-0.71707,0.3647 -1.4629,0.59963 -1.93786,0.15941c-0.83719,-0.77489 -0.79198,-1.80185 -1.01335,-2.26549c-0.22137,-0.46363 -0.34172,-0.87455 -0.73982,-1.20403c-0.39809,-0.32948 -0.77564,-0.99277 -0.69968,-1.22101c0.10707,-0.32096 0.07736,-0.08382 0.63443,-0.47137c0.55707,-0.38756 0.85072,-0.56952 1.56956,-0.92203c0.71883,-0.35252 0.22476,-0.13106 0.69012,-0.24182c0.13617,-0.01885 0.67116,0.34342 0.93467,0.5635c0.26351,0.22008 0.29083,0.43193 0.55504,0.68068c0.26421,0.24874 0.56486,0.38986 0.75053,0.54852c0.5035,0.45948 1.81293,1.27773 1.58684,1.75586c-0.41956,0.99602 -1.64016,-0.2286 -1.67491,-0.11419c-0.03489,0.11575 0.66332,-0.05951 1.05745,0.67099c0.1511,0.39174 -0.05092,0.39953 -0.31204,0.83459z" data-paper-data="{&quot;index&quot;:null}" fill="#a8c8d8" stroke="none" stroke-width="0.67216" stroke-linecap="round"/><g data-paper-data="{&quot;index&quot;:null}"><path d="M230.44464,188.72346c-0.35438,1.27794 -0.34301,4.54667 -0.34301,4.54667c0,0 -0.62391,0.20671 -0.59016,-1.03868c0.01955,-0.72129 0.27647,-2.48342 0.62787,-3.63715c0.42124,-1.38303 1.77475,-3.88319 1.77475,-3.88319l0.82466,-0.01376c0,0 -2.0415,3.11502 -2.29411,4.02611z" fill="#989898" stroke="#989898" stroke-width="0" stroke-linecap="round"/><path d="M234.00148,186.53515c0.14762,0.84919 -0.25373,3.06645 -0.25373,3.06645l-2.97173,-1.84899c0,0 0.68411,-1.7509 1.34038,-2.6463c0.3119,-0.42527 0.71212,-0.61916 1.30367,0.00197c0.41612,0.43694 0.48431,0.87302 0.58141,1.42688z" fill="#f82020" stroke="none" stroke-width="1.13968" stroke-linecap="round"/><path d="M230.82929,187.67812c0,0 2.77314,0.48411 2.93,1.78643c0.08035,0.73159 -0.91116,2.6905 -1.39049,3.20748c-0.4824,0.5199 -1.7111,0.75394 -2.29527,0.65722c-0.34315,-0.05676 -0.25802,-0.80444 -0.22983,-1.24295c0.07173,-1.0936 0.2929,-2.38468 0.55577,-3.34357c0.26287,-0.9589 0.42984,-1.06462 0.42984,-1.06462z" fill="#f8f8f8" stroke="none" stroke-width="1.15102" stroke-linecap="round"/><path d="M235.82098,186.77156c-0.02075,0.36726 0.01303,2.12804 -0.26141,2.60667c-0.21155,0.36895 -0.80402,-0.15608 -0.80402,-0.15608c0,0 -0.59346,0.20503 -0.71663,0.19807c-0.46434,-0.02624 -0.13755,-1.32931 -0.08752,-2.21445c0.01001,-0.17701 -0.20965,-1.04805 -0.11821,-1.55457c0.05441,-0.30144 0.05857,-0.58383 0.45751,-0.79936c0.41088,-0.22198 0.55204,0.40734 0.55204,0.40734c0,0 0.42708,-0.6479 0.92319,-0.11856c0.43675,0.466 0.07924,1.20303 0.05506,1.63094z" fill="#ffffff" stroke="none" stroke-width="0" stroke-linecap="butt"/></g><path d="M236.9932,186.05225c0.36,-0.4811 -0.0547,-1.3017 0.3044,-1.7794c0.2006,-0.268 0.8477,-0.3606 1.004,-0.0852c0.3957,0.7044 0.3791,1.6079 0.3326,2.4196c-0.0254,0.4538 -0.1931,0.9526 -0.5726,1.1504c-0.6184,0.3308 -1.4755,0.5232 -2.1297,0.1995c-0.4199,-0.2025 -0.5774,-0.9612 -0.3455,-1.4122c0.2293,-0.439 1.1007,-0.0853 1.4068,-0.4927z" data-paper-data="{&quot;index&quot;:null}" fill="#e88820" stroke="none" stroke-width="0.49091" stroke-linecap="round"/><path d="M233.35492,187.30536c0.13406,-1.37419 0.1136,-2.38915 0.46162,-2.3552c0.12685,0.01237 0.12641,1.08111 -0.00765,2.4553c-0.13406,1.37418 -0.08664,2.11267 -0.21349,2.1003c-0.34801,-0.03394 -0.37454,-0.82622 -0.24048,-2.20041z" data-paper-data="{&quot;index&quot;:null}" fill="#424242" stroke="none" stroke-width="0" stroke-linecap="butt"/><path d="M235.54856,186.87648c0.3771,-0.4679 -0.0078,-1.3029 0.3682,-1.7673c0.2101,-0.2607 0.8601,-0.3299 1.0064,-0.0491c0.3701,0.7182 0.321,1.6205 0.2454,2.43c-0.0417,0.4526 -0.2273,0.945 -0.6136,1.1291c-0.6298,0.3083 -1.4933,0.4698 -2.1355,0.1227c-0.4123,-0.2175 -0.5424,-0.9813 -0.2945,-1.4236c0.245,-0.4305 1.1031,-0.0457 1.4236,-0.4418z" data-paper-data="{&quot;index&quot;:null}" fill="#f8b820" stroke="none" stroke-width="0.49091" stroke-linecap="round"/><path d="M241.82981,189.7365c-0.127,0.4676 -0.9069,0.5743 -1.3193,0.3136c-0.4928,-0.3192 -0.5621,-1.1653 -0.7364,-1.7424c-0.1258,-0.4231 -0.1607,-0.8977 -0.1841,-1.3243c-0.0497,-0.9228 -0.289,-1.9445 0.0614,-2.753c0.1681,-0.3722 0.9131,-0.2871 1.1046,0.0697c0.3086,0.5757 -0.0663,1.3758 0,2.0561c0.0503,0.5164 0.1847,1.0182 0.3375,1.4984c0.2061,0.6496 0.9063,1.2567 0.7363,1.8819z" data-paper-data="{&quot;index&quot;:null}" fill="#089c4e" stroke="none" stroke-width="0.65663" stroke-linecap="round"/><path d="M242.45486,194.7479c-0.77299,0.2229 -1.54976,0.31295 -1.93316,-0.20895c-0.676,-0.9189 -0.4379,-1.9189 -0.56785,-2.41596c-0.12995,-0.49707 -0.17064,-0.92333 -0.49945,-1.32197c-0.32881,-0.39864 -0.57448,-1.12123 -0.45683,-1.33106c0.1657,-0.29499 0.0918,-0.06772 0.71197,-0.34325c0.62017,-0.27553 0.94287,-0.39884 1.71529,-0.60944c0.77242,-0.2106 0.24545,-0.0863 0.72335,-0.1073c0.13727,0.00717 0.59434,0.46384 0.81161,0.72967c0.21728,0.26583 0.20414,0.47902 0.41669,0.77315c0.21255,0.29413 0.48119,0.48942 0.6336,0.68025c0.4078,0.5462 1.53938,1.59674 1.22718,2.02364c-0.59989,0.89901 -1.56761,-0.26718 -1.62331,-0.16138c-0.0561,0.1071 0.66265,-0.20001 0.91192,0.59172c0.0745,0.4132 -0.12536,0.38275 -0.46386,0.76075c-0.41971,0.4231 -0.95815,0.75253 -1.60715,0.94013z" data-paper-data="{&quot;index&quot;:null}" fill="#ffffff" stroke="none" stroke-width="0.67216" stroke-linecap="round"/><path d="M234.72924,175.14448c0,-1.70864 -2.43331,-4.33621 -2.51236,-5.2306c-0.09865,-1.11609 3.11029,-0.02077 3.11029,-0.02077c0,0 3.07861,-0.19222 2.87875,0.62371c-0.18121,0.73975 -2.3331,3.03621 -2.3331,5.04466c0,5.97059 0.32063,6.9421 0.32063,6.9421c0,0 -0.08485,0.49691 -0.30752,-0.07576c-0.35754,-0.91952 -1.15669,-3.60412 -1.15669,-7.28335z" data-paper-data="{&quot;index&quot;:null}" fill="#e2a026" stroke="none" stroke-width="0" stroke-linecap="butt"/><path d="M238.31108,175.35293c0,3.45674 -0.88422,6.06914 -1.29197,7.04764c-0.29653,0.7116 -0.26929,0.21858 -0.26929,0.21858c0,0 0.21456,-0.87861 0.21456,-6.84921c0,-2.00845 -1.93709,-4.95512 -2.15048,-5.69487c-0.23536,-0.81593 3.08336,0.02651 3.08336,0.02651c0,0 2.29167,-0.81665 2.1755,0.29943c-0.0931,0.89439 -1.76167,3.2433 -1.76167,4.95194z" data-paper-data="{&quot;index&quot;:null}" fill="#e2a026" stroke="none" stroke-width="0" stroke-linecap="butt"/><path d="M236.4611,185.86923c-0.97535,-0.8409 -1.1538,-1.81247 -0.88439,-2.93127c0.12106,-0.4123 0.98027,-0.80934 1.78555,-0.92624c0.94398,-0.1296 2.06949,-0.07219 2.94861,0.17571c1.57511,0.4442 3.11428,0.9734 4.49121,1.62c0.34407,0.1615 0.24557,0.3495 0.12041,0.4909c-0.47804,0.6058 -0.93434,1.3112 -1.84467,1.6445c-0.91277,0.3334 -2.10525,0.2435 -3.16802,0.2455c-0.67805,0.00287 -1.51541,0.37747 -2.22796,0.33358c-0.50197,-0.03093 -0.94199,-0.41346 -1.22073,-0.65269z" data-paper-data="{&quot;index&quot;:null}" fill="#089c4e" stroke="none" stroke-width="0.49091" stroke-linecap="round"/><path d="M237.64657,184.28488c0.1229,0.88547 0.27895,2.33835 -0.01692,2.33835c-0.29586,0 -0.23527,-1.34151 -0.35902,-2.23308c-0.12375,-0.89157 -0.5609,-2.26316 -0.26504,-2.26316c0.29586,0 0.51808,1.27242 0.64097,2.15789z" data-paper-data="{&quot;index&quot;:null}" fill="#000000" stroke="#000000" stroke-width="0" stroke-linecap="butt"/><path d="M241.41563,186.55268c-0.23545,0 -0.42632,-0.19087 -0.42632,-0.42632c0,-0.23544 0.19087,-0.42631 0.42632,-0.42631c0.23544,0 0.42631,0.19086 0.42631,0.42631c0,0.23545 -0.19086,0.42632 -0.42631,0.42632z" data-paper-data="{&quot;index&quot;:null}" fill="#ffffff" stroke="none" stroke-width="0" stroke-linecap="butt"/><path d="M242.68229,186.41934c-0.23545,0 -0.42632,-0.19086 -0.42632,-0.42631c0,-0.23545 0.19087,-0.42632 0.42632,-0.42632c0.23545,0 0.42632,0.19087 0.42632,0.42632c0,0.23544 -0.19087,0.42631 -0.42632,0.42631z" data-paper-data="{&quot;index&quot;:null}" fill="#ffffff" stroke="none" stroke-width="0" stroke-linecap="butt"/><path d="M245.41214,185.0981l1.34103,1.42853l-1.77074,-0.89139l-0.63331,0.85923l-1.14398,-1.10255l-1.48659,0.73994l0.24846,-1.36756l-1.71141,-0.52562c0,0 2.19124,-0.1384 3.1611,-0.06081c0.77793,0.06224 2.2103,0.49052 2.2103,0.49052l0.64457,0.376z" data-paper-data="{&quot;index&quot;:null}" fill="#cf0000" stroke="none" stroke-width="0" stroke-linecap="butt"/><path d="M235.43556,182.93792c0.12287,-0.4123 1.23337,-0.75053 1.23337,-0.75053l0.5215,4.20498c0,0 -0.17282,0.05562 -0.85729,-0.52318c-0.9899,-0.8409 -1.17101,-1.81247 -0.89758,-2.93127z" data-paper-data="{&quot;index&quot;:null}" fill="#f8b820" stroke="none" stroke-width="0.49091" stroke-linecap="round"/><path d="M236.3779,163.30539c10.49341,0 19,2.31852 19,5.17857c0,2.86005 -8.50659,5.17857 -19,5.17857c-10.49341,0 -19,-2.31852 -19,-5.17857c0,-2.86005 8.50659,-5.17857 19,-5.17857z" data-paper-data="{&quot;index&quot;:null}" fill-opacity="0.90196" fill="#e3a127" stroke="none" stroke-width="0" stroke-linecap="butt"/><path d="M250.69674,165.37822c3.0206,0.99642 4.03525,3.79772 4.03525,3.79772c0,0 -2.25123,-2.29169 -3.56304,-3.05082c-0.52216,-0.30217 -3.47329,-1.10061 -3.47329,-1.10061c0,0 2.34365,0.64735 3.25062,1.22854c0.90697,0.58119 1.8555,2.0435 1.8555,2.0435c0,0 -1.7828,-1.25416 -2.56834,-1.6461c-0.78553,-0.39194 -2.13721,-0.70173 -2.13721,-0.70173c0,0 1.11473,0.42764 1.52888,0.73151c0.41416,0.30387 0.84434,1.00973 0.84434,1.00973c0,0 -0.81153,-0.34711 -1.25743,-0.51841c-0.4459,-0.1713 -1.15398,-0.40797 -1.15398,-0.40797c0,0 0.55354,0.44658 0.78255,0.69684c0.229,0.25026 0.50349,0.70855 0.50349,0.70855l-1.48855,-0.54908l-1.20678,-0.22575c0,0 0.57478,0.27611 0.75648,0.40827c0.1817,0.13216 0.3887,0.42469 0.3887,0.42469c0,0 -0.32228,-0.08112 -0.50452,-0.0885c-0.18224,-0.00738 -0.46476,0.04925 -0.46476,0.04925l0.42549,0.65059l-0.96779,-0.10011l0.17909,0.57442l-1.07057,-0.21341l0.64872,-0.26875l-0.5525,-0.2684c0,0 0.34669,-0.04679 0.51264,-0.04521c0.22312,0.00211 0.8373,0.12043 0.8373,0.12043c0,0 -0.2943,-0.29408 -0.45754,-0.42104c-0.12851,-0.09994 -0.4429,-0.27922 -0.4429,-0.27922c0,0 0.33993,-0.09229 0.5832,-0.08193c0.24327,0.01035 0.60963,0.13274 0.60963,0.13274c0,0 -0.19933,-0.19129 -0.44798,-0.38306c-0.24865,-0.19177 -0.65486,-0.46749 -0.65486,-0.46749c0,0 0.70167,-0.05934 1.14476,-0.00334c0.44309,0.056 1.10758,0.28799 1.10758,0.28799c0,0 -0.47609,-0.47508 -0.73362,-0.66122c-0.23093,-0.16692 -0.77671,-0.49106 -0.77671,-0.49106c0,0 0.64446,0.01006 1.16764,0.12987c0.52317,0.11981 1.30425,0.43622 1.30425,0.43622c0,0 -0.99572,-0.56809 -1.57594,-0.81954c-0.51053,-0.22125 -1.72312,-0.61022 -1.72312,-0.61022c0,0 1.54101,-0.03171 2.23596,0.13197c0.81915,0.19294 2.36791,0.9524 2.36791,0.9524c0,0 -1.72517,-0.91504 -2.73645,-1.20437c-0.56826,-0.16257 -2.81139,-0.3829 -2.81139,-0.3829c0,0 1.54546,-0.3235 3.19049,-0.18933c1.04125,0.08493 2.43338,0.63946 2.50881,0.66435z" data-paper-data="{&quot;index&quot;:null}" fill="#dcdce1" stroke="none" stroke-width="0" stroke-linecap="butt"/><path d="M222.83452,171.54169c-3.09068,-0.75141 -4.32632,-3.46248 -4.32632,-3.46248c0,0 2.42746,2.10411 3.79583,2.75579c0.54467,0.25939 3.55025,0.81901 3.55025,0.81901c0,0 -2.38796,-0.45764 -3.33854,-0.96436c-0.95059,-0.50672 -2.01315,-1.8884 -2.01315,-1.8884c0,0 1.87749,1.1074 2.69188,1.4352c0.81439,0.3278 2.18654,0.52838 2.18654,0.52838c0,0 -1.14538,-0.33702 -1.58253,-0.60676c-0.43715,-0.26974 -0.92246,-0.93889 -0.92246,-0.93889c0,0 0.83671,0.28103 1.29489,0.41608c0.45818,0.13505 1.18293,0.31427 1.18293,0.31427c0,0 -0.58752,-0.40084 -0.83582,-0.63196c-0.2483,-0.23112 -0.5586,-0.66596 -0.5586,-0.66596l1.52774,0.42815l1.22098,0.12841c0,0 -0.59504,-0.2292 -0.78674,-0.34639c-0.1917,-0.11719 -0.42146,-0.39221 -0.42146,-0.39221c0,0 0.32774,0.05507 0.50999,0.04783c0.18226,-0.00723 0.45934,-0.08629 0.45934,-0.08629l-0.47621,-0.61445l0.9727,0.02232l-0.2245,-0.55824l1.08422,0.12702l-0.62512,0.31983l0.57221,0.22331c0,0 -0.34182,0.07439 -0.50737,0.08611c-0.22257,0.01576 -0.84425,-0.05302 -0.84425,-0.05302c0,0 0.31689,0.26959 0.48978,0.38307c0.1361,0.08933 0.46384,0.24286 0.46384,0.24286c0,0 -0.33145,0.11921 -0.57477,0.12836c-0.24332,0.00915 -0.6183,-0.08351 -0.6183,-0.08351c0,0 0.21401,0.17473 0.47721,0.34597c0.26321,0.17125 0.69019,0.41357 0.69019,0.41357c0,0 -0.69466,0.11532 -1.14082,0.09497c-0.44615,-0.02035 -1.12708,-0.1984 -1.12708,-0.1984c0,0 0.5126,0.43544 0.7842,0.60037c0.24355,0.14789 0.81353,0.42731 0.81353,0.42731c0,0 -0.64321,0.04156 -1.17429,-0.03598c-0.53108,-0.07754 -1.33499,-0.33041 -1.33499,-0.33041c0,0 1.038,0.48654 1.63649,0.69074c0.52661,0.17968 1.76644,0.47033 1.76644,0.47033c0,0 -1.53351,0.15498 -2.23934,0.04745c-0.83197,-0.12674 -2.43656,-0.75978 -2.43656,-0.75978c0,0 1.79288,0.77399 2.82407,0.98144c0.57944,0.11657 2.83302,0.15661 2.83302,0.15661c0,0 -1.51461,0.44619 -3.1651,0.44414c-1.0447,-0.0013 -2.47676,-0.44261 -2.55394,-0.46138z" data-paper-data="{&quot;index&quot;:null}" fill="#dcdce1" stroke="none" stroke-width="0" stroke-linecap="butt"/><path d="M236.63859,163.79628c-0.37209,0.04428 0.22831,-0.18568 0.22831,-0.18568c0,0 0.79364,-0.12897 1.13765,-0.09252c0.34401,0.03645 0.8336,0.3014 0.8336,0.3014c0,0 -0.58992,0.07307 -0.90746,0.12453c-0.31754,0.05146 -0.80982,0.15374 -0.80982,0.15374c0,0 0.4735,0.07226 0.69159,0.14027c0.21809,0.06801 0.53316,0.24167 0.53316,0.24167l-1.05235,0.18502l-0.77878,0.27766c0,0 0.42807,-0.03414 0.5786,-0.01882c0.15053,0.01532 0.37015,0.1154 0.37015,0.1154c0,0 -0.21504,0.06202 -0.32359,0.1195c-0.10856,0.05748 -0.25378,0.18619 -0.25378,0.18619l0.46813,0.23439l-0.59712,0.26978l0.29892,0.27356l-0.69534,0.23869l0.28642,-0.37628l-0.4125,0.03108c0,0 0.1859,-0.14474 0.283,-0.20007c0.13056,-0.0744 0.52808,-0.21372 0.52808,-0.21372c0,0 -0.27094,-0.07138 -0.40897,-0.08993c-0.10866,-0.0146 -0.35238,-0.01236 -0.35238,-0.01236c0,0 0.16653,-0.16893 0.31161,-0.24536c0.14508,-0.07643 0.39976,-0.12938 0.39976,-0.12938c0,0 -0.18083,-0.04376 -0.39053,-0.07107c-0.20969,-0.02731 -0.53954,-0.05008 -0.53954,-0.05008c0,0 0.3882,-0.27236 0.66504,-0.38996c0.27684,-0.1176 0.74216,-0.20782 0.74216,-0.20782c0,0 -0.43808,-0.1151 -0.65104,-0.13613c-0.19097,-0.01886 -0.61845,-0.0225 -0.61845,-0.0225c0,0 0.37844,-0.21259 0.72351,-0.3202c0.34507,-0.10761 0.90685,-0.18823 0.90685,-0.18823c0,0 -0.772,0.00692 -1.19488,0.05725z" data-paper-data="{&quot;index&quot;:null}" fill="#dcdce1" stroke="none" stroke-width="0" stroke-linecap="butt"/><g data-paper-data="{&quot;index&quot;:null}"><path d="M231.50372,185.57675c0,0 -1.86246,3.22525 -2.06326,4.14915c-0.2817,1.2959 -0.0859,4.55878 -0.0859,4.55878c0,0 -0.61125,0.24159 -0.64783,-1.00372c-0.02118,-0.72125 0.13589,-2.49507 0.42163,-3.66679c0.34253,-1.4046 1.5528,-3.97715 1.5528,-3.97715l0.82257,-0.06027z" fill="#989898" stroke="#989898" stroke-width="0" stroke-linecap="round"/><path d="M232.86816,187.34037c0.1953,0.8395 -0.08029,3.07588 -0.08029,3.07588l-3.07133,-1.67835c0,0 0.58422,-1.78672 1.18892,-2.71772c0.2874,-0.4422 0.67604,-0.65836 1.3017,-0.0716c0.44011,0.41276 0.5328,0.8443 0.661,1.3918z" fill="#f82020" stroke="none" stroke-width="1.13968" stroke-linecap="round"/><path d="M229.76553,188.66051c0,0 2.79604,0.32684 3.02614,1.61824c0.1215,0.7259 -0.75788,2.73764 -1.20728,3.28084c-0.4523,0.5463 -1.66583,0.8493 -2.25453,0.7857c-0.3458,-0.0373 -0.303,-0.7886 -0.2996,-1.228c0.0099,-1.0959 0.15786,-2.39741 0.3662,-3.3696c0.20834,-0.9722 0.36908,-1.08718 0.36908,-1.08718z" fill="#f8f8f8" stroke="none" stroke-width="1.15102" stroke-linecap="round"/><path d="M234.69812,187.47374c0,0.36784 0.1331,2.12391 -0.1139,2.61727c-0.1904,0.38031 -0.81155,-0.11046 -0.81155,-0.11046c0,0 -0.58095,0.2382 -0.70432,0.2382c-0.46508,0 -0.21234,-1.31943 -0.21234,-2.20599c0,-0.1773 -0.26846,-1.03455 -0.20575,-1.54542c0.03732,-0.30402 0.02553,-0.5862 0.41167,-0.8239c0.3977,-0.24482 0.57415,0.37554 0.57415,0.37554c0,0 0.38985,-0.67097 0.91503,-0.17047c0.46234,0.44061 0.147,1.19663 0.147,1.62523z" fill="#ffffff" stroke="none" stroke-width="0" stroke-linecap="butt"/></g><path d="M238.20211,172.16676c0.47618,-1.42479 1.197,-3.189 1.8,-3.35c0.508,-0.135 3.31333,3.48133 3.78333,3.63333c0.795,0.258 0.98333,0.1 1.78333,-0.05c0.683,-0.18 1.73735,-1.05413 2.43333,-1.6c0.69598,-0.54587 1.654,-1.63467 1.8,-1.06667c0.329,0.67367 -0.07521,1.84975 -0.35,3.05c-0.27479,1.20025 -0.631,2.068 -0.7,2.75c-0.186,1.807 0.423,4.85167 -0.65,6.31667c-0.908,1.238 -3.076,1.091 -4.65,0.95c-1.949,-0.174 -4.571,-0.133 -5.6,-1.8c-1.209,-1.96 -0.05,-5.68333 -0.05,-5.68333c0,0 -0.07618,-1.72521 0.4,-3.15z" data-paper-data="{&quot;index&quot;:null}" fill="#f8b820" stroke="none" stroke-width="1" stroke-linecap="round"/><path d="M247.6315,177.10008c0.1221,-0.318 0.5774,-0.554 0.7765,-0.3c0.2972,0.378 0.2887,1.086 0.2823,1.65c0.0064,1.027 0.0459,2.137 -0.2823,3.05c-0.1115,0.31 -0.5661,0.024 -0.7059,-0.3c-0.228,-0.531 -0.1659,-1.229 -0.1765,-1.85c-0.0127,-0.747 -0.1207,-1.559 0.1059,-2.25z" data-paper-data="{&quot;index&quot;:null}" fill="#ffffff" stroke="none" stroke-width="0.86553" stroke-linecap="round"/><path d="M239.10368,174.65935c-0.2362,-0.14613 0.70663,-4.86656 1.01403,-4.98336c0.273,-0.10157 1.5705,1.31006 1.8029,1.76935c0.2214,0.43774 0.8775,0.97541 0.8122,1.46671c-0.02652,0.1855 -0.89015,0.28249 -1.62826,0.63523c-0.73811,0.35274 -1.88251,1.18473 -2.00088,1.11208z" data-paper-data="{&quot;index&quot;:null}" fill="#ffffff" stroke="none" stroke-width="0.85185" stroke-linecap="butt"/><path d="M242.7021,180.19909c-0.0133,-0.6487 -0.0151,-1.3321 0.1778,-1.9389c0.1253,-0.4046 0.4613,-0.7169 0.7555,-0.9957c0.2143,-0.1844 0.4889,-0.3259 0.7556,-0.4192c0.2587,-0.0881 0.4729,-0.1038 0.7111,-0.1048c0.1991,-0.0011 0.4471,-0.0839 0.4889,0.1048c0.2382,0.4915 0.208,1.0764 0.2222,1.6245c0.0329,1.2776 0.3298,2.7177 -0.0889,3.9303c-0.1858,0.5377 -0.9315,0.4444 -1.4222,0.4716c-0.4551,0.0095 -1.0711,0.0702 -1.3333,-0.3668c-0.3796,-0.633 -0.2507,-1.5092 -0.2667,-2.3058z" data-paper-data="{&quot;index&quot;:null}" fill="#ffffff" stroke="none" stroke-width="0.97175" stroke-linecap="round"/><path d="M241.15467,181.45014c0.672,0.513 1.28,0.79933 2.1,0.93333c0.835,0.149 1.83175,0.06722 2.58333,-0.33333c0.85,-0.453 2.17033,-0.67633 2.93333,-0.13333c0.437,0.311 0.07158,1.64383 -0.44242,1.97083c-0.82947,0.78885 -1.91237,1.1208 -2.66818,1.1875c-0.83269,0.04276 -2.04603,-0.07357 -2.91571,-0.2591c-0.86968,-0.18553 -1.70434,-0.654 -2.10702,-0.8659c-0.36488,-0.19222 -3.60484,-0.2229 -3.60484,-0.2229l1.54318,-0.49924l-1.87382,-1.12588c0,0 1.91152,-0.10182 1.78548,-0.20198c-0.674,-0.536 -1.64757,-0.59382 -1.64757,-0.59382c0,0 1.2169,-0.02585 1.7809,-0.32285c0.286,-0.15 -0.42689,-1.02618 -0.68389,-1.30618c-0.339,-0.37 2.20123,0.99785 3.21723,1.77285z" data-paper-data="{&quot;index&quot;:null}" fill="#f8f8f8" stroke="none" stroke-width="1" stroke-linecap="round"/><path d="M248.87988,181.94427c0.23535,0.12162 -0.44373,0.70806 -0.80265,0.70806c-0.35892,0 -0.86369,-0.58644 -0.62833,-0.70806c0.23535,-0.12162 0.26942,-0.19695 0.62833,-0.19695c0.35892,0 0.5673,0.07534 0.80265,0.19695z" data-paper-data="{&quot;index&quot;:null}" fill="#101010" stroke="none" stroke-width="1" stroke-linecap="butt"/><path d="M243.4869,183.97739l1.7512,0.778" data-paper-data="{&quot;index&quot;:null}" fill="none" stroke="#cccccc" stroke-width="0.36953" stroke-linecap="round"/><path d="M245.2966,179.27411c0.1613,0 0.3067,0.1486 0.4129,0.3885c0.1051,0.241 0.1709,0.5722 0.1709,0.9384c0,0.3662 -0.0658,0.6974 -0.1709,0.9384c-0.1062,0.2399 -0.2516,0.3885 -0.4129,0.3885c-0.1614,0 -0.3068,-0.1486 -0.413,-0.3885c-0.105,-0.241 -0.1709,-0.5722 -0.1709,-0.9384c0,-0.3662 0.0659,-0.6974 0.1709,-0.9384c0.1062,-0.2399 0.2516,-0.3885 0.413,-0.3885z" data-paper-data="{&quot;index&quot;:null}" fill="#4088ed" stroke="none" stroke-width="1.0615" stroke-linecap="butt"/><path d="M245.2824,179.69749c0.108,0 0.2055,0.0928 0.2761,0.243c0.0711,0.1501 0.1146,0.3571 0.1146,0.5859c0,0.2288 -0.0435,0.4358 -0.1146,0.586c-0.0706,0.1501 -0.1681,0.243 -0.2761,0.243c-0.108,0 -0.2056,-0.0929 -0.2762,-0.243c-0.0711,-0.1502 -0.1146,-0.3572 -0.1146,-0.586c0,-0.2288 0.0435,-0.4358 0.1146,-0.5859c0.0706,-0.1502 0.1682,-0.243 0.2762,-0.243z" data-paper-data="{&quot;index&quot;:null}" fill="#000000" stroke="none" stroke-width="0.47368" stroke-linecap="butt"/><path d="M245.3522,179.94365c0.0491,0 0.0938,0.0382 0.1255,0.0996c0.0323,0.0615 0.0523,0.1462 0.0523,0.24c0,0.0938 -0.02,0.1785 -0.0523,0.24c-0.0317,0.0614 -0.0764,0.0996 -0.1255,0.0996c-0.0492,0 -0.0938,-0.0382 -0.1255,-0.0996c-0.0323,-0.0615 -0.0524,-0.1462 -0.0524,-0.24c0,-0.0938 0.0201,-0.1785 0.0524,-0.24c0.0317,-0.0614 0.0763,-0.0996 0.1255,-0.0996z" data-paper-data="{&quot;index&quot;:null}" fill="#ffffff" stroke="none" stroke-width="0.64678" stroke-linecap="butt"/><path d="M248.0694,179.29921c0.1434,0 0.2727,0.1321 0.3671,0.3454c0.0934,0.2142 0.1519,0.5085 0.1519,0.8341c0,0.3255 -0.0585,0.6199 -0.1519,0.8341c-0.0944,0.2132 -0.2237,0.3453 -0.3671,0.3453c-0.1434,0 -0.2727,-0.1321 -0.367,-0.3453c-0.0934,-0.2142 -0.1519,-0.5086 -0.1519,-0.8341c0,-0.3256 0.0585,-0.6199 0.1519,-0.8341c0.0943,-0.2133 0.2236,-0.3454 0.367,-0.3454z" data-paper-data="{&quot;index&quot;:null}" fill="#4088ed" stroke="none" stroke-width="0.94355" stroke-linecap="butt"/><path d="M248.1179,179.69219c0.096,0 0.1827,0.0825 0.2455,0.216c0.0631,0.1335 0.1019,0.3175 0.1019,0.5208c0,0.2034 -0.0388,0.3874 -0.1019,0.5209c-0.0628,0.1335 -0.1495,0.216 -0.2455,0.216c-0.096,0 -0.1828,-0.0825 -0.2455,-0.216c-0.0631,-0.1335 -0.1019,-0.3175 -0.1019,-0.5209c0,-0.2033 0.0388,-0.3873 0.1019,-0.5208c0.0627,-0.1335 0.1495,-0.216 0.2455,-0.216z" data-paper-data="{&quot;index&quot;:null}" fill="#000000" stroke="none" stroke-width="0.42105" stroke-linecap="butt"/><path d="M248.2133,179.91105c0.0437,0 0.0833,0.0339 0.1115,0.0886c0.0288,0.0546 0.0466,0.1299 0.0466,0.2132c0,0.0834 -0.0178,0.1587 -0.0466,0.2133c-0.0282,0.0547 -0.0678,0.0886 -0.1115,0.0886c-0.0437,0 -0.0834,-0.0339 -0.1116,-0.0886c-0.0287,-0.0546 -0.0465,-0.1299 -0.0465,-0.2133c0,-0.0833 0.0178,-0.1586 0.0465,-0.2132c0.0282,-0.0547 0.0679,-0.0886 0.1116,-0.0886z" data-paper-data="{&quot;index&quot;:null}" fill="#ffffff" stroke="none" stroke-width="0.57492" stroke-linecap="butt"/><path d="M247.03902,175.56828l2.7453,1.21972l1.03528,3.08788l-1.5224,-2.21374l-2.57826,-1.517z" data-paper-data="{&quot;index&quot;:null}" fill="#f8b820" stroke="none" stroke-width="1.22222" stroke-linecap="round"/><path d="M246.96829,174.82079c0,0 2.73902,-0.53605 3.0397,-0.43329c0.42865,0.14647 2.06882,2.47778 2.06882,2.47778l-2.56149,-1.5427l-2.37762,0.30337z" data-paper-data="{&quot;index&quot;:null}" fill="#f8b820" stroke="none" stroke-width="1.22222" stroke-linecap="round"/><path d="M249.55046,170.04554c0,0 0.02383,1.02339 -0.18916,1.83661c-0.21298,0.81323 -0.6564,1.98157 -0.81084,1.98157c-0.30125,0 -1.90909,-0.81818 -1.90909,-0.81818z" data-paper-data="{&quot;index&quot;:null}" fill="#ffffff" stroke="none" stroke-width="0" stroke-linecap="butt"/><path d="M246.26362,173.92726c0,0 2.69504,-1.57857 3.08611,-1.66831c0.64499,-0.148 4.02358,0.93734 4.02358,0.93734c0,0 -3.3462,0.00908 -4.30931,0.21974c-0.96311,0.21066 -2.19829,1.20366 -2.19829,1.20366z" data-paper-data="{&quot;index&quot;:null}" fill="#f8b820" stroke="none" stroke-width="1.22222" stroke-linecap="round"/><path d="M242.38828,170.24495l-0.90193,1.29427l-1.58573,-0.52439c0,0 0.36597,1.87017 -0.29984,1.87017c-0.16218,0 -1.37499,-0.3165 -1.37499,-0.3165l-0.9077,1.33553l-0.92187,-1.42647l-2.29751,3.53511c0,0 0.26789,-2.53635 0.73459,-4.7697c0.3671,-1.7567 1.4863,-3.32594 2.25511,-3.32594c0.78873,0 1.93474,0.14166 3.04828,0.67803c1.3518,0.65114 2.25159,1.64989 2.25159,1.64989z" data-paper-data="{&quot;index&quot;:null}" fill="#23d892" stroke="none" stroke-width="0" stroke-linecap="butt"/><path d="M244.33501,172.81158c-2.64064,0.69469 -1.57107,0.64774 -3.37926,1.33501c-1.6061,0.61045 -2.55052,1.98678 -3.53216,1.70228c-0.46181,-0.13385 -0.14018,-1.28689 -0.14018,-1.28689l-0.4672,-1.4687l0.75165,0.67955l0.09369,-1.58626l1.87753,0.49643c0,0 0.02514,-0.61652 0.00991,-0.99685c-0.01523,-0.38033 -0.08873,-0.97129 -0.08873,-0.97129l2.12267,0.64193l0.26977,-1.56362c0,0 0.89954,0.60149 1.52716,1.06896c0.62361,0.46447 1.52415,1.79974 0.95514,1.94944z" data-paper-data="{&quot;index&quot;:null}" fill="#fd0000" stroke="none" stroke-width="0" stroke-linecap="butt"/><g data-paper-data="{&quot;index&quot;:null}" stroke-width="0" stroke-linecap="butt"><path d="M233.8645,177.02109c-0.47306,-0.07972 -0.79193,-0.52784 -0.71221,-1.0009c0.07972,-0.47306 0.52784,-0.79193 1.0009,-0.71221c0.47306,0.07972 0.79193,0.52784 0.71221,1.0009c-0.07972,0.47306 -0.52784,0.79193 -1.0009,0.71221z" fill="#db7b04" stroke="none"/><path d="M233.07212,175.97552c0.04649,-0.27592 0.52433,-0.15601 0.98188,-0.0789c0.45754,0.0771 0.90561,0.20067 0.86389,0.44825c-0.02739,0.16255 -0.46466,-0.02509 -0.92221,-0.1022c-0.45755,-0.07711 -0.95096,-0.1046 -0.92357,-0.26715z" fill="#feeb00" stroke="#000000"/><path d="M234.05855,176.38714c0.08932,0.01506 0.28891,-0.03558 0.25881,0.14305c-0.03011,0.17864 -0.22181,0.52843 -0.31113,0.51338c-0.08932,-0.01506 -0.20865,0.07826 -0.17855,-0.10037c0.0301,-0.17864 0.14155,-0.57111 0.23087,-0.55606z" fill="#000000" stroke="none"/><path d="M233.40465,176.28405c0.04697,0.00791 0.06792,0.11586 0.04682,0.24108c-0.02111,0.12522 -0.0715,0.19198 -0.11847,0.18407c-0.04697,-0.00792 -0.10072,-0.26713 -0.07962,-0.39235c0.02111,-0.12522 0.10431,-0.04072 0.15127,-0.03281z" fill="#000000" stroke="none"/></g><path d="M232.70027,185.85908c0.12744,0.00129 0.21996,1.06603 0.20591,2.44666c-0.01405,1.38064 0.09742,2.11221 -0.03002,2.11092c-0.34966,-0.00356 -0.44499,-0.79053 -0.43094,-2.17116c0.01404,-1.38064 -0.0946,-2.38998 0.25505,-2.38642z" data-paper-data="{&quot;index&quot;:null}" fill="#424242" stroke="none" stroke-width="0" stroke-linecap="butt"/></g></g></svg>