<svg version="1.1" xmlns="http://www.w3.org/2000/svg" xmlns:xlink="http://www.w3.org/1999/xlink" width="127.57522" height="143.75001" viewBox="0,0,127.57522,143.75001"><g transform="translate(-178.16421,-110.78367)"><g data-paper-data="{&quot;isPaintingLayer&quot;:true}" fill-rule="nonzero" stroke-miterlimit="10" stroke-dasharray="" stroke-dashoffset="0" style="mix-blend-mode: normal"><g data-paper-data="{&quot;index&quot;:null}" stroke-width="0" stroke-linecap="butt" stroke-linejoin="miter"><g data-paper-data="{&quot;index&quot;:null}"><path d="M265.70691,127.75177c-4.40558,0 -7.97702,-3.55836 -7.97702,-7.9478c0,-4.38944 3.57141,-7.9478 7.97702,-7.9478c4.40558,0 7.97711,3.55836 7.97711,7.9478c0,4.38944 -3.57149,7.9478 -7.97711,7.9478z" fill="#c2e266" stroke="none"/><path d="M265.9993,127.33568c-2.72184,0 -4.92824,-2.19835 -4.92824,-4.91016c0,-2.71185 2.2064,-4.91016 4.92824,-4.91016c2.72184,0 4.92824,2.19835 4.92824,4.91016c0,2.71181 -2.2064,4.91016 -4.92824,4.91016z" fill="#c2e266" stroke="#000000"/><path d="M263.96023,148.71455c0,0 -5.49565,-8.12074 -4.07017,-13.70159c1.37289,-5.37484 2.00535,-6.2128 2.00535,-6.2128l8.68101,0.06138c0,0 3.24405,4.52903 1.82254,8.79468c-1.42155,4.26565 -8.43873,11.05833 -8.43873,11.05833z" fill="#e8edf4" stroke="#000000"/><path d="M266.10988,129.79084c-2.41112,-0.01073 -5.39263,-1.47047 -5.39263,-1.47047l1.16532,-2.02207c0,0 2.63422,1.37297 4.50868,1.26669c1.87451,-0.10628 4.4686,-1.77574 4.4686,-1.77574l0.89901,2.81256c0,0 -3.53884,1.19842 -5.64903,1.18905z" fill="#dbded5" stroke="#000000"/></g><g data-paper-data="{&quot;index&quot;:null}" stroke="none"><path d="M242.61125,148.39801c0,1.72356 -0.6732,3.12085 -1.50357,3.12085c-0.83037,0 -1.50349,-1.39724 -1.50349,-3.12085c0,-1.72361 0.67311,-3.12085 1.50349,-3.12085c0.83041,0 1.50357,1.39724 1.50357,3.12085z" fill="#000000"/><path d="M235.30684,167.04955c0.86496,0 4.07207,8.86324 4.07207,8.86324c0,0 -4.33475,1.37318 -5.19971,1.37318c-0.86492,0 -2.31792,-4.98396 -2.31792,-5.74235c0,-0.75839 2.58064,-4.49403 3.4456,-4.49403z" fill="#807d5a"/><path d="M240.13078,150.57143l-0.4177,-1.28997l20.08886,-24.34271l0.54293,0.62416z" fill="#6e6e73"/><path d="M257.50481,127.01927l1.37822,1.33157l-4.84466,5.61758l-1.25295,-1.33157z" fill="#c2e266"/></g></g><g data-paper-data="{&quot;index&quot;:null}" stroke-width="0" stroke-linecap="butt" stroke-linejoin="miter"><g data-paper-data="{&quot;index&quot;:null}"><path d="M178.16421,123.87217c0,-5.63095 4.58161,-10.19572 10.23328,-10.19572c5.65171,0 10.23328,4.56481 10.23328,10.19572c0,5.63095 -4.58161,10.19568 -10.23328,10.19568c-5.65167,0 -10.23328,-4.56477 -10.23328,-10.19568z" fill="#c2e266" stroke="none"/><path d="M181.70032,127.23513c0,-3.47883 2.83056,-6.2989 6.32214,-6.2989c3.49162,0 6.3221,2.82008 6.3221,6.2989c0,3.47879 -2.83052,6.29895 -6.3221,6.29895c-3.49162,0 -6.32214,-2.82012 -6.32214,-6.29895z" fill="#c2e266" stroke="#000000"/><path d="M179.81273,146.77363c-1.82357,-5.47212 2.33807,-11.28212 2.33807,-11.28212l11.1363,-0.07871c0,0 0.81134,1.07497 2.57251,7.97001c1.82865,7.1592 -5.22134,17.57678 -5.22134,17.57678c0,0 -9.00192,-8.71391 -10.82554,-14.18599z" fill="#e8edf4" stroke="#000000"/><path d="M187.8806,136.68366c-2.70702,0.01201 -7.2467,-1.52532 -7.2467,-1.52532l1.15327,-3.6081c0,0 3.3278,2.14172 5.73245,2.27805c2.40468,0.13633 5.78392,-1.62504 5.78392,-1.62504l1.4949,2.59401c0,0 -3.82475,1.87269 -6.91778,1.88635z" fill="#dbded5" stroke="#000000"/></g><g data-paper-data="{&quot;index&quot;:null}" stroke="none"><path d="M214.66457,166.88528c0.84936,-1.75089 2.06536,-11.9306 7.39364,-11.77045c0.82699,0.02485 7.20951,5.38144 8.17774,9.7015c1.31709,5.87649 -2.87365,11.19701 -2.87365,11.19701l-12.85854,-0.08007c0,0 -0.68863,-7.29718 0.16073,-9.04803z" fill="#c2e266"/><path d="M219.95421,156.54996c1.06527,0 1.92882,1.79245 1.92882,4.00356c0,2.2111 -0.8636,4.00356 -1.92882,4.00356c-1.06523,0 -1.92874,-1.79245 -1.92874,-4.00356c0,-2.21115 0.86352,-4.00356 1.92874,-4.00356z" fill="#000000"/><path d="M215.13238,184.94852c-0.60852,-3.49818 -0.64294,-9.07473 -0.64294,-9.07473c0,0 2.3377,-1.42498 3.84159,-1.86856c1.5039,-0.44358 3.99431,-0.65627 3.99431,-0.65627l5.08187,3.23951c0,0 0.85192,12.33216 0.90512,13.91155c0.10711,3.18082 -5.78635,5.55158 -5.78635,5.55158l-4.87318,-1.99239c0,0 -1.91198,-5.61254 -2.5205,-9.11073z" fill="#20201f"/><path d="M222.172,195.85038c0,0 4.11413,-11.37008 5.22377,-11.37008c1.10964,0 4.42015,4.79224 4.42015,5.76513c0,0.97289 -1.86394,7.36657 -2.97358,7.36657c-1.10964,0 -6.67038,-1.76154 -6.67038,-1.76154z" fill="#c274a1"/><path d="M195.27619,131.25987l0.69652,-0.80074l25.7707,31.22768l-0.53579,1.6548z" fill="#6e6e73"/><path d="M204.97368,140.33456l-1.60733,1.70821l-6.21495,-7.20642l1.76806,-1.70817z" fill="#c2e266"/></g></g><g data-paper-data="{&quot;index&quot;:null}" stroke="none" stroke-width="0" stroke-linecap="butt" stroke-linejoin="miter"><g><g><path d="M266.08169,191.60474c0.35224,0.43471 0.49683,4.77284 0.27262,6.71723c-0.1225,1.06192 -0.33784,3.04193 -2.06441,3.53682c-0.44007,0.12614 -2.61556,-0.37663 -2.61556,-0.37663l-1.03411,1.38882c0,0 -0.99221,0.28154 -1.59578,0.1211c-0.60357,-0.16044 -1.52586,-0.86917 -1.52586,-0.86917c0,0 -0.67254,0.22367 -1.11203,0.47797c-1.43439,0.83 -2.32721,-0.44206 -2.32721,-0.44206c0,0 -0.97157,0.72128 -1.84821,0.74208c-1.38973,0.03302 -3.0111,-0.70605 -3.71294,-1.37095c-1.19227,-1.12945 -3.67963,-4.97294 -2.90312,-6.29057c1.20944,-2.05215 3.5459,-0.27757 3.5459,-0.27757c0,0 -0.9561,-2.29526 -0.74052,-3.78484c0.33198,-2.29365 1.43534,-3.31236 1.43534,-3.31236l9.68878,-2.96904c0,0 4.32633,3.98077 6.5371,6.70922z" fill="#20201f"/><path d="M258.26308,186.663c-4.87549,2.6707 -10.95015,1.9739 -13.77237,-0.70523c-2.82222,-2.67912 0.34415,-6.51378 4.20923,-8.63099c3.86508,-2.1172 8.16156,-2.38739 10.89645,0.35637c2.73489,2.74376 3.54218,6.30914 -1.33331,8.97984z" fill="#20201f"/><path d="M247.69435,173.59227c3.40771,3.8721 7.16291,7.64765 7.16291,7.64765l-5.27528,1.77148c0,0 -4.16218,-5.37368 -5.53697,-6.93578c-2.25506,-2.56236 -5.24581,-5.6927 -8.73983,-9.2c-0.87549,-0.87879 -0.9246,-1.84561 -0.06493,-2.77505c0.57756,-0.62441 1.36897,-0.97265 2.59467,-0.02477c3.70159,2.86247 7.4759,6.8082 9.85937,9.5165z" fill="#fed5c7"/></g><path d="M246.43034,199.08419c-0.9154,-1.44805 -1.35717,-3.61157 -0.2337,-4.74432c1.74973,-1.76426 3.65639,0.6299 3.65639,0.6299c0,0 -2.88381,4.96692 -3.42269,4.11442z" fill="#c0c2c6"/><path d="M252.26268,198.78512c-0.9154,-1.44805 -1.35717,-3.61157 -0.2337,-4.74432c1.74973,-1.76426 3.65639,0.6299 3.65639,0.6299c0,0 -2.88381,4.96692 -3.42269,4.11442z" fill="#c0c2c6"/><path d="M257.49685,198.33646c-0.9154,-1.44805 -1.35717,-3.61157 -0.2337,-4.74432c1.74973,-1.76426 3.65639,0.6299 3.65639,0.6299c0,0 -2.88381,4.96692 -3.42269,4.11442z" fill="#c0c2c6"/><path d="M258.25408,192.33312c-1.38185,-1.01252 -2.58485,-2.86424 -1.95392,-4.32959c0.98259,-2.28226 3.63324,-0.75207 3.63324,-0.75207c0,0 -0.86579,5.67776 -1.67932,5.08166z" fill="#c0c2c6"/><path d="M261.2355,197.28964c-0.9154,-1.44805 -1.35717,-3.61157 -0.2337,-4.74432c1.74973,-1.76426 3.65639,0.6299 3.65639,0.6299c0,0 -2.88381,4.96692 -3.42269,4.11442z" fill="#c0c2c6"/></g><g><path d="M242.27341,175.6353l-3.28335,-3.37419l4.55474,-3.83144l3.39772,3.29115z" fill="#83c4ac"/><path d="M241.78773,171.14672c-1.91083,1.67354 -3.97553,2.3386 -7.27795,-1.20156c-1.85754,-1.99127 -1.81441,-4.96221 0.09638,-6.63575c1.91079,-1.67354 4.91347,-1.36934 6.82322,0.57533c3.18379,3.24203 2.26914,5.58844 0.35835,7.26197z" fill="#20201f"/><path d="M250.94864,176.95305l-3.47297,3.18763l-2.46284,1.19178l-2.82243,-5.81149l4.78349,-3.99757l5.12091,3.4437z" fill="#bebec0"/></g></g><g data-paper-data="{&quot;index&quot;:null}" stroke="none" stroke-width="0" stroke-linecap="butt" stroke-linejoin="miter"><path d="M229.97328,181.05451c0,0 -11.90521,11.16631 -15.30384,11.2068c-3.69313,0.04396 -10.48618,-5.09541 -10.48618,-5.09541l10.60323,1.79608l9.69617,-8.18076l5.49061,0.27336z" fill="#f79db4"/><path d="M224.26093,169.23411c1.68262,2.2996 0.40858,4.75394 -1.89102,6.43656c-2.2996,1.68262 -4.75394,1.9564 -6.43656,-0.3432c-1.68262,-2.2996 -1.18249,-5.5278 1.11711,-7.21042c2.2996,-1.68262 5.52784,-1.18249 7.21046,1.11711z" fill="#83c4ac"/><path d="M258.53438,181.11708c0,0 -0.922,3.77444 -4.68142,5.62996c-0.49753,3.08609 -2.58448,6.36152 -6.57631,6.95344c-1.02469,2.10614 -3.65825,3.8179 -7.39381,2.77418c-1.27969,1.68179 -4.19705,2.61886 -6.59253,0.57195c-2.70917,1.79439 -6.14994,1.5706 -8.1855,-1.09173c-3.38773,0.91288 -5.29968,-2.45199 -7.45007,-4.00797c-2.48843,-0.17133 -5.41277,-1.67313 -6.1894,-5.49862c-0.98437,-3.47214 -2.89313,-5.32126 -2.89313,-5.32126l7.58949,-2.46961c0,0 1.11381,0.77077 3.5582,2.99545c2.01567,1.83451 4.29876,5.23698 13.18672,4.9398c9.96776,-0.3333 11.89985,-1.9999 13.74001,-4.97674c1.304,-2.10949 3.91449,-2.9718 3.91449,-2.9718z" fill="#c0c2c6"/><path d="M238.12857,159.87904c0,0 0.84841,3.19779 1.26884,5.79304c0.42047,2.59525 0.75579,6.26972 0.75579,6.26972c0,0 2.91084,2.53367 5.77025,4.11525c2.85937,1.58158 5.2253,2.99781 5.2253,2.99781c0,0 -2.30162,1.17395 -3.38249,3.01485c-0.64228,1.09387 0.43471,2.65749 -0.84833,3.70827c-1.70714,1.39815 -4.16523,-0.12473 -5.46919,0.58524c-2.78693,1.51735 -4.17757,4.19169 -8.9545,3.78426c-2.67524,-0.22821 -4.49745,-2.91844 -6.091,-3.3356c-2.9789,-0.77981 -4.70705,0.51313 -6.53549,-0.64269c-1.08009,-0.68277 -0.77102,-2.60553 -1.54117,-3.82186c-1.23103,-1.94422 -3.2488,-3.20959 -3.2488,-3.20959c0,0 5.1141,-2.32234 7.49415,-4.50183c2.38004,-2.17949 2.64131,-2.79176 3.97136,-5.98476c1.33005,-3.193 0.36524,-9.00791 0.36524,-9.00791l9.70356,0.07974l1.5164,0.15602z" fill="#20201f"/><path d="M221.13385,177.69455l-0.97252,-1.24993c0,0 1.39514,-0.95436 2.12814,-1.66615c0.81374,-0.79017 1.23718,-1.25852 1.23718,-1.25852l2.52327,3.04028l-1.44083,1.51711z" data-paper-data="{&quot;index&quot;:null}" fill="#c274a1"/><path d="M227.79057,180.56189l-3.1925,-2.41897l1.15686,-1.22343l3.59394,2.74405z" data-paper-data="{&quot;index&quot;:null}" fill="#c0c2c6"/><path d="M241.20996,177.92309l-1.59152,-1.3582l2.19158,-3.28739c0,0 0.47012,0.42154 1.36199,1.12231c0.80342,0.63126 2.29068,1.43456 2.29068,1.43456l-0.83652,1.3447z" fill="#c274a1"/><path d="M234.93722,180.67288l4.86389,-4.10798l1.27841,1.09581l-4.49861,3.7427z" fill="#c0c2c6"/><path d="M227.81327,159.05622l10.85196,0.28096c0,0 2.28944,0.26226 2.32139,6.09133c0.01412,2.57313 -1.31428,6.24818 -1.31428,6.24818l-1.96511,-2.82528c0,0 -1.71779,2.47209 -2.72973,3.42306c-0.99382,0.93397 -2.75585,1.99057 -3.4553,2.23273c-0.72075,0.24951 -6.8065,0.61157 -6.07441,-7.63791c0.59977,-6.75821 2.36547,-7.81308 2.36547,-7.81308z" fill="#c0c0c3"/><path d="M230.97903,159.97707l8.17725,-0.61958l-2.34215,2.31574z" fill="#222225"/><g><g><path d="M236.8653,184.55211c-1.47612,2.17222 -5.06259,2.30917 -8.01062,0.30589c-2.94803,-2.00328 -4.14125,-5.38821 -2.66513,-7.56043c1.47612,-2.17222 5.06259,-2.30917 8.01062,-0.30589c2.94803,2.00328 4.14125,5.38821 2.66513,7.56048z" fill="#c0c2c6"/><path d="M232.56056,172.98891c0.66201,0.79578 0.5535,1.97753 -0.24224,2.6395c-0.79574,0.66197 -1.97753,0.5535 -2.6395,-0.24224c-0.66197,-0.79574 -0.55346,-1.97753 0.24228,-2.6395c0.79578,-0.66197 1.97753,-0.55346 2.6395,0.24228z" fill="#000000"/><path d="M232.51916,174.11246c-0.02712,0.77647 -0.72945,0.58132 -1.50592,0.55424c-0.77647,-0.02708 -1.33294,0.1242 -1.30586,-0.65227c0.02708,-0.77643 0.67844,-1.38391 1.4549,-1.35683c0.77643,0.02708 1.38391,0.67844 1.35683,1.4549z" fill="#c478a9"/><path d="M239.67226,179.64302c-0.4662,0.92419 -1.59334,1.29546 -2.51753,0.82926c-0.92419,-0.4662 -1.29542,-1.59334 -0.82922,-2.51753c0.4662,-0.92419 1.59334,-1.29546 2.51753,-0.82926c0.92419,0.4662 1.29546,1.59334 0.82926,2.51753z" fill="#000000"/><path d="M238.62519,180.05255c-0.72297,0.28447 -0.82377,-0.43752 -1.10824,-1.16049c-0.28447,-0.72297 -0.64488,-1.17316 0.07809,-1.45763c0.72297,-0.28447 1.53964,0.07099 1.82411,0.79397c0.28447,0.72297 -0.07099,1.53964 -0.79397,1.82411z" fill="#c478a9"/><path d="M236.78469,180.51702c0,0.35488 -0.73668,0.79376 -1.73867,0.79376c-1.00199,0 -1.81429,-0.89245 -1.81429,-1.24733c0,-0.35488 0.88787,-0.86934 1.8899,-0.86934c1.00199,0 1.6631,0.96802 1.6631,1.32295z" fill="#000000"/><path d="M232.07525,177.08149c0.40507,0.91651 0.29347,1.93654 -0.03112,2.08002c-0.32459,0.14347 -1.46923,-0.23865 -1.8743,-1.15517c-0.40511,-0.91651 -0.30151,-1.76769 0.02307,-1.91116c0.32459,-0.14347 1.47728,0.0698 1.88235,0.98631z" data-paper-data="{&quot;index&quot;:null}" fill="#000000"/><path d="M234.89483,180.85721c-0.37577,0 -0.68038,-0.30461 -0.68038,-0.68038c0,-0.37573 0.30461,-0.68034 0.68038,-0.68034c0.37573,0 0.68034,0.30457 0.68034,0.68034c0,0.37577 -0.30457,0.68038 -0.68034,0.68038z" fill="#ffffff"/><path d="M231.45522,178.81612c-0.39661,0 -0.71814,-0.32153 -0.71814,-0.71814c0,-0.39661 0.32153,-0.71814 0.71814,-0.71814c0.39661,0 0.71814,0.32153 0.71814,0.71814c0,0.39661 -0.32153,0.71814 -0.71814,0.71814z" fill="#ffffff"/></g><path d="M232.91086,180.84644c-0.16291,0.21707 -0.59754,0.2604 -0.91474,0.02233c-0.3172,-0.23812 -0.3969,-0.66754 -0.23399,-0.88457c0.16291,-0.21702 1.31164,0.64521 1.14873,0.86224z" fill="#000000"/><path d="M234.70629,181.9813c0.51668,0.27324 0.81687,0.71914 0.67051,0.99597c-0.1464,0.27683 -0.68397,0.27968 -1.20065,0.00644c-0.51668,-0.27324 -0.81687,-0.71914 -0.67051,-0.99597c0.1464,-0.27683 0.68397,-0.27968 1.20065,-0.00644z" fill="#ad597c"/><path d="M229.64143,178.50391c0.51668,0.27324 0.81687,0.71914 0.67051,0.99597c-0.1464,0.27683 -0.68397,0.27968 -1.20065,0.00644c-0.51668,-0.27324 -0.81687,-0.71914 -0.67051,-0.99597c0.1464,-0.27683 0.68397,-0.27968 1.20065,-0.00644z" fill="#ad597c"/></g><g fill="#83c4ac"><path d="M241.02257,170.56024c0,0 -1.57435,-1.07146 -2.22254,-1.47538c-0.72933,-0.45452 -1.93873,-1.11777 -1.93873,-1.11777l0.33107,-0.7666c0,0 1.65117,-0.18673 2.38529,-0.05077c0.80181,0.14851 2.24053,0.90739 2.24053,0.90739l-0.79566,2.50313z"/><path d="M233.29976,172.34229l-1.46621,-2.17916c0,0 1.16792,-1.13222 1.89585,-1.49977c0.66647,-0.33652 3.68297,-1.50353 3.68297,-1.50353l-0.46022,0.8636c0,0 -1.36084,1.63812 -1.93328,2.27904c-0.50872,0.5696 -1.71911,2.03981 -1.71911,2.03981z" data-paper-data="{&quot;index&quot;:null}"/><path d="M237.37183,175.14371c0,0 -0.01507,-2.51402 -0.08503,-3.79326c-0.06996,-1.27924 -0.30118,-3.2689 -0.30118,-3.2689l1.15867,0.11037c0,0 0.28517,1.31391 0.39207,2.53747c0.1069,1.22356 0.10447,3.14541 0.10447,3.14541z"/><path d="M235.49592,174.53689c0,0 -0.00239,-1.92185 0.10451,-3.14541c0.1069,-1.22356 0.5024,-3.30989 0.5024,-3.30989l0.99312,-0.22066c0,0 -0.28637,2.37583 -0.35633,3.65507c-0.06996,1.27924 -0.14021,3.90363 -0.14021,3.90363z" data-paper-data="{&quot;index&quot;:null}"/></g></g><g data-paper-data="{&quot;index&quot;:null}" stroke-linejoin="miter"><path d="M249.65393,252.269c0,0 1.18707,1.27664 -3.28504,2.15093c-3.22399,0.54892 -9.31553,-0.96893 -12.45648,-2.8318c-3.14095,-1.86287 -4.7749,-5.06466 -6.27608,-8.7071c-1.50117,-3.64244 -1.44066,-6.38269 -1.93568,-8.07922c-1.76017,-6.03243 3.79371,-7.42757 3.79371,-7.42757c0,0 0.25867,17.27675 3.14532,19.235c3.5615,2.41604 11.84177,5.94031 11.84177,5.94031z" fill="#947043" stroke="none" stroke-width="0" stroke-linecap="butt"/><path d="M244.52542,226.79222l0.62429,1.35762l-0.01928,1.74098c0,0 0.90046,3.63142 1.41966,4.97773c0.63881,1.65653 1.31449,3.44275 3.19452,7.1462c1.20366,4.25633 0.22837,10.79211 0.22837,10.79211c0,0 -5.47951,0.95275 -10.1308,-0.18409c-3.43945,-1.24816 -7.8676,-4.01743 -9.22712,-6.61065c-1.61348,-3.07776 -2.0238,-6.40151 -2.53222,-8.53564c-0.05857,-0.24575 -1.19277,-6.69135 -0.38245,-8.10461c0.81023,-1.4133 2.12641,-3.56377 2.12641,-3.56377c0,0 -0.61401,0.06146 -0.10884,-1.2293c0.11536,-0.29466 1.10213,-1.01004 1.10213,-1.01004l-0.72842,-0.32417l0.7297,-2.88917l12.31235,2.29361z" fill="#20201f" stroke="none" stroke-width="0" stroke-linecap="butt"/><path d="M227.78648,234.54095c0,0 2.50209,-5.64989 3.56014,-7.82728c0.83491,-1.71824 2.12909,-3.93372 2.12909,-3.93372" fill="none" stroke="#c8c7c6" stroke-width="0.125" stroke-linecap="round"/><path d="M230.74099,214.41301c0.12349,-3.85691 5.54671,-4.64893 8.63214,-4.63639c3.08535,0.01255 6.20005,3.94722 6.31091,4.69723c0.42278,2.86028 -0.9847,7.10245 -1.62937,7.73057c-1.79563,1.15389 -3.17426,1.43051 -7.70795,1.31036c-2.48014,-0.34877 -4.15227,-1.30945 -5.35086,-3.25561c-1.19859,-1.94616 -0.35311,-2.77777 -0.25483,-5.84616z" fill="#c274a1" stroke="none" stroke-width="0" stroke-linecap="butt"/><path d="M230.80608,214.6626c0.12354,-3.85687 5.54671,-4.64893 8.63214,-4.63639c3.08539,0.01255 6.20013,3.94722 6.31096,4.69723c0.4227,2.86028 -5.9976,3.30584 -7.94144,3.39628c-1.594,0.07421 -7.09989,-0.38865 -7.00165,-3.45707z" fill="#cacacd" stroke="none" stroke-width="0" stroke-linecap="butt"/><path d="M240.60198,246.17536c0,0 0.29054,1.81792 0.54347,3.40016c0.25289,1.58224 -0.06612,2.87353 -0.4797,2.98134c-0.259,0.06748 -1.18232,0.09076 -1.65175,-1.15929c-0.28013,-0.74588 0.66399,-0.96299 0.7361,-1.91537c0.07211,-0.95238 0.85188,-3.30683 0.85188,-3.30683z" fill="#c8c7c6" stroke="none" stroke-width="0" stroke-linecap="butt"/><path d="M234.58882,248.98471c0,0 1.76826,-8.70751 9.25684,-9.48724c5.25873,-0.54755 6.2833,4.06956 6.2833,4.06956" fill="none" stroke="#c8c7c6" stroke-width="0.125" stroke-linecap="round"/><path d="M248.56344,246.46251c0,0 0.78509,2.35268 0.85939,3.30489c0.0743,0.95222 1.01887,1.16718 0.74047,1.91368c-0.46661,1.25113 -1.3899,1.23 -1.6491,1.16309c-0.41382,-0.10686 -0.73577,-1.39745 -0.48647,-2.98027c0.2493,-1.58277 0.53575,-3.40135 0.53575,-3.40135z" data-paper-data="{&quot;index&quot;:null}" fill="#c8c7c6" stroke="none" stroke-width="0" stroke-linecap="butt"/></g><path d="M240.54791,190.3863l0.17468,15.46547l-0.05952,9.51254c0,0 -1.57056,-0.00417 -2.5321,-0.50595c-0.96159,-0.50178 -2.32919,-1.59693 -2.32919,-1.59693l-0.46777,-9.2582l0.02146,-14.29467z" data-paper-data="{&quot;index&quot;:null}" fill="#20201f" stroke="none" stroke-width="0" stroke-linecap="butt" stroke-linejoin="miter"/><g data-paper-data="{&quot;index&quot;:null}" stroke-linejoin="miter"><path d="M226.35936,250.93396l5.07601,1.03316c0,0 0.8267,1.53477 -3.72136,1.25282c-3.25821,-0.28199 -8.76996,-3.28719 -11.3395,-5.88207c-2.56954,-2.59488 -3.34311,-6.10528 -3.87705,-10.00858c-0.53393,-3.9033 0.21579,-6.5397 0.16469,-8.30623c-0.18173,-6.28136 5.54448,-6.23055 5.54448,-6.23055c0,0 -4.10728,16.78343 -1.80789,19.40646c2.83696,3.23625 9.96062,8.73504 9.96062,8.73504z" fill="#947043" stroke="none" stroke-width="0" stroke-linecap="butt"/><path d="M232.89848,226.02046l0.26168,1.47121l-0.45778,1.67981c0,0 -0.04458,3.74113 0.11825,5.17486c0.20035,1.76414 0.40367,3.66304 1.28881,7.72091c0.09122,4.42229 -2.50102,10.50079 -2.50102,10.50079c0,0 -5.54266,-0.46009 -9.75685,-2.73336c-3.01345,-2.07531 -6.59996,-5.87195 -7.26144,-8.72423c-0.78505,-3.38522 -0.34374,-6.70501 -0.29747,-8.89837c0.00532,-0.2526 0.53352,-6.77588 1.67408,-7.93905c1.14051,-1.16321 2.95653,-2.9122 2.95653,-2.9122c0,0 -0.60967,-0.09539 0.20472,-1.217c0.18594,-0.25603 1.32126,-0.69941 1.32126,-0.69941l-0.62313,-0.49741l1.43484,-2.61172l11.33578,5.32494z" fill="#20201f" stroke="none" stroke-width="0" stroke-linecap="butt"/><path d="M214.74633,229.29675c0,0 3.84626,-4.83616 5.41925,-6.67628c1.24131,-1.4521 3.05241,-3.26952 3.05241,-3.26952" fill="none" stroke="#c8c7c6" stroke-width="0.125" stroke-linecap="round"/><path d="M232.20452,208.25551c2.98245,0.79033 5.00402,5.38338 4.92213,6.13711c-0.31233,2.87444 -2.7443,6.62444 -3.52654,7.06967c-2.02863,0.6637 -3.43243,0.58363 -7.78926,-0.67613c-2.31198,-0.96307 -3.68772,-2.31442 -4.35671,-4.49997c-0.66899,-2.18556 0.35893,-2.77703 1.22793,-5.72142c1.0923,-3.70105 6.53995,-3.09963 9.52244,-2.30926z" fill="#c274a1" stroke="none" stroke-width="0" stroke-linecap="butt"/><path d="M222.68208,210.8227c1.0923,-3.70101 6.53995,-3.09963 9.52244,-2.30926c2.98249,0.79038 5.00411,5.38342 4.92217,6.13715c-0.31237,2.87444 -6.63748,1.68621 -8.5413,1.28345c-1.56119,-0.33024 -6.77233,-2.16686 -5.90332,-5.1113z" fill="#cacacd" stroke="none" stroke-width="0" stroke-linecap="butt"/><path d="M222.55458,246.77241c0.30998,-0.90339 1.65839,-2.98505 1.65839,-2.98505c0,0 -0.17736,1.83245 -0.33169,3.42732c-0.15433,1.59487 -0.78873,2.76394 -1.21613,2.76394c-0.26767,0 -1.16697,-0.21038 -1.30594,-1.5384c-0.08292,-0.7924 0.88543,-0.76437 1.19541,-1.66776z" fill="#c8c7c6" stroke="none" stroke-width="0" stroke-linecap="butt"/><path d="M230.29469,245.59016c0,0 0.32512,2.45884 0.21764,3.40788c-0.10748,0.94904 0.77927,1.33909 0.36446,2.0193c-0.6952,1.14006 -1.59776,0.94437 -1.83959,0.82955c-0.38609,-0.18334 -0.45766,-1.51153 0.08701,-3.01844c0.54471,-1.50687 1.17052,-3.23823 1.17052,-3.23823z" data-paper-data="{&quot;index&quot;:null}" fill="#c8c7c6" stroke="none" stroke-width="0" stroke-linecap="butt"/><path d="M217.68565,244.98924c0,0 3.90734,-7.98 11.35048,-6.84572c5.22683,0.79653 5.05372,5.52277 5.05372,5.52277" fill="none" stroke="#c8c7c6" stroke-width="0.125" stroke-linecap="round"/><g fill="#83c4ac" stroke="none" stroke-width="0" stroke-linecap="butt"><path d="M221.89707,220.21488l0.83813,-0.29875l3.19048,2.83506c0,0 -2.196,1.85387 -2.73443,1.77396c-0.4563,-0.06777 -1.29418,-4.31027 -1.29418,-4.31027z"/><path d="M220.09009,217.27638c0.43046,-0.16588 2.85136,2.67372 2.85136,2.67372l-1.06085,0.55296l-3.21553,-0.99394c0,0 0.91713,-2.03692 1.42502,-2.23269z" data-paper-data="{&quot;index&quot;:null}"/><path d="M219.7478,227.3974c-0.43706,-0.1476 -0.50946,-4.47145 -0.50946,-4.47145l1.05738,-0.18524l2.45768,3.39562c0,0 -2.48992,1.43513 -3.00561,1.26104z"/><path d="M218.39071,219.39606c0.45939,-0.0421 2.01319,3.35054 2.01319,3.35054l-1.17151,0.24241l-2.82206,-1.83402c0,0 1.43831,-1.70924 1.98038,-1.7589z" data-paper-data="{&quot;index&quot;:null}"/><path d="M215.59458,229.42603l-0.2661,-1.61377l2.45566,-2.69192c0,0 0.67782,-1.54191 1.1985,-1.06176c0.52064,0.48019 -0.44078,1.76055 -0.44078,1.76055l-1.05982,3.88984z"/></g></g><path d="M235.69796,190.11983l-2.52562,16.90259l-1.24547,7.35967c0,0 -2.26761,-0.50979 -3.2528,-1.06523c-0.98519,-0.55544 -2.12732,-1.96791 -2.12732,-1.96791l1.01021,-5.49074l2.64515,-15.36295z" data-paper-data="{&quot;index&quot;:null}" fill="#20201f" stroke="none" stroke-width="0" stroke-linecap="butt" stroke-linejoin="miter"/><g data-paper-data="{&quot;index&quot;:null}" stroke-width="0" stroke-linecap="butt" stroke-linejoin="miter"><path d="M288.49239,183.8504c12.4725,-1.03922 16.74595,8.68382 16.74595,8.68382c0,0 0.07479,-1.09622 0.37181,1.89283c0.29702,2.98906 -0.01812,1.57122 -0.01812,1.57122c0,0 -9.27772,-0.89125 -16.97693,-2.14808c-11.28299,2.9172 -14.23556,5.13862 -14.23556,5.13862l-0.16815,-3.9461c0,0 5.39213,-10.45184 14.28096,-11.19239z" fill="#cacacd" stroke="none"/><path d="M290.91214,209.18763c-15.33013,1.42015 -16.60359,-10.31402 -16.60359,-10.31402c0,0 4.81313,-6.86305 16.12976,-7.86632c10.65536,-0.94466 15.30112,5.29654 15.30112,5.29654c0,0 -1.16664,11.61835 -14.82728,12.8838z" fill="#c2e266" stroke="#000000"/><path d="M287.84371,166.02007c14.69004,-1.09627 16.54445,14.86179 16.54445,14.86179l-30.45732,3.06141c0,0 -0.98986,-16.81104 13.91287,-17.9232z" fill="#c2e266" stroke="none"/><path d="M273.83129,182.90091c0,0 3.0397,-9.20384 14.79088,-10.05304c11.8887,-0.84552 15.64102,6.85958 15.64102,6.85958l0.09547,1.15046l-15.44232,-5.07927l-15.00996,8.56511z" fill="#cacacd" stroke="none"/><path d="M304.40925,180.86138l1.07261,12.77913c0,0 -8.49944,-5.86832 -15.18559,-5.18126c-6.68615,0.68706 -15.93873,8.37954 -15.93873,8.37954l-0.55486,-12.95616c0,0 5.52293,-8.06403 14.16816,-9.07832c12.13066,-1.42329 16.43841,6.05707 16.43841,6.05707z" fill="#c274a1" stroke="none"/><path d="M264.25069,195.06l-46.22641,6.04568c0,0 -1.11513,-1.5143 -1.31775,-3.28983c-0.20262,-1.77553 0.42191,-4.55966 0.42191,-4.55966l46.15513,-6.4846c0,0 -0.10839,2.36799 0.08651,4.03843c0.1949,1.67044 0.88056,4.25005 0.88056,4.25005z" fill="#c2e266" stroke="none"/><path d="M274.63446,195.53462c0,0 -9.3079,0.75921 -9.67805,0.50001c-1.40509,-0.98391 -2.58865,-8.01099 -1.38969,-10.1069c0.70791,-1.23755 10.61334,-1.88239 10.61334,-1.88239l0.45444,11.48928z" fill="#cacacd" stroke="none"/></g><g data-paper-data="{&quot;index&quot;:null}"><g data-paper-data="{&quot;index&quot;:null}" fill="#86cbb6" stroke="none" stroke-width="0" stroke-linecap="butt" stroke-linejoin="miter"><path d="M257.57746,129.42816c-1.9249,-0.51136 -3.0175,-0.58091 -3.0175,-0.58091l-2.54197,-1.29385c0,0 3.15164,-1.49057 4.9365,-1.59895c1.78486,-0.10839 5.44641,0.6623 5.44641,0.6623l-0.69891,4.17968c0,0 -2.19955,-0.85683 -4.12449,-1.36823z"/><path d="M257.71309,136.0259c0,0 -1.31242,-2.11023 -1.9254,-3.10388c-0.84432,-1.36868 -3.64413,-5.52326 -3.64413,-5.52326l2.4401,0.31311c0,0 2.49632,2.44728 3.55585,3.53909c0.84998,0.87586 2.31227,2.50783 2.31227,2.50783z"/></g><g stroke="none" stroke-width="0" stroke-linecap="butt" stroke-linejoin="miter"><path d="M257.66641,115.41961c2.63508,2.27009 2.97775,3.95229 2.31892,7.65091c-0.65883,3.69862 -6.51907,7.51635 -6.51907,7.51635c0,0 -0.89266,-3.78554 -2.17255,-5.83778c-1.2799,-2.05224 -4.44536,-4.77363 -4.44536,-4.77363c0,0 2.01678,-2.67339 4.21142,-4.2723c1.67412,-1.23619 3.69267,-2.25333 6.60669,-0.28356z" data-paper-data="{&quot;index&quot;:null}" fill="#20201f"/><path d="M259.83801,119.23198c0.85373,2.72638 -1.22488,6.54829 -1.22488,6.54829l-3.01721,-3.07623c0,0 3.58296,-5.57717 4.24213,-3.47206z" data-paper-data="{&quot;index&quot;:null}" fill="#b2b1b2"/></g><path d="M230.59632,114.53562c13.7784,0 24.94792,9.63302 24.94792,21.5159c0,11.88292 -11.16957,21.51586 -24.94792,21.51586c-13.77836,0 -24.94788,-9.63298 -24.94788,-21.51586c0,-11.88292 11.16953,-21.51594 24.94788,-21.51594z" fill="#f79eb4" stroke="none" stroke-width="0" stroke-linecap="butt" stroke-linejoin="miter"/><path d="M254.71978,143.25683c0.02588,-0.06649 0.14904,4.31073 -2.96735,9.85789c-4.99734,8.95392 -11.10518,9.19212 -11.10518,9.19212l1.16652,-3.76082c0,0 6.40643,-7.11693 8.08537,-9.78925c1.6789,-2.67231 2.49425,-7.49336 2.49347,-7.49043" fill="#f79eb4" stroke="#f89db5" stroke-width="0" stroke-linecap="butt" stroke-linejoin="round"/><g fill="#ffd5c5" stroke="none" stroke-width="1" stroke-linecap="round" stroke-linejoin="round"><path d="M248.58499,151.15279c0.48577,2.20677 -1.40166,4.10732 -3.03425,5.37793c-0.26713,0.20782 -2.36044,1.8265 -5.80092,2.97837c-4.317,1.44525 -10.01568,0.62771 -11.65249,0.43442c-1.95202,-0.23073 -5.42623,-2.4103 -5.97642,-3.00247c-3.95976,-4.26206 -0.99444,-6.32227 -0.57628,-6.64619c0.19944,-0.15441 1.31618,-0.57133 2.62984,-0.12424c1.28043,0.43578 4.7825,2.37233 5.98786,2.32094c1.29509,-0.05518 8.49833,-2.4914 12.24321,-2.48653c0.77828,0.0092 1.80281,0.26924 2.42879,0.75897c0.81465,0.63758 2.03424,1.85853 3.13059,0.80363c0.1774,-0.17088 0.56695,-0.65541 0.62003,-0.4149z"/><path d=""/></g><g fill="#000000" stroke="#000000" stroke-width="0.125" stroke-linecap="butt" stroke-linejoin="round"><path d="M252.4388,144.05654c0.25764,-0.08606 1.48033,0.03971 3.29788,-0.38654c1.1439,-0.31282 2.28573,-0.63626 3.39347,-1.05838c0.66317,-0.25289 1.26772,-0.68744 1.93642,-0.91078c0.02274,-0.00764 -1.41974,0.8818 -1.85721,1.0914c-1.3712,0.6571 -2.60949,1.1072 -4.06807,1.52775c-0.32025,0.09241 -2.93693,0.53274 -2.9224,0.43137"/><path d="M252.97921,141.84242c0.10558,0.10509 1.47319,0.15627 3.19605,-0.615c1.72282,-0.77127 4.11025,-2.26575 4.18603,-2.41756c0.02856,-0.05729 -2.6182,2.11452 -3.83734,2.77373c-1.21914,0.6592 -3.77204,1.23433 -3.75859,1.13977"/></g><g fill="#000000" stroke="none" stroke-width="1" stroke-linecap="round" stroke-linejoin="round"><path d="M241.72437,151.20686c0.61595,-0.44598 2.79956,-0.20444 3.17616,0.07169c0.65149,0.47768 -0.91053,1.49618 -1.36435,1.46584c-0.98685,-0.14669 -2.6222,-0.95069 -1.81181,-1.53754z"/><path d=""/></g><path d="M221.23935,140.06693c0.08449,-0.2188 -0.4118,7.82451 -0.32207,11.45862c0.1691,6.84353 1.74981,11.08797 1.74981,11.08797c0,0 -1.47657,-0.96753 -1.83034,-1.26269c-1.09296,-0.91156 -2.0574,-1.8147 -2.98691,-2.90845c-2.18617,-2.57267 -3.66271,-5.65518 -4.57773,-8.89312c-0.6098,-2.1579 -1.27032,-11.60721 -1.17609,-11.66396" fill="#f79eb4" stroke="#f89db5" stroke-width="0" stroke-linecap="butt" stroke-linejoin="round"/><path d="M211.70535,137.75536c-0.06043,0.06043 1.1569,11.62091 1.76145,14.83293c0.60451,3.21202 2.53276,7.98264 2.53276,7.98264c0,0 -1.69756,-0.26189 -4.01705,-2.86647c-2.04807,-2.29989 -3.20039,-3.46525 -4.37466,-7.78745c-1.52375,-5.60858 -1.9476,-13.31199 -1.20581,-14.79566" fill="#f79eb4" stroke="#f89db5" stroke-width="0" stroke-linecap="butt" stroke-linejoin="round"/><g stroke="none" stroke-width="1" stroke-linecap="round" stroke-linejoin="round"><path d="M246.0062,124.83161c-0.38976,-0.23081 -10.32207,-5.97172 -17.45514,-4.83595c-5.62203,0.89513 -8.58884,3.03425 -13.71116,6.71776c-3.95044,2.84067 -6.39479,9.3178 -6.54734,9.35474c-0.01094,0.00264 1.50212,-16.93553 16.77427,-19.43246c12.35589,-1.88941 22.30029,5.49726 22.71457,5.98431" fill="#20201f"/><path d="" fill="#ee1a40"/></g><path d="M247.29733,129.37855c-0.09369,0.07603 3.81778,-2.39787 11.17435,-0.60006c1.31102,0.32789 5.56701,2.5087 6.66051,5.58955c1.33137,2.80187 3.67241,5.2345 3.60562,5.22769c-0.09584,-0.01007 -7.19032,-3.86273 -11.48045,-5.49474c-2.34248,-0.89113 -9.01006,-0.09654 -9.13339,0.00355" fill="#f79eb4" stroke="#f89db5" stroke-width="0" stroke-linecap="butt" stroke-linejoin="round"/><path d="M243.79951,129.53506c0.03748,-0.34291 3.5232,-5.95488 4.68311,-6.99996c1.15991,-1.04508 1.85354,-1.33025 4.34874,-1.46006c8.49098,0.37944 15.14596,-0.90128 15.14596,-0.90128c0,0 -7.66494,3.94482 -10.75339,4.52631c-4.28485,0.80676 -9.46235,4.34391 -9.89136,4.68843" fill="#f79eb4" stroke="#f89db5" stroke-width="0" stroke-linecap="butt" stroke-linejoin="round"/><path d="M221.70287,141.21413c0,0 -2.61878,-8.58245 2.06375,-11.00835c11.29182,-2.99058 15.71977,11.10902 15.71977,11.10902c0,0 -9.70389,-6.91105 -12.21139,-6.91105c-2.5075,0 -5.57213,6.81038 -5.57213,6.81038z" data-paper-data="{&quot;index&quot;:null}" fill="#20201f" stroke="none" stroke-width="0" stroke-linecap="butt" stroke-linejoin="miter"/><path d="M240.34227,143.64147c1.70763,2.50391 2.52665,2.46292 3.33762,2.5354c1.39126,0.12436 2.9619,-1.12021 4.13403,-2.62984c1.67581,-2.15827 3.25648,-6.00222 5.11039,-6.01823c0.28096,-0.00244 0.47276,3.47202 -0.16782,5.85086c-1.35853,5.04484 -4.76917,8.59974 -5.37426,8.62178c-2.4176,0.08804 -1.70491,-2.11341 -6.60516,-1.86179c-2.79102,0.14335 -9.14379,3.18214 -11.83892,2.38269c-5.24783,-2.43486 -6.58614,-6.86231 -6.97631,-9.80481c-1.17254,-8.84227 4.22566,-11.2543 6.0605,-11.04401c8.44682,0.96798 9.64123,8.04022 12.31994,11.96799z" fill="#ffffff" stroke="none" stroke-width="0" stroke-linecap="butt" stroke-linejoin="miter"/><path d="M247.86341,134.47544c-0.16782,-0.12279 3.65012,-1.07187 7.19907,0.98569c1.01954,0.5911 4.28332,4.76735 4.21282,5.38673c0.10401,2.51749 2.4389,6.37109 2.44551,6.36635c0.14384,-0.10216 -4.87083,-1.97192 -7.57975,-5.50291c-0.91792,-1.1822 -5.775,-3.04383 -6.24991,-3.39174" fill="#f79eb4" stroke="#f89db5" stroke-width="0" stroke-linecap="butt" stroke-linejoin="round"/><g fill="#000000" stroke="#000000" stroke-width="0.125" stroke-linecap="butt" stroke-linejoin="round"><path d="M222.86534,135.29009c-0.10083,0.14867 -0.73333,0.20192 -1.51983,-0.1457c-5.04959,-2.23154 -5.69311,-3.80709 -5.69311,-3.80709c0,0 1.72096,2.13161 5.30298,3.08572c0.69755,0.18578 1.62826,0.27415 1.83001,0.26333c0.19247,-0.01032 0.35934,-0.15577 0.56312,-0.08106"/><path d="M221.74658,138.5653c0,0 -0.15065,0.17761 -0.69247,0.35505c-1.00472,0.32909 -3.56377,0.31394 -4.74936,0.13728c-2.82697,-0.42134 -4.41032,-1.36377 -4.41032,-1.36377c0,0 3.19704,0.91981 4.21319,1.08351c3.06649,0.47664 5.08645,-0.70411 5.35837,-0.90318c0.11986,-0.08767 0.37094,-0.33107 0.51004,-0.34692"/></g><g stroke="none" stroke-linecap="butt" stroke-linejoin="miter"><path d="M234.55898,140.14498c0.96026,0.06195 1.58352,2.5184 1.39204,5.48661c-0.19152,2.96817 -1.12528,5.32411 -2.08555,5.2622c-0.96026,-0.06195 -1.58348,-2.51836 -1.392,-5.48657c0.19147,-2.96821 1.12524,-5.32415 2.0855,-5.26224z" fill="#169c5b" stroke-width="NaN"/><path d="M234.34059,143.94031c0.42195,0.0272 0.69912,1.05433 0.61917,2.29407c-0.07991,1.23978 -0.48684,2.22279 -0.90879,2.19554c-0.42195,-0.0272 -0.69912,-1.05433 -0.61917,-2.29407c0.07991,-1.23978 0.48684,-2.22279 0.90879,-2.19554z" fill="#000000" stroke-width="0"/><path d="M233.92974,143.33732c0.08094,-1.25431 0.55936,-2.2445 1.06861,-2.21164c0.50921,0.03285 0.85646,1.07629 0.77552,2.33064c-0.08094,1.25435 -0.55936,2.2445 -1.06861,2.21164c-0.50921,-0.03285 -0.85646,-1.07625 -0.77552,-2.3306z" fill="#ffffff" stroke-width="0"/></g><g stroke="none" stroke-linecap="butt" stroke-linejoin="miter"><path d="M246.57633,147.42025c0.13505,-2.09359 0.7936,-3.75529 1.47096,-3.71162c0.67732,0.04367 1.11686,1.77627 0.98185,3.86987c-0.13509,2.09359 -0.79364,3.75533 -1.471,3.71166c-0.67732,-0.04367 -1.11682,-1.77627 -0.98181,-3.86987z" fill="#169c5b" stroke-width="NaN"/><path d="M247.25225,147.9342c0.05642,-0.87445 0.34337,-1.56775 0.641,-1.54852c0.29768,0.01919 0.49324,0.74361 0.43677,1.61806c-0.05646,0.87445 -0.34341,1.56779 -0.64104,1.54856c-0.29768,-0.01923 -0.49324,-0.74365 -0.43677,-1.61811z" fill="#000000" stroke-width="0"/><path d="M248.35723,144.40032c0.35922,0.0232 0.60406,0.75917 0.54702,1.6439c-0.05712,0.88469 -0.39455,1.5831 -0.75377,1.55991c-0.35918,-0.0232 -0.60402,-0.75909 -0.54698,-1.64382c0.05712,-0.88469 0.39451,-1.58319 0.75372,-1.55999z" fill="#ffffff" stroke-width="0"/></g><path d="M230.07902,156.2659c0,0 -2.36911,-0.02699 -3.1873,-0.11578c-0.8182,-0.08878 -2.18312,-0.70064 -2.18312,-0.70064" data-paper-data="{&quot;index&quot;:null}" fill="none" stroke="#000000" stroke-width="0.125" stroke-linecap="round" stroke-linejoin="miter"/><g fill="#86cbb6" stroke="none" stroke-width="0" stroke-linecap="butt" stroke-linejoin="miter"><path d="M214.82294,126.91963c0,0 -1.30603,0.08313 -3.60703,0.69441c-2.301,0.61128 -4.93026,1.63552 -4.93026,1.63552l-0.83545,-4.99626c0,0 4.37689,-0.92122 6.51048,-0.79166c2.13355,0.12956 5.90089,1.91132 5.90089,1.91132l-3.03859,1.54666z"/><path d="M207.78013,132.79059c0,0 1.748,-1.95082 2.76398,-2.99781c1.26648,-1.30512 4.25051,-4.23049 4.25051,-4.23049l2.91683,-0.37424c0,0 -3.34683,4.96626 -4.35609,6.60232c-0.73271,1.18781 -2.30154,3.7103 -2.30154,3.7103z"/></g><path d="M220.28582,111.17984c4.62669,-1.31387 6.81426,0.86958 8.46085,3.19056c2.16785,3.01444 3.64554,7.34865 3.64554,7.34865c0,0 -4.65826,1.31164 -8.41603,3.10925c-6.42822,3.07512 -7.61484,4.57307 -7.61484,4.57307c0,0 -3.08019,-4.18781 -2.35606,-9.27368c0.72413,-5.08587 1.88788,-7.12469 6.28054,-8.94785z" fill="#20201f" stroke="none" stroke-width="0" stroke-linecap="butt" stroke-linejoin="miter"/><path d="M222.31168,115.6761c4.19511,-1.1616 6.0146,3.93401 6.0146,3.93401c0,0 -2.64949,0.40057 -4.88061,1.10526c-3.81662,1.20552 -4.63911,1.90802 -4.63911,1.90802c0,0 -0.91779,-5.72262 3.50512,-6.94729z" fill="#b2b1b2" stroke="none" stroke-width="0" stroke-linecap="butt" stroke-linejoin="miter"/></g><g data-paper-data="{&quot;index&quot;:null}" stroke="none" stroke-width="0" stroke-linecap="butt" stroke-linejoin="miter"><path d="M242.01119,189.1116c0,4.28571 -4.93856,7.76 -11.03059,7.76c-6.09199,0 -11.03055,-3.47425 -11.03055,-7.76c0,-4.28571 4.93856,-7.76 11.03055,-7.76c6.09199,0 11.03059,3.47429 11.03059,7.76z" fill="#20201f"/><path d="M229.26723,163.43299c1.45148,4.66045 2.3171,10.29012 2.73418,14.03038c0.59634,5.34751 1.28436,10.09287 1.28436,10.09287l-5.01537,0.45733c0,0 -0.63262,-8.45321 -0.87322,-10.61054c-0.39463,-3.53872 -1.07831,-8.00299 -1.96663,-13.0903c-0.22256,-1.27474 0.31373,-2.13037 1.60436,-2.4105c0.86711,-0.18817 1.75171,-0.01242 2.23232,1.53081z" fill="#fed5c7"/><path d="M226.30694,174.08641l-0.67419,-4.6595l5.93684,-0.42406l0.81555,4.6595z" fill="#83c4ac"/><path d="M232.52833,164.0822c0.6713,4.49407 -1.44752,5.85532 -3.97698,6.08675c-2.52946,0.23147 -4.59094,-0.44358 -5.18307,-5.24858c-0.33305,-2.70273 1.44752,-5.08137 3.97698,-5.3128c2.52946,-0.23143 4.78039,1.77895 5.18307,4.47467z" fill="#20201f"/><path d="M232.55247,180.24997l-4.68319,0.53876l-2.69311,-0.48275l1.13085,-6.3609l6.21953,-0.42406l2.12026,5.79547z" fill="#bebec0"/><g><path d="M236.31676,190.74857c0,0 3.35195,5.13573 4.88651,8.46201c0.24447,0.52997 -0.72326,4.95321 -1.44921,6.86144c-0.39649,1.04224 -1.12264,2.98885 -2.99537,3.04585c-0.47743,0.01453 -2.54783,-1.05239 -2.54783,-1.05239l-1.40215,1.13861c0,0 -1.07542,0.02992 -1.64448,-0.28727c-0.56902,-0.3172 -1.31956,-1.27065 -1.31956,-1.27065c0,0 -0.73742,0.05353 -1.24704,0.19775c-1.66343,0.47082 -2.23938,-1.04455 -2.23938,-1.04455c0,0 -1.16759,0.4797 -2.05921,0.27563c-1.41351,-0.32347 -2.86304,-1.48702 -3.40193,-2.33951c-0.9154,-1.44805 -2.44336,-5.97283 -1.31989,-7.10558c1.74973,-1.76426 3.65639,0.6299 3.65639,0.6299c0,0 -0.3773,-2.56619 0.22322,-4.01685c0.9246,-2.23376 2.30174,-2.98043 2.30174,-2.98043l10.55828,-0.51396z" fill="#20201f"/><path d="M219.8109,202.37423c-0.9154,-1.44805 -1.35717,-3.61157 -0.2337,-4.74432c1.74973,-1.76426 3.65639,0.6299 3.65639,0.6299c0,0 -2.88381,4.96692 -3.42269,4.11442z" fill="#c0c2c6"/></g></g></g></g></svg>