<svg version="1.1" xmlns="http://www.w3.org/2000/svg" xmlns:xlink="http://www.w3.org/1999/xlink" width="33.98891" height="28.42422" viewBox="0,0,33.98891,28.42422"><g transform="translate(-225.26642,-165.59785)"><g data-paper-data="{&quot;isPaintingLayer&quot;:true}" fill-rule="nonzero" stroke-linejoin="miter" stroke-miterlimit="10" stroke-dasharray="" stroke-dashoffset="0" style="mix-blend-mode: normal"><g data-paper-data="{&quot;index&quot;:null}"><g data-paper-data="{&quot;index&quot;:null}" stroke="none" stroke-width="0" stroke-linecap="butt"><path d="M254.46979,193.92641c-1.647,0.57696 -4.83376,-1.64441 -4.83376,-1.64441c-0.4816,-0.30357 -0.78946,-0.70405 -1.03989,-1.14852c-0.2181,-0.38712 -0.39263,-0.80758 -0.60043,-1.22649c-0.44639,-0.89988 1.02641,-0.38242 1.02641,-0.38242c0,0 2.1711,0.62169 3.09514,1.37383c0.86757,0.54536 3.5557,2.60652 2.35253,3.028z" data-paper-data="{&quot;index&quot;:null}" fill="#d757d7"/><path d="M246.63088,187.62357c0,0 2.70777,2.07746 3.76613,2.77036c0.71596,0.46873 1.89108,1.17215 1.89108,1.17215c0.26725,0.24142 0.78055,1.36022 -0.02115,1.25621c-0.63023,-0.08178 -2.59466,-1.37143 -2.59466,-1.37143c0,0 -3.36066,-2.47468 -3.94035,-2.76426c-1.80001,-0.96971 -4.61963,-3.2435 -4.61963,-3.2435l0.96052,-1.10925l4.55802,3.2897z" data-paper-data="{&quot;index&quot;:null}" fill="#f8ffff"/></g><path d="M252.17734,193.07221l-0.09109,-0.49679" fill="none" stroke="#000000" stroke-width="0.5" stroke-linecap="round"/><path d="M251.27314,192.62182l-0.13166,-0.43801" fill="none" stroke="#000000" stroke-width="0.5" stroke-linecap="round"/></g><g data-paper-data="{&quot;index&quot;:null}"><g data-paper-data="{&quot;index&quot;:null}" stroke="none" stroke-width="0" stroke-linecap="butt"><path d="M259.10813,185.68857c-1.20774,1.25969 -5.05472,0.72049 -5.05472,0.72049c-0.56683,-0.05282 -1.02258,-0.27069 -1.44699,-0.55377c-0.36963,-0.24654 -0.71552,-0.54254 -1.09038,-0.82211c-0.80525,-0.60056 0.74232,-0.80544 0.74232,-0.80544c0,0 2.21746,-0.42787 3.38181,-0.17517c1.02044,0.09384 4.35026,0.71577 3.46796,1.636z" data-paper-data="{&quot;index&quot;:null}" fill="#d757d7"/><path d="M249.26579,183.61432c0,0 3.35471,0.62756 4.61202,0.76667c0.85055,0.09409 2.21679,0.18972 2.21679,0.18972c0.34755,0.09439 1.31151,0.8599 0.54951,1.12984c-0.59904,0.21221 -2.93441,-0.04911 -2.93441,-0.04911c0,0 -4.11665,-0.68643 -4.76462,-0.68239c-2.04396,-0.05039 -5.58726,-0.80243 -5.58726,-0.80243l0.35473,-1.42381l5.55321,0.87153z" data-paper-data="{&quot;index&quot;:null}" fill="#f8ffff"/></g><path d="M255.15055,185.70545l0.29644,0.4726" fill="none" stroke="#000000" stroke-width="0.5" stroke-linecap="round"/><path d="M256.47628,186.02907l-0.30602,-0.40183" fill="none" stroke="#000000" stroke-width="0.5" stroke-linecap="round"/></g><g data-paper-data="{&quot;index&quot;:null}"><path d="M231.13754,173.56174c1.52243,-3.44928 4.58504,-2.33045 4.84393,-2.26231c0.60007,0.19458 1.14306,0.54819 1.60573,0.97281c0.77746,0.70264 1.35028,1.67274 1.43914,2.72938c-0.02276,0.49826 -0.00389,0.43031 -0.00277,0.92323c0.12469,0.77768 -0.1796,1.68011 -0.49543,2.36081c-0.227,0.56579 -0.54453,1.09003 -0.92906,1.56336c-0.25965,0.29709 -0.48396,0.65861 -0.84909,0.83597c-0.34276,0.15978 -0.75052,0.2341 -1.10976,0.08215c-0.89345,-0.32111 -1.79132,-0.63446 -2.65249,-1.03506c-0.23029,-0.12223 -0.49924,-0.21844 -0.66394,-0.43042c-0.1042,-0.24428 -3.02284,-1.5789 -1.18626,-5.73994z" data-paper-data="{&quot;index&quot;:null}" fill="#a0a8a8" stroke="none" stroke-width="0.17188" stroke-linecap="butt"/><path d="M231.80469,169.81337c0.26357,-0.89364 0.66987,-1.43865 1.09049,-1.67565c0.05975,-0.03386 0.08526,0.01167 0.17253,-0.02241c0.10568,-0.0412 0.30748,-0.19265 0.26295,-0.16682c0,0 0.11224,0.13927 0.18396,0.16387c0.09121,0.0312 0.2429,-0.03267 0.18377,0.04089c0,0 0.15344,0.00307 0.19475,0.03554c0.45131,0.35441 0.91851,1.06555 1.00742,1.76371c0.57729,-0.09044 -2.9335,0.54405 -3.09583,-0.13915z" data-paper-data="{&quot;index&quot;:null}" fill="#ff7fff" stroke="none" stroke-width="0.17188" stroke-linecap="butt"/><path d="M232.27264,179.09838l2.11172,1.12399l1.84872,0.58581l1.35209,0.31801c0.15903,0.03718 -1.68759,1.05874 -2.23848,1.1934c-0.68163,0.16674 -1.3461,0.17062 -2.01032,0.1717c-0.4841,0.00098 -0.65532,-0.05837 -0.97302,-0.13257l-0.98624,-0.23058c-0.1874,-0.04378 -1.0994,-0.35692 -1.17283,-0.59372c-0.02082,-0.0672 0.69085,-0.47229 0.7206,-0.54225l0.21572,-0.51127c0.06415,-0.15163 -0.05171,-0.74395 -0.09783,-0.92139c-0.03358,-0.12962 -0.38641,-0.92419 -0.93881,-1.24251l-0.54645,-0.31484c-0.08182,-0.04716 -1.07773,-0.23965 -1.07827,-0.28126c-0.00137,-0.08579 -1.31582,0.27166 -1.32118,0.18057c-0.03051,-0.50716 -0.08205,-1.12881 0.04875,-1.74101c0.2056,-0.96245 0.66881,-1.90773 0.89834,-2.39576c0.03915,-0.08322 0.55889,-1.13373 1.06369,-1.67378c0.7993,-0.85521 1.70525,-1.12879 1.75859,-1.15175c0.83734,-0.36069 1.69503,-0.52228 2.5703,-0.51142l0.69624,0.10628c0.35639,0.05437 2.02581,0.42331 3.21773,0.9718c2.5084,1.15432 3.54779,3.31596 3.35753,3.46894c-0.26629,0.2145 -1.91164,-0.01355 -1.82154,0.14129c0.19947,0.34315 -0.2245,-1.51403 -0.8753,-2.22352c-0.65081,-0.7095 -2.57393,-1.4817 -2.7316,-1.54073c-0.12457,-0.0468 -0.25647,-0.01786 -0.28034,0.11781c-0.01596,0.09027 -0.26805,1.1023 -0.20156,1.55522c0.0665,0.45292 0.75389,1.66581 0.67788,1.66319c-0.0283,-0.00104 -0.41436,0.22465 -0.44489,0.19685c-0.18441,-0.16835 0.06992,0.59728 0.11607,0.70148c0.12132,0.27406 -1.35253,0.18899 -2.07798,0.83354c-0.72546,0.64455 -1.09865,1.51848 -1.01503,1.76969c0.03332,0.10006 0.06065,0.37156 0.07446,0.5113c0.01824,0.18589 0.0226,0.31011 0.08327,0.39743z" data-paper-data="{&quot;index&quot;:null}" fill="#d757d7" stroke="none" stroke-width="0.17188" stroke-linecap="butt"/><path d="M229.16644,182.1324c-0.4387,0.46548 -1.17933,0.74506 -1.7191,0.77142c-0.04944,0.00249 -0.17078,-0.07466 -0.17078,-0.07466c0.00723,0.08452 -0.07733,-0.04098 -0.16498,-0.06517c-0.06888,-0.01904 -0.23024,0.02505 -0.23024,0.02505c0.02115,0.04198 -0.05622,-0.17327 -0.11675,-0.25816c-0.05018,-0.0701 -0.09419,-0.04987 -0.1231,-0.10567c-0.2026,-0.39098 -0.23131,-1.00025 0.03552,-1.79129c0.3493,-1.03491 1.46968,-1.57404 1.82488,-1.4127c0,0 1.41361,2.11613 0.66456,2.91114z" data-paper-data="{&quot;index&quot;:null}" fill="#ff7fff" stroke="none" stroke-width="0.17188" stroke-linecap="butt"/><path d="M229.46469,178.78527c-0.03311,-0.1784 1.13506,0.83495 1.16525,1.26883c0.05183,0.74616 0.32078,0.78743 -0.06756,1.22837c-0.08703,0.09912 -0.39308,0.23466 -0.67682,0.50046c-0.32853,0.30801 -0.69835,0.54492 -0.70629,0.38976l-0.09963,-0.95703l-0.73665,-1.68611c-0.01147,-0.02622 -0.30795,0.11505 -0.72105,0.35668c-0.28971,0.16939 -0.66858,0.4477 -0.91304,0.68762c-0.144,0.14143 -0.18677,-0.292 -0.10455,-0.84378c0.03982,-0.26749 0.06454,-0.5596 0.20784,-0.83301c0.2483,-0.47344 0.96663,-0.57587 1.59025,-0.44944c0.58403,0.11833 1.08402,0.45632 1.06221,0.33765z" data-paper-data="{&quot;index&quot;:null}" fill="#d757d7" stroke="none" stroke-width="0.17188" stroke-linecap="butt"/><path d="M229.75014,178.06877c1.11717,0.47813 1.59934,2.01583 1.41371,2.35797l-0.15049,0.60213l-0.8269,0.57316c-0.21179,0.1467 0.56757,-1.06381 0.36439,-1.53684c-0.13246,-0.30869 -0.2387,-0.53849 -0.31505,-0.60811c-0.72866,-0.66238 -1.44012,-0.9496 -1.97175,-0.98694c-0.83537,-0.0587 -1.30665,0.37042 -1.31411,-0.05145c-0.01804,-1.00604 1.57923,-0.87238 2.80017,-0.34993z" data-paper-data="{&quot;index&quot;:null}" fill="#ace6ff" stroke="none" stroke-width="0.17188" stroke-linecap="butt"/><path d="M232.46024,170.52301c0,0 -0.43482,0.11088 -0.76262,0.17983c-0.6838,0.14384 -1.25003,0.57152 -1.34427,0.39738c-0.01692,-0.11711 0.31696,-0.52741 0.49432,-0.60032l0.36008,-0.1482c0.63331,-0.26049 1.33539,-0.15842 1.58612,-0.03566c0.10846,0.05308 0.36185,0.02797 0.46616,0.12309c0,0 -0.51636,0.12519 -0.7998,0.08386z" data-paper-data="{&quot;index&quot;:null}" fill="#ace6ff" stroke="none" stroke-width="0.17188" stroke-linecap="butt"/><path d="M231.09449,170.31187c0,0 0.41539,-0.99488 0.76668,-1.04754c0.23332,-0.03512 0.59562,0.32233 0.79423,0.2484c0.2466,-0.09177 0.78096,-0.15396 1.1506,-0.14808c0.3005,0.08784 0.61669,0.10923 0.87657,0.3731c0.30005,0.07697 0.49682,0.99994 0.39432,0.98371l-1.39324,-0.22052c-0.35352,-0.05598 -1.07963,-0.14841 -1.23359,-0.15251z" data-paper-data="{&quot;index&quot;:null}" fill="#d757d7" stroke="none" stroke-width="0.17188" stroke-linecap="butt"/><path d="M232.6221,178.6928c-0.39244,-0.63455 0.0145,-1.59246 0.55705,-1.89098c0.54257,-0.29852 1.30053,-0.02612 1.69297,0.60843c0.39245,0.63454 0.27075,1.39093 -0.27181,1.68945c-0.54256,0.29852 -1.58578,0.22764 -1.97822,-0.40691z" fill="#272d3a" stroke="none" stroke-width="0" stroke-linecap="butt"/><path d="M235.88813,171.61779c0.73606,-0.12197 1.54459,0.55747 1.67677,1.16246c0.13217,0.60498 -0.35738,1.19431 -1.09343,1.31627c-0.73605,0.12196 -1.43989,-0.26962 -1.57206,-0.87461c-0.13217,-0.60498 0.25268,-1.48217 0.98874,-1.60412z" data-paper-data="{&quot;index&quot;:null}" fill="#272d3a" stroke="none" stroke-width="0" stroke-linecap="butt"/><path d="M233.07782,178.32863l1.43931,-0.52348" fill="none" stroke="#000000" stroke-width="0.25" stroke-linecap="round"/><path d="M234.15604,178.78392l-0.76423,-1.38435" fill="none" stroke="#000000" stroke-width="0.25" stroke-linecap="round"/><path d="M232.72322,178.65316c-0.15105,-0.14308 -0.15751,-0.38151 -0.01443,-0.53255c0.14308,-0.15105 0.38151,-0.15751 0.53255,-0.01443c0.15105,0.14308 0.15751,0.38151 0.01443,0.53255c-0.14308,0.15105 -0.38151,0.15751 -0.53255,0.01443z" fill="#000000" stroke="none" stroke-width="0" stroke-linecap="butt"/><path d="M234.30384,177.9805c-0.15105,-0.14308 -0.1575,-0.38152 -0.01443,-0.53255c0.14308,-0.15105 0.38152,-0.15751 0.53256,-0.01443c0.15105,0.14308 0.15751,0.38151 0.01443,0.53255c-0.14308,0.15105 -0.38152,0.1575 -0.53256,0.01443z" fill="#000000" stroke="none" stroke-width="0" stroke-linecap="butt"/><path d="M233.03197,177.53046c-0.15105,-0.14308 -0.1575,-0.38152 -0.01442,-0.53256c0.14308,-0.15105 0.38151,-0.15751 0.53255,-0.01443c0.15105,0.14308 0.15751,0.38151 0.01443,0.53255c-0.14308,0.15104 -0.38152,0.15751 -0.53256,0.01443z" fill="#000000" stroke="none" stroke-width="0" stroke-linecap="butt"/><path d="M233.94539,179.0561c-0.15105,-0.14308 -0.1575,-0.38152 -0.01443,-0.53255c0.14308,-0.15105 0.38152,-0.15751 0.53256,-0.01443c0.15105,0.14308 0.15751,0.38151 0.01443,0.53255c-0.14308,0.15105 -0.38152,0.1575 -0.53256,0.01443z" fill="#000000" stroke="none" stroke-width="0" stroke-linecap="butt"/><path d="M236.92037,172.67797l-1.43931,0.52348" fill="none" stroke="#000000" stroke-width="0.25" stroke-linecap="round"/><path d="M235.79504,172.27239l0.76423,1.38435" fill="none" stroke="#000000" stroke-width="0.25" stroke-linecap="round"/><path d="M235.12646,173.52598c-0.15105,-0.14308 -0.15751,-0.38151 -0.01443,-0.53255c0.14308,-0.15105 0.38152,-0.15751 0.53256,-0.01443c0.15105,0.14308 0.1575,0.38152 0.01442,0.53256c-0.14308,0.15105 -0.38151,0.15751 -0.53255,0.01443z" fill="#000000" stroke="none" stroke-width="0" stroke-linecap="butt"/><path d="M236.70708,172.85333c-0.15105,-0.14308 -0.1575,-0.38152 -0.01443,-0.53255c0.14308,-0.15105 0.38151,-0.15751 0.53255,-0.01443c0.15105,0.14308 0.15751,0.38151 0.01443,0.53255c-0.14308,0.15105 -0.38152,0.1575 -0.53255,0.01443z" fill="#000000" stroke="none" stroke-width="0" stroke-linecap="butt"/><path d="M235.4352,172.40328c-0.15105,-0.14308 -0.1575,-0.38152 -0.01442,-0.53256c0.14308,-0.15105 0.38152,-0.15751 0.53256,-0.01443c0.15105,0.14308 0.15751,0.38151 0.01443,0.53255c-0.14308,0.15104 -0.38153,0.15751 -0.53257,0.01444z" fill="#000000" stroke="none" stroke-width="0" stroke-linecap="butt"/><path d="M236.34863,173.92893c-0.15105,-0.14308 -0.1575,-0.38152 -0.01443,-0.53255c0.14308,-0.15105 0.38151,-0.15751 0.53255,-0.01443c0.15105,0.14308 0.15751,0.38151 0.01443,0.53255c-0.14308,0.15105 -0.38152,0.1575 -0.53255,0.01443z" fill="#000000" stroke="none" stroke-width="0" stroke-linecap="butt"/></g><g data-paper-data="{&quot;index&quot;:null}"><g data-paper-data="{&quot;index&quot;:null}" stroke="none" stroke-width="0" stroke-linecap="butt"><path d="M243.06426,182.02972c0,0 5.39704,-0.57113 5.54696,-0.66991c0.14993,-0.09878 0.42647,0.27104 0.70326,0.66587c0.27679,0.39482 0.6932,1.38952 0.6932,1.38952c0,0 -0.18157,-0.37378 -1.18641,-0.48181c-0.59471,-0.06395 -1.66835,-0.00933 -2.48403,-0.10813c-1.47981,-0.17925 -3.27299,-0.79552 -3.27299,-0.79552z" fill="#d757d7"/><path d="M244.23874,182.28134c-4.17523,-0.66077 -4.93239,-2.46163 -4.93239,-2.46163c0,0 -0.28848,-0.19841 1.1488,0.06712c0.49432,0.09132 1.51612,-0.71824 4.05425,-0.52305c3.24742,0.24974 4.46549,2.1819 4.46549,2.1819c0,0 -1.73093,1.21126 -4.73615,0.73565z" fill="#f8ffff"/></g><path d="M247.68935,182.29698l-0.57205,-0.36403" fill="none" stroke="#000000" stroke-width="0.25" stroke-linecap="round"/><path d="M248.25395,181.68036l0.43832,0.39375" fill="none" stroke="#000000" stroke-width="0.25" stroke-linecap="round"/></g><g data-paper-data="{&quot;index&quot;:null}"><g data-paper-data="{&quot;index&quot;:null}" stroke="none" stroke-width="0" stroke-linecap="butt"><path d="M248.87,187.54179c0,0 -0.94123,-0.85823 -1.99169,-1.28078c-1.05045,-0.42254 -3.86525,-0.86199 -3.86525,-0.86199l3.12222,-4.07327c0,0 1.63317,1.20486 2.40407,2.3301c1.01977,1.48847 0.33066,3.88593 0.33066,3.88593z" fill="#d757d7"/><path d="M247.56638,184.56599c-0.67535,1.28639 -5.09179,1.17116 -6.81205,0.08433c-1.83881,-1.16175 -2.31197,-4.5194 -2.31197,-4.5194l0.67581,-0.56195c0,0 0.81299,0.88944 2.73409,0.72746c2.81675,-0.23748 3.60848,0.67527 4.28302,1.02932c0.67966,0.35673 2.13367,1.90204 1.43111,3.24023z" fill="#f8ffff"/></g><path d="M246.52405,185.50851l-0.52133,-0.25688" fill="none" stroke="#000000" stroke-width="0.25" stroke-linecap="round"/><path d="M247.62526,184.91728l-0.45648,-0.27892" fill="none" stroke="#000000" stroke-width="0.25" stroke-linecap="round"/><path d="M247.37906,183.55415l0.67307,0.27767" fill="none" stroke="#000000" stroke-width="0.25" stroke-linecap="round"/></g><g data-paper-data="{&quot;index&quot;:null}"><g data-paper-data="{&quot;index&quot;:null}" stroke="none" stroke-width="0" stroke-linecap="butt"><path d="M240.48924,192.26628c0,0 -2.92453,-0.70287 -3.1237,-4.10847c-0.0377,-0.64481 1.20556,1.97642 1.94017,1.78304c0.73452,-0.19335 1.59169,-3.35977 1.59169,-3.35977c0,0 -0.55353,2.90785 -0.57118,3.68972c-0.01764,0.78186 0.16301,1.99552 0.16301,1.99552z" fill="#d757d7"/><path d="M238.61076,180.53754c0,0 2.25851,4.38743 2.2075,5.98249c-0.04709,1.47258 -1.48485,4.54488 -2.33741,3.87477c-0.85255,-0.67012 -1.53743,-3.13621 -1.04974,-5.32423c0.40248,-1.80574 1.17966,-4.53302 1.17966,-4.53302z" fill="#f8ffff"/></g><path d="M239.78693,190.18225l-0.33317,-0.82856" fill="none" stroke="#000000" stroke-width="0.25" stroke-linecap="round"/><path d="M238.72671,190.26319l0.24874,0.53413" fill="none" stroke="#000000" stroke-width="0.25" stroke-linecap="round"/></g><g data-paper-data="{&quot;index&quot;:null}"><g data-paper-data="{&quot;index&quot;:null}" stroke="none" stroke-width="0" stroke-linecap="butt"><path d="M244.144,185.75958c0,0 1.46716,1.27355 1.79906,2.53538c0.39951,1.51887 1.4717,3.68657 1.4717,3.68657c0,0 -3.48902,-0.6052 -4.82742,-1.24195c-2.31901,-1.09974 -2.62845,-2.32594 -2.62845,-2.32594c0,0 3.04911,1.40382 3.9164,0.92124c0.85464,-0.47551 0.26868,-3.57532 0.26868,-3.57532z" fill="#d757d7"/><path d="M239.91906,188.50413c-0.09472,-0.12521 -1.37985,-1.99974 -1.2684,-3.42445c0.14792,-1.8909 -0.93075,-1.90336 -0.09965,-2.26459c0.83111,-0.36122 2.62419,-0.40847 3.71707,0.7109c0.90967,0.93169 1.89542,2.26186 1.89542,2.26186c0,0 1.12523,3.24376 -0.2258,3.79899c-1.54179,0.59069 -3.91979,-0.95207 -4.01862,-1.08272z" fill="#f8ffff"/></g><path d="M244.46235,187.67795l0.4087,0.34517" fill="none" stroke="#000000" stroke-width="0.25" stroke-linecap="round"/><path d="M244.178,189.25146l0.47808,0.20863" fill="none" stroke="#000000" stroke-width="0.25" stroke-linecap="round"/><path d="M243.21415,189.99854l-0.54432,-0.55153" fill="none" stroke="#000000" stroke-width="0.25" stroke-linecap="round"/></g><g data-paper-data="{&quot;index&quot;:null}"><path d="M238.4023,183.10415c-0.50062,-0.19563 -1.03848,-1.41124 -1.33715,-2.48471c-0.29867,-1.07346 0.0877,-1.57557 0.18844,-1.64398c0.12726,-0.08641 0.98434,-0.96898 1.78786,-1.03485c0.80352,-0.06586 0.83984,0.41102 1.30672,0.7812c0.46687,0.37017 1.14029,1.07836 1.23341,1.23282c0.23837,0.39565 -1.06114,1.02825 -1.10674,1.40004c0,0 -1.54608,1.87341 -2.07254,1.74947z" data-paper-data="{&quot;index&quot;:null}" fill="#d757d7" stroke="none" stroke-width="0.17188" stroke-linecap="butt"/><path d="M239.39755,182.12545c0.50683,-0.34415 0.5193,-0.76622 0.83476,-0.6185c0.16291,0.07628 -0.17233,0.71923 -0.69745,1.03422c-0.66641,0.24384 -1.15747,0.96893 -1.15747,0.96893l-0.15475,-0.62663c0,0 0.66806,-0.41387 1.17489,-0.75801z" data-paper-data="{&quot;index&quot;:null}" fill="#ace6ff" stroke="none" stroke-width="0" stroke-linecap="butt"/><path d="M241.58342,179.85091l0.55828,0.21592c0,0 -0.68833,0.22927 -1.09554,0.81042c-0.43957,0.42631 -0.8257,0.20888 -0.36266,-0.19225c0.46304,-0.40113 0.89991,-0.8341 0.89991,-0.8341z" data-paper-data="{&quot;index&quot;:null}" fill="#ace6ff" stroke="none" stroke-width="0" stroke-linecap="butt"/><path d="M239.47918,182.21242l-0.14901,-0.35924" fill="none" stroke="#000000" stroke-width="0.25" stroke-linecap="round"/><path d="M238.59011,182.42437l0.10906,0.32277" fill="none" stroke="#000000" stroke-width="0.25" stroke-linecap="round"/><path d="M240.96738,180.5627l-0.19733,-0.23556" fill="none" stroke="#000000" stroke-width="0.25" stroke-linecap="round"/><path d="M241.26727,179.86665l0.33606,0.23324" fill="none" stroke="#000000" stroke-width="0.25" stroke-linecap="round"/></g><g data-paper-data="{&quot;index&quot;:null}"><g stroke="#ffffff" stroke-width="0" stroke-linecap="butt"><path d="M239.70167,175.71297l0.71735,0.14041l-0.41515,2.69051l-0.76786,-0.38549z" data-paper-data="{&quot;index&quot;:null}" fill="#d757d7"/><path d="M239.83349,172.01692l1.33371,0.76035c0,0 -0.22043,2.10387 -0.68656,3.06551c-0.19291,0.398 -0.79709,0.39688 -0.92985,-0.23673c-0.1241,-0.59227 0.2827,-3.58913 0.2827,-3.58913z" data-paper-data="{&quot;index&quot;:null}" fill="#ace6ff"/><path d="M242.91034,171.47235c1.42381,0.35341 2.43161,2.0663 2.15818,2.35981c-0.86452,0.928 -1.59909,0.90008 -3.04691,0.66362c-1.75363,-0.28641 -2.57717,-2.40037 -2.04889,-3.10443c0.17295,-0.23052 1.51382,-0.2724 2.93762,0.08101z" data-paper-data="{&quot;index&quot;:null}" fill="#f8ffff"/></g><path d="M244.29157,174.36584c0,0 -1.46415,-0.42072 -2.18423,-1.0668c-0.72008,-0.64608 -1.51913,-1.97779 -1.51913,-1.97779" data-paper-data="{&quot;index&quot;:null}" fill="none" stroke="#000000" stroke-width="0.5" stroke-linecap="round"/><path d="M241.43197,171.77l-0.62978,0.53847" data-paper-data="{&quot;index&quot;:null}" fill="none" stroke="#f8ffff" stroke-width="0.5" stroke-linecap="round"/><path d="M242.17525,172.81478l-0.47712,0.44795" data-paper-data="{&quot;index&quot;:null}" fill="none" stroke="#f8ffff" stroke-width="0.5" stroke-linecap="round"/><path d="M242.58944,173.93087l0.41039,-0.49092" data-paper-data="{&quot;index&quot;:null}" fill="none" stroke="#f8ffff" stroke-width="0.5" stroke-linecap="round"/><path d="M243.71932,174.37504l0.25775,-0.40041" data-paper-data="{&quot;index&quot;:null}" fill="none" stroke="#f8ffff" stroke-width="0.5" stroke-linecap="round"/></g><g data-paper-data="{&quot;index&quot;:null}" stroke="none" stroke-linecap="butt"><path d="M238.15873,178.51865c0.102,-0.1528 0.32541,-0.12876 0.60389,0.03339c0.27848,0.16215 0.61225,0.46245 0.9348,0.86236c0.32252,0.39981 0.57328,0.82418 0.71809,1.18675c0.1447,0.3626 0.18329,0.66333 0.0813,0.81612c-0.10193,0.15268 -0.32534,0.12864 -0.60393,-0.03349c-0.27848,-0.16215 -0.61215,-0.46248 -0.9347,-0.86239c-0.32252,-0.39981 -0.5734,-0.82415 -0.71809,-1.18675c-0.1448,-0.36257 -0.18328,-0.66333 -0.08136,-0.816z" fill="#03e1b6" stroke-width="0.01872"/><path d="M239.62362,179.74297c0.28934,0.39314 0.3873,0.81236 0.21881,0.93637c-0.16849,0.124 -0.53962,-0.09418 -0.82896,-0.48732c-0.28934,-0.39314 -0.3873,-0.81236 -0.21881,-0.93637c0.16849,-0.124 0.53962,0.09418 0.82896,0.48732z" fill="#216375" stroke-width="0"/><path d="M238.18353,178.748c0.05608,-0.04705 0.14601,-0.01783 0.24598,0.06743c0.10007,0.08526 0.21015,0.22657 0.30656,0.40362c0.09648,0.17706 0.16103,0.35658 0.18752,0.50361c0.02647,0.14711 0.01489,0.26169 -0.04118,0.30873c-0.05597,0.04713 -0.14593,0.01784 -0.24599,-0.06743c-0.10007,-0.08526 -0.21015,-0.22658 -0.30654,-0.40354c-0.09639,-0.17706 -0.16103,-0.35667 -0.18751,-0.5037c-0.02647,-0.14711 -0.01488,-0.2616 0.0412,-0.30873z" fill="#000000" stroke-width="0.01896"/></g><g data-paper-data="{&quot;index&quot;:null}"><g stroke="none" stroke-width="0" stroke-linecap="butt"><path d="M236.39995,177.98888l0.72861,-0.05866l0.32737,2.70261l-0.84346,-0.16365z" fill="#d757d7"/><path d="M236.22578,177.92672c-0.27954,-0.53669 -0.69771,-3.53198 -0.69771,-3.53198l1.48956,0.37165c0,0 0.35632,2.08516 0.1674,3.13699c-0.07819,0.4353 -0.66019,0.5975 -0.95922,0.02335z" fill="#ace6ff"/><path d="M238.37617,173.17396c1.4664,0.04219 2.81575,1.50127 2.61109,1.84625c-0.64713,1.09078 -1.37081,1.21988 -2.83579,1.29706c-1.77441,0.09349 -3.0291,-1.79671 -2.66282,-2.59708c0.11992,-0.26204 1.42113,-0.58844 2.88753,-0.54625z" fill="#f8ffff"/></g><path d="M240.00069,175.77105c0,0 -1.52246,-0.05344 -2.37763,-0.50578c-0.85516,-0.45235 -1.95308,-1.55075 -1.95308,-1.55075" fill="none" stroke="#000000" stroke-width="0.5" stroke-linecap="round"/><path d="M236.1168,174.62047l0.48053,-0.67502" fill="none" stroke="#f8ffff" stroke-width="0.5" stroke-linecap="round"/><path d="M237.57161,174.77899l-0.35437,0.55022" fill="none" stroke="#f8ffff" stroke-width="0.5" stroke-linecap="round"/><path d="M238.24389,175.76145l0.27923,-0.57572" fill="none" stroke="#f8ffff" stroke-width="0.5" stroke-linecap="round"/><path d="M239.60077,175.46769l-0.15304,0.45093" fill="none" stroke="#f8ffff" stroke-width="0.5" stroke-linecap="round"/></g><g data-paper-data="{&quot;index&quot;:null}"><path d="M229.43418,174.31337c0,0 -1.69965,-1.27772 -2.44334,-2.38261c-0.74369,-1.10491 -0.52395,-2.85236 -0.52395,-2.85236l0.72761,0.19021c0,0 -0.30754,1.18735 0.40247,2.23559c0.71002,1.04824 2.21757,2.25386 2.21757,2.25386z" fill="#565e69" stroke="none" stroke-width="0" stroke-linecap="butt"/><path d="M226.47235,169.87916l-0.96573,-3.544l1.10711,-0.03026l0.81718,-0.70705l0.98797,0.52502l0.21352,1.01275l0.46845,0.51356z" fill="#00eb5c" stroke="none" stroke-width="0" stroke-linecap="butt"/><path d="M226.59876,169.76829l1.38224,-3.54668" fill="none" stroke="#000000" stroke-width="0.25" stroke-linecap="round"/><path d="M229.11433,167.62505l-2.05744,0.65007l-1.66546,-1.98459" fill="none" stroke="#000000" stroke-width="0.25" stroke-linecap="round"/></g></g></g></svg>