<svg version="1.1" xmlns="http://www.w3.org/2000/svg" xmlns:xlink="http://www.w3.org/1999/xlink" width="31.9745" height="35.37011" viewBox="0,0,31.9745,35.37011"><g transform="translate(-226.39035,-165.50483)"><g data-paper-data="{&quot;isPaintingLayer&quot;:true}" fill-rule="nonzero" stroke-miterlimit="10" stroke-dasharray="" stroke-dashoffset="0" style="mix-blend-mode: normal"><g data-paper-data="{&quot;index&quot;:null}" stroke-width="0" stroke-linecap="butt" stroke-linejoin="miter"><g data-paper-data="{&quot;index&quot;:null}"><path d="M247.59995,169.35597c-1.06737,0 -1.93265,-0.86211 -1.93265,-1.92557c0,-1.06346 0.86527,-1.92557 1.93265,-1.92557c1.06737,0 1.93267,0.86211 1.93267,1.92557c0,1.06346 -0.86529,1.92557 -1.93267,1.92557z" fill="#e0cb17" stroke="none"/><path d="M247.67079,169.25516c-0.65944,0 -1.194,-0.53261 -1.194,-1.18962c0,-0.65702 0.53456,-1.18962 1.194,-1.18962c0.65944,0 1.194,0.53261 1.194,1.18962c0,0.65701 -0.53456,1.18962 -1.194,1.18962z" fill="#e0cb17" stroke="#000000"/><path d="M247.17677,175.60144c0,0 -1.33147,-3.13414 -0.98611,-4.48625c0.33262,-1.3022 0.48585,-1.50522 0.48585,-1.50522l2.10321,0.01487c0,0 0.78596,1.09728 0.44156,2.13075c-0.34441,1.03347 -2.04451,3.84585 -2.04451,3.84585z" fill="#e8edf4" stroke="#000000"/><path d="M247.69758,169.84999c-0.58416,-0.0026 -1.30651,-0.35626 -1.30651,-0.35626l0.28233,-0.4899c0,0 0.63821,0.33264 1.09235,0.30689c0.45415,-0.02575 1.08264,-0.43022 1.08264,-0.43022l0.21781,0.68142c0,0 -0.85738,0.29035 -1.36863,0.28808z" fill="#dbded5" stroke="#000000"/></g><g data-paper-data="{&quot;index&quot;:null}" stroke="none"><path d="M242.0044,174.35808c0,0.41758 -0.1631,0.75611 -0.36428,0.75611c-0.20118,0 -0.36426,-0.33852 -0.36426,-0.75611c0,-0.41759 0.16308,-0.75611 0.36426,-0.75611c0.20119,0 0.36428,0.33852 0.36428,0.75611z" fill="#000000"/><path d="M240.23471,178.87692c0.20956,0 0.98657,2.14736 0.98657,2.14736c0,0 -1.05021,0.33269 -1.25977,0.33269c-0.20955,0 -0.56158,-1.2075 -0.56158,-1.39124c0,-0.18374 0.62523,-1.0888 0.83479,-1.0888z" fill="#807d5a"/><path d="M241.40343,174.88465l-0.1012,-0.31253l4.86707,-5.89768l0.13154,0.15122z" fill="#6e6e73"/><path d="M245.61277,169.1785l0.33391,0.32261l-1.17375,1.36101l-0.30356,-0.32261z" fill="#ddcb1e"/></g></g><g data-paper-data="{&quot;index&quot;:null}" stroke-width="0" stroke-linecap="butt" stroke-linejoin="miter"><g data-paper-data="{&quot;index&quot;:null}"><path d="M226.39036,168.41603c0,-1.36425 1.11002,-2.47019 2.47929,-2.47019c1.36928,0 2.47929,1.10595 2.47929,2.47019c0,1.36425 -1.11002,2.47018 -2.47929,2.47018c-1.36927,0 -2.47929,-1.10594 -2.47929,-2.47018z" fill="#e0cb17" stroke="none"/><path d="M227.24708,169.2308c0,-0.84284 0.68578,-1.52608 1.53171,-1.52608c0.84594,0 1.5317,0.68324 1.5317,1.52608c0,0.84283 -0.68577,1.52609 -1.5317,1.52609c-0.84594,0 -1.53171,-0.68325 -1.53171,-1.52609z" fill="#e0cb17" stroke="#000000"/><path d="M226.78976,173.96453c-0.44181,-1.32577 0.56646,-2.7334 0.56646,-2.7334l2.69807,-0.01907c0,0 0.19657,0.26044 0.62326,1.93095c0.44304,1.73451 -1.26501,5.36956 -1.26501,5.36956c0,0 -2.18096,-3.22229 -2.62278,-4.54805z" fill="#e8edf4" stroke="#000000"/><path d="M228.74441,171.51996c-0.65585,0.00291 -1.75571,-0.36955 -1.75571,-0.36955l0.27941,-0.87416c0,0 0.80625,0.51889 1.38884,0.55192c0.5826,0.03303 1.40131,-0.39371 1.40131,-0.39371l0.36218,0.62847c0,0 -0.92665,0.45371 -1.67602,0.45702z" fill="#dbded5" stroke="#000000"/></g><g data-paper-data="{&quot;index&quot;:null}" stroke="none"><path d="M235.23356,178.83712c0.20578,-0.4242 0.50039,-2.89051 1.79131,-2.85171c0.20036,0.00602 1.7467,1.3038 1.98128,2.35045c0.3191,1.42374 -0.69622,2.71278 -0.69622,2.71278l-3.11533,-0.0194c0,0 -0.16684,-1.76794 0.03894,-2.19213z" fill="#e4dcaa"/><path d="M236.51509,176.33311c0.25809,0 0.46731,0.43427 0.46731,0.96997c0,0.5357 -0.20923,0.96997 -0.46731,0.96997c-0.25808,0 -0.46729,-0.43427 -0.46729,-0.96997c0,-0.53571 0.20921,-0.96997 0.46729,-0.96997z" fill="#000000"/><path d="M235.3469,183.21343c-0.14743,-0.84753 -0.15577,-2.1986 -0.15577,-2.1986c0,0 0.56637,-0.34524 0.93073,-0.45271c0.36436,-0.10747 0.96773,-0.159 0.96773,-0.159l1.23122,0.78486c0,0 0.2064,2.9878 0.21929,3.37045c0.02595,0.77064 -1.4019,1.34502 -1.4019,1.34502l-1.18066,-0.48271c0,0 -0.46323,-1.35979 -0.61066,-2.20732z" fill="#dfcc17"/><path d="M237.05243,185.8547c0,0 0.99676,-2.75471 1.2656,-2.75471c0.26884,0 1.0709,1.16105 1.0709,1.39676c0,0.23571 -0.45159,1.78475 -0.72043,1.78475c-0.26884,0 -1.61608,-0.42678 -1.61608,-0.42678z" fill="#807d5a"/><path d="M230.5362,170.2059l0.16875,-0.194l6.24365,7.56575l-0.12981,0.40092z" fill="#6e6e73"/><path d="M232.88568,172.40449l-0.38942,0.41386l-1.50574,-1.74595l0.42836,-0.41385z" fill="#ddcb1e"/></g></g><g stroke="none" stroke-width="0" stroke-linecap="butt" stroke-linejoin="miter"><g><path d="M238.22158,193.09086c0,0 -0.19448,0.32421 -0.14907,0.78684c0.05534,0.56362 0.48599,0.8714 0.73595,1.71756c0.54159,1.8334 0.11858,3.52158 3.34784,4.14311c0.37931,-0.01346 0.96854,-0.26749 0.96854,-0.26749c0,0 0.03591,0.32599 -0.06489,0.51687c-0.1008,0.19088 -0.40628,0.37533 -0.40628,0.37533l-0.25389,-0.05493l-0.0414,0.16997c0,0 -0.16405,0.06127 -0.33188,0.07051c-0.16783,0.00924 -0.36536,0.00992 -0.42917,-0.01767c-0.07802,-0.03374 0.06192,-0.11186 -0.0499,-0.12197c-0.069,-0.00624 -0.09132,-0.03754 -0.15709,-0.04275c-0.10097,-0.00799 0.0129,0.11969 -0.09029,0.10341c-0.2664,-0.04201 -0.63372,-0.23976 -0.79093,-0.28599c-0.13113,-0.03857 -0.04265,-0.29701 -0.04265,-0.29701l-0.16566,-0.04973l-0.1235,0.13002c0,0 -0.36993,-0.33614 -0.49839,-0.41896c-0.39983,-0.25777 -0.17663,-0.45204 -0.17663,-0.45204l-0.14803,-0.1764l-0.15516,0.08924l-0.40615,-0.67952l0.06236,-0.19746c0,0 -0.10539,-0.84908 -0.30881,-1.22099c-0.204,-0.37298 -0.91345,-1.01372 -0.91345,-1.01372l-0.20602,0.13344l-0.3452,-0.70564l0.19948,-0.32053c0,0 -0.27184,0.05454 -0.29617,-0.06799c-0.26182,-1.31865 1.23644,-1.84552 1.23644,-1.84552z" data-paper-data="{&quot;index&quot;:null}" fill="#a87643"/><path d="M241.20503,194.89062c-0.19245,1.77278 -1.35383,2.348 -1.35383,2.348c0,0 -1.76804,-2.43471 -1.87081,-3.35259c-0.07663,-0.68453 0.95949,-1.61841 0.95949,-1.61841c0,0 0.20351,-1.23954 0.25013,-1.645c0.04661,-0.40546 0.19384,-1.08357 0.19384,-1.08357c0,0 1.7585,0.41932 2.07204,0.6702c0.2354,0.20374 -0.14065,3.66624 -0.25085,4.68137z" data-paper-data="{&quot;index&quot;:null}" fill="#f3e2e2"/><path d="M240.90999,189.48218c0.14238,-0.10585 0.89664,-0.04802 1.58607,0.34364c0.20654,0.11733 -0.12882,1.37679 -0.16352,2.9786c-0.01937,0.89425 0.16705,2.24915 0.2422,3.05404c0.08076,0.86501 0.8353,1.75209 0.84605,1.94753c0.03866,0.70305 -0.28549,1.70977 -0.29985,1.71774c-0.00802,0.00445 -0.94283,0.75112 -2.30714,0.08275c-1.80985,-0.88665 -2.06416,-4.09988 -2.06416,-4.09988c0,0 0.60163,-0.52686 0.76351,0.02452c0.187,0.68847 0.09055,0.54426 0.18529,1.06547c0.0196,0.198 0.07886,0.49613 0.11434,0.49293c0.36245,-0.03265 1.14593,-1.25435 1.28912,-1.88835c0.11606,-0.5139 0.2009,-1.54661 0.22973,-2.4452c0.02532,-0.78922 0.15732,-1.54502 0.19224,-2.05583c0.02122,-0.31048 -0.12074,-0.53163 -0.12074,-0.53163c0,0 -0.7221,-0.51612 -0.49313,-0.68635z" data-paper-data="{&quot;index&quot;:null}" fill="#fc6293"/><path d="M242.38795,195.44981c0,0 -0.18035,-1.3453 -0.1249,-2.24738c0.07315,-1.19008 0.23851,-2.64946 0.23245,-3.04833c-0.00305,-0.20066 -0.33327,-0.41379 -0.33327,-0.41379l0.11948,-0.06632c0,0 0.38205,0.1957 0.35664,0.45129c-0.14607,1.46908 -0.27461,2.2941 -0.22741,3.16256c0.0341,0.62739 0.18693,2.7748 0.18693,2.7748z" data-paper-data="{&quot;index&quot;:null}" fill="#766565"/><path d="M239.86753,193.49564l0.12644,-1.17463l0.63294,0.07818l-0.17807,1.2033z" data-paper-data="{&quot;index&quot;:null}" fill="#fffff6"/><path d="M239.92484,191.64008l0.10927,-0.9573l0.56553,0.08558l-0.05812,1.01535z" data-paper-data="{&quot;index&quot;:null}" fill="#fffff6"/><path d="M242.45457,191.54211c0,0 -0.23361,0.14262 -0.70995,0.22774c-0.47633,0.08512 -1.206,0.00738 -1.206,0.00738l0.07266,-1.01284c0,0 0.51658,0.12574 0.93685,0.09905c0.42027,-0.02669 1.05521,-0.22555 1.05521,-0.22555l-0.14875,0.90421z" data-paper-data="{&quot;index&quot;:null}" fill="#754c86"/><path d="M241.41035,193.70664c-0.40576,-0.00294 -0.99192,-0.09213 -0.99192,-0.09213l0.15969,-1.21369c0,0 0.41859,0.06207 0.80337,0.02744c0.38478,-0.03463 1.02799,-0.20028 1.02799,-0.20028c0,0 -0.00855,0.47694 -0.00704,0.73044c0.00151,0.2535 0.01525,0.64941 0.01525,0.64941c0,0 -0.60159,0.10174 -1.00735,0.09881z" data-paper-data="{&quot;index&quot;:null}" fill="#754c86"/><path d="M239.4012,189.54874c0,0 0.33122,-0.14983 0.54747,-0.16438c0.13089,-0.0088 0.46007,0.01873 0.81194,0.01234c0.35187,-0.00639 0.44075,0.04653 0.44075,0.04653l-1.63215,0.16274z" data-paper-data="{&quot;index&quot;:null}" fill="#ae8484"/><path d="M242.11601,189.91251c-0.01331,0.14903 -0.14834,0.24664 -0.53134,0.23073c-0.383,-0.01591 -0.27812,-0.06975 -0.98628,-0.25126c-0.34752,-0.08381 -1.01347,-0.27909 -1.01347,-0.27909c0,0 0.46525,-0.2223 1.31786,-0.1461c0.85262,0.0762 1.23379,0.23606 1.2159,0.43635z" data-paper-data="{&quot;index&quot;:null}" fill="#532c31"/></g><path d="M240.08594,189.4108c0,0 -0.46017,-0.63877 -0.26614,-0.96402c0.19403,-0.32525 0.56435,-0.21207 0.84227,0.01305c0.27792,0.22511 0.35584,0.95741 0.35584,0.95741z" fill="#f3e2e2"/></g><g stroke="none" stroke-width="0" stroke-linecap="butt" stroke-linejoin="miter"><path d="M241.60179,184.53089l0.04232,3.74693l-0.01442,1.92895l-1.17778,-0.27827l-0.11333,-2.09854l0.0052,-3.46327z" data-paper-data="{&quot;index&quot;:null}" fill="#8e5173"/><path d="M241.62013,187.51623l0.024,0.76159l-0.01442,1.92895l-1.17778,-0.27827l-0.11333,-2.09854l0.0052,-0.49624z" data-paper-data="{&quot;index&quot;:null}" fill="#c5c0b5"/><path d="M240.33576,187.59216l0.01618,-0.2589l1.27832,0.178v0.27508z" fill="#af2753"/><path d="M240.33576,188.0776l0.01618,-0.2589l1.27832,0.178v0.27508z" fill="#af2753"/></g><path d="M240.23326,182.79337c0,0 -1.3807,1.61629 -2.1639,1.87063c-0.85108,0.27637 -3.06552,0.1227 -3.06552,0.1227l2.67297,-0.9852l1.26675,-0.67558z" data-paper-data="{&quot;index&quot;:null}" fill="#f79db4" stroke="none" stroke-width="0" stroke-linecap="butt" stroke-linejoin="miter"/><path d="M247.65981,184.82609c0.08534,0.10532 0.12037,1.15635 0.06605,1.62743c-0.02968,0.25728 -0.08185,0.73699 -0.50016,0.85689c-0.10662,0.03056 -0.63369,-0.09125 -0.63369,-0.09125l-0.25054,0.33648c0,0 -0.24039,0.06821 -0.38662,0.02934c-0.14623,-0.03887 -0.36968,-0.21058 -0.36968,-0.21058c0,0 -0.16294,0.05419 -0.26942,0.1158c-0.34752,0.20109 -0.56383,-0.1071 -0.56383,-0.1071c0,0 -0.23539,0.17475 -0.44778,0.17979c-0.3367,0.008 -0.72952,-0.17106 -0.89956,-0.33215c-0.28886,-0.27364 -0.89149,-1.20483 -0.70336,-1.52406c0.29302,-0.49719 0.85909,-0.06725 0.85909,-0.06725c0,0 -0.23164,-0.55609 -0.17941,-0.91698c0.08043,-0.5557 0.34775,-0.80251 0.34775,-0.80251l2.34737,-0.71933c0,0 1.04817,0.96445 1.58379,1.62549z" fill="#ffffff" stroke="none" stroke-width="0" stroke-linecap="butt" stroke-linejoin="miter"/><path d="M243.20503,180.46208c0.82561,0.93812 1.73541,1.85285 1.73541,1.85285c0,0 -0.45566,0.287 -0.74739,0.39502c-0.29173,0.10802 -0.53069,0.03417 -0.53069,0.03417c0,0 -1.0084,-1.30192 -1.34148,-1.68038c-0.54635,-0.6208 -1.27094,-1.37921 -2.11746,-2.22895c-0.21211,-0.21291 -0.22401,-0.44715 -0.01573,-0.67233c0.13993,-0.15128 0.33167,-0.23565 0.62863,-0.006c0.89681,0.69351 1.81124,1.64947 2.3887,2.30563z" fill="#fff9fb" stroke="none" stroke-width="0" stroke-linecap="butt" stroke-linejoin="miter"/><g stroke="none" stroke-width="0" stroke-linecap="butt" stroke-linejoin="miter"><path d="M237.17709,189.09835c0,0 -0.51108,-0.59882 -0.34442,-0.9389c0.16666,-0.34008 0.54502,-0.25771 0.84049,-0.05618c0.29548,0.20153 0.43328,0.92495 0.43328,0.92495z" fill="#fc6293"/><g><path d="M235.47652,192.55879c0,0 -0.24929,0.30939 -0.26885,0.79753c-0.02383,0.5947 0.37999,0.97731 0.51794,1.89423c0.29889,1.98674 -0.38536,3.68295 2.88637,4.79649c0.39679,0.0408 1.04685,-0.13851 1.04685,-0.13851c0,0 -0.00971,0.34453 -0.14222,0.52866c-0.13251,0.18413 -0.47715,0.332 -0.47715,0.332l-0.25635,-0.09386l-0.06766,0.17095c0,0 -0.17962,0.04008 -0.35566,0.02545c-0.17604,-0.01462 -0.38176,-0.04247 -0.4442,-0.08041c-0.07635,-0.04639 0.08061,-0.1075 -0.03432,-0.13417c-0.07092,-0.01647 -0.08963,-0.05228 -0.15734,-0.06719c-0.10395,-0.0229 -0.00386,0.12645 -0.10893,0.09461c-0.27124,-0.08222 -0.62504,-0.34114 -0.782,-0.41198c-0.13093,-0.0591 -0.00149,-0.31534 -0.00149,-0.31534l-0.16526,-0.0757l-0.14734,0.1175c0,0 -0.33652,-0.40336 -0.45828,-0.50813c-0.37896,-0.3261 -0.11855,-0.49607 -0.11855,-0.49607l-0.12861,-0.20502l-0.1744,0.07048l-0.32461,-0.76604l0.09344,-0.19653c0,0 0.01297,-0.89908 -0.14504,-1.31562c-0.15847,-0.41773 -0.80441,-1.18721 -0.80441,-1.18721l-0.23373,0.10914l-0.25738,-0.78441l0.25396,-0.30483c0,0 -0.29085,0.01749 -0.29847,-0.11356c-0.08202,-1.41048 1.55372,-1.74246 1.55372,-1.74246z" data-paper-data="{&quot;index&quot;:null}" fill="#a87643"/><path d="M238.32215,194.8633c-0.45646,1.81758 -1.74851,2.24856 -1.74851,2.24856c0,0 -1.48869,-2.78987 -1.46304,-3.7602c0.01913,-0.72364 1.23261,-1.54606 1.23261,-1.54606c0,0 0.39094,-1.2609 0.49804,-1.67623c0.1071,-0.41533 0.35833,-1.09994 0.35833,-1.09994c0,0 1.76994,0.69056 2.06007,0.99702c0.21561,0.24609 -0.6761,3.79607 -0.93748,4.83686z" data-paper-data="{&quot;index&quot;:null}" fill="#fc6293"/><path d="M238.79636,189.19072c0.1635,-0.08962 0.94031,0.07957 1.60138,0.58687c0.19805,0.15197 -0.33301,1.41457 -0.60057,3.07697c-0.14936,0.92808 -0.15107,2.36541 -0.18913,3.21412c-0.04091,0.91211 0.61637,1.94453 0.59933,2.14953c-0.06134,0.73743 -0.54421,1.73854 -0.56031,1.74477c-0.00899,0.00348 -1.08997,0.64566 -2.41359,-0.2472c-1.75587,-1.18445 -1.55635,-4.56602 -1.55635,-4.56602c0,0 0.70239,-0.46152 0.79124,0.13584c0.09519,0.74369 0.01562,0.57963 0.03894,1.13588c-0.00821,0.20894 0.0104,0.52785 0.0478,0.52964c0.38201,0.01838 1.37599,-1.12892 1.61664,-1.7682c0.19506,-0.51818 0.43069,-1.59216 0.59053,-2.52339c0.14039,-0.81788 0.38699,-1.58557 0.49714,-2.11225c0.06695,-0.32012 -0.04888,-0.57084 -0.04888,-0.57084c0,0 -0.6771,-0.64159 -0.41416,-0.78571z" data-paper-data="{&quot;index&quot;:null}" fill="#f3e2e2"/><path d="M239.47267,195.61631c0,0 0.00663,-1.42646 0.19468,-2.35747c0.24809,-1.22825 0.63107,-2.72351 0.68239,-3.13959c0.02581,-0.20932 -0.28713,-0.47889 -0.28713,-0.47889l0.13395,-0.05177c0,0 0.36942,0.25891 0.30604,0.52129c-0.36431,1.50815 -0.6173,2.34839 -0.69365,3.25923c-0.05515,0.65801 -0.20631,2.91545 -0.20631,2.91545z" data-paper-data="{&quot;index&quot;:null}" fill="#766565"/><path d="M237.13145,193.21795l0.30133,-1.20448l0.64757,0.17283l-0.35921,1.22686z" data-paper-data="{&quot;index&quot;:null}" fill="#fffff6"/><path d="M237.45915,191.29467l0.25205,-0.98072l0.57633,0.17079l-0.2072,1.04854z" data-paper-data="{&quot;index&quot;:null}" fill="#fffff6"/><path d="M240.10662,191.55819c0,0 -0.26378,0.1147 -0.77193,0.13449c-0.50814,0.01979 -1.25646,-0.16655 -1.25646,-0.16655l0.22196,-1.04382c0,0 0.51957,0.20552 0.9609,0.23846c0.44134,0.03294 1.13101,-0.08234 1.13101,-0.08234z" data-paper-data="{&quot;index&quot;:null}" fill="#754c86"/><path d="M238.70691,193.66049c-0.42195,-0.06168 -1.01923,-0.23921 -1.01923,-0.23921l0.34158,-1.24033c0,0 0.42677,0.12509 0.83231,0.14463c0.40554,0.01954 1.09903,-0.05996 1.09903,-0.05996c0,0 -0.07781,0.49523 -0.11286,0.75934c-0.03505,0.26411 -0.07795,0.67821 -0.07795,0.67821c0,0 -0.64093,0.019 -1.06288,-0.04268z" data-paper-data="{&quot;index&quot;:null}" fill="#754c86"/><path d="M237.21622,189.04203c0,0 0.36643,-0.10811 0.59364,-0.09202c0.13752,0.00975 0.4762,0.08597 0.84341,0.13015c0.36721,0.04418 0.45208,0.11212 0.45208,0.11212l-1.7225,-0.06641z" data-paper-data="{&quot;index&quot;:null}" fill="#ae8484"/><path d="M239.98968,189.81293c-0.03539,0.15321 -0.19005,0.23531 -0.58643,0.16341c-0.39639,-0.0719 -0.27944,-0.11279 -0.99038,-0.40404c-0.34965,-0.13745 -1.01466,-0.43695 -1.01466,-0.43695c0,0 0.51642,-0.16418 1.39294,0.03832c0.87652,0.20251 1.25022,0.42399 1.20265,0.6299z" data-paper-data="{&quot;index&quot;:null}" fill="#532c31"/></g></g><g stroke="none" stroke-width="0" stroke-linecap="butt" stroke-linejoin="miter"><path d="M240.2986,184.46633l-0.6119,4.09511l-0.2323,1.48216l-1.34977,-0.59597l0.2216,-1.16824l0.64086,-3.72209z" data-paper-data="{&quot;index&quot;:null}" fill="#8e5173"/><path d="M239.85895,187.28684l-0.17234,1.2746l-0.2323,1.48216l-1.34977,-0.59597l0.2216,-1.16824l0.21961,-1.24956z" data-paper-data="{&quot;index&quot;:null}" fill="#a71e48"/><path d="M239.85895,187.28684l-0.03247,0.26485l-1.31741,-0.28853l0.03668,-0.23333z" data-paper-data="{&quot;index&quot;:null}" fill="#a19589"/><path d="M239.77812,187.77228l-0.03247,0.26485l-1.31741,-0.28852l0.03668,-0.23334z" data-paper-data="{&quot;index&quot;:null}" fill="#a19589"/></g><g stroke="none" stroke-width="0" stroke-linecap="butt" stroke-linejoin="miter"><path d="M243.22025,183.64643c-0.52534,-0.9261 0.03993,-1.38825 0.79843,-1.80267c0.7585,-0.41442 1.43787,-0.63233 1.94832,0.30192c0.51044,0.93424 -0.03993,1.38825 -0.79843,1.80267c-0.7585,0.41442 -1.4231,0.62396 -1.94832,-0.30192z" fill="#fed000"/><path d="M242.80424,183.87372c-0.43595,-0.75177 0.33196,-1.29644 1.32022,-1.83639c0.98826,-0.53996 1.84204,-0.88134 2.25858,-0.11896c0.41654,0.76238 -0.33196,1.29644 -1.32022,1.83639c-0.98826,0.53996 -1.82272,0.87055 -2.25858,0.11896z" fill="#e68b9c"/></g><path d="M244.2712,183.80161c0,0 -1.74948,1.21963 -3.91267,1.30016c-2.58108,-0.08025 -4.60226,-1.08631 -4.60226,-1.08631l0.24966,-0.37729c0,0 1.6749,1.19374 4.32885,1.131c2.28275,-0.09132 3.73509,-1.34968 3.73509,-1.34968z" data-paper-data="{&quot;index&quot;:null}" fill="#ee3377" stroke="none" stroke-width="0" stroke-linecap="butt" stroke-linejoin="miter"/><path d="M242.09131,180.25596l2.00838,3.23353c0,0 -2.28091,1.50215 -4.25952,1.34528c-2.57931,-0.24159 -3.86704,-1.11583 -3.86704,-1.11583l1.32174,-1.80318l1.24903,-1.68953z" data-paper-data="{&quot;index&quot;:null}" fill="#fcf4f4" stroke="none" stroke-width="0" stroke-linecap="butt" stroke-linejoin="miter"/><path d="M243.89172,183.1793c0,0 -1.27737,1.21694 -3.44055,1.29747c-3.03166,-0.09479 -4.23189,-1.08631 -4.23189,-1.08631l0.08762,-0.12266c0,0 1.49833,1.11568 4.15228,1.05294c2.38772,-0.09401 3.34427,-1.28347 3.34427,-1.28347z" data-paper-data="{&quot;index&quot;:null}" fill="#ee3377" stroke="none" stroke-width="0" stroke-linecap="butt" stroke-linejoin="miter"/><g data-paper-data="{&quot;index&quot;:null}" stroke="none" stroke-width="0" stroke-linecap="butt" stroke-linejoin="miter"><path d="M243.21056,184.96962l-1.66529,-4.86699l0.57619,0.00046l2.82698,3.86416c0,0 -0.48346,0.64208 -1.39779,0.9248c-0.22317,0.06901 -0.34009,0.07757 -0.34009,0.07757z" fill="#fab5b7"/><path d="M243.8031,184.80916c0.65459,-0.22214 1.14995,-0.89675 1.14995,-0.89675l0.15377,0.38218c0,0 -0.5394,0.73256 -1.2072,0.96452c-0.74492,0.25875 -0.58243,0.14546 -0.58243,0.14546l-0.10687,-0.39045c0,0 -0.13542,0.04216 0.59279,-0.20496z" fill="#fed000"/></g><path d="M239.33898,180.84978l0.38428,-0.58416l1.57191,-0.11439l0.388,0.48884z" fill="#aa4455" stroke="none" stroke-width="0" stroke-linecap="butt" stroke-linejoin="miter"/><g data-paper-data="{&quot;index&quot;:null}" stroke-width="0" stroke-linecap="butt" stroke-linejoin="miter"><path d="M256.75424,182.31642l-9.07794,0.32878c0,0 -1.44775,-2.54244 -0.09171,-3.98431c1.28515,-1.36649 2.5433,-2.10146 4.53902,-2.28023c5.19743,-0.46557 5.66553,4.18363 5.66553,4.18363z" fill="#ffff00" stroke="none"/><path d="M257.04251,181.86819c0,0 -0.06099,-0.64503 -0.31471,-1.28465c-0.16978,-0.42803 -0.56343,-0.83539 -0.52949,-1.04418c0.06824,-0.41994 0.26496,-0.10881 0.70897,0.60464c0.20704,0.33267 0.41316,1.2732 0.41316,1.2732l-0.27793,0.451z" fill="#a58c48" stroke="#000000"/><path d="M254.13608,178.04192c0.01179,0.18783 -1.05695,-0.11442 -1.95193,-0.05824c-0.89499,0.05618 -2.28264,0.87281 -2.36191,0.44954c-0.08682,-0.46351 1.39887,-0.84422 2.29177,-0.92718c1.33261,-0.12381 2.01028,0.34806 2.02207,0.53589z" fill="#a58c48" stroke="#000000"/><path d="M247.59364,181.96749l-0.22267,-0.34755c0,0 -0.0071,-0.61597 0.12999,-1.03896c0.12309,-0.37975 0.47772,-0.41934 0.54487,-0.3692c0.1908,0.14249 -0.17563,0.44702 -0.30633,0.87285c-0.1412,0.46006 -0.14585,0.88286 -0.14585,0.88286z" fill="#a58c48" stroke="#000000"/><path d="M252.35071,183.51675c3.58173,-0.12908 4.65094,1.82728 4.65094,1.82728c0,0 0.03858,-0.21712 0.07662,0.37801c0.03804,0.59514 -0.02981,0.31176 -0.02981,0.31176c0,0 -1.47779,-1.60225 -3.65902,-1.89936c-3.47127,-0.47283 -5.52699,2.11442 -5.52699,2.11442l0.04481,-0.59309c0,0 1.89084,-2.04705 4.44344,-2.13903z" fill="#edeee6" stroke="none"/><path d="M247.50553,182.24315c0,0 1.80547,-3.0045 4.63351,-2.99415c3.584,0.01312 4.78393,2.76432 4.78393,2.76432l-0.16782,0.2964c0,0 -1.45211,-1.8681 -3.59545,-2.21452c-3.41094,-0.55128 -5.51111,2.51873 -5.51111,2.51873l-0.14307,-0.37077z" fill="#edeee6" stroke="none"/><path d="M252.10949,179.66692c3.59715,-0.13003 4.75833,2.91375 4.75833,2.91375c0,0 0.1798,0.92747 0.21785,1.5226c0.03805,0.59514 -0.02283,1.52791 -0.02283,1.52791c0,0 -1.4837,-1.60187 -3.67424,-1.8984c-3.48604,-0.4719 -5.55129,2.11594 -5.55129,2.11594l-0.21334,-3.3271c0,0 1.92194,-2.76202 4.48553,-2.85469z" fill="#754c86" stroke="none"/><path d="M250.89318,187.06287c-1.33695,0.08393 -3.83531,1.98707 -3.83531,1.98707c0,0 -0.28118,-0.73776 -0.03333,-1.58973c0.38775,-1.33289 1.60108,-3.06974 4.64561,-3.37853c5.8058,-0.58887 6.69471,4.58098 6.69471,4.58098c0,0 -6.13471,-1.6837 -7.47167,-1.59978z" fill="#ffff00" stroke="none"/><path d="M252.33603,184.88344c-0.6961,0.0437 -2.3674,0.46952 -2.2557,0.22194c0.16526,-0.36631 1.48839,-0.67806 2.18553,-0.69957c1.25879,-0.03884 2.09391,0.40037 2.10084,0.51086c0.00693,0.1105 -1.13453,-0.08946 -2.03069,-0.03322z" fill="#a58c48" stroke="#000000"/><path d="M256.17485,185.5664c-0.14212,-0.41018 1.10304,0.61366 1.10304,0.61366l0.29273,0.50384c0,0 -1.30457,-0.85427 -1.39577,-1.1175z" fill="#a58c48" stroke="#000000"/><path d="M248.64262,185.87851c0.02358,0.37568 -1.5243,1.48753 -1.5243,1.48753l0.29515,-0.78067c0,0 1.20556,-1.08253 1.22914,-0.70685z" fill="#a58c48" stroke="#000000"/><path d="M253.24935,192.47752c-3.22286,0.16213 -6.06804,-1.08112 -6.21893,-3.48502c-0.10821,-1.72368 2.75322,-3.18559 5.61598,-3.32512c2.74235,-0.13365 5.58201,1.25329 5.69021,2.97697c0.10819,1.72367 -2.34671,3.66996 -5.08884,3.8079z" fill="#ffff00" stroke="#000000"/><path d="M257.20831,190.40866c0.06519,1.03862 -1.86149,2.00486 -4.30336,2.15813c-2.44187,0.15327 -4.47426,-0.56444 -4.53945,-1.60307c-0.06519,-1.03862 1.8615,-2.00485 4.30337,-2.15812c2.44186,-0.15327 4.47424,0.56443 4.53943,1.60306z" fill="#ffff00" stroke="#000000"/><path d="M245.74953,186.03804l-4.13672,0.53599l-7.01115,0.88099c0,0 -0.47867,-0.27281 -0.50445,-0.5042c-0.02577,-0.23139 0.22758,-0.78977 0.22758,-0.78977l6.90671,-1.28362l4.22055,-0.83911c0,0 -0.07483,0.64092 -0.01488,1.04394c0.05995,0.40302 0.31235,0.95579 0.31235,0.95579z" fill="#ffff00" stroke="none"/><path d="M247.83274,186.04132c0,0 -1.81466,0.24183 -1.90627,0.18189c-0.34777,-0.22753 -0.68803,-1.92015 -0.4137,-2.43684c0.16197,-0.30509 2.65295,-0.77566 2.65295,-0.77566l-0.10914,2.74842z" fill="#c8c8c6" stroke="none"/><path d="M257.73654,180.36674c0,0 -0.28548,-2.39844 -2.51451,-3.47692c-0.5407,-0.26161 -1.35494,-0.35307 -2.1233,-0.42064c-1.14225,-0.10043 -2.48325,0.08046 -3.49893,0.64278c-1.25493,0.69479 -2.19479,1.90937 -2.19479,1.90937c0,0 1.76611,-3.3286 5.1111,-3.10718c4.95759,0.32815 5.22045,4.45259 5.22045,4.45259z" fill="#ffff00" stroke="#000000"/><path d="M234.60161,187.45502c0,0 -0.47867,-0.27281 -0.50445,-0.5042c-0.02577,-0.23139 0.22757,-0.78977 0.22757,-0.78977l2.96138,-0.56574c0,0 0.13372,0.30646 0.19367,0.70948c0.05995,0.40301 0.0265,0.7901 0.0265,0.7901z" fill="#a56402" stroke="none"/></g><path d="M240.44849,184.61866c0,0 0.8121,1.24427 1.18389,2.05015c0.05923,0.1284 -0.17523,1.20005 -0.35111,1.66237c-0.09606,0.25251 -0.27199,0.72413 -0.72571,0.73794c-0.11567,0.00352 -0.61728,-0.25497 -0.61728,-0.25497l-0.33971,0.27586c0,0 -0.26055,0.00725 -0.39842,-0.0696c-0.13786,-0.07685 -0.3197,-0.30785 -0.3197,-0.30785c0,0 -0.17866,0.01297 -0.30213,0.04791c-0.40301,0.11407 -0.54255,-0.25307 -0.54255,-0.25307c0,0 -0.28288,0.11622 -0.4989,0.06678c-0.34246,-0.07837 -0.69365,-0.36027 -0.82421,-0.56681c-0.22178,-0.35083 -0.59197,-1.44708 -0.31978,-1.72152c0.42392,-0.42744 0.88586,0.15261 0.88586,0.15261c0,0 -0.09141,-0.62173 0.05408,-0.97319c0.22401,-0.54119 0.55766,-0.72209 0.55766,-0.72209l2.55803,-0.12452z" data-paper-data="{&quot;index&quot;:null}" fill="#f44a7d" stroke="none" stroke-width="0" stroke-linecap="butt" stroke-linejoin="miter"/><path d="M240.15166,171.07371c0,0 -1.04214,-0.84173 -1.99504,-0.53519c-1.54021,0.49549 -1.18672,2.52077 -1.18672,2.52077c0,0 -0.39072,-1.34372 0.3,-2.12111c0.45597,-0.5132 0.76911,-0.71111 1.47414,-0.63c0.79002,0.09088 1.40761,0.76552 1.40761,0.76552z" fill="#000000" stroke="none" stroke-width="0" stroke-linecap="butt" stroke-linejoin="miter"/><g data-paper-data="{&quot;index&quot;:null}" stroke="none" stroke-width="0" stroke-linecap="butt" stroke-linejoin="miter"><g data-paper-data="{&quot;index&quot;:null}"><path d="M247.2947,166.62229c0,0 -0.03456,0.45803 -0.52634,1.4875c-0.98047,2.05247 -2.2131,2.03453 -2.2131,2.03453c0,0 -0.41108,-0.79539 0.17584,-1.74159c0.60141,-0.96954 2.56359,-1.78046 2.56359,-1.78046z" data-paper-data="{&quot;index&quot;:null}" fill="#ce204f"/><path d="M245.57573,167.66843c-0.95778,0.61994 -1.03795,2.41545 -1.03795,2.41545c0,0 -1.32709,-1.36274 0.55637,-2.63808c0.94471,-0.63969 2.23446,-0.82758 2.23446,-0.82758c0,0 -0.7951,0.43027 -1.75288,1.05021z" fill="#ff4488"/></g><g data-paper-data="{&quot;index&quot;:null}"><path d="M244.62062,170.25528c0,0 0.90666,-0.55345 1.55706,-0.61411c1.28745,-0.12006 2.48424,1.0356 2.48424,1.0356c0,0 -1.30466,0.31168 -2.14473,0.48826c-1.14639,0.24096 -1.89657,-0.90977 -1.89657,-0.90977z" fill="#f5e4ec"/><path d="M246.2223,169.77164c1.07288,-0.10006 2.07021,0.86299 2.07021,0.86299c0,0 -1.08722,0.25975 -1.78727,0.4069c-0.95534,0.2008 -1.58048,-0.75814 -1.58048,-0.75814c0,0 0.75554,-0.46121 1.29754,-0.51175z" fill="#e2c1c1"/></g></g><path d="M239.06257,166.15401c3.33819,0 6.04431,2.33386 6.04431,5.21281c0,2.87896 -2.70613,5.2128 -6.04431,5.2128c-3.33818,0 -6.0443,-2.33385 -6.0443,-5.2128c0,-2.87896 2.70612,-5.21282 6.0443,-5.21282z" fill="#f79eb4" stroke="none" stroke-width="0" stroke-linecap="butt" stroke-linejoin="miter"/><path d="M244.90715,173.1125c0.00627,-0.01611 0.03611,1.04439 -0.71892,2.38834c-1.21074,2.16933 -2.69053,2.22704 -2.69053,2.22704l0.28262,-0.91116c0,0 1.55213,-1.72427 1.9589,-2.37171c0.40676,-0.64744 0.6043,-1.81547 0.60411,-1.81476" fill="#f79eb4" stroke="#f89db5" stroke-width="0" stroke-linecap="butt" stroke-linejoin="round"/><g fill="#ffd5c5" stroke="none" stroke-width="1" stroke-linecap="round" stroke-linejoin="round"><path d="M243.42085,175.02551c0.11769,0.53465 -0.33959,0.99511 -0.73513,1.30295c-0.06472,0.05035 -0.57188,0.44252 -1.40543,0.72159c-1.04591,0.35015 -2.42657,0.15208 -2.82313,0.10525c-0.47293,-0.0559 -1.31465,-0.58396 -1.44795,-0.72743c-0.95936,-1.0326 -0.24093,-1.53174 -0.13962,-1.61022c0.04832,-0.03741 0.31888,-0.13842 0.63715,-0.0301c0.31022,0.10558 1.15869,0.57476 1.45072,0.56231c0.31377,-0.01337 2.05895,-0.60361 2.96625,-0.60243c0.18856,0.00223 0.43678,0.06523 0.58844,0.18388c0.19737,0.15447 0.49285,0.45028 0.75847,0.1947c0.04298,-0.0414 0.13736,-0.15879 0.15022,-0.10052z"/><path d=""/></g><g fill="#000000" stroke="none" stroke-width="1" stroke-linecap="round" stroke-linejoin="round"><path d="M241.75869,175.03861c0.14923,-0.10805 0.67827,-0.04953 0.76951,0.01737c0.15784,0.11573 -0.2206,0.36249 -0.33055,0.35514c-0.23909,-0.03554 -0.6353,-0.23033 -0.43896,-0.37251z"/><path d=""/></g><path d="M236.79558,172.33966c0.02047,-0.05301 -0.09977,1.8957 -0.07803,2.77616c0.04097,1.65803 0.42394,2.68636 0.42394,2.68636c0,0 -0.35774,-0.23441 -0.44345,-0.30592c-0.2648,-0.22085 -0.49846,-0.43966 -0.72366,-0.70465c-0.52966,-0.6233 -0.88739,-1.37012 -1.10908,-2.1546c-0.14774,-0.52281 -0.30777,-2.81216 -0.28494,-2.82591" fill="#f79eb4" stroke="#f89db5" stroke-width="0" stroke-linecap="butt" stroke-linejoin="round"/><path d="M234.48574,171.77962c-0.01464,0.01464 0.28029,2.81548 0.42676,3.59368c0.14646,0.7782 0.61363,1.93401 0.61363,1.93401c0,0 -0.41128,-0.06345 -0.97324,-0.69448c-0.4962,-0.55721 -0.77538,-0.83955 -1.05988,-1.88672c-0.36917,-1.35883 -0.47186,-3.22519 -0.29214,-3.58465" fill="#f79eb4" stroke="#f89db5" stroke-width="0" stroke-linecap="butt" stroke-linejoin="round"/><g fill="#ff4488" stroke="none" stroke-width="1" stroke-linecap="round" stroke-linejoin="round"><path d="M242.83164,168.64849c-0.0866,-0.05592 -2.2936,-1.44681 -3.87859,-1.17164c-1.24924,0.21687 -1.90847,0.73513 -3.04667,1.62756c-0.8778,0.68823 -1.42094,2.25749 -1.45484,2.26644c-0.00243,0.00064 0.33378,-4.10309 3.7273,-4.70804c2.74553,-0.45776 4.95521,1.33186 5.04726,1.44986"/><path d=""/></g><g stroke="none" stroke-width="1" stroke-linecap="round" stroke-linejoin="round"><g fill="#f79eb4"><path d="M235.66921,169.61098c-0.02251,-0.35882 -0.18813,-0.97796 -0.19076,-1.65428c-0.00262,-0.67632 0.05523,-1.54383 0.17765,-1.71819c0.16004,-0.22796 0.92717,-0.00727 1.70972,0.36284c0.78255,0.37013 1.75052,1.14255 1.7949,1.29471"/></g><g fill="#ffd5c5"><path d="M236.23666,169.1815c-0.01053,-0.08486 -0.1264,-0.47814 -0.14119,-0.97843c-0.0148,-0.50029 0.05438,-1.25413 0.07443,-1.27986c0.08129,-0.10431 0.93758,0.18041 1.36123,0.38916c0.42366,0.20875 0.84779,0.58793 0.9475,0.74847"/></g></g><g fill="#f79eb4" stroke="none" stroke-width="1" stroke-linecap="round" stroke-linejoin="round"><path d="M242.63369,167.3596c0.29499,-0.08839 0.608,-0.15809 1.27228,-0.20333c0.66427,-0.04524 1.49038,-0.11186 1.69966,0.00089c0.04286,0.02311 0.15973,0.66751 0.07343,1.16967c-0.13469,0.78385 -0.59558,1.61249 -0.60409,1.62533"/><path d=""/></g><path d="M244.4647,173.05613l0.05232,-0.34412c0,0 0.27907,0.0715 0.71323,-0.09393c0.43417,-0.16543 1.01281,-0.61711 1.01281,-0.61711c0,0 -0.49616,0.59065 -0.88577,0.8006c-0.38961,0.20995 -0.89259,0.25456 -0.89259,0.25456z" data-paper-data="{&quot;index&quot;:null}" fill="#000000" stroke="none" stroke-width="0" stroke-linecap="butt" stroke-linejoin="miter"/><path d="M236.93694,172.6176c0,0 -0.63447,-2.26226 0.5,-2.85c1.51623,-0.78552 2.65,1.35 2.65,1.35c0,0 -1.19249,-0.15 -1.8,-0.15c-0.60751,0 -1.35,1.65 -1.35,1.65z" fill="#e569c4" stroke="none" stroke-width="0" stroke-linecap="butt" stroke-linejoin="miter"/><path d="M244.31266,173.52857l0.09592,-0.3346c0,0 0.26762,0.10662 0.71939,-0.0019c0.45176,-0.10852 1.29342,-0.45619 1.29342,-0.45619c0,0 -0.77763,0.49606 -1.1909,0.65443c-0.41327,0.15837 -0.91783,0.13826 -0.91783,0.13826z" data-paper-data="{&quot;index&quot;:null}" fill="#000000" stroke="none" stroke-width="0" stroke-linecap="butt" stroke-linejoin="miter"/><path d="M241.42378,173.20569c0.41372,0.60664 0.61215,0.59671 0.80863,0.61427c0.33707,0.03013 0.7176,-0.2714 1.00158,-0.63715c0.40601,-0.5229 0.78897,-1.4542 1.23813,-1.45808c0.06807,-0.00059 0.11454,0.84119 -0.04066,1.41753c-0.32914,1.22225 -1.15546,2.08352 -1.30206,2.08886c-0.58573,0.02133 -0.41306,-0.51203 -1.60028,-0.45107c-0.6762,0.03473 -2.21533,0.77096 -2.8683,0.57727c-1.27143,-0.58991 -1.59567,-1.66258 -1.6902,-2.37548c-0.28408,-2.14228 1.02378,-2.72666 1.46832,-2.67571c2.04647,0.23452 2.33585,1.94796 2.98484,2.89957z" fill="#ffffff" stroke="none" stroke-width="0" stroke-linecap="butt" stroke-linejoin="miter"/><g stroke="none" stroke-linecap="butt" stroke-linejoin="miter"><path d="M240.02263,172.35857c0.23265,0.01501 0.38365,0.61015 0.33726,1.32928c-0.0464,0.71912 -0.27263,1.28991 -0.50528,1.27491c-0.23265,-0.01501 -0.38364,-0.61014 -0.33725,-1.32927c0.04639,-0.71913 0.27262,-1.28992 0.50527,-1.27492z" fill="#169c5b" stroke-width="NaN"/><path d="M239.96974,173.27809c0.10223,0.00659 0.16938,0.25544 0.15001,0.5558c-0.01936,0.30037 -0.11795,0.53853 -0.22018,0.53193c-0.10223,-0.00659 -0.16938,-0.25544 -0.15001,-0.5558c0.01936,-0.30037 0.11795,-0.53853 0.22018,-0.53193z" fill="#000000" stroke-width="0"/><path d="M239.87014,173.132c0.01961,-0.30389 0.13552,-0.54379 0.2589,-0.53583c0.12337,0.00796 0.2075,0.26076 0.18789,0.56466c-0.01961,0.3039 -0.13552,0.54379 -0.2589,0.53583c-0.12337,-0.00796 -0.2075,-0.26075 -0.18789,-0.56465z" fill="#ffffff" stroke-width="0"/></g><g stroke="none" stroke-linecap="butt" stroke-linejoin="miter"><path d="M242.93419,174.1212c0.03272,-0.50723 0.19227,-0.90982 0.35638,-0.89924c0.1641,0.01058 0.27059,0.43035 0.23788,0.93758c-0.03273,0.50723 -0.19228,0.90983 -0.35639,0.89925c-0.1641,-0.01058 -0.27058,-0.43035 -0.23787,-0.93758z" fill="#169c5b" stroke-width="NaN"/><path d="M243.09796,174.24572c0.01367,-0.21186 0.08319,-0.37983 0.1553,-0.37517c0.07212,0.00465 0.1195,0.18016 0.10582,0.39202c-0.01368,0.21186 -0.0832,0.37984 -0.15531,0.37518c-0.07212,-0.00466 -0.1195,-0.18017 -0.10582,-0.39203z" fill="#000000" stroke-width="0"/><path d="M243.3656,173.38954c0.08703,0.00562 0.14635,0.18393 0.13253,0.39828c-0.01384,0.21434 -0.09559,0.38355 -0.18262,0.37793c-0.08702,-0.00562 -0.14634,-0.18391 -0.13252,-0.39826c0.01384,-0.21434 0.09558,-0.38357 0.18261,-0.37795z" fill="#ffffff" stroke-width="0"/></g><path d="M238.96631,176.2643c0,0 -0.57398,-0.00654 -0.77221,-0.02805c-0.19823,-0.02151 -0.52892,-0.16975 -0.52892,-0.16975" fill="none" stroke="#000000" stroke-width="0.125" stroke-linecap="round" stroke-linejoin="miter"/><path d="M236.268,170.97931c-0.382,-0.22349 -0.85715,-0.83117 -0.85715,-0.83117c0,0 0.57602,0.45905 1.00412,0.6396c0.4281,0.18055 0.91797,0.16559 0.91797,0.16559l-0.18182,0.31169c0,0 -0.50111,-0.06223 -0.88312,-0.28571z" fill="#000000" stroke="none" stroke-width="0" stroke-linecap="butt" stroke-linejoin="miter"/><path d="M235.81859,172.14114c-0.44063,-0.04143 -1.28366,-0.39188 -1.28366,-0.39188c0,0 0.92372,0.29001 1.38802,0.27307c0.4643,-0.01694 1.09692,-0.3411 1.09692,-0.3411l-0.04326,0.34713c0,0 -0.71739,0.15421 -1.15803,0.11278z" fill="#000000" stroke="none" stroke-width="0" stroke-linecap="butt" stroke-linejoin="miter"/><path d="M241.71434,180.20123l-3.37109,0.18284l0.16418,-0.99716l0.04601,-2.26109c0,0 0.71988,0.07971 1.18247,0.08245c0.46259,0.00274 1.15152,-0.0686 1.15152,-0.0686c0,0 0.54749,0.79568 0.68623,1.40353c0.13873,0.60785 0.14068,1.65803 0.14068,1.65803z" data-paper-data="{&quot;index&quot;:null}" fill="#6d3b75" stroke="none" stroke-width="0" stroke-linecap="butt" stroke-linejoin="miter"/><path d="M241.58695,180.75334c0,0 -0.62999,-0.99045 -0.7297,-1.51018c-0.01785,-0.09304 -0.04268,-0.28018 -0.04268,-0.28018c0,0 0.07737,-0.29575 0.75439,-0.82936c0.14834,-0.11692 0.05862,-0.20027 0.09024,-0.4189c0.00999,-0.06906 -0.2157,-0.38616 -0.2157,-0.38616c0,0 0.13186,-0.06294 0.20681,0.03006c0.13277,0.56419 0.15106,1.73503 0.15106,1.73503l0.38747,1.13677z" data-paper-data="{&quot;index&quot;:null}" fill="#efe6e6" stroke="none" stroke-width="0" stroke-linecap="butt" stroke-linejoin="miter"/><path d="M237.81454,180.9513l0.63023,-1.56438c0,0 -0.24017,-1.87789 0.04777,-2.23518c0.07495,-0.093 0.60336,0.02166 0.60336,0.02166c0,0 0.18002,0.03338 0.18725,0.3464c0.00148,0.06403 -0.1888,0.35001 -0.17881,0.41907c0.03162,0.21863 0.11431,0.33646 0.26265,0.45338c0.67702,0.53361 0.75439,0.82936 0.75439,0.82936c0,0 -0.02483,0.18714 -0.04268,0.28018c-0.09971,0.51972 -0.64381,1.47617 -0.64381,1.47617z" data-paper-data="{&quot;index&quot;:null}" fill="#efe6e6" stroke="none" stroke-width="0" stroke-linecap="butt" stroke-linejoin="miter"/><path d="M238.7406,178.00072c0.35166,1.12912 0.56138,2.49306 0.66243,3.39924c0.14448,1.29558 0.31117,2.44527 0.31117,2.44527c0,0 -0.47715,0.26047 -0.79108,0.17829c-0.31394,-0.08218 -0.42403,-0.06749 -0.42403,-0.06749c0,0 -0.15327,-2.04802 -0.21156,-2.57069c-0.09561,-0.85735 -0.26125,-1.93894 -0.47647,-3.17148c-0.05392,-0.30884 0.07601,-0.51614 0.3887,-0.58401c0.21008,-0.04559 0.4244,-0.00301 0.54084,0.37088z" data-paper-data="{&quot;index&quot;:null}" fill="#4c2b5c" stroke="none" stroke-width="0" stroke-linecap="butt" stroke-linejoin="miter"/><path d="M238.7406,178.00072c0.25546,0.82022 0.55442,2.56692 0.55442,2.56692l-0.94206,1.53196c0,0 -0.04919,-0.56872 -0.06542,-0.71426c-0.09561,-0.85735 -0.26125,-1.93894 -0.47647,-3.17148c-0.05392,-0.30884 0.07601,-0.51614 0.3887,-0.58401c0.21008,-0.04559 0.4244,-0.00301 0.54084,0.37088z" data-paper-data="{&quot;index&quot;:null}" fill="#edbb82" stroke="none" stroke-width="0" stroke-linecap="butt" stroke-linejoin="miter"/><path d="M239.32161,177.44538l-0.63766,0.00283l0.25233,-0.29667c0,0 0.68676,0.03965 0.76043,0.06454c0.11723,0.08046 0.24467,0.48921 0.32469,0.85623c0.06569,0.30132 0.16044,1.14927 0.16044,1.14927c0,0 -0.13573,-0.14966 -0.28519,-0.28518c-0.21617,-0.196 -0.44913,-0.37262 -0.60492,-0.57069c-0.26983,-0.36134 0.02989,-0.92033 0.02989,-0.92033z" data-paper-data="{&quot;index&quot;:null}" fill="#fd4275" stroke="none" stroke-width="0" stroke-linecap="butt" stroke-linejoin="miter"/><path d="M237.64387,184.31962c-0.01698,-1.06459 0.70067,-1.19912 1.565,-1.19912c0.86433,0 1.565,0.13452 1.565,1.19912c0,1.06459 -0.70067,1.19912 -1.565,1.19912c-0.86433,0 -1.54802,-0.13478 -1.565,-1.19912z" fill="#fed000" stroke="none" stroke-width="0" stroke-linecap="butt" stroke-linejoin="miter"/><path d="M237.16984,184.31962c-0.02212,-0.86875 0.91292,-0.97853 2.03907,-0.97853c1.12615,0 2.03907,0.10978 2.03907,0.97853c0,0.86875 -0.91292,0.97853 -2.03907,0.97853c-1.12615,0 -2.01695,-0.10999 -2.03907,-0.97853z" fill="#e68b9c" stroke="none" stroke-width="0" stroke-linecap="butt" stroke-linejoin="miter"/><path d="M238.06651,187.39396l0.36235,-0.36235l0.36235,0.36235l-0.36235,0.36235z" fill="#baba3e" stroke="none" stroke-width="NaN" stroke-linecap="butt" stroke-linejoin="miter"/><path d="M239.04484,187.48713l0.36235,-0.36235l0.36235,0.36235l-0.36235,0.36235z" fill="#baba3e" stroke="none" stroke-width="NaN" stroke-linecap="butt" stroke-linejoin="miter"/><path d="M240.11629,187.5803l0.36235,-0.36235l0.36235,0.36235l-0.36235,0.36235z" fill="#baba3e" stroke="none" stroke-width="NaN" stroke-linecap="butt" stroke-linejoin="miter"/><path d="M241.31355,188.06944l-0.0383,-0.36926l0.19228,-0.32952l0.39474,0.46193z" fill="#baba3e" stroke="none" stroke-width="0" stroke-linecap="butt" stroke-linejoin="miter"/><path d="M239.57546,180.57729c0,0 0.47548,-0.85613 0.41939,-1.34311c-0.03802,-0.3301 -1.0704,-1.0962 -1.0704,-1.0962l0.16093,-0.11174c0,0 1.01645,0.87635 1.04705,1.17869c0.05796,0.57259 -0.41046,1.3907 -0.41046,1.3907z" fill="#fed000" stroke="none" stroke-width="0" stroke-linecap="butt" stroke-linejoin="miter"/><path d="M239.02308,178.04029l0.22411,-0.53772l-0.75242,0.01754l0.26252,-0.39333l0.18716,0.03586l-0.20416,0.21788l0.66715,0.00489l-0.19206,0.62356l0.88875,0.86106c0,0 0.07574,0.13939 0.07328,0.20262c-0.00246,0.06324 -0.05239,0.28415 -0.05239,0.28415c0,0 -0.01721,-0.16593 -0.10371,-0.32743c-0.08448,-0.15772 -0.2373,-0.3101 -0.31991,-0.392c-0.19485,-0.19317 -0.67833,-0.5971 -0.67833,-0.5971z" fill="#fff9f9" stroke="none" stroke-width="0" stroke-linecap="butt" stroke-linejoin="miter"/><path d="M238.46237,177.58613l0.04386,-0.07633h0.72959l-0.02193,0.0544z" fill="#fed000" stroke="none" stroke-width="0" stroke-linecap="butt" stroke-linejoin="miter"/><path d="M240.27899,177.7707l-0.43193,-0.30852c0,0 -0.03582,-0.08364 -0.06525,-0.13033c-0.02943,-0.04668 -0.06338,-0.1127 -0.06338,-0.1127c0,0 0.38076,-0.01322 0.57329,-0.02516c0.19545,-0.01211 0.5908,-0.047 0.5908,-0.047z" fill="#fff9f9" stroke="none" stroke-width="0" stroke-linecap="butt" stroke-linejoin="miter"/><path d="M240.2472,177.51444l-0.42339,-0.30242l0.76613,-0.04032z" fill="#fd4275" stroke="none" stroke-width="0" stroke-linecap="butt" stroke-linejoin="miter"/><path d="M241.42906,177.31251c0,0 0.35653,0.3211 0.12596,0.70867c-0.13422,0.21328 -0.34743,0.61678 -0.54192,0.83431c-0.13447,0.15041 -0.2538,0.31344 -0.2538,0.31344c0,0 0.00555,-0.85322 0.03937,-1.15975c0.0412,-0.37338 0.01409,-0.77424 0.12226,-0.86651c0.07066,-0.03245 0.48731,-0.12948 0.48731,-0.12948l0.62479,0.17651z" data-paper-data="{&quot;index&quot;:null}" fill="#fd4275" stroke="none" stroke-width="0" stroke-linecap="butt" stroke-linejoin="miter"/><path d="M241.36038,180.48735c0,0 -0.5514,-0.76464 -0.55364,-1.34015c-0.00118,-0.30388 0.91805,-1.28172 0.91805,-1.28172l0.03381,0.05982c0,0 -0.80868,0.90434 -0.81197,1.23661c-0.00485,0.49017 0.55755,1.29189 0.55755,1.29189z" data-paper-data="{&quot;index&quot;:null}" fill="#fed000" stroke="none" stroke-width="0" stroke-linecap="butt" stroke-linejoin="miter"/><path d="M241.78821,177.87292c0,0 -0.43859,0.45228 -0.61217,0.66476c-0.07359,0.09009 -0.20963,0.25761 -0.27716,0.4233c-0.06913,0.16966 -0.06891,0.33648 -0.06891,0.33648c0,0 -0.07276,-0.21447 -0.08182,-0.27711c-0.00906,-0.06262 0.05169,-0.20918 0.05169,-0.20918l0.79383,-0.94928l-0.25621,-0.60006l0.66298,-0.07463l-0.6513,-0.18652l0.4168,-0.13857l0.545,0.3348l-0.80185,0.16469l0.27911,0.51134z" data-paper-data="{&quot;index&quot;:null}" fill="#fff9f9" stroke="none" stroke-width="0" stroke-linecap="butt" stroke-linejoin="miter"/><path d="M234.68867,171.6307c0,0 -0.3555,-0.03645 -0.40033,-0.10092c-0.04964,-0.0714 0.0438,-0.50336 0.17333,-0.61615c0.12954,-0.11279 0.43988,0.01436 0.43988,0.01436z" data-paper-data="{&quot;index&quot;:null}" fill-opacity="0.01176" fill="#f7bf74" stroke="none" stroke-width="0" stroke-linecap="butt" stroke-linejoin="miter"/><path d="M236.84058,175.14727c-0.01982,0.07264 -0.43313,0.12245 -0.70404,0.05614c-0.96668,-0.2366 -1.58938,-0.87411 -1.80063,-1.33747c-0.17935,-0.39342 -0.263,-0.64256 -0.05508,-0.66647c0.15718,-0.01807 0.34499,0.11136 0.43287,0.74093c0.07126,0.51044 0.89777,0.75136 1.20335,0.83474c0.53514,0.14603 0.94937,0.27745 0.92353,0.37213z" data-paper-data="{&quot;index&quot;:null}" fill-opacity="0.01176" fill="#212121" stroke="none" stroke-width="0" stroke-linecap="butt" stroke-linejoin="miter"/><path d="M235.27464,174.8401l0.06101,-0.22361l0.08944,0.02441l-0.06101,0.22361z" data-paper-data="{&quot;index&quot;:null}" fill-opacity="0.01176" fill="#b3916f" stroke="none" stroke-width="0" stroke-linecap="butt" stroke-linejoin="miter"/><path d="M234.41356,173.65214c0.03469,0.10413 0.06569,0.34627 0.06569,0.34627c0,0 -0.22156,-0.19043 -0.26491,-0.32055c-0.04335,-0.13012 0.09423,-0.28661 0.09423,-0.28661c0,0 0.0703,0.15676 0.105,0.26089z" data-paper-data="{&quot;index&quot;:null}" fill-opacity="0.01176" fill="#cc7889" stroke="none" stroke-width="0" stroke-linecap="butt" stroke-linejoin="miter"/><path d="M245.33883,179.57964z" fill="#fff9fb" stroke="none" stroke-width="0" stroke-linecap="butt" stroke-linejoin="miter"/><path d="M243.13973,169.75011c-0.0227,0.01843 0.92496,-0.41345 2.70729,0.02212c0.31763,0.07944 1.18127,0.55196 1.4462,1.29838c0.32256,0.67883 1.05723,1.15653 1.04105,1.15488c-0.02322,-0.00244 -1.74205,-0.6567 -2.78145,-1.0521c-0.56753,-0.2159 -2.18293,-0.30254 -2.21281,-0.27829" fill="#f79eb4" stroke="#f89db5" stroke-width="0" stroke-linecap="butt" stroke-linejoin="round"/><path d="M242.29229,169.788c0.00908,-0.08308 0.90942,-1.21941 1.19044,-1.47261c0.28102,-0.2532 0.56073,-0.26645 1.16526,-0.2979c2.05717,0.09193 3.50203,-0.49751 3.50203,-0.49751c0,0 -1.68955,1.40239 -2.43781,1.54327c-1.03812,0.19546 -2.46,0.60579 -2.56394,0.68926" fill="#f79eb4" stroke="#f89db5" stroke-width="0" stroke-linecap="butt" stroke-linejoin="round"/><path d="M243.27688,170.98496c-0.04066,-0.02975 0.77268,0.01946 1.63251,0.51796c0.24701,0.14321 0.92609,0.98753 0.90901,1.13759c0.0252,0.60993 0.81422,1.65523 0.81582,1.65408c0.03485,-0.02475 -1.29176,-0.53358 -1.94807,-1.38906c-0.22239,-0.28642 -1.28749,-0.90494 -1.40255,-0.98923" fill="#f79eb4" stroke="#f89db5" stroke-width="0" stroke-linecap="butt" stroke-linejoin="round"/></g></g></svg>