<svg version="1.1" xmlns="http://www.w3.org/2000/svg" xmlns:xlink="http://www.w3.org/1999/xlink" width="38" height="30.67409" viewBox="0,0,38,30.67409"><g transform="translate(-225.30893,-163.30539)"><g data-paper-data="{&quot;isPaintingLayer&quot;:true}" fill-rule="nonzero" stroke-linejoin="miter" stroke-miterlimit="10" stroke-dasharray="" stroke-dashoffset="0" style="mix-blend-mode: normal"><g><g><path d="M248.21734,184.97283l0.82475,0.00697c0,0 1.37406,2.48892 1.80668,3.86843c0.3609,1.15079 0.63233,2.91075 0.65782,3.63186c0.04401,1.24507 -0.58158,1.0435 -0.58158,1.0435c0,0 -0.01557,-3.26871 -0.38046,-4.54369c-0.26011,-0.90899 -2.3272,-4.00707 -2.3272,-4.00707z" fill="#989898" stroke="#989898" stroke-width="0" stroke-linecap="round"/><path d="M246.96979,186.82097c0.09253,-0.55464 0.15713,-0.99127 0.56964,-1.43162c0.58641,-0.62598 0.98821,-0.43541 1.30361,-0.01271c0.66362,0.88995 1.36214,2.63517 1.36214,2.63517l-2.95639,1.87341c0,0 -0.4196,-2.21389 -0.27899,-3.06426z" fill="#f82020" stroke="none" stroke-width="1.13968" stroke-linecap="round"/><path d="M250.15127,187.93773c0,0 0.16784,0.10435 0.4386,1.06105c0.27076,0.95668 0.50255,2.24591 0.58329,3.33887c0.0318,0.43826 0.12309,1.18522 -0.21958,1.2448c-0.58335,0.10153 -1.81394,-0.12238 -2.30061,-0.63829c-0.48358,-0.51301 -1.49119,-2.46368 -1.41687,-3.19592c0.14613,-1.30357 2.91519,-1.81051 2.91519,-1.81051z" fill="#f8f8f8" stroke="none" stroke-width="1.15102" stroke-linecap="round"/><path d="M245.15229,187.07241c-0.02771,-0.42771 -0.39127,-1.16175 0.04162,-1.63134c0.49172,-0.5334 0.92414,0.11095 0.92414,0.11095c0,0 0.13597,-0.63047 0.54866,-0.41187c0.4007,0.21223 0.40718,0.49459 0.46408,0.79556c0.09561,0.50574 -0.11687,1.37856 -0.1054,1.55549c0.05732,0.8847 0.39484,2.18503 -0.06927,2.2151c-0.12311,0.00797 -0.71824,-0.19216 -0.71824,-0.19216c0,0 -0.58813,0.5299 -0.80272,0.16269c-0.27838,-0.47636 -0.2591,-2.23736 -0.28288,-2.60443z" fill="#ffffff" stroke="none" stroke-width="0" stroke-linecap="butt"/></g><path d="M247.51699,187.79777c0.08927,1.37782 0.03698,2.16881 -0.31196,2.19142c-0.12718,0.00824 -0.05576,-0.72832 -0.14503,-2.10614c-0.08927,-1.37782 -0.05494,-2.446 0.07225,-2.45424c0.34894,-0.0226 0.29547,0.99115 0.38474,2.36897z" fill="#424242" stroke="none" stroke-width="0" stroke-linecap="butt"/></g><path d="M245.27554,186.81783c0.2319,0.451 0.0744,1.2097 -0.3455,1.4122c-0.6542,0.3237 -1.5113,0.1313 -2.1297,-0.1995c-0.3795,-0.1978 -0.5472,-0.6966 -0.5726,-1.1504c-0.0465,-0.8117 -0.0631,-1.7152 0.3326,-2.4196c0.1563,-0.2754 0.8034,-0.1828 1.004,0.0852c0.3591,0.4777 -0.0556,1.2983 0.3044,1.7794c0.3061,0.4074 1.1775,0.0537 1.4068,0.4927z" data-paper-data="{&quot;index&quot;:null}" fill="#e88820" stroke="none" stroke-width="0.49091" stroke-linecap="round"/><path d="M245.8323,175.36028c0,3.60743 -0.78356,6.23963 -1.13412,7.14121c-0.21833,0.5615 -0.30152,0.07428 -0.30152,0.07428c0,0 0.31437,-0.95255 0.31437,-6.80662c0,-1.96926 -2.1099,-4.2209 -2.28757,-4.94621c-0.19596,-0.80001 2.82257,-0.61154 2.82257,-0.61154c0,0 3.14631,-1.07395 3.04959,0.02036c-0.07751,0.87693 -2.46334,3.45322 -2.46334,5.12852z" data-paper-data="{&quot;index&quot;:null}" fill="#e2a026" stroke="none" stroke-width="0" stroke-linecap="butt"/><path d="M242.70009,175.5647c0,-1.67529 -1.63601,-3.97836 -1.72729,-4.8553c-0.1139,-1.0943 2.13304,-0.29359 2.13304,-0.29359c0,0 3.25394,-0.82599 3.02318,-0.02599c-0.20923,0.72531 -2.10851,3.61447 -2.10851,5.58373c0,5.85408 0.21037,6.71555 0.21037,6.71555c0,0 0.0267,0.4834 -0.26404,-0.21431c-0.39979,-0.95941 -1.26675,-3.52083 -1.26675,-6.91011z" data-paper-data="{&quot;index&quot;:null}" fill="#e2a026" stroke="none" stroke-width="0" stroke-linecap="butt"/><path d="M245.53838,183.73461c0,1.55828 -1.22886,2.82152 -3.6322,2.82152c-1.84808,0 -4.99425,-0.67232 -5.62522,-1.72602c-0.18957,-0.31658 -1.37185,-0.33836 0.52477,-2.58898c1.14432,-1.3579 3.55812,0.43997 4.02687,0.48073c1.46685,-0.76968 2.32821,-1.19229 3.28569,-1.19229c0.76569,0 1.4201,0.64676 1.4201,2.20504z" data-paper-data="{&quot;index&quot;:null}" fill="#089c4e" stroke="none" stroke-width="0" stroke-linecap="butt"/><path d="M243.04027,183.89672c0.12289,-1.03243 0.34511,-2.51605 0.64097,-2.51605c0.29586,0 -0.14129,1.59924 -0.26504,2.63879c-0.12375,1.03955 -0.06316,2.60372 -0.35902,2.60372c-0.29587,0 -0.13982,-1.69403 -0.01692,-2.72646z" fill="#000000" stroke="#000000" stroke-width="0" stroke-linecap="butt"/><path d="M238.02598,185.84371c0,-0.23545 0.19087,-0.42632 0.42632,-0.42632c0.23545,0 0.42632,0.19087 0.42632,0.42632c0,0.23545 -0.19087,0.42631 -0.42632,0.42631c-0.23545,0 -0.42632,-0.19087 -0.42632,-0.42631z" fill="#ffffff" stroke="none" stroke-width="0" stroke-linecap="butt"/><path d="M234.86302,184.89509l0.64457,-0.376c0,0 1.43237,-0.42828 2.2103,-0.49052c0.96986,-0.07759 3.1611,0.06081 3.1611,0.06081l-1.71141,0.52562l0.24846,1.36756l-1.48659,-0.73994l-1.14398,1.10255l-0.63331,-0.85923l-1.77074,0.89139l1.34103,-1.42853z" fill="#cf0000" stroke="none" stroke-width="0" stroke-linecap="butt"/><path d="M244.49054,185.92825c-0.79373,0.71714 -0.99414,0.39537 -0.99414,0.39537l0.60475,-4.95716c0,0 1.28777,0.41907 1.43026,0.92992c0.31708,1.38621 0.10706,2.58999 -1.04086,3.63188z" data-paper-data="{&quot;index&quot;:null}" fill="#f8b820" stroke="none" stroke-width="0.49091" stroke-linecap="round"/><path d="M239.29265,185.97704c0,-0.23545 0.19087,-0.42631 0.42631,-0.42631c0.23545,0 0.42632,0.19087 0.42632,0.42631c0,0.23545 -0.19087,0.42632 -0.42632,0.42632c-0.23545,0 -0.42631,-0.19087 -0.42631,-0.42632z" fill="#ffffff" stroke="none" stroke-width="0" stroke-linecap="butt"/><path d="M246.88639,187.26894c0.27487,0.42608 0.19239,1.19646 -0.20562,1.43913c-0.61944,0.38627 -1.49129,0.27864 -2.139,0.01001c-0.39698,-0.15978 -0.61277,-0.63972 -0.68246,-1.08886c-0.12568,-0.80325 -0.23066,-1.70076 0.09418,-2.44055c0.12859,-0.28934 0.78163,-0.26059 1.00751,-0.01342c0.40409,0.44018 0.07173,1.29745 0.47713,1.74106c0.34446,0.37545 1.17703,-0.06184 1.44827,0.35263z" data-paper-data="{&quot;index&quot;:null}" fill="#f8b820" stroke="none" stroke-width="0.49091" stroke-linecap="round"/><path d="M263.30893,168.5673c0,2.90607 -8.50659,5.2619 -19,5.2619c-10.49341,0 -19,-2.35583 -19,-5.2619c0,-2.90607 8.50659,-5.26191 19,-5.26191c10.49341,0 19,2.35583 19,5.26191z" fill-opacity="0.90196" fill="#e3a127" stroke="none" stroke-width="0" stroke-linecap="butt"/><path d="M239.18261,172.89395c-0.0764,-0.02174 -1.53979,-0.34425 -2.4492,-0.85844c-1.43673,-0.81236 -2.53416,-1.94759 -2.53416,-1.94759c0,0 1.98008,1.07678 2.54163,1.26122c0.99934,0.32821 2.94072,0.53931 2.94072,0.53931c0,0 -1.70805,-0.24083 -2.49428,-0.54096c-0.66702,-0.25463 -1.92455,-1.14588 -1.92455,-1.14588c0,0 1.22187,0.35875 1.76858,0.46221c0.62133,0.11759 1.76427,0.20637 1.76427,0.20637c0,0 -0.82403,-0.17658 -1.32425,-0.37109c-0.50023,-0.19452 -1.03923,-0.54795 -1.03923,-0.54795c0,0 0.63363,0.0381 0.91845,0.02959c0.31762,-0.00949 0.9783,-0.13542 0.9783,-0.13542c0,0 -0.68015,-0.181 -1.07828,-0.38337c-0.39813,-0.20237 -0.94552,-0.64535 -0.94552,-0.64535c0,0 0.49095,-0.00017 0.80437,-0.0193c0.31343,-0.01913 0.58577,-0.06556 0.58577,-0.06556c0,0 -0.3719,-0.10436 -0.57904,-0.23235c-0.20714,-0.12798 -0.43666,-0.39517 -0.43666,-0.39517c0,0 0.36082,0.0281 0.52328,0.01753c0.20636,-0.01344 0.615,-0.09162 0.615,-0.09162c0,0 -0.57471,-0.24683 -0.76055,-0.37033c-0.13823,-0.09184 -0.39888,-0.32517 -0.39888,-0.32517l0.60791,0.08801l-0.38602,-0.58656l1.00579,0.42432l-0.47065,0.37486l0.85713,0.46039l-0.71733,0.29959c0,0 0.20202,0.20545 0.35699,0.30164c0.15496,0.09619 0.46722,0.20996 0.46722,0.20996c0,0 -0.33552,0.1259 -0.56008,0.13328c-0.22456,0.00738 -0.85523,-0.08675 -0.85523,-0.08675l1.12544,0.49057l1.54013,0.38114c0,0 -0.48442,0.2252 -0.81441,0.30377c-0.33,0.07857 -1.03879,0.13744 -1.03879,0.13744c0,0 0.71885,0.2016 1.18403,0.31012c0.46518,0.10853 1.33164,0.27679 1.33164,0.27679c0,0 -0.75223,0.3427 -1.26556,0.3617c-0.51332,0.01901 -1.67591,-0.2528 -1.67591,-0.2528c0,0 1.29254,0.50235 2.16264,0.61892c0.87012,0.11658 3.04954,0.07937 3.04954,0.07937c0,0 -1.60583,0.67777 -2.68267,0.64965c-1.07684,-0.02811 -3.37981,-0.80792 -3.37981,-0.80792c0,0 2.89053,0.99576 3.49228,1.03878c1.51177,0.1081 4.66126,-0.52482 4.66126,-0.52482c0,0 -2.41216,1.7488 -5.47131,0.87789z" data-paper-data="{&quot;index&quot;:null}" fill="#dcdce1" stroke="none" stroke-width="0" stroke-linecap="butt"/><path d="M241.35811,171.0887c0.68861,1.33514 0.87734,3.05168 0.87734,3.05168c0,0 1.71514,3.50211 0.82031,5.62404c-0.76178,1.80483 -3.35916,2.16556 -5.25858,2.63577c-1.53388,0.38021 -3.65385,0.85725 -4.74061,-0.22722c-1.28455,-1.28354 -1.14866,-4.38554 -1.60899,-6.14279c-0.17255,-0.66341 -0.65736,-1.46643 -1.11259,-2.61049c-0.45523,-1.14406 -1.03465,-2.24444 -0.81262,-2.96052c0.05736,-0.58365 1.17071,0.34572 1.94203,0.77865c0.77132,0.43293 1.94702,1.13542 2.64952,1.20878c0.81353,0.02581 1.02382,0.15313 1.76997,-0.22349c0.4412,-0.22214 2.66008,-4.22517 3.18276,-4.1695c0.62053,0.06682 1.60284,1.69995 2.29145,3.03509z" data-paper-data="{&quot;index&quot;:null}" fill="#f8b820" stroke="none" stroke-width="1" stroke-linecap="round"/><path d="M233.24369,179.61422c0.08455,0.61531 0.25274,1.29559 0.10869,1.85522c-0.08857,0.34158 -0.49405,0.69378 -0.65168,0.40449c-0.46405,-0.85202 -0.59488,-1.95499 -0.74572,-2.97088c-0.09264,-0.55638 -0.20938,-1.25474 0.02647,-1.67377c0.15788,-0.28148 0.64394,-0.11793 0.81327,0.17764c0.32968,0.64819 0.34721,1.46715 0.44897,2.20729z" data-paper-data="{&quot;index&quot;:null}" fill="#ffffff" stroke="none" stroke-width="0.86553" stroke-linecap="round"/><path d="M240.84861,173.68988c-0.10586,0.08991 -1.3641,-0.55715 -2.14749,-0.79278c-0.7834,-0.23563 -1.6517,-0.19931 -1.7063,-0.37857c-0.13971,-0.47552 0.42638,-1.10727 0.57819,-1.57373c0.15938,-0.48944 1.22557,-2.083 1.5109,-2.02441c0.32165,0.06838 1.97575,4.58893 1.7647,4.76948z" data-paper-data="{&quot;index&quot;:null}" fill="#ffffff" stroke="none" stroke-width="0.85185" stroke-linecap="butt"/><path d="M238.22961,182.03444c-0.19224,0.47198 -0.81027,0.50626 -1.26146,0.56652c-0.48908,0.04821 -1.21172,0.25453 -1.47762,-0.2484c-0.59933,-1.13424 -0.52631,-2.60282 -0.68931,-3.8704c-0.06984,-0.54381 -0.18919,-1.1172 -0.02901,-1.63937c0.01243,-0.19287 0.27018,-0.149 0.46711,-0.17838c0.23555,-0.03546 0.44962,-0.05273 0.71876,-0.00526c0.27784,0.05139 0.57086,0.1492 0.81085,0.29863c0.3334,0.23049 0.71323,0.4877 0.89898,0.86836c0.28349,0.57013 0.38629,1.24576 0.47242,1.88886c0.1061,0.78967 0.36756,1.63581 0.0893,2.31945z" data-paper-data="{&quot;index&quot;:null}" fill="#ffffff" stroke="none" stroke-width="0.97175" stroke-linecap="round"/><path d="M243.22174,178.45698c-0.21113,0.31603 -1.23428,1.30425 -0.9287,1.40872c0.6028,0.20719 1.52314,0.03398 1.52314,0.03398c0,0 -0.66707,0.21866 -1.2511,0.85149c-0.10923,0.11827 1.57402,0.69968 1.57402,0.69968l-1.45811,0.62605l1.115,0.78733c0,0 -2.7107,-0.00399 -3.04187,0.24181c-0.36551,0.27103 -1.11865,0.86171 -1.94969,1.17814c-0.83104,0.31644 -2.01229,0.61707 -2.84172,0.70225c-0.75711,0.04975 -1.87805,-0.11257 -2.81847,-0.7652c-0.55799,-0.24449 -1.12307,-1.5057 -0.73881,-1.87991c0.67092,-0.65337 2.00987,-0.63472 2.91918,-0.31713c0.80402,0.28081 1.80154,0.2091 2.60391,-0.06593c0.78984,-0.2579 1.34686,-0.63391 1.93243,-1.2437c0.88544,-0.92135 3.63916,-2.67508 3.36078,-2.25756z" data-paper-data="{&quot;index&quot;:null}" fill="#f8f8f8" stroke="none" stroke-width="1" stroke-linecap="round"/><path d="M233.06541,182.06757c0.35468,-0.05492 0.39988,0.01431 0.65107,0.09848c0.2512,0.08417 -0.15788,0.74095 -0.51257,0.79587c-0.35469,0.05492 -1.11552,-0.42068 -0.90156,-0.57689c0.21397,-0.15619 0.40837,-0.26254 0.76306,-0.31746z" data-paper-data="{&quot;index&quot;:null}" fill="#101010" stroke="none" stroke-width="1" stroke-linecap="butt"/><path d="M236.33144,184.60577l1.61151,-1.03682" data-paper-data="{&quot;index&quot;:null}" fill="none" stroke="#cccccc" stroke-width="0.36953" stroke-linecap="round"/><path d="M233.55041,176.32356l-2.31574,1.89369l-1.1657,2.42064l0.55054,-3.20994l2.52631,-1.62547z" fill="#f8b820" stroke="none" stroke-width="1.22222" stroke-linecap="round"/><path d="M233.05713,175.8746l-2.39604,0.06405l-2.29523,1.91652c0,0 1.26409,-2.55485 1.66527,-2.76519c0.28142,-0.14756 3.0702,-0.03698 3.0702,-0.03698z" fill="#f8b820" stroke="none" stroke-width="1.22222" stroke-linecap="round"/><path d="M233.15271,173.24853c0,0 -1.4637,1.0546 -1.76139,1.1007c-0.15262,0.02364 -0.76961,-1.06309 -1.10453,-1.83415c-0.33493,-0.77104 -0.46799,-1.78603 -0.46799,-1.78603z" fill="#ffffff" stroke="none" stroke-width="0" stroke-linecap="butt"/><path d="M233.17193,174.83852c0,0 -1.37259,-0.79228 -2.35659,-0.85307c-0.984,-0.0608 -4.29218,0.4423 -4.29218,0.4423c0,0 3.1727,-1.58959 3.83274,-1.54203c0.40019,0.02883 3.30507,1.17639 3.30507,1.17639z" fill="#f8b820" stroke="none" stroke-width="1.22222" stroke-linecap="round"/><g stroke="none" stroke-linecap="butt"><path d="M235.90241,179.51867c0.14065,0.22209 0.25646,0.53931 0.3125,0.9012c0.05604,0.36189 0.0416,0.69927 -0.02529,0.9535c-0.06823,0.25332 -0.18918,0.42243 -0.34868,0.44712c-0.1594,0.02469 -0.32583,-0.09992 -0.46749,-0.32074c-0.14075,-0.22208 -0.25645,-0.53931 -0.31249,-0.90119c-0.05604,-0.36189 -0.0417,-0.69925 0.02528,-0.9535c0.06823,-0.25332 0.18918,-0.42243 0.34858,-0.44711c0.1595,-0.0247 0.32593,0.0999 0.46759,0.32072z" fill="#4088ed" stroke-width="1.0615"/><path d="M235.82378,179.8121c0.09323,0.13745 0.1679,0.33536 0.20291,0.56146c0.03501,0.2261 0.02371,0.43732 -0.02357,0.59663c-0.0468,0.15913 -0.12903,0.26588 -0.23576,0.28241c-0.10673,0.01653 -0.2173,-0.06036 -0.31003,-0.19789c-0.09325,-0.13755 -0.16791,-0.33545 -0.20293,-0.56156c-0.03501,-0.2261 -0.02371,-0.43732 0.02359,-0.59654c0.04678,-0.15923 0.12893,-0.26586 0.23566,-0.28239c0.10673,-0.01653 0.21738,0.06024 0.31014,0.19787z" fill="#000000" stroke-width="0.47368"/><path d="M235.62161,179.9474c0.04133,0.05584 0.07415,0.13646 0.08851,0.22915c0.01435,0.09269 0.00746,0.17947 -0.01505,0.24519c-0.02193,0.06553 -0.06016,0.11011 -0.10878,0.11764c-0.04852,0.00752 -0.09854,-0.0234 -0.13926,-0.07922c-0.04133,-0.05584 -0.07406,-0.13647 -0.08841,-0.22917c-0.01435,-0.09269 -0.00755,-0.17946 0.01496,-0.24518c0.02193,-0.06553 0.06026,-0.11011 0.10878,-0.11763c0.04862,-0.00753 0.09854,0.02339 0.13926,0.07922z" fill="#ffffff" stroke-width="0.64678"/><path d="M233.11404,179.93227c0.12508,0.19738 0.22793,0.47926 0.27776,0.80103c0.04981,0.32166 0.03705,0.62155 -0.02247,0.84752c-0.06056,0.22512 -0.16813,0.37546 -0.30983,0.3974c-0.14171,0.02194 -0.2897,-0.08881 -0.41562,-0.28505c-0.12508,-0.19738 -0.22795,-0.47937 -0.27776,-0.80103c-0.04982,-0.32176 -0.03705,-0.62156 0.02247,-0.84752c0.06064,-0.22523 0.16821,-0.37557 0.30992,-0.39751c0.14171,-0.02194 0.2897,0.08881 0.41554,0.28517z" fill="#4088ed" stroke-width="0.94355"/><path d="M232.98639,180.21873c0.08279,0.12227 0.14929,0.29817 0.1804,0.49908c0.03113,0.20101 0.02094,0.38878 -0.02098,0.53036c-0.04153,0.14153 -0.11469,0.23633 -0.20955,0.25102c-0.09487,0.01469 -0.19317,-0.05358 -0.27567,-0.17589c-0.08279,-0.12227 -0.14929,-0.29816 -0.18041,-0.49917c-0.03111,-0.20091 -0.02092,-0.38868 0.021,-0.53026c0.04163,-0.14154 0.11469,-0.23633 0.20955,-0.25102c0.09487,-0.01469 0.19327,0.05355 0.27566,0.17588z" fill="#000000" stroke-width="0.42105"/><path d="M232.77378,180.34425c0.03671,0.04957 0.06583,0.12125 0.07858,0.20358c0.01277,0.08242 0.00669,0.15955 -0.01332,0.2179c-0.0195,0.05837 -0.05354,0.09795 -0.09672,0.10464c-0.04318,0.00669 -0.08751,-0.02075 -0.12375,-0.07049c-0.03681,-0.04955 -0.06593,-0.12123 -0.07869,-0.20365c-0.01275,-0.08232 -0.00668,-0.15946 0.01342,-0.21782c0.0195,-0.05837 0.05345,-0.09793 0.09663,-0.10462c0.04318,-0.00669 0.0876,0.02074 0.12384,0.07048z" fill="#ffffff" stroke-width="0.57492"/></g><path d="M247.48958,163.84299c0.07884,0.00966 1.57451,0.10193 2.5525,0.46926c1.5451,0.58034 2.80492,1.53217 2.80492,1.53217c0,0 -2.12282,-0.75755 -2.70613,-0.85289c-1.03808,-0.16967 -2.98873,-0.07793 -2.98873,-0.07793c0,0 1.72475,-0.02628 2.54794,0.14864c0.69838,0.14838 2.07863,0.8344 2.07863,0.8344c0,0 -1.26265,-0.16542 -1.81879,-0.18308c-0.63205,-0.02006 -1.77496,0.06901 -1.77496,0.06901c0,0 0.84143,0.04699 1.36572,0.16179c0.52429,0.1148 1.11148,0.3806 1.11148,0.3806c0,0 -0.63191,0.06038 -0.91197,0.11284c-0.31233,0.05851 -0.94557,0.28512 -0.94557,0.28512c0,0 0.69996,0.07362 1.12461,0.21196c0.42465,0.13836 1.03397,0.49132 1.03397,0.49132c0,0 -0.48502,0.07611 -0.79172,0.14349c-0.30669,0.06738 -0.56858,0.15538 -0.56858,0.15538c0,0 0.38356,0.04558 0.608,0.13999c0.22445,0.0944 0.49253,0.32288 0.49253,0.32288c0,0 -0.36083,0.02804 -0.51969,0.06361c-0.2018,0.04519 -0.59343,0.18565 -0.59343,0.18565c0,0 0.60598,0.15496 0.80868,0.24822c0.15077,0.06937 0.44437,0.25956 0.44437,0.25956l-0.6142,0.00709l0.4721,0.51979l-1.05932,-0.26364l0.40701,-0.44315l-0.91803,-0.32226l0.66236,-0.40695c0,0 -0.23138,-0.17172 -0.39937,-0.24279c-0.16798,-0.07107 -0.49407,-0.13515 -0.49407,-0.13515c0,0 0.31201,-0.17628 0.53272,-0.21831c0.22072,-0.04203 0.85836,-0.04657 0.85836,-0.04657l-1.18778,-0.31058l-1.58056,-0.13833c0,0 0.44375,-0.29741 0.75762,-0.42608c0.31387,-0.12867 1.00502,-0.29647 1.00502,-0.29647c0,0 -0.74138,-0.08798 -1.21775,-0.12325c-0.47636,-0.03527 -1.35843,-0.06748 -1.35843,-0.06748c0,0 0.69017,-0.45492 1.19438,-0.5531c0.5042,-0.09819 1.69483,-0.00947 1.69483,-0.00947c0,0 -1.35469,-0.29638 -2.23236,-0.27696c-0.87768,0.01943 -3.02511,0.39329 -3.02511,0.39329c0,0 1.48168,-0.918 2.5499,-1.05679c1.06823,-0.13879 3.4641,0.27541 3.4641,0.27541c0,0 -3.00977,-0.53666 -3.61092,-0.4861c-1.51029,0.12705 -4.52397,1.23952 -4.52397,1.23952c0,0 2.11261,-2.10086 5.26965,-1.71364z" data-paper-data="{&quot;index&quot;:null}" fill="#dcdce1" stroke="none" stroke-width="0" stroke-linecap="butt"/><path d="M260.50867,169.70591c0.1563,-0.39615 0.35948,-1.14096 0.35948,-1.14096c0,0 -0.22095,0.52276 -0.41283,0.82908c-0.19189,0.30632 -0.4938,0.61819 -0.4938,0.61819c0,0 0.10527,-0.41433 0.13564,-0.60381c0.03386,-0.2113 0.03405,-0.66424 0.03405,-0.66424c0,0 -0.20568,0.42704 -0.38987,0.66483c-0.18418,0.23779 -0.54637,0.54389 -0.54637,0.54389c0,0 0.06193,-0.32478 0.08888,-0.53453c0.02696,-0.20975 0.03066,-0.39576 0.03066,-0.39576c0,0 -0.11602,0.23281 -0.22686,0.35367c-0.11084,0.12085 -0.31659,0.2389 -0.31659,0.2389c0,0 0.06419,-0.23513 0.07773,-0.34392c0.01719,-0.13821 0.01712,-0.41839 0.01712,-0.41839c0,0 -0.23591,0.34897 -0.34109,0.45629c-0.07822,0.07982 -0.26551,0.22276 -0.26551,0.22276l0.13505,-0.39101l-0.43678,0.18123l0.40779,-0.61169l0.18848,0.3587l0.41287,-0.50879l0.10753,0.51237c0,0 0.16143,-0.10768 0.24465,-0.19804c0.08321,-0.09035 0.19793,-0.28252 0.19793,-0.28252c0,0 0.04089,0.23786 0.0174,0.38733c-0.02349,0.14947 -0.16546,0.55475 -0.16546,0.55475l0.46673,-0.68247l0.44676,-0.97061c0,0 0.08775,0.3489 0.09801,0.57711c0.01027,0.22822 -0.04037,0.70451 -0.04037,0.70451c0,0 0.2242,-0.45004 0.35478,-0.74403c0.13058,-0.29399 0.35137,-0.84589 0.35137,-0.84589c0,0 0.13162,0.54089 0.07933,0.88285c-0.0523,0.34196 -0.37902,1.07665 -0.37902,1.07665c0,0 -0.3752,0.5221 -0.23768,0.17354z" data-paper-data="{&quot;index&quot;:null}" fill="#dcdce1" stroke="none" stroke-width="0" stroke-linecap="butt"/><path d="M236.72844,169.71452c0,0 0.62184,-1.19183 1.76818,-2.15995c0.9443,-0.79748 2.07953,-1.29432 2.84326,-1.4913c0.74445,-0.19201 1.71485,0.99055 2.50905,2.5999c1.00969,2.04602 1.09535,4.88167 1.09535,4.88167l-1.80098,-2.95139l-0.86018,1.23939l-1.21248,-1.06651c0,0 -1.09533,0.60937 -1.25237,0.64987c-0.64471,0.16629 -0.75741,-1.73602 -0.75741,-1.73602l-1.40451,0.90381l-0.9279,-0.86949z" fill="#23d892" stroke="none" stroke-width="0" stroke-linecap="butt"/><path d="M235.21573,172.52752c-0.58837,-0.00285 0.20048,-1.4334 0.68833,-2.0389c0.49098,-0.6094 1.37256,-1.38202 1.37256,-1.38202l0.24064,1.32492l1.89508,-1.15172c0,0 0.07642,0.59059 0.15666,0.96267c0.08024,0.37208 0.25856,0.96279 0.25856,0.96279l1.69405,-0.94961l0.48689,1.51259l0.79008,-0.82963l-0.13842,1.6284c0,0 0.50984,0.98334 0.0961,1.22828c-0.87948,0.52065 -2.22727,-0.62904 -3.93493,-0.81902c-1.92253,-0.2139 -0.87513,-0.43556 -3.60559,-0.44874z" fill="#fd0000" stroke="none" stroke-width="0" stroke-linecap="butt"/><g stroke-width="0" stroke-linecap="butt"><path d="M243.89432,173.82985c-0.04309,-0.47779 0.3093,-0.90005 0.78709,-0.94314c0.47779,-0.04309 0.90005,0.3093 0.94314,0.78709c0.04309,0.47779 -0.3093,0.90005 -0.78709,0.94314c-0.47779,0.04309 -0.90005,-0.3093 -0.94314,-0.78709z" fill="#db7b04" stroke="none"/><path d="M245.70794,173.63543c0.01481,0.16418 -0.47925,0.15363 -0.94138,0.19532c-0.46213,0.04168 -0.91253,0.19513 -0.92734,0.03095c-0.02255,-0.25005 0.4337,-0.33879 0.89581,-0.38047c0.46213,-0.04168 0.94777,-0.12448 0.9729,0.15419z" fill="#feeb00" stroke="#000000"/><path d="M244.88017,174.54213c0.01627,0.18042 -0.09553,0.0782 -0.18574,0.08633c-0.09021,0.00813 -0.25444,-0.35537 -0.27072,-0.53579c-0.01627,-0.18042 0.17883,-0.11458 0.26904,-0.12272c0.09021,-0.00813 0.17114,0.39175 0.18741,0.57217z" fill="#000000" stroke="none"/><path d="M245.35266,173.91747c0.04743,-0.00427 0.13689,-0.08213 0.14829,0.04435c0.01141,0.12648 -0.06212,0.38078 -0.10956,0.38506c-0.04744,0.00428 -0.09255,-0.06616 -0.10396,-0.19264c-0.01141,-0.12648 0.01779,-0.23248 0.06523,-0.23677z" fill="#000000" stroke="none"/></g><g><g><path d="M249.41137,185.34596l0.82475,0.00697c0,0 1.37406,2.48892 1.80668,3.86843c0.3609,1.15079 0.63232,2.91075 0.65782,3.63186c0.04401,1.24507 -0.58158,1.0435 -0.58158,1.0435c0,0 -0.01557,-3.26871 -0.38047,-4.54369c-0.26012,-0.90899 -2.32719,-4.00707 -2.32719,-4.00707z" fill="#989898" stroke="#989898" stroke-width="0" stroke-linecap="round"/><path d="M248.16382,187.1941c0.09253,-0.55464 0.15713,-0.99127 0.56964,-1.43162c0.58641,-0.62598 0.98821,-0.43541 1.30361,-0.01271c0.66362,0.88995 1.36214,2.63517 1.36214,2.63517l-2.95639,1.87341c0,0 -0.4196,-2.21389 -0.27899,-3.06426z" fill="#f82020" stroke="none" stroke-width="1.13968" stroke-linecap="round"/><path d="M251.3453,188.31089c0,0 0.16784,0.10435 0.4386,1.06105c0.27076,0.95668 0.50255,2.24591 0.58328,3.33887c0.0318,0.43826 0.12309,1.18522 -0.21957,1.2448c-0.58336,0.10153 -1.81394,-0.12238 -2.30061,-0.63829c-0.48358,-0.51301 -1.49119,-2.46368 -1.41687,-3.19592c0.14613,-1.30357 2.91519,-1.81051 2.91519,-1.81051z" fill="#f8f8f8" stroke="none" stroke-width="1.15102" stroke-linecap="round"/><path d="M246.34632,187.44557c-0.02771,-0.42771 -0.39127,-1.16175 0.04162,-1.63134c0.49172,-0.5334 0.92414,0.11095 0.92414,0.11095c0,0 0.13597,-0.63047 0.54866,-0.41187c0.4007,0.21223 0.40718,0.49459 0.46408,0.79556c0.09561,0.50574 -0.11687,1.37856 -0.1054,1.55549c0.05732,0.8847 0.39484,2.18503 -0.06927,2.2151c-0.12311,0.00797 -0.71824,-0.19216 -0.71824,-0.19216c0,0 -0.58813,0.5299 -0.80272,0.16269c-0.27838,-0.47636 -0.2591,-2.23736 -0.28288,-2.60443z" fill="#ffffff" stroke="none" stroke-width="0" stroke-linecap="butt"/></g><path d="M248.71102,188.1709c0.08927,1.37782 0.03698,2.16881 -0.31196,2.19142c-0.12718,0.00824 -0.05576,-0.72832 -0.14503,-2.10614c-0.08927,-1.37782 -0.05494,-2.446 0.07225,-2.45424c0.34894,-0.0226 0.29547,0.99115 0.38474,2.36897z" fill="#424242" stroke="none" stroke-width="0" stroke-linecap="butt"/></g></g></g></svg>