<svg version="1.1" xmlns="http://www.w3.org/2000/svg" xmlns:xlink="http://www.w3.org/1999/xlink" width="31.44699" height="43.01918" viewBox="0,0,31.44699,43.01918"><g transform="translate(-223.6486,-158.26441)"><g data-paper-data="{&quot;isPaintingLayer&quot;:true}" fill-rule="nonzero" stroke-linejoin="miter" stroke-miterlimit="10" stroke-dasharray="" stroke-dashoffset="0" style="mix-blend-mode: normal"><g stroke="none" stroke-width="0" stroke-linecap="butt"><path d="M226.94415,189.41725c2.57228,0.81697 6.41993,0.14352 6.15517,0.97712c-0.26476,0.83361 -2.45767,0.57364 -6.50177,-0.38211c-2.62655,-0.62073 -3.15235,-2.27616 -2.88759,-3.10976c0.26476,-0.83362 0.66192,1.69778 3.23419,2.51475z" fill="#310808"/><path d="M223.71327,186.75388c0.18857,-1.08326 3.5724,-1.54491 6.00975,-1.12063c1.35904,0.23657 3.27231,0.94734 3.80105,2.00832c0.41951,0.8418 -0.23021,2.12845 -0.32758,2.60506c-0.13924,0.68157 -2.92267,0.23834 -5.91252,-0.33534c-2.42967,-0.4662 -3.75928,-2.07416 -3.57071,-3.15742z" fill="#6b1c27"/><path d="M228.58802,190.13565c0,0 0.61135,-1.77997 0.57844,-2.92151c-0.04207,-1.45916 -1.76934,-1.72943 -1.76934,-1.72943l1.90033,0.0565c0,0 1.692,0.26253 1.70735,2.12862c0.01004,1.22011 -0.47903,2.7945 -0.47903,2.7945z" fill="#747875"/></g><g stroke="none" stroke-width="0" stroke-linecap="butt"><g><path d="M241.36523,201.0683c-0.74398,-0.45989 1.80789,-0.22831 3.22696,-2.52402c1.41907,-2.29571 1.70338,-6.19148 2.44736,-5.7316c0.74398,0.45989 -0.04244,2.52336 -1.95473,6.21274c-1.24199,2.39615 -2.97562,2.50277 -3.7196,2.04289z" fill="#310808"/><path d="M241.22185,201.02887c-1.00468,-0.44681 -0.62795,-3.84115 0.37739,-6.10167c0.56058,-1.26045 1.71609,-2.94289 2.87392,-3.1972c0.91865,-0.20177 2.00822,0.74187 2.44674,0.95242c0.62711,0.30111 -0.48094,2.89267 -1.76579,5.65263c-1.04412,2.24287 -2.92757,3.14062 -3.93225,2.69381z" fill="#6b1c27"/><path d="M245.68946,197.125c0,0 -1.57736,-1.02661 -2.69253,-1.27283c-1.42544,-0.31472 -2.10841,1.29465 -2.10841,1.29465l0.51781,-1.82929c0,0 0.66687,-1.57705 2.48046,-1.13727c1.18578,0.28754 2.59357,1.14546 2.59357,1.14546z" fill="#747875"/></g><path d="M244.65386,196.50997c-0.79195,-0.40474 -0.87626,-0.5799 -0.497,-1.26126c0.3195,-0.57401 0.57866,-0.7723 1.34045,-0.38196c0.8054,0.41268 0.88189,0.44079 0.52573,1.1893c-0.39103,0.82177 -0.59546,0.86156 -1.36917,0.45392z" fill="#b29540"/><path d="M244.88077,196.10233c-0.39285,-0.20078 -0.43468,-0.28767 -0.24654,-0.62566c0.15849,-0.28474 0.28704,-0.38311 0.66495,-0.18948c0.39952,0.20471 0.43747,0.21866 0.26079,0.58997c-0.19398,0.40765 -0.29538,0.42739 -0.67919,0.22517z" fill="#747875"/></g><path d="M234.6875,174.9375c-1.3765,-1.72736 -2.0102,-4.71684 -2.0102,-4.71684l3.6352,1.59184l3.25,6c0,0 -3.4985,-1.14764 -4.875,-2.875z" fill="#0d0a0e" stroke="none" stroke-width="0" stroke-linecap="butt"/><g fill="#0d0a0e" stroke-width="0"><path d="M236.2992,172.86241c0,-2.93512 2.37938,-5.31452 5.31451,-5.31452c2.93512,0 5.31451,2.37939 5.31451,5.31452c0,2.93512 -2.37938,5.31451 -5.31451,5.31451c-2.93512,0 -5.31451,-2.37938 -5.31451,-5.31451z" stroke="none" stroke-linecap="butt"/><path d="M236.2112,172.04801c0,0 -0.01588,-3.84768 2.39396,-7.76081c2.66708,-4.33085 6.23647,-6.02279 6.23647,-6.02279l-0.67683,6.38466c0,0 1.65443,0.01045 4.04403,-1.24758c2.44161,-1.2854 3.05322,-3.09038 3.05322,-3.09038c0,0 0.72393,2.90114 -0.8506,6.776c-1.351,3.32476 -1.96783,4.00572 -1.96783,4.00572c0,0 1.38711,0.03358 2.59573,-0.10916c1.20863,-0.14274 4.05624,-0.73796 4.05624,-0.73796c0,0 -3.79167,4.27959 -5.82109,5.43245c-2.02943,1.15286 -5.63385,2.08934 -5.63385,2.08934" stroke="#000000" stroke-linecap="round"/></g><path d="M245.26923,178.26639c1.61916,0.77467 3.55029,3.07032 3.55029,3.07032c0,0 -2.32064,-0.62756 -3.82521,-0.7083c-1.50457,-0.08075 -2.25205,-0.15849 -2.25205,-0.15849l-0.7567,-2.80954c0,0 1.66452,-0.16866 3.28367,0.60601z" fill="#0d0a0e" stroke="none" stroke-width="0" stroke-linecap="butt"/><path d="M232.99427,186.54137l7.39935,-3.91833l0.67828,1.41409c0,0 -1.45731,0.33713 -2.93253,1.06205c-1.47522,0.7249 -3.60129,2.14859 -3.60129,2.14859z" data-paper-data="{&quot;index&quot;:null}" fill="#0d0a0e" stroke="none" stroke-width="0" stroke-linecap="butt"/><path d="M240.97784,183.91293l1.23824,-1.28246c0,0 0.00118,0.96045 0.48215,1.56001c0.57741,0.71978 2.74613,2.46427 2.74613,2.46427c0,0 -2.23903,-0.52196 -3.25715,-1.14695c-1.01813,-0.62499 -1.20936,-1.59486 -1.20936,-1.59486z" fill="#0d0a0e" stroke="none" stroke-width="0" stroke-linecap="butt"/><path d="M231.61985,185.99613c0.46971,-0.21804 1.10575,-0.06894 1.10575,-0.06894c0,0 0.05689,-0.60627 0.52744,-0.76606c0.61049,-0.20729 1.44237,0.76185 1.74418,1.3569c0.30183,0.59503 0.40069,1.39425 0.09734,1.79673c-0.76468,1.01457 -1.06472,0.49317 -1.06472,0.49317c0,0 0.26109,0.5729 -0.85204,0.97089c-0.5485,0.19609 -1.09334,-0.87078 -1.43378,-1.69736c-0.34047,-0.82658 -0.59846,-1.83107 -0.12417,-2.08532z" fill="#747875" stroke="none" stroke-width="0" stroke-linecap="butt"/><path d="M238.54432,181.70756c-0.43138,-1.54049 -0.30073,-3.2912 1.03985,-3.66659c1.34058,-0.3754 3.19602,-1.70665 3.62739,-0.16616c0.25781,0.9207 -0.19901,2.50673 -0.0286,3.53088c0.30556,1.83643 -0.27374,2.31725 -1.07252,2.54092c-1.34057,0.3754 -3.13474,-0.69855 -3.56612,-2.23905z" fill="#0d0a0e" stroke="none" stroke-width="0" stroke-linecap="butt"/><path d="M238.32717,181.42395c-0.45161,-1.44876 -0.0256,-1.81025 0.43005,-2.64625c0.23104,-0.4239 1.42981,-0.55195 2.29193,0.23076c0.79564,0.72236 0.97881,4.31583 -0.14214,4.49443c-1.24907,0.199 -2.26004,-1.053 -2.57985,-2.07894z" fill="#111115" stroke="none" stroke-width="0" stroke-linecap="butt"/><path d="M243.8856,192.35534l-2.68069,-8.7553l1.65329,-0.49587c0,0 0.06257,1.64921 0.53674,3.38503c0.47417,1.73582 1.56334,4.30301 1.56334,4.30301z" data-paper-data="{&quot;index&quot;:null}" fill="#0d0a0e" stroke="none" stroke-width="0" stroke-linecap="butt"/><path d="M241.95942,167.63376c0,0 1.64372,-1.34837 2.82337,-2.0609c1.17967,-0.71253 1.34119,-0.74448 1.59988,-0.58408c0.2517,0.15607 0.18614,1.38491 0.17648,2.29118c-0.00967,0.90627 -0.22167,1.94582 -0.22167,1.94582" fill="#0d0a0e" stroke="#000000" stroke-width="0.125" stroke-linecap="round"/><path d="M236.5642,171.26005c0,0 -0.84875,-1.55844 -1.11193,-2.34129c-0.22997,-0.68404 -0.67638,-2.0572 -0.38103,-2.0995c0.24647,-0.03531 1.2072,0.39345 1.73266,0.50884c0.57254,0.12574 1.57345,0.21722 1.57345,0.21722" fill="#0d0a0e" stroke="#000000" stroke-width="0" stroke-linecap="round"/><path d="M236.91448,173.21614c0.30158,0.83689 0.65734,1.46231 0.95081,1.96652c0.09348,0.16063 0.33459,-0.26416 0.33459,-0.26416c0,0 0.16069,0.50511 0.40078,0.25427c0.79869,-0.41863 1.36346,-1.17711 2.13031,-1.98423c0.76686,-0.80712 2.22697,-2.5437 2.60299,-2.58871c0.32336,-0.03871 0.13099,-0.18529 0.53944,0.58687c0.28269,0.65684 0.37758,2.13024 -0.06576,2.9653c-0.44334,0.83505 -1.07334,1.77428 -2.30487,2.03529c-1.23152,0.26103 -2.33987,-1.08387 -3.45707,-0.81854c-0.13774,0.03271 -0.87176,0.58725 -0.87176,0.58725c0,0 -0.74049,-1.54326 -0.89447,-2.60829c-0.15399,-1.06504 -0.0512,-2.22034 -0.0512,-2.22034c0,0 0.38463,1.25188 0.68621,2.08877z" fill="#78828a" stroke="#000000" stroke-width="0" stroke-linecap="butt"/><path d="M237.23306,176.11391c0.00991,-0.24284 0.26844,-0.75042 1.12196,-0.8277c0.66167,-0.06977 1.65321,0.70898 2.6248,0.74822c1.45983,0.05896 1.93397,-1.74116 3.58526,-1.26901c1.32994,0.35803 0.68094,3.29708 -3.19639,3.39707c-0.92384,-0.02422 -2.19507,-0.40457 -2.93059,-0.80345c-0.89563,-0.4857 -1.22107,-0.85199 -1.20504,-1.24514z" fill="#111115" stroke="#000000" stroke-width="0" stroke-linecap="butt"/><path d="M236.11789,172.3069c0,0 -0.44231,-2.0172 -0.30905,-2.33792c0.20348,-0.48976 0.96279,0.06909 0.96279,0.06909" fill="#0d0a0e" stroke="#000000" stroke-width="0.125" stroke-linecap="round"/><path d="M235.96407,175.07563c0.04767,-0.13663 0.65204,0.15326 1.11519,0.30764c0.46314,0.15438 1.11519,0.22783 1.11519,0.46146c0,0.38744 -0.7438,0.36492 -1.269,0.23073c-0.83169,-0.2125 -1.11765,-0.55187 -0.96137,-0.99982z" fill="#0d1114" stroke="none" stroke-width="0" stroke-linecap="butt"/><path d="M236.95512,175.33356c0.22988,0.04286 0.40466,0.13972 0.39037,0.21635c-0.01429,0.07663 -0.21223,0.10401 -0.4421,0.06114c-0.22988,-0.04286 -0.40466,-0.13972 -0.39037,-0.21635c0.01429,-0.07663 0.21223,-0.10401 0.4421,-0.06114z" fill="#78828a" stroke="none" stroke-width="0" stroke-linecap="butt"/><path d="M243.02951,167.58433c0,0 2.03726,-1.68473 2.72865,-1.50546c0.48185,0.12494 -0.09409,3.10501 -0.09409,3.10501c0,0 -0.08843,-0.4319 -1.14178,-0.96602c-0.96298,-0.48829 -1.49277,-0.63353 -1.49277,-0.63353z" fill="#111115" stroke="none" stroke-width="0" stroke-linecap="butt"/><path d="M242.27208,178.86892c-0.16267,0.54108 -3.96985,-0.95491 -3.96985,-0.95491l-0.21234,-4.04594l1.01627,0.11487l0.24252,3.11918c0,0 1.82467,0.78737 2.28355,1.00084c0.64646,0.30073 0.75514,0.38247 0.63985,0.76597z" data-paper-data="{&quot;index&quot;:null}" fill="#111115" stroke="none" stroke-width="0" stroke-linecap="butt"/><path d="M238.66239,179.14144c-0.34551,-0.26094 -3.27455,-2.47817 -3.27455,-2.47817l1.47832,-2.61446l0.93367,0.41165l-1.10814,2.04526c0,0 1.39162,0.90623 2.51939,1.81207c1.22114,0.98083 0.01355,1.24827 -0.54869,0.82363z" data-paper-data="{&quot;index&quot;:null}" fill="#111115" stroke="none" stroke-width="0" stroke-linecap="butt"/><g><g><path d="M241.23989,172.22316c-0.25483,0.48501 -0.96996,0.72768 -1.65747,1.2057c-0.51294,0.35663 -1.26459,0.20152 -1.69188,-0.023c-0.91234,-0.47935 -1.71133,-1.22714 -1.23198,-2.13946c0.15817,-0.30106 0.43054,-0.95161 0.6829,-1.57049c0.24894,-0.61053 0.54077,-0.98756 0.8617,-0.85439c0.41235,0.17109 0.32127,0.49124 0.32127,0.49124c0,0 0.33165,-0.23537 0.52679,-0.14851c0.19514,0.08687 0.34676,0.53796 0.34676,0.53796c0,0 0.34243,-0.15432 0.58014,-0.05177c0.23771,0.10257 0.27759,0.42019 0.27759,0.42019c0,0 0.29292,-0.20727 0.58329,-0.05948c0.29036,0.1478 0.18081,0.52319 0.18081,0.52319c0,0 0.14606,-0.2563 0.33881,-0.16947c0.19275,0.08683 0.04395,0.02285 0.12075,0.12568c0.06327,0.08472 -0.10536,1.45729 -0.23949,1.71256z" fill="#747875" stroke="none" stroke-width="0" stroke-linecap="butt"/><path d="M241.14045,170.4576c0,0 -0.38176,0.27276 -0.57985,0.60066c-0.19809,0.32791 -0.25012,0.8097 -0.42378,0.87705c-0.36709,0.1424 -0.952,-0.15642 -0.952,-0.15642" fill="none" stroke="#000000" stroke-width="0.125" stroke-linecap="round"/></g><path d="M237.8138,172.98256c0.31247,0.19521 1.39498,0.82159 1.26476,1.08797c-0.14556,0.24516 -0.56092,0.33171 -0.56092,0.33171c0,0 0.26722,0.34995 0.09259,0.56315c-0.22655,0.27661 -1.1501,-0.03775 -1.60476,-0.28624c-0.45465,-0.24849 -0.90042,-0.66362 -0.93495,-0.96646c-0.08703,-0.76339 0.33046,-0.55511 0.33046,-0.55511c0,0 -0.42189,-0.24707 -0.0186,-0.76247c0.19871,-0.25395 1.08026,0.36803 1.43145,0.58743z" fill="#747875" stroke="none" stroke-width="0" stroke-linecap="butt"/></g><g fill="#747875" stroke="none" stroke-width="0" stroke-linecap="butt"><g><path d="M241.34852,170.3241c-0.01138,0.54777 -0.54283,1.0843 -0.94445,1.81904c-0.29965,0.54818 -1.04143,0.7451 -1.52403,0.73508c-1.03037,-0.0214 -2.07924,-0.33361 -2.05782,-1.36398c0.00705,-0.34001 -0.03981,-1.0437 -0.09043,-1.71016c-0.04996,-0.65745 0.04276,-1.12511 0.38938,-1.1493c0.44535,-0.0311 0.50685,0.29603 0.50685,0.29603c0,0 0.19162,-0.35872 0.40499,-0.36816c0.21339,-0.00944 0.55053,0.32643 0.55053,0.32643c0,0 0.23745,-0.29102 0.49594,-0.30543c0.25849,-0.01438 0.43604,0.25197 0.43604,0.25197c0,0 0.16951,-0.31628 0.49532,-0.31372c0.32581,0.00255 0.39545,0.38736 0.39545,0.38736c0,0 0.0162,-0.29454 0.22745,-0.30294c0.21124,-0.00841 0.04953,0.00081 0.16418,0.05853c0.09445,0.04754 0.55661,1.35093 0.55061,1.63922z"/></g><path d="M238.6223,172.53377c0.36676,0.0351 1.61508,0.11205 1.61752,0.40854c-0.02074,0.28437 -0.35371,0.54732 -0.35371,0.54732c0,0 0.39539,0.19376 0.33436,0.4625c-0.07917,0.34868 -1.04588,0.47991 -1.56365,0.46064c-0.51776,-0.01927 -1.10203,-0.1916 -1.26817,-0.44714c-0.41883,-0.64414 0.04774,-0.64426 0.04774,-0.64426c0,0 -0.48782,-0.03264 -0.35718,-0.67387c0.06437,-0.31596 1.1309,-0.1532 1.5431,-0.11376z"/></g><path d="M242.85932,192.96943c-0.09703,-0.50868 0.20255,-1.08923 0.20255,-1.08923c0,0 -0.57414,-0.20289 -0.61446,-0.6982c-0.0523,-0.64259 1.09032,-1.21327 1.74097,-1.36101c0.65064,-0.14776 1.44986,-0.0489 1.7663,0.34336c0.79768,0.98883 0.2189,1.15279 0.2189,1.15279c0,0 0.61925,-0.11364 0.73404,1.06292c0.05655,0.57975 -1.11092,0.84823 -1.99554,0.97702c-0.88462,0.12881 -1.9217,0.13429 -2.05274,-0.38766z" fill="#747875" stroke="none" stroke-width="0" stroke-linecap="butt"/></g></g></svg>