<svg version="1.1" xmlns="http://www.w3.org/2000/svg" xmlns:xlink="http://www.w3.org/1999/xlink" width="23.35287" height="39.42899" viewBox="0,0,23.35287,39.42899"><g transform="translate(-228.28248,-160.83444)"><g data-paper-data="{&quot;isPaintingLayer&quot;:true}" fill-rule="nonzero" stroke-linejoin="miter" stroke-miterlimit="10" stroke-dasharray="" stroke-dashoffset="0" style="mix-blend-mode: normal"><path d="M240.62178,190.21128c0,0 0.34728,-2.76697 0.32977,-4.56631c-0.01751,-1.79933 -2.89059,-1.71014 -2.89059,-1.71014l0.19985,-1.97348c0,0 4.07162,1.20655 4.04314,3.37915c-0.0846,2.24598 -0.22364,6.08187 -0.22364,6.08187z" data-paper-data="{&quot;index&quot;:null}" fill="#0a1535" stroke="none" stroke-width="0" stroke-linecap="butt"/><path d="M240.99084,180.15647c0,0 -0.02369,-0.59749 0.36629,-0.60184c0.38999,-0.00435 0.5912,0.42358 0.5912,0.42358l-0.12827,2.22799l3.13929,0.01677l-0.09715,1.01577l-3.87951,-0.30032z" data-paper-data="{&quot;index&quot;:null}" fill="#5e4a30" stroke="none" stroke-width="0" stroke-linecap="butt"/><g data-paper-data="{&quot;index&quot;:null}"><g><path d="M248.59254,180.31512c0.28826,0.00774 1.56816,0.53143 1.61115,0.62803c0.05219,0.11726 0.06909,-0.04383 0.05064,0.16677c-0.01846,0.21062 -0.31343,0.21279 -0.31343,0.21279c0,0 0.38105,0.08787 0.36809,0.41343c-0.01297,0.32555 -0.33696,0.47982 -0.33696,0.47982c0,0 0.25761,0.19003 0.23092,0.44754c-0.0267,0.25752 -0.32869,0.48084 -0.32869,0.48084c0,0 0.31944,0.35272 0.29986,0.56543c-0.01959,0.2127 -0.38701,0.38701 -0.38701,0.38701c0,0 0.32382,0.07699 0.27157,0.52036c-0.04067,0.34508 -0.51222,0.41544 -1.16653,0.33425c-0.66329,-0.08229 -1.36396,-0.16261 -1.70392,-0.17174c-1.0302,-0.02766 -1.29213,-1.09019 -1.26446,-2.12041c0.01295,-0.48252 0.24497,-1.21409 0.80679,-1.48731c0.75304,-0.36619 1.31425,-0.87149 1.86194,-0.85679z" fill="#8e918f" stroke="none" stroke-width="0" stroke-linecap="butt"/><path d="M247.97574,182.32516c0,0 0.02516,-0.65633 0.32879,-0.907c0.14364,-0.11859 0.58938,0.07146 0.97229,0.0589c0.38289,-0.01257 0.80742,-0.21233 0.80742,-0.21233" fill="none" stroke="#000000" stroke-width="0.125" stroke-linecap="round"/></g><path d="M246.25559,182.93304c0.01977,0.41362 0.13161,1.48669 -0.18707,1.53594c-0.64676,0.09995 -0.65612,-0.38886 -0.65612,-0.38886c0,0 -0.02233,0.46603 -0.6458,0.01701c-0.24733,-0.17812 -0.39166,-0.76991 -0.38626,-1.28801c0.0054,-0.5181 0.18251,-1.47747 0.53455,-1.53996c0.27134,-0.04815 0.44606,0.35601 0.44606,0.35601c0,0 0.27851,-0.32009 0.56353,-0.32726c0.29605,0.01658 0.31349,1.26713 0.33109,1.63515z" fill="#8e918f" stroke="none" stroke-width="0" stroke-linecap="butt"/></g><path d="M237.86962,177.96983c0,0 0.19708,1.86487 0.85652,1.86487c0.65944,0 -1.06188,0.91077 -1.99003,2.27748c-0.92814,1.36671 -2.03425,3.64839 -2.03425,3.64839c0,0 -0.35268,-3.59223 0.00811,-5.02329c0.67719,-2.68608 3.10083,-2.76746 3.10083,-2.76746z" data-paper-data="{&quot;index&quot;:null}" fill="#02124a" stroke="none" stroke-width="0" stroke-linecap="butt"/><path d="M238.15334,183.80058c0,0 -0.19123,0.96987 -1.20936,1.59486c-1.01812,0.62499 -3.25715,1.14695 -3.25715,1.14695c0,0 2.16872,-1.74449 2.74613,-2.46427c0.48097,-0.59956 0.48215,-1.56001 0.48215,-1.56001l1.23824,1.28246z" data-paper-data="{&quot;index&quot;:null}" fill="#02124a" stroke="none" stroke-width="0" stroke-linecap="butt"/><path d="M237.9031,183.9466c-0.79878,-0.22367 -1.37808,-0.70449 -1.07252,-2.54092c0.17041,-1.02415 0.53712,-2.08076 0.79493,-3.00146c0.2549,-0.71696 1.46328,-0.73866 2.80386,-0.36326c1.34058,0.37539 1.47123,2.1261 1.03985,3.66659c-0.43138,1.5405 -2.22555,2.61445 -3.56612,2.23905z" data-paper-data="{&quot;index&quot;:null}" fill="#0a1535" stroke="none" stroke-width="0" stroke-linecap="butt"/><path d="M241.68638,181.42394c-0.31981,1.02594 -1.33078,2.27794 -2.57985,2.07894c-1.12095,-0.1786 -0.93778,-3.77207 -0.14214,-4.49443c0.86212,-0.78271 2.06089,-0.65466 2.29193,-0.23076c0.45565,0.836 0.88166,1.19749 0.43005,2.64625z" data-paper-data="{&quot;index&quot;:null}" fill="#5e4a30" stroke="none" stroke-width="0" stroke-linecap="butt"/><path d="M234.77253,189.49627c0,0 1.32363,-2.45453 1.95747,-4.13862c0.63385,-1.68409 0.22892,-3.92194 0.22892,-3.92194l1.26519,0.46103c0,0 0.17663,2.97111 -0.12307,3.66569c-0.89044,2.06366 -2.40615,5.59013 -2.40615,5.59013z" data-paper-data="{&quot;index&quot;:null}" fill="#0a1535" stroke="none" stroke-width="0" stroke-linecap="butt"/><g data-paper-data="{&quot;index&quot;:null}" fill="#0a1535" stroke-width="0"><path d="M238.91495,178.54171c-2.04586,-2.10463 -1.99823,-5.46924 0.10637,-7.5151c2.10462,-2.04586 5.46924,-1.99825 7.51511,0.10636c2.04587,2.10463 1.99823,5.46925 -0.10637,7.51511c-2.10463,2.04586 -5.46924,1.99824 -7.51511,-0.10637z" stroke="none" stroke-linecap="butt"/><path d="M237.79569,176.80292c0,0 -1.45615,-1.64429 -3.58846,-1.78055c-2.13232,-0.13627 -5.29688,1.03582 -5.29688,1.03582c0,0 0.42278,-1.72393 2.4427,-3.53785c1.7115,-1.53698 3.91069,-1.93016 3.91069,-1.93016c0,0 -1.60827,-1.05914 -2.58957,-1.25429c-1.63188,-0.32457 -4.39168,-0.1266 -4.39168,-0.1266c0,0 1.8606,-2.44103 5.62736,-3.6839c3.24527,-1.07078 6.05008,0.13312 6.05008,0.13312c0,0 -0.22774,-1.58392 -0.76927,-2.5786c-0.65771,-1.20809 -1.83913,-2.2448 -1.83913,-2.2448c0,0 5.62157,-0.16623 9.2171,4.73864c5.25797,7.10687 0.50671,12.56976 0.50671,12.56976" stroke="#000000" stroke-linecap="round"/></g><path d="M242.0407,168.91535c0,0 0.59765,-0.87661 1.24074,-1.51524c0.6431,-0.63863 1.47854,-1.54216 1.76588,-1.47047c0.29533,0.07368 0.38501,0.21176 0.69635,1.55429c0.31133,1.34251 0.49022,3.46099 0.49022,3.46099" data-paper-data="{&quot;index&quot;:null}" fill="#0a1535" stroke="#000000" stroke-width="0.125" stroke-linecap="round"/><path d="M248.79411,173.45178c0,0 0.76325,0.65392 1.25249,0.97682c0.44899,0.29635 1.4261,0.68638 1.57257,0.88773c0.17554,0.24126 -1.12024,0.8783 -1.77102,1.19019c-0.74479,0.35695 -2.45386,0.83464 -2.45386,0.83464" data-paper-data="{&quot;index&quot;:null}" fill="#0a1535" stroke="#000000" stroke-width="0" stroke-linecap="round"/><path d="M247.55105,177.31205c0,0 -0.58423,1.05647 -1.45524,1.68841c-0.87101,0.63194 -2.49373,1.17668 -2.49373,1.17668c0,0 -0.11401,-0.91285 -0.18656,-1.03441c-0.58847,-0.98602 -2.32537,-0.84333 -2.9966,-1.90833c-0.67125,-1.06499 -0.43692,-2.1714 -0.14717,-3.07134c0.28976,-0.89995 1.41238,-1.85892 2.08041,-2.11406c0.83838,-0.24534 1.44728,0.16387 1.64491,0.42272c0.22981,0.30099 0.7086,0.97561 0.49264,2.30881c-0.21348,1.31808 -1.43246,2.82265 -1.17593,3.68715c-0.01251,0.347 0.65923,0.25552 0.65923,0.25552c0,0 -0.01507,0.22563 0.16526,0.18069c0.5661,-0.14102 0.58783,-0.15851 1.39812,-0.5256c0.8103,-0.36709 2.01466,-1.0662 2.01466,-1.0662z" data-paper-data="{&quot;index&quot;:null}" fill="#0a1535" stroke="#000000" stroke-width="0" stroke-linecap="butt"/><path d="M243.44767,180.24483c-0.27073,0.28553 -0.76023,0.3075 -1.73277,0.00384c-0.7987,-0.24937 -1.9575,-0.8958 -2.61882,-1.54134c-2.63091,-2.84991 -0.97586,-5.36387 0.20788,-4.6598c1.48955,0.85494 0.52929,2.44966 1.58911,3.45532c0.70536,0.66933 1.95489,0.83749 2.36606,1.36056c0.53952,0.66588 0.35577,1.20506 0.18854,1.38143z" data-paper-data="{&quot;index&quot;:null}" fill="#5e4a30" stroke="#000000" stroke-width="0" stroke-linecap="butt"/><path d="M244.54808,178.25456c0,0 1.35393,-0.10996 2.29736,-0.60751c0.70852,-0.37366 1.44157,-0.82491 1.50921,-0.80084c0.2517,0.08956 0.62061,-0.16291 0.49191,0.13666c-0.13708,0.3191 -2.07618,1.5423 -2.07618,1.5423" data-paper-data="{&quot;index&quot;:null}" fill="#0a1535" stroke="#000000" stroke-width="0.125" stroke-linecap="round"/><path d="M245.07666,180.43105c-0.21225,0.42429 -0.65493,0.4558 -1.38701,0.00756c-0.4623,-0.28306 -0.99691,-0.8007 -0.7191,-1.07076c0.16752,-0.16284 0.67469,0.2535 1.10821,0.47798c0.43352,0.22448 1.06265,0.4558 0.99791,0.58521z" data-paper-data="{&quot;index&quot;:null}" fill="#0d1114" stroke="none" stroke-width="0" stroke-linecap="butt"/><path d="M244.46525,180.25983c-0.04498,0.06366 -0.23626,0.00585 -0.42723,-0.12911c-0.19097,-0.13495 -0.30929,-0.29596 -0.26432,-0.35962c0.04498,-0.06366 0.23626,-0.00585 0.42722,0.12911c0.19097,0.13495 0.3093,0.29597 0.26432,0.35963z" data-paper-data="{&quot;index&quot;:null}" fill="#fdfdfd" stroke="none" stroke-width="0" stroke-linecap="butt"/><path d="M245.52345,170.14315c0,0 -0.47342,-0.27865 -1.49477,-0.62879c-1.1172,-0.383 -1.48853,-0.14536 -1.48853,-0.14536c0,0 1.73539,-2.49016 2.16084,-2.23174c0.61046,0.3708 0.82247,3.00591 0.82247,3.00591z" data-paper-data="{&quot;index&quot;:null}" fill="#5e4a30" stroke="none" stroke-width="0" stroke-linecap="butt"/><path d="M241.02666,172.31038c0,0 1.95949,-0.70277 2.80108,-0.21112c1.34923,0.78821 0.58094,2.55858 -0.00129,4.19971c-0.34457,0.97124 -0.27669,1.50561 -0.27669,1.50561" data-paper-data="{&quot;index&quot;:null}" fill="none" stroke="#000000" stroke-width="0.125" stroke-linecap="round"/><path d="M245.25739,173.19361c0,0 0.23082,0.38489 0.11677,1.11073c-0.06531,0.41563 -0.60324,1.26473 -0.84803,2.03768c-0.29287,0.92476 -0.29359,1.7519 -0.29359,1.7519" data-paper-data="{&quot;index&quot;:null}" fill="none" stroke="#000000" stroke-width="0.125" stroke-linecap="round"/><path d="M243.71099,174.63345l-3.34466,-0.18811" data-paper-data="{&quot;index&quot;:null}" fill="none" stroke="#000000" stroke-width="0.125" stroke-linecap="round"/><path d="M241.98571,173.26573l0.02357,2.53438" data-paper-data="{&quot;index&quot;:null}" fill="none" stroke="#000000" stroke-width="0.125" stroke-linecap="round"/><path d="M246.09256,178.80365l0.66209,-0.99259" data-paper-data="{&quot;index&quot;:null}" fill="none" stroke="#000000" stroke-width="0.125" stroke-linecap="round"/><path d="M245.93613,178.18859l1.35598,-0.04001" data-paper-data="{&quot;index&quot;:null}" fill="none" stroke="#000000" stroke-width="0.125" stroke-linecap="round"/><path d="M237.67298,178.29434c0.07404,-0.21362 0.32582,-0.29129 0.57461,-0.24876c0.24879,0.04253 2.38037,0.82292 2.38037,0.82292l2.0725,-2.2847l0.83769,0.58674c0,0 -2.05151,2.89417 -2.53991,2.92227c-1.04072,0.05989 -2.81579,-0.99185 -2.98574,-1.23522c0,0 -0.41357,-0.34962 -0.33952,-0.56325z" data-paper-data="{&quot;index&quot;:null}" fill="#5e4a30" stroke="none" stroke-width="0" stroke-linecap="butt"/><g data-paper-data="{&quot;index&quot;:null}" fill="#8e918f" stroke="none" stroke-width="0" stroke-linecap="butt"><g><path d="M243.44235,172.35709c0.18637,-0.22004 1.39567,-0.89086 1.49793,-0.86396c0.12414,0.03265 0.00905,-0.08132 0.16179,0.06483c0.15274,0.14617 -0.03012,0.37763 -0.03012,0.37763c0,0 0.30697,-0.24229 0.55283,-0.02849c0.24587,0.21379 0.16351,0.56305 0.16351,0.56305c0,0 0.30941,-0.08207 0.49361,0.09985c0.1842,0.18195 0.16947,0.55725 0.16947,0.55725c0,0 0.47502,-0.02851 0.6287,0.11984c0.15365,0.14834 0.05977,0.54405 0.05977,0.54405c0,0 0.26267,-0.20444 0.57585,0.11372c0.24376,0.24762 0.00361,0.65949 -0.4691,1.11914c-0.47918,0.46596 -0.9802,0.96232 -1.20001,1.2218c-0.66612,0.78638 -1.65889,0.32593 -2.44526,-0.3402c-0.36831,-0.312 -0.79386,-0.9507 -0.65551,-1.55991c0.18545,-0.81655 0.14238,-1.57051 0.49652,-1.98857z"/></g><path d="M244.02257,175.81805c0.33503,0.24334 1.24209,0.82747 1.08114,1.10689c-0.32664,0.56706 -0.71384,0.26854 -0.71384,0.26854c0,0 0.34959,0.309 -0.39077,0.51445c-0.29371,0.08151 -0.84567,-0.17615 -1.24646,-0.50451c-0.40079,-0.32835 -1.03841,-1.06673 -0.86689,-1.38046c0.13219,-0.24181 0.55679,-0.12525 0.55679,-0.12525c0,0 -0.07545,-0.41751 0.09728,-0.64436c0.19813,-0.22059 1.18462,0.54822 1.48272,0.76473z"/></g><g data-paper-data="{&quot;index&quot;:null}" stroke="none" stroke-width="0" stroke-linecap="butt"><path d="M248.89796,196.63989c-0.20417,0.85047 -1.50988,1.99591 -4.07925,1.16982c-3.95606,-1.27192 -5.96774,-2.18273 -5.76356,-3.03321c0.20417,-0.85047 3.15003,1.71466 5.77436,2.3447c2.62432,0.63003 4.27264,-1.3318 4.06845,-0.48131z" fill="#310808"/><path d="M248.97195,196.51096c-0.39844,1.02482 -2.36774,1.71419 -4.6887,0.85756c-2.85606,-1.05413 -5.468,-2.11326 -5.23494,-2.76871c0.16298,-0.45835 0.27174,-1.89562 1.06595,-2.39946c1.001,-0.63502 3.00628,-0.25466 4.292,0.24521c2.30586,0.89648 4.96411,3.04057 4.56568,4.06539z" fill="#791919"/><path d="M241.22217,196.1665c0,0 0.39501,-1.60058 1.0342,-2.63991c0.9776,-1.5896 2.56178,-0.93987 2.56178,-0.93987l1.65605,0.93379c0,0 -1.61838,-0.66134 -2.40854,0.56608c-0.61816,0.96025 -1.01474,2.80002 -1.01474,2.80002z" fill="#8e918f"/></g><path d="M243.41853,192.21281c0.01214,0.538 -0.98922,0.80787 -1.87632,0.91837c-0.88708,0.11052 -2.08394,0.1614 -2.18324,-0.41257c-0.20147,-1.16484 0.42573,-1.21957 0.42573,-1.21957c0,0 -0.60155,-0.00453 -0.0948,-1.16956c0.20102,-0.46217 0.94538,-0.76951 1.6119,-0.79967c0.66653,-0.03019 1.91961,0.21689 2.03967,0.85034c0.09252,0.48825 -0.40721,0.8362 -0.40721,0.8362c0,0 0.44286,0.48026 0.48427,0.99645z" data-paper-data="{&quot;index&quot;:null}" fill="#8e918f" stroke="none" stroke-width="0" stroke-linecap="butt"/><g data-paper-data="{&quot;index&quot;:null}" stroke="none" stroke-width="0" stroke-linecap="butt"><g><path d="M230.29132,196.68604c0.03286,-4.15539 0.30156,-6.34723 1.17421,-6.40627c0.87265,-0.05903 -0.69602,3.51828 -0.51386,6.21102c0.18216,2.69274 2.54661,3.68019 1.67396,3.73923c-0.87265,0.05904 -2.35564,-0.84516 -2.33431,-3.54398z" fill="#310808"/><path d="M232.77082,200.26214c-1.09704,-0.07432 -2.3429,-1.748 -2.21823,-4.21885c0.15341,-3.04051 0.38445,-5.84953 1.07959,-5.82278c0.48609,0.01871 1.8903,-0.30659 2.60827,0.30099c0.90489,0.76577 1.14053,2.79315 1.04731,4.16949c-0.1672,2.46834 -1.4199,5.64548 -2.51694,5.57116z" fill="#791919"/><path d="M230.78589,192.76296c0,0 1.64552,-0.10084 2.82827,0.19891c1.80896,0.45845 1.66181,2.16436 1.66181,2.16436l-0.39679,1.85929c0,0 0.14802,-1.74202 -1.25933,-2.1297c-1.10102,-0.30329 -2.97527,-0.13252 -2.97527,-0.13252z" fill="#8e918f"/></g><path d="M230.84905,193.62234c0.03479,-0.8282 0.11555,-0.81732 1.02045,-0.80592c0.8559,0.01077 0.9924,0.30717 1.00672,0.96395c0.017,0.77961 -0.13937,0.8951 -1.02867,0.88296c-0.87453,-0.00104 -1.03668,-0.13173 -0.9985,-1.04099z" fill="#c5af37"/><path d="M231.83736,194.1969c-0.43382,-0.00051 -0.51425,-0.06534 -0.49531,-0.51639c0.01725,-0.41084 0.05732,-0.40545 0.5062,-0.39979c0.4246,0.00536 0.4923,0.15239 0.4994,0.47819c0.00844,0.38673 -0.06914,0.44401 -0.51028,0.438z" fill="#747875"/></g><path d="M235.27324,192.53219c-0.38577,0.37522 -1.26524,-0.17441 -1.95019,-0.74885c-0.68496,-0.57442 -1.53717,-1.41633 -1.18441,-1.87987c0.71592,-0.94071 1.18307,-0.51861 1.18307,-0.51861c0,0 -0.40627,-0.44363 0.79201,-0.86577c0.47535,-0.16746 1.20728,0.1684 1.6832,0.63602c0.47594,0.4676 1.14821,1.55356 0.76604,2.0728c-0.29458,0.40022 -0.88968,0.27114 -0.88968,0.27114c0,0 -0.05019,0.65136 -0.40004,1.03316z" data-paper-data="{&quot;index&quot;:null}" fill="#8e918f" stroke="none" stroke-width="0" stroke-linecap="butt"/></g></g></svg>