<svg version="1.1" xmlns="http://www.w3.org/2000/svg" xmlns:xlink="http://www.w3.org/1999/xlink" width="246.66289" height="220.58442" viewBox="0,0,246.66289,220.58442"><g transform="translate(-84.81865,-64.80948)"><g data-paper-data="{&quot;isPaintingLayer&quot;:true}" fill-rule="nonzero" stroke-miterlimit="10" stroke-dasharray="" stroke-dashoffset="0" style="mix-blend-mode: normal"><g stroke="none" stroke-width="0" stroke-linecap="butt" stroke-linejoin="miter"><path d="M196.01742,165.76372l11.89435,11.68597c0,0 0.83815,2.32458 -0.4173,5.92547c-0.81525,2.33855 -3.95275,4.96461 -3.95275,4.96461c0,0 4.75795,-0.81843 4.96695,3.09553c0.13421,2.51301 -6.41382,6.23795 -9.01152,6.98254c-1.52929,0.43837 -4.45743,0.28731 -6.4615,-0.8152c-1.26416,-0.69543 -2.13572,-2.4857 -2.13572,-2.4857c0,0 -2.26861,1.18009 -3.73339,-1.12009c-0.44879,-0.70469 -1.26103,-1.54164 -1.26103,-1.54164c0,0 -1.8845,0.33513 -2.88747,0.1115c-1.00304,-0.22368 -2.23807,-1.38755 -2.23807,-1.38755l-0.45627,-2.8124c0,0 -3.55787,-0.91641 -4.10486,-1.43458c-2.14556,-2.03252 -0.95776,-5.08699 -0.33088,-6.73045c1.14774,-3.00905 4.65024,-9.23362 5.49432,-9.60115c5.29801,-2.30661 14.63519,-4.83679 14.63519,-4.83679z" fill="#ffffff"/><path d="M212.59136,163.38569c5.49211,9.32047 3.47319,11.69872 -0.34988,13.34141c-5.85321,2.5151 -14.07197,1.95402 -19.28837,-11.07094c-1.42802,-3.56555 4.07106,-7.64867 6.98533,-8.59522c2.91431,-0.94651 10.70301,3.01561 12.65294,6.32471z" fill="#fed000"/><path d="M210.03108,164.38008c2.40483,2.60667 3.3248,5.66957 2.05486,6.84122c-1.26996,1.17165 -4.24889,0.00824 -6.65374,-2.59852c-2.40483,-2.60667 -3.3248,-5.66949 -2.05486,-6.84114c1.26996,-1.17165 4.24894,-0.00828 6.65369,2.59838z" fill="#c28830"/><path d="M232.98639,140.99461c2.18558,-1.31297 3.41175,-0.59155 4.2354,0.54007c1.22588,1.68438 0.95946,3.25482 -0.64044,4.52242c-6.38516,5.0587 -11.87545,9.59843 -16.05397,13.35155c-2.54741,2.28802 -12.1639,11.57885 -12.1639,11.57885c0,0 -0.47147,-0.54828 -2.35341,-1.50874c-1.88189,-0.96043 -3.07287,-4.29336 -3.07287,-4.29336c0,0 5.79036,-4.8662 12.10477,-10.53773c4.41651,-3.9669 11.34411,-9.68813 17.94448,-13.65308z" fill="#fed5c7"/></g><g stroke="none" stroke-width="0" stroke-linecap="butt" stroke-linejoin="miter"><path d="M202.21686,270.11765c0,0 -2.85213,-11.86189 2.05789,-17.05107c3.61619,-3.82178 22.63673,-10.87741 22.63673,-10.87741c0,0 0.24551,-2.63416 2.46207,-4.20286c0.97378,-0.68913 0.45547,-8.18148 0.45547,-8.18148c0,0 6.54976,0.5546 10.43702,-0.19678c3.88718,-0.75137 9.51388,-3.60294 9.51388,-3.60294l2.16226,9.63239c0,0 2.78886,1.82064 3.34957,4.52219c0.3187,1.5356 0.433,4.40613 0.433,4.40613c0,0 3.69628,2.01377 4.13952,5.26269c0.9275,6.79742 -4.49909,11.59551 -5.50462,12.70241c-10.02792,11.0394 -19.82882,12.83947 -28.0361,14.64249c-2.85673,0.62763 -8.96554,-0.00675 -13.34422,-1.40368c-6.31608,-2.01504 -10.76246,-5.65185 -10.76246,-5.65185z" fill="#f01b3e"/><path d="M206.19016,262.74635c0,-1.63743 0.54103,-6.91235 3.07707,-10.33677c1.50116,-2.02702 6.72588,-5.33865 11.55105,-7.71428c4.22438,-2.07972 8.21109,-3.37338 8.21109,-3.37338c0,0 0.36966,-1.77832 0.77424,-2.8626c0.40457,-1.08427 1.23056,-2.50969 1.23056,-2.50969l0.27059,-5.41549l9.42538,-0.65048l0.44339,7.75888c0,0 -1.74689,0.00318 -2.59812,2.03147c-0.35179,0.83813 -0.93592,4.15349 -0.93592,4.15349c0,0 -10.01815,6.87138 -11.96746,10.6164c-4.39804,8.44945 -1.00299,21.82576 -1.00299,21.82576c0,0 -4.66689,0.68286 -7.77967,0.18899c-3.11279,-0.49387 -9.39737,-2.96087 -9.39737,-2.96087c0,0 -1.30199,-4.48885 -1.30199,-10.75142z" fill="#ffffff"/><path d="M201.46921,268.11429c0,0 13.49623,12.73693 30.51738,6.2717c14.35389,-5.45207 28.07697,-19.73564 28.07697,-19.73564c0,0 0.95529,7.41566 -0.57475,12.54269c-1.46519,4.90954 -5.44397,6.39109 -5.44397,6.39109l-6.57968,-0.13605c0,0 -8.61995,7.67998 -23.91643,7.94153c-17.30802,0.19772 -22.58761,-6.50943 -22.58761,-6.50943l0.50817,-6.76582z" fill="#393939"/></g><path d="M236.04411,209.59033c2.80358,-0.35587 14.54957,3.49218 13.51943,7.49108c-1.43816,5.58271 -0.51597,2.01025 -0.64098,4.21355c-0.12501,2.20331 2.7393,2.75955 0.11833,5.00217c-2.14111,1.83212 -4.5879,4.52559 -8.50696,5.02454c-7.15338,0.09589 -9.32213,-0.36882 -12.13052,-2.22593c-1.88398,-1.24581 -0.69137,-6.392 -0.69137,-6.392c0,0 -3.33831,-3.06446 -3.30066,-5.00724c0.03778,-1.94281 5.93806,-7.38336 11.63263,-8.10613z" fill="#ffffff" stroke="none" stroke-width="0" stroke-linecap="butt" stroke-linejoin="miter"/><path d="M245.19882,217.17564c-0.07664,2.50213 -3.58085,4.42504 -7.82692,4.29503c-4.24605,-0.13008 -7.62602,-2.26388 -7.54939,-4.76602c0.07664,-2.50213 3.58093,-4.4251 7.827,-4.29508c4.24605,0.13008 7.62601,2.26395 7.54937,4.76608z" fill="#afafaf" stroke="none" stroke-width="0" stroke-linecap="butt" stroke-linejoin="miter"/><g stroke="none" stroke-width="0" stroke-linecap="butt" stroke-linejoin="miter"><path d="M213.71686,274.11765c0,0 -2.85213,-11.86189 2.05789,-17.05107c3.61619,-3.82178 22.63673,-10.87741 22.63673,-10.87741c0,0 0.24551,-2.63416 2.46207,-4.20286c0.97378,-0.68913 0.45547,-8.18148 0.45547,-8.18148c0,0 6.54976,0.5546 10.43702,-0.19678c3.88718,-0.75137 9.51388,-3.60294 9.51388,-3.60294l2.16226,9.63239c0,0 2.78886,1.82064 3.34957,4.52219c0.3187,1.5356 0.433,4.40613 0.433,4.40613c0,0 3.69628,2.01377 4.13952,5.26269c0.9275,6.79742 -4.49909,11.59551 -5.50462,12.70241c-10.02792,11.0394 -19.82882,12.83947 -28.0361,14.64249c-2.85673,0.62763 -8.96554,-0.00675 -13.34422,-1.40368c-6.31608,-2.01504 -10.76246,-5.65185 -10.76246,-5.65185z" fill="#f01b3e"/><path d="M217.69016,266.74635c0,-1.63743 0.54103,-6.91235 3.07707,-10.33677c1.50116,-2.02702 6.72588,-5.33865 11.55105,-7.71428c4.22438,-2.07972 8.21109,-3.37338 8.21109,-3.37338c0,0 0.36966,-1.77832 0.77424,-2.8626c0.40457,-1.08427 1.23056,-2.50969 1.23056,-2.50969l0.27059,-5.41549l9.42538,-0.65048l0.44339,7.75888c0,0 -1.74689,0.00318 -2.59812,2.03147c-0.35179,0.83813 -0.93592,4.15349 -0.93592,4.15349c0,0 -10.01815,6.87138 -11.96746,10.6164c-4.39804,8.44945 -1.00299,21.82576 -1.00299,21.82576c0,0 -4.66689,0.68286 -7.77967,0.18899c-3.11279,-0.49387 -9.39737,-2.96087 -9.39737,-2.96087c0,0 -1.30199,-4.48885 -1.30199,-10.75142z" fill="#ffffff"/><path d="M212.96921,272.11429c0,0 13.49623,12.73693 30.51738,6.2717c14.35389,-5.45207 28.07697,-19.73564 28.07697,-19.73564c0,0 0.95529,7.41566 -0.57475,12.54269c-1.46519,4.90954 -5.44397,6.39109 -5.44397,6.39109l-6.57968,-0.13605c0,0 -8.61995,7.67998 -23.91643,7.94153c-17.30802,0.19772 -22.58761,-6.50943 -22.58761,-6.50943l0.50817,-6.76582z" fill="#393939"/></g><path d="M249.75747,173.96366l8.66095,-0.43121l15.29482,12.9044l16.72563,-2.83316c0,0 -10.71541,8.10688 -16.54098,8.03753c-5.36102,-0.06387 -24.14041,-17.6777 -24.14041,-17.6777z" fill="#f79db4" stroke="none" stroke-width="0" stroke-linecap="butt" stroke-linejoin="miter"/><g data-paper-data="{&quot;index&quot;:null}" stroke-width="0" stroke-linecap="butt" stroke-linejoin="miter"><g data-paper-data="{&quot;index&quot;:null}"><path d="M180.80777,77.34641c0,-6.92393 5.63376,-12.53693 12.58316,-12.53693c6.94946,0 12.58302,5.61299 12.58302,12.53693c0,6.92394 -5.63363,12.53693 -12.58302,12.53693c-6.94946,0 -12.58316,-5.61299 -12.58316,-12.53693z" fill="#e0cb17" stroke="none"/><path d="M185.15585,81.48165c0,-4.27764 3.48039,-7.74533 7.77385,-7.74533c4.29346,0 7.77385,3.46764 7.77385,7.74533c0,4.27764 -3.48039,7.74534 -7.77385,7.74534c-4.29346,0 -7.77385,-3.4677 -7.77385,-7.74534z" fill="#e0cb17" stroke="#000000"/><path d="M192.75534,93.09985c-3.32863,0.01478 -8.91082,-1.87562 -8.91082,-1.87562l1.41811,-4.43657c0,0 4.09195,2.63341 7.04881,2.80106c2.9568,0.16765 7.11203,-1.99809 7.11203,-1.99809l1.83818,3.18962c0,0 -4.70305,2.30259 -8.50637,2.31952z" fill="#dbded5" stroke="#000000"/></g><g data-paper-data="{&quot;index&quot;:null}" stroke="none"><path d="M232.19397,117.52804c1.30983,0 2.37161,2.20402 2.37161,4.92285c0,2.71883 -1.06178,4.92285 -2.37161,4.92285c-1.30983,0 -2.37174,-2.20409 -2.37174,-4.92285c0,-2.71883 1.06184,-4.92285 2.37174,-4.92285z" fill="#000000"/><path d="M241.34419,151.87205c1.3644,0 5.43512,5.89263 5.43512,7.08892c0,1.19629 -2.29198,9.05803 -3.65631,9.05803c-1.3644,0 -8.20206,-2.16607 -8.20206,-2.16607c0,0 5.05892,-13.98095 6.42332,-13.98095z" fill="#807d5a"/><path d="M201.84906,86.43061l0.85643,-0.98456l31.68834,38.39839l-0.65889,2.03481z" fill="#6e6e73"/><path d="M213.77339,97.58908l-1.97641,2.10044l-7.642,-8.86122l2.17401,-2.10043z" fill="#ddcb1e"/></g></g><g stroke-width="0" stroke-linecap="butt" stroke-linejoin="miter"><g data-paper-data="{&quot;index&quot;:null}"><path d="M315.33946,99.84637c-8.91499,0 -16.14207,-7.20045 -16.14207,-16.08276c0,-8.88224 7.22701,-16.08282 16.14207,-16.08282c8.91499,0 16.14207,7.20051 16.14207,16.08282c0,8.88224 -7.22708,16.08276 -16.14207,16.08276z" fill="#e0cb17" stroke="none"/><path d="M315.93102,99.00439c-5.50765,0 -9.97254,-4.44854 -9.97254,-9.93601c0,-5.48753 4.46483,-9.93595 9.97254,-9.93595c5.50765,0 9.9726,4.44841 9.9726,9.93595c0,5.48753 -4.46488,9.93601 -9.9726,9.93601z" fill="#e0cb17" stroke="#000000"/><path d="M316.15475,103.9725c-4.87897,-0.02155 -10.91217,-2.97555 -10.91217,-2.97555l2.35807,-4.09182c0,0 5.33043,2.7784 9.1236,2.56335c3.79311,-0.21505 9.0424,-3.59342 9.0424,-3.59342l1.81918,5.69145c0,0 -7.16093,2.425 -11.43101,2.40605z" fill="#dbded5" stroke="#000000"/></g><g data-paper-data="{&quot;index&quot;:null}" stroke="none"><path d="M273.90567,151.61279c1.33979,2.7618 0.25353,14.27244 0.25353,14.27244l-20.28317,0.12631c0,0 -6.61051,-8.39263 -4.53293,-17.66226c1.5273,-6.81449 11.59515,-15.26403 12.89964,-15.30323c8.40488,-0.25262 10.32301,15.80495 11.6628,18.56681z" fill="#e4dcaa"/><path d="M268.60402,141.62509c0,3.48782 -1.36212,6.31525 -3.04242,6.31525c-1.6803,0 -3.04255,-2.82743 -3.04255,-6.31525c0,-3.48782 1.36218,-6.31525 3.04255,-6.31525c1.6803,0 3.04242,2.82737 3.04242,6.31525z" fill="#000000"/><path d="M273.16776,180.10591c-0.95988,5.51807 -3.97586,14.37134 -3.97586,14.37134l-7.687,3.14281c0,0 -9.29639,-3.73965 -9.12744,-8.7571c0.08392,-2.49134 1.42774,-21.94421 1.42774,-21.94421l8.01618,-5.11003c0,0 3.9284,0.3355 6.30066,1.03521c2.37226,0.69971 6.05976,2.94749 6.05976,2.94749c0,0 -0.0543,8.79649 -1.01418,14.31456z" fill="#dfcc17"/><path d="M262.06332,197.30279c0,0 -8.77156,2.77867 -10.52191,2.77867c-1.75036,0 -4.69055,-10.08544 -4.69055,-11.62009c0,-1.53465 5.22202,-9.09397 6.97238,-9.09397c1.75036,0 8.24003,17.93527 8.24003,17.93527z" fill="#807d5a"/><path d="M263.5845,146.02301l-0.84517,-2.6103l40.65093,-49.2588l1.09869,1.26309z" fill="#6e6e73"/><path d="M298.74204,98.36413l2.78895,2.69448l-9.80352,11.36747l-2.53542,-2.69455z" fill="#ddcb1e"/></g></g><path d="M241.26756,187.61451l0.03385,22.54853l-0.73786,7.77063c0,0 -2.15727,2.56083 -3.67408,3.35234c-1.51674,0.79152 -3.99416,-0.86857 -3.99416,-0.86857l-0.09389,-7.33849l0.27553,-24.39537z" fill="#f79db4" stroke="none" stroke-width="0" stroke-linecap="butt" stroke-linejoin="miter"/><path d="M247.54411,213.59033c2.80358,-0.35587 14.54957,3.49218 13.51943,7.49108c-1.43816,5.58271 -0.51597,2.01025 -0.64098,4.21355c-0.12501,2.20331 2.7393,2.75955 0.11833,5.00217c-2.14111,1.83212 -4.5879,4.52559 -8.50696,5.02454c-7.15338,0.09589 -9.32213,-0.36882 -12.13052,-2.22593c-1.88398,-1.24581 -0.69137,-6.392 -0.69137,-6.392c0,0 -3.33831,-3.06446 -3.30066,-5.00724c0.03778,-1.94281 5.93806,-7.38336 11.63263,-8.10613z" fill="#ffffff" stroke="none" stroke-width="0" stroke-linecap="butt" stroke-linejoin="miter"/><path d="M256.69881,221.17564c-0.07664,2.50213 -3.58085,4.42504 -7.82692,4.29503c-4.24605,-0.13008 -7.62602,-2.26388 -7.54939,-4.76602c0.07664,-2.50213 3.58093,-4.4251 7.827,-4.29508c4.24605,0.13008 7.62601,2.26395 7.54937,4.76608z" fill="#afafaf" stroke="none" stroke-width="0" stroke-linecap="butt" stroke-linejoin="miter"/><path d="M252.4259,155.86582c0,0 -4.59068,-3.1587 -5.42627,-5.19865c-0.88592,-2.16281 -0.24565,-7.43125 -0.24565,-7.43125l6.17038,-2.41237z" fill="#f25c76" stroke="none" stroke-width="0" stroke-linecap="butt" stroke-linejoin="miter"/><path d="M249.39651,188.85546l4.17248,24.23365l1.84059,10.63774c0,0 -2.54282,0.74559 -4.09688,1.62175c-1.55406,0.87616 -5.131,-0.2963 -5.131,-0.2963l-1.47047,-10.12677l-3.98394,-26.66229z" fill="#f79db4" stroke="none" stroke-width="0" stroke-linecap="butt" stroke-linejoin="miter"/><path d="M211.57079,171.30362c0,0 3.55312,19.06429 30.41842,19.96258c31.0219,1.03723 34.40925,-18.79943 34.40925,-18.79943l7.11724,1.61115c0,0 -8.19268,24.95217 -38.99061,25.11162c-29.89404,0.69352 -40.67691,-25.98406 -40.67691,-25.98406z" fill="#ffffff" stroke="none" stroke-width="0" stroke-linecap="butt" stroke-linejoin="miter"/><path d="M230.6726,149.69914c0.63949,-3.80808 6.22078,-9.13805 6.22078,-9.13805l2.39199,-0.2461l7.7635,2.25617c0,0 -0.06999,4.89668 0.83852,7.42207c1.14681,3.18786 4.5016,5.19911 4.5016,5.19911l1.06894,6.89256l9.47049,4.65884l0.48902,1.06497l4.09905,1.87627l9.10133,2.96832c0,0 0.13861,6.05996 -8.34973,11.6626c-7.82203,5.1629 -10.94967,6.95597 -23.05826,7.98878c-11.06088,0.94341 -18.30183,-2.25794 -26.74986,-9.17693c-5.42978,-4.44705 -7.57918,-11.68467 -7.57918,-11.68467l18.19771,-5.24097l0.30705,-1.0216l2.12401,-1.03065c0,0 -1.55119,-10.19612 -0.83677,-14.45077z" fill="#f01a40" stroke="none" stroke-width="0" stroke-linecap="butt" stroke-linejoin="miter"/><g stroke-linecap="butt" stroke-linejoin="miter"><path d="M95.74059,139.3423c0,0 7.07054,-29.58984 40.1999,-22.05803c12.72107,2.89209 20.19865,8.73033 27.30026,18.66681c7.49335,10.4846 -4.06275,25.62773 -4.06275,25.62773l-58.28643,-10.02981z" fill="#fbdd00" stroke="none" stroke-width="0"/><path d="M99.42188,148.40583l-1.40035,-3.15209c0,0 2.14929,-5.88895 3.77498,-7.85503c3.48639,-4.21652 5.02671,-6.05262 5.10117,-3.28364c0.0371,1.37673 -2.8577,3.66218 -4.32603,6.27601c-2.19428,3.90594 -3.14974,8.01469 -3.14974,8.01469z" fill="#a58c48" stroke="#000000" stroke-width="0"/><path d="M121.50892,126.25002c0.2397,-1.20166 5.02326,-3.65589 13.51368,-1.6961c5.68891,1.31315 14.94325,5.06386 13.97925,7.97888c-0.88021,2.66197 -9.1222,-3.81599 -14.84794,-4.95815c-5.72567,-1.14218 -12.88472,-0.12305 -12.64501,-1.3247z" fill="#a58c48" stroke="#000000" stroke-width="0"/><path d="M160.30192,157.27813c0,0 0.33831,-2.73205 -0.17194,-5.82348c-0.47232,-2.8614 -2.57131,-5.14551 -1.2161,-5.89867c0.47696,-0.26501 2.7306,0.29938 3.19399,2.85682c0.51604,2.84864 -0.0664,6.81684 -0.0664,6.81684l-1.73949,2.04848z" fill="#a58c48" stroke="#000000" stroke-width="0"/><path d="M128.25905,163.13004c16.38979,2.81724 26.80656,17.67248 26.80656,17.67248l-0.22757,3.86579c0,0 -11.01,-18.48437 -33.81931,-18.45766c-14.3326,0.01681 -25.26346,9.06743 -25.26346,9.06743c0,0 -0.68466,1.76932 0.07927,-2.03751c0.7639,-3.80677 0.82367,-2.37224 0.82367,-2.37224c0,0 8.60311,-11.69139 31.60075,-7.73824z" fill="#edeee6" stroke="none" stroke-width="0"/><path d="M160.63046,159.1336l-1.24614,2.26765c0,0 -10.87625,-21.63798 -33.36462,-21.05253c-14.13108,0.36795 -25.12785,11.15631 -25.12785,11.15631l-0.8246,-2.05863c0,0 10.13898,-16.70601 33.27515,-13.66837c18.25615,2.39693 27.28799,23.3555 27.28799,23.3555z" fill="#edeee6" stroke="none" stroke-width="0"/><path d="M133.16914,138.50036c16.4601,2.83124 26.45469,22.32675 26.45469,22.32675l-4.275,21.28131c0,0 -11.07098,-18.49651 -33.97477,-18.48864c-14.39217,0.00492 -25.36083,9.04799 -25.36083,9.04799c0,0 0.41979,-6.07146 1.18376,-9.87829c0.76398,-3.80676 2.73208,-9.63436 2.73208,-9.63436c0,0 10.14383,-18.62754 33.24015,-14.6548z" fill="#ff1a07" stroke="none" stroke-width="0"/><path d="M143.0039,166.6037c0,0 -8.87275,-3.89924 -13.41452,-4.8053c-4.41385,-0.88049 -13.97553,-0.65854 -13.97553,-0.65854l4.08508,-20.47857c0,0 8.28121,-3.34038 14.00567,-2.14166c5.72447,1.19872 13.23061,7.0424 13.23061,7.0424z" fill="#ff1808" stroke="#000000" stroke-width="0"/><path d="M96.42241,171.95087c0,0 1.83535,-11.86934 2.52628,-15.33304c0.26087,-1.3079 2.14339,-5.36604 4.71974,-7.85847c2.57632,-2.49243 7.48353,-3.94733 7.48353,-3.94733l-4.06022,19.01967c0,0 -3.81344,1.67266 -5.9114,3.26916c-2.09794,1.5965 -4.75797,4.85003 -4.75797,4.85003z" fill="#ff1808" stroke="#000000" stroke-width="0"/><path d="M154.63188,181.69937c0,0 -1.87487,-4.0199 -2.75829,-5.65123c-0.88335,-1.63127 -2.49372,-4.04691 -2.49372,-4.04691l4.00847,-20.09466c0,0 5.14424,6.24549 5.09812,9.13518c-0.063,3.94714 -3.8546,20.65764 -3.8546,20.65764z" fill="#ff1808" stroke="#000000" stroke-width="0"/><path d="M134.57386,187.28025c-8.55323,-1.70619 -49.60251,3.813 -49.60251,3.813c0,0 10.23927,-32.58259 47.18656,-23.72521c19.37496,4.6447 25.69053,16.90824 27.03121,25.84615c0.85698,5.71302 -1.59999,10.22824 -1.59999,10.22824c0,0 -14.462,-14.45597 -23.01516,-16.16222z" fill="#fbdd00" stroke="none" stroke-width="0"/><path d="M127.16281,171.96109c-5.73323,-1.14358 -13.27237,-0.8478 -13.13138,-1.55475c0.14097,-0.70686 5.91198,-2.81323 14.00012,-1.46598c4.47936,0.74611 12.74487,3.91025 13.49204,6.41774c0.50504,1.69475 -9.90759,-2.50873 -14.36091,-3.39712z" fill="#a58c48" stroke="#000000" stroke-width="0"/><path d="M91.81863,179.01764l2.32769,-2.99587c0,0 8.92597,-5.52128 7.65166,-2.99853c-0.81776,1.61896 -9.97935,5.99439 -9.97935,5.99439z" fill="#a58c48" stroke="#000000" stroke-width="0"/><path d="M150.12701,181.59917c0.47943,-2.40342 7.31489,5.63155 7.31489,5.63155l1.22427,5.29418c0,0 -9.01865,-8.52237 -8.53921,-10.92579z" fill="#a58c48" stroke="#000000" stroke-width="0"/><path d="M114.68673,220.00241c-17.57264,-3.2789 -31.71664,-17.97542 -29.51694,-29.00267c2.19975,-11.02729 21.7301,-17.5023 39.30793,-14.25089c18.34959,3.39424 35.53857,15.3196 33.33876,26.34689c-3.06779,15.37903 -22.5086,20.92211 -43.16194,17.06835z" fill="#fbdd00" stroke="#000000" stroke-width="0.25"/><path d="M90.91215,203.36631c1.32543,-6.64467 15.06404,-9.50487 30.68593,-6.38868c15.62194,3.11622 27.21161,11.02902 25.88616,17.67364c-1.32543,6.64467 -15.06411,9.50493 -30.68607,6.38871c-15.62194,-3.11622 -27.21155,-11.02908 -25.88611,-17.67368z" fill="#fbdd00" stroke="#000000" stroke-width="0.25"/><path d="M168.6548,185.14885c0,0 2.11009,-3.34671 2.84801,-5.89487c0.7379,-2.54814 0.81344,-6.74868 0.81344,-6.74868l26.50088,9.09095l43.44531,14.29914c0,0 1.14822,3.82349 0.78038,5.29401c-0.36791,1.47052 -3.69406,2.81375 -3.69406,2.81375l-44.46996,-11.79228l-26.22407,-7.06211z" fill="#fbdd00" stroke="none" stroke-width="0"/><path d="M154.01234,181.33939l1.69016,-17.82848c0,0 15.66239,5.2063 16.44167,7.3159c1.3199,3.57278 -2.35009,14.1975 -4.79219,15.36262c-0.64331,0.30694 -12.14121,-2.83428 -12.14121,-2.83428z" fill="#c8c8c6" stroke="none" stroke-width="0"/><path d="M96.25181,138.11346c0,0 5.28914,-26.38279 37.56246,-24.18117c21.7755,1.48542 30.27103,24.50085 30.27103,24.50085c0,0 -5.00608,-8.65551 -12.49787,-14.23169c-6.06351,-4.51305 -14.55833,-6.84842 -22.01587,-7.19553c-5.01649,-0.23339 -10.34981,-0.35261 -14.06643,0.8643c-15.32172,5.01672 -19.25317,20.24328 -19.25317,20.24328z" fill="#fbdd00" stroke="#000000" stroke-width="0.25"/><path d="M220.92102,199.14907c0,0 0.12139,-2.52672 0.8593,-5.07479c0.7379,-2.54814 1.86767,-4.409 1.86767,-4.409l18.61461,6.23014c0,0 1.14814,3.8235 0.78031,5.29401c-0.36791,1.47052 -3.69407,2.81374 -3.69407,2.81374z" fill="#a56402" stroke="none" stroke-width="0"/></g><path d="M255.0849,139.14351c0,0 -0.89581,5.05522 -10.07781,5.20529c-8.54049,0.13959 -8.77749,-4.61033 -8.77749,-4.61033c0,0 5.14045,0.8481 8.45234,0.74366c3.31196,-0.1045 10.40296,-1.33855 10.40296,-1.33855z" fill="#afafaf" stroke="none" stroke-width="0" stroke-linecap="butt" stroke-linejoin="miter"/><path d="M221.77209,179.92559l14.95514,7.37437c0,0 1.52382,1.94529 1.4589,5.75821c-0.04208,2.47623 -2.19962,5.95258 -2.19962,5.95258c0,0 4.26249,-2.26696 5.68641,1.38477c0.91428,2.34464 -4.13828,7.93246 -6.37224,9.45292c-1.31515,0.89513 -4.14336,1.66847 -6.39186,1.24885c-1.41834,-0.26466 -2.80659,-1.69205 -2.80659,-1.69205c0,0 -1.78508,1.83105 -3.89638,0.10513c-0.64686,-0.52874 -1.6803,-1.0693 -1.6803,-1.0693c0,0 -1.68483,0.90831 -2.70739,1.00994c-1.02264,0.10162 -2.55999,-0.61706 -2.55999,-0.61706l-1.31387,-2.52814c0,0 -3.66592,0.24362 -4.34764,-0.07724c-2.67405,-1.25857 -2.50231,-4.53135 -2.4215,-6.28847c0.14792,-3.21711 1.52545,-10.22533 2.21202,-10.83867c4.30944,-3.84941 12.385,-9.1758 12.385,-9.1758z" fill="#ffffff" stroke="none" stroke-width="0" stroke-linecap="butt" stroke-linejoin="miter"/><path d="M236.76817,172.47791c8.13416,7.1323 6.96137,10.0231 3.84483,12.78018c-4.77146,4.22125 -12.75267,6.26163 -21.78484,-4.47524c-2.47257,-2.93918 1.47161,-8.53874 3.94301,-10.35014c2.47145,-1.81139 11.10905,-0.48707 13.99701,2.04515z" fill="#fed000" stroke="none" stroke-width="0" stroke-linecap="butt" stroke-linejoin="miter"/><path d="M234.64796,174.22391c3.10006,1.72268 4.93275,4.34353 4.0935,5.8539c-0.83926,1.51036 -4.03269,1.33814 -7.13278,-0.38462c-3.10006,-1.72268 -4.93272,-4.34347 -4.09347,-5.85381c0.83926,-1.51036 4.03271,-1.33819 7.13269,0.38451z" fill="#c28830" stroke="none" stroke-width="0" stroke-linecap="butt" stroke-linejoin="miter"/><path d="M249.12726,144.82703c1.66461,-1.93124 3.055,-1.63 4.19155,-0.81317c1.69161,1.21588 1.93028,2.79077 0.8077,4.49556c-4.48027,6.80352 -8.27315,12.83397 -11.06652,17.70668c-1.70295,2.97057 -7.92705,14.80513 -7.92705,14.80513c0,0 -0.61943,-0.3731 -2.70747,-0.69604c-2.08797,-0.32292 -4.2626,-3.11541 -4.2626,-3.11541c0,0 3.97566,-6.43447 8.19686,-13.79785c2.95244,-5.15024 7.74046,-12.7528 12.76756,-18.58495z" fill="#fed5c7" stroke="none" stroke-width="0" stroke-linecap="butt" stroke-linejoin="miter"/><path d="M241.68386,101.067c0,0 4.02098,-4.39242 9.16461,-4.98412c4.59028,-0.52809 6.62906,0.76046 9.59777,4.10178c4.49712,5.0614 1.95323,13.81005 1.95323,13.81005c0,0 2.30148,-13.18611 -7.72646,-16.41214c-6.2041,-1.99581 -12.98923,3.48449 -12.98923,3.48449z" fill="#000000" stroke="none" stroke-width="0" stroke-linecap="butt" stroke-linejoin="miter"/><path d="M248.77467,69.03606c21.7341,0 39.353,15.19521 39.353,33.93944c0,18.74416 -17.6189,33.9393 -39.353,33.9393c-21.7341,0 -39.35307,-15.19508 -39.35307,-33.9393c0,-18.74416 17.61891,-33.93937 39.35307,-33.93937z" fill="#f79eb4" stroke="none" stroke-width="0" stroke-linecap="butt" stroke-linejoin="miter"/><path d="M214.39302,111.20133c-0.00124,-0.00463 1.28489,7.60014 3.93321,11.81547c2.64838,4.21533 12.75394,15.44165 12.75394,15.44165l1.84007,5.93234c0,0 -9.63456,-0.37573 -17.5174,-14.49973c-4.91582,-8.75014 -4.72154,-15.6548 -4.68072,-15.54991" fill="#f79eb4" stroke="#f89db5" stroke-width="0" stroke-linecap="butt" stroke-linejoin="round"/><g fill="#ffd5c5" stroke="none" stroke-width="1" stroke-linecap="round" stroke-linejoin="round"><path d="M220.39927,126.79617c0.08373,-0.37938 0.69821,0.38492 0.97804,0.65446c1.72939,1.66402 3.65319,-0.26193 4.93822,-1.26765c0.98742,-0.7725 2.60352,-1.18268 3.83119,-1.1972c5.90722,-0.00769 17.26967,3.83523 19.31255,3.92228c1.90134,0.08106 7.42552,-2.97366 9.44529,-3.66106c2.07218,-0.70524 3.83374,-0.0476 4.14834,0.19597c0.6596,0.51096 5.33713,3.76075 -0.90904,10.48377c-0.86789,0.9341 -6.34812,4.37217 -9.42726,4.73612c-2.58191,0.3049 -11.57106,1.59448 -18.38073,-0.68526c-5.42704,-1.81696 -8.72905,-4.37028 -9.15042,-4.6981c-2.57527,-2.00428 -5.5525,-5.00222 -4.78625,-8.4832z"/><path d=""/></g><g fill="#000000" stroke="#000000" stroke-width="0.125" stroke-linecap="butt" stroke-linejoin="round"><path d="M214.66706,116.69863c0.02292,0.1599 -4.10465,-0.53467 -4.60981,-0.68044c-2.30077,-0.66338 -4.25407,-1.37337 -6.41701,-2.40989c-0.69008,-0.33061 -2.96546,-1.73363 -2.92958,-1.72158c1.05481,0.35229 2.00844,1.03775 3.05452,1.43666c1.74736,0.66585 3.5485,1.17604 5.35289,1.66949c2.86702,0.67236 4.7957,0.47398 5.2021,0.60974"/><path d="M213.80503,113.49963c0.02122,0.14916 -4.00575,-0.75805 -5.92883,-1.79789c-1.92308,-1.03983 -6.09811,-4.46566 -6.05305,-4.37529c0.11954,0.23946 3.88549,2.59689 6.60308,3.81349c2.71766,1.2166 4.87493,1.13586 5.04148,0.9701"/></g><g fill="#000000" stroke="none" stroke-width="1" stroke-linecap="round" stroke-linejoin="round"><path d="M228.36323,129.30692c-0.71586,0.04785 -3.1798,-1.55874 -2.15214,-2.31223c0.59404,-0.43557 4.0385,-0.81658 5.0101,-0.11309c1.27832,0.9257 -1.3013,2.19393 -2.85796,2.42532z"/><path d=""/></g><path d="M277.95721,105.86804c0.14864,0.08952 -0.89328,14.99494 -1.85518,18.39883c-1.44337,5.10756 -3.77247,9.96993 -7.22096,14.02809c-1.46623,1.72529 -2.98753,3.1499 -4.71158,4.58781c-0.55804,0.46559 -2.8872,1.99177 -2.8872,1.99177c0,0 2.49343,-6.69521 2.76018,-17.49025c0.14155,-5.73247 -0.64131,-18.42006 -0.50804,-18.07492" fill="#f79eb4" stroke="#f89db5" stroke-width="0" stroke-linecap="butt" stroke-linejoin="round"/><path d="M286.93894,101.50817c1.17012,2.34036 0.50153,14.49179 -1.90205,23.33881c-1.85231,6.81787 -3.66999,8.65613 -6.90063,12.28399c-3.65879,4.10849 -6.33653,4.52159 -6.33653,4.52159c0,0 3.04163,-7.5252 3.9952,-12.59188c0.95363,-5.06668 2.87385,-23.30228 2.77853,-23.3976" fill="#f79eb4" stroke="#f89db5" stroke-width="0" stroke-linecap="butt" stroke-linejoin="round"/><g fill="#ee1a40" stroke="none" stroke-width="1" stroke-linecap="round" stroke-linejoin="round"><path d="M221.66678,81.78844c0.59931,-0.76827 14.98601,-12.42006 32.86151,-9.43969c22.0944,3.93869 24.28339,30.6571 24.26757,30.65294c-0.22071,-0.05827 -3.75697,-10.27535 -9.47212,-14.75625c-7.41055,-5.8104 -11.70264,-9.18466 -19.83615,-10.59665c-10.31949,-1.79157 -24.68875,7.26419 -25.25258,7.62827"/><path d=""/></g><g stroke="none" stroke-width="1" stroke-linecap="round" stroke-linejoin="round"><g fill="#f79eb4"><path d="M248.13544,80.37814c0.28895,-0.99068 6.59117,-6.01972 11.68617,-8.42955c5.095,-2.4097 10.08959,-3.84656 11.13158,-2.36236c0.79705,1.13522 1.1737,6.78337 1.15664,11.18673c-0.01713,4.40336 -1.09544,8.43443 -1.24199,10.77062"/></g><g fill="#ffd5c5"><path d="M252.57669,81.45099c0.64919,-1.04524 3.4106,-3.51399 6.16895,-4.87311c2.75829,-1.35912 8.33338,-3.21287 8.86264,-2.53373c0.13054,0.16752 0.58096,5.0756 0.4846,8.33287c-0.09629,3.25727 -0.8507,5.81782 -0.91926,6.37032"/></g></g><g fill="#f79eb4" stroke="none" stroke-width="1" stroke-linecap="round" stroke-linejoin="round"><path d="M209.62929,93.76492c-0.05541,-0.0836 -3.05615,-5.47868 -3.93309,-10.58214c-0.56188,-3.26945 0.19903,-7.46498 0.47808,-7.61545c1.36257,-0.73409 6.74118,-0.30033 11.06609,-0.00579c4.32497,0.29454 6.3629,0.74835 8.28351,1.32383"/><path d=""/></g><path d="M233.40132,114.94795c4.22542,-6.19571 6.10951,-17.35151 19.43359,-18.87842c2.89429,-0.33173 11.40946,3.47304 9.55988,17.42092c-0.61546,4.64153 -2.72651,11.62542 -11.00449,15.46618c-4.25134,1.26107 -14.27224,-3.53234 -18.67482,-3.75847c-7.72971,-0.3969 -6.6055,3.07569 -10.41905,2.93681c-0.95448,-0.03476 -6.33445,-5.6423 -8.47741,-13.60008c-1.01047,-3.75241 -0.70792,-9.23304 -0.26473,-9.2292c2.92437,0.02526 5.41774,6.08873 8.06117,9.49321c1.84893,2.38131 4.32647,4.3445 6.52105,4.14834c1.27923,-0.11433 2.57116,-0.04968 5.26479,-3.99937z" fill="#ffffff" stroke="none" stroke-width="0" stroke-linecap="butt" stroke-linejoin="miter"/><g fill="#000000" stroke="#000000" stroke-width="0.125" stroke-linecap="butt" stroke-linejoin="round"><path d="M260.20743,100.69413c0.32144,-0.11785 0.58467,0.1116 0.88826,0.12787c0.31824,0.01706 1.78636,-0.12234 2.88668,-0.41539c5.6503,-1.50503 8.36496,-4.86744 8.36496,-4.86744c0,0 -1.01509,2.48528 -8.98036,6.00533c-1.24063,0.54833 -2.23834,0.46435 -2.3974,0.22983"/><path d="M262.3724,105.3033c0.21942,0.025 0.61546,0.40894 0.80453,0.54723c0.42893,0.31401 3.61523,2.17655 8.45234,1.42468c1.60289,-0.25822 6.64593,-1.70914 6.64593,-1.70914c0,0 -2.49759,1.4866 -6.95688,2.15122c-1.87015,0.27866 -5.90682,0.30255 -7.49167,-0.21655c-0.85467,-0.2799 -1.09231,-0.56006 -1.09231,-0.56006"/></g><g fill="#f59eb2" stroke="none" stroke-width="0" stroke-linecap="butt" stroke-linejoin="miter"><path d="M200.34942,119.6087c0,-0.95502 -0.92622,-5.65985 0.14225,-10.01229c1.01262,-4.12494 4.02293,-7.9334 4.02293,-7.9334c0,0 3.87098,-0.95944 5.93904,-1.16304c2.26136,-0.22264 7.10113,-0.1208 7.10113,-0.1208l-0.375,7.43332c0,0 -6.0885,4.95158 -8.73373,9.19371c-2.64522,4.24213 -4.48206,12.00038 -4.48206,12.00038c0,0 -3.61457,-4.52699 -3.61457,-9.39789z"/><path d="M188.78276,107.17458c0.67068,-3.53045 1.13882,-5.06282 3.0339,-8.56646c1.89508,-3.50365 6.0471,-8.22257 6.0471,-8.22257c0,0 5.81974,-1.56109 9.98737,-1.16304c4.16763,0.39804 10.28196,3.06003 10.28196,3.06003l-1.53167,8.30081c0,0 -15.16695,1.70073 -19.14368,5.43456c-3.84679,3.61183 -8.81955,10.84371 -8.81955,10.84371c0,0 -0.52609,-6.1566 0.14459,-9.68705z"/><path d="M184.73446,87.65589c0,0 9.59779,-8.67496 18.94035,-8.67496c3.82889,0 9.58136,-0.70604 12.98971,1.87372c4.9081,3.71489 6.81814,11.13873 6.81814,11.13873l-9.65611,-0.35728c0,0 -10.95523,-4.55853 -15.35673,-4.55853c-9.34256,0 -13.73537,0.57832 -13.73537,0.57832z"/></g><g fill="none" stroke="#000000" stroke-width="1" stroke-linecap="round" stroke-linejoin="miter"><path d="M258.48017,130.82682c0,0 -1.51863,3.23559 -3.34348,4.367c-1.69994,1.05395 -7.25745,2.20558 -7.25745,2.20558"/><path d="M255.72391,131.46289c0,0 1.72336,-1.02899 2.56488,-0.79523c0.84153,0.23375 1.25145,1.85532 1.25145,1.85532"/></g><g stroke="none" stroke-linecap="butt" stroke-linejoin="miter"><path d="M253.81363,116.73319c0.30203,4.68209 -0.68103,8.55684 -2.19575,8.65457c-1.51473,0.09766 -2.98766,-3.61862 -3.28976,-8.30064c-0.30203,-4.68209 0.68109,-8.5569 2.19582,-8.65463c1.51473,-0.09766 2.98766,3.61862 3.28969,8.3007z" fill="#169c5b" stroke-width="NaN"/><path d="M252.30196,117.88253c0.12611,1.95557 -0.31108,3.57578 -0.97668,3.61868c-0.66559,0.04297 -1.30749,-1.50763 -1.43354,-3.46327c-0.12611,-1.95557 0.31108,-3.57578 0.97668,-3.61868c0.66559,-0.04297 1.30749,1.50763 1.43354,3.46327z" fill="#000000" stroke-width="0"/><path d="M251.5165,113.46817c0.12768,1.97862 -0.42007,3.62448 -1.22331,3.6763c-0.8033,0.05182 -1.55796,-1.51004 -1.68564,-3.48866c-0.12768,-1.97862 0.42007,-3.62454 1.22331,-3.67636c0.8033,-0.05182 1.55796,1.5101 1.68564,3.48866z" fill="#ffffff" stroke-width="0"/></g><g stroke="none" stroke-linecap="butt" stroke-linejoin="miter"><path d="M225.06765,120.40862c0.21296,3.30246 -0.4803,6.03548 -1.54871,6.10437c-1.06848,0.06888 -2.10727,-2.55235 -2.32037,-5.8548c-0.21296,-3.30245 0.48037,-6.03548 1.54878,-6.10436c1.06848,-0.06888 2.10727,2.55228 2.3203,5.85473z" fill="#169c5b" stroke-width="NaN"/><path d="M224.00152,121.21927c0.08907,1.37937 -0.21941,2.52208 -0.68897,2.55242c-0.46949,0.03034 -0.92212,-1.06334 -1.01119,-2.44271c-0.08907,-1.37937 0.21941,-2.52207 0.68897,-2.55235c0.46949,-0.03034 0.92212,1.06327 1.01112,2.44264z" fill="#000000" stroke-width="0"/><path d="M223.44738,118.10563c0.08998,1.39558 -0.29624,2.55638 -0.86281,2.59297c-0.56663,0.03659 -1.09888,-1.06509 -1.189,-2.46061c-0.08998,-1.39558 0.29624,-2.55652 0.86287,-2.59311c0.56663,-0.03659 1.09882,1.06523 1.18893,2.46075z" fill="#ffffff" stroke-width="0"/></g></g></g></svg>