<svg version="1.1" xmlns="http://www.w3.org/2000/svg" xmlns:xlink="http://www.w3.org/1999/xlink" width="34.7324" height="35.76568" viewBox="0,0,34.7324,35.76568"><g transform="translate(-228.07315,-163.93144)"><g data-paper-data="{&quot;isPaintingLayer&quot;:true}" fill-rule="nonzero" stroke-miterlimit="10" stroke-dasharray="" stroke-dashoffset="0" style="mix-blend-mode: normal"><path d="M239.04601,181.42724c0,0 -3.2588,2.57039 -4.07608,2.46961c-0.8881,-0.10953 -2.22339,-1.26519 -2.22339,-1.26519l2.39624,0.20024l2.59391,-1.64881l1.30933,0.24415z" data-paper-data="{&quot;index&quot;:null}" fill="#f79db4" stroke="none" stroke-width="0" stroke-linecap="butt" stroke-linejoin="miter"/><g data-paper-data="{&quot;index&quot;:null}" stroke-width="0" stroke-linecap="butt" stroke-linejoin="miter"><g data-paper-data="{&quot;index&quot;:null}"><path d="M249.35074,169.84723c-1.05772,-0.14325 -1.79946,-1.11368 -1.65675,-2.16752c0.14273,-1.05383 1.11587,-1.79203 2.17358,-1.64878c1.05772,0.14325 1.79948,1.11369 1.65677,2.16752c-0.14273,1.05383 -1.11589,1.79203 -2.1736,1.64878z" fill="#e0cb17" stroke="none"/><path d="M249.43447,169.75684c-0.65347,-0.0885 -1.11172,-0.68804 -1.02355,-1.3391c0.08817,-0.65107 0.68938,-1.10711 1.34285,-1.01861c0.65347,0.0885 1.11172,0.68804 1.02355,1.3391c-0.08817,0.65106 -0.68938,1.10711 -1.34285,1.01861z" fill="#e0cb17" stroke="#000000"/><path d="M248.24979,174.82329c0,0 -1.05538,-2.12836 -0.53168,-3.42189c0.50438,-1.24578 0.68347,-1.4264 0.68347,-1.4264l2.08219,0.29699c0,0 0.63158,1.19284 0.15161,2.17073c-0.47999,0.9779 -2.38557,2.38056 -2.38557,2.38056z" fill="#e8edf4" stroke="#000000"/><path d="M249.38119,170.34988c-0.57852,-0.08097 -1.24687,-0.52838 -1.24687,-0.52838l0.34552,-0.44758c0,0 0.5878,0.41529 1.04129,0.45071c0.4535,0.03543 1.13058,-0.28103 1.13058,-0.28103l0.12439,0.70449c0,0 -0.88859,0.17266 -1.39491,0.1018z" fill="#dbded5" stroke="#000000"/></g><g data-paper-data="{&quot;index&quot;:null}" stroke="none"><path d="M243.1345,174.05313c-0.05604,0.41381 -0.26309,0.72739 -0.46246,0.70038c-0.19936,-0.027 -0.31553,-0.38434 -0.25949,-0.79815c0.05604,-0.41382 0.26307,-0.72739 0.46244,-0.70038c0.19937,0.027 0.31555,0.38435 0.25951,0.79815z" fill="#000000"/><path d="M240.77438,178.29359c0.20767,0.02812 0.68946,2.26034 0.68946,2.26034c0,0 -1.08535,0.18873 -1.29302,0.16061c-0.20766,-0.02812 -0.39444,-1.27194 -0.36979,-1.45402c0.02466,-0.18208 0.7657,-0.99504 0.97336,-0.96692z" fill="#807d5a"/><path d="M242.46831,174.49429l-0.05834,-0.32329l5.61454,-5.19115l0.11006,0.16751z" fill="#6e6e73"/><path d="M247.40536,169.40468l0.28759,0.36451l-1.34579,1.19118l-0.25751,-0.36043z" fill="#ddcb1e"/></g></g><g data-paper-data="{&quot;index&quot;:null}" stroke-width="0" stroke-linecap="butt" stroke-linejoin="miter"><g data-paper-data="{&quot;index&quot;:null}"><path d="M228.45917,166.06936c0.18309,-1.35191 1.43149,-2.29888 2.78838,-2.11511c1.35689,0.18376 2.30843,1.42868 2.12535,2.78058c-0.18309,1.35191 -1.43149,2.29887 -2.78837,2.1151c-1.35688,-0.18376 -2.30843,-1.42867 -2.12535,-2.78057z" fill="#e0cb17" stroke="none"/><path d="M229.19879,166.99173c0.11311,-0.83521 0.88438,-1.42024 1.72266,-1.30671c0.83829,0.11353 1.42615,0.88263 1.31303,1.71784c-0.11311,0.8352 -0.88437,1.42025 -1.72265,1.30672c-0.83829,-0.11353 -1.42616,-0.88264 -1.31304,-1.71785z" fill="#e0cb17" stroke="#000000"/><path d="M228.11032,171.62126c-0.25989,-1.37307 0.92817,-2.63265 0.92817,-2.63265l2.67622,0.3432c0,0 0.15984,0.28446 0.35847,1.99713c0.20625,1.77827 -1.82508,4.05016 -1.82508,4.05016c0,0 -1.8779,-2.38478 -2.1378,-3.75784z" fill="#e8edf4" stroke="#000000"/><path d="M230.37537,169.46113c-0.65031,-0.08513 -1.69023,-0.60183 -1.69023,-0.60183l0.3942,-0.82875c0,0 0.72932,0.6224 1.30221,0.73331c0.5729,0.11092 1.44147,-0.20209 1.44147,-0.20209l0.27456,0.67139c0,0 -0.97916,0.32525 -1.72219,0.22796z" fill="#dbded5" stroke="#000000"/></g><g data-paper-data="{&quot;index&quot;:null}" stroke="none"><path d="M235.82381,177.58298c0.26084,-0.39275 0.88379,-2.79721 2.15782,-2.58551c0.19774,0.03285 1.55592,1.52642 1.64792,2.59509c0.12514,1.45368 -1.05399,2.5948 -1.05399,2.5948l-3.08455,-0.43732c0,0 0.07194,-1.77434 0.33278,-2.16707z" fill="#e4dcaa"/><path d="M237.42983,175.27361c0.25576,0.03464 0.4048,0.49306 0.33291,1.02391c-0.07189,0.53085 -0.33751,0.93312 -0.59326,0.89848c-0.25575,-0.03464 -0.40478,-0.49306 -0.33289,-1.02391c0.07189,-0.53086 0.33749,-0.93312 0.59324,-0.89848z" fill="#000000"/><path d="M235.3488,181.93491c-0.03236,-0.85965 0.14071,-2.19962 0.14071,-2.19962c0,0 0.60758,-0.2661 0.98307,-0.3237c0.37549,-0.0576 0.98031,-0.02769 0.98031,-0.02769l1.11475,0.943c0,0 -0.19645,2.98847 -0.23503,3.36938c-0.07771,0.76715 -1.56973,1.14471 -1.56973,1.14471l-1.1052,-0.63679c0,0 -0.27655,-1.40965 -0.3089,-2.2693z" fill="#dfcc17"/><path d="M236.68444,184.78117c0,0 1.35744,-2.59602 1.62384,-2.55994c0.26641,0.03608 0.9054,1.29426 0.87376,1.52784c-0.03163,0.23358 -0.68702,1.708 -0.95344,1.67192c-0.26641,-0.03608 -1.54418,-0.63981 -1.54418,-0.63981z" fill="#807d5a"/><path d="M232.32729,168.39942l0.19326,-0.16959l5.17181,8.33524l-0.18244,0.37987z" fill="#6e6e73"/><path d="M234.36045,170.89344l-0.44144,0.35786l-1.2578,-1.93223l0.48003,-0.35262z" fill="#ddcb1e"/></g></g><g data-paper-data="{&quot;index&quot;:null}" stroke="none" stroke-width="0" stroke-linecap="butt" stroke-linejoin="miter"><g><path d="M238.18764,198.43877l1.48636,0.51696c0,0 0.32923,0.92438 -0.75354,0.70881c-1.08275,-0.21557 -1.71153,-0.68121 -2.47366,-1.35133c-0.45242,-0.39778 -1.03771,-1.58331 -1.03771,-1.58331l-0.92153,-0.34218c0,0 -0.54863,-0.52107 -0.50346,-0.94684c0.16061,-1.51399 1.0063,-1.82783 1.0063,-1.82783c0,0 0.37534,1.66665 0.84212,2.37116c0.57589,0.8692 2.35511,2.45456 2.35511,2.45456z" fill="#393939"/><path d="M240.57624,192.60647l0.01499,0.36172l-0.16452,0.38841c0,0 -0.13234,0.89673 -0.13987,1.24625c-0.00926,0.43005 -0.02219,0.89256 0.05838,1.89559c-0.12188,1.06469 -0.94189,2.43977 -0.94189,2.43977c0,0 -0.66802,0.04934 -1.60588,-0.63347c-3.16894,-2.30715 -2.80998,-4.46872 -2.80998,-4.46872c0,0 0.21849,-1.03374 0.51638,-1.51432c0.2979,-0.48059 0.73251,-0.76117 1.04416,-1.00335c0.31165,-0.24218 0.8245,-0.28499 0.8245,-0.28499c0,0 -0.14328,-0.04273 0.08871,-0.28553c0.05297,-0.05542 0.33995,-0.12496 0.33995,-0.12496l-0.13342,-0.13967l0.4294,-0.58038l2.54841,1.64703z" fill="#f01a40"/><path d="M240.98725,188.3188c0.7612,0.44489 1.26746,1.56882 1.15586,1.84562c-0.11161,0.27681 -0.76778,0.50889 -0.76778,0.50889c0,0 -0.14123,0.79898 -0.48244,0.86162c-0.50862,0.09337 -0.84304,0.02853 -1.8481,-0.41559c-0.52377,-0.3064 -0.7074,-0.83427 -0.89969,-1.22204c-0.23538,-0.47466 0.20284,-0.38086 0.3178,-0.69972c0.11495,-0.31886 0.03024,0.24146 0.16304,-0.63398c0.09511,-0.62708 1.98654,-0.46383 2.36128,-0.2448z" fill="#ffffff"/><path d="M239.82252,192.36378c-0.01356,0.05817 -0.16008,0.64449 -0.16008,0.64449c0,0 0.25384,2.74471 0.05319,3.53761c-0.24713,0.97657 -0.87202,2.31883 -0.87202,2.31883c0,0 -0.49069,-0.16801 -0.7168,-0.28829c-0.23262,-0.12374 -1.11819,-0.85676 -1.11819,-0.85676c0,0 1.11038,-2.45338 1.24127,-2.88303c0.26205,-1.14939 0.34402,-2.18791 0.34402,-2.18791l0.07664,-0.33676l-0.09579,-0.3888l0.34753,-0.92581l1.33555,0.56598c0,0 -0.36326,0.49123 -0.43534,0.80044z" fill="#ffffff"/></g><path d="M239.23706,188.83966c0.13978,-0.35818 0.74582,-0.45626 1.35365,-0.21908c0.60783,0.23718 0.98726,0.71982 0.84748,1.07801c-0.13977,0.35819 -0.74583,0.45627 -1.35365,0.21909c-0.60783,-0.2372 -0.98726,-0.71984 -0.84748,-1.07803z" fill="#afafaf"/></g><g data-paper-data="{&quot;index&quot;:null}" stroke="none" stroke-width="0" stroke-linecap="butt" stroke-linejoin="miter"><path d="M250.02959,182.95114c0.1003,0.09119 0.29397,1.12482 0.31156,1.5987c0.0096,0.25881 0.03061,0.74089 -0.36474,0.92271c-0.10076,0.04633 -0.6402,0.00569 -0.6402,0.00569l-0.19673,0.37052c0,0 -0.22731,0.1038 -0.37773,0.08751c-0.15042,-0.01629 -0.39729,-0.15222 -0.39729,-0.15222c0,0 -0.15286,0.07822 -0.24879,0.15523c-0.31308,0.25137 -0.57355,-0.02054 -0.57355,-0.02054c0,0 -0.20623,0.20836 -0.41541,0.24548c-0.33161,0.05886 -0.74701,-0.05869 -0.93946,-0.1922c-0.32694,-0.22677 -1.06355,-1.05605 -0.92589,-1.40007c0.2144,-0.5358 0.83902,-0.19648 0.83902,-0.19648c0,0 -0.31312,-0.51463 -0.3161,-0.87927c-0.00459,-0.56147 0.2223,-0.84589 0.2223,-0.84589l2.21149,-1.06627c0,0 1.18205,0.79472 1.81153,1.36709z" fill="#ffffff"/><path d="M247.68554,180.08752c0.34586,0.28966 0.87209,1.14998 0.48082,1.55828c-1.42932,1.49159 -2.58257,1.1158 -3.24347,0.45015c-0.43167,-0.43477 -0.57648,-0.8707 0.68658,-1.84119c0.44845,-0.34457 1.73017,-0.45691 2.07606,-0.16726z" fill="#fed000"/><path d="M244.96569,179.31155c0.95806,0.80238 1.99581,1.56889 1.99581,1.56889c0,0 -0.40697,0.35265 -0.67901,0.50357c-0.27202,0.15092 -0.51941,0.11409 -0.51941,0.11409c0,0 -1.19381,-1.13433 -1.58032,-1.45803c-0.634,-0.53098 -1.46502,-1.171 -2.43038,-1.88285c-0.24188,-0.17836 -0.28909,-0.40811 -0.11729,-0.66221c0.11542,-0.17071 0.29219,-0.28313 0.62049,-0.10106c0.99143,0.54981 2.03999,1.35638 2.7101,1.91759z" fill="#fed5c7"/></g><path d="M241.27388,184.06682l-0.46092,3.71872l-0.32358,2.28189c0,0 -0.37694,-0.05207 -0.59147,-0.2038c-0.21455,-0.15173 -0.50728,-0.45913 -0.50728,-0.45913l0.18872,-2.23797l0.46994,-3.43124z" data-paper-data="{&quot;index&quot;:null}" fill="#f79db4" stroke="none" stroke-width="0" stroke-linecap="butt" stroke-linejoin="miter"/><g data-paper-data="{&quot;index&quot;:null}" stroke="none" stroke-width="0" stroke-linecap="butt" stroke-linejoin="miter"><g><path d="M236.17981,197.92949l1.48637,0.51697c0,0 0.32922,0.92438 -0.75355,0.70881c-1.08275,-0.21558 -1.71152,-0.68122 -2.47366,-1.35134c-0.45242,-0.39778 -1.03771,-1.5833 -1.03771,-1.5833l-0.92152,-0.34219c0,0 -0.54865,-0.52107 -0.50348,-0.94684c0.1606,-1.51398 1.00631,-1.82783 1.00631,-1.82783c0,0 0.37535,1.66665 0.84212,2.37116c0.57588,0.86922 2.35512,2.45457 2.35512,2.45457z" fill="#393939"/><path d="M238.56841,192.09722l0.01499,0.36172l-0.16452,0.38841c0,0 -0.13234,0.89674 -0.13987,1.24626c-0.00926,0.43006 -0.02219,0.89256 0.05838,1.89559c-0.12189,1.06469 -0.94189,2.43977 -0.94189,2.43977c0,0 -0.66802,0.04933 -1.60587,-0.63348c-3.16894,-2.30716 -2.80998,-4.46872 -2.80998,-4.46872c0,0 0.21848,-1.03374 0.51637,-1.51432c0.29789,-0.48059 0.7325,-0.76117 1.04415,-1.00335c0.31164,-0.24218 0.8245,-0.28499 0.8245,-0.28499c0,0 -0.14327,-0.04272 0.08872,-0.28552c0.05297,-0.05542 0.33996,-0.12496 0.33996,-0.12496l-0.13343,-0.13968l0.42941,-0.58038l2.54841,1.64702z" fill="#f01a40"/><path d="M238.97943,187.80955c0.76118,0.44489 1.26746,1.56882 1.15586,1.84562c-0.11162,0.2768 -0.76779,0.50889 -0.76779,0.50889c0,0 -0.14122,0.79898 -0.48243,0.86162c-0.50862,0.09338 -0.84305,0.02852 -1.8481,-0.4156c-0.52376,-0.3064 -0.70738,-0.83427 -0.89967,-1.22203c-0.23538,-0.47465 0.20284,-0.38086 0.3178,-0.69972c0.11496,-0.31887 0.03024,0.24146 0.16304,-0.63398c0.09512,-0.62708 1.98653,-0.46385 2.36128,-0.24481z" fill="#ffffff"/><path d="M237.81469,191.85452c-0.01356,0.05815 -0.16008,0.64449 -0.16008,0.64449c0,0 0.25385,2.74471 0.0532,3.5376c-0.24713,0.97657 -0.87202,2.31883 -0.87202,2.31883c0,0 -0.49069,-0.16802 -0.7168,-0.2883c-0.23263,-0.12375 -1.11819,-0.85676 -1.11819,-0.85676c0,0 1.11038,-2.45337 1.24127,-2.88302c0.26205,-1.1494 0.34403,-2.18792 0.34403,-2.18792l0.07664,-0.33675l-0.09578,-0.3888l0.34752,-0.92581l1.33555,0.56598c0,0 -0.36326,0.49123 -0.43534,0.80044z" fill="#ffffff"/></g><path d="M237.22922,188.33037c0.13977,-0.35818 0.74583,-0.45627 1.35365,-0.21909c0.60783,0.2372 0.98727,0.71984 0.84749,1.07803c-0.13977,0.35818 -0.74582,0.45626 -1.35365,0.21908c-0.60783,-0.2372 -0.98726,-0.71983 -0.84748,-1.07802z" fill="#afafaf"/></g><path d="M239.23959,176.3733l0.88942,0.49435c0,0 -0.01115,0.81507 -0.19057,1.12599c-0.16923,0.29326 -0.93305,0.6794 -0.93305,0.6794z" data-paper-data="{&quot;index&quot;:null}" fill="#f25c76" stroke="none" stroke-width="0" stroke-linecap="butt" stroke-linejoin="miter"/><path d="M240.11815,183.84514l-1.15595,3.97594l-0.53832,1.72645c0,0 -0.52785,-0.19612 -0.74632,-0.36151c-0.21847,-0.16538 -0.44675,-0.54163 -0.44675,-0.54163l0.42107,-1.2854l1.13459,-3.60242z" data-paper-data="{&quot;index&quot;:null}" fill="#f79db4" stroke="none" stroke-width="0" stroke-linecap="butt" stroke-linejoin="miter"/><path d="M246.04162,182.3135c0,0 -2.19108,3.83813 -6.72673,3.11638c-4.68423,-0.6591 -5.41684,-4.62575 -5.41684,-4.62575l1.11647,-0.09852c0,0 0.10667,3.08901 4.84966,3.57059c4.10748,0.41705 5.04124,-2.41134 5.04124,-2.41134z" data-paper-data="{&quot;index&quot;:null}" fill="#ffffff" stroke="none" stroke-width="0" stroke-linecap="butt" stroke-linejoin="miter"/><path d="M242.44338,178.18284c0.02104,0.6623 -0.42523,2.18219 -0.42523,2.18219l0.30204,0.20065l0.02568,0.16182l2.6617,1.17279c0,0 -0.47634,1.05728 -1.39442,1.62221c-1.42843,0.87895 -2.59651,1.21695 -4.26055,0.84536c-1.82167,-0.40678 -2.26074,-0.74417 -3.34485,-1.69121c-1.17646,-1.02771 -1.03045,-1.94719 -1.03045,-1.94719l1.44642,-0.26418l0.66256,-0.20108l0.09639,-0.15201l1.53746,-0.51387l0.30477,-1.02703c0,0 0.55207,-0.23696 0.79232,-0.69852c0.19033,-0.36564 0.28062,-1.11238 0.28062,-1.11238l1.22813,-0.18336l0.35899,0.08677c0,0 0.73962,0.92628 0.75846,1.51906z" data-paper-data="{&quot;index&quot;:null}" fill="#f01a40" stroke="none" stroke-width="0" stroke-linecap="butt" stroke-linejoin="miter"/><path d="M238.94538,176.07306c0,0 1.05383,0.33399 1.55576,0.41817c0.50192,0.08417 1.30179,0.06104 1.30179,0.06104c0,0 -0.13398,0.71807 -1.43098,0.52078c-1.39443,-0.21211 -1.42657,-0.99999 -1.42657,-0.99999z" data-paper-data="{&quot;index&quot;:null}" fill="#afafaf" stroke="none" stroke-width="0" stroke-linecap="butt" stroke-linejoin="miter"/><g data-paper-data="{&quot;index&quot;:null}" stroke-linecap="butt" stroke-linejoin="miter"><path d="M261.44205,183.39913l-9.03994,-0.8925c0,0 -1.09344,-2.71373 0.44384,-3.96057c1.45691,-1.18166 2.80232,-1.74113 4.80398,-1.65045c5.21289,0.23616 5.05282,4.90613 5.05282,4.90613z" fill="#fbdd00" stroke="none" stroke-width="0"/><path d="M261.7879,182.99365c0,0 0.02612,-0.64738 -0.13946,-1.31527c-0.1108,-0.44694 -0.44622,-0.90344 -0.38457,-1.1058c0.12398,-0.40699 0.27717,-0.07227 0.62141,0.69432c0.16052,0.35745 0.23855,1.31713 0.23855,1.31713l-0.33594,0.40962z" fill="#a58c48" stroke="#000000" stroke-width="0"/><path d="M259.42114,178.81192c-0.01352,0.18771 -1.03203,-0.25523 -1.92645,-0.31967c-0.89443,-0.06444 -2.37913,0.55858 -2.40087,0.12849c-0.02383,-0.47097 1.49952,-0.64885 2.39547,-0.61123c1.33717,0.05615 1.94538,0.6147 1.93186,0.80242z" fill="#a58c48" stroke="#000000" stroke-width="0"/><path d="M252.4111,181.82395l-0.17401,-0.37429c0,0 0.07563,-0.61135 0.26824,-1.01212c0.17294,-0.35979 0.52967,-0.35144 0.58949,-0.29274c0.16995,0.16681 -0.23403,0.41941 -0.4207,0.82384c-0.20166,0.43695 -0.26301,0.8553 -0.26301,0.8553z" fill="#a58c48" stroke="#000000" stroke-width="0"/><path d="M256.91717,183.99761c3.56665,0.35277 4.36363,2.43493 4.36363,2.43493c0,0 0.06737,-0.20998 0.0252,0.38487c-0.04218,0.59486 -0.07138,0.30494 -0.07138,0.30494c0,0 -1.24939,-1.78609 -3.37101,-2.37324c-3.37641,-0.93441 -5.76076,1.35354 -5.76076,1.35354l0.124,-0.58171c0,0 2.14846,-1.77477 4.69031,-1.52335z" fill="#edeee6" stroke="none" stroke-width="0"/><path d="M252.28678,182.08529c0,0 2.19236,-2.73502 4.99342,-2.34522c3.54982,0.49399 4.36967,3.38134 4.36967,3.38134l-0.20608,0.27119c0,0 -1.18827,-2.04608 -3.26572,-2.67701c-3.30609,-1.00405 -5.79928,1.75632 -5.79928,1.75632l-0.09201,-0.38662z" fill="#edeee6" stroke="none" stroke-width="0"/><path d="M257.19481,180.15024c3.58206,0.3539 4.32425,3.52598 4.32425,3.52598c0,0 0.05371,0.94321 0.01154,1.53806c-0.04217,0.59486 -0.22768,1.51103 -0.22768,1.51103c0,0 -1.2553,-1.7865 -3.38623,-2.37433c-3.39117,-0.93548 -5.78505,1.35178 -5.78505,1.35178l0.23511,-3.32564c0,0 2.27523,-2.4791 4.82806,-2.22689z" fill="#ff1a07" stroke="none" stroke-width="0"/><path d="M254.86833,180.63435c0,0 1.34986,-0.55911 2.24641,-0.50309c0.89655,0.05601 1.98654,0.88846 1.98654,0.88846l-0.23048,3.19902c0,0 -1.4068,-0.42292 -2.0963,-0.47259c-0.70949,-0.05111 -2.18239,0.16433 -2.18239,0.16433z" fill="#ff1808" stroke="#000000" stroke-width="0"/><path d="M261.27159,186.60247c0,0 -0.26116,-0.59028 -0.5067,-0.91226c-0.24553,-0.32198 -0.74197,-0.72523 -0.74197,-0.72523l0.17464,-2.98198c0,0 0.66729,0.41562 0.94711,0.88978c0.27981,0.47416 0.39303,1.15187 0.3783,1.35618c-0.03898,0.54108 -0.2514,2.3735 -0.2514,2.3735z" fill="#ff1808" stroke="#000000" stroke-width="0"/><path d="M252.25449,185.67144c0,0 0.12022,-2.62909 0.27191,-3.21613c0.11105,-0.42978 1.12756,-1.14473 1.12756,-1.14473l-0.22616,3.13904c0,0 -0.337,0.29201 -0.53434,0.49752c-0.19735,0.20553 -0.63896,0.72429 -0.63896,0.72429z" fill="#ff1808" stroke="#000000" stroke-width="0"/><path d="M254.99693,187.31604c-1.33612,-0.09625 -4.06729,1.45438 -4.06729,1.45438c0,0 -0.17962,-0.76882 0.18032,-1.57982c0.56313,-1.26879 1.99857,-2.8271 5.057,-2.7245c5.83231,0.19563 6.01935,5.43801 6.01935,5.43801c0,0 -5.85325,-2.49178 -7.18938,-2.58804z" fill="#fbdd00" stroke="none" stroke-width="0"/><path d="M256.71927,185.34998c-0.69566,-0.05011 -2.409,0.14755 -2.26508,-0.08279c0.21293,-0.34081 1.56592,-0.47217 2.25964,-0.39993c1.25261,0.13045 2.02124,0.67777 2.01328,0.78818c-0.00796,0.11043 -1.11227,-0.24091 -2.00786,-0.30545z" fill="#a58c48" stroke="#000000" stroke-width="0"/><path d="M260.43184,186.54197c-0.08579,-0.42554 1.01071,0.75614 1.01071,0.75614l0.22246,0.53856c0,0 -1.17812,-1.02163 -1.23317,-1.29471z" fill="#a58c48" stroke="#000000" stroke-width="0"/><path d="M252.92566,185.84036c-0.02705,0.37545 -1.71014,1.2695 -1.71014,1.2695l0.39725,-0.73399c0,0 1.33994,-0.91095 1.31288,-0.5355z" fill="#a58c48" stroke="#000000" stroke-width="0"/><path d="M256.60508,192.99792c-3.21546,-0.27186 -5.86806,-1.8857 -5.69496,-4.2881c0.12409,-1.72261 3.15583,-2.78727 6.01142,-2.54135c2.73548,0.23559 5.36332,1.99109 5.23921,3.71369c-0.12411,1.7226 -2.81801,3.32182 -5.55384,3.09051z" fill="#fbdd00" stroke="#000000" stroke-width="0.25"/><path d="M260.806,191.4791c-0.07479,1.03797 -2.11371,1.73691 -4.55406,1.56107c-2.44035,-0.17582 -4.35803,-1.1598 -4.28325,-2.19779c0.07479,-1.03797 2.11372,-1.73689 4.55407,-1.56106c2.44034,0.17582 4.35802,1.15979 4.28323,2.19777z" fill="#fbdd00" stroke="#000000" stroke-width="0.25"/><path d="M250.03734,185.61018l-4.17123,-0.02403l-7.06596,-0.06792c0,0 -0.43772,-0.33458 -0.43222,-0.56734c0.00552,-0.23276 0.33151,-0.75209 0.33151,-0.75209l7.0165,-0.34509l4.29498,-0.2651c0,0 -0.16017,0.62508 -0.15484,1.0325c0.00532,0.40742 0.18125,0.98906 0.18125,0.98906z" fill="#fbdd00" stroke="none" stroke-width="0"/><path d="M252.10123,185.893c0,0 -1.8307,-0.00389 -1.91343,-0.07558c-0.31409,-0.27214 -0.42411,-1.99512 -0.08292,-2.47031c0.20145,-0.28059 2.73304,-0.41261 2.73304,-0.41261l-0.47701,2.70891z" fill="#c8c8c6" stroke="none" stroke-width="0"/><path d="M262.67715,181.59892c0,0 0.03898,-2.41506 -2.02514,-3.78293c-0.5007,-0.33181 -1.2953,-0.53171 -2.04764,-0.70179c-1.11844,-0.25282 -2.47158,-0.25353 -3.55354,0.16739c-1.33682,0.52008 -2.43119,1.59755 -2.43119,1.59755c0,0 2.19684,-3.06147 5.48186,-2.39314c4.8687,0.99051 4.57567,5.11292 4.57567,5.11292z" fill="#fbdd00" stroke="#000000" stroke-width="0.25"/><path d="M238.80014,185.51824c0,0 -0.43772,-0.33458 -0.43222,-0.56734c0.00552,-0.23276 0.3315,-0.75209 0.3315,-0.75209l3.01051,-0.16319c0,0 0.09139,0.32164 0.0967,0.72905c0.00532,0.40741 -0.07978,0.78651 -0.07978,0.78651z" fill="#a56402" stroke="none" stroke-width="0"/></g><g data-paper-data="{&quot;index&quot;:null}"><path d="M241.76993,170.55397c0,0 -0.91975,-0.97397 -1.90516,-0.7981c-1.59277,0.2843 -1.51428,2.3387 -1.51428,2.3387c0,0 -0.20686,-1.384 0.58195,-2.06166c0.52072,-0.44736 0.85759,-0.60146 1.54535,-0.42646c0.77068,0.19609 1.29214,0.9475 1.29214,0.9475z" fill="#000000" stroke="none" stroke-width="0" stroke-linecap="butt" stroke-linejoin="miter"/><path d="M241.35093,165.53262c3.30799,0.448 5.67641,3.12392 5.29005,5.97683c-0.38638,2.85292 -3.38123,4.80247 -6.68922,4.35447c-3.30798,-0.448 -5.6764,-3.12391 -5.29004,-5.97682c0.38638,-2.85292 3.38123,-4.80249 6.68921,-4.35449z" fill="#f79eb4" stroke="none" stroke-width="0" stroke-linecap="butt" stroke-linejoin="miter"/><path d="M246.20875,173.21252c0.00838,-0.01512 -0.10438,1.03979 -1.03295,2.27025c-1.49092,1.98721 -2.96507,1.84581 -2.96507,1.84581l0.40235,-0.86499c0,0 1.76949,-1.50037 2.25947,-2.08736c0.48997,-0.58699 0.84248,-1.71795 0.84219,-1.71727" fill="#f79eb4" stroke="#f89db5" stroke-width="0" stroke-linecap="butt" stroke-linejoin="round"/><g fill="#ffd5c5" stroke="none" stroke-width="1" stroke-linecap="round" stroke-linejoin="round"><path d="M244.47914,174.90875c0.04488,0.54561 -0.47007,0.94053 -0.90334,1.1925c-0.07089,0.04121 -0.62609,0.36177 -1.48956,0.52645c-1.08344,0.20662 -2.42503,-0.17496 -2.81171,-0.27458c-0.46115,-0.11886 -1.22439,-0.75511 -1.33723,-0.91518c-0.8121,-1.15201 -0.03319,-1.55022 0.07774,-1.61439c0.0529,-0.03059 0.33457,-0.09437 0.63542,0.05568c0.29324,0.14626 1.07107,0.72506 1.36213,0.75192c0.31272,0.02886 2.12133,-0.32182 3.02027,-0.1989c0.18655,0.02751 0.42407,0.12326 0.55844,0.26119c0.17485,0.17956 0.42796,0.51235 0.72548,0.29473c0.04815,-0.03526 0.15743,-0.13892 0.16235,-0.07945z"/><path d=""/></g><g fill="#000000" stroke="#000000" stroke-width="0.125" stroke-linecap="butt" stroke-linejoin="round"><path d="M245.63512,173.33035c0.06466,-0.01229 0.35411,0.05767 0.80434,0.01442c0.2848,-0.03791 0.56945,-0.07843 0.84913,-0.14376c0.16744,-0.03915 0.32671,-0.12382 0.49452,-0.15571c0.0057,-0.0011 -0.36953,0.16554 -0.48137,0.20164c-0.35057,0.11317 -0.6625,0.18098 -1.02635,0.23452c-0.0799,0.01177 -0.72244,0.03241 -0.71565,0.00854"/><path d="M245.83685,172.81634c0.02193,0.02866 0.34861,0.08542 0.78732,-0.04373c0.43871,-0.12915 1.06048,-0.41033 1.08361,-0.44431c0.00872,-0.01282 -0.69735,0.42254 -1.01147,0.54116c-0.31413,0.11863 -0.94575,0.17369 -0.93945,0.15143"/></g><g fill="#000000" stroke="none" stroke-width="1" stroke-linecap="round" stroke-linejoin="round"><path d="M242.83025,174.69866c0.16238,-0.08704 0.67878,0.04195 0.76022,0.12048c0.14088,0.13587 -0.26725,0.32961 -0.37522,0.30756c-0.23216,-0.06731 -0.59864,-0.31351 -0.38499,-0.42805z"/><path d=""/></g><path d="M238.27431,171.35806c0.0274,-0.04978 -0.35328,1.86516 -0.4499,2.74057c-0.18191,1.64853 0.05958,2.71896 0.05958,2.71896c0,0 -0.32305,-0.2803 -0.39839,-0.36267c-0.23277,-0.25439 -0.43495,-0.50258 -0.62255,-0.79539c-0.44122,-0.68874 -0.69549,-1.47681 -0.80989,-2.28395c-0.07624,-0.5379 0.07242,-2.82802 0.09689,-2.83859" fill="#f79eb4" stroke="#f89db5" stroke-width="0" stroke-linecap="butt" stroke-linejoin="round"/><path d="M236.06049,170.49309c-0.01647,0.01254 -0.10009,2.82762 -0.05939,3.61844c0.0407,0.79082 0.34853,1.99887 0.34853,1.99887c0,0 -0.39904,-0.11807 -0.87123,-0.81882c-0.41693,-0.61877 -0.65569,-0.93602 -0.79708,-2.01189c-0.18347,-1.39608 -0.03475,-3.25934 0.19158,-3.59143" fill="#f79eb4" stroke="#f89db5" stroke-width="0" stroke-linecap="butt" stroke-linejoin="round"/><g fill="#ee1a40" stroke="none" stroke-width="1" stroke-linecap="round" stroke-linejoin="round"><path d="M244.75115,168.51035c-0.07832,-0.06704 -2.07868,-1.74154 -3.68626,-1.68157c-1.26705,0.04725 -1.98986,0.47235 -3.23754,1.20395c-0.96223,0.5642 -1.71105,2.04637 -1.74585,2.05069c-0.0025,0.00031 0.88142,-4.02118 4.32542,-4.16523c2.78213,-0.08516 4.73165,1.98482 4.80702,2.11411"/><path d=""/></g><path d="M244.87798,169.63922c-0.02497,0.01521 0.9509,-0.8456 2.65865,-0.17477c0.3041,0.12135 1.52297,0.23741 1.68533,1.01264c0.22854,0.71598 1.15716,0.95134 1.14134,0.94752c-0.02268,-0.00553 -2.05926,-0.64109 -3.03619,-1.17241c-0.53342,-0.29011 -2.37146,0.52851 -2.40432,0.54853" fill="#f79eb4" stroke="#f89db5" stroke-width="0" stroke-linecap="butt" stroke-linejoin="round"/><path d="M244.02665,169.61068c0.02014,-0.08111 0.98292,-1.61387 1.29538,-1.82707c0.31246,-0.2132 0.80637,-0.4586 1.40965,-0.40863c2.02623,0.36718 3.92815,0.84532 3.92815,0.84532c0,0 -1.68513,0.39664 -2.44553,0.43582c-1.05496,0.05437 -3.22045,0.9655 -3.33465,1.03427" fill="#f79eb4" stroke="#f89db5" stroke-width="0" stroke-linecap="butt" stroke-linejoin="round"/><g stroke="none" stroke-width="1" stroke-linecap="round" stroke-linejoin="round"><g fill="#f79eb4"><path d="M237.52436,168.5029c0.02585,-0.35859 -0.05518,-0.99436 0.03298,-1.66491c0.08817,-0.67055 0.26192,-1.52246 0.40663,-1.6788c0.18919,-0.20442 0.91976,0.11723 1.64556,0.58901c0.7258,0.4718 1.58135,1.36714 1.6049,1.52389"/></g><g fill="#ffd5c5"><path d="M238.14426,168.15346c0.00095,-0.0855 -0.06109,-0.49078 -0.0086,-0.98853c0.05248,-0.49775 0.2222,-1.23549 0.24552,-1.2583c0.09456,-0.09246 0.90488,0.30461 1.29669,0.56832c0.39181,0.26371 0.76122,0.69639 0.83848,0.86886"/></g></g><g fill="#f79eb4" stroke="none" stroke-width="1" stroke-linecap="round" stroke-linejoin="round"><path d="M244.72795,167.20655c0.30419,-0.048 0.62372,-0.07507 1.28806,-0.03075c0.66433,0.04432 1.49191,0.08916 1.68416,0.22899c0.03937,0.02865 0.0687,0.68291 -0.08421,1.16894c-0.23867,0.75868 -0.80659,1.51797 -0.81675,1.52955"/><path d=""/></g><path d="M242.74442,172.83738c0.32857,0.65668 0.52653,0.67347 0.71888,0.71724c0.32998,0.0751 0.74753,-0.17264 1.07803,-0.49697c0.47251,-0.46368 0.97699,-1.33516 1.42261,-1.27872c0.06753,0.00855 0.00061,0.84895 -0.23054,1.39925c-0.4902,1.16702 -1.42462,1.90961 -1.57062,1.89522c-0.58329,-0.05747 -0.3406,-0.56283 -1.52527,-0.66175c-0.67474,-0.05633 -2.29876,0.46667 -2.91982,0.1871c-1.18076,-0.75521 -1.3581,-1.86169 -1.35611,-2.58082c0.00599,-2.16102 1.38045,-2.5646 1.81413,-2.45445c1.99648,0.50704 2.0533,2.24382 2.5687,3.27392z" fill="#ffffff" stroke="none" stroke-width="0" stroke-linecap="butt" stroke-linejoin="miter"/><path d="M244.84816,170.8813c-0.0363,-0.03494 0.95636,-0.47216 1.74151,0.13723c0.22555,0.17507 1.37956,0.77022 1.34249,0.91662c-0.05688,0.60779 0.74415,1.41586 0.74588,1.41494c0.03786,-0.01984 -1.39512,-0.28292 -1.93069,-1.21874c-0.18194,-0.31367 -1.91482,-0.22726 -2.01753,-0.32623" fill="#f79eb4" stroke="#f89db5" stroke-width="0" stroke-linecap="butt" stroke-linejoin="round"/><g fill="#000000" stroke="#000000" stroke-width="0.125" stroke-linecap="butt" stroke-linejoin="round"><path d="M238.82,170.26408c-0.02904,0.03241 -0.18263,0.02463 -0.36015,-0.0844c-1.13977,-0.69994 -1.24305,-1.09913 -1.24305,-1.09913c0,0 0.34387,0.56772 1.17284,0.91326c0.16143,0.06729 0.382,0.11876 0.4308,0.12273c0.04655,0.00378 0.09133,-0.02571 0.13783,-0.00116"/><path d="M238.44491,171.01404c0,0 -0.04194,0.03774 -0.1778,0.06273c-0.25192,0.04634 -0.86581,-0.0405 -1.14472,-0.12147c-0.66502,-0.19307 -1.01451,-0.47082 -1.01451,-0.47082c0,0 0.73765,0.32479 0.97629,0.39713c0.72072,0.21414 1.24407,-0.00366 1.31583,-0.04261c0.03163,-0.01715 0.09982,-0.06743 0.13373,-0.06671"/></g><g stroke="none" stroke-linecap="butt" stroke-linejoin="miter"><path d="M241.46962,171.80989c0.22853,0.04609 0.29829,0.65612 0.15582,1.36252c-0.14249,0.70639 -0.44328,1.24165 -0.67181,1.19557c-0.22853,-0.04609 -0.29828,-0.65611 -0.15581,-1.36251c0.14248,-0.7064 0.44327,-1.24166 0.6718,-1.19558z" fill="#169c5b" stroke-width="NaN"/><path d="M241.29379,172.71399c0.10042,0.02025 0.13357,0.27586 0.07406,0.5709c-0.0595,0.29505 -0.18915,0.51783 -0.28958,0.49757c-0.10042,-0.02025 -0.13357,-0.27586 -0.07406,-0.5709c0.0595,-0.29505 0.18915,-0.51783 0.28958,-0.49757z" fill="#000000" stroke-width="0"/><path d="M241.21475,172.55586c0.06021,-0.29851 0.20727,-0.52068 0.32847,-0.49624c0.12119,0.02444 0.17063,0.28625 0.11041,0.58477c-0.06022,0.29852 -0.20727,0.52068 -0.32847,0.49624c-0.12119,-0.02444 -0.17063,-0.28624 -0.11041,-0.58476z" fill="#ffffff" stroke-width="0"/></g><g stroke="none" stroke-linecap="butt" stroke-linejoin="miter"><path d="M244.11826,173.94731c0.1005,-0.49825 0.31263,-0.87579 0.47384,-0.84327c0.1612,0.0325 0.21038,0.46277 0.1099,0.96103c-0.10051,0.49825 -0.31264,0.8758 -0.47385,0.84328c-0.1612,-0.0325 -0.21037,-0.46277 -0.10989,-0.96102z" fill="#169c5b" stroke-width="NaN"/><path d="M244.26382,174.09269c0.04198,-0.20811 0.13341,-0.36523 0.20424,-0.35093c0.07084,0.01429 0.09424,0.19457 0.05226,0.40267c-0.04199,0.20811 -0.13342,0.36524 -0.20425,0.35094c-0.07084,-0.0143 -0.09424,-0.19458 -0.05225,-0.40268z" fill="#000000" stroke-width="0"/><path d="M244.64402,173.28018c0.08549,0.01725 0.12034,0.2019 0.07788,0.41246c-0.04248,0.21055 -0.1462,0.36725 -0.23169,0.35c-0.08548,-0.01725 -0.12034,-0.20188 -0.07787,-0.41244c0.04248,-0.21055 0.14619,-0.36727 0.23168,-0.35002z" fill="#ffffff" stroke-width="0"/></g></g><g data-paper-data="{&quot;index&quot;:null}" stroke="none" stroke-width="0" stroke-linecap="butt" stroke-linejoin="miter"><path d="M242.39826,183.30775c0,0 0.99105,1.10705 1.48051,1.84738c0.07797,0.11796 0.00839,1.21274 -0.09551,1.69635c-0.05674,0.26414 -0.15928,0.75696 -0.60568,0.83926c-0.1138,0.02098 -0.64875,-0.15862 -0.64875,-0.15862l-0.29405,0.32408c0,0 -0.25645,0.04659 -0.40437,-0.0085c-0.1479,-0.05511 -0.3626,-0.25593 -0.3626,-0.25593c0,0 -0.17464,0.03986 -0.2914,0.09307c-0.3811,0.17374 -0.5746,-0.16806 -0.5746,-0.16806c0,0 -0.26204,0.15769 -0.48305,0.14152c-0.35038,-0.02564 -0.74018,-0.25116 -0.90049,-0.43556c-0.27231,-0.31323 -0.80414,-1.34082 -0.57661,-1.6533c0.35435,-0.48667 0.89876,0.0168 0.89876,0.0168c0,0 -0.18445,-0.60073 -0.09382,-0.97017c0.13954,-0.56886 0.44196,-0.79816 0.44196,-0.79816l2.50972,-0.51019z" fill="#ffffff"/><path d="M240.46236,181.61487c0.52801,-0.26311 1.86272,-0.12188 2.15892,0.24386c0.2962,0.36573 0.66293,1.35172 0.18071,1.69152c-1.76157,1.24133 -2.86715,0.62602 -3.41069,-0.18761c-0.35502,-0.53143 -0.41612,-1.00666 1.07106,-1.74776z" fill="#fed000"/><path d="M240.70895,181.95717c0.52783,-0.13459 1.00887,-0.03523 1.07444,0.22194c0.06556,0.25715 -0.30916,0.57471 -0.837,0.70929c-0.52784,0.13459 -1.00888,0.03524 -1.07445,-0.22193c-0.06556,-0.25716 0.30917,-0.57473 0.83701,-0.7093z" fill="#c28830"/><path d="M240.76505,180.20756c0.33887,1.25879 0.79029,2.4468 0.79029,2.4468c0,0 -0.43223,0.32968 -0.75498,0.29595c-0.32276,-0.03372 -0.42937,-0.00254 -0.42937,-0.00254c0,0 -0.51366,-2.06985 -0.65037,-2.57767c-0.22425,-0.83301 -0.49943,-1.80848 -0.89867,-2.99426c-0.10004,-0.29713 -0.00298,-0.5217 0.29585,-0.63611c0.20076,-0.07685 0.41906,-0.0672 0.59074,0.28477c0.51847,1.06291 0.81952,2.30261 1.05654,3.18306z" fill="#fed5c7"/></g><path d="M238.6145,175.36462c0,0 0.15525,-0.0501 0.46868,0.00036c0.31343,0.05045 0.79101,0.17024 0.79101,0.17024" data-paper-data="{&quot;index&quot;:null}" fill="none" stroke="#000000" stroke-width="0.125" stroke-linecap="round" stroke-linejoin="miter"/></g></g></svg>