<svg version="1.1" xmlns="http://www.w3.org/2000/svg" xmlns:xlink="http://www.w3.org/1999/xlink" width="187.85963" height="253.44994" viewBox="0,0,187.85963,253.44994"><g transform="translate(-114.18456,-28.27591)"><g data-paper-data="{&quot;isPaintingLayer&quot;:true}" fill-rule="nonzero" stroke="none" stroke-linecap="butt" stroke-linejoin="miter" stroke-miterlimit="10" stroke-dasharray="" stroke-dashoffset="0" style="mix-blend-mode: normal"><path d="M262.31855,274.7993c-11.84814,-4.1268 -9.55078,-5.28948 -10.87934,-7.34639c-2.89851,-4.48753 4.74252,-12.4424 4.74252,-12.4424c0,0 15.12432,3.57612 21.718,8.44975c6.13906,3.47018 19.12631,11.49036 16.08284,15.43594c-4.97381,6.23183 -19.81587,0.0299 -31.66402,-4.0969z" data-paper-data="{&quot;index&quot;:null}" fill="#09649e" stroke-width="0"/><path d="M251.2382,242.63095l-1.57305,-22.89475c0.18814,-4.14381 9.60225,10.53985 10.00195,14.66335c2.63322,16.3012 10.00509,23.92522 18.12953,30.74361c4.81831,4.04231 5.96301,4.64823 4.23539,7.79355c-2.53875,4.62001 -18.62941,-1.52632 -21.04558,-3.05723c-6.44756,-4.08447 -6.68331,-2.61916 -7.8028,-9.13933l-0.87044,-7.42028z" data-paper-data="{&quot;index&quot;:null}" fill="#ffffff" stroke-width="0.17188"/><path d="M196.85103,279.04705c-5.00646,-3.83087 7.29949,-10.33007 13.77548,-13.89786c6.92137,-4.98951 23.02445,-9.71614 23.02445,-9.71614c0,0 6.12816,8.64662 4.46553,11.2795c-1.90906,3.0231 -2.90087,5.89961 -12.87718,9.57113c-11.28207,4.15207 -21.12618,8.32021 -28.38828,2.76337z" fill="#09649e" stroke-width="0"/><path d="M235.03399,254.21874l-0.87142,7.23348c-1.11717,6.35582 -1.35355,4.92738 -7.79597,8.90846c-2.41533,1.49163 -15.42732,7.00335 -17.96435,2.50114c-1.7288,-3.06675 -3.42249,-2.84596 1.16475,-7.11881c5.72314,-5.33071 8.79378,-4.46944 15.63094,-13.75002c2.55653,-3.47008 3.559,-24.19224 4.22838,-28.23105c0.39943,-4.02008 8.28278,-12.203 8.47001,-8.16342l-1.78809,28.2014z" data-paper-data="{&quot;index&quot;:null}" fill="#ffffff" stroke-width="0.17188"/><g data-paper-data="{&quot;index&quot;:null}" stroke-width="0.17188"><path d="M244.53998,171.41494c-2.58573,-9.68945 -2.49882,-24.9171 -1.61953,-30.8885c0.87928,-5.97141 4.82678,-16.3034 7.18705,-14.69408c2.3612,1.609 4.30771,16.87133 6.71256,27.33037c1.5189,6.61056 3.4506,14.61648 2.91256,21.13102c-0.355,4.28043 -5.15588,9.8872 -8.53742,10.66104c-2.61604,0.6057 -5.79985,-10.33626 -6.65518,-13.53965z" data-paper-data="{&quot;index&quot;:null}" fill="#09649e"/><path d="M251.29807,184.8571c0.05983,0.03721 5.14433,0.46622 6.69367,0.21408c2.60727,-0.42296 0.79975,-1.34029 4.01565,-0.80499c2.3849,0.39711 -0.51976,4.9634 1.0913,11.65051c0.37605,1.56092 2.80601,11.34006 2.37217,12.03938c-0.2428,2.12651 1.32621,6.52102 -1.1384,7.27085c-2.46469,0.74986 -1.76104,-5.549 -1.76104,-5.549c0,0 1.69828,8.30426 -0.9493,8.2692c-2.46268,-0.40465 -1.31681,-8.09119 -1.54112,-8.78869c-0.50789,-1.57904 -1.44172,8.02093 -3.23854,6.66878c-2.07111,-1.55868 1.88802,-12.56334 -4.30141,-17.1818c-3.88501,-4.10901 0.55318,9.08126 -2.89224,10.08262c-3.19185,-4.1023 -4.408,-8.38374 -3.59951,-18.12461c0.48079,-1.8979 -0.52876,-3.88617 0.1416,-5.02189c0.64561,-1.01611 2.48377,-2.39183 5.10699,-0.72434z" fill="#ebd9bb"/><path d="M243.10905,176.2975c0.98863,-1.8694 11.77837,-0.9349 11.77837,-0.9349c2.06786,0.27658 6.73974,-1.88632 5.42565,-0.47249c-0.26306,0.28319 0.02741,-1.71418 1.11073,-0.6861c0.71117,0.67651 1.22109,4.26206 1.76634,5.32979c1.25965,2.46596 1.01307,6.17011 1.49223,8.81278c0.45038,2.48731 -1.87863,3.23526 -2.7104,4.13099c-1.20117,1.29634 -3.1705,1.1763 -6.19446,-0.50878c-3.6777,-2.04958 -6.98179,-2.67815 -7.20819,-2.69342c0,0 -2.79964,-0.13387 -3.21898,1.01038c1.29081,-3.71819 -3.8976,-10.35767 -2.24123,-13.98818z" fill="#ecc51e"/></g><path d="M246.58947,125.95598c0,0 -1.24109,16.6455 -13.64577,25.8494c-13.70347,10.16761 -42.83769,10.49779 -42.83769,10.49779l17.31453,-17.30618l3.09124,-35.16779z" fill="#2095ad" stroke-width="0"/><g stroke-width="0.17188"><path d="M250.65331,168.88719c-0.14311,3.31256 -0.88797,14.68389 -3.57309,14.65766c-3.46884,-0.02506 -9.3676,-4.46229 -10.63886,-8.56493c-1.93269,-6.24451 -1.77604,-14.47867 -1.72111,-21.26123c0.0886,-10.73156 -1.3079,-26.05405 0.6499,-28.1351c1.95691,-2.08125 8.04319,7.15408 10.19171,12.79453c2.14853,5.64043 5.52293,20.48979 5.0915,30.50907z" data-paper-data="{&quot;index&quot;:null}" fill="#09649e"/><path d="M246.95896,183.4717c2.20101,-2.1948 4.29295,-1.24867 5.14284,-0.39602c0.8999,0.9641 0.34368,3.12347 1.22311,4.87271c2.89369,9.33621 2.63119,13.77927 0.40089,18.47423c-3.58039,-0.23342 -2.09647,-14.07097 -5.00207,-9.2197c-5.04557,5.8465 1.19743,15.73603 -0.4881,17.70534c-1.46224,1.70833 -4.44795,-7.46312 -4.60265,-5.81169c-0.06837,0.72948 2.71099,7.98701 0.39387,8.91411c-2.57746,0.60623 -2.71323,-7.86885 -2.71323,-7.86885c0,0 2.04776,5.99813 -0.52073,5.79845c-2.56841,-0.19969 -1.98578,-4.82934 -2.68224,-6.85325c-0.57466,-0.58907 -0.31467,-10.6623 -0.2847,-12.26757c0.12847,-6.87722 -3.69409,-10.70821 -1.45133,-11.61119c3.02433,-1.21737 1.45766,0.06873 4.09471,-0.08149c1.56723,-0.08852 6.439,-1.60581 6.48938,-1.65507z" fill="#ebd9bb"/><path d="M253.10542,173.34514c2.40157,3.18696 -1.23,10.79047 0.83352,14.14205c-0.65665,-1.02669 -3.36118,-0.29113 -3.36118,-0.29113c-0.21774,0.06379 -3.30805,1.39134 -6.45609,4.18699c-2.5885,2.2985 -4.4854,2.84116 -5.93828,1.835c-1.00563,-0.69488 -3.44121,-0.92201 -3.53884,-3.44791c-0.10308,-2.68373 -1.14398,-6.24718 -0.44684,-8.92701c0.30169,-1.16028 0.025,-4.77133 0.57322,-5.58553c0.83565,-1.23784 1.55071,0.64961 1.23273,0.43c-1.58854,-1.09656 3.44036,0.00601 5.39954,-0.71078c0,0 10.33307,-3.24329 11.70224,-1.63165z" fill="#ecc51e"/></g><path d="M268.57709,116.14823c1.21792,-11.14196 3.96101,-67.61717 11.76154,-67.19311c7.31305,0.39756 15.67091,28.61828 14.2655,48.17233c-1.61548,22.48131 -10.61754,43.33515 -10.94294,49.32089c-0.60843,11.19198 9.25086,33.76161 9.25086,33.76161c0,0 -30.75069,-10.12899 -24.33496,-64.06173z" fill="#2095ad" stroke-width="0"/><path d="M244.32422,124.40981c0.76584,-4.61237 10.52994,-1.68471 13.92426,-5.27769c6.89344,-7.29693 9.39261,-19.13085 10.07441,-19.09379c1.01734,0.05531 0.91104,29.81074 1.11746,36.091c1.16028,35.3034 -8.49446,42.95924 -8.49446,42.95924c0,0 -20.60225,-30.70624 -16.62173,-54.67891z" fill="#0d4d58" stroke-width="0"/><g><path d="M282.72852,219.37838c-0.63177,4.49054 -15.59557,4.41028 -17.22587,0.08398c-2.1894,-5.76838 -8.59144,-19.7124 -11.69489,-34.50619c-2.75923,-13.1529 -0.76195,-27.34283 0.28378,-27.49348c0.79161,-0.06006 4.72331,8.76465 8.50739,15.04087c9.14824,15.17307 21.19769,39.15123 20.12959,46.87482z" data-paper-data="{&quot;index&quot;:null}" fill="#ffffff" stroke-width="0.19137"/><path d="M272.44347,220.36663c4.96181,0 10.02346,-3.98008 10.02346,-1.82254c0,0.89027 -0.2809,9.52886 -0.2585,15.88393c0.02426,6.27667 0.29862,13.96621 -0.96212,12.59441l-7.7614,-8.43049c-1.01531,-1.10303 -4.99447,-9.5382 -6.23842,-11.64629c-2.86864,-4.86662 -2.48417,-7.67834 -2.48417,-9.18265c0,-2.15754 2.72026,2.60361 7.68113,2.60361z" data-paper-data="{&quot;index&quot;:null}" fill="#2095ad" stroke-width="0.17188"/><path d="M227.51319,197.81266c0,0.89121 -0.1913,16.57542 0.26129,22.91462c0.26596,3.72439 -7.36758,11.67148 -8.35677,12.55429l-7.43102,5.24737l3.95488,-13.63773l2.4739,-14.06047z" data-paper-data="{&quot;index&quot;:null}" fill="#2095ad" stroke-width="0.17188"/><path d="M248.1756,191.35729c-0.08119,-4.96181 20.17849,17.629 20.17849,19.78655c0,0.89121 2.0605,1.71895 2.08475,8.07401c0.01025,2.95731 -3.49854,9.81441 -4.45041,13.85516l-3.02261,12.79786l-11.14546,-15.24294l-4.20945,-9.11329z" data-paper-data="{&quot;index&quot;:null}" fill="#2095ad" stroke-width="0.17188"/><path d="M224.14861,190.59956c-0.08212,-4.95901 24.86314,0.44793 24.86314,2.60361c0,0.89121 -0.97052,19.96012 -0.51792,26.29839c0.26596,3.72439 -6.88326,14.80796 -7.57568,15.93899l-9.26944,15.14111l-3.07489,-14.41974c-1.6219,-6.95884 -3.00581,-13.67972 -3.25498,-19.26677z" data-paper-data="{&quot;index&quot;:null}" fill="#2095ad" stroke-width="0.17188"/><path d="M217.8955,208.06278c0.38754,-2.30324 7.65239,-43.98946 9.35919,-39.82555c3.01422,7.34986 -0.19877,8.13617 -0.19877,22.68283c0,5.31736 -0.28836,10.20264 -1.20756,15.36973c-0.99292,5.57677 -5.78579,4.89462 -7.41422,7.75766c0,0 -0.92619,-3.68143 -0.53865,-5.98467z" data-paper-data="{&quot;index&quot;:null}" fill="#ffffff" stroke-width="0.17188"/><path d="M227.22442,166.73399c1.42313,-7.31999 2.73054,-15.22136 7.0727,-21.59042c2.42164,-3.55362 9.72671,-15.40054 12.13621,-11.51565c5.55439,8.95494 3.68612,23.37376 3.68612,37.92135c0,5.31548 -0.54965,22.69906 -1.46884,27.86617c-0.99292,5.57677 -3.97822,7.2388 -5.60758,10.10186c-3.32965,5.8586 -5.95566,9.28717 -9.06601,9.28717c-3.25218,0 -5.56838,-4.77516 -7.01391,-9.37768c-1.23929,-3.94368 -1.83839,-6.79274 -1.83839,-17.30985c0,-10.62817 0.51232,-17.10734 2.09969,-25.38292z" data-paper-data="{&quot;index&quot;:null}" fill="#ffffff" stroke-width="0.17188"/><path d="M248.29785,146.35766c2.18274,0.056 7.8843,9.94533 9.59298,14.10926c3.01236,7.34892 11.72681,35.53676 10.80761,40.70294c-0.12697,0.7131 2.76126,9.49363 1.59615,15.43942c-1.16511,5.94579 -6.67969,10.50288 -6.67969,10.50288c-2.14075,2.4487 -7.66781,-7.9707 -10.65928,-13.80442c-2.99147,-5.83372 -2.46926,-2.96527 -4.41827,-17.98546c-2.11879,-16.32862 -1.85132,-49.00738 -0.2395,-48.96461z" data-paper-data="{&quot;index&quot;:null}" fill="#ffffff" stroke-width="0.17188"/></g><path d="M236.77187,125.26056c1.87534,0 8.75511,-1.05861 10.71881,0.10102c6.28981,4.06915 3.053,10.62831 2.78406,20.73754c0.28312,1.26885 1.33285,4.08339 1.33285,4.08339c0,0 -4.7148,-2.00498 -6.62151,-2.94922c-1.23526,-0.61172 -3.70655,-2.16526 -3.70655,-2.16526c0,0 -3.03311,0.50512 -3.80889,0.37278c-1.55424,-0.26515 -7.43238,4.66401 -7.43238,4.66401l-0.76077,0.97686c0,0 1.2482,-2.81716 1.19397,-5.61017c-0.06497,-3.34691 -1.40016,-6.89919 -0.90529,-8.7633c0,0 3.2629,-11.44758 7.20563,-11.44758z" fill="#09649e" stroke-width="0"/><path d="M208.48704,63.41049c0.01583,-0.29115 3.88299,-2.63787 7.85129,-6.44417c3.30177,-3.1672 0.5979,-8.69722 3.22111,-8.55461c5.77616,0.31401 17.15754,-1.43571 17.12855,-0.90248c-0.02899,0.53323 -13.92021,17.64598 -19.69637,17.33197c-5.77616,-0.31401 -8.53371,-0.89762 -8.50471,-1.43106z" fill="#72878d" stroke-width="0"/><path d="M265.98063,54.13977l-10.00814,-4.14088c0,0 -0.47961,-9.8578 2.92516,-10.91365c17.90613,-5.55323 28.81587,21.3661 28.81587,21.3661c0,0 3.81021,24.8736 0.04315,44.64578c-4.10022,21.52053 -27.89182,54.22285 -27.89182,54.22285c0,0 6.33241,-39.21802 8.23819,-54.40767c1.27159,-10.13511 2.08582,-27.86986 2.08582,-27.86986z" fill="#2095ad" stroke-width="0"/><path d="M255.2814,34.04271c0,0 2.13907,-6.04276 7.39594,-5.75698c5.25688,0.28578 5.73374,2.15927 5.73374,2.15927c0,0 15.21465,0.85773 16.58813,16.49285c0.11958,1.36151 -12.34475,-6.21623 -14.29218,-7.74534c-4.14066,-3.25125 -15.42562,-5.15001 -15.42562,-5.15001z" fill="#dceef3" stroke-width="0"/><path d="M231.09814,37.03922c0.09219,-1.69584 10.09331,-7.82139 17.15008,-7.83247c4.6393,-0.0072 3.96278,4.66875 3.96278,4.66875c0,0 -5.06947,4.65154 -9.47826,4.41186c-4.40879,-0.23968 -11.72651,0.44742 -11.63432,-1.24841z" fill="#dceef3" stroke-width="0"/><path d="M254.70054,33.39527c7.80052,0.42406 14.00053,3.04046 13.80693,6.60165c-0.19359,3.56105 -6.60731,4.87593 -14.40784,4.45187c-7.80025,-0.42405 -14.64775,-2.45965 -14.45415,-6.02091c0.1936,-3.56125 7.2546,-5.45667 15.05505,-5.03261z" fill="#e8d548" stroke-width="0"/><path d="M258.24668,47.06508c0.14076,-2.5892 3.71283,-5.89828 8.20944,-5.65383c4.49681,0.24446 6.68154,4.85646 6.54078,7.44565c-0.14076,2.5892 -2.17837,0.12906 -6.67518,-0.1154c-4.49681,-0.24446 -8.21572,0.91278 -8.07496,-1.67642z" fill="#72878d" stroke-width="0"/><path d="M204.63541,59.31284c0,0 -3.91482,-12.85044 2.75045,-20.02475c5.34221,-5.75003 11.49731,-4.14476 11.49731,-4.14476c0,0 3.18002,-3.1816 10.60148,-2.82825c4.57809,-0.23114 12.19539,6.1569 12.58349,6.86023c2.3156,4.19497 -9.16198,-2.27433 -12.89611,-0.84609c-9.57265,3.66109 -24.53691,20.9836 -24.53691,20.9836z" fill="#dceef3" stroke-width="0"/><path d="M208.06957,64.11964c0,0 7.71738,-16.89006 11.72253,-16.67232c4.00537,0.21775 0.86496,7.05198 0.86496,7.05198l-12.58747,9.62014z" fill="#dceef3" stroke-width="0"/><path d="M208.3292,81.99471c0,0 9.73847,-29.26418 15.16728,-31.92663c4.17347,-2.04668 15.59779,-1.50721 15.59779,-1.50721c0,0 -13.45965,32.33188 -14.80558,57.0899c-1.34593,24.75801 -3.08457,45.40891 -3.08457,45.40891c0,0 -9.71685,-18.19458 -12.25401,-31.80521c-2.53716,-13.61062 -0.6207,-37.25974 -0.6207,-37.25974z" fill="#2095ad" stroke-width="0"/><path d="M247.18599,69.65753c18.99251,1.0325 33.41708,14.77916 32.81994,30.73149c-0.73352,19.59849 -18.86573,26.37797 -36.21701,25.65096c-10.43237,-0.43716 -32.06472,-7.53721 -31.92648,-28.69958c-2.20592,-16.43282 16.33102,-28.71537 35.32353,-27.68287z" fill="#ecdebd" stroke-width="0"/><path d="M292.65015,60.40248l3.24746,-8.75407c0,0 3.08087,4.15699 4.20421,8.40445c1.12342,4.24747 1.41583,12.84167 1.41583,12.84167z" fill="#dceef1" stroke-width="0"/><path d="M214.25706,49.54256c0.01482,-0.27259 10.74385,-12.45134 18.03189,-12.05513c7.28825,0.39621 11.75602,6.79974 11.7412,7.07233c-0.01482,0.27259 -9.97769,3.91201 -15.29201,3.6231c-5.31432,-0.2889 -14.49598,1.6323 -14.48116,1.35971z" fill="#72878d" stroke-width="0"/><path d="M289.4365,65.09246c0.20002,-3.67931 2.81096,-6.18611 2.81096,-6.18611c0,0 3.20287,5.07582 4.71349,7.43391c1.51062,2.3581 5.08324,7.60371 5.08324,7.60371c0,0 -12.8077,-5.1724 -12.60769,-8.8515z" fill="#72878d" stroke-width="0"/><path d="M207.81778,93.91107c0,0 0.914,-17.7256 6.82599,-25.4741c5.91205,-7.7485 19.69023,-14.03695 32.47986,-16.13611c12.78949,-2.0991 15.15629,4.59593 21.0273,7.35406c11.02959,5.18159 1.70699,36.27096 1.70699,36.27096c0,0 -16.74258,-1.49021 -22.91429,-0.27856c-7.05316,1.38481 -15.34629,7.26863 -18.01537,6.09699c-1.79374,-0.78732 -3.44187,-7.55299 -3.44187,-7.55299l-2.65089,5.27261c0,0 -5.31567,-12.33299 -10.38453,-9.56366c-4.43628,2.42371 -4.63297,4.01075 -4.63297,4.01075z" fill="#2195ab" stroke-width="0"/><path d="M275.70922,53.67755c-1.714,-2.04102 -3.158,-6.08621 -4.45977,-7.8388c-2.47839,-3.33641 -8.03483,-4.35311 -8.03483,-4.35311c0,0 6.22074,-4.88352 9.55552,-5.05874c3.33471,-0.17502 9.9112,3.41637 9.9112,3.41637c0,0 2.26416,-2.20167 6.59667,-0.83133c3.53363,1.11762 9.35802,5.44296 8.93528,8.44606c-0.38624,2.74498 -1.7627,6.48122 -3.21157,9.20813c-2.07972,3.91393 -4.34447,6.39916 -4.34447,6.39916c0,0 -6.92356,0.16724 -14.94801,-9.3881z" fill="#dceef3" stroke-width="0"/><path d="M264.35442,52.42713c0,0 2.26881,1.95588 2.86595,3.88368c0.59719,1.92801 0.48867,6.94662 0.48867,6.94662c0,0 -1.33591,-1.94128 -5.85968,-5.65409c-3.89279,-3.19491 -9.5922,-5.47086 -9.55453,-6.16365c0.08145,-1.49821 12.0594,0.9875 12.0594,0.9875z" data-paper-data="{&quot;index&quot;:null}" fill="#0b4754" stroke-width="0"/><path d="M236.30364,51.59031c-0.03766,0.6928 -4.97714,3.35372 -9.19326,6.10781c-4.89961,3.20053 -9.59647,8.1331 -9.59647,8.1331c0,0 1.22872,-5.85524 2.35574,-8.61627c1.12703,-2.76129 2.92262,-4.02731 2.92262,-4.02731c0,0 13.59287,-3.09534 13.51142,-1.59712z" fill="#0b4754" stroke-width="0"/><path d="M227.45076,58.87471c0.13857,-2.54901 6.66986,-12.46661 11.87197,-17.65912c3.62338,-3.61649 6.8425,1.96421 6.8425,1.96421c0,0 10.62033,-1.63486 12.69925,0.7147c1.03885,2.02892 -1.37801,6.41185 -2.57874,10.39437c-1.07903,3.57962 -0.5052,7.64491 -1.33432,8.54437c-5.16758,5.60582 -11.17858,8.47702 -18.30082,8.08983c-7.12223,-0.38719 -9.43462,-7.72427 -9.19954,-12.04848z" fill="#dceef3" stroke-width="0"/><path d="M265.70922,122.372l3.22,-28.70242l6.78075,-2.61866l-2.35305,31.07273z" fill="#2095ad" stroke-width="0"/><path d="M221.45147,106.9104c-2.98016,0.03647 -5.58191,-4.65036 -5.58191,-4.65036c0,0 4.59888,0.70074 6.27688,0.65205c0.61959,-0.018 1.40308,-2.87951 1.40308,-2.87951c0,0 4.97384,2.78697 4.70948,4.78722c-0.16991,1.28609 -5.64112,2.07647 -6.80751,2.09059z" fill="#ecdebd" stroke-width="0"/><path d="M242.29616,109.53152l3.03809,-2.7246c0,0 2.78879,0.67711 4.42428,0.76602c1.6355,0.08891 4.99083,0.0086 4.99083,0.0086l4.04843,2.84726z" fill="#ecdebd" stroke-width="0"/><path d="M238.04388,121.14262c0.90833,-0.70315 3.35175,0.76795 5.65,0.89289c2.29827,0.12494 5.1525,-1.47325 5.78118,-0.27145c0.89824,0.99495 -3.35299,1.47355 -5.80537,1.34023c-2.45239,-0.13332 -7.42223,-0.57111 -5.62581,-1.96167z" fill="#b1a37f" stroke-width="0"/><path d="M258.17001,108.34814c1.82866,0.09941 0.46868,-0.07162 0.34568,2.19084c-0.123,2.26246 -0.60739,2.62324 -0.60739,2.62324c0,0 -0.44236,-0.41116 -0.31937,-2.67362c0.123,-2.26246 -1.24758,-2.23987 0.58108,-2.14045z" fill="#d0bf96" stroke-width="0"/><path d="M215.85113,103.14285c1.82866,0.09941 0.46861,-0.07163 0.34561,2.19083c-0.12298,2.26225 -0.60731,2.62304 -0.60731,2.62304c0,0 -0.44244,-0.41096 -0.31945,-2.67342c0.123,-2.26246 -1.24758,-2.23987 0.58115,-2.14045z" fill="#d0bf96" stroke-width="0"/><path d="M218.21187,104.23941c1.82866,0.09941 0.46868,-0.07162 0.34568,2.19084c-0.12298,2.26225 -0.60738,2.62297 -0.60738,2.62297c0,0 -0.44238,-0.41089 -0.31938,-2.67335c0.123,-2.26246 -1.24758,-2.23987 0.58108,-2.14045z" fill="#d0bf96" stroke-width="0"/><path d="M255.70411,109.18229c1.82866,0.09941 0.46868,-0.07162 0.34568,2.19084c-0.12298,2.26225 -0.60738,2.62304 -0.60738,2.62304c0,0 -0.44237,-0.41096 -0.31938,-2.67342c0.123,-2.26246 -1.24765,-2.23987 0.58108,-2.14045z" fill="#d0bf96" stroke-width="0"/><path d="M273.38675,118.86454c0,0 -2.01665,-17.00387 -3.02633,-23.47778c-0.73902,-4.73864 -2.47731,-11.81088 -2.47731,-11.81088c0,0 5.99265,-5.44305 7.57254,-2.7692c1.57994,2.67386 8.43503,14.50398 6.66438,23.68864c-1.77065,9.18467 -8.73334,14.36927 -8.73334,14.36927z" fill="#2195ab" stroke-width="0"/><path d="M243.71132,144.13342c0,0 2.18611,2.55345 3.68487,2.79989c1.49884,0.24643 3.29448,0.54173 3.29448,0.54173l2.57541,2.52249c0,0 -4.3299,0.11162 -5.94744,-0.56354c-1.61755,-0.67516 -3.8126,-3.20694 -3.8126,-3.20694z" fill="#2490a6" stroke-width="0"/><path d="M232.46615,147.08489c1.03271,-1.30715 3.70969,-3.32763 3.70969,-3.32763l0.27371,1.72648c0,0 -1.6356,1.83616 -2.62409,2.58118c-0.98843,0.74501 -3.28736,2.82833 -3.28736,2.82833c0,0 0.89535,-2.5012 1.92806,-3.80836z" data-paper-data="{&quot;index&quot;:null}" fill="#2490a6" stroke-width="0"/><path d="M230.57328,149.90612c0,0 0.68289,6.479 1.37912,8.12102c0.69631,1.64207 2.05915,3.47408 2.05915,3.47408l8.70238,2.09188c0,0 4.37023,-2.34384 6.06119,-3.69416c1.69095,-1.3504 2.81693,-8.15245 2.81693,-8.15245l3.22003,4.21693c0,0 0.32727,2.55016 -3.46956,5.69661c-3.79682,3.14644 -9.61157,6.86646 -9.61157,6.86646l-0.21763,3.07525l-4.40582,2.40884l-4.03342,-4.44127l0.12611,-3.03031c0,0 -2.73777,-3.78291 -3.68339,-6.59285c-0.94562,-2.80993 -0.63293,-6.04416 -0.63293,-6.04416z" fill="#eec522" stroke-width="0"/><g><path d="M241.57716,127.2158c1.17044,0.47518 2.11406,2.33627 2.69129,4.96026c0.57799,2.62372 0.79009,6.00945 0.49948,9.53247c-0.29041,3.52371 -1.02902,6.52351 -1.98764,8.5232c-0.95931,1.99996 -2.13835,3.00049 -3.30886,2.52531c-1.17133,-0.47559 -2.1142,-2.33689 -2.69212,-4.96067c-0.57724,-2.624 -0.79009,-6.00945 -0.49947,-9.53247c0.29034,-3.52371 1.02971,-6.52372 1.98833,-8.5234c0.95862,-1.99968 2.1376,-3.00021 3.309,-2.52462z" fill="#5ed161" stroke-width="0.01872"/><g data-paper-data="{&quot;index&quot;:null}" fill="#21683c" stroke-width="0.01872"><path d="M241.09909,133.01237c0.63917,0.25951 1.15455,1.27587 1.46973,2.70885c0.31566,1.43284 0.43148,3.28181 0.27279,5.2058c-0.15863,1.92433 -0.56196,3.56259 -1.08545,4.65465c-0.52391,1.0922 -1.16776,1.6386 -1.807,1.37909c-0.63966,-0.25971 -1.15461,-1.27621 -1.47021,-2.70912c-0.31525,-1.43297 -0.43148,-3.28182 -0.27279,-5.2058c0.15856,-1.92433 0.56238,-3.56273 1.08587,-4.65479c0.52349,-1.09206 1.16734,-1.63846 1.80706,-1.37875z"/></g><path d="M240.5809,132.4461c0.40815,0.15091 0.70276,0.76765 0.85017,1.64321c0.14713,0.87501 0.14644,2.00897 -0.03696,3.19228c-0.1836,1.18283 -0.5153,2.19382 -0.90356,2.87139c-0.38819,0.67757 -0.83228,1.02194 -1.23974,0.87082c-0.40788,-0.15043 -0.7027,-0.76766 -0.85003,-1.64322c-0.14713,-0.87515 -0.14672,-2.00836 0.03716,-3.1918c0.18347,-1.18331 0.51517,-2.19437 0.90343,-2.87187c0.38771,-0.67737 0.83179,-1.02124 1.23974,-0.87088z" fill="#ffffff" stroke-width="0.01896"/></g><path d="M114.18456,150.68008z" fill="#2095ad" stroke-width="0"/><g data-paper-data="{&quot;index&quot;:null}" stroke-width="0.17188"><path d="M254.7282,171.35781c-4.59399,-8.91445 -7.75892,-23.80985 -8.17425,-29.83133c-0.41533,-6.02149 1.2362,-16.95796 3.88559,-15.88941c2.65013,1.068 7.80903,15.56334 12.39054,25.26818c2.89465,6.1341 6.49047,13.54329 7.35509,20.0226c0.56672,4.25752 -2.92705,10.75968 -6.06551,12.23736c-2.42652,1.15002 -7.87213,-8.86036 -9.39141,-11.80744z" data-paper-data="{&quot;index&quot;:null}" fill="#09649e"/><path d="M264.19931,183.04788c0.0664,0.02357 5.12533,-0.64238 6.58517,-1.21935c2.4569,-0.96967 0.49525,-1.48009 3.75131,-1.64345c2.41469,-0.12096 0.55141,4.96006 3.55252,11.14924c0.70048,1.44469 5.16147,10.48002 4.88688,11.25578c0.21664,2.1294 2.68736,6.08779 0.43953,7.34631c-2.24789,1.25855 -2.90474,-5.04536 -2.90474,-5.04536c0,0 3.43141,7.75054 0.83734,8.28125c-2.49231,0.13025 -3.01321,-7.6238 -3.38124,-8.25734c-0.83308,-1.43426 0.30327,8.14378 -1.74067,7.20627c-2.35609,-1.08077 -0.83667,-12.67686 -7.86916,-15.86801c-4.67242,-3.18527 2.47849,8.75392 -0.67386,10.46753c-3.99383,-3.32659 -6.09565,-7.24985 -7.38463,-16.93885c0.06465,-1.95679 -1.34595,-3.68377 -0.9334,-4.93641c0.41389,-1.1305 1.9161,-2.8668 4.83472,-1.79754z" fill="#ebd9bb"/><path d="M254.37203,176.43314c0.56694,-2.03729 11.30752,-3.42702 11.30752,-3.42702c2.07917,-0.17104 6.18191,-3.28119 5.19977,-1.61946c-0.19655,0.33273 -0.33907,-1.68058 0.93871,-0.90738c0.83917,0.50921 2.10255,3.90332 2.86308,4.83007c1.75684,2.14032 2.30651,5.81177 3.33857,8.29127c0.97079,2.33395 -1.14494,3.56167 -1.76638,4.61425c-0.8969,1.52276 -2.8465,1.82575 -6.16036,0.82488c-4.03031,-1.21749 -7.39249,-1.12648 -7.61689,-1.09306c0,0 -2.76366,0.46662 -2.92914,1.67405c0.4675,-3.90803 -6.01829,-9.28726 -5.17488,-13.18761z" fill="#ecc51e"/></g><path d="M212.81708,97.60627l0.76426,-1.66196l9.30699,4.27989l-0.76426,1.66196z" fill="#000000" stroke-width="0"/><path d="M248.35746,105.33965l-0.1761,-1.82523l11.51991,-0.73938l0.1761,1.82524z" data-paper-data="{&quot;index&quot;:null}" fill="#000000" stroke-width="0"/></g></g></svg>