<svg version="1.1" xmlns="http://www.w3.org/2000/svg" xmlns:xlink="http://www.w3.org/1999/xlink" width="24.95385" height="38.52484" viewBox="0,0,24.95385,38.52484"><defs><radialGradient cx="239.37983" cy="196.41271" r="8.2001" gradientUnits="userSpaceOnUse" id="color-1"><stop offset="0" stop-color="#d6feff" stop-opacity="0"/><stop offset="1" stop-color="#d6feff" stop-opacity="0.2"/></radialGradient></defs><g transform="translate(-230.58518,-163.26058)"><g data-paper-data="{&quot;isPaintingLayer&quot;:true}" fill-rule="nonzero" stroke-linejoin="miter" stroke-miterlimit="10" stroke-dasharray="" stroke-dashoffset="0" style="mix-blend-mode: normal"><g data-paper-data="{&quot;index&quot;:null}"><g><g><path d="M241.9565,186.57687c-0.07442,-0.54281 0.36659,-1.15584 0.64838,-1.94436c0.21023,-0.58829 0.9121,-0.8988 1.39031,-0.96436c1.02104,-0.14 2.10583,0.00435 2.24581,1.02538c0.0462,0.33692 0.20253,1.02464 0.35675,1.67497c0.15214,0.64153 0.1337,1.11795 -0.20487,1.19605c-0.43502,0.10035 -0.5469,-0.21312 -0.5469,-0.21312c0,0 -0.13315,0.38426 -0.34245,0.42696c-0.20928,0.04268 -0.59479,-0.23634 -0.59479,-0.23634c0,0 -0.18903,0.32456 -0.44208,0.37922c-0.25306,0.05465 -0.47007,-0.18069 -0.47007,-0.18069c0,0 -0.11798,0.33889 -0.44016,0.38733c-0.3222,0.04842 -0.45116,-0.32075 -0.45116,-0.32075c0,0 0.03006,0.29345 -0.17727,0.33479c-0.20733,0.04134 -0.04905,0.00694 -0.17131,-0.03212c-0.10073,-0.03218 -0.76102,-1.24726 -0.80018,-1.53294z" fill="#fdfdfd" stroke="none" stroke-width="0" stroke-linecap="butt"/><path d="M243.06327,187.95602c0,0 0.15222,-0.4438 0.12291,-0.82578c-0.02932,-0.38198 -0.26691,-0.80431 -0.16471,-0.96004c0.21603,-0.3292 0.86569,-0.42586 0.86569,-0.42586" fill="none" stroke="#a4a4a4" stroke-width="0.125" stroke-linecap="round"/></g><path d="M244.30357,183.96807c-0.36774,0.02269 -1.61272,0.14188 -1.66151,-0.15057c-0.02398,-0.28411 0.26378,-0.59589 0.26378,-0.59589c0,0 -0.42083,-0.12955 -0.40257,-0.40453c0.02367,-0.35677 0.95798,-0.63755 1.47238,-0.6995c0.51442,-0.06194 1.11843,0.01691 1.32249,0.24331c0.51439,0.57072 0.05359,0.6438 0.05359,0.6438c0,0 0.48691,-0.04406 0.45817,0.60974c-0.01416,0.32214 -1.09302,0.32817 -1.50632,0.35366z" fill="#fdfdfd" stroke="none" stroke-width="0" stroke-linecap="butt"/></g><path d="M239.97152,178.927c0.09724,-0.5546 -0.15811,-0.50105 0.36462,-0.58894c0.52273,-0.08788 3.0942,0.03291 3.0942,0.03291l0.91718,3.87006l-1.01464,0.12853l-0.76829,-2.98744l-1.99018,0.02097c0,0 -0.70012,0.07851 -0.60288,-0.47609z" data-paper-data="{&quot;index&quot;:null}" fill="#fec267" stroke="none" stroke-width="0" stroke-linecap="butt"/></g><path d="M233.20246,200.78541c0,0 -1.17399,-1.63529 -1.61728,-2.03933c-0.44329,-0.40404 0.88646,-1.57974 1.50252,-2.21706c1.6437,-1.70042 7.39299,-2.69954 10.38717,-3.28845c2.21649,-0.43595 2.82848,0.03066 3.11327,0.00727c0.8333,-0.06846 1.95385,2.19384 1.65504,2.69766c-0.05092,0.08585 -2.48434,2.05857 -3.82684,2.64272c-2.15025,0.9356 -4.44088,2.52648 -5.68015,2.61172c-1.93224,0.13291 -5.53371,-0.41453 -5.53371,-0.41453z" data-paper-data="{&quot;index&quot;:null}" fill="url(#color-1)" stroke-opacity="0.25098" stroke="#313040" stroke-width="2" stroke-linecap="butt"/><path d="M242.86098,177.99504c0,0 1.83965,0.06384 2.62783,2.71947c0.41993,1.41484 0.21677,5.01862 0.21677,5.01862c0,0 -1.19994,-2.23376 -2.18405,-3.56074c-0.98412,-1.32698 -2.74179,-2.16546 -2.08292,-2.19285c0.65887,-0.0274 1.42237,-1.98449 1.42237,-1.98449z" data-paper-data="{&quot;index&quot;:null}" fill="#02124a" stroke="none" stroke-width="0" stroke-linecap="butt"/><path d="M243.97753,191.40881l-2.6965,-7.92671l1.5037,-0.44567c0,0 0.10198,1.49232 0.58401,3.06376c0.48201,1.57144 1.55087,3.89622 1.55087,3.89622z" data-paper-data="{&quot;index&quot;:null}" fill="#033397" stroke="none" stroke-width="0" stroke-linecap="butt"/><g data-paper-data="{&quot;index&quot;:null}" stroke="none" stroke-width="0" stroke-linecap="butt"><path d="M236.96332,196.8047c0,0 -0.45534,-2.81891 3.72252,-3.92817c4.8336,-1.82211 5.54375,-1.32394 5.86859,-0.82513c0.82328,1.26417 0.96295,2.71796 0.96295,2.71796c0,0 -0.73192,0.52999 -1.2742,0.87276c-0.22928,0.14491 -1.13911,0.53956 -1.13911,0.53956l-0.10753,-0.39126l-1.32321,0.37644l0.05496,0.55691c0,0 -1.58678,0.47161 -2.2775,0.60291c-3.17414,0.60344 -4.48749,-0.52199 -4.48749,-0.52199z" fill="#e90023"/><path d="M237.01642,196.8019l0.32916,-1.20248l1.74659,0.38364l0.645,0.96169l-1.03158,0.95688l0.08538,-0.75864l-0.7451,-0.1878l-0.98327,0.24032l-0.04623,-0.39359z" fill="#948a92"/><path d="M243.65482,196.22537c0,0 -0.21872,-1.17299 -0.16577,-2.28137c0.05618,-1.17592 0.50822,-2.1495 0.50822,-2.1495l1.4232,-0.02145l0.11505,1.23631c0,0 -0.37822,0.89705 -0.47613,1.51525c-0.09792,0.61819 -0.05348,1.20917 -0.05348,1.20917z" fill="#deca55"/><path d="M237.09406,197.25515l-0.29523,-0.29539l0.24395,-1.3287l0.88023,-1.39687l2.10384,0.82739l0.70026,1.76274l2.90987,-1.36144l0.12724,1.28693l-3.33256,1.30826l-1.83338,-0.16236l0.19026,-1.30735l-1.373,-0.64169z" fill="#edeeee"/><g><path d="M237.34241,196.67112c0.17994,-0.29477 0.60781,-0.4034 0.99305,-0.20529c0.38524,0.19813 0.46075,0.59768 0.28081,0.89246c-0.17994,0.29477 -0.49562,0.34232 -0.93245,0.2053c-0.30686,-0.09625 -0.52135,-0.59769 -0.34141,-0.89247z" fill="#ece09c"/><path d="M237.57375,197.58213c-0.25681,-0.13209 -0.36778,-0.51968 -0.24781,-0.71619c0.11996,-0.1965 0.48599,-0.27905 0.74282,-0.14696c0.22651,0.10179 0.59229,0.40972 0.45993,0.68589c-0.12617,0.26326 -0.63752,0.36995 -0.95495,0.17726z" fill="#000000"/></g><path d="M243.5001,194.62867c0,0 -0.03494,-0.32519 -0.02531,-0.51055c0.01151,-0.22164 0.08976,-0.73001 0.08976,-0.73001l0.51487,2.69101l-0.34611,0.1418c0,0 -0.12757,-0.51719 -0.16603,-0.77978c-0.03926,-0.26805 -0.06716,-0.81247 -0.06716,-0.81247z" fill="#6a2625"/><path d="M247.25747,193.68765l0.13297,0.61075c0,0 -0.94701,0.66912 -1.04705,0.20962c-0.10005,-0.4595 0.91408,-0.82038 0.91408,-0.82038z" fill="#eac763"/><path d="M242.52355,192.12671c-0.01497,-0.4895 0.35116,-0.98715 0.35116,-0.98715c0,0 -0.50604,-0.27488 -0.47003,-0.74345c0.04672,-0.60792 1.19873,-0.97097 1.82837,-1.01218c0.62963,-0.04123 1.36135,0.16995 1.59854,0.58337c0.59792,1.04214 0.03299,1.10918 0.03299,1.10918c0,0 0.59525,-0.01403 0.52747,1.10187c-0.03341,0.54986 -1.16369,0.62697 -2.00902,0.61569c-0.84533,-0.01127 -1.81472,-0.16038 -1.85947,-0.66733z" fill="#fdfdfd"/></g><path d="M242.30383,183.8328l1.1839,-1.33279c0,0 0.04108,0.95958 0.54654,1.53864c0.60681,0.69517 2.84612,2.34807 2.84612,2.34807c0,0 -2.25878,-0.4285 -3.30198,-1.01066c-1.04322,-0.58216 -1.27457,-1.54325 -1.27457,-1.54325z" data-paper-data="{&quot;index&quot;:null}" fill="#02124a" stroke="none" stroke-width="0" stroke-linecap="butt"/><path d="M238.77569,181.96472c-0.495,-1.52124 -0.43719,-3.27587 0.88664,-3.70662c1.32383,-0.43077 3.12237,-1.83794 3.61736,-0.3167c0.29584,0.9092 -0.09471,2.51283 0.1181,3.52902c0.38158,1.82215 -0.17725,2.32662 -0.96605,2.58328c-1.32382,0.43077 -3.16105,-0.56773 -3.65605,-2.08898z" data-paper-data="{&quot;index&quot;:null}" fill="#033397" stroke="none" stroke-width="0" stroke-linecap="butt"/><path d="M238.54693,181.69037c-0.5114,-1.42875 -0.10077,-1.80762 0.31976,-2.66183c0.21323,-0.43313 1.40565,-0.61086 2.29954,0.13536c0.82496,0.68869 1.15724,4.27145 0.04468,4.49646c-1.23972,0.25071 -2.30183,-0.95821 -2.66398,-1.96998z" data-paper-data="{&quot;index&quot;:null}" fill="#fec267" stroke="none" stroke-width="0" stroke-linecap="butt"/><path d="M240.85293,192.1693l0.5978,-8.56553l1.7217,-0.44888c0,0 -0.52624,1.56425 -0.69835,3.35542c-0.1721,1.79116 -0.06393,4.57775 -0.06393,4.57775z" data-paper-data="{&quot;index&quot;:null}" fill="#033397" stroke="none" stroke-width="0" stroke-linecap="butt"/><g data-paper-data="{&quot;index&quot;:null}" stroke="none" stroke-width="0" stroke-linecap="butt"><path d="M233.53351,197.62983c0,0 -0.32353,-3.002 4.14993,-3.94022c5.20565,-1.65436 5.92774,-1.0887 6.24292,-0.54386c0.79879,1.38082 0.86516,2.92373 0.86516,2.92373c0,0 -0.80243,0.5188 -1.39417,0.85049c-0.2502,0.14022 -1.23294,0.50619 -1.23294,0.50619l-0.09171,-0.41914l-1.41823,0.32367l0.02697,0.59113c0,0 -1.70185,0.40945 -2.43854,0.50956c-3.38537,0.46009 -4.7094,-0.80156 -4.7094,-0.80156z" fill="#e90023"/><path d="M233.58972,197.62983l0.41467,-1.25138l1.82289,0.50255l0.62742,1.05147l-1.14267,0.95285l0.13248,-0.79632l-0.7763,-0.23988l-1.05168,0.1989l-0.02686,-0.41818z" fill="#948a92"/><path d="M240.63165,197.39143c0,0 -0.16551,-1.25082 -0.04776,-2.41824c0.12493,-1.23858 0.65658,-2.24139 0.65658,-2.24139l1.50401,0.05676l0.05251,1.31189c0,0 -0.44942,0.92612 -0.58731,1.57344c-0.13789,0.64731 -0.12394,1.27383 -0.12394,1.27383z" fill="#deca55"/><path d="M233.64642,198.11277l-0.29526,-0.32839l0.33173,-1.38942l1.00741,-1.4259l2.17537,0.99106l0.64109,1.90042l3.1486,-1.27525l0.06256,1.36602l-3.59198,1.19552l-1.92688,-0.27373l0.27384,-1.36987l-1.414,-0.75419z" fill="#edeeee"/><g><path d="M233.94124,197.50993c0.20645,-0.30122 0.66432,-0.39205 1.06006,-0.16137c0.39574,0.23071 0.45317,0.65681 0.24672,0.95805c-0.20645,0.30121 -0.54245,0.33381 -0.99606,0.16476c-0.31866,-0.11876 -0.51716,-0.6602 -0.31071,-0.96144z" fill="#ece09c"/><path d="M234.1347,198.4848c-0.26382,-0.15381 -0.35936,-0.56927 -0.22171,-0.77008c0.13764,-0.2008 0.52875,-0.26754 0.79257,-0.11374c0.2335,0.12012 0.60256,0.46568 0.44739,0.74992c-0.14792,0.27095 -0.69383,0.35509 -1.01826,0.1339z" fill="#000000"/></g><path d="M240.55735,195.69678c0,0 -0.01876,-0.34533 0.00176,-0.54052c0.02452,-0.23339 0.13551,-0.76585 0.13551,-0.76585l0.39353,2.87027l-0.37338,0.13042c0,0 -0.10585,-0.55323 -0.13181,-0.83266c-0.02651,-0.28524 -0.02559,-0.86167 -0.02559,-0.86167z" fill="#6a2625"/><path d="M244.57742,194.91276l0.10633,0.65233c0,0 -1.03732,0.65372 -1.11732,0.16292c-0.08001,-0.49078 1.01099,-0.81527 1.01099,-0.81527z" fill="#eac763"/><path d="M239.66576,193.00037c0.0115,-0.51772 0.42588,-1.02277 0.42588,-1.02277c0,0 -0.51901,-0.31849 -0.45485,-0.81127c0.08325,-0.63932 1.31996,-0.9584 1.98712,-0.96679c0.66716,-0.00841 1.42803,0.25541 1.65542,0.70519c0.57323,1.1338 -0.02704,1.17308 -0.02704,1.17308c0,0 0.62933,0.0184 0.4955,1.19294c-0.06596,0.57875 -1.26375,0.59712 -2.15575,0.53804c-0.892,-0.05905 -1.90729,-0.2706 -1.92626,-0.80841z" fill="#fdfdfd"/></g><path d="M242.59777,178.7034c0.22034,0.48211 0.77006,2.99703 0.77006,2.99703l-3.50017,1.88874l-0.38707,-0.94666l2.68629,-1.51621l-0.53598,-1.91677c0,0 -0.25726,-0.65584 0.30359,-0.70565c0.56084,-0.0498 0.44295,-0.28255 0.66329,0.19954z" data-paper-data="{&quot;index&quot;:null}" fill="#fec267" stroke="none" stroke-width="0" stroke-linecap="butt"/><g data-paper-data="{&quot;index&quot;:null}" fill="#fdfdfd" stroke="none" stroke-width="0" stroke-linecap="butt"><g><path d="M235.19448,182.4318c0.48599,-0.25297 1.21179,-0.04431 2.04912,-0.04469c0.62474,-0.00027 1.15357,0.55592 1.37644,0.9841c0.47584,0.91416 0.70546,1.98415 -0.20871,2.45998c-0.30165,0.15702 -0.89648,0.53593 -1.45682,0.90026c-0.55277,0.35943 -1.00753,0.50258 -1.19514,0.21012c-0.24107,-0.37576 0.01637,-0.58674 0.01637,-0.58674c0,0 -0.40668,0.0041 -0.51739,-0.17854c-0.11073,-0.18267 0.02209,-0.63965 0.02209,-0.63965c0,0 -0.3693,-0.0686 -0.50601,-0.28845c-0.13671,-0.21986 0.01172,-0.50347 0.01172,-0.50347c0,0 -0.35881,0.00311 -0.51298,-0.28393c-0.15416,-0.28704 0.14998,-0.53285 0.14998,-0.53285c0,0 -0.26616,0.12717 -0.37494,-0.05411c-0.10878,-0.18128 -0.02307,-0.04385 -0.02746,-0.17213c-0.00363,-0.10567 0.9179,-1.13678 1.17369,-1.26991z"/></g><path d="M238.44157,183.76264c-0.14526,-0.33858 -0.677,-1.47061 -0.41807,-1.61508c0.25943,-0.11831 0.64994,0.04756 0.64994,0.04756c0,0 -0.01983,-0.43986 0.24522,-0.51534c0.34389,-0.09794 0.92307,0.68711 1.15471,1.15057c0.23165,0.46346 0.36095,1.05873 0.21652,1.32715c-0.36401,0.67662 -0.5881,0.26739 -0.5881,0.26739c0,0 0.20554,0.4436 -0.4197,0.63681c-0.30809,0.09521 -0.67726,-0.91853 -0.84054,-1.29906z"/></g><g data-paper-data="{&quot;index&quot;:null}"><g fill="#033397" stroke-width="0"><path d="M235.73142,173.51128c-0.26428,-2.9232 1.89119,-5.50717 4.8144,-5.77145c2.9232,-0.26428 5.50716,1.8912 5.77144,4.81441c0.26428,2.9232 -1.89119,5.50716 -4.8144,5.77144c-2.9232,0.26428 -5.50716,-1.89119 -5.77144,-4.8144z" stroke="none" stroke-linecap="butt"/><path d="M235.57044,172.70812c0,0 -0.04108,-7.17759 8.57766,-9.14512c5.92304,-1.37959 10.08019,2.40825 10.08019,2.40825c0,0 -1.5717,0.01706 -2.85766,0.5053c-1.05879,0.40199 -2.20106,1.44984 -2.20106,1.44984c0,0 2.78788,0.92474 4.55277,3.85109c2.0485,3.3966 1.80799,6.46632 1.80799,6.46632c0,0 -1.8972,-1.89123 -3.34681,-2.70793c-0.8717,-0.49111 -2.66301,-0.80857 -2.66301,-0.80857c0,0 1.29369,1.80432 1.59117,4.08534c0.3511,2.69204 -0.51327,4.28112 -0.51327,4.28112c0,0 -1.51317,-2.96188 -3.21985,-4.24743c-1.70668,-1.28553 -3.89384,-1.1109 -3.89384,-1.1109" stroke="#000000" stroke-linecap="round"/></g><path d="M240.89786,167.79423c0,0 1.51564,-1.4909 2.62634,-2.30675c1.11072,-0.81585 1.26871,-0.86222 1.54079,-0.72576c0.26474,0.13278 0.31009,1.36253 0.38206,2.26599c0.07197,0.90346 -0.04557,1.95787 -0.04557,1.95787" fill="#033397" stroke="#000000" stroke-width="0.125" stroke-linecap="round"/><path d="M235.85107,171.89157c0,0 -0.98562,-1.47569 -1.31822,-2.23166c-0.29063,-0.66056 -0.85886,-1.98794 -0.56852,-2.05666c0.24229,-0.05735 1.23772,0.28316 1.77144,0.35077c0.58153,0.07368 1.58662,0.07467 1.58662,0.07467" fill="#033397" stroke="#000000" stroke-width="0" stroke-linecap="round"/><path d="M235.75106,171.76739c0,0 0.45844,1.31494 0.83415,2.12128c0.37571,0.80634 0.38081,0.83377 0.71848,1.3095c0.10756,0.15157 0.2431,-0.02945 0.2431,-0.02945c0,0 0.45011,0.50696 0.66664,0.23552c0.75775,-0.48885 0.81287,-2.42445 1.50945,-3.56362c0.70455,-1.15225 1.50726,-1.35225 1.87769,-1.43094c0.31857,-0.06767 1.0471,0.01846 1.52342,0.75071c0.34068,0.62872 0.56786,2.08759 0.20151,2.95917c-0.36635,0.87158 -0.90923,1.86372 -2.11225,2.23455c-1.20301,0.37085 -2.42796,-0.86878 -3.51673,-0.50394c-0.13424,0.04497 -0.81534,0.66336 -0.81534,0.66336c0,0 -0.87643,-1.47032 -1.12568,-2.51716c-0.24927,-1.04685 -0.0044,-2.229 -0.0044,-2.229z" fill="#fdfdfd" stroke="#000000" stroke-width="0" stroke-linecap="butt"/><path d="M236.95427,176.6655c-0.01199,-0.24274 0.19978,-0.77155 1.04288,-0.92536c0.6527,-0.12907 1.71033,0.55724 2.68151,0.50884c1.4592,-0.07273 1.76934,-1.90823 3.45643,-1.58668c1.35678,0.23683 0.97505,3.22238 -2.87753,3.67108c-0.92227,0.05906 -2.22259,-0.20528 -2.99103,-0.53632c-0.93572,-0.40309 -1.29283,-0.73859 -1.31226,-1.13158z" fill="#fec267" stroke="#000000" stroke-width="0" stroke-linecap="butt"/><path d="M235.50082,172.97436c0,0 -0.62214,-1.96918 -0.5183,-2.3006c0.15855,-0.5061 0.9651,-0.01789 0.9651,-0.01789" fill="#033397" stroke="#000000" stroke-width="0.125" stroke-linecap="round"/><path d="M235.59693,175.74568c0.03517,-0.14036 0.6632,0.09393 1.13836,0.20598c0.47515,0.11205 1.13117,0.12649 1.15221,0.35918c0.03489,0.38586 -0.70792,0.4304 -1.24307,0.34405c-0.84744,-0.13675 -1.1628,-0.44899 -1.04749,-0.90919z" fill="#0d1114" stroke="none" stroke-width="0" stroke-linecap="butt"/><path d="M236.60718,175.91333c0.2328,0.02199 0.41559,0.10272 0.40826,0.18033c-0.00733,0.0776 -0.20201,0.1227 -0.4348,0.1007c-0.2328,-0.02199 -0.41559,-0.10272 -0.40826,-0.18033c0.00733,-0.0776 0.20201,-0.1227 0.4348,-0.1007z" fill="#fdfdfd" stroke="none" stroke-width="0" stroke-linecap="butt"/><path d="M241.95915,167.64863c0,0 1.87729,-1.86132 2.58201,-1.74503c0.49114,0.08105 0.18587,3.10087 0.18587,3.10087c0,0 -0.12696,-0.42218 -1.22412,-0.85929c-1.00304,-0.3996 -1.54375,-0.49655 -1.54375,-0.49655z" fill="#fec267" stroke="none" stroke-width="0" stroke-linecap="butt"/><g stroke="none" stroke-width="0" stroke-linecap="butt"><path d="M239.76142,172.55647c0.30451,-0.07616 0.56238,0.50345 0.74941,1.25124c0.18704,0.74777 0.23242,1.38053 -0.0721,1.45671c-0.27408,0.06854 -0.56238,-0.50344 -0.74941,-1.25123c-0.18704,-0.74777 -0.202,-1.38815 0.0721,-1.45671z" fill="#005c2d"/><path d="M239.95172,173.31712c0.10922,-0.02732 0.2591,0.19573 0.33475,0.49821c0.07565,0.30248 0.04843,0.56982 -0.06079,0.59714c-0.10922,0.02732 -0.2591,-0.19573 -0.33475,-0.4982c-0.07565,-0.30248 -0.04843,-0.56983 0.06079,-0.59714z" fill="#000000"/><path d="M239.89842,173.10415c0.10922,-0.02731 0.23356,0.09357 0.27769,0.27002c0.04412,0.17642 -0.00865,0.34161 -0.11787,0.36895c-0.10922,0.02731 -0.23356,-0.09357 -0.27768,-0.27002c-0.04412,-0.17642 0.00864,-0.34161 0.11787,-0.36895z" fill="#ffffff"/></g><g stroke="none" stroke-width="0" stroke-linecap="butt"><path d="M236.10626,173.86015c0.1976,-0.08194 0.42965,0.28285 0.63085,0.76807c0.2012,0.48523 0.29536,0.90717 0.09777,0.9891c-0.17784,0.07374 -0.42965,-0.28285 -0.63085,-0.76807c-0.2012,-0.48523 -0.27562,-0.91537 -0.09777,-0.9891z" fill="#005c2d"/><path d="M236.31093,174.35374c0.07088,-0.02939 0.19431,0.1059 0.2757,0.30218c0.08138,0.19627 0.08991,0.37921 0.01903,0.40859c-0.07088,0.02939 -0.19431,-0.1059 -0.2757,-0.30218c-0.08138,-0.19627 -0.08991,-0.37921 -0.01903,-0.40859z" fill="#000000"/><path d="M236.25365,174.21554c0.07088,-0.02939 0.16681,0.0396 0.2143,0.1541c0.04748,0.11449 0.02851,0.23114 -0.04237,0.26053c-0.07088,0.02939 -0.16681,-0.0396 -0.2143,-0.15409c-0.04748,-0.11449 -0.02851,-0.23114 0.04237,-0.26053z" fill="#ffffff"/></g><path d="M242.76617,177.13486c-0.5027,0.16889 -1.50873,0.23576 -1.50873,0.23576c0,0 0.8373,-0.18987 1.28187,-0.33923c0.44457,-0.14936 0.9635,-0.66599 0.9635,-0.66599c0,0 -0.23395,0.60058 -0.73664,0.76946z" fill="#000000" stroke="#000000" stroke-width="0" stroke-linecap="butt"/><path d="M236.97805,172.84132c0.18569,-0.01678 0.55592,1.27517 0.6088,1.86007c0.05288,0.5849 -0.25852,0.51485 -0.25852,0.51485c0,0 -0.29592,-0.41055 -0.44484,-0.68188c-0.14891,-0.27131 -0.32618,-0.72286 -0.32618,-0.72286c0,0 0.23504,-0.95338 0.42072,-0.97017z" fill="#033397" stroke="none" stroke-width="0" stroke-linecap="butt"/></g></g></g></svg>