<svg version="1.1" xmlns="http://www.w3.org/2000/svg" xmlns:xlink="http://www.w3.org/1999/xlink" width="173.26138" height="29.87186" viewBox="0,0,173.26138,29.87186"><g transform="translate(-159.23866,-163.47445)"><g data-paper-data="{&quot;isPaintingLayer&quot;:true}" fill-rule="nonzero" stroke="none" stroke-linejoin="miter" stroke-dasharray="" stroke-dashoffset="0" style="mix-blend-mode: normal"><path d="M307.30001,191.65295v-14.82353h5.18823v14.82353z" fill="#ff0000" stroke-width="0" stroke-linecap="butt" stroke-miterlimit="10"/><path d="M317.18237,191.65295v-24.70588h5.18823v24.70588z" fill="#ff0000" stroke-width="0" stroke-linecap="butt" stroke-miterlimit="10"/><path d="M327.31181,191.65295v-9.88235h5.18823v9.88235z" fill="#ff0000" stroke-width="0" stroke-linecap="butt" stroke-miterlimit="10"/><path d="M161.51081,192.772c-0.94673,-0.19142 -1.7041,-0.38286 -2.27215,-0.57428l1.13609,-5.74301l3.40822,0.28715c2.65087,0.19142 4.73367,0.19142 6.24844,0c0.7574,-0.38289 1.13609,-0.95717 1.13609,-1.72292c-0.18933,-0.76575 -1.89347,-1.1486 -5.11236,-1.1486c-2.8402,-0.38286 -4.82832,-1.43575 -5.96439,-3.15867c-0.56805,-1.34003 -0.85206,-2.8715 -0.85206,-4.59442c0,-2.68007 0.94674,-4.69012 2.8402,-6.03016c1.32542,-0.95717 3.69224,-1.43575 7.10046,-1.43575c3.40822,0 6.81646,0.28715 10.22468,0.86146l-1.13608,5.45584c-3.97626,-0.19142 -6.72179,-0.28715 -8.23655,-0.28715c-1.32542,0.19142 -1.98814,0.67 -1.98814,1.43575c-0.18933,1.34003 0.85206,2.01006 3.12421,2.01006c3.21889,0 5.58572,0.57431 7.10047,1.72292c1.13609,0.95717 1.70413,2.58435 1.70413,4.88155c0,1.99092 -0.47339,3.71384 -1.42012,5.16873c-0.94673,1.7229 -3.31356,2.77578 -7.10047,3.15864c-3.21888,0.19142 -6.53245,0.09585 -9.94067,-0.28715z" fill="#ff0000" stroke-width="0.26458" stroke-linecap="butt" stroke-miterlimit="4"/><path d="M182.81228,180.99882c0,-3.82867 1.13609,-6.84377 3.40822,-9.04526c2.27215,-2.2015 5.39637,-3.30222 9.37263,-3.30222c3.40822,0 5.77508,0.09585 7.10049,0.28715l-2.5562,8.04022l-0.56802,-0.57428c-1.13609,-0.76575 -2.5562,-0.86146 -4.26029,-0.28718c-1.89344,1.1486 -3.31356,2.39295 -4.26029,3.73298c-0.94673,1.1486 -1.13607,2.58435 -0.56802,4.30727l0.56802,0.57428c0.94673,1.34003 2.5562,1.72292 4.82835,1.1486c1.89344,-1.1486 3.31352,-2.39292 4.26026,-3.73296l3.40822,10.05028c-1.32542,0.76575 -3.97626,1.1486 -7.95253,1.1486c-3.97626,0 -7.10047,-1.24432 -9.37263,-3.73298c-2.27215,-2.48864 -3.40822,-5.36013 -3.40822,-8.61451z" fill="#ff0000" stroke-width="0.26458" stroke-linecap="butt" stroke-miterlimit="4"/><path d="M206.38587,180.99882c0,-3.82867 1.13609,-6.84377 3.40822,-9.04526c2.27215,-2.2015 5.39637,-3.30222 9.37265,-3.30222c3.97626,0 7.10047,1.10074 9.37263,3.30222c2.27215,2.2015 3.40822,5.21659 3.40822,9.04526c0,3.25438 -1.13609,6.12588 -3.40822,8.61451c-2.27215,2.48866 -5.39637,3.73298 -9.37263,3.73298c-3.97628,0 -7.10049,-1.24432 -9.37265,-3.73298c-2.27215,-2.48864 -3.40822,-5.36013 -3.40822,-8.61451zM218.8827,176.11724c-1.89344,1.1486 -3.31356,2.39295 -4.26029,3.73298c-0.94673,1.1486 -1.13609,2.58435 -0.56803,4.30727l0.56803,0.57428c0.94673,1.34003 2.5562,1.72292 4.82834,1.1486c1.89344,-1.1486 3.31356,-2.39292 4.26029,-3.73296c1.13609,-1.53146 1.13609,-3.25438 0,-5.16873l-0.56805,-0.57428c-1.13609,-0.76575 -2.55616,-0.86146 -4.26029,-0.28718z" fill="#ff0000" stroke-width="0.26458" stroke-linecap="butt" stroke-miterlimit="4"/><path d="M234.78778,192.772v-24.12066h13.91696c5.68037,0 8.52056,2.10577 8.52056,6.3173v1.1486c0,3.06295 -1.23075,5.07302 -3.69225,6.03019c0.7574,0.38286 1.51475,1.24432 2.27215,2.58435l2.27215,8.04022h-8.52059l-1.7041,-6.60448c-0.37871,-1.7229 -1.42012,-2.58435 -3.12421,-2.58435h-1.7041v9.18882zM246.43258,178.41445c1.51475,0 2.27215,-0.76576 2.27215,-2.29721v-1.1486c0,-1.1486 -0.7574,-1.7229 -2.27215,-1.7229h-3.40822v5.1687z" fill="#ff0000" stroke-width="0.26458" stroke-linecap="butt" stroke-miterlimit="4"/><path d="M260.91756,192.772v-24.12066h19.88136v6.89162h-11.36077v1.7229h11.36077v6.89164h-11.36077v1.7229h11.36077v6.89161z" fill="#ff0000" stroke-width="0.26458" stroke-linecap="butt" stroke-miterlimit="4"/><path d="M285.91121,192.772c-0.94673,-0.19142 -1.7041,-0.38286 -2.27215,-0.57428l1.13607,-5.74301l3.40822,0.28715c2.65087,0.19142 4.73367,0.19142 6.24844,0c0.75739,-0.38289 1.13608,-0.95717 1.13608,-1.72292c-0.18934,-0.76575 -1.89344,-1.1486 -5.11232,-1.1486c-2.84021,-0.38286 -4.82834,-1.43575 -5.96441,-3.15867c-0.56805,-1.34003 -0.85206,-2.8715 -0.85206,-4.59442c0,-2.68007 0.94673,-4.69012 2.8402,-6.03016c1.32542,-0.95717 3.69224,-1.43575 7.10046,-1.43575c3.40822,0 6.81647,0.28715 10.22469,0.86146l-1.13608,5.45584c-3.97626,-0.19142 -6.72179,-0.28715 -8.23655,-0.28715c-1.32542,0.19142 -1.98813,0.67 -1.98813,1.43575c-0.18934,1.34003 0.85206,2.01006 3.12421,2.01006c3.21889,0 5.58571,0.57431 7.10046,1.72292c1.13609,0.95717 1.70413,2.58435 1.70413,4.88155c0,1.99092 -0.47336,3.71384 -1.42009,5.16873c-0.94673,1.7229 -3.31358,2.77578 -7.1005,3.15864c-3.21888,0.19142 -6.53244,0.09585 -9.94066,-0.28715z" fill="#ff0000" stroke-width="0.26458" stroke-linecap="butt" stroke-miterlimit="4"/><path d="M166.03061,192.82161c-0.87448,-0.17489 -1.57405,-0.34978 -2.09875,-0.52468l1.04938,-5.24689l3.14813,0.26234c2.44857,0.17489 4.37243,0.17489 5.77159,0c0.69959,-0.34981 1.04938,-0.87448 1.04938,-1.57408c-0.17489,-0.69959 -1.74898,-1.04938 -4.72222,-1.04938c-2.62346,-0.34978 -4.45985,-1.31171 -5.50923,-2.8858c-0.5247,-1.22427 -0.78704,-2.62343 -0.78704,-4.19751c0,-2.44854 0.87449,-4.28496 2.62346,-5.50923c1.22427,-0.87448 3.41047,-1.31172 6.55861,-1.31172c3.14813,0 6.29627,0.26234 9.44441,0.78704l-1.04938,4.98453c-3.67281,-0.17489 -6.20882,-0.26234 -7.60798,-0.26234c-1.22427,0.17489 -1.83642,0.61212 -1.83642,1.31172c-0.17489,1.22427 0.78705,1.83642 2.8858,1.83642c2.97324,0 5.15944,0.5247 6.5586,1.57408c1.04938,0.87448 1.57408,2.36109 1.57408,4.45985c0,1.81893 -0.43726,3.39301 -1.31174,4.72222c-0.87448,1.57405 -3.06069,2.53599 -6.55861,2.88577c-2.97324,0.17489 -6.03393,0.08757 -9.18206,-0.26234z" fill="#71ff33" stroke-width="0.26458" stroke-linecap="butt" stroke-miterlimit="4"/><path d="M185.70648,182.06549c0,-3.49792 1.04938,-6.25256 3.14814,-8.26387c2.09875,-2.01131 4.98455,-3.01695 8.65736,-3.01695c3.14814,0 5.33436,0.08758 6.55863,0.26234l-2.36112,7.34564l-0.52468,-0.52468c-1.04938,-0.69959 -2.36112,-0.78704 -3.93518,-0.26236c-1.74894,1.04938 -3.06069,2.18623 -3.93518,3.4105c-0.87448,1.04938 -1.04937,2.3611 -0.52468,3.93518l0.52468,0.52467c0.87448,1.22427 2.36113,1.57408 4.45988,1.04938c1.74894,-1.04938 3.06066,-2.18621 3.93515,-3.41047l3.14813,9.18206c-1.22427,0.69959 -3.67281,1.04938 -7.34564,1.04938c-3.67281,0 -6.55861,-1.13682 -8.65736,-3.4105c-2.09875,-2.27365 -3.14814,-4.89709 -3.14814,-7.87033z" fill="#71ff33" stroke-width="0.26458" stroke-linecap="butt" stroke-miterlimit="4"/><path d="M207.48108,182.06549c0,-3.49792 1.04938,-6.25256 3.14813,-8.26387c2.09875,-2.01131 4.98455,-3.01695 8.65739,-3.01695c3.67281,0 6.55861,1.00564 8.65736,3.01695c2.09875,2.01131 3.14814,4.76595 3.14814,8.26387c0,2.97324 -1.04938,5.59668 -3.14814,7.87033c-2.09875,2.27367 -4.98455,3.4105 -8.65736,3.4105c-3.67284,0 -6.55863,-1.13682 -8.65739,-3.4105c-2.09875,-2.27365 -3.14813,-4.89709 -3.14813,-7.87033zM219.02424,177.60562c-1.74894,1.04938 -3.06069,2.18623 -3.93517,3.4105c-0.87448,1.04938 -1.04938,2.3611 -0.52468,3.93518l0.52468,0.52467c0.87448,1.22427 2.36112,1.57408 4.45988,1.04938c1.74894,-1.04938 3.06069,-2.18621 3.93518,-3.41047c1.04938,-1.39916 1.04938,-2.97325 0,-4.72222l-0.52471,-0.52468c-1.04938,-0.69959 -2.36109,-0.78704 -3.93517,-0.26236z" fill="#71ff33" stroke-width="0.26458" stroke-linecap="butt" stroke-miterlimit="4"/><path d="M233.71552,192.82161v-22.03694h12.8549c5.24689,0 7.87033,1.92387 7.87033,5.77157v1.04938c0,2.79835 -1.13683,4.63477 -3.41048,5.50925c0.69959,0.34978 1.39916,1.13682 2.09875,2.36109l2.09876,7.34565h-7.87035l-1.57405,-6.03393c-0.34981,-1.57405 -1.31174,-2.3611 -2.88579,-2.3611h-1.57405v8.39503zM244.47168,179.70438c1.39916,0 2.09875,-0.6996 2.09875,-2.09876v-1.04938c0,-1.04938 -0.69959,-1.57405 -2.09875,-1.57405h-3.14813v4.72219z" fill="#71ff33" stroke-width="0.26458" stroke-linecap="butt" stroke-miterlimit="4"/><path d="M257.85125,192.82161v-22.03694h18.36413v6.29627h-10.49378v1.57405h10.49378v6.2963h-10.49378v1.57405h10.49378v6.29627z" fill="#71ff33" stroke-width="0.26458" stroke-linecap="butt" stroke-miterlimit="4"/><path d="M280.93755,192.82161c-0.87448,-0.17489 -1.57405,-0.34978 -2.09875,-0.52468l1.04937,-5.24689l3.14814,0.26234c2.44856,0.17489 4.37243,0.17489 5.77159,0c0.69959,-0.34981 1.04938,-0.87448 1.04938,-1.57408c-0.17489,-0.69959 -1.74895,-1.04938 -4.72219,-1.04938c-2.62346,-0.34978 -4.45987,-1.31171 -5.50925,-2.8858c-0.5247,-1.22427 -0.78704,-2.62343 -0.78704,-4.19751c0,-2.44854 0.87448,-4.28496 2.62345,-5.50923c1.22427,-0.87448 3.41047,-1.31172 6.55861,-1.31172c3.14814,0 6.29627,0.26234 9.44441,0.78704l-1.04938,4.98453c-3.67281,-0.17489 -6.20882,-0.26234 -7.60798,-0.26234c-1.22427,0.17489 -1.83642,0.61212 -1.83642,1.31172c-0.17489,1.22427 0.78704,1.83642 2.8858,1.83642c2.97324,0 5.15945,0.5247 6.55861,1.57408c1.04938,0.87448 1.57408,2.36109 1.57408,4.45985c0,1.81893 -0.43723,3.39301 -1.31171,4.72222c-0.87448,1.57405 -3.06071,2.53599 -6.55863,2.88577c-2.97324,0.17489 -6.03393,0.08757 -9.18207,-0.26234z" fill="#71ff33" stroke-width="0.26458" stroke-linecap="butt" stroke-miterlimit="4"/><path d="M309.70003,191.90001v-12h4.2v12z" fill="#71ff33" stroke-width="0" stroke-linecap="butt" stroke-miterlimit="10"/><path d="M317.70003,191.90001v-20h4.2v20z" fill="#71ff33" stroke-width="0" stroke-linecap="butt" stroke-miterlimit="10"/><path d="M325.90004,191.90001v-8h4.2v8z" fill="#71ff33" stroke-width="0" stroke-linecap="butt" stroke-miterlimit="10"/><g stroke-miterlimit="10"><path d="M308.35348,178.53425c-0.31115,-0.23296 -0.63581,-0.51855 -0.91049,-1.1307c-0.52443,-1.16873 -0.42066,-1.38226 -0.42066,-1.38226c-0.20427,-0.5735 -1.01125,-1.31454 -1.53021,-2.41391c-0.51896,-1.09937 -0.90846,-2.13977 -0.72114,-2.38218c0.17789,-0.23021 1.70287,-0.16339 2.76403,0.23818c0.87147,0.32978 1.66495,0.82061 1.71453,0.85859c0.14847,0.11373 0.53965,0.00008 0.90601,-0.08023c0.36635,-0.08031 0.78769,-0.07943 0.92402,-0.2106c0.09891,-0.09517 0.39481,-0.85531 0.83674,-1.37138c0.75888,-0.8862 1.86273,-1.67479 2.03536,-1.51865c0.15889,0.14372 0.21715,1.13172 0.11421,1.94326c-0.0556,0.43831 -0.13705,1.2765 -0.17968,1.58789c-0.09033,0.50244 0.17605,0.39168 0.43743,1.27121c0.42919,1.44423 0.74294,2.62798 0.31465,3.7874c-0.35061,0.94826 -2.01996,0.87813 -2.95763,0.86474c-1.26979,-0.0183 -2.22491,0.76384 -3.32716,-0.06136z" data-paper-data="{&quot;index&quot;:null}" fill="#f8b820" stroke-width="1" stroke-linecap="round"/><path d="M313.07768,174.91749c-0.04269,-0.24674 -0.15927,-0.65949 -0.00087,-0.75169c0.16191,-0.0924 0.48634,0.12929 0.63917,0.31787c0.25758,0.31718 0.48013,0.7066 0.59096,1.11258c0.13636,0.63299 0.26857,1.31335 0.13564,1.94149c-0.04328,0.20454 -0.41147,0.27018 -0.56834,0.10449c-0.25626,-0.27176 -0.32419,-0.85647 -0.43678,-1.21253c-0.15641,-0.49289 -0.27313,-1.01338 -0.35977,-1.5122z" data-paper-data="{&quot;index&quot;:null}" fill="#ffffff" stroke-width="1" stroke-linecap="round"/><path d="M310.1541,175.55718c0.08322,-0.35093 0.22611,-0.78282 0.54074,-0.91218c0.2812,-0.11596 0.66089,0.05465 0.88432,0.26654c0.35014,0.38613 0.56106,0.91169 0.71144,1.39781c0.17097,0.5514 0.38976,1.32766 0.25668,1.8751c-0.07728,0.3175 -0.48884,0.34203 -0.7894,0.39786c-0.33808,0.06271 -0.91673,0.29495 -1.16463,0.02007c-0.3493,-0.39587 -0.36322,-1.19495 -0.43732,-1.70874c-0.07409,-0.51378 -0.10243,-0.91258 -0.00184,-1.33646z" data-paper-data="{&quot;index&quot;:null}" fill="#ffffff" stroke-width="1" stroke-linecap="round"/><path d="M313.29607,173.51196l1.678,-0.43053l1.57297,1.02618l-1.48054,-0.45655l-1.7088,0.23632z" data-paper-data="{&quot;index&quot;:null}" fill="#f8b820" stroke-width="1.22222" stroke-linecap="round"/><path d="M306.35375,179.28005c0,0 1.30317,-1.25486 2.45588,-1.21288c0.48599,0.0177 1.79882,0.51277 3.15974,0.39772c1.11417,-0.09419 2.34851,-0.79515 2.44965,-0.84115c0.40956,-0.18628 0.40696,-0.48417 0.84699,-0.57808c0.24941,-0.05323 0.45325,-0.02873 0.45325,-0.02873c0,0 -0.22122,0.22651 -0.34264,0.37252c-0.12142,0.14601 -0.22867,0.36283 -0.22867,0.36283l1.27249,0.01192c0,0 -0.67273,0.47553 -0.83281,0.49017c-0.16008,0.01465 -0.52204,0.52698 -0.63084,0.55705c-0.03106,0.00859 0.38735,0.27873 0.52922,0.44123c0.14186,0.16251 0.28005,0.47656 0.28005,0.47656l-1.21864,-0.25177c0,0 -0.93097,0.49256 -1.32729,0.65142c-0.21834,0.09957 -0.62453,0.24332 -1.0777,0.32959c-0.54555,0.10386 -1.15517,0.14126 -1.53401,0.14087c-0.69351,-0.00072 -0.60674,-0.06275 -1.16873,-0.19253c-0.05746,-0.01327 -0.35766,-0.07569 -0.649,0.16476c-0.29133,0.24046 -0.62812,0.69834 -0.62812,0.69834c0,0 0.38086,-1.09796 0.28446,-1.09454c-0.06277,0.00223 -1.02327,0.10309 -1.32465,0.24139c-0.30136,0.13829 1.11823,-1.31213 1.07706,-1.43335z" data-paper-data="{&quot;index&quot;:null}" fill="#f8b820" stroke-width="1" stroke-linecap="round"/><path d="M311.45599,175.19205c0.0964,-0.02293 0.20581,0.051 0.30561,0.18864c0.09931,0.13849 0.18881,0.33999 0.24428,0.57314c0.05547,0.23315 0.06631,0.45336 0.04,0.62174c-0.02713,0.16783 -0.09153,0.28312 -0.18792,0.30606c-0.09646,0.02295 -0.20585,-0.05099 -0.30566,-0.18862c-0.09926,-0.13851 -0.18881,-0.34 -0.24428,-0.57314c-0.05547,-0.23315 -0.06625,-0.45338 -0.04,-0.62174c0.02713,-0.16783 0.09152,-0.28311 0.18797,-0.30606z" data-paper-data="{&quot;index&quot;:null}" fill="#f8b820" stroke-width="1.0615" stroke-linecap="butt"/><path d="M312.99672,173.19919c0,0 1.047,-1.22236 1.21976,-1.28346c0.24626,-0.08711 1.82214,0.38048 1.82214,0.38048l-1.71042,0.2187l-0.9668,0.98784z" data-paper-data="{&quot;index&quot;:null}" fill="#f8b820" stroke-width="1.22222" stroke-linecap="round"/><path d="M312.3583,173.04718c0,0 0.65413,-1.67813 0.7989,-1.85863c0.23876,-0.29769 2.1551,-1.01557 2.1551,-1.01557c0,0 -1.51014,1.20127 -1.87037,1.64111c-0.36021,0.43984 -0.5636,1.33085 -0.5636,1.33085z" data-paper-data="{&quot;index&quot;:null}" fill="#f8b820" stroke-width="1.22222" stroke-linecap="round"/><path d="M313.81742,174.4063c0.0964,-0.02293 0.2058,0.051 0.30561,0.18863c0.09931,0.13849 0.18881,0.34 0.24428,0.57314c0.05547,0.23315 0.06632,0.45336 0.04001,0.62175c-0.02713,0.16783 -0.09152,0.28312 -0.18792,0.30606c-0.09646,0.02295 -0.20586,-0.05099 -0.30567,-0.18862c-0.09926,-0.13851 -0.18881,-0.34 -0.24428,-0.57314c-0.05547,-0.23315 -0.06626,-0.45338 -0.04001,-0.62175c0.02713,-0.16783 0.09152,-0.28312 0.18798,-0.30607z" data-paper-data="{&quot;index&quot;:null}" fill="#f8b820" stroke-width="1.0615" stroke-linecap="butt"/></g><path d="M320.72695,168.00882c0.73994,-0.03355 1.93609,0.03246 1.89675,1.01929c0.00675,0.74542 -0.10695,1.36558 -0.16748,2.10826c-0.00802,0.30603 -0.19347,0.57329 -0.4189,0.76636c-0.24525,0.20335 -0.57641,0.2463 -0.87298,0.33541c-0.46306,0.12114 -0.94073,0.17789 -1.41872,0.15646c-0.58894,0.00475 -1.33258,-0.07072 -1.84783,-0.41224c-0.35188,-0.1608 -0.2972,-0.15222 -0.66064,-0.29769c-0.72622,-0.40646 -1.23353,-1.13068 -1.48328,-1.91431c-0.15325,-0.46843 0.01661,-1.34067 0.07233,-1.83263c1.91958,-1.01878 2.64674,0.13556 2.91729,-0.03569c0.37275,-0.23322 1.5327,0.3366 1.98347,0.10675z" data-paper-data="{&quot;index&quot;:null}" fill="#54c81c" stroke-width="0.17188" stroke-linecap="butt" stroke-miterlimit="10"/><path d="M315.87366,164.84015c0.43553,0.33775 -0.38459,2.32494 -0.90541,2.25742c-0.47004,-0.29013 -0.82658,-0.85483 -0.93335,-1.29236c-0.00422,-0.01726 -0.10955,-0.1992 -0.05384,-0.34635c0.0736,-0.19439 0.31645,-0.3653 0.34126,-0.38334c0.30588,-0.22365 0.82722,-0.33709 1.55136,-0.23538z" data-paper-data="{&quot;index&quot;:null}" fill="#54c81c" stroke-width="0.17188" stroke-linecap="butt" stroke-miterlimit="10"/><path d="M319.70394,169.14839c-0.5738,0.49674 -1.83385,0.84612 -2.27457,-0.10713c-0.0595,-0.06679 0.02803,0.0988 0.08848,0.28522c0.48602,1.27526 -0.61694,-0.58594 -0.92044,-0.92507c-1.24309,-1.66425 -0.92958,2.5673 0.74708,3.26423c-0.0814,-0.11464 -0.08623,0.8212 -0.32594,0.94186c-0.17107,0.08631 -1.01072,-1.3985 -1.09823,-1.71545l-0.50016,-1.80978c-0.14659,-0.52993 0.11617,-2.02854 0.19299,-2.30086l0.15004,-0.53203c0.27632,-0.629 0.67018,-1.18944 1.19972,-1.67072c0.03372,-0.03067 0.52327,-0.58925 1.39384,-0.88285c0.54977,-0.18544 1.46914,-0.21588 1.54132,-0.21684c0.42324,-0.00562 1.24909,-0.02978 2.00358,0.13568c0.47992,0.10524 0.90742,0.34384 1.25993,0.53026c0.42942,0.98272 -0.37471,3.34698 1.03211,2.95605c0.05964,0.00144 0.53393,0.36326 0.5752,0.39995c0.14538,0.12933 0.07314,0.88268 0.0436,1.03081l-0.15534,0.77961c-0.05009,0.25111 -0.06326,0.39272 -0.22109,0.73834c-0.21636,0.47431 -0.43481,0.94787 -0.7752,1.38084c-0.27504,0.34994 -1.60443,1.33797 -1.57937,1.21225l0.21162,-1.06942l0.18144,-1.51121c-0.13011,-1.90027 -1.17759,-2.65061 -2.77061,-0.91372z" data-paper-data="{&quot;index&quot;:null}" fill="#54c81c" stroke-width="0.17188" stroke-linecap="butt" stroke-miterlimit="10"/><path d="M325.53317,166.95337c-0.81124,0.27722 -1.86458,-1.41979 -1.86458,-1.41979c0,-0.3062 0.74891,-0.93182 1.60182,-0.84552c0.65188,0.06608 1.45212,0.47695 1.42195,0.88724c-0.03779,0.51409 -0.68422,1.21566 -1.15924,1.37807z" data-paper-data="{&quot;index&quot;:null}" fill="#54c81c" stroke-width="0.17188" stroke-linecap="butt" stroke-miterlimit="10"/><path d="M323.98528,164.22092c0.24189,-0.01365 0.45865,0.06349 0.66272,0.12186c0.421,0.12034 0.71682,0.29159 0.56903,0.34858c-0.41138,0.68834 -0.35177,1.1948 0.34071,2.28423c0.10829,0.05604 -0.18104,0.24341 -0.50778,0.37821c-0.28203,0.11649 -0.47823,0.29119 -0.57731,0.32121c-0.5976,0.17183 -1.31378,-0.76224 -1.4282,-1.59494c0.05296,-0.70672 0.24951,-1.43747 0.94083,-1.85915z" data-paper-data="{&quot;index&quot;:null}" fill="#54c81c" stroke-width="0.17188" stroke-linecap="butt" stroke-miterlimit="10"/><path d="M322.4398,166.05149c0.02296,-1.04205 0.44589,-2.22683 1.15894,-1.88741c1.23514,0.35996 0.01359,0.40507 -0.21561,1.02106c-0.14587,0.39202 -0.57627,2.07074 -0.94332,0.86634z" data-paper-data="{&quot;index&quot;:null}" fill="#54c81c" stroke-width="0.17188" stroke-linecap="butt" stroke-miterlimit="10"/><path d="M316.45212,164.58829l0.22278,-0.20922c0.10966,-0.10307 0.51123,-0.20849 0.58942,-0.15839c0.09385,0.12387 -0.16696,0.50942 -0.4917,0.95137c-0.15567,0.21186 -0.60462,0.36685 -0.60462,0.36685c0,0 -0.10757,-0.5826 0.28413,-0.95061z" data-paper-data="{&quot;index&quot;:null}" fill="#54c81c" stroke-width="0.17188" stroke-linecap="butt" stroke-miterlimit="10"/><path d="M316.39658,165.72499c-0.04705,0.11135 -0.55791,2.00032 -0.55791,2.00032c-0.02167,0.07852 -0.99549,-0.61379 -0.95312,-0.85319c-0.1042,-0.27135 -0.01688,-0.50425 0.0179,-0.7475c0.11577,-0.26605 0.33365,-0.62771 0.47928,-0.77415c0.11728,-0.11793 -0.02054,-0.49285 0.08029,-0.64819c0.15166,-0.23395 1.12803,-0.20785 1.12803,-0.20785z" data-paper-data="{&quot;index&quot;:null}" fill="#54c81c" stroke-width="0.17188" stroke-linecap="butt" stroke-miterlimit="10"/><path d="M319.68514,169.14477c0.05386,-0.0949 0.30421,-0.52532 0.70054,-0.48649c0.39633,0.03883 0.93824,0.33145 0.93824,0.64706c0,0.18024 0.00239,0.32321 0.02566,0.47113c0.00723,0.0457 -0.5755,-0.7952 -0.96117,-0.78312c-0.24711,0.00769 -0.77582,0.90227 -0.77582,0.90227c0,0 -0.09465,-0.61042 0.07258,-0.75086z" data-paper-data="{&quot;index&quot;:null}" fill="#ffffff" stroke-width="0.17188" stroke-linecap="butt" stroke-miterlimit="10"/><path d="M316.56084,168.98204c0.0626,-0.0926 0.35257,-0.51234 0.74455,-0.45792c0.39198,0.05442 0.90564,0.3679 0.87626,0.68293c-0.01678,0.17991 -0.02771,0.32271 -0.01826,0.47128c0.00296,0.0459 -0.50039,-0.81647 -0.88648,-0.81965c-0.24737,-0.00209 -0.85841,0.86996 -0.85841,0.86996c0,0 -0.03763,-0.61304 0.14236,-0.74661z" data-paper-data="{&quot;index&quot;:null}" fill="#ffffff" stroke-width="0.17188" stroke-linecap="butt" stroke-miterlimit="10"/><path d="" fill="#684af8" stroke-width="0" stroke-linecap="butt" stroke-miterlimit="10"/><path d="" fill="#684af8" stroke-width="0" stroke-linecap="butt" stroke-miterlimit="10"/><path d="" fill="#684af8" stroke-width="0" stroke-linecap="butt" stroke-miterlimit="10"/><path d="M318.4808,172.86539c0,-0.72222 0.58547,-1.30769 1.30769,-1.30769c0.72222,0 1.3077,0.58548 1.3077,1.30769c0,0.72222 -0.58548,1.30769 -1.3077,1.30769c-0.72222,0 -1.30769,-0.58547 -1.30769,-1.30769z" fill="#ffd700" stroke-width="0" stroke-linecap="butt" stroke-miterlimit="10"/></g></g></svg>