<svg version="1.1" xmlns="http://www.w3.org/2000/svg" xmlns:xlink="http://www.w3.org/1999/xlink" width="26.42138" height="24.47415" viewBox="0,0,26.42138,24.47415"><g transform="translate(-224.81834,-166.56581)"><g data-paper-data="{&quot;isPaintingLayer&quot;:true}" fill-rule="nonzero" stroke-width="0" stroke-linecap="butt" stroke-linejoin="miter" stroke-miterlimit="10" stroke-dasharray="" stroke-dashoffset="0" style="mix-blend-mode: normal"><path d="M239.0644,188.40504c-1.14408,-0.61542 -0.82765,-1.26741 -0.82765,-1.26741c0,0 3.84431,3.03847 5.19948,3.03009c1.34109,-0.00829 2.32153,-2.5673 2.32153,-2.5673c0,0 0.43294,0.18711 0.34188,1.02716c-0.07846,0.7238 -1.08012,1.94352 -1.89816,2.2577c-0.07618,0.02925 -0.3918,-0.00656 -0.63343,-0.00587c-0.88543,0.00254 -3.30295,-1.66296 -3.45306,-1.84019c-0.162,-0.19128 -0.17342,-0.39032 -0.43097,-0.52127c-0.24569,-0.12491 -0.5619,-0.08184 -0.61962,-0.11288z" data-paper-data="{&quot;index&quot;:null}" fill="#686868" stroke="none"/><path d="M244.56082,186.30105c0.70484,0.39327 1.209,0.83566 1.19867,1.36915c-0.01033,0.53349 -1.20336,2.65913 -2.37842,2.52508c-1.65699,-0.18904 -5.16774,-3.03164 -5.16774,-3.03164c0,0 -0.10911,-0.52912 0.05785,-1.05837c0.20676,-0.65542 0.63264,-0.84555 0.63264,-0.84555c0,0 0.41817,1.35801 1.74501,1.6571c0.89267,0.20121 2.66951,-0.59666 3.22589,-0.65207c0.49754,-0.04956 0.40906,-0.02524 0.6861,0.03628z" data-paper-data="{&quot;index&quot;:null}" fill="#ef4019" stroke="none"/><path d="M242.67465,187.61657c-0.08558,0.13073 -0.20795,0.51976 -0.14227,0.85398c0.06802,0.34609 0.22016,0.86672 -0.1419,0.80271c-0.85075,-0.15041 -3.45342,-1.88193 -3.41744,-2.24108c0.01917,-0.19132 0.32979,-0.86408 0.32979,-0.86408c0,0 1.00968,0.30329 1.5391,0.26369c0.54727,-0.04093 1.69272,-0.50544 1.69272,-0.50544c0,0 0.24213,0.21257 0.46268,0.26779c0.2365,0.0592 0.91182,0.07633 0.91182,0.07633c0,0 -0.80541,0.6906 -1.2345,1.3461z" data-paper-data="{&quot;index&quot;:null}" fill="#ffc500" stroke="none"/><path d="M240.38942,186.85324c-1.24796,-0.44697 -1.50144,-1.36829 -1.4778,-1.56852c0.20887,-1.76927 2.2557,-0.77119 2.41164,-0.74709c0.82213,0.12704 0.71051,0.62463 0.49543,1.47012c-0.16477,0.64763 -0.69966,1.1068 -1.42928,0.84548z" data-paper-data="{&quot;index&quot;:null}" fill="#ffffff" stroke="none"/><path d="M239.93068,184.6572c0,0 -0.38067,-0.40148 -0.56518,-0.61989c-0.19652,-0.23263 -0.60473,-0.64813 -0.60473,-0.64813l0.84237,-0.85304c0,0 1.41322,0.94197 1.70935,1.97699c0.05388,0.18828 -0.03997,1.54902 -1.05317,1.33545c-0.54267,-0.11438 -0.64733,-0.52476 -0.56769,-0.81695c0.06032,-0.2213 0.23907,-0.37442 0.23907,-0.37442z" data-paper-data="{&quot;index&quot;:null}" fill="#fedeb5" stroke="none"/><path d="M241.73542,185.7148c0.27231,-0.42435 -0.04141,-1.05885 -0.04141,-1.05885c0,0 0.16316,-0.28945 0.36905,-0.12635c0.41109,0.32565 0.45617,1.37266 0.45617,1.37266c0,0 -0.21383,0.73184 -0.96712,1.16399c-0.39658,0.22752 -1.24441,0.19743 -1.24441,0.19743c0,0 0.23313,-0.07941 0.34326,-0.27414c0.05792,-0.10242 0.02619,-0.32967 0.02915,-0.39262c0.00707,-0.15056 0.83247,-0.5349 1.05531,-0.88214z" data-paper-data="{&quot;index&quot;:null}" fill="#ffc500" stroke="none"/><path d="M240.56145,179.55844c0.01941,-0.39939 0.56027,-0.45666 1.17477,-0.38277c0.09612,0.01156 2.31336,0.3213 2.61231,0.58987c0.86476,0.77686 0.15097,1.07564 0.15097,1.07564c0,0 -1.0973,-0.21775 -1.65688,-0.34341c-0.55957,-0.12566 -1.01165,-0.2626 -1.23065,-0.28893c-0.6145,-0.0739 -1.07181,-0.21255 -1.05052,-0.6504z" data-paper-data="{&quot;index&quot;:null}" fill="#fde1c0" stroke="none"/><path d="M245.33894,181.29837c-0.29925,0.27056 -0.8127,0.03286 -0.8127,0.03286c0,0 -0.45209,-0.55066 -0.58908,-1.21543c-0.09454,-0.45876 0.24611,-0.92038 0.24611,-0.92038c0,0 0.44751,-0.1252 0.65899,-0.11633c0.21148,0.00886 0.44527,-0.00781 0.56314,0.2269c0.34994,0.69686 0.12194,1.82205 -0.06646,1.99238z" data-paper-data="{&quot;index&quot;:null}" fill="#fefefe" stroke="none"/><g data-paper-data="{&quot;index&quot;:null}" stroke="none"><path d="M245.1405,179.60933c0.21163,-0.01166 0.61526,0.20453 0.60726,1.05553c-0.00403,0.42893 -0.08428,0.92894 -0.3324,0.94261c-0.21162,0.01167 -0.22157,-0.22126 -0.24518,-0.64956c-0.02362,-0.4283 -0.29607,-1.3339 -0.02969,-1.34858z" fill="#000000"/><path d="M247.13324,181.22911c0,0 0.25197,0.66146 -0.49639,0.78718c-0.85126,0.143 -1.48515,-0.21124 -1.48515,-0.21124c0,0 -0.10279,-0.26134 -0.0486,-0.41522c0.05419,-0.15389 0.30286,-0.30677 0.30286,-0.30677c0,0 -0.12395,-0.1823 -0.11492,-0.3116c0.00902,-0.1293 0.16407,-0.39253 0.16407,-0.39253c0,0 -0.20668,-0.22543 -0.26085,-0.40569c-0.05417,-0.18027 -0.01429,-0.50999 -0.01429,-0.50999c0,0 -0.27755,-0.17677 -0.32818,-0.36002c-0.05064,-0.18325 -0.06655,-0.40215 0.08589,-0.51681c0.15244,-0.11466 0.76174,-0.56814 1.50535,-0.61017c0.91497,-0.05171 0.55697,1.21594 0.55697,1.21594c0,0 0.23569,0.1761 0.27205,0.42703c0.04705,0.32476 -0.15914,0.5769 -0.15914,0.5769c0,0 0.24396,0.04986 0.26288,0.46136c0.01285,0.27919 -0.24254,0.57161 -0.24254,0.57161z" fill="#fefefe"/><path d="M245.55967,179.57708c-0.00403,0.42893 -0.08428,0.92894 -0.3324,0.94261c-0.21162,0.01166 -0.4641,-0.4508 -0.48771,-0.8791c-0.0236,-0.4283 -0.05352,-1.10436 0.21286,-1.11904c0.21162,-0.01166 0.61525,0.20453 0.60725,1.05553z" fill="#fefefe"/></g><path d="M232.02888,184.7392c-0.05215,-1.29804 0.67014,-1.35728 0.67014,-1.35728c0,0 -0.66036,4.8554 0.03623,6.01787c0.68934,1.15039 3.39126,0.69273 3.39126,0.69273c0,0 0.05914,0.46792 -0.71042,0.81685c-0.66306,0.30065 -2.22272,0.05874 -2.90934,-0.48572c-0.06394,-0.05071 -0.19366,-0.34065 -0.31717,-0.54833c-0.4526,-0.76102 -0.24848,-3.68961 -0.17226,-3.909c0.08228,-0.23677 0.24783,-0.34786 0.22955,-0.63621c-0.01744,-0.27506 -0.21537,-0.52539 -0.21801,-0.59088z" data-paper-data="{&quot;index&quot;:null}" fill="#686868" stroke="none"/><path d="M236.63633,188.40103c0.01996,0.80688 -0.10445,1.46598 -0.56901,1.72847c-0.46456,0.26249 -2.90152,0.31667 -3.38385,-0.76318c-0.68016,-1.52274 -0.01875,-5.99133 -0.01875,-5.99133c0,0 0.40003,-0.36311 0.94062,-0.48859c0.66946,-0.1554 1.0498,0.11454 1.0498,0.11454c0,0 -0.95646,1.05085 -0.53899,2.34533c0.28086,0.8709 1.87166,1.99479 2.2024,2.44561c0.29577,0.40313 0.22982,0.33933 0.31779,0.60914z" data-paper-data="{&quot;index&quot;:null}" fill="#ef4019" stroke="none"/><path d="M236.33115,187.82443c0,0 -1.00429,-0.34211 -1.78691,-0.37808c-0.15609,-0.00717 -0.55327,0.08537 -0.8076,0.31194c-0.26337,0.23461 -0.63421,0.63044 -0.76328,0.28617c-0.30328,-0.80897 -0.13651,-3.93055 0.191,-4.08227c0.17447,-0.08082 0.91169,-0.15563 0.91169,-0.15563c0,0 0.25251,1.02357 0.55592,1.45922c0.31363,0.45034 1.29624,1.20022 1.29624,1.20022c0,0 -0.05984,0.31659 0.00481,0.53456c0.06934,0.23373 0.39813,0.82386 0.39813,0.82386z" data-paper-data="{&quot;index&quot;:null}" fill="#ffc500" stroke="none"/><path d="M234.03894,185.09058c-0.25002,-1.3018 0.41424,-1.98871 0.59865,-2.07021c1.6295,-0.72019 1.81142,1.54973 1.87,1.69625c0.30884,0.77243 -0.17633,0.92946 -1.01367,1.17439c-0.64139,0.1876 -1.30881,-0.03935 -1.45498,-0.80044z" data-paper-data="{&quot;index&quot;:null}" fill="#ffffff" stroke="none"/><path d="M235.69624,183.57853c0,0 0.15201,-0.53197 0.24619,-0.80193c0.10031,-0.28753 0.25038,-0.85034 0.25038,-0.85034l1.16293,0.29129c0,0 -0.09209,1.69589 -0.83254,2.47735c-0.13469,0.14216 -1.35394,0.75358 -1.68549,-0.22738c-0.17758,-0.52541 0.12249,-0.82427 0.41456,-0.90434c0.2212,-0.06064 0.44397,0.01536 0.44397,0.01536z" data-paper-data="{&quot;index&quot;:null}" fill="#fedeb5" stroke="none"/><path d="M235.70379,185.6703c0.50387,0.01858 0.89055,-0.57428 0.89055,-0.57428c0,0 0.3322,-0.00678 0.29651,0.25345c-0.07125,0.51959 -0.94974,1.09101 -0.94974,1.09101c0,0 -0.73884,0.18819 -1.4941,-0.24052c-0.39762,-0.2257 -0.803,-0.97094 -0.803,-0.97094c0,0 0.18696,0.16031 0.41063,0.15607c0.11764,-0.00223 0.29715,-0.14515 0.35285,-0.17462c0.13322,-0.0705 0.88399,0.44461 1.29631,0.45982z" data-paper-data="{&quot;index&quot;:null}" fill="#ffc500" stroke="none"/><path d="M237.88435,179.35818c1.54014,-0.37555 2.86926,-0.31559 2.86926,-0.31559c0,0 1.44449,2.79561 0.96418,3.96771c-0.49413,1.20582 -1.50222,1.69283 -2.2465,1.87538c-1.99835,0.5378 -3.24197,0.06834 -4.35584,-1.1541c-1.05316,-1.1558 -1.09724,-2.75096 -1.09724,-2.75096c0,0 2.14972,-1.20393 3.86612,-1.62246z" data-paper-data="{&quot;index&quot;:null}" fill="#ef4019" stroke="none"/><path d="M239.83882,180.71035c-0.58792,-0.07205 -0.44326,-1.44631 -0.44326,-1.44631l0.99234,0.19109c0,0 -0.17056,1.30162 -0.54908,1.25523z" data-paper-data="{&quot;index&quot;:null}" fill="#08abe8" stroke="none"/><path d="M234.79858,178.96046c0,0 0.51622,-0.52719 1.00332,-0.48358c0.43549,0.03898 0.74506,0.17005 1.14085,0.68773c0.41749,0.54604 0.20648,1.22235 -0.01205,1.50585c-0.65481,0.84945 -1.83629,0.68335 -2.44162,-0.32812c-0.49459,-0.82643 -0.15621,-1.67636 -0.15621,-1.67636z" data-paper-data="{&quot;index&quot;:null}" fill="#ebc19b" stroke="none"/><path d="M240.94248,182.29175c-0.0123,0.23058 -0.26738,0.75343 -0.41041,0.73418c-0.06862,-0.00923 -0.11441,-0.52169 -0.23928,-1.08192c-0.13541,-0.60752 -0.3476,-1.26622 -0.3476,-1.26622l0.21731,-0.29675c0,0 0.82192,1.12405 0.77998,1.9107z" data-paper-data="{&quot;index&quot;:null}" fill="#08abe8" stroke="none"/><path d="M239.42094,181.89811c-0.10201,0.52109 -0.15535,1.03158 -0.21849,1.00961c-0.3357,-0.11679 -0.46078,-0.5496 -0.4549,-0.71639c0.03411,-0.96774 0.73641,-1.85046 0.73641,-1.85046l0.19168,0.29745c0,0 -0.13478,0.64715 -0.2547,1.25979z" data-paper-data="{&quot;index&quot;:null}" fill="#08abe8" stroke="none"/><path d="M239.57494,181.31604l-0.77103,-1.65466c0,0 0.24114,-0.02414 0.55222,-0.06034c0.31109,-0.03619 0.50732,0.01939 0.50732,0.01939z" data-paper-data="{&quot;index&quot;:null}" fill="#ffffff" stroke="none"/><path d="M241.11591,180.72624l-1.14991,-1.08349c0,0 0.09751,-0.0666 0.33377,-0.21183c0.23625,-0.14524 0.43548,-0.18961 0.43548,-0.18961z" data-paper-data="{&quot;index&quot;:null}" fill="#ffffff" stroke="none"/><path d="M237.93047,180.37375c-0.21854,0.09794 -0.64301,0.38571 -1.18257,0.69647c-0.53956,0.31076 -1.60683,0.89043 -1.60683,0.89043c0,0 -0.83633,-0.07949 -0.19046,-1.16376c0.22327,-0.37483 2.42187,-1.41111 2.51779,-1.4541c0.61317,-0.27481 1.19232,-0.38987 1.34128,0.01789c0.1633,0.44702 -0.26605,0.73826 -0.87923,1.01308z" data-paper-data="{&quot;index&quot;:null}" fill="#fde1c0" stroke="none"/><path d="M232.41821,184.82372c0,0 -1.72555,0.32466 -1.80796,-0.51604c-0.02737,-0.27922 0.15927,-0.58621 0.15927,-0.58621c0,0 -0.27071,-0.24034 -0.33788,-0.45522c-0.06716,-0.21487 0.03333,-0.51906 0.03333,-0.51906c0,0 -0.24769,-0.30441 -0.28818,-0.50146c-0.04048,-0.19705 0.09203,-0.45316 0.09203,-0.45316c0,0 -0.48243,-0.87947 1.50227,-1.433c0.38922,-0.10855 0.2902,0.5411 0.2902,0.5411c0,0 1.87286,-0.26013 2.10724,1.14826c0.36254,2.17841 -0.96242,2.95074 -0.96242,2.95074l-0.78788,-0.17593z" data-paper-data="{&quot;index&quot;:null}" fill="#ffffff" stroke="#000000"/><path d="M233.31102,180.88307c0.01125,-0.28494 0.24988,-0.37332 0.455,-0.47693c0.20511,-0.10362 0.70371,-0.18055 0.70371,-0.18055c0,0 0.54385,0.30361 0.65614,0.79958c0.16272,0.71869 -0.03728,1.4659 -0.03728,1.4659c0,0 -0.40102,0.46529 -0.81825,0.33202c-0.26268,-0.08391 -0.99277,-1.09411 -0.95933,-1.94003z" data-paper-data="{&quot;index&quot;:null}" fill="#fefefe" stroke="none"/><path d="M233.34227,184.07612c0,0 -0.19978,0.35 -0.45549,0.50939c-0.19767,0.12321 -0.49361,0.25395 -0.49361,0.25395c0,0 0.3501,-0.27185 0.51774,-0.41577c0.16764,-0.14392 0.43135,-0.34757 0.43135,-0.34757z" data-paper-data="{&quot;index&quot;:null}" fill="#000000" stroke="none"/><path d="M231.08891,181.59322c0,0 0.23044,-0.3249 0.50075,-0.45806c0.20894,-0.10292 0.47996,-0.22701 0.47996,-0.22701c0,0 -0.296,0.21606 -0.47713,0.34258c-0.18113,0.12653 -0.50358,0.34251 -0.50358,0.34251z" data-paper-data="{&quot;index&quot;:null}" fill="#000000" stroke="none"/><path d="M233.99413,181.16934c-0.21101,-0.16142 -0.20082,-0.36755 -0.10141,-0.47293c0.09941,-0.10539 0.42044,-0.16636 0.63145,-0.00494c0.21101,0.16143 0.15433,0.32901 0.05808,0.43728c-0.17072,0.19205 -0.3771,0.20202 -0.58811,0.0406z" data-paper-data="{&quot;index&quot;:null}" fill="#f7e300" stroke="none"/><path d="M243.01457,176.84229c0,0 0.40605,-0.57051 0.55369,-0.90043c0.14762,-0.32993 0.32731,-0.86 0.32731,-0.86c0,0 0.41431,0.77238 0.5624,1.11699c0.11242,0.26157 0.39411,0.76695 0.1642,1.00212c-0.18888,0.1932 -1.60759,-0.35868 -1.60759,-0.35868z" data-paper-data="{&quot;index&quot;:null}" fill="#ebc19b" stroke="none"/><path d="M241.06645,178.88846c-2.4143,1.63024 -5.39336,1.30023 -7.0618,-1.04255c-1.56369,-2.19569 -1.20229,-5.19349 1.49936,-6.9791c2.40005,-1.58625 5.01188,-1.91366 7.0618,1.04255c1.92659,2.77836 0.88486,5.36917 -1.49936,6.9791z" data-paper-data="{&quot;index&quot;:null}" fill="#fedeb5" stroke="none"/><path d="M242.3965,175.16342c0,0 -0.31048,-0.64447 -1.12896,-2.06265c-1.10763,-1.91917 -1.60774,-2.50459 -0.977,-2.69222c0.50927,-0.1515 1.82946,0.3532 2.89754,2.5988c0.36608,0.69993 0.49932,1.58211 0.49932,1.58211c0,0 -0.07046,0.32883 -0.27276,0.44457c-0.20229,0.11573 -0.3682,0.03281 -0.58523,0.0463c-0.24977,0.01551 -0.43292,0.08309 -0.43292,0.08309z" data-paper-data="{&quot;index&quot;:null}" fill="#ea750b" stroke="none"/><path d="M238.90017,173.79364c1.42687,0.96608 2.35985,2.81497 2.35985,2.81497c0,0 -0.53585,1.17745 -1.81623,1.44537c-0.7338,0.15355 -2.09096,-0.22617 -2.77019,-0.70204c-1.86872,-1.30923 -2.03834,-2.69934 -1.37668,-3.6255c0.61844,-0.86564 2.17637,-0.89887 3.60325,0.06721z" data-paper-data="{&quot;index&quot;:null}" fill="#ea750b" stroke="none"/><path d="M243.33446,175.07197c0.16799,-0.12566 0.34957,-0.53276 0.34957,-0.53276c0,0 0.23204,0.32852 0.20684,0.55187c-0.09045,0.80155 -0.59193,2.15208 -2.54832,3.69559c-2.05509,1.62138 -3.89829,0.78227 -3.4482,-0.19981c0.39499,-0.86184 1.62127,-0.36896 2.58974,-1.07981c0.80154,-0.58832 0.9765,-1.63822 1.57482,-2.15412c0.43786,-0.37754 1.12065,-0.16507 1.27555,-0.28095z" data-paper-data="{&quot;index&quot;:null}" fill="#ffffff" stroke="none"/><g data-paper-data="{&quot;index&quot;:null}" stroke="none"><path d="M243.04537,175.15675c0.04185,0.10838 0.02591,0.30649 -0.17977,0.44912c-0.21693,0.15042 -0.37756,0.09183 -0.48364,0.0109c-0.12294,-0.0938 -0.01144,-0.33363 0.17176,-0.46067c0.1832,-0.12704 0.43588,-0.14376 0.49165,0.00064z" fill="#6b4209"/><path d="M242.7425,175.30828c-0.08383,0.05813 -0.17274,0.07505 -0.19858,0.03779c-0.02584,-0.03726 0.02118,-0.1146 0.10501,-0.17273c0.08384,-0.05813 0.17274,-0.07505 0.19858,-0.03779c0.02583,0.03726 -0.02118,0.1146 -0.10501,0.17273z" fill="#ffffff"/></g><path d="M239.63894,178.86947c0,0 -0.00608,-0.23245 0.30343,-0.42687c0.30949,-0.19443 0.63763,-0.20905 0.63763,-0.20905c0,0 -0.32771,0.14398 -0.57871,0.31804c-0.24352,0.16886 -0.36237,0.31787 -0.36237,0.31787z" data-paper-data="{&quot;index&quot;:null}" fill="#000000" stroke="none"/><path d="M238.48779,170.67006c0.31771,0.30266 0.59441,0.76295 0.45213,0.87933c-0.07615,0.06229 -0.58015,0.02006 -1.22326,-0.06549c-0.39435,-0.05246 -0.79689,0.00528 -1.27348,0.01674c-0.8808,0.02117 -2.06722,0.31833 -2.06722,0.31833c0,0 0.412,-0.5254 1.49724,-1.20206c0.74426,-0.46405 1.60097,-0.72306 1.60097,-0.72306c0,0 0.31055,0.10641 1.01362,0.77619z" data-paper-data="{&quot;index&quot;:null}" fill="#ea750b" stroke="none"/><path d="M251.23742,169.60335c0.07644,0.46115 -1.76954,0.90572 -3.08962,1.01977c-1.32007,0.11405 -1.88094,-0.19629 -2.8256,-0.8475c-1.04151,-0.71798 -3.68422,-2.35049 -3.68422,-2.35049c0,0 0.87624,-0.76829 2.00011,-0.85177c2.0962,-0.15572 4.71658,2.14744 5.20648,2.27683c1.12766,0.29782 2.31641,0.29199 2.39285,0.75314z" data-paper-data="{&quot;index&quot;:null}" fill="#ea750b" stroke="none"/><path d="M244.07906,169.02371c0,0 -0.89131,0.38778 -1.31054,0.60898c-0.49735,0.26241 -1.47939,0.86307 -1.47939,0.86307l-2.19176,-0.90957c0,0 0.55139,-0.47635 1.19134,-1.06721c0.87443,-0.80736 1.37739,-1.10242 1.37739,-1.10242c0,0 0.81541,-0.02887 1.50818,0.27232c0.5837,0.25377 1.40482,1.59198 1.40482,1.59198z" data-paper-data="{&quot;index&quot;:null}" fill="#fedeb5" stroke="none"/><path d="M242.17671,167.97897c1.43476,0.58567 1.95481,1.07412 1.95481,1.07412c0,0 -0.98535,-0.63379 -1.68059,-0.91845c-0.6823,-0.27936 -0.95132,0.02761 -0.95132,0.02761c0,0 0.28999,-0.32898 0.6771,-0.18327z" data-paper-data="{&quot;index&quot;:null}" fill="#000000" stroke="none"/><path d="M243.56314,168.70362c0,0 -0.63377,0.3274 -1.28076,0.64652c-0.69176,0.34119 -1.36028,0.84997 -1.36028,0.84997l-0.74745,-0.29007c0,0 0.48685,-0.46604 0.99736,-0.89602c0.55635,-0.46862 1.22749,-0.90113 1.22749,-0.90113c0,0 0.31998,0.14216 0.49395,0.22393c0.21891,0.10289 0.66967,0.3668 0.66967,0.3668z" data-paper-data="{&quot;index&quot;:null}" fill="#ebc0cd" stroke="none"/><path d="M234.25232,174.98176c0,0 -0.77534,0.06717 -2.47198,1.27953c-0.68466,0.48922 -2.02083,1.40306 -2.02083,1.40306l-0.10935,0.49648c0,0 -0.59505,-0.77041 -0.66473,-1.68444c-0.011,-0.14436 -0.09731,-0.5537 -0.09849,-1.0431c-0.00142,-0.58202 0.08349,-1.24397 0.08349,-1.24397l-0.41783,-0.21856c0,0 1.55581,-0.63623 2.3888,-0.94433c1.05992,-0.39201 3.51242,-1.19904 3.51242,-1.19904l-0.2015,3.15435z" data-paper-data="{&quot;index&quot;:null}" fill="#fedeb5" stroke="none"/><path d="M229.54575,181.91821c-0.7853,1.07278 -3.58466,2.82566 -4.63718,1.92668c-0.51305,-0.4382 1.32513,-2.13317 1.41797,-2.57246c0.37219,-1.10019 0.18981,-5.35165 1.24029,-6.60333c0.24037,-0.28641 0.6696,-0.61244 1.01111,-0.71434c0.23825,-0.07109 0.46979,-0.20046 0.46979,-0.20046c0,0 -0.32989,1.73699 0.02569,3.13244c0.14081,0.55258 0.62147,1.05879 0.82495,2.11461c0.21083,1.09393 0.08981,2.31245 -0.35263,2.91686z" data-paper-data="{&quot;index&quot;:null}" fill="#ea750b" stroke="none"/><path d="M234.22335,174.24148c0,0 -1.18504,0.53083 -2.22708,1.17703c-1.13076,0.70121 -2.10885,1.56918 -2.10885,1.56918c0,0 0.162,-0.78795 0.26752,-1.16226c0.10553,-0.37431 0.36082,-0.9537 0.36082,-0.9537c0,0 1.20289,-0.89703 1.91465,-1.27621c0.61498,-0.32761 1.72376,-0.75704 1.72376,-0.75704l0.0692,1.40301z" data-paper-data="{&quot;index&quot;:null}" fill="#ebc0cd" stroke="none"/><path d="M229.66844,178.14898c0,0 0.08709,-2.03348 0.67964,-3.11209c0.56682,-1.03182 1.04671,-1.31794 1.04671,-1.31794c0,0 -0.71372,0.76932 -0.91345,1.33328c-0.76959,2.17305 -0.8129,3.09673 -0.8129,3.09673z" data-paper-data="{&quot;index&quot;:null}" fill="#000000" stroke="none"/><path d="M237.86558,178.99545c0,0 -0.37029,2.13429 -0.74452,2.22243c-0.45552,0.10729 -0.86427,-0.60739 -1.10038,-0.93661c-0.31105,-0.43374 -0.94767,-1.50624 -0.94767,-1.50624c0,0 0.77795,0.17066 1.28846,0.23326c0.51052,0.06259 1.50411,-0.01286 1.50411,-0.01286z" data-paper-data="{&quot;index&quot;:null}" fill="#fedeb5" stroke="none"/><path d="M242.45301,174.80674l-0.21411,-2.48677l0.81922,1.64351l1.46589,-0.42113z" data-paper-data="{&quot;index&quot;:null}" fill="#000000" stroke="none"/><path d="M239.48758,178.14409l0.28242,-1.49881l-1.71282,-0.66219l2.49589,-0.01901z" data-paper-data="{&quot;index&quot;:null}" fill="#000000" stroke="none"/></g></g></svg>