<svg version="1.1" xmlns="http://www.w3.org/2000/svg" xmlns:xlink="http://www.w3.org/1999/xlink" width="32.03037" height="38.47895" viewBox="0,0,32.03037,38.47895"><g transform="translate(-223.86722,-162.44175)"><g data-paper-data="{&quot;isPaintingLayer&quot;:true}" fill-rule="nonzero" stroke="none" stroke-linecap="butt" stroke-linejoin="miter" stroke-miterlimit="10" stroke-dasharray="" stroke-dashoffset="0" style="mix-blend-mode: normal"><path d="M241.20618,176.74056c0,0 -0.04878,2.42503 -1.77608,3.85835c-1.90815,1.5834 -6.13288,1.86112 -6.13288,1.86112l2.3758,-2.64768l0.17113,-5.12718z" fill="#2095ad" stroke-width="0"/><path d="M244.31919,175.14396c0.08883,-1.62629 0.04137,-9.8424 1.17656,-9.8424c1.06425,0 2.49957,4.02886 2.44989,6.87721c-0.05707,3.27475 -1.19876,6.37162 -1.19876,7.24271c0,1.62874 1.6086,4.82579 1.6086,4.82579c0,0 -4.54178,-1.22714 -4.03629,-9.10331z" fill="#2095ad" stroke-width="0"/><path d="M240.8653,176.53408c0.07474,-0.67529 1.51459,-0.32751 1.97876,-0.87562c0.94267,-1.11315 1.21195,-2.84995 1.31117,-2.84995c0.14805,0 0.36734,4.31831 0.44683,5.22794c0.44683,5.11332 -0.89367,6.30033 -0.89367,6.30033c0,0 -3.23157,-4.29292 -2.8431,-7.80272z" fill="#0d4d58" stroke-width="0"/><g data-paper-data="{&quot;index&quot;:null}" stroke-width="0.17188"><path d="M247.66394,178.72938c-1.45097,0.13545 -3.6306,-0.24634 -4.46482,-0.51716c-0.83421,-0.27082 -2.21879,-1.08699 -1.93096,-1.38613c0.28779,-0.29927 2.52171,-0.20797 4.07855,-0.29884c0.98396,-0.05727 2.17785,-0.13986 3.09817,0.09524c0.60466,0.15468 1.29152,0.97852 1.32037,1.48177c0.02332,0.3895 -1.6216,0.58026 -2.10131,0.62511z" data-paper-data="{&quot;index&quot;:null}" fill="#09649e"/><path d="M249.75374,178.08717c0.00678,-0.00767 0.19158,-0.72574 0.19303,-0.95384c0.00263,-0.38381 -0.17263,-0.14709 -0.01794,-0.59486c0.11474,-0.33206 0.69853,0.19487 1.69569,0.12623c0.23275,-0.01601 1.6928,-0.12697 1.78247,-0.04785c0.2988,0.08637 0.96647,-0.03185 1.01412,0.33946c0.04765,0.37131 -0.83775,0.11772 -0.83775,0.11772c0,0 1.23099,-0.0419 1.16174,0.33658c-0.1177,0.34302 -1.1912,-0.00759 -1.29657,0.00763c-0.23855,0.03446 1.11421,0.40111 0.87691,0.62574c-0.27355,0.25894 -1.75421,-0.57523 -2.56604,0.19954c-0.68295,0.45696 1.31452,0.14101 1.37442,0.65894c-0.66517,0.35781 -1.30808,0.42821 -2.68409,0.07611c-0.26026,-0.11491 -0.56961,-0.0185 -0.71607,-0.14209c-0.12992,-0.11714 -0.28244,-0.41387 0.02009,-0.74926z" fill="#ebd9bb"/><path d="M248.32876,179.0528c-0.24385,-0.18699 0.15174,-1.71022 0.15174,-1.71022c0.08979,-0.28955 -0.10678,-1.01138 0.06391,-0.78881c0.03418,0.04455 -0.24494,-0.0455 -0.07137,-0.17578c0.11418,-0.08548 0.64027,-0.07157 0.80647,-0.12379c0.38385,-0.12066 0.90859,0.00451 1.29883,-0.00004c0.36729,-0.0042 0.41796,0.34763 0.52612,0.48853c0.15658,0.20355 0.09162,0.48279 -0.22315,0.87517c-0.38285,0.47719 -0.55305,0.93535 -0.56073,0.96741c0,0 -0.0871,0.39786 0.06668,0.4857c-0.50142,-0.27512 -1.57853,0.3072 -2.05851,-0.01817z" fill="#ecc51e"/></g><path d="M240.04078,200.75498c-0.98048,0.96724 -1.74681,-2.5687 -1.8761,-3.65501c-0.30639,-1.23547 0.10177,-3.61374 0.10177,-3.61374c0,0 0.1826,-1.65719 0.85896,-0.81468c0.31484,0.39219 0.64687,0.75303 0.92556,1.14058c0.31999,0.44499 0.56967,0.92524 0.64226,1.52865c0,0 0.68973,4.09014 -0.65244,5.41419z" fill="#09649e" stroke-width="0"/><path d="M247.05097,198.027c-0.40172,1.2099 -2.50662,-1.44413 -3.0661,-2.30266c-0.76718,-0.91161 -1.42432,-3.07224 -1.42432,-3.07224c0,0 -0.5415,-1.46415 0.36558,-1.03253c0.42225,0.20092 0.84553,0.36855 1.23615,0.58028c0.44851,0.24311 0.85397,0.54438 1.16538,1.02095c0,0 2.27323,3.14999 1.72331,4.8062z" fill="#09649e" stroke-width="0"/><path d="M239.09328,184.30655l1.54559,-0.11836c0,0 0.189,2.94063 1.18804,4.72452c0.29903,0.57487 2.67029,4.35789 2.67029,4.35789c0,0 1.32163,1.94307 1.41371,2.57188c0.11713,0.79988 -1.00992,0.30494 -1.25569,0.04169c0,0 -0.72255,-1.16347 -1.20294,-1.87165c-0.71014,-1.04686 -2.7581,-4.67616 -2.7581,-4.67616z" fill="#ffffff" stroke-width="0"/><path d="M238.8292,183.93549l1.36255,0.73913c0,0 -0.77751,2.65897 -0.90613,4.69949c-0.0607,0.64514 0.12864,5.0109 0.12864,5.0109c0,0 0.37648,2.57282 0.11266,3.151c-0.33559,0.73547 -0.88073,0.17883 -1.09767,-0.38294c-0.21694,-0.56176 -0.12257,-1.98672 -0.19182,-2.90856c-0.08424,-1.12142 -0.04364,-4.78958 -0.04364,-4.78958z" fill="#ffffff" stroke-width="0"/><g stroke-width="0"><path d="M252.96747,185.07329c-1.17073,-0.19117 -5.91058,0.24208 -5.91058,0.24208c0,0 4.62652,-0.6474 5.11912,-1.68885c0.49266,-1.04159 -2.90336,-3.04115 -1.95238,-2.80558c5.02268,1.2442 5.67396,4.38379 5.67396,4.38379c0,0 -1.7594,0.05974 -2.93012,-0.13143z" fill="#2095ad"/><path d="M238.68142,180.2248c0,0 1.4605,-0.28937 3.04289,-0.30024c1.35852,-0.00933 2.74888,0.26396 4.04438,0.21875c3.39819,-0.11861 6.5803,1.36838 7.39696,2.79615c0.59541,1.04096 -3.96892,2.58026 -6.17778,2.24089c-2.39256,-0.36759 -8.30644,-4.95556 -8.30644,-4.95556z" fill="#ffffff"/></g><g stroke-width="0"><path d="M235.15286,184.00892c0,0 -2.19252,1.16317 -4.31608,1.91249c-1.17053,0.41303 -2.61054,0.44513 -3.87782,0.80687c-1.26728,0.36174 -3.09174,1.09937 -3.09174,1.09937c0,0 0.57885,-1.68083 1.23357,-2.35969c0.65472,-0.67887 3.56543,-2.97564 3.8189,-2.87911c0.25347,0.09653 6.23318,1.42007 6.23318,1.42007z" fill="#2095ad"/><path d="M232.56466,180.801c3.67911,-1.11965 5.03462,-0.51063 5.73368,-0.80731c2.03258,-0.86262 1.67217,-0.47547 1.67217,-0.47547c0,0 0.08149,0.46255 -0.52587,1.28115c-0.78387,1.0565 -2.5941,2.64555 -5.94136,3.96556c-4.27602,1.68626 -7.05897,0.30057 -7.05897,0.30057c0,0 1.41312,-2.83195 6.12035,-4.2645z" fill="#ffffff"/></g><g data-paper-data="{&quot;index&quot;:null}" stroke-width="0"><path d="M242.81504,189.3943c0,0 4.53122,0.88748 5.23542,-0.35879c0.71464,-1.26473 -1.31061,-5.74094 -1.31061,-5.74094c0,0 1.79168,0.4647 3.37892,3.86941c0.91905,1.96503 3.60452,4.82737 3.60452,4.82737c0,0 -4.6623,0.49321 -6.88148,-0.10616c-1.84363,-0.49793 -4.02678,-2.49088 -4.02678,-2.49088z" fill="#2095ad"/><path d="M246.87266,183.23716c0.19025,0.14589 2.84199,4.22457 3.37927,6.22541c-0.82564,1.97203 -7.39571,-0.03944 -7.39571,-0.03944c0,0 -1.93732,-1.45557 -3.29219,-2.79593c-1.62779,-1.61034 -1.54134,-4.23423 -1.00465,-5.44716c0.53669,-1.21291 0.54452,0.36597 3.31348,0.16768c2.08627,-0.14938 4.81746,1.74962 4.99981,1.88943z" fill="#ffffff"/></g><g stroke-width="0"><path d="M229.65551,188.8421c0.51774,-1.84854 2.39843,-3.86024 2.39843,-3.86024l6.00493,4.01402c0,0 -3.21853,2.27685 -4.59364,3.06556c-1.37512,0.78871 -5.90739,0.69189 -5.90739,0.69189c0,0 1.4128,-1.46599 2.09768,-3.91123z" fill="#2095ad"/><path d="M231.86417,190.53094c-1.54215,-1.46508 -0.55437,-4.766 0.18978,-5.54913c0.73853,-0.77722 1.38023,-2.35201 5.24122,-3.31103c2.63329,-0.65407 3.3139,-2.20743 3.3139,-2.20743l1.15501,0.44281c0,0 0.88991,4.68849 -1.03434,7.0692c-1.80019,2.22721 -7.13312,5.13058 -8.61554,3.72222z" fill="#ffffff"/></g><g stroke-width="0.17188"><path d="M233.27525,178.59228c-0.47787,-0.06146 -2.11518,-0.30916 -2.07836,-0.69762c0.04629,-0.50195 0.76131,-1.30147 1.37097,-1.43508c0.92792,-0.20304 2.11823,-0.07909 3.09961,0.01228c1.55275,0.14481 3.78849,0.13105 4.06573,0.44012c0.27728,0.30894 -1.13477,1.0766 -1.97788,1.31832c-0.84311,0.24172 -3.03467,0.54768 -4.48007,0.36199z" data-paper-data="{&quot;index&quot;:null}" fill="#09649e"/><path d="M231.20897,177.878c0.29072,0.34568 0.128,0.63694 -0.00591,0.74951c-0.15066,0.11844 -0.45648,0.01135 -0.72057,0.11717c-1.38739,0.30416 -2.02748,0.21151 -2.67984,-0.16916c0.07783,-0.51554 2.06314,-0.1305 1.39645,-0.61087c-0.78447,-0.80246 -2.29317,-0.02015 -2.55758,-0.28842c-0.22937,-0.23273 1.1353,-0.55224 0.89809,-0.59495c-0.10478,-0.01887 -1.18979,0.2943 -1.29553,-0.0526c-0.05608,-0.38065 1.17271,-0.29608 1.17271,-0.29608c0,0 -0.89366,0.22273 -0.83316,-0.14671c0.0605,-0.36943 0.72367,-0.22813 1.02528,-0.30408c0.09236,-0.07596 1.54768,0.08557 1.77974,0.10965c0.99418,0.10318 1.59589,-0.40318 1.69905,-0.06734c0.13907,0.45287 -0.02788,0.21021 -0.03856,0.59388c-0.00646,0.22801 0.15332,0.95206 0.15983,0.95996z" fill="#ebd9bb"/><path d="M232.59962,178.89244c-0.49098,0.30853 -1.54724,-0.3108 -2.0579,-0.05324c0.15673,-0.08245 0.08349,-0.48309 0.08349,-0.48309c-0.00656,-0.03231 -0.16077,-0.49609 -0.52684,-0.98628c-0.30097,-0.40306 -0.35621,-0.68439 -0.19266,-0.88238c0.11298,-0.13706 0.17582,-0.48692 0.54275,-0.46999c0.38985,0.01808 0.91861,-0.08881 1.29805,0.04509c0.16429,0.05795 0.69054,0.0623 0.80169,0.15169c0.16895,0.13622 -0.11313,0.21654 -0.07742,0.1732c0.17831,-0.21652 -0.04318,0.49806 0.03651,0.79055c0,0 0.34252,1.53603 0.09233,1.71445z" fill="#ecc51e"/></g><path d="M239.59745,176.6419c0.27251,0 1.27223,-0.15383 1.55758,0.01468c0.91399,0.5913 0.44364,1.54443 0.40456,3.01343c0.04114,0.18438 0.19368,0.59337 0.19368,0.59337c0,0 -0.68512,-0.29135 -0.96219,-0.42856c-0.1795,-0.08889 -0.53861,-0.31464 -0.53861,-0.31464c0,0 -0.44075,0.0734 -0.55348,0.05417c-0.22585,-0.03853 -1.08002,0.67774 -1.08002,0.67774l-0.11055,0.14195c0,0 0.18138,-0.40937 0.1735,-0.81523c-0.00944,-0.48635 -0.20346,-1.00254 -0.13155,-1.27342c0,0 0.47414,-1.66348 1.04707,-1.66348z" fill="#09649e" stroke-width="0"/><path d="M238.27528,179.97876c0,0 0.00296,0.36243 0.05461,0.6164c0.05166,0.25398 0.42358,0.7468 0.42358,0.7468l1.12973,0.2555c0,0 0.73916,-0.20736 1.01902,-0.35074c0.27986,-0.14339 0.98937,-1.3221 0.98937,-1.3221l0.51105,-0.03953c0,0 -0.70111,1.39746 -1.33281,1.7357c-0.6317,0.33824 -1.21295,0.51277 -1.21295,0.51277l-0.2055,0.57615l-0.72765,0.23425l-0.42098,-0.64977l0.14215,-0.47436c0,0 -0.65492,-0.60918 -0.7083,-1.03668c-0.05338,-0.4275 -0.17488,-0.72711 -0.17488,-0.72711z" fill="#eec522" stroke-width="0"/><g stroke-width="0"><path d="M235.18422,167.96584c0,-0.04237 0.54261,-0.41338 1.08838,-0.99697c0.4541,-0.4856 0.01815,-1.26667 0.3999,-1.26667c0.84059,0 2.47821,-0.34366 2.47821,-0.26606c0,0.0776 -1.88061,2.67021 -2.7212,2.67021c-0.84059,0 -1.24531,-0.06293 -1.24531,-0.14056z" fill="#72878d"/><path d="M243.45333,166.16708l-1.48483,-0.52189c0,0 -0.14735,-1.42657 0.33835,-1.60663c2.55435,-0.94701 4.34968,2.87289 4.34968,2.87289c0,0 0.74906,3.57907 0.35843,6.4777c-0.42518,3.15494 -3.61935,8.08767 -3.61935,8.08767c0,0 0.60947,-5.74043 0.76618,-7.95946c0.10456,-1.48062 0.08281,-4.06033 0.08281,-4.06033z" fill="#2095ad"/><path d="M241.74236,163.33542c0,0 0.26271,-0.89367 1.02773,-0.89367c0.76502,0 0.84899,0.26808 0.84899,0.26808c0,0 2.21439,0.00444 2.53701,2.26224c0.02809,0.19661 -1.84024,-0.80459 -2.13487,-1.0111c-0.62645,-0.43909 -2.27886,-0.62558 -2.27886,-0.62558z" fill="#dceef3"/><path d="M238.25704,163.96097c0,-0.24679 1.40283,-1.21449 2.42667,-1.27176c0.6731,-0.03764 0.61182,0.64617 0.61182,0.64617c0,0 -0.69888,0.71492 -1.34048,0.71492c-0.6416,0 -1.69797,0.15742 -1.69797,-0.08937z" fill="#dceef3"/><path d="M241.65297,163.24606c1.13519,0 2.05544,0.33073 2.05544,0.84898c0,0.51823 -0.92025,0.75961 -2.05544,0.75961c-1.13515,0 -2.14477,-0.24135 -2.14477,-0.75961c0,-0.51826 1.00959,-0.84898 2.14477,-0.84898z" fill="#e8d548"/><path d="M242.27534,165.20156c0,-0.3768 0.4922,-0.88512 1.14658,-0.88512c0.65441,0 1.00779,0.65196 1.00779,1.02876c0,0.3768 -0.31506,0.03591 -0.96947,0.03591c-0.65441,0 -1.18489,0.19725 -1.18489,-0.17955z" fill="#72878d"/><path d="M234.59303,167.40159c0,0 -0.6694,-1.8337 0.24113,-2.92726c0.72979,-0.87646 1.63555,-0.69209 1.63555,-0.69209c0,0 0.43632,-0.48673 1.51595,-0.494c0.66245,-0.06965 1.8181,0.79716 1.87996,0.89615c0.36908,0.59042 -1.34733,-0.25773 -1.87788,-0.02104c-1.3601,0.60673 -3.39475,3.23824 -3.39475,3.23824z" fill="#dceef3"/><path d="M235.12924,168.07197c0,0 0.98655,-2.5116 1.56941,-2.5116c0.58289,0 0.18113,1.01641 0.18113,1.01641l-1.75054,1.49516z" fill="#dceef3"/><path d="M235.30791,170.66357c0,0 1.1822,-4.32301 1.94891,-4.75215c0.58942,-0.32989 2.25133,-0.34173 2.25133,-0.34173c0,0 -1.69794,4.79748 -1.69794,8.40045c0,3.60297 -0.08938,6.6131 -0.08938,6.6131c0,0 -1.55342,-2.56336 -2.02892,-4.51823c-0.4755,-1.95487 -0.38397,-5.40144 -0.38397,-5.40144z" fill="#2095ad"/><path d="M240.84866,168.56703c2.76393,0 4.96535,1.88084 5.00454,4.20021c0.04816,2.8495 -2.52932,3.97622 -5.0527,4.0076c-1.51717,0.01886 -4.712,-0.84071 -4.85887,-3.91243c-0.4497,-2.36698 2.1431,-4.29538 4.90703,-4.29538z" fill="#ecdebd"/><path d="M242.38868,173.90551c-0.4109,-0.03217 -1.84581,-0.28527 -1.84581,-0.28527c0,0 -0.15059,-0.41707 0.09141,-0.8484c0.37857,-0.67468 0.86017,-1.12828 1.43975,-1.09674c0.57958,0.03156 0.64759,0.48519 0.87772,0.90455c0.23012,0.41936 -0.07554,1.2234 -0.07554,1.2234c0,0 -0.28893,0.11804 -0.48753,0.10247z" fill="#000000"/><path d="M240.41085,173.91328c0,0 -0.02725,-1.57437 1.34691,-1.80871c1.32728,-0.2586 1.04147,1.71731 1.04147,1.71731c0,0 -0.41705,0.19242 -1.11843,0.19242c-0.70138,0 -1.26996,-0.10102 -1.26996,-0.10102z" fill="#eaeee9"/><path d="M247.37244,166.86542l0.40215,-1.29582c0,0 0.47982,0.57887 0.67632,1.18631c0.19651,0.60744 0.30673,1.85214 0.30673,1.85214z" fill="#dceef1"/><path d="M235.91205,165.90804c0,-0.03967 1.4607,-1.89142 2.52131,-1.89142c1.06064,0 1.75942,0.8939 1.75942,0.93357c0,0.03967 -1.41689,0.64633 -2.19027,0.64633c-0.77338,0 -2.09047,0.35119 -2.09047,0.31152z" fill="#72878d"/><path d="M246.94314,167.57128c0,-0.53544 0.35907,-0.91977 0.35907,-0.91977c0,0 0.50477,0.71123 0.74256,1.04147c0.23779,0.33024 0.79755,1.06319 0.79755,1.06319c0,0 -1.89918,-0.64948 -1.89918,-1.18489z" fill="#72878d"/><path d="M236.26466,172.35114c0.01863,-0.51353 0.02393,-0.78159 0.60354,-0.81315c0.28134,-0.01531 0.71731,0.43381 0.85632,0.94718c0.14738,0.54425 -0.19345,0.83509 -0.19345,0.83509l-0.91662,0.25428c0,0 -0.39157,-0.07145 -0.34981,-1.2234z" data-paper-data="{&quot;index&quot;:null}" fill="#000000"/><path d="M236.58425,173.58397c0,0 -0.4394,-1.27459 -0.0297,-1.78074c0.40974,-0.50616 0.81724,-0.29457 1.03877,0.47486c0.14442,0.5016 -0.08906,1.42457 -0.08906,1.42457z" fill="#eaeee9"/><g><path d="M236.39542,172.84926c0,-0.53003 0.25562,-0.95965 0.57096,-0.95965c0.31534,0 0.57097,0.42965 0.57097,0.95965c0,0.53003 -0.25563,0.95966 -0.57097,0.95966c-0.31534,0 -0.57096,-0.42966 -0.57096,-0.95966z" fill="#a77baf"/><path d="M236.99017,172.39224c0.13142,0 0.23791,0.20458 0.23791,0.45697c0,0.25239 -0.10652,0.45697 -0.23791,0.45697c-0.13139,0 -0.23791,-0.20458 -0.23791,-0.45697c0,-0.25239 0.10652,-0.45697 0.23791,-0.45697z" fill="#000000"/><path d="M237.07344,172.30082c0.09853,0 0.17842,0.14323 0.17842,0.31988c0,0.17666 -0.07989,0.31988 -0.17842,0.31988c-0.09853,0 -0.17843,-0.14323 -0.17843,-0.31988c0,-0.17666 0.07989,-0.31988 0.17843,-0.31988z" fill="#ffffff"/></g><path d="M235.3277,172.39665c0,0 -0.0072,-2.57917 0.7895,-3.7501c0.79671,-1.17093 2.7463,-2.19206 4.5855,-2.59753c1.83918,-0.40546 2.23541,0.54731 3.10904,0.9012c1.64125,0.66484 0.53379,5.2494 0.53379,5.2494c0,0 -2.44108,-0.08416 -3.32703,0.14033c-1.01248,0.25657 -2.16939,1.17572 -2.56591,1.02677c-0.26648,-0.10009 -0.55899,-1.06878 -0.55899,-1.06878l-0.34305,0.78596c0,0 -0.86858,-1.74757 -1.58222,-1.30576c-0.62458,0.38667 -0.6406,0.6185 -0.6406,0.6185z" fill="#2195ab"/><path d="M244.86129,166.02328c-0.2648,-0.28263 -0.50623,-0.85819 -0.70894,-1.10222c-0.38593,-0.46456 -1.20018,-0.56825 -1.20018,-0.56825c0,0 0.8641,-0.75766 1.34659,-0.80939c0.48248,-0.0517 1.46505,0.41753 1.46505,0.41753c0,0 0.31116,-0.33732 0.95061,-0.17266c0.52154,0.13429 1.40077,0.71595 1.36312,1.15503c-0.03439,0.40134 -0.20464,0.95432 -0.39336,1.36142c-0.27089,0.58431 -0.5799,0.96278 -0.5799,0.96278c0,0 -1.00328,0.07888 -2.24299,-1.24429z" fill="#dceef3"/><path d="M243.20386,165.93141c0,0 0.34463,0.2659 0.44648,0.54091c0.10186,0.27504 0.1257,1.00409 0.1257,1.00409c0,0 -0.20915,-0.27114 -0.89483,-0.77418c-0.59004,-0.43287 -1.43497,-0.71815 -1.43497,-0.81897c0,-0.21803 1.75759,0.04816 1.75759,0.04816z" data-paper-data="{&quot;index&quot;:null}" fill="#0b4754"/><path d="M239.12713,166.03125c0,0.10082 -0.69572,0.52588 -1.28575,0.95875c-0.68568,0.50304 -1.32828,1.2558 -1.32828,1.2558c0,0 0.1321,-0.85928 0.27385,-1.26879c0.14175,-0.40955 0.3923,-0.60741 0.3923,-0.60741c0,0 1.94789,-0.55635 1.94789,-0.33832z" fill="#0b4754"/><path d="M237.90005,167.15804c0,-0.37095 0.86945,-1.8615 1.58331,-2.65596c0.49722,-0.55333 1.00833,0.23103 1.00833,0.23103c0,0 1.5281,-0.32099 1.84828,0.00353c0.16674,0.2862 -0.14937,0.94122 -0.29218,1.52855c-0.12833,0.52791 -0.013,1.11325 -0.12621,1.2503c-0.70559,0.85416 -1.55513,1.31818 -2.59161,1.31818c-1.03648,0 -1.42988,-1.04636 -1.42988,-1.67565z" fill="#dceef3"/><path d="M243.95217,176.06964l0.24081,-4.19008l0.96322,-0.43345l-0.09632,4.52717z" fill="#2095ad"/><path d="M236.39969,172.75195c-0.03693,0.13384 -0.66387,-0.28797 -0.98385,-0.44552c-0.31998,-0.15748 -0.78371,-0.81968 -0.78371,-0.81968c0,0 0.55661,0.47329 0.95117,0.72413c0.39459,0.25084 0.83354,0.47885 0.8164,0.54107z" data-paper-data="{&quot;index&quot;:null}" fill="#000000"/><g><path d="M240.69824,173.26117c0,-0.53003 0.25562,-0.95965 0.57096,-0.95965c0.31534,0 0.57097,0.42965 0.57097,0.95965c0,0.53003 -0.25563,0.95966 -0.57097,0.95966c-0.31534,0 -0.57096,-0.42966 -0.57096,-0.95966z" fill="#a77baf"/><path d="M241.29299,172.80422c0.13142,0 0.23791,0.20458 0.23791,0.45697c0,0.25239 -0.10652,0.45697 -0.23791,0.45697c-0.13139,0 -0.23791,-0.20458 -0.23791,-0.45697c0,-0.25239 0.10652,-0.45697 0.23791,-0.45697z" fill="#000000"/><path d="M241.37627,172.71273c0.09853,0 0.17842,0.14323 0.17842,0.31988c0,0.17666 -0.07988,0.31988 -0.17842,0.31988c-0.09853,0 -0.17842,-0.14323 -0.17842,-0.31988c0,-0.17666 0.07989,-0.31988 0.17842,-0.31988z" fill="#ffffff"/></g><path d="M237.40847,174.1753c-0.43213,0.0288 -0.84661,-0.63073 -0.84661,-0.63073c0,0 0.67282,0.0654 0.91591,0.0451c0.08976,-0.0075 0.18087,-0.42888 0.18087,-0.42888c0,0 0.74368,0.36515 0.7211,0.65747c-0.01451,0.18795 -0.80214,0.34579 -0.97127,0.35704z" fill="#ecdebd"/><path d="M240.45368,174.39126l0.41933,-0.4193c0,0 0.40999,0.07625 0.648,0.07625c0.23801,0 0.72423,-0.03812 0.72423,-0.03812l0.60988,0.3812z" fill="#ecdebd"/><path d="M239.92827,176.10949c0.12625,-0.10919 0.49239,0.08499 0.82685,0.08499c0.33446,0 0.736,-0.25441 0.8367,-0.08499c0.13818,0.13728 -0.47489,0.24026 -0.83178,0.24026c-0.35689,0 -1.08146,-0.02432 -0.83177,-0.24026z" fill="#b1a37f"/><path d="M242.74762,174.09434c0.26612,0 0.06744,-0.01409 0.06744,0.31516c0,0.32925 -0.06744,0.38542 -0.06744,0.38542c0,0 -0.06743,-0.05617 -0.06743,-0.38542c0,-0.32925 -0.19869,-0.31516 0.06743,-0.31516z" fill="#d0bf96"/><path d="M236.56615,173.67286c0.26612,0 0.06743,-0.01409 0.06743,0.31516c0,0.32922 -0.06743,0.38539 -0.06743,0.38539c0,0 -0.06744,-0.05614 -0.06744,-0.38539c0,-0.32925 -0.19869,-0.31516 0.06744,-0.31516z" fill="#d0bf96"/><path d="M236.91734,173.81336c0.26612,0 0.06744,-0.01409 0.06744,0.31516c0,0.32922 -0.06744,0.38538 -0.06744,0.38538c0,0 -0.06743,-0.05613 -0.06743,-0.38538c0,-0.32925 -0.19869,-0.31516 0.06743,-0.31516z" fill="#d0bf96"/><path d="M242.3964,174.23483c0.26612,0 0.06744,-0.01409 0.06744,0.31516c0,0.32922 -0.06744,0.38539 -0.06744,0.38539c0,0 -0.06743,-0.05614 -0.06743,-0.38539c0,-0.32925 -0.1987,-0.31516 0.06743,-0.31516z" fill="#d0bf96"/><path d="M245.0385,175.50016c0,0 -0.42674,-2.45133 -0.62431,-3.38272c-0.14461,-0.68174 -0.45262,-1.6942 -0.45262,-1.6942c0,0 0.82659,-0.83705 1.07692,-0.46154c0.25034,0.37551 1.33832,2.03797 1.15385,3.38462c-0.18447,1.34665 -1.15385,2.15385 -1.15385,2.15385z" fill="#2195ab"/></g><path d="M240.60584,179.38436c0,0 0.31767,0.37105 0.53546,0.40686c0.2178,0.03581 0.47873,0.07872 0.47873,0.07872l0.37424,0.36655c0,0 -0.62919,0.01622 -0.86424,-0.08189c-0.23505,-0.09811 -0.55402,-0.46601 -0.55402,-0.46601z" fill="#2490a6" stroke-width="0"/><path d="M238.33871,180.36664l0.50508,-0.42884c0,0 0.00713,-0.06008 0.1822,-0.0996c0.17507,-0.03952 0.4723,-0.5085 0.4723,-0.5085l0.05232,0.25088c0,0 -0.20342,0.43289 -0.39237,0.54115c-0.18894,0.10826 -0.81954,0.24492 -0.81954,0.24492z" data-paper-data="{&quot;index&quot;:null}" fill="#2490a6" stroke-width="0"/><g><path d="M240.29572,176.92609c0.17008,0.06905 0.3072,0.33949 0.39108,0.72079c0.08399,0.38126 0.11481,0.87325 0.07258,1.38519c-0.0422,0.51204 -0.14953,0.94795 -0.28883,1.23853c-0.1394,0.29062 -0.31073,0.43601 -0.48082,0.36696c-0.17021,-0.06911 -0.30722,-0.33958 -0.3912,-0.72085c-0.08388,-0.3813 -0.11481,-0.87325 -0.07258,-1.38519c0.04219,-0.51204 0.14963,-0.94798 0.28893,-1.23856c0.1393,-0.29058 0.31062,-0.43597 0.48084,-0.36686z" fill="#5ed161" stroke-width="0.01872"/><g data-paper-data="{&quot;index&quot;:null}" fill="#21683c" stroke-width="0.01872"><path d="M240.22625,177.76841c0.09288,0.03771 0.16777,0.1854 0.21357,0.39363c0.04587,0.20821 0.0627,0.47689 0.03964,0.75647c-0.02305,0.27963 -0.08166,0.51769 -0.15773,0.67638c-0.07613,0.15871 -0.16969,0.23811 -0.26258,0.2004c-0.09295,-0.03774 -0.16778,-0.18545 -0.21364,-0.39367c-0.04581,-0.20823 -0.0627,-0.47689 -0.03964,-0.75647c0.02304,-0.27963 0.08172,-0.51771 0.15779,-0.6764c0.07607,-0.15869 0.16963,-0.23809 0.26259,-0.20035z"/></g><path d="M240.15095,177.68612c0.05931,0.02193 0.10212,0.11155 0.12354,0.23878c0.02138,0.12715 0.02128,0.29193 -0.00537,0.46388c-0.02668,0.17188 -0.07488,0.31879 -0.1313,0.41725c-0.05641,0.09846 -0.12094,0.1485 -0.18015,0.12654c-0.05927,-0.02186 -0.10211,-0.11155 -0.12352,-0.23878c-0.02138,-0.12717 -0.02132,-0.29184 0.0054,-0.46381c0.02666,-0.17195 0.07486,-0.31887 0.13128,-0.41732c0.05634,-0.09843 0.12087,-0.1484 0.18015,-0.12655z" fill="#ffffff" stroke-width="0.01896"/></g><path d="M243.93335,172.42521c0.44706,-0.13689 1.1976,-0.42078 1.1976,-0.42078c0,0 -0.65501,0.4588 -1.00537,0.52553c-0.35036,0.06676 -1.27957,0.39018 -1.27957,0.25136c0,-0.06454 0.64025,-0.21925 1.08734,-0.35611z" fill="#000000" stroke-width="0"/></g></g></svg>