<svg version="1.1" xmlns="http://www.w3.org/2000/svg" xmlns:xlink="http://www.w3.org/1999/xlink" width="28.07092" height="38.74615" viewBox="0,0,28.07092,38.74615"><defs><radialGradient cx="240.91284" cy="196.33495" r="10.41867" gradientUnits="userSpaceOnUse" id="color-1"><stop offset="0" stop-color="#d6feff" stop-opacity="0"/><stop offset="1" stop-color="#d6feff" stop-opacity="0.14902"/></radialGradient></defs><g transform="translate(-224.33825,-163.16863)"><g data-paper-data="{&quot;isPaintingLayer&quot;:true}" fill-rule="nonzero" stroke-linejoin="miter" stroke-miterlimit="10" stroke-dasharray="" stroke-dashoffset="0" style="mix-blend-mode: normal"><path d="M249.87546,199.5216c0,0 -4.37263,1.179 -6.83608,1.39318c-1.57998,0.13738 -4.89499,-1.01429 -7.85329,-1.54839c-1.847,-0.33348 -5.4465,-1.83413 -5.5341,-1.90924c-0.51402,-0.44079 0.27046,-2.8591 1.33591,-2.94055c0.36413,-0.02784 1.00429,-0.59454 3.90819,-0.56223c3.92278,0.04364 11.41887,-0.00169 13.95152,1.37275c0.94925,0.51514 2.94312,1.43099 2.49759,1.90625c-0.44551,0.47526 -1.46974,2.28823 -1.46974,2.28823z" data-paper-data="{&quot;index&quot;:null}" fill="url(#color-1)" stroke-opacity="0.25098" stroke="#313040" stroke-width="2" stroke-linecap="butt"/><path d="M241.80524,191.0771c0,0 -1.06941,-2.86556 -1.83814,-4.31842c-0.76872,-1.45289 -1.7506,-2.58131 -1.7506,-2.58131l1.37922,-0.74662l3.69004,7.5158z" data-paper-data="{&quot;index&quot;:null}" fill="#033397" stroke="none" stroke-width="0" stroke-linecap="butt"/><g data-paper-data="{&quot;index&quot;:null}"><g><g><path d="M248.07036,181.26038c0.28037,0.06738 1.42373,0.84528 1.44574,0.9487c0.02671,0.12554 0.07669,-0.02855 0.01493,0.17364c-0.06175,0.20218 -0.35076,0.14309 -0.35076,0.14309c0,0 0.35452,0.16504 0.27428,0.48083c-0.08024,0.31577 -0.42919,0.39944 -0.42919,0.39944c0,0 0.21257,0.23935 0.13303,0.48571c-0.07955,0.24636 -0.42131,0.40216 -0.42131,0.40216c0,0 0.2393,0.41134 0.17601,0.61535c-0.0633,0.204 -0.45891,0.29827 -0.45891,0.29827c0,0 0.3008,0.14252 0.15767,0.5654c-0.11139,0.32913 -0.58728,0.30009 -1.21051,0.08487c-0.63176,-0.21815 -1.30051,-0.44211 -1.63117,-0.5216c-1.00205,-0.24085 -1.03778,-1.33461 -0.79691,-2.33667c0.11281,-0.46933 0.49159,-1.13683 1.09788,-1.2875c0.81265,-0.20195 1.46651,-0.5798 1.99922,-0.45175z" fill="#fdfdfd" stroke="none" stroke-width="0" stroke-linecap="butt"/><path d="M247.0499,183.09862c0,0 0.16081,-0.63683 0.50985,-0.81904c0.16512,-0.08621 0.56173,0.19223 0.9389,0.2594c0.37716,0.06715 0.83391,-0.04016 0.83391,-0.04016" fill="none" stroke="#a4a4a4" stroke-width="0.125" stroke-linecap="round"/></g><path d="M245.24108,183.33628c-0.06649,0.40871 -0.1798,1.48163 -0.50176,1.46367c-0.65342,-0.03643 -0.56114,-0.51655 -0.56114,-0.51655c0,0 -0.11856,0.45124 -0.63529,-0.11737c-0.20499,-0.22557 -0.22335,-0.83443 -0.11055,-1.34013c0.11281,-0.50569 0.48513,-1.40743 0.84248,-1.39549c0.27543,0.00919 0.36247,0.44081 0.36247,0.44081c0,0 0.33886,-0.25531 0.61918,-0.20319c0.28616,0.07764 0.04371,1.30459 -0.01545,1.66825z" fill="#fdfdfd" stroke="none" stroke-width="0" stroke-linecap="butt"/></g><path d="M240.03362,178.8285c0.13945,-0.5114 0.06076,-0.26264 0.62228,-0.30422c0.56152,-0.0416 0.41375,0.64724 0.41375,0.64724l-0.21883,1.97823l2.8962,1.06165l-0.22882,0.99681l-3.75962,-1.2976c0,0 0.1356,-2.57074 0.27504,-3.08213z" data-paper-data="{&quot;index&quot;:null}" fill="#fec267" stroke="none" stroke-width="0" stroke-linecap="butt"/></g><path d="M237.00642,178.07735c0,0 0.67318,1.98996 1.33011,2.04747c0.65693,0.0575 -1.13725,0.81471 -2.18104,2.09528c-1.04378,1.28058 -2.34463,3.45712 -2.34463,3.45712c0,0 -0.03811,-3.6093 0.44609,-5.00345c0.90882,-2.6168 2.74947,-2.59643 2.74947,-2.59643z" data-paper-data="{&quot;index&quot;:null}" fill="#02124a" stroke="none" stroke-width="0" stroke-linecap="butt"/><path d="M237.20715,183.97985c0,0 -0.27507,0.9495 -1.34382,1.48334c-1.06874,0.53384 -3.34475,0.85857 -3.34475,0.85857c0,0 2.31257,-1.54875 2.95054,-2.21543c0.53142,-0.55533 0.61634,-1.51203 0.61634,-1.51203l1.1217,1.38555z" data-paper-data="{&quot;index&quot;:null}" fill="#02124a" stroke="none" stroke-width="0" stroke-linecap="butt"/><path d="M237.15809,184.1493c-0.77623,-0.29247 -1.31141,-0.82197 -0.84688,-2.62476c0.25907,-1.00539 -0.05773,-2.62521 0.27939,-3.51992c0.56405,-1.49701 2.29635,-0.00905 3.59909,0.48182c1.30274,0.49085 1.28024,2.24629 0.71617,3.7433c-0.56406,1.49702 -2.44504,2.41044 -3.74777,1.91957z" data-paper-data="{&quot;index&quot;:null}" fill="#033397" stroke="none" stroke-width="0" stroke-linecap="butt"/><path d="M241.14693,181.96614c-0.40805,0.99415 -1.52434,2.15322 -2.7513,1.84607c-1.1011,-0.27566 -0.6053,-3.83947 0.2503,-4.48971c0.92709,-0.70455 2.11013,-0.47247 2.30332,-0.03004c0.38102,0.87255 0.77389,1.26981 0.19768,2.67367z" data-paper-data="{&quot;index&quot;:null}" fill="#fec267" stroke="none" stroke-width="0" stroke-linecap="butt"/><g data-paper-data="{&quot;index&quot;:null}"><g fill="#033397" stroke-width="0"><path d="M238.348,178.46976c-2.90806,-0.39771 -4.94309,-3.07755 -4.54538,-5.98561c0.39771,-2.90806 3.07755,-4.9431 5.98561,-4.54539c2.90806,0.39771 4.94309,3.07756 4.54538,5.98562c-0.39771,2.90806 -3.07755,4.94309 -5.98561,4.54538z" stroke="none" stroke-linecap="butt"/><path d="M236.39521,177.78948c0,0 -2.17688,-0.27449 -3.94058,0.93164c-1.76369,1.20614 -3.41075,4.09571 -3.41075,4.09571c0,0 -0.79078,-1.62695 -0.31692,-4.30012c0.4015,-2.26503 1.77637,-4.00829 1.77637,-4.00829c0,0 -1.80396,0.23519 -2.69721,0.68592c-1.48545,0.74954 -3.46717,2.55202 -3.46717,2.55202c0,0 -0.09985,-3.07751 2.10186,-6.37686c1.89689,-2.84256 4.72415,-3.63882 4.72415,-3.63882c0,0 -1.09315,-1.099 -2.13244,-1.549c-1.26228,-0.54655 -2.83156,-0.63548 -2.83156,-0.63548c0,0 4.32605,-3.59373 10.17979,-1.94467c8.51973,2.35969 8.15039,9.52789 8.15039,9.52789" stroke="#000000" stroke-linecap="round"/></g><path d="M234.88067,168.96111c0,0 -0.06919,-1.05868 0.04403,-1.95791c0.11322,-0.89922 0.21477,-2.12561 0.4853,-2.24614c0.27804,-0.12387 0.43374,-0.07032 1.50598,0.79548c1.07222,0.8658 2.51808,2.42446 2.51808,2.42446" fill="#033397" stroke="#000000" stroke-width="0.125" stroke-linecap="round"/><path d="M242.99508,168.37476c0,0 1.00408,0.04498 1.58837,-0.00202c0.53625,-0.04313 1.54622,-0.33775 1.78563,-0.26938c0.28689,0.08193 -0.34146,1.38193 -0.662,2.0285c-0.36683,0.73997 -1.41891,2.16903 -1.41891,2.16903" fill="#033397" stroke="#000000" stroke-width="0" stroke-linecap="round"/><path d="M244.39371,172.18139c0,0 0.19054,1.19211 -0.10635,2.22647c-0.29687,1.03434 -1.23964,2.46304 -1.23964,2.46304c0,0 -0.6521,-0.6489 -0.78415,-0.69996c-1.07094,-0.41426 -2.35131,0.76805 -3.5361,0.34256c-1.1848,-0.42547 -1.68173,-1.4414 -2.00783,-2.32882c-0.3261,-0.88742 -0.03243,-2.33438 0.33665,-2.94686c0.50931,-0.7097 1.24102,-0.76241 1.55616,-0.68024c0.36644,0.09555 1.15917,0.33206 1.81027,1.51533c0.64375,1.16984 0.61028,3.10593 1.34487,3.62893c0.20389,0.28106 0.67671,-0.20478 0.67671,-0.20478c0,0 0.12712,0.18703 0.2415,0.04054c0.35908,-0.45979 0.36543,-0.48696 0.77762,-1.27527c0.4122,-0.78831 0.9303,-2.08091 0.9303,-2.08091z" fill="#fdfdfd" stroke="#000000" stroke-width="0" stroke-linecap="butt"/><path d="M242.96776,177.01935c-0.03738,0.39169 -0.40947,0.7105 -1.36264,1.07037c-0.78278,0.29555 -2.09383,0.50013 -3.01243,0.39895c-3.82802,-0.62444 -4.0728,-3.62433 -2.70661,-3.79885c1.70003,-0.24405 1.92589,1.60372 3.38024,1.74311c0.96795,0.09277 2.05586,-0.54445 2.70198,-0.38566c0.83518,0.19221 1.02254,0.73015 0.99946,0.97209z" fill="#fec267" stroke="#000000" stroke-width="0" stroke-linecap="butt"/><path d="M244.24824,171.06207c0,0 0.82804,-0.45081 0.96327,0.06201c0.08857,0.33582 -0.62299,2.27449 -0.62299,2.27449" fill="#033397" stroke="#000000" stroke-width="0.125" stroke-linecap="round"/><path d="M244.36574,176.16261c0.09414,0.46499 -0.23517,0.76248 -1.08798,0.86033c-0.53854,0.06178 -1.27853,-0.01669 -1.22603,-0.40055c0.03166,-0.23148 0.68765,-0.2159 1.16743,-0.3061c0.47979,-0.0902 1.11788,-0.29552 1.14659,-0.1537z" fill="#0d1114" stroke="none" stroke-width="0" stroke-linecap="butt"/><path d="M243.77864,176.40434c0.00377,0.07786 -0.18252,0.15015 -0.41608,0.16147c-0.23355,0.01133 -0.42597,-0.04263 -0.42974,-0.12048c-0.00377,-0.07786 0.18252,-0.15015 0.41608,-0.16147c0.23355,-0.01133 0.42597,0.04263 0.42974,0.12048z" fill="#fdfdfd" stroke="none" stroke-width="0" stroke-linecap="butt"/><path d="M238.38054,167.78301c0,0 -0.54458,0.07212 -1.56485,0.42542c-1.116,0.38647 -1.26214,0.8024 -1.26214,0.8024c0,0 -0.16683,-3.03062 0.32751,-3.08912c0.7093,-0.08393 2.49949,1.8613 2.49949,1.8613z" fill="#fec267" stroke="none" stroke-width="0" stroke-linecap="butt"/><g stroke="none" stroke-width="0" stroke-linecap="butt"><path d="M240.35149,172.78625c0.27068,0.08103 0.22644,0.72005 0.0054,1.45848c-0.22104,0.73845 -0.5352,1.29665 -0.80586,1.21564c-0.30072,-0.09003 -0.22644,-0.72005 -0.0054,-1.45848c0.22104,-0.73845 0.50515,-1.30566 0.80586,-1.21565z" fill="#005c2d"/><path d="M240.1266,173.5374c0.10786,0.03228 0.12282,0.30059 0.03341,0.5993c-0.08941,0.29869 -0.24933,0.51465 -0.35719,0.48237c-0.10786,-0.03229 -0.12282,-0.30059 -0.03341,-0.5993c0.08941,-0.2987 0.24933,-0.51466 0.35719,-0.48238z" fill="#000000"/><path d="M240.18959,173.32708c0.10787,0.03231 0.15301,0.19974 0.10087,0.37396c-0.05214,0.17425 -0.18188,0.28931 -0.28974,0.25704c-0.10786,-0.03231 -0.15301,-0.19974 -0.10087,-0.37396c0.05215,-0.17425 0.18189,-0.28931 0.28975,-0.25704z" fill="#ffffff"/></g><g stroke="none" stroke-width="0" stroke-linecap="butt"><path d="M243.80029,175.23933c-0.22318,0.47551 -0.49104,0.82021 -0.66532,0.73841c-0.19364,-0.09088 -0.08028,-0.50807 0.14291,-0.98359c0.22318,-0.47551 0.47168,-0.8293 0.66532,-0.73841c0.17429,0.08179 0.08028,0.50807 -0.14291,0.98359z" fill="#005c2d"/><path d="M243.67848,175.14674c-0.09028,0.19235 -0.21977,0.32185 -0.28923,0.28925c-0.06946,-0.03259 -0.05257,-0.21495 0.0377,-0.40729c0.09028,-0.19235 0.21977,-0.32185 0.28923,-0.28925c0.06946,0.03259 0.05257,0.21495 -0.0377,0.40729z" fill="#000000"/><path d="M243.77971,174.60403c0.06946,0.0326 0.08308,0.15 0.03041,0.2622c-0.05268,0.1122 -0.15166,0.17673 -0.22112,0.14413c-0.06946,-0.0326 -0.08308,-0.15 -0.03041,-0.2622c0.05268,-0.11221 0.15166,-0.17674 0.22112,-0.14414z" fill="#ffffff"/></g><path d="M236.4398,176.42005c0,0 0.49476,0.53982 0.93203,0.70936c0.43727,0.16954 1.26501,0.39751 1.26501,0.39751c0,0 -1.00192,-0.11282 -1.49637,-0.30452c-0.49444,-0.1917 -0.70067,-0.80235 -0.70067,-0.80235z" fill="#000000" stroke="#000000" stroke-width="0" stroke-linecap="butt"/><path d="M243.11894,173.19811c0.18472,0.02527 0.3759,0.9884 0.3759,0.9884c0,0 -0.19774,0.44297 -0.3589,0.70718c-0.16117,0.26423 -0.47556,0.66082 -0.47556,0.66082c0,0 -0.31428,0.05573 -0.2347,-0.52614c0.07958,-0.58187 0.50851,-1.85553 0.69324,-1.83028z" fill="#033397" stroke="none" stroke-width="0" stroke-linecap="butt"/></g><path d="M237.61324,178.67867c0.46435,0.25563 0.24102,0.12072 0.1496,0.67631c-0.09142,0.55558 -0.72629,0.25021 -0.72629,0.25021l-1.87153,-0.67721l-1.71202,2.56594l-0.9152,-0.45649l2.1441,-3.34983c0,0 2.46701,0.73543 2.93137,0.99106z" data-paper-data="{&quot;index&quot;:null}" fill="#fec267" stroke="none" stroke-width="0" stroke-linecap="butt"/><g data-paper-data="{&quot;index&quot;:null}" fill="#fdfdfd" stroke="none" stroke-width="0" stroke-linecap="butt"><g><path d="M233.34403,185.78386c-0.15181,0.24516 -1.24868,1.08736 -1.35378,1.07587c-0.1276,-0.01395 0.00307,0.08176 -0.1696,-0.04021c-0.17268,-0.12197 -0.02604,-0.37793 -0.02604,-0.37793c0,0 -0.26777,0.28499 -0.54255,0.10988c-0.27477,-0.17509 -0.24494,-0.53269 -0.24494,-0.53269c0,0 -0.29387,0.12691 -0.50294,-0.02579c-0.20906,-0.15272 -0.24998,-0.52608 -0.24998,-0.52608c0,0 -0.46562,0.09842 -0.63953,-0.02559c-0.17389,-0.124 -0.13953,-0.52924 -0.13953,-0.52924c0,0 -0.22955,0.24101 -0.58632,-0.02736c-0.27768,-0.20887 -0.10106,-0.65172 0.29853,-1.17618c0.40504,-0.53167 0.82719,-1.09662 1.00624,-1.38575c0.54258,-0.8762 1.59251,-0.56756 2.4687,-0.02498c0.41039,0.25413 0.92568,0.82292 0.87888,1.44589c-0.06273,0.83498 0.09131,1.57429 -0.19714,2.0401z"/></g><path d="M232.25863,182.44664c-0.36731,-0.19116 -1.35075,-0.63479 -1.23288,-0.93493c0.23921,-0.60911 0.66629,-0.37111 0.66629,-0.37111c0,0 -0.3914,-0.25394 0.31045,-0.56656c0.27843,-0.12404 0.86241,0.04921 1.30734,0.31472c0.44493,0.26552 1.18467,0.90154 1.06141,1.23717c-0.09499,0.25869 -0.53216,0.20617 -0.53216,0.20617c0,0 0.13633,0.40179 -0.00097,0.65168c-0.16334,0.24745 -1.25264,-0.3671 -1.57947,-0.53717z"/></g><path d="M233.15088,190.12249c0,0 1.66202,-2.70224 2.49452,-4.29749c0.8325,-1.59526 1.2444,-3.19343 1.2444,-3.19343l1.22826,1.37752l-4.19973,7.44348z" data-paper-data="{&quot;index&quot;:null}" fill="#033397" stroke="none" stroke-width="0" stroke-linecap="butt"/><g data-paper-data="{&quot;index&quot;:null}" stroke="none" stroke-width="0" stroke-linecap="butt"><path d="M250.31476,196.13148c0,0 -1.12722,1.31181 -4.35618,1.19738c-0.70266,-0.02488 -2.34265,-0.25006 -2.34265,-0.25006l-0.03025,-0.5588l-1.36503,-0.17114l-0.04687,0.40305c0,0 -0.95921,-0.25191 -1.20784,-0.36032c-0.58804,-0.25644 -1.39195,-0.66914 -1.39195,-0.66914c0,0 -0.08273,-1.45815 0.53904,-2.83267c0.24533,-0.54236 0.87159,-1.14259 5.92583,-0.07562c4.29785,0.46196 4.27585,3.31733 4.27585,3.31733z" fill="#e90023"/><path d="M250.26187,196.13678l0.01408,0.39605l-1.00837,-0.08822l-0.70795,0.29877l0.1996,0.73688l-1.16493,-0.78913l0.49148,-1.04848l1.66807,-0.64442l0.50795,1.13855z" fill="#948a92"/><path d="M242.20277,196.29432c0,0 -0.04583,-0.59088 -0.23648,-1.18703c-0.19066,-0.59616 -0.70071,-1.42537 -0.70071,-1.42537l-0.07402,-1.23945l1.40995,-0.19492c0,0 0.59465,0.89365 0.82875,2.04739c0.22064,1.08748 0.18259,2.28008 0.18259,2.28008z" fill="#deca55"/><path d="M249.73744,195.3521l-1.25963,0.84275l0.38658,1.2633l-1.78746,0.43888l-3.49258,-0.78702l-0.06966,-1.29134l3.08286,0.90377l0.42446,-1.84864l1.95381,-1.13727l1.08214,1.24701l0.44289,1.27625l-0.24695,0.33679z" fill="#edeeee"/><g><path d="M249.91973,196.05701c0.22261,0.26404 0.08677,0.79223 -0.20192,0.93397c-0.41095,0.20176 -0.7302,0.20271 -0.95281,-0.06132c-0.22261,-0.26403 -0.20865,-0.67041 0.14203,-0.92474c0.35068,-0.25431 0.79009,-0.21192 1.0127,0.05211z" fill="#ece09c"/><path d="M249.82943,196.9926c-0.28449,0.23866 -0.8061,0.21086 -0.97079,-0.03019c-0.17276,-0.25287 0.14202,-0.61277 0.35044,-0.74778c0.23379,-0.16957 0.60811,-0.14355 0.75652,0.03245c0.14842,0.17602 0.09759,0.57596 -0.13618,0.74552z" fill="#000000"/></g><path d="M243.52329,194.97332c0,0 0.05509,0.54234 0.05699,0.81325c0.00186,0.26539 -0.04569,0.79595 -0.04569,0.79595l-0.36362,-0.08759l0.10025,-2.73798c0,0 0.15454,0.4906 0.19958,0.70792c0.03767,0.18175 0.05251,0.50847 0.05251,0.50847z" fill="#6a2625"/><path d="M239.66659,194.61379c0,0 1.05717,0.2027 1.02806,0.67206c-0.0291,0.46938 -1.06674,-0.04818 -1.06674,-0.04818l0.03869,-0.62386z" fill="#eac763"/><path d="M244.10859,192.35212c0.03274,0.50787 -0.90275,0.80245 -1.73657,0.94196c-0.83382,0.13951 -1.9627,0.23495 -2.07922,-0.30347c-0.23646,-1.09268 0.35402,-1.1692 0.35402,-1.1692c0,0 -0.56855,0.01953 -0.13582,-1.10132c0.17166,-0.44464 0.86282,-0.76449 1.49141,-0.81935c0.62859,-0.05488 1.82238,0.12902 1.96087,0.72279c0.10674,0.45767 -0.35168,0.8062 -0.35168,0.8062c0,0 0.43746,0.43628 0.49699,0.92237z" fill="#fdfdfd"/></g><g data-paper-data="{&quot;index&quot;:null}" stroke="none" stroke-width="0" stroke-linecap="butt"><path d="M241.82596,197.1824c0,0 -1.2786,1.30766 -4.67811,0.96752c-0.73976,-0.07401 -2.45503,-0.42305 -2.45503,-0.42305l0.00606,-0.59171l-1.42879,-0.27333l-0.07683,0.42213c0,0 -0.99506,-0.331 -1.25006,-0.46229c-0.60309,-0.31056 -1.42336,-0.80068 -1.42336,-0.80068c0,0 0.01179,-1.5443 0.76128,-2.95249c0.29573,-0.55564 0.99737,-1.14647 6.25825,0.32285c4.50382,0.77949 4.28661,3.79106 4.28661,3.79106z" fill="#e90023"/><path d="M241.76983,197.18441l-0.01207,0.41887l-1.05805,-0.16159l-0.76734,0.26717l0.16055,0.79114l-1.17563,-0.91187l0.58987,-1.073l1.80399,-0.56668l0.45864,1.23595z" fill="#948a92"/><path d="M233.25498,196.80302c0,0 -0.00819,-0.62662 -0.16888,-1.26865c-0.16068,-0.64203 -0.64256,-1.55169 -0.64256,-1.55169l0.0061,-1.31292l1.50107,-0.10989c0,0 0.56676,0.98339 0.73539,2.21678c0.15895,1.16254 0.03775,2.41842 0.03775,2.41842z" fill="#deca55"/><path d="M241.26976,196.32076l-1.38646,0.8037l0.3221,1.35933l-1.91601,0.34167l-3.63199,-1.0678l0.01424,-1.36738l3.19172,1.16316l0.57351,-1.9219l2.13898,-1.06734l1.05718,1.3894l0.38064,1.37683l-0.28347,0.33861z" fill="#edeeee"/><g><path d="M241.41425,197.07701c0.21697,0.29374 0.03773,0.84187 -0.27653,0.97182c-0.44735,0.18498 -0.78429,0.16428 -1.00126,-0.12945c-0.21697,-0.29375 -0.17463,-0.72162 0.2127,-0.96618c0.38734,-0.24453 0.84813,-0.16993 1.0651,0.1238z" fill="#ece09c"/><path d="M241.25538,198.0581c-0.31641,0.23252 -0.86495,0.16774 -1.02236,-0.09782c-0.16512,-0.27856 0.1915,-0.63696 0.42061,-0.76526c0.25823,-0.16304 0.65145,-0.11016 0.7961,0.08565c0.14466,0.19582 0.06386,0.6144 -0.19435,0.77744z" fill="#000000"/></g><path d="M234.73817,195.49884c0,0 0.02129,0.57603 0.00489,0.86203c-0.01607,0.28018 -0.10229,0.83681 -0.10229,0.83681l-0.37776,-0.11714l0.29183,-2.88239c0,0 0.12973,0.5282 0.16249,0.76058c0.02739,0.19435 0.02086,0.54012 0.02086,0.54012z" fill="#6a2625"/><path d="M230.69292,194.85741c0,0 1.1018,0.28573 1.03918,0.77903c-0.0626,0.49332 -1.12238,-0.12332 -1.12238,-0.12332l0.0832,-0.65569z" fill="#eac763"/><path d="M235.5339,192.77264c0.00005,0.53815 -1.00713,0.78545 -1.89648,0.876c-0.88934,0.09057 -2.08705,0.11456 -2.17342,-0.46151c-0.17526,-1.16909 0.45302,-1.20971 0.45302,-1.20971c0,0 -0.60128,-0.01804 -0.06849,-1.17139c0.21135,-0.45754 0.96242,-0.74809 1.62945,-0.76327c0.66703,-0.0152 1.91425,0.25997 2.02005,0.89594c0.08153,0.4902 -0.42589,0.82684 -0.42589,0.82684c0,0 0.43197,0.49008 0.46177,1.00708z" fill="#fdfdfd"/></g></g></g></svg>