<svg version="1.1" xmlns="http://www.w3.org/2000/svg" xmlns:xlink="http://www.w3.org/1999/xlink" width="39.25025" height="29.59683" viewBox="0,0,39.25025,29.59683"><g transform="translate(-219.08009,-166.40613)"><g data-paper-data="{&quot;isPaintingLayer&quot;:true}" fill-rule="nonzero" stroke-width="0.25" stroke-linejoin="miter" stroke-miterlimit="10" stroke-dasharray="" stroke-dashoffset="0" style="mix-blend-mode: normal"><g><path d="M240.57778,175.39642c0.30239,-0.68887 0.93985,-1.11549 1.31964,-1.92101c0.38564,-0.81791 0.51633,-2.01501 1.18646,-2.75067c0.47118,-0.51726 1.64653,-0.78535 2.10875,-1.25518c0.59197,-0.60171 1.60144,-0.95656 2.13612,-1.40124c1.11962,-0.93116 1.68536,-1.48048 1.68536,-1.48048c0,0 0.42961,0.49442 0.63981,2.48368c0.06031,0.57076 0.16112,1.88933 0.15646,2.58558c-0.00337,0.50321 -0.14406,1.6221 -0.19071,2.14696c-0.05782,0.65037 -0.8184,1.86377 -0.9156,2.47956c-0.14177,0.8982 0.08326,2.0566 -0.21304,2.73159c-0.32625,0.74321 -1.06728,1.00967 -1.53027,1.50654c-0.47042,0.50485 -0.91565,0.98051 -1.52388,1.16559c-0.67445,0.20522 -1.62844,-0.04204 -2.19068,0.01806c-1.00257,0.10717 -1.55275,0.23728 -1.55275,0.23728c0,0 0.25482,-0.96734 -0.61013,-1.84711c-0.39429,-0.40104 -1.02924,-1.6691 -1.07054,-2.39514c-0.03161,-0.55577 0.24004,-1.56372 0.565,-2.304z" fill="#4a7eea" stroke="#ffffff" stroke-linecap="butt"/><path d="M242.19719,172.99168c0.53983,-1.50013 0.50244,-2.03455 1.57449,-2.57282c0.2875,-0.14435 0.95166,-0.53142 1.80197,-1.11335c0.28529,-0.19524 1.13546,-0.65247 1.88446,-1.24237c0.70998,-0.55918 1.60028,-1.30801 1.6263,-1.23159c0.08968,0.26337 0.32091,1.20903 0.39533,1.81766c0.16371,1.33881 0.5022,2.0825 0.05515,5.10441c-0.09902,0.66934 -1.14816,2.44185 -1.01246,3.80541c0.08891,0.89337 -1.81186,-0.92444 -1.81186,-0.92444l-1.53141,-1.35288l-2.35786,0.70665c0,0 -0.8712,-1.39427 -1.03815,-1.34762c-0.38817,0.10845 -0.96995,0.35458 -0.96995,0.35458c0,0 0.84542,-0.50701 1.38399,-2.00365z" fill="#bfffff" stroke="none" stroke-linecap="butt"/><path d="M248.92845,166.65903l-2.2825,5.1996l-2.77991,-1.36586l1.36948,3.08471l-2.68093,2.39657c0,0 -0.60889,-1.426 -1.07707,-1.24347c-0.44995,0.17543 -1.1233,1.54688 -1.1233,1.54688" fill="none" stroke="#ffffff" stroke-linecap="round"/><path d="M248.50427,177.9561l-1.75578,-1.37408l-0.01132,-4.68334" fill="none" stroke="#ffffff" stroke-linecap="round"/><path d="M244.36992,171.8387l1.02785,-0.85439" fill="none" stroke="#93caf5" stroke-linecap="round"/><path d="M243.91399,176.09933l1.00343,0.44048" fill="none" stroke="#93caf5" stroke-linecap="round"/><path d="M247.64274,173.05779l-0.10685,-1.24369" fill="none" stroke="#93caf5" stroke-linecap="round"/><path d="M247.59175,177.38738l0.34711,0.69637" fill="none" stroke="#93caf5" stroke-linecap="round"/><path d="M247.65477,167.94951l2.02626,3.64572l-4.48228,1.94917" fill="none" stroke="#ffffff" stroke-linecap="round"/><path d="M244.49113,170.69512l4.8219,-2.88807" fill="none" stroke="#ffffff" stroke-linecap="round"/><path d="M244.02999,174.55454l-1.34246,-3.05543" fill="none" stroke="#ffffff" stroke-linecap="round"/><path d="M249.41562,174.01738l-3.92645,1.46783l0.63855,0.28031l-0.12462,-0.7075" fill="none" stroke="#ffffff" stroke-linecap="round"/><path d="M248.07915,172.27018l-0.29598,7.15962l-4.25194,-0.95077l3.17721,-1.8058l-1.49428,-1.40723l-2.52088,0.8052l-1.45008,4.00556l3.16975,1.53651l-0.50603,-5.95223" fill="none" stroke="#ffffff" stroke-linecap="round"/></g><g data-paper-data="{&quot;index&quot;:null}"><path d="M237.69391,177.99361c0.08448,0.80404 0.03678,1.84686 -0.16233,2.3667c-0.26011,0.6791 -1.25058,1.69404 -1.74814,1.95621c-1.09151,0.5751 -1.1429,1.57412 -1.1429,1.57412c0,0 -0.48456,-0.29125 -1.40708,-0.69819c-0.51734,-0.22821 -1.50135,-0.28274 -2.08146,-0.68333c-0.52315,-0.36126 -0.80267,-0.94978 -1.0973,-1.57377c-0.28998,-0.61413 -0.91489,-1.09328 -0.99971,-1.90051c-0.07703,-0.73312 0.48959,-1.76825 0.62765,-2.66703c0.09464,-0.61618 -0.26095,-2.0034 -0.11828,-2.64055c0.11515,-0.5142 0.32135,-1.62289 0.47115,-2.10329c0.20727,-0.6647 0.70425,-1.89019 0.93525,-2.41558c0.80513,-1.83115 1.36474,-2.17152 1.36474,-2.17152c0,0 0.37192,0.69534 1.15538,1.92285c0.37415,0.58621 1.22792,1.23121 1.60889,1.98443c0.29747,0.58813 1.33565,1.20091 1.62723,1.83696c0.4147,0.90459 0.1752,2.08476 0.29388,2.98119c0.11687,0.88286 0.59442,1.48312 0.67303,2.23131z" fill="#4a7eea" stroke="#ffffff" stroke-linecap="butt"/><path d="M236.8824,175.21033c0.05798,1.58953 0.7092,2.32961 0.7092,2.32961c0,0 -0.47939,-0.41137 -0.8162,-0.63272c-0.14486,-0.0952 -1.39877,0.96814 -1.39877,0.96814l-2.03135,-1.39015l-1.87027,0.82315c0,0 -2.36351,1.15376 -2.00717,0.32973c0.5439,-1.25773 0.0834,-3.26533 0.1926,-3.93309c0.493,-3.01475 1.0416,-3.6203 1.60465,-4.84594c0.25597,-0.55718 0.7638,-1.38774 0.92931,-1.61138c0.04803,-0.06489 0.66848,0.9192 1.17481,1.66778c0.53416,0.78972 1.20505,1.48381 1.41745,1.75655c0.63311,0.81293 1.14811,1.38362 1.37811,1.60856c0.85762,0.83876 0.6595,1.33652 0.71762,2.92975z" fill="#bfffff" stroke="none" stroke-linecap="butt"/><path d="M237.63897,178.90093c0,0 -0.22444,-1.51127 -0.59975,-1.8152c-0.39051,-0.31625 -1.40418,0.85708 -1.40418,0.85708l-1.82525,-3.09829l2.24261,-2.52222l-3.0636,0.45589l-0.59336,-5.64744" fill="none" stroke="#ffffff" stroke-linecap="round"/><path d="M232.88973,172.7886l-1.43486,4.45814l-2.09046,0.77514" fill="none" stroke="#ffffff" stroke-linecap="round"/><path d="M234.44374,172.3248l0.71939,1.12648" fill="none" stroke="#93caf5" stroke-linecap="round"/><path d="M232.15455,172.46515l-0.47996,1.15232" fill="none" stroke="#93caf5" stroke-linecap="round"/><path d="M229.86424,178.3154l0.54242,-0.55784" fill="none" stroke="#93caf5" stroke-linecap="round"/><path d="M233.85489,174.82419l-3.67735,-3.21981l3.03887,-2.85697" fill="none" stroke="#ffffff" stroke-linecap="round"/><path d="M231.67999,168.10747l3.7154,4.21752" fill="none" stroke="#ffffff" stroke-linecap="round"/><path d="M236.86912,173.63934l-2.20796,2.50254" fill="none" stroke="#ffffff" stroke-linecap="round"/><path d="M232.62838,176.02155l-0.33386,0.63611l0.69355,-0.07287l-3.29421,-2.59225" fill="none" stroke="#ffffff" stroke-linecap="round"/><path d="M234.44192,177.23341l-2.29197,5.51652l3.48687,-0.49993l-0.16343,-4.25682l-2.15667,-1.5336l-1.85142,0.88623l2.47767,2.68639l-4.3397,-0.38715l1.89508,-6.9106" fill="none" stroke="#ffffff" stroke-linecap="round"/></g><g><path d="M242.80474,181.71966c0.49762,-1.15605 1.55891,-1.8774 2.18462,-3.22954c0.63533,-1.37292 0.83961,-3.37716 1.95186,-4.61591c0.78204,-0.871 2.7451,-1.33358 3.51272,-2.12512c0.98311,-1.01372 2.66762,-1.61946 3.55676,-2.3698c1.86187,-1.57119 2.80173,-2.49696 2.80173,-2.49696c0,0 0.72464,0.82197 1.10015,4.14733c0.10774,0.95411 0.2922,3.15878 0.29276,4.32361c0.0004,0.84188 -0.22154,2.71538 -0.29329,3.594c-0.08893,1.08871 -1.34676,3.12777 -1.50198,4.1591c-0.2264,1.50432 0.16396,3.43954 -0.32363,4.5723c-0.53688,1.24726 -1.77337,1.7019 -2.54196,2.53868c-0.78092,0.85022 -1.52005,1.65131 -2.53536,1.96822c-1.12584,0.35141 -2.72477,-0.0508 -3.66463,0.05648c-1.67595,0.19131 -2.5948,0.41558 -2.5948,0.41558c0,0 0.41469,-1.62134 -1.04286,-3.08276c-0.66442,-0.66619 -1.74187,-2.77994 -1.81966,-3.99405c-0.05955,-0.92938 0.38281,-2.61886 0.91757,-3.8612z" fill="#4a7eea" stroke="#ffffff" stroke-linecap="butt"/><path d="M245.48504,177.67729c0.8851,-2.51608 0.81614,-3.40968 2.60315,-4.32302c0.47924,-0.24494 1.58568,-0.90044 3.00122,-1.88416c0.47492,-0.33005 1.89171,-1.10515 3.13765,-2.101c1.18104,-0.94398 2.66146,-2.2074 2.70591,-2.07987c0.15318,0.43953 0.55136,2.01878 0.68316,3.03607c0.28994,2.23777 0.86512,3.47785 0.1535,8.53865c-0.15762,1.12095 -1.89149,4.09881 -1.64812,6.37832c0.15945,1.49347 -3.04221,-1.52479 -3.04221,-1.52479l-2.57817,-2.2449l-3.93606,1.21045c0,0 -1.47418,-2.32206 -1.75292,-2.24202c-0.64807,0.18609 -1.6184,0.60481 -1.6184,0.60481c0,0 1.40824,-0.85833 2.29127,-3.36856z" fill="#bfffff" stroke="none" stroke-linecap="butt"/><path d="M256.66999,167.00248l-3.75608,8.72593l-4.66697,-2.25164l2.32805,5.14407l-4.45625,4.04144c0,0 -1.03573,-2.37829 -1.81678,-2.06731c-0.75063,0.29887 -1.86065,2.6013 -1.86065,2.6013" fill="none" stroke="#ffffff" stroke-linecap="round"/><path d="M256.09588,185.90674l-2.95377,-2.27768l-0.07511,-7.83475" fill="none" stroke="#ffffff" stroke-linecap="round"/><path d="M249.10603,175.72237l1.70927,-1.44166" fill="none" stroke="#93caf5" stroke-linecap="round"/><path d="M244.29964,184.3591l0.85061,1.81775" fill="none" stroke="#93caf5" stroke-linecap="round"/><path d="M250.07836,183.58043l-1.68395,-0.72486" fill="none" stroke="#93caf5" stroke-linecap="round"/><path d="M252.43855,185.68507l0.63162,1.90495" fill="none" stroke="#93caf5" stroke-linecap="round"/><path d="M254.59585,177.72256l-0.19366,-2.07933" fill="none" stroke="#93caf5" stroke-linecap="round"/><path d="M254.56247,184.96625l0.58904,1.16081" fill="none" stroke="#93caf5" stroke-linecap="round"/><path d="M254.55469,169.17664l3.43351,6.07472l-7.47514,3.31458" fill="none" stroke="#ffffff" stroke-linecap="round"/><path d="M249.29509,173.80779l8.03205,-4.88937" fill="none" stroke="#ffffff" stroke-linecap="round"/><path d="M246.28745,175.17444l2.28249,5.0954" fill="none" stroke="#ffffff" stroke-linecap="round"/><path d="M257.57326,179.30662l-6.55106,2.50266l1.07161,0.46127l-0.21697,-1.1821" fill="none" stroke="#ffffff" stroke-linecap="round"/><path d="M255.31649,176.3997l-0.40927,11.98107l-7.12458,-1.53956l5.29358,-3.05908l-2.51671,-2.33627l-4.20758,1.37728l-2.37782,6.7184l5.32119,2.53245l-0.91794,-9.95158" fill="none" stroke="#ffffff" stroke-linecap="round"/><path d="M244.74529,190.84125l8.90395,-2.69955" fill="none" stroke="#ffffff" stroke-linecap="round"/></g><g data-paper-data="{&quot;index&quot;:null}"><path d="M238.12664,180.38665c0.99877,0.91204 2.09741,2.26962 2.42574,3.14111c0.42891,1.13849 0.31716,3.50837 -0.01411,4.38901c-0.7267,1.93187 0.31867,3.23874 0.31867,3.23874c0,0 -0.92971,0.17387 -2.53581,0.68946c-0.90069,0.28914 -2.19227,1.31391 -3.36296,1.45713c-1.05575,0.12915 -2.05913,-0.29663 -3.12081,-0.74999c-1.04491,-0.44619 -2.35893,-0.3515 -3.36166,-1.26715c-0.91068,-0.83159 -1.35159,-2.75593 -2.17719,-4.03367c-0.56602,-0.87598 -2.55174,-2.21645 -3.08097,-3.17202c-0.42709,-0.77118 -1.40061,-2.3872 -1.74681,-3.1546c-0.47901,-1.06178 -1.21849,-3.14691 -1.51308,-4.06078c-1.02672,-3.18511 -0.70471,-4.2325 -0.70471,-4.2325c0,0 1.23763,0.45678 3.58122,1.12219c1.1192,0.31778 2.90372,0.17636 4.21697,0.69549c1.02541,0.40535 3.00484,0.0188 4.0761,0.49063c1.52358,0.67104 2.53483,2.41347 3.67901,3.40312c1.12685,0.97467 2.391,1.19517 3.32041,2.04386z" fill="#4a7eea" stroke="#ffffff" stroke-linecap="butt"/><path d="M234.0199,177.8061c1.83811,1.92414 3.47484,2.12664 3.47484,2.12664c0,0 -1.05667,0.01785 -1.72388,0.11505c-0.28697,0.04181 -0.67453,2.76485 -0.67453,2.76485l-4.08537,0.51721l-1.42543,3.1072c0,0 -1.67527,4.06866 -2.14477,2.64196c-0.7166,-2.17759 -3.52263,-4.17764 -4.12773,-5.13431c-2.73189,-4.31913 -2.7182,-5.68604 -3.37518,-7.84475c-0.29867,-0.98135 -0.58592,-2.58449 -0.62725,-3.04811c-0.012,-0.13452 1.85727,0.40743 3.3222,0.78152c1.54543,0.39464 3.15568,0.51777 3.72436,0.62305c1.695,0.31377 2.97318,0.45567 3.51076,0.48161c2.00455,0.09671 2.30958,0.93947 4.15198,2.86809z" fill="#bfffff" stroke="none" stroke-linecap="butt"/><path d="M239.06573,181.58276c0,0 -1.95943,-1.64132 -2.76654,-1.60469c-0.83981,0.03812 -0.80465,2.63191 -0.80465,2.63191l-5.72486,-1.84862l0.00399,-5.64635l-3.32625,3.97323l-7.01521,-6.406" fill="none" stroke="#ffffff" stroke-linecap="round"/><path d="M226.33504,179.21131l3.15684,7.171l-1.75423,3.2917" fill="none" stroke="#ffffff" stroke-linecap="round"/><path d="M229.91519,177.51517l-2.1512,-0.61019" fill="none" stroke="#93caf5" stroke-linecap="round"/><path d="M237.85086,183.40749l-0.02688,2.00675" fill="none" stroke="#93caf5" stroke-linecap="round"/><path d="M232.26396,185.07675l1.23624,-1.35381" fill="none" stroke="#93caf5" stroke-linecap="round"/><path d="M230.97945,187.96641l0.20858,1.99606" fill="none" stroke="#93caf5" stroke-linecap="round"/><path d="M225.05604,179.62328l0.67949,1.97469" fill="none" stroke="#93caf5" stroke-linecap="round"/><path d="M228.74793,188.18567l-0.05895,1.30037" fill="none" stroke="#93caf5" stroke-linecap="round"/><path d="M229.8035,180.68584l-8.17685,0.05657l0.62832,-6.94957" fill="none" stroke="#ffffff" stroke-linecap="round"/><path d="M228.95473,175.84817l-9.33267,-1.14933" fill="none" stroke="#ffffff" stroke-linecap="round"/><path d="M232.25829,175.8555l0.01749,5.58324" fill="none" stroke="#ffffff" stroke-linecap="round"/><path d="M229.59908,183.5461l0.2889,1.16661l0.7867,-0.86152l-7.00047,0.41608" fill="none" stroke="#ffffff" stroke-linecap="round"/><path d="M233.21394,183.04778l3.26017,9.44711l3.80687,-4.49846l-4.93273,-5.14384l-4.4015,0.47695l-1.3318,3.16517l6.08354,0.60866l-5.8591,4.336l-5.30518,-10.75028" fill="none" stroke="#ffffff" stroke-linecap="round"/><path d="M230.88742,190.70361l9.22579,-1.20526" fill="none" stroke="#ffffff" stroke-linecap="round"/></g><g><path d="M233,186.5c0,-1.2586 0.68961,-2.34079 0.72973,-3.83014c0.04074,-1.51225 -0.56405,-3.43395 -0.0322,-5.01152c0.37395,-1.10923 1.99416,-2.31027 2.38628,-3.34081c0.5022,-1.31982 1.80996,-2.54222 2.32999,-3.58297c1.08895,-2.17931 1.5862,-3.40124 1.5862,-3.40124c0,0 0.99058,0.46849 2.65027,3.37443c0.47619,0.83377 1.5173,2.78587 1.97836,3.85557c0.33323,0.77312 0.87011,2.58172 1.15159,3.41712c0.34877,1.03516 -0.00038,3.4054 0.26481,4.41406c0.38682,1.47126 1.51052,3.09446 1.51052,4.3277c0,1.3579 -0.95598,2.26438 -1.3311,3.33686c-0.38113,1.0897 -0.74331,2.11775 -1.55059,2.81027c-0.89517,0.76791 -2.52284,1.03065 -3.3437,1.50079c-1.46375,0.83835 -2.21906,1.40764 -2.21906,1.40764c0,0 -0.26014,-1.65319 -2.17674,-2.41925c-0.87368,-0.34921 -2.69906,-1.86473 -3.25055,-2.94916c-0.42215,-0.83011 -0.68382,-2.55683 -0.68382,-3.90937z" fill="#4a7eea" stroke="#ffffff" stroke-linecap="butt"/><path d="M233.86365,181.72728c-0.18182,-2.66101 -0.59847,-3.45454 0.68182,-5c0.34335,-0.41446 1.10046,-1.45401 2.01172,-2.91725c0.30573,-0.49093 1.30062,-1.76304 2.05131,-3.17036c0.71158,-1.33402 1.57185,-3.07982 1.6631,-2.98025c0.31448,0.34315 1.30461,1.63629 1.82789,2.51858c1.15108,1.9408 2.16969,2.85242 3.51697,7.78222c0.29842,1.09193 -0.1168,4.51269 1.00801,6.51024c0.73694,1.30874 -3.39719,-0.19773 -3.39719,-0.19773l-3.25568,-1.04263l-3.13676,2.66805c0,0 -2.27215,-1.55 -2.49653,-1.36628c-0.52169,0.42716 -1.2474,1.19541 -1.2474,1.19541c0,0 0.95413,-1.34518 0.77273,-4z" fill="#bfffff" stroke="none" stroke-linecap="butt"/><path d="M239.91667,167.5v9.5l-5.17695,-0.22296l4.1722,3.80447l-2.49526,5.47404c0,0 -1.89166,-1.775 -2.48611,-1.18055c-0.5713,0.5713 -0.68055,3.125 -0.68055,3.125" fill="none" stroke="#ffffff" stroke-linecap="round"/><path d="M246.86364,185.09091l-3.61364,-0.92424l-3.16667,-7.16667" fill="none" stroke="#ffffff" stroke-linecap="round"/><path d="M236.41667,178.5l1,-2" fill="none" stroke="#93caf5" stroke-linecap="round"/><path d="M235.41667,188.33333l1.5,1.33333" fill="none" stroke="#93caf5" stroke-linecap="round"/><path d="M238.58333,185.33333h1.83333" fill="none" stroke="#93caf5" stroke-linecap="round"/><path d="M244.75,187.83333l-1.33333,-1.5" fill="none" stroke="#93caf5" stroke-linecap="round"/><path d="M242.25,178.16666l-1,-1.83333" fill="none" stroke="#93caf5" stroke-linecap="round"/><path d="M245.08333,184.83333l1,0.83333" fill="none" stroke="#93caf5" stroke-linecap="round"/><path d="M238.83334,170.33334l5.55555,4.22222l-5.55555,6" fill="none" stroke="#ffffff" stroke-linecap="round"/><path d="M235.83334,176.66667l5.44445,-7.66666" fill="none" stroke="#ffffff" stroke-linecap="round"/><path d="M233.61111,179.11111l4.11111,3.77778" fill="none" stroke="#ffffff" stroke-linecap="round"/><path d="M245.61111,178.44445l-5.02778,4.88888h1.16667l-0.66667,-1" fill="none" stroke="#ffffff" stroke-linecap="round"/><path d="M242.38889,176.66667l4.36111,11.16666l-7.15277,1.40278l3.65277,-4.90278l-3.23535,-1.15086l-3.3202,2.92864l0.47222,7.11111l5.88889,0.22223l-4.77777,-8.77778" fill="none" stroke="#ffffff" stroke-linecap="round"/><path d="M238.38889,194.11111l7.11111,-6" fill="none" stroke="#ffffff" stroke-linecap="round"/></g></g></g></svg>