<svg version="1.1" xmlns="http://www.w3.org/2000/svg" xmlns:xlink="http://www.w3.org/1999/xlink" width="37.04201" height="23.37988" viewBox="0,0,37.04201,23.37988"><g transform="translate(-221.47901,-168.31006)"><g data-paper-data="{&quot;isPaintingLayer&quot;:true}" fill-rule="nonzero" stroke-linejoin="miter" stroke-miterlimit="10" stroke-dasharray="" stroke-dashoffset="0" style="mix-blend-mode: normal"><path d="M248.64883,175.9134l2.89727,0.76777c0,0 0.53462,1.01928 0.72032,1.70293c0.1857,0.68365 0.1556,1.62408 0.1556,1.62408l-5.99668,-0.05118c0,0 1.50336,-1.2729 1.89894,-1.99229c0.33572,-0.61053 0.32454,-2.05131 0.32454,-2.05131z" fill="#21609f" stroke="#000000" stroke-width="0" stroke-linecap="butt"/><path d="M252.12294,178.31908l1.8167,0.76777v1.58673l-1.8167,0.92133c0,0 0.19465,-1.17834 0.19465,-1.74029c0,-0.52786 -0.19465,-1.53554 -0.19465,-1.53554z" fill="#21609f" stroke="#000000" stroke-width="0" stroke-linecap="butt"/><path d="M248.31324,181.97264c-0.4029,-0.72915 -1.93411,-2.01932 -1.93411,-2.01932l6.10775,-0.05187c0,0 0.03066,0.95319 -0.15849,1.64611c-0.18914,0.69293 -0.73366,1.72603 -0.73366,1.72603l-2.95093,0.7782c0,0 0.01138,-1.46033 -0.33055,-2.07914z" data-paper-data="{&quot;index&quot;:null}" fill="#21609f" stroke="#000000" stroke-width="0" stroke-linecap="butt"/><path d="M255.21202,178.37027c0,0 1.78091,-0.05734 2.36399,-0.07612c0.15843,-0.0051 -0.62674,-0.6016 -0.62674,-0.6016l1.44198,0.57535l-2.78994,1.22844l-2.13814,0.13091l-0.06785,-0.4892z" fill="#465363" stroke="none" stroke-width="0.5" stroke-linecap="butt"/><path d="M255.01737,178.67738h1.36253l-1.103,0.61422l-1.103,-0.10237z" fill="#3b4652" stroke="#000000" stroke-width="0.25" stroke-linecap="butt"/><path d="M253.52509,180.8045l0.06785,-0.4892l2.13814,0.13091l2.78994,1.22844l-1.12023,0.66709c0,0 0.61124,-0.68348 0.49147,-0.68734c-0.56413,-0.01816 -2.55047,-0.08212 -2.55047,-0.08212z" fill="#465363" stroke="none" stroke-width="0.5" stroke-linecap="butt"/><path d="M254.30367,180.75331l1.103,-0.10237l1.103,0.61422h-1.36252z" fill="#3b4652" stroke="#000000" stroke-width="0.25" stroke-linecap="butt"/><path d="M233.2232,177.7894c0,0 3.36385,-4.15502 5.81623,-5.78745c2.16622,-1.44194 7.4866,-4.16844 8.14636,-3.62009c0.81333,0.67598 2.83349,4.67669 2.70244,6.68728c-0.14631,2.24462 -3.49065,4.98713 -3.49065,4.98713l-24.91857,-0.00017l9.04522,-3.19825z" fill="#21609f" stroke="#000000" stroke-width="0" stroke-linecap="butt"/><path d="M244.29569,170.83987c1.21209,-0.3221 2.52909,0.02146 2.73997,0.71314c0.42164,1.38296 1.08212,2.30003 0.3378,5.29227c-0.33362,1.3412 -1.83511,2.20353 -10.06706,1.51299c-0.65032,-0.05455 -3.63939,-0.26051 -3.63939,-0.26051c0,0 1.285,-0.54104 2.00813,-1.03688c0.35066,-0.24045 0.81631,-0.21376 0.81631,-0.21376c0,0 1.5637,-2.29804 2.88731,-3.34234c1.32362,-1.0443 4.02504,-2.42789 4.91693,-2.6649z" fill="#000000" stroke="#000000" stroke-width="0" stroke-linecap="butt"/><path d="M240.4297,174.21792c0.76573,-0.61019 1.41052,-1.63399 3.22791,-1.87669c1.81739,-0.2427 1.90263,-0.15538 2.17788,0.1486c0.75771,0.8368 0.6241,2.00397 0.51882,3.60819c-0.03665,0.55851 -0.8897,0.93852 -1.19311,1.21939c-0.83453,0.77253 -7.22467,0.4439 -7.22467,0.4439l3.0937,-1.51656l-2.17697,-0.07507c0,0 0.81069,-1.34157 1.57642,-1.95176z" fill="#21609f" stroke="#000000" stroke-width="0" stroke-linecap="butt"/><path d="M242.00612,175.56914l-1.27615,-0.1126c0,0 2.28442,-2.13943 2.85258,-2.13943c1.24376,0 1.80162,0.03753 1.80162,0.03753c0,0 -1.35547,0.78029 -1.85888,1.1425c-0.52185,0.37548 -1.51916,1.072 -1.51916,1.072z" fill="#000000" stroke="#000000" stroke-width="0" stroke-linecap="butt"/><path d="M243.39488,175.56914c0.7896,-0.47674 1.98929,-1.27615 1.98929,-1.27615c0,0 -0.37866,1.65149 -1.46382,2.02683c-0.52894,0.18295 -2.58984,0.45041 -2.58984,0.45041c0,0 1.27476,-0.72434 2.06436,-1.20108z" fill="#000000" stroke="#000000" stroke-width="0" stroke-linecap="butt"/><path d="M230.52423,183.14214l-9.04522,-3.19825l24.91857,-0.00017c0,0 3.34434,2.7425 3.49065,4.98713c0.13105,2.0106 -1.88911,6.01131 -2.70244,6.68728c-0.65976,0.54834 -5.98013,-2.17814 -8.14636,-3.62009c-2.45238,-1.63242 -5.81623,-5.78745 -5.81623,-5.78745z" fill="#21609f" stroke="#000000" stroke-width="0" stroke-linecap="butt"/><path d="M239.37875,186.49522c-1.32362,-1.0443 -2.88731,-3.34234 -2.88731,-3.34234c0,0 -0.46564,0.02669 -0.81631,-0.21376c-0.72313,-0.49585 -2.00813,-1.03688 -2.00813,-1.03688c0,0 2.98907,-0.20596 3.63939,-0.26051c8.23195,-0.69054 9.73344,0.17179 10.06706,1.51299c0.74431,2.99224 0.08383,3.90931 -0.3378,5.29227c-0.21088,0.69168 -1.52788,1.03524 -2.73997,0.71314c-0.8919,-0.23702 -3.59332,-1.6206 -4.91693,-2.6649z" fill="#000000" stroke="#000000" stroke-width="0" stroke-linecap="butt"/><path d="M238.85328,183.83032l2.17697,-0.07507l-3.0937,-1.51655c0,0 6.39013,-0.32863 7.22467,0.4439c0.30341,0.28087 1.15646,0.66088 1.19311,1.21939c0.10527,1.60422 0.23888,2.77139 -0.51882,3.60819c-0.27525,0.30397 -0.36048,0.39129 -2.17788,0.1486c-1.81739,-0.2427 -2.46218,-1.2665 -3.22791,-1.87669c-0.76573,-0.61019 -1.57642,-1.95176 -1.57642,-1.95176z" fill="#21609f" stroke="#000000" stroke-width="0" stroke-linecap="butt"/><path d="M243.52529,185.50286c0.50341,0.36221 1.85888,1.1425 1.85888,1.1425c0,0 -0.55786,0.03753 -1.80162,0.03753c-0.56816,0 -2.85258,-2.13943 -2.85258,-2.13943l1.27615,-0.1126c0,0 0.99731,0.69652 1.51916,1.072z" fill="#000000" stroke="#000000" stroke-width="0" stroke-linecap="butt"/><path d="M241.33051,183.22978c0,0 2.06089,0.26745 2.58984,0.45041c1.08516,0.37534 1.46382,2.02683 1.46382,2.02683c0,0 -1.19969,-0.79941 -1.98929,-1.27615c-0.7896,-0.47674 -2.06436,-1.20108 -2.06436,-1.20108z" fill="#000000" stroke="#000000" stroke-width="0" stroke-linecap="butt"/><path d="M251.23945,176.62009v6.68102" fill="none" stroke="#000000" stroke-width="0.25" stroke-linecap="round"/><path d="M250.33863,183.52631v-7.13143" fill="none" stroke="#000000" stroke-width="0.25" stroke-linecap="round"/><path d="M249.51289,183.75151v-7.58183" fill="none" stroke="#000000" stroke-width="0.25" stroke-linecap="round"/><path d="M248.76221,177.37076v5.1046" fill="none" stroke="#000000" stroke-width="0.25" stroke-linecap="round"/><path d="M247.12959,179.94257l1.36989,-1.59211v3.18422z" fill="#abc598" stroke="#000000" stroke-width="0.25" stroke-linecap="butt"/></g></g></svg>