<svg version="1.1" xmlns="http://www.w3.org/2000/svg" xmlns:xlink="http://www.w3.org/1999/xlink" width="25.38499" height="36.52876" viewBox="0,0,25.38499,36.52876"><g transform="translate(-228.43239,-184.28805)"><g data-paper-data="{&quot;isPaintingLayer&quot;:true}" fill-rule="nonzero" stroke-linejoin="miter" stroke-miterlimit="10" stroke-dasharray="" stroke-dashoffset="0" style="mix-blend-mode: normal"><g data-paper-data="{&quot;index&quot;:null}"><g data-paper-data="{&quot;index&quot;:null}" stroke="none" stroke-width="0" stroke-linecap="butt"><path d="M246.66543,220.81139c-1.73284,-0.20669 -3.61691,-3.60379 -3.61691,-3.60379c-0.29887,-0.48452 -0.39908,-0.97961 -0.42836,-1.48895c-0.02549,-0.44359 0.00282,-0.89797 0.00057,-1.36559c-0.00484,-1.00452 1.08997,0.10828 1.08997,0.10828c0,0 1.67598,1.51368 2.17476,2.59572c0.53905,0.87151 2.04585,3.90531 0.77997,3.75431z" data-paper-data="{&quot;index&quot;:null}" fill="#d757d7"/><path d="M242.40003,211.70202c0,0 1.51727,3.05708 2.16271,4.14503c0.43662,0.73598 1.18231,1.88475 1.18231,1.88475c0.13374,0.3344 0.10232,1.56493 -0.5718,1.11873c-0.52993,-0.35078 -1.7264,-2.37332 -1.7264,-2.37332c0,0 -1.92873,-3.7011 -2.32184,-4.21622c-1.18962,-1.66288 -2.72092,-4.94548 -2.72092,-4.94548l1.35066,-0.57339l2.64526,4.95987z" data-paper-data="{&quot;index&quot;:null}" fill="#f8ffff"/></g><path d="M244.98278,219.03553l0.13682,-0.48619" fill="none" stroke="#000000" stroke-width="0.5" stroke-linecap="round"/><path d="M244.36904,218.2332l0.07452,-0.45125" fill="none" stroke="#000000" stroke-width="0.5" stroke-linecap="round"/></g><g data-paper-data="{&quot;index&quot;:null}"><path d="M241.1685,199.33243l0.72986,0.04837l-0.04021,4.36944l-0.81368,-0.33235z" data-paper-data="{&quot;index&quot;:null}" fill="#d757d7" stroke="#ffffff" stroke-width="0" stroke-linecap="butt"/><path d="M241.00431,199.22994c-0.20458,-0.68592 -0.21488,-4.32851 -0.21488,-4.32851l1.42581,0.68556c0,0 0.07176,2.54636 -0.25732,3.77094c-0.13619,0.50681 -0.73474,0.60582 -0.9536,-0.12798z" data-paper-data="{&quot;index&quot;:null}" fill="#ace6ff" stroke="#ffffff" stroke-width="0" stroke-linecap="butt"/><path d="M240.15685,192.91527c-0.36928,-1.71001 0.65457,-3.76156 1.04301,-3.641c1.22816,0.38124 1.55437,1.17467 2.03787,2.84285c0.58563,2.02052 -0.87861,4.10773 -1.74946,3.95355c-0.28512,-0.05047 -0.96213,-1.4454 -1.33142,-3.1554z" data-paper-data="{&quot;index&quot;:null}" fill="#f8ffff" stroke="#ffffff" stroke-width="0" stroke-linecap="butt"/><path d="M242.03975,189.78958c0,0 0.3294,1.79143 0.10552,2.92501c-0.22387,1.1336 -1.01246,2.74502 -1.01246,2.74502" data-paper-data="{&quot;index&quot;:null}" fill="none" stroke="#000000" stroke-width="0.5" stroke-linecap="round"/><path d="M241.89806,194.66543l-0.77382,-0.35682" data-paper-data="{&quot;index&quot;:null}" fill="none" stroke="#f8ffff" stroke-width="0.5" stroke-linecap="round"/><path d="M241.68736,192.9212l0.6214,0.24733" data-paper-data="{&quot;index&quot;:null}" fill="none" stroke="#f8ffff" stroke-width="0.5" stroke-linecap="round"/><path d="M242.47026,191.84105l-0.62729,-0.152" data-paper-data="{&quot;index&quot;:null}" fill="none" stroke="#f8ffff" stroke-width="0.5" stroke-linecap="round"/><path d="M241.84617,190.3474l0.47488,0.0425" data-paper-data="{&quot;index&quot;:null}" fill="none" stroke="#f8ffff" stroke-width="0.5" stroke-linecap="round"/></g><g data-paper-data="{&quot;index&quot;:null}"><g data-paper-data="{&quot;index&quot;:null}" stroke="none" stroke-width="0" stroke-linecap="butt"><path d="M253.46539,219.83106c-1.7068,0.36369 -4.58653,-2.24344 -4.58653,-2.24344c-0.43927,-0.36212 -0.69392,-0.79838 -0.88602,-1.27099c-0.1673,-0.41161 -0.28718,-0.8508 -0.44025,-1.29266c-0.32882,-0.9492 1.06658,-0.24934 1.06658,-0.24934c0,0 2.07487,0.89168 2.89619,1.75483c0.7915,0.65087 3.1969,3.03593 1.95003,3.30161z" data-paper-data="{&quot;index&quot;:null}" fill="#d757d7"/><path d="M246.488,212.58606c0,0 2.42283,2.4037 3.38487,3.22509c0.65081,0.55564 1.72739,1.40225 1.72739,1.40225c0.23451,0.27333 0.60197,1.44814 -0.18008,1.24341c-0.6148,-0.16095 -2.40006,-1.68904 -2.40006,-1.68904c0,0 -3.02012,-2.88043 -3.55846,-3.24109c-1.66267,-1.18989 -4.17159,-3.80252 -4.17159,-3.80252l1.0933,-0.97866l4.10461,3.84056z" data-paper-data="{&quot;index&quot;:null}" fill="#f8ffff"/></g><path d="M250.18179,217.62183l-0.02024,0.55751" fill="none" stroke="#000000" stroke-width="0.5" stroke-linecap="round"/><path d="M251.09677,218.63431l-0.02744,-0.50434" fill="none" stroke="#000000" stroke-width="0.5" stroke-linecap="round"/></g><g data-paper-data="{&quot;index&quot;:null}"><path d="M237.1375,194.0859c3.19716,-1.99837 5.10236,0.64767 5.27826,0.84948c0.38713,0.49807 0.63771,1.09564 0.78195,1.70683c0.24848,1.01804 0.17742,2.14239 -0.34263,3.06647c-0.29873,0.39943 -0.24495,0.35381 -0.52092,0.76224c-0.33371,0.71342 -1.09239,1.28907 -1.73607,1.6748c-0.50563,0.34056 -1.06281,0.59589 -1.64684,0.77147c-0.3817,0.09992 -0.77036,0.273 -1.17207,0.21462c-0.37333,-0.06036 -0.75241,-0.22794 -0.96426,-0.55545c-0.55877,-0.76755 -1.12556,-1.53117 -1.61297,-2.34636c-0.12186,-0.23049 -0.29031,-0.46117 -0.30749,-0.72906c0.05102,-0.26063 -1.61386,-3.00432 2.24304,-5.41506z" data-paper-data="{&quot;index&quot;:null}" fill="#a0a8a8" stroke="none" stroke-width="0.17188" stroke-linecap="butt"/><path d="M239.79509,191.35963c0.72006,-0.59125 1.36235,-0.8139 1.84347,-0.77368c0.06845,0.00555 0.06398,0.05755 0.15532,0.07838c0.11057,0.02528 0.3626,0.01335 0.31125,0.0097c0,0 0.01462,0.17827 0.06014,0.23891c0.05793,0.07705 0.21931,0.10942 0.12906,0.13706c0,0 0.12521,0.08873 0.14115,0.1388c0.17428,0.54673 0.16131,1.39752 -0.15733,2.02505c0.5284,0.24948 -2.73252,-1.19781 -2.48302,-1.85421z" data-paper-data="{&quot;index&quot;:null}" fill="#ff7fff" stroke="none" stroke-width="0.17188" stroke-linecap="butt"/><path d="M234.96634,199.30403l1.11563,2.11615l1.20037,1.52316l0.93995,1.02264c0.11068,0.1201 -1.9909,-0.07211 -2.5223,-0.27017c-0.65758,-0.24496 -1.20948,-0.61502 -1.7596,-0.98726c-0.40105,-0.27113 -0.50936,-0.41642 -0.73051,-0.65627l-0.68639,-0.74479c-0.13044,-0.14149 -0.70904,-0.91287 -0.63676,-1.15003c0.02053,-0.06729 0.83686,-0.00264 0.90077,-0.0438l0.46567,-0.30179c0.13825,-0.0894 0.37514,-0.64452 0.43666,-0.81723c0.04504,-0.1261 0.19949,-0.98165 -0.0787,-1.55531l-0.27522,-0.56744c-0.0412,-0.08498 -0.75698,-0.80369 -0.73406,-0.83841c0.04706,-0.07174 -1.24119,-0.51442 -1.19446,-0.59279c0.25966,-0.43672 0.56624,-0.97996 1.01835,-1.41296c0.71075,-0.68074 1.62498,-1.20257 2.08902,-1.47738c0.07914,-0.04686 1.09925,-0.62398 1.82025,-0.78719c1.14168,-0.25851 2.04486,0.02408 2.10189,0.03505c0.89536,0.17198 1.6957,0.5201 2.41371,1.02078l0.5163,0.47904c0.2643,0.24518 1.43817,1.48821 2.11613,2.61155c1.42676,2.36408 1.07235,4.7363 0.82901,4.75598c-0.3408,0.02787 -1.5739,-1.08508 -1.58634,-0.90636c-0.02774,0.39595 0.66478,-1.37868 0.52493,-2.33123c-0.13985,-0.95257 -1.29708,-2.67173 -1.39436,-2.80914c-0.07677,-0.1087 -0.20215,-0.15885 -0.2981,-0.06002c-0.06391,0.06572 -0.84098,0.76136 -1.0404,1.17341c-0.19942,0.41206 -0.31208,1.80164 -0.37349,1.75677c-0.02282,-0.01676 -0.469,-0.04692 -0.47864,-0.08706c-0.05799,-0.24287 -0.27768,0.53341 -0.29804,0.64554c-0.05359,0.29488 -1.22512,-0.60344 -2.18737,-0.47772c-0.96226,0.12571 -1.76193,0.63907 -1.83387,0.89388c-0.02864,0.1015 -0.15855,0.34146 -0.22562,0.46483c-0.08933,0.16404 -0.15551,0.26925 -0.15437,0.37557z" data-paper-data="{&quot;index&quot;:null}" fill="#d757d7" stroke="none" stroke-width="0.17188" stroke-linecap="butt"/><path d="M230.69219,200.06918c-0.62442,0.13865 -1.3942,-0.0461 -1.85557,-0.32751c-0.0423,-0.02571 -0.09935,-0.1577 -0.09935,-0.1577c-0.0415,0.07398 -0.04096,-0.07734 -0.09988,-0.14659c-0.04629,-0.05445 -0.20455,-0.10861 -0.20455,-0.10861c-0.00608,0.04661 0.05082,-0.17493 0.04843,-0.27916c-0.00214,-0.08618 -0.04991,-0.09417 -0.04248,-0.15658c0.05202,-0.43727 0.37053,-0.95745 1.03565,-1.46199c0.87034,-0.65996 2.10009,-0.47661 2.30332,-0.1436c0,0 -0.01926,2.54479 -1.08555,2.78172z" data-paper-data="{&quot;index&quot;:null}" fill="#ff7fff" stroke="none" stroke-width="0.17188" stroke-linecap="butt"/><path d="M232.8192,197.46762c0.07282,-0.16619 0.47,1.32838 0.25124,1.70429c-0.37628,0.64642 -0.17696,0.83165 -0.74593,0.97829c-0.12768,0.03311 -0.45702,-0.02668 -0.84107,0.03382c-0.44482,0.07027 -0.88386,0.05852 -0.80327,-0.07431l0.45519,-0.84772l0.33775,-1.80874c0.00524,-0.02813 -0.3194,-0.07782 -0.79689,-0.10997c-0.33483,-0.02261 -0.80461,-0.00519 -1.14163,0.05597c-0.19858,0.03611 0.00951,-0.34649 0.3875,-0.7568c0.18321,-0.19893 0.36775,-0.4267 0.63989,-0.5724c0.47138,-0.2522 1.1232,0.06659 1.5681,0.52151c0.4167,0.42598 0.64048,0.98647 0.68909,0.87604z" data-paper-data="{&quot;index&quot;:null}" fill="#d757d7" stroke="none" stroke-width="0.17188" stroke-linecap="butt"/><path d="M233.45785,197.03521c0.65565,1.02313 0.19074,2.56614 -0.15503,2.74492l-0.46275,0.4136l-1.00607,0.00967c-0.25762,0.00239 1.06715,-0.56126 1.16479,-1.06674c0.06382,-0.32979 0.10502,-0.57959 0.08096,-0.68007c-0.23073,-0.95732 -0.65798,-1.5946 -1.07682,-1.92414c-0.65813,-0.51783 -1.28908,-0.42756 -1.05826,-0.78077c0.55022,-0.84243 1.79657,0.16542 2.51317,1.28351z" data-paper-data="{&quot;index&quot;:null}" fill="#ace6ff" stroke="none" stroke-width="0.17188" stroke-linecap="butt"/><path d="M239.93879,192.31498c0,0 -0.42202,-0.15253 -0.73194,-0.27963c-0.64652,-0.26513 -1.35521,-0.22939 -1.33535,-0.4264c0.05179,-0.10639 0.5585,-0.25828 0.74618,-0.21896l0.38115,0.07967c0.67027,0.14026 1.19376,0.6191 1.33223,0.86151c0.05991,0.10484 0.28365,0.22641 0.31651,0.3637c0,0 -0.49752,-0.1865 -0.70879,-0.37992z" data-paper-data="{&quot;index&quot;:null}" fill="#ace6ff" stroke="none" stroke-width="0.17188" stroke-linecap="butt"/><path d="M238.9275,191.37309c0,0 0.90253,-0.58972 1.22274,-0.43595c0.21276,0.10201 0.31169,0.60126 0.51753,0.65167c0.25557,0.06261 0.73258,0.31134 1.03508,0.52385c0.19926,0.24148 0.44883,0.4368 0.5156,0.80109c0.20499,0.23223 -0.1507,1.10634 -0.22638,1.03533l-1.02876,-0.96509c-0.26102,-0.2449 -0.80981,-0.72927 -0.93488,-0.81915z" data-paper-data="{&quot;index&quot;:null}" fill="#d757d7" stroke="none" stroke-width="0.17188" stroke-linecap="butt"/><path d="M235.48328,199.1648c0.03179,-0.74542 0.90657,-1.30931 1.52312,-1.25149c0.61656,0.05782 1.09061,0.70897 1.05882,1.45439c-0.03178,0.74542 -0.55737,1.30282 -1.17392,1.245c-0.61655,-0.05782 -1.4398,-0.70249 -1.40801,-1.44791z" fill="#272d3a" stroke="none" stroke-width="0" stroke-linecap="butt"/><path d="M242.1597,195.14633c0.67746,0.31258 0.96469,1.32888 0.73418,1.90364c-0.2305,0.57475 -0.96657,0.7873 -1.64402,0.47471c-0.67745,-0.31258 -1.03977,-1.03192 -0.80926,-1.60668c0.23051,-0.57475 1.04166,-1.08426 1.71911,-0.77167z" data-paper-data="{&quot;index&quot;:null}" fill="#272d3a" stroke="none" stroke-width="0" stroke-linecap="butt"/><path d="M236.06488,199.11953l1.48481,0.37546" fill="none" stroke="#000000" stroke-width="0.25" stroke-linecap="round"/><path d="M236.84654,198.5273l-0.14541,1.57459" fill="none" stroke="#000000" stroke-width="0.25" stroke-linecap="round"/><path d="M235.58921,199.18881c-0.04459,-0.20322 0.08401,-0.40411 0.28723,-0.44869c0.20322,-0.04459 0.40411,0.08401 0.44869,0.28723c0.04459,0.20322 -0.08401,0.40411 -0.28723,0.44869c-0.20322,0.04459 -0.40411,-0.08401 -0.44869,-0.28723z" fill="#000000" stroke="none" stroke-width="0" stroke-linecap="butt"/><path d="M237.27473,199.52025c-0.04459,-0.20322 0.08402,-0.40411 0.28723,-0.44869c0.20322,-0.04459 0.40411,0.08401 0.44869,0.28723c0.04459,0.20322 -0.08401,0.40411 -0.28723,0.44869c-0.20322,0.04459 -0.40411,-0.08402 -0.44869,-0.28723z" fill="#000000" stroke="none" stroke-width="0" stroke-linecap="butt"/><path d="M236.47532,198.43344c-0.04459,-0.20322 0.08402,-0.40411 0.28724,-0.44869c0.20322,-0.04459 0.40411,0.08401 0.44869,0.28723c0.04459,0.20322 -0.08401,0.40411 -0.28723,0.44869c-0.20322,0.04458 -0.40412,-0.08402 -0.4487,-0.28723z" fill="#000000" stroke="none" stroke-width="0" stroke-linecap="butt"/><path d="M236.37396,200.20873c-0.04459,-0.20322 0.08402,-0.40411 0.28723,-0.44869c0.20322,-0.04459 0.40411,0.08401 0.44869,0.28723c0.04459,0.20322 -0.08401,0.40411 -0.28723,0.44869c-0.20322,0.04459 -0.40411,-0.08402 -0.44869,-0.28723z" fill="#000000" stroke="none" stroke-width="0" stroke-linecap="butt"/><path d="M242.41811,196.60328l-1.48481,-0.37546" fill="none" stroke="#000000" stroke-width="0.25" stroke-linecap="round"/><path d="M241.56955,197.21018l0.14541,-1.57459" fill="none" stroke="#000000" stroke-width="0.25" stroke-linecap="round"/><path d="M240.45763,196.29711c-0.04459,-0.20322 0.08401,-0.40411 0.28723,-0.44869c0.20322,-0.04459 0.40411,0.08401 0.44869,0.28723c0.04459,0.20322 -0.08401,0.40411 -0.28723,0.44869c-0.20322,0.04459 -0.40411,-0.08401 -0.44869,-0.28723z" fill="#000000" stroke="none" stroke-width="0" stroke-linecap="butt"/><path d="M242.14315,196.62854c-0.04459,-0.20322 0.08402,-0.40411 0.28723,-0.44869c0.20322,-0.04459 0.40411,0.08401 0.44869,0.28723c0.04459,0.20322 -0.08401,0.40411 -0.28723,0.44869c-0.20322,0.04459 -0.40411,-0.08402 -0.44869,-0.28723z" fill="#000000" stroke="none" stroke-width="0" stroke-linecap="butt"/><path d="M241.34374,195.54171c-0.04459,-0.20322 0.08402,-0.40411 0.28724,-0.44869c0.20322,-0.04459 0.40411,0.08401 0.44869,0.28723c0.04459,0.20322 -0.08401,0.40411 -0.28723,0.44869c-0.20322,0.04458 -0.40412,-0.08402 -0.4487,-0.28723z" fill="#000000" stroke="none" stroke-width="0" stroke-linecap="butt"/><path d="M241.24238,197.31703c-0.04459,-0.20322 0.08402,-0.40411 0.28723,-0.44869c0.20322,-0.04459 0.40411,0.08401 0.44869,0.28723c0.04459,0.20322 -0.08401,0.40411 -0.28723,0.44869c-0.20322,0.04459 -0.40411,-0.08402 -0.44869,-0.28723z" fill="#000000" stroke="none" stroke-width="0" stroke-linecap="butt"/></g><g data-paper-data="{&quot;index&quot;:null}"><path d="M235.40975,193.71984c0,0 -0.67742,-2.01557 -0.66476,-3.34737c0.01267,-1.33181 1.18326,-2.6477 1.18326,-2.6477l0.49201,0.56879c0,0 -0.92581,0.80451 -0.93415,2.07056c-0.00834,1.26605 0.55158,3.11341 0.55158,3.11341z" fill="#565e69" stroke="none" stroke-width="0" stroke-linecap="butt"/><path d="M235.47932,188.38786l1.21077,-3.46794l4.51823,-0.48532l-2.29977,3.6036z" fill="#00eb5c" stroke="none" stroke-width="0" stroke-linecap="butt"/><path d="M241.0699,184.41305l-5.4236,3.95501" fill="none" stroke="#000000" stroke-width="0.25" stroke-linecap="round"/><path d="M238.93333,188.02594l-2.06392,-0.62919l-0.24899,-2.57883" fill="none" stroke="#000000" stroke-width="0.25" stroke-linecap="round"/></g><g data-paper-data="{&quot;index&quot;:null}"><g data-paper-data="{&quot;index&quot;:null}" stroke="none" stroke-width="0" stroke-linecap="butt"><path d="M242.41378,207.23432c0,0 5.39241,0.61326 5.56019,0.54936c0.16779,-0.0639 0.35752,0.3571 0.54207,0.80257c0.18455,0.44546 0.37526,1.50681 0.37526,1.50681c0,0 -0.09616,-0.40427 -1.05364,-0.72771c-0.56667,-0.19144 -1.62659,-0.37102 -2.40141,-0.64442c-1.40568,-0.496 -3.02247,-1.4866 -3.02247,-1.4866z" fill="#d757d7"/><path d="M243.50571,207.73472c-3.93246,-1.55078 -4.28092,-3.47301 -4.28092,-3.47301c0,0 -0.23857,-0.25627 1.10688,0.31473c0.46274,0.19638 1.63582,-0.37224 4.07117,0.36891c3.11591,0.94826 3.88583,3.09866 3.88583,3.09866c0,0 -1.95247,0.80692 -4.78295,-0.30929z" fill="#f8ffff"/></g><path d="M246.39129,208.01909l0.47946,0.47946" fill="none" stroke="#000000" stroke-width="0.25" stroke-linecap="round"/><path d="M247.89814,208.49853l-0.34247,-0.47946" fill="none" stroke="#000000" stroke-width="0.25" stroke-linecap="round"/></g><g data-paper-data="{&quot;index&quot;:null}"><g data-paper-data="{&quot;index&quot;:null}" stroke="none" stroke-width="0" stroke-linecap="butt"><path d="M245.49255,214.92867c0,0 -0.61505,-1.11543 -1.4737,-1.85349c-0.85864,-0.73805 -3.38238,-2.05978 -3.38238,-2.05978l4.26675,-2.85212c0,0 1.15867,1.66625 1.52654,2.9797c0.48663,1.73743 -0.9372,3.78569 -0.9372,3.78569z" fill="#d757d7"/><path d="M245.21569,211.69167c-1.05333,1.0007 -5.19786,-0.52937 -6.47696,-2.11189c-1.36725,-1.6916 -0.73494,-5.02295 -0.73494,-5.02295l0.82068,-0.31463c0,0 0.48359,1.10372 2.35465,1.56846c2.74338,0.68142 3.19934,1.80037 3.7241,2.35262c0.52874,0.55644 1.40824,2.4874 0.31248,3.52839z" fill="#f8ffff"/></g><path d="M243.92554,212.24873l-0.41096,-0.41096" fill="none" stroke="#000000" stroke-width="0.25" stroke-linecap="round"/><path d="M244.81595,211.63229l0.34247,0.41096" fill="none" stroke="#000000" stroke-width="0.25" stroke-linecap="round"/><path d="M245.91183,211.15284l-0.54794,-0.47946" fill="none" stroke="#000000" stroke-width="0.25" stroke-linecap="round"/></g><g data-paper-data="{&quot;index&quot;:null}"><g data-paper-data="{&quot;index&quot;:null}" stroke="none" stroke-width="0" stroke-linecap="butt"><path d="M228.92344,208.73222c0,0 0.15467,-3.00383 3.46601,-3.82411c0.62696,-0.1553 -1.72184,1.54754 -1.39704,2.23423c0.32476,0.68661 3.59468,0.94861 3.59468,0.94861c0,0 -2.96005,-0.01093 -3.73189,0.1151c-0.77184,0.12603 -1.93179,0.52617 -1.93179,0.52617z" fill="#d757d7"/><path d="M240.10885,204.73489c0,0 -3.89889,3.02474 -5.47625,3.26709c-1.45625,0.22374 -4.7401,-0.62627 -4.23768,-1.58725c0.50242,-0.96098 2.80111,-2.08646 5.04146,-2.00826c1.84893,0.06454 4.67247,0.32843 4.67247,0.32843z" fill="#f8ffff"/></g><path d="M231.59677,207.18023l-0.75342,0.47946" fill="none" stroke="#000000" stroke-width="0.25" stroke-linecap="round"/><path d="M230.08991,206.97476l0.47946,-0.34247" fill="none" stroke="#000000" stroke-width="0.25" stroke-linecap="round"/></g><g data-paper-data="{&quot;index&quot;:null}"><g data-paper-data="{&quot;index&quot;:null}" stroke="none" stroke-width="0" stroke-linecap="butt"><path d="M237.28012,211.02735c0,0 -1.26386,1.47551 -2.52348,1.81572c-1.51621,0.4095 -3.6768,1.49594 -3.6768,1.49594c0,0 0.58221,-3.49292 1.21014,-4.83549c1.08445,-2.3262 2.30858,-2.6437 2.30858,-2.6437c0,0 -1.38372,3.05828 -0.89545,3.92238c0.48113,0.85149 3.57701,0.24514 3.57701,0.24514z" fill="#d757d7"/><path d="M234.50782,206.82057c0.12458,-0.09554 1.99062,-1.39298 3.41603,-1.29092c1.89183,0.13547 1.89719,-0.94327 2.26388,-0.11456c0.36668,0.82871 0.42574,2.62144 -0.68641,3.72167c-0.92569,0.91578 -2.24933,1.91027 -2.24933,1.91027c0,0 -3.23629,1.14656 -3.8004,-0.20079c-0.60082,-1.53786 0.92625,-3.92598 1.05624,-4.02566z" fill="#f8ffff"/></g><path d="M235.36389,211.35832l-0.34247,0.41096" fill="none" stroke="#000000" stroke-width="0.25" stroke-linecap="round"/><path d="M233.58307,211.56379l0.20548,-0.47945" fill="none" stroke="#000000" stroke-width="0.25" stroke-linecap="round"/><path d="M233.03513,210.12541l0.54794,-0.54794" fill="none" stroke="#000000" stroke-width="0.25" stroke-linecap="round"/></g><g data-paper-data="{&quot;index&quot;:null}"><path d="M237.78717,206.06138c-0.30427,-0.44307 -0.06637,-1.7509 0.28957,-2.80676c0.35593,-1.05586 0.95764,-1.25421 1.07941,-1.25421c0.15382,0 1.35868,-0.24869 2.06043,0.1482c0.70175,0.39689 0.46391,0.81182 0.64221,1.38034c0.1783,0.56851 0.3376,1.53269 0.32786,1.71279c-0.02505,0.46123 -1.45551,0.25457 -1.70209,0.53654c0,0 -2.33148,0.68137 -2.69739,0.28309z" data-paper-data="{&quot;index&quot;:null}" fill="#d757d7" stroke="none" stroke-width="0.17188" stroke-linecap="butt"/><path d="M239.16034,205.81078c0.61263,0 0.86005,-0.34217 1.03805,-0.04276c0.09193,0.15462 -0.5466,0.49821 -1.15798,0.46382c-0.68831,-0.17263 -1.50188,0.15139 -1.50188,0.15139l0.22399,-0.60534c0,0 0.78518,0.03289 1.39781,0.03289z" data-paper-data="{&quot;index&quot;:null}" fill="#ace6ff" stroke="none" stroke-width="0" stroke-linecap="butt"/><path d="M242.24645,205.15697l0.34058,0.49225c0,0 -0.69825,-0.197 -1.3616,0.05504c-0.60314,0.10575 -0.80044,-0.29103 -0.19203,-0.36277c0.60841,-0.07174 1.21306,-0.18453 1.21306,-0.18453z" data-paper-data="{&quot;index&quot;:null}" fill="#ace6ff" stroke="none" stroke-width="0" stroke-linecap="butt"/><path d="M239.25754,205.54767l-0.07853,0.38091" fill="none" stroke="#000000" stroke-width="0.25" stroke-linecap="round"/><path d="M238.32442,205.6045l-0.09109,0.32829" fill="none" stroke="#000000" stroke-width="0.25" stroke-linecap="round"/><path d="M241.30602,205.09404l0.03093,0.30573" fill="none" stroke="#000000" stroke-width="0.25" stroke-linecap="round"/><path d="M241.97606,204.99238l0.147,0.38175" fill="none" stroke="#000000" stroke-width="0.25" stroke-linecap="round"/></g><g data-paper-data="{&quot;index&quot;:null}" stroke="none" stroke-linecap="butt"><path d="M240.16159,202.13095c0.17022,-0.06911 0.34154,0.07628 0.48084,0.36686c0.1393,0.29058 0.24674,0.72652 0.28893,1.23856c0.04223,0.51194 0.0113,1.00389 -0.07258,1.38519c-0.08398,0.38127 -0.22099,0.65174 -0.3912,0.72085c-0.17009,0.06905 -0.34142,-0.07634 -0.48082,-0.36696c-0.1393,-0.29058 -0.24663,-0.72649 -0.28883,-1.23853c-0.04223,-0.51194 -0.01141,-1.00393 0.07258,-1.38519c0.08388,-0.3813 0.221,-0.65174 0.39108,-0.72079z" fill="#03e1b6" stroke-width="0.01872"/><path d="M240.68573,203.96674c0.01852,0.48778 -0.13593,0.88964 -0.34498,0.89758c-0.20905,0.00794 -0.39353,-0.38105 -0.41205,-0.86883c-0.01852,-0.48778 0.13593,-0.88964 0.34498,-0.89758c0.20905,-0.00794 0.39353,0.38105 0.41205,0.86883z" fill="#216375" stroke-width="0"/><path d="M240.05327,202.33462c0.07282,-0.00742 0.13081,0.06727 0.16562,0.19397c0.03489,0.12675 0.04658,0.3055 0.02688,0.50613c-0.01964,0.20068 -0.06709,0.38546 -0.12777,0.52198c-0.06074,0.13658 -0.13469,0.22486 -0.2075,0.23228c-0.07278,0.00755 -0.13075,-0.06722 -0.16563,-0.19397c-0.03489,-0.12675 -0.04658,-0.3055 -0.02692,-0.50605c0.01972,-0.20063 0.06714,-0.38554 0.12783,-0.52204c0.06074,-0.13658 0.13464,-0.22478 0.20751,-0.23227z" fill="#000000" stroke-width="0.01896"/></g><g data-paper-data="{&quot;index&quot;:null}"><path d="M238.95108,203.50879l-0.81368,0.33235l-0.04021,-4.46035l0.72987,-0.04837z" data-paper-data="{&quot;index&quot;:null}" fill="#d757d7" stroke="#ffffff" stroke-width="0" stroke-linecap="butt"/><path d="M239.20611,194.90145c0,0 -0.0103,3.64259 -0.21488,4.32851c-0.21885,0.73378 -0.81741,0.63479 -0.9536,0.12798c-0.32909,-1.22458 -0.25733,-3.77095 -0.25733,-3.77095l1.42581,-0.68556z" data-paper-data="{&quot;index&quot;:null}" fill="#ace6ff" stroke="#ffffff" stroke-width="0" stroke-linecap="butt"/><path d="M238.50728,196.07068c-0.87085,0.15419 -2.33509,-1.93302 -1.74946,-3.95355c0.48351,-1.66818 0.80971,-2.46161 2.03787,-2.84285c0.38844,-0.12056 1.41229,1.93098 1.04301,3.64099c-0.36929,1.71001 -1.0463,3.10493 -1.33142,3.15541z" data-paper-data="{&quot;index&quot;:null}" fill="#f8ffff" stroke="#ffffff" stroke-width="0" stroke-linecap="butt"/><path d="M238.86273,195.45962c0,0 -0.78858,-1.61144 -1.01246,-2.74502c-0.22388,-1.13359 0.10553,-2.92501 0.10553,-2.92501" data-paper-data="{&quot;index&quot;:null}" fill="none" stroke="#000000" stroke-width="0.5" stroke-linecap="round"/><path d="M238.87131,194.30861l-0.77382,0.35682" data-paper-data="{&quot;index&quot;:null}" fill="none" stroke="#f8ffff" stroke-width="0.5" stroke-linecap="round"/><path d="M237.68678,193.16853l0.62141,-0.24733" data-paper-data="{&quot;index&quot;:null}" fill="none" stroke="#f8ffff" stroke-width="0.5" stroke-linecap="round"/><path d="M238.15258,191.68905l-0.62729,0.152" data-paper-data="{&quot;index&quot;:null}" fill="none" stroke="#f8ffff" stroke-width="0.5" stroke-linecap="round"/><path d="M238.14938,190.3474l-0.47488,0.0425" data-paper-data="{&quot;index&quot;:null}" fill="none" stroke="#f8ffff" stroke-width="0.5" stroke-linecap="round"/></g></g></g></svg>