<svg version="1.1" xmlns="http://www.w3.org/2000/svg" xmlns:xlink="http://www.w3.org/1999/xlink" width="32.78036" height="32.87305" viewBox="0,0,32.78036,32.87305"><g transform="translate(-223.61735,-166.05556)"><g data-paper-data="{&quot;isPaintingLayer&quot;:true}" fill-rule="nonzero" stroke-linejoin="miter" stroke-miterlimit="10" stroke-dasharray="" stroke-dashoffset="0" style="mix-blend-mode: normal"><path d="M242.87272,198.67481c-0.71503,1.17712 -2.32043,-2.06521 -2.71072,-3.08721c-0.59841,-1.12346 -0.78249,-3.52948 -0.78249,-3.52948c0,0 -0.227,-1.65169 0.63438,-0.99954c0.40096,0.30359 0.81097,0.57257 1.17574,0.88046c0.41885,0.35354 0.77807,0.7584 0.99561,1.3259c0,0 1.66626,3.7985 0.68747,5.40986z" fill="#54c81c" stroke="none" stroke-width="0" stroke-linecap="butt"/><path d="M238.2026,189.18293l0.3896,-6.61619l1.50165,0.38457c0,0 -1.10023,3.76955 -0.7274,5.77983c0.09845,0.64046 1.3454,3.91877 1.3454,3.91877c0,0 0.99247,2.40336 0.87761,3.02841c-0.14613,0.7951 -0.81054,0.38819 -1.15791,-0.10372c-0.34736,-0.4919 -0.60331,-1.89686 -0.89525,-2.77398c-0.35514,-1.06703 -1.3337,-3.61769 -1.3337,-3.61769z" fill="#ffffff" stroke="none" stroke-width="0" stroke-linecap="butt"/><path d="M235.99656,198.26765c-1.24984,0.25126 0.01074,-2.89284 0.47874,-3.80447c0.41107,-1.11831 1.96129,-2.76056 1.96129,-2.76056c0,0 1.00279,-1.1964 1.0779,-0.19467c0.03496,0.46631 0.09934,0.917 0.10924,1.3612c0.01135,0.51004 -0.04915,1.01153 -0.30851,1.5183c0,0 -1.60776,3.53626 -3.31865,3.8802z" fill="#54c81c" stroke="none" stroke-width="0" stroke-linecap="butt"/><path d="M239.52351,188.8477l2.54048,-5.30339l1.01913,0.65c0,0 -1.71332,4.17618 -2.76682,5.92846c-0.35086,0.54478 -1.45629,3.5683 -1.45629,3.5683c0,0 -1.03172,2.11135 -1.53207,2.50318c-0.63647,0.49843 -0.76569,-0.72571 -0.659,-1.06968c0,0 0.65191,-1.20447 1.02857,-1.97286c0.55681,-1.13586 1.826,-4.30399 1.826,-4.30399z" fill="#ffffff" stroke="none" stroke-width="0" stroke-linecap="butt"/><g stroke="none" stroke-width="0" stroke-linecap="butt"><path d="M234.77279,187.33523c-0.30051,-1.37325 -0.52493,-2.26384 -0.52493,-2.26384l5.06956,2.91818c0,0 -0.5408,-0.81229 -1.74547,0.22319c-1.20468,1.03549 -2.3176,1.43376 -2.3176,1.43376c0,0 -0.18105,-0.93804 -0.48157,-2.31129z" fill="#54c81c"/><path d="M234.41454,184.82138c0.73623,-0.7748 0.2926,-1.67801 2.89156,-3.13404c2.62509,-0.65203 3.30357,-2.20055 3.30357,-2.20055l1.15141,0.44143c0,0 0.88714,4.67388 -1.03111,7.04718c-3.1279,0.8036 -4.94267,1.86693 -5.00382,0.04629c0,0 -2.05344,-1.41963 -1.31161,-2.20031z" fill="#ffffff"/></g><g stroke="none" stroke-width="0" stroke-linecap="butt"><path d="M247.057,185.31536c0,0 4.04319,-0.48073 4.53579,-1.52218c0.49266,-1.04159 -3.98669,-2.95782 -3.03571,-2.72225c5.02268,1.2442 7.84063,5.46712 7.84063,5.46712c0,0 -2.34085,-0.93029 -3.84679,-0.71477c-1.50593,0.21552 -5.4939,-0.50792 -5.4939,-0.50792z" fill="#54c81c"/><path d="M238.68155,180.2248c0,0 4.28279,0.26639 7.08727,0.16851c3.39819,0.21472 6.49697,2.45172 7.31363,3.87949c0.59541,1.04096 -3.88559,1.24692 -6.09445,0.90755c-2.39256,-0.36759 -8.30644,-4.95556 -8.30644,-4.95556z" fill="#ffffff"/></g><g stroke="none" stroke-width="0" stroke-linecap="butt"><path d="M235.15299,184.00892c0,0 -2.02585,1.41317 -4.14941,2.16249c-1.17053,0.41303 -2.69387,0.8618 -3.96115,1.22354c-1.26728,0.36174 -3.42508,-0.23397 -3.42508,-0.23397c0,0 1.99552,-1.0975 2.65024,-1.77636c0.65472,-0.67887 4.56543,-3.8923 4.8189,-3.79577c0.25347,0.09653 4.06651,2.42007 4.06651,2.42007z" fill="#54c81c"/><path d="M232.48143,180.71764c3.67911,-1.11965 5.11795,-0.4273 5.81701,-0.72398c2.03258,-0.86262 1.67217,-0.47547 1.67217,-0.47547c0,0 -0.52642,2.90393 -6.46723,5.24671c-4.27602,1.68626 -6.30897,1.3839 -6.30897,1.3839c0,0 0.57979,-3.99861 5.28702,-5.43116z" fill="#ffffff"/></g><g data-paper-data="{&quot;index&quot;:null}" stroke="none" stroke-width="0" stroke-linecap="butt"><path d="M242.81506,189.39427c0,0 4.53122,0.88748 5.23542,-0.35879c0.71464,-1.26473 -1.31061,-5.74094 -1.31061,-5.74094c0,0 1.79168,0.4647 3.37892,3.86941c0.91905,1.96503 3.60452,4.82737 3.60452,4.82737c0,0 -4.6623,0.49321 -6.88148,-0.10616c-1.84363,-0.49793 -4.02678,-2.49088 -4.02678,-2.49088z" fill="#54c81c"/><path d="M246.87272,183.2371c0.19025,0.14589 2.84199,4.22457 3.37927,6.22541c-0.82564,1.97203 -7.39571,-0.03944 -7.39571,-0.03944c0,0 -1.93732,-1.45557 -3.29219,-2.79593c-1.62779,-1.61034 -1.54134,-4.23423 -1.00465,-5.44716c0.53669,-1.21291 0.54452,0.36597 3.31348,0.16768c2.08627,-0.14938 4.81746,1.74962 4.99981,1.88943z" fill="#ffffff"/></g><path d="M244.4577,172.97469c0.00859,0.94975 -0.07743,1.89683 -0.15456,2.84309c-0.01022,0.38992 -0.24651,0.73044 -0.53374,0.97644c-0.31249,0.2591 -0.73442,0.31382 -1.11228,0.42736c-0.59,0.15435 -1.19861,0.22666 -1.80763,0.19935c-0.75038,0.00605 -1.69787,-0.09011 -2.35436,-0.52524c-0.44833,-0.20488 -0.37867,-0.19395 -0.84173,-0.37929c-0.9253,-0.51789 -1.57166,-1.44062 -1.88988,-2.43906c-0.19527,-0.59684 -0.29265,-1.23747 -0.22166,-1.86429c0.04502,-0.2639 0.34163,-3.40709 4.32968,-3.46865c4.21247,-0.06503 4.5701,3.97007 4.58616,4.23029z" data-paper-data="{&quot;index&quot;:null}" fill="#f0e9bb" stroke="none" stroke-width="0.17188" stroke-linecap="butt"/><path d="M239.28882,179.66548c0.14841,-0.25173 0.99992,-2.18444 0.93068,-1.892c-0.26953,1.1308 -0.19018,3.63983 -0.67718,4.81931c-0.21184,0.5139 -1.3022,1.09477 -1.82735,1.19552c-0.40087,0.12888 -1.0327,-0.33786 -0.95813,-0.7736c0.11773,-0.67316 0.98348,-0.97399 1.40645,-1.49433c0.47421,-0.58232 1.12553,-1.8549 1.12553,-1.8549z" data-paper-data="{&quot;index&quot;:null}" fill="#319a2b" stroke="none" stroke-width="0.17188" stroke-linecap="butt"/><path d="M240.61672,180.56214c-0.21644,-0.24282 -0.17368,-0.01616 -0.19567,-0.41334c-0.01729,-0.31382 -0.11077,-0.42879 -0.18319,-0.92755c-0.02292,-0.15794 0.11056,-0.57997 0.05451,-0.76215c-0.0533,-0.17235 0.22922,-0.71939 0.28916,-0.83016c0.23353,-0.43074 0.79192,-0.32006 0.92694,-0.32006c0.10689,0 0.61301,0.04613 0.69208,0.13011c0.25634,0.27241 0.32323,0.9786 0.31392,1.69625c-0.00316,0.82076 0.46274,1.28914 0.19566,1.67068c-0.32119,0.34297 -2.09341,-0.24378 -2.09341,-0.24378z" data-paper-data="{&quot;index&quot;:null}" fill="#319a2b" stroke="none" stroke-width="0.17188" stroke-linecap="butt"/><path d="M237.61529,172.61081c-0.41598,-0.42365 -0.5583,-0.4713 -0.86131,-0.20713c-0.22698,0.17767 -0.383,0.79509 -0.39571,1.21444c-0.01699,0.56033 0.12964,0.98414 0.12964,0.98414c0,0 -0.12404,-0.12706 -0.22168,-0.41893c-0.09763,-0.29187 0.0206,-0.63787 -0.1514,-0.75489c-0.18013,-0.12255 -1.02375,-0.25868 -1.02375,-0.25868c0,0 1.18552,-0.00044 1.18793,-0.07506c0.01044,-0.32358 0.20923,-0.65476 0.32553,-0.75955c0.20913,-0.18845 0.33615,-0.26181 0.61027,-0.18982c0.19654,0.05162 0.31465,0.16919 0.52276,0.38144c0.67457,0.688 0.05779,2.33696 0.05779,2.33696c0,0 0.39068,-1.80504 -0.18008,-2.25292z" data-paper-data="{&quot;index&quot;:null}" fill="#000000" stroke="none" stroke-width="0" stroke-linecap="butt"/><path d="M236.96729,172.36794c0.60616,0.20764 0.80532,0.55337 0.88745,1.10205c0.13052,0.29848 0.0266,1.4395 -0.18074,1.43449c-0.21061,-0.03294 -0.45723,-0.07261 -0.71039,-0.12755c-0.39524,-0.08573 -0.50141,-0.18913 -0.46418,-0.27076c0.02567,-0.05636 -0.0445,-0.22565 -0.07917,-0.3932c-0.03529,-0.17062 -0.03528,-0.34144 -0.03743,-0.62631c-0.00193,-0.26421 0.0396,-0.55522 0.10168,-0.75089c0.08878,-0.27904 0.23453,-0.40844 0.48279,-0.36783z" data-paper-data="{&quot;index&quot;:null}" fill="#ffffff" stroke="none" stroke-width="0.17188" stroke-linecap="butt"/><path d="M235.90345,167.7956c0.55492,0.43033 -1.47468,3.36445 -1.1536,2.87623c-0.59889,-0.36967 -1.05316,-1.08916 -1.1892,-1.64663c-0.01248,-0.05104 0.04818,-0.192 0.04818,-0.192c-0.09144,0.02342 0.02946,-0.08827 0.03877,-0.18422c0.00727,-0.07548 -0.07313,-0.23526 -0.07313,-0.23526c-0.04193,0.02986 0.17942,-0.09125 0.26063,-0.17042c0.06712,-0.06536 0.03622,-0.10741 0.09176,-0.14781c0.38973,-0.28496 1.05398,-0.4295 1.97662,-0.2999z" data-paper-data="{&quot;index&quot;:null}" fill="#ed3e67" stroke="none" stroke-width="0.17188" stroke-linecap="butt"/><path d="M244.16374,172.06154c-0.05442,-0.09135 -0.16571,-0.14669 -0.32742,-0.24017c-0.12152,-0.07037 -0.3574,-0.20754 -0.43473,-0.27925c-0.19414,-0.18003 -1.01285,-0.15211 -0.96437,-0.07437c-0.06312,0.11711 0.00613,-0.31658 -1.07321,0.6976l-1.1491,1.08026c-0.10576,0.09933 -0.52524,0.50173 -0.8586,0.61762c-0.35831,0.12458 -0.88909,0.16958 -0.93696,0.09706c0,0 -0.33439,-0.58816 -0.53374,-0.81196c-0.07579,-0.0851 -0.06771,0.10003 0.00931,0.33755c0.01268,0.03928 0.24753,0.6308 0.23679,0.65699c-0.0582,0.14085 -1.24208,-1.708 -1.30611,-1.80978l-0.39452,-0.62857c-0.13318,-0.21194 -0.34389,-0.10351 -0.43268,-0.12632c-0.13338,-0.03437 -0.21429,0.07374 -0.22319,0.20652c-0.01146,0.16796 -0.02128,0.86218 -0.03365,0.96365c-0.06505,0.53742 0.22666,1.26409 0.37345,2.02725c0.08592,0.44637 1.89243,2.04002 1.66249,1.71649c-0.10372,-0.14607 -0.10986,1.0463 -0.41529,1.20004c-0.21797,0.10996 -1.28779,-1.78186 -1.39929,-2.18569l-0.63726,-2.30588c-0.18678,-0.6752 0.14801,-2.5846 0.2459,-2.93157l0.19117,-0.67786c0.35207,-0.80142 0.85389,-1.5155 1.52859,-2.12871c0.04296,-0.03907 0.66671,-0.75078 1.77592,-1.12485c0.70047,-0.23628 1.87187,-0.27505 1.96383,-0.27628c0.53926,-0.00716 1.59149,-0.03795 2.5528,0.17287c0.61148,0.13409 1.15617,0.43809 1.60531,0.67561c0.08072,0.04256 -0.78833,1.09152 -0.71079,1.12824c0.03765,0.01769 -0.19894,1.00406 -0.18984,1.09806l0.06066,0.62774c0.06137,0.63459 0.63889,1.28443 0.74302,1.36861c0.14248,0.11538 0.63387,0.46582 0.79845,0.47012l0.55471,0.01503c0.076,0.00184 0.73913,-0.47859 0.79171,-0.43185c0.18524,0.16478 0.09318,1.12464 0.05554,1.31337l-0.19792,0.99332c-0.06382,0.31995 -0.08059,0.50038 -0.28169,0.94074c-0.27567,0.60432 -0.554,1.2077 -0.9877,1.75935c-0.35043,0.44587 -2.04422,1.70473 -2.01231,1.54455l0.26963,-1.36258l0.23118,-1.92547l-0.15006,-2.38751z" data-paper-data="{&quot;index&quot;:null}" fill="#54c81c" stroke="none" stroke-width="0.17188" stroke-linecap="butt"/><path d="M248.21076,170.4881c-1.03361,0.35321 -2.37571,-1.80898 -2.37571,-1.80898c0,-0.39013 0.95421,-1.18725 2.04092,-1.07729c0.83058,0.08419 1.37343,0.3623 1.64562,0.70845c0.03886,0.04941 0.00224,0.08111 0.04531,0.15579c0.05226,0.09022 0.21623,0.24969 0.18677,0.21307c0,0 -0.10689,0.12868 -0.11803,0.19926c-0.01422,0.08981 0.06506,0.21869 -0.0089,0.17716c0,0 0.02005,0.14239 -0.00266,0.18637c-0.24723,0.48055 -0.80807,1.03925 -1.41331,1.24618z" data-paper-data="{&quot;index&quot;:null}" fill="#ed3e67" stroke="none" stroke-width="0.17188" stroke-linecap="butt"/><path d="M245.03999,169.37541c0.09902,0.06894 -0.00194,-0.52607 0.13185,-1.10676c0.14279,-0.62008 0.53312,-1.23176 1.06686,-1.26203c0.3082,-0.01739 0.58437,0.0809 0.84439,0.15527c0.5364,0.15333 0.91333,0.37152 0.72502,0.44414c-0.31955,0.12335 -0.72962,0.3532 -1.00365,0.54693c-0.39084,0.27618 -0.64207,0.4877 -0.62294,0.50898l1.23053,1.368l0.83016,0.48649c0.13798,0.0714 -0.23066,0.31014 -0.64697,0.48188c-0.35934,0.14842 -0.60933,0.37101 -0.73556,0.40926c-0.56207,0.17123 -0.48842,-0.09073 -1.14634,-0.44649c-0.38255,-0.20692 -0.82208,-1.68958 -0.67335,-1.58566z" data-paper-data="{&quot;index&quot;:null}" fill="#54c81c" stroke="none" stroke-width="0.17188" stroke-linecap="butt"/><path d="M244.26957,169.33901c0.02925,-1.3277 0.56811,-2.83726 1.47663,-2.40479c0.38102,0.18126 -0.20458,0.43289 -0.49661,1.21774c-0.18585,0.49948 -0.21858,1.26602 0.08317,2.20339c0.03181,0.0983 0.19711,0.29008 0.42337,0.53834c0.34666,0.38061 1.77112,0.17163 1.54997,0.30379l-0.86382,0.51584l-0.61046,-0.112c-0.38829,0.02751 -1.58893,-1.04743 -1.56224,-2.26231z" data-paper-data="{&quot;index&quot;:null}" fill="#ead32e" stroke="none" stroke-width="0.17188" stroke-linecap="butt"/><path d="M235.87138,169.37942c-0.04347,-0.13431 0.08419,-0.35464 0.08071,-0.47534c-0.00808,-0.27905 0.18933,-0.96049 0.6884,-1.42938l0.28385,-0.26656c0.13972,-0.13133 0.65137,-0.26564 0.751,-0.20181c0.11958,0.15783 -0.50397,0.4965 -0.91773,1.0596c-0.19834,0.26994 -0.47912,0.61997 -0.47912,0.61997c-0.07958,0.27516 -0.40711,0.69352 -0.40711,0.69352z" data-paper-data="{&quot;index&quot;:null}" fill="#ead32e" stroke="none" stroke-width="0.17188" stroke-linecap="butt"/><path d="M236.1238,168.60447c-0.05994,0.14187 -0.27607,0.84122 -0.3713,1.18623l-0.37541,1.35971c-0.02761,0.10004 -0.78658,-0.46081 -0.73258,-0.76583c-0.13277,-0.34574 -0.02148,-0.64247 0.02281,-0.9524c0.1475,-0.33898 0.42511,-0.79978 0.61066,-0.98636c0.14945,-0.15026 -0.02618,-0.62795 0.10229,-0.82587c0.19323,-0.29807 1.27083,-0.26483 1.27083,-0.26483z" data-paper-data="{&quot;index&quot;:null}" fill="#54c81c" stroke="none" stroke-width="0.17188" stroke-linecap="butt"/><path d="M241.4318,176.71891h0.86877" data-paper-data="{&quot;index&quot;:null}" fill="none" stroke="#dfcfa3" stroke-width="0.36953" stroke-linecap="round"/><g data-paper-data="{&quot;index&quot;:null}" stroke="none" stroke-linecap="butt"><path d="M240.6803,177.44146c0.17008,0.06905 0.3072,0.33949 0.39108,0.72079c0.08399,0.38126 0.11481,0.87325 0.07258,1.38519c-0.0422,0.51204 -0.14953,0.94795 -0.28883,1.23853c-0.1394,0.29062 -0.31073,0.43601 -0.48082,0.36696c-0.17021,-0.06911 -0.30722,-0.33958 -0.3912,-0.72085c-0.08388,-0.3813 -0.11481,-0.87325 -0.07258,-1.38519c0.04219,-0.51204 0.14963,-0.94798 0.28893,-1.23856c0.1393,-0.29058 0.31062,-0.43597 0.48084,-0.36686z" fill="#eb3d66" stroke-width="0.01872"/><path d="M240.44453,177.8531c0.07825,0.02894 0.13474,0.14718 0.16299,0.31504c0.02821,0.16776 0.02807,0.38516 -0.00709,0.61203c-0.0352,0.22677 -0.0988,0.4206 -0.17323,0.5505c-0.07442,0.1299 -0.15956,0.19592 -0.23769,0.16695c-0.0782,-0.02884 -0.13472,-0.14718 -0.16297,-0.31504c-0.02821,-0.16778 -0.02813,-0.38504 0.00713,-0.61194c0.03517,-0.22687 0.09877,-0.4207 0.1732,-0.5506c0.07433,-0.12987 0.15947,-0.1958 0.23768,-0.16696z" fill="#ffffff" stroke-width="0.01896"/></g><path d="M243.16033,179.10533c-1.18947,-0.33975 1.08194,0.46335 0.11947,-0.34252c-0.77283,-0.67362 -2.46844,-1.43421 -2.11376,-1.63667c0.35472,-0.2026 2.18348,1.16166 3.43599,1.58017c0.79154,0.26466 1.1499,2.00893 0.08398,2.34288c-0.98586,0.30886 -1.26535,-0.50241 -1.46234,0.00583c-0.15169,0.39368 0.32994,-1.83741 -0.06334,-1.94968z" data-paper-data="{&quot;index&quot;:null}" fill="#319a2b" stroke="none" stroke-width="0.17188" stroke-linecap="butt"/><g data-paper-data="{&quot;index&quot;:null}" stroke="none" stroke-width="0.17188" stroke-linecap="butt"><path d="M239.85277,180.12968c-0.05996,1.15741 -0.29031,2.24035 -0.80817,3.25831c-0.17127,0.33652 -0.7636,0.28752 -1.12517,0.14266c-0.46752,-0.18623 -1.12058,-0.53677 -1.10417,-1.03024c0.02531,-0.75099 0.84053,-1.23499 1.15905,-1.93666c0.50421,-1.11011 1.69054,-3.09241 2.05052,-3.20496c0.35986,-0.11261 -0.14185,1.82485 -0.17206,2.7709z" fill="#319a2b"/><path d="M236.91212,184.12961c0.00278,0.00981 0.54458,1.04102 0.73522,1.16557c0.32071,0.20973 0.39496,-0.40126 0.68711,-0.02933c0.21664,0.27585 0.0771,0.61255 0.14411,0.84366c0.07668,0.26351 -0.27112,0.63162 -0.55283,0.73891c-0.15652,0.05958 -0.31883,-0.10933 -0.31464,-0.06806c0.02852,0.27914 -0.22581,0.55997 -0.48366,0.51692l-0.56115,-0.09345c-0.52866,-0.23724 -1.07447,-0.62649 -1.41162,-0.7537c-0.79171,-0.26035 -0.70433,-1.17135 -0.72879,-1.01623c0.26461,-0.72428 1.0472,-1.47452 1.86827,-1.7263c0.16857,-0.04569 0.50006,-0.01326 0.61795,0.422z" fill="#f0e9bb"/><path d="M238.13383,183.21113c0.20246,0.18279 0.9778,-0.10666 0.73153,-0.05145c-0.0493,0.01106 0.23682,-0.12861 0.27755,0.06235c0.02662,0.12554 -0.18364,0.54982 -0.20386,0.70526c-0.04663,0.35904 -0.34722,0.74014 -0.49106,1.06049c-0.13548,0.30147 -0.56606,0.43198 -0.72199,0.467c-0.22538,0.05089 -0.41169,-0.38406 -0.61303,-0.78941c-0.24485,-0.49302 -0.55457,-0.80521 -0.57784,-0.82361c0,0 -0.45247,-0.30278 -0.58233,-0.21044c0.41422,-0.30536 0.34605,-1.40499 0.79318,-1.67384c0.24487,-0.12839 1.18806,1.07315 1.38787,1.25365z" fill="#ead42f"/></g><g data-paper-data="{&quot;index&quot;:null}" stroke="none" stroke-width="0.17188" stroke-linecap="butt"><path d="M241.94813,179.91452c0.24499,0.42253 0.01719,0.7023 -0.14647,0.79713c-0.81969,0.43975 -1.99355,0.46981 -2.7525,0.1212c0.13798,0.09946 -0.62951,-0.52787 -0.2262,-1.33546c0.15917,-0.35637 0.27584,-1.07305 0.49638,-1.66064l0.35593,-0.50296c0.16348,-0.23118 0.57343,-0.21276 0.76645,0.02201c0.02857,0.0347 0.02234,-0.21898 0.18752,-0.29396c0.29733,-0.13494 0.84571,-0.12186 0.98996,0.13805c0.12671,0.22777 0.49215,0.37712 0.53918,0.7541c0.06342,0.50833 -0.46329,0.09963 -0.54644,0.50626c-0.04955,0.24164 0.33073,1.44467 0.33617,1.45428z" fill="#f0e9bb"/><path d="M243.58619,179.67488c-0.01346,0.29134 0.19184,1.93304 -0.09363,2.02352c-0.54775,0.13902 -1.34173,-0.75178 -1.89249,-0.66592c0.17004,-0.0295 0.28208,-0.60846 0.28208,-0.60846c0.0036,-0.03194 -0.00047,-0.50826 -0.19307,-1.0725c-0.15834,-0.46396 -0.35094,-0.93888 -0.13995,-1.07349c0.14585,-0.09327 0.57452,-0.32502 0.90975,-0.1994c0.35611,0.13357 0.87848,0.19285 1.19026,0.43073c0.13501,0.10297 0.62172,0.26467 0.698,0.38087c0.11588,0.17692 -0.20973,0.29057 -0.16363,0.26107c0.23024,-0.14737 -0.58358,0.22843 -0.5973,0.52355z" fill="#ead42f"/></g><g data-paper-data="{&quot;index&quot;:null}" stroke="none" stroke-linecap="butt"><path d="M236.96933,175.04244c-0.25026,0 -0.45314,-0.42916 -0.45314,-0.95856c0,-0.5294 0.20288,-0.95856 0.45314,-0.95856c0.25026,0 0.45314,0.42916 0.45314,0.95856c0,0.5294 -0.20288,0.95856 -0.45314,0.95856z" fill="#008ae6" stroke-width="0"/><path d="M236.97401,173.25833c0.07882,0.00751 0.14831,0.09815 0.19679,0.23878c0.04832,0.14064 0.07575,0.33112 0.07057,0.5381c-0.00505,0.20684 -0.04175,0.39133 -0.097,0.52226c-0.0551,0.1309 -0.1288,0.20825 -0.20772,0.20089c-0.07892,-0.00734 -0.14829,-0.09815 -0.19677,-0.23877c-0.04835,-0.14064 -0.07579,-0.33112 -0.07075,-0.53808c0.0052,-0.20685 0.04188,-0.39135 0.09713,-0.52227c0.05512,-0.13091 0.1288,-0.20826 0.20772,-0.2009z" fill="#000000" stroke-width="0.0278"/><path d="M237.11842,173.49625c0.04207,0.09778 0.067,0.23122 0.06483,0.37734c-0.00203,0.14592 -0.0307,0.27689 -0.0755,0.37069c-0.04461,0.09378 -0.10533,0.15045 -0.17136,0.1474c-0.066,-0.00305 -0.12505,-0.06522 -0.16694,-0.16303c-0.04207,-0.09778 -0.067,-0.23123 -0.06482,-0.37735c0.00203,-0.14592 0.03069,-0.27689 0.07549,-0.37069c0.04461,-0.09377 0.10533,-0.15044 0.17136,-0.14739c0.066,0.00306 0.12505,0.06521 0.16695,0.16302z" fill="#ffffff" stroke-width="0.01811"/></g><path d="M235.06721,173.17001l0.66667,-0.02564l0.10256,0.15385z" data-paper-data="{&quot;index&quot;:null}" fill="#000000" stroke="none" stroke-width="0" stroke-linecap="butt"/><path d="M241.06897,173.2328c0.35637,-0.51369 0.6619,-0.65129 1.01899,-0.65129c0.50009,0 0.79537,0.76866 0.81319,1.38581c0.02,0.6926 -0.32037,1.01971 -0.32037,1.01971c0,0 -0.44393,0.13011 -0.93532,0.15374c-0.31485,0.01504 -0.66508,-0.01872 -0.92479,-0.01872c-0.25019,-0.027 0.26074,-1.76302 0.3483,-1.88925z" data-paper-data="{&quot;index&quot;:null}" fill="#ffffff" stroke="none" stroke-width="0.17188" stroke-linecap="butt"/><g data-paper-data="{&quot;index&quot;:null}" stroke="none" stroke-linecap="butt"><path d="M241.21932,175.37577c-0.25025,0 -0.45313,-0.42916 -0.45313,-0.95856c0,-0.5294 0.20288,-0.95856 0.45313,-0.95856c0.25025,0 0.45313,0.42916 0.45313,0.95856c0,0.5294 -0.20288,0.95856 -0.45313,0.95856z" fill="#008ae6" stroke-width="0"/><path d="M241.22401,173.59167c0.07883,0.00751 0.14831,0.09815 0.19679,0.23877c0.04832,0.14064 0.07575,0.33112 0.07057,0.53811c-0.00505,0.20684 -0.04175,0.39133 -0.097,0.52225c-0.05511,0.13089 -0.1288,0.20825 -0.20772,0.20089c-0.07892,-0.00735 -0.14829,-0.09815 -0.19677,-0.23877c-0.04835,-0.14064 -0.07579,-0.33112 -0.07075,-0.53808c0.0052,-0.20685 0.04188,-0.39135 0.09713,-0.52227c0.05512,-0.13091 0.1288,-0.20827 0.20772,-0.20091z" fill="#000000" stroke-width="0.0278"/><path d="M241.36842,173.82959c0.04207,0.09779 0.067,0.23123 0.06483,0.37735c-0.00203,0.14592 -0.03069,0.27689 -0.07549,0.37069c-0.04461,0.09379 -0.10533,0.15045 -0.17136,0.1474c-0.066,-0.00305 -0.12505,-0.06523 -0.16695,-0.16303c-0.04207,-0.09779 -0.067,-0.23123 -0.06483,-0.37735c0.00203,-0.14592 0.03069,-0.27689 0.07549,-0.37069c0.04461,-0.09377 0.10533,-0.15044 0.17136,-0.14739c0.066,0.00307 0.12505,0.06521 0.16695,0.16301z" fill="#ffffff" stroke-width="0.01811"/></g><path d="M242.14493,175.14627c0,0 -0.03262,0.54938 -0.43938,0.6276c-0.40676,0.07823 -0.95305,-0.63138 -0.95305,-0.63138l0.46708,0.04595z" data-paper-data="{&quot;index&quot;:null}" fill="#f0e9bb" stroke="none" stroke-width="0" stroke-linecap="butt"/><path d="M240.60836,175.0801c0,0 -0.0558,-1.42945 0.61877,-2.11745c0.20811,-0.21225 0.375,-0.3786 0.57155,-0.43023c0.27411,-0.07199 0.4987,0.00137 0.70783,0.18982c0.1163,0.10479 0.31509,0.43598 0.32552,0.75955c0.00241,0.07462 1.18793,0.07506 1.18793,0.07506c0,0 -0.84362,0.13614 -1.02374,0.25869c-0.172,0.11702 -0.05377,0.46302 -0.1514,0.75489c-0.09763,0.29187 -0.22167,0.41893 -0.22167,0.41893c0,0 0.14663,-0.42381 0.12964,-0.98414c-0.01271,-0.41935 -0.16873,-1.03677 -0.39571,-1.21444c-0.30301,-0.26416 -0.61607,-0.19212 -1.03205,0.23153c-0.57075,0.44788 -0.71667,2.05779 -0.71667,2.05779z" data-paper-data="{&quot;index&quot;:null}" fill="#000000" stroke="none" stroke-width="0" stroke-linecap="butt"/><path d="M237.85378,174.83581c0,0 -0.13578,0.53333 -0.55,0.53333c-0.41422,0 -0.81666,-0.8 -0.81666,-0.8l0.45,0.13333z" fill="#f0e9bb" stroke="none" stroke-width="0" stroke-linecap="butt"/></g></g></svg>