<svg version="1.1" xmlns="http://www.w3.org/2000/svg" xmlns:xlink="http://www.w3.org/1999/xlink" width="38" height="31.66729" viewBox="0,0,38,31.66729"><g transform="translate(-217.3797,-163.30546)"><g data-paper-data="{&quot;isPaintingLayer&quot;:true}" fill-rule="nonzero" stroke-linejoin="miter" stroke-miterlimit="10" stroke-dasharray="" stroke-dashoffset="0" style="mix-blend-mode: normal"><path d="M244.66863,185.87801c0.13807,0.66737 0.772,1.34339 0.53848,1.94774c-0.17449,0.45204 -0.96124,0.4778 -1.34458,0.176c-0.45729,-0.36828 -0.4368,-1.2028 -0.55295,-1.809c-0.08213,-0.43387 -0.21596,-0.94036 -0.04667,-1.33622c0.24331,-0.65723 0.7438,-1.85616 1.22441,-0.50373c0.08741,0.45392 0.07881,1.03181 0.18132,1.5252z" data-paper-data="{&quot;index&quot;:null}" fill="#005613" stroke="none" stroke-width="0.65663" stroke-linecap="round"/><path d="M247.82079,191.93464c-0.39283,0.44817 -0.90994,0.81016 -1.54614,1.03742c-0.75778,0.27014 -1.5275,0.4079 -1.94235,-0.08937c-0.73138,-0.87546 -0.55539,-1.88824 -0.71574,-2.37635c-0.16034,-0.48811 -0.22722,-0.91104 -0.57999,-1.28866c-0.35276,-0.37762 -0.64251,-1.08369 -0.53802,-1.30036c0.14718,-0.30466 0.08743,-0.07326 0.68943,-0.38649c0.60201,-0.31324 0.91649,-0.45621 1.67446,-0.71403c0.75796,-0.25783 0.23966,-0.10128 0.71535,-0.1517c0.13746,-0.0013 0.6218,0.42632 0.85505,0.67825c0.23325,0.25193 0.23329,0.46554 0.46357,0.74599c0.23028,0.28045 0.51045,0.45881 0.67434,0.63988c0.4407,0.52001 1.6349,1.49879 1.34961,1.94413c-0.54333,0.93428 -1.59753,-0.43619 -1.64661,-0.32715c-0.04939,0.11034 0.66549,0.02567 0.9631,0.80053c0.09984,0.40783 -0.10152,0.38975 -0.41607,0.78791z" data-paper-data="{&quot;index&quot;:null}" fill="#a8c8d8" stroke="none" stroke-width="0.67216" stroke-linecap="round"/><g data-paper-data="{&quot;index&quot;:null}"><path d="M230.44645,188.72345c-0.35438,1.27794 -0.34301,4.54667 -0.34301,4.54667c0,0 -0.62391,0.20671 -0.59016,-1.03868c0.01955,-0.72129 0.27647,-2.48342 0.62787,-3.63715c0.42124,-1.38303 1.77475,-3.88319 1.77475,-3.88319l0.82466,-0.01376c0,0 -2.0415,3.11502 -2.29411,4.02611z" fill="#989898" stroke="#989898" stroke-width="0" stroke-linecap="round"/><path d="M234.00329,186.53516c0.14762,0.84919 -0.25373,3.06645 -0.25373,3.06645l-2.97173,-1.84899c0,0 0.68411,-1.7509 1.34038,-2.6463c0.3119,-0.42527 0.71212,-0.61916 1.30367,0.00197c0.41612,0.43694 0.48431,0.87302 0.58141,1.42688z" fill="#f82020" stroke="none" stroke-width="1.13968" stroke-linecap="round"/><path d="M230.8311,187.67818c0,0 2.77314,0.48411 2.93,1.78643c0.08035,0.73159 -0.91116,2.6905 -1.39049,3.20748c-0.4824,0.5199 -1.7111,0.75394 -2.29527,0.65722c-0.34315,-0.05676 -0.25802,-0.80444 -0.22983,-1.24295c0.07173,-1.0936 0.2929,-2.38468 0.55577,-3.34357c0.26287,-0.9589 0.42984,-1.06462 0.42984,-1.06462z" fill="#f8f8f8" stroke="none" stroke-width="1.15102" stroke-linecap="round"/><path d="M235.82279,186.77165c-0.02075,0.36726 0.01303,2.12804 -0.26141,2.60667c-0.21155,0.36895 -0.80402,-0.15608 -0.80402,-0.15608c0,0 -0.59346,0.20503 -0.71663,0.19807c-0.46434,-0.02624 -0.13755,-1.32931 -0.08752,-2.21445c0.01001,-0.17701 -0.20965,-1.04805 -0.11821,-1.55457c0.05441,-0.30144 0.05857,-0.58383 0.45751,-0.79936c0.41088,-0.22198 0.55204,0.40734 0.55204,0.40734c0,0 0.42708,-0.6479 0.92319,-0.11856c0.43675,0.466 0.07924,1.20303 0.05506,1.63094z" fill="#ffffff" stroke="none" stroke-width="0" stroke-linecap="butt"/></g><path d="M233.25469,187.35637c0.13406,-1.37419 0.1136,-2.38915 0.46162,-2.3552c0.12685,0.01237 0.12641,1.08111 -0.00765,2.4553c-0.13406,1.37418 -0.08664,2.11267 -0.21349,2.1003c-0.34801,-0.03394 -0.37454,-0.82622 -0.24048,-2.20041z" data-paper-data="{&quot;index&quot;:null}" fill="#424242" stroke="none" stroke-width="0" stroke-linecap="butt"/><path d="M236.99501,186.05232c0.36,-0.4811 -0.0547,-1.3017 0.3044,-1.7794c0.2006,-0.268 0.8477,-0.3606 1.004,-0.0852c0.3957,0.7044 0.3791,1.6079 0.3326,2.4196c-0.0254,0.4538 -0.1931,0.9526 -0.5726,1.1504c-0.6184,0.3308 -1.4755,0.5232 -2.1297,0.1995c-0.4199,-0.2025 -0.5774,-0.9612 -0.3455,-1.4122c0.2293,-0.439 1.1007,-0.0853 1.4068,-0.4927z" data-paper-data="{&quot;index&quot;:null}" fill="#e88820" stroke="none" stroke-width="0.49091" stroke-linecap="round"/><path d="M234.341,187.17795c0.27124,-0.41447 1.10381,0.02282 1.44827,-0.35263c0.4054,-0.44361 0.07304,-1.30088 0.47713,-1.74106c0.22588,-0.24717 0.87892,-0.27592 1.00751,0.01342c0.32484,0.73979 0.21986,1.6373 0.09418,2.44055c-0.06969,0.44914 -0.28548,0.92908 -0.68246,1.08886c-0.64771,0.26863 -1.51956,0.37626 -2.139,-0.01001c-0.39801,-0.24267 -0.48049,-1.01305 -0.20562,-1.43913z" data-paper-data="{&quot;index&quot;:null}" fill="#f8b820" stroke="none" stroke-width="0.49091" stroke-linecap="round"/><path d="M242.31681,189.76196c-0.08499,0.47702 -0.85233,0.65252 -1.28625,0.42946c-0.51919,-0.27419 -0.66332,-1.1108 -0.88816,-1.67015c-0.16286,-0.41027 -0.23975,-0.87989 -0.30092,-1.30273c-0.13142,-0.91475 -0.46046,-1.91118 -0.18321,-2.74759c0.1344,-0.38565 0.88401,-0.36702 1.10643,-0.02863c0.35849,0.54604 0.05608,1.37626 0.18251,2.04799c0.09594,0.5099 0.27435,0.99779 0.46917,1.46253c0.26294,0.62874 1.01426,1.1713 0.90043,1.80912z" data-paper-data="{&quot;index&quot;:null}" fill="#089c4e" stroke="none" stroke-width="0.65663" stroke-linecap="round"/><path d="M244.90159,193.61902c-0.38051,0.45868 -0.88758,0.83461 -1.51736,1.07907c-0.75016,0.29064 -1.51587,0.44928 -1.94408,-0.03653c-0.7549,-0.85527 -0.6065,-1.87246 -0.78006,-2.35602c-0.17356,-0.48358 -0.25192,-0.90454 -0.61482,-1.27242c-0.36289,-0.36789 -0.67173,-1.06581 -0.57317,-1.28526c0.13886,-0.30854 0.08542,-0.0756 0.67869,-0.40509c0.59327,-0.32949 0.90375,-0.48096 1.65443,-0.75929c0.75067,-0.27834 0.23682,-0.10776 0.71097,-0.17109c0.13737,-0.00505 0.63317,0.40925 0.87318,0.65475c0.24002,0.2455 0.24585,0.45901 0.48367,0.73311c0.23782,0.2741 0.52273,0.44478 0.69148,0.62133c0.45468,0.50784 1.67504,1.4538 1.40196,1.90672c-0.51773,0.94871 -1.58514,-0.12697 -1.63123,-0.01665c-0.04637,0.11166 0.64227,-0.25804 0.96084,0.50844c0.11089,0.40495 -0.09089,0.39237 -0.3945,0.79892z" data-paper-data="{&quot;index&quot;:null}" fill="#ffffff" stroke="none" stroke-width="0.67216" stroke-linecap="round"/><path d="M235.00378,175.14451c0,-1.70864 -2.43331,-4.33621 -2.51236,-5.2306c-0.09865,-1.11609 3.11029,-0.02077 3.11029,-0.02077c0,0 3.07861,-0.19222 2.87875,0.62371c-0.18121,0.73975 -2.3331,3.03621 -2.3331,5.04466c0,5.97059 0.32063,6.9421 0.32063,6.9421c0,0 -0.08485,0.49691 -0.30752,-0.07576c-0.35754,-0.91952 -1.15669,-3.60412 -1.15669,-7.28335z" data-paper-data="{&quot;index&quot;:null}" fill="#e2a026" stroke="none" stroke-width="0" stroke-linecap="butt"/><path d="M238.04016,175.35302c0,3.45674 -0.88422,6.06914 -1.29197,7.04764c-0.29653,0.7116 -0.26929,0.21858 -0.26929,0.21858c0,0 0.21456,-0.87861 0.21456,-6.84921c0,-2.00845 -1.93709,-4.95512 -2.15048,-5.69487c-0.23536,-0.81593 3.08336,0.02651 3.08336,0.02651c0,0 2.29167,-0.81665 2.1755,0.29943c-0.0931,0.89439 -1.76167,3.2433 -1.76167,4.95194z" data-paper-data="{&quot;index&quot;:null}" fill="#e2a026" stroke="none" stroke-width="0" stroke-linecap="butt"/><path d="M236.37971,163.30547c10.49341,0 19,2.31852 19,5.17857c0,2.86005 -8.50659,5.17857 -19,5.17857c-10.49341,0 -19,-2.31852 -19,-5.17857c0,-2.86005 8.50659,-5.17857 19,-5.17857z" data-paper-data="{&quot;index&quot;:null}" fill-opacity="0.90196" fill="#e3a127" stroke="none" stroke-width="0" stroke-linecap="butt"/><path d="M236.46291,185.86921c-0.97535,-0.8409 -1.1538,-1.81247 -0.88439,-2.93127c0.12106,-0.4123 0.98027,-0.80934 1.78555,-0.92624c0.94398,-0.1296 2.06949,-0.07219 2.94861,0.17571c1.57511,0.4442 3.11428,0.9734 4.49121,1.62c0.34407,0.1615 0.24557,0.3495 0.12041,0.4909c-0.47804,0.6058 -0.93434,1.3112 -1.84467,1.6445c-0.91277,0.3334 -2.10525,0.2435 -3.16802,0.2455c-0.67805,0.00287 -1.51541,0.37747 -2.22796,0.33358c-0.50197,-0.03093 -0.94199,-0.41346 -1.22073,-0.65269z" data-paper-data="{&quot;index&quot;:null}" fill="#089c4e" stroke="none" stroke-width="0.49091" stroke-linecap="round"/><path d="M237.64838,184.28487c0.1229,0.88547 0.27895,2.33835 -0.01692,2.33835c-0.29586,0 -0.23527,-1.34151 -0.35902,-2.23308c-0.12375,-0.89157 -0.5609,-2.26316 -0.26504,-2.26316c0.29586,0 0.51808,1.27242 0.64097,2.15789z" data-paper-data="{&quot;index&quot;:null}" fill="#000000" stroke="#000000" stroke-width="0" stroke-linecap="butt"/><path d="M241.41744,186.55265c-0.23545,0 -0.42632,-0.19087 -0.42632,-0.42632c0,-0.23544 0.19087,-0.42631 0.42632,-0.42631c0.23544,0 0.42631,0.19086 0.42631,0.42631c0,0.23545 -0.19086,0.42632 -0.42631,0.42632z" data-paper-data="{&quot;index&quot;:null}" fill="#ffffff" stroke="none" stroke-width="0" stroke-linecap="butt"/><path d="M242.6841,186.41931c-0.23545,0 -0.42632,-0.19086 -0.42632,-0.42631c0,-0.23545 0.19087,-0.42632 0.42632,-0.42632c0.23545,0 0.42632,0.19087 0.42632,0.42632c0,0.23544 -0.19087,0.42631 -0.42632,0.42631z" data-paper-data="{&quot;index&quot;:null}" fill="#ffffff" stroke="none" stroke-width="0" stroke-linecap="butt"/><path d="M245.41395,185.09809l1.34103,1.78567l-1.77074,-1.24853l-0.22515,1.01229l-1.55214,-1.25561l-1.74169,1.04606l0.50356,-1.67368l-1.40529,0.13765c0,0 1.88512,-0.80167 2.85498,-0.72408c0.77793,0.06224 2.2103,0.49052 2.2103,0.49052l0.64457,0.376z" data-paper-data="{&quot;index&quot;:null}" fill="#cf0000" stroke="none" stroke-width="0" stroke-linecap="butt"/><path d="M235.43737,182.93792c0.12287,-0.4123 1.23337,-0.75053 1.23337,-0.75053l0.5215,4.20498c0,0 -0.17282,0.05562 -0.85729,-0.52318c-0.9899,-0.8409 -1.17101,-1.81247 -0.89758,-2.93127z" data-paper-data="{&quot;index&quot;:null}" fill="#f8b820" stroke="none" stroke-width="0.49091" stroke-linecap="round"/><g data-paper-data="{&quot;index&quot;:null}"><path d="M231.83289,185.27716c0,0 -2.05896,3.1035 -2.31669,4.01316c-0.36155,1.27592 -0.36854,4.54466 -0.36854,4.54466c0,0 -0.62507,0.20321 -0.58432,-1.04197c0.02361,-0.72118 0.29041,-2.48184 0.64829,-3.63358c0.429,-1.38064 1.79653,-3.87316 1.79653,-3.87316l0.82472,-0.00913z" fill="#989898" stroke="#989898" stroke-width="0" stroke-linecap="round"/><path d="M233.08526,187.12201c0.14284,0.85 -0.27095,3.06497 -0.27095,3.06497l-2.96129,-1.86564c0,0 0.69393,-1.74704 1.35523,-2.63873c0.31428,-0.42352 0.71558,-0.61516 1.30364,0.00929c0.41365,0.43927 0.47939,0.87573 0.57338,1.43013z" fill="#f82020" stroke="none" stroke-width="1.13968" stroke-linecap="round"/><path d="M229.90671,188.24715c0,0 2.77038,0.49966 2.91992,1.80285c0.07623,0.73204 -0.92624,2.68535 -1.40848,3.19962c-0.48532,0.5172 -1.71532,0.74433 -2.29893,0.64433c-0.34282,-0.05868 -0.25349,-0.80586 -0.22284,-1.24421c0.07787,-1.09318 0.30629,-2.383 0.57453,-3.34039c0.26824,-0.95741 0.43581,-1.06219 0.43581,-1.06219z" fill="#f8f8f8" stroke="none" stroke-width="1.15102" stroke-linecap="round"/><path d="M234.90346,187.3687c-0.02283,0.36713 0.00108,2.12807 -0.27605,2.60516c-0.21363,0.36777 -0.80314,-0.16059 -0.80314,-0.16059c0,0 -0.59461,0.2017 -0.71774,0.19405c-0.46419,-0.02886 -0.13009,-1.33007 -0.07509,-2.21492c0.011,-0.17696 -0.20377,-1.04921 -0.10948,-1.55521c0.05611,-0.30111 0.06184,-0.58349 0.46199,-0.79677c0.41212,-0.21969 0.54974,0.41043 0.54974,0.41043c0,0 0.43071,-0.64549 0.92384,-0.11338c0.43412,0.46845 0.07248,1.20344 0.04589,1.63122z" fill="#ffffff" stroke="none" stroke-width="0" stroke-linecap="butt"/></g><path d="M243.14833,172.6631c-2.96117,1.16119 -5.53039,-0.34742 -5.53039,-0.34742c0,0 3.19578,0.32697 4.69013,0.07393c0.59482,-0.10072 3.37614,-1.36996 3.37614,-1.36996c0,0 -2.21726,0.99775 -3.2864,1.12934c-1.06914,0.13159 -2.73273,-0.38854 -2.73273,-0.38854c0,0 2.1729,-0.17265 3.02776,-0.3724c0.85486,-0.19974 2.09307,-0.82412 2.09307,-0.82412c0,0 -1.13104,0.3824 -1.64381,0.41287c-0.51278,0.03047 -1.29449,-0.23826 -1.29449,-0.23826c0,0 0.84625,-0.25085 1.29883,-0.40363c0.45258,-0.15278 1.1487,-0.4226 1.1487,-0.4226c0,0 -0.71116,0.00959 -1.04719,-0.03686c-0.33602,-0.04646 -0.83986,-0.22401 -0.83986,-0.22401l1.49632,-0.52755l1.07303,-0.59657c0,0 -0.61869,0.15437 -0.84292,0.16863c-0.22423,0.01426 -0.5703,-0.07878 -0.5703,-0.07878c0,0 0.29986,-0.14328 0.44485,-0.25393c0.14499,-0.11065 0.32631,-0.33459 0.32631,-0.33459l-0.74282,-0.22918l0.80886,-0.54072l-0.50453,-0.32784l0.9603,-0.51912l-0.3278,0.62098l0.59662,-0.14608c0,0 -0.237,0.25732 -0.36575,0.36204c-0.1731,0.1408 -0.72139,0.44178 -0.72139,0.44178c0,0 0.41426,0.03851 0.62096,0.03203c0.16272,-0.0051 0.51916,-0.06779 0.51916,-0.06779c0,0 -0.20275,0.28803 -0.39662,0.43535c-0.19387,0.14733 -0.554,0.28698 -0.554,0.28698c0,0 0.27555,0.02001 0.58936,0.0089c0.31382,-0.0111 0.8025,-0.05817 0.8025,-0.05817c0,0 -0.50223,0.49358 -0.87905,0.73332c-0.37682,0.23974 -1.0364,0.48534 -1.0364,0.48534c0,0 0.66973,0.06178 0.98679,0.04067c0.28431,-0.01892 0.91134,-0.11781 0.91134,-0.11781c0,0 -0.50249,0.40365 -0.98169,0.64539c-0.47919,0.24174 -1.28241,0.49678 -1.28241,0.49678c0,0 1.12909,-0.19832 1.73623,-0.37515c0.53421,-0.15559 1.7159,-0.63023 1.7159,-0.63023c0,0 -1.16596,1.00811 -1.80538,1.32573c-0.7537,0.37438 -2.43066,0.77843 -2.43066,0.77843c0,0 1.91206,-0.3969 2.87519,-0.81973c0.54119,-0.23761 2.40849,-1.4999 2.40849,-1.4999c0,0 -0.98312,1.23555 -2.33503,2.18237c-0.85571,0.5993 -2.28129,1.06111 -2.35524,1.0901z" data-paper-data="{&quot;index&quot;:null}" fill="#dcdce1" stroke="none" stroke-width="0" stroke-linecap="butt"/><path d="M238.20392,172.1668c0.47618,-1.42479 0.97228,-3.13282 1.57528,-3.29382c0.508,-0.135 3.53805,3.42515 4.00805,3.57715c0.795,0.258 0.98333,0.1 1.78333,-0.05c0.683,-0.18 1.73735,-1.05413 2.43333,-1.6c0.69598,-0.54587 1.82254,-1.52231 1.96854,-0.95431c0.329,0.67367 -0.07521,1.73739 -0.35,2.93764c-0.27479,1.20025 -0.79954,2.068 -0.86854,2.75c-0.186,1.807 0.423,4.85167 -0.65,6.31667c-0.908,1.238 -3.076,1.091 -4.65,0.95c-1.949,-0.174 -4.571,-0.133 -5.6,-1.8c-1.209,-1.96 -0.05,-5.68333 -0.05,-5.68333c0,0 -0.07618,-1.72521 0.4,-3.15z" data-paper-data="{&quot;index&quot;:null}" fill="#f8b820" stroke="none" stroke-width="1" stroke-linecap="round"/><path d="M247.63331,177.10011c0.1221,-0.318 0.5774,-0.554 0.7765,-0.3c0.2972,0.378 0.2887,1.086 0.2823,1.65c0.0064,1.027 0.0459,2.137 -0.2823,3.05c-0.1115,0.31 -0.5661,0.024 -0.7059,-0.3c-0.228,-0.531 -0.1659,-1.229 -0.1765,-1.85c-0.0127,-0.747 -0.1207,-1.559 0.1059,-2.25z" data-paper-data="{&quot;index&quot;:null}" fill="#ffffff" stroke="none" stroke-width="0.86553" stroke-linecap="round"/><path d="M239.10549,174.65938c-0.2362,-0.14613 0.42573,-4.86656 0.73313,-4.98336c0.273,-0.10157 1.68286,1.31006 1.91526,1.76935c0.2214,0.43774 1.04604,0.97541 0.98074,1.46671c-0.02652,0.1855 -0.89015,0.28249 -1.62826,0.63523c-0.73811,0.35274 -1.88251,1.18473 -2.00088,1.11208z" data-paper-data="{&quot;index&quot;:null}" fill="#ffffff" stroke="none" stroke-width="0.85185" stroke-linecap="butt"/><path d="M242.70391,180.19911c-0.0133,-0.6487 -0.0151,-1.3321 0.1778,-1.9389c0.1253,-0.4046 0.4613,-0.7169 0.7555,-0.9957c0.2143,-0.1844 0.4889,-0.3259 0.7556,-0.4192c0.2587,-0.0881 0.4729,-0.1038 0.7111,-0.1048c0.1991,-0.0011 0.4471,-0.0839 0.4889,0.1048c0.2382,0.4915 0.208,1.0764 0.2222,1.6245c0.0329,1.2776 0.3298,2.7177 -0.0889,3.9303c-0.1858,0.5377 -0.9315,0.4444 -1.4222,0.4716c-0.4551,0.0095 -1.0711,0.0702 -1.3333,-0.3668c-0.3796,-0.633 -0.2507,-1.5092 -0.2667,-2.3058z" data-paper-data="{&quot;index&quot;:null}" fill="#ffffff" stroke="none" stroke-width="0.97175" stroke-linecap="round"/><path d="M241.15648,181.45018c0.672,0.513 1.28,0.79933 2.1,0.93333c0.835,0.149 1.83175,0.06722 2.58333,-0.33333c0.85,-0.453 2.17033,-0.67633 2.93333,-0.13333c0.437,0.311 0.07158,1.64383 -0.44242,1.97083c-0.82947,0.78885 -1.91237,1.1208 -2.66818,1.1875c-0.83269,0.04276 -2.04603,-0.07357 -2.91571,-0.2591c-0.86968,-0.18553 -1.70434,-0.654 -2.10702,-0.8659c-0.36488,-0.19222 -2.5936,0.11418 -2.5936,0.11418l0.53194,-0.83632l-1.59292,-0.95734c0,0 1.63062,-0.27036 1.50458,-0.37052c-0.674,-0.536 -1.14195,-0.98708 -1.14195,-0.98708c0,0 0.71128,0.36741 1.27528,0.07041c0.286,-0.15 -0.98869,-0.4082 -1.24569,-0.6882c-0.339,-0.37 2.76303,0.37987 3.77903,1.15487z" data-paper-data="{&quot;index&quot;:null}" fill="#f8f8f8" stroke="none" stroke-width="1" stroke-linecap="round"/><path d="M248.88169,181.94433c0.23535,0.12162 -0.44373,0.70806 -0.80265,0.70806c-0.35892,0 -0.86369,-0.58644 -0.62833,-0.70806c0.23535,-0.12162 0.26942,-0.19695 0.62833,-0.19695c0.35892,0 0.5673,0.07534 0.80265,0.19695z" data-paper-data="{&quot;index&quot;:null}" fill="#101010" stroke="none" stroke-width="1" stroke-linecap="butt"/><path d="M245.23991,184.75544l-1.7512,-0.778" data-paper-data="{&quot;index&quot;:null}" fill="none" stroke="#cccccc" stroke-width="0.36953" stroke-linecap="round"/><path d="M245.29841,179.27411c0.1613,0 0.3067,0.1486 0.4129,0.3885c0.1051,0.241 0.1709,0.5722 0.1709,0.9384c0,0.3662 -0.0658,0.6974 -0.1709,0.9384c-0.1062,0.2399 -0.2516,0.3885 -0.4129,0.3885c-0.1614,0 -0.3068,-0.1486 -0.413,-0.3885c-0.105,-0.241 -0.1709,-0.5722 -0.1709,-0.9384c0,-0.3662 0.0659,-0.6974 0.1709,-0.9384c0.1062,-0.2399 0.2516,-0.3885 0.413,-0.3885z" data-paper-data="{&quot;index&quot;:null}" fill="#4088ed" stroke="none" stroke-width="1.0615" stroke-linecap="butt"/><path d="M245.28421,179.69752c0.108,0 0.2055,0.0928 0.2761,0.243c0.0711,0.1501 0.1146,0.3571 0.1146,0.5859c0,0.2288 -0.0435,0.4358 -0.1146,0.586c-0.0706,0.1501 -0.1681,0.243 -0.2761,0.243c-0.108,0 -0.2056,-0.0929 -0.2762,-0.243c-0.0711,-0.1502 -0.1146,-0.3572 -0.1146,-0.586c0,-0.2288 0.0435,-0.4358 0.1146,-0.5859c0.0706,-0.1502 0.1682,-0.243 0.2762,-0.243z" data-paper-data="{&quot;index&quot;:null}" fill="#000000" stroke="none" stroke-width="0.47368" stroke-linecap="butt"/><path d="M245.35401,179.94372c0.0491,0 0.0938,0.0382 0.1255,0.0996c0.0323,0.0615 0.0523,0.1462 0.0523,0.24c0,0.0938 -0.02,0.1785 -0.0523,0.24c-0.0317,0.0614 -0.0764,0.0996 -0.1255,0.0996c-0.0492,0 -0.0938,-0.0382 -0.1255,-0.0996c-0.0323,-0.0615 -0.0524,-0.1462 -0.0524,-0.24c0,-0.0938 0.0201,-0.1785 0.0524,-0.24c0.0317,-0.0614 0.0763,-0.0996 0.1255,-0.0996z" data-paper-data="{&quot;index&quot;:null}" fill="#ffffff" stroke="none" stroke-width="0.64678" stroke-linecap="butt"/><path d="M248.07121,179.2992c0.1434,0 0.2727,0.1321 0.3671,0.3454c0.0934,0.2142 0.1519,0.5085 0.1519,0.8341c0,0.3255 -0.0585,0.6199 -0.1519,0.8341c-0.0944,0.2132 -0.2237,0.3453 -0.3671,0.3453c-0.1434,0 -0.2727,-0.1321 -0.367,-0.3453c-0.0934,-0.2142 -0.1519,-0.5086 -0.1519,-0.8341c0,-0.3256 0.0585,-0.6199 0.1519,-0.8341c0.0943,-0.2133 0.2236,-0.3454 0.367,-0.3454z" data-paper-data="{&quot;index&quot;:null}" fill="#4088ed" stroke="none" stroke-width="0.94355" stroke-linecap="butt"/><path d="M248.11971,179.6922c0.096,0 0.1827,0.0825 0.2455,0.216c0.0631,0.1335 0.1019,0.3175 0.1019,0.5208c0,0.2034 -0.0388,0.3874 -0.1019,0.5209c-0.0628,0.1335 -0.1495,0.216 -0.2455,0.216c-0.096,0 -0.1828,-0.0825 -0.2455,-0.216c-0.0631,-0.1335 -0.1019,-0.3175 -0.1019,-0.5209c0,-0.2033 0.0388,-0.3873 0.1019,-0.5208c0.0627,-0.1335 0.1495,-0.216 0.2455,-0.216z" data-paper-data="{&quot;index&quot;:null}" fill="#000000" stroke="none" stroke-width="0.42105" stroke-linecap="butt"/><path d="M248.21511,179.91111c0.0437,0 0.0833,0.0339 0.1115,0.0886c0.0288,0.0546 0.0466,0.1299 0.0466,0.2132c0,0.0834 -0.0178,0.1587 -0.0466,0.2133c-0.0282,0.0547 -0.0678,0.0886 -0.1115,0.0886c-0.0437,0 -0.0834,-0.0339 -0.1116,-0.0886c-0.0287,-0.0546 -0.0465,-0.1299 -0.0465,-0.2133c0,-0.0833 0.0178,-0.1586 0.0465,-0.2132c0.0282,-0.0547 0.0679,-0.0886 0.1116,-0.0886z" data-paper-data="{&quot;index&quot;:null}" fill="#ffffff" stroke="none" stroke-width="0.57492" stroke-linecap="butt"/><path d="M249.66463,170.04556c0,0 0.02383,1.02339 -0.18916,1.83661c-0.21298,0.81323 -0.76876,1.98157 -0.9232,1.98157c-0.30125,0 -1.90909,-0.81818 -1.90909,-0.81818z" data-paper-data="{&quot;index&quot;:null}" fill="#ffffff" stroke="none" stroke-width="0" stroke-linecap="butt"/><path d="M246.84073,175.20917l2.66086,1.39433l0.83386,3.14825l-1.37638,-2.30737l-2.475,-1.68022z" data-paper-data="{&quot;index&quot;:null}" fill="#f8b820" stroke="none" stroke-width="1.22222" stroke-linecap="round"/><path d="M246.9468,174.36316c0,0 2.79088,0.02438 3.06483,0.18538c0.39055,0.2295 1.52964,2.84247 1.52964,2.84247l-2.1999,-2.02524l-2.39014,-0.17982z" data-paper-data="{&quot;index&quot;:null}" fill="#f8b820" stroke="none" stroke-width="1.22222" stroke-linecap="round"/><path d="M246.26371,173.23437c0,0 2.99539,-0.88477 3.39655,-0.87792c0.66165,0.01133 3.68049,1.87666 3.68049,1.87666c0,0 -3.25035,-0.79519 -4.23586,-0.82212c-0.98551,-0.02692 -2.4231,0.64021 -2.4231,0.64021z" data-paper-data="{&quot;index&quot;:null}" fill="#f8b820" stroke="none" stroke-width="1.22222" stroke-linecap="round"/><path d="M231.23114,163.99439c3.02102,-0.9952 5.50261,0.65356 5.50261,0.65356c0,0 -3.17271,-0.50368 -4.6788,-0.3339c-0.59948,0.06759 -3.4469,1.18064 -3.4469,1.18064c0,0 2.26918,-0.87328 3.34397,-0.94537c1.0748,-0.07209 2.70699,0.53948 2.70699,0.53948c0,0 -2.17913,0.0519 -3.04375,0.20393c-0.86462,0.15203 -2.13555,0.70679 -2.13555,0.70679c0,0 1.1505,-0.31909 1.66417,-0.32108c0.51367,-0.00198 1.27928,0.30968 1.27928,0.30968c0,0 -0.85886,0.20353 -1.31921,0.33098c-0.46035,0.12744 -1.17036,0.35825 -1.17036,0.35825c0,0 0.71061,0.02986 1.04354,0.09488c0.33293,0.06502 0.82614,0.27023 0.82614,0.27023l-1.52328,0.44377l-1.10445,0.53615c0,0 0.62629,-0.11984 0.85097,-0.12164c0.22467,-0.0018 0.56506,0.11028 0.56506,0.11028c0,0 -0.30735,0.12642 -0.45825,0.22887c-0.15092,0.10245 -0.34438,0.31598 -0.34438,0.31598l0.72898,0.27003l-0.83761,0.49503l0.48558,0.35531l-0.98761,0.46507l0.36172,-0.60185l-0.6038,0.11277c0,0 0.25089,-0.24377 0.38525,-0.3412c0.18063,-0.13098 0.74478,-0.40109 0.74478,-0.40109c0,0 -0.41149,-0.06143 -0.61824,-0.06642c-0.16276,-0.00392 -0.52213,0.03891 -0.52213,0.03891c0,0 0.21841,-0.27635 0.42015,-0.41269c0.20174,-0.13634 0.56906,-0.25581 0.56906,-0.25581c0,0 -0.27402,-0.03527 -0.58796,-0.04157c-0.31395,-0.00631 -0.8045,0.01358 -0.8045,0.01358c0,0 0.52882,-0.46496 0.91836,-0.68344c0.38953,-0.21848 1.06172,-0.42712 1.06172,-0.42712c0,0 -0.66528,-0.09882 -0.98302,-0.09533c-0.28491,0.00313 -0.91647,0.06709 -0.91647,0.06709c0,0 0.52411,-0.37516 1.01597,-0.58996c0.49186,-0.21479 1.30799,-0.4249 1.30799,-0.4249c0,0 -1.13835,0.13542 -1.75436,0.2783c-0.54203,0.12572 -1.74822,0.53409 -1.74822,0.53409c0,0 1.22005,-0.9419 1.87611,-1.22357c0.7733,-0.33202 2.47009,-0.64245 2.47009,-0.64245c0,0 -1.93112,0.29026 -2.91621,0.65902c-0.55353,0.20721 -2.48796,1.36402 -2.48796,1.36402c0,0 1.05012,-1.17914 2.45246,-2.04953c0.88763,-0.55092 2.33663,-0.93296 2.41207,-0.95781z" data-paper-data="{&quot;index&quot;:null}" fill="#dcdce1" stroke="none" stroke-width="0" stroke-linecap="butt"/><path d="M250.16989,165.67485c-0.12325,-0.35387 0.23042,0.18305 0.23042,0.18305c0,0 0.29659,0.74735 0.33495,1.09115c0.03836,0.34381 -0.11513,0.87891 -0.11513,0.87891c0,0 -0.19819,-0.56042 -0.31672,-0.85947c-0.11852,-0.29905 -0.32425,-0.75783 -0.32425,-0.75783c0,0 0.03123,0.47796 0.0117,0.70557c-0.01953,0.22761 -0.12139,0.57265 -0.12139,0.57265l-0.40694,-0.98796l-0.4386,-0.70087c0,0 0.12538,0.41072 0.14278,0.56102c0.0174,0.1503 -0.03312,0.3863 -0.03312,0.3863c0,0 -0.10681,-0.19668 -0.18628,-0.29033c-0.07948,-0.09367 -0.2364,-0.20782 -0.2364,-0.20782l-0.12826,0.50758l-0.39185,-0.52515l-0.2029,0.35074l-0.3826,-0.62776l0.42906,0.19882l-0.11904,-0.39617c0,0 0.18133,0.15044 0.25624,0.23337c0.10073,0.11151 0.32226,0.46978 0.32226,0.46978c0,0 0.01146,-0.27995 -0.0001,-0.41874c-0.0091,-0.10926 -0.06369,-0.3468 -0.06369,-0.3468c0,0 0.20079,0.12631 0.30662,0.25157c0.10583,0.12526 0.2123,0.3626 0.2123,0.3626c0,0 0.00386,-0.18601 -0.01455,-0.39668c-0.01841,-0.21066 -0.06709,-0.53769 -0.06709,-0.53769c0,0 0.34945,0.32057 0.52382,0.56565c0.17437,0.24508 0.36252,0.68012 0.36252,0.68012c0,0 0.01823,-0.45258 -0.00702,-0.66508c-0.02264,-0.19055 -0.11099,-0.60882 -0.11099,-0.60882c0,0 0.28898,0.32389 0.46826,0.63775c0.17929,0.31386 0.3788,0.84517 0.3788,0.84517c0,0 -0.17273,-0.75246 -0.3128,-1.15463z" data-paper-data="{&quot;index&quot;:null}" fill="#dcdce1" stroke="none" stroke-width="0" stroke-linecap="butt"/><path d="M242.1695,170.46549l-0.68134,1.07368l-1.58573,-0.52439c0,0 0.36597,1.87017 -0.29984,1.87017c-0.16218,0 -1.37499,-0.3165 -1.37499,-0.3165l-0.9077,1.33553l-1.14246,-0.98529l-2.07692,3.60864c0,0 0.12083,-2.83047 0.58753,-5.06382c0.3671,-1.7567 0.82453,-3.17888 1.59334,-3.17888c0.78873,0 2.30239,-0.0054 3.41593,0.53097c1.3518,0.65114 2.47218,1.6499 2.47218,1.6499z" data-paper-data="{&quot;index&quot;:null}" fill="#23d892" stroke="none" stroke-width="0" stroke-linecap="butt"/><path d="M244.33682,172.81156c-2.64064,0.69469 -1.57107,0.64774 -3.37926,1.33501c-1.6061,0.61045 -2.62405,2.06031 -3.60569,1.77581c-0.46181,-0.13385 -0.21371,-1.21336 -0.21371,-1.21336l-0.54073,-1.54223l0.97224,0.60602l0.09369,-1.58626l1.87753,0.49643c0,0 0.02514,-0.61652 0.00991,-0.99685c-0.01523,-0.38033 -0.08873,-0.97129 -0.08873,-0.97129l2.12267,0.64193l-0.24494,-1.34303c0,0 1.0466,0.52796 1.67422,0.99543c0.62361,0.46447 1.8918,1.65268 1.32279,1.80238z" data-paper-data="{&quot;index&quot;:null}" fill="#fd0000" stroke="none" stroke-width="0" stroke-linecap="butt"/><g data-paper-data="{&quot;index&quot;:null}" stroke-width="0" stroke-linecap="butt"><path d="M234.06164,177.61519c-0.47684,-0.05261 -0.82075,-0.48181 -0.76814,-0.95865c0.05261,-0.47684 0.48181,-0.82075 0.95865,-0.76814c0.47684,0.05261 0.82075,0.48181 0.76814,0.95865c-0.05261,0.47684 -0.48181,0.82075 -0.95865,0.76814z" fill="#db7b04" stroke="none"/><path d="M233.21092,176.61651c0.03068,-0.27812 0.51458,-0.18566 0.97578,-0.13478c0.46119,0.05089 0.91558,0.14869 0.88805,0.39825c-0.01808,0.16385 -0.46534,0.00145 -0.92654,-0.04943c-0.4612,-0.05089 -0.95538,-0.05019 -0.9373,-0.21404z" fill="#feeb00" stroke="#000000"/><path d="M234.21923,176.97121c0.09004,0.00993 0.28641,-0.05201 0.26655,0.12805c-0.01987,0.18006 -0.19131,0.54022 -0.28134,0.53029c-0.09004,-0.00993 -0.20385,0.09004 -0.18399,-0.09002c0.01986,-0.18006 0.10875,-0.57825 0.19878,-0.56832z" fill="#000000" stroke="none"/><path d="M233.62099,177.14359c-0.01392,0.12622 -0.06043,0.19575 -0.10777,0.19053c-0.04734,-0.00523 -0.1158,-0.26095 -0.10187,-0.38717c0.01393,-0.12622 0.10182,-0.0466 0.14915,-0.04138c0.04734,0.00522 0.07442,0.1118 0.06049,0.23802z" fill="#000000" stroke="none"/></g><path d="M233.17104,185.50822c0.12702,0.01042 0.14303,1.07904 0.03013,2.45513c-0.1129,1.37608 -0.05412,2.11376 -0.18115,2.10334c-0.34849,-0.02858 -0.38721,-0.82036 -0.27431,-2.19645c0.1129,-1.37609 0.07683,-2.39061 0.42533,-2.36202z" data-paper-data="{&quot;index&quot;:null}" fill="#424242" stroke="none" stroke-width="0" stroke-linecap="butt"/></g></g></svg>