<svg version="1.1" xmlns="http://www.w3.org/2000/svg" xmlns:xlink="http://www.w3.org/1999/xlink" width="10.24639" height="18.05498" viewBox="0,0,10.24639,18.05498"><g transform="translate(-234.53433,-170.43385)"><g data-paper-data="{&quot;isPaintingLayer&quot;:true}" fill-rule="nonzero" stroke-width="0" stroke-linecap="butt" stroke-linejoin="miter" stroke-miterlimit="10" stroke-dasharray="" stroke-dashoffset="0" style="mix-blend-mode: normal"><path d="M237.29879,182.10723c0,0 -1.95002,-0.37153 -1.48572,-1.09568c0.69919,-0.97075 3.59049,0.95823 3.52726,1.50911c-0.04971,0.43305 -1.62241,1.10255 -2.5249,0.15778c-0.39051,-0.38689 0.48336,-0.57121 0.48336,-0.57121z" data-paper-data="{&quot;index&quot;:null}" fill="#d4a5b9" stroke="none"/><path d="M241.99656,182.61669c0,0 0.73694,0.4886 0.28244,0.65912c-0.95839,0.58193 -2.41427,-0.28604 -2.36456,-0.7191c0.06325,-0.55088 3.39468,-1.67596 3.78522,-0.99791c0.04572,0.84239 -1.70311,1.05789 -1.70311,1.05789z" data-paper-data="{&quot;index&quot;:null}" fill="#d4a5b9" stroke="none"/><path d="M239.47239,185.4604c-1.12246,-0.12885 -1.93549,-1.07729 -1.81597,-2.11841c0.11951,-1.04111 1.12632,-1.78063 2.24877,-1.65178c1.12246,0.12885 1.93549,1.07729 1.81597,2.11841c-0.11951,1.04111 -1.12632,1.78063 -2.24877,1.65178z" data-paper-data="{&quot;index&quot;:null}" fill="#9ad6ef" stroke="none"/><path d="M237.6813,186.28453c0.10749,-1.1587 0.69118,-2.05841 1.30368,-2.00953c0.6125,0.04888 1.02188,1.02783 0.91437,2.18654c-0.10749,1.1587 -0.69118,2.05841 -1.30368,2.00953c-0.6125,-0.04888 -1.02188,-1.02783 -0.91437,-2.18654z" data-paper-data="{&quot;index&quot;:null}" fill="#9ad6ef" stroke="none"/><path d="M235.44623,184.42091c0.8315,-0.81563 1.86515,-1.12405 2.3087,-0.68885c0.44355,0.4352 0.12907,1.44921 -0.70243,2.26486c-0.8315,0.81563 -1.86515,1.12405 -2.3087,0.68885c-0.44355,-0.4352 -0.12907,-1.44921 0.70243,-2.26486z" data-paper-data="{&quot;index&quot;:null}" fill="#9ad6ef" stroke="none"/><path d="M238.42121,188.48574c-0.71852,-0.05438 -0.74843,-1.91064 -0.74843,-1.91064c0,0 0.41241,-0.56402 0.97524,-0.3813c0.79267,0.25733 1.08478,1.05943 1.08478,1.05943c0,0 -0.32302,1.30733 -1.31157,1.23251z" data-paper-data="{&quot;index&quot;:null}" fill="#eaec6e" stroke="none"/><path d="M235.11377,184.77985c0,0 0.74171,-0.01433 1.00369,0.32234c0.59712,0.79015 0.30755,1.39489 0.30755,1.39489c0,0 -0.89095,0.79146 -1.60302,0.26636c-0.78758,-0.58161 0.29177,-1.98358 0.29177,-1.98358z" data-paper-data="{&quot;index&quot;:null}" fill="#eaec6e" stroke="none"/><path d="M236.45607,182.05235c0.57985,-0.42081 1.26809,-0.46299 1.77026,-0.42095c0.50217,0.04203 1.14006,0.22737 1.14006,0.22737c0,0 -0.86539,0.15903 -1.19067,0.40229c-0.2171,0.16235 -0.5157,0.84596 -0.5157,0.84596c0,0 0.11865,0.58246 -0.22933,1.09484c-0.30764,0.59576 -1.19927,0.61674 -1.62771,0.15796c-0.6521,-0.69827 -0.22633,-1.80156 0.65309,-2.30746z" data-paper-data="{&quot;index&quot;:null}" fill="#9ad6ef" stroke="none"/><path d="M235.48549,183.37896c0,0 0.45713,-0.61317 1.28885,-0.33268c0.65291,0.2202 0.87096,0.72783 0.87096,0.72783c0,0 -0.46429,1.30325 -1.38285,0.86665c-0.99843,-0.40815 -0.77697,-1.26181 -0.77697,-1.26181z" data-paper-data="{&quot;index&quot;:null}" fill="#eaec6e" stroke="none"/><path d="M243.1329,184.44659c0.15818,1.00215 -0.31123,2.02263 -1.26414,1.95329c-0.62607,-0.04557 -1.16304,-0.78178 -0.89874,-1.36626c0.09771,-0.21607 0.70457,-0.94691 0.74241,-1.43502c0.06401,-0.82562 -0.56324,-1.45389 -0.56324,-1.45389c0,0 0.91658,0.27881 1.26451,0.64334c0.34791,0.36454 0.63825,1.14571 0.7192,1.65854z" data-paper-data="{&quot;index&quot;:null}" fill="#9ad6ef" stroke="none"/><path d="M242.88396,185.8806c0,0 -0.63335,0.84154 -1.52445,0.36362c-1.00484,-0.53893 -0.21129,-1.46741 -0.21129,-1.46741c0,0 0.37807,-0.26251 0.94311,-0.00466c0.75904,0.34638 0.79264,1.10846 0.79264,1.10846z" data-paper-data="{&quot;index&quot;:null}" fill="#eaec6e" stroke="none"/><path d="M241.01395,174.73281c1.50145,0.84861 3.56577,1.49498 3.7599,4.36792c0.12027,1.7796 -1.33425,3.42083 -4.66146,2.9117c-4.10409,-0.501 -3.93002,-3.27194 -3.88277,-4.13133c0.10346,-1.88192 2.24605,-3.75263 3.13114,-4.28502c0.15311,-0.09209 0.25312,-0.26171 0.31503,-0.25834c0.04263,0.00233 0.57493,0.9637 1.33817,1.39507z" data-paper-data="{&quot;index&quot;:null}" fill="#9ad6ef" stroke="none"/><path d="M240.3165,182.41247c0,0 0.01645,0.46101 -0.45436,0.75932c-0.29461,0.18667 -0.74583,0.23467 -0.89444,0.18865c-0.19325,-0.05984 0.23046,-0.95917 0.23046,-0.95917c0,0 -0.87575,-1.48022 -0.23454,-1.63368c0.58136,-0.13913 1.23524,0.57616 1.47028,1.10397c0.08312,0.18665 -0.1174,0.5409 -0.1174,0.5409z" data-paper-data="{&quot;index&quot;:null}" fill="#d62c35" stroke="none"/><path d="M241.24269,182.52857c-0.09446,0.305 -0.23229,0.53328 -0.62415,0.41194c-0.39187,-0.12134 -0.43791,-0.31289 -0.35538,-0.71526c0.10433,-0.53739 0.44714,-0.46677 0.6974,-0.38927c0.25026,0.07749 0.40289,0.3026 0.28213,0.69258z" data-paper-data="{&quot;index&quot;:null}" fill="#d62c35" stroke="none"/><path d="M241.44241,171.72666c-0.07325,0.638 -0.61986,1.18877 -1.24471,1.11704c-0.62485,-0.07174 -1.0585,-0.7649 -0.98526,-1.40288c0.07323,-0.63798 0.60632,-1.07094 1.23117,-0.99921c0.62486,0.07173 1.07203,0.64708 0.99879,1.28506z" data-paper-data="{&quot;index&quot;:null}" fill="#eaec6e" stroke="none"/><path d="M241.04328,182.48883c0,0 0.04443,-0.32887 0.21671,-0.42478c0.48716,-0.27124 1.28136,-0.48372 1.59759,-0.27289c0.30351,0.52021 -0.94464,1.33683 -0.94464,1.33683c0,0 -0.0914,0.90924 -0.37773,0.87382c-0.30051,-0.03776 -0.46183,-0.34899 -0.58109,-0.66372c-0.19057,-0.50296 0.08916,-0.84926 0.08916,-0.84926z" data-paper-data="{&quot;index&quot;:null}" fill="#d62c35" stroke="none"/><path d="M240.0784,173.86854c0.16989,0.25587 0.51687,0.55831 0.51687,0.55831c0,0 -0.53489,0.32166 -0.92654,0.40223c-0.555,0.11416 -1.57715,-0.21915 -1.57715,-0.21915c0,0 0.36964,-0.33542 0.74468,-0.65809c0.38891,-0.3346 0.7456,-0.64224 0.84263,-0.63278c0.10134,0.00987 0.22559,0.28755 0.3995,0.54947z" data-paper-data="{&quot;index&quot;:null}" fill="#eaec6e" stroke="none"/><path d="M242.20935,179.34349c0.07937,-0.69137 0.47339,-1.21397 0.88008,-1.16729c0.40668,0.04668 0.67202,0.64498 0.59265,1.33635c-0.07937,0.69136 -0.47338,1.21397 -0.88007,1.16729c-0.40668,-0.04669 -0.67202,-0.64499 -0.59265,-1.33636z" data-paper-data="{&quot;index&quot;:null}" fill="#ffffff" stroke="#000000"/><path d="M239.06348,179.19124c0.0775,-0.67509 0.42385,-1.18981 0.7736,-1.14966c0.34975,0.04016 0.57046,0.61997 0.49296,1.29507c-0.0775,0.67509 -0.42385,1.18981 -0.7736,1.14966c-0.34975,-0.04015 -0.57044,-0.61996 -0.49294,-1.29506z" data-paper-data="{&quot;index&quot;:null}" fill="#ffffff" stroke="#000000"/><path d="M240.52626,180.74684l0.68417,0.44439l0.4747,-0.40087l-0.49013,0.63012z" data-paper-data="{&quot;index&quot;:null}" fill="#000000" stroke="none"/><g data-paper-data="{&quot;index&quot;:null}" stroke="none"><path d="M244.02867,179.49554c-0.05697,0.49615 -0.37348,0.86734 -0.70696,0.82905c-0.33349,-0.03829 -0.55765,-0.47153 -0.50069,-0.96769c0.05697,-0.49614 0.37348,-0.86733 0.70696,-0.82904c0.33349,0.03829 0.55765,0.47152 0.50069,0.96768z" fill="#003e5b"/><path d="M244.02867,179.49554c0,0 -0.14486,0.88552 -0.70696,0.82905c-0.56191,-0.05645 -0.50069,-0.96769 -0.50069,-0.96769c0,0 0.19031,0.72826 0.52379,0.76655c0.33347,0.03829 0.68386,-0.62791 0.68386,-0.62791z" fill="#166997"/></g><path d="M244.19712,179.50819c-0.08446,0.87 -0.83181,0.89365 -0.83181,0.89365c0,0 0.23296,-0.26953 0.30407,-0.89462c0.07545,-0.66317 -0.13249,-0.97733 -0.13249,-0.97733c0,0 0.76138,-0.06353 0.66024,0.9783z" data-paper-data="{&quot;index&quot;:null}" fill="#9ad6ef" stroke="none"/><g data-paper-data="{&quot;index&quot;:null}" stroke="none"><path d="M240.66666,179.36286c-0.05516,0.48046 -0.36166,0.8399 -0.68459,0.80282c-0.32293,-0.03708 -0.54,-0.45661 -0.48485,-0.93707c0.05516,-0.48046 0.36166,-0.83991 0.68459,-0.80283c0.32293,0.03707 0.54,0.45662 0.48485,0.93708z" fill="#003e5b"/><path d="M240.0116,179.97698c0.32293,0.03707 0.66223,-0.60804 0.66223,-0.60804c0,0 -0.14027,0.8575 -0.68459,0.80282c-0.54413,-0.05466 -0.48485,-0.93707 -0.48485,-0.93707c0,0 0.18429,0.70521 0.50722,0.74229z" fill="#166997"/></g><path d="M240.87386,179.37706c-0.08448,0.87002 -0.84397,0.80122 -0.84397,0.80122c0,0 0.22265,-0.17967 0.29376,-0.80476c0.07544,-0.66318 -0.11003,-0.97476 -0.11003,-0.97476c0,0 0.76138,-0.06353 0.66024,0.9783z" data-paper-data="{&quot;index&quot;:null}" fill="#9ad6ef" stroke="none"/></g></g></svg>