<svg version="1.1" xmlns="http://www.w3.org/2000/svg" xmlns:xlink="http://www.w3.org/1999/xlink" width="33.21789" height="38.49036" viewBox="0,0,33.21789,38.49036"><g transform="translate(-225.11727,-162.44175)"><g data-paper-data="{&quot;isPaintingLayer&quot;:true}" fill-rule="nonzero" stroke="none" stroke-linecap="butt" stroke-linejoin="miter" stroke-miterlimit="10" stroke-dasharray="" stroke-dashoffset="0" style="mix-blend-mode: normal"><path d="M244.27494,174.68509l0.17113,5.12718l2.3758,2.64768c0,0 -4.22473,-0.27772 -6.13288,-1.86112c-1.7273,-1.43332 -1.77608,-3.85835 -1.77608,-3.85835z" data-paper-data="{&quot;index&quot;:null}" fill="#2095ad" stroke-width="0"/><path d="M231.76361,184.24726c0,0 1.6086,-3.19705 1.6086,-4.82579c0,-0.87109 -1.14169,-3.96796 -1.19876,-7.24271c-0.04968,-2.84835 1.38564,-6.87721 2.44989,-6.87721c1.13519,0 1.08773,8.21611 1.17656,9.8424c0.50549,7.87617 -4.03629,9.10331 -4.03629,9.10331z" data-paper-data="{&quot;index&quot;:null}" fill="#2095ad" stroke-width="0"/><path d="M239.2538,176.53398c0.38847,3.5098 -2.8431,7.80272 -2.8431,7.80272c0,0 -1.3405,-1.18701 -0.89367,-6.30033c0.07949,-0.90963 0.29878,-5.22794 0.44683,-5.22794c0.09922,0 0.3685,1.7368 1.31117,2.84995c0.46417,0.54811 1.90402,0.20033 1.97876,0.87562z" data-paper-data="{&quot;index&quot;:null}" fill="#0d4d58" stroke-width="0"/><g data-paper-data="{&quot;index&quot;:null}" stroke-width="0.17188"><path d="M232.49129,178.87219c-0.48062,-0.0337 -2.12953,-0.18622 -2.11525,-0.57616c0.01716,-0.50379 0.68471,-1.34335 1.28562,-1.51203c0.91461,-0.2564 2.1101,-0.20156 3.09513,-0.16714c1.55853,0.0547 3.78972,-0.08844 4.08439,0.20407c0.29469,0.29237 -1.07055,1.14047 -1.89826,1.43058c-0.82771,0.29011 -2.99788,0.72241 -4.4516,0.62068z" data-paper-data="{&quot;index&quot;:null}" fill="#09649e"/><path d="M230.38713,178.27869c0.31024,0.32828 0.16465,0.62847 0.03748,0.7486c-0.14355,0.12696 -0.45506,0.03775 -0.71258,0.15868c-1.36746,0.38395 -2.01184,0.3285 -2.68514,-0.01377c0.04786,-0.51918 2.05213,-0.24969 1.35876,-0.69067c-0.8296,-0.75571 -2.29049,0.1126 -2.56998,-0.13991c-0.24246,-0.21907 1.10144,-0.61702 0.86215,-0.64594c-0.1057,-0.01277 -1.17076,0.36267 -1.2964,0.02247c-0.07801,-0.37677 1.15361,-0.36346 1.15361,-0.36346c0,0 -0.87927,0.27408 -0.84025,-0.09824c0.03902,-0.37231 0.70926,-0.26963 1.00596,-0.36291c0.08781,-0.08118 1.55003,-0.00415 1.7831,0.00646c0.99849,0.04546 1.56988,-0.49487 1.6923,-0.16556c0.16505,0.44406 -0.01567,0.21147 -0.00412,0.59512c0.00675,0.228 0.20816,0.94159 0.21512,0.9491z" fill="#ebd9bb"/><path d="M231.83416,179.21097c-0.4723,0.33643 -1.56264,-0.22073 -2.05753,0.06596c0.15169,-0.09138 0.05539,-0.48712 0.05539,-0.48712c-0.00842,-0.03188 -0.18921,-0.48595 -0.58304,-0.95414c-0.3238,-0.38497 -0.39523,-0.66263 -0.2434,-0.86975c0.10486,-0.14337 0.14735,-0.49628 0.51464,-0.50061c0.39025,-0.00451 0.91193,-0.14183 1.29849,-0.03011c0.16737,0.04835 0.69299,0.02223 0.80912,0.10504c0.17655,0.12621 -0.10041,0.22273 -0.06726,0.17739c0.16548,-0.22647 -0.01428,0.49972 0.0822,0.78712c0,0 0.43085,1.51363 0.1914,1.70623z" fill="#ecc51e"/></g><g data-paper-data="{&quot;index&quot;:null}" stroke-width="0"><path d="M225.11729,186.0382c0,0 0.22568,-4.3828 5.05716,-5.57964c0.91478,-0.2266 -2.51228,2.25796 -2.03837,3.2599c0.47385,1.00181 5.24489,1.38408 5.24489,1.38408c0,0 -4.31893,-0.01595 -5.44509,0.16794c-1.12616,0.18389 -2.81861,0.76772 -2.81861,0.76772z" fill="#2095ad"/><path d="M241.43761,180.20574c0,0 -5.68875,4.41331 -7.99023,4.76691c-2.12477,0.32645 -6.91615,-0.91377 -6.18308,-2.31591c0.73307,-1.40214 4.08702,-3.04428 7.35585,-2.93019c2.69772,0.09416 6.81747,0.4792 6.81747,0.4792z" fill="#ffffff"/></g><g data-paper-data="{&quot;index&quot;:null}" stroke-width="0"><path d="M244.80065,183.85259c0,0 7.86791,0.89479 8.11272,0.80156c0.24481,-0.09323 0.52164,0.52103 0.79092,1.171c0.26928,0.64996 0.54752,2.19855 0.54752,2.19855c0,0 -0.1403,-0.58987 -1.53733,-1.06179c-0.82681,-0.27932 -2.3733,-0.54134 -3.50382,-0.94025c-2.05098,-0.72371 -4.41001,-2.16906 -4.41001,-2.16906z" fill="#2095ad"/><path d="M246.39386,184.58273c-5.73774,-2.2627 -6.24617,-5.06737 -6.24617,-5.06737c0,0 -0.17661,-0.64849 0.24487,-0.52909c0.08093,0.02292 0.21497,0.57126 0.34264,0.61546c0.23995,0.08308 0.57132,0.17925 1.0275,0.37285c0.67516,0.28654 2.38677,-0.54312 5.94012,0.53826c4.54633,1.38358 5.6697,4.52116 5.6697,4.52116c0,0 -2.8488,1.17735 -6.97866,-0.45127z" fill="#ffffff"/></g><g data-paper-data="{&quot;index&quot;:null}" stroke-width="0"><path d="M237.3103,189.38689c0,0 -1.84406,2.15288 -3.68194,2.64927c-2.21226,0.5975 -5.36471,2.18267 -5.36471,2.18267c0,0 0.84948,-5.09641 1.76567,-7.05531c1.58229,-3.3941 3.36839,-3.85735 3.36839,-3.85735c0,0 -2.01894,4.46225 -1.30653,5.72304c0.70201,1.24239 5.21911,0.35767 5.21911,0.35767z" fill="#2095ad"/><path d="M233.26532,183.24891c0.18178,-0.13939 2.90446,-2.03246 4.98423,-1.88355c2.76032,0.19766 2.76813,-1.3763 3.30315,-0.16716c0.53502,1.20914 0.62119,3.82487 -1.00152,5.43018c-1.35065,1.33619 -3.28193,2.78722 -3.28193,2.78722c0,0 -4.72198,1.67291 -5.54505,-0.29297c-0.87663,-2.24384 1.35147,-5.72829 1.54113,-5.87373z" fill="#ffffff"/></g><g data-paper-data="{&quot;index&quot;:null}" stroke-width="0"><path d="M248.86471,194.47998c0,0 -0.86292,-1.56494 -2.0676,-2.60043c-1.20467,-1.03548 -4.74547,-2.88986 -4.74547,-2.88986l5.98623,-4.00151c0,0 1.62561,2.33773 2.14174,4.18051c0.68274,2.43761 -1.31489,5.31131 -1.31489,5.31131z" fill="#2095ad"/><path d="M248.47627,189.93853c-1.47781,1.40397 -7.29258,-0.74269 -9.08715,-2.96296c-1.91825,-2.3733 -1.03111,-7.04718 -1.03111,-7.04718l1.15141,-0.82279c0,0 0.67848,1.92988 3.30357,2.58191c3.84896,0.95603 4.48866,2.52591 5.22489,3.30071c0.74183,0.78068 1.97575,3.48981 0.43841,4.95032z" fill="#ffffff"/></g><path d="M240.38417,200.78157c-1.40098,-1.26166 -0.89793,-5.37893 -0.89793,-5.37893c0.04508,-0.60609 0.27266,-1.09719 0.57209,-1.55627c0.26078,-0.39982 0.57606,-0.77538 0.87274,-1.18148c0.63735,-0.87239 0.89511,0.77478 0.89511,0.77478c0,0 0.51587,2.35726 0.26597,3.60538c-0.07977,1.09107 -0.68454,4.65819 -1.70798,3.73653z" data-paper-data="{&quot;index&quot;:null}" fill="#09649e" stroke-width="0"/><path d="M234.75632,193.09177c0.33779,-0.45825 0.75959,-0.73617 1.2211,-0.9536c0.40194,-0.18936 0.834,-0.33285 1.26691,-0.50964c0.92998,-0.37978 0.30677,1.0515 0.30677,1.0515c0,0 -0.77794,2.12014 -1.59531,2.98703c-0.60701,0.82561 -2.85823,3.35671 -3.19108,2.12608c-0.45564,-1.68459 1.99161,-4.70137 1.99161,-4.70137z" data-paper-data="{&quot;index&quot;:null}" fill="#09649e" stroke-width="0"/><path d="M239.62099,189.69808c0,0 -2.26888,3.28481 -3.03693,4.28996c-0.51957,0.67996 -1.30658,1.80083 -1.30658,1.80083c-0.26022,0.24897 -1.41339,0.67956 -1.25134,-0.11244c0.12739,-0.62262 1.5565,-2.48806 1.5565,-2.48806c0,0 2.21254,-3.07373 2.54351,-3.63082c1.09805,-1.72471 1.82088,-5.21955 1.82088,-5.21955l1.53646,0.20533l-1.86249,5.15474z" data-paper-data="{&quot;index&quot;:null}" fill="#ffffff" stroke-width="0"/><path d="M242.12619,189.6121c0,0 -0.20339,3.45964 -0.23656,4.58373c-0.02727,0.92403 0.13179,2.34323 -0.05938,2.91427c-0.19117,0.57105 -0.71044,1.1519 -1.07912,0.43245c-0.28983,-0.56558 -0.03072,-3.15286 -0.03072,-3.15286c0,0 0.25113,-4.23374 0.16116,-4.87545c-0.22126,-2.03256 -1.37934,-4.78955 -1.37934,-4.78955l1.32754,-0.80032l1.29642,5.68774z" data-paper-data="{&quot;index&quot;:null}" fill="#ffffff" stroke-width="0"/><g data-paper-data="{&quot;index&quot;:null}" stroke-width="0.17188"><path d="M246.84385,178.59222c-1.4454,0.18569 -3.63696,-0.12027 -4.48007,-0.36199c-0.84311,-0.24172 -2.25516,-1.00938 -1.97788,-1.31832c0.27724,-0.30907 2.51298,-0.29531 4.06573,-0.44012c0.98138,-0.09137 2.17169,-0.21532 3.09961,-0.01228c0.60966,0.13361 1.32468,0.93313 1.37097,1.43508c0.03682,0.38846 -1.60049,0.63616 -2.07836,0.69762z" data-paper-data="{&quot;index&quot;:null}" fill="#09649e"/><path d="M248.91013,177.87789c0.00651,-0.0079 0.16629,-0.73195 0.15983,-0.95996c-0.01068,-0.38367 -0.17763,-0.14101 -0.03856,-0.59388c0.10316,-0.33584 0.70487,0.17052 1.69905,0.06734c0.23206,-0.02408 1.68738,-0.18561 1.77974,-0.10965c0.30161,0.07595 0.96478,-0.06535 1.02528,0.30408c0.0605,0.36944 -0.83316,0.14671 -0.83316,0.14671c0,0 1.22879,-0.08457 1.17271,0.29608c-0.10574,0.3469 -1.19075,0.03373 -1.29553,0.0526c-0.23721,0.04271 1.12746,0.36222 0.89809,0.59495c-0.26441,0.26827 -1.77311,-0.51404 -2.55758,0.28842c-0.66669,0.48037 1.31862,0.09533 1.39645,0.61087c-0.65236,0.38067 -1.29245,0.47332 -2.67984,0.16916c-0.26409,-0.10582 -0.56991,0.00127 -0.72057,-0.11717c-0.13391,-0.11257 -0.29663,-0.40383 -0.00591,-0.74951z" fill="#ebd9bb"/><path d="M247.61181,177.17798c0.07969,-0.29249 -0.1418,-1.00707 0.03651,-0.79055c0.03571,0.04334 -0.24637,-0.03698 -0.07742,-0.1732c0.11115,-0.08939 0.6374,-0.09374 0.80169,-0.15169c0.37944,-0.1339 0.9082,-0.02701 1.29805,-0.04509c0.36693,-0.01693 0.42977,0.33293 0.54275,0.46999c0.16355,0.19799 0.10831,0.47932 -0.19266,0.88238c-0.36607,0.49019 -0.52028,0.95397 -0.52684,0.98628c0,0 -0.07324,0.40064 0.08349,0.48309c-0.51066,-0.25756 -1.56692,0.36177 -2.0579,0.05324c-0.25019,-0.17842 0.09233,-1.71445 0.09233,-1.71445z" fill="#ecc51e"/></g><path d="M240.52166,176.6419c0.57293,0 1.04707,1.66348 1.04707,1.66348c0.07191,0.27088 -0.12211,0.78707 -0.13155,1.27342c-0.00788,0.40586 0.1735,0.81523 0.1735,0.81523l-0.11055,-0.14195c0,0 -0.85417,-0.71627 -1.08002,-0.67774c-0.11273,0.01923 -0.55348,-0.05417 -0.55348,-0.05417c0,0 -0.35911,0.22575 -0.53861,0.31464c-0.27707,0.13721 -0.96219,0.42856 -0.96219,0.42856c0,0 0.15254,-0.40899 0.19368,-0.59337c-0.03908,-1.469 -0.50943,-2.42213 0.40456,-3.01343c0.28535,-0.16851 1.28507,-0.01468 1.55758,-0.01468z" data-paper-data="{&quot;index&quot;:null}" fill="#09649e" stroke-width="0"/><g data-paper-data="{&quot;index&quot;:null}" stroke-width="0"><path d="M244.9349,167.96572c0,0.07763 -0.40472,0.14056 -1.24531,0.14056c-0.84059,0 -2.7212,-2.59261 -2.7212,-2.67021c0,-0.0776 1.63762,0.26606 2.47821,0.26606c0.38175,0 -0.0542,0.78107 0.3999,1.26667c0.54577,0.58359 1.08838,0.9546 1.08838,0.99697z" fill="#72878d"/><path d="M235.8745,169.45704c0,0 -0.02175,2.57971 0.08281,4.06033c0.15671,2.21903 0.76618,7.95946 0.76618,7.95946c0,0 -3.19417,-4.93273 -3.61935,-8.08767c-0.39063,-2.89863 0.35843,-6.4777 0.35843,-6.4777c0,0 1.79533,-3.8199 4.34968,-2.87289c0.4857,0.18006 0.33835,1.60663 0.33835,1.60663l-1.48483,0.52189z" fill="#2095ad"/><path d="M238.37674,163.3354c0,0 -1.65241,0.18649 -2.27886,0.62558c-0.29463,0.20651 -2.16296,1.20771 -2.13487,1.0111c0.32262,-2.2578 2.53701,-2.26224 2.53701,-2.26224c0,0 0.08397,-0.26808 0.84899,-0.26808c0.76502,0 1.02773,0.89367 1.02773,0.89367z" fill="#dceef3"/><path d="M241.86202,163.96094c0,0.24679 -1.05637,0.08937 -1.69797,0.08937c-0.6416,0 -1.34048,-0.71492 -1.34048,-0.71492c0,0 -0.06128,-0.68381 0.61182,-0.64617c1.02384,0.05727 2.42667,1.02497 2.42667,1.27176z" fill="#dceef3"/><path d="M240.6109,164.09505c0,0.51826 -1.00962,0.75961 -2.14477,0.75961c-1.13519,0 -2.05544,-0.24138 -2.05544,-0.75961c0,-0.51825 0.92025,-0.84898 2.05544,-0.84898c1.13518,0 2.14477,0.33072 2.14477,0.84898z" fill="#e8d548"/><path d="M237.84375,165.20156c0,0.3768 -0.53048,0.17955 -1.18489,0.17955c-0.65441,0 -0.96947,0.34089 -0.96947,-0.03591c0,-0.3768 0.35338,-1.02876 1.00779,-1.02876c0.65438,0 1.14658,0.50832 1.14658,0.88512z" fill="#72878d"/><path d="M245.52611,167.40159c0,0 -2.03465,-2.63151 -3.39475,-3.23824c-0.53055,-0.23669 -2.24696,0.61146 -1.87788,0.02104c0.06186,-0.09899 1.21751,-0.9658 1.87996,-0.89615c1.07963,0.00727 1.51595,0.494 1.51595,0.494c0,0 0.90576,-0.18437 1.63555,0.69209c0.91053,1.09356 0.24113,2.92726 0.24113,2.92726z" fill="#dceef3"/><path d="M244.98986,168.07193l-1.75054,-1.49516c0,0 -0.40176,-1.01641 0.18113,-1.01641c0.58286,0 1.56941,2.5116 1.56941,2.5116z" fill="#dceef3"/><path d="M244.81116,170.66356c0,0 0.09153,3.44657 -0.38397,5.40144c-0.4755,1.95487 -2.02892,4.51823 -2.02892,4.51823c0,0 -0.08938,-3.01013 -0.08938,-6.6131c0,-3.60297 -1.69794,-8.40045 -1.69794,-8.40045c0,0 1.66191,0.01184 2.25133,0.34173c0.76671,0.42914 1.94891,4.75215 1.94891,4.75215z" fill="#2095ad"/><path d="M244.17747,172.86233c-0.14687,3.07172 -3.3417,3.93129 -4.85887,3.91243c-2.52338,-0.03138 -5.10086,-1.1581 -5.0527,-4.0076c0.03919,-2.31937 2.24061,-4.20021 5.00454,-4.20021c2.76393,0 5.35673,1.9284 4.90703,4.29538z" fill="#ecdebd"/><path d="M237.73042,173.90551c-0.1986,0.01557 -0.48753,-0.10247 -0.48753,-0.10247c0,0 -0.30566,-0.80404 -0.07554,-1.2234c0.23013,-0.41936 0.29814,-0.87299 0.87772,-0.90455c0.57958,-0.03154 1.06118,0.42206 1.43975,1.09674c0.242,0.43133 0.09141,0.8484 0.09141,0.8484c0,0 -1.43491,0.2531 -1.84581,0.28527z" fill="#000000"/><path d="M239.70826,173.91322c0,0 -0.56858,0.10102 -1.26996,0.10102c-0.70138,0 -1.11843,-0.19242 -1.11843,-0.19242c0,0 -0.28581,-1.97591 1.04147,-1.71731c1.37416,0.23434 1.34691,1.80871 1.34691,1.80871z" fill="#eaeee9"/><path d="M231.36146,168.60806c0,0 0.11022,-1.2447 0.30673,-1.85214c0.1965,-0.60744 0.67632,-1.18631 0.67632,-1.18631l0.40215,1.29582z" fill="#dceef1"/><path d="M244.20706,165.90804c0,0.03967 -1.31709,-0.31152 -2.09047,-0.31152c-0.77338,0 -2.19027,-0.60666 -2.19027,-0.64633c0,-0.03967 0.69878,-0.93357 1.75942,-0.93357c1.06061,0 2.52131,1.85175 2.52131,1.89142z" fill="#72878d"/><path d="M231.27678,168.75618c0,0 0.55976,-0.73295 0.79755,-1.06319c0.23779,-0.33024 0.74256,-1.04147 0.74256,-1.04147c0,0 0.35907,0.38433 0.35907,0.91977c0,0.53541 -1.89918,1.18489 -1.89918,1.18489z" fill="#72878d"/><path d="M243.85446,172.35108c0.04176,1.15195 -0.34981,1.2234 -0.34981,1.2234l-0.91662,-0.25428c0,0 -0.34083,-0.29084 -0.19345,-0.83509c0.13901,-0.51337 0.57498,-0.96249 0.85632,-0.94718c0.57961,0.03156 0.58491,0.29962 0.60354,0.81315z" data-paper-data="{&quot;index&quot;:null}" fill="#000000"/><path d="M242.61484,173.70265c0,0 -0.23348,-0.92297 -0.08906,-1.42457c0.22153,-0.76943 0.62903,-0.98102 1.03877,-0.47486c0.4097,0.50615 -0.0297,1.78074 -0.0297,1.78074z" fill="#eaeee9"/><g><path d="M243.15272,173.80886c-0.31534,0 -0.57097,-0.42963 -0.57097,-0.95966c0,-0.53 0.25563,-0.95965 0.57097,-0.95965c0.31534,0 0.57096,0.42962 0.57096,0.95965c0,0.53 -0.25562,0.95966 -0.57096,0.95966z" fill="#a77baf"/><path d="M243.36684,172.84922c0,0.25239 -0.10652,0.45697 -0.23791,0.45697c-0.13139,0 -0.23791,-0.20458 -0.23791,-0.45697c0,-0.25239 0.10649,-0.45697 0.23791,-0.45697c0.13139,0 0.23791,0.20458 0.23791,0.45697z" fill="#000000"/><path d="M243.22409,172.62064c0,0.17665 -0.0799,0.31988 -0.17843,0.31988c-0.09853,0 -0.17842,-0.14322 -0.17842,-0.31988c0,-0.17665 0.07989,-0.31988 0.17842,-0.31988c0.09854,0 0.17843,0.14322 0.17843,0.31988z" fill="#ffffff"/></g><path d="M244.79137,172.39663c0,0 -0.01602,-0.23183 -0.6406,-0.6185c-0.71364,-0.44181 -1.58222,1.30576 -1.58222,1.30576l-0.34305,-0.78596c0,0 -0.29251,0.96869 -0.55899,1.06878c-0.39652,0.14895 -1.55343,-0.7702 -2.56591,-1.02677c-0.88595,-0.22449 -3.32703,-0.14033 -3.32703,-0.14033c0,0 -1.10746,-4.58456 0.53379,-5.2494c0.87363,-0.35389 1.26986,-1.30666 3.10904,-0.9012c1.8392,0.40547 3.78879,1.4266 4.5855,2.59753c0.7967,1.17093 0.7895,3.7501 0.7895,3.7501z" fill="#2195ab"/><path d="M235.25781,166.02324c-1.23971,1.32317 -2.24299,1.24429 -2.24299,1.24429c0,0 -0.30901,-0.37847 -0.5799,-0.96278c-0.18872,-0.4071 -0.35897,-0.96008 -0.39336,-1.36142c-0.03765,-0.43908 0.84158,-1.02074 1.36312,-1.15503c0.63945,-0.16466 0.95061,0.17266 0.95061,0.17266c0,0 0.98257,-0.46923 1.46505,-0.41753c0.48249,0.05173 1.34659,0.80939 1.34659,0.80939c0,0 -0.81425,0.10369 -1.20018,0.56825c-0.20271,0.24403 -0.44414,0.81959 -0.70894,1.10222z" fill="#dceef3"/><path d="M236.91527,165.93142c0,0 1.75759,-0.26619 1.75759,-0.04816c0,0.10082 -0.84493,0.3861 -1.43497,0.81897c-0.68568,0.50304 -0.89483,0.77418 -0.89483,0.77418c0,0 0.02384,-0.72905 0.1257,-1.00409c0.10185,-0.27501 0.44648,-0.54091 0.44648,-0.54091z" data-paper-data="{&quot;index&quot;:null}" fill="#0b4754"/><path d="M240.99196,166.03129c0,-0.21803 1.94789,0.33832 1.94789,0.33832c0,0 0.25055,0.19786 0.3923,0.60741c0.14175,0.40951 0.27385,1.26879 0.27385,1.26879c0,0 -0.6426,-0.75276 -1.32828,-1.2558c-0.59003,-0.43287 -1.28575,-0.85793 -1.28575,-0.95875z" fill="#0b4754"/><path d="M242.21901,167.15803c0,0.62929 -0.3934,1.67565 -1.42988,1.67565c-1.03648,0 -1.88602,-0.46402 -2.59161,-1.31818c-0.11321,-0.13705 0.00212,-0.72239 -0.12621,-1.2503c-0.14281,-0.58733 -0.45892,-1.24235 -0.29218,-1.52855c0.32018,-0.32452 1.84828,-0.00353 1.84828,-0.00353c0,0 0.51111,-0.78436 1.00833,-0.23103c0.71386,0.79446 1.58331,2.28501 1.58331,2.65596z" fill="#dceef3"/><path d="M235.05922,175.97327l-0.09632,-4.52717l0.96322,0.43345l0.24081,4.19008z" fill="#2095ad"/><path d="M243.7194,172.75194c-0.01714,-0.06222 0.42181,-0.29023 0.8164,-0.54107c0.39456,-0.25084 0.95117,-0.72413 0.95117,-0.72413c0,0 -0.46373,0.6622 -0.78371,0.81968c-0.31998,0.15755 -0.94692,0.57936 -0.98385,0.44552z" data-paper-data="{&quot;index&quot;:null}" fill="#000000"/><g><path d="M238.8499,174.22082c-0.31534,0 -0.57097,-0.42963 -0.57097,-0.95966c0,-0.53 0.25563,-0.95965 0.57097,-0.95965c0.31534,0 0.57096,0.42962 0.57096,0.95965c0,0.53 -0.25562,0.95966 -0.57096,0.95966z" fill="#a77baf"/><path d="M239.06402,173.26113c0,0.25239 -0.10652,0.45697 -0.23791,0.45697c-0.13139,0 -0.23791,-0.20458 -0.23791,-0.45697c0,-0.25239 0.10649,-0.45697 0.23791,-0.45697c0.13139,0 0.23791,0.20458 0.23791,0.45697z" fill="#000000"/><path d="M238.92125,173.0326c0,0.17665 -0.07989,0.31988 -0.17842,0.31988c-0.09854,0 -0.17842,-0.14322 -0.17842,-0.31988c0,-0.17665 0.07989,-0.31988 0.17842,-0.31988c0.09853,0 0.17842,0.14322 0.17842,0.31988z" fill="#ffffff"/></g><path d="M241.73936,173.81825c-0.02258,-0.29232 0.7211,-0.65747 0.7211,-0.65747c0,0 0.09111,0.42138 0.18087,0.42888c0.24309,0.0203 0.91591,-0.0451 0.91591,-0.0451c0,0 -0.41448,0.65953 -0.84661,0.63073c-0.16913,-0.01125 -0.95676,-0.16909 -0.97127,-0.35704z" fill="#ecdebd"/><path d="M237.26398,174.39121l0.60988,-0.3812c0,0 0.48622,0.03812 0.72423,0.03812c0.23801,0 0.648,-0.07625 0.648,-0.07625l0.41933,0.4193z" fill="#ecdebd"/><path d="M239.35906,176.34974c-0.35689,0 -0.96996,-0.10298 -0.83178,-0.24026c0.1007,-0.16942 0.50224,0.08499 0.8367,0.08499c0.33446,0 0.7006,-0.19418 0.82685,-0.08499c0.24969,0.21594 -0.47488,0.24026 -0.83177,0.24026z" fill="#b1a37f"/><path d="M237.43891,174.40942c0,0.32925 -0.06743,0.38542 -0.06743,0.38542c0,0 -0.06744,-0.05617 -0.06744,-0.38542c0,-0.32925 -0.19868,-0.31516 0.06744,-0.31516c0.26612,0 0.06743,-0.01409 0.06743,0.31516z" fill="#d0bf96"/><path d="M243.62039,173.98795c0,0.32925 -0.06744,0.38539 -0.06744,0.38539c0,0 -0.06743,-0.05617 -0.06743,-0.38539c0,-0.32925 -0.19869,-0.31516 0.06743,-0.31516c0.26613,0 0.06744,-0.01409 0.06744,0.31516z" fill="#d0bf96"/><path d="M243.26919,174.12844c0,0.32925 -0.06743,0.38538 -0.06743,0.38538c0,0 -0.06744,-0.05616 -0.06744,-0.38538c0,-0.32925 -0.19868,-0.31516 0.06744,-0.31516c0.26612,0 0.06743,-0.01409 0.06743,0.31516z" fill="#d0bf96"/><path d="M237.79013,174.54991c0,0.32925 -0.06743,0.38539 -0.06743,0.38539c0,0 -0.06744,-0.05617 -0.06744,-0.38539c0,-0.32925 -0.19868,-0.31516 0.06744,-0.31516c0.26613,0 0.06743,-0.01409 0.06743,0.31516z" fill="#d0bf96"/><path d="M235.08061,175.50016c0,0 -0.96938,-0.8072 -1.15385,-2.15385c-0.18447,-1.34665 0.90351,-3.00911 1.15385,-3.38462c0.25033,-0.37551 1.07692,0.46154 1.07692,0.46154c0,0 -0.30801,1.01246 -0.45262,1.6942c-0.19757,0.93139 -0.62431,3.38272 -0.62431,3.38272z" fill="#2195ab"/></g><path d="M237.27308,172.78131c0,0.13882 -0.92921,-0.1846 -1.27957,-0.25136c-0.35036,-0.06673 -1.00537,-0.52553 -1.00537,-0.52553c0,0 0.75054,0.28389 1.1976,0.42078c0.44709,0.13686 1.08734,0.29157 1.08734,0.35611z" data-paper-data="{&quot;index&quot;:null}" fill="#000000" stroke-width="0"/><path d="M239.54309,179.68859c0,0 -0.31897,0.3679 -0.55402,0.46601c-0.23505,0.09811 -0.86424,0.08189 -0.86424,0.08189l0.37424,-0.36655c0,0 0.26093,-0.04291 0.47873,-0.07872c0.21779,-0.03581 0.53546,-0.40686 0.53546,-0.40686z" data-paper-data="{&quot;index&quot;:null}" fill="#2490a6" stroke-width="0"/><path d="M241.7804,180.36665c0,0 -0.6306,-0.13666 -0.81954,-0.24492c-0.18895,-0.10826 -0.39237,-0.54115 -0.39237,-0.54115l0.05232,-0.25088c0,0 0.29723,0.46898 0.4723,0.5085c0.17507,0.03952 0.1822,0.0996 0.1822,0.0996l0.50508,0.42884z" data-paper-data="{&quot;index&quot;:null}" fill="#2490a6" stroke-width="0"/><path d="M242.3227,179.96512c0,0 -0.02346,0.43954 -0.07684,0.86704c-0.05338,0.4275 -0.37942,1.03668 -0.37942,1.03668l0.19117,0.42534l-0.32294,0.64977l-0.82569,-0.13621l-0.2055,-0.42909c0,0 -0.92439,-0.32159 -1.55609,-0.65983c-0.6317,-0.33824 -1.52889,-1.83374 -1.52889,-1.83374l0.51105,0.03953c0,0 1.05265,1.32577 1.33251,1.46916c0.27986,0.14338 0.97,0.35074 0.97,0.35074l1.17875,-0.54962c0,0 0.14108,-0.30031 0.19274,-0.55429c0.05165,-0.25397 0.05461,-0.66185 0.05461,-0.66185z" data-paper-data="{&quot;index&quot;:null}" fill="#eec522" stroke-width="0"/><g data-paper-data="{&quot;index&quot;:null}"><path d="M239.82338,176.92602c0.17022,-0.06911 0.34154,0.07628 0.48084,0.36686c0.1393,0.29058 0.24674,0.72652 0.28893,1.23856c0.04223,0.51194 0.0113,1.00389 -0.07258,1.38519c-0.08398,0.38127 -0.22099,0.65174 -0.3912,0.72085c-0.17009,0.06905 -0.34142,-0.07634 -0.48082,-0.36696c-0.1393,-0.29058 -0.24663,-0.72649 -0.28883,-1.23853c-0.04223,-0.51194 -0.01141,-1.00393 0.07258,-1.38519c0.08388,-0.3813 0.221,-0.65174 0.39108,-0.72079z" fill="#5ed161" stroke-width="0.01872"/><g data-paper-data="{&quot;index&quot;:null}" fill="#21683c" stroke-width="0.01872"><path d="M239.89285,177.76832c0.09296,-0.03774 0.18652,0.04166 0.26259,0.20035c0.07607,0.15869 0.13475,0.39677 0.15779,0.6764c0.02306,0.27958 0.00617,0.54824 -0.03964,0.75647c-0.04586,0.20822 -0.12069,0.35593 -0.21364,0.39367c-0.09289,0.03771 -0.18645,-0.04169 -0.26258,-0.2004c-0.07607,-0.15869 -0.13468,-0.39675 -0.15773,-0.67638c-0.02306,-0.27958 -0.00623,-0.54826 0.03964,-0.75647c0.0458,-0.20823 0.12069,-0.35592 0.21357,-0.39363z"/></g><path d="M239.96812,177.68603c0.05928,-0.02185 0.12381,0.02812 0.18015,0.12655c0.05642,0.09845 0.10462,0.24537 0.13128,0.41732c0.02672,0.17197 0.02678,0.33664 0.0054,0.46381c-0.02141,0.12723 -0.06425,0.21692 -0.12352,0.23878c-0.05921,0.02196 -0.12374,-0.02808 -0.18015,-0.12654c-0.05642,-0.09846 -0.10462,-0.24537 -0.1313,-0.41725c-0.02665,-0.17195 -0.02675,-0.33673 -0.00537,-0.46388c0.02142,-0.12723 0.06423,-0.21685 0.12354,-0.23878z" fill="#ffffff" stroke-width="0.01896"/></g><path d="M258.33516,180.33567z" data-paper-data="{&quot;index&quot;:null}" fill="#2095ad" stroke-width="0"/></g></g></svg>