<svg version="1.1" xmlns="http://www.w3.org/2000/svg" xmlns:xlink="http://www.w3.org/1999/xlink" width="38" height="30.70258" viewBox="0,0,38,30.70258"><g transform="translate(-217.39984,-163.30539)"><g data-paper-data="{&quot;isPaintingLayer&quot;:true}" fill-rule="nonzero" stroke-linejoin="miter" stroke-miterlimit="10" stroke-dasharray="" stroke-dashoffset="0" style="mix-blend-mode: normal"><g data-paper-data="{&quot;index&quot;:null}"><g data-paper-data="{&quot;index&quot;:null}"><path d="M230.29144,188.99623c-0.35438,1.27794 -0.34301,4.54667 -0.34301,4.54667c0,0 -0.62391,0.20671 -0.59016,-1.03868c0.01955,-0.72129 0.27647,-2.48342 0.62787,-3.63715c0.42124,-1.38303 1.77475,-3.88319 1.77475,-3.88319l0.82466,-0.01376c0,0 -2.0415,3.11502 -2.29411,4.02611z" fill="#989898" stroke="#989898" stroke-width="0" stroke-linecap="round"/><path d="M233.84828,186.80789c0.14762,0.84919 -0.25373,3.06645 -0.25373,3.06645l-2.97173,-1.84899c0,0 0.68411,-1.7509 1.34038,-2.6463c0.3119,-0.42527 0.71212,-0.61916 1.30367,0.00197c0.41612,0.43694 0.48431,0.87302 0.58141,1.42688z" fill="#f82020" stroke="none" stroke-width="1.13968" stroke-linecap="round"/><path d="M230.67613,187.95097c0,0 2.77314,0.48411 2.93,1.78643c0.08035,0.73159 -0.91116,2.6905 -1.39049,3.20748c-0.4824,0.5199 -1.7111,0.75394 -2.29527,0.65722c-0.34315,-0.05676 -0.25802,-0.80444 -0.22983,-1.24295c0.07173,-1.0936 0.2929,-2.38468 0.55577,-3.34357c0.26287,-0.9589 0.42984,-1.06462 0.42984,-1.06462z" fill="#f8f8f8" stroke="none" stroke-width="1.15102" stroke-linecap="round"/><path d="M235.66782,187.04438c-0.02075,0.36726 0.01303,2.12804 -0.26141,2.60667c-0.21155,0.36895 -0.80402,-0.15608 -0.80402,-0.15608c0,0 -0.59346,0.20503 -0.71663,0.19807c-0.46434,-0.02624 -0.13755,-1.32931 -0.08752,-2.21445c0.01001,-0.17701 -0.20965,-1.04805 -0.11821,-1.55457c0.05441,-0.30144 0.05857,-0.58383 0.45751,-0.79936c0.41088,-0.22198 0.55204,0.40734 0.55204,0.40734c0,0 0.42708,-0.6479 0.92319,-0.11856c0.43675,0.466 0.07924,1.20303 0.05506,1.63094z" fill="#ffffff" stroke="none" stroke-width="0" stroke-linecap="butt"/></g><path d="M236.84003,186.32511c0.36,-0.4811 -0.0547,-1.3017 0.3044,-1.7794c0.2006,-0.268 0.8477,-0.3606 1.004,-0.0852c0.3957,0.7044 0.3791,1.6079 0.3326,2.4196c-0.0254,0.4538 -0.1931,0.9526 -0.5726,1.1504c-0.6184,0.3308 -1.4755,0.5232 -2.1297,0.1995c-0.4199,-0.2025 -0.5774,-0.9612 -0.3455,-1.4122c0.2293,-0.439 1.1007,-0.0853 1.4068,-0.4927z" data-paper-data="{&quot;index&quot;:null}" fill="#e88820" stroke="none" stroke-width="0.49091" stroke-linecap="round"/></g><path d="M235.17033,183.73457c0,-1.55828 0.65441,-2.20504 1.4201,-2.20504c0.95748,0 1.81884,0.42261 3.28569,1.19229c0.46875,-0.04076 2.88255,-1.83863 4.02687,-0.48073c1.89662,2.25062 -0.85282,2.19777 -1.04239,2.51435c-0.63097,1.0537 -2.20998,1.80065 -4.05806,1.80065c-2.40334,0 -3.6322,-1.26324 -3.6322,-2.82152z" data-paper-data="{&quot;index&quot;:null}" fill="#f8b820" stroke="none" stroke-width="0" stroke-linecap="butt"/><path d="M234.87649,175.36028c0,-1.6753 -2.38583,-4.25159 -2.46334,-5.12852c-0.09672,-1.09431 3.04959,-0.02036 3.04959,-0.02036c0,0 3.01853,-0.18847 2.82257,0.61154c-0.17767,0.72531 -2.28757,2.97695 -2.28757,4.94621c0,5.85407 0.31437,6.80662 0.31437,6.80662c0,0 -0.08319,0.48722 -0.30152,-0.07428c-0.35056,-0.90158 -1.13412,-3.53378 -1.13412,-7.14121z" data-paper-data="{&quot;index&quot;:null}" fill="#e2a026" stroke="none" stroke-width="0" stroke-linecap="butt"/><path d="M238.00868,175.56469c0,3.38928 -0.86696,5.9507 -1.26675,6.91011c-0.29074,0.69771 -0.26404,0.21431 -0.26404,0.21431c0,0 0.21037,-0.86147 0.21037,-6.71555c0,-1.96926 -1.89928,-4.85842 -2.10851,-5.58373c-0.23076,-0.8 3.02318,0.02599 3.02318,0.02599c0,0 2.24694,-0.80071 2.13304,0.29359c-0.09128,0.87694 -1.72729,3.18001 -1.72729,4.8553z" data-paper-data="{&quot;index&quot;:null}" fill="#e2a026" stroke="none" stroke-width="0" stroke-linecap="butt"/><path d="M237.07434,186.14091c0,0 -0.5699,-1.99937 1.85344,-1.85263c0.8484,0.05137 1.52668,0.41766 2.00297,0.4132c0.14319,-0.00134 -0.54788,-0.96941 -0.14924,-0.822c0.18563,0.06865 0.65407,0.67621 0.83768,0.68113c0.17246,0.00461 -0.51029,-0.7763 -0.51029,-0.7763l1.92147,0.75821c0,0 1.52715,0.34126 1.87999,0.60951c0.35284,0.26825 -0.96154,-0.09187 -1.13269,-0.04139c-0.14593,0.04305 0.89906,0.27546 0.92115,0.44589c0.02534,0.19558 -1.03737,-0.12354 -1.33034,-0.04279c-1.05918,0.29194 -1.97107,0.80583 -3.23716,0.92306c-1.35761,0.19004 -3.05697,-0.14205 -3.05697,-0.14205z" data-paper-data="{&quot;index&quot;:null}" fill="#f8f8f8" stroke="none" stroke-width="0" stroke-linecap="butt"/><g data-paper-data="{&quot;index&quot;:null}"><path d="M233.82237,187.26892c0.27124,-0.41447 1.10381,0.02282 1.44827,-0.35263c0.4054,-0.44361 0.07304,-1.30088 0.47713,-1.74106c0.22588,-0.24717 0.87892,-0.27592 1.00751,0.01342c0.32484,0.73979 0.21986,1.6373 0.09418,2.44055c-0.06969,0.44914 -0.28548,0.92908 -0.68246,1.08886c-0.64771,0.26863 -1.51956,0.37626 -2.139,-0.01001c-0.39801,-0.24267 -0.48049,-1.01305 -0.20562,-1.43913z" data-paper-data="{&quot;index&quot;:null}" fill="#f8b820" stroke="none" stroke-width="0.49091" stroke-linecap="round"/><g data-paper-data="{&quot;index&quot;:null}"><path d="M231.31426,185.3681c0,0 -2.05896,3.1035 -2.31669,4.01316c-0.36155,1.27592 -0.36854,4.54466 -0.36854,4.54466c0,0 -0.62507,0.20321 -0.58432,-1.04197c0.02361,-0.72118 0.29041,-2.48184 0.64829,-3.63358c0.429,-1.38064 1.79653,-3.87316 1.79653,-3.87316l0.82472,-0.00913z" fill="#989898" stroke="#989898" stroke-width="0" stroke-linecap="round"/><path d="M232.56664,187.21297c0.14284,0.85 -0.27095,3.06497 -0.27095,3.06497l-2.96129,-1.86564c0,0 0.69393,-1.74704 1.35523,-2.63873c0.31428,-0.42352 0.71558,-0.61516 1.30364,0.00929c0.41365,0.43927 0.47939,0.87573 0.57338,1.43013z" fill="#f82020" stroke="none" stroke-width="1.13968" stroke-linecap="round"/><path d="M229.38809,188.33812c0,0 2.77038,0.49966 2.91992,1.80285c0.07623,0.73204 -0.92624,2.68535 -1.40848,3.19962c-0.48532,0.5172 -1.71532,0.74433 -2.29893,0.64433c-0.34282,-0.05868 -0.25349,-0.80586 -0.22284,-1.24421c0.07787,-1.09318 0.30629,-2.383 0.57453,-3.34039c0.26824,-0.95741 0.43581,-1.06219 0.43581,-1.06219z" fill="#f8f8f8" stroke="none" stroke-width="1.15102" stroke-linecap="round"/><path d="M234.38483,187.45965c-0.02283,0.36713 0.00108,2.12807 -0.27605,2.60516c-0.21363,0.36777 -0.80314,-0.16059 -0.80314,-0.16059c0,0 -0.59461,0.2017 -0.71774,0.19405c-0.46419,-0.02886 -0.13009,-1.33007 -0.07509,-2.21492c0.011,-0.17696 -0.20377,-1.04921 -0.10948,-1.55521c0.05611,-0.30111 0.06184,-0.58349 0.46199,-0.79677c0.41212,-0.21969 0.54974,0.41043 0.54974,0.41043c0,0 0.43071,-0.64549 0.92384,-0.11338c0.43412,0.46845 0.07248,1.20344 0.04589,1.63122z" fill="#ffffff" stroke="none" stroke-width="0" stroke-linecap="butt"/></g></g><path d="M236.39984,163.3054c10.49341,0 19,2.35584 19,5.26191c0,2.90607 -8.50659,5.2619 -19,5.2619c-10.49341,0 -19,-2.35583 -19,-5.2619c0,-2.90608 8.50659,-5.26191 19,-5.26191z" data-paper-data="{&quot;index&quot;:null}" fill-opacity="0.90196" fill="#e3a127" stroke="none" stroke-width="0" stroke-linecap="butt"/><path d="M241.52616,172.89398c-3.05915,0.87091 -5.47131,-0.87789 -5.47131,-0.87789c0,0 3.14949,0.63292 4.66126,0.52482c0.60175,-0.04302 3.49228,-1.03878 3.49228,-1.03878c0,0 -2.30297,0.77981 -3.37981,0.80792c-1.07684,0.02812 -2.68267,-0.64965 -2.68267,-0.64965c0,0 2.17942,0.03721 3.04954,-0.07937c0.8701,-0.11657 2.16264,-0.61892 2.16264,-0.61892c0,0 -1.16259,0.27181 -1.67591,0.2528c-0.51333,-0.019 -1.26556,-0.3617 -1.26556,-0.3617c0,0 0.86646,-0.16826 1.33164,-0.27679c0.46518,-0.10852 1.18403,-0.31012 1.18403,-0.31012c0,0 -0.70879,-0.05887 -1.03879,-0.13744c-0.32999,-0.07857 -0.81441,-0.30377 -0.81441,-0.30377l1.54013,-0.38114l1.12544,-0.49057c0,0 -0.63067,0.09413 -0.85523,0.08675c-0.22456,-0.00738 -0.56008,-0.13328 -0.56008,-0.13328c0,0 0.31226,-0.11377 0.46722,-0.20996c0.15497,-0.09619 0.35699,-0.30164 0.35699,-0.30164l-0.71733,-0.29959l0.85713,-0.46039l-0.47065,-0.37486l1.00579,-0.42432l-0.38602,0.58656l0.60791,-0.08801c0,0 -0.26065,0.23333 -0.39888,0.32517c-0.18584,0.1235 -0.76055,0.37033 -0.76055,0.37033c0,0 0.40864,0.07818 0.615,0.09162c0.16246,0.01057 0.52328,-0.01753 0.52328,-0.01753c0,0 -0.22952,0.26719 -0.43666,0.39517c-0.20714,0.12799 -0.57904,0.23235 -0.57904,0.23235c0,0 0.27234,0.04643 0.58577,0.06556c0.31342,0.01913 0.80437,0.0193 0.80437,0.0193c0,0 -0.54739,0.44298 -0.94552,0.64535c-0.39813,0.20237 -1.07828,0.38337 -1.07828,0.38337c0,0 0.66068,0.12593 0.9783,0.13542c0.28482,0.00851 0.91845,-0.02959 0.91845,-0.02959c0,0 -0.539,0.35343 -1.03923,0.54795c-0.50022,0.19451 -1.32425,0.37109 -1.32425,0.37109c0,0 1.14294,-0.08878 1.76427,-0.20637c0.54671,-0.10346 1.76858,-0.46221 1.76858,-0.46221c0,0 -1.25753,0.89125 -1.92455,1.14588c-0.78623,0.30013 -2.49428,0.54096 -2.49428,0.54096c0,0 1.94138,-0.2111 2.94072,-0.53931c0.56155,-0.18444 2.54163,-1.26122 2.54163,-1.26122c0,0 -1.09743,1.13523 -2.53416,1.94759c-0.90941,0.51419 -2.3728,0.8367 -2.4492,0.85844z" data-paper-data="{&quot;index&quot;:null}" fill="#dcdce1" stroke="none" stroke-width="0" stroke-linecap="butt"/><path d="M239.35067,171.08867c0.68861,-1.33514 1.67092,-2.96827 2.29145,-3.03509c0.52268,-0.05567 2.74156,3.94736 3.18276,4.1695c0.74615,0.37662 0.95644,0.2493 1.76997,0.22349c0.7025,-0.07336 1.8782,-0.77585 2.64952,-1.20878c0.77132,-0.43293 1.88467,-1.3623 1.94203,-0.77865c0.22203,0.71608 -0.35739,1.81646 -0.81262,2.96052c-0.45523,1.14406 -0.94004,1.94708 -1.11259,2.61049c-0.46033,1.75725 -0.32444,4.85925 -1.60899,6.14279c-1.08676,1.08447 -3.20673,0.60743 -4.74061,0.22722c-1.89942,-0.47021 -4.4968,-0.83094 -5.25858,-2.63577c-0.89483,-2.12193 0.82031,-5.62404 0.82031,-5.62404c0,0 0.18873,-1.71654 0.87734,-3.05168z" data-paper-data="{&quot;index&quot;:null}" fill="#f8b820" stroke="none" stroke-width="1" stroke-linecap="round"/><path d="M247.46508,179.61419c0.10176,-0.74014 0.11929,-1.5591 0.44897,-2.20729c0.16933,-0.29557 0.65539,-0.45912 0.81327,-0.17764c0.23585,0.41903 0.11911,1.11739 0.02647,1.67377c-0.15084,1.01589 -0.28167,2.11886 -0.74572,2.97088c-0.15763,0.28929 -0.56311,-0.06291 -0.65168,-0.40449c-0.14405,-0.55963 0.02414,-1.23991 0.10869,-1.85522z" data-paper-data="{&quot;index&quot;:null}" fill="#ffffff" stroke="none" stroke-width="0.86553" stroke-linecap="round"/><path d="M239.86016,173.68988c-0.21105,-0.18055 1.44305,-4.7011 1.7647,-4.76948c0.28533,-0.05859 1.35152,1.53497 1.5109,2.02441c0.15181,0.46646 0.7179,1.09821 0.57819,1.57373c-0.0546,0.17926 -0.9229,0.14294 -1.7063,0.37857c-0.78339,0.23563 -2.04163,0.88269 -2.14749,0.79278z" data-paper-data="{&quot;index&quot;:null}" fill="#ffffff" stroke="none" stroke-width="0.85185" stroke-linecap="butt"/><path d="M242.47914,182.03446c-0.27826,-0.68364 -0.0168,-1.52978 0.0893,-2.31945c0.08613,-0.6431 0.18893,-1.31873 0.47242,-1.88886c0.18575,-0.38066 0.56558,-0.63787 0.89898,-0.86836c0.23999,-0.14943 0.53301,-0.24724 0.81085,-0.29863c0.26914,-0.04747 0.48321,-0.0302 0.71876,0.00526c0.19693,0.02938 0.45468,-0.01449 0.46711,0.17838c0.16018,0.52217 0.04083,1.09556 -0.02901,1.63937c-0.163,1.26758 -0.08998,2.73616 -0.68931,3.8704c-0.2659,0.50293 -0.98854,0.29661 -1.47762,0.2484c-0.45119,-0.06026 -1.06922,-0.09454 -1.26146,-0.56652z" data-paper-data="{&quot;index&quot;:null}" fill="#ffffff" stroke="none" stroke-width="0.97175" stroke-linecap="round"/><path d="M237.48704,178.45699c-0.27838,-0.41752 2.47534,1.33621 3.36078,2.25756c0.58557,0.60979 1.14259,0.9858 1.93243,1.2437c0.80237,0.27503 1.79989,0.34674 2.60391,0.06593c0.90931,-0.31759 2.24826,-0.33624 2.91918,0.31713c0.38426,0.37421 -0.18082,1.63542 -0.73881,1.87991c-0.94042,0.65263 -2.06136,0.81495 -2.81847,0.7652c-0.82943,-0.08518 -2.01068,-0.38581 -2.84172,-0.70225c-0.83104,-0.31643 -1.58418,-0.90711 -1.94969,-1.17814c-0.33117,-0.2458 -3.04187,-0.24181 -3.04187,-0.24181l1.115,-0.78733l-1.45811,-0.62605c0,0 1.68325,-0.58141 1.57402,-0.69968c-0.58403,-0.63283 -1.2511,-0.85149 -1.2511,-0.85149c0,0 0.92034,0.17321 1.52314,-0.03398c0.30558,-0.10447 -0.71757,-1.09269 -0.9287,-1.40872z" data-paper-data="{&quot;index&quot;:null}" fill="#f8f8f8" stroke="none" stroke-width="1" stroke-linecap="round"/><path d="M248.40642,182.38504c0.21396,0.15621 -0.54687,0.63181 -0.90156,0.57689c-0.35469,-0.05492 -0.76377,-0.7117 -0.51257,-0.79587c0.25119,-0.08417 0.29639,-0.1534 0.65107,-0.09848c0.35469,0.05492 0.54909,0.16127 0.76306,0.31746z" data-paper-data="{&quot;index&quot;:null}" fill="#101010" stroke="none" stroke-width="1" stroke-linecap="butt"/><path d="M242.76582,183.56892l1.61151,1.03682" data-paper-data="{&quot;index&quot;:null}" fill="none" stroke="#cccccc" stroke-width="0.36953" stroke-linecap="round"/><path d="M247.56295,175.80249l2.52631,1.62547l0.55054,3.20994l-1.1657,-2.42064l-2.31574,-1.89369z" data-paper-data="{&quot;index&quot;:null}" fill="#f8b820" stroke="none" stroke-width="1.22222" stroke-linecap="round"/><path d="M247.60744,175.05298c0,0 2.78878,-0.11058 3.0702,0.03698c0.40118,0.21034 1.66527,2.76519 1.66527,2.76519l-2.29523,-1.91652l-2.39604,-0.06405z" data-paper-data="{&quot;index&quot;:null}" fill="#f8b820" stroke="none" stroke-width="1.22222" stroke-linecap="round"/><path d="M250.88997,170.72906c0,0 -0.13306,1.01499 -0.46799,1.78603c-0.33492,0.77106 -0.95191,1.85779 -1.10453,1.83415c-0.29769,-0.0461 -1.76139,-1.1007 -1.76139,-1.1007z" data-paper-data="{&quot;index&quot;:null}" fill="#ffffff" stroke="none" stroke-width="0" stroke-linecap="butt"/><path d="M247.0478,174.06212c0,0 2.90488,-1.14756 3.30507,-1.17639c0.66004,-0.04756 3.83274,1.54203 3.83274,1.54203c0,0 -3.30818,-0.5031 -4.29218,-0.4423c-0.984,0.06079 -2.35659,0.85307 -2.35659,0.85307z" data-paper-data="{&quot;index&quot;:null}" fill="#f8b820" stroke="none" stroke-width="1.22222" stroke-linecap="round"/><g data-paper-data="{&quot;index&quot;:null}" stroke="none" stroke-linecap="butt"><path d="M245.27395,179.19796c0.1594,0.02468 0.28035,0.19379 0.34858,0.44711c0.06698,0.25425 0.08132,0.59161 0.02528,0.9535c-0.05604,0.36188 -0.17174,0.67911 -0.31249,0.90119c-0.14166,0.22082 -0.30809,0.34543 -0.46749,0.32074c-0.1595,-0.02469 -0.28045,-0.1938 -0.34868,-0.44712c-0.06689,-0.25423 -0.08133,-0.59161 -0.02529,-0.9535c0.05604,-0.36189 0.17185,-0.67911 0.3125,-0.9012c0.14166,-0.22082 0.30809,-0.34542 0.46759,-0.32072z" fill="#4088ed" stroke-width="1.0615"/><path d="M244.88498,179.81207c0.09276,-0.13763 0.20341,-0.2144 0.31014,-0.19787c0.10673,0.01653 0.18888,0.12316 0.23566,0.28239c0.0473,0.15922 0.0586,0.37044 0.02359,0.59654c-0.03502,0.22611 -0.10968,0.42401 -0.20293,0.56156c-0.09273,0.13753 -0.2033,0.21442 -0.31003,0.19789c-0.10673,-0.01653 -0.18896,-0.12328 -0.23576,-0.28241c-0.04728,-0.15931 -0.05858,-0.37053 -0.02357,-0.59663c0.03501,-0.2261 0.10968,-0.42401 0.20291,-0.56146z" fill="#000000" stroke-width="0.47368"/><path d="M245.08715,179.9474c0.04072,-0.05583 0.09064,-0.08675 0.13926,-0.07922c0.04852,0.00752 0.08685,0.0521 0.10878,0.11763c0.02251,0.06572 0.02931,0.15249 0.01496,0.24518c-0.01435,0.0927 -0.04708,0.17333 -0.08841,0.22917c-0.04072,0.05582 -0.09074,0.08674 -0.13926,0.07922c-0.04862,-0.00753 -0.08685,-0.05211 -0.10878,-0.11764c-0.02251,-0.06572 -0.0294,-0.1525 -0.01505,-0.24519c0.01436,-0.09269 0.04718,-0.17331 0.08851,-0.22915z" fill="#ffffff" stroke-width="0.64678"/><path d="M247.59472,179.93229c0.12584,-0.19636 0.27383,-0.30711 0.41554,-0.28517c0.14171,0.02194 0.24928,0.17228 0.30992,0.39751c0.05952,0.22596 0.07229,0.52576 0.02247,0.84752c-0.04981,0.32166 -0.15268,0.60365 -0.27776,0.80103c-0.12592,0.19624 -0.27391,0.30699 -0.41562,0.28505c-0.1417,-0.02194 -0.24927,-0.17228 -0.30983,-0.3974c-0.05952,-0.22597 -0.07228,-0.52586 -0.02247,-0.84752c0.04983,-0.32177 0.15268,-0.60365 0.27776,-0.80103z" fill="#4088ed" stroke-width="0.94355"/><path d="M247.99804,180.04286c0.09486,0.01469 0.16792,0.10948 0.20955,0.25102c0.04192,0.14158 0.05211,0.32935 0.021,0.53026c-0.03112,0.20101 -0.09762,0.3769 -0.18041,0.49917c-0.0825,0.12231 -0.1808,0.19058 -0.27567,0.17589c-0.09486,-0.01469 -0.16802,-0.10949 -0.20955,-0.25102c-0.04192,-0.14158 -0.05211,-0.32935 -0.02098,-0.53036c0.03111,-0.20091 0.09761,-0.37681 0.1804,-0.49908c0.08239,-0.12233 0.18079,-0.19057 0.27566,-0.17588z" fill="#000000" stroke-width="0.42105"/><path d="M247.935,180.34428c0.03624,-0.04974 0.08066,-0.07717 0.12384,-0.07048c0.04318,0.00669 0.07713,0.04625 0.09663,0.10462c0.0201,0.05836 0.02617,0.1355 0.01342,0.21782c-0.01276,0.08242 -0.04188,0.1541 -0.07869,0.20365c-0.03624,0.04974 -0.08057,0.07718 -0.12375,0.07049c-0.04318,-0.00669 -0.07722,-0.04627 -0.09672,-0.10464c-0.02001,-0.05835 -0.02609,-0.13548 -0.01332,-0.2179c0.01275,-0.08233 0.04187,-0.15401 0.07858,-0.20358z" fill="#ffffff" stroke-width="0.57492"/></g><path d="M233.21923,163.84302c3.15704,-0.38722 5.26965,1.71364 5.26965,1.71364c0,0 -3.01368,-1.11247 -4.52397,-1.23952c-0.60115,-0.05056 -3.61092,0.4861 -3.61092,0.4861c0,0 2.39587,-0.4142 3.4641,-0.27541c1.06822,0.13879 2.5499,1.05679 2.5499,1.05679c0,0 -2.14743,-0.37386 -3.02511,-0.39329c-0.87767,-0.01942 -2.23236,0.27696 -2.23236,0.27696c0,0 1.19063,-0.08872 1.69483,0.00947c0.50421,0.09818 1.19438,0.5531 1.19438,0.5531c0,0 -0.88207,0.03221 -1.35843,0.06748c-0.47637,0.03527 -1.21775,0.12325 -1.21775,0.12325c0,0 0.69115,0.1678 1.00502,0.29647c0.31387,0.12867 0.75762,0.42608 0.75762,0.42608l-1.58056,0.13833l-1.18778,0.31058c0,0 0.63764,0.00454 0.85836,0.04657c0.22071,0.04203 0.53272,0.21831 0.53272,0.21831c0,0 -0.32609,0.06408 -0.49407,0.13515c-0.16799,0.07107 -0.39937,0.24279 -0.39937,0.24279l0.66236,0.40695l-0.91803,0.32226l0.40701,0.44315l-1.05932,0.26364l0.4721,-0.51979l-0.6142,-0.00709c0,0 0.2936,-0.19019 0.44437,-0.25956c0.2027,-0.09326 0.80868,-0.24822 0.80868,-0.24822c0,0 -0.39163,-0.14046 -0.59343,-0.18565c-0.15886,-0.03557 -0.51969,-0.06361 -0.51969,-0.06361c0,0 0.26808,-0.22848 0.49253,-0.32288c0.22444,-0.09441 0.608,-0.13999 0.608,-0.13999c0,0 -0.26189,-0.088 -0.56858,-0.15538c-0.3067,-0.06738 -0.79172,-0.14349 -0.79172,-0.14349c0,0 0.60932,-0.35296 1.03397,-0.49132c0.42465,-0.13834 1.12461,-0.21196 1.12461,-0.21196c0,0 -0.63324,-0.22661 -0.94557,-0.28512c-0.28006,-0.05246 -0.91197,-0.11284 -0.91197,-0.11284c0,0 0.58719,-0.2658 1.11148,-0.3806c0.52429,-0.1148 1.36572,-0.16179 1.36572,-0.16179c0,0 -1.14291,-0.08907 -1.77496,-0.06901c-0.55614,0.01766 -1.81879,0.18308 -1.81879,0.18308c0,0 1.38025,-0.68602 2.07863,-0.8344c0.82319,-0.17492 2.54794,-0.14864 2.54794,-0.14864c0,0 -1.95065,-0.09174 -2.98873,0.07793c-0.58331,0.09534 -2.70613,0.85289 -2.70613,0.85289c0,0 1.25982,-0.95183 2.80492,-1.53217c0.97799,-0.36733 2.47366,-0.4596 2.5525,-0.46926z" data-paper-data="{&quot;index&quot;:null}" fill="#dcdce1" stroke="none" stroke-width="0" stroke-linecap="butt"/><path d="M220.20009,169.70587c0.13752,0.34856 -0.23768,-0.17354 -0.23768,-0.17354c0,0 -0.32672,-0.73469 -0.37902,-1.07665c-0.05229,-0.34196 0.07933,-0.88285 0.07933,-0.88285c0,0 0.22079,0.5519 0.35137,0.84589c0.13058,0.29399 0.35478,0.74403 0.35478,0.74403c0,0 -0.05064,-0.47629 -0.04037,-0.70451c0.01026,-0.22821 0.09801,-0.57711 0.09801,-0.57711l0.44676,0.97061l0.46673,0.68247c0,0 -0.14197,-0.40528 -0.16546,-0.55475c-0.02349,-0.14947 0.0174,-0.38733 0.0174,-0.38733c0,0 0.11472,0.19217 0.19793,0.28252c0.08322,0.09036 0.24465,0.19804 0.24465,0.19804l0.10753,-0.51237l0.41287,0.50879l0.18848,-0.3587l0.40779,0.61169l-0.43678,-0.18123l0.13505,0.39101c0,0 -0.18729,-0.14294 -0.26551,-0.22276c-0.10518,-0.10732 -0.34109,-0.45629 -0.34109,-0.45629c0,0 -0.00007,0.28018 0.01712,0.41839c0.01354,0.10879 0.07773,0.34392 0.07773,0.34392c0,0 -0.20575,-0.11805 -0.31659,-0.2389c-0.11084,-0.12086 -0.22686,-0.35367 -0.22686,-0.35367c0,0 0.0037,0.18601 0.03066,0.39576c0.02695,0.20975 0.08888,0.53453 0.08888,0.53453c0,0 -0.36219,-0.3061 -0.54637,-0.54389c-0.18419,-0.23779 -0.38987,-0.66483 -0.38987,-0.66483c0,0 0.00019,0.45294 0.03405,0.66424c0.03037,0.18948 0.13564,0.60381 0.13564,0.60381c0,0 -0.30191,-0.31187 -0.4938,-0.61819c-0.19188,-0.30632 -0.41283,-0.82908 -0.41283,-0.82908c0,0 0.20318,0.74481 0.35948,1.14096z" data-paper-data="{&quot;index&quot;:null}" fill="#dcdce1" stroke="none" stroke-width="0" stroke-linecap="butt"/></g></g></svg>