<svg version="1.1" xmlns="http://www.w3.org/2000/svg" xmlns:xlink="http://www.w3.org/1999/xlink" width="24.23544" height="39.16482" viewBox="0,0,24.23544,39.16482"><g transform="translate(-227.88228,-160.41759)"><g data-paper-data="{&quot;isPaintingLayer&quot;:true}" fill-rule="nonzero" stroke="#000000" stroke-linejoin="miter" stroke-miterlimit="10" stroke-dasharray="" stroke-dashoffset="0" style="mix-blend-mode: normal"><path d="M229.65402,171.84788c0.83294,0 0.87315,4.55616 1.34941,9.36649c0.3801,3.83904 1.07107,10.31902 0.23813,10.31902c-0.83294,0 -2.73894,-5.04895 -3.25446,-10.47777c-0.48685,-5.12685 0.83398,-9.20774 1.66692,-9.20774z" fill="#00203b" stroke-width="0" stroke-linecap="butt"/><path d="M229.73339,171.76851c0,0 3.98521,-11.35092 6.74705,-11.35092c2.76184,0 2.93695,0.88588 5.00075,4.36574c0.5693,0.95993 8.24179,9.47365 9.18054,13.64931c0.31841,1.41632 0.79332,11.75108 -0.41488,12.15086c-1.28288,0.42449 -5.38628,-0.9498 -7.36691,-2.12467c-3.96556,-2.35228 -12.09714,-8.15573 -12.09714,-8.15573z" fill="#002e53" stroke-width="0" stroke-linecap="butt"/><path d="M250.68893,190.819c0,3.37558 1.42879,8.01708 1.42879,8.01708c0,0 -5.9119,1.49209 -9.34465,0.25681c-3.43276,-1.23527 -11.61089,-7.79763 -11.61089,-7.79763l-0.4,-11.23341c0,0 5.13796,3.91379 12.84289,8.31914c3.5918,2.05364 7.08387,1.10064 7.08387,2.43801z" fill="#000b29" stroke-width="0" stroke-linecap="butt"/><path d="M233.22598,180.1031c0,0 -0.00616,-2.854 0.74832,-3.22646c0.39325,-0.19414 1.63299,2.59144 1.63299,2.59144" fill="none" stroke-width="0.5" stroke-linecap="round"/><path d="M241.74579,181.5848c0,0 -0.01306,-0.34825 -0.66906,-1.1565c-0.57041,-0.70279 -1.78182,-1.83082 -1.94332,-2.40505c-0.19503,-0.69345 0.70733,-3.21196 0.70733,-3.21196" fill="none" stroke-width="0.5" stroke-linecap="round"/><path d="M247.46093,172.69458l1.37587,12.27698c0,0 -2.60428,-3.56501 -2.77058,-3.90517c-0.29366,-0.60067 0.01885,-4.03254 0.01885,-4.03254" fill="none" stroke-width="0.5" stroke-linecap="round"/><path d="M235.60729,189.73418l-1.69338,-6.13849" fill="none" stroke-width="0.5" stroke-linecap="round"/><path d="M244.49752,191.21588l-0.31751,4.76262" fill="none" stroke-width="0.5" stroke-linecap="round"/></g></g></svg>