<svg version="1.1" xmlns="http://www.w3.org/2000/svg" xmlns:xlink="http://www.w3.org/1999/xlink" width="22.20175" height="38.61056" viewBox="0,0,22.20175,38.61056"><g transform="translate(-228.89912,-160.69472)"><g data-paper-data="{&quot;isPaintingLayer&quot;:true}" fill-rule="nonzero" stroke="#000000" stroke-linejoin="miter" stroke-miterlimit="10" stroke-dasharray="" stroke-dashoffset="0" style="mix-blend-mode: normal"><path d="M240.10088,199.29472c-1.76168,0 -6.75564,0.28053 -8.22328,-2.0501c-3.15196,-5.00537 -2.97672,-18.58613 -2.97672,-20.96101c0,-4.36305 18.0381,-3.14999 18.33333,-2.52222c1.63507,3.4768 3.86667,13.07028 3.86667,17.43333c0,4.36305 -7.13401,8.1 -11,8.1z" data-paper-data="{&quot;index&quot;:null}" fill="#020e29" stroke-width="0" stroke-linecap="butt"/><path d="M238.10088,160.69472c0,0 10.36186,12.27837 10.2,16.2c-0.17014,4.12243 -6.07126,14.2 -10.6,14.2c-2.52873,0 -6.45247,-4.49239 -8.01173,-10.14156c-1.23324,-4.46801 -0.38827,-10.03408 -0.38827,-12.05844c0,-4.58388 8.8,-8.2 8.8,-8.2z" data-paper-data="{&quot;index&quot;:null}" fill="#002a4d" stroke-width="0" stroke-linecap="butt"/><path d="M240.85714,180.85715l-3.71428,-3.28572" data-paper-data="{&quot;index&quot;:null}" fill="none" stroke-width="0.5" stroke-linecap="round"/><path d="M242.42857,183.14286l-3.71429,1.57143" data-paper-data="{&quot;index&quot;:null}" fill="none" stroke-width="0.5" stroke-linecap="round"/><path d="M237,183.71429l-3.28572,-3" data-paper-data="{&quot;index&quot;:null}" fill="none" stroke-width="0.5" stroke-linecap="round"/><path d="M248.42857,190.71429l-3,2.71429" data-paper-data="{&quot;index&quot;:null}" fill="none" stroke-width="0.5" stroke-linecap="round"/><path d="M237.85714,196.71429l-2.85714,-1.57143" data-paper-data="{&quot;index&quot;:null}" fill="none" stroke-width="0.5" stroke-linecap="round"/><path d="M246.71429,176.71429l-1,-1.71428" data-paper-data="{&quot;index&quot;:null}" fill="none" stroke-width="0.5" stroke-linecap="round"/></g></g></svg>