<svg version="1.1" xmlns="http://www.w3.org/2000/svg" xmlns:xlink="http://www.w3.org/1999/xlink" width="24.23544" height="39.16482" viewBox="0,0,24.23544,39.16482"><g transform="translate(-227.88228,-160.41759)"><g data-paper-data="{&quot;isPaintingLayer&quot;:true}" fill-rule="nonzero" stroke="#000000" stroke-linejoin="miter" stroke-miterlimit="10" stroke-dasharray="" stroke-dashoffset="0" style="mix-blend-mode: normal"><path d="M252.0129,181.05562c-0.51552,5.42882 -2.42152,10.47777 -3.25446,10.47777c-0.83294,0 -0.54197,-6.47998 -0.16187,-10.31902c0.47626,-4.81033 0.91647,-9.36649 1.74941,-9.36649c0.83294,0 2.15377,4.08089 1.66692,9.20774z" data-paper-data="{&quot;index&quot;:null}" fill="#00203b" stroke-width="0" stroke-linecap="butt"/><path d="M248.9172,180.6031c0,0 -7.83158,5.50345 -11.79714,7.85573c-1.98063,1.17487 -6.08403,2.54916 -7.36691,2.12467c-1.2082,-0.39978 -0.73329,-10.73454 -0.41488,-12.15086c0.93875,-4.17566 8.61124,-12.68938 9.18054,-13.64931c2.0638,-3.47986 2.23891,-4.36574 5.00075,-4.36574c2.76184,0 6.74705,11.35092 6.74705,11.35092z" data-paper-data="{&quot;index&quot;:null}" fill="#002a4d" stroke-width="0" stroke-linecap="butt"/><path d="M229.31106,190.819c0,-1.33737 3.49207,-0.05104 7.08387,-2.10468c7.70493,-4.40535 12.44289,-8.45247 12.44289,-8.45247v11.03341c0,0 -8.17813,6.56236 -11.61089,7.79763c-3.43275,1.23528 -9.34465,-0.25681 -9.34465,-0.25681c0,0 1.42879,-4.6415 1.42879,-8.01708z" data-paper-data="{&quot;index&quot;:null}" fill="#000c2e" stroke-width="0" stroke-linecap="butt"/><path d="M244.39271,179.46808c0,0 1.23974,-2.78558 1.63299,-2.59144c0.75448,0.37246 0.74832,3.22646 0.74832,3.22646" data-paper-data="{&quot;index&quot;:null}" fill="none" stroke-width="0.5" stroke-linecap="round"/><path d="M240.15926,174.81129c0,0 0.90236,2.51851 0.70733,3.21196c-0.1615,0.57423 -1.37291,1.70226 -1.94332,2.40505c-0.656,0.80825 -0.66906,1.1565 -0.66906,1.1565" data-paper-data="{&quot;index&quot;:null}" fill="none" stroke-width="0.5" stroke-linecap="round"/><path d="M233.91493,177.03385c0,0 0.31251,3.43187 0.01885,4.03254c-0.1663,0.34016 -2.77058,3.90517 -2.77058,3.90517l1.37587,-12.27698" data-paper-data="{&quot;index&quot;:null}" fill="none" stroke-width="0.5" stroke-linecap="round"/><path d="M244.39271,189.73418l1.69338,-6.13849" data-paper-data="{&quot;index&quot;:null}" fill="none" stroke-width="0.5" stroke-linecap="round"/><path d="M235.50248,191.21588l0.31751,4.76262" data-paper-data="{&quot;index&quot;:null}" fill="none" stroke-width="0.5" stroke-linecap="round"/></g></g></svg>