<svg version="1.1" xmlns="http://www.w3.org/2000/svg" xmlns:xlink="http://www.w3.org/1999/xlink" width="30.90855" height="34.75686" viewBox="0,0,30.90855,34.75686"><g transform="translate(-222.61823,-165.245)"><g data-paper-data="{&quot;isPaintingLayer&quot;:true}" fill-rule="nonzero" stroke-miterlimit="10" stroke-dasharray="" stroke-dashoffset="0" style="mix-blend-mode: normal"><path d="M230.69587,171.75559c-0.3444,-1.03347 0.44156,-2.13075 0.44156,-2.13075l2.10321,-0.01487c0,0 0.15323,0.20302 0.48585,1.50522c0.34536,1.35211 -0.98611,4.48625 -0.98611,4.48625c0,0 -1.7001,-2.81238 -2.04451,-3.84585z" fill="#e8edf4" stroke="#000000" stroke-width="0" stroke-linecap="butt" stroke-linejoin="miter"/><path d="M253.12739,173.96452c-0.44182,1.32576 -2.62278,4.54805 -2.62278,4.54805c0,0 -1.70805,-3.63505 -1.26501,-5.36956c0.42669,-1.67051 0.62326,-1.93095 0.62326,-1.93095l2.69807,0.01907c0,0 1.00827,1.40763 0.56646,2.7334z" fill="#e8edf4" stroke="#000000" stroke-width="0" stroke-linecap="butt" stroke-linejoin="miter"/><g data-paper-data="{&quot;index&quot;:null}" stroke-width="0" stroke-linecap="butt" stroke-linejoin="miter"><g data-paper-data="{&quot;index&quot;:null}"><path d="M230.38452,167.43042c0,-1.06346 0.8653,-1.92557 1.93267,-1.92557c1.06738,0 1.93265,0.86211 1.93265,1.92557c0,1.06346 -0.86528,1.92557 -1.93265,1.92557c-1.06738,0 -1.93267,-0.86211 -1.93267,-1.92557z" fill="#c2e266" stroke="none"/><path d="M231.05235,168.06556c0,-0.65701 0.53456,-1.18962 1.194,-1.18962c0.65944,0 1.194,0.5326 1.194,1.18962c0,0.65701 -0.53456,1.18962 -1.194,1.18962c-0.65944,0 -1.194,-0.53261 -1.194,-1.18962z" fill="#c2e266" stroke="#000000"/><path d="M232.21957,169.85002c-0.51125,0.00227 -1.36863,-0.28808 -1.36863,-0.28808l0.21781,-0.68142c0,0 0.62849,0.40447 1.08264,0.43022c0.45414,0.02575 1.09235,-0.30689 1.09235,-0.30689l0.28233,0.4899c0,0 -0.72235,0.35366 -1.30651,0.35626z" fill="#dbded5" stroke="#000000"/></g><g data-paper-data="{&quot;index&quot;:null}" stroke="none"><path d="M238.27702,173.60199c0.20118,0 0.36426,0.33852 0.36426,0.75611c0,0.41759 -0.16308,0.75611 -0.36426,0.75611c-0.20118,0 -0.36428,-0.33853 -0.36428,-0.75611c0,-0.41759 0.16309,-0.75611 0.36428,-0.75611z" fill="#000000"/><path d="M239.68242,178.87695c0.20956,0 0.83479,0.90506 0.83479,1.0888c0,0.18374 -0.35203,1.39124 -0.56158,1.39124c-0.20956,0 -1.25977,-0.33269 -1.25977,-0.33269c0,0 0.77701,-2.14736 0.98657,-2.14736z" fill="#807d5a"/><path d="M233.61629,168.82568l0.13154,-0.15122l4.86707,5.89768l-0.1012,0.31253z" fill="#6e6e73"/><path d="M235.44777,170.53953l-0.30356,0.32261l-1.17375,-1.36101l0.33391,-0.32261z" fill="#c2e266"/></g></g><g stroke-width="0" stroke-linecap="butt" stroke-linejoin="miter"><g data-paper-data="{&quot;index&quot;:null}"><path d="M251.04749,170.88623c-1.36927,0 -2.47929,-1.10593 -2.47929,-2.47018c0,-1.36424 1.11001,-2.47019 2.47929,-2.47019c1.36927,0 2.47929,1.10594 2.47929,2.47019c0,1.36424 -1.11002,2.47018 -2.47929,2.47018z" fill="#c2e266" stroke="none"/><path d="M251.13835,170.75691c-0.84593,0 -1.5317,-0.68326 -1.5317,-1.52609c0,-0.84284 0.68576,-1.52608 1.5317,-1.52608c0.84593,0 1.53171,0.68324 1.53171,1.52608c0,0.84284 -0.68577,1.52609 -1.53171,1.52609z" fill="#c2e266" stroke="#000000"/><path d="M251.17271,171.51997c-0.74937,-0.00331 -1.67602,-0.45702 -1.67602,-0.45702l0.36218,-0.62847c0,0 0.81871,0.42674 1.40131,0.39371c0.58259,-0.03303 1.38884,-0.55192 1.38884,-0.55192l0.27941,0.87416c0,0 -1.09986,0.37246 -1.75571,0.36955z" fill="#dbded5" stroke="#000000"/></g><g data-paper-data="{&quot;index&quot;:null}" stroke="none"><path d="M244.6836,178.83713c0.20578,0.42419 0.03894,2.19213 0.03894,2.19213l-3.11533,0.0194c0,0 -1.01532,-1.28904 -0.69622,-2.71278c0.23458,-1.04665 1.78092,-2.34443 1.98128,-2.35045c1.29092,-0.0388 1.58553,2.42751 1.79131,2.85171z" fill="#c2e266"/><path d="M243.86931,177.3031c0,0.5357 -0.20921,0.96997 -0.46729,0.96997c-0.25808,0 -0.46731,-0.43427 -0.46731,-0.96997c0,-0.5357 0.20922,-0.96997 0.46731,-0.96997c0.25808,0 0.46729,0.43426 0.46729,0.96997z" fill="#000000"/><path d="M244.57026,183.21344c-0.14743,0.84753 -0.61066,2.20732 -0.61066,2.20732l-1.18066,0.48271c0,0 -1.42785,-0.57438 -1.4019,-1.34502c0.01289,-0.38265 0.21929,-3.37045 0.21929,-3.37045l1.23122,-0.78486c0,0 0.60337,0.05153 0.96773,0.159c0.36436,0.10747 0.93073,0.45271 0.93073,0.45271c0,0 -0.00834,1.35107 -0.15577,2.1986z" fill="#20201f"/><path d="M242.86471,185.85474c0,0 -1.34724,0.42678 -1.61608,0.42678c-0.26884,0 -0.72043,-1.54904 -0.72043,-1.78475c0,-0.23571 0.80206,-1.39676 1.0709,-1.39676c0.26884,0 1.2656,2.75471 1.2656,2.75471z" fill="#c274a1"/><path d="M243.09835,177.97859l-0.12981,-0.40092l6.24365,-7.56575l0.16875,0.194z" fill="#6e6e73"/><path d="M248.49826,170.65857l0.42836,0.41385l-1.50574,1.74595l-0.38942,-0.41386z" fill="#c2e266"/></g></g><g stroke="none" stroke-width="0" stroke-linecap="butt" stroke-linejoin="miter"><g><g><path d="M232.22639,184.82611c0.53562,-0.66104 1.58379,-1.62549 1.58379,-1.62549l2.34737,0.71933c0,0 0.26732,0.24681 0.34775,0.80251c0.05223,0.36089 -0.17941,0.91698 -0.17941,0.91698c0,0 0.56607,-0.42994 0.85909,0.06725c0.18813,0.31923 -0.4145,1.25042 -0.70336,1.52406c-0.17004,0.16109 -0.56286,0.34015 -0.89956,0.33215c-0.21239,-0.00504 -0.44778,-0.17979 -0.44778,-0.17979c0,0 -0.21631,0.30819 -0.56383,0.1071c-0.10648,-0.06161 -0.26942,-0.1158 -0.26942,-0.1158c0,0 -0.22345,0.17171 -0.36968,0.21058c-0.14623,0.03887 -0.38662,-0.02934 -0.38662,-0.02934l-0.25054,-0.33648c0,0 -0.52707,0.12181 -0.63369,0.09125c-0.41831,-0.1199 -0.47048,-0.59961 -0.50016,-0.85689c-0.05432,-0.47108 -0.01929,-1.52211 0.06605,-1.62743z" fill="#20201f"/><path d="M233.79763,181.45322c0.6626,-0.66475 1.70354,-0.59929 2.63996,-0.08634c0.93642,0.51295 1.70356,1.442 1.0198,2.09109c-0.68376,0.64909 -2.15551,0.81791 -3.33673,0.17086c-1.18122,-0.64705 -0.98563,-1.51086 -0.32303,-2.17561z" fill="#20201f"/><path d="M236.68123,180.4621c0.57746,-0.65616 1.49189,-1.61212 2.3887,-2.30563c0.29696,-0.22965 0.4887,-0.14528 0.62863,0.006c0.20828,0.22518 0.19638,0.45942 -0.01573,0.67233c-0.84652,0.84974 -1.57111,1.60815 -2.11746,2.22895c-0.33308,0.37846 -1.34148,1.68038 -1.34148,1.68038l-1.27808,-0.42919c0,0 0.9098,-0.91473 1.73541,-1.85285z" fill="#fed5c7"/></g><path d="M236.15822,185.64137c0,0 0.46194,-0.58005 0.88586,-0.15261c0.27219,0.27444 0.16516,0.79861 -0.05662,1.14944c-0.13056,0.20654 -0.82924,-0.99683 -0.82924,-0.99683z" fill="#c0c2c6"/><path d="M234.74518,185.56891c0,0 0.46194,-0.58005 0.88586,-0.15261c0.27219,0.27444 0.16516,0.79861 -0.05662,1.14944c-0.13056,0.20654 -0.82924,-0.99683 -0.82924,-0.99683z" fill="#c0c2c6"/><path d="M233.47706,185.46021c0,0 0.46194,-0.58005 0.88586,-0.15261c0.27219,0.27444 0.16516,0.79861 -0.05662,1.14944c-0.13056,0.20654 -0.82924,-0.99683 -0.82924,-0.99683z" fill="#c0c2c6"/><path d="M233.71598,183.7714c0,0 0.64219,-0.37073 0.88025,0.18221c0.15286,0.35502 -0.1386,0.80365 -0.47339,1.04896c-0.1971,0.14442 -0.40686,-1.23117 -0.40686,-1.23117z" fill="#c0c2c6"/><path d="M232.57127,185.20659c0,0 0.46194,-0.58005 0.88586,-0.15261c0.27219,0.27444 0.16516,0.79861 -0.05662,1.14944c-0.13056,0.20654 -0.82924,-0.99683 -0.82924,-0.99683z" fill="#c0c2c6"/></g><g><path d="M236.86337,180.00868l0.82319,-0.79737l1.10351,0.92827l-0.79548,0.81749z" fill="#83c4ac"/><path d="M238.19908,178.11018c0.46269,-0.47115 1.19017,-0.54485 1.65311,-0.13939c0.46294,0.40546 0.47339,1.12525 0.02335,1.60769c-0.8001,0.8577 -1.30033,0.69657 -1.76328,0.29111c-0.46294,-0.40546 -0.68454,-0.97394 0.08682,-1.75941z" fill="#20201f"/><path d="M235.61509,180.79518l1.24068,-0.83433l1.15893,0.96852l-0.68381,1.40799l-0.59669,-0.28874l-0.84142,-0.77229z" fill="#bebec0"/></g></g><g stroke="none" stroke-width="0" stroke-linecap="butt" stroke-linejoin="miter"><path d="M240.97463,182.27004l1.33025,-0.06623l2.34916,1.98201l2.56892,-0.43515c0,0 -1.6458,1.24515 -2.54056,1.2345c-0.82341,-0.00981 -3.70777,-2.71515 -3.70777,-2.71515z" fill="#f79db4"/><path d="M242.3586,179.40622c0.40766,-0.55714 1.18979,-0.67831 1.74693,-0.27065c0.55714,0.40766 0.67831,1.18978 0.27065,1.74692c-0.40766,0.55714 -1.00229,0.49081 -1.55943,0.08315c-0.55714,-0.40766 -0.86581,-1.00229 -0.45815,-1.55943z" fill="#83c4ac"/><path d="M235.98667,181.68604c0,0 0.63246,0.20892 0.94839,0.72c0.44583,0.72122 0.91393,1.125 3.32889,1.20575c2.15335,0.072 2.70649,-0.75234 3.19484,-1.1968c0.59222,-0.53899 0.86207,-0.72573 0.86207,-0.72573l1.99834,0.38556c0,0 -0.51564,0.82034 -0.75413,1.66156c-0.18816,0.92683 -1.00305,1.13111 -1.60594,1.17262c-0.52099,0.37698 -0.98421,1.19221 -1.80498,0.97104c-0.49317,0.64502 -1.32679,0.69924 -1.98316,0.2645c-0.58037,0.49592 -1.28718,0.26889 -1.59722,-0.13857c-0.90504,0.25287 -1.54309,-0.16185 -1.79135,-0.67212c-0.96713,-0.14341 -1.73871,-0.88378 -1.85925,-1.63147c-0.91082,-0.44955 -1.08101,-1.47039 -1.08101,-1.47039z" fill="#c0c2c6"/><path d="M238.99881,177.13968l0.36739,-0.0378l2.35095,-0.01932c0,0 -0.23375,1.40882 0.08849,2.18241c0.32224,0.77359 0.38554,0.92193 0.96217,1.44997c0.57663,0.52804 1.81566,1.09069 1.81566,1.09069c0,0 -0.48886,0.147 -0.78711,0.61804c-0.18659,0.29469 -0.27128,0.9201 -0.53296,1.08552c-0.44299,0.28003 -0.70211,-0.03322 -1.42383,0.15571c-0.38608,0.10107 -0.82756,0.75285 -1.47571,0.80814c-1.15734,0.09871 -1.49426,-0.54922 -2.16947,-0.91684c-0.31592,-0.17201 -0.75189,0.19695 -1.16549,-0.14179c-0.31085,-0.25458 -0.20949,-0.63341 -0.3651,-0.89843c-0.26187,-0.44601 -0.8195,-0.73043 -0.8195,-0.73043c0,0 0.57321,-0.34312 1.26597,-0.7263c0.69277,-0.38318 1.398,-0.99703 1.398,-0.99703c0,0 0.08124,-0.89024 0.18311,-1.51901c0.10186,-0.62877 0.30741,-1.40352 0.30741,-1.40352z" fill="#20201f"/><path d="M242.27425,181.54872l-0.34908,-0.36756l0.61133,-0.73659c0,0 0.10259,0.11347 0.29974,0.30491c0.17759,0.17245 0.5156,0.40367 0.5156,0.40367l-0.23562,0.30283z" data-paper-data="{&quot;index&quot;:null}" fill="#c274a1"/><path d="M241.12591,181.93302l0.87073,-0.66482l0.28028,0.29641l-0.77347,0.58606z" data-paper-data="{&quot;index&quot;:null}" fill="#c0c2c6"/><path d="M237.42457,181.33109l-0.20267,-0.32579c0,0 0.36033,-0.19462 0.55498,-0.34756c0.21608,-0.16978 0.32998,-0.27191 0.32998,-0.27191l0.53097,0.79646l-0.38559,0.32906z" fill="#c274a1"/><path d="M239.37375,182.35455l-1.08991,-0.90677l0.30973,-0.26549l1.17841,0.99527z" fill="#c0c2c6"/><path d="M242.07105,178.83327c0.17737,1.99866 -1.29707,1.91094 -1.47169,1.85049c-0.16946,-0.05867 -0.59636,-0.31466 -0.83714,-0.54094c-0.24517,-0.2304 -0.66135,-0.82933 -0.66135,-0.82933l-0.4761,0.6845c0,0 -0.32184,-0.89038 -0.31842,-1.51379c0.00774,-1.41225 0.56242,-1.47579 0.56242,-1.47579l2.62918,-0.06807c0,0 0.42779,0.25557 0.5731,1.89293z" fill="#c0c0c3"/><path d="M239.31725,177.57438l-0.56745,-0.56105l1.98116,0.15011z" fill="#222225"/><g><g><path d="M239.30485,183.11742c-0.35763,-0.52629 -0.06854,-1.34638 0.6457,-1.83173c0.71424,-0.48535 1.58316,-0.45217 1.94079,0.07411c0.35763,0.52628 0.06854,1.34637 -0.6457,1.83172c-0.71424,0.48535 -1.58316,0.45217 -1.94079,-0.07411z" fill="#c0c2c6"/><path d="M240.34778,180.31592c0.16038,-0.19279 0.44669,-0.21908 0.63949,-0.0587c0.19279,0.16038 0.21908,0.4467 0.0587,0.63949c-0.16038,0.19279 -0.4467,0.21907 -0.63949,0.05869c-0.19279,-0.16038 -0.21908,-0.44669 -0.05869,-0.63949z" fill="#000000"/><path d="M240.35783,180.58813c-0.00656,-0.18812 0.14062,-0.34593 0.32873,-0.35249c0.18812,-0.00656 0.34593,0.14062 0.35249,0.32873c0.00656,0.18812 -0.12826,0.15147 -0.31638,0.15803c-0.18812,0.00656 -0.35828,0.05384 -0.36485,-0.13428z" fill="#c478a9"/><path d="M238.62478,181.92805c-0.11295,-0.22391 -0.023,-0.49699 0.20091,-0.60994c0.22391,-0.11295 0.49699,-0.023 0.60994,0.20091c0.11295,0.22391 0.02301,0.49699 -0.2009,0.60994c-0.22391,0.11295 -0.49699,0.023 -0.60994,-0.20091z" fill="#000000"/><path d="M238.87847,182.02726c-0.17516,-0.06892 -0.26128,-0.26678 -0.19236,-0.44194c0.06892,-0.17516 0.26678,-0.26128 0.44194,-0.19236c0.17516,0.06892 0.08784,0.17799 0.01892,0.35315c-0.06892,0.17516 -0.09334,0.35008 -0.2685,0.28116z" fill="#c478a9"/><path d="M239.32437,182.13981c0,-0.08599 0.16017,-0.32052 0.40293,-0.32052c0.24277,0 0.45788,0.12464 0.45788,0.21062c0,0.08598 -0.1968,0.3022 -0.43956,0.3022c-0.24276,0 -0.42124,-0.10633 -0.42124,-0.19231z" fill="#000000"/><path d="M240.92142,181.06849c0.07864,0.03476 0.10374,0.24098 0.00559,0.46303c-0.09814,0.22205 -0.37546,0.31463 -0.4541,0.27987c-0.07864,-0.03476 -0.10568,-0.28189 -0.00754,-0.50394c0.09814,-0.22205 0.37741,-0.27372 0.45605,-0.23896z" data-paper-data="{&quot;index&quot;:null}" fill="#000000"/><path d="M239.61742,182.05738c0,-0.09104 0.0738,-0.16483 0.16483,-0.16483c0.09104,0 0.16484,0.0738 0.16484,0.16483c0,0.09104 -0.0738,0.16484 -0.16484,0.16484c-0.09104,0 -0.16483,-0.0738 -0.16483,-0.16484z" fill="#ffffff"/><path d="M240.4416,181.55372c0,-0.09609 0.0779,-0.17399 0.17399,-0.17399c0.09609,0 0.17399,0.0779 0.17399,0.17399c0,0.09609 -0.0779,0.17399 -0.17399,0.17399c-0.09609,0 -0.17399,-0.0779 -0.17399,-0.17399z" fill="#ffffff"/></g><path d="M240.54123,182.01071c0.03947,0.05258 0.02016,0.15662 -0.05669,0.21431c-0.07685,0.05768 -0.18215,0.04718 -0.22162,-0.00541c-0.03947,-0.05258 0.23884,-0.26148 0.27831,-0.2089z" fill="#000000"/><path d="M240.11882,182.49612c0.03546,0.06707 -0.03727,0.1751 -0.16245,0.2413c-0.12518,0.0662 -0.25542,0.06551 -0.29089,-0.00156c-0.03546,-0.06707 0.03727,-0.1751 0.16245,-0.2413c0.12518,-0.0662 0.25542,-0.06551 0.29089,0.00156z" fill="#ad597c"/><path d="M241.34592,181.65363c0.03546,0.06707 -0.03727,0.1751 -0.16245,0.2413c-0.12518,0.0662 -0.25542,0.06551 -0.29089,-0.00156c-0.03546,-0.06707 0.03727,-0.1751 0.16245,-0.2413c0.12518,-0.0662 0.25542,-0.06551 0.29089,0.00156z" fill="#ad597c"/></g><g fill="#83c4ac"><path d="M238.29765,179.7275l-0.19277,-0.60645c0,0 0.34857,-0.18386 0.54283,-0.21984c0.17786,-0.03294 0.5779,0.0123 0.5779,0.0123l0.08021,0.18573c0,0 -0.29301,0.16069 -0.46971,0.27081c-0.15704,0.09786 -0.53847,0.35745 -0.53847,0.35745z"/><path d="M239.7522,179.66505c-0.13869,-0.15528 -0.46839,-0.55216 -0.46839,-0.55216l-0.1115,-0.20923c0,0 0.73083,0.28274 0.8923,0.36427c0.17636,0.08905 0.45932,0.36336 0.45932,0.36336l-0.35523,0.52796c0,0 -0.29325,-0.3562 -0.4165,-0.4942z" data-paper-data="{&quot;index&quot;:null}"/><path d="M238.87468,180.53054c0,0 -0.00059,-0.46562 0.02531,-0.76206c0.0259,-0.29644 0.09499,-0.61477 0.09499,-0.61477l0.28072,-0.02674c0,0 -0.05602,0.48205 -0.07297,0.79198c-0.01695,0.30993 -0.0206,0.91902 -0.0206,0.91902z"/><path d="M239.36927,180.90482c0,0 -0.01702,-0.63583 -0.03397,-0.94576c-0.01695,-0.30993 -0.08633,-0.88554 -0.08633,-0.88554l0.24061,0.05346c0,0 0.09582,0.50547 0.12172,0.80191c0.0259,0.29644 0.02532,0.76206 0.02532,0.76206z" data-paper-data="{&quot;index&quot;:null}"/></g></g><g stroke-linejoin="miter"><path d="M237.09868,199.52253c0,0 2.03824,-0.77406 2.92352,-1.32492c0.71754,-0.44649 0.94526,-4.62652 0.94526,-4.62652c0,0 1.3312,0.39082 0.84744,1.83438c-0.13605,0.40598 -0.14759,1.06994 -0.54581,1.93739c-0.39822,0.86745 -0.82438,1.62695 -1.60257,2.04791c-0.77819,0.42096 -2.26739,0.73021 -3.04263,0.56651c-1.07429,-0.25439 -0.77472,-0.55211 -0.77472,-0.55211z" fill="#947043" stroke="none" stroke-width="0" stroke-linecap="butt"/><path d="M237.71068,192.29684l3.0026,-0.4376l0.14904,0.70641l-0.17944,0.07152c0,0 0.23205,0.18261 0.25716,0.25505c0.10996,0.3173 -0.0381,0.29656 -0.0381,0.29656c0,0 0.29808,0.53318 0.48072,0.88307c0.18266,0.34988 -0.15351,1.89944 -0.17004,1.95838c-0.14348,0.51179 -0.27457,1.31251 -0.69459,2.04218c-0.3539,0.6148 -1.45237,1.24289 -2.29695,1.51219c-1.13689,0.23077 -2.45431,-0.05224 -2.45431,-0.05224c0,0 -0.17365,-1.59156 0.15842,-2.61046c0.49053,-0.8786 0.67117,-1.30456 0.84165,-1.69949c0.13856,-0.32096 0.39125,-1.19149 0.39125,-1.19149l0.01197,-0.42166l0.16411,-0.3227z" fill="#20201f" stroke="none" stroke-width="0" stroke-linecap="butt"/><path d="M240.04752,192.42083c0,0 0.29213,0.54871 0.47784,0.97265c0.23533,0.53723 0.78707,1.92891 0.78707,1.92891" fill="none" stroke="#c8c7c6" stroke-width="0.125" stroke-linecap="round"/><path d="M240.78951,190.42142c-0.00553,0.74376 0.1912,0.95316 -0.11756,1.41285c-0.30876,0.45969 -0.72275,0.67628 -1.32649,0.73701c-1.0987,-0.01424 -1.42981,-0.09438 -1.85349,-0.39088c-0.15007,-0.15822 -0.45026,-1.19865 -0.32058,-1.88705c0.03401,-0.18051 0.82564,-1.10328 1.57269,-1.07684c0.74707,0.02645 2.0524,0.27001 2.04544,1.2049z" fill="#c274a1" stroke="none" stroke-width="0" stroke-linecap="butt"/><path d="M240.77138,190.48123c-0.00554,0.74377 -1.34288,0.80321 -1.72806,0.77001c-0.46972,-0.04047 -2.01974,-0.20969 -1.89008,-0.89809c0.034,-0.18051 0.82564,-1.10328 1.5727,-1.07684c0.74707,0.02645 2.05239,0.27002 2.04544,1.2049z" fill="#cacacd" stroke="none" stroke-width="0" stroke-linecap="butt"/><path d="M238.2734,198.82518c0.00836,0.23125 0.23484,0.29283 0.1599,0.47072c-0.12559,0.29814 -0.34889,0.28368 -0.41095,0.26487c-0.09909,-0.03005 -0.16398,-0.34571 -0.08764,-0.72633c0.07635,-0.38062 0.16406,-0.81795 0.16406,-0.81795c0,0 0.16627,0.57744 0.17463,0.80869z" fill="#c8c7c6" stroke="none" stroke-width="0" stroke-linecap="butt"/><path d="M235.81732,197.294c0,0 0.29216,-1.10796 1.56,-0.92515c1.80545,0.26032 2.15032,2.38521 2.15032,2.38521" fill="none" stroke="#c8c7c6" stroke-width="0.125" stroke-linecap="round"/><path d="M236.16863,198.00993c0,0 0.05197,0.44299 0.0972,0.82855c0.04523,0.38556 -0.04504,0.69492 -0.14625,0.71684c-0.06339,0.01372 -0.28711,0.01001 -0.38811,-0.29733c-0.06026,-0.18338 0.17046,-0.22639 0.19755,-0.4562c0.02709,-0.22981 0.23963,-0.79186 0.23963,-0.79186z" data-paper-data="{&quot;index&quot;:null}" fill="#c8c7c6" stroke="none" stroke-width="0" stroke-linecap="butt"/></g><path d="M239.90848,184.39666l-0.1314,3.46078l-0.20171,2.23683c0,0 -0.34155,0.25205 -0.57913,0.36434c-0.23757,0.11229 -0.61783,0.09829 -0.61783,0.09829l0.07649,-2.30345l0.19007,-3.74235z" fill="#20201f" stroke="none" stroke-width="0" stroke-linecap="butt" stroke-linejoin="miter"/><g stroke-linejoin="miter"><path d="M242.06449,199.20022c0,0 1.7259,-1.33223 2.41323,-2.1163c0.55709,-0.6355 -0.43801,-4.70174 -0.43801,-4.70174c0,0 1.38733,-0.01231 1.3433,1.50952c-0.01238,0.42799 0.16926,1.06673 0.0399,2.01241c-0.12936,0.94568 -0.31678,1.79617 -0.93932,2.42485c-0.62254,0.62868 -1.95791,1.35677 -2.7473,1.42509c-1.10189,0.06831 -0.9016,-0.30353 -0.9016,-0.30353l1.2298,-0.25031z" fill="#947043" stroke="none" stroke-width="0" stroke-linecap="butt"/><path d="M240.55331,192.10786l2.7464,-1.29011l0.34763,0.63276l-0.15097,0.12051c0,0 0.27506,0.10742 0.32011,0.16945c0.19731,0.27174 0.0496,0.29485 0.0496,0.29485c0,0 0.43998,0.42374 0.7163,0.70556c0.27633,0.28181 0.4043,1.86225 0.40559,1.92345c0.01121,0.5314 0.11813,1.33571 -0.07207,2.15587c-0.16026,0.69104 -1.02919,1.61088 -1.75928,2.11368c-1.021,0.55076 -2.36386,0.66223 -2.36386,0.66223c0,0 -0.62804,-1.47268 -0.60594,-2.5441c0.21445,-0.98313 0.26371,-1.44319 0.31225,-1.8706c0.03945,-0.34736 0.02865,-1.25375 0.02865,-1.25375l-0.11091,-0.40698l0.0634,-0.35644z" fill="#20201f" stroke="none" stroke-width="0" stroke-linecap="butt"/><path d="M242.82557,191.54837c0,0 0.43879,0.44032 0.73953,0.79213c0.3811,0.44582 1.31296,1.61751 1.31296,1.61751" fill="none" stroke="#c8c7c6" stroke-width="0.125" stroke-linecap="round"/><path d="M242.95541,189.41968c0.21054,0.71336 0.45958,0.85666 0.2975,1.38617c-0.16208,0.52951 -0.49539,0.85691 -1.05553,1.09024c-1.05556,0.30521 -1.39567,0.32461 -1.88716,0.16381c-0.18952,-0.10787 -0.77873,-1.01641 -0.8544,-1.71282c-0.01984,-0.18261 0.46994,-1.2954 1.19252,-1.48688c0.72259,-0.19149 2.04243,-0.3372 2.30707,0.55948z" fill="#c274a1" stroke="none" stroke-width="0" stroke-linecap="butt"/><path d="M242.95541,189.48218c0.21054,0.71337 -1.052,1.15834 -1.43024,1.23835c-0.46125,0.09758 -1.99368,0.38546 -2.06936,-0.31095c-0.01985,-0.18261 0.46994,-1.2954 1.19253,-1.48689c0.72259,-0.19149 2.04243,-0.33719 2.30707,0.55948z" fill="#cacacd" stroke="none" stroke-width="0" stroke-linecap="butt"/><path d="M242.98629,198.19197c0.0751,0.21887 0.30971,0.21208 0.28962,0.40406c-0.03367,0.32175 -0.25155,0.37272 -0.3164,0.37272c-0.10355,0 -0.25725,-0.28324 -0.29464,-0.66964c-0.03739,-0.3864 -0.08036,-0.83036 -0.08036,-0.83036c0,0 0.32669,0.50434 0.40179,0.72321z" fill="#c8c7c6" stroke="none" stroke-width="0" stroke-linecap="butt"/><path d="M241.11104,197.90554c0,0 0.15162,0.41947 0.28359,0.78455c0.13196,0.36509 0.11462,0.68688 0.02108,0.7313c-0.05859,0.02782 -0.27726,0.07523 -0.44569,-0.20098c-0.1005,-0.1648 0.11434,-0.2593 0.0883,-0.48923c-0.02604,-0.22993 0.05273,-0.82565 0.05273,-0.82565z" data-paper-data="{&quot;index&quot;:null}" fill="#c8c7c6" stroke="none" stroke-width="0" stroke-linecap="butt"/><path d="M240.19157,197.43942c0,0 -0.04194,-1.14506 1.2244,-1.33804c1.8033,-0.27481 2.74996,1.65856 2.74996,1.65856" fill="none" stroke="#c8c7c6" stroke-width="0.125" stroke-linecap="round"/><g fill="#83c4ac" stroke="none" stroke-width="0" stroke-linecap="butt"><path d="M242.83205,192.80196c-0.13045,0.01936 -0.66249,-0.42979 -0.66249,-0.42979l0.77298,-0.68687l0.20306,0.07238c0,0 -0.203,1.02786 -0.31355,1.04428z"/><path d="M243.58339,191.04576c0.12305,0.04743 0.34525,0.54093 0.34525,0.54093l-0.77905,0.24081l-0.25702,-0.13397c0,0 0.58653,-0.68797 0.69082,-0.64778z" data-paper-data="{&quot;index&quot;:null}"/><path d="M243.66632,193.49783c-0.12494,0.04218 -0.72819,-0.30552 -0.72819,-0.30552l0.59544,-0.82268l0.25618,0.04488c0,0 -0.01754,1.04757 -0.12343,1.08333z"/><path d="M243.99511,191.55931c0.13133,0.01203 0.4798,0.42614 0.4798,0.42614l-0.68372,0.44434l-0.28383,-0.05873c0,0 0.37645,-0.82196 0.48775,-0.81176z" data-paper-data="{&quot;index&quot;:null}"/><path d="M244.21526,194.05788l-0.25677,-0.94242c0,0 -0.23293,-0.3102 -0.10679,-0.42654c0.12615,-0.11633 0.29037,0.25724 0.29037,0.25724l0.59495,0.65219l-0.06447,0.39098z"/></g></g><path d="M241.13348,184.5573l0.64086,3.72209l0.24475,1.33028c0,0 -0.27671,0.34221 -0.5154,0.47678c-0.23869,0.13457 -0.78808,0.25808 -0.78808,0.25808l-0.30175,-1.78308l-0.6119,-4.09511z" fill="#20201f" stroke="none" stroke-width="0" stroke-linecap="butt" stroke-linejoin="miter"/><g stroke-width="0" stroke-linecap="butt" stroke-linejoin="miter"><path d="M226.7968,182.94738c2.15356,0.17942 3.45995,2.71166 3.45995,2.71166l-0.04074,0.95605c0,0 -0.71534,-0.5382 -3.44895,-1.24497c-1.86534,0.3045 -4.11312,0.52043 -4.11312,0.52043c0,0 -0.07635,0.34351 -0.00439,-0.38067c0.07196,-0.72418 0.09008,-0.45859 0.09008,-0.45859c0,0 1.03536,-2.35567 4.05716,-2.10389z" fill="#cacacd" stroke="none"/><path d="M222.61823,185.96458c0,0 1.12556,-1.5121 3.70711,-1.28323c2.74176,0.24307 3.90787,1.90583 3.90787,1.90583c0,0 -0.30853,2.84292 -4.02267,2.49885c-3.30966,-0.30659 -3.59231,-3.12145 -3.59231,-3.12145z" fill="#c2e266" stroke="#000000"/><path d="M230.32472,182.9699l-7.37911,-0.74171c0,0 0.44928,-3.86627 4.00834,-3.60067c3.61059,0.26945 3.37077,4.34238 3.37077,4.34238z" fill="#c2e266" stroke="none"/><path d="M230.33065,183.06693l-3.63657,-2.07513l-3.74132,1.23059l0.02313,-0.27873c0,0 0.9091,-1.86677 3.78946,-1.66192c2.84704,0.20574 3.58349,2.43562 3.58349,2.43562z" fill="#cacacd" stroke="none"/><path d="M226.92315,180.75574c2.09454,0.24574 3.43262,2.19947 3.43262,2.19947l-0.13443,3.13898c0,0 -2.24169,-1.86371 -3.86159,-2.03017c-1.6199,-0.16646 -3.67912,1.2553 -3.67912,1.2553l0.25987,-3.09609c0,0 1.04367,-1.81232 3.98265,-1.46749z" fill="#c274a1" stroke="none"/><path d="M232.67001,185.66325c0,0 0.16612,-0.62498 0.21334,-1.02969c0.04722,-0.40471 0.02096,-0.97842 0.02096,-0.97842l11.18233,1.57107c0,0 0.15131,0.67453 0.10222,1.1047c-0.04909,0.43017 -0.31926,0.79705 -0.31926,0.79705l-11.1996,-1.46473z" fill="#c2e266" stroke="none"/><path d="M230.15424,185.77822l0.1101,-2.78359c0,0 2.39986,0.15623 2.57137,0.45606c0.29048,0.50779 0.00373,2.21029 -0.33669,2.44867c-0.08968,0.0628 -2.34477,-0.12114 -2.34477,-0.12114z" fill="#cacacd" stroke="none"/></g><g><g data-paper-data="{&quot;index&quot;:null}" fill="#86cbb6" stroke="none" stroke-width="0" stroke-linecap="butt" stroke-linejoin="miter"><path d="M234.28676,169.76215c-0.46637,0.1239 -0.99927,0.33149 -0.99927,0.33149l-0.16933,-1.01264c0,0 0.88711,-0.18672 1.31954,-0.16046c0.43243,0.02626 1.196,0.38739 1.196,0.38739l-0.61586,0.31347c0,0 -0.26471,0.01685 -0.73107,0.14074z"/><path d="M233.59039,170.81135c0,0 0.35428,-0.39539 0.56021,-0.60759c0.2567,-0.26452 0.8615,-0.85744 0.8615,-0.85744l0.59118,-0.07586c0,0 -0.67833,1.00656 -0.88289,1.33816c-0.14851,0.24074 -0.46648,0.752 -0.46648,0.752z"/></g><g stroke="none" stroke-width="0" stroke-linecap="butt" stroke-linejoin="miter"><path d="M234.26521,166.36819c0.706,-0.47723 1.19505,-0.2308 1.60065,0.0687c0.53171,0.38738 1.02033,1.03508 1.02033,1.03508c0,0 -0.76692,0.65933 -1.07701,1.15654c-0.31009,0.49721 -0.52636,1.41436 -0.52636,1.41436c0,0 -1.4198,-0.92495 -1.57942,-1.82104c-0.15962,-0.89609 -0.0766,-1.30365 0.56182,-1.85364z" data-paper-data="{&quot;index&quot;:null}" fill="#20201f"/><path d="M233.73908,167.29184c0.1597,-0.51002 1.02777,0.8412 1.02777,0.8412l-0.731,0.7453c0,0 -0.5036,-0.92596 -0.29676,-1.5865z" data-paper-data="{&quot;index&quot;:null}" fill="#b2b1b2"/></g><path d="M240.82368,166.15401c3.33818,0 6.0443,2.33386 6.0443,5.21282c0,2.87895 -2.70612,5.2128 -6.0443,5.2128c-3.33818,0 -6.04431,-2.33384 -6.04431,-5.2128c0,-2.87895 2.70612,-5.21281 6.04431,-5.21281z" fill="#f79eb4" stroke="none" stroke-width="0" stroke-linecap="butt" stroke-linejoin="miter"/><path d="M235.54294,172.63026c-0.00019,-0.00071 0.19735,1.16732 0.60411,1.81476c0.40677,0.64744 1.9589,2.37171 1.9589,2.37171l0.28262,0.91116c0,0 -1.47979,-0.05771 -2.69053,-2.22704c-0.75503,-1.34395 -0.72519,-2.40445 -0.71892,-2.38834" fill="#f79eb4" stroke="#f89db5" stroke-width="0" stroke-linecap="butt" stroke-linejoin="round"/><g fill="#ffd5c5" stroke="none" stroke-width="1" stroke-linecap="round" stroke-linejoin="round"><path d="M236.46545,175.0255c0.01286,-0.05827 0.10724,0.05912 0.15022,0.10052c0.26562,0.25558 0.5611,-0.04023 0.75847,-0.1947c0.15166,-0.11865 0.39988,-0.18165 0.58844,-0.18388c0.9073,-0.00118 2.65248,0.58906 2.96625,0.60243c0.29203,0.01245 1.1405,-0.45673 1.45072,-0.56231c0.31827,-0.10832 0.58883,-0.00731 0.63715,0.0301c0.10131,0.07848 0.81974,0.57762 -0.13962,1.61022c-0.1333,0.14347 -0.97502,0.67153 -1.44795,0.72743c-0.39656,0.04683 -1.77722,0.2449 -2.82313,-0.10525c-0.83355,-0.27907 -1.34071,-0.67124 -1.40543,-0.72159c-0.39554,-0.30784 -0.85282,-0.7683 -0.73513,-1.30295z"/><path d=""/></g><g fill="#000000" stroke="#000000" stroke-width="0.125" stroke-linecap="butt" stroke-linejoin="round"><path d="M235.58503,173.4746c0.00352,0.02456 -0.63044,-0.08212 -0.70803,-0.10451c-0.35338,-0.10189 -0.65339,-0.21094 -0.9856,-0.37014c-0.10599,-0.05078 -0.45547,-0.26627 -0.44996,-0.26442c0.16201,0.05411 0.30848,0.15939 0.46915,0.22066c0.26838,0.10227 0.54502,0.18063 0.82216,0.25642c0.44035,0.10327 0.73658,0.0728 0.799,0.09365"/><path d="M235.45263,172.98326c0.00326,0.02291 -0.61525,-0.11643 -0.91062,-0.27614c-0.29537,-0.15971 -0.93662,-0.68589 -0.9297,-0.67201c0.01836,0.03678 0.59678,0.39886 1.01418,0.58572c0.41741,0.18686 0.74875,0.17446 0.77433,0.149"/></g><g fill="#000000" stroke="none" stroke-width="1" stroke-linecap="round" stroke-linejoin="round"><path d="M237.68865,175.41113c-0.10995,0.00735 -0.48839,-0.23941 -0.33055,-0.35514c0.09124,-0.0669 0.62028,-0.12542 0.76951,-0.01737c0.19634,0.14218 -0.19987,0.33697 -0.43896,0.37251z"/><path d=""/></g><path d="M245.30588,171.81111c0.02283,0.01375 -0.1372,2.3031 -0.28494,2.82591c-0.22169,0.78448 -0.57942,1.5313 -1.10908,2.1546c-0.2252,0.26499 -0.45886,0.4838 -0.72366,0.70465c-0.08571,0.07151 -0.44345,0.30592 -0.44345,0.30592c0,0 0.38297,-1.02833 0.42394,-2.68636c0.02174,-0.88046 -0.0985,-2.82917 -0.07803,-2.77616" fill="#f79eb4" stroke="#f89db5" stroke-width="0" stroke-linecap="butt" stroke-linejoin="round"/><path d="M246.6854,171.14147c0.17972,0.35946 0.07703,2.22582 -0.29214,3.58465c-0.2845,1.04717 -0.56368,1.32951 -1.05988,1.88672c-0.56196,0.63103 -0.97324,0.69448 -0.97324,0.69448c0,0 0.46717,-1.15581 0.61363,-1.93401c0.14647,-0.7782 0.4414,-3.57904 0.42676,-3.59368" fill="#f79eb4" stroke="#f89db5" stroke-width="0" stroke-linecap="butt" stroke-linejoin="round"/><g stroke="none" stroke-width="1" stroke-linecap="round" stroke-linejoin="round"><path d="M236.66013,168.11268c0.10037,-0.118 2.50967,-1.90762 5.50322,-1.44986c3.70009,0.60495 4.06667,4.70868 4.06402,4.70804c-0.03696,-0.00895 -0.62917,-1.57821 -1.58627,-2.26644c-1.24102,-0.89243 -1.95981,-1.41069 -3.3219,-1.62756c-1.72818,-0.27517 -4.13455,1.11572 -4.22898,1.17164" fill="#20201f"/><path d="" fill="#ee1a40"/></g><path d="M241.62836,170.96761c-0.60751,0 -2.95854,1.67439 -2.95854,1.67439c0,0 1.07279,-3.41601 3.80854,-2.69146c1.13447,0.58774 0.5,2.66707 0.5,2.66707c0,0 -0.74249,-1.65 -1.35,-1.65z" data-paper-data="{&quot;index&quot;:null}" fill="#20201f" stroke="none" stroke-width="0" stroke-linecap="butt" stroke-linejoin="miter"/><path d="M238.46246,173.20571c0.64899,-0.95161 0.93837,-2.66505 2.98484,-2.89957c0.44454,-0.05095 1.7524,0.53343 1.46832,2.67571c-0.09453,0.7129 -0.41877,1.78557 -1.6902,2.37548c-0.65297,0.19369 -2.1921,-0.54254 -2.8683,-0.57727c-1.18722,-0.06096 -1.01455,0.4724 -1.60028,0.45107c-0.1466,-0.00534 -0.97292,-0.86661 -1.30206,-2.08886c-0.1552,-0.57634 -0.10873,-1.41812 -0.04066,-1.41753c0.44916,0.00388 0.83212,0.93518 1.23813,1.45808c0.28398,0.36575 0.66451,0.66728 1.00158,0.63715c0.19648,-0.01756 0.39491,-0.00763 0.80863,-0.61427z" fill="#ffffff" stroke="none" stroke-width="0" stroke-linecap="butt" stroke-linejoin="miter"/><g fill="#000000" stroke="#000000" stroke-width="0.125" stroke-linecap="butt" stroke-linejoin="round"><path d="M242.57966,171.01644c0.04937,-0.0181 0.0898,0.01714 0.13643,0.01964c0.04888,0.00262 0.27437,-0.01879 0.44337,-0.0638c0.86784,-0.23116 1.28479,-0.7476 1.28479,-0.7476c0,0 -0.15591,0.38172 -1.37931,0.92237c-0.19055,0.08422 -0.34379,0.07132 -0.36822,0.0353"/><path d="M242.91218,171.72437c0.0337,0.00384 0.09453,0.06281 0.12357,0.08405c0.06588,0.04823 0.55527,0.3343 1.29821,0.21882c0.24619,-0.03966 1.02076,-0.26251 1.02076,-0.26251c0,0 -0.38361,0.22833 -1.06852,0.33041c-0.28724,0.0428 -0.90724,0.04647 -1.15066,-0.03326c-0.13127,-0.04299 -0.16777,-0.08602 -0.16777,-0.08602"/></g><g stroke="none" stroke-linecap="butt" stroke-linejoin="miter"><path d="M240.36889,173.6335c0.04639,0.71913 -0.1046,1.31426 -0.33725,1.32927c-0.23265,0.015 -0.45888,-0.55579 -0.50528,-1.27491c-0.04639,-0.71913 0.10461,-1.31427 0.33726,-1.32928c0.23265,-0.015 0.45888,0.55579 0.50527,1.27492z" fill="#169c5b" stroke-width="NaN"/><path d="M240.13671,173.81003c0.01937,0.30036 -0.04778,0.54921 -0.15001,0.5558c-0.10223,0.0066 -0.20082,-0.23156 -0.22018,-0.53193c-0.01937,-0.30036 0.04778,-0.54921 0.15001,-0.5558c0.10223,-0.0066 0.20082,0.23156 0.22018,0.53193z" fill="#000000" stroke-width="0"/><path d="M240.01607,173.13202c0.01961,0.3039 -0.06452,0.55669 -0.18789,0.56465c-0.12338,0.00796 -0.23929,-0.23193 -0.2589,-0.53583c-0.01961,-0.3039 0.06452,-0.5567 0.18789,-0.56466c0.12338,-0.00796 0.23929,0.23194 0.2589,0.53583z" fill="#ffffff" stroke-width="0"/></g><g stroke="none" stroke-linecap="butt" stroke-linejoin="miter"><path d="M236.95209,174.12122c0.03271,0.50723 -0.07377,0.927 -0.23787,0.93758c-0.16411,0.01058 -0.32366,-0.39202 -0.35639,-0.89925c-0.03271,-0.50723 0.07378,-0.927 0.23788,-0.93758c0.16411,-0.01058 0.32366,0.39201 0.35638,0.89924z" fill="#169c5b" stroke-width="NaN"/><path d="M236.78834,174.24573c0.01368,0.21186 -0.0337,0.38737 -0.10582,0.39203c-0.07211,0.00466 -0.14163,-0.16332 -0.15531,-0.37518c-0.01368,-0.21186 0.0337,-0.38737 0.10582,-0.39202c0.07211,-0.00466 0.14163,0.16331 0.1553,0.37517z" fill="#000000" stroke-width="0"/><path d="M236.70323,173.7675c0.01382,0.21435 -0.0455,0.39264 -0.13252,0.39826c-0.08703,0.00562 -0.16878,-0.16359 -0.18262,-0.37793c-0.01382,-0.21435 0.0455,-0.39266 0.13253,-0.39828c0.08703,-0.00562 0.16877,0.16361 0.18261,0.37795z" fill="#ffffff" stroke-width="0"/></g><path d="M242.25014,176.06651c0,0 -0.33069,0.14824 -0.52892,0.16975c-0.19823,0.02151 -0.77221,0.02805 -0.77221,0.02805" data-paper-data="{&quot;index&quot;:null}" fill="none" stroke="#000000" stroke-width="0.125" stroke-linecap="round" stroke-linejoin="miter"/><g fill="#86cbb6" stroke="none" stroke-width="0" stroke-linecap="butt" stroke-linejoin="miter"><path d="M244.6452,169.15438l-0.73618,-0.37472c0,0 0.91274,-0.43168 1.42965,-0.46307c0.51692,-0.03139 1.57734,0.1918 1.57734,0.1918l-0.20241,1.21048c0,0 -0.63701,-0.24815 -1.19449,-0.39625c-0.55748,-0.1481 -0.8739,-0.16824 -0.8739,-0.16824z"/><path d="M245.55838,171.23337c0,0 -0.38009,-0.61114 -0.55761,-0.89892c-0.24452,-0.39638 -1.05538,-1.59959 -1.05538,-1.59959l0.70668,0.09067c0,0 0.72296,0.70875 1.0298,1.02495c0.24615,0.25366 0.66965,0.7263 0.66965,0.7263z"/></g><path d="M244.84331,167.50885c0.17544,1.23219 -0.57082,2.2468 -0.57082,2.2468c0,0 -0.28749,-0.36292 -1.8449,-1.10795c-0.91042,-0.43552 -2.03901,-0.7533 -2.03901,-0.7533c0,0 0.35801,-1.05008 0.88323,-1.78041c0.39893,-0.56232 0.92893,-1.09132 2.04987,-0.773c1.06424,0.44171 1.34619,0.93567 1.52163,2.16786z" fill="#20201f" stroke="none" stroke-width="0" stroke-linecap="butt" stroke-linejoin="miter"/><path d="M243.68007,168.1135c0,0 -0.19927,-0.1702 -1.12395,-0.46227c-0.54055,-0.17073 -1.18246,-0.26778 -1.18246,-0.26778c0,0 0.44082,-1.23455 1.4572,-0.95312c1.07157,0.29671 0.84921,1.68317 0.84921,1.68317z" fill="#b2b1b2" stroke="none" stroke-width="0" stroke-linecap="butt" stroke-linejoin="miter"/></g><g stroke="none" stroke-width="0" stroke-linecap="butt" stroke-linejoin="miter"><path d="M240.73058,182.342c1.47595,0 2.67245,0.84174 2.67245,1.88007c0,1.03834 -1.1965,1.88007 -2.67245,1.88007c-1.47596,0 -2.67246,-0.84174 -2.67246,-1.88007c0,-1.03833 1.19651,-1.88007 2.67246,-1.88007z" fill="#20201f"/><path d="M241.14569,178.00074c0.11644,-0.37389 0.33076,-0.41647 0.54084,-0.37088c0.31269,0.06787 0.44262,0.27517 0.3887,0.58401c-0.21522,1.23254 -0.38086,2.31413 -0.47647,3.17148c-0.05829,0.52267 -0.21156,2.57069 -0.21156,2.57069l-1.21511,-0.1108c0,0 0.16669,-1.14969 0.31117,-2.44527c0.10105,-0.90618 0.31077,-2.27012 0.66243,-3.39924z" fill="#fed5c7"/><path d="M240.39029,180.47907l0.19759,-1.12889l1.43836,0.10274l-0.16334,1.12889z" fill="#83c4ac"/><path d="M240.3556,178.15803c0.09756,-0.65311 0.64291,-1.14018 1.25574,-1.08411c0.61283,0.05607 1.04422,0.63236 0.96353,1.28717c-0.14346,1.16414 -0.64291,1.32769 -1.25574,1.27161c-0.61283,-0.05607 -1.12617,-0.38587 -0.96353,-1.47468z" fill="#20201f"/><path d="M239.84234,181.84894l0.51369,-1.40411l1.50685,0.10274l0.27398,1.5411l-0.65248,0.11696l-1.13463,-0.13053z" fill="#bebec0"/><g><path d="M239.43773,184.61867l2.55803,0.12452c0,0 0.33365,0.1809 0.55766,0.72209c0.14549,0.35146 0.05408,0.97319 0.05408,0.97319c0,0 0.46194,-0.58005 0.88586,-0.15261c0.27219,0.27444 -0.098,1.37069 -0.31978,1.72152c-0.13056,0.20654 -0.48175,0.48844 -0.82421,0.56681c-0.21602,0.04944 -0.4989,-0.06678 -0.4989,-0.06678c0,0 -0.13954,0.36714 -0.54255,0.25307c-0.12347,-0.03494 -0.30213,-0.04791 -0.30213,-0.04791c0,0 -0.18184,0.231 -0.3197,0.30785c-0.13787,0.07685 -0.39842,0.0696 -0.39842,0.0696l-0.33971,-0.27586c0,0 -0.50161,0.25849 -0.61728,0.25497c-0.45372,-0.01381 -0.62965,-0.48543 -0.72571,-0.73794c-0.17588,-0.46232 -0.41034,-1.53397 -0.35111,-1.66237c0.37179,-0.80588 1.18389,-2.05015 1.18389,-2.05015z" fill="#20201f"/><path d="M242.6075,186.43847c0,0 0.46194,-0.58005 0.88586,-0.15261c0.27219,0.27444 0.16516,0.79861 -0.05662,1.14944c-0.13056,0.20654 -0.82924,-0.99683 -0.82924,-0.99683z" fill="#c0c2c6"/></g></g><path d="M236.57714,170.8951c-0.02988,-0.02425 -1.53362,0.62069 -2.10115,0.83659c-1.0394,0.3954 -2.81406,1.04966 -2.83728,1.0521c-0.01618,0.00165 0.83015,-0.47605 1.15271,-1.15488c0.26493,-0.74642 1.24023,-1.10728 1.55786,-1.18672c1.78233,-0.43557 2.45084,-0.67365 2.42814,-0.69208" fill="#f79eb4" stroke="#f89db5" stroke-width="0" stroke-linecap="butt" stroke-linejoin="round"/><path d="M236.76888,169.75251c-0.10394,-0.08347 -1.74914,0.23199 -2.78726,0.03653c-0.74826,-0.14088 -2.66113,-0.64998 -2.66113,-0.64998c0,0 1.27737,-0.24802 3.33454,-0.33995c0.60453,0.03145 1.10756,-0.06696 1.38858,0.18624c0.28102,0.2532 1.57217,0.71957 1.58125,0.80265" fill="#f79eb4" stroke="#f89db5" stroke-width="0" stroke-linecap="butt" stroke-linejoin="round"/><path d="M236.63355,171.9163c-0.11506,0.08429 -0.78935,1.03779 -1.01174,1.32421c-0.65631,0.85548 -0.81048,1.92262 -0.77563,1.94737c0.0016,0.00115 -0.43765,-1.60246 -0.41245,-2.21239c-0.01708,-0.15006 0.60617,-0.99438 0.85318,-1.13759c0.85983,-0.4985 1.39402,-0.88269 1.35336,-0.85294" fill="#f79eb4" stroke="#f89db5" stroke-width="0" stroke-linecap="butt" stroke-linejoin="round"/></g></g></svg>