<svg version="1.1" xmlns="http://www.w3.org/2000/svg" xmlns:xlink="http://www.w3.org/1999/xlink" width="38" height="31.61915" viewBox="0,0,38,31.61915"><g transform="translate(-225.30893,-163.30538)"><g data-paper-data="{&quot;isPaintingLayer&quot;:true}" fill-rule="nonzero" stroke-linejoin="miter" stroke-miterlimit="10" stroke-dasharray="" stroke-dashoffset="0" style="mix-blend-mode: normal"><path d="M236.04934,185.89305c0.18604,-0.46832 0.27722,-1.03904 0.44157,-1.4711c0.70659,-1.2493 0.99288,0.01795 1.11923,0.70729c0.0985,0.41912 -0.12065,0.89495 -0.27636,1.30816c-0.21894,0.57709 -0.34264,1.40265 -0.85658,1.68657c-0.42964,0.23119 -1.20016,0.07015 -1.29411,-0.40519c-0.12581,-0.63557 0.61517,-1.19216 0.86624,-1.82574z" data-paper-data="{&quot;index&quot;:null}" fill="#f8b820" stroke="none" stroke-width="0.65663" stroke-linecap="round"/><g data-paper-data="{&quot;index&quot;:null}" stroke-linecap="round"><path d="M233.8227,192.96217c-0.6112,-0.28782 -1.15496,-0.72597 -1.50253,-1.21007c-0.27452,-0.42674 -0.73559,-0.91979 -0.59672,-1.31603c0.154,-0.4396 1.36644,-0.65469 1.32797,-0.76931c-0.03828,-0.11328 -1.43311,0.72075 -1.59597,0.40313c-0.24081,-0.47087 0.581,-1.15711 1.07,-1.63201c0.18065,-0.16434 1.00378,-0.08477 1.32414,-0.09621c0.13913,-0.00497 -0.49168,-0.45124 -0.36918,-0.48038c0.08175,-0.01945 -0.07968,-0.24473 0.21132,-0.4992c0.1615,-0.14123 1.22668,0.39664 1.22668,0.39664c0,0 -1.03837,-0.73969 -0.67447,-1.06745c0.18475,-0.16641 0.4115,-0.09701 0.54818,-0.0824c0.46857,0.09626 0.23871,0.00592 0.96815,0.33594c0.72943,0.33002 1.02859,0.50278 1.59742,0.87285c0.56884,0.37008 0.63896,0.36815 0.75597,0.68562c0.083,0.22578 -0.17892,0.5317 -0.59134,0.48074c-0.41838,-0.05169 -0.82182,-0.19087 -0.82182,-0.19087c0,0 0.88888,0.41525 0.52886,0.98894c-0.20964,0.33406 -0.82644,0.12222 -0.87428,0.25466c-0.3638,1.00889 -0.26179,1.89852 -1.07451,2.69904c-0.46106,0.45476 -0.7298,0.56861 -1.45785,0.22637z" fill="#a8c8d8" stroke="none" stroke-width="0.67216"/><path d="M236.34958,190.00196c0,0 -0.72703,-0.19748 -1.25771,-0.56676c-0.53068,-0.36928 -1.33659,-1.12642 -1.33659,-1.12642" fill="none" stroke="#707070" stroke-width="0.25"/></g><g><path d="M247.77472,184.69731l0.82466,0.01376c0,0 1.35351,2.50016 1.77475,3.88319c0.3514,1.15373 0.60832,2.91586 0.62787,3.63715c0.03375,1.24539 -0.59016,1.03868 -0.59016,1.03868c0,0 0.01137,-3.26873 -0.34301,-4.54667c-0.25261,-0.91109 -2.29411,-4.02611 -2.29411,-4.02611z" fill="#989898" stroke="#989898" stroke-width="0" stroke-linecap="round"/><path d="M246.51199,186.53513c0.0971,-0.55386 0.16529,-0.98994 0.58141,-1.42688c0.59155,-0.62113 0.99177,-0.42724 1.30367,-0.00197c0.65627,0.8954 1.34038,2.6463 1.34038,2.6463l-2.97173,1.84899c0,0 -0.40135,-2.21726 -0.25373,-3.06645z" fill="#f82020" stroke="none" stroke-width="1.13968" stroke-linecap="round"/><path d="M249.68416,187.67807c0,0 0.16697,0.10572 0.42984,1.06462c0.26287,0.95889 0.48404,2.24997 0.55577,3.34357c0.02819,0.43851 0.11332,1.18619 -0.22983,1.24295c-0.58417,0.09672 -1.81287,-0.13732 -2.29527,-0.65722c-0.47933,-0.51698 -1.47084,-2.47589 -1.39049,-3.20748c0.15686,-1.30232 2.93,-1.78643 2.93,-1.78643z" fill="#f8f8f8" stroke="none" stroke-width="1.15102" stroke-linecap="round"/><path d="M244.69248,186.77156c-0.02418,-0.42791 -0.38169,-1.16494 0.05506,-1.63094c0.49611,-0.52934 0.92319,0.11856 0.92319,0.11856c0,0 0.14116,-0.62932 0.55204,-0.40734c0.39894,0.21553 0.4031,0.49792 0.45751,0.79936c0.09144,0.50652 -0.12822,1.37756 -0.11821,1.55457c0.05003,0.88514 0.37682,2.18821 -0.08752,2.21445c-0.12317,0.00696 -0.71663,-0.19807 -0.71663,-0.19807c0,0 -0.59247,0.52503 -0.80402,0.15608c-0.27444,-0.47863 -0.24066,-2.23941 -0.26141,-2.60667z" fill="#ffffff" stroke="none" stroke-width="0" stroke-linecap="butt"/></g><path d="M244.81471,186.54495c0.2319,0.451 0.0744,1.2097 -0.3455,1.4122c-0.6542,0.3237 -1.5113,0.1313 -2.1297,-0.1995c-0.3795,-0.1978 -0.5472,-0.6966 -0.5726,-1.1504c-0.0465,-0.8117 -0.0631,-1.7152 0.3326,-2.4196c0.1563,-0.2754 0.8034,-0.1828 1.004,0.0852c0.3591,0.4777 -0.0556,1.2983 0.3044,1.7794c0.3061,0.4074 1.1775,0.0537 1.4068,0.4927z" data-paper-data="{&quot;index&quot;:null}" fill="#e88820" stroke="none" stroke-width="0.49091" stroke-linecap="round"/><path d="M244.75563,185.86916c-0.4128,0.5788 -1.4035,0.324 -2.1109,0.3191c-0.6505,-0.002 -1.3804,0.0879 -1.9391,-0.2455c-0.5572,-0.3333 -0.8365,-1.0387 -1.1291,-1.6445c-0.0766,-0.1414 -0.1369,-0.3294 0.0737,-0.4909c0.8428,-0.6466 1.7849,-1.1758 2.749,-1.62c0.5381,-0.2479 1.22701,-0.30531 1.80481,-0.17571c0.4929,0.1169 1.01881,0.51394 1.09291,0.92624c0.1649,1.1188 0.05568,2.09037 -0.54132,2.93127z" data-paper-data="{&quot;index&quot;:null}" fill="#f8b820" stroke="none" stroke-width="0.49091" stroke-linecap="round"/><path d="M241.08763,186.01966c-0.196,-0.1735 0.571,-0.5313 0.8707,-0.7579c0.2711,-0.2044 0.5036,-0.536 0.8384,-0.5805c0.2279,-0.0223 0.5152,0.2489 0.5533,0.5234c0.0488,0.2817 -0.0492,0.7555 -0.3386,0.8546c-0.6077,0.2072 -1.5932,0.1856 -1.9238,-0.0396z" data-paper-data="{&quot;index&quot;:null}" fill="#f8f8f8" stroke="none" stroke-width="1" stroke-linecap="round"/><path d="M239.6559,187.85456c0.1528,-0.4802 0.2872,-0.982 0.3375,-1.4984c0.0663,-0.6803 -0.3086,-1.4804 0,-2.0561c0.1915,-0.3568 0.9365,-0.4419 1.1046,-0.0697c0.3504,0.8085 0.1111,1.8302 0.0614,2.753c-0.0234,0.4266 -0.0583,0.9012 -0.1841,1.3243c-0.1743,0.5771 -0.2436,1.4232 -0.7364,1.7424c-0.4124,0.2607 -1.1923,0.154 -1.3193,-0.3136c-0.17,-0.6252 0.5302,-1.2323 0.7363,-1.8819z" data-paper-data="{&quot;index&quot;:null}" fill="#f8b820" stroke="none" stroke-width="0.65663" stroke-linecap="round"/><path d="M239.63743,185.97055c-0.8146,0.2427 -1.7376,-0.0113 -2.5298,-0.2871c-0.235,-0.1001 -0.35,-0.5054 -0.2086,-0.7135c0.1953,-0.2797 0.6448,-0.232 0.9578,-0.3676c0.716,-0.3096 1.5306,-1.1708 2.0908,-1.0947c0.3583,0.0934 -0.1246,0.84406 0.0272,1.26516c0.0869,0.2304 1.14606,-0.27724 1.12866,-0.14114c-0.0109,0.3785 -0.98856,1.19678 -1.46606,1.33888z" data-paper-data="{&quot;index&quot;:null}" fill="#f8f8f8" stroke="none" stroke-width="1" stroke-linecap="round"/><g data-paper-data="{&quot;index&quot;:null}" stroke-linecap="round"><path d="M236.6874,193.80775c-0.3385,-0.378 -0.53836,-0.34755 -0.46386,-0.76075c0.24927,-0.79173 0.96802,-1.25129 0.91192,-1.35839c-0.0557,-0.1058 -1.02342,1.82706 -1.62331,0.92805c-0.3122,-0.4269 0.81938,-1.47744 1.22718,-2.02364c0.15241,-0.19083 0.60479,-0.33261 0.91932,-0.39453c0.13661,-0.02689 -0.55681,-0.36786 -0.44046,-0.41601c0.07765,-0.03213 -0.11736,-0.22907 0.12977,-0.52632c0.13715,-0.16497 1.27396,0.19781 1.27396,0.19781c0,0 -1.14222,-0.56629 -0.83469,-0.94744c0.15614,-0.19351 0.39101,-0.16083 0.52828,-0.168c0.4779,0.021 0.23665,-0.03187 1.00907,0.17873c0.77242,0.2106 1.09512,0.33391 1.71529,0.60944c0.62017,0.27553 0.68912,0.26254 0.85482,0.55754c0.11765,0.20983 -0.09265,0.55329 -0.50794,0.56815c-0.4213,0.01507 -0.84166,-0.0586 -0.84166,-0.0586c0,0 0.94333,0.26955 0.67849,0.89294c-0.15421,0.36299 -0.90172,0.39793 -0.92803,0.53625c0.32961,0.99488 0.60815,1.99706 -0.06785,2.91596c-0.3834,0.5219 -1.16017,0.43185 -1.93316,0.20895c-0.649,-0.1876 -1.18744,-0.51703 -1.60715,-0.94013z" fill="#ffffff" stroke="none" stroke-width="0.67216"/><path d="M240.30111,191.51265c0,0 -0.66059,-0.14992 -1.24296,-0.4307c-0.58237,-0.28078 -1.49779,-0.90103 -1.49779,-0.90103" fill="none" stroke="#707070" stroke-width="0.25"/></g><path d="M246.1394,175.14444c0,3.67923 -0.79915,6.36383 -1.15669,7.28335c-0.22267,0.57267 -0.30752,0.07576 -0.30752,0.07576c0,0 0.32063,-0.97151 0.32063,-6.9421c0,-2.00845 -2.15189,-4.30491 -2.3331,-5.04466c-0.19986,-0.81593 2.87875,-0.62371 2.87875,-0.62371c0,0 3.20894,-1.09532 3.11029,0.02077c-0.07905,0.89439 -2.51236,3.52196 -2.51236,5.2306z" data-paper-data="{&quot;index&quot;:null}" fill="#e2a026" stroke="none" stroke-width="0" stroke-linecap="butt"/><path d="M242.19393,175.35295c0,-1.70864 -1.66857,-4.05755 -1.76167,-4.95194c-0.11617,-1.11608 2.1755,-0.29943 2.1755,-0.29943c0,0 3.31872,-0.84244 3.08336,-0.02651c-0.21339,0.73975 -2.15048,3.68642 -2.15048,5.69487c0,5.9706 0.21456,6.84921 0.21456,6.84921c0,0 0.02724,0.49302 -0.26929,-0.21858c-0.40775,-0.9785 -1.29197,-3.5909 -1.29197,-7.04764z" fill="#e2a026" stroke="none" stroke-width="0" stroke-linecap="butt"/><path d="M263.30893,168.48395c0,2.86005 -8.50659,5.17857 -19,5.17857c-10.49341,0 -19,-2.31852 -19,-5.17857c0,-2.86005 8.50659,-5.17857 19,-5.17857c10.49341,0 19,2.31852 19,5.17857z" fill-opacity="0.90196" fill="#e3a127" stroke="none" stroke-width="0" stroke-linecap="butt"/><path d="M239.18261,172.89395c-0.0764,-0.02174 -1.53979,-0.34425 -2.4492,-0.85844c-1.43673,-0.81236 -2.53416,-1.94759 -2.53416,-1.94759c0,0 1.98008,1.07678 2.54163,1.26122c0.99934,0.32821 2.94072,0.53931 2.94072,0.53931c0,0 -1.70805,-0.24083 -2.49428,-0.54096c-0.66702,-0.25463 -1.92455,-1.14588 -1.92455,-1.14588c0,0 1.22187,0.35875 1.76858,0.46221c0.62133,0.11759 1.76427,0.20637 1.76427,0.20637c0,0 -0.82403,-0.17658 -1.32425,-0.37109c-0.50023,-0.19452 -1.03923,-0.54795 -1.03923,-0.54795c0,0 0.63363,0.0381 0.91845,0.02959c0.31762,-0.00949 0.9783,-0.13542 0.9783,-0.13542c0,0 -0.68015,-0.181 -1.07828,-0.38337c-0.39813,-0.20237 -0.94552,-0.64535 -0.94552,-0.64535c0,0 0.49095,-0.00017 0.80437,-0.0193c0.31343,-0.01913 0.58577,-0.06556 0.58577,-0.06556c0,0 -0.3719,-0.10436 -0.57904,-0.23235c-0.20714,-0.12798 -0.43666,-0.39517 -0.43666,-0.39517c0,0 0.36082,0.0281 0.52328,0.01753c0.20636,-0.01344 0.615,-0.09162 0.615,-0.09162c0,0 -0.57471,-0.24683 -0.76055,-0.37033c-0.13823,-0.09184 -0.39888,-0.32517 -0.39888,-0.32517l0.60791,0.08801l-0.38602,-0.58656l1.00579,0.42432l-0.47065,0.37486l0.85713,0.46039l-0.71733,0.29959c0,0 0.20202,0.20545 0.35699,0.30164c0.15496,0.09619 0.46722,0.20996 0.46722,0.20996c0,0 -0.33552,0.1259 -0.56008,0.13328c-0.22456,0.00738 -0.85523,-0.08675 -0.85523,-0.08675l1.12544,0.49057l1.54013,0.38114c0,0 -0.48442,0.2252 -0.81441,0.30377c-0.33,0.07857 -1.03879,0.13744 -1.03879,0.13744c0,0 0.71885,0.2016 1.18403,0.31012c0.46518,0.10853 1.33164,0.27679 1.33164,0.27679c0,0 -0.75223,0.3427 -1.26556,0.3617c-0.51332,0.01901 -1.67591,-0.2528 -1.67591,-0.2528c0,0 1.29254,0.50235 2.16264,0.61892c0.87012,0.11658 3.04954,0.07937 3.04954,0.07937c0,0 -1.60583,0.67777 -2.68267,0.64965c-1.07684,-0.02811 -3.37981,-0.80792 -3.37981,-0.80792c0,0 2.89053,0.99576 3.49228,1.03878c1.51177,0.1081 4.66126,-0.52482 4.66126,-0.52482c0,0 -2.41216,1.7488 -5.47131,0.87789z" data-paper-data="{&quot;index&quot;:null}" fill="#dcdce1" stroke="none" stroke-width="0" stroke-linecap="butt"/><path d="M242.48473,172.16673c0.47618,1.42479 0.4,3.15 0.4,3.15c0,0 1.159,3.72333 -0.05,5.68333c-1.029,1.667 -3.651,1.626 -5.6,1.8c-1.574,0.141 -3.742,0.288 -4.65,-0.95c-1.073,-1.465 -0.464,-4.50967 -0.65,-6.31667c-0.069,-0.682 -0.25667,-1.54975 -0.53146,-2.75c-0.27479,-1.20025 -0.45428,-2.48869 -0.12528,-3.16236c0.146,-0.568 0.71076,0.63316 1.40674,1.17903c0.69598,0.54587 1.75033,1.42 2.43333,1.6c0.8,0.15 0.98833,0.308 1.78333,0.05c0.47,-0.152 2.88207,-3.71215 3.39007,-3.57715c0.603,0.161 1.71708,1.86903 2.19326,3.29382z" data-paper-data="{&quot;index&quot;:null}" fill="#f8b820" stroke="none" stroke-width="1" stroke-linecap="round"/><path d="M233.16123,179.35007c-0.0106,0.621 0.0515,1.319 -0.1765,1.85c-0.1398,0.324 -0.5944,0.61 -0.7059,0.3c-0.3282,-0.913 -0.2887,-2.023 -0.2823,-3.05c-0.0064,-0.564 -0.0149,-1.272 0.2823,-1.65c0.1991,-0.254 0.6544,-0.018 0.7765,0.3c0.2266,0.691 0.1186,1.503 0.1059,2.25z" data-paper-data="{&quot;index&quot;:null}" fill="#ffffff" stroke="none" stroke-width="0.86553" stroke-linecap="round"/><path d="M241.58316,174.65935c-0.11837,0.07265 -1.26277,-0.75934 -2.00088,-1.11208c-0.73811,-0.35274 -1.60174,-0.44973 -1.62826,-0.63523c-0.0653,-0.4913 0.5908,-1.02897 0.8122,-1.46671c0.2324,-0.45929 1.19282,-1.81474 1.46582,-1.71317c0.3074,0.1168 1.58731,4.78105 1.35111,4.92718z" data-paper-data="{&quot;index&quot;:null}" fill="#ffffff" stroke="none" stroke-width="0.85185" stroke-linecap="butt"/><path d="M237.71803,182.50486c-0.2622,0.437 -0.8782,0.3763 -1.3333,0.3668c-0.4907,-0.0272 -1.2364,0.0661 -1.4222,-0.4716c-0.4187,-1.2126 -0.1218,-2.6527 -0.0889,-3.9303c0.0142,-0.5481 -0.016,-1.133 0.2222,-1.6245c0.0418,-0.1887 0.2898,-0.1059 0.4889,-0.1048c0.2382,0.001 0.4524,0.0167 0.7111,0.1048c0.2667,0.0933 0.5413,0.2348 0.7556,0.4192c0.2942,0.2788 0.6302,0.5911 0.7555,0.9957c0.1929,0.6068 0.1911,1.2902 0.1778,1.9389c-0.016,0.7966 0.1129,1.6728 -0.2667,2.3058z" data-paper-data="{&quot;index&quot;:null}" fill="#ffffff" stroke="none" stroke-width="0.97175" stroke-linecap="round"/><path d="M242.74939,179.39634c-0.257,0.28 -0.96989,1.43708 -0.68389,1.58708c0.564,0.297 1.44382,0.54757 1.44382,0.54757c0,0 -0.63649,-0.1669 -1.31049,0.3691c-0.12604,0.10016 2.06638,0.03344 2.06638,0.03344l-2.15472,1.29442l1.487,0.27452c0,0 -3.18378,0.2554 -3.54866,0.44762c-0.40268,0.2119 -1.23734,0.68037 -2.10702,0.8659c-0.86968,0.18553 -2.08302,0.30186 -2.91571,0.2591c-0.75581,-0.0667 -1.83871,-0.39865 -2.66818,-1.1875c-0.514,-0.327 -0.87942,-1.65983 -0.44242,-1.97083c0.763,-0.543 2.08333,-0.31967 2.93333,0.13333c0.75158,0.40055 1.74833,0.48233 2.58333,0.33333c0.82,-0.134 1.428,-0.42033 2.1,-0.93333c1.016,-0.775 3.55623,-2.42375 3.21723,-2.05375z" data-paper-data="{&quot;index&quot;:null}" fill="#f8f8f8" stroke="none" stroke-width="1" stroke-linecap="round"/><path d="M232.6096,181.74731c0.35891,0 0.39298,0.07533 0.62833,0.19695c0.23536,0.12162 -0.26941,0.70806 -0.62833,0.70806c-0.35892,0 -1.038,-0.58644 -0.80265,-0.70806c0.23535,-0.12161 0.44373,-0.19695 0.80265,-0.19695z" data-paper-data="{&quot;index&quot;:null}" fill="#101010" stroke="none" stroke-width="1" stroke-linecap="butt"/><path d="M237.19993,183.97735l-1.7512,0.778" data-paper-data="{&quot;index&quot;:null}" fill="none" stroke="#cccccc" stroke-width="0.36953" stroke-linecap="round"/><path d="M235.80323,179.66257c0.105,0.241 0.1709,0.5722 0.1709,0.9384c0,0.3662 -0.0659,0.6974 -0.1709,0.9384c-0.1062,0.2399 -0.2516,0.3885 -0.413,0.3885c-0.1613,0 -0.3067,-0.1486 -0.4129,-0.3885c-0.1051,-0.241 -0.1709,-0.5722 -0.1709,-0.9384c0,-0.3662 0.0658,-0.6974 0.1709,-0.9384c0.1062,-0.2399 0.2516,-0.3885 0.4129,-0.3885c0.1614,0 0.3068,0.1486 0.413,0.3885z" fill="#4088ed" stroke="none" stroke-width="1.0615" stroke-linecap="butt"/><path d="M235.68063,179.94046c0.0711,0.1501 0.1146,0.3571 0.1146,0.5859c0,0.2288 -0.0435,0.4358 -0.1146,0.586c-0.0706,0.1501 -0.1682,0.243 -0.2762,0.243c-0.108,0 -0.2055,-0.0929 -0.2761,-0.243c-0.0711,-0.1502 -0.1146,-0.3572 -0.1146,-0.586c0,-0.2288 0.0435,-0.4358 0.1146,-0.5859c0.0706,-0.1502 0.1681,-0.243 0.2761,-0.243c0.108,0 0.2056,0.0928 0.2762,0.243z" fill="#000000" stroke="none" stroke-width="0.47368" stroke-linecap="butt"/><path d="M235.46013,180.04325c0.0323,0.0615 0.0524,0.1462 0.0524,0.24c0,0.0938 -0.0201,0.1785 -0.0524,0.24c-0.0317,0.0614 -0.0763,0.0996 -0.1255,0.0996c-0.0491,0 -0.0938,-0.0382 -0.1255,-0.0996c-0.0323,-0.0615 -0.0523,-0.1462 -0.0523,-0.24c0,-0.0938 0.02,-0.1785 0.0523,-0.24c0.0317,-0.0614 0.0764,-0.0996 0.1255,-0.0996c0.0492,0 0.0938,0.0382 0.1255,0.0996z" fill="#ffffff" stroke="none" stroke-width="0.64678" stroke-linecap="butt"/><path d="M232.98443,179.64457c0.0934,0.2142 0.1519,0.5085 0.1519,0.8341c0,0.3255 -0.0585,0.6199 -0.1519,0.8341c-0.0943,0.2132 -0.2236,0.3453 -0.367,0.3453c-0.1434,0 -0.2727,-0.1321 -0.3671,-0.3453c-0.0934,-0.2142 -0.1519,-0.5086 -0.1519,-0.8341c0,-0.3256 0.0585,-0.6199 0.1519,-0.8341c0.0944,-0.2133 0.2237,-0.3454 0.3671,-0.3454c0.1434,0 0.2727,0.1321 0.367,0.3454z" fill="#4088ed" stroke="none" stroke-width="0.94355" stroke-linecap="butt"/><path d="M232.81443,179.90816c0.0631,0.1335 0.1019,0.3175 0.1019,0.5208c0,0.2034 -0.0388,0.3874 -0.1019,0.5209c-0.0627,0.1335 -0.1495,0.216 -0.2455,0.216c-0.096,0 -0.1827,-0.0825 -0.2455,-0.216c-0.0631,-0.1335 -0.1019,-0.3175 -0.1019,-0.5209c0,-0.2033 0.0388,-0.3873 0.1019,-0.5208c0.0628,-0.1335 0.1495,-0.216 0.2455,-0.216c0.096,0 0.1828,0.0825 0.2455,0.216z" fill="#000000" stroke="none" stroke-width="0.42105" stroke-linecap="butt"/><path d="M232.58513,179.99965c0.0287,0.0546 0.0465,0.1299 0.0465,0.2132c0,0.0834 -0.0178,0.1587 -0.0465,0.2133c-0.0282,0.0547 -0.0679,0.0886 -0.1116,0.0886c-0.0437,0 -0.0833,-0.0339 -0.1115,-0.0886c-0.0288,-0.0546 -0.0466,-0.1299 -0.0466,-0.2133c0,-0.0833 0.0178,-0.1586 0.0466,-0.2132c0.0282,-0.0547 0.0678,-0.0886 0.1115,-0.0886c0.0437,0 0.0834,0.0339 0.1116,0.0886z" fill="#ffffff" stroke="none" stroke-width="0.57492" stroke-linecap="butt"/><path d="M234.04546,173.04551c0,0 -1.60784,0.81818 -1.90909,0.81818c-0.15444,0 -0.37314,-1.22452 -0.58612,-2.03775c-0.21299,-0.81322 -0.02062,-1.78043 -0.02062,-1.78043z" fill="#ffffff" stroke="none" stroke-width="0" stroke-linecap="butt"/><path d="M246.50513,187.31025c0.24509,0.44386 0.11014,1.20682 -0.30354,1.42171c-0.64439,0.34302 -1.50685,0.17604 -2.13468,-0.13625c-0.38512,-0.18655 -0.56759,-0.68011 -0.60641,-1.13297c-0.07046,-0.80997 -0.11383,-1.71256 0.26082,-2.42839c0.14808,-0.27987 0.79763,-0.20654 1.00607,0.05549c0.37304,0.46678 -0.01715,1.29932 0.35698,1.7696c0.31797,0.39813 1.1785,0.01879 1.42076,0.45082z" data-paper-data="{&quot;index&quot;:null}" fill="#f8b820" stroke="none" stroke-width="0.49091" stroke-linecap="round"/><g><path d="M249.13737,185.58539l0.82217,0.06549c0,0 1.19391,2.58018 1.52752,3.98693c0.27829,1.17351 0.4241,2.9483 0.39834,3.66939c-0.04449,1.24505 -0.65419,0.99959 -0.65419,0.99959c0,0 0.21651,-3.26158 -0.05696,-4.55924c-0.19493,-0.92516 -2.03687,-4.16217 -2.03687,-4.16217z" fill="#989898" stroke="#989898" stroke-width="0" stroke-linecap="round"/><path d="M247.76176,187.34032c0.13167,-0.54668 0.2271,-0.97762 0.66982,-1.38757c0.62937,-0.58278 1.01663,-0.36416 1.30122,0.07986c0.59878,0.93482 1.17164,2.72521 1.17164,2.72521l-3.08193,1.65882c0,0 -0.26139,-2.23809 -0.06076,-3.07633z" fill="#f82020" stroke="none" stroke-width="1.13968" stroke-linecap="round"/><path d="M250.85594,188.68012c0,0 0.16001,0.116 0.36217,1.0895c0.20217,0.9735 0.34186,2.27592 0.3448,3.37186c0.00061,0.43942 0.03864,1.19097 -0.30739,1.22608c-0.58909,0.05987 -1.80067,-0.25083 -2.24949,-0.8c-0.44594,-0.54604 -1.31253,-2.56332 -1.18643,-3.28844c0.2383,-1.28992 3.03635,-1.599 3.03635,-1.599z" fill="#f8f8f8" stroke="none" stroke-width="1.15102" stroke-linecap="round"/><path d="M245.931,187.4621c0.00272,-0.42859 -0.30782,-1.1866 0.15732,-1.62426c0.52835,-0.49715 0.91393,0.17628 0.91393,0.17628c0,0 0.18038,-0.61923 0.57652,-0.37188c0.38462,0.24014 0.37104,0.52225 0.40643,0.82649c0.05947,0.51125 -0.21443,1.36678 -0.21556,1.54408c-0.00562,0.88654 0.23873,2.20755 -0.22634,2.2046c-0.12336,-0.00078 -0.7028,-0.24266 -0.7028,-0.24266c0,0 -0.62425,0.48682 -0.81224,0.1053c-0.24386,-0.49491 -0.09962,-2.25011 -0.09728,-2.61794z" fill="#ffffff" stroke="none" stroke-width="0" stroke-linecap="butt"/></g><path d="M234.20166,176.39582l-2.7947,1.06695l-1.86946,1.92963l1.53454,-2.87263l2.90995,-0.74602z" fill="#f8b820" stroke="none" stroke-width="1.22222" stroke-linecap="round"/><path d="M233.5442,175.6608l-2.35435,-0.44959l-2.65185,1.3816c0,0 1.78098,-2.22559 2.21786,-2.34532c0.30645,-0.084 3.00715,0.62014 3.00715,0.62014z" fill="#f8b820" stroke="none" stroke-width="1.22222" stroke-linecap="round"/><path d="M233.74098,174.59943c0,0 -1.20326,-1.03145 -2.15925,-1.27236c-0.95599,-0.24091 -4.30024,-0.35548 -4.30024,-0.35548c0,0 3.41113,-0.97829 4.05113,-0.81003c0.38804,0.10202 3.03198,1.76477 3.03198,1.76477z" fill="#f8b820" stroke="none" stroke-width="1.22222" stroke-linecap="round"/><path d="M247.48958,163.84298c0.07884,0.00966 1.57451,0.10193 2.5525,0.46926c1.5451,0.58034 2.80492,1.53217 2.80492,1.53217c0,0 -2.12282,-0.75755 -2.70613,-0.85289c-1.03808,-0.16967 -2.98873,-0.07793 -2.98873,-0.07793c0,0 1.72475,-0.02628 2.54794,0.14864c0.69838,0.14838 2.07863,0.8344 2.07863,0.8344c0,0 -1.26265,-0.16542 -1.81879,-0.18308c-0.63205,-0.02006 -1.77496,0.06901 -1.77496,0.06901c0,0 0.84143,0.04699 1.36572,0.16179c0.52429,0.1148 1.11148,0.3806 1.11148,0.3806c0,0 -0.63191,0.06038 -0.91197,0.11284c-0.31233,0.05851 -0.94557,0.28512 -0.94557,0.28512c0,0 0.69996,0.07362 1.12461,0.21196c0.42465,0.13836 1.03397,0.49132 1.03397,0.49132c0,0 -0.48502,0.07611 -0.79172,0.14349c-0.30669,0.06738 -0.56858,0.15538 -0.56858,0.15538c0,0 0.38356,0.04558 0.608,0.13999c0.22445,0.0944 0.49253,0.32288 0.49253,0.32288c0,0 -0.36083,0.02804 -0.51969,0.06361c-0.2018,0.04519 -0.59343,0.18565 -0.59343,0.18565c0,0 0.60598,0.15496 0.80868,0.24822c0.15077,0.06937 0.44437,0.25956 0.44437,0.25956l-0.6142,0.00709l0.4721,0.51979l-1.05932,-0.26364l0.40701,-0.44315l-0.91803,-0.32226l0.66236,-0.40695c0,0 -0.23138,-0.17172 -0.39937,-0.24279c-0.16798,-0.07107 -0.49407,-0.13515 -0.49407,-0.13515c0,0 0.31201,-0.17628 0.53272,-0.21831c0.22072,-0.04203 0.85836,-0.04657 0.85836,-0.04657l-1.18778,-0.31058l-1.58056,-0.13833c0,0 0.44375,-0.29741 0.75762,-0.42608c0.31387,-0.12867 1.00502,-0.29647 1.00502,-0.29647c0,0 -0.74138,-0.08798 -1.21775,-0.12325c-0.47636,-0.03527 -1.35843,-0.06748 -1.35843,-0.06748c0,0 0.69017,-0.45492 1.19438,-0.5531c0.5042,-0.09819 1.69483,-0.00947 1.69483,-0.00947c0,0 -1.35469,-0.29638 -2.23236,-0.27696c-0.87768,0.01943 -3.02511,0.39329 -3.02511,0.39329c0,0 1.48168,-0.918 2.5499,-1.05679c1.06823,-0.13879 3.4641,0.27541 3.4641,0.27541c0,0 -3.00977,-0.53666 -3.61092,-0.4861c-1.51029,0.12705 -4.52397,1.23952 -4.52397,1.23952c0,0 2.11261,-2.10086 5.26965,-1.71364z" data-paper-data="{&quot;index&quot;:null}" fill="#dcdce1" stroke="none" stroke-width="0" stroke-linecap="butt"/><path d="M260.50867,169.70586c0.1563,-0.39614 0.35948,-1.14097 0.35948,-1.14097c0,0 -0.22095,0.52276 -0.41284,0.82909c-0.19189,0.30632 -0.4938,0.61819 -0.4938,0.61819c0,0 0.10528,-0.41433 0.13564,-0.60381c0.03386,-0.2113 0.03405,-0.66424 0.03405,-0.66424c0,0 -0.20567,0.42704 -0.38986,0.66483c-0.18419,0.2378 -0.54638,0.54389 -0.54638,0.54389c0,0 0.06193,-0.32478 0.08888,-0.53453c0.02697,-0.20975 0.03066,-0.39576 0.03066,-0.39576c0,0 -0.11602,0.23281 -0.22686,0.35367c-0.11084,0.12085 -0.31659,0.23891 -0.31659,0.23891c0,0 0.06419,-0.23513 0.07772,-0.34393c0.0172,-0.13821 0.01711,-0.4184 0.01711,-0.4184c0,0 -0.2359,0.34898 -0.34108,0.4563c-0.07822,0.07982 -0.26551,0.22276 -0.26551,0.22276l0.13504,-0.39101l-0.43678,0.18123l0.40779,-0.61169l0.18848,0.3587l0.41287,-0.50879l0.10753,0.51237c0,0 0.16143,-0.10768 0.24465,-0.19804c0.08321,-0.09035 0.19793,-0.28251 0.19793,-0.28251c0,0 0.04089,0.23786 0.0174,0.38733c-0.0235,0.14947 -0.16546,0.55476 -0.16546,0.55476l0.46673,-0.68247l0.44676,-0.97061c0,0 0.08776,0.34889 0.09802,0.57711c0.01027,0.22822 -0.04037,0.70451 -0.04037,0.70451c0,0 0.2242,-0.45004 0.35478,-0.74402c0.13058,-0.29398 0.35137,-0.84589 0.35137,-0.84589c0,0 0.13162,0.54089 0.07933,0.88285c-0.0523,0.34196 -0.37903,1.07665 -0.37903,1.07665c0,0 -0.3752,0.52211 -0.23768,0.17354z" data-paper-data="{&quot;index&quot;:null}" fill="#dcdce1" stroke="none" stroke-width="0" stroke-linecap="butt"/></g></g></svg>