<svg version="1.1" xmlns="http://www.w3.org/2000/svg" xmlns:xlink="http://www.w3.org/1999/xlink" width="7.23467" height="8.68164" viewBox="0,0,7.23467,8.68164"><g transform="translate(-236.38267,-175.65918)"><g data-paper-data="{&quot;isPaintingLayer&quot;:true}" fill="#ffd700" fill-rule="nonzero" stroke="none" stroke-width="0.26458" stroke-linecap="butt" stroke-linejoin="miter" stroke-miterlimit="4" stroke-dasharray="" stroke-dashoffset="0" style="mix-blend-mode: normal"><path d="M243.61734,182.27377v2.06705h-6.61456l-0.62011,-1.44694c0.82682,-0.1378 1.48139,-0.32728 1.9637,-0.56844c0.48231,-0.24115 0.98185,-0.68901 1.49861,-1.34358c0.51676,-0.65457 0.8096,-1.20578 0.8785,-1.65364c0.0689,-0.44786 0.03445,-0.84404 -0.10335,-1.18855c-0.62011,-0.34451 -1.27468,-0.36175 -1.9637,-0.0517c-0.68902,0.31006 -1.21267,0.7407 -1.57096,1.29191l-0.7028,-1.65364c0.1378,-0.34451 0.53399,-0.77515 1.18855,-1.29191c0.65457,-0.51677 1.46416,-0.77515 2.42878,-0.77515c0.96462,0 1.79144,0.31006 2.48046,0.93018c0.68902,0.62011 1.03352,1.30913 1.03352,2.06705c0,0.48231 -0.15503,1.06798 -0.46509,1.75699c-0.31006,0.68902 -0.77514,1.30914 -1.39526,1.86035z"/></g></g></svg>