<svg version="1.1" xmlns="http://www.w3.org/2000/svg" xmlns:xlink="http://www.w3.org/1999/xlink" width="21.52617" height="41.54439" viewBox="0,0,21.52617,41.54439"><g transform="translate(-228.12545,-158.04065)"><g data-paper-data="{&quot;isPaintingLayer&quot;:true}" fill-rule="nonzero" stroke-linejoin="miter" stroke-miterlimit="10" stroke-dasharray="" stroke-dashoffset="0" style="mix-blend-mode: normal"><g data-paper-data="{&quot;index&quot;:null}"><g data-paper-data="{&quot;index&quot;:null}" stroke="none" stroke-width="0" stroke-linecap="butt"><path d="M241.66318,199.49087c-1.45943,-0.95684 -1.63331,-4.83753 -1.63331,-4.83753c-0.05179,-0.56693 0.079,-1.05486 0.27963,-1.5239c0.17476,-0.4085 0.40246,-0.80272 0.60871,-1.2224c0.44306,-0.90156 0.92767,0.58239 0.92767,0.58239c0,0 0.82643,2.10171 0.79106,3.29265c0.09448,1.02037 0.09238,4.40778 -0.97376,3.70877z" data-paper-data="{&quot;index&quot;:null}" fill="#54c81c"/><path d="M241.90135,189.43515c0,0 -0.00309,3.4129 0.09024,4.67445c0.06314,0.85341 0.21914,2.21408 0.21914,2.21408c-0.0292,0.35895 -0.60538,1.44672 -1.01021,0.74698c-0.31824,-0.55009 -0.48869,-2.89384 -0.48869,-2.89384c0,0 -0.07848,-4.17274 -0.20102,-4.80904c-0.32447,-2.01867 -0.23353,-5.63975 -0.23353,-5.63975l1.46468,0.08819l0.15938,5.61892z" data-paper-data="{&quot;index&quot;:null}" fill="#ffffff"/></g><path d="M240.92239,195.60322l-0.41038,0.37791" fill="none" stroke="#000000" stroke-width="0.5" stroke-linecap="round"/><path d="M240.84684,196.96576l0.33904,-0.37437" fill="none" stroke="#000000" stroke-width="0.5" stroke-linecap="round"/></g><g data-paper-data="{&quot;index&quot;:null}"><path d="M238.26477,168.4784c3.50105,-1.39929 4.90644,1.54284 5.04374,1.77267c0.2926,0.55887 0.43316,1.19143 0.46665,1.81851c0.06387,1.04598 -0.20558,2.13987 -0.88137,2.957c-0.36487,0.34008 -0.30385,0.30473 -0.64792,0.6577c-0.45501,0.64287 -1.3038,1.07475 -2.00572,1.34013c-0.55804,0.24543 -1.15169,0.39782 -1.75761,0.46698c-0.39337,0.0306 -0.80657,0.13196 -1.19155,0.00322c-0.35669,-0.12565 -0.70003,-0.35784 -0.85039,-0.71775c-0.4137,-0.85452 -0.83597,-1.70661 -1.17099,-2.59535c-0.07902,-0.24846 -0.20387,-0.50537 -0.17323,-0.77206c0.09646,-0.24743 -1.0551,-3.24303 3.16839,-4.93106z" data-paper-data="{&quot;index&quot;:null}" fill="#f0e9bb" stroke="none" stroke-width="0.17188" stroke-linecap="butt"/><path d="M241.36396,166.26702c0.81355,-0.45409 1.48517,-0.55922 1.95151,-0.43426c0.06638,0.01761 0.05276,0.06799 0.13895,0.1047c0.10433,0.0445 0.35447,0.07749 0.30459,0.06478c0,0 -0.01726,0.17803 0.01678,0.24579c0.04334,0.0861 0.19642,0.14659 0.10269,0.15778c0,0 0.10748,0.10954 0.11428,0.16164c0.07449,0.56898 -0.08925,1.40396 -0.51419,1.96499c0.47574,0.33929 -2.47659,-1.66371 -2.11456,-2.26541z" data-paper-data="{&quot;index&quot;:null}" fill="#ed3e67" stroke="none" stroke-width="0.17188" stroke-linecap="butt"/><path d="M235.20206,173.22848l0.72239,2.28054l0.91102,1.712l0.74356,1.17321c0.08761,0.13783 -1.9465,-0.42428 -2.43432,-0.71349c-0.60368,-0.35777 -1.08115,-0.81989 -1.55648,-1.28385c-0.34657,-0.338 -0.42738,-0.5002 -0.60245,-0.77549l-0.54333,-0.85478c-0.10326,-0.1624 -0.53579,-1.02421 -0.42257,-1.24478c0.03215,-0.06258 0.82405,0.14592 0.89425,0.11675l0.51183,-0.21436c0.15191,-0.06345 0.48356,-0.56772 0.57475,-0.72677c0.0667,-0.11611 0.37052,-0.93067 0.19855,-1.54459l-0.17016,-0.60728c-0.02547,-0.09095 -0.60235,-0.92527 -0.57363,-0.95537c0.05904,-0.06225 -1.13021,-0.72651 -1.07031,-0.79535c0.33304,-0.38371 0.73115,-0.86392 1.25293,-1.20982c0.82027,-0.5438 1.8126,-0.89511 2.31804,-1.08321c0.0862,-0.03207 1.19253,-0.419 1.93105,-0.45167c1.16944,-0.05181 2.00814,0.38657 2.06231,0.40749c0.85063,0.32813 1.57648,0.81275 2.19425,1.43291l0.4231,0.56306c0.21659,0.28819 1.15125,1.71981 1.6191,2.94563c0.98459,2.57975 0.21483,4.85142 -0.02814,4.82761c-0.34034,-0.03306 -1.35636,-1.34716 -1.40032,-1.17349c-0.09756,0.38475 0.89889,-1.23882 0.9303,-2.20107c0.03141,-0.96226 -0.80237,-2.8595 -0.87372,-3.01199c-0.05625,-0.1206 -0.17074,-0.1922 -0.28271,-0.11197c-0.07456,0.05334 -0.96274,0.60004 -1.23212,0.97016c-0.26938,0.37013 -0.62685,1.71767 -0.67932,1.66261c-0.01948,-0.02054 -0.45323,-0.12941 -0.45559,-0.17062c-0.01396,-0.2493 -0.36792,0.47567 -0.40786,0.58241c-0.10506,0.2807 -1.09858,-0.81126 -2.06787,-0.8583c-0.96929,-0.04705 -1.84738,0.31625 -1.96339,0.55425c-0.0462,0.0948 -0.21663,0.3079 -0.30453,0.41741c-0.11702,0.14558 -0.20082,0.23738 -0.21857,0.34221z" data-paper-data="{&quot;index&quot;:null}" fill="#54c81c" stroke="none" stroke-width="0.17188" stroke-linecap="butt"/><path d="M230.85997,173.22295c-0.63912,0.02564 -1.36389,-0.29278 -1.768,-0.6516c-0.03707,-0.03281 -0.06979,-0.17283 -0.06979,-0.17283c-0.05397,0.06544 -0.02659,-0.08338 -0.07228,-0.16199c-0.03589,-0.06179 -0.18203,-0.14318 -0.18203,-0.14318c-0.01425,0.04479 0.08106,-0.16314 0.0972,-0.26614c0.01319,-0.0852 -0.03241,-0.10154 -0.01402,-0.16164c0.1288,-0.4211 0.53456,-0.8765 1.27866,-1.255c0.97363,-0.49503 2.15133,-0.09636 2.29224,0.26743c0,0 -0.47055,2.50098 -1.56196,2.54493z" data-paper-data="{&quot;index&quot;:null}" fill="#ed3e67" stroke="none" stroke-width="0.17188" stroke-linecap="butt"/><path d="M233.41489,171.04012c0.10116,-0.15062 0.2268,1.39071 -0.05519,1.72183c-0.48501,0.56938 -0.32172,0.78705 -0.90769,0.83039c-0.13153,0.00993 -0.44503,-0.10735 -0.83372,-0.11597c-0.45024,-0.00978 -0.88022,-0.09926 -0.77734,-0.21568l0.5984,-0.75349l0.65337,-1.72009c0.01015,-0.02676 -0.30052,-0.13326 -0.76473,-0.24964c-0.3255,-0.08168 -0.79091,-0.1479 -1.13344,-0.14752c-0.20184,0.0003 0.07084,-0.3393 0.51565,-0.67602c0.21561,-0.16326 0.43763,-0.35466 0.73131,-0.44976c0.50865,-0.16455 1.09355,0.26486 1.45066,0.79151c0.33449,0.49316 0.45525,1.08447 0.52269,0.98442z" data-paper-data="{&quot;index&quot;:null}" fill="#54c81c" stroke="none" stroke-width="0.17188" stroke-linecap="butt"/><path d="M234.12014,170.72796c0.46368,1.12324 -0.26767,2.55926 -0.63968,2.67384l-0.5288,0.32492l-0.99182,-0.16902c-0.25396,-0.04337 1.14982,-0.36298 1.33561,-0.84311c0.12132,-0.31323 0.2062,-0.55176 0.20035,-0.65491c-0.05718,-0.98307 -0.36456,-1.68605 -0.71827,-2.08469c-0.55579,-0.62639 -1.19275,-0.64953 -0.90291,-0.95617c0.69098,-0.73142 1.7387,0.48161 2.24551,1.70912z" data-paper-data="{&quot;index&quot;:null}" fill="#ead32e" stroke="none" stroke-width="0.17188" stroke-linecap="butt"/><path d="M241.33584,167.2327c0,0 -0.38826,-0.225 -0.6707,-0.40508c-0.5892,-0.37565 -1.29299,-0.46624 -1.23848,-0.6566c0.06986,-0.09551 0.59548,-0.15507 0.7732,-0.08307l0.36096,0.14605c0.63474,0.25699 1.06494,0.82113 1.1582,1.08426c0.04036,0.11381 0.23897,0.27316 0.24695,0.4141c0,0 -0.45653,-0.27183 -0.63012,-0.49967z" data-paper-data="{&quot;index&quot;:null}" fill="#ead32e" stroke="none" stroke-width="0.17188" stroke-linecap="butt"/><path d="M240.50777,166.12632c0,0 0.99286,-0.4202 1.2807,-0.21204c0.19128,0.13815 0.20004,0.64703 0.39367,0.73317c0.2404,0.10697 0.66571,0.4364 0.92569,0.69922c0.15324,0.273 0.36419,0.50951 0.36525,0.87987c0.16052,0.26493 -0.34465,1.06205 -0.40652,0.97873l-0.84117,-1.13234c-0.21341,-0.28733 -0.66754,-0.86141 -0.77467,-0.97205z" data-paper-data="{&quot;index&quot;:null}" fill="#54c81c" stroke="none" stroke-width="0.17188" stroke-linecap="butt"/><path d="M235.73551,173.18319c0.16357,-0.72795 1.12452,-1.12765 1.72103,-0.96134c0.59651,0.16631 0.94749,0.89125 0.78392,1.6192c-0.16357,0.72794 -0.77972,1.18322 -1.37623,1.01691c-0.59651,-0.16631 -1.29229,-0.94684 -1.12872,-1.67479z" fill="#000000" stroke="none" stroke-width="0" stroke-linecap="butt"/><path d="M243.01907,170.41328c0.61123,0.42785 0.71355,1.47899 0.38471,2.00372c-0.32884,0.52473 -1.09094,0.60328 -1.70217,0.17543c-0.61123,-0.42784 -0.84014,-1.20006 -0.5113,-1.72479c0.32885,-0.52473 1.21754,-0.8822 1.82877,-0.45435z" data-paper-data="{&quot;index&quot;:null}" fill="#000000" stroke="none" stroke-width="0" stroke-linecap="butt"/><path d="M239.08446,176.53364l-0.58482,-0.18913" fill="none" stroke="#000000" stroke-width="0.25" stroke-linecap="round"/><path d="M239.65143,176.53516l0.58358,-0.15455" fill="none" stroke="#000000" stroke-width="0.25" stroke-linecap="round"/><path d="M241.3781,176.00937l-0.55951,0.21671" fill="none" stroke="#000000" stroke-width="0.25" stroke-linecap="round"/><path d="M242.27643,175.37543l-0.44917,0.31696" fill="none" stroke="#000000" stroke-width="0.25" stroke-linecap="round"/><path d="M242.52904,174.92021l0.21452,-0.36907" fill="none" stroke="#000000" stroke-width="0.25" stroke-linecap="round"/><path d="M238.28741,175.4672l-0.13097,0.51867l-0.43811,-0.02018" fill="none" stroke="#000000" stroke-width="0.25" stroke-linecap="round"/><path d="M243.18053,173.94755l-0.37235,0.23173l-0.36777,-0.38848" data-paper-data="{&quot;index&quot;:null}" fill="none" stroke="#000000" stroke-width="0.25" stroke-linecap="round"/><path d="M237.71052,173.87489l-1.39462,-0.633" fill="none" stroke="#ffffff" stroke-width="0.25" stroke-linecap="round"/><path d="M237.19025,172.7978l-0.42253,1.52379" fill="none" stroke="#ffffff" stroke-width="0.25" stroke-linecap="round"/><path d="M235.8355,173.2256c-0.00781,-0.2079 0.1544,-0.38278 0.3623,-0.39059c0.2079,-0.00781 0.38278,0.1544 0.39059,0.3623c0.00781,0.2079 -0.1544,0.38278 -0.3623,0.39059c-0.2079,0.00781 -0.38278,-0.1544 -0.39059,-0.3623z" fill="#ffffff" stroke="none" stroke-width="0" stroke-linecap="butt"/><path d="M237.43545,173.85087c-0.00781,-0.2079 0.15441,-0.38278 0.3623,-0.39059c0.2079,-0.00781 0.38278,0.1544 0.39059,0.3623c0.00781,0.2079 -0.1544,0.38278 -0.3623,0.39059c-0.2079,0.00781 -0.38278,-0.15441 -0.39059,-0.3623z" fill="#ffffff" stroke="none" stroke-width="0" stroke-linecap="butt"/><path d="M236.84159,172.63946c-0.00781,-0.2079 0.15441,-0.38278 0.36231,-0.39059c0.2079,-0.00781 0.38278,0.1544 0.39059,0.3623c0.00781,0.2079 -0.1544,0.38278 -0.3623,0.39059c-0.2079,0.00781 -0.38279,-0.15441 -0.3906,-0.3623z" fill="#ffffff" stroke="none" stroke-width="0" stroke-linecap="butt"/><path d="M236.42679,174.3686c-0.00781,-0.2079 0.15441,-0.38278 0.3623,-0.39059c0.2079,-0.00781 0.38278,0.1544 0.39059,0.3623c0.00781,0.2079 -0.1544,0.38278 -0.3623,0.39059c-0.2079,0.00781 -0.38278,-0.15441 -0.39059,-0.3623z" fill="#ffffff" stroke="none" stroke-width="0" stroke-linecap="butt"/><path d="M241.62021,171.25993l1.39462,0.633" fill="none" stroke="#ffffff" stroke-width="0.25" stroke-linecap="round"/><path d="M242.49456,170.81588l-0.42253,1.52379" fill="none" stroke="#ffffff" stroke-width="0.25" stroke-linecap="round"/><path d="M241.13981,171.2437c-0.00781,-0.2079 0.1544,-0.38278 0.3623,-0.39059c0.2079,-0.00781 0.38278,0.1544 0.39059,0.3623c0.00781,0.2079 -0.1544,0.38278 -0.3623,0.39059c-0.2079,0.00781 -0.38278,-0.1544 -0.39059,-0.3623z" fill="#ffffff" stroke="none" stroke-width="0" stroke-linecap="butt"/><path d="M242.73976,171.86905c-0.00781,-0.2079 0.15441,-0.38278 0.3623,-0.39059c0.2079,-0.00781 0.38278,0.1544 0.39059,0.3623c0.00781,0.2079 -0.1544,0.38278 -0.3623,0.39059c-0.2079,0.00781 -0.38278,-0.15441 -0.39059,-0.3623z" fill="#ffffff" stroke="none" stroke-width="0" stroke-linecap="butt"/><path d="M242.1459,170.65756c-0.00781,-0.2079 0.15441,-0.38278 0.36231,-0.39059c0.2079,-0.00781 0.38278,0.1544 0.39059,0.3623c0.00781,0.2079 -0.1544,0.38278 -0.3623,0.39059c-0.2079,0.00781 -0.38279,-0.15441 -0.3906,-0.3623z" fill="#ffffff" stroke="none" stroke-width="0" stroke-linecap="butt"/><path d="M241.7311,172.38669c-0.00781,-0.2079 0.15441,-0.38278 0.3623,-0.39059c0.2079,-0.00781 0.38278,0.1544 0.39059,0.3623c0.00781,0.2079 -0.1544,0.38278 -0.3623,0.39059c-0.2079,0.00781 -0.38278,-0.15441 -0.39059,-0.3623z" fill="#ffffff" stroke="none" stroke-width="0" stroke-linecap="butt"/></g><g data-paper-data="{&quot;index&quot;:null}"><path d="M236.80247,167.7793c0,0 -0.79096,-1.97377 -0.85407,-3.30414c-0.06311,-1.33037 1.03074,-2.71072 1.03074,-2.71072l0.52357,0.53988c0,0 -0.87856,0.85587 -0.81487,2.12034c0.06369,1.26447 0.72777,3.07699 0.72777,3.07699z" fill="#000000" stroke="none" stroke-width="0" stroke-linecap="butt"/><path d="M236.56865,162.45201l1.01155,-3.53119l4.48331,-0.74153l-2.09107,3.72857z" fill="#ea035a" stroke="none" stroke-width="0" stroke-linecap="butt"/><path d="M241.92408,158.16565l-5.18985,4.25709" fill="none" stroke="#000000" stroke-width="0.25" stroke-linecap="round"/><path d="M239.99649,161.89424l-2.09637,-0.51078l-0.39527,-2.5605" fill="none" stroke="#000000" stroke-width="0.25" stroke-linecap="round"/></g><g data-paper-data="{&quot;index&quot;:null}"><g data-paper-data="{&quot;index&quot;:null}" stroke="none" stroke-width="0" stroke-linecap="butt"><path d="M242.44673,182.37057c0,0 5.63372,0.63278 5.80901,0.56685c0.1753,-0.06594 0.37352,0.36847 0.56633,0.82812c0.19281,0.45965 0.82955,2.11729 0.82955,2.11729c0,0 -0.72546,-0.79214 -1.72579,-1.12588c-0.59203,-0.19754 -1.51188,-0.57033 -2.32137,-0.85244c-1.46859,-0.51179 -3.15773,-1.53393 -3.15773,-1.53393z" fill="#54c81c"/><path d="M243.58753,182.88689c-4.10844,-1.60015 -4.47249,-3.58359 -4.47249,-3.58359c0,0 -0.24925,-0.01443 1.15641,0.57475c0.48345,0.20264 1.70903,-0.63409 4.25336,0.13066c3.25535,0.97845 4.05972,3.19732 4.05972,3.19732c0,0 -2.03985,0.83261 -4.99699,-0.31914z" fill="#ffffff"/></g><path d="M247.10316,183.72823l-0.50092,-0.49473" fill="none" stroke="#ffffff" stroke-width="0.25" stroke-linecap="round"/><path d="M247.81872,183.2335l0.3578,0.49473" fill="none" stroke="#ffffff" stroke-width="0.25" stroke-linecap="round"/></g><g data-paper-data="{&quot;index&quot;:null}"><g data-paper-data="{&quot;index&quot;:null}" stroke="none" stroke-width="0" stroke-linecap="butt"><path d="M246.11224,190.40595c0,0 -1.1638,-1.36543 -2.09051,-2.10349c-0.9267,-0.73805 -3.65049,-2.05978 -3.65049,-2.05978l4.60496,-2.85212c0,0 1.25051,1.66625 1.64754,2.9797c0.5252,1.73743 -0.5115,4.03569 -0.5115,4.03569z" fill="#54c81c"/><path d="M245.43844,187.23145c-1.13682,1.0007 -5.73487,-0.84187 -7.11536,-2.42439c-1.47563,-1.6916 -0.7932,-5.02295 -0.7932,-5.02295l0.88573,-0.31463c0,0 0.52192,1.10372 2.54129,1.56846c2.96084,0.68142 3.45294,1.80037 4.0193,2.35262c0.57065,0.55644 1.76987,2.9249 0.58725,3.96589z" fill="#ffffff"/></g><path d="M244.10853,187.78848l-0.63104,-0.72346" fill="none" stroke="#ffffff" stroke-width="0.25" stroke-linecap="round"/><path d="M244.88201,186.85955l0.55712,0.72346" fill="none" stroke="#ffffff" stroke-width="0.25" stroke-linecap="round"/><path d="M245.47338,185.90065l0.71637,0.85446" fill="none" stroke="#ffffff" stroke-width="0.25" stroke-linecap="round"/></g><g data-paper-data="{&quot;index&quot;:null}"><g data-paper-data="{&quot;index&quot;:null}" stroke="none" stroke-width="0" stroke-linecap="butt"><path d="M228.12545,184.02201c0,0 0.59563,-3.23978 3.98098,-4.10742c0.64098,-0.16427 -1.76032,1.6369 -1.42826,2.36324c0.33202,0.72625 3.67502,1.00338 3.67502,1.00338c0,0 -3.02621,-0.01156 -3.8153,0.12175c-0.78909,0.13331 -2.41244,0.61905 -2.41244,0.61905z" fill="#54c81c"/><path d="M239.62336,180.04384c0,0 -3.61104,2.8869 -5.22365,3.14324c-1.48879,0.23666 -5.09604,-0.66243 -4.58239,-1.6789c0.51365,-1.01647 3.11372,-2.20694 5.40414,-2.12422c1.89025,0.06826 4.4019,0.65988 4.4019,0.65988z" fill="#ffffff"/></g><path d="M231.29603,182.31787l-0.77026,0.50714" fill="none" stroke="#ffffff" stroke-width="0.25" stroke-linecap="round"/><path d="M229.75549,182.10055l0.49018,-0.36224" fill="none" stroke="#ffffff" stroke-width="0.25" stroke-linecap="round"/></g><g data-paper-data="{&quot;index&quot;:null}"><g data-paper-data="{&quot;index&quot;:null}" stroke="none" stroke-width="0" stroke-linecap="butt"><path d="M237.00135,186.14262c0,0 -1.39398,1.33791 -2.72099,1.68963c-1.59733,0.42335 -4.37352,1.67153 -4.37352,1.67153c0,0 1.17586,-3.54855 1.83739,-4.93653c1.14248,-2.40487 2.4321,-2.73311 2.4321,-2.73311c0,0 -1.45775,3.16172 -0.94336,4.05504c0.50687,0.88029 3.76839,0.25343 3.76839,0.25343z" fill="#54c81c"/><path d="M234.08074,181.79355c0.13125,-0.09877 2.09713,-1.44009 3.5988,-1.33458c1.99304,0.14006 1.99869,-0.97517 2.385,-0.11843c0.3863,0.85674 0.44852,2.7101 -0.72313,3.84754c-0.97522,0.94676 -2.36968,1.97488 -2.36968,1.97488c0,0 -3.72194,1.18534 -4.31623,-0.20758c-0.63297,-1.58987 1.28831,-4.05876 1.42525,-4.16181z" fill="#ffffff"/></g><path d="M234.62182,186.90963l0.36079,-0.42486" fill="none" stroke="#ffffff" stroke-width="0.25" stroke-linecap="round"/><path d="M233.10651,186.6972l0.21647,-0.49567" fill="none" stroke="#ffffff" stroke-width="0.25" stroke-linecap="round"/><path d="M233.10652,184.64372l-0.95226,0.75397" fill="none" stroke="#ffffff" stroke-width="0.25" stroke-linecap="round"/></g><g data-paper-data="{&quot;index&quot;:null}"><path d="M237.67669,181.28866c-0.30427,-0.44307 -0.06637,-1.7509 0.28957,-2.80676c0.35593,-1.05586 0.95764,-1.25421 1.07941,-1.25421c0.15382,0 1.35868,-0.24869 2.06043,0.1482c0.70175,0.39689 0.46391,0.81182 0.64221,1.38034c0.1783,0.56851 0.3376,1.53269 0.32786,1.71279c-0.02505,0.46123 -1.45551,0.25457 -1.70209,0.53654c0,0 -2.33148,0.68137 -2.69739,0.28309z" data-paper-data="{&quot;index&quot;:null}" fill="#319a2b" stroke="none" stroke-width="0.17188" stroke-linecap="butt"/><path d="M239.04986,181.03803c0.61263,0 0.86005,-0.34217 1.03805,-0.04276c0.09193,0.15462 -0.5466,0.49821 -1.15798,0.46382c-0.68831,-0.17263 -1.50188,0.15139 -1.50188,0.15139l0.22399,-0.60534c0,0 0.78518,0.03289 1.39781,0.03289z" data-paper-data="{&quot;index&quot;:null}" fill="#ead42f" stroke="none" stroke-width="0" stroke-linecap="butt"/><path d="M242.13597,180.38422l0.34058,0.49225c0,0 -0.69825,-0.197 -1.3616,0.05504c-0.60314,0.10575 -0.80044,-0.29103 -0.19203,-0.36277c0.60841,-0.07174 1.21306,-0.18453 1.21306,-0.18453z" data-paper-data="{&quot;index&quot;:null}" fill="#ead42f" stroke="none" stroke-width="0" stroke-linecap="butt"/><path d="M239.14706,180.77495l-0.07853,0.38091" fill="none" stroke="#ffffff" stroke-width="0.25" stroke-linecap="round"/><path d="M238.12285,181.16009l0.09109,-0.32829" fill="none" stroke="#ffffff" stroke-width="0.25" stroke-linecap="round"/><path d="M241.22647,180.62712l-0.03093,-0.30573" fill="none" stroke="#ffffff" stroke-width="0.25" stroke-linecap="round"/><path d="M242.01258,180.653l-0.147,-0.38175" fill="none" stroke="#ffffff" stroke-width="0.25" stroke-linecap="round"/></g><g data-paper-data="{&quot;index&quot;:null}" stroke="none" stroke-linecap="butt"><path d="M240.05111,177.35824c0.17022,-0.06911 0.34154,0.07628 0.48084,0.36686c0.1393,0.29058 0.24674,0.72652 0.28893,1.23856c0.04223,0.51194 0.0113,1.00389 -0.07258,1.38519c-0.08398,0.38127 -0.22099,0.65174 -0.3912,0.72085c-0.17009,0.06905 -0.34142,-0.07634 -0.48082,-0.36696c-0.1393,-0.29058 -0.24663,-0.72649 -0.28883,-1.23853c-0.04223,-0.51194 -0.01141,-1.00393 0.07258,-1.38519c0.08388,-0.3813 0.221,-0.65174 0.39108,-0.72079z" fill="#eb3d66" stroke-width="0.01872"/><path d="M240.57525,179.19402c0.01852,0.48778 -0.13593,0.88964 -0.34498,0.89758c-0.20905,0.00794 -0.39353,-0.38105 -0.41205,-0.86883c-0.01852,-0.48778 0.13593,-0.88964 0.34498,-0.89758c0.20905,-0.00794 0.39353,0.38105 0.41205,0.86883z" fill="#492116" stroke-width="0"/><path d="M239.94279,177.5619c0.07282,-0.00742 0.13081,0.06727 0.16562,0.19397c0.03489,0.12675 0.04658,0.3055 0.02688,0.50613c-0.01964,0.20068 -0.06709,0.38546 -0.12777,0.52198c-0.06074,0.13658 -0.13469,0.22486 -0.2075,0.23228c-0.07278,0.00755 -0.13075,-0.06722 -0.16563,-0.19397c-0.03489,-0.12675 -0.04658,-0.3055 -0.02692,-0.50605c0.01972,-0.20063 0.06714,-0.38554 0.12783,-0.52204c0.06074,-0.13658 0.13464,-0.22478 0.20751,-0.23227z" fill="#ffffff" stroke-width="0.01896"/></g><g data-paper-data="{&quot;index&quot;:null}"><g stroke="none" stroke-width="0" stroke-linecap="butt"><path d="M238.62273,177.82288l-0.16085,0.844l-2.38843,-1.3064l0.32472,-0.65488z" fill="#319a2b"/><path d="M236.40505,176.52079c0.4223,0.49066 0.0558,0.97101 -0.37745,0.88216c-1.04689,-0.21468 -2.85116,-1.31895 -2.85116,-1.31895l0.20732,-1.52116c0,0 2.62654,1.49927 3.02128,1.95794z" fill="#ead42f"/><path d="M231.19369,176.75497c0.5047,-1.37746 1.29043,-2.4648 1.57826,-2.47898c0.87913,-0.0433 2.16916,1.82297 1.42421,3.43614c-0.61504,1.33186 -1.00333,1.95604 -2.25633,2.15245c-0.39629,0.06212 -1.25082,-1.73216 -0.74613,-3.10962z" fill="#f0e9bb"/></g><path d="M232.69943,174.44227c0,0 0.61284,1.42701 0.71576,2.38895c0.10291,0.96195 -0.41215,2.39563 -0.41215,2.39563" fill="none" stroke="#d3c49c" stroke-width="0.25" stroke-linecap="round"/><path d="M233.37504,175.19332l-0.8051,0.19591" fill="none" stroke="#ffffff" stroke-width="0.5" stroke-linecap="round"/><path d="M232.98268,176.60311l0.6424,-0.12502" fill="none" stroke="#ffffff" stroke-width="0.5" stroke-linecap="round"/><path d="M233.00749,177.63759l0.63823,-0.04577" fill="none" stroke="#ffffff" stroke-width="0.5" stroke-linecap="round"/><path d="M232.86964,178.74297l0.47553,0.02512" fill="none" stroke="#ffffff" stroke-width="0.5" stroke-linecap="round"/></g><g data-paper-data="{&quot;index&quot;:null}"><g stroke="#ffffff" stroke-width="0" stroke-linecap="butt"><path d="M243.25194,176.34672l0.32972,0.65238l-2.37837,1.32461l-0.16731,-0.84275z" data-paper-data="{&quot;index&quot;:null}" fill="#319a2b"/><path d="M246.2499,174.18096l0.21895,1.51953c0,0 -1.79579,1.11803 -2.84099,1.3407c-0.43257,0.09217 -0.80272,-0.38534 -0.38419,-0.87922c0.39122,-0.46167 3.00623,-1.98101 3.00623,-1.98101z" data-paper-data="{&quot;index&quot;:null}" fill="#ead42f"/><path d="M246.82913,173.90665c0.28814,-0.00506 1.14464,1.02746 1.74009,2.36818c0.59545,1.34074 -0.13751,3.18801 -0.53706,3.15247c-1.26331,-0.11241 -1.69239,-0.70929 -2.39489,-1.99716c-0.85088,-1.55988 0.31177,-3.50804 1.19184,-3.52348z" data-paper-data="{&quot;index&quot;:null}" fill="#f0e9bb"/></g><path d="M247.13381,179.14186c0,0 -0.5671,-1.4139 -0.4994,-2.37898c0.06772,-0.96507 0.62801,-2.4135 0.62801,-2.4135" data-paper-data="{&quot;index&quot;:null}" fill="none" stroke="#d3c49c" stroke-width="0.25" stroke-linecap="round"/><path d="M247.4264,175.29085l-0.81172,-0.16637" data-paper-data="{&quot;index&quot;:null}" fill="none" stroke="#ffffff" stroke-width="0.5" stroke-linecap="round"/><path d="M246.41177,176.41764l0.64654,0.10146" data-paper-data="{&quot;index&quot;:null}" fill="none" stroke="#ffffff" stroke-width="0.5" stroke-linecap="round"/><path d="M247.07129,177.55378l-0.63947,-0.02242" data-paper-data="{&quot;index&quot;:null}" fill="none" stroke="#ffffff" stroke-width="0.5" stroke-linecap="round"/><path d="M246.77514,178.69589l0.4743,-0.04247" data-paper-data="{&quot;index&quot;:null}" fill="none" stroke="#ffffff" stroke-width="0.5" stroke-linecap="round"/></g><g data-paper-data="{&quot;index&quot;:null}"><g data-paper-data="{&quot;index&quot;:null}" stroke="none" stroke-width="0" stroke-linecap="butt"><path d="M235.78989,198.98903c-1.16521,0.51722 -0.61903,-2.82585 -0.36063,-3.81748c0.15788,-1.18096 1.31357,-3.1212 1.31357,-3.1212c0,0 0.71839,-1.38593 1.00969,-0.42457c0.1356,0.44753 0.29651,0.8734 0.40283,1.30481c0.12207,0.49535 0.17215,0.99798 0.02928,1.54906c0,0 -0.79968,3.80138 -2.39474,4.50939z" data-paper-data="{&quot;index&quot;:null}" fill="#54c81c"/><path d="M237.18244,189.02729l1.06673,-5.51904l1.45965,0.15004c0,0 -0.49633,3.58804 -1.14327,5.52758c-0.22391,0.60807 -0.97673,4.71311 -0.97673,4.71311c0,0 -0.54754,2.28525 -0.95063,2.77658c-0.51276,0.62498 -0.90527,-0.54171 -0.87599,-0.90065c0,0 0.37417,-1.31745 0.57461,-2.1494c0.2963,-1.22983 0.84564,-4.59821 0.84564,-4.59821z" data-paper-data="{&quot;index&quot;:null}" fill="#ffffff"/></g><path d="M236.60073,196.37196l0.27397,0.4243" fill="none" stroke="#000000" stroke-width="0.5" stroke-linecap="round"/><path d="M237.22485,195.84873l-0.20415,-0.40927" fill="none" stroke="#000000" stroke-width="0.5" stroke-linecap="round"/></g></g></g></svg>