<svg version="1.1" xmlns="http://www.w3.org/2000/svg" xmlns:xlink="http://www.w3.org/1999/xlink" width="8.44926" height="7.41928" viewBox="0,0,8.44926,7.41928"><defs><radialGradient cx="240.04901" cy="180.25508" r="3.70963" gradientUnits="userSpaceOnUse" id="color-1"><stop offset="0" stop-color="#eb3d66" stop-opacity="0"/><stop offset="1" stop-color="#eb3d66"/></radialGradient></defs><g transform="translate(-235.77324,-176.54544)"><g data-paper-data="{&quot;isPaintingLayer&quot;:true}" fill-rule="nonzero" stroke="none" stroke-miterlimit="10" stroke-dasharray="" stroke-dashoffset="0" style="mix-blend-mode: normal"><path d="M241.2156,180c0,0.84706 -0.54424,1.53375 -1.2156,1.53375c-0.67136,0 -1.2156,-0.68668 -1.2156,-1.53375c0,-0.84706 0.54424,-1.53375 1.2156,-1.53375c0.67136,0 1.2156,0.68668 1.2156,1.53375z" fill="#3f9415" stroke-width="0" stroke-linecap="butt" stroke-linejoin="miter"/><path d="M240.04901,183.96471c-2.04877,0 -3.70963,-1.66085 -3.70963,-3.70963c0,-2.04877 1.66085,-3.70964 3.70963,-3.70964c2.04877,0 3.70964,1.66087 3.70964,3.70964c0,2.04877 -1.66085,3.70964 -3.70963,3.70964z" data-paper-data="{&quot;index&quot;:null}" fill="url(#color-1)" stroke-width="0" stroke-linecap="butt" stroke-linejoin="miter"/><path d="" fill="#000000" stroke-width="1" stroke-linecap="round" stroke-linejoin="round"/><path d="" fill="#ee1a40" stroke-width="1" stroke-linecap="round" stroke-linejoin="round"/><path d="M238.11773,177.17657c0.55492,0.43033 -1.47468,3.36445 -1.1536,2.87623c-0.59889,-0.36967 -1.05316,-1.08916 -1.1892,-1.64663c-0.01248,-0.05104 0.04818,-0.192 0.04818,-0.192c-0.09144,0.02342 0.02946,-0.08827 0.03877,-0.18422c0.00727,-0.07548 -0.07313,-0.23526 -0.07313,-0.23526c-0.04193,0.02986 0.17942,-0.09125 0.26063,-0.17042c0.06712,-0.06536 0.03622,-0.10741 0.09176,-0.14781c0.38973,-0.28496 1.05398,-0.4295 1.97662,-0.2999z" data-paper-data="{&quot;index&quot;:null}" fill="#ed3e67" stroke-width="0.17188" stroke-linecap="butt" stroke-linejoin="miter"/><path d="M238.33805,177.98544c-0.05994,0.14187 -0.27607,0.84122 -0.3713,1.18623l-0.37541,1.35971c-0.02761,0.10004 -0.78658,-0.46081 -0.73258,-0.76583c-0.13277,-0.34574 -0.02148,-0.64247 0.02281,-0.9524c0.1475,-0.33898 0.42511,-0.79978 0.61066,-0.98636c0.14945,-0.15026 -0.02618,-0.62795 0.10229,-0.82587c0.19323,-0.29807 1.27083,-0.26483 1.27083,-0.26483z" data-paper-data="{&quot;index&quot;:null}" fill="#54c81c" stroke-width="0.17188" stroke-linecap="butt" stroke-linejoin="miter"/><path d="M241.87798,177.17656c0.92264,-0.1296 1.58689,0.01494 1.97662,0.2999c0.05554,0.0404 0.02464,0.08245 0.09176,0.14781c0.08121,0.07917 0.30256,0.20028 0.26063,0.17042c0,0 -0.0804,0.15978 -0.07313,0.23526c0.00931,0.09595 0.13021,0.20764 0.03877,0.18422c0,0 0.06066,0.14096 0.04818,0.192c-0.13604,0.55747 -0.59031,1.27696 -1.1892,1.64663c0.32108,0.48822 -1.70852,-2.4459 -1.1536,-2.87623z" data-paper-data="{&quot;index&quot;:null}" fill="#ed3e67" stroke-width="0.17188" stroke-linecap="butt" stroke-linejoin="miter"/><path d="M241.13039,176.73609c0,0 1.0776,-0.03324 1.27083,0.26483c0.12847,0.19792 -0.04716,0.67561 0.10229,0.82587c0.18555,0.18658 0.46316,0.64738 0.61066,0.98636c0.04429,0.30993 0.15558,0.60666 0.02281,0.9524c0.054,0.30502 -0.70497,0.86587 -0.73258,0.76583l-0.37541,-1.35971c-0.09523,-0.34501 -0.31136,-1.04436 -0.3713,-1.18623z" data-paper-data="{&quot;index&quot;:null}" fill="#54c81c" stroke-width="0.17188" stroke-linecap="butt" stroke-linejoin="miter"/></g></g></svg>