<svg version="1.1" xmlns="http://www.w3.org/2000/svg" xmlns:xlink="http://www.w3.org/1999/xlink" width="9.30172" height="8.88832" viewBox="0,0,9.30172,8.88832"><g transform="translate(-235.34914,-175.55584)"><g data-paper-data="{&quot;isPaintingLayer&quot;:true}" fill="#ffd700" fill-rule="nonzero" stroke="none" stroke-width="0.26458" stroke-linecap="butt" stroke-linejoin="miter" stroke-miterlimit="4" stroke-dasharray="" stroke-dashoffset="0" style="mix-blend-mode: normal"><path d="M239.89665,178.03631c-0.75792,0.48231 -1.34358,0.99907 -1.75699,1.55028c-0.34451,0.41341 -0.41341,0.96463 -0.2067,1.65364l0.2067,0.20671c0.41341,0.55121 1.06798,0.72347 1.9637,0.51676c0.75792,-0.48231 1.34358,-0.99908 1.75699,-1.55029c0.41341,-0.55121 0.41341,-1.20578 0,-1.96369l-0.31006,-0.31006c-0.41341,-0.27561 -0.96462,-0.31006 -1.65364,-0.10335zM235.34914,180c0,-1.37803 0.41341,-2.46323 1.24023,-3.2556c0.82682,-0.79237 1.9637,-1.18856 3.41063,-1.18856c1.44693,0 2.58381,0.39619 3.41063,1.18856c0.82682,0.79237 1.24023,1.87757 1.24023,3.2556c0,1.17133 -0.41341,2.20486 -1.24023,3.10058c-0.82682,0.89572 -1.9637,1.34358 -3.41063,1.34358c-1.44693,0 -2.58381,-0.44786 -3.41063,-1.34358c-0.82682,-0.89572 -1.24023,-1.92925 -1.24023,-3.10058z"/></g></g></svg>