<svg version="1.1" xmlns="http://www.w3.org/2000/svg" xmlns:xlink="http://www.w3.org/1999/xlink" width="43.89454" height="28.45667" viewBox="0,0,43.89454,28.45667"><g transform="translate(-219.17997,-167.87401)"><g data-paper-data="{&quot;isPaintingLayer&quot;:true}" fill-rule="nonzero" stroke-linejoin="miter" stroke-miterlimit="10" stroke-dasharray="" stroke-dashoffset="0" style="mix-blend-mode: normal"><path d="M228.29641,179.31407c0,0 -0.65178,-4.05293 0.31787,-3.70063c0.96965,0.3523 1.35799,3.97503 1.35799,3.97503z" data-paper-data="{&quot;index&quot;:null}" fill="#ffffff" stroke="none" stroke-width="0" stroke-linecap="butt"/><g data-paper-data="{&quot;index&quot;:null}" stroke="none" stroke-width="0" stroke-linecap="butt"><path d="M229.32938,178.62472c0.09427,0.33206 -0.33275,0.53578 -0.67967,0.47798c-0.34692,-0.0578 -0.49832,-1.27674 -0.39403,-1.90266c0.03475,-0.20853 0.29104,0.20789 0.56657,0.62247c0.21032,0.31646 0.449,0.59748 0.50713,0.8022z" fill="#7c5cbb"/><path d="M228.75592,178.77802c-0.20558,-0.03425 -0.34447,-0.22868 -0.31022,-0.43426c0.03425,-0.20558 0.18101,-0.2968 0.38659,-0.26255c0.20558,0.03426 0.29678,0.27635 0.26253,0.48193c-0.03425,0.20558 -0.13332,0.24914 -0.3389,0.21489z" fill="#000000"/><path d="M228.74055,178.26622c-0.20558,-0.03425 -0.34446,-0.22868 -0.31021,-0.43426c0.03425,-0.20558 -0.0622,-0.29436 0.14338,-0.26011c0.20558,0.03426 0.54223,0.61541 0.33665,0.58116z" fill="#ffffff"/></g><path d="M246.21948,188.30361c0,0 0.98202,-4.49537 1.90502,-4.83008c0.92298,-0.33475 3.0871,2.90079 3.63056,4.25466c0.18277,0.30852 -0.73269,1.83298 -1.63918,2.20654c-1.36047,0.56065 -3.35296,-0.27726 -3.89641,-1.63113z" data-paper-data="{&quot;index&quot;:null}" fill="#ff1c00" stroke="none" stroke-width="0" stroke-linecap="butt"/><path d="M247.3023,182.75445c-0.49478,1.02109 -2.34437,2.61025 -3.89721,2.41659c-1.55284,-0.19365 -3.53911,-1.63714 -3.04433,-2.65825c0.49477,-1.02109 2.40234,-3.52305 3.9169,-3.36298c0.55228,0.05838 0.76718,0.51238 1.58569,1.43296c0.02061,0.0232 1.73783,1.67732 1.55174,2.06135z" data-paper-data="{&quot;index&quot;:null}" fill="#ff1c00" stroke="none" stroke-width="0" stroke-linecap="butt"/><path d="M243.28748,185.01205c0.58164,-1.20041 4.00002,-2.82505 4.00002,-2.82505c0.42726,0.22226 2.66879,2.49505 2.46042,2.92508c-0.27938,0.57651 -2.08521,1.70045 -2.98989,1.92346c-0.97902,0.24134 -1.81591,0.02325 -2.03797,-0.09226c-0.42726,-0.22223 -2.01427,-0.73081 -1.4326,-1.93122z" data-paper-data="{&quot;index&quot;:null}" fill="#ded000" stroke="none" stroke-width="0" stroke-linecap="butt"/><path d="M244.67521,179.11204c0.37375,0.19016 4.36556,4.23821 5.28432,5.47081c0.61195,0.82097 1.51327,2.23767 1.84543,3.19129c0.16654,0.47813 -0.22668,0.47509 -0.22668,0.47509c0,0 -0.41918,-1.2793 -2.30351,-3.68335c-1.88433,-2.40404 -5.20497,-5.56449 -4.83121,-5.37433z" data-paper-data="{&quot;index&quot;:null}" fill="#646362" stroke="none" stroke-width="0" stroke-linecap="butt"/><path d="M242.81089,185.38195c0,0 -0.08384,-0.42445 -0.01885,-0.71267c0.06498,-0.28824 0.2697,-0.73068 0.2697,-0.73068c0,0 2.19846,1.47263 2.69253,1.95066c0.49406,0.47803 1.37768,1.22659 1.37768,1.22659c0,0 -0.09343,0.84847 -0.36048,0.95163c-0.26706,0.10315 -0.91457,0.20636 -0.91457,0.20636c0,0 -0.74384,-0.45797 -1.31837,-0.98981c-0.5745,-0.53185 -1.72763,-1.90207 -1.72763,-1.90207z" data-paper-data="{&quot;index&quot;:null}" fill="#e0e0de" stroke="none" stroke-width="0" stroke-linecap="butt"/><path d="M257.6836,188.53562c0,0 -0.13889,-4.59929 0.67521,-5.1481c0.8141,-0.54883 3.69906,2.0644 4.555,3.2458c0.25222,0.2549 -0.2657,1.95602 -1.05435,2.53851c-1.18361,0.87422 -3.31993,0.54519 -4.17585,-0.63621z" data-paper-data="{&quot;index&quot;:null}" fill="#ff1c00" stroke="none" stroke-width="0" stroke-linecap="butt"/><path d="M257.38666,182.88961c-0.23205,1.11068 -1.64042,3.10137 -3.19381,3.29056c-1.55339,0.18919 -3.8307,-0.72882 -3.59867,-1.83951c0.23203,-1.11067 1.475,-4.00093 2.98311,-4.2134c0.54991,-0.07747 0.86862,0.31079 1.88616,1.00506c0.02563,0.01749 2.09309,1.20514 2.00582,1.62287z" data-paper-data="{&quot;index&quot;:null}" fill="#ff1c00" stroke="none" stroke-width="0" stroke-linecap="butt"/><path d="M254.04015,186.05449c0.27276,-1.30572 3.19436,-3.71176 3.19436,-3.71176c0.46845,0.11186 3.19475,1.77236 3.09703,2.24012c-0.13103,0.62709 -1.60992,2.15588 -2.43337,2.59188c-0.89112,0.47184 -1.75592,0.46349 -1.99938,0.40535c-0.46844,-0.11184 -2.13145,-0.21986 -1.85866,-1.52558z" data-paper-data="{&quot;index&quot;:null}" fill="#ded000" stroke="none" stroke-width="0" stroke-linecap="butt"/><path d="M253.95376,179.99409c0.40875,0.09372 5.264,3.05137 6.45456,4.024c0.79298,0.64781 2.01131,1.80326 2.56508,2.6477c0.27765,0.4234 -0.10454,0.51591 -0.10454,0.51591c0,0 -0.71726,-1.13924 -3.12893,-3.01381c-2.41167,-1.87458 -6.40031,-4.13416 -5.99158,-4.04044z" data-paper-data="{&quot;index&quot;:null}" fill="#646362" stroke="none" stroke-width="0" stroke-linecap="butt"/><path d="M253.74964,186.6772c0,0 -0.18439,-0.39138 -0.19133,-0.68676c-0.00696,-0.2954 0.08421,-0.7743 0.08421,-0.7743c0,0 2.49025,0.89476 3.0856,1.23851c0.59535,0.34376 1.63429,0.85537 1.63429,0.85537c0,0 0.11538,0.84577 -0.11863,1.01068c-0.23402,0.16491 -0.83709,0.42225 -0.83709,0.42225c0,0 -0.83277,-0.26364 -1.51925,-0.64007c-0.68645,-0.37643 -2.13777,-1.42565 -2.13777,-1.42565z" data-paper-data="{&quot;index&quot;:null}" fill="#e0e0de" stroke="none" stroke-width="0" stroke-linecap="butt"/><path d="M252.71781,183.22485c0,1.32195 -0.81229,2.39358 -1.8143,2.39358c-1.00201,0 -1.8143,-1.07163 -1.8143,-2.39358c0,-1.32195 0.81229,-2.39358 1.8143,-2.39358c1.00201,0 1.8143,1.07163 1.8143,2.39358z" data-paper-data="{&quot;index&quot;:null}" fill="#53b761" stroke="none" stroke-width="0" stroke-linecap="butt"/><path d="M241.19101,184.29521c-0.60195,-0.14478 -3.14311,-0.0439 -5.0963,-0.1528c-1.89888,-0.10587 -3.13713,-0.50588 -3.13713,-0.50588c0,0 5.61402,-2.90984 7.49624,-3.08859c2.71702,-0.25804 7.81794,-0.28712 7.81794,-0.28712c0,0 -5.89359,4.31991 -7.08075,4.03439z" data-paper-data="{&quot;index&quot;:null}" fill="#ff3300" stroke="none" stroke-width="0" stroke-linecap="butt"/><g data-paper-data="{&quot;index&quot;:null}" stroke="none" stroke-width="0" stroke-linecap="butt"><path d="M229.81849,183.70239c0.68658,0.43088 0.58581,1.1892 0.64136,1.96528c0.05553,0.77608 0.22001,1.28491 -0.36038,1.96084c-0.58039,0.67593 -1.68705,0.88789 -2.09164,0.89485c-1.13822,0.01957 -2.14094,-1.26206 -2.16423,-2.61707c-0.02328,-1.35502 1.39866,-2.26213 1.39866,-2.26213c0,0 1.88963,-0.37265 2.57622,0.05824z" fill="#e8e6e6"/><path d="M235.11867,183.17003l-5.29052,2.7049c0,0 0.2838,-0.21529 0.18063,-1.12073c-0.08011,-0.70304 4.11225,-3.243 4.11225,-3.243z" fill="#ff3300"/><path d="M226.26603,181.32184c1.13756,0.60291 2.43087,2.90653 1.9168,3.87644c-0.51407,0.96991 0.65057,2.10587 0.02663,3.04126c-0.10056,1.06103 -3.86952,3.05914 -7.93917,0.7308c-0.82685,-0.47306 0.23149,-1.24376 0.34402,-2.26157c0.04245,-0.38393 -1.51331,-3.26421 -1.4312,-3.69532c0.02369,-0.12443 1.74472,-0.32595 2.11306,-0.52483c0.52791,-0.28504 0.46651,-0.53339 0.57107,-0.73066c0.24548,-0.46315 1.52398,-0.44168 2.33838,-0.39874c0.89109,0.04699 1.46602,-0.3524 2.06038,-0.03738z" fill="#e8e6e6"/></g><path d="M228.2803,177.22638c-0.61095,-0.98833 -0.38705,-1.6293 0.81148,-3.28638c1.04431,-1.44386 2.13535,-3.35693 5.1615,-4.74493c3.02614,-1.388 7.23942,-1.32053 7.23942,-1.32053l5.98345,0.20767l-1.74163,1.68512c0,0 3.80592,0.85784 5.27684,1.5846c1.47092,0.72676 3.28403,2.64521 3.28403,2.64521l-5.60181,-0.04053c0,0 2.26195,1.40847 3.1767,2.21239c0.91476,0.80392 2.03374,2.36671 2.03374,2.36671l-4.91454,-0.16024l1.49512,3.78311c0,0 -3.49766,-0.36904 -5.90639,-0.7938c-2.40873,-0.42476 -5.4459,-0.51763 -5.4459,-0.51763c0,0 -1.8386,1.30064 -2.77106,1.05415c-1.97373,-0.52174 -3.89936,-2.81725 -3.91533,-2.8199c-0.57019,-0.095 -1.86547,0.32569 -2.42382,0.07625c-0.52308,-0.23369 -1.03469,-0.7874 -1.74181,-1.93128z" data-paper-data="{&quot;index&quot;:null}" fill="#ff3300" stroke="none" stroke-width="0" stroke-linecap="butt"/><path d="M226.94003,173.78729z" data-paper-data="{&quot;index&quot;:null}" fill="#030000" stroke="none" stroke-width="0" stroke-linecap="butt"/><path d="M229.97227,179.28657c0,0 1.3812,-1.05099 3.36827,-2.0801c1.13883,-0.5898 2.98458,-1.2704 2.98458,-1.2704c0,0 0.104,1.10021 -0.20891,1.92617c-0.27651,0.72983 -1.35099,1.99936 -1.84516,2.02623c-0.44137,0.02399 -1.01783,0.19609 -2.08877,-0.06955c-1.36362,-0.33824 -2.21,-0.53234 -2.21,-0.53234z" data-paper-data="{&quot;index&quot;:null}" fill="#ffffff" stroke="none" stroke-width="0" stroke-linecap="butt"/><g data-paper-data="{&quot;index&quot;:null}" stroke="none" stroke-width="0" stroke-linecap="butt"><path d="M231.82037,179.47594c-0.35146,-0.01303 -0.55482,-0.28763 -0.53133,-0.92175c0.0235,-0.63411 0.51495,-0.7626 0.86642,-0.74957c0.35147,0.01302 0.36732,-0.08739 0.34383,0.54673c-0.0235,0.63411 -0.32745,1.1376 -0.67891,1.12458z" fill="#7c5cbb"/><path d="M231.8158,178.96326c-0.20827,-0.00772 -0.37086,-0.18282 -0.36314,-0.39109c0.00771,-0.20827 0.18281,-0.37085 0.39108,-0.36313c0.20827,0.00772 0.37084,0.18281 0.36312,0.39108c-0.00771,0.20827 -0.1828,0.37086 -0.39107,0.36314z" fill="#000000"/><path d="M231.73518,178.4576c-0.20827,-0.00772 -0.18335,0.00468 -0.17563,-0.20359c0.00772,-0.20827 0.18281,-0.30835 0.39108,-0.30063c0.20827,0.00772 0.18335,-0.06719 0.17563,0.14108c-0.00772,0.20827 -0.18281,0.37085 -0.39108,0.36313z" fill="#ffffff"/></g><path d="M230.37206,182.56088c-2.14851,-0.56461 -3.54573,-1.538 -3.66895,-2.50646c-0.09115,-0.7164 1.81313,-1.14631 3.13613,-1.2668c1.323,-0.12049 1.43862,0.80307 2.38555,0.85122c1.94641,0.09899 1.9922,-0.35697 2.68638,-0.2558c3.30532,0.48171 3.10234,2.14622 1.69206,2.76214c-1.92497,0.91367 -4.61085,0.70788 -6.23118,0.4157z" data-paper-data="{&quot;index&quot;:null}" fill="#ffbe7e" stroke="none" stroke-width="0" stroke-linecap="butt"/><path d="M234.05738,181.03068c0,0 0.79192,-0.14464 1.3009,-0.11691c0.50898,0.02774 0.89261,0.23645 0.89261,0.23645" data-paper-data="{&quot;index&quot;:null}" fill="none" stroke="#000000" stroke-width="0.5" stroke-linecap="round"/><path d="M227.06487,179.44853c0,0 0.14109,-0.0633 0.21479,0.24672c0.0737,0.31 -0.38382,0.82757 -0.38382,0.82757c0,0 -1.40372,-0.56844 -1.35143,-0.88231z" data-paper-data="{&quot;index&quot;:null}" fill="#030000" stroke="none" stroke-width="0" stroke-linecap="butt"/><path d="M242.17901,184.13053v-2.38769h8.64511c0,0 0.64692,0.84011 0.64692,1.32548c0,0.48537 -0.64692,1.06221 -0.64692,1.06221z" data-paper-data="{&quot;index&quot;:null}" fill="#ff3200" stroke="none" stroke-width="0" stroke-linecap="butt"/><path d="M223.44797,181.6605c0,0 -1.19277,1.04792 -1.27612,1.98563c-0.05286,0.59474 2.47317,1.95644 2.47317,1.95644c0,0 -1.11871,0.2721 -1.4347,0.72763c-0.316,0.45552 -0.62686,0.92903 -0.62686,0.92903" data-paper-data="{&quot;index&quot;:null}" fill="none" stroke="#999797" stroke-width="0.5" stroke-linecap="round"/><path d="M239.48811,184.54446c0.68031,-0.44076 1.32533,-0.02951 2.05242,0.2475c0.72707,0.27702 1.25781,0.34256 1.62582,1.1539c0.36803,0.81134 0.09336,1.90416 -0.071,2.27391c-0.46241,1.04026 -2.04739,1.40874 -3.28579,0.85827c-1.23836,-0.55048 -1.461,-2.22237 -1.461,-2.22237c0,0 0.45925,-1.87047 1.13954,-2.31123z" data-paper-data="{&quot;index&quot;:null}" fill="#e8e6e6" stroke="none" stroke-width="0" stroke-linecap="butt"/><path d="M241.0263,182.58169c0,0 -4.22535,-1.15878 -3.49262,-1.30606c0.19149,-0.0385 -0.21083,-0.93803 0.27475,-1.33464c0.61758,-0.50444 1.00295,0.21287 1.89677,0.26694c1.86384,0.11277 3.91568,1.74816 3.91568,1.74816l-1.27193,3.75441c0,0 -1.01425,0.47655 -1.55404,0.19028c-0.5398,-0.28628 -0.49768,-1.2784 -0.49768,-1.2784l0.72904,-2.04068z" data-paper-data="{&quot;index&quot;:null}" fill="#ff3300" stroke="none" stroke-width="0" stroke-linecap="butt"/><path d="M235.10523,188.12709c1.02652,-0.77705 3.66071,-0.97792 4.32325,-0.1027c0.66254,0.87523 3.79517,0.48168 2.76865,1.25874c-0.35369,0.26776 1.74229,4.10151 -2.08548,6.8092c-0.77767,0.55013 -1.48902,0.04622 -2.36436,-0.48515c-0.33016,-0.20042 -2.87996,-0.25136 -3.23621,-0.50766c-0.1028,-0.07397 -0.28568,-0.80916 -0.3106,-1.22701c-0.03574,-0.59887 -0.88048,-0.60172 -1.01524,-0.77973c-0.31637,-0.41793 0.70226,-2.36152 1.08474,-3.0818c0.4185,-0.78808 0.29893,-1.47785 0.83524,-1.88384z" data-paper-data="{&quot;index&quot;:null}" fill="#e8e6e6" stroke="none" stroke-width="0" stroke-linecap="butt"/><path d="M235.82272,192.95656c0.26476,-0.61617 0.87902,-0.94396 1.37193,-0.73215c0.49294,0.21183 0.67789,0.88304 0.41313,1.4992c-0.26478,0.61615 -1.6141,1.12081 -1.6141,1.12081c0,0 -0.43574,-1.27169 -0.17099,-1.88785z" data-paper-data="{&quot;index&quot;:null}" fill="#e8e6e6" stroke="#999797" stroke-width="0.5" stroke-linecap="butt"/><path d="M238.9537,193.74486c0.09194,-0.66429 0.59729,-1.14321 1.12873,-1.06965c0.53145,0.07354 0.88775,0.6717 0.7958,1.336c-0.09192,0.66432 -1.25918,1.50865 -1.25918,1.50865c0,0 -0.75728,-1.11067 -0.66534,-1.77497z" data-paper-data="{&quot;index&quot;:null}" fill="#e8e6e6" stroke="#999797" stroke-width="0.5" stroke-linecap="butt"/></g></g></svg>