<svg version="1.1" xmlns="http://www.w3.org/2000/svg" xmlns:xlink="http://www.w3.org/1999/xlink" width="30.90855" height="34.75686" viewBox="0,0,30.90855,34.75686"><g transform="translate(-226.47069,-165.245)"><g data-paper-data="{&quot;isPaintingLayer&quot;:true}" fill-rule="nonzero" stroke-miterlimit="10" stroke-dasharray="" stroke-dashoffset="0" style="mix-blend-mode: normal"><path d="M247.25709,175.60144c0,0 -1.33147,-3.13414 -0.98611,-4.48625c0.33262,-1.3022 0.48585,-1.50522 0.48585,-1.50522l2.10321,0.01487c0,0 0.78596,1.09728 0.44156,2.13075c-0.34441,1.03347 -2.04451,3.84585 -2.04451,3.84585z" data-paper-data="{&quot;index&quot;:null}" fill="#e8edf4" stroke="#000000" stroke-width="0" stroke-linecap="butt" stroke-linejoin="miter"/><path d="M226.87008,173.96453c-0.44181,-1.32577 0.56646,-2.7334 0.56646,-2.7334l2.69807,-0.01907c0,0 0.19657,0.26044 0.62326,1.93095c0.44304,1.73451 -1.26501,5.36956 -1.26501,5.36956c0,0 -2.18096,-3.22229 -2.62278,-4.54805z" data-paper-data="{&quot;index&quot;:null}" fill="#e8edf4" stroke="#000000" stroke-width="0" stroke-linecap="butt" stroke-linejoin="miter"/><g data-paper-data="{&quot;index&quot;:null}" stroke-width="0" stroke-linecap="butt" stroke-linejoin="miter"><g data-paper-data="{&quot;index&quot;:null}"><path d="M247.68028,169.35599c-1.06737,0 -1.93265,-0.86211 -1.93265,-1.92557c0,-1.06346 0.86527,-1.92557 1.93265,-1.92557c1.06737,0 1.93267,0.86211 1.93267,1.92557c0,1.06346 -0.86529,1.92557 -1.93267,1.92557z" fill="#c2e266" stroke="none"/><path d="M247.75112,169.25518c-0.65944,0 -1.194,-0.53261 -1.194,-1.18962c0,-0.65702 0.53456,-1.18962 1.194,-1.18962c0.65944,0 1.194,0.53261 1.194,1.18962c0,0.65701 -0.53456,1.18962 -1.194,1.18962z" fill="#c2e266" stroke="#000000"/><path d="M247.77791,169.85001c-0.58416,-0.0026 -1.30651,-0.35626 -1.30651,-0.35626l0.28233,-0.4899c0,0 0.63821,0.33264 1.09235,0.30689c0.45415,-0.02575 1.08264,-0.43022 1.08264,-0.43022l0.21781,0.68142c0,0 -0.85738,0.29035 -1.36863,0.28808z" fill="#dbded5" stroke="#000000"/></g><g data-paper-data="{&quot;index&quot;:null}" stroke="none"><path d="M242.08473,174.3581c0,0.41758 -0.1631,0.75611 -0.36428,0.75611c-0.20118,0 -0.36426,-0.33852 -0.36426,-0.75611c0,-0.41759 0.16308,-0.75611 0.36426,-0.75611c0.20119,0 0.36428,0.33852 0.36428,0.75611z" fill="#000000"/><path d="M240.31504,178.87694c0.20956,0 0.98657,2.14736 0.98657,2.14736c0,0 -1.05021,0.33269 -1.25977,0.33269c-0.20955,0 -0.56158,-1.2075 -0.56158,-1.39124c0,-0.18374 0.62523,-1.0888 0.83479,-1.0888z" fill="#807d5a"/><path d="M241.48377,174.88467l-0.1012,-0.31253l4.86707,-5.89768l0.13154,0.15122z" fill="#6e6e73"/><path d="M245.6931,169.17852l0.33391,0.32261l-1.17375,1.36101l-0.30356,-0.32261z" fill="#c2e266"/></g></g><g data-paper-data="{&quot;index&quot;:null}" stroke-width="0" stroke-linecap="butt" stroke-linejoin="miter"><g data-paper-data="{&quot;index&quot;:null}"><path d="M226.47069,168.41605c0,-1.36425 1.11002,-2.47019 2.47929,-2.47019c1.36928,0 2.47929,1.10595 2.47929,2.47019c0,1.36425 -1.11002,2.47018 -2.47929,2.47018c-1.36927,0 -2.47929,-1.10594 -2.47929,-2.47018z" fill="#c2e266" stroke="none"/><path d="M227.32741,169.23082c0,-0.84284 0.68578,-1.52608 1.53171,-1.52608c0.84594,0 1.5317,0.68324 1.5317,1.52608c0,0.84283 -0.68577,1.52609 -1.5317,1.52609c-0.84594,0 -1.53171,-0.68325 -1.53171,-1.52609z" fill="#c2e266" stroke="#000000"/><path d="M228.82475,171.51998c-0.65585,0.00291 -1.75571,-0.36955 -1.75571,-0.36955l0.27941,-0.87416c0,0 0.80625,0.51889 1.38884,0.55192c0.5826,0.03303 1.40131,-0.39371 1.40131,-0.39371l0.36218,0.62847c0,0 -0.92665,0.45371 -1.67602,0.45702z" fill="#dbded5" stroke="#000000"/></g><g data-paper-data="{&quot;index&quot;:null}" stroke="none"><path d="M235.31389,178.83714c0.20578,-0.4242 0.50039,-2.89051 1.79131,-2.85171c0.20036,0.00602 1.7467,1.3038 1.98128,2.35045c0.3191,1.42374 -0.69622,2.71278 -0.69622,2.71278l-3.11533,-0.0194c0,0 -0.16684,-1.76794 0.03894,-2.19213z" fill="#c2e266"/><path d="M236.59545,176.33313c0.25809,0 0.46731,0.43427 0.46731,0.96997c0,0.5357 -0.20923,0.96997 -0.46731,0.96997c-0.25808,0 -0.46729,-0.43427 -0.46729,-0.96997c0,-0.53571 0.20921,-0.96997 0.46729,-0.96997z" fill="#000000"/><path d="M235.42723,183.21345c-0.14743,-0.84753 -0.15577,-2.1986 -0.15577,-2.1986c0,0 0.56637,-0.34524 0.93073,-0.45271c0.36436,-0.10747 0.96773,-0.159 0.96773,-0.159l1.23122,0.78486c0,0 0.2064,2.9878 0.21929,3.37045c0.02595,0.77064 -1.4019,1.34502 -1.4019,1.34502l-1.18066,-0.48271c0,0 -0.46323,-1.35979 -0.61066,-2.20732z" fill="#20201f"/><path d="M237.13277,185.85472c0,0 0.99676,-2.75471 1.2656,-2.75471c0.26884,0 1.0709,1.16105 1.0709,1.39676c0,0.23571 -0.45159,1.78475 -0.72043,1.78475c-0.26884,0 -1.61608,-0.42678 -1.61608,-0.42678z" fill="#c274a1"/><path d="M230.61653,170.20592l0.16875,-0.194l6.24365,7.56575l-0.12981,0.40092z" fill="#6e6e73"/><path d="M232.96601,172.40451l-0.38942,0.41386l-1.50574,-1.74595l0.42836,-0.41385z" fill="#c2e266"/></g></g><g data-paper-data="{&quot;index&quot;:null}" stroke="none" stroke-width="0" stroke-linecap="butt" stroke-linejoin="miter"><g><g><path d="M247.77108,184.8261c0.08534,0.10532 0.12037,1.15635 0.06605,1.62743c-0.02968,0.25728 -0.08185,0.73699 -0.50016,0.85689c-0.10662,0.03056 -0.63369,-0.09125 -0.63369,-0.09125l-0.25054,0.33648c0,0 -0.24039,0.06821 -0.38662,0.02934c-0.14623,-0.03887 -0.36968,-0.21058 -0.36968,-0.21058c0,0 -0.16294,0.05419 -0.26942,0.1158c-0.34752,0.20109 -0.56383,-0.1071 -0.56383,-0.1071c0,0 -0.23539,0.17475 -0.44778,0.17979c-0.3367,0.008 -0.72952,-0.17106 -0.89956,-0.33215c-0.28886,-0.27364 -0.89149,-1.20483 -0.70336,-1.52406c0.29302,-0.49719 0.85909,-0.06725 0.85909,-0.06725c0,0 -0.23164,-0.55609 -0.17941,-0.91698c0.08043,-0.5557 0.34775,-0.80251 0.34775,-0.80251l2.34737,-0.71933c0,0 1.04817,0.96445 1.58379,1.62549z" fill="#20201f"/><path d="M245.87681,183.62883c-1.18122,0.64705 -2.65297,0.47823 -3.33673,-0.17086c-0.68376,-0.64909 0.08338,-1.57814 1.0198,-2.09109c0.93642,-0.51295 1.97736,-0.57841 2.63996,0.08634c0.6626,0.66475 0.85819,1.52856 -0.32303,2.17561z" fill="#20201f"/><path d="M243.31625,180.46209c0.82561,0.93812 1.73541,1.85285 1.73541,1.85285l-1.27808,0.42919c0,0 -1.0084,-1.30192 -1.34148,-1.68038c-0.54635,-0.6208 -1.27094,-1.37921 -2.11746,-2.22895c-0.21211,-0.21291 -0.22401,-0.44715 -0.01573,-0.67233c0.13993,-0.15128 0.33167,-0.23565 0.62863,-0.006c0.89681,0.69351 1.81124,1.64947 2.3887,2.30563z" fill="#fed5c7"/></g><path d="M243.01001,186.6382c-0.22178,-0.35083 -0.32881,-0.875 -0.05662,-1.14944c0.42392,-0.42744 0.88586,0.15261 0.88586,0.15261c0,0 -0.69868,1.20337 -0.82924,0.99683z" fill="#c0c2c6"/><path d="M244.42305,186.56574c-0.22178,-0.35083 -0.32881,-0.875 -0.05662,-1.14944c0.42392,-0.42744 0.88586,0.15261 0.88586,0.15261c0,0 -0.69868,1.20337 -0.82924,0.99683z" fill="#c0c2c6"/><path d="M245.69117,186.45704c-0.22178,-0.35083 -0.32881,-0.875 -0.05662,-1.14944c0.42392,-0.42744 0.88586,0.15261 0.88586,0.15261c0,0 -0.69868,1.20337 -0.82924,0.99683z" fill="#c0c2c6"/><path d="M245.87463,185.00257c-0.33479,-0.24531 -0.62625,-0.69394 -0.47339,-1.04896c0.23806,-0.55294 0.88025,-0.18221 0.88025,-0.18221c0,0 -0.20976,1.37559 -0.40686,1.23117z" fill="#c0c2c6"/><path d="M246.59696,186.20342c-0.22178,-0.35083 -0.32881,-0.875 -0.05662,-1.14944c0.42392,-0.42744 0.88586,0.15261 0.88586,0.15261c0,0 -0.69868,1.20337 -0.82924,0.99683z" fill="#c0c2c6"/></g><g><path d="M242.00288,180.95707l-0.79548,-0.81749l1.10351,-0.92827l0.82319,0.79737z" fill="#83c4ac"/><path d="M241.88521,179.86959c-0.46295,0.40546 -0.96318,0.56659 -1.76328,-0.29111c-0.45004,-0.48244 -0.43959,-1.20223 0.02335,-1.60769c0.46294,-0.40546 1.19042,-0.33176 1.65311,0.13939c0.77136,0.78547 0.54976,1.35395 0.08682,1.75941z" fill="#20201f"/><path d="M244.10469,181.27633l-0.84142,0.77229l-0.59669,0.28874l-0.68381,-1.40799l1.15893,-0.96852l1.24068,0.83433z" fill="#bebec0"/></g></g><g data-paper-data="{&quot;index&quot;:null}" stroke="none" stroke-width="0" stroke-linecap="butt" stroke-linejoin="miter"><path d="M239.02284,182.27002c0,0 -2.88436,2.70534 -3.70777,2.71515c-0.89476,0.01065 -2.54056,-1.2345 -2.54056,-1.2345l2.56892,0.43515l2.34916,-1.98201l1.33025,0.06623z" fill="#f79db4"/><path d="M237.63887,179.40621c0.40766,0.55714 0.09899,1.15177 -0.45815,1.55943c-0.55714,0.40766 -1.15177,0.47399 -1.55943,-0.08315c-0.40766,-0.55714 -0.28649,-1.33926 0.27065,-1.74692c0.55714,-0.40766 1.33927,-0.28649 1.74693,0.27065z" fill="#83c4ac"/><path d="M246.15531,182.23199c0,0 -0.17019,1.02084 -1.08101,1.47039c-0.12054,0.74769 -0.89212,1.48806 -1.85925,1.63147c-0.24826,0.51027 -0.88631,0.92499 -1.79135,0.67212c-0.31004,0.40746 -1.01685,0.63449 -1.59722,0.13857c-0.65637,0.43474 -1.48999,0.38052 -1.98316,-0.2645c-0.82077,0.22117 -1.28399,-0.59406 -1.80498,-0.97104c-0.60289,-0.04151 -1.41778,-0.24579 -1.60594,-1.17262c-0.23849,-0.84122 -0.75413,-1.66156 -0.75413,-1.66156l1.99834,-0.38556c0,0 0.26985,0.18674 0.86207,0.72573c0.48835,0.44446 1.04149,1.2688 3.19484,1.1968c2.41496,-0.08075 2.88306,-0.48453 3.32889,-1.20575c0.31593,-0.51108 0.94839,-0.72 0.94839,-0.72z" fill="#c0c2c6"/><path d="M240.99868,177.13969c0,0 0.20555,0.77475 0.30741,1.40352c0.10187,0.62877 0.18311,1.51901 0.18311,1.51901c0,0 0.70523,0.61385 1.398,0.99703c0.69276,0.38318 1.26597,0.7263 1.26597,0.7263c0,0 -0.55763,0.28442 -0.8195,0.73043c-0.15561,0.26502 -0.05425,0.64385 -0.3651,0.89843c-0.4136,0.33874 -0.84957,-0.03022 -1.16549,0.14179c-0.67521,0.36762 -1.01213,1.01555 -2.16947,0.91684c-0.64815,-0.05529 -1.08963,-0.70707 -1.47571,-0.80814c-0.72172,-0.18893 -0.98084,0.12432 -1.42383,-0.15571c-0.26168,-0.16542 -0.34637,-0.79083 -0.53296,-1.08552c-0.29825,-0.47104 -0.78711,-0.61804 -0.78711,-0.61804c0,0 1.23903,-0.56265 1.81566,-1.09069c0.57663,-0.52804 0.63993,-0.67638 0.96217,-1.44997c0.32224,-0.77359 0.08849,-2.18241 0.08849,-2.18241l2.35095,0.01932l0.36739,0.0378z" fill="#20201f"/><path d="M236.88125,181.45598l-0.23562,-0.30283c0,0 0.33801,-0.23122 0.5156,-0.40367c0.19715,-0.19144 0.29974,-0.30491 0.29974,-0.30491l0.61133,0.73659l-0.34908,0.36756z" data-paper-data="{&quot;index&quot;:null}" fill="#c274a1"/><path d="M238.49402,182.15067l-0.77347,-0.58606l0.28028,-0.29641l0.87073,0.66482z" data-paper-data="{&quot;index&quot;:null}" fill="#c0c2c6"/><path d="M241.74523,181.51135l-0.38559,-0.32906l0.53097,-0.79646c0,0 0.1139,0.10213 0.32998,0.27191c0.19465,0.15294 0.55498,0.34756 0.55498,0.34756l-0.20267,0.32579z" fill="#c274a1"/><path d="M240.22549,182.17756l1.17841,-0.99527l0.30973,0.26549l-1.08991,0.90677z" fill="#c0c2c6"/><path d="M238.49952,176.94034l2.62918,0.06807c0,0 0.55468,0.06354 0.56242,1.47579c0.00342,0.62341 -0.31842,1.51379 -0.31842,1.51379l-0.4761,-0.6845c0,0 -0.41618,0.59893 -0.66135,0.82933c-0.24078,0.22628 -0.66768,0.48227 -0.83714,0.54094c-0.17462,0.06045 -1.64906,0.14817 -1.47169,-1.85049c0.14531,-1.63736 0.5731,-1.89293 0.5731,-1.89293z" fill="#c0c0c3"/><path d="M239.26651,177.16344l1.98116,-0.15011l-0.56745,0.56105z" fill="#222225"/><g><g><path d="M240.69262,183.11741c-0.35763,0.52628 -1.22655,0.55946 -1.94079,0.07411c-0.71424,-0.48535 -1.00333,-1.30544 -0.6457,-1.83172c0.35763,-0.52628 1.22655,-0.55946 1.94079,-0.07411c0.71424,0.48535 1.00333,1.30544 0.6457,1.83173z" fill="#c0c2c6"/><path d="M239.64968,180.31591c0.16039,0.1928 0.1341,0.47911 -0.05869,0.63949c-0.19279,0.16038 -0.47911,0.1341 -0.63949,-0.05869c-0.16038,-0.19279 -0.13409,-0.47911 0.0587,-0.63949c0.1928,-0.16038 0.47911,-0.13409 0.63949,0.0587z" fill="#000000"/><path d="M239.63965,180.58812c-0.00657,0.18812 -0.17673,0.14084 -0.36485,0.13428c-0.18812,-0.00656 -0.32294,0.03009 -0.31638,-0.15803c0.00656,-0.18811 0.16437,-0.33529 0.35249,-0.32873c0.18811,0.00656 0.33529,0.16437 0.32873,0.35249z" fill="#c478a9"/><path d="M241.37268,181.92805c-0.11295,0.22391 -0.38603,0.31386 -0.60994,0.20091c-0.22391,-0.11295 -0.31385,-0.38603 -0.2009,-0.60994c0.11295,-0.22391 0.38603,-0.31386 0.60994,-0.20091c0.22391,0.11295 0.31386,0.38603 0.20091,0.60994z" fill="#000000"/><path d="M241.119,182.02727c-0.17516,0.06892 -0.19958,-0.106 -0.2685,-0.28116c-0.06892,-0.17516 -0.15624,-0.28423 0.01892,-0.35315c0.17516,-0.06892 0.37302,0.0172 0.44194,0.19236c0.06892,0.17516 -0.0172,0.37302 -0.19236,0.44194z" fill="#c478a9"/><path d="M240.67309,182.1398c0,0.08598 -0.17848,0.19231 -0.42124,0.19231c-0.24276,0 -0.43956,-0.21622 -0.43956,-0.3022c0,-0.08598 0.21511,-0.21062 0.45788,-0.21062c0.24276,0 0.40293,0.23453 0.40293,0.32052z" fill="#000000"/><path d="M239.5321,181.30745c0.09814,0.22205 0.0711,0.46918 -0.00754,0.50394c-0.07864,0.03476 -0.35596,-0.05782 -0.4541,-0.27987c-0.09815,-0.22205 -0.07305,-0.42827 0.00559,-0.46303c0.07864,-0.03476 0.35791,0.01691 0.45605,0.23896z" data-paper-data="{&quot;index&quot;:null}" fill="#000000"/><path d="M240.21522,182.22222c-0.09104,0 -0.16484,-0.0738 -0.16484,-0.16484c0,-0.09103 0.0738,-0.16483 0.16484,-0.16483c0.09103,0 0.16483,0.07379 0.16483,0.16483c0,0.09104 -0.07379,0.16484 -0.16483,0.16484z" fill="#ffffff"/><path d="M239.38188,181.72771c-0.09609,0 -0.17399,-0.0779 -0.17399,-0.17399c0,-0.09609 0.0779,-0.17399 0.17399,-0.17399c0.09609,0 0.17399,0.0779 0.17399,0.17399c0,0.09609 -0.0779,0.17399 -0.17399,0.17399z" fill="#ffffff"/></g><path d="M239.73455,182.21961c-0.03947,0.05259 -0.14477,0.06309 -0.22162,0.00541c-0.07685,-0.05769 -0.09616,-0.16173 -0.05669,-0.21431c0.03947,-0.05258 0.31778,0.15632 0.27831,0.2089z" fill="#000000"/><path d="M240.16954,182.49456c0.12518,0.0662 0.19791,0.17423 0.16245,0.2413c-0.03547,0.06707 -0.16571,0.06776 -0.29089,0.00156c-0.12518,-0.0662 -0.19791,-0.17423 -0.16245,-0.2413c0.03547,-0.06707 0.16571,-0.06776 0.29089,-0.00156z" fill="#ad597c"/><path d="M238.94244,181.65207c0.12518,0.0662 0.19791,0.17423 0.16245,0.2413c-0.03547,0.06707 -0.16571,0.06776 -0.29089,0.00156c-0.12518,-0.0662 -0.19791,-0.17423 -0.16245,-0.2413c0.03547,-0.06707 0.16571,-0.06776 0.29089,-0.00156z" fill="#ad597c"/></g><g fill="#83c4ac"><path d="M241.69983,179.7275c0,0 -0.38143,-0.25959 -0.53847,-0.35745c-0.1767,-0.11012 -0.46971,-0.27081 -0.46971,-0.27081l0.08021,-0.18573c0,0 0.40004,-0.04524 0.5779,-0.0123c0.19426,0.03598 0.54283,0.21984 0.54283,0.21984l-0.19277,0.60645z"/><path d="M239.82877,180.15925l-0.35523,-0.52796c0,0 0.28296,-0.27431 0.45932,-0.36336c0.16147,-0.08153 0.8923,-0.36427 0.8923,-0.36427l-0.1115,0.20923c0,0 -0.3297,0.39688 -0.46839,0.55216c-0.12325,0.138 -0.4165,0.4942 -0.4165,0.4942z" data-paper-data="{&quot;index&quot;:null}"/><path d="M240.81534,180.83797c0,0 -0.00365,-0.60909 -0.0206,-0.91902c-0.01695,-0.30993 -0.07297,-0.79198 -0.07297,-0.79198l0.28072,0.02674c0,0 0.06909,0.31833 0.09499,0.61477c0.0259,0.29644 0.02531,0.76206 0.02531,0.76206z"/><path d="M240.36085,180.69095c0,0 -0.00058,-0.46562 0.02532,-0.76206c0.0259,-0.29644 0.12172,-0.80191 0.12172,-0.80191l0.24061,-0.05346c0,0 -0.06938,0.57561 -0.08633,0.88554c-0.01695,0.30993 -0.03397,0.94576 -0.03397,0.94576z" data-paper-data="{&quot;index&quot;:null}"/></g></g><g data-paper-data="{&quot;index&quot;:null}" stroke-linejoin="miter"><path d="M244.1483,199.40517c0,0 0.29957,0.29772 -0.77472,0.55211c-0.77524,0.1637 -2.26444,-0.14555 -3.04263,-0.56651c-0.77819,-0.42096 -1.20435,-1.18046 -1.60257,-2.04791c-0.39822,-0.86745 -0.40976,-1.53141 -0.54581,-1.93739c-0.48376,-1.44356 0.84744,-1.83438 0.84744,-1.83438c0,0 0.22772,4.18003 0.94526,4.62652c0.88528,0.55086 2.92352,1.32492 2.92352,1.32492z" fill="#947043" stroke="none" stroke-width="0" stroke-linecap="butt"/><path d="M242.6633,193.28656l0.16411,0.3227l0.01197,0.42166c0,0 0.25269,0.87053 0.39125,1.19149c0.17048,0.39493 0.35112,0.82089 0.84165,1.69949c0.33207,1.0189 0.15842,2.61046 0.15842,2.61046c0,0 -1.31742,0.28301 -2.45431,0.05224c-0.84458,-0.2693 -1.94305,-0.89739 -2.29695,-1.51219c-0.42002,-0.72967 -0.55111,-1.53039 -0.69459,-2.04218c-0.01653,-0.05894 -0.3527,-1.6085 -0.17004,-1.95838c0.18264,-0.34989 0.48072,-0.88307 0.48072,-0.88307c0,0 -0.14806,0.02074 -0.0381,-0.29656c0.02511,-0.07244 0.25716,-0.25505 0.25716,-0.25505l-0.17944,-0.07152l0.14904,-0.70641l3.0026,0.4376z" fill="#20201f" stroke="none" stroke-width="0" stroke-linecap="butt"/><path d="M238.68504,195.32239c0,0 0.55174,-1.39168 0.78707,-1.92891c0.18571,-0.42394 0.47784,-0.97265 0.47784,-0.97265" fill="none" stroke="#c8c7c6" stroke-width="0.125" stroke-linecap="round"/><path d="M239.20795,190.42141c-0.00696,-0.93489 1.29837,-1.17845 2.04544,-1.2049c0.74705,-0.02644 1.53868,0.89633 1.57269,1.07684c0.12968,0.6884 -0.17051,1.72883 -0.32058,1.88705c-0.42368,0.2965 -0.75479,0.37664 -1.85349,0.39088c-0.60374,-0.06073 -1.01773,-0.27732 -1.32649,-0.73701c-0.30876,-0.45969 -0.11203,-0.66909 -0.11756,-1.41285z" fill="#c274a1" stroke="none" stroke-width="0" stroke-linecap="butt"/><path d="M239.22609,190.48121c-0.00695,-0.93488 1.29837,-1.17845 2.04544,-1.2049c0.74706,-0.02644 1.5387,0.89633 1.5727,1.07684c0.12966,0.6884 -1.42036,0.85762 -1.89008,0.89809c-0.38518,0.0332 -1.72252,-0.02624 -1.72806,-0.77001z" fill="#cacacd" stroke="none" stroke-width="0" stroke-linecap="butt"/><path d="M241.8987,198.01649c0,0 0.08771,0.43733 0.16406,0.81795c0.07634,0.38062 0.01145,0.69628 -0.08764,0.72633c-0.06206,0.01881 -0.28536,0.03327 -0.41095,-0.26487c-0.07494,-0.17789 0.15154,-0.23947 0.1599,-0.47072c0.00836,-0.23125 0.17463,-0.80869 0.17463,-0.80869z" fill="#c8c7c6" stroke="none" stroke-width="0" stroke-linecap="butt"/><path d="M240.46983,198.75406c0,0 0.34487,-2.12489 2.15032,-2.38521c1.26784,-0.18281 1.56,0.92515 1.56,0.92515" fill="none" stroke="#c8c7c6" stroke-width="0.125" stroke-linecap="round"/><path d="M243.82882,198.00993c0,0 0.21254,0.56205 0.23963,0.79186c0.02709,0.22981 0.25781,0.27282 0.19755,0.4562c-0.101,0.30734 -0.32472,0.31105 -0.38811,0.29733c-0.10121,-0.02192 -0.19148,-0.33128 -0.14625,-0.71684c0.04523,-0.38556 0.0972,-0.82855 0.0972,-0.82855z" data-paper-data="{&quot;index&quot;:null}" fill="#c8c7c6" stroke="none" stroke-width="0" stroke-linecap="butt"/></g><path d="M241.3525,184.5111l0.19007,3.74235l0.07649,2.30345c0,0 -0.38026,0.014 -0.61783,-0.09829c-0.23758,-0.11229 -0.57913,-0.36434 -0.57913,-0.36434l-0.20171,-2.23683l-0.1314,-3.46078z" data-paper-data="{&quot;index&quot;:null}" fill="#20201f" stroke="none" stroke-width="0" stroke-linecap="butt" stroke-linejoin="miter"/><g data-paper-data="{&quot;index&quot;:null}" stroke-linejoin="miter"><path d="M237.93298,199.20021l1.2298,0.25031c0,0 0.20029,0.37184 -0.9016,0.30353c-0.78939,-0.06832 -2.12476,-0.79641 -2.7473,-1.42509c-0.62254,-0.62868 -0.80996,-1.47917 -0.93932,-2.42485c-0.12936,-0.94568 0.05228,-1.58442 0.0399,-2.01241c-0.04403,-1.52183 1.3433,-1.50952 1.3433,-1.50952c0,0 -0.9951,4.06624 -0.43801,4.70174c0.68733,0.78407 2.41323,2.1163 2.41323,2.1163z" fill="#947043" stroke="none" stroke-width="0" stroke-linecap="butt"/><path d="M239.51726,193.16424l0.0634,0.35644l-0.11091,0.40698c0,0 -0.0108,0.90639 0.02865,1.25375c0.04854,0.42741 0.0978,0.88747 0.31225,1.8706c0.0221,1.07142 -0.60594,2.5441 -0.60594,2.5441c0,0 -1.34286,-0.11147 -2.36386,-0.66223c-0.73009,-0.5028 -1.59902,-1.42264 -1.75928,-2.11368c-0.1902,-0.82016 -0.08328,-1.62447 -0.07207,-2.15587c0.00129,-0.0612 0.12926,-1.64164 0.40559,-1.92345c0.27632,-0.28182 0.7163,-0.70556 0.7163,-0.70556c0,0 -0.14771,-0.02311 0.0496,-0.29485c0.04505,-0.06203 0.32011,-0.16945 0.32011,-0.16945l-0.15097,-0.12051l0.34763,-0.63276l2.7464,1.29011z" fill="#20201f" stroke="none" stroke-width="0" stroke-linecap="butt"/><path d="M235.11941,193.95801c0,0 0.93186,-1.17169 1.31296,-1.61751c0.30074,-0.35181 0.73953,-0.79213 0.73953,-0.79213" fill="none" stroke="#c8c7c6" stroke-width="0.125" stroke-linecap="round"/><path d="M239.34913,188.8602c0.72258,0.19148 1.21236,1.30427 1.19252,1.48688c-0.07567,0.69641 -0.66488,1.60495 -0.8544,1.71282c-0.49149,0.1608 -0.8316,0.1414 -1.88716,-0.16381c-0.56014,-0.23333 -0.89345,-0.56073 -1.05553,-1.09024c-0.16208,-0.52951 0.08696,-0.67281 0.2975,-1.38617c0.26464,-0.89668 1.58448,-0.75097 2.30707,-0.55948z" fill="#c274a1" stroke="none" stroke-width="0" stroke-linecap="butt"/><path d="M237.04206,189.48217c0.26464,-0.89667 1.58448,-0.75097 2.30707,-0.55948c0.72259,0.19149 1.21238,1.30428 1.19253,1.48689c-0.07568,0.69641 -1.60811,0.40853 -2.06936,0.31095c-0.37824,-0.08001 -1.64078,-0.52498 -1.43024,-1.23835z" fill="#cacacd" stroke="none" stroke-width="0" stroke-linecap="butt"/><path d="M237.01117,198.19196c0.0751,-0.21887 0.40179,-0.72321 0.40179,-0.72321c0,0 -0.04297,0.44396 -0.08036,0.83036c-0.03739,0.3864 -0.19109,0.66964 -0.29464,0.66964c-0.06485,0 -0.28273,-0.05097 -0.3164,-0.37272c-0.02009,-0.19198 0.21452,-0.18519 0.28962,-0.40406z" fill="#c8c7c6" stroke="none" stroke-width="0" stroke-linecap="butt"/><path d="M238.88642,197.90553c0,0 0.07877,0.59572 0.05273,0.82565c-0.02604,0.22993 0.1888,0.32443 0.0883,0.48923c-0.16843,0.27621 -0.3871,0.2288 -0.44569,0.20098c-0.09354,-0.04442 -0.11088,-0.36621 0.02108,-0.7313c0.13197,-0.36508 0.28359,-0.78455 0.28359,-0.78455z" data-paper-data="{&quot;index&quot;:null}" fill="#c8c7c6" stroke="none" stroke-width="0" stroke-linecap="butt"/><path d="M235.83154,197.75994c0,0 0.94666,-1.93337 2.74996,-1.65856c1.26634,0.19298 1.2244,1.33804 1.2244,1.33804" fill="none" stroke="#c8c7c6" stroke-width="0.125" stroke-linecap="round"/><g fill="#83c4ac" stroke="none" stroke-width="0" stroke-linecap="butt"><path d="M236.85187,191.75768l0.20306,-0.07238l0.77298,0.68687c0,0 -0.53204,0.44915 -0.66249,0.42979c-0.11055,-0.01642 -0.31355,-1.04428 -0.31355,-1.04428z"/><path d="M236.41408,191.04575c0.10429,-0.04019 0.69082,0.64778 0.69082,0.64778l-0.25702,0.13397l-0.77905,-0.24081c0,0 0.2222,-0.4935 0.34525,-0.54093z" data-paper-data="{&quot;index&quot;:null}"/><path d="M236.33115,193.49784c-0.10589,-0.03576 -0.12343,-1.08333 -0.12343,-1.08333l0.25618,-0.04488l0.59544,0.82268c0,0 -0.60325,0.3477 -0.72819,0.30552z"/><path d="M236.00236,191.5593c0.1113,-0.0102 0.48775,0.81176 0.48775,0.81176l-0.28383,0.05873l-0.68372,-0.44434c0,0 0.34847,-0.41411 0.4798,-0.42614z" data-paper-data="{&quot;index&quot;:null}"/><path d="M235.32492,193.98933l-0.06447,-0.39098l0.59495,-0.65219c0,0 0.16422,-0.37357 0.29037,-0.25724c0.12614,0.11634 -0.10679,0.42654 -0.10679,0.42654l-0.25677,0.94242z"/></g></g><path d="M240.19551,184.46634l-0.6119,4.09511l-0.30175,1.78308c0,0 -0.54939,-0.12351 -0.78808,-0.25808c-0.23869,-0.13457 -0.5154,-0.47678 -0.5154,-0.47678l0.24475,-1.33028l0.64086,-3.72209z" data-paper-data="{&quot;index&quot;:null}" fill="#20201f" stroke="none" stroke-width="0" stroke-linecap="butt" stroke-linejoin="miter"/><g data-paper-data="{&quot;index&quot;:null}" stroke-width="0" stroke-linecap="butt" stroke-linejoin="miter"><path d="M253.20068,182.9474c3.0218,-0.25178 4.05716,2.10389 4.05716,2.10389c0,0 0.01812,-0.26559 0.09008,0.45859c0.07196,0.72418 -0.00439,0.38067 -0.00439,0.38067c0,0 -2.24778,-0.21593 -4.11312,-0.52043c-2.73361,0.70677 -3.44895,1.24497 -3.44895,1.24497l-0.04074,-0.95605c0,0 1.30639,-2.53224 3.45995,-2.71166z" fill="#cacacd" stroke="none"/><path d="M253.78693,189.08603c-3.71414,0.34407 -4.02267,-2.49885 -4.02267,-2.49885c0,0 1.16611,-1.66276 3.90787,-1.90583c2.58155,-0.22887 3.70711,1.28323 3.70711,1.28323c0,0 -0.28265,2.81486 -3.59231,3.12145z" fill="#c2e266" stroke="#000000"/><path d="M253.04352,178.62752c3.55906,-0.2656 4.00834,3.60067 4.00834,3.60067l-7.37911,0.74171c0,0 -0.23982,-4.07293 3.37077,-4.34238z" fill="#c2e266" stroke="none"/><path d="M249.64863,182.71736c0,0 0.73645,-2.22988 3.58349,-2.43562c2.88036,-0.20485 3.78946,1.66192 3.78946,1.66192l0.02313,0.27873l-3.74132,-1.23059l-3.63657,2.07513z" fill="#cacacd" stroke="none"/><path d="M257.05697,182.22323l0.25987,3.09609c0,0 -2.05922,-1.42176 -3.67912,-1.2553c-1.6199,0.16646 -3.86159,2.03017 -3.86159,2.03017l-0.13443,-3.13898c0,0 1.33808,-1.95373 3.43262,-2.19947c2.93898,-0.34483 3.98265,1.46749 3.98265,1.46749z" fill="#c274a1" stroke="none"/><path d="M247.32747,185.66323l-11.1996,1.46473c0,0 -0.27017,-0.36688 -0.31926,-0.79705c-0.04909,-0.43017 0.10222,-1.1047 0.10222,-1.1047l11.18233,-1.57107c0,0 -0.02626,0.57371 0.02096,0.97842c0.04722,0.40471 0.21334,1.02969 0.21334,1.02969z" fill="#c2e266" stroke="none"/><path d="M249.84322,185.77822c0,0 -2.25509,0.18394 -2.34477,0.12114c-0.34042,-0.23838 -0.62717,-1.94088 -0.33669,-2.44867c0.17151,-0.29983 2.57137,-0.45606 2.57137,-0.45606l0.1101,2.78359z" fill="#cacacd" stroke="none"/></g><g data-paper-data="{&quot;index&quot;:null}"><g data-paper-data="{&quot;index&quot;:null}" fill="#86cbb6" stroke="none" stroke-width="0" stroke-linecap="butt" stroke-linejoin="miter"><path d="M245.7107,169.76214c-0.46636,-0.12389 -0.73107,-0.14074 -0.73107,-0.14074l-0.61586,-0.31347c0,0 0.76357,-0.36113 1.196,-0.38739c0.43243,-0.02626 1.31954,0.16046 1.31954,0.16046l-0.16933,1.01264c0,0 -0.5329,-0.20759 -0.99927,-0.33149z"/><path d="M245.74356,171.36062c0,0 -0.31797,-0.51126 -0.46648,-0.752c-0.20456,-0.3316 -0.88289,-1.33816 -0.88289,-1.33816l0.59118,0.07586c0,0 0.6048,0.59292 0.8615,0.85744c0.20593,0.2122 0.56021,0.60759 0.56021,0.60759z"/></g><g stroke="none" stroke-width="0" stroke-linecap="butt" stroke-linejoin="miter"><path d="M245.73225,166.36819c0.63842,0.54999 0.72144,0.95755 0.56182,1.85364c-0.15962,0.89609 -1.57942,1.82104 -1.57942,1.82104c0,0 -0.21627,-0.91715 -0.52636,-1.41436c-0.31009,-0.49721 -1.07701,-1.15654 -1.07701,-1.15654c0,0 0.48862,-0.6477 1.02033,-1.03508c0.4056,-0.2995 0.89465,-0.54593 1.60065,-0.0687z" data-paper-data="{&quot;index&quot;:null}" fill="#20201f"/><path d="M246.25838,167.29184c0.20684,0.66054 -0.29676,1.5865 -0.29676,1.5865l-0.731,-0.7453c0,0 0.86807,-1.35122 1.02777,-0.8412z" data-paper-data="{&quot;index&quot;:null}" fill="#b2b1b2"/></g><path d="M239.17379,166.15402c3.33819,0 6.04431,2.33386 6.04431,5.21281c0,2.87896 -2.70613,5.2128 -6.04431,5.2128c-3.33818,0 -6.0443,-2.33385 -6.0443,-5.2128c0,-2.87896 2.70612,-5.21282 6.0443,-5.21282z" fill="#f79eb4" stroke="none" stroke-width="0" stroke-linecap="butt" stroke-linejoin="miter"/><path d="M245.01835,173.11251c0.00627,-0.01611 0.03611,1.04439 -0.71892,2.38834c-1.21074,2.16933 -2.69053,2.22704 -2.69053,2.22704l0.28262,-0.91116c0,0 1.55213,-1.72427 1.9589,-2.37171c0.40676,-0.64744 0.6043,-1.81547 0.60411,-1.81476" fill="#f79eb4" stroke="#f89db5" stroke-width="0" stroke-linecap="butt" stroke-linejoin="round"/><g fill="#ffd5c5" stroke="none" stroke-width="1" stroke-linecap="round" stroke-linejoin="round"><path d="M243.53203,175.02552c0.11769,0.53465 -0.33959,0.99511 -0.73513,1.30295c-0.06472,0.05035 -0.57188,0.44252 -1.40543,0.72159c-1.04591,0.35015 -2.42657,0.15208 -2.82313,0.10525c-0.47293,-0.0559 -1.31465,-0.58396 -1.44795,-0.72743c-0.95936,-1.0326 -0.24093,-1.53174 -0.13962,-1.61022c0.04832,-0.03741 0.31888,-0.13842 0.63715,-0.0301c0.31022,0.10558 1.15869,0.57476 1.45072,0.56231c0.31377,-0.01337 2.05895,-0.60361 2.96625,-0.60243c0.18856,0.00223 0.43678,0.06523 0.58844,0.18388c0.19737,0.15447 0.49285,0.45028 0.75847,0.1947c0.04298,-0.0414 0.13736,-0.15879 0.15022,-0.10052z"/><path d=""/></g><g fill="#000000" stroke="#000000" stroke-width="0.125" stroke-linecap="butt" stroke-linejoin="round"><path d="M244.46572,173.30626c0.06242,-0.02085 0.35865,0.00962 0.799,-0.09365c0.27714,-0.07579 0.55378,-0.15415 0.82216,-0.25642c0.16067,-0.06127 0.30714,-0.16655 0.46915,-0.22066c0.00551,-0.00185 -0.34397,0.21364 -0.44996,0.26442c-0.33221,0.1592 -0.63222,0.26825 -0.9856,0.37014c-0.07759,0.02239 -0.71155,0.12907 -0.70803,0.10451"/><path d="M244.59665,172.76983c0.02558,0.02546 0.35692,0.03786 0.77433,-0.149c0.4174,-0.18686 0.99582,-0.54894 1.01418,-0.58572c0.00692,-0.01388 -0.63433,0.5123 -0.9297,0.67201c-0.29537,0.15971 -0.91388,0.29905 -0.91062,0.27614"/></g><g fill="#000000" stroke="none" stroke-width="1" stroke-linecap="round" stroke-linejoin="round"><path d="M241.86986,175.03862c0.14923,-0.10805 0.67827,-0.04953 0.76951,0.01737c0.15784,0.11573 -0.2206,0.36249 -0.33055,0.35514c-0.23909,-0.03554 -0.6353,-0.23033 -0.43896,-0.37251z"/><path d=""/></g><path d="M236.90681,172.33967c0.02047,-0.05301 -0.09977,1.8957 -0.07803,2.77616c0.04097,1.65803 0.42394,2.68636 0.42394,2.68636c0,0 -0.35774,-0.23441 -0.44345,-0.30592c-0.2648,-0.22085 -0.49846,-0.43966 -0.72366,-0.70465c-0.52966,-0.6233 -0.88739,-1.37012 -1.10908,-2.1546c-0.14774,-0.52281 -0.30777,-2.81216 -0.28494,-2.82591" fill="#f79eb4" stroke="#f89db5" stroke-width="0" stroke-linecap="butt" stroke-linejoin="round"/><path d="M234.59694,171.77963c-0.01464,0.01464 0.28029,2.81548 0.42676,3.59368c0.14646,0.7782 0.61363,1.93401 0.61363,1.93401c0,0 -0.41128,-0.06345 -0.97324,-0.69448c-0.4962,-0.55721 -0.77538,-0.83955 -1.05988,-1.88672c-0.36917,-1.35883 -0.47186,-3.22519 -0.29214,-3.58465" fill="#f79eb4" stroke="#f89db5" stroke-width="0" stroke-linecap="butt" stroke-linejoin="round"/><g stroke="none" stroke-width="1" stroke-linecap="round" stroke-linejoin="round"><path d="M242.90725,168.6485c-0.09443,-0.05592 -2.5008,-1.44681 -4.22898,-1.17164c-1.36209,0.21687 -2.08088,0.73513 -3.3219,1.62756c-0.9571,0.68823 -1.54931,2.25749 -1.58627,2.26644c-0.00265,0.00064 0.36393,-4.10309 4.06402,-4.70804c2.99355,-0.45776 5.40285,1.33186 5.50322,1.44986" fill="#20201f"/><path d="" fill="#ee1a40"/></g><path d="M237.01911,172.61761c0,0 -0.63447,-2.07933 0.5,-2.66707c2.73575,-0.72455 3.80854,2.69146 3.80854,2.69146c0,0 -2.35103,-1.67439 -2.95854,-1.67439c-0.60751,0 -1.35,1.65 -1.35,1.65z" data-paper-data="{&quot;index&quot;:null}" fill="#20201f" stroke="none" stroke-width="0" stroke-linecap="butt" stroke-linejoin="miter"/><path d="M241.53501,173.2057c0.41372,0.60664 0.61215,0.59671 0.80863,0.61427c0.33707,0.03013 0.7176,-0.2714 1.00158,-0.63715c0.40601,-0.5229 0.78897,-1.4542 1.23813,-1.45808c0.06807,-0.00059 0.11454,0.84119 -0.04066,1.41753c-0.32914,1.22225 -1.15546,2.08352 -1.30206,2.08886c-0.58573,0.02133 -0.41306,-0.51203 -1.60028,-0.45107c-0.6762,0.03473 -2.21533,0.77096 -2.8683,0.57727c-1.27143,-0.58991 -1.59567,-1.66258 -1.6902,-2.37548c-0.28408,-2.14228 1.02378,-2.72666 1.46832,-2.67571c2.04647,0.23452 2.33585,1.94796 2.98484,2.89957z" fill="#ffffff" stroke="none" stroke-width="0" stroke-linecap="butt" stroke-linejoin="miter"/><g fill="#000000" stroke="#000000" stroke-width="0.125" stroke-linecap="butt" stroke-linejoin="round"><path d="M237.30075,171.18235c-0.02443,0.03602 -0.17767,0.04892 -0.36822,-0.0353c-1.2234,-0.54065 -1.37931,-0.92237 -1.37931,-0.92237c0,0 0.41695,0.51644 1.28479,0.7476c0.169,0.04501 0.39449,0.06642 0.44337,0.0638c0.04663,-0.0025 0.08706,-0.03774 0.13643,-0.01964"/><path d="M237.0297,171.97586c0,0 -0.0365,0.04303 -0.16777,0.08602c-0.24342,0.07973 -0.86342,0.07606 -1.15066,0.03326c-0.68491,-0.10208 -1.06852,-0.33041 -1.06852,-0.33041c0,0 0.77457,0.22285 1.02076,0.26251c0.74294,0.11548 1.23233,-0.17059 1.29821,-0.21882c0.02904,-0.02124 0.08987,-0.08021 0.12357,-0.08405"/></g><g stroke="none" stroke-linecap="butt" stroke-linejoin="miter"><path d="M240.13385,172.35858c0.23265,0.01501 0.38365,0.61015 0.33726,1.32928c-0.0464,0.71912 -0.27263,1.28991 -0.50528,1.27491c-0.23265,-0.01501 -0.38364,-0.61014 -0.33725,-1.32927c0.04639,-0.71913 0.27262,-1.28992 0.50527,-1.27492z" fill="#169c5b" stroke-width="NaN"/><path d="M240.08094,173.2781c0.10223,0.00659 0.16938,0.25544 0.15001,0.5558c-0.01936,0.30037 -0.11795,0.53853 -0.22018,0.53193c-0.10223,-0.00659 -0.16938,-0.25544 -0.15001,-0.5558c0.01936,-0.30037 0.11795,-0.53853 0.22018,-0.53193z" fill="#000000" stroke-width="0"/><path d="M239.9814,173.13201c0.01961,-0.30389 0.13552,-0.54379 0.2589,-0.53583c0.12337,0.00796 0.2075,0.26076 0.18789,0.56466c-0.01961,0.3039 -0.13552,0.54379 -0.2589,0.53583c-0.12337,-0.00796 -0.2075,-0.26075 -0.18789,-0.56465z" fill="#ffffff" stroke-width="0"/></g><g stroke="none" stroke-linecap="butt" stroke-linejoin="miter"><path d="M243.04538,174.12121c0.03272,-0.50723 0.19227,-0.90982 0.35638,-0.89924c0.1641,0.01058 0.27059,0.43035 0.23788,0.93758c-0.03273,0.50723 -0.19228,0.90983 -0.35639,0.89925c-0.1641,-0.01058 -0.27058,-0.43035 -0.23787,-0.93758z" fill="#169c5b" stroke-width="NaN"/><path d="M243.20914,174.24573c0.01367,-0.21186 0.08319,-0.37983 0.1553,-0.37517c0.07212,0.00465 0.1195,0.18016 0.10582,0.39202c-0.01368,0.21186 -0.0832,0.37984 -0.15531,0.37518c-0.07212,-0.00466 -0.1195,-0.18017 -0.10582,-0.39203z" fill="#000000" stroke-width="0"/><path d="M243.47685,173.38955c0.08703,0.00562 0.14635,0.18393 0.13253,0.39828c-0.01384,0.21434 -0.09559,0.38355 -0.18262,0.37793c-0.08702,-0.00562 -0.14634,-0.18391 -0.13252,-0.39826c0.01384,-0.21434 0.09558,-0.38357 0.18261,-0.37795z" fill="#ffffff" stroke-width="0"/></g><path d="M239.04846,176.26431c0,0 -0.57398,-0.00654 -0.77221,-0.02805c-0.19823,-0.02151 -0.52892,-0.16975 -0.52892,-0.16975" data-paper-data="{&quot;index&quot;:null}" fill="none" stroke="#000000" stroke-width="0.125" stroke-linecap="round" stroke-linejoin="miter"/><g fill="#86cbb6" stroke="none" stroke-width="0" stroke-linecap="butt" stroke-linejoin="miter"><path d="M235.35226,169.15438c0,0 -0.31642,0.02014 -0.8739,0.16824c-0.55748,0.1481 -1.19449,0.39625 -1.19449,0.39625l-0.20241,-1.21048c0,0 1.06042,-0.22319 1.57734,-0.1918c0.51691,0.03139 1.42965,0.46307 1.42965,0.46307l-0.73618,0.37472z"/><path d="M233.64595,170.57678c0,0 0.4235,-0.47264 0.66965,-0.7263c0.30684,-0.3162 1.0298,-1.02495 1.0298,-1.02495l0.70668,-0.09067c0,0 -0.81086,1.20321 -1.05538,1.59959c-0.17752,0.28778 -0.55761,0.89892 -0.55761,0.89892z"/></g><path d="M236.67579,165.34099c1.12094,-0.31832 1.65094,0.21068 2.04987,0.773c0.52522,0.73033 0.88323,1.78041 0.88323,1.78041c0,0 -1.12859,0.31778 -2.03901,0.7533c-1.55741,0.74503 -1.8449,1.10795 -1.8449,1.10795c0,0 -0.74626,-1.01461 -0.57082,-2.2468c0.17544,-1.23219 0.45739,-1.72615 1.52163,-2.16786z" fill="#20201f" stroke="none" stroke-width="0" stroke-linecap="butt" stroke-linejoin="miter"/><path d="M237.16661,166.43033c1.01638,-0.28143 1.4572,0.95312 1.4572,0.95312c0,0 -0.64191,0.09705 -1.18246,0.26778c-0.92468,0.29207 -1.12395,0.46227 -1.12395,0.46227c0,0 -0.22236,-1.38646 0.84921,-1.68317z" fill="#b2b1b2" stroke="none" stroke-width="0" stroke-linecap="butt" stroke-linejoin="miter"/></g><g data-paper-data="{&quot;index&quot;:null}" stroke="none" stroke-width="0" stroke-linecap="butt" stroke-linejoin="miter"><path d="M241.93935,184.22207c0,1.03833 -1.1965,1.88007 -2.67246,1.88007c-1.47595,0 -2.67245,-0.84173 -2.67245,-1.88007c0,-1.03833 1.1965,-1.88007 2.67245,-1.88007c1.47595,0 2.67246,0.84174 2.67246,1.88007z" fill="#20201f"/><path d="M238.85178,178.00073c0.35166,1.12912 0.56138,2.49306 0.66243,3.39924c0.14448,1.29558 0.31117,2.44527 0.31117,2.44527l-1.21511,0.1108c0,0 -0.15327,-2.04802 -0.21156,-2.57069c-0.09561,-0.85735 -0.26125,-1.93894 -0.47647,-3.17148c-0.05392,-0.30884 0.07601,-0.51614 0.3887,-0.58401c0.21008,-0.04559 0.4244,-0.00301 0.54084,0.37088z" fill="#fed5c7"/><path d="M238.13457,180.58181l-0.16334,-1.12889l1.43836,-0.10274l0.19759,1.12889z" fill="#83c4ac"/><path d="M239.64187,178.15802c0.16264,1.08881 -0.3507,1.41861 -0.96353,1.47468c-0.61283,0.05608 -1.11228,-0.10747 -1.25574,-1.27161c-0.08069,-0.65481 0.3507,-1.2311 0.96353,-1.28717c0.61283,-0.05607 1.15818,0.431 1.25574,1.08411z" fill="#20201f"/><path d="M239.64772,182.0751l-1.13463,0.13053l-0.65248,-0.11696l0.27398,-1.5411l1.50685,-0.10274l0.51369,1.40411z" fill="#bebec0"/><g><path d="M240.55972,184.61867c0,0 0.8121,1.24427 1.18389,2.05015c0.05923,0.1284 -0.17523,1.20005 -0.35111,1.66237c-0.09606,0.25251 -0.27199,0.72413 -0.72571,0.73794c-0.11567,0.00352 -0.61728,-0.25497 -0.61728,-0.25497l-0.33971,0.27586c0,0 -0.26055,0.00725 -0.39842,-0.0696c-0.13786,-0.07685 -0.3197,-0.30785 -0.3197,-0.30785c0,0 -0.17866,0.01297 -0.30213,0.04791c-0.40301,0.11407 -0.54255,-0.25307 -0.54255,-0.25307c0,0 -0.28288,0.11622 -0.4989,0.06678c-0.34246,-0.07837 -0.69365,-0.36027 -0.82421,-0.56681c-0.22178,-0.35083 -0.59197,-1.44708 -0.31978,-1.72152c0.42392,-0.42744 0.88586,0.15261 0.88586,0.15261c0,0 -0.09141,-0.62173 0.05408,-0.97319c0.22401,-0.54119 0.55766,-0.72209 0.55766,-0.72209l2.55803,-0.12452z" fill="#20201f"/><path d="M236.56073,187.4353c-0.22178,-0.35083 -0.32881,-0.875 -0.05662,-1.14944c0.42392,-0.42744 0.88586,0.15261 0.88586,0.15261c0,0 -0.69868,1.20337 -0.82924,0.99683z" fill="#c0c2c6"/></g></g><path d="M243.22005,169.75011c-0.0227,0.01843 0.64581,0.25651 2.42814,0.69208c0.31763,0.07944 1.29293,0.4403 1.55786,1.18672c0.32256,0.67883 1.16889,1.15653 1.15271,1.15488c-0.02322,-0.00244 -1.79788,-0.6567 -2.83728,-1.0521c-0.56753,-0.2159 -2.07127,-0.86084 -2.10115,-0.83659" data-paper-data="{&quot;index&quot;:null}" fill="#f79eb4" stroke="#f89db5" stroke-width="0" stroke-linecap="butt" stroke-linejoin="round"/><path d="M242.37261,169.788c0.00908,-0.08308 1.30023,-0.54945 1.58125,-0.80265c0.28102,-0.2532 0.78405,-0.15479 1.38858,-0.18624c2.05717,0.09193 3.33454,0.33995 3.33454,0.33995c0,0 -1.91287,0.5091 -2.66113,0.64998c-1.03812,0.19546 -2.68332,-0.12 -2.78726,-0.03653" data-paper-data="{&quot;index&quot;:null}" fill="#f79eb4" stroke="#f89db5" stroke-width="0" stroke-linecap="butt" stroke-linejoin="round"/><path d="M243.3572,170.98496c-0.04066,-0.02975 0.49353,0.35444 1.35336,0.85294c0.24701,0.14321 0.87026,0.98753 0.85318,1.13759c0.0252,0.60993 -0.41405,2.21354 -0.41245,2.21239c0.03485,-0.02475 -0.11932,-1.09189 -0.77563,-1.94737c-0.22239,-0.28642 -0.89668,-1.23992 -1.01174,-1.32421" data-paper-data="{&quot;index&quot;:null}" fill="#f79eb4" stroke="#f89db5" stroke-width="0" stroke-linecap="butt" stroke-linejoin="round"/></g></g></svg>