<svg version="1.1" xmlns="http://www.w3.org/2000/svg" xmlns:xlink="http://www.w3.org/1999/xlink" width="48.4225" height="16.32055" viewBox="0,0,48.4225,16.32055"><g transform="translate(-215.78875,-171.83972)"><g data-paper-data="{&quot;isPaintingLayer&quot;:true}" fill-rule="nonzero" stroke="none" stroke-width="0.26458" stroke-linecap="butt" stroke-linejoin="miter" stroke-miterlimit="10" stroke-dasharray="" stroke-dashoffset="0" style="mix-blend-mode: normal"><g><path d="M260.00341,187.42694l-14.21466,-6.23488v-2.80569l14.21466,-6.54662v4.05267l-8.81309,3.74093l8.81309,3.74093z" fill="#ff0000"/><path d="M264.21125,188.16028l-13.43035,-5.37214v-2.41745l13.43035,-5.64074v3.49188l-8.32682,3.22328l8.32682,3.22328z" fill="#71ff33"/><path d="M245.00341,187.42693l-14.21466,-6.23488v-2.80569l14.21466,-6.54662v4.05267l-8.81309,3.74093l8.81309,3.74093z" fill="#ff0000"/><path d="M249.21125,188.16026l-13.43035,-5.37214v-2.41745l13.43035,-5.64074v3.49188l-8.32682,3.22328l8.32682,3.22328z" fill="#71ff33"/><path d="M230.00341,187.42691l-14.21466,-6.23488v-2.80569l14.21466,-6.54662v4.05267l-8.81309,3.74093l8.81309,3.74093z" fill="#ff0000"/><path d="M234.21125,188.16025l-13.43035,-5.37214v-2.41745l13.43035,-5.64074v3.49188l-8.32682,3.22328l8.32682,3.22328z" fill="#71ff33"/></g></g></g></svg>