<svg version="1.1" xmlns="http://www.w3.org/2000/svg" xmlns:xlink="http://www.w3.org/1999/xlink" width="21.95735" height="43.41032" viewBox="0,0,21.95735,43.41032"><g transform="translate(-228.55062,-158.04537)"><g data-paper-data="{&quot;isPaintingLayer&quot;:true}" fill-rule="nonzero" stroke-linejoin="miter" stroke-miterlimit="10" stroke-dasharray="" stroke-dashoffset="0" style="mix-blend-mode: normal"><g><path d="M240.00063,179.12697c0.0738,0.26232 1.07861,2.3928 1.07861,2.3928l1.34688,2.68454l-0.86215,0.5458l-1.43396,-2.79269c0,0 -0.9885,-1.82594 -1.19965,-2.57649c-0.21115,-0.75055 -0.15625,-0.85308 0.13443,-0.9194c0.2907,-0.06634 0.7247,-0.08512 0.93585,0.66543z" data-paper-data="{&quot;index&quot;:null}" fill="#111115" stroke="none" stroke-width="0" stroke-linecap="butt"/><g><g><path d="M241.50438,188.85329c-0.26068,-0.48189 -0.06362,-1.21091 -0.07736,-2.04816c-0.01025,-0.62465 0.53747,-1.1623 0.96202,-1.39195c0.90646,-0.49036 1.97266,-0.73699 2.463,0.16946c0.16181,0.29911 0.55017,0.88782 0.92338,1.44227c0.36818,0.54696 0.51858,0.99939 0.22915,1.19164c-0.37186,0.24702 -0.58692,-0.00702 -0.58692,-0.00702c0,0 0.01059,0.40655 -0.17028,0.52016c-0.18088,0.11361 -0.63993,-0.0119 -0.63993,-0.0119c0,0 -0.06272,0.37033 -0.28033,0.51054c-0.21764,0.14021 -0.50359,-0.0037 -0.50359,-0.0037c0,0 0.00884,0.35872 -0.2757,0.51745c-0.28454,0.15872 -0.53517,-0.14146 -0.53517,-0.14146c0,0 0.13141,0.2641 -0.04812,0.37576c-0.17952,0.11164 -0.04346,0.02375 -0.17165,0.03021c-0.10559,0.00533 -1.15125,-0.89966 -1.28846,-1.15329z" fill="#747875" stroke="none" stroke-width="0" stroke-linecap="butt"/><path d="M243.02574,189.75472c0,0 -0.0137,-0.46898 -0.17556,-0.8162c-0.16186,-0.34722 -0.53289,-0.65894 -0.49203,-0.84067c0.08636,-0.38415 0.66044,-0.70325 0.66044,-0.70325" fill="none" stroke="#000000" stroke-width="0.125" stroke-linecap="round"/></g><path d="M242.78329,185.5854c-0.33623,0.15065 -1.45962,0.70036 -1.60822,0.44378c-0.12243,-0.2575 0.0372,-0.6506 0.0372,-0.6506c0,0 -0.4395,0.02683 -0.51918,-0.23698c-0.10342,-0.34226 0.67232,-0.93389 1.13202,-1.1729c0.4597,-0.23899 1.05283,-0.37777 1.32351,-0.23767c0.68234,0.3532 0.27674,0.58376 0.27674,0.58376c0,0 0.44027,-0.2126 0.64344,0.40951c0.10011,0.30653 -0.90763,0.69183 -1.28551,0.86114z" fill="#747875" stroke="none" stroke-width="0" stroke-linecap="butt"/></g></g><g stroke="none" stroke-width="0" stroke-linecap="butt"><path d="M243.09124,198.07351c1.44801,-2.27757 1.78158,-6.16945 2.51968,-5.70017c0.73809,0.46927 -0.07437,2.52263 -2.03317,6.18751c-1.2722,2.38024 -3.00704,2.46492 -3.74515,1.99566c-0.73811,-0.46928 1.81062,-0.20542 3.25864,-2.48298z" fill="#310808"/><path d="M239.68977,200.51526c-0.99894,-0.4595 -0.5793,-3.8488 0.45456,-6.09641c0.57647,-1.25325 1.75317,-2.92093 2.91413,-3.16057c0.92112,-0.19013 1.99866,0.76721 2.43449,0.9833c0.62324,0.30902 -0.51751,2.88635 -1.83717,5.62984c-1.07242,2.22947 -2.96709,3.10333 -3.96603,2.64384z" fill="#6b1c27"/><path d="M244.20638,196.66822c0,0 -1.56426,-1.04649 -2.67621,-1.30679c-1.42134,-0.33273 -2.12461,1.26787 -2.12461,1.26787l0.54092,-1.8226c0,0 0.68677,-1.56849 2.49464,-1.1058c1.18205,0.30251 2.57887,1.17819 2.57887,1.17819z" fill="#747875"/></g><g stroke="none" stroke-width="0" stroke-linecap="butt"><g><path d="M242.64226,201.28434c-0.76844,-0.41774 1.79236,-0.32864 3.08139,-2.69982c1.28902,-2.37118 1.35592,-6.27674 2.12436,-5.859c0.76844,0.41774 0.09816,2.52181 -1.60571,6.31196c-1.10662,2.4616 -2.83162,2.66461 -3.60006,2.24686z" fill="#310808"/><path d="M242.49691,201.25296c-1.028,-0.39016 -0.8409,-3.80022 0.037,-6.11323c0.48952,-1.28972 1.54953,-3.0339 2.6914,-3.35228c0.90599,-0.25262 2.04643,0.62887 2.49599,0.81469c0.6429,0.26573 -0.31909,2.91496 -1.44826,5.7422c-0.9176,2.29753 -2.74813,3.29879 -3.77612,2.90863z" fill="#6b1c27"/><path d="M246.74016,197.10634c0,0 -1.63208,-0.93717 -2.75922,-1.1209c-1.44075,-0.23484 -2.03303,1.41006 -2.03303,1.41006l0.41512,-1.8553c0,0 0.578,-1.61174 2.41327,-1.27364c1.19995,0.22105 2.65334,0.99924 2.65334,0.99924z" fill="#747875"/></g><path d="M245.67193,196.54994c-0.81328,-0.36001 -0.90719,-0.5302 -0.56647,-1.23163c0.28703,-0.5909 0.53475,-0.80333 1.3171,-0.45601c0.82713,0.36718 0.90507,0.39098 0.59115,1.15817c-0.34466,0.84228 -0.54655,0.89339 -1.34176,0.52947z" fill="#b29540"/><path d="M245.87578,196.13029c-0.40342,-0.17858 -0.45002,-0.26302 -0.28101,-0.61096c0.14239,-0.29313 0.26526,-0.3985 0.65336,-0.22622c0.4103,0.18214 0.44897,0.19396 0.29325,0.57452c-0.17098,0.41782 -0.27113,0.44317 -0.6656,0.26265z" fill="#747875"/></g><path d="M247.58283,176.43145c-1.69825,1.41225 -5.3568,1.82643 -5.3568,1.82643l4.39943,-5.21607l3.88251,-0.82141c0,0 -1.22689,2.79881 -2.92514,4.21106z" data-paper-data="{&quot;index&quot;:null}" fill="#0d0a0e" stroke="none" stroke-width="0" stroke-linecap="butt"/><g data-paper-data="{&quot;index&quot;:null}" fill="#0d0a0e" stroke-width="0"><path d="M240.14353,178.19867c-2.8741,-0.59534 -4.72143,-3.40789 -4.12608,-6.28199c0.59533,-2.8741 3.40789,-4.72144 6.28199,-4.12609c2.8741,0.59534 4.72143,3.4079 4.12608,6.282c-0.59534,2.8741 -3.40789,4.72143 -6.28199,4.12608z" stroke="none" stroke-linecap="butt"/><path d="M238.2418,177.38668c0,0 -3.33955,-1.64812 -5.09296,-3.18864c-1.75341,-1.54052 -4.59822,-6.50023 -4.59822,-6.50023c0,0 2.66768,1.16042 3.82224,1.54534c1.15453,0.38492 2.51963,0.63339 2.51963,0.63339c0,0 -0.4659,-0.79191 -1.11443,-4.32159c-0.75587,-4.11368 0.54146,-6.80769 0.54146,-6.80769c0,0 0.23279,1.89151 2.36292,3.64543c2.08476,1.71658 3.70692,2.04191 3.70692,2.04191l0.63225,-6.38923c0,0 3.15202,2.38076 4.88522,7.16255c1.56604,4.32057 0.77005,8.08505 0.77005,8.08505" stroke="#000000" stroke-linecap="round"/></g><path d="M245.19979,178.15893c1.65475,0.6954 3.69471,2.89491 3.69471,2.89491c0,0 -2.34829,-0.51452 -3.85501,-0.52236c-1.50672,-0.00785 -2.25708,-0.04933 -2.25708,-0.04933l-0.89178,-2.76963c0,0 1.65441,-0.24902 3.30915,0.4464z" fill="#0d0a0e" stroke="none" stroke-width="0" stroke-linecap="butt"/><path d="M241.85933,191.48891l-1.89439,-8.15567l1.54059,-0.29384c0,0 -0.047,1.49506 0.27625,3.10666c0.32327,1.6116 1.1555,4.0312 1.1555,4.0312z" data-paper-data="{&quot;index&quot;:null}" fill="#0d0a0e" stroke="none" stroke-width="0" stroke-linecap="butt"/><path d="M241.19263,184.12934l1.17473,-1.34088c0,0 0.04765,0.95926 0.55708,1.53485c0.61156,0.691 2.86217,2.32849 2.86217,2.32849c0,0 -2.26166,-0.41299 -3.30883,-0.98799c-1.04718,-0.57498 -1.28513,-1.53447 -1.28513,-1.53447z" fill="#0d0a0e" stroke="none" stroke-width="0" stroke-linecap="butt"/><path d="M240.98053,192.67803c-0.09059,-0.50988 0.21632,-1.08658 0.21632,-1.08658c0,0 -0.57152,-0.21014 -0.60557,-0.70592c-0.04416,-0.64321 1.10559,-1.19939 1.75805,-1.33887c0.65246,-0.13952 1.45035,-0.03056 1.76181,0.36568c0.78511,0.99885 0.20429,1.15547 0.20429,1.15547c0,0 0.62064,-0.1058 0.72053,1.07211c0.0492,0.58042 -1.12157,0.8341 -2.00774,0.9517c-0.88618,0.11761 -1.92325,0.10998 -2.04767,-0.4136z" fill="#747875" stroke="none" stroke-width="0" stroke-linecap="butt"/><path d="M238.64929,181.9215c-0.50543,-1.51781 -0.45964,-3.27279 0.8612,-3.71262c1.32084,-0.43983 3.10969,-1.85932 3.6151,-0.3415c0.30206,0.90715 -0.07747,2.51343 0.1423,3.52813c0.39407,1.81949 -0.16128,2.32778 -0.9483,2.58984c-1.32083,0.43983 -3.16487,-0.54604 -3.67029,-2.06385z" fill="#0d0a0e" stroke="none" stroke-width="0" stroke-linecap="butt"/><path d="M238.41867,181.64873c-0.52119,-1.42521 -0.11317,-1.80689 0.30148,-2.66396c0.21026,-0.43458 1.40143,-0.6205 2.30041,0.11958c0.82966,0.68301 1.18652,4.2634 0.07553,4.49605c-1.23798,0.25921 -2.30835,-0.9424 -2.67743,-1.95166z" fill="#111115" stroke="none" stroke-width="0" stroke-linecap="butt"/><path d="M244.67347,192.44454l-3.16412,-8.59243l1.62312,-0.58717c0,0 0.15434,1.64317 0.72443,3.34988c0.57011,1.70672 1.80055,4.20926 1.80055,4.20926z" data-paper-data="{&quot;index&quot;:null}" fill="#0d0a0e" stroke="none" stroke-width="0" stroke-linecap="butt"/><path d="M237.33355,168.47549c0,0 0.00327,-1.06094 0.17761,-1.95033c0.17437,-0.8894 0.35942,-2.10599 0.63754,-2.20776c0.28584,-0.1046 0.43752,-0.04056 1.44815,0.89644c1.01059,0.93697 2.34666,2.59072 2.34666,2.59072" data-paper-data="{&quot;index&quot;:null}" fill="#0d0a0e" stroke="#000000" stroke-width="0.125" stroke-linecap="round"/><path d="M245.46906,168.44452c0,0 0.99867,0.11344 1.5848,0.10644c0.53794,-0.00641 1.56566,-0.2314 1.79985,-0.14682c0.28063,0.10133 -0.43501,1.35541 -0.79896,1.97858c-0.41649,0.7132 -1.5637,2.06708 -1.5637,2.06708" data-paper-data="{&quot;index&quot;:null}" fill="#0d0a0e" stroke="#000000" stroke-width="0" stroke-linecap="round"/><path d="M245.75135,174.29419c0.46505,-0.75832 1.09561,-1.90616 1.09561,-1.90616c0,0 -0.13368,1.15213 -0.5005,2.16379c-0.36681,1.01167 -1.40493,2.37265 -1.40493,2.37265c0,0 -0.60629,-0.69188 -0.73453,-0.75185c-1.04016,-0.48643 -2.39827,0.60571 -3.55124,0.10031c-1.15301,-0.50538 -1.5794,-1.55287 -1.84415,-2.46049c-0.26474,-0.90764 0.12702,-2.33117 0.53706,-2.91701c0.55657,-0.67326 0.33847,-0.56874 0.64726,-0.46525c0.35907,0.12033 1.43659,2.11697 2.02381,3.06286c0.58718,0.94589 0.98637,1.80316 1.68355,2.37509c0.18422,0.29432 0.44403,-0.16769 0.44403,-0.16769c0,0 0.14993,0.46485 0.27405,0.32653c0.38964,-0.43421 0.86486,-0.97446 1.32992,-1.73279z" data-paper-data="{&quot;index&quot;:null}" fill="#78828a" stroke="#000000" stroke-width="0" stroke-linecap="butt"/><path d="M244.85158,177.06709c-0.06405,0.38823 -0.45701,0.6809 -1.43255,0.97484c-0.80114,0.2414 -2.12309,0.35599 -3.03264,0.19233c-3.77646,-0.88437 -3.81583,-3.89395 -2.44092,-3.97479c1.71273,-0.1274 1.8119,1.73148 3.25334,1.96984c0.95936,0.15866 2.08824,-0.4028 2.722,-0.20027c0.82011,0.24881 0.97031,0.79827 0.93076,1.03807z" data-paper-data="{&quot;index&quot;:null}" fill="#111115" stroke="#000000" stroke-width="0" stroke-linecap="butt"/><path d="M246.53578,171.21115c0,0 0.85689,-0.39323 0.9568,0.12763c0.06544,0.34108 -0.77684,2.22663 -0.77684,2.22663" data-paper-data="{&quot;index&quot;:null}" fill="#0d0a0e" stroke="#000000" stroke-width="0.125" stroke-linecap="round"/><path d="M246.30476,176.3078c0.06218,0.47034 -0.28668,0.74465 -1.14418,0.78404c-0.54149,0.02487 -1.2744,-0.10394 -1.19582,-0.48333c0.04739,-0.22878 0.7008,-0.16844 1.18561,-0.22567c0.48484,-0.05723 1.13544,-0.2185 1.15441,-0.07505z" data-paper-data="{&quot;index&quot;:null}" fill="#0d1114" stroke="none" stroke-width="0" stroke-linecap="butt"/><path d="M245.70252,176.50888c-0.00156,0.07793 -0.19235,0.13733 -0.42614,0.13267c-0.23378,-0.00464 -0.42206,-0.07161 -0.42051,-0.14954c0.00156,-0.07793 0.19235,-0.13733 0.42614,-0.13267c0.23378,0.00464 0.42206,0.07161 0.42051,0.14954z" data-paper-data="{&quot;index&quot;:null}" fill="#78828a" stroke="none" stroke-width="0" stroke-linecap="butt"/><path d="M240.90567,167.53912c0,0 -0.54825,0.03476 -1.59024,0.31758c-1.13978,0.30935 -1.31399,0.71435 -1.31399,0.71435c0,0 0.04048,-3.03495 0.53766,-3.05956c0.71338,-0.03531 2.36658,2.02762 2.36658,2.02762z" data-paper-data="{&quot;index&quot;:null}" fill="#111115" stroke="none" stroke-width="0" stroke-linecap="butt"/><path d="M241.94156,178.18446c0.20094,-0.21847 0.3195,-0.21371 0.88888,0.35317c0.56939,0.56687 1.72344,2.35819 1.72344,2.35819l1.80299,2.67207l-0.90859,0.46952l-1.74852,-2.54121c0,0 -1.41888,-1.96109 -1.61787,-2.15923c-0.56939,-0.56687 -0.34126,-0.93405 -0.14031,-1.15251z" data-paper-data="{&quot;index&quot;:null}" fill="#111115" stroke="none" stroke-width="0" stroke-linecap="butt"/><g fill="#747875" stroke="none" stroke-width="0" stroke-linecap="butt"><g><path d="M245.6186,188.32533c-0.29507,-0.46164 -0.15163,-1.20307 -0.22628,-2.03708c-0.05568,-0.62224 0.45139,-1.19834 0.8581,-1.45829c0.86835,-0.55505 1.91376,-0.87868 2.4688,-0.01031c0.18317,0.28654 0.61335,0.8454 1.02595,1.37123c0.40705,0.5187 0.58998,0.95897 0.31531,1.1718c-0.35289,0.27345 -0.58587,0.03574 -0.58587,0.03574c0,0 0.04015,0.4047 -0.13195,0.53118c-0.17213,0.12648 -0.63909,0.03474 -0.63909,0.03474c0,0 -0.03557,0.37391 -0.24243,0.52959c-0.20687,0.15567 -0.50252,0.03298 -0.50252,0.03298c0,0 0.03495,0.35712 -0.23731,0.53614c-0.27223,0.17902 -0.54406,-0.10213 -0.54406,-0.10213c0,0 0.15029,0.25383 -0.02063,0.37826c-0.17091,0.12444 -0.04162,0.02686 -0.169,0.04263c-0.10494,0.013 -1.21372,-0.81345 -1.36901,-1.0564z"/></g><path d="M246.65617,184.97296c-0.32437,0.17473 -1.40476,0.80479 -1.57163,0.55971c-0.14086,-0.24791 -0.01028,-0.65159 -0.01028,-0.65159c0,0 -0.43638,0.05877 -0.53506,-0.19854c-0.12804,-0.33383 0.60255,-0.98038 1.04362,-1.25221c0.44109,-0.27183 1.02253,-0.45342 1.3027,-0.33339c0.70625,0.30256 0.3185,0.56206 0.3185,0.56206c0,0 0.42364,-0.24407 0.67154,0.36156c0.12215,0.29843 -0.85485,0.75608 -1.21939,0.95247z"/></g><path d="M243.683,193.11484c-0.12521,-0.50249 0.14157,-1.09881 0.14157,-1.09881c0,0 -0.58455,-0.17061 -0.6524,-0.66289c-0.08801,-0.63868 1.02106,-1.27211 1.66247,-1.45585c0.6414,-0.18376 1.44489,-0.12958 1.78267,0.24446c0.85151,0.94288 0.28277,1.13881 0.28277,1.13881c0,0 0.61195,-0.14795 0.79209,1.02039c0.08875,0.57571 -1.06195,0.90878 -1.93804,1.08664c-0.87607,0.17787 -1.91124,0.2411 -2.07114,-0.27273z" fill="#747875" stroke="none" stroke-width="0" stroke-linecap="butt"/></g></g></svg>