<svg version="1.1" xmlns="http://www.w3.org/2000/svg" xmlns:xlink="http://www.w3.org/1999/xlink" width="41.30404" height="43.71375" viewBox="0,0,41.30404,43.71375"><defs><radialGradient cx="223.81021" cy="183.59013" r="15.77076" gradientUnits="userSpaceOnUse" id="color-1"><stop offset="0" stop-color="#b7be45" stop-opacity="0.50196"/><stop offset="1" stop-color="#c2e266"/></radialGradient></defs><g transform="translate(-213.14091,-160.36308)"><g data-paper-data="{&quot;isPaintingLayer&quot;:true}" fill-rule="nonzero" stroke-miterlimit="10" stroke-dasharray="" stroke-dashoffset="0" style="mix-blend-mode: normal"><path d="M228.0583,202.94762c-17.32203,-11.97626 -18.23836,-26.87517 -9.4882,-39.35229c0.46921,-0.66906 1.05092,11.29997 4.75383,19.27017c3.48265,7.49609 10.11314,11.00375 10.11314,11.00375c0,0 1.11408,1.44164 0.95719,1.99334c-0.57596,2.02525 -0.99106,5.96374 -3.04208,6.86472c-0.48865,0.21466 -2.86231,0.44555 -3.29389,0.22031z" fill="url(#color-1)" stroke="none" stroke-width="NaN" stroke-linecap="butt" stroke-linejoin="miter"/><g stroke-linejoin="miter"><path d="M251.98903,190.68322c0,0 -0.34577,-2.15267 -0.70618,-3.13108c-0.29212,-0.79302 -4.3397,-1.86152 -4.3397,-1.86152c0,0 0.652,-1.22463 1.96787,-0.45888c0.37008,0.21535 1.01797,0.36095 1.78694,0.92641c0.76896,0.56546 1.42657,1.13642 1.68145,1.98367c0.25487,0.84726 0.25649,2.36822 -0.06062,3.09433c-0.46643,1.00063 -0.69739,0.64703 -0.69739,0.64703z" fill="#947043" stroke="none" stroke-width="0" stroke-linecap="butt"/><path d="M245.0365,188.62231l0.17878,-3.02904l0.72196,-0.00308l0.03374,0.1902c0,0 0.22578,-0.19032 0.30179,-0.20025c0.33299,-0.04351 0.28272,0.0973 0.28272,0.0973c0,0 0.58246,-0.18408 0.96205,-0.29217c0.37959,-0.10813 1.82913,0.53453 1.88351,0.56265c0.47218,0.24403 1.22985,0.53438 1.85948,1.0933c0.5305,0.47094 0.92344,1.67374 1.01632,2.55536c-0.00397,1.16006 -0.54761,2.39301 -0.54761,2.39301c0,0 -1.59379,-0.15187 -2.52447,-0.68315c-0.76122,-0.6581 -1.14184,-0.92117 -1.49411,-1.168c-0.2863,-0.20063 -1.08772,-0.62417 -1.08772,-0.62417l-0.41052,-0.09701l-0.28283,-0.226z" fill="#20201f" stroke="none" stroke-width="0" stroke-linecap="butt"/><path d="M245.63058,186.35886c0,0 0.59647,-0.1751 1.04919,-0.27122c0.57373,-0.12181 2.04824,-0.38064 2.04824,-0.38064" fill="none" stroke="#c8c7c6" stroke-width="0.125" stroke-linecap="round"/><path d="M243.82259,185.22778c0.72726,0.15586 0.97214,0.00554 1.35988,0.40089c0.38773,0.39536 0.51611,0.84461 0.45347,1.44814c-0.23617,1.07312 -0.38164,1.38117 -0.7577,1.73611c-0.18532,0.11496 -1.26496,0.19851 -1.9129,-0.06774c-0.16991,-0.06983 -0.91347,-1.03173 -0.73648,-1.75799c0.17699,-0.72628 0.67957,-1.95535 1.59372,-1.75945z" fill="#c274a1" stroke="none" stroke-width="0" stroke-linecap="butt"/><path d="M243.87749,185.25765c0.72728,0.15586 0.51499,1.47758 0.40456,1.84808c-0.13464,0.45182 -0.61389,1.93559 -1.26184,1.66936c-0.1699,-0.06981 -0.91347,-1.03173 -0.73648,-1.758c0.17699,-0.72628 0.67957,-1.95535 1.59372,-1.75945z" fill="#cacacd" stroke="none" stroke-width="0" stroke-linecap="butt"/><path d="M251.5437,189.39172c0.22817,0.03859 0.33428,-0.17075 0.49334,-0.06138c0.26656,0.18329 0.20723,0.39905 0.17627,0.45602c-0.04947,0.09097 -0.37173,0.09068 -0.72904,-0.06109c-0.3573,-0.15176 -0.76786,-0.32612 -0.76786,-0.32612c0,0 0.59914,-0.04604 0.82729,-0.00745z" fill="#c8c7c6" stroke="none" stroke-width="0" stroke-linecap="butt"/><path d="M249.54739,191.48731c0,0 -1.02598,-0.51023 -0.59048,-1.71489c0.62012,-1.71547 2.77086,-1.62342 2.77086,-1.62342" fill="none" stroke="#c8c7c6" stroke-width="0.125" stroke-linecap="round"/><path d="M250.31958,191.28808c0,0 0.44435,0.03871 0.83108,0.0724c0.38675,0.0337 0.67144,0.18468 0.67245,0.28822c0.00061,0.06486 -0.04827,0.28321 -0.3697,0.31995c-0.19178,0.02192 -0.18723,-0.21274 -0.40682,-0.28574c-0.21957,-0.073 -0.72702,-0.39484 -0.72702,-0.39484z" data-paper-data="{&quot;index&quot;:null}" fill="#c8c7c6" stroke="none" stroke-width="0" stroke-linecap="butt"/></g><path d="M241.24673,183.0548l-0.13991,2.64585l2.1498,0.65c0,0 0.17776,0.38548 0.23967,0.64086c0.06191,0.25538 -0.0287,0.62494 -0.0287,0.62494l-2.24036,-0.54083c0,0 -1.14596,-0.22685 -1.39648,-0.94962c-0.22122,-0.63823 -0.02971,-3.165 -0.02971,-3.165z" fill="#20201f" stroke="none" stroke-width="0" stroke-linecap="butt" stroke-linejoin="miter"/><g stroke-linejoin="miter"><path d="M253.07117,192.69356c0,0 0.52835,-2.11528 0.5816,-3.15661c0.04315,-0.844 -3.25843,-3.41771 -3.25843,-3.41771c0,0 1.08094,-0.8697 1.98983,0.3517c0.25561,0.3435 0.79411,0.73209 1.27887,1.55431c0.48476,0.82223 0.86494,1.60576 0.7662,2.48498c-0.09875,0.87922 -0.69519,2.27837 -1.27223,2.82134c-0.82226,0.7367 -0.89561,0.32076 -0.89561,0.32076l0.80979,-0.9588z" fill="#947043" stroke="none" stroke-width="0" stroke-linecap="butt"/><path d="M247.48865,188.06531l1.3552,-2.71488l0.66503,0.281l-0.04375,0.18815c0,0 0.28242,-0.08622 0.35623,-0.06548c0.32328,0.09091 0.2217,0.20062 0.2217,0.20062c0,0 0.60793,0.05973 0.99944,0.10956c0.39151,0.04981 1.4717,1.21059 1.51065,1.25781c0.33822,0.41002 0.92073,0.97484 1.27994,1.7363c0.30264,0.64158 0.19108,1.90202 -0.07011,2.74914c-0.45971,1.06511 -1.44429,1.98506 -1.44429,1.98506c0,0 -1.40575,-0.7662 -2.05262,-1.62061c-0.44121,-0.90436 -0.68776,-1.2959 -0.91463,-1.66135c-0.18439,-0.29701 -0.75476,-1.00152 -0.75476,-1.00152l-0.33932,-0.25059l-0.17123,-0.31899z" fill="#20201f" stroke="none" stroke-width="0" stroke-linecap="butt"/><path d="M248.92475,186.21766c0,0 0.61727,0.07349 1.07135,0.16309c0.57541,0.11356 2.03297,0.45525 2.03297,0.45525" fill="none" stroke="#c8c7c6" stroke-width="0.125" stroke-linecap="round"/><path d="M247.70698,184.46688c0.60744,0.42923 0.89168,0.38727 1.09276,0.90324c0.20108,0.51596 0.14252,0.97949 -0.15236,1.50982c-0.63905,0.89386 -0.89388,1.11993 -1.37922,1.29845c-0.21559,0.03284 -1.24113,-0.31478 -1.73224,-0.8143c-0.12878,-0.13099 -0.43432,-1.30777 0.01395,-1.90597c0.44828,-0.59821 1.39356,-1.53076 2.15711,-0.99123z" fill="#c274a1" stroke="none" stroke-width="0" stroke-linecap="butt"/><path d="M247.74573,184.51591c0.60745,0.42924 -0.10737,1.56107 -0.35456,1.85833c-0.30143,0.36252 -1.3254,1.5384 -1.81651,1.03887c-0.12878,-0.13098 -0.43432,-1.30777 0.01396,-1.90598c0.44828,-0.59821 1.39357,-1.53075 2.15711,-0.99123z" fill="#cacacd" stroke="none" stroke-width="0" stroke-linecap="butt"/><path d="M253.16943,191.33097c0.19462,0.12519 0.37449,-0.0256 0.47774,0.1375c0.17304,0.27334 0.03368,0.4484 -0.0172,0.4886c-0.08125,0.06419 -0.37745,-0.06276 -0.64633,-0.34278c-0.26889,-0.28001 -0.57782,-0.60174 -0.57782,-0.60174c0,0 0.569,0.19321 0.7636,0.31839z" fill="#c8c7c6" stroke="none" stroke-width="0" stroke-linecap="butt"/><path d="M251.52042,192.26875c0,0 0.37902,0.23514 0.70888,0.43979c0.32987,0.20466 0.51576,0.46791 0.46989,0.56076c-0.02873,0.05815 -0.17092,0.23092 -0.4743,0.11861c-0.18102,-0.06702 -0.07103,-0.27435 -0.23401,-0.43862c-0.16297,-0.16428 -0.47047,-0.68054 -0.47047,-0.68054z" data-paper-data="{&quot;index&quot;:null}" fill="#c8c7c6" stroke="none" stroke-width="0" stroke-linecap="butt"/><path d="M250.50999,192.47301c0,0 -0.74276,-0.87248 0.13124,-1.80895c1.24461,-1.33355 3.18597,-0.40339 3.18597,-0.40339" fill="none" stroke="#c8c7c6" stroke-width="0.125" stroke-linecap="round"/><g fill="#83c4ac" stroke="none" stroke-width="0" stroke-linecap="butt"><path d="M249.70697,187.19728c-0.09036,0.09606 -0.78627,0.07345 -0.78627,0.07345l0.18072,-1.01815l0.2042,-0.06909c0,0 0.47792,0.93236 0.40135,1.01377z"/><path d="M249.20779,185.35348c0.12596,-0.03906 0.60624,0.21041 0.60624,0.21041l-0.462,0.67191l-0.28473,0.05422c0,0 0.03373,-0.90342 0.14048,-0.93653z" data-paper-data="{&quot;index&quot;:null}"/><path d="M250.79297,187.22612c-0.07189,0.11054 -0.76077,0.2117 -0.76077,0.2117l-0.04279,-1.01466l0.22883,-0.12361c0,0 0.63565,0.83286 0.57474,0.92656z"/><path d="M249.84921,185.50121c0.11052,-0.07198 0.64065,0.03693 0.64065,0.03693l-0.26103,0.77251l-0.25912,0.12987c0,0 -0.21416,-0.87832 -0.12051,-0.93932z" data-paper-data="{&quot;index&quot;:null}"/><path d="M251.5709,187.32526l-0.78571,-0.58029c0,0 -0.37508,-0.099 -0.34822,-0.26849c0.02687,-0.16949 0.38731,0.02183 0.38731,0.02183l0.87115,0.14293l0.1918,0.34674z"/></g></g><path d="M243.26306,181.78105l2.81029,2.52328l1.01673,0.89209c0,0 -0.00498,0.44006 -0.10885,0.69362c-0.10387,0.25356 -0.45839,0.69105 -0.45839,0.69105l-1.34215,-1.21205l-3.01881,-2.83392z" fill="#20201f" stroke="none" stroke-width="0" stroke-linecap="butt" stroke-linejoin="miter"/><g data-paper-data="{&quot;index&quot;:null}" stroke-width="0" stroke-linecap="butt" stroke-linejoin="miter"><g data-paper-data="{&quot;index&quot;:null}"><path d="M224.37948,174.87307c-0.65927,-0.83445 -0.51475,-2.04733 0.32276,-2.70902c0.83753,-0.6617 2.05092,-0.52164 2.71019,0.31281c0.65927,0.83445 0.51477,2.04733 -0.32275,2.70902c-0.83753,0.6617 -2.05093,0.52166 -2.7102,-0.31279z" fill="#c2e266" stroke="none"/><path d="M225.29725,174.95743c-0.4073,-0.51553 -0.31804,-1.26484 0.1994,-1.67364c0.51743,-0.40881 1.26706,-0.32229 1.67435,0.19325c0.4073,0.51553 0.31804,1.26484 -0.1994,1.67364c-0.51743,0.40881 -1.26706,0.32228 -1.67435,-0.19325z" fill="#c2e266" stroke="#000000"/><path d="M227.3051,178.07386c-0.91091,-0.59742 -0.97444,-1.94564 -0.97444,-1.94564l1.64108,-1.31551c0,0 0.24609,0.06431 1.31436,0.87988c1.1092,0.84684 1.28414,3.21605 1.28414,3.21605c0,0 -2.35422,-0.23737 -3.26515,-0.83479z" fill="#e8edf4" stroke="#000000"/><path d="M227.31935,175.63403c-0.39975,0.31873 -1.25249,0.62241 -1.25249,0.62241l-0.25152,-0.66972c0,0 0.7439,-0.07224 1.11622,-0.33359c0.37231,-0.26132 0.66687,-0.91799 0.66687,-0.91799l0.52523,0.20937c0,0 -0.34756,0.7253 -0.80431,1.08948z" fill="#dbded5" stroke="#000000"/></g><g data-paper-data="{&quot;index&quot;:null}" stroke="none"><path d="M234.39833,174.82284c0.15786,-0.12472 0.49568,0.03981 0.75455,0.36747c0.25888,0.32766 0.34077,0.69438 0.18292,0.81911c-0.15786,0.12472 -0.4957,-0.03979 -0.75457,-0.36746c-0.25888,-0.32766 -0.34077,-0.6944 -0.1829,-0.81912z" fill="#000000"/><path d="M238.77121,178.09063c0.16443,-0.12992 1.2161,0.19265 1.33001,0.33682c0.11391,0.14417 0.58625,1.30988 0.42181,1.43978c-0.16443,0.12992 -1.19474,0.51992 -1.19474,0.51992c0,0 -0.72153,-2.16663 -0.5571,-2.29654z" fill="#807d5a"/><path d="M227.78028,173.96441l0.00947,-0.20021l7.47513,1.61042l0.11434,0.30797z" fill="#6e6e73"/><path d="M230.27984,174.17379l-0.03819,0.44132l-1.76473,-0.34029l0.06201,-0.46015z" fill="#c2e266"/></g></g><g stroke-width="0" stroke-linecap="butt" stroke-linejoin="miter"><g data-paper-data="{&quot;index&quot;:null}"><path d="M242.73519,164.77512c-1.0744,0.84885 -2.63099,0.66921 -3.47673,-0.40126c-0.84574,-1.07046 -0.66037,-2.62637 0.41404,-3.47524c1.0744,-0.84885 2.63101,-0.6692 3.47673,0.40127c0.84574,1.07046 0.66036,2.62637 -0.41406,3.47524z" fill="#c2e266" stroke="none"/><path d="M242.72631,164.6173c-0.66376,0.52442 -1.62543,0.41343 -2.14793,-0.24791c-0.52251,-0.66134 -0.40798,-1.62258 0.25579,-2.147c0.66376,-0.52442 1.62543,-0.41344 2.14793,0.24789c0.52251,0.66134 0.40797,1.62259 -0.2558,2.14701z" fill="#c2e266" stroke="#000000"/><path d="M246.27554,165.90113c0.47521,1.31416 0.07268,4.32276 0.07268,4.32276c0,0 -2.90489,-0.92156 -3.63254,-2.5572c-0.70079,-1.57529 -0.708,-1.90151 -0.708,-1.90151l2.12888,-1.65765c0,0 1.66378,0.47945 2.13899,1.79362z" fill="#e8edf4" stroke="#000000"/><path d="M243.22632,165.19475c-0.59005,0.46196 -1.59843,0.6804 -1.59843,0.6804l-0.10542,-0.71765c0,0 0.90696,-0.1727 1.34362,-0.55979c0.43665,-0.38709 0.74761,-1.29405 0.74761,-1.29405l0.76116,0.5127c0,0 -0.63211,0.97409 -1.14853,1.37838z" fill="#dbded5" stroke="#000000"/></g><g data-paper-data="{&quot;index&quot;:null}" stroke="none"><path d="M242.67072,174.959c0.42444,0.20527 1.38952,1.69593 1.38952,1.69593l-2.43245,1.9465c0,0 -1.5958,-0.38202 -2.22803,-1.697c-0.46479,-0.96668 -0.05598,-2.94362 0.09751,-3.07255c0.98888,-0.83073 2.74898,0.92184 3.17343,1.12714z" fill="#c2e266"/><path d="M241.08078,174.26012c0.33209,0.42035 0.43716,0.89079 0.23465,1.05078c-0.2025,0.15999 -0.6359,-0.05105 -0.96798,-0.4714c-0.33209,-0.42035 -0.43715,-0.8908 -0.23463,-1.0508c0.2025,-0.15999 0.63588,0.05106 0.96798,0.47141z" fill="#000000"/><path d="M245.29479,178.46317c0.40972,0.75641 0.88922,2.11056 0.88922,2.11056l-0.62716,1.11069c0,0 -1.47645,0.43448 -1.93383,-0.18631c-0.2271,-0.30824 -1.91737,-2.7806 -1.91737,-2.7806l0.47953,-1.37911c0,0 0.50538,-0.33362 0.85791,-0.47517c0.35253,-0.14156 1.01095,-0.22176 1.01095,-0.22176c0,0 0.83103,1.0653 1.24075,1.82172z" fill="#20201f"/><path d="M245.59394,181.593c0,0 -0.79254,1.17008 -1.0035,1.33674c-0.21095,0.16666 -1.52558,-0.76885 -1.67171,-0.95381c-0.14613,-0.18496 -0.23655,-1.5932 -0.0256,-1.75985c0.21095,-0.16666 2.70079,1.37693 2.70079,1.37693z" fill="#c274a1"/><path d="M240.89461,175.26809l-0.3504,-0.23411l0.20889,-9.80715l0.25268,0.04761z" fill="#6e6e73"/><path d="M240.59379,166.17682l0.59267,0.05918l-0.09912,2.30343l-0.56213,-0.08332z" fill="#c2e266"/></g></g><g stroke="none" stroke-width="0" stroke-linecap="butt" stroke-linejoin="miter"><g><g><path d="M238.64325,186.82479c-0.25411,-0.81196 -0.47724,-2.21876 -0.47724,-2.21876l1.8983,-1.5569c0,0 0.35352,-0.08605 0.86085,0.15453c0.32949,0.15625 0.66443,0.65695 0.66443,0.65695c0,0 -0.04477,-0.70942 0.53149,-0.67828c0.37,0.02002 0.81201,1.03729 0.88004,1.42933c0.04005,0.23078 -0.02822,0.65704 -0.22123,0.93306c-0.12176,0.1741 -0.39757,0.27342 -0.39757,0.27342c0,0 0.13695,0.35074 -0.22286,0.52887c-0.11024,0.05459 -0.24556,0.1603 -0.24556,0.1603c0,0 0.01934,0.28115 -0.02923,0.42445c-0.04857,0.14331 -0.23842,0.30577 -0.23842,0.30577l-0.4189,0.02243c0,0 -0.19027,0.50638 -0.27473,0.57828c-0.33137,0.28204 -0.7598,0.05999 -0.99048,-0.05769c-0.4224,-0.21548 -1.27839,-0.82637 -1.31888,-0.95576z" fill="#20201f"/><path d="M236.70374,183.64936c-0.18693,-0.91977 0.44374,-1.7505 1.38924,-2.24651c0.9455,-0.49601 2.14387,-0.62073 2.30603,0.308c0.16217,0.92873 -0.51182,2.24795 -1.70449,2.87361c-1.19269,0.62568 -1.80387,-0.01533 -1.99078,-0.9351z" fill="#20201f"/><path d="M237.47426,180.69913c-0.2269,-0.84412 -0.51695,-2.13481 -0.5982,-3.26558c-0.02691,-0.37444 0.14947,-0.48742 0.35291,-0.52024c0.30282,-0.04884 0.49132,0.09072 0.55125,0.38523c0.2392,1.17534 0.46981,2.19861 0.68446,2.99723c0.13086,0.48688 0.65708,2.04733 0.65708,2.04733l-1.06486,0.82693c0,0 -0.2583,-1.26405 -0.58268,-2.47086z" fill="#fed5c7"/></g><path d="M241.4984,184.00134c0,0 -0.22744,-0.70578 0.36319,-0.82226c0.37921,-0.0748 0.75655,0.30446 0.92598,0.68335c0.09974,0.22306 -1.28918,0.13893 -1.28918,0.13893z" fill="#c0c2c6"/><path d="M240.65599,185.13809c0,0 -0.22744,-0.70578 0.36319,-0.82226c0.37921,-0.0748 0.75655,0.30446 0.92598,0.68335c0.09974,0.22306 -1.28918,0.13893 -1.28918,0.13893z" fill="#c0c2c6"/><path d="M239.8636,186.1341c0,0 -0.22744,-0.70578 0.36319,-0.82226c0.37921,-0.0748 0.75655,0.30446 0.92598,0.68335c0.09974,0.22306 -1.28918,0.13893 -1.28918,0.13893z" fill="#c0c2c6"/><path d="M238.58927,185.00043c0,0 0.04667,-0.74005 0.63896,-0.63228c0.38028,0.06917 0.59264,0.56024 0.61163,0.97484c0.0112,0.24409 -1.25057,-0.34257 -1.25057,-0.34257z" fill="#c0c2c6"/><path d="M239.15104,186.74814c0,0 -0.22744,-0.70578 0.36319,-0.82226c0.37921,-0.0748 0.75655,0.30446 0.92598,0.68335c0.09974,0.22306 -1.28918,0.13893 -1.28918,0.13893z" fill="#c0c2c6"/></g><g><path d="M237.19741,180.29648l-0.2085,-1.12693l1.38388,-0.4053l0.24057,1.11498z" fill="#83c4ac"/><path d="M236.35549,178.13326c-0.13632,-0.64612 0.20492,-1.29281 0.79885,-1.45398c0.59393,-0.16115 1.19918,0.22852 1.35191,0.87037c0.27152,1.14108 -0.13955,1.46853 -0.73347,1.6297c-0.59393,0.16115 -1.19004,0.0311 -1.41731,-1.04607z" fill="#20201f"/><path d="M237.16158,181.77144l-0.00821,-1.49511l1.44806,-0.42919l0.79421,1.34881l-0.57072,0.33715l-1.1089,0.27334z" fill="#bebec0"/></g></g><g stroke="none" stroke-width="0" stroke-linecap="butt" stroke-linejoin="miter"><path d="M241.88861,179.95196l1.00273,-0.87663l3.07199,0.09889l1.74596,-1.93399c0,0 -0.51949,1.9973 -1.22816,2.54362c-0.65218,0.50276 -4.59253,0.1681 -4.59253,0.1681z" fill="#f79db4"/><path d="M241.19919,176.84688c-0.02551,-0.68989 0.51307,-1.26983 1.20296,-1.29535c0.68989,-0.02551 1.26982,0.51307 1.29533,1.20295c0.02551,0.68989 -0.48218,1.00647 -1.17206,1.03198c-0.68989,0.02551 -1.30071,-0.24971 -1.32622,-0.9396z" fill="#83c4ac"/><path d="M237.61274,182.58591c0,0 0.62577,-0.22815 1.19052,-0.02298c0.79693,0.28953 1.41454,0.31616 3.35951,-1.11758c1.73428,-1.27843 1.65726,-2.26816 1.76492,-2.91965c0.13055,-0.79006 0.22653,-1.10387 0.22653,-1.10387l1.81372,-0.67042c0,0 -0.08514,0.63822 0.24923,1.44613c0.42693,0.84389 0.09656,1.56861 -0.35076,1.97494c-0.1751,0.61878 -0.03318,1.54562 -0.81431,1.88089c0.0129,0.81185 -0.60759,1.37118 -1.39213,1.43695c-0.14794,0.74892 -0.84329,1.00895 -1.33918,0.88143c-0.55339,0.75947 -1.31114,0.82961 -1.82227,0.58313c-0.84778,0.48702 -1.2801,-0.95131 -1.2801,-0.95131z" fill="#c0c2c6"/><path d="M237.15781,177.15125l0.26485,-0.25742l1.83271,-1.47258c0,0 0.68995,1.25035 1.42237,1.65759c0.73242,0.40724 0.87405,0.48439 1.65386,0.54126c0.77981,0.05685 2.10082,-0.26976 2.10082,-0.26976c0,0 -0.19353,0.54361 -0.13554,1.09811c0.03629,0.34691 0.38382,0.66601 0.28104,0.95802c-0.17399,0.49434 -0.69672,0.50811 -1.14589,1.10378c-0.24028,0.31866 -0.18264,1.10375 -0.65694,1.54895c-0.84692,0.79493 -1.51296,0.49539 -2.27067,0.62551c-0.35453,0.06089 -0.59309,0.71958 -1.12762,0.71019c-0.40173,-0.00706 -0.43183,-0.46606 -0.71824,-0.57755c-0.48197,-0.18762 -0.26252,0.18489 -0.26252,0.18489c0,0 -0.59627,-0.87457 -0.29023,-1.60472c0.30605,-0.73012 0.47887,-1.64899 0.47887,-1.64899c0,0 -0.48814,-0.74889 -0.79801,-1.30542c-0.30987,-0.55651 -0.62887,-1.29185 -0.62887,-1.29185z" fill="#20201f"/><path d="M242.4612,178.5803l-0.50178,-0.07199l0.02304,-0.95695c0,0 0.15085,0.02544 0.42421,0.05343c0.24625,0.02522 0.65482,-0.00289 0.65482,-0.00289l0.00285,0.38368z" data-paper-data="{&quot;index&quot;:null}" fill="#c274a1"/><path d="M241.79839,179.59374l0.27107,-1.06145l0.40368,0.05883l-0.2436,0.93935z" data-paper-data="{&quot;index&quot;:null}" fill="#c0c2c6"/><path d="M238.52096,181.41599l-0.36099,-0.12999c0,0 0.16208,-0.37609 0.22,-0.61677c0.0643,-0.26717 0.09035,-0.41792 0.09035,-0.41792l0.91037,0.29579l-0.09857,0.49724z" fill="#c274a1"/><path d="M240.68487,181.01071l-1.41733,-0.03585l0.07845,-0.40033l1.54164,0.05041z" fill="#c0c2c6"/><path d="M240.61837,176.57557c1.37819,1.45831 0.16689,2.30353 -0.0076,2.36434c-0.16934,0.05902 -0.663,0.1228 -0.99221,0.09452c-0.33521,-0.02879 -1.03306,-0.24075 -1.03306,-0.24075l0.05076,0.83225c0,0 -0.80451,-0.49913 -1.1883,-0.99042c-0.86942,-1.11294 -0.47358,-1.50665 -0.47358,-1.50665l2.0208,-1.68332c0,0 0.4941,-0.06467 1.62317,1.13002z" fill="#c0c0c3"/><path d="M237.67717,177.29494l-0.79307,-0.08844l1.6476,-1.11039z" fill="#222225"/><g><g><path d="M241.10373,181.65202c-0.60688,-0.19125 -0.88844,-1.01395 -0.62889,-1.83757c0.25955,-0.82361 0.96192,-1.33624 1.5688,-1.14501c0.60688,0.19123 0.88843,1.01394 0.62888,1.83756c-0.25955,0.82361 -0.96192,1.33624 -1.5688,1.14501z" fill="#c0c2c6"/><path d="M240.18533,178.80725c0.00633,-0.2507 0.21469,-0.44882 0.46539,-0.4425c0.2507,0.00633 0.44883,0.2147 0.4425,0.46539c-0.00633,0.2507 -0.2147,0.44882 -0.46539,0.44249c-0.2507,-0.00633 -0.44882,-0.21469 -0.44249,-0.46539z" fill="#000000"/><path d="M240.36197,179.01461c-0.12176,-0.14354 -0.10411,-0.3586 0.03943,-0.48037c0.14354,-0.12176 0.3586,-0.10411 0.48037,0.03943c0.12176,0.14354 -0.00674,0.19836 -0.15027,0.32013c-0.14354,0.12176 -0.24774,0.26435 -0.36952,0.12082z" fill="#c478a9"/><path d="M239.83278,181.14036c-0.22744,-0.10568 -0.32615,-0.37572 -0.22048,-0.60315c0.10568,-0.22744 0.37572,-0.32615 0.60315,-0.22048c0.22744,0.10568 0.32615,0.37571 0.22049,0.60314c-0.10568,0.22744 -0.37572,0.32615 -0.60315,0.22048z" fill="#000000"/><path d="M240.09335,181.06093c-0.18017,0.05451 -0.3704,-0.04736 -0.42491,-0.22752c-0.05451,-0.18017 0.04736,-0.3704 0.22752,-0.42491c0.18017,-0.05451 0.17927,0.08521 0.23377,0.26537c0.05451,0.18017 0.14379,0.33255 -0.03638,0.38707z" fill="#c478a9"/><path d="M240.513,180.87283c-0.0533,-0.06747 -0.07302,-0.35079 0.11746,-0.50128c0.19049,-0.1505 0.43655,-0.18606 0.48985,-0.11859c0.0533,0.06747 0.03293,0.35913 -0.15756,0.50963c-0.19048,0.15049 -0.39644,0.1777 -0.44975,0.11025z" fill="#000000"/><path d="M241.102,179.04215c0.08325,-0.02147 0.23079,0.12478 0.29143,0.35986c0.06065,0.23507 -0.09955,0.47964 -0.18282,0.50111c-0.08325,0.02147 -0.25768,-0.15568 -0.31833,-0.39075c-0.06065,-0.23507 0.12645,-0.44875 0.2097,-0.47022z" data-paper-data="{&quot;index&quot;:null}" fill="#000000"/><path d="M240.69184,180.62647c-0.05644,-0.07144 -0.04427,-0.17508 0.02715,-0.23152c0.07144,-0.05644 0.17509,-0.04428 0.23153,0.02715c0.05644,0.07144 0.04428,0.17509 -0.02715,0.23153c-0.07144,0.05644 -0.17508,0.04427 -0.23152,-0.02716z" fill="#ffffff"/><path d="M241.02629,179.72033c-0.05957,-0.07539 -0.04673,-0.18482 0.02867,-0.24438c0.07539,-0.05957 0.18482,-0.04673 0.24438,0.02867c0.05957,0.07539 0.04673,0.18482 -0.02867,0.24438c-0.07539,0.05957 -0.18482,0.04673 -0.24438,-0.02867z" fill="#ffffff"/></g><path d="M241.38777,180.01716c0.06357,0.01679 0.11291,0.1104 0.08838,0.20331c-0.02454,0.09291 -0.11367,0.14994 -0.17724,0.13314c-0.06357,-0.01679 0.02531,-0.35325 0.08888,-0.33646z" fill="#000000"/><path d="M241.35725,180.65989c0.06941,0.03064 0.07931,0.1605 0.02211,0.29004c-0.05719,0.12954 -0.1598,0.20975 -0.22922,0.17911c-0.06941,-0.03064 -0.07931,-0.1605 -0.02211,-0.29004c0.05719,-0.12954 0.1598,-0.20975 0.22922,-0.17911z" fill="#ad597c"/><path d="M241.79782,179.23812c0.06941,0.03064 0.07931,0.1605 0.02211,0.29004c-0.05719,0.12954 -0.1598,0.20975 -0.22922,0.17911c-0.06941,-0.03064 -0.07931,-0.1605 -0.02211,-0.29004c0.05719,-0.12954 0.1598,-0.20975 0.22922,-0.17911z" fill="#ad597c"/></g><g fill="#83c4ac"><path d="M238.2119,179.61648l-0.52721,-0.35636c0,0 0.15952,-0.36036 0.28965,-0.50901c0.11914,-0.1361 0.46109,-0.3486 0.46109,-0.3486l0.17807,0.09602c0,0 -0.13029,0.30773 -0.20068,0.50367c-0.06255,0.17415 -0.20092,0.6143 -0.20092,0.6143z"/><path d="M239.31452,178.66576c-0.20508,-0.03587 -0.70983,-0.14289 -0.70983,-0.14289l-0.21719,-0.09505c0,0 0.74873,-0.23121 0.92598,-0.26733c0.19358,-0.03946 0.58567,0.00038 0.58567,0.00038l0.04856,0.63448c0,0 -0.45092,-0.09769 -0.63317,-0.12958z" data-paper-data="{&quot;index&quot;:null}"/><path d="M239.1625,179.88887c0,0 -0.28912,-0.36498 -0.45257,-0.61365c-0.16345,-0.24866 -0.30658,-0.54128 -0.30658,-0.54128l0.20368,-0.195c0,0 0.25489,0.41298 0.43372,0.66667c0.17883,0.2537 0.55356,0.73388 0.55356,0.73388z"/><path d="M239.78263,179.87594c0,0 -0.40752,-0.48835 -0.61295,-0.72104c-0.20544,-0.23268 -0.61671,-0.64133 -0.61671,-0.64133l0.22193,-0.10722c0,0 0.38855,0.33722 0.59263,0.55377c0.2041,0.21655 0.49228,0.58225 0.49228,0.58225z" data-paper-data="{&quot;index&quot;:null}"/></g></g><g><g data-paper-data="{&quot;index&quot;:null}" fill="#86cbb6" stroke="none" stroke-width="0" stroke-linecap="butt" stroke-linejoin="miter"><path d="M228.77085,176.46079c-0.1825,0.44669 -0.33842,0.99696 -0.33842,0.99696l-0.90979,-0.47582c0,0 0.38623,-0.82018 0.66802,-1.14921c0.2818,-0.32905 1.03043,-0.72019 1.03043,-0.72019l-0.1215,0.68029c0,0 -0.14625,0.22129 -0.32877,0.66795z"/><path d="M229.18759,177.64913c0,0 -0.10164,-0.52107 -0.14665,-0.81332c-0.05613,-0.3643 -0.16417,-1.20434 -0.16417,-1.20434l0.29613,-0.51726c0,0 0.39359,1.14821 0.53466,1.51139c0.10241,0.26365 0.31836,0.82568 0.31836,0.82568z"/></g><g stroke="none" stroke-width="0" stroke-linecap="butt" stroke-linejoin="miter"><path d="M226.05096,174.43061c0.04525,-0.85097 0.53682,-1.09236 1.02038,-1.23516c0.62971,-0.1904 1.44104,-0.18937 1.44104,-0.18937c0,0 0.06322,1.0094 0.27272,1.55664c0.20949,0.54725 0.81051,1.27299 0.81051,1.27299c0,0 -1.59419,0.57441 -2.40517,0.16116c-0.81098,-0.41326 -1.08594,-0.72532 -1.13947,-1.56627z" data-paper-data="{&quot;index&quot;:null}" fill="#20201f"/><path d="M226.47025,175.40742c-0.31042,-0.43503 1.2909,-0.31226 1.2909,-0.31226l0.15346,1.0326c0,0 -1.04231,-0.15694 -1.44435,-0.72037z" data-paper-data="{&quot;index&quot;:null}" fill="#b2b1b2"/></g><path d="M229.83649,169.07064c2.01373,-2.6624 5.50756,-3.41281 7.80371,-1.6761c2.29613,1.73669 2.52508,5.30286 0.51136,7.96527c-2.01373,2.6624 -5.50754,3.41282 -7.8037,1.67612c-2.29613,-1.73669 -2.52508,-5.30287 -0.51134,-7.96528z" fill="#f79eb4" stroke="none" stroke-width="0" stroke-linecap="butt" stroke-linejoin="miter"/><path d="M231.81613,177.18908c-0.00068,-0.00028 1.05005,0.54676 1.81181,0.61292c0.76175,0.06614 3.07327,-0.13162 3.07327,-0.13162l0.8972,0.32425c0,0 -0.9387,1.1454 -3.39924,0.80241c-1.52734,-0.20853 -2.35516,-0.87206 -2.33852,-0.86736" fill="#f79eb4" stroke="#f89db5" stroke-width="0" stroke-linecap="butt" stroke-linejoin="round"/><g fill="#ffd5c5" stroke="none" stroke-width="1" stroke-linecap="round" stroke-linejoin="round"><path d="M234.28296,177.89823c-0.03872,-0.04541 0.11184,-0.04986 0.1708,-0.05917c0.36407,-0.05768 0.30641,-0.4718 0.30226,-0.72237c-0.00314,-0.19253 0.09635,-0.42851 0.20831,-0.58025c0.54637,-0.72433 2.0699,-1.76015 2.26984,-2.00235c0.18609,-0.2254 0.32372,-1.18513 0.42665,-1.49625c0.10561,-0.3192 0.34937,-0.47405 0.40837,-0.49001c0.12371,-0.03348 0.95518,-0.30534 1.20002,1.08269c0.03401,0.19286 -0.05257,1.18273 -0.2933,1.59363c-0.20187,0.34451 -0.87677,1.56518 -1.78697,2.18812c-0.72541,0.49645 -1.34412,0.66438 -1.42333,0.68563c-0.48412,0.12975 -1.12722,0.21673 -1.48263,-0.19969z"/><path d=""/></g><g fill="#000000" stroke="#000000" stroke-width="0.125" stroke-linecap="butt" stroke-linejoin="round"><path d="M232.51492,177.66486c0.0217,0.01201 -0.44579,0.45328 -0.51048,0.50166c-0.29444,0.22037 -0.56239,0.39387 -0.88976,0.56279c-0.10442,0.05389 -0.48712,0.20263 -0.48233,0.19936c0.14088,-0.09657 0.31321,-0.14987 0.459,-0.24107c0.24346,-0.15236 0.47282,-0.32572 0.70048,-0.50103c0.34799,-0.2889 0.5024,-0.54355 0.55669,-0.58076"/><path d="M232.10061,177.55206c0.02023,0.01123 -0.46399,0.42047 -0.76956,0.55971c-0.30556,0.13923 -1.11204,0.33325 -1.09681,0.33611c0.04041,0.00755 0.67812,-0.23536 1.07893,-0.45556c0.40083,-0.22018 0.59082,-0.49193 0.58594,-0.52768"/></g><g fill="#000000" stroke="none" stroke-width="1" stroke-linecap="round" stroke-linejoin="round"><path d="M235.3284,177.15528c-0.06047,0.09212 -0.48556,0.24508 -0.48265,0.04941c0.00168,-0.11312 0.27414,-0.57038 0.45036,-0.62421c0.23184,-0.07082 0.14818,0.36269 0.0323,0.57482z"/><path d=""/></g><path d="M237.0522,168.90842c0.02474,-0.00992 1.75409,1.49875 2.08194,1.93195c0.49194,0.65005 0.87177,1.38587 1.04938,2.18431c0.0755,0.33945 0.10905,0.65781 0.12545,1.00224c0.00533,0.1115 -0.02351,0.53822 -0.02351,0.53822c0,0 -0.58913,-0.92577 -1.88679,-1.95863c-0.6891,-0.54846 -2.31585,-1.6281 -2.26122,-1.61246" fill="#f79eb4" stroke="#f89db5" stroke-width="0" stroke-linecap="butt" stroke-linejoin="round"/><path d="M237.35031,167.4042c0.3951,0.0735 1.8217,1.28126 2.68275,2.39541c0.66356,0.85859 0.72033,1.25159 0.8654,1.98348c0.16427,0.82887 -0.03322,1.19515 -0.03322,1.19515c0,0 -0.64,-1.06982 -1.17234,-1.65608c-0.53231,-0.58625 -2.58822,-2.51107 -2.60874,-2.50822" fill="#f79eb4" stroke="#f89db5" stroke-width="0" stroke-linecap="butt" stroke-linejoin="round"/><g stroke="none" stroke-width="1" stroke-linecap="round" stroke-linejoin="round"><path d="M228.88701,173.57286c-0.03357,-0.15122 -0.0075,-3.15236 2.16343,-5.26376c2.71453,-2.58611 6.20863,-0.40294 6.20652,-0.40121c-0.02943,0.02408 -1.63826,-0.45023 -2.76453,-0.10206c-1.46041,0.45144 -2.30734,0.71206 -3.30198,1.66761c-1.26197,1.21234 -1.60427,3.9706 -1.61663,4.07965" fill="#20201f"/><path d="" fill="#ee1a40"/></g><path d="M231.05611,175.31755c-0.01229,0.00302 -0.5107,1.29241 -1.22081,1.68894c-0.71011,0.39654 -3.10839,0.71968 -3.1165,0.7331c-0.00845,0.0139 1.43297,-0.67627 2.16491,-1.35196c0.73194,-0.67569 1.40838,-1.92753 1.38001,-1.92054" fill="#f79eb4" stroke="#f89db5" stroke-width="0" stroke-linecap="butt" stroke-linejoin="round"/><path d="M230.3282,174.48566c-0.12927,0.03254 -1.39955,0.75733 -2.36388,0.72442c-0.96433,-0.03291 -3.09038,-0.9105 -3.09038,-0.9105c0,0 1.89905,-0.00491 2.9436,-0.34295c1.04454,-0.33805 2.98361,-0.17514 3.05535,-0.13227" fill="#f79eb4" stroke="#f89db5" stroke-width="0" stroke-linecap="butt" stroke-linejoin="round"/><path d="M234.86473,172.66274c-0.36648,0.48453 -0.71888,2.59584 -0.71888,2.59584c0,0 -2.51142,-3.4726 -0.28326,-5.21745c1.15312,-0.55026 2.42878,1.21011 2.42878,1.21011c0,0 -1.06018,0.92696 -1.42664,1.4115z" data-paper-data="{&quot;index&quot;:null}" fill="#20201f" stroke="none" stroke-width="0" stroke-linecap="butt" stroke-linejoin="miter"/><path d="M234.03625,175.20772c0.07546,-0.47168 -0.1678,-1.37952 0.00766,-2.25488c0.25667,-2.97556 0.96289,-2.9507 2.50012,-1.43183c0.51155,0.50545 1.17147,1.41113 0.87499,2.78102c-0.23943,0.63762 -1.75508,1.42105 -2.19069,1.93941c-0.7648,0.9101 -0.23525,1.09413 -0.6056,1.54842c-0.0927,0.11371 -1.27807,0.25318 -2.45145,-0.22162c-0.55328,-0.22389 -0.78901,-0.40346 -0.74749,-0.45739c0.27404,-0.35588 0.84022,-0.46482 1.50217,-0.4732c0.46301,-0.00586 0.93308,-0.12746 1.11236,-0.41446c0.10452,-0.16729 0.23215,-0.31957 -0.00212,-1.01548z" fill="#ffffff" stroke="none" stroke-width="0" stroke-linecap="butt" stroke-linejoin="miter"/><path d="M231.51399,177.30946c0,0 -0.45033,-0.34638 -0.46924,-0.75798c0.20198,-0.80528 2.36871,0.05221 2.36871,0.05221c0,0 -1.21108,0.26108 -1.31341,0.39639c-0.10236,0.13534 -0.58604,0.30938 -0.58604,0.30938z" data-paper-data="{&quot;index&quot;:null}" fill="#20201f" stroke="none" stroke-width="0" stroke-linecap="butt" stroke-linejoin="miter"/><path d="M231.9046,175.88859c-0.00106,0.06869 -0.34502,1.32823 -0.95931,1.87447c-0.6143,0.54624 -2.21181,0.87514 -2.21181,0.87514c0,0 1.1447,-0.96618 1.57019,-1.58514c0.42548,-0.61898 0.86259,-1.75504 0.86221,-1.73164" fill="#f79eb4" stroke="#f89db5" stroke-width="0" stroke-linecap="butt" stroke-linejoin="round"/><g fill="#000000" stroke="#000000" stroke-width="0.125" stroke-linecap="butt" stroke-linejoin="round"><path d="M235.20073,170.52969c0.01535,-0.0503 0.06784,-0.06128 0.09796,-0.09696c0.03159,-0.0374 0.15051,-0.23016 0.21656,-0.39209c0.33915,-0.83158 0.17877,-1.47568 0.17877,-1.47568c0,0 0.21039,0.35462 -0.09641,1.6565c-0.04776,0.20278 -0.15051,0.31722 -0.19397,0.31497"/><path d="M235.53904,170.76522c0.0234,-0.02457 0.10712,-0.03751 0.14158,-0.04785c0.07822,-0.02346 0.60159,-0.24119 0.95765,-0.9034c0.11687,-0.22027 0.4064,-0.97247 0.4064,-0.97247c0,0 -0.04931,0.44369 -0.38106,1.05153c-0.13914,0.25491 -0.51021,0.75161 -0.72065,0.89766c-0.11348,0.07876 -0.16981,0.0819 -0.16981,0.0819"/></g><g stroke="none" stroke-linecap="butt" stroke-linejoin="miter"><path d="M235.52747,173.94529c0.60153,0.39681 0.9851,0.87624 0.85673,1.07086c-0.12838,0.1946 -0.7201,0.0307 -1.32162,-0.36609c-0.60153,-0.39681 -0.98512,-0.87625 -0.85674,-1.07086c0.12838,-0.1946 0.7201,-0.0307 1.32162,0.36611z" fill="#169c5b" stroke-width="NaN"/><path d="M235.5282,174.23697c0.25123,0.16574 0.40921,0.36941 0.3528,0.45493c-0.05641,0.08551 -0.30583,0.02049 -0.55707,-0.14526c-0.25123,-0.16574 -0.40921,-0.36941 -0.3528,-0.45493c0.05641,-0.08551 0.30583,-0.02049 0.55707,0.14526z" fill="#000000" stroke-width="0"/><path d="M234.91467,173.92418c0.25421,0.16768 0.40507,0.38729 0.337,0.49047c-0.06808,0.10319 -0.32932,0.05094 -0.58353,-0.11675c-0.25421,-0.16768 -0.40509,-0.38729 -0.33701,-0.49047c0.06808,-0.10319 0.32935,-0.05094 0.58353,0.11675z" fill="#ffffff" stroke-width="0"/></g><g stroke="none" stroke-linecap="butt" stroke-linejoin="miter"><path d="M233.8553,176.96461c0.42427,0.2799 0.69484,0.61804 0.60429,0.75529c-0.09056,0.13727 -0.5079,0.02166 -0.93219,-0.25821c-0.42427,-0.2799 -0.69483,-0.61804 -0.60426,-0.7553c0.09056,-0.13727 0.50789,-0.02166 0.93219,0.25823z" fill="#169c5b" stroke-width="NaN"/><path d="M233.85583,177.17031c0.17723,0.11689 0.28862,0.26056 0.24883,0.32089c-0.03979,0.06033 -0.2157,0.01444 -0.39292,-0.10245c-0.17723,-0.11689 -0.28862,-0.26056 -0.24883,-0.32086c0.03979,-0.06033 0.2157,-0.01444 0.39291,0.10246z" fill="#000000" stroke-width="0"/><path d="M233.42307,176.94971c0.17929,0.11829 0.28571,0.27315 0.23769,0.34595c-0.04802,0.07281 -0.2323,0.03592 -0.41159,-0.08233c-0.17929,-0.11829 -0.28573,-0.27315 -0.23771,-0.34597c0.04802,-0.07281 0.23231,-0.03591 0.4116,0.08235z" fill="#ffffff" stroke-width="0"/></g><path d="M238.60278,173.91258c0,0 -0.08125,0.35317 -0.18368,0.52423c-0.10242,0.17108 -0.44346,0.6328 -0.44346,0.6328" data-paper-data="{&quot;index&quot;:null}" fill="none" stroke="#000000" stroke-width="0.125" stroke-linecap="round" stroke-linejoin="miter"/><g fill="#86cbb6" stroke="none" stroke-width="0" stroke-linecap="butt" stroke-linejoin="miter"><path d="M234.53475,167.8327l-0.74296,0.3611c0,0 0.20631,-0.98836 0.49309,-1.41956c0.28679,-0.43121 1.10448,-1.14233 1.10448,-1.14233l0.84333,0.89165c0,0 -0.58219,0.35835 -1.0366,0.71366c-0.4544,0.35529 -0.66136,0.59549 -0.66136,0.59549z"/><path d="M236.74373,168.35852c0,0 -0.71671,-0.06552 -1.0533,-0.09753c-0.46363,-0.0441 -1.91242,-0.12321 -1.91242,-0.12321l0.49861,-0.50891c0,0 1.00139,-0.14906 1.43867,-0.20304c0.35082,-0.0433 0.98323,-0.09594 0.98323,-0.09594z"/></g><path d="M233.34186,166.68204c1.08858,0.60337 1.4476,1.81062 1.4476,1.81062c0,0 -0.46288,0.01037 -1.99657,0.80305c-0.89656,0.46339 -1.83081,1.1718 -1.83081,1.1718c0,0 -0.62153,-0.91899 -0.88719,-1.77843c-0.20783,-0.65738 -0.31002,-1.39921 0.62005,-2.10121c0.99427,-0.58233 1.55834,-0.50922 2.64692,0.09415z" fill="#20201f" stroke="none" stroke-width="0" stroke-linecap="butt" stroke-linejoin="miter"/><path d="M233.12237,167.97455c0,0 -0.25594,0.05625 -1.04671,0.61756c-0.46225,0.32812 -0.92687,0.78156 -0.92687,0.78156c0,0 -0.7187,-1.09632 0.11888,-1.73717c0.88306,-0.67565 1.85472,0.33804 1.85472,0.33804z" fill="#b2b1b2" stroke="none" stroke-width="0" stroke-linecap="butt" stroke-linejoin="miter"/></g><g stroke-width="0" stroke-linecap="butt" stroke-linejoin="miter"><path d="M233.95693,199.24741c0.72062,-2.03734 3.50166,-2.6576 3.50166,-2.6576l0.91435,0.28227c0,0 -0.70226,0.55515 -2.08029,3.01954c-0.17933,1.88149 -0.5415,4.1104 -0.5415,4.1104c0,0 0.31283,0.1611 -0.36929,-0.09246c-0.68216,-0.25356 -0.42066,-0.20362 -0.42066,-0.20362c0,0 -2.01538,-1.5998 -1.00422,-4.45851z" fill="#cacacd" stroke="none"/><path d="M235.81368,204.05539c0,0 -1.17656,-1.47276 -0.2994,-3.9115c0.93161,-2.59006 2.83603,-3.29554 2.83603,-3.29554c0,0 2.67128,1.02062 1.39499,4.5255c-1.13729,3.1232 -3.93161,2.68151 -3.93161,2.68151z" fill="#c2e266" stroke="#000000"/><path d="M234.87491,195.84095l-2.59193,6.94861c0,0 -3.62531,-1.41671 -2.46429,-4.79155c1.17782,-3.42368 5.05621,-2.15708 5.05621,-2.15708z" fill="#c2e266" stroke="none"/><path d="M234.97029,195.85987l-2.93084,2.99012l0.2398,3.9312l-0.26371,-0.09317c0,0 -1.57459,-1.3535 -0.64477,-4.08732c0.92225,-2.70138 3.26604,-2.84721 3.26604,-2.84721z" fill="#cacacd" stroke="none"/><path d="M231.86929,198.56848c0.76976,-1.96341 2.99931,-2.76127 2.99931,-2.76127l3.00185,0.92743c0,0 -2.37204,1.6947 -2.94454,3.21918c-0.5725,1.52448 0.2795,3.87731 0.2795,3.87731l-2.92852,-1.03785c0,0 -1.48774,-1.46982 -0.40762,-4.22479z" fill="#c274a1" stroke="none"/><path d="M238.07571,194.25679c0,0 -0.56228,-0.31946 -0.94172,-0.46791c-0.37944,-0.14849 -0.94099,-0.26882 -0.94099,-0.26882l4.36023,-10.41638c0,0 0.69084,0.02501 1.09442,0.18176c0.40359,0.15678 0.68981,0.51126 0.68981,0.51126z" fill="#c2e266" stroke="none"/><path d="M237.54782,196.71925l-2.6643,-0.8136c0,0 0.76074,-2.28144 1.0943,-2.37116c0.56491,-0.15197 2.13873,0.55789 2.28281,0.94768c0.03795,0.10269 -0.71281,2.23708 -0.71281,2.23708z" fill="#cacacd" stroke="none"/></g><g stroke="none" stroke-width="0" stroke-linecap="butt" stroke-linejoin="miter"><path d="M239.52295,181.2569c1.42598,-0.38086 2.79916,0.12367 3.06707,1.12682c0.26792,1.00316 -0.67085,2.12514 -2.09681,2.50598c-1.42599,0.38086 -2.79915,-0.12365 -3.06707,-1.12682c-0.26792,-1.00316 0.67087,-2.12515 2.09685,-2.50599z" fill="#20201f"/><path d="M238.80381,176.95554c0.01602,-0.39129 0.2121,-0.48771 0.42681,-0.49788c0.31961,-0.01513 0.49863,0.15164 0.52623,0.46395c0.11008,1.24634 0.22914,2.33404 0.358,3.18702c0.07854,0.52001 0.45894,2.53822 0.45894,2.53822l-1.20256,0.20651c0,0 -0.13561,-1.15377 -0.33033,-2.44276c-0.13619,-0.90159 -0.28553,-2.27342 -0.23711,-3.45507z" fill="#fed5c7"/><path d="M238.71349,179.54486l-0.1004,-1.14164l1.41616,-0.27188l0.13348,1.1328z" fill="#83c4ac"/><path d="M238.08108,177.31138c-0.07426,-0.65619 0.32695,-1.26746 0.93346,-1.37143c0.60655,-0.10396 1.17203,0.34151 1.26304,0.99496c0.16179,1.16173 -0.27857,1.44862 -0.88511,1.55257c-0.60655,0.10396 -1.1876,-0.08221 -1.3114,-1.17612z" fill="#20201f"/><path d="M238.53755,181.00974l0.134,-1.48911l1.48232,-0.28956l0.66237,1.41822l-0.60022,0.28134l-1.12988,0.16666z" fill="#bebec0"/><g><path d="M238.86132,183.79006l2.50354,-0.53975c0,0 0.36903,0.08868 0.72508,0.55375c0.23125,0.30202 0.30337,0.92627 0.30337,0.92627c0,0 0.29663,-0.67961 0.81647,-0.37602c0.33377,0.1949 0.25901,1.34957 0.13524,1.74575c-0.07285,0.23324 -0.33939,0.59621 -0.65004,0.76028c-0.19596,0.10353 -0.49924,0.06422 -0.49924,0.06422c0,0 -0.04007,0.39071 -0.45886,0.38448c-0.12831,-0.0019 -0.30426,0.03167 -0.30426,0.03167c0,0 -0.11608,0.2701 -0.22944,0.37992c-0.11336,0.10982 -0.36696,0.17004 -0.36696,0.17004l-0.3994,-0.17886c0,0 -0.41793,0.37917 -0.53059,0.4056c-0.44191,0.10372 -0.73359,-0.30651 -0.89154,-0.52569c-0.28922,-0.40128 -0.79225,-1.37613 -0.76817,-1.51548c0.15125,-0.87453 0.61479,-2.28622 0.61479,-2.28622z" fill="#20201f"/><path d="M242.39332,184.73035c0,0 0.29663,-0.67961 0.81647,-0.37602c0.33377,0.1949 0.36563,0.72896 0.2419,1.12512c-0.07285,0.23324 -1.05837,-0.7491 -1.05837,-0.7491z" fill="#c0c2c6"/></g></g></g></g></svg>