<svg version="1.1" xmlns="http://www.w3.org/2000/svg" xmlns:xlink="http://www.w3.org/1999/xlink" width="149.7509" height="140.30206" viewBox="0,0,149.7509,140.30206"><g transform="translate(-165.12455,-109.84897)"><g data-paper-data="{&quot;isPaintingLayer&quot;:true}" fill-rule="nonzero" stroke="none" stroke-width="0" stroke-linecap="butt" stroke-linejoin="miter" stroke-miterlimit="10" stroke-dasharray="" stroke-dashoffset="0" style="mix-blend-mode: normal"><path d="M275.7899,193.22948l7.33624,10.44089l13.93916,11.32579l-8.92682,24.15892l-13.5358,-12.48959l-20.38516,-22.08869l-22.95691,-4.26681l-8.55493,-16.12926l19.55,-20.18204l11.35612,14.65555l14.27756,-4.5299l6.9751,5.27991z" data-paper-data="{&quot;index&quot;:null}" fill="#051e34"/><path d="M269.57597,198.80977l18.79329,17.08567l0.11509,16.5712l-9.009,-8.34146l-26.74931,-17.65962l-11.97498,-11.1652l-13.19672,-9.06148l14.49921,-15.40419l12.11002,12.83098l11.61566,0.01382z" data-paper-data="{&quot;index&quot;:null}" fill="#000203"/><path d="M267.63649,136.65314l15.11202,-7.95646l17.41371,-16.57053l11.65654,31.80997l-32.80125,29.127l-12.50077,7.8583l-19.95275,24.65433l-23.45395,-29.39656l21.39295,-12.57331l-6.60042,-25.42758z" data-paper-data="{&quot;index&quot;:null}" fill="#051e34"/><path d="M273.98347,145.85434l40.89198,-31.39018l-5.59715,22.5701l-28.00809,32.49439l-16.86527,13.99056l-14.2812,15.97145l-17.97364,-21.87635l19.09958,-13.88551l-1.647,-15.41695z" data-paper-data="{&quot;index&quot;:null}" fill="#000203"/><path d="M259.99779,155.65297l-8.48636,18.16283l17.48132,17.61107c0,0 -18.63562,2.76871 -24.13502,6.86004c-2.24932,1.6734 -12.67467,25.19065 -12.67467,25.19065l-29.47755,25.78157l3.42433,-33.84798l4.51799,-43.97389l-19.21468,-33.80037l-14.22905,-20.12834l33.60894,-7.65958l12.61462,20.46194l12.58471,11.54571z" fill="#051e34"/><path d="M246.95121,156.7972l-1.99495,15.41773l14.92923,18.29534l-22.95623,16.5722l-9.73831,-19.08417l-12.74194,-17.82739l-18.80003,-38.56031l-9.50859,-13.40177l21.97195,3.02494l19.41733,27.90226z" fill="#000203"/><path d="M217.10799,180.07594c-6.20153,-15.5407 -2.1581,-29.86518 15.32143,-32.83164c27.94376,-4.74235 40.12756,13.64299 40.12756,31.37246c0,14.3437 -13.42007,21.01826 -26.40147,25.13437c-3.06421,0.97159 -2.31481,6.96768 -5.70058,6.96768c-17.72947,0 -16.77586,-14.17608 -23.34695,-30.64287z" fill="#000000"/><path d="M217.24826,171.32562l15.44271,-1.38473l9.90313,-21.43664l24.95589,13.37272l-12.88688,17.11632l-10.44098,19.26548l-26.42258,33.79624l-21.04934,9.88243l22.83219,-46.21892z" data-paper-data="{&quot;index&quot;:null}" fill="#000203"/><path d="M165.12455,183.9063v-8.02551l14.59184,3.64796l27.24636,-10.49133l16.89396,6.84337v8.02551l-14.95664,-5.47194l-30.09286,5.12959z" fill="#000203"/><path d="M224.41737,235.81471l7.89872,-29.48735l-4.06106,-15.3997l7.99092,0.7444l5.24689,17.45588l-12.97331,26.15579l2.27879,14.8673l-7.99092,-0.7444z" data-paper-data="{&quot;index&quot;:null}" fill="#000203"/><path d="M260.79476,225.14869l-15.20738,-26.4694l-13.7432,-8.04783l6.18804,-5.11049l16.03429,8.66829l9.26063,27.68886l12.10453,8.92803l-6.18804,5.11049z" data-paper-data="{&quot;index&quot;:null}" fill="#000203"/><path d="M291.51101,186.85953l-30.52685,0.06837l-13.80675,7.93832l-1.36629,-7.90835l15.48231,-9.61955l28.63469,5.6997l13.75779,-6.07886l1.36629,7.90835z" data-paper-data="{&quot;index&quot;:null}" fill="#000203"/><path d="M261.8526,127.30135l-10.14944,28.79032l2.86125,15.66706l-7.9097,-1.35849l-3.88495,-17.80856l14.95197,-25.0773l-1.12534,-14.99877l7.9097,1.35849z" data-paper-data="{&quot;index&quot;:null}" fill="#000203"/></g></g></svg>