<svg version="1.1" xmlns="http://www.w3.org/2000/svg" xmlns:xlink="http://www.w3.org/1999/xlink" width="29.03645" height="24.81573" viewBox="0,0,29.03645,24.81573"><g transform="translate(-226.09095,-169.9648)"><g data-paper-data="{&quot;isPaintingLayer&quot;:true}" fill-rule="nonzero" stroke-linejoin="miter" stroke-miterlimit="10" stroke-dasharray="" stroke-dashoffset="0" style="mix-blend-mode: normal"><g data-paper-data="{&quot;index&quot;:null}"><g stroke="none" stroke-width="0" stroke-linecap="butt"><path d="M241.73266,177.52585c0,0 -2.44872,2.45258 -3.2754,3.39208c-0.82669,0.9395 -1.94377,2.53932 -1.94377,2.53932c0,0 -1.03089,-2.33256 0.04633,-5.10216c1.23874,-3.18487 3.82633,-4.06913 3.82633,-4.06913c0,0 -0.04421,1.16567 0.22887,1.70564c0.27549,0.54474 1.11765,1.53426 1.11765,1.53426z" data-paper-data="{&quot;index&quot;:null}" fill="#f8b820"/><path d="M246.95789,176.22252c-0.23715,0.14445 -2.41259,0.17216 -3.21607,0.36472c-0.80348,0.19256 -1.99707,0.95471 -1.99707,0.95471c0,0 -0.84359,-0.70107 -1.14182,-1.3836c-0.29823,-0.68252 -0.21516,-1.88541 -0.21516,-1.88541c0,0 2.23349,-0.65852 3.72999,-0.37132c2.74216,0.52627 3.06948,2.18123 2.84014,2.32092z" fill="#ffffff"/></g><path d="M240.63592,174.94822l-0.61704,0.24379" fill="none" stroke="#808080" stroke-width="0.5" stroke-linecap="round"/><path d="M240.59387,176.55951l0.51482,-0.28203" fill="none" stroke="#808080" stroke-width="0.5" stroke-linecap="round"/><path d="M241.28834,177.63274l0.46598,-0.2777" fill="none" stroke="#808080" stroke-width="0.5" stroke-linecap="round"/></g><g data-paper-data="{&quot;index&quot;:null}"><g stroke="none" stroke-width="0" stroke-linecap="butt"><path d="M230.04993,177.00405c0,0 0.94555,-0.8994 1.27899,-1.41344c0.33053,-0.50953 0.71297,-1.65739 0.71297,-1.65739c0,0 2.47646,1.26768 3.61831,3.61c1.57616,3.23325 0.84379,5.83581 0.84379,5.83581c0,0 -1.80059,-0.77524 -2.69016,-1.78122c-0.88955,-1.00598 -3.76391,-4.59378 -3.76391,-4.59378z" fill="#f8b820"/><path d="M226.09454,173.98325c0.08444,-0.40591 1.83319,-0.73497 2.54659,-0.7146c1.65541,-0.09751 3.38637,0.64872 3.38637,0.64872c0,0 -0.20877,1.19616 -0.67472,1.88943c-0.46595,0.69329 -1.29021,1.22877 -1.29021,1.22877c0,0 -1.95724,-1.4528 -2.18506,-1.54979c-0.70827,-0.30154 -1.8591,-1.1365 -1.78296,-1.50254z" fill="#ffffff"/></g><path d="M230.45626,177.00858l-0.42349,-0.36918" fill="none" stroke="#808080" stroke-width="0.5" stroke-linecap="round"/><path d="M230.89831,175.60495l0.48121,0.33224" fill="none" stroke="#808080" stroke-width="0.5" stroke-linecap="round"/><path d="M232.09103,174.68118l-0.50042,-0.2399" fill="none" stroke="#808080" stroke-width="0.5" stroke-linecap="round"/></g><g data-paper-data="{&quot;index&quot;:null}"><g><path d="M232.23276,186.01245c0.56271,-0.40449 3.21167,-0.90665 3.95856,-0.25151c0.20375,0.1787 0.62769,2.48049 0.15585,4.76907c-0.58647,2.84455 -1.9144,4.23785 -2.29676,3.99993c-1.49386,-0.75711 -2.38656,-4.93212 -2.46572,-5.73361c-0.07917,-0.80147 0.08535,-2.37939 0.64806,-2.78388z" fill="#c01515" stroke="none" stroke-width="0" stroke-linecap="butt"/><path d="M231.95167,190.49848c0,0 -0.0998,-0.31685 -0.1447,-0.52432c-0.0449,-0.20747 -0.18715,-1.00918 -0.18715,-1.00918c0,0 1.54909,-0.54972 2.58277,-0.60263c1.03366,-0.05292 2.32178,0.35156 2.32178,0.35156c0,0 -0.01633,0.91622 -0.10767,1.4436c-0.09133,0.52737 -0.23033,0.92308 -0.23033,0.92308c0,0 -1.25918,-0.54951 -2.07174,-0.65622c-0.81256,-0.10671 -2.16294,0.07411 -2.16294,0.07411z" fill="#a8c8d8" stroke="none" stroke-width="0" stroke-linecap="butt"/><path d="M235.99585,186.4022c0,0 -0.10426,2.603 -0.45649,4.22271c-0.35223,1.61971 -1.31124,3.81286 -1.31124,3.81286" fill="none" stroke="#000000" stroke-width="0.25" stroke-linecap="round"/><path d="M236.13927,186.74543l-0.43946,-0.10704" fill="none" stroke="#808080" stroke-width="0.5" stroke-linecap="round"/><path d="M235.487,187.93936l0.5764,0.12945" fill="none" stroke="#808080" stroke-width="0.5" stroke-linecap="round"/><path d="M235.38384,191.57826l-0.4681,-0.14688" fill="none" stroke="#808080" stroke-width="0.5" stroke-linecap="round"/><path d="M234.39047,193.13824l0.50793,0.11824" fill="none" stroke="#808080" stroke-width="0.5" stroke-linecap="round"/><path d="M235.33201,189.58532l0.68934,0.16048" fill="none" stroke="#808080" stroke-width="0.5" stroke-linecap="round"/></g><path d="M238.36097,184.35009c0,0 0.7696,-0.53227 1.20887,-0.83606c0.43926,-0.30379 1.16541,-0.80824 1.16541,-0.80824l1.46166,0.3843c0,0 -0.77093,0.64904 -1.33289,0.95523c-0.56195,0.30619 -1.98881,0.93337 -1.98881,0.93337z" fill="#f8b820" stroke="none" stroke-width="0" stroke-linecap="butt"/><path d="M238.76768,184.5962c0.264,0.48993 -0.19874,0.67616 -1.1551,1.14058c-0.51208,0.24867 -1.68956,0.86022 -1.91619,0.30124c-0.21225,-0.5235 0.73636,-0.96457 1.2375,-1.23461c0.50114,-0.27004 1.63357,-0.57877 1.83379,-0.20721z" fill="#ffffff" stroke="none" stroke-width="0" stroke-linecap="butt"/></g><g data-paper-data="{&quot;index&quot;:null}"><path d="M244.10117,187.37586c0,0 -0.59919,-1.01155 -1.0546,-1.59065c-0.54233,-0.68966 -1.98443,-2.27387 -1.98443,-2.27387l0.54255,-0.55191c0,0 1.68937,1.77468 2.35198,2.57797c0.56479,0.68469 1.60018,2.66651 1.60018,2.66651l-1.4557,-0.82805z" fill="#f8b820" stroke="none" stroke-width="0" stroke-linecap="butt"/><g data-paper-data="{&quot;index&quot;:null}"><path d="M246.94197,189.4106c1.21086,2.24269 -0.3405,4.58524 -0.84067,4.55652c-1.38172,-0.06274 -2.10116,-1.00555 -3.09595,-2.56508c-1.20492,-1.88892 0.05734,-4.33194 1.1502,-4.38414c0.3578,-0.01707 1.9099,0.76927 2.78642,2.3927z" fill="#a8c8d8" stroke="none" stroke-width="0" stroke-linecap="butt"/><path d="M243.57336,188.2149l1.02847,0.14379" fill="none" stroke="#808080" stroke-width="0.5" stroke-linecap="round"/><path d="M243.492,189.82038l0.81509,0.07637" fill="none" stroke="#808080" stroke-width="0.5" stroke-linecap="round"/><path d="M244.45944,191.16825l-0.79591,0.02031" fill="none" stroke="#808080" stroke-width="0.5" stroke-linecap="round"/><path d="M244.82516,192.50723l-0.58255,0.08776" fill="none" stroke="#808080" stroke-width="0.5" stroke-linecap="round"/><path d="M245.01866,193.54414c0,0 -1.16196,-2.12395 -1.20509,-3.31586c-0.04313,-1.19192 0.46093,-3.01517 0.46093,-3.01517" fill="none" stroke="#020202" stroke-width="0.25" stroke-linecap="round"/></g></g><g data-paper-data="{&quot;index&quot;:null}"><path d="M239.19536,182.2301c1.53946,-0.12377 2.02964,0.05722 3.09657,0.77442c1.59014,1.06892 1.94482,3.05965 -0.07922,4.63442c-2.05147,1.59612 -6.47138,0.88009 -6.63329,-0.89801c-0.15054,-1.65334 0.2819,-4.24281 3.61594,-4.51084z" fill="#f8b820" stroke="none" stroke-width="0" stroke-linecap="butt"/><path d="M238.92458,183.6578c3.34482,0.454 3.35883,2.20979 3.36116,2.98201c0.00396,1.31279 -1.02903,2.78015 -3.17241,2.9024c-1.60394,0.09147 -3.61985,-1.52089 -3.50029,-2.77999c0.17721,-1.8664 2.15703,-3.26114 3.31154,-3.10443z" fill="#ffffff" stroke="none" stroke-width="0" stroke-linecap="butt"/><path d="M241.53538,184.2997l-0.38303,0.4153" fill="none" stroke="#808080" stroke-width="0.5" stroke-linecap="round"/><path d="M239.63765,183.51016l-0.0477,0.46838" fill="none" stroke="#808080" stroke-width="0.5" stroke-linecap="round"/><path d="M237.64182,183.59081l0.23454,0.85679" fill="none" stroke="#808080" stroke-width="0.5" stroke-linecap="round"/><path d="M236.32003,185.51004l-0.2903,-0.58799" fill="none" stroke="#808080" stroke-width="0.5" stroke-linecap="round"/></g><g data-paper-data="{&quot;index&quot;:null}"><g><path d="M229.09716,186.18195c0.56271,-0.40449 3.21167,-0.90665 3.95856,-0.25151c0.20375,0.1787 0.62769,2.48049 0.15585,4.76907c-0.58647,2.84455 -1.9144,4.23785 -2.29676,3.99993c-1.49386,-0.75711 -2.38656,-4.93212 -2.46572,-5.73361c-0.07917,-0.80147 0.08535,-2.37939 0.64806,-2.78388z" fill="#f72526" stroke="none" stroke-width="0" stroke-linecap="butt"/><path d="M228.81607,190.66798c0,0 -0.0998,-0.31685 -0.1447,-0.52432c-0.0449,-0.20747 -0.18715,-1.00918 -0.18715,-1.00918c0,0 1.54909,-0.54972 2.58277,-0.60263c1.03366,-0.05292 2.32178,0.35156 2.32178,0.35156c0,0 -0.01633,0.91622 -0.10767,1.4436c-0.09133,0.52737 -0.23033,0.92308 -0.23033,0.92308c0,0 -1.25918,-0.54951 -2.07174,-0.65622c-0.81256,-0.10671 -2.16294,0.07411 -2.16294,0.07411z" fill="#ffffff" stroke="none" stroke-width="0" stroke-linecap="butt"/><path d="M232.86025,186.5717c0,0 -0.10426,2.603 -0.45649,4.22271c-0.35223,1.61971 -1.31124,3.81286 -1.31124,3.81286" fill="none" stroke="#000000" stroke-width="0.25" stroke-linecap="round"/><path d="M232.56421,186.80789l0.43946,0.10704" fill="none" stroke="#808080" stroke-width="0.5" stroke-linecap="round"/><path d="M232.3514,188.10884l0.5764,0.12945" fill="none" stroke="#808080" stroke-width="0.5" stroke-linecap="round"/><path d="M231.78014,191.60089l0.4681,0.14688" fill="none" stroke="#808080" stroke-width="0.5" stroke-linecap="round"/><path d="M231.25487,193.30773l0.50793,0.11824" fill="none" stroke="#808080" stroke-width="0.5" stroke-linecap="round"/><path d="M232.19641,189.75481l0.68934,0.16048" fill="none" stroke="#808080" stroke-width="0.5" stroke-linecap="round"/></g><path d="M235.22537,184.51959c0,0 0.7696,-0.53227 1.20887,-0.83606c0.43926,-0.30379 1.16541,-0.80824 1.16541,-0.80824l1.46166,0.3843c0,0 -0.77093,0.64904 -1.33289,0.95523c-0.56195,0.30619 -1.98881,0.93337 -1.98881,0.93337z" fill="#f8b820" stroke="none" stroke-width="0" stroke-linecap="butt"/><path d="M235.63208,184.76567c0.264,0.48993 -0.19874,0.67616 -1.1551,1.14058c-0.51208,0.24867 -1.68956,0.86022 -1.91619,0.30124c-0.21225,-0.5235 0.73636,-0.96457 1.2375,-1.23461c0.50114,-0.27004 1.63357,-0.57877 1.83379,-0.20721z" fill="#ffffff" stroke="none" stroke-width="0" stroke-linecap="butt"/></g><g data-paper-data="{&quot;index&quot;:null}"><path d="M238.54627,181.09945c-0.74048,-4.33543 2.3052,-7.90627 4.75256,-8.26743c2.38422,-0.35185 3.12945,-0.00819 4.4467,0.90197c3.39241,2.34398 2.06577,9.59259 -0.29889,10.03591c-2.78382,0.5219 -8.4113,0.19304 -8.90037,-2.67046z" fill="#f8b820" stroke="none" stroke-width="0" stroke-linecap="butt"/><path d="M239.22345,181.43263c-0.09821,-0.64639 3.10594,-2.05175 6.05748,-1.12106c1.2542,0.39548 3.05934,2.29716 2.8441,2.72779c-0.7024,1.36563 -2.02781,1.68688 -3.32458,1.90556c-2.38682,0.4025 -5.29126,-1.63146 -5.57701,-3.51229z" fill="#ffffff" stroke="none" stroke-width="0" stroke-linecap="butt"/><path d="M239.40602,176.0207c-0.3166,0.2771 -1.68524,-4.406 0.79026,-5.49969c0.37265,-0.16463 1.46913,0.25754 2.07187,0.71317c0.60273,0.45562 1.09811,1.68309 1.09811,1.68309c0,0 -1.3381,0.66484 -2.13013,1.23131c-0.79204,0.56648 -1.6065,1.6764 -1.83011,1.87211z" fill="#ffffff" stroke="none" stroke-width="0" stroke-linecap="butt"/><path d="M251.27162,174.066c0.66804,0.54716 0.50256,1.86248 -0.08005,2.89832c-0.64304,1.14328 -1.64424,2.05694 -1.64424,2.05694c0,0 -0.23941,-1.51691 -0.47781,-2.78856c-0.2384,-1.27165 -1.25438,-2.37314 -1.25438,-2.37314c0,0 1.79429,-1.15497 3.45648,0.20644z" fill="#ffffff" stroke="none" stroke-width="0" stroke-linecap="butt"/><g stroke="none" stroke-width="0" stroke-linecap="butt"><path d="M246.21134,179.58115c-0.32212,-0.93511 0.10644,-1.94476 0.95721,-2.25512c0.85077,-0.31037 1.80157,0.19609 2.12368,1.1312c0.32212,0.9351 -0.10643,1.94475 -0.9572,2.25511c-0.85076,0.31036 -1.80158,-0.19609 -2.12369,-1.1312z" fill="#ffffff"/><path d="M248.5513,179.12024c-0.02171,0.51231 -0.40272,0.91224 -0.851,0.89323c-0.44827,-0.019 -0.79408,-0.44972 -0.77237,-0.96205c0.02171,-0.51231 0.42987,-1.00727 0.87815,-0.98826c0.44827,0.019 0.76692,0.54475 0.74521,1.05707z" fill="#000000"/></g><g stroke="none" stroke-width="0" stroke-linecap="butt"><path d="M242.65192,175.80741c0.82141,0.13062 1.34358,1.1402 1.16631,2.25497c-0.17727,1.11476 -0.98685,1.91257 -1.80826,1.78195c-0.8214,-0.13063 -1.34358,-1.1402 -1.16631,-2.25497c0.17727,-1.11476 0.98685,-1.91257 1.80826,-1.78195z" fill="#ffffff"/><path d="M243.16664,177.97924c-0.02171,0.51231 -0.40272,0.91224 -0.851,0.89323c-0.44827,-0.019 -0.79408,-0.44972 -0.77237,-0.96205c0.02171,-0.51231 0.42987,-1.00727 0.87815,-0.98826c0.44827,0.019 0.76692,0.54475 0.74521,1.05707z" fill="#000000"/></g><path d="M243.40687,177.45171c0,0 -0.39476,-1.40939 -0.32714,-1.98484c0.09372,-0.79758 0.84311,-1.25984 0.84311,-1.25984l3.85154,0.87439c0,0 0.20586,1.03323 0.08397,1.58429c-0.09844,0.44505 -1.22196,1.70225 -1.22196,1.70225c0,0 -0.3295,-0.78121 -0.4986,-1.35884c-0.1691,-0.57762 -0.3648,-1.59047 -0.3648,-1.59047l-2.3661,2.03308z" fill="#f8b820" stroke="none" stroke-width="0" stroke-linecap="butt"/><g stroke="none" stroke-width="0" stroke-linecap="butt"><path d="M244.42689,180.49369c0.55185,-0.10346 1.41258,0.24549 1.37382,0.99982c-0.01817,0.3535 -0.43695,0.47066 -1.21145,0.34603c-0.55433,-0.0892 -1.17324,-0.26123 -1.2428,-0.82381c-0.04343,-0.35129 0.52858,-0.41857 1.08043,-0.52203z" fill="#71716f"/><path d="M243.39329,180.94273c-0.08353,-0.26425 0.1253,-0.52004 0.40919,-0.66133c0.28389,-0.14129 0.5661,-0.10517 0.90537,0.00709c0.33927,0.11226 0.91712,0.59886 0.91712,0.59886c0,0 -0.28696,0.542 -1.24748,0.54218c-0.63469,0.00013 -0.83891,-0.0272 -0.9842,-0.4868z" fill="#010101"/><path d="M244.93005,181.2585c-0.02924,-0.15596 0.07349,-0.30609 0.22945,-0.33533c0.15596,-0.02924 0.30608,0.07349 0.33532,0.22944c0.02924,0.15596 -0.07349,0.30608 -0.22944,0.33532c-0.15596,0.02924 -0.30609,-0.07349 -0.33533,-0.22945z" fill="#ffffff"/></g><g data-paper-data="{&quot;index&quot;:null}"><path d="M245.65204,174.76133c0,0 0.86233,-1.6602 1.71331,-2.46577c0.85098,-0.80557 2.39924,-0.86827 2.39924,-0.86827l-0.05957,0.65899c0,0 -1.07496,-0.09472 -1.88165,0.67342c-0.80669,0.76814 -1.63432,2.25119 -1.63432,2.25119z" fill="#767578" stroke="none" stroke-width="0" stroke-linecap="butt"/><path d="M249.07051,171.54815l2.93539,-1.35193l3.06742,2.56427l-3.68655,0.74529z" fill="#ea035a" stroke="none" stroke-width="0" stroke-linecap="butt"/><path d="M249.51901,171.98391c0,0 -0.46137,-0.43801 -0.27329,-0.4051c0.73896,0.1293 5.75668,1.08089 5.75668,1.08089" fill="none" stroke="#000000" stroke-width="0.25" stroke-linecap="round"/><path d="M251.40967,173.51399l-0.86245,-1.69115l1.4807,-1.73303" fill="none" stroke="#000000" stroke-width="0.25" stroke-linecap="round"/></g></g><g data-paper-data="{&quot;index&quot;:null}"><path d="M240.91567,186.21987c0.03822,-1.01656 0.22393,-2.16168 0.22393,-2.16168l0.68166,0.29493c0,0 0.05304,0.69949 0.02496,1.53427c-0.03025,0.89915 -0.1157,3.3429 -0.1157,3.3429l-0.75748,-0.4034c0,0 -0.0956,-1.59045 -0.05737,-2.60701z" fill="#f8b820" stroke="none" stroke-width="0" stroke-linecap="butt"/><g><path d="M243.00616,190.69526c0.65109,2.32678 -1.36793,4.20433 -1.84078,4.07939c-1.31002,-0.32969 -1.78538,-1.34916 -2.38456,-2.99716c-0.72573,-1.9961 1.03899,-4.02398 2.09828,-3.85805c0.34681,0.05433 1.65576,1.09152 2.12706,2.77583z" fill="#ffffff" stroke="none" stroke-width="0" stroke-linecap="butt"/><path d="M240.04921,188.92014l0.95305,0.33585" fill="none" stroke="#808080" stroke-width="0.5" stroke-linecap="round"/><path d="M239.60653,190.39969l0.76387,0.23115" fill="none" stroke="#808080" stroke-width="0.5" stroke-linecap="round"/><path d="M240.22757,191.84517l-0.76744,-0.13733" fill="none" stroke="#808080" stroke-width="0.5" stroke-linecap="round"/><path d="M239.69565,193.13159l0.57826,0.03262" fill="none" stroke="#808080" stroke-width="0.5" stroke-linecap="round"/><path d="M240.05972,193.7163c0,0 -0.46707,-1.75477 -0.23765,-2.87351c0.22942,-1.11874 1.1267,-2.71815 1.1267,-2.71815" fill="none" stroke="#020202" stroke-width="0.25" stroke-linecap="round"/></g></g></g></g></svg>