<svg version="1.1" xmlns="http://www.w3.org/2000/svg" xmlns:xlink="http://www.w3.org/1999/xlink" width="28.66759" height="37.40314" viewBox="0,0,28.66759,37.40314"><g transform="translate(-223.63571,-163.424)"><g data-paper-data="{&quot;isPaintingLayer&quot;:true}" fill-rule="nonzero" stroke-miterlimit="10" stroke-dasharray="" stroke-dashoffset="0" style="mix-blend-mode: normal"><g stroke="none" stroke-width="0" stroke-linecap="butt" stroke-linejoin="miter"><g data-paper-data="{&quot;index&quot;:null}"><g><path d="M249.97144,190.10413c0,0 1.54822,-0.35409 2.03059,0.9008c0.04482,0.11661 -0.21418,0.21557 -0.21418,0.21557l0.33976,0.16459l0.0847,0.78096l-0.24545,-0.0029c0,0 -0.25799,0.9205 -0.23142,1.34479c0.02646,0.42308 0.39052,1.19737 0.39052,1.19737l0.15813,0.1337l0.01921,0.79142l-0.17884,0.00734l-0.03105,0.22816c0,0 0.29244,0.04516 0.09191,0.47656c-0.06443,0.13861 -0.19787,0.62029 -0.19787,0.62029l-0.17383,-0.04403l-0.11355,0.13047c0,0 0.21278,0.17132 0.12247,0.27393c-0.10827,0.123 -0.31337,0.48627 -0.51623,0.66399c-0.07858,0.06885 -0.05043,-0.09991 -0.13155,-0.03926c-0.05284,0.03949 -0.05502,0.07789 -0.11004,0.12c-0.08918,0.06822 0.07086,0.05961 0.0229,0.12979c-0.03924,0.0574 -0.20665,0.16223 -0.35351,0.24401c-0.14687,0.08176 -0.31829,0.11749 -0.31829,0.11749l-0.12572,-0.12165l-0.18538,0.18195c0,0 -0.35679,0.00705 -0.54388,-0.10056c-0.18712,-0.10762 -0.33074,-0.40246 -0.33074,-0.40246c0,0 0.63385,-0.09965 0.96182,-0.29072c2.39915,-2.24913 1.14041,-3.45098 0.61991,-5.29048c-0.24023,-0.84899 -0.0403,-1.3391 -0.29431,-1.84527c-0.2085,-0.41546 -0.54601,-0.58584 -0.54601,-0.58584z" data-paper-data="{&quot;index&quot;:null}" fill="#a87643"/><path d="M248.40903,193.21844c-0.635,-0.79965 -2.801,-3.52705 -2.71065,-3.82497c0.13124,-0.37951 1.39456,-1.67264 1.39456,-1.67264c0,0 0.48643,0.49487 0.74225,0.81288c0.25583,0.31801 1.08949,1.25761 1.08949,1.25761c0,0 1.37465,0.23676 1.67519,0.85653c0.40298,0.83107 0.20724,3.83366 0.20724,3.83366c0,0 -1.28915,0.13341 -2.39804,-1.26305z" data-paper-data="{&quot;index&quot;:null}" fill="#f3e2e2"/><path d="M245.77195,188.48724c0.2845,0.02175 -0.05071,0.84361 -0.05071,0.84361c0,0 -0.00203,0.26278 0.18163,0.51402c0.30215,0.41334 0.81716,0.98203 1.2598,1.63594c0.50398,0.74453 1.12688,1.57255 1.49932,1.9452c0.45946,0.45973 1.77407,1.07473 2.098,0.9089c0.03172,-0.01622 -0.0773,-0.29997 -0.1664,-0.47788c-0.19806,-0.49132 -0.20266,-0.3179 -0.41195,-0.99991c-0.15739,-0.55267 0.6326,-0.42824 0.6326,-0.42824c0,0 1.49989,2.85305 0.44259,4.5688c-0.79703,1.29337 -1.98608,1.16087 -1.99522,1.16138c-0.0164,0.00092 -0.82784,-0.67742 -1.17036,-1.29259c-0.0952,-0.17101 0.06943,-1.3239 -0.32395,-2.0985c-0.36604,-0.72078 -0.93152,-1.96606 -1.42517,-2.71196c-0.88426,-1.33607 -1.84007,-2.22215 -1.72802,-2.43162c0.37398,-0.69919 0.98097,-1.15064 1.15788,-1.13711z" data-paper-data="{&quot;index&quot;:null}" fill="#fc6293"/><path d="M247.85667,194.95296c0,0 -1.01687,-1.89755 -1.32288,-2.44631c-0.4236,-0.75962 -0.97261,-1.38871 -1.88023,-2.55309c-0.15791,-0.20258 0.06074,-0.572 0.06074,-0.572l0.13644,-0.00769c0,0 -0.16551,0.35648 -0.06099,0.52781c0.20776,0.34055 1.1265,1.48643 1.82352,2.45379c0.52835,0.73327 1.09384,1.96719 1.09384,1.96719z" data-paper-data="{&quot;index&quot;:null}" fill="#bfa4a4"/><path d="M248.36099,191.72552l-0.79281,-0.92255l0.49354,-0.40393l0.73384,0.92585z" data-paper-data="{&quot;index&quot;:null}" fill="#fffff6"/><path d="M247.31191,190.23691l-0.59104,-0.82763l0.43256,-0.3742l0.60334,0.75125z" data-paper-data="{&quot;index&quot;:null}" fill="#fffff6"/><path d="M245.56516,191.05361l-0.60838,-0.68527c0,0 0.64306,-0.17071 1.01275,-0.37244c0.36965,-0.20173 0.7394,-0.58377 0.7394,-0.58377l0.60202,0.81774c0,0 -0.57555,0.45516 -1.02381,0.63741c-0.44826,0.18225 -0.72192,0.18632 -0.72192,0.18632z" data-paper-data="{&quot;index&quot;:null}" fill="#754c86"/><path d="M247.60352,192.32675c-0.34158,0.21904 -0.90461,0.45408 -0.90461,0.45408c0,0 -0.19969,-0.34213 -0.33369,-0.55733c-0.13403,-0.21518 -0.3958,-0.61394 -0.3958,-0.61394c0,0 0.63235,-0.20321 0.97623,-0.37928c0.34388,-0.17607 0.66474,-0.45196 0.66474,-0.45196l0.78281,0.94116c0,0 -0.44809,0.38825 -0.78964,0.60732z" data-paper-data="{&quot;index&quot;:null}" fill="#754c86"/><path d="M246.97186,187.87634l-1.46711,0.73347c0,0 0.04691,-0.0922 0.3479,-0.27458c0.30099,-0.1824 0.56465,-0.38137 0.68003,-0.44378c0.19064,-0.1031 0.5507,-0.15319 0.5507,-0.15319z" data-paper-data="{&quot;index&quot;:null}" fill="#ae8484"/><path d="M244.97448,189.48834c-0.12203,-0.15983 0.115,-0.49845 0.79536,-1.01796c0.68035,-0.5195 1.19245,-0.57982 1.19245,-0.57982c0,0 -0.45894,0.52057 -0.70811,0.77692c-0.50199,0.53145 -0.38456,0.52101 -0.69996,0.73886c-0.31538,0.21787 -0.48168,0.20739 -0.57249,0.08846z" data-paper-data="{&quot;index&quot;:null}" fill="#532c31"/></g><path d="M245.64603,188.48992c0,0 -0.32494,-0.66087 -0.21007,-0.99958c0.11488,-0.33871 0.36763,-0.63206 0.70531,-0.46056c0.33766,0.17148 0.28945,0.95728 0.28945,0.95728z" fill="#f3e2e2"/></g><g data-paper-data="{&quot;index&quot;:null}"><path d="M243.52056,183.85904l1.8528,2.92596l1.02418,1.83514l-0.84751,0.86392l-1.0417,-1.62354l-1.96401,-3.19125z" data-paper-data="{&quot;index&quot;:null}" fill="#8e5173"/><path d="M245.1041,186.36818l0.26923,0.41689l1.02418,1.83514l-0.84751,0.86392l-1.0417,-1.62354l-0.38618,-0.65686z" data-paper-data="{&quot;index&quot;:null}" fill="#c5c0b5"/><path d="M244.25776,187.43755l-0.1468,-0.23263l0.98603,-0.83278l0.15186,0.21032z" fill="#af2753"/><path d="M244.51685,187.84809l-0.1468,-0.23263l0.98603,-0.83278l0.15186,0.21032z" fill="#af2753"/></g></g><g data-paper-data="{&quot;index&quot;:null}" stroke="none" stroke-width="0" stroke-linecap="butt" stroke-linejoin="miter"><path d="M238.87131,189.03578c0,0 -0.50364,-0.60511 -0.33278,-0.94309c0.17086,-0.33799 0.54818,-0.25096 0.84112,-0.04578c0.29297,0.20517 0.4218,0.93024 0.4218,0.93024z" fill="#fc6293"/><g><path d="M237.128,192.47485c0,0 -0.25311,0.30629 -0.27871,0.79415c-0.03118,0.59435 0.36786,0.98194 0.49445,1.9005c0.27428,1.99029 -0.43092,3.6779 2.82677,4.83184c0.39623,0.04571 1.04848,-0.12554 1.04848,-0.12554c0,0 -0.01399,0.34437 -0.14876,0.52684c-0.13478,0.18247 -0.48122,0.32607 -0.48122,0.32607l-0.25517,-0.09702l-0.06977,0.1701c0,0 -0.18011,0.03786 -0.35595,0.02105c-0.17583,-0.01679 -0.3812,-0.0472 -0.44317,-0.0859c-0.07578,-0.04733 0.08193,-0.10649 -0.03266,-0.13458c-0.07069,-0.01735 -0.08896,-0.0534 -0.15649,-0.06914c-0.10363,-0.02419 -0.00541,0.12638 -0.11008,0.09326c-0.2702,-0.08557 -0.62078,-0.34885 -0.77685,-0.42163c-0.1302,-0.0607 0.0024,-0.31533 0.0024,-0.31533l-0.1643,-0.07773l-0.14878,0.11567c0,0 -0.33149,-0.4075 -0.45195,-0.51376c-0.37489,-0.33076 -0.1124,-0.49749 -0.1124,-0.49749l-0.12605,-0.2066l-0.17526,0.06832l-0.3151,-0.76999l0.09586,-0.19536c0,0 0.02411,-0.89884 -0.12874,-1.3173c-0.15328,-0.41966 -0.78965,-1.19708 -0.78965,-1.19708l-0.23508,0.10623l-0.24765,-0.78754l0.25771,-0.30166c0,0 -0.29104,0.01388 -0.29704,-0.11726c-0.06454,-1.41139 1.57518,-1.7231 1.57518,-1.7231z" data-paper-data="{&quot;index&quot;:null}" fill="#a87643"/><path d="M239.94489,194.81442c-0.47891,1.8118 -1.7762,2.22676 -1.7762,2.22676c0,0 -1.45403,-2.80807 -1.41638,-3.77802c0.02808,-0.72334 1.25165,-1.53068 1.25165,-1.53068c0,0 0.40652,-1.25597 0.51875,-1.66995c0.11225,-0.41398 0.37193,-1.09542 0.37193,-1.09542c0,0 1.76124,0.71242 2.04756,1.02244c0.21256,0.24873 -0.72303,3.78741 -0.99727,4.82488z" data-paper-data="{&quot;index&quot;:null}" fill="#fc6293"/><path d="M240.48932,189.14814c0.1646,-0.08758 0.93925,0.09121 1.59399,0.60665c0.19616,0.15441 -0.3505,1.41034 -0.63861,3.0693c-0.16083,0.92617 -0.18034,2.36335 -0.2289,3.21154c-0.05221,0.91154 0.59225,1.95201 0.57266,2.15679c-0.07046,0.73661 -0.56569,1.73166 -0.58186,1.7377c-0.00904,0.00339 -1.09788,0.63213 -2.41034,-0.27705c-1.74108,-1.20608 -1.4997,-4.58493 -1.4997,-4.58493c0,0 0.70805,-0.45278 0.78951,0.14562c0.08598,0.74481 0.00844,0.57977 0.02488,1.13628c-0.0108,0.2088 0.00385,0.52793 0.04123,0.53018c0.38174,0.02313 1.38983,-1.11181 1.63838,-1.74806c0.20148,-0.51573 0.45038,-1.58671 0.62174,-2.51588c0.15052,-0.81608 0.40658,-1.58067 0.52324,-2.10592c0.07091,-0.31926 -0.04182,-0.5714 -0.04182,-0.5714c0,0 -0.66912,-0.64992 -0.4044,-0.79076z" data-paper-data="{&quot;index&quot;:null}" fill="#f3e2e2"/><path d="M241.08604,195.58164c0,0 0.02428,-1.42628 0.22385,-2.35489c0.26328,-1.22508 0.66473,-2.71549 0.7212,-3.13089c0.02839,-0.20898 -0.28118,-0.48241 -0.28118,-0.48241l0.13458,-0.05011c0,0 0.36619,0.2635 0.29957,0.52505c-0.38295,1.50352 -0.64632,2.34056 -0.73393,3.25038c-0.06328,0.65726 -0.24238,2.91266 -0.24238,2.91266z" data-paper-data="{&quot;index&quot;:null}" fill="#766565"/><path d="M238.77465,193.15447l0.3162,-1.20065l0.64539,0.18084l-0.37436,1.22233z" data-paper-data="{&quot;index&quot;:null}" fill="#fffff6"/><path d="M239.12617,191.23539l0.26417,-0.97752l0.57417,0.17791l-0.22017,1.0459z" data-paper-data="{&quot;index&quot;:null}" fill="#fffff6"/><path d="M241.77015,191.53167c0,0 -0.26516,0.11144 -0.77353,0.12493c-0.50832,0.0135 -1.25429,-0.1821 -1.25429,-0.1821l0.23487,-1.04099c0,0 0.51698,0.21194 0.95786,0.25034c0.4409,0.03841 1.13194,-0.06832 1.13194,-0.06832z" data-paper-data="{&quot;index&quot;:null}" fill="#754c86"/><path d="M241.40683,193.67235c0,0 -0.64113,0.01105 -1.06228,-0.05585c-0.42116,-0.06689 -1.01619,-0.25182 -1.01619,-0.25182l0.3569,-1.23601c0,0 0.42521,0.13037 0.83046,0.15492c0.40526,0.02456 1.09968,-0.04635 1.09968,-0.04635c0,0 -0.08394,0.49424 -0.12226,0.75789c-0.03831,0.26367 -0.08635,0.6772 -0.08635,0.6772z" data-paper-data="{&quot;index&quot;:null}" fill="#754c86"/><path d="M238.91112,188.97998c0,0 0.36775,-0.10358 0.59474,-0.08468c0.13739,0.01143 0.4751,0.09184 0.84174,0.14057c0.36664,0.04872 0.45066,0.1177 0.45066,0.1177l-1.72155,-0.08773z" data-paper-data="{&quot;index&quot;:null}" fill="#ae8484"/><path d="M241.67482,189.7851c-0.03729,0.15276 -0.19295,0.23296 -0.58841,0.15615c-0.39547,-0.0768 -0.27802,-0.11623 -0.9853,-0.41626c-0.34793,-0.14177 -1.00918,-0.44948 -1.00918,-0.44948c0,0 0.5184,-0.15779 1.39235,0.05555c0.87395,0.21335 1.24488,0.43943 1.19476,0.64474z" data-paper-data="{&quot;index&quot;:null}" fill="#532c31"/></g></g><g data-paper-data="{&quot;index&quot;:null}" stroke="none" stroke-width="0" stroke-linecap="butt" stroke-linejoin="miter"><path d="M242.04992,184.44274l-0.66255,4.08722l-0.25063,1.47917l-1.34228,-0.61263l0.23603,-1.1654l0.68689,-3.71388z" data-paper-data="{&quot;index&quot;:null}" fill="#8e5173"/><path d="M241.5754,187.25757l-0.18811,1.27237l-0.25063,1.47917l-1.34228,-0.61263l0.23603,-1.1654l0.23506,-1.24674z" data-paper-data="{&quot;index&quot;:null}" fill="#a71e48"/><path d="M241.5754,187.25757l-0.03574,0.26443l-1.31375,-0.3048l0.03955,-0.23285z" data-paper-data="{&quot;index&quot;:null}" fill="#a19589"/><path d="M241.48854,187.74196l-0.03574,0.26443l-1.31375,-0.30479l0.03956,-0.23286z" data-paper-data="{&quot;index&quot;:null}" fill="#a19589"/></g><g data-paper-data="{&quot;index&quot;:null}" stroke-width="0" stroke-linecap="butt" stroke-linejoin="miter"><g data-paper-data="{&quot;index&quot;:null}"><path d="M244.60588,164.57109c0.42926,0.97298 -0.01443,2.11101 -0.99099,2.54185c-0.97656,0.43084 -2.1162,-0.00865 -2.54546,-0.98163c-0.42926,-0.97298 0.01441,-2.111 0.99097,-2.54184c0.97656,-0.43083 2.11622,0.00865 2.54548,0.98163z" fill="#e0cb17" stroke="none"/><path d="M243.639,166.99212c-0.60333,0.26618 -1.30739,-0.00534 -1.57259,-0.60645c-0.2652,-0.60112 0.0089,-1.30417 0.61223,-1.57035c0.60333,-0.26618 1.30739,0.00534 1.57259,0.60645c0.2652,0.60111 -0.0089,1.30417 -0.61223,1.57035z" fill="#e0cb17" stroke="#000000"/><path d="M243.9036,167.52554c-0.53551,0.23342 -1.33915,0.20142 -1.33915,0.20142l0.06056,-0.56218c0,0 0.71817,0.04673 1.12328,-0.16014c0.40512,-0.20688 0.81687,-0.83062 0.81687,-0.83062l0.47433,0.53552c0,0 -0.66723,0.61172 -1.1359,0.81601z" fill="#dbded5" stroke="#000000"/></g><g data-paper-data="{&quot;index&quot;:null}" stroke="none"><path d="M239.87604,173.40332c0.18407,-0.08121 0.46992,0.16268 0.63848,0.54474c0.16855,0.38205 0.15597,0.75761 -0.02809,0.83882c-0.18407,0.0812 -0.46991,-0.16269 -0.63847,-0.54475c-0.16856,-0.38206 -0.15599,-0.7576 0.02807,-0.83881z" fill="#000000"/><path d="M240.71938,178.79675c0.19173,-0.08459 1.7694,1.56643 1.7694,1.56643c0,0 -0.82657,0.72829 -1.0183,0.81288c-0.19172,0.08458 -1.00119,-0.87808 -1.07536,-1.04619c-0.07416,-0.16811 0.13255,-1.24853 0.32428,-1.33312z" fill="#807d5a"/><path d="M240.17719,174.67243l-0.21874,-0.24509l2.0724,-7.36045l0.18139,0.08526z" fill="#6e6e73"/><path d="M241.72514,167.75269l0.43572,0.16038l-0.52452,1.71899l-0.40795,-0.17263z" fill="#ddcb1e"/></g></g><g data-paper-data="{&quot;index&quot;:null}" stroke-width="0" stroke-linecap="butt" stroke-linejoin="miter"><g data-paper-data="{&quot;index&quot;:null}"><path d="M223.91619,175.19027c-0.63182,-1.20913 -0.16021,-2.70339 1.05337,-3.33754c1.21359,-0.63415 2.70957,-0.16803 3.34139,1.04109c0.63182,1.20913 0.16021,2.70338 -1.05337,3.33753c-1.21358,0.63415 -2.70957,0.16804 -3.34139,-1.04108z" fill="#e0cb17" stroke="none"/><path d="M225.05285,175.51563c-0.39034,-0.747 -0.09898,-1.67016 0.65077,-2.06193c0.74975,-0.39178 1.67396,-0.10383 2.0643,0.64318c0.39033,0.747 0.09899,1.67017 -0.65076,2.06194c-0.74975,0.39178 -1.67397,0.10382 -2.06431,-0.64319z" fill="#e0cb17" stroke="#000000"/><path d="M227.44008,176.85105c-0.57992,0.30632 -1.72722,0.48558 -1.72722,0.48558l-0.15721,-0.90417c0,0 0.95489,0.08649 1.48653,-0.15405c0.53165,-0.24054 1.05963,-0.99792 1.05963,-0.99792l0.61206,0.38928c0,0 -0.61116,0.83127 -1.27378,1.18126z" fill="#dbded5" stroke="#000000"/></g><g data-paper-data="{&quot;index&quot;:null}" stroke="none"><path d="M236.58016,180.33089c-0.01408,-0.47127 -0.89519,-2.79359 0.26692,-3.35705c0.18036,-0.08746 2.15192,0.3466 2.84455,1.1656c0.94218,1.11407 0.6393,2.72675 0.6393,2.72675l-2.77008,1.42559c0,0 -0.96665,-1.48964 -0.98072,-1.9609z" fill="#e4dcaa"/><path d="M236.55628,177.5181c0.22874,-0.11953 0.61529,0.16846 0.86339,0.64325c0.24809,0.47479 0.26378,0.95658 0.03504,1.0761c-0.22873,0.11953 -0.61528,-0.16847 -0.86337,-0.64326c-0.2481,-0.4748 -0.26379,-0.95657 -0.03506,-1.07609z" fill="#000000"/><path d="M238.70739,184.15707c-0.52318,-0.68288 -1.15629,-1.87646 -1.15629,-1.87646c0,0 0.34208,-0.56828 0.61524,-0.83227c0.27316,-0.264 0.78405,-0.5891 0.78405,-0.5891l1.45471,0.12541c0,0 1.56665,2.55247 1.7553,2.88564c0.37991,0.671 -0.61958,1.84134 -0.61958,1.84134l-1.26997,0.11898c0,0 -1.0403,-0.99063 -1.56349,-1.67351z" fill="#dfcc17"/><path d="M241.44221,185.70816c0,0 -0.39236,-2.9031 -0.15408,-3.02761c0.23828,-0.1245 1.48685,0.53308 1.59601,0.74198c0.10916,0.2089 0.42633,1.79094 0.18805,1.91546c-0.23827,0.1245 -1.62997,0.37019 -1.62997,0.37019z" fill="#807d5a"/><path d="M228.41958,174.85656l0.05972,-0.25009l9.03759,3.81387l0.07062,0.41546z" fill="#6e6e73"/><path d="M231.52012,175.71706l-0.15347,0.54715l-2.14312,-0.85008l0.18799,-0.56517z" fill="#ddcb1e"/></g></g><path d="M243.6139,171.47306c0,0 -0.91004,-0.65545 -1.08826,-1.27514c-0.1782,-0.61967 -0.34432,-2.02309 0.17179,-2.66889c0.68775,-0.86059 0.81706,1.46802 0.81706,1.46802c0,0 0.23413,-0.34351 0.45766,-0.90202c0.39566,-0.98858 0.74377,-2.02512 1.04561,-2.03674c0.54132,-0.02083 -0.01154,2.20302 -0.01154,2.20302c0,0 1.09386,-2.30174 1.46395,-2.16783c0.35785,0.12948 -0.28715,2.56759 -0.28715,2.56759c0,0 0.93632,-1.64264 1.37888,-1.71019c0.4154,0.24844 -0.51648,2.31963 -0.51648,2.31963c0,0 1.10874,-1.30531 1.50354,-1.26034c0.23415,0.17304 -0.41992,1.44976 -0.92161,2.29221c-0.50169,0.84244 -0.83537,1.07584 -1.06352,1.33878c-0.3513,0.40486 -0.69337,0.46519 -0.69337,0.46519l-2.25662,-0.63325z" data-paper-data="{&quot;index&quot;:null}" fill="#ffffff" stroke="none" stroke-width="0" stroke-linecap="butt" stroke-linejoin="miter"/><g data-paper-data="{&quot;index&quot;:null}" stroke="none" stroke-width="0" stroke-linecap="butt" stroke-linejoin="miter"><path d="M241.78433,177.83977c0.14467,-1.17375 0.5154,-2.50298 0.79659,-3.37033c0.40201,-1.24007 0.7237,-2.35636 0.7237,-2.35636c0,0 0.54208,-0.0408 0.79429,0.1634c0.25222,0.20421 0.35858,0.23616 0.35858,0.23616c0,0 -0.70395,1.92932 -0.86613,2.4296c-0.26604,0.82061 -0.56063,1.87441 -0.87222,3.08619c-0.07808,0.30363 -0.28187,0.439 -0.59475,0.37205c-0.21021,-0.045 -0.38797,-0.17208 -0.34006,-0.56074z" data-paper-data="{&quot;index&quot;:null}" fill="#fff9fb"/><g data-paper-data="{&quot;index&quot;:null}"><path d="M245.30185,173.00265c-0.54053,0.91732 -1.22306,0.65799 -1.96064,0.20737c-0.73757,-0.45061 -1.26536,-0.93068 -0.71034,-1.83916c0.55501,-0.90846 1.22306,-0.65799 1.96064,-0.20737c0.73757,0.45061 1.25074,0.92206 0.71034,1.83916z" fill="#fed000"/><path d="M245.70638,173.2498c-0.43404,0.75288 -1.28918,0.35909 -2.25018,-0.22802c-0.961,-0.5871 -1.68281,-1.15673 -1.22989,-1.89807c0.45291,-0.74135 1.28918,-0.35909 2.25018,0.22802c0.961,0.5871 1.66382,1.14537 1.22989,1.89807z" fill="#e68b9c"/></g></g><path d="M242.49106,184.28938c0,0 -0.81997,1.96121 -1.48779,2.44298c-0.7257,0.52352 -2.88097,1.05474 -2.88097,1.05474l2.24335,-1.75577l0.99929,-1.03075z" data-paper-data="{&quot;index&quot;:null}" fill="#f79db4" stroke="none" stroke-width="0" stroke-linecap="butt" stroke-linejoin="miter"/><path d="M246.46785,183.07035c0,0 -0.95585,2.7175 -2.91048,3.58101c-2.38407,0.834 -3.83167,-0.25222 -3.83167,-0.25222l0.11743,-0.50931c0,0 1.15434,1.41903 3.563,0.39978c2.06079,-0.91828 2.76525,-3.57261 2.76525,-3.57261z" data-paper-data="{&quot;index&quot;:null}" fill="#ee3377" stroke="none" stroke-width="0" stroke-linecap="butt" stroke-linejoin="miter"/><path d="M243.43215,179.90328l2.78706,2.88099c0,0 -1.26361,3.26074 -3.1192,3.79395c-2.42984,0.6538 -3.26317,-0.54206 -3.26317,-0.54206c0,0 0.2522,-1.28113 0.31391,-2.1637c0.06171,-0.88257 0.02847,-2.73322 0.02847,-2.73322z" data-paper-data="{&quot;index&quot;:null}" fill="#fcf4f4" stroke="none" stroke-width="0" stroke-linecap="butt" stroke-linejoin="miter"/><path d="M245.93784,182.51336c0,0 -0.77879,2.46835 -2.73341,3.33186c-2.80038,0.97903 -3.24485,-0.21428 -3.24485,-0.21428l-0.00055,-0.16788c0,0 0.76649,1.14761 3.17515,0.12834c2.156,-0.95881 2.6812,-3.20455 2.6812,-3.20455z" data-paper-data="{&quot;index&quot;:null}" fill="#ee3377" stroke="none" stroke-width="0" stroke-linecap="butt" stroke-linejoin="miter"/><path d="M241.04501,181.31074l0.18712,-0.67372l1.46153,-0.58984l0.51896,0.34668z" data-paper-data="{&quot;index&quot;:null}" fill="#aa4455" stroke="none" stroke-width="0" stroke-linecap="butt" stroke-linejoin="miter"/><path d="M242.4668,178.43106c0.31807,0.53626 0.64123,1.53548 0.64123,1.53548l-3.15348,1.20548l-0.14879,-0.99958l-0.648,-2.16674c0,0 0.70973,-0.14436 1.15098,-0.28329c0.44126,-0.13894 1.07532,-0.41764 1.07532,-0.41764c0,0 0.7647,0.59002 1.08275,1.12627z" data-paper-data="{&quot;index&quot;:null}" fill="#6d3b75" stroke="none" stroke-width="0" stroke-linecap="butt" stroke-linejoin="miter"/><g data-paper-data="{&quot;index&quot;:null}" stroke="none" stroke-width="0" stroke-linecap="butt" stroke-linejoin="miter"><path d="M245.60544,184.15707l-2.79891,-4.3159l0.55901,-0.13968c0,0 1.34831,0.7567 2.10441,1.38524c0.7561,0.62854 1.57743,1.67542 1.57743,1.67542c0,0 -0.22352,0.74037 -1.04163,1.23697c-0.19968,0.12122 -0.4003,0.15795 -0.4003,0.15795z" fill="#fab5b7"/><path d="M246.14117,183.85733c0.58092,-0.37466 0.89734,-1.14949 0.89734,-1.14949l0.24209,0.33331c0,0 -0.34506,0.84174 -0.93639,1.22914c-0.65963,0.43214 -0.52957,0.28273 -0.52957,0.28273l-0.19862,-0.35273c0,0 -0.1211,0.07382 0.52515,-0.34297z" fill="#fed000"/></g><path d="M243.15565,180.53111c0,0 -0.90282,-0.7502 -1.15676,-1.21449c-0.04547,-0.08312 -0.12636,-0.25368 -0.12636,-0.25368c0,0 -0.01684,-0.30522 0.46446,-1.02039c0.10545,-0.15671 -0.00548,-0.2086 -0.04226,-0.42643c-0.01161,-0.06881 -0.32351,-0.30165 -0.32351,-0.30165c0,0 0.10628,-0.10026 0.20609,-0.03465c0.29903,0.49652 0.67467,1.60561 0.67467,1.60561l0.7167,0.9637z" data-paper-data="{&quot;index&quot;:null}" fill="#efe6e6" stroke="none" stroke-width="0" stroke-linecap="butt" stroke-linejoin="miter"/><path d="M239.62475,181.87381l0.12138,-1.68218c0,0 -0.80321,-1.71436 -0.63839,-2.14261c0.0429,-0.11148 0.58105,-0.16399 0.58105,-0.16399c0,0 0.1816,-0.0233 0.28425,0.27249c0.021,0.06052 -0.07265,0.391 -0.04202,0.45369c0.09699,0.19846 0.21177,0.28535 0.38877,0.35127c0.80782,0.30088 0.97196,0.55878 0.97196,0.55878c0,0 0.03361,0.18577 0.04509,0.2798c0.06407,0.52531 -0.1613,1.60236 -0.1613,1.60236z" data-paper-data="{&quot;index&quot;:null}" fill="#efe6e6" stroke="none" stroke-width="0" stroke-linecap="butt" stroke-linejoin="miter"/><path d="M239.38068,178.24536l0.14945,-0.35964c0,0 0.66594,-0.17236 0.7437,-0.17121c0.13624,0.04073 0.38263,0.39088 0.5711,0.71582c0.15474,0.26678 0.50438,1.04507 0.50438,1.04507c0,0 -0.17502,-0.10096 -0.35877,-0.18425c-0.26577,-0.12047 -0.54159,-0.21734 -0.75052,-0.35825c-0.36744,-0.26145 -0.25313,-0.88534 -0.25313,-0.88534z" data-paper-data="{&quot;index&quot;:null}" fill="#fd4275" stroke="none" stroke-width="0" stroke-linecap="butt" stroke-linejoin="miter"/><path d="M241.18678,180.97895c0,0 0.19073,-0.96054 -0.01166,-1.40701c-0.13718,-0.30264 -1.35445,-0.71614 -1.35445,-0.71614l0.11903,-0.15562c0,0 1.23583,0.52333 1.35746,0.80181c0.23037,0.5274 0.03472,1.4496 0.03472,1.4496z" data-paper-data="{&quot;index&quot;:null}" fill="#fed000" stroke="none" stroke-width="0" stroke-linecap="butt" stroke-linejoin="miter"/><path d="M239.88468,178.73262l0.04885,-0.58051l-0.71097,0.2469l0.12959,-0.45478l0.18916,-0.02312l-0.12771,0.26989l0.63665,-0.19946l0.00793,0.65241l1.10957,0.54786c0,0 0.11474,0.10954 0.13175,0.17049c0.01701,0.06095 0.03707,0.28654 0.03707,0.28654c0,0 -0.06716,-0.15271 -0.19892,-0.28c-0.12868,-0.1243 -0.32079,-0.22261 -0.4245,-0.27531c-0.24461,-0.12429 -0.82849,-0.36092 -0.82849,-0.36092z" data-paper-data="{&quot;index&quot;:null}" fill="#fff9f9" stroke="none" stroke-width="0" stroke-linecap="butt" stroke-linejoin="miter"/><path d="M240.99786,178.06436l-0.50561,-0.16157c0,0 -0.05969,-0.06867 -0.102,-0.10412c-0.04229,-0.03544 -0.09481,-0.0879 -0.09481,-0.0879c0,0 0.35846,-0.12909 0.5381,-0.19936c0.18238,-0.07133 0.54809,-0.22551 0.54809,-0.22551z" data-paper-data="{&quot;index&quot;:null}" fill="#fff9f9" stroke="none" stroke-width="0" stroke-linecap="butt" stroke-linejoin="miter"/><path d="M240.88921,177.83012l-0.49562,-0.15837l0.71705,-0.2728z" data-paper-data="{&quot;index&quot;:null}" fill="#fd4275" stroke="none" stroke-width="0" stroke-linecap="butt" stroke-linejoin="miter"/><path d="M241.95259,177.27631c0,0 0.43768,0.19661 0.33675,0.63614c-0.06253,0.24413 -0.14205,0.69351 -0.26067,0.96011c-0.082,0.18433 -0.14573,0.37605 -0.14573,0.37605c0,0 -0.25577,-0.814 -0.31736,-1.11619c-0.07501,-0.36808 -0.22347,-0.74143 -0.14872,-0.86237c0.05735,-0.05251 0.42433,-0.27237 0.42433,-0.27237l0.64884,-0.02312z" data-paper-data="{&quot;index&quot;:null}" fill="#fd4275" stroke="none" stroke-width="0" stroke-linecap="butt" stroke-linejoin="miter"/><path d="M242.85859,180.34724c0,0 -0.75891,-0.55928 -0.93712,-1.1065c-0.0941,-0.28897 0.48187,-1.50115 0.48187,-1.50115l0.05049,0.04662c0,0 -0.4932,1.10838 -0.39468,1.42572c0.14535,0.46814 0.92608,1.05935 0.92608,1.05935z" data-paper-data="{&quot;index&quot;:null}" fill="#fed000" stroke="none" stroke-width="0" stroke-linecap="butt" stroke-linejoin="miter"/><path d="M242.466,177.72728c0,0 -0.27918,0.56479 -0.37943,0.82019c-0.04249,0.10828 -0.12076,0.30939 -0.13435,0.48779c-0.01391,0.18267 0.03734,0.34143 0.03734,0.34143c0,0 -0.13488,-0.18194 -0.16268,-0.2388c-0.0278,-0.05684 -0.0148,-0.21496 -0.0148,-0.21496l0.46532,-1.14663l-0.42752,-0.4929l0.60836,-0.2739l-0.67714,0.0217l0.35442,-0.25945l0.6213,0.152l-0.71301,0.40212l0.42219,0.40142z" data-paper-data="{&quot;index&quot;:null}" fill="#fff9f9" stroke="none" stroke-width="0" stroke-linecap="butt" stroke-linejoin="miter"/><g stroke="none" stroke-linecap="butt" stroke-linejoin="miter"><path d="M243.71778,183.27606c0,0 1.27448,0.7638 1.96129,1.32591c0.10942,0.08956 0.36724,1.15583 0.41128,1.64851c0.02405,0.26909 0.07211,0.77017 -0.32988,0.98101c-0.10249,0.05374 -0.66663,0.04066 -0.66663,0.04066l-0.18485,0.39665c0,0 -0.23114,0.12049 -0.38872,0.11167c-0.15758,-0.00882 -0.42214,-0.13702 -0.42214,-0.13702c0,0 -0.155,0.08979 -0.25076,0.17522c-0.31253,0.27883 -0.5986,0.0097 -0.5986,0.0097c0,0 -0.20356,0.22824 -0.41945,0.27827c-0.34225,0.07927 -0.78137,-0.02062 -0.9891,-0.14927c-0.3529,-0.2185 -1.16524,-1.04244 -1.0405,-1.40828c0.19428,-0.56981 0.86338,-0.2502 0.86338,-0.2502c0,0 -0.35411,-0.51915 -0.37698,-0.89883c-0.03524,-0.58464 0.1857,-0.89326 0.1857,-0.89326l2.24595,-1.23075z" data-paper-data="{&quot;index&quot;:null}" fill="#f44a7d" stroke-width="0"/><g data-paper-data="{&quot;index&quot;:null}"><path d="M241.3373,180.74299c0.6746,1.11549 1.30816,2.08923 1.30816,2.08923c0,0 -0.32389,0.43659 -0.64334,0.49367c-0.31947,0.05707 -0.41322,0.1166 -0.41322,0.1166c0,0 -0.99819,-1.79485 -1.27034,-2.24487c-0.4464,-0.73818 0.5469,-1.23485 1.01873,-0.45463z" data-paper-data="{&quot;index&quot;:null}" fill="#4c2b5c" stroke-width="0"/><g data-paper-data="{&quot;index&quot;:null}" fill="none" stroke-width="1" font-family="sans-serif" font-weight="normal" font-size="12" text-anchor="start"/></g><path d="M241.06481,184.23376c-0.48089,-0.94994 0.10567,-1.3848 0.88295,-1.76281c0.7773,-0.37802 1.46624,-0.56348 1.93183,0.39389c0.46561,0.95737 -0.10567,1.38481 -0.88296,1.76281c-0.7773,0.37802 -1.45106,0.55583 -1.93183,-0.39389z" data-paper-data="{&quot;index&quot;:null}" fill="#fed000" stroke-width="0"/><path d="M240.6385,184.44105c-0.39983,-0.77159 0.39302,-1.27924 1.40574,-1.77177c1.01275,-0.49252 1.88174,-0.79306 2.26169,-0.0118c0.37994,0.78126 -0.39302,1.27924 -1.40574,1.77177c-1.01275,0.49252 -1.86193,0.78319 -2.26169,0.0118z" data-paper-data="{&quot;index&quot;:null}" fill="#e68b9c" stroke-width="0"/><path d="M242.78945,186.81364l0.16738,-0.48433l0.48433,0.16737l-0.16738,0.48434z" data-paper-data="{&quot;index&quot;:null}" fill="#baba3e" stroke-width="NaN"/><path d="M243.70999,186.46954l0.16738,-0.48433l0.48433,0.16737l-0.16737,0.48434z" data-paper-data="{&quot;index&quot;:null}" fill="#baba3e" stroke-width="NaN"/><path d="M244.7143,186.08472l0.16737,-0.48434l0.48433,0.16738l-0.16737,0.48433z" data-paper-data="{&quot;index&quot;:null}" fill="#baba3e" stroke-width="NaN"/><path d="M246.00492,186.00097l-0.19593,-0.31531l0.02879,-0.38043l0.55702,0.24275z" data-paper-data="{&quot;index&quot;:null}" fill="#baba3e" stroke-width="0"/></g><path d="M241.13508,180.6083c0,0 -0.67929,0.82075 -0.81652,0.64069c-0.4464,-0.73818 -0.96721,-2.07449 -0.96721,-2.07449c0,0 -0.13886,-0.67392 0.15294,-0.79052c0.2918,-0.1166 0.50166,0.16968 0.70538,0.44754c0.20372,0.27787 0.92541,1.77678 0.92541,1.77678z" data-paper-data="{&quot;index&quot;:null}" fill="#edbb82" stroke="none" stroke-width="0" stroke-linecap="butt" stroke-linejoin="miter"/><path d="M237.74796,172.40039c0,0 -1.33886,0.04499 -1.85911,0.90016c-0.8409,1.38226 0.75124,2.68295 0.75124,2.68295c0,0 -1.17448,-0.76082 -1.16053,-1.80064c0.0092,-0.68644 0.1166,-1.04097 0.70294,-1.44079c0.65702,-0.44801 1.56545,-0.3417 1.56545,-0.3417z" data-paper-data="{&quot;index&quot;:null}" fill="#000000" stroke="none" stroke-width="0" stroke-linecap="butt" stroke-linejoin="miter"/><path d="M233.70615,169.39152c2.52499,-2.18356 6.0985,-2.18834 7.98166,-0.01072c1.88317,2.17763 1.36286,5.71306 -1.16213,7.89661c-2.52499,2.18355 -6.09849,2.18834 -7.98165,0.01072c-1.88317,-2.17763 -1.36288,-5.71307 1.16211,-7.89661z" data-paper-data="{&quot;index&quot;:null}" fill="#f79eb4" stroke="none" stroke-width="0" stroke-linecap="butt" stroke-linejoin="miter"/><path d="M242.67858,170.8319c-0.00579,-0.01629 0.71047,0.76635 1.01846,2.27678c0.50319,2.43283 -0.57837,3.44444 -0.57837,3.44444l-0.38223,-0.87407c0,0 0.04616,-2.3195 -0.06966,-3.0753c-0.11583,-0.75578 -0.73043,-1.76849 -0.73011,-1.76783" data-paper-data="{&quot;index&quot;:null}" fill="#f79eb4" stroke="#f89db5" stroke-width="0" stroke-linecap="butt" stroke-linejoin="round"/><g fill="none" stroke="#e569c4" stroke-width="0.5" stroke-linecap="round" stroke-linejoin="miter"><path d="M243.02346,172.57306l-3.03877,-0.25095"/><path d="M241.28061,173.95567l0.44693,-3.01618" data-paper-data="{&quot;index&quot;:null}"/></g><g data-paper-data="{&quot;index&quot;:null}" fill="#ffd5c5" stroke="none" stroke-width="1" stroke-linecap="round" stroke-linejoin="round"><path d="M242.80569,173.25109c0.43874,0.32743 0.39406,0.97483 0.29623,1.46641c-0.01602,0.08042 -0.14311,0.7088 -0.59106,1.46512c-0.56209,0.949 -1.73598,1.70228 -2.06657,1.92626c-0.39429,0.26706 -1.37638,0.41822 -1.57105,0.39689c-1.40109,-0.15352 -1.18418,-1.001 -1.15888,-1.12663c0.01209,-0.0599 0.15066,-0.31328 0.46225,-0.43954c0.30371,-0.12306 1.25238,-0.32317 1.46513,-0.52361c0.22858,-0.21535 1.16254,-1.80336 1.8496,-2.39594c0.14409,-0.12165 0.37305,-0.23636 0.56537,-0.24582c0.25033,-0.01226 0.66732,0.01821 0.70106,-0.34886c0.00543,-0.05942 0.00003,-0.20995 0.04788,-0.17429z"/><path d=""/></g><g data-paper-data="{&quot;index&quot;:null}" fill="#000000" stroke="none" stroke-width="1" stroke-linecap="round" stroke-linejoin="round"><path d="M241.55699,174.34825c0.0422,-0.17934 0.48064,-0.48113 0.59342,-0.49021c0.19509,-0.01571 0.07025,0.41848 -0.01772,0.48484c-0.2041,0.12951 -0.63121,0.24134 -0.57569,0.00537z"/><path d=""/></g><path d="M236.03751,175.5532c-0.0192,-0.05348 1.16454,1.49916 1.7569,2.15092c1.11553,1.22733 2.07785,1.75465 2.07785,1.75465c0,0 -0.42393,0.0567 -0.53553,0.05868c-0.34475,0.00616 -0.66462,-0.0065 -1.0083,-0.05963c-0.80834,-0.12501 -1.56744,-0.4559 -2.24826,-0.90427c-0.45373,-0.29881 -2.07227,-1.9258 -2.064,-1.95113" data-paper-data="{&quot;index&quot;:null}" fill="#f79eb4" stroke="#f89db5" stroke-width="0" stroke-linecap="butt" stroke-linejoin="round"/><path d="M233.92403,176.64048c-0.00149,0.02065 2.05366,1.94627 2.67348,2.4391c0.61981,0.49283 1.72921,1.0615 1.72921,1.0615c0,0 -0.3526,0.22103 -1.19043,0.11131c-0.73981,-0.0969 -1.13566,-0.12785 -2.03582,-0.73383c-1.16806,-0.78634 -2.46655,-2.13087 -2.56574,-2.52033" data-paper-data="{&quot;index&quot;:null}" fill="#f79eb4" stroke="#f89db5" stroke-width="0" stroke-linecap="butt" stroke-linejoin="round"/><g data-paper-data="{&quot;index&quot;:null}" fill="#ff4488" stroke="none" stroke-width="1" stroke-linecap="round" stroke-linejoin="round"><path d="M238.18873,168.81294c-0.10208,0.01435 -2.68125,0.40592 -3.70013,1.65082c-0.80307,0.98118 -0.9627,1.80441 -1.23988,3.22395c-0.21378,1.09476 0.40186,2.63702 0.38207,2.66596c-0.00142,0.00207 -2.43142,-3.32189 -0.26027,-5.99922c1.77728,-2.14214 4.61929,-2.23385 4.7661,-2.20481"/><path d=""/></g><g data-paper-data="{&quot;index&quot;:null}" stroke="none" stroke-width="1" stroke-linecap="round" stroke-linejoin="round"><g fill="#f79eb4"><path d="M233.40066,174.22601c-0.25173,-0.25669 -0.782,-0.61667 -1.22638,-1.12651c-0.44437,-0.50985 -0.96807,-1.20387 -0.98952,-1.41584c-0.02805,-0.27711 0.69656,-0.61198 1.53057,-0.8439c0.83402,-0.23191 2.07144,-0.28082 2.20454,-0.19475"/></g><g fill="#ffd5c5"><path d="M233.54894,173.52999c-0.06348,-0.05731 -0.40836,-0.27899 -0.7468,-0.64773c-0.33844,-0.36874 -0.77922,-0.98419 -0.78088,-1.01677c-0.00674,-0.13207 0.82719,-0.47682 1.28418,-0.59604c0.457,-0.11922 1.02584,-0.10985 1.20627,-0.05363"/></g></g><g data-paper-data="{&quot;index&quot;:null}" stroke="none" stroke-width="0" stroke-linecap="butt" stroke-linejoin="miter"><g data-paper-data="{&quot;index&quot;:null}"><path d="M241.46494,164.31778c0,0 0.23058,0.39726 0.40735,1.52439c0.35241,2.24717 -0.67423,2.9296 -0.67423,2.9296c0,0 -0.78891,-0.42339 -0.84011,-1.53567c-0.05246,-1.13971 1.10697,-2.91833 1.10697,-2.91833z" data-paper-data="{&quot;index&quot;:null}" fill="#ce204f"/><path d="M240.63914,166.1528c-0.43917,1.053 0.51032,2.57901 0.51032,2.57901c0,0 -1.86521,-0.37314 -1.03339,-2.49021c0.41723,-1.06188 1.37454,-1.94636 1.37454,-1.94636c0,0 -0.4123,0.80457 -0.85148,1.85756z" fill="#ff4488"/></g><g data-paper-data="{&quot;index&quot;:null}"><path d="M241.31471,168.82631c0,0 0.43462,-0.96925 0.93667,-1.38716c0.99379,-0.82724 2.63441,-0.55117 2.63441,-0.55117c0,0 -0.89959,0.995 -1.49247,1.61579c-0.80908,0.84715 -2.07862,0.32253 -2.07862,0.32253z" fill="#f5e4ec"/><path d="M242.36199,167.52148c0.82816,-0.68938 2.19535,-0.45933 2.19535,-0.45933c0,0 -0.74965,0.82918 -1.24371,1.3465c-0.67425,0.70597 -1.73218,0.26878 -1.73218,0.26878c0,0 0.36218,-0.8077 0.78055,-1.15595z" fill="#e2c1c1"/></g></g><g data-paper-data="{&quot;index&quot;:null}" fill="#f79eb4" stroke="none" stroke-width="1" stroke-linecap="round" stroke-linejoin="round"><path d="M237.19588,167.96754c0.16532,-0.25982 0.35648,-0.51729 0.82935,-0.98602c0.47286,-0.46873 1.05415,-1.05949 1.2862,-1.1111c0.04754,-0.01056 0.55745,0.40041 0.82064,0.8367c0.41086,0.68101 0.60427,1.60926 0.60622,1.62454"/><path d=""/></g><path d="M233.98013,176.39509c0,0 -0.29274,0.20496 -0.36882,0.18552c-0.08425,-0.02153 -0.29612,-0.40939 -0.27193,-0.57943c0.02421,-0.17004 0.34211,-0.27687 0.34211,-0.27687z" data-paper-data="{&quot;index&quot;:null}" fill-opacity="0.01176" fill="#f7bf74" stroke="none" stroke-width="0" stroke-linecap="butt" stroke-linejoin="miter"/><path d="M236.96606,177.97004c0.5003,-0.23959 0.89958,-0.41114 0.94197,-0.32262c0.03252,0.06791 -0.24752,0.37594 -0.49581,0.50299c-0.88596,0.45336 -1.77397,0.37847 -2.23685,0.16616c-0.393,-0.18026 -0.61924,-0.314 -0.47761,-0.46809c0.10708,-0.11648 0.33379,-0.14143 0.81208,0.27729c0.38779,0.33948 1.17055,-0.01892 1.45623,-0.15573z" data-paper-data="{&quot;index&quot;:null}" fill-opacity="0.01176" fill="#212121" stroke="none" stroke-width="0" stroke-linecap="butt" stroke-linejoin="miter"/><path d="M236.52266,178.43938l-0.10012,-0.20905l0.08362,-0.04005l0.10012,0.20905z" data-paper-data="{&quot;index&quot;:null}" fill-opacity="0.01176" fill="#b3916f" stroke="none" stroke-width="0" stroke-linecap="butt" stroke-linejoin="miter"/><path d="M235.09427,178.10406c0.09435,0.05607 0.27619,0.21895 0.27619,0.21895c0,0 -0.29216,0.00088 -0.41006,-0.06918c-0.1179,-0.07006 -0.1162,-0.27843 -0.1162,-0.27843c0,0 0.15572,0.07259 0.25008,0.12866z" data-paper-data="{&quot;index&quot;:null}" fill-opacity="0.01176" fill="#cc7889" stroke="none" stroke-width="0" stroke-linecap="butt" stroke-linejoin="miter"/><g data-paper-data="{&quot;index&quot;:null}" stroke="none" stroke-width="0" stroke-linecap="butt" stroke-linejoin="miter"><g data-paper-data="{&quot;index&quot;:null}"><path d="M228.53012,174.65901c0,0 1.91719,-0.91217 3.03977,-0.70836c1.09554,0.19891 1.41007,1.03718 1.41007,1.03718c0,0 -0.8131,0.92659 -2.9933,0.27798c-1.09353,-0.32534 -1.45654,-0.60678 -1.45654,-0.60678z" data-paper-data="{&quot;index&quot;:null}" fill-opacity="0.01176" fill="#cf214f"/><path d="M228.50435,174.68147c0,0 1.00412,-0.83096 2.11212,-1.10301c2.209,-0.54239 2.33035,1.35589 2.33035,1.35589c0,0 -1.38593,-1.14432 -2.48804,-0.84932c-1.10211,0.295 -1.95443,0.59644 -1.95443,0.59644z" fill-opacity="0.01176" fill="#ff4589"/></g><g data-paper-data="{&quot;index&quot;:null}"><path d="M233.01846,175.1107c0,0 0.35082,1.32811 -0.59655,2.01714c-0.69424,0.50489 -1.8002,1.26393 -1.8002,1.26393c0,0 -0.05506,-1.66277 0.89719,-2.53751c0.48108,-0.44189 1.49958,-0.74354 1.49958,-0.74354z" fill-opacity="0.01176" fill="#f5e4ec"/><path d="M231.5858,175.97483c0.40088,-0.36825 1.24963,-0.61961 1.24963,-0.61961c0,0 0.29237,1.10675 -0.49712,1.68094c-0.57853,0.42075 -1.50018,1.05327 -1.50018,1.05327c0,0 -0.04589,-1.38565 0.74766,-2.1146z" fill-opacity="0.01176" fill="#e3c1c1"/></g></g><path d="M239.47737,169.98196c0.00386,0.02899 -0.14431,-1.30407 1.15816,-2.59636c0.23367,-0.22935 1.65903,-0.36897 2.4339,-0.20497c0.74735,0.07956 1.66157,0.8911 1.65171,0.90404c-0.01421,0.01852 -1.90792,-0.17343 -2.78803,0.50634c-0.48056,0.37116 -1.37985,1.78015 -1.37478,1.8183" data-paper-data="{&quot;index&quot;:null}" fill="#f79eb4" stroke="#f89db5" stroke-width="0" stroke-linecap="butt" stroke-linejoin="round"/><path d="M239.06698,170.7244c-0.06611,-0.05114 -1.00394,-1.55058 -1.07304,-1.92247c-0.06911,-0.3719 -0.16462,-0.56201 0.12436,-1.09393c1.15301,-1.70616 3.10058,-2.27297 3.10058,-2.27297c0,0 -1.00903,1.23229 -1.27978,1.94393c-0.37561,0.98733 -0.47211,2.46474 -0.45524,2.59697" data-paper-data="{&quot;index&quot;:null}" fill="#f79eb4" stroke="#f89db5" stroke-width="0" stroke-linecap="butt" stroke-linejoin="round"/><path d="M240.60197,170.51007c-0.04661,0.01913 0.23279,-1.0909 1.10703,-1.56368c0.25114,-0.13582 1.71443,0.16064 1.83346,0.25359c0.53326,0.29713 1.53611,1.62303 1.53597,1.62106c-0.0029,-0.04265 -1.17609,-0.38414 -2.24841,-0.27138c-0.36041,0.04001 -1.29838,0.38711 -1.43037,0.44119" data-paper-data="{&quot;index&quot;:null}" fill="#f79eb4" stroke="#f89db5" stroke-width="0" stroke-linecap="butt" stroke-linejoin="round"/><path d="M239.21191,178.44447l0.0184,-0.08609l0.69459,-0.22323l-0.00424,0.05849z" data-paper-data="{&quot;index&quot;:null}" fill="#fed000" stroke="none" stroke-width="0" stroke-linecap="butt" stroke-linejoin="miter"/><g fill="none" stroke="#e569c4" stroke-width="0.5" stroke-linecap="round" stroke-linejoin="miter"><path d="M239.9244,175.27418l-3.03876,-0.25095"/><path d="M238.62849,173.64063l-0.44693,3.01618" data-paper-data="{&quot;index&quot;:null}"/></g><path d="M236.97037,177.57188c-0.4046,0.17937 -1.17539,0.2098 -1.17539,0.2098c0,0 0.70913,-0.19914 1.10583,-0.44101c0.39669,-0.24187 0.67084,-0.64812 0.67084,-0.64812l0.14667,0.32969c0,0 -0.34335,0.37026 -0.74795,0.54964z" fill="#000000" stroke="none" stroke-width="0" stroke-linecap="butt" stroke-linejoin="miter"/><path d="M237.32443,178.12641c-0.29113,0.33334 -1.06818,0.81262 -1.06818,0.81262c0,0 0.77516,-0.58008 1.03276,-0.96674c0.2576,-0.38666 0.36426,-1.08945 0.36426,-1.08945l0.2564,0.23797c0,0 -0.29411,0.67225 -0.58525,1.0056z" fill="#000000" stroke="none" stroke-width="0" stroke-linecap="butt" stroke-linejoin="miter"/><path d="M242.76191,173.12503l-0.28133,-0.22597c0,0 0.46277,-0.16136 0.79789,-0.48317c0.33512,-0.32181 0.70869,-0.95661 0.70869,-0.95661c0,0 -0.22618,0.73749 -0.50289,1.08289c-0.27672,0.3454 -0.72236,0.58286 -0.72236,0.58286z" data-paper-data="{&quot;index&quot;:null}" fill="#000000" stroke="none" stroke-width="0" stroke-linecap="butt" stroke-linejoin="miter"/><path d="M243.93006,173.02604c-0.39662,0.1964 -1.12168,0.30916 -1.12168,0.30916l-0.16463,-0.30865c0,0 0.70673,0.07627 1.14634,-0.07409c0.43961,-0.15036 1.19834,-0.75176 1.19834,-0.75176c0,0 -0.66176,0.62896 -1.05837,0.82535z" data-paper-data="{&quot;index&quot;:null}" fill="#000000" stroke="none" stroke-width="0" stroke-linecap="butt" stroke-linejoin="miter"/></g></g></svg>