<svg version="1.1" xmlns="http://www.w3.org/2000/svg" xmlns:xlink="http://www.w3.org/1999/xlink" width="74.36389" height="80.65051" viewBox="0,0,74.36389,80.65051"><g transform="translate(-199.40906,-175.97024)"><g data-paper-data="{&quot;isPaintingLayer&quot;:true}" fill-rule="nonzero" stroke-linecap="butt" stroke-linejoin="miter" stroke-miterlimit="10" stroke-dasharray="" stroke-dashoffset="0" style="mix-blend-mode: normal"><path d="M262.78705,226.08159c8.31607,10.96212 10.9859,30.53915 10.9859,30.53915c0,0 -6.94062,-5.21302 -13.73163,-8.75093c-6.79101,-3.53791 -13.84354,-5.27043 -16.80293,-5.27043c-1.43849,0 -14.19549,-0.03662 -20.31306,1.37474c-6.11757,1.41136 -23.51627,10.12182 -23.51627,10.12182c0,0 7.80876,-21.11837 20.55324,-31.90039c12.2706,-10.38111 34.13163,-8.14886 42.82475,3.88604z" fill="#ffffff" stroke="none" stroke-width="0"/><path d="M271.24041,202.37192c2.17807,0.83801 0.63841,7.63417 -5.84633,11.8204c-4.69419,3.03034 -14.70448,3.91453 -14.70448,3.91453l-10.46471,-2.10506c0,0 -18.37298,-15.04996 -5.89113,-19.82388c8.45691,-3.23451 10.70173,16.93586 10.70173,16.93586c0,0 11.48466,-16.40546 26.20492,-10.74185z" fill="#3bb1f5" stroke="none" stroke-width="0"/><path d="M240.9706,184.30938c1.03536,-3.88589 8.36389,-5.99634 16.36873,-4.71383c8.00483,1.2825 13.6547,5.47231 12.61934,9.3582c-1.03536,3.88589 -8.36389,5.99634 -16.36872,4.71384c-8.00483,-1.2825 -13.65471,-5.47231 -12.61934,-9.3582z" fill="none" stroke="#0063ea" stroke-width="6.5"/></g></g></svg>