<svg version="1.1" xmlns="http://www.w3.org/2000/svg" xmlns:xlink="http://www.w3.org/1999/xlink" width="29.24331" height="45.46123" viewBox="0,0,29.24331,45.46123"><g transform="translate(-227.37836,-157.26939)"><g data-paper-data="{&quot;isPaintingLayer&quot;:true}" fill-rule="nonzero" stroke-linejoin="miter" stroke-miterlimit="10" stroke-dasharray="" stroke-dashoffset="0" style="mix-blend-mode: normal"><g stroke="none" stroke-width="0" stroke-linecap="butt"><path d="M245.61844,181.39239c0.895,-0.00642 2.45393,1.44001 2.45393,1.44001c0,0 0.80948,1.67717 0.00142,2.93658c-0.80807,1.25941 -2.49365,1.88161 -3.55155,1.20283c-0.37605,-0.24128 -1.29268,-1.08249 -1.44571,-2.05421c-0.15304,-0.97172 0.29668,-1.3543 0.79915,-2.05113c0.50246,-0.69683 0.84778,-1.46766 1.74277,-1.47409z" fill="#c3b0b0"/><path d="M240.89223,179.26262l4.02157,2.61569c0,0 0.27856,0.98573 -0.20461,1.5997c-0.62228,0.79073 -1.23583,0.47746 -1.23583,0.47746l-3.42297,-2.83105z" fill="#cc0000"/><path d="M251.83557,182.03644c0.74112,0.04891 1.0495,0.7577 1.91386,1.23055c0.78997,0.43217 2.07987,0.38084 2.04176,0.95836c-0.01624,0.24598 -0.74444,1.07403 -0.74444,1.07403c0,0 -1.59461,-0.52502 -1.21763,-0.04198c0.18344,0.23505 0.7348,0.87404 1.33621,1.26897c0.6014,0.39494 0.66159,-0.31401 0.99214,0.26005c0.23063,0.40054 0.50824,1.18961 0.45831,1.32025c-0.173,0.45264 -2.49384,2.04732 -2.67672,2.43261c-0.48483,1.02144 -0.83503,1.91797 -1.88624,1.88263c-5.17402,-0.17396 -5.56786,-4.98222 -6.05662,-5.01448c-1.41845,-0.09362 1.70974,-1.63214 1.78956,-2.84155c0.07982,-1.20942 2.63136,-2.62307 4.04981,-2.52945z" fill="#c3b0b0"/></g><path d="M242.91516,180.1812l-0.02389,4.20868l-1.06658,1.92203l-4.29091,-0.66208c0,0 0.23631,-3.09542 -0.45764,-3.82693c-0.69394,-0.7315 -0.48469,-6.47405 -0.51432,-6.52695c-0.34039,-0.60778 0.60579,1.0111 1.66172,0.60953c2.19064,-0.83309 4.55195,-0.46318 5.00058,-0.67156c0.66488,-0.30883 0.30129,1.20335 0.24415,2.11826c-0.05714,0.91491 -0.55313,2.82904 -0.55313,2.82904z" data-paper-data="{&quot;index&quot;:null}" fill="#ff3200" stroke="none" stroke-width="0" stroke-linecap="butt"/><path d="M242.31004,176.25191l2.39924,-1.02936c0,0 -0.26066,2.61732 0.13932,5.01793c0.39998,2.40061 1.10967,4.93821 1.10967,4.93821c0,0 -2.21266,-1.67025 -2.90418,-4.39332c-0.44129,-1.73775 -0.74405,-4.53346 -0.74405,-4.53346z" data-paper-data="{&quot;index&quot;:null}" fill="#ff3300" stroke="none" stroke-width="0" stroke-linecap="butt"/><path d="M247.42119,169.60661c0.27889,1.67382 -2.32556,3.0105 -4.43985,3.36277c-0.02239,0.00373 -3.91205,-1.91484 -5.60064,1.39399c-0.9678,1.89643 0.39884,8.27962 0.39884,8.27962l-2.8461,-6.75851c0,0 0.14939,2.28415 0.37931,3.60799c0.32089,1.84756 1.36576,6.43968 1.36576,6.43968c0,0 -2.53796,-3.47952 -3.26385,-5.8864c-0.87928,-2.91546 -1.6404,-10.37488 -1.6404,-10.37488c0,0 0.59785,7.25879 1.22969,11.87483c0.63183,4.61605 1.17891,5.72188 1.17891,5.72188c0,0 -2.72071,-3.78624 -3.59705,-6.57771c-0.87634,-2.79147 -1.51006,-6.66403 -1.51006,-6.66403l-0.47747,5.84171c0,0 -0.83052,-3.17362 -1.03852,-4.73463c-0.19803,-1.48611 -0.18104,-4.41778 -0.18104,-4.41778c0,0 1.06259,-2.7753 2.0857,-4.09938c1.86341,-2.41156 2.97851,-2.79197 2.97851,-2.79197c0,0 5.49535,-1.03931 9.96726,0.30607c2.11314,0.63574 3.44253,4.42657 3.44253,4.42657c0,0 1.28958,-0.62364 1.56846,1.05018z" data-paper-data="{&quot;index&quot;:null}" fill="#ff3300" stroke="none" stroke-width="0" stroke-linecap="butt"/><path d="M248.22706,174.27928c0,0 0.77882,0.81247 -4.32493,2.44781c-2.09183,0.67027 -4.34461,0.47421 -6.17771,-0.39585c-1.34298,-0.58652 -1.48532,-2.34898 -1.41843,-2.81333c0.23107,-1.60429 1.19625,-1.95216 1.94781,-1.69372c0.88829,0.30545 1.56107,1.39759 1.56107,1.39759c0,0 1.01764,-0.57856 3.82164,-0.90022c2.86724,-0.3289 4.59056,1.95771 4.59056,1.95771z" data-paper-data="{&quot;index&quot;:null}" fill="#ffbe7e" stroke="none" stroke-width="0" stroke-linecap="butt"/><path d="M249.25248,174.57682c0.0498,0.29889 -1.76128,0.32273 -1.76128,0.32273c0,0 -0.43569,-0.49286 -0.3655,-0.78807c0.07019,-0.29522 0.67889,-0.49368 0.67889,-0.49368c0,0 1.39809,0.66013 1.44789,0.95903z" data-paper-data="{&quot;index&quot;:null}" fill="#030000" stroke="none" stroke-width="0" stroke-linecap="butt"/><path d="M249.30501,168.21542z" data-paper-data="{&quot;index&quot;:null}" fill="#030000" stroke="none" stroke-width="0" stroke-linecap="butt"/><path d="M237.18005,174.86106c0,0 0.36532,-0.19875 0.85001,-0.22516c0.48469,-0.02641 1.23881,0.11133 1.23881,0.11133" data-paper-data="{&quot;index&quot;:null}" fill="none" stroke="#000000" stroke-width="0.5" stroke-linecap="round"/><path d="M243.26147,172.35478c0,0 -2.35555,0.77304 -3.29943,0.93031c-0.46487,0.07745 -2.28326,-1.48192 -2.58264,-2.51779c-0.14936,-0.51682 0.07628,-1.27999 0.04303,-1.47958c-0.06553,-0.39328 1.95674,-0.004 3.23288,0.77872c0.81569,0.50029 2.60616,2.28834 2.60616,2.28834z" data-paper-data="{&quot;index&quot;:null}" fill="#ffffff" stroke="none" stroke-width="0" stroke-linecap="butt"/><path d="M246.23067,171.70719c0.09786,0.5873 -0.10076,1.01864 -0.48006,1.08184c-0.3793,0.0632 -1.24614,0.03707 -1.34399,-0.55023c-0.09786,-0.5873 0.791,-1.61937 1.27765,-1.7612c0.48665,-0.14183 0.44856,0.64228 0.54641,1.22959z" data-paper-data="{&quot;index&quot;:null}" fill="#ffffff" stroke="none" stroke-width="0" stroke-linecap="butt"/><g data-paper-data="{&quot;index&quot;:null}" stroke="none" stroke-width="0" stroke-linecap="butt"><path d="M240.36235,173.61843c-0.33036,0.05504 -0.67867,-0.38353 -0.77798,-0.97957c-0.09931,-0.59605 0.08799,-1.12385 0.41835,-1.17889c0.33036,-0.05505 0.67867,0.38352 0.77799,0.97957c0.09931,0.59605 -0.08799,1.12386 -0.41835,1.1789z" fill="#7c5cbb"/><path d="M240.30434,173.13367c-0.19577,0.03262 -0.3809,-0.09964 -0.41352,-0.29541c-0.03262,-0.19577 0.09963,-0.38091 0.2954,-0.41353c0.19577,-0.03262 0.38092,0.09964 0.41353,0.29541c0.03262,0.19577 -0.09964,0.38091 -0.29541,0.41353z" fill="#000000"/><path d="M240.22314,172.64628c-0.19577,0.03262 -0.38091,-0.09964 -0.41353,-0.29541c-0.03262,-0.19577 0.09964,-0.38091 0.29541,-0.41353c0.19577,-0.03262 0.38091,0.09964 0.41353,0.29541c0.03262,0.19577 -0.09964,0.38091 -0.29541,0.41353z" fill="#ffffff"/></g><g data-paper-data="{&quot;index&quot;:null}" stroke="none" stroke-width="0" stroke-linecap="butt"><path d="M245.46414,173.48202c-0.33036,0.05504 -0.67867,-0.38353 -0.77799,-0.97957c-0.09931,-0.59605 0.08799,-1.12385 0.41835,-1.17889c0.33036,-0.05505 0.67867,0.38352 0.77799,0.97957c0.09931,0.59605 -0.08799,1.12386 -0.41835,1.1789z" fill="#7c5cbb"/><path d="M245.40616,172.99726c-0.19577,0.03262 -0.38091,-0.09964 -0.41352,-0.29541c-0.03262,-0.19577 0.09963,-0.38091 0.2954,-0.41353c0.19577,-0.03262 0.38091,0.09964 0.41353,0.29541c0.03262,0.19577 -0.09964,0.38091 -0.29541,0.41353z" fill="#000000"/><path d="M245.32496,172.50987c-0.19577,0.03262 -0.38091,-0.09964 -0.41352,-0.29541c-0.03262,-0.19577 0.09964,-0.38091 0.29541,-0.41353c0.19577,-0.03262 0.38091,0.09964 0.41353,0.29541c0.03262,0.19577 -0.09964,0.38091 -0.29541,0.41353z" fill="#ffffff"/></g><path d="M242.75684,179.65662c0,0.59855 0.02107,0.65026 -0.48769,0.65026c-0.50876,0 -1.30051,-2.05914 -1.30051,-2.05914c0,0 1.7882,0.81034 1.7882,1.40888z" fill="#f3f3f3" stroke="none" stroke-width="0" stroke-linecap="butt"/><path d="M240.42779,190.49462l-3.71041,1.99116l-1.62642,7.88442l-0.43212,-10.60858l2.37706,-2.19562l0.55139,-6.04019l2.36858,1.20423l1.94355,0.6385z" fill="#ff3200" stroke="none" stroke-width="0" stroke-linecap="butt"/><g stroke-linecap="butt"><path d="M245.02674,168.68855c-0.06535,-0.89263 1.27528,-2.54344 1.27528,-2.54344c0,0 1.62022,-0.91818 2.93011,-0.19481c1.30989,0.72338 2.04175,2.36432 1.43411,3.46463c-0.21599,0.39112 -0.99501,1.36116 -1.95454,1.57786c-0.95953,0.2167 -1.3709,-0.20685 -2.09931,-0.66233c-0.72841,-0.45548 -1.52031,-0.74928 -1.58566,-1.64191z" fill="#e8e6e6" stroke="none" stroke-width="0"/><path d="M239.36764,178.83086l6.19037,-9.4712c0,0 0.96525,-0.34287 1.6097,0.09881c0.82999,0.56885 0.55781,1.2017 0.55781,1.2017l-6.44468,8.88808z" fill="#ff3300" stroke="none" stroke-width="0"/><path d="M245.25995,162.44251c0,-0.74273 0.68694,-1.09712 1.10184,-1.99075c0.37921,-0.81672 0.24304,-2.10044 0.82182,-2.10044c0.24652,0 1.12072,0.67209 1.12072,0.67209c0,0 -0.41886,1.62572 0.0383,1.21775c0.22246,-0.19852 0.82375,-0.79077 1.17822,-1.41688c0.35448,-0.6261 -0.3569,-0.63947 0.19415,-1.00711c0.38448,-0.25651 1.15356,-0.58548 1.2872,-0.54426c0.46305,0.14282 2.20711,2.3536 2.60361,2.51071c1.05115,0.41651 1.9688,0.70691 2.00276,1.75816c0.16716,5.17424 -4.60472,5.88389 -4.60472,6.37371c0,1.42154 -1.74119,-1.59854 -2.95324,-1.59854c-1.21205,0 -2.79067,-2.4529 -2.79067,-3.87444z" fill="#e8e6e6" stroke="none" stroke-width="0"/><path d="M249.98971,159.85572c0.366,-0.64371 1.77592,-1.10759 1.77592,-1.10759c0,0 0.45494,1.5242 0.08894,2.16791c-0.366,0.64371 -1.08016,0.92818 -1.59513,0.63538c-0.51496,-0.2928 -0.63573,-1.052 -0.26973,-1.69571z" fill="#e8e6e6" stroke="#999797" stroke-width="0.5"/><path d="M252.77027,162.08679c0.52355,-0.52364 2.006,-0.59714 2.006,-0.59714c0,0 0.03457,1.59028 -0.48899,2.11392c-0.52355,0.52364 -1.28758,0.60859 -1.70649,0.18974c-0.41891,-0.41885 -0.33408,-1.18289 0.18948,-1.70653z" fill="#e8e6e6" stroke="#999797" stroke-width="0.5"/></g><g stroke="none" stroke-linecap="butt"><path d="M243.81476,190.6522l-3.66903,-4.38123l1.02905,-1.76953l4.16632,4.65991l1.34539,3.21549c0,0 -0.3122,0.77549 -0.74991,0.96467c-0.43771,0.1892 -1.46067,-0.0092 -1.46067,-0.0092z" fill="#ff3200" stroke-width="NaN"/><path d="M244.35806,196.75293c-0.53094,-0.19853 -1.36448,-2.71207 -1.05436,-3.06616c0.49945,-0.57024 1.29679,-1.00747 2.28657,-1.3015c0.98978,-0.29404 1.5773,-0.42694 2.36429,-0.08013c0.3418,0.15063 1.60894,2.05358 0.8718,3.29892c-0.14343,0.24232 -0.88584,0.95384 -1.78802,1.25985c-0.86202,0.29239 -1.86893,0.19242 -2.68029,-0.11097z" fill="#53b761" stroke-width="0"/><path d="M248.02715,202.27715c-0.47021,0.05685 5.56161,-3.38233 6.25944,-5.56059c0.45889,-1.4324 0.24745,-4.74942 0.24745,-4.74942c0,0 1.1997,2.9557 0.32624,5.31213c-1.14032,3.07638 -6.36293,4.94102 -6.83314,4.99787z" fill="#646362" stroke-width="0"/><path d="M251.62525,199.79841c0.0584,0.48308 -2.24521,1.70958 -2.275,1.72589c-1.18243,0.64739 -2.18985,1.34383 -2.78809,1.18283c-1.64066,-0.44153 -2.12657,-4.17045 -2.28187,-5.45493c-0.1553,-1.28447 2.4338,-2.01582 4.12638,-1.59452c1.6926,0.4213 3.06327,2.85625 3.21857,4.14072z" fill="#ff1c00" stroke-width="0"/><path d="M249.59104,194.29273c-0.19297,-1.59604 0.72463,-3.58159 2.39536,-3.71337c1.11325,-0.0878 2.57604,0.68526 2.76901,2.2813c0.19297,1.59604 -0.14611,4.88113 -1.25474,5.01517c-1.10862,0.13404 -3.71668,-1.98707 -3.90964,-3.5831z" fill="#ff1c00" stroke-width="0"/><path d="M251.30344,200.1782c-0.52563,0.06356 -2.69847,-2.57135 -2.88104,-4.08137c-0.18258,-1.51003 1.27701,-1.86987 1.80266,-1.93342c0.27319,-0.03303 1.32881,0.16616 2.26704,0.81784c0.86701,0.6022 1.49367,1.67875 1.58135,2.40397c0.06541,0.54096 -2.24437,2.72943 -2.77001,2.79299z" fill="#ded000" stroke-width="0"/><path d="M249.08415,193.64278c0.21012,-0.4254 0.70015,-0.70162 0.70015,-0.70162c0,0 0.42162,-0.3836 0.68163,-0.33309c0.26001,0.05051 0.45346,0.69957 0.45346,0.69957c0,0 0.00853,0.55188 -0.16259,0.93234c-0.17112,0.38045 -0.93474,1.02497 -0.93474,1.02497c0,0 -0.92892,1.34952 -1.19238,1.18619c-0.26346,-0.16332 -0.59269,-0.87022 -0.59269,-0.87022c0,0 0.83706,-1.51275 1.04717,-1.93813z" fill="#e0e0de" stroke-width="0"/><path d="M242.13304,184.31776v-2.14398h3.9219c0,0 0.36605,0.58032 0.36605,0.99355c0,0.41323 -0.36605,1.15043 -0.36605,1.15043z" fill="#ff3200" stroke-width="0"/><g stroke-width="0"><path d="M249.3761,178.39214c-0.5553,-1.33985 0.27775,-3.3207 1.63424,-3.86837c0.90384,-0.36492 2.61435,0.08165 2.69902,0.42795c0.5553,1.33986 1.26754,5.14361 0.37897,5.54759c-0.88856,0.404 -4.71223,-2.10717 -4.71223,-2.10717z" fill="#ff1c00"/><path d="M254.16105,181.58191c0.39926,0.14346 0.32937,2.51283 0.33085,2.54365c0.05857,1.22325 0.22159,1.69526 -0.13022,2.12077c-0.96482,1.16691 -4.05995,0.71568 -5.12153,0.33422c-1.0616,-0.38146 -0.65408,-2.78827 0.31458,-4.00566c0.96866,-1.21739 3.38787,-1.37441 4.44946,-0.99296z" fill="#ff1c00"/><path d="M249.58171,182.76966c-1.24801,-0.44844 -0.47406,-1.91334 -0.32502,-2.36835c0.07746,-0.23649 0.52043,-0.97339 1.38386,-1.48269c0.79787,-0.47063 2.8625,-0.92777 3.46188,-0.71241c0.44709,0.16065 0.43485,3.33419 0.28582,3.78921c0,0 -3.55854,1.22269 -4.80653,0.77424z" fill="#ded000"/><path d="M254.4505,186.10133c-0.13333,0.395 0.02837,-4.1596 -0.30447,-7.17802c-0.33285,-3.01842 -0.9246,-4.21886 -0.9246,-4.21886c0,0 0.27727,-0.2756 0.49142,0.17993c0.42712,0.90854 0.77183,2.54188 0.90791,3.55072c0.20432,1.51466 0.18294,7.16664 0.04961,7.56164z" fill="#646362"/><path d="M248.92052,186.21043c-0.41003,0.39139 -3.03561,0.04651 -3.2192,-0.38691c-0.29567,-0.698 -0.34181,-1.60619 -0.17523,-2.62518c0.16658,-1.019 0.30294,-1.60573 0.95798,-2.16299c0.2845,-0.24203 2.02651,-0.71032 2.82627,0.49575c0.15561,0.23468 0.26341,1.3175 0.14577,2.26288c-0.1124,0.90329 0.091,1.81834 -0.53558,2.41646z" fill="#53b761"/><path d="M249.06637,180.28477c0.03838,-0.77739 0.24845,-1.73113 0.24845,-1.73113c0,0 0.53184,-0.26581 0.79331,-0.37823c0.26147,-0.1124 0.69564,0.6477 0.69564,0.6477c0,0 0.0038,1.0352 -0.01483,1.7184c-0.01864,0.6832 -0.44556,2.36938 -0.44556,2.36938c0,0 -0.56422,0.05021 -0.81082,-0.1094c-0.2466,-0.1596 -0.48217,-0.40836 -0.48217,-0.40836c0,0 -0.02239,-1.33099 0.01598,-2.10837z" fill="#e0e0de"/></g></g></g></g></svg>