<svg version="1.1" xmlns="http://www.w3.org/2000/svg" xmlns:xlink="http://www.w3.org/1999/xlink" width="21.91829" height="42.74655" viewBox="0,0,21.91829,42.74655"><g transform="translate(-225.07734,-158.36443)"><g data-paper-data="{&quot;isPaintingLayer&quot;:true}" fill-rule="nonzero" stroke-linejoin="miter" stroke-miterlimit="10" stroke-dasharray="" stroke-dashoffset="0" style="mix-blend-mode: normal"><g data-paper-data="{&quot;index&quot;:null}" stroke="none" stroke-width="0" stroke-linecap="butt"><path d="M243.92964,199.87392c-0.63096,0.60571 -2.3484,0.86511 -4.06536,-1.21722c-2.64362,-3.20617 -3.84538,-5.05879 -3.21442,-5.6645c0.63096,-0.60571 1.72612,3.14377 3.59517,5.09074c1.86905,1.94697 4.31558,1.18526 3.68461,1.79098z" fill="#310808"/><path d="M244.06151,199.80531c-0.8886,0.64762 -2.91847,0.1649 -4.40983,-1.80905c-1.8352,-2.42906 -3.46219,-4.73054 -2.9122,-5.15649c0.3846,-0.29786 1.252,-1.44904 2.19253,-1.44446c1.18541,0.00578 2.66813,1.40841 3.48061,2.52323c1.45714,1.99935 2.53748,5.23915 1.64888,5.88677z" fill="#6b1c27"/><path d="M237.72372,195.33204c0,0 1.19651,-1.13413 2.2956,-1.664c1.681,-0.81041 2.66383,0.59167 2.66383,0.59167l0.89,1.67998c0,0 -1.00535,-1.4303 -2.33306,-0.82359c-1.03871,0.47465 -2.36565,1.80929 -2.36565,1.80929z" fill="#747875"/></g><g data-paper-data="{&quot;index&quot;:null}" stroke="none" stroke-width="0" stroke-linecap="butt"><g><path d="M241.1627,200.74079c-0.6624,0.57116 -2.39122,0.7385 -3.99458,-1.43252c-2.46869,-3.34274 -3.56983,-5.25686 -2.90743,-5.82803c0.6624,-0.57116 1.55582,3.23143 3.31826,5.27541c1.76244,2.04398 4.24614,1.41397 3.58374,1.98514z" fill="#310808"/><path d="M241.29807,200.67931c-0.92191,0.59925 -2.92311,0.00886 -4.30695,-2.0419c-1.7029,-2.52357 -3.20471,-4.90863 -2.63276,-5.30461c0.39995,-0.2769 1.32757,-1.38014 2.26652,-1.32535c1.18341,0.06906 2.58913,1.54885 3.34095,2.70546c1.34832,2.07429 2.25416,5.36715 1.33225,5.9664z" fill="#6b1c27"/><path d="M235.20815,195.87407c0,0 1.25535,-1.06863 2.38116,-1.53907c1.72186,-0.71951 2.62844,0.73304 2.62844,0.73304l0.79904,1.7251c0,0 -0.92756,-1.48194 -2.28577,-0.94697c-1.06257,0.41853 -2.45886,1.68042 -2.45886,1.68042z" fill="#747875"/></g><path d="M237.19812,196.75635c-0.69998,0.52425 -0.90812,0.5171 -1.42352,-0.23295c-0.46944,-0.68319 -0.39832,-0.72298 0.33216,-1.25718c0.69093,-0.50528 0.97805,-0.35021 1.38384,0.16641c0.48169,0.61323 0.42598,0.79947 -0.29247,1.32372z" fill="#b29540"/><path d="M236.90995,196.38947c-0.34723,0.26006 -0.45048,0.25651 -0.70615,-0.11556c-0.23287,-0.3389 -0.19759,-0.35865 0.16477,-0.62364c0.34275,-0.25065 0.48517,-0.17372 0.68647,0.08255c0.23895,0.3042 0.21131,0.39659 -0.14508,0.65665z" fill="#747875"/></g><path d="M240.41043,177.81252l3.25,-6l3.3352,-1.59184c0,0 -0.3337,2.98948 -1.7102,4.71684c-1.3765,1.72736 -4.875,2.875 -4.875,2.875z" data-paper-data="{&quot;index&quot;:null}" fill="#0d0a0e" stroke="none" stroke-width="0" stroke-linecap="butt"/><g data-paper-data="{&quot;index&quot;:null}" fill="#0d0a0e" stroke-width="0"><path d="M238.35924,178.17694c-2.93513,0 -5.31451,-2.37939 -5.31451,-5.31451c0,-2.93513 2.37939,-5.31452 5.31451,-5.31452c2.93513,0 5.31451,2.3794 5.31451,5.31452c0,2.93513 -2.37939,5.31451 -5.31451,5.31451z" stroke="none" stroke-linecap="butt"/><path d="M236.33228,177.76752c0,0 -3.60442,-0.93648 -5.63385,-2.08934c-2.02942,-1.15286 -5.62109,-5.23245 -5.62109,-5.23245c0,0 2.64761,0.39522 3.85624,0.53796c1.20862,0.14274 2.59573,0.10916 2.59573,0.10916c0,0 -0.61683,-0.68096 -1.96783,-4.00572c-1.57453,-3.87486 -1.2506,-6.676 -1.2506,-6.676c0,0 1.01161,1.70498 3.45322,2.99038c2.3896,1.25803 4.04403,1.24758 4.04403,1.24758l-0.27683,-6.28466c0,0 3.16939,1.59194 5.83647,5.92279c2.40984,3.91313 2.39396,7.76081 2.39396,7.76081" stroke="#000000" stroke-linecap="round"/></g><path d="M239.77135,178.71067c-0.16183,-0.76271 0.23117,-0.94777 0.51941,-1.02413c0.28821,-0.07637 0.38446,-0.01109 0.5463,0.75161c0.16183,0.7627 0.13512,2.83887 0.13512,2.83887l0.02811,3.1392l-1.01704,-0.08262l-0.05497,-3.00296c0,0 -0.10038,-2.35342 -0.15693,-2.61998z" data-paper-data="{&quot;index&quot;:null}" fill="#111115" stroke="none" stroke-width="0" stroke-linecap="butt"/><g data-paper-data="{&quot;index&quot;:null}"><g><path d="M242.95987,188.02176c-0.00361,0.28834 -0.50893,1.5756 -0.60491,1.61997c-0.1165,0.05385 0.04481,0.06846 -0.16603,0.05302c-0.21084,-0.01544 -0.21723,-0.31036 -0.21723,-0.31036c0,0 -0.08242,0.38226 -0.40813,0.37396c-0.32571,-0.00831 -0.48459,-0.33006 -0.48459,-0.33006c0,0 -0.18632,0.26031 -0.44419,0.23731c-0.25785,-0.02301 -0.48548,-0.32178 -0.48548,-0.32178c0,0 -0.34813,0.32445 -0.56109,0.30792c-0.21296,-0.01655 -0.39251,-0.38145 -0.39251,-0.38145c0,0 -0.07236,0.32489 -0.51643,0.27898c-0.34563,-0.03573 -0.4227,-0.50623 -0.35088,-1.16164c0.07279,-0.66439 0.14308,-1.36614 0.14735,-1.70619c0.01293,-1.0305 1.07161,-1.3076 2.10213,-1.29466c0.48265,0.00605 1.21747,0.22758 1.49869,0.78544c0.37693,0.74773 0.89022,1.30166 0.88334,1.8495z" fill="#747875" stroke="none" stroke-width="0" stroke-linecap="butt"/><path d="M240.94124,187.43379c0,0 0.65663,0.01576 0.91162,0.31578c0.12064,0.14192 -0.06303,0.59035 -0.04499,0.97303c0.01805,0.38266 0.22386,0.8043 0.22386,0.8043" fill="none" stroke="#000000" stroke-width="0.125" stroke-linecap="round"/></g><path d="M240.30881,185.72252c-0.41329,0.0257 -1.48466,0.15285 -1.53846,-0.16509c-0.1092,-0.64526 0.37944,-0.66162 0.37944,-0.66162c0,0 -0.4663,-0.01567 -0.02625,-0.6455c0.17457,-0.24985 0.76424,-0.40262 1.28236,-0.40463c0.51813,-0.002 1.47994,0.16135 1.54744,0.51247c0.05204,0.27063 -0.34958,0.45111 -0.34958,0.45111c0,0 0.32404,0.27389 0.33529,0.55879c-0.01234,0.29625 -1.26251,0.33157 -1.63024,0.35443z" fill="#747875" stroke="none" stroke-width="0" stroke-linecap="butt"/></g><path d="M237.98737,177.6604l-0.7567,2.80954c0,0 -0.74748,0.07774 -2.25205,0.15849c-1.50457,0.08074 -3.82521,0.3083 -3.82521,0.3083c0,0 1.93113,-1.89565 3.55029,-2.67032c1.61915,-0.77467 3.28367,-0.60601 3.28367,-0.60601z" data-paper-data="{&quot;index&quot;:null}" fill="#0d0a0e" stroke="none" stroke-width="0" stroke-linecap="butt"/><path d="M238.83746,190.31163c0,0 0.3383,-2.53626 0.33712,-4.17996c-0.00117,-1.64371 -0.34234,-3.10008 -0.34234,-3.10008l1.56827,-0.01601l-0.24743,8.36914z" data-paper-data="{&quot;index&quot;:null}" fill="#0d0a0e" stroke="none" stroke-width="0" stroke-linecap="butt"/><path d="M238.9951,184.03591c0,0 -0.19123,0.96987 -1.20936,1.59486c-1.01812,0.62499 -3.25715,1.14695 -3.25715,1.14695c0,0 2.16872,-1.74449 2.74613,-2.46427c0.48097,-0.59956 0.48215,-1.56001 0.48215,-1.56001l1.23824,1.28246z" data-paper-data="{&quot;index&quot;:null}" fill="#0d0a0e" stroke="none" stroke-width="0" stroke-linecap="butt"/><path d="M241.2493,192.37701c-0.01863,0.53782 -1.03379,0.75 -1.92575,0.80961c-0.89196,0.05963 -2.08977,0.04201 -2.15609,-0.5367c-0.13456,-1.17446 0.49475,-1.19324 0.49475,-1.19324c0,0 -0.6003,-0.03891 -0.02778,-1.17306c0.22712,-0.44992 0.98782,-0.71421 1.65498,-0.70622c0.66716,0.00797 1.90407,0.32628 1.98772,0.96555c0.06447,0.49274 -0.45434,0.81155 -0.45434,0.81155c0,0 0.41469,0.50479 0.42652,1.02251z" data-paper-data="{&quot;index&quot;:null}" fill="#747875" stroke="none" stroke-width="0" stroke-linecap="butt"/><path d="M237.86249,183.94663c-0.79878,-0.22367 -1.37808,-0.70449 -1.07252,-2.54092c0.17041,-1.02415 -0.28641,-2.61018 -0.0286,-3.53088c0.43137,-1.54049 2.28681,-0.20924 3.62739,0.16616c1.34058,0.37539 1.47123,2.1261 1.03985,3.66659c-0.43138,1.5405 -2.22555,2.61445 -3.56612,2.23905z" data-paper-data="{&quot;index&quot;:null}" fill="#0d0a0e" stroke="none" stroke-width="0" stroke-linecap="butt"/><path d="M241.64577,181.42397c-0.31981,1.02594 -1.33078,2.27794 -2.57985,2.07894c-1.12095,-0.1786 -0.93778,-3.77207 -0.14214,-4.49443c0.86212,-0.78271 2.06089,-0.65466 2.29193,-0.23076c0.45565,0.836 0.88166,1.19749 0.43005,2.64625z" data-paper-data="{&quot;index&quot;:null}" fill="#111115" stroke="none" stroke-width="0" stroke-linecap="butt"/><path d="M235.99834,191.15761c0,0 0.6719,-2.70653 0.86719,-4.49532c0.19529,-1.78879 -0.00227,-3.42732 -0.00227,-3.42732l1.7107,0.2297l-1.27047,9.06793z" data-paper-data="{&quot;index&quot;:null}" fill="#0d0a0e" stroke="none" stroke-width="0" stroke-linecap="butt"/><path d="M233.63545,169.2258c0,0 -0.212,-1.03955 -0.22167,-1.94582c-0.00966,-0.90627 -0.07522,-2.13511 0.17648,-2.29118c0.25869,-0.1604 0.42021,-0.12845 1.59988,0.58408c1.17965,0.71253 2.82337,2.0609 2.82337,2.0609" data-paper-data="{&quot;index&quot;:null}" fill="#0d0a0e" stroke="#000000" stroke-width="0.125" stroke-linecap="round"/><path d="M241.59558,167.54534c0,0 1.00091,-0.09148 1.57345,-0.21722c0.52546,-0.11539 1.48619,-0.54415 1.73266,-0.50884c0.29535,0.0423 -0.15106,1.41546 -0.38103,2.0995c-0.26318,0.78285 -1.11193,2.34129 -1.11193,2.34129" data-paper-data="{&quot;index&quot;:null}" fill="#0d0a0e" stroke="#000000" stroke-width="0" stroke-linecap="round"/><path d="M243.74466,171.12739c0,0 0.10279,1.1553 -0.0512,2.22034c-0.15398,1.06503 -0.89447,2.60829 -0.89447,2.60829c0,0 -0.73402,-0.55454 -0.87176,-0.58725c-1.1172,-0.26533 -2.22555,1.07957 -3.45707,0.81854c-1.23153,-0.26101 -1.86153,-1.20024 -2.30487,-2.03529c-0.44334,-0.83506 -0.34845,-2.30846 -0.06576,-2.9653c0.40845,-0.77216 0.21608,-0.62558 0.53944,-0.58687c0.37602,0.04501 1.83613,1.78159 2.60299,2.58871c0.76685,0.80712 1.33162,1.5656 2.13031,1.98423c0.24009,0.25084 0.40078,-0.25427 0.40078,-0.25427c0,0 0.24111,0.42479 0.33459,0.26416c0.29347,-0.50421 0.64923,-1.12963 0.95081,-1.96652c0.30158,-0.83689 0.68621,-2.08877 0.68621,-2.08877z" data-paper-data="{&quot;index&quot;:null}" fill="#78828a" stroke="#000000" stroke-width="0" stroke-linecap="butt"/><path d="M242.73987,176.11392c0.01603,0.39315 -0.30941,0.75944 -1.20504,1.24514c-0.73552,0.39888 -2.00675,0.77923 -2.93059,0.80345c-3.87733,-0.09999 -4.52633,-3.03904 -3.19639,-3.39707c1.65129,-0.47215 2.12543,1.32797 3.58526,1.26901c0.97159,-0.03924 1.96313,-0.81799 2.6248,-0.74822c0.85352,0.07728 1.11205,0.58486 1.12196,0.8277z" data-paper-data="{&quot;index&quot;:null}" fill="#111115" stroke="#000000" stroke-width="0" stroke-linecap="butt"/><path d="M243.20132,170.03809c0,0 0.75931,-0.55885 0.96279,-0.06909c0.13326,0.32072 -0.30905,2.33792 -0.30905,2.33792" data-paper-data="{&quot;index&quot;:null}" fill="#0d0a0e" stroke="#000000" stroke-width="0.125" stroke-linecap="round"/><path d="M244.00885,175.07566c0.15628,0.44795 -0.12968,0.78732 -0.96137,0.99982c-0.5252,0.13419 -1.269,0.15671 -1.269,-0.23073c0,-0.23363 0.65205,-0.30708 1.11519,-0.46146c0.46315,-0.15438 1.06752,-0.44427 1.11519,-0.30764z" data-paper-data="{&quot;index&quot;:null}" fill="#0d1114" stroke="none" stroke-width="0" stroke-linecap="butt"/><path d="M243.45991,175.39472c0.01429,0.07663 -0.16049,0.17349 -0.39037,0.21635c-0.22987,0.04287 -0.42781,0.01549 -0.4421,-0.06114c-0.01429,-0.07663 0.16049,-0.17349 0.39037,-0.21635c0.22987,-0.04287 0.42781,-0.01549 0.4421,0.06114z" data-paper-data="{&quot;index&quot;:null}" fill="#78828a" stroke="none" stroke-width="0" stroke-linecap="butt"/><path d="M236.94343,167.58435c0,0 -0.52979,0.14524 -1.49277,0.63353c-1.05335,0.53412 -1.14178,0.96602 -1.14178,0.96602c0,0 -0.57594,-2.98007 -0.09409,-3.10501c0.69139,-0.17927 2.72865,1.50546 2.72865,1.50546z" data-paper-data="{&quot;index&quot;:null}" fill="#111115" stroke="none" stroke-width="0" stroke-linecap="butt"/><path d="M237.42614,178.16055c0.27023,0.12285 0.62343,0.37205 0.32007,1.11603c-0.106,0.26003 -0.64815,2.6191 -0.64815,2.6191l-0.61957,3.02179l-1.01975,-0.07819l0.61871,-3.16354c0,0 0.36446,-2.09949 0.66782,-2.84347c0.30336,-0.74399 0.41068,-0.79458 0.6809,-0.67173z" data-paper-data="{&quot;index&quot;:null}" fill="#111115" stroke="none" stroke-width="0" stroke-linecap="butt"/><g data-paper-data="{&quot;index&quot;:null}" fill="#747875" stroke="none" stroke-width="0" stroke-linecap="butt"><g><path d="M237.99324,188.93259c-0.04829,0.28429 -0.74719,1.47758 -0.84889,1.50652c-0.12345,0.03515 0.03365,0.07459 -0.17225,0.02663c-0.20589,-0.04796 -0.16645,-0.34029 -0.16645,-0.34029c0,0 -0.14073,0.36486 -0.46121,0.30613c-0.32049,-0.05872 -0.42753,-0.40122 -0.42753,-0.40122c0,0 -0.22445,0.22823 -0.47563,0.16552c-0.25118,-0.06274 -0.4297,-0.3932 -0.4297,-0.3932c0,0 -0.39425,0.26652 -0.60207,0.21714c-0.2078,-0.04938 -0.32858,-0.43772 -0.32858,-0.43772c0,0 -0.12189,0.30974 -0.55346,0.19549c-0.3359,-0.08891 -0.33907,-0.56567 -0.16643,-1.20201c0.17498,-0.64507 0.35326,-1.32742 0.41024,-1.66269c0.17263,-1.01603 1.26148,-1.12554 2.27751,-0.9529c0.47588,0.08086 1.16743,0.41369 1.35871,1.00842c0.25637,0.79714 0.67751,1.42399 0.58573,1.96414z"/></g><path d="M235.73087,186.24991c-0.41225,-0.03874 -1.49037,-0.07933 -1.49421,-0.40176c-0.00779,-0.65436 0.47747,-0.59473 0.47747,-0.59473c0,0 -0.45823,-0.08781 0.07421,-0.64175c0.21121,-0.21976 0.81745,-0.27921 1.32961,-0.20082c0.51215,0.07839 1.43698,0.38898 1.4492,0.74632c0.00943,0.27542 -0.41533,0.39141 -0.41533,0.39141c0,0 0.27761,0.32085 0.24454,0.60405c-0.05812,0.29075 -1.29866,0.1317 -1.66548,0.09724z"/></g><path d="M238.41354,192.97766c-0.04732,0.53606 -1.07236,0.69374 -1.96623,0.70565c-0.89387,0.01193 -2.08903,-0.06961 -2.12436,-0.65104c-0.07167,-1.17997 0.55775,-1.16513 0.55775,-1.16513c0,0 -0.59736,-0.0709 0.03489,-1.17287c0.25081,-0.43715 1.02454,-0.66046 1.69032,-0.61686c0.66579,0.04358 1.88394,0.42747 1.93334,1.07029c0.03807,0.49548 -0.49702,0.78614 -0.49702,0.78614c0,0 0.38715,0.52621 0.37132,1.04382z" data-paper-data="{&quot;index&quot;:null}" fill="#747875" stroke="none" stroke-width="0" stroke-linecap="butt"/></g></g></svg>