<svg version="1.1" xmlns="http://www.w3.org/2000/svg" xmlns:xlink="http://www.w3.org/1999/xlink" width="477.27709" height="80.05672" viewBox="0,0,477.27709,80.05672"><g transform="translate(-1.36145,-112.43797)"><g data-paper-data="{&quot;isPaintingLayer&quot;:true}" fill-rule="nonzero" stroke="none" stroke-linecap="butt" stroke-linejoin="miter" stroke-miterlimit="10" stroke-dasharray="" stroke-dashoffset="0" style="mix-blend-mode: normal"><g fill="#ffffff" stroke-width="0.26458"><path d="M3.52671,191.95335c-0.90219,-0.18044 -1.62396,-0.36086 -2.16526,-0.5413l1.08263,-5.41314l3.24789,0.27065c2.52613,0.18044 4.51095,0.18044 5.95447,0c0.72177,-0.36089 1.08263,-0.90219 1.08263,-1.62396c-0.18044,-0.72177 -1.80439,-1.08263 -4.87181,-1.08263c-2.70659,-0.36086 -4.60116,-1.35328 -5.68379,-2.97721c-0.5413,-1.26306 -0.81198,-2.70659 -0.81198,-4.33051c0,-2.52615 0.90219,-4.42076 2.70656,-5.68382c1.26306,-0.90219 3.51853,-1.35328 6.76642,-1.35328c3.24789,0 6.49577,0.27065 9.74366,0.81198l-1.08263,5.14249c-3.78921,-0.18046 -6.40556,-0.27068 -7.84905,-0.27068c-1.26306,0.18046 -1.89461,0.63154 -1.89461,1.35331c-0.18044,1.26306 0.81198,1.89458 2.97724,1.89458c3.06745,0 5.32293,0.54133 6.76642,1.62396c1.08263,0.90219 1.62393,2.43591 1.62393,4.60116c0,1.87656 -0.45109,3.50052 -1.35328,4.87184c-0.90219,1.62393 -3.15767,2.61634 -6.76642,2.97724c-3.06745,0.18044 -6.22512,0.09021 -9.47301,-0.27068z"/><path d="M23.82601,191.95335v-22.73521h18.94602v6.49577h-10.82628v1.62396h10.82628v6.49577h-10.82628v1.62393h10.82628v6.49577z"/><path d="M45.47859,191.95335v-22.73521h8.11973v16.23944h10.82628v6.49577z"/><path d="M67.13116,191.95335v-22.73521h18.94602v6.49577h-10.82628v1.62396h10.82628v6.49577h-10.82628v1.62393h10.82628v6.49577z"/><path d="M88.78376,180.85641c0,-3.60876 1.08263,-6.45068 3.24789,-8.52572c2.16526,-2.07504 5.14249,-3.11255 8.93169,-3.11255c3.24789,0 5.50337,0.09021 6.76642,0.27065l-2.43591,7.5784l-0.5413,-0.5413c-1.08263,-0.72177 -2.43591,-0.81198 -4.05986,-0.27065c-1.80439,1.08263 -3.15767,2.25547 -4.05986,3.51853c-0.90219,1.08263 -1.08263,2.43591 -0.5413,4.05986l0.5413,0.5413c0.90219,1.26306 2.43591,1.62396 4.60116,1.08263c1.80439,-1.08263 3.15767,-2.25547 4.05986,-3.51853l3.24789,9.47301c-1.26306,0.72177 -3.78918,1.08263 -7.5784,1.08263c-3.78921,0 -6.76642,-1.17284 -8.93169,-3.51857c-2.16526,-2.34569 -3.24789,-5.05225 -3.24789,-8.11971z"/><path d="M117.74409,191.95335v-15.69811h-6.49577v-7.0371h20.56995v7.0371h-6.49577v15.69811z"/><path d="M154.87828,181.66839l-6.49577,-12.45024h7.5784l2.70656,7.84905l2.70656,-7.84905h7.5784l-6.49577,12.45024v10.28496h-7.5784z"/><path d="M171.65905,180.85641c0,-3.60876 1.08263,-6.45068 3.24789,-8.52572c2.16526,-2.07504 5.14249,-3.11255 8.93169,-3.11255c3.78921,0 6.76642,1.03751 8.93169,3.11255c2.16526,2.07504 3.24789,4.91696 3.24789,8.52572c0,3.06745 -1.08263,5.77401 -3.24789,8.11971c-2.16526,2.34571 -5.14249,3.51857 -8.93169,3.51857c-3.78921,0 -6.76642,-1.17284 -8.93169,-3.51857c-2.16526,-2.34569 -3.24789,-5.05225 -3.24789,-8.11971zM183.56796,176.25525c-1.80439,1.08263 -3.15767,2.25547 -4.05986,3.51853c-0.90219,1.08263 -1.08263,2.43591 -0.5413,4.05986l0.5413,0.5413c0.90219,1.26306 2.43591,1.62396 4.60116,1.08263c1.80439,-1.08263 3.15767,-2.25547 4.05986,-3.51853c1.08263,-1.4435 1.08263,-3.06745 0,-4.87184l-0.5413,-0.5413c-1.08263,-0.72177 -2.43591,-0.81198 -4.05986,-0.27065z"/><path d="M198.72477,182.48034v-13.2622h7.5784v13.2622c0,2.16526 0.90219,3.24789 2.70659,3.24789h0.5413c1.62396,0 2.43591,-1.08263 2.43591,-3.24789v-13.2622h7.0371v13.2622c0,6.4958 -3.24789,9.74369 -9.74369,9.74369c-7.0371,0 -10.55563,-3.24789 -10.55563,-9.74369z"/><path d="M221.73062,191.95335v-22.73521h13.26222c5.41314,0 8.11971,1.98482 8.11971,5.95447v1.08263c0,2.88702 -1.17284,4.7816 -3.51853,5.68379c0.72177,0.36086 1.4435,1.17284 2.16526,2.43591l2.16526,7.5784h-8.11973l-1.62393,-6.22512c-0.36089,-1.62393 -1.35331,-2.43591 -2.97724,-2.43591h-1.62396v8.66103zM232.82757,178.4205c1.44352,0 2.16529,-0.72177 2.16529,-2.16526v-1.08263c0,-1.08263 -0.72177,-1.62396 -2.16529,-1.62396h-3.24789v4.87184z"/><path d="M260.48874,180.85641c0,-3.60876 1.08263,-6.45068 3.24789,-8.52572c2.16526,-2.07504 5.14249,-3.11255 8.93169,-3.11255c3.24789,0 5.50339,0.09021 6.76645,0.27065l-2.43594,7.5784l-0.5413,-0.5413c-1.08263,-0.72177 -2.43594,-0.81198 -4.05986,-0.27065c-1.80436,1.08263 -3.15767,2.25547 -4.05986,3.51853c-0.90219,1.08263 -1.08263,2.43591 -0.5413,4.05986l0.5413,0.5413c0.90219,1.26306 2.43594,1.62396 4.60119,1.08263c1.80436,-1.08263 3.15764,-2.25547 4.05983,-3.51853l3.24792,9.47301c-1.26306,0.72177 -3.78921,1.08263 -7.57843,1.08263c-3.78918,0 -6.76642,-1.17284 -8.93169,-3.51857c-2.16526,-2.34569 -3.24789,-5.05225 -3.24789,-8.11971z"/><path d="M282.9533,191.95335v-22.73521h8.11973v7.84905h5.41314v-7.84905h8.11973v22.73521h-8.11973v-7.84905h-5.41314v7.84905z"/><path d="M307.31246,191.95335l6.76642,-22.73521h12.17959l6.76642,22.73521h-7.84905l-1.35331,-4.33051h-7.5784l-1.08263,4.33051zM322.19862,181.66839l-2.02992,-6.76645l-2.02994,6.76645z"/><path d="M335.73149,191.95335v-22.73521h13.2622c5.41314,0 8.11973,1.98482 8.11973,5.95447v1.08263c0,2.88702 -1.17284,4.7816 -3.51853,5.68379c0.72177,0.36086 1.4435,1.17284 2.16526,2.43591l2.16526,7.5784h-8.11973l-1.62393,-6.22512c-0.36089,-1.62393 -1.35331,-2.43591 -2.97724,-2.43591h-1.62396v8.66103zM346.82843,178.4205c1.4435,0 2.16526,-0.72177 2.16526,-2.16526v-1.08263c0,-1.08263 -0.72177,-1.62396 -2.16526,-1.62396h-3.24789v4.87184z"/><path d="M360.63195,191.95335l6.76642,-22.73521h12.17959l6.76642,22.73521h-7.84905l-1.35328,-4.33051h-7.57843l-1.08263,4.33051zM375.51811,181.66839l-2.02992,-6.76645l-2.02994,6.76645z"/><path d="M389.05098,180.85641c0,-3.60876 1.08263,-6.45068 3.24789,-8.52572c2.16526,-2.07504 5.14249,-3.11255 8.93171,-3.11255c3.24789,0 5.50337,0.09021 6.76642,0.27065l-2.43591,7.5784l-0.54133,-0.5413c-1.08263,-0.72177 -2.43591,-0.81198 -4.05986,-0.27065c-1.80436,1.08263 -3.15767,2.25547 -4.05986,3.51853c-0.90219,1.08263 -1.08263,2.43591 -0.5413,4.05986l0.5413,0.5413c0.90219,1.26306 2.43594,1.62396 4.60119,1.08263c1.80436,-1.08263 3.15767,-2.25547 4.05986,-3.51853l3.24789,9.47301c-1.26306,0.72177 -3.78921,1.08263 -7.5784,1.08263c-3.78921,0 -6.76645,-1.17284 -8.93171,-3.51857c-2.16526,-2.34569 -3.24789,-5.05225 -3.24789,-8.11971z"/><path d="M418.01132,191.95335v-15.69811h-6.49577v-7.0371h20.56998v7.0371h-6.49577v15.69811z"/><path d="M434.79207,191.95335v-22.73521h18.94602v6.49577h-10.82628v1.62396h10.82628v6.49577h-10.82628v1.62393h10.82628v6.49577z"/><path d="M456.44462,191.95335v-22.73521h13.26222c5.41314,0 8.11971,1.98482 8.11971,5.95447v1.08263c0,2.88702 -1.17284,4.7816 -3.51853,5.68379c0.72177,0.36086 1.4435,1.17284 2.16526,2.43591l2.16526,7.5784h-8.11973l-1.62393,-6.22512c-0.36089,-1.62393 -1.35331,-2.43591 -2.97724,-2.43591h-1.62393v8.66103zM467.5416,178.4205c1.4435,0 2.16526,-0.72177 2.16526,-2.16526v-1.08263c0,-1.08263 -0.72177,-1.62396 -2.16526,-1.62396h-3.24789v4.87184z"/></g><g stroke-width="0"><path d="M46.89346,147.93658l-9.82887,-26.36851c0,0 8.11779,-2.0515 13.46446,-2.0515c5.34667,0 9.25574,2.56443 9.25574,2.56443l5.62716,24.43113c0,0 -6.31762,-0.20185 -9.54697,-0.01399c-3.54642,0.20631 -8.97153,1.43844 -8.97153,1.43844z" fill="#ff0000"/><path d="M68.10667,146.41168l-5.54817,-24.38404c0,0 6.64354,-1.80665 10.25856,-2.2067c4.56041,-0.50468 8.92204,1.25975 8.92204,1.25975l6.71621,25.56773c0,0 -6.40703,-0.82858 -9.78231,-0.82858c-3.85978,0 -10.56633,0.59184 -10.56633,0.59184z" fill="#ff0000"/><path d="M49.53978,145.0744l-8.80235,-23.61458c0,0 7.26997,-1.83724 12.05823,-1.83724c4.78826,0 8.28907,2.2966 8.28907,2.2966l5.03947,21.87954c0,0 -5.65781,-0.18078 -8.54989,-0.01253c-3.17604,0.18476 -8.03454,1.28821 -8.03454,1.28821z" fill="#71ff33"/><path d="M69.04192,143.70876l-4.96872,-21.83737c0,0 5.77058,-1.61796 9.00805,-1.97624c4.08412,-0.45197 7.99022,1.12818 7.99022,1.12818l6.01477,22.89744c0,0 -5.73788,-0.74205 -8.76064,-0.74205c-3.45666,0 -9.28367,0.53003 -9.28367,0.53003z" fill="#70ff33"/><path d="M59.43772,136.68217l-4.56724,-19.90309l-4.37967,-0.4942l3.62936,-2.25394l2.15272,-1.59297l5.31756,22.65124z" fill="#ff0000"/><path d="M73.4337,123.89022c3.57432,-0.24956 6.19998,-0.30943 6.19998,-0.30943l1.29861,3.06483l-2.78281,-1.50296c0,0 -3.3818,0.21989 -4.64079,0.32044c-4.01888,0.32097 -6.42866,0.28 -6.42866,0.28c0,0 2.64775,-1.59413 6.35368,-1.85288z" data-paper-data="{&quot;index&quot;:null}" fill="#ff0000"/><path d="M75.2337,130.69022c3.57432,-0.24957 6.19998,-0.30943 6.19998,-0.30943l1.29861,3.06483l-2.78281,-1.50296c0,0 -3.38181,0.21989 -4.64079,0.32044c-4.01889,0.32097 -6.42867,0.28001 -6.42867,0.28001c0,0 2.64775,-1.59414 6.35368,-1.85289z" data-paper-data="{&quot;index&quot;:null}" fill="#ff0000"/><path d="M76.6337,137.69022c3.57432,-0.24956 6.19998,-0.30943 6.19998,-0.30943l1.29861,3.06483l-2.78281,-1.50296c0,0 -3.3818,0.21989 -4.64079,0.32044c-4.01889,0.32097 -6.42867,0.28001 -6.42867,0.28001c0,0 2.64775,-1.59413 6.35368,-1.85289z" data-paper-data="{&quot;index&quot;:null}" fill="#ff0000"/></g><g stroke-width="0.26459"><path d="M100.25055,145.04857c-0.94659,-0.19923 -1.70385,-0.39849 -2.27179,-0.59773l1.1359,-5.97724l3.4077,0.29886c2.65043,0.19923 4.73292,0.19923 6.24746,0c0.75726,-0.39849 1.1359,-0.99621 1.1359,-1.79318c-0.18931,-0.79697 -1.89315,-1.19545 -5.11154,-1.19545c-2.83975,-0.39849 -4.82758,-1.49432 -5.96348,-3.28749c-0.56794,-1.39469 -0.85193,-2.98863 -0.85193,-4.78181c0,-2.78939 0.94658,-4.88141 2.83975,-6.2761c1.32521,-0.99621 3.69167,-1.49432 7.09937,-1.49432c3.40769,0 6.8154,0.29887 10.22309,0.8966l-1.1359,5.67838c-3.97564,-0.19923 -6.72072,-0.29886 -8.23526,-0.29886c-1.32521,0.19923 -1.98783,0.69734 -1.98783,1.4943c-0.18931,1.39469 0.85193,2.09204 3.12373,2.09204c3.21839,0 5.58482,0.59772 7.09937,1.79317c1.1359,0.99621 1.70385,2.68975 1.70385,5.08066c0,2.07212 -0.47328,3.8653 -1.41987,5.37953c-0.94658,1.79318 -3.31303,2.889 -7.09937,3.28749c-3.21839,0.19923 -6.53143,0.09963 -9.93912,-0.29886z" fill="#ff0000"/><path d="M128.36407,145.04857v-17.33404h-6.8154v-7.77042h21.58209v7.77042h-6.81539v17.33404z" fill="#ff0000"/><path d="M145.97052,132.79524c0,-3.98484 1.1359,-7.12289 3.40769,-9.41416c2.27179,-2.29128 5.39552,-3.43693 9.37117,-3.43693c3.97564,0 7.09937,1.14564 9.37118,3.43693c2.27179,2.29128 3.40769,5.42933 3.40769,9.41416c0,3.38711 -1.1359,6.37573 -3.40769,8.96587c-2.27179,2.59014 -5.39552,3.88522 -9.37118,3.88522c-3.97564,0 -7.09937,-1.29509 -9.37117,-3.88522c-2.27179,-2.59014 -3.40769,-5.57876 -3.40769,-8.96587zM158.46541,127.71456c-1.89316,1.19546 -3.31304,2.49053 -4.25963,3.88522c-0.94658,1.19545 -1.1359,2.68975 -0.56794,4.48293l0.56794,0.59772c0.94658,1.39468 2.55578,1.79317 4.82757,1.19545c1.89316,-1.19545 3.31303,-2.49052 4.25962,-3.8852c1.1359,-1.59394 1.1359,-3.38711 0,-5.37953l-0.56795,-0.59772c-1.1359,-0.79697 -2.55576,-0.8966 -4.25961,-0.29887z" fill="#ff0000"/><path d="M174.368,145.04857v-25.10446h13.91476c5.67949,0 8.51923,2.19167 8.51923,6.57498v1.19545c0,3.18786 -1.23055,5.27991 -3.69167,6.27613c0.75726,0.39849 1.51454,1.29507 2.27179,2.68975l2.2718,8.36816h-8.51924l-1.70385,-6.87385c-0.37864,-1.79318 -1.41987,-2.68977 -3.12372,-2.68977h-1.70385v9.56361zM186.01097,130.10542c1.51454,0 2.27179,-0.79697 2.27179,-2.3909v-1.19545c0,-1.19546 -0.75726,-1.79317 -2.27179,-1.79317h-3.40769v5.37952z" fill="#ff0000"/><path d="M207.30906,133.69181l-6.81539,-13.74767h7.9513l2.83973,8.66702l2.83976,-8.66702h7.95129l-6.81539,13.74767v11.3568h-7.9513z" fill="#ff0000"/><path d="M104.49058,146.09511c-0.91869,-0.18373 -1.65364,-0.36748 -2.20485,-0.55121l1.10243,-5.51213l3.30728,0.2756c2.57233,0.18373 4.59345,0.18373 6.06336,0c0.73495,-0.36748 1.10243,-0.91869 1.10243,-1.65364c-0.18373,-0.73495 -1.83737,-1.10243 -4.96092,-1.10243c-2.75607,-0.36748 -4.68532,-1.37804 -5.78775,-3.03168c-0.55121,-1.28616 -0.82683,-2.75607 -0.82683,-4.40971c0,-2.57233 0.91869,-4.50157 2.75607,-5.78773c1.28616,-0.91869 3.58289,-1.37804 6.89017,-1.37804c3.30728,0 6.61456,0.27561 9.92184,0.82683l-1.10243,5.23652c-3.85849,-0.18373 -6.52268,-0.2756 -7.99259,-0.2756c-1.28616,0.18373 -1.92925,0.64308 -1.92925,1.37803c-0.18373,1.28616 0.82683,1.92925 3.03168,1.92925c3.12355,0 5.42025,0.55121 6.89016,1.65364c1.10243,0.91869 1.65364,2.48045 1.65364,4.68531c0,1.91088 -0.45933,3.56452 -1.37803,4.96093c-0.91869,1.65364 -3.21541,2.66419 -6.89017,3.03167c-3.12355,0.18373 -6.33896,0.09188 -9.64624,-0.2756z" fill="#71ff33"/><path d="M131.77565,146.09511v-15.9852h-6.61457v-7.16577h20.94612v7.16577h-6.61456v15.9852z" fill="#71ff33"/><path d="M148.86328,134.79524c0,-3.67476 1.10243,-6.56863 3.30728,-8.68161c2.20485,-2.11299 5.23653,-3.16948 9.09503,-3.16948c3.85849,0 6.89017,1.05649 9.09503,3.16948c2.20485,2.11299 3.30728,5.00685 3.30728,8.68161c0,3.12355 -1.10243,5.87961 -3.30728,8.2682c-2.20485,2.38859 -5.23653,3.58289 -9.09503,3.58289c-3.85849,0 -6.89017,-1.19431 -9.09503,-3.58289c-2.20485,-2.38859 -3.30728,-5.14465 -3.30728,-8.2682zM160.98997,130.10989c-1.83737,1.10243 -3.21541,2.29673 -4.13411,3.58289c-0.91869,1.10243 -1.10243,2.48045 -0.55121,4.13409l0.55121,0.55121c0.91869,1.28616 2.48047,1.65364 4.68532,1.10243c1.83737,-1.10243 3.2154,-2.29672 4.13409,-3.58288c1.10243,-1.46991 1.10243,-3.12355 0,-4.96092l-0.55121,-0.55121c-1.10243,-0.73495 -2.48045,-0.82683 -4.13409,-0.27561z" fill="#71ff33"/><path d="M176.42397,146.09511v-23.15097h13.50473c5.51213,0 8.26819,2.02112 8.26819,6.06335v1.10243c0,2.9398 -1.19429,4.86905 -3.58288,5.78775c0.73495,0.36748 1.46991,1.19429 2.20485,2.48045l2.20485,7.717h-8.2682l-1.65364,-6.33896c-0.36748,-1.65364 -1.37803,-2.48047 -3.03167,-2.48047h-1.65364v8.81943zM187.72385,132.31476c1.46991,0 2.20485,-0.73495 2.20485,-2.20485v-1.10243c0,-1.10243 -0.73495,-1.65364 -2.20485,-1.65364h-3.30728v4.96092z" fill="#71ff33"/><path d="M208.39433,135.62205l-6.61456,-12.67791h7.71699l2.75605,7.9926l2.75608,-7.9926h7.71699l-6.61456,12.67791v10.47307h-7.71699z" fill="#71ff33"/></g></g></g></svg>