<svg version="1.1" xmlns="http://www.w3.org/2000/svg" xmlns:xlink="http://www.w3.org/1999/xlink" width="5.16399" height="14.46662" viewBox="0,0,5.16399,14.46662"><g transform="translate(-239.17772,-180.22218)"><g data-paper-data="{&quot;isPaintingLayer&quot;:true}" fill-rule="nonzero" stroke-linejoin="miter" stroke-miterlimit="10" stroke-dasharray="" stroke-dashoffset="0" style="mix-blend-mode: normal"><path d="M242.19543,182.85284c0.05884,-0.26633 0.0438,-2.09483 0.29013,-2.45497c0.40139,-0.58684 1.09074,0.41555 0.90542,1.25436c-0.17418,0.78835 -0.08017,2.76184 -0.28464,3.68755c-0.14659,0.66369 -0.94645,-0.31913 -1.04627,-0.34259c-0.23904,-0.05618 -0.1637,-0.79075 0.13536,-2.14434z" fill="#f8b820" stroke="none" stroke-width="NaN" stroke-linecap="butt"/><g data-paper-data="{&quot;index&quot;:null}" stroke="none" stroke-width="0" stroke-linecap="butt"><path d="M240.36809,185.15097c0.22776,-0.55591 1.29224,-0.6461 2.37759,-0.20144c1.08535,0.44466 1.78057,1.25578 1.55282,1.81169c-0.22776,0.55591 -1.29224,0.6461 -2.3776,0.20144c-1.08535,-0.44466 -1.78057,-1.25578 -1.55282,-1.81169z" data-paper-data="{&quot;index&quot;:null}" fill="#ffffff"/><path d="M239.91809,187.21985c0.10265,-0.59193 1.12273,-0.9093 2.27838,-0.70888c1.15566,0.20042 2.00928,0.84275 1.90663,1.43466c-0.10265,0.59193 -1.12271,0.9093 -2.27838,0.70887c-1.15566,-0.20042 -2.00929,-0.84274 -1.90663,-1.43466z" data-paper-data="{&quot;index&quot;:null}" fill="#ffffff"/><path d="M239.91231,188.80902c0.32267,-0.48546 0.86701,-0.70221 1.75948,-0.54743c0.89246,0.15479 1.05104,0.22695 1.05104,0.22695c0,0 1.10351,0.80213 1.41321,2.28024c0.17467,0.83359 0.34912,1.24721 -0.53308,2.88225c-0.09082,0.16834 -0.6198,0.62784 -1.1079,0.89786c-0.48809,0.27003 -1.72096,0.10073 -2.13109,-0.10111c-0.07366,-0.03626 -0.86621,-1.71237 -1.01055,-2.21788c-0.19407,-0.67966 1.40581,0.90776 0.75617,-0.38468c-0.64964,-1.29244 -0.29342,0.5319 -0.65693,0.05345c-0.58599,-0.77128 -0.14178,-2.1848 0.45964,-3.08964z" data-paper-data="{&quot;index&quot;:null}" fill="#f8f8f8"/></g><path d="M242.88975,188.75484c0,0 -0.79032,0.00048 -1.12094,-0.03552c-0.30928,-0.03367 -1.00285,-0.3255 -1.00285,-0.3255" fill="none" stroke="#707070" stroke-width="0.5" stroke-linecap="round"/></g></g></svg>