<svg version="1.1" xmlns="http://www.w3.org/2000/svg" xmlns:xlink="http://www.w3.org/1999/xlink" width="38" height="31.04818" viewBox="0,0,38,31.04818"><g transform="translate(-217.36782,-163.30542)"><g data-paper-data="{&quot;isPaintingLayer&quot;:true}" fill-rule="nonzero" stroke-linejoin="miter" stroke-miterlimit="10" stroke-dasharray="" stroke-dashoffset="0" style="mix-blend-mode: normal"><g data-paper-data="{&quot;index&quot;:null}"><path d="M230.45413,188.72342c-0.35438,1.27794 -0.34301,4.54667 -0.34301,4.54667c0,0 -0.62391,0.20671 -0.59016,-1.03868c0.01955,-0.72129 0.27647,-2.48342 0.62787,-3.63715c0.42124,-1.38303 1.77475,-3.88319 1.77475,-3.88319l0.82466,-0.01376c0,0 -2.0415,3.11502 -2.29411,4.02611z" fill="#989898" stroke="#989898" stroke-width="0" stroke-linecap="round"/><path d="M234.01097,186.5351c0.14762,0.84919 -0.25373,3.06645 -0.25373,3.06645l-2.97173,-1.84899c0,0 0.68411,-1.7509 1.34038,-2.6463c0.3119,-0.42527 0.71212,-0.61916 1.30367,0.00197c0.41612,0.43694 0.48431,0.87302 0.58141,1.42688z" fill="#f82020" stroke="none" stroke-width="1.13968" stroke-linecap="round"/><path d="M230.83878,187.67809c0,0 2.77314,0.48411 2.93,1.78643c0.08035,0.73159 -0.91116,2.6905 -1.39049,3.20748c-0.4824,0.5199 -1.7111,0.75394 -2.29527,0.65722c-0.34315,-0.05676 -0.25802,-0.80444 -0.22983,-1.24295c0.07173,-1.0936 0.2929,-2.38468 0.55577,-3.34357c0.26287,-0.9589 0.42984,-1.06462 0.42984,-1.06462z" fill="#f8f8f8" stroke="none" stroke-width="1.15102" stroke-linecap="round"/><path d="M235.83047,186.77157c-0.02075,0.36726 0.01303,2.12804 -0.26141,2.60667c-0.21155,0.36895 -0.80402,-0.15608 -0.80402,-0.15608c0,0 -0.59346,0.20503 -0.71663,0.19807c-0.46434,-0.02624 -0.13755,-1.32931 -0.08752,-2.21445c0.01001,-0.17701 -0.20965,-1.04805 -0.11821,-1.55457c0.05441,-0.30144 0.05857,-0.58383 0.45751,-0.79936c0.41088,-0.22198 0.55204,0.40734 0.55204,0.40734c0,0 0.42708,-0.6479 0.92319,-0.11856c0.43675,0.466 0.07924,1.20303 0.05506,1.63094z" fill="#ffffff" stroke="none" stroke-width="0" stroke-linecap="butt"/></g><path d="M237.00269,186.05224c0.36,-0.4811 -0.0547,-1.3017 0.3044,-1.7794c0.2006,-0.268 0.8477,-0.3606 1.004,-0.0852c0.3957,0.7044 0.3791,1.6079 0.3326,2.4196c-0.0254,0.4538 -0.1931,0.9526 -0.5726,1.1504c-0.6184,0.3308 -1.4755,0.5232 -2.1297,0.1995c-0.4199,-0.2025 -0.5774,-0.9612 -0.3455,-1.4122c0.2293,-0.439 1.1007,-0.0853 1.4068,-0.4927z" data-paper-data="{&quot;index&quot;:null}" fill="#e88820" stroke="none" stroke-width="0.49091" stroke-linecap="round"/><path d="M235.41519,186.87644c0.3771,-0.4679 -0.0078,-1.3029 0.3682,-1.7673c0.2101,-0.2607 0.8601,-0.3299 1.0064,-0.0491c0.3701,0.7182 0.321,1.6205 0.2454,2.43c-0.0417,0.4526 -0.2273,0.945 -0.6136,1.1291c-0.6298,0.3083 -1.4933,0.4698 -2.1355,0.1227c-0.4123,-0.2175 -0.5424,-0.9813 -0.2945,-1.4236c0.245,-0.4305 1.1031,-0.0457 1.4236,-0.4418z" data-paper-data="{&quot;index&quot;:null}" fill="#f8b820" stroke="none" stroke-width="0.49091" stroke-linecap="round"/><g data-paper-data="{&quot;index&quot;:null}"><path d="M231.37035,185.57672c0,0 -1.86246,3.22525 -2.06326,4.14915c-0.2817,1.2959 -0.0859,4.55878 -0.0859,4.55878c0,0 -0.61125,0.24159 -0.64783,-1.00372c-0.02118,-0.72125 0.13589,-2.49507 0.42163,-3.66679c0.34253,-1.4046 1.5528,-3.97715 1.5528,-3.97715l0.82257,-0.06027z" fill="#989898" stroke="#989898" stroke-width="0" stroke-linecap="round"/><path d="M232.73479,187.34033c0.1953,0.8395 -0.08029,3.07588 -0.08029,3.07588l-3.07133,-1.67835c0,0 0.58422,-1.78672 1.18892,-2.71772c0.2874,-0.4422 0.67604,-0.65836 1.3017,-0.0716c0.44011,0.41276 0.5328,0.8443 0.661,1.3918z" fill="#f82020" stroke="none" stroke-width="1.13968" stroke-linecap="round"/><path d="M229.63216,188.66046c0,0 2.79604,0.32684 3.02614,1.61824c0.1215,0.7259 -0.75788,2.73764 -1.20728,3.28084c-0.4523,0.5463 -1.66583,0.8493 -2.25453,0.7857c-0.3458,-0.0373 -0.303,-0.7886 -0.2996,-1.228c0.0099,-1.0959 0.15786,-2.39741 0.3662,-3.3696c0.20834,-0.9722 0.36908,-1.08718 0.36908,-1.08718z" fill="#f8f8f8" stroke="none" stroke-width="1.15102" stroke-linecap="round"/><path d="M234.56475,187.47375c0,0.36784 0.1331,2.12391 -0.1139,2.61727c-0.1904,0.38031 -0.81155,-0.11046 -0.81155,-0.11046c0,0 -0.58095,0.2382 -0.70432,0.2382c-0.46508,0 -0.21234,-1.31943 -0.21234,-2.20599c0,-0.1773 -0.26846,-1.03455 -0.20575,-1.54542c0.03732,-0.30402 0.02553,-0.5862 0.41167,-0.8239c0.3977,-0.24482 0.57415,0.37554 0.57415,0.37554c0,0 0.38985,-0.67097 0.91503,-0.17047c0.46234,0.44061 0.147,1.19663 0.147,1.62523z" fill="#ffffff" stroke="none" stroke-width="0" stroke-linecap="butt"/></g><path d="M235.37981,182.93793c0.0741,-0.4123 0.60001,-0.80934 1.09291,-0.92624c0.5778,-0.1296 1.26671,-0.07219 1.80481,0.17571c0.9641,0.4442 1.9062,0.9734 2.749,1.62c0.2106,0.1615 0.1503,0.3495 0.0737,0.4909c-0.2926,0.6058 -0.5719,1.3112 -1.1291,1.6445c-0.5587,0.3334 -1.2886,0.2435 -1.9391,0.2455c-0.7074,0.0049 -1.6981,0.2597 -2.1109,-0.3191c-0.597,-0.8409 -0.70622,-1.81247 -0.54132,-2.93127z" data-paper-data="{&quot;index&quot;:null}" fill="#f8b820" stroke="none" stroke-width="0.49091" stroke-linecap="round"/><path d="M237.6653,186.05931c-0.2894,-0.0991 -0.3874,-0.5729 -0.3386,-0.8546c0.0381,-0.2745 0.3254,-0.5457 0.5533,-0.5234c0.3348,0.0445 0.5673,0.3761 0.8384,0.5805c0.2997,0.2266 1.0667,0.5844 0.8707,0.7579c-0.3306,0.2252 -1.3161,0.2468 -1.9238,0.0396z" data-paper-data="{&quot;index&quot;:null}" fill="#f8f8f8" stroke="none" stroke-width="1" stroke-linecap="round"/><path d="M240.10227,185.16448c-0.0174,-0.1361 0.62509,-0.24644 0.71199,-0.47684c0.1518,-0.4211 -0.44346,-1.00322 -0.08516,-1.09662c0.5602,-0.0761 1.3748,0.7851 2.0908,1.0947c0.313,0.1356 0.7625,0.0879 0.9578,0.3676c0.1414,0.2081 0.0264,0.6134 -0.2086,0.7135c-0.7922,0.2758 -1.7152,0.5298 -2.5298,0.2871c-0.4775,-0.1421 -0.92613,-0.51094 -0.93703,-0.88944z" data-paper-data="{&quot;index&quot;:null}" fill="#f8f8f8" stroke="none" stroke-width="1" stroke-linecap="round"/><path d="M234.5525,175.14449c0,-1.70864 -2.43331,-4.33621 -2.51236,-5.2306c-0.09865,-1.11609 3.11029,-0.02077 3.11029,-0.02077c0,0 3.07861,-0.19222 2.87875,0.62371c-0.18121,0.73975 -2.3331,3.03621 -2.3331,5.04466c0,5.97059 0.32063,6.9421 0.32063,6.9421c0,0 -0.08485,0.49691 -0.30752,-0.07576c-0.35754,-0.91952 -1.15669,-3.60412 -1.15669,-7.28335z" data-paper-data="{&quot;index&quot;:null}" fill="#e2a026" stroke="none" stroke-width="0" stroke-linecap="butt"/><path d="M238.46767,175.35296c0,3.45674 -0.88422,6.06914 -1.29197,7.04764c-0.29653,0.7116 -0.26929,0.21858 -0.26929,0.21858c0,0 0.21456,-0.87861 0.21456,-6.84921c0,-2.00845 -1.93709,-4.95512 -2.15048,-5.69487c-0.23536,-0.81593 3.08336,0.02651 3.08336,0.02651c0,0 2.29167,-0.81665 2.1755,0.29943c-0.0931,0.89439 -1.76167,3.2433 -1.76167,4.95194z" data-paper-data="{&quot;index&quot;:null}" fill="#e2a026" stroke="none" stroke-width="0" stroke-linecap="butt"/><path d="M236.36783,163.30542c10.49341,0 19,2.31852 19,5.17857c0,2.86005 -8.50659,5.17857 -19,5.17857c-10.49341,0 -19,-2.31852 -19,-5.17857c0,-2.86005 8.50659,-5.17857 19,-5.17857z" data-paper-data="{&quot;index&quot;:null}" fill-opacity="0.90196" fill="#e3a127" stroke="none" stroke-width="0" stroke-linecap="butt"/><path d="M241.49415,172.89401c-3.05915,0.87091 -5.47131,-0.87789 -5.47131,-0.87789c0,0 3.14949,0.63292 4.66126,0.52482c0.60175,-0.04302 3.49228,-1.03878 3.49228,-1.03878c0,0 -2.30297,0.77981 -3.37981,0.80792c-1.07684,0.02812 -2.68267,-0.64965 -2.68267,-0.64965c0,0 2.17942,0.03721 3.04954,-0.07937c0.8701,-0.11657 2.16264,-0.61892 2.16264,-0.61892c0,0 -1.16259,0.27181 -1.67591,0.2528c-0.51333,-0.019 -1.26556,-0.3617 -1.26556,-0.3617c0,0 0.86646,-0.16826 1.33164,-0.27679c0.46518,-0.10852 1.18403,-0.31012 1.18403,-0.31012c0,0 -0.70879,-0.05887 -1.03879,-0.13744c-0.32999,-0.07857 -0.81441,-0.30377 -0.81441,-0.30377l1.54013,-0.38114l1.12544,-0.49057c0,0 -0.63067,0.09413 -0.85523,0.08675c-0.22456,-0.00738 -0.56008,-0.13328 -0.56008,-0.13328c0,0 0.31226,-0.11377 0.46722,-0.20996c0.15497,-0.09619 0.35699,-0.30164 0.35699,-0.30164l-0.71733,-0.29959l0.85713,-0.46039l-0.47065,-0.37486l1.00579,-0.42432l-0.38602,0.58656l0.60791,-0.08801c0,0 -0.26065,0.23333 -0.39888,0.32517c-0.18584,0.1235 -0.76055,0.37033 -0.76055,0.37033c0,0 0.40864,0.07818 0.615,0.09162c0.16246,0.01057 0.52328,-0.01753 0.52328,-0.01753c0,0 -0.22952,0.26719 -0.43666,0.39517c-0.20714,0.12799 -0.57904,0.23235 -0.57904,0.23235c0,0 0.27234,0.04643 0.58577,0.06556c0.31342,0.01913 0.80437,0.0193 0.80437,0.0193c0,0 -0.54739,0.44298 -0.94552,0.64535c-0.39813,0.20237 -1.07828,0.38337 -1.07828,0.38337c0,0 0.66068,0.12593 0.9783,0.13542c0.28482,0.00851 0.91845,-0.02959 0.91845,-0.02959c0,0 -0.539,0.35343 -1.03923,0.54795c-0.50022,0.19451 -1.32425,0.37109 -1.32425,0.37109c0,0 1.14294,-0.08878 1.76427,-0.20637c0.54671,-0.10346 1.76858,-0.46221 1.76858,-0.46221c0,0 -1.25753,0.89125 -1.92455,1.14588c-0.78623,0.30013 -2.49428,0.54096 -2.49428,0.54096c0,0 1.94138,-0.2111 2.94072,-0.53931c0.56155,-0.18444 2.54163,-1.26122 2.54163,-1.26122c0,0 -1.09743,1.13523 -2.53416,1.94759c-0.90941,0.51419 -2.3728,0.8367 -2.4492,0.85844z" data-paper-data="{&quot;index&quot;:null}" fill="#dcdce1" stroke="none" stroke-width="0" stroke-linecap="butt"/><path d="M233.18722,163.84303c3.15704,-0.38722 5.26965,1.71364 5.26965,1.71364c0,0 -3.01368,-1.11247 -4.52397,-1.23952c-0.60115,-0.05056 -3.61092,0.4861 -3.61092,0.4861c0,0 2.39587,-0.4142 3.4641,-0.27541c1.06822,0.13879 2.5499,1.05679 2.5499,1.05679c0,0 -2.14743,-0.37386 -3.02511,-0.39329c-0.87767,-0.01942 -2.23236,0.27696 -2.23236,0.27696c0,0 1.19063,-0.08872 1.69483,0.00947c0.50421,0.09818 1.19438,0.5531 1.19438,0.5531c0,0 -0.88207,0.03221 -1.35843,0.06748c-0.47637,0.03527 -1.21775,0.12325 -1.21775,0.12325c0,0 0.69115,0.1678 1.00502,0.29647c0.31387,0.12867 0.75762,0.42608 0.75762,0.42608l-1.58056,0.13833l-1.18778,0.31058c0,0 0.63764,0.00454 0.85836,0.04657c0.22071,0.04203 0.53272,0.21831 0.53272,0.21831c0,0 -0.32609,0.06408 -0.49407,0.13515c-0.16799,0.07107 -0.39937,0.24279 -0.39937,0.24279l0.66236,0.40695l-0.91803,0.32226l0.40701,0.44315l-1.05932,0.26364l0.4721,-0.51979l-0.6142,-0.00709c0,0 0.2936,-0.19019 0.44437,-0.25956c0.2027,-0.09326 0.80868,-0.24822 0.80868,-0.24822c0,0 -0.39163,-0.14046 -0.59343,-0.18565c-0.15886,-0.03557 -0.51969,-0.06361 -0.51969,-0.06361c0,0 0.26808,-0.22848 0.49253,-0.32288c0.22444,-0.09441 0.608,-0.13999 0.608,-0.13999c0,0 -0.26189,-0.088 -0.56858,-0.15538c-0.3067,-0.06738 -0.79172,-0.14349 -0.79172,-0.14349c0,0 0.60932,-0.35296 1.03397,-0.49132c0.42465,-0.13834 1.12461,-0.21196 1.12461,-0.21196c0,0 -0.63324,-0.22661 -0.94557,-0.28512c-0.28006,-0.05246 -0.91197,-0.11284 -0.91197,-0.11284c0,0 0.58719,-0.2658 1.11148,-0.3806c0.52429,-0.1148 1.36572,-0.16179 1.36572,-0.16179c0,0 -1.14291,-0.08907 -1.77496,-0.06901c-0.55614,0.01766 -1.81879,0.18308 -1.81879,0.18308c0,0 1.38025,-0.68602 2.07863,-0.8344c0.82319,-0.17492 2.54794,-0.14864 2.54794,-0.14864c0,0 -1.95065,-0.09174 -2.98873,0.07793c-0.58331,0.09534 -2.70613,0.85289 -2.70613,0.85289c0,0 1.25982,-0.95183 2.80492,-1.53217c0.97799,-0.36733 2.47366,-0.4596 2.5525,-0.46926z" data-paper-data="{&quot;index&quot;:null}" fill="#dcdce1" stroke="none" stroke-width="0" stroke-linecap="butt"/><path d="M220.16806,169.70589c0.13752,0.34856 -0.23768,-0.17354 -0.23768,-0.17354c0,0 -0.32672,-0.73469 -0.37902,-1.07665c-0.05229,-0.34196 0.07933,-0.88285 0.07933,-0.88285c0,0 0.22079,0.5519 0.35137,0.84589c0.13058,0.29399 0.35478,0.74403 0.35478,0.74403c0,0 -0.05064,-0.47629 -0.04037,-0.70451c0.01026,-0.22821 0.09801,-0.57711 0.09801,-0.57711l0.44676,0.97061l0.46673,0.68247c0,0 -0.14197,-0.40528 -0.16546,-0.55475c-0.02349,-0.14947 0.0174,-0.38733 0.0174,-0.38733c0,0 0.11472,0.19217 0.19793,0.28252c0.08322,0.09036 0.24465,0.19804 0.24465,0.19804l0.10753,-0.51237l0.41287,0.50879l0.18848,-0.3587l0.40779,0.61169l-0.43678,-0.18123l0.13505,0.39101c0,0 -0.18729,-0.14294 -0.26551,-0.22276c-0.10518,-0.10732 -0.34109,-0.45629 -0.34109,-0.45629c0,0 -0.00007,0.28018 0.01712,0.41839c0.01354,0.10879 0.07773,0.34392 0.07773,0.34392c0,0 -0.20575,-0.11805 -0.31659,-0.2389c-0.11084,-0.12086 -0.22686,-0.35367 -0.22686,-0.35367c0,0 0.0037,0.18601 0.03066,0.39576c0.02695,0.20975 0.08888,0.53453 0.08888,0.53453c0,0 -0.36219,-0.3061 -0.54637,-0.54389c-0.18419,-0.23779 -0.38987,-0.66483 -0.38987,-0.66483c0,0 0.00019,0.45294 0.03405,0.66424c0.03037,0.18948 0.13564,0.60381 0.13564,0.60381c0,0 -0.30191,-0.31187 -0.4938,-0.61819c-0.19188,-0.30632 -0.41283,-0.82908 -0.41283,-0.82908c0,0 0.20318,0.74481 0.35948,1.14096z" data-paper-data="{&quot;index&quot;:null}" fill="#dcdce1" stroke="none" stroke-width="0" stroke-linecap="butt"/></g></g></svg>