<svg version="1.1" xmlns="http://www.w3.org/2000/svg" xmlns:xlink="http://www.w3.org/1999/xlink" width="404.25916" height="364.81588" viewBox="0,0,404.25916,364.81588"><g transform="translate(-38.25886,2.5)"><g data-paper-data="{&quot;isPaintingLayer&quot;:true}" fill-rule="nonzero" stroke-linecap="butt" stroke-linejoin="miter" stroke-miterlimit="10" stroke-dasharray="" stroke-dashoffset="0" style="mix-blend-mode: normal"><path d="M38.5,323.5v-326h404v284l0.01802,0.09889l-0.10034,79.49419l-403.93542,1.2228l-0.2234,-39.58325z" fill="#000000" stroke="none" stroke-width="0"/><path d="M94.37196,180c0,-4.01926 1.20578,-7.18444 3.61734,-9.49553c2.41156,-2.31107 5.72745,-3.4666 9.94768,-3.4666c3.61734,0 6.12938,0.10048 7.53612,0.30144l-2.713,8.44045l-0.60289,-0.60287c-1.20578,-0.80385 -2.713,-0.90434 -4.52167,-0.30147c-2.00963,1.20579 -3.51686,2.51206 -4.52167,3.9188c-1.00482,1.20577 -1.20578,2.71299 -0.60289,4.52165l0.60289,0.6029c1.00482,1.40675 2.713,1.80867 5.12456,1.20578c0.78376,-0.40194 1.48713,-1.10531 2.11012,-2.11012v-3.91878h9.04335v12.6607c-1.20578,0.60287 -4.22023,1.0048 -9.04335,1.20578h-2.713c-4.01927,0 -7.23468,-1.30627 -9.64624,-3.9188c-2.41156,-2.61252 -3.61734,-5.62696 -3.61734,-9.04333z" fill="#ffffff" stroke="none" stroke-width="0.26458"/><path d="M122.40633,192.35923l7.53612,-25.32136h13.56502l7.53612,25.32136h-8.7419l-1.50723,-4.82312h-8.44046l-1.20578,4.82312zM138.9858,180.90431l-2.26084,-7.53611l-2.26084,7.53611z" fill="#ffffff" stroke="none" stroke-width="0.26458"/><path d="M154.05805,192.35923l4.52167,-25.32136h7.23468l3.31589,10.24911l3.31589,-10.24911h7.23467l4.52167,25.32136h-7.53612l-1.80867,-11.15345l-2.41156,11.15345h-6.63179l-2.41156,-11.15345l-1.80867,11.15345z" fill="#ffffff" stroke="none" stroke-width="0.26458"/><path d="M187.21698,192.35923v-25.32136h21.10114v7.23467h-12.0578v1.80865h12.0578v7.23467h-12.0578v1.80868h12.0578v7.23467z" fill="#ffffff" stroke="none" stroke-width="0.26458"/><path d="M226.76655,192.35923v-25.32136h14.7708c6.0289,0 9.04335,2.21059 9.04335,6.63177v1.20578c0,4.82312 -3.01445,7.23467 -9.04335,7.23467h-6.0289v10.24914zM239.12579,177.28698c1.60771,0 2.41156,-0.80385 2.41156,-2.41156v-1.20578c0,-1.20577 -0.80385,-1.80865 -2.41156,-1.80865h-3.61734v5.42599z" fill="#ffffff" stroke="none" stroke-width="0.26458"/><path d="M253.59515,192.35923l7.53612,-25.32136h13.56502l7.53612,25.32136h-8.7419l-1.50723,-4.82312h-8.44046l-1.20578,4.82312zM270.17462,180.90431l-2.26084,-7.53611l-2.26084,7.53611z" fill="#ffffff" stroke="none" stroke-width="0.26458"/><path d="M285.24688,181.80865v-14.77079h8.44045v14.77079c0,2.41156 1.00482,3.61734 3.01446,3.61734h0.60287c1.80866,0 2.713,-1.20578 2.713,-3.61734v-14.77079h7.83758v14.77079c0,7.23467 -3.61734,10.85201 -10.85201,10.85201c-7.83757,0 -11.75635,-3.61734 -11.75635,-10.85201z" fill="#ffffff" stroke="none" stroke-width="0.26458"/><path d="M313.28123,192.35923c-1.00481,-0.20096 -1.80866,-0.40192 -2.41156,-0.60287l1.20578,-6.02893l3.61737,0.30147c2.81347,0.20096 5.02407,0.20096 6.63177,0c0.80385,-0.40194 1.20578,-1.00483 1.20578,-1.80868c-0.20096,-0.80385 -2.00962,-1.20578 -5.42599,-1.20578c-3.01445,-0.40192 -5.12457,-1.50722 -6.33036,-3.3159c-0.60289,-1.40673 -0.90434,-3.01443 -0.90434,-4.82312c0,-2.81347 1.00482,-4.92359 3.01446,-6.33033c1.40675,-1.00481 3.91878,-1.50722 7.53611,-1.50722c3.61735,0 7.23468,0.30145 10.85201,0.90434l-1.20578,5.72743c-4.22022,-0.20096 -7.13419,-0.30144 -8.74189,-0.30144c-1.40675,0.20096 -2.11012,0.70336 -2.11012,1.50722c-0.20096,1.40675 0.90434,2.11012 3.3159,2.11012c3.41637,0 5.92841,0.60289 7.53611,1.80868c1.20579,1.00481 1.80868,2.713 1.80868,5.12455c0,2.09003 -0.50241,3.8987 -1.50722,5.42602c-1.00483,1.80866 -3.51688,2.91395 -7.53614,3.31587c-3.41637,0.20098 -6.93323,0.1005 -10.55058,-0.30144z" fill="#ffffff" stroke="none" stroke-width="0.26458"/><path d="M335.88963,192.35923v-25.32136h21.10112v7.23467h-12.05779v1.80865h12.05779v7.23467h-12.05779v1.80868h12.05779v7.23467z" fill="#ffffff" stroke="none" stroke-width="0.26458"/><path d="M372.063,185.12455c1.40675,0 2.51205,-0.40193 3.3159,-1.20578c0.80385,-0.80385 1.20578,-2.00963 1.20578,-3.61734v-1.50722c0,-1.60771 -0.40193,-2.86373 -1.20578,-3.76807c-0.80385,-0.90434 -1.90915,-1.35651 -3.3159,-1.35651h-3.01443v11.45492zM360.00521,167.03787h12.05779c4.22024,0 7.53614,1.15553 9.9477,3.4666c2.41156,2.31109 3.61734,5.47627 3.61734,9.49553c0,3.41637 -1.20578,6.33033 -3.61734,8.74189c-2.41156,2.41156 -5.72746,3.61734 -9.9477,3.61734h-12.05779z" fill="#ffffff" stroke="none" stroke-width="0.26458"/><g fill="#ffffff" stroke="#000000" stroke-width="0"><path d="M49.31251,195.18752v-29.81541h11.77332v29.81541z"/><path d="M66.85169,195.18752v-29.81541h11.52332v29.81541z"/></g><g fill="#ffffff" stroke="#000000" stroke-width="0"><path d="M402.46875,194.90771v-29.81541h11.77332v29.81542z"/><path d="M420.00794,194.90771v-29.81541h11.52332v29.81542z"/></g></g></g></svg>