<svg version="1.1" xmlns="http://www.w3.org/2000/svg" xmlns:xlink="http://www.w3.org/1999/xlink" width="38" height="30.70248" viewBox="0,0,38,30.70248"><g transform="translate(-225.30893,-163.30545)"><g data-paper-data="{&quot;isPaintingLayer&quot;:true}" fill-rule="nonzero" stroke-linejoin="miter" stroke-miterlimit="10" stroke-dasharray="" stroke-dashoffset="0" style="mix-blend-mode: normal"><g><g data-paper-data="{&quot;index&quot;:null}"><path d="M248.12324,184.97008l0.82466,0.01376c0,0 1.35351,2.50016 1.77475,3.88319c0.3514,1.15373 0.60832,2.91586 0.62787,3.63715c0.03375,1.24539 -0.59016,1.03868 -0.59016,1.03868c0,0 0.01137,-3.26873 -0.34301,-4.54667c-0.25261,-0.91109 -2.29411,-4.02611 -2.29411,-4.02611z" fill="#989898" stroke="#989898" stroke-width="0" stroke-linecap="round"/><path d="M246.86051,186.80789c0.0971,-0.55386 0.16529,-0.98994 0.58141,-1.42688c0.59155,-0.62113 0.99177,-0.42724 1.30367,-0.00197c0.65627,0.8954 1.34038,2.6463 1.34038,2.6463l-2.97173,1.84899c0,0 -0.40135,-2.21726 -0.25373,-3.06645z" fill="#f82020" stroke="none" stroke-width="1.13968" stroke-linecap="round"/><path d="M250.03264,187.95092c0,0 0.16697,0.10572 0.42984,1.06462c0.26287,0.95889 0.48404,2.24997 0.55577,3.34357c0.02819,0.43851 0.11332,1.18619 -0.22983,1.24295c-0.58417,0.09672 -1.81287,-0.13732 -2.29527,-0.65722c-0.47933,-0.51698 -1.47084,-2.47589 -1.39049,-3.20748c0.15686,-1.30232 2.93,-1.78643 2.93,-1.78643z" fill="#f8f8f8" stroke="none" stroke-width="1.15102" stroke-linecap="round"/><path d="M245.04096,187.04437c-0.02418,-0.42791 -0.38169,-1.16494 0.05506,-1.63094c0.49611,-0.52934 0.92319,0.11856 0.92319,0.11856c0,0 0.14116,-0.62932 0.55204,-0.40734c0.39894,0.21553 0.4031,0.49792 0.45751,0.79936c0.09144,0.50652 -0.12822,1.37756 -0.11821,1.55457c0.05003,0.88514 0.37682,2.18821 -0.08752,2.21445c-0.12317,0.00696 -0.71663,-0.19807 -0.71663,-0.19807c0,0 -0.59247,0.52503 -0.80402,0.15608c-0.27444,-0.47863 -0.24066,-2.23941 -0.26141,-2.60667z" fill="#ffffff" stroke="none" stroke-width="0" stroke-linecap="butt"/></g><path d="M245.27556,186.81777c0.2319,0.451 0.0744,1.2097 -0.3455,1.4122c-0.6542,0.3237 -1.5113,0.1313 -2.1297,-0.1995c-0.3795,-0.1978 -0.5472,-0.6966 -0.5726,-1.1504c-0.0465,-0.8117 -0.0631,-1.7152 0.3326,-2.4196c0.1563,-0.2754 0.8034,-0.1828 1.004,0.0852c0.3591,0.4777 -0.0556,1.2983 0.3044,1.7794c0.3061,0.4074 1.1775,0.0537 1.4068,0.4927z" data-paper-data="{&quot;index&quot;:null}" fill="#e88820" stroke="none" stroke-width="0.49091" stroke-linecap="round"/></g><path d="M245.53845,183.73455c0,1.55828 -1.22886,2.82152 -3.6322,2.82152c-1.84808,0 -3.42709,-0.74695 -4.05806,-1.80065c-0.18957,-0.31658 -2.93901,-0.26373 -1.04239,-2.51435c1.14432,-1.3579 3.55812,0.43997 4.02687,0.48073c1.46685,-0.76968 2.32821,-1.19229 3.28569,-1.19229c0.76569,0 1.4201,0.64676 1.4201,2.20504z" data-paper-data="{&quot;index&quot;:null}" fill="#f8b820" stroke="none" stroke-width="0" stroke-linecap="butt"/><path d="M245.74898,175.36024c0,3.60743 -0.78356,6.23963 -1.13412,7.14121c-0.21833,0.5615 -0.30152,0.07428 -0.30152,0.07428c0,0 0.31437,-0.95255 0.31437,-6.80662c0,-1.96926 -2.1099,-4.2209 -2.28757,-4.94621c-0.19596,-0.80001 2.82257,-0.61154 2.82257,-0.61154c0,0 3.14631,-1.07395 3.04959,0.02036c-0.07751,0.87693 -2.46334,3.45322 -2.46334,5.12852z" data-paper-data="{&quot;index&quot;:null}" fill="#e2a026" stroke="none" stroke-width="0" stroke-linecap="butt"/><path d="M242.78343,175.56468c0,-1.67529 -1.63601,-3.97836 -1.72729,-4.8553c-0.1139,-1.0943 2.13304,-0.29359 2.13304,-0.29359c0,0 3.25394,-0.82599 3.02318,-0.02599c-0.20923,0.72531 -2.10851,3.61447 -2.10851,5.58373c0,5.85408 0.21037,6.71555 0.21037,6.71555c0,0 0.0267,0.4834 -0.26404,-0.21431c-0.39979,-0.95941 -1.26675,-3.52083 -1.26675,-6.91011z" data-paper-data="{&quot;index&quot;:null}" fill="#e2a026" stroke="none" stroke-width="0" stroke-linecap="butt"/><path d="M243.63444,186.29474c0,0 -1.69936,0.33209 -3.05697,0.14205c-1.26609,-0.11723 -2.17798,-0.63112 -3.23716,-0.92306c-0.29297,-0.08075 -1.35568,0.23837 -1.33034,0.04279c0.02209,-0.17043 1.06708,-0.40284 0.92115,-0.44589c-0.17115,-0.05048 -1.48553,0.30964 -1.13269,0.04139c0.35284,-0.26825 1.87999,-0.60951 1.87999,-0.60951l1.92147,-0.75821c0,0 -0.68275,0.78091 -0.51029,0.7763c0.18361,-0.00492 0.65205,-0.61248 0.83768,-0.68113c0.39864,-0.14741 -0.29243,0.82066 -0.14924,0.822c0.47629,0.00446 1.15457,-0.36183 2.00297,-0.4132c2.42334,-0.14674 1.85344,1.85263 1.85344,1.85263z" data-paper-data="{&quot;index&quot;:null}" fill="#f8f8f8" stroke="none" stroke-width="0" stroke-linecap="butt"/><g><path d="M246.88641,187.26888c0.27487,0.42608 0.19239,1.19646 -0.20562,1.43913c-0.61944,0.38627 -1.49129,0.27864 -2.139,0.01001c-0.39698,-0.15978 -0.61277,-0.63972 -0.68246,-1.08886c-0.12568,-0.80325 -0.23066,-1.70076 0.09418,-2.44055c0.12859,-0.28934 0.78163,-0.26059 1.00751,-0.01342c0.40409,0.44018 0.07173,1.29745 0.47713,1.74106c0.34446,0.37545 1.17703,-0.06184 1.44827,0.35263z" data-paper-data="{&quot;index&quot;:null}" fill="#f8b820" stroke="none" stroke-width="0.49091" stroke-linecap="round"/><g data-paper-data="{&quot;index&quot;:null}"><path d="M249.39454,185.36807l0.82472,0.00913c0,0 1.36753,2.49252 1.79653,3.87316c0.35788,1.15174 0.62468,2.9124 0.64829,3.63358c0.04075,1.24518 -0.58432,1.04197 -0.58432,1.04197c0,0 -0.00699,-3.26874 -0.36854,-4.54466c-0.25773,-0.90966 -2.31669,-4.01316 -2.31669,-4.01316z" fill="#989898" stroke="#989898" stroke-width="0" stroke-linecap="round"/><path d="M248.14214,187.21295c0.09399,-0.5544 0.15973,-0.99086 0.57338,-1.43013c0.58806,-0.62445 0.98936,-0.43281 1.30364,-0.00929c0.6613,0.89169 1.35523,2.63873 1.35523,2.63873l-2.96129,1.86564c0,0 -0.41379,-2.21497 -0.27095,-3.06497z" fill="#f82020" stroke="none" stroke-width="1.13968" stroke-linecap="round"/><path d="M251.32069,188.33809c0,0 0.16757,0.10478 0.43581,1.06219c0.26824,0.95739 0.49666,2.24721 0.57453,3.34039c0.03065,0.43835 0.11998,1.18553 -0.22284,1.24421c-0.58361,0.1 -1.81361,-0.12713 -2.29893,-0.64433c-0.48224,-0.51427 -1.48471,-2.46758 -1.40848,-3.19962c0.14954,-1.30319 2.91992,-1.80285 2.91992,-1.80285z" fill="#f8f8f8" stroke="none" stroke-width="1.15102" stroke-linecap="round"/><path d="M246.324,187.4596c-0.02659,-0.42778 -0.38823,-1.16277 0.04589,-1.63122c0.49313,-0.53211 0.92384,0.11338 0.92384,0.11338c0,0 0.13762,-0.63012 0.54974,-0.41043c0.40015,0.21328 0.40588,0.49566 0.46199,0.79677c0.09429,0.506 -0.12048,1.37825 -0.10948,1.55521c0.055,0.88485 0.3891,2.18606 -0.07509,2.21492c-0.12313,0.00765 -0.71774,-0.19405 -0.71774,-0.19405c0,0 -0.58951,0.52836 -0.80314,0.16059c-0.27713,-0.47709 -0.25322,-2.23803 -0.27605,-2.60516z" fill="#ffffff" stroke="none" stroke-width="0" stroke-linecap="butt"/></g></g><path d="M263.30893,168.48403c0,2.86005 -8.50659,5.17857 -19,5.17857c-10.49341,0 -19,-2.31852 -19,-5.17857c0,-2.86005 8.50659,-5.17857 19,-5.17857c10.49341,0 19,2.31852 19,5.17857z" fill-opacity="0.90196" fill="#e3a127" stroke="none" stroke-width="0" stroke-linecap="butt"/><path d="M237.54033,172.66311c-0.07395,-0.02899 -1.49953,-0.4908 -2.35524,-1.0901c-1.35191,-0.94682 -2.33503,-2.18237 -2.33503,-2.18237c0,0 1.8673,1.26229 2.40849,1.4999c0.96313,0.42283 2.87519,0.81973 2.87519,0.81973c0,0 -1.67696,-0.40405 -2.43066,-0.77843c-0.63942,-0.31762 -1.80538,-1.32573 -1.80538,-1.32573c0,0 1.18169,0.47464 1.7159,0.63023c0.60714,0.17683 1.73623,0.37515 1.73623,0.37515c0,0 -0.80322,-0.25504 -1.28241,-0.49678c-0.4792,-0.24174 -0.98169,-0.64539 -0.98169,-0.64539c0,0 0.62703,0.09889 0.91134,0.11781c0.31706,0.02111 0.98679,-0.04067 0.98679,-0.04067c0,0 -0.65958,-0.2456 -1.0364,-0.48534c-0.37682,-0.23974 -0.87905,-0.73332 -0.87905,-0.73332c0,0 0.48868,0.04707 0.8025,0.05817c0.31381,0.01111 0.58936,-0.0089 0.58936,-0.0089c0,0 -0.36013,-0.13965 -0.554,-0.28698c-0.19387,-0.14732 -0.39662,-0.43535 -0.39662,-0.43535c0,0 0.35644,0.06269 0.51916,0.06779c0.2067,0.00648 0.62096,-0.03203 0.62096,-0.03203c0,0 -0.54829,-0.30098 -0.72139,-0.44178c-0.12875,-0.10472 -0.36575,-0.36204 -0.36575,-0.36204l0.59662,0.14608l-0.3278,-0.62098l0.9603,0.51912l-0.50453,0.32784l0.80886,0.54072l-0.74282,0.22918c0,0 0.18132,0.22394 0.32631,0.33459c0.14499,0.11065 0.44485,0.25393 0.44485,0.25393c0,0 -0.34607,0.09304 -0.5703,0.07878c-0.22423,-0.01426 -0.84292,-0.16863 -0.84292,-0.16863l1.07303,0.59657l1.49632,0.52755c0,0 -0.50384,0.17755 -0.83986,0.22401c-0.33603,0.04645 -1.04719,0.03686 -1.04719,0.03686c0,0 0.69612,0.26982 1.1487,0.4226c0.45258,0.15278 1.29883,0.40363 1.29883,0.40363c0,0 -0.78171,0.26873 -1.29449,0.23826c-0.51277,-0.03047 -1.64381,-0.41287 -1.64381,-0.41287c0,0 1.23821,0.62438 2.09307,0.82412c0.85486,0.19975 3.02776,0.3724 3.02776,0.3724c0,0 -1.66359,0.52013 -2.73273,0.38854c-1.06914,-0.13159 -3.2864,-1.12934 -3.2864,-1.12934c0,0 2.78132,1.26924 3.37614,1.36996c1.49435,0.25304 4.69013,-0.07393 4.69013,-0.07393c0,0 -2.56922,1.50861 -5.53039,0.34742z" fill="#dcdce1" stroke="none" stroke-width="0" stroke-linecap="butt"/><path d="M249.4575,163.99434c0.07544,0.02485 1.52444,0.40689 2.41207,0.95781c1.40234,0.87039 2.45246,2.04953 2.45246,2.04953c0,0 -1.93443,-1.15681 -2.48796,-1.36402c-0.98509,-0.36876 -2.91621,-0.65902 -2.91621,-0.65902c0,0 1.69679,0.31043 2.47009,0.64245c0.65606,0.28167 1.87611,1.22357 1.87611,1.22357c0,0 -1.20619,-0.40837 -1.74822,-0.53409c-0.61601,-0.14288 -1.75436,-0.2783 -1.75436,-0.2783c0,0 0.81613,0.21011 1.30799,0.4249c0.49186,0.2148 1.01597,0.58996 1.01597,0.58996c0,0 -0.63156,-0.06396 -0.91647,-0.06709c-0.31774,-0.00349 -0.98302,0.09533 -0.98302,0.09533c0,0 0.67219,0.20864 1.06172,0.42712c0.38954,0.21848 0.91836,0.68344 0.91836,0.68344c0,0 -0.49055,-0.01989 -0.8045,-0.01358c-0.31394,0.0063 -0.58796,0.04157 -0.58796,0.04157c0,0 0.36732,0.11947 0.56906,0.25581c0.20174,0.13634 0.42015,0.41269 0.42015,0.41269c0,0 -0.35937,-0.04283 -0.52213,-0.03891c-0.20675,0.00499 -0.61824,0.06642 -0.61824,0.06642c0,0 0.56415,0.27011 0.74478,0.40109c0.13436,0.09743 0.38525,0.3412 0.38525,0.3412l-0.6038,-0.11277l0.36172,0.60185l-0.98761,-0.46507l0.48558,-0.35531l-0.83761,-0.49503l0.72898,-0.27003c0,0 -0.19346,-0.21353 -0.34438,-0.31598c-0.1509,-0.10245 -0.45825,-0.22887 -0.45825,-0.22887c0,0 0.34039,-0.11208 0.56506,-0.11028c0.22468,0.0018 0.85097,0.12164 0.85097,0.12164l-1.10445,-0.53615l-1.52328,-0.44377c0,0 0.49321,-0.20521 0.82614,-0.27023c0.33293,-0.06502 1.04354,-0.09488 1.04354,-0.09488c0,0 -0.71001,-0.23081 -1.17036,-0.35825c-0.46035,-0.12745 -1.31921,-0.33098 -1.31921,-0.33098c0,0 0.76561,-0.31166 1.27928,-0.30968c0.51367,0.00199 1.66417,0.32108 1.66417,0.32108c0,0 -1.27093,-0.55476 -2.13555,-0.70679c-0.86462,-0.15203 -3.04375,-0.20393 -3.04375,-0.20393c0,0 1.63219,-0.61157 2.70699,-0.53948c1.07479,0.07209 3.34397,0.94537 3.34397,0.94537c0,0 -2.84742,-1.11305 -3.4469,-1.18064c-1.50609,-0.16978 -4.6788,0.3339 -4.6788,0.3339c0,0 2.48159,-1.64876 5.50261,-0.65356z" data-paper-data="{&quot;index&quot;:null}" fill="#dcdce1" stroke="none" stroke-width="0" stroke-linecap="butt"/><path d="M230.51874,165.67484c-0.14007,0.40217 -0.3128,1.15463 -0.3128,1.15463c0,0 0.19951,-0.53131 0.3788,-0.84517c0.17928,-0.31386 0.46826,-0.63775 0.46826,-0.63775c0,0 -0.08835,0.41827 -0.11099,0.60882c-0.02525,0.2125 -0.00702,0.66508 -0.00702,0.66508c0,0 0.18815,-0.43504 0.36252,-0.68012c0.17437,-0.24508 0.52382,-0.56565 0.52382,-0.56565c0,0 -0.04868,0.32703 -0.06709,0.53769c-0.01841,0.21067 -0.01455,0.39668 -0.01455,0.39668c0,0 0.10647,-0.23734 0.2123,-0.3626c0.10583,-0.12526 0.30662,-0.25157 0.30662,-0.25157c0,0 -0.05459,0.23754 -0.06369,0.3468c-0.01156,0.13879 -0.0001,0.41874 -0.0001,0.41874c0,0 0.22153,-0.35827 0.32226,-0.46978c0.07491,-0.08293 0.25624,-0.23337 0.25624,-0.23337l-0.11904,0.39617l0.42906,-0.19882l-0.3826,0.62776l-0.2029,-0.35074l-0.39185,0.52515l-0.12826,-0.50758c0,0 -0.15692,0.11415 -0.2364,0.20782c-0.07947,0.09365 -0.18628,0.29033 -0.18628,0.29033c0,0 -0.05052,-0.236 -0.03312,-0.3863c0.0174,-0.1503 0.14278,-0.56102 0.14278,-0.56102l-0.4386,0.70087l-0.40694,0.98796c0,0 -0.10186,-0.34504 -0.12139,-0.57265c-0.01953,-0.22761 0.0117,-0.70557 0.0117,-0.70557c0,0 -0.20573,0.45878 -0.32425,0.75783c-0.11853,0.29905 -0.31672,0.85947 -0.31672,0.85947c0,0 -0.15349,-0.5351 -0.11513,-0.87891c0.03836,-0.3438 0.33495,-1.09115 0.33495,-1.09115c0,0 0.35367,-0.53692 0.23042,-0.18305z" fill="#dcdce1" stroke="none" stroke-width="0" stroke-linecap="butt"/><g><path d="M241.3219,171.05119c0.69234,1.33321 0.88588,3.04921 0.88588,3.04921c0,0 1.72492,3.49729 0.83605,5.62173c-0.75673,1.80695 -3.3531,2.17495 -5.25119,2.65047c-1.53281,0.3845 -3.65144,0.86746 -4.74123,-0.21395c-1.28813,-1.27994 -1.16091,-4.38232 -1.62616,-6.13827c-0.17441,-0.66293 -0.82794,-1.43832 -1.28638,-2.58111c-0.45843,-1.14278 -1.02342,-2.13055 -0.8034,-2.84724c0.05573,-0.58382 1.32066,0.20519 2.09318,0.63597c0.77252,0.43078 1.95018,1.12997 2.65289,1.20137c0.8136,0.02353 1.02425,0.15026 1.76935,-0.22844c0.44058,-0.22337 2.87898,-4.2121 3.40181,-4.15791c0.62073,0.06509 1.37686,1.67497 2.0692,3.00817z" data-paper-data="{&quot;index&quot;:null}" fill="#f8b820" stroke="none" stroke-width="1" stroke-linecap="round"/><path d="M233.23137,179.59933c0.08628,0.61507 0.25636,1.29487 0.11388,1.85492c-0.08762,0.34183 -0.4921,0.69515 -0.65054,0.40632c-0.46643,-0.85072 -0.60035,-1.95332 -0.75402,-2.96878c-0.09419,-0.55612 -0.21289,-1.25416 0.02179,-1.67384c0.1571,-0.28191 0.6436,-0.11973 0.81377,0.17537c0.33148,0.64726 0.35131,1.46617 0.45514,2.20603z" data-paper-data="{&quot;index&quot;:null}" fill="#ffffff" stroke="none" stroke-width="0.86553" stroke-linecap="round"/><path d="M240.81968,173.65379c-0.1056,0.0902 -1.36565,-0.55333 -2.1497,-0.78678c-0.78405,-0.23345 -1.65224,-0.19469 -1.70734,-0.37379c-0.14104,-0.47513 0.58977,-1.13471 0.74025,-1.6016c0.15801,-0.48989 1.33073,-2.10393 1.61622,-2.04613c0.32184,0.06749 1.71111,4.62715 1.50056,4.80829z" data-paper-data="{&quot;index&quot;:null}" fill="#ffffff" stroke="none" stroke-width="0.85185" stroke-linecap="butt"/><path d="M238.22403,182.00569c-0.19091,0.47251 -0.80885,0.50852 -1.25988,0.57004c-0.48895,0.04958 -1.211,0.25791 -1.47831,-0.24427c-0.60251,-1.13256 -0.53359,-2.60133 -0.70014,-3.86846c-0.07136,-0.54362 -0.19233,-1.11667 -0.0336,-1.63929c0.01189,-0.19291 0.26976,-0.14975 0.4666,-0.1797c0.23544,-0.03612 0.44948,-0.05399 0.71874,-0.00727c0.27798,0.05062 0.57127,0.1476 0.81168,0.29637c0.33405,0.22957 0.7146,0.4857 0.90141,0.86584c0.28508,0.56934 0.38977,1.24468 0.4777,1.88753c0.1083,0.78937 0.37213,1.63479 0.09579,2.3192z" data-paper-data="{&quot;index&quot;:null}" fill="#ffffff" stroke="none" stroke-width="0.97175" stroke-linecap="round"/><path d="M243.40465,178.95168c-0.21024,0.31661 -1.42914,0.77026 -1.12326,0.87386c0.60339,0.20551 1.24873,-0.26823 1.24873,-0.26823c0,0 -0.39196,0.51847 -0.97423,1.15294c-0.1089,0.11857 1.54394,0.1316 1.54394,0.1316l-1.42432,1.19381l0.65574,0.74323c0,0 -2.24925,0.04456 -2.57972,0.29129c-0.36476,0.27204 -1.11624,0.86483 -1.94639,1.18359c-0.83015,0.31876 -2.01057,0.62269 -2.83973,0.71019c-0.75697,0.05187 -1.87837,-0.10732 -2.8206,-0.75731c-0.55867,-0.24292 -1.12728,-1.50255 -0.74407,-1.87785c0.66909,-0.65524 2.00809,-0.64034 2.91829,-0.32529c0.8048,0.27857 1.80213,0.20406 2.60372,-0.07321c0.78911,-0.26011 1.34508,-0.63768 1.92895,-1.2491c0.88285,-0.92382 3.83018,-2.14781 3.55296,-1.72953z" data-paper-data="{&quot;index&quot;:null}" fill="#f8f8f8" stroke="none" stroke-width="1" stroke-linecap="round"/><path d="M233.05997,182.05327c0.35453,-0.05592 0.39991,0.01318 0.65134,0.09665c0.25143,0.08347 -0.15581,0.74139 -0.51035,0.79731c-0.35454,0.05592 -1.11668,-0.41757 -0.90316,-0.57436c0.21354,-0.1568 0.40763,-0.26367 0.76217,-0.3196z" data-paper-data="{&quot;index&quot;:null}" fill="#101010" stroke="none" stroke-width="1" stroke-linecap="butt"/><path d="M236.33306,184.58229l1.60861,-1.04133" data-paper-data="{&quot;index&quot;:null}" fill="none" stroke="#cccccc" stroke-width="0.36953" stroke-linecap="round"/><path d="M235.88979,179.49641c0.14126,0.22169 0.25796,0.53859 0.31501,0.90031c0.05706,0.36173 0.04356,0.69915 -0.02262,0.95357c-0.06752,0.25351 -0.188,0.42296 -0.34744,0.4481c-0.15933,0.02513 -0.32611,-0.099 -0.46838,-0.31943c-0.14136,-0.22168 -0.25796,-0.53859 -0.31501,-0.90031c-0.05706,-0.36173 -0.04366,-0.69913 0.02262,-0.95357c0.06752,-0.25351 0.188,-0.42296 0.34734,-0.44809c0.15942,-0.02514 0.32621,0.09899 0.46848,0.31941z" fill="#4088ed" stroke="none" stroke-width="1.0615" stroke-linecap="butt"/><path d="M235.81199,179.79003c0.09361,0.13719 0.16883,0.33489 0.20448,0.5609c0.03564,0.22601 0.02492,0.43725 -0.0219,0.5967c-0.04635,0.15927 -0.12829,0.26623 -0.23497,0.28306c-0.10668,0.01682 -0.21747,-0.05975 -0.31058,-0.19702c-0.09364,-0.13729 -0.16885,-0.33499 -0.2045,-0.561c-0.03564,-0.22601 -0.02492,-0.43725 0.02192,-0.5966c0.04633,-0.15936 0.12819,-0.26622 0.23487,-0.28304c0.10668,-0.01682 0.21755,0.05964 0.31068,0.19701z" fill="#000000" stroke="none" stroke-width="0.47368" stroke-linecap="butt"/><path d="M235.6102,179.92592c0.04149,0.05572 0.07453,0.13625 0.08915,0.22891c0.01461,0.09265 0.00795,0.17945 -0.01438,0.24523c-0.02174,0.06559 -0.05985,0.11026 -0.10845,0.11793c-0.0485,0.00765 -0.09861,-0.02313 -0.13948,-0.07883c-0.04149,-0.05572 -0.07443,-0.13627 -0.08906,-0.22892c-0.01461,-0.09265 -0.00805,-0.17944 0.01428,-0.24521c0.02174,-0.06559 0.05995,-0.11029 0.10845,-0.11793c0.0486,-0.00767 0.09861,0.02313 0.13948,0.07883z" fill="#ffffff" stroke="none" stroke-width="0.64678" stroke-linecap="butt"/><path d="M233.10261,179.91778c0.12563,0.19703 0.22927,0.47863 0.27999,0.80025c0.05072,0.32153 0.03878,0.62145 -0.0201,0.84758c-0.05994,0.22529 -0.16707,0.37591 -0.30873,0.39826c-0.14165,0.02235 -0.28995,-0.088 -0.41642,-0.28389c-0.12563,-0.19703 -0.22928,-0.47872 -0.27999,-0.80025c-0.05073,-0.32163 -0.03878,-0.62145 0.0201,-0.84758c0.06002,-0.2254 0.16716,-0.37602 0.30881,-0.39837c0.14165,-0.02235 0.28995,0.088 0.41633,0.28401z" fill="#4088ed" stroke="none" stroke-width="0.94355" stroke-linecap="butt"/><path d="M232.97575,180.20464c0.08313,0.12204 0.15012,0.29775 0.18179,0.49856c0.03168,0.20092 0.02203,0.38872 -0.01951,0.53041c-0.04114,0.14164 -0.11402,0.23665 -0.20885,0.25162c-0.09483,0.01496 -0.19333,-0.05302 -0.27616,-0.17511c-0.08313,-0.12204 -0.15012,-0.29775 -0.1818,-0.49866c-0.03167,-0.20082 -0.02202,-0.38862 0.01952,-0.53031c0.04124,-0.14165 0.11402,-0.23665 0.20885,-0.25162c0.09483,-0.01496 0.19343,0.05301 0.27616,0.17511z" fill="#000000" stroke="none" stroke-width="0.42105" stroke-linecap="butt"/><path d="M232.76352,180.33076c0.03686,0.04946 0.06617,0.12107 0.07915,0.20335c0.013,0.08238 0.00714,0.15953 -0.0127,0.21795c-0.01934,0.05843 -0.05327,0.09809 -0.09643,0.1049c-0.04316,0.00681 -0.08756,-0.02051 -0.12393,-0.07014c-0.03695,-0.04944 -0.06627,-0.12106 -0.07926,-0.20344c-0.01298,-0.08228 -0.00712,-0.15943 0.01281,-0.21786c0.01934,-0.05843 0.05317,-0.09807 0.09633,-0.10489c0.04316,-0.00681 0.08766,0.02049 0.12403,0.07013z" fill="#ffffff" stroke="none" stroke-width="0.57492" stroke-linecap="butt"/><path d="M233.12259,173.23401c0,0 -1.46074,1.05869 -1.75832,1.10561c-0.15255,0.02406 -0.88357,-1.04343 -1.22065,-1.81355c-0.33708,-0.77012 -0.47298,-1.78472 -0.47298,-1.78472z" fill="#ffffff" stroke="none" stroke-width="0" stroke-linecap="butt"/><path d="M233.7033,175.89461l-2.18302,2.0453l-1.0001,2.49363l0.3332,-3.23972l2.41114,-1.79185z" fill="#f8b820" stroke="none" stroke-width="1.22222" stroke-linecap="round"/><path d="M233.15177,175.39626l-2.33294,0.55l-1.85751,2.34324c0,0 0.71809,-2.75853 1.06812,-3.04607c0.24552,-0.20171 2.99853,-0.6606 2.99853,-0.6606z" fill="#f8b820" stroke="none" stroke-width="1.22222" stroke-linecap="round"/><path d="M233.24112,174.23339c0,0 -1.52397,-0.43502 -2.49325,-0.25488c-0.96927,0.18013 -4.05606,1.47201 -4.05606,1.47201c0,0 2.69137,-2.31287 3.34318,-2.42714c0.39519,-0.06927 3.49185,0.33804 3.49185,0.33804z" fill="#f8b820" stroke="none" stroke-width="1.22222" stroke-linecap="round"/></g></g></g></svg>