<svg version="1.1" xmlns="http://www.w3.org/2000/svg" xmlns:xlink="http://www.w3.org/1999/xlink" width="27.88299" height="29.18782" viewBox="0,0,27.88299,29.18782"><defs><radialGradient cx="240.74916" cy="201.82025" r="1.31225" gradientUnits="userSpaceOnUse" id="color-1"><stop offset="0" stop-color="#f5ab87" stop-opacity="0.34902"/><stop offset="1" stop-color="#f5ab87" stop-opacity="0"/></radialGradient><radialGradient cx="235.47928" cy="201.38547" r="0.73225" gradientUnits="userSpaceOnUse" id="color-2"><stop offset="0" stop-color="#f5ab87" stop-opacity="0.34902"/><stop offset="1" stop-color="#f5ab87" stop-opacity="0"/></radialGradient></defs><g transform="translate(-225.88394,-188.78572)"><g data-paper-data="{&quot;isPaintingLayer&quot;:true}" fill-rule="nonzero" stroke-linejoin="miter" stroke-miterlimit="10" stroke-dasharray="" stroke-dashoffset="0" style="mix-blend-mode: normal"><path d="M248.42319,205.83078c0,0 -2.71652,0.06632 -4.38985,0.02484c-1.67334,-0.04149 -3.87903,-0.44224 -3.87903,-0.44224l-0.10844,-1.03502c0,0 2.91367,0.45125 4.19196,0.39156c1.81607,-0.09959 3.98237,-0.04643 3.98237,-0.04643z" fill="#fba15d" stroke="none" stroke-width="0" stroke-linecap="butt"/><g stroke="none" stroke-width="0" stroke-linecap="butt"><path d="M228.96778,210.08203c-1.44513,0.1943 -2.37067,-2.18942 -2.37067,-2.18942c0,0 1.12465,0.98751 2.53175,-0.6544c0.6829,-1.0742 2.68604,-2.41966 2.68604,-2.41966c0,0 1.32554,-1.0112 1.18235,0.05967c-0.06667,0.49849 -0.09877,0.98779 -0.18702,1.45691c-0.10133,0.53865 -0.27669,1.05073 -0.66338,1.5196c0,0 -1.73392,2.03299 -3.17907,2.22729z" fill="#54c81c"/><path d="M226.08241,207.25958c0.27289,-0.28488 0.72504,-0.29461 1.00992,-0.02172c0.28488,0.27289 0.29462,0.72505 0.02173,1.00993c-0.27289,0.28488 -0.72505,0.29461 -1.00993,0.02173c-0.28488,-0.27289 -0.29461,-0.72505 -0.02172,-1.00992z" fill="#ffffff"/></g><g stroke="none" stroke-width="0" stroke-linecap="butt"><path d="M229.51532,211.28017c-1.44336,0.20708 -2.38993,-2.16837 -2.38993,-2.16837c0,0 1.13333,0.97753 2.52586,-0.67676c0.67337,-1.08019 2.66454,-2.44331 2.66454,-2.44331c0,0 1.31655,-1.02289 1.18283,0.04921c-0.06226,0.49907 -0.09003,0.98863 -0.17412,1.45851c-0.09656,0.53953 -0.26739,1.05313 -0.64992,1.52541c0,0 -1.71588,2.04824 -3.15925,2.25532z" fill="#54c81c"/><path d="M226.60511,208.48335c0.27036,-0.28729 0.72241,-0.30101 1.00969,-0.03065c0.28729,0.27036 0.30102,0.72241 0.03066,1.0097c-0.27036,0.28729 -0.72242,0.30102 -1.0097,0.03066c-0.28729,-0.27036 -0.30101,-0.72242 -0.03065,-1.00969z" fill="#ffffff"/></g><g data-paper-data="{&quot;index&quot;:null}" stroke="none" stroke-width="0.17188" stroke-linecap="butt"><path d="M238.85277,199.65163c0.01231,1.65217 0.27298,2.27098 0.29115,3.3499c0.0138,0.8194 -0.42937,1.17039 -0.57217,1.05219c-0.331,-0.27381 -1.29763,-3.11124 -1.35077,-4.49891c-0.03341,-0.87703 -0.63379,-2.99507 -0.33677,-3.79772c0.19539,-0.52732 1.035,-0.61541 1.60817,-0.61025c0.44365,0.00312 0.55965,-0.14633 0.59518,0.2823c0.10722,1.29642 -0.24708,2.57032 -0.23478,4.22249z" fill="#c27e34"/><path d="M237.77193,194.01961c-0.31189,0.40806 -0.67535,0.29939 -0.83338,0.17856c-0.75714,-0.61932 -1.25883,-1.74761 -1.22564,-2.62526c-0.04109,0.17406 0.25945,-0.82405 1.20634,-0.75729c0.41026,0.01118 1.15349,-0.16393 1.81309,-0.18619l0.6319,0.14334c0.29039,0.06576 0.43752,0.47143 0.28713,0.75345c-0.02221,0.04172 0.22175,-0.06644 0.36106,0.06386c0.25077,0.23455 0.45879,0.77255 0.26436,1.01731c-0.17028,0.21479 -0.16828,0.6299 -0.51558,0.82734c-0.46832,0.26623 -0.28327,-0.40999 -0.71177,-0.32709c-0.2547,0.04913 -1.27036,0.9028 -1.2775,0.91197z" fill="#ffcfea"/><path d="M239.14837,195.97227c0.23584,0.16435 -0.19201,-0.56325 -0.48424,-0.4578c-0.28846,0.10417 -1.8007,0.96442 -2.00352,0.7235c-0.35553,-0.47616 0.19028,-1.60607 -0.11481,-2.10657c0.09711,0.1533 0.70465,0.02913 0.70465,0.02913c0.03248,-0.00936 0.49358,-0.20504 0.96421,-0.61926c0.38698,-0.34058 0.77086,-0.71884 0.98655,-0.56806c0.14931,0.10416 0.54704,0.42733 0.55991,0.80355c0.01356,0.39971 0.16621,0.93107 0.06062,1.32971c-0.04569,0.17261 -0.44822,1.15188 -0.53039,1.27274c-0.12525,0.18377 -0.19019,-0.43987 -0.14297,-0.40694z" fill="#ead42f"/></g><path d="M237.44018,205.99082c-0.01694,-0.31371 0.17721,-0.49004 0.40006,-0.80299c0.17616,-0.24723 0.17492,-0.39033 0.42096,-0.81035c0.07792,-0.13298 0.43307,-0.37096 0.5006,-0.54223c0.06369,-0.16219 0.60668,-0.40464 0.71867,-0.4521c0.43589,-0.18424 0.79052,0.23592 0.8924,0.31732c0.08066,0.06444 0.43475,0.40437 0.44379,0.5154c0.0292,0.36009 -0.34607,0.93329 -0.78574,1.46921c-0.49719,0.61743 -0.75217,3.12602 -1.18372,3.25291c-0.44913,0.06516 -1.40702,-2.94717 -1.40702,-2.94717z" data-paper-data="{&quot;index&quot;:null}" fill="#c27e34" stroke="none" stroke-width="0.17188" stroke-linecap="butt"/><path d="M235.58113,211.50407c-0.0246,-0.58474 3.10656,-0.12261 3.11304,0.13168c0.00268,0.10512 -0.26875,2.21462 -0.19631,2.96094c0.04256,0.43854 -0.63969,1.46054 -1.3057,2.07596c-0.666,0.61542 -3.8119,1.30089 -3.8119,1.30089c0,0 0.73419,-0.96462 1.09556,-1.64667c0.36137,-0.68205 0.86238,-1.30329 0.81619,-1.9616z" data-paper-data="{&quot;index&quot;:null}" fill="#54c81c" stroke="none" stroke-width="0.17188" stroke-linecap="butt"/><path d="M236.4441,211.74868c-0.006,0.11163 -0.91251,1.67822 -0.89845,2.47527c0.0046,0.26122 -1.24719,0.99797 -2.14965,0.96309c-0.90246,-0.0349 -2.82512,0.42459 -2.82512,0.42459l0.66237,-1.03701l1.36668,-0.11746l2.28352,-0.54275z" data-paper-data="{&quot;index&quot;:null}" fill="#54c81c" stroke="none" stroke-width="0.17188" stroke-linecap="butt"/><path d="M233.65541,212.38547c0.56067,-0.39801 0.35464,-0.03346 1.19163,-1.18928c0.83698,-1.15583 0.78333,-3.76034 2.2377,-5.37691c0.3281,0.94084 -0.49663,4.12272 -0.74955,5.2352c-0.25294,1.11247 -0.65444,1.60125 -0.8043,2.24225c-0.16188,0.69182 -2.78711,1.65615 -4.11261,1.44693c-1.32548,-0.20924 1.67645,-1.96017 2.23712,-2.35818z" data-paper-data="{&quot;index&quot;:null}" fill="#ffffff" stroke="none" stroke-width="0.17188" stroke-linecap="butt"/><path d="M236.7799,206.51342c0.32128,-0.49441 0.66796,-0.57947 0.85992,-0.54394c0.50951,0.09432 0.64774,0.37306 1.77472,0.51987c0.06891,0.46689 0.07772,1.29742 -0.16275,2.58913c-0.24048,1.29171 -0.72087,3.69809 -0.81376,4.31037c-0.10037,0.66084 -2.82225,1.69374 -3.18916,1.7031c-0.38363,0.00978 0.27445,-1.04706 0.29797,-1.6147c0.02352,-0.56764 0.18775,-0.47315 0.15613,-1.71379c-0.03196,-1.25374 0.08459,-1.60283 0.26529,-2.58615c0,0 0.40966,-1.8056 0.8314,-2.46394z" data-paper-data="{&quot;index&quot;:null}" fill="#ffffff" stroke="none" stroke-width="0.17188" stroke-linecap="butt"/><path d="M238.34553,214.28699c0.00172,-0.67018 2.22922,-0.31404 2.22197,-0.02279c-0.003,0.1203 2.72385,0.45307 3.36657,0.75769c0.64274,0.3046 1.80926,1.4998 1.80926,1.4998l-2.81423,0.24148c0,0 -1.63212,-0.0657 -2.60095,-0.40782c-0.96884,-0.34211 -1.93316,-1.1659 -1.93316,-1.1659z" data-paper-data="{&quot;index&quot;:null}" fill="#54c81c" stroke="none" stroke-width="0.17188" stroke-linecap="butt"/><g data-paper-data="{&quot;index&quot;:null}" stroke="none" stroke-linecap="butt"><path d="M244.84613,214.75949c-0.14667,0.75901 -4.76088,-0.22174 -4.96019,-0.95981c-0.50652,-1.85915 0.01712,-6.79366 0.35875,-6.84113c0.27361,-0.01754 1.15006,2.28798 1.79761,4.23284c0.33192,0.99686 2.75209,2.92927 2.80385,3.56808z" data-paper-data="{&quot;index&quot;:null}" fill="#ffffff" stroke-width="0.19137"/><path d="M241.32623,214.05158c0.75483,0.01517 3.3247,0.16349 3.3247,0.16349l1.2549,1.25332c0,0 -4.49004,0.32482 -4.65555,-0.03621c-0.38161,-0.83343 -1.52529,-1.87257 -1.50836,-2.12746c0.02428,-0.3656 0.38451,0.44951 1.1392,0.46467z" data-paper-data="{&quot;index&quot;:null}" fill="#54c81c" stroke-width="0.17188"/></g><path d="M248.5639,204.66487c0,0 -2.42071,0.2758 -3.63414,0.32829c-1.32372,0.05726 -4.44544,-0.37246 -4.44544,-0.37246l-0.25739,-0.92628c0,0 3.09899,0.01892 4.40786,-0.1519c1.00948,-0.13175 2.99813,-0.249 2.99813,-0.249z" fill="#fba15d" stroke="none" stroke-width="0" stroke-linecap="butt"/><path d="M239.41252,206.34159c0.40216,0.01758 0.574,0.00699 0.86874,0.70836c0.29474,0.70137 0.94772,2.80193 1.23248,4.12053c0.1012,0.46863 2.10295,3.63219 2.74989,4.50605c0.26011,0.35135 -1.17169,0.08963 -1.99403,0.00847c-0.82234,-0.08115 -1.52378,-0.35561 -1.52378,-0.35561c0,0 -0.86836,-0.27442 -1.33884,-0.62406c-0.47048,-0.34965 -0.94579,0.20258 -0.91042,-1.21717c0.03575,-1.43485 0.09096,-4.00689 0.21008,-4.9616c0.10799,-0.8656 0.22198,-2.11597 0.27519,-2.11361z" data-paper-data="{&quot;index&quot;:null}" fill="#ffffff" stroke="none" stroke-width="0.17188" stroke-linecap="butt"/><path d="M242.56826,199.38137c0.00829,0.91731 -0.07479,1.83203 -0.14928,2.74595c-0.00987,0.3766 -0.23809,0.70548 -0.51551,0.94307c-0.30181,0.25026 -0.70933,0.30311 -1.07427,0.41276c-0.56982,0.14908 -1.15765,0.21892 -1.74587,0.19255c-0.72475,0.00583 -1.63987,-0.08704 -2.27393,-0.50729c-0.433,-0.19789 -0.36573,-0.18733 -0.81297,-0.36633c-0.89368,-0.50019 -1.51796,-1.39139 -1.82531,-2.35572c-0.1886,-0.57645 -0.28265,-1.19519 -0.21409,-1.80059c0.04349,-0.25488 0.63824,-4.52602 4.65704,-4.20958c4.38686,0.34543 3.94681,4.82575 3.95419,4.94518z" data-paper-data="{&quot;index&quot;:null}" fill="#f0e9bb" stroke="none" stroke-width="0.17188" stroke-linecap="butt"/><path d="M235.21359,198.72749c0.60616,0.20764 0.80532,0.55337 0.88745,1.10205c0.13052,0.29848 0.0266,1.4395 -0.18074,1.43449c-0.21061,-0.03294 -0.45723,-0.07261 -0.71039,-0.12755c-0.39524,-0.08573 -0.50141,-0.18913 -0.46418,-0.27076c0.02567,-0.05636 -0.0445,-0.22565 -0.07917,-0.3932c-0.03529,-0.17062 -0.03528,-0.34144 -0.03743,-0.62631c-0.00193,-0.26421 0.0396,-0.55522 0.10168,-0.75089c0.08878,-0.27904 0.23453,-0.40844 0.48279,-0.36783z" data-paper-data="{&quot;index&quot;:null}" fill="#ffffff" stroke="none" stroke-width="0.17188" stroke-linecap="butt"/><path d="M235.86159,198.97036c-0.41598,-0.42365 -0.5583,-0.4713 -0.86131,-0.20713c-0.22698,0.17767 -0.383,0.79509 -0.39571,1.21444c-0.01699,0.56033 0.12964,0.98414 0.12964,0.98414c0,0 -0.12404,-0.12706 -0.22168,-0.41893c-0.09763,-0.29187 0.0206,-0.63787 -0.1514,-0.75489c-0.18013,-0.12255 -1.02375,-0.25868 -1.02375,-0.25868c0,0 1.18552,-0.00044 1.18793,-0.07506c0.01044,-0.32358 0.20923,-0.65476 0.32553,-0.75955c0.20913,-0.18845 0.33615,-0.26181 0.61027,-0.18982c0.19654,0.05162 0.31465,0.16919 0.52276,0.38144c0.67457,0.688 0.05779,2.33696 0.05779,2.33696c0,0 0.39068,-1.80504 -0.18008,-2.25292z" data-paper-data="{&quot;index&quot;:null}" fill="#000000" stroke="none" stroke-width="0" stroke-linecap="butt"/><g data-paper-data="{&quot;index&quot;:null}" stroke="none" stroke-linecap="butt"><path d="M235.2156,201.40199c-0.25026,0 -0.45314,-0.42916 -0.45314,-0.95856c0,-0.5294 0.20288,-0.95856 0.45314,-0.95856c0.25026,0 0.45314,0.42916 0.45314,0.95856c0,0.5294 -0.20288,0.95856 -0.45314,0.95856z" fill="#008ae6" stroke-width="0"/><path d="M235.22031,199.61788c0.07882,0.00751 0.14831,0.09815 0.19679,0.23878c0.04832,0.14064 0.07575,0.33112 0.07057,0.5381c-0.00505,0.20684 -0.04175,0.39133 -0.097,0.52226c-0.0551,0.1309 -0.1288,0.20825 -0.20772,0.20089c-0.07892,-0.00734 -0.14829,-0.09815 -0.19677,-0.23877c-0.04835,-0.14064 -0.07579,-0.33112 -0.07075,-0.53808c0.0052,-0.20685 0.04188,-0.39135 0.09713,-0.52227c0.05512,-0.13091 0.1288,-0.20826 0.20772,-0.2009z" fill="#000000" stroke-width="0.0278"/><path d="M235.36469,199.8558c0.04207,0.09778 0.067,0.23122 0.06483,0.37734c-0.00203,0.14592 -0.0307,0.27689 -0.0755,0.37069c-0.04461,0.09378 -0.10533,0.15045 -0.17136,0.1474c-0.066,-0.00305 -0.12505,-0.06522 -0.16694,-0.16303c-0.04207,-0.09778 -0.067,-0.23123 -0.06482,-0.37735c0.00203,-0.14592 0.03069,-0.27689 0.07549,-0.37069c0.04461,-0.09377 0.10533,-0.15044 0.17136,-0.14739c0.066,0.00306 0.12505,0.06521 0.16695,0.16302z" fill="#ffffff" stroke-width="0.01811"/></g><path d="M239.31525,199.59235c0.35637,-0.51369 0.6619,-0.65129 1.01899,-0.65129c0.50009,0 0.79537,0.76866 0.81319,1.38581c0.02,0.6926 -0.32037,1.01971 -0.32037,1.01971c0,0 -0.44393,0.13011 -0.93532,0.15374c-0.31485,0.01504 -0.66508,-0.01872 -0.92479,-0.01872c-0.25019,-0.027 0.26074,-1.76302 0.3483,-1.88925z" data-paper-data="{&quot;index&quot;:null}" fill="#ffffff" stroke="none" stroke-width="0.17188" stroke-linecap="butt"/><g data-paper-data="{&quot;index&quot;:null}" stroke="none" stroke-linecap="butt"><path d="M239.4656,201.73532c-0.25025,0 -0.45313,-0.42916 -0.45313,-0.95856c0,-0.5294 0.20288,-0.95856 0.45313,-0.95856c0.25025,0 0.45313,0.42916 0.45313,0.95856c0,0.5294 -0.20288,0.95856 -0.45313,0.95856z" fill="#008ae6" stroke-width="0"/><path d="M239.47031,199.95122c0.07883,0.00751 0.14831,0.09815 0.19679,0.23877c0.04832,0.14064 0.07575,0.33112 0.07057,0.53811c-0.00505,0.20684 -0.04175,0.39133 -0.097,0.52225c-0.05511,0.13089 -0.1288,0.20825 -0.20772,0.20089c-0.07892,-0.00735 -0.14829,-0.09815 -0.19677,-0.23877c-0.04835,-0.14064 -0.07579,-0.33112 -0.07075,-0.53808c0.0052,-0.20685 0.04188,-0.39135 0.09713,-0.52227c0.05512,-0.13091 0.1288,-0.20827 0.20772,-0.20091z" fill="#000000" stroke-width="0.0278"/><path d="M239.61469,200.18914c0.04207,0.09779 0.067,0.23123 0.06483,0.37735c-0.00203,0.14592 -0.03069,0.27689 -0.07549,0.37069c-0.04461,0.09379 -0.10533,0.15045 -0.17136,0.1474c-0.066,-0.00305 -0.12505,-0.06523 -0.16695,-0.16303c-0.04207,-0.09779 -0.067,-0.23123 -0.06483,-0.37735c0.00203,-0.14592 0.03069,-0.27689 0.07549,-0.37069c0.04461,-0.09377 0.10533,-0.15044 0.17136,-0.14739c0.066,0.00307 0.12505,0.06521 0.16695,0.16301z" fill="#ffffff" stroke-width="0.01811"/></g><path d="M238.85464,201.43965c0,0 -0.0558,-1.42945 0.61877,-2.11745c0.20811,-0.21225 0.375,-0.3786 0.57155,-0.43023c0.27411,-0.07199 0.4987,0.00137 0.70783,0.18982c0.1163,0.10479 0.31509,0.43598 0.32552,0.75955c0.00241,0.07462 1.18793,0.07506 1.18793,0.07506c0,0 -0.84362,0.13614 -1.02374,0.25869c-0.172,0.11702 -0.05377,0.46302 -0.1514,0.75489c-0.09763,0.29187 -0.22167,0.41893 -0.22167,0.41893c0,0 0.14663,-0.42381 0.12964,-0.98414c-0.01271,-0.41935 -0.16873,-1.03677 -0.39571,-1.21444c-0.30301,-0.26416 -0.61607,-0.19212 -1.03205,0.23153c-0.57075,0.44788 -0.71667,2.05779 -0.71667,2.05779z" fill="#000000" stroke="none" stroke-width="0" stroke-linecap="butt"/><path d="M236.0898,201.24358c0,0 -0.13578,0.53333 -0.55,0.53333c-0.41422,0 -0.81666,-0.8 -0.81666,-0.8l0.45,0.13333z" fill="#f0e9bb" stroke="none" stroke-width="0" stroke-linecap="butt"/><path d="M240.39123,201.50582c0,0 -0.03262,0.54938 -0.43938,0.6276c-0.40676,0.07823 -0.95305,-0.63138 -0.95305,-0.63138l0.46708,0.04595z" fill="#f0e9bb" stroke="none" stroke-width="0" stroke-linecap="butt"/><path d="M234.31851,194.37932c0.53595,0.41563 -1.4243,3.24951 -1.11419,2.77797c-0.57843,-0.35704 -1.01718,-1.05194 -1.14857,-1.59037c-0.01204,-0.04929 0.04654,-0.18544 0.04654,-0.18544c-0.08831,0.0226 0.02845,-0.08526 0.03744,-0.17793c0.00703,-0.07291 -0.07063,-0.22723 -0.07063,-0.22723c-0.0405,0.02885 0.17329,-0.08813 0.25173,-0.1646c0.06484,-0.06313 0.035,-0.10374 0.08863,-0.14276c0.37642,-0.27523 1.01796,-0.41483 1.90908,-0.28966z" data-paper-data="{&quot;index&quot;:null}" fill="#ed3e67" stroke="none" stroke-width="0.17188" stroke-linecap="butt"/><path d="M242.29664,198.49948c-0.05257,-0.08824 -0.16005,-0.14169 -0.31623,-0.23197c-0.11736,-0.06797 -0.34518,-0.20045 -0.41988,-0.26971c-0.18751,-0.17389 -0.97825,-0.14692 -0.93143,-0.07183c-0.06096,0.1131 0.00591,-0.30576 -1.03655,0.67376l-1.10984,1.04336c-0.10216,0.09595 -0.50729,0.48459 -0.82927,0.59653c-0.34608,0.12033 -0.85872,0.1638 -0.90496,0.09376c0,0 -0.32296,-0.56808 -0.51551,-0.78422c-0.07321,-0.08218 -0.06539,0.09662 0.00899,0.32602c0.01224,0.03794 0.23907,0.60925 0.2287,0.63454c-0.05621,0.13603 -1.19964,-1.64966 -1.26148,-1.74795l-0.38104,-0.60709c-0.12863,-0.2047 -0.33216,-0.09998 -0.4179,-0.122c-0.12882,-0.03319 -0.20696,0.07122 -0.21556,0.19946c-0.01109,0.16221 -0.02056,0.83272 -0.03251,0.93073c-0.06284,0.51905 0.21891,1.2209 0.3607,1.95798c0.08299,0.43111 1.82778,1.97031 1.60569,1.65784c-0.10018,-0.14108 -0.10611,1.01055 -0.4011,1.15904c-0.21052,0.1062 -1.2438,-1.72098 -1.35149,-2.11102l-0.61548,-2.2271c-0.18041,-0.65213 0.14294,-2.4963 0.23749,-2.83141l0.18465,-0.6547c0.34004,-0.77402 0.82472,-1.4637 1.47637,-2.05597c0.04149,-0.03773 0.64393,-0.72513 1.71524,-1.08641c0.67653,-0.2282 1.80792,-0.26565 1.89673,-0.26683c0.52083,-0.00691 1.53711,-0.03666 2.46558,0.16696c0.59061,0.12951 1.11669,0.42312 1.55047,0.65253c0.07797,0.04111 -0.7614,1.05422 -0.68651,1.08969c0.03637,0.01709 -0.19214,0.96974 -0.18334,1.06054l0.05858,0.6063c0.05927,0.61292 0.61706,1.24055 0.71763,1.32186c0.1376,0.11143 0.61221,0.44989 0.77117,0.45406l0.53576,0.01452c0.0734,0.00178 0.71388,-0.46224 0.76466,-0.4171c0.17891,0.15916 0.08998,1.08622 0.05363,1.2685l-0.19116,0.95938c-0.06164,0.30901 -0.07784,0.48328 -0.27206,0.9086c-0.26624,0.58367 -0.53506,1.16644 -0.95396,1.69924c-0.33845,0.43065 -1.97438,1.64649 -1.94356,1.49178l0.26041,-1.31603l0.22328,-1.85968l-0.14493,-2.30593z" data-paper-data="{&quot;index&quot;:null}" fill="#54c81c" stroke="none" stroke-width="0.17188" stroke-linecap="butt"/><path d="M235.84871,193.7546c0,0 0.69561,-1.44961 1.73599,-2.53078c0.85701,-0.89061 2.2878,-1.92 4.08471,-2.21329c1.79691,-0.29329 4.18523,-0.42533 6.96056,0.41046c2.77534,0.83579 3.75822,1.75418 3.75822,1.75418c0,0 -1.60001,0.67198 -2.74148,0.56706c-1.14147,-0.10492 -1.47779,-0.05568 -2.39662,-0.02218c-0.91883,0.0335 -1.28766,0.35118 -2.21815,0.91342c-0.93049,0.56224 -1.1397,1.35532 -1.1397,1.35532c0,0 -2.23811,-0.77099 -3.52581,-0.80848c-1.38621,-0.04036 -4.51772,0.57429 -4.51772,0.57429z" fill="#c27e34" stroke="none" stroke-width="0" stroke-linecap="butt"/><g stroke-width="0" stroke-linecap="butt"><path d="M252.84789,192.07067c-0.47963,-0.00986 -0.86046,-0.40668 -0.85058,-0.8863c0.00986,-0.47963 0.40668,-0.86046 0.88631,-0.8506c0.47963,0.00986 0.86045,0.40668 0.85058,0.8863c-0.00986,0.47963 -0.40668,0.86046 -0.8863,0.85059z" fill="#db7b04" stroke="none"/><path d="M252.85465,190.24669c0.1648,0.00339 0.09984,0.49327 0.0903,0.95718c-0.00954,0.4639 0.0933,0.92848 -0.0715,0.92509c-0.25102,-0.00517 -0.28889,-0.46841 -0.27935,-0.93231c0.00954,-0.4639 -0.01919,-0.95571 0.26056,-0.94996z" fill="#feeb00" stroke="#000000"/><path d="M253.66454,191.1694c0.18112,0.00372 0.06718,0.10358 0.06532,0.19413c-0.00187,0.09056 -0.38127,0.21369 -0.56238,0.20996c-0.18112,-0.00372 -0.09416,-0.19037 -0.09229,-0.28093c0.00187,-0.09056 0.40824,-0.1269 0.58935,-0.12317z" fill="#000000" stroke="none"/><path d="M253.09579,190.6309c0.00098,-0.04761 -0.06653,-0.14511 0.06043,-0.14249c0.12696,0.00262 0.3716,0.10374 0.37063,0.15137c-0.00098,0.04762 -0.07596,0.08469 -0.20293,0.08207c-0.12696,-0.00262 -0.2291,-0.04332 -0.22812,-0.09093z" fill="#000000" stroke="none"/></g><path d="M246.2054,196.9798c-0.99831,0.34114 -2.29455,-1.74718 -2.29455,-1.74718c0,-0.3768 0.9216,-1.1467 1.97119,-1.04049c0.80219,0.08132 1.3265,0.34991 1.58939,0.68425c0.03753,0.04773 0.00216,0.07834 0.04376,0.15048c0.05046,0.08713 0.20884,0.24114 0.18038,0.20579c0,0 -0.10325,0.12429 -0.11401,0.19246c-0.01374,0.08674 0.06284,0.21121 -0.0086,0.17111c0,0 0.01937,0.13753 -0.00256,0.18001c-0.23878,0.46413 -0.78046,1.00374 -1.36503,1.20361z" data-paper-data="{&quot;index&quot;:null}" fill="#ed3e67" stroke="none" stroke-width="0.17188" stroke-linecap="butt"/><path d="M243.14285,195.90513c0.09563,0.06659 -0.00187,-0.50809 0.12734,-1.06894c0.1379,-0.5989 0.5149,-1.18969 1.03041,-1.21892c0.29768,-0.01679 0.56441,0.07813 0.81554,0.14996c0.51808,0.1481 0.88212,0.35884 0.70025,0.42897c-0.30863,0.11913 -0.70468,0.34113 -0.96936,0.52824c-0.37748,0.26674 -0.62014,0.47103 -0.60166,0.49159l1.18848,1.32126l0.8018,0.46987c0.13327,0.06896 -0.22277,0.29954 -0.62485,0.46541c-0.34706,0.14335 -0.5885,0.35834 -0.71043,0.39528c-0.54287,0.16539 -0.47173,-0.08762 -1.10718,-0.43123c-0.36948,-0.19986 -0.79399,-1.63185 -0.65034,-1.53148z" data-paper-data="{&quot;index&quot;:null}" fill="#54c81c" stroke="none" stroke-width="0.17188" stroke-linecap="butt"/><path d="M242.39874,195.86997c0.02826,-1.28236 0.54869,-2.74033 1.42618,-2.32263c0.368,0.17507 -0.1976,0.41811 -0.47965,1.17615c-0.17948,0.48241 -0.2111,1.22276 0.08034,2.1281c0.03072,0.09494 0.19037,0.28017 0.4089,0.51995c0.33482,0.36762 1.71061,0.16577 1.49702,0.29341l-0.83431,0.4982l-0.58959,-0.10817c-0.37503,0.02659 -1.53465,-1.01164 -1.50887,-2.18501z" data-paper-data="{&quot;index&quot;:null}" fill="#ead32e" stroke="none" stroke-width="0.17188" stroke-linecap="butt"/><path d="M234.68073,195.23917c-0.07686,0.26577 -0.3932,0.66984 -0.3932,0.66984c-0.04198,-0.12971 0.08132,-0.34252 0.07796,-0.4591c-0.00781,-0.26952 0.18286,-0.92767 0.66487,-1.38054l0.27415,-0.25745c0.13495,-0.12684 0.62912,-0.25657 0.72534,-0.19491c0.1155,0.15244 -0.48677,0.47954 -0.88638,1.02341c-0.19156,0.26072 -0.46275,0.59878 -0.46275,0.59878z" data-paper-data="{&quot;index&quot;:null}" fill="#ead32e" stroke="none" stroke-width="0.17188" stroke-linecap="butt"/><path d="M234.53131,195.16051c-0.0579,0.13702 -0.26664,0.81248 -0.35862,1.1457l-0.36258,1.31326c-0.02667,0.09662 -0.7597,-0.44506 -0.70755,-0.73967c-0.12824,-0.33393 -0.02075,-0.62053 0.02203,-0.91986c0.14247,-0.3274 0.4106,-0.77244 0.5898,-0.95265c0.14434,-0.14513 -0.02528,-0.6065 0.0988,-0.79767c0.18663,-0.28788 1.22741,-0.25577 1.22741,-0.25577z" data-paper-data="{&quot;index&quot;:null}" fill="#54c81c" stroke="none" stroke-width="0.17188" stroke-linecap="butt"/><path d="M239.65796,202.99775h0.83908" data-paper-data="{&quot;index&quot;:null}" fill="none" stroke="#dfcfa3" stroke-width="0.36953" stroke-linecap="round"/><path d="M233.31351,199.52956l0.88618,-0.02564l0.05378,0.20263z" fill="#000000" stroke="none" stroke-width="0" stroke-linecap="butt"/><path d="M237.76537,206.76391l-1.18527,1.59599c0,0 -0.64501,-5.11898 -2.32244,-3.95002c-0.54281,0.3539 -2.33001,1.97554 -2.33001,1.97554c0,0 -1.77987,1.89558 -2.39664,2.0488c-0.78456,0.19491 -0.688,-0.57821 -0.38321,-1.09757c0.30478,-0.51935 1.47903,-1.33213 2.1576,-1.95992c0.82548,-0.76372 1.406,-1.65643 2.60761,-2.56231c1.20159,-0.90589 1.80814,0.15935 1.80814,0.15935z" fill="#ffffff" stroke="none" stroke-width="0" stroke-linecap="butt"/><path d="M238.22426,207.20412l-1.6105,2.06973c0,0 -0.35412,-5.38826 -1.93645,-4.0935c-0.51392,0.39468 -2.17081,2.14926 -2.17081,2.14926c0,0 -1.62847,2.02714 -2.23159,2.22743c-0.76721,0.2548 -0.73051,-0.52346 -0.46667,-1.06477c0.26385,-0.54131 1.37196,-1.44216 2.00011,-2.12039c0.76416,-0.82508 1.27414,-1.75986 2.40234,-2.75567c1.12819,-0.99582 1.80742,-0.20662 1.80742,-0.20662z" fill="#ffffff" stroke="none" stroke-width="0" stroke-linecap="butt"/><g stroke="none" stroke-width="0" stroke-linecap="butt"><path d="M236.20142,196.75813c-0.12279,-0.04621 -0.51454,-0.18683 -0.63241,-0.3156c-0.15442,-0.1687 -0.2248,-0.44149 -0.20632,-0.4906c0.01675,-0.04451 0.24826,0.04685 0.41707,0.19861c0.11156,0.10028 0.13021,0.25664 0.27574,0.3114c0.16212,0.06101 0.68123,-0.06029 0.90814,-0.03353c0.08816,0.01039 0.30206,0.22561 0.42979,0.45121c0.13502,0.23847 0.18161,0.48772 0.18161,0.48772l-0.3817,0.30289l-0.10127,-0.98406c0,0 -0.10787,0.03785 -0.30152,0.06294c-0.20821,0.02698 -0.50596,0.04032 -0.58913,0.00902z" fill="#671829"/><path d="M235.7793,196.08454c-0.12452,-0.04686 -0.3678,-0.21953 -0.32827,-0.3246c0.03953,-0.10505 0.22022,-0.27906 0.34474,-0.23221c0.02843,0.01069 0.74922,0.84732 1.09317,0.45508c0.16641,-0.18978 -0.34735,-0.69459 -0.34735,-0.69459l0.35314,-0.03062c0,0 0.32997,0.54497 0.04113,0.81319c-0.41742,0.38762 -1.092,0.03804 -1.15658,0.01375z" fill="#671829"/><path d="M235.42293,194.93272c0,0 0.12201,0.02752 0.05755,0.19883c-0.01502,0.0399 0.07498,-0.20001 0.22222,-0.22824c0.16444,-0.03153 0.37498,0.14022 0.37827,0.23239c0.00352,0.09894 -0.11148,0.28403 -0.26502,0.39216c-0.22342,0.15736 -0.45601,0.25026 -0.4963,0.2351c-0.13407,-0.05045 -0.38009,-0.55633 -0.32302,-0.73303c0.02899,-0.08976 0.42631,-0.09719 0.42631,-0.09719z" fill="#804046"/><path d="M234.87528,196.64464c-0.06034,0.00032 -0.32204,-0.27811 -0.28467,-0.36472c0.07356,-0.17048 0.6681,-0.63355 0.80217,-0.58311c0.04029,0.01516 0.04122,0.19593 0.10548,0.46154c0.04416,0.18253 0.06757,0.51731 0.06757,0.51731l-0.45004,0.00114l0.04852,-0.27752c0,0 -0.17461,0.24473 -0.28903,0.24537z" data-paper-data="{&quot;index&quot;:null}" fill="#804046"/><path d="M235.15504,195.71292c0.03075,-0.08171 0.12664,-0.12125 0.21419,-0.0883c0.08755,0.03294 0.13359,0.12588 0.10284,0.2076c-0.03075,0.08171 -0.12664,0.12125 -0.21419,0.0883c-0.08755,-0.03294 -0.13359,-0.12588 -0.10284,-0.2076z" fill="#671829"/></g><path d="M237.13278,204.15872c0,-0.51334 1.17861,-0.44414 2.3646,-0.44414c1.186,0 2.16052,-0.46559 2.16052,0.04775c0,0.09149 0.05779,0.14811 -0.18415,0.3482c-0.13449,0.11122 0.38174,0.1634 0.19684,0.28743c-0.41662,0.27946 -1.69529,0.07931 -2.22423,0.07931c-0.438,0 -1.88844,0.36799 -2.21704,0.13437c-0.19722,-0.14022 0.45234,-0.13297 0.3122,-0.24058c-0.2586,-0.19856 -0.40873,-0.13346 -0.40873,-0.21233z" fill="#ffe340" stroke="none" stroke-width="0" stroke-linecap="butt"/><path d="M239.43691,201.77421c0,-0.32172 0.80526,-0.12708 1.39624,-0.26252c0.15674,-0.03592 0.33217,-0.09323 0.5003,-0.14139c0.39354,-0.11273 0.74705,-0.17532 0.72717,0.20391c-0.02836,0.54124 -0.53507,0.78252 -1.18527,0.78252c-0.60801,0 -1.43843,-0.26081 -1.43843,-0.58253z" data-paper-data="{&quot;index&quot;:null}" fill="url(#color-1)" stroke="none" stroke-width="0" stroke-linecap="butt"/><path d="M238.45412,203.74759c0,-0.07045 0.28665,0.05651 1.08552,-0.02551c0.49694,-0.05102 1.10443,-0.12807 1.10443,-0.05762c0,0.07044 -1.89317,0.38071 -2.16581,0.3909c-0.27265,0.01019 -0.02415,-0.23732 -0.02415,-0.30777z" fill="#000000" stroke="none" stroke-width="0" stroke-linecap="butt"/><g data-paper-data="{&quot;index&quot;:null}" stroke="none" stroke-width="0.17188" stroke-linecap="butt"><path d="M240.18464,203.79592c0.01817,-1.07889 -0.09428,-1.69772 -0.08199,-3.3499c0.01228,-1.65217 -0.19275,-2.92607 -0.08553,-4.22249c0.03552,-0.42864 0.37541,-0.27918 0.81906,-0.2823c0.57316,-0.00517 1.63665,-0.06634 1.83205,0.461c0.29699,0.80266 -0.378,3.14459 -0.4114,4.0216c-0.05314,1.38767 -1.16902,4.15049 -1.50002,4.42428c-0.14279,0.1182 -0.58598,-0.23279 -0.57216,-1.05219z" fill="#c27e34"/><path d="M241.55655,194.81398c-0.00714,-0.00917 -1.02279,-0.86282 -1.2775,-0.91197c-0.42851,-0.08289 -0.24346,0.59331 -0.71177,0.32709c-0.3473,-0.19743 -0.3453,-0.61255 -0.51558,-0.82734c-0.19443,-0.24477 0.01358,-0.78276 0.26436,-1.01731c0.13933,-0.1303 0.38329,-0.02214 0.36106,-0.06386c-0.15039,-0.282 -0.00326,-0.68769 0.28712,-0.75345l0.6319,-0.14334c0.6596,0.02226 1.40281,0.19738 1.81309,0.18619c0.94691,-0.06675 1.24743,0.93136 1.20635,0.75729c0.03319,0.87764 -0.46849,2.00593 -1.22564,2.62526c-0.15802,0.12083 -0.52149,0.2295 -0.83338,-0.17856z" fill="#ffcfea"/></g><path d="M240.13911,196.32808c-0.43194,-0.18369 -0.40394,-0.30087 -0.45576,-0.51599c-0.11979,-0.49687 0.04574,-1.16348 0.05803,-1.66347c0.01167,-0.47059 0.09393,-0.33557 0.25868,-0.46795c0.238,-0.19169 0.76068,-0.1264 1.25285,-0.07156c0.49218,0.05484 1.29395,0.31794 1.33,0.32917c0,0 0.18202,0.75044 0.20893,1.24393c0.02692,0.49349 0.19009,0.5053 -0.06108,1.08154c-0.22313,0.30416 -0.85051,0.22614 -1.42132,0.23981c-0.5708,0.01368 -0.73838,0.00818 -1.17032,-0.17551z" fill="#fca03b" stroke="none" stroke-width="0.17188" stroke-linecap="butt"/><path d="M236.21155,201.33941c0,0.32172 -0.46339,0.58253 -0.80266,0.58253c-0.36282,0 -0.76556,-0.40128 -0.78139,-0.94252c-0.01109,-0.37923 0.26617,0.00336 0.48577,0.11608c0.09382,0.04816 0.27171,0.06547 0.35917,0.10139c0.32977,0.13544 0.73911,-0.17919 0.73911,0.14253z" data-paper-data="{&quot;index&quot;:null}" fill="url(#color-2)" stroke="none" stroke-width="0" stroke-linecap="butt"/></g></g></svg>