<svg version="1.1" xmlns="http://www.w3.org/2000/svg" xmlns:xlink="http://www.w3.org/1999/xlink" width="21.52617" height="41.54438" viewBox="0,0,21.52617,41.54438"><g transform="translate(-230.37546,-158.04065)"><g data-paper-data="{&quot;isPaintingLayer&quot;:true}" fill-rule="nonzero" stroke-linejoin="miter" stroke-miterlimit="10" stroke-dasharray="" stroke-dashoffset="0" style="mix-blend-mode: normal"><g data-paper-data="{&quot;index&quot;:null}"><g data-paper-data="{&quot;index&quot;:null}" stroke="none" stroke-width="0" stroke-linecap="butt"><path d="M238.3639,199.49084c-1.06614,0.69901 -1.06824,-2.6884 -0.97376,-3.70877c-0.03537,-1.19094 0.79106,-3.29265 0.79106,-3.29265c0,0 0.48461,-1.48395 0.92767,-0.58239c0.20625,0.41968 0.43395,0.8139 0.60871,1.2224c0.20063,0.46904 0.33142,0.95697 0.27963,1.5239c0,0 -0.17388,3.88069 -1.63331,4.83753z" data-paper-data="{&quot;index&quot;:null}" fill="#54c81c"/><path d="M238.12574,189.43513l0.15938,-5.61892l1.46468,-0.08819c0,0 0.09094,3.62108 -0.23353,5.63975c-0.12254,0.6363 -0.20102,4.80904 -0.20102,4.80904c0,0 -0.17045,2.34375 -0.48869,2.89384c-0.40483,0.69974 -0.98101,-0.38803 -1.01021,-0.74698c0,0 0.156,-1.36067 0.21914,-2.21408c0.09333,-1.26155 0.09024,-4.67445 0.09024,-4.67445z" data-paper-data="{&quot;index&quot;:null}" fill="#ffffff"/></g><path d="M239.51507,195.98112l-0.41038,-0.37791" fill="none" stroke="#000000" stroke-width="0.5" stroke-linecap="round"/><path d="M238.8412,196.59138l0.33904,0.37437" fill="none" stroke="#000000" stroke-width="0.5" stroke-linecap="round"/></g><g><path d="M241.76231,168.47838c4.22349,1.68803 3.07193,4.68363 3.16839,4.93106c0.03064,0.26669 -0.09421,0.5236 -0.17323,0.77206c-0.33502,0.88874 -0.75729,1.74083 -1.17099,2.59535c-0.15036,0.35991 -0.4937,0.5921 -0.85039,0.71775c-0.38498,0.12874 -0.79818,0.02738 -1.19155,-0.00322c-0.60592,-0.06916 -1.19957,-0.22155 -1.75761,-0.46698c-0.70192,-0.26538 -1.55071,-0.69726 -2.00572,-1.34013c-0.34407,-0.35297 -0.28305,-0.31762 -0.64792,-0.6577c-0.67579,-0.81713 -0.94524,-1.91102 -0.88137,-2.957c0.03349,-0.62708 0.17405,-1.25964 0.46665,-1.81851c0.1373,-0.22983 1.54269,-3.17196 5.04374,-1.77267z" data-paper-data="{&quot;index&quot;:null}" fill="#f0e9bb" stroke="none" stroke-width="0.17188" stroke-linecap="butt"/><path d="M238.66307,166.26702c0.36203,0.6017 -2.5903,2.6047 -2.11456,2.26541c-0.42494,-0.56103 -0.58868,-1.39601 -0.51419,-1.96499c0.0068,-0.0521 0.11428,-0.16164 0.11428,-0.16164c-0.09373,-0.01119 0.05935,-0.07168 0.10269,-0.15778c0.03404,-0.06776 0.01678,-0.24579 0.01678,-0.24579c-0.04988,0.01271 0.20026,-0.02028 0.30459,-0.06478c0.08619,-0.03671 0.07257,-0.08709 0.13895,-0.1047c0.46634,-0.12496 1.13796,-0.01983 1.95151,0.43426z" data-paper-data="{&quot;index&quot;:null}" fill="#ed3e67" stroke="none" stroke-width="0.17188" stroke-linecap="butt"/><path d="M244.82498,173.22847c-0.01775,-0.10483 -0.10155,-0.19663 -0.21857,-0.34221c-0.0879,-0.10951 -0.25833,-0.32261 -0.30453,-0.41741c-0.11601,-0.238 -0.9941,-0.6013 -1.96339,-0.55425c-0.96929,0.04704 -1.96281,1.139 -2.06787,0.8583c-0.03994,-0.10674 -0.3939,-0.83171 -0.40786,-0.58241c-0.00236,0.04121 -0.43611,0.15008 -0.45559,0.17062c-0.05247,0.05506 -0.40994,-1.29248 -0.67932,-1.66261c-0.26938,-0.37012 -1.15756,-0.91682 -1.23212,-0.97016c-0.11197,-0.08023 -0.22646,-0.00863 -0.28271,0.11197c-0.07135,0.15249 -0.90513,2.04973 -0.87372,3.01199c0.03141,0.96225 1.02786,2.58582 0.9303,2.20107c-0.04396,-0.17367 -1.05998,1.14043 -1.40032,1.17349c-0.24297,0.02381 -1.01273,-2.24786 -0.02814,-4.82761c0.46785,-1.22582 1.40251,-2.65744 1.6191,-2.94563l0.4231,-0.56306c0.61777,-0.62016 1.34362,-1.10478 2.19425,-1.43291c0.05417,-0.02092 0.89287,-0.4593 2.06231,-0.40749c0.73852,0.03267 1.84485,0.4196 1.93105,0.45167c0.50544,0.1881 1.49777,0.53941 2.31804,1.08321c0.52178,0.3459 0.91989,0.82611 1.25293,1.20982c0.0599,0.06884 -1.12935,0.7331 -1.07031,0.79535c0.02872,0.0301 -0.54816,0.86442 -0.57363,0.95537l-0.17016,0.60728c-0.17197,0.61392 0.13185,1.42848 0.19855,1.54459c0.09119,0.15905 0.42284,0.66332 0.57475,0.72677l0.51183,0.21436c0.0702,0.02917 0.8621,-0.17933 0.89425,-0.11675c0.11322,0.22057 -0.31931,1.08238 -0.42257,1.24478l-0.54333,0.85478c-0.17507,0.27529 -0.25588,0.43749 -0.60245,0.77549c-0.47533,0.46396 -0.9528,0.92608 -1.55648,1.28385c-0.48782,0.28921 -2.52193,0.85132 -2.43432,0.71349l0.74356,-1.17321l0.91102,-1.712l0.72239,-2.28054z" data-paper-data="{&quot;index&quot;:null}" fill="#54c81c" stroke="none" stroke-width="0.17188" stroke-linecap="butt"/><path d="M249.16709,173.22292c-1.09141,-0.04395 -1.56196,-2.54493 -1.56196,-2.54493c0.14091,-0.36379 1.31861,-0.76246 2.29224,-0.26743c0.7441,0.3785 1.14986,0.8339 1.27866,1.255c0.01839,0.0601 -0.02721,0.07644 -0.01402,0.16164c0.01614,0.103 0.11145,0.31093 0.0972,0.26614c0,0 -0.14614,0.08139 -0.18203,0.14318c-0.04569,0.07861 -0.01831,0.22743 -0.07228,0.16199c0,0 -0.03272,0.14002 -0.06979,0.17283c-0.40411,0.35882 -1.12888,0.67724 -1.768,0.6516z" data-paper-data="{&quot;index&quot;:null}" fill="#ed3e67" stroke="none" stroke-width="0.17188" stroke-linecap="butt"/><path d="M246.61222,171.04009c0.06744,0.10005 0.1882,-0.49126 0.52269,-0.98442c0.35711,-0.52665 0.94201,-0.95606 1.45066,-0.79151c0.29368,0.0951 0.5157,0.2865 0.73131,0.44976c0.44481,0.33672 0.71749,0.67632 0.51565,0.67602c-0.34253,-0.00038 -0.80794,0.06584 -1.13344,0.14752c-0.46421,0.11638 -0.77488,0.22288 -0.76473,0.24964l0.65337,1.72009l0.5984,0.75349c0.10288,0.11642 -0.3271,0.2059 -0.77734,0.21568c-0.38869,0.00862 -0.70219,0.1259 -0.83372,0.11597c-0.58597,-0.04334 -0.42268,-0.26101 -0.90769,-0.83039c-0.28199,-0.33112 -0.15635,-1.87245 -0.05519,-1.72183z" data-paper-data="{&quot;index&quot;:null}" fill="#54c81c" stroke="none" stroke-width="0.17188" stroke-linecap="butt"/><path d="M245.90695,170.72793c0.50681,-1.22751 1.55453,-2.44054 2.24551,-1.70912c0.28984,0.30664 -0.34712,0.32978 -0.90291,0.95617c-0.35371,0.39864 -0.66109,1.10162 -0.71827,2.08469c-0.00585,0.10315 0.07903,0.34168 0.20035,0.65491c0.18579,0.48013 1.58957,0.79974 1.33561,0.84311l-0.99182,0.16902l-0.5288,-0.32492c-0.37201,-0.11458 -1.10336,-1.5506 -0.63968,-2.67384z" data-paper-data="{&quot;index&quot;:null}" fill="#ead32e" stroke="none" stroke-width="0.17188" stroke-linecap="butt"/><path d="M238.69123,167.23268c-0.17359,0.22784 -0.63012,0.49967 -0.63012,0.49967c0.00798,-0.14094 0.20659,-0.30029 0.24695,-0.4141c0.09326,-0.26313 0.52346,-0.82727 1.1582,-1.08426l0.36096,-0.14605c0.17772,-0.072 0.70334,-0.01244 0.7732,0.08307c0.05451,0.19036 -0.64928,0.28095 -1.23848,0.6566c-0.28244,0.18008 -0.6707,0.40508 -0.6707,0.40508z" data-paper-data="{&quot;index&quot;:null}" fill="#ead32e" stroke="none" stroke-width="0.17188" stroke-linecap="butt"/><path d="M238.57636,167.10087c-0.10713,0.11064 -0.56126,0.68472 -0.77467,0.97205l-0.84117,1.13234c-0.06187,0.08332 -0.56704,-0.7138 -0.40652,-0.97873c0.00106,-0.37036 0.21201,-0.60687 0.36525,-0.87987c0.25998,-0.26282 0.68529,-0.59225 0.92569,-0.69922c0.19363,-0.08614 0.20239,-0.59502 0.39367,-0.73317c0.28784,-0.20816 1.2807,0.21204 1.2807,0.21204z" data-paper-data="{&quot;index&quot;:null}" fill="#54c81c" stroke="none" stroke-width="0.17188" stroke-linecap="butt"/><path d="M244.29157,173.18316c0.16357,0.72795 -0.53221,1.50848 -1.12872,1.67479c-0.59651,0.16631 -1.21266,-0.28897 -1.37623,-1.01691c-0.16357,-0.72795 0.18741,-1.45289 0.78392,-1.6192c0.59651,-0.16631 1.55746,0.23339 1.72103,0.96134z" fill="#000000" stroke="none" stroke-width="0" stroke-linecap="butt"/><path d="M237.008,170.41328c0.61123,-0.42785 1.49992,-0.07038 1.82877,0.45435c0.32884,0.52473 0.09993,1.29695 -0.5113,1.72479c-0.61123,0.42785 -1.37333,0.3493 -1.70217,-0.17543c-0.32884,-0.52473 -0.22652,-1.57587 0.38471,-2.00372z" data-paper-data="{&quot;index&quot;:null}" fill="#000000" stroke="none" stroke-width="0" stroke-linecap="butt"/><path d="M241.52744,176.3445l-0.58482,0.18913" fill="none" stroke="#000000" stroke-width="0.25" stroke-linecap="round"/><path d="M239.79207,176.3806l0.58358,0.15455" fill="none" stroke="#000000" stroke-width="0.25" stroke-linecap="round"/><path d="M239.20849,176.22607l-0.55951,-0.21671" fill="none" stroke="#000000" stroke-width="0.25" stroke-linecap="round"/><path d="M238.19982,175.69238l-0.44917,-0.31696" fill="none" stroke="#000000" stroke-width="0.25" stroke-linecap="round"/><path d="M237.49804,174.9202l-0.21452,-0.36907" fill="none" stroke="#000000" stroke-width="0.25" stroke-linecap="round"/><path d="M242.30875,175.96568l-0.43811,0.02018l-0.13097,-0.51867" fill="none" stroke="#000000" stroke-width="0.25" stroke-linecap="round"/><path d="M237.58667,173.79079l-0.36777,0.38848l-0.37235,-0.23173" data-paper-data="{&quot;index&quot;:null}" fill="none" stroke="#000000" stroke-width="0.25" stroke-linecap="round"/><path d="M243.71118,173.24188l-1.39462,0.633" fill="none" stroke="#ffffff" stroke-width="0.25" stroke-linecap="round"/><path d="M242.83683,172.79779l0.42253,1.52379" fill="none" stroke="#ffffff" stroke-width="0.25" stroke-linecap="round"/><path d="M243.80099,173.58789c-0.2079,-0.00781 -0.37011,-0.18269 -0.3623,-0.39059c0.00781,-0.2079 0.18269,-0.37011 0.39059,-0.3623c0.2079,0.00781 0.37011,0.18269 0.3623,0.39059c-0.00781,0.2079 -0.18269,0.37011 -0.39059,0.3623z" fill="#ffffff" stroke="none" stroke-width="0" stroke-linecap="butt"/><path d="M242.20104,174.21316c-0.2079,-0.00781 -0.37011,-0.18269 -0.3623,-0.39059c0.00781,-0.2079 0.18269,-0.37011 0.39059,-0.3623c0.20789,0.00781 0.37011,0.18269 0.3623,0.39059c-0.00781,0.20789 -0.18269,0.37011 -0.39059,0.3623z" fill="#ffffff" stroke="none" stroke-width="0" stroke-linecap="butt"/><path d="M242.79489,173.00175c-0.2079,-0.00781 -0.37011,-0.18269 -0.3623,-0.39059c0.00781,-0.2079 0.18269,-0.37011 0.39059,-0.3623c0.2079,0.00781 0.37012,0.18269 0.36231,0.39059c-0.00781,0.20789 -0.1827,0.37011 -0.3906,0.3623z" fill="#ffffff" stroke="none" stroke-width="0" stroke-linecap="butt"/><path d="M243.2097,174.73089c-0.2079,-0.00781 -0.37011,-0.18269 -0.3623,-0.39059c0.00781,-0.2079 0.18269,-0.37011 0.39059,-0.3623c0.20789,0.00781 0.37011,0.18269 0.3623,0.39059c-0.00781,0.20789 -0.18269,0.37011 -0.39059,0.3623z" fill="#ffffff" stroke="none" stroke-width="0" stroke-linecap="butt"/><path d="M237.01225,171.89292l1.39462,-0.633" fill="none" stroke="#ffffff" stroke-width="0.25" stroke-linecap="round"/><path d="M237.95505,172.33966l-0.42253,-1.52379" fill="none" stroke="#ffffff" stroke-width="0.25" stroke-linecap="round"/><path d="M238.49668,171.60599c-0.2079,-0.00781 -0.37011,-0.18269 -0.3623,-0.39059c0.00781,-0.2079 0.18269,-0.37011 0.39059,-0.3623c0.2079,0.00781 0.37011,0.18269 0.3623,0.39059c-0.00781,0.2079 -0.18269,0.37011 -0.39059,0.3623z" fill="#ffffff" stroke="none" stroke-width="0" stroke-linecap="butt"/><path d="M236.89673,172.23134c-0.2079,-0.00781 -0.37011,-0.18269 -0.3623,-0.39059c0.00781,-0.2079 0.18269,-0.37011 0.39059,-0.3623c0.20789,0.00781 0.37011,0.18269 0.3623,0.39059c-0.00781,0.20789 -0.18269,0.37011 -0.39059,0.3623z" fill="#ffffff" stroke="none" stroke-width="0" stroke-linecap="butt"/><path d="M237.49058,171.01985c-0.2079,-0.00781 -0.37011,-0.18269 -0.3623,-0.39059c0.00781,-0.2079 0.18269,-0.37011 0.39059,-0.3623c0.2079,0.00781 0.37012,0.18269 0.36231,0.39059c-0.00781,0.20789 -0.1827,0.37011 -0.3906,0.3623z" fill="#ffffff" stroke="none" stroke-width="0" stroke-linecap="butt"/><path d="M237.90539,172.74898c-0.2079,-0.00781 -0.37011,-0.18269 -0.3623,-0.39059c0.00781,-0.2079 0.18269,-0.37011 0.39059,-0.3623c0.20789,0.00781 0.37011,0.18269 0.3623,0.39059c-0.00781,0.20789 -0.18269,0.37011 -0.39059,0.3623z" fill="#ffffff" stroke="none" stroke-width="0" stroke-linecap="butt"/></g><g><path d="M242.61147,167.50164c0,0 0.66408,-1.81252 0.72777,-3.07699c0.06369,-1.26447 -0.81487,-2.12034 -0.81487,-2.12034l0.52357,-0.53988c0,0 1.09385,1.38035 1.03074,2.71072c-0.06311,1.33037 -0.85407,3.30414 -0.85407,3.30414z" fill="#000000" stroke="none" stroke-width="0" stroke-linecap="butt"/><path d="M240.05464,161.90785l-2.09107,-3.72857l4.48331,0.74153l1.01155,3.53119z" fill="#ea035a" stroke="none" stroke-width="0" stroke-linecap="butt"/><path d="M243.29285,162.42274l-5.18985,-4.25709" fill="none" stroke="#000000" stroke-width="0.25" stroke-linecap="round"/><path d="M242.52223,158.82295l-0.39527,2.5605l-2.09637,0.51078" fill="none" stroke="#000000" stroke-width="0.25" stroke-linecap="round"/></g><g data-paper-data="{&quot;index&quot;:null}"><g data-paper-data="{&quot;index&quot;:null}" stroke="none" stroke-width="0" stroke-linecap="butt"><path d="M237.58035,182.37057c0,0 -1.68914,1.02214 -3.15773,1.53393c-0.80949,0.28211 -1.72934,0.6549 -2.32137,0.85244c-1.00033,0.33374 -1.72579,1.12588 -1.72579,1.12588c0,0 0.63674,-1.65764 0.82955,-2.11729c0.19281,-0.45965 0.39103,-0.89406 0.56633,-0.82812c0.17529,0.06593 5.80901,-0.56685 5.80901,-0.56685z" fill="#54c81c"/><path d="M236.43954,182.88688c-2.95714,1.15175 -4.99699,0.31914 -4.99699,0.31914c0,0 0.80437,-2.21887 4.05972,-3.19732c2.54433,-0.76475 3.76991,0.07198 4.25336,-0.13066c1.40566,-0.58918 1.15641,-0.57475 1.15641,-0.57475c0,0 -0.36405,1.98344 -4.47249,3.58359z" fill="#ffffff"/></g><path d="M233.42484,183.23349l-0.50092,0.49473" fill="none" stroke="#ffffff" stroke-width="0.25" stroke-linecap="round"/><path d="M231.85056,183.72822l0.3578,-0.49473" fill="none" stroke="#ffffff" stroke-width="0.25" stroke-linecap="round"/></g><g data-paper-data="{&quot;index&quot;:null}"><g data-paper-data="{&quot;index&quot;:null}" stroke="none" stroke-width="0" stroke-linecap="butt"><path d="M233.40334,186.37025c0.39703,-1.31345 1.64754,-2.9797 1.64754,-2.9797l4.60496,2.85212c0,0 -2.72379,1.32173 -3.65049,2.05978c-0.92671,0.73806 -2.09051,2.10349 -2.09051,2.10349c0,0 -1.0367,-2.29826 -0.5115,-4.03569z" fill="#54c81c"/><path d="M234.46363,187.35644c-1.18262,-1.04099 0.0166,-3.40945 0.58725,-3.96589c0.56636,-0.55225 1.05846,-1.6712 4.0193,-2.35262c2.01937,-0.46474 2.54129,-1.56846 2.54129,-1.56846l0.88573,0.31463c0,0 0.68243,3.33135 -0.7932,5.02295c-1.38049,1.58252 -5.97854,3.42509 -7.11536,2.42439z" fill="#ffffff"/></g><path d="M236.5496,187.06501l-0.63104,0.72346" fill="none" stroke="#ffffff" stroke-width="0.25" stroke-linecap="round"/><path d="M235.14507,186.85954l-0.55712,0.72346" fill="none" stroke="#ffffff" stroke-width="0.25" stroke-linecap="round"/><path d="M234.5537,185.90064l-0.71637,0.85446" fill="none" stroke="#ffffff" stroke-width="0.25" stroke-linecap="round"/></g><g data-paper-data="{&quot;index&quot;:null}"><g data-paper-data="{&quot;index&quot;:null}" stroke="none" stroke-width="0" stroke-linecap="butt"><path d="M249.48919,183.40295c-0.78909,-0.13331 -3.8153,-0.12175 -3.8153,-0.12175c0,0 3.343,-0.27713 3.67502,-1.00338c0.33206,-0.72634 -2.06924,-2.52751 -1.42826,-2.36324c3.38535,0.86764 3.98098,4.10742 3.98098,4.10742c0,0 -1.62335,-0.48574 -2.41244,-0.61905z" fill="#54c81c"/><path d="M244.80562,179.38395c2.29042,-0.08272 4.89049,1.10775 5.40414,2.12422c0.51365,1.01647 -3.0936,1.91556 -4.58239,1.6789c-1.61261,-0.25634 -5.22365,-3.14324 -5.22365,-3.14324c0,0 2.51165,-0.59162 4.4019,-0.65988z" fill="#ffffff"/></g><path d="M248.73105,182.31786l0.77026,0.50714" fill="none" stroke="#ffffff" stroke-width="0.25" stroke-linecap="round"/><path d="M250.27159,182.10054l-0.49018,-0.36224" fill="none" stroke="#ffffff" stroke-width="0.25" stroke-linecap="round"/></g><g data-paper-data="{&quot;index&quot;:null}"><g data-paper-data="{&quot;index&quot;:null}" stroke="none" stroke-width="0" stroke-linecap="butt"><path d="M243.02572,186.1426c0,0 3.26152,0.62686 3.76839,-0.25343c0.51439,-0.89332 -0.94336,-4.05504 -0.94336,-4.05504c0,0 1.28962,0.32824 2.4321,2.73311c0.66153,1.38798 1.83739,4.93653 1.83739,4.93653c0,0 -2.77619,-1.24818 -4.37352,-1.67153c-1.32701,-0.35172 -2.72099,-1.68963 -2.72099,-1.68963z" fill="#54c81c"/><path d="M245.94633,181.79356c0.13694,0.10305 2.05822,2.57194 1.42525,4.16181c-0.59429,1.39292 -4.31623,0.20758 -4.31623,0.20758c0,0 -1.39446,-1.02812 -2.36968,-1.97488c-1.17165,-1.13744 -1.10943,-2.9908 -0.72313,-3.84754c0.38631,-0.85674 0.39196,0.25849 2.385,0.11843c1.50167,-0.10551 3.46755,1.23581 3.5988,1.33458z" fill="#ffffff"/></g><path d="M245.40526,186.90962l-0.36079,-0.42486" fill="none" stroke="#ffffff" stroke-width="0.25" stroke-linecap="round"/><path d="M246.7041,186.20152l0.21647,0.49567" fill="none" stroke="#ffffff" stroke-width="0.25" stroke-linecap="round"/><path d="M247.87282,185.39768l-0.95226,-0.75397" fill="none" stroke="#ffffff" stroke-width="0.25" stroke-linecap="round"/></g><g data-paper-data="{&quot;index&quot;:null}"><path d="M242.35039,181.28864c-0.36591,0.39828 -2.69739,-0.28309 -2.69739,-0.28309c-0.24658,-0.28197 -1.67704,-0.07531 -1.70209,-0.53654c-0.00974,-0.1801 0.14956,-1.14428 0.32786,-1.71279c0.1783,-0.56852 -0.05954,-0.98345 0.64221,-1.38034c0.70175,-0.39689 1.90661,-0.1482 2.06043,-0.1482c0.12177,0 0.72348,0.19835 1.07941,1.25421c0.35594,1.05586 0.59384,2.36369 0.28957,2.80676z" data-paper-data="{&quot;index&quot;:null}" fill="#319a2b" stroke="none" stroke-width="0.17188" stroke-linecap="butt"/><path d="M240.97723,181.03802c0.61263,0 1.39781,-0.03289 1.39781,-0.03289l0.22399,0.60534c0,0 -0.81357,-0.32402 -1.50188,-0.15139c-0.61138,0.03439 -1.24991,-0.3092 -1.15798,-0.46382c0.178,-0.29941 0.42542,0.04276 1.03805,0.04276z" data-paper-data="{&quot;index&quot;:null}" fill="#ead42f" stroke="none" stroke-width="0" stroke-linecap="butt"/><path d="M237.8911,180.3842c0,0 0.60465,0.11279 1.21306,0.18453c0.60841,0.07174 0.41111,0.46852 -0.19203,0.36277c-0.66335,-0.25204 -1.3616,-0.05504 -1.3616,-0.05504l0.34058,-0.49225z" data-paper-data="{&quot;index&quot;:null}" fill="#ead42f" stroke="none" stroke-width="0" stroke-linecap="butt"/><path d="M240.88002,180.77494l0.07853,0.38091" fill="none" stroke="#ffffff" stroke-width="0.25" stroke-linecap="round"/><path d="M241.90423,181.16008l-0.09109,-0.32829" fill="none" stroke="#ffffff" stroke-width="0.25" stroke-linecap="round"/><path d="M238.83154,180.32138l-0.03093,0.30573" fill="none" stroke="#ffffff" stroke-width="0.25" stroke-linecap="round"/><path d="M238.0145,180.65299l0.147,-0.38175" fill="none" stroke="#ffffff" stroke-width="0.25" stroke-linecap="round"/></g><g data-paper-data="{&quot;index&quot;:null}" stroke="none" stroke-linecap="butt"><path d="M239.97597,177.35822c0.17008,0.06905 0.3072,0.33949 0.39108,0.72079c0.08399,0.38126 0.11481,0.87325 0.07258,1.38519c-0.0422,0.51204 -0.14953,0.94795 -0.28883,1.23853c-0.1394,0.29062 -0.31073,0.43601 -0.48082,0.36696c-0.17021,-0.06911 -0.30722,-0.33958 -0.3912,-0.72085c-0.08388,-0.3813 -0.11481,-0.87325 -0.07258,-1.38519c0.04219,-0.51204 0.14963,-0.94798 0.28893,-1.23856c0.1393,-0.29058 0.31062,-0.43597 0.48084,-0.36686z" fill="#eb3d66" stroke-width="0.01872"/><path d="M239.86388,178.32518c0.20905,0.00794 0.3635,0.4098 0.34498,0.89758c-0.01852,0.48778 -0.203,0.87677 -0.41205,0.86883c-0.20905,-0.00794 -0.3635,-0.4098 -0.34498,-0.89758c0.01852,-0.48778 0.203,-0.87677 0.41205,-0.86883z" fill="#492116" stroke-width="0"/><path d="M240.08427,177.56192c0.07287,0.00749 0.14677,0.09569 0.20751,0.23227c0.06069,0.1365 0.10811,0.32141 0.12783,0.52204c0.01966,0.20055 0.00797,0.3793 -0.02692,0.50605c-0.03488,0.12675 -0.09285,0.20152 -0.16563,0.19397c-0.07281,-0.00742 -0.14676,-0.0957 -0.2075,-0.23228c-0.06068,-0.13652 -0.10813,-0.3213 -0.12777,-0.52198c-0.0197,-0.20063 -0.00801,-0.37938 0.02688,-0.50613c0.03481,-0.1267 0.0928,-0.20139 0.16562,-0.19397z" fill="#ffffff" stroke-width="0.01896"/></g><g data-paper-data="{&quot;index&quot;:null}"><g stroke="none" stroke-width="0" stroke-linecap="butt"><path d="M243.62891,176.70559l0.32472,0.65488l-2.38843,1.3064l-0.16085,-0.844z" fill="#319a2b"/><path d="M243.62204,176.52077c0.39474,-0.45867 3.02128,-1.95794 3.02128,-1.95794l0.20732,1.52116c0,0 -1.80427,1.10427 -2.85116,1.31895c-0.43325,0.08885 -0.79975,-0.3915 -0.37745,-0.88216z" fill="#ead42f"/><path d="M248.83338,176.75495c0.50469,1.37746 -0.34984,3.17174 -0.74613,3.10962c-1.253,-0.19641 -1.64129,-0.82059 -2.25633,-2.15245c-0.74495,-1.61317 0.54508,-3.47944 1.42421,-3.43614c0.28783,0.01418 1.07356,1.10152 1.57826,2.47898z" fill="#f0e9bb"/></g><path d="M247.02404,179.22684c0,0 -0.51506,-1.43368 -0.41215,-2.39563c0.10292,-0.96194 0.71576,-2.38895 0.71576,-2.38895" fill="none" stroke="#d3c49c" stroke-width="0.25" stroke-linecap="round"/><path d="M246.65204,175.19331l0.8051,0.19591" fill="none" stroke="#ffffff" stroke-width="0.5" stroke-linecap="round"/><path d="M246.402,176.47808l0.6424,0.12502" fill="none" stroke="#ffffff" stroke-width="0.5" stroke-linecap="round"/><path d="M247.01959,177.63758l-0.63823,-0.04577" fill="none" stroke="#ffffff" stroke-width="0.5" stroke-linecap="round"/><path d="M247.15744,178.74296l-0.47553,0.02512" fill="none" stroke="#ffffff" stroke-width="0.5" stroke-linecap="round"/></g><g data-paper-data="{&quot;index&quot;:null}"><g stroke="#ffffff" stroke-width="0" stroke-linecap="butt"><path d="M238.9911,177.48095l-0.16731,0.84275l-2.37837,-1.32461l0.32972,-0.65238z" data-paper-data="{&quot;index&quot;:null}" fill="#319a2b"/><path d="M236.78341,176.16196c0.41853,0.49388 0.04838,0.97139 -0.38419,0.87922c-1.0452,-0.22267 -2.84099,-1.3407 -2.84099,-1.3407l0.21895,-1.51953c0,0 2.61501,1.51934 3.00623,1.98101z" data-paper-data="{&quot;index&quot;:null}" fill="#ead42f"/><path d="M233.19797,173.90665c0.88007,0.01544 2.04272,1.9636 1.19184,3.52348c-0.7025,1.28787 -1.13158,1.88475 -2.39489,1.99716c-0.39955,0.03554 -1.13251,-1.81173 -0.53706,-3.15247c0.59545,-1.34072 1.45195,-2.37324 1.74009,-2.36818z" data-paper-data="{&quot;index&quot;:null}" fill="#f0e9bb"/></g><path d="M232.76466,174.34937c0,0 0.56029,1.44843 0.62801,2.4135c0.0677,0.96508 -0.4994,2.37898 -0.4994,2.37898" data-paper-data="{&quot;index&quot;:null}" fill="none" stroke="#d3c49c" stroke-width="0.25" stroke-linecap="round"/><path d="M233.4124,175.12447l-0.81172,0.16637" data-paper-data="{&quot;index&quot;:null}" fill="none" stroke="#ffffff" stroke-width="0.5" stroke-linecap="round"/><path d="M233.61531,176.41763l-0.64654,0.10146" data-paper-data="{&quot;index&quot;:null}" fill="none" stroke="#ffffff" stroke-width="0.5" stroke-linecap="round"/><path d="M232.95579,177.55377l0.63947,-0.02242" data-paper-data="{&quot;index&quot;:null}" fill="none" stroke="#ffffff" stroke-width="0.5" stroke-linecap="round"/><path d="M233.25194,178.69588l-0.4743,-0.04247" data-paper-data="{&quot;index&quot;:null}" fill="none" stroke="#ffffff" stroke-width="0.5" stroke-linecap="round"/></g><g data-paper-data="{&quot;index&quot;:null}"><g data-paper-data="{&quot;index&quot;:null}" stroke="none" stroke-width="0" stroke-linecap="butt"><path d="M244.23719,198.98903c-1.59506,-0.70801 -2.39474,-4.50939 -2.39474,-4.50939c-0.14287,-0.55108 -0.09279,-1.05371 0.02928,-1.54906c0.10632,-0.43141 0.26723,-0.85728 0.40283,-1.30481c0.2913,-0.96136 1.00969,0.42457 1.00969,0.42457c0,0 1.15569,1.94024 1.31357,3.1212c0.2584,0.99163 0.80458,4.3347 -0.36063,3.81748z" data-paper-data="{&quot;index&quot;:null}" fill="#54c81c"/><path d="M242.84463,189.02729c0,0 0.54934,3.36838 0.84564,4.59821c0.20044,0.83195 0.57461,2.1494 0.57461,2.1494c0.02928,0.35894 -0.36323,1.52563 -0.87599,0.90065c-0.40309,-0.49133 -0.95063,-2.77658 -0.95063,-2.77658c0,0 -0.75282,-4.10504 -0.97673,-4.71311c-0.64694,-1.93954 -1.14327,-5.52758 -1.14327,-5.52758l1.45965,-0.15004l1.06673,5.51904z" data-paper-data="{&quot;index&quot;:null}" fill="#ffffff"/></g><path d="M243.42635,196.37195l-0.27397,0.4243" fill="none" stroke="#000000" stroke-width="0.5" stroke-linecap="round"/><path d="M242.80223,195.84872l0.20415,-0.40927" fill="none" stroke="#000000" stroke-width="0.5" stroke-linecap="round"/></g></g></g></svg>