<svg version="1.1" xmlns="http://www.w3.org/2000/svg" xmlns:xlink="http://www.w3.org/1999/xlink" width="23.14226" height="47.82886" viewBox="0,0,23.14226,47.82886"><g transform="translate(-230.38452,-152.24348)"><g data-paper-data="{&quot;isPaintingLayer&quot;:true}" fill-rule="nonzero" stroke-miterlimit="10" stroke-dasharray="" stroke-dashoffset="0" style="mix-blend-mode: normal"><g stroke-linejoin="miter"><path d="M237.45963,199.59163c0,0 2.00612,-0.85385 2.86899,-1.4392c0.69937,-0.47444 0.76204,-4.6602 0.76204,-4.6602c0,0 1.34558,0.33801 0.91913,1.79953c-0.11993,0.41103 -0.10527,1.07493 -0.46897,1.95741c-0.3637,0.88248 -0.75957,1.6582 -1.52055,2.10953c-0.76098,0.45133 -2.23682,0.81907 -3.01792,0.68608c-1.08349,-0.21182 -0.79589,-0.52112 -0.79589,-0.52112z" fill="#947043" stroke="none" stroke-width="0" stroke-linecap="butt"/><path d="M237.78616,192.34742l2.983,-0.55569l0.17679,0.69998l-0.17648,0.07854c0,0 0.23907,0.17332 0.26702,0.24471c0.12239,0.31272 -0.02637,0.29783 -0.02637,0.29783c0,0 0.31888,0.52101 0.51518,0.86342c0.19632,0.3424 -0.07847,1.90402 -0.09266,1.96356c-0.12318,0.51705 -0.22259,1.32232 -0.6135,2.06799c-0.32938,0.62828 -1.40222,1.29921 -2.23552,1.60161c-1.1269,0.27543 -2.45446,0.0446 -2.45446,0.0446c0,0 -0.23629,-1.58347 0.05533,-2.61468c0.45549,-0.89726 0.61919,-1.33002 0.77396,-1.73136c0.12579,-0.32618 0.34395,-1.20599 0.34395,-1.20599l-0.00467,-0.4218l0.15125,-0.32892z" fill="#20201f" stroke="none" stroke-width="0" stroke-linecap="butt"/><path d="M240.12607,192.37914c0,0 0.31355,0.53676 0.51583,0.95305c0.25634,0.52753 0.86254,1.89637 0.86254,1.89637" fill="none" stroke="#c8c7c6" stroke-width="0.125" stroke-linecap="round"/><path d="M240.78862,190.35202c0.02381,0.7434 0.22865,0.94488 -0.06174,1.41639c-0.29039,0.47151 -0.69551,0.70426 -1.29639,0.78876c-1.09841,0.02911 -1.43242,-0.03791 -1.86746,-0.31747c-0.15619,-0.15218 -0.49719,-1.17996 -0.39476,-1.87294c0.02686,-0.18171 0.78148,-1.13499 1.52899,-1.13803c0.74753,-0.00304 2.06145,0.18885 2.09137,1.12329z" fill="#c274a1" stroke="none" stroke-width="0" stroke-linecap="butt"/><path d="M240.77286,190.4125c0.0238,0.74341 -1.31015,0.85555 -1.69634,0.83757c-0.47095,-0.02191 -2.02644,-0.12986 -1.92403,-0.82284c0.02685,-0.18171 0.78148,-1.13499 1.529,-1.13803c0.74753,-0.00304 2.06144,0.18886 2.09137,1.12329z" fill="#cacacd" stroke="none" stroke-width="0" stroke-linecap="butt"/><path d="M238.60593,198.84848c0.01747,0.23074 0.24621,0.28334 0.17834,0.46405c-0.11373,0.30286 -0.33743,0.29722 -0.40018,0.28087c-0.1002,-0.02612 -0.17749,-0.33897 -0.11622,-0.72231c0.06128,-0.38334 0.13167,-0.82378 0.13167,-0.82378c0,0 0.18892,0.57043 0.20639,0.80117z" fill="#c8c7c6" stroke="none" stroke-width="0" stroke-linecap="butt"/><path d="M236.09137,197.41537c0,0 0.24823,-1.11862 1.5223,-0.98596c1.81431,0.18891 2.24272,2.29854 2.24272,2.29854" fill="none" stroke="#c8c7c6" stroke-width="0.125" stroke-linecap="round"/><path d="M236.47065,198.11689c0,0 0.0694,0.4406 0.1298,0.82407c0.0604,0.38348 -0.0176,0.69616 -0.11786,0.72205c-0.0628,0.01621 -0.28649,0.02133 -0.39954,-0.28179c-0.06745,-0.18086 0.1614,-0.23294 0.1794,-0.46364c0.018,-0.2307 0.20821,-0.8007 0.20821,-0.8007z" data-paper-data="{&quot;index&quot;:null}" fill="#c8c7c6" stroke="none" stroke-width="0" stroke-linecap="butt"/></g><path d="M239.67065,184.3667l0.0052,3.46327l-0.11333,2.24305c0,0 -0.33134,0.26533 -0.56431,0.3869c-0.23296,0.12157 -0.61347,0.12258 -0.61347,0.12258l-0.01442,-2.30467l0.04232,-3.74693z" fill="#20201f" stroke="none" stroke-width="0" stroke-linecap="butt" stroke-linejoin="miter"/><g stroke-linejoin="miter"><path d="M241.8502,199.20022c0,0 1.7259,-1.33223 2.41323,-2.1163c0.55709,-0.6355 -0.43801,-4.70174 -0.43801,-4.70174c0,0 1.38733,-0.01231 1.3433,1.50952c-0.01238,0.42799 0.16926,1.06673 0.0399,2.01241c-0.12936,0.94568 -0.31678,1.79617 -0.93932,2.42485c-0.62254,0.62868 -1.95791,1.35677 -2.7473,1.42509c-1.10189,0.06831 -0.9016,-0.30353 -0.9016,-0.30353l1.2298,-0.25031z" fill="#947043" stroke="none" stroke-width="0" stroke-linecap="butt"/><path d="M240.33902,192.10786l2.7464,-1.29011l0.34763,0.63276l-0.15097,0.12051c0,0 0.27506,0.10742 0.32011,0.16945c0.19731,0.27174 0.0496,0.29485 0.0496,0.29485c0,0 0.43998,0.42374 0.7163,0.70556c0.27633,0.28181 0.4043,1.86225 0.40559,1.92345c0.01121,0.5314 0.11813,1.33571 -0.07207,2.15587c-0.16026,0.69104 -1.02919,1.61088 -1.75928,2.11368c-1.021,0.55076 -2.36386,0.66223 -2.36386,0.66223c0,0 -0.62804,-1.47268 -0.60594,-2.5441c0.21445,-0.98313 0.26371,-1.44319 0.31225,-1.8706c0.03945,-0.34736 0.02865,-1.25375 0.02865,-1.25375l-0.11091,-0.40698l0.0634,-0.35644z" fill="#20201f" stroke="none" stroke-width="0" stroke-linecap="butt"/><path d="M242.61128,191.54837c0,0 0.43879,0.44032 0.73953,0.79213c0.3811,0.44582 1.31296,1.61751 1.31296,1.61751" fill="none" stroke="#c8c7c6" stroke-width="0.125" stroke-linecap="round"/><path d="M242.74112,189.41968c0.21054,0.71336 0.45958,0.85666 0.2975,1.38617c-0.16208,0.52951 -0.49539,0.85691 -1.05553,1.09024c-1.05556,0.30521 -1.39567,0.32461 -1.88716,0.16381c-0.18952,-0.10787 -0.77873,-1.01641 -0.8544,-1.71282c-0.01984,-0.18261 0.46994,-1.2954 1.19252,-1.48688c0.72259,-0.19149 2.04243,-0.3372 2.30707,0.55948z" fill="#c274a1" stroke="none" stroke-width="0" stroke-linecap="butt"/><path d="M242.74112,189.48218c0.21054,0.71337 -1.052,1.15834 -1.43024,1.23835c-0.46125,0.09758 -1.99368,0.38546 -2.06936,-0.31095c-0.01985,-0.18261 0.46994,-1.2954 1.19253,-1.48689c0.72259,-0.19149 2.04243,-0.33719 2.30707,0.55948z" fill="#cacacd" stroke="none" stroke-width="0" stroke-linecap="butt"/><path d="M242.772,198.19197c0.0751,0.21887 0.30971,0.21208 0.28962,0.40406c-0.03367,0.32175 -0.25155,0.37272 -0.3164,0.37272c-0.10355,0 -0.25725,-0.28324 -0.29464,-0.66964c-0.03739,-0.3864 -0.08036,-0.83036 -0.08036,-0.83036c0,0 0.32669,0.50434 0.40179,0.72321z" fill="#c8c7c6" stroke="none" stroke-width="0" stroke-linecap="butt"/><path d="M240.89675,197.90554c0,0 0.15162,0.41947 0.28359,0.78455c0.13196,0.36509 0.11462,0.68688 0.02108,0.7313c-0.05859,0.02782 -0.27726,0.07523 -0.44569,-0.20098c-0.1005,-0.1648 0.11434,-0.2593 0.0883,-0.48923c-0.02604,-0.22993 0.05273,-0.82565 0.05273,-0.82565z" data-paper-data="{&quot;index&quot;:null}" fill="#c8c7c6" stroke="none" stroke-width="0" stroke-linecap="butt"/><path d="M239.97728,197.43942c0,0 -0.04194,-1.14506 1.2244,-1.33804c1.8033,-0.27481 2.74996,1.65856 2.74996,1.65856" fill="none" stroke="#c8c7c6" stroke-width="0.125" stroke-linecap="round"/><g fill="#83c4ac" stroke="none" stroke-width="0" stroke-linecap="butt"><path d="M242.61776,192.80196c-0.13045,0.01936 -0.66249,-0.42979 -0.66249,-0.42979l0.77298,-0.68687l0.20306,0.07238c0,0 -0.203,1.02786 -0.31355,1.04428z"/><path d="M243.3691,191.04576c0.12305,0.04743 0.34525,0.54093 0.34525,0.54093l-0.77905,0.24081l-0.25702,-0.13397c0,0 0.58653,-0.68797 0.69082,-0.64778z" data-paper-data="{&quot;index&quot;:null}"/><path d="M243.45203,193.49783c-0.12494,0.04218 -0.72819,-0.30552 -0.72819,-0.30552l0.59544,-0.82268l0.25618,0.04488c0,0 -0.01754,1.04757 -0.12343,1.08333z"/><path d="M243.78082,191.55931c0.13133,0.01203 0.4798,0.42614 0.4798,0.42614l-0.68372,0.44434l-0.28383,-0.05873c0,0 0.37645,-0.82196 0.48775,-0.81176z" data-paper-data="{&quot;index&quot;:null}"/><path d="M244.00097,194.05788l-0.25677,-0.94242c0,0 -0.23293,-0.3102 -0.10679,-0.42654c0.12615,-0.11633 0.29037,0.25724 0.29037,0.25724l0.59495,0.65219l-0.06447,0.39098z"/></g></g><path d="M240.91919,184.5573l0.64086,3.72209l0.24475,1.33028c0,0 -0.27671,0.34221 -0.5154,0.47678c-0.23869,0.13457 -0.78808,0.25808 -0.78808,0.25808l-0.30175,-1.78308l-0.6119,-4.09511z" fill="#20201f" stroke="none" stroke-width="0" stroke-linecap="butt" stroke-linejoin="miter"/><g data-paper-data="{&quot;index&quot;:null}" stroke-width="0" stroke-linecap="butt" stroke-linejoin="miter"><g data-paper-data="{&quot;index&quot;:null}"><path d="M230.38452,167.43042c0,-1.06346 0.8653,-1.92557 1.93267,-1.92557c1.06738,0 1.93265,0.86211 1.93265,1.92557c0,1.06346 -0.86528,1.92557 -1.93265,1.92557c-1.06738,0 -1.93267,-0.86211 -1.93267,-1.92557z" fill="#c2e266" stroke="none"/><path d="M231.05235,168.06556c0,-0.65701 0.53456,-1.18962 1.194,-1.18962c0.65944,0 1.194,0.5326 1.194,1.18962c0,0.65701 -0.53456,1.18962 -1.194,1.18962c-0.65944,0 -1.194,-0.53261 -1.194,-1.18962z" fill="#c2e266" stroke="#000000"/><path d="M230.69586,171.75561c-0.3444,-1.03347 0.44156,-2.13075 0.44156,-2.13075l2.10321,-0.01487c0,0 0.15323,0.20302 0.48585,1.50522c0.34536,1.35211 -0.98611,3.31958 -0.98611,3.31958c0,0 -1.7001,-1.64571 -2.04451,-2.67918z" fill="#e8edf4" stroke="#000000"/><path d="M232.21957,169.85002c-0.51125,0.00227 -1.36863,-0.28808 -1.36863,-0.28808l0.21781,-0.68142c0,0 0.62849,0.40447 1.08264,0.43022c0.45414,0.02575 1.09235,-0.30689 1.09235,-0.30689l0.28233,0.4899c0,0 -0.72235,0.35366 -1.30651,0.35626z" fill="#dbded5" stroke="#000000"/></g><g data-paper-data="{&quot;index&quot;:null}" stroke="none"><path d="M238.27702,173.60199c0.20118,0 0.36426,0.33852 0.36426,0.75611c0,0.41759 -0.16308,0.75611 -0.36426,0.75611c-0.20118,0 -0.36428,-0.33853 -0.36428,-0.75611c0,-0.41759 0.16309,-0.75611 0.36428,-0.75611z" fill="#000000"/><path d="M239.68242,178.87695c0.20956,0 0.83479,0.90506 0.83479,1.0888c0,0.18374 -0.35203,1.39124 -0.56158,1.39124c-0.20956,0 -1.25977,-0.33269 -1.25977,-0.33269c0,0 0.77701,-2.14736 0.98657,-2.14736z" fill="#807d5a"/><path d="M233.61629,168.82568l0.13154,-0.15122l4.86707,5.89768l-0.1012,0.31253z" fill="#6e6e73"/><path d="M235.44777,170.53953l-0.30356,0.32261l-1.17375,-1.36101l0.33391,-0.32261z" fill="#c2e266"/></g></g><g stroke-width="0" stroke-linecap="butt" stroke-linejoin="miter"><g data-paper-data="{&quot;index&quot;:null}"><path d="M251.04749,170.88623c-1.36927,0 -2.47929,-1.10593 -2.47929,-2.47018c0,-1.36424 1.11001,-2.47019 2.47929,-2.47019c1.36927,0 2.47929,1.10594 2.47929,2.47019c0,1.36424 -1.11002,2.47018 -2.47929,2.47018z" fill="#c2e266" stroke="none"/><path d="M251.13835,170.75691c-0.84593,0 -1.5317,-0.68326 -1.5317,-1.52609c0,-0.84284 0.68576,-1.52608 1.5317,-1.52608c0.84593,0 1.53171,0.68324 1.53171,1.52608c0,0.84284 -0.68577,1.52609 -1.53171,1.52609z" fill="#c2e266" stroke="#000000"/><path d="M253.12738,173.96454c-0.44182,1.32576 -2.62278,3.43694 -2.62278,3.43694c0,0 -1.70805,-2.52394 -1.26501,-4.25845c0.42669,-1.67051 0.62326,-1.93095 0.62326,-1.93095l2.69807,0.01907c0,0 1.00827,1.40763 0.56646,2.7334z" fill="#e8edf4" stroke="#000000"/><path d="M251.17271,171.51997c-0.74937,-0.00331 -1.67602,-0.45702 -1.67602,-0.45702l0.36218,-0.62847c0,0 0.81871,0.42674 1.40131,0.39371c0.58259,-0.03303 1.38884,-0.55192 1.38884,-0.55192l0.27941,0.87416c0,0 -1.09986,0.37246 -1.75571,0.36955z" fill="#dbded5" stroke="#000000"/></g><g data-paper-data="{&quot;index&quot;:null}" stroke="none"><path d="M244.6836,178.83713c0.20578,0.42419 0.03894,2.19213 0.03894,2.19213l-3.11533,0.0194c0,0 -1.01532,-1.28904 -0.69622,-2.71278c0.23458,-1.04665 1.78092,-2.34443 1.98128,-2.35045c1.29092,-0.0388 1.58553,2.42751 1.79131,2.85171z" fill="#c2e266"/><path d="M243.86931,177.3031c0,0.5357 -0.20921,0.96997 -0.46729,0.96997c-0.25808,0 -0.46731,-0.43427 -0.46731,-0.96997c0,-0.5357 0.20922,-0.96997 0.46731,-0.96997c0.25808,0 0.46729,0.43426 0.46729,0.96997z" fill="#000000"/><path d="M244.57026,183.21344c-0.14743,0.84753 -0.61066,2.20732 -0.61066,2.20732l-1.18066,0.48271c0,0 -1.42785,-0.57438 -1.4019,-1.34502c0.01289,-0.38265 0.21929,-3.37045 0.21929,-3.37045l1.23122,-0.78486c0,0 0.60337,0.05153 0.96773,0.159c0.36436,0.10747 0.93073,0.45271 0.93073,0.45271c0,0 -0.00834,1.35107 -0.15577,2.1986z" fill="#20201f"/><path d="M242.86471,185.85474c0,0 -1.34724,0.42678 -1.61608,0.42678c-0.26884,0 -0.72043,-1.54904 -0.72043,-1.78475c0,-0.23571 0.80206,-1.39676 1.0709,-1.39676c0.26884,0 1.2656,2.75471 1.2656,2.75471z" fill="#c274a1"/><path d="M243.09835,177.97859l-0.12981,-0.40092l6.24365,-7.56575l0.16875,0.194z" fill="#6e6e73"/><path d="M248.49826,170.65857l0.42836,0.41385l-1.50574,1.74595l-0.38942,-0.41386z" fill="#c2e266"/></g></g><g stroke="none" stroke-width="0" stroke-linecap="butt" stroke-linejoin="miter"><g><g><path d="M239.04771,167.2229c0.15411,0.83673 0.20556,2.26018 0.20556,2.26018l-2.07257,1.31605c0,0 -0.36132,0.04268 -0.83586,-0.25746c-0.30818,-0.19493 -0.58015,-0.73244 -0.58015,-0.73244c0,0 -0.0413,0.70963 -0.60958,0.60907c-0.36487,-0.06458 -0.68068,-1.12784 -0.70084,-1.52523c-0.01186,-0.23393 0.10743,-0.64883 0.33239,-0.89947c0.14191,-0.15811 0.4277,-0.22337 0.4277,-0.22337c0,0 -0.09356,-0.36472 0.28515,-0.49806c0.11603,-0.04085 0.26314,-0.12945 0.26314,-0.12945c0,0 0.01479,-0.28142 0.08032,-0.4178c0.06553,-0.13638 0.27363,-0.27471 0.27363,-0.27471l0.41855,0.02837c0,0 0.25009,-0.47969 0.34261,-0.54084c0.36304,-0.23991 0.76148,0.03229 0.97626,0.17699c0.39327,0.26496 1.16913,0.97483 1.19369,1.10816z" fill="#20201f"/><path d="M240.5892,170.60949c0.07438,0.93562 -0.65206,1.68404 -1.65059,2.06213c-0.99853,0.37809 -2.20318,0.35705 -2.25189,-0.58447c-0.04872,-0.94152 0.77976,-2.1696 2.03933,-2.64652c1.25957,-0.47693 1.78879,0.23325 1.86316,1.16887z" fill="#20201f"/><path d="M239.46774,173.44494c0.1232,0.86535 0.25514,2.18164 0.1991,3.31394c-0.01854,0.37495 -0.2073,0.46579 -0.41322,0.47377c-0.30651,0.01187 -0.47676,-0.14944 -0.50065,-0.44902c-0.09538,-1.19564 -0.20062,-2.23927 -0.31717,-3.05799c-0.07105,-0.49912 -0.40479,-2.11173 -0.40479,-2.11173l1.15699,-0.69216c0,0 0.10362,1.28598 0.27975,2.52318z" fill="#fed5c7"/></g><path d="M235.8722,169.68056c0,0 0.14046,0.7281 -0.45992,0.77234c-0.38548,0.02842 -0.7142,-0.39366 -0.8366,-0.79025c-0.07206,-0.23348 1.29652,0.01791 1.29652,0.01791z" fill="#c0c2c6"/><path d="M236.84586,168.65395c0,0 0.14046,0.7281 -0.45992,0.77234c-0.38548,0.02842 -0.7142,-0.39366 -0.8366,-0.79025c-0.07206,-0.23348 1.29652,0.01791 1.29652,0.01791z" fill="#c0c2c6"/><path d="M237.75283,167.76102c0,0 0.14046,0.7281 -0.45992,0.77234c-0.38548,0.02842 -0.7142,-0.39366 -0.8366,-0.79025c-0.07206,-0.23348 1.29652,0.01791 1.29652,0.01791z" fill="#c0c2c6"/><path d="M238.88078,169.04042c0,0 -0.13578,0.72898 -0.71069,0.55041c-0.36914,-0.11463 -0.52056,-0.62776 -0.48932,-1.04162c0.01838,-0.24365 1.20001,0.49121 1.20001,0.49121z" fill="#c0c2c6"/><path d="M238.53439,167.23762c0,0 0.14046,0.7281 -0.45992,0.77234c-0.38548,0.02842 -0.7142,-0.39366 -0.8366,-0.79025c-0.07206,-0.23348 1.29652,0.01791 1.29652,0.01791z" fill="#c0c2c6"/></g><g><path d="M239.69386,173.8781l0.07075,1.14387l-1.42273,0.23506l-0.10405,-1.13589z" fill="#83c4ac"/><path d="M240.26814,176.12724c0.05722,0.65787 -0.35969,1.25856 -0.96874,1.34676c-0.60905,0.08818 -1.16278,-0.3718 -1.2368,-1.02739c-0.13161,-1.16554 0.31603,-1.4409 0.92508,-1.52909c0.60905,-0.08818 1.18508,0.11298 1.28048,1.20973z" fill="#20201f"/><path d="M239.90772,172.41829l-0.17257,1.48513l-1.48933,0.25101l-0.62535,-1.43491l0.6073,-0.2657l1.13382,-0.13731z" fill="#bebec0"/></g></g><g stroke="none" stroke-width="0" stroke-linecap="butt" stroke-linejoin="miter"><path d="M240.97463,182.27004l1.33025,-0.06623l2.34916,1.98201l2.56892,-0.43515c0,0 -1.6458,1.24515 -2.54056,1.2345c-0.82341,-0.00981 -3.70777,-2.71515 -3.70777,-2.71515z" fill="#f79db4"/><path d="M242.3586,179.40622c0.40766,-0.55714 1.18979,-0.67831 1.74693,-0.27065c0.55714,0.40766 0.67831,1.18978 0.27065,1.74692c-0.40766,0.55714 -1.00229,0.49081 -1.55943,0.08315c-0.55714,-0.40766 -0.86581,-1.00229 -0.45815,-1.55943z" fill="#83c4ac"/><path d="M235.98667,181.68604c0,0 0.63246,0.20892 0.94839,0.72c0.44583,0.72122 0.91393,1.125 3.32889,1.20575c2.15335,0.072 2.70649,-0.75234 3.19484,-1.1968c0.59222,-0.53899 0.86207,-0.72573 0.86207,-0.72573l1.83876,0.59833c0,0 -0.46245,0.448 -0.70094,1.28922c-0.18816,0.92683 -0.89666,1.29068 -1.49955,1.33219c-0.52099,0.37698 -0.98421,1.19221 -1.80498,0.97104c-0.49317,0.64502 -1.32679,0.69924 -1.98316,0.2645c-0.58037,0.49592 -1.28718,0.26889 -1.59722,-0.13857c-0.90504,0.25287 -1.54309,-0.16185 -1.79135,-0.67212c-0.96713,-0.14341 -1.47275,-0.93697 -1.59329,-1.68466c-0.91082,-0.44955 -1.1342,-1.36401 -1.1342,-1.36401z" fill="#c0c2c6"/><path d="M238.99881,177.13968l0.36739,-0.0378l2.35095,-0.01932c0,0 -0.23375,1.40882 0.08849,2.18241c0.32224,0.77359 0.38554,0.92193 0.96217,1.44997c0.57663,0.52804 1.81566,1.09069 1.81566,1.09069c0,0 -0.48886,0.30657 -0.78711,0.77761c-0.18659,0.29469 -0.11171,0.76053 -0.37339,0.92595c-0.44299,0.28003 -0.86168,-0.03322 -1.5834,0.15571c-0.38608,0.10107 -0.82756,0.75285 -1.47571,0.80814c-1.15734,0.09871 -1.49426,-0.54922 -2.16947,-0.91684c-0.31592,-0.17201 -0.91146,0.19695 -1.32506,-0.14179c-0.31085,-0.25458 -0.04992,-0.63341 -0.20553,-0.89843c-0.26187,-0.44601 -0.8195,-0.73043 -0.8195,-0.73043c0,0 0.57321,-0.34312 1.26597,-0.7263c0.69277,-0.38318 1.398,-0.99703 1.398,-0.99703c0,0 0.08124,-0.89024 0.18311,-1.51901c0.10186,-0.62877 0.30741,-1.40352 0.30741,-1.40352z" fill="#20201f"/><path d="M242.27425,181.54872l-0.34908,-0.36756l0.61133,-0.73659c0,0 0.10259,0.11347 0.29974,0.30491c0.17759,0.17245 0.5156,0.40367 0.5156,0.40367l-0.23562,0.30283z" data-paper-data="{&quot;index&quot;:null}" fill="#c274a1"/><path d="M241.12591,181.93302l0.87073,-0.66482l0.28028,0.29641l-0.77347,0.58606z" data-paper-data="{&quot;index&quot;:null}" fill="#c0c2c6"/><path d="M237.42457,181.33109l-0.20267,-0.32579c0,0 0.36033,-0.19462 0.55498,-0.34756c0.21608,-0.16978 0.32998,-0.27191 0.32998,-0.27191l0.53097,0.79646l-0.38559,0.32906z" fill="#c274a1"/><path d="M239.37375,182.35455l-1.08991,-0.90677l0.30973,-0.26549l1.17841,0.99527z" fill="#c0c2c6"/><path d="M242.07105,178.83327c0.17737,1.99866 -1.29707,1.91094 -1.47169,1.85049c-0.16946,-0.05867 -0.59636,-0.31466 -0.83714,-0.54094c-0.24517,-0.2304 -0.66135,-0.82933 -0.66135,-0.82933l-0.4761,0.6845c0,0 -0.32184,-0.89038 -0.31842,-1.51379c0.00774,-1.41225 0.56242,-1.47579 0.56242,-1.47579l2.62918,-0.06807c0,0 0.42779,0.25557 0.5731,1.89293z" fill="#c0c0c3"/><path d="M239.31725,177.57438l-0.56745,-0.56105l1.98116,0.15011z" fill="#222225"/><g><g><path d="M239.30485,183.11742c-0.35763,-0.52629 -0.06854,-1.34638 0.6457,-1.83173c0.71424,-0.48535 1.58316,-0.45217 1.94079,0.07411c0.35763,0.52628 0.06854,1.34637 -0.6457,1.83172c-0.71424,0.48535 -1.58316,0.45217 -1.94079,-0.07411z" fill="#c0c2c6"/><path d="M240.34778,180.31592c0.16038,-0.19279 0.44669,-0.21908 0.63949,-0.0587c0.19279,0.16038 0.21908,0.4467 0.0587,0.63949c-0.16038,0.19279 -0.4467,0.21907 -0.63949,0.05869c-0.19279,-0.16038 -0.21908,-0.44669 -0.05869,-0.63949z" fill="#000000"/><path d="M240.35783,180.58813c-0.00656,-0.18812 0.14062,-0.34593 0.32873,-0.35249c0.18812,-0.00656 0.34593,0.14062 0.35249,0.32873c0.00656,0.18812 -0.12826,0.15147 -0.31638,0.15803c-0.18812,0.00656 -0.35828,0.05384 -0.36485,-0.13428z" fill="#c478a9"/><path d="M238.62478,181.92805c-0.11295,-0.22391 -0.023,-0.49699 0.20091,-0.60994c0.22391,-0.11295 0.49699,-0.023 0.60994,0.20091c0.11295,0.22391 0.02301,0.49699 -0.2009,0.60994c-0.22391,0.11295 -0.49699,0.023 -0.60994,-0.20091z" fill="#000000"/><path d="M238.87847,182.02726c-0.17516,-0.06892 -0.26128,-0.26678 -0.19236,-0.44194c0.06892,-0.17516 0.26678,-0.26128 0.44194,-0.19236c0.17516,0.06892 0.08784,0.17799 0.01892,0.35315c-0.06892,0.17516 -0.09334,0.35008 -0.2685,0.28116z" fill="#c478a9"/><path d="M239.32437,182.13981c0,-0.08599 0.16017,-0.32052 0.40293,-0.32052c0.24277,0 0.45788,0.12464 0.45788,0.21062c0,0.08598 -0.1968,0.3022 -0.43956,0.3022c-0.24276,0 -0.42124,-0.10633 -0.42124,-0.19231z" fill="#000000"/><path d="M240.92142,181.06849c0.07864,0.03476 0.10374,0.24098 0.00559,0.46303c-0.09814,0.22205 -0.37546,0.31463 -0.4541,0.27987c-0.07864,-0.03476 -0.10568,-0.28189 -0.00754,-0.50394c0.09814,-0.22205 0.37741,-0.27372 0.45605,-0.23896z" data-paper-data="{&quot;index&quot;:null}" fill="#000000"/><path d="M239.61742,182.05738c0,-0.09104 0.0738,-0.16483 0.16483,-0.16483c0.09104,0 0.16484,0.0738 0.16484,0.16483c0,0.09104 -0.0738,0.16484 -0.16484,0.16484c-0.09104,0 -0.16483,-0.0738 -0.16483,-0.16484z" fill="#ffffff"/><path d="M240.4416,181.55372c0,-0.09609 0.0779,-0.17399 0.17399,-0.17399c0.09609,0 0.17399,0.0779 0.17399,0.17399c0,0.09609 -0.0779,0.17399 -0.17399,0.17399c-0.09609,0 -0.17399,-0.0779 -0.17399,-0.17399z" fill="#ffffff"/></g><path d="M240.54123,182.01071c0.03947,0.05258 0.02016,0.15662 -0.05669,0.21431c-0.07685,0.05768 -0.18215,0.04718 -0.22162,-0.00541c-0.03947,-0.05258 0.23884,-0.26148 0.27831,-0.2089z" fill="#000000"/><path d="M240.11882,182.49612c0.03546,0.06707 -0.03727,0.1751 -0.16245,0.2413c-0.12518,0.0662 -0.25542,0.06551 -0.29089,-0.00156c-0.03546,-0.06707 0.03727,-0.1751 0.16245,-0.2413c0.12518,-0.0662 0.25542,-0.06551 0.29089,0.00156z" fill="#ad597c"/><path d="M241.34592,181.65363c0.03546,0.06707 -0.03727,0.1751 -0.16245,0.2413c-0.12518,0.0662 -0.25542,0.06551 -0.29089,-0.00156c-0.03546,-0.06707 0.03727,-0.1751 0.16245,-0.2413c0.12518,-0.0662 0.25542,-0.06551 0.29089,0.00156z" fill="#ad597c"/></g><g fill="#83c4ac"><path d="M238.29765,179.7275l-0.19277,-0.60645c0,0 0.34857,-0.18386 0.54283,-0.21984c0.17786,-0.03294 0.5779,0.0123 0.5779,0.0123l0.08021,0.18573c0,0 -0.29301,0.16069 -0.46971,0.27081c-0.15704,0.09786 -0.53847,0.35745 -0.53847,0.35745z"/><path d="M239.7522,179.66505c-0.13869,-0.15528 -0.46839,-0.55216 -0.46839,-0.55216l-0.1115,-0.20923c0,0 0.73083,0.28274 0.8923,0.36427c0.17636,0.08905 0.45932,0.36336 0.45932,0.36336l-0.35523,0.52796c0,0 -0.29325,-0.3562 -0.4165,-0.4942z" data-paper-data="{&quot;index&quot;:null}"/><path d="M238.87468,180.53054c0,0 -0.00059,-0.46562 0.02531,-0.76206c0.0259,-0.29644 0.09499,-0.61477 0.09499,-0.61477l0.28072,-0.02674c0,0 -0.05602,0.48205 -0.07297,0.79198c-0.01695,0.30993 -0.0206,0.91902 -0.0206,0.91902z"/><path d="M239.36927,180.90482c0,0 -0.01702,-0.63583 -0.03397,-0.94576c-0.01695,-0.30993 -0.08633,-0.88554 -0.08633,-0.88554l0.24061,0.05346c0,0 0.09582,0.50547 0.12172,0.80191c0.0259,0.29644 0.02532,0.76206 0.02532,0.76206z" data-paper-data="{&quot;index&quot;:null}"/></g></g><g><g data-paper-data="{&quot;index&quot;:null}" fill="#86cbb6" stroke="none" stroke-width="0" stroke-linecap="butt" stroke-linejoin="miter"><path d="M237.91764,167.6787c-0.46905,-0.11331 -1.03648,-0.18476 -1.03648,-0.18476l0.33369,-0.97096c0,0 0.86889,0.25858 1.23655,0.48774c0.36766,0.22915 0.86686,0.91051 0.86686,0.91051l-0.69082,-0.01789c0,0 -0.24075,-0.11133 -0.70979,-0.22465z"/><path d="M236.80544,168.26927c0,0 0.49988,-0.17878 0.78205,-0.26721c0.35173,-0.11023 1.16599,-0.34329 1.16599,-0.34329l0.55589,0.21503c0,0 -1.07602,0.56167 -1.41388,0.75572c-0.24528,0.14088 -0.76846,0.43883 -0.76846,0.43883z"/></g><g stroke="none" stroke-width="0" stroke-linecap="butt" stroke-linejoin="miter"><path d="M239.51603,164.68461c0.8481,-0.08313 1.16062,0.36657 1.37448,0.82316c0.28286,0.59395 0.40378,1.39622 0.40378,1.39622c0,0 -0.98844,0.21419 -1.49799,0.50355c-0.50956,0.28936 -1.13674,0.99261 -1.13674,0.99261c0,0 -0.80745,-1.48976 -0.52077,-2.35363c0.28669,-0.86387 0.55389,-1.18261 1.37725,-1.36191z" data-paper-data="{&quot;index&quot;:null}" fill="#20201f"/><path d="M238.61333,165.24593c0.38344,-0.37228 0.50271,1.22931 0.50271,1.22931l-0.99782,0.30689c0,0 -0.00149,-1.05405 0.49513,-1.5362z" data-paper-data="{&quot;index&quot;:null}" fill="#b2b1b2"/></g><path d="M245.38401,167.62166c2.93478,1.59076 4.20171,4.93215 2.82979,7.4632c-1.37192,2.53104 -4.86318,3.2933 -7.79796,1.70254c-2.93478,-1.59076 -4.20173,-4.93213 -2.8298,-7.46319c1.37192,-2.53104 4.86319,-3.29331 7.79798,-1.70254z" fill="#f79eb4" stroke="none" stroke-width="0" stroke-linecap="butt" stroke-linejoin="miter"/><path d="M237.65526,170.79883c0.00017,-0.00071 -0.38277,1.1203 -0.33369,1.88334c0.04909,0.76304 0.59197,3.01859 0.59197,3.01859l-0.18573,0.93573c0,0 -1.27346,-0.75591 -1.30413,-3.24005c-0.02335,-1.54134 0.50825,-2.45946 0.50609,-2.44231" fill="#f79eb4" stroke="#f89db5" stroke-width="0" stroke-linecap="butt" stroke-linejoin="round"/><g fill="#ffd5c5" stroke="none" stroke-width="1" stroke-linecap="round" stroke-linejoin="round"><path d="M237.32487,173.34423c0.03907,-0.0451 0.06611,0.10308 0.08417,0.15996c0.11173,0.35127 0.51247,0.23202 0.75959,0.19027c0.18987,-0.03204 0.43812,0.03086 0.60496,0.11875c0.79822,0.43132 2.05123,1.78188 2.32072,1.94315c0.25081,0.15011 1.22032,0.14195 1.54337,0.19696c0.33143,0.05644 0.52116,0.27417 0.54581,0.33009c0.05167,0.11727 0.44542,0.89845 -0.89007,1.3491c-0.18556,0.06261 -1.1772,0.12575 -1.61962,-0.05048c-0.37095,-0.1478 -1.67916,-0.6316 -2.43181,-1.43785c-0.59983,-0.64256 -0.85882,-1.22902 -0.89173,-1.30413c-0.20104,-0.45913 -0.38364,-1.08185 -0.02539,-1.49581z"/><path d=""/></g><g fill="#000000" stroke="#000000" stroke-width="0.125" stroke-linecap="butt" stroke-linejoin="round"><path d="M237.2899,171.56119c-0.00861,0.02327 -0.51512,-0.37262 -0.57267,-0.42928c-0.26212,-0.25798 -0.47391,-0.49681 -0.69011,-0.79508c-0.06898,-0.09515 -0.27354,-0.45114 -0.26958,-0.44689c0.11665,0.12477 0.19525,0.28713 0.3073,0.41756c0.18721,0.2178 0.39308,0.41852 0.60061,0.61722c0.33792,0.30063 0.61288,0.41501 0.65782,0.46308"/><path d="M237.33915,171.13463c-0.00805,0.02169 -0.48542,-0.39555 -0.66899,-0.67671c-0.18357,-0.28116 -0.49658,-1.04934 -0.49711,-1.03384c-0.00139,0.04108 0.33459,0.63505 0.61251,0.99823c0.27792,0.36319 0.57513,0.51018 0.60975,0.49999"/></g><g fill="#000000" stroke="none" stroke-width="1" stroke-linecap="round" stroke-linejoin="round"><path d="M238.21649,174.26615c-0.10017,-0.04593 -0.31528,-0.44321 -0.12137,-0.46974c0.11209,-0.01534 0.60509,0.18532 0.6848,0.35143c0.10486,0.21856 -0.33629,0.201 -0.56343,0.11831z"/><path d=""/></g><path d="M246.62875,174.73105c0.01352,0.02297 -1.21813,1.9594 -1.59715,2.34863c-0.56873,0.58404 -1.23912,1.07014 -2.0018,1.36571c-0.32426,0.12565 -0.63396,0.20667 -0.972,0.27465c-0.10943,0.02202 -0.53564,0.05763 -0.53564,0.05763c0,0 0.82673,-0.72156 1.65285,-2.15971c0.43868,-0.7637 1.2616,-2.53422 1.25434,-2.47786" fill="#f79eb4" stroke="#f89db5" stroke-width="0" stroke-linecap="butt" stroke-linejoin="round"/><path d="M248.16067,174.79973c-0.01329,0.40166 -0.99296,1.99355 -1.96505,3.01225c-0.74913,0.78505 -1.12912,0.90023 -1.83089,1.15365c-0.79476,0.28698 -1.18657,0.14677 -1.18657,0.14677c0,0 0.9615,-0.79351 1.4611,-1.40788c0.49961,-0.61436 2.0936,-2.93619 2.0877,-2.95604" fill="#f79eb4" stroke="#f89db5" stroke-width="0" stroke-linecap="butt" stroke-linejoin="round"/><g stroke="none" stroke-width="1" stroke-linecap="round" stroke-linejoin="round"><path d="M240.79023,167.35955c0.14447,-0.05591 3.11544,-0.48115 5.52909,1.34783c2.96467,2.29507 1.33138,6.07757 1.32936,6.07575c-0.02823,-0.02548 0.19893,-1.68731 -0.31454,-2.74847c-0.66578,-1.37597 -1.05073,-2.17413 -2.14488,-3.01388c-1.38821,-1.06546 -4.16659,-0.98937 -4.27626,-0.9852" fill="#20201f"/><path d="" fill="#ee1a40"/></g><path d="M239.39133,169.7662c-0.01471,-0.03556 -1.00069,-0.35816 -1.60252,-0.4388c-1.10222,-0.14769 -2.30472,0.53877 -2.32629,0.52985c-0.01501,-0.00626 0.21653,-0.66509 0.8236,-1.10817c0.58861,-0.52997 1.47295,-0.77708 1.79005,-0.69556c1.77451,0.46641 2.04806,0.8285 2.03688,0.80149" fill="#f79eb4" stroke="#f89db5" stroke-width="0" stroke-linecap="butt" stroke-linejoin="round"/><path d="M240.10438,168.92155c-0.0516,-0.12291 -0.33507,-0.44668 -1.1546,-1.11323c-0.5907,-0.48043 -1.6309,0.46561 -1.6309,0.46561c0,0 0.99567,-1.6986 2.84805,-0.7991c0.51649,0.31573 0.35734,-0.50235 0.48374,-0.14583c0.1264,0.35652 0.22094,1.9543 0.18933,2.03167" fill="#f79eb4" stroke="#f89db5" stroke-width="0" stroke-linecap="butt" stroke-linejoin="round"/><path d="M242.58832,173.13261c-0.5341,-0.2895 -2.6744,-0.32062 -2.6744,-0.32062c0,0 3.05576,-3.00476 5.11563,-1.06409c0.7173,1.05733 -0.83138,2.58304 -0.83138,2.58304c0,0 -1.07576,-0.90883 -1.60986,-1.19833z" data-paper-data="{&quot;index&quot;:null}" fill="#20201f" stroke="none" stroke-width="0" stroke-linecap="butt" stroke-linejoin="miter"/><path d="M239.94775,172.69599c0.47766,0.00373 1.33863,-0.3732 2.23042,-0.33128c2.98034,-0.1934 3.0619,0.50854 1.79128,2.25656c-0.42283,0.5817 -1.21905,1.37023 -2.61795,1.28298c-0.66636,-0.14088 -1.66866,-1.52159 -2.24659,-1.87436c-1.0147,-0.61935 -1.11706,-0.06816 -1.62185,-0.36603c-0.12634,-0.07455 -0.44238,-1.22552 -0.1493,-2.45691c0.1382,-0.58065 0.28031,-0.84068 0.33987,-0.80773c0.39303,0.21745 0.5858,0.76083 0.69357,1.41401c0.07537,0.45688 0.26623,0.90331 0.57692,1.03744c0.1811,0.07819 0.35082,0.18148 1.00363,-0.1547z" fill="#ffffff" stroke="none" stroke-width="0" stroke-linecap="butt" stroke-linejoin="miter"/><path d="M237.49085,170.51822c0,0 0.27477,-0.49727 0.67886,-0.57782c0.82649,0.07868 0.30435,2.34965 0.30435,2.34965c0,0 -0.44011,-1.15808 -0.58928,-1.23894c-0.14918,-0.08086 -0.39393,-0.53289 -0.39393,-0.53289z" data-paper-data="{&quot;index&quot;:null}" fill="#20201f" stroke="none" stroke-width="0" stroke-linecap="butt" stroke-linejoin="miter"/><path d="M238.95428,170.69087c-0.14132,0.01927 -1.18533,0.26599 -1.51733,0.41182c-0.98466,0.43934 -1.51524,1.01206 -1.49639,1.05043c0.00086,0.00177 0.39515,-1.02892 0.70796,-1.55313c0.05649,-0.14007 0.82288,-0.65279 1.10828,-0.66098c0.99348,-0.02852 1.69712,-0.0705 1.6472,-0.06372" fill="#f79eb4" stroke="#f89db5" stroke-width="0" stroke-linecap="butt" stroke-linejoin="round"/><g fill="#000000" stroke="#000000" stroke-width="0.125" stroke-linecap="butt" stroke-linejoin="round"><path d="M244.74766,173.14424c0.05203,0.00761 0.07078,0.05786 0.11058,0.08228c0.04172,0.0256 0.25017,0.11423 0.42019,0.15519c0.87312,0.21033 1.48579,-0.04501 1.48579,-0.04501c0,0 -0.31897,0.26129 -1.65217,0.15362c-0.20766,-0.01676 -0.33623,-0.10113 -0.34054,-0.14444"/><path d="M244.56565,173.51411c0.0278,0.01944 0.05318,0.10027 0.06858,0.13278c0.03494,0.0738 0.32886,0.55851 1.03705,0.81102c0.23534,0.08245 1.0225,0.25564 1.0225,0.25564c0,0 -0.44606,0.01793 -1.09685,-0.21871c-0.27292,-0.09925 -0.81975,-0.39148 -0.99576,-0.57757c-0.09492,-0.10035 -0.1065,-0.15557 -0.1065,-0.15557"/></g><g stroke="none" stroke-linecap="butt" stroke-linejoin="miter"><path d="M241.41994,173.98057c-0.30191,0.65433 -0.71825,1.10559 -0.92994,1.00792c-0.21168,-0.09768 -0.13857,-0.7073 0.16332,-1.36163c0.30191,-0.65433 0.71826,-1.1056 0.92995,-1.00793c0.21168,0.09768 0.13857,0.7073 -0.16333,1.36163z" fill="#169c5b" stroke-width="NaN"/><path d="M241.13169,174.02512c-0.1261,0.27329 -0.30372,0.46007 -0.39674,0.41715c-0.09302,-0.04291 -0.06621,-0.29928 0.05991,-0.57257c0.1261,-0.27329 0.30372,-0.46007 0.39674,-0.41715c0.09302,0.04291 0.06621,0.29928 -0.05991,0.57257z" fill="#000000" stroke-width="0"/><path d="M241.34873,173.37156c-0.12758,0.27652 -0.32201,0.45867 -0.43426,0.40688c-0.11226,-0.0518 -0.09985,-0.31793 0.02773,-0.59445c0.12758,-0.27652 0.32201,-0.45868 0.43426,-0.40689c0.11226,0.0518 0.09985,0.31794 -0.02773,0.59445z" fill="#ffffff" stroke-width="0"/></g><g stroke="none" stroke-linecap="butt" stroke-linejoin="miter"><path d="M238.18362,172.78112c-0.21296,0.46152 -0.5066,0.77982 -0.65591,0.71093c-0.14932,-0.0689 -0.09774,-0.49888 0.1152,-0.96041c0.21296,-0.46152 0.50661,-0.77982 0.65592,-0.71092c0.14932,0.0689 0.09774,0.49887 -0.11521,0.9604z" fill="#169c5b" stroke-width="NaN"/><path d="M237.98033,172.81256c-0.08893,0.19278 -0.21422,0.3245 -0.27985,0.29423c-0.06562,-0.03027 -0.04669,-0.21108 0.04224,-0.40385c0.08893,-0.19278 0.21422,-0.3245 0.27984,-0.29422c0.06562,0.03027 0.04669,0.21107 -0.04225,0.40384z" fill="#000000" stroke-width="0"/><path d="M238.1334,172.35156c-0.09,0.19503 -0.22711,0.32351 -0.30629,0.28698c-0.07919,-0.03653 -0.07043,-0.22425 0.01955,-0.41928c0.09,-0.19503 0.22712,-0.32353 0.30631,-0.28699c0.07919,0.03653 0.07041,0.22426 -0.01956,0.4193z" fill="#ffffff" stroke-width="0"/></g><path d="M241.91443,177.01604c0,0 -0.36137,-0.02726 -0.54589,-0.10281c-0.18453,-0.07555 -0.69226,-0.34332 -0.69226,-0.34332" data-paper-data="{&quot;index&quot;:null}" fill="none" stroke="#000000" stroke-width="0.125" stroke-linecap="round" stroke-linejoin="miter"/><g fill="#86cbb6" stroke="none" stroke-width="0" stroke-linecap="butt" stroke-linejoin="miter"><path d="M247.31394,172.08054l-0.46865,-0.68025c0,0 1.00815,0.05544 1.47755,0.27417c0.46941,0.21873 1.29533,0.92028 1.29533,0.92028l-0.75479,0.96774c0,0 -0.44178,-0.52172 -0.86132,-0.91758c-0.41954,-0.39586 -0.68812,-0.56435 -0.68812,-0.56435z"/><path d="M247.12605,174.34346c0,0 -0.04293,-0.71841 -0.06186,-1.05601c-0.02608,-0.465 -0.16558,-1.90921 -0.16558,-1.90921l0.57807,0.41647c0,0 0.29785,0.96762 0.41693,1.39183c0.09553,0.34031 0.24262,0.95764 0.24262,0.95764z"/></g><path d="M248.27226,170.72827c-0.43294,1.16689 -1.57252,1.70327 -1.57252,1.70327c0,0 -0.0798,-0.45606 -1.09398,-1.85322c-0.59286,-0.81674 -1.43363,-1.63393 -1.43363,-1.63393c0,0 0.81515,-0.75258 1.62492,-1.14437c0.61869,-0.30426 1.33673,-0.51677 2.17052,0.29725c0.72514,0.89548 0.73763,1.46411 0.30469,2.631z" fill="#20201f" stroke="none" stroke-width="0" stroke-linecap="butt" stroke-linejoin="miter"/><path d="M246.96145,170.70552c0,0 -0.09408,-0.24459 -0.76784,-0.94201c-0.39387,-0.40769 -0.91196,-0.7989 -0.91196,-0.7989c0,0 0.97586,-0.8753 1.7353,-0.14353c0.80068,0.7715 -0.0555,1.88445 -0.0555,1.88445z" fill="#b2b1b2" stroke="none" stroke-width="0" stroke-linecap="butt" stroke-linejoin="miter"/></g><g stroke-width="0" stroke-linecap="butt" stroke-linejoin="miter"><path d="M248.821,157.77177c-1.38054,1.66257 -4.20452,1.28311 -4.20452,1.28311l-0.76037,-0.58098c0,0 0.85089,-0.27813 2.99594,-2.11414c0.81877,-1.70348 1.92918,-3.66972 1.92918,-3.66972c0,0 -0.23785,-0.25933 0.31455,0.21443c0.55243,0.47376 0.32433,0.33649 0.32433,0.33649c0,0 1.33801,2.19793 -0.59913,4.53078z" fill="#cacacd" stroke="none"/><path d="M248.74101,152.61836c0,0 0.59484,1.78871 -1.07137,3.77379c-1.76961,2.10827 -3.8005,2.11183 -3.8005,2.11183c0,0 -2.15371,-1.88121 0.25562,-4.72872c2.14694,-2.53742 4.61624,-1.1569 4.61624,-1.1569z" fill="#c2e266" stroke="#000000"/><path d="M246.78192,160.65081l4.83441,-5.62403c0,0 2.91196,2.58271 0.65578,5.34805c-2.28884,2.80537 -5.49018,0.276 -5.49018,0.276z" fill="#c2e266" stroke="none"/><path d="M246.69897,160.60009l3.78389,-1.79246l1.1341,-3.77169l0.21524,0.1786c0,0 1.00955,1.81442 -0.80809,4.05819c-1.79931,2.21595 -4.049,1.54249 -4.049,1.54249z" fill="#cacacd" stroke="none"/><path d="M250.54518,159.1306c-1.4011,1.5762 -3.769,1.55406 -3.769,1.55406l-2.49611,-1.90807c0,0 2.81167,-0.77013 3.87592,-2.00267c1.06425,-1.23255 1.07822,-3.73485 1.07822,-3.73485l2.38911,1.98632c0,0 0.88784,1.89354 -1.07813,4.1052z" fill="#c274a1" stroke="none"/><path d="M243.23082,161.03068c0,0 0.41717,0.49415 0.72187,0.76463c0.30471,0.27052 0.79003,0.57757 0.79003,0.57757l-7.69256,8.26662c0,0 -0.63959,-0.2623 -0.96409,-0.54892c-0.3245,-0.28662 -0.47051,-0.71822 -0.47051,-0.71822l7.61528,-8.3417z" fill="#c2e266" stroke="none"/><path d="M244.57749,158.90258l2.21872,1.68455c0,0 -1.50259,1.87775 -1.84661,1.84661c-0.58262,-0.05272 -1.81397,-1.2629 -1.81441,-1.67847c-0.00011,-0.10948 1.44227,-1.85269 1.44227,-1.85269z" fill="#cacacd" stroke="none"/></g><g stroke="none" stroke-width="0" stroke-linecap="butt" stroke-linejoin="miter"><path d="M240.7134,173.24173c-1.39907,0.47016 -2.80138,0.0534 -3.13212,-0.93083c-0.33076,-0.98424 0.53528,-2.16328 1.93433,-2.63343c1.39907,-0.47017 2.80138,-0.05341 3.13213,0.93083c0.33076,0.98423 -0.53529,2.16328 -1.93435,2.63344z" fill="#20201f"/><path d="M241.70281,177.48908c0.00873,0.39151 -0.18087,0.50013 -0.39452,0.52385c-0.31802,0.03528 -0.50722,-0.11983 -0.55449,-0.42977c-0.1886,-1.23689 -0.37613,-2.31491 -0.55862,-3.15805c-0.11124,-0.51401 -0.61835,-2.50417 -0.61835,-2.50417l1.18711,-0.28205c0,0 0.20822,1.14289 0.48397,2.41702c0.19288,0.89117 0.42856,2.25085 0.45489,3.43318z" fill="#fed5c7"/><path d="M241.62939,174.89922l0.17231,1.13302l-1.39616,0.3608l-0.20477,-1.12211z" fill="#83c4ac"/><path d="M242.40163,177.0883c0.11557,0.65018 -0.24622,1.28558 -0.84499,1.42765c-0.59877,0.14206 -1.19126,-0.26679 -1.32336,-0.91319c-0.23486,-1.14919 0.1865,-1.46332 0.78526,-1.60538c0.59877,-0.14206 1.19042,0.00703 1.38308,1.09093z" fill="#20201f"/><path d="M241.71244,173.42616l-0.03966,1.49461l-1.46108,0.38262l-0.75062,-1.37354l0.58124,-0.31871l1.1171,-0.2377z" fill="#bebec0"/><g><path d="M241.21368,170.67183l-2.46444,0.69682c0,0 -0.3739,-0.06519 -0.75862,-0.50684c-0.24987,-0.28681 -0.36127,-0.90527 -0.36127,-0.90527c0,0 -0.25311,0.69698 -0.79109,0.42685c-0.34542,-0.17343 -0.34374,-1.33051 -0.24526,-1.73371c0.05797,-0.23738 0.30106,-0.61646 0.60072,-0.79983c0.18902,-0.11568 0.49418,-0.09562 0.49418,-0.09562c0,0 0.01532,-0.39246 0.43366,-0.41271c0.12817,-0.00621 0.30165,-0.05083 0.30165,-0.05083c0,0 0.09878,-0.27689 0.20498,-0.39365c0.1062,-0.11677 0.35549,-0.19288 0.35549,-0.19288l0.4099,0.15327c0,0 0.39314,-0.40481 0.5039,-0.43832c0.43448,-0.13144 0.75148,0.25956 0.92297,0.46833c0.31399,0.38221 0.8776,1.32335 0.86237,1.46393c-0.0957,0.88233 -0.46915,2.32048 -0.46915,2.32048z" fill="#20201f"/><path d="M237.62935,169.95654c0,0 -0.25311,0.69698 -0.79109,0.42685c-0.34542,-0.17343 -0.41095,-0.7044 -0.31248,-1.1076c0.05797,-0.23738 1.10357,0.68075 1.10357,0.68075z" fill="#c0c2c6"/></g></g></g></g></svg>