<svg version="1.1" xmlns="http://www.w3.org/2000/svg" xmlns:xlink="http://www.w3.org/1999/xlink" width="204.10191" height="22.58353" viewBox="0,0,204.10191,22.58353"><g transform="translate(-137.94905,-168.70823)"><g data-paper-data="{&quot;isPaintingLayer&quot;:true}" fill="#ffffff" fill-rule="nonzero" stroke="none" stroke-width="0.43841" stroke-linecap="butt" stroke-linejoin="miter" stroke-miterlimit="10" stroke-dasharray="" stroke-dashoffset="0" style="mix-blend-mode: normal"><g><path d="M137.94905,191.02608l3.98532,-22.31784h6.37652l2.92258,9.03341l2.92257,-9.03341h6.37652l3.98533,22.31784h-6.64221l-1.59414,-9.83048l-2.12551,9.83048h-5.84515l-2.1255,-9.83048l-1.59414,9.83048z"/><path d="M167.17479,191.02608l6.64221,-22.31784h11.95598l6.64221,22.31784h-7.70497l-1.32844,-4.25102h-7.43927l-1.06276,4.25102zM181.78766,180.92992l-1.99267,-6.64223l-1.99266,6.64223z"/><path d="M195.07208,191.02608v-22.31784h9.29909v22.31784z"/><path d="M207.02806,191.02608v-22.31784h9.03341l5.84515,9.96332v-9.96332h7.97066v22.31784h-9.03341l-5.84515,-9.64449v9.64449z"/><path d="M246.1374,191.02608l3.98534,-22.31784h6.37652l2.92257,9.03341l2.92257,-9.03341h6.37652l3.98533,22.31784h-6.64222l-1.59412,-9.83048l-2.12552,9.83048h-5.84514l-2.12552,-9.83048l-1.59412,9.83048z"/><path d="M275.36315,191.02608v-22.31784h18.5982v6.37652h-10.62754v1.59414h10.62754v6.37652h-10.62754v1.59414h10.62754v6.37652z"/><path d="M296.61824,191.02608v-22.31784h9.03341l5.84514,9.96332v-9.96332h7.97066v22.31784h-9.03341l-5.84516,-9.64449v9.64449z"/><path d="M322.12432,181.72699v-13.01875h7.43929v13.01875c0,2.1255 0.88562,3.18825 2.65687,3.18825h0.53139c1.59414,0 2.3912,-1.06275 2.3912,-3.18825v-13.01875h6.90789v13.01875c0,6.37652 -3.18826,9.56478 -9.56478,9.56478c-6.90791,0 -10.36186,-3.18826 -10.36186,-9.56478z"/></g></g></g></svg>