<svg version="1.1" xmlns="http://www.w3.org/2000/svg" xmlns:xlink="http://www.w3.org/1999/xlink" width="472.20393" height="29.69837" viewBox="0,0,472.20393,29.69837"><g transform="translate(-3.89803,-7.49315)"><g data-paper-data="{&quot;isPaintingLayer&quot;:true}" fill="#3f9315" fill-rule="nonzero" stroke="none" stroke-width="0.26459" stroke-linecap="butt" stroke-linejoin="miter" stroke-miterlimit="10" stroke-dasharray="" stroke-dashoffset="0" style="mix-blend-mode: normal"><path d="M3.89804,22.34234c0,-4.6044 1.38132,-8.23036 4.14396,-10.87791c2.76264,-2.64751 6.56126,-3.97128 11.39587,-3.97128c4.14396,0 7.02172,0.11511 8.63325,0.34532l-3.10798,9.66923l-0.69066,-0.69064c-1.38132,-0.92087 -3.10796,-1.036 -5.17994,-0.34535c-2.30219,1.38134 -4.02885,2.87776 -5.17995,4.48931c-1.1511,1.3813 -1.38132,3.10794 -0.69066,5.17992l0.69066,0.69068c1.1511,1.61155 3.10798,2.07198 5.87061,1.38132c2.30219,-1.38134 4.02883,-2.87776 5.17994,-4.48928l4.14397,12.08651c-1.61153,0.92091 -4.83463,1.38135 -9.66925,1.38135c-4.83462,0 -8.63323,-1.49644 -11.39587,-4.48931c-2.76264,-2.99285 -4.14396,-6.44615 -4.14396,-10.35987z"/><path d="M32.56041,22.34234c0,-4.6044 1.38132,-8.23036 4.14396,-10.87791c2.76264,-2.64751 6.56126,-3.97128 11.39587,-3.97128c4.83462,0 8.63325,1.32377 11.39589,3.97128c2.76264,2.64755 4.14396,6.2735 4.14396,10.87791c0,3.91372 -1.38132,7.36702 -4.14396,10.35987c-2.76264,2.99287 -6.56127,4.48931 -11.39589,4.48931c-4.83462,0 -8.63323,-1.49644 -11.39587,-4.48931c-2.76264,-2.99285 -4.14396,-6.44615 -4.14396,-10.35987zM47.75491,16.47171c-2.30219,1.38134 -4.02885,2.87776 -5.17995,4.48931c-1.1511,1.3813 -1.38132,3.10794 -0.69066,5.17992l0.69066,0.69068c1.1511,1.61155 3.10798,2.07198 5.87061,1.38132c2.30219,-1.38134 4.02885,-2.87776 5.17995,-4.48928c1.38132,-1.84176 1.38132,-3.91374 0,-6.21595l-0.69066,-0.69064c-1.38132,-0.92087 -3.10798,-1.036 -5.17995,-0.34535z"/><path d="M69.85601,36.50085c-1.1511,-0.23021 -2.07198,-0.46045 -2.76264,-0.69068l1.38132,-6.90659l4.14396,0.34535c3.22308,0.23021 5.75549,0.23021 7.59725,0c0.92087,-0.46045 1.38132,-1.15112 1.38132,-2.07199c-0.23021,-0.92087 -2.30219,-1.38132 -6.21593,-1.38132c-3.4533,-0.46043 -5.8706,-1.72664 -7.25191,-3.79863c-0.69066,-1.61152 -1.036,-3.45328 -1.036,-5.52527c0,-3.22307 1.1511,-5.64036 3.4533,-7.25191c1.61153,-1.15109 4.48929,-1.72664 8.63325,-1.72664c4.14396,0 8.28791,0.34532 12.43187,1.03596l-1.38132,6.56127c-4.83462,-0.23021 -8.1728,-0.34532 -10.01457,-0.34532c-1.61153,0.23021 -2.4173,0.80577 -2.4173,1.72664c-0.23021,1.61155 1.03598,2.41732 3.79862,2.41732c3.91374,0 6.79149,0.69066 8.63325,2.07199c1.38132,1.15109 2.07198,3.10796 2.07198,5.8706c0,2.39429 -0.57554,4.46627 -1.72664,6.21592c-1.1511,2.07199 -4.02885,3.33821 -8.63325,3.79863c-3.91374,0.23023 -7.94259,0.11512 -12.08655,-0.34532z"/><path d="M95.75576,36.50085l5.17994,-29.00769h8.28791l3.79863,11.74119l3.79863,-11.74119h8.28791l5.17994,29.00769h-8.63323l-2.07198,-12.77719l-2.76264,12.77719h-7.59727l-2.76264,-12.77719l-2.07198,12.77719z"/><path d="M133.74202,22.34234c0,-4.6044 1.38132,-8.23036 4.14396,-10.87791c2.76264,-2.64751 6.56127,-3.97128 11.39589,-3.97128c4.83462,0 8.63325,1.32377 11.39589,3.97128c2.76264,2.64755 4.14396,6.2735 4.14396,10.87791c0,3.91372 -1.38132,7.36702 -4.14396,10.35987c-2.76264,2.99287 -6.56127,4.48931 -11.39589,4.48931c-4.83462,0 -8.63325,-1.49644 -11.39589,-4.48931c-2.76264,-2.99285 -4.14396,-6.44615 -4.14396,-10.35987zM148.93654,16.47171c-2.30219,1.38134 -4.02885,2.87776 -5.17995,4.48931c-1.1511,1.3813 -1.38132,3.10794 -0.69066,5.17992l0.69066,0.69068c1.1511,1.61155 3.10798,2.07198 5.87061,1.38132c2.30219,-1.38134 4.02883,-2.87776 5.17994,-4.48928c1.38132,-1.84176 1.38132,-3.91374 0,-6.21595l-0.69066,-0.69064c-1.38132,-0.92087 -3.10796,-1.036 -5.17994,-0.34535z"/><path d="M185.95589,36.50085v-29.00769h10.35989v10.01455h6.90659v-10.01455h10.35991v29.00769h-10.35991v-10.01455h-6.90659v10.01455z"/><path d="M217.03556,36.50085l8.63325,-29.00769h15.53983l8.63327,29.00769h-10.01459l-1.72664,-5.52527h-9.66923l-1.38132,5.52527zM236.02871,23.37831l-2.58999,-8.63323l-2.58996,8.63323z"/><path d="M256.05785,36.50085c-1.15109,-0.23021 -2.07198,-0.46045 -2.76264,-0.69068l1.38132,-6.90659l4.14396,0.34535c3.22307,0.23021 5.75547,0.23021 7.59724,0c0.92087,-0.46045 1.38132,-1.15112 1.38132,-2.07199c-0.23021,-0.92087 -2.30219,-1.38132 -6.21592,-1.38132c-3.4533,-0.46043 -5.87061,-1.72664 -7.25191,-3.79863c-0.69066,-1.61152 -1.036,-3.45328 -1.036,-5.52527c0,-3.22307 1.15109,-5.64036 3.45328,-7.25191c1.61155,-1.15109 4.48929,-1.72664 8.63327,-1.72664c4.14394,0 8.2879,0.34532 12.43187,1.03596l-1.38132,6.56127c-4.83463,-0.23021 -8.17282,-0.34532 -10.01459,-0.34532c-1.61152,0.23021 -2.41728,0.80577 -2.41728,1.72664c-0.23023,1.61155 1.03596,2.41732 3.7986,2.41732c3.91376,0 6.7915,0.69066 8.63327,2.07199c1.3813,1.15109 2.07196,3.10796 2.07196,5.8706c0,2.39429 -0.57555,4.46627 -1.72664,6.21592c-1.15109,2.07199 -4.02883,3.33821 -8.63323,3.79863c-3.91376,0.23023 -7.94261,0.11512 -12.08655,-0.34532z"/><path d="M299.63843,36.50085v-29.00769h24.17309v8.28791h-13.81319v2.07196h13.81319v8.28791h-13.81319v10.35991z"/><path d="M327.26481,36.50085l8.63327,-29.00769h15.53983l8.63327,29.00769h-10.01459l-1.72664,-5.52527h-9.66923l-1.38132,5.52527zM346.25795,23.37831l-2.58996,-8.63323l-2.58996,8.63323z"/><path d="M363.52448,36.50085v-29.00769h10.35987v20.71978h13.81319v8.28791z"/><path d="M391.15085,36.50085v-29.00769h10.35987v20.71978h13.81322v8.28791z"/><path d="M418.77722,36.50085v-29.00769h24.17309v8.28791h-13.81319v2.07196h13.81319v8.28791h-13.81319v2.07199h13.81319v8.28791z"/><path d="M446.40363,36.50085v-29.00769h11.74119l7.59727,12.94987v-12.94987h10.35987v29.00769h-11.74119l-7.59727,-12.53548v12.53548z"/></g></g></svg>