<svg version="1.1" xmlns="http://www.w3.org/2000/svg" xmlns:xlink="http://www.w3.org/1999/xlink" width="31.60623" height="34.79343" viewBox="0,0,31.60623,34.79343"><g transform="translate(-226.39308,-165.50483)"><g data-paper-data="{&quot;isPaintingLayer&quot;:true}" fill-rule="nonzero" stroke-miterlimit="10" stroke-dasharray="" stroke-dashoffset="0" style="mix-blend-mode: normal"><path d="M238.94524,182.27c0,0 -2.88436,2.70534 -3.70777,2.71515c-0.89476,0.01065 -2.54056,-1.2345 -2.54056,-1.2345l2.56892,0.43515l2.34916,-1.98201l1.33025,0.06623z" data-paper-data="{&quot;index&quot;:null}" fill="#f79db4" stroke="none" stroke-width="0" stroke-linecap="butt" stroke-linejoin="miter"/><g data-paper-data="{&quot;index&quot;:null}" stroke="none" stroke-width="0" stroke-linecap="butt" stroke-linejoin="miter"><path d="M247.22688,185.08936c0.07978,0.10959 0.06045,1.16103 -0.01814,1.62867c-0.04293,0.2554 -0.11982,0.73178 -0.54377,0.8299c-0.10806,0.025 -0.62813,-0.12388 -0.62813,-0.12388l-0.26759,0.32308c0,0 -0.24359,0.05569 -0.38762,0.00932c-0.14402,-0.04637 -0.3583,-0.2294 -0.3583,-0.2294c0,0 -0.16552,0.04569 -0.27504,0.10172c-0.35745,0.18287 -0.55754,-0.13609 -0.55754,-0.13609c0,0 -0.2441,0.16235 -0.45647,0.15641c-0.33666,-0.00941 -0.7197,-0.20853 -0.88119,-0.37819c-0.27433,-0.2882 -0.82804,-1.24929 -0.62366,-1.55837c0.31832,-0.48138 0.86142,-0.02276 0.86142,-0.02276c0,0 -0.20259,-0.56732 -0.13178,-0.92503c0.10904,-0.5508 0.38876,-0.78347 0.38876,-0.78347l2.38141,-0.59706c0,0 0.99693,1.01732 1.49767,1.70516z" fill="#ffffff"/><path d="M245.51031,181.8109c0.28015,0.35362 0.62154,1.30256 0.15579,1.62332c-1.7014,1.17175 -2.75485,0.57053 -3.26749,-0.215c-0.33484,-0.51308 -0.3885,-0.96928 1.0447,-1.66433c0.50886,-0.24677 1.78682,-0.09762 2.06699,0.256z" fill="#fed000"/><path d="M243.00354,180.50097c0.77603,0.97954 1.63734,1.94006 1.63734,1.94006c0,0 -0.46988,0.26307 -0.7668,0.35587c-0.29693,0.0928 -0.53175,0.0067 -0.53175,0.0067c0,0 -0.93977,-1.35229 -1.25285,-1.74746c-0.51353,-0.64821 -1.19796,-1.44305 -1.99944,-2.3354c-0.20082,-0.22358 -0.2006,-0.45812 0.01904,-0.67224c0.14756,-0.14385 0.3434,-0.2182 0.6281,0.02649c0.85977,0.73893 1.72358,1.74087 2.26636,2.42599z" fill="#fed5c7"/></g><g data-paper-data="{&quot;index&quot;:null}" stroke-width="0" stroke-linecap="butt" stroke-linejoin="miter"><g data-paper-data="{&quot;index&quot;:null}"><path d="M247.60267,169.35597c-1.06737,0 -1.93265,-0.86211 -1.93265,-1.92557c0,-1.06346 0.86527,-1.92557 1.93265,-1.92557c1.06737,0 1.93267,0.86211 1.93267,1.92557c0,1.06346 -0.86529,1.92557 -1.93267,1.92557z" fill="#e0cb17" stroke="none"/><path d="M247.67351,169.25516c-0.65944,0 -1.194,-0.53261 -1.194,-1.18962c0,-0.65702 0.53456,-1.18962 1.194,-1.18962c0.65944,0 1.194,0.53261 1.194,1.18962c0,0.65701 -0.53456,1.18962 -1.194,1.18962z" fill="#e0cb17" stroke="#000000"/><path d="M247.17949,175.60144c0,0 -1.33147,-3.13414 -0.98611,-4.48625c0.33262,-1.3022 0.48585,-1.50522 0.48585,-1.50522l2.10321,0.01487c0,0 0.78596,1.09728 0.44156,2.13075c-0.34441,1.03347 -2.04451,3.84585 -2.04451,3.84585z" fill="#e8edf4" stroke="#000000"/><path d="M247.7003,169.84999c-0.58416,-0.0026 -1.30651,-0.35626 -1.30651,-0.35626l0.28233,-0.4899c0,0 0.63821,0.33264 1.09235,0.30689c0.45415,-0.02575 1.08264,-0.43022 1.08264,-0.43022l0.21781,0.68142c0,0 -0.85738,0.29035 -1.36863,0.28808z" fill="#dbded5" stroke="#000000"/></g><g data-paper-data="{&quot;index&quot;:null}" stroke="none"><path d="M242.00712,174.35808c0,0.41758 -0.1631,0.75611 -0.36428,0.75611c-0.20118,0 -0.36426,-0.33852 -0.36426,-0.75611c0,-0.41759 0.16308,-0.75611 0.36426,-0.75611c0.20119,0 0.36428,0.33852 0.36428,0.75611z" fill="#000000"/><path d="M240.23743,178.87692c0.20956,0 0.98657,2.14736 0.98657,2.14736c0,0 -1.05021,0.33269 -1.25977,0.33269c-0.20955,0 -0.56158,-1.2075 -0.56158,-1.39124c0,-0.18374 0.62523,-1.0888 0.83479,-1.0888z" fill="#807d5a"/><path d="M241.40616,174.88465l-0.1012,-0.31253l4.86707,-5.89768l0.13154,0.15122z" fill="#6e6e73"/><path d="M245.61549,169.1785l0.33391,0.32261l-1.17375,1.36101l-0.30356,-0.32261z" fill="#ddcb1e"/></g></g><g data-paper-data="{&quot;index&quot;:null}" stroke-width="0" stroke-linecap="butt" stroke-linejoin="miter"><g data-paper-data="{&quot;index&quot;:null}"><path d="M226.39308,168.41603c0,-1.36425 1.11002,-2.47019 2.47929,-2.47019c1.36928,0 2.47929,1.10595 2.47929,2.47019c0,1.36425 -1.11002,2.47018 -2.47929,2.47018c-1.36927,0 -2.47929,-1.10594 -2.47929,-2.47018z" fill="#e0cb17" stroke="none"/><path d="M227.2498,169.2308c0,-0.84284 0.68578,-1.52608 1.53171,-1.52608c0.84594,0 1.5317,0.68324 1.5317,1.52608c0,0.84283 -0.68577,1.52609 -1.5317,1.52609c-0.84594,0 -1.53171,-0.68325 -1.53171,-1.52609z" fill="#e0cb17" stroke="#000000"/><path d="M226.79248,173.96453c-0.44181,-1.32577 0.56646,-2.7334 0.56646,-2.7334l2.69807,-0.01907c0,0 0.19657,0.26044 0.62326,1.93095c0.44304,1.73451 -1.26501,5.36956 -1.26501,5.36956c0,0 -2.18096,-3.22229 -2.62278,-4.54805z" fill="#e8edf4" stroke="#000000"/><path d="M228.74714,171.51996c-0.65585,0.00291 -1.75571,-0.36955 -1.75571,-0.36955l0.27941,-0.87416c0,0 0.80625,0.51889 1.38884,0.55192c0.5826,0.03303 1.40131,-0.39371 1.40131,-0.39371l0.36218,0.62847c0,0 -0.92665,0.45371 -1.67602,0.45702z" fill="#dbded5" stroke="#000000"/></g><g data-paper-data="{&quot;index&quot;:null}" stroke="none"><path d="M235.23628,178.83712c0.20578,-0.4242 0.50039,-2.89051 1.79131,-2.85171c0.20036,0.00602 1.7467,1.3038 1.98128,2.35045c0.3191,1.42374 -0.69622,2.71278 -0.69622,2.71278l-3.11533,-0.0194c0,0 -0.16684,-1.76794 0.03894,-2.19213z" fill="#e4dcaa"/><path d="M236.51784,176.33311c0.25809,0 0.46731,0.43427 0.46731,0.96997c0,0.5357 -0.20923,0.96997 -0.46731,0.96997c-0.25808,0 -0.46729,-0.43427 -0.46729,-0.96997c0,-0.53571 0.20921,-0.96997 0.46729,-0.96997z" fill="#000000"/><path d="M235.34962,183.21343c-0.14743,-0.84753 -0.15577,-2.1986 -0.15577,-2.1986c0,0 0.56637,-0.34524 0.93073,-0.45271c0.36436,-0.10747 0.96773,-0.159 0.96773,-0.159l1.23122,0.78486c0,0 0.2064,2.9878 0.21929,3.37045c0.02595,0.77064 -1.4019,1.34502 -1.4019,1.34502l-1.18066,-0.48271c0,0 -0.46323,-1.35979 -0.61066,-2.20732z" fill="#dfcc17"/><path d="M237.05516,185.8547c0,0 0.99676,-2.75471 1.2656,-2.75471c0.26884,0 1.0709,1.16105 1.0709,1.39676c0,0.23571 -0.45159,1.78475 -0.72043,1.78475c-0.26884,0 -1.61608,-0.42678 -1.61608,-0.42678z" fill="#807d5a"/><path d="M230.53892,170.2059l0.16875,-0.194l6.24365,7.56575l-0.12981,0.40092z" fill="#6e6e73"/><path d="M232.8884,172.40449l-0.38942,0.41386l-1.50574,-1.74595l0.42836,-0.41385z" fill="#ddcb1e"/></g></g><g data-paper-data="{&quot;index&quot;:null}" stroke="none" stroke-width="0" stroke-linecap="butt" stroke-linejoin="miter"><g><path d="M240.64723,199.18262l1.54367,0.30591c0,0 0.4542,0.86981 -0.64799,0.80643c-1.10219,-0.06339 -1.78944,-0.43736 -2.63712,-0.99535c-0.5032,-0.33124 -1.24719,-1.42417 -1.24719,-1.42417l-0.96007,-0.21112c0,0 -0.61558,-0.43997 -0.62987,-0.8679c-0.05082,-1.52163 0.74319,-1.94969 0.74319,-1.94969c0,0 0.60277,1.59851 1.1627,2.23152c0.69083,0.78097 2.67265,2.10437 2.67265,2.10437z" fill="#393939"/><path d="M242.2042,193.0755l0.065,0.35615l-0.10909,0.40747c0,0 -0.00675,0.90642 0.03425,1.2536c0.05045,0.42719 0.10177,0.88703 0.32061,1.86919c0.0269,1.0713 -0.59457,2.54678 -0.59457,2.54678c0,0 -0.65474,0.14147 -1.67819,-0.40472c-3.45817,-1.84557 -3.40234,-4.03603 -3.40234,-4.03603c0,0 0.07307,-1.05404 0.30146,-1.57128c0.22839,-0.51724 0.61992,-0.85537 0.89498,-1.13841c0.27508,-0.28305 0.77704,-0.39653 0.77704,-0.39653c0,0 -0.14782,-0.02246 0.04828,-0.29508c0.04477,-0.06223 0.31934,-0.17088 0.31934,-0.17088l-0.1515,-0.11982l0.34479,-0.63431l2.75214,1.27784z" fill="#f01a40"/><path d="M242.01687,188.77226c0.81552,0.33507 1.4727,1.37795 1.40056,1.66756c-0.07216,0.28959 -0.68982,0.61041 -0.68982,0.61041c0,0 -0.02911,0.81084 -0.35833,0.92018c-0.49078,0.16299 -0.83095,0.14513 -1.88787,-0.15536c-0.56119,-0.23083 -0.81623,-0.72815 -1.06041,-1.08551c-0.29891,-0.43745 0.14809,-0.4053 0.21773,-0.73702c0.06963,-0.33172 0.06342,0.23493 0.07357,-0.65047c0.00727,-0.63421 1.90306,-0.73474 2.30455,-0.56978z" fill="#ffffff"/><path d="M241.42415,192.93967c-0.00537,0.05948 -0.06919,0.66045 -0.06919,0.66045c0,0 0.6319,2.68303 0.5431,3.49608c-0.10936,1.00139 -0.54214,2.41732 -0.54214,2.41732c0,0 -0.50925,-0.09835 -0.74984,-0.18613c-0.24752,-0.09031 -1.22616,-0.69347 -1.22616,-0.69347c0,0 0.75954,-2.58362 0.82961,-3.02728c0.10016,-1.17462 0.03738,-2.21447 0.03738,-2.21447l0.02921,-0.34413l-0.14876,-0.37177l0.21582,-0.96505l1.40111,0.37536c0,0 -0.29166,0.53685 -0.32018,0.85307z" fill="#ffffff"/></g><path d="M240.35576,189.53072c0.08878,-0.37409 0.67537,-0.55524 1.31021,-0.40461c0.63483,0.15063 1.07751,0.57602 0.98874,0.95012c-0.08877,0.3741 -0.67537,0.55525 -1.31021,0.40462c-0.63483,-0.15065 -1.07751,-0.57604 -0.98874,-0.95014z" fill="#afafaf"/></g><path d="M241.31992,184.44834l0.2112,3.74121l0.0895,2.30298c0,0 -0.38017,0.01614 -0.61837,-0.0948c-0.23821,-0.11095 -0.58118,-0.36107 -0.58118,-0.36107l-0.21434,-2.23566l-0.15094,-3.45998z" data-paper-data="{&quot;index&quot;:null}" fill="#f79db4" stroke="none" stroke-width="0" stroke-linecap="butt" stroke-linejoin="miter"/><g data-paper-data="{&quot;index&quot;:null}" stroke="none" stroke-width="0" stroke-linecap="butt" stroke-linejoin="miter"><g><path d="M238.59728,198.92963l1.5493,0.27607c0,0 0.47088,0.8609 -0.63232,0.81879c-1.1032,-0.04211 -1.79754,-0.40275 -2.65583,-0.94428c-0.5095,-0.32145 -1.27444,-1.39982 -1.27444,-1.39982l-0.96395,-0.19257c0,0 -0.62397,-0.42802 -0.64652,-0.85559c-0.08019,-1.52036 0.70543,-1.96367 0.70543,-1.96367c0,0 0.63352,1.58658 1.20555,2.20866c0.70577,0.76751 2.71277,2.05241 2.71277,2.05241z" fill="#393939"/><path d="M240.03614,192.79363l0.07185,0.35483l-0.10121,0.4095c0,0 0.01075,0.9064 0.05844,1.25272c0.05869,0.42613 0.11887,0.88489 0.35662,1.86265c0.04756,1.07059 -0.54531,2.55778 -0.54531,2.55778c0,0 -0.65188,0.15406 -1.68568,-0.37228c-3.49315,-1.77849 -3.4796,-3.96961 -3.4796,-3.96961c0,0 0.0527,-1.05526 0.27107,-1.57681c0.21836,-0.52156 0.60329,-0.86717 0.87284,-1.15547c0.26955,-0.28831 0.76924,-0.41146 0.76924,-0.41146c0,0 -0.14822,-0.0196 0.04258,-0.29595c0.04356,-0.06308 0.31599,-0.17701 0.31599,-0.17701l-0.15379,-0.11689l0.33249,-0.64084l2.77628,1.22448z" fill="#f01a40"/><path d="M239.76577,188.49479c0.82182,0.31927 1.49902,1.34928 1.43248,1.64022c-0.06656,0.29094 -0.67792,0.62362 -0.67792,0.62362c0,0 -0.01345,0.81125 -0.3405,0.92692c-0.48753,0.17243 -0.828,0.16112 -1.89052,-0.11892c-0.56553,-0.21995 -0.83011,-0.71227 -1.08114,-1.06485c-0.30729,-0.43158 0.14025,-0.40807 0.20347,-0.74108c0.06323,-0.333 0.06794,0.23367 0.06101,-0.65176c-0.00497,-0.63423 1.88851,-0.77135 2.29311,-0.61416z" fill="#ffffff"/><path d="M239.19712,193.33449c0,0 0.68356,2.67032 0.61047,3.48494c-0.09002,1.00332 -0.49539,2.42734 -0.49539,2.42734c0,0 -0.51105,-0.08852 -0.75329,-0.17164c-0.24923,-0.08551 -1.23931,-0.66968 -1.23931,-0.66968c0,0 0.70955,-2.59778 0.77104,-3.04271c0.07749,-1.17635 -0.00535,-2.21479 -0.00535,-2.21479l0.02257,-0.34461l-0.1559,-0.36883l0.19715,-0.96904l1.40809,0.34826c0,0 -0.28124,0.54238 -0.30365,0.85909c-0.00421,0.05956 -0.05643,0.66167 -0.05643,0.66167z" fill="#ffffff"/></g><path d="M238.11962,189.28513c0.08153,-0.37575 0.66452,-0.5682 1.30215,-0.42984c0.63763,0.13836 1.08844,0.55513 1.00691,0.93087c-0.08153,0.37575 -0.66452,0.56819 -1.30215,0.42983c-0.63763,-0.13836 -1.08843,-0.55512 -1.0069,-0.93086z" fill="#afafaf"/></g><path d="M238.45882,177.17997l0.94772,0.37052c0,0 0.09834,0.80919 -0.03773,1.14138c-0.12834,0.31332 -0.83343,0.79847 -0.83343,0.79847z" data-paper-data="{&quot;index&quot;:null}" fill="#f25c76" stroke="none" stroke-width="0" stroke-linecap="butt" stroke-linejoin="miter"/><path d="M240.49886,184.46632l-0.6119,4.09511l-0.30175,1.78308c0,0 -0.54939,-0.12351 -0.78808,-0.25808c-0.23869,-0.13457 -0.5154,-0.47678 -0.5154,-0.47678l0.24475,-1.33028l0.64086,-3.72209z" data-paper-data="{&quot;index&quot;:null}" fill="#f79db4" stroke="none" stroke-width="0" stroke-linecap="butt" stroke-linejoin="miter"/><path d="M245.99652,182.15357c0,0 -1.65616,4.09746 -6.24764,3.99094c-4.73031,-0.02449 -5.98864,-3.85694 -5.98864,-3.85694l1.09315,-0.24746c0,0 0.52027,3.04675 5.28498,2.88744c4.12629,-0.13797 4.67202,-3.06609 4.67202,-3.06609z" data-paper-data="{&quot;index&quot;:null}" fill="#ffffff" stroke="none" stroke-width="0" stroke-linecap="butt" stroke-linejoin="miter"/><path d="M241.87648,178.54318c0.10973,0.65348 -0.12852,2.21952 -0.12852,2.21952l0.32623,0.1583l0.04716,0.15691l2.79502,0.80497c0,0 -0.33013,1.11164 -1.1641,1.79467c-1.29755,1.0627 -2.4097,1.5544 -4.10856,1.4095c-1.85978,-0.15863 -2.34016,-0.43403 -3.54156,-1.22701c-1.30374,-0.86052 -1.28245,-1.79128 -1.28245,-1.79128l1.39789,-0.45591l0.62958,-0.28818l0.07511,-0.16357l1.45459,-0.71556l0.16418,-1.05864c0,0 0.51527,-0.30891 0.69141,-0.79854c0.13954,-0.38788 0.12879,-1.13997 0.12879,-1.13997l1.19241,-0.34653l0.36739,0.0378c0,0 0.85724,0.81864 0.95546,1.40353z" data-paper-data="{&quot;index&quot;:null}" fill="#f01a40" stroke="none" stroke-width="0" stroke-linecap="butt" stroke-linejoin="miter"/><path d="M238.12698,176.92194c0,0 1.08912,0.18954 1.59781,0.20559c0.50868,0.01604 1.29821,-0.11422 1.29821,-0.11422c0,0 -0.0364,0.72955 -1.34815,0.70811c-1.41028,-0.02305 -1.54787,-0.79949 -1.54787,-0.79949z" data-paper-data="{&quot;index&quot;:null}" fill="#afafaf" stroke="none" stroke-width="0" stroke-linecap="butt" stroke-linejoin="miter"/><g data-paper-data="{&quot;index&quot;:null}"><path d="M240.18529,171.0737c0,0 -1.04214,-0.84173 -1.99504,-0.53519c-1.54021,0.49549 -1.18672,2.52077 -1.18672,2.52077c0,0 -0.39072,-1.34372 0.3,-2.12111c0.45597,-0.5132 0.76911,-0.71111 1.47414,-0.63c0.79002,0.09088 1.40761,0.76552 1.40761,0.76552z" fill="#000000" stroke="none" stroke-width="0" stroke-linecap="butt" stroke-linejoin="miter"/><path d="M239.09619,166.15401c3.33819,0 6.04431,2.33386 6.04431,5.21281c0,2.87896 -2.70613,5.2128 -6.04431,5.2128c-3.33818,0 -6.0443,-2.33385 -6.0443,-5.2128c0,-2.87896 2.70612,-5.21282 6.0443,-5.21282z" fill="#f79eb4" stroke="none" stroke-width="0" stroke-linecap="butt" stroke-linejoin="miter"/><path d="M244.94075,173.11249c0.00627,-0.01611 0.03611,1.04439 -0.71892,2.38834c-1.21074,2.16933 -2.69053,2.22704 -2.69053,2.22704l0.28262,-0.91116c0,0 1.55213,-1.72427 1.9589,-2.37171c0.40676,-0.64744 0.6043,-1.81547 0.60411,-1.81476" fill="#f79eb4" stroke="#f89db5" stroke-width="0" stroke-linecap="butt" stroke-linejoin="round"/><g fill="#ffd5c5" stroke="none" stroke-width="1" stroke-linecap="round" stroke-linejoin="round"><path d="M243.45443,175.0255c0.11769,0.53465 -0.33959,0.99511 -0.73513,1.30295c-0.06472,0.05035 -0.57188,0.44252 -1.40543,0.72159c-1.04591,0.35015 -2.42657,0.15208 -2.82313,0.10525c-0.47293,-0.0559 -1.31465,-0.58396 -1.44795,-0.72743c-0.95936,-1.0326 -0.24093,-1.53174 -0.13962,-1.61022c0.04832,-0.03741 0.31888,-0.13842 0.63715,-0.0301c0.31022,0.10558 1.15869,0.57476 1.45072,0.56231c0.31377,-0.01337 2.05895,-0.60361 2.96625,-0.60243c0.18856,0.00223 0.43678,0.06523 0.58844,0.18388c0.19737,0.15447 0.49285,0.45028 0.75847,0.1947c0.04298,-0.0414 0.13736,-0.15879 0.15022,-0.10052z"/><path d=""/></g><g fill="#000000" stroke="#000000" stroke-width="0.125" stroke-linecap="butt" stroke-linejoin="round"><path d="M244.38812,173.30624c0.06242,-0.02085 0.35865,0.00962 0.799,-0.09365c0.27714,-0.07579 0.55378,-0.15415 0.82216,-0.25642c0.16067,-0.06127 0.30714,-0.16655 0.46915,-0.22066c0.00551,-0.00185 -0.34397,0.21364 -0.44996,0.26442c-0.33221,0.1592 -0.63222,0.26825 -0.9856,0.37014c-0.07759,0.02239 -0.71155,0.12907 -0.70803,0.10451"/><path d="M244.51905,172.76981c0.02558,0.02546 0.35692,0.03786 0.77433,-0.149c0.4174,-0.18686 0.99582,-0.54894 1.01418,-0.58572c0.00692,-0.01388 -0.63433,0.5123 -0.9297,0.67201c-0.29537,0.15971 -0.91388,0.29905 -0.91062,0.27614"/></g><g fill="#000000" stroke="none" stroke-width="1" stroke-linecap="round" stroke-linejoin="round"><path d="M241.79226,175.0386c0.14923,-0.10805 0.67827,-0.04953 0.76951,0.01737c0.15784,0.11573 -0.2206,0.36249 -0.33055,0.35514c-0.23909,-0.03554 -0.6353,-0.23033 -0.43896,-0.37251z"/><path d=""/></g><path d="M236.82921,172.33965c0.02047,-0.05301 -0.09977,1.8957 -0.07803,2.77616c0.04097,1.65803 0.42394,2.68636 0.42394,2.68636c0,0 -0.35774,-0.23441 -0.44345,-0.30592c-0.2648,-0.22085 -0.49846,-0.43966 -0.72366,-0.70465c-0.52966,-0.6233 -0.88739,-1.37012 -1.10908,-2.1546c-0.14774,-0.52281 -0.30777,-2.81216 -0.28494,-2.82591" fill="#f79eb4" stroke="#f89db5" stroke-width="0" stroke-linecap="butt" stroke-linejoin="round"/><path d="M234.51934,171.77961c-0.01464,0.01464 0.28029,2.81548 0.42676,3.59368c0.14646,0.7782 0.61363,1.93401 0.61363,1.93401c0,0 -0.41128,-0.06345 -0.97324,-0.69448c-0.4962,-0.55721 -0.77538,-0.83955 -1.05988,-1.88672c-0.36917,-1.35883 -0.47186,-3.22519 -0.29214,-3.58465" fill="#f79eb4" stroke="#f89db5" stroke-width="0" stroke-linecap="butt" stroke-linejoin="round"/><g fill="#ee1a40" stroke="none" stroke-width="1" stroke-linecap="round" stroke-linejoin="round"><path d="M242.86528,168.64848c-0.0866,-0.05592 -2.2936,-1.44681 -3.87859,-1.17164c-1.24924,0.21687 -1.90847,0.73513 -3.04667,1.62756c-0.8778,0.68823 -1.42094,2.25749 -1.45484,2.26644c-0.00243,0.00064 0.33378,-4.10309 3.7273,-4.70804c2.74553,-0.45776 4.95521,1.33186 5.04726,1.44986"/><path d=""/></g><path d="M243.14247,169.75011c-0.0227,0.01843 0.98079,-0.91593 2.76312,-0.48036c0.31763,0.07944 1.34876,0.83112 1.61369,1.57754c0.32256,0.67883 0.49892,1.71484 0.48274,1.71319c-0.02322,-0.00244 -1.40707,-1.43833 -2.44647,-1.83373c-0.56753,-0.2159 -2.18293,0.1441 -2.21281,0.16835" fill="#f79eb4" stroke="#f89db5" stroke-width="0" stroke-linecap="butt" stroke-linejoin="round"/><path d="M242.29502,169.78801c0.00908,-0.08308 0.79776,-1.66605 1.07878,-1.91925c0.28102,-0.2532 0.39324,-0.43395 0.99777,-0.4654c2.05717,0.09193 3.61369,0.45161 3.61369,0.45161c0,0 -1.68955,0.62076 -2.43781,0.76164c-1.03812,0.19546 -2.29251,1.05243 -2.39645,1.1359" fill="#f79eb4" stroke="#f89db5" stroke-width="0" stroke-linecap="butt" stroke-linejoin="round"/><g stroke="none" stroke-width="1" stroke-linecap="round" stroke-linejoin="round"><g fill="#f79eb4"><path d="M235.70286,169.61097c-0.02251,-0.35882 -0.18813,-0.97796 -0.19076,-1.65428c-0.00262,-0.67632 0.05523,-1.54383 0.17765,-1.71819c0.16004,-0.22796 0.92717,-0.00727 1.70972,0.36284c0.78255,0.37013 1.75052,1.14255 1.7949,1.29471"/></g><g fill="#ffd5c5"><path d="M236.27026,169.18149c-0.01053,-0.08486 -0.1264,-0.47814 -0.14119,-0.97843c-0.0148,-0.50029 0.05438,-1.25413 0.07443,-1.27986c0.08129,-0.10431 0.93758,0.18041 1.36123,0.38916c0.42366,0.20875 0.84779,0.58793 0.9475,0.74847"/></g></g><g fill="#f79eb4" stroke="none" stroke-width="1" stroke-linecap="round" stroke-linejoin="round"><path d="M242.66732,167.35959c0.29499,-0.08839 0.608,-0.15809 1.27228,-0.20333c0.66427,-0.04524 1.49038,-0.11186 1.69966,0.00089c0.04286,0.02311 0.15973,0.66751 0.07343,1.16967c-0.13469,0.78385 -0.59558,1.61249 -0.60409,1.62533"/><path d=""/></g><path d="M241.45741,173.20568c0.41372,0.60664 0.61215,0.59671 0.80863,0.61427c0.33707,0.03013 0.7176,-0.2714 1.00158,-0.63715c0.40601,-0.5229 0.78897,-1.4542 1.23813,-1.45808c0.06807,-0.00059 0.11454,0.84119 -0.04066,1.41753c-0.32914,1.22225 -1.15546,2.08352 -1.30206,2.08886c-0.58573,0.02133 -0.41306,-0.51203 -1.60028,-0.45107c-0.6762,0.03473 -2.21533,0.77096 -2.8683,0.57727c-1.27143,-0.58991 -1.59567,-1.66258 -1.6902,-2.37548c-0.28408,-2.14228 1.02378,-2.72666 1.46832,-2.67571c2.04647,0.23452 2.33585,1.94796 2.98484,2.89957z" fill="#ffffff" stroke="none" stroke-width="0" stroke-linecap="butt" stroke-linejoin="miter"/><path d="M243.27961,170.98496c-0.04066,-0.02975 1.05183,-0.37135 1.91166,0.12715c0.24701,0.14321 0.98192,1.26668 0.96484,1.41674c0.0252,0.60993 0.08842,1.82272 0.09002,1.82157c0.03485,-0.02475 -0.95677,-0.7569 -1.61308,-1.61238c-0.22239,-0.28642 -1.23166,-0.73745 -1.34672,-0.82174" fill="#f79eb4" stroke="#f89db5" stroke-width="0" stroke-linecap="butt" stroke-linejoin="round"/><g fill="#000000" stroke="#000000" stroke-width="0.125" stroke-linecap="butt" stroke-linejoin="round"><path d="M237.22315,171.18233c-0.02443,0.03602 -0.17767,0.04892 -0.36822,-0.0353c-1.2234,-0.54065 -1.37931,-0.92237 -1.37931,-0.92237c0,0 0.41695,0.51644 1.28479,0.7476c0.169,0.04501 0.39449,0.06642 0.44337,0.0638c0.04663,-0.0025 0.08706,-0.03774 0.13643,-0.01964"/><path d="M236.9521,171.97584c0,0 -0.0365,0.04303 -0.16777,0.08602c-0.24342,0.07973 -0.86342,0.07606 -1.15066,0.03326c-0.68491,-0.10208 -1.06852,-0.33041 -1.06852,-0.33041c0,0 0.77457,0.22285 1.02076,0.26251c0.74294,0.11548 1.23233,-0.17059 1.29821,-0.21882c0.02904,-0.02124 0.08987,-0.08021 0.12357,-0.08405"/></g><g stroke="none" stroke-linecap="butt" stroke-linejoin="miter"><path d="M240.05625,172.35856c0.23265,0.01501 0.38365,0.61015 0.33726,1.32928c-0.0464,0.71912 -0.27263,1.28991 -0.50528,1.27491c-0.23265,-0.01501 -0.38364,-0.61014 -0.33725,-1.32927c0.04639,-0.71913 0.27262,-1.28992 0.50527,-1.27492z" fill="#169c5b" stroke-width="NaN"/><path d="M240.00334,173.27808c0.10223,0.00659 0.16938,0.25544 0.15001,0.5558c-0.01936,0.30037 -0.11795,0.53853 -0.22018,0.53193c-0.10223,-0.00659 -0.16938,-0.25544 -0.15001,-0.5558c0.01936,-0.30037 0.11795,-0.53853 0.22018,-0.53193z" fill="#000000" stroke-width="0"/><path d="M239.9038,173.13199c0.01961,-0.30389 0.13552,-0.54379 0.2589,-0.53583c0.12337,0.00796 0.2075,0.26076 0.18789,0.56466c-0.01961,0.3039 -0.13552,0.54379 -0.2589,0.53583c-0.12337,-0.00796 -0.2075,-0.26075 -0.18789,-0.56465z" fill="#ffffff" stroke-width="0"/></g><g stroke="none" stroke-linecap="butt" stroke-linejoin="miter"><path d="M242.96778,174.12119c0.03272,-0.50723 0.19227,-0.90982 0.35638,-0.89924c0.1641,0.01058 0.27059,0.43035 0.23788,0.93758c-0.03273,0.50723 -0.19228,0.90983 -0.35639,0.89925c-0.1641,-0.01058 -0.27058,-0.43035 -0.23787,-0.93758z" fill="#169c5b" stroke-width="NaN"/><path d="M243.13154,174.24571c0.01367,-0.21186 0.08319,-0.37983 0.1553,-0.37517c0.07212,0.00465 0.1195,0.18016 0.10582,0.39202c-0.01368,0.21186 -0.0832,0.37984 -0.15531,0.37518c-0.07212,-0.00466 -0.1195,-0.18017 -0.10582,-0.39203z" fill="#000000" stroke-width="0"/><path d="M243.39925,173.38953c0.08703,0.00562 0.14635,0.18393 0.13253,0.39828c-0.01384,0.21434 -0.09559,0.38355 -0.18262,0.37793c-0.08702,-0.00562 -0.14634,-0.18391 -0.13252,-0.39826c0.01384,-0.21434 0.09558,-0.38357 0.18261,-0.37795z" fill="#ffffff" stroke-width="0"/></g></g><g data-paper-data="{&quot;index&quot;:null}" stroke-linecap="butt" stroke-linejoin="miter"><path d="M256.55628,183.0324l-9.08376,-0.04862c0,0 -1.34088,-2.60038 0.07389,-3.98468c1.34081,-1.31192 2.62841,-1.994 4.62983,-2.0897c5.21229,-0.24925 5.48684,4.41538 5.48684,4.41538z" fill="#fbdd00" stroke="none" stroke-width="0"/><path d="M256.86296,182.59653c0,0 -0.03414,-0.647 -0.26107,-1.29661c-0.15185,-0.43472 -0.52824,-0.85808 -0.48565,-1.06528c0.08563,-0.41674 0.26925,-0.09771 0.68324,0.63357c0.19304,0.34098 0.35991,1.28927 0.35991,1.28927l-0.29643,0.43907z" fill="#a58c48" stroke="#000000" stroke-width="0"/><path d="M254.11786,178.65284c0.00397,0.18816 -1.05128,-0.15823 -1.94783,-0.13928c-0.89654,0.01894 -2.31692,0.77723 -2.37854,0.35103c-0.06749,-0.46672 1.43273,-0.78539 2.32831,-0.83118c1.33661,-0.06835 1.99409,0.43127 1.99807,0.61943z" fill="#a58c48" stroke="#000000" stroke-width="0"/><path d="M247.21002,181.94672c0,0 0.0185,-0.61574 0.17304,-1.03266c0.13875,-0.37431 0.49472,-0.39913 0.55973,-0.34625c0.18471,0.1503 -0.19406,0.43934 -0.34233,0.85937c-0.16019,0.4538 -0.1824,0.87604 -0.1824,0.87604z" fill="#a58c48" stroke="#000000" stroke-width="0"/><path d="M252.1066,184.04877c3.58399,0.01982 4.57101,2.01891 4.57101,2.01891c0,0 0.04757,-0.21533 0.06085,0.38087c0.01328,0.5962 -0.04274,0.31025 -0.04274,0.31025c0,0 -1.40995,-1.66225 -3.57696,-2.04972c-3.44863,-0.61663 -5.61005,1.88299 -5.61005,1.88299l0.06941,-0.59072c0,0 1.97426,-1.96674 4.52847,-1.95259z" fill="#edeee6" stroke="none" stroke-width="0"/><path d="M247.31857,182.575c0,0 1.92872,-2.9269 4.75389,-2.79908c3.58035,0.162 4.66496,2.96067 4.66496,2.96067l-0.17999,0.28917c0,0 -1.37325,-1.92682 -3.50035,-2.36198c-3.38509,-0.6925 -5.61099,2.28761 -5.61099,2.28761l-0.12754,-0.3764z" fill="#edeee6" stroke="none" stroke-width="0"/><path d="M252.02553,180.19225c3.59944,0.01952 4.63318,3.10891 4.63318,3.10891c0,0 0.14112,0.93413 0.15441,1.53033c0.01329,0.5962 -0.08628,1.52564 -0.08628,1.52564c0,0 -1.41588,-1.66212 -3.59221,-2.0494c-3.46343,-0.61631 -5.6344,1.8835 -5.6344,1.8835l-0.07494,-3.33309c0,0 2.03503,-2.6798 4.60025,-2.66589z" fill="#ff1a07" stroke="none" stroke-width="0"/><path d="M249.75411,180.89045c0,0 1.29206,-0.68213 2.18994,-0.70966c0.89788,-0.02754 2.0605,0.70002 2.0605,0.70002l0.06778,3.20659c0,0 -1.44002,-0.29036 -2.13115,-0.27575c-0.71117,0.01504 -2.15767,0.36641 -2.15767,0.36641z" fill="#ff1808" stroke="#000000" stroke-width="0"/><path d="M256.68421,186.23774c0,0 -0.31488,-0.56347 -0.58927,-0.86124c-0.27438,-0.29778 -0.80615,-0.65315 -0.80615,-0.65315l-0.1032,-2.98531c0,0 0.70302,0.35181 1.02569,0.79792c0.32267,0.44611 0.49836,1.11036 0.50269,1.31516c0.01146,0.54236 -0.02976,2.3866 -0.02976,2.3866z" fill="#ff1808" stroke="#000000" stroke-width="0"/><path d="M247.61963,186.14863c0,0 -0.12459,-2.62888 -0.02811,-3.22748c0.07064,-0.43823 1.01631,-1.24456 1.01631,-1.24456l0.06651,3.14648c0,0 -0.30841,0.32205 -0.4858,0.54502c-0.17741,0.22297 -0.5689,0.78053 -0.5689,0.78053z" fill="#ff1808" stroke="#000000" stroke-width="0"/><path d="M250.50301,187.53127c-1.33929,0.02832 -3.91455,1.82603 -3.91455,1.82603c0,0 -0.25029,-0.74881 0.03274,-1.58974c0.44279,-1.31563 1.72723,-3.00059 4.78196,-3.18263c5.82525,-0.34717 6.49863,4.85514 6.49863,4.85514c0,0 -6.05947,-1.9371 -7.39876,-1.90879z" fill="#fbdd00" stroke="none" stroke-width="0"/><path d="M252.03523,185.41368c-0.69731,0.01475 -2.38486,0.37077 -2.26297,0.12804c0.18033,-0.35913 1.51527,-0.61565 2.2127,-0.60818c1.25932,0.01349 2.07547,0.487 2.0778,0.59769c0.00233,0.1107 -1.12983,-0.13651 -2.02756,-0.11755z" fill="#a58c48" stroke="#000000" stroke-width="0"/><path d="M257.19062,187.43005c0,0 -1.26795,-0.90773 -1.34814,-1.17452c-0.12495,-0.41574 1.0766,0.65895 1.0766,0.65895l0.27154,0.51556z" fill="#a58c48" stroke="#000000" stroke-width="0"/><path d="M248.3036,186.25445c0.00795,0.37633 -1.58478,1.42292 -1.58478,1.42292l0.32732,-0.76774c0,0 1.24949,-1.03152 1.25744,-0.65518z" fill="#a58c48" stroke="#000000" stroke-width="0"/><path d="M252.63219,193.03912c-3.22681,0.0281 -6.01788,-1.33227 -6.06878,-3.74036c-0.0365,-1.72668 2.88318,-3.06847 5.74927,-3.08895c2.74553,-0.0196 5.52512,1.4841 5.56163,3.21079c0.03649,1.72668 -2.49714,3.5693 -5.24264,3.59321z" fill="#fbdd00" stroke="#000000" stroke-width="0.25"/><path d="M256.6738,191.13653c0.02199,1.04044 -1.94317,1.9258 -4.3893,1.9775c-2.44612,0.0517 -4.44694,-0.74982 -4.46893,-1.79026c-0.02198,-1.04044 1.94318,-1.92579 4.38931,-1.97749c2.44611,-0.0517 4.44692,0.74981 4.46891,1.79025z" fill="#fbdd00" stroke="#000000" stroke-width="0.25"/><path d="M245.40639,186.29365l-4.15541,0.36368l-7.0417,0.58897c0,0 -0.46693,-0.29246 -0.48307,-0.52472c-0.01614,-0.23225 0.26019,-0.77963 0.26019,-0.77963l6.95407,-0.99559l4.25176,-0.66306c0,0 -0.10139,0.63725 -0.05823,1.04242c0.04315,0.40517 0.27237,0.96794 0.27237,0.96794z" fill="#fbdd00" stroke="none" stroke-width="0"/><path d="M247.48762,186.38347c0,0 -1.82314,0.16623 -1.91218,0.10254c-0.33802,-0.24178 -0.60767,-1.94707 -0.31211,-2.45192c0.1745,-0.2981 2.68288,-0.66478 2.68288,-0.66478l-0.22322,2.74151z" fill="#c8c8c6" stroke="none" stroke-width="0"/><path d="M257.61875,181.12522c0,0 -0.1856,-2.40823 -2.3679,-3.57837c-0.52936,-0.28385 -1.3391,-0.40906 -2.10399,-0.50849c-1.13709,-0.1478 -2.48444,-0.02278 -3.52261,0.49687c-1.28271,0.64205 -2.27222,1.81654 -2.27222,1.81654c0,0 1.90286,-3.25236 5.23577,-2.89217c4.93967,0.53381 5.03097,4.66561 5.03097,4.66561z" fill="#fbdd00" stroke="#000000" stroke-width="0.25"/><path d="M234.20925,187.24629c0,0 -0.46693,-0.29246 -0.48307,-0.52472c-0.01614,-0.23226 0.26018,-0.77964 0.26018,-0.77964l2.98233,-0.44222c0,0 0.12087,0.31174 0.16403,0.71691c0.04316,0.40516 -0.00634,0.79052 -0.00634,0.79052z" fill="#a56402" stroke="none" stroke-width="0"/></g><g data-paper-data="{&quot;index&quot;:null}" stroke="none" stroke-width="0" stroke-linecap="butt" stroke-linejoin="miter"><path d="M240.13685,184.68666c0,0 0.75427,1.28016 1.08876,2.10222c0.05329,0.13098 -0.23,1.19077 -0.42687,1.64455c-0.10752,0.24785 -0.30486,0.71093 -0.75874,0.70394c-0.11571,-0.00178 -0.60496,-0.28297 -0.60496,-0.28297l-0.35199,0.26002c0,0 -0.26062,-0.00468 -0.39482,-0.08777c-0.13419,-0.08309 -0.30526,-0.32217 -0.30526,-0.32217c0,0 -0.17907,0.00477 -0.30401,0.03402c-0.40781,0.09549 -0.53039,-0.27765 -0.53039,-0.27765c0,0 -0.2879,0.10315 -0.50143,0.04387c-0.33852,-0.09397 -0.67643,-0.39166 -0.79739,-0.60396c-0.20548,-0.36062 -0.52508,-1.47267 -0.24061,-1.73436c0.44304,-0.40757 0.87794,0.19302 0.87794,0.19302c0,0 -0.06284,-0.62526 0.09859,-0.96969c0.24856,-0.53036 0.59014,-0.69579 0.59014,-0.69579l2.56105,-0.00725z" fill="#ffffff"/><path d="M238.57119,182.64649c0.56941,-0.15427 1.85036,0.24642 2.06896,0.6632c0.21858,0.4168 0.3845,1.45561 -0.15509,1.69407c-1.97109,0.8711 -2.93427,0.05061 -3.30738,-0.85394c-0.24371,-0.59081 -0.21025,-1.06879 1.39352,-1.50331z" fill="#fed000"/><path d="M238.74576,183.03057c0.54398,-0.02828 0.99613,0.16365 1.0099,0.42868c0.01377,0.26503 -0.41604,0.50278 -0.96003,0.53105c-0.544,0.02828 -0.99615,-0.16364 -1.00992,-0.42867c-0.01377,-0.26503 0.41605,-0.50279 0.96004,-0.53106z" fill="#c28830"/><path d="M239.23982,181.4235c0.085,1.30083 0.19886,2.45695 0.19886,2.45695c0,0 -0.48857,0.23834 -0.79841,0.14187c-0.30986,-0.09647 -0.4205,-0.08684 -0.4205,-0.08684c0,0 -0.05932,-2.05289 -0.09361,-2.57768c-0.05625,-0.86083 -0.17218,-1.94886 -0.33073,-3.18997c-0.03972,-0.31099 0.09957,-0.51212 0.41504,-0.5656c0.21195,-0.03592 0.42409,0.01643 0.52329,0.39526c0.29958,1.14404 0.44661,2.51615 0.50606,3.42601z" fill="#fed5c7"/></g><path d="M237.70401,176.26431c0,0 0.14712,-0.07048 0.46449,-0.06254c0.31737,0.00793 0.8067,0.06254 0.8067,0.06254" data-paper-data="{&quot;index&quot;:null}" fill="none" stroke="#000000" stroke-width="0.125" stroke-linecap="round" stroke-linejoin="miter"/></g></g></svg>