<svg version="1.1" xmlns="http://www.w3.org/2000/svg" xmlns:xlink="http://www.w3.org/1999/xlink" width="139.96432" height="25.18162" viewBox="0,0,139.96432,25.18162"><g transform="translate(-170.01784,-167.40919)"><g data-paper-data="{&quot;isPaintingLayer&quot;:true}" fill-rule="nonzero" stroke="none" stroke-width="0.26459" stroke-linecap="butt" stroke-linejoin="miter" stroke-miterlimit="10" stroke-dasharray="" stroke-dashoffset="0" style="mix-blend-mode: normal"><g fill="#ff0000"><path d="M170.01784,192.59081v-25.18161h8.18187v17.98687h10.90914v7.19474z"/><path d="M191.83613,192.59081v-25.18161h19.09099v7.19476h-10.90914v1.79868h10.90914v7.19474h-10.90914v1.79868h10.90914v7.19474z"/><path d="M213.65441,167.40919h7.63641l3.54546,18.28665l3.54548,-18.28665h7.6364l-5.7273,25.18161h-10.90914z"/><path d="M238.74545,192.59081v-25.18161h19.09099v7.19476h-10.90914v1.79868h10.90914v7.19474h-10.90914v1.79868h10.90914v7.19474z"/><path d="M260.56374,192.59081v-25.18161h8.18186v17.98687h10.90914v7.19474z"/><path d="M309.98216,167.40919v25.18161h-6.81822v-16.78773c-2.54547,1.99854 -4.81821,3.19766 -6.81822,3.59737v-5.69585c1.27273,-0.19985 2.54547,-0.84937 3.8182,-1.94857c1.27273,-1.0992 2.27275,-2.54815 3.00002,-4.34683z"/></g><g fill="#71ff33"><path d="M173.51785,192.59081v-21.68162h7.74344v15.48687h10.32457v6.19474z"/><path d="M194.167,192.59081v-21.68162h18.068v6.19476h-10.32457v1.54869h10.32457v6.19474h-10.32457v1.54869h10.32457v6.19474z"/><path d="M214.81615,170.90919h7.22721l3.35548,15.74498l3.35549,-15.74498h7.2272l-5.42041,21.68162h-10.32457z"/><path d="M238.56268,192.59081v-21.68162h18.068v6.19476h-10.32457v1.54869h10.32457v6.19474h-10.32457v1.54869h10.32457v6.19474z"/><path d="M259.21184,192.59081v-21.68162h7.74343v15.48687h10.32457v6.19474z"/><path d="M305.98217,170.90919v21.68162h-6.45286v-14.4544c-2.40907,1.72076 -4.56002,2.75322 -6.45286,3.09737v-4.90418c1.20453,-0.17207 2.40907,-0.73132 3.6136,-1.67774c1.20453,-0.94642 2.15096,-2.19398 2.83926,-3.74267z"/></g></g></g></svg>