<svg version="1.1" xmlns="http://www.w3.org/2000/svg" xmlns:xlink="http://www.w3.org/1999/xlink" width="38" height="31.66729" viewBox="0,0,38,31.66729"><g transform="translate(-225.30893,-163.30546)"><g data-paper-data="{&quot;isPaintingLayer&quot;:true}" fill-rule="nonzero" stroke-linejoin="miter" stroke-miterlimit="10" stroke-dasharray="" stroke-dashoffset="0" style="mix-blend-mode: normal"><path d="M236.02,185.87799c0.10251,-0.49339 0.09391,-1.07128 0.18132,-1.5252c0.48061,-1.35243 0.9811,-0.1535 1.22441,0.50373c0.16929,0.39586 0.03546,0.90235 -0.04667,1.33622c-0.11615,0.6062 -0.09566,1.44072 -0.55295,1.809c-0.38334,0.3018 -1.17009,0.27604 -1.34458,-0.176c-0.23352,-0.60435 0.40041,-1.28037 0.53848,-1.94774z" data-paper-data="{&quot;index&quot;:null}" fill="#005613" stroke="none" stroke-width="0.65663" stroke-linecap="round"/><path d="M232.86786,191.93463c-0.31455,-0.39816 -0.51591,-0.38008 -0.41607,-0.78791c0.29761,-0.77486 1.01249,-0.69019 0.9631,-0.80053c-0.04908,-0.10904 -1.10328,1.26143 -1.64661,0.32715c-0.28529,-0.44534 0.90891,-1.42412 1.34961,-1.94413c0.16389,-0.18107 0.44406,-0.35943 0.67434,-0.63988c0.23028,-0.28045 0.23032,-0.49406 0.46357,-0.74599c0.23325,-0.25193 0.71759,-0.67955 0.85505,-0.67825c0.47569,0.05042 -0.04261,-0.10613 0.71535,0.1517c0.75797,0.25782 1.07245,0.40079 1.67446,0.71403c0.602,0.31323 0.54225,0.08183 0.68943,0.38649c0.10449,0.21667 -0.18526,0.92274 -0.53802,1.30036c-0.35277,0.37762 -0.41965,0.80055 -0.57999,1.28866c-0.16035,0.48811 0.01564,1.50089 -0.71574,2.37635c-0.41485,0.49727 -1.18457,0.35951 -1.94235,0.08937c-0.6362,-0.22726 -1.15331,-0.58925 -1.54614,-1.03742z" fill="#a8c8d8" stroke="none" stroke-width="0.67216" stroke-linecap="round"/><g><path d="M247.94808,184.69733l0.82466,0.01376c0,0 1.35351,2.50016 1.77475,3.88319c0.3514,1.15373 0.60832,2.91586 0.62787,3.63715c0.03375,1.24539 -0.59016,1.03868 -0.59016,1.03868c0,0 0.01137,-3.26873 -0.34301,-4.54667c-0.25261,-0.91109 -2.29411,-4.02611 -2.29411,-4.02611z" fill="#989898" stroke="#989898" stroke-width="0" stroke-linecap="round"/><path d="M246.68535,186.53516c0.0971,-0.55386 0.16529,-0.98994 0.58141,-1.42688c0.59155,-0.62113 0.99177,-0.42724 1.30367,-0.00197c0.65627,0.8954 1.34038,2.6463 1.34038,2.6463l-2.97173,1.84899c0,0 -0.40135,-2.21726 -0.25373,-3.06645z" fill="#f82020" stroke="none" stroke-width="1.13968" stroke-linecap="round"/><path d="M249.85752,187.67816c0,0 0.16697,0.10572 0.42984,1.06462c0.26287,0.95889 0.48404,2.24997 0.55577,3.34357c0.02819,0.43851 0.11332,1.18619 -0.22983,1.24295c-0.58417,0.09672 -1.81287,-0.13732 -2.29527,-0.65722c-0.47933,-0.51698 -1.47084,-2.47589 -1.39049,-3.20748c0.15686,-1.30232 2.93,-1.78643 2.93,-1.78643z" fill="#f8f8f8" stroke="none" stroke-width="1.15102" stroke-linecap="round"/><path d="M244.86584,186.77164c-0.02418,-0.42791 -0.38169,-1.16494 0.05506,-1.63094c0.49611,-0.52934 0.92319,0.11856 0.92319,0.11856c0,0 0.14116,-0.62932 0.55204,-0.40734c0.39894,0.21553 0.4031,0.49792 0.45751,0.79936c0.09144,0.50652 -0.12822,1.37756 -0.11821,1.55457c0.05003,0.88514 0.37682,2.18821 -0.08752,2.21445c-0.12317,0.00696 -0.71663,-0.19807 -0.71663,-0.19807c0,0 -0.59247,0.52503 -0.80402,0.15608c-0.27444,-0.47863 -0.24066,-2.23941 -0.26141,-2.60667z" fill="#ffffff" stroke="none" stroke-width="0" stroke-linecap="butt"/></g><path d="M247.43395,187.35635c0.13406,1.37419 0.10753,2.16647 -0.24048,2.20041c-0.12685,0.01237 -0.07943,-0.72612 -0.21349,-2.1003c-0.13406,-1.37419 -0.1345,-2.44293 -0.00765,-2.4553c0.34802,-0.03395 0.32756,0.98101 0.46162,2.3552z" fill="#424242" stroke="none" stroke-width="0" stroke-linecap="butt"/><path d="M245.10043,186.54501c0.2319,0.451 0.0744,1.2097 -0.3455,1.4122c-0.6542,0.3237 -1.5113,0.1313 -2.1297,-0.1995c-0.3795,-0.1978 -0.5472,-0.6966 -0.5726,-1.1504c-0.0465,-0.8117 -0.0631,-1.7152 0.3326,-2.4196c0.1563,-0.2754 0.8034,-0.1828 1.004,0.0852c0.3591,0.4777 -0.0556,1.2983 0.3044,1.7794c0.3061,0.4074 1.1775,0.0537 1.4068,0.4927z" data-paper-data="{&quot;index&quot;:null}" fill="#e88820" stroke="none" stroke-width="0.49091" stroke-linecap="round"/><path d="M246.34763,187.17794c0.27487,0.42608 0.19239,1.19646 -0.20562,1.43913c-0.61944,0.38627 -1.49129,0.27864 -2.139,0.01001c-0.39698,-0.15978 -0.61277,-0.63972 -0.68246,-1.08886c-0.12568,-0.80325 -0.23066,-1.70076 0.09418,-2.44055c0.12859,-0.28934 0.78163,-0.26059 1.00751,-0.01342c0.40409,0.44018 0.07173,1.29745 0.47713,1.74106c0.34446,0.37545 1.17703,-0.06184 1.44827,0.35263z" data-paper-data="{&quot;index&quot;:null}" fill="#f8b820" stroke="none" stroke-width="0.49091" stroke-linecap="round"/><path d="M239.27226,187.95283c0.19482,-0.46474 0.37323,-0.95263 0.46917,-1.46253c0.12643,-0.67173 -0.17598,-1.50195 0.18251,-2.04799c0.22242,-0.33839 0.97203,-0.35702 1.10643,0.02863c0.27725,0.83641 -0.05179,1.83284 -0.18321,2.74759c-0.06117,0.42284 -0.13806,0.89246 -0.30092,1.30273c-0.22484,0.55935 -0.36897,1.39596 -0.88816,1.67015c-0.43392,0.22306 -1.20126,0.04756 -1.28625,-0.42946c-0.11383,-0.63782 0.63749,-1.18038 0.90043,-1.80912z" data-paper-data="{&quot;index&quot;:null}" fill="#089c4e" stroke="none" stroke-width="0.65663" stroke-linecap="round"/><path d="M235.78705,193.619c-0.30361,-0.40655 -0.50539,-0.39397 -0.3945,-0.79892c0.31857,-0.76648 1.00721,-0.39678 0.96084,-0.50844c-0.04609,-0.11032 -1.1135,0.96536 -1.63123,0.01665c-0.27308,-0.45292 0.94728,-1.39888 1.40196,-1.90672c0.16875,-0.17655 0.45366,-0.34723 0.69148,-0.62133c0.23782,-0.2741 0.24365,-0.48761 0.48367,-0.73311c0.24001,-0.2455 0.73581,-0.6598 0.87318,-0.65475c0.47415,0.06333 -0.0397,-0.10725 0.71097,0.17109c0.75068,0.27833 1.06116,0.4298 1.65443,0.75929c0.59327,0.32949 0.53983,0.09655 0.67869,0.40509c0.09856,0.21945 -0.21028,0.91737 -0.57317,1.28526c-0.3629,0.36788 -0.44126,0.78884 -0.61482,1.27242c-0.17356,0.48356 -0.02516,1.50075 -0.78006,2.35602c-0.42821,0.48581 -1.19392,0.32717 -1.94408,0.03653c-0.62978,-0.24446 -1.13685,-0.62039 -1.51736,-1.07907z" fill="#ffffff" stroke="none" stroke-width="0.67216" stroke-linecap="round"/><path d="M245.68486,175.14449c0,3.67923 -0.79915,6.36383 -1.15669,7.28335c-0.22267,0.57267 -0.30752,0.07576 -0.30752,0.07576c0,0 0.32063,-0.97151 0.32063,-6.9421c0,-2.00845 -2.15189,-4.30491 -2.3331,-5.04466c-0.19986,-0.81593 2.87875,-0.62371 2.87875,-0.62371c0,0 3.20894,-1.09532 3.11029,0.02077c-0.07905,0.89439 -2.51236,3.52196 -2.51236,5.2306z" data-paper-data="{&quot;index&quot;:null}" fill="#e2a026" stroke="none" stroke-width="0" stroke-linecap="butt"/><path d="M242.64847,175.35303c0,-1.70864 -1.66857,-4.05755 -1.76167,-4.95194c-0.11617,-1.11608 2.1755,-0.29943 2.1755,-0.29943c0,0 3.31872,-0.84244 3.08336,-0.02651c-0.21339,0.73975 -2.15048,3.68642 -2.15048,5.69487c0,5.9706 0.21456,6.84921 0.21456,6.84921c0,0 0.02724,0.49302 -0.26929,-0.21858c-0.40775,-0.9785 -1.29197,-3.5909 -1.29197,-7.04764z" fill="#e2a026" stroke="none" stroke-width="0" stroke-linecap="butt"/><path d="M263.30893,168.48403c0,2.86005 -8.50659,5.17857 -19,5.17857c-10.49341,0 -19,-2.31852 -19,-5.17857c0,-2.86005 8.50659,-5.17857 19,-5.17857c10.49341,0 19,2.31852 19,5.17857z" fill-opacity="0.90196" fill="#e3a127" stroke="none" stroke-width="0" stroke-linecap="butt"/><path d="M244.22572,185.86919c-0.27874,0.23923 -0.71876,0.62176 -1.22073,0.65269c-0.71255,0.04389 -1.54991,-0.33071 -2.22796,-0.33358c-1.06277,-0.002 -2.25525,0.0879 -3.16802,-0.2455c-0.91033,-0.3333 -1.36663,-1.0387 -1.84467,-1.6445c-0.12516,-0.1414 -0.22366,-0.3294 0.12041,-0.4909c1.37693,-0.6466 2.9161,-1.1758 4.49121,-1.62c0.87912,-0.2479 2.00463,-0.30531 2.94861,-0.17571c0.80528,0.1169 1.66449,0.51394 1.78555,0.92624c0.26941,1.1188 0.09096,2.09037 -0.88439,2.93127z" data-paper-data="{&quot;index&quot;:null}" fill="#089c4e" stroke="none" stroke-width="0.49091" stroke-linecap="round"/><path d="M243.04027,184.28486c0.12289,-0.88547 0.34511,-2.15789 0.64097,-2.15789c0.29586,0 -0.14129,1.37159 -0.26504,2.26316c-0.12375,0.89157 -0.06316,2.23308 -0.35902,2.23308c-0.29587,0 -0.13982,-1.45288 -0.01692,-2.33835z" fill="#000000" stroke="#000000" stroke-width="0" stroke-linecap="butt"/><path d="M238.84489,186.12632c0,-0.23545 0.19087,-0.42631 0.42631,-0.42631c0.23545,0 0.42632,0.19087 0.42632,0.42631c0,0.23545 -0.19087,0.42632 -0.42632,0.42632c-0.23545,0 -0.42631,-0.19087 -0.42631,-0.42632z" fill="#ffffff" stroke="none" stroke-width="0" stroke-linecap="butt"/><path d="M237.57822,185.99299c0,-0.23545 0.19087,-0.42632 0.42632,-0.42632c0.23545,0 0.42632,0.19087 0.42632,0.42632c0,0.23545 -0.19087,0.42631 -0.42632,0.42631c-0.23545,0 -0.42632,-0.19087 -0.42632,-0.42631z" fill="#ffffff" stroke="none" stroke-width="0" stroke-linecap="butt"/><path d="M234.41526,185.04437l0.64457,-0.376c0,0 1.43237,-0.42828 2.2103,-0.49052c0.96986,-0.07759 2.85498,0.72408 2.85498,0.72408l-1.40529,-0.13765l0.50356,1.67368l-1.74169,-1.04606l-1.55214,1.25561l-0.22515,-1.01229l-1.77074,1.24853l1.34103,-1.78567z" fill="#cf0000" stroke="none" stroke-width="0" stroke-linecap="butt"/><path d="M244.35369,185.86918c-0.68447,0.5788 -0.85729,0.52318 -0.85729,0.52318l0.5215,-4.20498c0,0 1.1105,0.33823 1.23337,0.75053c0.27343,1.1188 0.09232,2.09037 -0.89758,2.93127z" data-paper-data="{&quot;index&quot;:null}" fill="#f8b820" stroke="none" stroke-width="0.49091" stroke-linecap="round"/><g><path d="M248.85576,185.27713l0.82472,0.00913c0,0 1.36753,2.49252 1.79653,3.87316c0.35788,1.15174 0.62468,2.9124 0.64829,3.63358c0.04075,1.24518 -0.58432,1.04197 -0.58432,1.04197c0,0 -0.00699,-3.26874 -0.36854,-4.54466c-0.25773,-0.90966 -2.31669,-4.01316 -2.31669,-4.01316z" fill="#989898" stroke="#989898" stroke-width="0" stroke-linecap="round"/><path d="M247.60337,187.12202c0.09399,-0.5544 0.15973,-0.99086 0.57338,-1.43013c0.58806,-0.62445 0.98936,-0.43281 1.30364,-0.00929c0.6613,0.89169 1.35523,2.63873 1.35523,2.63873l-2.96129,1.86564c0,0 -0.41379,-2.21497 -0.27095,-3.06497z" fill="#f82020" stroke="none" stroke-width="1.13968" stroke-linecap="round"/><path d="M250.78192,188.24715c0,0 0.16757,0.10478 0.43581,1.06219c0.26824,0.95739 0.49666,2.24721 0.57453,3.34039c0.03065,0.43835 0.11998,1.18553 -0.22284,1.24421c-0.58361,0.1 -1.81361,-0.12713 -2.29893,-0.64433c-0.48224,-0.51427 -1.48471,-2.46758 -1.40848,-3.19962c0.14954,-1.30319 2.91992,-1.80285 2.91992,-1.80285z" fill="#f8f8f8" stroke="none" stroke-width="1.15102" stroke-linecap="round"/><path d="M245.78522,187.36868c-0.02659,-0.42778 -0.38823,-1.16277 0.04589,-1.63122c0.49313,-0.53211 0.92384,0.11338 0.92384,0.11338c0,0 0.13762,-0.63012 0.54974,-0.41043c0.40015,0.21328 0.40588,0.49566 0.46199,0.79677c0.09429,0.506 -0.12048,1.37825 -0.10948,1.55521c0.055,0.88485 0.3891,2.18606 -0.07509,2.21492c-0.12313,0.00765 -0.71774,-0.19405 -0.71774,-0.19405c0,0 -0.58951,0.52836 -0.80314,0.16059c-0.27713,-0.47709 -0.25322,-2.23803 -0.27605,-2.60516z" fill="#ffffff" stroke="none" stroke-width="0" stroke-linecap="butt"/></g><path d="M237.54033,172.66311c-0.07395,-0.02899 -1.49953,-0.4908 -2.35524,-1.0901c-1.35191,-0.94682 -2.33503,-2.18237 -2.33503,-2.18237c0,0 1.8673,1.26229 2.40849,1.4999c0.96313,0.42283 2.87519,0.81973 2.87519,0.81973c0,0 -1.67696,-0.40405 -2.43066,-0.77843c-0.63942,-0.31762 -1.80538,-1.32573 -1.80538,-1.32573c0,0 1.18169,0.47464 1.7159,0.63023c0.60714,0.17683 1.73623,0.37515 1.73623,0.37515c0,0 -0.80322,-0.25504 -1.28241,-0.49678c-0.4792,-0.24174 -0.98169,-0.64539 -0.98169,-0.64539c0,0 0.62703,0.09889 0.91134,0.11781c0.31706,0.02111 0.98679,-0.04067 0.98679,-0.04067c0,0 -0.65958,-0.2456 -1.0364,-0.48534c-0.37682,-0.23974 -0.87905,-0.73332 -0.87905,-0.73332c0,0 0.48868,0.04707 0.8025,0.05817c0.31381,0.01111 0.58936,-0.0089 0.58936,-0.0089c0,0 -0.36013,-0.13965 -0.554,-0.28698c-0.19387,-0.14732 -0.39662,-0.43535 -0.39662,-0.43535c0,0 0.35644,0.06269 0.51916,0.06779c0.2067,0.00648 0.62096,-0.03203 0.62096,-0.03203c0,0 -0.54829,-0.30098 -0.72139,-0.44178c-0.12875,-0.10472 -0.36575,-0.36204 -0.36575,-0.36204l0.59662,0.14608l-0.3278,-0.62098l0.9603,0.51912l-0.50453,0.32784l0.80886,0.54072l-0.74282,0.22918c0,0 0.18132,0.22394 0.32631,0.33459c0.14499,0.11065 0.44485,0.25393 0.44485,0.25393c0,0 -0.34607,0.09304 -0.5703,0.07878c-0.22423,-0.01426 -0.84292,-0.16863 -0.84292,-0.16863l1.07303,0.59657l1.49632,0.52755c0,0 -0.50384,0.17755 -0.83986,0.22401c-0.33603,0.04645 -1.04719,0.03686 -1.04719,0.03686c0,0 0.69612,0.26982 1.1487,0.4226c0.45258,0.15278 1.29883,0.40363 1.29883,0.40363c0,0 -0.78171,0.26873 -1.29449,0.23826c-0.51277,-0.03047 -1.64381,-0.41287 -1.64381,-0.41287c0,0 1.23821,0.62438 2.09307,0.82412c0.85486,0.19975 3.02776,0.3724 3.02776,0.3724c0,0 -1.66359,0.52013 -2.73273,0.38854c-1.06914,-0.13159 -3.2864,-1.12934 -3.2864,-1.12934c0,0 2.78132,1.26924 3.37614,1.36996c1.49435,0.25304 4.69013,-0.07393 4.69013,-0.07393c0,0 -2.56922,1.50861 -5.53039,0.34742z" fill="#dcdce1" stroke="none" stroke-width="0" stroke-linecap="butt"/><path d="M242.48473,172.16679c0.47618,1.42479 0.4,3.15 0.4,3.15c0,0 1.159,3.72333 -0.05,5.68333c-1.029,1.667 -3.651,1.626 -5.6,1.8c-1.574,0.141 -3.742,0.288 -4.65,-0.95c-1.073,-1.465 -0.464,-4.50967 -0.65,-6.31667c-0.069,-0.682 -0.59375,-1.54975 -0.86854,-2.75c-0.27479,-1.20025 -0.679,-2.26397 -0.35,-2.93764c0.146,-0.568 1.27256,0.40844 1.96854,0.95431c0.69598,0.54587 1.75033,1.42 2.43333,1.6c0.8,0.15 0.98833,0.308 1.78333,0.05c0.47,-0.152 3.50005,-3.71215 4.00805,-3.57715c0.603,0.161 1.0991,1.86903 1.57528,3.29382z" data-paper-data="{&quot;index&quot;:null}" fill="#f8b820" stroke="none" stroke-width="1" stroke-linecap="round"/><path d="M233.16123,179.3501c-0.0106,0.621 0.0515,1.319 -0.1765,1.85c-0.1398,0.324 -0.5944,0.61 -0.7059,0.3c-0.3282,-0.913 -0.2887,-2.023 -0.2823,-3.05c-0.0064,-0.564 -0.0149,-1.272 0.2823,-1.65c0.1991,-0.254 0.6544,-0.018 0.7765,0.3c0.2266,0.691 0.1186,1.503 0.1059,2.25z" data-paper-data="{&quot;index&quot;:null}" fill="#ffffff" stroke="none" stroke-width="0.86553" stroke-linecap="round"/><path d="M241.58316,174.65938c-0.11837,0.07265 -1.26277,-0.75934 -2.00088,-1.11208c-0.73811,-0.35274 -1.60174,-0.44973 -1.62826,-0.63523c-0.0653,-0.4913 0.75934,-1.02897 0.98074,-1.46671c0.2324,-0.45929 1.64226,-1.87092 1.91526,-1.76935c0.3074,0.1168 0.96933,4.83723 0.73313,4.98336z" data-paper-data="{&quot;index&quot;:null}" fill="#ffffff" stroke="none" stroke-width="0.85185" stroke-linecap="butt"/><path d="M237.71803,182.5049c-0.2622,0.437 -0.8782,0.3763 -1.3333,0.3668c-0.4907,-0.0272 -1.2364,0.0661 -1.4222,-0.4716c-0.4187,-1.2126 -0.1218,-2.6527 -0.0889,-3.9303c0.0142,-0.5481 -0.016,-1.133 0.2222,-1.6245c0.0418,-0.1887 0.2898,-0.1059 0.4889,-0.1048c0.2382,0.001 0.4524,0.0167 0.7111,0.1048c0.2667,0.0933 0.5413,0.2348 0.7556,0.4192c0.2942,0.2788 0.6302,0.5911 0.7555,0.9957c0.1929,0.6068 0.1911,1.2902 0.1778,1.9389c-0.016,0.7966 0.1129,1.6728 -0.2667,2.3058z" data-paper-data="{&quot;index&quot;:null}" fill="#ffffff" stroke="none" stroke-width="0.97175" stroke-linecap="round"/><path d="M243.31119,180.2953c-0.257,0.28 -1.53169,0.5382 -1.24569,0.6882c0.564,0.297 1.27528,-0.07041 1.27528,-0.07041c0,0 -0.46795,0.45108 -1.14195,0.98708c-0.12604,0.10016 1.50458,0.37052 1.50458,0.37052l-1.59292,0.95734l0.53194,0.83632c0,0 -2.22872,-0.3064 -2.5936,-0.11418c-0.40268,0.2119 -1.23734,0.68037 -2.10702,0.8659c-0.86968,0.18553 -2.08302,0.30186 -2.91571,0.2591c-0.75581,-0.0667 -1.83871,-0.39865 -2.66818,-1.1875c-0.514,-0.327 -0.87942,-1.65983 -0.44242,-1.97083c0.763,-0.543 2.08333,-0.31967 2.93333,0.13333c0.75158,0.40055 1.74833,0.48233 2.58333,0.33333c0.82,-0.134 1.428,-0.42033 2.1,-0.93333c1.016,-0.775 4.11803,-1.52487 3.77903,-1.15487z" data-paper-data="{&quot;index&quot;:null}" fill="#f8f8f8" stroke="none" stroke-width="1" stroke-linecap="round"/><path d="M232.6096,181.74737c0.35891,0 0.39298,0.07533 0.62833,0.19695c0.23536,0.12162 -0.26941,0.70806 -0.62833,0.70806c-0.35892,0 -1.038,-0.58644 -0.80265,-0.70806c0.23535,-0.12161 0.44373,-0.19695 0.80265,-0.19695z" data-paper-data="{&quot;index&quot;:null}" fill="#101010" stroke="none" stroke-width="1" stroke-linecap="butt"/><path d="M237.19993,183.97743l-1.7512,0.778" data-paper-data="{&quot;index&quot;:null}" fill="none" stroke="#cccccc" stroke-width="0.36953" stroke-linecap="round"/><path d="M235.80323,179.6626c0.105,0.241 0.1709,0.5722 0.1709,0.9384c0,0.3662 -0.0659,0.6974 -0.1709,0.9384c-0.1062,0.2399 -0.2516,0.3885 -0.413,0.3885c-0.1613,0 -0.3067,-0.1486 -0.4129,-0.3885c-0.1051,-0.241 -0.1709,-0.5722 -0.1709,-0.9384c0,-0.3662 0.0658,-0.6974 0.1709,-0.9384c0.1062,-0.2399 0.2516,-0.3885 0.4129,-0.3885c0.1614,0 0.3068,0.1486 0.413,0.3885z" fill="#4088ed" stroke="none" stroke-width="1.0615" stroke-linecap="butt"/><path d="M235.68063,179.94051c0.0711,0.1501 0.1146,0.3571 0.1146,0.5859c0,0.2288 -0.0435,0.4358 -0.1146,0.586c-0.0706,0.1501 -0.1682,0.243 -0.2762,0.243c-0.108,0 -0.2055,-0.0929 -0.2761,-0.243c-0.0711,-0.1502 -0.1146,-0.3572 -0.1146,-0.586c0,-0.2288 0.0435,-0.4358 0.1146,-0.5859c0.0706,-0.1502 0.1681,-0.243 0.2761,-0.243c0.108,0 0.2056,0.0928 0.2762,0.243z" fill="#000000" stroke="none" stroke-width="0.47368" stroke-linecap="butt"/><path d="M235.46013,180.04331c0.0323,0.0615 0.0524,0.1462 0.0524,0.24c0,0.0938 -0.0201,0.1785 -0.0524,0.24c-0.0317,0.0614 -0.0763,0.0996 -0.1255,0.0996c-0.0491,0 -0.0938,-0.0382 -0.1255,-0.0996c-0.0323,-0.0615 -0.0523,-0.1462 -0.0523,-0.24c0,-0.0938 0.02,-0.1785 0.0523,-0.24c0.0317,-0.0614 0.0764,-0.0996 0.1255,-0.0996c0.0492,0 0.0938,0.0382 0.1255,0.0996z" fill="#ffffff" stroke="none" stroke-width="0.64678" stroke-linecap="butt"/><path d="M232.98443,179.64459c0.0934,0.2142 0.1519,0.5085 0.1519,0.8341c0,0.3255 -0.0585,0.6199 -0.1519,0.8341c-0.0943,0.2132 -0.2236,0.3453 -0.367,0.3453c-0.1434,0 -0.2727,-0.1321 -0.3671,-0.3453c-0.0934,-0.2142 -0.1519,-0.5086 -0.1519,-0.8341c0,-0.3256 0.0585,-0.6199 0.1519,-0.8341c0.0944,-0.2133 0.2237,-0.3454 0.3671,-0.3454c0.1434,0 0.2727,0.1321 0.367,0.3454z" fill="#4088ed" stroke="none" stroke-width="0.94355" stroke-linecap="butt"/><path d="M232.81443,179.90819c0.0631,0.1335 0.1019,0.3175 0.1019,0.5208c0,0.2034 -0.0388,0.3874 -0.1019,0.5209c-0.0627,0.1335 -0.1495,0.216 -0.2455,0.216c-0.096,0 -0.1827,-0.0825 -0.2455,-0.216c-0.0631,-0.1335 -0.1019,-0.3175 -0.1019,-0.5209c0,-0.2033 0.0388,-0.3873 0.1019,-0.5208c0.0628,-0.1335 0.1495,-0.216 0.2455,-0.216c0.096,0 0.1828,0.0825 0.2455,0.216z" fill="#000000" stroke="none" stroke-width="0.42105" stroke-linecap="butt"/><path d="M232.58513,179.9997c0.0287,0.0546 0.0465,0.1299 0.0465,0.2132c0,0.0834 -0.0178,0.1587 -0.0465,0.2133c-0.0282,0.0547 -0.0679,0.0886 -0.1116,0.0886c-0.0437,0 -0.0833,-0.0339 -0.1115,-0.0886c-0.0288,-0.0546 -0.0466,-0.1299 -0.0466,-0.2133c0,-0.0833 0.0178,-0.1586 0.0466,-0.2132c0.0282,-0.0547 0.0678,-0.0886 0.1115,-0.0886c0.0437,0 0.0834,0.0339 0.1116,0.0886z" fill="#ffffff" stroke="none" stroke-width="0.57492" stroke-linecap="butt"/><path d="M234.04546,173.04555c0,0 -1.60784,0.81818 -1.90909,0.81818c-0.15444,0 -0.71022,-1.16834 -0.9232,-1.98157c-0.21299,-0.81322 -0.18916,-1.83661 -0.18916,-1.83661z" fill="#ffffff" stroke="none" stroke-width="0" stroke-linecap="butt"/><path d="M234.20457,175.76415l-2.475,1.68022l-1.37638,2.30737l0.83386,-3.14825l2.66086,-1.39433z" fill="#f8b820" stroke="none" stroke-width="1.22222" stroke-linecap="round"/><path d="M233.73741,175.18594l-2.39014,0.17982l-2.1999,2.02524c0,0 1.13909,-2.61297 1.52964,-2.84247c0.27395,-0.161 3.06483,-0.18538 3.06483,-0.18538z" fill="#f8b820" stroke="none" stroke-width="1.22222" stroke-linecap="round"/><path d="M234.00685,174.05119c0,0 -1.43759,-0.66713 -2.4231,-0.64021c-0.98551,0.02693 -4.23586,0.82212 -4.23586,0.82212c0,0 3.01884,-1.86533 3.68049,-1.87666c0.40116,-0.00685 3.39655,0.87792 3.39655,0.87792z" fill="#f8b820" stroke="none" stroke-width="1.22222" stroke-linecap="round"/><path d="M249.4575,163.99434c0.07544,0.02485 1.52444,0.40689 2.41207,0.95781c1.40234,0.87039 2.45246,2.04953 2.45246,2.04953c0,0 -1.93443,-1.15681 -2.48796,-1.36402c-0.98509,-0.36876 -2.91621,-0.65902 -2.91621,-0.65902c0,0 1.69679,0.31043 2.47009,0.64245c0.65606,0.28167 1.87611,1.22357 1.87611,1.22357c0,0 -1.20619,-0.40837 -1.74822,-0.53409c-0.61601,-0.14288 -1.75436,-0.2783 -1.75436,-0.2783c0,0 0.81613,0.21011 1.30799,0.4249c0.49186,0.2148 1.01597,0.58996 1.01597,0.58996c0,0 -0.63156,-0.06396 -0.91647,-0.06709c-0.31774,-0.00349 -0.98302,0.09533 -0.98302,0.09533c0,0 0.67219,0.20864 1.06172,0.42712c0.38954,0.21848 0.91836,0.68344 0.91836,0.68344c0,0 -0.49055,-0.01989 -0.8045,-0.01358c-0.31394,0.0063 -0.58796,0.04157 -0.58796,0.04157c0,0 0.36732,0.11947 0.56906,0.25581c0.20174,0.13634 0.42015,0.41269 0.42015,0.41269c0,0 -0.35937,-0.04283 -0.52213,-0.03891c-0.20675,0.00499 -0.61824,0.06642 -0.61824,0.06642c0,0 0.56415,0.27011 0.74478,0.40109c0.13436,0.09743 0.38525,0.3412 0.38525,0.3412l-0.6038,-0.11277l0.36172,0.60185l-0.98761,-0.46507l0.48558,-0.35531l-0.83761,-0.49503l0.72898,-0.27003c0,0 -0.19346,-0.21353 -0.34438,-0.31598c-0.1509,-0.10245 -0.45825,-0.22887 -0.45825,-0.22887c0,0 0.34039,-0.11208 0.56506,-0.11028c0.22468,0.0018 0.85097,0.12164 0.85097,0.12164l-1.10445,-0.53615l-1.52328,-0.44377c0,0 0.49321,-0.20521 0.82614,-0.27023c0.33293,-0.06502 1.04354,-0.09488 1.04354,-0.09488c0,0 -0.71001,-0.23081 -1.17036,-0.35825c-0.46035,-0.12745 -1.31921,-0.33098 -1.31921,-0.33098c0,0 0.76561,-0.31166 1.27928,-0.30968c0.51367,0.00199 1.66417,0.32108 1.66417,0.32108c0,0 -1.27093,-0.55476 -2.13555,-0.70679c-0.86462,-0.15203 -3.04375,-0.20393 -3.04375,-0.20393c0,0 1.63219,-0.61157 2.70699,-0.53948c1.07479,0.07209 3.34397,0.94537 3.34397,0.94537c0,0 -2.84742,-1.11305 -3.4469,-1.18064c-1.50609,-0.16978 -4.6788,0.3339 -4.6788,0.3339c0,0 2.48159,-1.64876 5.50261,-0.65356z" data-paper-data="{&quot;index&quot;:null}" fill="#dcdce1" stroke="none" stroke-width="0" stroke-linecap="butt"/><path d="M230.51874,165.67484c-0.14007,0.40217 -0.3128,1.15463 -0.3128,1.15463c0,0 0.19951,-0.53131 0.3788,-0.84517c0.17928,-0.31386 0.46826,-0.63775 0.46826,-0.63775c0,0 -0.08835,0.41827 -0.11099,0.60882c-0.02525,0.2125 -0.00702,0.66508 -0.00702,0.66508c0,0 0.18815,-0.43504 0.36252,-0.68012c0.17437,-0.24508 0.52382,-0.56565 0.52382,-0.56565c0,0 -0.04868,0.32703 -0.06709,0.53769c-0.01841,0.21067 -0.01455,0.39668 -0.01455,0.39668c0,0 0.10647,-0.23734 0.2123,-0.3626c0.10583,-0.12526 0.30662,-0.25157 0.30662,-0.25157c0,0 -0.05459,0.23754 -0.06369,0.3468c-0.01156,0.13879 -0.0001,0.41874 -0.0001,0.41874c0,0 0.22153,-0.35827 0.32226,-0.46978c0.07491,-0.08293 0.25624,-0.23337 0.25624,-0.23337l-0.11904,0.39617l0.42906,-0.19882l-0.3826,0.62776l-0.2029,-0.35074l-0.39185,0.52515l-0.12826,-0.50758c0,0 -0.15692,0.11415 -0.2364,0.20782c-0.07947,0.09365 -0.18628,0.29033 -0.18628,0.29033c0,0 -0.05052,-0.236 -0.03312,-0.3863c0.0174,-0.1503 0.14278,-0.56102 0.14278,-0.56102l-0.4386,0.70087l-0.40694,0.98796c0,0 -0.10186,-0.34504 -0.12139,-0.57265c-0.01953,-0.22761 0.0117,-0.70557 0.0117,-0.70557c0,0 -0.20573,0.45878 -0.32425,0.75783c-0.11853,0.29905 -0.31672,0.85947 -0.31672,0.85947c0,0 -0.15349,-0.5351 -0.11513,-0.87891c0.03836,-0.3438 0.33495,-1.09115 0.33495,-1.09115c0,0 0.35367,-0.53692 0.23042,-0.18305z" fill="#dcdce1" stroke="none" stroke-width="0" stroke-linecap="butt"/><path d="M238.51914,170.46549c0,0 1.12038,-0.99876 2.47218,-1.6499c1.11354,-0.53637 2.6272,-0.53097 3.41593,-0.53097c0.76881,0 1.22624,1.42218 1.59334,3.17888c0.4667,2.23335 0.58753,5.06382 0.58753,5.06382l-2.07692,-3.60864l-1.14246,0.98529l-0.9077,-1.33553c0,0 -1.21281,0.3165 -1.37499,0.3165c-0.66581,0 -0.29984,-1.87017 -0.29984,-1.87017l-1.58573,0.52439l-0.68134,-1.07368z" fill="#23d892" stroke="none" stroke-width="0" stroke-linecap="butt"/><path d="M236.35183,172.81154c-0.56901,-0.1497 0.69918,-1.33791 1.32279,-1.80238c0.62762,-0.46747 1.67422,-0.99543 1.67422,-0.99543l-0.24494,1.34303l2.12267,-0.64193c0,0 -0.0735,0.59096 -0.08873,0.97129c-0.01523,0.38033 0.00991,0.99685 0.00991,0.99685l1.87753,-0.49643l0.09369,1.58626l0.97224,-0.60602l-0.54073,1.54223c0,0 0.2481,1.07951 -0.21371,1.21336c-0.98164,0.2845 -1.99959,-1.16536 -3.60569,-1.77581c-1.80819,-0.68727 -0.73862,-0.64032 -3.37926,-1.33501z" fill="#fd0000" stroke="none" stroke-width="0" stroke-linecap="butt"/><g stroke-width="0" stroke-linecap="butt"><path d="M245.66835,176.84704c-0.05261,-0.47684 0.2913,-0.90604 0.76814,-0.95865c0.47684,-0.05261 0.90604,0.2913 0.95865,0.76814c0.05261,0.47684 -0.2913,0.90604 -0.76814,0.95865c-0.47684,0.05261 -0.90604,-0.2913 -0.95865,-0.76814z" fill="#db7b04" stroke="none"/><path d="M247.47773,176.6165c0.01808,0.16385 -0.4761,0.16315 -0.9373,0.21404c-0.4612,0.05088 -0.90846,0.21328 -0.92654,0.04943c-0.02753,-0.24956 0.42686,-0.34736 0.88805,-0.39825c0.4612,-0.05088 0.9451,-0.14334 0.97578,0.13478z" fill="#feeb00" stroke="#000000"/><path d="M246.66819,177.53952c0.01986,0.18006 -0.09395,0.08009 -0.18399,0.09002c-0.09003,0.00993 -0.26147,-0.35023 -0.28134,-0.53029c-0.01986,-0.18006 0.17651,-0.11812 0.26655,-0.12805c0.09003,-0.00993 0.17892,0.38826 0.19878,0.56832z" fill="#000000" stroke="none"/><path d="M247.12814,176.90556c0.04733,-0.00522 0.13522,-0.08484 0.14915,0.04138c0.01393,0.12622 -0.05453,0.38194 -0.10187,0.38717c-0.04734,0.00522 -0.09385,-0.06431 -0.10777,-0.19053c-0.01393,-0.12622 0.01315,-0.2328 0.06049,-0.23802z" fill="#000000" stroke="none"/></g><path d="M247.94293,187.87023c0.1129,1.37609 0.07418,2.16787 -0.27431,2.19645c-0.12703,0.01042 -0.06825,-0.72726 -0.18115,-2.10334c-0.1129,-1.37609 -0.09689,-2.44471 0.03013,-2.45513c0.3485,-0.02859 0.31243,0.98593 0.42533,2.36202z" fill="#424242" stroke="none" stroke-width="0" stroke-linecap="butt"/></g></g></svg>