<svg version="1.1" xmlns="http://www.w3.org/2000/svg" xmlns:xlink="http://www.w3.org/1999/xlink" width="37.63828" height="49.69296" viewBox="0,0,37.63828,49.69296"><defs><radialGradient cx="225.68518" cy="164.46512" r="15.77076" gradientUnits="userSpaceOnUse" id="color-1"><stop offset="0" stop-color="#fadd00" stop-opacity="0.50196"/><stop offset="1" stop-color="#fbdd00"/></radialGradient></defs><g transform="translate(-212.13107,-148.69436)"><g data-paper-data="{&quot;isPaintingLayer&quot;:true}" fill-rule="nonzero" stroke-miterlimit="10" stroke-dasharray="" stroke-dashoffset="0" style="mix-blend-mode: normal"><path d="M212.27572,179.05775c-0.17374,-23.9361 11.53157,-30.36339 26.77112,-30.36339c0.8172,0 -8.64824,7.34858 -13.04758,14.95657c-4.13765,7.15543 -3.20242,14.59803 -3.20242,14.59803c0,0 -10.11917,3.86929 -10.52112,0.80879z" fill="url(#color-1)" stroke="none" stroke-width="NaN" stroke-linecap="butt" stroke-linejoin="miter"/><g data-paper-data="{&quot;index&quot;:null}" stroke-width="0" stroke-linecap="butt" stroke-linejoin="miter"><g data-paper-data="{&quot;index&quot;:null}"><path d="M226.28197,171.24805c-0.41845,-0.97768 0.03784,-2.11072 1.01911,-2.5307c0.98128,-0.41999 2.11597,0.03212 2.53442,1.00979c0.41845,0.97768 -0.03782,2.11071 -1.01909,2.53069c-0.98128,0.41999 -2.11599,-0.03211 -2.53444,-1.00979z" fill="#e0cb17" stroke="none"/><path d="M227.14586,171.56918c-0.25852,-0.60401 0.02335,-1.304 0.6296,-1.56347c0.60625,-0.25947 1.30725,0.01983 1.56577,0.62385c0.25852,0.60401 -0.02335,1.304 -0.6296,1.56347c-0.60625,0.25947 -1.30726,-0.01984 -1.56577,-0.62385z" fill="#e0cb17" stroke="#000000"/><path d="M228.27005,175.10185c-0.72326,-0.81459 -0.43246,-2.13262 -0.43246,-2.13262l1.9277,-0.84123c0,0 0.22075,0.12635 1.03893,1.19263c0.84952,1.10715 0.39961,3.43982 0.39961,3.43982c0,0 -2.21051,-0.84401 -2.93378,-1.6586z" fill="#e8edf4" stroke="#000000"/><path d="M228.92108,172.75042c-0.46912,0.20325 -1.37158,0.27368 -1.37158,0.27368l-0.06788,-0.71216c0,0 0.73694,0.12455 1.16459,-0.03048c0.42764,-0.15502 0.88348,-0.71195 0.88348,-0.71195l0.45232,0.33929c0,0 -0.52493,0.60936 -1.06094,0.8416z" fill="#dbded5" stroke="#000000"/></g><g data-paper-data="{&quot;index&quot;:null}" stroke="none"><path d="M235.96618,173.81629c0.18495,-0.07916 0.46808,0.16789 0.63239,0.55179c0.16431,0.38391 0.14759,0.75929 -0.03737,0.83845c-0.18495,0.07916 -0.4681,-0.16789 -0.63241,-0.55178c-0.16431,-0.38391 -0.14758,-0.75929 0.03738,-0.83845z" fill="#000000"/><path d="M239.33379,178.11276c0.19266,-0.08246 1.12357,0.50358 1.19587,0.6725c0.0723,0.16892 0.22379,1.41753 0.03114,1.49998c-0.19266,0.08246 -1.28906,0.18983 -1.28906,0.18983c0,0 -0.1306,-2.27988 0.06205,-2.36233z" fill="#807d5a"/><path d="M229.80209,171.25913l0.06143,-0.19078l6.79506,3.50687l0.02994,0.32714z" fill="#6e6e73"/><path d="M232.16017,172.1141l-0.15213,0.41603l-1.61459,-0.78938l0.18004,-0.42797z" fill="#ddcb1e"/></g></g><g data-paper-data="{&quot;index&quot;:null}" stroke-width="0" stroke-linecap="butt" stroke-linejoin="miter"><g data-paper-data="{&quot;index&quot;:null}"><path d="M246.63797,166.29472c-1.25882,0.53877 -2.71445,-0.04118 -3.25125,-1.29538c-0.53679,-1.25419 0.04851,-2.70769 1.30734,-3.24647c1.25882,-0.53877 2.71446,0.04119 3.25126,1.29539c0.53679,1.25419 -0.04853,2.70769 -1.30734,3.24646z" fill="#e0cb17" stroke="none"/><path d="M246.67061,166.14008c-0.77769,0.33285 -1.67699,-0.02546 -2.00862,-0.8003c-0.33164,-0.77485 0.02997,-1.67281 0.80767,-2.00567c0.77769,-0.33285 1.67699,0.02544 2.00863,0.80029c0.33164,0.77485 -0.02997,1.67282 -0.80768,2.00568z" fill="#e0cb17" stroke="#000000"/><path d="M249.76135,168.30632c0.11547,1.39266 -1.05886,4.1917 -1.05886,4.1917c0,0 -2.56338,-1.64827 -2.83856,-3.41719c-0.26503,-1.70365 -0.1868,-2.02043 -0.1868,-2.02043l2.48793,-1.04409c0,0 1.48081,0.89735 1.59629,2.29002z" fill="#e8edf4" stroke="#000000"/><path d="M247.00246,166.82806c-0.69022,0.29182 -1.72065,0.23932 -1.72065,0.23932l0.08568,-0.72028c0,0 0.92058,0.07017 1.44319,-0.18943c0.5226,-0.2596 1.05964,-1.05387 1.05964,-1.05387l0.60083,0.69371c0,0 -0.86459,0.77518 -1.46868,1.03057z" fill="#dbded5" stroke="#000000"/></g><g data-paper-data="{&quot;index&quot;:null}" stroke="none"><path d="M243.9159,176.1083c0.35609,0.309 0.89835,1.99998 0.89835,1.99998l-2.8564,1.24364c0,0 -1.44062,-0.78556 -1.70747,-2.22001c-0.19617,-1.05452 0.71479,-2.85607 0.89662,-2.94044c1.17152,-0.54362 2.4128,1.60783 2.76889,1.91684z" fill="#e4dcaa"/><path d="M242.56372,175.0184c0.21078,0.49249 0.18933,0.97405 -0.04794,1.07559c-0.23726,0.10155 -0.60049,-0.21536 -0.81127,-0.70785c-0.21078,-0.49249 -0.18932,-0.97405 0.04796,-1.0756c0.23726,-0.10155 0.60047,0.21536 0.81126,0.70786z" fill="#000000"/><path d="M245.53365,180.1762c0.19794,0.83717 0.30713,2.26955 0.30713,2.26955l-0.89549,0.90833c0,0 -1.53868,0.03378 -1.81805,-0.68491c-0.13871,-0.35686 -1.12459,-3.18486 -1.12459,-3.18486l0.82308,-1.206c0,0 0.57498,-0.19004 0.95223,-0.2346c0.37726,-0.04457 1.03378,0.04997 1.03378,0.04997c0,0 0.52395,1.24537 0.72189,2.08254z" fill="#dfcc17"/><path d="M245.005,183.27551c0,0 -1.07064,0.92246 -1.31779,1.02824c-0.24715,0.10578 -1.27183,-1.14062 -1.36457,-1.35731c-0.09275,-0.2167 0.18777,-1.59968 0.43493,-1.70546c0.24715,-0.10578 2.24742,2.03452 2.24742,2.03452z" fill="#807d5a"/><path d="M242.1207,175.94277l-0.27709,-0.3175l2.76307,-9.41218l0.23147,0.11195z" fill="#6e6e73"/><path d="M244.20478,167.08849l0.55665,0.21192l-0.69729,2.19758l-0.52085,-0.22725z" fill="#ddcb1e"/></g></g><g data-paper-data="{&quot;index&quot;:null}" stroke="none" stroke-width="0" stroke-linecap="butt" stroke-linejoin="miter"><g><path d="M240.7119,191.2609c0,0 1.42074,0.70986 0.99628,1.98548c-0.03945,0.11853 -0.30234,0.03047 -0.30234,0.03047l0.15789,0.34294l-0.43062,0.65701l-0.18775,-0.15813c0,0 -0.78391,0.54713 -1.0329,0.8917c-0.24828,0.3436 -0.45887,1.17286 -0.45887,1.17286l0.0372,0.2037l-0.48783,0.62348l-0.1428,-0.10792l-0.1689,0.15653c0,0 0.19718,0.22063 -0.2317,0.42644c-0.1378,0.06613 -0.54681,0.35344 -0.54681,0.35344l-0.1063,-0.14443l-0.17058,0.02866c0,0 0.05551,0.26747 -0.07941,0.28936c-0.16175,0.02623 -0.55089,0.17657 -0.82045,0.18497c-0.10442,0.00326 0.02451,-0.10919 -0.07666,-0.11388c-0.0659,-0.00304 -0.09195,0.02522 -0.1612,0.02279c-0.11221,-0.00393 0.01687,0.09105 -0.06474,0.11478c-0.06676,0.01941 -0.26265,-0.00593 -0.42802,-0.03607c-0.16536,-0.03013 -0.32048,-0.1114 -0.32048,-0.1114l-0.01985,-0.17382l-0.25877,0.02279c0,0 -0.28006,-0.22116 -0.35623,-0.42313c-0.07617,-0.20197 0.00017,-0.52092 0.00017,-0.52092c0,0 0.55289,0.32562 0.92756,0.38635c3.2816,-0.21339 3.07272,-1.94117 3.83903,-3.69259c0.35368,-0.80832 0.8194,-1.05991 0.94468,-1.61221c0.10283,-0.45334 -0.04964,-0.7993 -0.04964,-0.7993z" data-paper-data="{&quot;index&quot;:null}" fill="#a87643"/><path d="M237.52704,192.674c0.01744,-1.02095 0.07674,-4.5033 0.33573,-4.67605c0.34241,-0.20976 2.13952,-0.40618 2.13952,-0.40618c0,0 0.06139,0.69118 0.05701,1.0993c-0.00438,0.4081 0.04274,1.66337 0.04274,1.66337c0,0 0.91138,1.05596 0.74987,1.72556c-0.21659,0.89787 -2.27485,3.09271 -2.27485,3.09271c0,0 -1.08046,-0.71575 -1.05,-2.49869z" data-paper-data="{&quot;index&quot;:null}" fill="#fc6293"/><path d="M238.49519,187.34472c0.20592,0.19749 -0.57498,0.6194 -0.57498,0.6194c0,0 -0.16846,0.20169 -0.18619,0.51239c-0.02914,0.51117 0.00744,1.27754 -0.06601,2.06374c-0.08361,0.89516 -0.1284,1.93038 -0.07744,2.45474c0.06289,0.64692 0.68768,1.9569 1.04321,2.03456c0.03481,0.0076 0.13083,-0.28079 0.17501,-0.47479c0.15908,-0.50529 0.04539,-0.37427 0.3169,-1.03399c0.22947,-0.52685 0.76059,0.07102 0.76059,0.07102c0,0 -0.6536,3.15631 -2.56,3.81c-1.4371,0.49275 -2.27134,-0.36481 -2.27875,-0.37022c-0.01325,-0.0097 -0.20914,-1.04902 -0.08298,-1.74174c0.03507,-0.19257 0.89449,-0.97847 1.08264,-1.82662c0.17507,-0.78921 0.52925,-2.11021 0.6217,-2.99988c0.16561,-1.5936 -0.00983,-2.88508 0.20974,-2.9757c0.73294,-0.3025 1.48852,-0.26567 1.61656,-0.14287z" data-paper-data="{&quot;index&quot;:null}" fill="#f3e2e2"/><path d="M235.99873,193.66289c0,0 0.41981,-2.11151 0.53199,-2.72973c0.15528,-0.85577 0.13079,-1.69038 0.16932,-3.1662c0.00671,-0.25677 0.41021,-0.40322 0.41021,-0.40322l0.11026,0.08072c0,0 -0.35425,0.17022 -0.38234,0.36893c-0.05583,0.39499 -0.07401,1.86359 -0.15005,3.0535c-0.05764,0.90194 -0.40458,2.21419 -0.40458,2.21419z" data-paper-data="{&quot;index&quot;:null}" fill="#bfa4a4"/><path d="M238.43816,191.49038l-0.0264,-1.21612l0.63775,0.00148l-0.02124,1.18123z" data-paper-data="{&quot;index&quot;:null}" fill="#fffff6"/><path d="M238.57336,189.67427l0.06913,-1.01466l0.57179,-0.01428l-0.01114,0.96346z" data-paper-data="{&quot;index&quot;:null}" fill="#fffff6"/><path d="M236.70543,189.19564l-0.03467,-0.91571c0,0 0.60513,0.2766 1.01878,0.35556c0.41364,0.07897 0.94188,0.01872 0.94188,0.01872l-0.0544,1.01399c0,0 -0.73367,-0.01399 -1.19564,-0.15793c-0.46198,-0.14394 -0.67596,-0.31462 -0.67596,-0.31462z" data-paper-data="{&quot;index&quot;:null}" fill="#754c86"/><path d="M237.4712,191.47364c-0.40295,-0.04776 -0.98713,-0.22384 -0.98713,-0.22384c0,0 0.06308,-0.39109 0.09623,-0.64242c0.03316,-0.25133 0.08423,-0.7256 0.08423,-0.7256c0,0 0.61749,0.24467 0.99493,0.32709c0.37745,0.08242 0.80051,0.0731 0.80051,0.0731l0.00687,1.22413c0,0 -0.59271,0.01529 -0.99566,-0.03247z" data-paper-data="{&quot;index&quot;:null}" fill="#754c86"/><path d="M239.81001,187.635l-1.59905,-0.36529c0,0 0.0948,-0.04141 0.44311,0.00888c0.34832,0.05028 0.67835,0.06408 0.80712,0.08915c0.21274,0.04145 0.52265,0.23147 0.52265,0.23147z" data-paper-data="{&quot;index&quot;:null}" fill="#ae8484"/><path d="M237.24339,187.61146c0.00726,-0.20096 0.40542,-0.31196 1.26088,-0.28109c0.85545,0.03088 1.28931,0.30953 1.28931,0.30953c0,0 -0.68512,0.11058 -1.04039,0.15034c-0.72528,0.09165 -0.62795,0.15817 -1.00994,0.12613c-0.38199,-0.03204 -0.50376,-0.14576 -0.49836,-0.29528z" data-paper-data="{&quot;index&quot;:null}" fill="#532c31"/></g><path d="M238.39624,187.26683c0,0 0.16876,-0.71683 0.47261,-0.90548c0.30386,-0.18864 0.68541,-0.25469 0.83731,0.09224c0.15189,0.34693 -0.38445,0.92323 -0.38445,0.92323z" fill="#fc6293"/></g><g data-paper-data="{&quot;index&quot;:null}" stroke="none" stroke-width="0" stroke-linecap="butt" stroke-linejoin="miter"><path d="M239.69582,182.34l-0.42735,3.43681l-0.37451,2.06796l-1.20332,0.12901l0.22659,-1.91565l0.50991,-3.71231z" data-paper-data="{&quot;index&quot;:null}" fill="#8e5173"/><path d="M239.32526,185.2838l-0.05681,0.493l-0.37451,2.06796l-1.20332,0.12901l0.22659,-1.91565l0.11892,-0.75263z" data-paper-data="{&quot;index&quot;:null}" fill="#a71e48"/><path d="M237.99234,185.57223l0.03434,-0.27293l1.29054,-0.01697l-0.01628,0.2589z" fill="#a19589"/><path d="M237.93172,186.05387l0.03434,-0.27293l1.29054,-0.01697l-0.01628,0.2589z" fill="#a19589"/></g><path d="M242.16433,181.52308l1.43039,0.12265l2.84501,-0.14602c0,0 -1.97535,1.0126 -2.86652,1.0934c-0.8201,0.07435 -2.7254,-0.86829 -2.7254,-0.86829z" data-paper-data="{&quot;index&quot;:null}" fill="#f79db4" stroke="none" stroke-width="0" stroke-linecap="butt" stroke-linejoin="miter"/><g data-paper-data="{&quot;index&quot;:null}" stroke="none" stroke-width="0" stroke-linecap="butt" stroke-linejoin="miter"><path d="M243.37461,186.56986c0,0 0.05584,-0.7343 0.32687,-0.96769c0.27102,-0.23338 0.63777,-0.35764 0.84149,-0.03839c0.20374,0.31926 -0.237,0.97159 -0.237,0.97159z" fill="#f3e2e2"/><g><path d="M246.38369,189.78339c0,0 1.66265,0.14654 1.73924,1.55732c0.00711,0.13107 -0.28385,0.1463 -0.28385,0.1463l0.28654,0.27444l-0.16783,0.80832l-0.24449,-0.08226c0,0 -0.55562,0.83703 -0.66626,1.2699c-0.11033,0.43163 0.00335,1.32358 0.00335,1.32358l0.11488,0.18482l-0.2367,0.7976l-0.1812,-0.05049l-0.10481,0.21815c0,0 0.27782,0.1397 -0.0622,0.50623c-0.10925,0.11775 -0.39844,0.55629 -0.39844,0.55629l-0.15958,-0.10024l-0.15574,0.09375c0,0 0.15735,0.24012 0.03387,0.31352c-0.14802,0.08798 -0.47058,0.38493 -0.7309,0.49704c-0.10084,0.04342 -0.01812,-0.11621 -0.11886,-0.08181c-0.06561,0.02241 -0.08019,0.06008 -0.14882,0.0844c-0.11122,0.03938 0.0516,0.08251 -0.01906,0.13717c-0.05779,0.0447 -0.2591,0.09543 -0.43239,0.1297c-0.17329,0.03427 -0.35627,0.01457 -0.35627,0.01457l-0.0864,-0.16229l-0.24421,0.122c0,0 -0.35905,-0.10831 -0.51136,-0.27642c-0.15231,-0.16811 -0.20058,-0.5094 -0.20058,-0.5094c0,0 0.66606,0.10532 1.05578,0.02029c3.1263,-1.47325 2.25623,-3.08208 2.33054,-5.08979c0.0343,-0.9266 0.39269,-1.35207 0.30235,-1.94035c-0.07416,-0.48287 -0.35654,-0.76237 -0.35654,-0.76237z" data-paper-data="{&quot;index&quot;:null}" fill="#a87643"/><path d="M243.81431,192.39235c-0.37639,-1.00493 -1.66041,-4.43259 -1.47373,-4.70129c0.25395,-0.33704 1.93533,-1.22165 1.93533,-1.22165c0,0 0.32639,0.65214 0.47937,1.05285c0.15298,0.4007 0.6828,1.60983 0.6828,1.60983c0,0 1.29802,0.68122 1.39814,1.39815c0.13425,0.96133 -1.03234,3.90049 -1.03234,3.90049c0,0 -1.33222,-0.28343 -1.98953,-2.03841z" data-paper-data="{&quot;index&quot;:null}" fill="#f3e2e2"/><path d="M242.70725,186.80868c0.27744,0.11374 -0.32348,0.82718 -0.32348,0.82718c0,0 -0.08699,0.26212 0.01542,0.57272c0.16849,0.51101 0.49959,1.24622 0.73077,2.04321c0.26322,0.90745 0.61774,1.94824 0.86965,2.4413c0.31079,0.60827 1.4271,1.63693 1.80465,1.57585c0.03695,-0.00597 0.01971,-0.32496 -0.01187,-0.53166c-0.03918,-0.55535 -0.09986,-0.38342 -0.08863,-1.13309c0.02134,-0.60355 0.77103,-0.22367 0.77103,-0.22367c0,0 0.5773,3.33789 -1.03474,4.7117c-1.21519,1.03559 -2.36134,0.51863 -2.37067,0.51618c-0.0167,-0.00438 -0.60874,-0.94505 -0.75235,-1.67096c-0.03992,-0.2018 0.49749,-1.30138 0.35461,-2.20317c-0.13296,-0.83909 -0.29576,-2.26718 -0.54821,-3.17266c-0.45221,-1.62193 -1.12145,-2.81705 -0.94168,-2.99027c0.60005,-0.57821 1.35299,-0.8334 1.52551,-0.76267z" data-paper-data="{&quot;index&quot;:null}" fill="#fc6293"/><path d="M242.70121,193.94817c0,0 -0.40325,-2.22628 -0.5318,-2.87395c-0.17796,-0.89654 -0.52355,-1.70313 -1.05461,-3.16094c-0.0924,-0.25362 0.24567,-0.5523 0.24567,-0.5523l0.13891,0.03643c0,0 -0.28075,0.30294 -0.23164,0.50805c0.09763,0.4077 0.6458,1.85061 1.03001,3.04331c0.29122,0.90406 0.4577,2.32079 0.4577,2.32079z" data-paper-data="{&quot;index&quot;:null}" fill="#766565"/><path d="M244.24903,190.88397l-0.49446,-1.17886l0.62412,-0.24434l0.43444,1.16312z" data-paper-data="{&quot;index&quot;:null}" fill="#fffff6"/><path d="M243.68136,189.0562l-0.32342,-1.01872l0.55356,-0.23432l0.36039,0.94628z" data-paper-data="{&quot;index&quot;:null}" fill="#fffff6"/><path d="M241.28386,188.42612c0,0 0.69825,0.03725 1.13311,-0.04495c0.43486,-0.0822 0.92812,-0.34467 0.92812,-0.34467l0.33756,1.01236c0,0 -0.72272,0.26905 -1.22987,0.30634c-0.50717,0.03729 -0.78214,-0.04711 -0.78214,-0.04711z" data-paper-data="{&quot;index&quot;:null}" fill="#754c86"/><path d="M242.24578,191.40179c0,0 -0.08904,-0.40669 -0.15348,-0.6652c-0.06443,-0.25851 -0.19727,-0.74191 -0.19727,-0.74191c0,0 0.69803,0.00126 1.09882,-0.06362c0.40079,-0.06488 0.81086,-0.23702 0.81086,-0.23702l0.47846,1.19422c0,0 -0.57362,0.24336 -0.98599,0.35194c-0.41237,0.10859 -1.0514,0.16155 -1.0514,0.16155z" data-paper-data="{&quot;index&quot;:null}" fill="#754c86"/><path d="M244.10459,186.58578l-1.7042,0.25906c0,0 0.07672,-0.07703 0.43667,-0.16209c0.35994,-0.08506 0.68795,-0.19877 0.82351,-0.22387c0.22397,-0.04145 0.60021,0.0249 0.60021,0.0249z" data-paper-data="{&quot;index&quot;:null}" fill="#ae8484"/><path d="M241.58607,187.55187c-0.07035,-0.19928 0.27616,-0.46125 1.12446,-0.76074c0.8483,-0.29947 1.37987,-0.19421 1.37987,-0.19421c0,0 -0.62725,0.37216 -0.95929,0.54793c-0.67382,0.36911 -0.55302,0.39662 -0.93884,0.5125c-0.38583,0.11588 -0.54871,0.05164 -0.60106,-0.09665z" data-paper-data="{&quot;index&quot;:null}" fill="#532c31"/></g></g><g data-paper-data="{&quot;index&quot;:null}" stroke="none" stroke-width="0" stroke-linecap="butt" stroke-linejoin="miter"><path d="M242.01825,182.22359l1.05403,3.62679l0.35115,1.13604l-1.27446,0.74351l-0.39698,-1.44678l-1.06706,-4.00071z" data-paper-data="{&quot;index&quot;:null}" fill="#8e5173"/><path d="M242.71406,184.6333l0.35828,1.21707l0.35115,1.13604l-1.27446,0.74351l-0.39698,-1.44678l-0.31412,-1.24725z" data-paper-data="{&quot;index&quot;:null}" fill="#c5c0b5"/><path d="M242.71406,184.6333l0.0626,0.22775l-1.27676,0.43438l-0.06195,-0.25954z" data-paper-data="{&quot;index&quot;:null}" fill="#af2753"/><path d="M242.84883,185.10662l0.06261,0.22776l-1.27676,0.43437l-0.06195,-0.25954z" data-paper-data="{&quot;index&quot;:null}" fill="#af2753"/></g><path d="M237.56701,183.81006c0,0 1.83032,0.58539 3.96487,-0.22886c2.46456,-0.98659 3.53464,-2.74306 3.53464,-2.74306l0.37798,0.24862c0,0 -1.46228,1.72019 -3.80358,2.80956c-2.02038,0.77713 -4.10864,0.34426 -4.10864,0.34426z" data-paper-data="{&quot;index&quot;:null}" fill="#ee3377" stroke="none" stroke-width="0" stroke-linecap="butt" stroke-linejoin="miter"/><path d="M241.39078,178.70004l1.81307,1.06178l1.92463,1.13765c0,0 -0.83986,1.31041 -3.11605,2.54741c-1.75728,0.92275 -4.44526,0.43925 -4.44526,0.43925l0.57406,-3.76295z" data-paper-data="{&quot;index&quot;:null}" fill="#fcf4f4" stroke="none" stroke-width="0" stroke-linecap="butt" stroke-linejoin="miter"/><path d="M237.66156,183.35384c0,0 1.34741,0.71713 3.57952,-0.13595c2.46456,-0.98659 3.40303,-2.60183 3.40303,-2.60183l0.12882,0.07829c0,0 -0.71327,1.3838 -3.46309,2.66383c-2.02037,0.77712 -3.67354,0.16096 -3.67354,0.16096z" data-paper-data="{&quot;index&quot;:null}" fill="#ee3377" stroke="none" stroke-width="0" stroke-linecap="butt" stroke-linejoin="miter"/><g data-paper-data="{&quot;index&quot;:null}" stroke="none" stroke-width="0" stroke-linecap="butt" stroke-linejoin="miter"><path d="M243.62304,184.50073l-3.29407,-5.48066l1.99283,0.05452l4.92522,1.5682c0,0 -0.82902,1.66293 -1.65918,2.34753c-0.83016,0.6846 -1.96481,1.51041 -1.96481,1.51041z" fill="#fab5b7"/><path d="M247.22249,180.6442l0.57213,0.14167c0,0 -0.91009,1.51835 -1.67984,2.33581c-0.76975,0.81747 -2.2772,1.86656 -2.2772,1.86656l-0.2302,-0.52348c0,0 1.42804,-0.93417 2.17079,-1.71913c0.74275,-0.78496 1.44433,-2.10142 1.44433,-2.10142z" fill="#fed000"/></g><path d="M238.66757,180.31573l0.16436,-0.60208l1.49012,-0.51335l0.58313,0.38583z" data-paper-data="{&quot;index&quot;:null}" fill="#aa4455" stroke="none" stroke-width="0" stroke-linecap="butt" stroke-linejoin="miter"/><path d="M237.94318,178.34491c-0.11163,-0.61341 0.07862,-1.56033 0.07862,-1.56033c0,0 0.66143,-0.20549 1.08563,-0.39003c0.4242,-0.18454 1.05464,-0.54107 1.05464,-0.54107l0.93198,2.0606l0.54329,0.85212l-3.1711,1.15835c0,0 -0.41143,-0.96623 -0.52306,-1.57964z" data-paper-data="{&quot;index&quot;:null}" fill="#6d3b75" stroke="none" stroke-width="0" stroke-linecap="butt" stroke-linejoin="miter"/><path d="M238.04152,180.13808l-0.09108,-1.19753c0,0 -0.44388,-1.08359 -0.54382,-1.65451c0.03231,-0.11499 0.1783,-0.10901 0.1783,-0.10901c0,0 -0.08271,0.38032 -0.04636,0.43988c0.11509,0.18855 0.06541,0.30048 0.24779,0.3496c0.83237,0.22418 1.01987,0.46563 1.01987,0.46563c0,0 0.05081,0.18181 0.07101,0.27437c0.11283,0.51704 -0.07662,1.67548 -0.07662,1.67548z" data-paper-data="{&quot;index&quot;:null}" fill="#efe6e6" stroke="none" stroke-width="0" stroke-linecap="butt" stroke-linejoin="miter"/><path d="M240.86744,179.74172c0,0 -0.87655,-0.66521 -1.17271,-1.10377c-0.05302,-0.07851 -0.14948,-0.24079 -0.14948,-0.24079c0,0 -0.04524,-0.30234 0.3672,-1.05929c0.09037,-0.16586 0.12003,-0.30672 0.06307,-0.52015c-0.01799,-0.06742 -0.30545,-0.25546 -0.32928,-0.31491c-0.11652,-0.29062 0.03585,-0.39214 0.03585,-0.39214c0,0 0.44067,-0.31333 0.54617,-0.25732c0.4053,0.21517 0.92341,2.03608 0.92341,2.03608l1.19494,1.19021z" data-paper-data="{&quot;index&quot;:null}" fill="#efe6e6" stroke="none" stroke-width="0" stroke-linecap="butt" stroke-linejoin="miter"/><path d="M239.58159,176.44952c0,0 0.49549,0.39597 0.38961,0.83433c-0.06529,0.24339 -0.20996,0.49743 -0.33157,0.76268c-0.08408,0.1834 -0.14997,0.37439 -0.14997,0.37439c0,0 -0.24654,-0.81683 -0.30471,-1.11969c-0.07085,-0.3689 -0.11452,-0.79482 -0.03841,-0.91492c0.05793,-0.05187 0.6737,-0.35854 0.6737,-0.35854l0.34871,0.17345l-0.58734,0.2483z" data-paper-data="{&quot;index&quot;:null}" fill="#fd4275" stroke="none" stroke-width="0" stroke-linecap="butt" stroke-linejoin="miter"/><path d="M240.45308,179.50319c0,0 -0.75254,-0.56781 -0.92456,-1.11701c-0.09083,-0.28999 0.4988,-1.4956 0.4988,-1.4956l0.19192,0.0394c0,0 -0.64766,1.11052 -0.55273,1.42895c0.14005,0.46977 0.91404,1.06975 0.91404,1.06975z" data-paper-data="{&quot;index&quot;:null}" fill="#fed000" stroke="none" stroke-width="0" stroke-linecap="butt" stroke-linejoin="miter"/><path d="M240.09014,176.87896c0,0 -0.28554,0.56158 -0.38867,0.81584c-0.04372,0.1078 -0.12426,0.30802 -0.13986,0.48626c-0.01598,0.18251 0.03349,0.34183 0.03349,0.34183c0,0 -0.13283,-0.18344 -0.15997,-0.24061c-0.02714,-0.05716 -0.01236,-0.21511 -0.01236,-0.21511l0.47825,-1.1413l-0.42192,-0.49769l0.61141,-0.267l-0.27342,-0.11997l0.15795,-0.10661l0.39611,0.25831l-0.69863,0.27993l0.41761,0.40616z" data-paper-data="{&quot;index&quot;:null}" fill="#fff9f9" stroke="none" stroke-width="0" stroke-linecap="butt" stroke-linejoin="miter"/><path d="M239.72739,176.51637l-0.04157,-0.04138l0.67074,-0.28708l0.07036,0.05292z" data-paper-data="{&quot;index&quot;:null}" fill="#fed000" stroke="none" stroke-width="0" stroke-linecap="butt" stroke-linejoin="miter"/><path d="M237.90952,176.69663c0,0 0.49686,-0.03074 0.68131,-0.09651c0.1817,-0.06478 0.53695,-0.20245 0.53695,-0.20245c0,0 -0.00523,0.07405 -0.01392,0.12855c-0.00868,0.0545 -0.0087,0.14549 -0.0087,0.14549l-0.27569,0.45359z" data-paper-data="{&quot;index&quot;:null}" fill="#fff9f9" stroke="none" stroke-width="0" stroke-linecap="butt" stroke-linejoin="miter"/><path d="M238.3079,176.69697l0.7202,-0.26439l-0.27024,0.44462z" data-paper-data="{&quot;index&quot;:null}" fill="#fd4275" stroke="none" stroke-width="0" stroke-linecap="butt" stroke-linejoin="miter"/><g data-paper-data="{&quot;index&quot;:null}" stroke="none" stroke-width="0" stroke-linecap="butt" stroke-linejoin="miter"><path d="M237.57154,176.88697c0.35984,-0.15448 0.53147,-0.01927 0.63336,0.17002c0.15161,0.28175 0.0785,0.51523 -0.19125,0.67496c-1.07664,0.63744 -2.00633,1.21445 -2.72008,1.69897c-0.43512,0.29537 -2.09131,1.50985 -2.09131,1.50985c0,0 -0.06038,-0.09323 -0.32686,-0.27841c-0.26647,-0.18519 -0.37861,-0.71713 -0.37861,-0.71713c0,0 0.98213,-0.62047 2.06071,-1.35264c0.75438,-0.5121 1.92733,-1.23912 3.01404,-1.70565z" data-paper-data="{&quot;index&quot;:null}" fill="#4c2b5c"/><path d="M238.20488,177.05701c0.15161,0.28175 0.07849,0.51523 -0.19126,0.67495c-1.07664,0.63744 -2.00633,1.21445 -2.72007,1.69897c-0.12116,0.08226 -0.58538,0.41447 -0.58538,0.41447l0.5521,-1.7116c0,0 1.52184,-0.90794 2.31124,-1.24682c0.35984,-0.15448 0.5315,-0.01927 0.63337,0.17003z" data-paper-data="{&quot;index&quot;:null}" fill="#edbb82"/><path d="M229.31579,181.70788c0.67712,-0.51514 1.92412,-1.2035 1.92412,-1.2035l2.10979,1.25552c0,0 0.20116,0.30318 0.1475,0.86209c-0.03484,0.36299 -0.39177,0.84826 -0.39177,0.84826c0,0 0.65188,-0.28342 0.81864,0.26909c0.10707,0.35475 -0.69923,1.11645 -1.04477,1.31375c-0.20339,0.11616 -0.62747,0.19696 -0.95267,0.10935c-0.20513,-0.05527 -0.39237,-0.28086 -0.39237,-0.28086c0,0 -0.28323,0.24808 -0.57314,-0.02969c-0.08883,-0.08509 -0.23427,-0.17639 -0.23427,-0.17639c0,0 -0.2578,0.11381 -0.40906,0.1169c-0.15126,0.00308 -0.36863,-0.12018 -0.36863,-0.12018l-0.16359,-0.3863c0,0 -0.54094,-0.00666 -0.63726,-0.06163c-0.37793,-0.21569 -0.31487,-0.69407 -0.28267,-0.95105c0.05894,-0.47051 0.34226,-1.48326 0.45013,-1.56533z" data-paper-data="{&quot;index&quot;:null}" fill="#f44a7d"/><g data-paper-data="{&quot;index&quot;:null}"><path d="M231.94415,181.44603c-0.63856,-0.58249 -1.06555,-1.15407 -0.34811,-1.9406c0.71745,-0.78653 1.32577,-0.41372 1.96434,0.16878c0.63856,0.58249 1.0781,1.16552 0.34811,1.9406c-0.72982,0.77491 -1.32577,0.41372 -1.96434,-0.16878z" fill="#fed000"/><path d="M232.09279,181.28305c-0.83199,-0.75893 -1.43249,-1.45528 -0.84703,-2.09711c0.58547,-0.64184 1.33394,-0.10771 2.16594,0.65122c0.83199,0.75893 1.44882,1.47018 0.84703,2.09711c-0.60169,0.62678 -1.33394,0.10771 -2.16594,-0.65122z" fill="#e68b9c"/></g></g><path d="M236.9883,177.28134l0.50494,-0.40811c0,0 0.65476,-0.33787 0.85024,-0.39834c0.15257,-0.0472 0.38451,-0.17371 0.56493,-0.21052c0.30907,-0.06306 0.55297,-0.02349 0.6097,-0.03229c0.09947,-0.01543 -1.50714,0.57723 -1.47377,0.57811c0.13575,0.04226 0.21642,0.41178 0.40122,0.73883c0.1517,0.2685 0.49253,1.05071 0.49253,1.05071c0,0 -0.17385,-0.10293 -0.35666,-0.18829c-0.26439,-0.12346 -0.61917,-0.41051 -0.82649,-0.55378c-0.36447,-0.26558 -0.16304,-0.70107 -0.16304,-0.70107z" data-paper-data="{&quot;index&quot;:null}" fill="#fd4275" stroke="none" stroke-width="0" stroke-linecap="butt" stroke-linejoin="miter"/><path d="M238.75882,180.07406c0,0 0.20158,-0.95834 0.00425,-1.40706c-0.13376,-0.30417 -1.23305,-0.81737 -1.23305,-0.81737l0.00755,-0.0683c0,0 1.22984,0.53727 1.34832,0.8171c0.22439,0.52997 0.01834,1.44989 0.01834,1.44989z" data-paper-data="{&quot;index&quot;:null}" fill="#fed000" stroke="none" stroke-width="0" stroke-linecap="butt" stroke-linejoin="miter"/><path d="M237.48222,177.81313l0.0554,-0.57992l-0.80197,0.1641l1.38529,-1.1355l0.76341,0.02578c0,0 -0.46039,0.1472 -0.73655,0.29194c-0.33482,0.1755 -1.13052,0.68667 -1.13052,0.68667l0.63887,-0.19226l0.00057,0.65247l1.10331,0.56035c0,0 0.11352,0.11083 0.12983,0.17197c0.01632,0.06115 0.03382,0.28695 0.03382,0.28695c0,0 -0.06544,-0.15345 -0.19575,-0.28222c-0.12728,-0.12575 -0.31826,-0.22623 -0.42136,-0.2801c-0.24318,-0.12704 -0.82436,-0.37026 -0.82436,-0.37026z" data-paper-data="{&quot;index&quot;:null}" fill="#fff9f9" stroke="none" stroke-width="0" stroke-linecap="butt" stroke-linejoin="miter"/><path d="M238.25356,170.11326c0,0 0.61263,-0.67914 1.40198,-0.77579c0.70442,-0.08627 1.01899,0.10935 1.47871,0.6192c0.69639,0.77232 0.31551,2.11885 0.31551,2.11885c0,0 0.33867,-2.02781 -1.20513,-2.51202c-0.95511,-0.29956 -1.99107,0.54976 -1.99107,0.54976z" data-paper-data="{&quot;index&quot;:null}" fill="#000000" stroke="none" stroke-width="0" stroke-linecap="butt" stroke-linejoin="miter"/><path d="M239.30664,165.18573c3.33809,-0.02442 6.06121,2.28959 6.08225,5.16848c0.02106,2.87888 -2.66793,5.23245 -6.00601,5.25686c-3.33809,0.02442 -6.06122,-2.28958 -6.08227,-5.16846c-0.02106,-2.87888 2.66792,-5.23246 6.00602,-5.25688z" data-paper-data="{&quot;index&quot;:null}" fill="#f79eb4" stroke="none" stroke-width="0" stroke-linecap="butt" stroke-linejoin="miter"/><path d="M234.0734,171.70042c-0.00019,-0.0007 0.20589,1.16584 0.61737,1.8103c0.4115,0.64445 1.9762,2.35732 1.9762,2.35732l0.28927,0.90907c0,0 -1.48016,-0.04688 -2.70675,-2.2073c-0.76483,-1.3384 -0.74276,-2.39909 -0.73637,-2.38301" data-paper-data="{&quot;index&quot;:null}" fill="#f79eb4" stroke="#f89db5" stroke-width="0" stroke-linecap="butt" stroke-linejoin="round"/><path d="M237.37456,172.58885c1.2288,-0.80659 0.22111,-0.64955 2.87242,-1.70004c0.44497,-0.04706 1.45294,-0.88736 1.15012,1.25235c-0.10077,0.71205 -0.43438,1.78184 -1.71093,2.36059c-0.65464,0.18797 -2.18727,-0.5617 -2.86314,-0.60235c-1.18664,-0.07134 -1.01864,0.4635 -1.60417,0.43705c-0.14655,-0.00662 -0.9653,-0.8751 -1.28373,-2.10017c-0.15014,-0.57768 -0.05045,-0.41489 0.01761,-0.4137c0.44911,0.00782 0.67166,0.11559 1.07308,0.64203c0.28077,0.36822 0.76503,0.49577 1.10234,0.46859c0.19663,-0.01585 0.39496,-0.00417 0.81397,-0.60717z" fill="#ffffff" stroke="none" stroke-width="0" stroke-linecap="butt" stroke-linejoin="miter"/><g data-paper-data="{&quot;index&quot;:null}" fill="#ffd5c5" stroke="none" stroke-width="1" stroke-linecap="round" stroke-linejoin="round"><path d="M235.01338,174.08885c0.01243,-0.05836 0.10768,0.05833 0.15095,0.09941c0.26748,0.25363 0.56078,-0.04433 0.75702,-0.20024c0.15079,-0.11976 0.39854,-0.18458 0.58708,-0.18817c0.90727,-0.00782 2.65671,0.56964 2.97057,0.58073c0.29211,0.01031 1.13713,-0.46506 1.44657,-0.5729c0.31747,-0.11064 0.58876,-0.01161 0.63735,0.02544c0.10188,0.07773 0.82395,0.57161 -0.12784,1.6112c-0.13225,0.14444 -0.97008,0.67864 -1.44259,0.738c-0.3962,0.04973 -1.77538,0.25789 -2.82383,-0.08461c-0.83557,-0.27296 -1.34558,-0.66141 -1.41067,-0.71129c-0.39777,-0.30494 -0.85842,-0.76204 -0.74464,-1.29754z"/><path d=""/></g><g data-paper-data="{&quot;index&quot;:null}" fill="#000000" stroke="none" stroke-width="1" stroke-linecap="round" stroke-linejoin="round"><path d="M236.23936,174.46553c-0.10989,0.00816 -0.49013,-0.23584 -0.33314,-0.35271c0.09076,-0.06756 0.61934,-0.12996 0.76936,-0.023c0.19737,0.14074 -0.1974,0.33842 -0.43623,0.37571z"/><path d=""/></g><path d="M243.83012,170.8099c0.02292,0.01359 -0.12035,2.30404 -0.26427,2.82792c-0.21594,0.78609 -0.5682,1.5355 -1.09329,2.16265c-0.22326,0.26663 -0.45531,0.48714 -0.71849,0.70992c-0.08518,0.07213 -0.44119,0.30916 -0.44119,0.30916c0,0 0.37544,-1.0311 0.40428,-2.68939c0.0153,-0.88059 -0.11919,-2.82837 -0.09834,-2.77551" data-paper-data="{&quot;index&quot;:null}" fill="#f79eb4" stroke="#f89db5" stroke-width="0" stroke-linecap="butt" stroke-linejoin="round"/><path d="M245.20465,170.13019c0.18235,0.35814 0.0933,2.22519 -0.26592,3.58669c-0.27684,1.04922 -0.55394,1.33359 -1.04605,1.89442c-0.55733,0.63512 -0.96814,0.70158 -0.96814,0.70158c0,0 0.45871,-1.1592 0.59947,-1.93844c0.14077,-0.77925 0.41522,-3.58217 0.40047,-3.5967" data-paper-data="{&quot;index&quot;:null}" fill="#f79eb4" stroke="#f89db5" stroke-width="0" stroke-linecap="butt" stroke-linejoin="round"/><g data-paper-data="{&quot;index&quot;:null}" fill="#ff4488" stroke="none" stroke-width="1" stroke-linecap="round" stroke-linejoin="round"><path d="M235.15754,167.1748c0.09118,-0.11867 2.28772,-1.9244 5.03652,-1.48673c3.39785,0.58012 3.76407,4.68128 3.76162,4.68066c-0.03397,-0.00871 -0.58857,-1.57395 -1.47138,-2.25574c-1.1447,-0.88408 -1.8077,-1.3975 -3.0585,-1.60524c-1.58696,-0.26357 -3.78372,1.14343 -3.86992,1.19997"/><path d=""/></g><path d="M235.09484,169.95776c-0.03005,-0.02403 -0.70627,-0.10781 -1.27221,0.11225c-1.03648,0.403 -0.85101,1.03633 -0.8742,1.03893c-0.01617,0.00177 -0.036,-0.94172 0.2816,-1.62289c0.25946,-0.74833 -0.65914,-0.6179 -0.3421,-0.69965c1.7791,-0.4486 2.42165,0.04318 2.39881,0.02494" data-paper-data="{&quot;index&quot;:null}" fill="#f79eb4" stroke="#f89db5" stroke-width="0" stroke-linecap="butt" stroke-linejoin="round"/><path d="M235.27829,168.8138c-0.10455,-0.08271 -0.81052,-0.80158 -1.85005,-0.98945c-0.74927,-0.1354 -0.21823,0.39482 -0.21823,0.39482c0,0 -1.33509,-1.30276 0.72135,-1.40973c0.60475,0.02703 0.77329,0.09488 1.05616,0.34603c0.28286,0.25114 1.1373,1.60457 1.14698,1.68758" data-paper-data="{&quot;index&quot;:null}" fill="#f79eb4" stroke="#f89db5" stroke-width="0" stroke-linecap="butt" stroke-linejoin="round"/><g data-paper-data="{&quot;index&quot;:null}" stroke="none" stroke-width="1" stroke-linecap="round" stroke-linejoin="round"><g fill="#f79eb4"><path d="M239.22123,166.92845c0.04327,-0.15248 1.00556,-0.93196 1.78538,-1.3078c0.77982,-0.37582 1.54532,-0.60211 1.70702,-0.37534c0.12369,0.17346 0.18787,1.04052 0.19021,1.71685c0.00231,0.67633 -0.15877,1.29666 -0.17866,1.65563"/></g><g fill="#ffd5c5"><path d="M239.90453,167.08825c0.09853,-0.16127 0.51988,-0.54353 0.942,-0.75538c0.42212,-0.21184 1.2763,-0.50281 1.35835,-0.3991c0.02024,0.02558 0.09492,0.7789 0.08378,1.27928c-0.01113,0.50038 -0.12413,0.89451 -0.13403,0.97943"/></g></g><g data-paper-data="{&quot;index&quot;:null}" fill="#f79eb4" stroke="none" stroke-width="1" stroke-linecap="round" stroke-linejoin="round"><path d="M233.32218,169.02775c-0.0086,-0.01279 -0.47554,-0.83803 -0.61597,-1.62087c-0.08997,-0.50151 0.02218,-1.14675 0.06488,-1.17018c0.20845,-0.11428 1.03503,-0.05371 1.69961,-0.01332c0.6646,0.04037 0.9781,0.1078 1.27374,0.19402"/><path d=""/></g><path d="M233.0607,171.87915c-0.39114,-0.20709 -0.89161,-0.7941 -0.89161,-0.7941c0,0 0.58192,0.44743 1.0173,0.60969c0.43536,0.16224 0.71389,0.08872 0.71389,0.08872l0.05484,0.34373c0,0 -0.50329,-0.04093 -0.89443,-0.24803z" data-paper-data="{&quot;index&quot;:null}" fill="#000000" stroke="none" stroke-width="0" stroke-linecap="butt" stroke-linejoin="miter"/><path d="M233.1918,172.46696c-0.41441,-0.15534 -1.19566,-0.6457 -1.19566,-0.6457c0,0 0.84418,0.34151 1.29672,0.44672c0.45256,0.10522 0.71938,-0.00336 0.71938,-0.00336l0.09836,0.33389c0,0 -0.5044,0.0238 -0.91881,-0.13154z" data-paper-data="{&quot;index&quot;:null}" fill="#000000" stroke="none" stroke-width="0" stroke-linecap="butt" stroke-linejoin="miter"/><path d="M235.15878,170.97852c-0.11444,0.08514 -1.01859,0.6293 -1.23888,0.91733c-0.65004,0.86026 -0.76427,1.31864 -0.72923,1.34314c0.00161,0.00114 0.03384,-0.84441 0.05458,-1.45451c-0.01818,-0.14993 0.35505,-0.95867 0.60099,-1.1037c0.85616,-0.50478 1.3529,-0.66369 1.31246,-0.63363" data-paper-data="{&quot;index&quot;:null}" fill="#f79eb4" stroke="#f89db5" stroke-width="0" stroke-linecap="butt" stroke-linejoin="round"/><g data-paper-data="{&quot;index&quot;:null}" stroke="none" stroke-linecap="butt" stroke-linejoin="miter"><path d="M238.90656,172.66834c0.05165,0.71878 -0.09499,1.31499 -0.32752,1.3317c-0.23253,0.0167 -0.46294,-0.55242 -0.51459,-1.27118c-0.05165,-0.71878 0.095,-1.31499 0.32753,-1.33171c0.23253,-0.0167 0.46294,0.55242 0.51458,1.2712z" fill="#169c5b" stroke-width="NaN"/><path d="M238.67567,172.84657c0.02157,0.30021 -0.04376,0.54955 -0.14595,0.55688c-0.10218,0.00735 -0.20251,-0.23009 -0.22407,-0.53031c-0.02157,-0.30021 0.04376,-0.54955 0.14595,-0.55688c0.10218,-0.00735 0.20251,0.23009 0.22407,0.53031z" fill="#000000" stroke-width="0"/><path d="M238.5501,172.16946c0.02183,0.30375 -0.06045,0.55716 -0.18376,0.56601c-0.12332,0.00886 -0.24097,-0.23017 -0.2628,-0.53392c-0.02183,-0.30375 0.06045,-0.55716 0.18376,-0.56602c0.12332,-0.00886 0.24098,0.23018 0.2628,0.53392z" fill="#ffffff" stroke-width="0"/></g><path d="M240.43914,170.90303c-0.60749,0.00445 -2.42844,1.10546 -2.42844,1.10546c0,0 1.04704,-2.22406 2.24763,-2.2796c1.20059,-0.05554 1.22113,1.90471 1.22113,1.90471c0,0 -0.43283,-0.73502 -1.04032,-0.73057z" data-paper-data="{&quot;index&quot;:null}" fill="#e569c4" stroke="none" stroke-width="0" stroke-linecap="butt" stroke-linejoin="miter"/><g data-paper-data="{&quot;index&quot;:null}" stroke="none" stroke-linecap="butt" stroke-linejoin="miter"><path d="M235.4934,173.18104c0.03641,0.50698 -0.06699,0.92752 -0.23101,0.93929c-0.16403,0.01177 -0.32651,-0.38965 -0.36296,-0.89662c-0.03641,-0.50698 0.067,-0.92752 0.23102,-0.93929c0.16403,-0.01177 0.32651,0.38964 0.36295,0.89661z" fill="#169c5b" stroke-width="NaN"/><path d="M235.33056,173.30674c0.01523,0.21176 -0.03086,0.38761 -0.10295,0.39279c-0.07207,0.00519 -0.14283,-0.16228 -0.15805,-0.37403c-0.01523,-0.21176 0.03086,-0.38761 0.10294,-0.39278c0.07207,-0.00519 0.14282,0.16227 0.15803,0.37402z" fill="#000000" stroke-width="0"/><path d="M235.24201,172.82915c0.01538,0.21425 -0.04263,0.39296 -0.12961,0.39922c-0.08699,0.00625 -0.16997,-0.16235 -0.18538,-0.37658c-0.01538,-0.21425 0.04263,-0.39298 0.12961,-0.39924c0.08699,-0.00625 0.16996,0.16237 0.18537,0.3766z" fill="#ffffff" stroke-width="0"/></g><path d="M240.77647,175.08775c0,0 -0.32959,0.15065 -0.52766,0.17362c-0.19806,0.02296 -0.77198,0.03369 -0.77198,0.03369" data-paper-data="{&quot;index&quot;:null}" fill="none" stroke="#000000" stroke-width="0.125" stroke-linecap="round" stroke-linejoin="miter"/><path d="M241.47493,171.74261l-0.18409,-0.31035c0,0 0.48996,0.01138 0.91673,-0.1723c0.42676,-0.18368 0.99941,-0.64692 0.99941,-0.64692c0,0 -0.47069,0.61114 -0.85105,0.83742c-0.38036,0.22627 -0.88101,0.29215 -0.88101,0.29215z" data-paper-data="{&quot;index&quot;:null}" fill="#000000" stroke="none" stroke-width="0" stroke-linecap="butt" stroke-linejoin="miter"/><path d="M242.51235,172.06239c-0.44032,0.04465 -1.15882,-0.10431 -1.15882,-0.10431l-0.04579,-0.34681c0,0 0.63498,0.31953 1.09938,0.33307c0.46441,0.01355 1.38599,-0.28321 1.38599,-0.28321c0,0 -0.84045,0.35661 -1.28076,0.40125z" data-paper-data="{&quot;index&quot;:null}" fill="#000000" stroke="none" stroke-width="0" stroke-linecap="butt" stroke-linejoin="miter"/><path d="M243.50244,169.92915c0,0 0.30941,-0.12941 0.43977,-0.01758c0.13035,0.11184 0.22695,0.54311 0.17783,0.61487c-0.04436,0.0648 -0.39958,0.10384 -0.39958,0.10384z" data-paper-data="{&quot;index&quot;:null}" fill="#f7bf74" stroke="none" stroke-width="0" stroke-linecap="butt" stroke-linejoin="miter"/><path d="M242.51513,173.78364c0.30496,-0.08561 1.12969,-0.33257 1.19722,-0.84352c0.08327,-0.6302 0.27013,-0.76099 0.42743,-0.74408c0.20809,0.02239 0.12626,0.27213 -0.0502,0.66685c-0.20786,0.46489 -0.82587,1.10694 -1.79081,1.3506c-0.27042,0.06829 -0.68408,0.0215 -0.70443,-0.05099c-0.02653,-0.09448 0.38673,-0.22893 0.92078,-0.37887z" data-paper-data="{&quot;index&quot;:null}" fill="#212121" stroke="none" stroke-width="0" stroke-linecap="butt" stroke-linejoin="miter"/><path d="M243.06871,173.86896l-0.06264,-0.22316l0.08926,-0.02506l0.06264,0.22316z" data-paper-data="{&quot;index&quot;:null}" fill="#b3916f" stroke="none" stroke-width="0" stroke-linecap="butt" stroke-linejoin="miter"/><path d="M244.01035,172.64967c0.03394,-0.10438 0.10309,-0.26166 0.10309,-0.26166c0,0 0.13872,0.15548 0.09632,0.28591c-0.0424,0.13043 -0.26256,0.32248 -0.26256,0.32248c0,0 0.02923,-0.24236 0.06315,-0.34674z" data-paper-data="{&quot;index&quot;:null}" fill="#cc7889" stroke="none" stroke-width="0" stroke-linecap="butt" stroke-linejoin="miter"/><g data-paper-data="{&quot;index&quot;:null}" stroke="none" stroke-width="0" stroke-linecap="butt" stroke-linejoin="miter"><g data-paper-data="{&quot;index&quot;:null}"><path d="M246.67148,165.73051c0,0 -0.08718,0.45098 -0.69447,1.41683c-1.21079,1.92561 -2.43311,1.76555 -2.43311,1.76555c0,0 -0.31654,-0.83753 0.37565,-1.70966c0.70928,-0.89366 2.75192,-1.47272 2.75192,-1.47272z" data-paper-data="{&quot;index&quot;:null}" fill="#ce204f"/><path d="M244.8433,166.5713c-1.02293,0.50526 -1.30975,2.27953 -1.30975,2.27953c0,0 -1.16096,-1.50678 0.85709,-2.55624c1.01222,-0.52639 2.31502,-0.5642 2.31502,-0.5642c0,0 -0.83943,0.33565 -1.86237,0.84091z" fill="#ff4488"/></g><g data-paper-data="{&quot;index&quot;:null}"><path d="M243.59602,169.03064c0,0 0.96447,-0.44512 1.61752,-0.43033c1.29269,0.02932 2.34813,1.31536 2.34813,1.31536c0,0 -1.33191,0.15903 -2.18673,0.23749c-1.16653,0.10706 -1.77892,-1.12256 -1.77892,-1.12256z" fill="#f5e4ec"/><path d="M245.2428,168.73505c1.07727,0.02442 1.95679,1.09612 1.95679,1.09612c0,0 -1.10994,0.13256 -1.82229,0.19793c-0.97214,0.08921 -1.48243,-0.93547 -1.48243,-0.93547c0,0 0.80372,-0.37093 1.34792,-0.35859z" fill="#e2c1c1"/></g></g><g data-paper-data="{&quot;index&quot;:null}" stroke-width="0" stroke-linecap="butt" stroke-linejoin="miter"><path d="M212.14072,180.38267c0,0 -0.44701,-4.65127 4.74148,-5.20761c1.99229,-0.21363 3.36956,0.26203 4.8964,1.35185c1.61106,1.14993 0.6866,3.92578 0.6866,3.92578l-8.96794,1.44684z" fill="#ffff00" stroke="none"/><path d="M213.12713,181.51608l-0.3605,-0.38819c0,0 0.01886,-0.96268 0.1571,-1.3293c0.29644,-0.7863 0.42875,-1.1298 0.57753,-0.73122c0.074,0.19817 -0.23272,0.67444 -0.31582,1.12736c-0.12421,0.67681 -0.0583,1.32135 -0.0583,1.32135z" fill="#a58c48" stroke="#000000"/><path d="M215.23215,177.19669c-0.02505,-0.18652 0.54767,-0.78143 1.87884,-0.9197c0.89194,-0.09267 2.42334,-0.00882 2.42853,0.46274c0.00474,0.4306 -1.51545,-0.0999 -2.40423,0.01942c-0.88877,0.11932 -1.87811,0.62407 -1.90315,0.43757z" fill="#a58c48" stroke="#000000"/><path d="M222.41419,179.77184c0,0 -0.08697,-0.41378 -0.31513,-0.8375c-0.21119,-0.39221 -0.62994,-0.61946 -0.47057,-0.79641c0.0561,-0.06227 0.41165,-0.09256 0.60638,0.25593c0.2169,0.38816 0.32999,0.9937 0.32999,0.9937z" fill="#a58c48" stroke="#000000"/><path d="M218.05033,182.21852c2.52157,-0.40728 4.77513,1.23197 4.77513,1.23197l0.15954,0.57298c0,0 -2.52056,-2.13697 -5.8331,-0.99666c-2.08149,0.71652 -3.21865,2.57607 -3.21865,2.57607c0,0 -0.01131,0.29117 -0.09001,-0.29996c-0.07868,-0.59114 0.00148,-0.3857 0.00148,-0.3857c0,0 0.66739,-2.12723 4.20562,-2.69872z" fill="#edeee6" stroke="none"/><path d="M222.55438,180.02505l-0.06805,0.39155c0,0 -2.65824,-2.6018 -5.89631,-1.39629c-2.03471,0.75752 -3.09489,2.87282 -3.09489,2.87282l-0.22237,-0.25801c0,0 0.6407,-2.93231 4.15342,-3.6437c2.77178,-0.56134 5.12822,2.03364 5.12822,2.03364z" fill="#edeee6" stroke="none"/><path d="M217.53659,178.39554c2.53249,-0.40877 4.9559,1.92571 4.9559,1.92571l0.43921,3.30488c0,0 -2.53002,-2.13569 -5.85723,-0.99341c-2.09074,0.71778 -3.23378,2.57811 -3.23378,2.57811c0,0 -0.24151,-0.90301 -0.32018,-1.49417c-0.07868,-0.59114 -0.08308,-1.53586 -0.08308,-1.53586c0,0 0.54567,-3.21172 4.09919,-3.78529z" fill="#754c86" stroke="none"/><path d="M220.17106,185.41259c-1.32768,0.17826 -7.01658,3.02534 -7.01658,3.02534c0,0 -0.13575,-5.24396 5.67348,-5.79795c3.04634,-0.29052 4.57492,1.17654 5.215,2.40831c0.40915,0.78732 0.27715,1.56575 0.27715,1.56575c0,0 -2.82136,-1.37971 -4.14905,-1.20145z" fill="#ffff00" stroke="none"/><path d="M218.33111,183.55617c-0.88994,0.1195 -1.97053,0.5381 -1.98527,0.42838c-0.01474,-0.10972 0.71876,-0.70328 1.961,-0.91052c0.68797,-0.11476 2.04649,-0.06689 2.27997,0.2602c0.15781,0.22107 -1.56444,0.12914 -2.2557,0.22195z" fill="#a58c48" stroke="#000000"/><path d="M213.54771,186.34235l0.18892,-0.55123c0,0 1.02173,-1.24689 0.96229,-0.81688c-0.03815,0.27596 -1.1512,1.36811 -1.1512,1.36811z" fill="#a58c48" stroke="#000000"/><path d="M222.14762,183.81231c-0.05009,-0.37308 1.34333,0.45374 1.34333,0.45374l0.44163,0.70818c0,0 -1.7349,-0.78885 -1.785,-1.16192z" fill="#a58c48" stroke="#000000"/><path d="M218.91201,191.15753c-2.71642,0.39916 -5.50359,-1.03135 -5.73342,-2.74305c-0.22982,-1.71172 2.28507,-3.62551 5.00087,-4.02891c2.83506,-0.42109 5.92654,0.45507 6.15636,2.1668c0.32054,2.38722 -2.22778,4.16114 -5.42044,4.63027z" fill="#ffff00" stroke="#000000"/><path d="M214.6291,189.92506c-0.1385,-1.03143 1.71503,-2.13146 4.13994,-2.45706c2.42491,-0.3256 4.50297,0.2466 4.64147,1.278c0.1385,1.03143 -1.71504,2.13147 -4.13996,2.45707c-2.42491,0.3256 -4.50297,-0.24661 -4.64146,-1.278z" fill="#ffff00" stroke="#000000"/><path d="M225.01634,183.4049c0,0 0.13983,-0.59137 0.12007,-0.99834c-0.01974,-0.40698 -0.21807,-1.02102 -0.21807,-1.02102l4.30315,0.00043l7.02445,-0.08712c0,0 0.35731,0.49829 0.37714,0.73026c0.01981,0.23196 -0.39651,0.59285 -0.39651,0.59285l-7.0484,0.5024z" fill="#fbdd00" stroke="none"/><path d="M222.69917,183.58099l-0.64271,-2.67444c0,0 2.53494,-0.02394 2.75325,0.24373c0.36978,0.45331 0.36593,2.17979 0.06917,2.47073c-0.07817,0.07665 -1.90517,0.19314 -1.90517,0.19314z" fill="#c8c8c6" stroke="none"/><path d="M212.15375,180.17868c0,0 -0.54604,-4.09658 4.25252,-5.38468c3.23768,-0.86911 5.61869,2.05144 5.61869,2.05144c0,0 -1.15855,-1.0081 -2.52484,-1.44499c-1.1058,-0.35359 -2.45634,-0.26963 -3.55711,0.05149c-0.74046,0.21603 -1.52125,0.46443 -2.0006,0.8264c-1.97608,1.49223 -1.78864,3.90033 -1.78864,3.90033z" fill="#ffff00" stroke="#000000"/><path d="M233.30747,182.83487c0,0 -0.10826,-0.37314 -0.128,-0.78011c-0.01974,-0.40698 0.05168,-0.73362 0.05168,-0.73362l3.01485,-0.02229c0,0 0.3573,0.49829 0.37713,0.73028c0.01981,0.23196 -0.39651,0.59285 -0.39651,0.59285z" fill="#a56402" stroke="none"/></g><g stroke="none" stroke-linecap="butt" stroke-linejoin="miter"><path d="M234.41751,179.60218l1.71297,1.90389c0,0 0.10652,0.36429 -0.11999,0.90443c-0.14708,0.3508 -0.65288,0.72373 -0.65288,0.72373c0,0 0.73714,-0.0805 0.73218,0.5215c-0.00317,0.38651 -1.04221,0.89565 -1.44746,0.98525c-0.23858,0.05275 -0.68605,0.00192 -0.98285,-0.18603c-0.18722,-0.11854 -0.30391,-0.40125 -0.30391,-0.40125c0,0 -0.35893,0.15948 -0.56175,-0.20699c-0.06214,-0.11228 -0.17874,-0.24825 -0.17874,-0.24825c0,0 -0.29207,0.03356 -0.44371,-0.01019c-0.15166,-0.04378 -0.32998,-0.23387 -0.32998,-0.23387l-0.04337,-0.43546c0,0 -0.53676,-0.1741 -0.61573,-0.25871c-0.30971,-0.33185 -0.09874,-0.78888 0.01289,-1.03492c0.20439,-0.45045 0.80015,-1.37157 0.93302,-1.41994c0.83398,-0.30355 2.2893,-0.60316 2.2893,-0.60316z" data-paper-data="{&quot;index&quot;:null}" fill="#ffffff" stroke-width="0"/><path d="M240.31897,176.15442c0.34746,-0.18062 0.52862,-0.05844 0.64419,0.12281c0.17201,0.2698 0.11633,0.50805 -0.14092,0.68723c-1.02666,0.71516 -1.91123,1.35922 -2.58727,1.89508c-0.41214,0.32668 -1.97416,1.66008 -1.97416,1.66008c0,0 -0.06711,-0.08851 -0.34652,-0.25354c-0.27943,-0.16502 -0.4305,-0.68721 -0.4305,-0.68721c0,0 0.93365,-0.69127 1.95525,-1.50105c0.71454,-0.56639 1.83062,-1.37798 2.87993,-1.92344z" data-paper-data="{&quot;index&quot;:null}" fill="#fff9fb" stroke-width="0"/><path d="M233.61205,183.24567l0.00209,-0.51244l0.51244,0.00209l-0.00209,0.51244z" data-paper-data="{&quot;index&quot;:null}" fill="#baba3e" stroke-width="NaN"/><path d="M232.85695,182.61667l0.00209,-0.51244l0.51244,0.00209l-0.00209,0.51244z" data-paper-data="{&quot;index&quot;:null}" fill="#baba3e" stroke-width="NaN"/><path d="M232.03628,181.92155l0.00209,-0.51244l0.51244,0.00209l-0.00209,0.51244z" data-paper-data="{&quot;index&quot;:null}" fill="#baba3e" stroke-width="NaN"/><path d="M231.14005,180.86167l0.60595,-0.04503l-0.09855,0.36857l-0.28914,0.23283z" data-paper-data="{&quot;index&quot;:null}" fill="#baba3e" stroke-width="0"/><g stroke-width="0"><path d="M234.65141,181.11614c-0.60867,-0.61367 -1.00656,-1.20588 -0.2507,-1.95557c0.75585,-0.7497 1.34479,-0.34696 1.95346,0.26671c0.60867,0.61367 1.01851,1.21793 0.2507,1.95557c-0.76763,0.73746 -1.34479,0.34696 -1.95346,-0.26671z" data-paper-data="{&quot;index&quot;:null}" fill="#fed000"/><path d="M234.80801,180.96079c-0.79305,-0.79958 -1.35797,-1.52504 -0.74117,-2.13682c0.61681,-0.61179 1.33764,-0.04092 2.13068,0.75865c0.79305,0.79958 1.37355,1.54076 0.74117,2.13682c-0.63224,0.59592 -1.33764,0.04092 -2.13068,-0.75865z" data-paper-data="{&quot;index&quot;:null}" fill="#e68b9c"/></g></g></g></g></svg>