<svg version="1.1" xmlns="http://www.w3.org/2000/svg" xmlns:xlink="http://www.w3.org/1999/xlink" width="29.66818" height="27.15398" viewBox="0,0,29.66818,27.15398"><g transform="translate(-225.4079,-173.25986)"><g data-paper-data="{&quot;isPaintingLayer&quot;:true}" fill-rule="nonzero" stroke-linejoin="miter" stroke-miterlimit="10" stroke-dasharray="" stroke-dashoffset="0" style="mix-blend-mode: normal"><g><g stroke="none" stroke-width="0" stroke-linecap="butt"><path d="M238.28874,177.52586c0,0 0.84216,-0.98952 1.11765,-1.53426c0.27308,-0.53997 0.22887,-1.70564 0.22887,-1.70564c0,0 2.58759,0.88426 3.82633,4.06913c1.07722,2.7696 0.04633,5.10216 0.04633,5.10216c0,0 -1.11708,-1.59982 -1.94377,-2.53932c-0.82668,-0.9395 -3.2754,-3.39208 -3.2754,-3.39208z" data-paper-data="{&quot;index&quot;:null}" fill="#3ad3cf"/><path d="M233.06351,176.22254c-0.22934,-0.13969 0.09798,-1.79465 2.84014,-2.32092c1.4965,-0.2872 3.72999,0.37132 3.72999,0.37132c0,0 0.08307,1.20289 -0.21516,1.88541c-0.29823,0.68253 -1.14182,1.3836 -1.14182,1.3836c0,0 -1.19359,-0.76215 -1.99707,-0.95471c-0.80348,-0.19256 -2.97892,-0.22027 -3.21607,-0.36472z" fill="#ffffff"/></g><path d="M240.00253,175.19201l-0.61704,-0.24379" fill="none" stroke="#808080" stroke-width="0.5" stroke-linecap="round"/><path d="M238.91272,176.27747l0.51482,0.28203" fill="none" stroke="#808080" stroke-width="0.5" stroke-linecap="round"/><path d="M238.26709,177.35503l0.46598,0.2777" fill="none" stroke="#808080" stroke-width="0.5" stroke-linecap="round"/></g><g><g stroke="none" stroke-width="0" stroke-linecap="butt"><path d="M249.97149,177.00401c0,0 -2.87436,3.5878 -3.76391,4.59378c-0.88957,1.00598 -2.69016,1.78122 -2.69016,1.78122c0,0 -0.73237,-2.60256 0.84379,-5.83581c1.14185,-2.34232 3.61831,-3.61 3.61831,-3.61c0,0 0.38244,1.14786 0.71297,1.65739c0.33344,0.51404 1.27899,1.41344 1.27899,1.41344z" fill="#3ad3cf"/><path d="M253.92686,173.98324c0.07614,0.36604 -1.07469,1.201 -1.78296,1.50254c-0.22782,0.09699 -2.18506,1.54979 -2.18506,1.54979c0,0 -0.82426,-0.53548 -1.29021,-1.22877c-0.46595,-0.69327 -0.67472,-1.88943 -0.67472,-1.88943c0,0 1.73096,-0.74623 3.38637,-0.64872c0.7134,-0.02037 2.46215,0.30869 2.54659,0.7146z" fill="#ffffff"/></g><path d="M249.56515,177.00858l0.42349,-0.36918" fill="none" stroke="#808080" stroke-width="0.5" stroke-linecap="round"/><path d="M249.1231,175.60494l-0.48121,0.33224" fill="none" stroke="#808080" stroke-width="0.5" stroke-linecap="round"/><path d="M247.93038,174.68118l0.50042,-0.2399" fill="none" stroke="#808080" stroke-width="0.5" stroke-linecap="round"/></g><g data-paper-data="{&quot;index&quot;:null}"><g><path d="M247.47299,193.5424c0.3298,0.6095 -0.21074,2.10105 -0.63172,2.78763c-0.42098,0.68661 -3.04607,4.05358 -4.72058,4.08292c-0.44786,0.04722 -1.03468,-1.7859 -0.32107,-4.60125c0.57414,-2.26508 1.96003,-4.15115 2.22134,-4.22303c0.95791,-0.26355 3.12222,1.34422 3.45202,1.95372z" fill="#09a400" stroke="none" stroke-width="0" stroke-linecap="butt"/><path d="M245.76828,197.70142c0,0 -1.13612,-0.75197 -1.9138,-1.01054c-0.77768,-0.25857 -2.15044,-0.31361 -2.15044,-0.31361c0,0 0.04761,-0.4167 0.19557,-0.93106c0.14795,-0.51438 0.53307,-1.34588 0.53307,-1.34588c0,0 1.33551,0.19817 2.24247,0.69685c0.90698,0.49868 2.06091,1.66928 2.06091,1.66928c0,0 -0.47784,0.65928 -0.60877,0.82636c-0.13093,0.16708 -0.359,0.40862 -0.359,0.40862z" fill="#a8c8d8" stroke="none" stroke-width="0" stroke-linecap="butt"/><path d="M242.00102,200.25247c0,0 0.09416,-2.39181 0.48403,-4.00287c0.38988,-1.61106 1.43196,-3.99865 1.43196,-3.99865" fill="none" stroke="#000000" stroke-width="0.25" stroke-linecap="round"/><path d="M243.63818,192.4972l0.44212,0.09546" fill="none" stroke="#808080" stroke-width="0.5" stroke-linecap="round"/><path d="M243.12895,193.72105l0.57511,0.13505" fill="none" stroke="#808080" stroke-width="0.5" stroke-linecap="round"/><path d="M242.20896,197.17526l0.48527,0.07211" fill="none" stroke="#808080" stroke-width="0.5" stroke-linecap="round"/><path d="M241.9134,198.8971l0.50861,0.11526" fill="none" stroke="#808080" stroke-width="0.5" stroke-linecap="round"/><path d="M242.43499,195.24829l0.69027,0.15642" fill="none" stroke="#808080" stroke-width="0.5" stroke-linecap="round"/></g><path d="M241.94745,189.71365c0,0 -1.01015,-1.18696 -1.38216,-1.70768c-0.37202,-0.52072 -0.78245,-1.44112 -0.78245,-1.44112l1.48285,0.29205c0,0 0.43323,0.77076 0.6959,1.23578c0.26267,0.46503 0.72286,1.27978 0.72286,1.27978z" fill="#3ad3cf" stroke="none" stroke-width="0" stroke-linecap="butt"/><path d="M243.77066,190.4031c0.33307,0.46166 0.99412,1.27247 0.5747,1.65087c-0.44784,0.40405 -1.24043,-0.66002 -1.59267,-1.10722c-0.65784,-0.8352 -0.99293,-1.20469 -0.5416,-1.53031c0.34229,-0.24695 1.22649,0.525 1.55956,0.98666z" fill="#ffffff" stroke="none" stroke-width="0" stroke-linecap="butt"/></g><g><path d="M233.95534,187.0256l-1.58744,0.53364c0,0 1.3961,-1.74658 2.08167,-2.3103c0.80431,-0.66137 2.80255,-2.07929 2.80255,-2.07929l0.42669,0.64568c0,0 -1.71905,1.27838 -2.38352,1.85129c-0.55798,0.48106 -1.33997,1.35898 -1.33997,1.35898z" fill="#3ad3cf" stroke="none" stroke-width="0" stroke-linecap="butt"/><g data-paper-data="{&quot;index&quot;:null}"><path d="M233.97057,186.66384c1.06258,0.26073 1.83311,2.90042 0.28843,4.52332c-1.2753,1.33991 -2.16213,2.12732 -3.53025,1.92402c-0.4964,-0.06769 -1.56992,-2.66419 0.0484,-4.63317c1.17147,-1.42529 2.84553,-1.89951 3.19342,-1.81417z" fill="#a8c8d8" stroke="none" stroke-width="0" stroke-linecap="butt"/><path d="M234.3125,187.95023l-1.03696,-0.05603" fill="none" stroke="#808080" stroke-width="0.5" stroke-linecap="round"/><path d="M234.08458,189.54153l-0.81461,-0.0813" fill="none" stroke="#808080" stroke-width="0.5" stroke-linecap="round"/><path d="M233.65396,190.85146l-0.77726,-0.17251" fill="none" stroke="#808080" stroke-width="0.5" stroke-linecap="round"/><path d="M232.26108,191.92301l0.55492,0.19781" fill="none" stroke="#808080" stroke-width="0.5" stroke-linecap="round"/><path d="M233.81641,186.83262c0,0 0.1452,1.88606 -0.12562,3.04761c-0.27082,1.16154 -1.81839,3.02335 -1.81839,3.02335" fill="none" stroke="#020202" stroke-width="0.25" stroke-linecap="round"/></g></g><g data-paper-data="{&quot;index&quot;:null}"><path d="M240.82605,182.23009c3.33404,0.26803 3.76648,2.8575 3.61594,4.51084c-0.16191,1.7781 -4.58182,2.49413 -6.63329,0.89801c-2.02404,-1.57477 -1.66936,-3.5655 -0.07922,-4.63442c1.06693,-0.7172 1.55711,-0.89819 3.09657,-0.77442z" fill="#3ad3cf" stroke="none" stroke-width="0" stroke-linecap="butt"/><path d="M241.09683,183.65777c1.15451,-0.15671 3.13433,1.23803 3.31154,3.10443c0.11956,1.2591 -1.89635,2.87146 -3.50029,2.77999c-2.14338,-0.12225 -3.17637,-1.58961 -3.17241,-2.9024c0.00233,-0.77222 0.01634,-2.52801 3.36116,-2.98201z" fill="#ffffff" stroke="none" stroke-width="0" stroke-linecap="butt"/><path d="M238.86906,184.71498l-0.38303,-0.4153" fill="none" stroke="#808080" stroke-width="0.5" stroke-linecap="round"/><path d="M240.38376,183.51016l0.0477,0.46838" fill="none" stroke="#808080" stroke-width="0.5" stroke-linecap="round"/><path d="M242.37959,183.5908l-0.23454,0.85679" fill="none" stroke="#808080" stroke-width="0.5" stroke-linecap="round"/><path d="M243.70138,185.51002l0.2903,-0.58799" fill="none" stroke="#808080" stroke-width="0.5" stroke-linecap="round"/></g><g data-paper-data="{&quot;index&quot;:null}"><g><path d="M249.3731,178.18607c0.66256,-0.20313 2.01824,0.62091 2.60833,1.16901c0.59011,0.5481 3.37333,3.78559 3.07189,5.433c-0.04202,0.44837 -1.95486,0.6622 -4.57421,-0.59256c-2.10739,-1.00952 -3.68315,-2.74011 -3.70208,-3.01046c-0.06948,-0.99107 1.9335,-2.79585 2.59607,-2.99898z" fill="#09a400" stroke="none" stroke-width="0" stroke-linecap="butt"/><path d="M253.11431,180.67742c0,0 -0.96124,0.96553 -1.36808,1.67695c-0.40684,0.71142 -0.7315,2.04637 -0.7315,2.04637c0,0 -0.39913,-0.12885 -0.87422,-0.37533c-0.4751,-0.24648 -1.21434,-0.788 -1.21434,-0.788c0,0 0.45763,-1.27021 1.12536,-2.06102c0.66774,-0.79084 2.0429,-1.69128 2.0429,-1.69128c0,0 0.55211,0.59846 0.69009,0.75977c0.13798,0.16131 0.32981,0.43252 0.32981,0.43252z" fill="#ffffff" stroke="none" stroke-width="0" stroke-linecap="butt"/><path d="M254.8724,184.87376c0,0 -2.32628,-0.56395 -3.82883,-1.26386c-1.50255,-0.69991 -3.63776,-2.19234 -3.63776,-2.19234" fill="none" stroke="#000000" stroke-width="0.25" stroke-linecap="round"/><path d="M247.59225,181.73948l0.18077,-0.41462" fill="none" stroke="#808080" stroke-width="0.5" stroke-linecap="round"/><path d="M248.69163,182.48002l0.24581,-0.53719" fill="none" stroke="#808080" stroke-width="0.5" stroke-linecap="round"/><path d="M252.06301,183.60158l-0.16639,0.46153" fill="none" stroke="#808080" stroke-width="0.5" stroke-linecap="round"/><path d="M253.73966,184.21649l-0.21329,0.4759" fill="none" stroke="#808080" stroke-width="0.5" stroke-linecap="round"/><path d="M250.3415,182.81564l-0.28946,0.64588" fill="none" stroke="#808080" stroke-width="0.5" stroke-linecap="round"/></g><path d="M244.52994,182.84812c0,0 -1.36285,0.75626 -1.9467,1.01828c-0.58386,0.26203 -1.23817,-0.37236 -1.23817,-0.37236l0.24978,-0.54088c0,0 0.84106,-0.27274 1.34874,-0.43855c0.50769,-0.16582 1.39719,-0.45631 1.39719,-0.45631z" fill="#3ad3cf" stroke="none" stroke-width="0" stroke-linecap="butt"/><path d="M245.56534,181.19663c0.51827,-0.23549 1.44351,-0.72368 1.73179,-0.23788c0.30781,0.51872 -0.89166,1.08592 -1.39954,1.34306c-0.94852,0.48023 -1.37684,0.73588 -1.60706,0.2292c-0.1746,-0.38427 0.75655,-1.09888 1.27482,-1.33437z" fill="#ffffff" stroke="none" stroke-width="0" stroke-linecap="butt"/></g><path d="M236.12989,177.10203c2.71173,1.04179 1.92925,6.6243 0.87091,9.25146c-0.89899,2.23159 -8.26698,2.10915 -9.89924,-1.67746c-0.6338,-1.47032 -0.82445,-2.26852 -0.01131,-4.53724c0.83466,-2.32881 4.93401,-4.61407 9.03965,-3.03675z" fill="#3ad3cf" stroke="none" stroke-width="0" stroke-linecap="butt"/><path d="M236.32363,177.83144c1.78811,0.64948 3.2122,3.89675 2.34889,6.15808c-0.46904,1.22859 -1.04428,2.46512 -2.52124,2.88571c-0.46451,0.1265 -1.97474,-2.0169 -2.11626,-3.32433c-0.33304,-3.07683 1.67409,-5.94266 2.28861,-5.71945z" fill="#ffffff" stroke="none" stroke-width="0" stroke-linecap="butt"/><path d="M231.05805,177.06322c-0.23581,0.18083 -1.48404,0.76151 -2.19501,1.4269c-0.71096,0.66539 -1.62559,1.8469 -1.62559,1.8469c0,0 -1.10631,-0.72675 -1.43472,-1.40721c-0.32841,-0.68047 -0.52707,-1.8385 -0.29248,-2.17157c1.55846,-2.21257 5.88167,0.04895 5.5478,0.30498z" fill="#ffffff" stroke="none" stroke-width="0" stroke-linecap="butt"/><path d="M227.2879,184.88432c0,0 0.88056,1.21248 2.08065,1.69592c1.20009,0.48345 2.64046,1.01604 2.64046,1.01604c0,0 -1.09246,0.80232 -2.33974,1.20836c-1.13007,0.36788 -2.45228,0.27188 -2.85762,-0.49059c-1.00854,-1.89714 0.47625,-3.42973 0.47625,-3.42973z" fill="#ffffff" stroke="none" stroke-width="0" stroke-linecap="butt"/><g stroke="none" stroke-width="0" stroke-linecap="butt"><path d="M233.1361,184.31978c0.85366,0.49945 1.16356,1.5312 0.6922,2.30446c-0.47137,0.77327 -1.54551,0.99524 -2.39916,0.49578c-0.85366,-0.49945 -1.16358,-1.53118 -0.6922,-2.30445c0.47137,-0.77327 1.54551,-0.99525 2.39917,-0.49579z" fill="#ffffff"/><path d="M230.85391,185.48918c0.06938,-0.44329 0.96867,-1.24279 1.7376,-1.14755c0.76893,0.09524 1.24546,1.07986 1.17607,1.52313c-0.06938,0.44329 -0.92317,1.32678 -1.65834,1.23572c-0.73517,-0.09106 -1.32472,-1.16803 -1.25534,-1.6113z" fill="#000000"/></g><g stroke="none" stroke-width="0" stroke-linecap="butt"><path d="M232.23703,178.6655c1.12788,0.04506 2.01527,0.75531 1.98207,1.58637c-0.0332,0.83107 -0.97444,1.46824 -2.10231,1.42318c-1.12788,-0.04506 -2.01528,-0.7553 -1.98207,-1.58637c0.0332,-0.83107 0.97444,-1.46824 2.10231,-1.42318z" fill="#ffffff"/><path d="M230.58086,180.04293c0.06939,-0.44327 0.98284,-1.06915 1.81448,-1.03217c0.83164,0.03698 1.64002,0.41527 1.54147,1.19636c-0.09856,0.7811 -1.01005,1.1376 -1.83135,1.10109c-0.8213,-0.03652 -1.59398,-0.822 -1.5246,-1.26528z" fill="#000000"/></g><path d="M231.5988,181.15181l-2.45808,1.92085c0,0 0.95471,0.39076 1.48788,0.66998c0.53318,0.27922 1.23449,0.7557 1.23449,0.7557c0,0 -1.45333,0.8548 -1.90904,0.86394c-0.56427,0.01132 -1.53696,-0.39341 -1.53696,-0.39341l-0.10113,-3.94825c0,0 0.6004,-0.64404 1.40086,-0.57933c0.57753,0.04668 1.88197,0.71049 1.88197,0.71049z" fill="#3ad3cf" stroke="none" stroke-width="0" stroke-linecap="butt"/><g stroke="none" stroke-width="0" stroke-linecap="butt"><path d="M234.38129,182.74925c0.2098,-0.52079 0.38808,-1.06846 0.72401,-0.9569c0.53797,0.17867 0.58513,0.81931 0.56375,1.38036c-0.02987,0.78389 -0.22697,1.17152 -0.57716,1.11993c-0.74726,-0.11011 -0.92041,-1.0226 -0.71061,-1.54339z" fill="#71716f"/><path d="M235.30859,182.88455c-0.18877,0.94179 -0.77657,1.11674 -0.77657,1.11674c0,0 -0.36367,-0.66214 -0.40713,-1.01685c-0.04346,-0.35471 -0.02347,-0.63852 0.17082,-0.88914c0.19428,-0.25062 0.4861,-0.40516 0.7288,-0.27137c0.42213,0.2327 0.40883,0.43831 0.28408,1.06062z" fill="#010101"/><path d="M235.03239,183.39277c0.14718,0.05929 0.21844,0.22667 0.15914,0.37385c-0.05929,0.14717 -0.22666,0.21843 -0.37384,0.15913c-0.14717,-0.05929 -0.21843,-0.22666 -0.15913,-0.37384c0.05929,-0.14718 0.22667,-0.21844 0.37385,-0.15914z" fill="#ffffff"/></g><g data-paper-data="{&quot;index&quot;:null}"><path d="M228.73011,182.64114c0,0 0.30165,1.57394 -0.12006,2.60494c-0.42171,1.03099 -0.04142,2.45217 -0.04142,2.45217l-0.49277,-0.15907c0,0 -0.50531,-1.46482 -0.06486,-2.55069c0.44045,-1.08587 -0.10358,-2.2961 -0.10358,-2.2961z" fill="#717370" stroke="none" stroke-width="0" stroke-linecap="butt"/><path d="M230.6023,188.29326l-0.78946,0.5435l0.40753,1.55541l-1.04481,-0.58019l-0.52699,0.65084l-0.90326,-0.38796l0.30283,-1.76549l-0.11243,-1.46065l0.85246,1.1531z" fill="#009300" stroke="none" stroke-width="0" stroke-linecap="butt"/><path d="M229.92309,190.08592c0,0 -1.50556,-2.44401 -1.89503,-3.08517" fill="none" stroke="#000000" stroke-width="0.25" stroke-linecap="round"/><path d="M227.65421,190.13413l1.07498,-2.01005l1.88908,0.18753" fill="none" stroke="#000000" stroke-width="0.25" stroke-linecap="round"/></g><g><path d="M240.93483,184.13062c0.86756,0.53122 2.13882,1.49173 2.13882,1.49173l-0.08368,0.85411c0,0 -2.08199,-1.28239 -2.84738,-1.75522c-0.71059,-0.43899 -1.26361,-0.87058 -1.26361,-0.87058l0.132,-0.7309c0,0 1.05629,0.47963 1.92384,1.01086z" fill="#3ad3cf" stroke="none" stroke-width="0" stroke-linecap="butt"/><g><path d="M243.50316,188.34997c-1.14131,-1.3253 -1.27988,-2.98961 -1.13302,-3.30845c0.44856,-0.97387 3.11441,-1.31998 4.3744,0.38986c1.04025,1.41167 1.62577,2.37211 1.17468,3.64544c-0.15788,0.4629 -2.83941,1.104 -4.41606,-0.72685z" fill="#ffffff" stroke="none" stroke-width="0" stroke-linecap="butt"/><path d="M243.41471,185.88433l0.24824,-0.97953" fill="none" stroke="#808080" stroke-width="0.5" stroke-linecap="round"/><path d="M244.9094,186.11975l0.23063,-0.76403" fill="none" stroke="#808080" stroke-width="0.5" stroke-linecap="round"/><path d="M245.99955,186.67342l0.31073,-0.71503" fill="none" stroke="#808080" stroke-width="0.5" stroke-linecap="round"/><path d="M247.07212,187.44258l0.29313,-0.49953" fill="none" stroke="#808080" stroke-width="0.5" stroke-linecap="round"/><path d="M242.50238,185.21317c0,0 1.82865,0.1388 2.88718,0.56743c1.05853,0.42863 2.26085,1.78944 2.26085,1.78944" fill="none" stroke="#020202" stroke-width="0.25" stroke-linecap="round"/></g></g></g></g></svg>