<svg version="1.1" xmlns="http://www.w3.org/2000/svg" xmlns:xlink="http://www.w3.org/1999/xlink" width="24.5285" height="34.16637" viewBox="0,0,24.5285,34.16637"><g transform="translate(-228.77466,-165.2306)"><g data-paper-data="{&quot;isPaintingLayer&quot;:true}" fill-rule="nonzero" stroke-linejoin="miter" stroke-miterlimit="10" stroke-dasharray="" stroke-dashoffset="0" style="mix-blend-mode: normal"><g data-paper-data="{&quot;index&quot;:null}"><g stroke="#ffffff" stroke-width="0" stroke-linecap="butt"><path d="M240.33089,179.63102l-0.64187,-0.34974l1.20542,-2.44095l0.61629,0.59866z" data-paper-data="{&quot;index&quot;:null}" fill="#319a2b"/><path d="M240.44261,179.77838c-0.05984,0.60216 -1.34946,3.33777 -1.34946,3.33777l-1.04314,-1.1264c0,0 0.84321,-1.94006 1.57707,-2.7169c0.30371,-0.32151 0.87955,-0.13867 0.81553,0.50552z" data-paper-data="{&quot;index&quot;:null}" fill="#ead42f"/><path d="M235.99502,182.70976c-1.25151,-0.76542 -1.69725,-2.70215 -1.34819,-2.8998c1.10367,-0.62489 1.79581,-0.37727 3.1054,0.28385c1.58621,0.80075 1.73556,3.06455 1.01993,3.57704c-0.2343,0.1678 -1.52564,-0.19568 -2.77714,-0.96109z" data-paper-data="{&quot;index&quot;:null}" fill="#f0e9bb"/></g><path d="M235.54836,179.53476c0,0 1.26972,0.84175 1.76205,1.67455c0.49232,0.8328 0.85368,2.3432 0.85368,2.3432" data-paper-data="{&quot;index&quot;:null}" fill="none" stroke="#d3c49c" stroke-width="0.25" stroke-linecap="round"/><path d="M237.49444,182.87069l0.76261,-0.32404" data-paper-data="{&quot;index&quot;:null}" fill="none" stroke="#ffffff" stroke-width="0.5" stroke-linecap="round"/><path d="M237.09994,181.65069l0.5898,-0.28364" data-paper-data="{&quot;index&quot;:null}" fill="none" stroke="#ffffff" stroke-width="0.5" stroke-linecap="round"/><path d="M237.04074,180.4617l-0.53908,0.34469" data-paper-data="{&quot;index&quot;:null}" fill="none" stroke="#ffffff" stroke-width="0.5" stroke-linecap="round"/><path d="M236.09685,179.69816l-0.36627,0.30431" data-paper-data="{&quot;index&quot;:null}" fill="none" stroke="#ffffff" stroke-width="0.5" stroke-linecap="round"/></g><g data-paper-data="{&quot;index&quot;:null}"><g data-paper-data="{&quot;index&quot;:null}" stroke="none" stroke-width="0" stroke-linecap="butt"><path d="M233.02497,198.69467c-1.2282,0.34174 -0.20026,-2.88593 0.2,-3.82926c0.32843,-1.14531 1.75475,-2.89624 1.75475,-2.89624c0,0 0.91286,-1.26633 1.06083,-0.27276c0.06888,0.46252 0.16595,0.9073 0.20822,1.34961c0.04852,0.50786 0.02475,1.01243 -0.19696,1.53677c0,0 -1.34558,3.64409 -3.02684,4.1119z" data-paper-data="{&quot;index&quot;:null}" fill="#54c81c"/><path d="M235.85556,189.04258l1.86028,-5.30444l1.42215,0.36133c0,0 -1.01434,3.47728 -1.93725,5.30172c-0.3102,0.56892 -1.6537,4.52026 -1.6537,4.52026c0,0 -0.87499,2.18096 -1.34543,2.60824c-0.59844,0.54352 -0.8166,-0.66793 -0.73527,-1.01877c0,0 0.56233,-1.2488 0.88196,-2.04261c0.4725,-1.17344 1.50725,-4.42569 1.50725,-4.42569z" data-paper-data="{&quot;index&quot;:null}" fill="#ffffff"/></g><path d="M234.41799,196.68359l-0.20916,-0.45973" fill="none" stroke="#000000" stroke-width="0.5" stroke-linecap="round"/><path d="M234.7603,195.36259l0.14228,0.43467" fill="none" stroke="#000000" stroke-width="0.5" stroke-linecap="round"/></g><g data-paper-data="{&quot;index&quot;:null}"><g data-paper-data="{&quot;index&quot;:null}" stroke="none" stroke-width="0" stroke-linecap="butt"><path d="M235.81764,199.19331c-1.02682,-1.41106 0.18267,-5.10255 0.18267,-5.10255c0.15201,-0.54862 0.44687,-0.95877 0.80039,-1.32658c0.30789,-0.32033 0.66029,-0.60857 1.0016,-0.92821c0.73321,-0.68666 0.66182,0.87278 0.66182,0.87278c0,0 0.02991,2.25816 -0.42427,3.35966c-0.27241,0.98788 -1.4721,4.15572 -2.22222,3.1249z" data-paper-data="{&quot;index&quot;:null}" fill="#54c81c"/><path d="M239.59594,189.87137c0,0 -1.20962,3.19135 -1.56839,4.4044c-0.24269,0.8206 -0.57788,2.14854 -0.57788,2.14854c-0.15423,0.32544 -1.07781,1.1392 -1.20907,0.34153c-0.10319,-0.62708 0.56609,-2.8797 0.56609,-2.8797c0,0 1.40201,-3.93095 1.51236,-4.56947c0.41024,-2.00301 1.77567,-5.35802 1.77567,-5.35802l1.33889,0.60038l-1.83767,5.31232z" data-paper-data="{&quot;index&quot;:null}" fill="#ffffff"/></g><path d="M236.49931,195.29484l-0.51749,0.2084" fill="none" stroke="#000000" stroke-width="0.5" stroke-linecap="round"/><path d="M235.94686,196.54266l0.44951,-0.23031" fill="none" stroke="#000000" stroke-width="0.5" stroke-linecap="round"/></g><g data-paper-data="{&quot;index&quot;:null}"><g data-paper-data="{&quot;index&quot;:null}" stroke="none" stroke-width="0" stroke-linecap="butt"><path d="M228.77469,183.95947c0,0 0.15467,-3.00383 3.46601,-3.82411c0.62696,-0.1553 -1.72184,1.54754 -1.39704,2.23423c0.32476,0.68661 3.59468,0.94861 3.59468,0.94861c0,0 -2.96005,-0.01093 -3.73189,0.1151c-0.77184,0.12603 -1.93179,0.52617 -1.93179,0.52617z" fill="#54c81c"/><path d="M239.9601,179.96212c0,0 -3.89889,3.02474 -5.47625,3.26709c-1.45625,0.22374 -4.7401,-0.62627 -4.23768,-1.58725c0.50242,-0.96098 2.80111,-2.08646 5.04146,-2.00826c1.84893,0.06454 4.67247,0.32843 4.67247,0.32843z" fill="#ffffff"/></g><path d="M231.44802,182.40746l-0.75342,0.47946" fill="none" stroke="#ffffff" stroke-width="0.25" stroke-linecap="round"/><path d="M229.94116,182.20199l0.47946,-0.34247" fill="none" stroke="#ffffff" stroke-width="0.25" stroke-linecap="round"/></g><g data-paper-data="{&quot;index&quot;:null}"><g data-paper-data="{&quot;index&quot;:null}" stroke="none" stroke-width="0" stroke-linecap="butt"><path d="M237.13137,186.25458c0,0 -1.26386,1.47551 -2.52348,1.81572c-1.51621,0.4095 -3.6768,1.49594 -3.6768,1.49594c0,0 0.58221,-3.49292 1.21014,-4.83549c1.08445,-2.3262 2.30858,-2.6437 2.30858,-2.6437c0,0 -1.38372,3.05828 -0.89545,3.92238c0.48113,0.85149 3.57701,0.24514 3.57701,0.24514z" fill="#54c81c"/><path d="M234.35907,182.0478c0.12458,-0.09554 1.99062,-1.39298 3.41603,-1.29092c1.89183,0.13547 1.89719,-0.94327 2.26388,-0.11456c0.36668,0.82871 0.42574,2.62144 -0.68641,3.72167c-0.92569,0.91578 -2.24933,1.91027 -2.24933,1.91027c0,0 -3.23629,1.14656 -3.8004,-0.20079c-0.60082,-1.53786 0.92625,-3.92598 1.05624,-4.02566z" fill="#ffffff"/></g><path d="M235.21514,186.58555l-0.34247,0.41096" fill="none" stroke="#ffffff" stroke-width="0.25" stroke-linecap="round"/><path d="M233.6398,186.31157l-0.20548,0.47945" fill="none" stroke="#ffffff" stroke-width="0.25" stroke-linecap="round"/><path d="M233.43432,184.80472l-0.54794,0.54794" fill="none" stroke="#ffffff" stroke-width="0.25" stroke-linecap="round"/></g><g data-paper-data="{&quot;index&quot;:null}"><g data-paper-data="{&quot;index&quot;:null}" stroke="none" stroke-width="0" stroke-linecap="butt"><path d="M241.6384,182.17832c0,0 5.20605,1.53338 5.38233,1.49935c0.17629,-0.03403 0.29063,0.41337 0.39565,0.88398c0.10502,0.4706 0.10997,1.54894 0.10997,1.54894c0,0 -0.02505,-0.41479 -0.91247,-0.8984c-0.5252,-0.28623 -1.53832,-0.64578 -2.25443,-1.04862c-1.29917,-0.73082 -2.72106,-1.98523 -2.72106,-1.98523z" fill="#54c81c"/><path d="M242.62776,182.85942c-3.60638,-2.20527 -3.61836,-4.15879 -3.61836,-4.15879c0,0 -0.19084,-0.29355 1.03608,0.50077c0.42197,0.27319 1.67549,-0.08476 3.94668,1.06499c2.90587,1.47105 3.29369,3.72196 3.29369,3.72196c0,0 -2.06232,0.45838 -4.65809,-1.12892z" fill="#ffffff"/></g><path d="M245.41227,183.68759l0.38966,0.55491" fill="none" stroke="#ffffff" stroke-width="0.25" stroke-linecap="round"/><path d="M246.81395,184.41956l-0.25472,-0.53131" fill="none" stroke="#ffffff" stroke-width="0.25" stroke-linecap="round"/></g><g data-paper-data="{&quot;index&quot;:null}"><g data-paper-data="{&quot;index&quot;:null}" stroke="none" stroke-width="0" stroke-linecap="butt"><path d="M243.93404,190.74076c0,0 -0.36043,-1.2217 -1.04001,-2.12734c-0.67958,-0.90562 -2.8595,-2.73979 -2.8595,-2.73979l4.78081,-1.86644c0,0 0.77269,1.87666 0.8491,3.23851c0.10109,1.80146 -1.73039,3.49507 -1.73039,3.49507z" fill="#54c81c"/><path d="M244.36071,187.52008c-1.2441,0.75041 -4.96193,-1.63621 -5.87026,-3.45704c-0.97092,-1.94633 0.3639,-5.06337 0.3639,-5.06337l0.86918,-0.13053c0,0 0.23458,1.18196 1.96167,2.0387c2.53229,1.25617 2.73661,2.44706 3.13014,3.09935c0.39651,0.65724 0.83958,2.73228 -0.45463,3.5129z" fill="#ffffff"/></g><path d="M242.66805,187.29644l0.31283,0.48981" fill="none" stroke="#ffffff" stroke-width="0.25" stroke-linecap="round"/><path d="M244.22908,187.85107l-0.24594,-0.47506" fill="none" stroke="#ffffff" stroke-width="0.25" stroke-linecap="round"/><path d="M244.72471,186.55758l0.43184,0.5862" fill="none" stroke="#ffffff" stroke-width="0.25" stroke-linecap="round"/></g><g data-paper-data="{&quot;index&quot;:null}"><path d="M237.63842,181.28862c-0.30427,-0.44307 -0.06637,-1.7509 0.28957,-2.80676c0.35593,-1.05586 0.95764,-1.25421 1.07941,-1.25421c0.15382,0 1.35868,-0.24869 2.06043,0.1482c0.70175,0.39689 0.46391,0.81182 0.64221,1.38034c0.1783,0.56851 0.3376,1.53269 0.32786,1.71279c-0.02505,0.46123 -1.45551,0.25457 -1.70209,0.53654c0,0 -2.33148,0.68137 -2.69739,0.28309z" data-paper-data="{&quot;index&quot;:null}" fill="#319a2b" stroke="none" stroke-width="0.17188" stroke-linecap="butt"/><path d="M239.01159,181.03802c0.61263,0 0.86005,-0.34217 1.03805,-0.04276c0.09193,0.15462 -0.5466,0.49821 -1.15798,0.46382c-0.68831,-0.17263 -1.50188,0.15139 -1.50188,0.15139l0.22399,-0.60534c0,0 0.78518,0.03289 1.39781,0.03289z" data-paper-data="{&quot;index&quot;:null}" fill="#ead42f" stroke="none" stroke-width="0" stroke-linecap="butt"/><path d="M242.0977,180.38421l0.34058,0.49225c0,0 -0.69825,-0.197 -1.3616,0.05504c-0.60314,0.10575 -0.80044,-0.29103 -0.19203,-0.36277c0.60841,-0.07174 1.21306,-0.18453 1.21306,-0.18453z" data-paper-data="{&quot;index&quot;:null}" fill="#ead42f" stroke="none" stroke-width="0" stroke-linecap="butt"/><path d="M239.10879,180.77492l-0.07853,0.38091" fill="none" stroke="#ffffff" stroke-width="0.25" stroke-linecap="round"/><path d="M238.17567,180.83174l-0.09109,0.32829" fill="none" stroke="#ffffff" stroke-width="0.25" stroke-linecap="round"/><path d="M241.1882,180.62701l-0.03093,-0.30573" fill="none" stroke="#ffffff" stroke-width="0.25" stroke-linecap="round"/><path d="M241.97431,180.65292l-0.147,-0.38175" fill="none" stroke="#ffffff" stroke-width="0.25" stroke-linecap="round"/></g><g data-paper-data="{&quot;index&quot;:null}" stroke="none" stroke-linecap="butt"><path d="M240.01284,177.35819c0.17022,-0.06911 0.34154,0.07628 0.48084,0.36686c0.1393,0.29058 0.24674,0.72652 0.28893,1.23856c0.04223,0.51194 0.0113,1.00389 -0.07258,1.38519c-0.08398,0.38127 -0.22099,0.65174 -0.3912,0.72085c-0.17009,0.06905 -0.34142,-0.07634 -0.48082,-0.36696c-0.1393,-0.29058 -0.24663,-0.72649 -0.28883,-1.23853c-0.04223,-0.51194 -0.01141,-1.00393 0.07258,-1.38519c0.08388,-0.3813 0.221,-0.65174 0.39108,-0.72079z" fill="#eb3d66" stroke-width="0.01872"/><path d="M240.53698,179.19398c0.01852,0.48778 -0.13593,0.88964 -0.34498,0.89758c-0.20905,0.00794 -0.39353,-0.38105 -0.41205,-0.86883c-0.01852,-0.48778 0.13593,-0.88964 0.34498,-0.89758c0.20905,-0.00794 0.39353,0.38105 0.41205,0.86883z" fill="#492116" stroke-width="0"/><path d="M239.90452,177.56186c0.07282,-0.00742 0.13081,0.06727 0.16562,0.19397c0.03489,0.12675 0.04658,0.3055 0.02688,0.50613c-0.01964,0.20068 -0.06709,0.38546 -0.12777,0.52198c-0.06074,0.13658 -0.13469,0.22486 -0.2075,0.23228c-0.07278,0.00755 -0.13075,-0.06722 -0.16563,-0.19397c-0.03489,-0.12675 -0.04658,-0.3055 -0.02692,-0.50605c0.01972,-0.20063 0.06714,-0.38554 0.12783,-0.52204c0.06074,-0.13658 0.13464,-0.22478 0.20751,-0.23227z" fill="#ffffff" stroke-width="0.01896"/></g><g data-paper-data="{&quot;index&quot;:null}"><g stroke="none" stroke-width="0" stroke-linecap="butt"><path d="M236.93205,180.52334l-0.5392,-0.49353l1.75587,-2.08043l0.45465,0.72904z" fill="#319a2b"/><path d="M237.00517,180.69321c-0.20257,0.57022 -2.11088,2.91648 -2.11088,2.91648l-0.74241,-1.34377c0,0 1.28405,-1.68108 2.18287,-2.25916c0.37198,-0.23924 0.88714,0.07644 0.67042,0.68644z" fill="#ead42f"/><path d="M232.0606,182.3558c-0.96787,-1.10243 -0.81859,-3.0842 -0.42659,-3.1693c1.23942,-0.2691 1.82684,0.17284 2.88115,1.19291c1.277,1.23554 0.74758,3.44163 -0.08792,3.71857c-0.27354,0.09067 -1.39877,-0.63976 -2.36664,-1.74218z" fill="#f0e9bb"/></g><path d="M232.85573,179.39748c0,0 0.99782,1.15112 1.24906,2.08536c0.25123,0.93424 0.19478,2.48625 0.19478,2.48625" fill="none" stroke="#d3c49c" stroke-width="0.25" stroke-linecap="round"/><path d="M234.65858,183.02488l-0.82154,0.10791" fill="none" stroke="#ffffff" stroke-width="0.5" stroke-linecap="round"/><path d="M234.42801,181.73642l-0.64423,0.11529" fill="none" stroke="#ffffff" stroke-width="0.5" stroke-linecap="round"/><path d="M234.04526,180.69032l-0.61172,0.18768" fill="none" stroke="#ffffff" stroke-width="0.5" stroke-linecap="round"/><path d="M232.90599,179.89689l0.4344,-0.19507" fill="none" stroke="#ffffff" stroke-width="0.5" stroke-linecap="round"/></g><g data-paper-data="{&quot;index&quot;:null}"><path d="M243.36716,169.60242c3.4999,1.40215 2.48773,4.50163 2.42858,4.76273c-0.17371,0.60644 -0.50831,1.16136 -0.91666,1.63844c-0.67532,0.80131 -1.62501,1.40735 -2.67794,1.53273c-0.49874,-0.00551 -0.43019,0.011 -0.92277,0.02918c-0.77289,0.15152 -1.68531,-0.12135 -2.37654,-0.41344c-0.57331,-0.20729 -1.10821,-0.50648 -1.59458,-0.87441c-0.30589,-0.24921 -0.67496,-0.46087 -0.86485,-0.81965c-0.17155,-0.33702 -0.25993,-0.74197 -0.12051,-1.10625c0.28999,-0.90403 0.57208,-1.81221 0.94264,-2.68673c0.11419,-0.23438 0.20104,-0.5065 0.40719,-0.67844c0.24052,-0.11259 1.47334,-3.07567 5.69545,-1.38418z" data-paper-data="{&quot;index&quot;:null}" fill="#f0e9bb" stroke="none" stroke-width="0.17188" stroke-linecap="butt"/><path d="M247.13635,170.13945c0.90222,0.23248 1.46097,0.61968 1.71238,1.03185c0.03591,0.05854 -0.0087,0.08562 0.02837,0.17165c0.04483,0.10418 0.20317,0.30062 0.17582,0.25701c0,0 -0.13531,0.11698 -0.15741,0.18952c-0.02802,0.09223 0.04107,0.24163 -0.0345,0.18507c0,0 0.00225,0.15345 -0.02877,0.19586c-0.33857,0.4633 -1.03313,0.95483 -1.72779,1.06785c0.11036,0.57382 -0.64524,-2.91292 0.03193,-3.09878z" data-paper-data="{&quot;index&quot;:null}" fill="#ed3e67" stroke="none" stroke-width="0.17188" stroke-linecap="butt"/><path d="M237.87312,170.92847l-1.05024,2.14935l-0.52148,1.86788l-0.27103,1.36229c-0.03166,0.16022 -1.1165,-1.64994 -1.27015,-2.19584c-0.19022,-0.67545 -0.2171,-1.33939 -0.24116,-2.00318c-0.01773,-0.48378 0.03566,-0.65695 0.09882,-0.97702l0.19632,-0.99363c0.03727,-0.1888 0.31866,-1.11109 0.55278,-1.19267c0.06644,-0.02313 0.49591,0.6741 0.56686,0.70141l0.51842,0.19789c0.15375,0.05886 0.74171,-0.07742 0.91745,-0.12966c0.12838,-0.03805 0.91026,-0.41816 1.20927,-0.98125l0.29574,-0.55703c0.04431,-0.08341 0.20222,-1.08538 0.24378,-1.08736c0.08568,-0.00434 -0.31704,-1.30563 -0.22619,-1.31415c0.5058,-0.04804 1.12529,-0.12106 1.74165,-0.01153c0.96898,0.17217 1.92973,0.60239 2.42541,0.81489c0.08452,0.03624 1.15238,0.51931 1.70958,1.00513c0.88237,0.76922 1.18713,1.66516 1.21192,1.71768c0.38946,0.82436 0.58063,1.67593 0.60006,2.55106l-0.08212,0.6995c-0.042,0.35806 -0.35294,2.03925 -0.85987,3.24944c-1.06683,2.54684 -3.19121,3.66042 -3.35068,3.47557c-0.22359,-0.25871 -0.05262,-1.91097 -0.20425,-1.81556c-0.33604,0.21124 1.50536,-0.27676 2.1919,-0.95172c0.68655,-0.67496 1.39173,-2.62367 1.44527,-2.78328c0.04247,-0.12612 0.00898,-0.25694 -0.12743,-0.27609c-0.09077,-0.01282 -1.11092,-0.22974 -1.56126,-0.14762c-0.45035,0.08212 -1.63873,0.81109 -1.63874,0.73503c0.00007,-0.02831 -0.23885,-0.40635 -0.21213,-0.43781c0.16187,-0.19011 -0.5945,0.09056 -0.69705,0.14028c-0.2697,0.13073 -0.23569,-1.34518 -0.90496,-2.04789c-0.66927,-0.70272 -1.55559,-1.04545 -1.80376,-0.95318c-0.09884,0.03676 -0.36923,0.07347 -0.50841,0.09211c-0.18515,0.02466 -0.30915,0.03331 -0.39431,0.09696z" data-paper-data="{&quot;index&quot;:null}" fill="#54c81c" stroke="none" stroke-width="0.17188" stroke-linecap="butt"/><path d="M234.73339,167.9291c-0.48038,-0.42233 -0.78542,-1.15284 -0.83045,-1.69138c-0.0042,-0.04933 0.0687,-0.17327 0.0687,-0.17327c-0.08421,0.01015 0.03827,-0.07871 0.05942,-0.16714c0.01665,-0.06949 -0.033,-0.22923 -0.033,-0.22923c-0.04121,0.02259 0.17123,-0.06219 0.25397,-0.12562c0.06832,-0.05258 0.04658,-0.09586 0.10135,-0.12669c0.38373,-0.21601 0.99165,-0.26578 1.79145,-0.02649c1.04637,0.31327 1.62395,1.41432 1.475,1.7749c0,0 -2.06595,1.48599 -2.8864,0.76491z" data-paper-data="{&quot;index&quot;:null}" fill="#ed3e67" stroke="none" stroke-width="0.17188" stroke-linecap="butt"/><path d="M238.08886,168.11131c0.17714,-0.03926 -0.79517,1.16327 -1.22775,1.20846c-0.74392,0.07762 -0.77586,0.34785 -1.22997,-0.025c-0.10207,-0.08355 -0.24813,-0.38473 -0.52358,-0.6591c-0.31921,-0.31767 -0.56877,-0.67907 -0.41398,-0.69238l0.95301,-0.13269l1.65961,-0.79455c0.0258,-0.01237 -0.12564,-0.30379 -0.38142,-0.70827c-0.17931,-0.28367 -0.47056,-0.65268 -0.7188,-0.88869c-0.14633,-0.13901 0.28535,-0.19677 0.83966,-0.13369c0.26872,0.03054 0.5615,0.04514 0.83971,0.17888c0.48175,0.23177 0.60897,0.94613 0.5042,1.57375c-0.09805,0.58778 -0.41853,1.09917 -0.30069,1.07326z" data-paper-data="{&quot;index&quot;:null}" fill="#54c81c" stroke="none" stroke-width="0.17188" stroke-linecap="butt"/><path d="M238.8148,168.3718c-0.43918,1.13305 -1.95928,1.66815 -2.30764,1.49447l-0.60697,-0.12956l-0.60144,-0.80656c-0.15394,-0.20658 1.08282,0.53042 1.54854,0.31099c0.30391,-0.14307 0.5299,-0.2572 0.59683,-0.33591c0.63677,-0.75116 0.89919,-1.47213 0.91812,-2.00473c0.02976,-0.8369 -0.41542,-1.29305 0.00595,-1.3151c1.00481,-0.05284 0.92651,1.5481 0.44663,2.78639z" data-paper-data="{&quot;index&quot;:null}" fill="#ead32e" stroke="none" stroke-width="0.17188" stroke-linecap="butt"/><path d="M246.24373,170.0632c-0.16742,-0.67841 -0.61444,-1.2295 -0.44366,-1.32971c0.11645,-0.02096 0.53807,0.29853 0.61706,0.47325l0.16057,0.35474c0.28225,0.62391 0.20453,1.3291 0.09052,1.58393c-0.04929,0.11022 -0.01543,0.3626 -0.10688,0.47014c0,0 -0.14299,-0.51172 -0.11149,-0.79642c0,0 -0.12587,-0.43072 -0.20612,-0.75593z" data-paper-data="{&quot;index&quot;:null}" fill="#ead32e" stroke="none" stroke-width="0.17188" stroke-linecap="butt"/><path d="M246.61358,169.4469c0,0 1.00866,0.38072 1.07345,0.72998c0.04318,0.23197 -0.30153,0.60642 -0.22077,0.80236c0.10025,0.24328 0.1809,0.77517 0.18781,1.14479c-0.07739,0.30336 -0.08783,0.6201 -0.34255,0.88896c-0.06654,0.30253 -0.98215,0.53112 -0.96947,0.42812l0.17217,-1.40004c0.04371,-0.35524 0.11096,-1.08412 0.10973,-1.23813z" data-paper-data="{&quot;index&quot;:null}" fill="#54c81c" stroke="none" stroke-width="0.17188" stroke-linecap="butt"/><path d="M238.29055,171.26365c0.62058,-0.41417 1.59201,-0.04062 1.90912,0.49128c0.31711,0.5319 0.07111,1.29884 -0.54948,1.71301c-0.62058,0.41417 -1.38073,0.31872 -1.69784,-0.21318c-0.31712,-0.53191 -0.28239,-1.57695 0.3382,-1.99112z" fill="#000000" stroke="none" stroke-width="0" stroke-linecap="butt"/><path d="M244.3706,175.99888c-0.60005,0.15303 -1.20596,-0.31583 -1.35332,-1.04723c-0.14736,-0.73139 0.21963,-1.44836 0.81968,-1.60139c0.60005,-0.15303 1.49002,0.20123 1.63738,0.93263c0.14736,0.7314 -0.50369,1.56296 -1.10374,1.71599z" data-paper-data="{&quot;index&quot;:null}" fill="#000000" stroke="none" stroke-width="0" stroke-linecap="butt"/><path d="M238.11084,175.45913l0.29291,0.54035" fill="none" stroke="#000000" stroke-width="0.25" stroke-linecap="round"/><path d="M239.34226,176.68241l-0.5291,-0.29069" fill="none" stroke="#000000" stroke-width="0.25" stroke-linecap="round"/><path d="M239.87135,176.97311l0.55455,0.22909" fill="none" stroke="#000000" stroke-width="0.25" stroke-linecap="round"/><path d="M240.96973,177.28258l0.54384,0.08039" fill="none" stroke="#000000" stroke-width="0.25" stroke-linecap="round"/><path d="M242.42043,177.08842l-0.4099,0.1192" fill="none" stroke="#000000" stroke-width="0.25" stroke-linecap="round"/><path d="M238.56237,174.67762l-0.45262,0.28515l-0.30325,-0.31684" fill="none" stroke="#000000" stroke-width="0.25" stroke-linecap="round"/><path d="M243.15311,176.95294l-0.42942,-0.0891l0.00174,-0.53495" data-paper-data="{&quot;index&quot;:null}" fill="none" stroke="#000000" stroke-width="0.25" stroke-linecap="round"/><path d="M239.24324,173.12682l-0.57297,-1.42033" fill="none" stroke="#ffffff" stroke-width="0.25" stroke-linecap="round"/><path d="M238.25256,172.79981l1.35707,-0.81168" fill="none" stroke="#ffffff" stroke-width="0.25" stroke-linecap="round"/><path d="M238.33367,171.36333c0.13777,-0.1559 0.37584,-0.1706 0.53174,-0.03284c0.1559,0.13777 0.1706,0.37584 0.03284,0.53174c-0.13777,0.1559 -0.37584,0.1706 -0.53174,0.03284c-0.1559,-0.13777 -0.1706,-0.37584 -0.03284,-0.53174z" fill="#ffffff" stroke="none" stroke-width="0" stroke-linecap="butt"/><path d="M239.06062,172.91973c0.13777,-0.1559 0.37584,-0.1706 0.53174,-0.03284c0.1559,0.13777 0.1706,0.37584 0.03284,0.53174c-0.13777,0.1559 -0.37584,0.1706 -0.53174,0.03284c-0.1559,-0.13777 -0.1706,-0.37584 -0.03284,-0.53174z" fill="#ffffff" stroke="none" stroke-width="0" stroke-linecap="butt"/><path d="M239.49924,172.16479c-0.1559,-0.13776 -0.17061,-0.37584 -0.03285,-0.53174c0.13776,-0.15591 0.37584,-0.1706 0.53174,-0.03284c0.1559,0.13777 0.1706,0.37584 0.03284,0.53174c-0.13777,0.1559 -0.37584,0.1706 -0.53174,0.03284z" fill="#ffffff" stroke="none" stroke-width="0" stroke-linecap="butt"/><path d="M237.97325,172.59871c0.13777,-0.1559 0.37584,-0.1706 0.53174,-0.03284c0.1559,0.13777 0.1706,0.37584 0.03284,0.53174c-0.13777,0.1559 -0.37584,0.1706 -0.53174,0.03284c-0.1559,-0.13777 -0.1706,-0.37584 -0.03284,-0.53174z" fill="#ffffff" stroke="none" stroke-width="0" stroke-linecap="butt"/><path d="M243.87754,173.93086l0.57297,1.42033" fill="none" stroke="#ffffff" stroke-width="0.25" stroke-linecap="round"/><path d="M244.8169,174.2125l-1.35707,0.81168" fill="none" stroke="#ffffff" stroke-width="0.25" stroke-linecap="round"/><path d="M243.54094,173.5877c0.13777,-0.1559 0.37584,-0.1706 0.53174,-0.03284c0.1559,0.13777 0.1706,0.37584 0.03284,0.53174c-0.13777,0.1559 -0.37584,0.1706 -0.53174,0.03284c-0.1559,-0.13777 -0.1706,-0.37584 -0.03284,-0.53174z" fill="#ffffff" stroke="none" stroke-width="0" stroke-linecap="butt"/><path d="M244.26789,175.1441c0.13777,-0.1559 0.37584,-0.1706 0.53174,-0.03284c0.1559,0.13777 0.1706,0.37584 0.03284,0.53174c-0.13777,0.1559 -0.37584,0.1706 -0.53174,0.03284c-0.1559,-0.13777 -0.1706,-0.37584 -0.03284,-0.53174z" fill="#ffffff" stroke="none" stroke-width="0" stroke-linecap="butt"/><path d="M244.70651,174.38916c-0.1559,-0.13776 -0.17061,-0.37584 -0.03285,-0.53174c0.13776,-0.15591 0.37584,-0.1706 0.53174,-0.03284c0.1559,0.13777 0.1706,0.37584 0.03284,0.53174c-0.13777,0.1559 -0.37584,0.1706 -0.53174,0.03284z" fill="#ffffff" stroke="none" stroke-width="0" stroke-linecap="butt"/><path d="M243.18052,174.82308c0.13777,-0.1559 0.37584,-0.1706 0.53174,-0.03284c0.1559,0.13777 0.1706,0.37584 0.03284,0.53174c-0.13777,0.1559 -0.37584,0.1706 -0.53174,0.03284c-0.1559,-0.13777 -0.1706,-0.37584 -0.03284,-0.53174z" fill="#ffffff" stroke="none" stroke-width="0" stroke-linecap="butt"/></g><g data-paper-data="{&quot;index&quot;:null}"><path d="M242.38045,167.97782c0,0 1.57254,-1.43127 2.79684,-1.95563c1.22429,-0.52436 2.90001,0.01771 2.90001,0.01771l-0.3227,0.67931c0,0 -1.10906,-0.52378 -2.27142,-0.02192c-1.16236,0.50186 -2.6282,1.75787 -2.6282,1.75787z" fill="#000000" stroke="none" stroke-width="0" stroke-linecap="butt"/><path d="M247.28961,165.89578l3.66197,-0.28719l2.26255,3.94092l-4.22441,-0.65515z" fill="#ea035a" stroke="none" stroke-width="0" stroke-linecap="butt"/><path d="M247.37493,166.04067l5.80323,3.37344" fill="none" stroke="#000000" stroke-width="0.25" stroke-linecap="round"/><path d="M249.01091,168.91211l-0.25459,-2.14262l2.2606,-1.26573" fill="none" stroke="#000000" stroke-width="0.25" stroke-linecap="round"/></g></g></g></svg>