<svg version="1.1" xmlns="http://www.w3.org/2000/svg" xmlns:xlink="http://www.w3.org/1999/xlink" width="141.41828" height="270.28312" viewBox="0,0,141.41828,270.28312"><g transform="translate(-184.38326,-0.00176)"><g data-paper-data="{&quot;isPaintingLayer&quot;:true}" fill-rule="nonzero" stroke-linejoin="miter" stroke-miterlimit="10" stroke-dasharray="" stroke-dashoffset="0" style="mix-blend-mode: normal"><g data-paper-data="{&quot;index&quot;:null}" stroke="none" stroke-width="0" stroke-linecap="butt"><path d="M228.85974,251.18353c11.79028,-12.28181 18.69873,-35.93415 22.67893,-32.11323c3.9802,3.82092 -3.60071,15.50755 -20.2771,35.7326c-10.83087,13.13569 -21.66476,11.49934 -25.64496,7.67843c-3.98027,-3.82098 11.45285,0.98401 23.24313,-11.2978z" fill="#310808"/><path d="M204.78469,262.04854c-5.60544,-4.08529 1.20953,-24.52249 10.40141,-37.13472c5.12526,-7.03247 14.4785,-15.88049 21.95626,-15.91695c5.93302,-0.02889 11.40472,7.23294 13.83084,9.11189c3.46943,2.68697 -6.79389,17.20508 -18.37064,32.52799c-9.40774,12.45201 -22.2125,15.49708 -27.81794,11.41179z" fill="#6b1c27"/><path d="M237.50552,243.8815c0,0 -8.37056,-8.41913 -14.92291,-11.4133c-8.37541,-3.82723 -14.71733,5.19534 -14.71733,5.19534l5.61426,-10.59759c0,0 6.19986,-8.84455 16.80388,-3.73235c6.93324,3.34251 14.48102,10.49679 14.48102,10.49679z" fill="#747875"/></g><g data-paper-data="{&quot;index&quot;:null}" stroke="none" stroke-width="0" stroke-linecap="butt"><g><path d="M223.07086,267.94969c-4.17853,-3.60303 11.48906,0.37117 22.60682,-12.5226c11.11777,-12.89376 16.75361,-36.88113 20.93214,-33.27816c4.17853,3.60303 -2.76765,15.67762 -18.34055,36.76418c-10.11426,13.69516 -21.01995,12.63955 -25.19847,9.03657z" fill="#310808"/><path d="M222.2168,267.56187c-5.81556,-3.78017 -0.10137,-24.55207 8.40405,-37.63704c4.74261,-7.29609 13.61012,-16.63085 21.07527,-17.06649c5.92305,-0.34562 11.77464,6.6138 14.29759,8.36053c3.60796,2.49791 -5.86571,17.54326 -16.60789,33.46235c-8.72949,12.93653 -21.35339,16.66082 -27.16895,12.88065z" fill="#6b1c27"/><path d="M253.92126,247.67399c0,0 -8.80803,-7.96021 -15.5109,-10.60037c-8.56781,-3.37468 -14.41902,5.97365 -14.41902,5.97365l5.04048,-10.88222c0,0 5.71886,-9.16293 16.58064,-4.62414c7.1018,2.96761 15.02076,9.70871 15.02076,9.70871z" fill="#747875"/></g><path d="M248.07996,242.81517c-4.5321,-3.30705 -4.88353,-4.48188 -1.84495,-8.35024c2.55979,-3.25892 4.37099,-4.23713 8.72949,-1.04974c4.60799,3.36982 5.05663,3.62082 2.09532,7.9305c-3.25123,4.73144 -4.56421,4.77654 -8.9798,1.46949z" fill="#b29540"/><path d="M249.89791,240.50085c-2.24817,-1.6405 -2.42253,-2.22331 -0.91519,-4.14226c1.26983,-1.61659 2.16824,-2.10188 4.33037,-0.52074c2.28583,1.6716 2.50838,1.79619 1.03939,3.93402c-1.61281,2.34708 -2.26413,2.36947 -4.45451,0.72897z" fill="#747875"/></g><path d="M197.06393,105.17839c-8.68319,-10.89647 -12.68067,-29.75461 -12.68067,-29.75461l22.93144,10.04159l20.50154,37.849c0,0 -22.06912,-7.23951 -30.75231,-18.13598z" data-paper-data="{&quot;index&quot;:null}" fill="#0d0a0e" stroke="none" stroke-width="0" stroke-linecap="butt"/><g data-paper-data="{&quot;index&quot;:null}" fill="#0d0a0e" stroke-width="0"><path d="M207.23081,92.08838c0,-18.51523 15.00953,-33.52487 33.52481,-33.52487c18.51523,0 33.52481,15.00959 33.52481,33.52487c0,18.51523 -15.00953,33.52481 -33.52481,33.52481c-18.51523,0 -33.52481,-15.00953 -33.52481,-33.52481z" stroke="none" stroke-linecap="butt"/><path d="M206.67568,86.951c0,0 -0.10017,-24.27181 15.1015,-48.95648c16.82438,-27.31972 39.34069,-37.99276 39.34069,-37.99276l-4.26956,40.2755c0,0 10.43642,0.06592 25.51041,-7.86995c15.40208,-8.10852 19.26022,-19.49463 19.26022,-19.49463c0,0 4.56667,18.30087 -5.36573,42.74413c-8.52233,20.97314 -12.4134,25.26875 -12.4134,25.26875c0,0 8.75012,0.21183 16.3743,-0.6886c7.62424,-0.90043 25.58743,-4.65517 25.58743,-4.65517c0,0 -23.91848,26.99637 -36.7204,34.2688c-12.80198,7.27243 -35.53926,13.1799 -35.53926,13.1799" stroke="#000000" stroke-linecap="round"/></g><path d="M233.50867,130.0325c-0.56605,1.62305 -3.06711,16.27032 -3.06711,16.27032l-2.73391,18.74809l-6.43016,-0.29239l2.67424,-19.62202c0,0 1.48515,-13.01346 3.10484,-17.65742c1.61975,-4.64403 2.27399,-4.97591 4.01679,-4.26862c1.74294,0.70723 4.055,2.17809 2.43531,6.82212z" data-paper-data="{&quot;index&quot;:null}" fill="#111115" stroke="none" stroke-width="0" stroke-linecap="butt"/><g data-paper-data="{&quot;index&quot;:null}"><g><path d="M206.14535,185.76127c0.39296,-3.43373 4.04583,-6.49158 6.99965,-10.87071c2.20378,-3.26714 6.97844,-4.0686 10.00353,-3.72234c6.45902,0.73918 12.86348,3.31575 12.12425,9.77464c-0.24391,2.13136 -0.36255,6.5787 -0.43578,10.79421c-0.07215,4.15858 -0.92894,7.04149 -3.12022,6.99001c-2.8154,-0.06614 -3.00966,-2.15678 -3.00966,-2.15678c0,0 -1.41402,2.14057 -2.75983,2.07462c-1.3458,-0.06602 -3.26611,-2.37345 -3.26611,-2.37345c0,0 -1.6622,1.68845 -3.29413,1.62725c-1.63199,-0.06128 -2.59076,-1.83851 -2.59076,-1.83851c0,0 -1.25029,1.88697 -3.2951,1.67974c-2.04481,-0.2073 -2.25637,-2.66499 -2.25637,-2.66499c0,0 -0.27468,1.84047 -1.60638,1.76927c-1.33168,-0.07119 -0.31059,-0.03422 -0.99678,-0.46392c-0.56529,-0.35402 -2.70302,-8.81155 -2.49614,-10.61878z" fill="#747875" stroke="none" stroke-width="0" stroke-linecap="butt"/><path d="M210.75575,195.91904c0,0 1.62349,-2.47471 2.04094,-4.85498c0.41747,-2.38034 -0.37502,-5.3327 0.49283,-6.1248c1.83444,-1.67451 5.956,-1.25059 5.956,-1.25059" fill="none" stroke="#000000" stroke-width="0.125" stroke-linecap="round"/></g><path d="M224.56503,173.48304c-2.28297,-0.43571 -10.07814,-1.65171 -9.91955,-3.51538c0.29715,-1.77387 2.54286,-3.22994 2.54286,-3.22994c0,0 -2.36961,-1.44904 -1.8286,-3.10117c0.70184,-2.14351 6.85064,-2.40027 10.09133,-1.97539c3.24069,0.42494 6.80911,1.85022 7.70267,3.55265c2.25247,4.29157 -0.67799,4.01849 -0.67799,4.01849c0,0 3.04475,0.49123 1.84788,4.4422c-0.58973,1.94676 -7.19288,0.29844 -9.7587,-0.19127z" fill="#747875" stroke="none" stroke-width="0" stroke-linecap="butt"/></g><path d="M263.81524,126.17758c10.21393,4.88675 22.39582,19.36809 22.39582,19.36809c0,0 -14.63898,-3.95875 -24.13006,-4.46807c-9.49108,-0.50938 -14.20631,-0.99978 -14.20631,-0.99978l-4.77339,-17.72304c0,0 10.50007,-1.06393 20.71393,3.82281z" data-paper-data="{&quot;index&quot;:null}" fill="#0d0a0e" stroke="none" stroke-width="0" stroke-linecap="butt"/><path d="M229.43965,208.93005l-1.56083,-52.79392l9.8929,0.10099c0,0 -2.15215,9.18702 -2.15954,19.55582c-0.00744,10.36873 2.12661,26.36788 2.12661,26.36788z" data-paper-data="{&quot;index&quot;:null}" fill="#0d0a0e" stroke="none" stroke-width="0" stroke-linecap="butt"/><path d="M236.74444,162.57248l7.81102,-8.08997c0,0 0.00744,6.05868 3.04148,9.8408c3.6424,4.54049 17.32305,15.54502 17.32305,15.54502c0,0 -14.12418,-3.29261 -20.54664,-7.23515c-6.42254,-3.94254 -7.62884,-10.06064 -7.62884,-10.06064z" data-paper-data="{&quot;index&quot;:null}" fill="#0d0a0e" stroke="none" stroke-width="0" stroke-linecap="butt"/><path d="M222.52458,215.18959c0.07463,-3.26586 2.69056,-6.45016 2.69056,-6.45016c0,0 -3.27274,-2.01111 -2.86606,-5.1194c0.52768,-4.03262 8.33032,-6.04057 12.53887,-6.09085c4.20855,-0.0504 9.00718,1.61679 10.43989,4.45496c3.61155,7.15441 -0.17524,7.39986 -0.17524,7.39986c0,0 3.96979,0.11847 3.12096,7.52716c-0.41836,3.6506 -7.97434,3.76175 -13.60098,3.38559c-5.62663,-0.37603 -12.03043,-1.7145 -12.14795,-5.10715z" data-paper-data="{&quot;index&quot;:null}" fill="#747875" stroke="none" stroke-width="0" stroke-linecap="butt"/><path d="M221.3934,147.88504c-2.72122,-9.71767 -1.89705,-20.76143 6.55954,-23.12945c8.4566,-2.36809 20.16103,-10.76583 22.88218,-1.04817c1.62631,5.80793 -1.25539,15.81287 -0.18042,22.27337c1.92752,11.58451 -1.7268,14.6176 -6.76564,16.02855c-8.45654,2.36809 -19.77445,-4.40657 -22.49567,-14.1243z" data-paper-data="{&quot;index&quot;:null}" fill="#0d0a0e" stroke="none" stroke-width="0" stroke-linecap="butt"/><path d="M220.02358,146.09598c-2.84883,-9.13902 -0.16149,-11.41936 2.71283,-16.69298c1.45744,-2.67403 9.01948,-3.48179 14.45787,1.45567c5.01903,4.55677 6.17449,27.22497 -0.89665,28.35161c-7.87934,1.25533 -14.2567,-6.6425 -16.27412,-13.1143z" data-paper-data="{&quot;index&quot;:null}" fill="#111115" stroke="none" stroke-width="0" stroke-linecap="butt"/><path d="M247.41546,216.17108l-8.01433,-57.20201l10.79138,-1.44899c0,0 -1.24624,10.33612 -0.01432,21.62011c1.23192,11.28398 5.47038,28.35722 5.47038,28.35722z" data-paper-data="{&quot;index&quot;:null}" fill="#0d0a0e" stroke="none" stroke-width="0" stroke-linecap="butt"/><path d="M242.93641,59.10519c0,0 10.36886,-8.50574 17.81029,-13.0005c7.44156,-4.49476 8.46045,-4.6963 10.09231,-3.68447c1.58777,0.98452 1.1742,8.73625 1.11326,14.45315c-0.061,5.7169 -1.39833,12.27456 -1.39833,12.27456" data-paper-data="{&quot;index&quot;:null}" fill="#0d0a0e" stroke="#000000" stroke-width="0.125" stroke-linecap="round"/><path d="M208.90247,81.98041c0,0 -5.35405,-9.8309 -7.01424,-14.76925c-1.45069,-4.31504 -4.26672,-12.97716 -2.4036,-13.244c1.55477,-0.22274 7.61522,2.48195 10.92991,3.20985c3.61168,0.79319 9.92558,1.37026 9.92558,1.37026" data-paper-data="{&quot;index&quot;:null}" fill="#0d0a0e" stroke="#000000" stroke-width="0" stroke-linecap="round"/><path d="M211.1121,94.31977c1.90242,5.27924 4.14661,9.22449 5.99787,12.40513c0.58969,1.01328 2.11065,-1.66637 2.11065,-1.66637c0,0 1.01365,3.18632 2.52818,1.60398c5.03827,-2.64079 8.60093,-7.4254 13.43835,-12.51685c4.83748,-5.09145 14.04809,-16.04608 16.42009,-16.33001c2.03981,-0.24419 0.82631,-1.16884 3.40288,3.70207c1.78325,4.14345 2.38184,13.43791 -0.41482,18.70561c-2.79666,5.26763 -6.77081,11.19245 -14.5395,12.83895c-7.76863,1.64662 -14.76029,-6.83723 -21.80777,-5.16349c-0.86889,0.20634 -5.49921,3.70447 -5.49921,3.70447c0,0 -4.67113,-9.73514 -5.64246,-16.45353c-0.97139,-6.71845 -0.32298,-14.00627 -0.32298,-14.00627c0,0 2.42631,7.89707 4.32873,13.17631z" data-paper-data="{&quot;index&quot;:null}" fill="#78828a" stroke="#000000" stroke-width="0" stroke-linecap="butt"/><path d="M213.12175,112.59937c0.06251,-1.53188 1.69336,-4.73377 7.07751,-5.22127c4.17392,-0.44012 10.42872,4.47237 16.55767,4.7199c9.20885,0.37193 12.1998,-10.98353 22.61642,-8.00513c8.38948,2.25851 4.29548,20.79853 -20.16336,21.42928c-5.82773,-0.15279 -13.84686,-2.55209 -18.48664,-5.06829c-5.64978,-3.06388 -7.70271,-5.37449 -7.60159,-7.85455z" data-paper-data="{&quot;index&quot;:null}" fill="#111115" stroke="#000000" stroke-width="0" stroke-linecap="butt"/><path d="M206.08707,88.58413c0,0 -2.79016,-12.72483 -1.94954,-14.74799c1.28359,-3.08949 6.07344,0.43583 6.07344,0.43583" data-paper-data="{&quot;index&quot;:null}" fill="#0d0a0e" stroke="#000000" stroke-width="0.125" stroke-linecap="round"/><path d="M205.11675,106.04974c0.30071,-0.86188 4.11318,0.96679 7.0348,1.94064c2.92156,0.97386 7.0348,1.43719 7.0348,2.91097c0,2.44404 -4.69201,2.30197 -8.00506,1.45548c-5.24644,-1.34048 -7.05032,-3.48129 -6.06448,-6.30703z" data-paper-data="{&quot;index&quot;:null}" fill="#0d1114" stroke="none" stroke-width="0" stroke-linecap="butt"/><path d="M211.36846,107.6768c1.45012,0.27037 2.55266,0.88138 2.46252,1.36477c-0.09014,0.48339 -1.33878,0.65611 -2.78884,0.38568c-1.45012,-0.27037 -2.55266,-0.88138 -2.46252,-1.36477c0.09014,-0.48339 1.33878,-0.65611 2.78884,-0.38568z" data-paper-data="{&quot;index&quot;:null}" fill="#78828a" stroke="none" stroke-width="0" stroke-linecap="butt"/><path d="M249.68672,58.79337c0,0 12.85138,-10.62756 17.21278,-9.49669c3.03959,0.78814 -0.59354,19.58692 -0.59354,19.58692c0,0 -0.55783,-2.7245 -7.20254,-6.09382c-6.07464,-3.08022 -9.41664,-3.99641 -9.41664,-3.99641z" data-paper-data="{&quot;index&quot;:null}" fill="#111115" stroke="none" stroke-width="0" stroke-linecap="butt"/><path d="M246.54411,125.2123c1.72718,-0.72323 2.39427,-0.38378 4.16547,4.365c1.77127,4.74872 3.6699,18.05592 3.6699,18.05592l3.29936,20.06476l-6.44468,0.29901l-3.33178,-19.17115c0,0 -2.96969,-14.9778 -3.58859,-16.63747c-1.77127,-4.74872 0.5032,-6.25284 2.23044,-6.97601z" data-paper-data="{&quot;index&quot;:null}" fill="#111115" stroke="none" stroke-width="0" stroke-linecap="butt"/><g data-paper-data="{&quot;index&quot;:null}" fill="#747875" stroke="none" stroke-width="0" stroke-linecap="butt"><g><path d="M240.91975,193.02514c-0.47595,-3.42325 2.29869,-7.29564 4.06681,-12.27304c1.31923,-3.71355 5.74295,-5.68063 8.75889,-6.09993c6.43919,-0.89526 13.28392,0.00233 14.17911,6.44152c0.29547,2.12484 1.28983,6.46114 2.27043,10.56176c0.96748,4.04517 0.85684,7.05063 -1.27803,7.54734c-2.74292,0.63826 -3.45252,-1.3379 -3.45252,-1.3379c0,0 -0.83545,2.42562 -2.15506,2.69743c-1.31973,0.27182 -3.75494,-1.48368 -3.75494,-1.48368c0,0 -1.18845,2.04971 -2.78417,2.39748c-1.59571,0.34764 -2.96749,-1.13414 -2.96749,-1.13414c0,0 -0.74007,2.13923 -2.772,2.44851c-2.03192,0.30935 -2.84984,-2.01798 -2.84984,-2.01798c0,0 0.1931,1.85075 -1.11427,2.11399c-1.30737,0.26324 -0.30929,0.04441 -1.08103,-0.20066c-0.63574,-0.2018 -4.81553,-7.85884 -5.06596,-9.66051z"/></g><path d="M255.69468,176.5404c-2.31945,0.14748 -10.17167,0.91437 -10.48285,-0.92995c-0.15467,-1.79196 1.65678,-3.76219 1.65678,-3.76219c0,0 -2.65618,-0.81218 -2.54434,-2.54699c0.14503,-2.25082 6.0354,-4.03325 9.27963,-4.4301c3.24423,-0.39685 7.05543,0.0933 8.34539,1.51913c3.25179,3.59401 0.34582,4.06056 0.34582,4.06056c0,0 3.07107,-0.28368 2.89746,3.84079c-0.08554,2.0323 -6.8911,2.08314 -9.49789,2.24898z"/></g><path d="M240.41289,218.97857c-0.09986,-3.26517 2.34235,-6.58459 2.34235,-6.58459c0,0 -3.37544,-1.83353 -3.13529,-4.9591c0.31162,-4.05501 7.99592,-6.47666 12.19583,-6.75157c4.19985,-0.27503 9.08067,1.13364 10.66282,3.89126c3.98834,6.95141 0.22009,7.39866 0.22009,7.39866c0,0 3.97049,-0.09361 3.51838,7.34983c-0.22287,3.66776 -7.76213,4.18213 -13.40082,4.10687c-5.63868,-0.07513 -12.1048,-1.0698 -12.4033,-4.45136z" data-paper-data="{&quot;index&quot;:null}" fill="#747875" stroke="none" stroke-width="0" stroke-linecap="butt"/></g></g></svg>