<svg version="1.1" xmlns="http://www.w3.org/2000/svg" xmlns:xlink="http://www.w3.org/1999/xlink" width="25.0909" height="25.0909" viewBox="0,0,25.0909,25.0909"><defs><radialGradient cx="240" cy="180" r="12.54545" gradientUnits="userSpaceOnUse" id="color-1"><stop offset="0" stop-color="#000000"/><stop offset="1" stop-color="#000000" stop-opacity="0.50196"/></radialGradient></defs><g transform="translate(-227.45454,-167.45454)"><g data-paper-data="{&quot;isPaintingLayer&quot;:true}" fill-rule="nonzero" stroke-width="0" stroke-linejoin="miter" stroke-miterlimit="10" stroke-dasharray="" stroke-dashoffset="0" style="mix-blend-mode: normal"><path d="M227.45455,180c0,-6.92866 5.61679,-12.54545 12.54545,-12.54545c6.92866,0 12.54545,5.61679 12.54545,12.54545c0,6.92866 -5.61679,12.54545 -12.54545,12.54545c-6.92866,0 -12.54545,-5.61679 -12.54545,-12.54545z" fill="url(#color-1)" stroke="none" stroke-linecap="butt"/><g><g data-paper-data="{&quot;index&quot;:null}" fill="#033397"><path d="M243.99724,185.3404c-3.03029,0 -5.48681,-2.45653 -5.48681,-5.48681c0,-3.03029 2.45653,-5.48683 5.48681,-5.48683c3.03029,0 5.48681,2.45655 5.48681,5.48683c0,3.03029 -2.45653,5.48681 -5.48681,5.48681z" stroke="none" stroke-linecap="butt"/><path d="M241.90458,184.91771c0,0 -2.26515,0.02376 -3.90049,1.50423c-1.63535,1.48049 -2.91591,4.66663 -2.91591,4.66663c0,0 -1.03649,-1.55358 -0.92573,-4.35425c0.09384,-2.37306 1.25632,-4.34857 1.25632,-4.34857c0,0 -1.81237,0.49294 -2.66302,1.07894c-1.41461,0.9745 -3.18956,3.09549 -3.18956,3.09549c0,0 -0.53265,-3.13401 1.25793,-6.81691c1.54268,-3.17302 4.32329,-4.38302 4.32329,-4.38302c0,0 -1.27192,-0.97125 -2.39798,-1.28616c-1.36765,-0.38248 -2.9853,-0.25392 -2.9853,-0.25392c0,0 3.92238,-4.28122 10.14086,-3.41328c9.04493,1.22187 9.66991,8.60589 9.66991,8.60589" stroke="#000000" stroke-linecap="round"/></g><path d="M247.33852,174.36411c0,0 1.03336,-0.09444 1.62446,-0.22426c0.54249,-0.11913 1.53438,-0.5618 1.78884,-0.52534c0.30493,0.04368 -0.15596,1.46135 -0.39339,2.16757c-0.27171,0.80823 -1.14798,2.4172 -1.14798,2.4172" data-paper-data="{&quot;index&quot;:null}" fill="#033397" stroke="#000000" stroke-linecap="round"/><path d="M249.30172,178.0623c0,0 0.36167,1.19275 0.20268,2.29232c-0.15898,1.09956 -0.92347,2.69285 -0.92347,2.69285c0,0 -0.75782,-0.57252 -0.90002,-0.60629c-1.15343,-0.27393 -2.29771,1.11457 -3.56916,0.84508c-1.27146,-0.26947 -1.92188,-1.23915 -2.37959,-2.10128c-0.45771,-0.86214 -0.35975,-2.38331 -0.06789,-3.06144c0.42169,-0.79719 1.16279,-0.95348 1.49664,-0.91352c0.38821,0.04647 1.23217,0.1775 2.06372,1.29678c0.82214,1.10657 1.05874,3.09169 1.88333,3.52389c0.24788,0.25897 0.66356,-0.30414 0.66356,-0.30414c0,0 0.15619,0.17353 0.2527,0.00769c0.30299,-0.52056 0.30567,-0.54923 0.61702,-1.41325c0.31136,-0.86402 0.6605,-2.2587 0.6605,-2.2587z" data-paper-data="{&quot;index&quot;:null}" fill="#fdfdfd" stroke="#000000" stroke-linecap="butt"/><path d="M248.51991,183.2105c0.01655,0.4059 -0.31944,0.78406 -1.24411,1.2855c-0.75937,0.41181 -2.07181,0.80449 -3.0256,0.8295c-4.00304,-0.10324 -4.67308,-3.13757 -3.30002,-3.50721c1.70483,-0.48746 2.19434,1.37102 3.7015,1.31015c1.00309,-0.04051 2.02678,-0.84451 2.7099,-0.77248c0.88119,0.07978 1.14811,0.60382 1.15833,0.85453z" data-paper-data="{&quot;index&quot;:null}" fill="#033397" stroke="#000000" stroke-linecap="butt"/><path d="M249.83004,182.13858c0.16135,0.46247 -0.13388,0.81285 -0.99254,1.03224c-0.54223,0.13854 -1.31014,0.16179 -1.31014,-0.23821c0,-0.24121 0.67319,-0.31703 1.15135,-0.47642c0.47817,-0.15939 1.10213,-0.45867 1.15135,-0.31761z" data-paper-data="{&quot;index&quot;:null}" fill="#033397" stroke="none" stroke-linecap="butt"/><path d="M244.45211,179.24646c0.28821,0.04501 0.33236,0.70485 0.20955,1.49112c-0.12281,0.78627 -0.36606,1.40122 -0.65426,1.35621c-0.3202,-0.05001 -0.33236,-0.70485 -0.20955,-1.49112c0.12281,-0.78627 0.33407,-1.40623 0.65426,-1.35622z" fill="#033397" stroke="none" stroke-linecap="butt"/><path d="M249.00829,180.81645c-0.16177,0.51763 -0.38754,0.90768 -0.57726,0.84839c-0.21079,-0.06588 -0.15319,-0.50848 0.00858,-1.02611c0.16177,-0.51763 0.36647,-0.91427 0.57726,-0.84839c0.18973,0.05928 0.15319,0.50848 -0.00858,1.02611z" fill="#033397" stroke="none" stroke-linecap="butt"/><path d="M248.13998,179.28062c0.19249,0 0.52279,0.95845 0.52279,0.95845c0,0 -0.14031,0.48078 -0.26819,0.7736c-0.12791,0.29283 -0.39401,0.74247 -0.39401,0.74247c0,0 -0.31367,0.10097 -0.31367,-0.50536c0,-0.60633 0.26058,-1.96917 0.45308,-1.96917z" data-paper-data="{&quot;index&quot;:null}" fill="#033397" stroke="none" stroke-linecap="butt"/></g></g></g></svg>