<svg version="1.1" xmlns="http://www.w3.org/2000/svg" xmlns:xlink="http://www.w3.org/1999/xlink" width="5.32841" height="11.61812" viewBox="0,0,5.32841,11.61812"><g transform="translate(-240.1165,-180.62641)"><g data-paper-data="{&quot;isPaintingLayer&quot;:true}" fill-rule="nonzero" stroke="none" stroke-linejoin="miter" stroke-miterlimit="10" stroke-dasharray="" stroke-dashoffset="0" style="mix-blend-mode: normal"><path d="M242.18192,183.73787c0.00913,-0.31469 -0.31872,-2.38331 -0.15097,-2.84544c0.27335,-0.75299 1.08786,0.23163 1.05911,1.22275c-0.02702,0.93151 0.3993,3.14709 0.36763,4.24087c-0.0227,0.78419 -0.93681,-0.15403 -1.03387,-0.15872c-0.23241,-0.01123 -0.28828,-0.86009 -0.24189,-2.45947z" data-paper-data="{&quot;index&quot;:null}" fill="#005613" stroke-width="NaN" stroke-linecap="butt"/><path d="M241.77058,191.90227c-0.44749,-0.23921 -0.62482,-0.14215 -0.69635,-0.55588c-0.03696,-0.82922 0.65217,-1.03739 0.56278,-1.11879c-0.08857,-0.08032 -0.50704,1.5973 -1.37854,0.95811c-0.43953,-0.29415 0.26384,-1.66871 0.45991,-2.32155c0.07784,-0.23148 0.26334,-0.50698 0.36231,-0.8561c0.09896,-0.34913 0.01362,-0.54494 0.12671,-0.8691c0.11309,-0.32416 0.38611,-0.90975 0.51262,-0.9635c0.4562,-0.14394 -0.08148,-0.08025 0.71636,-0.14692c0.79783,-0.06668 1.14325,-0.06134 1.82029,-0.01487c0.67703,0.04647 0.52974,-0.14175 0.78645,0.07866c0.1824,0.15684 0.19906,0.91987 0.02667,1.40702c-0.17239,0.48715 -0.06464,0.90156 -0.0165,1.41307c0.04814,0.51152 0.61433,1.36949 0.29391,2.46433c-0.18148,0.62165 -0.9421,0.80307 -1.74468,0.85839c-0.674,0.04602 -1.29271,-0.07908 -1.83194,-0.33285z" data-paper-data="{&quot;index&quot;:null}" fill="#a8c8d8" stroke-width="0.67216" stroke-linecap="round"/></g></g></svg>