<svg version="1.1" xmlns="http://www.w3.org/2000/svg" xmlns:xlink="http://www.w3.org/1999/xlink" width="37.63828" height="49.69296" viewBox="0,0,37.63828,49.69296"><defs><radialGradient cx="254.28814" cy="164.46512" r="15.77076" gradientUnits="userSpaceOnUse" id="color-1"><stop offset="0" stop-color="#fadd00" stop-opacity="0.50196"/><stop offset="1" stop-color="#fbdd00"/></radialGradient></defs><g transform="translate(-230.20398,-148.69436)"><g data-paper-data="{&quot;isPaintingLayer&quot;:true}" fill-rule="nonzero" stroke-miterlimit="10" stroke-dasharray="" stroke-dashoffset="0" style="mix-blend-mode: normal"><path d="M257.17648,178.24896c0,0 0.93523,-7.4426 -3.20242,-14.59803c-4.39934,-7.60799 -13.86478,-14.95657 -13.04758,-14.95657c15.23955,0 26.94486,6.42729 26.77112,30.36339c-0.40195,3.0605 -10.52112,-0.80879 -10.52112,-0.80879z" data-paper-data="{&quot;index&quot;:null}" fill="url(#color-1)" stroke="none" stroke-width="NaN" stroke-linecap="butt" stroke-linejoin="miter"/><g data-paper-data="{&quot;index&quot;:null}" stroke-width="0" stroke-linecap="butt" stroke-linejoin="miter"><g data-paper-data="{&quot;index&quot;:null}"><path d="M253.69135,171.24804c-0.41845,0.97768 -1.55316,1.42978 -2.53444,1.00979c-0.98127,-0.41998 -1.43754,-1.55301 -1.01909,-2.53069c0.41845,-0.97767 1.55314,-1.42978 2.53442,-1.00979c0.98127,0.41998 1.43756,1.55302 1.01911,2.5307z" fill="#e0cb17" stroke="none"/><path d="M251.26169,172.19303c-0.60625,-0.25947 -0.88812,-0.95946 -0.6296,-1.56347c0.25852,-0.60402 0.95952,-0.88332 1.56577,-0.62385c0.60625,0.25947 0.88812,0.95946 0.6296,1.56347c-0.25851,0.60401 -0.95952,0.88332 -1.56577,0.62385z" fill="#e0cb17" stroke="#000000"/><path d="M248.76949,176.76045c0,0 -0.44991,-2.33267 0.39961,-3.43982c0.81818,-1.06628 1.03893,-1.19263 1.03893,-1.19263l1.9277,0.84123c0,0 0.2908,1.31803 -0.43246,2.13262c-0.72327,0.81459 -2.93378,1.6586 -2.93378,1.6586z" fill="#e8edf4" stroke="#000000"/><path d="M251.05225,172.7504c-0.53601,-0.23224 -1.06094,-0.8416 -1.06094,-0.8416l0.45232,-0.33929c0,0 0.45584,0.55693 0.88348,0.71195c0.42765,0.15503 1.16459,0.03048 1.16459,0.03048l-0.06788,0.71216c0,0 -0.90246,-0.07043 -1.37158,-0.27368z" fill="#dbded5" stroke="#000000"/></g><g data-paper-data="{&quot;index&quot;:null}" stroke="none"><path d="M244.00715,173.8163c0.18496,0.07916 0.20169,0.45454 0.03738,0.83845c-0.16431,0.38389 -0.44746,0.63094 -0.63241,0.55178c-0.18496,-0.07916 -0.20168,-0.45454 -0.03737,-0.83845c0.16431,-0.3839 0.44744,-0.63095 0.63239,-0.55179z" fill="#000000"/><path d="M240.63953,178.11274c0.19265,0.08245 0.06205,2.36233 0.06205,2.36233c0,0 -1.0964,-0.10737 -1.28906,-0.18983c-0.19265,-0.08245 -0.04116,-1.33106 0.03114,-1.49998c0.0723,-0.16892 1.00321,-0.75496 1.19587,-0.6725z" fill="#807d5a"/><path d="M243.2848,174.90236l0.02994,-0.32714l6.79506,-3.50687l0.06143,0.19078z" fill="#6e6e73"/><path d="M249.39983,171.31278l0.18004,0.42797l-1.61459,0.78938l-0.15213,-0.41603z" fill="#ddcb1e"/></g></g><g data-paper-data="{&quot;index&quot;:null}" stroke-width="0" stroke-linecap="butt" stroke-linejoin="miter"><g data-paper-data="{&quot;index&quot;:null}"><path d="M233.33534,166.29472c-1.25881,-0.53877 -1.84413,-1.99227 -1.30734,-3.24646c0.5368,-1.2542 1.99244,-1.83416 3.25126,-1.29539c1.25883,0.53878 1.84413,1.99228 1.30734,3.24647c-0.5368,1.2542 -1.99243,1.83415 -3.25125,1.29538z" fill="#e0cb17" stroke="none"/><path d="M232.49503,164.1344c0.33164,-0.77485 1.23094,-1.13314 2.00863,-0.80029c0.7777,0.33286 1.13931,1.23082 0.80767,2.00567c-0.33163,0.77484 -1.23093,1.13315 -2.00862,0.8003c-0.77771,-0.33286 -1.13932,-1.23083 -0.80768,-2.00568z" fill="#e0cb17" stroke="#000000"/><path d="M230.21197,168.30633c0.11548,-1.39267 1.59629,-2.29002 1.59629,-2.29002l2.48793,1.04409c0,0 0.07823,0.31678 -0.1868,2.02043c-0.27518,1.76892 -2.83856,3.41719 -2.83856,3.41719c0,0 -1.17433,-2.79904 -1.05886,-4.1917z" fill="#e8edf4" stroke="#000000"/><path d="M232.97085,166.82808c-0.60409,-0.25539 -1.46868,-1.03057 -1.46868,-1.03057l0.60083,-0.69371c0,0 0.53704,0.79427 1.05964,1.05387c0.52261,0.2596 1.44319,0.18943 1.44319,0.18943l0.08568,0.72028c0,0 -1.03043,0.0525 -1.72065,-0.23932z" fill="#dbded5" stroke="#000000"/></g><g data-paper-data="{&quot;index&quot;:null}" stroke="none"><path d="M236.05743,176.10831c0.35609,-0.30901 1.59737,-2.46046 2.76889,-1.91684c0.18183,0.08437 1.09279,1.88592 0.89662,2.94044c-0.26685,1.43445 -1.70747,2.22001 -1.70747,2.22001l-2.8564,-1.24364c0,0 0.54226,-1.69098 0.89835,-1.99998z" fill="#e4dcaa"/><path d="M237.40959,175.0184c0.21079,-0.4925 0.574,-0.80941 0.81126,-0.70786c0.23728,0.10155 0.25874,0.58311 0.04796,1.0756c-0.21078,0.49249 -0.57401,0.8094 -0.81127,0.70785c-0.23727,-0.10154 -0.25872,-0.5831 -0.04794,-1.07559z" fill="#000000"/><path d="M234.43969,180.17622c0.19794,-0.83717 0.72189,-2.08254 0.72189,-2.08254c0,0 0.65652,-0.09454 1.03378,-0.04997c0.37725,0.04456 0.95223,0.2346 0.95223,0.2346l0.82308,1.206c0,0 -0.98588,2.828 -1.12459,3.18486c-0.27937,0.71869 -1.81805,0.68491 -1.81805,0.68491l-0.89549,-0.90833c0,0 0.10919,-1.43238 0.30713,-2.26955z" fill="#dfcc17"/><path d="M234.96833,183.2755c0,0 2.00027,-2.1403 2.24742,-2.03452c0.24716,0.10578 0.52768,1.48876 0.43493,1.70546c-0.09274,0.21669 -1.11742,1.46309 -1.36457,1.35731c-0.24715,-0.10578 -1.31779,-1.02824 -1.31779,-1.02824z" fill="#807d5a"/><path d="M235.13517,166.32504l0.23147,-0.11195l2.76307,9.41218l-0.27709,0.3175z" fill="#6e6e73"/><path d="M236.43003,169.27074l-0.52085,0.22725l-0.69729,-2.19758l0.55665,-0.21192z" fill="#ddcb1e"/></g></g><g data-paper-data="{&quot;index&quot;:null}" stroke="none" stroke-width="0" stroke-linecap="butt" stroke-linejoin="miter"><g><path d="M239.26146,191.26085c0,0 -0.15247,0.34596 -0.04964,0.7993c0.12528,0.5523 0.591,0.80389 0.94468,1.61221c0.76631,1.75142 0.55743,3.4792 3.83903,3.69259c0.37467,-0.06073 0.92756,-0.38635 0.92756,-0.38635c0,0 0.07634,0.31895 0.00017,0.52092c-0.07617,0.20197 -0.35623,0.42313 -0.35623,0.42313l-0.25877,-0.02279l-0.01985,0.17382c0,0 -0.15512,0.08127 -0.32048,0.1114c-0.16537,0.03014 -0.36126,0.05548 -0.42802,0.03607c-0.08161,-0.02373 0.04747,-0.11871 -0.06474,-0.11478c-0.06925,0.00243 -0.0953,-0.02583 -0.1612,-0.02279c-0.10117,0.00469 0.02776,0.11714 -0.07666,0.11388c-0.26956,-0.0084 -0.6587,-0.15874 -0.82045,-0.18497c-0.13492,-0.02189 -0.07941,-0.28936 -0.07941,-0.28936l-0.17058,-0.02866l-0.1063,0.14443c0,0 -0.40901,-0.28731 -0.54681,-0.35344c-0.42888,-0.20581 -0.2317,-0.42644 -0.2317,-0.42644l-0.1689,-0.15653l-0.1428,0.10792l-0.48783,-0.62348l0.0372,-0.2037c0,0 -0.21059,-0.82926 -0.45887,-1.17286c-0.24899,-0.34457 -1.0329,-0.8917 -1.0329,-0.8917l-0.18775,0.15813l-0.43062,-0.65701l0.15789,-0.34294c0,0 -0.26289,0.08806 -0.30234,-0.03047c-0.42446,-1.27562 0.99628,-1.98548 0.99628,-1.98548z" data-paper-data="{&quot;index&quot;:null}" fill="#a87643"/><path d="M242.44626,192.67402c0.03046,1.78294 -1.05,2.49869 -1.05,2.49869c0,0 -2.05826,-2.19484 -2.27485,-3.09271c-0.16151,-0.6696 0.74987,-1.72556 0.74987,-1.72556c0,0 0.04712,-1.25527 0.04274,-1.66337c-0.00438,-0.40812 0.05701,-1.0993 0.05701,-1.0993c0,0 1.79711,0.19642 2.13952,0.40618c0.25899,0.17275 0.31829,3.6551 0.33573,4.67605z" data-paper-data="{&quot;index&quot;:null}" fill="#f3e2e2"/><path d="M241.47813,187.34476c0.12804,-0.1228 0.88362,-0.15963 1.61656,0.14287c0.21957,0.09062 0.04413,1.3821 0.20974,2.9757c0.09245,0.88967 0.44663,2.21067 0.6217,2.99988c0.18815,0.84815 1.04757,1.63405 1.08264,1.82662c0.12616,0.69272 -0.06973,1.73204 -0.08298,1.74174c-0.00741,0.00541 -0.84165,0.86297 -2.27875,0.37022c-1.9064,-0.65369 -2.56,-3.81 -2.56,-3.81c0,0 0.53112,-0.59787 0.76059,-0.07102c0.27151,0.65972 0.15782,0.5287 0.3169,1.03399c0.04418,0.194 0.1402,0.48239 0.17501,0.47479c0.35553,-0.07766 0.98032,-1.38764 1.04321,-2.03456c0.05096,-0.52436 0.00617,-1.55958 -0.07744,-2.45474c-0.07345,-0.7862 -0.03687,-1.55257 -0.06601,-2.06374c-0.01773,-0.3107 -0.18619,-0.51239 -0.18619,-0.51239c0,0 -0.7809,-0.42191 -0.57498,-0.6194z" data-paper-data="{&quot;index&quot;:null}" fill="#fc6293"/><path d="M243.68978,193.08108c0,0 -0.34694,-1.31225 -0.40458,-2.21419c-0.07604,-1.18991 -0.09422,-2.65851 -0.15005,-3.0535c-0.02809,-0.19871 -0.38234,-0.36893 -0.38234,-0.36893l0.11026,-0.08072c0,0 0.4035,0.14645 0.41021,0.40322c0.03853,1.47582 0.01404,2.31043 0.16932,3.1662c0.11218,0.61822 0.53199,2.72973 0.53199,2.72973z" data-paper-data="{&quot;index&quot;:null}" fill="#766565"/><path d="M240.94505,191.45697l-0.02124,-1.18123l0.63775,-0.00148l-0.0264,1.21612z" data-paper-data="{&quot;index&quot;:null}" fill="#fffff6"/><path d="M240.77018,189.60879l-0.01114,-0.96346l0.57179,0.01428l0.06913,1.01466z" data-paper-data="{&quot;index&quot;:null}" fill="#fffff6"/><path d="M243.2679,189.19565c0,0 -0.21398,0.17068 -0.67596,0.31462c-0.46197,0.14394 -1.19564,0.15793 -1.19564,0.15793l-0.0544,-1.01399c0,0 0.52824,0.06025 0.94188,-0.01872c0.41365,-0.07896 1.01878,-0.35556 1.01878,-0.35556l-0.03467,0.91571z" data-paper-data="{&quot;index&quot;:null}" fill="#754c86"/><path d="M242.50214,191.47363c-0.40295,0.04776 -0.99566,0.03247 -0.99566,0.03247l0.00687,-1.22413c0,0 0.42306,0.00932 0.80051,-0.0731c0.37744,-0.08242 0.99493,-0.32709 0.99493,-0.32709c0,0 0.05107,0.47427 0.08423,0.7256c0.03315,0.25133 0.09623,0.64242 0.09623,0.64242c0,0 -0.58418,0.17608 -0.98713,0.22384z" data-paper-data="{&quot;index&quot;:null}" fill="#754c86"/><path d="M239.98948,187.59921c0,0 0.30991,-0.19002 0.52265,-0.23147c0.12877,-0.02507 0.4588,-0.03887 0.80712,-0.08915c0.34831,-0.05029 0.44311,-0.00888 0.44311,-0.00888l-1.59905,0.36529z" data-paper-data="{&quot;index&quot;:null}" fill="#ae8484"/><path d="M242.72843,187.62109c0.0054,0.14952 -0.11637,0.26324 -0.49836,0.29528c-0.38199,0.03204 -0.28466,-0.03448 -1.00994,-0.12613c-0.35527,-0.03976 -1.04039,-0.15034 -1.04039,-0.15034c0,0 0.43386,-0.27865 1.28931,-0.30953c0.85546,-0.03087 1.25362,0.08013 1.26088,0.28109z" data-paper-data="{&quot;index&quot;:null}" fill="#532c31"/></g><path d="M240.65161,187.37682c0,0 -0.53634,-0.5763 -0.38445,-0.92323c0.1519,-0.34693 0.53345,-0.28088 0.83731,-0.09224c0.30385,0.18865 0.47261,0.90548 0.47261,0.90548z" fill="#f3e2e2"/></g><g data-paper-data="{&quot;index&quot;:null}" stroke="none" stroke-width="0" stroke-linecap="butt" stroke-linejoin="miter"><path d="M241.54618,182.34582l0.50991,3.71231l0.22659,1.91565l-1.20332,-0.12901l-0.37451,-2.06796l-0.42735,-3.43681z" data-paper-data="{&quot;index&quot;:null}" fill="#8e5173"/><path d="M241.93719,185.30549l0.11892,0.75263l0.22659,1.91565l-1.20332,-0.12901l-0.37451,-2.06796l-0.05681,-0.493z" data-paper-data="{&quot;index&quot;:null}" fill="#c5c0b5"/><path d="M240.67238,185.54123l-0.01628,-0.2589l1.29054,0.01697l0.03434,0.27293z" fill="#af2753"/><path d="M240.733,186.02287l-0.01628,-0.2589l1.29054,0.01697l0.03434,0.27293z" fill="#af2753"/></g><path d="M239.12551,181.72482c0,0 -1.9053,0.94264 -2.7254,0.86829c-0.89117,-0.0808 -2.86652,-1.0934 -2.86652,-1.0934l2.84501,0.14602l1.43039,-0.12265z" data-paper-data="{&quot;index&quot;:null}" fill="#f79db4" stroke="none" stroke-width="0" stroke-linecap="butt" stroke-linejoin="miter"/><g data-paper-data="{&quot;index&quot;:null}" stroke="none" stroke-width="0" stroke-linecap="butt" stroke-linejoin="miter"><path d="M235.66735,186.53537c0,0 -0.44074,-0.65233 -0.237,-0.97159c0.20372,-0.31925 0.57047,-0.19499 0.84149,0.03839c0.27103,0.23339 0.32687,0.96769 0.32687,0.96769z" fill="#fc6293"/><g><path d="M233.58957,189.78336c0,0 -0.28238,0.2795 -0.35654,0.76237c-0.09034,0.58828 0.26805,1.01375 0.30235,1.94035c0.07431,2.00771 -0.79576,3.61654 2.33054,5.08979c0.38972,0.08503 1.05578,-0.02029 1.05578,-0.02029c0,0 -0.04827,0.34129 -0.20058,0.5094c-0.15231,0.16811 -0.51136,0.27642 -0.51136,0.27642l-0.24421,-0.122l-0.0864,0.16229c0,0 -0.18298,0.0197 -0.35627,-0.01457c-0.17329,-0.03427 -0.3746,-0.085 -0.43239,-0.1297c-0.07066,-0.05466 0.09216,-0.09779 -0.01906,-0.13717c-0.06863,-0.02432 -0.08321,-0.06199 -0.14882,-0.0844c-0.10074,-0.0344 -0.01802,0.12523 -0.11886,0.08181c-0.26032,-0.11211 -0.58288,-0.40906 -0.7309,-0.49704c-0.12348,-0.0734 0.03387,-0.31352 0.03387,-0.31352l-0.15574,-0.09375l-0.15958,0.10024c0,0 -0.28919,-0.43854 -0.39844,-0.55629c-0.34002,-0.36653 -0.0622,-0.50623 -0.0622,-0.50623l-0.10481,-0.21815l-0.1812,0.05049l-0.2367,-0.7976l0.11488,-0.18482c0,0 0.11368,-0.89195 0.00335,-1.32358c-0.11064,-0.43287 -0.66626,-1.2699 -0.66626,-1.2699l-0.24449,0.08226l-0.16783,-0.80832l0.28654,-0.27444c0,0 -0.29096,-0.01523 -0.28385,-0.1463c0.07659,-1.41078 1.73924,-1.55732 1.73924,-1.55732z" data-paper-data="{&quot;index&quot;:null}" fill="#a87643"/><path d="M236.15897,192.39232c-0.65731,1.75498 -1.98953,2.03841 -1.98953,2.03841c0,0 -1.16659,-2.93916 -1.03234,-3.90049c0.10012,-0.71693 1.39814,-1.39815 1.39814,-1.39815c0,0 0.52982,-1.20913 0.6828,-1.60983c0.15298,-0.40071 0.47937,-1.05285 0.47937,-1.05285c0,0 1.68138,0.88461 1.93533,1.22165c0.18668,0.2687 -1.09734,3.69636 -1.47373,4.70129z" data-paper-data="{&quot;index&quot;:null}" fill="#fc6293"/><path d="M237.26606,186.80867c0.17252,-0.07073 0.92546,0.18446 1.52551,0.76267c0.17977,0.17322 -0.48947,1.36834 -0.94168,2.99027c-0.25245,0.90548 -0.41525,2.33357 -0.54821,3.17266c-0.14288,0.90179 0.39453,2.00137 0.35461,2.20317c-0.14361,0.72591 -0.73565,1.66658 -0.75235,1.67096c-0.00933,0.00245 -1.15548,0.51941 -2.37067,-0.51618c-1.61204,-1.37381 -1.03474,-4.7117 -1.03474,-4.7117c0,0 0.74969,-0.37988 0.77103,0.22367c0.01123,0.74967 -0.04945,0.57774 -0.08863,1.13309c-0.03158,0.2067 -0.04882,0.52569 -0.01187,0.53166c0.37755,0.06108 1.49386,-0.96758 1.80465,-1.57585c0.25191,-0.49306 0.60643,-1.53385 0.86965,-2.4413c0.23118,-0.79699 0.56228,-1.5322 0.73077,-2.04321c0.10241,-0.3106 0.01542,-0.57272 0.01542,-0.57272c0,0 -0.60092,-0.71344 -0.32348,-0.82718z" data-paper-data="{&quot;index&quot;:null}" fill="#f3e2e2"/><path d="M237.21787,193.26956c0,0 0.16648,-1.41673 0.4577,-2.32079c0.38421,-1.1927 0.93238,-2.63561 1.03001,-3.04331c0.04911,-0.20511 -0.23164,-0.50805 -0.23164,-0.50805l0.13891,-0.03643c0,0 0.33807,0.29868 0.24567,0.5523c-0.53106,1.45781 -0.87665,2.2644 -1.05461,3.16094c-0.12855,0.64767 -0.5318,2.87395 -0.5318,2.87395z" data-paper-data="{&quot;index&quot;:null}" fill="#bfa4a4"/><path d="M235.16019,190.62389l0.43444,-1.16312l0.62412,0.24434l-0.49446,1.17886z" data-paper-data="{&quot;index&quot;:null}" fill="#fffff6"/><path d="M235.70143,188.74944l0.36039,-0.94628l0.55356,0.23432l-0.32342,1.01872z" data-paper-data="{&quot;index&quot;:null}" fill="#fffff6"/><path d="M238.30268,189.30809c0,0 -0.27497,0.0844 -0.78214,0.04711c-0.50715,-0.03729 -1.22987,-0.30634 -1.22987,-0.30634l0.33756,-1.01236c0,0 0.49326,0.26247 0.92812,0.34467c0.43486,0.0822 1.13311,0.04495 1.13311,0.04495z" data-paper-data="{&quot;index&quot;:null}" fill="#754c86"/><path d="M237.72754,191.40175c0,0 -0.63903,-0.05296 -1.0514,-0.16155c-0.41237,-0.10858 -0.98599,-0.35194 -0.98599,-0.35194l0.47846,-1.19422c0,0 0.41007,0.17214 0.81086,0.23702c0.40079,0.06488 1.09882,0.06362 1.09882,0.06362c0,0 -0.13284,0.4834 -0.19727,0.74191c-0.06444,0.25851 -0.15348,0.6652 -0.15348,0.6652z" data-paper-data="{&quot;index&quot;:null}" fill="#754c86"/><path d="M235.71254,186.48378c0,0 0.37624,-0.06635 0.60021,-0.0249c0.13556,0.0251 0.46357,0.13881 0.82351,0.22387c0.35995,0.08506 0.43667,0.16209 0.43667,0.16209l-1.7042,-0.25906z" data-paper-data="{&quot;index&quot;:null}" fill="#ae8484"/><path d="M238.38211,187.5607c-0.05235,0.14829 -0.21523,0.21253 -0.60106,0.09665c-0.38582,-0.11588 -0.26502,-0.14339 -0.93884,-0.5125c-0.33204,-0.17577 -0.95929,-0.54793 -0.95929,-0.54793c0,0 0.53157,-0.10526 1.37987,0.19421c0.8483,0.29949 1.19481,0.56146 1.12446,0.76074z" data-paper-data="{&quot;index&quot;:null}" fill="#532c31"/></g></g><g data-paper-data="{&quot;index&quot;:null}" stroke="none" stroke-width="0" stroke-linecap="butt" stroke-linejoin="miter"><path d="M239.28839,182.28244l-1.06706,4.00071l-0.39698,1.44678l-1.27446,-0.74351l0.35115,-1.13604l1.05403,-3.62679z" data-paper-data="{&quot;index&quot;:null}" fill="#8e5173"/><path d="M238.53539,185.03589l-0.31412,1.24725l-0.39698,1.44678l-1.27446,-0.74351l0.35115,-1.13604l0.35828,-1.21707z" data-paper-data="{&quot;index&quot;:null}" fill="#a71e48"/><path d="M238.53537,185.03589l-0.06195,0.25954l-1.27676,-0.43438l0.0626,-0.22775z" data-paper-data="{&quot;index&quot;:null}" fill="#a19589"/><path d="M238.40059,185.50921l-0.06195,0.25954l-1.27676,-0.43437l0.06261,-0.22776z" data-paper-data="{&quot;index&quot;:null}" fill="#a19589"/></g><path d="M242.44104,184.24058c0,0 -2.08826,0.43287 -4.10864,-0.34426c-2.3413,-1.08937 -3.80358,-2.80956 -3.80358,-2.80956l0.37798,-0.24862c0,0 1.07008,1.75647 3.53464,2.74306c2.13455,0.81425 3.96487,0.22886 3.96487,0.22886z" data-paper-data="{&quot;index&quot;:null}" fill="#ee3377" stroke="none" stroke-width="0" stroke-linecap="butt" stroke-linejoin="miter"/><path d="M241.83209,180.12318l0.57406,3.76295c0,0 -2.68798,0.4835 -4.44526,-0.43925c-2.27619,-1.237 -3.11605,-2.54741 -3.11605,-2.54741l1.92463,-1.13765l1.81307,-1.06178z" data-paper-data="{&quot;index&quot;:null}" fill="#fcf4f4" stroke="none" stroke-width="0" stroke-linecap="butt" stroke-linejoin="miter"/><path d="M242.33702,183.51914c0,0 -1.65317,0.61616 -3.67354,-0.16096c-2.74982,-1.28003 -3.46309,-2.66383 -3.46309,-2.66383l0.12882,-0.07829c0,0 0.93847,1.61524 3.40303,2.60183c2.23211,0.85308 3.57952,0.13595 3.57952,0.13595z" data-paper-data="{&quot;index&quot;:null}" fill="#ee3377" stroke="none" stroke-width="0" stroke-linecap="butt" stroke-linejoin="miter"/><g data-paper-data="{&quot;index&quot;:null}" stroke="none" stroke-width="0" stroke-linecap="butt" stroke-linejoin="miter"><path d="M241.14943,184.834l0.1006,-5.14303l0.54125,0.19759l1.33411,4.59824c0,0 -0.67398,0.43789 -1.62985,0.39068c-0.23331,-0.01151 -0.3461,-0.04349 -0.3461,-0.04349z" fill="#fab5b7"/><path d="M241.76109,184.88598c0.69109,0.01526 1.38739,-0.44913 1.38739,-0.44913l0.01372,0.41173c0,0 -0.75751,0.50377 -1.46436,0.49323c-0.7885,-0.01176 -0.59705,-0.06261 -0.59705,-0.06261l0.03319,-0.40346c0,0 -0.14168,-0.00672 0.62713,0.01025z" fill="#fed000"/></g><path d="M239.06814,179.58613l0.58313,-0.38583l1.49012,0.51335l0.16436,0.60208z" data-paper-data="{&quot;index&quot;:null}" fill="#aa4455" stroke="none" stroke-width="0" stroke-linecap="butt" stroke-linejoin="miter"/><path d="M241.50708,179.92455l-3.1711,-1.15835l0.54329,-0.85212l0.93198,-2.0606c0,0 0.63044,0.35653 1.05464,0.54107c0.4242,0.18454 1.08563,0.39003 1.08563,0.39003c0,0 0.19025,0.94692 0.07862,1.56033c-0.11163,0.61341 -0.52306,1.57964 -0.52306,1.57964z" data-paper-data="{&quot;index&quot;:null}" fill="#6d3b75" stroke="none" stroke-width="0" stroke-linecap="butt" stroke-linejoin="miter"/><path d="M241.17271,180.38199c0,0 -0.18945,-1.15844 -0.07662,-1.67548c0.0202,-0.09256 0.07101,-0.27437 0.07101,-0.27437c0,0 0.1875,-0.24145 1.01987,-0.46563c0.18238,-0.04912 0.1327,-0.16105 0.24779,-0.3496c0.03635,-0.05956 -0.04636,-0.43988 -0.04636,-0.43988c0,0 0.14599,-0.00598 0.1783,0.10901c-0.09994,0.57092 -0.54382,1.65451 -0.54382,1.65451l-0.09108,1.19753z" data-paper-data="{&quot;index&quot;:null}" fill="#efe6e6" stroke="none" stroke-width="0" stroke-linecap="butt" stroke-linejoin="miter"/><path d="M237.62671,179.07964l1.19494,-1.19021c0,0 0.51811,-1.82091 0.92341,-2.03608c0.1055,-0.05601 0.54617,0.25732 0.54617,0.25732c0,0 0.15237,0.10152 0.03585,0.39214c-0.02383,0.05945 -0.31129,0.24749 -0.32928,0.31491c-0.05696,0.21343 -0.0273,0.35429 0.06307,0.52015c0.41244,0.75695 0.3672,1.05929 0.3672,1.05929c0,0 -0.09646,0.16228 -0.14948,0.24079c-0.29616,0.43856 -1.17271,1.10377 -1.17271,1.10377z" data-paper-data="{&quot;index&quot;:null}" fill="#efe6e6" stroke="none" stroke-width="0" stroke-linecap="butt" stroke-linejoin="miter"/><path d="M240.39171,176.44952l-0.58734,-0.2483l0.34871,-0.17345c0,0 0.61577,0.30667 0.6737,0.35854c0.07611,0.1201 0.03244,0.54602 -0.03841,0.91492c-0.05817,0.30286 -0.30471,1.11969 -0.30471,1.11969c0,0 -0.06589,-0.19099 -0.14997,-0.37439c-0.12161,-0.26525 -0.26628,-0.51929 -0.33157,-0.76268c-0.10588,-0.43836 0.38961,-0.83433 0.38961,-0.83433z" data-paper-data="{&quot;index&quot;:null}" fill="#fd4275" stroke="none" stroke-width="0" stroke-linecap="butt" stroke-linejoin="miter"/><path d="M239.39277,179.42868c0,0 0.77399,-0.59998 0.91404,-1.06975c0.09493,-0.31843 -0.55273,-1.42895 -0.55273,-1.42895l0.19192,-0.0394c0,0 0.58963,1.20561 0.4988,1.4956c-0.17202,0.5492 -0.92456,1.11701 -0.92456,1.11701z" data-paper-data="{&quot;index&quot;:null}" fill="#fed000" stroke="none" stroke-width="0" stroke-linecap="butt" stroke-linejoin="miter"/><path d="M239.88319,176.879l0.41761,-0.40616l-0.69863,-0.27993l0.39611,-0.25831l0.15795,0.10661l-0.27342,0.11997l0.61141,0.267l-0.42192,0.49769l0.47825,1.1413c0,0 0.01478,0.15795 -0.01236,0.21511c-0.02714,0.05717 -0.15997,0.24061 -0.15997,0.24061c0,0 0.04947,-0.15932 0.03349,-0.34183c-0.0156,-0.17824 -0.09614,-0.37846 -0.13986,-0.48626c-0.10313,-0.25426 -0.38867,-0.81584 -0.38867,-0.81584z" data-paper-data="{&quot;index&quot;:null}" fill="#fff9f9" stroke="none" stroke-width="0" stroke-linecap="butt" stroke-linejoin="miter"/><path d="M239.5464,176.24083l0.07036,-0.05292l0.67074,0.28708l-0.04157,0.04138z" data-paper-data="{&quot;index&quot;:null}" fill="#fed000" stroke="none" stroke-width="0" stroke-linecap="butt" stroke-linejoin="miter"/><path d="M241.14385,177.1253l-0.27569,-0.45359c0,0 -0.00002,-0.09099 -0.0087,-0.14549c-0.00869,-0.0545 -0.01392,-0.12855 -0.01392,-0.12855c0,0 0.35525,0.13767 0.53695,0.20245c0.18445,0.06577 0.68131,0.09651 0.68131,0.09651z" data-paper-data="{&quot;index&quot;:null}" fill="#fff9f9" stroke="none" stroke-width="0" stroke-linecap="butt" stroke-linejoin="miter"/><path d="M241.21546,176.8772l-0.27024,-0.44462l0.7202,0.26439z" data-paper-data="{&quot;index&quot;:null}" fill="#fd4275" stroke="none" stroke-width="0" stroke-linecap="butt" stroke-linejoin="miter"/><g data-paper-data="{&quot;index&quot;:null}" stroke="none" stroke-width="0" stroke-linecap="butt" stroke-linejoin="miter"><path d="M242.40178,176.88694c1.08671,0.46653 2.25966,1.19355 3.01404,1.70565c1.07858,0.73217 2.06071,1.35264 2.06071,1.35264c0,0 -0.11214,0.53194 -0.37861,0.71713c-0.26648,0.18518 -0.32686,0.27841 -0.32686,0.27841c0,0 -1.65619,-1.21448 -2.09131,-1.50985c-0.71375,-0.48452 -1.64344,-1.06153 -2.72008,-1.69897c-0.26975,-0.15973 -0.34286,-0.39321 -0.19125,-0.67496c0.10189,-0.18929 0.27352,-0.3245 0.63336,-0.17002z" data-paper-data="{&quot;index&quot;:null}" fill="#fff9fb"/><path d="M250.65755,181.70791c0.10787,0.08207 0.39119,1.09482 0.45013,1.56533c0.0322,0.25698 0.09526,0.73536 -0.28267,0.95105c-0.09632,0.05497 -0.63726,0.06163 -0.63726,0.06163l-0.16359,0.3863c0,0 -0.21737,0.12326 -0.36863,0.12018c-0.15126,-0.00309 -0.40906,-0.1169 -0.40906,-0.1169c0,0 -0.14544,0.0913 -0.23427,0.17639c-0.28991,0.27777 -0.57314,0.02969 -0.57314,0.02969c0,0 -0.18724,0.22559 -0.39237,0.28086c-0.3252,0.08761 -0.74928,0.00681 -0.95267,-0.10935c-0.34554,-0.1973 -1.15184,-0.959 -1.04477,-1.31375c0.16676,-0.55251 0.81864,-0.26909 0.81864,-0.26909c0,0 -0.35693,-0.48527 -0.39177,-0.84826c-0.05366,-0.55891 0.1475,-0.86209 0.1475,-0.86209l2.10979,-1.25552c0,0 1.247,0.68836 1.92412,1.2035z" data-paper-data="{&quot;index&quot;:null}" fill="#ffffff"/><g data-paper-data="{&quot;index&quot;:null}"><path d="M246.06483,181.61481c-0.72999,-0.77508 -0.29045,-1.35811 0.34811,-1.9406c0.63857,-0.5825 1.24689,-0.95531 1.96434,-0.16878c0.71744,0.78653 0.29045,1.35811 -0.34811,1.9406c-0.63857,0.5825 -1.23452,0.94369 -1.96434,0.16878z" fill="#fed000"/><path d="M245.71459,181.93427c-0.60179,-0.62693 0.01504,-1.33818 0.84703,-2.09711c0.832,-0.75893 1.58047,-1.29306 2.16594,-0.65122c0.58546,0.64183 -0.01504,1.33818 -0.84703,2.09711c-0.832,0.75893 -1.56425,1.278 -2.16594,0.65122z" fill="#e68b9c"/></g></g><path d="M242.38142,177.15659c0,0 0.20143,0.43549 -0.16304,0.70107c-0.20732,0.14327 -0.5621,0.43032 -0.82649,0.55378c-0.18281,0.08536 -0.35666,0.18829 -0.35666,0.18829c0,0 0.34083,-0.78221 0.49253,-1.05071c0.1848,-0.32705 0.26547,-0.69657 0.40122,-0.73883c0.03337,-0.00088 -1.57324,-0.59354 -1.47377,-0.57811c0.05673,0.0088 0.30063,-0.03077 0.6097,0.03229c0.18042,0.03681 0.41236,0.16332 0.56493,0.21052c0.19548,0.06047 0.85024,0.39834 0.85024,0.39834l0.50494,0.40811z" data-paper-data="{&quot;index&quot;:null}" fill="#fd4275" stroke="none" stroke-width="0" stroke-linecap="butt" stroke-linejoin="miter"/><path d="M241.06909,180.04832c0,0 -0.20605,-0.91992 0.01834,-1.44989c0.11848,-0.27983 1.34832,-0.8171 1.34832,-0.8171l0.00755,0.0683c0,0 -1.09929,0.5132 -1.23305,0.81737c-0.19733,0.44872 0.00425,1.40706 0.00425,1.40706z" data-paper-data="{&quot;index&quot;:null}" fill="#fed000" stroke="none" stroke-width="0" stroke-linecap="butt" stroke-linejoin="miter"/><path d="M242.49111,177.8131c0,0 -0.58118,0.24322 -0.82436,0.37026c-0.1031,0.05387 -0.29408,0.15435 -0.42136,0.2801c-0.13031,0.12877 -0.19575,0.28222 -0.19575,0.28222c0,0 0.0175,-0.2258 0.03382,-0.28695c0.01631,-0.06114 0.12983,-0.17197 0.12983,-0.17197l1.10331,-0.56035l0.00057,-0.65247l0.63887,0.19226c0,0 -0.7957,-0.51117 -1.13052,-0.68667c-0.27616,-0.14474 -0.73655,-0.29194 -0.73655,-0.29194l0.76341,-0.02578l1.38529,1.1355l-0.80197,-0.1641l0.0554,0.57992z" data-paper-data="{&quot;index&quot;:null}" fill="#fff9f9" stroke="none" stroke-width="0" stroke-linecap="butt" stroke-linejoin="miter"/><g data-paper-data="{&quot;index&quot;:null}" stroke="none" stroke-width="0" stroke-linecap="butt" stroke-linejoin="miter"><g data-paper-data="{&quot;index&quot;:null}"><path d="M249.36819,166.75682c0,0 -0.28311,0.36172 -1.26377,0.94476c-1.95519,1.1624 -2.97032,0.46296 -2.97032,0.46296c0,0 0.09984,-0.88975 1.1134,-1.3507c1.03856,-0.47231 3.1207,-0.05703 3.1207,-0.05703z" data-paper-data="{&quot;index&quot;:null}" fill="#ce204f"/><path d="M247.35771,166.67222c-1.14079,-0.01633 -2.20457,1.43234 -2.20457,1.43234c0,0 -0.34686,-1.87027 1.92771,-1.88493c1.14089,-0.00734 2.31783,0.55265 2.31783,0.55265c0,0 -0.90017,-0.08371 -2.04097,-0.10005z" fill="#ff4488"/></g><g data-paper-data="{&quot;index&quot;:null}"><path d="M245.12683,168.29309c0,0 1.06135,0.04325 1.63592,0.35398c1.13736,0.61513 1.49085,2.24082 1.49085,2.24082c0,0 -1.25807,-0.46533 -2.05476,-0.78499c-1.08718,-0.43625 -1.072,-1.80982 -1.072,-1.80982z" fill="#f5e4ec"/><path d="M246.72742,168.78037c0.9478,0.51259 1.2424,1.86735 1.2424,1.86735c0,0 -1.04842,-0.38775 -1.71231,-0.65415c-0.90601,-0.36354 -0.89334,-1.50819 -0.89334,-1.50819c0,0 0.88446,0.03603 1.36327,0.29499z" fill="#e2c1c1"/></g></g><path d="M239.72869,169.5635c-1.5438,0.48421 -1.20513,2.51202 -1.20513,2.51202c0,0 -0.38088,-1.34653 0.31551,-2.11885c0.45972,-0.50985 0.77429,-0.70547 1.47871,-0.6192c0.78935,0.09665 1.40198,0.77579 1.40198,0.77579c0,0 -1.03596,-0.84932 -1.99107,-0.54976z" data-paper-data="{&quot;index&quot;:null}" fill="#000000" stroke="none" stroke-width="0" stroke-linecap="butt" stroke-linejoin="miter"/><path d="M240.66669,165.18573c3.3381,0.02442 6.02708,2.378 6.00602,5.25688c-0.02105,2.87888 -2.74418,5.19288 -6.08227,5.16846c-3.33808,-0.02441 -6.02707,-2.37798 -6.00601,-5.25686c0.02104,-2.87889 2.74416,-5.1929 6.08225,-5.16848z" data-paper-data="{&quot;index&quot;:null}" fill="#f79eb4" stroke="none" stroke-width="0" stroke-linecap="butt" stroke-linejoin="miter"/><path d="M246.4602,172.1868c0.00639,-0.01608 0.02846,1.04461 -0.73637,2.38301c-1.22659,2.16042 -2.70675,2.2073 -2.70675,2.2073l0.28927,-0.90907c0,0 1.5647,-1.71287 1.9762,-2.35732c0.41148,-0.64446 0.61756,-1.811 0.61737,-1.8103" data-paper-data="{&quot;index&quot;:null}" fill="#f79eb4" stroke="#f89db5" stroke-width="0" stroke-linecap="butt" stroke-linejoin="round"/><path d="M243.03119,172.32603c0.41901,0.603 0.61734,0.59132 0.81397,0.60717c0.33731,0.02718 0.82157,-0.10037 1.10234,-0.46859c0.40142,-0.52644 0.62397,-0.63421 1.07308,-0.64203c0.06806,-0.00119 0.16775,-0.16398 0.01761,0.4137c-0.31843,1.22507 -1.13718,2.09355 -1.28373,2.10017c-0.58553,0.02645 -0.41753,-0.50839 -1.60417,-0.43705c-0.67587,0.04065 -2.2085,0.79032 -2.86314,0.60235c-1.27655,-0.57875 -1.61016,-1.64854 -1.71093,-2.36059c-0.30282,-2.13971 0.70515,-1.29941 1.15012,-1.25235c2.65131,1.05049 1.64362,0.89345 2.87242,1.70004z" data-paper-data="{&quot;index&quot;:null}" fill="#ffffff" stroke="none" stroke-width="0" stroke-linecap="butt" stroke-linejoin="miter"/><g data-paper-data="{&quot;index&quot;:null}" fill="#ffd5c5" stroke="none" stroke-width="1" stroke-linecap="round" stroke-linejoin="round"><path d="M244.95997,174.08888c0.11378,0.5355 -0.34687,0.9926 -0.74464,1.29754c-0.06509,0.04988 -0.5751,0.43833 -1.41067,0.71129c-1.04845,0.3425 -2.42763,0.13434 -2.82383,0.08461c-0.47251,-0.05936 -1.31034,-0.59356 -1.44259,-0.738c-0.95179,-1.03959 -0.22972,-1.53347 -0.12784,-1.6112c0.04859,-0.03705 0.31988,-0.13608 0.63735,-0.02544c0.30944,0.10784 1.15446,0.58321 1.44657,0.5729c0.31386,-0.01109 2.0633,-0.58855 2.97057,-0.58073c0.18854,0.00359 0.43629,0.06841 0.58708,0.18817c0.19624,0.15591 0.48954,0.45387 0.75702,0.20024c0.04327,-0.04108 0.13852,-0.15777 0.15095,-0.09941z"/><path d=""/></g><g data-paper-data="{&quot;index&quot;:null}" fill="#000000" stroke="none" stroke-width="1" stroke-linecap="round" stroke-linejoin="round"><path d="M243.73397,174.46553c-0.23883,-0.03729 -0.6336,-0.23497 -0.43623,-0.37571c0.15002,-0.10696 0.6786,-0.04456 0.76936,0.023c0.15699,0.11687 -0.22325,0.36087 -0.33314,0.35271z"/><path d=""/></g><path d="M238.3545,171.35465c0.02085,-0.05286 -0.11364,1.89492 -0.09834,2.77551c0.02884,1.65829 0.40428,2.68939 0.40428,2.68939c0,0 -0.35601,-0.23703 -0.44119,-0.30916c-0.26318,-0.22278 -0.49523,-0.44329 -0.71849,-0.70992c-0.52509,-0.62715 -0.87735,-1.37656 -1.09329,-2.16265c-0.14392,-0.52388 -0.28719,-2.81433 -0.26427,-2.82792" data-paper-data="{&quot;index&quot;:null}" fill="#f79eb4" stroke="#f89db5" stroke-width="0" stroke-linecap="butt" stroke-linejoin="round"/><path d="M236.04884,170.77774c-0.01475,0.01453 0.2597,2.81745 0.40047,3.5967c0.14076,0.77924 0.59947,1.93844 0.59947,1.93844c0,0 -0.41081,-0.06646 -0.96814,-0.70158c-0.49211,-0.56083 -0.76921,-0.8452 -1.04605,-1.89442c-0.35922,-1.3615 -0.44827,-3.22855 -0.26592,-3.58669" data-paper-data="{&quot;index&quot;:null}" fill="#f79eb4" stroke="#f89db5" stroke-width="0" stroke-linecap="butt" stroke-linejoin="round"/><g data-paper-data="{&quot;index&quot;:null}" fill="#ff4488" stroke="none" stroke-width="1" stroke-linecap="round" stroke-linejoin="round"><path d="M244.41744,167.70772c-0.0862,-0.05654 -2.28296,-1.46354 -3.86992,-1.19997c-1.2508,0.20774 -1.9138,0.72116 -3.0585,1.60524c-0.88281,0.68179 -1.43741,2.24703 -1.47138,2.25574c-0.00245,0.00062 0.36377,-4.10054 3.76162,-4.68066c2.7488,-0.43767 4.94534,1.36806 5.03652,1.48673"/><path d=""/></g><path d="M244.68658,168.81134c-0.02284,0.01824 0.61971,-0.47354 2.39881,-0.02494c0.31704,0.08175 -0.60156,-0.04868 -0.3421,0.69965c0.3176,0.68117 0.29777,1.62466 0.2816,1.62289c-0.02319,-0.0026 0.16228,-0.63593 -0.8742,-1.03893c-0.56594,-0.22006 -1.24216,-0.13628 -1.27221,-0.11225" data-paper-data="{&quot;index&quot;:null}" fill="#f79eb4" stroke="#f89db5" stroke-width="0" stroke-linecap="butt" stroke-linejoin="round"/><path d="M243.83882,168.84305c0.00968,-0.08301 0.86412,-1.43644 1.14698,-1.68758c0.28287,-0.25115 0.45141,-0.319 1.05616,-0.34603c2.05644,0.10697 0.72135,1.40973 0.72135,1.40973c0,0 0.53104,-0.53022 -0.21823,-0.39482c-1.03953,0.18787 -1.7455,0.90674 -1.85005,0.98945" data-paper-data="{&quot;index&quot;:null}" fill="#f79eb4" stroke="#f89db5" stroke-width="0" stroke-linecap="butt" stroke-linejoin="round"/><g data-paper-data="{&quot;index&quot;:null}" stroke="none" stroke-width="1" stroke-linecap="round" stroke-linejoin="round"><g fill="#f79eb4"><path d="M237.24814,168.61779c-0.01989,-0.35897 -0.18097,-0.9793 -0.17866,-1.65563c0.00234,-0.67633 0.06652,-1.54339 0.19021,-1.71685c0.1617,-0.22677 0.9272,-0.00048 1.70702,0.37534c0.77982,0.37584 1.74211,1.15532 1.78538,1.3078"/></g><g fill="#ffd5c5"><path d="M237.81869,168.19248c-0.0099,-0.08492 -0.1229,-0.47905 -0.13403,-0.97943c-0.01114,-0.50038 0.06354,-1.2537 0.08378,-1.27928c0.08205,-0.10371 0.93623,0.18726 1.35835,0.3991c0.42212,0.21185 0.84347,0.59411 0.942,0.75538"/></g></g><g data-paper-data="{&quot;index&quot;:null}" fill="#f79eb4" stroke="none" stroke-width="1" stroke-linecap="round" stroke-linejoin="round"><path d="M244.22888,166.4174c0.29564,-0.08622 0.60914,-0.15365 1.27374,-0.19402c0.66458,-0.04039 1.49116,-0.10096 1.69961,0.01332c0.0427,0.02343 0.15485,0.66867 0.06488,1.17018c-0.14043,0.78284 -0.60737,1.60808 -0.61597,1.62087"/><path d=""/></g><path d="M246.91263,171.87916c-0.39114,0.2071 -0.89443,0.24803 -0.89443,0.24803l0.05484,-0.34373c0,0 0.27853,0.07352 0.71389,-0.08872c0.43538,-0.16226 1.0173,-0.60969 1.0173,-0.60969c0,0 -0.50047,0.58701 -0.89161,0.7941z" data-paper-data="{&quot;index&quot;:null}" fill="#000000" stroke="none" stroke-width="0" stroke-linecap="butt" stroke-linejoin="miter"/><path d="M246.78153,172.46697c-0.41441,0.15534 -0.91881,0.13154 -0.91881,0.13154l0.09836,-0.33389c0,0 0.26682,0.10858 0.71938,0.00336c0.45254,-0.10521 1.29672,-0.44672 1.29672,-0.44672c0,0 -0.78125,0.49036 -1.19566,0.6457z" data-paper-data="{&quot;index&quot;:null}" fill="#000000" stroke="none" stroke-width="0" stroke-linecap="butt" stroke-linejoin="miter"/><path d="M244.81462,170.04715c-0.04044,-0.03006 0.4563,0.12885 1.31246,0.63363c0.24594,0.14503 0.61917,0.95377 0.60099,1.1037c0.02074,0.6101 0.05297,1.45565 0.05458,1.45451c0.03504,-0.0245 -0.07919,-0.48288 -0.72923,-1.34314c-0.22029,-0.28803 -1.12444,-0.83219 -1.23888,-0.91733" data-paper-data="{&quot;index&quot;:null}" fill="#f79eb4" stroke="#f89db5" stroke-width="0" stroke-linecap="butt" stroke-linejoin="round"/><g data-paper-data="{&quot;index&quot;:null}" stroke="none" stroke-linecap="butt" stroke-linejoin="miter"><path d="M241.06676,172.66835c0.05164,-0.71878 0.28205,-1.2879 0.51458,-1.2712c0.23253,0.01672 0.37918,0.61293 0.32753,1.33171c-0.05165,0.71876 -0.28206,1.28788 -0.51459,1.27118c-0.23253,-0.01671 -0.37917,-0.61292 -0.32752,-1.3317z" fill="#169c5b" stroke-width="NaN"/><path d="M241.52172,172.31626c0.10219,0.00733 0.16752,0.25667 0.14595,0.55688c-0.02156,0.30022 -0.12189,0.53766 -0.22407,0.53031c-0.10219,-0.00733 -0.16752,-0.25667 -0.14595,-0.55688c0.02156,-0.30022 0.12189,-0.53766 0.22407,-0.53031z" fill="#000000" stroke-width="0"/><path d="M241.42322,172.16945c0.02182,-0.30374 0.13948,-0.54278 0.2628,-0.53392c0.12331,0.00886 0.20559,0.26227 0.18376,0.56602c-0.02183,0.30375 -0.13948,0.54278 -0.2628,0.53392c-0.12331,-0.00885 -0.20559,-0.26226 -0.18376,-0.56601z" fill="#ffffff" stroke-width="0"/></g><path d="M238.49386,171.6336c0,0 0.02054,-1.96025 1.22113,-1.90471c1.20059,0.05554 2.24763,2.2796 2.24763,2.2796c0,0 -1.82095,-1.10101 -2.42844,-1.10546c-0.60749,-0.00445 -1.04032,0.73057 -1.04032,0.73057z" data-paper-data="{&quot;index&quot;:null}" fill="#e569c4" stroke="none" stroke-width="0" stroke-linecap="butt" stroke-linejoin="miter"/><g data-paper-data="{&quot;index&quot;:null}" stroke="none" stroke-linecap="butt" stroke-linejoin="miter"><path d="M244.47992,173.18103c0.03644,-0.50697 0.19892,-0.90838 0.36295,-0.89661c0.16402,0.01177 0.26743,0.43231 0.23102,0.93929c-0.03645,0.50697 -0.19893,0.90839 -0.36296,0.89662c-0.16402,-0.01177 -0.26742,-0.43231 -0.23101,-0.93929z" fill="#169c5b" stroke-width="NaN"/><path d="M244.64279,173.30674c0.01521,-0.21175 0.08596,-0.37921 0.15803,-0.37402c0.07208,0.00517 0.11817,0.18102 0.10294,0.39278c-0.01522,0.21175 -0.08598,0.37922 -0.15805,0.37403c-0.07209,-0.00518 -0.11818,-0.18103 -0.10295,-0.39279z" fill="#000000" stroke-width="0"/><path d="M244.73132,172.82915c0.01541,-0.21423 0.09838,-0.38285 0.18537,-0.3766c0.08698,0.00626 0.14499,0.18499 0.12961,0.39924c-0.01541,0.21423 -0.09839,0.38283 -0.18538,0.37658c-0.08698,-0.00626 -0.14499,-0.18497 -0.12961,-0.39922z" fill="#ffffff" stroke-width="0"/></g><path d="M240.49649,175.29506c0,0 -0.57392,-0.01073 -0.77198,-0.03369c-0.19807,-0.02297 -0.52766,-0.17362 -0.52766,-0.17362" data-paper-data="{&quot;index&quot;:null}" fill="none" stroke="#000000" stroke-width="0.125" stroke-linecap="round" stroke-linejoin="miter"/><path d="M238.4984,171.74261c0,0 -0.50065,-0.06588 -0.88101,-0.29215c-0.38036,-0.22628 -0.85105,-0.83742 -0.85105,-0.83742c0,0 0.57265,0.46324 0.99941,0.64692c0.42677,0.18368 0.91673,0.1723 0.91673,0.1723l-0.18409,0.31035z" data-paper-data="{&quot;index&quot;:null}" fill="#000000" stroke="none" stroke-width="0" stroke-linecap="butt" stroke-linejoin="miter"/><path d="M237.46097,172.06238c-0.44031,-0.04464 -1.28076,-0.40125 -1.28076,-0.40125c0,0 0.92158,0.29676 1.38599,0.28321c0.4644,-0.01354 1.09938,-0.33307 1.09938,-0.33307l-0.04579,0.34681c0,0 -0.7185,0.14896 -1.15882,0.10431z" data-paper-data="{&quot;index&quot;:null}" fill="#000000" stroke="none" stroke-width="0" stroke-linecap="butt" stroke-linejoin="miter"/><g data-paper-data="{&quot;index&quot;:null}" fill="none" stroke="none" stroke-width="1" stroke-linecap="butt" stroke-linejoin="miter" font-family="sans-serif" font-weight="normal" font-size="12" text-anchor="start"><g data-paper-data="{&quot;index&quot;:null}"/><g data-paper-data="{&quot;index&quot;:null}"/></g><g data-paper-data="{&quot;index&quot;:null}" stroke-width="0" stroke-linecap="butt" stroke-linejoin="miter"><path d="M266.47606,181.89953l-8.96794,-1.44684c0,0 -0.92446,-2.77585 0.6866,-3.92578c1.52684,-1.08982 2.90411,-1.56548 4.8964,-1.35185c5.18849,0.55634 4.74148,5.20761 4.74148,5.20761z" fill="#ffff00" stroke="none"/><path d="M266.84618,181.51608c0,0 0.06591,-0.64454 -0.0583,-1.32135c-0.0831,-0.45292 -0.38982,-0.92919 -0.31582,-1.12736c0.14878,-0.39858 0.28109,-0.05508 0.57753,0.73122c0.13824,0.36662 0.1571,1.3293 0.1571,1.3293l-0.3605,0.38819z" fill="#a58c48" stroke="#000000"/><path d="M264.74118,177.19672c-0.02504,0.1865 -1.01438,-0.31825 -1.90315,-0.43757c-0.88878,-0.11932 -2.40897,0.41118 -2.40423,-0.01942c0.00519,-0.47156 1.53659,-0.55541 2.42853,-0.46274c1.33117,0.13827 1.90389,0.73318 1.87884,0.9197z" fill="#a58c48" stroke="#000000"/><path d="M257.40846,179.38756c0,0 0.11309,-0.60554 0.32999,-0.9937c0.19473,-0.34849 0.55028,-0.3182 0.60638,-0.25593c0.15937,0.17695 -0.25938,0.4042 -0.47057,0.79641c-0.22816,0.42372 -0.31513,0.8375 -0.31513,0.8375z" fill="#a58c48" stroke="#000000"/><path d="M261.92298,182.2185c3.53823,0.57149 4.20562,2.69872 4.20562,2.69872c0,0 0.08016,-0.20544 0.00148,0.3857c-0.0787,0.59113 -0.09001,0.29996 -0.09001,0.29996c0,0 -1.13716,-1.85955 -3.21865,-2.57607c-3.31254,-1.14031 -5.8331,0.99666 -5.8331,0.99666l0.15954,-0.57298c0,0 2.25356,-1.63925 4.77513,-1.23197z" fill="#edeee6" stroke="none"/><path d="M257.41892,180.02506c0,0 2.35644,-2.59498 5.12822,-2.03364c3.51272,0.71139 4.15342,3.6437 4.15342,3.6437l-0.22237,0.25801c0,0 -1.06018,-2.1153 -3.09489,-2.87282c-3.23807,-1.20551 -5.89631,1.39629 -5.89631,1.39629l-0.06805,-0.39155z" fill="#edeee6" stroke="none"/><path d="M262.4367,178.39551c3.55352,0.57357 4.09919,3.78529 4.09919,3.78529c0,0 -0.0044,0.94472 -0.08308,1.53586c-0.07867,0.59116 -0.32018,1.49417 -0.32018,1.49417c0,0 -1.14304,-1.86033 -3.23378,-2.57811c-3.32721,-1.14228 -5.85723,0.99341 -5.85723,0.99341l0.43921,-3.30488c0,0 2.42341,-2.33448 4.9559,-1.92571z" fill="#754c86" stroke="none"/><path d="M255.65321,186.61404c0,0 -0.132,-0.77843 0.27715,-1.56575c0.64008,-1.23177 2.16866,-2.69883 5.215,-2.40831c5.80923,0.55399 5.67348,5.79795 5.67348,5.79795c0,0 -5.6889,-2.84708 -7.01658,-3.02534c-1.32769,-0.17826 -4.14905,1.20145 -4.14905,1.20145z" fill="#ffff00" stroke="none"/><path d="M261.64221,183.55618c-0.69126,-0.09281 -2.41351,-0.00088 -2.2557,-0.22195c0.23348,-0.32709 1.592,-0.37496 2.27997,-0.2602c1.24224,0.20724 1.97574,0.8008 1.961,0.91052c-0.01474,0.10972 -1.09533,-0.30888 -1.98527,-0.42838z" fill="#a58c48" stroke="#000000"/><path d="M266.4256,186.34235c0,0 -1.11305,-1.09215 -1.1512,-1.36811c-0.05944,-0.43001 0.96229,0.81688 0.96229,0.81688l0.18892,0.55123z" fill="#a58c48" stroke="#000000"/><path d="M257.82574,183.81231c-0.0501,0.37307 -1.785,1.16192 -1.785,1.16192l0.44163,-0.70818c0,0 1.39342,-0.82682 1.34333,-0.45374z" fill="#a58c48" stroke="#000000"/><path d="M261.05794,191.18264c-3.19266,-0.46913 -5.74098,-2.24305 -5.42044,-4.63027c0.22982,-1.71173 3.3213,-2.58789 6.15636,-2.1668c2.7158,0.4034 5.23069,2.31719 5.00087,4.02891c-0.22983,1.7117 -3.017,3.14221 -5.73342,2.74305z" fill="#ffff00" stroke="#000000"/><path d="M265.34423,189.92507c-0.13849,1.03139 -2.21655,1.6036 -4.64146,1.278c-2.42492,-0.3256 -4.27846,-1.42564 -4.13996,-2.45707c0.1385,-1.0314 2.21656,-1.6036 4.64147,-1.278c2.42491,0.3256 4.27844,1.42563 4.13994,2.45706z" fill="#ffff00" stroke="#000000"/><path d="M250.79515,183.12436l-7.0484,-0.5024c0,0 -0.41632,-0.36089 -0.39651,-0.59285c0.01983,-0.23197 0.37714,-0.73026 0.37714,-0.73026l7.02445,0.08712l4.30315,-0.00043c0,0 -0.19833,0.61404 -0.21807,1.02102c-0.01976,0.40697 0.12007,0.99834 0.12007,0.99834z" fill="#fbdd00" stroke="none"/><path d="M256.99961,183.81415c0,0 -1.827,-0.11649 -1.90517,-0.19314c-0.29676,-0.29094 -0.30061,-2.01742 0.06917,-2.47073c0.21831,-0.26767 2.75325,-0.24373 2.75325,-0.24373l-0.64271,2.67444z" fill="#c8c8c6" stroke="none"/><path d="M267.81955,180.17867c0,0 0.18744,-2.4081 -1.78864,-3.90033c-0.47935,-0.36197 -1.26014,-0.61037 -2.0006,-0.8264c-1.10077,-0.32112 -2.45131,-0.40508 -3.55711,-0.05149c-1.36629,0.43689 -2.52484,1.44499 -2.52484,1.44499c0,0 2.38101,-2.92055 5.61869,-2.05144c4.79856,1.2881 4.25252,5.38468 4.25252,5.38468z" fill="#ffff00" stroke="#000000"/><path d="M243.7467,182.62198c0,0 -0.41632,-0.36089 -0.39651,-0.59285c0.01983,-0.23199 0.37713,-0.73028 0.37713,-0.73028l3.01485,0.02229c0,0 0.07142,0.32664 0.05168,0.73362c-0.01974,0.40697 -0.128,0.78011 -0.128,0.78011z" fill="#a56402" stroke="none"/></g><g stroke="none" stroke-width="0" stroke-linecap="butt" stroke-linejoin="miter"><path d="M239.6521,176.16596c1.04853,0.54693 2.16345,1.36012 2.87722,1.92751c1.02046,0.81121 1.95315,1.50382 1.95315,1.50382c0,0 -0.1518,0.522 -0.43147,0.6866c-0.27965,0.16464 -0.34688,0.25304 -0.34688,0.25304c0,0 -1.56013,-1.33561 -1.97182,-1.66287c-0.6753,-0.53682 -1.55895,-1.18214 -2.58458,-1.89875c-0.257,-0.17956 -0.31234,-0.41788 -0.13994,-0.68745c0.11583,-0.18111 0.29716,-0.30301 0.64436,-0.12191z" data-paper-data="{&quot;index&quot;:null}" fill="#4c2b5c"/><path d="M239.6521,176.16596c0.76169,0.3973 2.21093,1.41713 2.21093,1.41713l0.42181,1.74828c0,0 -0.43789,-0.36618 -0.55254,-0.45732c-0.6753,-0.53682 -1.55895,-1.18214 -2.5846,-1.89874c-0.257,-0.17956 -0.31234,-0.41788 -0.13994,-0.68745c0.11583,-0.18111 0.29716,-0.30302 0.64436,-0.12192z" data-paper-data="{&quot;index&quot;:null}" fill="#edbb82"/></g><g data-paper-data="{&quot;index&quot;:null}" stroke="none" stroke-linecap="butt" stroke-linejoin="miter"><path d="M245.55582,179.60221c0,0 1.45532,0.29961 2.2893,0.60316c0.13287,0.04837 0.72863,0.96949 0.93302,1.41994c0.11163,0.24604 0.3226,0.70307 0.01289,1.03492c-0.07897,0.08461 -0.61573,0.25871 -0.61573,0.25871l-0.04337,0.43546c0,0 -0.17832,0.19009 -0.32998,0.23387c-0.15164,0.04375 -0.44371,0.01019 -0.44371,0.01019c0,0 -0.1166,0.13597 -0.17874,0.24825c-0.20282,0.36647 -0.56175,0.20699 -0.56175,0.20699c0,0 -0.11669,0.28271 -0.30391,0.40125c-0.2968,0.18795 -0.74427,0.23878 -0.98285,0.18603c-0.40525,-0.0896 -1.44429,-0.59874 -1.44746,-0.98525c-0.00496,-0.602 0.73218,-0.5215 0.73218,-0.5215c0,0 -0.5058,-0.37293 -0.65288,-0.72373c-0.22651,-0.54014 -0.11999,-0.90443 -0.11999,-0.90443l1.71297,-1.90389z" data-paper-data="{&quot;index&quot;:null}" fill="#f44a7d" stroke-width="0"/><path d="M245.84883,183.24776l-0.00209,-0.51244l0.51244,-0.00209l0.00209,0.51244z" data-paper-data="{&quot;index&quot;:null}" fill="#baba3e" stroke-width="NaN"/><path d="M246.60393,182.61876l-0.00209,-0.51244l0.51244,-0.00209l0.00209,0.51244z" data-paper-data="{&quot;index&quot;:null}" fill="#baba3e" stroke-width="NaN"/><path d="M247.4246,181.92364l-0.00209,-0.51244l0.51244,-0.00209l0.00209,0.51244z" data-paper-data="{&quot;index&quot;:null}" fill="#baba3e" stroke-width="NaN"/><path d="M248.61501,181.41804l-0.28914,-0.23283l-0.09855,-0.36857l0.60595,0.04503z" data-paper-data="{&quot;index&quot;:null}" fill="#baba3e" stroke-width="0"/><g stroke-width="0"><path d="M243.36845,181.38285c-0.76781,-0.73764 -0.35797,-1.3419 0.2507,-1.95557c0.60867,-0.61367 1.19761,-1.01641 1.95346,-0.26671c0.75586,0.74969 0.35797,1.3419 -0.2507,1.95557c-0.60867,0.61367 -1.18583,1.00417 -1.95346,0.26671z" data-paper-data="{&quot;index&quot;:null}" fill="#fed000"/><path d="M243.03463,181.71944c-0.63238,-0.59606 -0.05188,-1.33724 0.74117,-2.13682c0.79304,-0.79957 1.51387,-1.37044 2.13068,-0.75865c0.6168,0.61178 0.05188,1.33724 -0.74117,2.13682c-0.79304,0.79957 -1.49844,1.35457 -2.13068,0.75865z" data-paper-data="{&quot;index&quot;:null}" fill="#e68b9c"/></g></g></g></g></svg>