<svg version="1.1" xmlns="http://www.w3.org/2000/svg" xmlns:xlink="http://www.w3.org/1999/xlink" width="51.11301" height="86.42745" viewBox="0,0,51.11301,86.42745"><g transform="translate(-217.26517,-120.19336)"><g data-paper-data="{&quot;isPaintingLayer&quot;:true}" fill-rule="nonzero" stroke-linejoin="miter" stroke-miterlimit="10" stroke-dasharray="" stroke-dashoffset="0" style="mix-blend-mode: normal"><g data-paper-data="{&quot;index&quot;:null}"><path d="M230.56154,174.63068c-2.62614,-0.50304 -3.23171,-6.10191 -1.35259,-12.50543c0.64902,-2.21169 1.50956,-4.2301 2.46628,-5.90418c0.44652,-0.78133 0.91398,-1.48765 1.39069,-2.10361c0.20471,-0.26451 1.93144,-2.52091 2.13864,-2.75088c1.26957,-1.4092 1.04786,-0.13849 2.16184,0.07489c1.15162,0.2206 1.82511,-1.11598 2.16047,0.70263c0.02093,0.11351 0.12977,2.76655 0.14736,2.88479c0.34324,2.30725 0.0484,5.49786 -0.95525,8.91801c-1.87912,6.40352 -5.53134,11.18681 -8.15747,10.68377z" fill="#462fb6" stroke="none" stroke-width="0" stroke-linecap="butt"/><path d="M237.64279,167.02378c0,0 -0.84625,1.87496 -1.27252,2.74244c-0.60573,1.23267 -1.27364,1.90056 -1.27364,1.90056c0,0 -2.32791,0.5458 -4.09383,-0.04002c-1.9943,-0.66159 -2.91911,-2.21085 -2.91911,-2.21085c0,0 -0.04152,-0.87764 0.0734,-1.9902c0.07905,-0.76526 0.24168,-2.0382 0.24168,-2.0382c0,0 1.81777,2.0395 4.17905,2.54346c3.8976,0.83185 5.06497,-0.90722 5.06497,-0.90722z" fill="#0d0627" stroke="none" stroke-width="0" stroke-linecap="butt"/><path d="M239.37845,161.04836c0,0 -0.20092,1.23307 -0.37466,1.93499c-0.17375,0.70193 -0.5454,1.78201 -0.5454,1.78201c0,0 -3.27306,0.65654 -5.03898,0.07072c-1.9943,-0.66159 -4.19932,-2.44521 -4.19932,-2.44521c0,0 0.15454,-0.88156 0.35987,-1.50205c0.20533,-0.62048 0.7663,-1.7297 0.7663,-1.7297c0,0 1.7611,1.60308 4.12238,2.10704c3.89758,0.83186 4.9098,-0.2178 4.9098,-0.2178z" fill="#0d0627" stroke="none" stroke-width="0" stroke-linecap="butt"/><path d="M239.62935,155.291c0,0 0.23221,1.14704 0.17616,1.86797c-0.06416,0.82533 -0.09374,1.75485 -0.09374,1.75485c0,0 -2.65708,0.27407 -4.37521,-0.11712c-1.71812,-0.39119 -4.01109,-1.79229 -4.01109,-1.79229c0,0 0.56409,-1.21298 0.81485,-1.6214c0.25076,-0.40842 0.78544,-1.05572 0.78544,-1.05572c0,0 0.94305,0.94919 3.30433,1.45315c2.82242,0.53249 3.39926,-0.48942 3.39926,-0.48942z" fill="#0d0627" stroke="none" stroke-width="0" stroke-linecap="butt"/><path d="M239.94361,152.01894l-0.13979,1.51388c0,0 -1.39702,0.5618 -2.18845,0.25693c-0.79143,-0.30487 0.15446,-1.51184 -0.34396,-1.12175c-0.29923,0.23418 -0.83267,0.67528 -1.20375,0.63442c-0.88613,-0.09759 -1.4824,-1.34483 -1.79465,-1.84122c-0.2603,-0.41379 1.44775,-1.01931 1.41807,-1.32773c-0.01409,-0.14643 -0.35986,-1.32281 -0.14145,-2.89049c0.14247,-1.02269 -0.04397,-2.84528 1.11768,-2.45649c0.3696,0.12371 0.64381,0.44913 0.64381,0.44913c0,0 0.72139,-0.14705 1.13815,0.00619c0.41677,0.15324 0.20029,0.65343 0.27085,0.51189c0.12661,-0.25398 0.70831,-0.32932 1.1712,-0.21342c0.46288,0.1159 0.76559,0.69836 0.76559,0.69836c0,0 1.11702,-0.68486 1.67458,0.48953c0.35305,0.74363 -0.99343,2.21722 -0.91031,2.22191c0.19785,0.01117 0.91063,0.82707 0.56558,1.49271c-0.43764,0.84425 -2.04315,1.57613 -2.04315,1.57613z" fill="#c08f5a" stroke="none" stroke-width="0" stroke-linecap="butt"/><path d="M239.72557,150.1044c0,0 -1.02122,-0.13953 -1.41171,-0.54585c-1.13457,-1.18055 0.22269,-1.12668 0.34894,-1.22367c0.12725,-0.09776 0.74615,0.34168 1.37074,0.486c0.66785,0.1543 1.33958,0.01778 1.33958,0.01778" fill="none" stroke="#b26a37" stroke-width="1.5" stroke-linecap="round"/><path d="M240.11654,147.02862l0.47315,-0.67983" fill="none" stroke="#b26a37" stroke-width="0.5" stroke-linecap="round"/><path d="M238.60659,145.85643l-0.29228,0.36394" fill="none" stroke="#b26a37" stroke-width="0.5" stroke-linecap="round"/><path d="M237.21941,145.39767l-0.29534,0.41813" fill="none" stroke="#b26a37" stroke-width="0.5" stroke-linecap="round"/><path d="M237.62664,147.81201c0,0 -0.66505,0.00465 -0.97176,-0.06919c-0.28082,-0.0676 -0.51154,-0.61236 -0.51154,-0.61236" fill="none" stroke="#b26a37" stroke-width="0.5" stroke-linecap="round"/><path d="M239.82912,152.1212c0,0 -1.5557,-0.23392 -2.22695,-0.54006c-0.68826,-0.3139 -1.85289,-1.32065 -1.85289,-1.32065" fill="none" stroke="#b26a37" stroke-width="1" stroke-linecap="round"/></g><g data-paper-data="{&quot;index&quot;:null}" stroke="none" stroke-width="0" stroke-linecap="butt"><path d="M233.96808,189.37066c2.86252,0.35511 4.98635,3.14945 4.77498,3.66246c-0.65815,1.59737 -3.01135,4.71619 -5.35877,6.14386c-3.10133,1.88617 -6.43007,4.47425 -7.06496,3.36693c-1.67007,-2.9128 1.53121,-5.56367 4.63252,-7.44984c0.71589,-0.43541 -2.16674,-6.00519 3.01624,-5.72342z" fill="#09031a"/><path d="M233.13477,196.72193c0,0 -1.21621,-0.58989 -2.21287,-0.42623c-0.99664,0.16366 -3.20643,1.31611 -3.20643,1.31611c0,0 -0.23209,-0.83566 0.71071,-1.80166c0.91394,-0.93641 2.55879,-1.88002 2.58505,-1.89227c2.63801,-1.23104 4.46408,1.35835 4.46408,1.35835z" fill="#b16e27"/><path d="M235.14231,196.93522c2.17541,-2.22348 3.62272,-4.40182 3.74953,-4.1933c0.11478,0.18873 -0.87721,3.59542 -2.7072,5.26876c-1.14402,1.04612 -3.91174,2.85374 -4.94521,3.51899c-5.71284,3.67733 -4.88739,1.09579 -4.88739,1.09579c0,0 2.60218,-1.04114 5.29358,-2.76299c1.28583,-0.82263 2.47203,-1.87995 3.49669,-2.92725z" fill="#a75c1e"/><path d="M235.51624,197.76202c-0.96107,0.58453 -2.04765,0.55277 -2.42696,-0.0709c-0.37931,-0.62366 0.0923,-1.6031 1.05337,-2.1876c0.96107,-0.58452 2.04765,-0.55277 2.42696,0.0709c0.37931,0.62366 -0.0923,1.6031 -1.05337,2.1876z" fill="#999999"/><path d="M235.0331,197.04143c-0.42707,0.25973 -0.86402,0.32111 -0.97594,0.13707c-0.11194,-0.18403 0.14352,-0.54377 0.5706,-0.80351c0.42707,-0.25973 0.86402,-0.32111 0.97594,-0.13707c0.11194,0.18403 -0.14352,0.54377 -0.5706,0.80351z" fill="#b16e27"/></g><g data-paper-data="{&quot;index&quot;:null}" stroke="none" stroke-linecap="butt"><path d="M259.09407,193.04375c-1.11136,0.6897 -3.72077,2.20833 -5.38251,2.27313c-2.0408,0.07959 -4.42519,-3.8435 -4.42519,-3.8435c0,0 0.9538,-0.38833 2.07397,-1.62829c0.63538,-0.70333 0.85957,-2.74444 1.51984,-2.27821c0.87687,0.61917 1.94065,0.29337 1.96911,0.03223c0.21071,-1.93357 1.48746,-3.58647 1.48746,-3.58647c0,0 -0.37575,-1.39376 -0.47081,-2.21449c-0.12089,-1.04391 -0.19588,-3.542 -0.19588,-3.542c0,0 1.02271,1.88734 1.55549,2.65953c0.41793,0.60575 1.38111,1.5967 1.38111,1.5967c0,0 1.94069,-1.13026 3.24393,-1.73064c1.30324,-0.60039 2.34924,-0.84604 2.34924,-0.84604l-2.37167,3.91647c0,0 2.07405,-0.66498 3.43745,-0.93888c1.36341,-0.2739 1.99798,-0.15303 1.99798,-0.15303c0,0 -0.80401,1.30103 -1.43335,2.04534c-0.62934,0.74431 -1.59336,1.53422 -1.59336,1.53422c0,0 1.40744,0.22197 2.29681,0.42052c0.88938,0.19855 1.84449,0.60952 1.84449,0.60952c0,0 -1.74567,0.42612 -2.92869,0.89724c-0.96291,0.38345 -2.44703,1.28391 -2.44703,1.28391c0,0 -2.79705,2.80303 -3.90843,3.49274z" fill="#1c0e4c" stroke-width="NaN"/><path d="M260.14707,192.1144c0,0 -1.0932,0.93146 -1.67812,1.30595c-0.57203,0.36621 -1.79357,0.9167 -1.79357,0.9167c0,0 0.32496,-1.50614 0.4306,-2.98323c0.0376,-0.52581 -0.05719,-1.71682 -0.7458,-2.52031c-0.63533,-0.74134 -1.53165,-1.25786 -1.53165,-1.25786l0.21506,-0.79533c0,0 2.22336,-1.23362 3.92661,0.3628c1.93979,1.81811 1.17688,4.97126 1.17688,4.97126z" fill="#684af8" stroke-width="0"/><path d="M252.67328,187.69741c0,0 1.09416,1.59628 0.97997,3.19272c-0.11419,1.59646 -2.11653,3.07989 -2.37764,3.06121c-0.08451,-0.00602 -0.5856,-0.61033 -1.05932,-1.1739c-0.41324,-0.49161 -0.90088,-1.23059 -0.90088,-1.23059c0,0 1.05738,-0.93739 1.45416,-1.42745c1.51899,-1.87613 1.90371,-2.42198 1.90371,-2.42198z" fill="#684af8" stroke-width="0"/></g><g data-paper-data="{&quot;index&quot;:null}" stroke="none" stroke-width="0" stroke-linecap="butt"><path d="M245.03417,161.62039c0,-0.93167 2.32662,-2.6189 6.40734,-3.83047c3.48761,-1.03548 10.95077,-2.3388 11.55334,-1.82883c0.23049,0.19505 -5.0535,2.22081 -8.22584,3.77114c-4.10713,1.79243 -7.76875,4.67641 -7.76875,4.67641c0,0 -1.96606,-2.37738 -1.96606,-2.78826z" data-paper-data="{&quot;index&quot;:null}" fill="#ffffff"/><path d="M250.69272,157.15326c0.34359,-0.45814 0.68035,-1.19604 0.68035,-1.19604c0,0 2.1972,-0.43334 5.3085,-0.43334c3.1113,0 5.6133,-0.19228 6.39185,0.32502c0.25892,0.17201 -3.38835,0.28657 -6.34046,0.88048c-3.02503,0.60857 -6.82245,1.66541 -6.82245,1.66541c0,0 0.43859,-0.7834 0.78219,-1.24154z" fill="#1a0c47"/><path d="M244.55633,160.70214c-0.18482,-0.1406 2.01942,-1.21997 4.05353,-1.44239c1.29271,-0.14137 3.74612,-0.23334 3.87569,-0.1285c0.15009,0.12146 -2.15378,1.93609 -2.88969,2.7579c-0.73592,0.82181 -2.66902,2.73632 -2.66902,2.73632c0,0 -0.73492,-1.38699 -1.4069,-2.51313c-0.43113,-0.7225 -0.86821,-1.33763 -0.96362,-1.41021z" data-paper-data="{&quot;index&quot;:null}" fill="#e8e8e8"/><path d="M241.2372,160.08306c0,0 3.42736,-2.19845 5.18211,-2.94315c2.67141,-1.13371 5.34462,-1.17365 5.34462,-1.17365l-1.66077,2.34606c0,0 -1.9688,0.70504 -2.77171,1.21906c-0.8029,0.51402 -2.19412,1.79754 -2.19412,1.79754c0,0 -0.81475,-0.58589 -1.68614,-0.85672c-0.87138,-0.27084 -2.21398,-0.38915 -2.21398,-0.38915z" data-paper-data="{&quot;index&quot;:null}" fill="#684af8"/></g><path d="M252.89126,165.39515c0,0.2116 -0.85973,-0.11645 -1.26447,-0.00558c-0.48223,0.13208 -1.11894,0.24933 -1.11894,0.24933c0,0 0.63191,0.28556 0.87151,0.63016c0.23961,0.3446 0.65226,0.65383 0.65226,0.65383c0,0 -0.94679,0.54893 -1.41459,0.55273c-0.09187,0.00074 0.57819,0.5098 0.79909,0.99112c0.27099,0.59044 0.25799,1.12292 0.25799,1.12292c0,0 -1.04266,-0.62529 -1.79931,-1.22239c-0.13439,-0.10604 0.33985,0.60253 0.50401,1.17296c0.19862,0.69023 -0.03362,1.35095 -0.03362,1.35095c0,0 -1.16099,-1.05105 -1.25138,-1.04237c-0.81657,0.0784 -4.45923,-1.39463 -4.74532,-1.77132c-0.45201,-0.59515 3.01761,-3.81988 3.01761,-3.81988c0,0 1.02586,-0.29792 2.49175,-0.29792c1.46591,0 3.03343,0.91758 3.03343,1.38129z" data-paper-data="{&quot;index&quot;:null}" fill="#5133c8" stroke="none" stroke-width="NaN" stroke-linecap="butt"/><g data-paper-data="{&quot;index&quot;:null}" stroke="none" stroke-width="0" stroke-linecap="butt"><path d="M221.70688,155.73152c0,-0.08295 1.59946,0.1643 3.68976,0.07413c1.92979,-0.08327 4.29104,0.72034 4.29104,0.72034l1.26392,2.74452c0,0 -0.93312,-0.42827 -3.64734,-1.37225c-1.22735,-0.42686 -5.5974,-1.50162 -5.5974,-2.02229z" fill="#1a0c47"/><path d="M231.01538,159.41499c3.32235,1.48241 2.61555,4.03632 2.61555,4.96801c0,0.93168 -1.90722,-1.78306 -4.96801,-3.72988c-1.92645,-1.22533 -7.21045,-4.37055 -6.97997,-4.56562c0.60257,-0.50997 6.01008,1.84506 9.33243,3.32748z" fill="#ffffff"/><path d="M231.48807,159.74514c0.31008,-0.25091 3.5882,2.28634 3.27074,2.52786c-0.24411,0.18572 -1.12463,2.13578 -1.12463,2.13578c0,0 -0.38214,-1.16136 -0.98979,-2.30299c-0.58492,-1.09892 -1.3064,-2.23921 -1.1563,-2.36066z" fill="#e8e8e8"/><path d="M237.66846,160.42611c0,0 -1.0781,0.19933 -1.74452,0.63291c-0.66642,0.43358 -1.2528,1.02826 -1.2528,1.02826c0,0 -1.10679,-0.75828 -2.03161,-1.68921c-0.44262,-0.44556 -1.41637,-0.86981 -2.17585,-1.65242c-0.77041,-0.7939 -1.32245,-1.94398 -1.17327,-2.07523c0.71491,-0.62899 3.48575,0.47328 5.23628,1.22782c1.75055,0.75454 3.214,2.52786 3.214,2.52786z" fill="#684af8"/></g><g data-paper-data="{&quot;index&quot;:null}" stroke="none" stroke-width="0" stroke-linecap="butt"><path d="M240.33234,193.65843c-7.72849,0 -13.88532,-5.24641 -13.99366,-14.13794c2.17994,-7.91592 7.88931,-14.16171 13.99366,-14.13794c7.40226,0.02884 13.63323,9.47188 13.99366,14.13794c-0.10833,11.59996 -6.26518,14.13794 -13.99366,14.13794z" fill="#684af8"/><path d="M244.02754,170.0648c-0.54902,0.73911 -1.33807,1.94301 -1.33807,1.94301c0,0 0.62782,-0.33816 2.07278,-0.17785c0.44655,0.04954 1.16733,0.39691 1.16733,0.39691c0,0 -0.34352,0.30058 -1.25295,0.9363c-1.22969,0.85958 -1.89919,1.66228 -1.89919,1.66228c0,0 0.25825,0.00622 0.89903,0.2716c0.38862,0.16094 1.56007,0.77968 1.56007,0.77968c0,0 -2.68727,0.1988 -3.86833,1.67045c-0.99711,1.24243 0.96495,9.20906 -1.30992,12.84425c-1.79538,2.86896 -6.82063,0.719 -8.34479,-0.37675c-3.93158,-2.82651 -4.78088,-5.37289 -5.00841,-9.14866c-0.32431,-5.38195 1.89712,-6.76798 1.89712,-6.76798c0,0 -0.38108,-0.5379 -0.54837,-0.988c-0.23424,-0.63028 -0.29447,-1.73938 -0.29447,-1.73938l1.61514,1.27856l0.1949,-0.54632c0,0 -0.0903,0.03323 -0.3571,-0.42118c-0.42462,-0.72318 -1.16068,-1.31092 -1.16068,-1.31092c0,0 1.07353,-0.3544 1.60924,-0.31272c0.5357,0.04169 1.33468,0.16474 1.33468,0.16474l0.97894,-3.08726c0,0 0.38438,1.07744 0.77571,1.51882c0.39133,0.44139 0.5254,0.74405 0.5254,0.74405c0,0 0.67274,-0.51064 2.22809,-0.44064c1.35216,0.06086 3.57933,0.99653 3.57933,0.99653c0,0 0.92321,-0.56916 2.31299,-0.8582c1.38978,-0.28902 3.59136,-0.18181 3.59136,-0.18181c0,0 -0.41082,0.41139 -0.95983,1.15049z" fill="#ffffff"/></g><g data-paper-data="{&quot;index&quot;:null}"><path d="M240.05187,167.72981c-3.76946,0 -6.84689,-1.09096 -6.82522,-3.79179c0.01681,-2.09408 3.05576,-3.79179 6.82522,-3.79179c3.76946,0 6.82522,1.69764 6.82522,3.79179c0,2.09414 -3.05576,3.79179 -6.82522,3.79179z" fill="#684af8" stroke="none" stroke-width="0" stroke-linecap="butt"/><path d="M236.85596,163.77551c-0.86598,-0.05416 0.54168,-3.35843 0.54168,-3.35843c0,0 0.35149,-0.28736 1.73302,-0.29553c1.11068,-0.00658 2.03167,0.10594 2.03167,0.10594c0,0 -0.60093,0.43961 -1.98399,1.47462c-0.85568,0.64033 -1.84718,2.10313 -2.3224,2.07341z" fill="#1c0e4c" stroke="none" stroke-width="0" stroke-linecap="butt"/><path d="M233.75265,164.01153c0.24563,-1.07198 1.01187,-1.80431 1.7114,-1.6357c0.69954,0.16861 1.06753,1.17432 0.82188,2.2463c-0.24565,1.07198 -1.05521,2.10765 -1.75474,1.93904c-0.69953,-0.16861 -1.02419,-1.47765 -0.77854,-2.54963z" fill="#1c0e4c" stroke="none" stroke-width="0" stroke-linecap="butt"/><g stroke="none" stroke-width="0" stroke-linecap="butt"><path d="M235.09546,166.05059c-0.37396,0 -0.67711,-0.30315 -0.67711,-0.67711c0,-0.37396 0.30315,-0.67711 0.67711,-0.67711c0.37396,0 0.67711,0.30315 0.67711,0.67711c0,0.37396 -0.30315,0.67711 -0.67711,0.67711z" fill="#ffff9b"/><path d="M235.07934,165.68514c-0.16324,0 -0.29556,-0.13233 -0.29556,-0.29556c0,-0.16324 0.13233,-0.29556 0.29556,-0.29556c0.16324,0 0.29556,0.13233 0.29556,0.29556c0,0.16324 -0.13233,0.29556 -0.29556,0.29556z" fill="#000000"/></g><path d="M242.29634,162.21317c0.94056,0.81458 0.73452,2.59322 -0.46021,3.9727c-1.19473,1.37949 -2.9257,1.83742 -3.86626,1.02283c-0.94056,-0.81458 -0.73452,-2.59322 0.46021,-3.9727c1.19473,-1.37949 2.9257,-1.83742 3.86626,-1.02283z" fill="#1c0e4c" stroke="none" stroke-width="0" stroke-linecap="butt"/><g stroke="none" stroke-width="0" stroke-linecap="butt"><path d="M238.91431,166.80897c-0.5385,0 -0.97504,-0.43655 -0.97504,-0.97504c0,-0.5385 0.43655,-0.97504 0.97504,-0.97504c0.5385,0 0.97504,0.43655 0.97504,0.97504c0,0.5385 -0.43655,0.97504 -0.97504,0.97504z" fill="#ffff9b"/><path d="M238.89112,166.28274c-0.23505,0 -0.4256,-0.19054 -0.4256,-0.4256c0,-0.23505 0.19054,-0.4256 0.4256,-0.4256c0.23505,0 0.4256,0.19054 0.4256,0.4256c0,0.23505 -0.19054,0.4256 -0.4256,0.4256z" fill="#000000"/></g><path d="M248.2813,163.5999c1.9513,-0.25915 2.38756,0.21882 2.38756,0.12143c0,-0.25299 -1.2349,0.51973 -2.0243,0.9239c-0.78941,0.40416 -1.36123,0.80948 -1.36123,0.80948c0,0 0.98775,0.051 1.55869,0.28931c0.57096,0.2383 1.55599,1.01073 1.55599,1.01073c0,0 -1.61522,-0.05915 -2.64873,-0.03498c-1.03351,0.02417 -1.98266,0.03498 -1.98266,0.03498c0,0 -1.44512,2.39847 -9.45483,1.69951c-0.36998,-0.0063 -0.7381,-0.23412 -0.7381,-0.23412c0,0 -0.79492,-0.00808 -1.21844,-0.23155c-0.42352,-0.22346 -0.83344,-0.58563 -0.83344,-0.58563c0,0 -0.02287,0.10001 -0.23316,0.21157c-0.21029,0.11155 -1.3722,-0.11522 -1.3722,-0.11522l0.78111,-0.58625l-1.25639,-1.09342c0,0 0.7678,-0.26194 1.00203,-0.21148c0.23422,0.05047 0.42046,0.17394 0.42046,0.17394l-0.07519,-1.85186c0,0 0.22773,0.61267 0.70087,1.10944c0.24178,0.25386 0.55175,0.6939 0.769,0.94511c0.36979,0.4276 0.58838,0.45427 0.59655,0.42204c0.09052,-0.35723 0.85945,-0.43402 1.2874,-0.42682c0.7099,0.01194 2.05441,1.05681 3.00891,1.07548c1.49101,-0.05624 2.2408,-1.03759 3.65819,-1.63383c1.41738,-0.59625 1.69427,-0.59496 1.69427,-0.59496c0,0 0.70367,-0.86471 1.49815,-1.62897c1.55095,-1.49196 2.64227,-1.34669 2.64227,-1.34669c0,0 -0.68407,0.8154 -1.04732,1.26368c-0.32407,0.39992 -1.02809,1.29755 -1.02809,1.29755c0,0 -0.23869,-0.55321 1.71262,-0.81235z" fill="#ffffff" stroke="none" stroke-width="0" stroke-linecap="butt"/><path d="M235.45528,167.17665c-0.19965,0 -0.56335,-0.22024 -0.56335,-0.39309c0,-0.17284 0.21765,-0.25037 0.56335,-0.25037c0.3457,0 0.56335,0.07752 0.56335,0.25037c0,0.17285 -0.38457,0.39309 -0.56335,0.39309z" fill="#000000" stroke="none" stroke-width="0" stroke-linecap="butt"/><path d="M238.87872,168.51572c0,0 -0.69993,0.11276 -1.22019,0.03304c-0.34283,-0.05253 -0.7421,-0.42104 -1.31149,-0.62355c-0.46417,-0.16509 -1.3173,0.22631 -1.73654,0.13439c-0.52302,-0.11466 -1.04027,-0.80057 -1.04027,-0.80057" fill="none" stroke="#000000" stroke-width="0.5" stroke-linecap="round"/></g><g data-paper-data="{&quot;index&quot;:null}" stroke="none" stroke-width="0" stroke-linecap="butt"><path d="M252.50184,202.35704c-0.20944,3.49704 -3.367,3.26268 -5.21021,3.03724c-0.46026,-0.05629 -3.16193,-1.13546 -3.89227,-2.33049c-1.62572,-2.66006 -1.42252,-6.86513 -1.22036,-8.51799c0.11006,-0.89993 -1.97381,-2.35999 -0.51429,-2.97056c1.54383,-0.64584 6.65484,-0.41577 7.5237,-0.38042c0.49613,0.02018 -1.9092,1.39171 -1.57229,1.43292c0.64166,0.07849 1.818,4.29084 2.54948,5.64334c0.96114,1.77717 2.41813,2.71803 2.33621,4.08594z" fill="#1c0e4c"/><path d="M250.63948,198.33814c0,0 -1.17242,-0.59195 -3.57373,-0.76454c-2.40131,-0.17258 -5.50103,2.14308 -5.50103,2.14308c0,0 -2.1706,-5.34464 5.17056,-5.15222c3.71376,0.09733 3.90421,3.77367 3.90421,3.77367z" fill="#f0993f"/><path d="M250.79516,197.96898c0.12766,0.82789 -0.00856,1.53596 -0.30422,1.58155c-0.29567,0.04559 -0.63886,-0.58858 -0.7665,-1.41645c-0.12766,-0.82789 0.00856,-1.53596 0.30422,-1.58155c0.29567,-0.04559 0.63886,0.58858 0.7665,1.41645z" fill="#c3c3c3"/><path d="M241.75864,198.84539c-0.04217,-0.27039 0.65085,0.1394 0.65085,0.1394c0,0 0.15033,2.24185 1.16556,3.92491c0.82104,1.36114 2.34686,2.2077 3.72617,2.37641c3.12413,0.38211 4.83926,-1.3727 4.83926,-1.3727c0,0 1.33242,3.31787 -4.37911,2.60775c-6.47505,-0.80505 -5.39101,-3.7538 -6.00274,-7.67576z" fill="#f0993f"/><g><path d="M242.01456,196.03893c0.59391,0.07263 0.95051,1.1522 0.79652,2.41127c-0.15401,1.25907 -0.76029,2.22086 -1.35419,2.14822c-0.59391,-0.07263 -0.95051,-1.1522 -0.79652,-2.41127c0.15401,-1.25908 0.76029,-2.22086 1.35419,-2.14822z" fill="#c3c3c3"/><path d="M242.08959,197.13957c0.21852,0.02671 0.34971,0.42392 0.29306,0.88716c-0.05667,0.46324 -0.27973,0.81711 -0.49824,0.79038c-0.21852,-0.02671 -0.34971,-0.42392 -0.29306,-0.88716c0.05667,-0.46324 0.27973,-0.81711 0.49824,-0.79038z" fill="#dd6c23"/></g></g><g data-paper-data="{&quot;index&quot;:null}" stroke="none" stroke-width="0" stroke-linecap="butt"><path d="M230.70779,184.11758c2.04409,0.6399 3.33136,0.94794 3.33136,0.94794c0,0 -0.31537,1.19281 -0.3649,1.84574c-0.00764,0.10081 0.28367,2.08146 0.28367,2.08146c0,0 -2.74458,-0.63481 -4.66052,-1.62304c-1.18484,-0.61113 -2.00182,-1.59159 -2.24418,-1.93713c-0.93145,-1.32801 -0.59763,-4.21299 -0.59763,-4.21299c0,0 1.38973,2.0019 4.25222,2.89801z" fill="#f0993f"/><path d="M232.35997,187.21626c-0.27864,0 -0.50454,-0.29282 -0.50454,-0.65403c0,-0.36121 0.22589,-0.65403 0.50454,-0.65403c0.27864,0 0.50454,0.29282 0.50454,0.65403c0,0.36121 -0.22589,0.65403 -0.50454,0.65403z" fill="#a94a00"/><path d="M232.54421,186.92868c-0.16039,0 -0.29042,-0.16855 -0.29042,-0.37647c0,-0.20791 0.13002,-0.37647 0.29042,-0.37647c0.16039,0 0.29042,0.16855 0.29042,0.37647c0,0.20791 -0.13002,0.37647 -0.29042,0.37647z" fill="#ffffff"/><path d="M230.06322,186.43622c-0.27864,0 -0.50454,-0.29282 -0.50454,-0.65403c0,-0.36121 0.22589,-0.65403 0.50454,-0.65403c0.27864,0 0.50454,0.29282 0.50454,0.65403c0,0.36121 -0.22589,0.65403 -0.50454,0.65403z" fill="#a94a00"/><path d="M230.26177,186.15058c-0.16039,0 -0.29042,-0.16855 -0.29042,-0.37647c0,-0.20791 0.13002,-0.37647 0.29042,-0.37647c0.16039,0 0.29042,0.16855 0.29042,0.37647c0,0.20791 -0.13002,0.37647 -0.29042,0.37647z" fill="#ffffff"/></g><g data-paper-data="{&quot;index&quot;:null}" stroke="none" stroke-width="0" stroke-linecap="butt"><path d="M241.43515,185.58835c0.01777,-0.17363 2.9809,-0.22483 5.49973,-0.6339c3.625,-0.58871 7.08177,-1.54728 7.08177,-1.54728c0,0 -0.41694,3.37681 -1.1267,3.95791c-0.33594,0.27504 -1.77772,1.11715 -3.36882,1.56302c-1.59111,0.4459 -2.49865,0.41146 -4.19641,0.55702c-1.69775,0.14557 -4.36624,-0.0544 -4.36624,-0.0544c0,0 0.36299,-2.73127 0.47668,-3.84235z" fill="#f0993f"/><g><g><path d="M245.74096,192.33727c0.15887,0.77236 -1.13754,3.16886 -1.13754,3.16886c0,0 -3.05616,-1.20778 -3.25011,-1.7063c-0.08704,-0.22372 -0.44997,-1.54899 -0.86891,-2.45932c-0.41508,-0.90193 -0.8871,-1.38756 -0.77485,-1.90528c0.45059,-2.07797 0.56943,-3.57106 1.0479,-3.57106c0.71801,0 4.69406,5.0662 4.98349,6.47312z" fill="#f0993f"/><g><path d="M236.67404,191.00441c-2.23688,-0.50684 -3.63935,-2.73107 -3.13251,-4.96796c0.50684,-2.23688 2.73107,-3.63935 4.96796,-3.13251c2.23688,0.50684 3.63935,2.73107 3.13251,4.96796c-0.50684,2.23688 -2.73107,3.63935 -4.96796,3.13251z" fill="#fde02b"/><path d="M236.99226,188.66168c-1.03876,-0.23537 -1.69002,-1.26825 -1.45466,-2.30701c0.23537,-1.03876 1.26825,-1.69002 2.30701,-1.45466c1.03876,0.23537 1.69002,1.26825 1.45466,2.30701c-0.23537,1.03876 -1.26825,1.69002 -2.30701,1.45466z" fill="#f4a51d"/><path d="M236.92143,186.7736c0.09866,-0.43543 0.92298,-0.61976 1.84118,-0.41171c0.9182,0.20805 1.58256,0.7297 1.48389,1.16512c-0.09866,0.43543 -0.92298,0.61976 -1.84118,0.41171c-0.9182,-0.20806 -1.58256,-0.72971 -1.48389,-1.16513z" fill="#fffed5"/></g></g><g><path d="M243.25882,192.9047c-0.39489,0 -0.71502,-0.32012 -0.71502,-0.71502c0,-0.39489 0.32012,-0.71502 0.71502,-0.71502c0.39489,0 0.71502,0.32012 0.71502,0.71502c0,0.39489 -0.32012,0.71502 -0.71502,0.71502z" fill="#934200"/><path d="M243.58383,192.42807c-0.19148,0 -0.34669,-0.15522 -0.34669,-0.34669c0,-0.19148 0.15522,-0.34669 0.34669,-0.34669c0.19148,0 0.34669,0.15522 0.34669,0.34669c0,0.19148 -0.15522,0.34669 -0.34669,0.34669z" fill="#1c0e4c"/></g><g><path d="M241.95878,190.91132c-0.39489,0 -0.71502,-0.32012 -0.71502,-0.71502c0,-0.39489 0.32012,-0.71502 0.71502,-0.71502c0.39489,0 0.71502,0.32012 0.71502,0.71502c0,0.39489 -0.32012,0.71502 -0.71502,0.71502z" fill="#934200"/><path d="M242.2838,190.43466c-0.19148,0 -0.34669,-0.15522 -0.34669,-0.34669c0,-0.19147 0.15522,-0.34669 0.34669,-0.34669c0.19148,0 0.34669,0.15522 0.34669,0.34669c0,0.19148 -0.15522,0.34669 -0.34669,0.34669z" fill="#684af8"/></g></g></g><g fill="#000000" stroke-width="0" stroke-linecap="butt"><path d="M241.35568,146.78697v-22.78335h1.78404v22.78335z" stroke="#b26a37"/><path d="M243.16893,146.45076c0,0 -0.01949,0.47804 -0.05692,0.70822c-0.31939,1.96446 -1.94457,3.45955 -3.90141,3.45955c-1.99178,0 -3.63997,-1.54897 -3.91727,-3.56525c-0.02705,-0.19673 -0.04106,-0.60253 -0.04106,-0.60253c0,0 0.07075,-0.60906 0.65215,-0.58975c0.4602,0.01528 0.50503,0.67959 0.50503,0.67959c0,0 0.41837,3.16221 2.80116,3.06829c2.39175,-0.09427 2.14066,-2.97585 2.14066,-2.97585l1.81767,-0.18227z" stroke="none"/></g><g data-paper-data="{&quot;index&quot;:null}"><g data-paper-data="{&quot;index&quot;:null}" stroke="none" stroke-width="0" stroke-linecap="butt"><path d="M246.29142,175.90027c-2.49384,0.96455 -5.97348,-3.46333 -7.772,-9.88996c-0.62119,-2.21967 -0.96058,-4.38746 -1.03598,-6.31416c-0.03519,-0.89923 -0.01288,-1.74595 0.06513,-2.52091c0.0335,-0.33281 0.3027,-3.16131 0.3566,-3.46612c0.33028,-1.86778 0.8154,-0.67257 1.87325,-1.08172c1.09361,-0.42298 0.95678,-1.91339 2.20463,-0.54859c0.07788,0.08518 1.57564,2.2777 1.6532,2.36867c1.51339,1.77507 2.95357,4.63738 3.91416,8.06987c1.79852,6.42663 1.23483,12.41836 -1.259,13.38291z" fill="#684af8"/><path d="M248.26765,165.69705c0,0 0.27552,2.03856 0.37353,3.00013c0.13927,1.36638 -0.0734,2.28668 -0.0734,2.28668c0,0 -1.68528,1.69614 -3.49339,2.13478c-2.04195,0.49536 -3.64705,-0.32872 -3.64705,-0.32872c0,0 -0.50015,-0.72238 -0.99206,-1.72687c-0.33834,-0.69093 -0.87476,-1.85672 -0.87476,-1.85672c0,0 2.62218,0.76684 4.89187,-0.05662c3.74642,-1.35922 3.81526,-3.45264 3.81526,-3.45264z" fill="#1c0e4c"/><path d="M246.57428,159.70966c0,0 0.48281,1.15227 0.7073,1.83965c0.22448,0.68738 0.48145,1.80033 0.48145,1.80033c0,0 -2.42825,2.29076 -4.23636,2.7294c-2.04194,0.49536 -4.85702,0.1507 -4.85702,0.1507c0,0 -0.33594,-0.82958 -0.49049,-1.46462c-0.15455,-0.63504 -0.26638,-1.87301 -0.26638,-1.87301c0,0 2.34293,0.42671 4.61262,-0.39675c3.74642,-1.35923 4.04888,-2.78572 4.04888,-2.78572z" fill="#1c0e4c"/><path d="M243.73712,154.69358c0,0 0.80459,0.84985 1.13897,1.491c0.3828,0.73399 0.85012,1.53803 0.85012,1.53803c0,0 -2.10842,1.64005 -3.77289,2.21845c-1.66447,0.5784 -4.35149,0.60476 -4.35149,0.60476c0,0 -0.16414,-1.32762 -0.16782,-1.80687c-0.00369,-0.47925 0.1069,-1.31151 0.1069,-1.31151c0,0 1.30269,0.30547 3.57238,-0.51799c2.67593,-1.04357 2.62381,-2.21588 2.62381,-2.21588z" fill="#1c0e4c"/></g><g><path d="M242.62632,147.13216c0.81482,2.67247 -0.5668,4.27326 -0.5668,4.27326l0.82027,1.28004c0,0 -0.7566,1.30185 -1.56827,1.54784c-0.81167,0.24599 -0.80744,-1.28745 -0.96082,-0.67339c-0.09208,0.36864 -0.24172,1.04448 -0.55954,1.24034c-0.75895,0.4677 -1.99592,-0.1496 -2.54733,-0.3492c-0.45967,-0.1664 0.51543,-1.6939 0.30243,-1.91893c-0.10112,-0.10684 -1.09695,-0.82222 -1.88828,-2.19302c-0.51624,-0.89426 -1.7836,-2.21728 -0.62833,-2.62464c0.36757,-0.12961 0.78389,-0.04147 0.78389,-0.04147c0,0 0.47864,-0.5594 0.90156,-0.6947c0.42294,-0.1353 0.55963,0.3923 0.52829,0.23729c-0.05624,-0.27817 0.35629,-0.69514 0.79264,-0.88825c0.43635,-0.19311 1.03315,0.08026 1.03315,0.08026c0,0 0.46011,-1.22682 1.62177,-0.64319c0.73557,0.36956 0.51466,1.23125 0.5831,1.18386c0.05868,-0.04063 0.03563,1.17518 0.30149,1.23962c0.2301,0.05575 -0.15022,-0.91503 0.09841,-1.16483c0.24862,-0.2498 0.8453,-0.2421 0.95238,0.1091z" fill="#ffc281" stroke="none" stroke-width="0" stroke-linecap="butt"/><path d="M239.12854,147.36282l-0.04466,-0.82707" fill="none" stroke="#d9874c" stroke-width="0.5" stroke-linecap="round"/><path d="M237.21016,147.83306l0.00684,-0.46673" fill="none" stroke="#d9874c" stroke-width="0.5" stroke-linecap="round"/><path d="M235.8649,148.36854l-0.02405,-0.51135" fill="none" stroke="#d9874c" stroke-width="0.5" stroke-linecap="round"/><path d="M242.03211,151.55642c0,0 -1.3709,0.77174 -2.08854,0.94286c-0.73585,0.17546 -2.2733,0.09722 -2.2733,0.09722" fill="none" stroke="#d9874c" stroke-width="1" stroke-linecap="round"/></g></g><g stroke="none" stroke-width="0" stroke-linecap="butt"><path d="M236.20564,136.82119l5.4225,-16.10667l0.93318,0.52213l5.2228,15.58455z" fill="#462fb6"/><path d="M258.73542,134.73878l-16.80808,-12.9949l25.28888,9.18166z" fill="#462fb6"/><path d="M217.26518,131.06361l24.47839,-9.13838l-16.11338,12.74455z" data-paper-data="{&quot;index&quot;:null}" fill="#462fb6"/><path d="M247.78408,136.82119l-5.67345,-15.73717l16.67302,13.59746z" fill="#d9874c"/><path d="M225.55342,134.6815l16.32567,-13.53667l-5.44189,15.67636z" data-paper-data="{&quot;index&quot;:null}" fill="#d9874c"/></g><path d="M240.04948,122.8158l1.14731,-2.62244l1.61091,0.02166l1.39535,2.60078z" fill="#000000" stroke="none" stroke-width="0" stroke-linecap="butt"/></g></g></svg>