<svg version="1.1" xmlns="http://www.w3.org/2000/svg" xmlns:xlink="http://www.w3.org/1999/xlink" width="37.57638" height="39.81922" viewBox="0,0,37.57638,39.81922"><g transform="translate(-229.70713,-156.13846)"><g data-paper-data="{&quot;isPaintingLayer&quot;:true}" fill-rule="nonzero" stroke-linejoin="miter" stroke-miterlimit="10" stroke-dasharray="" stroke-dashoffset="0" style="mix-blend-mode: normal"><g data-paper-data="{&quot;index&quot;:null}" stroke="none" stroke-linecap="round"><path d="M234.7924,181.40426c-0.44055,-0.20174 -0.41831,-0.98859 -0.0937,-1.35282c0.39547,-0.43399 1.24151,-0.36404 1.83935,-0.44164c0.43797,-0.05494 0.91188,-0.01178 1.33657,0.03487c0.91851,0.10183 1.96559,0.03279 2.70593,0.51065c0.33972,0.22669 0.13396,0.94775 -0.24935,1.07834c-0.6184,0.21033 -1.34645,-0.29033 -2.02844,-0.33614c-0.51767,-0.0348 -1.0347,0.01576 -1.53342,0.088c-0.67455,0.09713 -1.38796,0.68866 -1.97695,0.41874z" data-paper-data="{&quot;index&quot;:null}" fill="#005613" stroke-width="0.65663"/><path d="M229.74623,181.20163c-0.09353,-0.79903 -0.05537,-1.58008 0.52218,-1.873c1.01705,-0.51668 1.96467,-0.11829 2.47628,-0.16523c0.51163,-0.04694 0.93881,-0.0174 1.38584,-0.27661c0.44703,-0.25922 1.20006,-0.38345 1.38783,-0.23308c0.26393,0.2117 0.0518,0.10163 0.22224,0.7585c0.17044,0.65687 0.23933,0.99539 0.32082,1.79185c0.08149,0.79646 0.04502,0.25625 -0.01239,0.73116c-0.02952,0.13425 -0.55477,0.51052 -0.85254,0.68141c-0.29778,0.1709 -0.50595,0.12308 -0.83087,0.28469c-0.32492,0.16161 -0.56151,0.3947 -0.77468,0.51387c-0.60551,0.31302 -1.82693,1.25763 -2.19704,0.87984c-0.78885,-0.7388 0.51987,-1.50285 0.4246,-1.57509c-0.09649,-0.07286 0.08899,0.68644 -0.73284,0.80292c-0.41982,0.00595 -0.3571,-0.18625 -0.67468,-0.58199c-0.34879,-0.48324 -0.58577,-1.06829 -0.66475,-1.73922z" fill="#a8c8d8" stroke-width="0.67216"/></g><g data-paper-data="{&quot;index&quot;:null}" stroke="none" stroke-width="1" stroke-linecap="round"><path d="M249.33587,185.86863c1.9173,-0.42717 4.489,0.24247 6.20231,1.51175c2.09778,0.54346 6.41508,2.9167 6.42053,4.23081c0.37811,1.39044 2.79974,1.75782 2.52091,2.9841c-0.33453,0.42093 -2.11907,-0.75953 -2.53373,-0.63995c-0.49471,0.14515 2.02418,1.84793 1.07133,1.90514c-1.49879,0.08999 -4.71282,0.36089 -7.18562,-0.71539c-2.4728,-1.07629 -6.69969,-1.64679 -7.2474,-3.79606c-0.23164,-0.91005 1.05674,-1.62745 1.19367,-2.55683c0.14356,-0.97216 -1.3415,-2.72289 -0.44199,-2.92358z" data-paper-data="{&quot;index&quot;:null}" fill="#f8f8f8"/><path d="M241.32555,184.65736c-0.72181,-0.83276 -1.56944,-1.504 -0.30327,-1.26116c5.06563,0.97047 10.38153,2.30119 14.99677,4.041c1.14129,0.43121 -2.93188,-0.3046 -3.63167,0.247c-0.39872,0.31572 1.79692,0.95819 1.38468,1.51252c-0.75053,1.15557 -2.94596,0.74765 -3.7101,1.90721c-0.58318,0.88638 1.6328,2.97304 0.76894,2.28931c-4.79337,-2.56922 -6.61957,-5.40377 -9.50536,-8.73587z" data-paper-data="{&quot;index&quot;:null}" fill="#e2a026"/></g><g data-paper-data="{&quot;index&quot;:null}" stroke="none" stroke-width="1" stroke-linecap="round"><path d="M249.84547,181.21216c1.53456,-1.22624 4.42553,-0.92994 6.93899,-1.37599c1.44625,0.26859 6.34092,-0.19051 6.92327,0.98753c0.95065,1.08285 3.28738,0.34871 3.57578,1.57278c-0.11553,0.52512 -2.23728,0.24892 -2.55721,0.53855c-0.3806,0.34778 2.63031,0.77047 1.79953,1.24056c-1.30678,0.73944 -4.07483,2.39515 -6.76904,2.51497c-2.69421,0.11982 -6.74182,1.46478 -8.17828,-0.22518c-0.60799,-0.71569 0.23409,-1.92626 -0.05131,-2.82127c-0.29824,-0.93636 -2.40155,-1.85641 -1.68174,-2.43196z" data-paper-data="{&quot;index&quot;:null}" fill="#f8f8f8"/><path d="M242.11772,183.72743c-1.01433,-0.43086 -2.0707,-0.66134 -0.82662,-0.9996c4.97679,-1.35424 10.33669,-2.49487 15.24698,-2.96012c1.21468,-0.11417 -2.76748,1.01474 -3.1537,1.81774c-0.21942,0.45881 2.03518,0.0711 1.90847,0.75019c-0.16639,1.36783 -2.31774,1.96615 -2.4946,3.34354c-0.13435,1.05248 2.51586,1.9166 1.43943,1.68203c-4.31192,0.1242 -8.06351,-1.90872 -12.11997,-3.63377z" data-paper-data="{&quot;index&quot;:null}" fill="#eda725"/></g><path d="M237.82817,184.84323c-0.34452,0.37548 0.16264,1.16745 -0.22699,1.4732c-0.40096,0.3105 -1.17567,0.29448 -1.45157,-0.08129c-0.43793,-0.58393 -0.40559,-1.46176 -0.19352,-2.13025c0.12503,-0.40929 0.58472,-0.66542 1.02622,-0.77342c0.78949,-0.19422 1.67471,-0.37584 2.43961,-0.1157c0.29935,0.10327 0.32671,0.7564 0.09993,1.00264c-0.40393,0.44044 -1.28655,0.18287 -1.69367,0.62482z" fill="#e88820" stroke="none" stroke-width="0.49091" stroke-linecap="round"/><path d="M240.73956,184.44674c-1.00968,-0.16952 -1.88019,-0.19286 -2.22513,-1.16473c-0.23635,-0.67049 0.97822,-2.51263 1.38885,-3.08867c0.37555,-0.53115 0.72154,-1.18009 1.3155,-1.44563c0.59302,-0.26436 1.33078,-0.08745 1.99469,0.02134c0.15974,0.01859 0.34824,0.07732 0.35934,0.34248c0.04466,1.06132 -0.06383,2.13642 -0.25452,3.18066c-0.10645,0.58281 -0.07336,1.31216 -0.51154,1.71047c-0.37898,0.33614 -1.0575,0.61359 -2.06718,0.44407z" data-paper-data="{&quot;index&quot;:null}" fill="#089c4e" stroke="none" stroke-width="0.49091" stroke-linecap="round"/><path d="M242.26561,185.89365c0.04036,0.50792 0.96569,0.67576 0.92433,1.16937c-0.04564,0.50497 -0.58484,1.06137 -1.04788,1.00762c-0.72594,-0.07686 -1.34682,-0.69834 -1.69193,-1.30874c-0.21451,-0.37027 -0.08915,-0.88135 0.13238,-1.27822c0.39538,-0.7104 0.8651,-1.48236 1.57646,-1.86544c0.27944,-0.14887 0.77642,0.27575 0.80229,0.60957c0.04752,0.59564 -0.74209,1.06668 -0.69565,1.66583z" fill="#f8b820" stroke="none" stroke-width="0.49091" stroke-linecap="round"/><path d="M240.72843,161.99937c0.79245,-0.06456 2.53309,3.82194 2.6693,4.07199c0.23878,0.42817 0.40805,0.75458 0.62038,1.31914c0.84902,2.26044 2.98538,4.46676 2.48835,6.81033c-0.40626,1.91559 -2.90931,2.74037 -4.69154,3.54817c-1.43916,0.65283 -3.43702,1.50746 -4.70288,0.63872c-1.49656,-1.02852 -1.26334,-3.41753 -2.03558,-5.06176c-0.29032,-0.62096 -1.26211,-1.59648 -1.98279,-3.09381c-0.72068,-1.49733 -1.7927,-3.69291 -1.41044,-3.95617c0.61245,-0.4218 1.32811,0.83964 2.12938,1.24151c0.80127,0.40187 1.18793,1.09024 1.86864,1.25327c0.53088,0.12715 2.22724,-0.99844 3.26842,-1.93793c0.70899,-0.64742 1.1489,-4.78213 1.77876,-4.83345z" data-paper-data="{&quot;index&quot;:null}" fill="#f8b820" stroke="none" stroke-width="1" stroke-linecap="round"/><path d="M241.17173,180.68352c0.23184,0.04107 0.38649,0.26231 0.34541,0.49415c-0.04107,0.23184 -0.26231,0.38649 -0.49415,0.34541c-0.23184,-0.04107 -0.38648,-0.26231 -0.3454,-0.49415c0.04107,-0.23184 0.26231,-0.38649 0.49414,-0.34541z" fill="#ffffff" stroke="none" stroke-width="0" stroke-linecap="butt"/><path d="M241.24172,163.93272c0.33052,-0.03065 0.94709,2.11437 0.99817,2.4121c0.09659,0.3921 0.59338,1.88764 0.33096,2.16262c-0.26566,0.27632 -0.78857,0.10466 -1.15866,-0.00022c-0.28954,-0.08539 -1.29919,-0.18901 -1.39892,-0.44928c-0.17097,-0.44966 0.25059,-1.15132 0.3856,-1.67391c0.1303,-0.43068 0.45192,-2.33563 0.84285,-2.4513z" data-paper-data="{&quot;index&quot;:null}" fill="#ffffff" stroke="none" stroke-width="0.85185" stroke-linecap="butt"/><g stroke="none" stroke-linecap="round"><path d="M245.51018,182.29672c-0.29765,-0.40662 -0.6236,-0.81113 -1.01095,-1.15633c-0.51026,-0.45479 -1.37749,-0.62396 -1.66037,-1.21273c-0.17518,-0.36509 0.19552,-1.0169 0.59523,-0.93312c0.85957,0.19391 1.54348,0.98977 2.25936,1.57419c0.33069,0.27051 0.69336,0.57863 0.96083,0.92977c0.36322,0.48114 1.00561,1.03615 0.9727,1.62238c-0.03271,0.4868 -0.57888,1.05365 -1.03139,0.88041c-0.60514,-0.23147 -0.6824,-1.15499 -1.08541,-1.70457z" data-paper-data="{&quot;index&quot;:null}" fill="#089c4e" stroke-width="0.65663"/><path d="M248.56669,188.20518c-0.5049,0.0504 -0.5982,0.22975 -0.88792,-0.07412c-0.49232,-0.66827 0.17961,-1.06755 0.06003,-1.08541c-0.11829,-0.01743 0.25267,1.45188 -0.82714,1.40606c-0.52888,0.00032 -0.7098,-1.53311 -0.91035,-2.18457c-0.0642,-0.23563 -0.06346,-0.56776 -0.17562,-0.91288c-0.11216,-0.34512 -0.29206,-0.46025 -0.37857,-0.79251c-0.08651,-0.33225 -0.18571,-0.9707 -0.11053,-1.08578c0.29883,-0.37354 -0.11236,-0.0213 0.51329,-0.52084c0.62565,-0.49954 0.91556,-0.6874 1.50385,-1.0257c0.58829,-0.33829 0.36117,-0.41266 0.69712,-0.37248c0.23883,0.02875 0.67746,0.65334 0.80543,1.15399c0.12797,0.50065 0.44819,0.78493 0.77295,1.18305c0.32475,0.39811 1.27272,0.79566 1.61604,1.88354c0.19531,0.61744 -0.33556,1.19159 -0.97149,1.68434c-0.53429,0.41344 -1.11789,0.65394 -1.70711,0.74332z" fill="#ffffff" stroke-width="0.67216"/></g><path d="M243.34053,175.20191l-3.16667,1.66667l2.16667,-4.41667" data-paper-data="{&quot;index&quot;:null}" fill="none" stroke="#5d2404" stroke-width="0.5" stroke-linecap="round"/><path d="M238.87253,179.83043l0.64457,-0.376c0,0 1.43237,-0.42828 2.2103,-0.49052c0.96986,-0.07759 3.1611,0.06081 3.1611,0.06081l-1.71141,0.52562l0.24846,1.36756l-1.48659,-0.73994l-1.14398,1.10255l-0.63331,-0.85923l-1.77074,0.89139l1.34103,-1.42853z" fill="#cf0000" stroke="none" stroke-width="0" stroke-linecap="butt"/><path d="M234.42387,175.28525l3.66667,2.16667l-3,0.5" data-paper-data="{&quot;index&quot;:null}" fill="none" stroke="#5d2404" stroke-width="0.5" stroke-linecap="round"/><path d="M248.86935,170.64161c-0.03689,0.21922 -1.43711,0.96373 -2.00301,1.59936c-0.39726,0.43342 -1.3236,1.2023 -0.94272,1.46417c0.82435,0.52858 3.22261,-0.21618 3.3513,0.11736c0.129,0.3345 -1.85417,0.86195 -2.6034,1.53208c-0.79696,0.71409 -1.11207,1.77072 -1.88226,2.454c-0.98081,0.87286 -2.01338,1.77733 -3.25559,2.11274c-1.29862,0.40113 -2.75666,0.33568 -4.04784,0.00446c-0.59002,-0.15164 -1.37437,-1.1287 -1.05524,-1.5598c0.5572,-0.75269 2.08612,-0.81055 2.82587,-0.75265c0.65837,0.05154 1.78415,0.10115 2.53189,-0.29925c0.73812,-0.38148 1.09837,-1.23827 1.57834,-1.93425c0.72586,-1.05167 1.21694,-2.27189 2.04567,-3.24349c0.41564,-0.48674 1.01668,-0.79831 1.60403,-1.04862c0.55024,-0.23506 1.88986,-0.66533 1.85297,-0.44611z" data-paper-data="{&quot;index&quot;:null}" fill="#f8f8f8" stroke="none" stroke-width="1" stroke-linecap="round"/><path d="M237.03362,178.01931c0.34124,-0.11121 0.39698,-0.05014 0.65843,-0.00743c0.26146,0.04271 -0.03675,0.75669 -0.37801,0.8679c-0.34125,0.11121 -1.16862,-0.23595 -0.98254,-0.42451c0.18608,-0.18855 0.36087,-0.32475 0.70212,-0.43596z" data-paper-data="{&quot;index&quot;:null}" fill="#101010" stroke="none" stroke-width="1" stroke-linecap="butt"/><path d="M242.17082,178.87176l-1.39608,1.31261" data-paper-data="{&quot;index&quot;:null}" fill="none" stroke="#cccccc" stroke-width="0.36953" stroke-linecap="round"/><path d="M235.87323,173.36124l-2.79798,1.0583l-1.87541,1.92384l1.54342,-2.86787l2.91225,-0.73702z" data-paper-data="{&quot;index&quot;:null}" fill="#f8b820" stroke="none" stroke-width="1.22222" stroke-linecap="round"/><path d="M235.54847,172.77862l-2.29186,-0.70177l-2.78581,1.08647c0,0 2.0114,-2.01976 2.45867,-2.0915c0.31374,-0.05034 2.92236,0.94197 2.92236,0.94197z" data-paper-data="{&quot;index&quot;:null}" fill="#f8b820" stroke="none" stroke-width="1.22222" stroke-linecap="round"/><path d="M235.98699,171.83299c0,0 -1.04911,-1.18789 -1.96261,-1.55866c-0.9135,-0.37077 -4.2098,-0.94658 -4.2098,-0.94658c0,0 3.51362,-0.4973 4.12422,-0.24218c0.37022,0.15469 2.75889,2.167 2.75889,2.167z" data-paper-data="{&quot;index&quot;:null}" fill="#f8b820" stroke="none" stroke-width="1.22222" stroke-linecap="round"/><path d="M240.8578,182.78106c0.88339,0.13706 2.15208,0.37964 2.14734,0.67546c-0.00474,0.29582 -1.36915,-0.16325 -2.25862,-0.30127c-0.88947,-0.13802 -2.23178,-0.09893 -2.22704,-0.39476c0.00474,-0.29583 1.45493,-0.11652 2.33832,0.02055z" fill="#000000" stroke="#000000" stroke-width="0" stroke-linecap="butt"/><path d="M240.81946,181.83504c0.23184,0.04107 0.38648,0.26231 0.3454,0.49414c-0.04107,0.23184 -0.26231,0.38649 -0.49414,0.34541c-0.23184,-0.04107 -0.38649,-0.26231 -0.34541,-0.49415c0.04107,-0.23184 0.26231,-0.38648 0.49415,-0.3454z" fill="#ffffff" stroke="none" stroke-width="0" stroke-linecap="butt"/><path d="M237.75397,165.46516c0,0 0.26325,-1.31827 1.09266,-2.56864c0.68323,-1.02998 2.46341,-5.21887 2.46341,-5.21887l1.974,6.03955l0.39556,2.22623l-1.46261,-0.68435c0,0 -0.8809,0.89168 -1.02031,0.97454c-0.57236,0.34016 -1.21321,-1.4545 -1.21321,-1.4545l-1.09526,1.26092l-1.13424,-0.5749z" fill="#23d892" stroke="none" stroke-width="0" stroke-linecap="butt"/><path d="M237.08941,168.58918c-0.56563,0.16201 -0.20889,-1.4322 0.0899,-2.15007c0.3007,-0.7225 0.93069,-1.71106 0.93069,-1.71106l0.602,1.20454l1.49679,-1.63628c0,0 0.23874,0.54557 0.41995,0.88029c0.18121,0.33473 0.5178,0.85188 0.5178,0.85188l1.3604,-1.38597l0.89095,1.31575l-0.00616,-2.02122l0.8554,2.60557c0,0 0.76479,0.80125 0.43618,1.15224c-0.69852,0.74608 -2.31431,0.01976 -4.00687,0.31554c-1.90553,0.33297 -0.96209,-0.1731 -3.58701,0.57878z" fill="#fd0000" stroke="none" stroke-width="0" stroke-linecap="butt"/><g stroke-width="0" stroke-linecap="butt"><path d="M242.16219,157.04089c-0.00057,0.47973 -0.38994,0.86816 -0.86967,0.86759c-0.47973,-0.00057 -0.86816,-0.38994 -0.86759,-0.86967c0.00057,-0.47973 0.38994,-0.86816 0.86967,-0.86759c0.47973,0.00057 0.86816,0.38994 0.86759,0.86967z" fill="#db7b04" stroke="none"/><path d="M240.3384,157.06944c0.0002,-0.16484 0.49125,-0.10937 0.95525,-0.10882c0.464,0.00056 0.9265,-0.11126 0.9263,0.05359c-0.0003,0.25107 -0.46274,0.29791 -0.92673,0.29734c-0.464,-0.00056 -0.95517,0.0377 -0.95484,-0.24211z" fill="#feeb00" stroke="#000000"/><path d="M241.24526,156.24185c0.00022,-0.18115 0.10226,-0.06917 0.19283,-0.06907c0.09058,0.00011 0.22103,0.37705 0.22082,0.55821c-0.00022,0.18115 -0.18852,0.09782 -0.27909,0.09771c-0.09058,-0.00011 -0.13477,-0.4057 -0.13455,-0.58686z" fill="#000000" stroke="none"/><path d="M240.71789,156.82091c-0.04762,-0.00006 -0.14379,0.06933 -0.14364,-0.05766c0.00015,-0.12699 0.09653,-0.37355 0.14416,-0.37348c0.04763,0.00005 0.08614,0.07432 0.08599,0.2013c-0.00015,0.12699 -0.03887,0.2299 -0.0865,0.22985z" fill="#000000" stroke="none"/></g><path d="M238.69895,183.70709c-0.51605,-0.73294 -0.2421,-0.59228 -0.2421,-0.59228l4.51888,0.6556c0,0 -0.29011,0.78641 -0.71165,0.87237c-1.13858,0.1735 -2.81499,0.12464 -3.56513,-0.9357z" data-paper-data="{&quot;index&quot;:null}" fill="#f8b820" stroke="none" stroke-width="0.49091" stroke-linecap="round"/><g><g><path d="M239.27844,187.79057l0.09862,0.81885c0,0 -2.29263,1.68125 -3.60545,2.28684c-1.09516,0.50519 -2.80591,0.99958 -3.51783,1.11714c-1.22921,0.20297 -1.10934,-0.44327 -1.10934,-0.44327c0,0 3.23985,-0.4337 4.45765,-0.95873c0.86823,-0.37428 3.67634,-2.82081 3.67634,-2.82081z" fill="#989898" stroke="#989898" stroke-width="0" stroke-linecap="round"/><path d="M237.28585,186.78976c0.56193,0.0208 1.00323,0.02899 1.49274,0.38176c0.69588,0.5015 0.55828,0.92438 0.17942,1.29127c-0.79773,0.77205 -2.43921,1.68814 -2.43921,1.68814l-2.2363,-2.69237c0,0 2.14199,-0.69943 3.00337,-0.66879z" fill="#f82020" stroke="none" stroke-width="1.13968" stroke-linecap="round"/><path d="M236.58537,190.08799c0,0 -0.08201,0.17981 -0.9962,0.57076c-0.91418,0.39095 -2.16314,0.78581 -3.23679,1.00573c-0.43059,0.08762 -1.15973,0.27373 -1.26266,-0.05849c-0.17534,-0.56557 -0.11074,-1.81468 0.33866,-2.36337c0.44691,-0.54525 2.25263,-1.79417 2.98835,-1.81417c1.31155,-0.02188 2.16864,2.65955 2.16864,2.65955z" fill="#f8f8f8" stroke="none" stroke-width="1.15102" stroke-linecap="round"/><path d="M236.80391,185.01938c0.42064,-0.08221 1.10214,-0.53671 1.62325,-0.16747c0.59195,0.41942 0.00821,0.93074 0.00821,0.93074c0,0 0.64269,0.05418 0.47869,0.49146c-0.15922,0.42457 -0.43842,0.46712 -0.72964,0.56206c-0.48935,0.15954 -1.38218,0.06049 -1.55619,0.0945c-0.8701,0.17005 -2.11655,0.67119 -2.20576,0.21474c-0.02366,-0.12108 0.09868,-0.73693 0.09868,-0.73693c0,0 -0.6008,-0.51548 -0.26408,-0.77529c0.43682,-0.33704 2.18582,-0.54325 2.54683,-0.61381z" fill="#ffffff" stroke="none" stroke-width="0" stroke-linecap="butt"/></g><path d="M236.38712,187.45745c-1.35507,0.26484 -2.14626,0.31419 -2.21333,-0.02898c-0.02444,-0.12509 0.7152,-0.14849 2.07027,-0.41333c1.35507,-0.26484 2.41887,-0.36748 2.44331,-0.24239c0.06707,0.34318 -0.94519,0.41987 -2.30026,0.68471z" fill="#424242" stroke="none" stroke-width="0" stroke-linecap="butt"/></g><g><g><path d="M246.09454,187.00672l0.63909,0.52136c0,0 -0.48495,2.80135 -1.01039,4.14825c-0.43832,1.12358 -1.32752,2.66646 -1.75872,3.245c-0.74453,0.99891 -1.10651,0.45031 -1.10651,0.45031c0,0 2.03262,-2.55991 2.54551,-3.78288c0.36569,-0.87188 0.69103,-4.58203 0.69103,-4.58203z" fill="#989898" stroke="#989898" stroke-width="0" stroke-linecap="round"/><path d="M243.96511,187.66818c0.41915,-0.37483 0.74269,-0.67507 1.33998,-0.76058c0.8491,-0.12154 1.04336,0.27849 1.025,0.80557c-0.03897,1.10947 -0.58574,2.90799 -0.58574,2.90799l-3.47844,-0.3878c0,0 1.05755,-1.98971 1.69921,-2.56519z" fill="#f82020" stroke="none" stroke-width="1.13968" stroke-linecap="round"/><path d="M245.74862,190.52966c0,0 0.06567,0.18641 -0.32156,1.10217c-0.38722,0.91576 -1.01287,2.06659 -1.63359,2.9698c-0.24935,0.36182 -0.6454,1.00168 -0.95001,0.8338c-0.51863,-0.28572 -1.33864,-1.2302 -1.3956,-1.93715c-0.05636,-0.70274 0.37779,-2.85493 0.89382,-3.37972c0.92946,-0.92561 3.40694,0.4111 3.40694,0.4111z" fill="#f8f8f8" stroke="none" stroke-width="1.15102" stroke-linecap="round"/><path d="M242.38984,186.72741c0.24594,-0.35101 0.42149,-1.15114 1.05297,-1.2467c0.71731,-0.10855 0.65159,0.66467 0.65159,0.66467c0,0 0.50047,-0.40682 0.68571,0.02189c0.17985,0.41625 0.00828,0.64059 -0.1356,0.91099c-0.24178,0.45438 -0.95355,1.00241 -1.05528,1.14762c-0.50871,0.72609 -1.05882,1.95171 -1.43972,1.68484c-0.10104,-0.07079 -0.44015,-0.59923 -0.44015,-0.59923c0,0 -0.79032,0.04552 -0.72804,-0.37521c0.0808,-0.54578 1.19746,-1.90762 1.40853,-2.20888z" fill="#ffffff" stroke="none" stroke-width="0" stroke-linecap="butt"/></g><path d="M243.78098,188.77255c-0.79226,1.13079 -1.32788,1.7152 -1.61425,1.51456c-0.10438,-0.07314 0.41211,-0.6031 1.20437,-1.73388c0.79226,-1.13079 1.48726,-1.94269 1.59164,-1.86956c0.28637,0.20065 -0.3895,0.95811 -1.18176,2.0889z" fill="#424242" stroke="none" stroke-width="0" stroke-linecap="butt"/></g></g></g></svg>