<svg version="1.1" xmlns="http://www.w3.org/2000/svg" xmlns:xlink="http://www.w3.org/1999/xlink" width="8.78497" height="8.68161" viewBox="0,0,8.78497,8.68161"><g transform="translate(-235.60752,-175.65921)"><g data-paper-data="{&quot;isPaintingLayer&quot;:true}" fill="#ffd700" fill-rule="nonzero" stroke="none" stroke-width="0.26459" stroke-linecap="butt" stroke-linejoin="miter" stroke-miterlimit="4" stroke-dasharray="" stroke-dashoffset="0" style="mix-blend-mode: normal"><path d="M239.74162,181.86036c0.48231,0 0.86128,-0.1378 1.13688,-0.41341c0.27561,-0.27561 0.41341,-0.68902 0.41341,-1.24023v-0.51676c0,-0.55121 -0.1378,-0.98185 -0.41341,-1.29191c-0.27561,-0.31005 -0.65457,-0.46508 -1.13688,-0.46508h-1.03352v3.92739zM235.60752,175.65922h4.1341c1.44693,0 2.58382,0.39618 3.41064,1.18855c0.82682,0.79237 1.24023,1.87758 1.24023,3.25561c0,1.17133 -0.41341,2.1704 -1.24023,2.99722c-0.82682,0.82682 -1.9637,1.24023 -3.41064,1.24023h-4.1341z"/></g></g></svg>