<svg version="1.1" xmlns="http://www.w3.org/2000/svg" xmlns:xlink="http://www.w3.org/1999/xlink" width="29.13454" height="34.38046" viewBox="0,0,29.13454,34.38046"><defs><radialGradient cx="242.28025" cy="175.34381" r="1.31225" gradientUnits="userSpaceOnUse" id="color-1"><stop offset="0" stop-color="#f5ab87" stop-opacity="0.25098"/><stop offset="1" stop-color="#f5ab87" stop-opacity="0"/></radialGradient><radialGradient cx="237.01039" cy="174.90903" r="0.73225" gradientUnits="userSpaceOnUse" id="color-2"><stop offset="0" stop-color="#f5ab87" stop-opacity="0.25098"/><stop offset="1" stop-color="#f5ab87" stop-opacity="0"/></radialGradient></defs><g transform="translate(-225.91624,-162.82015)"><g data-paper-data="{&quot;isPaintingLayer&quot;:true}" fill-rule="nonzero" stroke-linejoin="miter" stroke-miterlimit="10" stroke-dasharray="" stroke-dashoffset="0" style="mix-blend-mode: normal"><g stroke="none" stroke-width="0" stroke-linecap="butt"><path d="M240.32044,196.03172c-0.72866,1.26302 -3.18147,0.54024 -3.18147,0.54024c0,0 1.46878,-0.28753 1.02788,-2.40446c-0.4336,-1.19676 -0.27576,-3.60465 -0.27576,-3.60465c0,0 0.00873,-1.66719 0.76929,-0.89984c0.35403,0.3572 0.7219,0.68144 1.03949,1.03781c0.36467,0.40918 0.66308,0.86076 0.79822,1.45331c0,0 0.55101,2.61456 -0.17765,3.87759z" fill="#54c81c"/><path d="M236.32339,196.59296c-0.05895,-0.39006 0.20947,-0.75405 0.59953,-0.813c0.39006,-0.05895 0.75405,0.20947 0.813,0.59953c0.05895,0.39006 -0.20947,0.75405 -0.59953,0.813c-0.39006,0.05895 -0.75405,-0.20947 -0.813,-0.59953z" fill="#ffffff"/></g><g stroke="none" stroke-width="0" stroke-linecap="butt"><path d="M248.34616,193.90188c0.34099,1.167 0.23497,2.14332 0.23497,2.14332c0,0 -1.4963,-0.81518 -2.84395,-1.90086c-0.84499,-0.68073 -1.9396,-2.92903 -1.9396,-2.92903c0,0 -0.78134,-1.35146 0.18568,-1.07948c0.45015,0.12661 0.89569,0.22023 1.31649,0.36284c0.48317,0.16375 0.93374,0.3921 1.32126,0.80913c0,0 1.29083,1.10771 1.72514,2.59407z" fill="#54c81c"/><path d="M247.81384,196.28074c-0.04469,-0.39195 0.23682,-0.74592 0.62877,-0.79061c0.39195,-0.04469 0.74591,0.23682 0.7906,0.62877c0.04469,0.39195 -0.23681,0.74591 -0.62876,0.7906c-0.39195,0.04469 -0.74592,-0.23681 -0.79061,-0.62876z" fill="#ffffff"/></g><g stroke="none" stroke-width="0" stroke-linecap="butt"><path d="M255.05078,186.03804c0,0 -1.69245,-0.58383 -2.81861,-0.76772c-1.12616,-0.18389 -5.44509,-0.16794 -5.44509,-0.16794c0,0 4.77104,-0.38227 5.24489,-1.38408c0.47391,-1.00194 -2.95315,-3.4865 -2.03837,-3.2599c4.83148,1.19684 5.05716,5.57964 5.05716,5.57964z" fill="#54c81c"/><path d="M238.73044,180.20562c0,0 4.11975,-0.38504 6.81747,-0.4792c3.26883,-0.11409 6.62278,1.52805 7.35585,2.93019c0.73307,1.40214 -4.05831,2.64236 -6.18308,2.31591c-2.30148,-0.3536 -7.99023,-4.76691 -7.99023,-4.76691z" fill="#ffffff"/></g><g stroke="none" stroke-width="0" stroke-linecap="butt"><path d="M235.3674,183.85247c0,0 -2.35903,1.44535 -4.41001,2.16906c-1.13052,0.39891 -2.67701,0.66093 -3.50382,0.94025c-1.39703,0.47192 -1.53733,1.06179 -1.53733,1.06179c0,0 0.27824,-1.54859 0.54752,-2.19855c0.26928,-0.64997 0.54611,-1.26423 0.79092,-1.171c0.24481,0.09323 8.11272,-0.80156 8.11272,-0.80156z" fill="#54c81c"/><path d="M226.79553,185.03387c0,0 1.12337,-3.13758 5.6697,-4.52116c3.55335,-1.08138 5.26496,-0.25172 5.94012,-0.53826c1.9631,-0.83313 1.61501,-0.45922 1.61501,-0.45922c0,0 -0.50843,2.80467 -6.24617,5.06737c-4.12986,1.62862 -6.97866,0.45127 -6.97866,0.45127z" fill="#ffffff"/></g><g data-paper-data="{&quot;index&quot;:null}" stroke="none" stroke-width="0" stroke-linecap="butt"><path d="M242.85777,189.38675c0,0 4.5171,0.88472 5.21911,-0.35767c0.71241,-1.26079 -1.30653,-5.72304 -1.30653,-5.72304c0,0 1.7861,0.46325 3.36839,3.85735c0.91619,1.9589 1.76567,7.05531 1.76567,7.05531c0,0 -3.15245,-1.58517 -5.36471,-2.18267c-1.83788,-0.49639 -3.68194,-2.64927 -3.68194,-2.64927z" fill="#54c81c"/><path d="M246.90274,183.24876c0.18966,0.14544 2.41776,3.62989 1.54113,5.87373c-0.82307,1.96588 -5.54505,0.29297 -5.54505,0.29297c0,0 -1.93128,-1.45103 -3.28193,-2.78722c-1.62271,-1.60531 -1.53654,-4.22104 -1.00152,-5.43018c0.53502,-1.20914 0.54283,0.36482 3.30315,0.16716c2.07977,-0.14891 4.80245,1.74416 4.98423,1.88355z" fill="#ffffff"/></g><g stroke="none" stroke-width="0" stroke-linecap="butt"><path d="M231.30336,194.47986c0,0 -1.99763,-2.8737 -1.31489,-5.31131c0.51613,-1.84278 2.14174,-4.18051 2.14174,-4.18051l5.98623,4.00151c0,0 -3.5408,1.85438 -4.74547,2.88986c-1.20468,1.03549 -2.0676,2.60043 -2.0676,2.60043z" fill="#54c81c"/><path d="M231.69178,189.93836c-1.53734,-1.46051 -0.30342,-4.16964 0.43841,-4.95032c0.73623,-0.7748 1.37593,-2.34468 5.22489,-3.30071c2.62509,-0.65203 3.30357,-2.20055 3.30357,-2.20055l1.15141,0.44143c0,0 0.88714,4.67388 -1.03111,7.04718c-1.79457,2.22027 -7.60934,4.36693 -9.08715,2.96296z" fill="#ffffff"/></g><path d="M241.48435,188.9939l-2.39639,-5.69374l1.51106,-0.34579c0,0 1.10887,4.14571 2.36092,5.7621c0.38081,0.52428 2.79907,2.64929 2.79907,2.64929c0,0 1.59464,1.72607 1.77876,2.33434c0.23422,0.77374 -0.95367,0.45105 -1.23569,0.22707c0,0 -0.88678,-1.04372 -1.46669,-1.67301c-0.85725,-0.93024 -3.35103,-3.26025 -3.35103,-3.26025z" fill="#ffffff" stroke="none" stroke-width="0" stroke-linecap="butt"/><path d="M237.40332,187.43547l0.85614,-6.49639l1.37895,0.70808c0,0 -0.91764,3.56302 -1.00001,5.60593c-0.04607,0.64635 0.44265,4.11958 0.44265,4.11958c0,0 0.43465,2.56364 0.184,3.14764c-0.31884,0.74288 -0.87645,0.19873 -1.10606,-0.35798c-0.2296,-0.5567 -0.16753,-1.98344 -0.25764,-2.90347c-0.10962,-1.11922 -0.49801,-3.82341 -0.49801,-3.82341z" fill="#ffffff" stroke="none" stroke-width="0" stroke-linecap="butt"/><path d="M244.35212,175.81776c-0.01022,0.38992 -0.24651,0.73044 -0.53374,0.97644c-0.31249,0.2591 -0.73442,0.31382 -1.11228,0.42736c-0.59,0.15435 -1.19861,0.22666 -1.80763,0.19935c-0.75038,0.00605 -1.69787,-0.09011 -2.35436,-0.52524c-0.44833,-0.20488 -0.37867,-0.19395 -0.84173,-0.37929c-0.9253,-0.51789 -1.57166,-1.44062 -1.88988,-2.43906c-0.19527,-0.59684 -0.29265,-1.23747 -0.22166,-1.86429c0.04502,-0.2639 0.70511,-4.38516 4.66301,-4.20805c6.0686,0.27157 4.1754,6.86652 4.09827,7.81278z" data-paper-data="{&quot;index&quot;:null}" fill="#f0e9bb" stroke="none" stroke-width="0.17188" stroke-linecap="butt"/><path d="M235.90396,167.79561c0.55492,0.43033 -1.47468,3.36445 -1.1536,2.87623c-0.59889,-0.36967 -1.05316,-1.08916 -1.1892,-1.64663c-0.01248,-0.05104 0.04818,-0.192 0.04818,-0.192c-0.09144,0.02342 0.02946,-0.08827 0.03877,-0.18422c0.00727,-0.07548 -0.07313,-0.23526 -0.07313,-0.23526c-0.04193,0.02986 0.17942,-0.09125 0.26063,-0.17042c0.06712,-0.06536 0.03622,-0.10741 0.09176,-0.14781c0.38973,-0.28496 1.05398,-0.4295 1.97662,-0.2999z" data-paper-data="{&quot;index&quot;:null}" fill="#ed3e67" stroke="none" stroke-width="0.17188" stroke-linecap="butt"/><path d="M236.97755,172.31972c0.60616,0.20764 0.80532,0.55337 0.88745,1.10205c0.13052,0.29848 0.0266,1.4395 -0.18074,1.43449c-0.21061,-0.03294 -0.45723,-0.07261 -0.71039,-0.12755c-0.39524,-0.08573 -0.50141,-0.18913 -0.46418,-0.27076c0.02567,-0.05636 -0.0445,-0.22565 -0.07917,-0.3932c-0.03529,-0.17062 -0.03528,-0.34144 -0.03743,-0.62631c-0.00193,-0.26421 0.0396,-0.55522 0.10168,-0.75089c0.08878,-0.27904 0.23453,-0.40844 0.48279,-0.36783z" data-paper-data="{&quot;index&quot;:null}" fill="#ffffff" stroke="none" stroke-width="0.17188" stroke-linecap="butt"/><path d="M237.62555,172.56259c-0.41598,-0.42365 -0.5583,-0.4713 -0.86131,-0.20713c-0.22698,0.17767 -0.383,0.79509 -0.39571,1.21444c-0.01699,0.56033 0.12964,0.98414 0.12964,0.98414c0,0 -0.12404,-0.12706 -0.22168,-0.41893c-0.09763,-0.29187 0.0206,-0.63787 -0.1514,-0.75489c-0.18013,-0.12255 -1.02375,-0.25868 -1.02375,-0.25868c0,0 1.18552,-0.00044 1.18793,-0.07506c0.01044,-0.32358 0.20923,-0.65476 0.32553,-0.75955c0.20913,-0.18845 0.33615,-0.26181 0.61027,-0.18982c0.19654,0.05162 0.31465,0.16919 0.52276,0.38144c0.67457,0.688 0.05779,2.33696 0.05779,2.33696c0,0 0.39068,-1.80504 -0.18008,-2.25292z" data-paper-data="{&quot;index&quot;:null}" fill="#000000" stroke="none" stroke-width="0" stroke-linecap="butt"/><g data-paper-data="{&quot;index&quot;:null}" stroke="none" stroke-linecap="butt"><path d="M236.97957,174.99422c-0.25026,0 -0.45314,-0.42916 -0.45314,-0.95856c0,-0.5294 0.20288,-0.95856 0.45314,-0.95856c0.25026,0 0.45314,0.42916 0.45314,0.95856c0,0.5294 -0.20288,0.95856 -0.45314,0.95856z" fill="#008ae6" stroke-width="0"/><path d="M236.98427,173.21011c0.07882,0.00751 0.14831,0.09815 0.19679,0.23878c0.04832,0.14064 0.07575,0.33112 0.07057,0.5381c-0.00505,0.20684 -0.04175,0.39133 -0.097,0.52226c-0.0551,0.1309 -0.1288,0.20825 -0.20772,0.20089c-0.07892,-0.00734 -0.14829,-0.09815 -0.19677,-0.23877c-0.04835,-0.14064 -0.07579,-0.33112 -0.07075,-0.53808c0.0052,-0.20685 0.04188,-0.39135 0.09713,-0.52227c0.05512,-0.13091 0.1288,-0.20826 0.20772,-0.2009z" fill="#000000" stroke-width="0.0278"/><path d="M237.12866,173.44803c0.04207,0.09778 0.067,0.23122 0.06483,0.37734c-0.00203,0.14592 -0.0307,0.27689 -0.0755,0.37069c-0.04461,0.09378 -0.10533,0.15045 -0.17136,0.1474c-0.066,-0.00305 -0.12505,-0.06522 -0.16694,-0.16303c-0.04207,-0.09778 -0.067,-0.23123 -0.06482,-0.37735c0.00203,-0.14592 0.03069,-0.27689 0.07549,-0.37069c0.04461,-0.09377 0.10533,-0.15044 0.17136,-0.14739c0.066,0.00306 0.12505,0.06521 0.16695,0.16302z" fill="#ffffff" stroke-width="0.01811"/></g><path d="M244.16425,172.06155c-0.05442,-0.09135 -0.16571,-0.14669 -0.32742,-0.24017c-0.12152,-0.07037 -0.3574,-0.20754 -0.43473,-0.27925c-0.19414,-0.18003 -1.01285,-0.15211 -0.96437,-0.07437c-0.06312,0.11711 0.00613,-0.31658 -1.07321,0.6976l-1.1491,1.08026c-0.10576,0.09933 -0.52524,0.50173 -0.8586,0.61762c-0.35831,0.12458 -0.88909,0.16958 -0.93696,0.09706c0,0 -0.33439,-0.58816 -0.53374,-0.81196c-0.07579,-0.0851 -0.06771,0.10003 0.00931,0.33755c0.01268,0.03928 0.24753,0.6308 0.23679,0.65699c-0.0582,0.14085 -1.24208,-1.708 -1.30611,-1.80978l-0.39452,-0.62857c-0.13318,-0.21194 -0.34389,-0.10351 -0.43268,-0.12632c-0.13338,-0.03437 -0.21429,0.07374 -0.22319,0.20652c-0.01146,0.16796 -0.02128,0.86218 -0.03365,0.96365c-0.06505,0.53742 0.22666,1.26409 0.37345,2.02725c0.08592,0.44637 1.89243,2.04002 1.66249,1.71649c-0.10372,-0.14607 -0.10986,1.0463 -0.41529,1.20004c-0.21797,0.10996 -1.28779,-1.78186 -1.39929,-2.18569l-0.63726,-2.30588c-0.18678,-0.6752 0.14801,-2.5846 0.2459,-2.93157l0.19117,-0.67786c0.35207,-0.80142 0.85389,-1.5155 1.52859,-2.12871c0.04296,-0.03907 0.66671,-0.75078 1.77592,-1.12485c0.70047,-0.23628 1.87187,-0.27505 1.96383,-0.27628c0.53926,-0.00716 1.59149,-0.03795 2.5528,0.17287c0.61148,0.13409 1.15617,0.43809 1.60531,0.67561c0.08072,0.04256 -0.78833,1.09152 -0.71079,1.12824c0.03765,0.01769 -0.19894,1.00406 -0.18984,1.09806l0.06066,0.62774c0.06137,0.63459 0.63889,1.28443 0.74302,1.36861c0.14248,0.11538 0.63387,0.46582 0.79845,0.47012l0.55471,0.01503c0.076,0.00184 0.73913,-0.47859 0.79171,-0.43185c0.18524,0.16478 0.09318,1.12464 0.05554,1.31337l-0.19792,0.99332c-0.06382,0.31995 -0.08059,0.50038 -0.28169,0.94074c-0.27567,0.60432 -0.554,1.2077 -0.9877,1.75935c-0.35043,0.44587 -2.04422,1.70473 -2.01231,1.54455l0.26963,-1.36258l0.23118,-1.92547l-0.15006,-2.38751z" data-paper-data="{&quot;index&quot;:null}" fill="#54c81c" stroke="none" stroke-width="0.17188" stroke-linecap="butt"/><path d="M248.21129,170.48811c-1.03361,0.35321 -2.37571,-1.80898 -2.37571,-1.80898c0,-0.39013 0.95421,-1.18725 2.04092,-1.07729c0.83058,0.08419 1.37343,0.3623 1.64562,0.70845c0.03886,0.04941 0.00224,0.08111 0.04531,0.15579c0.05226,0.09022 0.21623,0.24969 0.18677,0.21307c0,0 -0.10689,0.12868 -0.11803,0.19926c-0.01422,0.08981 0.06506,0.21869 -0.0089,0.17716c0,0 0.02005,0.14239 -0.00266,0.18637c-0.24723,0.48055 -0.80807,1.03925 -1.41331,1.24618z" data-paper-data="{&quot;index&quot;:null}" fill="#ed3e67" stroke="none" stroke-width="0.17188" stroke-linecap="butt"/><path d="M245.04045,169.37542c0.09902,0.06894 -0.00194,-0.52607 0.13185,-1.10676c0.14279,-0.62008 0.53312,-1.23176 1.06686,-1.26203c0.3082,-0.01739 0.58437,0.0809 0.84439,0.15527c0.5364,0.15333 0.91333,0.37152 0.72502,0.44414c-0.31955,0.12335 -0.72962,0.3532 -1.00365,0.54693c-0.39084,0.27618 -0.64207,0.4877 -0.62294,0.50898l1.23053,1.368l0.83016,0.48649c0.13798,0.0714 -0.23066,0.31014 -0.64697,0.48188c-0.35934,0.14842 -0.60933,0.37101 -0.73556,0.40926c-0.56207,0.17123 -0.48842,-0.09073 -1.14634,-0.44649c-0.38255,-0.20692 -0.82208,-1.68958 -0.67335,-1.58566z" data-paper-data="{&quot;index&quot;:null}" fill="#54c81c" stroke="none" stroke-width="0.17188" stroke-linecap="butt"/><path d="M244.27003,169.33902c0.02925,-1.3277 0.56811,-2.83726 1.47663,-2.40479c0.38102,0.18126 -0.20458,0.43289 -0.49661,1.21774c-0.18585,0.49948 -0.21858,1.26602 0.08317,2.20339c0.03181,0.0983 0.19711,0.29008 0.42337,0.53834c0.34666,0.38061 1.77112,0.17163 1.54997,0.30379l-0.86382,0.51584l-0.61046,-0.112c-0.38829,0.02751 -1.58893,-1.04743 -1.56224,-2.26231z" data-paper-data="{&quot;index&quot;:null}" fill="#ead32e" stroke="none" stroke-width="0.17188" stroke-linecap="butt"/><path d="M235.87188,169.37943c-0.04347,-0.13431 0.08419,-0.35464 0.08071,-0.47534c-0.00808,-0.27905 0.18933,-0.96049 0.6884,-1.42938l0.28385,-0.26656c0.13972,-0.13133 0.65137,-0.26564 0.751,-0.20181c0.11958,0.15783 -0.50397,0.4965 -0.91773,1.0596c-0.19834,0.26994 -0.47912,0.61997 -0.47912,0.61997c-0.07958,0.27516 -0.40711,0.69352 -0.40711,0.69352z" data-paper-data="{&quot;index&quot;:null}" fill="#ead32e" stroke="none" stroke-width="0.17188" stroke-linecap="butt"/><path d="M236.1243,168.60447c-0.05994,0.14187 -0.27607,0.84122 -0.3713,1.18623l-0.37541,1.35971c-0.02761,0.10004 -0.78658,-0.46081 -0.73258,-0.76583c-0.13277,-0.34574 -0.02148,-0.64247 0.02281,-0.9524c0.1475,-0.33898 0.42511,-0.79978 0.61066,-0.98636c0.14945,-0.15026 -0.02618,-0.62795 0.10229,-0.82587c0.19323,-0.29807 1.27083,-0.26483 1.27083,-0.26483z" data-paper-data="{&quot;index&quot;:null}" fill="#54c81c" stroke="none" stroke-width="0.17188" stroke-linecap="butt"/><path d="M241.43229,176.71892h0.86877" data-paper-data="{&quot;index&quot;:null}" fill="none" stroke="#dfcfa3" stroke-width="0.36953" stroke-linecap="round"/><path d="M241.07921,173.18457c0.35637,-0.51369 0.6619,-0.65129 1.01899,-0.65129c0.50009,0 0.79537,0.76866 0.81319,1.38581c0.02,0.6926 -0.32037,1.01971 -0.32037,1.01971c0,0 -0.44393,0.13011 -0.93532,0.15374c-0.31485,0.01504 -0.66508,-0.01872 -0.92479,-0.01872c-0.25019,-0.027 0.26074,-1.76302 0.3483,-1.88925z" data-paper-data="{&quot;index&quot;:null}" fill="#ffffff" stroke="none" stroke-width="0.17188" stroke-linecap="butt"/><g data-paper-data="{&quot;index&quot;:null}" stroke="none" stroke-linecap="butt"><path d="M241.22956,175.32754c-0.25025,0 -0.45313,-0.42916 -0.45313,-0.95856c0,-0.5294 0.20288,-0.95856 0.45313,-0.95856c0.25025,0 0.45313,0.42916 0.45313,0.95856c0,0.5294 -0.20288,0.95856 -0.45313,0.95856z" fill="#008ae6" stroke-width="0"/><path d="M241.23427,173.54344c0.07883,0.00751 0.14831,0.09815 0.19679,0.23877c0.04832,0.14064 0.07575,0.33112 0.07057,0.53811c-0.00505,0.20684 -0.04175,0.39133 -0.097,0.52225c-0.05511,0.13089 -0.1288,0.20825 -0.20772,0.20089c-0.07892,-0.00735 -0.14829,-0.09815 -0.19677,-0.23877c-0.04835,-0.14064 -0.07579,-0.33112 -0.07075,-0.53808c0.0052,-0.20685 0.04188,-0.39135 0.09713,-0.52227c0.05512,-0.13091 0.1288,-0.20827 0.20772,-0.20091z" fill="#000000" stroke-width="0.0278"/><path d="M241.37866,173.78136c0.04207,0.09779 0.067,0.23123 0.06483,0.37735c-0.00203,0.14592 -0.03069,0.27689 -0.07549,0.37069c-0.04461,0.09379 -0.10533,0.15045 -0.17136,0.1474c-0.066,-0.00305 -0.12505,-0.06523 -0.16695,-0.16303c-0.04207,-0.09779 -0.067,-0.23123 -0.06483,-0.37735c0.00203,-0.14592 0.03069,-0.27689 0.07549,-0.37069c0.04461,-0.09377 0.10533,-0.15044 0.17136,-0.14739c0.066,0.00307 0.12505,0.06521 0.16695,0.16301z" fill="#ffffff" stroke-width="0.01811"/></g><path d="M242.15519,175.09804c0,0 -0.03262,0.54938 -0.43938,0.6276c-0.40676,0.07823 -0.95305,-0.63138 -0.95305,-0.63138l0.46708,0.04595z" fill="#f0e9bb" stroke="none" stroke-width="0" stroke-linecap="butt"/><path d="M240.6186,175.03187c0,0 -0.0558,-1.42945 0.61877,-2.11745c0.20811,-0.21225 0.375,-0.3786 0.57155,-0.43023c0.27411,-0.07199 0.4987,0.00137 0.70783,0.18982c0.1163,0.10479 0.31509,0.43598 0.32552,0.75955c0.00241,0.07462 1.18793,0.07506 1.18793,0.07506c0,0 -0.84362,0.13614 -1.02374,0.25869c-0.172,0.11702 -0.05377,0.46302 -0.1514,0.75489c-0.09763,0.29187 -0.22167,0.41893 -0.22167,0.41893c0,0 0.14663,-0.42381 0.12964,-0.98414c-0.01271,-0.41935 -0.16873,-1.03677 -0.39571,-1.21444c-0.30301,-0.26416 -0.61607,-0.19212 -1.03205,0.23153c-0.57075,0.44788 -0.71667,2.05779 -0.71667,2.05779z" fill="#000000" stroke="none" stroke-width="0" stroke-linecap="butt"/><path d="M235.07747,173.12178l0.66667,-0.02564l0.10256,0.15385z" fill="#000000" stroke="none" stroke-width="0" stroke-linecap="butt"/><path d="M237.85377,174.83581c0,0 -0.13578,0.53333 -0.55,0.53333c-0.41422,0 -0.81666,-0.8 -0.81666,-0.8l0.45,0.13333z" fill="#f0e9bb" stroke="none" stroke-width="0" stroke-linecap="butt"/><g stroke="none" stroke-width="0" stroke-linecap="butt"><path d="M236.14122,170.66556c0,-0.1312 -0.00634,-0.54737 0.07267,-0.70304c0.10351,-0.20394 0.33404,-0.36588 0.38651,-0.36588c0.04756,0 0.04358,0.24885 -0.039,0.4603c-0.05457,0.13973 -0.19435,0.21225 -0.19435,0.36774c0,0.17322 0.29634,0.61635 0.3512,0.83815c0.02132,0.08617 -0.10478,0.36216 -0.27095,0.56116c-0.17565,0.21035 -0.39252,0.34173 -0.39252,0.34173l-0.4179,-0.25058l0.88536,-0.44134c0,0 -0.07341,-0.08763 -0.16509,-0.26003c-0.09858,-0.18537 -0.21592,-0.45935 -0.21592,-0.54821z" fill="#671829"/><path d="M236.623,170.03325c0,-0.13304 0.07594,-0.42155 0.18819,-0.42155c0.11225,0 0.33874,0.10784 0.33874,0.24088c0,0.03037 -0.52918,0.99963 -0.04094,1.1834c0.23623,0.08891 0.52777,-0.56972 0.52777,-0.56972l0.15302,0.31974c0,0 -0.39385,0.50075 -0.7466,0.32488c-0.50979,-0.25417 -0.42018,-1.00865 -0.42018,-1.07764z" fill="#671829"/><path d="M237.57552,169.29407c0,0 0.01722,0.12389 -0.16582,0.12389c-0.04263,0 0.2136,-0.00026 0.29188,0.1276c0.08742,0.1428 0.00082,0.40034 -0.08428,0.43587c-0.09136,0.03814 -0.30509,-0.00432 -0.46037,-0.10993c-0.22596,-0.15369 -0.39482,-0.33866 -0.39482,-0.38171c0,-0.14325 0.38684,-0.55167 0.57231,-0.56048c0.09422,-0.00447 0.2411,0.36477 0.2411,0.36477z" fill="#804046"/><path d="M235.78041,169.38441c-0.02155,-0.05636 0.14688,-0.39935 0.2411,-0.39488c0.18547,0.00881 0.82825,0.40218 0.82825,0.54543c0,0.04305 -0.16886,0.10758 -0.39482,0.26126c-0.15528,0.10561 -0.46037,0.24542 -0.46037,0.24542l-0.15956,-0.42081l0.27683,-0.05232c0,0 -0.29055,-0.07723 -0.33143,-0.1841z" data-paper-data="{&quot;index&quot;:null}" fill="#804046"/><path d="M236.75096,169.31812c0.08731,0 0.15808,0.07583 0.15808,0.16937c0,0.09354 -0.07077,0.16937 -0.15808,0.16937c-0.08731,0 -0.15808,-0.07583 -0.15808,-0.16937c0,-0.09354 0.07077,-0.16937 0.15808,-0.16937z" fill="#671829"/></g><g stroke="none" stroke-linecap="butt"><path d="M239.568,180.81858c-0.27611,-0.24282 0.10645,-1.72855 0.03494,-1.91073c-0.06799,-0.17235 0.29242,-1.16811 0.36888,-1.27888c0.29791,-0.43074 1.01025,-0.32006 1.1825,-0.32006c0.13636,0 0.78202,0.04613 0.88289,0.13011c0.32701,0.27241 0.41234,0.9786 0.40047,1.69625c-0.00403,0.82076 0.59032,1.28914 0.2496,1.67068c-0.40974,0.34297 -3.11928,0.01263 -3.11928,0.01263z" data-paper-data="{&quot;index&quot;:null}" fill="#c27e34" stroke-width="0.17188"/><path d="M249.31189,180.62829c0,0 -1.99525,-0.42873 -3.05528,-0.93793c-1.15638,-0.55549 -3.61911,-1.45429 -3.61911,-1.45429l-0.05827,-1.07988c0,0 2.28489,0.09731 3.48315,0.54648c0.92417,0.34642 3.21641,0.64215 3.21641,0.64215z" fill="#fba15d" stroke-width="0"/><path d="M249.41321,181.50886c0,0 -1.78602,-0.74894 -4.1047,-1.15578c-1.71038,-0.30011 -3.02499,-1.49229 -3.02499,-1.49229l0.30844,-0.99393c0,0 2.55784,1.3891 3.7561,1.83826c1.7082,0.62454 3.40154,0.48602 3.40154,0.48602z" fill="#fba15d" stroke-width="0"/><path d="M239.21436,178.74252c-0.80381,0.64168 -0.59011,1.64078 -1.56482,1.88844c-0.32227,0.08183 -1.41621,0.10946 -1.52805,-0.22217c-0.14533,-0.42817 -0.06382,-1.48193 0.27363,-1.76175c0.51373,-0.42562 1.08025,-0.50083 1.72998,-0.6977c1.02809,-0.31129 2.783,-0.76251 3.06501,-0.58376c0.28199,0.17863 -1.32955,0.83964 -1.97575,1.37695z" data-paper-data="{&quot;index&quot;:null}" fill="#c27e34" stroke-width="0.17188"/><path d="M242.47781,179.01072c-0.76112,-0.67362 -1.66182,-1.48666 -1.31251,-1.68912c0.34934,-0.2026 2.15041,1.0218 3.38395,1.44031c0.77955,0.26466 1.13249,2.00893 0.08271,2.34288c-0.97093,0.30886 -1.24619,-0.50241 -1.44019,0.00583c-0.14939,0.39368 0.32495,-1.83741 -0.06238,-1.94968c0,0 0.29632,0.65565 -0.65157,-0.15022z" data-paper-data="{&quot;index&quot;:null}" fill="#c27e34" stroke-width="0.17188"/><g data-paper-data="{&quot;index&quot;:null}" stroke-width="0.17188"><path d="M237.7281,180.40016c0.00871,-0.00643 0.43751,-1.00626 0.47762,-1.22772c0.06769,-0.37262 -0.21351,-0.09555 0.03174,-0.50758c0.1819,-0.30555 0.58683,-0.31513 0.79107,-0.46813c0.23275,-0.1747 0.76384,-0.00955 1.00027,0.20081c0.13135,0.11689 0.03335,0.33065 0.07336,0.31033c0.27043,-0.13765 0.6706,-0.02154 0.74364,0.22767l0.1592,0.54226c-0.00146,0.57074 -0.14944,1.21788 -0.12593,1.57219c0.09417,0.81662 -0.87006,1.10353 -0.70155,1.06329c-0.85494,0.05257 -1.97074,-0.35037 -2.59802,-0.98792c-0.1227,-0.1333 -0.23985,-0.4445 0.14856,-0.72518z" fill="#ffcfea"/><path d="M236.2105,179.02257c0.13576,-0.34017 0.22766,-0.32037 0.39458,-0.36455c0.38553,-0.10212 0.90845,0.01538 1.29871,0.01624c0.36732,0.00089 0.26342,0.06742 0.36957,0.19363c0.15369,0.18232 0.11188,0.59121 0.07769,0.97612c-0.03419,0.38491 -0.22545,1.01498 -0.23358,1.0433c0,0 -0.58226,0.15509 -0.96677,0.1847c-0.38451,0.02961 -0.39087,0.15712 -0.84479,-0.02877c-0.24117,-0.16876 -0.19126,-0.65955 -0.21189,-1.10461c-0.02063,-0.44505 -0.01927,-0.57588 0.11649,-0.91605z" fill="#fca03b"/></g><g data-paper-data="{&quot;index&quot;:null}" stroke-width="0.17188"><path d="M242.12471,180.55162c0.30698,0.36022 0.12503,0.65147 -0.02202,0.76188c-0.74193,0.52021 -1.89669,0.70692 -2.69993,0.48501c0.15159,0.07394 -0.70297,-0.40629 -0.4289,-1.21264c0.10237,-0.35328 0.10733,-1.03624 0.23474,-1.61306l0.27416,-0.51635c0.1259,-0.23731 0.53363,-0.2756 0.76039,-0.08314c0.03356,0.02844 -0.01163,-0.20687 0.13998,-0.29901c0.27291,-0.16583 0.81654,-0.22779 0.999,-0.00534c0.16019,0.19491 0.54411,0.28453 0.64857,0.62911c0.14085,0.46464 -0.20567,0.22878 -0.22523,0.61856c-0.01176,0.23165 0.31237,1.22678 0.31922,1.23499z" fill="#ffcfea"/><path d="M243.92319,181.3161c-0.51961,0.20348 -1.58132,0.04667 -2.04719,-0.14214c-0.33928,-0.13752 -0.13513,-0.38205 -0.18698,-0.8181c-0.05185,-0.43604 0.06072,-0.48937 -0.00085,-0.86223c-0.06156,-0.37286 -0.0386,-0.46542 0.14908,-0.61926c0.1297,-0.10655 0.77233,-0.10862 1.26957,-0.05935c0.49724,0.04927 0.88282,0.184 0.97604,0.28186c0.14167,0.14903 0.22177,0.78775 0.14217,1.18107c-0.0796,0.39333 -0.03381,0.91532 -0.30184,1.03815z" fill="#fca03b"/></g><path d="M238.37181,177.75704c0,-0.51334 1.17861,-0.44414 2.3646,-0.44414c1.186,0 2.16052,-0.46559 2.16052,0.04775c0,0.09149 0.05779,0.14811 -0.18415,0.3482c-0.13449,0.11122 0.38174,0.1634 0.19684,0.28743c-0.41662,0.27946 -1.69529,0.07931 -2.22423,0.07931c-0.438,0 -1.88844,0.36799 -2.21704,0.13437c-0.19722,-0.14022 0.45234,-0.13297 0.3122,-0.24058c-0.2586,-0.19856 -0.40873,-0.13346 -0.40873,-0.21233z" fill="#ffe340" stroke-width="0"/><path d="M239.69315,177.34591c0,-0.07045 0.28665,0.05651 1.08552,-0.02551c0.49694,-0.05102 1.10443,-0.12807 1.10443,-0.05762c0,0.07044 -1.89317,0.38071 -2.16581,0.3909c-0.27265,0.01019 -0.02415,-0.23732 -0.02415,-0.30777z" fill="#000000" stroke-width="0"/></g><g stroke-width="0" stroke-linecap="butt"><path d="M236.61693,168.03629c0,0 0.69561,-1.44961 1.73599,-2.53078c0.85701,-0.89061 3.25764,-2.32498 3.99699,-2.59968c0.72068,-0.26776 5.07171,-0.05852 7.12765,2.86034c3.32967,4.82379 1.77409,8.81767 1.77409,8.81767c0,0 -0.73531,-3.06116 -1.551,-5.06786c-0.19268,-0.47402 -0.921,-1.24832 -1.60297,-1.76821c-0.89316,-0.68088 -1.3006,-0.68583 -2.29752,-0.51515c-0.99692,0.17067 -1.1397,1.03786 -1.1397,1.03786c0,0 -2.23811,-0.77099 -3.52581,-0.80848c-1.38621,-0.04036 -4.51772,0.57429 -4.51772,0.57429z" fill="#c27e34" stroke="none"/><g><path d="M250.46572,174.36419c0.03163,-0.47869 0.44533,-0.8411 0.92401,-0.80946c0.47869,0.03163 0.8411,0.44533 0.80947,0.92402c-0.03163,0.47869 -0.44533,0.84109 -0.92401,0.80946c-0.47869,-0.03163 -0.8411,-0.44533 -0.80947,-0.92401z" fill="#db7b04" stroke="none"/><path d="M252.28752,174.45377c-0.01087,0.16448 -0.4973,0.07734 -0.96029,0.04674c-0.46299,-0.0306 -0.93176,0.05104 -0.92089,-0.11344c0.01656,-0.25053 0.48105,-0.26732 0.94403,-0.23673c0.46299,0.0306 0.9556,0.02423 0.93715,0.30343z" fill="#feeb00" stroke="#000000"/><path d="M251.32898,175.22092c-0.01194,0.18076 -0.10652,0.06241 -0.1969,0.05644c-0.09038,-0.00598 -0.19616,-0.39058 -0.18421,-0.57133c0.01194,-0.18076 0.19445,-0.08542 0.28483,-0.07944c0.09038,0.00598 0.10823,0.41358 0.09628,0.59434z" fill="#000000" stroke="none"/><path d="M251.89275,174.67721c0.04752,0.00314 0.14798,-0.05987 0.1396,0.06684c-0.00838,0.12671 -0.12051,0.36651 -0.16804,0.36337c-0.04753,-0.00314 -0.08115,-0.07973 -0.07277,-0.20645c0.00838,-0.12671 0.05368,-0.2269 0.1012,-0.22376z" fill="#000000" stroke="none"/></g></g><path d="M240.96799,175.29777c0,-0.32172 0.80526,-0.12708 1.39624,-0.26252c0.15674,-0.03592 0.33217,-0.09323 0.5003,-0.14139c0.39354,-0.11273 0.74705,-0.17532 0.72717,0.20391c-0.02836,0.54124 -0.53507,0.78252 -1.18527,0.78252c-0.60801,0 -1.43843,-0.26081 -1.43843,-0.58253z" fill="url(#color-1)" stroke="none" stroke-width="0" stroke-linecap="butt"/><path d="M237.74264,174.86297c0,0.32172 -0.46339,0.58253 -0.80266,0.58253c-0.36282,0 -0.76556,-0.40128 -0.78139,-0.94252c-0.01109,-0.37923 0.26617,0.00336 0.48577,0.11608c0.09382,0.04816 0.27171,0.06547 0.35917,0.10139c0.32977,0.13544 0.73911,-0.17919 0.73911,0.14253z" data-paper-data="{&quot;index&quot;:null}" fill="url(#color-2)" stroke="none" stroke-width="0" stroke-linecap="butt"/></g></g></svg>