<svg version="1.1" xmlns="http://www.w3.org/2000/svg" xmlns:xlink="http://www.w3.org/1999/xlink" width="27.49734" height="37.45692" viewBox="0,0,27.49734,37.45692"><g transform="translate(-223.63572,-163.424)"><g data-paper-data="{&quot;isPaintingLayer&quot;:true}" fill-rule="nonzero" stroke-miterlimit="10" stroke-dasharray="" stroke-dashoffset="0" style="mix-blend-mode: normal"><g stroke="none" stroke-width="0" stroke-linecap="butt" stroke-linejoin="miter"><g data-paper-data="{&quot;index&quot;:null}"><g><path d="M249.22528,190.87595c0,0 1.58584,-0.08646 1.84846,1.23204c0.0244,0.12252 -0.24763,0.17613 -0.24763,0.17613l0.30694,0.21982l-0.04894,0.78401l-0.2414,-0.04447c0,0 -0.41033,0.86343 -0.45608,1.28608c-0.04566,0.42144 0.18185,1.24625 0.18185,1.24625l0.13317,0.15858l-0.11525,0.78321l-0.17749,-0.02309l-0.06928,0.2196c0,0 0.28055,0.09409 0.00977,0.48524c-0.087,0.12568 -0.30017,0.57777 -0.30017,0.57777l-0.16385,-0.07287l-0.13403,0.10932c0,0 0.18064,0.20492 0.07425,0.29073c-0.12756,0.10286 -0.39128,0.4261 -0.62134,0.56685c-0.08911,0.05453 -0.03276,-0.10701 -0.12298,-0.06099c-0.05877,0.02996 -0.06743,0.06743 -0.12878,0.0996c-0.09945,0.05212 0.05973,0.07076 0.00056,0.13179c-0.0484,0.04991 -0.23116,0.12485 -0.38976,0.18054c-0.1586,0.05567 -0.3336,0.06182 -0.3336,0.06182l-0.10328,-0.1412l-0.21355,0.14789c0,0 -0.35282,-0.05355 -0.51896,-0.19132c-0.16617,-0.13779 -0.25771,-0.45271 -0.25771,-0.45271c0,0 0.64158,0.00926 0.99719,-0.12343c2.74576,-1.80978 1.70902,-3.20766 1.50794,-5.10877c-0.09281,-0.87742 0.18733,-1.32655 0.02281,-1.86846c-0.13504,-0.44479 -0.43878,-0.66993 -0.43878,-0.66993z" data-paper-data="{&quot;index&quot;:null}" fill="#a87643"/><path d="M247.15745,193.68026c-0.49022,-0.89573 -2.16243,-3.95089 -2.02288,-4.22919c0.19369,-0.35176 1.65797,-1.41198 1.65797,-1.41198c0,0 0.39548,0.57018 0.59367,0.92696c0.19821,0.35678 0.86049,1.42413 0.86049,1.42413c0,0 1.3146,0.4664 1.50571,1.12816c0.25623,0.88736 -0.44576,3.81329 -0.44576,3.81329c0,0 -1.2931,-0.08709 -2.14918,-1.65135z" data-paper-data="{&quot;index&quot;:null}" fill="#f3e2e2"/><path d="M245.36073,188.57045c0.27669,0.06967 -0.19301,0.8228 -0.19301,0.8228c0,0 -0.04656,0.25863 0.09185,0.53738c0.2277,0.45859 0.63883,1.10637 0.96419,1.82585c0.37045,0.8192 0.84394,1.74084 1.1478,2.17125c0.37486,0.53098 1.56616,1.35996 1.91352,1.25145c0.03401,-0.01061 -0.02532,-0.30873 -0.08297,-0.49918c-0.11189,-0.51779 -0.14583,-0.34766 -0.23646,-1.05528c-0.0614,-0.57136 0.69604,-0.31478 0.69604,-0.31478c0,0 0.99444,3.06605 -0.33847,4.57769c-1.00478,1.13951 -2.15415,0.80733 -2.16324,0.80627c-0.01631,-0.00187 -0.70099,-0.80797 -0.93425,-1.47232c-0.06483,-0.18468 0.29289,-1.29296 0.03654,-2.12304c-0.23853,-0.77241 -0.58468,-2.09554 -0.94472,-2.91434c-0.64493,-1.46665 -1.43665,-2.50197 -1.29071,-2.6894c0.48711,-0.62565 1.16186,-0.96765 1.33391,-0.92433z" data-paper-data="{&quot;index&quot;:null}" fill="#fc6293"/><path d="M246.319,195.29601c0,0 -0.68042,-2.04248 -0.88895,-2.63518c-0.28868,-0.82044 -0.72308,-1.53351 -1.42012,-2.83492c-0.12127,-0.22642 0.15684,-0.55341 0.15684,-0.55341l0.13577,0.01556c0,0 -0.22355,0.32326 -0.1496,0.50982c0.14701,0.37085 0.85816,1.65591 1.38108,2.72745c0.39637,0.81223 0.74447,2.12417 0.74447,2.12417z" data-paper-data="{&quot;index&quot;:null}" fill="#bfa4a4"/><path d="M247.36324,192.20082l-0.62491,-1.04361l0.55488,-0.3144l0.56624,1.03687z" data-paper-data="{&quot;index&quot;:null}" fill="#fffff6"/><path d="M246.58174,190.55588l-0.44216,-0.91586l0.48975,-0.29544l0.46723,0.84266z" data-paper-data="{&quot;index&quot;:null}" fill="#fffff6"/><path d="M244.7218,191.06459l-0.48338,-0.7785c0,0 0.6627,-0.05921 1.06123,-0.19534c0.3985,-0.13614 0.82768,-0.44995 0.82768,-0.44995l0.45465,0.90798c0,0 -0.6444,0.35099 -1.11706,0.4546c-0.47267,0.10361 -0.74305,0.06122 -0.74305,0.06122z" data-paper-data="{&quot;index&quot;:null}" fill="#754c86"/><path d="M246.51478,192.66491c-0.37377,0.15795 -0.9685,0.29413 -0.9685,0.29413c0,0 -0.13879,-0.37103 -0.23437,-0.60583c-0.0956,-0.23479 -0.28598,-0.67216 -0.28598,-0.67216c0,0 0.65765,-0.09306 1.0264,-0.20827c0.36875,-0.11521 0.73174,-0.33271 0.73174,-0.33271l0.61191,1.06026c0,0 -0.50743,0.30666 -0.88119,0.46464z" data-paper-data="{&quot;index&quot;:null}" fill="#754c86"/><path d="M246.64685,188.17183l-1.57023,0.47411c0,0 0.06187,-0.08291 0.38942,-0.21162c0.32755,-0.12873 0.62114,-0.28011 0.74543,-0.32205c0.20536,-0.06929 0.5687,-0.05759 0.5687,-0.05759z" data-paper-data="{&quot;index&quot;:null}" fill="#ae8484"/><path d="M244.40506,189.42184c-0.09316,-0.17821 0.19785,-0.47174 0.95644,-0.86836c0.75858,-0.39662 1.27349,-0.36925 1.27349,-0.36925c0,0 -0.54056,0.43522 -0.82958,0.64561c-0.58483,0.43864 -0.46734,0.44826 -0.8151,0.60948c-0.34776,0.16124 -0.50987,0.12272 -0.57919,-0.00988z" data-paper-data="{&quot;index&quot;:null}" fill="#532c31"/></g><path d="M245.23618,188.55174c0,0 -0.20818,-0.70639 -0.03755,-1.02072c0.17065,-0.31432 0.46948,-0.56058 0.77319,-0.33431c0.30371,0.22625 0.12295,0.9925 0.12295,0.9925z" fill="#f3e2e2"/></g><g data-paper-data="{&quot;index&quot;:null}"><path d="M243.92665,183.62754l1.32987,3.19775l0.6982,1.98221l-0.98171,0.70772l-0.75135,-1.77666l-1.39449,-3.47803z" data-paper-data="{&quot;index&quot;:null}" fill="#8e5173"/><path d="M245.06184,186.36883l0.19465,0.4565l0.6982,1.98221l-0.98171,0.70772l-0.75135,-1.77666l-0.26921,-0.71283z" data-paper-data="{&quot;index&quot;:null}" fill="#c5c0b5"/><path d="M244.04643,187.27922l-0.10523,-0.25415l1.11295,-0.65354l0.114,0.23302z" fill="#af2753"/><path d="M244.23217,187.72775l-0.10523,-0.25415l1.11295,-0.65354l0.114,0.23302z" fill="#af2753"/></g></g><g data-paper-data="{&quot;index&quot;:null}" stroke-width="0" stroke-linecap="butt" stroke-linejoin="miter"><g data-paper-data="{&quot;index&quot;:null}"><path d="M244.60588,164.57109c0.42926,0.97298 -0.01443,2.11101 -0.99099,2.54185c-0.97656,0.43084 -2.1162,-0.00865 -2.54546,-0.98163c-0.42926,-0.97298 0.01441,-2.111 0.99097,-2.54184c0.97656,-0.43083 2.11622,0.00865 2.54548,0.98163z" fill="#e0cb17" stroke="none"/><path d="M243.639,166.99212c-0.60333,0.26618 -1.30739,-0.00534 -1.57259,-0.60645c-0.2652,-0.60112 0.0089,-1.30417 0.61223,-1.57035c0.60333,-0.26618 1.30739,0.00534 1.57259,0.60645c0.2652,0.60111 -0.0089,1.30417 -0.61223,1.57035z" fill="#e0cb17" stroke="#000000"/><path d="M243.9036,167.52554c-0.53551,0.23342 -1.33915,0.20142 -1.33915,0.20142l0.06056,-0.56218c0,0 0.71817,0.04673 1.12328,-0.16014c0.40512,-0.20688 0.81687,-0.83062 0.81687,-0.83062l0.47433,0.53552c0,0 -0.66723,0.61172 -1.1359,0.81601z" fill="#dbded5" stroke="#000000"/></g><g data-paper-data="{&quot;index&quot;:null}" stroke="none"><path d="M239.87604,173.40332c0.18407,-0.08121 0.46992,0.16268 0.63848,0.54474c0.16855,0.38205 0.15597,0.75761 -0.02809,0.83882c-0.18407,0.0812 -0.46991,-0.16269 -0.63847,-0.54475c-0.16856,-0.38206 -0.15599,-0.7576 0.02807,-0.83881z" fill="#000000"/><path d="M240.71938,178.79675c0.19173,-0.08459 1.7694,1.56643 1.7694,1.56643c0,0 -0.82657,0.72829 -1.0183,0.81288c-0.19172,0.08458 -1.00119,-0.87808 -1.07536,-1.04619c-0.07416,-0.16811 0.13255,-1.24853 0.32428,-1.33312z" fill="#807d5a"/><path d="M240.17719,174.67243l-0.21874,-0.24509l2.0724,-7.36045l0.18139,0.08526z" fill="#6e6e73"/><path d="M241.72514,167.75269l0.43572,0.16038l-0.52452,1.71899l-0.40795,-0.17263z" fill="#ddcb1e"/></g></g><g data-paper-data="{&quot;index&quot;:null}" stroke-width="0" stroke-linecap="butt" stroke-linejoin="miter"><g data-paper-data="{&quot;index&quot;:null}"><path d="M223.91619,175.19027c-0.63182,-1.20913 -0.16021,-2.70339 1.05337,-3.33754c1.21359,-0.63415 2.70957,-0.16803 3.34139,1.04109c0.63182,1.20913 0.16021,2.70338 -1.05337,3.33753c-1.21358,0.63415 -2.70957,0.16804 -3.34139,-1.04108z" fill="#e0cb17" stroke="none"/><path d="M225.05285,175.51563c-0.39034,-0.747 -0.09898,-1.67016 0.65077,-2.06193c0.74975,-0.39178 1.67396,-0.10383 2.0643,0.64318c0.39033,0.747 0.09899,1.67017 -0.65076,2.06194c-0.74975,0.39178 -1.67397,0.10382 -2.06431,-0.64319z" fill="#e0cb17" stroke="#000000"/><path d="M227.44008,176.85105c-0.57992,0.30632 -1.72722,0.48558 -1.72722,0.48558l-0.15721,-0.90417c0,0 0.95489,0.08649 1.48653,-0.15405c0.53165,-0.24054 1.05963,-0.99792 1.05963,-0.99792l0.61206,0.38928c0,0 -0.61116,0.83127 -1.27378,1.18126z" fill="#dbded5" stroke="#000000"/></g><g data-paper-data="{&quot;index&quot;:null}" stroke="none"><path d="M236.58016,180.33089c-0.01408,-0.47127 -0.89519,-2.79359 0.26692,-3.35705c0.18036,-0.08746 2.15192,0.3466 2.84455,1.1656c0.94218,1.11407 0.6393,2.72675 0.6393,2.72675l-2.77008,1.42559c0,0 -0.96665,-1.48964 -0.98072,-1.9609z" fill="#e4dcaa"/><path d="M236.55628,177.5181c0.22874,-0.11953 0.61529,0.16846 0.86339,0.64325c0.24809,0.47479 0.26378,0.95658 0.03504,1.0761c-0.22873,0.11953 -0.61528,-0.16847 -0.86337,-0.64326c-0.2481,-0.4748 -0.26379,-0.95657 -0.03506,-1.07609z" fill="#000000"/><path d="M238.70739,184.15707c-0.52318,-0.68288 -1.15629,-1.87646 -1.15629,-1.87646c0,0 0.34208,-0.56828 0.61524,-0.83227c0.27316,-0.264 0.78405,-0.5891 0.78405,-0.5891l1.45471,0.12541c0,0 1.56665,2.55247 1.7553,2.88564c0.37991,0.671 -0.61958,1.84134 -0.61958,1.84134l-1.26997,0.11898c0,0 -1.0403,-0.99063 -1.56349,-1.67351z" fill="#dfcc17"/><path d="M241.44221,185.70816c0,0 -0.39236,-2.9031 -0.15408,-3.02761c0.23828,-0.1245 1.48685,0.53308 1.59601,0.74198c0.10916,0.2089 0.42633,1.79094 0.18805,1.91546c-0.23827,0.1245 -1.62997,0.37019 -1.62997,0.37019z" fill="#807d5a"/><path d="M228.41958,174.85656l0.05972,-0.25009l9.03759,3.81387l0.07062,0.41546z" fill="#6e6e73"/><path d="M231.52012,175.71706l-0.15347,0.54715l-2.14312,-0.85008l0.18799,-0.56517z" fill="#ddcb1e"/></g></g><path d="M243.6139,171.47306c0,0 -0.91004,-0.65545 -1.08826,-1.27514c-0.1782,-0.61967 -0.34432,-2.02309 0.17179,-2.66889c0.68775,-0.86059 0.81706,1.46802 0.81706,1.46802c0,0 0.23413,-0.34351 0.45766,-0.90202c0.39566,-0.98858 0.74377,-2.02512 1.04561,-2.03674c0.54132,-0.02083 -0.01154,2.20302 -0.01154,2.20302c0,0 1.09386,-2.30174 1.46395,-2.16783c0.35785,0.12948 -0.28715,2.56759 -0.28715,2.56759c0,0 0.93632,-1.64264 1.37888,-1.71019c0.4154,0.24844 -0.51648,2.31963 -0.51648,2.31963c0,0 1.10874,-1.30531 1.50354,-1.26034c0.23415,0.17304 -0.41992,1.44976 -0.92161,2.29221c-0.50169,0.84244 -0.83537,1.07584 -1.06352,1.33878c-0.3513,0.40486 -0.69337,0.46519 -0.69337,0.46519l-2.25662,-0.63325z" data-paper-data="{&quot;index&quot;:null}" fill="#ffffff" stroke="none" stroke-width="0" stroke-linecap="butt" stroke-linejoin="miter"/><g data-paper-data="{&quot;index&quot;:null}" stroke="none" stroke-width="0" stroke-linecap="butt" stroke-linejoin="miter"><path d="M241.78433,177.83977c0.14467,-1.17375 0.5154,-2.50298 0.79659,-3.37033c0.40201,-1.24007 0.7237,-2.35636 0.7237,-2.35636c0,0 0.54208,-0.0408 0.79429,0.1634c0.25222,0.20421 0.35858,0.23616 0.35858,0.23616c0,0 -0.70395,1.92932 -0.86613,2.4296c-0.26604,0.82061 -0.56063,1.87441 -0.87222,3.08619c-0.07808,0.30363 -0.28187,0.439 -0.59475,0.37205c-0.21021,-0.045 -0.38797,-0.17208 -0.34006,-0.56074z" data-paper-data="{&quot;index&quot;:null}" fill="#fff9fb"/><g data-paper-data="{&quot;index&quot;:null}"><path d="M245.30185,173.00265c-0.54053,0.91732 -1.22306,0.65799 -1.96064,0.20737c-0.73757,-0.45061 -1.26536,-0.93068 -0.71034,-1.83916c0.55501,-0.90846 1.22306,-0.65799 1.96064,-0.20737c0.73757,0.45061 1.25074,0.92206 0.71034,1.83916z" fill="#fed000"/><path d="M245.70638,173.2498c-0.43404,0.75288 -1.28918,0.35909 -2.25018,-0.22802c-0.961,-0.5871 -1.68281,-1.15673 -1.22989,-1.89807c0.45291,-0.74135 1.28918,-0.35909 2.25018,0.22802c0.961,0.5871 1.66382,1.14537 1.22989,1.89807z" fill="#e68b9c"/></g></g><path d="M242.49106,184.28938c0,0 -0.81997,1.96121 -1.48779,2.44298c-0.7257,0.52352 -2.88097,1.05474 -2.88097,1.05474l2.24335,-1.75577l0.99929,-1.03075z" data-paper-data="{&quot;index&quot;:null}" fill="#f79db4" stroke="none" stroke-width="0" stroke-linecap="butt" stroke-linejoin="miter"/><g data-paper-data="{&quot;index&quot;:null}" stroke="none" stroke-width="0" stroke-linecap="butt" stroke-linejoin="miter"><path d="M239.37991,189.31439c0,0 -0.57542,-0.53731 -0.4482,-0.89403c0.12721,-0.35672 0.51245,-0.3176 0.82878,-0.1507c0.31634,0.16689 0.53492,0.87013 0.53492,0.87013z" fill="#fc6293"/><g><path d="M238.08077,192.94462c0,0 -0.21278,0.33556 -0.17711,0.82279c0.04346,0.59358 0.48788,0.92818 0.72845,1.82366c0.52124,1.94031 0.03282,3.70291 3.40933,4.44003c0.39884,-0.00424 1.02452,-0.25579 1.02452,-0.25579c0,0 0.02922,0.34341 -0.08164,0.54132c-0.11088,0.19791 -0.43663,0.38374 -0.43663,0.38374l-0.26531,-0.06431l-0.04793,0.1775c0,0 -0.17395,0.0601 -0.35051,0.06543c-0.17655,0.00535 -0.38411,0.00089 -0.45044,-0.02975c-0.08111,-0.03747 0.06796,-0.1159 -0.04925,-0.12943c-0.07231,-0.00837 -0.09494,-0.04184 -0.16391,-0.04901c-0.10585,-0.01103 0.01045,0.12607 -0.09754,0.1063c-0.27879,-0.05108 -0.65956,-0.26841 -0.82351,-0.32108c-0.13678,-0.04392 -0.03708,-0.31315 -0.03708,-0.31315l-0.17274,-0.05655l-0.13313,0.13338c0,0 -0.37989,-0.3628 -0.5127,-0.45315c-0.41334,-0.28123 -0.17378,-0.47951 -0.17378,-0.47951l-0.15092,-0.1892l-0.16533,0.08972l-0.409,-0.7245l0.07065,-0.20582c0,0 -0.08858,-0.89479 -0.29261,-1.29083c-0.2046,-0.39717 -0.93328,-1.08883 -0.93328,-1.08883l-0.21993,0.13482l-0.34428,-0.75034l0.21793,-0.33154c0,0 -0.28702,0.0502 -0.30938,-0.07916c-0.2407,-1.39222 1.34712,-1.90671 1.34712,-1.90671z" data-paper-data="{&quot;index&quot;:null}" fill="#a87643"/><path d="M241.16834,194.91321c-0.24837,1.8575 -1.48352,2.43157 -1.48352,2.43157c0,0 -1.79407,-2.60399 -1.87812,-3.57102c-0.06268,-0.72117 1.05022,-1.67531 1.05022,-1.67531c0,0 0.24612,-1.29697 0.30565,-1.72174c0.05955,-0.42477 0.2319,-1.13336 0.2319,-1.13336c0,0 1.83656,0.48637 2.15944,0.75812c0.24202,0.22017 -0.24329,3.84812 -0.38551,4.91176z" data-paper-data="{&quot;index&quot;:null}" fill="#fc6293"/><path d="M240.99926,189.22334c0.15234,-0.10749 0.94328,-0.02707 1.65739,0.40236c0.21394,0.12865 -0.17122,1.44312 -0.24942,3.1251c-0.04364,0.93902 0.1169,2.36734 0.17488,3.21493c0.0623,0.9109 0.83192,1.86253 0.83812,2.06814c0.0223,0.73964 -0.34449,1.78885 -0.35978,1.79686c-0.00854,0.00449 -1.01012,0.76458 -2.42607,0.02683c-1.87835,-0.97867 -2.06179,-4.36116 -2.06179,-4.36116c0,0 0.64581,-0.53785 0.80152,0.04566c0.17853,0.72819 0.08094,0.57416 0.16691,1.12423c0.01542,0.20851 0.0699,0.52329 0.10727,0.52085c0.38163,-0.02484 1.23974,-1.27703 1.4067,-1.93938c0.13534,-0.53689 0.24823,-1.63061 0.30194,-2.57392c0.04718,-0.8285 0.20553,-1.61913 0.25554,-2.15486c0.03039,-0.32563 -0.11301,-0.56167 -0.11301,-0.56167c0,0 -0.74521,-0.56105 -0.5002,-0.73393z" data-paper-data="{&quot;index&quot;:null}" fill="#f3e2e2"/><path d="M242.39655,195.53156c0,0 -0.15443,-1.4181 -0.07267,-2.36438c0.10787,-1.2484 0.31961,-2.77733 0.32364,-3.19654c0.00201,-0.21089 -0.33935,-0.44342 -0.33935,-0.44342l0.12724,-0.06656c0,0 0.39629,0.21559 0.36293,0.48343c-0.19175,1.53963 -0.34828,2.40305 -0.32132,3.31669c0.01949,0.66001 0.1241,2.92009 0.1241,2.92009z" data-paper-data="{&quot;index&quot;:null}" fill="#766565"/><path d="M239.79953,193.41279l0.16344,-1.23079l0.66295,0.09863l-0.21842,1.25957z" data-paper-data="{&quot;index&quot;:null}" fill="#fffff6"/><path d="M239.90808,191.46481l0.13974,-1.00289l0.59192,0.10464l-0.08753,1.06523z" data-paper-data="{&quot;index&quot;:null}" fill="#fffff6"/><path d="M242.56835,191.42781c0,0 -0.24913,0.14375 -0.75181,0.22077c-0.50263,0.07702 -1.26722,-0.02367 -1.26722,-0.02367l0.10272,-1.06221c0,0 0.53944,0.14557 0.98167,0.12848c0.44224,-0.01708 1.11449,-0.20947 1.11449,-0.20947z" data-paper-data="{&quot;index&quot;:null}" fill="#754c86"/><path d="M242.47583,193.59713c0,0 -0.6347,0.09121 -1.06092,0.07756c-0.42622,-0.01365 -1.03972,-0.12264 -1.03972,-0.12264l0.19939,-1.27096c0,0 0.43818,0.07612 0.84332,0.04975c0.40514,-0.02636 1.08523,-0.18363 1.08523,-0.18363c0,0 -0.02142,0.50086 -0.02643,0.76723c-0.00501,0.26639 -0.0009,0.68268 -0.0009,0.68268z" data-paper-data="{&quot;index&quot;:null}" fill="#754c86"/><path d="M239.41242,189.25405c0,0 0.35189,-0.1488 0.57947,-0.15846c0.13774,-0.00586 0.48286,0.03165 0.85271,0.0341c0.36985,0.00245 0.46185,0.06037 0.46185,0.06037l-1.71899,0.12844z" data-paper-data="{&quot;index&quot;:null}" fill="#ae8484"/><path d="M242.25516,189.70691c-0.01787,0.15623 -0.16228,0.25528 -0.56424,0.22857c-0.40197,-0.0267 -0.29038,-0.08052 -1.02965,-0.28966c-0.36294,-0.09711 -1.0575,-0.31963 -1.0575,-0.31963c0,0 0.49458,-0.22144 1.38836,-0.11916c0.89378,0.10229 1.29009,0.28016 1.26606,0.49012z" data-paper-data="{&quot;index&quot;:null}" fill="#532c31"/></g></g><g data-paper-data="{&quot;index&quot;:null}" stroke="none" stroke-width="0" stroke-linecap="butt" stroke-linejoin="miter"><path d="M241.95862,184.35961l-0.14575,4.13801l-0.06352,1.49891l-1.40841,-0.4398l0.08831,-1.18578l0.21663,-3.77065z" data-paper-data="{&quot;index&quot;:null}" fill="#8e5173"/><path d="M241.84016,187.2117l-0.02737,1.28591l-0.06352,1.49891l-1.40841,-0.4398l0.08831,-1.18578l0.07716,-1.26636z" data-paper-data="{&quot;index&quot;:null}" fill="#a71e48"/><path d="M241.84016,187.2117l-0.00236,0.26682l-1.34157,-0.13797l0.0101,-0.23597z" data-paper-data="{&quot;index&quot;:null}" fill="#a19589"/><path d="M241.81461,187.70316l-0.00236,0.26682l-1.34157,-0.13796l0.0101,-0.23598z" data-paper-data="{&quot;index&quot;:null}" fill="#a19589"/></g><path d="M246.46785,183.07035c0,0 -0.95585,2.7175 -2.91048,3.58101c-2.38407,0.834 -3.83167,-0.25222 -3.83167,-0.25222l0.11743,-0.50931c0,0 1.15434,1.41903 3.563,0.39978c2.06079,-0.91828 2.76525,-3.57261 2.76525,-3.57261z" data-paper-data="{&quot;index&quot;:null}" fill="#ee3377" stroke="none" stroke-width="0" stroke-linecap="butt" stroke-linejoin="miter"/><path d="M243.43215,179.90328l2.78706,2.88099c0,0 -1.26361,3.26074 -3.1192,3.79395c-2.42984,0.6538 -3.26317,-0.54206 -3.26317,-0.54206c0,0 0.2522,-1.28113 0.31391,-2.1637c0.06171,-0.88257 0.02847,-2.73322 0.02847,-2.73322z" data-paper-data="{&quot;index&quot;:null}" fill="#fcf4f4" stroke="none" stroke-width="0" stroke-linecap="butt" stroke-linejoin="miter"/><path d="M245.93784,182.51336c0,0 -0.77879,2.46835 -2.73341,3.33186c-2.80038,0.97903 -3.24485,-0.21428 -3.24485,-0.21428l-0.00055,-0.16788c0,0 0.76649,1.14761 3.17515,0.12834c2.156,-0.95881 2.6812,-3.20455 2.6812,-3.20455z" data-paper-data="{&quot;index&quot;:null}" fill="#ee3377" stroke="none" stroke-width="0" stroke-linecap="butt" stroke-linejoin="miter"/><path d="M241.04501,181.31074l0.18712,-0.67372l1.46153,-0.58984l0.51896,0.34668z" data-paper-data="{&quot;index&quot;:null}" fill="#aa4455" stroke="none" stroke-width="0" stroke-linecap="butt" stroke-linejoin="miter"/><path d="M242.4668,178.43106c0.31807,0.53626 0.64123,1.53548 0.64123,1.53548l-3.15348,1.20548l-0.14879,-0.99958l-0.648,-2.16674c0,0 0.70973,-0.14436 1.15098,-0.28329c0.44126,-0.13894 1.07532,-0.41764 1.07532,-0.41764c0,0 0.7647,0.59002 1.08275,1.12627z" data-paper-data="{&quot;index&quot;:null}" fill="#6d3b75" stroke="none" stroke-width="0" stroke-linecap="butt" stroke-linejoin="miter"/><g data-paper-data="{&quot;index&quot;:null}" stroke="none" stroke-width="0" stroke-linecap="butt" stroke-linejoin="miter"><path d="M245.60544,184.15707l-2.79891,-4.3159l0.55901,-0.13968c0,0 1.34831,0.7567 2.10441,1.38524c0.7561,0.62854 1.57743,1.67542 1.57743,1.67542c0,0 -0.22352,0.74037 -1.04163,1.23697c-0.19968,0.12122 -0.4003,0.15795 -0.4003,0.15795z" fill="#fab5b7"/><path d="M246.14117,183.85733c0.58092,-0.37466 0.89734,-1.14949 0.89734,-1.14949l0.24209,0.33331c0,0 -0.34506,0.84174 -0.93639,1.22914c-0.65963,0.43214 -0.52957,0.28273 -0.52957,0.28273l-0.19862,-0.35273c0,0 -0.1211,0.07382 0.52515,-0.34297z" fill="#fed000"/></g><path d="M243.15565,180.53111c0,0 -0.90282,-0.7502 -1.15676,-1.21449c-0.04547,-0.08312 -0.12636,-0.25368 -0.12636,-0.25368c0,0 -0.01684,-0.30522 0.46446,-1.02039c0.10545,-0.15671 -0.00548,-0.2086 -0.04226,-0.42643c-0.01161,-0.06881 -0.32351,-0.30165 -0.32351,-0.30165c0,0 0.10628,-0.10026 0.20609,-0.03465c0.29903,0.49652 0.67467,1.60561 0.67467,1.60561l0.7167,0.9637z" data-paper-data="{&quot;index&quot;:null}" fill="#efe6e6" stroke="none" stroke-width="0" stroke-linecap="butt" stroke-linejoin="miter"/><path d="M239.62475,181.87381l0.12138,-1.68218c0,0 -0.80321,-1.71436 -0.63839,-2.14261c0.0429,-0.11148 0.58105,-0.16399 0.58105,-0.16399c0,0 0.1816,-0.0233 0.28425,0.27249c0.021,0.06052 -0.07265,0.391 -0.04202,0.45369c0.09699,0.19846 0.21177,0.28535 0.38877,0.35127c0.80782,0.30088 0.97196,0.55878 0.97196,0.55878c0,0 0.03361,0.18577 0.04509,0.2798c0.06407,0.52531 -0.1613,1.60236 -0.1613,1.60236z" data-paper-data="{&quot;index&quot;:null}" fill="#efe6e6" stroke="none" stroke-width="0" stroke-linecap="butt" stroke-linejoin="miter"/><path d="M239.38068,178.24536l0.14945,-0.35964c0,0 0.66594,-0.17236 0.7437,-0.17121c0.13624,0.04073 0.38263,0.39088 0.5711,0.71582c0.15474,0.26678 0.50438,1.04507 0.50438,1.04507c0,0 -0.17502,-0.10096 -0.35877,-0.18425c-0.26577,-0.12047 -0.54159,-0.21734 -0.75052,-0.35825c-0.36744,-0.26145 -0.25313,-0.88534 -0.25313,-0.88534z" data-paper-data="{&quot;index&quot;:null}" fill="#fd4275" stroke="none" stroke-width="0" stroke-linecap="butt" stroke-linejoin="miter"/><path d="M241.18678,180.97895c0,0 0.19073,-0.96054 -0.01166,-1.40701c-0.13718,-0.30264 -1.35445,-0.71614 -1.35445,-0.71614l0.11903,-0.15562c0,0 1.23583,0.52333 1.35746,0.80181c0.23037,0.5274 0.03472,1.4496 0.03472,1.4496z" data-paper-data="{&quot;index&quot;:null}" fill="#fed000" stroke="none" stroke-width="0" stroke-linecap="butt" stroke-linejoin="miter"/><path d="M239.88468,178.73262l0.04885,-0.58051l-0.71097,0.2469l0.12959,-0.45478l0.18916,-0.02312l-0.12771,0.26989l0.63665,-0.19946l0.00793,0.65241l1.10957,0.54786c0,0 0.11474,0.10954 0.13175,0.17049c0.01701,0.06095 0.03707,0.28654 0.03707,0.28654c0,0 -0.06716,-0.15271 -0.19892,-0.28c-0.12868,-0.1243 -0.32079,-0.22261 -0.4245,-0.27531c-0.24461,-0.12429 -0.82849,-0.36092 -0.82849,-0.36092z" data-paper-data="{&quot;index&quot;:null}" fill="#fff9f9" stroke="none" stroke-width="0" stroke-linecap="butt" stroke-linejoin="miter"/><path d="M240.99786,178.06436l-0.50561,-0.16157c0,0 -0.05969,-0.06867 -0.102,-0.10412c-0.04229,-0.03544 -0.09481,-0.0879 -0.09481,-0.0879c0,0 0.35846,-0.12909 0.5381,-0.19936c0.18238,-0.07133 0.54809,-0.22551 0.54809,-0.22551z" data-paper-data="{&quot;index&quot;:null}" fill="#fff9f9" stroke="none" stroke-width="0" stroke-linecap="butt" stroke-linejoin="miter"/><path d="M240.88921,177.83012l-0.49562,-0.15837l0.71705,-0.2728z" data-paper-data="{&quot;index&quot;:null}" fill="#fd4275" stroke="none" stroke-width="0" stroke-linecap="butt" stroke-linejoin="miter"/><path d="M241.95259,177.27631c0,0 0.43768,0.19661 0.33675,0.63614c-0.06253,0.24413 -0.14205,0.69351 -0.26067,0.96011c-0.082,0.18433 -0.14573,0.37605 -0.14573,0.37605c0,0 -0.25577,-0.814 -0.31736,-1.11619c-0.07501,-0.36808 -0.22347,-0.74143 -0.14872,-0.86237c0.05735,-0.05251 0.42433,-0.27237 0.42433,-0.27237l0.64884,-0.02312z" data-paper-data="{&quot;index&quot;:null}" fill="#fd4275" stroke="none" stroke-width="0" stroke-linecap="butt" stroke-linejoin="miter"/><path d="M242.85859,180.34724c0,0 -0.75891,-0.55928 -0.93712,-1.1065c-0.0941,-0.28897 0.48187,-1.50115 0.48187,-1.50115l0.05049,0.04662c0,0 -0.4932,1.10838 -0.39468,1.42572c0.14535,0.46814 0.92608,1.05935 0.92608,1.05935z" data-paper-data="{&quot;index&quot;:null}" fill="#fed000" stroke="none" stroke-width="0" stroke-linecap="butt" stroke-linejoin="miter"/><path d="M242.466,177.72728c0,0 -0.27918,0.56479 -0.37943,0.82019c-0.04249,0.10828 -0.12076,0.30939 -0.13435,0.48779c-0.01391,0.18267 0.03734,0.34143 0.03734,0.34143c0,0 -0.13488,-0.18194 -0.16268,-0.2388c-0.0278,-0.05684 -0.0148,-0.21496 -0.0148,-0.21496l0.46532,-1.14663l-0.42752,-0.4929l0.60836,-0.2739l-0.67714,0.0217l0.35442,-0.25945l0.6213,0.152l-0.71301,0.40212l0.42219,0.40142z" data-paper-data="{&quot;index&quot;:null}" fill="#fff9f9" stroke="none" stroke-width="0" stroke-linecap="butt" stroke-linejoin="miter"/><g stroke="none" stroke-linecap="butt" stroke-linejoin="miter"><path d="M243.71778,183.27606c0,0 1.27448,0.7638 1.96129,1.32591c0.10942,0.08956 0.36724,1.15583 0.41128,1.64851c0.02405,0.26909 0.07211,0.77017 -0.32988,0.98101c-0.10249,0.05374 -0.66663,0.04066 -0.66663,0.04066l-0.18485,0.39665c0,0 -0.23114,0.12049 -0.38872,0.11167c-0.15758,-0.00882 -0.42214,-0.13702 -0.42214,-0.13702c0,0 -0.155,0.08979 -0.25076,0.17522c-0.31253,0.27883 -0.5986,0.0097 -0.5986,0.0097c0,0 -0.20356,0.22824 -0.41945,0.27827c-0.34225,0.07927 -0.78137,-0.02062 -0.9891,-0.14927c-0.3529,-0.2185 -1.16524,-1.04244 -1.0405,-1.40828c0.19428,-0.56981 0.86338,-0.2502 0.86338,-0.2502c0,0 -0.35411,-0.51915 -0.37698,-0.89883c-0.03524,-0.58464 0.1857,-0.89326 0.1857,-0.89326l2.24595,-1.23075z" data-paper-data="{&quot;index&quot;:null}" fill="#f44a7d" stroke-width="0"/><g data-paper-data="{&quot;index&quot;:null}"><path d="M241.3373,180.74299c0.6746,1.11549 1.30816,2.08923 1.30816,2.08923c0,0 -0.32389,0.43659 -0.64334,0.49367c-0.31947,0.05707 -0.41322,0.1166 -0.41322,0.1166c0,0 -0.99819,-1.79485 -1.27034,-2.24487c-0.4464,-0.73818 0.5469,-1.23485 1.01873,-0.45463z" data-paper-data="{&quot;index&quot;:null}" fill="#4c2b5c" stroke-width="0"/><g data-paper-data="{&quot;index&quot;:null}" fill="none" stroke-width="1" font-family="sans-serif" font-weight="normal" font-size="12" text-anchor="start"/></g><path d="M241.06481,184.23376c-0.48089,-0.94994 0.10567,-1.3848 0.88295,-1.76281c0.7773,-0.37802 1.46624,-0.56348 1.93183,0.39389c0.46561,0.95737 -0.10567,1.38481 -0.88296,1.76281c-0.7773,0.37802 -1.45106,0.55583 -1.93183,-0.39389z" data-paper-data="{&quot;index&quot;:null}" fill="#fed000" stroke-width="0"/><path d="M240.6385,184.44105c-0.39983,-0.77159 0.39302,-1.27924 1.40574,-1.77177c1.01275,-0.49252 1.88174,-0.79306 2.26169,-0.0118c0.37994,0.78126 -0.39302,1.27924 -1.40574,1.77177c-1.01275,0.49252 -1.86193,0.78319 -2.26169,0.0118z" data-paper-data="{&quot;index&quot;:null}" fill="#e68b9c" stroke-width="0"/><path d="M242.78945,186.81364l0.16738,-0.48433l0.48433,0.16737l-0.16738,0.48434z" data-paper-data="{&quot;index&quot;:null}" fill="#baba3e" stroke-width="NaN"/><path d="M243.70999,186.46954l0.16738,-0.48433l0.48433,0.16737l-0.16737,0.48434z" data-paper-data="{&quot;index&quot;:null}" fill="#baba3e" stroke-width="NaN"/><path d="M244.7143,186.08472l0.16737,-0.48434l0.48433,0.16738l-0.16737,0.48433z" data-paper-data="{&quot;index&quot;:null}" fill="#baba3e" stroke-width="NaN"/><path d="M246.00492,186.00097l-0.19593,-0.31531l0.02879,-0.38043l0.55702,0.24275z" data-paper-data="{&quot;index&quot;:null}" fill="#baba3e" stroke-width="0"/></g><path d="M241.13508,180.6083c0,0 -0.67929,0.82075 -0.81652,0.64069c-0.4464,-0.73818 -0.96721,-2.07449 -0.96721,-2.07449c0,0 -0.13886,-0.67392 0.15294,-0.79052c0.2918,-0.1166 0.50166,0.16968 0.70538,0.44754c0.20372,0.27787 0.92541,1.77678 0.92541,1.77678z" data-paper-data="{&quot;index&quot;:null}" fill="#edbb82" stroke="none" stroke-width="0" stroke-linecap="butt" stroke-linejoin="miter"/><path d="M237.74796,172.40039c0,0 -1.33886,0.04499 -1.85911,0.90016c-0.8409,1.38226 0.75124,2.68295 0.75124,2.68295c0,0 -1.17448,-0.76082 -1.16053,-1.80064c0.0092,-0.68644 0.1166,-1.04097 0.70294,-1.44079c0.65702,-0.44801 1.56545,-0.3417 1.56545,-0.3417z" data-paper-data="{&quot;index&quot;:null}" fill="#000000" stroke="none" stroke-width="0" stroke-linecap="butt" stroke-linejoin="miter"/><path d="M233.70615,169.39152c2.52499,-2.18356 6.0985,-2.18834 7.98166,-0.01072c1.88317,2.17763 1.36286,5.71306 -1.16213,7.89661c-2.52499,2.18355 -6.09849,2.18834 -7.98165,0.01072c-1.88317,-2.17763 -1.36288,-5.71307 1.16211,-7.89661z" data-paper-data="{&quot;index&quot;:null}" fill="#f79eb4" stroke="none" stroke-width="0" stroke-linecap="butt" stroke-linejoin="miter"/><path d="M242.67858,170.8319c-0.00579,-0.01629 0.71047,0.76635 1.01846,2.27678c0.50319,2.43283 -0.57837,3.44444 -0.57837,3.44444l-0.38223,-0.87407c0,0 0.04616,-2.3195 -0.06966,-3.0753c-0.11583,-0.75578 -0.73043,-1.76849 -0.73011,-1.76783" data-paper-data="{&quot;index&quot;:null}" fill="#f79eb4" stroke="#f89db5" stroke-width="0" stroke-linecap="butt" stroke-linejoin="round"/><g fill="none" stroke="#e569c4" stroke-width="0.5" stroke-linecap="round" stroke-linejoin="miter"><path d="M243.02346,172.57306l-3.03877,-0.25095"/><path d="M241.28061,173.95567l0.44693,-3.01618" data-paper-data="{&quot;index&quot;:null}"/></g><g data-paper-data="{&quot;index&quot;:null}" fill="#ffd5c5" stroke="none" stroke-width="1" stroke-linecap="round" stroke-linejoin="round"><path d="M242.80569,173.25109c0.43874,0.32743 0.39406,0.97483 0.29623,1.46641c-0.01602,0.08042 -0.14311,0.7088 -0.59106,1.46512c-0.56209,0.949 -1.73598,1.70228 -2.06657,1.92626c-0.39429,0.26706 -1.37638,0.41822 -1.57105,0.39689c-1.40109,-0.15352 -1.18418,-1.001 -1.15888,-1.12663c0.01209,-0.0599 0.15066,-0.31328 0.46225,-0.43954c0.30371,-0.12306 1.25238,-0.32317 1.46513,-0.52361c0.22858,-0.21535 1.16254,-1.80336 1.8496,-2.39594c0.14409,-0.12165 0.37305,-0.23636 0.56537,-0.24582c0.25033,-0.01226 0.66732,0.01821 0.70106,-0.34886c0.00543,-0.05942 0.00003,-0.20995 0.04788,-0.17429z"/><path d=""/></g><g data-paper-data="{&quot;index&quot;:null}" fill="#000000" stroke="none" stroke-width="1" stroke-linecap="round" stroke-linejoin="round"><path d="M241.55699,174.34825c0.0422,-0.17934 0.48064,-0.48113 0.59342,-0.49021c0.19509,-0.01571 0.07025,0.41848 -0.01772,0.48484c-0.2041,0.12951 -0.63121,0.24134 -0.57569,0.00537z"/><path d=""/></g><path d="M236.03751,175.5532c-0.0192,-0.05348 1.16454,1.49916 1.7569,2.15092c1.11553,1.22733 2.07785,1.75465 2.07785,1.75465c0,0 -0.42393,0.0567 -0.53553,0.05868c-0.34475,0.00616 -0.66462,-0.0065 -1.0083,-0.05963c-0.80834,-0.12501 -1.56744,-0.4559 -2.24826,-0.90427c-0.45373,-0.29881 -2.07227,-1.9258 -2.064,-1.95113" data-paper-data="{&quot;index&quot;:null}" fill="#f79eb4" stroke="#f89db5" stroke-width="0" stroke-linecap="butt" stroke-linejoin="round"/><path d="M233.92403,176.64048c-0.00149,0.02065 2.05366,1.94627 2.67348,2.4391c0.61981,0.49283 1.72921,1.0615 1.72921,1.0615c0,0 -0.3526,0.22103 -1.19043,0.11131c-0.73981,-0.0969 -1.13566,-0.12785 -2.03582,-0.73383c-1.16806,-0.78634 -2.46655,-2.13087 -2.56574,-2.52033" data-paper-data="{&quot;index&quot;:null}" fill="#f79eb4" stroke="#f89db5" stroke-width="0" stroke-linecap="butt" stroke-linejoin="round"/><g data-paper-data="{&quot;index&quot;:null}" fill="#ff4488" stroke="none" stroke-width="1" stroke-linecap="round" stroke-linejoin="round"><path d="M238.18873,168.81294c-0.10208,0.01435 -2.68125,0.40592 -3.70013,1.65082c-0.80307,0.98118 -0.9627,1.80441 -1.23988,3.22395c-0.21378,1.09476 0.40186,2.63702 0.38207,2.66596c-0.00142,0.00207 -2.43142,-3.32189 -0.26027,-5.99922c1.77728,-2.14214 4.61929,-2.23385 4.7661,-2.20481"/><path d=""/></g><g data-paper-data="{&quot;index&quot;:null}" stroke="none" stroke-width="1" stroke-linecap="round" stroke-linejoin="round"><g fill="#f79eb4"><path d="M233.40066,174.22601c-0.25173,-0.25669 -0.782,-0.61667 -1.22638,-1.12651c-0.44437,-0.50985 -0.96807,-1.20387 -0.98952,-1.41584c-0.02805,-0.27711 0.69656,-0.61198 1.53057,-0.8439c0.83402,-0.23191 2.07144,-0.28082 2.20454,-0.19475"/></g><g fill="#ffd5c5"><path d="M233.54894,173.52999c-0.06348,-0.05731 -0.40836,-0.27899 -0.7468,-0.64773c-0.33844,-0.36874 -0.77922,-0.98419 -0.78088,-1.01677c-0.00674,-0.13207 0.82719,-0.47682 1.28418,-0.59604c0.457,-0.11922 1.02584,-0.10985 1.20627,-0.05363"/></g></g><g data-paper-data="{&quot;index&quot;:null}" stroke="none" stroke-width="0" stroke-linecap="butt" stroke-linejoin="miter"><g data-paper-data="{&quot;index&quot;:null}"><path d="M241.46494,164.31778c0,0 0.23058,0.39726 0.40735,1.52439c0.35241,2.24717 -0.67423,2.9296 -0.67423,2.9296c0,0 -0.78891,-0.42339 -0.84011,-1.53567c-0.05246,-1.13971 1.10697,-2.91833 1.10697,-2.91833z" data-paper-data="{&quot;index&quot;:null}" fill="#ce204f"/><path d="M240.63914,166.1528c-0.43917,1.053 0.51032,2.57901 0.51032,2.57901c0,0 -1.86521,-0.37314 -1.03339,-2.49021c0.41723,-1.06188 1.37454,-1.94636 1.37454,-1.94636c0,0 -0.4123,0.80457 -0.85148,1.85756z" fill="#ff4488"/></g><g data-paper-data="{&quot;index&quot;:null}"><path d="M241.31471,168.82631c0,0 0.43462,-0.96925 0.93667,-1.38716c0.99379,-0.82724 2.63441,-0.55117 2.63441,-0.55117c0,0 -0.89959,0.995 -1.49247,1.61579c-0.80908,0.84715 -2.07862,0.32253 -2.07862,0.32253z" fill="#f5e4ec"/><path d="M242.36199,167.52148c0.82816,-0.68938 2.19535,-0.45933 2.19535,-0.45933c0,0 -0.74965,0.82918 -1.24371,1.3465c-0.67425,0.70597 -1.73218,0.26878 -1.73218,0.26878c0,0 0.36218,-0.8077 0.78055,-1.15595z" fill="#e2c1c1"/></g></g><g data-paper-data="{&quot;index&quot;:null}" fill="#f79eb4" stroke="none" stroke-width="1" stroke-linecap="round" stroke-linejoin="round"><path d="M237.19588,167.96754c0.16532,-0.25982 0.35648,-0.51729 0.82935,-0.98602c0.47286,-0.46873 1.05415,-1.05949 1.2862,-1.1111c0.04754,-0.01056 0.55745,0.40041 0.82064,0.8367c0.41086,0.68101 0.60427,1.60926 0.60622,1.62454"/><path d=""/></g><path d="M233.98013,176.39509c0,0 -0.29274,0.20496 -0.36882,0.18552c-0.08425,-0.02153 -0.29612,-0.40939 -0.27193,-0.57943c0.02421,-0.17004 0.34211,-0.27687 0.34211,-0.27687z" data-paper-data="{&quot;index&quot;:null}" fill-opacity="0.01176" fill="#f7bf74" stroke="none" stroke-width="0" stroke-linecap="butt" stroke-linejoin="miter"/><path d="M236.96606,177.97004c0.5003,-0.23959 0.89958,-0.41114 0.94197,-0.32262c0.03252,0.06791 -0.24752,0.37594 -0.49581,0.50299c-0.88596,0.45336 -1.77397,0.37847 -2.23685,0.16616c-0.393,-0.18026 -0.61924,-0.314 -0.47761,-0.46809c0.10708,-0.11648 0.33379,-0.14143 0.81208,0.27729c0.38779,0.33948 1.17055,-0.01892 1.45623,-0.15573z" data-paper-data="{&quot;index&quot;:null}" fill-opacity="0.01176" fill="#212121" stroke="none" stroke-width="0" stroke-linecap="butt" stroke-linejoin="miter"/><path d="M236.52266,178.43938l-0.10012,-0.20905l0.08362,-0.04005l0.10012,0.20905z" data-paper-data="{&quot;index&quot;:null}" fill-opacity="0.01176" fill="#b3916f" stroke="none" stroke-width="0" stroke-linecap="butt" stroke-linejoin="miter"/><path d="M235.09427,178.10406c0.09435,0.05607 0.27619,0.21895 0.27619,0.21895c0,0 -0.29216,0.00088 -0.41006,-0.06918c-0.1179,-0.07006 -0.1162,-0.27843 -0.1162,-0.27843c0,0 0.15572,0.07259 0.25008,0.12866z" data-paper-data="{&quot;index&quot;:null}" fill-opacity="0.01176" fill="#cc7889" stroke="none" stroke-width="0" stroke-linecap="butt" stroke-linejoin="miter"/><g data-paper-data="{&quot;index&quot;:null}" stroke="none" stroke-width="0" stroke-linecap="butt" stroke-linejoin="miter"><g data-paper-data="{&quot;index&quot;:null}"><path d="M228.53012,174.65901c0,0 1.91719,-0.91217 3.03977,-0.70836c1.09554,0.19891 1.41007,1.03718 1.41007,1.03718c0,0 -0.8131,0.92659 -2.9933,0.27798c-1.09353,-0.32534 -1.45654,-0.60678 -1.45654,-0.60678z" data-paper-data="{&quot;index&quot;:null}" fill-opacity="0.01176" fill="#cf214f"/><path d="M228.50435,174.68147c0,0 1.00412,-0.83096 2.11212,-1.10301c2.209,-0.54239 2.33035,1.35589 2.33035,1.35589c0,0 -1.38593,-1.14432 -2.48804,-0.84932c-1.10211,0.295 -1.95443,0.59644 -1.95443,0.59644z" fill-opacity="0.01176" fill="#ff4589"/></g><g data-paper-data="{&quot;index&quot;:null}"><path d="M233.01846,175.1107c0,0 0.35082,1.32811 -0.59655,2.01714c-0.69424,0.50489 -1.8002,1.26393 -1.8002,1.26393c0,0 -0.05506,-1.66277 0.89719,-2.53751c0.48108,-0.44189 1.49958,-0.74354 1.49958,-0.74354z" fill-opacity="0.01176" fill="#f5e4ec"/><path d="M231.5858,175.97483c0.40088,-0.36825 1.24963,-0.61961 1.24963,-0.61961c0,0 0.29237,1.10675 -0.49712,1.68094c-0.57853,0.42075 -1.50018,1.05327 -1.50018,1.05327c0,0 -0.04589,-1.38565 0.74766,-2.1146z" fill-opacity="0.01176" fill="#e3c1c1"/></g></g><path d="M239.47737,169.98196c0.00386,0.02899 -0.14431,-1.30407 1.15816,-2.59636c0.23367,-0.22935 1.65903,-0.36897 2.4339,-0.20497c0.74735,0.07956 1.66157,0.8911 1.65171,0.90404c-0.01421,0.01852 -1.90792,-0.17343 -2.78803,0.50634c-0.48056,0.37116 -1.37985,1.78015 -1.37478,1.8183" data-paper-data="{&quot;index&quot;:null}" fill="#f79eb4" stroke="#f89db5" stroke-width="0" stroke-linecap="butt" stroke-linejoin="round"/><path d="M239.06698,170.7244c-0.06611,-0.05114 -1.00394,-1.55058 -1.07304,-1.92247c-0.06911,-0.3719 -0.16462,-0.56201 0.12436,-1.09393c1.15301,-1.70616 3.10058,-2.27297 3.10058,-2.27297c0,0 -1.00903,1.23229 -1.27978,1.94393c-0.37561,0.98733 -0.47211,2.46474 -0.45524,2.59697" data-paper-data="{&quot;index&quot;:null}" fill="#f79eb4" stroke="#f89db5" stroke-width="0" stroke-linecap="butt" stroke-linejoin="round"/><path d="M240.60197,170.51007c-0.04661,0.01913 0.23279,-1.0909 1.10703,-1.56368c0.25114,-0.13582 1.71443,0.16064 1.83346,0.25359c0.53326,0.29713 1.53611,1.62303 1.53597,1.62106c-0.0029,-0.04265 -1.17609,-0.38414 -2.24841,-0.27138c-0.36041,0.04001 -1.29838,0.38711 -1.43037,0.44119" data-paper-data="{&quot;index&quot;:null}" fill="#f79eb4" stroke="#f89db5" stroke-width="0" stroke-linecap="butt" stroke-linejoin="round"/><g fill="none" stroke="#e569c4" stroke-width="0.5" stroke-linecap="round" stroke-linejoin="miter"><path d="M239.9244,175.27418l-3.03876,-0.25095"/><path d="M238.62849,173.64063l-0.44693,3.01618" data-paper-data="{&quot;index&quot;:null}"/></g><path d="M236.97037,177.57188c-0.4046,0.17937 -1.17539,0.2098 -1.17539,0.2098c0,0 0.70913,-0.19914 1.10583,-0.44101c0.39669,-0.24187 0.67084,-0.64812 0.67084,-0.64812l0.14667,0.32969c0,0 -0.34335,0.37026 -0.74795,0.54964z" fill="#000000" stroke="none" stroke-width="0" stroke-linecap="butt" stroke-linejoin="miter"/><path d="M237.32443,178.12641c-0.29113,0.33334 -1.06818,0.81262 -1.06818,0.81262c0,0 0.77516,-0.58008 1.03276,-0.96674c0.2576,-0.38666 0.36426,-1.08945 0.36426,-1.08945l0.2564,0.23797c0,0 -0.29411,0.67225 -0.58525,1.0056z" fill="#000000" stroke="none" stroke-width="0" stroke-linecap="butt" stroke-linejoin="miter"/><path d="M242.76191,173.12503l-0.28133,-0.22597c0,0 0.46277,-0.16136 0.79789,-0.48317c0.33512,-0.32181 0.70869,-0.95661 0.70869,-0.95661c0,0 -0.22618,0.73749 -0.50289,1.08289c-0.27672,0.3454 -0.72236,0.58286 -0.72236,0.58286z" data-paper-data="{&quot;index&quot;:null}" fill="#000000" stroke="none" stroke-width="0" stroke-linecap="butt" stroke-linejoin="miter"/><path d="M243.93006,173.02604c-0.39662,0.1964 -1.12168,0.30916 -1.12168,0.30916l-0.16463,-0.30865c0,0 0.70673,0.07627 1.14634,-0.07409c0.43961,-0.15036 1.19834,-0.75176 1.19834,-0.75176c0,0 -0.66176,0.62896 -1.05837,0.82535z" data-paper-data="{&quot;index&quot;:null}" fill="#000000" stroke="none" stroke-width="0" stroke-linecap="butt" stroke-linejoin="miter"/></g></g></svg>