<svg version="1.1" xmlns="http://www.w3.org/2000/svg" xmlns:xlink="http://www.w3.org/1999/xlink" width="15.60073" height="22.46409" viewBox="0,0,15.60073,22.46409"><g transform="translate(-232.99432,-169.75415)"><g data-paper-data="{&quot;isPaintingLayer&quot;:true}" fill-rule="nonzero" stroke-width="0" stroke-linecap="butt" stroke-linejoin="miter" stroke-miterlimit="10" stroke-dasharray="" stroke-dashoffset="0" style="mix-blend-mode: normal"><g data-paper-data="{&quot;index&quot;:null}" stroke="none"><path d="M241.93903,173.1872l0.72305,-3.07697c0,0 2.11252,1.48435 3.01296,2.16723c0.70765,0.53669 2.0117,1.59724 2.0117,1.59724l-0.46329,0.08783c0,0 -0.11095,0.65809 -0.2813,1.21462c-0.14323,0.46798 -0.34467,0.83462 -0.39711,0.96957c-0.33207,0.85442 -1.12517,1.41887 -1.12517,1.41887l0.03951,-0.50684c0,0 -1.01327,-1.26243 -1.52639,-1.92937c-1.27154,-1.65275 -1.99397,-1.94215 -1.99397,-1.94215z" fill="#fedeb5"/><path d="M244.42882,181.19141c-0.24789,-0.70684 -0.00989,-1.908 0.50948,-2.89359c0.50127,-0.95125 1.10821,-1.29609 1.40339,-1.78398c0.74544,-1.23209 0.9341,-2.99003 0.9341,-2.99003c0,0 0.184,0.19102 0.39135,0.32823c0.29721,0.19667 0.61328,0.63328 0.76014,0.97714c0.6418,1.50277 -0.76715,5.51812 -0.73044,6.67898c-0.03871,0.44732 1.22815,2.60299 0.60997,2.87335c-1.2682,0.55465 -3.43801,-1.93552 -3.87799,-3.1901z" data-paper-data="{&quot;index&quot;:null}" fill="#ea750b"/><path d="M242.18166,172.48725l0.47359,-1.32247c0,0 0.93633,0.73286 1.42969,1.22492c0.571,0.56951 1.46162,1.77716 1.46162,1.77716c0,0 0.07606,0.62855 0.06836,1.01738c-0.00771,0.38882 -0.08147,1.18987 -0.08147,1.18987c0,0 -0.68394,-1.11457 -1.56239,-2.11389c-0.80952,-0.92092 -1.78938,-1.77296 -1.78938,-1.77296z" data-paper-data="{&quot;index&quot;:null}" fill="#ebc0cd"/><path d="M245.40582,177.54892c0,0 0.22675,-0.89646 0.12126,-3.19935c-0.02738,-0.59766 -0.48698,-1.54107 -0.48698,-1.54107c0,0 0.37614,0.41313 0.61895,1.56508c0.25385,1.20419 -0.25324,3.17536 -0.25324,3.17536z" fill="#000000"/></g><g data-paper-data="{&quot;index&quot;:null}" stroke="none"><path d="M235.92321,183.79226c-0.45998,-0.08321 -0.43668,-1.27175 -0.7179,-2.40366c-0.12218,-0.49175 -2.38658,-3.14569 -2.20007,-5.23937c0.09999,-1.12252 0.88107,-1.98737 0.88107,-1.98737c0,0 1.5935,2.66641 2.2961,3.71836c0.63726,0.95413 0.93932,1.5195 0.80589,2.83775c-0.13343,1.31826 -0.60509,3.15751 -1.06506,3.0743z" fill="#ea750b"/><path d="M235.69862,177.12992c0,0 -1.326,-0.84069 -1.57116,-1.42806c-0.29098,-0.69712 -0.25013,-1.51202 -0.25013,-1.51202c0,0 0.30242,-0.49857 1.12254,-1.36104c0.6002,-0.6312 1.0846,-1.17553 1.0846,-1.17553l0.87726,2.20489c0,0 -0.61502,0.97311 -0.88471,1.46655c-0.22734,0.41593 -0.62818,1.30145 -0.62818,1.30145z" fill="#fedeb5"/><path d="M234.43218,174.70865c-0.14001,-0.38921 0.1932,-0.67433 0.1932,-0.67433c0,0 -0.31089,0.26448 -0.04159,0.95081c0.27441,0.69935 0.89365,1.69391 0.89365,1.69391c0,0 -0.48075,-0.52717 -1.04528,-1.97038z" fill="#000000"/><path d="M235.13637,176.10556c0,0 -0.25726,-0.45459 -0.35692,-0.67499c-0.07921,-0.17515 -0.21665,-0.49718 -0.21665,-0.49718c0,0 0.44233,-0.66471 0.91907,-1.21412c0.43744,-0.50414 0.91058,-0.98408 0.91058,-0.98408l0.27906,0.75163c0,0 -0.51855,0.66097 -0.86987,1.34764c-0.3286,0.64223 -0.66527,1.27112 -0.66527,1.27112z" fill="#ebc0cd"/></g><path d="M242.4768,187.74517c-0.0387,0.05289 -0.34258,0.15036 -0.51041,0.36899c-0.17593,0.22919 -0.10042,0.41371 -0.16413,0.65614c-0.05903,0.22463 -1.5223,2.76965 -2.32231,3.1491c-0.21832,0.10355 -0.48766,0.27193 -0.56901,0.27839c-0.87356,0.0692 -2.30321,-0.5995 -2.68605,-1.21875c-0.44433,-0.71871 -0.13436,-1.07419 -0.13436,-1.07419c0,0 1.9879,1.88628 3.20153,1.31558c1.22637,-0.57669 3.38509,-4.97566 3.38509,-4.97566c0,0 0.5666,0.45186 -0.20037,1.5004z" data-paper-data="{&quot;index&quot;:null}" fill="#686868" stroke="none"/><path d="M236.61032,188.21637c0.22345,-0.17495 0.13313,-0.15875 0.60342,-0.32853c0.52591,-0.18987 2.47312,-0.23601 3.19182,-0.80241c1.06825,-0.8419 0.86009,-2.24751 0.86009,-2.24751c0,0 0.46624,-0.01206 0.93537,0.49018c0.37882,0.40556 0.50849,0.93002 0.50849,0.93002c0,0 -1.94219,4.07843 -3.35578,4.96338c-1.00245,0.62755 -2.99534,-0.77604 -3.23466,-1.25295c-0.23932,-0.47691 0.02485,-1.09343 0.49127,-1.75215z" data-paper-data="{&quot;index&quot;:null}" fill="#ef4019" stroke="none"/><path d="M237.18514,187.90784c0,0 0.60195,-0.30661 0.78982,-0.46198c0.17519,-0.14491 0.30202,-0.4411 0.30202,-0.4411c0,0 1.23379,-0.07471 1.74524,-0.27372c0.49476,-0.19252 1.27503,-0.90147 1.27503,-0.90147c0,0 0.57032,0.47311 0.6701,0.63747c0.1873,0.30855 -1.41456,2.99296 -2.11733,3.49546c-0.29909,0.21385 -0.38627,-0.3215 -0.47411,-0.6631c-0.08483,-0.32988 -0.36296,-0.62814 -0.49654,-0.7092c-0.66977,-0.40646 -1.69422,-0.68235 -1.69422,-0.68235z" data-paper-data="{&quot;index&quot;:null}" fill="#ffc500" stroke="none"/><path d="M240.61221,186.91621c-0.54567,0.55035 -1.22625,0.36665 -1.65414,-0.14667c-0.55858,-0.67015 -0.87382,-1.071 -0.18679,-1.54007c0.13031,-0.08898 1.54685,-1.87198 2.49809,-0.36563c0.10765,0.17047 0.27615,1.11105 -0.65717,2.05238z" data-paper-data="{&quot;index&quot;:null}" fill="#ffffff" stroke="none"/><path d="M240.07934,184.737c0,0 0.2273,0.06109 0.37713,0.23477c0.19783,0.22931 0.28032,0.64471 -0.16001,0.98187c-0.82213,0.62952 -1.49346,-0.5578 -1.52602,-0.75091c-0.17903,-1.06156 0.69,-2.52077 0.69,-2.52077l1.12783,0.40652c0,0 -0.18919,0.55089 -0.26622,0.84552c-0.07232,0.27662 -0.24271,0.80299 -0.24271,0.80299z" data-paper-data="{&quot;index&quot;:null}" fill="#fedeb5" stroke="none"/><path d="M238.9069,186.4693c0.35077,0.21724 1.26122,0.20817 1.33251,0.34097c0.02981,0.05552 0.09915,0.27425 0.19557,0.34169c0.18332,0.12822 0.42791,0.09937 0.42791,0.09937c0,0 -0.75202,0.39267 -1.20794,0.35836c-0.866,-0.06516 -1.37445,-0.63331 -1.37445,-0.63331c0,0 -0.41072,-0.96414 -0.18019,-1.43521c0.11546,-0.23593 0.38746,-0.0451 0.38746,-0.0451c0,0 -0.00952,0.70776 0.41914,0.97324z" data-paper-data="{&quot;index&quot;:null}" fill="#ffc500" stroke="none"/><path d="M238.81822,180.45884c-0.03523,0.21774 -0.0286,0.69006 -0.06252,1.26257c-0.03392,0.57251 -0.12798,1.68725 -0.12798,1.68725c0,0 -0.48445,0.60339 -0.99199,-0.44243c-0.17547,-0.36154 0.13977,-2.57801 0.15523,-2.67358c0.09885,-0.61098 0.3034,-1.11493 0.6926,-1.02319c0.42667,0.10057 0.43351,0.57839 0.33466,1.18938z" data-paper-data="{&quot;index&quot;:null}" fill="#fde1c0" stroke="none"/><path d="M236.90193,183.85488c-0.19298,-0.17816 -0.11233,-0.39823 -0.06239,-0.60392c0.04993,-0.20569 0.29396,-0.60115 0.29396,-0.60115c0,0 0.5378,-0.19977 0.95255,0.0179c0.601,0.31541 1.00523,0.90211 1.00523,0.90211c0,0 0.08651,0.55915 -0.25623,0.77195c-0.21577,0.13397 -1.36014,0.04205 -1.93312,-0.48688z" data-paper-data="{&quot;index&quot;:null}" fill="#fefefe" stroke="none"/><g data-paper-data="{&quot;index&quot;:null}" stroke="none"><path d="M237.26668,183.68414c0.08774,-0.25194 0.88274,0.26023 1.28782,0.40132c0.40508,0.14108 0.62619,0.21504 0.55647,0.41518c-0.08172,0.23467 -0.58444,0.17358 -0.99777,0.05888c-0.82005,-0.22755 -0.91624,-0.67522 -0.84654,-0.87538z" fill="#000000"/><path d="M238.27247,186.047c0,0 -0.35162,0.16461 -0.61638,0.07508c-0.39024,-0.13193 -0.37072,-0.38017 -0.37072,-0.38017c0,0 -0.29931,0.12846 -0.59841,-0.00653c-0.2311,-0.10431 -0.33519,-0.37949 -0.33519,-0.37949c0,0 -1.31722,-0.00637 -1.0146,-0.87139c0.24595,-0.70302 0.85019,-1.16322 1.00252,-1.27802c0.15233,-0.1148 0.3583,-0.039 0.52041,0.06032c0.16211,0.09931 0.25527,0.41491 0.25527,0.41491c0,0 0.3279,0.05282 0.48617,0.15471c0.15826,0.10189 0.31778,0.36283 0.31778,0.36283c0,0 0.29583,-0.07624 0.42259,-0.04917c0.12676,0.02706 0.26769,0.19658 0.26769,0.19658c0,0 0.21566,-0.19672 0.37854,-0.20626c0.16286,-0.00954 0.38561,0.16149 0.38561,0.16149c0,0 0.16521,0.70711 -0.20753,1.48567c-0.32769,0.68445 -0.89372,0.25945 -0.89372,0.25945z" fill="#fefefe"/><path d="M236.27328,183.20271c0.08774,-0.25194 0.72919,-0.03631 1.13428,0.10477c0.40508,0.14108 0.77973,0.51156 0.71003,0.71172c-0.08172,0.23467 -0.58444,0.17358 -0.99777,0.05888c-0.82005,-0.22755 -0.91624,-0.67522 -0.84654,-0.87537z" fill="#fefefe"/></g><path d="M245.7739,186.55033c-0.01708,0.06328 -0.26555,0.26354 -0.34349,0.52791c-0.0817,0.27714 0.05513,0.42214 0.08291,0.67125c0.02573,0.23082 -0.42397,3.13187 -1.03391,3.77372c-0.16645,0.17516 -0.35717,0.42916 -0.43076,0.46445c-0.79017,0.37883 -2.36467,0.26924 -2.94466,-0.17083c-0.67315,-0.51073 -0.51182,-0.95393 -0.51182,-0.95393c0,0 2.53341,1.04482 3.46046,0.07572c0.9368,-0.97928 1.36841,-5.86033 1.36841,-5.86033c0,0 0.69122,0.21777 0.35282,1.47201z" data-paper-data="{&quot;index&quot;:null}" fill="#686868" stroke="none"/><path d="M240.46972,189.10049c0.14555,-0.24362 0.06711,-0.19601 0.44483,-0.52361c0.42239,-0.36635 2.22263,-1.10993 2.68944,-1.89697c0.69385,-1.16984 -0.00606,-2.40646 -0.00606,-2.40646c0,0 0.43069,-0.17898 1.04909,0.12086c0.49936,0.24211 0.80902,0.68482 0.80902,0.68482c0,0 -0.34491,4.50409 -1.34549,5.83833c-0.70956,0.94618 -3.07397,0.3535 -3.46884,-0.00537c-0.39487,-0.35888 -0.37019,-1.02916 -0.17198,-1.81157z" data-paper-data="{&quot;index&quot;:null}" fill="#ef4019" stroke="none"/><path d="M240.89506,188.60582c0,0 0.45135,-0.50263 0.57074,-0.7152c0.11133,-0.19823 0.12311,-0.52021 0.12311,-0.52021c0,0 1.12431,-0.51358 1.52991,-0.88326c0.39238,-0.35761 0.86536,-1.29982 0.86536,-1.29982c0,0 0.70233,0.23626 0.85456,0.35372c0.28576,0.2205 -0.2431,3.30147 -0.71805,4.02316c-0.20213,0.30713 -0.47607,-0.16102 -0.68092,-0.44814c-0.19782,-0.27728 -0.56463,-0.45551 -0.71843,-0.48309c-0.77114,-0.13829 -1.82627,-0.02715 -1.82627,-0.02715z" data-paper-data="{&quot;index&quot;:null}" fill="#ffc500" stroke="none"/><path d="M243.73593,186.44766c-0.31114,0.7098 -1.01225,0.78327 -1.59615,0.45825c-0.76228,-0.42433 -1.20061,-0.68494 -0.72833,-1.36976c0.08958,-0.1299 0.76982,-2.30313 2.1993,-1.23986c0.16177,0.12033 0.65737,0.93732 0.12518,2.15139z" data-paper-data="{&quot;index&quot;:null}" fill="#ffffff" stroke="none"/><path d="M242.45475,184.60607c0,0 0.23407,-0.02476 0.43634,0.08337c0.26708,0.14278 0.49349,0.50069 0.20393,0.97371c-0.54062,0.88314 -1.59413,0.01682 -1.69398,-0.15164c-0.54894,-0.92607 -0.26307,-2.60023 -0.26307,-2.60023l1.19856,-0.02644c0,0 0.02167,0.58207 0.05579,0.88468c0.03204,0.28412 0.06243,0.83654 0.06243,0.83654z" data-paper-data="{&quot;index&quot;:null}" fill="#fedeb5" stroke="none"/><path d="M245.44618,181.04327c0,0 0.33838,0.84993 -0.15621,1.67636c-0.60533,1.01147 -1.78681,1.17757 -2.44162,0.32812c-0.21853,-0.2835 -0.42954,-0.95981 -0.01205,-1.50585c0.39579,-0.51768 0.70536,-0.64875 1.14085,-0.68773c0.4871,-0.04361 1.00332,0.48358 1.00332,0.48358z" data-paper-data="{&quot;index&quot;:null}" fill="#ebc19b" stroke="none"/><path d="M241.98401,186.64418c0.40545,0.07651 1.25167,-0.2595 1.36596,-0.16124c0.04779,0.04108 0.19118,0.22021 0.3054,0.24845c0.21717,0.05368 0.435,-0.06123 0.435,-0.06123c0,0 -0.56039,0.63692 -0.99813,0.76894c-0.83146,0.25075 -1.51026,-0.09643 -1.51026,-0.09643c0,0 -0.73008,-0.75183 -0.68446,-1.27429c0.02284,-0.26167 0.34529,-0.18147 0.34529,-0.18147c0,0 0.24574,0.66379 0.74121,0.75729z" data-paper-data="{&quot;index&quot;:null}" fill="#ffc500" stroke="none"/><path d="M242.06323,179.35817c1.7164,0.41853 1.31789,3.90146 1.31789,3.90146c0,0 1.19426,0.51766 0.5621,0.80529c-0.63216,0.28764 -1.4686,1.35857 -3.46695,0.82077c-0.74428,-0.18255 -1.75237,-0.66956 -2.2465,-1.87538c-0.48031,-1.1721 0.96418,-3.96771 0.96418,-3.96771c0,0 1.32912,-0.05996 2.86926,0.31559z" data-paper-data="{&quot;index&quot;:null}" fill="#ef4019" stroke="none"/><path d="M239.81662,180.72284c-0.37934,-0.03916 -0.25544,-1.34605 -0.25544,-1.34605l1.00997,0.03493c0,0 -0.16533,1.37193 -0.75452,1.3111z" data-paper-data="{&quot;index&quot;:null}" fill="#08abe8" stroke="none"/><path d="M238.38821,182.0184c0.13448,-0.7762 1.18629,-1.68874 1.18629,-1.68874l0.14569,0.33773c0,0 -0.35369,0.59482 -0.62112,1.15687c-0.24662,0.5183 -0.40549,1.00765 -0.47444,1.00135c-0.14372,-0.01312 -0.27583,-0.57968 -0.23642,-0.80719z" data-paper-data="{&quot;index&quot;:null}" fill="#08abe8" stroke="none"/><path d="M239.99175,180.68899l0.25317,-0.24724c0,0 0.48785,1.01707 0.30537,1.96806c-0.03145,0.1639 -0.24987,0.55794 -0.60315,0.59696c-0.06645,0.00734 -0.00465,-0.50219 0.01207,-1.03291c0.01967,-0.62396 0.03255,-1.28487 0.03255,-1.28487z" data-paper-data="{&quot;index&quot;:null}" fill="#08abe8" stroke="none"/><path d="M240.08411,179.62044c0,0 0.19623,-0.05558 0.50732,-0.01939c0.31108,0.0362 0.55222,0.06034 0.55222,0.06034l-0.77103,1.65466z" data-paper-data="{&quot;index&quot;:null}" fill="#ffffff" stroke="none"/><path d="M239.21231,179.24132c0,0 0.19923,0.04437 0.43548,0.18961c0.23626,0.14523 0.33377,0.21183 0.33377,0.21183l-1.14991,1.08349z" data-paper-data="{&quot;index&quot;:null}" fill="#ffffff" stroke="none"/><path d="M241.74275,180.30947c-0.08651,-0.66636 -0.06287,-1.18463 0.40354,-1.27927c0.42545,-0.08633 0.63032,0.46746 0.71683,1.1338c0.01353,0.10424 0.28034,2.52013 0.07766,2.90648c-0.58628,1.11762 -1.09149,0.4464 -1.09149,0.4464c0,0 -0.06421,-1.21283 -0.08158,-1.83524c-0.01737,-0.62241 0.00587,-1.13471 -0.02497,-1.37219z" data-paper-data="{&quot;index&quot;:null}" fill="#fde1c0" stroke="none"/><path d="M240.83335,187.33513l-0.56206,-0.57948c0,0 -0.0348,-1.53323 2.01148,-2.3637c1.32295,-0.53693 2.08088,1.19536 2.08088,1.19536c0,0 0.5019,-0.42421 0.61297,-0.0357c0.56637,1.98107 -0.43554,2.02993 -0.43554,2.02993c0,0 -0.14897,0.2469 -0.33809,0.31547c-0.18912,0.06856 -0.57813,0.01669 -0.57813,0.01669c0,0 -0.20669,0.24476 -0.42496,0.29991c-0.21827,0.05515 -0.56471,-0.04986 -0.56471,-0.04986c0,0 -0.16402,0.31965 -0.41631,0.44237c-0.75963,0.36951 -1.3855,-1.27098 -1.3855,-1.27098z" data-paper-data="{&quot;index&quot;:null}" fill="#ffffff" stroke="#000000"/><path d="M243.72497,184.51297c-0.70348,0.47098 -1.94635,0.37713 -2.15526,0.19714c-0.33182,-0.28589 -0.14502,-0.87106 -0.14502,-0.87106c0,0 0.53223,-0.5613 1.22987,-0.79854c0.48145,-0.16372 1.02468,0.14099 1.02468,0.14099c0,0 0.19524,0.46519 0.21421,0.69421c0.01899,0.22902 0.06848,0.47863 -0.16849,0.63726z" data-paper-data="{&quot;index&quot;:null}" fill="#fefefe" stroke="none"/><path d="M240.98721,186.15653c0,0 -0.03563,0.33128 -0.0706,0.54944c-0.03497,0.21816 -0.08354,0.65874 -0.08354,0.65874c0,0 -0.04337,-0.32061 -0.04175,-0.55353c0.00209,-0.30131 0.1959,-0.65466 0.1959,-0.65466z" data-paper-data="{&quot;index&quot;:null}" fill="#000000" stroke="none"/><path d="M244.282,186.77832c0,0 0.01541,-0.38779 0.02851,-0.60835c0.01309,-0.22055 0.04241,-0.58585 0.04241,-0.58585c0,0 0.036,0.2959 0.05757,0.52781c0.0279,0.30003 -0.12847,0.66638 -0.12847,0.66638z" data-paper-data="{&quot;index&quot;:null}" fill="#000000" stroke="none"/><path d="M243.12364,184.0805c-0.24795,-0.09541 -0.3474,-0.27652 -0.27302,-0.52248c0.04193,-0.13867 0.15511,-0.27463 0.40307,-0.17923c0.24795,0.09541 0.36391,0.40091 0.32608,0.54076c-0.03782,0.13985 -0.20817,0.25635 -0.45612,0.16094z" data-paper-data="{&quot;index&quot;:null}" fill="#f7e300" stroke="none"/><path d="M238.47235,179.4295c0,0 -0.6101,1.39467 -0.88027,1.39216c-0.32887,-0.00305 -0.48818,-0.55927 -0.59418,-0.82351c-0.13967,-0.34811 -0.39457,-1.1867 -0.39457,-1.1867c0,0 0.50238,0.24673 0.84032,0.37495c0.33795,0.1282 1.02872,0.24309 1.02872,0.24309z" data-paper-data="{&quot;index&quot;:null}" fill="#ebc19b" stroke="none"/><path d="M235.29382,175.63054c-0.64806,-3.53856 1.427,-5.15812 4.24456,-5.73931c3.17165,-0.65421 5.55076,1.20517 6.00307,3.86253c0.48262,2.83538 -1.38577,5.17906 -4.24456,5.73931c-2.82317,0.55327 -5.39399,-0.53686 -6.00307,-3.86253z" data-paper-data="{&quot;index&quot;:null}" fill="#fedeb5" stroke="none"/><path d="M237.71896,177.80684c0,0 -0.17713,0.08208 -0.36437,0.24811c-0.16271,0.14425 -0.22103,0.32032 -0.44578,0.38199c-0.22476,0.06167 -0.50747,-0.12045 -0.50747,-0.12045c0,0 -0.53104,-0.71693 -0.76865,-1.47023c-0.83741,-2.34142 -0.26341,-3.63298 0.20332,-3.88692c0.57803,-0.3145 0.63992,0.45296 1.21813,2.59205c0.42728,1.58069 0.66482,2.25545 0.66482,2.25545z" data-paper-data="{&quot;index&quot;:null}" fill="#ea750b" stroke="none"/><path d="M239.21564,174.36293c0.32238,-1.69274 1.4453,-2.77316 2.49505,-2.6005c1.12313,0.18474 1.98841,1.28588 1.59737,3.53383c-0.14213,0.81707 -0.83078,2.04664 -1.45739,2.45821c-1.09335,0.71815 -2.30576,0.26694 -2.30576,0.26694c0,0 -0.65165,-1.96576 -0.32928,-3.65849z" data-paper-data="{&quot;index&quot;:null}" fill="#ea750b" stroke="none"/><path d="M236.99228,178.40691c0.19142,-0.02798 0.52269,-0.6617 1.09918,-0.70553c0.78775,-0.05989 1.65512,0.55702 2.63759,0.40425c1.18708,-0.18458 1.70319,-1.40127 2.59258,-1.07297c1.01346,0.37411 0.30733,2.27223 -2.2917,2.58422c-2.4742,0.297 -3.78499,-0.3007 -4.41675,-0.80224c-0.17604,-0.13976 -0.24507,-0.53599 -0.24507,-0.53599c0,0 0.41658,0.15862 0.62417,0.12826z" data-paper-data="{&quot;index&quot;:null}" fill="#ffffff" stroke="none"/><g data-paper-data="{&quot;index&quot;:null}" stroke="none"><path d="M237.25633,178.26189c-0.06296,-0.14141 0.1272,-0.30865 0.34649,-0.34881c0.21929,-0.04016 0.4679,0.05008 0.44761,0.20338c-0.01752,0.13227 -0.08935,0.28743 -0.34901,0.33499c-0.2462,0.04509 -0.39782,-0.08342 -0.44508,-0.18955z" fill="#6b4209"/><path d="M237.38094,178.10674c-0.00816,-0.0446 0.06656,-0.09565 0.16691,-0.11404c0.10035,-0.01837 0.18832,0.00288 0.19649,0.04748c0.00816,0.0446 -0.06656,0.09566 -0.1669,0.11404c-0.10035,0.01837 -0.18832,-0.00289 -0.19649,-0.04748z" fill="#ffffff"/></g><path d="M242.29078,178.46818c0,0 -0.18945,-0.02093 -0.48094,0.03245c-0.30045,0.05502 -0.63372,0.18562 -0.63372,0.18562c0,0 0.24191,-0.22219 0.59807,-0.30428c0.35617,-0.08211 0.51658,0.08624 0.51658,0.08624z" data-paper-data="{&quot;index&quot;:null}" fill="#000000" stroke="none"/><path d="M237.29341,171.86653c0.02156,-0.9708 0.1653,-1.26593 0.1653,-1.26593c0,0 0.78807,-0.42424 1.64207,-0.62412c1.24526,-0.29145 1.90826,-0.21261 1.90826,-0.21261c0,0 -1.04776,0.63094 -1.68431,1.24009c-0.34443,0.3296 -0.6694,0.57407 -0.91051,0.8905c-0.3932,0.51604 -0.71894,0.90296 -0.81681,0.91296c-0.18286,0.01869 -0.31374,-0.50218 -0.304,-0.94087z" data-paper-data="{&quot;index&quot;:null}" fill="#ea750b" stroke="none"/><path d="M243.63142,177.30058c0,0 0.7546,-0.65077 1.0705,-1.05666c0.3159,-0.40589 0.74395,-1.07754 0.74395,-1.07754c0,0 0.31068,1.2079 0.39851,1.73437c0.06665,0.39962 0.2846,1.19355 -0.11287,1.4406c-0.32653,0.20297 -2.10008,-1.04075 -2.10008,-1.04075z" data-paper-data="{&quot;index&quot;:null}" fill="#fedeb5" stroke="none"/><path d="M235.76118,178.26602l0.56529,-0.95638l-1.00871,-0.87847l1.71402,0.60625z" data-paper-data="{&quot;index&quot;:null}" fill="#000000" stroke="none"/><path d="M236.30426,177.26348l1.35887,-1.20783l-0.60298,1.194l0.8842,0.67261z" data-paper-data="{&quot;index&quot;:null}" fill="#000000" stroke="none"/><path d="M239.71723,177.88141l0.56529,-0.95638l-1.00871,-0.87847l1.71401,0.60625z" data-paper-data="{&quot;index&quot;:null}" fill="#000000" stroke="none"/><path d="M240.26031,176.87887l1.35887,-1.20783l-0.60298,1.194l0.8842,0.67261z" data-paper-data="{&quot;index&quot;:null}" fill="#000000" stroke="none"/></g></g></svg>