<svg version="1.1" xmlns="http://www.w3.org/2000/svg" xmlns:xlink="http://www.w3.org/1999/xlink" width="32.78036" height="39.0242" viewBox="0,0,32.78036,39.0242"><g transform="translate(-223.61744,-162.44175)"><g data-paper-data="{&quot;isPaintingLayer&quot;:true}" fill-rule="nonzero" stroke="none" stroke-linecap="butt" stroke-linejoin="miter" stroke-miterlimit="10" stroke-dasharray="" stroke-dashoffset="0" style="mix-blend-mode: normal"><path d="M242.16705,201.26569c-0.87931,1.06004 -1.99385,-2.38203 -2.23065,-3.45008c-0.42786,-1.19883 -0.2585,-3.60592 -0.2585,-3.60592c0,0 0.01672,-1.66713 0.77359,-0.89614c0.35232,0.3589 0.71862,0.68489 1.03451,1.04277c0.3627,0.41092 0.65895,0.86393 0.79125,1.45712c0,0 1.09349,4.00116 -0.1102,5.45225z" fill="#09649e" stroke-width="0"/><path d="M251.20903,196.30338c-0.00763,1.27483 -2.83045,-0.59765 -3.62813,-1.24093c-1.01161,-0.62948 -2.30504,-2.48076 -2.30504,-2.48076c0,0 -0.96797,-1.22474 0.02815,-1.09498c0.4637,0.06041 0.91808,0.08884 1.35504,0.1693c0.50173,0.0924 0.98051,0.25343 1.42409,0.61025c0,0 3.13635,2.29202 3.12589,4.0371z" fill="#09649e" stroke-width="0"/><path d="M242.51325,190.22703l-3.1168,-4.50842l1.43312,-0.59079c0,0 1.59113,3.19448 3.09311,4.5817c0.46223,0.45413 3.38618,2.86113 3.38618,2.86113c0,0 1.85801,1.43876 2.14013,2.00822c0.35888,0.72439 -0.866,0.60247 -1.18116,0.42819c0,0 -1.04709,-0.88279 -1.72304,-1.40757c-0.99922,-0.77575 -4.03153,-3.37245 -4.03153,-3.37245z" fill="#ffffff" stroke-width="0"/><path d="M238.82723,190.46584l0.45981,-5.81547l1.42937,0.59981c0,0 -0.74698,2.89554 -0.67182,4.93873c0.00383,0.64798 0.8649,4.80083 0.8649,4.80083c0,0 0.63074,2.52256 0.4258,3.12413c-0.2607,0.76522 -0.85855,0.26562 -1.13034,-0.27176c-0.27178,-0.53737 -0.31974,-1.96465 -0.48043,-2.87501c-0.19547,-1.10746 -0.8973,-4.50127 -0.8973,-4.50127z" fill="#ffffff" stroke-width="0"/><path d="M241.20626,176.74057c0,0 -0.04878,2.42503 -1.77608,3.85835c-1.90815,1.5834 -6.13288,1.86112 -6.13288,1.86112l2.3758,-2.64768l0.17113,-5.12718z" fill="#2095ad" stroke-width="0"/><path d="M244.31927,175.14404c0.08883,-1.62629 0.04137,-9.8424 1.17656,-9.8424c1.06425,0 2.49957,4.02886 2.44989,6.87721c-0.05707,3.27475 -1.19876,6.37162 -1.19876,7.24271c0,1.62874 1.6086,4.82579 1.6086,4.82579c0,0 -4.54178,-1.22714 -4.03629,-9.10331z" fill="#2095ad" stroke-width="0"/><path d="M240.86538,176.53409c0.07474,-0.67529 1.51459,-0.32751 1.97876,-0.87562c0.94267,-1.11315 1.21195,-2.84995 1.31117,-2.84995c0.14805,0 0.36734,4.31831 0.44683,5.22794c0.44683,5.11332 -0.89367,6.30033 -0.89367,6.30033c0,0 -3.23157,-4.29292 -2.8431,-7.80272z" fill="#0d4d58" stroke-width="0"/><g stroke-width="0"><path d="M247.05709,185.31543c0,0 4.04319,-0.48073 4.53579,-1.52218c0.49266,-1.04159 -3.98669,-2.95782 -3.03571,-2.72225c5.02268,1.2442 7.84063,5.46712 7.84063,5.46712c0,0 -2.34085,-0.93029 -3.84679,-0.71477c-1.50593,0.21552 -5.4939,-0.50792 -5.4939,-0.50792z" fill="#2095ad"/><path d="M238.68164,180.22488c0,0 1.28107,-0.43502 2.90073,-0.37883c1.34176,0.04655 2.91588,0.59169 4.18654,0.54734c3.39819,0.21472 6.49697,2.45172 7.31363,3.87949c0.59541,1.04096 -3.88559,1.24692 -6.09445,0.90755c-2.39256,-0.36759 -8.30644,-4.95556 -8.30644,-4.95556z" fill="#ffffff"/></g><g stroke-width="0"><path d="M232.63184,188.01488c0.51613,-1.84278 1.1802,-2.95743 1.1802,-2.95743c0,0 1.52824,0.35905 2.27383,0.76967c0.82935,0.45675 2.47779,1.84722 2.47779,1.84722c0,0 -1.03696,1.01592 -1.85701,1.66678c-0.66622,0.42011 -1.68299,2.13889 -1.68299,2.13889c0,0 -2.38225,-2.56599 -2.39182,-3.46514z" fill="#2095ad"/><path d="M236.33516,186.3155c-1.53734,-1.46051 -2.32265,-0.41195 -2.58083,-1.24263c0.73623,-0.7748 0.70285,-1.5793 3.55182,-3.38533c2.62509,-0.65203 3.30357,-2.58191 3.30357,-2.58191l1.15141,0.82279c0,0 0.27175,4.13542 -1.6465,6.50872c-1.79457,2.22027 -2.07473,1.30539 -3.55254,-0.09858z" fill="#ffffff"/></g><g stroke-width="0"><path d="M235.15308,184.009c0,0 -2.02585,1.41317 -4.14941,2.16249c-1.17053,0.41303 -2.69387,0.8618 -3.96115,1.22354c-1.26728,0.36174 -3.42508,-0.23397 -3.42508,-0.23397c0,0 1.99552,-1.0975 2.65024,-1.77636c0.65472,-0.67887 4.56543,-3.8923 4.8189,-3.79577c0.25347,0.09653 4.06651,2.42007 4.06651,2.42007z" fill="#2095ad"/><path d="M232.48151,180.71772c3.67911,-1.11965 5.11795,-0.4273 5.81701,-0.72398c2.03258,-0.86262 1.67217,-0.47547 1.67217,-0.47547c0,0 0.04938,0.47983 -0.45289,1.20675c-0.73336,1.06137 -2.48841,2.6495 -6.01434,4.03996c-4.27602,1.68626 -6.30897,1.3839 -6.30897,1.3839c0,0 0.57979,-3.99861 5.28702,-5.43116z" fill="#ffffff"/></g><g data-paper-data="{&quot;index&quot;:null}" stroke-width="0"><path d="M242.81515,189.39432c0,0 4.53122,0.88748 5.23542,-0.35879c0.71464,-1.26473 -1.31061,-5.74094 -1.31061,-5.74094c0,0 1.79168,0.4647 3.37892,3.86941c0.91905,1.96503 3.60452,4.82737 3.60452,4.82737c0,0 -4.6623,0.49321 -6.88148,-0.10616c-1.84363,-0.49793 -4.02678,-2.49088 -4.02678,-2.49088z" fill="#2095ad"/><path d="M246.87272,183.23717c0.19025,0.14589 2.84199,4.22457 3.37927,6.22541c-0.82564,1.97203 -7.39571,-0.03944 -7.39571,-0.03944c0,0 -1.93732,-1.45557 -3.29219,-2.79593c-1.62779,-1.61034 -1.54134,-4.23423 -1.00465,-5.44716c0.53669,-1.21291 0.54452,0.36597 3.31348,0.16768c2.08627,-0.14938 4.81746,1.74962 4.99981,1.88943z" fill="#ffffff"/></g><g data-paper-data="{&quot;index&quot;:null}" stroke-width="0.17188"><path d="M247.76677,177.6287c-1.41228,0.35931 -3.62477,0.3209 -4.49094,0.18301c-0.86618,-0.13788 -2.36076,-0.72895 -2.12293,-1.06918c0.23779,-0.34036 2.45876,-0.59735 3.98254,-0.92907c0.96311,-0.2095 2.12967,-0.47663 3.07533,-0.38742c0.62136,0.05882 1.4279,0.76591 1.53462,1.25856c0.08357,0.38114 -1.51172,0.82523 -1.97862,0.94409z" data-paper-data="{&quot;index&quot;:null}" fill="#09649e"/><path d="M249.73139,176.66947c0.00551,-0.00863 0.07646,-0.7467 0.04244,-0.97225c-0.05704,-0.37956 -0.19339,-0.11848 -0.11017,-0.58485c0.06174,-0.34586 0.72031,0.08392 1.6947,-0.13885c0.22745,-0.052 1.6525,-0.38852 1.75338,-0.32429c0.30858,0.03888 0.94976,-0.18166 1.05454,0.17773c0.10478,0.35941 -0.80927,0.24649 -0.80927,0.24649c0,0 1.20952,-0.23269 1.19993,0.15194c-0.06297,0.35715 -1.17791,0.17763 -1.27964,0.20904c-0.2303,0.07113 1.16303,0.22307 0.9635,0.48186c-0.22999,0.2983 -1.8223,-0.29562 -2.50385,0.5959c-0.60363,0.55755 1.32047,-0.065 1.46013,0.43734c-0.60149,0.45683 -1.22564,0.62629 -2.63966,0.49233c-0.27496,-0.07307 -0.56557,0.07025 -0.72946,-0.02908c-0.14656,-0.09553 -0.34333,-0.36495 -0.0966,-0.74329z" fill="#ebd9bb"/><path d="M248.47379,177.84488c-0.26995,-0.14683 -0.11591,-1.71302 -0.11591,-1.71302c0.04369,-0.3 -0.26268,-0.9825 -0.05947,-0.78916c0.0407,0.03871 -0.24903,-0.0069 -0.09781,-0.16256c0.09951,-0.1022 0.62136,-0.17021 0.77742,-0.24763c0.36044,-0.17886 0.89825,-0.13675 1.28305,-0.2019c0.36218,-0.06123 0.46691,0.27845 0.59565,0.40083c0.18633,0.17673 0.16555,0.46268 -0.08441,0.89921c-0.30405,0.53092 -0.40097,1.00993 -0.40356,1.04281c0,0 -0.02421,0.40656 0.14136,0.46944c-0.53808,-0.19385 -1.51161,0.5488 -2.03632,0.30197z" fill="#ecc51e"/></g><path d="M238.2753,179.97882c0,0 0.00296,0.36243 0.05461,0.6164c0.05166,0.25398 0.42358,0.7468 0.42358,0.7468l1.12973,0.2555c0,0 0.73916,-0.20736 1.01902,-0.35074c0.27986,-0.14339 0.98937,-1.3221 0.98937,-1.3221l0.51105,-0.03953c0,0 -0.70111,1.39746 -1.33281,1.7357c-0.6317,0.33824 -1.21295,0.51277 -1.21295,0.51277l-0.2055,0.57615l-0.72765,0.23425l-0.42098,-0.64977l0.14215,-0.47436c0,0 -0.65492,-0.60918 -0.7083,-1.03668c-0.05338,-0.4275 -0.17488,-0.72711 -0.17488,-0.72711z" fill="#eec522" stroke-width="0"/><path d="M239.59756,176.64198c0.27251,0 1.27223,-0.15383 1.55758,0.01468c0.91399,0.5913 0.44364,1.54443 0.40456,3.01343c0.04114,0.18438 0.19368,0.59337 0.19368,0.59337c0,0 -0.68512,-0.29135 -0.96219,-0.42856c-0.1795,-0.08889 -0.53861,-0.31464 -0.53861,-0.31464c0,0 -0.44075,0.0734 -0.55348,0.05417c-0.22585,-0.03853 -1.08002,0.67774 -1.08002,0.67774l-0.11055,0.14195c0,0 0.18138,-0.40937 0.1735,-0.81523c-0.00944,-0.48635 -0.20346,-1.00254 -0.13155,-1.27342c0,0 0.47414,-1.66348 1.04707,-1.66348z" fill="#09649e" stroke-width="0"/><g stroke-width="0"><path d="M235.18433,167.96585c0,-0.04237 0.54261,-0.41338 1.08838,-0.99697c0.4541,-0.4856 0.01815,-1.26667 0.3999,-1.26667c0.84059,0 2.47821,-0.34366 2.47821,-0.26606c0,0.0776 -1.88061,2.67021 -2.7212,2.67021c-0.84059,0 -1.24531,-0.06293 -1.24531,-0.14056z" fill="#72878d"/><path d="M243.45348,166.16708l-1.48483,-0.52189c0,0 -0.14735,-1.42657 0.33835,-1.60663c2.55435,-0.94701 4.34968,2.87289 4.34968,2.87289c0,0 0.74906,3.57907 0.35843,6.4777c-0.42518,3.15494 -3.61935,8.08767 -3.61935,8.08767c0,0 0.60947,-5.74043 0.76618,-7.95946c0.10456,-1.48062 0.08281,-4.06033 0.08281,-4.06033z" fill="#2095ad"/><path d="M241.74244,163.33542c0,0 0.26271,-0.89367 1.02773,-0.89367c0.76502,0 0.84899,0.26808 0.84899,0.26808c0,0 2.21439,0.00444 2.53701,2.26224c0.02809,0.19661 -1.84024,-0.80459 -2.13487,-1.0111c-0.62645,-0.43909 -2.27886,-0.62558 -2.27886,-0.62558z" fill="#dceef3"/><path d="M238.25712,163.96097c0,-0.24679 1.40283,-1.21449 2.42667,-1.27176c0.6731,-0.03764 0.61182,0.64617 0.61182,0.64617c0,0 -0.69888,0.71492 -1.34048,0.71492c-0.6416,0 -1.69797,0.15742 -1.69797,-0.08937z" fill="#dceef3"/><path d="M241.65308,163.24606c1.13519,0 2.05544,0.33073 2.05544,0.84898c0,0.51823 -0.92025,0.75961 -2.05544,0.75961c-1.13515,0 -2.14477,-0.24135 -2.14477,-0.75961c0,-0.51826 1.00959,-0.84898 2.14477,-0.84898z" fill="#e8d548"/><path d="M242.27548,165.20156c0,-0.3768 0.4922,-0.88512 1.14658,-0.88512c0.65441,0 1.00779,0.65196 1.00779,1.02876c0,0.3768 -0.31506,0.03591 -0.96947,0.03591c-0.65441,0 -1.18489,0.19725 -1.18489,-0.17955z" fill="#72878d"/><path d="M234.59317,167.40159c0,0 -0.6694,-1.8337 0.24113,-2.92726c0.72979,-0.87646 1.63555,-0.69209 1.63555,-0.69209c0,0 0.43632,-0.48673 1.51595,-0.494c0.66245,-0.06965 1.8181,0.79716 1.87996,0.89615c0.36908,0.59042 -1.34733,-0.25773 -1.87788,-0.02104c-1.3601,0.60673 -3.39475,3.23824 -3.39475,3.23824z" fill="#dceef3"/><path d="M235.12935,168.07205c0,0 0.98655,-2.5116 1.56941,-2.5116c0.58289,0 0.18113,1.01641 0.18113,1.01641l-1.75054,1.49516z" fill="#dceef3"/><path d="M235.30798,170.66365c0,0 1.1822,-4.32301 1.94891,-4.75215c0.58942,-0.32989 2.25133,-0.34173 2.25133,-0.34173c0,0 -1.69794,4.79748 -1.69794,8.40045c0,3.60297 -0.08938,6.6131 -0.08938,6.6131c0,0 -1.55342,-2.56336 -2.02892,-4.51823c-0.4755,-1.95487 -0.38397,-5.40144 -0.38397,-5.40144z" fill="#2095ad"/><path d="M240.84881,168.56704c2.76393,0 4.96535,1.88084 5.00454,4.20021c0.04816,2.8495 -2.52932,3.97622 -5.0527,4.0076c-1.51717,0.01886 -4.712,-0.84071 -4.85887,-3.91243c-0.4497,-2.36698 2.1431,-4.29538 4.90703,-4.29538z" fill="#ecdebd"/><path d="M242.38875,173.90559c-0.4109,-0.03217 -1.84581,-0.28527 -1.84581,-0.28527c0,0 -0.15059,-0.41707 0.09141,-0.8484c0.37857,-0.67468 0.86017,-1.12828 1.43975,-1.09674c0.57958,0.03156 0.64759,0.48519 0.87772,0.90455c0.23012,0.41936 -0.07554,1.2234 -0.07554,1.2234c0,0 -0.28893,0.11804 -0.48753,0.10247z" fill="#000000"/><path d="M240.41096,173.91329c0,0 -0.02725,-1.57437 1.34691,-1.80871c1.32728,-0.2586 1.04147,1.71731 1.04147,1.71731c0,0 -0.41705,0.19242 -1.11843,0.19242c-0.70138,0 -1.26996,-0.10102 -1.26996,-0.10102z" fill="#eaeee9"/><path d="M247.37254,166.86542l0.40215,-1.29582c0,0 0.47982,0.57887 0.67632,1.18631c0.19651,0.60744 0.30673,1.85214 0.30673,1.85214z" fill="#dceef1"/><path d="M235.91212,165.90804c0,-0.03967 1.4607,-1.89142 2.52131,-1.89142c1.06064,0 1.75942,0.8939 1.75942,0.93357c0,0.03967 -1.41689,0.64633 -2.19027,0.64633c-0.77338,0 -2.09047,0.35119 -2.09047,0.31152z" fill="#72878d"/><path d="M246.94328,167.57128c0,-0.53544 0.35907,-0.91977 0.35907,-0.91977c0,0 0.50477,0.71123 0.74256,1.04147c0.23779,0.33024 0.79755,1.06319 0.79755,1.06319c0,0 -1.89918,-0.64948 -1.89918,-1.18489z" fill="#72878d"/><path d="M236.26473,172.35115c0.01863,-0.51353 0.02393,-0.78159 0.60354,-0.81315c0.28134,-0.01531 0.71731,0.43381 0.85632,0.94718c0.14738,0.54425 -0.19345,0.83509 -0.19345,0.83509l-0.91662,0.25428c0,0 -0.39157,-0.07145 -0.34981,-1.2234z" data-paper-data="{&quot;index&quot;:null}" fill="#000000"/><path d="M236.5844,173.58405c0,0 -0.4394,-1.27459 -0.0297,-1.78074c0.40974,-0.50616 0.81724,-0.29457 1.03877,0.47486c0.14442,0.5016 -0.08906,1.42457 -0.08906,1.42457z" fill="#eaeee9"/><g><path d="M236.39555,172.84927c0,-0.53003 0.25562,-0.95965 0.57096,-0.95965c0.31534,0 0.57097,0.42965 0.57097,0.95965c0,0.53003 -0.25563,0.95966 -0.57097,0.95966c-0.31534,0 -0.57096,-0.42966 -0.57096,-0.95966z" fill="#a77baf"/><path d="M236.99029,172.39226c0.13142,0 0.23791,0.20458 0.23791,0.45697c0,0.25239 -0.10652,0.45697 -0.23791,0.45697c-0.13139,0 -0.23791,-0.20458 -0.23791,-0.45697c0,-0.25239 0.10652,-0.45697 0.23791,-0.45697z" fill="#000000"/><path d="M237.07356,172.30083c0.09853,0 0.17842,0.14323 0.17842,0.31988c0,0.17666 -0.07989,0.31988 -0.17842,0.31988c-0.09853,0 -0.17843,-0.14323 -0.17843,-0.31988c0,-0.17666 0.07989,-0.31988 0.17843,-0.31988z" fill="#ffffff"/></g><path d="M235.32777,172.39673c0,0 -0.0072,-2.57917 0.7895,-3.7501c0.79671,-1.17093 2.7463,-2.19206 4.5855,-2.59753c1.83918,-0.40546 2.23541,0.54731 3.10904,0.9012c1.64125,0.66484 0.53379,5.2494 0.53379,5.2494c0,0 -2.44108,-0.08416 -3.32703,0.14033c-1.01248,0.25657 -2.16939,1.17572 -2.56591,1.02677c-0.26648,-0.10009 -0.55899,-1.06878 -0.55899,-1.06878l-0.34305,0.78596c0,0 -0.86858,-1.74757 -1.58222,-1.30576c-0.62458,0.38667 -0.6406,0.6185 -0.6406,0.6185z" fill="#2195ab"/><path d="M244.86144,166.02328c-0.2648,-0.28263 -0.50623,-0.85819 -0.70894,-1.10222c-0.38593,-0.46456 -1.20018,-0.56825 -1.20018,-0.56825c0,0 0.8641,-0.75766 1.34659,-0.80939c0.48248,-0.0517 1.46505,0.41753 1.46505,0.41753c0,0 0.31116,-0.33732 0.95061,-0.17266c0.52154,0.13429 1.40077,0.71595 1.36312,1.15503c-0.03439,0.40134 -0.20464,0.95432 -0.39336,1.36142c-0.27089,0.58431 -0.5799,0.96278 -0.5799,0.96278c0,0 -1.00328,0.07888 -2.24299,-1.24429z" fill="#dceef3"/><path d="M243.20394,165.93141c0,0 0.34463,0.2659 0.44648,0.54091c0.10186,0.27504 0.1257,1.00409 0.1257,1.00409c0,0 -0.20915,-0.27114 -0.89483,-0.77418c-0.59004,-0.43287 -1.43497,-0.71815 -1.43497,-0.81897c0,-0.21803 1.75759,0.04816 1.75759,0.04816z" data-paper-data="{&quot;index&quot;:null}" fill="#0b4754"/><path d="M239.1272,166.03125c0,0.10082 -0.69572,0.52588 -1.28575,0.95875c-0.68568,0.50304 -1.32828,1.2558 -1.32828,1.2558c0,0 0.1321,-0.85928 0.27385,-1.26879c0.14175,-0.40955 0.3923,-0.60741 0.3923,-0.60741c0,0 1.94789,-0.55635 1.94789,-0.33832z" fill="#0b4754"/><path d="M237.90012,167.15804c0,-0.37095 0.86945,-1.8615 1.58331,-2.65596c0.49722,-0.55333 1.00833,0.23103 1.00833,0.23103c0,0 1.5281,-0.32099 1.84828,0.00353c0.16674,0.2862 -0.14937,0.94122 -0.29218,1.52855c-0.12833,0.52791 -0.013,1.11325 -0.12621,1.2503c-0.70559,0.85416 -1.55513,1.31818 -2.59161,1.31818c-1.03648,0 -1.42988,-1.04636 -1.42988,-1.67565z" fill="#dceef3"/><path d="M243.95232,176.06972l0.24081,-4.19008l0.96322,-0.43345l-0.09632,4.52717z" fill="#2095ad"/><path d="M236.39976,172.75203c-0.03693,0.13384 -0.66387,-0.28797 -0.98385,-0.44552c-0.31998,-0.15748 -0.78371,-0.81968 -0.78371,-0.81968c0,0 0.55661,0.47329 0.95117,0.72413c0.39459,0.25084 0.83354,0.47885 0.8164,0.54107z" data-paper-data="{&quot;index&quot;:null}" fill="#000000"/><g><path d="M240.69838,173.26125c0,-0.53003 0.25562,-0.95965 0.57096,-0.95965c0.31534,0 0.57097,0.42965 0.57097,0.95965c0,0.53003 -0.25563,0.95966 -0.57097,0.95966c-0.31534,0 -0.57096,-0.42966 -0.57096,-0.95966z" fill="#a77baf"/><path d="M241.29312,172.80423c0.13142,0 0.23791,0.20458 0.23791,0.45697c0,0.25239 -0.10652,0.45697 -0.23791,0.45697c-0.13139,0 -0.23791,-0.20458 -0.23791,-0.45697c0,-0.25239 0.10652,-0.45697 0.23791,-0.45697z" fill="#000000"/><path d="M241.37639,172.71281c0.09853,0 0.17842,0.14323 0.17842,0.31988c0,0.17666 -0.07988,0.31988 -0.17842,0.31988c-0.09853,0 -0.17842,-0.14323 -0.17842,-0.31988c0,-0.17666 0.07989,-0.31988 0.17842,-0.31988z" fill="#ffffff"/></g><path d="M237.40862,174.17538c-0.43213,0.0288 -0.84661,-0.63073 -0.84661,-0.63073c0,0 0.67282,0.0654 0.91591,0.0451c0.08976,-0.0075 0.18087,-0.42888 0.18087,-0.42888c0,0 0.74368,0.36515 0.7211,0.65747c-0.01451,0.18795 -0.80214,0.34579 -0.97127,0.35704z" fill="#ecdebd"/><path d="M240.45376,174.39127l0.41933,-0.4193c0,0 0.40999,0.07625 0.648,0.07625c0.23801,0 0.72423,-0.03812 0.72423,-0.03812l0.60988,0.3812z" fill="#ecdebd"/><path d="M239.92842,176.10957c0.12625,-0.10919 0.49239,0.08499 0.82685,0.08499c0.33446,0 0.736,-0.25441 0.8367,-0.08499c0.13818,0.13728 -0.47489,0.24026 -0.83178,0.24026c-0.35689,0 -1.08146,-0.02432 -0.83177,-0.24026z" fill="#b1a37f"/><path d="M242.74772,174.09435c0.26612,0 0.06744,-0.01409 0.06744,0.31516c0,0.32925 -0.06744,0.38542 -0.06744,0.38542c0,0 -0.06743,-0.05617 -0.06743,-0.38542c0,-0.32925 -0.19869,-0.31516 0.06743,-0.31516z" fill="#d0bf96"/><path d="M236.56622,173.67287c0.26612,0 0.06743,-0.01409 0.06743,0.31516c0,0.32922 -0.06743,0.38539 -0.06743,0.38539c0,0 -0.06744,-0.05614 -0.06744,-0.38539c0,-0.32925 -0.19869,-0.31516 0.06744,-0.31516z" fill="#d0bf96"/><path d="M236.91749,173.81337c0.26612,0 0.06744,-0.01409 0.06744,0.31516c0,0.32922 -0.06744,0.38538 -0.06744,0.38538c0,0 -0.06743,-0.05613 -0.06743,-0.38538c0,-0.32925 -0.19869,-0.31516 0.06743,-0.31516z" fill="#d0bf96"/><path d="M242.39654,174.23484c0.26612,0 0.06744,-0.01409 0.06744,0.31516c0,0.32922 -0.06744,0.38539 -0.06744,0.38539c0,0 -0.06743,-0.05614 -0.06743,-0.38539c0,-0.32925 -0.1987,-0.31516 0.06743,-0.31516z" fill="#d0bf96"/><path d="M245.03864,175.50024c0,0 -0.42674,-2.45133 -0.62431,-3.38272c-0.14461,-0.68174 -0.45262,-1.6942 -0.45262,-1.6942c0,0 0.82659,-0.83705 1.07692,-0.46154c0.25034,0.37551 1.33832,2.03797 1.15385,3.38462c-0.18447,1.34665 -1.15385,2.15385 -1.15385,2.15385z" fill="#2195ab"/></g><path d="M240.60598,179.38438c0,0 0.31767,0.37105 0.53546,0.40686c0.2178,0.03581 0.47873,0.07872 0.47873,0.07872l0.37424,0.36655c0,0 -0.62919,0.01622 -0.86424,-0.08189c-0.23505,-0.09811 -0.55402,-0.46601 -0.55402,-0.46601z" fill="#2490a6" stroke-width="0"/><path d="M238.33879,180.36672l0.50508,-0.42884c0,0 0.00713,-0.06008 0.1822,-0.0996c0.17507,-0.03952 0.4723,-0.5085 0.4723,-0.5085l0.05232,0.25088c0,0 -0.20342,0.43289 -0.39237,0.54115c-0.18894,0.10826 -0.81954,0.24492 -0.81954,0.24492z" data-paper-data="{&quot;index&quot;:null}" fill="#2490a6" stroke-width="0"/><g stroke-width="0.17188"><path d="M238.69695,183.26526c-0.22795,0.42447 -1.04363,1.86559 -1.39337,1.69257c-0.45238,-0.22237 -0.9441,-1.17563 -0.85135,-1.79282c0.14146,-0.93928 0.68203,-2.00699 1.11759,-2.89114c0.68939,-1.39884 1.47438,-3.49228 1.86203,-3.64097c0.38755,-0.14878 0.60076,1.44425 0.5257,2.31811c-0.07507,0.87386 -0.57133,3.03031 -1.2606,4.31427z" data-paper-data="{&quot;index&quot;:null}" fill="#09649e"/><path d="M237.29232,184.94059c0.42667,-0.14822 0.64068,0.10773 0.69805,0.27299c0.05688,0.18301 -0.1523,0.43047 -0.14769,0.71494c-0.21097,1.40458 -0.52594,1.96947 -1.11435,2.44303c-0.45382,-0.25668 0.61434,-1.97387 -0.07231,-1.5225c-0.27957,0.14645 0.51284,0.15806 0.16788,0.30934c-0.14926,1.23122 -0.14941,1.19314 -0.76982,1.52865c-0.34127,0.18455 -1.28817,0.02853 -1.61169,-0.15982c-0.32352,-0.18835 -0.01255,-0.78436 0.02413,-1.09322c-0.038,-0.11339 0.68224,-1.11524 0.78755,-1.32343c0.45117,-0.8919 0.19287,-1.63469 0.54341,-1.61121c0.47268,0.0317 0.18642,0.10106 0.54102,0.24795c0.21069,0.0874 0.94409,0.19653 0.95379,0.19326z" fill="#ebd9bb"/><path d="M238.73634,184.00354c0.11301,0.56875 -0.84248,1.33446 -0.78411,1.90341c-0.02109,-0.17583 -0.42149,-0.25039 -0.42149,-0.25039c-0.03252,-0.0054 -0.5208,-0.02685 -1.10935,0.14019c-0.48393,0.13732 -0.76645,0.08853 -0.89304,-0.13491c-0.08772,-0.15445 -0.39212,-0.33801 -0.24536,-0.67473c0.15601,-0.35773 0.24485,-0.88982 0.50534,-1.19649c0.11276,-0.13279 0.30462,-0.62284 0.42779,-0.69477c0.18754,-0.10921 0.16191,0.18296 0.13417,0.13413c-0.13863,-0.24384 0.44986,0.21807 0.75153,0.24801c0,0 1.55713,0.22818 1.63452,0.52557z" fill="#ecc51e"/></g><g><path d="M240.29581,176.9261c0.17008,0.06905 0.3072,0.33949 0.39108,0.72079c0.08399,0.38126 0.11481,0.87325 0.07258,1.38519c-0.0422,0.51204 -0.14953,0.94795 -0.28883,1.23853c-0.1394,0.29062 -0.31073,0.43601 -0.48082,0.36696c-0.17021,-0.06911 -0.30722,-0.33958 -0.3912,-0.72085c-0.08388,-0.3813 -0.11481,-0.87325 -0.07258,-1.38519c0.04219,-0.51204 0.14963,-0.94798 0.28893,-1.23856c0.1393,-0.29058 0.31062,-0.43597 0.48084,-0.36686z" fill="#5ed161" stroke-width="0.01872"/><g data-paper-data="{&quot;index&quot;:null}" fill="#21683c" stroke-width="0.01872"><path d="M240.22632,177.76842c0.09288,0.03771 0.16777,0.1854 0.21357,0.39363c0.04587,0.20821 0.0627,0.47689 0.03964,0.75647c-0.02305,0.27963 -0.08166,0.51769 -0.15773,0.67638c-0.07613,0.15871 -0.16969,0.23811 -0.26258,0.2004c-0.09295,-0.03774 -0.16778,-0.18545 -0.21364,-0.39367c-0.04581,-0.20823 -0.0627,-0.47689 -0.03964,-0.75647c0.02304,-0.27963 0.08172,-0.51771 0.15779,-0.6764c0.07607,-0.15869 0.16963,-0.23809 0.26259,-0.20035z"/></g><path d="M240.1511,177.68613c0.05931,0.02193 0.10212,0.11155 0.12354,0.23878c0.02138,0.12715 0.02128,0.29193 -0.00537,0.46388c-0.02668,0.17188 -0.07488,0.31879 -0.1313,0.41725c-0.05641,0.09846 -0.12094,0.1485 -0.18015,0.12654c-0.05927,-0.02186 -0.10211,-0.11155 -0.12352,-0.23878c-0.02138,-0.12717 -0.02132,-0.29184 0.0054,-0.46381c0.02666,-0.17195 0.07486,-0.31887 0.13128,-0.41732c0.05634,-0.09843 0.12087,-0.1484 0.18015,-0.12655z" fill="#ffffff" stroke-width="0.01896"/></g><path d="M243.93343,172.42529c0.44706,-0.13689 1.1976,-0.42078 1.1976,-0.42078c0,0 -0.65501,0.4588 -1.00537,0.52553c-0.35036,0.06676 -1.27957,0.39018 -1.27957,0.25136c0,-0.06454 0.64025,-0.21925 1.08734,-0.35611z" fill="#000000" stroke-width="0"/></g></g></svg>