<svg version="1.1" xmlns="http://www.w3.org/2000/svg" xmlns:xlink="http://www.w3.org/1999/xlink" width="31.55528" height="39.80546" viewBox="0,0,31.55528,39.80546"><g transform="translate(-225.76527,-163.59617)"><g data-paper-data="{&quot;isPaintingLayer&quot;:true}" fill-rule="nonzero" stroke-miterlimit="10" stroke-dasharray="" stroke-dashoffset="0" style="mix-blend-mode: normal"><g data-paper-data="{&quot;index&quot;:null}" stroke-linejoin="miter"><path d="M227.12865,194.1719l0.80575,0.9622c0,0 -0.07511,0.41563 -0.89425,-0.32453c-0.57476,-0.5454 -1.1653,-1.94704 -1.26034,-2.82668c-0.09503,-0.87963 0.28845,-1.66156 0.77666,-2.48174c0.48821,-0.82018 1.02834,-1.2065 1.2854,-1.54892c0.91402,-1.21757 1.99129,-0.34332 1.99129,-0.34332c0,0 -3.31241,2.55978 -3.27281,3.40397c0.04886,1.04154 0.5683,3.15903 0.5683,3.15903z" fill="#947043" stroke="none" stroke-width="0" stroke-linecap="butt"/><path d="M232.12941,190.43893l-0.17257,0.31826l-0.34038,0.24915c0,0 -0.57334,0.7021 -0.75897,0.99834c-0.22841,0.36451 -0.47662,0.755 -0.92162,1.65749c-0.65046,0.85166 -2.05943,1.61194 -2.05943,1.61194c0,0 -0.98069,-0.92409 -1.43591,-1.99112c-0.2576,-0.84823 -0.36387,-2.10912 -0.05851,-2.74942c0.36241,-0.75993 0.9473,-1.3223 1.28725,-1.73089c0.03916,-0.04706 1.12421,-1.20327 1.51594,-1.25144c0.39174,-0.04818 0.9999,-0.10535 0.9999,-0.10535c0,0 -0.10111,-0.11013 0.22255,-0.19968c0.07389,-0.02044 0.35595,0.06699 0.35595,0.06699l-0.04296,-0.18833l0.66622,-0.27819l1.34375,2.72055z" fill="#20201f" stroke="none" stroke-width="0" stroke-linecap="butt"/><path d="M228.19544,188.31881c0,0 1.45899,-0.33554 2.03486,-0.44668c0.45445,-0.0877 1.07202,-0.15858 1.07202,-0.15858" fill="none" stroke="#c8c7c6" stroke-width="0.125" stroke-linecap="round"/><path d="M232.52745,185.96791c0.76579,-0.5363 1.70716,0.40021 2.1529,1.0003c0.44575,0.60008 0.13525,1.77557 0.00593,1.90601c-0.4932,0.49746 -1.52022,0.84076 -1.73565,0.80701c-0.48458,-0.18055 -0.73847,-0.40769 -1.37374,-1.30424c-0.29264,-0.53157 -0.34925,-0.99534 -0.146,-1.51045c0.20325,-0.51511 0.48732,-0.47197 1.09656,-0.89863z" fill="#c274a1" stroke="none" stroke-width="0" stroke-linecap="butt"/><path d="M232.48849,186.01678c0.76579,-0.5363 1.70716,0.40021 2.1529,1.0003c0.44576,0.60009 0.13527,1.77558 0.00593,1.90602c-0.4932,0.49746 -1.51221,-0.68273 -1.81211,-1.04651c-0.24593,-0.2983 -0.95596,-1.43314 -0.34672,-1.8598z" fill="#cacacd" stroke="none" stroke-width="0" stroke-linecap="butt"/><path d="M227.03614,192.80891c0.19514,-0.12435 0.76494,-0.31517 0.76494,-0.31517c0,0 -0.31029,0.32042 -0.58035,0.5993c-0.27006,0.27888 -0.56678,0.40459 -0.64776,0.34005c-0.05072,-0.04042 -0.18934,-0.21607 -0.01515,-0.48867c0.10393,-0.16266 0.28318,-0.01113 0.47831,-0.13549z" fill="#c8c7c6" stroke="none" stroke-width="0" stroke-linecap="butt"/><path d="M228.68116,193.75364c0,0 -0.30966,0.51496 -0.47333,0.67855c-0.16366,0.16359 -0.05454,0.37138 -0.23585,0.43763c-0.30386,0.11104 -0.44532,-0.06232 -0.4738,-0.1206c-0.04547,-0.09304 0.14152,-0.3555 0.47225,-0.55877c0.33074,-0.20326 0.71074,-0.43681 0.71074,-0.43681z" data-paper-data="{&quot;index&quot;:null}" fill="#c8c7c6" stroke="none" stroke-width="0" stroke-linecap="butt"/><path d="M226.38287,191.73589c0,0 1.94526,-0.92199 3.18424,0.4168c0.87005,0.94014 0.12362,1.80948 0.12362,1.80948" fill="none" stroke="#c8c7c6" stroke-width="0.125" stroke-linecap="round"/><g fill="#83c4ac" stroke="none" stroke-width="0" stroke-linecap="butt"><path d="M230.9216,187.67779l0.20391,0.06995l0.17643,1.0189c0,0 -0.69601,0.01966 -0.78595,-0.07677c-0.07622,-0.08174 0.40562,-1.01208 0.40562,-1.01208z"/><path d="M231.02292,186.84818c0.10661,0.03357 0.13654,0.93713 0.13654,0.93713l-0.28449,-0.05542l-0.45916,-0.67385c0,0 0.48134,-0.24745 0.60712,-0.20786z" data-paper-data="{&quot;index&quot;:null}"/><path d="M229.42987,188.71413c-0.06052,-0.09396 0.57864,-0.92414 0.57864,-0.92414l0.22831,0.12456l-0.04707,1.01446c0,0 -0.68847,-0.10405 -0.75988,-0.2149z"/><path d="M230.38088,186.99321c0.09341,0.06139 -0.12447,0.93881 -0.12447,0.93881l-0.25857,-0.13097l-0.25776,-0.7736c0,0 0.5306,-0.10667 0.6408,-0.03423z" data-paper-data="{&quot;index&quot;:null}"/><path d="M228.33663,188.47138l0.19325,-0.34594l0.87174,-0.13925c0,0 0.36124,-0.1898 0.3874,-0.02021c0.02613,0.16959 -0.34935,0.26701 -0.34935,0.26701l-0.78815,0.57698z"/></g></g><path d="M238.08064,184.05954l-3.03072,2.82118l-1.34725,1.20638c0,0 -0.35267,-0.43899 -0.45547,-0.69298c-0.1028,-0.25401 -0.10592,-0.69408 -0.10592,-0.69408l1.02047,-0.8878l2.82089,-2.51141z" data-paper-data="{&quot;index&quot;:null}" fill="#20201f" stroke="none" stroke-width="0" stroke-linecap="butt" stroke-linejoin="miter"/><g stroke-linejoin="miter"><path d="M238.01387,198.73814c0,0 1.95243,-0.97035 2.77938,-1.60544c0.67026,-0.51475 0.48665,-4.69696 0.48665,-4.69696c0,0 1.36313,0.25828 1.02338,1.74236c-0.09555,0.41737 -0.04187,1.07926 -0.35305,1.98161c-0.31117,0.90235 -0.66074,1.7 -1.39386,2.19531c-0.73313,0.49531 -2.18478,0.94921 -2.97235,0.86238c-1.09407,-0.14773 -0.82516,-0.47341 -0.82516,-0.47341z" fill="#947043" stroke="none" stroke-width="0" stroke-linecap="butt"/><path d="M237.91379,191.48726l2.94515,-0.73017l0.21766,0.68837l-0.17156,0.08878c0,0 0.24885,0.15897 0.28095,0.22858c0.14057,0.30498 -0.00882,0.29887 -0.00882,0.29887c0,0 0.34897,0.50136 0.56508,0.83162c0.21612,0.33025 0.03364,1.90533 0.02298,1.96562c-0.09257,0.52339 -0.14443,1.33312 -0.49081,2.10049c-0.29185,0.64656 -1.32338,1.37943 -2.13745,1.73032c-1.10876,0.34123 -2.44759,0.18888 -2.44759,0.18888c0,0 -0.329,-1.56684 -0.09854,-2.61341c0.40192,-0.92248 0.5399,-1.36414 0.6708,-1.77389c0.10639,-0.33302 0.27243,-1.22414 0.27243,-1.22414l-0.02947,-0.42079l0.13164,-0.33725z" fill="#20201f" stroke="none" stroke-width="0" stroke-linecap="butt"/><path d="M240.25152,191.38132c0,0 0.34457,0.51739 0.57098,0.92107c0.28691,0.51154 0.97257,1.84236 0.97257,1.84236" fill="none" stroke="#c8c7c6" stroke-width="0.125" stroke-linecap="round"/><path d="M240.7937,189.31874c0.06748,0.74071 0.28382,0.9298 0.02166,1.41756c-0.26216,0.48778 -0.65288,0.74395 -1.24776,0.86365c-1.09481,0.09366 -1.43218,0.0464 -1.8829,-0.2071c-0.16486,-0.14274 -0.56572,-1.14868 -0.50422,-1.84649c0.01613,-0.18298 0.71337,-1.17898 1.45942,-1.22598c0.74605,-0.04701 2.06898,0.06729 2.15381,0.99835z" fill="#c274a1" stroke="none" stroke-width="0" stroke-linecap="butt"/><path d="M240.78152,189.38004c0.06749,0.74072 -1.25756,0.93112 -1.64414,0.93589c-0.47142,0.00582 -2.03058,-0.01045 -1.96909,-0.70825c0.01611,-0.18298 0.71337,-1.17898 1.45943,-1.22598c0.74605,-0.04701 2.06899,0.0673 2.15381,0.99835z" fill="#cacacd" stroke="none" stroke-width="0" stroke-linecap="butt"/><path d="M239.11448,197.92886c0.031,0.22931 0.26244,0.26837 0.20532,0.45275c-0.09572,0.30902 -0.31936,0.31655 -0.38297,0.30391c-0.10156,-0.02018 -0.19712,-0.32794 -0.1585,-0.71422c0.03863,-0.38628 0.083,-0.83011 0.083,-0.83011c0,0 0.22214,0.55834 0.25315,0.78765z" fill="#c8c7c6" stroke="none" stroke-width="0" stroke-linecap="butt"/><path d="M237.33099,197.28247c0,0 0.06697,0.44097 0.12527,0.82477c0.05829,0.38381 -0.02143,0.69604 -0.12184,0.72139c-0.06289,0.01587 -0.28661,0.01976 -0.39798,-0.28397c-0.06646,-0.18123 0.16268,-0.23205 0.18194,-0.46265c0.01927,-0.2306 0.21262,-0.79954 0.21262,-0.79954z" data-paper-data="{&quot;index&quot;:null}" fill="#c8c7c6" stroke="none" stroke-width="0" stroke-linecap="butt"/><path d="M236.51998,196.64612c0,0 0.18201,-1.13128 1.46168,-1.07378c1.82228,0.08188 2.37402,2.16266 2.37402,2.16266" fill="none" stroke="#c8c7c6" stroke-width="0.125" stroke-linecap="round"/><g fill="#83c4ac" stroke="none" stroke-width="0" stroke-linecap="butt"><path d="M240.01357,192.61213c-0.13172,-0.00644 -0.56604,-0.55066 -0.56604,-0.55066l0.89201,-0.52306l0.18506,0.11056c0,0 -0.39942,0.96859 -0.51104,0.96316z"/><path d="M241.09275,191.03602c0.11145,0.07049 0.23322,0.59784 0.23322,0.59784l-0.81104,0.08438l-0.22599,-0.18148c0,0 0.70936,-0.56048 0.80382,-0.50074z" data-paper-data="{&quot;index&quot;:null}"/><path d="M240.69624,193.45724c-0.13075,0.01703 -0.65469,-0.44157 -0.65469,-0.44157l0.74434,-0.69087l0.24252,0.09394c0,0 -0.22135,1.02407 -0.33218,1.03851z"/><path d="M241.3965,191.61996c0.12646,0.03739 0.38755,0.51147 0.38755,0.51147l-0.7572,0.30258l-0.26695,-0.11291c0,0 0.52942,-0.73285 0.6366,-0.70115z" data-paper-data="{&quot;index&quot;:null}"/><path d="M241.12553,194.11353l-0.06819,-0.97439c0,0 -0.16801,-0.34965 -0.02163,-0.43918c0.1464,-0.08951 0.23467,0.30889 0.23467,0.30889l0.45644,0.75562l-0.13943,0.37091z"/></g></g><path d="M239.95427,184.19452l-0.09678,3.77562l-0.01919,1.35247c0,0 -0.33809,0.28172 -0.59844,0.3672c-0.26033,0.08548 -0.82326,0.09956 -0.82326,0.09956l0.05152,-1.8077l0.19787,-4.13584z" fill="#20201f" stroke="none" stroke-width="0" stroke-linecap="butt" stroke-linejoin="miter"/><g data-paper-data="{&quot;index&quot;:null}" stroke-width="0" stroke-linecap="butt" stroke-linejoin="miter"><g data-paper-data="{&quot;index&quot;:null}"><path d="M236.34312,164.74173c0.4301,-0.9726 1.57015,-1.4111 2.54633,-0.97941c0.97619,0.43169 1.41886,1.57009 0.98876,2.5427c-0.4301,0.9726 -1.57013,1.41111 -2.54631,0.97942c-0.97619,-0.43169 -1.41888,-1.5701 -0.98878,-2.54271z" fill="#c2e266" stroke="none"/><path d="M236.69702,165.5927c0.26572,-0.60088 0.97002,-0.87179 1.57312,-0.60509c0.6031,0.2667 0.87659,0.97 0.61086,1.57088c-0.26572,0.60088 -0.97002,0.87179 -1.57312,0.60509c-0.6031,-0.2667 -0.87658,-0.97001 -0.61086,-1.57088z" fill="#c2e266" stroke="#000000"/><path d="M237.04281,167.69678c-0.46849,-0.20469 -1.13519,-0.81699 -1.13519,-0.81699l0.47479,-0.53511c0,0 0.41121,0.6241 0.81615,0.83133c0.40493,0.20722 1.12314,0.16112 1.12314,0.16112l0.06007,0.56223c0,0 -0.80367,0.0313 -1.33897,-0.20258z" fill="#dbded5" stroke="#000000"/></g><g data-paper-data="{&quot;index&quot;:null}" stroke="none"><path d="M241.0653,173.57806c0.18399,0.08136 0.19623,0.45692 0.02734,0.83883c-0.16889,0.38191 -0.45495,0.62556 -0.63894,0.54419c-0.18399,-0.08136 -0.19624,-0.45694 -0.02736,-0.83884c0.16889,-0.38191 0.45496,-0.62555 0.63896,-0.54418z" fill="#000000"/><path d="M240.21723,178.97076c0.19166,0.08475 0.39743,1.16536 0.32312,1.3334c-0.07431,0.16804 -0.88463,1.13001 -1.07627,1.04526c-0.19166,-0.08475 -1.01759,-0.81377 -1.01759,-0.81377c0,0 1.5791,-1.64965 1.77076,-1.56489z" fill="#807d5a"/><path d="M238.73448,167.32484l0.18146,-0.0851l2.066,7.36224l-0.21895,0.2449z" fill="#6e6e73"/><path d="M239.71634,169.63299l-0.4081,0.17228l-0.52303,-1.71944l0.43586,-0.16z" fill="#c2e266"/></g></g><g stroke-width="0" stroke-linecap="butt" stroke-linejoin="miter"><g data-paper-data="{&quot;index&quot;:null}"><path d="M253.84309,176.2592c-1.25229,-0.55379 -1.82019,-2.01417 -1.26844,-3.26186c0.55175,-1.24769 2.01422,-1.81022 3.26651,-1.25643c1.25229,0.55379 1.82019,2.01417 1.26843,3.26187c-0.55175,1.24769 -2.01422,1.81021 -3.26651,1.25642z" fill="#c2e266" stroke="none"/><path d="M253.97849,176.17767c-0.77366,-0.34213 -1.1245,-1.24436 -0.78363,-2.01519c0.34088,-0.77083 1.24438,-1.11835 2.01805,-0.77622c0.77366,0.34213 1.12452,1.24435 0.78364,2.01518c-0.34088,0.77083 -1.24439,1.11836 -2.01806,0.77623z" fill="#c2e266" stroke="#000000"/><path d="M253.7013,176.88944c-0.68401,-0.3061 -1.34799,-1.09582 -1.34799,-1.09582l0.58541,-0.4283c0,0 0.57617,0.7214 1.12236,0.92682c0.54618,0.20541 1.4934,0.05693 1.4934,0.05693l-0.09801,0.91248c0,0 -1.15653,-0.10419 -1.75517,-0.3721z" fill="#dbded5" stroke="#000000"/></g><g data-paper-data="{&quot;index&quot;:null}" stroke="none"><path d="M244.80724,180.95701c0.01664,0.47117 -0.85097,2.02059 -0.85097,2.02059l-2.85702,-1.24222c0,0 -0.40724,-1.58955 0.46041,-2.76259c0.63784,-0.86236 2.57695,-1.42386 2.76262,-1.34833c1.19632,0.48661 0.46829,2.86137 0.48493,3.33255z" fill="#c2e266"/><path d="M244.68294,179.22471c-0.21666,0.48993 -0.58363,0.80249 -0.81966,0.69811c-0.23603,-0.10438 -0.25175,-0.58617 -0.03509,-1.0761c0.21666,-0.48993 0.58364,-0.80248 0.81968,-0.6981c0.23603,0.10438 0.25174,0.58615 0.03507,1.07609z" fill="#000000"/><path d="M242.93364,184.91359c-0.47761,0.7155 -1.45121,1.77176 -1.45121,1.77176l-1.27502,-0.03603c0,0 -1.07356,-1.10279 -0.73815,-1.79709c0.16655,-0.34475 1.5637,-2.99381 1.5637,-2.99381l1.44346,-0.21985c0,0 0.53098,0.29115 0.82075,0.5368c0.28977,0.24565 0.66812,0.79046 0.66812,0.79046c0,0 -0.55405,1.23227 -1.03166,1.94776z" fill="#20201f"/><path d="M240.30556,186.63944c0,0 -1.40475,-0.15456 -1.65062,-0.26329c-0.24587,-0.10873 -0.03239,-1.70807 0.06294,-1.92364c0.09533,-0.21557 1.29844,-0.95304 1.54431,-0.84431c0.24587,0.10873 0.04336,3.03122 0.04336,3.03122z" fill="#c274a1"/><path d="M243.70466,179.53068l0.04343,-0.41917l8.77011,-4.3942l0.07587,0.24567z" fill="#6e6e73"/><path d="M251.60372,175.01998l0.22439,0.55174l-2.08323,0.98781l-0.18877,-0.536z" fill="#c2e266"/></g></g><g stroke="none" stroke-width="0" stroke-linecap="butt" stroke-linejoin="miter"><path d="M236.98748,174.77843l0.8798,0.73444l-0.80663,1.19531l-0.89688,-0.70476z" fill="#83c4ac"/><path d="M239.01635,175.90633c0.51735,0.41038 0.66741,1.12603 0.31307,1.62917c-0.35434,0.50315 -1.06901,0.5895 -1.59625,0.19288c-0.93735,-0.70512 -0.82992,-1.21956 -0.47557,-1.72271c0.35434,-0.50315 0.89626,-0.78351 1.75875,-0.09934z" fill="#20201f"/><path d="M236.07364,173.62013l0.96061,1.1457l-0.8408,1.25467l-1.47229,-0.5314l0.22416,-0.62383l0.67918,-0.91822z" fill="#bebec0"/></g><path d="M236.72878,172.75447c0.3489,0.96076 -0.19716,1.95676 -1.13605,2.64272c-0.93889,0.68596 -2.20971,1.01255 -2.53337,0.03817c-0.32367,-0.97439 0.19069,-2.5035 1.37502,-3.36879c1.18434,-0.86528 1.94551,-0.27287 2.2944,0.68789z" fill="#20201f" stroke="none" stroke-width="0" stroke-linecap="butt" stroke-linejoin="miter"/><g stroke="none" stroke-width="0" stroke-linecap="butt" stroke-linejoin="miter"><path d="M240.02675,182.59658l1.24339,0.47743l1.34686,2.76277l2.52544,0.641c0,0 -2.00878,0.47315 -2.82279,0.10153c-0.74909,-0.34199 -2.29289,-3.98275 -2.29289,-3.98275z" fill="#f79db4"/><path d="M242.45072,180.53716c0.59816,-0.34467 1.36248,-0.13916 1.70714,0.459c0.34467,0.59816 0.13917,1.36247 -0.45899,1.70713c-0.59816,0.34467 -1.11516,0.04351 -1.45983,-0.55465c-0.34467,-0.59816 -0.38647,-1.26683 0.21169,-1.61149z" fill="#83c4ac"/><path d="M235.70112,180.04515c0,0 0.49393,0.44686 0.57617,1.04205c0.11605,0.83991 0.38086,1.39851 2.55684,2.44907c1.94026,0.93675 2.77954,0.40655 3.40592,0.19756c0.75961,-0.25342 1.08193,-0.31507 1.08193,-0.31507l1.43968,1.29088c0,0 -0.60413,0.22269 -1.16247,0.89559c-0.54693,0.77155 -1.34205,0.81777 -1.91023,0.6119c-0.62894,0.13406 -1.3823,0.6923 -2.0435,0.15808c-0.71191,0.39046 -1.49624,0.1029 -1.9207,-0.56016c-0.73136,0.21883 -1.28596,-0.27467 -1.40472,-0.77271c-0.92999,-0.13477 -1.3458,-0.77211 -1.36648,-1.33919c-0.8265,-0.5223 -0.96798,-1.45256 -0.77583,-2.18512c-0.65119,-0.77951 -0.48564,-1.70619 -0.48564,-1.70619z" fill="#c0c2c6"/><path d="M240.29465,177.10543l0.35129,0.11402l2.15791,0.93315c0,0 -0.78356,1.19392 -0.80172,2.03174c-0.01816,0.83782 -0.02026,0.99909 0.29354,1.71523c0.31381,0.71614 1.21942,1.73183 1.21942,1.73183c0,0 -0.57108,0.08266 -1.03436,0.39284c-0.28983,0.19405 -0.40975,0.65037 -0.71598,0.69583c-0.5184,0.07694 -0.77463,-0.37888 -1.5111,-0.49798c-0.39397,-0.06371 -1.06134,0.35383 -1.67648,0.14226c-1.09838,-0.3778 -1.14447,-1.10663 -1.61332,-1.71593c-0.21936,-0.28508 -0.91324,-0.18851 -1.15451,-0.66558c-0.18133,-0.35855 0.21052,-0.59948 0.17539,-0.9048c-0.05911,-0.51382 -0.45407,-0.99946 -0.45407,-0.99946c0,0 0.66301,-0.08198 1.45156,-0.15224c0.78856,-0.07026 1.6818,-0.34644 1.6818,-0.34644c0,0 0.43435,-0.78133 0.78181,-1.31518c0.34746,-0.53386 0.84878,-1.15928 0.84878,-1.15928z" fill="#20201f"/><path d="M241.50706,182.4625l-0.1706,-0.47734l0.85701,-0.42641c0,0 0.04793,0.14527 0.15081,0.40009c0.09267,0.22954 0.30829,0.57771 0.30829,0.57771l-0.33797,0.18166z" data-paper-data="{&quot;index&quot;:null}" fill="#c274a1"/><path d="M240.30141,182.34954l1.06522,-0.25586l0.13645,0.38444l-0.94441,0.22317z" data-paper-data="{&quot;index&quot;:null}" fill="#c0c2c6"/><path d="M237.15973,180.30207l-0.05359,-0.37992c0,0 0.40826,-0.03226 0.64813,-0.09341c0.26628,-0.06788 0.41176,-0.11522 0.41176,-0.11522l0.16349,0.94316l-0.48573,0.145z" fill="#c274a1"/><path d="M238.52846,182.02641l-0.63006,-1.2701l0.39064,-0.11754l0.67521,1.38683z" fill="#c0c2c6"/><path d="M242.41946,179.89686c-0.64612,1.89964 -1.95911,1.22309 -2.09437,1.09719c-0.13125,-0.12219 -0.41815,-0.52897 -0.54684,-0.8333c-0.13104,-0.30987 -0.26943,-1.02595 -0.26943,-1.02595l-0.71226,0.43347c0,0 0.06576,-0.94448 0.32102,-1.51324c0.57825,-1.28846 1.11124,-1.12224 1.11124,-1.12224l2.43209,1.00109c0,0 0.28788,0.40675 -0.24144,1.96299z" fill="#c0c0c3"/><path d="M240.41007,177.63178l-0.29206,-0.74262l1.75119,0.93854z" fill="#222225"/><g><g><path d="M238.15691,182.69624c-0.11422,-0.62597 0.48184,-1.25907 1.33136,-1.41409c0.84951,-0.15502 1.63078,0.22675 1.74501,0.85271c0.11423,0.62596 -0.48184,1.25906 -1.33135,1.41408c-0.84951,0.15502 -1.63078,-0.22675 -1.74501,-0.85271z" fill="#c0c2c6"/><path d="M240.24377,180.55589c0.22465,-0.11146 0.49713,-0.0197 0.6086,0.20495c0.11146,0.22465 0.0197,0.49714 -0.20495,0.6086c-0.22465,0.11146 -0.49714,0.01969 -0.60859,-0.20496c-0.11146,-0.22465 -0.0197,-0.49713 0.20496,-0.60859z" fill="#000000"/><path d="M240.14287,180.8089c0.07008,-0.1747 0.26851,-0.2595 0.44321,-0.18942c0.1747,0.07008 0.2595,0.26851 0.18942,0.44321c-0.07008,0.1747 -0.17856,0.08666 -0.35326,0.01657c-0.1747,-0.07008 -0.34945,-0.09566 -0.27937,-0.27037z" fill="#c478a9"/><path d="M238.01597,181.33344c-0.01274,-0.25046 0.17997,-0.46383 0.43043,-0.47657c0.25046,-0.01274 0.46383,0.17997 0.47657,0.43043c0.01274,0.25046 -0.17996,0.46384 -0.43042,0.47658c-0.25046,0.01274 -0.46383,-0.17997 -0.47657,-0.43043z" fill="#000000"/><path d="M238.20786,181.52677c-0.13232,-0.13387 -0.13106,-0.34966 0.00281,-0.48198c0.13387,-0.13232 0.34966,-0.13106 0.48198,0.00281c0.13232,0.13387 0.00835,0.19831 -0.12552,0.33063c-0.13387,0.13232 -0.22695,0.28242 -0.35927,0.14855z" fill="#c478a9"/><path d="M238.57015,181.81005c0.03478,-0.07864 0.27612,-0.22836 0.49814,-0.13018c0.22203,0.09819 0.36835,0.29918 0.33358,0.37781c-0.03477,0.07863 -0.30221,0.19679 -0.52423,0.09861c-0.22202,-0.09818 -0.34225,-0.26761 -0.30747,-0.34625z" fill="#000000"/><path d="M240.46404,181.47616c0.05786,0.0636 -0.00258,0.26235 -0.18215,0.42573c-0.17956,0.16339 -0.47063,0.1359 -0.52849,0.0723c-0.05786,-0.0636 0.01736,-0.30055 0.19692,-0.46394c0.17956,-0.16339 0.45587,-0.0977 0.51373,-0.0341z" data-paper-data="{&quot;index&quot;:null}" fill="#000000"/><path d="M238.8715,181.85318c0.03682,-0.08326 0.13416,-0.1209 0.21741,-0.08408c0.08326,0.03682 0.12091,0.13416 0.08409,0.21742c-0.03682,0.08326 -0.13416,0.12091 -0.21742,0.08409c-0.08326,-0.03682 -0.1209,-0.13416 -0.08408,-0.21742z" fill="#ffffff"/><path d="M239.82896,181.72588c0.03886,-0.08788 0.14161,-0.12762 0.22949,-0.08876c0.08788,0.03886 0.12762,0.14161 0.08876,0.22949c-0.03886,0.08788 -0.14161,0.12762 -0.22949,0.08876c-0.08788,-0.03886 -0.12762,-0.14161 -0.08876,-0.22949z" fill="#ffffff"/></g><path d="M239.73526,182.18412c0.01483,0.06405 -0.04491,0.15139 -0.13852,0.17307c-0.09361,0.02167 -0.18567,-0.03052 -0.2005,-0.09458c-0.01483,-0.06405 0.32419,-0.14254 0.33902,-0.07849z" fill="#000000"/><path d="M239.15262,182.45722c0.0053,0.07568 -0.1049,0.14507 -0.24616,0.15498c-0.14126,0.00992 -0.26009,-0.04339 -0.26541,-0.11907c-0.0053,-0.07568 0.1049,-0.14507 0.24616,-0.15498c0.14126,-0.00992 0.26009,0.04339 0.26541,0.11907z" fill="#ad597c"/><path d="M240.61562,182.183c0.0053,0.07568 -0.1049,0.14507 -0.24616,0.15498c-0.14126,0.00992 -0.26009,-0.04339 -0.26541,-0.11907c-0.0053,-0.07568 0.1049,-0.14507 0.24616,-0.15498c0.14126,-0.00992 0.26009,0.04339 0.26541,0.11907z" fill="#ad597c"/></g><g fill="#83c4ac"><path d="M238.60678,179.18859l0.06897,-0.6326c0,0 0.39315,-0.02718 0.58537,0.01848c0.17599,0.04181 0.52355,0.24497 0.52355,0.24497l-0.00176,0.2023c0,0 -0.33297,0.02846 -0.53911,0.0577c-0.1832,0.02599 -0.63703,0.10913 -0.63703,0.10913z"/><path d="M239.96231,179.71975c-0.06404,-0.19811 -0.20506,-0.69442 -0.20506,-0.69442l-0.01735,-0.23645c0,0 0.55404,0.55416 0.66874,0.69403c0.12528,0.15277 0.27312,0.51808 0.27312,0.51808l-0.53841,0.33919c0,0 -0.12414,-0.44437 -0.18104,-0.62043z" data-paper-data="{&quot;index&quot;:null}"/><path d="M238.80973,180.15639c0,0 0.18778,-0.42608 0.33135,-0.68672c0.14358,-0.26064 0.33551,-0.52383 0.33551,-0.52383l0.26755,0.08908c0,0 -0.24619,0.41821 -0.38704,0.69481c-0.14085,0.2766 -0.39053,0.83217 -0.39053,0.83217z"/><path d="M239.11069,180.69873c0,0 0.24159,-0.58839 0.35143,-0.8787c0.10985,-0.29031 0.27919,-0.8448 0.27919,-0.8448l0.19843,0.1462c0,0 -0.1168,0.50104 -0.213,0.78263c-0.0962,0.28159 -0.28505,0.70719 -0.28505,0.70719z" data-paper-data="{&quot;index&quot;:null}"/></g></g><g stroke-width="0" stroke-linecap="butt" stroke-linejoin="miter"><path d="M246.28757,199.34434c0.09368,-2.15899 2.57201,-3.56499 2.57201,-3.56499l0.95691,0.00271c0,0 -0.50934,0.73617 -1.10691,3.49571c0.3784,1.85177 0.68349,4.08919 0.68349,4.08919c0,0 0.34627,0.06264 -0.38019,0.01952c-0.72647,-0.04312 -0.46181,-0.07179 -0.46181,-0.07179c0,0 -2.39496,-0.94092 -2.26347,-3.97034z" fill="#cacacd" stroke="none"/><path d="M249.46846,203.39969c0,0 -1.55563,-1.06457 -1.42955,-3.65318c0.13392,-2.74926 1.74901,-3.98053 1.74901,-3.98053c0,0 2.85294,0.1953 2.65676,3.92018c-0.17481,3.31923 -2.9762,3.71354 -2.9762,3.71354z" fill="#c2e266" stroke="#000000"/><path d="M246.16985,195.81832l-0.44784,7.40276c0,0 -3.88107,-0.29526 -3.75714,-3.86207c0.12574,-3.61844 4.20498,-3.54069 4.20498,-3.54069z" fill="#c2e266" stroke="none"/><path d="M246.26658,195.80853l-1.92896,3.71617l1.37832,3.68945l-0.27943,-0.01203c0,0 -1.90142,-0.83418 -1.81122,-3.72041c0.09243,-2.85297 2.29127,-3.67746 2.29127,-3.67746z" fill="#cacacd" stroke="none"/><path d="M244.09264,199.3052c0.1623,-2.10266 2.0613,-3.51732 2.0613,-3.51732l3.14185,0.00957c0,0 -1.77314,2.31399 -1.87509,3.93923c-0.10195,1.62523 1.40054,3.62632 1.40054,3.62632l-3.10397,-0.13662c0,0 -1.85237,-0.97082 -1.62462,-3.92117z" fill="#c274a1" stroke="none"/><path d="M248.76786,193.36783c0,0 -0.63109,-0.14114 -1.03736,-0.17224c-0.40628,-0.0311 -0.97848,0.01794 -0.97848,0.01794l1.12539,-11.23593c0,0 0.66798,-0.178 1.09977,-0.14604c0.43178,0.03195 0.80911,0.28732 0.80911,0.28732l-1.01845,11.24897z" fill="#c2e266" stroke="none"/><path d="M248.98273,195.87705l-2.78577,0.00062c0,0 0.06073,-2.40417 0.35351,-2.58747c0.49585,-0.31043 2.20839,-0.09156 2.46012,0.2391c0.06631,0.08712 -0.02786,2.34773 -0.02786,2.34773z" fill="#cacacd" stroke="none"/></g><g><g data-paper-data="{&quot;index&quot;:null}" fill="#86cbb6" stroke="none" stroke-width="0" stroke-linecap="butt" stroke-linejoin="miter"><path d="M237.43009,169.21515c-0.48162,0.02997 -1.04489,0.12896 -1.04489,0.12896l0.03267,-1.02618c0,0 0.9065,-0.00901 1.32537,0.10159c0.41887,0.11061 1.09673,0.61455 1.09673,0.61455l-0.6654,0.18652c0,0 -0.26287,-0.03542 -0.74447,-0.00545z"/><path d="M236.54138,170.1073c0,0 0.42498,-0.31818 0.66855,-0.48585c0.30362,-0.209 1.01301,-0.67172 1.01301,-0.67172l0.59457,0.04162c0,0 -0.86266,0.85388 -1.12831,1.13889c-0.19286,0.20692 -0.60498,0.64584 -0.60498,0.64584z"/></g><g stroke="none" stroke-width="0" stroke-linecap="butt" stroke-linejoin="miter"><path d="M238.07496,165.88295c0.78592,-0.32941 1.21711,0.00819 1.55605,0.38146c0.44536,0.48419 0.79738,1.21518 0.79738,1.21518c0,0 -0.88139,0.49602 -1.28302,0.92271c-0.40163,0.42669 -0.79367,1.28357 -0.79367,1.28357c0,0 -1.21069,-1.18558 -1.19137,-2.09557c0.01932,-0.90999 0.18071,-1.29334 0.91464,-1.70735z" data-paper-data="{&quot;index&quot;:null}" fill="#20201f"/><path d="M237.37781,166.6854c0.25668,-0.46877 0.84272,1.02653 0.84272,1.02653l-0.86304,0.58736c0,0 -0.31211,-1.00678 0.02033,-1.61389z" data-paper-data="{&quot;index&quot;:null}" fill="#b2b1b2"/></g><path d="M244.54795,166.95991c3.27328,0.65505 5.46881,3.47456 4.90387,6.29755c-0.56494,2.82298 -3.67642,4.58043 -6.9497,3.92537c-3.27328,-0.65505 -5.46882,-3.47455 -4.90388,-6.29753c0.56494,-2.82298 3.67642,-4.58044 6.94971,-3.92538z" fill="#f79eb4" stroke="none" stroke-width="0" stroke-linecap="butt" stroke-linejoin="miter"/><path d="M238.09904,172.274c-0.00005,-0.00073 -0.03555,1.18335 0.23625,1.89802c0.27181,0.71467 1.45541,2.71 1.45541,2.71l0.09833,0.9489c0,0 -1.43969,-0.34697 -2.20121,-2.71171c-0.47663,-1.46598 -0.23926,-2.50001 -0.23628,-2.48298" fill="#f79eb4" stroke="#f89db5" stroke-width="0" stroke-linecap="butt" stroke-linejoin="round"/><g fill="#ffd5c5" stroke="none" stroke-width="1" stroke-linecap="round" stroke-linejoin="round"><path d="M238.53359,174.80369c0.02404,-0.05461 0.09355,0.07901 0.12757,0.12804c0.2103,0.30273 0.55809,0.07066 0.78193,-0.04208c0.17199,-0.08658 0.42775,-0.09965 0.61308,-0.06483c0.88989,0.17688 2.48532,1.09811 2.79036,1.17279c0.28391,0.06951 1.20795,-0.22405 1.53286,-0.2667c0.33334,-0.04376 0.57882,0.10838 0.61886,0.15454c0.08394,0.09683 0.69046,0.72725 -0.45288,1.55152c-0.15886,0.11452 -1.08784,0.46714 -1.56254,0.42915c-0.39804,-0.0319 -1.79072,-0.10861 -2.74759,-0.65719c-0.76258,-0.43721 -1.18293,-0.92128 -1.23651,-0.98335c-0.32744,-0.37947 -0.68547,-0.92071 -0.46516,-1.42187z"/><path d=""/></g><g fill="none" stroke="none" stroke-width="1" stroke-linecap="butt" stroke-linejoin="miter" font-family="sans-serif" font-weight="normal" font-size="12" text-anchor="start"/><g fill="#000000" stroke="none" stroke-width="1" stroke-linecap="round" stroke-linejoin="round"><path d="M239.65734,175.42186c-0.10925,-0.01437 -0.43191,-0.33059 -0.25443,-0.4131c0.10259,-0.0477 0.63283,-0.00126 0.75796,0.13397c0.16462,0.17794 -0.26211,0.2912 -0.50352,0.27913z"/><path d=""/></g><path d="M247.83291,173.38657c0.01969,0.01796 -0.58647,2.2314 -0.83393,2.71505c-0.37132,0.72573 -0.86864,1.38783 -1.51032,1.89507c-0.27282,0.21565 -0.54488,0.38435 -0.84786,0.54895c-0.09808,0.0533 -0.49486,0.21295 -0.49486,0.21295c0,0 0.57731,-0.93319 0.94284,-2.55094c0.19409,-0.85908 0.45859,-2.79349 0.46826,-2.7375" fill="#f79eb4" stroke="#f89db5" stroke-width="0" stroke-linecap="butt" stroke-linejoin="round"/><path d="M249.31701,173.00065c0.10569,0.38774 -0.36124,2.19766 -0.98988,3.45763c-0.48446,0.97098 -0.81361,1.19305 -1.40951,1.64206c-0.67486,0.50849 -1.0906,0.49 -1.0906,0.49c0,0 0.68489,-1.04167 0.98121,-1.776c0.29633,-0.73433 1.13514,-3.42284 1.12365,-3.44007" fill="#f79eb4" stroke="#f89db5" stroke-width="0" stroke-linecap="butt" stroke-linejoin="round"/><g stroke="none" stroke-width="1" stroke-linecap="round" stroke-linejoin="round"><path d="M240.081,168.06348c0.12157,-0.09601 2.83521,-1.37806 5.68073,-0.34177c3.50944,1.31926 3.06362,5.41514 3.06114,5.41399c-0.03449,-0.01603 -0.30724,-1.67099 -1.11068,-2.53365c-1.04177,-1.11861 -1.64489,-1.76784 -2.93794,-2.24778c-1.64058,-0.60894 -4.2731,0.2827 -4.37667,0.319" fill="#20201f"/><path d="" fill="#ee1a40"/></g><path d="M239.45361,170.77553c-0.02454,-0.02964 -1.57076,-0.5354 -2.16962,-0.43507c-1.09678,0.18375 -2.96536,0.76172 -2.9886,0.75956c-0.01619,-0.00156 0.65562,-0.46817 1.10511,-1.07051c0.40625,-0.67992 1.52101,-0.99567 1.84806,-1.01123c1.83315,-0.07735 2.64477,0.69632 2.62613,0.67381" fill="#f79eb4" stroke="#f89db5" stroke-width="0" stroke-linecap="butt" stroke-linejoin="round"/><path d="M239.86583,169.69278c-0.08554,-0.10224 -1.14738,-1.1887 -2.12696,-1.58407c-0.70607,-0.28497 -2.33946,-1.58654 -2.33946,-1.58654c0,0 1.52011,0.62065 3.55533,0.93419c0.58661,0.14947 0.73783,0.25019 0.9637,0.55361c0.22587,0.30342 0.78716,1.80236 0.77976,1.8856" fill="#f79eb4" stroke="#f89db5" stroke-width="0" stroke-linecap="butt" stroke-linejoin="round"/><path d="M239.30853,171.78795c-0.12936,0.06007 -1.37175,0.27142 -1.64602,0.50863c-0.81142,0.71006 -2.09163,0.91584 -2.06232,0.94695c0.00134,0.00144 0.73924,-0.80304 0.88364,-1.39617c0.0127,-0.15049 0.98661,-0.98746 1.25692,-1.07942c0.94093,-0.32008 1.80283,0.0869 1.75712,0.10809" fill="#f79eb4" stroke="#f89db5" stroke-width="0" stroke-linecap="butt" stroke-linejoin="round"/><g fill="none" stroke="none" stroke-width="1" stroke-linecap="butt" stroke-linejoin="miter" font-family="sans-serif" font-weight="normal" font-size="12" text-anchor="start"/><g fill="none" stroke="none" stroke-width="1" stroke-linecap="butt" stroke-linejoin="miter" font-family="sans-serif" font-weight="normal" font-size="12" text-anchor="start"/><g fill="none" stroke="none" stroke-width="1" stroke-linecap="butt" stroke-linejoin="miter" font-family="sans-serif" font-weight="normal" font-size="12" text-anchor="start"/><path d="M242.68689,176.89822c0,0 0.5641,0.10622 0.7627,0.12403c0.1986,0.01781 -0.58729,0.2538 -0.58729,0.2538" data-paper-data="{&quot;index&quot;:null}" fill="none" stroke="#000000" stroke-width="0.125" stroke-linecap="round" stroke-linejoin="miter"/><g fill="#86cbb6" stroke="none" stroke-width="0" stroke-linecap="butt" stroke-linejoin="miter"><path d="M247.70641,170.65184l-0.64834,-0.5119c0,0 0.9797,-0.24418 1.49272,-0.17353c0.51303,0.07066 1.50904,0.49759 1.50904,0.49759l-0.43601,1.14723c0,0 -0.57593,-0.36833 -1.09351,-0.62294c-0.51758,-0.25462 -0.8239,-0.33646 -0.8239,-0.33646z"/><path d="M248.19387,172.86961c0,0 -0.25278,-0.67384 -0.37037,-0.99086c-0.16198,-0.43666 -0.72097,-1.77559 -0.72097,-1.77559l0.67515,0.22758c0,0 0.56983,0.83684 0.80865,1.2071c0.19159,0.29703 0.51411,0.84359 0.51411,0.84359z"/></g><path d="M248.22357,169.07718c-0.06976,1.24266 -1.00061,2.0911 -1.00061,2.0911c0,0 -0.21068,-0.41228 -1.59162,-1.44844c-0.80726,-0.60571 -1.85155,-1.13877 -1.85155,-1.13877c0,0 0.55711,-0.95941 1.21543,-1.57248c0.50152,-0.4731 1.12502,-0.88782 2.1617,-0.35572c0.95687,0.64196 1.13641,1.18164 1.06664,2.4243z" fill="#20201f" stroke="none" stroke-width="0" stroke-linecap="butt" stroke-linejoin="miter"/><path d="M246.96429,169.44181c0,0 -0.162,-0.20599 -1.01139,-0.67384c-0.49654,-0.27348 -1.10692,-0.49461 -1.10692,-0.49461c0,0 0.67451,-1.12404 1.6159,-0.64864c0.99251,0.50122 0.50241,1.81709 0.50241,1.81709z" fill="#b2b1b2" stroke="none" stroke-width="0" stroke-linecap="butt" stroke-linejoin="miter"/></g><g stroke="none" stroke-width="0" stroke-linecap="butt" stroke-linejoin="miter"><path d="M244.94713,181.79895c0.89734,-1.17184 2.29309,-1.61005 3.11748,-0.97877c0.8244,0.63128 0.76525,2.09301 -0.1321,3.26484c-0.89735,1.17184 -2.2931,1.61006 -3.11748,0.97878c-0.82439,-0.63128 -0.76524,-2.09301 0.1321,-3.26485z" fill="#20201f"/><path d="M241.75274,178.82998c-0.22605,-0.31977 -0.12957,-0.51582 0.03435,-0.65489c0.244,-0.207 0.48757,-0.18413 0.7,0.04645c0.84773,0.92023 1.60576,1.70932 2.22833,2.30648c0.37954,0.36405 1.91239,1.73089 1.91239,1.73089l-0.82673,0.89738c0,0 -0.81146,-0.83133 -1.75225,-1.73373c-0.65803,-0.63116 -1.61344,-1.62691 -2.2961,-2.5926z" fill="#fed5c7"/><path d="M243.26116,180.9365l-0.77616,-0.84322l0.95606,-1.07953l0.79698,0.81602z" fill="#83c4ac"/><path d="M241.39727,179.5529c-0.45922,-0.47453 -0.51438,-1.20365 -0.09727,-1.65611c0.4171,-0.45247 1.13693,-0.44461 1.60776,0.01757c0.83705,0.82167 0.66325,1.31764 0.24614,1.77011c-0.4171,0.45247 -0.99105,0.65953 -1.75663,-0.13158z" fill="#20201f"/><path d="M244.01563,182.2044l-0.80248,-1.26151l0.9977,-1.13391l1.39013,0.71943l-0.30383,0.58915l-0.79347,0.82148z" fill="#bebec0"/><g><path d="M245.96868,184.20956l1.65409,-1.95525c0,0 0.34648,-0.15492 0.91235,-0.00375c0.36749,0.09816 0.80555,0.54874 0.80555,0.54874c0,0 -0.17969,-0.71942 0.41741,-0.79612c0.38338,-0.04925 1.02868,0.91116 1.17239,1.30054c0.0846,0.22923 0.0949,0.67945 -0.05108,0.99899c-0.09208,0.20157 -0.35634,0.35551 -0.35634,0.35551c0,0 0.20666,0.334 -0.12893,0.58462c-0.10281,0.07679 -0.22173,0.21075 -0.22173,0.21075c0,0 0.07285,0.28482 0.05005,0.44099c-0.02281,0.15618 -0.18697,0.35864 -0.18697,0.35864l-0.42555,0.102c0,0 -0.09973,0.55541 -0.17286,0.6451c-0.28681,0.35184 -0.76822,0.20478 -1.02711,0.12753c-0.47399,-0.14144 -1.46738,-0.60682 -1.53332,-0.73191c-0.41379,-0.78514 -0.90795,-2.18639 -0.90795,-2.18639z" fill="#20201f"/><path d="M249.34067,182.79931c0,0 -0.17969,-0.71942 0.41741,-0.79612c0.38338,-0.04925 0.73448,0.35441 0.87818,0.74379c0.0846,0.22923 -1.29559,0.05233 -1.29559,0.05233z" fill="#c0c2c6"/></g></g><path d="M235.38582,173.12272l-1.6848,1.62935c0,0 -0.32966,0.10943 -0.83113,-0.07991c-0.32568,-0.12296 -0.73018,-0.16981 -1.57188,-0.67274c-0.8417,-0.50294 -2.02382,-1.3156 -1.89999,-1.57911c0.32603,-0.22715 1.92181,0.39466 1.92181,0.39466c0,0 -1.80403,-1.37975 -1.55654,-1.79572c0.42152,-0.15082 2.02584,0.84973 2.02584,0.84973c0,0 -1.72592,-1.83891 -1.47255,-2.12287c0.26203,-0.29366 2.31812,1.212 2.31812,1.212c0,0 -1.54304,-1.69415 -1.05683,-1.93301c0.27112,-0.13319 1.06989,0.61351 1.88773,1.2954c0.46205,0.38525 0.83127,0.57627 0.83127,0.57627c0,0 -0.99255,-2.11044 0.02149,-1.67994c0.76097,0.32306 1.28157,1.63688 1.41918,2.26681c0.1376,0.62995 -0.35176,1.63907 -0.35176,1.63907z" fill="#20201f" stroke="none" stroke-width="0" stroke-linecap="butt" stroke-linejoin="miter"/><path d="M239.84819,174.46051c0,0 -1.03125,0.67087 -1.46424,-0.05589c-0.18173,-0.30504 0.19143,-1.50766 0.10142,-1.86907c-0.12445,-0.49965 -0.67537,-0.12301 -0.67537,-0.12301" fill="none" stroke="#000000" stroke-width="0.5" stroke-linecap="round" stroke-linejoin="miter"/><path d="M245.19742,174.67797c0,0 0.25284,-0.75347 -0.31565,-0.3768c-0.33088,0.21925 -0.59782,1.61486 -1.22649,1.6817c-1.31271,0.17606 -1.99476,-0.94943 -1.99476,-0.94943" fill="none" stroke="#000000" stroke-width="0.5" stroke-linecap="round" stroke-linejoin="miter"/><path d="M240.29664,172.69011l-1.4464,-1.968" fill="none" stroke="#000000" stroke-width="0.5" stroke-linecap="round" stroke-linejoin="miter"/><path d="M245.87014,172.79791l-3.23715,1.09032" fill="none" stroke="#000000" stroke-width="0.5" stroke-linecap="round" stroke-linejoin="miter"/><path d="M230.31199,173.36077c0,0 -0.99221,-0.77398 -0.91397,-0.94046c0.15032,-0.10473 0.97991,0.08308 0.97991,0.08308z" fill="#c0c2c6" stroke="none" stroke-width="0" stroke-linecap="butt" stroke-linejoin="miter"/><path d="M230.43489,172.05997c0,0 -0.79399,-0.83503 -0.6716,-1.04072c0.20495,-0.07333 1.13337,0.34924 1.13337,0.34924z" fill="#c0c2c6" stroke="none" stroke-width="0" stroke-linecap="butt" stroke-linejoin="miter"/><path d="M230.86788,170.80126c0,0 -0.66841,-0.9239 -0.5513,-1.05515c0.11756,-0.13175 1.08831,0.3928 1.08831,0.3928z" fill="#c0c2c6" stroke="none" stroke-width="0" stroke-linecap="butt" stroke-linejoin="miter"/><path d="M232.00395,170.19064c0,0 -0.68889,-1.03643 -0.42608,-1.16554c0.1761,-0.08651 1.05673,0.59521 1.05673,0.59521z" fill="#c0c2c6" stroke="none" stroke-width="0" stroke-linecap="butt" stroke-linejoin="miter"/><path d="M233.96457,170.02973c0,0 -0.34642,-1.07058 0.20819,-0.83513c0.52866,0.08748 0.89698,0.7216 0.89698,0.7216z" fill="#c0c2c6" stroke="none" stroke-width="0" stroke-linecap="butt" stroke-linejoin="miter"/></g></g></svg>