<svg version="1.1" xmlns="http://www.w3.org/2000/svg" xmlns:xlink="http://www.w3.org/1999/xlink" width="26.50238" height="25.45437" viewBox="0,0,26.50238,25.45437"><g transform="translate(-225.06156,-185.79706)"><g data-paper-data="{&quot;isPaintingLayer&quot;:true}" fill-rule="nonzero" stroke-linejoin="miter" stroke-miterlimit="10" stroke-dasharray="" stroke-dashoffset="0" style="mix-blend-mode: normal"><g data-paper-data="{&quot;index&quot;:null}"><g data-paper-data="{&quot;index&quot;:null}" stroke="none" stroke-width="0" stroke-linecap="butt"><path d="M237.72539,206.00191c0,0 -1.39667,-1.28244 -2.25976,-2.49776c-0.47574,-0.6699 -0.93961,-1.63969 -1.27936,-2.13196c-0.57404,-0.83177 -0.98917,-0.81317 -0.98917,-0.81317c0,0 1.0729,-0.10823 1.55194,-0.05314c0.47903,0.05506 0.93596,0.12183 0.92061,0.30072c-0.01535,0.17888 2.05577,5.19532 2.05577,5.19532z" fill="#54c81c"/><path d="M236.94426,205.08946c-1.85088,-2.41491 -1.6114,-4.51393 -1.6114,-4.51393c0,0 2.27916,0.14952 4.04697,2.88503c1.38169,2.13802 1.15724,3.42219 1.47319,3.81318c0.91866,1.13681 0.60671,0.97783 0.60671,0.97783c0,0 -1.94399,0.19304 -4.51546,-3.16205z" fill="#ffffff"/></g><path d="M235.2358,202.07791l0.59272,0.32929" fill="none" stroke="#ffffff" stroke-width="0.25" stroke-linecap="round"/><path d="M234.95352,201.09004l0.5551,0.19757" fill="none" stroke="#ffffff" stroke-width="0.25" stroke-linecap="round"/></g><g data-paper-data="{&quot;index&quot;:null}"><g data-paper-data="{&quot;index&quot;:null}" stroke="none" stroke-width="0" stroke-linecap="butt"><path d="M225.13575,205.80907c-0.61468,-1.11688 2.76278,-0.85772 3.77283,-0.68481c1.19012,0.05661 3.22183,1.04267 3.22183,1.04267c0,0 1.44213,0.59762 0.50912,0.96982c-0.43433,0.17327 -0.84493,0.3699 -1.2657,0.51263c-0.48314,0.16387 -0.97969,0.25662 -1.54093,0.16125c0,0 -3.85572,-0.47267 -4.69715,-2.00154z" data-paper-data="{&quot;index&quot;:null}" fill="#54c81c"/><path d="M235.17994,206.34721l5.58989,0.59228l-0.02504,1.46711c0,0 -3.61729,-0.18859 -5.60493,-0.66781c-0.62495,-0.17125 -4.77923,-0.57132 -4.77923,-0.57132c0,0 -2.32362,-0.35071 -2.84752,-0.71043c-0.66643,-0.45761 0.46253,-0.94816 0.82267,-0.94959c0,0 1.34457,0.26048 2.19057,0.38925c1.2506,0.19037 4.65356,0.45051 4.65356,0.45051z" data-paper-data="{&quot;index&quot;:null}" fill="#ffffff"/></g><path d="M227.81242,206.39383l-0.3994,0.30916" fill="none" stroke="#000000" stroke-width="0.5" stroke-linecap="round"/><path d="M228.77733,206.73275l-0.39038,0.23831" fill="none" stroke="#000000" stroke-width="0.5" stroke-linecap="round"/></g><g data-paper-data="{&quot;index&quot;:null}"><g data-paper-data="{&quot;index&quot;:null}" stroke="none" stroke-width="0" stroke-linecap="butt"><path d="M225.90597,201.92912c-0.27993,-1.24375 2.89232,-0.05575 3.81448,0.39116c1.12746,0.38525 2.80491,1.89731 2.80491,1.89731c0,0 1.21914,0.97503 0.2194,1.07314c-0.46538,0.04567 -0.91447,0.12039 -1.35833,0.14049c-0.50964,0.02307 -1.0124,-0.02587 -1.52501,-0.27353c0,0 -3.57228,-1.52606 -3.95545,-3.22859z" data-paper-data="{&quot;index&quot;:null}" fill="#54c81c"/><path d="M235.40449,205.23861l5.20482,2.1231l-0.43196,1.40233c0,0 -3.42225,-1.18689 -5.19828,-2.19984c-0.55269,-0.33826 -4.43192,-1.87758 -4.43192,-1.87758c0,0 -2.1345,-0.98292 -2.53774,-1.47413c-0.51292,-0.62484 0.70792,-0.78217 1.05424,-0.68341c0,0 1.21915,0.62404 1.99599,0.98296c1.14836,0.53054 4.34483,1.72659 4.34483,1.72659z" data-paper-data="{&quot;index&quot;:null}" fill="#ffffff"/></g><path d="M228.78764,204.23985l0.49799,-0.25146" fill="none" stroke="#000000" stroke-width="0.5" stroke-linecap="round"/><path d="M228.45299,203.39456l-0.46961,0.18593" fill="none" stroke="#000000" stroke-width="0.5" stroke-linecap="round"/></g><g data-paper-data="{&quot;index&quot;:null}"><g data-paper-data="{&quot;index&quot;:null}" stroke="none" stroke-width="0" stroke-linecap="butt"><path d="M229.32979,206.07977c0,0 1.01255,-2.27978 2.75036,-2.76501c1.31373,-0.36682 3.33932,-0.24058 3.33932,-0.24058l-0.22507,5.12728c0,0 -2.43914,-1.472 -3.51554,-1.82322c-1.07641,-0.35124 -2.34906,-0.29844 -2.34906,-0.29844z" fill="#54c81c"/><path d="M232.24083,204.63729c0.32156,-1.47681 2.42864,-1.72655 3.17865,-1.56315c0.74434,0.16217 1.9375,-0.02846 3.94316,1.96347c1.36791,1.35855 2.56236,1.19946 2.56236,1.19946l0.15674,0.86484c0,0 -2.52009,2.26867 -4.67553,1.97725c-2.01648,-0.27263 -5.4745,-3.02223 -5.16536,-4.44186z" fill="#ffffff"/></g><path d="M232.43385,206.02927l0.56453,0.13817" fill="none" stroke="#ffffff" stroke-width="0.25" stroke-linecap="round"/><path d="M231.97001,204.86865l0.529,0.07961" fill="none" stroke="#ffffff" stroke-width="0.25" stroke-linecap="round"/><path d="M233.03455,203.98238l-0.69413,-0.21973" fill="none" stroke="#ffffff" stroke-width="0.25" stroke-linecap="round"/></g><g data-paper-data="{&quot;index&quot;:null}"><g data-paper-data="{&quot;index&quot;:null}" stroke="none" stroke-width="0" stroke-linecap="butt"><path d="M230.19775,209.30467c0,0 1.21373,-0.18018 1.95665,-0.42449c0.74293,-0.2443 3.36404,-1.61972 3.36404,-1.61972c0,0 -2.78018,1.74114 -2.75153,2.50013c0.02866,0.7591 2.89819,1.18615 2.27029,1.33764c-3.31628,0.80004 -4.83942,-1.7936 -4.83942,-1.7936z" fill="#54c81c"/><path d="M241.96578,207.69032c0,0 -2.38329,1.53686 -3.99388,2.44718c-1.95156,1.10305 -4.51024,1.1651 -5.39937,0.54432c-0.88913,-0.62077 1.63213,-2.89002 3.02735,-3.3634c1.51125,-0.51275 6.36591,0.37192 6.36591,0.37192z" fill="#ffffff"/></g><path d="M232.39599,209.37039l0.88965,0.07776" fill="none" stroke="#ffffff" stroke-width="0.25" stroke-linecap="round"/><path d="M232.04353,210.32569l0.58339,0.08263" fill="none" stroke="#ffffff" stroke-width="0.25" stroke-linecap="round"/></g><g data-paper-data="{&quot;index&quot;:null}"><g data-paper-data="{&quot;index&quot;:null}" stroke="none" stroke-width="0" stroke-linecap="butt"><path d="M236.17345,205.83752c0,0 -2.33056,2.12618 -1.93295,3.01973c0.40348,0.90679 3.68443,1.61614 3.68443,1.61614c0,0 -0.98397,0.79441 -3.49858,0.28054c-1.45251,-0.29495 -4.6054,-1.90702 -4.6054,-1.90702c0,0 2.15935,-1.08892 3.39114,-2.06321c1.02335,-0.80939 2.96134,-0.9462 2.96134,-0.9462z" fill="#54c81c"/><path d="M237.90242,210.56963c-0.15749,0.04508 -2.98538,-0.15006 -3.86315,-1.54847c-0.74657,-1.25547 2.1016,-3.17279 2.1016,-3.17279c0,0 1.58711,-0.47126 2.87404,-0.66966c1.54614,-0.23837 2.95126,0.87653 3.3987,1.66458c0.44744,0.78805 -0.4224,0.15002 -1.44004,1.75059c-0.76675,1.20594 -2.92023,1.93258 -3.07116,1.97577z" fill="#ffffff"/></g><path d="M234.23245,207.21038l0.53408,-0.03043" fill="none" stroke="#ffffff" stroke-width="0.25" stroke-linecap="round"/><path d="M233.5411,208.48831l0.50754,0.1204" fill="none" stroke="#ffffff" stroke-width="0.25" stroke-linecap="round"/><path d="M234.3704,209.78498l0.76647,-0.11395" fill="none" stroke="#ffffff" stroke-width="0.25" stroke-linecap="round"/></g><g><path d="M239.92492,201.97758l-0.82128,0.29939l0.03818,-3.22889l0.73072,-0.02268z" data-paper-data="{&quot;index&quot;:null}" fill="#319a2b" stroke="#ffffff" stroke-width="0" stroke-linecap="butt"/><path d="M240.03909,198.93009c-0.23631,0.7149 -0.83225,0.59699 -0.95627,0.09341c-0.29967,-1.21676 -0.16706,-3.72104 -0.16706,-3.72104l1.4416,-0.62619c0,0 -0.09738,3.58555 -0.31828,4.25382z" data-paper-data="{&quot;index&quot;:null}" fill="#ead42f" stroke="#ffffff" stroke-width="0" stroke-linecap="butt"/><path d="M240.08734,195.68985c-0.84359,0.298 -2.54059,-1.48807 -2.20087,-3.55687c0.28047,-1.70803 0.50913,-2.53674 1.67941,-3.11667c0.37014,-0.1834 1.62704,1.64262 1.46457,3.37206c-0.16247,1.72942 -0.66691,3.20392 -0.94311,3.30148z" data-paper-data="{&quot;index&quot;:null}" fill="#f0e9bb" stroke="#ffffff" stroke-width="0" stroke-linecap="butt"/><path d="M240.3666,195.03392c0,0 -0.9718,-1.43694 -1.32797,-2.50389c-0.35617,-1.06696 -0.24284,-2.86897 -0.24284,-2.86897" data-paper-data="{&quot;index&quot;:null}" fill="none" stroke="#d3c49c" stroke-width="0.25" stroke-linecap="round"/><path d="M239.51492,194.38966l0.7235,-0.47906" data-paper-data="{&quot;index&quot;:null}" fill="none" stroke="#ffffff" stroke-width="0.5" stroke-linecap="round"/><path d="M239.51638,192.65377l-0.58566,0.34648" data-paper-data="{&quot;index&quot;:null}" fill="none" stroke="#ffffff" stroke-width="0.5" stroke-linecap="round"/><path d="M238.61328,191.73368l0.6028,-0.25457" data-paper-data="{&quot;index&quot;:null}" fill="none" stroke="#ffffff" stroke-width="0.5" stroke-linecap="round"/><path d="M239.05361,190.17196l-0.46496,0.12198" data-paper-data="{&quot;index&quot;:null}" fill="none" stroke="#ffffff" stroke-width="0.5" stroke-linecap="round"/></g><g data-paper-data="{&quot;index&quot;:null}"><path d="M243.05492,207.70538c-0.36591,0.39828 -2.69739,-0.28309 -2.69739,-0.28309c-0.24658,-0.28197 -1.67704,-0.07531 -1.70209,-0.53654c-0.00974,-0.1801 0.14956,-1.14428 0.32786,-1.71279c0.1783,-0.56852 -0.05954,-0.98345 0.64221,-1.38034c0.70175,-0.39689 1.90661,-0.1482 2.06043,-0.1482c0.12177,0 0.72348,0.19835 1.07941,1.25421c0.35594,1.05586 0.59384,2.36369 0.28957,2.80676z" data-paper-data="{&quot;index&quot;:null}" fill="#319a2b" stroke="none" stroke-width="0.17188" stroke-linecap="butt"/><path d="M241.68176,207.45482c0.61263,0 1.39781,-0.03289 1.39781,-0.03289l0.22399,0.60534c0,0 -0.81357,-0.32402 -1.50188,-0.15139c-0.61138,0.03439 -1.24991,-0.3092 -1.15798,-0.46382c0.178,-0.29941 0.42542,0.04276 1.03805,0.04276z" data-paper-data="{&quot;index&quot;:null}" fill="#ead42f" stroke="none" stroke-width="0" stroke-linecap="butt"/><path d="M238.59563,206.801c0,0 0.60465,0.11279 1.21306,0.18453c0.60841,0.07174 0.41111,0.46852 -0.19203,0.36277c-0.66335,-0.25204 -1.3616,-0.05504 -1.3616,-0.05504l0.34058,-0.49225z" data-paper-data="{&quot;index&quot;:null}" fill="#ead42f" stroke="none" stroke-width="0" stroke-linecap="butt"/><path d="M241.58455,207.19168l0.07853,0.38091" fill="none" stroke="#ffffff" stroke-width="0.25" stroke-linecap="round"/><path d="M242.60876,207.5768l-0.09109,-0.32829" fill="none" stroke="#ffffff" stroke-width="0.25" stroke-linecap="round"/><path d="M239.50514,207.04376l0.03093,-0.30573" fill="none" stroke="#ffffff" stroke-width="0.25" stroke-linecap="round"/><path d="M238.86603,206.68797l-0.147,0.38175" fill="none" stroke="#ffffff" stroke-width="0.25" stroke-linecap="round"/></g><g data-paper-data="{&quot;index&quot;:null}" stroke="none" stroke-linecap="butt"><path d="M240.6805,203.77495c0.17008,0.06905 0.3072,0.33949 0.39108,0.72079c0.08399,0.38126 0.11481,0.87325 0.07258,1.38519c-0.0422,0.51204 -0.14953,0.94795 -0.28883,1.23853c-0.1394,0.29062 -0.31073,0.43601 -0.48082,0.36696c-0.17021,-0.06911 -0.30722,-0.33958 -0.3912,-0.72085c-0.08388,-0.3813 -0.11481,-0.87325 -0.07258,-1.38519c0.04219,-0.51204 0.14963,-0.94798 0.28893,-1.23856c0.1393,-0.29058 0.31062,-0.43597 0.48084,-0.36686z" fill="#eb3d66" stroke-width="0.01872"/><path d="M240.56841,204.74191c0.20905,0.00794 0.3635,0.4098 0.34498,0.89758c-0.01852,0.48778 -0.203,0.87677 -0.41205,0.86883c-0.20905,-0.00794 -0.3635,-0.4098 -0.34498,-0.89758c0.01852,-0.48778 0.203,-0.87677 0.41205,-0.86883z" fill="#492116" stroke-width="0"/><path d="M240.7888,203.97866c0.07287,0.00749 0.14677,0.09569 0.20751,0.23227c0.06069,0.1365 0.10811,0.32141 0.12783,0.52204c0.01966,0.20055 0.00797,0.3793 -0.02692,0.50605c-0.03488,0.12675 -0.09285,0.20152 -0.16563,0.19397c-0.07281,-0.00742 -0.14676,-0.0957 -0.2075,-0.23228c-0.06068,-0.13652 -0.10813,-0.3213 -0.12777,-0.52198c-0.0197,-0.20063 -0.00801,-0.37938 0.02688,-0.50613c0.03481,-0.1267 0.0928,-0.20139 0.16562,-0.19397z" fill="#ffffff" stroke-width="0.01896"/></g><g><path d="M242.21814,195.17275c4.15253,1.85575 2.88198,4.80285 2.96845,5.05395c0.01994,0.2677 -0.1151,0.51941 -0.204,0.76451c-0.37032,0.87462 -0.82637,1.70912 -1.27395,2.5464c-0.16465,0.3536 -0.517,0.57186 -0.87844,0.68313c-0.38982,0.11323 -0.79864,-0.00459 -1.19047,-0.05092c-0.60267,-0.09336 -1.18974,-0.26939 -1.73751,-0.53697c-0.69073,-0.29327 -1.52155,-0.75878 -1.95047,-1.41935c-0.32966,-0.36646 -0.27011,-0.3287 -0.62107,-0.68311c-0.64254,-0.84352 -0.86799,-1.94733 -0.76229,-2.98991c0.05856,-0.62524 0.22434,-1.25166 0.53907,-1.79837c0.14639,-0.22415 1.66843,-3.10766 5.11065,-1.56935z" data-paper-data="{&quot;index&quot;:null}" fill="#f0e9bb" stroke="none" stroke-width="0.17188" stroke-linecap="butt"/><path d="M239.2099,192.83906c0.33765,0.61571 -2.6925,2.49892 -2.20356,2.17895c-0.40214,-0.57759 -0.53233,-1.41846 -0.43512,-1.984c0.00888,-0.05179 0.12066,-0.15694 0.12066,-0.15694c-0.0932,-0.01493 0.06218,-0.06925 0.10892,-0.15355c0.03672,-0.06634 0.02661,-0.24492 0.02661,-0.24492c-0.05035,0.0107 0.20091,-0.01225 0.30694,-0.05253c0.08759,-0.03323 0.076,-0.08411 0.14303,-0.09905c0.47097,-0.1062 1.13784,0.02574 1.93256,0.51203z" data-paper-data="{&quot;index&quot;:null}" fill="#ed3e67" stroke="none" stroke-width="0.17188" stroke-linecap="butt"/><path d="M245.08821,200.0416c-0.01353,-0.10546 -0.09359,-0.20054 -0.2047,-0.35069c-0.08344,-0.11294 -0.2452,-0.33269 -0.28757,-0.42927c-0.10639,-0.24245 -0.96923,-0.64061 -1.93963,-0.6324c-0.9704,0.0082 -2.00683,1.05951 -2.10058,0.77483c-0.03563,-0.10825 -0.36029,-0.84681 -0.38422,-0.59827c-0.00401,0.04108 -0.44177,0.1325 -0.46205,0.15225c-0.05464,0.05291 -0.35787,-1.30785 -0.61222,-1.68847c-0.25435,-0.38061 -1.11993,-0.96243 -1.1923,-1.01871c-0.10866,-0.08465 -0.22593,-0.01769 -0.28697,0.10056c-0.07739,0.14951 -0.98646,2.01186 -0.99359,2.9746c-0.00713,0.96273 0.92352,2.62489 0.84144,2.23655c-0.03697,-0.17529 -1.10478,1.09709 -1.44617,1.11649c-0.24372,0.01407 -0.92194,-2.2866 0.16514,-4.82487c0.51654,-1.20611 1.50776,-2.59917 1.73572,-2.87845l0.4453,-0.54567c0.6421,-0.59493 1.38677,-1.0501 2.24986,-1.34392c0.05497,-0.01873 0.91054,-0.42319 2.07697,-0.32461c0.73662,0.06221 1.82658,0.49312 1.91142,0.52861c0.49751,0.20818 1.47497,0.59894 2.27282,1.17514c0.50751,0.36651 0.88609,0.86227 1.20349,1.25901c0.05709,0.07118 -1.15779,0.68731 -1.10129,0.75187c0.02749,0.03123 -0.58233,0.84179 -0.61141,0.93164l-0.19433,0.59998c-0.19641,0.60655 0.07456,1.43261 0.13656,1.5513c0.08475,0.16257 0.39594,0.67971 0.5452,0.74919l0.50284,0.23468c0.06898,0.03195 0.86859,-0.14467 0.8982,-0.08086c0.1043,0.22492 -0.36238,1.06873 -0.47206,1.22686l-0.57711,0.83234c-0.18595,0.26806 -0.27319,0.42689 -0.63301,0.75075c-0.49352,0.44456 -0.98911,0.88719 -1.60662,1.22051c-0.499,0.26945 -2.55399,0.74969 -2.46093,0.61547l0.78993,-1.14251l0.97882,-1.67416l0.8131,-2.24979z" data-paper-data="{&quot;index&quot;:null}" fill="#54c81c" stroke="none" stroke-width="0.17188" stroke-linecap="butt"/><path d="M249.42706,200.20986c-1.08878,-0.08761 -1.45883,-2.60542 -1.45883,-2.60542c0.15536,-0.35786 1.34807,-0.70907 2.30111,-0.17545c0.72835,0.40799 1.11556,0.87927 1.22739,1.30518c0.01596,0.06079 -0.03025,0.07529 -0.02048,0.16095c0.01201,0.10356 0.09892,0.31514 0.08647,0.26982c0,0 -0.14928,0.07547 -0.18761,0.13578c-0.0488,0.07672 -0.0274,0.22652 -0.07871,0.15897c0,0 -0.0383,0.1386 -0.07665,0.1699c-0.41815,0.34235 -1.15509,0.63151 -1.79267,0.5803z" data-paper-data="{&quot;index&quot;:null}" fill="#ed3e67" stroke="none" stroke-width="0.17188" stroke-linecap="butt"/><path d="M246.96161,197.92655c0.06338,0.10267 0.20772,-0.48333 0.56168,-0.96271c0.37791,-0.51193 0.97953,-0.91758 1.48118,-0.7328c0.28963,0.10678 0.50382,0.30692 0.71272,0.47868c0.43097,0.35426 0.68984,0.7045 0.48818,0.69612c-0.34224,-0.0141 -0.80993,0.03345 -1.13844,0.10202c-0.46849,0.0977 -0.78318,0.19169 -0.77411,0.21882l0.58399,1.74487l0.56776,0.77684c0.09814,0.12044 -0.33508,0.19264 -0.78535,0.18439c-0.38872,-0.00695 -0.70667,0.09769 -0.8377,0.0825c-0.58376,-0.06676 -0.41189,-0.27772 -0.87372,-0.86606c-0.26851,-0.34215 -0.08126,-1.87721 0.01378,-1.72266z" data-paper-data="{&quot;index&quot;:null}" fill="#54c81c" stroke="none" stroke-width="0.17188" stroke-linecap="butt"/><path d="M246.26941,197.58637c0.55554,-1.20624 1.65098,-2.37635 2.31213,-1.61786c0.27733,0.318 -0.36004,0.31562 -0.94046,0.91926c-0.36939,0.38416 -0.70466,1.07427 -0.80115,2.05427c-0.00997,0.10284 0.06529,0.34457 0.17398,0.6624c0.16642,0.48718 1.55628,0.86273 1.30079,0.8959l-0.99779,0.12918l-0.51537,-0.34583c-0.36712,-0.12938 -1.04041,-1.59353 -0.53213,-2.6973z" data-paper-data="{&quot;index&quot;:null}" fill="#ead32e" stroke="none" stroke-width="0.17188" stroke-linecap="butt"/><path d="M239.19939,193.8051c-0.18257,0.22071 -0.64962,0.47404 -0.64962,0.47404c0.01361,-0.14051 0.21845,-0.29178 0.26333,-0.40388c0.10372,-0.25919 0.55616,-0.80566 1.20067,-1.03702l0.36652,-0.13148c0.18046,-0.06482 0.70328,0.01572 0.76925,0.11395c0.04684,0.19239 -0.66001,0.25474 -1.26378,0.6065c-0.28942,0.16863 -0.68637,0.3779 -0.68637,0.3779z" data-paper-data="{&quot;index&quot;:null}" fill="#ead32e" stroke="none" stroke-width="0.17188" stroke-linecap="butt"/><path d="M239.08989,193.66876c-0.11147,0.10627 -0.58822,0.66171 -0.81297,0.94026l-0.88583,1.09776c-0.06516,0.08077 -0.53801,-0.73593 -0.36701,-0.99422c0.01589,-0.37002 0.23614,-0.59789 0.40018,-0.86455c0.2703,-0.2522 0.70845,-0.56434 0.95294,-0.6616c0.19692,-0.07832 0.22605,-0.58644 0.42271,-0.71683c0.29594,-0.19647 1.27119,0.26314 1.27119,0.26314z" data-paper-data="{&quot;index&quot;:null}" fill="#54c81c" stroke="none" stroke-width="0.17188" stroke-linecap="butt"/><path d="M244.55703,199.97497c0.13429,0.73391 -0.59217,1.48596 -1.19486,1.62826c-0.60269,0.1423 -1.20012,-0.33728 -1.33442,-1.07119c-0.13429,-0.73391 0.24542,-1.44422 0.84811,-1.58652c0.60269,-0.1423 1.54687,0.29555 1.68117,1.02946z" fill="#000000" stroke="none" stroke-width="0" stroke-linecap="butt"/><path d="M237.39018,196.91571c0.62787,-0.40303 1.50154,-0.01028 1.80911,0.5272c0.30758,0.53747 0.04793,1.29991 -0.57993,1.70294c-0.62787,0.40303 -1.38621,0.29404 -1.69379,-0.24343c-0.30758,-0.53747 -0.16326,-1.58367 0.46461,-1.98671z" data-paper-data="{&quot;index&quot;:null}" fill="#000000" stroke="none" stroke-width="0" stroke-linecap="butt"/><path d="M241.07665,203.18864l0.59192,-0.16557" fill="none" stroke="#000000" stroke-width="0.25" stroke-linecap="round"/><path d="M239.93314,202.98973l0.57692,0.17778" fill="none" stroke="#000000" stroke-width="0.25" stroke-linecap="round"/><path d="M238.80584,202.57302l0.55038,0.23893" fill="none" stroke="#000000" stroke-width="0.25" stroke-linecap="round"/><path d="M237.9336,201.90362l0.43612,0.33469" fill="none" stroke="#000000" stroke-width="0.25" stroke-linecap="round"/><path d="M237.49985,201.06122l0.19957,0.37736" fill="none" stroke="#000000" stroke-width="0.25" stroke-linecap="round"/><path d="M242.46441,202.67592l-0.43856,0.00263l-0.1101,-0.5235" fill="none" stroke="#000000" stroke-width="0.25" stroke-linecap="round"/><path d="M237.83318,200.31372l-0.38303,0.37345l-0.36277,-0.24645" data-paper-data="{&quot;index&quot;:null}" fill="none" stroke="#000000" stroke-width="0.25" stroke-linecap="round"/><path d="M242.55592,200.587l1.41884,-0.57666" fill="none" stroke="#ffffff" stroke-width="0.25" stroke-linecap="round"/><path d="M243.11889,199.53158l0.36119,1.53949" fill="none" stroke="#ffffff" stroke-width="0.25" stroke-linecap="round"/><path d="M244.05065,200.35974c-0.20742,-0.01613 -0.3625,-0.19736 -0.34637,-0.40478c0.01613,-0.20742 0.19736,-0.3625 0.40478,-0.34637c0.20742,0.01613 0.3625,0.19736 0.34637,0.40478c-0.01613,0.20742 -0.19736,0.3625 -0.40478,0.34637z" fill="#ffffff" stroke="none" stroke-width="0" stroke-linecap="butt"/><path d="M242.42695,200.92046c-0.20742,-0.01613 -0.3625,-0.19736 -0.34637,-0.40478c0.01613,-0.20742 0.19736,-0.3625 0.40478,-0.34637c0.20741,0.01613 0.3625,0.19736 0.34637,0.40478c-0.01613,0.20741 -0.19736,0.3625 -0.40478,0.34637z" fill="#ffffff" stroke="none" stroke-width="0" stroke-linecap="butt"/><path d="M243.06881,199.73376c-0.20742,-0.01613 -0.3625,-0.19736 -0.34637,-0.40478c0.01613,-0.20742 0.19736,-0.3625 0.40478,-0.34637c0.20742,0.01613 0.36251,0.19736 0.34638,0.40478c-0.01613,0.20741 -0.19737,0.3625 -0.40479,0.34637z" fill="#ffffff" stroke="none" stroke-width="0" stroke-linecap="butt"/><path d="M243.41407,201.47812c-0.20742,-0.01613 -0.3625,-0.19736 -0.34637,-0.40478c0.01613,-0.20742 0.19736,-0.3625 0.40478,-0.34637c0.20741,0.01613 0.3625,0.19736 0.34637,0.40478c-0.01613,0.20741 -0.19736,0.3625 -0.40478,0.34637z" fill="#ffffff" stroke="none" stroke-width="0" stroke-linecap="butt"/><path d="M238.75404,197.81774l-1.41884,0.57666" fill="none" stroke="#ffffff" stroke-width="0.25" stroke-linecap="round"/><path d="M237.89817,197.33897l0.36119,1.53949" fill="none" stroke="#ffffff" stroke-width="0.25" stroke-linecap="round"/><path d="M238.82993,198.16713c-0.20742,-0.01613 -0.3625,-0.19736 -0.34637,-0.40478c0.01613,-0.20742 0.19736,-0.3625 0.40478,-0.34637c0.20742,0.01613 0.3625,0.19736 0.34637,0.40478c-0.01613,0.20742 -0.19736,0.3625 -0.40478,0.34637z" fill="#ffffff" stroke="none" stroke-width="0" stroke-linecap="butt"/><path d="M237.20623,198.72785c-0.20742,-0.01613 -0.3625,-0.19736 -0.34637,-0.40478c0.01613,-0.20742 0.19736,-0.3625 0.40478,-0.34637c0.20741,0.01613 0.3625,0.19736 0.34637,0.40478c-0.01613,0.20741 -0.19736,0.3625 -0.40478,0.34637z" fill="#ffffff" stroke="none" stroke-width="0" stroke-linecap="butt"/><path d="M237.84809,197.54116c-0.20742,-0.01613 -0.3625,-0.19736 -0.34637,-0.40478c0.01613,-0.20742 0.19736,-0.3625 0.40478,-0.34637c0.20742,0.01613 0.36251,0.19736 0.34638,0.40478c-0.01613,0.20741 -0.19737,0.3625 -0.40479,0.34637z" fill="#ffffff" stroke="none" stroke-width="0" stroke-linecap="butt"/><path d="M238.19335,199.28552c-0.20742,-0.01613 -0.3625,-0.19736 -0.34637,-0.40478c0.01613,-0.20742 0.19736,-0.3625 0.40478,-0.34637c0.20741,0.01613 0.3625,0.19736 0.34637,0.40478c-0.01613,0.20741 -0.19736,0.3625 -0.40478,0.34637z" fill="#ffffff" stroke="none" stroke-width="0" stroke-linecap="butt"/></g><g><path d="M243.22353,194.41849c0,0 0.29978,-1.90693 0.11691,-3.15973c-0.18287,-1.2528 -1.2108,-1.92193 -1.2108,-1.92193l0.40886,-0.63121c0,0 1.3409,1.14187 1.53713,2.4592c0.19623,1.31733 -0.19673,3.40706 -0.19673,3.40706z" fill="#000000" stroke="none" stroke-width="0" stroke-linecap="butt"/><path d="M239.62991,189.42715l-2.77481,-3.25197l4.54199,-0.14248l1.6775,3.2678z" fill="#ea035a" stroke="none" stroke-width="0" stroke-linecap="butt"/><path d="M236.98924,186.13471l5.91724,3.16918" fill="none" stroke="#000000" stroke-width="0.25" stroke-linecap="round"/><path d="M241.45203,185.92207l0.10907,2.58853l-1.95742,0.90783" fill="none" stroke="#000000" stroke-width="0.25" stroke-linecap="round"/></g><g data-paper-data="{&quot;index&quot;:null}"><path d="M240.76766,209.72196l-0.00562,-0.73105c0,0 1.46071,-0.70191 1.74987,-1.57364c0.28916,-0.87173 -0.18958,-3.13029 -0.18958,-3.13029c0,0 1.19504,0.00353 0.93132,0.14713c-0.21131,0.11507 0.68889,2.15735 0.12971,3.34677c-0.55918,1.18941 -2.6157,1.94108 -2.6157,1.94108z" data-paper-data="{&quot;index&quot;:null}" fill="#319a2b" stroke="#ffffff" stroke-width="0" stroke-linecap="butt"/><path d="M236.44059,210.37487l0.56989,-1.46478c0,0 2.49727,-0.22949 3.72473,0.02285c0.508,0.10443 0.64889,0.69534 -0.05632,0.95916c-0.6592,0.24661 -4.23829,0.48276 -4.23829,0.48276z" data-paper-data="{&quot;index&quot;:null}" fill="#ead42f" stroke="#ffffff" stroke-width="0" stroke-linecap="butt"/><path d="M234.18048,211.136c-1.72185,0.2293 -3.59517,-0.95594 -3.42623,-1.3329c0.53418,-1.19186 1.3534,-1.45243 3.04929,-1.79884c2.0541,-0.41957 3.90455,1.20699 3.63944,2.0615c-0.08679,0.27977 -1.54065,0.84092 -3.2625,1.07023z" data-paper-data="{&quot;index&quot;:null}" fill="#f0e9bb" stroke="#ffffff" stroke-width="0" stroke-linecap="butt"/><path d="M231.3687,209.00866c0,0 1.79628,-0.18303 2.87624,0.13156c1.07995,0.31459 2.55343,1.23002 2.55343,1.23002" data-paper-data="{&quot;index&quot;:null}" fill="none" stroke="#d3c49c" stroke-width="0.25" stroke-linecap="round"/><path d="M236.12157,209.54412l-0.4507,0.74151" data-paper-data="{&quot;index&quot;:null}" fill="none" stroke="#ffffff" stroke-width="0.5" stroke-linecap="round"/><path d="M234.71057,209.0142l-0.32355,0.59864" data-paper-data="{&quot;index&quot;:null}" fill="none" stroke="#ffffff" stroke-width="0.5" stroke-linecap="round"/><path d="M233.4327,208.74603l-0.23103,0.6122" data-paper-data="{&quot;index&quot;:null}" fill="none" stroke="#ffffff" stroke-width="0.5" stroke-linecap="round"/><path d="M231.99305,208.77715l-0.10389,0.46934" data-paper-data="{&quot;index&quot;:null}" fill="none" stroke="#ffffff" stroke-width="0.5" stroke-linecap="round"/></g></g></g></svg>