<svg version="1.1" xmlns="http://www.w3.org/2000/svg" xmlns:xlink="http://www.w3.org/1999/xlink" width="53.4796" height="27.2039" viewBox="0,0,53.4796,27.2039"><defs><radialGradient cx="240" cy="180" r="12.54545" gradientUnits="userSpaceOnUse" id="color-1"><stop offset="0" stop-color="#000000"/><stop offset="1" stop-color="#000000" stop-opacity="0.50196"/></radialGradient></defs><g transform="translate(-210.31968,-165.34155)"><g data-paper-data="{&quot;isPaintingLayer&quot;:true}" fill-rule="nonzero" stroke="none" stroke-width="0" stroke-linecap="butt" stroke-linejoin="miter" stroke-miterlimit="10" stroke-dasharray="" stroke-dashoffset="0" style="mix-blend-mode: normal"><path d="M227.45455,180c0,-6.92866 5.61679,-12.54545 12.54545,-12.54545c6.92866,0 12.54545,5.61679 12.54545,12.54545c0,6.92866 -5.61679,12.54545 -12.54545,12.54545c-6.92866,0 -12.54545,-5.61679 -12.54545,-12.54545z" fill="url(#color-1)"/><path d="M232.84537,175.53394c0,0.71225 -2.45327,4.83331 -2.45327,4.83331c0,0 -4.56898,-4.99926 -9.69387,-8.10636c-3.95845,-2.68745 -10.55184,-4.94701 -10.26424,-5.28514c0.75188,-0.88401 10.06443,0.12325 14.41629,1.91821c5.09193,2.10022 7.99509,5.02494 7.99509,6.63998z" data-paper-data="{&quot;index&quot;:null}" fill="#684af8"/><path d="M225.78466,168.166c0.42875,0.79416 0.97603,2.15217 0.97603,2.15217c0,0 -4.73845,-1.83198 -8.51309,-2.88694c-3.68365,-1.02952 -8.23471,-0.47691 -7.91164,-0.7751c0.97147,-0.8967 4.09348,-1.31458 7.97577,-1.31458c3.88229,0 6.62396,0.75119 6.62396,0.75119c0,0 0.4202,1.27912 0.84895,2.07329z" fill="#684af8"/><path d="M237.58325,173.24461c0,0 -1.6753,0.2051 -2.76262,0.67459c-1.08731,0.46949 -2.10397,1.48511 -2.10397,1.48511c0,0 -1.73597,-2.22495 -2.73782,-3.11596c-1.00186,-0.89101 -3.45853,-2.1132 -3.45853,-2.1132l-2.07232,-4.06679c0,0 3.33564,0.06922 6.66901,2.03446c2.18957,1.2909 6.46625,5.10183 6.46625,5.10183z" data-paper-data="{&quot;index&quot;:null}" fill="#684af8"/><path d="M263.76027,167.95502c0,0.90257 -5.46362,0.88762 -6.99809,1.62756c-3.39343,1.63637 -4.56003,2.25357 -4.56003,2.25357l1.58021,-4.75754c0,0 2.95213,-0.6418 5.36483,-0.49748c2.61339,0.15633 4.61309,1.23007 4.61309,1.37387z" fill="#684af8"/><path d="M252.12237,171.71094c4.15375,-2.56971 10.91443,-4.3985 11.66778,-3.51449c0.28817,0.33813 -6.31811,3.53669 -8.72665,5.66074c-3.82673,3.37472 -6.21121,8.08064 -6.21121,6.4656c0,-1.61504 -0.88366,-6.04215 3.27008,-8.61185z" fill="#684af8"/><path d="M243.89472,173.3385c0,0 1.64908,-2.57319 3.83767,-3.88115c2.18859,-1.30796 5.65279,-3.2187 6.54661,-2.12836c0.18651,0.22752 -0.50366,2.22115 -1.46686,3.59731c-0.94953,1.35663 -2.83015,4.08163 -3.38354,4.85399c-1.15623,1.61373 -1.87679,0.93857 -1.87679,0.93857c0,0 -0.73311,-1.03087 -1.56628,-1.78245c-0.83319,-0.75159 -2.09079,-1.5979 -2.09079,-1.5979z" fill="#684af8"/><path d="M227.80677,179.55144c0,-3.63011 5.29702,-6.5729 11.83122,-6.5729c6.5342,0 11.80211,2.9429 11.83121,6.5729c0.03755,4.68178 -5.29701,6.57289 -11.83121,6.57289c-6.5342,0 -11.83122,-2.94278 -11.83122,-6.57289z" fill="#684af8"/><g><path d="M243.07678,181.50918c0,-0.64825 0.52548,-1.17372 1.17373,-1.17372c0.64825,0 1.17372,0.52549 1.17372,1.17372c0,0.64825 -0.52549,1.17373 -1.17372,1.17373c-0.64825,0 -1.17373,-0.52549 -1.17373,-1.17373z" fill="#ffff9b"/><path d="M243.76611,181.5372c0,-0.28296 0.22937,-0.51235 0.51235,-0.51235c0.28295,0 0.51235,0.22937 0.51235,0.51235c0,0.28296 -0.22937,0.51236 -0.51235,0.51236c-0.28295,0 -0.51235,-0.22939 -0.51235,-0.51236z" fill="#000000"/></g><g><path d="M236.60369,181.11356c0,-0.93344 0.75672,-1.69017 1.69019,-1.69017c0.93344,0 1.69017,0.75671 1.69017,1.69017c0,0.93344 -0.75671,1.69017 -1.69017,1.69017c-0.93344,0 -1.69019,-0.75671 -1.69019,-1.69017z" fill="#ffff9b"/><path d="M237.59633,181.15385c0,-0.40747 0.33031,-0.73776 0.73778,-0.73776c0.40747,0 0.73776,0.33031 0.73776,0.73776c0,0.40747 -0.33031,0.73776 -0.73776,0.73776c-0.40747,0 -0.73778,-0.3303 -0.73778,-0.73776z" fill="#000000"/></g><path d="M225.37261,178.96544c3.38251,0.44921 2.96876,1.40818 2.96876,1.40818c0,0 -1.22038,-1.556 -1.78216,-2.24925c-0.62969,-0.7771 -1.81549,-2.19053 -1.81549,-2.19053c0,0 1.89177,-0.25183 4.58025,2.33444c1.37718,1.32482 3.07694,5.87226 5.53392,6.90581c2.45699,1.03355 7.47066,0.08187 10.05525,0.17937c1.65461,-0.03236 5.68155,-3.45219 6.10068,-3.89224c0.82019,-0.86114 1.66565,-1.47246 1.66565,-1.47246l-0.58105,2.75942c0,0 0.32283,-0.21404 0.72885,-0.30152c0.40601,-0.08748 1.06092,-0.08412 1.06092,-0.08412l-1.50181,2.34612l0.60284,1.31672c0,0 -1.26294,0.09263 -1.62746,-0.10076c-0.36454,-0.1934 -0.40417,-0.36674 -0.40417,-0.36674c0,0 -0.71058,0.62781 -1.44474,1.01517c-0.73416,0.38736 -2.11212,0.40138 -2.11212,0.40138c0,0 -0.6381,0.39493 -1.27946,0.40583c-13.88451,1.21161 -16.38956,-2.94603 -16.38956,-2.94603c0,0 -1.64532,-0.01873 -3.43687,-0.06064c-1.79154,-0.0419 -4.59147,0.06064 -4.59147,0.06064c0,0 1.70751,-1.33896 2.69723,-1.75207c0.98971,-0.41309 2.70193,-0.5015 2.70193,-0.5015c0,0 -0.99122,-0.7026 -2.35961,-1.40321c-1.36837,-0.70061 -3.50905,-2.04011 -3.50905,-1.60156c0,0.1688 0.75623,-0.6597 4.13873,-0.21049z" fill="#684af8"/></g></g></svg>