<svg version="1.1" xmlns="http://www.w3.org/2000/svg" xmlns:xlink="http://www.w3.org/1999/xlink" width="22.20175" height="38.61056" viewBox="0,0,22.20175,38.61056"><g transform="translate(-228.89912,-160.69472)"><g data-paper-data="{&quot;isPaintingLayer&quot;:true}" fill-rule="nonzero" stroke="#000000" stroke-linejoin="miter" stroke-miterlimit="10" stroke-dasharray="" stroke-dashoffset="0" style="mix-blend-mode: normal"><path d="M228.89912,191.19472c0,-4.36305 2.2316,-13.95653 3.86667,-17.43333c0.29523,-0.62777 18.33333,-1.84083 18.33333,2.52222c0,2.37488 0.17524,15.95564 -2.97672,20.96101c-1.46764,2.33063 -6.4616,2.0501 -8.22328,2.0501c-3.86599,0 -11,-3.73695 -11,-8.1z" fill="#020e29" stroke-width="0" stroke-linecap="butt"/><path d="M250.69912,168.89472c0,2.02436 0.84497,7.59043 -0.38827,12.05844c-1.55926,5.64917 -5.483,10.14156 -8.01173,10.14156c-4.52874,0 -10.42986,-10.07757 -10.6,-14.2c-0.16186,-3.92163 10.2,-16.2 10.2,-16.2c0,0 8.8,3.61612 8.8,8.2z" fill="#002a4d" stroke-width="0" stroke-linecap="butt"/><path d="M241.28571,180.85714l3.71429,-3.28571" fill="none" stroke-width="0.5" stroke-linecap="round"/><path d="M239.71429,183.14286l3.71429,1.57143" fill="none" stroke-width="0.5" stroke-linecap="round"/><path d="M245.14286,183.71429l3.28571,-3" fill="none" stroke-width="0.5" stroke-linecap="round"/><path d="M233.71429,190.71429l3,2.71429" fill="none" stroke-width="0.5" stroke-linecap="round"/><path d="M244.28571,196.71429l2.85714,-1.57143" fill="none" stroke-width="0.5" stroke-linecap="round"/><path d="M236.42857,175l-1,1.71429" fill="none" stroke-width="0.5" stroke-linecap="round"/></g></g></svg>