<svg version="1.1" xmlns="http://www.w3.org/2000/svg" xmlns:xlink="http://www.w3.org/1999/xlink" width="29.3788" height="38.67075" viewBox="0,0,29.3788,38.67075"><g transform="translate(-220.03711,-163.75118)"><g data-paper-data="{&quot;isPaintingLayer&quot;:true}" fill-rule="nonzero" stroke-miterlimit="10" stroke-dasharray="" stroke-dashoffset="0" style="mix-blend-mode: normal"><g data-paper-data="{&quot;index&quot;:null}" stroke="none" stroke-width="0" stroke-linecap="butt" stroke-linejoin="miter"><path d="M234.93648,187.44381c0.24516,-0.81471 0.84967,-2.10444 0.84967,-2.10444l2.44488,-0.22388c0,0 0.34091,0.12709 0.62594,0.61087c0.18508,0.31418 0.18146,0.91657 0.18146,0.91657c0,0 0.36092,-0.61239 0.82049,-0.26333c0.29508,0.22412 0.09028,1.31424 -0.07334,1.67693c-0.09631,0.21352 -0.39197,0.52806 -0.70657,0.64828c-0.19847,0.07581 -0.48252,0.00331 -0.48252,0.00331c0,0 -0.08338,0.36717 -0.48119,0.31279c-0.12188,-0.01668 -0.29322,-0.00507 -0.29322,-0.00507c0,0 -0.14171,0.24358 -0.2623,0.33496c-0.12058,0.09138 -0.36889,0.11936 -0.36889,0.11936l-0.35939,-0.21643c0,0 -0.44157,0.31245 -0.55183,0.32457c-0.43255,0.04755 -0.6626,-0.37661 -0.78758,-0.60344c-0.22878,-0.41535 -0.59465,-1.40124 -0.55561,-1.53107z" fill="#ffffff"/><path d="M235.53371,184.3826c0.06626,-0.44625 1.09917,-1.21341 1.6633,-1.25359c1.58883,-0.11312 1.77005,0.30896 1.73601,0.92069c-0.0521,0.93658 -0.66482,1.98336 -2.72399,1.81728c-0.56369,-0.04547 -0.74155,-1.03814 -0.67529,-1.48439z" fill="#fed000"/><path d="M237.05202,181.9963c0.12834,-0.8646 0.3814,-3.11419 0.3814,-3.11419c0,0 -0.08096,-0.55661 0.55982,-0.087c0.64077,0.46961 0.24178,2.21331 0.12037,3.03132c-0.07404,0.49868 -0.20579,2.33421 -0.20579,2.33421c0,0 -0.16051,0.19183 -0.4641,0.25962c-0.3036,0.0678 -0.84209,0.0744 -0.84209,0.0744c0,0 0.26692,-1.26225 0.4504,-2.49839z" fill="#fed5c7"/></g><g data-paper-data="{&quot;index&quot;:null}" stroke="none" stroke-width="0" stroke-linecap="butt" stroke-linejoin="miter"><g><path d="M235.51936,198.4263c0,0 2.3434,-0.43293 3.28655,-0.87749c0.76445,-0.36035 1.94964,-1.59076 1.94964,-1.59076c0,0 0.56035,0.7069 -0.08741,2.0847c-0.18217,0.38749 -0.92147,0.54851 -0.92147,0.54851l-0.96538,-0.18529c0,0 -1.11521,0.71015 -1.70834,0.81566c-0.99915,0.17776 -1.77824,0.24985 -2.81583,-0.1273c-1.03759,-0.37714 -0.27675,-0.99681 -0.27675,-0.99681l1.53897,0.32876z" fill="#393939"/><path d="M236.99,191.26139l3.03308,-0.08678l0.0662,0.71892l-0.18651,0.05024c0,0 0.20932,0.20827 0.22588,0.28313c0.07245,0.32791 -0.0722,0.29015 -0.0722,0.29015c0,0 0.41632,0.30253 0.55721,0.67122c0.1409,0.36869 0.36699,0.83396 0.3725,1.39936c0.00549,0.56539 -0.34375,1.56257 -0.34375,1.56257c0,0 -0.81396,2.03439 -4.71993,2.36381c-1.15597,0.09749 -1.70156,-0.2911 -1.70156,-0.2911c0,0 0.01192,-1.60096 0.4598,-2.57452c0.58901,-0.81584 0.81778,-1.21804 1.03288,-1.59053c0.17481,-0.30275 0.52666,-1.13812 0.52666,-1.13812l0.06073,-0.41743l0.2004,-0.30152z" fill="#f01a40"/><path d="M238.37334,188.32155c0.43401,0.00705 2.1359,0.84828 1.89206,1.43378c-0.34042,0.81739 -0.12228,0.2944 -0.18936,0.62664c-0.06706,0.33225 0.35629,0.47929 -0.09111,0.7631c-0.36549,0.23185 -0.79624,0.58798 -1.40297,0.57836c-1.08965,-0.14144 -1.40923,-0.25942 -1.7957,-0.603c-0.25926,-0.2305 0.03431,-0.9869 0.03431,-0.9869c0,0 -0.44071,-0.53871 -0.39261,-0.83326c0.04812,-0.29455 1.06381,-0.99303 1.94538,-0.9787z" fill="#ffffff"/><path d="M237.2717,192.38417c0.09871,-0.30178 0.04284,-0.91016 0.04284,-0.91016l1.43544,0.20862l-0.18294,0.97182l-0.28352,0.28276l-0.10909,0.32768c0,0 -0.46844,0.93048 -0.84041,2.04915c-0.11089,0.43526 -0.43366,3.10879 -0.43366,3.10879c0,0 -1.13731,0.16754 -1.40039,0.15271c-0.2557,-0.01441 -0.76237,-0.12521 -0.76237,-0.12521c0,0 0.16174,-1.47174 0.45685,-2.43488c0.2396,-0.78201 1.87992,-2.99723 1.87992,-2.99723c0,0 0.17874,-0.57731 0.19731,-0.63407z" fill="#ffffff"/></g><path d="M239.59975,189.67446c-0.06623,0.37876 -0.64093,0.59468 -1.28365,0.48229c-0.6427,-0.11239 -1.11005,-0.51052 -1.04382,-0.88928c0.06623,-0.37876 0.64093,-0.59468 1.28364,-0.48228c0.6427,0.11239 1.11004,0.51052 1.04381,0.88927z" fill="#afafaf"/></g><path d="M239.7554,184.17632l-0.43306,3.43608l-0.413,2.45601c0,0 -0.34549,-0.02406 -0.59197,0.06706c-0.24646,0.09111 -0.60729,-0.20135 -0.60729,-0.20135l0.26058,-2.04263l0.51609,-3.71146z" data-paper-data="{&quot;index&quot;:null}" fill="#f79db4" stroke="none" stroke-width="0" stroke-linecap="butt" stroke-linejoin="miter"/><g data-paper-data="{&quot;index&quot;:null}" stroke="none" stroke-width="0" stroke-linecap="butt" stroke-linejoin="miter"><g><path d="M239.68687,199.21644c0,0 2.1727,-0.97897 2.98271,-1.63554c0.65651,-0.53215 1.5143,-2.0096 1.5143,-2.0096c0,0 0.71268,0.553 0.41199,2.04546c-0.08458,0.41974 -0.76421,0.75232 -0.76421,0.75232l-0.98171,0.05015c0,0 -0.91381,0.95549 -1.46469,1.19933c-0.92799,0.41078 -1.66743,0.66649 -2.76502,0.5475c-1.09757,-0.11898 -0.50637,-0.90213 -0.50637,-0.90213l1.57298,-0.04754z" fill="#393939"/><path d="M239.40743,191.90752l2.92498,-0.80718l0.23565,0.68242l-0.16918,0.09325c0,0 0.25294,0.15236 0.28685,0.22113c0.14852,0.30119 -0.00097,0.29898 -0.00097,0.29898c0,0 0.47645,0.19459 0.70114,0.51906c0.2247,0.32447 0.55519,0.72245 0.69531,1.27024c0.1401,0.54779 0.03858,1.59947 0.03858,1.59947c0,0 -0.30562,2.16972 -4.02052,3.42064c-1.09941,0.3702 -1.72193,0.12286 -1.72193,0.12286c0,0 -0.36999,-1.55767 -0.16706,-2.60994c0.37759,-0.93272 0.50393,-1.37781 0.62403,-1.79088c0.09762,-0.33568 0.24022,-1.23085 0.24022,-1.23085l-0.0405,-0.41987l0.12275,-0.34058z" fill="#f01a40"/><path d="M240.05022,188.72264c0.42315,-0.0966 2.27651,0.31476 2.17924,0.94151c-0.1358,0.87498 -0.04862,0.31505 -0.03455,0.65371c0.01407,0.33866 0.46025,0.38057 0.09338,0.7628c-0.2997,0.31228 -0.63314,0.76081 -1.22467,0.89607c-1.09196,0.12235 -1.43046,0.08396 -1.88768,-0.15762c-0.30672,-0.16206 -0.2019,-0.96662 -0.2019,-0.96662c0,0 -0.55641,-0.41816 -0.57989,-0.71568c-0.02348,-0.29752 0.79649,-1.21797 1.65604,-1.41416z" fill="#ffffff"/><path d="M239.94863,192.93077c0.02395,-0.31661 -0.17533,-0.89415 -0.17533,-0.89415l1.44382,-0.13951l0.05395,0.98741l-0.20793,0.34219l-0.02786,0.34422c0,0 -0.23317,1.01532 -0.32779,2.19042c-0.00394,0.44915 0.31977,3.12255 0.31977,3.12255c0,0 -1.06459,0.43377 -1.32362,0.48209c-0.25177,0.04695 -0.77027,0.06012 -0.77027,0.06012c0,0 -0.1937,-1.46786 -0.13667,-2.47361c0.0463,-0.81658 1.1114,-3.35891 1.1114,-3.35891c0,0 0.03601,-0.6033 0.04051,-0.66282z" fill="#ffffff"/></g><path d="M241.56371,189.74429c0.02595,0.38361 -0.48071,0.73028 -1.13171,0.77433c-0.65098,0.04403 -1.19973,-0.23123 -1.22569,-0.61484c-0.02594,-0.3836 0.48073,-0.7303 1.13171,-0.77434c0.65099,-0.04404 1.19974,0.23123 1.2257,0.61486z" fill="#afafaf"/></g><path d="M241.44941,184.91402l0.00232,3.77685l0.01631,1.35251c0,0 -0.33059,0.2905 -0.58859,0.38278c-0.258,0.09228 -0.82036,0.12113 -0.82036,0.12113l0.00408,-1.80843l0.08931,-4.13961z" data-paper-data="{&quot;index&quot;:null}" fill="#f79db4" stroke="none" stroke-width="0" stroke-linecap="butt" stroke-linejoin="miter"/><path d="M241.69519,182.98093l1.1876,-0.60297l2.95321,0.85168l2.16813,-1.44495c0,0 -0.99494,1.80808 -1.81626,2.16325c-0.75583,0.32684 -4.49271,-0.96703 -4.49271,-0.96703z" data-paper-data="{&quot;index&quot;:null}" fill="#f79db4" stroke="none" stroke-width="0" stroke-linecap="butt" stroke-linejoin="miter"/><g data-paper-data="{&quot;index&quot;:null}" stroke-width="0" stroke-linecap="butt" stroke-linejoin="miter"><g data-paper-data="{&quot;index&quot;:null}"><path d="M225.97395,173.75016c-0.43369,-0.97101 0.00481,-2.11106 0.97939,-2.54634c0.97459,-0.43529 2.11621,-0.00099 2.54991,0.97001c0.43369,0.97101 -0.0048,2.11105 -0.97936,2.54632c-0.97459,0.43529 -2.11623,0.00101 -2.54993,-0.97001z" fill="#e0cb17" stroke="none"/><path d="M226.84274,174.05772c-0.26794,-0.59988 0.00295,-1.3042 0.60506,-1.57312c0.60211,-0.26893 1.3074,-0.00063 1.57533,0.59927c0.26794,0.59988 -0.00295,1.3042 -0.60506,1.57312c-0.60211,0.26893 -1.30741,0.00062 -1.57533,-0.59927z" fill="#e0cb17" stroke="#000000"/><path d="M230.98145,179.18485c0,0 -2.22344,-0.80932 -2.95937,-1.6125c-0.73592,-0.80317 -0.46577,-2.12558 -0.46577,-2.12558l1.91431,-0.87129c0,0 0.2227,0.12288 1.05746,1.17623c0.86673,1.09373 0.45337,3.43315 0.45337,3.43315z" fill="#e8edf4" stroke="#000000"/><path d="M228.6362,175.21105c-0.46588,0.21058 -1.36713,0.29511 -1.36713,0.29511l-0.07901,-0.71102c0,0 0.73879,0.11301 1.16397,-0.04869c0.42516,-0.16168 0.87224,-0.72569 0.87224,-0.72569l0.45758,0.33217c0,0 -0.51532,0.61749 -1.04764,0.85809z" fill="#dbded5" stroke="#000000"/></g><g data-paper-data="{&quot;index&quot;:null}" stroke="none"><path d="M235.69715,176.16655c0.18369,-0.08204 0.47063,0.16055 0.64094,0.54183c0.1703,0.38129 0.15944,0.75687 -0.02425,0.83893c-0.18369,0.08204 -0.47066,-0.16054 -0.64096,-0.54183c-0.1703,-0.38129 -0.15943,-0.75688 0.02426,-0.83894z" fill="#000000"/><path d="M239.13157,180.4098c0.19135,-0.08547 1.13132,0.48595 1.20624,0.65371c0.07495,0.16776 0.24594,1.41385 0.05461,1.49931c-0.19135,0.08548 -1.28592,0.20999 -1.28592,0.20999c0,0 -0.16626,-2.27755 0.02508,-2.36301z" fill="#807d5a"/><path d="M229.49376,173.70615l0.05843,-0.19172l6.8491,3.40013l0.03505,0.32664z" fill="#6e6e73"/><path d="M231.86495,174.52413l-0.14559,0.41837l-1.62674,-0.76402l0.17331,-0.43074z" fill="#ddcb1e"/></g></g><g data-paper-data="{&quot;index&quot;:null}" stroke-width="0" stroke-linecap="butt" stroke-linejoin="miter"><g data-paper-data="{&quot;index&quot;:null}"><path d="M246.24993,168.47893c-1.25024,0.5584 -2.71476,0.0013 -3.27112,-1.24435c-0.55636,-1.24563 0.00613,-2.70812 1.25639,-3.26653c1.25024,-0.5584 2.71477,-0.00129 3.27112,1.24436c0.55636,1.24563 -0.00615,2.70812 -1.25638,3.26652z" fill="#e0cb17" stroke="none"/><path d="M246.28015,168.3238c-0.77239,0.34497 -1.67719,0.00079 -2.02091,-0.76877c-0.34372,-0.76957 0.00379,-1.67307 0.77619,-2.01807c0.77238,-0.34497 1.67718,-0.00081 2.0209,0.76876c0.34372,0.76957 -0.0038,1.67308 -0.7762,2.01807z" fill="#e0cb17" stroke="#000000"/><path d="M249.40436,170.44142c0.13724,1.39068 -0.99314,4.20775 -0.99314,4.20775c0,0 -2.58886,-1.60795 -2.89167,-3.37236c-0.29166,-1.69928 -0.21839,-2.01726 -0.21839,-2.01726l2.47129,-1.0829c0,0 1.49466,0.87407 1.63193,2.26477z" fill="#e8edf4" stroke="#000000"/><path d="M246.6227,169.00651c-0.68558,0.30257 -1.7167,0.2662 -1.7167,0.2662l0.0744,-0.72154c0,0 0.92157,0.05578 1.44005,-0.21199c0.51849,-0.26774 1.04302,-1.07032 1.04302,-1.07032l0.61162,0.68421c0,0 -0.85236,0.78861 -1.45238,1.05342z" fill="#dbded5" stroke="#000000"/></g><g data-paper-data="{&quot;index&quot;:null}" stroke="none"><path d="M243.68175,178.33389c0.36088,0.30339 0.92953,1.98568 0.92953,1.98568l-2.83658,1.28819c0,0 -1.45275,-0.76292 -1.742,-2.19302c-0.21265,-1.05132 0.67001,-2.8669 0.8505,-2.95409c1.16288,-0.56187 2.43766,1.56989 2.79855,1.87328z" fill="#e4dcaa"/><path d="M242.31264,177.26529c0.21846,0.48913 0.20454,0.97097 -0.0311,1.07622c-0.23565,0.10526 -0.6038,-0.20594 -0.82226,-0.69507c-0.21846,-0.48913 -0.20453,-0.97097 0.03111,-1.07622c0.23565,-0.10525 0.60377,0.20594 0.82223,0.69508z" fill="#000000"/><path d="M245.36298,182.37597c0.21103,0.83397 0.3426,2.26446 0.3426,2.26446l-0.88116,0.92222c0,0 -1.53797,0.05784 -1.82854,-0.65639c-0.14429,-0.35464 -1.1743,-3.16687 -1.1743,-3.16687l0.8041,-1.21873c0,0 0.57193,-0.199 0.94844,-0.24947c0.37653,-0.05046 1.03444,0.0338 1.03444,0.0338c0,0 0.54337,1.23702 0.7544,2.07099z" fill="#dfcc17"/><path d="M244.88285,185.48321c0,0 -1.05608,0.93911 -1.30154,1.04874c-0.24545,0.10962 -1.28952,-1.12059 -1.38564,-1.3358c-0.09613,-0.21521 0.16272,-1.60242 0.40819,-1.71205c0.24545,-0.10963 2.27897,1.9991 2.27897,1.9991z" fill="#807d5a"/><path d="M241.88417,178.19648l-0.28201,-0.31313l2.61546,-9.45426l0.23319,0.10832z" fill="#6e6e73"/><path d="M243.82947,169.31066l0.55989,0.20319l-0.66282,2.20822l-0.52436,-0.21908z" fill="#ddcb1e"/></g></g><path d="M240.93584,180.27576c0,0 -0.84165,-0.15543 -1.08662,-0.38917c-0.25971,-0.24782 -0.49993,-1.02677 -0.49993,-1.02677l0.71422,-0.72479z" data-paper-data="{&quot;index&quot;:null}" fill="#f25c76" stroke="none" stroke-width="0" stroke-linecap="butt" stroke-linejoin="miter"/><path d="M237.92194,186.19856c0,0 2.13424,0.36042 3.7676,-0.30455c4.41546,-1.79765 3.648,-4.7917 3.648,-4.7917l1.09904,-0.21985c0,0 0.41398,4.01245 -3.89513,5.96388c-1.8743,0.88984 -4.82718,0.33337 -4.82718,0.33337z" data-paper-data="{&quot;index&quot;:null}" fill="#ffffff" stroke="none" stroke-width="0" stroke-linecap="butt" stroke-linejoin="miter"/><path d="M237.49889,180.77352c-0.14884,-0.57409 0.30002,-1.67116 0.30002,-1.67116l0.32003,-0.18434l1.23007,-0.16988c0,0 0.29689,0.69109 0.58249,0.98834c0.3605,0.37523 0.95696,0.44716 0.95696,0.44716l0.58164,0.89966l1.61995,0.06017l0.13528,0.11872l0.69237,0.00638l1.46229,-0.1538c0,0 0.39901,0.84117 -0.44046,2.15855c-0.77357,1.21398 -1.09988,1.66135 -2.73329,2.56463c-1.49207,0.82512 -2.70806,0.82972 -4.3262,0.38855c-1.04002,-0.28355 0.42897,-3.03876 0.42897,-3.03876l-0.02092,-0.1625l0.23332,-0.27758c0,0 -0.85619,-1.33273 -1.02249,-1.97415z" data-paper-data="{&quot;index&quot;:null}" fill="#f01a40" stroke="none" stroke-width="0" stroke-linecap="butt" stroke-linejoin="miter"/><g data-paper-data="{&quot;index&quot;:null}" stroke-linecap="butt" stroke-linejoin="miter"><path d="M221.2852,195.30228c0,0 -2.90298,-3.66154 1.15012,-6.94825c1.55632,-1.26203 2.97096,-1.61122 4.8449,-1.52616c1.97732,0.08977 2.70983,2.92233 2.70983,2.92233l-6.74179,6.08815z" fill="#fbdd00" stroke="none" stroke-width="0"/><path d="M222.72919,195.71762l-0.51359,-0.12993c0,0 -0.50733,-0.81834 -0.59055,-1.20125c-0.17848,-0.82116 -0.25409,-1.18142 0.08741,-0.92768c0.1698,0.12615 0.17117,0.69263 0.34754,1.11798c0.26356,0.63562 0.66915,1.14088 0.66915,1.14088z" fill="#a58c48" stroke="#000000" stroke-width="0"/><path d="M222.14889,190.94775c-0.12239,-0.14297 0.03507,-0.95359 1.07737,-1.79311c0.69839,-0.56252 2.02947,-1.32437 2.29009,-0.93136c0.238,0.35888 -1.32643,0.7397 -2.00767,1.32288c-0.68122,0.58317 -1.23741,1.54454 -1.3598,1.40157z" fill="#a58c48" stroke="#000000" stroke-width="0"/><path d="M229.57724,189.20638c0,0 -0.29787,-0.3001 -0.71967,-0.53178c-0.39041,-0.21444 -0.86544,-0.17766 -0.82783,-0.41281c0.01325,-0.08275 0.29524,-0.30139 0.64811,-0.1147c0.39302,0.20797 0.81703,0.65481 0.81703,0.65481l0.08237,0.40448z" fill="#a58c48" stroke="#000000" stroke-width="0"/><path d="M227.24371,193.63175c1.89537,-1.71226 4.67796,-1.56087 4.67796,-1.56087l0.44532,0.39428c0,0 -3.2772,-0.42407 -5.43818,2.33337c-1.35788,1.73268 -1.30191,3.91165 -1.30191,3.91165c0,0 0.14874,0.25057 -0.23856,-0.20289c-0.3873,-0.45346 -0.20837,-0.32458 -0.20837,-0.32458c0,0 -0.59581,-2.14838 2.06374,-4.55095z" fill="#edeee6" stroke="none" stroke-width="0"/><path d="M229.83251,189.34276l0.15565,0.36567c0,0 -3.6454,-0.73946 -5.70845,2.03225c-1.29636,1.74166 -1.03674,4.09347 -1.03674,4.09347l-0.32688,-0.09574c0,0 -1.05572,-2.80971 1.50638,-5.31585c2.02169,-1.97755 5.41003,-1.07981 5.41003,-1.07981z" fill="#edeee6" stroke="none" stroke-width="0"/><path d="M224.73484,190.70179c1.90374,-1.7194 5.20672,-1.07676 5.20672,-1.07676l2.16472,2.53557c0,0 -3.28444,-0.41786 -5.45666,2.3492c-1.36497,1.73876 -1.3135,3.92156 -1.3135,3.92156c0,0 -0.69348,-0.62678 -1.08079,-1.08025c-0.38729,-0.45347 -0.9044,-1.24412 -0.9044,-1.24412c0,0 -1.28735,-2.9926 1.38391,-5.40523z" fill="#ff1a07" stroke="none" stroke-width="0"/><path d="M229.0623,192.18047c0,0 -1.31283,0.70167 -1.8532,1.16426c-0.52513,0.44955 -1.40557,1.62548 -1.40557,1.62548l-2.08579,-2.43646c0,0 0.3823,-1.31714 1.07024,-1.89481c0.68793,-0.57766 2.10593,-0.92979 2.10593,-0.92979z" fill="#ff1808" stroke="#000000" stroke-width="0"/><path d="M225.28835,198.31392c0,0 -1.25943,-1.34786 -1.61222,-1.75997c-0.13322,-0.15561 -0.44474,-0.76803 -0.50132,-1.31568c-0.05659,-0.54766 0.23332,-1.27838 0.23332,-1.27838l1.91193,2.29503c0,0 -0.15981,0.6193 -0.16605,1.02417c-0.00624,0.40487 0.13433,1.03486 0.13433,1.03486z" fill="#ff1808" stroke="#000000" stroke-width="0"/><path d="M231.98884,192.20836c0,0 -0.66342,-0.15497 -0.94428,-0.20306c-0.28085,-0.04809 -0.72539,-0.08279 -0.72539,-0.08279l-2.04668,-2.39077c0,0 1.24243,-0.02873 1.58708,0.25103c0.47075,0.38212 2.12928,2.4256 2.12928,2.4256z" fill="#ff1808" stroke="#000000" stroke-width="0"/><path d="M230.75974,195.1605c-1.01764,0.87117 -4.24589,6.35277 -4.24589,6.35277c0,0 -2.96378,-4.32822 1.61166,-7.95028c2.39933,-1.8994 4.47976,-1.49859 5.68649,-0.81246c0.77133,0.43857 1.08354,1.16372 1.08354,1.16372c0,0 -3.11817,0.37508 -4.13579,1.24624z" fill="#fbdd00" stroke="none" stroke-width="0"/><path d="M228.2063,194.60207c-0.68212,0.58395 -1.3617,1.52259 -1.43371,1.43848c-0.072,-0.0841 0.22116,-0.98097 1.1513,-1.83003c0.51512,-0.47022 1.68154,-1.16831 2.05528,-1.02063c0.25261,0.0998 -1.24307,0.95862 -1.77291,1.41219z" fill="#a58c48" stroke="#000000" stroke-width="0"/><path d="M225.70506,199.54046l-0.14098,-0.56539c0,0 0.18006,-1.60195 0.36386,-1.20867c0.11795,0.25237 -0.22286,1.77405 -0.22286,1.77405z" fill="#a58c48" stroke="#000000" stroke-width="0"/><path d="M231.54929,192.74296c-0.2448,-0.28594 1.37423,-0.34916 1.37423,-0.34916l0.75558,0.35447c0,0 -1.88504,0.28063 -2.12984,-0.0053z" fill="#a58c48" stroke="#000000" stroke-width="0"/><path d="M232.82496,200.66723c-2.06337,1.81131 -5.18044,2.12517 -6.30359,0.8132c-1.12315,-1.31199 -0.0521,-4.28521 2.00842,-6.09976c2.15101,-1.8942 5.2223,-2.83877 6.34544,-1.52677c1.56639,1.82974 0.39128,4.70373 -2.03382,6.83258z" fill="#fbdd00" stroke="#000000" stroke-width="0.25"/><path d="M228.55986,201.96022c-0.67678,-0.79054 0.28132,-2.72127 2.13994,-4.3124c1.85864,-1.59114 3.91398,-2.24014 4.59077,-1.4496c0.67678,0.79054 -0.28131,2.72129 -2.13995,4.31242c-1.85864,1.59114 -3.91399,2.24012 -4.59078,1.44958z" fill="#fbdd00" stroke="#000000" stroke-width="0.25"/><path d="M233.736,190.84198c0,0 -0.20401,-0.57241 -0.44176,-0.90331c-0.23774,-0.3309 -0.73791,-0.73858 -0.73791,-0.73858l3.61247,-2.33818l5.84926,-3.89057c0,0 0.57075,0.22411 0.71346,0.40806c0.1427,0.18396 -0.01066,0.71314 -0.01066,0.71314l-5.6437,4.25219l-3.34117,2.49726z" fill="#fbdd00" stroke="none" stroke-width="0"/><path d="M231.88658,192.24904l-1.99296,-1.89574c0,0 2.11489,-1.3977 2.44365,-1.29166c0.55675,0.17958 1.49177,1.63094 1.40079,2.03645c-0.02396,0.10682 -1.49432,1.19749 -1.49432,1.19749z" fill="#c8c8c6" stroke="none" stroke-width="0"/><path d="M221.18528,195.12393c0,0 -2.68466,-3.14209 0.64344,-6.83115c2.24553,-2.4891 5.8314,-1.33141 5.8314,-1.33141c0,0 -1.5204,-0.21663 -2.90473,0.15914c-1.12041,0.30413 -2.20848,1.10856 -2.958,1.97634c-0.50417,0.58374 -1.02461,1.21659 -1.23028,1.78095c-0.84784,2.32655 0.61819,4.24612 0.61819,4.24612z" fill="#fbdd00" stroke="#000000" stroke-width="0.25"/><path d="M240.38611,185.85766c0,0 -0.29365,-0.25441 -0.5314,-0.5853c-0.23774,-0.3309 -0.35531,-0.64392 -0.35531,-0.64392l2.51868,-1.65714c0,0 0.57074,0.22411 0.71345,0.40807c0.1427,0.18396 -0.01066,0.71314 -0.01066,0.71314z" fill="#a56402" stroke="none" stroke-width="0"/></g><g data-paper-data="{&quot;index&quot;:null}" stroke="none" stroke-width="0" stroke-linecap="butt" stroke-linejoin="miter"><path d="M236.07923,186.59932c0.35342,-0.77392 1.12729,-1.96973 1.12729,-1.96973l2.45265,0.10984c0,0 0.32052,0.17216 0.53729,0.69013c0.14075,0.33637 0.05545,0.93271 0.05545,0.93271c0,0 0.44066,-0.55778 0.84863,-0.1496c0.26195,0.26209 -0.08883,1.31435 -0.30014,1.65149c-0.12438,0.19848 -0.45998,0.47001 -0.78798,0.54644c-0.20692,0.0482 -0.47851,-0.06217 -0.47851,-0.06217c0,0 -0.13242,0.35247 -0.51917,0.24462c-0.11849,-0.03306 -0.28982,-0.0448 -0.28982,-0.0448c0,0 -0.17344,0.22211 -0.30531,0.29629c-0.13188,0.07418 -0.38168,0.06821 -0.38168,0.06821l-0.3267,-0.26318c0,0 -0.47988,0.24966 -0.59076,0.24671c-0.43501,-0.01157 -0.60539,-0.46301 -0.69845,-0.7047c-0.17033,-0.44255 -0.39908,-1.46896 -0.34278,-1.59229z" fill="#ffffff"/><path d="M237.0862,183.6474c0.12618,-0.43314 1.2536,-1.05309 1.81797,-1.01637c1.58949,0.10345 1.71178,0.54622 1.59507,1.14767c-0.17866,0.92086 -0.92772,1.87485 -2.94533,1.43097c-0.5523,-0.12151 -0.59386,-1.12913 -0.46768,-1.56227z" fill="#fed000"/><path d="M238.91418,181.48911c0.24444,-0.8392 0.80032,-3.03366 0.80032,-3.03366c0,0 -0.0047,-0.56244 0.56645,-0.01025c0.57115,0.55219 -0.06069,2.22566 -0.29194,3.01963c-0.14101,0.48403 -0.52053,2.28472 -0.52053,2.28472c0,0 -0.18505,0.16828 -0.49503,0.19426c-0.30998,0.02599 -0.84439,-0.04052 -0.84439,-0.04052c0,0 0.43567,-1.21437 0.78514,-2.41419z" fill="#fed5c7"/></g><path d="M240.02614,177.53984c0,0 0.30454,0.72735 -0.86886,1.51002c-1.09141,0.72799 -1.51688,0.13424 -1.51688,0.13424c0,0 0.08614,-0.66504 0.50521,-0.95385c0.41906,-0.28882 1.88052,-0.6904 1.88052,-0.6904z" data-paper-data="{&quot;index&quot;:null}" fill="#afafaf" stroke="none" stroke-width="0" stroke-linecap="butt" stroke-linejoin="miter"/><path d="M236.87602,172.65947c0,0 0.63785,-0.65551 1.43026,-0.7223c0.70718,-0.05959 1.01414,0.14775 1.45427,0.67459c0.66673,0.79805 0.23526,2.12926 0.23526,2.12926c0,0 0.41498,-2.01358 -1.10941,-2.55573c-0.94312,-0.33543 -2.0104,0.47418 -2.0104,0.47418z" fill="#000000" stroke="none" stroke-width="0" stroke-linecap="butt" stroke-linejoin="miter"/><path d="M231.91417,172.80156c0.08767,-2.8776 2.8636,-5.12799 6.20024,-5.02634c3.33664,0.10166 5.97044,2.51683 5.88277,5.39445c-0.08767,2.87761 -2.8636,5.12799 -6.20023,5.02634c-3.33663,-0.10165 -5.97045,-2.5168 -5.88278,-5.39444z" fill="#f79eb4" stroke="none" stroke-width="0" stroke-linecap="butt" stroke-linejoin="miter"/><path d="M232.6389,174.08765c-0.00017,-0.00071 0.16171,1.1728 0.54857,1.83231c0.38688,0.65952 1.88578,2.43026 1.88578,2.43026l0.25475,0.91936c0,0 -1.47736,-0.10274 -2.62148,-2.30794c-0.71375,-1.36631 -0.65163,-2.42542 -0.64586,-2.40913" fill="#f79eb4" stroke="#f89db5" stroke-width="0" stroke-linecap="butt" stroke-linejoin="round"/><g fill="#ffd5c5" stroke="none" stroke-width="1" stroke-linecap="round" stroke-linejoin="round"><path d="M234.1832,177.83462c-0.38598,-0.31975 -0.82903,-0.79391 -0.69512,-1.32474c0.01463,-0.05784 0.1054,0.06235 0.14709,0.10504c0.25772,0.26356 0.56207,-0.02313 0.76405,-0.17152c0.15522,-0.11398 0.40522,-0.16939 0.59377,-0.16587c0.90691,0.02644 2.63331,0.66956 2.94653,0.69248c0.29151,0.02132 1.15387,-0.42179 1.46716,-0.51789c0.32142,-0.09859 0.58877,0.01062 0.63595,0.04948c0.09886,0.08153 0.80176,0.60233 -0.18859,1.60523c-0.13761,0.13934 -0.99503,0.64153 -1.46943,0.683c-0.3978,0.03474 -1.78385,0.19067 -2.81862,-0.19117c-0.82466,-0.30431 -1.31965,-0.71174 -1.3828,-0.76405z"/><path d=""/></g><g fill="#000000" stroke="#000000" stroke-width="0.125" stroke-linecap="butt" stroke-linejoin="round"><path d="M232.65525,174.9329c0.00275,0.02466 -0.62764,-0.10129 -0.70452,-0.12602c-0.3501,-0.11258 -0.64665,-0.23073 -0.97387,-0.39997c-0.1044,-0.05399 -0.44715,-0.28003 -0.44171,-0.278c0.1603,0.05901 0.30349,0.16869 0.46222,0.23483c0.26515,0.11039 0.53927,0.19715 0.81397,0.28133c0.437,0.11663 0.73403,0.09519 0.79578,0.11793"/><path d="M232.5379,174.43773c0.00257,0.02299 -0.61142,-0.13512 -0.90179,-0.30375c-0.29036,-0.16862 -0.91529,-0.71409 -0.9088,-0.70001c0.01724,0.03734 0.58436,0.41687 0.99588,0.61634c0.41151,0.1995 0.74308,0.1972 0.76943,0.17253"/></g><g fill="#000000" stroke="none" stroke-width="1" stroke-linecap="round" stroke-linejoin="round"><path d="M234.69897,176.93261c-0.11012,0.00398 -0.48089,-0.25418 -0.31959,-0.36504c0.09322,-0.0641 0.6238,-0.10648 0.76968,0.00606c0.1919,0.1481 -0.21004,0.33072 -0.45012,0.35897z"/><path d=""/></g><path d="M242.42227,173.56618c0.02241,0.01443 -0.20728,2.29784 -0.37085,2.81591c-0.2455,0.77736 -0.62578,1.51296 -1.17418,2.11983c-0.23317,0.25802 -0.47339,0.46961 -0.74479,0.68229c-0.08784,0.06888 -0.45255,0.29229 -0.45255,0.29229c0,0 0.41411,-1.0162 0.50554,-2.67222c0.04855,-0.87939 -0.01231,-2.83086 0.00654,-2.77724" fill="#f79eb4" stroke="#f89db5" stroke-width="0" stroke-linecap="butt" stroke-linejoin="round"/><path d="M243.82157,172.93887c0.16869,0.36477 0.00921,2.22713 -0.40116,3.57409c-0.31626,1.03802 -0.6039,1.31173 -1.11684,1.85357c-0.58091,0.61363 -0.99394,0.66452 -0.99394,0.66452c0,0 0.50214,-1.14105 0.67223,-1.91443c0.17009,-0.77338 0.55017,-3.56393 0.53598,-3.57902" fill="#f79eb4" stroke="#f89db5" stroke-width="0" stroke-linecap="butt" stroke-linejoin="round"/><g fill="#ee1a40" stroke="none" stroke-width="1" stroke-linecap="round" stroke-linejoin="round"><path d="M233.89314,169.60619c0.0956,-0.11514 2.35875,-1.83664 5.08907,-1.2955c3.37352,0.708 3.58463,4.82006 3.58222,4.81935c-0.03361,-0.00997 -0.52871,-1.59505 -1.38515,-2.30969c-1.11052,-0.92667 -1.75364,-1.46476 -2.9957,-1.71957c-1.57587,-0.32329 -3.82421,0.99974 -3.91247,1.053"/><path d=""/></g><path d="M233.72546,172.38483c-0.02913,-0.02515 -1.63791,-0.26677 -2.21177,-0.06824c-1.05096,0.36356 -2.79742,1.2442 -2.8207,1.24593c-0.01622,0.00117 0.56864,-0.57066 0.91172,-1.23936c0.28753,-0.73802 1.33428,-1.23472 1.65418,-1.30445c1.79476,-0.38111 2.72374,0.24685 2.7016,0.22774" fill="#f79eb4" stroke="#f89db5" stroke-width="0" stroke-linecap="butt" stroke-linejoin="round"/><path d="M233.95192,171.24861c-0.10135,-0.0866 -1.32907,-0.98137 -2.36075,-1.20835c-0.74364,-0.1636 -2.5707,-1.17544 -2.5707,-1.17544c0,0 1.60215,0.35924 3.66117,0.32999c0.60328,0.04984 0.76916,0.12401 1.04234,0.38566c0.27319,0.26165 1.0759,1.64638 1.08245,1.7297" fill="#f79eb4" stroke="#f89db5" stroke-width="0" stroke-linecap="butt" stroke-linejoin="round"/><g stroke="none" stroke-width="1" stroke-linecap="round" stroke-linejoin="round"><g fill="#f79eb4"><path d="M237.9632,169.51349c0.049,-0.15073 1.04005,-0.89333 1.8335,-1.23945c0.79348,-0.34611 1.56697,-0.54335 1.71998,-0.31062c0.11707,0.17801 0.14847,1.04688 0.12525,1.7228c-0.02322,0.67592 -0.20762,1.28973 -0.24104,1.6477"/></g><g fill="#ffd5c5"><path d="M238.64003,169.69892c0.10455,-0.15743 0.54003,-0.52351 0.96985,-0.71926c0.4298,-0.19575 1.29438,-0.45425 1.37244,-0.34752c0.01926,0.02634 0.06545,0.78192 0.03542,1.28154c-0.03002,0.49961 -0.15779,0.88918 -0.17091,0.97368"/></g></g><g fill="#f79eb4" stroke="none" stroke-width="1" stroke-linecap="round" stroke-linejoin="round"><path d="M231.98911,171.38854c-0.0081,-0.01311 -0.44355,-0.85539 -0.55432,-1.64297c-0.07097,-0.50454 0.06549,-1.14508 0.10901,-1.16688c0.21262,-0.10633 1.03631,-0.0146 1.6989,0.05086c0.6626,0.06545 0.97335,0.14465 1.2655,0.24198"/><path d=""/></g><path d="M238.21989,172.91912c0.44589,-0.0374 2.12676,-0.38819 1.77758,1.74445c-0.11619,0.7097 -0.47296,1.77198 -1.76175,2.32291c-0.65857,0.17372 -2.17456,-0.60905 -2.8494,-0.66434c-1.18481,-0.09708 -1.02847,0.4413 -1.61328,0.40214c-0.14636,-0.0098 -0.94607,-0.89583 -1.23785,-2.12754c-0.13757,-0.58079 0.02029,-0.28794 0.08831,-0.28527c0.44883,0.01755 0.71749,-0.17275 1.10738,0.36228c0.27271,0.37421 0.64389,0.68721 0.98172,0.66735c0.19693,-0.01156 0.39496,0.00441 0.82696,-0.58936c0.65816,-0.261 0.16779,-0.75517 2.68033,-1.83262z" fill="#ffffff" stroke="none" stroke-width="0" stroke-linecap="butt" stroke-linejoin="miter"/><path d="M233.75074,173.40727c-0.11756,0.08074 -1.30751,0.49574 -1.53852,0.77525c-0.68206,0.8351 -1.91023,1.2509 -1.87615,1.2767c0.00159,0.00119 0.59544,-0.9148 0.63919,-1.52366c-0.01249,-0.15051 0.80869,-1.13777 1.05993,-1.2734c0.8746,-0.4721 1.79218,-0.2141 1.75062,-0.18561" fill="#f79eb4" stroke="#f89db5" stroke-width="0" stroke-linecap="butt" stroke-linejoin="round"/><g fill="#000000" stroke="#000000" stroke-width="0.125" stroke-linecap="butt" stroke-linejoin="round"><path d="M239.77541,173.32009c0.0499,-0.0166 0.08924,0.01986 0.13577,0.02378c0.04879,0.00411 0.27483,-0.01044 0.44511,-0.05028c0.87448,-0.20462 1.30696,-0.70814 1.30696,-0.70814c0,0 -0.16747,0.37681 -1.40676,0.87995c-0.19303,0.07838 -0.34581,0.06082 -0.36913,0.02408"/><path d="M240.03233,173.40658c0.03358,0.00486 0.09258,0.06564 0.12096,0.08777c0.06438,0.05022 0.54481,0.35105 1.29094,0.25825c0.24728,-0.03214 1.02828,-0.2313 1.02828,-0.2313c0,0 -0.39039,0.21655 -1.07808,0.29772c-0.28841,0.03403 -0.90823,0.01883 -1.14911,-0.06828c-0.12991,-0.04697 -0.16508,-0.09109 -0.16508,-0.09109"/></g><g stroke="none" stroke-linecap="butt" stroke-linejoin="miter"><path d="M237.43208,175.51799c0.02445,0.72022 -0.14457,1.31047 -0.37757,1.31839c-0.233,0.00791 -0.44173,-0.5695 -0.46623,-1.28971c-0.02446,-0.72022 0.14459,-1.31048 0.37758,-1.31839c0.233,-0.00791 0.44173,0.56949 0.46621,1.28971z" fill="#169c5b" stroke-width="NaN"/><path d="M237.19463,175.68739c0.0102,0.30082 -0.06447,0.5475 -0.16686,0.55098c-0.1024,0.00348 -0.19367,-0.23757 -0.20389,-0.53838c-0.0102,-0.30082 0.06447,-0.5475 0.16686,-0.55098c0.1024,-0.00348 0.19367,0.23757 0.20389,0.53838z" fill="#000000" stroke-width="0"/><path d="M237.09471,175.006c0.01034,0.30436 -0.08143,0.55447 -0.205,0.55868c-0.12358,0.00419 -0.23212,-0.23912 -0.24248,-0.54347c-0.01035,-0.30436 0.08142,-0.55447 0.20499,-0.55869c0.12358,-0.00419 0.23212,0.23913 0.24248,0.54347z" fill="#ffffff" stroke-width="0"/></g><g stroke="none" stroke-linecap="butt" stroke-linejoin="miter"><path d="M234.05302,175.77389c0.01724,0.508 -0.10195,0.92434 -0.2663,0.92992c-0.16436,0.00558 -0.31157,-0.4017 -0.32884,-0.90968c-0.01725,-0.50798 0.10196,-0.92433 0.26631,-0.92991c0.16437,-0.00558 0.31158,0.40168 0.32885,0.90967z" fill="#169c5b" stroke-width="NaN"/><path d="M233.88558,175.89337c0.00721,0.21219 -0.04547,0.38616 -0.1177,0.38863c-0.07222,0.00246 -0.1366,-0.16756 -0.14381,-0.37973c-0.00721,-0.21219 0.04547,-0.38617 0.11771,-0.38862c0.07222,-0.00246 0.1366,0.16755 0.1438,0.37972z" fill="#000000" stroke-width="0"/><path d="M233.81507,175.41277c0.0073,0.21467 -0.05744,0.39107 -0.14459,0.39403c-0.08716,0.00298 -0.16373,-0.16865 -0.17103,-0.38331c-0.0073,-0.21467 0.05742,-0.39109 0.14459,-0.39405c0.08715,-0.00298 0.1637,0.16867 0.17101,0.38333z" fill="#ffffff" stroke-width="0"/></g><path d="M237.9275,177.88451c0,0 0.49075,-0.03968 0.80822,-0.03794c0.31749,0.00174 0.46239,0.07666 0.46239,0.07666" fill="none" stroke="#000000" stroke-width="0.125" stroke-linecap="round" stroke-linejoin="miter"/></g></g></svg>