<svg version="1.1" xmlns="http://www.w3.org/2000/svg" xmlns:xlink="http://www.w3.org/1999/xlink" width="25.60068" height="29.40272" viewBox="0,0,25.60068,29.40272"><g transform="translate(-227.27045,-165.29863)"><g data-paper-data="{&quot;isPaintingLayer&quot;:true}" fill-rule="nonzero" stroke="#000000" stroke-linejoin="miter" stroke-miterlimit="10" stroke-dasharray="" stroke-dashoffset="0" style="mix-blend-mode: normal"><path d="M236.49296,174.81172l9.22148,7.36628l7.15669,-2.30256c0,0 -0.91984,11.24334 -1.59051,11.70872c-1.67801,1.16439 -8.25256,3.01289 -8.83605,3.11081c-1.55569,0.2611 -12.76759,-7.55877 -13.74033,-10.42052c-0.95336,-2.80471 -1.62812,-12.42848 -1.38326,-13.18702c0.38759,-1.20062 4.44062,-5.07184 7.76853,-5.07193z" fill="#000c2e" stroke-width="0" stroke-linecap="butt"/><path d="M252.68065,180.12468c0,0 -4.11886,3.62045 -6.91628,2.7665c-2.79742,-0.85395 -10.2435,-7.20455 -10.60495,-8.11509c-0.42708,-1.07588 -0.69408,-8.02388 0.27665,-8.85283c0.92332,-0.78846 7.10312,-0.60648 7.10312,-0.60648c0,0 3.88071,3.54284 5.85868,6.53887c1.97798,2.99602 4.28277,8.26902 4.28277,8.26902z" fill="#002e53" stroke-width="0" stroke-linecap="butt"/><path d="M246.28572,177.71429c0,0 -1.59154,1.684 -2.83742,1.00827c-1.51186,-0.81999 -3.4483,-2.72256 -3.4483,-2.72256" data-paper-data="{&quot;index&quot;:null}" fill="none" stroke-width="0.5" stroke-linecap="round"/><path d="M236.85714,167.71428c0,0 2.40591,-1.14285 3.42857,-1.14285c0.97507,0 2.57143,1.14285 2.57143,1.14285" data-paper-data="{&quot;index&quot;:null}" fill="none" stroke-width="0.5" stroke-linecap="round"/><path d="M245.42857,189.14286c0,0 -2.50627,1.36865 -4.2637,0.79025c-1.97827,-0.65108 -7.02202,-4.50454 -7.02202,-4.50454" data-paper-data="{&quot;index&quot;:null}" fill="none" stroke-width="0.5" stroke-linecap="round"/></g></g></svg>