<svg version="1.1" xmlns="http://www.w3.org/2000/svg" xmlns:xlink="http://www.w3.org/1999/xlink" width="22.1827" height="37.29076" viewBox="0,0,22.1827,37.29076"><g transform="translate(-229.7642,-163.13842)"><g data-paper-data="{&quot;isPaintingLayer&quot;:true}" fill-rule="nonzero" stroke-linejoin="miter" stroke-miterlimit="10" stroke-dasharray="" stroke-dashoffset="0" style="mix-blend-mode: normal"><g data-paper-data="{&quot;index&quot;:null}"><g stroke="#ffffff" stroke-width="0" stroke-linecap="butt"><path d="M239.03664,177.51033l0.76818,-0.38486l0.41291,2.69087l-0.71747,0.13982z" data-paper-data="{&quot;index&quot;:null}" fill="#319a2b"/><path d="M239.34928,180.06294c0.1333,-0.63349 0.73747,-0.6341 0.93004,-0.23595c0.46533,0.96203 0.684,3.06608 0.684,3.06608l-1.33434,0.75924c0,0 -0.40429,-2.9972 -0.27969,-3.58936z" data-paper-data="{&quot;index&quot;:null}" fill="#ead42f"/><path d="M242.70538,184.19948c-1.42409,0.35221 -2.76493,0.3092 -2.93769,0.07854c-0.52769,-0.7045 0.29762,-2.81778 2.05149,-3.10272c1.44802,-0.23526 2.18262,-0.26255 3.04636,0.66617c0.27317,0.29374 -0.73605,2.00578 -2.16016,2.358z" data-paper-data="{&quot;index&quot;:null}" fill="#f0e9bb"/></g><path d="M240.38312,184.34861c0,0 0.80017,-1.33102 1.52078,-1.97651c0.72062,-0.64548 2.18512,-1.06498 2.18512,-1.06498" data-paper-data="{&quot;index&quot;:null}" fill="none" stroke="#d3c49c" stroke-width="0.25" stroke-linecap="round"/><path d="M240.59793,183.36157l0.62933,0.539" data-paper-data="{&quot;index&quot;:null}" fill="none" stroke="#ffffff" stroke-width="0.5" stroke-linecap="round"/><path d="M241.49466,182.40807l0.47676,0.44835" data-paper-data="{&quot;index&quot;:null}" fill="none" stroke="#ffffff" stroke-width="0.5" stroke-linecap="round"/><path d="M242.38654,181.74067l0.40998,0.49126" data-paper-data="{&quot;index&quot;:null}" fill="none" stroke="#ffffff" stroke-width="0.5" stroke-linecap="round"/><path d="M243.51679,181.29745l0.25741,0.40063" data-paper-data="{&quot;index&quot;:null}" fill="none" stroke="#ffffff" stroke-width="0.5" stroke-linecap="round"/></g><g data-paper-data="{&quot;index&quot;:null}"><g data-paper-data="{&quot;index&quot;:null}" stroke="none" stroke-width="0" stroke-linecap="butt"><path d="M240.71491,200.33568c-1.46181,-0.9532 -1.6454,-4.83344 -1.6454,-4.83344c-0.0532,-0.56679 0.07635,-1.05503 0.27581,-1.52459c0.17373,-0.40895 0.40045,-0.80373 0.60565,-1.22392c0.44081,-0.90265 0.92913,0.58007 0.92913,0.58007c0,0 0.83167,2.09963 0.7993,3.29066c0.09704,1.02013 0.10341,4.40753 -0.96448,3.7112z" data-paper-data="{&quot;index&quot;:null}" fill="#54c81c"/><path d="M240.92793,190.27937c0,0 0.00544,3.41289 0.10194,4.6742c0.06527,0.85325 0.22468,2.21351 0.22468,2.21351c-0.0283,0.35903 -0.60175,1.44823 -1.00835,0.7495c-0.31963,-0.54929 -0.49593,-2.8926 -0.49593,-2.8926c0,0 -0.08892,-4.17255 -0.21304,-4.80854c-0.32954,-2.01786 -0.24764,-5.63914 -0.24764,-5.63914l1.4649,0.08452l0.17344,5.61851z" data-paper-data="{&quot;index&quot;:null}" fill="#ffffff"/></g><path d="M239.99348,197.99804l0.3381,-0.37522" fill="none" stroke="#000000" stroke-width="0.5" stroke-linecap="round"/><path d="M239.79884,197.00681l0.26678,-0.3715" fill="none" stroke="#000000" stroke-width="0.5" stroke-linecap="round"/></g><g data-paper-data="{&quot;index&quot;:null}"><g data-paper-data="{&quot;index&quot;:null}" stroke="none" stroke-width="0" stroke-linecap="butt"><path d="M236.72592,196.31892c-0.10073,-1.18719 0.609,-3.33113 0.609,-3.33113c0,0 0.40237,-1.50833 0.89428,-0.63247c0.22899,0.40771 0.47802,0.78883 0.67493,1.18712c0.2261,0.45732 0.38349,0.93731 0.36292,1.50623c0,0 0.03954,3.88438 -1.36512,4.91994c-1.02614,0.75651 -1.2143,-2.62565 -1.17601,-3.64969z" data-paper-data="{&quot;index&quot;:null}" fill="#54c81c"/><path d="M237.11179,189.94115l-0.1495,-5.6192l1.45763,-0.16851c0,0 0.28972,3.61062 0.0766,5.64407c-0.08741,0.64206 0.06344,4.81282 0.06344,4.81282c0,0 -0.04145,2.34957 -0.329,2.91631c-0.36577,0.72091 -1.00084,-0.33356 -1.04971,-0.69036c0,0 0.08103,-1.36719 0.09719,-2.22277c0.02388,-1.26477 -0.16666,-4.67235 -0.16666,-4.67235z" data-paper-data="{&quot;index&quot;:null}" fill="#ffffff"/></g><path d="M238.85857,196.40092l-0.43051,-0.3548" fill="none" stroke="#000000" stroke-width="0.5" stroke-linecap="round"/><path d="M238.57835,197.40246l-0.35909,-0.35518" fill="none" stroke="#000000" stroke-width="0.5" stroke-linecap="round"/></g><g data-paper-data="{&quot;index&quot;:null}"><g data-paper-data="{&quot;index&quot;:null}" stroke="none" stroke-width="0" stroke-linecap="butt"><path d="M236.80234,182.07138c0,0 -1.8403,0.45672 -3.33012,0.50556c-0.8212,0.02692 -1.88592,-0.12161 -2.48394,-0.11003c-1.01044,0.01953 -1.22408,0.37596 -1.22408,0.37596c0,0 0.502,-0.95438 0.81233,-1.32341c0.31034,-0.36905 0.61823,-0.7132 0.75893,-0.60166c0.14069,0.11153 5.46688,1.15356 5.46688,1.15356z" fill="#54c81c"/><path d="M235.61032,182.21904c-3.03534,0.21035 -4.65343,-1.14798 -4.65343,-1.14798c0,0 1.38276,-1.81796 4.63957,-1.78207c2.54547,0.02805 3.49237,0.92406 3.99279,0.87642c1.45502,-0.13852 1.15026,0.03384 1.15026,0.03384c0,0 -0.9121,1.72756 -5.12918,2.0198z" fill="#ffffff"/></g><path d="M232.15608,181.98132l0.60176,-0.31249" fill="none" stroke="#ffffff" stroke-width="0.25" stroke-linecap="round"/><path d="M231.64771,181.31757l-0.47115,0.35381" fill="none" stroke="#ffffff" stroke-width="0.25" stroke-linecap="round"/></g><g data-paper-data="{&quot;index&quot;:null}"><g data-paper-data="{&quot;index&quot;:null}" stroke="none" stroke-width="0" stroke-linecap="butt"><path d="M231.54585,188.4785c0,0 -0.73961,-2.38236 0.24848,-3.89205c0.74695,-1.14129 2.3543,-2.38038 2.3543,-2.38038l3.20758,4.00639c0,0 -2.80489,0.49883 -3.84617,0.94347c-1.04129,0.44465 -1.96418,1.32257 -1.96418,1.32257z" fill="#54c81c"/><path d="M232.78631,185.47583c-0.73068,-1.32305 0.69035,-2.89874 1.36232,-3.26975c0.66691,-0.36822 1.43918,-1.2975 4.26032,-1.11958c1.92409,0.12135 2.71811,-0.78507 2.71811,-0.78507l0.68753,0.54755c0,0 -0.4021,3.3669 -2.21596,4.56724c-1.69691,1.12293 -6.10993,1.33145 -6.81231,0.05961z" fill="#ffffff"/></g><path d="M234.36411,186.12827l-0.51579,0.26784" fill="none" stroke="#ffffff" stroke-width="0.25" stroke-linecap="round"/><path d="M232.73487,185.82828l0.45049,-0.2885" fill="none" stroke="#ffffff" stroke-width="0.25" stroke-linecap="round"/><path d="M232.95222,184.46025l-0.66705,0.29183" fill="none" stroke="#ffffff" stroke-width="0.25" stroke-linecap="round"/></g><g data-paper-data="{&quot;index&quot;:null}"><g data-paper-data="{&quot;index&quot;:null}" stroke="none" stroke-width="0" stroke-linecap="butt"><path d="M249.21236,187.56912c0,0 -0.98521,-0.73142 -1.68307,-1.08442c-0.69786,-0.353 -3.52331,-1.23553 -3.52331,-1.23553c0,0 3.19662,0.73663 3.71338,0.17998c0.51682,-0.55672 -1.20886,-2.88879 -0.65796,-2.55159c2.90962,1.78099 2.15093,4.69154 2.15093,4.69154z" fill="#54c81c"/><path d="M239.75388,180.3837c0,0 2.77161,0.60018 4.55387,1.09641c2.15957,0.60129 4.01165,2.36778 4.20077,3.43555c0.18912,1.06777 -3.19817,0.88755 -4.51908,0.23493c-1.43076,-0.7069 -4.23555,-4.7669 -4.23555,-4.7669z" fill="#ffffff"/></g><path d="M247.13174,185.28293l0.57368,0.68441" fill="none" stroke="#ffffff" stroke-width="0.25" stroke-linecap="round"/><path d="M248.63038,185.54161l-0.35381,-0.47115" fill="none" stroke="#ffffff" stroke-width="0.25" stroke-linecap="round"/></g><g data-paper-data="{&quot;index&quot;:null}"><g data-paper-data="{&quot;index&quot;:null}" stroke="none" stroke-width="0" stroke-linecap="butt"><path d="M240.55261,187.23633c0,0 2.76874,1.51203 3.48432,0.84535c0.72619,-0.67655 0.32952,-4.00978 0.32952,-4.00978c0,0 1.07132,0.67199 1.40351,3.21696c0.19367,1.46945 -0.30495,4.97528 -0.30495,4.97528c0,0 -1.73219,-1.68761 -3.05423,-2.53542c-1.0983,-0.70434 -1.85817,-2.49238 -1.85817,-2.49238z" fill="#54c81c"/><path d="M244.46478,184.06187c0.09386,0.13425 0.82937,2.87178 -0.20738,4.15675c-0.94428,1.11441 -3.68392,-0.95502 -3.68392,-0.95502c0,0 -0.96197,-1.34746 -1.56827,-2.49983c-0.72843,-1.38448 -0.13131,-3.07587 0.46828,-3.75536c0.5996,-0.67949 0.27929,0.35061 2.12385,0.79216c1.38979,0.3327 2.77751,2.13262 2.86746,2.26129z" fill="#ffffff"/></g><path d="M242.27972,188.12996l0.20254,0.49513" fill="none" stroke="#ffffff" stroke-width="0.25" stroke-linecap="round"/><path d="M243.86432,188.34397l0.05127,0.5191" fill="none" stroke="#ffffff" stroke-width="0.25" stroke-linecap="round"/><path d="M244.87192,187.65702l-0.35712,-0.68771" fill="none" stroke="#ffffff" stroke-width="0.25" stroke-linecap="round"/></g><g data-paper-data="{&quot;index&quot;:null}"><path d="M241.56725,182.34876c-0.46901,0.26934 -2.48633,-1.08362 -2.48633,-1.08362c-0.15003,-0.34322 -1.5762,-0.57771 -1.46094,-1.02501c0.04504,-0.17465 0.48779,-1.04585 0.82928,-1.53409c0.3415,-0.48825 0.23991,-0.9556 1.0287,-1.1223c0.78879,-0.1667 1.8625,0.43387 2.00915,0.48027c0.1161,0.03673 0.62994,0.40736 0.65077,1.5214c0.02084,1.11405 -0.14687,2.43272 -0.57063,2.76336z" data-paper-data="{&quot;index&quot;:null}" fill="#319a2b" stroke="none" stroke-width="0.17188" stroke-linecap="butt"/><path d="M240.33366,181.69561c0.58409,0.18481 1.34261,0.39032 1.34261,0.39032l0.03094,0.64471c0,0 -0.67792,-0.55436 -1.38624,-0.59741c-0.59327,-0.15165 -1.0984,-0.67186 -0.96411,-0.79154c0.26003,-0.23177 0.3927,0.1691 0.97679,0.35391z" data-paper-data="{&quot;index&quot;:null}" fill="#ead42f" stroke="none" stroke-width="0" stroke-linecap="butt"/><path d="M237.58853,180.14127c0,0 0.54246,0.28993 1.10088,0.54187c0.55842,0.25194 0.25062,0.57071 -0.29252,0.28794c-0.55641,-0.44041 -1.28156,-0.46323 -1.28156,-0.46323l0.47321,-0.36658z" data-paper-data="{&quot;index&quot;:null}" fill="#ead42f" stroke="none" stroke-width="0" stroke-linecap="butt"/><path d="M240.32035,181.41544l-0.04004,0.38685" fill="none" stroke="#ffffff" stroke-width="0.25" stroke-linecap="round"/><path d="M241.19285,181.7511l-0.01219,0.34047" fill="none" stroke="#ffffff" stroke-width="0.25" stroke-linecap="round"/><path d="M238.38243,180.64713l0.12172,-0.28216" fill="none" stroke="#ffffff" stroke-width="0.25" stroke-linecap="round"/><path d="M237.88044,180.11507l-0.25531,0.31962" fill="none" stroke="#ffffff" stroke-width="0.25" stroke-linecap="round"/></g><g data-paper-data="{&quot;index&quot;:null}" stroke="none" stroke-linecap="butt"><path d="M240.48914,177.88515c0.14132,0.11714 0.19047,0.41635 0.15542,0.80519c-0.03494,0.38883 -0.15397,0.8672 -0.34867,1.34255c-0.1947,0.47546 -0.42853,0.85868 -0.649,1.0937c-0.22058,0.23503 -0.42778,0.32196 -0.56912,0.20482c-0.14143,-0.11724 -0.19047,-0.41644 -0.15552,-0.80528c0.03505,-0.38884 0.15397,-0.8672 0.34867,-1.34255c0.19469,-0.47546 0.42863,-0.85868 0.6491,-1.0937c0.22047,-0.23503 0.42767,-0.32196 0.56911,-0.20472z" fill="#eb3d66" stroke-width="0.01872"/><path d="M240.09056,178.77326c0.19692,0.07063 0.22294,0.50036 0.05814,0.95983c-0.1648,0.45947 -0.45803,0.77468 -0.65495,0.70405c-0.19692,-0.07063 -0.22294,-0.50036 -0.05814,-0.95983c0.1648,-0.45947 0.45803,-0.77468 0.65495,-0.70405z" fill="#492116" stroke-width="0"/><path d="M240.53093,178.11204c0.06721,0.02913 0.11106,0.13551 0.12777,0.28405c0.01668,0.14845 0.00611,0.33905 -0.03561,0.53628c-0.04175,0.19713 -0.10682,0.36403 -0.17832,0.47435c-0.07149,0.11032 -0.14932,0.16412 -0.21643,0.13497c-0.06718,-0.02903 -0.11105,-0.13551 -0.12776,-0.28405c-0.01667,-0.14847 -0.00616,-0.33895 0.03565,-0.53621c0.04174,-0.19722 0.10681,-0.36412 0.17831,-0.47444c0.07141,-0.1103 0.14923,-0.16401 0.21642,-0.13497z" fill="#ffffff" stroke-width="0.01896"/></g><g data-paper-data="{&quot;index&quot;:null}"><g stroke="none" stroke-width="0" stroke-linecap="butt"><path d="M241.26131,179.51422l0.6534,-0.55792l1.04647,2.5132l-0.66296,0.30788z" fill="#319a2b"/><path d="M242.17727,181.91727c-0.02261,-0.64696 0.56378,-0.79253 0.84626,-0.45222c0.68256,0.82229 1.39966,2.81241 1.39966,2.81241l-1.1132,1.05721c0,0 -1.11161,-2.81263 -1.13273,-3.41739z" fill="#ead42f"/><path d="M246.38993,184.99404c-1.25535,0.75909 -2.54851,1.11604 -2.78195,0.94708c-0.71303,-0.51609 -0.55228,-2.77911 1.03795,-3.57186c1.31292,-0.6545 2.00629,-0.89865 3.10679,-0.26819c0.34807,0.19939 -0.10744,2.13386 -1.36279,2.89296z" fill="#f0e9bb"/></g><path d="M243.76858,185.85674c0,0 0.41437,-1.49673 0.93573,-2.31166c0.52137,-0.81493 1.81996,-1.61141 1.81996,-1.61141" fill="none" stroke="#d3c49c" stroke-width="0.25" stroke-linecap="round"/><path d="M244.46186,185.19893l-0.75071,-0.35072" fill="none" stroke="#ffffff" stroke-width="0.5" stroke-linecap="round"/><path d="M244.8991,183.9936l-0.57944,-0.30426" fill="none" stroke="#ffffff" stroke-width="0.5" stroke-linecap="round"/><path d="M245.00016,182.80744l0.5266,0.36347" fill="none" stroke="#ffffff" stroke-width="0.5" stroke-linecap="round"/><path d="M246.3257,182.39465l-0.35532,-0.31703" fill="none" stroke="#ffffff" stroke-width="0.5" stroke-linecap="round"/></g><g data-paper-data="{&quot;index&quot;:null}"><path d="M242.52477,169.47882c3.75983,0.28102 3.72983,3.54144 3.7522,3.80822c0.01733,0.63059 -0.13428,1.2606 -0.37969,1.83864c-0.40213,0.9677 -1.12475,1.832 -2.09081,2.26917c-0.47717,0.1452 -0.40683,0.14026 -0.87098,0.30619c-0.69117,0.37762 -1.6434,0.39271 -2.39055,0.32275c-0.60913,-0.02468 -1.20937,-0.14857 -1.78407,-0.35264c-0.36682,-0.14532 -0.78255,-0.23579 -1.07182,-0.52057c-0.26523,-0.26957 -0.47165,-0.62899 -0.44862,-1.01836c0.00376,-0.94939 -0.00126,-1.90036 0.08822,-2.84593c0.03817,-0.25791 0.03888,-0.54355 0.18356,-0.76967c0.19535,-0.1799 0.47687,-3.37684 5.01255,-3.03783z" data-paper-data="{&quot;index&quot;:null}" fill="#f0e9bb" stroke="none" stroke-width="0.17188" stroke-linecap="butt"/><path d="M246.28037,168.85379c0.93032,-0.05052 1.57985,0.15008 1.94388,0.46721c0.0519,0.04498 0.01753,0.08426 0.07883,0.1551c0.07417,0.0858 0.28439,0.22533 0.24516,0.192c0,0 -0.09372,0.15235 -0.0929,0.22818c0.00111,0.09639 0.11205,0.21798 0.02294,0.18686c0,0 0.04844,0.14562 0.03165,0.19541c-0.18303,0.54385 -0.69696,1.22201 -1.32516,1.53932c0.27832,0.5138 -1.49391,-2.58257 -0.90436,-2.96405z" data-paper-data="{&quot;index&quot;:null}" fill="#ed3e67" stroke="none" stroke-width="0.17188" stroke-linecap="butt"/><path d="M237.68671,172.40047l-0.35292,2.36604l0.06629,1.93817l0.15256,1.38059c0.01815,0.16231 -1.56222,-1.23626 -1.87339,-1.71038c-0.38512,-0.5866 -0.61104,-1.2115 -0.83422,-1.83711c-0.16284,-0.45589 -0.16418,-0.6371 -0.20052,-0.96131l-0.11257,-1.00656c-0.02142,-0.19125 -0.03137,-1.15546 0.16724,-1.30386c0.05637,-0.0421 0.67616,0.4931 0.75204,0.49773l0.55397,0.03228c0.16434,0.00974 0.6838,-0.29756 0.83559,-0.40038c0.11092,-0.07501 0.74171,-0.67328 0.85692,-1.30033l0.11392,-0.62029c0.01708,-0.09289 -0.13463,-1.09582 -0.0956,-1.11024c0.08038,-0.02998 -0.69614,-1.14916 -0.61209,-1.18469c0.46774,-0.19839 1.03635,-0.45488 1.65703,-0.53639c0.97578,-0.12816 2.02155,-0.00781 2.55824,0.04526c0.09151,0.00905 1.25535,0.14748 1.93315,0.44258c1.07331,0.4672 1.63415,1.22947 1.67363,1.27206c0.62,0.66847 1.05915,1.4227 1.34168,2.25119l0.13272,0.69169c0.06797,0.35405 0.27868,2.05072 0.16044,3.35745c-0.24883,2.75002 -1.93831,4.45258 -2.14611,4.32445c-0.29122,-0.17921 -0.62665,-1.80607 -0.74243,-1.66936c-0.25666,0.30277 1.35174,-0.71799 1.80268,-1.56861c0.45095,-0.85063 0.53542,-2.92128 0.53831,-3.08961c0.00245,-0.13306 -0.06895,-0.24768 -0.20478,-0.22479c-0.09041,0.01516 -1.12847,0.11609 -1.53306,0.33024c-0.4046,0.21415 -1.31771,1.26766 -1.34066,1.19514c-0.00847,-0.02701 -0.35031,-0.31537 -0.33432,-0.35342c0.09698,-0.23008 -0.53948,0.26568 -0.62226,0.34402c-0.2177,0.206 -0.63051,-1.21141 -1.48058,-1.67949c-0.85008,-0.46809 -1.7985,-0.52747 -2.00727,-0.36464c-0.08315,0.06486 -0.32987,0.18143 -0.45694,0.24119c-0.16909,0.07936 -0.2847,0.12502 -0.34669,0.21139z" data-paper-data="{&quot;index&quot;:null}" fill="#54c81c" stroke="none" stroke-width="0.17188" stroke-linecap="butt"/><path d="M233.78844,170.48799c-0.5854,-0.25774 -1.0966,-0.8622 -1.302,-1.36206c-0.01889,-0.04576 0.01323,-0.18592 0.01323,-0.18592c-0.07722,0.03508 0.01274,-0.08659 0.00623,-0.17728c-0.00509,-0.07128 -0.10061,-0.2086 -0.10061,-0.2086c-0.03248,0.03397 0.14449,-0.11095 0.20424,-0.19638c0.04928,-0.07074 0.01549,-0.10545 0.05841,-0.15136c0.30069,-0.32171 0.86527,-0.55255 1.7,-0.56568c1.09213,-0.01698 1.97495,0.85854 1.94171,1.24725c0,0 -1.52143,2.03999 -2.52118,1.60001z" data-paper-data="{&quot;index&quot;:null}" fill="#ed3e67" stroke="none" stroke-width="0.17188" stroke-linecap="butt"/><path d="M237.04255,169.64947c0.15704,-0.09087 -0.4072,1.34895 -0.806,1.52253c-0.68585,0.29842 -0.63478,0.5657 -1.18021,0.34721c-0.12252,-0.04887 -0.35263,-0.29195 -0.69802,-0.47045c-0.40017,-0.20658 -0.74713,-0.47585 -0.60356,-0.53524l0.86858,-0.414l1.3426,-1.25819c0.02087,-0.01958 -0.21143,-0.25174 -0.57731,-0.56021c-0.25653,-0.21636 -0.64553,-0.48032 -0.9534,-0.63045c-0.18145,-0.08839 0.2127,-0.27368 0.76021,-0.38076c0.26541,-0.05195 0.54896,-0.12635 0.85455,-0.08277c0.52922,0.07564 0.86602,0.71835 0.95546,1.34833c0.08383,0.58998 -0.06745,1.17422 0.03709,1.11397z" data-paper-data="{&quot;index&quot;:null}" fill="#54c81c" stroke="none" stroke-width="0.17188" stroke-linecap="butt"/><path d="M237.81326,169.67883c-0.07692,1.21275 -1.36478,2.18149 -1.7493,2.12099l-0.61778,0.05958l-0.81673,-0.58755c-0.20909,-0.15052 1.19239,0.17906 1.57021,-0.17064c0.24659,-0.22808 0.42762,-0.40507 0.46769,-0.50031c0.3805,-0.90826 0.4132,-1.6748 0.27058,-2.1883c-0.22409,-0.80689 -0.78614,-1.10749 -0.39105,-1.25563c0.94206,-0.3535 1.35036,1.19648 1.26639,2.52185z" data-paper-data="{&quot;index&quot;:null}" fill="#ead32e" stroke="none" stroke-width="0.17188" stroke-linecap="butt"/><path d="M245.40634,169.05036c-0.36427,-0.5963 -0.95672,-0.98686 -0.82412,-1.13392c0.1047,-0.05511 0.60306,0.1223 0.73108,0.26506l0.2601,0.28977c0.45731,0.5097 0.59595,1.20548 0.56412,1.48283c-0.01374,0.11995 0.09467,0.35036 0.03993,0.48048c0,0 -0.2907,-0.44475 -0.34655,-0.72568c0,0 -0.24994,-0.37268 -0.42456,-0.65853z" data-paper-data="{&quot;index&quot;:null}" fill="#ead32e" stroke="none" stroke-width="0.17188" stroke-linecap="butt"/><path d="M245.57304,168.3512c0,0 1.07652,0.0587 1.24365,0.37215c0.11115,0.20814 -0.10455,0.66913 0.03156,0.83158c0.16897,0.2017 0.40632,0.68449 0.52441,1.0348c0.01773,0.31257 0.10333,0.61771 -0.05842,0.95088c0.02782,0.30851 -0.77617,0.80266 -0.79516,0.70063l-0.2582,-1.38675c-0.06549,-0.35188 -0.22125,-1.06709 -0.26889,-1.21355z" data-paper-data="{&quot;index&quot;:null}" fill="#54c81c" stroke="none" stroke-width="0.17188" stroke-linecap="butt"/><path d="M238.18581,172.59411c0.46673,-0.58208 1.50559,-0.51899 1.96838,-0.10753c0.46279,0.41146 0.45962,1.21688 -0.00712,1.79897c-0.46673,0.58208 -1.22026,0.72039 -1.68305,0.30894c-0.46281,-0.41146 -0.74495,-1.4183 -0.27821,-2.00038z" fill="#000000" stroke="none" stroke-width="0" stroke-linecap="butt"/><path d="M245.41107,175.27458c-0.52593,0.32692 -1.24505,0.06268 -1.60619,-0.59019c-0.36113,-0.65286 -0.22753,-1.44714 0.29841,-1.77406c0.52593,-0.32692 1.48131,-0.25764 1.84244,0.39524c0.36113,0.65287 -0.00873,1.64209 -0.53466,1.96901z" data-paper-data="{&quot;index&quot;:null}" fill="#000000" stroke="none" stroke-width="0" stroke-linecap="butt"/><path d="M239.72238,177.07517l-0.44227,-0.42682" fill="none" stroke="#000000" stroke-width="0.25" stroke-linecap="round"/><path d="M240.82319,177.44316l-0.59214,-0.11754" fill="none" stroke="#000000" stroke-width="0.25" stroke-linecap="round"/><path d="M241.41533,177.5607l0.59782,0.05113" fill="none" stroke="#000000" stroke-width="0.25" stroke-linecap="round"/><path d="M242.55589,177.52441l0.54276,-0.08741" fill="none" stroke="#000000" stroke-width="0.25" stroke-linecap="round"/><path d="M243.88044,176.90167l-0.35485,0.2373" fill="none" stroke="#000000" stroke-width="0.25" stroke-linecap="round"/><path d="M239.47485,175.76703l-0.34551,0.40841l-0.3847,-0.2106" fill="none" stroke="#000000" stroke-width="0.25" stroke-linecap="round"/><path d="M244.53811,176.55147l-0.43629,0.04459l-0.15972,-0.51055" data-paper-data="{&quot;index&quot;:null}" fill="none" stroke="#000000" stroke-width="0.25" stroke-linecap="round"/><path d="M238.68142,172.90177l0.97475,1.18131" fill="none" stroke="#ffffff" stroke-width="0.25" stroke-linecap="round"/><path d="M239.66199,172.88691l-1.04899,1.18325" fill="none" stroke="#ffffff" stroke-width="0.25" stroke-linecap="round"/><path d="M238.25699,172.67614c0.08432,-0.1902 0.30687,-0.27603 0.49706,-0.19172c0.1902,0.08432 0.27603,0.30687 0.19172,0.49706c-0.08432,0.1902 -0.30687,0.27603 -0.49706,0.19172c-0.1902,-0.08432 -0.27603,-0.30687 -0.19172,-0.49706z" fill="#ffffff" stroke="none" stroke-width="0" stroke-linecap="butt"/><path d="M239.41959,173.94073c0.08432,-0.1902 0.30687,-0.27603 0.49706,-0.19172c0.1902,0.08432 0.27603,0.30687 0.19172,0.49706c-0.08432,0.1902 -0.30687,0.27603 -0.49706,0.19172c-0.1902,-0.08432 -0.27603,-0.30687 -0.19172,-0.49706z" fill="#ffffff" stroke="none" stroke-width="0" stroke-linecap="butt"/><path d="M239.61003,173.08864c-0.19019,-0.08431 -0.27604,-0.30686 -0.19173,-0.49706c0.08431,-0.1902 0.30687,-0.27603 0.49706,-0.19172c0.1902,0.08432 0.27603,0.30687 0.19172,0.49706c-0.08432,0.1902 -0.30687,0.27603 -0.49706,0.19172z" fill="#ffffff" stroke="none" stroke-width="0" stroke-linecap="butt"/><path d="M238.28603,173.96269c0.08432,-0.1902 0.30687,-0.27603 0.49706,-0.19172c0.1902,0.08432 0.27603,0.30687 0.19172,0.49706c-0.08432,0.1902 -0.30687,0.27603 -0.49706,0.19172c-0.1902,-0.08432 -0.27603,-0.30687 -0.19172,-0.49706z" fill="#ffffff" stroke="none" stroke-width="0" stroke-linecap="butt"/><path d="M245.29188,174.63295l-0.97475,-1.18131" fill="none" stroke="#ffffff" stroke-width="0.25" stroke-linecap="round"/><path d="M245.29769,173.43679l-1.04899,1.18325" fill="none" stroke="#ffffff" stroke-width="0.25" stroke-linecap="round"/><path d="M243.89269,173.22601c0.08432,-0.1902 0.30687,-0.27603 0.49706,-0.19172c0.1902,0.08432 0.27603,0.30687 0.19172,0.49706c-0.08432,0.1902 -0.30687,0.27603 -0.49706,0.19172c-0.1902,-0.08432 -0.27603,-0.30687 -0.19172,-0.49706z" fill="#ffffff" stroke="none" stroke-width="0" stroke-linecap="butt"/><path d="M245.05529,174.49061c0.08432,-0.1902 0.30687,-0.27603 0.49706,-0.19172c0.1902,0.08432 0.27603,0.30687 0.19172,0.49706c-0.08432,0.1902 -0.30687,0.27603 -0.49706,0.19172c-0.1902,-0.08432 -0.27603,-0.30687 -0.19172,-0.49706z" fill="#ffffff" stroke="none" stroke-width="0" stroke-linecap="butt"/><path d="M245.24573,173.63852c-0.19019,-0.08431 -0.27604,-0.30686 -0.19173,-0.49706c0.08431,-0.1902 0.30687,-0.27603 0.49706,-0.19172c0.1902,0.08432 0.27603,0.30687 0.19172,0.49706c-0.08432,0.1902 -0.30687,0.27603 -0.49706,0.19172z" fill="#ffffff" stroke="none" stroke-width="0" stroke-linecap="butt"/><path d="M243.92174,174.51257c0.08432,-0.1902 0.30687,-0.27603 0.49706,-0.19172c0.1902,0.08432 0.27603,0.30687 0.19172,0.49706c-0.08432,0.1902 -0.30687,0.27603 -0.49706,0.19172c-0.1902,-0.08432 -0.27603,-0.30687 -0.19172,-0.49706z" fill="#ffffff" stroke="none" stroke-width="0" stroke-linecap="butt"/></g><g data-paper-data="{&quot;index&quot;:null}"><path d="M241.09394,168.22756c0,0 1.06751,-1.83898 2.07659,-2.70824c1.00907,-0.86926 2.77025,-0.85796 2.77025,-0.85796l-0.10274,0.74501c0,0 -1.2154,-0.16481 -2.17221,0.66432c-0.95681,0.82913 -1.97547,2.46882 -1.97547,2.46882z" fill="#000000" stroke="none" stroke-width="0" stroke-linecap="butt"/><path d="M245.14631,164.76158l3.40473,-1.37851l3.34599,3.07479l-4.22525,0.64974z" fill="#ea035a" stroke="none" stroke-width="0" stroke-linecap="butt"/><path d="M245.27137,164.87399l6.55053,1.46563" fill="none" stroke="#000000" stroke-width="0.25" stroke-linecap="round"/><path d="M247.69735,167.11813l-0.88909,-1.966l1.77346,-1.88871" fill="none" stroke="#000000" stroke-width="0.25" stroke-linecap="round"/></g></g></g></svg>