<svg version="1.1" xmlns="http://www.w3.org/2000/svg" xmlns:xlink="http://www.w3.org/1999/xlink" width="167.4872" height="29.28151" viewBox="0,0,167.4872,29.28151"><g transform="translate(-146.27584,-165.17411)"><g data-paper-data="{&quot;isPaintingLayer&quot;:true}" fill-rule="nonzero" stroke="none" stroke-linecap="butt" stroke-linejoin="miter" stroke-miterlimit="10" stroke-dasharray="" stroke-dashoffset="0" style="mix-blend-mode: normal"><g><path d="M292.41132,179.63851c1.43795,0.73323 2.83889,2.29017 4.02435,3.36296c1.0346,0.93446 1.75177,0.49699 2.94081,1.24095c0.86304,0.54625 1.06231,0.04174 2.04267,0.09015c0.50755,-0.89004 0.7727,-1.16345 1.68357,-1.50224c0.19847,0.08552 -0.49909,1.39726 -0.23895,1.77604c0.01931,0.04711 -0.05996,0.28451 0.02815,0.24406c2.50338,-5.38629 -0.97075,-8.68847 5.15261,-5.43861c0.17774,1.56934 0.71959,4.35175 0.23072,5.84604c-0.79671,2.49974 -2.41498,4.80995 -4.73161,6.10656c-1.15935,0.46403 -0.98494,0.43666 -2.10741,0.94961c-1.64362,1.08942 -4.01581,1.33016 -5.8945,1.31502c-1.52477,0.06838 -3.04851,-0.11266 -4.52567,-0.49909c-0.94603,-0.28425 -2.00241,-0.42127 -2.78477,-1.06996c-0.71913,-0.61589 -1.31071,-1.46844 -1.3363,-2.44466c-0.1931,-2.36911 -0.55578,-4.34743 -0.53427,-6.72528c-0.1255,-3.14795 3.69018,-3.35853 6.05058,-3.25153z" data-paper-data="{&quot;index&quot;:null}" fill="#54c81c" stroke-width="0.17188"/><path d="M295.60709,184.07515c0.53345,0.68786 0.85791,3.60992 0.23152,3.67752c-0.65023,0 -1.52708,0.08452 -2.31535,0.04687c-1.23027,-0.05916 -3.24866,-0.40662 -3.2256,-0.63043c0.07424,-0.72449 0.08185,-1.4247 0.08185,-2.30747c0,-1.54575 0.78389,-3.16914 2.03595,-3.16914c0.89402,0 1.65896,0.04407 2.5512,1.33016c0.21922,0.31604 0.46865,0.58773 0.64047,1.05253z" data-paper-data="{&quot;index&quot;:null}" fill="#ffffff" stroke-width="0.17188"/><path d="M305.23569,180.85733c0.62156,-0.10168 0.98648,0.22231 1.20873,0.92093c0.15542,0.48989 0.2594,1.21848 0.25457,1.87997c-0.00544,0.71321 -0.00544,1.14088 -0.09368,1.56807c-0.08675,0.41949 -0.05371,0.79422 -0.13682,1.02125c-0.06023,0.25962 -0.23399,0.42643 -1.22353,0.64106c-0.63382,0.13754 -1.25128,0.23687 -1.77857,0.31933c-0.51911,0.01251 -0.77929,-2.84417 -0.45251,-3.59146c0.20564,-1.3737 0.70425,-2.23929 2.22188,-2.75915z" data-paper-data="{&quot;index&quot;:null}" fill="#ffffff" stroke-width="0.17188"/><path d="M307.89318,169.53058c2.30997,-0.32447 3.97302,0.0374 4.94876,0.75084c0.13905,0.10115 0.06173,0.20642 0.22974,0.37007c0.20332,0.19821 0.7575,0.50143 0.65253,0.42668c0,0 -0.20129,0.40003 -0.18309,0.58901c0.02325,0.24023 0.32601,0.51987 0.09708,0.46123c0,0 0.15186,0.3529 0.1206,0.4807c-0.3406,1.39571 -1.47793,3.19707 -2.97735,4.1226c-1.66138,0.21539 -4.27755,-6.12369 -2.88822,-7.20109z" data-paper-data="{&quot;index&quot;:null}" fill="#54c81c" stroke-width="0.17188"/><path d="M286.83655,186.18846l0.5788,4.82071l0.67506,3.41142c0.07995,0.40105 -4.16078,-2.75072 -5.03813,-3.86702c-1.08583,-1.38114 -1.78268,-2.89178 -2.47286,-4.40481c-0.50347,-1.10251 -0.54547,-1.55424 -0.70526,-2.35529l-0.49552,-2.48693c-0.09423,-0.47253 -0.32472,-2.87567 0.13905,-3.28822c0.13162,-0.11703 1.64459,-1.2712 1.83486,-1.27581c4.4877,1.24704 1.92257,-6.29485 3.29241,-9.42969c1.12449,-0.59466 2.48822,-1.35578 4.01914,-1.6915c2.40679,-0.52781 5.0412,-0.45073 6.39133,-0.43281c0.23023,0.00307 3.16301,0.10015 4.91675,0.69172c2.77708,0.93655 4.33873,2.71841 4.44629,2.81624c1.68921,1.53527 2.9456,3.32307 3.82706,5.32955l0.47863,1.69714c0.24508,0.86869 1.08328,5.64917 0.61564,7.33964l-1.59548,5.77313c-0.27915,1.01106 -2.95762,5.74752 -3.50334,5.47222c-0.76469,-0.38491 -0.78007,-3.37018 -1.03974,-3.00449c5.34849,-2.22318 6.34861,-15.72165 2.38317,-10.41277c-0.96815,1.08183 -4.5276,7.05424 -2.9772,2.9862c0.19284,-0.59466 0.11306,-0.55816 -0.07675,-0.3451c-1.4059,3.04084 -5.02541,1.32632 -6.85579,-0.25825c-5.08169,-5.54062 -8.42309,-3.14708 -8.83815,2.91472z" data-paper-data="{&quot;index&quot;:null}" fill="#54c81c" stroke-width="0.17188"/><path d="M277.07993,176.27171c-1.51531,-0.51807 -2.91945,-1.91687 -3.53844,-3.12c-0.05683,-0.11011 -0.0068,-0.4666 -0.0068,-0.4666c-0.18517,0.10397 0.0136,-0.2187 -0.0223,-0.44355c-0.02787,-0.1767 -0.29551,-0.49889 -0.29551,-0.49889c-0.07369,0.09168 0.33678,-0.30757 0.46762,-0.53345c0.10782,-0.18697 0.01618,-0.26635 0.1134,-0.39005c0.68147,-0.86664 2.04058,-1.56294 4.12007,-1.77372c2.72075,-0.27531 5.10976,1.72042 5.10976,2.69716c0,0 -3.36015,5.41339 -5.94795,4.52907z" data-paper-data="{&quot;index&quot;:null}" fill="#54c81c" stroke-width="0.17188"/><path d="M285.01864,173.48593c-0.365,2.65631 -2.64955,5.6359 -4.55588,5.0878c-0.31604,-0.09578 -0.94192,-0.65306 -1.84159,-1.02465c-1.04229,-0.42998 -1.96525,-1.02771 -1.6198,-1.20646c2.20897,-3.47525 2.39912,-5.09084 1.08682,-7.28663c-0.47147,-0.18181 0.47224,-0.72808 1.8152,-1.11198c0.651,-0.18619 1.34243,-0.43228 2.11405,-0.38873c2.20527,1.34515 2.83224,3.67623 3.0012,5.93064z" data-paper-data="{&quot;index&quot;:null}" fill="#54c81c" stroke-width="0.17188"/><path d="M286.94747,173.39476c-1.17089,3.842 -4.22746,6.66835 -7.6024,4.65296c-0.55368,-0.33088 1.55433,-0.29377 2.42225,-1.24669c0.56648,-0.62156 1.60533,-0.89338 1.68497,-1.13948c0.75547,-2.34684 0.95132,-3.77989 0.48601,-5.03042c-0.73113,-1.96499 -4.62784,-2.10888 -0.68779,-3.25713c2.27462,-1.08275 3.62374,2.69666 3.69697,6.02076z" data-paper-data="{&quot;index&quot;:null}" fill="#54c81c" stroke-width="0.17188"/><path d="M306.9543,171.75961c0,0 -1.43214,-0.49442 -1.92872,-1.17025c-1.03592,-1.4098 -1.8679,-2.63966 -1.56853,-3.03482c0.24944,-0.15982 1.53043,0.17646 1.88025,0.50527l0.71066,0.66738c1.24949,1.17395 2.71597,3.33142 2.69573,4.03006c-0.00816,0.3022 -0.9391,1.72187 -1.04792,2.05814c0,0 -0.54225,-2.36687 -0.74148,-3.05577z" data-paper-data="{&quot;index&quot;:null}" fill="#54c81c" stroke-width="0.17188"/><path d="M305.60476,168.42777c0,0 3.11459,-0.08323 3.59838,0.66304c0.32164,0.49553 -0.11802,1.69151 0.25611,2.0677c0.46456,0.46713 1.15959,1.62082 1.52888,2.46951c0.11095,0.77596 0.38952,1.51887 0.05711,2.38448c0.13515,0.76367 -2.9713,2.97211 -3.04042,2.72164l0.2664,-4.20852c-0.23842,-0.86378 -0.77954,-2.61471 -0.92962,-2.96991z" data-paper-data="{&quot;index&quot;:null}" fill="#54c81c" stroke-width="0.17188"/><path d="M291.1986,184.81204c0,-1.32543 0.50795,-2.3999 1.13448,-2.3999c0.62654,0 1.13447,1.07448 1.13447,2.3999c0,1.32543 -0.50793,2.39991 -1.13447,2.39991c-0.62654,0 -1.13448,-1.07448 -1.13448,-2.39991z" fill="#54c81c" stroke-width="0"/><path d="M303.18574,184.35682c0,-1.32543 0.50795,-2.3999 1.13451,-2.3999c0.62656,0 1.13451,1.07448 1.13451,2.3999c0,1.32543 -0.50793,2.3999 -1.13451,2.3999c-0.62656,0 -1.13451,-1.07446 -1.13451,-2.3999z" fill="#54c81c" stroke-width="0"/></g><g stroke-width="0.26458"><g fill="#ff0000"><path d="M146.27585,180c0,-3.95622 1.06823,-7.07174 3.20468,-9.34657c2.13645,-2.27483 5.07408,-3.41226 8.81288,-3.41226c3.20468,0 5.43014,0.0989 6.6764,0.29671l-2.4035,8.3081l-0.53413,-0.59345c-1.06823,-0.79126 -2.4035,-0.89016 -4.00585,-0.29671c-1.78036,1.18687 -3.11564,2.47264 -4.00583,3.85731c-0.89019,1.18687 -1.06825,2.67047 -0.53413,4.45076l0.53413,0.59342c0.89019,1.38468 2.4035,1.78032 4.53995,1.18687c1.78036,-1.18687 3.11566,-2.47264 4.00585,-3.85731l3.20468,10.3851c-1.24626,0.79126 -3.7388,1.18687 -7.47758,1.18687c-3.7388,0 -6.67643,-1.28577 -8.81288,-3.85731c-2.13645,-2.57157 -3.20468,-5.53872 -3.20468,-8.90152z"/><path d="M168.44153,180c0,-3.95622 1.06823,-7.07174 3.20468,-9.34657c2.13645,-2.27483 5.07408,-3.41226 8.81288,-3.41226c3.73877,0 6.6764,1.13743 8.81285,3.41226c2.13645,2.27483 3.20468,5.39035 3.20468,9.34657c0,3.3628 -1.06823,6.32995 -3.20468,8.90152c-2.13645,2.57154 -5.07408,3.85731 -8.81285,3.85731c-3.7388,0 -6.67643,-1.28577 -8.81288,-3.85731c-2.13645,-2.57157 -3.20468,-5.53872 -3.20468,-8.90152zM180.19201,174.95582c-1.78036,1.18687 -3.11564,2.47264 -4.00583,3.85731c-0.89019,1.18687 -1.06825,2.67047 -0.53413,4.45076l0.53413,0.59342c0.89019,1.38468 2.4035,1.78032 4.53995,1.18687c1.78036,-1.18687 3.11566,-2.47264 4.00585,-3.85731c1.06823,-1.58248 1.06823,-3.36279 0,-5.34089l-0.53413,-0.59345c-1.06823,-0.79126 -2.4035,-0.89016 -4.00585,-0.29671z"/><path d="M197.28365,192.16539c-0.89019,-0.19781 -1.60235,-0.39561 -2.13645,-0.59342l1.06823,-5.93434l3.20468,0.29671c2.49252,0.19781 4.45094,0.19781 5.87523,0c0.71216,-0.39561 1.06823,-0.98903 1.06823,-1.78029c-0.17803,-0.79126 -1.78036,-1.18687 -4.807,-1.18687c-2.67058,-0.39564 -4.53998,-1.48361 -5.6082,-3.26389c-0.5341,-1.38468 -0.80115,-2.96718 -0.80115,-4.74747c0,-2.76937 0.89019,-4.8464 2.67055,-6.23108c1.24626,-0.98906 3.47173,-1.48358 6.6764,-1.48358c3.20468,0 6.40938,0.29671 9.61405,0.89016l-1.06823,5.63763c-3.7388,-0.19784 -6.32036,-0.29673 -7.74465,-0.29673c-1.24626,0.19784 -1.86941,0.69235 -1.86941,1.48361c-0.17803,1.38468 0.80118,2.07702 2.93763,2.07702c3.02665,0 5.25211,0.59342 6.67643,1.78029c1.06823,0.98906 1.60232,2.67044 1.60232,5.04418c0,2.05725 -0.44508,3.83757 -1.33527,5.34092c-0.89019,1.78029 -3.11568,2.86825 -6.67643,3.26389c-3.02665,0.19781 -6.14228,0.0989 -9.34695,-0.29674z"/><path d="M217.31288,192.16539l4.00585,-24.92422h6.40935l2.9376,10.08839l2.93763,-10.08839h6.40935l4.00586,24.92422h-6.6764l-1.60235,-10.97852l-2.13645,10.97852h-5.87523l-2.13645,-10.97852l-1.60235,10.97852z"/><path d="M246.68909,180c0,-3.95622 1.06823,-7.07174 3.20468,-9.34657c2.13645,-2.27483 5.07408,-3.41226 8.81285,-3.41226c3.73877,0 6.6764,1.13743 8.81285,3.41226c2.13645,2.27483 3.20468,5.39035 3.20468,9.34657c0,3.3628 -1.06823,6.32995 -3.20468,8.90152c-2.13645,2.57154 -5.07408,3.85731 -8.81285,3.85731c-3.73877,0 -6.6764,-1.28577 -8.81285,-3.85731c-2.13645,-2.57157 -3.20468,-5.53872 -3.20468,-8.90152zM258.43957,174.95582c-1.78039,1.18687 -3.11566,2.47264 -4.00585,3.85731c-0.89019,1.18687 -1.06823,2.67047 -0.53413,4.45076l0.53413,0.59342c0.89019,1.38468 2.4035,1.78032 4.53995,1.18687c1.78039,-1.18687 3.11566,-2.47264 4.00585,-3.85731c1.06823,-1.58248 1.06823,-3.36279 0,-5.34089l-0.5341,-0.59345c-1.06823,-0.79126 -2.40353,-0.89016 -4.00585,-0.29671z"/></g><g fill="#71ff33"><path d="M149.42933,181.95394c0,-3.35034 1.00511,-5.98874 3.01532,-7.9152c2.01021,-1.92645 4.77426,-2.88969 8.29214,-2.88969c3.01532,0 5.10928,0.08376 6.2819,0.25127l-2.26148,7.03576l-0.50256,-0.50256c-1.00511,-0.67008 -2.26148,-0.75384 -3.76915,-0.25127c-1.67516,1.00511 -2.93154,2.09397 -3.76913,3.26659c-0.83759,1.00511 -1.00513,2.26151 -0.50256,3.76915l0.50256,0.50254c0.83759,1.17262 2.26148,1.50767 4.27169,1.00511c1.67516,-1.00511 2.93156,-2.09397 3.76915,-3.26659l3.01532,8.79468c-1.17262,0.67008 -3.51788,1.00511 -7.03574,1.00511c-3.51788,0 -6.28193,-1.08886 -8.29214,-3.26659c-2.01021,-2.17775 -3.01532,-4.6905 -3.01532,-7.5383z"/><path d="M170.28528,181.95394c0,-3.35034 1.00511,-5.98874 3.01532,-7.9152c2.01021,-1.92645 4.77426,-2.88969 8.29214,-2.88969c3.51786,0 6.2819,0.96324 8.29211,2.88969c2.01021,1.92645 3.01532,4.56485 3.01532,7.9152c0,2.8478 -1.00511,5.36055 -3.01532,7.5383c-2.01021,2.17772 -4.77426,3.26659 -8.29211,3.26659c-3.51788,0 -6.28193,-1.08886 -8.29214,-3.26659c-2.01021,-2.17775 -3.01532,-4.6905 -3.01532,-7.5383zM181.34144,177.68225c-1.67516,1.00511 -2.93154,2.09397 -3.76913,3.26659c-0.83759,1.00511 -1.00513,2.26151 -0.50256,3.76915l0.50256,0.50254c0.83759,1.17262 2.26148,1.50767 4.27169,1.00511c1.67516,-1.00511 2.93156,-2.09397 3.76915,-3.26659c1.00511,-1.34013 1.00511,-2.8478 0,-4.52296l-0.50256,-0.50256c-1.00511,-0.67008 -2.26148,-0.75384 -3.76915,-0.25127z"/><path d="M197.42315,192.25627c-0.83759,-0.16751 -1.50767,-0.33503 -2.01021,-0.50254l1.00511,-5.02553l3.01532,0.25127c2.34524,0.16751 4.18794,0.16751 5.52807,0c0.67008,-0.33503 1.00511,-0.83757 1.00511,-1.50765c-0.16751,-0.67008 -1.67516,-1.00511 -4.52296,-1.00511c-2.51278,-0.33505 -4.27172,-1.2564 -5.27682,-2.76405c-0.50254,-1.17262 -0.75381,-2.51278 -0.75381,-4.02042c0,-2.34526 0.83759,-4.1042 2.51275,-5.27682c1.17262,-0.83759 3.26659,-1.25638 6.2819,-1.25638c3.01532,0 6.03066,0.25127 9.04597,0.75384l-1.00511,4.77426c-3.51788,-0.16754 -5.9469,-0.25129 -7.28703,-0.25129c-1.17262,0.16754 -1.75894,0.58632 -1.75894,1.2564c-0.16751,1.17262 0.75384,1.75894 2.76405,1.75894c2.8478,0 4.94177,0.50254 6.28193,1.50765c1.00511,0.83759 1.50765,2.26148 1.50765,4.27169c0,1.74219 -0.41878,3.24986 -1.25638,4.52299c-0.83759,1.50765 -2.93158,2.42899 -6.28193,2.76405c-2.8478,0.16751 -5.77934,0.08376 -8.79465,-0.25129z"/><path d="M216.26888,192.25627l3.76915,-21.10721h6.03063l2.76402,8.54341l2.76405,-8.54341h6.03063l3.76915,21.10721h-6.2819l-1.50767,-9.29722l-2.01021,9.29722h-5.52807l-2.01021,-9.29722l-1.50767,9.29722z"/><path d="M243.90929,181.95394c0,-3.35034 1.00511,-5.98874 3.01532,-7.9152c2.01021,-1.92645 4.77426,-2.88969 8.29211,-2.88969c3.51786,0 6.2819,0.96324 8.29211,2.88969c2.01021,1.92645 3.01532,4.56485 3.01532,7.9152c0,2.8478 -1.00511,5.36055 -3.01532,7.5383c-2.01021,2.17772 -4.77426,3.26659 -8.29211,3.26659c-3.51786,0 -6.2819,-1.08886 -8.29211,-3.26659c-2.01021,-2.17775 -3.01532,-4.6905 -3.01532,-7.5383zM254.96545,177.68225c-1.67518,1.00511 -2.93156,2.09397 -3.76915,3.26659c-0.83759,1.00511 -1.00511,2.26151 -0.50256,3.76915l0.50256,0.50254c0.83759,1.17262 2.26148,1.50767 4.27169,1.00511c1.67518,-1.00511 2.93156,-2.09397 3.76915,-3.26659c1.00511,-1.34013 1.00511,-2.8478 0,-4.52296l-0.50254,-0.50256c-1.00511,-0.67008 -2.26151,-0.75384 -3.76915,-0.25127z"/></g></g></g></g></svg>