<svg version="1.1" xmlns="http://www.w3.org/2000/svg" xmlns:xlink="http://www.w3.org/1999/xlink" width="398.63774" height="53.33045" viewBox="0,0,398.63774,53.33045"><g transform="translate(-9.1496,-106.46364)"><g data-paper-data="{&quot;isPaintingLayer&quot;:true}" fill-rule="nonzero" stroke-linecap="butt" stroke-linejoin="miter" stroke-dasharray="" stroke-dashoffset="0" style="mix-blend-mode: normal"><path d="M9.1496,159.2455v-23.03946h13.43968c5.48559,0 8.22839,2.01138 8.22839,6.03414v1.09712c0,4.38847 -2.74281,6.5827 -8.22839,6.5827h-5.48559v9.3255zM20.39504,145.5315c1.46283,0 2.19424,-0.73141 2.19424,-2.19424v-1.09712c0,-1.09712 -0.73141,-1.64568 -2.19424,-1.64568h-3.29135v4.93703z" fill="#ffffff" stroke="none" stroke-width="0.26459" stroke-miterlimit="10"/><path d="M64.06033,148.00007c0,-3.65706 1.09712,-6.53699 3.29135,-8.6398c2.19424,-2.10281 5.21131,-3.15422 9.05123,-3.15422c3.29135,0 5.57703,0.09144 6.85699,0.27429l-2.46852,7.67982l-0.54856,-0.54856c-1.09712,-0.73141 -2.46852,-0.82285 -4.11419,-0.27429c-1.82852,1.09712 -3.19992,2.28567 -4.11419,3.56564c-0.91427,1.09712 -1.09712,2.46852 -0.54856,4.1142l0.54856,0.54856c0.91427,1.27996 2.46851,1.64568 4.66274,1.09712c1.82852,-1.09712 3.19993,-2.28568 4.11419,-3.56564l3.29135,9.59978c-1.27996,0.73141 -3.83991,1.09712 -7.67982,1.09712c-3.83991,0 -6.85699,-1.18854 -9.05123,-3.56563c-2.19424,-2.3771 -3.29135,-5.11989 -3.29135,-8.22839z" fill="#ffffff" stroke="none" stroke-width="0.26459" stroke-miterlimit="10"/><path d="M86.82553,148.00007c0,-3.65706 1.09711,-6.53699 3.29135,-8.6398c2.19424,-2.10281 5.21131,-3.15422 9.05123,-3.15422c3.83991,0 6.85699,1.05141 9.05123,3.15422c2.19424,2.10281 3.29135,4.98274 3.29135,8.6398c0,3.1085 -1.09711,5.8513 -3.29135,8.22839c-2.19424,2.37708 -5.21131,3.56563 -9.05123,3.56563c-3.83991,0 -6.85699,-1.18854 -9.05123,-3.56563c-2.19424,-2.3771 -3.29135,-5.11989 -3.29135,-8.22839zM98.89382,143.33729c-1.82852,1.09712 -3.19992,2.28567 -4.11419,3.56564c-0.91427,1.09712 -1.09711,2.46852 -0.54855,4.1142l0.54855,0.54856c0.91427,1.27996 2.46851,1.64568 4.66274,1.09712c1.82852,-1.09712 3.19993,-2.28568 4.11419,-3.56564c1.09712,-1.46283 1.09712,-3.1085 0,-4.93703l-0.54856,-0.54856c-1.09712,-0.73141 -2.46852,-0.82285 -4.11419,-0.27429z" fill="#ffffff" stroke="none" stroke-width="0.26459" stroke-miterlimit="10"/><path d="M114.25347,159.2455v-23.03946h9.3255l6.03414,10.28548v-10.28548h8.22838v23.03946h-9.3255l-6.03414,-9.95634v9.95634z" fill="#ffffff" stroke="none" stroke-width="0.26459" stroke-miterlimit="10"/><path d="M147.16701,159.2455v-15.9082h-6.5827v-7.13126h20.84523v7.13126h-6.5827v15.9082z" fill="#ffffff" stroke="none" stroke-width="0.26459" stroke-miterlimit="10"/><path d="M164.17233,159.2455v-23.03946h13.43969c5.48559,0 8.22838,2.01138 8.22838,6.03414v1.09712c0,2.92564 -1.18855,4.84561 -3.56564,5.75987c0.73141,0.36571 1.46284,1.18856 2.19425,2.46852l2.19424,7.67981h-8.22839l-1.64568,-6.30842c-0.36571,-1.64568 -1.37139,-2.46852 -3.01706,-2.46852h-1.64568v8.77694zM175.41778,145.5315c1.46283,0 2.19424,-0.73141 2.19424,-2.19424v-1.09712c0,-1.09712 -0.73141,-1.64568 -2.19424,-1.64568h-3.29135v4.93703z" fill="#ffffff" stroke="none" stroke-width="0.26459" stroke-miterlimit="10"/><path d="M189.40604,148.00007c0,-3.65706 1.09711,-6.53699 3.29135,-8.6398c2.19424,-2.10281 5.21131,-3.15422 9.05123,-3.15422c3.83991,0 6.85698,1.05141 9.05121,3.15422c2.19424,2.10281 3.29135,4.98274 3.29135,8.6398c0,3.1085 -1.09712,5.8513 -3.29135,8.22839c-2.19424,2.37708 -5.2113,3.56563 -9.05121,3.56563c-3.83991,0 -6.85699,-1.18854 -9.05123,-3.56563c-2.19424,-2.3771 -3.29135,-5.11989 -3.29135,-8.22839zM201.47434,143.33729c-1.82854,1.09712 -3.19993,2.28567 -4.11419,3.56564c-0.91427,1.09712 -1.09712,2.46852 -0.54856,4.1142l0.54856,0.54856c0.91427,1.27996 2.4685,1.64568 4.66274,1.09712c1.82854,-1.09712 3.19994,-2.28568 4.1142,-3.56564c1.0971,-1.46283 1.0971,-3.1085 0,-4.93703l-0.54857,-0.54856c-1.0971,-0.73141 -2.46849,-0.82285 -4.11417,-0.27429z" fill="#ffffff" stroke="none" stroke-width="0.26459" stroke-miterlimit="10"/><path d="M216.83398,159.2455v-23.03946h8.22837v16.45677h10.97118v6.58269z" fill="#ffffff" stroke="none" stroke-width="0.26459" stroke-miterlimit="10"/><path d="M240.97057,159.2455c-0.91426,-0.18285 -1.64567,-0.3657 -2.19423,-0.54854l1.09711,-5.48559l3.29135,0.27428c2.55993,0.18285 4.57132,0.18285 6.03416,0c0.73141,-0.36571 1.09712,-0.91427 1.09712,-1.64568c-0.18286,-0.73141 -1.82855,-1.09712 -4.93704,-1.09712c-2.74279,-0.36571 -4.66276,-1.3714 -5.75986,-3.01708c-0.54856,-1.27996 -0.82284,-2.74279 -0.82284,-4.38847c0,-2.55994 0.91425,-4.4799 2.74278,-5.75986c1.27998,-0.91427 3.56564,-1.3714 6.857,-1.3714c3.29134,0 6.58269,0.27429 9.87406,0.82285l-1.09712,5.2113c-3.83991,-0.18285 -6.49127,-0.27427 -7.95409,-0.27427c-1.27998,0.18285 -1.91996,0.63998 -1.91996,1.37139c-0.18286,1.27996 0.82283,1.91996 3.01708,1.91996c3.10849,0 5.39415,0.54855 6.85698,1.64567c1.0971,0.91427 1.64566,2.46852 1.64566,4.66276c0,1.90168 -0.45713,3.54734 -1.37139,4.93703c-0.91426,1.64568 -3.19991,2.65137 -6.85698,3.01708c-3.10852,0.18285 -6.30844,0.09141 -9.59978,-0.2743z" fill="#ffffff" stroke="none" stroke-width="0.26459" stroke-miterlimit="10"/><path d="M277.77887,159.2455c-0.91426,-0.18285 -1.64568,-0.3657 -2.19424,-0.54854l1.09712,-5.48559l3.29135,0.27428c2.55994,0.18285 4.57133,0.18285 6.03416,0c0.73141,-0.36571 1.09712,-0.91427 1.09712,-1.64568c-0.18286,-0.73141 -1.82855,-1.09712 -4.93704,-1.09712c-2.74279,-0.36571 -4.66276,-1.3714 -5.75986,-3.01708c-0.54856,-1.27996 -0.82285,-2.74279 -0.82285,-4.38847c0,-2.55994 0.91427,-4.4799 2.74281,-5.75986c1.27995,-0.91427 3.56561,-1.3714 6.85698,-1.3714c3.29134,0 6.58269,0.27429 9.87406,0.82285l-1.09712,5.2113c-3.83991,-0.18285 -6.49127,-0.27427 -7.95409,-0.27427c-1.27998,0.18285 -1.91996,0.63998 -1.91996,1.37139c-0.18285,1.27996 0.82285,1.91996 3.01708,1.91996c3.10849,0 5.39415,0.54855 6.85698,1.64567c1.09713,0.91427 1.64569,2.46852 1.64569,4.66276c0,1.90168 -0.45714,3.54734 -1.37142,4.93703c-0.91426,1.64568 -3.19991,2.65137 -6.85698,3.01708c-3.10849,0.18285 -6.30842,0.09141 -9.59978,-0.2743z" fill="#ffffff" stroke="none" stroke-width="0.26459" stroke-miterlimit="10"/><path d="M298.34982,159.2455v-23.03946h19.19956v6.5827h-10.97118v1.64568h10.97118v6.58272h-10.97118v1.64568h10.97118v6.58269z" fill="#ffffff" stroke="none" stroke-width="0.26459" stroke-miterlimit="10"/><path d="M320.2922,159.2455v-23.03946h8.22837v16.45677h10.97117v6.58269z" fill="#ffffff" stroke="none" stroke-width="0.26459" stroke-miterlimit="10"/><path d="M342.23454,159.2455v-23.03946h19.19956v6.5827h-10.97117v1.64568h10.97117v6.58272h-10.97117v1.64568h10.97117v6.58269z" fill="#ffffff" stroke="none" stroke-width="0.26459" stroke-miterlimit="10"/><path d="M364.17689,148.00007c0,-3.65706 1.09712,-6.53699 3.29135,-8.6398c2.19424,-2.10281 5.21132,-3.15422 9.05124,-3.15422c3.29134,0 5.577,0.09144 6.85698,0.27429l-2.46851,7.67982l-0.54857,-0.54856c-1.0971,-0.73141 -2.46849,-0.82285 -4.11417,-0.27429c-1.82854,1.09712 -3.19994,2.28567 -4.1142,3.56564c-0.91428,1.09712 -1.09713,2.46852 -0.54857,4.1142l0.54857,0.54856c0.91426,1.27996 2.46851,1.64568 4.66274,1.09712c1.82854,-1.09712 3.19994,-2.28568 4.11419,-3.56564l3.29135,9.59978c-1.27998,0.73141 -3.83991,1.09712 -7.67982,1.09712c-3.83992,0 -6.857,-1.18854 -9.05124,-3.56563c-2.19424,-2.3771 -3.29135,-5.11989 -3.29135,-8.22839z" fill="#ffffff" stroke="none" stroke-width="0.26459" stroke-miterlimit="10"/><path d="M393.52481,159.2455v-15.9082h-6.5827v-7.13126h20.84523v7.13126h-6.58271v15.9082z" fill="#ffffff" stroke="none" stroke-width="0.26459" stroke-miterlimit="10"/><g fill="none" stroke="#ff0000" stroke-width="7.5" stroke-miterlimit="10"><path d="M39.50097,121.00004c0,-5.2467 4.52165,-9.5 10.09938,-9.5c5.57773,0 13.8399,9.5 13.8399,9.5c0,0 -8.26216,9.5 -13.8399,9.5c-5.57773,0 -10.09938,-4.2533 -10.09938,-9.5z"/><path d="M75.78394,130.5c-5.57773,0 -13.8399,-9.5 -13.8399,-9.5c0,0 8.26216,-9.5 13.8399,-9.5c5.57773,0 10.09938,4.2533 10.09938,9.5c0,5.2467 -4.52165,9.5 -10.09938,9.5z" data-paper-data="{&quot;index&quot;:null}"/></g><g fill="#ff0000" stroke="none" stroke-width="0.26459" stroke-miterlimit="4"><path d="M97.2676,135.0822v-28.61856h21.13493v8.17673h-12.07709v2.04417h12.07709v8.17673h-12.07709v2.0442h12.07709v8.17673z"/><path d="M121.42181,135.0822v-28.61856h10.26553l6.6424,12.77615v-12.77615h9.05782v28.61856h-10.26553l-6.6424,-12.36732v12.36732z"/><path d="M162.48394,126.90548c1.40899,0 2.51606,-0.45425 3.32119,-1.36279c0.80513,-0.90854 1.20771,-2.27132 1.20771,-4.08836v-1.70351c0,-1.81704 -0.40258,-3.23663 -1.20771,-4.2587c-0.80513,-1.0221 -1.91221,-1.53315 -3.32119,-1.53315h-3.01927v12.94651zM150.40685,106.46365h12.07709c4.22698,0 7.54819,1.30599 9.96361,3.91801c2.41542,2.61201 3.62313,6.18933 3.62313,10.73194c0,3.86124 -1.20771,7.15466 -3.62313,9.88024c-2.41542,2.72558 -5.73663,4.08837 -9.96361,4.08837h-12.07709z"/><path d="M179.08996,135.0822v-28.61856h9.05782v20.44183h12.07709v8.17673z"/><path d="M203.24416,135.0822v-28.61856h21.13492v8.17673h-12.07709v2.04417h12.07709v8.17673h-12.07709v2.0442h12.07709v8.17673z"/><path d="M229.81377,135.0822c-1.00643,-0.22713 -1.81157,-0.45425 -2.41542,-0.68141l1.20771,-6.81394l3.62313,0.34069c2.81799,0.22713 5.03213,0.22713 6.64242,0c0.80513,-0.45425 1.20771,-1.13563 1.20771,-2.04417c-0.20128,-0.90854 -2.01286,-1.36279 -5.43471,-1.36279c-3.01927,-0.45428 -5.13275,-1.70351 -6.34047,-3.74768c-0.60385,-1.58991 -0.90579,-3.40699 -0.90579,-5.45115c0,-3.17983 1.00643,-5.56472 3.01928,-7.15463c1.40899,-1.13566 3.92506,-1.70348 7.54819,-1.70348c3.62313,0 7.24626,0.34069 10.86939,1.02207l-1.20771,6.47325c-4.22698,-0.22713 -7.1456,-0.34069 -8.75589,-0.34069c-1.40899,0.22713 -2.1135,0.79494 -2.1135,1.70348c-0.20128,1.58991 0.90579,2.38489 3.3212,2.38489c3.42185,0 5.93789,0.68137 7.54818,2.04417c1.20771,1.13566 1.81157,3.0663 1.81157,5.79187c0,2.36214 -0.5032,4.40634 -1.50963,6.13253c-1.00643,2.0442 -3.52249,3.29342 -7.54819,3.74767c-3.42185,0.22713 -6.94434,0.1134 -10.56747,-0.34068z"/><path d="M254.87375,135.0822c-1.00643,-0.22713 -1.81157,-0.45425 -2.41542,-0.68141l1.20771,-6.81394l3.62313,0.34069c2.81799,0.22713 5.03213,0.22713 6.6424,0c0.80515,-0.45425 1.20771,-1.13563 1.20771,-2.04417c-0.20128,-0.90854 -2.01284,-1.36279 -5.4347,-1.36279c-3.01927,-0.45428 -5.13277,-1.70351 -6.34048,-3.74768c-0.60385,-1.58991 -0.90577,-3.40699 -0.90577,-5.45115c0,-3.17983 1.00643,-5.56472 3.01927,-7.15463c1.40899,-1.13566 3.92505,-1.70348 7.54818,-1.70348c3.62313,0 7.24626,0.34069 10.86939,1.02207l-1.20771,6.47325c-4.22697,-0.22713 -7.14562,-0.34069 -8.75589,-0.34069c-1.40899,0.22713 -2.1135,0.79494 -2.1135,1.70348c-0.20128,1.58991 0.90579,2.38489 3.32121,2.38489c3.42185,0 5.9379,0.68137 7.54817,2.04417c1.20771,1.13566 1.81158,3.0663 1.81158,5.79187c0,2.36214 -0.5032,4.40634 -1.50963,6.13253c-1.00643,2.0442 -3.52252,3.29342 -7.54821,3.74767c-3.42185,0.22713 -6.94432,0.1134 -10.56745,-0.34068z"/></g><g fill="#71ff33" stroke="none" stroke-width="0.26459" stroke-miterlimit="4"><path d="M101.31842,133.90925v-24.20255h20.16881v6.91502h-11.52503v1.72874h11.52503v6.91502h-11.52503v1.72877h11.52503v6.91502z"/><path d="M124.36848,133.90925v-24.20255h9.79627l6.33876,10.80471v-10.80471h8.64377v24.20255h-9.79627l-6.33876,-10.45897v10.45897z"/><path d="M163.55358,126.99425c1.34458,0 2.40104,-0.38416 3.16937,-1.1525c0.76833,-0.76834 1.1525,-1.92085 1.1525,-3.45751v-1.44065c0,-1.53666 -0.38417,-2.7372 -1.1525,-3.60155c-0.76833,-0.86438 -1.82479,-1.29658 -3.16937,-1.29658h-2.88126v10.94879zM152.02855,109.7067h11.52503c4.03376,0 7.20315,1.10447 9.50815,3.31343c2.30501,2.20897 3.45751,5.23428 3.45751,9.07595c0,3.26543 -1.1525,6.05066 -3.45751,8.35566c-2.30501,2.30501 -5.47439,3.45751 -9.50815,3.45751h-11.52503z"/><path d="M179.4005,133.90925v-24.20255h8.64377v17.28754h11.52503v6.91502z"/><path d="M202.45056,133.90925v-24.20255h20.16879v6.91502h-11.52503v1.72874h11.52503v6.91502h-11.52503v1.72877h11.52503v6.91502z"/><path d="M227.80562,133.90925c-0.96042,-0.19208 -1.72875,-0.38416 -2.30501,-0.57627l1.1525,-5.76251l3.45751,0.28812c2.68918,0.19208 4.8021,0.19208 6.33878,0c0.76833,-0.38416 1.1525,-0.9604 1.1525,-1.72874c-0.19208,-0.76834 -1.92085,-1.1525 -5.18628,-1.1525c-2.88126,-0.38419 -4.89813,-1.44065 -6.05063,-3.16939c-0.57625,-1.34458 -0.86438,-2.88127 -0.86438,-4.61001c0,-2.68916 0.96042,-4.70605 2.88126,-6.05063c1.34458,-0.96042 3.74564,-1.44062 7.20315,-1.44062c3.45751,0 6.91502,0.28812 10.37252,0.86436l-1.1525,5.47439c-4.03376,-0.19208 -6.81896,-0.28812 -8.35564,-0.28812c-1.34458,0.19208 -2.01689,0.67228 -2.01689,1.44062c-0.19208,1.34458 0.86438,2.01689 3.16939,2.01689c3.26543,0 5.66646,0.57624 7.20313,1.72874c1.1525,0.96042 1.72875,2.59315 1.72875,4.89816c0,1.99765 -0.4802,3.72642 -1.44062,5.18625c-0.96042,1.72877 -3.36147,2.78523 -7.20315,3.16939c-3.26543,0.19208 -6.6269,0.0959 -10.0844,-0.28812z"/><path d="M251.72005,133.90925c-0.96042,-0.19208 -1.72875,-0.38416 -2.30501,-0.57627l1.1525,-5.76251l3.45751,0.28812c2.68918,0.19208 4.8021,0.19208 6.33876,0c0.76834,-0.38416 1.1525,-0.9604 1.1525,-1.72874c-0.19208,-0.76834 -1.92082,-1.1525 -5.18626,-1.1525c-2.88126,-0.38419 -4.89814,-1.44065 -6.05065,-3.16939c-0.57625,-1.34458 -0.86437,-2.88127 -0.86437,-4.61001c0,-2.68916 0.96042,-4.70605 2.88126,-6.05063c1.34458,-0.96042 3.74563,-1.44062 7.20313,-1.44062c3.45751,0 6.91502,0.28812 10.37252,0.86436l-1.1525,5.47439c-4.03374,-0.19208 -6.81898,-0.28812 -8.35564,-0.28812c-1.34458,0.19208 -2.01689,0.67228 -2.01689,1.44062c-0.19208,1.34458 0.86438,2.01689 3.16939,2.01689c3.26543,0 5.66647,0.57624 7.20313,1.72874c1.1525,0.96042 1.72877,2.59315 1.72877,4.89816c0,1.99765 -0.4802,3.72642 -1.44062,5.18625c-0.96042,1.72877 -3.3615,2.78523 -7.20316,3.16939c-3.26543,0.19208 -6.62688,0.0959 -10.08439,-0.28812z"/></g><g fill="none" stroke="#71ff33" stroke-width="5" stroke-miterlimit="10"><path d="M42.13332,122.00004c0,-4.69442 4.04569,-8.5 9.03629,-8.5c4.9906,0 12.38306,8.5 12.38306,8.5c0,0 -7.39246,8.5 -12.38306,8.5c-4.9906,0 -9.03629,-3.80558 -9.03629,-8.5z"/><path d="M74.59703,130.50004c-4.99061,0 -12.38306,-8.5 -12.38306,-8.5c0,0 7.39246,-8.5 12.38306,-8.5c4.99061,0 9.03629,3.80558 9.03629,8.5c0,4.69442 -4.04568,8.5 -9.03629,8.5z" data-paper-data="{&quot;index&quot;:null}"/></g><path d="M52.11734,153.74523v5.49563h-17.586l-1.64867,-3.84695c2.19825,-0.36637 3.93854,-0.87013 5.22085,-1.5113c1.28231,-0.64114 2.61042,-1.83186 3.98432,-3.57215c1.3739,-1.74029 2.15244,-3.20578 2.33565,-4.39649c0.18319,-1.19072 0.09159,-2.24403 -0.27478,-3.15998c-1.6487,-0.91594 -3.38896,-0.96178 -5.22085,-0.13745c-1.83188,0.82435 -3.2241,1.96929 -4.17668,3.43478l-1.86852,-4.3965c0.36637,-0.91594 1.41971,-2.06088 3.15998,-3.43478c1.74029,-1.3739 3.89274,-2.06085 6.45738,-2.06085c2.56462,0 4.76286,0.82434 6.59474,2.47302c1.83188,1.64867 2.7478,3.48056 2.7478,5.49562c0,1.28231 -0.41217,2.83942 -1.23653,4.67128c-0.82435,1.83188 -2.06085,3.48059 -3.70955,4.94608z" fill="#ffffff" stroke="none" stroke-width="0.26458" stroke-miterlimit="10"/></g></g></svg>