<svg version="1.1" xmlns="http://www.w3.org/2000/svg" xmlns:xlink="http://www.w3.org/1999/xlink" width="146.47005" height="91.08148" viewBox="0,0,146.47005,91.08148"><g transform="translate(-158.27604,-179.69079)"><g data-paper-data="{&quot;isPaintingLayer&quot;:true}" fill-rule="nonzero" stroke-linejoin="miter" stroke-miterlimit="10" stroke-dasharray="" stroke-dashoffset="0" style="mix-blend-mode: normal"><g data-paper-data="{&quot;index&quot;:null}" stroke="none" stroke-width="0" stroke-linecap="butt"><g><path d="M286.27346,179.85639c3.62421,-0.1214 9.64143,3.83457 9.17201,15.01433c-0.72284,17.21354 -2.14569,26.25765 -5.76993,26.37909c-3.62421,0.1214 3.38081,-14.47996 3.0062,-25.66327c-0.37461,-11.1833 -10.03248,-15.60868 -6.40824,-15.73012z" fill="#310808"/><path d="M285.67647,179.70283c4.53518,0.46283 9.46116,7.57376 8.59572,17.7943c-1.06494,12.57695 -2.41891,24.18369 -5.29548,23.97472c-2.01151,-0.14613 -7.87589,1.00347 -10.76507,-1.61544c-3.64138,-3.30077 -4.33154,-11.73467 -3.75093,-17.42444c1.04132,-10.20413 6.68055,-23.19199 11.21572,-22.72916z" fill="#e90023"/><path d="M292.84227,211.05654c0,0 -6.83254,0.1855 -11.69105,-1.22353c-7.43081,-2.15503 -6.58021,-9.20283 -6.58021,-9.20283l1.90667,-7.64811c0,0 -0.8593,7.19726 4.91742,9.00235c4.51932,1.41216 12.30955,0.96922 12.30955,0.96922z" fill="#8e918f"/></g><path d="M288.71161,203.03231c3.62355,0.1278 4.277,0.69221 3.9904,4.45441c-0.2611,3.42679 -0.59422,3.3703 -4.34213,3.1953c-3.54499,-0.16551 -4.06874,-1.41294 -4.03534,-4.13637c0.0396,-3.23276 0.70385,-3.6892 4.38703,-3.51337z" fill="#b29540"/><path d="M288.68795,204.96642c1.79749,0.06339 2.12163,0.34338 1.97947,2.20966c-0.12952,1.69988 -0.29479,1.67189 -2.15396,1.58508c-1.75855,-0.08212 -2.01832,-0.70092 -2.00178,-2.0519c0.01964,-1.60366 0.34917,-1.83008 2.17624,-1.74286z" fill="#fdfdfd"/></g><path d="M237.8681,220.63129l6.08575,-4.21344c0,0 -0.7772,3.91149 0.69294,6.74424c1.76492,3.40076 9.17463,12.26932 9.17463,12.26932c0,0 -8.69137,-3.94821 -12.32784,-7.32185c-3.63651,-3.37365 -3.62544,-7.47823 -3.62544,-7.47823z" data-paper-data="{&quot;index&quot;:null}" fill="#0a1535" stroke="none" stroke-width="0" stroke-linecap="butt"/><path d="M219.39149,213.01336c0,0 7.47399,2.1834 8.51375,-0.3496c1.03976,-2.53301 1.82408,5.51489 5.61037,11.235c3.78629,5.72007 10.80651,13.56642 10.80651,13.56642c0,0 -14.35436,-4.30933 -19.2824,-7.95158c-9.24987,-6.83644 -5.74101,-16.27432 -5.74101,-16.27432z" data-paper-data="{&quot;index&quot;:null}" fill="#0a1535" stroke="none" stroke-width="0" stroke-linecap="butt"/><path d="M222.48078,202.72175c2.60571,-0.65193 8.0328,1.72179 12.33921,1.61529c4.67809,-0.1157 14.70668,-2.28419 14.70668,-2.28419l1.55013,3.95353c0,0 -7.08257,2.6196 -14.73132,3.21012c-6.98783,0.5395 -14.55831,-0.92016 -15.3957,-1.40927c-3.73758,-2.18304 -1.07471,-4.43355 1.531,-5.08548z" data-paper-data="{&quot;index&quot;:null}" fill="#5e4a30" stroke="none" stroke-width="0" stroke-linecap="butt"/><g data-paper-data="{&quot;index&quot;:null}"><g><path d="M257.04091,196.62747c1.0378,-0.05863 5.79241,1.43883 5.9758,1.77295c0.22262,0.40558 0.23503,-0.17817 0.2319,0.58388c-0.00315,0.76209 -1.06209,0.85833 -1.06209,0.85833c0,0 1.39513,0.20141 1.44619,1.37476c0.05102,1.17332 -1.06655,1.82461 -1.06655,1.82461c0,0 0.98237,0.60538 0.96368,1.5384c-0.01873,0.93303 -1.03655,1.82578 -1.03655,1.82578c0,0 1.25322,1.17124 1.24666,1.9412c-0.00661,0.76994 -1.27419,1.50625 -1.27419,1.50625c0,0 1.1863,0.17948 1.13153,1.7878c-0.04265,1.25178 -1.71543,1.64589 -4.09017,1.5504c-2.40731,-0.09674 -4.9483,-0.1752 -6.17223,-0.10607c-3.70896,0.20948 -4.96838,-3.52878 -5.17785,-7.23779c-0.09814,-1.73716 0.516,-4.43465 2.45224,-5.58453c2.59527,-1.54118 4.45975,-3.52456 6.43154,-3.63593z" fill="#8e918f" stroke="none" stroke-width="0" stroke-linecap="butt"/><path d="M255.42788,204.03271c0,0 -0.10638,-2.36519 0.90916,-3.35667c0.48039,-0.46905 2.13857,0.08002 3.51027,-0.07991c1.37165,-0.15995 2.83673,-1.00478 2.83673,-1.00478" fill="none" stroke="#a4a4a4" stroke-width="0.125" stroke-linecap="round"/></g><path d="M249.43105,206.732c0.19505,1.47985 0.91846,5.30095 -0.2115,5.57342c-2.29329,0.55295 -2.47347,-1.20014 -2.47347,-1.20014c0,0 0.05949,1.68075 -2.31474,0.25472c-0.94185,-0.5657 -1.6377,-2.64822 -1.77363,-4.51093c-0.1359,-1.86273 0.21267,-5.36202 1.45853,-5.69203c0.96028,-0.2543 1.70907,1.14512 1.70907,1.14512c0,0 0.90447,-1.23329 1.92616,-1.34451c1.06841,-0.02921 1.506,4.45776 1.67954,5.77445z" fill="#8e918f" stroke="none" stroke-width="0" stroke-linecap="butt"/></g><path d="M266.73263,211.0997c0,0 -10.57975,-0.97098 -17.39875,-0.68575c-6.81902,0.2852 -12.80282,1.94895 -12.80282,1.94895l-0.33389,-6.50349l34.763,-0.40077z" data-paper-data="{&quot;index&quot;:null}" fill="#0a1535" stroke="none" stroke-width="0" stroke-linecap="butt"/><path d="M243.8096,214.20024c-0.54499,3.40085 -2.25454,6.01791 -9.97458,5.62574c-4.30536,-0.21873 -8.83743,-1.23187 -12.75737,-1.86005c-3.0781,-0.71251 -3.73897,-5.68701 -2.82425,-11.39461c0.91468,-5.7076 8.07487,-7.07434 14.63361,-6.02321c6.55878,1.05113 11.83732,7.94457 10.9226,13.65213z" data-paper-data="{&quot;index&quot;:null}" fill="#0a1535" stroke="none" stroke-width="0" stroke-linecap="butt"/><path d="M273.88625,200.39385c2.28352,0.0625 3.2155,4.36511 3.49607,8.14945c0.28066,3.78434 0.24283,8.86934 -2.21165,9.16871c-4.9812,0.60743 -5.08035,-2.0633 -5.08035,-2.0633c0,0 -0.14664,2.54933 -4.97854,0.1541c-1.91681,-0.95017 -3.06218,-4.17105 -3.04883,-7.00325c0.01326,-2.83223 1.32625,-8.09247 4.03722,-8.46727c2.08959,-0.28886 3.4589,1.90355 3.4589,1.90355c0,0 2.12993,-1.77585 4.32718,-1.84203z" data-paper-data="{&quot;index&quot;:null}" fill="#8e918f" stroke="none" stroke-width="0" stroke-linecap="butt"/><path d="M231.61439,199.78638c4.38339,0.83417 10.02609,4.41261 9.79578,9.65931c-0.20674,4.70854 -15.11699,5.65203 -18.47304,2.71143c-3.63644,-3.1863 -3.67502,-8.19197 -2.03561,-9.34547c3.23319,-2.27491 4.52296,-4.20319 10.71287,-3.02524z" data-paper-data="{&quot;index&quot;:null}" fill="#5e4a30" stroke="none" stroke-width="0" stroke-linecap="butt"/><path d="M271.30965,221.64442c0,0 -11.45107,-1.71704 -18.92181,-1.82349c-7.47074,-0.10645 -17.5428,-0.87178 -17.5428,-0.87178l3.65564,-4.93752l37.98138,1.69907z" data-paper-data="{&quot;index&quot;:null}" fill="#0a1535" stroke="none" stroke-width="0" stroke-linecap="butt"/><path d="M224.66908,212.68958c2.67245,0.26978 6.97385,4.34234 11.06149,5.70165c4.44043,1.47663 14.61043,2.83534 14.61043,2.83534l0.11847,4.24491c0,0 -7.55123,0.06416 -14.94743,-1.97255c-6.75711,-1.86073 -13.38484,-5.79975 -14.0069,-6.54372c-2.77651,-3.32057 0.49149,-4.5354 3.16394,-4.26562z" data-paper-data="{&quot;index&quot;:null}" fill="#5e4a30" stroke="none" stroke-width="0" stroke-linecap="butt"/><g data-paper-data="{&quot;index&quot;:null}" fill="#8e918f" stroke="none" stroke-width="0" stroke-linecap="butt"><g><path d="M261.62322,213.23377c1.19486,0.07639 6.4251,2.44613 6.58862,2.85359c0.19856,0.49462 0.29347,-0.17121 0.18452,0.69978c-0.10898,0.87101 -1.33325,0.83465 -1.33325,0.83465c0,0 1.56765,0.42323 1.46379,1.7721c-0.10381,1.34887 -1.47188,1.93913 -1.47188,1.93913c0,0 1.03968,0.8281 0.88939,1.89249c-0.15036,1.06445 -1.43775,1.94462 -1.43775,1.94462c0,0 1.27121,1.51273 1.15725,2.39229c-0.11399,0.87947 -1.66538,1.54633 -1.66538,1.54633c0,0 1.33184,0.36928 1.04681,2.20094c-0.22179,1.42559 -2.18919,1.64497 -4.89173,1.20748c-2.73957,-0.44343 -5.63453,-0.88438 -7.04368,-0.97454c-4.27045,-0.27315 -5.19389,-4.72225 -4.92069,-8.99271c0.12795,-2.00016 1.20311,-5.00001 3.57628,-6.0473c3.18085,-1.40369 5.58725,-3.41409 7.85754,-3.26883z"/></g><path d="M251.52406,223.73723c0.01846,1.71923 0.31741,6.18891 -1.01245,6.3443c-2.69885,0.31538 -2.66259,-1.71437 -2.66259,-1.71437c0,0 -0.16432,1.93034 -2.68226,-0.02866c-0.9989,-0.77713 -1.50677,-3.25488 -1.4047,-5.40379c0.10208,-2.14891 0.9844,-6.10246 2.45477,-6.30756c1.13327,-0.15813 1.7961,1.54572 1.7961,1.54572c0,0 1.2048,-1.28528 2.38862,-1.27123c1.22583,0.1142 1.1059,5.30595 1.12235,6.83562z"/></g><g data-paper-data="{&quot;index&quot;:null}" fill="#0a1535" stroke-width="0"><path d="M221.3476,212.03782c-1.24295,12.12361 -12.07864,20.9441 -24.2022,19.70116c-12.12361,-1.24295 -20.94414,-12.07865 -19.70123,-24.20225c1.24295,-12.12361 12.07869,-20.94408 24.20224,-19.70114c12.12361,1.24295 20.9441,12.07863 19.70118,24.20223z" stroke="none" stroke-linecap="butt"/><path d="M218.79811,220.23677c0,0 -1.35037,9.01924 3.90194,16.16915c5.25232,7.15 17.42137,14.09645 17.42137,14.09645c0,0 -6.61421,3.25141 -17.77374,1.65953c-9.45568,-1.34877 -16.57138,-7.29975 -16.57138,-7.29975c0,0 0.91766,7.94299 2.91327,11.58661c3.31856,6.05932 11.30787,14.31514 11.30787,14.31514c0,0 -12.73058,0.58742 -26.73075,-8.08695c-12.06184,-7.47349 -15.70943,-19.6108 -15.70943,-19.6108c0,0 -4.43392,4.94853 -6.1557,9.32448c-2.09119,5.31481 -2.24039,11.83944 -2.24039,11.83944c0,0 -15.5195,-17.44869 -9.49642,-41.9716c8.59843,-35.68584 38.65504,-35.13113 38.65504,-35.13113" stroke="#000000" stroke-linecap="round"/></g><path d="M182.37429,227.75898c0,0 -4.38368,0.43543 -8.13113,0.0916c-3.74748,-0.34386 -8.85095,-0.59347 -9.38901,-1.69918c-0.55301,-1.13645 -0.35265,-1.79006 3.09004,-6.36097c3.44269,-4.57082 9.70821,-10.78928 9.70821,-10.78928" data-paper-data="{&quot;index&quot;:null}" fill="#0a1535" stroke="#000000" stroke-width="0.125" stroke-linecap="round"/><path d="M178.80402,194.16788c0,0 0.04594,-4.17299 -0.23094,-6.59115c-0.2541,-2.21926 -1.61825,-6.36917 -1.368,-7.37226c0.29978,-1.20203 5.78261,1.22335 8.51066,2.46291c3.12211,1.41861 9.19986,5.58433 9.19986,5.58433" data-paper-data="{&quot;index&quot;:null}" fill="#0a1535" stroke="#000000" stroke-width="0" stroke-linecap="round"/><path d="M194.40496,187.83036c0,0 4.92036,-0.95774 9.2543,0.12935c4.33396,1.08703 10.39484,4.79915 10.39484,4.79915c0,0 -2.60138,2.79708 -2.79479,3.35213c-1.56904,4.50227 3.5167,9.64988 1.91701,14.62616c-1.59961,4.97633 -5.7459,7.18083 -9.38282,8.65841c-3.63696,1.4776 -9.68269,0.46175 -12.2761,-0.98406c-3.01646,-2.01409 -3.33771,-5.04323 -3.04089,-6.3625c0.34515,-1.53406 1.21553,-4.85684 6.03465,-7.72463c4.76436,-2.83533 12.80351,-2.96772 14.8709,-6.08945c1.13775,-0.88547 -0.94463,-2.77952 -0.94463,-2.77952c0,0 0.75831,-0.55367 0.13443,-1.00779c-1.95838,-1.42571 -2.07202,-1.44821 -5.40107,-3.04828c-3.32908,-1.60004 -8.76569,-3.569 -8.76569,-3.569z" data-paper-data="{&quot;index&quot;:null}" fill="#0a1535" stroke="#000000" stroke-width="0" stroke-linecap="butt"/><path d="M214.68124,193.06987c1.63068,0.10028 3.00588,1.59963 4.63279,5.50471c1.33613,3.20699 2.36879,8.61891 2.07764,12.4451c-2.05491,15.97304 -14.46956,17.40919 -15.38523,11.76417c-1.25097,-7.02061 6.38524,-8.21678 6.75988,-14.27162c0.24939,-4.02979 -2.54738,-8.45513 -1.97902,-11.1586c0.68062,-3.49277 2.88671,-4.34569 3.89397,-4.28378z" data-paper-data="{&quot;index&quot;:null}" fill="#5e4a30" stroke="#000000" stroke-width="0" stroke-linecap="butt"/><path d="M210.93004,187.38868c1.91644,-0.45585 3.19716,0.86905 3.7227,4.39432c0.33185,2.22617 0.10993,5.30799 -1.49041,5.14395c-0.965,-0.09896 -0.9923,-2.82334 -1.43386,-4.80172c-0.44155,-1.97838 -1.38296,-4.59756 -0.79845,-4.73659z" data-paper-data="{&quot;index&quot;:null}" fill="#0d1114" stroke="none" stroke-width="0" stroke-linecap="butt"/><path d="M212.01552,189.79119c0.32257,-0.02657 0.64863,0.73637 0.72832,1.70404c0.07973,0.96765 -0.11718,1.77362 -0.43972,1.80023c-0.32257,0.02657 -0.64868,-0.73638 -0.72832,-1.70404c-0.07973,-0.96765 0.11721,-1.77364 0.43978,-1.80021z" data-paper-data="{&quot;index&quot;:null}" fill="#fdfdfd" stroke="none" stroke-width="0" stroke-linecap="butt"/><path d="M176.99507,213.4003c0,0 0.37553,2.24981 1.98466,6.43417c1.76012,4.57707 3.50665,5.12521 3.50665,5.12521c0,0 -12.55311,1.11697 -12.86513,-0.92624c-0.4477,-2.93171 7.37382,-10.63323 7.37382,-10.63323z" data-paper-data="{&quot;index&quot;:null}" fill="#5e4a30" stroke="none" stroke-width="0" stroke-linecap="butt"/><path d="M191.95757,202.96398l14.61539,14.61539" fill="none" stroke="#000c44" stroke-width="1" stroke-linecap="round"/><path d="M204.22406,203.22497l-12.78847,12.78846" fill="none" stroke="#000c44" stroke-width="1" stroke-linecap="round"/><path d="M208.49603,198.89236l-10.15915,-10.15915" fill="none" stroke="#000c44" stroke-width="1" stroke-linecap="round"/><path d="M206.86331,188.91463l-8.88926,8.88925" fill="none" stroke="#000c44" stroke-width="1" stroke-linecap="round"/><g data-paper-data="{&quot;index&quot;:null}" stroke="none" stroke-width="0" stroke-linecap="butt"><g><path d="M298.65444,189.38011c3.60278,0.89701 8.41828,6.48018 4.82025,17.35712c-5.53997,16.74728 -9.47781,25.25385 -13.08063,24.35687c-3.60278,-0.89701 7.39052,-13.31002 10.15843,-24.4272c2.76791,-11.11718 -5.50084,-18.18374 -1.89802,-17.28675z" fill="#310808"/><path d="M298.10967,189.06146c4.33593,1.72781 7.19198,10.11156 3.47304,19.9329c-4.57632,12.08571 -9.16513,23.135 -11.93905,22.12238c-1.93973,-0.70809 -8.03679,-1.22099 -10.14716,-4.61019c-2.65981,-4.2716 -0.97379,-12.76998 1.19385,-18.20979c3.88752,-9.75584 13.08336,-20.96314 17.41929,-19.23533z" fill="#e90023"/><path d="M296.37141,221.94511c0,0 -6.77997,-1.73379 -11.1689,-4.484c-6.7126,-4.2063 -3.89819,-10.90762 -3.89819,-10.90762l4.02269,-6.99623c0,0 -2.86489,6.84606 2.31709,10.24382c4.05404,2.65816 11.84926,4.40707 11.84926,4.40707z" fill="#8e918f"/></g><path d="M294.55469,212.88513c3.53223,1.1422 4.01737,1.88126 2.67991,5.50548c-1.21828,3.3011 -1.53046,3.15203 -5.1719,1.92847c-3.4443,-1.15731 -3.61014,-2.53254 -2.81336,-5.20491c0.94574,-3.17217 1.72785,-3.4353 5.30533,-2.22907z" fill="#c5af37"/><path d="M293.9889,214.78298c1.75219,0.5666 1.99284,0.93322 1.32938,2.73105c-0.60433,1.63753 -0.75923,1.56361 -2.56558,0.95665c-1.7086,-0.57412 -1.79082,-1.2563 -1.3956,-2.58196c0.46915,-1.5736 0.85714,-1.70413 2.63178,-1.10577z" fill="#8e918f"/></g><path d="M278.21958,210.72719c2.28352,0.0625 3.2155,4.36511 3.49607,8.14945c0.28066,3.78434 0.24283,8.86934 -2.21165,9.16871c-4.9812,0.60743 -5.08035,-2.0633 -5.08035,-2.0633c0,0 -0.14664,2.54933 -4.97854,0.1541c-1.91681,-0.95017 -3.06218,-4.17105 -3.04883,-7.00325c0.01326,-2.83223 1.32625,-8.09247 4.03722,-8.46727c2.08959,-0.28886 3.4589,1.90355 3.4589,1.90355c0,0 2.12993,-1.77585 4.32718,-1.84203z" data-paper-data="{&quot;index&quot;:null}" fill="#8e918f" stroke="none" stroke-width="0" stroke-linecap="butt"/></g></g></svg>