<svg version="1.1" xmlns="http://www.w3.org/2000/svg" xmlns:xlink="http://www.w3.org/1999/xlink" width="28.03006" height="20.60595" viewBox="0,0,28.03006,20.60595"><g transform="translate(-227.19313,-169.68384)"><g data-paper-data="{&quot;isPaintingLayer&quot;:true}" fill-rule="nonzero" stroke-width="0" stroke-linecap="butt" stroke-linejoin="miter" stroke-miterlimit="10" stroke-dasharray="" stroke-dashoffset="0" style="mix-blend-mode: normal"><g data-paper-data="{&quot;index&quot;:null}" stroke="none"><path d="M239.94162,189.86838c-1.14236,0.30913 -1.96167,0.28086 -2.50577,0.0385c-0.39765,-0.17712 -0.40918,-0.8201 -0.40918,-0.8201c0,0 2.63723,0.54424 3.06479,-0.19006c0.3815,-0.65519 -0.63104,-3.94075 -0.63104,-3.94075c0,0 0.85554,-0.18019 1.3808,2.8687c0.04511,0.26185 0.07791,0.78734 -0.09896,1.21336c-0.17492,0.42132 -0.60212,0.77664 -0.80064,0.83036z" fill="#686868"/><path d="M240.48592,187.60466c-0.00398,0.41323 -0.04333,1.56413 -0.7755,1.71739c-1.98044,0.41456 -2.4899,0.34353 -2.82527,-0.45024c-0.08154,-0.19299 -0.02095,-1.24343 -0.02095,-1.24343c0,0 -0.00226,-0.22484 0.21663,-0.53818c0.57386,-0.82144 1.8034,-2.29851 2.11649,-2.28133c0.45016,0.0247 1.29828,1.79199 1.28862,2.79578z" fill="#ef4019"/><path d="M236.64855,185.51525c0.08269,-0.02196 1.0616,0.20358 1.78433,0.00502c0.28958,-0.07955 0.4794,-0.46446 0.61014,-0.6465c0.05998,-0.08351 0.15771,-0.05881 0.15771,-0.05881c0,0 1.12859,2.14559 0.70296,2.71365c-0.27377,0.06485 -0.59629,-0.46854 -0.75643,-0.46691c-0.40399,-0.02221 -1.3534,-0.04876 -1.68846,0.03435c-0.45792,0.11358 -0.59091,0.58124 -0.59091,0.58124l-0.04922,-1.42802c0,0 -0.66401,-0.60289 -0.17011,-0.73401z" fill="#ffc500"/><path d="M239.03367,184.99159c-0.00479,0.08742 0.04344,0.32742 0.04344,0.32742l0.19968,0.66422l-0.57004,-0.19985c0,0 -0.69992,0.27395 -0.96971,0.25915c-0.68221,-0.03744 -1.20777,-0.56866 -1.17387,-1.18651c0.03391,-0.61786 0.61443,-1.08838 1.29664,-1.05095c0.68221,0.03744 1.20777,0.56866 1.17387,1.18651z" fill="#ffffff"/></g><path d="M230.11446,183.24538c0.57349,-1.16565 1.23654,-0.87309 1.23654,-0.87309c0,0 -2.89697,3.95203 -2.83942,5.30601c0.05696,1.33992 2.64986,2.22685 2.64986,2.22685c0,0 -0.17128,0.43944 -1.01408,0.37892c-0.72617,-0.05215 -1.98143,-1.00889 -2.32509,-1.81499c-0.03199,-0.07507 -0.00765,-0.39177 -0.01711,-0.63322c-0.03467,-0.88476 1.542,-3.36112 1.71367,-3.51756c0.18527,-0.16883 0.38377,-0.18746 0.50528,-0.4496c0.11592,-0.25006 0.06141,-0.5645 0.09033,-0.62331z" data-paper-data="{&quot;index&quot;:null}" fill="#686868" stroke="none"/><path d="M232.41653,188.66184c-0.36744,0.71864 -0.79123,1.23852 -1.32475,1.24756c-0.53352,0.00906 -2.70105,-1.10607 -2.60973,-2.28521c0.12878,-1.66276 2.84212,-5.27435 2.84212,-5.27435c0,0 0.52481,-0.12825 1.05977,0.0194c0.66249,0.18284 0.86795,0.60154 0.86795,0.60154c0,0 -1.34195,0.46717 -1.59269,1.80399c-0.16869,0.89939 0.69313,2.64611 0.7687,3.20011c0.06757,0.4954 0.04006,0.40786 -0.01136,0.68696z" data-paper-data="{&quot;index&quot;:null}" fill="#ef4019" stroke="none"/><path d="M232.42342,188.00949c0,0 -0.71937,-0.77982 -1.39,-1.18484c-0.13374,-0.08077 -0.52696,-0.18895 -0.85858,-0.11118c-0.3434,0.08053 -0.85817,0.25146 -0.80734,-0.11268c0.11945,-0.85565 1.75538,-3.51945 2.1156,-3.49652c0.19187,0.01221 0.87547,0.29821 0.87547,0.29821c0,0 -0.26644,1.02004 -0.20766,1.54766c0.06078,0.54542 0.56654,1.67326 0.56654,1.67326c0,0 -0.20363,0.24968 -0.25082,0.47209c-0.05059,0.23849 -0.0432,0.91399 -0.0432,0.91399z" data-paper-data="{&quot;index&quot;:null}" fill="#ffc500" stroke="none"/><path d="M231.71331,184.51324c0.40139,-1.26335 1.3129,-1.5501 1.51386,-1.53374c1.77568,0.14454 0.85254,2.22622 0.83411,2.38294c-0.09713,0.82619 -0.59843,0.73271 -1.45117,0.54845c-0.65317,-0.14117 -1.13146,-0.65905 -0.89678,-1.39767z" data-paper-data="{&quot;index&quot;:null}" fill="#ffffff" stroke="none"/><path d="M233.89127,183.97514c0,0 0.38741,-0.39498 0.59898,-0.5873c0.22537,-0.20484 0.62577,-0.62785 0.62577,-0.62785l0.88304,0.81085c0,0 -0.89009,1.44646 -1.91367,1.77995c-0.18619,0.06067 -1.54944,0.01627 -1.37278,-1.00402c0.09462,-0.54647 0.50094,-0.66596 0.79582,-0.59697c0.22333,0.05224 0.38284,0.22532 0.38284,0.22532z" data-paper-data="{&quot;index&quot;:null}" fill="#fedeb5" stroke="none"/><path d="M232.89988,185.81706c0.43395,0.25673 1.05665,-0.0798 1.05665,-0.0798c0,0 0.29519,0.15254 0.13966,0.36421c-0.31054,0.42264 -1.35522,0.50568 -1.35522,0.50568c0,0 -0.73912,-0.18713 -1.19832,-0.92424c-0.24175,-0.38808 -0.24244,-1.23644 -0.24244,-1.23644c0,0 0.08781,0.23008 0.28641,0.33308c0.10444,0.05416 0.3304,0.01421 0.39341,0.01488c0.15071,0.0016 0.56475,0.8125 0.91985,1.0226z" data-paper-data="{&quot;index&quot;:null}" fill="#ffc500" stroke="none"/><path d="M241.2239,179.45801c0.38604,-0.10421 0.60669,0.39291 0.72512,1.0004c0.01853,0.09503 0.40482,2.30022 0.24106,2.66721c-0.47368,1.06158 -0.97727,0.47407 -0.97727,0.47407c0,0 -0.12983,-1.11113 -0.18213,-1.68226c-0.05229,-0.57112 -0.06084,-1.04341 -0.10305,-1.25991c-0.11842,-0.60749 -0.12695,-1.08528 0.29627,-1.19951z" data-paper-data="{&quot;index&quot;:null}" fill="#fde1c0" stroke="none"/><path d="M241.03558,184.53898c-0.3494,-0.20169 -0.28091,-0.76332 -0.28091,-0.76332c0,0 0.38518,-0.59938 0.97573,-0.93394c0.40754,-0.23088 0.95148,-0.04849 0.95148,-0.04849c0,0 0.25661,0.38741 0.31313,0.59139c0.05653,0.20398 0.1442,0.42135 -0.04296,0.60562c-0.55567,0.54708 -1.6965,0.67572 -1.91647,0.54874z" data-paper-data="{&quot;index&quot;:null}" fill="#fefefe" stroke="none"/><g data-paper-data="{&quot;index&quot;:null}" stroke="none"><path d="M241.76403,184.73344c-0.40943,0.12793 -0.90991,0.20514 -0.99914,-0.02679c-0.0761,-0.19781 0.14251,-0.27883 0.54285,-0.43285c0.40034,-0.15403 1.17847,-0.69147 1.27426,-0.44248c0.07611,0.19782 -0.00565,0.64834 -0.81797,0.90212z" fill="#000000"/><path d="M241.65265,186.22527c0,0 -0.55209,0.44297 -0.9016,-0.2306c-0.39757,-0.76618 -0.25516,-1.47824 -0.25516,-1.47824c0,0 0.21712,-0.1781 0.38021,-0.17379c0.1631,0.00431 0.38497,0.19399 0.38497,0.19399c0,0 0.13542,-0.17396 0.26124,-0.20509c0.12583,-0.03113 0.42396,0.03557 0.42396,0.03557c0,0 0.15104,-0.26593 0.30595,-0.37285c0.15491,-0.10692 0.48094,-0.17024 0.48094,-0.17024c0,0 0.08297,-0.31843 0.24181,-0.4229c0.15884,-0.10447 0.36227,-0.18686 0.51821,-0.07701c0.15594,0.10985 0.77465,0.5504 1.04306,1.24515c0.33027,0.85485 -0.98607,0.90354 -0.98607,0.90354c0,0 -0.09518,0.27839 -0.32282,0.39007c-0.29461,0.14452 -0.5979,0.02575 -0.5979,0.02575c0,0 0.02748,0.24748 -0.35831,0.39188c-0.26175,0.09798 -0.61848,-0.05524 -0.61848,-0.05524z" fill="#fefefe"/><path d="M242.74146,184.22032c-0.40943,0.12793 -0.90991,0.20514 -0.99914,-0.02679c-0.0761,-0.19782 0.28645,-0.58015 0.68679,-0.73417c0.40034,-0.15402 1.03453,-0.39015 1.13032,-0.14116c0.07611,0.19782 -0.00565,0.64834 -0.81797,0.90212z" fill="#fefefe"/></g><path d="M243.98165,178.8812c0,0 0.65877,-0.23744 0.96809,-0.42443c0.30932,-0.187 0.75903,-0.5202 0.75903,-0.5202c0,0 -0.09967,0.8708 -0.17434,1.23837c-0.05667,0.27901 -0.11317,0.85482 -0.43611,0.91707c-0.26531,0.05114 -1.11667,-1.2108 -1.11667,-1.2108z" data-paper-data="{&quot;index&quot;:null}" fill="#ebc19b" stroke="none"/><path d="M241.21478,179.45256c-2.91294,-0.03608 -5.17296,-2.00483 -5.20903,-4.88077c-0.03381,-2.69537 1.97142,-4.95292 5.20903,-4.88077c2.87616,0.0641 5.20903,1.28336 5.20903,4.88077c0,3.38098 -2.33238,4.9164 -5.20903,4.88077z" data-paper-data="{&quot;index&quot;:null}" fill="#fedeb5" stroke="none"/><path d="M244.43041,177.14937c0,0 0.1121,-0.70652 0.24763,-2.33832c0.1834,-2.20826 0.10601,-2.97432 0.73125,-2.76909c0.50483,0.16571 1.30211,1.33274 0.90021,3.78671c-0.09801,0.78378 -0.49121,1.58465 -0.49121,1.58465c0,0 -0.24529,0.23007 -0.47748,0.2099c-0.23218,-0.02017 -0.32127,-0.18285 -0.5073,-0.29544c-0.21409,-0.12958 -0.40311,-0.17841 -0.40311,-0.17841z" data-paper-data="{&quot;index&quot;:null}" fill="#ea750b" stroke="none"/><path d="M242.67297,177.68938c0,0 -1.11128,0.66223 -2.31612,0.1528c-0.6905,-0.29196 -1.58939,-1.37735 -1.87639,-2.15545c-0.78961,-2.14073 -0.13687,-3.37972 0.93462,-3.76377c1.00148,-0.35895 2.30067,0.5015 2.92272,2.10847c0.62204,1.60696 0.33517,3.65795 0.33517,3.65795z" data-paper-data="{&quot;index&quot;:null}" fill="#ea750b" stroke="none"/><path d="M242.61551,175.17053c0.32849,1.46827 0.0591,2.48961 0.0591,2.48961c0,0 -0.10117,0.25071 -1.06323,0.33952c-0.74756,0.06901 -1.12458,-0.24478 -1.12458,-0.24478c0,0 -0.6093,-0.7084 -0.80141,-1.76892c-0.27809,-1.53514 0.0541,-2.63006 0.83699,-2.8652c0.78289,-0.23513 1.79264,0.70676 2.09312,2.04978z" data-paper-data="{&quot;index&quot;:null}" fill="#ffffff" stroke="none"/><g data-paper-data="{&quot;index&quot;:null}" stroke="none"><path d="M242.25503,177.84824c-0.32764,0.01641 -0.64067,-0.70395 -0.69918,-1.60898c-0.05852,-0.90503 0.15965,-1.652 0.48729,-1.66842c0.32764,-0.01641 0.64067,0.70395 0.69918,1.60898c0.05852,0.90503 -0.15965,1.652 -0.48729,1.66842z" fill="#a06803"/><path d="M242.30875,177.25756c-0.17697,0.00966 -0.34604,-0.4144 -0.37764,-0.94716c-0.0316,-0.53276 0.08624,-0.97248 0.2632,-0.98214c0.17697,-0.00966 0.34604,0.4144 0.37764,0.94716c0.0316,0.53276 -0.08624,0.97248 -0.2632,0.98214z" fill="#000000"/><path d="M242.54356,175.66277c0.02072,0.30993 -0.05653,0.56574 -0.17255,0.57136c-0.11602,0.00562 -0.22686,-0.24107 -0.24758,-0.55101c-0.02072,-0.30993 0.05653,-0.56574 0.17255,-0.57136c0.11602,-0.00562 0.22686,0.24107 0.24758,0.55101z" fill="#ffffff"/></g><path d="M245.23058,173.38952c0.34422,0.20526 0.49208,1.14898 0.36936,2.47513c-0.08478,0.91614 -0.44466,1.72144 -0.44466,1.72144c0,0 -0.23114,-0.17078 -0.39159,-0.25388c-0.16045,-0.08309 -0.30921,-0.16265 -0.30921,-0.16265c0,0 0.03,-0.63148 0.13392,-1.95459c0.09143,-1.16415 0.25564,-2.05594 0.64218,-1.82545z" data-paper-data="{&quot;index&quot;:null}" fill="#ffffff" stroke="none"/><g data-paper-data="{&quot;index&quot;:null}" stroke="none"><path d="M244.70413,177.23691c-0.22527,-0.00643 -0.3924,-0.61697 -0.3733,-1.36367c0.0191,-0.74671 0.2172,-1.34682 0.44246,-1.34039c0.22527,0.00643 0.3924,0.61697 0.3733,1.36367c-0.0191,0.74671 -0.2172,1.34682 -0.44246,1.34039z" fill="#a06803"/><path d="M244.82724,175.164c0.12172,0.00282 0.20971,0.36129 0.19652,0.80068c-0.01318,0.43939 -0.12255,0.7933 -0.24427,0.79048c-0.12172,-0.00283 -0.20971,-0.3613 -0.19652,-0.80069c0.01318,-0.43939 0.12255,-0.79329 0.24427,-0.79048z" fill="#000000"/><path d="M245.04437,175.45987c-0.00607,0.25576 -0.07564,0.46111 -0.1554,0.45868c-0.07976,-0.00243 -0.13948,-0.21174 -0.13341,-0.46749c0.00607,-0.25576 0.07564,-0.46111 0.1554,-0.45868c0.07976,0.00243 0.13948,0.21174 0.13341,0.46749z" fill="#ffffff"/></g><path d="M242.64273,175.16816c0,0 -0.90012,-1.92403 -1.95022,-1.78858c-0.20333,0.02623 -0.55082,0.06675 -0.77489,0.51662c-0.38582,0.77463 -0.28502,1.47054 -0.28502,1.47054c0,0 -0.63091,0.11296 -1.26469,0.0164c-1.19897,-0.18267 -1.72006,-0.85102 -1.72006,-0.85102c0,0 0.99637,0.42499 1.4642,0.5123c0.47558,0.08875 1.36641,0.01595 1.36641,0.01595c0,0 -0.17298,-2.08798 1.23687,-2.13625c1.26172,-0.04319 1.92739,2.24403 1.92739,2.24403z" data-paper-data="{&quot;index&quot;:null}" fill="#000000" stroke="none"/><path d="M245.10008,173.59325c-0.26376,-0.01083 -0.40779,0.61421 -0.40779,0.61421c0,0 -0.00439,-1.07318 0.43682,-1.02998c0.49301,0.04827 0.63971,1.52679 0.63971,1.52679c0,0 0.01753,0.17665 0.89498,-0.17875c0.95233,-0.38573 1.48878,-1.20418 1.48878,-1.20418c0,0 -0.37356,0.7945 -1.039,1.20713c-0.64947,0.40271 -1.48007,0.44145 -1.48007,0.44145c0,0 -0.08074,-1.3581 -0.53344,-1.37668z" data-paper-data="{&quot;index&quot;:null}" fill="#000000" stroke="none"/><path d="M244.4547,177.16544c0,0 -0.42946,-0.09931 -0.72734,-0.01911c-0.29502,0.07943 -1.04501,0.45607 -1.04501,0.45607c0,0 0.16619,-0.64413 0.02041,-1.92339c-0.14131,-1.2401 -0.4093,-1.74671 -0.4093,-1.74671l2.46872,-0.50325z" data-paper-data="{&quot;index&quot;:null}" fill="#fedeb5" stroke="none"/><path d="M237.69819,185.50556c-0.30939,0 -0.5602,-0.25328 -0.5602,-0.56573c0,-0.31244 0.25081,-0.56573 0.5602,-0.56573c0.30939,0 0.5602,0.25328 0.5602,0.56573c0,0.31244 -0.25081,0.56573 -0.5602,0.56573z" data-paper-data="{&quot;index&quot;:null}" fill="#f5cda8" stroke="none"/><path d="M238.02827,179.11347c1.58497,-0.0308 2.86906,0.31744 2.86906,0.31744c0,0 0.76588,3.04325 0.04163,4.08247c-0.74509,1.06911 -1.66268,1.39364 -2.42885,1.40956c-2.06753,0.08927 -3.12933,-0.60496 -4.03401,-1.79997c-0.74982,-0.99046 -0.74706,-3.09639 -0.74706,-3.09639c0,0 2.53287,-0.8788 4.29923,-0.91312z" data-paper-data="{&quot;index&quot;:null}" fill="#ef4019" stroke="none"/><path d="M239.84524,180.71036c-0.58792,-0.07205 -0.44326,-1.44631 -0.44326,-1.44631l0.99234,0.19109c0,0 -0.17056,1.30162 -0.54908,1.25523z" data-paper-data="{&quot;index&quot;:null}" fill="#08abe8" stroke="none"/><path d="M240.9489,182.29176c-0.0123,0.23058 -0.26738,0.75343 -0.41041,0.73418c-0.06862,-0.00923 -0.11441,-0.52169 -0.23928,-1.08192c-0.13541,-0.60752 -0.3476,-1.26622 -0.3476,-1.26622l0.21731,-0.29675c0,0 0.82192,1.12405 0.77998,1.9107z" data-paper-data="{&quot;index&quot;:null}" fill="#08abe8" stroke="none"/><path d="M239.42736,181.89812c-0.10201,0.52109 -0.15535,1.03158 -0.21849,1.00961c-0.3357,-0.11679 -0.46078,-0.5496 -0.4549,-0.71639c0.03411,-0.96774 0.73641,-1.85046 0.73641,-1.85046l0.19168,0.29745c0,0 -0.13478,0.64715 -0.2547,1.25979z" data-paper-data="{&quot;index&quot;:null}" fill="#08abe8" stroke="none"/><path d="M238.92059,180.72716l-0.0234,-1.82533c0,0 0.22978,0.07703 0.52828,0.17179c0.2985,0.09477 0.45459,0.22604 0.45459,0.22604z" data-paper-data="{&quot;index&quot;:null}" fill="#ffffff" stroke="none"/><path d="M240.56784,180.8223l-0.60344,-1.46017c0,0 0.11626,-0.02067 0.39132,-0.05605c0.27506,-0.03539 0.47493,0.00598 0.47493,0.00598z" data-paper-data="{&quot;index&quot;:null}" fill="#ffffff" stroke="none"/><path d="M245.84414,177.3701c0,0 0.00348,0.40219 -0.1445,0.57137c-0.53107,0.60714 -1.71274,1.4312 -4.19997,1.58478c-2.61271,0.16133 -3.64923,-1.57853 -2.71974,-2.12909c0.81569,-0.48315 1.54255,0.62065 2.74346,0.58837c0.99391,-0.02672 1.73596,-0.7898 2.52161,-0.8728c0.57495,-0.06074 1.01498,0.50294 1.2083,0.49598c0.20965,-0.00754 0.59084,-0.23861 0.59084,-0.23861z" data-paper-data="{&quot;index&quot;:null}" fill="#ffffff" stroke="none"/><g data-paper-data="{&quot;index&quot;:null}" stroke="none"><path d="M244.56378,177.78027c-0.26398,0 -0.3626,-0.13969 -0.40365,-0.26664c-0.04758,-0.14713 0.18072,-0.28068 0.40365,-0.28068c0.22293,0 0.44011,0.13024 0.40365,0.28068c-0.02737,0.11291 -0.15335,0.26664 -0.40365,0.26664z" fill="#6b4209"/><path d="M244.63219,177.46557c-0.10202,0 -0.18472,-0.03676 -0.18472,-0.0821c0,-0.04534 0.0827,-0.0821 0.18472,-0.0821c0.10202,0 0.18472,0.03676 0.18472,0.0821c0,0.04534 -0.0827,0.0821 -0.18472,0.0821z" fill="#ffffff"/></g><path d="M242.28553,178.86123c0,0 -0.12746,0.19448 -0.49259,0.17788c-0.36512,-0.01659 -0.6431,-0.19156 -0.6431,-0.19156c0,0 0.35134,0.06842 0.65679,0.06842c0.29633,0 0.47891,-0.05473 0.47891,-0.05473z" data-paper-data="{&quot;index&quot;:null}" fill="#000000" stroke="none"/><path d="M236.19097,178.00028c0,0 0.72879,0.11516 0.97555,0.53739c0.22062,0.37748 0.29322,0.70572 0.10072,1.32829c-0.20303,0.65668 -0.87647,0.87667 -1.23416,0.86288c-1.07175,-0.04134 -1.6211,-1.10044 -1.14763,-2.17994c0.38686,-0.88201 1.27561,-1.09882 1.27561,-1.09882z" data-paper-data="{&quot;index&quot;:null}" fill="#ebc19b" stroke="none"/><path d="M243.77885,171.22959c0.08861,0.42976 0.0537,0.96568 -0.12953,0.98024c-0.09807,0.00779 -0.48817,-0.31411 -0.96791,-0.75088c-0.29417,-0.26782 -0.65787,-0.44975 -1.05604,-0.71191c-0.73587,-0.48451 -1.88016,-0.91637 -1.88016,-0.91637c0,0 0.63795,-0.19698 1.91534,-0.13463c0.87603,0.04276 1.72764,0.3181 1.72764,0.3181c0,0 0.19457,0.26441 0.39066,1.21544z" data-paper-data="{&quot;index&quot;:null}" fill="#ea750b" stroke="none"/><path d="M238.98061,178.92829c0,0 -1.52047,1.54288 -1.87823,1.40206c-0.43547,-0.1714 -0.36412,-0.99162 -0.37054,-1.3967c-0.00845,-0.53368 0.07955,-1.77778 0.07955,-1.77778c0,0 0.54204,0.58354 0.92589,0.92589c0.38385,0.34234 1.24334,0.84652 1.24334,0.84652z" data-paper-data="{&quot;index&quot;:null}" fill="#fedeb5" stroke="none"/><path d="M238.85219,179.93412c-0.01935,0.2387 0.02858,0.74928 0.04125,1.3718c0.01267,0.62253 0.00704,1.83704 0.00704,1.83704c0,0 -0.47224,0.6948 -1.11175,-0.39323c-0.22108,-0.37613 -0.07112,-2.80207 -0.06263,-2.90685c0.05426,-0.66975 0.23219,-1.23278 0.6613,-1.16707c0.47044,0.07204 0.51905,0.58856 0.46478,1.25832z" data-paper-data="{&quot;index&quot;:null}" fill="#fde1c0" stroke="none"/><path d="M240.09941,186.90774c0,0 -0.54602,1.66877 -1.32259,1.33634c-0.25792,-0.11041 -0.43717,-0.42178 -0.43717,-0.42178c0,0 -0.34097,0.12159 -0.56165,0.07704c-0.22067,-0.04456 -0.43893,-0.27906 -0.43893,-0.27906c0,0 -0.38605,0.07058 -0.57826,0.01122c-0.19221,-0.05936 -0.35291,-0.29879 -0.35291,-0.29879c0,0 -1.0031,-0.00047 -0.53295,-2.00656c0.09221,-0.39341 0.61397,0.00609 0.61397,0.00609c0,0 0.6735,-1.76683 2.02081,-1.29434c2.08395,0.7308 2.12315,2.26392 2.12315,2.26392l-0.53345,0.60592z" data-paper-data="{&quot;index&quot;:null}" fill="#ffffff" stroke="#000000"/><path d="M237.07506,184.22835c-0.24434,-0.14703 -0.20694,-0.39873 -0.19903,-0.6284c0.0079,-0.22966 0.18047,-0.70373 0.18047,-0.70373c0,0 0.52791,-0.33056 1.01669,-0.19025c0.70828,0.20332 1.26696,0.73829 1.26696,0.73829c0,0 0.21481,0.57548 -0.10284,0.87704c-0.19998,0.18985 -1.43688,0.34355 -2.16226,-0.09295z" data-paper-data="{&quot;index&quot;:null}" fill="#fefefe" stroke="none"/><path d="M239.88891,185.73795c0,0 0.21061,0.34358 0.22724,0.64444c0.01285,0.23256 -0.015,0.5549 -0.015,0.5549c0,0 -0.06976,-0.43773 -0.11522,-0.65395c-0.04546,-0.21622 -0.09703,-0.5454 -0.09703,-0.5454z" data-paper-data="{&quot;index&quot;:null}" fill="#000000" stroke="none"/><path d="M236.62793,186.51793c0,0 -0.17386,-0.35838 -0.16047,-0.65941c0.01036,-0.23268 0.03205,-0.52997 0.03205,-0.52997c0,0 0.0469,0.36345 0.07061,0.58312c0.02373,0.21967 0.05782,0.60627 0.05782,0.60627z" data-paper-data="{&quot;index&quot;:null}" fill="#000000" stroke="none"/><path d="M237.65481,183.76739c-0.24306,0.10726 -0.41884,-0.0009 -0.46335,-0.13876c-0.04453,-0.13787 0.05656,-0.44861 0.29961,-0.55587c0.24306,-0.10725 0.36266,0.0231 0.41124,0.15958c0.08616,0.24208 -0.00445,0.42778 -0.2475,0.53504z" data-paper-data="{&quot;index&quot;:null}" fill="#f7e300" stroke="none"/><path d="M250.07595,170.57023c1.044,-0.00269 1.4347,0.00358 2.52426,0.03246c1.08955,0.02888 1.87723,-0.41684 2.54655,0.24487c0.26695,0.26391 -0.15459,1.37766 -1.43522,1.78016c-1.0266,0.32265 -1.52262,0.39847 -2.00477,0.45489c-0.48214,0.05642 -0.98854,0.12431 -1.64368,0.10196c-1.41285,-0.04819 -4.09615,-3.04508 -4.09615,-3.04508z" data-paper-data="{&quot;index&quot;:null}" fill="#ea750b" stroke="none"/><path d="M247.78848,170.73847c0.35969,0.4721 2.10891,2.4294 2.10891,2.4294c0,0 -1.82478,-0.55005 -2.29656,-0.62508c-0.55969,-0.08902 -2.13968,-0.88549 -2.13968,-0.88549l-1.82571,-1.61689c0,0 1.58942,-0.34061 2.26379,-0.19967c0.67437,0.14094 1.46033,0.38528 1.46033,0.38528z" data-paper-data="{&quot;index&quot;:null}" fill="#fedeb5" stroke="none"/><path d="M236.44938,170.23564c0,0 -2.6833,2.99689 -4.09615,3.04508c-0.65514,0.02235 -1.16154,-0.04554 -1.64368,-0.10196c-0.48215,-0.05642 -0.97817,-0.13224 -2.00477,-0.45489c-1.28063,-0.4025 -1.70217,-1.51625 -1.43522,-1.78016c0.66932,-0.66171 1.457,-0.21599 2.54655,-0.24487c1.08956,-0.02888 1.48026,-0.03515 2.52426,-0.03246z" data-paper-data="{&quot;index&quot;:null}" fill="#ea750b" stroke="none"/><path d="M235.05676,170.32217c0,0 0.78596,-0.24434 1.46033,-0.38528c0.67437,-0.14094 2.26379,0.19967 2.26379,0.19967l-1.82571,1.61689c0,0 -1.57999,0.79647 -2.13968,0.88549c-0.47178,0.07503 -2.29656,0.62508 -2.29656,0.62508c0,0 1.74922,-1.9573 2.10891,-2.4294z" data-paper-data="{&quot;index&quot;:null}" fill="#fedeb5" stroke="none"/></g></g></svg>