<svg version="1.1" xmlns="http://www.w3.org/2000/svg" xmlns:xlink="http://www.w3.org/1999/xlink" width="39.78622" height="44.18521" viewBox="0,0,39.78622,44.18521"><defs><radialGradient cx="256.17671" cy="183.59013" r="15.77076" gradientUnits="userSpaceOnUse" id="color-1"><stop offset="0" stop-color="#fadd00" stop-opacity="0.50196"/><stop offset="1" stop-color="#fbdd00"/></radialGradient></defs><g transform="translate(-227.05979,-162.34499)"><g data-paper-data="{&quot;isPaintingLayer&quot;:true}" fill-rule="nonzero" stroke-miterlimit="10" stroke-dasharray="" stroke-dashoffset="0" style="mix-blend-mode: normal"><path d="M240.18076,181.22084c0,0 -3.61621,1.60043 -4.39662,1.33764c-0.84804,-0.28557 -1.99002,-2.00456 -1.99002,-2.00456l2.28088,1.25947l2.87208,-1.09455l1.23366,0.50202z" data-paper-data="{&quot;index&quot;:null}" fill="#f79db4" stroke="none" stroke-width="0" stroke-linecap="butt" stroke-linejoin="miter"/><g data-paper-data="{&quot;index&quot;:null}" stroke-width="0" stroke-linecap="butt" stroke-linejoin="miter"><g data-paper-data="{&quot;index&quot;:null}"><path d="M252.61874,171.89241c-1.00743,-0.35265 -1.53928,-1.45223 -1.18792,-2.45597c0.35137,-1.00374 1.45288,-1.53156 2.46032,-1.1789c1.00743,0.35265 1.5393,1.45224 1.18794,2.45598c-0.35137,1.00374 -1.4529,1.53155 -2.46034,1.17889z" fill="#e0cb17" stroke="none"/><path d="M252.71892,171.82066c-0.6224,-0.21788 -0.95097,-0.8972 -0.7339,-1.51731c0.21707,-0.62012 0.89758,-0.9462 1.51999,-0.72832c0.6224,0.21788 0.95097,0.8972 0.7339,1.51731c-0.21707,0.62011 -0.89758,0.9462 -1.51999,0.72832z" fill="#e0cb17" stroke="#000000"/><path d="M250.54132,176.54618c0,0 -0.60666,-2.2969 0.16604,-3.45897c0.74418,-1.11918 0.95588,-1.26017 0.95588,-1.26017l1.98019,0.70893c0,0 0.37928,1.29534 -0.28723,2.15698c-0.66652,0.86164 -2.81488,1.85323 -2.81488,1.85323z" fill="#e8edf4" stroke="#000000"/><path d="M252.54767,172.39095c-0.55049,-0.19546 -1.11543,-0.76792 -1.11543,-0.76792l0.42834,-0.36911c0,0 0.49247,0.52482 0.92961,0.65056c0.43715,0.12575 1.16398,-0.04836 1.16398,-0.04836l-0.01956,0.71512c0,0 -0.90516,-0.00923 -1.38695,-0.18029z" fill="#dbded5" stroke="#000000"/></g><g data-paper-data="{&quot;index&quot;:null}" stroke="none"><path d="M245.68476,174.76487c-0.13797,0.39413 -0.40376,0.65976 -0.59364,0.59329c-0.18988,-0.06647 -0.23196,-0.43986 -0.09399,-0.834c0.13797,-0.39414 0.40374,-0.65977 0.59362,-0.5933c0.18989,0.06648 0.23198,0.43987 0.09401,0.83401z" fill="#000000"/><path d="M242.52143,178.44525c0.19779,0.06924 0.22169,2.35273 0.22169,2.35273c0,0 -1.10115,-0.03298 -1.29894,-0.10222c-0.19778,-0.06924 -0.13109,-1.32524 -0.07038,-1.49866c0.06071,-0.17342 0.94986,-0.82108 1.14765,-0.75184z" fill="#807d5a"/><path d="M244.94356,175.06331l0.00774,-0.32842l6.54232,-3.95842l0.07419,0.18619z" fill="#6e6e73"/><path d="M250.8018,171.06835l0.20857,0.41482l-1.55751,0.89678l-0.17992,-0.40479z" fill="#ddcb1e"/></g></g><g data-paper-data="{&quot;index&quot;:null}" stroke-width="0" stroke-linecap="butt" stroke-linejoin="miter"><g data-paper-data="{&quot;index&quot;:null}"><path d="M232.91079,163.9977c0.45074,-1.28763 1.86382,-1.96472 3.1562,-1.51232c1.29239,0.45241 1.97466,1.86299 1.52392,3.15062c-0.45075,1.28763 -1.86382,1.96471 -3.1562,1.51231c-1.29237,-0.4524 -1.97466,-1.86298 -1.52392,-3.15061z" fill="#e0cb17" stroke="none"/><path d="M234.39169,166.99623c-0.79843,-0.2795 -1.21995,-1.15095 -0.94148,-1.94646c0.27847,-0.79551 1.15148,-1.2138 1.9499,-0.93431c0.79843,0.2795 1.21994,1.15094 0.94147,1.94645c-0.27847,0.7955 -1.15148,1.21381 -1.9499,0.93432z" fill="#e0cb17" stroke="#000000"/><path d="M231.45456,169.36657c0.02103,-1.39729 1.43775,-2.39274 1.43775,-2.39274l2.55285,0.87343c0,0 0.09948,0.31077 -0.04972,2.02844c-0.15491,1.78348 -2.60094,3.60135 -2.60094,3.60135c0,0 -1.36096,-2.71321 -1.33994,-4.11049z" fill="#e8edf4" stroke="#000000"/><path d="M234.10712,167.70509c-0.61998,-0.21395 -1.53502,-0.92888 -1.53502,-0.92888l0.55254,-0.73275c0,0 0.58953,0.75613 1.12849,0.97979c0.53897,0.22367 1.4527,0.09139 1.4527,0.09139l0.1342,0.71284c0,0 -1.02452,0.12207 -1.7329,-0.12239z" fill="#dbded5" stroke="#000000"/></g><g data-paper-data="{&quot;index&quot;:null}" stroke="none"><path d="M237.81429,176.75532c0.33438,-0.33238 1.4273,-2.56286 2.63291,-2.09972c0.18712,0.07188 1.21784,1.80768 1.09344,2.87306c-0.16921,1.44922 -1.55341,2.33041 -1.55341,2.33041l-2.93397,-1.0476c0,0 0.42665,-1.72378 0.76102,-2.05616z" fill="#e4dcaa"/><path d="M239.85119,174.81535c0.24359,0.08528 0.29758,0.56428 0.12059,1.0699c-0.17699,0.50561 -0.51795,0.84637 -0.76154,0.7611c-0.24358,-0.08527 -0.29756,-0.56427 -0.12057,-1.06989c0.17699,-0.50563 0.51793,-0.84638 0.76152,-0.76111z" fill="#000000"/><path d="M236.47535,180.92332c0.14087,-0.84865 0.57939,-2.1266 0.57939,-2.1266c0,0 0.64863,-0.13873 1.02804,-0.11978c0.37941,0.01895 0.96592,0.16966 0.96592,0.16966l0.90276,1.14757c0,0 -0.79235,2.88821 -0.90661,3.25363c-0.23012,0.73594 -1.76756,0.80631 -1.76756,0.80631l-0.95487,-0.84569c0,0 0.01205,-1.43647 0.15292,-2.28512z" fill="#dfcc17"/><path d="M237.21245,183.97976c0,0 1.85093,-2.27068 2.10467,-2.18186c0.25374,0.08882 0.62716,1.44967 0.54928,1.67214c-0.07788,0.22248 -1.01591,1.53532 -1.26965,1.4465c-0.25374,-0.08882 -1.38432,-0.93676 -1.38432,-0.93676z" fill="#807d5a"/><path d="M236.23244,167.05682l0.22337,-0.12735l3.39333,9.20375l-0.25498,0.33552z" fill="#6e6e73"/><path d="M237.72358,169.9082l-0.50429,0.26196l-0.84433,-2.14539l0.54104,-0.24908z" fill="#ddcb1e"/></g></g><g data-paper-data="{&quot;index&quot;:null}" stroke="none" stroke-width="0" stroke-linecap="butt" stroke-linejoin="miter"><g><path d="M245.76738,195.76555c0,0 1.68059,-1.68957 2.20312,-2.59186c0.42353,-0.73135 0.69788,-2.41755 0.69788,-2.41755c0,0 0.86303,0.26238 1.11448,1.76396c0.07071,0.42231 -0.44556,0.97543 -0.44556,0.97543l-0.89925,0.39702c0,0 -0.51287,1.2186 -0.94053,1.64289c-0.72044,0.71478 -1.32003,1.2174 -2.38785,1.49776c-1.06781,0.28034 -0.79483,-0.66217 -0.79483,-0.66217l1.45254,-0.60547z" fill="#393939"/><path d="M242.89926,189.03706l2.44467,-1.79743l0.46355,0.55349l-0.12477,0.14745c0,0 0.29064,0.05213 0.34686,0.10427c0.24618,0.2284 0.10574,0.27968 0.10574,0.27968c0,0 0.5145,0.01185 0.84017,0.23484c0.32565,0.22298 0.77637,0.4769 1.10265,0.93868c0.32628,0.46177 0.60658,1.48049 0.60658,1.48049c0,0 0.48841,2.13605 -2.53593,4.62975c-0.89505,0.73801 -1.56484,0.72897 -1.56484,0.72897c0,0 -0.90127,-1.32323 -1.08701,-2.37865c0.02006,-1.00604 -0.02069,-1.46696 -0.05581,-1.89566c-0.02855,-0.34842 -0.21462,-1.23556 -0.21462,-1.23556l-0.18761,-0.37782l-0.00681,-0.36198z" fill="#f01a40"/><path d="M242.36376,185.83246c0.36089,-0.24119 2.23905,-0.51798 2.37174,0.10224c0.18524,0.86585 0.06697,0.31165 0.2009,0.62302c0.13393,0.31137 0.56572,0.19133 0.35934,0.67931c-0.16858,0.39865 -0.32011,0.93662 -0.82449,1.27398c-0.97648,0.50379 -1.30642,0.58863 -1.81973,0.52606c-0.34435,-0.04201 -0.53342,-0.83104 -0.53342,-0.83104c0,0 -0.66896,-0.19218 -0.79702,-0.46176c-0.12805,-0.26959 0.30966,-1.42194 1.0427,-1.91184z" fill="#ffffff"/><path d="M243.76983,189.79995c-0.09055,-0.30432 -0.48272,-0.77279 -0.48272,-0.77279l1.29907,-0.64532l0.40263,0.90322l-0.07222,0.39386l0.09677,0.33153c0,0 0.14432,1.0317 0.47508,2.16324c0.15652,0.421 1.41255,2.8031 1.41255,2.8031c0,0 -0.83984,0.78498 -1.06459,0.9225c-0.21846,0.13368 -0.69815,0.33091 -0.69815,0.33091c0,0 -0.70455,-1.30222 -1.01,-2.26214c-0.24802,-0.77938 -0.15983,-3.5344 -0.15983,-3.5344c0,0 -0.18155,-0.57644 -0.19858,-0.63368z" fill="#ffffff"/></g><path d="M242.77777,186.10979c0.59245,-0.27334 1.20329,-0.21191 1.36438,0.13722c0.16108,0.34911 -0.18862,0.85371 -0.78107,1.12708c-0.59245,0.27334 -1.2033,0.2119 -1.36438,-0.13723c-0.16109,-0.34911 0.18862,-0.85373 0.78106,-1.12707z" fill="#afafaf"/></g><path d="M240.84013,181.95398l1.92691,3.21377l1.15029,1.99714c0,0 -0.32904,0.19109 -0.59151,0.20366c-0.26248,0.01257 -0.68242,-0.04935 -0.68242,-0.04935l-1.2295,-1.87948l-1.74276,-2.99283z" data-paper-data="{&quot;index&quot;:null}" fill="#f79db4" stroke="none" stroke-width="0" stroke-linecap="butt" stroke-linejoin="miter"/><g data-paper-data="{&quot;index&quot;:null}" stroke="none" stroke-width="0" stroke-linecap="butt" stroke-linejoin="miter"><g><path d="M229.44083,193.72231l1.0615,1.16179c0,0 -0.15015,0.96969 -1,0.26501c-0.84985,-0.70469 -1.18141,-1.41337 -1.53302,-2.36536c-0.20873,-0.56511 -0.1596,-1.88632 -0.1596,-1.88632l-0.64779,-0.73935c0,0 -0.23473,-0.71933 0.00754,-1.07236c0.86147,-1.25528 1.75466,-1.12906 1.75466,-1.12906c0,0 -0.46267,1.64456 -0.38724,2.48629c0.09306,1.03852 0.90393,3.27939 0.90393,3.27939z" fill="#393939"/><path d="M234.31631,189.72847l-0.1589,0.3253l-0.32949,0.26339c0,0 -0.54299,0.72582 -0.71587,1.02968c-0.21273,0.37388 -0.44411,0.77455 -0.85038,1.69514c-0.61369,0.87854 -1.9891,1.69798 -1.9891,1.69798c0,0 -0.61107,-0.27439 -1.11119,-1.32112c-1.68989,-3.53687 -0.34589,-5.26743 -0.34589,-5.26743c0,0 0.68391,-0.80536 1.17456,-1.08637c0.49065,-0.28102 1.0064,-0.32107 1.39574,-0.38584c0.38933,-0.06477 0.86081,0.14155 0.86081,0.14155c0,0 -0.10569,-0.10573 0.21387,-0.20894c0.07296,-0.02355 0.35847,0.05181 0.35847,0.05181l-0.05093,-0.18634l0.6538,-0.30624l1.4581,2.66102z" fill="#f01a40"/><path d="M236.85621,188.3258c-0.22986,0.19038 -0.91744,0.08239 -0.91744,0.08239c0,0 -0.50429,0.6356 -0.83422,0.5284c-0.49181,-0.15981 -0.75512,-0.37596 -1.4279,-1.2447c-0.31494,-0.51866 -0.22535,-1.07033 -0.21002,-1.50288c0.01875,-0.52947 0.35959,-0.2385 0.61239,-0.46429c0.25281,-0.22579 -0.08825,0.22677 0.44501,-0.4801c0.38196,-0.50634 1.968,0.53699 2.19344,0.90792c0.45791,0.75341 0.36857,1.98287 0.13874,2.17326z" fill="#ffffff"/><path d="M233.76875,189.15646c-0.03959,0.0447 -0.4474,0.49074 -0.4474,0.49074c0,0 -1.08237,2.53502 -1.63605,3.137c-0.68193,0.74144 -1.8701,1.62484 -1.8701,1.62484c0,0 -0.35168,-0.38121 -0.49335,-0.59457c-0.14575,-0.21951 -0.576,-1.28553 -0.576,-1.28553c0,0 2.14376,-1.62978 2.46329,-1.94545c0.77727,-0.88636 1.3434,-1.76085 1.3434,-1.76085l0.2276,-0.25974l0.10071,-0.38755l0.74609,-0.64904l0.90552,1.13316c0,0 -0.55322,0.25928 -0.76371,0.49698z" fill="#ffffff"/></g><path d="M236.22513,186.22933c0.42181,0.49778 0.52596,1.10282 0.23263,1.35139c-0.29334,0.24858 -0.87307,0.04655 -1.29489,-0.45123c-0.42182,-0.49779 -0.52597,-1.10281 -0.23264,-1.35138c0.29334,-0.24858 0.87308,-0.04656 1.2949,0.45122z" fill="#afafaf"/></g><path d="M242.01149,176.18837l0.16397,0.73041c0,0 -0.17454,0.79624 -0.41272,1.06482c-0.22465,0.25332 -1.05044,0.47827 -1.05044,0.47827z" data-paper-data="{&quot;index&quot;:null}" fill="#f25c76" stroke="none" stroke-width="0" stroke-linecap="butt" stroke-linejoin="miter"/><path d="M239.60498,183.20714l-2.90815,2.94738l-1.29479,1.26252c0,0 -0.37099,-0.4236 -0.48448,-0.67301c-0.11349,-0.2494 -0.13531,-0.68895 -0.13531,-0.68895l0.98184,-0.93034l2.71167,-2.62898z" data-paper-data="{&quot;index&quot;:null}" fill="#f79db4" stroke="none" stroke-width="0" stroke-linecap="butt" stroke-linejoin="miter"/><g data-paper-data="{&quot;index&quot;:null}" stroke="none" stroke-width="0" stroke-linecap="butt" stroke-linejoin="miter"><path d="M243.5853,186.83571c0.0022,0.14139 -0.64583,1.02652 -0.99374,1.37813c-0.19002,0.19204 -0.54175,0.55214 -0.96225,0.38118c-0.10721,-0.04359 -0.46132,-0.48294 -0.46132,-0.48294l-0.42229,0.1148c0,0 -0.2412,-0.09879 -0.33618,-0.22486c-0.09497,-0.12607 -0.16779,-0.41089 -0.16779,-0.41089c0,0 -0.16863,-0.06043 -0.29568,-0.07844c-0.41471,-0.05876 -0.39375,-0.45096 -0.39375,-0.45096c0,0 -0.30572,-0.00819 -0.48326,-0.14081c-0.28146,-0.21024 -0.48854,-0.61013 -0.52436,-0.85184c-0.06085,-0.41057 0.0442,-1.56286 0.40416,-1.70369c0.56063,-0.21935 0.74835,0.49801 0.74835,0.49801c0,0 0.16799,-0.60555 0.44325,-0.86808c0.42384,-0.40426 0.80215,-0.43468 0.80215,-0.43468l2.38965,0.92121c0,0 0.23916,1.46646 0.25306,2.35386z" fill="#ffffff"/><g><path d="M242.61219,182.013c0.58661,0.06253 1.63535,0.90012 1.68807,1.36779c0.05272,0.46766 -0.16905,1.49601 -0.75837,1.52275c-2.15278,0.09772 -2.75321,-1.01601 -2.77322,-1.99429c-0.01308,-0.63897 0.19129,-1.07235 1.84352,-0.89624z" fill="#fed000"/><path d="M242.63573,182.43422c0.51726,0.17074 0.86915,0.51346 0.78595,0.76547c-0.0832,0.252 -0.56995,0.31787 -1.08721,0.14711c-0.51728,-0.17076 -0.86916,-0.51346 -0.78596,-0.76547c0.0832,-0.252 0.56996,-0.31788 1.08722,-0.14712z" fill="#c28830"/><path d="M244.44822,177.73879c-0.1353,1.17485 -0.49542,2.507 -0.76969,3.37657c-0.39212,1.24323 -0.70489,2.36205 -0.70489,2.36205c0,0 -0.54173,0.04512 -0.79556,-0.15706c-0.25384,-0.20219 -0.36046,-0.2333 -0.36046,-0.2333c0,0 0.68855,-1.93488 0.84674,-2.43644c0.25948,-0.82272 0.54566,-1.87883 0.84758,-3.09304c0.07566,-0.30424 0.27836,-0.44124 0.59177,-0.37678c0.21056,0.04332 0.38932,0.16898 0.34451,0.55801z" fill="#fed5c7"/></g></g><path d="M251.92863,202.94762c-2.73652,1.42817 -5.37878,-9.07837 -5.37878,-9.07837c0,0 6.63049,-3.50766 10.11314,-11.00375c3.70291,-7.9702 4.28462,-19.93923 4.75383,-19.27017c8.75016,12.47712 7.83383,27.37603 -9.4882,39.35229z" data-paper-data="{&quot;index&quot;:null}" fill="url(#color-1)" stroke="none" stroke-width="NaN" stroke-linecap="butt" stroke-linejoin="miter"/><path d="M241.34197,185.55109c0,0 -1.09471,-0.18648 -1.68282,-0.40779c-4.45658,-1.58598 -4.37802,-5.61896 -4.37802,-5.61896l1.11352,0.12761c0,0 -0.51558,3.04754 4.03419,4.47142c0.44435,0.13906 1.57852,0.41588 1.57852,0.41588z" data-paper-data="{&quot;index&quot;:null}" fill="#ffffff" stroke="none" stroke-width="0" stroke-linecap="butt" stroke-linejoin="miter"/><g data-paper-data="{&quot;index&quot;:null}" stroke-linecap="butt" stroke-linejoin="miter"><path d="M249.88216,202.75995l-3.1903,-8.50524c0,0 1.95218,-2.17921 3.74963,-1.35034c1.70347,0.78554 2.79946,1.74572 3.60182,3.58177c2.08957,4.78161 -2.17129,6.69974 -2.17129,6.69974z" fill="#fbdd00" stroke="none" stroke-width="0"/><path d="M250.39868,202.89126c0,0 0.59241,-0.26238 1.11857,-0.70582c0.3521,-0.29674 0.61362,-0.79925 0.8224,-0.83326c0.41991,-0.06844 0.18721,0.21679 -0.34864,0.86411c-0.24985,0.30184 -1.07649,0.79555 -1.07649,0.79555l-0.51586,-0.12059z" fill="#a58c48" stroke="#000000" stroke-width="0"/><path d="M253.10588,198.92144c-0.1744,0.07074 -0.22663,-1.0387 -0.5637,-1.86968c-0.33707,-0.831 -1.55156,-1.8881 -1.17527,-2.09749c0.41206,-0.22931 1.24422,1.059 1.60602,1.87952c0.53997,1.22459 0.30733,2.01691 0.13293,2.08765z" fill="#a58c48" stroke="#000000" stroke-width="0"/><path d="M247.30837,193.96139l0.25902,-0.32139c0,0 0.58193,-0.20204 1.02656,-0.20615c0.39919,-0.00368 0.54918,0.3201 0.52292,0.39968c-0.07464,0.22614 -0.47965,-0.02482 -0.92494,-0.01375c-0.48109,0.01196 -0.88355,0.14162 -0.88355,0.14162z" fill="#a58c48" stroke="#000000" stroke-width="0"/><path d="M247.34746,198.96419c1.25813,3.35598 -0.25825,4.99034 -0.25825,4.99034c0,0 0.21815,-0.03225 -0.33421,0.19253c-0.55236,0.22478 -0.30512,0.07058 -0.30512,0.07058c0,0 1.05098,-1.90959 0.64112,-4.07247c-0.65226,-3.44207 -3.75784,-4.57133 -3.75784,-4.57133l0.57669,-0.14556c0,0 2.54098,1.14417 3.4376,3.53589z" fill="#edeee6" stroke="none" stroke-width="0"/><path d="M247.01899,193.96523c0,0 3.42195,0.75962 4.30886,3.44501c1.12399,3.40321 -1.10476,5.41359 -1.10476,5.41359l-0.33432,-0.06518c0,0 1.31126,-1.96953 0.96018,-4.11211c-0.55872,-3.40973 -4.13625,-4.42807 -4.13625,-4.42807l0.30628,-0.25325z" fill="#edeee6" stroke="none" stroke-width="0"/><path d="M250.92212,197.5147c1.26392,3.37029 -1.2546,5.43669 -1.2546,5.43669c0,0 -0.8226,0.46462 -1.37495,0.68941c-0.55237,0.22479 -1.45631,0.46282 -1.45631,0.46282c0,0 1.04875,-1.91506 0.63539,-4.08659c-0.65782,-3.45578 -3.76698,-4.59389 -3.76698,-4.59389l3.08776,-1.25731c0,0 3.22891,0.94697 4.12968,3.34888z" fill="#ff1a07" stroke="none" stroke-width="0"/><path d="M249.46061,195.64095c0,0 1.09763,0.96433 1.44319,1.79351c0.34556,0.82918 0.07987,2.1747 0.07987,2.1747l-2.97212,1.20556c0,0 -0.24163,-1.44899 -0.50147,-2.08958c-0.26738,-0.65916 -1.11097,-1.88562 -1.11097,-1.88562z" fill="#ff1808" stroke="#000000" stroke-width="0"/><path d="M246.93265,204.02128c0,0 0.41434,-0.49494 0.59484,-0.8574c0.1805,-0.36246 0.32314,-0.98594 0.32314,-0.98594l2.75272,-1.15983c0,0 -0.0783,0.78223 -0.38021,1.24264c-0.30191,0.46041 -0.86001,0.8612 -1.04983,0.93819c-0.5027,0.2039 -2.24065,0.82232 -2.24065,0.82232z" fill="#ff1808" stroke="#000000" stroke-width="0"/><path d="M243.78701,195.51952c0,0 2.41206,-1.05286 3.00576,-1.17593c0.43465,-0.0901 1.52494,0.50632 1.52494,0.50632l-2.9164,1.18295c0,0 -0.41078,-0.17345 -0.68231,-0.25979c-0.27154,-0.08634 -0.93198,-0.25355 -0.93198,-0.25355z" fill="#ff1808" stroke="#000000" stroke-width="0"/><path d="M243.52214,198.7063c-0.50352,-1.24135 -3.10064,-3.00732 -3.10064,-3.00732c0,0 0.61052,-0.5006 1.49712,-0.53569c1.38706,-0.0549 3.41902,0.54509 4.67725,3.3346c2.39941,5.31948 -2.2218,7.8018 -2.2218,7.8018c0,0 -0.34841,-6.35202 -0.85193,-7.59338z" fill="#fbdd00" stroke="none" stroke-width="0"/><path d="M246.04664,199.38368c-0.26216,-0.64632 -1.19595,-2.09636 -0.92573,-2.06893c0.3998,0.04057 1.11501,1.19658 1.35646,1.85092c0.43598,1.18152 0.28424,2.11281 0.18165,2.15442c-0.1026,0.04161 -0.27489,-1.10435 -0.61239,-1.93643z" fill="#a58c48" stroke="#000000" stroke-width="0"/><path d="M246.61619,203.24108c0.34395,-0.26485 -0.23223,1.2407 -0.23223,1.2407l-0.38502,0.43738c0,0 0.39652,-1.50812 0.61725,-1.67808z" fill="#a58c48" stroke="#000000" stroke-width="0"/><path d="M243.93178,196.19632c-0.34882,0.14148 -1.8941,-0.97397 -1.8941,-0.97397l0.83397,0.03237c0,0 1.40893,0.80011 1.06011,0.94159z" fill="#a58c48" stroke="#000000" stroke-width="0"/><path d="M239.13401,202.65778c-1.17569,-3.00515 -0.89876,-6.09773 1.33325,-7.00307c1.60042,-0.64918 3.89421,1.60104 4.93428,4.27183c0.99631,2.55846 0.58135,5.69136 -1.01907,6.34053c-1.60042,0.64916 -4.22469,-1.06193 -5.225,-3.61882z" fill="#fbdd00" stroke="#000000" stroke-width="0.25"/><path d="M242.35147,205.75653c-0.96435,0.39116 -2.49166,-1.12971 -3.4113,-3.39698c-0.91964,-2.26727 -0.8834,-4.42235 0.08096,-4.81351c0.96436,-0.39116 2.49165,1.12972 3.41129,3.39699c0.91964,2.26725 0.88341,4.42232 -0.08095,4.81348z" fill="#fbdd00" stroke="#000000" stroke-width="0.25"/><path d="M242.86311,193.50311l-1.82002,-3.7533l-3.05866,-6.37001c0,0 0.10695,-0.54047 0.31823,-0.63829c0.21128,-0.09781 0.82118,-0.03459 0.82118,-0.03459l3.4074,6.14329l2.13408,3.73668c0,0 -0.63157,0.13226 -0.99478,0.31691c-0.36321,0.18465 -0.80743,0.5993 -0.80743,0.5993z" fill="#fbdd00" stroke="none" stroke-width="0"/><path d="M243.52055,195.47984c0,0 -0.80475,-1.64434 -0.77695,-1.75023c0.10552,-0.40197 1.6029,-1.26138 2.17991,-1.16504c0.3407,0.05688 1.57684,2.2701 1.57684,2.2701l-2.6412,0.76797z" fill="#c8c8c6" stroke="none" stroke-width="0"/><path d="M252.04271,203.07336c0,0 2.18415,-1.03126 2.50019,-3.48723c0.07666,-0.59575 -0.09479,-1.39698 -0.27434,-2.14711c-0.26695,-1.11515 -0.86371,-2.3296 -1.71907,-3.11456c-1.05686,-0.96987 -2.50678,-1.4761 -2.50678,-1.4761c0,0 3.71685,0.61952 4.5675,3.86211c1.26076,4.80582 -2.5675,6.36291 -2.5675,6.36291z" fill="#fbdd00" stroke="#000000" stroke-width="0.25"/><path d="M237.98443,183.37979c0,0 0.10695,-0.54047 0.31823,-0.63829c0.21128,-0.09781 0.82117,-0.0346 0.82117,-0.0346l1.47556,2.62918c0,0 -0.24825,0.22399 -0.61146,0.40864c-0.36321,0.18464 -0.74093,0.27566 -0.74093,0.27566z" fill="#a56402" stroke="none" stroke-width="0"/></g><path d="M244.17871,178.67179c-0.11234,0.65303 -0.85462,1.647 -0.85462,1.647l-2.85508,3.81879c0,0 0.32016,0.06285 -1.23542,-0.63521c-1.70293,-0.76418 -1.38966,-0.57472 -2.2616,-1.72011c-0.94621,-1.24294 -0.6186,-2.1144 -0.6186,-2.1144l1.47002,0.03155l0.68944,-0.06399l0.12493,-0.12957l1.60932,-0.19479l0.50473,-0.94495c0,0 0.5884,-0.12132 0.91642,-0.52526c0.25986,-0.31999 0.4982,-1.0334 0.4982,-1.0334l1.23994,0.0669l0.33427,0.15706c0,0 0.53862,1.05589 0.43808,1.64039z" data-paper-data="{&quot;index&quot;:null}" fill="#f01a40" stroke="none" stroke-width="0" stroke-linecap="butt" stroke-linejoin="miter"/><path d="M242.12952,175.72199c0,0 1.38841,0.60787 1.76151,0.95402c0.37311,0.34613 0.36257,1.01666 0.36257,1.01666c0,0 -0.50653,0.5263 -1.48173,-0.35128c-1.04845,-0.94349 -0.64234,-1.61941 -0.64234,-1.61941z" data-paper-data="{&quot;index&quot;:null}" fill="#afafaf" stroke="none" stroke-width="0" stroke-linecap="butt" stroke-linejoin="miter"/><g data-paper-data="{&quot;index&quot;:null}" stroke="none" stroke-width="0" stroke-linecap="butt" stroke-linejoin="miter"><path d="M241.06275,186.43378c-0.03437,0.13113 -0.86072,0.78153 -1.27255,1.01661c-0.22493,0.12837 -0.64244,0.3703 -0.9867,0.10413c-0.08775,-0.06784 -0.30158,-0.56474 -0.30158,-0.56474l-0.4195,-0.00275c0,0 -0.19727,-0.15337 -0.25251,-0.29424c-0.05524,-0.14087 -0.04912,-0.4226 -0.04912,-0.4226c0,0 -0.14013,-0.09925 -0.25282,-0.1486c-0.36779,-0.16106 -0.24745,-0.51783 -0.24745,-0.51783c0,0 -0.28018,-0.08627 -0.40997,-0.25447c-0.20576,-0.26663 -0.29398,-0.68922 -0.2648,-0.92163c0.04955,-0.39479 0.44332,-1.43172 0.81197,-1.46907c0.57417,-0.05815 0.56275,0.65259 0.56275,0.65259c0,0 0.31107,-0.51587 0.63285,-0.68741c0.49549,-0.26413 0.85265,-0.19478 0.85265,-0.19478l1.96931,1.46608c0,0 -0.15683,1.41571 -0.37254,2.23871z" fill="#ffffff"/><path d="M242.51494,183.02992c-0.09652,0.4407 -0.61524,1.30554 -1.15834,1.1479c-1.98396,-0.57587 -2.18509,-1.77202 -1.90126,-2.66606c0.18538,-0.58395 0.50465,-0.91419 1.94979,-0.24431c0.51309,0.23785 1.20633,1.32176 1.10982,1.76247z" fill="#fed000"/><path d="M241.9429,180.26c-0.26737,1.22074 -0.46604,2.4955 -0.46604,2.4955c0,0 -0.50105,-0.19736 -0.7608,-0.36854c-0.25975,-0.17118 -0.34169,-0.40749 -0.34169,-0.40749c0,0 0.45237,-1.58342 0.56022,-2.07591c0.17693,-0.80782 0.35925,-1.84077 0.543,-3.02605c0.04604,-0.29698 0.22778,-0.44524 0.53256,-0.41067c0.20476,0.02323 0.38626,0.12782 0.37696,0.5031c-0.02806,1.13333 -0.25722,2.43623 -0.44423,3.29006z" fill="#fed5c7"/></g><g data-paper-data="{&quot;index&quot;:null}"><path d="M247.58295,172.72585c0,0 0.01934,-1.33947 -0.80987,-1.90018c-1.34029,-0.90629 -2.71592,0.62156 -2.71592,0.62156c0,0 0.81632,-1.13662 1.85427,-1.07275c0.68519,0.04216 1.03414,0.16644 1.40536,0.7713c0.41595,0.67776 0.26616,1.58004 0.26616,1.58004z" fill="#000000" stroke="none" stroke-width="0" stroke-linecap="butt" stroke-linejoin="miter"/><path d="M250.4099,176.80609c-2.26554,1.77646 -5.77191,1.08701 -7.83173,-1.53989c-2.05981,-2.62691 -1.89304,-6.19651 0.37248,-7.97296c2.26553,-1.77645 5.7719,-1.08703 7.83172,1.53987c2.05982,2.62692 1.89305,6.19653 -0.37247,7.97298z" fill="#f79eb4" stroke="none" stroke-width="0" stroke-linecap="butt" stroke-linejoin="miter"/><path d="M248.91292,177.72606c0.01655,-0.00502 -0.79958,0.67285 -2.32306,0.90798c-2.45418,0.38582 -3.41269,-0.74306 -3.41269,-0.74306l0.8914,-0.33982c0,0 2.3146,0.15746 3.0751,0.07805c0.76046,-0.07941 1.80152,-0.64468 1.80084,-0.6444" fill="#f79eb4" stroke="#f89db5" stroke-width="0" stroke-linecap="butt" stroke-linejoin="round"/><g fill="#ffd5c5" stroke="none" stroke-width="1" stroke-linecap="round" stroke-linejoin="round"><path d="M246.4904,177.73684c-0.34812,0.42252 -0.99264,0.34679 -1.47895,0.22548c-0.07956,-0.01985 -0.70111,-0.17697 -1.43505,-0.66071c-0.92093,-0.60699 -1.61699,-1.81569 -1.82483,-2.15665c-0.24784,-0.40665 -0.35167,-1.39487 -0.32102,-1.58829c0.22061,-1.3921 1.0567,-1.13475 1.18097,-1.10345c0.05926,0.01495 0.30569,0.16552 0.41684,0.48282c0.10832,0.30927 0.26266,1.26646 0.45265,1.48858c0.20414,0.23867 1.74549,1.24779 2.3044,1.9625c0.1146,0.14976 0.21817,0.38395 0.21839,0.57652c0.00023,0.25064 -0.05022,0.6657 0.3148,0.71701c0.0591,0.00827 0.20971,0.01011 0.17179,0.05619z"/><path d=""/></g><g fill="#000000" stroke="#000000" stroke-width="0.125" stroke-linecap="butt" stroke-linejoin="round"><path d="M248.41947,177.41074c0.05492,0.03626 0.21372,0.28816 0.56671,0.57096c0.23065,0.17131 0.46301,0.34067 0.70909,0.48875c0.14735,0.08864 0.32057,0.13892 0.46312,0.23303c0.00486,0.00319 -0.38036,-0.13883 -0.48572,-0.19092c-0.33028,-0.16319 -0.60121,-0.33198 -0.89944,-0.5472c-0.06549,-0.04724 -0.54063,-0.48027 -0.51913,-0.49267"/><path d="M248.92237,177.18277c-0.00426,0.03584 0.19044,0.30422 0.59505,0.5174c0.40459,0.21316 1.04643,0.44491 1.08671,0.43666c0.01519,-0.00312 -0.79456,-0.18306 -1.10249,-0.31694c-0.30794,-0.13389 -0.79924,-0.53463 -0.7792,-0.54619"/></g><g fill="#000000" stroke="none" stroke-width="1" stroke-linecap="round" stroke-linejoin="round"><path d="M245.43215,177.01225c-0.11956,-0.21009 -0.21076,-0.64207 0.02228,-0.5753c0.17711,0.05075 0.4575,0.50318 0.46115,0.61626c0.00634,0.19562 -0.42137,0.05007 -0.48343,-0.04098z"/><path d=""/></g><path d="M244.51588,170.86598c0.05436,-0.0166 -1.55335,1.09123 -2.23278,1.65163c-1.27949,1.05533 -1.85239,1.99122 -1.85239,1.99122c0,0 -0.03626,-0.42616 -0.03288,-0.53773c0.01039,-0.34465 0.03839,-0.66354 0.10797,-1.00427c0.16367,-0.80141 0.53063,-1.54373 1.01116,-2.20225c0.32026,-0.43887 2.02306,-1.97744 2.04797,-1.96795" fill="#f79eb4" stroke="#f89db5" stroke-width="0" stroke-linecap="butt" stroke-linejoin="round"/><path d="M243.53129,168.70275c-0.02056,-0.00249 -2.04261,1.95785 -2.56463,2.55329c-0.52201,0.59543 -1.14328,1.67625 -1.14328,1.67625c0,0 -0.20385,-0.36281 -0.05403,-1.1944c0.13231,-0.7343 0.18222,-1.1282 0.83072,-1.99824c0.8415,-1.12898 2.24682,-2.36141 2.64059,-2.44179" fill="#f79eb4" stroke="#f89db5" stroke-width="0" stroke-linecap="butt" stroke-linejoin="round"/><g fill="#ee1a40" stroke="none" stroke-width="1" stroke-linecap="round" stroke-linejoin="round"><path d="M251.14509,173.33831c-0.00943,-0.10264 -0.27673,-2.69765 -1.47127,-3.77512c-0.9415,-0.84924 -1.75611,-1.04821 -3.16071,-1.39322c-1.08322,-0.2661 -2.65326,0.27479 -2.68122,0.25364c-0.00201,-0.00152 3.4348,-2.26912 6.0048,0.02804c2.05435,1.87808 2.00951,4.72121 1.97346,4.86646"/><path d=""/></g><path d="M250.44925,174.23621c-0.02851,-0.00651 1.03381,1.18172 1.58222,1.63532c0.54841,0.45361 0.46443,0.43042 1.01113,0.82168c0.5467,0.39125 2.05102,0.53675 2.04234,0.523c-0.01242,-0.01977 -2.20993,0.4579 -3.30384,0.03031c-1.09391,-0.42759 -2.0718,-2.13766 -2.10932,-2.14621" fill="#f79eb4" stroke="#f89db5" stroke-width="0" stroke-linecap="butt" stroke-linejoin="round"/><path d="M249.89647,173.59272c0.07098,-0.04413 1.66203,-0.21853 2.03468,-0.15362c0.37266,0.0649 0.93613,-0.45358 1.3339,0.00272c1.2646,0.45935 2.97664,0.18534 2.97664,0.18534c0,0 -2.37094,1.62838 -2.94352,1.12648c-0.79439,-0.69631 -2.71573,-0.47894 -2.84556,-0.50924" fill="#f79eb4" stroke="#f89db5" stroke-width="0" stroke-linecap="butt" stroke-linejoin="round"/><g stroke="none" stroke-width="1" stroke-linecap="round" stroke-linejoin="round"><g fill="#f79eb4"><path d="M245.96816,168.29592c0.26847,-0.23912 0.65348,-0.7515 1.18408,-1.17088c0.53058,-0.41939 1.24895,-0.90916 1.4617,-0.92041c0.27814,-0.01473 0.57782,0.72513 0.76945,1.56931c0.19161,0.8442 0.18104,2.08255 0.08869,2.21136"/></g><g fill="#ffd5c5"><path d="M246.65623,168.47743c0.06027,-0.06065 0.29826,-0.39451 0.68283,-0.71484c0.38456,-0.32035 1.02046,-0.73108 1.05308,-0.73117c0.13223,-0.0004 0.43656,0.84913 0.5337,1.31132c0.09714,0.4622 0.06046,1.02992 -0.00434,1.20745"/></g></g><g fill="#f79eb4" stroke="none" stroke-width="1" stroke-linecap="round" stroke-linejoin="round"><path d="M252.03721,172.38724c0.25158,0.17759 0.49957,0.38091 0.94506,0.87573c0.44549,0.49481 1.00767,1.10379 1.04807,1.33805c0.00826,0.04799 -0.42672,0.53757 -0.87513,0.77952c-0.69994,0.37767 -1.63641,0.5263 -1.65177,0.52753"/><path d=""/></g><path d="M246.69017,175.04248c-0.22211,0.69989 -0.09184,0.84992 0.01558,1.01537c0.18428,0.28383 0.65638,0.39722 1.11942,0.39501c0.66201,-0.00315 0.66802,0.32601 0.94822,0.67707c0.04246,0.05319 0.37189,0.00671 -0.17741,0.24022c-1.16493,0.49517 -2.35255,0.37637 -2.44721,0.2643c-0.3782,-0.44777 0.14806,-0.641 -0.63248,-1.53764c-0.44457,-0.51071 -1.97366,-1.2676 -2.22414,-1.90095c-0.32032,-1.36452 0.32372,-2.28156 0.82639,-2.79585c1.51053,-1.54544 1.88532,-0.07456 2.11953,0.3067c0.62171,2.66217 0.27215,2.65096 0.45212,3.33574z" fill="#ffffff" stroke="none" stroke-width="0" stroke-linecap="butt" stroke-linejoin="miter"/><path d="M249.56217,175.10611c-0.00169,-0.05034 0.35961,0.73736 0.55045,1.24962c0.19083,0.51226 0.48104,0.88856 0.95414,1.40577c0.4731,0.51721 1.37966,1.14716 1.38155,1.14772c0.04097,0.01216 -1.94112,-0.35055 -2.65157,-0.984c-0.71045,-0.63345 -0.9587,-2.09662 -0.96336,-2.23917" fill="#f79eb4" stroke="#f89db5" stroke-width="0" stroke-linecap="butt" stroke-linejoin="round"/><g fill="#000000" stroke="#000000" stroke-width="0.125" stroke-linecap="butt" stroke-linejoin="round"><path d="M245.12938,170.79265c-0.04341,0.00299 -0.14813,-0.10964 -0.19943,-0.31155c-0.32945,-1.29631 -0.12526,-1.65455 -0.12526,-1.65455c0,0 -0.14913,0.64678 0.20446,1.47235c0.06886,0.16077 0.19116,0.35141 0.22337,0.38827c0.03073,0.03514 0.08342,0.04521 0.09963,0.09524"/><path d="M244.87803,170.73821c0,0 -0.05639,-0.00216 -0.17122,-0.07894c-0.21294,-0.14236 -0.59262,-0.63253 -0.73618,-0.88497c-0.3423,-0.60196 -0.39932,-1.04472 -0.39932,-1.04472c0,0 0.30259,0.74705 0.42328,0.96525c0.36755,0.6559 0.89464,0.86449 0.97325,0.88657c0.03464,0.00975 0.11857,0.02122 0.14238,0.04538"/></g><g stroke="none" stroke-linecap="butt" stroke-linejoin="miter"><path d="M246.49223,173.4171c0.13174,0.19232 -0.24342,0.67839 -0.83794,1.08562c-0.59453,0.40722 -1.18329,0.5814 -1.31504,0.38907c-0.13174,-0.19233 0.24342,-0.67838 0.83794,-1.08561c0.59453,-0.40723 1.18329,-0.58141 1.31504,-0.38908z" fill="#169c5b" stroke-width="NaN"/><path d="M245.73598,173.94287c0.0579,0.08451 -0.09651,0.29091 -0.34482,0.461c-0.24832,0.17009 -0.49656,0.23948 -0.55445,0.15495c-0.0579,-0.08452 0.09651,-0.29091 0.34482,-0.461c0.24831,-0.17009 0.49656,-0.23948 0.55445,-0.15495z" fill="#000000" stroke-width="0"/><path d="M245.78955,173.77436c0.25124,-0.17208 0.51153,-0.22889 0.58141,-0.12688c0.06986,0.10201 -0.07716,0.3242 -0.32841,0.49629c-0.25125,0.17209 -0.51154,0.2289 -0.58142,0.12689c-0.06987,-0.102 0.07715,-0.32418 0.3284,-0.49627z" fill="#ffffff" stroke-width="0"/></g><g stroke="none" stroke-linecap="butt" stroke-linejoin="miter"><path d="M246.90173,176.79588c0.41935,-0.28723 0.8346,-0.4101 0.92754,-0.27442c0.09293,0.13567 -0.1717,0.47849 -0.59103,0.76573c-0.41935,0.28724 -0.83461,0.41011 -0.92755,0.27443c-0.09293,-0.13567 0.1717,-0.47848 0.59103,-0.76572z" fill="#169c5b" stroke-width="NaN"/><path d="M246.90478,177.00156c0.17514,-0.11997 0.35022,-0.1689 0.39105,-0.10928c0.04085,0.05963 -0.06802,0.2052 -0.24319,0.32517c-0.17515,0.11997 -0.35024,0.16891 -0.39107,0.10929c-0.04083,-0.05963 0.06804,-0.20519 0.24321,-0.32516z" fill="#000000" stroke-width="0"/><path d="M247.33363,176.77348c0.17721,-0.12136 0.36083,-0.16147 0.4101,-0.08951c0.04929,0.07194 -0.05443,0.22865 -0.23164,0.35004c-0.17721,0.12136 -0.36082,0.16145 -0.41009,0.08949c-0.04926,-0.07194 0.05442,-0.22864 0.23163,-0.35003z" fill="#ffffff" stroke-width="0"/></g></g><path d="M241.96725,173.97608c0,0 0.14623,0.07229 0.33583,0.32693c0.18959,0.25464 0.44856,0.67341 0.44856,0.67341" data-paper-data="{&quot;index&quot;:null}" fill="none" stroke="#000000" stroke-width="0.125" stroke-linecap="round" stroke-linejoin="miter"/></g></g></svg>