<svg version="1.1" xmlns="http://www.w3.org/2000/svg" xmlns:xlink="http://www.w3.org/1999/xlink" width="24.01278" height="23.62502" viewBox="0,0,24.01278,23.62502"><g transform="translate(-224.49592,-163.36273)"><g data-paper-data="{&quot;isPaintingLayer&quot;:true}" fill-rule="nonzero" stroke-linejoin="miter" stroke-miterlimit="10" stroke-dasharray="" stroke-dashoffset="0" style="mix-blend-mode: normal"><path d="M234.9516,182.65016c-0.37493,-0.45008 -0.75132,-0.98205 -0.94051,-1.97536c-0.36121,-1.89647 -0.1346,-2.17333 -0.1346,-2.17333c-0.09945,-0.91208 -1.0241,-2.28005 -1.40149,-4.07291c-0.37738,-1.79284 -0.58555,-3.45409 -0.22635,-3.74415c0.3411,-0.27546 2.55364,0.35443 3.96939,1.31334c1.16267,0.7875 2.15481,1.7839 2.21425,1.85687c0.17801,0.21854 0.79119,0.18836 1.35634,0.1984c0.56514,0.01004 1.18257,0.15831 1.4282,0.01355c0.17821,-0.10502 0.87718,-1.1163 1.70514,-1.71878c1.42175,-1.03459 3.31523,-1.80574 3.51385,-1.51659c0.18284,0.26614 -0.07638,1.73501 -0.51039,2.88894c-0.23442,0.62324 -0.6462,1.82373 -0.81732,2.26541c-0.3077,0.70515 0.12149,0.63567 0.19792,2.01635c0.12548,2.26717 0.17258,4.11215 -0.85978,5.66263c-0.84482,1.26799 -3.26787,0.58286 -4.63795,0.23617c-1.85531,-0.46975 -3.52849,0.34382 -4.8567,-1.25053z" data-paper-data="{&quot;index&quot;:null}" fill="#f8b820" stroke="none" stroke-width="1" stroke-linecap="round"/><path d="M243.13958,178.99535c0.02348,-0.37665 -0.00347,-1.02248 0.26093,-1.10241c0.26962,-0.079 0.66795,0.3592 0.82624,0.689c0.26701,0.55489 0.45748,1.20347 0.47836,1.83735c-0.02087,0.97563 -0.06436,2.01924 -0.47836,2.89382c-0.13481,0.28479 -0.69751,0.2526 -0.86972,-0.04506c-0.28092,-0.48782 -0.17656,-1.36879 -0.21743,-1.93009c-0.05741,-0.7772 -0.04697,-1.58103 0,-2.34261z" data-paper-data="{&quot;index&quot;:null}" fill="#ffffff" stroke="none" stroke-width="1" stroke-linecap="round"/><path d="M238.63,178.91343c0.24443,-0.48548 0.60457,-1.06886 1.11099,-1.14878c0.45272,-0.07192 0.9499,0.31067 1.20357,0.69926c0.37866,0.68826 0.50458,1.53237 0.55549,2.29755c0.05834,0.86807 0.10832,2.0825 -0.27774,2.8387c-0.22405,0.43854 -0.83602,0.33095 -1.29616,0.30796c-0.51754,-0.02598 -1.44694,0.11268 -1.71451,-0.3768c-0.37403,-0.70225 -0.11572,-1.87868 -0.04514,-2.6578c0.07058,-0.77912 0.16815,-1.37371 0.46349,-1.96008z" data-paper-data="{&quot;index&quot;:null}" fill="#ffffff" stroke="none" stroke-width="1" stroke-linecap="round"/><path d="M243.95009,177.01082l2.61037,-0.04591l1.94824,2.05319l-2.01143,-1.1858l-2.58778,-0.24959z" data-paper-data="{&quot;index&quot;:null}" fill="#f8b820" stroke="none" stroke-width="1.22222" stroke-linecap="round"/><path d="M234.93212,183.03148c-0.22141,-0.57077 -2.52577,-0.96755 -2.52577,-0.96755c0,0 1.70158,-0.40309 3.37698,0.06054c1.28463,0.3555 1.28201,0.72031 2.19568,1.12948c0.27794,0.12447 1.41757,0.36111 1.865,0.4729c1.0084,0.2515 2.12333,-0.43396 3.19566,-0.49314c0.31523,-0.01765 0.75748,0.26872 1.12254,0.19726c0.66545,-0.13026 0.76555,-0.56791 1.44344,-0.5521c0.38425,0.00896 0.67455,0.11599 0.67455,0.11599c0,0 -0.3801,0.15718 -0.60904,0.32889c-0.22895,0.17172 -0.48508,0.54994 -0.48508,0.54994c0,0 0.46108,0.02354 0.67805,0.09543c0.25681,0.08509 0.76352,0.38221 0.76352,0.38221c0,0 -0.60994,0.01966 -0.85712,0.13029c-0.2394,0.10715 -0.68101,0.26464 -0.68101,0.26464c0,0 0.37541,0.12329 0.6989,0.33291c0.32349,0.20963 0.57062,0.84772 0.57062,0.84772c0,0 -0.74742,-0.37064 -0.98724,-0.405c-0.23982,-0.03437 -0.32096,0.12036 -0.49097,0.12648c-0.04853,0.00175 0.12621,0.25527 0.27753,0.543c0.15132,0.28774 0.24436,0.79639 0.24436,0.79639c0,0 -0.65085,-0.60976 -0.90973,-0.71983c-0.23473,-0.09981 -0.54715,-0.22336 -0.54715,-0.22336c0,0 -1.77874,0.5464 -2.41521,0.64107c-0.35485,0.06981 -1.00052,0.1389 -1.69502,0.10731c-0.83609,-0.03803 -1.74293,-0.19584 -2.29822,-0.32856c-1.01655,-0.24296 -0.86768,-0.30364 -1.64636,-0.68995c-0.07962,-0.0395 -0.49798,-0.23573 -1.009,0.01519c-0.51101,0.25093 -1.1645,0.80477 -1.1645,0.80477c0,0 0.94139,-1.47692 0.79885,-1.50552c-0.0928,-0.01863 -0.3168,-0.12223 -0.8069,-0.02459c-0.49009,0.09764 -1.20757,0.42593 -1.20757,0.42593c0,0 0.4934,-0.79992 0.92753,-1.02544c0.43411,-0.22551 0.9696,-0.32257 0.9696,-0.32257c0,0 -0.20515,-0.17496 -0.77796,-0.36811c-0.57281,-0.19313 -1.52262,-0.28446 -1.52262,-0.28446c0,0 0.77992,-0.43343 1.36147,-0.52746c0.58156,-0.09404 1.4903,0.26136 1.47221,0.06927z" data-paper-data="{&quot;index&quot;:null}" fill="#f8b820" stroke="none" stroke-width="1" stroke-linecap="round"/><path d="M239.50386,179.48516c0.14934,0 0.28396,0.14656 0.38228,0.38317c0.0973,0.23769 0.15822,0.56434 0.15822,0.92551c0,0.36117 -0.06091,0.68783 -0.15822,0.92552c-0.09833,0.23661 -0.23295,0.38317 -0.38228,0.38317c-0.14943,0 -0.28404,-0.14656 -0.38236,-0.38317c-0.09721,-0.23769 -0.15823,-0.56435 -0.15823,-0.92552c0,-0.36117 0.06101,-0.68782 0.15823,-0.92551c0.09833,-0.23661 0.23293,-0.38317 0.38236,-0.38317z" data-paper-data="{&quot;index&quot;:null}" fill="#f8b820" stroke="none" stroke-width="1.0615" stroke-linecap="butt"/><path d="M243.62022,176.44783c0,0 1.96143,-1.42695 2.23604,-1.45628c0.39144,-0.04181 2.5388,1.19343 2.5388,1.19343l-2.58401,-0.27598l-1.76204,1.11108z" data-paper-data="{&quot;index&quot;:null}" fill="#f8b820" stroke="none" stroke-width="1.22222" stroke-linecap="round"/><path d="M244.55691,173.55592c0.45389,-0.35318 3.51394,-0.73723 3.51394,-0.73723c0,0 -2.63311,1.23447 -3.31467,1.75369c-0.68155,0.51922 -0.47447,-0.80231 -0.19925,-1.01645z" data-paper-data="{&quot;index&quot;:null}" fill="#f8b820" stroke="none" stroke-width="1.22222" stroke-linecap="round"/><path d="M243.75332,179.27894c0.14934,0 0.28395,0.14656 0.38228,0.38317c0.0973,0.23769 0.15822,0.56435 0.15822,0.92552c0,0.36117 -0.06091,0.68782 -0.15822,0.92552c-0.09833,0.23661 -0.23294,0.38317 -0.38228,0.38317c-0.14943,0 -0.28404,-0.14656 -0.38237,-0.38317c-0.09721,-0.23769 -0.15822,-0.56435 -0.15822,-0.92552c0,-0.36117 0.061,-0.68782 0.15822,-0.92552c0.09833,-0.23661 0.23294,-0.38317 0.38237,-0.38317z" data-paper-data="{&quot;index&quot;:null}" fill="#f8b820" stroke="none" stroke-width="1.0615" stroke-linecap="butt"/><path d="M235.4958,170.5432c0.56803,-0.90182 -0.89624,0.53291 -2.09277,0.14611c-0.26897,-0.08695 2.73886,-2.00282 3.01133,-0.41233c-0.56803,0.90182 1.93048,1.14828 2.67698,1.16837c0.37914,0.0102 0.66145,0.15475 0.72184,0.69115c0.07823,0.69482 -0.98143,1.51231 -1.15892,1.46428c-0.73872,-0.24572 0.50817,-1.23272 -0.0806,-1.67822c-0.58876,-0.44551 -2.34849,-0.25088 -2.62835,-0.3716c-0.41233,-0.17785 -0.66973,-0.65817 -0.44952,-1.00776z" data-paper-data="{&quot;index&quot;:null}" fill="#f2a948" stroke="#f7d665" stroke-width="0.25" stroke-linecap="butt"/><path d="M231.33391,172.68468c0.34314,1.20977 -1.14376,2.62102 -0.22193,2.08608c0.35735,-0.20737 0.82801,0.06728 0.99079,0.48579c0.11048,0.28405 -0.14786,2.03557 0.276,2.6401c0.42386,0.60453 1.45543,-0.60572 1.6742,0.14142c0.04155,0.1791 -0.81384,1.20842 -1.50536,1.10504c-0.53386,-0.0798 -0.66807,-0.36718 -0.66451,-0.74644c0.00701,-0.74675 -0.14866,-3.25254 -1.07049,-2.71759c-1.57956,-0.32999 0.44416,-3.26635 0.52129,-2.99439z" data-paper-data="{&quot;index&quot;:null}" fill="#f2a948" stroke="#f7d665" stroke-width="0.25" stroke-linecap="butt"/><path d="M225.2285,165.26245l1.22202,-1.20436l1.6921,-0.69536l0.02327,0.54993l1.98883,2.06233l-0.37893,1.26371l-1.42032,1.38195l-1.32198,0.36433l-1.96816,-2.04089l-0.5694,-0.06464z" data-paper-data="{&quot;index&quot;:null}" fill="#272727" stroke="none" stroke-width="0" stroke-linecap="butt"/><path d="M230.5422,166.94108c0.20324,0.21104 -0.117,1.07845 -0.117,1.07845l1.05269,1.96357l-0.64338,0.59878l-1.87239,-1.19867c0,0 -0.79575,0.22378 -0.98455,0.02774c-0.1663,-0.17267 -0.49117,-0.70057 -0.49117,-0.70057c0,0 0.86945,-0.80446 1.20353,-1.12619c0.38721,-0.3729 1.22294,-1.16396 1.22294,-1.16396c0,0 0.48667,0.37271 0.62934,0.52087z" data-paper-data="{&quot;index&quot;:null}" fill="#f2a948" stroke="#f7d665" stroke-width="0.25" stroke-linecap="butt"/><path d="M230.8136,171.46967c-0.09546,-0.09898 -0.07101,-0.77422 0.36081,-1.19064c0.43182,-0.41644 1.12708,-0.39606 1.20295,-0.31738c0.07587,0.07868 0.07101,0.77422 -0.36081,1.19064c-0.43182,0.41644 -1.12708,0.39606 -1.20295,0.31738z" data-paper-data="{&quot;index&quot;:null}" fill="#f2a948" stroke="#f7d665" stroke-width="0.25" stroke-linecap="butt"/><path d="M238.70802,173.70847c0,0 -1.45378,1.2508 -2.28568,2.02056c-0.83189,0.76975 -2.24723,2.17376 -2.24723,2.17376c0,0 -4.43847,-4.73327 -2.11111,-6.82386c2.32752,-2.09074 6.64402,2.62954 6.64402,2.62954z" data-paper-data="{&quot;index&quot;:null}" fill="#f2a948" stroke="#f7d665" stroke-width="0.25" stroke-linecap="butt"/></g></g></svg>