<svg version="1.1" xmlns="http://www.w3.org/2000/svg" xmlns:xlink="http://www.w3.org/1999/xlink" width="42.21462" height="25.74452" viewBox="0,0,42.21462,25.74452"><g transform="translate(-216.8599,-167.87401)"><g data-paper-data="{&quot;isPaintingLayer&quot;:true}" fill-rule="nonzero" stroke-linejoin="miter" stroke-miterlimit="10" stroke-dasharray="" stroke-dashoffset="0" style="mix-blend-mode: normal"><path d="M244.50366,183.82385l0.5801,1.62376c0,0 0.03352,0.78943 -0.396,1.01722c-0.42951,0.22778 -1.23655,-0.15141 -1.23655,-0.15141l-1.01207,-2.98738c0,0 1.63265,-1.30128 3.1157,-1.39101c0.71121,-0.04302 1.01785,-0.61378 1.50926,-0.2124c0.38638,0.31558 0.06625,1.03134 0.21862,1.06197c0.58303,0.11719 -2.77907,1.03923 -2.77907,1.03923z" data-paper-data="{&quot;index&quot;:null}" fill="#cc0000" stroke="none" stroke-width="0" stroke-linecap="butt"/><path d="M245.42583,185.03828c0.61111,0.20628 1.33248,1.55842 1.33248,1.55842c0,0 0.15659,1.33289 -0.69023,2.00051c-0.84681,0.66761 -2.14135,0.69467 -2.70215,-0.01667c-0.19934,-0.25286 -0.62568,-1.04157 -0.50121,-1.73946c0.12447,-0.69789 0.52084,-0.85261 1.02709,-1.20898c0.50625,-0.35636 0.9229,-0.80012 1.534,-0.59384z" data-paper-data="{&quot;index&quot;:null}" fill="#c3b0b0" stroke="none" stroke-width="0" stroke-linecap="butt"/><path d="M248.68091,186.02958c0.49328,0.20775 0.53649,0.7631 1.01393,1.28863c0.43634,0.4803 1.09303,1.25744 0.93114,1.64183c-0.06896,0.16373 -0.25293,0.25088 -0.1629,0.71969c0.06281,0.3271 0.80479,1.48921 0.74003,1.56643c-0.22437,0.26758 -2.78251,0.75838 -2.99776,0.97777c-0.57064,0.58161 -0.51298,1.62176 -1.22067,1.35025c-3.48319,-1.33631 -4.14864,-4.66477 -3.54533,-5.26076c0.26247,-0.85531 1.54872,-0.70925 1.88775,-1.51423c0.33903,-0.80497 2.40968,-1.16729 3.35378,-0.76965z" data-paper-data="{&quot;index&quot;:null}" fill="#c3b0b0" stroke="none" stroke-width="0" stroke-linecap="butt"/><path d="M246.87506,191.28738c0,0 0.13537,-0.4299 0.25707,-0.85391c0.12171,-0.42401 -0.27363,-1.25042 -0.27363,-1.25042c0,0 2.11055,0.87147 2.45049,0.53956c0.53596,-0.52331 0.58149,-1.78583 0.58149,-1.78583" data-paper-data="{&quot;index&quot;:null}" fill="none" stroke="#685c5c" stroke-width="0.5" stroke-linecap="round"/><path d="M249.96214,179.58847c0,0 0.38834,-3.62273 1.35799,-3.97503c0.96965,-0.3523 0.31787,3.70063 0.31787,3.70063z" data-paper-data="{&quot;index&quot;:null}" fill="#ffffff" stroke="none" stroke-width="0" stroke-linecap="butt"/><g data-paper-data="{&quot;index&quot;:null}" stroke="none" stroke-width="0" stroke-linecap="butt"><path d="M250.60503,178.62471c0.05813,-0.20472 0.29681,-0.48574 0.50713,-0.8022c0.27553,-0.41458 0.53182,-0.831 0.56657,-0.62247c0.10429,0.62592 -0.04711,1.84486 -0.39403,1.90266c-0.34692,0.0578 -0.77394,-0.14592 -0.67967,-0.47798z" fill="#7c5cbb"/><path d="M251.17849,178.77803c-0.20558,0.03425 -0.30465,-0.00931 -0.3389,-0.21489c-0.03425,-0.20558 0.05695,-0.44767 0.26253,-0.48193c0.20558,-0.03425 0.35234,0.05697 0.38659,0.26255c0.03425,0.20558 -0.10464,0.40001 -0.31022,0.43426z" fill="#000000"/><path d="M251.02404,178.15301c-0.20558,0.03425 0.13107,-0.5469 0.33665,-0.58116c0.20558,-0.03425 0.10913,0.05453 0.14338,0.26011c0.03425,0.20558 -0.10463,0.40001 -0.31021,0.43426z" fill="#ffffff"/></g><path d="M233.71494,188.3036c-0.54345,1.35387 -2.53594,2.19178 -3.89641,1.63113c-0.90649,-0.37356 -1.82195,-1.89802 -1.63918,-2.20654c0.54346,-1.35387 2.70758,-4.58941 3.63056,-4.25466c0.923,0.33471 1.90502,4.83008 1.90502,4.83008z" data-paper-data="{&quot;index&quot;:null}" fill="#ff1c00" stroke="none" stroke-width="0" stroke-linecap="butt"/><path d="M232.51932,182.64412c-0.18609,-0.38403 1.53113,-2.03815 1.55174,-2.06135c0.81851,-0.92058 1.03341,-1.37458 1.58569,-1.43296c1.51456,-0.16007 3.42213,2.34189 3.9169,3.36298c0.49478,1.02111 -1.49149,2.4646 -3.04433,2.65825c-1.55284,0.19366 -3.40243,-1.3955 -3.89721,-2.41659z" data-paper-data="{&quot;index&quot;:null}" fill="#ff1c00" stroke="none" stroke-width="0" stroke-linecap="butt"/><path d="M236.64695,185.01206c0.58167,1.20041 -1.00534,1.70899 -1.4326,1.93122c-0.22206,0.11551 -1.05895,0.3336 -2.03797,0.09226c-0.90468,-0.22301 -2.71051,-1.34695 -2.98989,-1.92346c-0.20837,-0.43003 2.03316,-2.70282 2.46042,-2.92508c0,0 3.41838,1.62464 4.00002,2.82505z" data-paper-data="{&quot;index&quot;:null}" fill="#ded000" stroke="none" stroke-width="0" stroke-linecap="butt"/><path d="M235.49085,179.19155c0.37376,-0.19016 -2.94688,2.97029 -4.83121,5.37433c-1.88433,2.40405 -2.30351,3.68335 -2.30351,3.68335c0,0 -0.39322,0.00304 -0.22668,-0.47509c0.33216,-0.95362 1.23348,-2.37032 1.84543,-3.19129c0.91876,-1.2326 4.91057,-5.28065 5.28432,-5.47081z" data-paper-data="{&quot;index&quot;:null}" fill="#646362" stroke="none" stroke-width="0" stroke-linecap="butt"/><path d="M237.12351,185.38196c0,0 -1.15313,1.37022 -1.72763,1.90207c-0.57453,0.53184 -1.31837,0.98981 -1.31837,0.98981c0,0 -0.64751,-0.10321 -0.91457,-0.20636c-0.26705,-0.10316 -0.36048,-0.95163 -0.36048,-0.95163c0,0 0.88362,-0.74856 1.37768,-1.22659c0.49407,-0.47803 2.69253,-1.95066 2.69253,-1.95066c0,0 0.20472,0.44244 0.2697,0.73068c0.06499,0.28822 -0.01885,0.71267 -0.01885,0.71267z" data-paper-data="{&quot;index&quot;:null}" fill="#e0e0de" stroke="none" stroke-width="0" stroke-linecap="butt"/><path d="M222.2508,188.53562c-0.85592,1.1814 -2.99224,1.51043 -4.17585,0.63621c-0.78865,-0.58249 -1.30657,-2.28361 -1.05435,-2.53851c0.85594,-1.1814 3.7409,-3.79463 4.555,-3.2458c0.8141,0.54881 0.67521,5.1481 0.67521,5.1481z" data-paper-data="{&quot;index&quot;:null}" fill="#ff1c00" stroke="none" stroke-width="0" stroke-linecap="butt"/><path d="M222.46514,182.75519c-0.08727,-0.41773 1.98019,-1.60538 2.00582,-1.62287c1.01754,-0.69427 1.33625,-1.08253 1.88616,-1.00506c1.50811,0.21247 2.75108,3.10273 2.98311,4.2134c0.23203,1.11069 -2.04528,2.0287 -3.59867,1.83951c-1.55339,-0.18919 -2.96176,-2.17988 -3.19381,-3.29056z" data-paper-data="{&quot;index&quot;:null}" fill="#ff1c00" stroke="none" stroke-width="0" stroke-linecap="butt"/><path d="M225.89428,186.0545c0.27279,1.30572 -1.39022,1.41374 -1.85866,1.52558c-0.24346,0.05814 -1.10826,0.06649 -1.99938,-0.40535c-0.82345,-0.436 -2.30234,-1.96479 -2.43337,-2.59188c-0.09772,-0.46776 2.62858,-2.12826 3.09703,-2.24012c0,0 2.9216,2.40604 3.19436,3.71176z" data-paper-data="{&quot;index&quot;:null}" fill="#ded000" stroke="none" stroke-width="0" stroke-linecap="butt"/><path d="M226.18606,180.12745c0.40873,-0.09372 -3.57991,2.16586 -5.99158,4.04044c-2.41167,1.87457 -3.12893,3.01381 -3.12893,3.01381c0,0 -0.38219,-0.09251 -0.10454,-0.51591c0.55377,-0.84444 1.7721,-1.99989 2.56508,-2.6477c1.19056,-0.97263 6.04581,-3.93028 6.45456,-4.024z" data-paper-data="{&quot;index&quot;:null}" fill="#646362" stroke="none" stroke-width="0" stroke-linecap="butt"/><path d="M226.18474,186.67723c0,0 -1.45132,1.04922 -2.13777,1.42565c-0.68648,0.37643 -1.51925,0.64007 -1.51925,0.64007c0,0 -0.60307,-0.25734 -0.83709,-0.42225c-0.23401,-0.16491 -0.11863,-1.01068 -0.11863,-1.01068c0,0 1.03894,-0.51161 1.63429,-0.85537c0.59535,-0.34375 3.0856,-1.23851 3.0856,-1.23851c0,0 0.09117,0.4789 0.08421,0.7743c-0.00694,0.29538 -0.19133,0.68676 -0.19133,0.68676z" data-paper-data="{&quot;index&quot;:null}" fill="#e0e0de" stroke="none" stroke-width="0" stroke-linecap="butt"/><path d="M229.0309,180.83127c1.00201,0 1.8143,1.07163 1.8143,2.39358c0,1.32195 -0.81229,2.39358 -1.8143,2.39358c-1.00201,0 -1.8143,-1.07163 -1.8143,-2.39358c0,-1.32195 0.81229,-2.39358 1.8143,-2.39358z" data-paper-data="{&quot;index&quot;:null}" fill="#53b761" stroke="none" stroke-width="0" stroke-linecap="butt"/><path d="M231.66265,180.26082c0,0 5.10092,0.02908 7.81794,0.28712c1.88222,0.17875 7.85988,2.45223 7.85988,2.45223c0,0 -1.60189,1.03637 -3.50077,1.14224c-1.95319,0.1089 -4.49435,0.00802 -5.0963,0.1528c-1.18716,0.28552 -7.08075,-4.03439 -7.08075,-4.03439z" data-paper-data="{&quot;index&quot;:null}" fill="#ff3300" stroke="none" stroke-width="0" stroke-linecap="butt"/><path d="M242.90429,181.87483c0,0 4.19236,2.53996 4.11225,3.243c-0.10317,0.90544 0.18063,1.12073 0.18063,1.12073l-5.29052,-2.7049z" data-paper-data="{&quot;index&quot;:null}" fill="#ff3300" stroke="none" stroke-width="0" stroke-linecap="butt"/><path d="M251.65412,177.22637c-0.70712,1.14388 -1.21873,1.69759 -1.74181,1.93128c-0.55835,0.24944 -1.85363,-0.17125 -2.42382,-0.07625c-0.01597,0.00265 -1.9416,2.29816 -3.91533,2.8199c-0.93246,0.24649 -2.77106,-1.05415 -2.77106,-1.05415c0,0 -3.03717,0.09287 -5.4459,0.51763c-2.40873,0.42476 -5.90639,0.7938 -5.90639,0.7938l1.49512,-3.78311l-4.91454,0.16024c0,0 1.11898,-1.56279 2.03374,-2.36671c0.91475,-0.80392 3.1767,-2.21239 3.1767,-2.21239l-5.60181,0.04053c0,0 1.81311,-1.91845 3.28403,-2.64521c1.47092,-0.72676 5.27684,-1.5846 5.27684,-1.5846l-1.74163,-1.68512l5.98345,-0.20767c0,0 4.21328,-0.06747 7.23942,1.32053c3.02615,1.388 4.11719,3.30107 5.1615,4.74493c1.19853,1.65708 1.42243,2.29805 0.81148,3.28638z" data-paper-data="{&quot;index&quot;:null}" fill="#ff3300" stroke="none" stroke-width="0" stroke-linecap="butt"/><path d="M252.99438,173.78729z" data-paper-data="{&quot;index&quot;:null}" fill="#030000" stroke="none" stroke-width="0" stroke-linecap="butt"/><path d="M249.96213,179.28658c0,0 -0.84638,0.1941 -2.21,0.53234c-1.07094,0.26564 -1.6474,0.09354 -2.08877,0.06955c-0.49417,-0.02687 -1.56865,-1.2964 -1.84516,-2.02623c-0.31291,-0.82596 -0.20891,-1.92617 -0.20891,-1.92617c0,0 1.84575,0.6806 2.98458,1.2704c1.98707,1.02911 3.36827,2.0801 3.36827,2.0801z" data-paper-data="{&quot;index&quot;:null}" fill="#ffffff" stroke="none" stroke-width="0" stroke-linecap="butt"/><g data-paper-data="{&quot;index&quot;:null}" stroke="none" stroke-width="0" stroke-linecap="butt"><path d="M248.11403,179.47593c-0.35146,0.01302 -0.65541,-0.49047 -0.67891,-1.12458c-0.02349,-0.63412 -0.00764,-0.53371 0.34383,-0.54673c0.35147,-0.01303 0.84292,0.11546 0.86642,0.74957c0.02349,0.63412 -0.17987,0.90872 -0.53133,0.92175z" fill="#7c5cbb"/><path d="M248.11862,178.96326c-0.20827,0.00772 -0.38336,-0.15487 -0.39107,-0.36314c-0.00772,-0.20827 0.15485,-0.38336 0.36312,-0.39108c0.20827,-0.00772 0.38337,0.15486 0.39108,0.36313c0.00772,0.20827 -0.15487,0.38337 -0.36314,0.39109z" fill="#000000"/><path d="M248.19923,178.45759c-0.20827,0.00772 -0.38336,-0.15486 -0.39108,-0.36313c-0.00772,-0.20827 -0.03264,-0.13336 0.17563,-0.14108c0.20827,-0.00772 0.38336,0.09236 0.39108,0.30063c0.00772,0.20827 0.03264,0.19587 -0.17563,0.20359z" fill="#ffffff"/></g><path d="M249.56236,182.56088c-1.62033,0.29218 -4.30621,0.49797 -6.23118,-0.4157c-1.41028,-0.61592 -1.61326,-2.28043 1.69206,-2.76214c0.69418,-0.10117 0.73997,0.35479 2.68638,0.2558c0.94693,-0.04815 1.06255,-0.97171 2.38555,-0.85122c1.323,0.12049 3.22728,0.5504 3.13613,1.2668c-0.12322,0.96846 -1.52044,1.94185 -3.66895,2.50646z" data-paper-data="{&quot;index&quot;:null}" fill="#ffbe7e" stroke="none" stroke-width="0" stroke-linecap="butt"/><path d="M243.68352,181.15022c0,0 0.38363,-0.20871 0.89261,-0.23645c0.50898,-0.02773 1.3009,0.11691 1.3009,0.11691" data-paper-data="{&quot;index&quot;:null}" fill="none" stroke="#000000" stroke-width="0.5" stroke-linecap="round"/><path d="M254.39,179.64051c0.05229,0.31387 -1.35143,0.88231 -1.35143,0.88231c0,0 -0.45752,-0.51757 -0.38382,-0.82757c0.0737,-0.31002 0.21479,-0.24672 0.21479,-0.24672z" data-paper-data="{&quot;index&quot;:null}" fill="#030000" stroke="none" stroke-width="0" stroke-linecap="butt"/><path d="M229.11029,184.13053c0,0 -0.64692,-0.57684 -0.64692,-1.06221c0,-0.48537 0.64692,-1.32548 0.64692,-1.32548h8.64511v2.38769z" data-paper-data="{&quot;index&quot;:null}" fill="#ff3200" stroke="none" stroke-width="0" stroke-linecap="butt"/><path d="M247.92531,183.55347c0.7843,-0.20478 2.47479,0.71817 2.47479,0.71817c0,0 1.08387,1.29229 0.65472,2.57775c-0.42918,1.28548 -1.77048,2.2068 -2.8503,1.8463c-0.38381,-0.12814 -1.37576,-0.66268 -1.72634,-1.48171c-0.35059,-0.81901 -0.0409,-1.25498 0.24515,-1.97855c0.28607,-0.72357 0.41768,-1.47714 1.202,-1.68193z" data-paper-data="{&quot;index&quot;:null}" fill="#e8e6e6" stroke="none" stroke-width="0" stroke-linecap="butt"/><path d="M253.52678,182.73545c0.6615,-0.12196 1.08997,0.43166 1.95402,0.65444c0.78971,0.20363 2.91156,0.76301 3.0066,1.27849c0.04048,0.21957 -0.52733,0.84502 -0.1094,1.27543c0.29161,0.3003 0.7109,0.9313 0.69614,1.05708c-0.05116,0.43588 -1.73381,2.35232 -1.80862,2.73124c-0.19834,1.0046 -0.30631,1.86964 -1.23704,2.07251c-4.58107,0.99862 -5.9968,-3.13496 -6.43306,-3.05454c-1.26613,0.23345 1.13782,-1.81332 0.93878,-2.89284c-0.19903,-1.07952 1.72642,-2.88837 2.99253,-3.12183z" data-paper-data="{&quot;index&quot;:null}" fill="#e8e6e6" stroke="none" stroke-width="0" stroke-linecap="butt"/><path d="M256.60746,186.52326c0.63343,0.22028 1.27812,1.39987 1.27812,1.39987c0,0 -1.28284,0.6555 -1.91627,0.43525c-0.63343,-0.22027 -1.00409,-0.80962 -0.82788,-1.31639c0.17621,-0.50673 0.83257,-0.73899 1.46601,-0.51871z" data-paper-data="{&quot;index&quot;:null}" fill="#e8e6e6" stroke="#999797" stroke-width="0.5" stroke-linecap="butt"/><path d="M255.07698,189.36621c0.55237,0.38032 0.86128,1.68861 0.86128,1.68861c0,0 -1.41073,0.29195 -1.9631,-0.08839c-0.55238,-0.38031 -0.75352,-1.04686 -0.44925,-1.48875c0.30425,-0.4419 0.99869,-0.49181 1.55105,-0.1115z" data-paper-data="{&quot;index&quot;:null}" fill="#e8e6e6" stroke="#999797" stroke-width="0.5" stroke-linecap="butt"/></g></g></svg>