<svg version="1.1" xmlns="http://www.w3.org/2000/svg" xmlns:xlink="http://www.w3.org/1999/xlink" width="38" height="31.61911" viewBox="0,0,38,31.61911"><g transform="translate(-225.30893,-163.30538)"><g data-paper-data="{&quot;isPaintingLayer&quot;:true}" fill-rule="nonzero" stroke-linejoin="miter" stroke-miterlimit="10" stroke-dasharray="" stroke-dashoffset="0" style="mix-blend-mode: normal"><path d="M236.02944,185.98564c0.20764,-0.45915 0.32528,-1.02501 0.50957,-1.44895c0.76398,-1.21505 0.99097,0.06414 1.08509,0.75861c0.07888,0.42326 -0.16217,0.88836 -0.33694,1.29388c-0.24556,0.56627 -0.40755,1.38519 -0.93415,1.64487c-0.43994,0.21094 -1.20212,0.01422 -1.27385,-0.46498c-0.0961,-0.64073 0.66999,-1.16224 0.95028,-1.78344z" data-paper-data="{&quot;index&quot;:null}" fill="#005613" stroke="none" stroke-width="0.65663" stroke-linecap="round"/><path d="M231.63235,191.20912c-0.22015,-0.45716 -0.4206,-0.48343 -0.23424,-0.85967c0.45942,-0.6913 1.13864,-0.45278 1.1145,-0.57124c-0.02412,-0.11711 -1.35182,0.99047 -1.67833,-0.03981c-0.18131,-0.49683 1.1976,-1.19162 1.7411,-1.60302c0.19943,-0.14097 0.51175,-0.25395 0.79765,-0.47743c0.2859,-0.22349 0.33252,-0.43194 0.61509,-0.62694c0.28257,-0.195 0.84851,-0.50671 0.98238,-0.47545c0.45325,0.15295 -0.01844,-0.11287 0.66506,0.30405c0.6835,0.41691 0.95924,0.62501 1.47845,1.06201c0.51921,0.43698 0.51135,0.19812 0.58856,0.52754c0.05473,0.23425 -0.38203,0.86013 -0.80865,1.15173c-0.42662,0.2916 -0.58413,0.68977 -0.84707,1.13116c-0.26294,0.44139 -0.31204,1.46818 -1.21673,2.16308c-0.51331,0.39483 -1.23447,0.09253 -1.9151,-0.33636c-0.57133,-0.36053 -0.99705,-0.82659 -1.28269,-1.34964z" fill="#a8c8d8" stroke="none" stroke-width="0.67216" stroke-linecap="round"/><g><path d="M247.77472,184.69731l0.82466,0.01376c0,0 1.35351,2.50016 1.77475,3.88319c0.3514,1.15373 0.60832,2.91586 0.62787,3.63715c0.03375,1.24539 -0.59016,1.03868 -0.59016,1.03868c0,0 0.01137,-3.26873 -0.34301,-4.54667c-0.25261,-0.91109 -2.29411,-4.02611 -2.29411,-4.02611z" fill="#989898" stroke="#989898" stroke-width="0" stroke-linecap="round"/><path d="M246.51199,186.53513c0.0971,-0.55386 0.16529,-0.98994 0.58141,-1.42688c0.59155,-0.62113 0.99177,-0.42724 1.30367,-0.00197c0.65627,0.8954 1.34038,2.6463 1.34038,2.6463l-2.97173,1.84899c0,0 -0.40135,-2.21726 -0.25373,-3.06645z" fill="#f82020" stroke="none" stroke-width="1.13968" stroke-linecap="round"/><path d="M249.68416,187.67807c0,0 0.16697,0.10572 0.42984,1.06462c0.26287,0.95889 0.48404,2.24997 0.55577,3.34357c0.02819,0.43851 0.11332,1.18619 -0.22983,1.24295c-0.58417,0.09672 -1.81287,-0.13732 -2.29527,-0.65722c-0.47933,-0.51698 -1.47084,-2.47589 -1.39049,-3.20748c0.15686,-1.30232 2.93,-1.78643 2.93,-1.78643z" fill="#f8f8f8" stroke="none" stroke-width="1.15102" stroke-linecap="round"/><path d="M244.69248,186.77156c-0.02418,-0.42791 -0.38169,-1.16494 0.05506,-1.63094c0.49611,-0.52934 0.92319,0.11856 0.92319,0.11856c0,0 0.14116,-0.62932 0.55204,-0.40734c0.39894,0.21553 0.4031,0.49792 0.45751,0.79936c0.09144,0.50652 -0.12822,1.37756 -0.11821,1.55457c0.05003,0.88514 0.37682,2.18821 -0.08752,2.21445c-0.12317,0.00696 -0.71663,-0.19807 -0.71663,-0.19807c0,0 -0.59247,0.52503 -0.80402,0.15608c-0.27444,-0.47863 -0.24066,-2.23941 -0.26141,-2.60667z" fill="#ffffff" stroke="none" stroke-width="0" stroke-linecap="butt"/></g><path d="M244.81471,186.54495c0.2319,0.451 0.0744,1.2097 -0.3455,1.4122c-0.6542,0.3237 -1.5113,0.1313 -2.1297,-0.1995c-0.3795,-0.1978 -0.5472,-0.6966 -0.5726,-1.1504c-0.0465,-0.8117 -0.0631,-1.7152 0.3326,-2.4196c0.1563,-0.2754 0.8034,-0.1828 1.004,0.0852c0.3591,0.4777 -0.0556,1.2983 0.3044,1.7794c0.3061,0.4074 1.1775,0.0537 1.4068,0.4927z" data-paper-data="{&quot;index&quot;:null}" fill="#e88820" stroke="none" stroke-width="0.49091" stroke-linecap="round"/><path d="M247.23175,187.2989c0.1699,1.37022 0.16407,2.16292 -0.18294,2.20594c-0.12648,0.01568 -0.09836,-0.7238 -0.26826,-2.09401c-0.1699,-1.37022 -0.19825,-2.43858 -0.07177,-2.45426c0.34701,-0.04303 0.35307,0.97212 0.52297,2.34234z" fill="#424242" stroke="none" stroke-width="0" stroke-linecap="butt"/><path d="M246.1394,175.14444c0,3.67923 -0.79915,6.36383 -1.15669,7.28335c-0.22267,0.57267 -0.30752,0.07576 -0.30752,0.07576c0,0 0.32063,-0.97151 0.32063,-6.9421c0,-2.00845 -2.15189,-4.30491 -2.3331,-5.04466c-0.19986,-0.81593 2.87875,-0.62371 2.87875,-0.62371c0,0 3.20894,-1.09532 3.11029,0.02077c-0.07905,0.89439 -2.51236,3.52196 -2.51236,5.2306z" data-paper-data="{&quot;index&quot;:null}" fill="#e2a026" stroke="none" stroke-width="0" stroke-linecap="butt"/><path d="M242.19393,175.35295c0,-1.70864 -1.66857,-4.05755 -1.76167,-4.95194c-0.11617,-1.11608 2.1755,-0.29943 2.1755,-0.29943c0,0 3.31872,-0.84244 3.08336,-0.02651c-0.21339,0.73975 -2.15048,3.68642 -2.15048,5.69487c0,5.9706 0.21456,6.84921 0.21456,6.84921c0,0 0.02724,0.49302 -0.26929,-0.21858c-0.40775,-0.9785 -1.29197,-3.5909 -1.29197,-7.04764z" fill="#e2a026" stroke="none" stroke-width="0" stroke-linecap="butt"/><path d="M263.30893,168.48395c0,2.86005 -8.50659,5.17857 -19,5.17857c-10.49341,0 -19,-2.31852 -19,-5.17857c0,-2.86005 8.50659,-5.17857 19,-5.17857c10.49341,0 19,2.31852 19,5.17857z" fill-opacity="0.90196" fill="#e3a127" stroke="none" stroke-width="0" stroke-linecap="butt"/><path d="M239.18261,172.89395c-0.0764,-0.02174 -1.53979,-0.34425 -2.4492,-0.85844c-1.43673,-0.81236 -2.53416,-1.94759 -2.53416,-1.94759c0,0 1.98008,1.07678 2.54163,1.26122c0.99934,0.32821 2.94072,0.53931 2.94072,0.53931c0,0 -1.70805,-0.24083 -2.49428,-0.54096c-0.66702,-0.25463 -1.92455,-1.14588 -1.92455,-1.14588c0,0 1.22187,0.35875 1.76858,0.46221c0.62133,0.11759 1.76427,0.20637 1.76427,0.20637c0,0 -0.82403,-0.17658 -1.32425,-0.37109c-0.50023,-0.19452 -1.03923,-0.54795 -1.03923,-0.54795c0,0 0.63363,0.0381 0.91845,0.02959c0.31762,-0.00949 0.9783,-0.13542 0.9783,-0.13542c0,0 -0.68015,-0.181 -1.07828,-0.38337c-0.39813,-0.20237 -0.94552,-0.64535 -0.94552,-0.64535c0,0 0.49095,-0.00017 0.80437,-0.0193c0.31343,-0.01913 0.58577,-0.06556 0.58577,-0.06556c0,0 -0.3719,-0.10436 -0.57904,-0.23235c-0.20714,-0.12798 -0.43666,-0.39517 -0.43666,-0.39517c0,0 0.36082,0.0281 0.52328,0.01753c0.20636,-0.01344 0.615,-0.09162 0.615,-0.09162c0,0 -0.57471,-0.24683 -0.76055,-0.37033c-0.13823,-0.09184 -0.39888,-0.32517 -0.39888,-0.32517l0.60791,0.08801l-0.38602,-0.58656l1.00579,0.42432l-0.47065,0.37486l0.85713,0.46039l-0.71733,0.29959c0,0 0.20202,0.20545 0.35699,0.30164c0.15496,0.09619 0.46722,0.20996 0.46722,0.20996c0,0 -0.33552,0.1259 -0.56008,0.13328c-0.22456,0.00738 -0.85523,-0.08675 -0.85523,-0.08675l1.12544,0.49057l1.54013,0.38114c0,0 -0.48442,0.2252 -0.81441,0.30377c-0.33,0.07857 -1.03879,0.13744 -1.03879,0.13744c0,0 0.71885,0.2016 1.18403,0.31012c0.46518,0.10853 1.33164,0.27679 1.33164,0.27679c0,0 -0.75223,0.3427 -1.26556,0.3617c-0.51332,0.01901 -1.67591,-0.2528 -1.67591,-0.2528c0,0 1.29254,0.50235 2.16264,0.61892c0.87012,0.11658 3.04954,0.07937 3.04954,0.07937c0,0 -1.60583,0.67777 -2.68267,0.64965c-1.07684,-0.02811 -3.37981,-0.80792 -3.37981,-0.80792c0,0 2.89053,0.99576 3.49228,1.03878c1.51177,0.1081 4.66126,-0.52482 4.66126,-0.52482c0,0 -2.41216,1.7488 -5.47131,0.87789z" data-paper-data="{&quot;index&quot;:null}" fill="#dcdce1" stroke="none" stroke-width="0" stroke-linecap="butt"/><path d="M242.48473,172.16673c0.47618,1.42479 0.4,3.15 0.4,3.15c0,0 1.159,3.72333 -0.05,5.68333c-1.029,1.667 -3.651,1.626 -5.6,1.8c-1.574,0.141 -3.742,0.288 -4.65,-0.95c-1.073,-1.465 -0.464,-4.50967 -0.65,-6.31667c-0.069,-0.682 -0.25667,-1.54975 -0.53146,-2.75c-0.27479,-1.20025 -0.45428,-2.48869 -0.12528,-3.16236c0.146,-0.568 0.71076,0.63316 1.40674,1.17903c0.69598,0.54587 1.75033,1.42 2.43333,1.6c0.8,0.15 0.98833,0.308 1.78333,0.05c0.47,-0.152 2.88207,-3.71215 3.39007,-3.57715c0.603,0.161 1.71708,1.86903 2.19326,3.29382z" data-paper-data="{&quot;index&quot;:null}" fill="#f8b820" stroke="none" stroke-width="1" stroke-linecap="round"/><path d="M233.16123,179.35007c-0.0106,0.621 0.0515,1.319 -0.1765,1.85c-0.1398,0.324 -0.5944,0.61 -0.7059,0.3c-0.3282,-0.913 -0.2887,-2.023 -0.2823,-3.05c-0.0064,-0.564 -0.0149,-1.272 0.2823,-1.65c0.1991,-0.254 0.6544,-0.018 0.7765,0.3c0.2266,0.691 0.1186,1.503 0.1059,2.25z" data-paper-data="{&quot;index&quot;:null}" fill="#ffffff" stroke="none" stroke-width="0.86553" stroke-linecap="round"/><path d="M241.58316,174.65935c-0.11837,0.07265 -1.26277,-0.75934 -2.00088,-1.11208c-0.73811,-0.35274 -1.60174,-0.44973 -1.62826,-0.63523c-0.0653,-0.4913 0.5908,-1.02897 0.8122,-1.46671c0.2324,-0.45929 1.19282,-1.81474 1.46582,-1.71317c0.3074,0.1168 1.58731,4.78105 1.35111,4.92718z" data-paper-data="{&quot;index&quot;:null}" fill="#ffffff" stroke="none" stroke-width="0.85185" stroke-linecap="butt"/><path d="M244.22572,185.86917c-0.27874,0.23923 -0.71876,0.62176 -1.22073,0.65269c-0.71255,0.04389 -1.54991,-0.33071 -2.22796,-0.33358c-1.06277,-0.002 -2.25525,0.0879 -3.16802,-0.2455c-0.91033,-0.3333 -1.36663,-1.0387 -1.84467,-1.6445c-0.12516,-0.1414 -0.22366,-0.3294 0.12041,-0.4909c1.37693,-0.6466 2.9161,-1.1758 4.49121,-1.62c0.87912,-0.2479 2.00463,-0.30531 2.94861,-0.17571c0.80528,0.1169 1.66449,0.51394 1.78555,0.92624c0.26941,1.1188 0.09096,2.09037 -0.88439,2.93127z" data-paper-data="{&quot;index&quot;:null}" fill="#089c4e" stroke="none" stroke-width="0.49091" stroke-linecap="round"/><path d="M243.04027,184.28484c0.12289,-0.88547 0.34511,-2.15789 0.64097,-2.15789c0.29586,0 -0.14129,1.37159 -0.26504,2.26316c-0.12375,0.89157 -0.06316,2.23308 -0.35902,2.23308c-0.29587,0 -0.13982,-1.45288 -0.01692,-2.33835z" fill="#000000" stroke="#000000" stroke-width="0" stroke-linecap="butt"/><path d="M238.84489,186.12631c0,-0.23545 0.19087,-0.42631 0.42631,-0.42631c0.23545,0 0.42632,0.19087 0.42632,0.42631c0,0.23545 -0.19087,0.42632 -0.42632,0.42632c-0.23545,0 -0.42631,-0.19087 -0.42631,-0.42632z" fill="#ffffff" stroke="none" stroke-width="0" stroke-linecap="butt"/><path d="M239.64434,187.85455c0.1528,-0.4802 0.2872,-0.982 0.3375,-1.4984c0.0663,-0.6803 -0.3086,-1.4804 0,-2.0561c0.1915,-0.3568 0.9365,-0.4419 1.1046,-0.0697c0.3504,0.8085 0.1111,1.8302 0.0614,2.753c-0.0234,0.4266 -0.0583,0.9012 -0.1841,1.3243c-0.1743,0.5771 -0.2436,1.4232 -0.7364,1.7424c-0.4124,0.2607 -1.1923,0.154 -1.3193,-0.3136c-0.17,-0.6252 0.5302,-1.2323 0.7363,-1.8819z" data-paper-data="{&quot;index&quot;:null}" fill="#089c4e" stroke="none" stroke-width="0.65663" stroke-linecap="round"/><path d="M236.67584,193.80772c-0.3385,-0.378 -0.53836,-0.34755 -0.46386,-0.76075c0.24927,-0.79173 0.96802,-0.48462 0.91192,-0.59172c-0.0557,-0.1058 -1.02342,1.06039 -1.62331,0.16138c-0.3122,-0.4269 0.81938,-1.47744 1.22718,-2.02364c0.15241,-0.19083 0.42105,-0.38612 0.6336,-0.68025c0.21255,-0.29413 0.19941,-0.50732 0.41669,-0.77315c0.21727,-0.26583 0.67434,-0.7225 0.81161,-0.72967c0.4779,0.021 -0.04907,-0.1033 0.72335,0.1073c0.77242,0.2106 1.09512,0.33391 1.71529,0.60944c0.62017,0.27553 0.54627,0.04826 0.71197,0.34325c0.11765,0.20983 -0.12802,0.93242 -0.45683,1.33106c-0.32881,0.39864 -0.3695,0.8249 -0.49945,1.32197c-0.12995,0.49706 0.10815,1.49706 -0.56785,2.41596c-0.3834,0.5219 -1.16017,0.43185 -1.93316,0.20895c-0.649,-0.1876 -1.18744,-0.51703 -1.60715,-0.94013z" fill="#ffffff" stroke="none" stroke-width="0.67216" stroke-linecap="round"/><path d="M237.57822,185.99298c0,-0.23545 0.19087,-0.42632 0.42632,-0.42632c0.23545,0 0.42632,0.19087 0.42632,0.42632c0,0.23545 -0.19087,0.42631 -0.42632,0.42631c-0.23545,0 -0.42632,-0.19087 -0.42632,-0.42631z" fill="#ffffff" stroke="none" stroke-width="0" stroke-linecap="butt"/><path d="M234.41526,185.04435l0.64457,-0.376c0,0 1.43237,-0.42828 2.2103,-0.49052c0.96986,-0.07759 2.906,0.82612 2.906,0.82612l-1.45631,-0.23969l1.06479,0.60225l-2.30292,0.02537l-1.80725,1.10255l0.02996,-0.85923l-2.33196,0.33017l1.90225,-0.86731z" fill="#cf0000" stroke="none" stroke-width="0" stroke-linecap="butt"/><path d="M244.35369,185.86916c-0.68447,0.5788 -0.85729,0.52318 -0.85729,0.52318l0.5215,-4.20498c0,0 1.1105,0.33823 1.23337,0.75053c0.27343,1.1188 0.09232,2.09037 -0.89758,2.93127z" data-paper-data="{&quot;index&quot;:null}" fill="#f8b820" stroke="none" stroke-width="0.49091" stroke-linecap="round"/><path d="M237.71803,182.50486c-0.2622,0.437 -0.8782,0.3763 -1.3333,0.3668c-0.4907,-0.0272 -1.2364,0.0661 -1.4222,-0.4716c-0.4187,-1.2126 -0.1218,-2.6527 -0.0889,-3.9303c0.0142,-0.5481 -0.016,-1.133 0.2222,-1.6245c0.0418,-0.1887 0.2898,-0.1059 0.4889,-0.1048c0.2382,0.001 0.4524,0.0167 0.7111,0.1048c0.2667,0.0933 0.5413,0.2348 0.7556,0.4192c0.2942,0.2788 0.6302,0.5911 0.7555,0.9957c0.1929,0.6068 0.1911,1.2902 0.1778,1.9389c-0.016,0.7966 0.1129,1.6728 -0.2667,2.3058z" data-paper-data="{&quot;index&quot;:null}" fill="#ffffff" stroke="none" stroke-width="0.97175" stroke-linecap="round"/><path d="M242.74939,179.39634c-0.257,0.28 -0.96989,1.43708 -0.68389,1.58708c0.564,0.297 1.44382,0.54757 1.44382,0.54757c0,0 -0.63649,-0.1669 -1.31049,0.3691c-0.12604,0.10016 2.06638,0.03344 2.06638,0.03344l-2.15472,1.29442l1.487,0.27452c0,0 -3.18378,0.2554 -3.54866,0.44762c-0.40268,0.2119 -1.23734,0.68037 -2.10702,0.8659c-0.86968,0.18553 -2.08302,0.30186 -2.91571,0.2591c-0.75581,-0.0667 -1.83871,-0.39865 -2.66818,-1.1875c-0.514,-0.327 -0.87942,-1.65983 -0.44242,-1.97083c0.763,-0.543 2.08333,-0.31967 2.93333,0.13333c0.75158,0.40055 1.74833,0.48233 2.58333,0.33333c0.82,-0.134 1.428,-0.42033 2.1,-0.93333c1.016,-0.775 3.55623,-2.42375 3.21723,-2.05375z" data-paper-data="{&quot;index&quot;:null}" fill="#f8f8f8" stroke="none" stroke-width="1" stroke-linecap="round"/><path d="M232.6096,181.74731c0.35891,0 0.39298,0.07533 0.62833,0.19695c0.23536,0.12162 -0.26941,0.70806 -0.62833,0.70806c-0.35892,0 -1.038,-0.58644 -0.80265,-0.70806c0.23535,-0.12161 0.44373,-0.19695 0.80265,-0.19695z" data-paper-data="{&quot;index&quot;:null}" fill="#101010" stroke="none" stroke-width="1" stroke-linecap="butt"/><path d="M237.19993,183.97735l-1.7512,0.778" data-paper-data="{&quot;index&quot;:null}" fill="none" stroke="#cccccc" stroke-width="0.36953" stroke-linecap="round"/><path d="M235.80323,179.66257c0.105,0.241 0.1709,0.5722 0.1709,0.9384c0,0.3662 -0.0659,0.6974 -0.1709,0.9384c-0.1062,0.2399 -0.2516,0.3885 -0.413,0.3885c-0.1613,0 -0.3067,-0.1486 -0.4129,-0.3885c-0.1051,-0.241 -0.1709,-0.5722 -0.1709,-0.9384c0,-0.3662 0.0658,-0.6974 0.1709,-0.9384c0.1062,-0.2399 0.2516,-0.3885 0.4129,-0.3885c0.1614,0 0.3068,0.1486 0.413,0.3885z" fill="#4088ed" stroke="none" stroke-width="1.0615" stroke-linecap="butt"/><path d="M235.68063,179.94046c0.0711,0.1501 0.1146,0.3571 0.1146,0.5859c0,0.2288 -0.0435,0.4358 -0.1146,0.586c-0.0706,0.1501 -0.1682,0.243 -0.2762,0.243c-0.108,0 -0.2055,-0.0929 -0.2761,-0.243c-0.0711,-0.1502 -0.1146,-0.3572 -0.1146,-0.586c0,-0.2288 0.0435,-0.4358 0.1146,-0.5859c0.0706,-0.1502 0.1681,-0.243 0.2761,-0.243c0.108,0 0.2056,0.0928 0.2762,0.243z" fill="#000000" stroke="none" stroke-width="0.47368" stroke-linecap="butt"/><path d="M235.46013,180.04325c0.0323,0.0615 0.0524,0.1462 0.0524,0.24c0,0.0938 -0.0201,0.1785 -0.0524,0.24c-0.0317,0.0614 -0.0763,0.0996 -0.1255,0.0996c-0.0491,0 -0.0938,-0.0382 -0.1255,-0.0996c-0.0323,-0.0615 -0.0523,-0.1462 -0.0523,-0.24c0,-0.0938 0.02,-0.1785 0.0523,-0.24c0.0317,-0.0614 0.0764,-0.0996 0.1255,-0.0996c0.0492,0 0.0938,0.0382 0.1255,0.0996z" fill="#ffffff" stroke="none" stroke-width="0.64678" stroke-linecap="butt"/><path d="M232.98443,179.64457c0.0934,0.2142 0.1519,0.5085 0.1519,0.8341c0,0.3255 -0.0585,0.6199 -0.1519,0.8341c-0.0943,0.2132 -0.2236,0.3453 -0.367,0.3453c-0.1434,0 -0.2727,-0.1321 -0.3671,-0.3453c-0.0934,-0.2142 -0.1519,-0.5086 -0.1519,-0.8341c0,-0.3256 0.0585,-0.6199 0.1519,-0.8341c0.0944,-0.2133 0.2237,-0.3454 0.3671,-0.3454c0.1434,0 0.2727,0.1321 0.367,0.3454z" fill="#4088ed" stroke="none" stroke-width="0.94355" stroke-linecap="butt"/><path d="M232.81443,179.90816c0.0631,0.1335 0.1019,0.3175 0.1019,0.5208c0,0.2034 -0.0388,0.3874 -0.1019,0.5209c-0.0627,0.1335 -0.1495,0.216 -0.2455,0.216c-0.096,0 -0.1827,-0.0825 -0.2455,-0.216c-0.0631,-0.1335 -0.1019,-0.3175 -0.1019,-0.5209c0,-0.2033 0.0388,-0.3873 0.1019,-0.5208c0.0628,-0.1335 0.1495,-0.216 0.2455,-0.216c0.096,0 0.1828,0.0825 0.2455,0.216z" fill="#000000" stroke="none" stroke-width="0.42105" stroke-linecap="butt"/><path d="M232.58513,179.99965c0.0287,0.0546 0.0465,0.1299 0.0465,0.2132c0,0.0834 -0.0178,0.1587 -0.0465,0.2133c-0.0282,0.0547 -0.0679,0.0886 -0.1116,0.0886c-0.0437,0 -0.0833,-0.0339 -0.1115,-0.0886c-0.0288,-0.0546 -0.0466,-0.1299 -0.0466,-0.2133c0,-0.0833 0.0178,-0.1586 0.0466,-0.2132c0.0282,-0.0547 0.0678,-0.0886 0.1115,-0.0886c0.0437,0 0.0834,0.0339 0.1116,0.0886z" fill="#ffffff" stroke="none" stroke-width="0.57492" stroke-linecap="butt"/><path d="M234.04546,173.04551c0,0 -1.60784,0.81818 -1.90909,0.81818c-0.15444,0 -0.37314,-1.22452 -0.58612,-2.03775c-0.21299,-0.81322 -0.02062,-1.78043 -0.02062,-1.78043z" fill="#ffffff" stroke="none" stroke-width="0" stroke-linecap="butt"/><path d="M246.50513,187.31025c0.24509,0.44386 0.11014,1.20682 -0.30354,1.42171c-0.64439,0.34302 -1.50685,0.17604 -2.13468,-0.13625c-0.38512,-0.18655 -0.56759,-0.68011 -0.60641,-1.13297c-0.07046,-0.80997 -0.11383,-1.71256 0.26082,-2.42839c0.14808,-0.27987 0.79763,-0.20654 1.00607,0.05549c0.37304,0.46678 -0.01715,1.29932 0.35698,1.7696c0.31797,0.39813 1.1785,0.01879 1.42076,0.45082z" data-paper-data="{&quot;index&quot;:null}" fill="#f8b820" stroke="none" stroke-width="0.49091" stroke-linecap="round"/><g><path d="M249.13737,185.58539l0.82217,0.06549c0,0 1.19391,2.58018 1.52752,3.98693c0.27829,1.17351 0.4241,2.9483 0.39834,3.66939c-0.04449,1.24505 -0.65419,0.99959 -0.65419,0.99959c0,0 0.21651,-3.26158 -0.05696,-4.55924c-0.19493,-0.92516 -2.03687,-4.16217 -2.03687,-4.16217z" fill="#989898" stroke="#989898" stroke-width="0" stroke-linecap="round"/><path d="M247.76176,187.34032c0.13167,-0.54668 0.2271,-0.97762 0.66982,-1.38757c0.62937,-0.58278 1.01663,-0.36416 1.30122,0.07986c0.59878,0.93482 1.17164,2.72521 1.17164,2.72521l-3.08193,1.65882c0,0 -0.26139,-2.23809 -0.06076,-3.07633z" fill="#f82020" stroke="none" stroke-width="1.13968" stroke-linecap="round"/><path d="M250.85594,188.68012c0,0 0.16001,0.116 0.36217,1.0895c0.20217,0.9735 0.34186,2.27592 0.3448,3.37186c0.00061,0.43942 0.03864,1.19097 -0.30739,1.22608c-0.58909,0.05987 -1.80067,-0.25083 -2.24949,-0.8c-0.44594,-0.54604 -1.31253,-2.56332 -1.18643,-3.28844c0.2383,-1.28992 3.03635,-1.599 3.03635,-1.599z" fill="#f8f8f8" stroke="none" stroke-width="1.15102" stroke-linecap="round"/><path d="M245.931,187.4621c0.00272,-0.42859 -0.30782,-1.1866 0.15732,-1.62426c0.52835,-0.49715 0.91393,0.17628 0.91393,0.17628c0,0 0.18038,-0.61923 0.57652,-0.37188c0.38462,0.24014 0.37104,0.52225 0.40643,0.82649c0.05947,0.51125 -0.21443,1.36678 -0.21556,1.54408c-0.00562,0.88654 0.23873,2.20755 -0.22634,2.2046c-0.12336,-0.00078 -0.7028,-0.24266 -0.7028,-0.24266c0,0 -0.62425,0.48682 -0.81224,0.1053c-0.24386,-0.49491 -0.09962,-2.25011 -0.09728,-2.61794z" fill="#ffffff" stroke="none" stroke-width="0" stroke-linecap="butt"/></g><path d="M234.20166,176.39582l-2.7947,1.06695l-1.86946,1.92963l1.53454,-2.87263l2.90995,-0.74602z" fill="#f8b820" stroke="none" stroke-width="1.22222" stroke-linecap="round"/><path d="M233.5442,175.6608l-2.35435,-0.44959l-2.65185,1.3816c0,0 1.78098,-2.22559 2.21786,-2.34532c0.30645,-0.084 3.00715,0.62014 3.00715,0.62014z" fill="#f8b820" stroke="none" stroke-width="1.22222" stroke-linecap="round"/><path d="M233.74098,174.59943c0,0 -1.20326,-1.03145 -2.15925,-1.27236c-0.95599,-0.24091 -4.30024,-0.35548 -4.30024,-0.35548c0,0 3.41113,-0.97829 4.05113,-0.81003c0.38804,0.10202 3.03198,1.76477 3.03198,1.76477z" fill="#f8b820" stroke="none" stroke-width="1.22222" stroke-linecap="round"/><path d="M247.48958,163.84298c0.07884,0.00966 1.57451,0.10193 2.5525,0.46926c1.5451,0.58034 2.80492,1.53217 2.80492,1.53217c0,0 -2.12282,-0.75755 -2.70613,-0.85289c-1.03808,-0.16967 -2.98873,-0.07793 -2.98873,-0.07793c0,0 1.72475,-0.02628 2.54794,0.14864c0.69838,0.14838 2.07863,0.8344 2.07863,0.8344c0,0 -1.26265,-0.16542 -1.81879,-0.18308c-0.63205,-0.02006 -1.77496,0.06901 -1.77496,0.06901c0,0 0.84143,0.04699 1.36572,0.16179c0.52429,0.1148 1.11148,0.3806 1.11148,0.3806c0,0 -0.63191,0.06038 -0.91197,0.11284c-0.31233,0.05851 -0.94557,0.28512 -0.94557,0.28512c0,0 0.69996,0.07362 1.12461,0.21196c0.42465,0.13836 1.03397,0.49132 1.03397,0.49132c0,0 -0.48502,0.07611 -0.79172,0.14349c-0.30669,0.06738 -0.56858,0.15538 -0.56858,0.15538c0,0 0.38356,0.04558 0.608,0.13999c0.22445,0.0944 0.49253,0.32288 0.49253,0.32288c0,0 -0.36083,0.02804 -0.51969,0.06361c-0.2018,0.04519 -0.59343,0.18565 -0.59343,0.18565c0,0 0.60598,0.15496 0.80868,0.24822c0.15077,0.06937 0.44437,0.25956 0.44437,0.25956l-0.6142,0.00709l0.4721,0.51979l-1.05932,-0.26364l0.40701,-0.44315l-0.91803,-0.32226l0.66236,-0.40695c0,0 -0.23138,-0.17172 -0.39937,-0.24279c-0.16798,-0.07107 -0.49407,-0.13515 -0.49407,-0.13515c0,0 0.31201,-0.17628 0.53272,-0.21831c0.22072,-0.04203 0.85836,-0.04657 0.85836,-0.04657l-1.18778,-0.31058l-1.58056,-0.13833c0,0 0.44375,-0.29741 0.75762,-0.42608c0.31387,-0.12867 1.00502,-0.29647 1.00502,-0.29647c0,0 -0.74138,-0.08798 -1.21775,-0.12325c-0.47636,-0.03527 -1.35843,-0.06748 -1.35843,-0.06748c0,0 0.69017,-0.45492 1.19438,-0.5531c0.5042,-0.09819 1.69483,-0.00947 1.69483,-0.00947c0,0 -1.35469,-0.29638 -2.23236,-0.27696c-0.87768,0.01943 -3.02511,0.39329 -3.02511,0.39329c0,0 1.48168,-0.918 2.5499,-1.05679c1.06823,-0.13879 3.4641,0.27541 3.4641,0.27541c0,0 -3.00977,-0.53666 -3.61092,-0.4861c-1.51029,0.12705 -4.52397,1.23952 -4.52397,1.23952c0,0 2.11261,-2.10086 5.26965,-1.71364z" data-paper-data="{&quot;index&quot;:null}" fill="#dcdce1" stroke="none" stroke-width="0" stroke-linecap="butt"/><path d="M260.50867,169.70586c0.1563,-0.39614 0.35948,-1.14097 0.35948,-1.14097c0,0 -0.22095,0.52276 -0.41284,0.82909c-0.19189,0.30632 -0.4938,0.61819 -0.4938,0.61819c0,0 0.10528,-0.41433 0.13564,-0.60381c0.03386,-0.2113 0.03405,-0.66424 0.03405,-0.66424c0,0 -0.20567,0.42704 -0.38986,0.66483c-0.18419,0.2378 -0.54638,0.54389 -0.54638,0.54389c0,0 0.06193,-0.32478 0.08888,-0.53453c0.02697,-0.20975 0.03066,-0.39576 0.03066,-0.39576c0,0 -0.11602,0.23281 -0.22686,0.35367c-0.11084,0.12085 -0.31659,0.23891 -0.31659,0.23891c0,0 0.06419,-0.23513 0.07772,-0.34393c0.0172,-0.13821 0.01711,-0.4184 0.01711,-0.4184c0,0 -0.2359,0.34898 -0.34108,0.4563c-0.07822,0.07982 -0.26551,0.22276 -0.26551,0.22276l0.13504,-0.39101l-0.43678,0.18123l0.40779,-0.61169l0.18848,0.3587l0.41287,-0.50879l0.10753,0.51237c0,0 0.16143,-0.10768 0.24465,-0.19804c0.08321,-0.09035 0.19793,-0.28251 0.19793,-0.28251c0,0 0.04089,0.23786 0.0174,0.38733c-0.0235,0.14947 -0.16546,0.55476 -0.16546,0.55476l0.46673,-0.68247l0.44676,-0.97061c0,0 0.08776,0.34889 0.09802,0.57711c0.01027,0.22822 -0.04037,0.70451 -0.04037,0.70451c0,0 0.2242,-0.45004 0.35478,-0.74402c0.13058,-0.29398 0.35137,-0.84589 0.35137,-0.84589c0,0 0.13162,0.54089 0.07933,0.88285c-0.0523,0.34196 -0.37903,1.07665 -0.37903,1.07665c0,0 -0.3752,0.52211 -0.23768,0.17354z" data-paper-data="{&quot;index&quot;:null}" fill="#dcdce1" stroke="none" stroke-width="0" stroke-linecap="butt"/><path d="M240.47661,168.44795c1.11354,-0.53637 1.8919,-0.53097 2.68063,-0.53097c0.76881,0 2.1086,1.49571 2.4757,3.25241c0.4667,2.23335 0.95518,4.84323 0.95518,4.84323l-2.5181,-3.60864l-0.70128,1.5l-0.9077,-1.33553c0,0 -1.21281,0.3165 -1.37499,0.3165c-0.66581,0 -0.29984,-1.87017 -0.29984,-1.87017l-1.58573,0.52439l-1.12252,-1.29427c0,0 1.04685,-1.14581 2.39865,-1.79695z" fill="#23d892" stroke="none" stroke-width="0" stroke-linecap="butt"/><path d="M236.35183,172.81154c-0.56901,-0.1497 0.258,-1.5585 0.88161,-2.02297c0.62762,-0.46747 1.60069,-1.14249 1.60069,-1.14249l0.26977,1.71068l2.12267,-0.64193c0,0 -0.0735,0.59096 -0.08873,0.97129c-0.01523,0.38033 0.00991,0.99685 0.00991,0.99685l1.87753,-0.49643l0.09369,1.58626l0.53106,-0.75308l-0.32014,1.39517c0,0 0.39516,1.3001 -0.06665,1.43395c-0.98164,0.2845 -1.92606,-1.09183 -3.53216,-1.70228c-1.80819,-0.68727 -0.73862,-0.64032 -3.37926,-1.33501z" fill="#fd0000" stroke="none" stroke-width="0" stroke-linecap="butt"/><g stroke-width="0" stroke-linecap="butt"><path d="M245.60084,175.94119c-0.07972,-0.47306 0.23915,-0.92118 0.71221,-1.0009c0.47306,-0.07972 0.92118,0.23915 1.0009,0.71221c0.07972,0.47306 -0.23915,0.92118 -0.71221,1.0009c-0.47306,0.07972 -0.92118,-0.23915 -1.0009,-0.71221z" fill="#db7b04" stroke="none"/><path d="M247.39413,175.60781c0.02739,0.16255 -0.46602,0.19004 -0.92357,0.26715c-0.45755,0.07711 -0.89482,0.26475 -0.92221,0.1022c-0.04172,-0.24758 0.40635,-0.37115 0.86389,-0.44825c0.45755,-0.07711 0.93539,-0.19702 0.98188,0.0789z" fill="#feeb00" stroke="#000000"/><path d="M246.63856,176.57551c0.0301,0.17863 -0.08923,0.08531 -0.17855,0.10037c-0.08932,0.01505 -0.28102,-0.33474 -0.31113,-0.51338c-0.0301,-0.17863 0.16949,-0.12799 0.25881,-0.14305c0.08932,-0.01505 0.20077,0.37742 0.23087,0.55606z" fill="#000000" stroke="none"/><path d="M247.06159,175.91634c0.04696,-0.00791 0.13016,-0.09241 0.15127,0.03281c0.0211,0.12522 -0.03265,0.38443 -0.07962,0.39235c-0.04697,0.00791 -0.09736,-0.05885 -0.11847,-0.18407c-0.0211,-0.12522 -0.00015,-0.23317 0.04682,-0.24108z" fill="#000000" stroke="none"/></g><path d="M248.1866,188.25422c-0.03384,1.38029 -0.1564,2.16348 -0.50597,2.15491c-0.12741,-0.00313 0.00936,-0.73039 0.0432,-2.11069c0.03384,-1.38029 0.16322,-2.44118 0.29063,-2.43805c0.34956,0.00857 0.20599,1.01353 0.17214,2.39383z" fill="#424242" stroke="none" stroke-width="0" stroke-linecap="butt"/></g></g></svg>