<svg version="1.1" xmlns="http://www.w3.org/2000/svg" xmlns:xlink="http://www.w3.org/1999/xlink" width="215.18249" height="309.32006" viewBox="0,0,215.18249,309.32006"><g transform="translate(-103.10568,-136.96383)"><g data-paper-data="{&quot;isPaintingLayer&quot;:true}" fill-rule="nonzero" stroke-linejoin="miter" stroke-miterlimit="10" stroke-dasharray="" stroke-dashoffset="0" style="mix-blend-mode: normal"><g stroke="none" stroke-width="0" stroke-linecap="butt"><path d="M261.04983,366.85073c23.85817,-2.16351 11.49111,24.00617 14.86557,25.89502c14.61836,8.18256 29.82521,19.87541 22.60791,33.58826c-2.74374,5.21307 -18.52801,-6.16897 -33.14637,-14.35154c-11.06479,-6.19346 -22.43812,-20.18599 -25.73994,-27.44377c-1.06042,-2.3309 8.26951,-15.573 21.41284,-17.68797z" fill="#09031a"/><path d="M255.08259,394.34005c0,0 7.99066,-12.24724 20.36294,-7.0091c0.12312,0.05213 7.86686,4.13006 12.23822,8.29677c4.50939,4.29827 3.57827,8.1912 3.57827,8.1912c0,0 -10.38413,-4.94706 -15.00818,-5.53576c-4.62405,-0.5887 -10.1352,2.33466 -10.1352,2.33466z" fill="#b16e27"/><path d="M273.51036,414.85433c12.70036,7.49301 24.8757,11.86125 24.8757,11.86125c0,0 4.23743,11.76908 -22.72437,-4.23946c-4.87746,-2.89599 -17.94409,-10.77194 -23.39494,-15.40613c-8.71922,-7.41284 -13.86232,-22.95991 -13.36435,-23.84952c0.55014,-0.98283 7.58851,8.82292 17.99255,18.7155c4.90053,4.65963 10.54778,9.33852 16.61543,12.91834z" fill="#a75c1e"/><path d="M250.08515,395.89757c1.64551,-2.93973 6.65182,-3.26727 11.18189,-0.73159c4.53009,2.5357 6.86849,6.97442 5.223,9.91415c-1.64551,2.93973 -6.65181,3.26728 -11.18189,0.73159c-4.53009,-2.53571 -6.8685,-6.97442 -5.223,-9.91415z" fill="#999999"/><path d="M254.65069,398.79689c0.48555,-0.86746 2.51105,-0.65724 4.52408,0.46953c2.01303,1.12679 3.25127,2.74342 2.76572,3.6109c-0.48555,0.86746 -2.51105,0.65724 -4.52409,-0.46952c-2.01303,-1.12679 -3.25127,-2.74342 -2.76571,-3.6109z" fill="#b16e27"/></g><g stroke="none" stroke-width="0" stroke-linecap="butt"><path d="M210.48287,239.15758c0,1.89633 -9.07386,12.86846 -9.07386,12.86846c0,0 -16.8993,-13.31024 -35.85471,-21.58275c-14.64111,-7.15517 -39.02802,-17.50449 -37.96428,-18.40476c2.78098,-2.35362 37.22527,2.99481 53.32143,7.77381c18.83349,5.59171 29.57143,15.04531 29.57143,19.34524z" data-paper-data="{&quot;index&quot;:null}" fill="#ffffff"/><path d="M184.36751,217.20732c1.5858,2.11441 3.61,5.73 3.61,5.73c0,0 -17.52603,-4.87756 -31.48724,-7.68631c-13.62467,-2.74104 -30.4577,-3.26972 -29.26276,-4.06369c3.5932,-2.38746 15.14059,-1.5 29.5,-1.5c14.35941,0 24.5,2 24.5,2c0,0 1.5542,3.40559 3.14,5.52z" fill="#1a0c47"/><path d="M212.68838,234.91948c-0.44033,0.335 -2.45759,3.17395 -4.44733,6.50845c-3.10134,5.19738 -6.49315,11.59869 -6.49315,11.59869c0,0 -8.92173,-8.83595 -12.31814,-12.6288c-3.39641,-3.79284 -14.02936,-12.16779 -13.33662,-12.72833c0.59796,-0.48386 11.92108,-0.05936 17.88724,0.59301c9.38791,1.02652 19.56097,6.00807 18.708,6.65698z" data-paper-data="{&quot;index&quot;:null}" fill="#e8e8e8"/><path d="M228.00687,230.729c0,0 -6.19643,0.54603 -10.21806,1.796c-4.02164,1.24997 -7.78194,3.954 -7.78194,3.954c0,0 -6.4208,-5.92377 -10.12636,-8.29607c-3.70556,-2.3723 -12.79206,-5.62628 -12.79206,-5.62628l-7.66491,-10.82765c0,0 12.33751,0.18428 24.66666,5.41667c8.09858,3.43697 23.91666,13.58333 23.91666,13.58333z" data-paper-data="{&quot;index&quot;:null}" fill="#684af8"/></g><g><path d="M281.5049,299.07924c-12.09922,2.3176 -28.9259,-19.72018 -37.58345,-49.22276c-4.62403,-15.75747 -5.98245,-30.45739 -4.40105,-41.08745c0.08104,-0.54475 0.58247,-12.76794 0.67891,-13.29091c1.5451,-8.37879 4.64803,-2.22085 9.95383,-3.23717c5.13234,-0.9831 4.11089,-6.83756 9.96016,-0.34507c0.95458,1.05956 8.91005,11.45527 9.85323,12.67399c2.19628,2.83788 4.35005,6.09208 6.40728,9.69185c4.40785,7.7129 8.37257,17.01221 11.36277,27.202c8.65755,29.50258 5.86752,55.29794 -6.2317,57.61554z" fill="#462fb6" stroke="none" stroke-width="0" stroke-linecap="butt"/><path d="M248.87965,264.03237c0,0 5.37838,8.01234 23.33553,4.17979c10.87897,-2.32188 19.2539,-11.71838 19.2539,-11.71838c0,0 0.74926,5.86475 1.11346,9.39046c0.52948,5.12582 0.33819,9.16931 0.33819,9.16931c0,0 -4.26083,7.13783 -13.44905,10.18591c-8.13601,2.69903 -18.86128,0.18435 -18.86128,0.18435c0,0 -3.07721,-3.07712 -5.86793,-8.75634c-1.96393,-3.99668 -5.86281,-12.6351 -5.86281,-12.6351z" fill="#0d0627" stroke="none" stroke-width="0" stroke-linecap="butt"/><path d="M240.88311,236.50248c0,0 4.66354,4.83603 22.62067,1.00348c10.87897,-2.32188 18.9928,-9.70768 18.9928,-9.70768c0,0 2.58447,5.11045 3.53051,7.96916c0.94604,2.85871 1.65806,6.92032 1.65806,6.92032c0,0 -10.1591,8.21759 -19.34732,11.26568c-8.13601,2.69903 -23.21581,-0.32583 -23.21581,-0.32583c0,0 -1.71227,-4.9762 -2.51275,-8.21014c-0.80048,-3.23393 -1.72615,-8.91499 -1.72615,-8.91499z" fill="#0d0627" stroke="none" stroke-width="0" stroke-linecap="butt"/><path d="M239.72713,209.97691c0,0 2.65763,4.70818 15.66123,2.2549c10.87897,-2.32188 15.22384,-6.695 15.22384,-6.695c0,0 2.46342,2.98224 3.61875,4.86396c1.15532,1.88172 3.75422,7.47019 3.75422,7.47019c0,0 -10.56426,6.45521 -18.48009,8.2575c-7.91584,1.80229 -20.15766,0.53959 -20.15766,0.53959c0,0 -0.13627,-4.2825 -0.4319,-8.08499c-0.25824,-3.3215 0.81161,-8.60618 0.81161,-8.60618z" fill="#0d0627" stroke="none" stroke-width="0" stroke-linecap="butt"/><path d="M238.27927,194.90165c0,0 -7.39698,-3.37193 -9.41327,-7.2616c-1.58971,-3.06674 1.69419,-6.82584 2.60578,-6.87728c0.38298,-0.02162 -5.82062,-6.81082 -4.19405,-10.23692c2.5688,-5.41072 7.71519,-2.25535 7.71519,-2.25535c0,0 1.39465,-2.68355 3.52727,-3.21753c2.13262,-0.53397 4.81268,-0.18686 5.39603,0.98328c0.32507,0.65207 -0.6723,-1.65238 1.24784,-2.35841c1.92014,-0.70604 5.24373,-0.02855 5.24373,-0.02855c0,0 1.26335,-1.4993 2.9662,-2.06923c5.35203,-1.79126 4.49299,6.60584 5.14943,11.31766c1.00626,7.22266 -0.58678,12.64256 -0.65169,13.3172c-0.13674,1.421 7.73265,4.21069 6.53337,6.11713c-1.43864,2.28696 -4.18577,8.03333 -8.26837,8.48293c-1.70965,0.18828 -4.16739,-1.84402 -5.54598,-2.92295c-2.29637,-1.79723 2.0616,3.76355 -1.58472,5.16816c-3.64631,1.40461 -10.08271,-1.18375 -10.08271,-1.18375l-0.64403,-6.9748z" fill="#c08f5a" stroke="none" stroke-width="0" stroke-linecap="butt"/><path d="M231.69323,180.24947c0,0 3.09483,0.62901 6.17176,-0.08193c2.87766,-0.66489 5.72908,-2.68951 6.31535,-2.2391c0.58165,0.44685 6.83486,0.19865 1.60764,5.63774c-1.79908,1.872 -6.50411,2.51485 -6.50411,2.51485" fill="none" stroke="#b26a37" stroke-width="1.5" stroke-linecap="round"/><path d="M235.30263,168.77787l2.17995,3.13215" fill="none" stroke="#b26a37" stroke-width="1.5" stroke-linecap="round"/><path d="M244.43929,166.50944l1.34662,1.67678" fill="none" stroke="#b26a37" stroke-width="1.5" stroke-linecap="round"/><path d="M252.19106,166.32235l-1.3607,-1.92639" fill="none" stroke="#b26a37" stroke-width="1.5" stroke-linecap="round"/><path d="M255.7881,172.37932c0,0 -1.06298,2.50982 -2.35678,2.82127c-1.41313,0.34017 -4.47714,0.31878 -4.47714,0.31878" fill="none" stroke="#b26a37" stroke-width="1.5" stroke-linecap="round"/><path d="M257.60348,186.79992c0,0 -5.3657,4.63834 -8.53673,6.08458c-3.09261,1.41046 -10.26008,2.48817 -10.26008,2.48817" fill="none" stroke="#b26a37" stroke-width="1.5" stroke-linecap="round"/></g><g stroke="none" stroke-linecap="butt"><path d="M147.49084,386.40619c-5.3162,-2.86005 -19.00013,-14.97415 -19.00013,-14.97415c0,0 -7.09331,-3.72454 -11.63829,-5.21625c-5.58388,-1.8327 -13.74673,-3.29759 -13.74673,-3.29759c0,0 4.28246,-2.16555 8.32263,-3.33383c4.04017,-1.16829 10.46012,-2.59226 10.46012,-2.59226c0,0 -4.66595,-3.36367 -7.77732,-6.61273c-3.11134,-3.24906 -7.186,-9.01286 -7.186,-9.01286c0,0 2.88863,-0.73775 9.24718,0.13499c6.35858,0.87275 16.10214,3.34434 16.10214,3.34434l-12.04208,-17.36435c0,0 4.88838,0.83325 11.0629,3.22712c6.17454,2.39387 15.43657,7.04674 15.43657,7.04674c0,0 4.15413,-4.83949 5.90653,-7.749c2.23393,-3.70901 6.40663,-12.6946 6.40663,-12.6946c0,0 0.36713,11.52864 0.10801,16.37176c-0.20373,3.80777 -1.53704,10.33516 -1.53704,10.33516c0,0 6.35277,7.24973 7.87489,16.0965c0.20557,1.19482 8.68152,0.28678 13.63205,-1.19415c2.90852,-2.336 -0.04719,7.48617 3.08025,10.54476c5.51367,5.39223 11.0551,6.13441 11.0551,6.13441c0,0 -3.94698,8.49425 -9.96071,13.884c-3.57166,3.5344 -6.85295,5.77738 -10.36428,5.85768c-7.67315,0.17546 -20.12633,-6.07556 -25.44252,-8.93563z" fill="#1c0e4c" stroke-width="NaN"/><path d="M142.37496,382.42554c0,0 -4.41373,-14.3071 4.0031,-23.23543c7.39054,-7.83967 17.9841,-2.79128 17.9841,-2.79128l1.21749,3.60229c0,0 -3.98147,2.63498 -6.69661,6.23112c-2.94281,3.89766 -3.03975,9.41095 -2.71654,11.82235c0.90797,6.77396 2.83444,13.61916 2.83444,13.61916c0,0 -5.784,-2.18733 -8.52341,-3.71112c-2.80123,-1.55819 -8.1026,-5.53708 -8.1026,-5.53708z" fill="#684af8" stroke-width="0"/><path d="M179.84426,358.603c0,0 -2.6448,4.76768 4.88751,12.97658c1.96753,2.14425 9.18632,4.12256 9.18632,4.12256c0,0 -2.89026,4.12019 -4.65363,6.50265c-2.02147,2.73119 -5.11234,6.10006 -5.49991,6.152c-1.19742,0.16049 -10.84421,-6.10161 -11.82558,-13.42294c-0.98134,-7.32133 3.60346,-14.98656 3.60346,-14.98656z" fill="#684af8" stroke-width="0"/></g><g stroke="none" stroke-width="0" stroke-linecap="butt"><path d="M318.14419,209.97901c0,2.40305 -20.16885,8.69659 -25.83334,10.66666c-12.52678,4.35672 -16.83333,6.33332 -16.83333,6.33332l4.16666,-12.99999c0,0 12.56444,-3.37549 21.47086,-2.99123c9.64728,0.41622 17.02914,-1.39167 17.02914,-1.00878z" fill="#1a0c47"/><path d="M273.51635,226.979c15.33349,-6.84172 41.95712,-18.37743 44.7381,-16.02381c1.06373,0.90027 -23.32319,18.08293 -32.21429,23.7381c-14.1263,8.98501 -22.92857,21.51422 -22.92857,17.21429c0,-4.29993 -4.92873,-17.42019 10.40476,-24.2619z" fill="#ffffff"/><path d="M273.00131,229.16948c0.69274,0.56054 -2.63703,7.15651 -5.33662,12.22833c-2.80446,5.26886 -4.56814,10.6288 -4.56814,10.6288c0,0 -4.06381,-8.99999 -5.19048,-9.85714c-1.46515,-1.11465 13.66413,-14.15801 15.09524,-12.99999z" fill="#e8e8e8"/><path d="M243.14415,233.31233c0,0 7.75419,-9.18427 15.83334,-12.66666c8.07916,-3.48239 20.86718,-8.56963 24.16667,-5.66667c0.68849,0.60575 -1.85926,5.91368 -5.41491,9.57765c-3.50518,3.61196 -7.99924,5.56993 -10.04206,7.62628c-4.26823,4.2965 -9.37636,7.79607 -9.37636,7.79607c0,0 -2.70622,-1.74461 -5.78193,-3.74567c-3.07571,-2.00106 -9.38475,-2.921 -9.38475,-2.921z" fill="#684af8"/></g><path d="M172.22054,257.929c0,-2.14011 9.23451,-7.975 16,-7.975c6.76549,0 11.5,1.375 11.5,1.375c0,0 16.01307,14.88291 13.92696,17.62966c-1.32038,1.73853 -18.13219,8.53688 -21.90082,8.17504c-0.41715,-0.04005 -5.77544,4.8108 -5.77544,4.8108c0,0 -1.07182,-3.04945 -0.15513,-6.23495c0.7576,-2.63267 2.94634,-5.90291 2.32611,-5.41346c-3.4921,2.75575 -9.70419,6.8416 -9.70419,6.8416c0,0 0.74001,-3.85754 1.99067,-6.58249c1.01955,-2.22142 3.51195,-4.17084 3.08795,-4.17428c-2.15897,-0.01753 -6.32868,-0.75098 -6.32868,-0.75098c0,0 2.30446,-3.22716 3.41031,-4.81758c1.10585,-1.59042 2.82225,-2.90837 2.82225,-2.90837c0,0 -2.53859,-0.34111 -4.76415,-0.95073c-1.86796,-0.51167 -5.43585,1.4023 -5.43585,0.42573z" fill="#5133c8" stroke="none" stroke-width="NaN" stroke-linecap="butt"/><g stroke="none" stroke-width="0" stroke-linecap="butt"><path d="M167.59894,321.77065c1.66345,-21.53501 30.42091,-65.11697 64.58411,-65.25c28.17304,-0.1097 54.52316,28.71609 64.58412,65.25c-0.5,41.03658 -28.9153,65.25 -64.58411,65.25c-35.66882,0 -64.08411,-11.71342 -64.58411,-65.25z" fill="#684af8"/><path d="M210.69894,272.82066c0,0 10.16082,-0.4948 16.57498,0.83916c6.41416,1.33397 10.92502,2.46084 10.92502,2.46084c0,0 10.02889,-2.81834 16.26948,-3.09923c7.17833,-0.3231 10.2832,0.53371 10.2832,0.53371c0,0 0.61874,0.10319 2.42483,-1.93393c1.80608,-2.03712 1.49674,-4.67637 1.49674,-4.67637l6.60139,11.91516c0,0 4.18747,-1.06797 6.6599,-1.26033c2.47244,-0.19236 8.17706,3.52662 8.17706,3.52662c0,0 -2.43886,2.47246 -5.10683,3.96685c-2.66797,1.49439 -3.1481,2.44382 -3.1481,2.44382l0.89954,2.52142l8.12092,-7.40085c0,0 0.22201,5.03544 -0.85905,7.94436c-0.77201,2.07735 -3.69756,6.14314 -3.69756,6.14314c0,0 10.25244,6.39691 8.75565,31.23583c-1.05009,17.42609 -4.96985,29.17828 -23.11505,42.22324c-7.03437,5.05716 -30.22707,14.97977 -38.51322,1.73878c-10.49911,-16.77722 -1.44371,-53.54519 -6.04562,-59.27934c-5.45089,-6.79202 -19.43663,-4.62619 -19.43663,-4.62619c0,0 2.40653,-5.35562 4.20007,-6.09841c2.95735,-1.22478 5.73258,-2.58683 5.73258,-2.58683c0,0 -0.08989,-2.95467 -5.76524,-6.92183c-4.19729,-2.93398 -5.78262,-4.32128 -5.78262,-4.32128c0,0 3.32656,-1.60321 5.38748,-1.83186c6.66884,-0.73988 8.8164,0.07082 8.8164,0.07082c0,0 -2.89168,-4.80632 -5.42552,-8.21745c-2.53383,-3.41113 -4.42982,-5.3098 -4.42982,-5.3098z" fill="#ffffff"/></g><g><path d="M201.97751,249.854c0,-9.66499 14.10303,-17.5 31.5,-17.5c17.39697,0 31.42247,7.83532 31.5,17.5c0.1,12.46499 -14.10303,17.5 -31.5,17.5c-17.39697,0 -31.5,-7.83501 -31.5,-17.5z" fill="#684af8" stroke="none" stroke-width="0" stroke-linecap="butt"/><path d="M248.22751,249.10399c-2.19325,0.13719 -6.76926,-6.61399 -10.71842,-9.5693c-6.38316,-4.77677 -9.15658,-6.8057 -9.15658,-6.8057c0,0 4.25059,-0.51927 9.37668,-0.48895c6.3761,0.03772 7.99832,1.36395 7.99832,1.36395c0,0 6.49671,15.25 2.5,15.5z" fill="#1c0e4c" stroke="none" stroke-width="0" stroke-linecap="butt"/><path d="M262.5499,250.19338c1.13367,4.94747 -0.36458,10.98903 -3.59315,11.76721c-3.22858,0.77818 -6.96488,-4.0017 -8.09855,-8.94917c-1.13367,-4.94747 0.56458,-9.58903 3.79315,-10.36721c3.22858,-0.77818 6.76488,2.6017 7.89855,7.54917z" fill="#1c0e4c" stroke="none" stroke-width="0" stroke-linecap="butt"/><g stroke="none" stroke-width="0" stroke-linecap="butt"><path d="M253.22751,256.479c0,-1.72589 1.39911,-3.125 3.125,-3.125c1.72589,0 3.125,1.39911 3.125,3.125c0,1.72589 -1.39911,3.125 -3.125,3.125c-1.72589,0 -3.125,-1.39911 -3.125,-3.125z" fill="#ffff9b"/><path d="M255.06284,256.5534c0,-0.75337 0.61073,-1.36409 1.36409,-1.36409c0.75336,0 1.36409,0.61072 1.36409,1.36409c0,0.75337 -0.61073,1.36409 -1.36409,1.36409c-0.75336,0 -1.36409,-0.61072 -1.36409,-1.36409z" fill="#000000"/></g><path d="M240.96237,246.61396c5.51394,6.36662 6.46491,14.57546 2.12403,18.33498c-4.34087,3.75951 -12.32979,1.64603 -17.84373,-4.72059c-5.51395,-6.36662 -6.46491,-14.57546 -2.12403,-18.33497c4.34088,-3.75951 12.32979,-1.64603 17.84373,4.72059z" fill="#1c0e4c" stroke="none" stroke-width="0" stroke-linecap="butt"/><g stroke="none" stroke-width="0" stroke-linecap="butt"><path d="M234.22751,258.604c0,-2.48528 2.01472,-4.5 4.5,-4.5c2.48528,0 4.5,2.01472 4.5,4.5c0,2.48528 -2.01472,4.5 -4.5,4.5c-2.48528,0 -4.5,-2.01472 -4.5,-4.5z" fill="#ffff9b"/><path d="M236.87039,258.71114c0,-1.08485 0.87944,-1.96429 1.96429,-1.96429c1.08485,0 1.96429,0.87944 1.96429,1.96429c0,1.08485 -0.87944,1.96429 -1.96429,1.96429c-1.08485,0 -1.96429,-0.87944 -1.96429,-1.96429z" fill="#000000"/></g><path d="M195.49667,248.29357c9.00573,1.196 7.9042,3.7492 7.9042,3.7492c0,0 -3.24925,-4.14279 -4.74489,-5.98853c-1.67651,-2.06896 -6.63365,-7.43216 -6.63365,-7.43216c0,0 6.83673,0.92949 13.99468,7.81532c3.66669,3.52729 6.91431,7.5181 6.91431,7.5181c0,0 1.27791,-0.00592 7.81948,2.74586c6.54157,2.75178 10.00207,7.28095 16.88342,7.54051c4.40532,-0.08614 10.61049,-4.90854 13.88683,-4.96364c1.97509,-0.03322 5.52387,0.32117 5.94162,1.96989c0.03771,0.14881 1.04654,0.02566 2.75325,-1.94781c1.00265,-1.15935 1.83325,-3.19024 2.94915,-4.36186c2.1837,-2.29275 3.83468,-7.72033 3.83468,-7.72033l-0.34701,10.14677c0,0 2.05951,-0.36985 3.14052,-0.60276c1.08101,-0.23291 5.22466,1.17607 5.22466,1.17607l-7.19851,5.04639l3.80501,2.10568c0,0 -5.96249,2.84663 -6.93304,2.33174c-0.97055,-0.5149 -1.0761,-1.57642 -1.0761,-1.57642c0,0 -1.89186,1.67151 -3.84654,2.70284c-1.95468,1.03133 -5.62342,1.06869 -5.62342,1.06869c0,0 -1.69895,1.0515 -3.4065,1.08052c-36.96674,3.22587 -43.6363,-7.84364 -43.6363,-7.84364c0,0 -4.38057,-0.04984 -9.15046,-0.16142c-4.7699,-0.11157 -14.82454,0.76142 -14.82454,0.76142c0,0 7.14614,-4.16492 9.78123,-5.26478c2.63508,-1.09986 7.19377,-1.33522 7.19377,-1.33522c0,0 -2.6391,-1.87063 -6.28234,-3.73597c-3.64324,-1.86533 -10.54266,-5.43166 -10.54266,-4.26403c0,0.44947 3.21342,-1.75643 12.21915,-0.56043z" fill="#ffffff" stroke="none" stroke-width="0" stroke-linecap="butt"/><path d="M252.09184,262.98693c0,-0.79775 1.00451,-1.15555 2.6,-1.15555c1.59549,0 2.6,0.35781 2.6,1.15555c0,0.79775 -1.67858,1.81422 -2.6,1.81422c-0.82512,0 -2.6,-1.01647 -2.6,-1.81422z" fill="#000000" stroke="none" stroke-width="0" stroke-linecap="butt"/><path d="M263.3918,265.18138c0,0 -2.38725,3.1656 -4.80113,3.69483c-1.93484,0.4242 -5.87227,-1.38221 -8.01461,-0.62024c-2.62782,0.93464 -4.4706,2.63541 -6.05284,2.87785c-2.40112,0.36791 -5.63142,-0.15245 -5.63142,-0.15245" fill="none" stroke="#000000" stroke-width="1" stroke-linecap="round"/></g><g stroke="none" stroke-width="0" stroke-linecap="butt"><path d="M173.63529,425.87895c-0.08495,-6.32396 6.83355,-10.3498 11.64503,-18.3374c3.66171,-6.07887 9.98651,-25.24727 12.96146,-25.47177c1.56209,-0.11788 -9.23361,-6.95574 -6.94204,-6.94263c4.0132,0.02295 27.62568,0.05603 34.60495,3.36394c6.59811,3.12724 -3.32156,9.41257 -3.00669,13.58504c0.57831,7.66341 0.61522,27.09342 -7.44906,39.00916c-3.62283,5.35308 -16.30919,9.75022 -18.44313,9.91125c-8.54593,0.6449 -23.15332,1.04967 -23.37052,-15.11758z" fill="#1c0e4c"/><path d="M183.08115,407.74925c0,0 1.66473,-16.90819 18.80703,-16.56217c33.88596,0.68397 22.73514,24.85968 22.73514,24.85968c0,0 -13.79503,-11.33921 -24.90267,-11.05744c-11.10764,0.28178 -16.63949,2.75994 -16.63949,2.75994z" fill="#f0993f"/><path d="M186.27937,399.64807c1.35336,0.27346 1.82977,3.56706 1.06409,7.35647c-0.76568,3.78941 -2.4835,6.63966 -3.83687,6.3662c-1.35336,-0.27346 -1.82977,-3.56706 -1.06409,-7.35647c0.76568,-3.78941 2.4835,-6.63966 3.83687,-6.3662z" fill="#c3c3c3"/><path d="M223.91591,411.98848c-3.65961,17.95045 0.70717,31.77697 -29.31692,34.10277c-26.48368,2.05154 -19.63086,-12.95953 -19.63086,-12.95953c0,0 7.53166,8.45723 22.01658,7.36415c6.39514,-0.4826 13.61072,-4.05894 17.68729,-10.15853c5.04067,-7.54213 6.21348,-17.84548 6.21348,-17.84548c0,0 3.28273,-1.74095 3.03042,-0.50337z" fill="#f0993f"/><g><path d="M229.12001,409.18893c0.44053,5.83763 -1.43459,10.7384 -4.18818,10.94619c-2.75359,0.20779 -5.34294,-4.35608 -5.78346,-10.1937c-0.44052,-5.83763 1.43459,-10.7384 4.18817,-10.94619c2.75359,-0.20779 5.34294,4.35607 5.78346,10.1937z" fill="#c3c3c3"/><path d="M224.88302,407.80383c0.16208,2.14781 -0.52782,3.95093 -1.54092,4.02738c-1.01312,0.07646 -1.96579,-1.6027 -2.12787,-3.75051c-0.16208,-2.14781 0.52782,-3.95093 1.54092,-4.02738c1.01312,-0.07645 1.96579,1.6027 2.12787,3.75051z" fill="#dd6c23"/></g></g><g stroke="none" stroke-width="0" stroke-linecap="butt"><path d="M276.60249,342.98732c13.21109,-4.13572 19.625,-13.375 19.625,-13.375c0,0 1.54069,13.31492 -2.75818,19.44391c-1.11853,1.59472 -4.88909,6.11981 -10.3574,8.94035c-8.84247,4.56093 -21.50942,7.49074 -21.50942,7.49074c0,0 1.34446,-9.14121 1.30916,-9.60649c-0.22861,-3.01347 -1.68416,-8.51851 -1.68416,-8.51851c0,0 5.94106,-1.42171 15.375,-4.375z" fill="#f0993f"/><path d="M266.64894,354.27c0,-1.66708 1.04253,-3.01852 2.32857,-3.01852c1.28604,0 2.32857,1.35144 2.32857,3.01852c0,1.66708 -1.04253,3.01852 -2.32857,3.01852c-1.28604,0 -2.32857,-1.35144 -2.32857,-3.01852z" fill="#a94a00"/><path d="M266.78675,354.22375c0,-0.95959 0.6001,-1.7375 1.34036,-1.7375c0.74026,0 1.34035,0.77791 1.34035,1.7375c0,0.95959 -0.60009,1.7375 -1.34035,1.7375c-0.74026,0 -1.34036,-0.77791 -1.34036,-1.7375z" fill="#ffffff"/><path d="M277.24895,350.67c0,-1.66708 1.04253,-3.01852 2.32857,-3.01852c1.28604,0 2.32857,1.35144 2.32857,3.01852c0,1.66708 -1.04253,3.01852 -2.32857,3.01852c-1.28604,0 -2.32857,-1.35144 -2.32857,-3.01852z" fill="#a94a00"/><path d="M277.32079,350.63284c0,-0.95959 0.6001,-1.7375 1.34035,-1.7375c0.74026,0 1.34035,0.77791 1.34035,1.7375c0,0.95959 -0.6001,1.7375 -1.34035,1.7375c-0.74026,0 -1.34035,-0.77791 -1.34035,-1.7375z" fill="#ffffff"/></g><g stroke="none" stroke-width="0" stroke-linecap="butt"><path d="M227.09324,349.77557c0.52469,5.12788 2.2,17.73333 2.2,17.73333c0,0 -12.31572,0.92292 -20.1513,0.25112c-7.83558,-0.6718 -12.02414,-0.51289 -19.36742,-2.57073c-7.34328,-2.05783 -13.99752,-5.94436 -15.54794,-7.21372c-3.27573,-2.68192 -5.2,-18.26667 -5.2,-18.26667c0,0 15.95382,4.42401 32.6841,7.14106c11.62503,1.88794 25.30057,2.12425 25.38256,2.9256z" fill="#f0993f"/><g><g><path d="M207.22107,380.9234c1.3357,-6.49329 19.68629,-29.875 23,-29.875c2.20825,0 2.75676,6.89091 4.83635,16.48128c0.51812,2.38939 -1.66045,4.63071 -3.57612,8.79333c-1.93349,4.20135 -3.60851,10.31785 -4.01023,11.3504c-0.89514,2.30078 -15,7.875 -15,7.875c0,0 -5.98324,-11.06044 -5.25,-14.625z" fill="#f0993f"/><g><path d="M226.13859,360.31453c-2.33922,-10.32376 4.13353,-20.58913 14.45729,-22.92835c10.32376,-2.33922 20.58913,4.13353 22.92835,14.45729c2.33922,10.32376 -4.13353,20.58913 -14.45729,22.92835c-10.32376,2.33922 -20.58913,-4.13353 -22.92835,-14.45729z" fill="#fde02b"/><path d="M236.9509,357.24589c-1.08628,-4.79413 1.91952,-9.56113 6.71364,-10.6474c4.79413,-1.08628 9.56113,1.91952 10.6474,6.71364c1.08628,4.79413 -1.91952,9.56113 -6.71364,10.6474c-4.79413,1.08628 -9.56113,-1.91952 -10.6474,-6.71364z" fill="#f4a51d"/><path d="M247.92521,355.2455c0.45535,2.00961 -2.61083,4.41714 -6.8485,5.37733c-4.23768,0.9602 -8.04212,0.10947 -8.49748,-1.90015c-0.45535,-2.00961 2.61083,-4.41713 6.84851,-5.37732c4.23768,-0.9602 8.04212,-0.10948 8.49748,1.90015z" fill="#fffed5"/></g></g><g><path d="M215.37656,380.24223c0,-1.82254 1.47746,-3.3 3.3,-3.3c1.82254,0 3.3,1.47746 3.3,3.3c0,1.82254 -1.47746,3.3 -3.3,3.3c-1.82254,0 -3.3,-1.47746 -3.3,-3.3z" fill="#934200"/><path d="M215.57655,379.74223c0,-0.88366 0.71634,-1.6 1.6,-1.6c0.88366,0 1.6,0.71634 1.6,1.6c0,0.88366 -0.71634,1.6 -1.6,1.6c-0.88366,0 -1.6,-0.71634 -1.6,-1.6z" fill="#1c0e4c"/></g><g><path d="M221.37656,371.04223c0,-1.82254 1.47746,-3.3 3.3,-3.3c1.82254,0 3.3,1.47746 3.3,3.3c0,1.82254 -1.47746,3.3 -3.3,3.3c-1.82254,0 -3.3,-1.47746 -3.3,-3.3z" fill="#934200"/><path d="M221.57655,370.54223c0,-0.88366 0.71634,-1.6 1.6,-1.6c0.88366,0 1.6,0.71635 1.6,1.6c0,0.88366 -0.71634,1.6 -1.6,1.6c-0.88366,0 -1.6,-0.71634 -1.6,-1.6z" fill="#684af8"/></g></g></g><g><g data-paper-data="{&quot;index&quot;:null}" stroke="none" stroke-width="0" stroke-linecap="butt"><path d="M188.7071,309.16713c-10.95256,-5.63948 -10.602,-33.36452 0.78303,-61.92563c6.08079,-15.25462 14.0795,-27.66244 21.88149,-35.05351c0.39983,-0.37877 8.33453,-9.68994 8.73304,-10.04206c6.38467,-5.64157 5.0283,1.11925 9.83127,3.5923c4.64595,2.3922 7.45339,-2.84579 8.05218,5.87247c0.09773,1.42279 -0.05351,14.51239 -0.06295,16.05343c-0.02196,3.58842 -0.33421,7.47828 -0.93558,11.58058c-1.28852,8.78964 -3.90444,18.55453 -7.83667,28.41915c-11.38503,28.56111 -29.49322,47.14276 -40.44579,41.50329z" fill="#684af8"/><path d="M184.64797,261.45743c0,0 -0.70938,9.62401 15.7883,17.68465c9.99478,4.88339 22.38281,2.65388 22.38281,2.65388c0,0 -3.02804,5.07816 -4.91628,8.0778c-2.74519,4.36098 -5.39004,7.42549 -5.39004,7.42549c0,0 -7.75664,2.98961 -16.86866,-0.27923c-8.06854,-2.8945 -14.95885,-11.48976 -14.95885,-11.48976c0,0 -0.52381,-4.32013 0.78301,-10.51156c0.91965,-4.35715 3.17971,-13.56126 3.17971,-13.56126z" fill="#1c0e4c"/><path d="M195.33633,234.85672c0,0 0.68734,6.68306 17.18502,14.74371c9.99478,4.88339 20.93697,4.07538 20.93697,4.07538c0,0 -1.1183,5.61655 -2.13714,8.45013c-1.01884,2.83358 -2.96389,6.46957 -2.96389,6.46957c0,0 -13.06507,0.20102 -22.17709,-3.06781c-8.06854,-2.8945 -18.07145,-14.57747 -18.07145,-14.57747c0,0 1.72197,-4.97285 3.08684,-8.01197c1.36487,-3.03911 4.14074,-8.08152 4.14074,-8.08152z" fill="#1c0e4c"/><path d="M210.7892,213.26618c0,0 -0.81257,5.34506 10.93549,11.43563c9.99478,4.88339 16.11213,4.12163 16.11213,4.12163c0,0 0.09923,3.86683 -0.15222,6.06055c-0.25145,2.19372 -1.65326,8.1954 -1.65326,8.1954c0,0 -12.29679,-1.43602 -19.63887,-4.9005c-7.34207,-3.46448 -16.19833,-12.00985 -16.19833,-12.00985c0,0 2.53447,-3.45469 4.64741,-6.62987c1.84568,-2.77355 5.94764,-6.273 5.94764,-6.273z" fill="#1c0e4c"/></g><g><path d="M219.57894,179.16976c0.66247,-1.55651 3.39969,-1.29965 4.41641,-0.0336c1.01672,1.26605 -1.20075,5.52724 -0.11937,5.38442c1.24953,-0.16503 1.73903,-5.74619 1.98797,-5.53134c0.29038,0.25063 -0.2999,-3.80512 3.25075,-5.13807c5.60743,-2.10508 7.11478,3.74039 7.11478,3.74039c0,0 2.86782,-0.96025 4.77232,0.13799c1.90448,1.09824 3.59025,3.21043 3.19644,4.45722c-0.21946,0.69478 0.66501,-1.65532 2.5363,-0.82848c1.87129,0.82684 3.79015,3.62384 3.79015,3.62384c0,0 1.95038,-0.2 3.57085,0.5737c5.09311,2.4317 -1.36053,7.87228 -4.16323,11.71638c-4.29621,5.89254 -9.20844,8.68238 -9.72398,9.12232c-1.08591,0.92668 2.63347,8.40169 0.44621,8.93896c-2.62383,0.64451 -8.59276,2.86698 -11.84068,0.35286c-1.36012,-1.05283 -1.71482,-4.22221 -1.95619,-5.95609c-0.40206,-2.88818 -1.13333,4.13885 -4.73129,2.61461c-3.59796,-1.52424 -6.4269,-7.85859 -6.4269,-7.85859l4.38439,-5.46257c0,0 -5.54588,-8.00979 -0.50492,-19.85397z" fill="#ffc281" stroke="none" stroke-width="0" stroke-linecap="butt"/><path d="M235.49006,181.93868l0.60941,-3.76711" fill="none" stroke="#d9874c" stroke-width="1.5" stroke-linecap="round"/><path d="M244.24542,182.89052l-0.19713,2.14152" fill="none" stroke="#d9874c" stroke-width="1.5" stroke-linecap="round"/><path d="M249.94907,188.14346l0.36047,-2.33079" fill="none" stroke="#d9874c" stroke-width="1.5" stroke-linecap="round"/><path d="M239.60886,206.62872c0,0 -7.08164,-0.39411 -10.36678,-1.55811c-3.20389,-1.13522 -9.10641,-5.34169 -9.10641,-5.34169" fill="none" stroke="#d9874c" stroke-width="1.5" stroke-linecap="round"/></g></g><path d="M249.55417,158.08754c-0.67989,2.50331 -4.85511,3.07452 -7.0629,1.67886c-2.63822,-1.70884 -2.98941,-6.16404 -3.94233,-9.32797c-0.67668,-2.26507 -1.66869,-4.8883 -0.98558,-7.08966c0.93312,-3.63397 2.93694,-10.29428 6.2422,-3.35772c0.71577,2.36893 0.98879,5.45095 1.80681,8.02171c1.10336,3.47764 4.8519,6.72777 3.9418,10.07479z" data-paper-data="{&quot;index&quot;:null}" fill="#f8b820" stroke="none" stroke-width="0.65663" stroke-linecap="round"/><path d="M232.15523,168.52706c-0.67989,2.50331 -4.85511,3.07452 -7.0629,1.67887c-2.63822,-1.70884 -3.00921,-6.23845 -3.94233,-9.32797c-0.67347,-2.26507 -0.86032,-4.80586 -0.98559,-7.08966c-0.26607,-4.94022 -1.54717,-10.40992 0.32871,-14.73824c0.89992,-1.99258 4.88829,-1.537 5.9135,0.37314c1.6521,3.08202 -0.35494,7.36537 0,11.00737c0.26928,2.76456 0.98879,5.45095 1.80681,8.02172c1.10336,3.47764 4.8519,6.72777 3.9418,10.07478z" data-paper-data="{&quot;index&quot;:null}" fill="#f8b820" stroke="none" stroke-width="0.65663" stroke-linecap="round"/><g data-paper-data="{&quot;index&quot;:null}" stroke-linecap="round"><path d="M247.15338,184.84372c-4.0402,-4.57967 -3.162,-9.29242 -4.72673,-14.81661c-0.20585,-0.72519 -3.5792,0.17495 -4.57357,-1.68765c-1.70761,-3.19868 3.19498,-5.08311 3.19498,-5.08311c0,0 -2.20672,0.5921 -4.46039,0.71132c-2.22155,0.11757 -3.50564,-1.6143 -2.97779,-2.78897c0.74382,-1.65156 1.1176,-1.61494 4.29411,-3.37812c3.17646,-1.76313 4.83888,-2.57365 8.85798,-4.06268c4.01916,-1.48908 2.75776,-1.09276 5.29619,-1.43121c0.73541,-0.02677 1.97234,-0.31243 2.89663,0.64553c1.82052,1.88674 -4.00202,5.4478 -4.00202,5.4478c0,0 5.89005,-2.47322 6.69961,-1.65847c1.45868,1.46804 0.51212,2.61059 0.94142,2.74513c0.64322,0.20156 -2.89278,2.34838 -2.15163,2.42707c1.70659,0.18116 6.13224,0.06473 7.03538,1.01005c2.43344,2.71938 6.56502,6.69216 5.10255,9.11656c-0.98874,1.63518 -8.12508,-3.34161 -8.37199,-2.75101c-0.2484,0.59767 6.14583,2.20078 6.80352,4.60611c0.59312,2.16812 -2.05399,4.62844 -3.67996,6.80449c-2.0376,2.45502 -5.1057,4.59112 -8.47762,5.89909c-4.01637,1.55482 -5.40887,0.84607 -7.70066,-1.75531z" fill="#a8c8d8" stroke="none" stroke-width="0.67216"/><path d="M256.95814,161.77349c0,0 -4.58765,3.74136 -7.56008,5.51455c-2.97243,1.77319 -6.92906,2.55534 -6.92906,2.55534" fill="none" stroke="#707070" stroke-width="0.25"/></g><g data-paper-data="{&quot;index&quot;:null}" stroke-linecap="round"><path d="M244.10541,190.32273c-2.24693,2.26507 -5.12947,4.02868 -8.6039,5.03301c-4.13822,1.1933 -8.29667,1.67539 -10.34921,-1.11862c-3.61898,-4.91935 -2.12781,-10.28454 -0.36324,-15.61065c-0.14085,-0.7405 -4.14266,-0.92755 -4.96822,-2.87082c-1.41782,-3.33733 3.63231,-4.78037 3.63231,-4.78037c0,0 -2.25041,0.3944 -4.50584,0.31372c-2.22326,-0.07955 -3.34911,-1.91827 -2.71927,-3.04161c0.88708,-1.57929 1.25621,-1.50975 4.5763,-2.9848c3.32009,-1.47505 5.04767,-2.13519 9.18283,-3.26264c4.13517,-1.12745 2.84363,-0.84441 5.40208,-0.95684c0.73487,0.03839 1.99225,-0.13657 2.82815,0.89939c1.64637,2.04049 -4.46852,5.07214 -4.46852,5.07214c0,0 6.08593,-1.94215 6.82017,-1.05898c1.32301,1.59133 0.27903,2.64565 0.69473,2.81766c0.62288,0.25777 -3.08936,2.08317 -2.35801,2.22712c1.68384,0.33149 4.10567,1.09051 4.9216,2.11212c2.18317,2.92409 8.2411,8.54818 6.56973,10.8336c-3.21152,4.81286 -8.39223,-5.53473 -8.69042,-4.96833c-0.30033,0.57336 3.54751,3.03363 4.88198,7.27217c0.39883,2.21207 -0.67112,2.04906 -2.48329,4.07269z" fill="#ffffff" stroke="none" stroke-width="0.67216"/><path d="M239.43195,170.90632c0,0 -4.90072,3.32052 -8.01845,4.82368c-3.11773,1.50316 -6.65421,2.30576 -6.65421,2.30576" fill="none" stroke="#707070" stroke-width="0.25"/></g></g></g></svg>