<svg version="1.1" xmlns="http://www.w3.org/2000/svg" xmlns:xlink="http://www.w3.org/1999/xlink" width="34.75014" height="42.35776" viewBox="0,0,34.75014,42.35776"><defs><radialGradient cx="284.52677" cy="248.14037" r="43.83749" gradientUnits="userSpaceOnUse" id="color-1"><stop offset="0" stop-color="#020009"/><stop offset="1" stop-color="#000916"/></radialGradient><radialGradient cx="307.42103" cy="235.26342" r="37.63732" gradientUnits="userSpaceOnUse" id="color-2"><stop offset="0" stop-color="#0a2139"/><stop offset="1" stop-color="#0b1c2d"/></radialGradient></defs><g transform="translate(-282.62493,-218.82113)"><g data-paper-data="{&quot;isPaintingLayer&quot;:true}" fill-rule="nonzero" stroke="#000000" stroke-width="0" stroke-linecap="butt" stroke-linejoin="miter" stroke-miterlimit="10" stroke-dasharray="" stroke-dashoffset="0" style="mix-blend-mode: normal"><path d="M282.86781,248.94518c-0.80418,-1.56241 0.4639,-21.55584 2.693,-23.08102c2.69349,-1.34209 18.42973,-7.64766 18.38578,-6.99594c-0.02172,0.77524 2.41745,36.45567 2.41745,36.45567c0,0 -4.38393,5.70619 -10.88784,5.85439c-4.17503,0.09513 -12.00262,-11.05609 -12.60842,-12.23309z" data-paper-data="{&quot;index&quot;:null}" fill="url(#color-1)"/><path d="M317.37507,230.83697c0,0 -0.59001,15.2037 -3.48391,17.62531c-1.94924,1.63112 -7.19838,7.54855 -7.84603,6.91013c-5.04601,-4.97418 -9.27216,-14.52236 -9.43065,-16.48141c-1.2077,-14.92765 5.19161,-19.47352 6.17189,-19.72352c1.36628,-0.34846 1.85495,-0.40631 3.80515,0.16072c2.00141,0.58193 3.90441,3.15132 6.26442,5.59487c2.36002,2.44356 4.51909,5.9139 4.51909,5.9139z" data-paper-data="{&quot;index&quot;:null}" fill="url(#color-2)"/></g></g></svg>