<svg version="1.1" xmlns="http://www.w3.org/2000/svg" xmlns:xlink="http://www.w3.org/1999/xlink" width="32.57439" height="31.89028" viewBox="0,0,32.57439,31.89028"><defs><radialGradient cx="246.3533" cy="178.28088" r="13.2319" gradientUnits="userSpaceOnUse" id="color-1"><stop offset="0" stop-color="#f8b820"/><stop offset="1" stop-color="#e88820"/></radialGradient></defs><g transform="translate(-221.69553,-161.7272)"><g data-paper-data="{&quot;isPaintingLayer&quot;:true}" fill-rule="nonzero" stroke-linejoin="miter" stroke-miterlimit="10" stroke-dasharray="" stroke-dashoffset="0" style="mix-blend-mode: normal"><g data-paper-data="{&quot;index&quot;:null}"><g><path d="M233.03002,185.39669c0,0 -2.49827,2.76216 -2.88864,3.62328c-0.54759,1.20783 -1.04144,4.43906 -1.04144,4.43906c0,0 -0.64836,0.10783 -0.42258,-1.11739c0.13078,-0.70961 0.65689,-2.41089 1.18234,-3.49646c0.62987,-1.30133 2.35344,-3.56232 2.35344,-3.56232l0.81689,0.11382z" fill="#989898" stroke="#989898" stroke-width="0" stroke-linecap="round"/><path d="M233.26913,190.39792l-2.65034,-2.28597c0,0 0.94645,-1.62418 1.73318,-2.40741c0.37387,-0.37199 0.79924,-0.50169 1.28771,0.20338c0.34361,0.49598 0.3436,0.93737 0.35395,1.49958c0.01463,0.8618 -0.7245,2.99042 -0.7245,2.99042z" fill="#f82020" stroke="none" stroke-width="1.13968" stroke-linecap="round"/><path d="M230.68293,188.04659c0,0 2.66504,0.90679 2.61879,2.21771c-0.03366,0.73523 -1.31594,2.51741 -1.8694,2.95411c-0.55695,0.43912 -1.80704,0.48049 -2.36926,0.29467c-0.33025,-0.1091 -0.13062,-0.83464 -0.03501,-1.26353c0.23984,-1.06936 0.65785,-2.31078 1.06572,-3.21753c0.40787,-0.90677 0.58918,-0.98543 0.58918,-0.98543z" fill="#f8f8f8" stroke="none" stroke-width="1.15102" stroke-linecap="round"/><path d="M235.75477,187.9223c-0.07725,0.35963 -0.31595,2.10448 -0.66105,2.53497c-0.26603,0.33185 -0.77026,-0.27843 -0.77026,-0.27843c0,0 -0.61802,0.11086 -0.73863,0.08496c-0.45471,-0.09768 0.06952,-1.3346 0.25571,-2.20138c0.03724,-0.17335 -0.0452,-1.06787 0.12341,-1.55417c0.10033,-0.2894 0.14807,-0.56777 0.57552,-0.71907c0.44023,-0.15584 0.48246,0.48774 0.48246,0.48774c0,0 0.52208,-0.57412 0.93043,0.02551c0.3595,0.52789 -0.1076,1.20081 -0.19761,1.61986z" fill="#ffffff" stroke="none" stroke-width="0" stroke-linecap="butt"/></g><path d="M233.30935,188.29369c0.28999,-1.34991 0.38548,-2.36057 0.72735,-2.28714c0.12461,0.02677 0.00222,1.08846 -0.28776,2.43838c-0.28998,1.34992 -0.32714,2.089 -0.45175,2.06223c-0.34187,-0.07344 -0.27782,-0.86356 0.01216,-2.21348z" fill="#424242" stroke="none" stroke-width="0" stroke-linecap="butt"/></g><g data-paper-data="{&quot;index&quot;:null}" stroke="none" stroke-width="1" stroke-linecap="round"><path d="M244.25771,182.31897c-0.8971,0.2112 -0.32301,-2.01161 -0.87573,-2.82414c-0.52812,-0.77691 -2.00034,-0.86141 -2.18827,-1.78148c-0.44327,-2.17321 3.11295,-4.52808 4.86993,-6.57409c1.75699,-2.046 4.76803,-3.20226 6.15634,-3.77417c0.88261,-0.36359 -0.64294,2.26642 -0.13441,2.18157c0.42534,-0.073 1.51743,-1.91296 2.00191,-1.67979c0.78518,0.98234 -1.23455,2.36796 -0.96919,3.78424c0.53788,1.12326 -3.3536,6.00369 -3.38923,6.07188c-1.36427,1.43054 -3.55945,4.14527 -5.47135,4.59599z" data-paper-data="{&quot;index&quot;:null}" fill="#f8f8f8"/><path d="M237.57503,186.89874c1.14604,-4.25644 1.55505,-7.60344 4.75049,-12.00418c0.47973,-0.99176 -0.60593,1.85183 0.30513,2.39565c1.19296,0.71087 2.99143,-0.61269 4.1704,0.10052c0.61255,0.31939 -1.08393,1.85416 -0.5875,1.96466c0.8702,0.19167 4.21603,-2.24502 3.37657,-1.35971c-3.3964,3.57656 -7.6017,7.09012 -11.73866,10.17038c-1.03393,0.77017 -0.56336,-0.20328 -0.27641,-1.26731z" data-paper-data="{&quot;index&quot;:null}" fill="url(#color-1)"/></g><path d="M233.58197,178.86521c-0.06709,0.91918 -2.01604,-0.29408 -2.95679,-0.00998c-0.89939,0.27128 -1.42079,1.65067 -2.35493,1.55451c-2.20624,-0.22774 -3.38835,-4.32587 -4.81446,-6.61483c-1.42611,-2.28896 -1.62781,-5.50809 -1.75783,-7.00393c-0.08266,-0.95097 1.96995,1.29202 2.04125,0.78141c0.05769,-0.42768 -1.3709,-2.02055 -1.00337,-2.41301c1.17237,-0.45505 1.8897,1.88689 3.32047,2.05774c1.30079,-0.18666 4.00127,4.28851 5.04126,5.3288c0.88104,1.67609 2.62676,4.36013 2.48438,6.31928z" data-paper-data="{&quot;index&quot;:null}" fill="#f8f8f8" stroke="none" stroke-width="1" stroke-linecap="round"/><path d="M235.95084,186.61251c-3.71807,-2.36784 -7.51739,-4.31008 -9.8555,-7.93518c-0.80263,-0.75466 1.40975,0.94112 2.20139,0.23467c1.03544,-0.9254 0.31106,-3.03764 1.34454,-3.94899c0.48813,-0.48882 1.44458,1.58934 1.69864,1.14877c0.44341,-0.77289 -0.87976,-4.69479 -0.28639,-3.62877c2.39561,4.31143 4.48891,9.37579 6.18927,14.2452c0.42527,1.21709 -0.36263,0.47665 -1.29194,-0.11571z" data-paper-data="{&quot;index&quot;:null}" fill="#f8b820" stroke="none" stroke-width="1" stroke-linecap="round"/><path d="M235.6601,187.76965c0.31371,-0.38326 1.09507,0.1401 1.47756,-0.19661c0.45023,-0.39792 0.21091,-1.28566 0.65957,-1.68044c0.25087,-0.22166 0.9033,-0.18085 1.00038,0.12056c0.24433,0.77011 0.0445,1.65139 -0.16594,2.43671c-0.11707,0.43917 -0.38262,0.8935 -0.79439,1.01007c-0.67272,0.19826 -1.55103,0.2125 -2.12582,-0.23736c-0.36999,-0.28358 -0.37007,-1.05846 -0.05137,-1.45294z" data-paper-data="{&quot;index&quot;:null}" fill="#e88820" stroke="none" stroke-width="0.49091" stroke-linecap="round"/><path d="M233.96967,186.31709c-0.54009,-1.46169 -0.15041,-2.29517 0.56782,-2.56056c0.89813,-0.33185 1.85257,-0.23398 3.49527,-0.02041c0.42557,-0.2007 2.06662,-2.72374 3.61065,-1.84662c2.55911,1.45376 1.45766,1.88396 1.38957,2.24662c-0.22665,1.20707 -2.94479,2.92817 -4.67831,3.5687c-2.25437,0.83298 -3.8449,0.07396 -4.38499,-1.38773z" data-paper-data="{&quot;index&quot;:null}" fill="#089c4e" stroke="none" stroke-width="0" stroke-linecap="butt"/><path d="M236.36914,185.60331c0.47312,0.92584 1.20663,2.46079 0.9291,2.56333c-0.27752,0.10255 -0.76282,-1.38567 -1.2392,-2.31789c-0.47638,-0.93222 -1.44072,-2.28082 -1.1632,-2.38336c0.27752,-0.10255 1.00018,1.21209 1.47329,2.13793z" data-paper-data="{&quot;index&quot;:null}" fill="#000000" stroke="#000000" stroke-width="0" stroke-linecap="butt"/><path d="M241.49529,186.23937c-0.22085,0.0816 -0.46605,-0.03127 -0.54765,-0.25213c-0.0816,-0.22085 0.03128,-0.46605 0.25214,-0.54765c0.22085,-0.08161 0.46605,0.03127 0.54765,0.25213c0.0816,0.22085 -0.03128,0.46605 -0.25214,0.54765z" data-paper-data="{&quot;index&quot;:null}" fill="#ffffff" stroke="none" stroke-width="0" stroke-linecap="butt"/><path d="M241.29586,185.68249l0.57457,1.87321l-1.19696,-1.58031l-0.94706,0.49236l-0.54128,-1.49376l-1.66053,0.00937l0.82551,-1.11825l-1.30484,-1.22581c0,0 2.02813,0.84107 2.86462,1.33799c0.67095,0.39858 1.76817,1.41408 1.76817,1.41408l0.41301,0.6215z" data-paper-data="{&quot;index&quot;:null}" fill="#cf0000" stroke="none" stroke-width="0" stroke-linecap="butt"/><path d="M235.71287,188.01162c-1.43788,-0.57945 -2.05211,-1.63582 -2.23513,-3.04601c-0.0434,-0.52857 1.0193,-1.368 1.0193,-1.368l2.28539,4.44029c0,0 -0.07646,0.37128 -1.06955,-0.0263z" data-paper-data="{&quot;index&quot;:null}" fill="#f8b820" stroke="none" stroke-width="0.49091" stroke-linecap="round"/><path d="M240.35336,186.80346c-0.22085,0.0816 -0.46605,-0.03128 -0.54765,-0.25214c-0.0816,-0.22084 0.03128,-0.46604 0.25214,-0.54764c0.22084,-0.0816 0.46604,0.03127 0.54764,0.25213c0.0816,0.22085 -0.03127,0.46605 -0.25213,0.54765z" data-paper-data="{&quot;index&quot;:null}" fill="#ffffff" stroke="none" stroke-width="0" stroke-linecap="butt"/><path d="M240.19418,170.95758c0.97612,-1.14191 2.07698,-2.53888 2.69634,-2.46179c0.52153,0.06555 1.99389,4.50265 2.37248,4.81994c0.64006,0.53751 0.87392,0.46175 1.67174,0.62297c0.70063,0.08949 2.00598,-0.32501 2.85595,-0.56977c0.84998,-0.24476 2.26066,-0.72701 2.18281,-0.14572c0.05211,0.74789 -0.72179,1.58215 -1.42697,2.59152c-0.70519,1.00938 -1.51725,1.61673 -1.83718,2.22299c-0.8506,1.60509 -1.42884,4.65575 -2.97323,5.61094c-1.30627,0.80669 -3.26061,-0.14324 -4.66662,-0.86468c-1.74121,-0.89278 -4.18692,-1.83886 -4.51505,-3.77019c-0.38499,-2.27049 2.08671,-5.28663 2.08671,-5.28663c0,0 0.5769,-1.62767 1.55302,-2.76959z" data-paper-data="{&quot;index&quot;:null}" fill="#f8b820" stroke="none" stroke-width="1" stroke-linecap="round"/><path d="M240.09435,173.6063c-0.16409,-0.2241 2.22111,-4.351 2.54988,-4.3439c0.29116,0.00831 1.06814,1.84589 1.11118,2.35883c0.04091,0.48884 0.60346,1.2967 0.35855,1.72758c-0.09421,0.16198 -0.9311,-0.07227 -1.74764,-0.02233c-0.81655,0.04994 -2.18954,0.39158 -2.27199,0.27982z" data-paper-data="{&quot;index&quot;:null}" fill="#ffffff" stroke="none" stroke-width="0.85185" stroke-linecap="butt"/><path d="M236.37736,178.18165c-0.17536,-0.47017 2.41846,1.38913 3.06932,2.48879c0.43034,0.7277 0.88642,1.2213 1.59619,1.65326c0.71804,0.45151 1.67262,0.7498 2.51959,0.66061c0.95789,-0.10087 2.26551,0.18768 2.76894,0.97735c0.28832,0.45229 -0.55063,1.55054 -1.14978,1.66071c-1.06488,0.41987 -2.19321,0.32113 -2.9188,0.09928c-0.78784,-0.27288 -1.86883,-0.83609 -2.6053,-1.33447c-0.73647,-0.49838 -1.33429,-1.24587 -1.62801,-1.5934c-0.26605,-0.31512 -2.44685,-0.86759 -2.44685,-0.86759l0.80694,-0.57554l-1.11717,-1.4852c0,0 1.6129,0.3614 1.53366,0.22126c-0.42357,-0.74979 -0.68801,-1.34352 -0.68801,-1.34352c0,0 0.52138,0.6075 1.15562,0.54389c0.32139,-0.03168 -0.7632,-0.74943 -0.89633,-1.10541z" data-paper-data="{&quot;index&quot;:null}" fill="#f8f8f8" stroke="none" stroke-width="1" stroke-linecap="round"/><path d="M245.75162,183.54407c0.33268,0.13472 0.49754,0.28275 0.67005,0.48381c0.1725,0.20104 -0.67703,0.48975 -1.00971,0.35504c-0.33268,-0.13471 -0.58044,-0.86773 -0.31665,-0.89213c0.2638,-0.0244 0.32365,-0.08143 0.65632,0.05328z" data-paper-data="{&quot;index&quot;:null}" fill="#101010" stroke="none" stroke-width="1" stroke-linecap="butt"/><path d="M240.65989,183.88828l1.33119,1.37839" data-paper-data="{&quot;index&quot;:null}" fill="none" stroke="#cccccc" stroke-width="0.36953" stroke-linecap="round"/><path d="M251.61322,173.29279c0,0 -0.36201,0.95752 -0.86464,1.63136c-0.50263,0.67385 -1.45628,1.54818 -1.59943,1.49022c-0.27924,-0.11306 -1.46246,-1.47488 -1.46246,-1.47488z" data-paper-data="{&quot;index&quot;:null}" fill="#ffffff" stroke="none" stroke-width="0" stroke-linecap="butt"/><path d="M247.05777,177.01906l1.94303,2.29107l-0.40869,3.23107l-0.40976,-2.65528l-1.66347,-2.4863z" data-paper-data="{&quot;index&quot;:null}" fill="#f8b820" stroke="none" stroke-width="1.22222" stroke-linecap="round"/><path d="M247.47358,176.27473c0,0 2.57771,1.07006 2.77121,1.32211c0.27587,0.3593 0.35099,3.20877 0.35099,3.20877l-1.27897,-2.70284l-2.14792,-1.06374z" data-paper-data="{&quot;index&quot;:null}" fill="#f8b820" stroke="none" stroke-width="1.22222" stroke-linecap="round"/><path d="M247.26409,174.9721c0,0 3.10849,0.30413 3.47775,0.46104c0.60904,0.25882 2.7071,3.12081 2.7071,3.12081c0,0 -2.7143,-1.95698 -3.61765,-2.35181c-0.90335,-0.39484 -2.48624,-0.31603 -2.48624,-0.31603z" data-paper-data="{&quot;index&quot;:null}" fill="#f8b820" stroke="none" stroke-width="1.22222" stroke-linecap="round"/><path d="M232.65407,185.07775c0.4953,-0.00622 0.59707,0.92868 1.10085,1.00498c0.59434,0.08883 0.79764,-0.66537 1.38841,-0.57572c0.33115,0.04949 0.71946,0.81728 0.55113,1.08545c-0.43258,0.68242 -0.91334,0.85423 -1.65001,1.19822c-0.41159,0.19283 -0.93026,0.28161 -1.28439,0.04137c-0.58437,-0.38755 -1.16024,-1.05095 -1.18541,-1.78052c-0.02075,-0.4657 0.57247,-0.96406 1.07943,-0.97376z" data-paper-data="{&quot;index&quot;:null}" fill="#f8b820" stroke="none" stroke-width="0.49091" stroke-linecap="round"/><path d="M240.65739,177.81702l2.16667,4.41667l-3.16667,-1.66667" data-paper-data="{&quot;index&quot;:null}" fill="none" stroke="#5d2404" stroke-width="0.5" stroke-linecap="round"/><path d="M247.90738,183.31703l-3,-0.5l3.66667,-2.16667" data-paper-data="{&quot;index&quot;:null}" fill="none" stroke="#5d2404" stroke-width="0.5" stroke-linecap="round"/><g data-paper-data="{&quot;index&quot;:null}"><g><path d="M232.83572,181.98747c0,0 -3.72395,-0.05534 -4.62864,0.21937c-1.26897,0.38528 -4.02312,2.14578 -4.02312,2.14578c0,0 -0.50876,-0.41612 0.56098,-1.05472c0.61956,-0.36985 2.2452,-1.09679 3.40768,-1.41805c1.39352,-0.38512 4.22975,-0.58138 4.22975,-0.58138l0.45336,0.68901z" fill="#989898" stroke="#989898" stroke-width="0" stroke-linecap="round"/><path d="M229.23489,185.46648l-0.03045,-3.49985c0,0 1.84498,-0.3602 2.95261,-0.28564c0.5262,0.03558 0.90429,0.26969 0.69665,1.10192c-0.14606,0.58544 -0.47778,0.87661 -0.89347,1.25528c-0.63802,0.57951 -2.72534,1.42829 -2.72534,1.42829z" fill="#f82020" stroke="none" stroke-width="1.13968" stroke-linecap="round"/><path d="M229.29586,181.9717c0,0 1.07664,2.60107 0.06094,3.43112c-0.57475,0.45973 -2.76002,0.67176 -3.45334,0.54391c-0.69743,-0.12887 -1.55321,-1.04105 -1.78445,-1.58616c-0.13587,-0.32017 0.5411,-0.64878 0.92649,-0.85986c0.96189,-0.52522 2.17061,-1.03004 3.12113,-1.32169c0.95054,-0.29166 1.12926,-0.2073 1.12926,-0.2073z" fill="#f8f8f8" stroke="none" stroke-width="1.15102" stroke-linecap="round"/><path d="M230.39397,186.87685c-0.42489,0.01899 -0.2989,-0.76256 -0.2989,-0.76256c0,0 -0.49102,-0.39132 -0.55112,-0.49905c-0.22656,-0.40616 1.04884,-0.8282 1.82309,-1.26008c0.15485,-0.08636 0.77272,-0.73843 1.24942,-0.93253c0.28368,-0.11551 0.52438,-0.26327 0.92007,-0.04184c0.40755,0.22805 -0.04827,0.68435 -0.04827,0.68435c0,0 0.77588,0.01362 0.59463,0.71608c-0.15957,0.61842 -0.97342,0.71131 -1.34773,0.92011c-0.32123,0.17919 -1.79,1.15089 -2.34119,1.17552z" fill="#ffffff" stroke="none" stroke-width="0" stroke-linecap="butt"/></g><path d="M230.84282,184.10856c1.2058,-0.67261 2.02833,-1.26758 2.19868,-0.96221c0.06209,0.11131 -0.81655,0.71973 -2.02235,1.39234c-1.2058,0.67261 -1.78576,1.13225 -1.84784,1.02095c-0.17035,-0.30538 0.46571,-0.77848 1.67151,-1.45109z" fill="#424242" stroke="none" stroke-width="0" stroke-linecap="butt"/></g><path d="M245.50458,170.91227l-1.11153,0.61768l-1.14247,-1.21831c0,0 -0.57206,1.81777 -1.15695,1.49965c-0.14246,-0.07749 -1.05667,-0.93499 -1.05667,-0.93499l-1.43549,0.73954l0.3105,-2.23968l1.7426,-6.11033c0,0 1.93838,4.11807 2.66034,5.12129c0.87642,1.21788 1.18967,2.52517 1.18967,2.52517z" data-paper-data="{&quot;index&quot;:null}" fill="#23d892" stroke="none" stroke-width="0" stroke-linecap="butt"/><path d="M246.28759,174.00873c-2.65165,-0.65139 -1.68962,-0.18161 -3.60645,-0.44178c-1.7026,-0.23112 -3.28956,0.5562 -4.01598,-0.16274c-0.34173,-0.33822 0.39199,-1.16801 0.39199,-1.16801l0.75556,-2.63625l0.07081,2.01999l0.8402,-1.34873l1.41219,1.33317c0,0 0.31665,-0.52959 0.48498,-0.87098c0.16834,-0.34137 0.38613,-0.89565 0.38613,-0.89565l1.55801,1.5781l0.5557,-1.22658c0,0 0.66718,0.96386 0.99517,1.67438c0.32591,0.70597 0.74309,2.28544 0.1717,2.14508z" data-paper-data="{&quot;index&quot;:null}" fill="#fd0000" stroke="none" stroke-width="0" stroke-linecap="butt"/><g data-paper-data="{&quot;index&quot;:null}" stroke-width="0" stroke-linecap="butt"><path d="M241.61263,161.75991c0.47936,-0.01883 0.88324,0.35448 0.90207,0.83384c0.01883,0.47936 -0.35448,0.88324 -0.83384,0.90207c-0.47936,0.01883 -0.88324,-0.35448 -0.90207,-0.83384c-0.01883,-0.47936 0.35448,-0.88324 0.83384,-0.90207z" fill="#db7b04" stroke="none"/><path d="M242.60236,162.62106c0.01099,0.2796 -0.48129,0.26007 -0.94493,0.2783c-0.46363,0.01824 -0.92752,-0.01096 -0.93738,-0.26184c-0.00647,-0.16473 0.45995,-0.07059 0.92359,-0.08882c0.46365,-0.01821 0.95223,-0.09235 0.9587,0.07237z" fill="#feeb00" stroke="#000000"/><path d="M241.66461,161.8286c0.00712,0.18102 -0.0216,0.588 -0.11211,0.59155c-0.0905,0.00356 -0.2755,0.094 -0.28261,-0.08701c-0.00711,-0.18102 0.1089,-0.56266 0.19941,-0.56621c0.0905,-0.00355 0.18821,-0.11933 0.19532,0.06168z" fill="#000000" stroke="none"/><path d="M242.21365,162.38718c-0.0476,0.00187 -0.0902,-0.0995 -0.09519,-0.22639c-0.00499,-0.12688 0.03067,-0.20256 0.07826,-0.20443c0.0476,-0.00188 0.15329,0.24083 0.15828,0.36772c0.00499,0.12689 -0.09376,0.06122 -0.14134,0.06309z" fill="#000000" stroke="none"/></g></g></g></svg>