<svg version="1.1" xmlns="http://www.w3.org/2000/svg" xmlns:xlink="http://www.w3.org/1999/xlink" width="32.08348" height="31.23806" viewBox="0,0,32.08348,31.23806"><g transform="translate(-222.60111,-166.31481)"><g data-paper-data="{&quot;isPaintingLayer&quot;:true}" fill-rule="nonzero" stroke-width="0" stroke-linejoin="miter" stroke-miterlimit="10" stroke-dasharray="" stroke-dashoffset="0" style="mix-blend-mode: normal"><g data-paper-data="{&quot;index&quot;:null}" fill="#033397"><path d="M244.38769,188.9192c-4.55146,0 -8.24112,-3.68968 -8.24112,-8.24112c0,-4.55146 3.68968,-8.24114 8.24112,-8.24114c4.55146,0 8.24112,3.6897 8.24112,8.24114c0,4.55146 -3.68968,8.24112 -8.24112,8.24112z" stroke="none" stroke-linecap="butt"/><path d="M241.24455,188.28432c0,0 -3.40222,0.03568 -5.85849,2.25933c-2.45628,2.22367 -4.37966,7.00922 -4.37966,7.00922c0,0 -1.55679,-2.33345 -1.39043,-6.54002c0.14094,-3.56431 1.88697,-6.5315 1.88697,-6.5315c0,0 -2.72216,0.74039 -3.99982,1.62056c-2.12473,1.46369 -4.79068,4.64938 -4.79068,4.64938c0,0 -0.80004,-4.70724 1.88939,-10.23891c2.31709,-4.76583 6.49353,-6.58324 6.49353,-6.58324c0,0 -1.91041,-1.4588 -3.60173,-1.93179c-2.05419,-0.57448 -4.48388,-0.38139 -4.48388,-0.38139c0,0 5.89136,-6.43033 15.23144,-5.1267c13.58536,1.83524 14.52408,12.92594 14.52408,12.92594" stroke="#000000" stroke-linecap="round"/></g><path d="M249.40626,172.43296c0,0 1.55209,-0.14185 2.43992,-0.33684c0.81482,-0.17893 2.30462,-0.84381 2.68681,-0.78905c0.458,0.0656 -0.23425,2.19493 -0.59086,3.25566c-0.40811,1.21395 -1.72425,3.6306 -1.72425,3.6306" data-paper-data="{&quot;index&quot;:null}" fill="#033397" stroke="#000000" stroke-linecap="round"/><path d="M252.35496,177.98758c0,0 0.54322,1.7915 0.30443,3.44304c-0.23878,1.65152 -1.38704,4.04463 -1.38704,4.04463c0,0 -1.13823,-0.85992 -1.35182,-0.91064c-1.73243,-0.41144 -3.45113,1.67407 -5.36083,1.2693c-1.90972,-0.40474 -2.88664,-1.86119 -3.57412,-3.15609c-0.68748,-1.29492 -0.54034,-3.5797 -0.10197,-4.59825c0.63338,-1.19737 1.7465,-1.43211 2.24793,-1.37209c0.58309,0.06979 1.8507,0.26661 3.09968,1.94775c1.23484,1.66206 1.59022,4.64368 2.82874,5.29284c0.37231,0.38897 0.99666,-0.45682 0.99666,-0.45682c0,0 0.23459,0.26064 0.37955,0.01155c0.45508,-0.78187 0.45911,-0.82493 0.92676,-2.12268c0.46766,-1.29775 0.99206,-3.39254 0.99206,-3.39254z" data-paper-data="{&quot;index&quot;:null}" fill="#fdfdfd" stroke="#000000" stroke-linecap="butt"/><path d="M251.18069,185.72011c0.02486,0.60965 -0.4798,1.17765 -1.86864,1.93081c-1.14056,0.61854 -3.11183,1.20834 -4.54441,1.2459c-6.01251,-0.15506 -7.01891,-4.71259 -4.95659,-5.26778c2.56063,-0.73216 3.29587,2.05926 5.55961,1.96783c1.50663,-0.06085 3.04419,-1.26844 4.07023,-1.16025c1.32354,0.11983 1.72444,0.90693 1.7398,1.2835z" data-paper-data="{&quot;index&quot;:null}" fill="#033397" stroke="#000000" stroke-linecap="butt"/><path d="M253.14848,184.1101c0.24234,0.69463 -0.20109,1.22089 -1.49078,1.55041c-0.81442,0.20809 -1.96782,0.243 -1.96782,-0.35779c0,-0.36229 1.01112,-0.47618 1.72931,-0.71558c0.7182,-0.2394 1.65539,-0.68892 1.72931,-0.47705z" data-paper-data="{&quot;index&quot;:null}" fill="#033397" stroke="none" stroke-linecap="butt"/><path d="M245.07091,179.76618c0.43289,0.0676 0.4992,1.05868 0.31474,2.23965c-0.18446,1.18097 -0.54982,2.10461 -0.98269,2.03701c-0.48093,-0.07512 -0.4992,-1.05868 -0.31474,-2.23965c0.18446,-1.18097 0.50177,-2.11214 0.98269,-2.03702z" fill="#033397" stroke="none" stroke-linecap="butt"/><path d="M251.91422,182.12428c-0.24298,0.77747 -0.58208,1.36333 -0.86703,1.27427c-0.31661,-0.09895 -0.23009,-0.76373 0.01288,-1.54121c0.24298,-0.77747 0.55043,-1.37322 0.86704,-1.27427c0.28497,0.08904 0.23009,0.76373 -0.01289,1.54121z" fill="#033397" stroke="none" stroke-linecap="butt"/></g></g></svg>