<svg version="1.1" xmlns="http://www.w3.org/2000/svg" xmlns:xlink="http://www.w3.org/1999/xlink" width="8.06666" height="11.06173" viewBox="0,0,8.06666,11.06173"><g transform="translate(-235.91666,-174.51912)"><g data-paper-data="{&quot;isPaintingLayer&quot;:true}" fill-rule="nonzero" stroke="none" stroke-linecap="butt" stroke-linejoin="miter" stroke-miterlimit="10" stroke-dasharray="" stroke-dashoffset="0" style="mix-blend-mode: normal"><path d="M235.91667,185.58086v-11.06173h8.06666v11.06173z" fill="#000000" stroke-width="0"/><path d="M239.82606,178.03632c-0.62851,0.48231 -1.11417,0.99907 -1.45699,1.55028c-0.28569,0.41341 -0.34283,0.96463 -0.17142,1.65365l0.17142,0.2067c0.34282,0.55121 0.88562,0.72347 1.6284,0.51676c0.62851,-0.48231 1.11418,-0.99907 1.457,-1.55028c0.34282,-0.55122 0.34282,-1.20579 0,-1.9637l-0.25712,-0.31006c-0.34282,-0.27561 -0.79992,-0.31006 -1.37129,-0.10335zM236.05504,180.00002c0,-1.37804 0.34282,-2.46324 1.02847,-3.25561c0.68564,-0.79237 1.62841,-1.18855 2.82828,-1.18855c1.19987,0 2.14263,0.39618 2.82829,1.18855c0.68564,0.79237 1.02847,1.87757 1.02847,3.25561c0,1.17133 -0.34282,2.20485 -1.02847,3.10057c-0.68565,0.89572 -1.62841,1.34358 -2.82829,1.34358c-1.19987,0 -2.14263,-0.44786 -2.82828,-1.34358c-0.68564,-0.89572 -1.02847,-1.92924 -1.02847,-3.10057z" fill="#ffffff" stroke-width="0.26458"/></g></g></svg>