<svg version="1.1" xmlns="http://www.w3.org/2000/svg" xmlns:xlink="http://www.w3.org/1999/xlink" width="32.10211" height="34.80232" viewBox="0,0,32.10211,34.80232"><g transform="translate(-226.37717,-165.50483)"><g data-paper-data="{&quot;isPaintingLayer&quot;:true}" fill-rule="nonzero" stroke-miterlimit="10" stroke-dasharray="" stroke-dashoffset="0" style="mix-blend-mode: normal"><g data-paper-data="{&quot;index&quot;:null}" stroke-width="0" stroke-linecap="butt" stroke-linejoin="miter"><g data-paper-data="{&quot;index&quot;:null}"><path d="M247.58676,169.35597c-1.06737,0 -1.93265,-0.86211 -1.93265,-1.92557c0,-1.06346 0.86527,-1.92557 1.93265,-1.92557c1.06737,0 1.93267,0.86211 1.93267,1.92557c0,1.06346 -0.86529,1.92557 -1.93267,1.92557z" fill="#e0cb17" stroke="none"/><path d="M247.6576,169.25516c-0.65944,0 -1.194,-0.53261 -1.194,-1.18962c0,-0.65702 0.53456,-1.18962 1.194,-1.18962c0.65944,0 1.194,0.53261 1.194,1.18962c0,0.65701 -0.53456,1.18962 -1.194,1.18962z" fill="#e0cb17" stroke="#000000"/><path d="M247.16358,175.60144c0,0 -1.33147,-3.13414 -0.98611,-4.48625c0.33262,-1.3022 0.48585,-1.50522 0.48585,-1.50522l2.10321,0.01487c0,0 0.78596,1.09728 0.44156,2.13075c-0.34441,1.03347 -2.04451,3.84585 -2.04451,3.84585z" fill="#e8edf4" stroke="#000000"/><path d="M247.68439,169.84999c-0.58416,-0.0026 -1.30651,-0.35626 -1.30651,-0.35626l0.28233,-0.4899c0,0 0.63821,0.33264 1.09235,0.30689c0.45415,-0.02575 1.08264,-0.43022 1.08264,-0.43022l0.21781,0.68142c0,0 -0.85738,0.29035 -1.36863,0.28808z" fill="#dbded5" stroke="#000000"/></g><g data-paper-data="{&quot;index&quot;:null}" stroke="none"><path d="M241.99121,174.35808c0,0.41758 -0.1631,0.75611 -0.36428,0.75611c-0.20118,0 -0.36426,-0.33852 -0.36426,-0.75611c0,-0.41759 0.16308,-0.75611 0.36426,-0.75611c0.20119,0 0.36428,0.33852 0.36428,0.75611z" fill="#000000"/><path d="M240.22152,178.87692c0.20956,0 0.98657,2.14736 0.98657,2.14736c0,0 -1.05021,0.33269 -1.25977,0.33269c-0.20955,0 -0.56158,-1.2075 -0.56158,-1.39124c0,-0.18374 0.62523,-1.0888 0.83479,-1.0888z" fill="#807d5a"/><path d="M241.39025,174.88465l-0.1012,-0.31253l4.86707,-5.89768l0.13154,0.15122z" fill="#6e6e73"/><path d="M245.59958,169.1785l0.33391,0.32261l-1.17375,1.36101l-0.30356,-0.32261z" fill="#ddcb1e"/></g></g><g data-paper-data="{&quot;index&quot;:null}" stroke-width="0" stroke-linecap="butt" stroke-linejoin="miter"><g data-paper-data="{&quot;index&quot;:null}"><path d="M226.37717,168.41603c0,-1.36425 1.11002,-2.47019 2.47929,-2.47019c1.36928,0 2.47929,1.10595 2.47929,2.47019c0,1.36425 -1.11002,2.47018 -2.47929,2.47018c-1.36927,0 -2.47929,-1.10594 -2.47929,-2.47018z" fill="#e0cb17" stroke="none"/><path d="M227.23389,169.2308c0,-0.84284 0.68578,-1.52608 1.53171,-1.52608c0.84594,0 1.5317,0.68324 1.5317,1.52608c0,0.84283 -0.68577,1.52609 -1.5317,1.52609c-0.84594,0 -1.53171,-0.68325 -1.53171,-1.52609z" fill="#e0cb17" stroke="#000000"/><path d="M226.77657,173.96453c-0.44181,-1.32577 0.56646,-2.7334 0.56646,-2.7334l2.69807,-0.01907c0,0 0.19657,0.26044 0.62326,1.93095c0.44304,1.73451 -1.26501,5.36956 -1.26501,5.36956c0,0 -2.18096,-3.22229 -2.62278,-4.54805z" fill="#e8edf4" stroke="#000000"/><path d="M228.73123,171.51996c-0.65585,0.00291 -1.75571,-0.36955 -1.75571,-0.36955l0.27941,-0.87416c0,0 0.80625,0.51889 1.38884,0.55192c0.5826,0.03303 1.40131,-0.39371 1.40131,-0.39371l0.36218,0.62847c0,0 -0.92665,0.45371 -1.67602,0.45702z" fill="#dbded5" stroke="#000000"/></g><g data-paper-data="{&quot;index&quot;:null}" stroke="none"><path d="M235.22037,178.83712c0.20578,-0.4242 0.50039,-2.89051 1.79131,-2.85171c0.20036,0.00602 1.7467,1.3038 1.98128,2.35045c0.3191,1.42374 -0.69622,2.71278 -0.69622,2.71278l-3.11533,-0.0194c0,0 -0.16684,-1.76794 0.03894,-2.19213z" fill="#e4dcaa"/><path d="M236.50193,176.33311c0.25809,0 0.46731,0.43427 0.46731,0.96997c0,0.5357 -0.20923,0.96997 -0.46731,0.96997c-0.25808,0 -0.46729,-0.43427 -0.46729,-0.96997c0,-0.53571 0.20921,-0.96997 0.46729,-0.96997z" fill="#000000"/><path d="M235.33371,183.21343c-0.14743,-0.84753 -0.15577,-2.1986 -0.15577,-2.1986c0,0 0.56637,-0.34524 0.93073,-0.45271c0.36436,-0.10747 0.96773,-0.159 0.96773,-0.159l1.23122,0.78486c0,0 0.2064,2.9878 0.21929,3.37045c0.02595,0.77064 -1.4019,1.34502 -1.4019,1.34502l-1.18066,-0.48271c0,0 -0.46323,-1.35979 -0.61066,-2.20732z" fill="#dfcc17"/><path d="M237.03925,185.8547c0,0 0.99676,-2.75471 1.2656,-2.75471c0.26884,0 1.0709,1.16105 1.0709,1.39676c0,0.23571 -0.45159,1.78475 -0.72043,1.78475c-0.26884,0 -1.61608,-0.42678 -1.61608,-0.42678z" fill="#807d5a"/><path d="M230.52301,170.2059l0.16875,-0.194l6.24365,7.56575l-0.12981,0.40092z" fill="#6e6e73"/><path d="M232.87249,172.40449l-0.38942,0.41386l-1.50574,-1.74595l0.42836,-0.41385z" fill="#ddcb1e"/></g></g><g data-paper-data="{&quot;index&quot;:null}" stroke="none" stroke-width="0" stroke-linecap="butt" stroke-linejoin="miter"><g><path d="M240.52844,199.18701l1.54229,0.3128c0,0 0.4503,0.87184 -0.65159,0.80353c-1.10189,-0.06831 -1.78746,-0.44535 -2.63264,-1.00712c-0.50171,-0.33347 -1.24081,-1.42972 -1.24081,-1.42972l-0.95911,-0.21541c0,0 -0.6136,-0.44272 -0.62598,-0.87071c-0.04403,-1.52184 0.75189,-1.94635 0.75189,-1.94635c0,0 0.59562,1.60119 1.15272,2.23669c0.68733,0.78405 2.66322,2.11629 2.66322,2.11629z" fill="#393939"/><path d="M242.11271,193.08691l0.0634,0.35644l-0.11091,0.40698c0,0 -0.0108,0.90638 0.02865,1.25374c0.04854,0.4274 0.0978,0.88747 0.31225,1.8706c0.02211,1.07141 -0.60594,2.5441 -0.60594,2.5441c0,0 -0.65536,0.13854 -1.67636,-0.41222c-3.4499,-1.86099 -3.38428,-4.05118 -3.38428,-4.05118c0,0 0.07778,-1.05371 0.30848,-1.56992c0.2307,-0.51622 0.62373,-0.85259 0.90006,-1.1344c0.27633,-0.28182 0.7788,-0.39306 0.7788,-0.39306c0,0 -0.14772,-0.02312 0.04959,-0.29486c0.04505,-0.06203 0.3201,-0.16945 0.3201,-0.16945l-0.15096,-0.1205l0.34762,-0.63276l2.7464,1.29012z" fill="#f01a40"/><path d="M241.94458,188.78287c0.81402,0.33871 1.46654,1.38452 1.3931,1.6738c-0.07345,0.28928 -0.69254,0.60733 -0.69254,0.60733c0,0 -0.03273,0.8107 -0.36244,0.91857c-0.49149,0.16079 -0.83159,0.14141 -1.88715,-0.1638c-0.56015,-0.23333 -0.81297,-0.73179 -1.05555,-1.09024c-0.29695,-0.43878 0.1499,-0.40463 0.22102,-0.73604c0.07112,-0.3314 0.06237,0.23521 0.07648,-0.65013c0.0101,-0.63417 1.90632,-0.72624 2.30707,-0.55948z" fill="#ffffff"/><path d="M241.33324,192.94757c-0.00563,0.05946 -0.07214,0.66014 -0.07214,0.66014c0,0 0.6199,2.68582 0.52747,3.49847c-0.11383,1.0009 -0.55293,2.41488 -0.55293,2.41488c0,0 -0.5088,-0.10063 -0.749,-0.18948c-0.24712,-0.09141 -1.22305,-0.69894 -1.22305,-0.69894c0,0 0.77108,-2.5802 0.84313,-3.02354c0.10542,-1.17416 0.04728,-2.21428 0.04728,-2.21428l0.03075,-0.34399l-0.1471,-0.37243l0.22013,-0.96408l1.39942,0.38162c0,0 -0.29405,0.53554 -0.32398,0.85163z" fill="#ffffff"/></g><path d="M240.28011,189.5339c0.09045,-0.3737 0.67784,-0.55223 1.312,-0.39876c0.63416,0.15346 1.07493,0.58082 0.98449,0.95452c-0.09044,0.37371 -0.67784,0.55224 -1.312,0.39877c-0.63416,-0.15348 -1.07493,-0.58084 -0.98449,-0.95454z" fill="#afafaf"/></g><path d="M238.92933,182.21418c0,0 -2.88436,2.98449 -3.70777,2.9943c-0.89476,0.01065 -2.37307,-0.95535 -2.37307,-0.95535l2.40143,-0.12316l2.34916,-1.98201l1.33025,0.06623z" data-paper-data="{&quot;index&quot;:null}" fill="#f79db4" stroke="none" stroke-width="0" stroke-linecap="butt" stroke-linejoin="miter"/><g data-paper-data="{&quot;index&quot;:null}" stroke="none" stroke-width="0" stroke-linecap="butt" stroke-linejoin="miter"><path d="M247.67756,184.82608c0.08534,0.10532 0.12037,1.15635 0.06605,1.62743c-0.02968,0.25728 -0.08185,0.73699 -0.50016,0.85689c-0.10662,0.03056 -0.63369,-0.09125 -0.63369,-0.09125l-0.25054,0.33648c0,0 -0.24039,0.06821 -0.38662,0.02934c-0.14623,-0.03887 -0.36968,-0.21058 -0.36968,-0.21058c0,0 -0.16294,0.05419 -0.26942,0.1158c-0.34752,0.20109 -0.56383,-0.1071 -0.56383,-0.1071c0,0 -0.23539,0.17475 -0.44778,0.17979c-0.3367,0.008 -0.72952,-0.17106 -0.89956,-0.33215c-0.28886,-0.27364 -0.89149,-1.20483 -0.70336,-1.52406c0.29302,-0.49719 0.85909,-0.06725 0.85909,-0.06725c0,0 -0.23164,-0.55609 -0.17941,-0.91698c0.08043,-0.5557 0.34775,-0.80251 0.34775,-0.80251l2.34737,-0.71933c0,0 1.04817,0.96445 1.58379,1.62549z" fill="#ffffff"/><path d="M245.79382,181.64071c0.29805,0.33867 0.68802,1.2687 0.23947,1.6131c-1.63857,1.25811 -2.72168,0.71213 -3.27423,-0.04586c-0.3609,-0.49509 -0.43807,-0.9479 0.9573,-1.71609c0.49543,-0.27274 1.77939,-0.18983 2.07746,0.14884z" fill="#fed000"/><path d="M243.22273,180.46207c0.82561,0.93812 1.73541,1.85285 1.73541,1.85285c0,0 -0.45566,0.287 -0.74739,0.39502c-0.29173,0.10802 -0.53069,0.03417 -0.53069,0.03417c0,0 -1.0084,-1.30192 -1.34148,-1.68038c-0.54635,-0.6208 -1.27094,-1.37921 -2.11746,-2.22895c-0.21211,-0.21291 -0.22401,-0.44715 -0.01573,-0.67233c0.13993,-0.15128 0.33167,-0.23565 0.62863,-0.006c0.89681,0.69351 1.81124,1.64947 2.3887,2.30563z" fill="#fed5c7"/></g><path d="M241.65798,184.53088l0.04232,3.74693l-0.01442,2.30467c0,0 -0.38051,-0.00101 -0.61347,-0.12258c-0.23297,-0.12157 -0.56431,-0.3869 -0.56431,-0.3869l-0.11333,-2.24305l0.0052,-3.46327z" data-paper-data="{&quot;index&quot;:null}" fill="#f79db4" stroke="none" stroke-width="0" stroke-linecap="butt" stroke-linejoin="miter"/><g data-paper-data="{&quot;index&quot;:null}" stroke="none" stroke-width="0" stroke-linecap="butt" stroke-linejoin="miter"><g><path d="M238.47042,198.9518l1.5423,0.31281c0,0 0.45029,0.87184 -0.6516,0.80353c-1.10189,-0.06832 -1.78746,-0.44536 -2.63264,-1.00713c-0.50171,-0.33347 -1.24081,-1.42971 -1.24081,-1.42971l-0.9591,-0.21542c0,0 -0.61362,-0.44272 -0.626,-0.87071c-0.04403,-1.52183 0.7519,-1.94635 0.7519,-1.94635c0,0 0.59563,1.60119 1.15272,2.23669c0.68733,0.78407 2.66323,2.1163 2.66323,2.1163z" fill="#393939"/><path d="M240.0547,192.85172l0.0634,0.35644l-0.11091,0.40698c0,0 -0.0108,0.90639 0.02865,1.25375c0.04854,0.42741 0.0978,0.88747 0.31225,1.8706c0.0221,1.07142 -0.60594,2.5441 -0.60594,2.5441c0,0 -0.65536,0.13853 -1.67636,-0.41223c-3.4499,-1.861 -3.38428,-4.05118 -3.38428,-4.05118c0,0 0.07777,-1.05371 0.30847,-1.56992c0.23069,-0.51622 0.62372,-0.85259 0.90005,-1.1344c0.27632,-0.28182 0.7788,-0.39306 0.7788,-0.39306c0,0 -0.14771,-0.02311 0.0496,-0.29485c0.04505,-0.06203 0.32011,-0.16945 0.32011,-0.16945l-0.15097,-0.12051l0.34763,-0.63276l2.7464,1.29011z" fill="#f01a40"/><path d="M239.88657,188.54768c0.814,0.33871 1.46654,1.38452 1.3931,1.6738c-0.07346,0.28927 -0.69255,0.60733 -0.69255,0.60733c0,0 -0.03272,0.8107 -0.36243,0.91857c-0.49149,0.1608 -0.8316,0.1414 -1.88716,-0.16381c-0.56014,-0.23333 -0.81295,-0.73179 -1.05553,-1.09024c-0.29695,-0.43877 0.1499,-0.40463 0.22102,-0.73604c0.07112,-0.33141 0.06237,0.23521 0.07648,-0.65013c0.01011,-0.63417 1.90631,-0.72625 2.30706,-0.55949z" fill="#ffffff"/><path d="M239.27522,192.71237c-0.00563,0.05944 -0.07214,0.66014 -0.07214,0.66014c0,0 0.61991,2.68581 0.52748,3.49846c-0.11383,1.0009 -0.55293,2.41488 -0.55293,2.41488c0,0 -0.5088,-0.10064 -0.749,-0.18949c-0.24713,-0.09141 -1.22305,-0.69894 -1.22305,-0.69894c0,0 0.77108,-2.58019 0.84313,-3.02353c0.10542,-1.17417 0.04728,-2.21429 0.04728,-2.21429l0.03075,-0.34398l-0.14709,-0.37243l0.22012,-0.96408l1.39942,0.38162c0,0 -0.29405,0.53554 -0.32398,0.85163z" fill="#ffffff"/></g><path d="M238.2221,189.29868c0.09044,-0.3737 0.67784,-0.55224 1.312,-0.39877c0.63416,0.15348 1.07494,0.58084 0.9845,0.95454c-0.09044,0.3737 -0.67784,0.55223 -1.312,0.39876c-0.63416,-0.15348 -1.07493,-0.58083 -0.98449,-0.95453z" fill="#afafaf"/></g><path d="M238.44291,177.17997l0.94772,0.37052c0,0 0.09834,0.80919 -0.03773,1.14138c-0.12834,0.31332 -0.83343,0.79847 -0.83343,0.79847z" data-paper-data="{&quot;index&quot;:null}" fill="#f25c76" stroke="none" stroke-width="0" stroke-linecap="butt" stroke-linejoin="miter"/><path d="M240.48295,184.46632l-0.6119,4.09511l-0.30175,1.78308c0,0 -0.54939,-0.12351 -0.78808,-0.25808c-0.23869,-0.13457 -0.5154,-0.47678 -0.5154,-0.47678l0.24475,-1.33028l0.64086,-3.72209z" data-paper-data="{&quot;index&quot;:null}" fill="#f79db4" stroke="none" stroke-width="0" stroke-linecap="butt" stroke-linejoin="miter"/><path d="M245.98061,182.15357c0,0 -1.65616,4.09746 -6.24764,3.99094c-4.73031,-0.02449 -5.98864,-3.85694 -5.98864,-3.85694l1.09315,-0.24746c0,0 0.52027,3.04675 5.28498,2.88744c4.12629,-0.13797 4.67202,-3.06609 4.67202,-3.06609z" data-paper-data="{&quot;index&quot;:null}" fill="#ffffff" stroke="none" stroke-width="0" stroke-linecap="butt" stroke-linejoin="miter"/><path d="M241.86057,178.54318c0.10973,0.65348 -0.12852,2.21952 -0.12852,2.21952l0.32623,0.1583l0.04716,0.15691l2.79502,0.80497c0,0 -0.33013,1.11164 -1.1641,1.79467c-1.29755,1.0627 -2.4097,1.5544 -4.10856,1.4095c-1.85978,-0.15863 -2.34016,-0.43403 -3.54156,-1.22701c-1.30374,-0.86052 -1.28245,-1.79128 -1.28245,-1.79128l1.39789,-0.45591l0.62958,-0.28818l0.07511,-0.16357l1.45459,-0.71556l0.16418,-1.05864c0,0 0.51527,-0.30891 0.69141,-0.79854c0.13954,-0.38788 0.12879,-1.13997 0.12879,-1.13997l1.19241,-0.34653l0.36739,0.0378c0,0 0.85724,0.81864 0.95546,1.40353z" data-paper-data="{&quot;index&quot;:null}" fill="#f01a40" stroke="none" stroke-width="0" stroke-linecap="butt" stroke-linejoin="miter"/><path d="M238.11107,176.92194c0,0 1.08912,0.18954 1.59781,0.20559c0.50868,0.01604 1.29821,-0.11422 1.29821,-0.11422c0,0 -0.0364,0.72955 -1.34815,0.70811c-1.41028,-0.02305 -1.54787,-0.79949 -1.54787,-0.79949z" data-paper-data="{&quot;index&quot;:null}" fill="#afafaf" stroke="none" stroke-width="0" stroke-linecap="butt" stroke-linejoin="miter"/><g data-paper-data="{&quot;index&quot;:null}"><path d="M240.16938,171.0737c0,0 -1.04214,-0.84173 -1.99504,-0.53519c-1.54021,0.49549 -1.18672,2.52077 -1.18672,2.52077c0,0 -0.39072,-1.34372 0.3,-2.12111c0.45597,-0.5132 0.76911,-0.71111 1.47414,-0.63c0.79002,0.09088 1.40761,0.76552 1.40761,0.76552z" fill="#000000" stroke="none" stroke-width="0" stroke-linecap="butt" stroke-linejoin="miter"/><path d="M239.08028,166.15401c3.33819,0 6.04431,2.33386 6.04431,5.21281c0,2.87896 -2.70613,5.2128 -6.04431,5.2128c-3.33818,0 -6.0443,-2.33385 -6.0443,-5.2128c0,-2.87896 2.70612,-5.21282 6.0443,-5.21282z" fill="#f79eb4" stroke="none" stroke-width="0" stroke-linecap="butt" stroke-linejoin="miter"/><path d="M244.92484,173.11249c0.00627,-0.01611 0.03611,1.04439 -0.71892,2.38834c-1.21074,2.16933 -2.69053,2.22704 -2.69053,2.22704l0.28262,-0.91116c0,0 1.55213,-1.72427 1.9589,-2.37171c0.40676,-0.64744 0.6043,-1.81547 0.60411,-1.81476" fill="#f79eb4" stroke="#f89db5" stroke-width="0" stroke-linecap="butt" stroke-linejoin="round"/><g fill="#ffd5c5" stroke="none" stroke-width="1" stroke-linecap="round" stroke-linejoin="round"><path d="M243.43852,175.0255c0.11769,0.53465 -0.33959,0.99511 -0.73513,1.30295c-0.06472,0.05035 -0.57188,0.44252 -1.40543,0.72159c-1.04591,0.35015 -2.42657,0.15208 -2.82313,0.10525c-0.47293,-0.0559 -1.31465,-0.58396 -1.44795,-0.72743c-0.95936,-1.0326 -0.24093,-1.53174 -0.13962,-1.61022c0.04832,-0.03741 0.31888,-0.13842 0.63715,-0.0301c0.31022,0.10558 1.15869,0.57476 1.45072,0.56231c0.31377,-0.01337 2.05895,-0.60361 2.96625,-0.60243c0.18856,0.00223 0.43678,0.06523 0.58844,0.18388c0.19737,0.15447 0.49285,0.45028 0.75847,0.1947c0.04298,-0.0414 0.13736,-0.15879 0.15022,-0.10052z"/><path d=""/></g><g fill="#000000" stroke="#000000" stroke-width="0.125" stroke-linecap="butt" stroke-linejoin="round"><path d="M244.37221,173.30624c0.06242,-0.02085 0.35865,0.00962 0.799,-0.09365c0.27714,-0.07579 0.55378,-0.15415 0.82216,-0.25642c0.16067,-0.06127 0.30714,-0.16655 0.46915,-0.22066c0.00551,-0.00185 -0.34397,0.21364 -0.44996,0.26442c-0.33221,0.1592 -0.63222,0.26825 -0.9856,0.37014c-0.07759,0.02239 -0.71155,0.12907 -0.70803,0.10451"/><path d="M244.50314,172.76981c0.02558,0.02546 0.35692,0.03786 0.77433,-0.149c0.4174,-0.18686 0.99582,-0.54894 1.01418,-0.58572c0.00692,-0.01388 -0.63433,0.5123 -0.9297,0.67201c-0.29537,0.15971 -0.91388,0.29905 -0.91062,0.27614"/></g><g fill="#000000" stroke="none" stroke-width="1" stroke-linecap="round" stroke-linejoin="round"><path d="M241.77635,175.0386c0.14923,-0.10805 0.67827,-0.04953 0.76951,0.01737c0.15784,0.11573 -0.2206,0.36249 -0.33055,0.35514c-0.23909,-0.03554 -0.6353,-0.23033 -0.43896,-0.37251z"/><path d=""/></g><path d="M236.8133,172.33965c0.02047,-0.05301 -0.09977,1.8957 -0.07803,2.77616c0.04097,1.65803 0.42394,2.68636 0.42394,2.68636c0,0 -0.35774,-0.23441 -0.44345,-0.30592c-0.2648,-0.22085 -0.49846,-0.43966 -0.72366,-0.70465c-0.52966,-0.6233 -0.88739,-1.37012 -1.10908,-2.1546c-0.14774,-0.52281 -0.30777,-2.81216 -0.28494,-2.82591" fill="#f79eb4" stroke="#f89db5" stroke-width="0" stroke-linecap="butt" stroke-linejoin="round"/><path d="M234.50343,171.77961c-0.01464,0.01464 0.28029,2.81548 0.42676,3.59368c0.14646,0.7782 0.61363,1.93401 0.61363,1.93401c0,0 -0.41128,-0.06345 -0.97324,-0.69448c-0.4962,-0.55721 -0.77538,-0.83955 -1.05988,-1.88672c-0.36917,-1.35883 -0.47186,-3.22519 -0.29214,-3.58465" fill="#f79eb4" stroke="#f89db5" stroke-width="0" stroke-linecap="butt" stroke-linejoin="round"/><g fill="#ee1a40" stroke="none" stroke-width="1" stroke-linecap="round" stroke-linejoin="round"><path d="M242.84937,168.64848c-0.0866,-0.05592 -2.2936,-1.44681 -3.87859,-1.17164c-1.24924,0.21687 -1.90847,0.73513 -3.04667,1.62756c-0.8778,0.68823 -1.42094,2.25749 -1.45484,2.26644c-0.00243,0.00064 0.33378,-4.10309 3.7273,-4.70804c2.74553,-0.45776 4.95521,1.33186 5.04726,1.44986"/><path d=""/></g><path d="M243.12656,169.75012c-0.0227,0.01843 1.03662,-0.80427 2.81895,-0.3687c0.31763,0.07944 1.18127,1.22193 1.4462,1.96835c0.32256,0.67883 0.10811,1.88233 0.09193,1.88068c-0.02322,-0.00244 -0.84877,-1.71749 -1.88817,-2.11289c-0.56753,-0.2159 -2.23876,-0.24671 -2.26864,-0.22246" fill="#f79eb4" stroke="#f89db5" stroke-width="0" stroke-linecap="butt" stroke-linejoin="round"/><path d="M242.27911,169.78801c0.00908,-0.08308 0.79776,-1.66605 1.07878,-1.91925c0.28102,-0.2532 0.39324,-0.43395 0.99777,-0.4654c2.05717,0.09193 3.55786,1.45656 3.55786,1.45656c0,0 -1.57789,-0.2167 -2.32615,-0.07582c-1.03812,0.19546 -2.34834,0.88494 -2.45228,0.96841" fill="#f79eb4" stroke="#f89db5" stroke-width="0" stroke-linecap="butt" stroke-linejoin="round"/><g stroke="none" stroke-width="1" stroke-linecap="round" stroke-linejoin="round"><g fill="#f79eb4"><path d="M235.68695,169.61097c-0.02251,-0.35882 -0.18813,-0.97796 -0.19076,-1.65428c-0.00262,-0.67632 0.05523,-1.54383 0.17765,-1.71819c0.16004,-0.22796 0.92717,-0.00727 1.70972,0.36284c0.78255,0.37013 1.75052,1.14255 1.7949,1.29471"/></g><g fill="#ffd5c5"><path d="M236.25435,169.18149c-0.01053,-0.08486 -0.1264,-0.47814 -0.14119,-0.97843c-0.0148,-0.50029 0.05438,-1.25413 0.07443,-1.27986c0.08129,-0.10431 0.93758,0.18041 1.36123,0.38916c0.42366,0.20875 0.84779,0.58793 0.9475,0.74847"/></g></g><g fill="#f79eb4" stroke="none" stroke-width="1" stroke-linecap="round" stroke-linejoin="round"><path d="M242.65141,167.35959c0.29499,-0.08839 0.608,-0.15809 1.27228,-0.20333c0.66427,-0.04524 1.49038,-0.11186 1.69966,0.00089c0.04286,0.02311 0.15973,0.66751 0.07343,1.16967c-0.13469,0.78385 -0.59558,1.61249 -0.60409,1.62533"/><path d=""/></g><path d="M241.4415,173.20568c0.41372,0.60664 0.61215,0.59671 0.80863,0.61427c0.33707,0.03013 0.7176,-0.2714 1.00158,-0.63715c0.40601,-0.5229 0.78897,-1.4542 1.23813,-1.45808c0.06807,-0.00059 0.11454,0.84119 -0.04066,1.41753c-0.32914,1.22225 -1.15546,2.08352 -1.30206,2.08886c-0.58573,0.02133 -0.41306,-0.51203 -1.60028,-0.45107c-0.6762,0.03473 -2.21533,0.77096 -2.8683,0.57727c-1.27143,-0.58991 -1.59567,-1.66258 -1.6902,-2.37548c-0.28408,-2.14228 1.02378,-2.72666 1.46832,-2.67571c2.04647,0.23452 2.33585,1.94796 2.98484,2.89957z" fill="#ffffff" stroke="none" stroke-width="0" stroke-linecap="butt" stroke-linejoin="miter"/><path d="M243.2637,170.98496c-0.04066,-0.02975 1.05183,-0.37135 1.91166,0.12715c0.24701,0.14321 0.7586,1.54583 0.74152,1.69589c0.0252,0.60993 -0.58155,2.1577 -0.57995,2.15655c0.03485,-0.02475 -0.2868,-1.20354 -0.94311,-2.05902c-0.22239,-0.28642 -1.00834,-0.90494 -1.1234,-0.98923" fill="#f79eb4" stroke="#f89db5" stroke-width="0" stroke-linecap="butt" stroke-linejoin="round"/><g fill="#000000" stroke="#000000" stroke-width="0.125" stroke-linecap="butt" stroke-linejoin="round"><path d="M237.20724,171.18233c-0.02443,0.03602 -0.17767,0.04892 -0.36822,-0.0353c-1.2234,-0.54065 -1.37931,-0.92237 -1.37931,-0.92237c0,0 0.41695,0.51644 1.28479,0.7476c0.169,0.04501 0.39449,0.06642 0.44337,0.0638c0.04663,-0.0025 0.08706,-0.03774 0.13643,-0.01964"/><path d="M236.93619,171.97584c0,0 -0.0365,0.04303 -0.16777,0.08602c-0.24342,0.07973 -0.86342,0.07606 -1.15066,0.03326c-0.68491,-0.10208 -1.06852,-0.33041 -1.06852,-0.33041c0,0 0.77457,0.22285 1.02076,0.26251c0.74294,0.11548 1.23233,-0.17059 1.29821,-0.21882c0.02904,-0.02124 0.08987,-0.08021 0.12357,-0.08405"/></g><g stroke="none" stroke-linecap="butt" stroke-linejoin="miter"><path d="M240.04034,172.35856c0.23265,0.01501 0.38365,0.61015 0.33726,1.32928c-0.0464,0.71912 -0.27263,1.28991 -0.50528,1.27491c-0.23265,-0.01501 -0.38364,-0.61014 -0.33725,-1.32927c0.04639,-0.71913 0.27262,-1.28992 0.50527,-1.27492z" fill="#169c5b" stroke-width="NaN"/><path d="M239.98743,173.27808c0.10223,0.00659 0.16938,0.25544 0.15001,0.5558c-0.01936,0.30037 -0.11795,0.53853 -0.22018,0.53193c-0.10223,-0.00659 -0.16938,-0.25544 -0.15001,-0.5558c0.01936,-0.30037 0.11795,-0.53853 0.22018,-0.53193z" fill="#000000" stroke-width="0"/><path d="M239.88789,173.13199c0.01961,-0.30389 0.13552,-0.54379 0.2589,-0.53583c0.12337,0.00796 0.2075,0.26076 0.18789,0.56466c-0.01961,0.3039 -0.13552,0.54379 -0.2589,0.53583c-0.12337,-0.00796 -0.2075,-0.26075 -0.18789,-0.56465z" fill="#ffffff" stroke-width="0"/></g><g stroke="none" stroke-linecap="butt" stroke-linejoin="miter"><path d="M242.95187,174.12119c0.03272,-0.50723 0.19227,-0.90982 0.35638,-0.89924c0.1641,0.01058 0.27059,0.43035 0.23788,0.93758c-0.03273,0.50723 -0.19228,0.90983 -0.35639,0.89925c-0.1641,-0.01058 -0.27058,-0.43035 -0.23787,-0.93758z" fill="#169c5b" stroke-width="NaN"/><path d="M243.11563,174.24571c0.01367,-0.21186 0.08319,-0.37983 0.1553,-0.37517c0.07212,0.00465 0.1195,0.18016 0.10582,0.39202c-0.01368,0.21186 -0.0832,0.37984 -0.15531,0.37518c-0.07212,-0.00466 -0.1195,-0.18017 -0.10582,-0.39203z" fill="#000000" stroke-width="0"/><path d="M243.38334,173.38953c0.08703,0.00562 0.14635,0.18393 0.13253,0.39828c-0.01384,0.21434 -0.09559,0.38355 -0.18262,0.37793c-0.08702,-0.00562 -0.14634,-0.18391 -0.13252,-0.39826c0.01384,-0.21434 0.09558,-0.38357 0.18261,-0.37795z" fill="#ffffff" stroke-width="0"/></g></g><g data-paper-data="{&quot;index&quot;:null}" stroke-linecap="butt" stroke-linejoin="miter"><path d="M256.77202,182.31641l-9.07794,0.32878c0,0 -1.44775,-2.54244 -0.09171,-3.98431c1.28515,-1.36649 2.5433,-2.10146 4.53902,-2.28023c5.19743,-0.46557 5.66553,4.18363 5.66553,4.18363z" fill="#fbdd00" stroke="none" stroke-width="0"/><path d="M257.06032,181.86818c0,0 -0.06099,-0.64503 -0.31471,-1.28465c-0.16978,-0.42803 -0.56343,-0.83539 -0.52949,-1.04418c0.06824,-0.41994 0.26496,-0.10881 0.70897,0.60464c0.20704,0.33267 0.41316,1.2732 0.41316,1.2732l-0.27793,0.451z" fill="#a58c48" stroke="#000000" stroke-width="0"/><path d="M254.15377,178.04191c0.01179,0.18783 -1.05695,-0.11442 -1.95193,-0.05824c-0.89499,0.05618 -2.28264,0.87281 -2.36191,0.44954c-0.08682,-0.46351 1.39887,-0.84422 2.29177,-0.92718c1.33261,-0.12381 2.01028,0.34806 2.02207,0.53589z" fill="#a58c48" stroke="#000000" stroke-width="0"/><path d="M247.61138,181.96748l-0.22267,-0.34755c0,0 -0.0071,-0.61597 0.12999,-1.03896c0.12309,-0.37975 0.47772,-0.41934 0.54487,-0.3692c0.1908,0.14249 -0.17563,0.44702 -0.30633,0.87285c-0.1412,0.46006 -0.14585,0.88286 -0.14585,0.88286z" fill="#a58c48" stroke="#000000" stroke-width="0"/><path d="M252.3684,183.51674c3.58173,-0.12908 4.65094,1.82728 4.65094,1.82728c0,0 0.03858,-0.21712 0.07662,0.37801c0.03804,0.59514 -0.02981,0.31176 -0.02981,0.31176c0,0 -1.47779,-1.60225 -3.65902,-1.89936c-3.47127,-0.47283 -5.52699,2.11442 -5.52699,2.11442l0.04481,-0.59309c0,0 1.89084,-2.04705 4.44344,-2.13903z" fill="#edeee6" stroke="none" stroke-width="0"/><path d="M247.52326,182.24314c0,0 1.80547,-3.0045 4.63351,-2.99415c3.584,0.01312 4.78393,2.76432 4.78393,2.76432l-0.16782,0.2964c0,0 -1.45211,-1.8681 -3.59545,-2.21452c-3.41094,-0.55128 -5.51111,2.51873 -5.51111,2.51873l-0.14307,-0.37077z" fill="#edeee6" stroke="none" stroke-width="0"/><path d="M252.12719,179.66691c3.59715,-0.13003 4.75833,2.91375 4.75833,2.91375c0,0 0.1798,0.92747 0.21785,1.5226c0.03805,0.59514 -0.02283,1.52791 -0.02283,1.52791c0,0 -1.4837,-1.60187 -3.67424,-1.8984c-3.48604,-0.4719 -5.55129,2.11594 -5.55129,2.11594l-0.21334,-3.3271c0,0 1.92194,-2.76202 4.48553,-2.85469z" fill="#ff1a07" stroke="none" stroke-width="0"/><path d="M249.88673,180.45887c0,0 1.26261,-0.73521 2.15857,-0.80002c0.89596,-0.06481 2.0878,0.61382 2.0878,0.61382l0.20093,3.20101c0,0 -1.45083,-0.23029 -2.14076,-0.18698c-0.70993,0.04457 -2.14059,0.45573 -2.14059,0.45573z" fill="#ff1808" stroke="#000000" stroke-width="0"/><path d="M257.033,185.51365c0,0 -0.33802,-0.54989 -0.62454,-0.83601c-0.28652,-0.28612 -0.83259,-0.61909 -0.83259,-0.61909l-0.22713,-2.97844c0,0 0.71703,0.3223 1.05795,0.75462c0.34092,0.43232 0.54406,1.0887 0.55689,1.29314c0.03398,0.54141 0.06941,2.38577 0.06941,2.38577z" fill="#ff1808" stroke="#000000" stroke-width="0"/><path d="M247.97254,185.80119c0,0 -0.2337,-2.62144 -0.16217,-3.22353c0.05237,-0.44079 0.96373,-1.2857 0.96373,-1.2857l0.19716,3.141c0,0 -0.29476,0.33459 -0.46274,0.56473c-0.16799,0.23015 -0.53598,0.80349 -0.53598,0.80349z" fill="#ff1808" stroke="#000000" stroke-width="0"/><path d="M250.91088,187.06286c-1.33695,0.08393 -3.83531,1.98707 -3.83531,1.98707c0,0 -0.28118,-0.73776 -0.03333,-1.58973c0.38775,-1.33289 1.60108,-3.06974 4.64561,-3.37853c5.8058,-0.58887 6.69471,4.58098 6.69471,4.58098c0,0 -6.13471,-1.6837 -7.47167,-1.59978z" fill="#fbdd00" stroke="none" stroke-width="0"/><path d="M252.35378,184.88343c-0.6961,0.0437 -2.3674,0.46952 -2.2557,0.22194c0.16526,-0.36631 1.48839,-0.67806 2.18553,-0.69957c1.25879,-0.03884 2.09391,0.40037 2.10084,0.51086c0.00693,0.1105 -1.13453,-0.08946 -2.03069,-0.03322z" fill="#a58c48" stroke="#000000" stroke-width="0"/><path d="M256.19273,185.56639c-0.14212,-0.41018 1.10304,0.61366 1.10304,0.61366l0.29273,0.50384c0,0 -1.30457,-0.85427 -1.39577,-1.1175z" fill="#a58c48" stroke="#000000" stroke-width="0"/><path d="M248.6603,185.8785c0.02358,0.37568 -1.5243,1.48753 -1.5243,1.48753l0.29515,-0.78067c0,0 1.20556,-1.08253 1.22914,-0.70685z" fill="#a58c48" stroke="#000000" stroke-width="0"/><path d="M253.26702,192.47751c-3.22286,0.16213 -6.06804,-1.08112 -6.21893,-3.48502c-0.10821,-1.72368 2.75322,-3.18559 5.61598,-3.32512c2.74235,-0.13365 5.58201,1.25329 5.69021,2.97697c0.10819,1.72367 -2.34671,3.66996 -5.08884,3.8079z" fill="#fbdd00" stroke="#000000" stroke-width="0.25"/><path d="M257.22609,190.40865c0.06519,1.03862 -1.86149,2.00486 -4.30336,2.15813c-2.44187,0.15327 -4.47426,-0.56444 -4.53945,-1.60307c-0.06519,-1.03862 1.8615,-2.00485 4.30337,-2.15812c2.44186,-0.15327 4.47424,0.56443 4.53943,1.60306z" fill="#fbdd00" stroke="#000000" stroke-width="0.25"/><path d="M245.76722,186.03803l-4.13672,0.53599l-7.01115,0.88099c0,0 -0.47867,-0.27281 -0.50445,-0.5042c-0.02577,-0.23139 0.22758,-0.78977 0.22758,-0.78977l6.90671,-1.28362l4.22055,-0.83911c0,0 -0.07483,0.64092 -0.01488,1.04394c0.05995,0.40302 0.31235,0.95579 0.31235,0.95579z" fill="#fbdd00" stroke="none" stroke-width="0"/><path d="M247.8504,186.04131c0,0 -1.81466,0.24183 -1.90627,0.18189c-0.34777,-0.22753 -0.68803,-1.92015 -0.4137,-2.43684c0.16197,-0.30509 2.65295,-0.77566 2.65295,-0.77566l-0.10914,2.74842z" fill="#c8c8c6" stroke="none" stroke-width="0"/><path d="M257.75434,180.36673c0,0 -0.28548,-2.39844 -2.51451,-3.47692c-0.5407,-0.26161 -1.35494,-0.35307 -2.1233,-0.42064c-1.14225,-0.10043 -2.48325,0.08046 -3.49893,0.64278c-1.25493,0.69479 -2.19479,1.90937 -2.19479,1.90937c0,0 1.76611,-3.3286 5.1111,-3.10718c4.95759,0.32815 5.22045,4.45259 5.22045,4.45259z" fill="#fbdd00" stroke="#000000" stroke-width="0.25"/><path d="M234.61934,187.45501c0,0 -0.47867,-0.27281 -0.50445,-0.5042c-0.02577,-0.23139 0.22757,-0.78977 0.22757,-0.78977l2.96138,-0.56574c0,0 0.13372,0.30646 0.19367,0.70948c0.05995,0.40301 0.0265,0.7901 0.0265,0.7901z" fill="#a56402" stroke="none" stroke-width="0"/></g><path d="M240.4662,184.61865c0,0 0.8121,1.24427 1.18389,2.05015c0.05923,0.1284 -0.17523,1.20005 -0.35111,1.66237c-0.09606,0.25251 -0.27199,0.72413 -0.72571,0.73794c-0.11567,0.00352 -0.61728,-0.25497 -0.61728,-0.25497l-0.33971,0.27586c0,0 -0.26055,0.00725 -0.39842,-0.0696c-0.13786,-0.07685 -0.3197,-0.30785 -0.3197,-0.30785c0,0 -0.17866,0.01297 -0.30213,0.04791c-0.40301,0.11407 -0.54255,-0.25307 -0.54255,-0.25307c0,0 -0.28288,0.11622 -0.4989,0.06678c-0.34246,-0.07837 -0.69365,-0.36027 -0.82421,-0.56681c-0.22178,-0.35083 -0.59197,-1.44708 -0.31978,-1.72152c0.42392,-0.42744 0.88586,0.15261 0.88586,0.15261c0,0 -0.09141,-0.62173 0.05408,-0.97319c0.22401,-0.54119 0.55766,-0.72209 0.55766,-0.72209l2.55803,-0.12452z" data-paper-data="{&quot;index&quot;:null}" fill="#ffffff" stroke="none" stroke-width="0" stroke-linecap="butt" stroke-linejoin="miter"/><path d="M238.80877,182.65231c0.56174,-0.18018 1.85971,0.16141 2.09716,0.56775c0.23744,0.40634 0.45075,1.43647 -0.07735,1.69939c-1.92913,0.96046 -2.92887,0.18494 -3.34302,-0.70158c-0.27051,-0.57903 -0.25898,-1.05804 1.32321,-1.56555z" data-paper-data="{&quot;index&quot;:null}" fill="#fed000" stroke="none" stroke-width="0" stroke-linecap="butt" stroke-linejoin="miter"/><path d="M239.00074,183.02797c0.54211,-0.05316 1.00258,0.11786 1.02847,0.38198c0.02589,0.26412 -0.39258,0.52131 -0.9347,0.57446c-0.54213,0.05316 -1.0026,-0.11785 -1.02849,-0.38197c-0.02589,-0.26412 0.39259,-0.52132 0.93471,-0.57447z" data-paper-data="{&quot;index&quot;:null}" fill="#c28830" stroke="none" stroke-width="0" stroke-linecap="butt" stroke-linejoin="miter"/><path d="M238.75826,178.00071c0.35166,1.12912 0.56138,2.49306 0.66243,3.39924c0.14448,1.29558 0.31117,2.44527 0.31117,2.44527c0,0 -0.47715,0.26047 -0.79108,0.17829c-0.31394,-0.08218 -0.42403,-0.06749 -0.42403,-0.06749c0,0 -0.15327,-2.04802 -0.21156,-2.57069c-0.09561,-0.85735 -0.26125,-1.93894 -0.47647,-3.17148c-0.05392,-0.30884 0.07601,-0.51614 0.3887,-0.58401c0.21008,-0.04559 0.4244,-0.00301 0.54084,0.37088z" data-paper-data="{&quot;index&quot;:null}" fill="#fed5c7" stroke="none" stroke-width="0" stroke-linecap="butt" stroke-linejoin="miter"/><path d="M237.6881,176.26431c0,0 0.14712,-0.07048 0.46449,-0.06254c0.31737,0.00793 0.8067,0.06254 0.8067,0.06254" data-paper-data="{&quot;index&quot;:null}" fill="none" stroke="#000000" stroke-width="0.125" stroke-linecap="round" stroke-linejoin="miter"/></g></g></svg>