<svg version="1.1" xmlns="http://www.w3.org/2000/svg" xmlns:xlink="http://www.w3.org/1999/xlink" width="25.21485" height="30.97243" viewBox="0,0,25.21485,30.97243"><g transform="translate(-223.24592,-162.86273)"><g data-paper-data="{&quot;isPaintingLayer&quot;:true}" fill-rule="nonzero" stroke-linecap="butt" stroke-linejoin="miter" stroke-miterlimit="10" stroke-dasharray="" stroke-dashoffset="0" style="mix-blend-mode: normal"><path d="M232.54673,179.04457z" fill="#030000" stroke="none" stroke-width="0"/><path d="M247.9043,178.63712c0.1789,1.50435 -2.1995,2.5878 -4.09973,2.81378c-0.02012,0.00239 -3.40893,-1.87081 -5.05281,1.00959c-0.94218,1.65089 0.01039,7.40044 0.01039,7.40044l-2.25631,-6.14597c0,0 0.03798,2.04325 0.18781,3.23344c0.20911,1.66104 0.94943,5.7999 0.94943,5.7999c0,0 -2.11826,-3.20891 -2.66523,-5.38564c-0.66256,-2.63669 -0.88788,-6.61583 -0.88788,-6.61583c0,0 0.08808,3.7934 0.45905,7.93636c0.37097,4.14296 0.81273,5.15197 0.81273,5.15197c0,0 -2.26844,-3.49005 -2.93355,-6.01606c-0.66512,-2.526 -1.06876,-6.00599 -1.06876,-6.00599l-0.66944,5.18976c0,0 -0.60831,-2.86489 -0.72871,-4.26568c-0.11462,-1.33357 0.02279,-3.94736 0.02279,-3.94736c0,0 1.06337,-2.43071 2.031,-3.56886c1.76237,-2.07294 2.77269,-2.36568 2.77269,-2.36568c0,0 4.94412,-0.69769 8.87609,0.68863c1.858,0.65508 2.88546,4.09121 2.88546,4.09121c0,0 1.17606,-0.50238 1.35496,1.00197z" data-paper-data="{&quot;index&quot;:null}" fill="#ff3300" stroke="none" stroke-width="0"/><path d="M248.4281,182.83783c0,0 0.66067,0.75704 -3.95908,2.0026c-1.89346,0.51051 -3.89432,0.24171 -5.4928,-0.61066c-1.17322,-0.57908 -1.22664,-2.15678 -1.14763,-2.5681c0.27297,-1.42107 1.14824,-1.69105 1.8077,-1.42923c0.77944,0.30945 1.33388,1.31149 1.33388,1.31149c0,0 0.93167,-0.47353 3.4457,-0.64344c2.57073,-0.17374 4.01224,1.93734 4.01224,1.93734z" data-paper-data="{&quot;index&quot;:null}" fill="#ff3300" stroke="none" stroke-width="0"/><path d="M244.08001,180.91447c0,0 -2.13293,0.59116 -2.98125,0.69205c-0.4178,0.04968 -1.97442,-1.41681 -2.19821,-2.35309c-0.11165,-0.46713 0.1214,-1.13832 0.10007,-1.3177c-0.04204,-0.35347 1.7452,0.07803 2.85062,0.82929c0.70657,0.48019 2.22875,2.14944 2.22875,2.14944z" data-paper-data="{&quot;index&quot;:null}" fill="#ffffff" stroke="none" stroke-width="0"/><path d="M246.75498,180.46077c0.06277,0.52784 -0.13234,0.90422 -0.47324,0.94477c-0.34089,0.04054 -1.11286,-0.0189 -1.17563,-0.54675c-0.06277,-0.52784 0.77295,-1.41116 1.21286,-1.51736c0.43991,-0.10619 0.37324,0.59149 0.43601,1.11934z" data-paper-data="{&quot;index&quot;:null}" fill="#ffffff" stroke="none" stroke-width="0"/><path d="M240.91326,181.24848c-0.29691,0.03531 -0.58925,-0.37033 -0.65295,-0.90603c-0.06371,-0.5357 0.12534,-0.99859 0.42225,-1.0339c0.29691,-0.03531 0.58925,0.37033 0.65295,0.90603c0.06371,0.5357 -0.12534,0.99859 -0.42225,1.0339z" fill="#ff3300" stroke="none" stroke-width="0"/><path d="M245.84811,181.30862c-0.29691,0.03531 -0.66545,-0.30882 -0.5899,-0.84297c0.0624,-0.44112 0.44059,-0.8003 0.64292,-0.86713c0.29691,-0.03531 0.30552,0.14052 0.36923,0.67622c0.06371,0.5357 -0.12534,0.99859 -0.42225,1.0339z" fill="#ff3300" stroke="none" stroke-width="0"/><path d="M234.2458,170.0432c0.56803,-0.90182 -0.89624,0.53291 -2.09277,0.14611c-0.26897,-0.08695 2.73886,-2.00282 3.01133,-0.41233c-0.56803,0.90182 1.93048,1.14828 2.67698,1.16837c0.37914,0.0102 0.66145,0.15475 0.72184,0.69115c0.07823,0.69482 -0.98143,1.51231 -1.15892,1.46428c-0.73872,-0.24572 0.50817,-1.23272 -0.0806,-1.67822c-0.58876,-0.44551 -2.34849,-0.25088 -2.62835,-0.3716c-0.41233,-0.17785 -0.66973,-0.65817 -0.44952,-1.00776z" data-paper-data="{&quot;index&quot;:null}" fill="#f2a948" stroke="#f7d665" stroke-width="0.25"/><path d="M230.08391,172.18468c0.34314,1.20977 -1.14376,2.62102 -0.22193,2.08608c0.35735,-0.20737 0.82801,0.06728 0.99079,0.48579c0.11048,0.28405 -0.14786,2.03557 0.276,2.6401c0.42386,0.60453 1.45543,-0.60572 1.6742,0.14142c0.04155,0.1791 -0.81384,1.20842 -1.50536,1.10504c-0.53386,-0.0798 -0.66807,-0.36718 -0.66451,-0.74644c0.00701,-0.74675 -0.14866,-3.25254 -1.07049,-2.71759c-1.57956,-0.32999 0.44416,-3.26635 0.52129,-2.99439z" data-paper-data="{&quot;index&quot;:null}" fill="#f2a948" stroke="#f7d665" stroke-width="0.25"/><path d="M223.9785,164.76245l1.22202,-1.20436l1.6921,-0.69536l0.02327,0.54993l1.98883,2.06233l-0.37893,1.26371l-1.42032,1.38195l-1.32198,0.36433l-1.96816,-2.04089l-0.5694,-0.06464z" data-paper-data="{&quot;index&quot;:null}" fill="#272727" stroke="none" stroke-width="0"/><path d="M229.2922,166.44108c0.20324,0.21104 -0.117,1.07845 -0.117,1.07845l1.05269,1.96357l-0.64338,0.59878l-1.87239,-1.19867c0,0 -0.79575,0.22378 -0.98455,0.02774c-0.1663,-0.17267 -0.49117,-0.70057 -0.49117,-0.70057c0,0 0.86945,-0.80446 1.20353,-1.12619c0.38721,-0.3729 1.22294,-1.16396 1.22294,-1.16396c0,0 0.48667,0.37271 0.62934,0.52087z" data-paper-data="{&quot;index&quot;:null}" fill="#f2a948" stroke="#f7d665" stroke-width="0.25"/><path d="M229.5636,170.96967c-0.09546,-0.09898 -0.07101,-0.77422 0.36081,-1.19064c0.43182,-0.41644 1.12708,-0.39606 1.20295,-0.31738c0.07587,0.07868 0.07101,0.77422 -0.36081,1.19064c-0.43182,0.41644 -1.12708,0.39606 -1.20295,0.31738z" data-paper-data="{&quot;index&quot;:null}" fill="#f2a948" stroke="#f7d665" stroke-width="0.25"/><path d="M237.45802,173.20847c0,0 -1.45378,1.2508 -2.28568,2.02056c-0.83189,0.76975 -2.24723,2.17376 -2.24723,2.17376c0,0 -4.43847,-4.73327 -2.11111,-6.82386c2.32752,-2.09074 6.64402,2.62954 6.64402,2.62954z" data-paper-data="{&quot;index&quot;:null}" fill="#f2a948" stroke="#f7d665" stroke-width="0.25"/></g></g></svg>