<svg version="1.1" xmlns="http://www.w3.org/2000/svg" xmlns:xlink="http://www.w3.org/1999/xlink" width="20.83318" height="27.42103" viewBox="0,0,20.83318,27.42103"><g transform="translate(-232.28938,-190.68206)"><g data-paper-data="{&quot;isPaintingLayer&quot;:true}" fill-rule="nonzero" stroke-linejoin="miter" stroke-miterlimit="10" stroke-dasharray="" stroke-dashoffset="0" style="mix-blend-mode: normal"><g data-paper-data="{&quot;index&quot;:null}" stroke="none" stroke-width="0.17188" stroke-linecap="butt"><path d="M241.13557,199.70426c0.0123,-1.65217 -0.342,-2.92607 -0.23478,-4.22249c0.03553,-0.42863 0.15153,-0.27918 0.59518,-0.2823c0.57317,-0.00516 1.41278,0.08293 1.60817,0.61025c0.29702,0.80265 -0.30336,2.92069 -0.33677,3.79772c-0.05314,1.38767 -1.01977,4.2251 -1.35077,4.49891c-0.1428,0.1182 -0.58597,-0.23279 -0.57217,-1.05219c0.01817,-1.07892 0.27884,-1.69773 0.29115,-3.3499z" fill="#319a2b"/><path d="M242.2164,194.07224c-0.00714,-0.00917 -1.0228,-0.86284 -1.2775,-0.91197c-0.4285,-0.0829 -0.24345,0.59332 -0.71177,0.32709c-0.3473,-0.19744 -0.3453,-0.61255 -0.51558,-0.82734c-0.19443,-0.24476 0.01359,-0.78276 0.26436,-1.01731c0.13931,-0.1303 0.38327,-0.02214 0.36106,-0.06386c-0.15039,-0.28202 -0.00326,-0.68769 0.28713,-0.75345l0.6319,-0.14334c0.6596,0.02226 1.40283,0.19737 1.81309,0.18619c0.94689,-0.06676 1.24743,0.93135 1.20634,0.75729c0.03319,0.87765 -0.4685,2.00594 -1.22564,2.62526c-0.15803,0.12083 -0.52149,0.2295 -0.83338,-0.17856z" fill="#f0e9bb"/><path d="M240.83996,196.0249c0.04722,-0.03293 -0.01772,0.59071 -0.14297,0.40694c-0.08217,-0.12086 -0.4847,-1.10013 -0.53039,-1.27274c-0.10559,-0.39864 0.04706,-0.93 0.06062,-1.32971c0.01287,-0.37622 0.4106,-0.69939 0.55991,-0.80355c0.21569,-0.15078 0.59957,0.22748 0.98655,0.56806c0.47063,0.41422 0.93173,0.6099 0.96421,0.61926c0,0 0.60754,0.12417 0.70465,-0.02913c-0.30509,0.5005 0.24072,1.63041 -0.11481,2.10657c-0.20282,0.24092 -1.71506,-0.61933 -2.00352,-0.7235c-0.29223,-0.10545 -0.72008,0.62215 -0.48424,0.4578z" fill="#ead42f"/></g><path d="M241.14116,208.99062c-0.43155,-0.12689 -0.68653,-2.63548 -1.18372,-3.25291c-0.43967,-0.53592 -0.81494,-1.10912 -0.78574,-1.46921c0.00904,-0.11103 0.36313,-0.45096 0.44379,-0.5154c0.10188,-0.0814 0.45651,-0.50156 0.8924,-0.31732c0.11199,0.04746 0.65498,0.28991 0.71867,0.4521c0.06753,0.17127 0.42268,0.40925 0.5006,0.54223c0.24604,0.42002 0.2448,0.56312 0.42096,0.81035c0.22285,0.31295 0.11849,0.11615 0.10155,0.42986c0,0 -0.65938,3.38546 -1.10851,3.3203z" data-paper-data="{&quot;index&quot;:null}" fill="#319a2b" stroke="none" stroke-width="0.17188" stroke-linecap="butt"/><path d="M245.95729,214.14419l2.49613,0.26027l1.46687,-0.05006l0.8388,0.94851c0,0 -2.102,-0.22164 -3.05594,-0.07696c-0.95395,0.14465 -2.6653,-0.5054 -2.6945,-0.76523c-0.08906,-0.79281 -0.68483,-2.45147 -0.70577,-2.56154z" data-paper-data="{&quot;index&quot;:null}" fill="#54c81c" stroke="none" stroke-width="0.17188" stroke-linecap="butt"/><path d="M247.06211,212.47692c0.64741,0.32667 4.06419,1.69852 2.68371,2.06781c-1.3805,0.36928 -4.29456,-0.26776 -4.55676,-0.93468c-0.2428,-0.61794 -0.73301,-1.05412 -1.1468,-2.12745c-0.41377,-1.07334 -1.70487,-4.13092 -1.47915,-5.10475c1.7556,1.42718 2.03844,4.0188 3.0782,5.06395c1.03976,1.04514 0.77338,0.70843 1.42079,1.03511z" data-paper-data="{&quot;index&quot;:null}" fill="#ffffff" stroke="none" stroke-width="0.17188" stroke-linecap="butt"/><path d="M245.16173,214.47363c-0.05725,0.66218 0.5637,1.28707 1.01158,1.97312c0.44787,0.68606 1.35783,1.65634 1.35783,1.65634c0,0 -3.89902,-0.6895 -4.72445,-1.30853c-0.82544,-0.61904 -1.40543,-1.64704 -1.35268,-2.08815c0.08978,-0.7507 0.01896,-3.01628 0.02228,-3.12202c0.00803,-0.25578 2.71475,-0.57692 2.68426,0.01125z" data-paper-data="{&quot;index&quot;:null}" fill="#54c81c" stroke="none" stroke-width="0.17188" stroke-linecap="butt"/><path d="M243.29563,206.34982c0.5227,0.66221 1.02797,2.90539 1.02797,2.90539c0.22396,0.98909 0.36841,1.34023 0.3288,2.60133c-0.0392,1.24792 0.16435,1.15288 0.1935,1.72385c0.02915,0.57097 0.84477,1.63402 0.3693,1.62418c-0.45474,-0.00941 -2.57851,-0.54428 -3.04348,-1.24951c-0.22755,-0.34465 -0.78474,0.20113 -0.90914,-0.46359c-0.11513,-0.61588 -0.71053,-3.03639 -1.00858,-4.33568c-0.29804,-1.2993 -0.33479,-2.13922 -0.24938,-2.60885c0.03813,-0.2096 0.38844,-0.38132 0.88892,-0.24366c0.43823,0.12054 1.00954,-0.22814 1.34806,-0.22524c0.1411,0.00121 -0.37396,-1.13353 -0.24323,-1.09249c0.8026,0.25193 1.29726,1.36427 1.29726,1.36427z" data-paper-data="{&quot;index&quot;:null}" fill="#ffffff" stroke="none" stroke-width="0.17188" stroke-linecap="butt"/><g data-paper-data="{&quot;index&quot;:null}" stroke="none" stroke-linecap="butt"><path d="M234.56763,214.8121c0.05751,-0.63881 2.74661,-2.57122 3.11541,-3.56808c0.71951,-1.94486 1.69335,-4.25038 1.99736,-4.23284c0.37959,0.04747 0.96141,4.98198 0.39861,6.84113c-0.22145,0.73807 -5.34838,1.71882 -5.51135,0.95981z" data-paper-data="{&quot;index&quot;:null}" fill="#ffffff" stroke-width="0.19137"/><path d="M238.97328,213.82202c0.83855,-0.01516 1.2388,-0.83027 1.26578,-0.46467c0.01881,0.25489 -1.25196,1.29403 -1.67597,2.12746c-0.1839,0.36103 -5.17287,0.03621 -5.17287,0.03621l1.39434,-1.25332c0,0 2.85544,-0.14832 3.69414,-0.16349z" data-paper-data="{&quot;index&quot;:null}" fill="#54c81c" stroke-width="0.17188"/></g><path d="M241.58603,215.43617c0,0 -1.10711,0.8404 -2.21943,1.18941c-1.11232,0.34902 -2.98613,0.41604 -2.98613,0.41604l-2.9816,-0.24635c0,0 1.08988,-1.21931 1.8278,-1.53005c0.7379,-0.31076 3.86856,-0.65024 3.86512,-0.77297c-0.00833,-0.29712 2.54905,-1.51759 2.55102,-0.83389z" data-paper-data="{&quot;index&quot;:null}" fill="#54c81c" stroke="none" stroke-width="0.17188" stroke-linecap="butt"/><path d="M240.54459,206.23376c0.65456,-0.02581 0.5469,1.43117 0.68365,2.40513c0.13674,0.97396 0.31261,5.06166 0.31261,5.06166c0,0 -0.57651,0.88502 -1.11667,1.24172c-0.54016,0.3567 -1.53711,0.63665 -1.53711,0.63665c0,0 -0.8053,0.27999 -1.74943,0.36278c-0.94412,0.0828 -2.58796,0.3498 -2.28933,-0.00864c0.74274,-0.89148 3.04093,-4.11884 3.15712,-4.59692c0.32695,-1.34519 1.07662,-3.48812 1.41501,-4.20363c0.33839,-0.71551 0.66244,-0.80387 1.12416,-0.8218z" data-paper-data="{&quot;index&quot;:null}" fill="#ffffff" stroke="none" stroke-width="0.17188" stroke-linecap="butt"/><g data-paper-data="{&quot;index&quot;:null}" stroke="none" stroke-linecap="butt"><path d="M240.32033,203.35388c0.08677,-0.15476 0.30369,-0.14834 0.58399,-0.01306c0.28028,0.13527 0.62418,0.39946 0.96471,0.76039c0.34049,0.36084 0.61375,0.7507 0.78031,1.08899c0.1665,0.33832 0.22615,0.62502 0.1394,0.77978c-0.08671,0.15464 -0.30365,0.14822 -0.58405,0.01297c-0.28029,-0.13529 -0.62408,-0.39951 -0.96461,-0.76044c-0.34049,-0.36084 -0.61384,-0.75067 -0.78031,-1.08899c-0.16657,-0.33828 -0.22615,-0.62502 -0.13944,-0.77967z" fill="#eb3d66" stroke-width="0.01872"/><path d="M240.74636,203.52237c0.04164,-0.06892 0.14561,-0.0705 0.28,-0.01731c0.13449,0.05314 0.29931,0.16107 0.46263,0.31104c0.16341,0.14994 0.29443,0.31385 0.37431,0.45745c0.07988,0.14368 0.10859,0.26707 0.06696,0.33597c-0.04148,0.06896 -0.14553,0.07046 -0.28,0.01732c-0.1345,-0.05316 -0.29932,-0.16107 -0.46259,-0.31096c-0.16331,-0.14998 -0.29449,-0.31395 -0.37433,-0.45755c-0.07987,-0.14369 -0.10852,-0.26698 -0.06693,-0.33599z" fill="#ffffff" stroke-width="0.01896"/></g><path d="M241.37428,194.48882c4.0188,-0.31644 4.61355,3.9547 4.65704,4.20958c0.06856,0.6054 -0.02549,1.22414 -0.21409,1.80059c-0.30735,0.96433 -0.93163,1.85553 -1.82531,2.35572c-0.44724,0.179 -0.37997,0.16844 -0.81297,0.36633c-0.63406,0.42025 -1.54918,0.51312 -2.27393,0.50729c-0.58822,0.02637 -1.17605,-0.04347 -1.74587,-0.19255c-0.36494,-0.10965 -0.77246,-0.1625 -1.07427,-0.41276c-0.27742,-0.23759 -0.50564,-0.56647 -0.51551,-0.94307c-0.07449,-0.91392 -0.15757,-1.82864 -0.14928,-2.74595c0.00738,-0.11943 -0.43267,-4.59975 3.95419,-4.94518z" data-paper-data="{&quot;index&quot;:null}" fill="#f0e9bb" stroke="none" stroke-width="0.17188" stroke-linecap="butt"/><path d="M244.77475,198.78012c0.24826,-0.04061 0.39401,0.08879 0.48279,0.36783c0.06208,0.19567 0.10361,0.48668 0.10168,0.75089c-0.00215,0.28487 -0.00214,0.45569 -0.03743,0.62631c-0.03467,0.16755 -0.10484,0.33684 -0.07917,0.3932c0.03723,0.08163 -0.06894,0.18503 -0.46418,0.27076c-0.25316,0.05494 -0.49978,0.09461 -0.71039,0.12755c-0.20734,0.00501 -0.31126,-1.13601 -0.18074,-1.43449c0.08213,-0.54868 0.28129,-0.89441 0.88745,-1.10205z" data-paper-data="{&quot;index&quot;:null}" fill="#ffffff" stroke="none" stroke-width="0.17188" stroke-linecap="butt"/><path d="M244.12677,199.02299c-0.57076,0.44788 -0.18008,2.25292 -0.18008,2.25292c0,0 -0.61678,-1.64896 0.05779,-2.33696c0.20811,-0.21225 0.32622,-0.32982 0.52276,-0.38144c0.27412,-0.07199 0.40114,0.00137 0.61027,0.18982c0.1163,0.10479 0.31509,0.43597 0.32553,0.75955c0.00241,0.07462 1.18793,0.07506 1.18793,0.07506c0,0 -0.84362,0.13613 -1.02375,0.25868c-0.172,0.11702 -0.05377,0.46302 -0.1514,0.75489c-0.09764,0.29187 -0.22168,0.41893 -0.22168,0.41893c0,0 0.14663,-0.42381 0.12964,-0.98414c-0.01271,-0.41935 -0.16873,-1.03677 -0.39571,-1.21444c-0.30301,-0.26417 -0.44533,-0.21652 -0.86131,0.20713z" data-paper-data="{&quot;index&quot;:null}" fill="#000000" stroke="none" stroke-width="0" stroke-linecap="butt"/><g data-paper-data="{&quot;index&quot;:null}" stroke="none" stroke-linecap="butt"><path d="M244.31961,200.49606c0,-0.5294 0.20288,-0.95856 0.45314,-0.95856c0.25026,0 0.45314,0.42916 0.45314,0.95856c0,0.5294 -0.20288,0.95856 -0.45314,0.95856c-0.25026,0 -0.45314,-0.42916 -0.45314,-0.95856z" fill="#008ae6" stroke-width="0"/><path d="M244.76807,199.67052c0.07892,-0.00736 0.1526,0.06999 0.20772,0.2009c0.05525,0.13092 0.09193,0.31542 0.09713,0.52227c0.00504,0.20696 -0.0224,0.39744 -0.07075,0.53808c-0.04848,0.14062 -0.11785,0.23143 -0.19677,0.23877c-0.07892,0.00736 -0.15262,-0.06999 -0.20772,-0.20089c-0.05525,-0.13093 -0.09195,-0.31542 -0.097,-0.52226c-0.00518,-0.20698 0.02225,-0.39746 0.07057,-0.5381c0.04848,-0.14063 0.11797,-0.23127 0.19679,-0.23878z" fill="#000000" stroke-width="0.0278"/><path d="M244.62365,199.90842c0.0419,-0.09781 0.10095,-0.15996 0.16695,-0.16302c0.06603,-0.00305 0.12675,0.05362 0.17136,0.14739c0.0448,0.0938 0.07346,0.22477 0.07549,0.37069c0.00218,0.14612 -0.02275,0.27957 -0.06482,0.37735c-0.04189,0.09781 -0.10094,0.15998 -0.16694,0.16303c-0.06603,0.00305 -0.12675,-0.05362 -0.17136,-0.1474c-0.0448,-0.0938 -0.07347,-0.22477 -0.0755,-0.37069c-0.00217,-0.14612 0.02276,-0.27956 0.06483,-0.37734z" fill="#ffffff" stroke-width="0.01811"/></g><path d="M241.0214,201.53423c-0.25971,0 -0.60994,0.03376 -0.92479,0.01872c-0.49139,-0.02363 -0.93532,-0.15374 -0.93532,-0.15374c0,0 -0.34037,-0.32711 -0.32037,-1.01971c0.01782,-0.61715 0.3131,-1.38581 0.81319,-1.38581c0.35709,0 0.66262,0.1376 1.01899,0.65129c0.08756,0.12623 0.59849,1.86225 0.3483,1.88925z" data-paper-data="{&quot;index&quot;:null}" fill="#ffffff" stroke="none" stroke-width="0.17188" stroke-linecap="butt"/><g data-paper-data="{&quot;index&quot;:null}" stroke="none" stroke-linecap="butt"><path d="M240.06962,200.82939c0,-0.5294 0.20288,-0.95856 0.45313,-0.95856c0.25025,0 0.45313,0.42916 0.45313,0.95856c0,0.5294 -0.20288,0.95856 -0.45313,0.95856c-0.25025,0 -0.45313,-0.42916 -0.45313,-0.95856z" fill="#008ae6" stroke-width="0"/><path d="M240.51807,200.00384c0.07892,-0.00736 0.1526,0.07 0.20772,0.20091c0.05525,0.13092 0.09193,0.31542 0.09713,0.52227c0.00504,0.20696 -0.0224,0.39744 -0.07075,0.53808c-0.04848,0.14062 -0.11785,0.23142 -0.19677,0.23877c-0.07892,0.00736 -0.15261,-0.07 -0.20772,-0.20089c-0.05525,-0.13092 -0.09195,-0.31541 -0.097,-0.52225c-0.00518,-0.20699 0.02225,-0.39747 0.07057,-0.53811c0.04848,-0.14062 0.11796,-0.23126 0.19679,-0.23877z" fill="#000000" stroke-width="0.0278"/><path d="M240.37366,200.24176c0.0419,-0.0978 0.10095,-0.15994 0.16695,-0.16301c0.06603,-0.00305 0.12675,0.05362 0.17136,0.14739c0.0448,0.0938 0.07346,0.22477 0.07549,0.37069c0.00217,0.14612 -0.02276,0.27956 -0.06483,0.37735c-0.0419,0.0978 -0.10095,0.15998 -0.16695,0.16303c-0.06603,0.00305 -0.12675,-0.05361 -0.17136,-0.1474c-0.0448,-0.0938 -0.07346,-0.22477 -0.07549,-0.37069c-0.00217,-0.14612 0.02276,-0.27956 0.06483,-0.37735z" fill="#ffffff" stroke-width="0.01811"/></g><path d="M240.41704,199.43449c-0.41598,-0.42365 -0.72904,-0.49569 -1.03205,-0.23153c-0.22698,0.17767 -0.383,0.79509 -0.39571,1.21444c-0.01699,0.56033 0.12964,0.98414 0.12964,0.98414c0,0 -0.12404,-0.12706 -0.22167,-0.41893c-0.09763,-0.29187 0.0206,-0.63787 -0.1514,-0.75489c-0.18012,-0.12255 -1.02374,-0.25869 -1.02374,-0.25869c0,0 1.18552,-0.00044 1.18793,-0.07506c0.01043,-0.32357 0.20922,-0.65476 0.32552,-0.75955c0.20913,-0.18845 0.43372,-0.26181 0.70783,-0.18982c0.19655,0.05163 0.36344,0.21798 0.57155,0.43023c0.67457,0.688 0.61877,2.11745 0.61877,2.11745c0,0 -0.14592,-1.60991 -0.71667,-2.05779z" data-paper-data="{&quot;index&quot;:null}" fill="#000000" stroke="none" stroke-width="0" stroke-linecap="butt"/><path d="M244.81521,201.16287l0.45,-0.13333c0,0 -0.40244,0.8 -0.81666,0.8c-0.41422,0 -0.55,-0.53333 -0.55,-0.53333z" data-paper-data="{&quot;index&quot;:null}" fill="#f0e9bb" stroke="none" stroke-width="0" stroke-linecap="butt"/><path d="M240.52247,201.60062l0.46708,-0.04595c0,0 -0.54629,0.70961 -0.95305,0.63138c-0.40676,-0.07822 -0.43938,-0.6276 -0.43938,-0.6276z" data-paper-data="{&quot;index&quot;:null}" fill="#f0e9bb" stroke="none" stroke-width="0" stroke-linecap="butt"/><path d="M245.6698,194.43193c0.89112,-0.12517 1.53266,0.01443 1.90908,0.28966c0.05363,0.03902 0.02379,0.07963 0.08863,0.14276c0.07844,0.07647 0.29223,0.19345 0.25173,0.1646c0,0 -0.07766,0.15432 -0.07063,0.22723c0.00899,0.09267 0.12575,0.20053 0.03744,0.17793c0,0 0.05858,0.13615 0.04654,0.18544c-0.13139,0.53843 -0.57014,1.23333 -1.14857,1.59037c0.31011,0.47154 -1.65014,-2.36234 -1.11419,-2.77797z" data-paper-data="{&quot;index&quot;:null}" fill="#ed3e67" stroke="none" stroke-width="0.17188" stroke-linecap="butt"/><path d="M237.69172,198.55214l-0.14493,2.30593l0.22328,1.85968l0.26041,1.31603c0.03082,0.15471 -1.60511,-1.06113 -1.94356,-1.49178c-0.4189,-0.5328 -0.68772,-1.11557 -0.95396,-1.69924c-0.19422,-0.42532 -0.21042,-0.59959 -0.27206,-0.9086l-0.19116,-0.95938c-0.03635,-0.18228 -0.12528,-1.10934 0.05363,-1.2685c0.05078,-0.04514 0.69126,0.41888 0.76466,0.4171l0.53576,-0.01452c0.15896,-0.00417 0.63357,-0.34263 0.77117,-0.45406c0.10057,-0.08131 0.65836,-0.70894 0.71763,-1.32186l0.05858,-0.6063c0.0088,-0.0908 -0.21971,-1.04345 -0.18334,-1.06054c0.07489,-0.03547 -0.76448,-1.04858 -0.68651,-1.08969c0.43378,-0.22941 0.95986,-0.52302 1.55047,-0.65253c0.92847,-0.20362 1.94475,-0.17387 2.46558,-0.16696c0.08881,0.00118 1.2202,0.03863 1.89673,0.26683c1.07131,0.36128 1.67375,1.04868 1.71524,1.08641c0.65165,0.59227 1.13633,1.28195 1.47637,2.05597l0.18465,0.6547c0.09455,0.33511 0.4179,2.17928 0.23749,2.83141l-0.61548,2.2271c-0.10769,0.39004 -1.14097,2.21722 -1.35149,2.11102c-0.29499,-0.14849 -0.30092,-1.30012 -0.4011,-1.15904c-0.22209,0.31247 1.5227,-1.22673 1.60569,-1.65784c0.14179,-0.73708 0.42354,-1.43893 0.3607,-1.95798c-0.01195,-0.09801 -0.02142,-0.76852 -0.03251,-0.93073c-0.0086,-0.12824 -0.08674,-0.23265 -0.21556,-0.19946c-0.08574,0.02202 -0.28927,-0.0827 -0.4179,0.122l-0.38104,0.60709c-0.06184,0.09829 -1.20527,1.88398 -1.26148,1.74795c-0.01037,-0.02529 0.21646,-0.5966 0.2287,-0.63454c0.07438,-0.2294 0.0822,-0.4082 0.00899,-0.32602c-0.19255,0.21614 -0.51551,0.78422 -0.51551,0.78422c-0.04624,0.07004 -0.55888,0.02657 -0.90496,-0.09376c-0.32198,-0.11194 -0.72711,-0.50058 -0.82927,-0.59653l-1.10984,-1.04336c-1.04246,-0.97952 -0.97559,-0.56066 -1.03655,-0.67376c0.04682,-0.07509 -0.74392,-0.10206 -0.93143,0.07183c-0.0747,0.06926 -0.30252,0.20174 -0.41988,0.26971c-0.15618,0.09028 -0.26366,0.14373 -0.31623,0.23197z" data-paper-data="{&quot;index&quot;:null}" fill="#54c81c" stroke="none" stroke-width="0.17188" stroke-linecap="butt"/><path d="M233.78297,197.03247c-0.58457,-0.19987 -1.12625,-0.73948 -1.36503,-1.20361c-0.02193,-0.04248 -0.00256,-0.18001 -0.00256,-0.18001c-0.07144,0.0401 0.00514,-0.08437 -0.0086,-0.17111c-0.01076,-0.06817 -0.11401,-0.19246 -0.11401,-0.19246c-0.02846,0.03535 0.12992,-0.11866 0.18038,-0.20579c0.0416,-0.07214 0.00623,-0.10275 0.04376,-0.15048c0.26289,-0.33434 0.7872,-0.60293 1.58939,-0.68425c1.04959,-0.10621 1.97119,0.66369 1.97119,1.04049c0,0 -1.29624,2.08832 -2.29455,1.74718z" data-paper-data="{&quot;index&quot;:null}" fill="#ed3e67" stroke="none" stroke-width="0.17188" stroke-linecap="butt"/><path d="M236.84549,195.95777c0.14365,-0.10037 -0.28086,1.33162 -0.65034,1.53148c-0.63545,0.34361 -0.56431,0.59662 -1.10718,0.43123c-0.12193,-0.03694 -0.36337,-0.25193 -0.71043,-0.39528c-0.40208,-0.16587 -0.75812,-0.39645 -0.62485,-0.46541l0.8018,-0.46987l1.18848,-1.32126c0.01848,-0.02056 -0.22418,-0.22485 -0.60166,-0.49159c-0.26468,-0.18711 -0.66073,-0.40911 -0.96936,-0.52824c-0.18187,-0.07013 0.18217,-0.28087 0.70025,-0.42897c0.25113,-0.07183 0.51786,-0.16675 0.81554,-0.14996c0.51551,0.02923 0.89251,0.62002 1.03041,1.21892c0.12921,0.56085 0.03171,1.13553 0.12734,1.06894z" data-paper-data="{&quot;index&quot;:null}" fill="#54c81c" stroke="none" stroke-width="0.17188" stroke-linecap="butt"/><path d="M237.58958,195.9226c0.02578,1.17337 -1.13384,2.2116 -1.50887,2.18501l-0.58959,0.10817l-0.83431,-0.4982c-0.21359,-0.12764 1.1622,0.07421 1.49702,-0.29341c0.21853,-0.23978 0.37818,-0.42501 0.4089,-0.51995c0.29144,-0.90534 0.25982,-1.64569 0.08034,-2.1281c-0.28205,-0.75804 -0.84765,-1.00108 -0.47965,-1.17615c0.87749,-0.4177 1.39792,1.04027 1.42618,2.32263z" data-paper-data="{&quot;index&quot;:null}" fill="#ead32e" stroke="none" stroke-width="0.17188" stroke-linecap="butt"/><path d="M245.30762,195.29183c0,0 -0.27119,-0.33806 -0.46275,-0.59878c-0.39961,-0.54387 -1.00188,-0.87097 -0.88638,-1.02341c0.09622,-0.06166 0.59039,0.06807 0.72534,0.19491l0.27415,0.25745c0.48201,0.45287 0.67268,1.11102 0.66487,1.38054c-0.00336,0.11658 0.11994,0.32939 0.07796,0.4591c0,0 -0.31634,-0.40407 -0.3932,-0.66984z" data-paper-data="{&quot;index&quot;:null}" fill="#ead32e" stroke="none" stroke-width="0.17188" stroke-linecap="butt"/><path d="M244.94775,194.00648c0,0 1.04078,-0.03211 1.22741,0.25577c0.12408,0.19117 -0.04554,0.65254 0.0988,0.79767c0.1792,0.18021 0.44733,0.62525 0.5898,0.95265c0.04278,0.29933 0.15027,0.58593 0.02203,0.91986c0.05215,0.29461 -0.68088,0.83629 -0.70755,0.73967l-0.36258,-1.31326c-0.09198,-0.33322 -0.30072,-1.00868 -0.35862,-1.1457z" data-paper-data="{&quot;index&quot;:null}" fill="#54c81c" stroke="none" stroke-width="0.17188" stroke-linecap="butt"/><path d="M239.4913,203.05038h0.83908" data-paper-data="{&quot;index&quot;:null}" fill="none" stroke="#dfcfa3" stroke-width="0.36953" stroke-linecap="round"/><g data-paper-data="{&quot;index&quot;:null}" stroke="none" stroke-width="0.17188" stroke-linecap="butt"><path d="M239.80369,203.84855c0.01382,0.8194 -0.42937,1.17039 -0.57216,1.05219c-0.331,-0.27379 -1.29763,-3.11124 -1.35077,-4.49891c-0.0334,-0.87701 -0.63376,-2.99506 -0.33677,-3.79772c0.1954,-0.52734 1.03501,-0.61542 1.60817,-0.61025c0.44365,0.00312 0.55966,-0.14634 0.59518,0.2823c0.10722,1.29642 -0.24706,2.57032 -0.23478,4.22249c0.01229,1.65218 0.27297,2.27101 0.29114,3.3499z" fill="#319a2b"/><path d="M238.43179,194.86661c-0.31189,0.40806 -0.67536,0.29939 -0.83338,0.17856c-0.75715,-0.61933 -1.25883,-1.74762 -1.22564,-2.62526c-0.04108,0.17407 0.25944,-0.82404 1.20635,-0.75729c0.41028,0.01119 1.15349,-0.16393 1.81309,-0.18619l0.6319,0.14334c0.29038,0.06576 0.43751,0.47145 0.28712,0.75345c-0.02223,0.04172 0.22173,-0.06644 0.36106,0.06386c0.25078,0.23455 0.45879,0.77254 0.26436,1.01731c-0.17028,0.21479 -0.16828,0.62991 -0.51558,0.82734c-0.46831,0.26622 -0.28326,-0.40998 -0.71177,-0.32709c-0.25471,0.04915 -1.27036,0.9028 -1.2775,0.91197z" fill="#f0e9bb"/><path d="M239.32393,196.36151c-0.28846,0.10418 -1.80071,0.96441 -2.00352,0.7235c-0.35553,-0.47617 0.19028,-1.60608 -0.11481,-2.10657c0.0971,0.1533 0.70465,0.02913 0.70465,0.02913c0.03246,-0.00935 0.49355,-0.20502 0.96421,-0.61926c0.38699,-0.34057 0.77087,-0.71883 0.98655,-0.56806c0.14931,0.10415 0.54701,0.42731 0.55991,0.80355c0.01357,0.39973 0.16624,0.93108 0.06062,1.32971c-0.04569,0.1726 -0.44821,1.15187 -0.53039,1.27274c-0.12525,0.18378 -0.19019,-0.43986 -0.14297,-0.40694c0.23585,0.16437 -0.19201,-0.56324 -0.48424,-0.4578z" fill="#ead42f"/></g><path d="M245.73488,199.75918l0.05378,-0.20263l0.88618,0.02564z" data-paper-data="{&quot;index&quot;:null}" fill="#000000" stroke="none" stroke-width="0" stroke-linecap="butt"/><g data-paper-data="{&quot;index&quot;:null}" stroke="none" stroke-width="0" stroke-linecap="butt"><path d="M252.71046,210.47345c-1.8634,0.28688 -4.73386,-2.70736 -4.73386,-2.70736c-0.44088,-0.41833 -0.67726,-0.90527 -0.84337,-1.42758c-0.14468,-0.45488 -0.23609,-0.93664 -0.36292,-1.42332c-0.27243,-1.04549 1.1663,-0.2031 1.1663,-0.2031c0,0 2.15199,1.09171 2.96051,2.07483c0.79452,0.75201 3.17456,3.47698 1.81332,3.68656z" fill="#54c81c"/><path d="M244.14283,202.95176c0,0 0.57202,-1.08418 1.80209,-0.21736c1.23009,0.8668 1.83898,1.7404 2.68858,2.47721c0.69839,0.60566 1.89814,1.3803 2.21945,1.88959c0.32132,0.50931 0.44267,1.27892 -0.34775,1.10932c-0.62137,-0.13333 -2.46122,-1.97075 -2.46122,-1.97075c0,0 -1.83837,-1.56338 -2.39227,-1.89966c-1.71412,-1.11447 -2.19434,4.02259 -2.19434,4.02259l-1.23593,-1.55708z" fill="#ffffff"/></g><g data-paper-data="{&quot;index&quot;:null}" stroke="none" stroke-width="0" stroke-linecap="butt"><path d="M251.48786,212.44012c-1.88532,0.0112 -4.2869,-3.37072 -4.2869,-3.37072c-0.37494,-0.47833 -0.53754,-0.99459 -0.62547,-1.5356c-0.07658,-0.47117 -0.09654,-0.96112 -0.15081,-1.46111c-0.11658,-1.07409 1.18346,-0.03031 1.18346,-0.03031c0,0 1.96913,1.39476 2.62516,2.48558c0.67599,0.86012 2.63181,3.90395 1.25455,3.91214z" fill="#54c81c"/><path d="M244.1288,203.52036c0,0 0.70836,-0.76317 1.7984,0.27427c1.09005,1.03743 1.56461,1.99069 2.29728,2.84385c0.60226,0.70131 1.6758,1.64309 1.91916,2.19392c0.24335,0.55083 0.25083,1.32992 -0.50628,1.04652c-0.59519,-0.22277 -2.14647,-2.30957 -2.14647,-2.30957c0,0 -1.58991,-1.8155 -2.08866,-2.22918c-1.53265,-1.3532 -2.08864,4.01798 -2.08864,4.01798l-1.53173,-2.12869z" fill="#ffffff"/></g><path d="M241.37516,206.18911c0.57949,0 0.89045,-0.41909 1.05882,-0.11968c0.08695,0.15462 -0.59396,0.57513 -1.17226,0.54074c-0.65108,-0.17263 -1.42063,0.15139 -1.42063,0.15139l0.21187,-0.60534c0,0 0.74271,0.03289 1.3222,0.03289z" data-paper-data="{&quot;index&quot;:null}" fill="#ead42f" stroke="none" stroke-width="0" stroke-linecap="butt"/></g></g></svg>