<svg version="1.1" xmlns="http://www.w3.org/2000/svg" xmlns:xlink="http://www.w3.org/1999/xlink" width="24.13964" height="34.00021" viewBox="0,0,24.13964,34.00021"><g transform="translate(-228.45245,-164.74786)"><g data-paper-data="{&quot;isPaintingLayer&quot;:true}" fill-rule="nonzero" stroke="none" stroke-miterlimit="10" stroke-dasharray="" stroke-dashoffset="0" style="mix-blend-mode: normal"><path d="" fill="#000000" stroke-width="1" stroke-linecap="round" stroke-linejoin="round"/><path d="" fill="#ee1a40" stroke-width="1" stroke-linecap="round" stroke-linejoin="round"/><g stroke-width="0" stroke-linecap="butt" stroke-linejoin="miter"><path d="M248.63702,183.76029l0.26574,7.96189l3.68933,4.11153c0,0 -6.5605,-0.43126 -9.52362,-2.89009c-2.68229,-2.22577 -2.75803,-5.99156 -2.75803,-5.99156z" data-paper-data="{&quot;index&quot;:null}" fill="#2095ad"/><path d="M229.20844,198.60919c0,0 2.49797,-4.96464 2.49797,-7.49387c0,-1.35269 -1.77291,-6.16176 -1.86153,-11.24706c-0.07715,-4.42315 2.15173,-10.67948 3.80438,-10.67948c1.76282,0 1.68911,12.75863 1.82706,15.28406c0.78497,12.23074 -6.26787,14.13634 -6.26787,14.13634z" data-paper-data="{&quot;index&quot;:null}" fill="#2095ad"/><path d="M240.8398,186.63139c0.60325,5.4503 -4.41499,12.11668 -4.41499,12.11668c0,0 -2.08163,-1.84328 -1.38776,-9.78365c0.12344,-1.41255 0.34535,-3.9235 0.34535,-3.9235c0,0 5.34132,0.54185 5.45739,1.5905z" data-paper-data="{&quot;index&quot;:null}" fill="#2095ad"/><path d="M249.66187,173.32591c0,0.12055 -0.62848,0.21828 -1.93382,0.21828c-1.30534,0 -4.2257,-4.02601 -4.2257,-4.14651c0,-0.1205 2.54303,0.41315 3.84836,0.41315c0.59281,0 -0.08416,1.2129 0.621,1.96698c0.84751,0.90624 1.69012,1.48238 1.69012,1.54817z" fill="#2095ad"/><path d="M239.47783,166.13559c0,0 -2.46136,0.39423 -3.43416,1.07608c-0.45753,0.32069 -3.46345,1.7708 -3.41983,1.46548c0.50099,-3.5061 3.93967,-3.51299 3.93967,-3.51299c0,0 0.1304,-0.4163 1.31838,-0.4163c1.18799,0 1.59594,1.38776 1.59594,1.38776z" fill="#2095ad"/><path d="M244.89005,167.10698c0,0.38323 -1.64042,0.13878 -2.63674,0.13878c-0.99632,0 -2.0816,-1.11018 -2.0816,-1.11018c0,0 -0.09516,-1.06187 0.95008,-1.00342c1.5899,0.08894 3.76833,1.59166 3.76833,1.97489z" fill="#2095ad"/><path d="M242.94721,167.31524c0,0.80479 -1.56782,1.17958 -3.33057,1.17958c-1.76282,0 -3.19185,-0.37484 -3.19185,-1.17958c0,-0.80478 1.42903,-1.31837 3.19185,-1.31837c1.7628,0 3.33057,0.51357 3.33057,1.31837z" fill="#2095ad"/><path d="M250.57994,172.44991c0,0 -3.15957,-4.08642 -5.27164,-5.0286c-0.82388,-0.36755 -3.48926,0.94953 -2.91612,0.03267c0.09606,-0.15372 1.89064,-1.49977 2.91935,-1.39161c1.67653,0.01129 2.35409,0.76712 2.35409,0.76712c0,0 1.40654,-0.2863 2.53981,1.07473c1.41394,1.69817 0.37445,4.54569 0.37445,4.54569z" fill="#2095ad"/><path d="M249.74721,173.49085l-2.71838,-2.3218c0,0 -0.62388,-1.57836 0.28127,-1.57836c0.90511,0 2.43711,3.90021 2.43711,3.90021z" fill="#2095ad"/><path d="M249.46971,177.51534c0,0 0.14214,5.35211 -0.59626,8.38778c-0.73839,3.03568 -3.15067,7.01626 -3.15067,7.01626c0,0 -0.13879,-4.67437 -0.13879,-10.26935c0,-5.59498 -2.63669,-13.04488 -2.63669,-13.04488c0,0 2.58075,0.01838 3.49604,0.53067c1.19061,0.6664 3.02642,7.37952 3.02642,7.37952z" fill="#2095ad"/><path d="M248.48567,180.92976c-0.22807,4.77001 -5.18925,6.10482 -7.54524,6.07554c-3.9185,-0.04873 -7.92102,-1.79839 -7.84623,-6.22332c0.06086,-3.60171 3.4794,-6.52242 7.77145,-6.52242c4.29205,0 8.31836,2.99458 7.62003,6.67021z" fill="#2095ad"/><path d="M241.54552,182.56167c0,0 -0.88294,0.15687 -1.9721,0.15687c-1.08916,0 -1.73678,-0.2988 -1.73678,-0.2988c0,0 -0.44383,-3.06835 1.61728,-2.66677c2.1339,0.3639 2.09158,2.80871 2.09158,2.80871z" fill="#eaeee9"/><path d="M228.58394,174.32339c0,0 0.17116,-1.93287 0.47632,-2.87615c0.30514,-0.94328 1.05024,-1.8422 1.05024,-1.8422l0.62449,2.01225z" fill="#2095ad"/><path d="M248.53161,170.13061c0,0.06161 -2.04528,-0.27447 -3.24625,-0.27447c-1.20096,0 -3.40122,-1.15136 -3.40122,-1.21295c0,-0.06161 1.08512,-1.44972 2.73217,-1.44972c1.647,0 3.91529,2.87555 3.91529,2.93714z" fill="#2095ad"/><path d="M228.45245,174.55341c0,0 0.86924,-1.13819 1.2385,-1.65101c0.36926,-0.51282 1.15311,-1.61728 1.15311,-1.61728c0,0 0.5576,0.59682 0.5576,1.4283c0,0.83142 -2.9492,1.84 -2.9492,1.84z" fill="#2095ad"/><path d="M246.05909,182.23468c0,0 -0.36256,-1.43326 -0.1383,-2.21219c0.34401,-1.19483 0.97681,-1.52341 1.61308,-0.7374c0.63621,0.78599 -0.04612,2.76528 -0.04612,2.76528z" fill="#eaeee9"/><path d="M246.58043,182.19033c-0.48969,0 -0.88665,-0.66717 -0.88665,-1.49023c0,-0.82303 0.39696,-1.49022 0.88665,-1.49022c0.48969,0 0.88663,0.66715 0.88663,1.49022c0,0.82303 -0.39694,1.49023 -0.88663,1.49023z" fill="#a77baf"/><path d="M249.43898,180.20659c0,0 -0.02488,-0.36 -0.99478,-0.96046c-1.1082,-0.68608 -2.45699,2.02769 -2.45699,2.02769l-0.53272,-1.2205c0,0 -0.45424,1.50426 -0.86805,1.65969c-0.61575,0.2313 -2.41229,-1.19603 -3.98455,-1.59445c-1.37578,-0.34861 -5.16647,-0.21792 -5.16647,-0.21792c0,0 -3.25821,-8.81158 -0.70955,-9.844c0.74126,-4.08801 5.27963,-3.41371 8.13565,-2.78407c2.85606,0.62964 4.1143,5.29226 5.3515,7.11057c1.23718,1.81831 1.226,5.82346 1.226,5.82346z" fill="#2095ad"/><path d="M234.63451,170.30948c-1.92512,2.05472 -3.48309,1.93223 -3.48309,1.93223c0,0 -0.47986,-0.58772 -0.90051,-1.49508c-0.29306,-0.63218 -0.55744,-1.49089 -0.61084,-2.11412c-0.05846,-0.68184 1.30687,-1.58509 2.11676,-1.79362c0.99299,-0.2557 1.47618,0.26812 1.47618,0.26812c0,0 1.52581,-0.72865 2.27505,-0.64838c0.74925,0.08033 2.0911,1.25688 2.0911,1.25688c0,0 -1.26443,0.16102 -1.86373,0.88242c-0.31478,0.37895 -0.6897,1.27272 -1.1009,1.71162z" fill="#2095ad"/><path d="M247.77434,180.75834c-0.02661,-0.09662 0.65502,-0.45069 1.26777,-0.84022c0.61271,-0.38953 1.47706,-1.12448 1.47706,-1.12448c0,0 -0.72012,1.02832 -1.21701,1.27286c-0.49689,0.24466 -1.47046,0.89967 -1.5278,0.69184z" data-paper-data="{&quot;index&quot;:null}" fill="#2195ab"/><path d="M239.27082,182.62077c-0.48969,0 -0.88665,-0.66717 -0.88665,-1.49023c0,-0.82303 0.39696,-1.49022 0.88665,-1.49022c0.48969,0 0.88663,0.66715 0.88663,1.49022c0,0.82303 -0.39694,1.49023 -0.88663,1.49023z" fill="#a77baf"/><path d="M244.69957,182.41419c-0.03506,-0.45394 1.11978,-1.02098 1.11978,-1.02098c0,0 0.14148,0.65435 0.28087,0.666c0.37749,0.03153 1.4223,-0.07004 1.4223,-0.07004c0,0 -0.64364,1.02417 -1.31468,0.97945c-0.26264,-0.01747 -1.48574,-0.26257 -1.50827,-0.55444z" fill="#2195ab"/><path d="M237.74985,183.30393l0.94707,-0.59196c0,0 0.75504,0.0592 1.12464,0.0592c0.3696,0 1.00627,-0.11841 1.00627,-0.11841l0.65117,0.65112z" fill="#2195ab"/><path d="" data-paper-data="{&quot;index&quot;:null}" fill="#2095ad"/></g></g></g></svg>