<svg version="1.1" xmlns="http://www.w3.org/2000/svg" xmlns:xlink="http://www.w3.org/1999/xlink" width="27.41323" height="30.27572" viewBox="0,0,27.41323,30.27572"><defs><radialGradient cx="240.74916" cy="201.82025" r="1.31225" gradientUnits="userSpaceOnUse" id="color-1"><stop offset="0" stop-color="#f5ab87" stop-opacity="0.34902"/><stop offset="1" stop-color="#f5ab87" stop-opacity="0"/></radialGradient><radialGradient cx="235.47928" cy="201.38547" r="0.73225" gradientUnits="userSpaceOnUse" id="color-2"><stop offset="0" stop-color="#f5ab87" stop-opacity="0.34902"/><stop offset="1" stop-color="#f5ab87" stop-opacity="0"/></radialGradient></defs><g transform="translate(-225.81077,-188.78574)"><g data-paper-data="{&quot;isPaintingLayer&quot;:true}" fill-rule="nonzero" stroke-linejoin="miter" stroke-miterlimit="10" stroke-dasharray="" stroke-dashoffset="0" style="mix-blend-mode: normal"><g data-paper-data="{&quot;index&quot;:null}" stroke="none" stroke-width="0" stroke-linecap="butt"><path d="M249.88594,201.89118c1.41282,-0.36071 2.60873,1.8995 2.60873,1.8995c0,0 -1.23164,-0.85032 -2.43869,0.9438c-0.55362,1.14617 -2.38709,2.71502 -2.38709,2.71502c0,0 -1.19923,1.15821 -1.18129,0.07795c0.00837,-0.50287 -0.01653,-0.99258 0.01667,-1.46877c0.03813,-0.54678 0.15287,-1.07574 0.48254,-1.58632c0,0 1.48627,-2.22048 2.8991,-2.58119z" fill="#54c81c"/><path d="M253.07934,204.3597c-0.23798,0.31463 -0.68595,0.37676 -1.00057,0.13877c-0.31463,-0.23798 -0.37677,-0.68595 -0.13879,-1.00058c0.23798,-0.31463 0.68597,-0.37678 1.00059,-0.13879c0.31463,0.23799 0.37676,0.68597 0.13877,1.00058z" fill="#ffffff"/></g><g data-paper-data="{&quot;index&quot;:null}" stroke="none" stroke-width="0" stroke-linecap="butt"><path d="M249.37315,202.98485c1.33887,-0.57758 2.87409,1.46738 2.87409,1.46738c0,0 -1.34964,-0.64687 -2.26073,1.31418c-0.36723,1.21875 -1.93229,3.05545 -1.93229,3.05545c0,0 -1.00299,1.33177 -1.15449,0.26204c-0.07052,-0.49797 -0.17182,-0.97774 -0.21363,-1.45325c-0.048,-0.546 -0.01753,-1.08639 0.22808,-1.64232c0,0 1.12007,-2.4259 2.45895,-3.00348z" fill="#54c81c"/><path d="M252.91386,204.92263c-0.18577,0.34803 -0.61847,0.47956 -0.96649,0.2938c-0.34803,-0.18575 -0.47957,-0.61846 -0.29382,-0.96649c0.18575,-0.34803 0.61847,-0.47958 0.96649,-0.29382c0.34803,0.18577 0.47956,0.61848 0.2938,0.96649z" fill="#ffffff"/></g><g data-paper-data="{&quot;index&quot;:null}" stroke="none" stroke-width="0.17188" stroke-linecap="butt"><path d="M238.86029,199.65167c0.01231,1.65217 0.27298,2.27098 0.29115,3.3499c0.0138,0.8194 -0.42937,1.17039 -0.57217,1.05219c-0.331,-0.27381 -1.29763,-3.11124 -1.35077,-4.49891c-0.03341,-0.87703 -0.63379,-2.99507 -0.33677,-3.79772c0.19539,-0.52732 1.035,-0.61541 1.60817,-0.61025c0.44365,0.00312 0.55965,-0.14633 0.59518,0.2823c0.10722,1.29642 -0.24708,2.57032 -0.23478,4.22249z" fill="#c27e34"/><path d="M237.77945,194.01965c-0.31189,0.40806 -0.67535,0.29939 -0.83338,0.17856c-0.75714,-0.61932 -1.25883,-1.74761 -1.22564,-2.62526c-0.04109,0.17406 0.25945,-0.82405 1.20634,-0.75729c0.41026,0.01118 1.15349,-0.16393 1.81309,-0.18619l0.6319,0.14334c0.29039,0.06576 0.43752,0.47143 0.28713,0.75345c-0.02221,0.04172 0.22175,-0.06644 0.36106,0.06386c0.25077,0.23455 0.45879,0.77255 0.26436,1.01731c-0.17028,0.21479 -0.16828,0.6299 -0.51558,0.82734c-0.46832,0.26623 -0.28327,-0.40999 -0.71177,-0.32709c-0.2547,0.04913 -1.27036,0.9028 -1.2775,0.91197z" fill="#ffcfea"/><path d="M239.15589,195.97231c0.23584,0.16435 -0.19201,-0.56325 -0.48424,-0.4578c-0.28846,0.10417 -1.8007,0.96442 -2.00352,0.7235c-0.35553,-0.47616 0.19028,-1.60607 -0.11481,-2.10657c0.09711,0.1533 0.70465,0.02913 0.70465,0.02913c0.03248,-0.00936 0.49358,-0.20504 0.96421,-0.61926c0.38698,-0.34058 0.77086,-0.71884 0.98655,-0.56806c0.14931,0.10416 0.54704,0.42733 0.55991,0.80355c0.01356,0.39971 0.16621,0.93107 0.06062,1.32971c-0.04569,0.17261 -0.44822,1.15188 -0.53039,1.27274c-0.12525,0.18377 -0.19019,-0.43987 -0.14297,-0.40694z" fill="#ead42f"/></g><path d="M230.71462,204.72352c0,0 2.19809,-0.05316 4.04081,0.04643c1.29705,0.05969 4.25348,-0.39156 4.25348,-0.39156l-0.11003,1.03502c0,0 -2.23805,0.40075 -3.93595,0.44224c-1.69789,0.04148 -4.45427,-0.02484 -4.45427,-0.02484z" data-paper-data="{&quot;index&quot;:null}" fill="#fba15d" stroke="none" stroke-width="0" stroke-linecap="butt"/><path d="M231.31054,203.29355c0,0 2.01784,0.11725 3.04213,0.249c1.32807,0.17082 4.47254,0.1519 4.47254,0.1519l-0.26117,0.92628c0,0 -3.16753,0.42972 -4.51068,0.37246c-1.23124,-0.05249 -3.68747,-0.32829 -3.68747,-0.32829z" data-paper-data="{&quot;index&quot;:null}" fill="#fba15d" stroke="none" stroke-width="0" stroke-linecap="butt"/><path d="M238.84581,208.0437c0,0 -0.09206,-4.00159 -0.02481,-4.12896c0.26199,-0.49533 0.87924,-0.36285 1.0287,-0.36171c0.11834,0.0009 0.67821,0.05842 0.76508,0.15604c0.28156,0.31667 0.3499,1.13256 0.33381,1.96105c-0.01011,0.94759 1.53856,3.49258 1.23981,3.93084c-0.35833,0.39327 -3.3426,-1.55725 -3.3426,-1.55725z" data-paper-data="{&quot;index&quot;:null}" fill="#c27e34" stroke="none" stroke-width="0.17188" stroke-linecap="butt"/><path d="M244.80125,210.92357l-4.63503,-2.35582l0.65437,-1.49129c0,0 3.41949,3.28999 4.74638,1.73447c0.43554,-0.47978 1.75402,-2.50102 1.75402,-2.50102c0,0 1.24204,-2.2844 1.79994,-2.58877c0.70967,-0.38717 0.81196,0.38521 0.64857,0.96481c-0.16339,0.5796 -1.09364,1.66315 -1.59118,2.44227c-0.60526,0.94781 -0.94089,1.95839 -1.87403,3.13895c-0.93313,1.18057 -1.50303,0.65641 -1.50303,0.65641z" data-paper-data="{&quot;index&quot;:null}" fill="#ffffff" stroke="none" stroke-width="0" stroke-linecap="butt"/><path d="M245.39425,212.14688l-4.73244,-2.15345l0.58935,-1.51817c0,0 3.55839,3.13925 4.81685,1.52788c0.41441,-0.49814 1.64437,-2.57444 1.64437,-2.57444c0,0 1.14223,-2.33591 1.68645,-2.66408c0.69229,-0.41746 0.82783,0.34978 0.68963,0.93591c-0.1382,0.58612 -1.02079,1.70882 -1.48421,2.50871c-0.56376,0.97306 -0.85544,1.99719 -1.73672,3.21695c-0.88128,1.21976 -1.47328,0.7207 -1.47328,0.7207z" data-paper-data="{&quot;index&quot;:null}" fill="#ffffff" stroke="none" stroke-width="0" stroke-linecap="butt"/><path d="M242.48418,199.33396c0.00829,0.91731 -0.07479,1.83203 -0.14928,2.74595c-0.00987,0.3766 -0.23809,0.70548 -0.51551,0.94307c-0.30181,0.25026 -0.70933,0.30311 -1.07427,0.41276c-0.56982,0.14908 -1.15765,0.21892 -1.74587,0.19255c-0.72475,0.00583 -1.63987,-0.08704 -2.27393,-0.50729c-0.433,-0.19789 -0.36573,-0.18733 -0.81297,-0.36633c-0.89368,-0.50019 -1.51796,-1.39139 -1.82531,-2.35572c-0.1886,-0.57645 -0.28265,-1.19519 -0.21409,-1.80059c0.04349,-0.25488 0.63824,-4.52602 4.65704,-4.20958c4.38686,0.34543 3.94681,4.82575 3.95419,4.94518z" data-paper-data="{&quot;index&quot;:null}" fill="#f0e9bb" stroke="none" stroke-width="0.17188" stroke-linecap="butt"/><path d="M235.08248,198.77098c0.60616,0.20764 0.80532,0.55337 0.88745,1.10205c0.13052,0.29848 0.0266,1.4395 -0.18074,1.43449c-0.21061,-0.03294 -0.45723,-0.07261 -0.71039,-0.12755c-0.39524,-0.08573 -0.50141,-0.18913 -0.46418,-0.27076c0.02567,-0.05636 -0.0445,-0.22565 -0.07917,-0.3932c-0.03529,-0.17062 -0.03528,-0.34144 -0.03743,-0.62631c-0.00193,-0.26421 0.0396,-0.55522 0.10168,-0.75089c0.08878,-0.27904 0.23453,-0.40844 0.48279,-0.36783z" data-paper-data="{&quot;index&quot;:null}" fill="#ffffff" stroke="none" stroke-width="0.17188" stroke-linecap="butt"/><path d="M237.14029,204.15875c0,-0.51334 1.17861,-0.44414 2.3646,-0.44414c1.186,0 2.16052,-0.46559 2.16052,0.04775c0,0.09149 0.05779,0.14811 -0.18415,0.3482c-0.13449,0.11122 0.38174,0.1634 0.19684,0.28743c-0.41662,0.27946 -1.69529,0.07931 -2.22423,0.07931c-0.438,0 -1.88844,0.36799 -2.21704,0.13437c-0.19722,-0.14022 0.45234,-0.13297 0.3122,-0.24058c-0.2586,-0.19856 -0.40873,-0.13346 -0.40873,-0.21233z" data-paper-data="{&quot;index&quot;:null}" fill="#ffe340" stroke="none" stroke-width="0" stroke-linecap="butt"/><path d="M238.46163,203.74762c0,-0.07045 0.28665,0.05651 1.08552,-0.02551c0.49694,-0.05102 1.10443,-0.12807 1.10443,-0.05762c0,0.07044 -1.89317,0.38071 -2.16581,0.3909c-0.27265,0.01019 -0.02415,-0.23732 -0.02415,-0.30777z" data-paper-data="{&quot;index&quot;:null}" fill="#000000" stroke="none" stroke-width="0" stroke-linecap="butt"/><path d="M235.73048,199.01385c-0.41598,-0.42365 -0.5583,-0.4713 -0.86131,-0.20713c-0.22698,0.17767 -0.383,0.79509 -0.39571,1.21444c-0.01699,0.56033 0.12964,0.98414 0.12964,0.98414c0,0 -0.12404,-0.12706 -0.22168,-0.41893c-0.09763,-0.29187 0.0206,-0.63787 -0.1514,-0.75489c-0.18013,-0.12255 -1.02375,-0.25868 -1.02375,-0.25868c0,0 1.18552,-0.00044 1.18793,-0.07506c0.01044,-0.32358 0.20923,-0.65476 0.32553,-0.75955c0.20913,-0.18845 0.33615,-0.26181 0.61027,-0.18982c0.19654,0.05162 0.31465,0.16919 0.52276,0.38144c0.67457,0.688 0.05779,2.33696 0.05779,2.33696c0,0 0.39068,-1.80504 -0.18008,-2.25292z" data-paper-data="{&quot;index&quot;:null}" fill="#000000" stroke="none" stroke-width="0" stroke-linecap="butt"/><g data-paper-data="{&quot;index&quot;:null}" stroke="none" stroke-linecap="butt"><path d="M235.08449,201.44548c-0.25026,0 -0.45314,-0.42916 -0.45314,-0.95856c0,-0.5294 0.20288,-0.95856 0.45314,-0.95856c0.25026,0 0.45314,0.42916 0.45314,0.95856c0,0.5294 -0.20288,0.95856 -0.45314,0.95856z" fill="#008ae6" stroke-width="0"/><path d="M235.0892,199.66137c0.07882,0.00751 0.14831,0.09815 0.19679,0.23878c0.04832,0.14064 0.07575,0.33112 0.07057,0.5381c-0.00505,0.20684 -0.04175,0.39133 -0.097,0.52226c-0.0551,0.1309 -0.1288,0.20825 -0.20772,0.20089c-0.07892,-0.00734 -0.14829,-0.09815 -0.19677,-0.23877c-0.04835,-0.14064 -0.07579,-0.33112 -0.07075,-0.53808c0.0052,-0.20685 0.04188,-0.39135 0.09713,-0.52227c0.05512,-0.13091 0.1288,-0.20826 0.20772,-0.2009z" fill="#000000" stroke-width="0.0278"/><path d="M235.23358,199.89929c0.04207,0.09778 0.067,0.23122 0.06483,0.37734c-0.00203,0.14592 -0.0307,0.27689 -0.0755,0.37069c-0.04461,0.09378 -0.10533,0.15045 -0.17136,0.1474c-0.066,-0.00305 -0.12505,-0.06522 -0.16694,-0.16303c-0.04207,-0.09778 -0.067,-0.23123 -0.06482,-0.37735c0.00203,-0.14592 0.03069,-0.27689 0.07549,-0.37069c0.04461,-0.09377 0.10533,-0.15044 0.17136,-0.14739c0.066,0.00306 0.12505,0.06521 0.16695,0.16302z" fill="#ffffff" stroke-width="0.01811"/></g><path d="M239.18414,199.63584c0.35637,-0.51369 0.6619,-0.65129 1.01899,-0.65129c0.50009,0 0.79537,0.76866 0.81319,1.38581c0.02,0.6926 -0.32037,1.01971 -0.32037,1.01971c0,0 -0.44393,0.13011 -0.93532,0.15374c-0.31485,0.01504 -0.66508,-0.01872 -0.92479,-0.01872c-0.25019,-0.027 0.26074,-1.76302 0.3483,-1.88925z" data-paper-data="{&quot;index&quot;:null}" fill="#ffffff" stroke="none" stroke-width="0.17188" stroke-linecap="butt"/><g data-paper-data="{&quot;index&quot;:null}" stroke="none" stroke-linecap="butt"><path d="M239.33449,201.77881c-0.25025,0 -0.45313,-0.42916 -0.45313,-0.95856c0,-0.5294 0.20288,-0.95856 0.45313,-0.95856c0.25025,0 0.45313,0.42916 0.45313,0.95856c0,0.5294 -0.20288,0.95856 -0.45313,0.95856z" fill="#008ae6" stroke-width="0"/><path d="M239.3392,199.99471c0.07883,0.00751 0.14831,0.09815 0.19679,0.23877c0.04832,0.14064 0.07575,0.33112 0.07057,0.53811c-0.00505,0.20684 -0.04175,0.39133 -0.097,0.52225c-0.05511,0.13089 -0.1288,0.20825 -0.20772,0.20089c-0.07892,-0.00735 -0.14829,-0.09815 -0.19677,-0.23877c-0.04835,-0.14064 -0.07579,-0.33112 -0.07075,-0.53808c0.0052,-0.20685 0.04188,-0.39135 0.09713,-0.52227c0.05512,-0.13091 0.1288,-0.20827 0.20772,-0.20091z" fill="#000000" stroke-width="0.0278"/><path d="M239.48358,200.23263c0.04207,0.09779 0.067,0.23123 0.06483,0.37735c-0.00203,0.14592 -0.03069,0.27689 -0.07549,0.37069c-0.04461,0.09379 -0.10533,0.15045 -0.17136,0.1474c-0.066,-0.00305 -0.12505,-0.06523 -0.16695,-0.16303c-0.04207,-0.09779 -0.067,-0.23123 -0.06483,-0.37735c0.00203,-0.14592 0.03069,-0.27689 0.07549,-0.37069c0.04461,-0.09377 0.10533,-0.15044 0.17136,-0.14739c0.066,0.00307 0.12505,0.06521 0.16695,0.16301z" fill="#ffffff" stroke-width="0.01811"/></g><path d="M238.72353,201.48314c0,0 -0.0558,-1.42945 0.61877,-2.11745c0.20811,-0.21225 0.375,-0.3786 0.57155,-0.43023c0.27411,-0.07199 0.4987,0.00137 0.70783,0.18982c0.1163,0.10479 0.31509,0.43598 0.32552,0.75955c0.00241,0.07462 1.18793,0.07506 1.18793,0.07506c0,0 -0.84362,0.13614 -1.02374,0.25869c-0.172,0.11702 -0.05377,0.46302 -0.1514,0.75489c-0.09763,0.29187 -0.22167,0.41893 -0.22167,0.41893c0,0 0.14663,-0.42381 0.12964,-0.98414c-0.01271,-0.41935 -0.16873,-1.03677 -0.39571,-1.21444c-0.30301,-0.26416 -0.61607,-0.19212 -1.03205,0.23153c-0.57075,0.44788 -0.71667,2.05779 -0.71667,2.05779z" data-paper-data="{&quot;index&quot;:null}" fill="#000000" stroke="none" stroke-width="0" stroke-linecap="butt"/><path d="M235.95869,201.28707c0,0 -0.13578,0.53333 -0.55,0.53333c-0.41422,0 -0.81666,-0.8 -0.81666,-0.8l0.45,0.13333z" data-paper-data="{&quot;index&quot;:null}" fill="#f0e9bb" stroke="none" stroke-width="0" stroke-linecap="butt"/><path d="M240.26012,201.54931c0,0 -0.03262,0.54938 -0.43938,0.6276c-0.40676,0.07823 -0.95305,-0.63138 -0.95305,-0.63138l0.46708,0.04595z" data-paper-data="{&quot;index&quot;:null}" fill="#f0e9bb" stroke="none" stroke-width="0" stroke-linecap="butt"/><path d="M234.24408,194.32273c0.53291,0.41952 -1.44797,3.23903 -1.13443,2.76977c-0.57581,-0.36125 -1.00948,-1.05934 -1.13694,-1.59871c-0.01168,-0.04938 0.04788,-0.18509 0.04788,-0.18509c-0.08847,0.02195 0.02907,-0.08505 0.03874,-0.17766c0.00756,-0.07285 -0.06897,-0.22774 -0.06897,-0.22774c-0.04071,0.02855 0.17393,-0.08686 0.25292,-0.16276c0.0653,-0.06265 0.03575,-0.10348 0.08967,-0.14211c0.37841,-0.27247 1.02097,-0.40739 1.91114,-0.27572z" data-paper-data="{&quot;index&quot;:null}" fill="#ed3e67" stroke="none" stroke-width="0.17188" stroke-linecap="butt"/><path d="M242.19194,198.501c-0.05192,-0.08862 -0.15901,-0.14285 -0.31453,-0.23427c-0.11686,-0.06882 -0.3437,-0.20296 -0.4179,-0.27277c-0.18624,-0.17526 -0.97715,-0.15406 -0.93088,-0.07863c-0.06178,0.11265 0.00814,-0.3057 -1.04143,0.66619l-1.11742,1.03524c-0.10286,0.09521 -0.51081,0.48087 -0.8336,0.59047c-0.34694,0.11781 -0.85989,0.15752 -0.90562,0.08715c0,0 -0.3188,-0.57042 -0.50977,-0.78797c-0.07261,-0.08272 -0.0661,0.09614 0.00661,0.32608c0.01196,0.03802 0.23462,0.61098 0.22407,0.63619c-0.0572,0.13561 -1.18757,-1.65837 -1.2487,-1.75711l-0.3766,-0.60986c-0.12713,-0.20563 -0.33143,-0.1024 -0.417,-0.12504c-0.12858,-0.03413 -0.20748,0.06971 -0.21701,0.19788c-0.01227,0.16212 -0.02664,0.83255 -0.0393,0.93047c-0.06663,0.51858 0.21,1.22247 0.3464,1.96056c0.07985,0.4317 1.81335,1.98359 1.59355,1.66951c-0.09915,-0.14181 -0.11348,1.00975 -0.40955,1.15609c-0.21129,0.10467 -1.23121,-1.73001 -1.33604,-2.12083l-0.59922,-2.23153c-0.17564,-0.65343 0.16115,-2.49518 0.25814,-2.8296l0.18943,-0.65333c0.34568,-0.77152 0.83538,-1.45764 1.49133,-2.04514c0.04176,-0.03743 0.64921,-0.72041 1.72312,-1.07386c0.67818,-0.22326 1.80981,-0.25245 1.89862,-0.25298c0.52087,-0.00311 1.53734,-0.02544 2.4643,0.18494c0.58965,0.13382 1.11357,0.43125 1.54567,0.66383c0.07767,0.04168 -0.76907,1.04864 -0.69444,1.08466c0.03625,0.01736 -0.19921,0.96832 -0.19108,1.05917l0.05416,0.60671c0.0548,0.61334 0.60799,1.24503 0.70796,1.32706c0.13679,0.11243 0.60891,0.45435 0.76783,0.45968l0.53564,0.01843c0.07339,0.00231 0.71723,-0.45702 0.76769,-0.41151c0.17775,0.16046 0.08205,1.08685 0.04438,1.26885l-0.19816,0.95796c-0.06389,0.30855 -0.08136,0.4827 -0.27869,0.90659c-0.27048,0.58171 -0.54356,1.16251 -0.96633,1.69223c-0.34159,0.42817 -1.98634,1.63204 -1.9544,1.47756l0.27,-1.31409l0.23684,-1.858l-0.1281,-2.30693z" data-paper-data="{&quot;index&quot;:null}" fill="#54c81c" stroke="none" stroke-width="0.17188" stroke-linecap="butt"/><path d="M246.11168,197.00988c-1.00078,0.33384 -2.28175,-1.76388 -2.28175,-1.76388c0.00276,-0.37679 0.92995,-1.13995 1.97873,-1.02607c0.80157,0.08718 1.32391,0.35958 1.58435,0.69583c0.03719,0.04801 0.00159,0.07835 0.04266,0.15079c0.04983,0.08749 0.20707,0.24266 0.17887,0.2071c0,0 -0.10416,0.12354 -0.11541,0.19163c-0.01437,0.08664 0.0613,0.21166 -0.00985,0.17104c0,0 0.01836,0.13768 -0.00387,0.17998c-0.24216,0.46238 -0.78776,0.99803 -1.37378,1.19361z" data-paper-data="{&quot;index&quot;:null}" fill="#ed3e67" stroke="none" stroke-width="0.17188" stroke-linecap="butt"/><path d="M243.05706,195.9129c0.09515,0.06728 0.00183,-0.50809 0.13513,-1.06798c0.14226,-0.59788 0.52356,-1.1859 1.03928,-1.21136c0.2978,-0.01462 0.56382,0.08224 0.81442,0.1559c0.51699,0.15187 0.87947,0.36527 0.6971,0.43407c-0.3095,0.11688 -0.70715,0.33598 -0.97319,0.52116c-0.37942,0.26397 -0.62357,0.46649 -0.60523,0.48719l1.17881,1.3299l0.79835,0.47571c0.13276,0.06993 -0.22495,0.29791 -0.62822,0.46084c-0.3481,0.14081 -0.5911,0.35404 -0.71329,0.39008c-0.54407,0.16142 -0.47108,-0.09105 -1.10401,-0.4393c-0.36801,-0.20254 -0.78206,-1.63759 -0.63915,-1.53619z" data-paper-data="{&quot;index&quot;:null}" fill="#54c81c" stroke="none" stroke-width="0.17188" stroke-linecap="butt"/><path d="M242.31322,195.87231c0.03762,-1.28213 0.56867,-2.73625 1.44309,-2.31217c0.36672,0.17776 -0.20064,0.41666 -0.48822,1.17262c-0.183,0.48108 -0.22002,1.22118 0.06481,2.12863c0.03003,0.09516 0.18831,0.28156 0.4051,0.52292c0.33212,0.37005 1.70935,0.17825 1.49485,0.30433l-0.83792,0.4921l-0.58878,-0.11246c-0.37521,0.02385 -1.52723,-1.02281 -1.49288,-2.19596z" data-paper-data="{&quot;index&quot;:null}" fill="#ead32e" stroke="none" stroke-width="0.17188" stroke-linecap="butt"/><path d="M234.60002,195.18521c-0.0788,0.26521 -0.39808,0.66696 -0.39808,0.66696c-0.04104,-0.13001 0.08382,-0.34191 0.08131,-0.45852c-0.00585,-0.26957 0.18963,-0.92631 0.67493,-1.37564l0.27603,-0.25544c0.13587,-0.12585 0.63098,-0.25197 0.72674,-0.18961c0.11439,0.15328 -0.49026,0.47597 -0.89382,1.01691c-0.19345,0.25931 -0.46711,0.59538 -0.46711,0.59538z" data-paper-data="{&quot;index&quot;:null}" fill="#ead32e" stroke="none" stroke-width="0.17188" stroke-linecap="butt"/><path d="M234.45117,195.10546c-0.05889,0.1366 -0.27256,0.81052 -0.36697,1.14305l-0.37215,1.31058c-0.02737,0.09642 -0.75643,-0.45059 -0.70213,-0.74481c-0.12581,-0.33486 -0.01622,-0.62067 0.02875,-0.91968c0.14485,-0.32635 0.41623,-0.76942 0.59674,-0.94832c0.14539,-0.14407 -0.02085,-0.60667 0.10462,-0.79693c0.18873,-0.28651 1.22924,-0.2468 1.22924,-0.2468z" data-paper-data="{&quot;index&quot;:null}" fill="#54c81c" stroke="none" stroke-width="0.17188" stroke-linecap="butt"/><path d="M240.35956,202.98601l-0.83906,-0.00612" data-paper-data="{&quot;index&quot;:null}" fill="none" stroke="#dfcfa3" stroke-width="0.36953" stroke-linecap="round"/><path d="M239.21127,193.18034c-1.2877,0.03749 -3.52581,0.80848 -3.52581,0.80848c0,0 -0.20921,-0.79308 -1.1397,-1.35532c-0.93049,-0.56224 -1.29932,-0.87992 -2.21815,-0.91342c-0.91883,-0.0335 -1.25515,-0.08274 -2.39662,0.02218c-1.14147,0.10492 -2.74148,-0.56706 -2.74148,-0.56706c0,0 0.98288,-0.91839 3.75822,-1.75418c2.77533,-0.83579 5.16365,-0.70375 6.96056,-0.41046c1.79691,0.29329 3.2277,1.32268 4.08471,2.21329c1.04038,1.08117 1.73599,2.53078 1.73599,2.53078c0,0 -3.13151,-0.61465 -4.51772,-0.57429z" data-paper-data="{&quot;index&quot;:null}" fill="#c27e34" stroke="none" stroke-width="0" stroke-linecap="butt"/><g data-paper-data="{&quot;index&quot;:null}" stroke="none" stroke-linecap="butt"><path d="M237.64016,212.67542c-0.00927,0.10474 -0.73132,1.79677 -0.7441,2.54663c-0.00418,0.24576 -1.37896,0.38226 -2.22631,0.32004c-0.84737,-0.06221 -2.15767,-0.7267 -2.15767,-0.7267l0.45771,-0.76006l1.52422,0.35982l1.52055,0.14277z" data-paper-data="{&quot;index&quot;:null}" fill="#54c81c" stroke-width="0.17188"/><path d="M237.83489,213.31689c0.03486,-0.58422 1.94949,-0.46059 1.9301,-0.20696c-0.008,0.10485 0.03995,2.20645 0.03629,2.95628c-0.00213,0.4406 -0.90472,1.54318 -1.62972,2.08785c-0.725,0.54468 -3.92422,0.90741 -3.92422,0.90741c0,0 0.82825,-0.88516 1.25697,-1.52702c0.42871,-0.64186 1.11478,-1.09049 1.13561,-1.75011z" data-paper-data="{&quot;index&quot;:null}" fill="#54c81c" stroke-width="0.17188"/><path d="M235.17875,213.43189c0.54011,-0.35594 0.33454,-0.0199 1.15914,-1.07936c0.82459,-1.05946 1.39236,-3.9433 2.81242,-5.41584c0.27784,0.89528 -1.1346,4.29336 -1.40865,5.33106c-0.27404,1.03772 -0.66749,1.48418 -0.82927,2.08198c-0.17472,0.64518 -2.12851,0.19155 -3.36794,-0.04838c-1.2394,-0.23993 1.09416,-0.51356 1.63427,-0.8695z" data-paper-data="{&quot;index&quot;:null}" fill="#ffffff" stroke-width="0.17188"/><path d="M239.90041,207.08237c0.66964,-0.18347 1.61034,-0.06645 1.63154,0.40502c0.02118,0.47147 -0.17063,2.05997 -0.54089,3.32061c-0.37029,1.26066 -1.09234,3.60587 -1.24689,4.20558c-0.1669,0.64725 -0.97652,0.65075 -0.97652,0.65075c0,0 -2.00302,0.74791 -2.36898,0.72c-0.38264,-0.02918 0.37927,-1.01381 0.46026,-1.57614c0.08099,-0.56232 0.23479,-0.45165 0.32918,-1.6891c0.09541,-1.25051 0.24677,-1.58598 0.5263,-2.5459c0,0 0.29326,-2.12213 0.7796,-2.73428c0,0 0.13039,-0.36471 0.54432,-0.74472c0.22898,-0.21022 0.43363,0.02979 0.86208,-0.01182z" data-paper-data="{&quot;index&quot;:null}" fill="#ffffff" stroke-width="0.17188"/><path d="M239.64172,214.72428c-0.14826,-0.65357 4.02184,-0.25875 4.07993,0.02676c0.02399,0.11793 2.75618,-0.16781 3.45075,-0.01471c0.69459,0.1531 2.09895,1.05701 2.09895,1.05701l-2.68886,0.86496c0,0 -1.60544,0.3011 -2.62626,0.18443c-1.02081,-0.11669 -3.89569,-0.81349 -3.89569,-0.81349z" data-paper-data="{&quot;index&quot;:null}" fill="#54c81c" stroke-width="0.17188"/><g data-paper-data="{&quot;index&quot;:null}"><path d="M245.82034,212.40608c0.2041,0.73814 -2.15934,2.10132 -2.47115,1.52422c-0.78687,-1.45185 -2.11523,-6.54769 -2.01782,-6.73065c0.08484,-0.12825 1.5096,1.70333 2.37174,3.17368c0.44191,0.75366 1.88736,1.48354 2.11721,2.03272z" data-paper-data="{&quot;index&quot;:null}" fill="#ffffff" stroke-width="0.19137"/><path d="M244.41811,213.22214c0.2552,-0.29701 1.15624,-1.22191 1.15624,-1.22191l0.83318,0.60292c0,0 -1.37985,2.13743 -1.55491,1.88313c-0.40396,-0.58724 -1.12896,-1.04464 -1.20821,-1.27924c-0.11367,-0.33647 0.27708,0.24319 0.53224,-0.05376z" data-paper-data="{&quot;index&quot;:null}" fill="#54c81c" stroke-width="0.17188"/></g><path d="M241.82868,207.78368c0.4442,0.61766 1.55056,2.51887 2.12312,3.74036c0.20347,0.43411 2.86225,3.06963 3.68829,3.7766c0.33211,0.28424 -1.12194,0.3495 -1.94159,0.45436c-0.81966,0.10488 -1.5647,-0.00569 -1.5647,-0.00569c0,0 -1.05593,0.35015 -1.5927,0.11465c-0.53679,-0.23554 -2.74918,0.08896 -3.03235,-1.30271c-0.28616,-1.40648 -0.21821,-3.73326 -0.31572,-4.69043c-0.09751,-0.95716 0.82061,-2.66368 1.38193,-2.76658c0,0 0.80952,0.06179 1.25372,0.67944z" data-paper-data="{&quot;index&quot;:null}" fill="#ffffff" stroke-width="0.17188"/></g><path d="M233.1824,199.57305l0.88618,-0.02564l0.05378,0.20263z" data-paper-data="{&quot;index&quot;:null}" fill="#000000" stroke="none" stroke-width="0" stroke-linecap="butt"/><path d="M239.43691,201.77421c0,-0.32172 0.80526,-0.12708 1.39624,-0.26252c0.15674,-0.03592 0.33217,-0.09323 0.5003,-0.14139c0.39354,-0.11273 0.74705,-0.17532 0.72717,0.20391c-0.02836,0.54124 -0.53507,0.78252 -1.18527,0.78252c-0.60801,0 -1.43843,-0.26081 -1.43843,-0.58253z" data-paper-data="{&quot;index&quot;:null}" fill="url(#color-1)" stroke="none" stroke-width="0" stroke-linecap="butt"/><g data-paper-data="{&quot;index&quot;:null}" stroke="none" stroke-width="0.17188" stroke-linecap="butt"><g data-paper-data="{&quot;index&quot;:null}"><path d="M240.19216,203.79595c0.01817,-1.07889 -0.09428,-1.69772 -0.08199,-3.3499c0.01228,-1.65217 -0.19275,-2.92607 -0.08553,-4.22249c0.03552,-0.42864 0.37541,-0.27918 0.81906,-0.2823c0.57316,-0.00517 1.63665,-0.06634 1.83205,0.461c0.29699,0.80266 -0.378,3.14459 -0.4114,4.0216c-0.05314,1.38767 -1.16902,4.15049 -1.50002,4.42428c-0.14279,0.1182 -0.58598,-0.23279 -0.57216,-1.05219z" fill="#c27e34"/><path d="M241.56407,194.81401c-0.00714,-0.00917 -1.02279,-0.86282 -1.2775,-0.91197c-0.42851,-0.08289 -0.24346,0.59331 -0.71177,0.32709c-0.3473,-0.19743 -0.3453,-0.61255 -0.51558,-0.82734c-0.19443,-0.24477 0.01358,-0.78276 0.26436,-1.01731c0.13933,-0.1303 0.38329,-0.02214 0.36106,-0.06386c-0.15039,-0.282 -0.00326,-0.68769 0.28712,-0.75345l0.6319,-0.14334c0.6596,0.02226 1.40281,0.19738 1.81309,0.18619c0.94691,-0.06675 1.24743,0.93136 1.20635,0.75729c0.03319,0.87764 -0.46849,2.00593 -1.22564,2.62526c-0.15802,0.12083 -0.52149,0.2295 -0.83338,-0.17856z" fill="#ffcfea"/></g><path d="M240.14663,196.32811c-0.43194,-0.18369 -0.40394,-0.30087 -0.45576,-0.51599c-0.11979,-0.49687 0.04574,-1.16348 0.05803,-1.66347c0.01167,-0.47059 0.09393,-0.33557 0.25868,-0.46795c0.238,-0.19169 0.76068,-0.1264 1.25285,-0.07156c0.49218,0.05484 1.29395,0.31794 1.33,0.32917c0,0 0.18202,0.75044 0.20893,1.24393c0.02692,0.49349 0.19009,0.5053 -0.06108,1.08154c-0.22313,0.30416 -0.85051,0.22614 -1.42132,0.23981c-0.5708,0.01368 -0.73838,0.00818 -1.17032,-0.17551z" data-paper-data="{&quot;index&quot;:null}" fill="#fca03b"/></g><g data-paper-data="{&quot;index&quot;:null}" stroke="none" stroke-width="0" stroke-linecap="butt"><path d="M233.54279,195.58431c0.17393,-0.1176 0.43398,-0.26322 0.52235,-0.2726c0.13046,-0.01385 0.54364,-0.06411 0.70678,-0.00198c0.21372,0.0814 0.3991,0.29354 0.40464,0.34572c0.00502,0.04729 -0.24286,0.06961 -0.46184,0.00981c-0.14471,-0.03951 -0.23159,-0.17085 -0.38621,-0.15443c-0.17225,0.01828 -0.58162,0.35976 -0.79638,0.43774c-0.08344,0.0303 -0.3712,-0.06596 -0.58663,-0.21018c-0.22772,-0.15245 -0.38127,-0.35424 -0.38127,-0.35424l0.20505,-0.44203l0.53236,0.8338c0,0 0.07939,-0.08226 0.24115,-0.19163z" fill="#671829"/><path d="M234.74478,195.72402c0.1323,-0.01405 0.42721,0.031 0.43907,0.14263c0.01185,0.11161 -0.07146,0.34823 -0.20376,0.36228c-0.0302,0.00321 -1.04991,-0.42068 -1.18111,0.08424c-0.06348,0.2443 0.62225,0.46466 0.62225,0.46466l-0.30179,0.18593c0,0 -0.53955,-0.33877 -0.4019,-0.70813c0.19892,-0.53378 0.95864,-0.52433 1.02725,-0.53162z" fill="#671829"/><path d="M235.58037,196.59316c0,0 -0.12137,0.03019 -0.1407,-0.15182c-0.00449,-0.0424 0.02282,0.21238 -0.09607,0.30372c-0.13277,0.10201 -0.39801,0.04309 -0.44234,-0.03779c-0.04757,-0.08682 -0.02793,-0.30384 0.06071,-0.4694c0.12897,-0.24093 0.29508,-0.42837 0.33789,-0.43292c0.14245,-0.01512 0.58943,0.32642 0.61778,0.50993c0.01441,0.09322 -0.33727,0.27827 -0.33727,0.27827z" fill="#804046"/><path d="M235.30101,194.81762c0.05377,-0.02738 0.41263,0.10389 0.41813,0.19806c0.01082,0.18536 -0.31248,0.86609 -0.45492,0.88122c-0.0428,0.00455 -0.12481,-0.15656 -0.30149,-0.36503c-0.12142,-0.14326 -0.29266,-0.43188 -0.29266,-0.43188l0.40161,-0.2031l0.08126,0.26976c0,0 0.04613,-0.29708 0.14808,-0.34903z" data-paper-data="{&quot;index&quot;:null}" fill="#804046"/><path d="M235.46943,195.77576c0.00922,0.08682 -0.05871,0.16521 -0.15173,0.17508c-0.09302,0.00988 -0.17589,-0.05249 -0.18511,-0.13932c-0.00922,-0.08682 0.05871,-0.16521 0.15173,-0.17508c0.09302,-0.00988 0.17589,0.05249 0.18511,0.13932z" fill="#671829"/></g><g data-paper-data="{&quot;index&quot;:null}" stroke-width="0" stroke-linecap="butt"><path d="M226.7298,192.07069c-0.47962,0.00987 -0.87644,-0.37096 -0.8863,-0.85059c-0.00987,-0.47962 0.37095,-0.87644 0.85058,-0.8863c0.47963,-0.00986 0.87645,0.37097 0.88631,0.8506c0.00988,0.47962 -0.37095,0.87644 -0.85058,0.8863z" fill="#db7b04" stroke="none"/><path d="M226.72304,190.24672c0.27975,-0.00575 0.25102,0.48606 0.26056,0.94996c0.00954,0.4639 -0.02833,0.92714 -0.27935,0.93231c-0.1648,0.00339 -0.06196,-0.46119 -0.0715,-0.92509c-0.00954,-0.46391 -0.0745,-0.95379 0.0903,-0.95718z" fill="#feeb00" stroke="#000000"/><path d="M225.91316,191.16942c0.18111,-0.00373 0.58748,0.03261 0.58935,0.12317c0.00187,0.09056 0.08883,0.27721 -0.09229,0.28093c-0.18111,0.00373 -0.56051,-0.1194 -0.56238,-0.20996c-0.00186,-0.09055 -0.1158,-0.19041 0.06532,-0.19413z" fill="#000000" stroke="none"/><path d="M226.4819,190.63095c0.00098,0.04761 -0.10116,0.08831 -0.22812,0.09093c-0.12697,0.00262 -0.20195,-0.03445 -0.20293,-0.08207c-0.00097,-0.04763 0.24367,-0.14875 0.37063,-0.15137c0.12696,-0.00262 0.05945,0.09488 0.06043,0.14249z" fill="#000000" stroke="none"/></g><path d="M236.21155,201.33941c0,0.32172 -0.46339,0.58253 -0.80266,0.58253c-0.36282,0 -0.76556,-0.40128 -0.78139,-0.94252c-0.01109,-0.37923 0.26617,0.00336 0.48577,0.11608c0.09382,0.04816 0.27171,0.06547 0.35917,0.10139c0.32977,0.13544 0.73911,-0.17919 0.73911,0.14253z" data-paper-data="{&quot;index&quot;:null}" fill="url(#color-2)" stroke="none" stroke-width="0" stroke-linecap="butt"/></g></g></svg>