<svg version="1.1" xmlns="http://www.w3.org/2000/svg" xmlns:xlink="http://www.w3.org/1999/xlink" width="385.72602" height="29.56364" viewBox="0,0,385.72602,29.56364"><g transform="translate(-55.31857,-7.78806)"><g data-paper-data="{&quot;isPaintingLayer&quot;:true}" fill="#261265" fill-rule="nonzero" stroke="none" stroke-linecap="butt" stroke-linejoin="miter" stroke-miterlimit="10" stroke-dasharray="" stroke-dashoffset="0" style="mix-blend-mode: normal"><path d="M151.58861,36.89237v-28.93873h10.33525v9.99077h6.89017v-9.99077h10.33527v28.93873h-10.33527v-9.99077h-6.89017v9.99077z" stroke-width="0.26459"/><path d="M182.59436,36.89237l8.61272,-28.93873h15.50288l8.61272,28.93873h-9.99075l-1.72255,-5.51217h-9.64623l-1.37803,5.51217zM201.54232,23.80104l-2.5838,-8.6127l-2.58382,8.6127z" stroke-width="0.26459"/><path d="M221.52382,36.89237c-1.14835,-0.22968 -2.06705,-0.45937 -2.75607,-0.68903l1.37803,-6.89017l4.1341,0.3445c3.21542,0.22967 5.74182,0.22967 7.5792,0c0.91868,-0.45933 1.37803,-1.14835 1.37803,-2.06703c-0.22967,-0.91868 -2.29672,-1.37803 -6.20117,-1.37803c-3.44507,-0.45935 -5.85662,-1.72255 -7.23467,-3.7896c-0.68902,-1.60772 -1.03353,-3.44508 -1.03353,-5.51213c0,-3.21542 1.14837,-5.62698 3.4451,-7.23467c1.60772,-1.14838 4.47862,-1.72257 8.6127,-1.72257c4.13412,0 8.26822,0.34452 12.4023,1.03353l-1.37803,6.54567c-4.82312,-0.22967 -8.15335,-0.3445 -9.99073,-0.3445c-1.60772,0.22967 -2.41157,0.80385 -2.41157,1.72253c-0.22967,1.60772 1.03353,2.41157 3.7896,2.41157c3.90442,0 6.77532,0.68902 8.6127,2.06703c1.37805,1.14835 2.06707,3.10057 2.06707,5.85663c0,2.3886 -0.57418,4.45565 -1.72257,6.20117c-1.14835,2.06705 -4.01925,3.33025 -8.6127,3.7896c-3.90442,0.22967 -7.92368,0.11483 -12.0578,-0.3445z" stroke-width="0.26459"/><path d="M265.00079,36.89237v-28.93873h24.11557v8.2682h-13.78033v2.06707h13.78033v8.2682h-13.78033v10.33527z" stroke-width="0.26459"/><path d="M292.56146,36.89237l8.6127,-28.93873h15.5029l8.6127,28.93873h-9.99073l-1.72257,-5.51217h-9.64623l-1.37803,5.51217zM311.50943,23.80104l-2.5838,-8.6127l-2.58383,8.6127z" stroke-width="0.26459"/><path d="M328.73486,36.89237v-28.93873h10.33527v20.6705h13.78033v8.26823z" stroke-width="0.26459"/><path d="M356.29552,36.89237v-28.93873h10.33527v20.6705h13.78033v8.26823z" stroke-width="0.26459"/><path d="M383.85622,36.89237v-28.93873h24.11557v8.2682h-13.78033v2.06707h13.78033v8.2682h-13.78033v2.06703h13.78033v8.26823z" stroke-width="0.26459"/><path d="M411.41686,36.89237v-28.93873h11.7133l7.5792,12.91907v-12.91907h10.33523v28.93873h-11.71327l-7.5792,-12.50567v12.50567z" stroke-width="0.26459"/><g stroke-width="0.26458"><path d="M69.18386,30.78415c1.80361,0 2.70542,-0.9018 2.70542,-2.70542v-1.35271c0,-1.35271 -0.90181,-2.02906 -2.70542,-2.02906h-4.05813v6.0872zM55.31857,7.78806h16.57071c6.76355,0 10.14534,2.47997 10.14534,7.43991v1.35271c0,2.25452 -1.01453,4.05814 -3.0436,5.41084c2.02907,1.12726 3.0436,2.70542 3.0436,4.73448v1.35272c0,5.41085 -3.38178,8.11626 -10.14534,8.11626h-16.57071zM71.88928,16.58068v-1.35271c0,-1.35271 -0.90181,-2.02907 -2.70542,-2.02907h-4.05813v6.0872h4.05813c1.80361,0 2.70542,-0.9018 2.70542,-2.70542z"/><path d="M85.41639,36.19499v-28.40693h11.83622v28.40693z"/><path d="M100.63439,22.3297c0,-4.50904 1.35271,-8.0599 4.05814,-10.6526c2.70542,-2.59269 6.42537,-3.88904 11.15986,-3.88904c4.05813,0 6.87629,0.11272 8.45445,0.33817l-3.0436,9.46898l-0.67636,-0.67636c-1.35271,-0.9018 -3.0436,-1.01453 -5.07267,-0.33817c-2.25452,1.35271 -3.9454,2.81815 -5.07267,4.39631c-1.12726,1.35271 -1.35271,3.0436 -0.67636,5.07267l0.67636,0.67635c1.12726,1.57816 3.0436,2.02907 5.74902,1.35272c0.87926,-0.4509 1.66835,-1.23998 2.36724,-2.36724v-4.39631h10.14534v14.20347c-1.35271,0.67636 -4.73449,1.12726 -10.14534,1.35271h-3.0436c-4.50903,0 -8.11626,-1.46543 -10.82169,-4.39631c-2.70543,-2.93088 -4.05814,-6.31265 -4.05814,-10.14533z"/></g></g></g></svg>