<svg version="1.1" xmlns="http://www.w3.org/2000/svg" xmlns:xlink="http://www.w3.org/1999/xlink" width="31.37867" height="22.1874" viewBox="0,0,31.37867,22.1874"><g transform="translate(-224.32166,-168.04524)"><g data-paper-data="{&quot;isPaintingLayer&quot;:true}" fill-rule="nonzero" stroke-width="0" stroke-linecap="butt" stroke-linejoin="miter" stroke-miterlimit="10" stroke-dasharray="" stroke-dashoffset="0" style="mix-blend-mode: normal"><g data-paper-data="{&quot;index&quot;:null}" stroke="none"><path d="M240.2141,189.77701c-1.1191,0.38491 -1.93847,0.41156 -2.49757,0.20616c-0.40862,-0.15011 -0.46317,-0.79087 -0.46317,-0.79087c0,0 2.66774,0.36647 3.04519,-0.3948c0.33679,-0.67926 -0.89343,-3.88967 -0.89343,-3.88967c0,0 0.84157,-0.23706 1.56975,2.76983c0.06254,0.25824 0.13044,0.78036 -0.01751,1.21726c-0.14632,0.43209 -0.54877,0.81521 -0.74325,0.8821z" fill="#686868"/><path d="M240.60564,187.48192c0.0237,0.41257 0.06147,1.56352 -0.65879,1.76545c-1.94824,0.54621 -2.46131,0.50945 -2.84907,-0.26009c-0.09428,-0.18709 -0.10414,-1.23923 -0.10414,-1.23923c0,0 -0.0173,-0.22418 0.18012,-0.55147c0.51758,-0.85802 1.64548,-2.41408 1.95902,-2.4179c0.45081,-0.00549 1.41533,1.70106 1.47289,2.70324z" fill="#ef4019"/><path d="M238.41769,185.53967c0.2836,-0.09876 0.44723,-0.49552 0.56549,-0.6859c0.05425,-0.08733 0.15342,-0.06923 0.15342,-0.06923c0,0 1.26969,2.06522 0.88304,2.6605c-0.26881,0.08303 -0.62632,-0.42758 -0.78599,-0.41523c-0.40457,0.00489 -1.35363,0.04196 -1.68237,0.14731c-0.44929,0.14398 -0.55068,0.61949 -0.55068,0.61949l-0.1447,-1.42152c0,0 -0.70288,-0.55709 -0.21887,-0.72098c0.08103,-0.02745 1.07284,0.13206 1.78066,-0.11444z" fill="#ffc500"/><path d="M238.98174,184.97194c0.00107,0.08754 0.06526,0.32378 0.06526,0.32378l0.2437,0.64936l-0.58214,-0.16124c0,0 -0.68001,0.32019 -0.95019,0.32348c-0.68318,0.00832 -1.24312,-0.48653 -1.25066,-1.10526c-0.00754,-0.61874 0.54018,-1.12707 1.22337,-1.13539c0.68318,-0.00832 1.24312,0.48653 1.25066,1.10526z" fill="#ffffff"/><path d="M237.72785,185.51796c-0.30937,0.00376 -0.56325,-0.24644 -0.56705,-0.55887c-0.0038,-0.31242 0.2439,-0.56874 0.55327,-0.57251c0.30937,-0.00376 0.56325,0.24644 0.56705,0.55887c0.0038,0.31242 -0.2439,0.56874 -0.55327,0.57251z" fill="#f5cda8"/></g><path d="M240.93468,180.6013c-0.06969,-0.61499 -0.04015,-1.09194 0.39082,-1.17212c0.39311,-0.07315 0.57349,0.43996 0.64318,1.05495c0.01091,0.09621 0.22042,2.32515 0.02797,2.67794c-0.55669,1.02051 -1.01191,0.39477 -1.01191,0.39477c0,0 -0.04096,-1.11794 -0.04763,-1.69142c-0.00667,-0.57347 0.02241,-1.04494 -0.00243,-1.26411z" data-paper-data="{&quot;index&quot;:null}" fill="#fde1c0" stroke="none"/><path d="M240.73329,184.47904c-0.33224,-0.22886 -0.21925,-0.78326 -0.21925,-0.78326c0,0 0.43167,-0.56681 1.04698,-0.8533c0.42462,-0.1977 0.95232,0.02741 0.95232,0.02741c0,0 0.22495,0.40661 0.26505,0.61444c0.04011,0.20783 0.11021,0.43149 -0.09103,0.60028c-0.59746,0.5011 -1.7449,0.53852 -1.95407,0.39443z" data-paper-data="{&quot;index&quot;:null}" fill="#fefefe" stroke="none"/><g data-paper-data="{&quot;index&quot;:null}" stroke="none"><path d="M242.33114,183.89675c0.06012,0.20325 -0.05725,0.64583 -0.88719,0.83414c-0.41831,0.09492 -0.92335,0.13204 -0.99383,-0.10625c-0.06012,-0.20325 0.16425,-0.26661 0.57558,-0.38827c0.41133,-0.12168 1.22977,-0.59546 1.30544,-0.33964z" fill="#000000"/><path d="M241.21416,186.20908c0,0 -0.5856,0.39761 -0.88038,-0.30164c-0.33531,-0.7954 -0.13667,-1.49386 -0.13667,-1.49386c0,0 0.23061,-0.16025 0.39284,-0.14297c0.16224,0.01728 0.3683,0.22402 0.3683,0.22402c0,0 0.14883,-0.16263 0.27673,-0.18364c0.1279,-0.02101 0.41978,0.06921 0.41978,0.06921c0,0 0.17173,-0.25306 0.33466,-0.34731c0.16293,-0.09425 0.49297,-0.13142 0.49297,-0.13142c0,0 0.10806,-0.31081 0.27471,-0.40231c0.16666,-0.0915 0.376,-0.15743 0.5227,-0.03551c0.1467,0.12192 0.72838,0.61033 0.94063,1.32424c0.26117,0.87844 -1.05487,0.82218 -1.05487,0.82218c0,0 -0.11705,0.26992 -0.35285,0.36313c-0.30518,0.12061 -0.59805,-0.02193 -0.59805,-0.02193c0,0 0.00769,0.24889 -0.38837,0.36212c-0.26872,0.07684 -0.61212,-0.1043 -0.61212,-0.1043z" fill="#fefefe"/><path d="M243.3463,183.46305c0.06012,0.20325 -0.05725,0.64583 -0.88719,0.83414c-0.41831,0.09492 -0.92335,0.13204 -0.99383,-0.10625c-0.06011,-0.20324 0.33173,-0.5555 0.74306,-0.67716c0.41133,-0.12167 1.0623,-0.30655 1.13797,-0.05073z" fill="#fefefe"/></g><path d="M243.99472,178.8812c0,0 0.65877,-0.23744 0.96809,-0.42443c0.30932,-0.187 0.75903,-0.5202 0.75903,-0.5202c0,0 -0.09967,0.8708 -0.17434,1.23837c-0.05667,0.27901 -0.11317,0.85482 -0.43611,0.91707c-0.26531,0.05114 -1.11667,-1.2108 -1.11667,-1.2108z" data-paper-data="{&quot;index&quot;:null}" fill="#ebc19b" stroke="none"/><path d="M241.22785,179.45256c-2.91294,-0.03608 -5.17296,-2.00483 -5.20903,-4.88077c-0.03381,-2.69537 1.97142,-4.95292 5.20903,-4.88077c2.87616,0.0641 5.20903,1.28336 5.20903,4.88077c0,3.38098 -2.33238,4.9164 -5.20903,4.88077z" data-paper-data="{&quot;index&quot;:null}" fill="#fedeb5" stroke="none"/><path d="M244.44348,177.14937c0,0 0.1121,-0.70652 0.24763,-2.33832c0.1834,-2.20826 0.10601,-2.97432 0.73125,-2.76909c0.50483,0.16571 1.30211,1.33274 0.90021,3.78671c-0.09801,0.78378 -0.49121,1.58465 -0.49121,1.58465c0,0 -0.24529,0.23007 -0.47748,0.2099c-0.23218,-0.02017 -0.32127,-0.18285 -0.5073,-0.29544c-0.21409,-0.12958 -0.40311,-0.17841 -0.40311,-0.17841z" data-paper-data="{&quot;index&quot;:null}" fill="#ea750b" stroke="none"/><path d="M242.68604,177.68938c0,0 -1.11128,0.66223 -2.31612,0.1528c-0.6905,-0.29196 -1.58939,-1.37735 -1.87639,-2.15545c-0.78961,-2.14073 -0.13687,-3.37972 0.93462,-3.76377c1.00148,-0.35895 2.30067,0.5015 2.92272,2.10847c0.62204,1.60696 0.33517,3.65795 0.33517,3.65795z" data-paper-data="{&quot;index&quot;:null}" fill="#ea750b" stroke="none"/><path d="M242.62858,175.17053c0.32849,1.46827 0.0591,2.48961 0.0591,2.48961c0,0 -0.10117,0.25071 -1.06323,0.33952c-0.74756,0.06901 -1.12458,-0.24478 -1.12458,-0.24478c0,0 -0.6093,-0.7084 -0.80141,-1.76892c-0.27809,-1.53514 0.0541,-2.63006 0.83699,-2.8652c0.78289,-0.23513 1.79264,0.70676 2.09312,2.04978z" data-paper-data="{&quot;index&quot;:null}" fill="#ffffff" stroke="none"/><g data-paper-data="{&quot;index&quot;:null}" stroke="none"><path d="M242.2681,177.84824c-0.32764,0.01641 -0.64067,-0.70395 -0.69918,-1.60898c-0.05852,-0.90503 0.15965,-1.652 0.48729,-1.66842c0.32764,-0.01641 0.64067,0.70395 0.69918,1.60898c0.05852,0.90503 -0.15965,1.652 -0.48729,1.66842z" fill="#a06803"/><path d="M242.32182,177.25756c-0.17697,0.00966 -0.34604,-0.4144 -0.37764,-0.94716c-0.0316,-0.53276 0.08624,-0.97248 0.2632,-0.98214c0.17697,-0.00966 0.34604,0.4144 0.37764,0.94716c0.0316,0.53276 -0.08624,0.97248 -0.2632,0.98214z" fill="#000000"/><path d="M242.55663,175.66277c0.02072,0.30993 -0.05653,0.56574 -0.17255,0.57136c-0.11602,0.00562 -0.22686,-0.24107 -0.24758,-0.55101c-0.02072,-0.30993 0.05653,-0.56574 0.17255,-0.57136c0.11602,-0.00562 0.22686,0.24107 0.24758,0.55101z" fill="#ffffff"/></g><path d="M245.24365,173.38952c0.34422,0.20526 0.49208,1.14898 0.36936,2.47513c-0.08478,0.91614 -0.44466,1.72144 -0.44466,1.72144c0,0 -0.23114,-0.17078 -0.39159,-0.25388c-0.16045,-0.08309 -0.30921,-0.16265 -0.30921,-0.16265c0,0 0.03,-0.63148 0.13392,-1.95459c0.09143,-1.16415 0.25564,-2.05594 0.64218,-1.82545z" data-paper-data="{&quot;index&quot;:null}" fill="#ffffff" stroke="none"/><g data-paper-data="{&quot;index&quot;:null}" stroke="none"><path d="M244.7172,177.23691c-0.22527,-0.00643 -0.3924,-0.61697 -0.3733,-1.36367c0.0191,-0.74671 0.2172,-1.34682 0.44246,-1.34039c0.22527,0.00643 0.3924,0.61697 0.3733,1.36367c-0.0191,0.74671 -0.2172,1.34682 -0.44246,1.34039z" fill="#a06803"/><path d="M244.84031,175.164c0.12172,0.00282 0.20971,0.36129 0.19652,0.80068c-0.01318,0.43939 -0.12255,0.7933 -0.24427,0.79048c-0.12172,-0.00283 -0.20971,-0.3613 -0.19652,-0.80069c0.01318,-0.43939 0.12255,-0.79329 0.24427,-0.79048z" fill="#000000"/><path d="M245.05744,175.45987c-0.00607,0.25576 -0.07564,0.46111 -0.1554,0.45868c-0.07976,-0.00243 -0.13948,-0.21174 -0.13341,-0.46749c0.00607,-0.25576 0.07564,-0.46111 0.1554,-0.45868c0.07976,0.00243 0.13948,0.21174 0.13341,0.46749z" fill="#ffffff"/></g><path d="M242.6558,175.16816c0,0 -0.90012,-1.92403 -1.95022,-1.78858c-0.20333,0.02623 -0.55082,0.06675 -0.77489,0.51662c-0.38582,0.77463 -0.28502,1.47054 -0.28502,1.47054c0,0 -0.63091,0.11296 -1.26469,0.0164c-1.19897,-0.18267 -1.72006,-0.85102 -1.72006,-0.85102c0,0 0.99637,0.42499 1.4642,0.5123c0.47558,0.08875 1.36641,0.01595 1.36641,0.01595c0,0 -0.17298,-2.08798 1.23687,-2.13625c1.26172,-0.04319 1.92739,2.24403 1.92739,2.24403z" data-paper-data="{&quot;index&quot;:null}" fill="#000000" stroke="none"/><path d="M245.11315,173.59325c-0.26376,-0.01083 -0.40779,0.61421 -0.40779,0.61421c0,0 -0.00439,-1.07318 0.43682,-1.02998c0.49301,0.04827 0.63971,1.52679 0.63971,1.52679c0,0 0.01753,0.17665 0.89498,-0.17875c0.95233,-0.38573 1.48878,-1.20418 1.48878,-1.20418c0,0 -0.37356,0.7945 -1.039,1.20713c-0.64947,0.40271 -1.48007,0.44145 -1.48007,0.44145c0,0 -0.08074,-1.3581 -0.53344,-1.37668z" data-paper-data="{&quot;index&quot;:null}" fill="#000000" stroke="none"/><path d="M244.46777,177.16544c0,0 -0.42946,-0.09931 -0.72734,-0.01911c-0.29502,0.07943 -1.04501,0.45607 -1.04501,0.45607c0,0 0.16619,-0.64413 0.02041,-1.92339c-0.14131,-1.2401 -0.4093,-1.74671 -0.4093,-1.74671l2.46872,-0.50325z" data-paper-data="{&quot;index&quot;:null}" fill="#fedeb5" stroke="none"/><path d="M230.16476,183.18481c0.61364,-1.14503 1.26612,-0.82961 1.26612,-0.82961c0,0 -3.0325,3.84902 -3.02202,5.20418c0.01037,1.34108 2.5709,2.31755 2.5709,2.31755c0,0 -0.18644,0.43323 -1.02663,0.34347c-0.72392,-0.07734 -1.94519,-1.07711 -2.26064,-1.89466c-0.02937,-0.07613 0.00596,-0.3918 0.00489,-0.63343c-0.00391,-0.88543 1.65783,-3.30553 1.83483,-3.45591c0.19103,-0.16229 0.39005,-0.17402 0.5206,-0.43178c0.12453,-0.24589 0.08097,-0.56203 0.11192,-0.6198z" data-paper-data="{&quot;index&quot;:null}" fill="#686868" stroke="none"/><path d="M232.27727,188.67797c-0.39218,0.70545 -0.83378,1.21029 -1.36729,1.20079c-0.53351,-0.00949 -2.661,-1.19923 -2.52877,-2.37449c0.18646,-1.65728 3.02362,-5.17244 3.02362,-5.17244c0,0 0.52895,-0.10994 1.05846,0.0562c0.65574,0.20575 0.84653,0.63133 0.84653,0.63133c0,0 -1.35736,0.42028 -1.65439,1.74758c-0.19983,0.89299 0.60079,2.66859 0.65707,3.22488c0.05033,0.49745 0.02587,0.40901 -0.03521,0.68615z" data-paper-data="{&quot;index&quot;:null}" fill="#ef4019" stroke="none"/><path d="M232.30683,188.02627c0,0 -0.69185,-0.80434 -1.34801,-1.23241c-0.13086,-0.08537 -0.52008,-0.20714 -0.8542,-0.14094c-0.34598,0.06855 -0.86638,0.2215 -0.80293,-0.14066c0.1491,-0.85099 1.87657,-3.45634 2.23578,-3.42092c0.19134,0.01887 0.86459,0.32844 0.86459,0.32844c0,0 -0.30172,1.01016 -0.2613,1.53951c0.04179,0.5472 0.50807,1.69193 0.50807,1.69193c0,0 -0.21219,0.24245 -0.26707,0.46309c-0.05884,0.23659 -0.07492,0.91194 -0.07492,0.91194z" data-paper-data="{&quot;index&quot;:null}" fill="#ffc500" stroke="none"/><path d="M231.71861,184.50743c0.44503,-1.24865 1.36595,-1.50356 1.56622,-1.48023c1.76959,0.20614 0.77469,2.2545 0.75083,2.41048c-0.12577,0.82232 -0.62352,0.71148 -1.46935,0.49771c-0.64788,-0.16376 -1.10788,-0.69795 -0.84769,-1.42797z" data-paper-data="{&quot;index&quot;:null}" fill="#ffffff" stroke="none"/><path d="M233.91393,184.0453c0,0 0.40089,-0.38129 0.61902,-0.56614c0.23234,-0.19688 0.6472,-0.60573 0.6472,-0.60573l0.85434,0.84104c0,0 -0.93979,1.41468 -1.97434,1.71241c-0.18819,0.05417 -1.54908,-0.03756 -1.33708,-1.0511c0.11354,-0.54285 0.52376,-0.64815 0.81607,-0.56896c0.22138,0.05997 0.37479,0.23849 0.37479,0.23849z" data-paper-data="{&quot;index&quot;:null}" fill="#fedeb5" stroke="none"/><path d="M232.85915,185.85168c0.42477,0.27165 1.05878,-0.04305 1.05878,-0.04305c0,0 0.28971,0.16271 0.12692,0.36885c-0.32502,0.4116 -1.37196,0.4583 -1.37196,0.4583c0,0 -0.73217,-0.21269 -1.16549,-0.96531c-0.22813,-0.39624 -0.19935,-1.24411 -0.19935,-1.24411c0,0 0.07977,0.233 0.27467,0.34283c0.1025,0.05776 0.32971,0.02568 0.39266,0.02854c0.15057,0.00684 0.53619,0.83164 0.88378,1.05394z" data-paper-data="{&quot;index&quot;:null}" fill="#ffc500" stroke="none"/><path d="M238.04136,179.11348c1.58497,-0.0308 2.86906,0.31744 2.86906,0.31744c0,0 0.73139,3.21566 0.00714,4.25488c-0.74509,1.06911 -1.93855,1.29019 -2.70472,1.30611c-2.06753,0.08927 -3.14443,-0.77791 -3.96505,-2.21376c-0.77589,-1.35757 -0.4712,-3.06191 -0.4712,-3.06191c0,0 2.49839,-0.56846 4.26475,-0.60278z" data-paper-data="{&quot;index&quot;:null}" fill="#ef4019" stroke="none"/><path d="M239.85831,180.71036c-0.58792,-0.07205 -0.44326,-1.44631 -0.44326,-1.44631l0.99234,0.19109c0,0 -0.17056,1.30162 -0.54908,1.25523z" data-paper-data="{&quot;index&quot;:null}" fill="#08abe8" stroke="none"/><path d="M240.96197,182.29176c-0.0123,0.23058 -0.26738,0.75343 -0.41041,0.73418c-0.06862,-0.00923 -0.11441,-0.52169 -0.23928,-1.08192c-0.13541,-0.60752 -0.3476,-1.26622 -0.3476,-1.26622l0.21731,-0.29675c0,0 0.82192,1.12405 0.77998,1.9107z" data-paper-data="{&quot;index&quot;:null}" fill="#08abe8" stroke="none"/><path d="M239.44043,181.89812c-0.10201,0.52109 -0.15535,1.03158 -0.21849,1.00961c-0.3357,-0.11679 -0.46078,-0.5496 -0.4549,-0.71639c0.03411,-0.96774 0.73641,-1.85046 0.73641,-1.85046l0.19168,0.29745c0,0 -0.13478,0.64715 -0.2547,1.25979z" data-paper-data="{&quot;index&quot;:null}" fill="#08abe8" stroke="none"/><path d="M238.93366,180.72716l-0.0234,-1.82533c0,0 0.22978,0.07703 0.52828,0.17179c0.2985,0.09477 0.45459,0.22604 0.45459,0.22604z" data-paper-data="{&quot;index&quot;:null}" fill="#ffffff" stroke="none"/><path d="M240.58091,180.8223l-0.60344,-1.46017c0,0 0.11626,-0.02067 0.39132,-0.05605c0.27506,-0.03539 0.47493,0.00598 0.47493,0.00598z" data-paper-data="{&quot;index&quot;:null}" fill="#ffffff" stroke="none"/><path d="M245.85721,177.3701c0,0 0.00348,0.40219 -0.1445,0.57137c-0.53107,0.60714 -1.71274,1.4312 -4.19997,1.58478c-2.61271,0.16133 -3.64923,-1.57853 -2.71974,-2.12909c0.81569,-0.48315 1.54255,0.62065 2.74346,0.58837c0.99391,-0.02672 1.73596,-0.7898 2.52161,-0.8728c0.57495,-0.06074 1.01498,0.50294 1.2083,0.49598c0.20965,-0.00754 0.59084,-0.23861 0.59084,-0.23861z" data-paper-data="{&quot;index&quot;:null}" fill="#ffffff" stroke="none"/><g data-paper-data="{&quot;index&quot;:null}" stroke="none"><path d="M244.57685,177.78027c-0.26398,0 -0.3626,-0.13969 -0.40365,-0.26664c-0.04758,-0.14713 0.18072,-0.28068 0.40365,-0.28068c0.22293,0 0.44011,0.13024 0.40365,0.28068c-0.02737,0.11291 -0.15335,0.26664 -0.40365,0.26664z" fill="#6b4209"/><path d="M244.64526,177.46557c-0.10202,0 -0.18472,-0.03676 -0.18472,-0.0821c0,-0.04534 0.0827,-0.0821 0.18472,-0.0821c0.10202,0 0.18472,0.03676 0.18472,0.0821c0,0.04534 -0.0827,0.0821 -0.18472,0.0821z" fill="#ffffff"/></g><path d="M242.2986,178.86123c0,0 -0.12746,0.19448 -0.49259,0.17788c-0.36512,-0.01659 -0.6431,-0.19156 -0.6431,-0.19156c0,0 0.35134,0.06842 0.65679,0.06842c0.29633,0 0.47891,-0.05473 0.47891,-0.05473z" data-paper-data="{&quot;index&quot;:null}" fill="#000000" stroke="none"/><path d="M243.79192,171.22959c0.08861,0.42976 0.0537,0.96568 -0.12953,0.98024c-0.09807,0.00779 -0.48817,-0.31411 -0.96791,-0.75088c-0.29417,-0.26782 -0.65787,-0.44975 -1.05604,-0.71191c-0.73587,-0.48451 -1.88016,-0.91637 -1.88016,-0.91637c0,0 0.63795,-0.19698 1.91534,-0.13463c0.87603,0.04276 1.72764,0.3181 1.72764,0.3181c0,0 0.19457,0.26441 0.39066,1.21544z" data-paper-data="{&quot;index&quot;:null}" fill="#ea750b" stroke="none"/><path d="M255.70033,171.08779c0,0.38602 -1.49511,0.00486 -2.82461,0.00486c-1.06577,0 -1.72323,-0.15356 -2.2011,-0.23485c-0.47787,-0.08129 -0.45573,-0.12849 -1.08146,-0.32357c-1.34944,-0.4207 -3.0658,-1.92849 -3.0658,-1.92849c0,0 0.99647,-0.57156 2.12612,-0.56033c2.10698,0.02095 4.53522,1.42358 5.00036,1.56529c1.07065,0.32619 2.04647,1.09108 2.04647,1.4771z" data-paper-data="{&quot;index&quot;:null}" fill="#ea750b" stroke="none"/><path d="M248.68806,170.09908c0,0 -0.94882,0.25647 -1.40148,0.40913c-0.53701,0.18109 -1.84351,0.7812 -1.84351,0.7812l-1.79398,-1.08133c0,0 0.62588,-0.35382 1.35854,-0.7958c1.00111,-0.60395 1.54906,-0.81159 1.54906,-0.81159c0,0 0.23819,0.32779 0.87648,0.62575c0.5378,0.25105 1.25489,0.87264 1.25489,0.87264z" data-paper-data="{&quot;index&quot;:null}" fill="#fedeb5" stroke="none"/><path d="M248.39301,170.12136c0,0 -0.56316,0.105 -1.25808,0.32223c-0.74301,0.23226 -1.72308,0.77889 -1.72308,0.77889l-0.3959,-0.20658c0,0 0.87875,-0.46618 1.45641,-0.78464c0.62953,-0.34706 1.1568,-0.54024 1.31608,-0.46036c0.20042,0.10053 0.60456,0.35046 0.60456,0.35046z" data-paper-data="{&quot;index&quot;:null}" fill="#ebc0cd" stroke="none"/><path d="M236.99576,171.63545c0,0 -0.51218,-0.37165 -2.49261,-0.78578c-0.79916,-0.16712 -2.32579,-0.50861 -2.32579,-0.50861c0,0 -0.19504,-0.46314 0.50134,-0.84125c0.10999,-0.05971 0.38932,-0.25724 0.78352,-0.4412c0.4688,-0.21878 1.05308,-0.42333 1.05308,-0.42333l-0.07044,-0.29573c0,0 1.43236,0.55791 2.17299,0.8688c0.94239,0.39559 3.04222,1.34843 3.04222,1.34843l-2.66429,1.07866z" data-paper-data="{&quot;index&quot;:null}" fill="#fedeb5" stroke="none"/><path d="M231.52301,170.43358c-1.25578,0.36115 -1.6033,0.81557 -3.24685,0.63837c-1.64354,-0.1772 -4.05495,-0.02258 -3.95126,-0.89806c0.05054,-0.42675 2.57249,-0.80593 2.98179,-0.92299c1.1076,-0.2217 4.36192,-1.22292 5.9924,-1.15423c0.37309,0.01572 0.88971,0.11325 1.17365,0.24986c0.19809,0.0953 0.43924,0.16533 0.43924,0.16533c0,0 -1.07405,0.51924 -1.99002,1.22403c-0.36271,0.2791 -0.14316,0.33655 -1.39894,0.69769z" data-paper-data="{&quot;index&quot;:null}" fill="#ea750b" stroke="none"/><path d="M237.02508,171.50269c0,0 -0.82129,-0.36377 -1.95822,-0.65499c-1.23373,-0.31602 -2.59313,-0.57272 -2.59313,-0.57272c0,0 0.73149,-0.2123 1.09585,-0.29853c0.36437,-0.08623 3.92595,1.17857 3.92595,1.17857l-0.47045,0.34766z" data-paper-data="{&quot;index&quot;:null}" fill="#ebc0cd" stroke="none"/><path d="M236.13512,177.99407c0,0 0.73462,0.0689 1.00755,0.4747c0.24402,0.3628 0.3372,0.6858 0.18441,1.31928c-0.16116,0.66819 -0.81936,0.93028 -1.1772,0.93911c-1.07221,0.02644 -1.68736,-0.99585 -1.28302,-2.1031c0.33038,-0.90469 1.20366,-1.1772 1.20366,-1.1772z" data-paper-data="{&quot;index&quot;:null}" fill="#ebc19b" stroke="none"/><path d="M238.99368,178.92829c0,0 -1.52047,1.54288 -1.87823,1.40206c-0.43547,-0.1714 -0.36412,-0.99162 -0.37054,-1.3967c-0.00845,-0.53368 0.07955,-1.77778 0.07955,-1.77778c0,0 0.54204,0.58354 0.92589,0.92589c0.38385,0.34234 1.24334,0.84652 1.24334,0.84652z" data-paper-data="{&quot;index&quot;:null}" fill="#fedeb5" stroke="none"/><path d="M238.87446,179.9534c-0.04658,0.23491 -0.05751,0.74762 -0.1163,1.36749c-0.05879,0.61987 -0.20363,1.82573 -0.20363,1.82573c0,0 -0.54879,0.63607 -1.05933,-0.51811c-0.1765,-0.399 0.25063,-2.79175 0.27107,-2.89486c0.1307,-0.65911 0.372,-1.19803 0.79075,-1.08355c0.45907,0.1255 0.44814,0.64419 0.31744,1.30331z" data-paper-data="{&quot;index&quot;:null}" fill="#fde1c0" stroke="none"/><path d="M239.31391,187.02403c0,0 -0.73375,1.59517 -1.46708,1.17589c-0.24356,-0.13926 -0.38593,-0.46912 -0.38593,-0.46912c0,0 -0.35266,0.0817 -0.56678,0.01214c-0.21411,-0.06957 -0.40404,-0.32755 -0.40404,-0.32755c0,0 -0.39161,0.02584 -0.57574,-0.05516c-0.18413,-0.08101 -0.31632,-0.33728 -0.31632,-0.33728c0,0 -0.99644,-0.11547 -0.29938,-2.05443c0.1367,-0.38024 0.60922,0.07645 0.60922,0.07645c0,0 0.87163,-1.67796 2.15588,-1.05411c1.98641,0.96492 1.84958,2.49242 1.84958,2.49242l-0.5994,0.54076z" data-paper-data="{&quot;index&quot;:null}" fill="#ffffff" stroke="#000000"/><path d="M236.61671,184.01555c-0.22587,-0.17407 -0.15986,-0.41983 -0.12567,-0.64707c0.03418,-0.22723 0.25997,-0.67839 0.25997,-0.67839c0,0 0.56233,-0.26785 1.0318,-0.07243c0.68029,0.28319 1.17395,0.87869 1.17395,0.87869c0,0 0.14741,0.59631 -0.20272,0.85946c-0.22044,0.16567 -1.4668,0.17654 -2.13735,-0.34025z" data-paper-data="{&quot;index&quot;:null}" fill="#fefefe" stroke="none"/><path d="M239.39076,186.50406c-0.0139,0.2325 -0.07852,0.54952 -0.07852,0.54952c0,0 -0.01911,-0.44285 -0.03948,-0.66285c-0.02037,-0.22 -0.03386,-0.55292 -0.03386,-0.55292c0,0 0.16984,0.36546 0.15186,0.66625z" data-paper-data="{&quot;index&quot;:null}" fill="#000000" stroke="none"/><path d="M235.91,186.23877c0,0 -0.13162,-0.37595 -0.08381,-0.67346c0.03697,-0.22996 0.09261,-0.5228 0.09261,-0.5228c0,0 0.00492,0.36643 0.00329,0.58737c-0.00161,0.22094 -0.01207,0.6089 -0.01207,0.6089z" data-paper-data="{&quot;index&quot;:null}" fill="#000000" stroke="none"/><path d="M237.24546,183.6241c-0.25375,0.07868 -0.41597,-0.04892 -0.44438,-0.19097c-0.02842,-0.14206 0.10762,-0.43917 0.36137,-0.51785c0.25376,-0.07867 0.35763,0.06453 0.39024,0.20568c0.05784,0.25037 -0.05346,0.42446 -0.30721,0.50314z" data-paper-data="{&quot;index&quot;:null}" fill="#f7e300" stroke="none"/></g></g></svg>