<svg version="1.1" xmlns="http://www.w3.org/2000/svg" xmlns:xlink="http://www.w3.org/1999/xlink" width="8.4" height="11.06173" viewBox="0,0,8.4,11.06173"><g transform="translate(-235.85,-174.51914)"><g data-paper-data="{&quot;isPaintingLayer&quot;:true}" fill-rule="nonzero" stroke="none" stroke-linecap="butt" stroke-linejoin="miter" stroke-miterlimit="10" stroke-dasharray="" stroke-dashoffset="0" style="mix-blend-mode: normal"><path d="M235.85,185.58088v-11.06173h8.4v11.06173z" fill="#000000" stroke-width="0"/><path d="M236.02093,180.9302c0,-0.96463 0.27561,-1.79145 0.82682,-2.48046c1.17133,-1.37803 2.17041,-2.34266 2.99723,-2.89387h4.1341c-0.68902,0.48231 -1.55029,1.17132 -2.58382,2.06705c0.37896,0.15158 0.81649,0.46508 1.31258,0.9405c0.50299,0.47543 0.75448,1.26435 0.75448,2.36678c0,0.89572 -0.32728,1.70531 -0.98185,2.42878c-0.65457,0.72347 -1.56752,1.0852 -2.73885,1.0852c-1.17133,0 -2.08427,-0.36173 -2.73884,-1.0852c-0.65456,-0.72347 -0.98185,-1.53306 -0.98185,-2.42878zM239.43156,179.89666c-0.41341,0.34451 -0.72347,0.72347 -0.93018,1.13688c-0.1378,0.48231 -0.03445,0.86127 0.31006,1.13688c0.55121,0.20671 1.03353,0.1378 1.44694,-0.20671c0.34451,-0.34451 0.62011,-0.68901 0.82682,-1.03352c0.2067,-0.48231 0.1378,-0.89572 -0.20671,-1.24023c-0.48231,-0.20671 -0.96462,-0.13781 -1.44693,0.2067z" fill="#ffffff" stroke-width="0.26458"/></g></g></svg>