<svg version="1.1" xmlns="http://www.w3.org/2000/svg" xmlns:xlink="http://www.w3.org/1999/xlink" width="16.50067" height="18.59723" viewBox="0,0,16.50067,18.59723"><g transform="translate(-234.49349,-170.94317)"><g data-paper-data="{&quot;isPaintingLayer&quot;:true}" fill="#000000" fill-rule="nonzero" stroke="none" stroke-width="0" stroke-linecap="butt" stroke-linejoin="miter" stroke-miterlimit="10" stroke-dasharray="" stroke-dashoffset="0" style="mix-blend-mode: normal"><path d="M234.49349,179.05683v-8.11366h8.8312v8.11366z"/><path d="M238.24748,182.40404c0,-2.23424 1.81121,-4.04546 4.04546,-4.04546c2.23424,0 4.04545,1.81121 4.04545,4.04546c0,2.23424 -1.81121,4.04546 -4.04545,4.04546c-2.23424,0 -4.04546,-1.81121 -4.04546,-4.04546z"/><path d="M239.70202,189.54041v-4.81818h2.90909v4.81819z"/><path d="M236.33839,185.08586v-1.45454h5.18182v1.45454z"/><path d="M243.4293,185.99495v-3h5.27273v3z"/><path d="M250.3501,185.36161c0.80562,1.52337 0.8633,3.07317 0.12882,3.4616c-0.73448,0.38843 -1.98298,-0.53162 -2.7886,-2.05498c-0.80562,-1.52337 -0.8633,-3.07317 -0.12882,-3.4616c0.73448,-0.38843 1.98298,0.53162 2.78861,2.05498z"/></g></g></svg>