<svg version="1.1" xmlns="http://www.w3.org/2000/svg" xmlns:xlink="http://www.w3.org/1999/xlink" width="38" height="30.70256" viewBox="0,0,38,30.70256"><g transform="translate(-217.39984,-163.30538)"><g data-paper-data="{&quot;isPaintingLayer&quot;:true}" fill-rule="nonzero" stroke-linejoin="miter" stroke-miterlimit="10" stroke-dasharray="" stroke-dashoffset="0" style="mix-blend-mode: normal"><g data-paper-data="{&quot;index&quot;:null}"><g data-paper-data="{&quot;index&quot;:null}"><path d="M230.29134,188.9962c-0.35438,1.27794 -0.34301,4.54667 -0.34301,4.54667c0,0 -0.62391,0.20671 -0.59016,-1.03868c0.01955,-0.72129 0.27647,-2.48342 0.62787,-3.63715c0.42124,-1.38303 1.77475,-3.88319 1.77475,-3.88319l0.82466,-0.01376c0,0 -2.0415,3.11502 -2.29411,4.02611z" fill="#989898" stroke="#989898" stroke-width="0" stroke-linecap="round"/><path d="M233.84818,186.80789c0.14762,0.84919 -0.25373,3.06645 -0.25373,3.06645l-2.97173,-1.84899c0,0 0.68411,-1.7509 1.34038,-2.6463c0.3119,-0.42527 0.71212,-0.61916 1.30367,0.00197c0.41612,0.43694 0.48431,0.87302 0.58141,1.42688z" fill="#f82020" stroke="none" stroke-width="1.13968" stroke-linecap="round"/><path d="M230.67603,187.95094c0,0 2.77314,0.48411 2.93,1.78643c0.08035,0.73159 -0.91116,2.6905 -1.39049,3.20748c-0.4824,0.5199 -1.7111,0.75394 -2.29527,0.65722c-0.34315,-0.05676 -0.25802,-0.80444 -0.22983,-1.24295c0.07173,-1.0936 0.2929,-2.38468 0.55577,-3.34357c0.26287,-0.9589 0.42984,-1.06462 0.42984,-1.06462z" fill="#f8f8f8" stroke="none" stroke-width="1.15102" stroke-linecap="round"/><path d="M235.66772,187.04438c-0.02075,0.36726 0.01303,2.12804 -0.26141,2.60667c-0.21155,0.36895 -0.80402,-0.15608 -0.80402,-0.15608c0,0 -0.59346,0.20503 -0.71663,0.19807c-0.46434,-0.02624 -0.13755,-1.32931 -0.08752,-2.21445c0.01001,-0.17701 -0.20965,-1.04805 -0.11821,-1.55457c0.05441,-0.30144 0.05857,-0.58383 0.45751,-0.79936c0.41088,-0.22198 0.55204,0.40734 0.55204,0.40734c0,0 0.42708,-0.6479 0.92319,-0.11856c0.43675,0.466 0.07924,1.20303 0.05506,1.63094z" fill="#ffffff" stroke="none" stroke-width="0" stroke-linecap="butt"/></g><path d="M236.83993,186.32508c0.36,-0.4811 -0.0547,-1.3017 0.3044,-1.7794c0.2006,-0.268 0.8477,-0.3606 1.004,-0.0852c0.3957,0.7044 0.3791,1.6079 0.3326,2.4196c-0.0254,0.4538 -0.1931,0.9526 -0.5726,1.1504c-0.6184,0.3308 -1.4755,0.5232 -2.1297,0.1995c-0.4199,-0.2025 -0.5774,-0.9612 -0.3455,-1.4122c0.2293,-0.439 1.1007,-0.0853 1.4068,-0.4927z" data-paper-data="{&quot;index&quot;:null}" fill="#e88820" stroke="none" stroke-width="0.49091" stroke-linecap="round"/></g><path d="M235.17023,183.73456c0,-1.55828 0.65441,-2.20504 1.4201,-2.20504c0.95748,0 1.81884,0.42261 3.28569,1.19229c0.46875,-0.04076 2.88255,-1.83863 4.02687,-0.48073c1.89662,2.25062 -0.85282,2.19777 -1.04239,2.51435c-0.63097,1.0537 -2.20998,1.80065 -4.05806,1.80065c-2.40334,0 -3.6322,-1.26324 -3.6322,-2.82152z" data-paper-data="{&quot;index&quot;:null}" fill="#f8b820" stroke="none" stroke-width="0" stroke-linecap="butt"/><path d="M234.8764,175.27691c0,-1.6753 -2.38583,-4.25159 -2.46334,-5.12852c-0.09672,-1.09431 3.04959,-0.02036 3.04959,-0.02036c0,0 3.01853,-0.18847 2.82257,0.61154c-0.17767,0.72531 -2.28757,2.97695 -2.28757,4.94621c0,5.85407 0.31437,6.80662 0.31437,6.80662c0,0 -0.08319,0.48722 -0.30152,-0.07428c-0.35056,-0.90158 -1.13412,-3.53378 -1.13412,-7.14121z" data-paper-data="{&quot;index&quot;:null}" fill="#e2a026" stroke="none" stroke-width="0" stroke-linecap="butt"/><path d="M238.00859,175.56467c0,3.38928 -0.86696,5.9507 -1.26675,6.91011c-0.29074,0.69771 -0.26404,0.21431 -0.26404,0.21431c0,0 0.21037,-0.86147 0.21037,-6.71555c0,-1.96926 -1.89928,-4.85842 -2.10851,-5.58373c-0.23076,-0.8 3.02318,0.02599 3.02318,0.02599c0,0 2.24694,-0.80071 2.13304,0.29359c-0.09128,0.87694 -1.72729,3.18001 -1.72729,4.8553z" data-paper-data="{&quot;index&quot;:null}" fill="#e2a026" stroke="none" stroke-width="0" stroke-linecap="butt"/><path d="M237.07424,186.14091c0,0 -0.5699,-1.99937 1.85344,-1.85263c0.8484,0.05137 1.52668,0.41766 2.00297,0.4132c0.14319,-0.00134 -0.54788,-0.96941 -0.14924,-0.822c0.18563,0.06865 0.65407,0.67621 0.83768,0.68113c0.17246,0.00461 -0.51029,-0.7763 -0.51029,-0.7763l1.92147,0.75821c0,0 1.52715,0.34126 1.87999,0.60951c0.35284,0.26825 -0.96154,-0.09187 -1.13269,-0.04139c-0.14593,0.04305 0.89906,0.27546 0.92115,0.44589c0.02534,0.19558 -1.03737,-0.12354 -1.33034,-0.04279c-1.05918,0.29194 -1.97107,0.80583 -3.23716,0.92306c-1.35761,0.19004 -3.05697,-0.14205 -3.05697,-0.14205z" data-paper-data="{&quot;index&quot;:null}" fill="#f8f8f8" stroke="none" stroke-width="0" stroke-linecap="butt"/><g data-paper-data="{&quot;index&quot;:null}"><path d="M233.82227,187.26889c0.27124,-0.41447 1.10381,0.02282 1.44827,-0.35263c0.4054,-0.44361 0.07304,-1.30088 0.47713,-1.74106c0.22588,-0.24717 0.87892,-0.27592 1.00751,0.01342c0.32484,0.73979 0.21986,1.6373 0.09418,2.44055c-0.06969,0.44914 -0.28548,0.92908 -0.68246,1.08886c-0.64771,0.26863 -1.51956,0.37626 -2.139,-0.01001c-0.39801,-0.24267 -0.48049,-1.01305 -0.20562,-1.43913z" data-paper-data="{&quot;index&quot;:null}" fill="#f8b820" stroke="none" stroke-width="0.49091" stroke-linecap="round"/><g data-paper-data="{&quot;index&quot;:null}"><path d="M231.31416,185.3681c0,0 -2.05896,3.1035 -2.31669,4.01316c-0.36155,1.27592 -0.36854,4.54466 -0.36854,4.54466c0,0 -0.62507,0.20321 -0.58432,-1.04197c0.02361,-0.72118 0.29041,-2.48184 0.64829,-3.63358c0.429,-1.38064 1.79653,-3.87316 1.79653,-3.87316l0.82472,-0.00913z" fill="#989898" stroke="#989898" stroke-width="0" stroke-linecap="round"/><path d="M232.56654,187.21294c0.14284,0.85 -0.27095,3.06497 -0.27095,3.06497l-2.96129,-1.86564c0,0 0.69393,-1.74704 1.35523,-2.63873c0.31428,-0.42352 0.71558,-0.61516 1.30364,0.00929c0.41365,0.43927 0.47939,0.87573 0.57338,1.43013z" fill="#f82020" stroke="none" stroke-width="1.13968" stroke-linecap="round"/><path d="M229.38799,188.33809c0,0 2.77038,0.49966 2.91992,1.80285c0.07623,0.73204 -0.92624,2.68535 -1.40848,3.19962c-0.48532,0.5172 -1.71532,0.74433 -2.29893,0.64433c-0.34282,-0.05868 -0.25349,-0.80586 -0.22284,-1.24421c0.07787,-1.09318 0.30629,-2.383 0.57453,-3.34039c0.26824,-0.95741 0.43581,-1.06219 0.43581,-1.06219z" fill="#f8f8f8" stroke="none" stroke-width="1.15102" stroke-linecap="round"/><path d="M234.38473,187.45962c-0.02283,0.36713 0.00108,2.12807 -0.27605,2.60516c-0.21363,0.36777 -0.80314,-0.16059 -0.80314,-0.16059c0,0 -0.59461,0.2017 -0.71774,0.19405c-0.46419,-0.02886 -0.13009,-1.33007 -0.07509,-2.21492c0.011,-0.17696 -0.20377,-1.04921 -0.10948,-1.55521c0.05611,-0.30111 0.06184,-0.58349 0.46199,-0.79677c0.41212,-0.21969 0.54974,0.41043 0.54974,0.41043c0,0 0.43071,-0.64549 0.92384,-0.11338c0.43412,0.46845 0.07248,1.20344 0.04589,1.63122z" fill="#ffffff" stroke="none" stroke-width="0" stroke-linecap="butt"/></g></g><path d="M236.39984,163.30539c10.49341,0 19,2.31852 19,5.17857c0,2.86005 -8.50659,5.17857 -19,5.17857c-10.49341,0 -19,-2.31852 -19,-5.17857c0,-2.86005 8.50659,-5.17857 19,-5.17857z" data-paper-data="{&quot;index&quot;:null}" fill-opacity="0.90196" fill="#e3a127" stroke="none" stroke-width="0" stroke-linecap="butt"/><path d="M250.71868,165.37822c3.0206,0.99642 4.03525,3.79772 4.03525,3.79772c0,0 -2.25123,-2.29169 -3.56304,-3.05082c-0.52216,-0.30217 -3.47329,-1.10061 -3.47329,-1.10061c0,0 2.34365,0.64735 3.25062,1.22854c0.90697,0.58119 1.8555,2.0435 1.8555,2.0435c0,0 -1.7828,-1.25416 -2.56834,-1.6461c-0.78553,-0.39194 -2.13721,-0.70173 -2.13721,-0.70173c0,0 1.11473,0.42764 1.52888,0.73151c0.41416,0.30387 0.84434,1.00973 0.84434,1.00973c0,0 -0.81153,-0.34711 -1.25743,-0.51841c-0.4459,-0.1713 -1.15398,-0.40797 -1.15398,-0.40797c0,0 0.55354,0.44658 0.78255,0.69684c0.229,0.25026 0.50349,0.70855 0.50349,0.70855l-1.48855,-0.54908l-1.20678,-0.22575c0,0 0.57478,0.27611 0.75648,0.40827c0.1817,0.13216 0.3887,0.42469 0.3887,0.42469c0,0 -0.32228,-0.08112 -0.50452,-0.0885c-0.18224,-0.00738 -0.46476,0.04925 -0.46476,0.04925l0.42549,0.65059l-0.96779,-0.10011l0.17909,0.57442l-1.07057,-0.21341l0.64872,-0.26875l-0.5525,-0.2684c0,0 0.34669,-0.04679 0.51264,-0.04521c0.22312,0.00211 0.8373,0.12043 0.8373,0.12043c0,0 -0.2943,-0.29408 -0.45754,-0.42104c-0.12851,-0.09994 -0.4429,-0.27922 -0.4429,-0.27922c0,0 0.33993,-0.09229 0.5832,-0.08193c0.24327,0.01035 0.60963,0.13274 0.60963,0.13274c0,0 -0.19933,-0.19129 -0.44798,-0.38306c-0.24865,-0.19177 -0.65486,-0.46749 -0.65486,-0.46749c0,0 0.70167,-0.05934 1.14476,-0.00334c0.44309,0.056 1.10758,0.28799 1.10758,0.28799c0,0 -0.47609,-0.47508 -0.73362,-0.66122c-0.23093,-0.16692 -0.77671,-0.49106 -0.77671,-0.49106c0,0 0.64446,0.01006 1.16764,0.12987c0.52317,0.11981 1.30425,0.43622 1.30425,0.43622c0,0 -0.99572,-0.56809 -1.57594,-0.81954c-0.51053,-0.22125 -1.72312,-0.61022 -1.72312,-0.61022c0,0 1.54101,-0.03171 2.23596,0.13197c0.81915,0.19294 2.36791,0.9524 2.36791,0.9524c0,0 -1.72517,-0.91504 -2.73645,-1.20437c-0.56826,-0.16257 -2.81139,-0.3829 -2.81139,-0.3829c0,0 1.54546,-0.3235 3.19049,-0.18933c1.04125,0.08493 2.43338,0.63946 2.50881,0.66435z" data-paper-data="{&quot;index&quot;:null}" fill="#dcdce1" stroke="none" stroke-width="0" stroke-linecap="butt"/><path d="M222.85646,171.54165c-3.09068,-0.75141 -4.32632,-3.46248 -4.32632,-3.46248c0,0 2.42746,2.10411 3.79583,2.75579c0.54467,0.25939 3.55025,0.81901 3.55025,0.81901c0,0 -2.38796,-0.45764 -3.33854,-0.96436c-0.95059,-0.50672 -2.01315,-1.8884 -2.01315,-1.8884c0,0 1.87749,1.1074 2.69188,1.4352c0.81439,0.3278 2.18654,0.52838 2.18654,0.52838c0,0 -1.14538,-0.33702 -1.58253,-0.60676c-0.43715,-0.26974 -0.92246,-0.93889 -0.92246,-0.93889c0,0 0.83671,0.28103 1.29489,0.41608c0.45818,0.13505 1.18293,0.31427 1.18293,0.31427c0,0 -0.58752,-0.40084 -0.83582,-0.63196c-0.2483,-0.23112 -0.5586,-0.66596 -0.5586,-0.66596l1.52774,0.42815l1.22098,0.12841c0,0 -0.59504,-0.2292 -0.78674,-0.34639c-0.1917,-0.11719 -0.42146,-0.39221 -0.42146,-0.39221c0,0 0.32774,0.05507 0.50999,0.04783c0.18226,-0.00723 0.45934,-0.08629 0.45934,-0.08629l-0.47621,-0.61445l0.9727,0.02232l-0.2245,-0.55824l1.08422,0.12702l-0.62512,0.31983l0.57221,0.22331c0,0 -0.34182,0.07439 -0.50737,0.08611c-0.22257,0.01576 -0.84425,-0.05302 -0.84425,-0.05302c0,0 0.31689,0.26959 0.48978,0.38307c0.1361,0.08933 0.46384,0.24286 0.46384,0.24286c0,0 -0.33145,0.11921 -0.57477,0.12836c-0.24332,0.00915 -0.6183,-0.08351 -0.6183,-0.08351c0,0 0.21401,0.17473 0.47721,0.34597c0.26321,0.17125 0.69019,0.41357 0.69019,0.41357c0,0 -0.69466,0.11532 -1.14082,0.09497c-0.44615,-0.02035 -1.12708,-0.1984 -1.12708,-0.1984c0,0 0.5126,0.43544 0.7842,0.60037c0.24355,0.14789 0.81353,0.42731 0.81353,0.42731c0,0 -0.64321,0.04156 -1.17429,-0.03598c-0.53108,-0.07754 -1.33499,-0.33041 -1.33499,-0.33041c0,0 1.038,0.48654 1.63649,0.69074c0.52661,0.17968 1.76644,0.47033 1.76644,0.47033c0,0 -1.53351,0.15498 -2.23934,0.04745c-0.83197,-0.12674 -2.43656,-0.75978 -2.43656,-0.75978c0,0 1.79288,0.77399 2.82407,0.98144c0.57944,0.11657 2.83302,0.15661 2.83302,0.15661c0,0 -1.51461,0.44619 -3.1651,0.44414c-1.0447,-0.0013 -2.47676,-0.44261 -2.55394,-0.46138z" data-paper-data="{&quot;index&quot;:null}" fill="#dcdce1" stroke="none" stroke-width="0" stroke-linecap="butt"/><path d="M236.66053,163.79628c-0.37209,0.04428 0.22831,-0.18568 0.22831,-0.18568c0,0 0.79364,-0.12897 1.13765,-0.09252c0.34401,0.03645 0.8336,0.3014 0.8336,0.3014c0,0 -0.58992,0.07307 -0.90746,0.12453c-0.31754,0.05146 -0.80982,0.15374 -0.80982,0.15374c0,0 0.4735,0.07226 0.69159,0.14027c0.21809,0.06801 0.53316,0.24167 0.53316,0.24167l-1.05235,0.18502l-0.77878,0.27766c0,0 0.42807,-0.03414 0.5786,-0.01882c0.15053,0.01532 0.37015,0.1154 0.37015,0.1154c0,0 -0.21504,0.06202 -0.32359,0.1195c-0.10856,0.05748 -0.25378,0.18619 -0.25378,0.18619l0.46813,0.23439l-0.59712,0.26978l0.29892,0.27356l-0.69534,0.23869l0.28642,-0.37628l-0.4125,0.03108c0,0 0.1859,-0.14474 0.283,-0.20007c0.13056,-0.0744 0.52808,-0.21372 0.52808,-0.21372c0,0 -0.27094,-0.07138 -0.40897,-0.08993c-0.10866,-0.0146 -0.35238,-0.01236 -0.35238,-0.01236c0,0 0.16653,-0.16893 0.31161,-0.24536c0.14508,-0.07643 0.39976,-0.12938 0.39976,-0.12938c0,0 -0.18083,-0.04376 -0.39053,-0.07107c-0.20969,-0.02731 -0.53954,-0.05008 -0.53954,-0.05008c0,0 0.3882,-0.27236 0.66504,-0.38996c0.27684,-0.1176 0.74216,-0.20782 0.74216,-0.20782c0,0 -0.43808,-0.1151 -0.65104,-0.13613c-0.19097,-0.01886 -0.61845,-0.0225 -0.61845,-0.0225c0,0 0.37844,-0.21259 0.72351,-0.3202c0.34507,-0.10761 0.90685,-0.18823 0.90685,-0.18823c0,0 -0.772,0.00692 -1.19488,0.05725z" data-paper-data="{&quot;index&quot;:null}" fill="#dcdce1" stroke="none" stroke-width="0" stroke-linecap="butt"/><g data-paper-data="{&quot;index&quot;:null}"><path d="M240.92804,168.09763c0.5226,-0.05642 3.43918,3.87901 3.88071,4.1005c0.74669,0.37554 0.95681,0.24792 1.7703,0.22093c0.70239,-0.07438 1.87707,-0.77857 2.64776,-1.21262c0.77069,-0.43406 2.23735,-1.0833 2.29555,-0.49973c0.22307,0.71576 -0.38473,1.64187 -0.8383,2.78658c-0.45357,1.14471 -1.2619,1.8418 -1.43348,2.50546c-0.45779,1.75792 -0.3174,4.85973 -1.60008,6.14513c-1.08519,1.08604 -3.20584,0.61208 -4.74028,0.23409c-1.9001,-0.46746 -4.498,-0.82442 -5.26239,-2.62815c-0.8979,-2.12064 0.81216,-5.62523 0.81216,-5.62523c0,0 0.18623,-1.71681 0.87291,-3.05295c0.68667,-1.33613 0.97471,-2.90629 1.59514,-2.97401z" data-paper-data="{&quot;index&quot;:null}" fill="#f8b820" stroke="none" stroke-width="1" stroke-linecap="round"/><path d="M247.45964,179.58539c0.10069,-0.74028 0.11705,-1.55928 0.44578,-2.20794c0.16891,-0.29581 0.65471,-0.46007 0.81301,-0.17882c0.23646,0.41869 0.12073,1.11722 0.0289,1.67373c-0.14936,1.0161 -0.27859,2.11926 -0.74141,2.97195c-0.1572,0.28952 -0.56319,-0.06209 -0.65226,-0.40354c-0.14486,-0.55943 0.02233,-1.23995 0.10599,-1.85538z" data-paper-data="{&quot;index&quot;:null}" fill="#ffffff" stroke="none" stroke-width="0.86553" stroke-linecap="round"/><path d="M239.84618,173.67211c-0.21131,-0.18025 0.88944,-4.84388 1.21099,-4.91273c0.28524,-0.05901 1.61437,1.68664 1.77446,2.17586c0.15248,0.46624 1.00565,1.08422 0.86662,1.55994c-0.05433,0.17934 -0.92269,0.14429 -1.70574,0.38105c-0.78306,0.23677 -2.04035,0.88565 -2.14634,0.7959z" data-paper-data="{&quot;index&quot;:null}" fill="#ffffff" stroke="none" stroke-width="0.85185" stroke-linecap="butt"/><path d="M242.47726,182.01289c-0.27925,-0.68323 -0.01902,-1.52976 0.08593,-2.31958c0.08519,-0.64322 0.18701,-1.31899 0.46968,-1.88954c0.18519,-0.38092 0.56464,-0.63867 0.89771,-0.86965c0.23978,-0.14978 0.53266,-0.24802 0.81042,-0.29981c0.26907,-0.04787 0.48317,-0.0309 0.71877,0.00422c0.19696,0.0291 0.45465,-0.01516 0.46736,0.1777c0.16094,0.52193 0.04242,1.0955 -0.02663,1.63942c-0.16116,1.26782 -0.08602,2.73629 -0.68371,3.8714c-0.26517,0.50331 -0.9881,0.29805 -1.47725,0.25054c-0.45128,-0.0596 -1.06936,-0.09298 -1.26228,-0.56468z" data-paper-data="{&quot;index&quot;:null}" fill="#ffffff" stroke="none" stroke-width="0.97175" stroke-linecap="round"/><path d="M237.33926,178.98941c-0.27899,-0.41712 2.61799,0.78584 3.50475,1.7059c0.58646,0.60895 1.14402,0.98413 1.93423,1.2409c0.80276,0.27386 1.80039,0.34413 2.60401,0.06215c0.90885,-0.3189 2.24778,-0.3395 2.91964,0.3129c0.3848,0.37365 -0.17844,1.63568 -0.73608,1.88098c-0.93947,0.65398 -2.06018,0.81793 -2.81736,0.76928c-0.82955,-0.08397 -2.01124,-0.38289 -2.84274,-0.69812c-0.8315,-0.31523 -1.5855,-0.90482 -1.9514,-1.17532c-0.33152,-0.24532 -3.1577,-0.59613 -3.1577,-0.59613l1.22935,-0.43021l-1.34387,-1.00413c0,0 1.56726,-0.20366 1.45785,-0.32177c-0.58496,-0.63199 -1.25234,-0.84968 -1.25234,-0.84968c0,0 0.92057,0.17188 1.52308,-0.03619c0.30544,-0.10491 -0.85984,-0.54485 -1.07143,-0.86057z" data-paper-data="{&quot;index&quot;:null}" fill="#f8f8f8" stroke="none" stroke-width="1" stroke-linecap="round"/><path d="M247.64149,182.03854c0.35477,0.05441 0.54933,0.16048 0.76352,0.31636c0.2142,0.15589 -0.54594,0.6326 -0.90071,0.57819c-0.35477,-0.05441 -0.7648,-0.71061 -0.51372,-0.79514c0.25107,-0.08453 0.29615,-0.15383 0.65091,-0.09942z" data-paper-data="{&quot;index&quot;:null}" fill="#101010" stroke="none" stroke-width="1" stroke-linecap="butt"/><path d="M242.76615,183.54693l1.61301,1.03448" data-paper-data="{&quot;index&quot;:null}" fill="none" stroke="#cccccc" stroke-width="0.36953" stroke-linecap="round"/><path d="M244.8008,179.49375c0.14135,-0.22103 0.30759,-0.34587 0.46713,-0.3214c0.15943,0.02446 0.28063,0.19339 0.34923,0.44661c0.06735,0.25415 0.08219,0.5915 0.02667,0.95346c-0.05552,0.36197 -0.17076,0.67936 -0.31118,0.90164c-0.14135,0.22103 -0.30759,0.34587 -0.46703,0.32142c-0.15953,-0.02447 -0.28073,-0.1934 -0.34933,-0.44662c-0.06725,-0.25413 -0.08218,-0.5915 -0.02666,-0.95346c0.05552,-0.36197 0.17086,-0.67935 0.31118,-0.90165z" fill="#4088ed" stroke="none" stroke-width="1.0615" stroke-linecap="butt"/><path d="M244.87989,179.78701c0.09254,-0.13777 0.20309,-0.2147 0.30984,-0.19832c0.10675,0.01638 0.18905,0.12288 0.23606,0.28205c0.04752,0.15915 0.05914,0.37034 0.02445,0.5965c-0.03469,0.22616 -0.10907,0.42416 -0.20211,0.56185c-0.09254,0.13766 -0.203,0.21472 -0.30975,0.19834c-0.10675,-0.01638 -0.18913,-0.12299 -0.23616,-0.28206c-0.04751,-0.15924 -0.05914,-0.37044 -0.02445,-0.5966c0.03469,-0.22616 0.10908,-0.42417 0.20211,-0.56176z" fill="#000000" stroke="none" stroke-width="0.47368" stroke-linecap="butt"/><path d="M245.22139,179.84262c0.04853,0.00744 0.08692,0.05198 0.10895,0.11747c0.02261,0.06569 0.02954,0.15245 0.01532,0.24516c-0.01422,0.09272 -0.04684,0.17341 -0.08809,0.2293c-0.04064,0.05589 -0.09062,0.08687 -0.13915,0.07943c-0.04863,-0.00746 -0.08692,-0.05199 -0.10895,-0.11748c-0.0226,-0.06569 -0.02962,-0.15246 -0.0154,-0.24517c0.01422,-0.09272 0.04692,-0.1734 0.08817,-0.22929c0.04064,-0.05589 0.09052,-0.08688 0.13915,-0.07942z" fill="#ffffff" stroke="none" stroke-width="0.64678" stroke-linecap="butt"/><path d="M247.58976,179.9033c0.12554,-0.19654 0.27338,-0.30751 0.41512,-0.28577c0.14174,0.02173 0.24952,0.17191 0.3105,0.39705c0.05985,0.22588 0.07306,0.52566 0.0237,0.84749c-0.04934,0.32173 -0.1518,0.60387 -0.27659,0.80143c-0.12562,0.19642 -0.27346,0.3074 -0.4152,0.28566c-0.14174,-0.02174 -0.24953,-0.17192 -0.31042,-0.39695c-0.05986,-0.22588 -0.07304,-0.52576 -0.0237,-0.84749c0.04936,-0.32184 0.1518,-0.60387 0.27659,-0.80143z" fill="#4088ed" stroke="none" stroke-width="0.94355" stroke-linecap="butt"/><path d="M247.71784,180.18961c0.08222,-0.12246 0.18051,-0.19085 0.27541,-0.17629c0.09489,0.01456 0.16808,0.10924 0.20991,0.25072c0.04213,0.14152 0.05259,0.32928 0.02177,0.53023c-0.03084,0.20106 -0.09708,0.37703 -0.17969,0.49943c-0.08232,0.12244 -0.18051,0.19085 -0.27541,0.17629c-0.09489,-0.01456 -0.16817,-0.10926 -0.20991,-0.25072c-0.04213,-0.14153 -0.05259,-0.32928 -0.02176,-0.53033c0.03083,-0.20096 0.09707,-0.37694 0.17968,-0.49934z" fill="#000000" stroke="none" stroke-width="0.42105" stroke-linecap="butt"/><path d="M248.05436,180.24413c0.0432,0.00662 0.07718,0.04613 0.09677,0.10448c0.0202,0.05833 0.02638,0.13546 0.01375,0.2178c-0.01265,0.08244 -0.04166,0.15417 -0.0784,0.20377c-0.03617,0.04979 -0.08045,0.07729 -0.12364,0.07067c-0.0432,-0.00662 -0.07729,-0.04614 -0.09688,-0.10449c-0.02009,-0.05831 -0.02627,-0.13544 -0.01363,-0.21788c0.01263,-0.08234 0.04165,-0.15407 0.07829,-0.20369c0.03617,-0.0498 0.08055,-0.07728 0.12374,-0.07066z" fill="#ffffff" stroke="none" stroke-width="0.57492" stroke-linecap="butt"/><path d="M251.18782,170.85749c0,0 -0.0035,0.92114 -0.33731,1.69268c-0.3338,0.77155 -1.39345,1.79103 -1.54611,1.76762c-0.29777,-0.04567 -1.76299,-1.09814 -1.76299,-1.09814z" fill="#ffffff" stroke="none" stroke-width="0" stroke-linecap="butt"/><path d="M247.19055,175.92598l2.76323,1.17854l1.08131,3.07207l-1.55533,-2.19073l-2.60065,-1.47829z" fill="#f8b820" stroke="none" stroke-width="1.22222" stroke-linecap="round"/><path d="M247.54436,175.06352c0,0 2.77624,-0.28656 3.06641,-0.15708c0.41368,0.18458 1.83668,2.65444 1.83668,2.65444l-2.41175,-1.76765l-2.3953,0.08748z" fill="#f8b820" stroke="none" stroke-width="1.22222" stroke-linecap="round"/><path d="M247.09243,174.0419c0,0 2.86545,-1.24272 3.26447,-1.28473c0.65811,-0.06929 3.88151,1.41482 3.88151,1.41482c0,0 -3.32296,-0.39374 -4.30443,-0.30054c-0.98147,0.0932 -2.32719,0.93032 -2.32719,0.93032z" fill="#f8b820" stroke="none" stroke-width="1.22222" stroke-linecap="round"/></g></g></g></svg>