<svg version="1.1" xmlns="http://www.w3.org/2000/svg" xmlns:xlink="http://www.w3.org/1999/xlink" width="10.40669" height="17.96502" viewBox="0,0,10.40669,17.96502"><g transform="translate(-235.24861,-170.07831)"><g data-paper-data="{&quot;isPaintingLayer&quot;:true}" fill-rule="nonzero" stroke-width="0" stroke-linecap="butt" stroke-linejoin="miter" stroke-miterlimit="10" stroke-dasharray="" stroke-dashoffset="0" style="mix-blend-mode: normal"><path d="M243.95303,181.80116c-0.90249,0.94477 -3.21432,0.79701 -3.26403,0.36396c-0.06323,-0.55088 2.43677,-3.61029 3.13596,-2.63954c0.4643,0.72415 -1.09442,2.22611 -1.09442,2.22611c0,0 1.613,-0.33742 1.22249,0.04947z" data-paper-data="{&quot;index&quot;:null}" fill="#d4a5b9" stroke="none"/><path d="M238.03278,182.26115c0,0 -1.92274,-1.34593 -1.87702,-2.18832c0.39054,-0.67805 3.89588,1.57746 3.95913,2.12834c0.04971,0.43306 -2.05834,1.04016 -3.01673,0.45823c-0.4545,-0.17052 0.93461,-0.39825 0.93461,-0.39825z" data-paper-data="{&quot;index&quot;:null}" fill="#d4a5b9" stroke="none"/><path d="M238.30817,183.45308c-0.11952,-1.04112 0.69351,-1.98956 1.81597,-2.11841c1.12245,-0.12885 2.12926,0.61067 2.24877,1.65178c0.11952,1.04112 -0.69351,1.98956 -1.81597,2.11841c-1.12245,0.12885 -2.12926,-0.61067 -2.24877,-1.65178z" fill="#9ad6ef" stroke="none"/><path d="M241.64232,188.02959c-0.6078,0.09011 -1.25089,-0.76815 -1.43635,-1.91695c-0.18548,-1.14881 0.15689,-2.15316 0.76469,-2.24327c0.6078,-0.09011 1.25089,0.76815 1.43635,1.91695c0.18548,1.14881 -0.15689,2.15316 -0.76469,2.24327z" fill="#9ad6ef" stroke="none"/><path d="M245.49604,186.098c-0.39582,0.47902 -1.45597,0.2799 -2.36788,-0.44472c-0.91191,-0.72464 -1.33026,-1.70039 -0.93444,-2.17941c0.39582,-0.47902 1.45597,-0.2799 2.36788,0.44472c0.91191,0.72464 1.33026,1.70039 0.93444,2.17941z" data-paper-data="{&quot;index&quot;:null}" fill="#9ad6ef" stroke="none"/><path d="M241.81735,188.03245c-0.98125,0.14138 -1.39177,-1.14117 -1.39177,-1.14117c0,0 0.2373,-0.81999 1.0108,-1.13024c0.54921,-0.22029 0.99875,0.3146 0.99875,0.3146c0,0 0.09545,1.85405 -0.61776,1.9568z" fill="#eaec6e" stroke="none"/><path d="M244.92964,184.24097c0,0 1.21946,1.28196 0.49672,1.94242c-0.65352,0.59639 -1.62204,-0.098 -1.62204,-0.098c0,0 -0.35096,-0.5713 0.16064,-1.41933c0.2255,-0.36212 0.96467,-0.4251 0.96467,-0.4251z" data-paper-data="{&quot;index&quot;:null}" fill="#eaec6e" stroke="none"/><path d="M243.55287,181.62688c0.91546,0.43731 1.42419,1.50489 0.82728,2.25089c-0.39218,0.49014 -1.28281,0.53726 -1.63502,-0.03328c-0.38607,-0.48433 -0.31221,-1.07415 -0.31221,-1.07415c0,0 -0.3499,-0.65883 -0.57875,-0.80414c-0.3429,-0.21773 -1.2179,-0.31025 -1.2179,-0.31025c0,0 0.62189,-0.23348 1.11938,-0.31371c0.4975,-0.08024 1.18695,-0.0907 1.79722,0.28463z" data-paper-data="{&quot;index&quot;:null}" fill="#9ad6ef" stroke="none"/><path d="M244.62186,182.87553c0,0 0.28596,0.83427 -0.67841,1.31742c-0.88256,0.50543 -1.44495,-0.75859 -1.44495,-0.75859c0,0 0.17868,-0.52279 0.81288,-0.79217c0.80789,-0.34314 1.31048,0.23335 1.31048,0.23335z" data-paper-data="{&quot;index&quot;:null}" fill="#eaec6e" stroke="none"/><path d="M237.71634,182.40854c0.37163,-0.34034 1.30486,-0.55696 1.30486,-0.55696c0,0 -0.66803,0.58472 -0.65962,1.41278c0.00497,0.48955 0.56138,1.2595 0.64435,1.48164c0.22445,0.60091 -0.36076,1.29939 -0.98847,1.30281c-0.95542,0.00518 -1.35523,-1.04452 -1.1301,-2.03378c0.11521,-0.50624 0.45736,-1.26614 0.82897,-1.60649z" fill="#9ad6ef" stroke="none"/><path d="M237.03943,185.46253c0,0 0.08471,-0.7581 0.8653,-1.05272c0.58108,-0.21932 0.94067,0.06799 0.94067,0.06799c0,0 0.7294,0.97968 -0.30937,1.44991c-0.92119,0.41699 -1.49659,-0.46519 -1.49659,-0.46519z" fill="#eaec6e" stroke="none"/><path d="M239.01537,174.37727c0.76324,-0.43137 1.29554,-1.39274 1.33817,-1.39507c0.06191,-0.00337 0.16192,0.16625 0.31503,0.25834c0.88509,0.53239 3.02768,2.4031 3.13114,4.28502c0.04725,0.85939 0.22132,3.63033 -3.88277,4.13133c-3.32721,0.50913 -4.78173,-1.1321 -4.66146,-2.9117c0.19413,-2.87294 2.25845,-3.51931 3.7599,-4.36792z" fill="#9ad6ef" stroke="none"/><path d="M239.71283,182.05692c0,0 -0.20052,-0.35425 -0.1174,-0.5409c0.23504,-0.52781 0.88892,-1.2431 1.47028,-1.10397c0.64121,0.15346 -0.23454,1.63368 -0.23454,1.63368c0,0 0.42371,0.89933 0.23046,0.95917c-0.14861,0.04602 -0.59983,-0.00198 -0.89444,-0.18865c-0.47081,-0.29831 -0.45436,-0.75932 -0.45436,-0.75932z" fill="#d62c35" stroke="none"/><path d="M238.78664,182.17302c-0.12076,-0.38998 0.03187,-0.61509 0.28213,-0.69258c0.25026,-0.0775 0.59307,-0.14812 0.6974,0.38927c0.08253,0.40237 0.03649,0.59392 -0.35538,0.71526c-0.39186,0.12134 -0.52969,-0.10694 -0.62415,-0.41194z" fill="#d62c35" stroke="none"/><path d="M238.58693,171.37113c-0.07324,-0.63798 0.37393,-1.21333 0.99879,-1.28506c0.62485,-0.07173 1.15794,0.36123 1.23117,0.99921c0.07324,0.63798 -0.36041,1.33114 -0.98526,1.40288c-0.62485,0.07173 -1.17146,-0.47904 -1.24471,-1.11704z" fill="#eaec6e" stroke="none"/><path d="M239.07521,182.98255c-0.11926,0.31473 -0.28058,0.62596 -0.58109,0.66372c-0.28633,0.03542 -0.37773,-0.87382 -0.37773,-0.87382c0,0 -1.24815,-0.81662 -0.94464,-1.33683c0.31623,-0.21083 1.11043,0.00165 1.59759,0.27289c0.17228,0.09591 0.21671,0.42478 0.21671,0.42478c0,0 0.27973,0.3463 0.08916,0.84926z" data-paper-data="{&quot;index&quot;:null}" fill="#d62c35" stroke="none"/><path d="M239.95094,173.51299c0.17391,-0.26192 0.29816,-0.5396 0.3995,-0.54947c0.09703,-0.00946 0.45372,0.29818 0.84263,0.63278c0.37504,0.32267 0.74468,0.65809 0.74468,0.65809c0,0 -1.02215,0.33331 -1.57715,0.21915c-0.39165,-0.08057 -0.92654,-0.40223 -0.92654,-0.40223c0,0 0.34698,-0.30244 0.51687,-0.55831z" fill="#eaec6e" stroke="none"/><path d="M237.81997,178.98794c0.07937,0.69137 -0.18597,1.28967 -0.59265,1.33636c-0.40669,0.04668 -0.8007,-0.47593 -0.88007,-1.16729c-0.07937,-0.69137 0.18597,-1.28967 0.59265,-1.33635c0.40669,-0.04668 0.80071,0.47592 0.88008,1.16729z" fill="#ffffff" stroke="#000000"/><path d="M240.96583,178.83571c0.0775,0.6751 -0.14319,1.25491 -0.49294,1.29506c-0.34975,0.04015 -0.6961,-0.47457 -0.7736,-1.14966c-0.0775,-0.6751 0.14321,-1.25491 0.49296,-1.29507c0.34975,-0.04015 0.6961,0.47457 0.7736,1.14966z" fill="#ffffff" stroke="#000000"/><path d="M238.83433,181.06494l-0.49013,-0.63012l0.4747,0.40087l0.68417,-0.44439z" fill="#000000" stroke="none"/><g stroke="none"><path d="M236.50135,178.17232c0.33348,-0.03829 0.64999,0.3329 0.70696,0.82904c0.05696,0.49616 -0.1672,0.9294 -0.50069,0.96769c-0.33348,0.03829 -0.64999,-0.3329 -0.70696,-0.82905c-0.05696,-0.49616 0.1672,-0.92939 0.50069,-0.96768z" fill="#003e5b"/><path d="M236.68452,179.76791c0.33348,-0.03829 0.52379,-0.76655 0.52379,-0.76655c0,0 0.06122,0.91124 -0.50069,0.96769c-0.5621,0.05647 -0.70696,-0.82905 -0.70696,-0.82905c0,0 0.35039,0.6662 0.68386,0.62791z" fill="#166997"/></g><path d="M235.8322,179.15265c-0.10114,-1.04183 0.66024,-0.9783 0.66024,-0.9783c0,0 -0.20794,0.31416 -0.13249,0.97733c0.07111,0.62509 0.30407,0.89462 0.30407,0.89462c0,0 -0.74735,-0.02365 -0.83181,-0.89365z" fill="#9ad6ef" stroke="none"/><g stroke="none"><path d="M239.84752,178.07024c0.32293,-0.03708 0.62943,0.32237 0.68459,0.80283c0.05515,0.48046 -0.16192,0.89999 -0.48485,0.93707c-0.32293,0.03708 -0.62943,-0.32236 -0.68459,-0.80282c-0.05515,-0.48046 0.16192,-0.90001 0.48485,-0.93708z" fill="#003e5b"/><path d="M240.01772,179.62144c0.32293,-0.03708 0.50722,-0.74229 0.50722,-0.74229c0,0 0.05928,0.88241 -0.48485,0.93707c-0.54432,0.05468 -0.68459,-0.80282 -0.68459,-0.80282c0,0 0.3393,0.64511 0.66223,0.60804z" fill="#166997"/></g><path d="M239.81571,178.04322c0,0 -0.18547,0.31158 -0.11003,0.97476c0.07111,0.62509 0.29376,0.80476 0.29376,0.80476c0,0 -0.75949,0.0688 -0.84397,-0.80122c-0.10114,-1.04183 0.66024,-0.9783 0.66024,-0.9783z" fill="#9ad6ef" stroke="none"/></g></g></svg>