<svg version="1.1" xmlns="http://www.w3.org/2000/svg" xmlns:xlink="http://www.w3.org/1999/xlink" width="26.51251" height="25.09075" viewBox="0,0,26.51251,25.09075"><g transform="translate(-225.05141,-185.79702)"><g data-paper-data="{&quot;isPaintingLayer&quot;:true}" fill-rule="nonzero" stroke-linejoin="miter" stroke-miterlimit="10" stroke-dasharray="" stroke-dashoffset="0" style="mix-blend-mode: normal"><g data-paper-data="{&quot;index&quot;:null}"><g data-paper-data="{&quot;index&quot;:null}" stroke="none" stroke-width="0" stroke-linecap="butt"><path d="M237.95305,205.93836c0,0 -1.5565,-1.08289 -2.57524,-2.17105c-0.56154,-0.59981 -1.15165,-1.49839 -1.55454,-1.94047c-0.68072,-0.74698 -1.08957,-0.67271 -1.08957,-0.67271c0,0 1.04859,-0.25157 1.53067,-0.26144c0.48208,-0.00988 0.94384,-0.00519 0.9527,0.17414c0.00885,0.17932 2.736,4.87153 2.736,4.87153z" fill="#54c81c"/><path d="M237.05628,205.13928c-2.15893,-2.14396 -2.20401,-4.25612 -2.20401,-4.25612c0,0 2.27857,-0.15845 4.39831,2.31437c1.65675,1.93271 1.60709,3.2354 1.97278,3.58033c1.06324,1.00289 0.73274,0.88732 0.73274,0.88732c0,0 -1.90036,0.45281 -4.8998,-2.52586z" fill="#ffffff"/></g><path d="M234.95822,202.38496l0.63164,0.24656" fill="none" stroke="#ffffff" stroke-width="0.25" stroke-linecap="round"/><path d="M235.12224,201.56514l-0.57663,-0.1211" fill="none" stroke="#ffffff" stroke-width="0.25" stroke-linecap="round"/></g><g data-paper-data="{&quot;index&quot;:null}"><g data-paper-data="{&quot;index&quot;:null}" stroke="none" stroke-width="0" stroke-linecap="butt"><path d="M225.10452,205.04911c-0.51247,-1.16732 2.82835,-0.60753 3.81892,-0.3451c1.18031,0.16268 3.11583,1.32626 3.11583,1.32626c0,0 1.383,0.72403 0.42046,1.01142c-0.44807,0.13378 -0.87459,0.29295 -1.30643,0.39752c-0.49584,0.12006 -0.99869,0.16809 -1.54917,0.02298c0,0 -3.79809,-0.81515 -4.49961,-2.41307z" data-paper-data="{&quot;index&quot;:null}" fill="#54c81c"/><path d="M235.06049,206.48219l5.51465,1.08918l-0.15598,1.45902c0,0 -3.58599,-0.51092 -5.52288,-1.16575c-0.60716,-0.22638 -4.7091,-0.9959 -4.7091,-0.9959c0,0 -2.28301,-0.55683 -2.77269,-0.96191c-0.6229,-0.5153 0.54537,-0.90307 0.9042,-0.87232c0,0 1.31593,0.37953 2.14705,0.58335c1.2286,0.3013 4.59472,0.86435 4.59472,0.86435z" data-paper-data="{&quot;index&quot;:null}" fill="#ffffff"/></g><path d="M227.29283,206.14284l0.42542,-0.27225" fill="none" stroke="#000000" stroke-width="0.5" stroke-linecap="round"/><path d="M228.23894,206.49683l0.4101,-0.20249" fill="none" stroke="#000000" stroke-width="0.5" stroke-linecap="round"/></g><g data-paper-data="{&quot;index&quot;:null}"><g data-paper-data="{&quot;index&quot;:null}" stroke="none" stroke-width="0" stroke-linecap="butt"><path d="M226.2182,201.25346c-0.16772,-1.26378 2.88574,0.2028 3.76429,0.73029c1.08855,0.48441 2.62424,2.14026 2.62424,2.14026c0,0 1.12717,1.08001 0.12267,1.08845c-0.4676,0.00392 -0.92157,0.03823 -1.36545,0.01861c-0.50966,-0.02253 -1.00605,-0.11619 -1.49448,-0.40864c0,0 -3.42169,-1.83901 -3.65128,-3.56897z" data-paper-data="{&quot;index&quot;:null}" fill="#54c81c"/><path d="M235.38316,205.39812l4.9944,2.57949l-0.55548,1.35813c0,0 -3.30256,-1.48781 -4.98101,-2.65534c-0.52027,-0.38627 -4.24652,-2.26592 -4.24652,-2.26592c0,0 -2.03818,-1.16964 -2.39593,-1.6949c-0.45506,-0.66815 0.77494,-0.71582 1.11107,-0.58652c0,0 1.15854,0.73044 1.90022,1.15731c1.09638,0.63099 4.17325,2.10775 4.17325,2.10775z" data-paper-data="{&quot;index&quot;:null}" fill="#ffffff"/></g><path d="M229.40043,203.60636l-0.51846,0.20598" fill="none" stroke="#000000" stroke-width="0.5" stroke-linecap="round"/><path d="M228.62415,202.94054l-0.48435,0.14323" fill="none" stroke="#000000" stroke-width="0.5" stroke-linecap="round"/></g><g data-paper-data="{&quot;index&quot;:null}"><g data-paper-data="{&quot;index&quot;:null}" stroke="none" stroke-width="0" stroke-linecap="butt"><path d="M229.37914,205.31652c0,0 1.28064,-2.14071 3.06436,-2.41236c1.34844,-0.20536 3.34392,0.16474 3.34392,0.16474l-0.84306,5.06251c0,0 -2.24337,-1.75599 -3.26943,-2.23472c-1.02607,-0.47874 -2.29579,-0.58014 -2.29579,-0.58014z" fill="#54c81c"/><path d="M232.44317,204.23644c0.49768,-1.42712 2.6195,-1.42039 3.34425,-1.16755c0.7193,0.25094 1.92674,0.2059 3.67697,2.42562c1.1937,1.51391 2.39863,1.50033 2.39863,1.50033l0.05107,0.87744c0,0 -2.77578,1.94749 -4.88022,1.39771c-1.96874,-0.51433 -5.06913,-3.66169 -4.59069,-5.03355z" fill="#ffffff"/></g><path d="M232.46654,205.64153l0.54369,0.20537" fill="none" stroke="#ffffff" stroke-width="0.25" stroke-linecap="round"/><path d="M232.14636,204.43336l0.5155,0.14296" fill="none" stroke="#ffffff" stroke-width="0.25" stroke-linecap="round"/><path d="M232.64772,203.38023l0.66249,0.30201" fill="none" stroke="#ffffff" stroke-width="0.25" stroke-linecap="round"/></g><g data-paper-data="{&quot;index&quot;:null}"><g data-paper-data="{&quot;index&quot;:null}" stroke="none" stroke-width="0" stroke-linecap="butt"><path d="M231.10685,208.94099c0,0 1.21373,-0.18018 1.95665,-0.42448c0.74293,-0.2443 3.36404,-1.61971 3.36404,-1.61971c0,0 -2.78019,1.74114 -2.75153,2.50013c0.02866,0.75909 2.89819,1.18615 2.27029,1.33764c-3.31628,0.80004 -4.83942,-1.7936 -4.83942,-1.7936z" fill="#54c81c"/><path d="M242.87488,207.32665c0,0 -2.38329,1.53685 -3.99388,2.44718c-1.95156,1.10304 -4.51024,1.16509 -5.39937,0.54431c-0.88913,-0.62077 1.63213,-2.89002 3.02735,-3.3634c1.51125,-0.51275 6.36591,0.37191 6.36591,0.37191z" fill="#ffffff"/></g><path d="M233.30508,209.00673l0.88965,0.07776" fill="none" stroke="#ffffff" stroke-width="0.25" stroke-linecap="round"/><path d="M232.95263,209.96201l0.58339,0.08263" fill="none" stroke="#ffffff" stroke-width="0.25" stroke-linecap="round"/></g><g data-paper-data="{&quot;index&quot;:null}"><g data-paper-data="{&quot;index&quot;:null}" stroke="none" stroke-width="0" stroke-linecap="butt"><path d="M236.31152,205.38637c0,0 -2.45427,1.9821 -2.11116,2.89795c0.34818,0.92943 3.58051,1.83491 3.58051,1.83491c0,0 -1.02999,0.73376 -3.50912,0.06952c-1.43214,-0.38181 -4.4823,-2.18068 -4.4823,-2.18068c0,0 2.22096,-0.957 3.50915,-1.85541c1.0702,-0.74636 3.0129,-0.7663 3.0129,-0.7663z" fill="#54c81c"/><path d="M237.75263,210.21396c-0.15991,0.03552 -2.97094,-0.32942 -3.76296,-1.7781c-0.66967,-1.29812 2.2887,-3.04059 2.2887,-3.04059c0,0 1.6126,-0.3749 2.90913,-0.49551c1.55769,-0.14491 2.89317,1.05252 3.29238,1.86606c0.39921,0.81354 -0.43067,0.12433 -1.54276,1.66077c-0.83793,1.15762 -3.03122,1.75336 -3.18448,1.78739z" fill="#ffffff"/></g><path d="M234.82639,206.6417l-0.53495,-0.00175" fill="none" stroke="#ffffff" stroke-width="0.25" stroke-linecap="round"/><path d="M233.52445,207.87396l0.49938,0.15072" fill="none" stroke="#ffffff" stroke-width="0.25" stroke-linecap="round"/><path d="M234.27422,209.21818l0.77194,-0.06762" fill="none" stroke="#ffffff" stroke-width="0.25" stroke-linecap="round"/></g><g><path d="M239.92491,201.97754l-0.82128,0.29939l0.03818,-3.22889l0.73072,-0.02268z" data-paper-data="{&quot;index&quot;:null}" fill="#319a2b" stroke="#ffffff" stroke-width="0" stroke-linecap="butt"/><path d="M240.03908,198.93005c-0.23631,0.7149 -0.83225,0.59699 -0.95627,0.09341c-0.29967,-1.21676 -0.16706,-3.72104 -0.16706,-3.72104l1.4416,-0.62619c0,0 -0.09738,3.58555 -0.31828,4.25382z" data-paper-data="{&quot;index&quot;:null}" fill="#ead42f" stroke="#ffffff" stroke-width="0" stroke-linecap="butt"/><path d="M240.08733,195.68981c-0.84359,0.298 -2.54059,-1.48807 -2.20087,-3.55687c0.28047,-1.70803 0.50913,-2.53674 1.67941,-3.11667c0.37014,-0.1834 1.62704,1.64262 1.46457,3.37206c-0.16247,1.72942 -0.66691,3.20392 -0.94311,3.30148z" data-paper-data="{&quot;index&quot;:null}" fill="#f0e9bb" stroke="#ffffff" stroke-width="0" stroke-linecap="butt"/><path d="M240.36659,195.03391c0,0 -0.9718,-1.43694 -1.32797,-2.50389c-0.35617,-1.06696 -0.24284,-2.86897 -0.24284,-2.86897" data-paper-data="{&quot;index&quot;:null}" fill="none" stroke="#d3c49c" stroke-width="0.25" stroke-linecap="round"/><path d="M239.51491,194.38963l0.7235,-0.47906" data-paper-data="{&quot;index&quot;:null}" fill="none" stroke="#ffffff" stroke-width="0.5" stroke-linecap="round"/><path d="M239.51637,192.65375l-0.58566,0.34648" data-paper-data="{&quot;index&quot;:null}" fill="none" stroke="#ffffff" stroke-width="0.5" stroke-linecap="round"/><path d="M238.61327,191.73367l0.6028,-0.25457" data-paper-data="{&quot;index&quot;:null}" fill="none" stroke="#ffffff" stroke-width="0.5" stroke-linecap="round"/><path d="M239.0536,190.17192l-0.46496,0.12198" data-paper-data="{&quot;index&quot;:null}" fill="none" stroke="#ffffff" stroke-width="0.5" stroke-linecap="round"/></g><g data-paper-data="{&quot;index&quot;:null}"><path d="M243.05491,207.70534c-0.36591,0.39828 -2.69739,-0.28309 -2.69739,-0.28309c-0.24658,-0.28197 -1.67704,-0.07531 -1.70209,-0.53654c-0.00974,-0.1801 0.14956,-1.14428 0.32786,-1.71279c0.1783,-0.56852 -0.05954,-0.98345 0.64221,-1.38034c0.70175,-0.39689 1.90661,-0.1482 2.06043,-0.1482c0.12177,0 0.72348,0.19835 1.07941,1.25421c0.35594,1.05586 0.59384,2.36369 0.28957,2.80676z" data-paper-data="{&quot;index&quot;:null}" fill="#319a2b" stroke="none" stroke-width="0.17188" stroke-linecap="butt"/><path d="M241.68175,207.45478c0.61263,0 1.39781,-0.03289 1.39781,-0.03289l0.22399,0.60534c0,0 -0.81357,-0.32402 -1.50188,-0.15139c-0.61138,0.03439 -1.24991,-0.3092 -1.15798,-0.46382c0.178,-0.29941 0.42542,0.04276 1.03805,0.04276z" data-paper-data="{&quot;index&quot;:null}" fill="#ead42f" stroke="none" stroke-width="0" stroke-linecap="butt"/><path d="M238.59562,206.80096c0,0 0.60465,0.11279 1.21306,0.18453c0.60841,0.07174 0.41111,0.46852 -0.19203,0.36277c-0.66335,-0.25204 -1.3616,-0.05504 -1.3616,-0.05504l0.34058,-0.49225z" data-paper-data="{&quot;index&quot;:null}" fill="#ead42f" stroke="none" stroke-width="0" stroke-linecap="butt"/><path d="M241.58454,207.19165l0.07853,0.38091" fill="none" stroke="#ffffff" stroke-width="0.25" stroke-linecap="round"/><path d="M242.60875,207.57679l-0.09109,-0.32829" fill="none" stroke="#ffffff" stroke-width="0.25" stroke-linecap="round"/><path d="M239.50513,207.04375l0.03093,-0.30573" fill="none" stroke="#ffffff" stroke-width="0.25" stroke-linecap="round"/><path d="M238.86602,206.68793l-0.147,0.38175" fill="none" stroke="#ffffff" stroke-width="0.25" stroke-linecap="round"/></g><g data-paper-data="{&quot;index&quot;:null}" stroke="none" stroke-linecap="butt"><path d="M240.68049,203.77491c0.17008,0.06905 0.3072,0.33949 0.39108,0.72079c0.08399,0.38126 0.11481,0.87325 0.07258,1.38519c-0.0422,0.51204 -0.14953,0.94795 -0.28883,1.23853c-0.1394,0.29062 -0.31073,0.43601 -0.48082,0.36696c-0.17021,-0.06911 -0.30722,-0.33958 -0.3912,-0.72085c-0.08388,-0.3813 -0.11481,-0.87325 -0.07258,-1.38519c0.04219,-0.51204 0.14963,-0.94798 0.28893,-1.23856c0.1393,-0.29058 0.31062,-0.43597 0.48084,-0.36686z" fill="#eb3d66" stroke-width="0.01872"/><path d="M240.5684,204.74188c0.20905,0.00794 0.3635,0.4098 0.34498,0.89758c-0.01852,0.48778 -0.203,0.87677 -0.41205,0.86883c-0.20905,-0.00794 -0.3635,-0.4098 -0.34498,-0.89758c0.01852,-0.48778 0.203,-0.87677 0.41205,-0.86883z" fill="#492116" stroke-width="0"/><path d="M240.78879,203.97862c0.07287,0.00749 0.14677,0.09569 0.20751,0.23227c0.06069,0.1365 0.10811,0.32141 0.12783,0.52204c0.01966,0.20055 0.00797,0.3793 -0.02692,0.50605c-0.03488,0.12675 -0.09285,0.20152 -0.16563,0.19397c-0.07281,-0.00742 -0.14676,-0.0957 -0.2075,-0.23228c-0.06068,-0.13652 -0.10813,-0.3213 -0.12777,-0.52198c-0.0197,-0.20063 -0.00801,-0.37938 0.02688,-0.50613c0.03481,-0.1267 0.0928,-0.20139 0.16562,-0.19397z" fill="#ffffff" stroke-width="0.01896"/></g><g><path d="M242.21813,195.17271c4.15253,1.85575 2.88198,4.80285 2.96845,5.05395c0.01994,0.2677 -0.1151,0.51941 -0.204,0.76451c-0.37032,0.87462 -0.82637,1.70912 -1.27395,2.5464c-0.16465,0.3536 -0.517,0.57186 -0.87844,0.68313c-0.38982,0.11323 -0.79864,-0.00459 -1.19047,-0.05092c-0.60267,-0.09336 -1.18974,-0.26939 -1.73751,-0.53697c-0.69073,-0.29327 -1.52155,-0.75878 -1.95047,-1.41935c-0.32966,-0.36646 -0.27011,-0.3287 -0.62107,-0.68311c-0.64254,-0.84352 -0.86799,-1.94733 -0.76229,-2.98991c0.05856,-0.62524 0.22434,-1.25166 0.53907,-1.79837c0.14639,-0.22415 1.66843,-3.10766 5.11065,-1.56935z" data-paper-data="{&quot;index&quot;:null}" fill="#f0e9bb" stroke="none" stroke-width="0.17188" stroke-linecap="butt"/><path d="M239.20989,192.83903c0.33765,0.61571 -2.6925,2.49892 -2.20356,2.17895c-0.40214,-0.57759 -0.53233,-1.41846 -0.43512,-1.984c0.00888,-0.05179 0.12066,-0.15694 0.12066,-0.15694c-0.0932,-0.01493 0.06218,-0.06925 0.10892,-0.15355c0.03672,-0.06634 0.02661,-0.24492 0.02661,-0.24492c-0.05035,0.0107 0.20091,-0.01225 0.30694,-0.05253c0.08759,-0.03323 0.076,-0.08411 0.14303,-0.09905c0.47097,-0.1062 1.13784,0.02574 1.93256,0.51203z" data-paper-data="{&quot;index&quot;:null}" fill="#ed3e67" stroke="none" stroke-width="0.17188" stroke-linecap="butt"/><path d="M245.0882,200.04156c-0.01353,-0.10546 -0.09359,-0.20054 -0.2047,-0.35069c-0.08344,-0.11294 -0.2452,-0.33269 -0.28757,-0.42927c-0.10639,-0.24245 -0.96923,-0.64061 -1.93963,-0.6324c-0.9704,0.0082 -2.00683,1.05951 -2.10058,0.77483c-0.03563,-0.10825 -0.36029,-0.84681 -0.38422,-0.59827c-0.00401,0.04108 -0.44177,0.1325 -0.46205,0.15225c-0.05464,0.05291 -0.35787,-1.30785 -0.61222,-1.68847c-0.25435,-0.38061 -1.11993,-0.96243 -1.1923,-1.01871c-0.10866,-0.08465 -0.22593,-0.01769 -0.28697,0.10056c-0.07739,0.14951 -0.98646,2.01186 -0.99359,2.9746c-0.00713,0.96273 0.92352,2.62489 0.84144,2.23655c-0.03697,-0.17529 -1.10478,1.09709 -1.44617,1.11649c-0.24372,0.01407 -0.92194,-2.2866 0.16514,-4.82487c0.51654,-1.20611 1.50776,-2.59917 1.73572,-2.87845l0.4453,-0.54567c0.6421,-0.59493 1.38677,-1.0501 2.24986,-1.34392c0.05497,-0.01873 0.91054,-0.42319 2.07697,-0.32461c0.73662,0.06221 1.82658,0.49312 1.91142,0.52861c0.49751,0.20818 1.47497,0.59894 2.27282,1.17514c0.50751,0.36651 0.88609,0.86227 1.20349,1.25901c0.05709,0.07118 -1.15779,0.68731 -1.10129,0.75187c0.02749,0.03123 -0.58233,0.84179 -0.61141,0.93164l-0.19433,0.59998c-0.19641,0.60655 0.07456,1.43261 0.13656,1.5513c0.08475,0.16257 0.39594,0.67971 0.5452,0.74919l0.50284,0.23468c0.06898,0.03195 0.86859,-0.14467 0.8982,-0.08086c0.1043,0.22492 -0.36238,1.06873 -0.47206,1.22686l-0.57711,0.83234c-0.18595,0.26806 -0.27319,0.42689 -0.63301,0.75075c-0.49352,0.44456 -0.98911,0.88719 -1.60662,1.22051c-0.499,0.26945 -2.55399,0.74969 -2.46093,0.61547l0.78993,-1.14251l0.97882,-1.67416l0.8131,-2.24979z" data-paper-data="{&quot;index&quot;:null}" fill="#54c81c" stroke="none" stroke-width="0.17188" stroke-linecap="butt"/><path d="M249.42705,200.20983c-1.08878,-0.08761 -1.45883,-2.60542 -1.45883,-2.60542c0.15536,-0.35786 1.34807,-0.70907 2.30111,-0.17545c0.72835,0.40799 1.11556,0.87927 1.22739,1.30518c0.01596,0.06079 -0.03025,0.07529 -0.02048,0.16095c0.01201,0.10356 0.09892,0.31514 0.08647,0.26982c0,0 -0.14928,0.07547 -0.18761,0.13578c-0.0488,0.07672 -0.0274,0.22652 -0.07871,0.15897c0,0 -0.0383,0.1386 -0.07665,0.1699c-0.41815,0.34235 -1.15509,0.63151 -1.79267,0.5803z" data-paper-data="{&quot;index&quot;:null}" fill="#ed3e67" stroke="none" stroke-width="0.17188" stroke-linecap="butt"/><path d="M246.9616,197.92651c0.06338,0.10267 0.20772,-0.48333 0.56168,-0.96271c0.37791,-0.51193 0.97953,-0.91758 1.48118,-0.7328c0.28963,0.10678 0.50382,0.30692 0.71272,0.47868c0.43097,0.35426 0.68984,0.7045 0.48818,0.69612c-0.34224,-0.0141 -0.80993,0.03345 -1.13844,0.10202c-0.46849,0.0977 -0.78318,0.19169 -0.77411,0.21882l0.58399,1.74487l0.56776,0.77684c0.09814,0.12044 -0.33508,0.19264 -0.78535,0.18439c-0.38872,-0.00695 -0.70667,0.09769 -0.8377,0.0825c-0.58376,-0.06676 -0.41189,-0.27772 -0.87372,-0.86606c-0.26851,-0.34215 -0.08126,-1.87721 0.01378,-1.72266z" data-paper-data="{&quot;index&quot;:null}" fill="#54c81c" stroke="none" stroke-width="0.17188" stroke-linecap="butt"/><path d="M246.2694,197.58633c0.55554,-1.20624 1.65098,-2.37635 2.31213,-1.61786c0.27733,0.318 -0.36004,0.31562 -0.94046,0.91926c-0.36939,0.38416 -0.70466,1.07427 -0.80115,2.05427c-0.00997,0.10284 0.06529,0.34457 0.17398,0.6624c0.16642,0.48718 1.55628,0.86273 1.30079,0.8959l-0.99779,0.12918l-0.51537,-0.34583c-0.36712,-0.12938 -1.04041,-1.59353 -0.53213,-2.6973z" data-paper-data="{&quot;index&quot;:null}" fill="#ead32e" stroke="none" stroke-width="0.17188" stroke-linecap="butt"/><path d="M239.19938,193.80506c-0.18257,0.22071 -0.64962,0.47404 -0.64962,0.47404c0.01361,-0.14051 0.21845,-0.29178 0.26333,-0.40388c0.10372,-0.25919 0.55616,-0.80566 1.20067,-1.03702l0.36652,-0.13148c0.18046,-0.06482 0.70328,0.01572 0.76925,0.11395c0.04684,0.19239 -0.66001,0.25474 -1.26378,0.6065c-0.28942,0.16863 -0.68637,0.3779 -0.68637,0.3779z" data-paper-data="{&quot;index&quot;:null}" fill="#ead32e" stroke="none" stroke-width="0.17188" stroke-linecap="butt"/><path d="M239.08988,193.66872c-0.11147,0.10627 -0.58822,0.66171 -0.81297,0.94026l-0.88583,1.09776c-0.06516,0.08077 -0.53801,-0.73593 -0.36701,-0.99422c0.01589,-0.37002 0.23614,-0.59789 0.40018,-0.86455c0.2703,-0.2522 0.70845,-0.56434 0.95294,-0.6616c0.19692,-0.07832 0.22605,-0.58644 0.42271,-0.71683c0.29594,-0.19647 1.27119,0.26314 1.27119,0.26314z" data-paper-data="{&quot;index&quot;:null}" fill="#54c81c" stroke="none" stroke-width="0.17188" stroke-linecap="butt"/><path d="M244.55702,199.97493c0.13429,0.73391 -0.59217,1.48596 -1.19486,1.62826c-0.60269,0.1423 -1.20012,-0.33728 -1.33442,-1.07119c-0.13429,-0.73391 0.24542,-1.44422 0.84811,-1.58652c0.60269,-0.1423 1.54687,0.29555 1.68117,1.02946z" fill="#000000" stroke="none" stroke-width="0" stroke-linecap="butt"/><path d="M237.39017,196.91567c0.62787,-0.40303 1.50154,-0.01028 1.80911,0.5272c0.30758,0.53747 0.04793,1.29991 -0.57993,1.70294c-0.62787,0.40303 -1.38621,0.29404 -1.69379,-0.24343c-0.30758,-0.53747 -0.16326,-1.58367 0.46461,-1.98671z" data-paper-data="{&quot;index&quot;:null}" fill="#000000" stroke="none" stroke-width="0" stroke-linecap="butt"/><path d="M241.07664,203.18861l0.59192,-0.16557" fill="none" stroke="#000000" stroke-width="0.25" stroke-linecap="round"/><path d="M240.51005,203.16747l-0.57692,-0.17778" fill="none" stroke="#000000" stroke-width="0.25" stroke-linecap="round"/><path d="M239.35621,202.81191l-0.55038,-0.23893" fill="none" stroke="#000000" stroke-width="0.25" stroke-linecap="round"/><path d="M237.93359,201.90358l0.43612,0.33469" fill="none" stroke="#000000" stroke-width="0.25" stroke-linecap="round"/><path d="M237.49984,201.06118l0.19957,0.37736" fill="none" stroke="#000000" stroke-width="0.25" stroke-linecap="round"/><path d="M242.4644,202.67588l-0.43856,0.00263l-0.1101,-0.5235" fill="none" stroke="#000000" stroke-width="0.25" stroke-linecap="round"/><path d="M237.83317,200.31368l-0.38303,0.37345l-0.36277,-0.24645" data-paper-data="{&quot;index&quot;:null}" fill="none" stroke="#000000" stroke-width="0.25" stroke-linecap="round"/><path d="M243.97475,200.01031l-1.41884,0.57666" fill="none" stroke="#ffffff" stroke-width="0.25" stroke-linecap="round"/><path d="M243.48007,201.07103l-0.36119,-1.53949" fill="none" stroke="#ffffff" stroke-width="0.25" stroke-linecap="round"/><path d="M244.05064,200.3597c-0.20742,-0.01613 -0.3625,-0.19736 -0.34637,-0.40478c0.01613,-0.20742 0.19736,-0.3625 0.40478,-0.34637c0.20742,0.01613 0.3625,0.19736 0.34637,0.40478c-0.01613,0.20742 -0.19736,0.3625 -0.40478,0.34637z" fill="#ffffff" stroke="none" stroke-width="0" stroke-linecap="butt"/><path d="M242.42694,200.92042c-0.20742,-0.01613 -0.3625,-0.19736 -0.34637,-0.40478c0.01613,-0.20742 0.19736,-0.3625 0.40478,-0.34637c0.20741,0.01613 0.3625,0.19736 0.34637,0.40478c-0.01613,0.20741 -0.19736,0.3625 -0.40478,0.34637z" fill="#ffffff" stroke="none" stroke-width="0" stroke-linecap="butt"/><path d="M243.0688,199.73373c-0.20742,-0.01613 -0.3625,-0.19736 -0.34637,-0.40478c0.01613,-0.20742 0.19736,-0.3625 0.40478,-0.34637c0.20742,0.01613 0.36251,0.19736 0.34638,0.40478c-0.01613,0.20741 -0.19737,0.3625 -0.40479,0.34637z" fill="#ffffff" stroke="none" stroke-width="0" stroke-linecap="butt"/><path d="M243.41406,201.47808c-0.20742,-0.01613 -0.3625,-0.19736 -0.34637,-0.40478c0.01613,-0.20742 0.19736,-0.3625 0.40478,-0.34637c0.20741,0.01613 0.3625,0.19736 0.34637,0.40478c-0.01613,0.20741 -0.19736,0.3625 -0.40478,0.34637z" fill="#ffffff" stroke="none" stroke-width="0" stroke-linecap="butt"/><path d="M237.33519,198.39436l1.41884,-0.57666" fill="none" stroke="#ffffff" stroke-width="0.25" stroke-linecap="round"/><path d="M237.89816,197.33893l0.36119,1.53949" fill="none" stroke="#ffffff" stroke-width="0.25" stroke-linecap="round"/><path d="M238.82992,198.16709c-0.20742,-0.01613 -0.3625,-0.19736 -0.34637,-0.40478c0.01613,-0.20742 0.19736,-0.3625 0.40478,-0.34637c0.20742,0.01613 0.3625,0.19736 0.34637,0.40478c-0.01613,0.20742 -0.19736,0.3625 -0.40478,0.34637z" fill="#ffffff" stroke="none" stroke-width="0" stroke-linecap="butt"/><path d="M237.20622,198.72781c-0.20742,-0.01613 -0.3625,-0.19736 -0.34637,-0.40478c0.01613,-0.20742 0.19736,-0.3625 0.40478,-0.34637c0.20741,0.01613 0.3625,0.19736 0.34637,0.40478c-0.01613,0.20741 -0.19736,0.3625 -0.40478,0.34637z" fill="#ffffff" stroke="none" stroke-width="0" stroke-linecap="butt"/><path d="M237.84808,197.54112c-0.20742,-0.01613 -0.3625,-0.19736 -0.34637,-0.40478c0.01613,-0.20742 0.19736,-0.3625 0.40478,-0.34637c0.20742,0.01613 0.36251,0.19736 0.34638,0.40478c-0.01613,0.20741 -0.19737,0.3625 -0.40479,0.34637z" fill="#ffffff" stroke="none" stroke-width="0" stroke-linecap="butt"/><path d="M238.19334,199.28548c-0.20742,-0.01613 -0.3625,-0.19736 -0.34637,-0.40478c0.01613,-0.20742 0.19736,-0.3625 0.40478,-0.34637c0.20741,0.01613 0.3625,0.19736 0.34637,0.40478c-0.01613,0.20741 -0.19736,0.3625 -0.40478,0.34637z" fill="#ffffff" stroke="none" stroke-width="0" stroke-linecap="butt"/></g><g><path d="M243.22352,194.41845c0,0 0.29978,-1.90693 0.11691,-3.15973c-0.18287,-1.2528 -1.2108,-1.92193 -1.2108,-1.92193l0.40886,-0.63121c0,0 1.3409,1.14187 1.53713,2.4592c0.19623,1.31733 -0.19673,3.40706 -0.19673,3.40706z" fill="#000000" stroke="none" stroke-width="0" stroke-linecap="butt"/><path d="M239.6299,189.42711l-2.77481,-3.25197l4.54199,-0.14248l1.6775,3.2678z" fill="#ea035a" stroke="none" stroke-width="0" stroke-linecap="butt"/><path d="M236.98923,186.1347l5.91724,3.16918" fill="none" stroke="#000000" stroke-width="0.25" stroke-linecap="round"/><path d="M241.45202,185.92203l0.10907,2.58853l-1.95742,0.90783" fill="none" stroke="#000000" stroke-width="0.25" stroke-linecap="round"/></g><g data-paper-data="{&quot;index&quot;:null}"><path d="M240.54549,209.67831l0.04117,-0.72991c0,0 1.50264,-0.60699 1.84699,-1.45843c0.34435,-0.85144 0.01113,-3.13601 0.01113,-3.13601c0,0 1.19236,0.08 0.92,0.20643c-0.21824,0.10131 0.54942,2.19702 -0.08474,3.34821c-0.63415,1.15119 -2.73456,1.76971 -2.73456,1.76971z" data-paper-data="{&quot;index&quot;:null}" fill="#319a2b" stroke="#ffffff" stroke-width="0" stroke-linecap="butt"/><path d="M236.1855,210.05295l0.66246,-1.4253c0,0 2.50684,-0.0692 3.71563,0.26117c0.50028,0.13672 0.60306,0.73545 -0.11759,0.95359c-0.67364,0.20392 -4.2605,0.21054 -4.2605,0.21054z" data-paper-data="{&quot;index&quot;:null}" fill="#ead42f" stroke="#ffffff" stroke-width="0" stroke-linecap="butt"/><path d="M233.88132,210.66791c-1.73299,0.11865 -3.52663,-1.18406 -3.33391,-1.54943c0.60936,-1.15523 1.44358,-1.36284 3.15816,-1.60001c2.07673,-0.28726 3.8193,1.45439 3.50005,2.29018c-0.10452,0.27364 -1.59131,0.7406 -3.3243,0.85926z" data-paper-data="{&quot;index&quot;:null}" fill="#f0e9bb" stroke="#ffffff" stroke-width="0" stroke-linecap="butt"/><path d="M231.21145,208.36496c0,0 1.80431,-0.06769 2.86192,0.31536c1.05761,0.38305 2.46948,1.3909 2.46948,1.3909" data-paper-data="{&quot;index&quot;:null}" fill="none" stroke="#d3c49c" stroke-width="0.25" stroke-linecap="round"/><path d="M235.9203,209.20351l-0.49722,0.71116" data-paper-data="{&quot;index&quot;:null}" fill="none" stroke="#ffffff" stroke-width="0.5" stroke-linecap="round"/><path d="M234.54611,208.58434l-0.3612,0.5767" data-paper-data="{&quot;index&quot;:null}" fill="none" stroke="#ffffff" stroke-width="0.5" stroke-linecap="round"/><path d="M233.01829,208.83112l0.26973,-0.59617" data-paper-data="{&quot;index&quot;:null}" fill="none" stroke="#ffffff" stroke-width="0.5" stroke-linecap="round"/><path d="M231.71562,208.63563l0.13371,-0.46172" data-paper-data="{&quot;index&quot;:null}" fill="none" stroke="#ffffff" stroke-width="0.5" stroke-linecap="round"/></g></g></g></svg>