<svg version="1.1" xmlns="http://www.w3.org/2000/svg" xmlns:xlink="http://www.w3.org/1999/xlink" width="48.4225" height="16.32055" viewBox="0,0,48.4225,16.32055"><g transform="translate(-215.78875,-171.83972)"><g data-paper-data="{&quot;isPaintingLayer&quot;:true}" fill-rule="nonzero" stroke="none" stroke-width="0.26458" stroke-linecap="butt" stroke-linejoin="miter" stroke-miterlimit="10" stroke-dasharray="" stroke-dashoffset="0" style="mix-blend-mode: normal"><g data-paper-data="{&quot;index&quot;:null}"><path d="M219.99659,183.37428l8.81309,-3.74093l-8.81309,-3.74093v-4.05267l14.21466,6.54662v2.80569l-14.21466,6.23488z" fill="#ff0000"/><path d="M215.78875,184.66839l8.32682,-3.22328l-8.32682,-3.22328v-3.49188l13.43035,5.64074v2.41745l-13.43035,5.37214z" fill="#71ff33"/><path d="M234.99659,183.37427l8.81309,-3.74093l-8.81309,-3.74093v-4.05267l14.21466,6.54662v2.80569l-14.21466,6.23488z" fill="#ff0000"/><path d="M230.78875,184.66838l8.32682,-3.22328l-8.32682,-3.22328v-3.49188l13.43035,5.64074v2.41745l-13.43035,5.37214z" fill="#71ff33"/><path d="M249.99659,183.37426l8.81309,-3.74093l-8.81309,-3.74093v-4.05267l14.21466,6.54662v2.80569l-14.21466,6.23488z" fill="#ff0000"/><path d="M245.78875,184.66837l8.32682,-3.22328l-8.32682,-3.22328v-3.49188l13.43035,5.64074v2.41745l-13.43035,5.37214z" fill="#71ff33"/></g></g></g></svg>