<svg version="1.1" xmlns="http://www.w3.org/2000/svg" xmlns:xlink="http://www.w3.org/1999/xlink" width="147.30046" height="25.18162" viewBox="0,0,147.30046,25.18162"><g transform="translate(-166.34977,-167.4092)"><g data-paper-data="{&quot;isPaintingLayer&quot;:true}" fill-rule="nonzero" stroke="none" stroke-width="0.26458" stroke-linecap="butt" stroke-linejoin="miter" stroke-miterlimit="10" stroke-dasharray="" stroke-dashoffset="0" style="mix-blend-mode: normal"><g fill="#ff0000"><path d="M166.34977,192.59081v-25.18161h8.28774v17.98686h11.05029v7.19475z"/><path d="M188.45036,192.59081v-25.18161h19.33802v7.19475h-11.05029v1.79867h11.05029v7.19475h-11.05029v1.79867h11.05029v7.19475z"/><path d="M210.55098,167.4092h7.73521l3.59134,18.28667l3.59134,-18.28667h7.73521l-5.8014,25.18161h-11.05029z"/><path d="M235.96665,192.59081v-25.18161h19.33803v7.19475h-11.05029v1.79867h11.05029v7.19475h-11.05029v1.79867h11.05029v7.19475z"/><path d="M258.06723,192.59081v-25.18161h8.28773v17.98686h11.0503v7.19475z"/><path d="M313.65023,186.59519v5.99562h-17.68047l-1.65753,-4.19692c2.21006,-0.3997 3.9597,-0.94931 5.2489,-1.6488c1.28919,-0.6995 2.62445,-1.99855 4.00573,-3.89714c1.38128,-1.89863 2.164,-3.49745 2.34819,-4.7965c0.18417,-1.29905 0.09208,-2.44822 -0.27625,-3.44747c-1.65756,-0.99927 -3.40717,-1.04925 -5.2489,-0.1499c-1.84173,0.89935 -3.24142,2.14842 -4.19912,3.74727l-1.87856,-4.7965c0.36833,-0.99927 1.42733,-2.24835 3.17695,-3.74727c1.74964,-1.4989 3.91364,-2.24835 6.49206,-2.24835c2.57839,0 4.78845,0.89935 6.63018,2.69802c1.84173,1.7987 2.76259,3.79722 2.76259,5.99562c0,1.39897 -0.41439,3.09775 -1.24317,5.09627c-0.82878,1.99855 -2.07192,3.79722 -3.72948,5.39605z"/></g><g fill="#71ff33"><path d="M169.84978,192.59081v-22.18161h7.92202v15.84401h10.56267v6.3376z"/><path d="M190.97512,192.59081v-22.18161h18.48469v6.3376h-10.56267v1.58439h10.56267v6.3376h-10.56267v1.58439h10.56267v6.3376z"/><path d="M212.10049,170.40921h7.39387l3.43286,16.10809l3.43286,-16.10809h7.39387l-5.5454,22.18161h-10.56267z"/><path d="M236.39463,192.59081v-22.18161h18.48469v6.3376h-10.56267v1.58439h10.56267v6.3376h-10.56267v1.58439h10.56267v6.3376z"/><path d="M257.51997,192.59081v-22.18161h7.92202v15.84401h10.56267v6.3376z"/><path d="M310.65023,187.30948v5.28134h-16.90027l-1.58439,-3.69692c2.11253,-0.35208 3.78497,-0.8362 5.01728,-1.45237c1.23231,-0.61617 2.50864,-1.76045 3.82897,-3.43286c1.32033,-1.67243 2.06851,-3.08078 2.24458,-4.22507c0.17604,-1.14429 0.08802,-2.15656 -0.26406,-3.03676c-1.58441,-0.88023 -3.25682,-0.92425 -5.01728,-0.13204c-1.76045,0.79221 -3.09839,1.89247 -4.01382,3.30084l-1.79566,-4.22507c0.35208,-0.88023 1.36435,-1.98049 3.03676,-3.30084c1.67243,-1.32033 3.74095,-1.98049 6.20559,-1.98049c2.46461,0 4.57715,0.79221 6.3376,2.37659c1.76045,1.58441 2.64068,3.34484 2.64068,5.28134c0,1.23231 -0.3961,2.7287 -1.18831,4.48913c-0.79221,1.76045 -1.98049,3.34484 -3.5649,4.75319z"/></g></g></g></svg>