<svg version="1.1" xmlns="http://www.w3.org/2000/svg" xmlns:xlink="http://www.w3.org/1999/xlink" width="29.33309" height="37.17874" viewBox="0,0,29.33309,37.17874"><g transform="translate(-227.75458,-163.56745)"><g data-paper-data="{&quot;isPaintingLayer&quot;:true}" fill-rule="nonzero" stroke-linejoin="miter" stroke-miterlimit="10" stroke-dasharray="" stroke-dashoffset="0" style="mix-blend-mode: normal"><g stroke="none" stroke-width="0" stroke-linecap="butt"><path d="M243.91015,173.00288c0.49965,-0.74257 2.57342,-1.21364 2.57342,-1.21364c0,0 1.84145,0.27789 2.42538,1.65561c0.58392,1.37773 0.14665,3.12046 -1.01064,3.61095c-0.41137,0.17435 -1.62307,0.45656 -2.51171,0.03469c-0.88864,-0.42188 -0.95079,-1.00904 -1.24264,-1.81704c-0.29185,-0.808 -0.73347,-1.52801 -0.23382,-2.27058z" fill="#c3b0b0"/><path d="M239.48524,175.70347l4.42856,-1.84465c0,0 0.97103,0.32615 1.20535,1.07146c0.30178,0.9599 -0.30303,1.28974 -0.30303,1.28974l-4.26865,1.22891z" fill="#cc0000"/><path d="M247.94954,168.23311c0.45852,-0.58431 1.21771,-0.43903 2.09578,-0.88591c0.80252,-0.40841 1.48788,-1.50237 1.94321,-1.14507c0.19394,0.15219 0.46676,1.2206 0.46676,1.2206c0,0 -1.33314,1.02037 -0.72163,0.98165c0.29756,-0.01884 1.13622,-0.11356 1.8016,-0.38729c0.66539,-0.27372 0.114,-0.7234 0.77447,-0.67244c0.46083,0.03556 1.26894,0.25154 1.34863,0.36647c0.27611,0.39822 0.28336,3.21411 0.49829,3.58248c0.56981,0.97658 1.11245,1.77154 0.49019,2.61952c-3.06275,4.17376 -7.25488,1.78617 -7.55727,2.17151c-0.87757,1.11832 -0.38294,-2.33247 -1.33646,-3.08072c-0.95352,-0.74824 -0.68115,-3.65248 0.19643,-4.7708z" fill="#c3b0b0"/></g><path d="M242.84693,180.30789l-0.02389,4.20868l-1.06658,1.92203l-4.29091,-0.66208c0,0 0.23631,-3.09542 -0.45764,-3.82693c-0.69394,-0.7315 -0.48469,-6.47405 -0.51432,-6.52695c-0.34039,-0.60778 0.60579,1.0111 1.66172,0.60953c2.19064,-0.83309 4.55195,-0.46318 5.00058,-0.67156c0.66488,-0.30883 0.30129,1.20335 0.24415,2.11826c-0.05714,0.91491 -0.55313,2.82904 -0.55313,2.82904z" data-paper-data="{&quot;index&quot;:null}" fill="#ff3200" stroke="none" stroke-width="0" stroke-linecap="butt"/><path d="M242.24181,176.3786l2.39924,-1.02936c0,0 -0.26066,2.61732 0.13932,5.01793c0.39998,2.40061 1.10967,4.93821 1.10967,4.93821c0,0 -2.21266,-1.67025 -2.90418,-4.39332c-0.44129,-1.73775 -0.74405,-4.53346 -0.74405,-4.53346z" data-paper-data="{&quot;index&quot;:null}" fill="#ff3300" stroke="none" stroke-width="0" stroke-linecap="butt"/><path d="M247.79741,169.7333c0.27889,1.67382 -2.32556,3.0105 -4.43985,3.36277c-0.02239,0.00373 -3.91205,-1.91484 -5.60064,1.39399c-0.9678,1.89643 0.39884,8.27962 0.39884,8.27962l-2.8461,-6.75851c0,0 0.14939,2.28415 0.37931,3.60799c0.32089,1.84756 1.36576,6.43968 1.36576,6.43968c0,0 -2.53796,-3.47952 -3.26385,-5.8864c-0.87928,-2.91546 -1.6404,-10.37488 -1.6404,-10.37488c0,0 0.59785,7.25879 1.22969,11.87483c0.63183,4.61605 1.17891,5.72188 1.17891,5.72188c0,0 -2.72071,-3.78624 -3.59705,-6.57771c-0.87634,-2.79147 -1.51006,-6.66403 -1.51006,-6.66403l-0.47747,5.84171c0,0 -0.83052,-3.17362 -1.03852,-4.73463c-0.19803,-1.48611 -0.18104,-4.41778 -0.18104,-4.41778c0,0 1.06259,-2.7753 2.0857,-4.09938c1.86341,-2.41156 2.97851,-2.79197 2.97851,-2.79197c0,0 5.49535,-1.03931 9.96726,0.30607c2.11314,0.63574 3.44253,4.42657 3.44253,4.42657c0,0 1.28958,-0.62364 1.56846,1.05018z" data-paper-data="{&quot;index&quot;:null}" fill="#ff3300" stroke="none" stroke-width="0" stroke-linecap="butt"/><path d="M248.60328,174.40597c0,0 0.77882,0.81247 -4.32493,2.44781c-2.09183,0.67027 -4.34461,0.47421 -6.17771,-0.39585c-1.34298,-0.58652 -1.48532,-2.34898 -1.41843,-2.81333c0.23107,-1.60429 1.19625,-1.95216 1.94781,-1.69372c0.88829,0.30545 1.56107,1.39759 1.56107,1.39759c0,0 1.01764,-0.57856 3.82164,-0.90022c2.86724,-0.3289 4.59056,1.95771 4.59056,1.95771z" data-paper-data="{&quot;index&quot;:null}" fill="#ffbe7e" stroke="none" stroke-width="0" stroke-linecap="butt"/><path d="M249.6287,174.70351c0.0498,0.29889 -1.76128,0.32273 -1.76128,0.32273c0,0 -0.43569,-0.49286 -0.3655,-0.78807c0.07019,-0.29522 0.67889,-0.49368 0.67889,-0.49368c0,0 1.39809,0.66013 1.44789,0.95903z" data-paper-data="{&quot;index&quot;:null}" fill="#030000" stroke="none" stroke-width="0" stroke-linecap="butt"/><path d="M249.23678,168.34211z" data-paper-data="{&quot;index&quot;:null}" fill="#030000" stroke="none" stroke-width="0" stroke-linecap="butt"/><path d="M237.55627,174.98775c0,0 0.36532,-0.19875 0.85001,-0.22516c0.48469,-0.02641 1.23881,0.11133 1.23881,0.11133" data-paper-data="{&quot;index&quot;:null}" fill="none" stroke="#000000" stroke-width="0.5" stroke-linecap="round"/><path d="M243.63769,172.48147c0,0 -2.35555,0.77304 -3.29943,0.93031c-0.46487,0.07745 -2.28326,-1.48192 -2.58264,-2.51779c-0.14936,-0.51682 0.07628,-1.27999 0.04303,-1.47958c-0.06553,-0.39328 1.95674,-0.004 3.23288,0.77872c0.81569,0.50029 2.60616,2.28834 2.60616,2.28834z" data-paper-data="{&quot;index&quot;:null}" fill="#ffffff" stroke="none" stroke-width="0" stroke-linecap="butt"/><path d="M246.60689,171.83388c0.09786,0.5873 -0.10076,1.01864 -0.48006,1.08184c-0.3793,0.0632 -1.24614,0.03707 -1.34399,-0.55023c-0.09786,-0.5873 0.791,-1.61937 1.27765,-1.7612c0.48665,-0.14183 0.44856,0.64228 0.54641,1.22959z" data-paper-data="{&quot;index&quot;:null}" fill="#ffffff" stroke="none" stroke-width="0" stroke-linecap="butt"/><g data-paper-data="{&quot;index&quot;:null}" stroke="none" stroke-width="0" stroke-linecap="butt"><path d="M240.73857,173.74512c-0.33036,0.05504 -0.67867,-0.38353 -0.77798,-0.97957c-0.09931,-0.59605 0.08799,-1.12385 0.41835,-1.17889c0.33036,-0.05505 0.67867,0.38352 0.77799,0.97957c0.09931,0.59605 -0.08799,1.12386 -0.41835,1.1789z" fill="#7c5cbb"/><path d="M240.68056,173.26036c-0.19577,0.03262 -0.3809,-0.09964 -0.41352,-0.29541c-0.03262,-0.19577 0.09963,-0.38091 0.2954,-0.41353c0.19577,-0.03262 0.38092,0.09964 0.41353,0.29541c0.03262,0.19577 -0.09964,0.38091 -0.29541,0.41353z" fill="#000000"/><path d="M240.59936,172.77297c-0.19577,0.03262 -0.38091,-0.09964 -0.41353,-0.29541c-0.03262,-0.19577 0.09964,-0.38091 0.29541,-0.41353c0.19577,-0.03262 0.38091,0.09964 0.41353,0.29541c0.03262,0.19577 -0.09964,0.38091 -0.29541,0.41353z" fill="#ffffff"/></g><g data-paper-data="{&quot;index&quot;:null}" stroke="none" stroke-width="0" stroke-linecap="butt"><path d="M245.84036,173.60871c-0.33036,0.05504 -0.67867,-0.38353 -0.77799,-0.97957c-0.09931,-0.59605 0.08799,-1.12385 0.41835,-1.17889c0.33036,-0.05505 0.67867,0.38352 0.77799,0.97957c0.09931,0.59605 -0.08799,1.12386 -0.41835,1.1789z" fill="#7c5cbb"/><path d="M245.78238,173.12395c-0.19577,0.03262 -0.38091,-0.09964 -0.41352,-0.29541c-0.03262,-0.19577 0.09963,-0.38091 0.2954,-0.41353c0.19577,-0.03262 0.38091,0.09964 0.41353,0.29541c0.03262,0.19577 -0.09964,0.38091 -0.29541,0.41353z" fill="#000000"/><path d="M245.70118,172.63656c-0.19577,0.03262 -0.38091,-0.09964 -0.41352,-0.29541c-0.03262,-0.19577 0.09964,-0.38091 0.29541,-0.41353c0.19577,-0.03262 0.38091,0.09964 0.41353,0.29541c0.03262,0.19577 -0.09964,0.38091 -0.29541,0.41353z" fill="#ffffff"/></g><path d="M242.68861,179.78331c0,0.59855 0.02107,0.65026 -0.48769,0.65026c-0.50876,0 -1.30051,-2.05914 -1.30051,-2.05914c0,0 1.7882,0.81034 1.7882,1.40888z" fill="#f3f3f3" stroke="none" stroke-width="0" stroke-linecap="butt"/><path d="M239.99957,190.89571l-3.93176,1.50768l-2.60709,7.61659l0.90828,-10.57846l2.63481,-1.87854l1.30821,-5.92254l2.19793,1.49313l1.84759,0.87835z" fill="#ff3200" stroke="none" stroke-width="0" stroke-linecap="butt"/><path d="M243.74653,188.66778l-3.66903,-4.38123l1.02905,-1.76953l4.16632,4.65991l1.34539,3.21549c0,0 -0.3122,0.77549 -0.74991,0.96467c-0.43771,0.1892 -1.46067,-0.0092 -1.46067,-0.0092z" fill="#ff3200" stroke="none" stroke-width="NaN" stroke-linecap="butt"/><path d="M244.28983,194.76851c-0.53094,-0.19853 -1.36448,-2.71207 -1.05436,-3.06616c0.49945,-0.57024 1.29679,-1.00747 2.28657,-1.3015c0.98978,-0.29404 1.5773,-0.42694 2.36429,-0.08013c0.3418,0.15063 1.60894,2.05358 0.8718,3.29892c-0.14343,0.24232 -0.88584,0.95384 -1.78802,1.25985c-0.86202,0.29239 -1.86893,0.19242 -2.68029,-0.11097z" fill="#53b761" stroke="none" stroke-width="0" stroke-linecap="butt"/><path d="M247.95892,200.29273c-0.47021,0.05685 5.56161,-3.38233 6.25944,-5.56059c0.45889,-1.4324 0.24745,-4.74942 0.24745,-4.74942c0,0 1.1997,2.9557 0.32624,5.31213c-1.14032,3.07638 -6.36293,4.94102 -6.83314,4.99787z" fill="#646362" stroke="none" stroke-width="0" stroke-linecap="butt"/><path d="M251.55702,197.81399c0.0584,0.48308 -2.24521,1.70958 -2.275,1.72589c-1.18243,0.64739 -2.18985,1.34383 -2.78809,1.18283c-1.64066,-0.44153 -2.12657,-4.17045 -2.28187,-5.45493c-0.1553,-1.28447 2.4338,-2.01582 4.12638,-1.59452c1.6926,0.4213 3.06327,2.85625 3.21857,4.14072z" fill="#ff1c00" stroke="none" stroke-width="0" stroke-linecap="butt"/><path d="M249.52281,192.30831c-0.19297,-1.59604 0.72463,-3.58159 2.39536,-3.71337c1.11325,-0.0878 2.57604,0.68526 2.76901,2.2813c0.19297,1.59604 -0.14611,4.88113 -1.25474,5.01517c-1.10862,0.13404 -3.71668,-1.98707 -3.90964,-3.5831z" fill="#ff1c00" stroke="none" stroke-width="0" stroke-linecap="butt"/><path d="M251.23521,198.19378c-0.52563,0.06356 -2.36514,-2.57135 -2.54771,-4.08137c-0.18258,-1.51003 0.94368,-1.86987 1.46933,-1.93342c0.27319,-0.03303 1.32881,0.16616 2.26704,0.81784c0.86701,0.6022 1.49367,1.67875 1.58135,2.40397c0.06541,0.54096 -2.24437,2.72943 -2.77001,2.79299z" fill="#ded000" stroke="none" stroke-width="0" stroke-linecap="butt"/><path d="M249.12703,191.21391c0.21012,-0.4254 0.58904,-0.81273 0.58904,-0.81273c0,0 0.42162,-0.05027 0.68163,0.00024c0.26001,0.05051 0.78679,0.14401 0.78679,0.14401c0,0 0.00853,0.88521 -0.16259,1.26567c-0.17112,0.38045 -0.82363,1.58052 -0.82363,1.58052c0,0 -1.26226,1.23841 -1.52572,1.07508c-0.26346,-0.16332 -0.48158,-0.75911 -0.48158,-0.75911c0,0 0.72594,-2.06831 0.93605,-2.49369z" fill="#e0e0de" stroke="none" stroke-width="0" stroke-linecap="butt"/><path d="M242.06481,184.44445v-2.14398h3.9219c0,0 0.36605,0.58032 0.36605,0.99355c0,0.41323 -0.36605,1.15043 -0.36605,1.15043z" fill="#ff3200" stroke="none" stroke-width="0" stroke-linecap="butt"/><g stroke="none" stroke-width="0" stroke-linecap="butt"><path d="M249.30787,178.51883c-0.5553,-1.33985 0.27775,-3.3207 1.63424,-3.86837c0.90384,-0.36492 2.61435,0.08165 2.69902,0.42795c0.5553,1.33986 1.26754,5.14361 0.37897,5.54759c-0.88856,0.404 -4.71223,-2.10717 -4.71223,-2.10717z" fill="#ff1c00"/><path d="M254.09282,181.7086c0.39926,0.14346 0.32937,2.51283 0.33085,2.54365c0.05857,1.22325 0.22159,1.69526 -0.13022,2.12077c-0.96482,1.16691 -4.05995,0.71568 -5.12153,0.33422c-1.0616,-0.38146 -0.65408,-2.78827 0.31458,-4.00566c0.96866,-1.21739 3.38787,-1.37441 4.44946,-0.99296z" fill="#ff1c00"/><path d="M249.51348,182.89635c-1.24801,-0.44844 -0.47406,-1.91334 -0.32502,-2.36835c0.07746,-0.23649 0.52043,-0.97339 1.38386,-1.48269c0.79787,-0.47063 2.8625,-0.92777 3.46188,-0.71241c0.44709,0.16065 0.43485,3.33419 0.28582,3.78921c0,0 -3.55854,1.22269 -4.80653,0.77424z" fill="#ded000"/><path d="M254.38227,186.22802c-0.13333,0.395 0.02837,-4.1596 -0.30447,-7.17802c-0.33285,-3.01842 -0.9246,-4.21886 -0.9246,-4.21886c0,0 0.27727,-0.2756 0.49142,0.17993c0.42712,0.90854 0.77183,2.54188 0.90791,3.55072c0.20432,1.51466 0.18294,7.16664 0.04961,7.56164z" fill="#646362"/><path d="M248.85229,186.33712c-0.41003,0.39139 -3.03561,0.04651 -3.2192,-0.38691c-0.29567,-0.698 -0.34181,-1.60619 -0.17523,-2.62518c0.16658,-1.019 0.30294,-1.60573 0.95798,-2.16299c0.2845,-0.24203 2.02651,-0.71032 2.82627,0.49575c0.15561,0.23468 0.26341,1.3175 0.14577,2.26288c-0.1124,0.90329 0.091,1.81834 -0.53558,2.41646z" fill="#53b761"/><path d="M249.09326,180.96425c0,0 -0.13349,-1.77541 -0.09512,-2.55279c0.03838,-0.77739 0.24845,-1.62002 0.24845,-1.62002c0,0 0.53184,-0.37692 0.79331,-0.48934c0.26147,-0.1124 0.91786,0.42548 0.91786,0.42548c0,0 -0.10731,1.14631 -0.12594,1.82951c-0.01864,0.6832 -0.55667,3.25827 -0.55667,3.25827c0,0 -0.45311,-0.17201 -0.69971,-0.33162c-0.2466,-0.1596 -0.48217,-0.51947 -0.48217,-0.51947z" fill="#986d63"/></g><g stroke-linecap="butt"><path d="M244.28562,177.00458c0.69575,-0.56303 2.8164,-0.40408 2.8164,-0.40408c0,0 1.67857,0.8066 1.83198,2.29507c0.15341,1.48847 -0.77652,3.02586 -2.02684,3.15471c-0.44444,0.04581 -1.68558,-0.04039 -2.41107,-0.70471c-0.7255,-0.66432 -0.61241,-1.24383 -0.65402,-2.10192c-0.04161,-0.85809 -0.25221,-1.67605 0.44353,-2.23908z" fill="#e8e6e6" stroke="none" stroke-width="0"/><path d="M236.05199,177.96123l7.98567,-0.13739c0,0 0.83237,0.59702 0.8374,1.37828c0.00647,1.0062 -0.66854,1.1438 -0.66854,1.1438l-7.65192,-0.4042z" fill="#ff3300" stroke="none" stroke-width="0"/><path d="M249.548,173.63192c0.60993,-0.42382 1.29295,-0.06193 2.26355,-0.23114c0.88709,-0.15464 1.86359,-0.99898 2.19385,-0.52368c0.14067,0.20244 0.08759,1.30386 0.08759,1.30386c0,0 -1.57407,0.58371 -0.97817,0.72633c0.28997,0.06941 1.11944,0.22523 1.83587,0.15905c0.71643,-0.06617 0.32148,-0.65799 0.93783,-0.41525c0.43004,0.16937 1.13906,0.61323 1.18147,0.74649c0.14695,0.46176 -0.67335,3.15553 -0.57612,3.57078c0.25778,1.10088 0.54293,2.02018 -0.30098,2.64793c-4.15374,3.08984 -7.45949,-0.42392 -7.86173,-0.14442c-1.16738,0.81117 0.31916,-2.34206 -0.37246,-3.3374c-0.69162,-0.99534 0.42191,-3.69142 1.58928,-4.50259z" fill="#e8e6e6" stroke="none" stroke-width="0"/><path d="M254.37123,176.03995c0.73747,-0.06676 1.92295,0.82639 1.92295,0.82639c0,0 -0.99209,1.24335 -1.72955,1.3101c-0.73747,0.06676 -1.3786,-0.35738 -1.43201,-0.94737c-0.05341,-0.58997 0.50115,-1.12237 1.23862,-1.18912z" fill="#e8e6e6" stroke="#999797" stroke-width="0.5"/><path d="M254.12571,179.59648c0.72877,0.13114 1.63505,1.3066 1.63505,1.3066c0,0 -1.28622,0.93585 -2.015,0.80469c-0.72877,-0.13114 -1.23451,-0.71009 -1.1296,-1.29311c0.10492,-0.58301 0.78076,-0.94934 1.50954,-0.81819z" fill="#e8e6e6" stroke="#999797" stroke-width="0.5"/></g></g></g></svg>