<svg version="1.1" xmlns="http://www.w3.org/2000/svg" xmlns:xlink="http://www.w3.org/1999/xlink" width="16.53505" height="40.25108" viewBox="0,0,16.53505,40.25108"><g transform="translate(-233.57434,-185.79698)"><g data-paper-data="{&quot;isPaintingLayer&quot;:true}" fill-rule="nonzero" stroke-linejoin="miter" stroke-miterlimit="10" stroke-dasharray="" stroke-dashoffset="0" style="mix-blend-mode: normal"><g data-paper-data="{&quot;index&quot;:null}"><g data-paper-data="{&quot;index&quot;:null}" stroke="none" stroke-width="0" stroke-linecap="butt"><path d="M238.19118,209.58885c0,0 -0.85472,1.69256 -1.78983,2.85339c-0.51544,0.63986 -1.32273,1.34976 -1.70417,1.81049c-0.64452,0.77844 -0.51383,1.1729 -0.51383,1.1729c0,0 -0.39565,-1.00314 -0.4728,-1.47911c-0.07716,-0.47597 -0.13705,-0.93385 0.03928,-0.96769c0.17632,-0.03383 4.44134,-3.38999 4.44134,-3.38999z" fill="#54c81c"/><path d="M237.52528,210.5885c-1.82119,2.43738 -3.90632,2.77721 -3.90632,2.77721c0,0 -0.47535,-2.23406 1.67694,-4.6786c1.6822,-1.91061 2.97903,-2.0435 3.26947,-2.4538c0.84445,-1.19297 0.7762,-0.84956 0.7762,-0.84956c0,0 0.71396,1.81842 -1.81627,5.20473z" fill="#ffffff"/></g><path d="M235.09121,213.05091l0.15586,-0.6599" fill="none" stroke="#ffffff" stroke-width="0.25" stroke-linecap="round"/><path d="M234.2172,213.59097l0.03932,-0.5879" fill="none" stroke="#ffffff" stroke-width="0.25" stroke-linecap="round"/></g><g data-paper-data="{&quot;index&quot;:null}"><g data-paper-data="{&quot;index&quot;:null}" stroke="none" stroke-width="0" stroke-linecap="butt"><path d="M241.61809,225.53678c-1.50124,-0.88981 -1.85059,-4.75865 -1.85059,-4.75865c-0.0774,-0.564 0.03116,-1.05733 0.21036,-1.53499c0.15608,-0.41601 0.36572,-0.82012 0.55276,-1.2487c0.4018,-0.92067 0.95308,0.53981 0.95308,0.53981c0,0 0.9207,2.06215 0.93929,3.25347c0.14058,1.01505 0.2918,4.39907 -0.80489,3.74905z" data-paper-data="{&quot;index&quot;:null}" fill="#54c81c"/><path d="M241.40085,215.48056c0,0 0.15139,3.40953 0.30174,4.66557c0.1017,0.84968 0.31913,2.20188 0.31913,2.20188c-0.01292,0.35991 -0.53927,1.47264 -0.97537,0.79194c-0.34282,-0.53512 -0.61917,-2.86875 -0.61917,-2.86875c0,0 -0.26727,-4.16493 -0.41848,-4.79503c-0.41553,-2.00192 -0.48856,-5.62339 -0.48856,-5.62339l1.46717,0.0218l0.41355,5.60595z" data-paper-data="{&quot;index&quot;:null}" fill="#ffffff"/></g><path d="M240.79734,223.23214l0.32175,-0.38933" fill="none" stroke="#000000" stroke-width="0.5" stroke-linecap="round"/><path d="M240.81114,221.86757l-0.25065,0.38257" fill="none" stroke="#000000" stroke-width="0.5" stroke-linecap="round"/></g><g data-paper-data="{&quot;index&quot;:null}"><g data-paper-data="{&quot;index&quot;:null}" stroke="none" stroke-width="0" stroke-linecap="butt"><path d="M238.66608,225.9314c-1.00614,0.78291 -1.2821,-2.59323 -1.27042,-3.61791c-0.13154,-1.18418 0.52226,-3.34583 0.52226,-3.34583c0,0 0.36305,-1.51827 0.87755,-0.65549c0.2395,0.40163 0.49834,0.77615 0.70554,1.16919c0.2379,0.45129 0.40771,0.92704 0.40192,1.4963c0,0 0.14043,3.88204 -1.23685,4.95374z" data-paper-data="{&quot;index&quot;:null}" fill="#54c81c"/><path d="M237.61572,215.92783l-0.29542,-5.61342l1.45276,-0.20632c0,0 0.38341,3.60187 0.22319,5.64017c-0.0707,0.64412 0.18844,4.80955 0.18844,4.80955c0,0 0.0196,2.34986 -0.25313,2.92388c-0.34693,0.73017 -1.00917,-0.30744 -1.06729,-0.66286c0,0 0.04548,-1.36883 0.03942,-2.22455c-0.00898,-1.26496 -0.28797,-4.66644 -0.28797,-4.66644z" data-paper-data="{&quot;index&quot;:null}" fill="#ffffff"/></g><path d="M239.09013,221.99657l0.43959,0.3435" fill="none" stroke="#000000" stroke-width="0.5" stroke-linecap="round"/><path d="M239.2756,223.34856l-0.3682,-0.34574" fill="none" stroke="#000000" stroke-width="0.5" stroke-linecap="round"/></g><g data-paper-data="{&quot;index&quot;:null}"><g data-paper-data="{&quot;index&quot;:null}" stroke="none" stroke-width="0" stroke-linecap="butt"><path d="M237.87105,218.67521c0,0 -2.28924,-0.99099 -2.79084,-2.72415c-0.3792,-1.31022 -0.27207,-3.3369 -0.27207,-3.3369l5.12918,0.17669c0,0 -1.44893,2.45292 -1.78999,3.53258c-0.34106,1.07967 -0.27627,2.35178 -0.27627,2.35178z" fill="#54c81c"/><path d="M236.4012,215.7779c-1.47977,-0.30762 -1.74938,-2.41225 -1.59307,-3.16375c0.15514,-0.74585 -0.04673,-1.93715 1.92619,-3.96151c1.34559,-1.38066 1.17523,-2.57357 1.17523,-2.57357l0.86332,-0.16488c0,0 2.29234,2.49857 2.02127,4.65667c-0.2536,2.01895 -2.97046,5.50276 -4.39294,5.20703z" fill="#ffffff"/></g><path d="M237.92411,215.00596l-0.13283,0.5658" fill="none" stroke="#ffffff" stroke-width="0.25" stroke-linecap="round"/><path d="M236.63509,216.04654l0.07462,-0.52972" fill="none" stroke="#ffffff" stroke-width="0.25" stroke-linecap="round"/><path d="M235.73882,214.9904l-0.21318,0.69618" fill="none" stroke="#ffffff" stroke-width="0.25" stroke-linecap="round"/></g><g data-paper-data="{&quot;index&quot;:null}"><g data-paper-data="{&quot;index&quot;:null}" stroke="none" stroke-width="0" stroke-linecap="butt"><path d="M244.1152,216.55577c0,0 -0.48423,-1.12744 -0.9102,-1.78331c-0.42597,-0.65588 -2.42528,-2.83871 -2.42528,-2.83871c0,0 2.39354,2.24321 3.12003,2.02163c0.72659,-0.22161 0.4065,-3.10503 0.71335,-2.53666c1.6206,3.00191 -0.49793,5.13703 -0.49793,5.13703z" fill="#54c81c"/><path d="M239.54843,205.5905c0,0 2.09465,1.91166 3.38618,3.23629c1.56495,1.60506 2.27852,4.06301 1.90545,5.08121c-0.37306,1.0182 -3.21105,-0.83977 -4.02512,-2.06778c-0.88177,-1.33014 -1.26651,-6.24973 -1.26651,-6.24973z" fill="#ffffff"/></g><path d="M243.46518,213.53367l0.15207,0.88" fill="none" stroke="#ffffff" stroke-width="0.25" stroke-linecap="round"/><path d="M244.56174,213.92528l0.06913,0.58514" fill="none" stroke="#ffffff" stroke-width="0.25" stroke-linecap="round"/></g><g data-paper-data="{&quot;index&quot;:null}"><g data-paper-data="{&quot;index&quot;:null}" stroke="none" stroke-width="0" stroke-linecap="butt"><path d="M238.65064,212.574c0,0 2.19136,2.26938 3.07329,1.84662c0.895,-0.42901 1.5111,-3.72874 1.5111,-3.72874c0,0 0.82197,0.96107 0.37956,3.48922c-0.25367,1.46029 -1.77577,4.65758 -1.77577,4.65758c0,0 -1.14965,-2.12763 -2.15845,-3.33133c-0.83807,-1.00001 -1.02973,-2.93333 -1.02973,-2.93333z" fill="#54c81c"/><path d="M243.33188,210.71164c0.04952,0.15614 -0.06541,2.98843 -1.43838,3.90546c-1.23382,0.78184 -3.23107,-2.01086 -3.23107,-2.01086c0,0 -0.51603,-1.57313 -0.75082,-2.85392c-0.28209,-1.53877 0.79256,-2.97491 1.56761,-3.4445c0.77505,-0.46959 0.16193,0.41799 1.79069,1.38986c1.22718,0.73228 2.01454,2.8643 2.06199,3.01395z" fill="#ffffff"/></g><path d="M240.03238,213.94231l0.04556,0.53301" fill="none" stroke="#ffffff" stroke-width="0.25" stroke-linecap="round"/><path d="M241.48091,214.61943l-0.10597,0.51075" fill="none" stroke="#ffffff" stroke-width="0.25" stroke-linecap="round"/><path d="M242.51198,213.50154l0.13562,0.76294" fill="none" stroke="#ffffff" stroke-width="0.25" stroke-linecap="round"/></g><g><path d="M238.47037,201.9775l-0.82128,0.29939l0.03818,-3.22889l0.73072,-0.02268z" data-paper-data="{&quot;index&quot;:null}" fill="#319a2b" stroke="#ffffff" stroke-width="0" stroke-linecap="butt"/><path d="M238.58454,198.93001c-0.23631,0.7149 -0.83225,0.59699 -0.95627,0.09341c-0.29967,-1.21676 -0.16706,-3.72104 -0.16706,-3.72104l1.4416,-0.62619c0,0 -0.09738,3.58555 -0.31828,4.25382z" data-paper-data="{&quot;index&quot;:null}" fill="#ead42f" stroke="#ffffff" stroke-width="0" stroke-linecap="butt"/><path d="M238.63279,195.68977c-0.84359,0.298 -2.54059,-1.48807 -2.20087,-3.55687c0.28047,-1.70803 0.50913,-2.53674 1.67941,-3.11667c0.37014,-0.1834 1.62704,1.64262 1.46457,3.37206c-0.16247,1.72942 -0.66691,3.20392 -0.94311,3.30148z" data-paper-data="{&quot;index&quot;:null}" fill="#f0e9bb" stroke="#ffffff" stroke-width="0" stroke-linecap="butt"/><path d="M238.91205,195.03387c0,0 -0.9718,-1.43694 -1.32797,-2.50389c-0.35617,-1.06696 -0.24284,-2.86897 -0.24284,-2.86897" data-paper-data="{&quot;index&quot;:null}" fill="none" stroke="#d3c49c" stroke-width="0.25" stroke-linecap="round"/><path d="M238.78387,193.91053l-0.7235,0.47906" data-paper-data="{&quot;index&quot;:null}" fill="none" stroke="#ffffff" stroke-width="0.5" stroke-linecap="round"/><path d="M238.06183,192.65371l-0.58566,0.34648" data-paper-data="{&quot;index&quot;:null}" fill="none" stroke="#ffffff" stroke-width="0.5" stroke-linecap="round"/><path d="M237.15873,191.73363l0.6028,-0.25457" data-paper-data="{&quot;index&quot;:null}" fill="none" stroke="#ffffff" stroke-width="0.5" stroke-linecap="round"/><path d="M237.59906,190.17188l-0.46496,0.12198" data-paper-data="{&quot;index&quot;:null}" fill="none" stroke="#ffffff" stroke-width="0.5" stroke-linecap="round"/></g><g data-paper-data="{&quot;index&quot;:null}"><path d="M241.60037,207.7053c-0.36591,0.39828 -2.69739,-0.28309 -2.69739,-0.28309c-0.24658,-0.28197 -1.67704,-0.07531 -1.70209,-0.53654c-0.00974,-0.1801 0.14956,-1.14428 0.32786,-1.71279c0.1783,-0.56852 -0.05954,-0.98345 0.64221,-1.38034c0.70175,-0.39689 1.90661,-0.1482 2.06043,-0.1482c0.12177,0 0.72348,0.19835 1.07941,1.25421c0.35594,1.05586 0.59384,2.36369 0.28957,2.80676z" data-paper-data="{&quot;index&quot;:null}" fill="#319a2b" stroke="none" stroke-width="0.17188" stroke-linecap="butt"/><path d="M240.22721,207.45474c0.61263,0 1.39781,-0.03289 1.39781,-0.03289l0.22399,0.60534c0,0 -0.81357,-0.32402 -1.50188,-0.15139c-0.61138,0.03439 -1.24991,-0.3092 -1.15798,-0.46382c0.178,-0.29941 0.42542,0.04276 1.03805,0.04276z" data-paper-data="{&quot;index&quot;:null}" fill="#ead42f" stroke="none" stroke-width="0" stroke-linecap="butt"/><path d="M237.14108,206.80092c0,0 0.60465,0.11279 1.21306,0.18453c0.60841,0.07174 0.41111,0.46852 -0.19203,0.36277c-0.66335,-0.25204 -1.3616,-0.05504 -1.3616,-0.05504l0.34058,-0.49225z" data-paper-data="{&quot;index&quot;:null}" fill="#ead42f" stroke="none" stroke-width="0" stroke-linecap="butt"/><path d="M240.20853,207.57252l-0.07853,-0.38091" fill="none" stroke="#ffffff" stroke-width="0.25" stroke-linecap="round"/><path d="M241.15421,207.57675l-0.09109,-0.32829" fill="none" stroke="#ffffff" stroke-width="0.25" stroke-linecap="round"/><path d="M238.08152,206.73798l-0.03093,0.30573" fill="none" stroke="#ffffff" stroke-width="0.25" stroke-linecap="round"/><path d="M237.26448,207.06964l0.147,-0.38175" fill="none" stroke="#ffffff" stroke-width="0.25" stroke-linecap="round"/></g><g data-paper-data="{&quot;index&quot;:null}" stroke="none" stroke-linecap="butt"><path d="M239.22595,203.77487c0.17008,0.06905 0.3072,0.33949 0.39108,0.72079c0.08399,0.38126 0.11481,0.87325 0.07258,1.38519c-0.0422,0.51204 -0.14953,0.94795 -0.28883,1.23853c-0.1394,0.29062 -0.31073,0.43601 -0.48082,0.36696c-0.17021,-0.06911 -0.30722,-0.33958 -0.3912,-0.72085c-0.08388,-0.3813 -0.11481,-0.87325 -0.07258,-1.38519c0.04219,-0.51204 0.14963,-0.94798 0.28893,-1.23856c0.1393,-0.29058 0.31062,-0.43597 0.48084,-0.36686z" fill="#eb3d66" stroke-width="0.01872"/><path d="M239.11386,204.74184c0.20905,0.00794 0.3635,0.4098 0.34498,0.89758c-0.01852,0.48778 -0.203,0.87677 -0.41205,0.86883c-0.20905,-0.00794 -0.3635,-0.4098 -0.34498,-0.89758c0.01852,-0.48778 0.203,-0.87677 0.41205,-0.86883z" fill="#492116" stroke-width="0"/><path d="M239.33425,203.97858c0.07287,0.00749 0.14677,0.09569 0.20751,0.23227c0.06069,0.1365 0.10811,0.32141 0.12783,0.52204c0.01966,0.20055 0.00797,0.3793 -0.02692,0.50605c-0.03488,0.12675 -0.09285,0.20152 -0.16563,0.19397c-0.07281,-0.00742 -0.14676,-0.0957 -0.2075,-0.23228c-0.06068,-0.13652 -0.10813,-0.3213 -0.12777,-0.52198c-0.0197,-0.20063 -0.00801,-0.37938 0.02688,-0.50613c0.03481,-0.1267 0.0928,-0.20139 0.16562,-0.19397z" fill="#ffffff" stroke-width="0.01896"/></g><g><path d="M240.76359,195.17267c4.15253,1.85575 2.88198,4.80285 2.96845,5.05395c0.01994,0.2677 -0.1151,0.51941 -0.204,0.76451c-0.37032,0.87462 -0.82637,1.70912 -1.27395,2.5464c-0.16465,0.3536 -0.517,0.57186 -0.87844,0.68313c-0.38982,0.11323 -0.79864,-0.00459 -1.19047,-0.05092c-0.60267,-0.09336 -1.18974,-0.26939 -1.73751,-0.53697c-0.69073,-0.29327 -1.52155,-0.75878 -1.95047,-1.41935c-0.32966,-0.36646 -0.27011,-0.3287 -0.62107,-0.68311c-0.64254,-0.84352 -0.86799,-1.94733 -0.76229,-2.98991c0.05856,-0.62524 0.22434,-1.25166 0.53907,-1.79837c0.14639,-0.22415 1.66843,-3.10766 5.11065,-1.56935z" data-paper-data="{&quot;index&quot;:null}" fill="#f0e9bb" stroke="none" stroke-width="0.17188" stroke-linecap="butt"/><path d="M237.75535,192.83899c0.33765,0.61571 -2.6925,2.49892 -2.20356,2.17895c-0.40214,-0.57759 -0.53233,-1.41846 -0.43512,-1.984c0.00888,-0.05179 0.12066,-0.15694 0.12066,-0.15694c-0.0932,-0.01493 0.06218,-0.06925 0.10892,-0.15355c0.03672,-0.06634 0.02661,-0.24492 0.02661,-0.24492c-0.05035,0.0107 0.20091,-0.01225 0.30694,-0.05253c0.08759,-0.03323 0.076,-0.08411 0.14303,-0.09905c0.47097,-0.1062 1.13784,0.02574 1.93256,0.51203z" data-paper-data="{&quot;index&quot;:null}" fill="#ed3e67" stroke="none" stroke-width="0.17188" stroke-linecap="butt"/><path d="M243.63366,200.04152c-0.01353,-0.10546 -0.09359,-0.20054 -0.2047,-0.35069c-0.08344,-0.11294 -0.2452,-0.33269 -0.28757,-0.42927c-0.10639,-0.24245 -0.96923,-0.64061 -1.93963,-0.6324c-0.9704,0.0082 -2.00683,1.05951 -2.10058,0.77483c-0.03563,-0.10825 -0.36029,-0.84681 -0.38422,-0.59827c-0.00401,0.04108 -0.44177,0.1325 -0.46205,0.15225c-0.05464,0.05291 -0.35787,-1.30785 -0.61222,-1.68847c-0.25435,-0.38061 -1.11993,-0.96243 -1.1923,-1.01871c-0.10866,-0.08465 -0.22593,-0.01769 -0.28697,0.10056c-0.07739,0.14951 -0.98646,2.01186 -0.99359,2.9746c-0.00713,0.96273 0.92352,2.62489 0.84144,2.23655c-0.03697,-0.17529 -1.10478,1.09709 -1.44617,1.11649c-0.24372,0.01407 -0.92194,-2.2866 0.16514,-4.82487c0.51654,-1.20611 1.50776,-2.59917 1.73572,-2.87845l0.4453,-0.54567c0.6421,-0.59493 1.38677,-1.0501 2.24986,-1.34392c0.05497,-0.01873 0.91054,-0.42319 2.07697,-0.32461c0.73662,0.06221 1.82658,0.49312 1.91142,0.52861c0.49751,0.20818 1.47497,0.59894 2.27282,1.17514c0.50751,0.36651 0.88609,0.86227 1.20349,1.25901c0.05709,0.07118 -1.15779,0.68731 -1.10129,0.75187c0.02749,0.03123 -0.58233,0.84179 -0.61141,0.93164l-0.19433,0.59998c-0.19641,0.60655 0.07456,1.43261 0.13656,1.5513c0.08475,0.16257 0.39594,0.67971 0.5452,0.74919l0.50284,0.23468c0.06898,0.03195 0.86859,-0.14467 0.8982,-0.08086c0.1043,0.22492 -0.36238,1.06873 -0.47206,1.22686l-0.57711,0.83234c-0.18595,0.26806 -0.27319,0.42689 -0.63301,0.75075c-0.49352,0.44456 -0.98911,0.88719 -1.60662,1.22051c-0.499,0.26945 -2.55399,0.74969 -2.46093,0.61547l0.78993,-1.14251l0.97882,-1.67416l0.8131,-2.24979z" data-paper-data="{&quot;index&quot;:null}" fill="#54c81c" stroke="none" stroke-width="0.17188" stroke-linecap="butt"/><path d="M247.97251,200.20979c-1.08878,-0.08761 -1.45883,-2.60542 -1.45883,-2.60542c0.15536,-0.35786 1.34807,-0.70907 2.30111,-0.17545c0.72835,0.40799 1.11556,0.87927 1.22739,1.30518c0.01596,0.06079 -0.03025,0.07529 -0.02048,0.16095c0.01201,0.10356 0.09892,0.31514 0.08647,0.26982c0,0 -0.14928,0.07547 -0.18761,0.13578c-0.0488,0.07672 -0.0274,0.22652 -0.07871,0.15897c0,0 -0.0383,0.1386 -0.07665,0.1699c-0.41815,0.34235 -1.15509,0.63151 -1.79267,0.5803z" data-paper-data="{&quot;index&quot;:null}" fill="#ed3e67" stroke="none" stroke-width="0.17188" stroke-linecap="butt"/><path d="M245.50706,197.92647c0.06338,0.10267 0.20772,-0.48333 0.56168,-0.96271c0.37791,-0.51193 0.97953,-0.91758 1.48118,-0.7328c0.28963,0.10678 0.50382,0.30692 0.71272,0.47868c0.43097,0.35426 0.68984,0.7045 0.48818,0.69612c-0.34224,-0.0141 -0.80993,0.03345 -1.13844,0.10202c-0.46849,0.0977 -0.78318,0.19169 -0.77411,0.21882l0.58399,1.74487l0.56776,0.77684c0.09814,0.12044 -0.33508,0.19264 -0.78535,0.18439c-0.38872,-0.00695 -0.70667,0.09769 -0.8377,0.0825c-0.58376,-0.06676 -0.41189,-0.27772 -0.87372,-0.86606c-0.26851,-0.34215 -0.08126,-1.87721 0.01378,-1.72266z" data-paper-data="{&quot;index&quot;:null}" fill="#54c81c" stroke="none" stroke-width="0.17188" stroke-linecap="butt"/><path d="M244.81486,197.58629c0.55554,-1.20624 1.65098,-2.37635 2.31213,-1.61786c0.27733,0.318 -0.36004,0.31562 -0.94046,0.91926c-0.36939,0.38416 -0.70466,1.07427 -0.80115,2.05427c-0.00997,0.10284 0.06529,0.34457 0.17398,0.6624c0.16642,0.48718 1.55628,0.86273 1.30079,0.8959l-0.99779,0.12918l-0.51537,-0.34583c-0.36712,-0.12938 -1.04041,-1.59353 -0.53213,-2.6973z" data-paper-data="{&quot;index&quot;:null}" fill="#ead32e" stroke="none" stroke-width="0.17188" stroke-linecap="butt"/><path d="M237.74484,193.80502c-0.18257,0.22071 -0.64962,0.47404 -0.64962,0.47404c0.01361,-0.14051 0.21845,-0.29178 0.26333,-0.40388c0.10372,-0.25919 0.55616,-0.80566 1.20067,-1.03702l0.36652,-0.13148c0.18046,-0.06482 0.70328,0.01572 0.76925,0.11395c0.04684,0.19239 -0.66001,0.25474 -1.26378,0.6065c-0.28942,0.16863 -0.68637,0.3779 -0.68637,0.3779z" data-paper-data="{&quot;index&quot;:null}" fill="#ead32e" stroke="none" stroke-width="0.17188" stroke-linecap="butt"/><path d="M237.63534,193.66868c-0.11147,0.10627 -0.58822,0.66171 -0.81297,0.94026l-0.88583,1.09776c-0.06516,0.08077 -0.53801,-0.73593 -0.36701,-0.99422c0.01589,-0.37002 0.23614,-0.59789 0.40018,-0.86455c0.2703,-0.2522 0.70845,-0.56434 0.95294,-0.6616c0.19692,-0.07832 0.22605,-0.58644 0.42271,-0.71683c0.29594,-0.19647 1.27119,0.26314 1.27119,0.26314z" data-paper-data="{&quot;index&quot;:null}" fill="#54c81c" stroke="none" stroke-width="0.17188" stroke-linecap="butt"/><path d="M243.10248,199.97489c0.13429,0.73391 -0.59217,1.48596 -1.19486,1.62826c-0.60269,0.1423 -1.20012,-0.33728 -1.33442,-1.07119c-0.13429,-0.73391 0.24542,-1.44422 0.84811,-1.58652c0.60269,-0.1423 1.54687,0.29555 1.68117,1.02946z" fill="#000000" stroke="none" stroke-width="0" stroke-linecap="butt"/><path d="M235.93563,196.91563c0.62787,-0.40303 1.50154,-0.01028 1.80911,0.5272c0.30758,0.53747 0.04793,1.29991 -0.57993,1.70294c-0.62787,0.40303 -1.38621,0.29404 -1.69379,-0.24343c-0.30758,-0.53747 -0.16326,-1.58367 0.46461,-1.98671z" data-paper-data="{&quot;index&quot;:null}" fill="#000000" stroke="none" stroke-width="0" stroke-linecap="butt"/><path d="M240.21402,203.023l-0.59192,0.16557" fill="none" stroke="#000000" stroke-width="0.25" stroke-linecap="round"/><path d="M238.47859,202.98965l0.57692,0.17778" fill="none" stroke="#000000" stroke-width="0.25" stroke-linecap="round"/><path d="M237.35129,202.57294l0.55038,0.23893" fill="none" stroke="#000000" stroke-width="0.25" stroke-linecap="round"/><path d="M236.47905,201.90354l0.43612,0.33469" fill="none" stroke="#000000" stroke-width="0.25" stroke-linecap="round"/><path d="M236.0453,201.06114l0.19957,0.37736" fill="none" stroke="#000000" stroke-width="0.25" stroke-linecap="round"/><path d="M241.00986,202.67584l-0.43856,0.00263l-0.1101,-0.5235" fill="none" stroke="#000000" stroke-width="0.25" stroke-linecap="round"/><path d="M236.37863,200.31364l-0.38303,0.37345l-0.36277,-0.24645" data-paper-data="{&quot;index&quot;:null}" fill="none" stroke="#000000" stroke-width="0.25" stroke-linecap="round"/><path d="M242.52021,200.01027l-1.41884,0.57666" fill="none" stroke="#ffffff" stroke-width="0.25" stroke-linecap="round"/><path d="M241.66434,199.5315l0.36119,1.53949" fill="none" stroke="#ffffff" stroke-width="0.25" stroke-linecap="round"/><path d="M242.5961,200.35966c-0.20742,-0.01613 -0.3625,-0.19736 -0.34637,-0.40478c0.01613,-0.20742 0.19736,-0.3625 0.40478,-0.34637c0.20742,0.01613 0.3625,0.19736 0.34637,0.40478c-0.01613,0.20742 -0.19736,0.3625 -0.40478,0.34637z" fill="#ffffff" stroke="none" stroke-width="0" stroke-linecap="butt"/><path d="M240.9724,200.92038c-0.20742,-0.01613 -0.3625,-0.19736 -0.34637,-0.40478c0.01613,-0.20742 0.19736,-0.3625 0.40478,-0.34637c0.20741,0.01613 0.3625,0.19736 0.34637,0.40478c-0.01613,0.20741 -0.19736,0.3625 -0.40478,0.34637z" fill="#ffffff" stroke="none" stroke-width="0" stroke-linecap="butt"/><path d="M241.61426,199.73369c-0.20742,-0.01613 -0.3625,-0.19736 -0.34637,-0.40478c0.01613,-0.20742 0.19736,-0.3625 0.40478,-0.34637c0.20742,0.01613 0.36251,0.19736 0.34638,0.40478c-0.01613,0.20741 -0.19737,0.3625 -0.40479,0.34637z" fill="#ffffff" stroke="none" stroke-width="0" stroke-linecap="butt"/><path d="M241.95952,201.47804c-0.20742,-0.01613 -0.3625,-0.19736 -0.34637,-0.40478c0.01613,-0.20742 0.19736,-0.3625 0.40478,-0.34637c0.20741,0.01613 0.3625,0.19736 0.34637,0.40478c-0.01613,0.20741 -0.19736,0.3625 -0.40478,0.34637z" fill="#ffffff" stroke="none" stroke-width="0" stroke-linecap="butt"/><path d="M237.29949,197.81766l-1.41884,0.57666" fill="none" stroke="#ffffff" stroke-width="0.25" stroke-linecap="round"/><path d="M236.44362,197.33889l0.36119,1.53949" fill="none" stroke="#ffffff" stroke-width="0.25" stroke-linecap="round"/><path d="M237.37538,198.16705c-0.20742,-0.01613 -0.3625,-0.19736 -0.34637,-0.40478c0.01613,-0.20742 0.19736,-0.3625 0.40478,-0.34637c0.20742,0.01613 0.3625,0.19736 0.34637,0.40478c-0.01613,0.20742 -0.19736,0.3625 -0.40478,0.34637z" fill="#ffffff" stroke="none" stroke-width="0" stroke-linecap="butt"/><path d="M235.75168,198.72777c-0.20742,-0.01613 -0.3625,-0.19736 -0.34637,-0.40478c0.01613,-0.20742 0.19736,-0.3625 0.40478,-0.34637c0.20741,0.01613 0.3625,0.19736 0.34637,0.40478c-0.01613,0.20741 -0.19736,0.3625 -0.40478,0.34637z" fill="#ffffff" stroke="none" stroke-width="0" stroke-linecap="butt"/><path d="M236.39354,197.54108c-0.20742,-0.01613 -0.3625,-0.19736 -0.34637,-0.40478c0.01613,-0.20742 0.19736,-0.3625 0.40478,-0.34637c0.20742,0.01613 0.36251,0.19736 0.34638,0.40478c-0.01613,0.20741 -0.19737,0.3625 -0.40479,0.34637z" fill="#ffffff" stroke="none" stroke-width="0" stroke-linecap="butt"/><path d="M236.7388,199.28544c-0.20742,-0.01613 -0.3625,-0.19736 -0.34637,-0.40478c0.01613,-0.20742 0.19736,-0.3625 0.40478,-0.34637c0.20741,0.01613 0.3625,0.19736 0.34637,0.40478c-0.01613,0.20741 -0.19736,0.3625 -0.40478,0.34637z" fill="#ffffff" stroke="none" stroke-width="0" stroke-linecap="butt"/></g><g><path d="M241.76898,194.41841c0,0 0.29978,-1.90693 0.11691,-3.15973c-0.18287,-1.2528 -1.2108,-1.92193 -1.2108,-1.92193l0.40886,-0.63121c0,0 1.3409,1.14187 1.53713,2.4592c0.19623,1.31733 -0.19673,3.40706 -0.19673,3.40706z" fill="#000000" stroke="none" stroke-width="0" stroke-linecap="butt"/><path d="M238.17536,189.42707l-2.77481,-3.25197l4.54199,-0.14248l1.6775,3.2678z" fill="#ea035a" stroke="none" stroke-width="0" stroke-linecap="butt"/><path d="M241.45193,189.30384l-5.91724,-3.16918" fill="none" stroke="#000000" stroke-width="0.25" stroke-linecap="round"/><path d="M239.99748,185.92199l0.10907,2.58853l-1.95742,0.90783" fill="none" stroke="#000000" stroke-width="0.25" stroke-linecap="round"/></g><g data-paper-data="{&quot;index&quot;:null}"><path d="M240.89323,199.90626l0.73072,0.02269l-0.04514,5.75269c0,0 -0.5304,-0.20964 -0.66368,-0.47871c-0.1068,-0.21561 -0.07427,-1.01115 -0.07427,-1.01115z" data-paper-data="{&quot;index&quot;:null}" fill="#319a2b" stroke="#ffffff" stroke-width="0" stroke-linecap="butt"/><path d="M240.40839,195.55715l1.44161,0.62618c0,0 0.13261,2.50429 -0.16706,3.72105c-0.12402,0.50358 -0.71995,0.62148 -0.95626,-0.09342c-0.2209,-0.66826 -0.31828,-4.25381 -0.31828,-4.25381z" data-paper-data="{&quot;index&quot;:null}" fill="#ead42f" stroke="#ffffff" stroke-width="0" stroke-linecap="butt"/><path d="M239.73532,193.26926c-0.16246,-1.72943 1.09444,-3.55546 1.46457,-3.37205c1.17028,0.57993 1.39893,1.40863 1.67941,3.11666c0.33972,2.0688 -1.35728,3.85488 -2.20088,3.55688c-0.2762,-0.09756 -0.78063,-1.57206 -0.9431,-3.30149z" data-paper-data="{&quot;index&quot;:null}" fill="#f0e9bb" stroke="#ffffff" stroke-width="0" stroke-linecap="butt"/><path d="M241.96997,190.54197c0,0 0.11333,1.80202 -0.24284,2.86898c-0.35617,1.06696 -1.32797,2.50389 -1.32797,2.50389" data-paper-data="{&quot;index&quot;:null}" fill="none" stroke="#d3c49c" stroke-width="0.25" stroke-linecap="round"/><path d="M241.25085,195.27054l-0.72351,-0.47907" data-paper-data="{&quot;index&quot;:null}" fill="none" stroke="#ffffff" stroke-width="0.5" stroke-linecap="round"/><path d="M241.24938,193.53463l0.58566,0.34649" data-paper-data="{&quot;index&quot;:null}" fill="none" stroke="#ffffff" stroke-width="0.5" stroke-linecap="round"/><path d="M242.15249,192.61459l-0.6028,-0.25456" data-paper-data="{&quot;index&quot;:null}" fill="none" stroke="#ffffff" stroke-width="0.5" stroke-linecap="round"/><path d="M241.71215,191.05283l0.46496,0.12198" data-paper-data="{&quot;index&quot;:null}" fill="none" stroke="#ffffff" stroke-width="0.5" stroke-linecap="round"/></g></g></g></svg>