<svg version="1.1" xmlns="http://www.w3.org/2000/svg" xmlns:xlink="http://www.w3.org/1999/xlink" width="37.99865" height="43.76015" viewBox="0,0,37.99865,43.76015"><defs><radialGradient cx="256.14732" cy="183.59013" r="15.77076" gradientUnits="userSpaceOnUse" id="color-1"><stop offset="0" stop-color="#fadd00" stop-opacity="0.50196"/><stop offset="1" stop-color="#fbdd00"/></radialGradient></defs><g transform="translate(-228.81798,-162.50849)"><g data-paper-data="{&quot;isPaintingLayer&quot;:true}" fill-rule="nonzero" stroke-miterlimit="10" stroke-dasharray="" stroke-dashoffset="0" style="mix-blend-mode: normal"><g data-paper-data="{&quot;index&quot;:null}" stroke="none" stroke-width="0" stroke-linecap="butt" stroke-linejoin="miter"><g data-paper-data="{&quot;index&quot;:null}"><g><path d="M246.79567,191.61886c0,0 1.54305,0.37606 1.41296,1.71414c-0.01209,0.12433 -0.28799,0.09695 -0.28799,0.09695l0.23022,0.29922l-0.27369,0.73634l-0.21822,-0.11241c0,0 -0.64258,0.70778 -0.80869,1.0991c-0.16564,0.39022 -0.1865,1.24555 -0.1865,1.24555l0.08158,0.19033l-0.33693,0.71637l-0.16323,-0.07345l-0.12985,0.19018c0,0 0.24133,0.17126 -0.13103,0.4673c-0.11964,0.09513 -0.45449,0.46622 -0.45449,0.46622l-0.13577,-0.11716l-0.15993,0.06588c0,0 0.11362,0.24843 -0.01306,0.29978c-0.15185,0.06156 -0.49782,0.29469 -0.75875,0.36284c-0.10108,0.0264 -0.0004,-0.11191 -0.10007,-0.09398c-0.06493,0.0117 -0.08405,0.04505 -0.1521,0.05808c-0.11027,0.02113 0.0367,0.08502 -0.03759,0.12631c-0.06077,0.03377 -0.2574,0.05263 -0.42532,0.06004c-0.16792,0.0074 -0.33723,-0.03733 -0.33723,-0.03733l-0.05802,-0.16504l-0.24721,0.07978c0,0 -0.32225,-0.15333 -0.44144,-0.3333c-0.11919,-0.17997 -0.11569,-0.5079 -0.11569,-0.5079c0,0 0.61147,0.19448 0.99026,0.17034c3.15192,-0.93797 2.56396,-2.576 2.9215,-4.454c0.16501,-0.86674 0.5631,-1.21562 0.5624,-1.78195c-0.00058,-0.46485 -0.22618,-0.76823 -0.22618,-0.76823z" data-paper-data="{&quot;index&quot;:null}" fill="#a87643"/><path d="M244.00491,193.70503c-0.21009,-0.99926 -0.92687,-4.40754 -0.71279,-4.63358c0.28718,-0.28068 1.99558,-0.87191 1.99558,-0.87191c0,0 0.21359,0.66021 0.30009,1.05908c0.0865,0.39886 0.41166,1.6122 0.41166,1.6122c0,0 1.12342,0.82678 1.1149,1.51553c-0.01145,0.92355 -1.52994,3.52123 -1.52994,3.52123c0,0 -1.21259,-0.45749 -1.57948,-2.20254z" data-paper-data="{&quot;index&quot;:null}" fill="#f3e2e2"/><path d="M243.76333,188.29391c0.2447,0.14672 -0.42279,0.73177 -0.42279,0.73177c0,0 -0.11937,0.2341 -0.06755,0.54096c0.0853,0.50485 0.29142,1.24388 0.39469,2.02672c0.11759,0.89134 0.3042,1.91059 0.47051,2.41048c0.20521,0.61671 1.10573,1.7549 1.46963,1.75154c0.03562,-0.00032 0.0651,-0.30286 0.06502,-0.50182c0.04271,-0.52802 -0.03899,-0.375 0.07897,-1.07858c0.10654,-0.56468 0.75734,-0.09994 0.75734,-0.09994c0,0 0.06484,3.22261 -1.64839,4.28397c-1.29149,0.80007 -2.29557,0.14955 -2.304,0.14593c-0.01507,-0.0065 -0.43723,-0.97622 -0.46832,-1.67965c-0.00864,-0.19555 0.65445,-1.15292 0.64923,-2.02167c-0.00486,-0.80838 0.04661,-2.17506 -0.06115,-3.06301c-0.193,-1.59051 -0.65132,-2.81063 -0.4574,-2.94781c0.6473,-0.45794 1.39213,-0.59011 1.54428,-0.49887z" data-paper-data="{&quot;index&quot;:null}" fill="#fc6293"/><path d="M242.73487,195.00908c0,0 -0.06038,-2.15199 -0.08852,-2.77967c-0.03896,-0.86888 -0.2485,-1.67712 -0.5392,-3.12454c-0.05057,-0.25184 0.31025,-0.48437 0.31025,-0.48437l0.12545,0.05418c0,0 -0.30753,0.24475 -0.29071,0.44473c0.03343,0.39751 0.34236,1.83336 0.5329,3.01038c0.14443,0.89217 0.09807,2.24871 0.09807,2.24871z" data-paper-data="{&quot;index&quot;:null}" fill="#766565"/><path d="M244.62992,192.3484l-0.29625,-1.17978l0.6221,-0.14042l0.24204,1.15636z" data-paper-data="{&quot;index&quot;:null}" fill="#fffff6"/><path d="M244.35779,190.5477l-0.1583,-1.00462l0.55428,-0.1411l0.20344,0.9418z" data-paper-data="{&quot;index&quot;:null}" fill="#fffff6"/><path d="M242.43019,190.49654l-0.23749,-0.88506c0,0 0.65149,0.13506 1.07234,0.12004c0.42084,-0.01502 0.92245,-0.19126 0.92245,-0.19126l0.17251,1.00069c0,0 -0.71839,0.14956 -1.20081,0.11198c-0.48243,-0.03756 -0.72902,-0.15637 -0.72902,-0.15637z" data-paper-data="{&quot;index&quot;:null}" fill="#754c86"/><path d="M243.68348,192.54715c-0.40348,0.04306 -1.01219,0.00134 -1.01219,0.00134c0,0 -0.0255,-0.39533 -0.04908,-0.64774c-0.02359,-0.25241 -0.07928,-0.72616 -0.07928,-0.72616c0,0 0.65645,0.10119 1.04276,0.09759c0.38633,-0.00361 0.79672,-0.10679 0.79672,-0.10679l0.27898,1.19194c0,0 -0.57446,0.14674 -0.97794,0.18981z" data-paper-data="{&quot;index&quot;:null}" fill="#754c86"/><path d="M245.10984,188.28444l-1.64025,-0.00046c0,0 0.08323,-0.06145 0.43399,-0.0899c0.35079,-0.02846 0.67561,-0.0884 0.80673,-0.09261c0.21665,-0.0069 0.56105,0.10942 0.56105,0.10942z" data-paper-data="{&quot;index&quot;:null}" fill="#ae8484"/><path d="M242.60228,188.83241c-0.03761,-0.19754 0.32589,-0.39432 1.16677,-0.55451c0.84088,-0.16018 1.32586,0.01499 1.32586,0.01499c0,0 -0.64337,0.2602 -0.98089,0.37799c-0.68672,0.25068 -0.57704,0.29388 -0.95659,0.34761c-0.37954,0.05373 -0.52356,-0.03006 -0.55155,-0.17703z" data-paper-data="{&quot;index&quot;:null}" fill="#532c31"/></g><path d="M243.64961,188.23998c0,0 0.00508,-0.73641 0.25936,-0.98792c0.25429,-0.25149 0.61158,-0.40076 0.83685,-0.09631c0.22525,0.30444 -0.16947,0.98561 -0.16947,0.98561z" fill="#f3e2e2"/></g><g data-paper-data="{&quot;index&quot;:null}"><path d="M243.82074,183.1475l0.34781,3.44577l0.09485,2.09946l-1.14448,0.39343l-0.20519,-1.91806l-0.32861,-3.73273z" data-paper-data="{&quot;index&quot;:null}" fill="#8e5173"/><path d="M244.11427,186.09996l0.05426,0.49329l0.09485,2.09946l-1.14448,0.39344l-0.20519,-1.91806l-0.05147,-0.76023z" data-paper-data="{&quot;index&quot;:null}" fill="#c5c0b5"/><path d="M242.87887,186.67766l-0.02722,-0.27373l1.25444,-0.3036l0.04171,0.25603z" fill="#af2753"/><path d="M242.92691,187.16074l-0.02722,-0.27373l1.25444,-0.30361l0.04171,0.25602z" fill="#af2753"/></g></g><path d="M251.89924,202.94762c-2.73652,1.42817 -5.37878,-9.07837 -5.37878,-9.07837c0,0 6.63049,-3.50766 10.11314,-11.00375c3.70291,-7.9702 4.28462,-19.93923 4.75383,-19.27017c8.75016,12.47712 7.83383,27.37603 -9.4882,39.35229z" data-paper-data="{&quot;index&quot;:null}" fill="url(#color-1)" stroke="none" stroke-width="NaN" stroke-linecap="butt" stroke-linejoin="miter"/><g data-paper-data="{&quot;index&quot;:null}" stroke-width="0" stroke-linecap="butt" stroke-linejoin="miter"><g data-paper-data="{&quot;index&quot;:null}"><path d="M255.0446,170.48641c-0.33159,1.01045 -1.42255,1.55979 -2.43672,1.22698c-1.01416,-0.3328 -1.56751,-1.42172 -1.23592,-2.43217c0.33159,-1.01044 1.42253,-1.55979 2.4367,-1.22698c1.01416,0.3328 1.56753,1.42173 1.23594,2.43218z" fill="#e0cb17" stroke="none"/><path d="M252.70661,171.6397c-0.62657,-0.20561 -0.96842,-0.87835 -0.76356,-1.5026c0.20486,-0.62427 0.87883,-0.96364 1.5054,-0.75803c0.62657,0.20561 0.96842,0.87835 0.76356,1.5026c-0.20485,0.62425 -0.87883,0.96364 -1.5054,0.75803z" fill="#e0cb17" stroke="#000000"/><path d="M253.4002,174.49891c-0.64947,0.87457 -2.77795,1.90815 -2.77795,1.90815c0,0 -0.65163,-2.28454 0.09809,-3.46156c0.72207,-1.13357 0.93096,-1.27869 0.93096,-1.27869l1.99372,0.6699c0,0 0.40464,1.28765 -0.24482,2.16221z" fill="#e8edf4" stroke="#000000"/><path d="M252.54658,172.2132c-0.55423,-0.1846 -1.1303,-0.74586 -1.1303,-0.74586l0.42101,-0.37745c0,0 0.50268,0.51506 0.94221,0.63219c0.43954,0.11715 1.16281,-0.0712 1.16281,-0.0712l-0.00551,0.71537c0,0 -0.90516,0.00854 -1.39022,-0.15302z" fill="#dbded5" stroke="#000000"/></g><g data-paper-data="{&quot;index&quot;:null}" stroke="none"><path d="M245.62129,173.88948c0.19116,0.06273 0.24056,0.43522 0.11036,0.832c-0.13021,0.39676 -0.39073,0.66756 -0.58188,0.60483c-0.19116,-0.06273 -0.24055,-0.43522 -0.11035,-0.832c0.13021,-0.39677 0.39071,-0.66757 0.58186,-0.60484z" fill="#000000"/><path d="M242.64121,178.46324c0.19911,0.06534 0.26784,2.34792 0.26784,2.34792c0,0 -1.10158,-0.01134 -1.3007,-0.07668c-0.19911,-0.06533 -0.15709,-1.3224 -0.0998,-1.49698c0.05729,-0.17458 0.93354,-0.83957 1.13266,-0.77423z" fill="#807d5a"/><path d="M244.99642,175.03439l0.00129,-0.3285l6.46332,-4.08613l0.07783,0.1847z" fill="#6e6e73"/><path d="M250.77507,170.92518l0.21668,0.41064l-1.53959,0.92719l-0.18783,-0.40118z" fill="#ddcb1e"/></g></g><g data-paper-data="{&quot;index&quot;:null}" stroke-width="0" stroke-linecap="butt" stroke-linejoin="miter"><g data-paper-data="{&quot;index&quot;:null}"><path d="M234.33416,167.32727c-1.301,-0.42693 -2.01085,-1.82384 -1.58549,-3.12007c0.42538,-1.29624 1.82489,-2.00094 3.1259,-1.57401c1.30102,0.42694 2.01085,1.82385 1.58549,3.12008c-0.42537,1.29624 -1.82488,2.00093 -3.12589,1.574z" fill="#e0cb17" stroke="none"/><path d="M234.28818,167.17608c-0.80378,-0.26377 -1.24233,-1.12678 -0.97953,-1.9276c0.2628,-0.80082 1.12742,-1.23618 1.93118,-0.97242c0.80376,0.26377 1.24231,1.12677 0.97951,1.92759c-0.26279,0.80081 -1.12741,1.23619 -1.93117,0.97243z" fill="#e0cb17" stroke="#000000"/><path d="M231.39813,169.60363c-0.00642,-1.39743 1.39049,-2.42051 1.39049,-2.42051l2.56951,0.82313c0,0 0.10556,0.30875 -0.00988,2.02902c-0.11986,1.78618 -2.52972,3.65173 -2.52972,3.65173c0,0 -1.41397,-2.68596 -1.4204,-4.08338z" fill="#e8edf4" stroke="#000000"/><path d="M234.01758,167.8904c-0.62406,-0.20173 -1.55296,-0.89855 -1.55296,-0.89855l0.53804,-0.74347c0,0 0.60426,0.74441 1.14751,0.95744c0.54326,0.21303 1.45421,0.06284 1.45421,0.06284l0.14817,0.71006c0,0 -1.02193,0.14217 -1.73497,-0.08834z" fill="#dbded5" stroke="#000000"/></g><g data-paper-data="{&quot;index&quot;:null}" stroke="none"><path d="M237.90176,176.86607c0.32778,-0.33889 1.37669,-2.5904 2.59116,-2.15102c0.1885,0.06819 1.2531,1.78343 1.14965,2.85104c-0.14073,1.45226 -1.50735,2.36047 -1.50735,2.36047l-2.95398,-0.98978c0,0 0.39272,-1.73183 0.7205,-2.07071z" fill="#e4dcaa"/><path d="M239.15371,175.66239c0.16703,-0.50901 0.50122,-0.85639 0.74643,-0.77592c0.24523,0.08047 0.30861,0.55832 0.14158,1.06732c-0.16702,0.509 -0.50123,0.85638 -0.74644,0.77591c-0.24522,-0.08046 -0.30859,-0.55831 -0.14156,-1.06731z" fill="#000000"/><path d="M236.64498,181.05958c0.12417,-0.85124 0.53751,-2.13756 0.53751,-2.13756c0,0 0.64577,-0.15144 1.02548,-0.13994c0.3797,0.01149 0.96906,0.15066 0.96906,0.15066l0.92512,1.12962c0,0 -0.73548,2.9032 -0.84254,3.2708c-0.21563,0.74032 -1.75139,0.84086 -1.75139,0.84086l-0.9713,-0.82677c0,0 -0.01615,-1.43645 0.10802,-2.28769z" fill="#dfcc17"/><path d="M237.44188,184.10093c0,0 1.80599,-2.30659 2.06142,-2.22277c0.25544,0.08382 0.65551,1.43707 0.58201,1.66103c-0.07348,0.22396 -0.98556,1.55497 -1.24099,1.47115c-0.25544,-0.08382 -1.40245,-0.90939 -1.40245,-0.90939z" fill="#807d5a"/><path d="M236.12978,167.20051l0.22082,-0.13171l3.57341,9.13534l-0.24834,0.34046z" fill="#6e6e73"/><path d="M237.67661,170.02206l-0.49905,0.27181l-0.88629,-2.12839l0.53605,-0.25966z" fill="#ddcb1e"/></g></g><path d="M241.51065,182.11291c0,0 -2.08803,0.39853 -2.85835,0.10748c-0.83706,-0.31628 -2.46949,-1.82046 -2.46949,-1.82046l2.70222,0.90186l1.41106,0.26451z" data-paper-data="{&quot;index&quot;:null}" fill="#f79db4" stroke="none" stroke-width="0" stroke-linecap="butt" stroke-linejoin="miter"/><g data-paper-data="{&quot;index&quot;:null}" stroke="none" stroke-width="0" stroke-linecap="butt" stroke-linejoin="miter"><path d="M235.58701,184.73399c0,0 -0.08891,-0.78223 0.23943,-0.971c0.32832,-0.18878 0.59596,0.09108 0.72825,0.42336c0.13228,0.33231 -0.15795,1.00912 -0.15795,1.00912z" fill="#fc6293"/><g><path d="M232.24225,186.6521c0,0 -0.37966,0.11713 -0.66881,0.5109c-0.35228,0.47974 -0.2314,1.02274 -0.62971,1.86007c-0.86303,1.81427 -2.37874,2.83798 -0.28882,5.59052c0.30615,0.25569 0.94537,0.47049 0.94537,0.47049c0,0 -0.2007,0.28023 -0.41351,0.35879c-0.2128,0.07856 -0.58122,0.00846 -0.58122,0.00846l-0.16006,-0.22115l-0.15168,0.1039c0,0 -0.17133,-0.06719 -0.3091,-0.17775c-0.13776,-0.11056 -0.29276,-0.24867 -0.32331,-0.31504c-0.03735,-0.08115 0.12695,-0.04406 0.04657,-0.13043c-0.04959,-0.05332 -0.04509,-0.09346 -0.09288,-0.14368c-0.07338,-0.07711 -0.07391,0.10268 -0.14322,0.01753c-0.1789,-0.21983 -0.32747,-0.63231 -0.41799,-0.7788c-0.07551,-0.1222 0.17508,-0.26227 0.17508,-0.26227l-0.09469,-0.15516l-0.18786,0.01503c0,0 -0.05347,-0.52258 -0.09585,-0.67751c-0.13185,-0.48226 0.17908,-0.47757 0.17908,-0.47757l0.00801,-0.2419l-0.184,-0.03908l0.15919,-0.81661l0.18735,-0.11069c0,0 0.51345,-0.73815 0.61535,-1.17185c0.10219,-0.43494 -0.00311,-1.43406 -0.00311,-1.43406l-0.2548,-0.04019l0.2252,-0.79425l0.381,-0.11072c0,0 -0.25089,-0.14813 -0.18395,-0.26104c0.72062,-1.21526 2.26241,-0.57591 2.26241,-0.57591z" data-paper-data="{&quot;index&quot;:null}" fill="#a87643"/><path d="M233.31302,190.1538c-1.39471,1.25172 -2.70689,0.88661 -2.70689,0.88661c0,0 0.32565,-3.1454 0.88945,-3.93553c0.42046,-0.58925 1.88637,-0.59262 1.88637,-0.59262c0,0 1.02913,-0.82679 1.35015,-1.11125c0.32102,-0.28447 0.9121,-0.71159 0.9121,-0.71159c0,0 1.08131,1.56215 1.1505,1.97845c0.04117,0.32458 -2.68303,2.76921 -3.48167,3.48597z" data-paper-data="{&quot;index&quot;:null}" fill="#fc6293"/><path d="M236.87787,185.71593c0.18567,0.01711 0.7351,0.59172 0.99954,1.38194c0.07923,0.23674 -1.06702,0.98661 -2.21834,2.21527c-0.64275,0.68593 -1.44781,1.87665 -1.95391,2.55901c-0.5439,0.73336 -0.57621,1.95682 -0.70497,2.11725c-0.46318,0.5771 -1.42326,1.13711 -1.44009,1.13327c-0.0094,-0.00214 -1.26468,-0.07414 -1.86284,-1.55445c-0.79349,-1.96376 1.26265,-4.6558 1.26265,-4.6558c0,0 0.84039,0.01009 0.58006,0.55503c-0.33689,0.6698 -0.31114,0.48931 -0.60282,0.96351c-0.12364,0.16864 -0.28651,0.44345 -0.25651,0.46584c0.30645,0.22884 1.77202,-0.16661 2.32898,-0.56207c0.45145,-0.32056 1.24728,-1.07923 1.90049,-1.76192c0.57369,-0.5996 1.20739,-1.09819 1.59319,-1.47326c0.2345,-0.22798 0.27865,-0.5006 0.27865,-0.5006c0,0 -0.20264,-0.91052 0.09594,-0.88299z" data-paper-data="{&quot;index&quot;:null}" fill="#f3e2e2"/><path d="M233.84589,191.42142c0,0 0.80307,-1.17894 1.47953,-1.84568c0.89245,-0.8796 2.04601,-1.90515 2.32119,-2.22142c0.13843,-0.15912 0.0297,-0.55758 0.0297,-0.55758l0.14,0.03197c0,0 0.16152,0.4212 -0.03774,0.60329c-1.14528,1.04669 -1.82485,1.60186 -2.39742,2.31433c-0.41362,0.51469 -1.80116,2.30179 -1.80116,2.30179z" data-paper-data="{&quot;index&quot;:null}" fill="#bfa4a4"/><path d="M233.24576,188.12392l0.92329,-0.83014l0.44025,0.50538l-0.98378,0.81632z" data-paper-data="{&quot;index&quot;:null}" fill="#fffff6"/><path d="M234.59283,186.71258l0.75732,-0.67217l0.38234,0.46385l-0.75805,0.75349z" data-paper-data="{&quot;index&quot;:null}" fill="#fffff6"/><path d="M236.64047,188.41137c0,0 -0.28281,-0.05239 -0.71518,-0.32011c-0.43235,-0.26771 -0.94858,-0.84061 -0.94858,-0.84061l0.76765,-0.7413c0,0 0.31585,0.4609 0.66333,0.73497c0.34748,0.27407 0.98373,0.56411 0.98373,0.56411z" data-paper-data="{&quot;index&quot;:null}" fill="#754c86"/><path d="M235.16191,190.00134c0,0 -0.54201,-0.34261 -0.85735,-0.62967c-0.31535,-0.28705 -0.71128,-0.7682 -0.71128,-0.7682l0.9767,-0.83734c0,0 0.28389,0.34234 0.60918,0.58529c0.32529,0.24296 0.9447,0.5648 0.9447,0.5648c0,0 -0.34142,0.3671 -0.51815,0.56646c-0.17673,0.19936 -0.44383,0.51871 -0.44383,0.51871z" data-paper-data="{&quot;index&quot;:null}" fill="#754c86"/><path d="M235.65096,184.70914c0,0 0.36424,0.11526 0.54362,0.25563c0.10857,0.08498 0.34674,0.33755 0.62649,0.57949c0.27975,0.24194 0.31213,0.34573 0.31213,0.34573l-1.39097,-1.01815z" data-paper-data="{&quot;index&quot;:null}" fill="#ae8484"/><path d="M237.51934,186.89901c-0.11502,0.10724 -0.28913,0.08884 -0.57757,-0.19241c-0.28843,-0.28125 -0.16861,-0.24975 -0.59519,-0.88873c-0.21304,-0.30945 -0.59693,-0.92959 -0.59693,-0.92959c0,0 0.51995,0.15262 1.13344,0.8106c0.61347,0.65798 0.79946,1.05055 0.64489,1.19467z" data-paper-data="{&quot;index&quot;:null}" fill="#532c31"/></g></g><g data-paper-data="{&quot;index&quot;:null}" stroke="none" stroke-width="0" stroke-linecap="butt" stroke-linejoin="miter"><path d="M240.76489,182.63901l-2.797,3.05304l-1.02132,1.09894l-0.78584,-1.24881l0.83692,-0.84467l2.61245,-2.72759z" data-paper-data="{&quot;index&quot;:null}" fill="#8e5173"/><path d="M238.82339,184.73162l-0.85555,0.96039l-1.02132,1.09894l-0.78584,-1.24881l0.83692,-0.84467l0.88073,-0.9132z" data-paper-data="{&quot;index&quot;:null}" fill="#a71e48"/><path d="M238.82337,184.7316l-0.175,0.20142l-0.93091,-0.97581l0.16087,-0.17294z" data-paper-data="{&quot;index&quot;:null}" fill="#a19589"/><path d="M238.48489,185.08886l-0.175,0.20142l-0.93092,-0.9758l0.16089,-0.17295z" data-paper-data="{&quot;index&quot;:null}" fill="#a19589"/></g><path d="M244.03224,185.42402c0,0 -2.12795,-0.14162 -3.86676,-1.43095c-1.9645,-1.67606 -2.91325,-3.72476 -2.91325,-3.72476l0.43072,-0.13843c0,0 0.56114,1.97873 2.6719,3.58873c1.83889,1.35566 3.7591,1.28129 3.7591,1.28129z" data-paper-data="{&quot;index&quot;:null}" fill="#ee3377" stroke="none" stroke-width="0" stroke-linecap="butt" stroke-linejoin="miter"/><path d="M244.54706,181.29379l-0.45362,3.77937c0,0 -2.71934,-0.25328 -4.16569,-1.61254c-1.86226,-1.80088 -2.32092,-3.28822 -2.32092,-3.28822l2.15884,-0.58126l2.03105,-0.538z" data-paper-data="{&quot;index&quot;:null}" fill="#fcf4f4" stroke="none" stroke-width="0" stroke-linecap="butt" stroke-linejoin="miter"/><path d="M244.12502,184.70103c0,0 -1.75775,0.15142 -3.49656,-1.13791c-2.30712,-1.96906 -2.62416,-3.49325 -2.62416,-3.49325l0.14507,-0.04098c0,0 0.47212,1.80745 2.58288,3.41745c1.92251,1.41917 3.41266,1.08867 3.41266,1.08867z" data-paper-data="{&quot;index&quot;:null}" fill="#ee3377" stroke="none" stroke-width="0" stroke-linecap="butt" stroke-linejoin="miter"/><path d="M242.02755,180.03685l0.6651,-0.21576l1.29845,0.89331l-0.00271,0.6241z" data-paper-data="{&quot;index&quot;:null}" fill="#aa4455" stroke="none" stroke-width="0" stroke-linecap="butt" stroke-linejoin="miter"/><path d="M245.21367,179.63334c-0.27168,0.56118 -0.92661,1.38211 -0.92661,1.38211l-2.7456,-1.96453l0.75146,-0.67571l1.44931,-1.73614c0,0 0.51207,0.51221 0.87143,0.80351c0.35937,0.29131 0.94171,0.66627 0.94171,0.66627c0,0 -0.07004,0.9633 -0.34171,1.52448z" data-paper-data="{&quot;index&quot;:null}" fill="#6d3b75" stroke="none" stroke-width="0" stroke-linecap="butt" stroke-linejoin="miter"/><g data-paper-data="{&quot;index&quot;:null}" stroke="none" stroke-width="0" stroke-linecap="butt" stroke-linejoin="miter"><path d="M241.1137,184.85771l3.03185,-4.15557l0.33008,0.47227l-1.54408,4.53205c0,0 -0.80326,-0.02779 -1.55925,-0.61463c-0.18453,-0.14323 -0.25859,-0.23411 -0.25859,-0.23411z" fill="#fab5b7"/><path d="M241.58498,185.25106c0.55741,0.40883 1.39414,0.42771 1.39414,0.42771l-0.22488,0.34516c0,0 -0.90946,-0.02172 -1.48248,-0.43572c-0.63921,-0.46182 -0.45322,-0.39369 -0.45322,-0.39369l0.25857,-0.31148c0,0 -0.11222,-0.08675 0.50788,0.36805z" fill="#fed000"/></g><path d="M243.84247,181.36676c0,0 0.12739,-1.16689 0.37444,-1.6349c0.04423,-0.08378 0.14183,-0.24537 0.14183,-0.24537c0,0 0.24525,-0.18249 1.10726,-0.1758c0.18888,0.00146 0.17095,-0.11968 0.33229,-0.27056c0.05095,-0.04767 0.07301,-0.43625 0.07301,-0.43625c0,0 0.14227,0.0333 0.14264,0.15274c-0.24904,0.52337 -0.96664,1.4487 -0.96664,1.4487l-0.40815,1.12951z" data-paper-data="{&quot;index&quot;:null}" fill="#efe6e6" stroke="none" stroke-width="0" stroke-linecap="butt" stroke-linejoin="miter"/><path d="M240.7742,179.16316l1.46981,-0.82713c0,0 0.9864,-1.61592 1.43449,-1.71481c0.11663,-0.02573 0.45741,0.39407 0.45741,0.39407c0,0 0.11964,0.13859 -0.07038,0.38743c-0.03886,0.05091 -0.36616,0.15519 -0.40153,0.21534c-0.11199,0.19042 -0.1211,0.33407 -0.0784,0.51807c0.19488,0.83971 0.07041,1.11892 0.07041,1.11892c0,0 -0.13637,0.13056 -0.20846,0.19202c-0.4027,0.34333 -1.42526,0.74978 -1.42526,0.74978z" data-paper-data="{&quot;index&quot;:null}" fill="#efe6e6" stroke="none" stroke-width="0" stroke-linecap="butt" stroke-linejoin="miter"/><path d="M243.64256,176.97232l0.3824,-0.07384c0,0 0.51127,0.46024 0.55321,0.52571c0.0412,0.13608 -0.11482,0.5348 -0.28179,0.87129c-0.13708,0.27626 -0.59317,0.99735 -0.59317,0.99735c0,0 -0.01239,-0.20165 -0.04434,-0.40086c-0.04621,-0.28813 -0.11764,-0.57161 -0.11543,-0.82359c0.01526,-0.45072 0.59863,-0.69968 0.59863,-0.69968z" data-paper-data="{&quot;index&quot;:null}" fill="#fd4275" stroke="none" stroke-width="0" stroke-linecap="butt" stroke-linejoin="miter"/><path d="M242.38247,179.97199c0,0 0.90629,-0.37104 1.16692,-0.78621c0.17666,-0.28143 -0.15028,-1.52474 -0.15028,-1.52474l0.19547,0.01338c0,0 0.24558,1.31941 0.08048,1.57453c-0.31268,0.48316 -1.1897,0.82894 -1.1897,0.82894z" data-paper-data="{&quot;index&quot;:null}" fill="#fed000" stroke="none" stroke-width="0" stroke-linecap="butt" stroke-linejoin="miter"/><path d="M243.53717,177.64646l0.51105,-0.27962l-0.59826,-0.45664l0.45077,-0.14291l0.12367,0.14498l-0.29556,0.04245l0.5177,0.42084l-0.53969,0.36667l0.15546,1.22764c0,0 -0.02802,0.15614 -0.06946,0.20396c-0.04143,0.04782 -0.21851,0.18904 -0.21851,0.18904c0,0 0.0903,-0.14027 0.12373,-0.32041c0.03265,-0.17592 0.00862,-0.39039 -0.00467,-0.50596c-0.03134,-0.27257 -0.15623,-0.89008 -0.15623,-0.89008z" data-paper-data="{&quot;index&quot;:null}" fill="#fff9f9" stroke="none" stroke-width="0" stroke-linecap="butt" stroke-linejoin="miter"/><path d="M243.38338,176.94144l0.08196,-0.03216l0.56948,0.45607l-0.05112,0.02875z" data-paper-data="{&quot;index&quot;:null}" fill="#fed000" stroke="none" stroke-width="0" stroke-linecap="butt" stroke-linejoin="miter"/><path d="M244.68598,178.22108l-0.14429,-0.51082c0,0 0.02432,-0.08768 0.03054,-0.14252c0.00621,-0.05485 0.02098,-0.12759 0.02098,-0.12759c0,0 0.30546,0.2277 0.46321,0.33873c0.16013,0.11272 0.63065,0.27527 0.63065,0.27527z" data-paper-data="{&quot;index&quot;:null}" fill="#fff9f9" stroke="none" stroke-width="0" stroke-linecap="butt" stroke-linejoin="miter"/><path d="M244.82137,178.00117l-0.14144,-0.50072l0.6232,0.44744z" data-paper-data="{&quot;index&quot;:null}" fill="#fd4275" stroke="none" stroke-width="0" stroke-linecap="butt" stroke-linejoin="miter"/><g data-paper-data="{&quot;index&quot;:null}" stroke="none" stroke-width="0" stroke-linecap="butt" stroke-linejoin="miter"><path d="M246.14886,178.64381c-0.22542,1.16095 -0.6871,2.46142 -1.02754,3.30725c-0.48676,1.20933 -0.88477,2.30072 -0.88477,2.30072c0,0 -0.54362,0.00325 -0.78112,-0.21788c-0.2375,-0.22116 -0.34141,-0.26038 -0.34141,-0.26038c0,0 0.83554,-1.87611 1.03191,-2.36399c0.3221,-0.80028 0.68878,-1.83122 1.08336,-3.01856c0.09888,-0.29751 0.31155,-0.41846 0.61904,-0.33007c0.20658,0.05942 0.37513,0.19846 0.30049,0.58288z" data-paper-data="{&quot;index&quot;:null}" fill="#fff9fb"/><path d="M243.18875,187.73431c-0.05734,0.12284 -0.98693,0.61453 -1.43424,0.77192c-0.24431,0.08597 -0.69842,0.24907 -0.98936,-0.07452c-0.07414,-0.08247 -0.19539,-0.60969 -0.19539,-0.60969l-0.41221,-0.07794c0,0 -0.16656,-0.18631 -0.19563,-0.33477c-0.02905,-0.14847 0.02747,-0.42455 0.02747,-0.42455c0,0 -0.12007,-0.12275 -0.22206,-0.19151c-0.33295,-0.22439 -0.15058,-0.5538 -0.15058,-0.5538c0,0 -0.26019,-0.13512 -0.35771,-0.32387c-0.1546,-0.29924 -0.16558,-0.7308 -0.09521,-0.9542c0.1195,-0.37954 0.69286,-1.32905 1.06224,-1.29966c0.57531,0.04577 0.4366,0.74292 0.4366,0.74292c0,0 0.39852,-0.45172 0.74586,-0.56277c0.53481,-0.171 0.87375,-0.03873 0.87375,-0.03873l1.67446,1.79549c0,0 -0.4082,1.36462 -0.76799,2.13561z" data-paper-data="{&quot;index&quot;:null}" fill="#ffffff"/><g data-paper-data="{&quot;index&quot;:null}"><path d="M242.30554,183.22629c0.60261,-0.87776 1.26561,-0.57192 1.97029,-0.07143c0.7047,0.50049 1.19807,1.0159 0.5816,1.88385c-0.61647,0.86793 -1.26561,0.57192 -1.97029,0.07143c-0.7047,-0.50049 -1.18407,-1.00627 -0.5816,-1.88385z" fill="#fed000"/><path d="M241.91905,182.95179c0.48503,-0.72111 1.31092,-0.26917 2.22906,0.38292c0.91813,0.65211 1.59888,1.27026 1.09582,1.97854c-0.50304,0.7083 -1.31092,0.26916 -2.22906,-0.38293c-0.91813,-0.65211 -1.58071,-1.25758 -1.09582,-1.97853z" fill="#e68b9c"/></g></g><path d="M245.87005,178.5823c0,0 0.07757,0.4735 -0.34467,0.63189c-0.23808,0.08258 -0.65672,0.26425 -0.94451,0.31248c-0.19899,0.03335 -0.39404,0.08601 -0.39404,0.08601c0,0 0.53767,-0.66251 0.75568,-0.88063c0.26557,-0.26568 0.44216,-0.60016 0.58427,-0.60456c0.03238,0.00809 -1.35709,-0.99281 -1.26538,-0.95133c0.0523,0.02366 0.2979,0.05078 0.57883,0.19423c0.164,0.08374 0.35363,0.26769 0.48802,0.35399c0.17218,0.11057 0.71267,0.6113 0.71267,0.6113l0.37735,0.52833z" data-paper-data="{&quot;index&quot;:null}" fill="#fd4275" stroke="none" stroke-width="0" stroke-linecap="butt" stroke-linejoin="miter"/><path d="M243.8319,181.01753c0,0 0.04759,-0.9415 0.40558,-1.39212c0.18903,-0.23794 1.51778,-0.42659 1.51778,-0.42659l-0.011,0.06783c0,0 -1.19652,0.20037 -1.40678,0.45767c-0.31018,0.37957 -0.37235,1.35691 -0.37235,1.35691z" data-paper-data="{&quot;index&quot;:null}" fill="#fed000" stroke="none" stroke-width="0" stroke-linecap="butt" stroke-linejoin="miter"/><path d="M245.80011,179.24424c0,0 -0.62507,0.07887 -0.89337,0.13621c-0.11376,0.02432 -0.32467,0.07004 -0.48095,0.15715c-0.16001,0.08922 -0.26412,0.21956 -0.26412,0.21956c0,0 0.07728,-0.21289 0.10936,-0.26744c0.03207,-0.05455 0.17111,-0.13097 0.17111,-0.13097l1.21301,-0.24474l0.17511,-0.62853l0.56414,0.35617c0,0 -0.62993,-0.70542 -0.90559,-0.9641c-0.22737,-0.21334 -0.63159,-0.47835 -0.63159,-0.47835l0.74248,0.17941l1.03099,1.46473l-0.72884,-0.37268l-0.10177,0.57361z" data-paper-data="{&quot;index&quot;:null}" fill="#fff9f9" stroke="none" stroke-width="0" stroke-linecap="butt" stroke-linejoin="miter"/><g data-paper-data="{&quot;index&quot;:null}" stroke-width="0" stroke-linecap="butt" stroke-linejoin="miter"><path d="M249.34261,202.838l-2.89728,-8.60948c0,0 2.02562,-2.11112 3.79366,-1.2212c1.6756,0.84339 2.73808,1.84051 3.47712,3.70295c1.92469,4.85032 -2.39933,6.62148 -2.39933,6.62148z" fill="#ffff00" stroke="none"/><path d="M249.85434,202.98688c0,0 0.60104,-0.24192 1.14206,-0.6671c0.36207,-0.28451 0.64062,-0.77778 0.85045,-0.80462c0.422,-0.05402 0.17967,0.22308 -0.37801,0.85167c-0.26,0.29309 -1.10307,0.75823 -1.10307,0.75823l-0.51143,-0.13817z" fill="#a58c48" stroke="#000000"/><path d="M252.69589,199.11212c-0.17669,0.06472 -0.19093,-1.04585 -0.49936,-1.88788c-0.30846,-0.84206 -1.48604,-1.9401 -1.1028,-2.13649c0.41967,-0.21509 1.20725,1.10096 1.54074,1.93337c0.49776,1.24233 0.23812,2.02625 0.06141,2.09097z" fill="#a58c48" stroke="#000000"/><path d="M247.34144,193.6442c0,0 0.58851,-0.18204 1.03302,-0.17092c0.39907,0.00997 0.5379,0.33869 0.50893,0.41734c-0.08235,0.22345 -0.47851,-0.04122 -0.92394,-0.0454c-0.48123,-0.00451 -0.88788,0.11128 -0.88788,0.11128z" fill="#a58c48" stroke="#000000"/><path d="M246.93938,198.95766c1.14253,3.39712 -0.4289,4.9786 -0.4289,4.9786c0,0 0.21913,-0.02475 -0.34061,0.18099c-0.55972,0.20573 -0.30734,0.06009 -0.30734,0.06009c0,0 1.11575,-1.87249 0.78014,-4.04812c-0.53405,-3.46237 -3.59916,-4.69727 -3.59916,-4.69727l0.58133,-0.12573c0,0 2.5003,1.23048 3.31455,3.65148z" fill="#edeee6" stroke="none"/><path d="M246.78221,193.95038c0,0 3.39394,0.87634 4.18841,3.59049c1.00684,3.4397 -1.28942,5.3726 -1.28942,5.3726l-0.3319,-0.07658c0,0 1.3779,-1.92349 1.10038,-4.07683c-0.44168,-3.42684 -3.98224,-4.56705 -3.98224,-4.56705l0.31476,-0.24261z" fill="#edeee6" stroke="none"/><path d="M250.56157,197.63138c1.14782,3.41162 -1.43997,5.39058 -1.43997,5.39058c0,0 -0.83801,0.4362 -1.39775,0.64194c-0.55975,0.20576 -1.47131,0.41271 -1.47131,0.41271c0,0 1.11371,-1.87804 0.77491,-4.06245c-0.53914,-3.47626 -3.60753,-4.72014 -3.60753,-4.72014l3.129,-1.15088c0,0 3.19462,1.05692 4.01263,3.48828z" fill="#754c86" stroke="none"/><path d="M243.12515,198.56903c-0.46074,-1.25788 -2.99589,-3.1117 -2.99589,-3.1117c0,0 0.62732,-0.47943 1.51459,-0.48414c1.38813,-0.00741 3.39835,0.66178 4.56036,3.49274c2.21591,5.39849 -2.48756,7.72118 -2.48756,7.72118c0,0 -0.13077,-6.36021 -0.59151,-7.61808z" fill="#ffff00" stroke="none"/><path d="M245.62491,199.33239c-0.23988,-0.65492 -1.1235,-2.13605 -0.85438,-2.0994c0.39821,0.05423 1.07341,1.23405 1.29234,1.89627c0.39529,1.19576 0.21175,2.12131 0.1078,2.15937c-0.10395,0.03807 -0.23692,-1.11311 -0.54573,-1.95626z" fill="#a58c48" stroke="#000000"/><path d="M245.38776,204.86296c0,0 0.44794,-1.49367 0.67436,-1.65597c0.35282,-0.25292 -0.27457,1.23202 -0.27457,1.23202l-0.39976,0.42395z" fill="#a58c48" stroke="#000000"/><path d="M243.62046,196.07462c-0.35345,0.12944 -1.85966,-1.03825 -1.85966,-1.03825l0.83236,0.06089c0,0 1.38074,0.84784 1.02727,0.9773z" fill="#a58c48" stroke="#000000"/><path d="M238.6043,202.368c-1.07211,-3.04362 -0.6895,-6.12493 1.57219,-6.95333c1.62172,-0.59402 3.83711,1.7334 4.78517,4.43823c0.90817,2.59104 0.38622,5.70793 -1.23549,6.30193c-1.62169,0.594 -4.18587,-1.2059 -5.09806,-3.79553z" fill="#ffff00" stroke="#000000"/><path d="M241.71379,205.57501c-0.97716,0.35791 -2.45151,-1.21435 -3.29301,-3.51176c-0.84148,-2.29742 -0.73153,-4.45 0.24567,-4.80792c0.97718,-0.35789 2.45152,1.21437 3.29302,3.51178c0.84149,2.29741 0.73153,4.44998 -0.24567,4.8079z" fill="#ffff00" stroke="#000000"/><path d="M240.95409,189.53293l-2.83881,-6.47097c0,0 0.12542,-0.5365 0.33991,-0.62702c0.2145,-0.0905 0.82187,-0.00645 0.82187,-0.00645l3.19512,6.25634l2.00494,3.80753c0,0 -0.63573,0.11053 -1.00505,0.28265c-0.36931,0.17209 -0.82747,0.5713 -0.82747,0.5713z" fill="#fbdd00" stroke="none"/><path d="M243.234,195.3444c0,0 -0.74801,-1.67092 -0.7166,-1.7758c0.11919,-0.39813 1.64512,-1.20578 2.2185,-1.08974c0.33857,0.06849 1.49824,2.32274 1.49824,2.32274l-2.66594,0.67713z" fill="#c8c8c6" stroke="none"/><path d="M251.49118,203.22518c0,0 2.21818,-0.95592 2.61809,-3.39962c0.09701,-0.59279 -0.04692,-1.39939 -0.20069,-2.15524c-0.22861,-1.12363 -0.78345,-2.35779 -1.61145,-3.17158c-1.02305,-1.00548 -2.45477,-1.56103 -2.45477,-1.56103c0,0 3.69348,0.74639 4.43265,4.01619c1.09553,4.84616 -2.7838,6.2713 -2.7838,6.2713z" fill="#ffff00" stroke="#000000"/><path d="M238.11524,183.06192c0,0 0.12542,-0.5365 0.33991,-0.62702c0.21452,-0.09051 0.82189,-0.00647 0.82189,-0.00647l1.38469,2.67815c0,0 -0.25576,0.21536 -0.62508,0.38748c-0.36931,0.17211 -0.74992,0.25013 -0.74992,0.25013z" fill="#a56402" stroke="none"/></g><g stroke="none" stroke-width="0" stroke-linecap="butt" stroke-linejoin="miter"><path d="M243.8832,177.48079c-0.28322,1.14819 -0.8094,2.4239 -1.19173,3.25168c-0.54663,1.18347 -0.9988,2.25359 -0.9988,2.25359c0,0 -0.5431,-0.02394 -0.76921,-0.2567c-0.22616,-0.23274 -0.32795,-0.27713 -0.32795,-0.27713c0,0 0.92839,-1.83193 1.14891,-2.30937c0.36173,-0.78316 0.77957,-1.79445 1.23305,-2.96055c0.11363,-0.2922 0.33208,-0.40237 0.6348,-0.29868c0.20337,0.06967 0.36474,0.217 0.27096,0.5972z" data-paper-data="{&quot;index&quot;:null}" fill="#4c2b5c"/><path d="M243.8832,177.48079c-0.20573,0.83408 -0.85356,2.48352 -0.85356,2.48352l-1.59877,0.82362c0,0 0.25213,-0.51212 0.31355,-0.64508c0.36173,-0.78316 0.77956,-1.79445 1.23305,-2.96057c0.11363,-0.2922 0.33208,-0.40237 0.63479,-0.29867c0.20337,0.06967 0.36475,0.21699 0.27097,0.59719z" data-paper-data="{&quot;index&quot;:null}" fill="#edbb82"/></g><g data-paper-data="{&quot;index&quot;:null}" stroke="none" stroke-linecap="butt" stroke-linejoin="miter"><path d="M242.03306,184.04376c0,0 0.07253,1.48406 -0.01359,2.36738c-0.01373,0.14074 -0.75733,0.94724 -1.14263,1.25746c-0.21045,0.16942 -0.6005,0.48763 -0.99905,0.2704c-0.10162,-0.05537 -0.404,-0.53181 -0.404,-0.53181l-0.43252,0.06652c0,0 -0.22854,-0.1253 -0.30873,-0.26127c-0.08016,-0.13596 -0.12044,-0.42719 -0.12044,-0.42719c0,0 -0.16073,-0.07906 -0.28496,-0.11124c-0.40544,-0.1051 -0.34045,-0.49245 -0.34045,-0.49245c0,0 -0.30287,-0.04254 -0.46434,-0.19432c-0.25599,-0.2406 -0.41673,-0.66128 -0.4251,-0.90549c-0.01422,-0.41479 0.21992,-1.54794 0.59344,-1.64733c0.58177,-0.15482 0.68752,0.57912 0.68752,0.57912c0,0 0.23509,-0.58277 0.53818,-0.81265c0.46666,-0.35399 0.846,-0.34159 0.846,-0.34159l2.27072,1.18445z" data-paper-data="{&quot;index&quot;:null}" fill="#f44a7d" stroke-width="0"/><path d="M238.57559,185.23605l0.49575,-0.12972l0.12972,0.49575l-0.49574,0.12972z" data-paper-data="{&quot;index&quot;:null}" fill="#baba3e" stroke-width="NaN"/><path d="M239.37293,185.81057l0.49575,-0.12972l0.12972,0.49575l-0.49575,0.12972z" data-paper-data="{&quot;index&quot;:null}" fill="#baba3e" stroke-width="NaN"/><path d="M240.25064,186.43212l0.49575,-0.12972l0.12972,0.49575l-0.49575,0.12972z" data-paper-data="{&quot;index&quot;:null}" fill="#baba3e" stroke-width="NaN"/><path d="M241.03692,187.45897l0.15344,-0.33803l0.33238,-0.1873l0.10741,0.59805z" data-paper-data="{&quot;index&quot;:null}" fill="#baba3e" stroke-width="0"/><g stroke-width="0"><path d="M240.50862,184.19454c-0.746,-0.43652 -1.26802,-0.89816 -0.74512,-1.82535c0.52302,-0.92743 1.21037,-0.68108 1.95636,-0.24456c0.746,0.43652 1.2828,0.90651 0.74512,1.82534c-0.53768,0.91884 -1.21036,0.68108 -1.95635,0.24456z" data-paper-data="{&quot;index&quot;:null}" fill="#fed000"/><path d="M239.35433,182.12978c0.41965,-0.76095 1.28213,-0.38348 2.25412,0.18528c0.97198,0.56875 1.70449,1.12456 1.26571,1.87437c-0.43876,0.7498 -1.28212,0.38349 -2.25411,-0.18527c-0.97199,-0.56876 -1.68528,-1.11358 -1.26572,-1.87438z" data-paper-data="{&quot;index&quot;:null}" fill="#e68b9c"/></g></g><g data-paper-data="{&quot;index&quot;:null}" stroke="none" stroke-width="0" stroke-linecap="butt" stroke-linejoin="miter"><g data-paper-data="{&quot;index&quot;:null}"><path d="M255.63562,169.89481c0,0 -0.28915,0.35692 -1.27946,0.9234c-1.97444,1.1294 -2.97768,0.413 -2.97768,0.413c0,0 0.11477,-0.88795 1.13593,-1.33181c1.04635,-0.4548 3.12122,-0.00461 3.12122,-0.00461z" data-paper-data="{&quot;index&quot;:null}" fill="#ce204f"/><path d="M253.62684,169.77645c-1.14035,-0.03549 -2.22832,1.39511 -2.22832,1.39511c0,0 -0.3154,-1.87583 1.9591,-1.85229c1.14085,0.01182 2.30823,0.5915 2.30823,0.5915c0,0 -0.89864,-0.09882 -2.039,-0.13431z" fill="#ff4488"/></g><g data-paper-data="{&quot;index&quot;:null}"><path d="M251.36905,171.35962c0,0 1.06047,0.06107 1.62975,0.38141c1.12687,0.63415 1.45301,2.26555 1.45301,2.26555c0,0 -1.25008,-0.48639 -2.04128,-0.81939c-1.0797,-0.45444 -1.04145,-1.82757 -1.04145,-1.82757z" fill="#f5e4ec"/><path d="M252.96123,171.87371c0.93905,0.52844 1.21086,1.88795 1.21086,1.88795c0,0 -1.04176,-0.40531 -1.70108,-0.68282c-0.89977,-0.37871 -0.86788,-1.52298 -0.86788,-1.52298c0,0 0.88373,0.05088 1.35812,0.31785z" fill="#e2c1c1"/></g></g><g data-paper-data="{&quot;index&quot;:null}"><path d="M245.3455,170.5563c-1.61707,0.05352 -1.83327,2.09802 -1.83327,2.09802c0,0 -0.00674,-1.39934 0.87089,-1.95719c0.57937,-0.36827 0.93481,-0.4726 1.59047,-0.20101c0.73472,0.30431 1.14332,1.1226 1.14332,1.1226c0,0 -0.77097,-1.09553 -1.77141,-1.06242z" data-paper-data="{&quot;index&quot;:null}" fill="#000000" stroke="none" stroke-width="0" stroke-linecap="butt" stroke-linejoin="miter"/><path d="M251.80119,173.26119c-0.7905,2.76829 -4.03345,4.26939 -7.24332,3.35278c-3.20986,-0.91659 -5.17115,-3.90378 -4.38064,-6.67208c0.79049,-2.76831 4.03344,-4.26942 7.24331,-3.35281c3.20988,0.91662 5.17116,3.90381 4.38065,6.67211z" data-paper-data="{&quot;index&quot;:null}" fill="#f79eb4" stroke="none" stroke-width="0" stroke-linecap="butt" stroke-linejoin="miter"/><path d="M251.12978,174.88494c0.01047,-0.01379 -0.25205,1.01415 -1.34707,2.09913c-1.75988,1.75349 -3.19862,1.40266 -3.19862,1.40266l0.52193,-0.79853c0,0 1.96592,-1.23181 2.53484,-1.74267c0.56889,-0.51089 1.07956,-1.57976 1.07919,-1.57914" data-paper-data="{&quot;index&quot;:null}" fill="#f79eb4" stroke="#f89db5" stroke-width="0" stroke-linecap="butt" stroke-linejoin="round"/><path d="M247.78855,174.10167c0.2424,0.69312 0.43663,0.73494 0.62185,0.80281c0.31773,0.11643 0.81847,0.12308 1.18752,-0.15659c0.52763,-0.39984 0.7709,-0.44414 1.20573,-0.33152c0.06589,0.01706 0.20551,-0.11312 -0.09372,0.40333c-0.63459,1.09522 -1.65584,1.71299 -1.79882,1.68016c-0.57125,-0.13118 -0.26628,-0.60156 -1.42875,-0.8503c-0.66212,-0.14165 -2.33944,0.17064 -2.91993,-0.18562c-1.07518,-0.89918 -1.11041,-2.01924 -1.01701,-2.73229c0.28068,-2.14272 1.02709,-1.06338 1.44325,-0.89899c2.2736,1.72154 1.34466,1.30063 2.31287,2.40657z" fill="#ffffff" stroke="none" stroke-width="0" stroke-linecap="butt" stroke-linejoin="miter"/><g data-paper-data="{&quot;index&quot;:null}" fill="#ffd5c5" stroke="none" stroke-width="1" stroke-linecap="round" stroke-linejoin="round"><path d="M249.17536,176.31632c-0.03363,0.54642 -0.59979,0.86361 -1.06464,1.05102c-0.07606,0.03065 -0.67142,0.26848 -1.54955,0.30794c-1.10186,0.04951 -2.37506,-0.52005 -2.74352,-0.67397c-0.43941,-0.18361 -1.10378,-0.92249 -1.19256,-1.09705c-0.63896,-1.25634 0.18893,-1.53903 0.30789,-1.58667c0.05673,-0.0227 0.34462,-0.04553 0.62092,0.14601c0.2693,0.1867 0.95634,0.87081 1.24056,0.93903c0.30538,0.07329 2.14555,-0.01507 3.01765,0.2352c0.1807,0.0539 0.40207,0.18265 0.51533,0.33838c0.14737,0.20273 0.35027,0.56829 0.67585,0.39547c0.05268,-0.02801 0.17568,-0.11496 0.17204,-0.05541z"/><path d=""/></g><g data-paper-data="{&quot;index&quot;:null}" fill="#000000" stroke="none" stroke-width="1" stroke-linecap="round" stroke-linejoin="round"><path d="M247.89327,176.35123c-0.22015,-0.09983 -0.54763,-0.39591 -0.31981,-0.47872c0.17317,-0.06293 0.66578,0.13861 0.73516,0.22799c0.11999,0.1546 -0.31167,0.28798 -0.41536,0.25072z"/><path d=""/></g><path d="M243.54221,171.91451c0.03424,-0.04536 -0.61646,1.79544 -0.83732,2.64802c-0.41587,1.60555 -0.32998,2.69951 -0.32998,2.69951c0,0 -0.27961,-0.32362 -0.34239,-0.41592c-0.19399,-0.28508 -0.35858,-0.55963 -0.50237,-0.87627c-0.33816,-0.74478 -0.47709,-1.56112 -0.47484,-2.37632c0.00149,-0.5433 0.47623,-2.78857 0.50195,-2.79554" data-paper-data="{&quot;index&quot;:null}" fill="#f79eb4" stroke="#f89db5" stroke-width="0" stroke-linecap="butt" stroke-linejoin="round"/><path d="M241.47493,170.74177c-0.01809,0.01005 -0.50354,2.78423 -0.57639,3.57273c-0.07286,0.78848 0.05899,2.02815 0.05899,2.02815c0,0 -0.37804,-0.17394 -0.74514,-0.93502c-0.32412,-0.67204 -0.51505,-1.02019 -0.50108,-2.10523c0.01813,-1.40797 0.43185,-3.23078 0.70337,-3.52708" data-paper-data="{&quot;index&quot;:null}" fill="#f79eb4" stroke="#f89db5" stroke-width="0" stroke-linecap="butt" stroke-linejoin="round"/><g data-paper-data="{&quot;index&quot;:null}" fill="#ff4488" stroke="none" stroke-width="1" stroke-linecap="round" stroke-linejoin="round"><path d="M250.35982,170.02261c-0.06792,-0.07755 -1.80817,-2.02098 -3.4078,-2.1916c-1.26079,-0.13447 -2.03699,0.18286 -3.37648,0.72845c-1.03303,0.42075 -1.98618,1.78055 -2.02124,1.77985c-0.00253,-0.00006 1.44758,-3.85374 4.87677,-3.50364c2.76569,0.3137 4.39905,2.64128 4.45516,2.78002"/><path d=""/></g><path d="M250.3239,171.15802c-0.02689,0.01147 0.7238,-0.29048 2.31803,0.61775c0.28361,0.16359 -0.56661,-0.20785 -0.51682,0.58262c0.12378,0.74131 -0.14774,1.6451 -0.16285,1.63907c-0.02165,-0.00871 0.3265,-0.56933 -0.56438,-1.23495c-0.48643,-0.36345 -1.16042,-0.46365 -1.1958,-0.44853" data-paper-data="{&quot;index&quot;:null}" fill="#f79eb4" stroke="#f89db5" stroke-width="0" stroke-linecap="butt" stroke-linejoin="round"/><path d="M249.49856,170.96173c0.03153,-0.0774 1.21693,-1.15289 1.55667,-1.31919c0.33975,-0.16632 0.5203,-0.1866 1.11024,-0.05085c1.95285,0.65326 0.31789,1.55134 0.31789,1.55134c0,0 0.65353,-0.36881 -0.10465,-0.43881c-1.05191,-0.09709 -1.92446,0.4067 -2.04733,0.45842" data-paper-data="{&quot;index&quot;:null}" fill="#f79eb4" stroke="#f89db5" stroke-width="0" stroke-linecap="butt" stroke-linejoin="round"/><g data-paper-data="{&quot;index&quot;:null}" stroke="none" stroke-width="1" stroke-linecap="round" stroke-linejoin="round"><g fill="#f79eb4"><path d="M243.20839,168.98144c0.07687,-0.35121 0.08762,-0.99203 0.2708,-1.64308c0.1832,-0.65106 0.47702,-1.46933 0.64261,-1.60338c0.21648,-0.17524 0.89353,0.24759 1.54438,0.81835c0.65084,0.57078 1.3695,1.57929 1.3704,1.73779"/></g><g fill="#ffd5c5"><path d="M243.87193,168.72426c0.01318,-0.08447 0.00976,-0.49447 0.1329,-0.97959c0.12313,-0.48512 0.39664,-1.19099 0.42298,-1.21023c0.10681,-0.07798 0.852,0.43091 1.20206,0.74797c0.35006,0.31707 0.65378,0.79812 0.70557,0.97987"/></g></g><g data-paper-data="{&quot;index&quot;:null}" fill="#f79eb4" stroke="none" stroke-width="1" stroke-linecap="round" stroke-linejoin="round"><path d="M250.52334,168.72888c0.30794,-0.00398 0.62805,0.01493 1.27922,0.15384c0.65116,0.13889 1.46381,0.30168 1.63409,0.46756c0.03488,0.03399 -0.02968,0.68571 -0.25055,1.14487c-0.34475,0.71672 -1.01545,1.38696 -1.02716,1.39698"/><path d=""/></g><path d="M251.64802,174.70957c-0.43229,0.09489 -0.92818,-0.00032 -0.92818,-0.00032l0.1448,-0.31653c0,0 0.2487,0.14536 0.7116,0.10551c0.46292,-0.03986 1.14333,-0.31529 1.14333,-0.31529c0,0 -0.63927,0.43171 -1.07156,0.5266z" data-paper-data="{&quot;index&quot;:null}" fill="#000000" stroke="none" stroke-width="0" stroke-linecap="butt" stroke-linejoin="miter"/><path d="M251.36444,175.24087c-0.44087,0.0388 -0.92051,-0.11908 -0.92051,-0.11908l0.18411,-0.2954c0,0 0.22804,0.176 0.69225,0.1957c0.46419,0.01969 1.36897,-0.08351 1.36897,-0.08351c0,0 -0.88397,0.26347 -1.32483,0.30227z" data-paper-data="{&quot;index&quot;:null}" fill="#000000" stroke="none" stroke-width="0" stroke-linecap="butt" stroke-linejoin="miter"/><path d="M250.11663,172.38302c-0.03092,-0.03978 0.40519,0.24623 1.09509,0.96167c0.19817,0.20554 0.34143,1.08465 0.2838,1.22425c-0.14324,0.59341 -0.33841,1.41678 -0.33655,1.4161c0.04031,-0.01423 0.05289,-0.48647 -0.3433,-1.48928c-0.1352,-0.33646 -0.8608,-1.10269 -0.94829,-1.21534" data-paper-data="{&quot;index&quot;:null}" fill="#f79eb4" stroke="#f89db5" stroke-width="0" stroke-linecap="butt" stroke-linejoin="round"/><g data-paper-data="{&quot;index&quot;:null}" stroke="none" stroke-linecap="butt" stroke-linejoin="miter"><path d="M246.64004,172.81877c0.21959,0.07833 0.20138,0.69203 -0.04069,1.37079c-0.24208,0.67875 -0.61636,1.16548 -0.83594,1.08717c-0.21958,-0.07832 -0.20136,-0.69202 0.04071,-1.37078c0.24206,-0.67876 0.61634,-1.16549 0.83592,-1.08718z" fill="#169c5b" stroke-width="NaN"/><path d="M246.3367,173.68843c0.09651,0.03441 0.09275,0.29214 -0.00836,0.57563c-0.1011,0.28351 -0.2613,0.48544 -0.35779,0.45102c-0.09651,-0.0344 -0.09275,-0.29213 0.00836,-0.57562c0.1011,-0.28351 0.2613,-0.48545 0.35779,-0.45103z" fill="#000000" stroke-width="0"/><path d="M246.28106,173.52061c0.10228,-0.28683 0.27961,-0.48568 0.39606,-0.44415c0.11644,0.04154 0.12793,0.30771 0.02562,0.59455c-0.10229,0.28684 -0.27961,0.48568 -0.39606,0.44415c-0.11644,-0.04153 -0.12793,-0.3077 -0.02562,-0.59454z" fill="#ffffff" stroke-width="0"/></g><path d="M244.7997,171.79496c-0.58415,-0.16682 -1.19785,0.42561 -1.19785,0.42561c0,0 0.54425,-1.8833 1.68621,-1.50857c1.14197,0.37472 1.55581,2.79783 1.55581,2.79783c0,0 -1.46001,-1.54805 -2.04416,-1.71487z" data-paper-data="{&quot;index&quot;:null}" fill="#e569c4" stroke="none" stroke-width="0" stroke-linecap="butt" stroke-linejoin="miter"/><g data-paper-data="{&quot;index&quot;:null}" stroke="none" stroke-linecap="butt" stroke-linejoin="miter"><path d="M248.95569,175.31311c0.17075,-0.47874 0.4347,-0.82205 0.5896,-0.76682c0.15489,0.05522 0.14203,0.48811 -0.0287,0.96686c-0.17076,0.47874 -0.43471,0.82206 -0.58961,0.76683c-0.15489,-0.05522 -0.14202,-0.48811 0.02871,-0.96686z" fill="#169c5b" stroke-width="NaN"/><path d="M249.07899,175.47781c0.07132,-0.19997 0.18428,-0.34239 0.25234,-0.31811c0.06806,0.02427 0.06543,0.20605 -0.0059,0.40601c-0.07132,0.19995 -0.1843,0.34239 -0.25236,0.31811c-0.06807,-0.02427 -0.06544,-0.20605 0.00589,-0.40601z" fill="#000000" stroke-width="0"/><path d="M249.57143,174.72805c0.08214,0.02931 0.09021,0.21704 0.01807,0.41936c-0.07217,0.20229 -0.19723,0.34254 -0.27937,0.31325c-0.08212,-0.02931 -0.09021,-0.21702 -0.01807,-0.41934c0.07217,-0.2023 0.19723,-0.34256 0.27937,-0.31327z" fill="#ffffff" stroke-width="0"/></g><path d="M244.55189,176.28433c0,0 -0.55013,-0.16387 -0.73483,-0.23899c-0.18471,-0.07513 -0.46198,-0.30846 -0.46198,-0.30846" data-paper-data="{&quot;index&quot;:null}" fill="none" stroke="#000000" stroke-width="0.125" stroke-linecap="round" stroke-linejoin="miter"/><path d="M243.57705,172.32683c0,0 -0.46478,-0.19742 -0.77073,-0.5172c-0.30595,-0.31979 -0.59598,-1.03459 -0.59598,-1.03459c0,0 0.42784,0.59956 0.7899,0.89072c0.36207,0.29116 0.83721,0.41128 0.83721,0.41128l-0.2604,0.24978z" data-paper-data="{&quot;index&quot;:null}" fill="#000000" stroke="none" stroke-width="0" stroke-linecap="butt" stroke-linejoin="miter"/><path d="M242.49189,172.35737c-0.41231,-0.16082 -1.12671,-0.72928 -1.12671,-0.72928c0,0 0.80858,0.5325 1.25969,0.6437c0.4511,0.1112 1.14841,-0.0268 1.14841,-0.0268l-0.1369,0.32191c0,0 -0.73216,-0.04869 -1.14449,-0.20952z" data-paper-data="{&quot;index&quot;:null}" fill="#000000" stroke="none" stroke-width="0" stroke-linecap="butt" stroke-linejoin="miter"/><g data-paper-data="{&quot;index&quot;:null}" fill="#000000" stroke="none" stroke-width="0" stroke-linecap="butt" stroke-linejoin="miter" font-family="&quot;Helvetica Neue&quot;, Helvetica, Arial, sans-serif" font-weight="400" font-size="16" text-anchor="start"><g data-paper-data="{&quot;index&quot;:null}"/><g data-paper-data="{&quot;index&quot;:null}"/></g></g></g></g></svg>