<svg version="1.1" xmlns="http://www.w3.org/2000/svg" xmlns:xlink="http://www.w3.org/1999/xlink" width="241.79364" height="232.50438" viewBox="0,0,241.79364,232.50438"><g transform="translate(-131.70439,-47.08412)"><g data-paper-data="{&quot;isPaintingLayer&quot;:true}" fill-rule="nonzero" stroke-linejoin="miter" stroke-miterlimit="10" stroke-dasharray="" stroke-dashoffset="0" style="mix-blend-mode: normal"><g data-paper-data="{&quot;index&quot;:null}" stroke="none" stroke-width="0" stroke-linecap="butt"><path d="M218.09581,231.10223c11.22548,9.67707 12.34057,27.67681 9.97472,29.26753c-7.36673,4.95309 -26.31657,11.5793 -40.42135,10.99195c-18.63473,-0.77596 -40.24233,0.8007 -39.80045,-5.74293c1.16243,-17.2128 22.40413,-19.42115 41.03882,-18.64522c4.30155,0.17904 7.85331,-31.84896 29.20823,-15.87138z" fill="#09031a"/><path d="M193.57985,260.15489c0,0 -3.51816,-5.98837 -8.24545,-8.12947c-4.72731,-2.14107 -17.45929,-3.51264 -17.45929,-3.51264c0,0 1.3897,-4.23409 8.17363,-5.67662c6.57627,-1.39841 16.29783,-0.74414 16.44498,-0.72168c14.78663,2.25618 15.21286,18.53104 15.21286,18.53104z" fill="#b16e27"/><path d="M178.26224,269.33657c7.84181,0.14815 15.92664,-0.99104 23.29233,-2.54793c15.63767,-3.30522 28.03391,-8.49273 27.98177,-7.23983c-0.04718,1.13399 -13.99812,12.87063 -26.59106,14.80846c-7.87257,1.21143 -24.8573,1.05068 -31.1716,0.949c-34.90461,-0.562 -24.0176,-9.24572 -24.0176,-9.24572c0,0 14.09224,2.96593 30.50612,3.27598z" fill="#a75c1e"/><path d="M211.53498,265.03937c-0.15603,3.74742 -4.96384,6.59038 -10.73857,6.34994c-5.77472,-0.24044 -10.32956,-3.47327 -10.17353,-7.22067c0.15603,-3.74742 4.96387,-6.59042 10.73857,-6.34994c5.77469,0.24042 10.32953,3.47324 10.1735,7.22065z" fill="#999999"/><path d="M205.51441,265.12289c-0.046,1.10581 -2.16353,1.91556 -4.72966,1.80874c-2.56611,-0.10683 -4.60902,-1.08989 -4.56296,-2.19567c0.04608,-1.10581 2.16356,-1.9156 4.72969,-1.80878c2.56603,0.10684 4.60895,1.0899 4.56291,2.19568z" fill="#b16e27"/></g><g data-paper-data="{&quot;index&quot;:null}"><path d="M218.11818,94.19034c12.80863,4.90346 10.82824,33.72118 -4.42326,64.36623c-5.26764,10.58439 -11.4295,20.00243 -17.76715,27.59514c-2.95791,3.54368 -5.95407,6.68975 -8.91561,9.37119c-1.27177,1.15148 -12.02178,10.99182 -13.27503,11.96667c-7.6791,5.9736 -5.41602,-0.24363 -10.84932,-2.32359c-5.61684,-2.1503 -10.22057,3.993 -10.27749,-5.49227c-0.00354,-0.59203 1.83428,-14.08712 1.85187,-14.70002c0.34299,-11.95988 4.70304,-27.80627 12.84896,-44.17392c15.25149,-30.64506 37.99865,-51.51279 50.80723,-46.60935z" fill="#462fb6" stroke="none" stroke-width="0" stroke-linecap="butt"/><path d="M175.51436,126.23067c0,0 5.96058,-8.70651 8.89377,-12.70346c4.16803,-5.67955 8.14182,-8.45118 8.14182,-8.45118c0,0 12.24647,-0.66127 20.63672,3.88608c9.47533,5.1355 12.7512,13.79106 12.7512,13.79106c0,0 -0.58009,4.4692 -2.16159,9.98392c-1.08783,3.79322 -3.05456,10.07488 -3.05456,10.07488c0,0 -7.34393,-11.93472 -18.81425,-16.60448c-18.93325,-7.70803 -26.39312,0.02331 -26.39312,0.02331z" fill="#0d0627" stroke="none" stroke-width="0" stroke-linecap="butt"/><path d="M161.37255,154.8429c0,0 2.12422,-6.04585 3.6332,-9.43403c1.50905,-3.3882 4.35773,-8.50787 4.35773,-8.50787c0,0 17.11888,-0.36997 25.50911,4.1774c9.4753,5.1355 19.005,16.12657 19.005,16.12657c0,0 -1.57369,4.31259 -3.16891,7.26111c-1.59522,2.94848 -5.42614,8.04494 -5.42614,8.04494c0,0 -7.45049,-9.67991 -18.92081,-14.34966c-18.93315,-7.70806 -24.98915,-3.31843 -24.98915,-3.31843z" fill="#0d0627" stroke="none" stroke-width="0" stroke-linecap="butt"/><path d="M154.92463,183.69027c0,0 -0.1404,-6.0012 0.79141,-9.59125c1.0667,-4.10997 2.05254,-8.77716 2.05254,-8.77716c0,0 13.66417,1.0071 21.98824,4.52862c8.32402,3.52151 18.64206,12.66011 18.64206,12.66011c0,0 -3.94004,5.61762 -5.57384,7.45435c-1.63381,1.83675 -4.91628,4.62428 -4.91628,4.62428c0,0 -3.90798,-5.64179 -15.3783,-10.31154c-13.77326,-5.22878 -17.60576,-0.58752 -17.60576,-0.58752z" fill="#0d0627" stroke="none" stroke-width="0" stroke-linecap="butt"/><path d="M150.39326,199.9306l2.06821,-7.51889c0,0 7.56014,-1.57978 11.28229,0.67192c3.72216,2.2517 -2.14046,7.49538 0.72745,5.97405c1.72177,-0.91327 4.81244,-2.66067 6.64951,-2.12041c4.38691,1.29021 6.27553,8.12502 7.40562,10.91264c0.94208,2.32377 -8.22802,3.84443 -8.35567,5.42857c-0.06062,0.7521 0.62681,7.00367 -1.88683,14.72347c-1.63974,5.0361 -2.33838,14.40747 -7.85454,11.39882c-1.75507,-0.95729 -2.84691,-2.84733 -2.84691,-2.84733c0,0 -3.77515,0.09338 -5.74178,-1.05546c-1.96667,-1.14888 -0.4234,-3.47987 -0.90708,-2.82864c-0.86789,1.16859 -3.87312,1.02556 -6.10628,0.02376c-2.23312,-1.0018 -3.23758,-4.21547 -3.23758,-4.21547c0,0 -6.25694,2.45317 -8.01567,-3.97894c-1.11362,-4.07284 7.01181,-10.30238 6.5963,-10.40087c-0.98904,-0.23445 -3.85418,-4.99595 -1.51276,-8.04673c2.96969,-3.86942 11.7357,-6.12042 11.7357,-6.12042z" fill="#c08f5a" stroke="none" stroke-width="0" stroke-linecap="butt"/><path d="M149.77151,209.79443c0,0 5.03133,1.62357 6.63755,4.02677c4.6669,6.98244 -2.13841,5.48903 -2.86322,5.86519c-0.73054,0.37914 -3.46038,-2.39684 -6.48451,-3.68768c-3.23361,-1.38016 -6.74851,-1.29526 -6.74851,-1.29526" fill="none" stroke="#b26a37" stroke-width="1.5" stroke-linecap="round"/><path d="M145.02924,224.97468l-3.00105,3.00717" fill="none" stroke="#b26a37" stroke-width="1" stroke-linecap="round"/><path d="M151.59932,232.25261l1.80344,-1.57478" fill="none" stroke="#b26a37" stroke-width="1" stroke-linecap="round"/><path d="M158.19135,235.81757l1.86767,-1.84567" fill="none" stroke="#b26a37" stroke-width="1" stroke-linecap="round"/><path d="M158.30762,223.25929c0,0 3.3625,0.57499 4.84486,1.22386c1.35723,0.59407 2.03207,3.55258 2.03207,3.55258" fill="none" stroke="#b26a37" stroke-width="1" stroke-linecap="round"/><path d="M151.06334,199.51723c0,0 7.64537,2.58118 10.7595,4.73116c3.19306,2.20447 8.16817,8.33631 8.16817,8.33631" fill="none" stroke="#b26a37" stroke-width="1" stroke-linecap="round"/></g><g data-paper-data="{&quot;index&quot;:null}" stroke="none" stroke-linecap="butt"><path d="M327.99567,234.25911c-5.44309,3.94221 -18.25994,12.68176 -26.75271,13.62302c-10.43014,1.15599 -24.08841,-18.07622 -24.08841,-18.07622c0,0 4.74604,-2.33989 10.03248,-9.10541c2.99862,-3.83753 3.39947,-14.38062 6.95433,-12.23315c4.72109,2.85195 10.0536,0.79228 10.10372,-0.55652c0.37111,-9.98702 6.30876,-18.92625 6.30876,-18.92625c0,0 -2.43662,-7.00537 -3.22463,-11.17692c-1.00232,-5.30577 -2.30227,-18.08124 -2.30227,-18.08124c0,0 5.93336,9.29789 8.94691,13.06018c2.36398,2.95129 7.66361,7.67694 7.66361,7.67694c0,0 9.53185,-6.50405 15.99106,-10.05879c6.45916,-3.55475 11.72997,-5.19721 11.72997,-5.19721l-10.71943,20.94159c0,0 10.38588,-4.16836 17.27311,-6.07185c6.88724,-1.90349 10.18379,-1.51662 10.18379,-1.51662c0,0 -3.64364,6.9627 -6.59631,11.00801c-2.95262,4.04532 -7.60371,8.44705 -7.60371,8.44705c0,0 7.29462,0.62171 11.92549,1.3133c4.63087,0.69159 9.6766,2.44775 9.6766,2.44775c0,0 -8.79052,2.82373 -14.68095,5.67186c-4.79444,2.31823 -12.07064,7.47717 -12.07064,7.47717c0,0 -13.30772,15.3911 -18.75077,19.33325z" fill="#1c0e4c" stroke-width="NaN"/><path d="M333.05207,229.10999c0,0 -5.26127,5.17459 -8.12182,7.30826c-2.79742,2.08659 -8.85617,5.35563 -8.85617,5.35563c0,0 1.11326,-7.83821 1.11326,-15.44714c0,-2.70867 -0.92246,-8.7779 -4.74613,-12.64349c-3.52786,-3.56655 -8.31093,-5.88518 -8.31093,-5.88518l0.81063,-4.15498c0,0 10.94265,-7.13741 20.25723,0.42014c10.60802,8.60703 7.85381,25.04687 7.85381,25.04687z" fill="#684af8" stroke-width="0"/><path d="M293.12899,209.21216c0,0 6.19279,7.78 6.19279,16.00378c0,8.22378 -9.71845,16.56046 -11.0635,16.56046c-0.43539,0 -3.22499,-2.91339 -5.8595,-5.62812c-2.29812,-2.36808 -5.06821,-5.97664 -5.06821,-5.97664c0,0 5.52506,-4.10773 7.37899,-6.7648c7.09734,-10.1721 8.41935,-14.19468 8.41935,-14.19468z" fill="#684af8" stroke-width="0"/></g><g data-paper-data="{&quot;index&quot;:null}" stroke="none" stroke-width="0" stroke-linecap="butt"><path d="M286.78401,57.61397c17.92003,-5.32051 56.26714,-8.3061 59.36323,-5.68581c1.18425,1.00227 -25.96594,7.69988 -42.26599,15.66582c-21.10322,9.20984 -39.91734,24.02828 -39.91734,24.02828c0,0 -10.10203,-12.21534 -10.10203,-14.32656c0,-4.78717 11.95462,-13.45642 32.92211,-19.68173z" data-paper-data="{&quot;index&quot;:null}" fill="#ffffff"/><path d="M282.93644,55.45625c1.76549,-2.35404 3.49581,-6.1455 3.49581,-6.1455c0,0 11.28961,-2.22663 27.27605,-2.22663c15.98644,0 28.84223,1.23862 32.84256,3.89657c1.33033,0.88388 -17.40997,-0.7541 -32.57845,2.29751c-15.54317,3.12701 -35.05509,8.55723 -35.05509,8.55723c0,0 2.25356,-4.0253 4.01905,-6.37929z" fill="#1a0c47"/><path d="M251.40652,72.57747c-0.94965,-0.72245 10.37614,-6.26839 20.82776,-7.41125c6.64216,-0.72632 19.24831,0.28549 19.91399,0.82422c0.77124,0.62408 -11.06648,8.46357 -14.84774,12.68616c-3.78127,4.22259 -13.71392,14.05973 -13.71392,14.05973c0,0 -3.77607,-7.12663 -7.22885,-12.91293c-2.21517,-3.71231 -4.46104,-6.87298 -4.95124,-7.24593z" data-paper-data="{&quot;index&quot;:null}" fill="#e8e8e8"/><path d="M234.3523,70.50992c0,0 17.61044,-11.29607 26.62663,-15.12248c13.72613,-5.82522 27.46159,-6.0304 27.46159,-6.0304l-8.53338,12.05449c0,0 -10.11609,3.6227 -14.24152,6.26378c-4.12539,2.64107 -11.27376,9.2361 -11.27376,9.2361c0,0 -4.18637,-3.01043 -8.66367,-4.40206c-4.47736,-1.39161 -11.37588,-1.99955 -11.37588,-1.99955z" data-paper-data="{&quot;index&quot;:null}" fill="#684af8"/></g><g data-paper-data="{&quot;index&quot;:null}" stroke="none" stroke-width="0" stroke-linecap="butt"><path d="M134.00156,54.83072c0,-0.42624 8.21829,-3.60897 18.95872,-4.07233c9.91563,-0.4278 22.04819,1.47462 22.04819,1.47462l6.49428,14.10195c0,0 -4.7945,-1.82946 -18.74067,-6.67988c-6.3063,-2.19329 -28.76047,-2.14897 -28.76047,-4.82431z" fill="#1a0c47"/><path d="M195.26985,91.49039c0,4.78717 -9.79965,-9.16178 -25.52661,-19.16487c-9.89849,-6.29594 -37.04873,-15.77685 -35.86443,-16.77912c3.09609,-2.62035 30.88087,2.80044 47.95179,10.41737c17.07089,7.61693 13.43924,20.73944 13.43924,25.52661z" fill="#ffffff"/><path d="M201.06528,80.64894c-1.25437,0.95425 -5.77866,10.97405 -5.77866,10.97405c0,0 -1.96352,-5.96727 -5.08573,-11.83316c-3.00551,-5.64647 -6.71254,-11.5054 -5.9413,-12.12948c1.59325,-1.28923 18.43686,11.74761 16.80569,12.98859z" fill="#e8e8e8"/><path d="M215.64423,70.78813c0,0 -5.16841,2.50859 -8.59262,4.73639c-3.42415,2.2278 -6.43704,5.28342 -6.43704,5.28342c0,0 -5.68694,-3.89614 -10.43877,-8.67947c-2.27432,-2.28936 -7.27759,-4.4692 -11.17994,-8.49041c-3.95852,-4.07911 -6.79498,-9.98847 -6.02845,-10.66286c3.67339,-3.2319 17.91038,2.43175 26.90501,6.30871c8.99455,3.87697 15.77188,11.50421 15.77188,11.50421z" fill="#684af8"/></g><path d="M274.97507,235.31549c11.22548,9.67707 12.34057,27.67681 9.97472,29.26753c-7.36673,4.95309 -26.31657,11.57929 -40.42134,10.99195c-18.63473,-0.77595 -40.24233,0.80071 -39.80046,-5.74292c1.16243,-17.2128 22.40413,-19.42115 41.03882,-18.64522c4.30155,0.17904 7.85331,-31.84896 29.20823,-15.87137z" fill="#1c0e4c" stroke="none" stroke-width="0" stroke-linecap="butt"/><path d="M250.45912,264.36817c0,0 -3.51816,-5.98837 -8.24546,-8.12947c-4.7273,-2.14107 -17.45929,-3.51263 -17.45929,-3.51263c0,0 1.38971,-4.23409 8.17363,-5.67662c6.57627,-1.3984 16.29783,-0.74414 16.44498,-0.72168c14.78663,2.25618 15.21286,18.53104 15.21286,18.53104z" fill="#b16e27" stroke="none" stroke-width="0" stroke-linecap="butt"/><path d="M235.14149,273.54985c7.8418,0.14815 15.92664,-0.99105 23.29233,-2.54793c15.63767,-3.30522 28.03391,-8.49273 27.98177,-7.23984c-0.04717,1.13399 -13.99812,12.87064 -26.59105,14.80846c-7.87257,1.21143 -24.8573,1.05068 -31.1716,0.949c-34.90461,-0.562 -24.0176,-9.24571 -24.0176,-9.24571c0,0 14.09224,2.96593 30.50612,3.27598z" fill="#a75c1e" stroke="none" stroke-width="0" stroke-linecap="butt"/><path d="M268.41424,269.25265c-0.15603,3.74741 -4.96384,6.59038 -10.73857,6.34994c-5.77472,-0.24044 -10.32956,-3.47327 -10.17353,-7.22067c0.15603,-3.74741 4.96387,-6.59043 10.73857,-6.34994c5.77469,0.24042 10.32953,3.47325 10.1735,7.22065z" fill="#999999" stroke="none" stroke-width="0" stroke-linecap="butt"/><path d="M262.39367,269.33617c-0.04601,1.1058 -2.16353,1.91556 -4.72966,1.80874c-2.56611,-0.10683 -4.60902,-1.08989 -4.56297,-2.19567c0.04608,-1.10581 2.16356,-1.9156 4.72969,-1.80878c2.56603,0.10684 4.60895,1.08991 4.56291,2.19568z" fill="#b16e27" stroke="none" stroke-width="0" stroke-linecap="butt"/><path d="M292.00645,93.90786c0,1.0872 -2.19087,1.34998 -4.27048,1.91963c-2.47774,0.67866 -5.74931,2.1161 -5.74931,2.1161c0,0 3.24683,1.4673 4.47802,3.23791c1.23118,1.77064 2.23811,6.4211 2.23811,6.4211c0,0 -3.75156,-0.24103 -6.15514,-0.22153c-0.47199,0.00384 1.85747,2.61943 2.99252,5.09256c1.39235,3.03372 0.76893,6.04805 0.76893,6.04805c0,0 -3.68735,-3.49109 -7.57514,-6.55913c-0.6905,-0.54493 1.74626,3.09584 2.58967,6.02681c1.02057,3.54644 -0.1727,6.94146 -0.1727,6.94146c0,0 -5.96546,-5.40046 -6.42986,-5.3559c-4.19565,0.40284 -22.91237,-7.16583 -24.38236,-9.1013c-2.32255,-3.05798 15.505,-19.62727 15.505,-19.62727c0,0 5.27095,-1.53078 12.80305,-1.53078c7.53205,0 13.35968,2.2098 13.35968,4.59241z" data-paper-data="{&quot;index&quot;:null}" fill="#5133c8" stroke="none" stroke-width="NaN" stroke-linecap="butt"/><g data-paper-data="{&quot;index&quot;:null}" stroke="none" stroke-width="0" stroke-linecap="butt"><path d="M301.60488,169.26974c-0.55664,59.60276 -32.19165,72.64341 -71.90202,72.64341c-39.71037,0 -71.34543,-26.95701 -71.90207,-72.64341c11.20097,-40.67355 40.53679,-72.76554 71.90211,-72.64341c38.03421,0.14808 70.05013,48.66829 71.90207,72.64341z" fill="#684af8"/><path d="M253.6215,114.77318c0,0 -2.1108,2.11378 -4.93171,5.91145c-2.821,3.79761 -6.87529,9.98353 -6.87529,9.98353c0,0 3.22585,-1.73753 10.65035,-0.91383c2.29442,0.25451 5.99793,2.03941 5.99793,2.03941c0,0 -1.76499,1.54451 -6.43788,4.81095c-6.3184,4.41673 -9.75841,8.54114 -9.75841,8.54114c0,0 1.32695,0.03196 4.61939,1.39552c1.99673,0.82694 5.34394,3.41241 5.34394,3.41241c0,0 -11.13583,1.61521 -17.20434,9.17686c-5.12334,6.38386 4.95811,47.31802 -6.73065,65.99621c-9.22502,14.74131 -35.04564,3.69436 -42.87708,-1.9358c-20.20117,-14.52312 -24.56512,-27.6069 -25.73419,-47.00755c-1.66636,-27.65342 9.74775,-34.77512 9.74775,-34.77512c0,0 -1.95821,-2.76375 -2.81767,-5.07645c-1.20359,-3.23853 -0.84505,-6.26537 -0.84505,-6.26537l7.63089,3.89755l1.00144,-2.8071c0,0 -0.68662,-2.50115 -2.05751,-4.836c-2.18174,-3.71587 -3.73719,-5.84508 -3.73719,-5.84508c0,0 3.51202,-0.93034 6.2646,-0.71619c2.75262,0.21415 6.8579,1.73713 6.8579,1.73713l0.35413,-17.05052c0,0 4.86954,4.05163 6.88027,6.31959c2.01073,2.26797 4.4809,6.49496 4.4809,6.49496c0,0 3.45669,-2.62383 11.44836,-2.26417c6.94774,0.31269 16.61002,6.45634 16.61002,6.45634c0,0 6.52496,-4.26048 13.66591,-5.74562c7.14095,-1.48513 18.45307,-0.93424 18.45307,-0.93424z" fill="#ffffff"/></g><path d="M228.26178,108.68693c-19.36819,0 -35.18049,-5.60548 -35.06919,-19.48287c0.08628,-10.75975 15.701,-19.48287 35.06919,-19.48287c19.36819,0 35.06923,8.72277 35.06923,19.48287c0,10.76011 -15.70104,19.48287 -35.06923,19.48287z" fill="#684af8" stroke="none" stroke-width="0" stroke-linecap="butt"/><path d="M211.84055,88.3693c-4.44956,-0.2783 2.78325,-17.25629 2.78325,-17.25629c0,0 1.80601,-1.47651 8.90458,-1.51853c5.7069,-0.03375 10.43912,0.54438 10.43912,0.54438c0,0 -3.08762,2.25878 -10.1941,7.57683c-4.39661,3.29018 -9.49117,10.80633 -11.93292,10.65358z" fill="#1c0e4c" stroke="none" stroke-width="0" stroke-linecap="butt"/><path d="M195.89522,89.58193c1.26216,-5.50804 5.19914,-9.27088 8.79354,-8.40454c3.59439,0.86633 5.48506,6.03383 4.22294,11.54192c-1.2621,5.50809 -5.42182,10.82957 -9.0162,9.96323c-3.59435,-0.86633 -5.2624,-7.59246 -4.00028,-13.10056z" fill="#1c0e4c" stroke="none" stroke-width="0" stroke-linecap="butt"/><g stroke="none" stroke-width="0" stroke-linecap="butt"><path d="M205.95479,99.00543c-1.92143,0 -3.47905,-1.55761 -3.47905,-3.47909c0,-1.92143 1.55756,-3.47905 3.47905,-3.47905c1.92149,0 3.47909,1.55756 3.47909,3.47905c0,1.92149 -1.55761,3.47909 -3.47909,3.47909z" fill="#ffff9b"/><path d="M205.87193,97.12807c-0.83879,0 -1.51869,-0.67994 -1.51869,-1.51869c0,-0.83879 0.68,-1.51869 1.51869,-1.51869c0.83879,0 1.51869,0.67994 1.51869,1.51869c0,0.83875 -0.68,1.51869 -1.51869,1.51869z" fill="#000000"/></g><path d="M239.79441,80.34138c4.83277,4.18549 3.77402,13.3244 -2.3647,20.41245c-6.13873,7.088 -15.03285,9.44096 -19.86557,5.25546c-4.83277,-4.18549 -3.77402,-13.3244 2.3647,-20.41245c6.13868,-7.088 15.03285,-9.44096 19.86557,-5.25546z" fill="#1c0e4c" stroke="none" stroke-width="0" stroke-linecap="butt"/><g stroke="none" stroke-width="0" stroke-linecap="butt"><path d="M229.26343,102.902c-2.76689,0 -5.00987,-2.24303 -5.00987,-5.00987c0,-2.76689 2.24303,-5.00987 5.00987,-5.00987c2.76693,0 5.00992,2.24303 5.00992,5.00987c0,2.76689 -2.24309,5.00987 -5.00992,5.00987z" fill="#ffff9b"/><path d="M229.14418,100.19836c-1.20775,0 -2.18682,-0.97902 -2.18682,-2.18682c0,-1.20775 0.97902,-2.18682 2.18682,-2.18682c1.2078,0 2.18687,0.97902 2.18687,2.18682c0,1.20775 -0.97907,2.18682 -2.18687,2.18682z" fill="#000000"/></g><path d="M270.54621,87.46682c10.02616,-1.3315 12.26771,1.1243 12.26771,0.62393c0,-1.29991 -6.34524,2.67052 -10.40127,4.74721c-4.05608,2.0767 -6.99419,4.1593 -6.99419,4.1593c0,0 5.07523,0.26206 8.00887,1.48652c2.93364,1.22453 7.99491,5.19336 7.99491,5.19336c0,0 -8.29935,-0.3039 -13.60969,-0.17973c-5.31041,0.12424 -10.18733,0.17973 -10.18733,0.17973c0,0 -7.42526,12.32377 -48.5807,8.7324c-1.90107,-0.03232 -3.7925,-1.20292 -3.7925,-1.20292c0,0 -4.08445,-0.04154 -6.26061,-1.18973c-2.17616,-1.14819 -4.28239,-3.00909 -4.28239,-3.00909c0,0 -0.11747,0.5138 -1.198,1.08705c-1.08048,0.57325 -4.82398,0.29868 -4.82398,0.29868l1.78688,-3.90293l-4.45155,-6.95418c0,0 1.94122,-0.00995 3.14471,0.24933c1.20349,0.25929 2.16041,0.89372 2.16041,0.89372l-1.7223,-8.17926c0,0 2.50606,1.81203 4.93719,4.36457c1.24236,1.30439 2.83505,3.56537 3.9513,4.85611c1.90009,2.19713 3.02321,2.33424 3.06521,2.16856c0.46506,-1.83556 4.41601,-2.23011 6.61488,-2.19313c3.64758,0.06135 10.55586,5.43018 15.46034,5.52609c7.66106,-0.28898 11.51366,-5.33131 18.79647,-8.39489c7.28282,-3.06356 8.70548,-3.057 8.70548,-3.057c0,0 3.61562,-4.44303 7.69778,-8.36996c7.96902,-7.66602 13.57645,-6.91955 13.57645,-6.91955c0,0 -3.51485,4.18961 -5.38135,6.49302c-1.66517,2.05485 -5.28255,6.66704 -5.28255,6.66704c0,0 -1.22636,-2.8425 8.7998,-4.17401z" fill="#ffffff" stroke="none" stroke-width="0" stroke-linecap="butt"/><path d="M204.64373,105.84503c-1.0258,0 -2.89461,-1.13162 -2.89461,-2.01976c0,-0.88813 1.11833,-1.28647 2.89461,-1.28647c1.77627,0 2.89461,0.39832 2.89461,1.28647c0,0.8881 -1.976,2.01976 -2.89461,2.01976z" fill="#000000" stroke="none" stroke-width="0" stroke-linecap="butt"/><path d="M222.23404,112.72543c0,0 -3.59635,0.57939 -6.26954,0.16977c-1.76155,-0.26997 -3.8131,-2.16343 -6.7387,-3.20397c-2.38506,-0.84833 -6.76866,1.16276 -8.9227,0.6905c-2.6874,-0.58921 -5.34519,-4.11349 -5.34519,-4.11349" fill="none" stroke="#000000" stroke-width="1" stroke-linecap="round"/><g data-paper-data="{&quot;index&quot;:null}" stroke="none" stroke-width="0" stroke-linecap="butt"><path d="M180.25036,192.89051c10.50288,3.28798 17.11714,4.87071 17.11714,4.87071c0,0 -1.6205,6.12883 -1.87501,9.48374c-0.03934,0.51801 1.45748,10.69503 1.45748,10.69503c0,0 -14.10221,-3.26175 -23.94659,-8.3395c-6.0879,-3.14009 -10.2857,-8.17792 -11.53099,-9.95337c-4.78598,-6.82345 -3.07075,-21.64708 -3.07075,-21.64708c0,0 7.14062,10.28617 21.8487,14.89046z" fill="#f0993f"/><path d="M188.73934,208.81197c-1.43175,0 -2.5924,-1.50452 -2.5924,-3.3605c0,-1.85597 1.16067,-3.36055 2.5924,-3.36055c1.43175,0 2.5924,1.50456 2.5924,3.36055c0,1.85592 -1.16067,3.3605 -2.5924,3.3605z" fill="#a94a00"/><path d="M189.68607,207.33443c-0.82413,0 -1.49221,-0.86603 -1.49221,-1.93435c0,-1.06833 0.66809,-1.93435 1.49221,-1.93435c0.82417,0 1.49226,0.86603 1.49226,1.93435c0,1.06833 -0.66813,1.93435 -1.49226,1.93435z" fill="#ffffff"/><path d="M176.93824,204.80424c-1.43175,0 -2.59245,-1.50456 -2.59245,-3.36055c0,-1.85597 1.16072,-3.36055 2.59245,-3.36055c1.43175,0 2.5924,1.50456 2.5924,3.36055c0,1.85597 -1.16067,3.36055 -2.5924,3.36055z" fill="#a94a00"/><path d="M177.95842,203.33662c-0.82417,0 -1.49226,-0.86603 -1.49226,-1.93435c0,-1.06833 0.66813,-1.93435 1.49226,-1.93435c0.82413,0 1.49221,0.86603 1.49221,1.93435c0,1.06833 -0.66809,1.93435 -1.49221,1.93435z" fill="#ffffff"/></g><g data-paper-data="{&quot;index&quot;:null}" stroke="none" stroke-width="0" stroke-linecap="butt"><path d="M235.36938,200.44782c0.09125,-0.89218 15.3164,-1.15526 28.25863,-3.2571c18.62597,-3.02489 36.3875,-7.95025 36.3875,-7.95025c0,0 -2.14229,17.35068 -5.78917,20.33648c-1.72605,1.41317 -9.13433,5.74009 -17.30964,8.03109c-8.17532,2.29098 -12.8385,2.11413 -21.56193,2.86203c-8.72342,0.7479 -22.43463,-0.2796 -22.43463,-0.2796c0,0 1.86517,-14.03379 2.44929,-19.74267z" fill="#f0993f"/><g><g><path d="M257.49326,235.12503c0.81632,3.96848 -5.84487,16.28214 -5.84487,16.28214c0,0 -15.70306,-6.20582 -16.69962,-8.76728c-0.44723,-1.14952 -2.31207,-7.95905 -4.46463,-12.63645c-2.13271,-4.63426 -4.55814,-7.12956 -3.9813,-9.78971c2.31526,-10.67702 2.9259,-18.34873 5.38437,-18.34873c3.6892,0 24.11904,26.03103 25.60607,33.26009z" fill="#f0993f"/><g><path d="M236.43222,212.18099c-2.60424,11.49355 -14.03276,18.69969 -25.5263,16.09545c-11.49355,-2.60429 -18.69969,-14.03281 -16.09545,-25.52635c2.60429,-11.49355 14.03281,-18.69969 25.52635,-16.09545c11.49355,2.60429 18.69969,14.03281 16.09545,25.52635z" fill="#fde02b"/><path d="M224.39481,208.7648c-1.20934,5.33732 -6.5165,8.68366 -11.85384,7.47433c-5.33732,-1.20939 -8.68366,-6.5165 -7.47433,-11.85384c1.20934,-5.33738 6.5165,-8.68372 11.85384,-7.4744c5.33732,1.20934 8.68366,6.5165 7.47433,11.85384z" fill="#f4a51d"/><path d="M212.17705,206.5377c0.50693,-2.23735 4.7425,-3.18451 9.46031,-2.11547c4.71786,1.06895 8.1315,3.7493 7.62453,5.98659c-0.50698,2.23735 -4.7425,3.18451 -9.46031,2.11547c-4.71786,-1.069 -8.1315,-3.74935 -7.62453,-5.98665z" fill="#fffed5"/></g></g><g><path d="M244.73982,238.04056c-2.02904,0 -3.67389,-1.64491 -3.67389,-3.67395c0,-2.02904 1.64485,-3.67389 3.67389,-3.67389c2.02904,0 3.67389,1.64485 3.67389,3.67389c0,2.02904 -1.64485,3.67395 -3.67389,3.67395z" fill="#934200"/><path d="M246.40981,235.59123c-0.98374,0 -1.78124,-0.79744 -1.78124,-1.78124c0,-0.9838 0.79744,-1.7813 1.78124,-1.7813c0.98374,0 1.78124,0.7975 1.78124,1.7813c0,0.98374 -0.79744,1.78124 -1.78124,1.78124z" fill="#1c0e4c"/></g><g><path d="M238.05995,227.79802c-2.02904,0 -3.67395,-1.64485 -3.67395,-3.67389c0,-2.02904 1.64491,-3.67389 3.67395,-3.67389c2.02904,0 3.67389,1.64485 3.67389,3.67389c0,2.02904 -1.64485,3.67389 -3.67389,3.67389z" fill="#934200"/><path d="M239.72999,225.34872c-0.9838,0 -1.7813,-0.79744 -1.7813,-1.78124c0,-0.98374 0.7975,-1.78124 1.7813,-1.78124c0.98374,0 1.78124,0.79744 1.78124,1.78124c0,0.98374 -0.79744,1.78124 -1.78124,1.78124z" fill="#684af8"/></g></g></g><g data-paper-data="{&quot;index&quot;:null}"><g data-paper-data="{&quot;index&quot;:null}" stroke="none" stroke-width="0" stroke-linecap="butt"><path d="M262.81454,114.30555c12.90254,-4.65052 30.22097,18.46775 38.68186,51.63615c2.92229,11.45592 4.4057,22.61238 4.56395,32.50128c0.07387,4.61536 -0.1409,8.95462 -0.6328,12.9193c-0.21124,1.70265 -1.92696,16.17505 -2.23948,17.7317c-1.91504,9.53867 -4.26104,3.35222 -9.73409,5.32492c-5.65806,2.03936 -5.13309,9.69828 -11.37017,2.55179c-0.38926,-0.44603 -7.80976,-11.86662 -8.1967,-12.3423c-7.55012,-9.2818 -14.59597,-24.1302 -19.11491,-41.84559c-8.46085,-33.1684 -4.86007,-63.82667 8.04241,-68.47719z" fill="#684af8"/><path d="M251.47127,166.39246c0,0 -1.1712,-10.48621 -1.5598,-15.42868c-0.5522,-7.0232 0.64743,-11.7172 0.64743,-11.7172c0,0 8.84302,-8.4979 18.16686,-10.53288c10.52967,-2.29812 18.6628,2.11796 18.6628,2.11796c0,0 2.4791,3.7636 4.8825,8.97284c1.65309,3.58314 4.2656,9.6248 4.2656,9.6248c0,0 -13.35543,-4.24312 -25.09181,-0.28953c-19.37244,6.52588 -19.97359,17.25261 -19.97359,17.25261z" fill="#1c0e4c"/><path d="M259.44493,197.29617c0,0 -2.33923,-5.96597 -3.40891,-9.5174c-1.06962,-3.55145 -2.25543,-9.28901 -2.25543,-9.28901c0,0 12.72339,-11.459 22.04723,-13.49398c10.52963,-2.29812 24.92426,-0.19704 24.92426,-0.19704c0,0 1.62435,4.29385 2.34158,7.56859c0.71725,3.27475 1.14396,9.63622 1.14396,9.63622c0,0 -11.96377,-2.46585 -23.70015,1.48774c-19.37244,6.52594 -21.09252,13.80499 -21.09252,13.80499z" fill="#1c0e4c"/><path d="M273.39913,223.3543c0,0 -4.02513,-4.45334 -5.66382,-7.78073c-1.87596,-3.8092 -4.17703,-7.98766 -4.17703,-7.98766c0,0 11.0062,-8.16012 19.61003,-10.92881c8.60383,-2.76869 22.38577,-2.58534 22.38577,-2.58534c0,0 0.68432,6.82739 0.64638,9.28537c-0.03789,2.45799 -0.70363,6.71265 -0.70363,6.71265c0,0 -6.64388,-1.72084 -18.38026,2.23275c-13.84563,5.03414 -13.71733,11.05184 -13.71733,11.05184z" fill="#1c0e4c"/></g><g><path d="M278.19884,262.2603c-3.86154,-13.80078 3.41304,-21.84573 3.41304,-21.84573l-4.05454,-6.66117c0,0 4.0341,-6.5861 8.22543,-7.75131c4.19135,-1.16521 3.98789,6.69764 4.84719,3.56697c0.51587,-1.87944 1.36333,-5.32734 3.0163,-6.29403c3.94728,-2.30836 10.21719,1.00373 13.02111,2.09262c2.33743,0.90777 -2.84386,8.62507 -1.7783,9.80427c0.50588,0.55985 5.5276,4.34629 9.42299,11.46945c2.54123,4.64688 8.88332,11.58146 2.91091,13.53342c-1.90023,0.62106 -4.02465,0.11973 -4.02465,0.11973c0,0 -2.52074,2.81182 -4.70547,3.4555c-2.18485,0.64368 -2.82323,-2.07802 -2.68091,-1.27943c0.25541,1.43309 -1.90943,3.52238 -4.16988,4.46091c-2.26046,0.93853 -5.28839,-0.53403 -5.28839,-0.53403c0,0 -2.50483,6.23649 -8.39253,3.10599c-3.72813,-1.98227 -2.49318,-6.37476 -2.84976,-6.13986c-0.30574,0.20138 -0.04341,-6.03045 -1.39908,-6.39242c-1.17332,-0.31315 0.66184,4.71 -0.64271,5.96148c-1.30452,1.25148 -4.36332,1.14127 -4.87078,-0.67234z" fill="#ffc281" stroke="none" stroke-width="0" stroke-linecap="butt"/><path d="M296.16259,261.49216l0.13098,4.24644" fill="none" stroke="#d9874c" stroke-width="1" stroke-linecap="round"/><path d="M306.05561,259.30824l-0.09041,2.39254" fill="none" stroke="#d9874c" stroke-width="1" stroke-linecap="round"/><path d="M313.01747,256.72178l0.0627,2.62501" fill="none" stroke="#d9874c" stroke-width="1" stroke-linecap="round"/><path d="M281.7704,239.64343c0,0 7.12136,-3.79491 10.82163,-4.58733c3.79419,-0.81251 11.66882,-0.22907 11.66882,-0.22907" fill="none" stroke="#d9874c" stroke-width="1" stroke-linecap="round"/></g></g><g stroke-width="0" stroke-linecap="butt"><g fill="#000000"><path d="M158.94155,216.13371l84.38309,-80.84737l6.33071,6.60758l-84.38309,80.84737z" stroke="#b26a37"/><path d="M166.62115,221.65646c0,0 -1.83968,1.62415 -2.82502,2.30231c-8.40918,5.78801 -19.71355,5.07417 -26.65744,-2.17341c-7.06789,-7.37699 -7.17959,-18.97799 -0.69587,-27.15986c0.63264,-0.79828 2.08589,-2.29017 2.08589,-2.29017c0,0 2.50685,-1.89924 4.49844,0.32262c1.57643,1.75866 -0.72491,4.28203 -0.72491,4.28203c0,0 -10.22734,12.77071 -1.42409,21.26261c8.83635,8.52384 18.6179,-2.6315 18.6179,-2.6315l7.12513,6.08534z" stroke="none"/></g><g stroke="none"><path d="M193.71587,182.24753l57.66815,-51.03615l1.81501,2.46366l-53.1923,55.13848z" fill="#462fb6"/><path d="M207.07014,193.95719l47.81269,-59.07305l2.49874,3.57162l-44.23134,59.26486z" fill="#462fb6"/><path d="M186.10481,169.30391l61.53011,-42.42315l2.49586,2.72863l-60.74643,46.74461z" data-paper-data="{&quot;index&quot;:null}" fill="#462fb6"/><path d="M200.00678,188.81345l53.79585,-56.09748l2.1214,1.78636l-49.12177,59.76398z" fill="#d9874c"/><path d="M189.286,176.36473l60.76989,-47.28581l2.18827,1.7418l-58.40247,51.55814z" data-paper-data="{&quot;index&quot;:null}" fill="#d9874c"/></g><path d="M243.089,126.23345l13.78403,-5.05649l5.63614,6.04321l-4.68111,14.39692z" fill="#000000" stroke="none"/></g></g></g></svg>