<svg version="1.1" xmlns="http://www.w3.org/2000/svg" xmlns:xlink="http://www.w3.org/1999/xlink" width="38" height="31.61915" viewBox="0,0,38,31.61915"><g transform="translate(-217.3779,-163.30539)"><g data-paper-data="{&quot;isPaintingLayer&quot;:true}" fill-rule="nonzero" stroke-linejoin="miter" stroke-miterlimit="10" stroke-dasharray="" stroke-dashoffset="0" style="mix-blend-mode: normal"><path d="M244.65739,185.98564c0.28029,0.6212 1.04638,1.14271 0.95028,1.78344c-0.07173,0.4792 -0.83391,0.67592 -1.27385,0.46498c-0.5266,-0.25968 -0.68859,-1.0786 -0.93415,-1.64487c-0.17477,-0.40552 -0.41582,-0.87062 -0.33694,-1.29388c0.09412,-0.69447 0.32111,-1.97366 1.08509,-0.75861c0.18429,0.42394 0.30193,0.9898 0.50957,1.44895z" data-paper-data="{&quot;index&quot;:null}" fill="#005613" stroke="none" stroke-width="0.65663" stroke-linecap="round"/><path d="M249.0545,191.20914c-0.28564,0.52305 -0.71136,0.98911 -1.28269,1.34964c-0.68063,0.42889 -1.40179,0.73119 -1.9151,0.33636c-0.90469,-0.6949 -0.95379,-1.72169 -1.21673,-2.16308c-0.26294,-0.44139 -0.42045,-0.83956 -0.84707,-1.13116c-0.42662,-0.2916 -0.86338,-0.91748 -0.80865,-1.15173c0.07721,-0.32942 0.06935,-0.09056 0.58856,-0.52754c0.51921,-0.437 0.79495,-0.6451 1.47845,-1.06201c0.6835,-0.41692 0.21181,-0.1511 0.66506,-0.30405c0.13387,-0.03126 0.69981,0.28045 0.98238,0.47545c0.28257,0.195 0.32919,0.40345 0.61509,0.62694c0.2859,0.22348 0.59822,0.33646 0.79765,0.47743c0.5435,0.4114 1.92241,1.10619 1.7411,1.60302c-0.32651,1.03028 -1.65421,-0.0773 -1.67833,0.03981c-0.02414,0.11846 0.65508,-0.12006 1.1145,0.57124c0.18636,0.37624 -0.01409,0.40251 -0.23424,0.85967z" data-paper-data="{&quot;index&quot;:null}" fill="#a8c8d8" stroke="none" stroke-width="0.67216" stroke-linecap="round"/><g data-paper-data="{&quot;index&quot;:null}"><path d="M230.618,188.72346c-0.35438,1.27794 -0.34301,4.54667 -0.34301,4.54667c0,0 -0.62391,0.20671 -0.59016,-1.03868c0.01955,-0.72129 0.27647,-2.48342 0.62787,-3.63715c0.42124,-1.38303 1.77475,-3.88319 1.77475,-3.88319l0.82466,-0.01376c0,0 -2.0415,3.11502 -2.29411,4.02611z" fill="#989898" stroke="#989898" stroke-width="0" stroke-linecap="round"/><path d="M234.17484,186.53515c0.14762,0.84919 -0.25373,3.06645 -0.25373,3.06645l-2.97173,-1.84899c0,0 0.68411,-1.7509 1.34038,-2.6463c0.3119,-0.42527 0.71212,-0.61916 1.30367,0.00197c0.41612,0.43694 0.48431,0.87302 0.58141,1.42688z" fill="#f82020" stroke="none" stroke-width="1.13968" stroke-linecap="round"/><path d="M231.00265,187.67814c0,0 2.77314,0.48411 2.93,1.78643c0.08035,0.73159 -0.91116,2.6905 -1.39049,3.20748c-0.4824,0.5199 -1.7111,0.75394 -2.29527,0.65722c-0.34315,-0.05676 -0.25802,-0.80444 -0.22983,-1.24295c0.07173,-1.0936 0.2929,-2.38468 0.55577,-3.34357c0.26287,-0.9589 0.42984,-1.06462 0.42984,-1.06462z" fill="#f8f8f8" stroke="none" stroke-width="1.15102" stroke-linecap="round"/><path d="M235.99434,186.77162c-0.02075,0.36726 0.01303,2.12804 -0.26141,2.60667c-0.21155,0.36895 -0.80402,-0.15608 -0.80402,-0.15608c0,0 -0.59346,0.20503 -0.71663,0.19807c-0.46434,-0.02624 -0.13755,-1.32931 -0.08752,-2.21445c0.01001,-0.17701 -0.20965,-1.04805 -0.11821,-1.55457c0.05441,-0.30144 0.05857,-0.58383 0.45751,-0.79936c0.41088,-0.22198 0.55204,0.40734 0.55204,0.40734c0,0 0.42708,-0.6479 0.92319,-0.11856c0.43675,0.466 0.07924,1.20303 0.05506,1.63094z" fill="#ffffff" stroke="none" stroke-width="0" stroke-linecap="butt"/></g><path d="M237.27892,186.05226c0.36,-0.4811 -0.0547,-1.3017 0.3044,-1.7794c0.2006,-0.268 0.8477,-0.3606 1.004,-0.0852c0.3957,0.7044 0.3791,1.6079 0.3326,2.4196c-0.0254,0.4538 -0.1931,0.9526 -0.5726,1.1504c-0.6184,0.3308 -1.4755,0.5232 -2.1297,0.1995c-0.4199,-0.2025 -0.5774,-0.9612 -0.3455,-1.4122c0.2293,-0.439 1.1007,-0.0853 1.4068,-0.4927z" data-paper-data="{&quot;index&quot;:null}" fill="#e88820" stroke="none" stroke-width="0.49091" stroke-linecap="round"/><path d="M233.45508,187.29894c0.1699,-1.37022 0.17596,-2.38537 0.52297,-2.34234c0.12648,0.01568 0.09813,1.08404 -0.07177,2.45426c-0.1699,1.37021 -0.14178,2.10969 -0.26826,2.09401c-0.34701,-0.04302 -0.35284,-0.83572 -0.18294,-2.20594z" data-paper-data="{&quot;index&quot;:null}" fill="#424242" stroke="none" stroke-width="0" stroke-linecap="butt"/><path d="M234.54743,175.14448c0,-1.70864 -2.43331,-4.33621 -2.51236,-5.2306c-0.09865,-1.11609 3.11029,-0.02077 3.11029,-0.02077c0,0 3.07861,-0.19222 2.87875,0.62371c-0.18121,0.73975 -2.3331,3.03621 -2.3331,5.04466c0,5.97059 0.32063,6.9421 0.32063,6.9421c0,0 -0.08485,0.49691 -0.30752,-0.07576c-0.35754,-0.91952 -1.15669,-3.60412 -1.15669,-7.28335z" data-paper-data="{&quot;index&quot;:null}" fill="#e2a026" stroke="none" stroke-width="0" stroke-linecap="butt"/><path d="M238.49289,175.35294c0,3.45674 -0.88422,6.06914 -1.29197,7.04764c-0.29653,0.7116 -0.26929,0.21858 -0.26929,0.21858c0,0 0.21456,-0.87861 0.21456,-6.84921c0,-2.00845 -1.93709,-4.95512 -2.15048,-5.69487c-0.23536,-0.81593 3.08336,0.02651 3.08336,0.02651c0,0 2.29167,-0.81665 2.1755,0.29943c-0.0931,0.89439 -1.76167,3.2433 -1.76167,4.95194z" data-paper-data="{&quot;index&quot;:null}" fill="#e2a026" stroke="none" stroke-width="0" stroke-linecap="butt"/><path d="M236.3779,163.30539c10.49341,0 19,2.31852 19,5.17857c0,2.86005 -8.50659,5.17857 -19,5.17857c-10.49341,0 -19,-2.31852 -19,-5.17857c0,-2.86005 8.50659,-5.17857 19,-5.17857z" data-paper-data="{&quot;index&quot;:null}" fill-opacity="0.90196" fill="#e3a127" stroke="none" stroke-width="0" stroke-linecap="butt"/><path d="M241.50422,172.89403c-3.05915,0.87091 -5.47131,-0.87789 -5.47131,-0.87789c0,0 3.14949,0.63292 4.66126,0.52482c0.60175,-0.04302 3.49228,-1.03878 3.49228,-1.03878c0,0 -2.30297,0.77981 -3.37981,0.80792c-1.07684,0.02812 -2.68267,-0.64965 -2.68267,-0.64965c0,0 2.17942,0.03721 3.04954,-0.07937c0.8701,-0.11657 2.16264,-0.61892 2.16264,-0.61892c0,0 -1.16259,0.27181 -1.67591,0.2528c-0.51333,-0.019 -1.26556,-0.3617 -1.26556,-0.3617c0,0 0.86646,-0.16826 1.33164,-0.27679c0.46518,-0.10852 1.18403,-0.31012 1.18403,-0.31012c0,0 -0.70879,-0.05887 -1.03879,-0.13744c-0.32999,-0.07857 -0.81441,-0.30377 -0.81441,-0.30377l1.54013,-0.38114l1.12544,-0.49057c0,0 -0.63067,0.09413 -0.85523,0.08675c-0.22456,-0.00738 -0.56008,-0.13328 -0.56008,-0.13328c0,0 0.31226,-0.11377 0.46722,-0.20996c0.15497,-0.09619 0.35699,-0.30164 0.35699,-0.30164l-0.71733,-0.29959l0.85713,-0.46039l-0.47065,-0.37486l1.00579,-0.42432l-0.38602,0.58656l0.60791,-0.08801c0,0 -0.26065,0.23333 -0.39888,0.32517c-0.18584,0.1235 -0.76055,0.37033 -0.76055,0.37033c0,0 0.40864,0.07818 0.615,0.09162c0.16246,0.01057 0.52328,-0.01753 0.52328,-0.01753c0,0 -0.22952,0.26719 -0.43666,0.39517c-0.20714,0.12799 -0.57904,0.23235 -0.57904,0.23235c0,0 0.27234,0.04643 0.58577,0.06556c0.31342,0.01913 0.80437,0.0193 0.80437,0.0193c0,0 -0.54739,0.44298 -0.94552,0.64535c-0.39813,0.20237 -1.07828,0.38337 -1.07828,0.38337c0,0 0.66068,0.12593 0.9783,0.13542c0.28482,0.00851 0.91845,-0.02959 0.91845,-0.02959c0,0 -0.539,0.35343 -1.03923,0.54795c-0.50022,0.19451 -1.32425,0.37109 -1.32425,0.37109c0,0 1.14294,-0.08878 1.76427,-0.20637c0.54671,-0.10346 1.76858,-0.46221 1.76858,-0.46221c0,0 -1.25753,0.89125 -1.92455,1.14588c-0.78623,0.30013 -2.49428,0.54096 -2.49428,0.54096c0,0 1.94138,-0.2111 2.94072,-0.53931c0.56155,-0.18444 2.54163,-1.26122 2.54163,-1.26122c0,0 -1.09743,1.13523 -2.53416,1.94759c-0.90941,0.51419 -2.3728,0.8367 -2.4492,0.85844z" data-paper-data="{&quot;index&quot;:null}" fill="#dcdce1" stroke="none" stroke-width="0" stroke-linecap="butt"/><path d="M238.20211,172.16678c0.47618,-1.42479 1.59026,-3.13282 2.19326,-3.29382c0.508,-0.135 2.92007,3.42515 3.39007,3.57715c0.795,0.258 0.98333,0.1 1.78333,-0.05c0.683,-0.18 1.73735,-1.05413 2.43333,-1.6c0.69598,-0.54587 1.26074,-1.74703 1.40674,-1.17903c0.329,0.67367 0.14951,1.96211 -0.12528,3.16236c-0.27479,1.20025 -0.46246,2.068 -0.53146,2.75c-0.186,1.807 0.423,4.85167 -0.65,6.31667c-0.908,1.238 -3.076,1.091 -4.65,0.95c-1.949,-0.174 -4.571,-0.133 -5.6,-1.8c-1.209,-1.96 -0.05,-5.68333 -0.05,-5.68333c0,0 -0.07618,-1.72521 0.4,-3.15z" data-paper-data="{&quot;index&quot;:null}" fill="#f8b820" stroke="none" stroke-width="1" stroke-linecap="round"/><path d="M247.6315,177.10008c0.1221,-0.318 0.5774,-0.554 0.7765,-0.3c0.2972,0.378 0.2887,1.086 0.2823,1.65c0.0064,1.027 0.0459,2.137 -0.2823,3.05c-0.1115,0.31 -0.5661,0.024 -0.7059,-0.3c-0.228,-0.531 -0.1659,-1.229 -0.1765,-1.85c-0.0127,-0.747 -0.1207,-1.559 0.1059,-2.25z" data-paper-data="{&quot;index&quot;:null}" fill="#ffffff" stroke="none" stroke-width="0.86553" stroke-linecap="round"/><path d="M239.10368,174.65935c-0.2362,-0.14613 1.04371,-4.81038 1.35111,-4.92718c0.273,-0.10157 1.23342,1.25388 1.46582,1.71317c0.2214,0.43774 0.8775,0.97541 0.8122,1.46671c-0.02652,0.1855 -0.89015,0.28249 -1.62826,0.63523c-0.73811,0.35274 -1.88251,1.18473 -2.00088,1.11208z" data-paper-data="{&quot;index&quot;:null}" fill="#ffffff" stroke="none" stroke-width="0.85185" stroke-linecap="butt"/><path d="M236.4611,185.86923c-0.97535,-0.8409 -1.1538,-1.81247 -0.88439,-2.93127c0.12106,-0.4123 0.98027,-0.80934 1.78555,-0.92624c0.94398,-0.1296 2.06949,-0.07219 2.94861,0.17571c1.57511,0.4442 3.11428,0.9734 4.49121,1.62c0.34407,0.1615 0.24557,0.3495 0.12041,0.4909c-0.47804,0.6058 -0.93434,1.3112 -1.84467,1.6445c-0.91277,0.3334 -2.10525,0.2435 -3.16802,0.2455c-0.67805,0.00287 -1.51541,0.37747 -2.22796,0.33358c-0.50197,-0.03093 -0.94199,-0.41346 -1.22073,-0.65269z" data-paper-data="{&quot;index&quot;:null}" fill="#089c4e" stroke="none" stroke-width="0.49091" stroke-linecap="round"/><path d="M237.64657,184.28488c0.1229,0.88547 0.27895,2.33835 -0.01692,2.33835c-0.29586,0 -0.23527,-1.34151 -0.35902,-2.23308c-0.12375,-0.89157 -0.5609,-2.26316 -0.26504,-2.26316c0.29586,0 0.51808,1.27242 0.64097,2.15789z" data-paper-data="{&quot;index&quot;:null}" fill="#000000" stroke="#000000" stroke-width="0" stroke-linecap="butt"/><path d="M241.41563,186.55269c-0.23545,0 -0.42632,-0.19087 -0.42632,-0.42632c0,-0.23544 0.19087,-0.42631 0.42632,-0.42631c0.23544,0 0.42631,0.19086 0.42631,0.42631c0,0.23545 -0.19086,0.42632 -0.42631,0.42632z" data-paper-data="{&quot;index&quot;:null}" fill="#ffffff" stroke="none" stroke-width="0" stroke-linecap="butt"/><path d="M241.77879,189.73646c-0.127,0.4676 -0.9069,0.5743 -1.3193,0.3136c-0.4928,-0.3192 -0.5621,-1.1653 -0.7364,-1.7424c-0.1258,-0.4231 -0.1607,-0.8977 -0.1841,-1.3243c-0.0497,-0.9228 -0.289,-1.9445 0.0614,-2.753c0.1681,-0.3722 0.9131,-0.2871 1.1046,0.0697c0.3086,0.5757 -0.0663,1.3758 0,2.0561c0.0503,0.5164 0.1847,1.0182 0.3375,1.4984c0.2061,0.6496 0.9063,1.2567 0.7363,1.8819z" data-paper-data="{&quot;index&quot;:null}" fill="#089c4e" stroke="none" stroke-width="0.65663" stroke-linecap="round"/><path d="M242.40384,194.7479c-0.77299,0.2229 -1.54976,0.31295 -1.93316,-0.20895c-0.676,-0.9189 -0.4379,-1.9189 -0.56785,-2.41596c-0.12995,-0.49707 -0.17064,-0.92333 -0.49945,-1.32197c-0.32881,-0.39864 -0.57448,-1.12123 -0.45683,-1.33106c0.1657,-0.29499 0.0918,-0.06772 0.71197,-0.34325c0.62017,-0.27553 0.94287,-0.39884 1.71529,-0.60944c0.77242,-0.2106 0.24545,-0.0863 0.72335,-0.1073c0.13727,0.00717 0.59434,0.46384 0.81161,0.72967c0.21728,0.26583 0.20414,0.47902 0.41669,0.77315c0.21255,0.29413 0.48119,0.48942 0.6336,0.68025c0.4078,0.5462 1.53938,1.59674 1.22718,2.02364c-0.59989,0.89901 -1.56761,-0.26718 -1.62331,-0.16138c-0.0561,0.1071 0.66265,-0.20001 0.91192,0.59172c0.0745,0.4132 -0.12536,0.38275 -0.46386,0.76075c-0.41971,0.4231 -0.95815,0.75253 -1.60715,0.94013z" data-paper-data="{&quot;index&quot;:null}" fill="#ffffff" stroke="none" stroke-width="0.67216" stroke-linecap="round"/><path d="M242.68229,186.4193c-0.23545,0 -0.42632,-0.19086 -0.42632,-0.42631c0,-0.23545 0.19087,-0.42632 0.42632,-0.42632c0.23545,0 0.42632,0.19087 0.42632,0.42632c0,0.23544 -0.19087,0.42631 -0.42632,0.42631z" data-paper-data="{&quot;index&quot;:null}" fill="#ffffff" stroke="none" stroke-width="0" stroke-linecap="butt"/><path d="M245.41214,185.0981l1.90225,0.86731l-2.33196,-0.33017l0.02996,0.85923l-1.80725,-1.10255l-2.30292,-0.02537l1.06479,-0.60225l-1.45631,0.23969c0,0 1.93614,-0.90371 2.906,-0.82612c0.77793,0.06224 2.2103,0.49052 2.2103,0.49052l0.64457,0.376z" data-paper-data="{&quot;index&quot;:null}" fill="#cf0000" stroke="none" stroke-width="0" stroke-linecap="butt"/><path d="M235.43556,182.93791c0.12287,-0.4123 1.23337,-0.75053 1.23337,-0.75053l0.5215,4.20498c0,0 -0.17282,0.05562 -0.85729,-0.52318c-0.9899,-0.8409 -1.17101,-1.81247 -0.89758,-2.93127z" data-paper-data="{&quot;index&quot;:null}" fill="#f8b820" stroke="none" stroke-width="0.49091" stroke-linecap="round"/><path d="M242.7021,180.1991c-0.0133,-0.6487 -0.0151,-1.3321 0.1778,-1.9389c0.1253,-0.4046 0.4613,-0.7169 0.7555,-0.9957c0.2143,-0.1844 0.4889,-0.3259 0.7556,-0.4192c0.2587,-0.0881 0.4729,-0.1038 0.7111,-0.1048c0.1991,-0.0011 0.4471,-0.0839 0.4889,0.1048c0.2382,0.4915 0.208,1.0764 0.2222,1.6245c0.0329,1.2776 0.3298,2.7177 -0.0889,3.9303c-0.1858,0.5377 -0.9315,0.4444 -1.4222,0.4716c-0.4551,0.0095 -1.0711,0.0702 -1.3333,-0.3668c-0.3796,-0.633 -0.2507,-1.5092 -0.2667,-2.3058z" data-paper-data="{&quot;index&quot;:null}" fill="#ffffff" stroke="none" stroke-width="0.97175" stroke-linecap="round"/><path d="M241.15467,181.4501c0.672,0.513 1.28,0.79933 2.1,0.93333c0.835,0.149 1.83175,0.06722 2.58333,-0.33333c0.85,-0.453 2.17033,-0.67633 2.93333,-0.13333c0.437,0.311 0.07158,1.64383 -0.44242,1.97083c-0.82947,0.78885 -1.91237,1.1208 -2.66818,1.1875c-0.83269,0.04276 -2.04603,-0.07357 -2.91571,-0.2591c-0.86968,-0.18553 -1.70434,-0.654 -2.10702,-0.8659c-0.36488,-0.19222 -3.54866,-0.44762 -3.54866,-0.44762l1.487,-0.27452l-2.15472,-1.29442c0,0 2.19242,0.06672 2.06638,-0.03344c-0.674,-0.536 -1.31049,-0.3691 -1.31049,-0.3691c0,0 0.87982,-0.25057 1.44382,-0.54757c0.286,-0.15 -0.42689,-1.30708 -0.68389,-1.58708c-0.339,-0.37 2.20123,1.27875 3.21723,2.05375z" data-paper-data="{&quot;index&quot;:null}" fill="#f8f8f8" stroke="none" stroke-width="1" stroke-linecap="round"/><path d="M248.87988,181.94427c0.23535,0.12162 -0.44373,0.70806 -0.80265,0.70806c-0.35892,0 -0.86369,-0.58644 -0.62833,-0.70806c0.23535,-0.12162 0.26942,-0.19695 0.62833,-0.19695c0.35892,0 0.5673,0.07534 0.80265,0.19695z" data-paper-data="{&quot;index&quot;:null}" fill="#101010" stroke="none" stroke-width="1" stroke-linecap="butt"/><path d="M245.2381,184.75541l-1.7512,-0.778" data-paper-data="{&quot;index&quot;:null}" fill="none" stroke="#cccccc" stroke-width="0.36953" stroke-linecap="round"/><path d="M245.2966,179.27413c0.1613,0 0.3067,0.1486 0.4129,0.3885c0.1051,0.241 0.1709,0.5722 0.1709,0.9384c0,0.3662 -0.0658,0.6974 -0.1709,0.9384c-0.1062,0.2399 -0.2516,0.3885 -0.4129,0.3885c-0.1614,0 -0.3068,-0.1486 -0.413,-0.3885c-0.105,-0.241 -0.1709,-0.5722 -0.1709,-0.9384c0,-0.3662 0.0659,-0.6974 0.1709,-0.9384c0.1062,-0.2399 0.2516,-0.3885 0.413,-0.3885z" data-paper-data="{&quot;index&quot;:null}" fill="#4088ed" stroke="none" stroke-width="1.0615" stroke-linecap="butt"/><path d="M245.2824,179.69749c0.108,0 0.2055,0.0928 0.2761,0.243c0.0711,0.1501 0.1146,0.3571 0.1146,0.5859c0,0.2288 -0.0435,0.4358 -0.1146,0.586c-0.0706,0.1501 -0.1681,0.243 -0.2761,0.243c-0.108,0 -0.2056,-0.0929 -0.2762,-0.243c-0.0711,-0.1502 -0.1146,-0.3572 -0.1146,-0.586c0,-0.2288 0.0435,-0.4358 0.1146,-0.5859c0.0706,-0.1502 0.1682,-0.243 0.2762,-0.243z" data-paper-data="{&quot;index&quot;:null}" fill="#000000" stroke="none" stroke-width="0.47368" stroke-linecap="butt"/><path d="M245.3522,179.94371c0.0491,0 0.0938,0.0382 0.1255,0.0996c0.0323,0.0615 0.0523,0.1462 0.0523,0.24c0,0.0938 -0.02,0.1785 -0.0523,0.24c-0.0317,0.0614 -0.0764,0.0996 -0.1255,0.0996c-0.0492,0 -0.0938,-0.0382 -0.1255,-0.0996c-0.0323,-0.0615 -0.0524,-0.1462 -0.0524,-0.24c0,-0.0938 0.0201,-0.1785 0.0524,-0.24c0.0317,-0.0614 0.0763,-0.0996 0.1255,-0.0996z" data-paper-data="{&quot;index&quot;:null}" fill="#ffffff" stroke="none" stroke-width="0.64678" stroke-linecap="butt"/><path d="M248.0694,179.29921c0.1434,0 0.2727,0.1321 0.3671,0.3454c0.0934,0.2142 0.1519,0.5085 0.1519,0.8341c0,0.3255 -0.0585,0.6199 -0.1519,0.8341c-0.0944,0.2132 -0.2237,0.3453 -0.3671,0.3453c-0.1434,0 -0.2727,-0.1321 -0.367,-0.3453c-0.0934,-0.2142 -0.1519,-0.5086 -0.1519,-0.8341c0,-0.3256 0.0585,-0.6199 0.1519,-0.8341c0.0943,-0.2133 0.2236,-0.3454 0.367,-0.3454z" data-paper-data="{&quot;index&quot;:null}" fill="#4088ed" stroke="none" stroke-width="0.94355" stroke-linecap="butt"/><path d="M248.1179,179.69221c0.096,0 0.1827,0.0825 0.2455,0.216c0.0631,0.1335 0.1019,0.3175 0.1019,0.5208c0,0.2034 -0.0388,0.3874 -0.1019,0.5209c-0.0628,0.1335 -0.1495,0.216 -0.2455,0.216c-0.096,0 -0.1828,-0.0825 -0.2455,-0.216c-0.0631,-0.1335 -0.1019,-0.3175 -0.1019,-0.5209c0,-0.2033 0.0388,-0.3873 0.1019,-0.5208c0.0627,-0.1335 0.1495,-0.216 0.2455,-0.216z" data-paper-data="{&quot;index&quot;:null}" fill="#000000" stroke="none" stroke-width="0.42105" stroke-linecap="butt"/><path d="M248.2133,179.91106c0.0437,0 0.0833,0.0339 0.1115,0.0886c0.0288,0.0546 0.0466,0.1299 0.0466,0.2132c0,0.0834 -0.0178,0.1587 -0.0466,0.2133c-0.0282,0.0547 -0.0678,0.0886 -0.1115,0.0886c-0.0437,0 -0.0834,-0.0339 -0.1116,-0.0886c-0.0287,-0.0546 -0.0465,-0.1299 -0.0465,-0.2133c0,-0.0833 0.0178,-0.1586 0.0465,-0.2132c0.0282,-0.0547 0.0679,-0.0886 0.1116,-0.0886z" data-paper-data="{&quot;index&quot;:null}" fill="#ffffff" stroke="none" stroke-width="0.57492" stroke-linecap="butt"/><path d="M249.1572,170.04554c0,0 0.19237,0.96721 -0.02062,1.78043c-0.21298,0.81323 -0.43168,2.03775 -0.58612,2.03775c-0.30125,0 -1.90909,-0.81818 -1.90909,-0.81818z" data-paper-data="{&quot;index&quot;:null}" fill="#ffffff" stroke="none" stroke-width="0" stroke-linecap="butt"/><path d="M234.1817,187.31031c0.24226,-0.43203 1.10279,-0.05269 1.42076,-0.45082c0.37413,-0.47028 -0.01606,-1.30282 0.35698,-1.7696c0.20844,-0.26203 0.85799,-0.33536 1.00607,-0.05549c0.37465,0.71583 0.33128,1.61842 0.26082,2.42839c-0.03882,0.45286 -0.22129,0.94642 -0.60641,1.13297c-0.62783,0.31229 -1.49029,0.47927 -2.13468,0.13625c-0.41368,-0.21489 -0.54863,-0.97785 -0.30354,-1.42171z" data-paper-data="{&quot;index&quot;:null}" fill="#f8b820" stroke="none" stroke-width="0.49091" stroke-linecap="round"/><g data-paper-data="{&quot;index&quot;:null}"><path d="M231.54945,185.58539c0,0 -1.84194,3.23701 -2.03687,4.16217c-0.27347,1.29766 -0.05696,4.55924 -0.05696,4.55924c0,0 -0.6097,0.24546 -0.65419,-0.99959c-0.02576,-0.72109 0.12005,-2.49588 0.39834,-3.66939c0.33361,-1.40675 1.52752,-3.98693 1.52752,-3.98693l0.82217,-0.06549z" fill="#989898" stroke="#989898" stroke-width="0" stroke-linecap="round"/><path d="M232.92508,187.34032c0.20063,0.83824 -0.06076,3.07633 -0.06076,3.07633l-3.08193,-1.65882c0,0 0.57286,-1.79039 1.17164,-2.72521c0.28459,-0.44402 0.67185,-0.66264 1.30122,-0.07986c0.44272,0.40995 0.53815,0.84089 0.66982,1.38757z" fill="#f82020" stroke="none" stroke-width="1.13968" stroke-linecap="round"/><path d="M229.83088,188.68013c0,0 2.79805,0.30908 3.03635,1.599c0.1261,0.72512 -0.74049,2.7424 -1.18643,3.28844c-0.44882,0.54917 -1.6604,0.85987 -2.24949,0.8c-0.34603,-0.03511 -0.308,-0.78666 -0.30739,-1.22608c0.00294,-1.09594 0.14263,-2.39836 0.3448,-3.37186c0.20216,-0.9735 0.36217,-1.0895 0.36217,-1.0895z" fill="#f8f8f8" stroke="none" stroke-width="1.15102" stroke-linecap="round"/><path d="M234.75585,187.46217c0.00234,0.36783 0.14658,2.12303 -0.09728,2.61794c-0.18799,0.38152 -0.81224,-0.1053 -0.81224,-0.1053c0,0 -0.57944,0.24188 -0.7028,0.24266c-0.46507,0.00295 -0.22072,-1.31806 -0.22634,-2.2046c-0.00113,-0.1773 -0.27503,-1.03283 -0.21556,-1.54408c0.03539,-0.30424 0.02181,-0.58635 0.40643,-0.82649c0.39614,-0.24735 0.57652,0.37188 0.57652,0.37188c0,0 0.38558,-0.67343 0.91393,-0.17628c0.46514,0.43766 0.1546,1.19567 0.15732,1.62426z" fill="#ffffff" stroke="none" stroke-width="0" stroke-linecap="butt"/></g><path d="M246.70484,175.77378l2.90995,0.74602l1.53454,2.87263l-1.86946,-1.92963l-2.7947,-1.06695z" data-paper-data="{&quot;index&quot;:null}" fill="#f8b820" stroke="none" stroke-width="1.22222" stroke-linecap="round"/><path d="M246.92382,174.86769c0,0 2.7007,-0.70414 3.00715,-0.62014c0.43688,0.11973 2.21786,2.34532 2.21786,2.34532l-2.65185,-1.3816l-2.35435,0.44959z" data-paper-data="{&quot;index&quot;:null}" fill="#f8b820" stroke="none" stroke-width="1.22222" stroke-linecap="round"/><path d="M246.32223,173.92636c0,0 2.64394,-1.66275 3.03198,-1.76477c0.64,-0.16826 4.05113,0.81003 4.05113,0.81003c0,0 -3.34425,0.11457 -4.30024,0.35548c-0.95599,0.24091 -2.15925,1.27236 -2.15925,1.27236z" data-paper-data="{&quot;index&quot;:null}" fill="#f8b820" stroke="none" stroke-width="1.22222" stroke-linecap="round"/><path d="M233.19729,163.84301c3.15704,-0.38722 5.26965,1.71364 5.26965,1.71364c0,0 -3.01368,-1.11247 -4.52397,-1.23952c-0.60115,-0.05056 -3.61092,0.4861 -3.61092,0.4861c0,0 2.39587,-0.4142 3.4641,-0.27541c1.06822,0.13879 2.5499,1.05679 2.5499,1.05679c0,0 -2.14743,-0.37386 -3.02511,-0.39329c-0.87767,-0.01942 -2.23236,0.27696 -2.23236,0.27696c0,0 1.19063,-0.08872 1.69483,0.00947c0.50421,0.09818 1.19438,0.5531 1.19438,0.5531c0,0 -0.88207,0.03221 -1.35843,0.06748c-0.47637,0.03527 -1.21775,0.12325 -1.21775,0.12325c0,0 0.69115,0.1678 1.00502,0.29647c0.31387,0.12867 0.75762,0.42608 0.75762,0.42608l-1.58056,0.13833l-1.18778,0.31058c0,0 0.63764,0.00454 0.85836,0.04657c0.22071,0.04203 0.53272,0.21831 0.53272,0.21831c0,0 -0.32609,0.06408 -0.49407,0.13515c-0.16799,0.07107 -0.39937,0.24279 -0.39937,0.24279l0.66236,0.40695l-0.91803,0.32226l0.40701,0.44315l-1.05932,0.26364l0.4721,-0.51979l-0.6142,-0.00709c0,0 0.2936,-0.19019 0.44437,-0.25956c0.2027,-0.09326 0.80868,-0.24822 0.80868,-0.24822c0,0 -0.39163,-0.14046 -0.59343,-0.18565c-0.15886,-0.03557 -0.51969,-0.06361 -0.51969,-0.06361c0,0 0.26808,-0.22848 0.49253,-0.32288c0.22444,-0.09441 0.608,-0.13999 0.608,-0.13999c0,0 -0.26189,-0.088 -0.56858,-0.15538c-0.3067,-0.06738 -0.79172,-0.14349 -0.79172,-0.14349c0,0 0.60932,-0.35296 1.03397,-0.49132c0.42465,-0.13834 1.12461,-0.21196 1.12461,-0.21196c0,0 -0.63324,-0.22661 -0.94557,-0.28512c-0.28006,-0.05246 -0.91197,-0.11284 -0.91197,-0.11284c0,0 0.58719,-0.2658 1.11148,-0.3806c0.52429,-0.1148 1.36572,-0.16179 1.36572,-0.16179c0,0 -1.14291,-0.08907 -1.77496,-0.06901c-0.55614,0.01766 -1.81879,0.18308 -1.81879,0.18308c0,0 1.38025,-0.68602 2.07863,-0.8344c0.82319,-0.17492 2.54794,-0.14864 2.54794,-0.14864c0,0 -1.95065,-0.09174 -2.98873,0.07793c-0.58331,0.09534 -2.70613,0.85289 -2.70613,0.85289c0,0 1.25982,-0.95183 2.80492,-1.53217c0.97799,-0.36733 2.47366,-0.4596 2.5525,-0.46926z" data-paper-data="{&quot;index&quot;:null}" fill="#dcdce1" stroke="none" stroke-width="0" stroke-linecap="butt"/><path d="M220.17818,169.70591c0.13752,0.34857 -0.23768,-0.17354 -0.23768,-0.17354c0,0 -0.32673,-0.73469 -0.37903,-1.07665c-0.05229,-0.34196 0.07933,-0.88285 0.07933,-0.88285c0,0 0.22079,0.55191 0.35137,0.84589c0.13058,0.29398 0.35478,0.74402 0.35478,0.74402c0,0 -0.05064,-0.47629 -0.04037,-0.70451c0.01026,-0.22822 0.09802,-0.57711 0.09802,-0.57711l0.44676,0.97061l0.46673,0.68247c0,0 -0.14196,-0.40529 -0.16546,-0.55476c-0.02349,-0.14947 0.0174,-0.38733 0.0174,-0.38733c0,0 0.11472,0.19216 0.19793,0.28251c0.08322,0.09036 0.24465,0.19804 0.24465,0.19804l0.10753,-0.51237l0.41287,0.50879l0.18848,-0.3587l0.40779,0.61169l-0.43678,-0.18123l0.13504,0.39101c0,0 -0.18729,-0.14294 -0.26551,-0.22276c-0.10518,-0.10732 -0.34108,-0.4563 -0.34108,-0.4563c0,0 -0.00009,0.28019 0.01711,0.4184c0.01353,0.1088 0.07772,0.34393 0.07772,0.34393c0,0 -0.20575,-0.11806 -0.31659,-0.23891c-0.11084,-0.12086 -0.22686,-0.35367 -0.22686,-0.35367c0,0 0.00369,0.18601 0.03066,0.39576c0.02695,0.20975 0.08888,0.53453 0.08888,0.53453c0,0 -0.36219,-0.30609 -0.54638,-0.54389c-0.18419,-0.23779 -0.38986,-0.66483 -0.38986,-0.66483c0,0 0.00019,0.45294 0.03405,0.66424c0.03036,0.18948 0.13564,0.60381 0.13564,0.60381c0,0 -0.30191,-0.31187 -0.4938,-0.61819c-0.19189,-0.30633 -0.41284,-0.82909 -0.41284,-0.82909c0,0 0.20318,0.74483 0.35948,1.14097z" data-paper-data="{&quot;index&quot;:null}" fill="#dcdce1" stroke="none" stroke-width="0" stroke-linecap="butt"/><path d="M242.60887,170.24495l-1.12252,1.29427l-1.58573,-0.52439c0,0 0.36597,1.87017 -0.29984,1.87017c-0.16218,0 -1.37499,-0.3165 -1.37499,-0.3165l-0.9077,1.33553l-0.70128,-1.5l-2.5181,3.60864c0,0 0.48848,-2.60988 0.95518,-4.84323c0.3671,-1.7567 1.70689,-3.25241 2.4757,-3.25241c0.78873,0 1.56709,-0.0054 2.68063,0.53097c1.3518,0.65114 2.39865,1.79695 2.39865,1.79695z" data-paper-data="{&quot;index&quot;:null}" fill="#23d892" stroke="none" stroke-width="0" stroke-linecap="butt"/><path d="M244.33501,172.81156c-2.64064,0.69469 -1.57107,0.64774 -3.37926,1.33501c-1.6061,0.61045 -2.55052,1.98678 -3.53216,1.70228c-0.46181,-0.13385 -0.06665,-1.43395 -0.06665,-1.43395l-0.32014,-1.39517l0.53106,0.75308l0.09369,-1.58626l1.87753,0.49643c0,0 0.02514,-0.61652 0.00991,-0.99685c-0.01523,-0.38033 -0.08873,-0.97129 -0.08873,-0.97129l2.12267,0.64193l0.26977,-1.71068c0,0 0.97307,0.67502 1.60069,1.14249c0.62361,0.46447 1.45062,1.87327 0.88161,2.02297z" data-paper-data="{&quot;index&quot;:null}" fill="#fd0000" stroke="none" stroke-width="0" stroke-linecap="butt"/><g data-paper-data="{&quot;index&quot;:null}" stroke-width="0" stroke-linecap="butt"><path d="M234.08509,176.65343c-0.47306,-0.07972 -0.79193,-0.52784 -0.71221,-1.0009c0.07972,-0.47306 0.52784,-0.79193 1.0009,-0.71221c0.47306,0.07972 0.79193,0.52784 0.71221,1.0009c-0.07972,0.47306 -0.52784,0.79193 -1.0009,0.71221z" fill="#db7b04" stroke="none"/><path d="M233.29271,175.60786c0.04649,-0.27592 0.52433,-0.15601 0.98188,-0.0789c0.45754,0.0771 0.90561,0.20067 0.86389,0.44825c-0.02739,0.16255 -0.46466,-0.02509 -0.92221,-0.1022c-0.45755,-0.07711 -0.95096,-0.1046 -0.92357,-0.26715z" fill="#feeb00" stroke="#000000"/><path d="M234.27914,176.01948c0.08932,0.01506 0.28891,-0.03558 0.25881,0.14305c-0.03011,0.17864 -0.22181,0.52843 -0.31113,0.51338c-0.08932,-0.01506 -0.20865,0.07826 -0.17855,-0.10037c0.0301,-0.17864 0.14155,-0.57111 0.23087,-0.55606z" fill="#000000" stroke="none"/><path d="M233.62524,175.91641c0.04697,0.00791 0.06792,0.11586 0.04682,0.24108c-0.02111,0.12522 -0.0715,0.19198 -0.11847,0.18407c-0.04697,-0.00792 -0.10072,-0.26713 -0.07962,-0.39235c0.02111,-0.12522 0.10431,-0.04072 0.15127,-0.03281z" fill="#000000" stroke="none"/></g><path d="M232.67237,185.86045c0.12741,-0.00313 0.25679,1.05776 0.29063,2.43805c0.03384,1.3803 0.17061,2.10756 0.0432,2.11069c-0.34957,0.00857 -0.47213,-0.77462 -0.50597,-2.15491c-0.03385,-1.3803 -0.17742,-2.38526 0.17214,-2.39383z" data-paper-data="{&quot;index&quot;:null}" fill="#424242" stroke="none" stroke-width="0" stroke-linecap="butt"/></g></g></svg>