<svg version="1.1" xmlns="http://www.w3.org/2000/svg" xmlns:xlink="http://www.w3.org/1999/xlink" width="112.5493" height="23.32236" viewBox="0,0,112.5493,23.32236"><g transform="translate(-149.62635,-169.33847)"><g data-paper-data="{&quot;isPaintingLayer&quot;:true}" fill-rule="nonzero" stroke="none" stroke-linecap="butt" stroke-linejoin="miter" stroke-miterlimit="10" stroke-dasharray="" stroke-dashoffset="0" style="mix-blend-mode: normal"><g stroke-width="0.26458"><g fill="#ff0000"><path d="M160.98523,187.35356c1.47758,0 2.21636,-0.70647 2.21636,-2.11942v-1.05971c0,-1.05971 -0.73879,-1.58956 -2.21636,-1.58956h-3.32455v4.76869zM149.62635,169.33848h13.57524c5.54092,0 8.31137,1.9428 8.31137,5.82841v1.05971c0,1.76619 -0.83114,3.17913 -2.49341,4.23884c1.66227,0.88309 2.49341,2.11943 2.49341,3.70899v1.05971c0,4.23884 -2.77046,6.35826 -8.31137,6.35826h-13.57524zM163.20159,176.2266v-1.05971c0,-1.05971 -0.73879,-1.58957 -2.21636,-1.58957h-3.32455v4.7687h3.32455c1.47758,0 2.21636,-0.70647 2.21636,-2.11942z"/><path d="M174.28342,191.5924v-22.25392h9.69661v22.25392z"/><path d="M186.75048,180.73037c0,-3.53237 1.10818,-6.31411 3.32455,-8.34522c2.21636,-2.03111 5.26387,-3.04666 9.14251,-3.04666c3.32455,0 5.63326,0.0883 6.92615,0.26492l-2.49341,7.41798l-0.5541,-0.52985c-1.10818,-0.70648 -2.49341,-0.79478 -4.15569,-0.26493c-1.84697,1.05971 -3.2322,2.20773 -4.15569,3.44406c-0.92348,1.05971 -1.10818,2.38435 -0.55409,3.97392l0.55409,0.52985c0.92348,1.23633 2.49341,1.58956 4.70977,1.05971c0.72032,-0.35324 1.36677,-0.97141 1.93933,-1.8545v-3.44406h8.31137v11.12696c-1.10818,0.52985 -3.87863,0.88309 -8.31137,1.05971h-2.49342c-3.69395,0 -6.6491,-1.14802 -8.86546,-3.44406c-2.21636,-2.29604 -3.32455,-4.94532 -3.32455,-7.94783z"/></g><g fill="#71ff33"><path d="M162.74154,188.11027c1.34832,0 2.02248,-0.67415 2.02248,-2.02247v-1.01124c0,-1.01124 -0.67416,-1.51685 -2.02248,-1.51685h-3.03371v4.55057zM152.37635,170.91922h12.38767c5.05619,0 7.58429,1.85394 7.58429,5.56181v1.01123c0,1.68539 -0.75842,3.03372 -2.27528,4.04495c1.51686,0.8427 2.27528,2.02247 2.27528,3.53933v1.01124c0,4.04495 -2.5281,6.06743 -7.58429,6.06743h-12.38767zM164.76402,177.49226v-1.01123c0,-1.01124 -0.67416,-1.51686 -2.02248,-1.51686h-3.03371v4.55058h3.03371c1.34832,0 2.02248,-0.67416 2.02248,-2.02248z"/><path d="M174.87641,192.15522v-21.23601h8.84833v21.23601z"/><path d="M186.25284,181.79003c0,-3.37079 1.01123,-6.02529 3.03372,-7.9635c2.02248,-1.93821 4.80338,-2.90731 8.34271,-2.90731c3.03371,0 5.14046,0.08426 6.32024,0.2528l-2.27528,7.07867l-0.50562,-0.50562c-1.01124,-0.67416 -2.27528,-0.75843 -3.79215,-0.25281c-1.68539,1.01124 -2.94944,2.10674 -3.79214,3.28652c-0.8427,1.01124 -1.01124,2.27528 -0.50562,3.79215l0.50562,0.50562c0.8427,1.17978 2.27528,1.51686 4.29776,1.01124c0.65731,-0.33708 1.2472,-0.92697 1.76967,-1.76967v-3.28652h7.58429v10.618c-1.01124,0.50562 -3.53933,0.8427 -7.58429,1.01124h-2.27529c-3.37079,0 -6.06743,-1.09551 -8.08991,-3.28653c-2.02248,-2.19101 -3.03372,-4.71911 -3.03372,-7.58429z"/></g></g><g stroke-width="0"><path d="M231.22173,179.88003c0,0.71225 -2.45327,4.83331 -2.45327,4.83331c0,0 -4.56898,-4.99926 -9.69387,-8.10636c-3.95845,-2.68745 -10.55184,-4.94701 -10.26424,-5.28514c0.75188,-0.88401 10.06443,0.12325 14.41629,1.91821c5.09193,2.10022 7.99509,5.02494 7.99509,6.63998z" data-paper-data="{&quot;index&quot;:null}" fill="#684af8"/><path d="M224.16102,172.51209c0.42875,0.79416 0.97603,2.15217 0.97603,2.15217c0,0 -4.73845,-1.83198 -8.51309,-2.88694c-3.68365,-1.02952 -8.23471,-0.47691 -7.91164,-0.7751c0.97147,-0.8967 4.09348,-1.31458 7.97577,-1.31458c3.88229,0 6.62396,0.75119 6.62396,0.75119c0,0 0.4202,1.27912 0.84895,2.07329z" fill="#684af8"/><path d="M235.95961,177.5907c0,0 -1.6753,0.2051 -2.76262,0.67459c-1.08731,0.46949 -2.10397,1.48511 -2.10397,1.48511c0,0 -1.73597,-2.22495 -2.73782,-3.11596c-1.00186,-0.89101 -3.45853,-2.1132 -3.45853,-2.1132l-2.07232,-4.06679c0,0 3.33564,0.0692 6.66901,2.03446c2.18957,1.2909 6.46625,5.10183 6.46625,5.10183z" data-paper-data="{&quot;index&quot;:null}" fill="#684af8"/><path d="M262.13662,172.30111c0,0.90257 -5.46362,0.88762 -6.99809,1.62756c-3.39343,1.63637 -4.56003,2.25357 -4.56003,2.25357l1.58021,-4.75754c0,0 2.95213,-0.6418 5.36483,-0.49748c2.61339,0.15633 4.61309,1.23007 4.61309,1.37387z" fill="#684af8"/><path d="M250.49873,176.05703c4.15375,-2.56971 10.91443,-4.3985 11.66778,-3.51449c0.28817,0.33813 -6.31811,3.53669 -8.72665,5.66074c-3.82673,3.37472 -6.21121,8.08064 -6.21121,6.4656c0,-1.61504 -0.88366,-6.04215 3.27008,-8.61185z" fill="#684af8"/><path d="M242.27108,177.68459c0,0 1.64908,-2.57319 3.83767,-3.88115c2.18859,-1.30796 5.65279,-3.2187 6.54661,-2.12836c0.18651,0.22752 -0.50366,2.22115 -1.46686,3.59731c-0.94953,1.35663 -2.83015,4.08163 -3.38354,4.85399c-1.15623,1.61373 -1.87679,0.93857 -1.87679,0.93857c0,0 -0.73311,-1.03087 -1.56628,-1.78245c-0.83319,-0.75159 -2.09079,-1.5979 -2.09079,-1.5979z" fill="#684af8"/><path d="M226.18313,183.89753c0,-3.63011 5.29702,-6.5729 11.83122,-6.5729c6.5342,0 11.80211,2.9429 11.83121,6.5729c0.0376,4.68178 -5.29701,6.57289 -11.83121,6.57289c-6.5342,0 -11.83122,-2.94278 -11.83122,-6.57289z" fill="#684af8"/><g><path d="M241.45313,185.85527c0,-0.64825 0.52548,-1.17372 1.17373,-1.17372c0.64825,0 1.17372,0.52549 1.17372,1.17372c0,0.64825 -0.52549,1.17373 -1.17372,1.17373c-0.64825,0 -1.17373,-0.52549 -1.17373,-1.17373z" fill="#ffff9b"/><path d="M242.14247,185.88329c0,-0.28296 0.22937,-0.51235 0.51235,-0.51235c0.28295,0 0.51235,0.22937 0.51235,0.51235c0,0.28296 -0.22937,0.51236 -0.51235,0.51236c-0.28295,0 -0.51235,-0.22939 -0.51235,-0.51236z" fill="#000000"/></g><g><path d="M234.98005,185.45965c0,-0.93344 0.75672,-1.69017 1.69019,-1.69017c0.93344,0 1.69017,0.75671 1.69017,1.69017c0,0.93344 -0.75671,1.69017 -1.69017,1.69017c-0.93344,0 -1.69019,-0.75671 -1.69019,-1.69017z" fill="#ffff9b"/><path d="M235.97267,185.49994c0,-0.40747 0.33031,-0.73776 0.73778,-0.73776c0.40747,0 0.73776,0.33031 0.73776,0.73776c0,0.40747 -0.33031,0.73776 -0.73776,0.73776c-0.40747,0 -0.73778,-0.3303 -0.73778,-0.73776z" fill="#000000"/></g><path d="M223.74897,183.31153c3.38251,0.44921 2.96876,1.40818 2.96876,1.40818c0,0 -1.22038,-1.556 -1.78216,-2.24925c-0.62969,-0.7771 -1.81549,-2.19053 -1.81549,-2.19053c0,0 1.89177,-0.25183 4.58025,2.33444c1.37718,1.32482 3.07694,5.87226 5.53392,6.90581c2.45699,1.03355 7.47066,0.0819 10.05525,0.17937c1.65461,-0.0324 5.68155,-3.45219 6.10068,-3.89224c0.82019,-0.86114 1.66565,-1.47246 1.66565,-1.47246l-0.58105,2.75942c0,0 0.32283,-0.21404 0.72885,-0.30152c0.40601,-0.0875 1.06092,-0.0841 1.06092,-0.0841l-1.50181,2.34612l0.60284,1.31672c0,0 -1.26294,0.0926 -1.62746,-0.10076c-0.36454,-0.1934 -0.40417,-0.36674 -0.40417,-0.36674c0,0 -0.71058,0.62781 -1.44474,1.01517c-0.73416,0.38736 -2.11212,0.40138 -2.11212,0.40138c0,0 -0.6381,0.39493 -1.27946,0.40583c-13.88451,1.21161 -16.38956,-2.94603 -16.38956,-2.94603c0,0 -1.64532,-0.0187 -3.43687,-0.0606c-1.79154,-0.0419 -4.59147,0.0606 -4.59147,0.0606c0,0 1.70751,-1.33896 2.69723,-1.75207c0.98971,-0.41309 2.70193,-0.5015 2.70193,-0.5015c0,0 -0.99122,-0.7026 -2.35961,-1.40321c-1.36837,-0.70061 -3.50905,-2.04011 -3.50905,-1.60156c0,0.1688 0.75623,-0.6597 4.13873,-0.21049z" fill="#684af8"/></g></g></g></svg>