<svg version="1.1" xmlns="http://www.w3.org/2000/svg" xmlns:xlink="http://www.w3.org/1999/xlink" width="617.11712" height="423.35569" viewBox="0,0,617.11712,423.35569"><defs><radialGradient cx="228.80946" cy="225.74308" r="8.68316" gradientUnits="userSpaceOnUse" id="color-1"><stop offset="0" stop-color="#989898"/><stop offset="1" stop-color="#707070"/></radialGradient><linearGradient x1="237.12564" y1="215.3004" x2="237.387" y2="226.72716" gradientUnits="userSpaceOnUse" id="color-2"><stop offset="0" stop-color="#f82020"/><stop offset="1" stop-color="#a80000"/></linearGradient><radialGradient cx="213.65799" cy="229.35719" r="10.35033" gradientUnits="userSpaceOnUse" id="color-3"><stop offset="0" stop-color="#989898"/><stop offset="1" stop-color="#707070"/></radialGradient><linearGradient x1="229.20255" y1="226.28965" x2="220.79694" y2="237.0119" gradientUnits="userSpaceOnUse" id="color-4"><stop offset="0" stop-color="#f82020"/><stop offset="1" stop-color="#a80000"/></linearGradient></defs><g transform="translate(68.55856,-7.32217)"><g data-paper-data="{&quot;isPaintingLayer&quot;:true}" fill-rule="nonzero" stroke-linejoin="miter" stroke-miterlimit="10" stroke-dasharray="" stroke-dashoffset="0" style="mix-blend-mode: normal"><path d="M548.55857,285.78297c0,80.02324 -138.14637,144.89489 -308.55856,144.89489c-170.41219,0 -308.55856,-64.87165 -308.55856,-144.89489c0,-80.02324 138.14637,-144.89489 308.55856,-144.89489c170.41219,0 308.55856,64.87165 308.55856,144.89489z" fill="#000000" stroke="none" stroke-width="NaN" stroke-linecap="butt"/><g fill="#ff0000" stroke="none" stroke-width="0.26459" stroke-linecap="butt"><path d="M22.06376,30.00995c1.77944,0 2.66915,-0.88971 2.66915,-2.66915v-1.33458c0,-1.33456 -0.88971,-2.00185 -2.66915,-2.00185h-4.00373v6.00557zM8.38435,7.32217h16.34856c6.67288,0 10.00932,2.44671 10.00932,7.34015v1.33458c0,2.2243 -1.00092,4.00374 -3.00279,5.33833c2.00186,1.11214 3.00279,2.66913 3.00279,4.671v1.33458c0,5.3383 -3.33644,8.00745 -10.00932,8.00745h-16.34856zM24.73294,15.9969v-1.33458c0,-1.33456 -0.88971,-2.00185 -2.66915,-2.00185h-4.00373v6.00561h4.00373c1.77944,0 2.66915,-0.88973 2.66915,-2.66918z"/><path d="M38.07869,21.66887c0,-4.44859 1.33459,-7.95185 4.00374,-10.5098c2.66915,-2.55792 6.33923,-3.83689 11.01024,-3.83689c4.67101,0 8.3411,1.27897 11.01026,3.83689c2.66915,2.55796 4.00373,6.06121 4.00373,10.5098c0,3.78129 -1.33458,7.11773 -4.00373,10.0093c-2.66915,2.89159 -6.33924,4.33739 -11.01026,4.33739c-4.67101,0 -8.34109,-1.4458 -11.01024,-4.33739c-2.66915,-2.89157 -4.00374,-6.22801 -4.00374,-10.0093zM52.75904,15.9969c-2.22429,1.33459 -3.89251,2.78038 -5.00467,4.33739c-1.11215,1.33456 -1.33458,3.00279 -0.66729,5.00467l0.66729,0.66727c1.11215,1.55702 3.0028,2.00186 5.67195,1.33458c2.22429,-1.33456 3.8925,-2.78035 5.00465,-4.33736c1.33458,-1.77944 1.33458,-3.7813 0,-6.00561l-0.66729,-0.66727c-1.33458,-0.88971 -3.00279,-1.00094 -5.00465,-0.33367z"/><path d="M79.45057,35.34826v-19.35136h-8.00747v-8.67472h25.35695v8.67472h-8.00745v19.35136z"/><path d="M100.13648,35.34826v-28.02609h10.00932v9.67566h6.67288v-9.67566h10.00932v28.02609h-10.00932v-9.67566h-6.67288v9.67566z"/><path d="M147.24701,35.34826v-28.02609h10.00932v9.67566h6.67288v-9.67566h10.00932v28.02609h-10.00932v-9.67566h-6.67288v9.67566z"/><path d="M177.27495,35.34826l8.3411,-28.02609h15.01398l8.34109,28.02609h-9.67566l-1.66823,-5.3383h-9.00838l-1.66823,5.3383zM195.6254,22.66981l-2.50233,-8.34112l-2.50232,8.34112z"/><path d="M212.3076,7.32217h9.34203l4.33736,20.35227l4.33736,-20.35227h9.34206l-7.00655,28.02609h-13.34575z"/><path d="M243.00283,35.34826v-28.02609h23.35509v8.00745h-13.34575v2.00185h13.34575v8.00749h-13.34575v2.00185h13.34575v8.00745z"/><path d="M286.77692,35.34826v-28.02609h23.35509v8.00745h-13.34575v2.00185h13.34575v8.00749h-13.34575v10.0093z"/><path d="M313.46844,35.34826l8.34109,-28.02609h15.014l8.34109,28.02609h-9.67566l-1.66824,-5.3383h-9.00839l-1.66821,5.3383zM331.81889,22.66981l-2.50235,-8.34112l-2.50232,8.34112z"/><path d="M348.50109,35.34826v-28.02609h10.00933v20.01863h13.34575v8.00745z"/><path d="M375.1926,35.34826v-28.02609h10.00933v20.01863h13.34575v8.00745z"/><path d="M401.88415,35.34826v-28.02609h23.35509v8.00745h-13.34579v2.00185h13.34579v8.00749h-13.34579v2.00185h13.34579v8.00745z"/><path d="M428.57566,35.34826v-28.02609h11.34391l7.34015,12.51165v-12.51165h10.00933v28.02609h-11.34391l-7.34015,-12.11129v12.11129z"/><path d="M471.61572,7.32217l-1.66821,17.34948h-7.67382l-1.66821,-17.34948zM461.33949,31.24445c-0.04455,-1.26785 0.37807,-2.40224 1.26785,-3.40318c0.88971,-1.00094 2.11308,-1.50141 3.67009,-1.50141c1.33459,0 2.44674,0.50047 3.33645,1.50141c0.88971,1.00094 1.33458,2.1687 1.33458,3.50326c0,1.33459 -0.44486,2.44674 -1.33458,3.33645c-0.88971,0.88971 -2.00186,1.33458 -3.33645,1.33458c-1.55702,0 -2.78038,-0.44486 -3.67009,-1.33458c-0.88971,-0.88971 -1.31233,-2.03523 -1.26785,-3.43653z"/></g><g><g data-paper-data="{&quot;index&quot;:null}" stroke="none" stroke-width="0" stroke-linecap="butt"><path d="M290.5426,162.91008c6.80249,-5.54208 17.1033,-11.04633 9.22896,2.14715c-2.78116,4.65983 -12.47035,13.59231 -14.19277,13.1653c-3.88218,-0.27507 -4.69063,-3.28114 -5.73875,-5.86862c-1.04812,-2.58748 4.09291,1.80553 4.09291,1.80553c0,0 1.52208,-7.10443 6.60966,-11.24936z" fill="#54c81c"/><path d="M293.15324,163.2205c6.85251,0.52648 -6.54575,12.85593 -10.83809,11.78928c-3.58754,-0.6763 -18.00564,-5.0922 -18.4104,-4.50806c-1.0031,1.44763 -5.70273,-8.16942 1.85083,-4.73359c6.42885,2.92422 14.69799,3.39898 16.96705,4.97133c0,0 5.95572,-7.86276 10.4306,-7.51896z" fill="#ffffff"/></g><g data-paper-data="{&quot;index&quot;:null}" stroke="none" stroke-width="0.17188" stroke-linecap="butt"><path d="M242.45972,154.30446c1.50624,-0.283 2.81596,1.74276 3.24592,3.26409c0.5594,1.96444 1.05018,4.93243 -0.57702,6.10205c-2.47715,1.77901 -6.05271,0.357 -9.09759,1.07107c-4.81802,1.12883 -17.42213,3.9319 -18.67563,3.05332c-1.25349,-0.87799 9.51041,-5.77103 12.62681,-8.01743c3.86961,-2.67431 7.92197,-4.61637 12.4776,-5.4731z" fill="#319a2b"/><path d="M250.12666,159.32349c0.02468,-0.03323 1.99794,-4.32967 1.92609,-5.25108c-0.12016,-1.55061 -2.2685,-0.27582 -1.7964,-2.13642c0.35017,-1.37992 1.77842,-1.7653 2.35539,-2.55327c0.65724,-0.89927 2.70225,-0.69303 3.74506,-0.05306c0.57932,0.35562 0.43824,1.2959 0.56061,1.18019c0.82683,-0.7832 2.35972,-0.6611 2.8601,0.27448l1.08956,2.0356c0.54683,2.28734 0.64749,5.00642 1.07367,6.40548c1.12414,3.19034 -2.02114,5.16607 -1.4619,4.86046c-2.9841,0.94339 -7.33475,0.2859 -10.17816,-1.73019c-0.56452,-0.4288 -1.28141,-1.57487 -0.17407,-3.03208z" fill="#f0e9bb"/><path d="M244.14725,157.67075c0.08617,-1.10372 -2.76509,-2.87945 -1.9775,-2.22441c0.15771,0.13111 -1.00011,-0.44279 -0.48708,-1.04681c0.33768,-0.39658 2.22256,-0.77154 2.77242,-1.09162c1.26984,-0.73956 3.23971,-0.71709 4.62595,-1.04825c1.3048,-0.31128 2.79101,0.74982 3.28995,1.16438c0.72193,0.59856 -0.21496,2.27496 -1.01943,3.92643c-0.97853,2.00853 -1.21502,3.77765 -1.21653,3.89803c0,0 0.14741,2.20477 0.76597,2.39353c-2.00786,-0.57525 -5.3743,2.3679 -7.34634,1.59631c-1.01935,-0.46923 0.50719,-6.47799 0.59253,-7.56754z" fill="#ead42f"/></g><path d="M226.19307,173.41946c-2.91251,-0.05088 -5.76913,-0.40948 -6.84256,-1.48306c-0.33092,-0.33114 -0.45554,-2.39007 -0.44233,-2.8237c0.01667,-0.54775 -0.36334,-2.82671 1.41294,-3.72088c0.45678,-0.22948 2.71091,-1.30802 3.40352,-1.0705c0.73215,0.2499 2.46072,-0.23947 3.09863,-0.12698c2.01442,0.35541 2.46929,0.74884 3.74025,0.85775c1.60856,0.13828 0.69433,-0.06319 1.65267,0.84486c0,0 7.69646,4.03916 6.26542,5.29979c0,0 -8.95847,2.3113 -12.28853,2.22272z" fill="#319a2b" stroke="none" stroke-width="0.17188" stroke-linecap="butt"/><g data-paper-data="{&quot;index&quot;:null}" stroke="none" stroke-width="0.17188" stroke-linecap="butt"><path d="M232.5913,181.00752c-2.4623,-3.35421 -11.60485,-8.37896 -10.02038,-8.8657c1.58473,-0.48729 9.20289,1.0377 13.79144,3.80762c2.89963,1.75122 11.00396,4.30419 12.96337,6.96349c1.28675,1.74796 -0.20879,4.64283 -1.44033,6.48065c-0.95041,1.42438 -2.97563,3.07516 -4.43347,2.28124c-4.40886,-2.40209 -7.76485,-6.62085 -10.86063,-10.66722z" fill="#319a2b"/><path d="M252.76348,189.27208c-0.65512,-1.87096 0.46585,-2.81294 1.19054,-3.06654c3.60244,-1.12942 8.30516,-0.35605 11.06563,1.61126c-0.4744,-0.50147 2.10802,2.58352 -0.11434,5.49627c-0.90574,1.29961 -1.9162,4.06807 -3.24251,6.2428l-1.80169,1.73434c-0.82762,0.79726 -2.44799,0.41191 -3.03884,-0.67093c-0.08747,-0.16009 -0.25569,0.85602 -0.97128,1.02921c-1.28809,0.31172 -3.4643,-0.15767 -3.84162,-1.30361c-0.33186,-1.00446 -1.67505,-1.87794 -1.57573,-3.41663c0.13396,-2.07485 1.92281,-0.04466 2.5637,-1.60252c0.38137,-0.92569 -0.21931,-6.01108 -0.23369,-6.05357z" fill="#f0e9bb"/><path d="M246.0507,188.98121c0.27541,-1.15124 0.70614,-7.85242 1.91307,-7.99591c2.28948,-0.13749 4.77708,4.01807 7.03809,4.09485c-0.70033,-0.01174 -1.58756,2.21111 -1.58756,2.21111c-0.03863,0.12454 -0.38486,2.02656 -0.04636,4.42266c0.27825,1.97014 0.68467,4.01007 -0.25888,4.38618c-0.65244,0.26084 -2.53782,0.85868 -3.77865,0.10273c-1.31803,-0.80353 -3.35552,-1.43737 -4.41749,-2.62295c-0.4599,-0.51321 -2.27728,-1.52827 -2.49294,-2.04951c-0.32727,-0.79354 1.05729,-0.99886 0.85103,-0.91634c-1.03005,0.41233 2.50034,-0.46667 2.77961,-1.63278z" fill="#ead42f"/></g><path d="M263.13599,175.24324c2.27836,0.8543 3.3385,7.45737 0.79532,7.11194c-10.17343,-1.38383 -24.47178,-8.44718 -26.84483,-11.36578c0,0 16.93604,0.83709 26.04952,4.25384z" fill="#ffffff" stroke="none" stroke-width="0.19137" stroke-linecap="butt"/><path d="M283.18448,176.63633c1.95004,-1.99774 4.75655,-3.43037 8.46215,-0.90424c2.76222,1.56375 3.47105,2.53742 4.87655,5.10888c0.59066,1.08065 2.78497,6.08451 3.06173,8.16587c-0.23301,6.66694 -3.71953,4.17615 -6.40176,3.77284c-2.43901,-0.36673 -5.3374,-4.73269 -5.60198,-5.54925c-4.50867,-7.18131 -5.13653,-9.83617 -4.3967,-10.59411z" data-paper-data="{&quot;index&quot;:null}" fill="#54c81c" stroke="none" stroke-width="0" stroke-linecap="butt"/><path d="M260.10024,170.87942c6.25714,0.17176 26.06915,4.71747 28.06782,5.6029c2.80383,1.24217 6.44179,8.33999 5.52118,10.1121c-0.3731,2.42228 -2.62906,2.56404 -3.81246,1.24218c-2.18962,-2.44581 -4.68237,-6.84416 -4.68237,-6.84416c0,0 -20.72719,-5.45646 -24.19036,-5.5775c0,0 -10.61441,-4.80209 -0.90382,-4.53553z" fill="#ffffff" stroke="none" stroke-width="0" stroke-linecap="butt"/><path d="M264.52923,157.85817l5.64149,0.58432l5.98093,3.0441l-3.84474,0.48212c-1.13714,0.31098 -3.54984,1.5626 -5.47629,1.34605c-3.28688,-0.36937 -9.07198,-1.5727 -9.53919,-2.88789z" fill="#54c81c" stroke="none" stroke-width="0.17188" stroke-linecap="butt"/><path d="M253.13768,168.33362c-0.24559,-1.67817 11.65326,0.0884 12.26527,0.79972c0.25279,0.29382 1.16691,-0.01775 2.97756,2.07058c0.84224,0.97208 1.55075,3.96744 2.46284,5.83032l2.92983,5.92754l-7.62735,-6.13765l-6.08559,-0.70458z" data-paper-data="{&quot;index&quot;:null}" fill="#54c81c" stroke="none" stroke-width="0.17188" stroke-linecap="butt"/><path d="M265.09843,158.57498c2.57398,0.46002 2.0124,0.31405 8.72998,2.69711l6.54023,4.89433l-7.63636,0.78295c-2.54034,0.27489 -6.14517,2.88162 -7.8551,2.52839c-2.91067,-0.60063 -11.80913,-1.32698 -12.22271,-1.38202c-0.99897,-0.13293 -1.96681,-12.02919 0.32703,-11.68547z" fill="#54c81c" stroke="none" stroke-width="0.1848" stroke-linecap="butt"/><path d="M264.17269,157.20988c1.09663,0.64804 -1.718,3.31163 -3.13864,3.54959c-2.19754,0.36784 -4.34506,-0.71465 -6.56599,-1.35946c-6.07577,-1.76402 -12.29758,-0.03332 -12.37378,-0.36184c-0.06721,-0.32168 9.21071,-2.56947 11.79037,-2.67254c3.47069,0.16283 7.86186,-0.4531 10.28806,0.84426z" fill="#ffffff" stroke="none" stroke-width="0.17188" stroke-linecap="butt"/><path d="M253.4558,157.86141c4.53416,0.60335 5.72809,1.02509 7.3572,1.78562c1.90133,0.88723 3.82713,2.15975 3.64056,3.56183c-0.17845,1.34093 -1.80721,2.27639 -4.52401,3.37576c-1.3278,0.53821 -2.21559,1.72987 -4.67683,1.838c-2.2804,0.09985 -9.80639,-0.66045 -12.098,-0.9654c-6.2718,-0.83458 -9.01456,-0.3982 -12.55658,-3.30655c-1.53663,-1.26166 1.00264,-2.17109 2.67361,-3.01126c2.99493,-1.50663 6.10929,-2.09682 9.34674,-2.29044c3.65886,-0.2096 6.25531,-1.59734 10.83736,-0.98762z" fill="#ffffff" stroke="none" stroke-width="0.17188" stroke-linecap="butt"/><path d="M250.5286,166.74265c4.57201,0.13923 8.23675,2.32374 9.93512,2.91511c1.98208,0.68934 4.50041,2.59735 3.40756,3.49556l-1.70464,1.40055c-1.1066,0.90998 -4.06434,0.97706 -6.11869,0.7809c-3.07925,-0.30248 -6.17861,-1.4246 -9.34404,-2.09759c-2.98871,-0.78212 -5.56438,0.32148 -8.44205,-1.10732c-0.65599,-0.32673 -1.8861,-1.89332 -2.40125,-2.65839c-1.18013,-1.75266 -4.04994,-3.09038 -4.04677,-3.75143c0.00527,-1.34632 6.0154,-0.12664 10.50963,0.7801c3.21612,0.64855 3.58441,0.10185 8.20511,0.24255z" fill="#ffffff" stroke="none" stroke-width="0.17188" stroke-linecap="butt"/><path d="M262.1482,176.11166c0.64175,0.12734 1.87379,0.20132 3.70708,1.83707c0.79402,0.70913 3.02299,2.39649 4.44029,3.6472l2.81337,2.62923c0.85274,0.84492 -3.56704,-0.71193 -5.2347,-1.0387c-2.15351,-0.42028 -4.62537,0.01941 -6.46644,-1.28312c-0.70454,-0.49482 1.07061,-1.34794 1.20092,-2.29447c0.16476,-1.21816 -1.38092,-3.67986 -0.46051,-3.49721z" data-paper-data="{&quot;index&quot;:null}" fill="#54c81c" stroke="none" stroke-width="0.17188" stroke-linecap="butt"/><g><path d="M197.38103,175.21489c0.99825,-2.41871 2.6819,-4.03372 4.26163,-6.0885c1.37573,-1.79309 2.89887,-3.80041 3.94676,-5.8183c0.77072,-1.46545 -0.05128,-1.484 -0.10028,-3.07444c-0.73803,-0.66916 -0.99938,-0.54733 -1.89268,-0.95672c-0.14451,-0.1246 -0.88864,-1.30517 -0.75324,-1.56883c0.11244,-0.33181 2.32262,0.62523 2.90094,0.15565c0.07367,-0.03721 0.46754,0.0599 0.3907,-0.07723c-1.6562,-1.4559 -3.81691,-2.12875 -5.78751,-3.08c-1.31951,-0.66958 -2.65596,-1.3482 -3.84645,-2.23758c-0.63945,-0.47343 -1.31105,-1.32164 -0.91278,-2.15074c0.57779,-1.0151 1.83923,-1.30674 2.89226,-1.57463c2.51281,-0.49084 5.13626,-0.305 7.61431,0.2911c4.14271,0.96303 8.08576,3.2782 10.48153,6.85346c0.90025,1.81317 0.83339,1.53492 1.8079,3.28214c1.97366,2.5146 2.67051,6.31656 2.88981,9.35428c0.30835,2.45501 0.2135,4.9407 -0.21931,7.37779c-0.33657,1.56559 -0.42092,3.29032 -1.36762,4.63875c-0.9019,1.24193 -2.20281,2.30851 -3.77696,2.47654c-3.80318,0.61942 -7.6068,1.27513 -11.45193,1.5489c-1.05798,0.01954 -2.20199,0.20761 -3.20388,-0.22043c-0.85076,-0.66177 -1.45368,-1.59916 -2.16733,-2.4003c-0.51527,-0.73744 -1.33568,-1.38962 -1.40835,-2.3413c-0.10756,-1.04468 -0.67231,-3.39877 -0.29747,-4.3897z" fill="#f0e9bb" stroke="none" stroke-width="0.17188" stroke-linecap="butt"/><path d="M180.73053,151.69297c-0.82407,-3.69059 -0.45506,-6.42488 0.57118,-8.09417c0.14539,-0.23783 0.32553,-0.12648 0.56818,-0.41924c0.29391,-0.35425 0.71198,-1.28913 0.6048,-1.10979c0,0 0.67253,0.27335 0.9755,0.21944c0.38517,-0.06883 0.79775,-0.59424 0.73268,-0.21671c0,0 0.55057,-0.29117 0.7611,-0.25726c2.29953,0.36929 5.35792,1.97333 7.04803,4.27617c1.87084,-1.45758 -9.34025,7.70669 -11.26148,5.60146z" fill="#ed3e67" stroke="none" stroke-width="0.17188" stroke-linecap="butt"/><path d="M200.67242,183.72543l9.70782,-0.16849l7.71471,-1.5608l5.42491,-1.53351c0.63765,-0.18113 -3.90501,7.08031 -5.595,8.64292c-2.09091,1.93383 -4.44152,3.25589 -6.79685,4.56745c-1.71624,0.95663 -2.44072,1.0831 -3.71437,1.44521l-3.95432,1.12339c-0.75128,0.2136 -4.60464,0.89786 -5.33146,0.20199c-0.20617,-0.19753 1.52205,-3.03641 1.48992,-3.34326l-0.241,-2.23931c-0.07086,-0.66444 -1.64825,-2.53858 -2.16134,-3.07751c-0.37439,-0.39394 -3.19104,-2.51925 -5.77831,-2.56138l-2.55934,-0.04148c-0.38324,-0.00631 -4.2969,1.27132 -4.38071,1.12471c-0.17375,-0.30177 -4.13514,3.55488 -4.33355,3.24213c-1.10685,-1.73991 -2.51366,-3.84476 -3.2548,-6.27508c-1.16518,-3.82065 -1.38245,-8.08758 -1.52866,-10.27159c-0.02489,-0.37247 -0.24861,-5.12413 0.47973,-8.03474c1.15302,-4.60902 3.82974,-7.36368 3.97385,-7.55017c2.26164,-2.92883 4.98755,-5.19097 8.11547,-6.87569l2.68031,-0.99362c1.37194,-0.50875 8.98793,-2.48344 11.78024,-1.94717l9.53581,1.82905c1.66996,0.31989 9.67122,4.03345 9.29711,4.95099c-0.52275,1.28562 -5.34469,1.69779 -4.72004,2.06996c1.38359,0.82516 -5.65062,-5.96565 -7.48439,-6.16823c-3.1352,-0.34596 -6.1698,-1.29003 -8.3229,-0.85225c-0.40649,0.08305 -3.21188,0.34823 -3.88766,0.44917c-0.53427,0.07917 -0.94537,0.44157 -0.76299,0.97002c0.12113,0.35179 -0.24908,1.23949 0.65164,1.70947l2.67114,1.39187c0.43256,0.22597 8.29699,4.41495 7.74607,4.69615c-0.10247,0.05196 -2.57187,-0.70601 -2.73488,-0.74458c-0.98594,-0.23444 -1.73755,-0.207 -1.36863,0.07201c0.97015,0.73381 3.45831,1.89556 3.45831,1.89556c0.30896,0.17009 0.29931,2.33208 -0.08828,3.82215c-0.36053,1.38633 -1.85225,3.2141 -2.21974,3.67422l-3.99709,4.99979c-3.75238,4.6961 -2.02033,4.2751 -2.47359,4.56848c-0.33024,-0.17084 -0.17727,3.15041 0.61416,3.87735c0.31524,0.28957 0.94685,1.19929 1.27101,1.66806c0.43072,0.62386 0.69075,1.05613 1.07797,1.24662z" fill="#54c81c" stroke="none" stroke-width="0.17188" stroke-linecap="butt"/><path d="M195.6217,200.60942c-0.64056,2.5158 -2.71866,4.96632 -4.58251,6.1226c-0.17053,0.10617 -0.75312,0.07133 -0.75312,0.07133c0.19204,0.28573 -0.35509,0.00682 -0.7138,0.09354c-0.28194,0.06797 -0.76781,0.54223 -0.76781,0.54223c0.15773,0.10731 -0.54074,-0.50427 -0.92271,-0.68638c-0.3161,-0.15001 -0.43247,0.00847 -0.64499,-0.13272c-1.48883,-0.98872 -2.79032,-3.09454 -3.40074,-6.42744c-0.79791,-4.36072 2.11701,-8.48007 3.69534,-8.60683c0,0 9.18349,4.72726 8.09029,9.02365z" fill="#ed3e67" stroke="none" stroke-width="0.17188" stroke-linecap="butt"/><path d="M190.09004,188.14274c-0.46875,-0.56795 5.67239,0.72858 6.63382,2.20902c1.65303,2.54613 2.68889,2.16309 2.17876,4.49265c-0.11372,0.52308 -0.93304,1.60682 -1.4168,3.10877c-0.55958,1.74005 -1.40567,3.30901 -1.73934,2.77398l-2.23786,-3.20047l-5.93419,-4.53393c-0.09228,-0.07048 -0.86647,1.01466 -1.85682,2.68555c-0.69471,1.17155 -1.49146,2.90526 -1.88667,4.23812c-0.23262,0.78544 -1.23779,-0.66864 -2.03236,-2.7889c-0.38536,-1.02781 -0.87271,-2.11314 -0.90246,-3.36563c-0.05091,-2.16916 2.29692,-3.94704 4.75917,-4.72613c2.30585,-0.72991 4.74583,-0.51476 4.43474,-0.89298z" fill="#54c81c" stroke="none" stroke-width="0.17188" stroke-linecap="butt"/><path d="M189.69247,185.03774c4.9063,-0.50263 9.64519,4.00552 9.66007,5.58536l0.65142,2.43331l-1.80629,3.6623c-0.46281,0.93764 -0.08013,-4.8931 -1.73257,-6.17192c-1.07789,-0.83475 -1.90745,-1.44119 -2.31548,-1.53794c-3.89033,-0.91625 -6.98084,-0.53482 -8.9412,0.37933c-3.08037,1.4364 -3.90811,3.8873 -4.76524,2.40471c-2.04477,-3.53506 3.88737,-6.20553 9.24928,-6.75517z" fill="#ead32e" stroke="none" stroke-width="0.17188" stroke-linecap="butt"/><path d="M184.45426,152.92084c0,0 -1.3249,1.24965 -2.35254,2.13975c-2.14371,1.85687 -3.31128,4.48957 -3.98865,4.05708c-0.29059,-0.38233 0.08656,-2.49595 0.5725,-3.10388l0.9862,-1.23497c1.73483,-2.17142 4.42758,-3.19141 5.55912,-3.24936c0.48946,-0.02516 1.33935,-0.61318 1.89685,-0.48096c0,0 -1.58614,1.46097 -2.67347,1.8723z" fill="#ead32e" stroke="none" stroke-width="0.17188" stroke-linecap="butt"/><path d="M179.19139,154.86055c0,0 -0.48455,-4.3488 0.65858,-5.2274c0.759,-0.58406 2.74862,-0.0287 3.30796,-0.68212c0.69455,-0.81128 2.46861,-2.08409 3.79211,-2.79095c1.23949,-0.27989 2.40378,-0.82649 3.84564,-0.40166c1.21645,-0.31756 3.73205,2.57075 3.33631,2.71496l-5.37896,1.96051c-1.36487,0.49734 -4.12398,1.5989 -4.67846,1.88751z" fill="#54c81c" stroke="none" stroke-width="0.17188" stroke-linecap="butt"/><g fill="none" stroke="#000000" stroke-width="1.5" stroke-linecap="round"><path d="M213.43324,171.30663l-7.30768,4.57765"/><path d="M208.0619,170.30385l3.53959,7.04999"/></g><g fill="none" stroke="#000000" stroke-width="1.5" stroke-linecap="round"><path d="M205.81067,158.06361l7.30763,-4.57765"/><path d="M207.74701,152.48318l3.5396,7.04997"/></g></g><path d="M232.22355,165.76658c0.25956,-0.29083 4.78551,3.09694 6.46878,5.10453c0.9606,1.14599 7.38461,5.12253 6.95429,5.61021c-0.15742,0.17841 -2.02845,-1.12667 -3.44788,-1.673c-0.96371,-0.37093 -2.66123,-1.26427 -2.66123,-1.26427c0,0 -1.79421,-1.64132 -3.47752,-3.64845c-1.68327,-2.00761 -5.06314,-4.03797 -4.80358,-4.32881z" data-paper-data="{&quot;index&quot;:null}" fill="#d3d656" stroke="none" stroke-width="0.17188" stroke-linecap="butt"/><path d="M233.4547,160.6936c2.36952,-1.11692 7.40393,-1.66842 7.40393,-1.66842c0,0 -6.22463,1.65698 -7.57707,2.2949c-2.36968,1.11736 -2.11435,1.94906 -2.22813,1.57622c0,0 -1.87741,0.48603 -1.24158,-0.12966c0.35484,-0.34359 2.79408,-1.67282 3.64285,-2.07304z" data-paper-data="{&quot;index&quot;:null}" fill="#d3d656" stroke="none" stroke-width="0.17188" stroke-linecap="butt"/><g stroke="none" stroke-linecap="butt"><path d="M220.45035,167.13449c-0.38553,-0.63825 0.08804,-1.41762 1.16395,-2.16124c1.07593,-0.74359 2.75485,-1.45217 4.78032,-1.9477c2.02507,-0.49562 4.01669,-0.68526 5.59855,-0.59213c1.58178,0.09355 2.75324,0.47031 3.13878,1.10851c0.38521,0.63773 -0.08834,1.41717 -1.16437,2.1612c-1.07593,0.74359 -2.75479,1.45171 -4.78028,1.94724c-2.02507,0.49562 -4.01679,0.68575 -5.59855,0.59213c-1.58186,-0.09314 -2.75326,-0.47034 -3.13844,-1.10808z" fill="#eb3d66" stroke-width="0.01872"/><path d="M221.94995,165.92715c-0.16547,-0.2951 0.04454,-0.67839 0.51771,-1.05914c0.47323,-0.38117 1.2096,-0.75966 2.09654,-1.04523c0.88701,-0.28598 1.75782,-0.42482 2.44829,-0.41869c0.69083,0.00625 1.2012,0.15732 1.36666,0.45242c0.16591,0.29472 -0.0444,0.67806 -0.51765,1.05917c-0.47323,0.38117 -1.2096,0.75966 -2.09615,1.04531c-0.88693,0.28558 -1.75829,0.42472 -2.44868,0.41856c-0.69083,-0.00625 -1.20078,-0.15729 -1.36669,-0.45246z" fill="#ffffff" stroke-width="0.01896"/></g></g><g><path d="M264.7985,209.33479c4.73861,-6.34102 14.57682,-10.7934 23.14721,-11.41328c5.91287,-0.42187 27.04963,-8.18707 30.51747,-4.18464c4.80738,3.25704 13.17423,-1.97983 15.54247,2.50073c0.08293,2.16518 -8.47195,3.24364 -9.42536,4.69815c-1.13093,1.74294 11.04025,0.33245 8.27802,3.00972c-4.34491,4.21126 -13.45752,13.48019 -23.84254,16.68457c-10.38502,3.20444 -24.80331,12.56146 -32.12201,7.4304c-3.09808,-2.17337 -1.04401,-7.7498 -3.06628,-10.95015c-2.11433,-3.34856 -11.25146,-4.79973 -9.02906,-7.77551z" data-paper-data="{&quot;index&quot;:null}" fill="#f8f8f8" stroke="none" stroke-width="1" stroke-linecap="round"/><path d="M237.13283,226.66959c-4.39334,-0.64978 -8.74708,-0.47542 -4.23911,-3.05843c10.54053,-6.04246 24.20661,-15.90634 35.26732,-20.83429c7.86163,-3.50264 13.0937,-2.70927 20.85307,-5.53563c3.29383,0.31143 -9.42983,6.10524 -10.12019,9.6291c-0.38959,2.01216 8.00896,-1.79034 8.2047,0.98668c0.74074,5.50321 -7.04117,10.0221 -6.33156,15.57327c0.54529,4.24091 12.79881,4.79932 8.36266,4.97813c-21.39898,4.7355 -34.42519,0.86743 -51.9969,-1.73879z" data-paper-data="{&quot;index&quot;:null}" fill="#e2a026" stroke="none" stroke-width="1" stroke-linecap="round"/><path d="M276.17673,236.09005c7.70671,-1.80831 18.10388,1.10929 25.0655,6.14634c4.79921,3.4796 25.97907,11.12654 26.06061,16.42169c1.5867,5.58586 11.3617,6.9564 10.29372,11.91055c-1.32896,1.71138 -8.57359,-2.96454 -10.2391,-2.46387c-1.98691,0.60737 8.24055,7.35474 4.40352,7.62845c-6.0355,0.43057 -18.97469,1.66805 -28.98801,-2.55687c-10.01337,-4.22493 -27.0721,-6.33211 -29.37668,-14.96811c-0.97474,-3.65671 4.18446,-6.60598 4.69408,-10.35726c0.53442,-3.924 -5.52924,-10.91143 -1.91366,-11.76096z" data-paper-data="{&quot;index&quot;:null}" fill="#f8f8f8" stroke="none" stroke-width="1" stroke-linecap="round"/><path d="M243.84299,231.5724c-2.94643,-3.32299 -6.39254,-5.98939 -1.2793,-5.06828c20.45673,3.68094 41.9383,8.80212 60.61503,15.60364c4.61856,1.68586 -11.82823,-1.09448 -14.62315,1.16002c-1.59238,1.29032 7.28438,3.77968 5.64836,6.03213c-2.97196,4.6906 -11.83727,3.14641 -14.86389,7.85369c-2.30981,3.59826 5.84114,11.32827 2.32911,8.61227c-15.90883,-7.00763 -26.04641,-20.89709 -37.82622,-34.19344z" data-paper-data="{&quot;index&quot;:null}" fill="#e2a026" stroke="none" stroke-width="1" stroke-linecap="round"/><g data-paper-data="{&quot;index&quot;:null}" stroke-linecap="round"><path d="M239.18969,213.66642c-1.88295,0.81961 -1.31004,4.56595 -3.24511,5.05494c-1.98457,0.48798 -4.81179,-0.83787 -5.21352,-2.67308c-0.65813,-2.86687 0.89646,-6.04723 2.77071,-8.16264c1.1298,-1.30306 3.24177,-1.49474 5.04452,-1.17056c3.22546,0.57565 6.7829,1.35426 9.17481,3.56322c0.93369,0.86988 -0.03357,3.32026 -1.27151,3.85636c-2.20799,0.96171 -5.03768,-1.43027 -7.25989,-0.46822z" fill="#e88820" stroke="none" stroke-width="0.49091"/><g><path d="M222.84375,227.99194c3.19552,0.06311 6.47625,-0.24703 9.67278,-0.60045c1.20965,-0.13401 3.55418,-1.10543 3.44994,-0.76159c-0.10719,0.35436 -2.4957,1.99555 -4.12734,2.44537c-2.01767,0.55753 -4.29684,0.56567 -6.46902,0.60298c-3.27045,0.05658 -6.63215,0.33832 -9.81915,-0.23024c-2.27447,-0.47757 -7.33228,-2.58541 -6.08782,-2.8184c2.02018,-0.37841 8.8979,1.27349 13.38061,1.36231z" fill="#989898" stroke="url(#color-1)" stroke-width="0.86398"/><path d="M224.70143,215.58562c3.07107,-0.02662 5.93873,1.52595 8.5463,2.82606c1.70012,0.85069 3.51905,1.81623 4.0599,3.26409c0.52082,1.40127 0.42386,3.62597 -1.25538,4.2252c-3.5357,1.25895 -7.95087,1.23262 -11.79225,0.43735c-1.45797,-0.31578 -0.53271,-2.77403 -1.91392,-3.31304c-3.5933,-1.40191 -9.40631,-0.57726 -11.72532,-2.08201c-1.117,-0.72299 3.21005,-1.67455 5.0216,-2.29697c2.89203,-1.16707 5.71308,-3.03126 9.0591,-3.06072z" fill="url(#color-2)" stroke="none" stroke-width="0.95611"/><path d="M219.77705,218.53205c4.06656,1.76814 7.91421,5.19635 8.96009,8.44057c0.46226,1.43699 -4.07076,1.03915 -6.01826,0.98542c-3.82538,-0.10584 -7.75697,-0.60941 -11.36858,-1.43526c-1.44774,-0.33283 -3.95254,-0.78074 -3.80397,-1.94711c0.25182,-1.98607 2.56411,-3.62556 4.71551,-4.68523c2.13847,-1.0524 5.22289,-2.32647 7.51519,-1.35835z" fill="#f8f8f8" stroke="none" stroke-width="0.96562"/><path d="M232.0605,215.08942c1.84759,0.47323 3.93371,0.27705 5.63079,1.16309c0.83207,0.43388 1.68362,1.63304 1.30196,2.56744c-0.3123,0.91982 -1.71111,1.3522 -2.73251,1.26262c-1.7597,-0.15359 -3.22275,-1.55761 -4.90291,-2.03278c-1.95032,-0.55319 -4.18426,-0.29159 -5.9602,-1.24113c-0.70537,-0.37971 -1.13272,-1.66917 -0.93334,-2.65404c0.23515,-0.50698 1.2263,-0.64376 1.8791,-0.5964c1.95493,0.13755 3.80732,1.04271 5.71715,1.53119z" fill="#ffffff" stroke="none" stroke-width="0.83893"/><path d="M232.7608,212.14921c1.84759,0.47323 3.93372,0.27701 5.6308,1.16305c0.83205,0.43391 1.6836,1.63306 1.30194,2.56746c-0.31226,0.91983 -1.71107,1.35221 -2.73247,1.26263c-1.75966,-0.15358 -3.22275,-1.55762 -4.90291,-2.03279c-1.95031,-0.55322 -4.18423,-0.29156 -5.96017,-1.2411c-0.70533,-0.37969 -1.13272,-1.66918 -0.93334,-2.65405c0.23515,-0.50699 1.22629,-0.64376 1.87909,-0.5964c1.95491,0.13755 3.8073,1.04275 5.71713,1.53123z" fill="#ffffff" stroke="none" stroke-width="0.83893"/></g></g><path d="M241.61108,218.30533c1.9306,-3.64631 3.12538,-6.946 7.28043,-7.031c2.8645,-0.05244 8.36743,6.93222 10.04905,9.23426c1.55448,2.11085 3.597,4.25825 3.85827,6.86712c0.25794,2.60377 -1.35559,5.20072 -2.61481,7.60173c-0.27396,0.58733 -0.73797,1.23367 -1.76619,0.93938c-4.11582,-1.17703 -8.08983,-2.9573 -11.84143,-5.01276c-2.0938,-1.14726 -4.92528,-1.94696 -5.89217,-4.12865c-0.8043,-1.87632 -1.00373,-4.82372 0.92687,-8.47003z" data-paper-data="{&quot;index&quot;:null}" fill="#f8b820" stroke="none" stroke-width="0.49091" stroke-linecap="round"/><path d="M243.63155,221.80658c-0.16166,-4.30734 2.19413,-9.71598 6.53025,-8.41199c2.06511,0.62395 8.61442,5.84296 8.34294,7.84074c-0.19794,1.94437 -2.46493,9.66465 -4.07682,9.56606c-2.37107,-0.22754 -3.01688,-1.58372 -5.73874,-3.23869c-2.72187,-1.65497 -4.896,-1.4487 -5.05768,-5.75609z" data-paper-data="{&quot;index&quot;:null}" fill="#f8f8f8" stroke="none" stroke-width="1" stroke-linecap="round"/><g data-paper-data="{&quot;index&quot;:null}" stroke-linecap="round"><path d="M237.46995,238.38277c1.84044,-1.85201 5.36943,-0.62962 8.05214,-1.21774c1.98401,-0.43322 4.00641,-0.97411 5.91047,-1.83803c2.50842,-1.13796 4.54702,-4.05746 7.17807,-4.13896c1.63113,-0.04966 3.42794,2.37991 2.46692,3.716c-2.11719,2.8508 -6.16582,4.07213 -9.48747,5.75619c-1.53644,0.77704 -3.26354,1.6106 -4.99389,2.02311c-2.3656,0.55321 -5.45895,2.01445 -7.56532,0.93659c-1.7403,-0.91494 -2.93774,-3.85246 -1.56094,-5.23711z" fill="#f8b820" stroke="none" stroke-width="0.65663"/><g><path d="M217.60087,246.2162c-0.65151,-2.64338 0.52998,-5.11377 1.16222,-7.4307c0.63823,-1.94267 1.01027,-4.63751 2.60276,-5.20918c1.76664,-0.63445 5.51859,2.61318 5.77954,2.20175c0.25724,-0.40741 -5.08896,-3.11864 -4.50861,-4.4348c0.86192,-1.94929 4.74298,-2.4501 7.47075,-2.12595c1.87181,0.2846 3.41204,3.77297 5.34843,3.82356c1.90077,0.05252 3.79024,-4.56073 4.4587,-3.52968c0.88868,1.71071 -1.40531,5.98132 -1.32175,9.05079c0.04685,1.72952 0.82487,3.58217 1.77125,5.05489c1.28214,1.99368 5.45005,3.8692 4.75373,5.0415c-0.9986,1.67829 -5.39983,0.72206 -8.16027,0.64375c-0.93727,-0.0201 -1.36772,-1.55963 -2.38813,-1.20428c-4.0808,1.42358 -7.23379,6.70538 -11.8026,6.19512c-2.59385,-0.28793 -4.38818,-4.92946 -5.16606,-8.07679z" fill="#ffffff" stroke="none" stroke-width="0.67216"/><path d="M235.34255,247.98645l-1.47196,-4.72546l1.38418,-10.00367" fill="none" stroke="#707070" stroke-width="0.84586"/></g></g><g data-paper-data="{&quot;index&quot;:null}" stroke-linecap="round"><path d="M272.7856,210.94471c-0.47378,2.56764 -4.07681,3.55061 -5.95931,5.55037c-1.39321,1.47745 -2.58331,3.47954 -3.84136,4.85345c-4.50423,3.62866 -3.69218,-1.54361 -3.14043,-4.3134c0.25424,-1.7163 1.78263,-3.17265 2.98026,-4.48888c1.67814,-1.836 3.36901,-4.74424 5.71618,-5.04349c1.95298,-0.22706 4.59952,1.52178 4.24463,3.44191z" fill="#f8b820" stroke="none" stroke-width="0.65663"/><g><path d="M274.67557,199.70421c0.04089,-1.6469 0.46772,-3.74347 2.02309,-4.41296c1.48378,-0.63829 3.94627,-0.00859 5.61333,1.13025c2.28671,1.56334 4.53405,3.80752 5.218,6.15264c0.79156,2.70988 0.19213,5.57685 -1.24472,7.53384c-1.46963,1.99783 -4.35498,2.70886 -6.89371,3.53998c-2.41033,0.78873 -5.02202,1.63445 -7.80226,1.27935c-0.79647,-0.10228 0.28162,-1.55618 -0.23871,-2.20992c-0.84846,-1.06591 -2.21878,-1.70908 -3.37625,-2.48231c-0.6655,-0.44409 -2.01464,-0.4075 -2.09017,-0.99577c-0.06188,-1.6786 0.95311,-2.93617 1.77924,-4.18068c0.33477,-0.50317 0.89922,-0.81094 1.46574,-1.07601c1.09259,-0.51038 2.26012,-1.07781 3.36544,-1.23256c1.55339,-0.09182 4.22959,2.83027 2.18086,-3.04592z" fill="#a8c8d8" stroke="none" stroke-width="0.6774"/><path d="M268.88831,204.75443l5.26067,2.30179l2.49714,5.96279" fill="none" stroke="#707070" stroke-width="0.7719"/></g></g><g data-paper-data="{&quot;index&quot;:null}" stroke-linecap="round"><path d="M234.13924,222.30429c-1.99384,-0.49069 -3.81089,2.83515 -5.64621,2.0501c-1.87333,-0.81584 -3.31656,-3.58466 -2.52294,-5.28733c1.21587,-2.67879 4.38126,-4.26414 7.15406,-4.80885c1.68854,-0.35017 3.484,0.77833 4.72052,2.1296c2.21486,2.41434 4.57074,5.19118 5.13246,8.39833c0.21448,1.25779 -2.04066,2.61928 -3.35023,2.29428c-2.33841,-0.5747 -3.13716,-4.19283 -5.48763,-4.77611z" fill="#f8b820" stroke="none" stroke-width="0.49091"/><g><path d="M206.46164,226.91412c2.89547,2.47657 6.15171,4.67327 9.36323,6.76633c1.21543,0.79152 4.1097,1.67139 3.75384,1.90906c-0.36667,0.24542 -3.80858,-0.05082 -5.65173,-0.87087c-2.28028,-1.01344 -4.38535,-2.73052 -6.41461,-4.33971c-3.05475,-2.42246 -6.36432,-4.70667 -8.86908,-7.64169c-1.73362,-2.16088 -4.7969,-7.92954 -3.47423,-7.2027c2.14675,1.18005 7.23112,7.9059 11.29261,11.37954z" fill="#989898" stroke="url(#color-3)" stroke-width="1.02986"/><path d="M217.54357,217.15112c2.84846,2.29926 4.31473,5.89904 5.73306,9.06969c0.92234,2.06983 1.8668,4.33545 1.26901,6.07817c-0.58035,1.68499 -2.35307,3.6608 -4.35298,2.94148c-4.20933,-1.51536 -8.25547,-4.88075 -11.19183,-8.51972c-1.10431,-1.39442 1.60829,-2.95839 0.74408,-4.49966c-2.24932,-4.01019 -8.22695,-7.64952 -9.22432,-10.79007c-0.48154,-1.51097 4.22412,0.88693 6.36317,1.68426c3.5471,1.11337 7.55591,1.53131 10.65983,4.03586z" fill="url(#color-4)" stroke="none" stroke-width="1.13968"/><path d="M210.69007,216.04338c2.40763,4.70608 3.35755,10.77447 1.86572,14.55416c-0.66157,1.6733 -4.53537,-2.12289 -6.28847,-3.6462c-3.4432,-2.99228 -6.68318,-6.43071 -9.3849,-9.9245c-1.08143,-1.40219 -3.04923,-3.70965 -2.03007,-4.67187c1.73481,-1.63838 5.10511,-1.39857 7.88797,-0.74687c2.76603,0.64883 6.57128,1.80906 7.94976,4.43528z" fill="#f8f8f8" stroke="none" stroke-width="1.15102"/><path d="M224.7803,222.19338c1.34327,1.83389 3.41299,3.23172 4.30584,5.33205c0.43797,1.02899 0.31481,2.77781 -0.74407,3.34977c-0.98339,0.61074 -2.59878,-0.04927 -3.47158,-0.9046c-1.50454,-1.47313 -1.78972,-3.8733 -2.97774,-5.58264c-1.37753,-1.98497 -3.6329,-3.4342 -4.54981,-5.65285c-0.363,-0.88355 0.21966,-2.39427 1.1482,-3.15057c0.59994,-0.28936 1.6165,0.33544 2.18174,0.87222c1.69658,1.6062 2.71757,3.84199 4.10742,5.73661z" fill="#ffffff" stroke="none" stroke-width="1"/><path d="M227.66939,220.00073c1.34325,1.83384 3.41299,3.23172 4.30584,5.33205c0.43796,1.02903 0.31481,2.77781 -0.74407,3.34977c-0.98339,0.61074 -2.59878,-0.04927 -3.47158,-0.9046c-1.50459,-1.47315 -1.78977,-3.87332 -2.97779,-5.58266c-1.37753,-1.98497 -3.6329,-3.4342 -4.54981,-5.65285c-0.36302,-0.88351 0.21966,-2.39427 1.1482,-3.15057c0.59994,-0.28936 1.6165,0.33544 2.18174,0.87222c1.69658,1.6062 2.71757,3.84199 4.10742,5.73661z" fill="#ffffff" stroke="none" stroke-width="1"/></g></g><path d="M252.65474,231.73803c0.3553,-3.31556 0.74944,-6.99358 2.88332,-9.5797c0.86965,-1.20082 3.6647,-3.2141 4.73688,-2.17188c0.98849,0.9605 -0.0905,5.29945 -0.12612,6.67912c-0.15082,3.04247 0.49632,6.81361 -0.75105,9.12764c-0.52482,0.96926 1.14692,1.88233 -2.87854,-2.53204c-1.22896,-0.29386 -1.62761,3.22768 -2.53217,2.87891c-1.10217,-0.42373 -1.49763,-2.87861 -1.33232,-4.40205z" data-paper-data="{&quot;index&quot;:null}" fill="#f8f8f8" stroke="none" stroke-width="1" stroke-linecap="round"/><path d="M327.47675,246.77013c-0.75947,3.11277 -17.83421,4.83424 -18.96353,5.03764c-1.94082,0.36948 -3.40416,0.60233 -5.83301,0.69743c-9.72343,0.37645 -20.87476,5.74516 -29.2067,0.86799c-6.81037,-3.98651 -6.78601,-14.60704 -7.61213,-22.44918c-0.66911,-6.33324 -1.4005,-15.05954 3.52966,-18.79764c5.83423,-4.41752 14.67499,-0.49159 21.94418,-1.35696c2.7436,-0.32175 7.70869,-2.79955 14.35057,-3.65429c6.64188,-0.85474 16.40046,-2.16644 16.92186,-0.37013c0.83541,2.87803 -4.89792,4.01314 -7.45248,6.56729c-2.55457,2.55415 -5.67833,3.15875 -7.16633,5.55514c-1.16049,1.86891 0.99009,9.78621 3.26097,14.9614c1.5757,3.53378 16.83053,10.46719 16.2269,12.94131z" data-paper-data="{&quot;index&quot;:null}" fill="#f8b820" stroke="none" stroke-width="1" stroke-linecap="round"/><path d="M319.43065,246.27794c-0.30252,1.30302 -9.28932,0.93704 -10.49288,0.75429c-1.62228,-0.12853 -7.97298,-0.12781 -8.6914,-1.48067c-0.71943,-1.36694 0.60118,-3.14885 1.4723,-4.43109c0.69428,-0.99892 2.3728,-4.7288 3.49488,-4.77969c1.93689,-0.08283 4.08507,2.42053 5.91229,3.60056c1.48169,1.04529 8.35886,4.69457 8.30478,6.33661z" data-paper-data="{&quot;index&quot;:null}" fill="#ffffff" stroke="none" stroke-width="0.85185" stroke-linecap="butt"/><path d="M284.64408,258.8379c0.2518,2.39812 0.31787,8.06786 -0.48252,7.66548c-0.80039,-0.40238 -2.00463,-6.6787 -3.7804,-9.6128c-1.19731,-2.04453 -3.05814,-6.52492 -4.51891,-5.36913c-3.01451,2.54685 -2.99445,12.66689 -4.43173,12.76637c-1.44133,0.09953 -1.11744,-8.16393 -2.80836,-11.84501c-1.80351,-3.91706 -5.49837,-6.38532 -7.21502,-10.16271c-2.19663,-4.81363 -4.45348,-9.86407 -4.26996,-15.04608c-0.00255,-5.4773 1.98093,-11.01445 4.78978,-15.59337c1.28462,-2.09208 5.31604,-5.07027 6.59719,-3.32936c2.23692,3.03958 0.60069,8.61552 0.20529,12.89406c-0.15903,3.42841 -2.50828,6.75058 -1.85434,10.10558c0.59254,3.2955 3.4642,5.7003 5.57438,8.37513c3.18798,4.04413 7.3038,7.38434 10.06127,11.72956c1.38087,2.1786 1.86693,4.86317 2.13338,7.4223z" data-paper-data="{&quot;index&quot;:null}" fill="#f8f8f8" stroke="none" stroke-width="1" stroke-linecap="round"/><path d="M261.1153,230.85932l-3.2472,-7.00638" data-paper-data="{&quot;index&quot;:null}" fill="none" stroke="#cccccc" stroke-width="0.36953" stroke-linecap="round"/><path d="M270.07025,229.27512l14.2,11.8" data-paper-data="{&quot;index&quot;:null}" fill="none" stroke="#5d2404" stroke-width="1.5" stroke-linecap="round"/><path d="M269.37026,240.37512l12.9,-12.9" data-paper-data="{&quot;index&quot;:null}" fill="none" stroke="#5d2404" stroke-width="1.5" stroke-linecap="round"/><path d="M280.67026,211.87512l-9.6,5.2" data-paper-data="{&quot;index&quot;:null}" fill="none" stroke="#5d2404" stroke-width="1.5" stroke-linecap="round"/><path d="M273.87026,210.87512l3.6,7.6" data-paper-data="{&quot;index&quot;:null}" fill="none" stroke="#5d2404" stroke-width="1.5" stroke-linecap="round"/><path d="M267.26577,217.83791c-0.6311,1.04859 -2.98533,-2.84038 -2.85721,-4.50376c0.12812,-1.66337 3.05016,-5.14596 3.51323,-4.01306c0.46308,1.13287 0.6861,2.66328 0.55798,4.32665c-0.12813,1.66337 -0.58292,3.14158 -1.214,4.19017z" data-paper-data="{&quot;index&quot;:null}" fill="#101010" stroke="none" stroke-width="1" stroke-linecap="butt"/><g data-paper-data="{&quot;index&quot;:null}" fill="#f8b820" stroke="none" stroke-width="1.22222" stroke-linecap="round"><path d="M290.1654,215.37507l-5.2391,-8.51055l-7.49584,-4.93732l10.38312,3.25193l4.25727,9.08837z"/><path d="M291.87161,213.9417l0.85464,-7.9619l-5.32382,-8.45287c0,0 7.8964,5.32287 8.41427,6.74483c0.36328,0.99749 -1.24441,10.18202 -1.24441,10.18202z"/><path d="M295.25082,214.78304c0,0 3.23435,-4.192 3.87371,-7.42298c0.63936,-3.23099 0.44639,-14.40847 0.44639,-14.40847c0,0 3.8507,11.21263 3.39938,13.37685c-0.27366,1.31222 -5.36649,10.41945 -5.36649,10.41945z"/></g></g></g></g></svg>