<svg version="1.1" xmlns="http://www.w3.org/2000/svg" xmlns:xlink="http://www.w3.org/1999/xlink" width="155.02006" height="87.53057" viewBox="0,0,155.02006,87.53057"><g transform="translate(-162.48997,-125.1236)"><g data-paper-data="{&quot;isPaintingLayer&quot;:true}" fill-rule="nonzero" stroke="none" stroke-width="0" stroke-linecap="butt" stroke-linejoin="miter" stroke-miterlimit="10" stroke-dasharray="" stroke-dashoffset="0" style="mix-blend-mode: normal"><path d="M260.5498,125.1236l18.26141,31.03241l32.91546,-8.56318l5.78336,51.21902l-30.49795,13.84232l-38.12551,-19.52446l-54.35852,9.24323l-19.55197,-42.11779l32.93649,-0.83255l22.3543,-6.94546z" fill="#051e34"/><path d="M255.00753,149.82226l16.88717,12.99465l31.96616,-5.06829l3.80045,38.62008l-29.32106,-1.62447l-29.90358,2.80006l-58.63987,-4.32068l-27.30683,-16.43713l70.05019,-9.24164z" fill="#000203"/><path d="M217.28504,181.41243c0.38413,1.75065 -0.08876,3.34191 -1.05623,3.55418c-0.96746,0.21228 -2.06314,-1.03481 -2.44726,-2.78546c-0.38413,-1.75065 0.08878,-3.34191 1.05623,-3.55418c0.96746,-0.21228 2.06314,1.03481 2.44725,2.78546z" fill="#fbff00"/><path d="M211.31566,182.89707c0.38413,1.75065 -0.08876,3.34191 -1.05623,3.55418c-0.96746,0.21228 -2.06314,-1.03481 -2.44726,-2.78546c-0.38413,-1.75065 0.08876,-3.34191 1.05623,-3.55418c0.96746,-0.21228 2.06314,1.03481 2.44726,2.78546z" fill="#fbff00"/></g></g></svg>