<svg version="1.1" xmlns="http://www.w3.org/2000/svg" xmlns:xlink="http://www.w3.org/1999/xlink" width="32.07892" height="35.84901" viewBox="0,0,32.07892,35.84901"><defs><radialGradient cx="228.40267" cy="187.72601" r="7.81069" gradientUnits="userSpaceOnUse" id="color-1"><stop offset="0" stop-color="#d6feff" stop-opacity="0"/><stop offset="1" stop-color="#d6feff" stop-opacity="0.25098"/></radialGradient></defs><g transform="translate(-221.2847,-160.70554)"><g data-paper-data="{&quot;isPaintingLayer&quot;:true}" fill-rule="nonzero" stroke-linejoin="miter" stroke-miterlimit="10" stroke-dasharray="" stroke-dashoffset="0" style="mix-blend-mode: normal"><path d="M240.36688,181.52367l-3.66795,1.29883l-0.35795,-0.95556l3.02693,-0.83255l-0.70323,-2.11799c0,0 0.08301,-0.46553 0.46071,-0.56274c0.3777,-0.09721 0.51019,0.48588 0.51019,0.48588z" data-paper-data="{&quot;index&quot;:null}" fill="#fec267" stroke="none" stroke-width="0" stroke-linecap="butt"/><g data-paper-data="{&quot;index&quot;:null}"><g><path d="M232.3367,180.96953c0.52502,-0.15662 1.19833,0.18536 2.02069,0.34313c0.61354,0.11772 1.02782,0.76379 1.1658,1.22634c0.29462,0.98758 0.31801,2.08167 -0.66956,2.37628c-0.32589,0.09722 -0.98157,0.35698 -1.60064,0.60892c-0.61069,0.24855 -1.08431,0.30323 -1.21332,-0.0194c-0.16575,-0.41453 0.12691,-0.57308 0.12691,-0.57308c0,0 -0.40011,-0.07277 -0.47434,-0.27306c-0.07422,-0.2003 0.14251,-0.62395 0.14251,-0.62395c0,0 -0.34967,-0.13711 -0.44242,-0.37882c-0.09274,-0.24171 0.1066,-0.49219 0.1066,-0.49219c0,0 -0.35296,-0.06471 -0.45014,-0.37569c-0.09717,-0.31099 0.24792,-0.49493 0.24792,-0.49493c0,0 -0.28539,0.07461 -0.35798,-0.12396c-0.07258,-0.19856 -0.01437,-0.0474 0.00553,-0.1742c0.01639,-0.10446 1.11608,-0.94296 1.39241,-1.02539z" fill="#fdfdfd" stroke="none" stroke-width="0" stroke-linecap="butt"/><path d="M231.14322,182.27436c0,0 0.46187,0.08249 0.83486,-0.00494c0.373,-0.08744 0.75399,-0.38687 0.92352,-0.30971c0.35837,0.16309 0.55334,0.7903 0.55334,0.7903" fill="none" stroke="#a4a4a4" stroke-width="0.125" stroke-linecap="round"/></g><path d="M235.27401,182.88968c-0.07871,-0.35993 -0.38706,-1.572 -0.10551,-1.66499c0.27708,-0.06719 0.62924,0.16946 0.62924,0.16946c0,0 0.06361,-0.43569 0.33814,-0.45976c0.35618,-0.03121 0.77667,0.8491 0.91662,1.34797c0.13994,0.49887 0.15447,1.10783 -0.03803,1.34414c-0.48526,0.5957 -0.62801,0.15151 -0.62801,0.15151c0,0 0.11807,0.47443 -0.53243,0.5461c-0.32052,0.03531 -0.49158,-1.02992 -0.58004,-1.43445z" fill="#fdfdfd" stroke="none" stroke-width="0" stroke-linecap="butt"/></g><path d="M223.76694,181.47478c0.24351,-0.53126 1.76913,0.28057 2.56345,0.62636c2.11932,0.92258 4.85645,5.76983 6.34671,8.27179c1.1032,1.85212 0.85317,2.55569 0.96409,2.80434c0.32458,0.72757 -1.46354,2.4768 -2.03278,2.37284c-0.097,-0.01772 -2.71992,-1.56188 -3.69056,-2.57888c-1.55464,-1.6289 -3.77222,-3.1696 -4.23926,-4.25704c-0.72821,-1.69551 -1.33416,-5.1161 -1.33416,-5.1161c0,0 1.17899,-1.59205 1.42251,-2.12331z" data-paper-data="{&quot;index&quot;:null}" fill="url(#color-1)" stroke-opacity="0.25098" stroke="#313040" stroke-width="2" stroke-linecap="butt"/><path d="M242.34249,177.96983c0,0 2.42364,0.08138 3.10083,2.76746c0.36079,1.43106 0.00811,5.02329 0.00811,5.02329c0,0 -1.10611,-2.28168 -2.03425,-3.64839c-0.92815,-1.36671 -2.64947,-2.27748 -1.99003,-2.27748c0.65944,0 0.85652,-1.86487 0.85652,-1.86487z" data-paper-data="{&quot;index&quot;:null}" fill="#02124a" stroke="none" stroke-width="0" stroke-linecap="butt"/><path d="M233.75152,185.39798l7.18057,-4.30619l0.7525,1.37603c0,0 -1.43732,0.41414 -2.87192,1.21646c-1.4346,0.80231 -3.48196,2.33702 -3.48196,2.33702z" data-paper-data="{&quot;index&quot;:null}" fill="#033397" stroke="none" stroke-width="0" stroke-linecap="butt"/><g data-paper-data="{&quot;index&quot;:null}" stroke="none" stroke-width="0" stroke-linecap="butt"><path d="M225.76211,182.00746c0,0 2.32833,-1.65302 5.16803,1.60599c3.7688,3.53269 3.63532,4.38982 3.33115,4.9015c-0.77086,1.2968 -2.01365,2.06392 -2.01365,2.06392c0,0 -0.79867,-0.42277 -1.34563,-0.75802c-0.23124,-0.14176 -0.98701,-0.78391 -0.98701,-0.78391l0.3036,-0.26921l-0.92192,-1.02111l-0.47544,0.29517c0,0 -1.12367,-1.21559 -1.54641,-1.77739c-1.94273,-2.58169 -1.5127,-4.25697 -1.5127,-4.25697z" fill="#e90023"/><path d="M225.78809,182.05386l1.22427,-0.2355l0.42683,1.73654l-0.57816,1.0033l-1.314,-0.50319l0.71841,-0.2583l-0.16043,-0.75147l-0.64972,-0.77617l0.33275,-0.21524z" fill="#948a92"/><path d="M229.23601,187.75585c0,0 0.95595,-0.71409 1.97385,-1.15589c1.07993,-0.46872 2.15306,-0.49292 2.15306,-0.49292l0.64754,1.26754l-1.05853,0.64902c0,0 -0.97187,0.05664 -1.56979,0.2417c-0.59791,0.18505 -1.10857,0.48582 -1.10857,0.48582z" fill="#deca55"/><path d="M225.41567,182.32362l0.13471,-0.39531l1.29991,-0.36768l1.64198,0.17314l0.18637,2.25299l-1.27253,1.40652l2.50619,2.00994l-1.09856,0.6823l-2.64508,-2.41268l-0.66369,-1.71673l1.25705,-0.40643l-0.03036,-1.51525z" fill="#edeeee"/><g><path d="M226.04935,182.28864c0.34393,0.03132 0.63029,0.36729 0.6226,0.80041c-0.00771,0.43314 -0.33289,0.67728 -0.67682,0.64596c-0.34394,-0.03133 -0.52596,-0.29359 -0.59586,-0.74604c-0.0491,-0.31782 0.30615,-0.73165 0.65008,-0.70033z" fill="#ece09c"/><path d="M225.33404,182.89839c0.00515,-0.28874 0.30393,-0.55942 0.53322,-0.53853c0.22928,0.02089 0.46494,0.31288 0.4598,0.60164c0.00866,0.24818 -0.10616,0.71233 -0.41239,0.71548c-0.29192,0.00301 -0.61339,-0.40871 -0.58063,-0.7786z" fill="#000000"/></g><path d="M230.60039,186.91213c0,0 0.27636,-0.17491 0.44693,-0.2481c0.20396,-0.08753 0.69465,-0.24174 0.69465,-0.24174l-2.18729,1.64997l-0.28003,-0.24796c0,0 0.40774,-0.34279 0.62638,-0.49322c0.22319,-0.15356 0.69937,-0.41894 0.69937,-0.41894z" fill="#6a2625"/><path d="M233.1035,189.86811l-0.48931,0.38893c0,0 -1.01845,-0.55433 -0.65032,-0.84695c0.36813,-0.29263 1.13964,0.45801 1.13964,0.45801z" fill="#eac763"/><path d="M232.41424,184.93139c0.43261,-0.22953 1.04077,-0.12071 1.04077,-0.12071c0,0 0.02324,-0.57542 0.45958,-0.74996c0.5661,-0.22646 1.40043,0.64694 1.71537,1.19371c0.31495,0.54675 0.44849,1.29654 0.18225,1.69187c-0.67113,0.99657 -0.98068,0.51926 -0.98068,0.51926c0,0 0.27537,0.5279 -0.75582,0.95972c-0.50813,0.21277 -1.07629,-0.76737 -1.43936,-1.53084c-0.36307,-0.76348 -0.65723,-1.69911 -0.22211,-1.96307z" fill="#fdfdfd"/></g><path d="M241.99994,183.80058l1.23824,-1.28246c0,0 0.00118,0.96045 0.48215,1.56001c0.57741,0.71978 2.74613,2.46427 2.74613,2.46427c0,0 -2.23903,-0.52196 -3.25715,-1.14695c-1.01813,-0.62499 -1.20936,-1.59486 -1.20936,-1.59486z" data-paper-data="{&quot;index&quot;:null}" fill="#02124a" stroke="none" stroke-width="0" stroke-linecap="butt"/><path d="M238.68407,181.70756c-0.43138,-1.54049 -0.30073,-3.2912 1.03985,-3.66659c1.34058,-0.3754 2.54896,-0.3537 2.80386,0.36326c0.25781,0.9207 0.62452,1.97731 0.79493,3.00146c0.30556,1.83643 -0.27374,2.31725 -1.07252,2.54092c-1.34057,0.3754 -3.13474,-0.69855 -3.56612,-2.23905z" data-paper-data="{&quot;index&quot;:null}" fill="#033397" stroke="none" stroke-width="0" stroke-linecap="butt"/><path d="M238.46692,181.42395c-0.45161,-1.44876 -0.0256,-1.81025 0.43005,-2.64625c0.23104,-0.4239 1.42981,-0.55195 2.29193,0.23076c0.79564,0.72236 0.97881,4.31583 -0.14214,4.49443c-1.24907,0.199 -2.26004,-1.053 -2.57985,-2.07894z" data-paper-data="{&quot;index&quot;:null}" fill="#fec267" stroke="none" stroke-width="0" stroke-linecap="butt"/><path d="M233.91316,188.19777l7.57559,-5.14315l1.37308,0.55122c0,0 -1.96919,1.42844 -3.48802,2.39336c-1.51883,0.96492 -3.65072,2.76264 -3.65072,2.76264z" data-paper-data="{&quot;index&quot;:null}" fill="#033397" stroke="none" stroke-width="0" stroke-linecap="butt"/><g data-paper-data="{&quot;index&quot;:null}" stroke="none" stroke-width="0" stroke-linecap="butt"><path d="M225.93697,184.3324c0,0 2.46201,-1.74792 5.46474,1.69819c3.98519,3.73551 3.84404,4.64185 3.52241,5.18291c-0.81513,1.37124 -2.12928,2.18241 -2.12928,2.18241c0,0 -0.84452,-0.44704 -1.42288,-0.80154c-0.24453,-0.1499 -1.04368,-0.82891 -1.04368,-0.82891l0.32102,-0.28466l-0.97485,-1.07973l-0.50273,0.31212c0,0 -1.18819,-1.28538 -1.6352,-1.87944c-2.05426,-2.72991 -1.59956,-4.50137 -1.59956,-4.50137z" fill="#e90023"/><path d="M225.9644,184.38145l1.29457,-0.24903l0.45133,1.83624l-0.61135,1.0609l-1.38943,-0.53207l0.75965,-0.27313l-0.16964,-0.79461l-0.687,-0.82073l0.35184,-0.2276z" fill="#948a92"/><path d="M229.6103,190.4108c0,0 1.01082,-0.75509 2.08716,-1.22225c1.14194,-0.49563 2.27668,-0.52121 2.27668,-0.52121l0.68471,1.34031l-1.11929,0.68628c0,0 -1.02767,0.05991 -1.65992,0.25558c-0.63224,0.19567 -1.17222,0.51371 -1.17222,0.51371z" fill="#deca55"/><path d="M225.57062,184.6667l0.14245,-0.418l1.37454,-0.38879l1.73624,0.18308l0.19707,2.38235l-1.34559,1.48728l2.65009,2.12533l-1.16164,0.72149l-2.79695,-2.5512l-0.7018,-1.81529l1.32922,-0.42977l-0.03211,-1.60225z" fill="#edeeee"/><g><path d="M226.24066,184.6297c0.36367,0.03313 0.66648,0.38837 0.65835,0.84637c-0.00815,0.45801 -0.35199,0.71616 -0.71568,0.68304c-0.36368,-0.03313 -0.55616,-0.31045 -0.63007,-0.78886c-0.05192,-0.33608 0.32371,-0.77366 0.6874,-0.74054z" fill="#ece09c"/><path d="M225.4843,185.27448c0.00545,-0.30533 0.32139,-0.59154 0.56384,-0.56944c0.24243,0.02209 0.49163,0.33084 0.48619,0.63618c0.00916,0.26243 -0.11225,0.75322 -0.43607,0.75656c-0.30869,0.00317 -0.64862,-0.43219 -0.61397,-0.82331z" fill="#000000"/></g><path d="M231.053,189.51865c0,0 0.29223,-0.18496 0.47259,-0.26234c0.21566,-0.09254 0.73453,-0.25562 0.73453,-0.25562l-2.31286,1.74469l-0.29611,-0.26219c0,0 0.43115,-0.36246 0.66235,-0.52154c0.236,-0.16239 0.73952,-0.443 0.73952,-0.443z" fill="#6a2625"/><path d="M233.69982,192.64435l-0.5174,0.41126c0,0 -1.07693,-0.58616 -0.68766,-0.89559c0.38926,-0.30943 1.20507,0.48431 1.20507,0.48431z" fill="#eac763"/><path d="M232.97099,187.42415c0.45745,-0.2427 1.10052,-0.12763 1.10052,-0.12763c0,0 0.02458,-0.60844 0.48597,-0.79302c0.59859,-0.23946 1.48083,0.68409 1.81385,1.26225c0.33304,0.57814 0.47424,1.37097 0.19272,1.78901c-0.70966,1.05378 -1.03699,0.54909 -1.03699,0.54909c0,0 0.29118,0.55821 -0.79922,1.01482c-0.5373,0.22498 -1.13809,-0.81142 -1.522,-1.61873c-0.38393,-0.80731 -0.69496,-1.79666 -0.23486,-2.07577z" fill="#fdfdfd"/></g><path d="M242.32789,178.49506c0.2546,0.15262 1.42722,1.85026 1.43984,2.89263c0.00593,0.48917 -2.73859,2.73695 -2.73859,2.73695l-0.64357,-0.79486l2.13507,-2.22634c0,0 -0.92671,-2.07216 -0.98644,-2.31739c-0.05973,-0.24523 0.00025,-0.5018 0.2082,-0.59052c0.20796,-0.08872 0.58549,0.29953 0.58549,0.29953z" data-paper-data="{&quot;index&quot;:null}" fill="#fec267" stroke="none" stroke-width="0" stroke-linecap="butt"/><g data-paper-data="{&quot;index&quot;:null}" fill="#fdfdfd" stroke="none" stroke-width="0" stroke-linecap="butt"><g><path d="M236.2207,184.36374c0.39242,-0.38235 1.14755,-0.39181 1.94923,-0.63359c0.59812,-0.18038 1.26486,0.19973 1.60171,0.54546c0.7192,0.73815 1.24756,1.6965 0.5094,2.41569c-0.24357,0.23732 -0.70389,0.77164 -1.1354,1.28206c-0.42567,0.50353 -0.81984,0.77173 -1.08381,0.54578c-0.33917,-0.2903 -0.15348,-0.56655 -0.15348,-0.56655c0,0 -0.38822,0.12117 -0.54689,-0.0218c-0.15868,-0.14299 -0.16327,-0.61885 -0.16327,-0.61885c0,0 -0.37337,0.04079 -0.56768,-0.13031c-0.19429,-0.1711 -0.13393,-0.48547 -0.13393,-0.48547c0,0 -0.34269,0.10645 -0.57306,-0.12396c-0.23038,-0.2304 -0.01002,-0.55347 -0.01002,-0.55347c0,0 -0.21819,0.19851 -0.37462,0.0563c-0.15642,-0.14221 -0.03472,-0.03532 -0.07592,-0.15689c-0.03395,-0.10014 0.55117,-1.35316 0.75771,-1.55438z"/></g><path d="M239.71363,184.7019c-0.23671,-0.28232 -1.07226,-1.21297 -0.86598,-1.42596c0.21429,-0.18809 0.63604,-0.14185 0.63604,-0.14185c0,0 -0.1458,-0.41547 0.08623,-0.56415c0.30104,-0.19292 1.08197,0.39182 1.4374,0.76881c0.35543,0.37699 0.65085,0.9097 0.58996,1.20836c-0.15347,0.75285 -0.48603,0.42559 -0.48603,0.42559c0,0 0.32472,0.36551 -0.21826,0.73078c-0.26755,0.17999 -0.91334,-0.68426 -1.17939,-1.00156z"/></g><g data-paper-data="{&quot;index&quot;:null}" fill="#033397" stroke-width="0"><path d="M233.97091,177.00362c-1.76154,-2.34774 -1.28634,-5.67898 1.06141,-7.44053c2.34775,-1.76154 5.67899,-1.28632 7.44054,1.06143c1.76154,2.34774 1.28633,5.67897 -1.06142,7.44052c-2.34775,1.76154 -5.67898,1.28633 -7.44053,-1.06142z" stroke="none" stroke-linecap="butt"/><path d="M233.41177,176.405c0,0 -3.84572,-6.13417 2.45165,-12.33876c4.31329,-4.28732 9.84092,-3.25052 9.84092,-3.25052c0,0 -1.32802,0.84076 -2.16528,1.93212c-0.68936,0.89857 -1.1602,2.42795 -1.1602,2.42795c0,0 2.95769,-0.75395 5.99742,0.80759c3.52819,1.81249 4.98734,4.51273 4.98734,4.51273c0,0 -2.69562,-0.62394 -4.3581,-0.55661c-0.9997,0.04047 -2.75288,0.83713 -2.75288,0.83713c0,0 2.1115,0.72977 3.56369,2.51378c1.71388,2.10547 1.86395,3.87413 1.86395,3.87413c0,0 -2.94427,-1.64909 -5.0719,-1.84545c-2.12761,-0.19637 -3.82135,1.20197 -3.82135,1.20197" stroke="#000000" stroke-linecap="round"/></g><path d="M235.36039,169.42427c0,0 0.50555,-2.06503 1.02149,-3.34295c0.51596,-1.27793 0.62598,-1.40042 0.92917,-1.42737c0.29499,-0.02622 0.98005,0.99604 1.51623,1.72675c0.53617,0.73071 0.9905,1.68946 0.9905,1.68946" data-paper-data="{&quot;index&quot;:null}" fill="#033397" stroke="#000000" stroke-width="0.125" stroke-linecap="round"/><path d="M233.22122,175.56287c0,0 -1.61421,-0.73718 -2.29456,-1.20541c-0.59448,-0.40913 -1.77567,-1.23958 -1.56481,-1.45067c0.17595,-0.17617 1.20175,-0.40981 1.6913,-0.63287c0.53343,-0.24305 1.38894,-0.77057 1.38894,-0.77057" data-paper-data="{&quot;index&quot;:null}" fill="#033397" stroke="#000000" stroke-width="0" stroke-linecap="round"/><path d="M233.07088,175.50982c0,0 1.08125,0.87757 1.82474,1.36599c0.74349,0.48841 0.76224,0.50907 1.29959,0.73625c0.17117,0.07238 0.1913,-0.15285 0.1913,-0.15285c0,0 0.6494,0.19463 0.6909,-0.1501c0.38761,-0.8142 -0.58305,-2.48974 -0.58935,-3.82498c-0.0064,-1.35057 0.5713,-1.94269 0.84505,-2.20436c0.23542,-0.22503 0.90045,-0.53477 1.69058,-0.16227c0.62033,0.35574 1.5805,1.47734 1.72705,2.41136c0.14655,0.93401 0.20631,2.06338 -0.62212,3.01127c-0.82841,0.9479 -2.52211,0.53734 -3.2565,1.42007c-0.09054,0.10882 -0.34486,0.99292 -0.34486,0.99292c0,0 -1.5185,-0.79001 -2.28086,-1.5495c-0.76237,-0.75948 -1.17553,-1.89383 -1.17553,-1.89383z" data-paper-data="{&quot;index&quot;:null}" fill="#033397" stroke="#000000" stroke-width="0" stroke-linecap="butt"/><path d="M236.6693,179.04395c-0.13782,-0.20019 -0.23566,-0.76136 0.40068,-1.33542c0.48738,-0.45291 1.74787,-0.42508 2.54857,-0.97681c1.20308,-0.82897 0.50198,-2.55341 2.10618,-3.16678c1.27868,-0.5118 2.52345,2.2286 -0.51794,4.63559c-0.7535,0.53507 -1.9986,0.99379 -2.82632,1.11616c-1.00789,0.14902 -1.48804,0.05134 -1.71117,-0.27275z" data-paper-data="{&quot;index&quot;:null}" fill="#fec267" stroke="#000000" stroke-width="0" stroke-linecap="butt"/><path d="M233.65379,176.82937c0,0 -1.72573,-1.50936 -1.81162,-1.84587c-0.08064,-0.31591 0.24461,-0.00924 0.50716,-0.05865c0.07056,-0.01328 0.72467,0.54628 1.36661,1.02539c0.85477,0.63796 2.17522,0.95674 2.17522,0.95674" data-paper-data="{&quot;index&quot;:null}" fill="#033397" stroke="#000000" stroke-width="0.125" stroke-linecap="round"/><path d="M235.03114,178.97504c-0.04387,-0.13789 0.61354,-0.26875 1.07665,-0.42322c0.46311,-0.15447 1.02875,-0.48704 1.16897,-0.30017c0.23252,0.30991 -0.37595,0.73829 -0.87658,0.94616c-0.79278,0.32917 -1.2252,0.22933 -1.36903,-0.22277z" data-paper-data="{&quot;index&quot;:null}" fill="#0d1114" stroke="none" stroke-width="0" stroke-linecap="butt"/><path d="M235.66174,178.90082c-0.03456,-0.06987 0.10733,-0.21057 0.31693,-0.31424c0.20959,-0.10369 0.40753,-0.1311 0.44209,-0.06123c0.03455,0.06987 -0.10734,0.21056 -0.31694,0.31423c-0.2096,0.10368 -0.40753,0.1311 -0.44209,0.06123z" data-paper-data="{&quot;index&quot;:null}" fill="#fdfdfd" stroke="none" stroke-width="0" stroke-linecap="butt"/><path d="M236.18666,168.74251c0,0 0.61846,-2.57026 1.27908,-2.84181c0.46041,-0.18925 1.78824,2.5401 1.78824,2.5401c0,0 -0.32994,-0.2924 -1.49305,-0.08745c-1.06332,0.18736 -1.57425,0.38915 -1.57425,0.38915z" data-paper-data="{&quot;index&quot;:null}" fill="#fec267" stroke="none" stroke-width="0" stroke-linecap="butt"/><path d="M242.62728,175.69018c0.37883,0.58682 -0.52641,2.00826 -1.65911,2.73949c-1.1327,0.73123 -2.71097,1.14242 -3.08981,0.5556c-0.37883,-0.58682 0.64406,-1.5965 1.77676,-2.32773c1.1327,-0.73124 2.59332,-1.55419 2.97216,-0.96737z" data-paper-data="{&quot;index&quot;:null}" fill="#000000" stroke="none" stroke-width="0" stroke-linecap="butt"/><path d="M236.94723,176.61742c0,0 0.15001,-0.51736 -0.03963,-1.53031c-0.32044,-1.71162 -0.80462,-3.57978 0.6506,-4.14901c0.9077,-0.35506 2.73436,0.64335 2.73436,0.64335" data-paper-data="{&quot;index&quot;:null}" fill="none" stroke="#000000" stroke-width="0.125" stroke-linecap="round"/><path d="M236.22781,176.79728c0,0 0.12768,-0.81723 -0.0181,-1.77624c-0.12184,-0.80158 -0.52146,-1.72389 -0.52146,-2.14462c0,-0.73475 0.28777,-1.07914 0.28777,-1.07914" data-paper-data="{&quot;index&quot;:null}" fill="none" stroke="#000000" stroke-width="0.125" stroke-linecap="round"/></g></g></svg>