<svg version="1.1" xmlns="http://www.w3.org/2000/svg" xmlns:xlink="http://www.w3.org/1999/xlink" width="33.69703" height="32.71523" viewBox="0,0,33.69703,32.71523"><g transform="translate(-223.28389,-166.05558)"><g data-paper-data="{&quot;isPaintingLayer&quot;:true}" fill-rule="nonzero" stroke-linejoin="miter" stroke-miterlimit="10" stroke-dasharray="" stroke-dashoffset="0" style="mix-blend-mode: normal"><g data-paper-data="{&quot;index&quot;:null}" stroke="none" stroke-width="0" stroke-linecap="butt"><path d="M227.13068,185.23995c-1.50594,-0.21552 -3.84679,-1.28523 -3.84679,-1.28523c0,0 2.48461,-1.63959 7.50729,-2.88379c0.95098,-0.23557 -3.44504,1.51399 -2.95238,2.55558c0.4926,1.04145 5.11912,1.68885 5.11912,1.68885c0,0 -4.32131,0.14011 -5.82724,-0.07541z" fill="#54c81c"/><path d="M241.33338,180.22479c0,0 -5.91388,4.58797 -8.30644,4.95556c-2.20886,0.33937 -6.85652,-1.03326 -6.26111,-2.07422c2.14999,-1.2611 4.0821,-2.4981 7.48029,-2.71282c2.80448,0.09788 7.08727,-0.16851 7.08727,-0.16851z" fill="#ffffff"/></g><g data-paper-data="{&quot;index&quot;:null}" stroke="none" stroke-width="0" stroke-linecap="butt"><path d="M244.86194,184.00892c0,0 3.81304,-2.32354 4.06651,-2.42007c0.25347,-0.09653 4.91418,2.70024 5.5689,3.37911c0.65472,0.67886 2.48357,1.60969 2.48357,1.60969c0,0 -2.57446,0.76237 -3.84174,0.40063c-1.26728,-0.36174 -2.79062,-0.64384 -3.96115,-1.05687c-2.12356,-0.74932 -4.31608,-1.91249 -4.31608,-1.91249z" fill="#54c81c"/><path d="M252.98717,185.8988c0,0 -2.19962,0.55236 -6.47564,-1.1339c-5.94081,-2.34278 -6.46723,-5.24671 -6.46723,-5.24671c0,0 -0.36041,-0.38715 1.67217,0.47547c0.69906,0.29668 1.8879,-0.14567 5.56701,0.97398c4.70723,1.43255 5.70369,4.93116 5.70369,4.93116z" fill="#ffffff"/></g><g data-paper-data="{&quot;index&quot;:null}" stroke="none" stroke-width="0" stroke-linecap="butt"><path d="M231.32845,190.85028c-2.38633,0.64452 -5.12017,1.93774 -5.12017,1.93774c0,0 0.83298,-3.74741 1.82126,-5.86045c1.7068,-3.66116 4.8001,-3.91086 4.8001,-3.91086c0,0 -2.26114,2.73001 -1.49267,4.09001c0.75725,1.34014 5.96311,1.05249 5.96311,1.05249c0,0 -3.98914,2.15563 -5.97163,2.69107z" fill="#54c81c"/><path d="M232.68681,182.95492c0.19608,-0.15035 3.13299,-2.19238 5.37641,-2.03175c2.97752,0.21322 2.98595,-1.48459 3.56306,-0.18031c0.57712,1.30428 0.67008,4.12582 -1.08032,5.85745c-1.45693,1.44133 -3.87351,1.75653 -3.87351,1.75653c0,0 -5.84352,0.30453 -6.56468,-1.14936c-0.61228,-2.08705 2.37448,-4.09567 2.57906,-4.25255z" fill="#ffffff"/></g><g data-paper-data="{&quot;index&quot;:null}" stroke="none" stroke-width="0" stroke-linecap="butt"><path d="M251.93198,188.67382c1.06691,1.86521 2.83163,3.4792 2.83163,3.4792c0,0 -5.72078,-0.80694 -7.64694,-1.72169c-2.07865,-0.98717 -4.78553,-2.20057 -4.78553,-2.20057l5.20724,-3.3997c0,0 3.32669,1.97755 4.3936,3.84276z" fill="#54c81c"/><path d="M250.42794,189.42086c-1.51074,0.6811 -9.19971,-0.80113 -10.63549,-2.4461c-2.06919,-2.56003 -1.61225,-7.60167 -1.61225,-7.60167l1.24201,-0.47616c0,0 0.73187,1.67037 3.56351,2.3737c4.1518,1.03125 3.67517,2.47465 4.46933,3.31042c0.80021,0.84211 3.96456,2.43107 3.30625,4.58983z" fill="#ffffff"/></g><path d="M240.42263,168.73834c3.77011,-0.04032 4.01799,3.21081 4.06301,3.47471c0.07099,0.62682 -0.02639,1.26745 -0.22166,1.86429c-0.31822,0.99844 -0.96458,1.92117 -1.88988,2.43906c-0.46306,0.18534 -0.3934,0.17441 -0.84173,0.37929c-0.65649,0.43513 -1.60398,0.53129 -2.35436,0.52524c-0.60902,0.02731 -1.21763,-0.045 -1.80763,-0.19935c-0.37786,-0.11354 -0.79979,-0.16826 -1.11228,-0.42736c-0.28723,-0.246 -0.52352,-0.58652 -0.53374,-0.97644c-0.07713,-0.94626 -0.16315,-1.89334 -0.15456,-2.84309c0.01606,-0.26022 -0.00757,-0.54489 0.11732,-0.78251c0.17931,-0.19589 0.18744,-3.4052 4.73551,-3.45384z" data-paper-data="{&quot;index&quot;:null}" fill="#f0e9bb" stroke="none" stroke-width="0.17188" stroke-linecap="butt"/><path d="M243.03725,172.31973c0.24826,-0.04061 0.39401,0.08879 0.48279,0.36783c0.06208,0.19567 0.10361,0.48668 0.10168,0.75089c-0.00215,0.28487 -0.00214,0.45569 -0.03743,0.62631c-0.03467,0.16755 -0.10484,0.33684 -0.07917,0.3932c0.03723,0.08163 -0.06894,0.18503 -0.46418,0.27076c-0.25316,0.05494 -0.49978,0.09461 -0.71039,0.12755c-0.20734,0.00501 -0.31126,-1.13601 -0.18074,-1.43449c0.08213,-0.54868 0.28129,-0.89441 0.88745,-1.10205z" data-paper-data="{&quot;index&quot;:null}" fill="#ffffff" stroke="none" stroke-width="0.17188" stroke-linecap="butt"/><path d="M242.38927,172.5626c-0.57076,0.44788 -0.18008,2.25292 -0.18008,2.25292c0,0 -0.61678,-1.64896 0.05779,-2.33696c0.20811,-0.21225 0.32622,-0.32982 0.52276,-0.38144c0.27412,-0.07199 0.40114,0.00137 0.61027,0.18982c0.1163,0.10479 0.31509,0.43597 0.32553,0.75955c0.00241,0.07462 1.18793,0.07506 1.18793,0.07506c0,0 -0.84362,0.13613 -1.02375,0.25868c-0.172,0.11702 -0.05377,0.46302 -0.1514,0.75489c-0.09764,0.29187 -0.22168,0.41893 -0.22168,0.41893c0,0 0.14663,-0.42381 0.12964,-0.98414c-0.01271,-0.41935 -0.16873,-1.03677 -0.39571,-1.21444c-0.30301,-0.26417 -0.44533,-0.21652 -0.86131,0.20713z" data-paper-data="{&quot;index&quot;:null}" fill="#000000" stroke="none" stroke-width="0" stroke-linecap="butt"/><g data-paper-data="{&quot;index&quot;:null}" stroke="none" stroke-linecap="butt"><path d="M242.5821,174.03567c0,-0.5294 0.20288,-0.95856 0.45314,-0.95856c0.25026,0 0.45314,0.42916 0.45314,0.95856c0,0.5294 -0.20288,0.95856 -0.45314,0.95856c-0.25026,0 -0.45314,-0.42916 -0.45314,-0.95856z" fill="#008ae6" stroke-width="0"/><path d="M243.03057,173.21013c0.07892,-0.00736 0.1526,0.06999 0.20772,0.2009c0.05525,0.13092 0.09193,0.31542 0.09713,0.52227c0.00504,0.20696 -0.0224,0.39744 -0.07075,0.53808c-0.04848,0.14062 -0.11785,0.23143 -0.19677,0.23877c-0.07892,0.00736 -0.15262,-0.06999 -0.20772,-0.20089c-0.05525,-0.13093 -0.09195,-0.31542 -0.097,-0.52226c-0.00518,-0.20698 0.02225,-0.39746 0.07057,-0.5381c0.04848,-0.14063 0.11797,-0.23127 0.19679,-0.23878z" fill="#000000" stroke-width="0.0278"/><path d="M242.88614,173.44803c0.0419,-0.09781 0.10095,-0.15996 0.16695,-0.16302c0.06603,-0.00305 0.12675,0.05362 0.17136,0.14739c0.0448,0.0938 0.07346,0.22477 0.07549,0.37069c0.00218,0.14612 -0.02275,0.27957 -0.06482,0.37735c-0.04189,0.09781 -0.10094,0.15998 -0.16694,0.16303c-0.06603,0.00305 -0.12675,-0.05362 -0.17136,-0.1474c-0.0448,-0.0938 -0.07347,-0.22477 -0.0755,-0.37069c-0.00217,-0.14612 0.02276,-0.27956 0.06483,-0.37734z" fill="#ffffff" stroke-width="0.01811"/></g><path d="M243.0777,174.70248l0.45,-0.13333c0,0 -0.40244,0.8 -0.81666,0.8c-0.41422,0 -0.55,-0.53333 -0.55,-0.53333z" data-paper-data="{&quot;index&quot;:null}" fill="#f0e9bb" stroke="none" stroke-width="0" stroke-linecap="butt"/><path d="M244.11133,167.79562c0.92264,-0.1296 1.58689,0.01494 1.97662,0.2999c0.05554,0.0404 0.02464,0.08245 0.09176,0.14781c0.08121,0.07917 0.30256,0.20028 0.26063,0.17042c0,0 -0.0804,0.15978 -0.07313,0.23526c0.00931,0.09595 0.13021,0.20764 0.03877,0.18422c0,0 0.06066,0.14096 0.04818,0.192c-0.13604,0.55747 -0.59031,1.27696 -1.1892,1.64663c0.32108,0.48822 -1.70852,-2.4459 -1.1536,-2.87623z" data-paper-data="{&quot;index&quot;:null}" fill="#ed3e67" stroke="none" stroke-width="0.17188" stroke-linecap="butt"/><path d="M235.85104,172.06154l-0.15006,2.38751l0.23118,1.92547l0.26963,1.36258c0.03191,0.16018 -1.66188,-1.09868 -2.01231,-1.54455c-0.4337,-0.55165 -0.71203,-1.15503 -0.9877,-1.75935c-0.2011,-0.44036 -0.21787,-0.62079 -0.28169,-0.94074l-0.19792,-0.99332c-0.03764,-0.18873 -0.1297,-1.14859 0.05554,-1.31337c0.05258,-0.04674 0.71571,0.43369 0.79171,0.43185l0.55471,-0.01503c0.16458,-0.0043 0.65597,-0.35474 0.79845,-0.47012c0.10413,-0.08418 0.68165,-0.73402 0.74302,-1.36861l0.06066,-0.62774c0.0091,-0.094 -0.22749,-1.08037 -0.18984,-1.09806c0.07754,-0.03672 -0.79151,-1.08568 -0.71079,-1.12824c0.44914,-0.23752 0.99383,-0.54152 1.60531,-0.67561c0.96131,-0.21082 2.01354,-0.18003 2.5528,-0.17287c0.09196,0.00123 1.26336,0.04 1.96383,0.27628c1.10921,0.37407 1.73296,1.08578 1.77592,1.12485c0.6747,0.61321 1.17652,1.32729 1.52859,2.12871l0.19117,0.67786c0.09789,0.34697 0.43268,2.25637 0.2459,2.93157l-0.63726,2.30588c-0.1115,0.40383 -1.18132,2.29565 -1.39929,2.18569c-0.30543,-0.15374 -0.31157,-1.34611 -0.41529,-1.20004c-0.22994,0.32353 1.57657,-1.27012 1.66249,-1.71649c0.14679,-0.76316 0.4385,-1.48983 0.37345,-2.02725c-0.01237,-0.10147 -0.02219,-0.79569 -0.03365,-0.96365c-0.0089,-0.13278 -0.08981,-0.24089 -0.22319,-0.20652c-0.08879,0.02281 -0.2995,-0.08562 -0.43268,0.12632l-0.39452,0.62857c-0.06403,0.10178 -1.24791,1.95063 -1.30611,1.80978c-0.01074,-0.02619 0.22411,-0.61771 0.23679,-0.65699c0.07702,-0.23752 0.0851,-0.42265 0.00931,-0.33755c-0.19935,0.2238 -0.53374,0.81196 -0.53374,0.81196c-0.04787,0.07252 -0.57865,0.02752 -0.93696,-0.09706c-0.33336,-0.11589 -0.75284,-0.51829 -0.8586,-0.61762l-1.1491,-1.08026c-1.07934,-1.01418 -1.01009,-0.58049 -1.07321,-0.6976c0.04848,-0.07774 -0.77023,-0.10566 -0.96437,0.07437c-0.07733,0.07171 -0.31321,0.20888 -0.43473,0.27925c-0.16171,0.09348 -0.273,0.14882 -0.32742,0.24017z" data-paper-data="{&quot;index&quot;:null}" fill="#54c81c" stroke="none" stroke-width="0.17188" stroke-linecap="butt"/><path d="M231.80404,170.48814c-0.60524,-0.20693 -1.16608,-0.76563 -1.41331,-1.24618c-0.02271,-0.04398 -0.00266,-0.18637 -0.00266,-0.18637c-0.07396,0.04153 0.00532,-0.08735 -0.0089,-0.17716c-0.01114,-0.07058 -0.11803,-0.19926 -0.11803,-0.19926c-0.02946,0.03662 0.13451,-0.12285 0.18677,-0.21307c0.04307,-0.07468 0.00645,-0.10638 0.04531,-0.15579c0.27219,-0.34615 0.81504,-0.62426 1.64562,-0.70845c1.08671,-0.10996 2.04092,0.68716 2.04092,1.07729c0,0 -1.3421,2.16219 -2.37571,1.80898z" data-paper-data="{&quot;index&quot;:null}" fill="#ed3e67" stroke="none" stroke-width="0.17188" stroke-linecap="butt"/><path d="M234.97488,169.37545c0.14873,-0.10392 -0.2908,1.37874 -0.67335,1.58566c-0.65792,0.35576 -0.58427,0.61772 -1.14634,0.44649c-0.12623,-0.03825 -0.37622,-0.26084 -0.73556,-0.40926c-0.41631,-0.17174 -0.78495,-0.41048 -0.64697,-0.48188l0.83016,-0.48649l1.23053,-1.368c0.01913,-0.02128 -0.2321,-0.2328 -0.62294,-0.50898c-0.27403,-0.19373 -0.6841,-0.42358 -1.00365,-0.54693c-0.18831,-0.07262 0.18862,-0.29081 0.72502,-0.44414c0.26002,-0.07437 0.53619,-0.17266 0.84439,-0.15527c0.53374,0.03027 0.92407,0.64195 1.06686,1.26203c0.13379,0.58069 0.03283,1.1757 0.13185,1.10676z" data-paper-data="{&quot;index&quot;:null}" fill="#54c81c" stroke="none" stroke-width="0.17188" stroke-linecap="butt"/><path d="M235.74529,169.33904c0.02669,1.21488 -1.17395,2.28982 -1.56224,2.26231l-0.61046,0.112l-0.86382,-0.51584c-0.22115,-0.13216 1.20331,0.07682 1.54997,-0.30379c0.22626,-0.24826 0.39156,-0.44004 0.42337,-0.53834c0.30175,-0.93737 0.26902,-1.70391 0.08317,-2.20339c-0.29203,-0.78485 -0.87763,-1.03648 -0.49661,-1.21774c0.90852,-0.43247 1.44738,1.07709 1.47663,2.40479z" data-paper-data="{&quot;index&quot;:null}" fill="#ead32e" stroke="none" stroke-width="0.17188" stroke-linecap="butt"/><path d="M243.73633,168.68593c0,0 -0.28078,-0.35003 -0.47912,-0.61997c-0.41376,-0.5631 -1.03731,-0.90177 -0.91773,-1.0596c0.09963,-0.06383 0.61128,0.07048 0.751,0.20181l0.28385,0.26656c0.49907,0.46889 0.69648,1.15033 0.6884,1.42938c-0.00348,0.1207 0.12418,0.34103 0.08071,0.47534c0,0 -0.32753,-0.41836 -0.40711,-0.69352z" data-paper-data="{&quot;index&quot;:null}" fill="#ead32e" stroke="none" stroke-width="0.17188" stroke-linecap="butt"/><path d="M243.36374,167.35515c0,0 1.0776,-0.03324 1.27083,0.26483c0.12847,0.19792 -0.04716,0.67561 0.10229,0.82587c0.18555,0.18658 0.46316,0.64738 0.61066,0.98636c0.04429,0.30993 0.15558,0.60666 0.02281,0.9524c0.054,0.30502 -0.70497,0.86587 -0.73258,0.76583l-0.37541,-1.35971c-0.09523,-0.34501 -0.31136,-1.04436 -0.3713,-1.18623z" data-paper-data="{&quot;index&quot;:null}" fill="#54c81c" stroke="none" stroke-width="0.17188" stroke-linecap="butt"/><path d="M237.71429,176.71894h0.86877" data-paper-data="{&quot;index&quot;:null}" fill="none" stroke="#dfcfa3" stroke-width="0.36953" stroke-linecap="round"/><g data-paper-data="{&quot;index&quot;:null}" stroke="none" stroke-linecap="butt"><path d="M239.33455,177.4415c0.17022,-0.06911 0.34154,0.07628 0.48084,0.36686c0.1393,0.29058 0.24674,0.72652 0.28893,1.23856c0.04223,0.51194 0.0113,1.00389 -0.07258,1.38519c-0.08398,0.38127 -0.22099,0.65174 -0.3912,0.72085c-0.17009,0.06905 -0.34142,-0.07634 -0.48082,-0.36696c-0.1393,-0.29058 -0.24663,-0.72649 -0.28883,-1.23853c-0.04223,-0.51194 -0.01141,-1.00393 0.07258,-1.38519c0.08388,-0.3813 0.221,-0.65174 0.39108,-0.72079z" fill="#eb3d66" stroke-width="0.01872"/><path d="M239.57032,177.85311c0.07821,-0.02884 0.16335,0.03709 0.23768,0.16696c0.07443,0.1299 0.13803,0.32373 0.1732,0.5506c0.03526,0.2269 0.03534,0.44416 0.00713,0.61194c-0.02825,0.16786 -0.08477,0.2862 -0.16297,0.31504c-0.07813,0.02897 -0.16327,-0.03705 -0.23769,-0.16695c-0.07443,-0.1299 -0.13803,-0.32373 -0.17323,-0.5505c-0.03516,-0.22687 -0.0353,-0.44427 -0.00709,-0.61203c0.02825,-0.16786 0.08474,-0.2861 0.16299,-0.31504z" fill="#ffffff" stroke-width="0.01896"/></g><path d="M237.30474,180.80595c-0.26708,-0.38154 0.19882,-0.84992 0.19566,-1.67068c-0.00931,-0.71765 0.05758,-1.42384 0.31392,-1.69625c0.07907,-0.08398 0.58519,-0.13011 0.69208,-0.13011c0.13502,0 0.69341,-0.11068 0.92694,0.32006c0.05994,0.11077 0.34246,0.65781 0.28916,0.83016c-0.05605,0.18218 0.07743,0.60421 0.05451,0.76215c-0.07242,0.49876 -0.1659,0.61373 -0.18319,0.92755c-0.02199,0.39718 0.02077,0.17052 -0.19567,0.41334c0,0 -1.77222,0.58675 -2.09341,0.24378z" data-paper-data="{&quot;index&quot;:null}" fill="#319a2b" stroke="none" stroke-width="0.17188" stroke-linecap="butt"/><path d="M241.58432,178.52863c-0.73492,-0.5965 -2.52795,-1.4856 -2.20724,-1.68391c0.32073,-0.19844 2.2768,0.45776 3.44604,0.80334c0.73893,0.21856 1.38323,0.30205 1.96749,0.77456c0.38378,0.31064 0.47649,1.4805 0.3112,1.95583c-0.1272,0.36816 -1.37132,0.33748 -1.73784,0.24664c-1.10852,-0.27494 -0.86548,-1.3841 -1.77965,-2.09647z" data-paper-data="{&quot;index&quot;:null}" fill="#319a2b" stroke="none" stroke-width="0.17188" stroke-linecap="butt"/><path d="M236.8545,179.10537c-0.39328,0.11227 0.08835,2.34336 -0.06334,1.94968c-0.19699,-0.50824 -0.47648,0.30303 -1.46234,-0.00583c-1.06592,-0.33395 -0.70756,-2.07822 0.08398,-2.34288c1.25251,-0.41851 3.08127,-1.78277 3.43599,-1.58017c0.35468,0.20246 -1.34093,0.96305 -2.11376,1.63667c-0.96247,0.80587 1.30894,0.00277 0.11947,0.34252z" data-paper-data="{&quot;index&quot;:null}" fill="#319a2b" stroke="none" stroke-width="0.17188" stroke-linecap="butt"/><g data-paper-data="{&quot;index&quot;:null}" stroke="none" stroke-width="0.17188" stroke-linecap="butt"><path d="M241.57004,179.26244c0.28142,0.41469 0.06859,0.71758 -0.09205,0.82654c-0.80705,0.50959 -2.00634,0.6256 -2.80846,0.32388c0.14844,0.09177 -0.68265,-0.49459 -0.32849,-1.35047c0.13704,-0.37631 0.20442,-1.11833 0.38748,-1.73577l0.32779,-0.54064c0.15053,-0.24849 0.57146,-0.2594 0.78607,-0.03312c0.03176,0.03343 0.00696,-0.22573 0.17058,-0.31448c0.29452,-0.1597 0.85674,-0.18613 1.02327,0.06941c0.14623,0.22391 0.5311,0.35025 0.60662,0.73269c0.10181,0.51569 -0.46695,0.1356 -0.52253,0.55783c-0.03315,0.25091 0.44342,1.45464 0.44969,1.46409z" fill="#f0e9bb"/><path d="M243.22925,178.89816c0.00737,0.29917 0.33669,1.96458 0.05108,2.07794c-0.55054,0.18206 -1.4279,-0.67206 -1.98536,-0.5442c0.17191,-0.04255 0.24454,-0.64326 0.24454,-0.64326c0.00136,-0.03294 -0.03737,-0.52015 -0.27549,-1.0837c-0.19576,-0.46337 -0.42737,-0.9355 -0.22119,-1.08859c0.1425,-0.10604 0.56445,-0.3744 0.91667,-0.27015c0.37419,0.11086 0.91317,0.13361 1.24954,0.35444c0.14565,0.09558 0.65557,0.22575 0.74209,0.33915c0.13144,0.17269 -0.19357,0.31263 -0.14853,0.2791c0.22495,-0.16756 -0.58071,0.27619 -0.57333,0.57926z" fill="#ead42f"/></g><g data-paper-data="{&quot;index&quot;:null}" stroke="none" stroke-width="0.17188" stroke-linecap="butt"><path d="M238.0667,179.91456c0.00544,-0.00961 0.38572,-1.21264 0.33617,-1.45428c-0.08315,-0.40663 -0.60986,0.00207 -0.54644,-0.50626c0.04703,-0.37698 0.41247,-0.52633 0.53918,-0.7541c0.14425,-0.25991 0.69263,-0.27299 0.98996,-0.13805c0.16518,0.07498 0.15895,0.32866 0.18752,0.29396c0.19302,-0.23477 0.60297,-0.25319 0.76645,-0.02201l0.35593,0.50296c0.22054,0.58759 0.33721,1.30427 0.49638,1.66064c0.40331,0.80759 -0.36418,1.43492 -0.2262,1.33546c-0.75895,0.34861 -1.93281,0.31855 -2.7525,-0.1212c-0.16366,-0.09483 -0.39146,-0.3746 -0.14647,-0.79713z" fill="#f0e9bb"/><path d="M236.42861,179.67488c-0.01372,-0.29512 -0.82754,-0.67092 -0.5973,-0.52355c0.0461,0.0295 -0.27951,-0.08415 -0.16363,-0.26107c0.07628,-0.1162 0.56299,-0.2779 0.698,-0.38087c0.31178,-0.23788 0.83415,-0.29716 1.19026,-0.43073c0.33523,-0.12562 0.7639,0.10613 0.90975,0.1994c0.21099,0.13461 0.01839,0.60953 -0.13995,1.07349c-0.1926,0.56424 -0.19667,1.04056 -0.19307,1.0725c0,0 0.11204,0.57896 0.28208,0.60846c-0.55076,-0.08586 -1.34474,0.80494 -1.89249,0.66592c-0.28547,-0.09048 -0.08017,-1.73218 -0.09363,-2.02352z" fill="#ead42f"/></g><path d="M244.16811,173.25001l0.10256,-0.15385l0.66667,0.02564z" data-paper-data="{&quot;index&quot;:null}" fill="#000000" stroke="none" stroke-width="0" stroke-linecap="butt"/><path d="M239.2839,175.07384c-0.25971,0 -0.60994,0.03376 -0.92479,0.01872c-0.49139,-0.02363 -0.93532,-0.15374 -0.93532,-0.15374c0,0 -0.34037,-0.32711 -0.32037,-1.01971c0.01782,-0.61715 0.3131,-1.38581 0.81319,-1.38581c0.35709,0 0.66262,0.1376 1.01899,0.65129c0.08756,0.12623 0.59849,1.86225 0.3483,1.88925z" data-paper-data="{&quot;index&quot;:null}" fill="#ffffff" stroke="none" stroke-width="0.17188" stroke-linecap="butt"/><g data-paper-data="{&quot;index&quot;:null}" stroke="none" stroke-linecap="butt"><path d="M238.33212,174.369c0,-0.5294 0.20288,-0.95856 0.45313,-0.95856c0.25025,0 0.45313,0.42916 0.45313,0.95856c0,0.5294 -0.20288,0.95856 -0.45313,0.95856c-0.25025,0 -0.45313,-0.42916 -0.45313,-0.95856z" fill="#008ae6" stroke-width="0"/><path d="M238.78057,173.54345c0.07892,-0.00736 0.1526,0.07 0.20772,0.20091c0.05525,0.13092 0.09193,0.31542 0.09713,0.52227c0.00504,0.20696 -0.0224,0.39744 -0.07075,0.53808c-0.04848,0.14062 -0.11785,0.23142 -0.19677,0.23877c-0.07892,0.00736 -0.15261,-0.07 -0.20772,-0.20089c-0.05525,-0.13092 -0.09195,-0.31541 -0.097,-0.52225c-0.00518,-0.20699 0.02225,-0.39747 0.07057,-0.53811c0.04848,-0.14062 0.11796,-0.23126 0.19679,-0.23877z" fill="#000000" stroke-width="0.0278"/><path d="M238.63615,173.78137c0.0419,-0.0978 0.10095,-0.15994 0.16695,-0.16301c0.06603,-0.00305 0.12675,0.05362 0.17136,0.14739c0.0448,0.0938 0.07346,0.22477 0.07549,0.37069c0.00217,0.14612 -0.02276,0.27956 -0.06483,0.37735c-0.0419,0.0978 -0.10095,0.15998 -0.16695,0.16303c-0.06603,0.00305 -0.12675,-0.05361 -0.17136,-0.1474c-0.0448,-0.0938 -0.07346,-0.22477 -0.07549,-0.37069c-0.00217,-0.14612 0.02276,-0.27956 0.06483,-0.37735z" fill="#ffffff" stroke-width="0.01811"/></g><path d="M238.78497,175.14023l0.46708,-0.04595c0,0 -0.54629,0.70961 -0.95305,0.63138c-0.40676,-0.07822 -0.43938,-0.6276 -0.43938,-0.6276z" data-paper-data="{&quot;index&quot;:null}" fill="#f0e9bb" stroke="none" stroke-width="0" stroke-linecap="butt"/><path d="M238.67954,172.9741c-0.41598,-0.42365 -0.72904,-0.49569 -1.03205,-0.23153c-0.22698,0.17767 -0.383,0.79509 -0.39571,1.21444c-0.01699,0.56033 0.12964,0.98414 0.12964,0.98414c0,0 -0.12404,-0.12706 -0.22167,-0.41893c-0.09763,-0.29187 0.0206,-0.63787 -0.1514,-0.75489c-0.18012,-0.12255 -1.02374,-0.25869 -1.02374,-0.25869c0,0 1.18552,-0.00044 1.18793,-0.07506c0.01043,-0.32357 0.20922,-0.65476 0.32552,-0.75955c0.20913,-0.18845 0.43372,-0.26181 0.70783,-0.18982c0.19655,0.05163 0.36344,0.21798 0.57155,0.43023c0.67457,0.688 0.61877,2.11745 0.61877,2.11745c0,0 -0.14592,-1.60991 -0.71667,-2.05779z" data-paper-data="{&quot;index&quot;:null}" fill="#000000" stroke="none" stroke-width="0" stroke-linecap="butt"/><path d="M241.60794,198.66395c-1.56229,-1.05535 -1.63462,-5.20261 -1.63462,-5.20261c-0.03934,-0.60649 0.11799,-1.12439 0.35092,-1.62053c0.20286,-0.4321 0.46306,-0.84773 0.7006,-1.29102c0.51032,-0.95229 0.99384,0.64327 0.99384,0.64327c0,0 0.83754,2.26303 0.763,3.53374c0.07219,1.0916 -0.03245,4.70811 -1.17373,3.93716z" data-paper-data="{&quot;index&quot;:null}" fill="#54c81c" stroke="none" stroke-width="0" stroke-linecap="butt"/><path d="M231.97379,195.80792c-0.33989,-1.7117 2.30707,-4.55487 2.30707,-4.55487c0.36821,-0.43419 0.80795,-0.68274 1.28319,-0.86825c0.4139,-0.16155 0.85473,-0.27529 1.29867,-0.4222c0.95368,-0.31558 0.23447,1.06995 0.23447,1.06995c0,0 -0.92048,2.06226 -1.79497,2.87149c-0.66181,0.78237 -3.08013,3.15433 -3.32842,1.90389z" data-paper-data="{&quot;index&quot;:null}" fill="#54c81c" stroke="none" stroke-width="0" stroke-linecap="butt"/><path d="M239.31523,188.93203c0,0 -2.43719,2.38913 -3.27189,3.33966c-0.56466,0.64301 -1.42615,1.7077 -1.42615,1.7077c-0.27657,0.23068 -1.45637,0.58176 -1.24078,-0.19737c0.16948,-0.6125 1.72228,-2.37632 1.72228,-2.37632c0,0 2.36661,-2.18238 2.73474,-2.71564c1.21292,-1.64595 2.22207,-5.81705 2.22207,-5.81705l1.51892,0.30946l-2.25917,5.74956z" data-paper-data="{&quot;index&quot;:null}" fill="#ffffff" stroke="none" stroke-width="0" stroke-linecap="butt"/><path d="M241.88731,188.08911c0,0 0.17609,2.72625 0.299,3.84409c0.10103,0.91889 0.45522,2.30236 0.34502,2.89438c-0.1102,0.59203 -0.54397,1.23923 -1.00879,0.57781c-0.3654,-0.51997 -0.46731,-3.11819 -0.46731,-3.11819c0,0 -0.23607,-3.4995 -0.41409,-4.12255c-0.50078,-1.9823 -2.13161,-5.28041 -2.13161,-5.28041l1.20383,-0.97656l2.17395,6.18142z" data-paper-data="{&quot;index&quot;:null}" fill="#ffffff" stroke="none" stroke-width="0" stroke-linecap="butt"/></g></g></svg>