<svg version="1.1" xmlns="http://www.w3.org/2000/svg" xmlns:xlink="http://www.w3.org/1999/xlink" width="19.1847" height="53.85776" viewBox="0,0,19.1847,53.85776"><g transform="translate(-230.40764,-153.07112)"><g data-paper-data="{&quot;isPaintingLayer&quot;:true}" fill-rule="nonzero" stroke="#000000" stroke-linejoin="miter" stroke-miterlimit="10" stroke-dasharray="" stroke-dashoffset="0" style="mix-blend-mode: normal"><path d="M230.40766,168.34925c0,0 1.19197,-4.41253 2.49488,-7.51951c1.3029,-3.10697 2.3535,-6.37394 3.45843,-7.11386c1.07666,-0.72098 1.34644,-0.64742 2.10073,-0.20436c0.54119,0.31788 4.43867,11.00228 3.77193,29.98274c-0.0875,2.49092 -2.78523,9.72707 -5.57101,16.05172c-0.35755,0.81175 -3.25547,-6.71224 -4.3316,-8.78621c-1.59765,-3.07907 -1.92338,-22.41053 -1.92338,-22.41053z" fill="#002a4d" stroke-width="0" stroke-linecap="butt"/><path d="M232.6058,175.00078c0,0 0.06153,-4.53041 0.54509,-7.28864c0.63487,-3.62131 3.85121,-13.1776 3.85121,-13.1776" fill="none" stroke-width="0.5" stroke-linecap="round"/><path d="M233.15534,177.45672c0,0 0.6756,3.35544 0.64592,5.31264c-0.03128,2.06232 -1.56181,6.35312 -1.56181,6.35312" fill="none" stroke-width="0.5" stroke-linecap="round"/><path d="M249.45827,191.37377c-0.33445,1.49655 -4.65587,15.6753 -6.9608,15.55434c-3.59065,-0.18844 -6.01091,-7.44384 -6.01091,-7.44384c0,0 2.15544,-7.32309 3.44639,-11.79443c1.05679,-3.66028 2.25118,-13.91617 1.45104,-21.48679c-1.03714,-9.81317 -3.55083,-12.08633 -3.56282,-13.07205c-0.02426,-0.82866 8.66333,7.18886 10.15034,8.89532c1.23063,1.93926 1.93071,27.36085 1.48674,29.34745z" fill="#000c2e" stroke-width="0" stroke-linecap="butt"/><path d="M237.18528,186.66653l-0.73272,6.5492" fill="none" stroke-width="0.5" stroke-linecap="round"/><path d="M244.8788,171.93084l1.64861,25.37814" fill="none" stroke-width="0.5" stroke-linecap="round"/></g></g></svg>