<svg version="1.1" xmlns="http://www.w3.org/2000/svg" xmlns:xlink="http://www.w3.org/1999/xlink" width="34.52508" height="36.10608" viewBox="0,0,34.52508,36.10608"><g transform="translate(-227.99749,-163.90958)"><g data-paper-data="{&quot;isPaintingLayer&quot;:true}" fill-rule="nonzero" stroke-miterlimit="10" stroke-dasharray="" stroke-dashoffset="0" style="mix-blend-mode: normal"><path d="M242.2337,177.08661c1.02013,0.59829 2.09334,1.46579 2.77805,2.0679c0.97896,0.86085 1.87611,1.59886 1.87611,1.59886c0,0 -0.17752,0.5138 -0.46501,0.66435c-0.28748,0.15055 -0.35901,0.23552 -0.35901,0.23552c0,0 -1.49193,-1.41137 -1.88687,-1.75866c-0.6478,-0.56966 -1.49836,-1.25804 -2.48719,-2.02465c-0.24777,-0.1921 -0.29125,-0.43287 -0.10568,-0.69353c0.12468,-0.17514 0.31184,-0.28792 0.64963,-0.0898z" data-paper-data="{&quot;index&quot;:null}" fill="#fff9fb" stroke="none" stroke-width="0" stroke-linecap="butt" stroke-linejoin="miter"/><g data-paper-data="{&quot;index&quot;:null}" stroke-width="0" stroke-linecap="butt" stroke-linejoin="miter"><g data-paper-data="{&quot;index&quot;:null}"><path d="M251.46187,168.26745c-0.14737,1.05321 -1.12378,1.78708 -2.18086,1.63918c-1.05707,-0.14791 -1.79454,-1.12162 -1.64718,-2.17481c0.14737,-1.0532 1.12376,-1.78708 2.18084,-1.63918c1.05707,0.1479 1.79456,1.12161 1.6472,2.1748z" fill="#e0cb17" stroke="none"/><path d="M249.36511,169.81657c-0.65309,-0.09139 -1.10869,-0.69293 -1.01764,-1.3436c0.09106,-0.65067 0.69426,-1.10406 1.34734,-1.01268c0.65309,0.09139 1.10869,0.69293 1.01764,1.3436c-0.09106,0.65066 -0.69426,1.10406 -1.34734,1.01268z" fill="#e0cb17" stroke="#000000"/><path d="M250.55416,172.50774c-0.4843,0.97577 -2.39605,2.37002 -2.39605,2.37002c0,0 -1.04599,-2.13299 -0.5166,-3.4242c0.50987,-1.24356 0.68976,-1.42338 0.68976,-1.42338l2.08086,0.30618c0,0 0.62633,1.19561 0.14204,2.17138z" fill="#e8edf4" stroke="#000000"/><path d="M249.30922,170.40939c-0.57817,-0.08353 -1.24454,-0.53388 -1.24454,-0.53388l0.34749,-0.44605c0,0 0.58596,0.41785 1.03929,0.45529c0.45335,0.03743 1.13182,-0.27604 1.13182,-0.27604l0.12128,0.70503c0,0 -0.88936,0.16874 -1.39536,0.09565z" fill="#dbded5" stroke="#000000"/></g><g data-paper-data="{&quot;index&quot;:null}" stroke="none"><path d="M243.04632,174.08506c-0.05786,0.41355 -0.2663,0.7262 -0.46554,0.69833c-0.19924,-0.02786 -0.31385,-0.38573 -0.25598,-0.79929c0.05787,-0.41355 0.26628,-0.7262 0.46552,-0.69833c0.19925,0.02786 0.31387,0.38573 0.256,0.79929z" fill="#000000"/><path d="M241.34698,180.57844c0,0 -1.08618,0.18395 -1.29371,0.15491c-0.20753,-0.02904 -0.38885,-1.27366 -0.36338,-1.45564c0.02546,-0.18196 0.77008,-0.99166 0.97761,-0.96262c0.20753,0.02904 0.67948,2.26335 0.67948,2.26335z" fill="#807d5a"/><path d="M242.37814,174.52328l-0.05691,-0.32354l5.63737,-5.16634l0.10931,0.16799z" fill="#6e6e73"/><path d="M247.33758,169.45548l0.28598,0.36577l-1.35102,1.18523l-0.25592,-0.36156z" fill="#ddcb1e"/></g></g><g data-paper-data="{&quot;index&quot;:null}" stroke-width="0" stroke-linecap="butt" stroke-linejoin="miter"><g data-paper-data="{&quot;index&quot;:null}"><path d="M230.51932,168.82659c-1.35606,-0.18974 -2.30212,-1.43883 -2.11308,-2.7899c0.18904,-1.35109 1.44161,-2.29253 2.79767,-2.10279c1.35607,0.18974 2.30212,1.43884 2.11308,2.78991c-0.18903,1.35109 -1.4416,2.29252 -2.79766,2.10278z" fill="#e0cb17" stroke="none"/><path d="M230.44727,168.6859c-0.83778,-0.11722 -1.42225,-0.8889 -1.30545,-1.72361c0.11681,-0.83472 0.89064,-1.41634 1.72841,-1.29911c0.83779,0.11722 1.42225,0.88889 1.30545,1.7236c-0.1168,0.83471 -0.89063,1.41635 -1.7284,1.29912z" fill="#e0cb17" stroke="#000000"/><path d="M228.03291,171.58698c-0.25382,-1.3742 0.93978,-2.62853 0.93978,-2.62853l2.67468,0.355c0,0 0.15859,0.28517 0.34968,1.99869c0.19841,1.77916 -1.84291,4.04206 -1.84291,4.04206c0,0 -1.86736,-2.39304 -2.12121,-3.76723z" fill="#e8edf4" stroke="#000000"/><path d="M230.3075,169.43685c-0.64993,-0.088 -1.68756,-0.60927 -1.68756,-0.60927l0.39784,-0.82701c0,0 0.72655,0.62561 1.29895,0.73905c0.5724,0.11342 1.44234,-0.19574 1.44234,-0.19574l0.2716,0.67261c0,0 -0.98059,0.32093 -1.72318,0.22036z" fill="#dbded5" stroke="#000000"/></g><g data-paper-data="{&quot;index&quot;:null}" stroke="none"><path d="M235.7201,177.58263c0.26259,-0.39159 0.89612,-2.79328 2.16921,-2.57597c0.1976,0.03371 1.54918,1.53324 1.63646,2.60231c0.11871,1.45423 -1.06542,2.59013 -1.06542,2.59013l-3.08259,-0.4509c0,0 0.07975,-1.77398 0.34232,-2.16557z" fill="#e4dcaa"/><path d="M237.33622,175.28039c0.25559,0.03576 0.40263,0.49484 0.32839,1.02536c-0.07423,0.53054 -0.3416,0.93161 -0.59721,0.89585c-0.25558,-0.03576 -0.40261,-0.49484 -0.32837,-1.02536c0.07423,-0.53055 0.34158,-0.93161 0.59719,-0.89585z" fill="#000000"/><path d="M235.22591,181.93244c-0.02855,-0.85979 0.1504,-2.19898 0.1504,-2.19898c0,0 0.60874,-0.26343 0.98449,-0.31938c0.37576,-0.05596 0.98044,-0.02338 0.98044,-0.02338l1.11058,0.94789c0,0 -0.20962,2.98758 -0.24987,3.36833c-0.08109,0.76682 -1.57477,1.1378 -1.57477,1.1378l-1.10237,-0.64165c0,0 -0.27034,-1.41086 -0.29891,-2.27064z" fill="#dfcc17"/><path d="M236.54898,184.78456c0,0 1.36886,-2.59001 1.6351,-2.55275c0.26626,0.03723 0.89969,1.29824 0.86702,1.53167c-0.03267,0.23344 -0.69456,1.70496 -0.9608,1.6677c-0.26625,-0.03725 -1.54135,-0.6466 -1.54135,-0.6466z" fill="#807d5a"/><path d="M232.26411,168.38378l0.19401,-0.16875l5.135,8.35796l-0.18411,0.37906z" fill="#6e6e73"/><path d="M234.28625,170.88672l-0.44301,0.3559l-1.24927,-1.93776l0.48158,-0.35049z" fill="#ddcb1e"/></g></g><g data-paper-data="{&quot;index&quot;:null}" stroke="none" stroke-width="0" stroke-linecap="butt" stroke-linejoin="miter"><g><path d="M236.60771,192.09942c0,0 -0.23752,0.29415 -0.25666,0.7586c-0.0233,0.56585 0.36055,0.93034 0.49085,1.80297c0.2823,1.89076 -0.37056,3.50403 2.74142,4.56706c0.37752,0.03923 0.99627,-0.13069 0.99627,-0.13069c0,0 -0.00961,0.32783 -0.13589,0.5029c-0.12629,0.17507 -0.45439,0.31541 -0.45439,0.31541l-0.24384,-0.08958l-0.06456,0.16259c0,0 -0.17096,0.03795 -0.33845,0.02384c-0.16749,-0.01411 -0.36322,-0.04081 -0.42258,-0.07697c-0.07258,-0.04424 0.07683,-0.10221 -0.03251,-0.12772c-0.06747,-0.01575 -0.08524,-0.04984 -0.14965,-0.06412c-0.09889,-0.02191 -0.00382,0.12032 -0.10375,0.0899c-0.25801,-0.07851 -0.59438,-0.32525 -0.74367,-0.39282c-0.12452,-0.05637 -0.00107,-0.30005 -0.00107,-0.30005l-0.15718,-0.07221l-0.14034,0.11165c0,0 -0.31977,-0.38417 -0.43552,-0.48399c-0.36026,-0.31069 -0.11229,-0.47215 -0.11229,-0.47215l-0.12215,-0.19521l-0.16603,0.06689l-0.30806,-0.72924l0.08911,-0.18692c0,0 0.01328,-0.8555 -0.13664,-1.25202c-0.15035,-0.39765 -0.76417,-1.13052 -0.76417,-1.13052l-0.22253,0.10361l-0.24408,-0.74665l0.24196,-0.2898c0,0 -0.27676,0.01634 -0.28388,-0.10838c-0.07655,-1.34222 1.48026,-1.65638 1.48026,-1.65638z" data-paper-data="{&quot;index&quot;:null}" fill="#a87643"/><path d="M239.31294,194.29523c-0.43626,1.729 -1.66614,2.13774 -1.66614,2.13774c0,0 -1.41361,-2.65623 -1.38819,-3.57949c0.01896,-0.68855 1.1745,-1.46984 1.1745,-1.46984c0,0 0.37333,-1.19937 0.47568,-1.59446c0.10235,-0.39507 0.34212,-1.04625 0.34212,-1.04625c0,0 1.68344,0.65896 1.95918,0.95087c0.2049,0.23438 -0.64734,3.61137 -0.89714,4.60144z" data-paper-data="{&quot;index&quot;:null}" fill="#f3e2e2"/><path d="M239.77021,188.89809c0.15568,-0.08511 0.89465,0.07668 1.52315,0.5601c0.18832,0.1448 -0.31834,1.34564 -0.57468,2.9272c-0.14311,0.88295 -0.14624,2.25061 -0.18335,3.05814c-0.03989,0.86786 0.58445,1.85094 0.56801,2.04598c-0.05914,0.70163 -0.51967,1.65373 -0.53499,1.65962c-0.00855,0.0033 -1.03781,0.6132 -2.29634,-0.23776c-1.66952,-1.12887 -1.47612,-4.34635 -1.47612,-4.34635c0,0 0.66883,-0.4384 0.75275,0.13009c0.08981,0.70775 0.01426,0.55156 0.03586,1.08087c-0.00804,0.1988 0.00933,0.50227 0.04492,0.50401c0.36348,0.01788 1.30871,-1.08346 1.53836,-1.6915c0.18614,-0.49284 0.41326,-1.50384 0.56635,-2.38976c0.13445,-0.77809 0.3699,-1.50831 0.47527,-2.00935c0.06404,-0.30454 -0.0459,-0.54323 -0.0459,-0.54323c0,0 -0.64363,-0.61121 -0.39327,-0.74807z" data-paper-data="{&quot;index&quot;:null}" fill="#fc6293"/><path d="M240.407,195.01298c0,0 0.00779,-1.35731 0.18772,-2.243c0.23735,-1.16847 0.60335,-2.59086 0.65262,-2.98672c0.0248,-0.19914 -0.27271,-0.45598 -0.27271,-0.45598l0.12752,-0.04913c0,0 0.35125,0.24674 0.29067,0.49635c-0.34824,1.43467 -0.58986,2.23392 -0.66346,3.10054c-0.05318,0.62606 -0.19939,2.77393 -0.19939,2.77393z" data-paper-data="{&quot;index&quot;:null}" fill="#766565"/><path d="M238.18167,192.72838l0.288,-1.14578l0.616,0.16513l-0.34309,1.16703z" data-paper-data="{&quot;index&quot;:null}" fill="#fffff6"/><path d="M238.49555,190.89868l0.24088,-0.93292l0.54822,0.16312l-0.19826,0.99749z" data-paper-data="{&quot;index&quot;:null}" fill="#fffff6"/><path d="M241.0145,191.15217c0,0 -0.25111,0.10887 -0.73466,0.12716c-0.48353,0.01829 -1.19538,-0.1598 -1.19538,-0.1598l0.2123,-0.993c0,0 0.49417,0.19611 0.91408,0.22792c0.41991,0.0318 1.07628,-0.07715 1.07628,-0.07715l-0.27263,0.87488z" data-paper-data="{&quot;index&quot;:null}" fill="#754c86"/><path d="M239.68034,193.15113c-0.40144,-0.05914 -0.96959,-0.22869 -0.96959,-0.22869l0.32633,-1.17985c0,0 0.40596,0.11949 0.79183,0.13851c0.38587,0.01901 1.04583,-0.05591 1.04583,-0.05591c0,0 -0.07456,0.47114 -0.10819,0.72241c-0.03363,0.25127 -0.07488,0.64527 -0.07488,0.64527c0,0 -0.60987,0.01738 -1.01132,-0.04174z" data-paper-data="{&quot;index&quot;:null}" fill="#754c86"/><path d="M238.2668,188.75494c0,0 0.34879,-0.10248 0.56497,-0.08693c0.13084,0.00942 0.45303,0.0823 0.80239,0.12473c0.34936,0.04242 0.43005,0.10715 0.43005,0.10715l-1.63897,-0.065z" data-paper-data="{&quot;index&quot;:null}" fill="#ae8484"/><path d="M240.90497,189.49141c-0.03383,0.14574 -0.18111,0.2237 -0.55819,0.15487c-0.37708,-0.06883 -0.26577,-0.10762 -0.94193,-0.38551c-0.33256,-0.13117 -0.96502,-0.41684 -0.96502,-0.41684c0,0 0.49158,-0.15569 1.3254,0.03792c0.83384,0.19361 1.18917,0.40475 1.14371,0.60063z" data-paper-data="{&quot;index&quot;:null}" fill="#532c31"/></g><path d="M238.96401,188.71321c0,0 -0.36721,-0.69638 -0.12998,-0.99161c0.23723,-0.29522 0.58829,-0.13182 0.83233,0.12964c0.24405,0.26145 0.21974,0.99749 0.21974,0.99749z" fill="#f3e2e2"/></g><g data-paper-data="{&quot;index&quot;:null}" stroke="none" stroke-width="0" stroke-linecap="butt" stroke-linejoin="miter"><path d="M241.14144,184.09041l-0.47731,3.71665l-0.28157,1.90834l-1.12786,-0.4388l0.17857,-2.09399l0.48507,-3.42913z" data-paper-data="{&quot;index&quot;:null}" fill="#8e5173"/><path d="M240.74593,187.04952l-0.08177,0.75756l-0.28157,1.90834l-1.12786,-0.4388l0.17857,-2.09399l0.07392,-0.49072z" data-paper-data="{&quot;index&quot;:null}" fill="#c5c0b5"/><path d="M239.46345,186.94674l0.05189,-0.25416l1.24133,0.35343l-0.03812,0.27242z" fill="#af2753"/><path d="M239.39617,187.42751l0.05189,-0.25416l1.24133,0.35343l-0.03812,0.27242z" fill="#af2753"/></g><g data-paper-data="{&quot;index&quot;:null}" stroke="none" stroke-width="0" stroke-linecap="butt" stroke-linejoin="miter"><g data-paper-data="{&quot;index&quot;:null}"><path d="M249.77203,167.649c0,0 -0.22128,0.40253 -1.09546,1.13563c-1.74291,1.46159 -2.85727,0.93443 -2.85727,0.93443c0,0 -0.04449,-0.89423 0.88179,-1.51212c0.94913,-0.63312 3.07095,-0.55795 3.07095,-0.55795z" data-paper-data="{&quot;index&quot;:null}" fill="#ce204f"/><path d="M247.77409,167.8887c-1.12858,0.16727 -1.94565,1.7681 -1.94565,1.7681c0,0 -0.64301,-1.79018 1.59963,-2.1703c1.12487,-0.19065 2.37653,0.17286 2.37653,0.17286c0,0 -0.90193,0.06208 -2.03051,0.22934z" fill="#ff4488"/></g><g data-paper-data="{&quot;index&quot;:null}"><path d="M245.83279,169.84711c0,0 1.0545,-0.12792 1.67155,0.0864c1.22145,0.4243 1.83168,1.97202 1.83168,1.97202c0,0 -1.31652,-0.25704 -2.15422,-0.44448c-1.14317,-0.25581 -1.349,-1.61395 -1.349,-1.61395z" fill="#f5e4ec"/><path d="M247.49089,170.07075c1.01787,0.35357 1.52642,1.64334 1.52642,1.64334c0,0 -1.09712,-0.21418 -1.7952,-0.37038c-0.95266,-0.21317 -1.12417,-1.34497 -1.12417,-1.34497c0,0 0.87875,-0.10662 1.39296,0.072z" fill="#e2c1c1"/></g></g><path d="M240.15385,182.1978c0,0 -1.59136,1.40938 -2.40225,1.55273c-0.88115,0.15578 -3.05293,-0.30328 -3.05293,-0.30328l2.78371,-0.60529l1.34815,-0.49352z" data-paper-data="{&quot;index&quot;:null}" fill="#f79db4" stroke="none" stroke-width="0" stroke-linecap="butt" stroke-linejoin="miter"/><path d="M249.82443,182.8986c0.09682,0.09487 0.25171,1.13501 0.25158,1.60922c-0.00008,0.25898 0.00292,0.74151 -0.39896,0.90843c-0.10243,0.04256 -0.63997,-0.01823 -0.63997,-0.01823l-0.21044,0.36291c0,0 -0.23101,0.09525 -0.38073,0.07333c-0.14972,-0.0219 -0.39132,-0.16695 -0.39132,-0.16695c0,0 -0.15569,0.07246 -0.25443,0.14582c-0.32228,0.2395 -0.57239,-0.04195 -0.57239,-0.04195c0,0 -0.21389,0.2005 -0.4243,0.22978c-0.33357,0.04644 -0.74428,-0.08657 -0.93162,-0.22717c-0.31823,-0.23882 -1.02334,-1.09505 -0.87292,-1.43369c0.23427,-0.5274 0.84577,-0.16498 0.84577,-0.16498c0,0 -0.29366,-0.52599 -0.28301,-0.89048c0.01641,-0.56126 0.25377,-0.837 0.25377,-0.837l2.24979,-0.98286c0,0 1.15153,0.83834 1.75917,1.43384z" data-paper-data="{&quot;index&quot;:null}" fill="#ffffff" stroke="none" stroke-width="0" stroke-linecap="butt" stroke-linejoin="miter"/><g data-paper-data="{&quot;index&quot;:null}" stroke="none" stroke-width="0" stroke-linecap="butt" stroke-linejoin="miter"><path d="M236.25351,188.01845c0,0 -0.42316,-0.66386 -0.21098,-0.97757c0.21218,-0.31371 0.57548,-0.1797 0.84017,0.06084c0.26471,0.24054 0.30094,0.97607 0.30094,0.97607z" fill="#fc6293"/><g><path d="M234.0898,191.20981c0,0 -0.28977,0.27185 -0.37677,0.75258c-0.10602,0.58567 0.24088,1.02055 0.25045,1.94773c0.0207,2.009 -0.89199,3.59402 2.19387,5.1502c0.38731,0.09539 1.05594,0.00789 1.05594,0.00789c0,0 -0.05736,0.33986 -0.2141,0.50385c-0.15674,0.164 -0.51855,0.26268 -0.51855,0.26268l-0.24088,-0.12848l-0.09069,0.15992c0,0 -0.18343,0.01482 -0.35575,-0.02407c-0.17232,-0.03888 -0.37219,-0.09497 -0.42877,-0.14119c-0.06919,-0.05651 0.09473,-0.09528 -0.01539,-0.13762c-0.06796,-0.02614 -0.08153,-0.0642 -0.14651,-0.08835c-0.09978,-0.03707 -0.02135,0.12472 -0.121,0.07861c-0.25724,-0.11902 -0.57176,-0.42445 -0.71738,-0.51637c-0.12148,-0.07666 0.04223,-0.3125 0.04223,-0.3125l-0.15317,-0.09787l-0.1622,0.09594c0,0 -0.27738,-0.44609 -0.38344,-0.56673c-0.33011,-0.37547 -0.04866,-0.50771 -0.04866,-0.50771l-0.09896,-0.22086l-0.18247,0.04563l-0.21533,-0.80364l0.11977,-0.18168c0,0 0.13743,-0.8886 0.03867,-1.32302c-0.09905,-0.43566 -0.63213,-1.28723 -0.63213,-1.28723l-0.2466,0.07569l-0.14619,-0.8125l0.29376,-0.26669c0,0 -0.29049,-0.02298 -0.27987,-0.15382c0.11421,-1.40823 1.78018,-1.51034 1.78018,-1.51034z" data-paper-data="{&quot;index&quot;:null}" fill="#a87643"/><path d="M236.5887,193.88645c-0.70392,1.73679 -2.04323,1.98457 -2.04323,1.98457c0,0 -1.08773,-2.96925 -0.92786,-3.92667c0.11923,-0.714 1.43496,-1.36033 1.43496,-1.36033c0,0 0.56189,-1.19457 0.7255,-1.59105c0.16362,-0.39648 0.50729,-1.03967 0.50729,-1.03967c0,0 1.65717,0.92918 1.90202,1.27288c0.17942,0.2736 -1.1956,3.66576 -1.59869,4.6603z" data-paper-data="{&quot;index&quot;:null}" fill="#fc6293"/><path d="M237.84441,188.33433c0.17435,-0.06609 0.92022,0.2091 1.50461,0.80312c0.17507,0.17795 -0.52582,1.35479 -1.02116,2.96407c-0.27654,0.89844 -0.4774,2.32166 -0.6327,3.1569c-0.16691,0.89765 0.34095,2.01117 0.29567,2.21184c-0.16292,0.72181 -0.77987,1.64634 -0.79668,1.65028c-0.0094,0.0022 -1.16893,0.48838 -2.35606,-0.57928c-1.57481,-1.41634 -0.90862,-4.73763 -0.90862,-4.73763c0,0 0.75958,-0.35974 0.76478,0.24417c-0.00877,0.74971 -0.06485,0.57619 -0.11883,1.13031c-0.03708,0.20579 -0.06285,0.5242 -0.02606,0.53115c0.37577,0.07113 1.51915,-0.92736 1.84606,-1.52712c0.26495,-0.48615 0.64715,-1.51711 0.93449,-2.41721c0.25238,-0.79052 0.60298,-1.51665 0.78505,-2.02298c0.11067,-0.30777 0.0307,-0.57211 0.0307,-0.57211c0,0 -0.58166,-0.72921 -0.30128,-0.83551z" data-paper-data="{&quot;index&quot;:null}" fill="#f3e2e2"/><path d="M237.62374,194.79165c0,0 0.20422,-1.41177 0.51948,-2.30774c0.4159,-1.18203 1.00239,-2.60979 1.11087,-3.01474c0.05458,-0.20373 -0.21799,-0.51406 -0.21799,-0.51406l0.13983,-0.03271c0,0 0.32999,0.30762 0.23085,0.55867c-0.56978,1.44311 -0.93677,2.24018 -1.1386,3.13166c-0.1458,0.64402 -0.60833,2.85873 -0.60833,2.85873z" data-paper-data="{&quot;index&quot;:null}" fill="#bfa4a4"/><path d="M235.6374,192.09199l0.46534,-1.15109l0.61738,0.26089l-0.52575,1.16524z" data-paper-data="{&quot;index&quot;:null}" fill="#fffff6"/><path d="M236.22851,190.23269l0.38552,-0.93633l0.5471,0.249l-0.3505,1.00971z" data-paper-data="{&quot;index&quot;:null}" fill="#fffff6"/><path d="M238.81392,190.86054c0,0 -0.27712,0.07701 -0.78312,0.02621c-0.50599,-0.05083 -1.22127,-0.33907 -1.22127,-0.33907l0.36447,-1.00299c0,0 0.48607,0.27554 0.91858,0.36932c0.43251,0.0938 1.1315,0.07519 1.1315,0.07519z" data-paper-data="{&quot;index&quot;:null}" fill="#754c86"/><path d="M238.18309,192.93813c0,0 -0.63738,-0.06999 -1.04671,-0.18955c-0.40934,-0.11956 -0.97625,-0.37814 -0.97625,-0.37814l0.51017,-1.18104c0,0 0.40531,0.18304 0.80423,0.25858c0.39893,0.07553 1.09674,0.0929 1.09674,0.0929c0,0 -0.14568,0.47968 -0.21699,0.73638c-0.07132,0.25673 -0.17118,0.66088 -0.17118,0.66088z" data-paper-data="{&quot;index&quot;:null}" fill="#754c86"/><path d="M236.30006,187.96809c0,0 0.37789,-0.05628 0.60067,-0.00887c0.13483,0.02871 0.4597,0.15113 0.81724,0.24577c0.35754,0.09465 0.43218,0.17369 0.43218,0.17369l-1.69668,-0.30446z" data-paper-data="{&quot;index&quot;:null}" fill="#ae8484"/><path d="M238.93993,189.11587c-0.05626,0.14683 -0.22081,0.20669 -0.60341,0.08057c-0.38261,-0.12614 -0.26111,-0.15041 -0.92484,-0.53738c-0.32723,-0.18455 -0.94432,-0.57332 -0.94432,-0.57332c0,0 0.5342,-0.09104 1.3742,0.23097c0.84001,0.32202 1.1794,0.59314 1.10376,0.79048z" data-paper-data="{&quot;index&quot;:null}" fill="#532c31"/></g></g><g data-paper-data="{&quot;index&quot;:null}" stroke="none" stroke-width="0" stroke-linecap="butt" stroke-linejoin="miter"><path d="M239.98677,183.86369l-1.17347,3.97081l-0.43544,1.43566l-1.25416,-0.77726l0.38134,-1.12626l1.15045,-3.59737z" data-paper-data="{&quot;index&quot;:null}" fill="#8e5173"/><path d="M239.16054,186.59606l-0.3473,1.23842l-0.43544,1.43566l-1.25416,-0.77726l0.38134,-1.12626l0.39065,-1.20706z" data-paper-data="{&quot;index&quot;:null}" fill="#a71e48"/><path d="M239.16054,186.59607l-0.06885,0.2578l-1.26471,-0.46831l0.06865,-0.226z" data-paper-data="{&quot;index&quot;:null}" fill="#a19589"/><path d="M239.01317,187.06562l-0.06885,0.2578l-1.26471,-0.4683l0.06865,-0.22601z" data-paper-data="{&quot;index&quot;:null}" fill="#a19589"/></g><g data-paper-data="{&quot;index&quot;:null}" stroke="none" stroke-width="0" stroke-linecap="butt" stroke-linejoin="miter"><path d="M245.05615,181.77752c-0.31892,-1.01584 0.33086,-1.34883 1.15953,-1.59456c0.82866,-0.24571 1.53864,-0.31595 1.84132,0.70472c0.30264,1.02066 -0.33085,1.34883 -1.15952,1.59456c-0.82867,0.24571 -1.52247,0.31088 -1.84133,-0.70472z" fill="#fed000"/><path d="M244.60165,181.91229c-0.26818,-0.8266 0.59705,-1.19769 1.67673,-1.51785c1.07969,-0.32016 1.98616,-0.47444 2.23314,0.35845c0.24698,0.8329 -0.59705,1.19769 -1.67673,1.51785c-1.07969,0.32016 -1.96501,0.46796 -2.23314,-0.35845z" fill="#e68b9c"/></g><path d="M244.01318,183.75588c0,0 -1.90162,0.96544 -4.0551,0.74544c-2.54504,-0.43715 -4.40731,-1.71358 -4.40731,-1.71358l0.29953,-0.33906c0,0 1.4933,1.41432 4.13036,1.71994c2.27338,0.2259 3.88608,-0.81908 3.88608,-0.81908z" data-paper-data="{&quot;index&quot;:null}" fill="#ee3377" stroke="none" stroke-width="0" stroke-linecap="butt" stroke-linejoin="miter"/><path d="M242.34562,179.94236l1.54094,3.48064c0,0 -2.46706,1.1716 -4.40484,0.74205c-2.52096,-0.59668 -3.67512,-1.64094 -3.67512,-1.64094l1.55886,-1.60263l1.4711,-1.50014z" data-paper-data="{&quot;index&quot;:null}" fill="#fcf4f4" stroke="none" stroke-width="0" stroke-linecap="butt" stroke-linejoin="miter"/><path d="M243.7236,183.08697c0,0 -1.43369,1.02818 -3.58716,0.80818c-2.98926,-0.51397 -4.04052,-1.66225 -4.04052,-1.66225l0.10377,-0.10933c0,0 1.32924,1.31256 3.9663,1.61818c2.37769,0.23777 3.48985,-0.80766 3.48985,-0.80766z" data-paper-data="{&quot;index&quot;:null}" fill="#ee3377" stroke="none" stroke-width="0" stroke-linecap="butt" stroke-linejoin="miter"/><g data-paper-data="{&quot;index&quot;:null}" stroke="none" stroke-width="0" stroke-linecap="butt" stroke-linejoin="miter"><path d="M242.72815,184.70604l-1.11331,-5.02209l0.57256,0.06458l2.37939,4.15477c0,0 -0.55192,0.58429 -1.49202,0.7635c-0.22946,0.04375 -0.34661,0.03924 -0.34661,0.03924z" fill="#fab5b7"/><path d="M243.33486,184.61252c0.67525,-0.14791 1.24261,-0.76321 1.24261,-0.76321l0.11028,0.39691c0,0 -0.61757,0.66798 -1.30704,0.82419c-0.76909,0.17424 -0.59501,0.07974 -0.59501,0.07974l-0.06275,-0.39992c0,0 -0.13927,0.02683 0.61192,-0.13772z" fill="#fed000"/></g><path d="M239.53754,180.14904l0.46152,-0.52527l1.57261,0.10453l0.31653,0.5379z" data-paper-data="{&quot;index&quot;:null}" fill="#aa4455" stroke="none" stroke-width="0" stroke-linecap="butt" stroke-linejoin="miter"/><g data-paper-data="{&quot;index&quot;:null}" stroke-width="0" stroke-linecap="butt" stroke-linejoin="miter"><path d="M261.25412,183.46853l-9.03592,-0.93234c0,0 -1.08148,-2.71853 0.46128,-3.95859c1.46211,-1.1752 2.80996,-1.72874 4.8112,-1.62923c5.21179,0.25914 5.03113,4.92834 5.03113,4.92834z" fill="#ffff00" stroke="none"/><path d="M261.60176,183.06458c0,0 0.02896,-0.64726 -0.13367,-1.31587c-0.10884,-0.44742 -0.44225,-0.9054 -0.3797,-1.10748c0.12577,-0.40642 0.27749,-0.07103 0.61834,0.69706c0.15894,0.35815 0.23275,1.31816 0.23275,1.31816l-0.33774,0.40814z" fill="#a58c48" stroke="#000000"/><path d="M259.25349,178.87244c-0.01434,0.18765 -1.0309,-0.25978 -1.92503,-0.32816c-0.89414,-0.06839 -2.38156,0.54806 -2.40141,0.1179c-0.02175,-0.47106 1.50236,-0.64221 2.39815,-0.60064c1.33691,0.06206 1.94265,0.62327 1.9283,0.81093z" fill="#a58c48" stroke="#000000"/><path d="M252.23021,181.85358l-0.17236,-0.37505c0,0 0.07833,-0.61102 0.27271,-1.01093c0.17451,-0.35905 0.5312,-0.34911 0.59077,-0.29015c0.16922,0.16756 -0.23587,0.41836 -0.42432,0.82197c-0.20359,0.43606 -0.26678,0.85414 -0.26678,0.85414z" fill="#a58c48" stroke="#000000"/><path d="M256.72671,184.04707c3.56506,0.36848 4.35287,2.45414 4.35287,2.45414c0,0 0.06831,-0.20969 0.02351,0.38497c-0.04482,0.59468 -0.07274,0.30462 -0.07274,0.30462c0,0 -1.24149,-1.79157 -3.36051,-2.38808c-3.37226,-0.9493 -5.76667,1.32813 -5.76667,1.32813l0.12655,-0.58116c0,0 2.15626,-1.76527 4.69698,-1.50265z" fill="#edeee6" stroke="none"/><path d="M252.10471,182.11435c0,0 2.2044,-2.72533 5.00372,-2.3232c3.54761,0.50964 4.35473,3.40057 4.35473,3.40057l-0.20727,0.27029c0,0 -1.17923,-2.05131 -3.25389,-2.69138c-3.30163,-1.01863 -5.80696,1.73075 -5.80696,1.73075l-0.09031,-0.38702z" fill="#edeee6" stroke="none"/><path d="M257.02126,180.20096c3.58047,0.36969 4.30866,3.54501 4.30866,3.54501c0,0 0.04955,0.94343 0.00476,1.53809c-0.04479,0.59469 -0.23433,1.51002 -0.23433,1.51002c0,0 -1.24741,-1.79201 -3.37573,-2.38923c-3.38701,-0.9504 -5.79094,1.32628 -5.79094,1.32628l0.24976,-3.32457c0,0 2.28614,-2.46905 4.83784,-2.20559z" fill="#754c86" stroke="none"/><path d="M254.79186,187.35702c-1.33569,-0.10214 -4.07367,1.43643 -4.07367,1.43643c0,0 -0.17624,-0.76961 0.18728,-1.57901c0.56869,-1.26631 2.01101,-2.81827 5.06895,-2.70219c5.8314,0.22133 5.99532,5.46448 5.99532,5.46448c0,0 -5.84222,-2.51756 -7.17791,-2.61972z" fill="#ffff00" stroke="none"/><path d="M256.52278,185.39854c-0.69543,-0.05318 -2.40961,0.13694 -2.26468,-0.09277c0.21444,-0.33987 1.56799,-0.46527 2.26139,-0.38996c1.25203,0.13596 2.01823,0.68666 2.00978,0.79704c-0.00845,0.11038 -1.1112,-0.24581 -2.0065,-0.3143z" fill="#a58c48" stroke="#000000"/><path d="M261.45747,187.90699c0,0 -1.17361,-1.02682 -1.22745,-1.30014c-0.08392,-0.4259 1.00735,0.7606 1.00735,0.7606l0.22009,0.53955z" fill="#a58c48" stroke="#000000"/><path d="M252.72711,185.8722c-0.02872,0.37533 -1.71573,1.26196 -1.71573,1.26196l0.40048,-0.73224c0,0 1.34394,-0.90504 1.31524,-0.52971z" fill="#a58c48" stroke="#000000"/><path d="M256.37494,193.04592c-3.21424,-0.28603 -5.85968,-1.91156 -5.676,-4.31317c0.13169,-1.72204 3.16812,-2.77334 6.02258,-2.51482c2.73441,0.24765 5.35448,2.01471 5.22278,3.73676c-0.1317,1.72202 -2.83262,3.30936 -5.56741,3.06598z" fill="#ffff00" stroke="#000000"/><path d="M260.58243,191.54564c-0.07935,1.03763 -2.12134,1.72759 -4.56089,1.54099c-2.43957,-0.18658 -4.35288,-1.17901 -4.27352,-2.21665c0.07935,-1.03763 2.12135,-1.72758 4.5609,-1.54098c2.43956,0.18657 4.35286,1.17899 4.2735,2.21663z" fill="#ffff00" stroke="#000000"/><path d="M249.83982,185.62925l-4.17107,-0.04241l-7.06559,-0.09906c0,0 -0.43624,-0.3365 -0.42971,-0.56923c0.00653,-0.23273 0.33482,-0.75061 0.33482,-0.75061l7.01795,-0.31415l4.2961,-0.24616c0,0 -0.16292,0.62436 -0.1594,1.03181c0.00354,0.40745 0.17689,0.98986 0.17689,0.98986z" fill="#fbdd00" stroke="none"/><path d="M251.90245,185.92122c0,0 -1.83066,-0.01198 -1.91309,-0.08403c-0.31288,-0.27353 -0.41532,-1.99697 -0.07203,-2.47066c0.20268,-0.27969 2.73484,-0.40054 2.73484,-0.40054l-0.48894,2.70678z" fill="#c8c8c6" stroke="none"/><path d="M262.49712,181.67379c0,0 0.04964,-2.41486 -2.00844,-3.79182c-0.49923,-0.33402 -1.29294,-0.53743 -2.04453,-0.71081c-1.11731,-0.25775 -2.47044,-0.26444 -3.55424,0.15172c-1.33911,0.51419 -2.43821,1.58681 -2.43821,1.58681c0,0 2.21034,-3.05175 5.49237,-2.36894c4.86429,1.01198 4.55308,5.13305 4.55308,5.13305z" fill="#ffff00" stroke="#000000"/><path d="M238.60309,185.4878c0,0 -0.43624,-0.3365 -0.42971,-0.56923c0.00653,-0.23272 0.33481,-0.75061 0.33481,-0.75061l3.01121,-0.14992c0,0 0.08997,0.32202 0.09349,0.72947c0.00351,0.40743 -0.08325,0.78615 -0.08325,0.78615z" fill="#a56402" stroke="none"/></g><path d="M241.69706,170.57992c0,0 -0.91543,-0.97804 -1.90162,-0.8065c-1.59401,0.27728 -1.52458,2.33201 -1.52458,2.33201c0,0 -0.20076,-1.3849 0.59103,-2.05907c0.52271,-0.44506 0.86026,-0.59766 1.54723,-0.41964c0.76981,0.19947 1.28796,0.95318 1.28796,0.95318z" data-paper-data="{&quot;index&quot;:null}" fill="#000000" stroke="none" stroke-width="0" stroke-linecap="butt" stroke-linejoin="miter"/><path d="M241.30026,165.55676c3.30598,0.46256 5.66259,3.14889 5.26364,6.00008c-0.39894,2.8512 -3.40237,4.78753 -6.70835,4.32494c-3.30596,-0.46256 -5.66258,-3.14888 -5.26363,-6.00007c0.39893,-2.8512 3.40236,-4.78755 6.70834,-4.32496z" data-paper-data="{&quot;index&quot;:null}" fill="#f79eb4" stroke="none" stroke-width="0" stroke-linecap="butt" stroke-linejoin="miter"/><path d="M246.12419,173.258c0.00844,-0.01509 -0.10897,1.03931 -1.04294,2.26567c-1.49968,1.98063 -2.97319,1.83273 -2.97319,1.83273l0.40614,-0.8632c0,0 1.77611,-1.49256 2.26867,-2.07739c0.49255,-0.58483 0.85005,-1.71422 0.84976,-1.71354" data-paper-data="{&quot;index&quot;:null}" fill="#f79eb4" stroke="#f89db5" stroke-width="0" stroke-linecap="butt" stroke-linejoin="round"/><g data-paper-data="{&quot;index&quot;:null}" fill="#ffd5c5" stroke="none" stroke-width="1" stroke-linecap="round" stroke-linejoin="round"><path d="M244.38708,174.94663c0.04246,0.54579 -0.47419,0.93844 -0.90858,1.1885c-0.07108,0.04089 -0.62768,0.359 -1.49187,0.51987c-1.08434,0.20183 -2.42423,-0.18564 -2.81048,-0.28698c-0.46061,-0.12089 -1.22103,-0.7605 -1.33317,-0.92105c-0.80701,-1.15557 -0.02634,-1.55035 0.08487,-1.61403c0.05304,-0.03035 0.335,-0.09289 0.63518,0.05848c0.29259,0.14753 1.06787,0.72977 1.35881,0.75791c0.31259,0.03024 2.12273,-0.31247 3.02111,-0.18558c0.18643,0.02832 0.42352,0.12512 0.55728,0.26364c0.17405,0.18033 0.42569,0.51422 0.72418,0.29792c0.04829,-0.03503 0.15804,-0.13822 0.1627,-0.07873z"/><path d=""/></g><g data-paper-data="{&quot;index&quot;:null}" fill="#000000" stroke="none" stroke-width="1" stroke-linecap="round" stroke-linejoin="round"><path d="M243.12231,175.15898c-0.23188,-0.06834 -0.59726,-0.31615 -0.38312,-0.42975c0.16277,-0.08633 0.67858,0.04493 0.75968,0.12383c0.14029,0.13649 -0.26873,0.32844 -0.37658,0.30592z"/><path d=""/></g><path d="M238.19793,171.3686c0.02761,-0.04966 -0.3615,1.86358 -0.46198,2.73857c-0.18917,1.64772 0.0476,2.71919 0.0476,2.71919c0,0 -0.32179,-0.28173 -0.39678,-0.36442c-0.23162,-0.25541 -0.43273,-0.5045 -0.61903,-0.79813c-0.43818,-0.69069 -0.68895,-1.47987 -0.79981,-2.28751c-0.07386,-0.53826 0.08489,-2.82769 0.10941,-2.83814" data-paper-data="{&quot;index&quot;:null}" fill="#f79eb4" stroke="#f89db5" stroke-width="0" stroke-linecap="butt" stroke-linejoin="round"/><path d="M235.98801,170.49387c-0.01653,0.01248 -0.11256,2.82716 -0.07535,3.61815c0.03722,0.79099 0.33971,2.00038 0.33971,2.00038c0,0 -0.39851,-0.11985 -0.8676,-0.82265c-0.4142,-0.62059 -0.65156,-0.9389 -0.78821,-2.01539c-0.17731,-1.39687 -0.02037,-3.25945 0.20741,-3.59054" data-paper-data="{&quot;index&quot;:null}" fill="#f79eb4" stroke="#f89db5" stroke-width="0" stroke-linecap="butt" stroke-linejoin="round"/><g data-paper-data="{&quot;index&quot;:null}" fill="#ff4488" stroke="none" stroke-width="1" stroke-linecap="round" stroke-linejoin="round"><path d="M244.68731,168.54947c-0.07801,-0.0674 -2.07099,-1.7507 -3.67881,-1.69781c-1.26723,0.04167 -1.99192,0.46359 -3.24281,1.18968c-0.96471,0.55993 -1.72007,2.0388 -1.75488,2.04296c-0.0025,0.00031 0.89913,-4.01725 4.34374,-4.14611c2.78247,-0.07291 4.72284,2.00566 4.79765,2.13528"/><path d=""/></g><g data-paper-data="{&quot;index&quot;:null}" stroke="none" stroke-width="1" stroke-linecap="round" stroke-linejoin="round"><g fill="#f79eb4"><path d="M237.46058,168.51013c0.02742,-0.35848 -0.05079,-0.9946 0.04032,-1.66475c0.09112,-0.67015 0.26862,-1.52128 0.41402,-1.677c0.19008,-0.20357 0.91922,0.12127 1.64294,0.59626c0.72372,0.47501 1.57532,1.37413 1.59819,1.53096"/></g><g fill="#ffd5c5"><path d="M238.08205,168.16345c0.00133,-0.08549 -0.05892,-0.49104 -0.00424,-0.98855c0.05466,-0.49752 0.22766,-1.23448 0.25107,-1.2572c0.09496,-0.09204 0.90354,0.30859 1.29417,0.57403c0.39064,0.26544 0.75813,0.69973 0.83464,0.87254"/></g></g><g data-paper-data="{&quot;index&quot;:null}" fill="#f79eb4" stroke="none" stroke-width="1" stroke-linecap="round" stroke-linejoin="round"><path d="M244.66984,167.24558c0.3044,-0.04668 0.62405,-0.07232 1.28818,-0.02507c0.66413,0.04725 1.49151,0.09576 1.68314,0.23641c0.03924,0.02882 0.06569,0.6832 -0.08937,1.16856c-0.24201,0.75762 -0.81328,1.51441 -0.82349,1.52594"/><path d=""/></g><path d="M246.61307,173.01244c-0.41495,0.15394 -0.91926,0.12842 -0.91926,0.12842l0.0995,-0.33354c0,0 0.26647,0.10947 0.71936,0.00581c0.4529,-0.10366 1.08856,-0.4708 1.08856,-0.4708c0,0 -0.57322,0.51619 -0.98817,0.67013z" data-paper-data="{&quot;index&quot;:null}" fill="#000000" stroke="none" stroke-width="0" stroke-linecap="butt" stroke-linejoin="miter"/><path d="M239.86509,170.21644c-0.60165,-0.0842 -1.56562,1.447 -1.56562,1.447c0,0 -0.31485,-2.32835 0.89011,-2.75322c1.61045,-0.56784 2.43736,1.70419 2.43736,1.70419c0,0 -1.16019,-0.3138 -1.76184,-0.39798z" data-paper-data="{&quot;index&quot;:null}" fill="#e569c4" stroke="none" stroke-width="0" stroke-linecap="butt" stroke-linejoin="miter"/><path d="M246.40593,173.57797c-0.43123,0.09956 -0.92814,0.00974 -0.92814,0.00974l0.14137,-0.3181c0,0 0.25025,0.14266 0.71271,0.09779c0.46243,-0.04487 1.34415,-0.27256 1.34415,-0.27256c0,0 -0.83887,0.38353 -1.2701,0.4831z" data-paper-data="{&quot;index&quot;:null}" fill="#000000" stroke="none" stroke-width="0" stroke-linecap="butt" stroke-linejoin="miter"/><path d="M242.66152,172.86758c0.32566,0.65812 0.52355,0.67578 0.7157,0.7204c0.32965,0.07654 0.74829,-0.16934 1.08021,-0.49222c0.47454,-0.46159 0.98286,-1.33085 1.42823,-1.27244c0.0675,0.00885 -0.00313,0.84895 -0.23669,1.39822c-0.49535,1.16485 -1.43304,1.90331 -1.57897,1.88828c-0.58304,-0.06004 -0.33811,-0.56433 -1.52233,-0.66847c-0.67449,-0.05929 -2.3008,0.45655 -2.92062,0.17425c-1.17743,-0.76039 -1.34989,-1.86764 -1.34472,-2.58677c0.01553,-2.16098 1.39174,-2.55849 1.82494,-2.44642c1.99423,0.51585 2.04338,2.25286 2.55424,3.28522z" data-paper-data="{&quot;index&quot;:null}" fill="#ffffff" stroke="none" stroke-width="0" stroke-linecap="butt" stroke-linejoin="miter"/><g data-paper-data="{&quot;index&quot;:null}" stroke="none" stroke-linecap="butt" stroke-linejoin="miter"><path d="M241.39128,171.83447c0.22833,0.04712 0.2954,0.65744 0.14981,1.3632c-0.14561,0.70575 -0.44877,1.23968 -0.67708,1.1926c-0.22833,-0.04711 -0.29539,-0.65742 -0.1498,-1.36318c0.1456,-0.70577 0.44876,-1.2397 0.67707,-1.19262z" fill="#169c5b" stroke-width="NaN"/><path d="M241.21142,172.73781c0.10034,0.0207 0.13234,0.27645 0.07154,0.57123c-0.06078,0.29479 -0.19141,0.517 -0.29175,0.49629c-0.10034,-0.0207 -0.13234,-0.27645 -0.07154,-0.57123c0.06078,-0.29479 0.19141,-0.517 0.29175,-0.49629z" fill="#000000" stroke-width="0"/><path d="M241.13308,172.57934c0.06152,-0.29823 0.20956,-0.51976 0.33064,-0.49477c0.12108,0.02499 0.16937,0.28699 0.10783,0.58525c-0.06152,0.29824 -0.20956,0.51976 -0.33064,0.49477c-0.12108,-0.02499 -0.16937,-0.28698 -0.10783,-0.58524z" fill="#ffffff" stroke-width="0"/></g><g data-paper-data="{&quot;index&quot;:null}" stroke="none" stroke-linecap="butt" stroke-linejoin="miter"><path d="M244.03047,173.98357c0.10268,-0.49779 0.31648,-0.8744 0.47754,-0.84118c0.16106,0.03323 0.20834,0.4637 0.10566,0.96151c-0.10269,0.49779 -0.31649,0.87441 -0.47755,0.84119c-0.16106,-0.03323 -0.20833,-0.4637 -0.10565,-0.96151z" fill="#169c5b" stroke-width="NaN"/><path d="M244.1754,174.12959c0.04289,-0.20793 0.13502,-0.36465 0.20578,-0.35003c0.07078,0.0146 0.09337,0.19498 0.05047,0.4029c-0.04291,0.20793 -0.13504,0.36466 -0.2058,0.35004c-0.07078,-0.01461 -0.09337,-0.19499 -0.05047,-0.40291z" fill="#000000" stroke-width="0"/><path d="M244.32588,173.66775c0.04342,-0.21035 0.14781,-0.36661 0.23323,-0.34899c0.08543,0.01763 0.11946,0.20245 0.07607,0.4128c-0.04341,0.21035 -0.14781,0.36659 -0.23323,0.34897c-0.08541,-0.01763 -0.11945,-0.20243 -0.07606,-0.41278z" fill="#ffffff" stroke-width="0"/></g><path d="M239.80391,175.55616c0,0 -0.56755,-0.08601 -0.76088,-0.13478c-0.19332,-0.04878 -0.50029,-0.24141 -0.50029,-0.24141" data-paper-data="{&quot;index&quot;:null}" fill="none" stroke="#000000" stroke-width="0.125" stroke-linecap="round" stroke-linejoin="miter"/><path d="M238.69899,170.35361c0,0 -0.48765,-0.13108 -0.83501,-0.40534c-0.34734,-0.27427 -0.7337,-0.94194 -0.7337,-0.94194c0,0 0.50686,0.53445 0.9058,0.77258c0.39894,0.23812 0.88616,0.29119 0.88616,0.29119l-0.22326,0.28348z" data-paper-data="{&quot;index&quot;:null}" fill="#000000" stroke="none" stroke-width="0" stroke-linecap="butt" stroke-linejoin="miter"/><path d="M237.25789,171.03659c-0.43064,-0.10208 -1.21697,-0.56598 -1.21697,-0.56598c0,0 0.87462,0.4152 1.33678,0.46277c0.46217,0.04757 1.1336,-0.1858 1.1336,-0.1858l-0.09094,0.33778c0,0 -0.73184,0.05332 -1.16248,-0.04877z" data-paper-data="{&quot;index&quot;:null}" fill="#000000" stroke="none" stroke-width="0" stroke-linecap="butt" stroke-linejoin="miter"/><path d="M242.0703,178.17439c0.05314,0.62121 -0.09044,1.66153 -0.09044,1.66153l-3.36391,-0.28606l0.30078,-0.96479l0.3589,-2.2329c0,0 0.70189,0.1787 1.15964,0.24552c0.45776,0.0668 1.14992,0.09162 1.14992,0.09162c0,0 0.43195,0.86387 0.48512,1.48508z" data-paper-data="{&quot;index&quot;:null}" fill="#6d3b75" stroke="none" stroke-width="0" stroke-linecap="butt" stroke-linejoin="miter"/><path d="M241.7772,180.36502c0,0 -0.48666,-1.06818 -0.51338,-1.59672c-0.00476,-0.09462 -0.00343,-0.28339 -0.00343,-0.28339c0,0 0.11761,-0.28217 0.86204,-0.71681c0.1631,-0.09525 0.08579,-0.19022 0.14741,-0.40236c0.01946,-0.06699 -0.16011,-0.41231 -0.16011,-0.41231c0,0 0.1393,-0.04407 0.20064,0.05842c0.0533,0.57713 -0.09083,1.73922 -0.09083,1.73922l0.22621,1.1795z" data-paper-data="{&quot;index&quot;:null}" fill="#efe6e6" stroke="none" stroke-width="0" stroke-linecap="butt" stroke-linejoin="miter"/><path d="M238.01379,180.03839l0.84092,-1.46197c0,0 0.02237,-1.89308 0.35704,-2.20701c0.08711,-0.08172 0.59453,0.10505 0.59453,0.10505c0,0 0.17366,0.058 0.13744,0.369c-0.00739,0.06361 -0.23547,0.32047 -0.23515,0.39025c0.00102,0.22089 0.06658,0.34906 0.19729,0.4854c0.59656,0.62228 0.63219,0.9259 0.63219,0.9259c0,0 -0.05053,0.1819 -0.0811,0.27156c-0.17079,0.50089 -0.84217,1.37272 -0.84217,1.37272z" data-paper-data="{&quot;index&quot;:null}" fill="#efe6e6" stroke="none" stroke-width="0" stroke-linecap="butt" stroke-linejoin="miter"/><path d="M239.99208,176.77512l-0.63191,-0.08555l0.29101,-0.25885c0,0 0.67465,0.13443 0.74416,0.16929c0.10496,0.09594 0.17454,0.51841 0.20292,0.89296c0.02333,0.30753 -0.00035,1.16041 -0.00035,1.16041c0,0 -0.11368,-0.16702 -0.24292,-0.32194c-0.18693,-0.22407 -0.39317,-0.43127 -0.52001,-0.64902c-0.21716,-0.39525 0.15714,-0.90732 0.15714,-0.90732z" data-paper-data="{&quot;index&quot;:null}" fill="#fd4275" stroke="none" stroke-width="0" stroke-linecap="butt" stroke-linejoin="miter"/><path d="M239.8095,179.91198c0,0 0.58953,-0.78197 0.60147,-1.27203c0.00808,-0.3322 -0.90817,-1.23396 -0.90817,-1.23396l0.17487,-0.08836c0,0 0.88521,1.00875 0.87362,1.31241c-0.02194,0.57509 -0.59921,1.32039 -0.59921,1.32039z" data-paper-data="{&quot;index&quot;:null}" fill="#fed000" stroke="none" stroke-width="0" stroke-linecap="butt" stroke-linejoin="miter"/><path d="M239.61403,177.32287l0.29647,-0.50148l-0.74759,-0.08689l0.3145,-0.35315l0.18039,0.06145l-0.23239,0.18748l0.66003,0.09729l-0.27662,0.59093l0.76085,0.9759c0,0 0.05569,0.14855 0.04449,0.21083c-0.0112,0.0623 -0.09127,0.27416 -0.09127,0.27416c0,0 0.00594,-0.1667 -0.05734,-0.33863c-0.0618,-0.16791 -0.19204,-0.33999 -0.2625,-0.43255c-0.16619,-0.2183 -0.58903,-0.68534 -0.58903,-0.68534z" data-paper-data="{&quot;index&quot;:null}" fill="#fff9f9" stroke="none" stroke-width="0" stroke-linecap="butt" stroke-linejoin="miter"/><path d="M239.12171,176.79543l0.05401,-0.06952l0.72254,0.10109l-0.02928,0.05084z" data-paper-data="{&quot;index&quot;:null}" fill="#fed000" stroke="none" stroke-width="0" stroke-linecap="butt" stroke-linejoin="miter"/><g stroke="none" stroke-width="0" stroke-linecap="butt" stroke-linejoin="miter"><path d="M239.92679,176.6746c0.43774,1.09861 0.75207,2.4423 0.92276,3.33799c0.24403,1.28056 0.49893,2.41398 0.49893,2.41398c0,0 -0.45563,0.29652 -0.77496,0.23879c-0.31935,-0.05771 -0.42797,-0.03457 -0.42797,-0.03457c0,0 -0.31084,-2.03008 -0.4093,-2.5467c-0.16148,-0.84742 -0.41009,-1.913 -0.71977,-3.12526c-0.0776,-0.30377 0.03596,-0.52046 0.34249,-0.61226c0.20594,-0.06167 0.4229,-0.03575 0.56785,0.32803z" data-paper-data="{&quot;index&quot;:null}" fill="#4c2b5c"/><path d="M239.92679,176.6746c0.31798,0.79807 0.75084,2.5165 0.75084,2.5165l-0.82104,1.60009c0,0 -0.09292,-0.56323 -0.12033,-0.70708c-0.16148,-0.84742 -0.41009,-1.913 -0.71977,-3.12526c-0.0776,-0.30377 0.03596,-0.52046 0.34249,-0.61226c0.20594,-0.06167 0.4229,-0.03575 0.56785,0.32803z" data-paper-data="{&quot;index&quot;:null}" fill="#edbb82"/></g><path d="M240.89515,177.22994l-0.385,-0.36539c0,0 -0.02387,-0.08781 -0.04655,-0.13812c-0.02267,-0.05031 -0.04715,-0.12039 -0.04715,-0.12039c0,0 0.37892,0.03966 0.57124,0.05452c0.19525,0.0151 0.59162,0.03532 0.59162,0.03532z" data-paper-data="{&quot;index&quot;:null}" fill="#fff9f9" stroke="none" stroke-width="0" stroke-linecap="butt" stroke-linejoin="miter"/><path d="M240.89919,176.97173l-0.37739,-0.35816l0.76433,0.06623z" data-paper-data="{&quot;index&quot;:null}" fill="#fd4275" stroke="none" stroke-width="0" stroke-linecap="butt" stroke-linejoin="miter"/><path d="M242.09769,176.93551c0,0 0.30858,0.36741 0.02653,0.71929c-0.16248,0.19262 -0.42953,0.56269 -0.6523,0.75117c-0.15401,0.13032 -0.29479,0.27525 -0.29479,0.27525c0,0 0.12372,-0.84422 0.19969,-1.1431c0.09254,-0.36407 0.12124,-0.76482 0.24115,-0.84121c0.07446,-0.02234 0.50054,-0.0607 0.50054,-0.0607l0.5943,0.2614z" data-paper-data="{&quot;index&quot;:null}" fill="#fd4275" stroke="none" stroke-width="0" stroke-linecap="butt" stroke-linejoin="miter"/><path d="M241.58968,180.07022c0,0 -0.44012,-0.83367 -0.36258,-1.40394c0.04095,-0.30111 1.0868,-1.14213 1.0868,-1.14213l0.0252,0.06393c0,0 -0.92621,0.78355 -0.9755,1.11216c-0.07271,0.48478 0.37316,1.35669 0.37316,1.35669z" data-paper-data="{&quot;index&quot;:null}" fill="#fed000" stroke="none" stroke-width="0" stroke-linecap="butt" stroke-linejoin="miter"/><path d="M242.37565,177.5403c0,0 -0.49703,0.38713 -0.69838,0.57351c-0.08536,0.07901 -0.2433,0.22607 -0.33314,0.3808c-0.09198,0.15847 -0.11488,0.3237 -0.11488,0.3237c0,0 -0.04235,-0.22248 -0.04263,-0.28577c-0.00028,-0.06328 0.08019,-0.20001 0.08019,-0.20001l0.91772,-0.83012l-0.17059,-0.62978l0.66693,0.01797l-0.61917,-0.27498l0.43198,-0.07948l0.49335,0.40711l-0.81694,0.05199l0.20557,0.54509z" data-paper-data="{&quot;index&quot;:null}" fill="#fff9f9" stroke="none" stroke-width="0" stroke-linecap="butt" stroke-linejoin="miter"/><g data-paper-data="{&quot;index&quot;:null}" stroke="none" stroke-linecap="butt" stroke-linejoin="miter"><path d="M242.13118,183.1508c0,0 0.90492,1.17848 1.33729,1.95355c0.06887,0.1235 -0.08291,1.20994 -0.22289,1.68437c-0.07645,0.25913 -0.21576,0.74282 -0.6671,0.79132c-0.11505,0.01236 -0.63498,-0.20699 -0.63498,-0.20699l-0.3176,0.30105c0,0 -0.25921,0.02716 -0.40256,-0.03892c-0.14333,-0.06608 -0.34231,-0.28248 -0.34231,-0.28248c0,0 -0.17713,0.02661 -0.29757,0.07089c-0.39309,0.14457 -0.56033,-0.21081 -0.56033,-0.21081c0,0 -0.27314,0.13752 -0.49232,0.10475c-0.34744,-0.05193 -0.71918,-0.30614 -0.86516,-0.50209c-0.24797,-0.33284 -0.70095,-1.39754 -0.45057,-1.692c0.38997,-0.45864 0.89494,0.08437 0.89494,0.08437c0,0 -0.1387,-0.61293 -0.02053,-0.97449c0.18194,-0.55673 0.50078,-0.76263 0.50078,-0.76263l2.54101,-0.31988z" data-paper-data="{&quot;index&quot;:null}" fill="#f44a7d" stroke-width="0"/><path d="M239.96862,186.1002l0.33357,-0.38901l0.38901,0.33357l-0.33357,0.38901z" data-paper-data="{&quot;index&quot;:null}" fill="#baba3e" stroke-width="NaN"/><path d="M240.95119,186.11826l0.33357,-0.38901l0.38901,0.33357l-0.33357,0.38901z" data-paper-data="{&quot;index&quot;:null}" fill="#baba3e" stroke-width="NaN"/><path d="M242.02665,186.12916l0.33357,-0.38901l0.38901,0.33357l-0.33357,0.38901z" data-paper-data="{&quot;index&quot;:null}" fill="#baba3e" stroke-width="NaN"/><path d="M243.25783,186.5253l-0.06644,-0.36526l0.16649,-0.34327l0.42894,0.43037z" data-paper-data="{&quot;index&quot;:null}" fill="#baba3e" stroke-width="0"/><g stroke-width="0"><path d="M239.31199,183.06723c-0.09838,-1.06015 0.60689,-1.2492 1.46867,-1.31534c0.8618,-0.06613 1.57071,0.01439 1.65217,1.07587c0.08145,1.06145 -0.60689,1.2492 -1.46867,1.31534c-0.8618,0.06613 -1.55382,-0.01595 -1.65217,-1.07587z" data-paper-data="{&quot;index&quot;:null}" fill="#fed000"/><path d="M238.83934,183.10349c-0.08854,-0.86451 0.83536,-1.04551 1.95821,-1.13168c1.12285,-0.08617 2.04151,-0.04656 2.10797,0.81964c0.06647,0.86621 -0.83536,1.04551 -1.95821,1.13168c-1.12285,0.08617 -2.01945,0.04464 -2.10797,-0.81964z" data-paper-data="{&quot;index&quot;:null}" fill="#e68b9c"/></g></g><path d="M245.04002,169.63757c-0.02505,0.01508 0.95538,-0.84051 2.65954,-0.1606c0.30344,0.12297 1.52168,0.24552 1.67991,1.0216c0.22472,0.71719 1.15207,0.95749 1.13628,0.9536c-0.02264,-0.00566 -2.05581,-0.65205 -3.0299,-1.18857c-0.53187,-0.29294 -2.37423,0.51587 -2.40721,0.53572" data-paper-data="{&quot;index&quot;:null}" fill="#f79eb4" stroke="#f89db5" stroke-width="0" stroke-linecap="butt" stroke-linejoin="round"/><path d="M244.18888,169.60451c0.02059,-0.08099 0.99152,-1.60861 1.3051,-1.82014c0.31358,-0.21153 0.8088,-0.4543 1.4118,-0.40112c2.02423,0.37797 3.92359,0.86623 3.92359,0.86623c0,0 -1.68722,0.38766 -2.44781,0.42279c-1.05524,0.04875 -3.22555,0.94834 -3.34012,1.01649" data-paper-data="{&quot;index&quot;:null}" fill="#f79eb4" stroke="#f89db5" stroke-width="0" stroke-linecap="butt" stroke-linejoin="round"/><path d="M245.0036,170.87948c-0.03611,-0.03512 0.95885,-0.46705 1.74075,0.14651c0.22463,0.17627 1.37544,0.77755 1.33759,0.92376c-0.06013,0.60749 0.73659,1.41982 0.73833,1.4189c0.03796,-0.01965 -1.39359,-0.29035 -1.92416,-1.22901c-0.18026,-0.31465 -1.91358,-0.23746 -2.01576,-0.33697" data-paper-data="{&quot;index&quot;:null}" fill="#f79eb4" stroke="#f89db5" stroke-width="0" stroke-linecap="butt" stroke-linejoin="round"/></g></g></svg>