<svg version="1.1" xmlns="http://www.w3.org/2000/svg" xmlns:xlink="http://www.w3.org/1999/xlink" width="27.10858" height="34.52472" viewBox="0,0,27.10858,34.52472"><g transform="translate(-223.5125,-165.96548)"><g data-paper-data="{&quot;isPaintingLayer&quot;:true}" fill-rule="nonzero" stroke-miterlimit="10" stroke-dasharray="" stroke-dashoffset="0" style="mix-blend-mode: normal"><path d="M238.92537,180.80595c-0.26708,-0.38154 0.19882,-0.84992 0.19566,-1.67068c-0.00931,-0.71765 0.05758,-1.42384 0.31392,-1.69625c0.07907,-0.08398 0.58519,-0.13011 0.69208,-0.13011c0.13502,0 0.69341,-0.11068 0.92694,0.32006c0.05994,0.11077 0.34246,0.65781 0.28916,0.83016c-0.05605,0.18218 0.07743,0.60421 0.05451,0.76215c-0.07242,0.49876 -0.1659,0.61373 -0.18319,0.92755c-0.02199,0.39718 0.02077,0.17052 -0.19567,0.41334c0,0 -1.77222,0.58675 -2.09341,0.24378z" data-paper-data="{&quot;index&quot;:null}" fill="#319a2b" stroke="none" stroke-width="0.17188" stroke-linecap="butt" stroke-linejoin="miter"/><g data-paper-data="{&quot;index&quot;:null}" stroke="none" stroke-linecap="butt" stroke-linejoin="miter"><path d="M240.88423,177.78924c0.23367,0.22191 0.48934,0.59099 0.71114,1.05442c0.2218,0.46332 0.36813,0.93402 0.42556,1.32019c0.05733,0.38617 0.02564,0.68771 -0.10879,0.81291c-0.13434,0.12511 -0.34622,0.05028 -0.57999,-0.17163c-0.23366,-0.2219 -0.48922,-0.59099 -0.71103,-1.05442c-0.2218,-0.46332 -0.36824,-0.93402 -0.42556,-1.32019c-0.05743,-0.38617 -0.02563,-0.68771 0.1087,-0.81281c0.13444,-0.12521 0.34631,-0.05038 0.57997,0.17153z" fill="#eb3d66" stroke-width="0.01872"/><path d="M240.67115,177.91834c0.06281,-0.05481 0.16585,-0.02353 0.28156,0.07135c0.11582,0.09487 0.24429,0.25334 0.35796,0.4528c0.11377,0.19946 0.19123,0.40245 0.22463,0.56927c0.03339,0.16692 0.02273,0.29763 -0.04007,0.35243c-0.06269,0.0549 -0.16576,0.02353 -0.28157,-0.07134c-0.11582,-0.09487 -0.24429,-0.25333 -0.35795,-0.45269c-0.11366,-0.19946 -0.19123,-0.40255 -0.22462,-0.56936c-0.03339,-0.16691 -0.02272,-0.29752 0.04009,-0.35243z" fill="#ffffff" stroke-width="0.01896"/></g><path d="M239.06382,180.50812c0,0 0.75172,0.15789 1.28947,0.15789c0.53775,0 0.75493,-0.34217 0.91118,-0.04276c0.08069,0.15462 -0.4798,0.49821 -1.01645,0.46382c-0.97525,-0.0625 -1.4919,-0.34818 -1.4919,-0.34818z" data-paper-data="{&quot;index&quot;:null}" fill="#ead42f" stroke="none" stroke-width="0" stroke-linecap="butt" stroke-linejoin="miter"/><g data-paper-data="{&quot;index&quot;:null}" stroke-width="0" stroke-linecap="butt" stroke-linejoin="miter"><g data-paper-data="{&quot;index&quot;:null}"><path d="M243.84889,170.62678c-0.94641,0.49356 -2.11227,0.12927 -2.60402,-0.81367c-0.49176,-0.94294 -0.12319,-2.10745 0.82322,-2.60101c0.94641,-0.49356 2.11229,-0.12928 2.60404,0.81366c0.49176,0.94294 0.12317,2.10746 -0.82324,2.60102z" fill="#e0cb17" stroke="none"/><path d="M244.37366,168.89773c0.30381,0.58255 0.07611,1.30198 -0.50859,1.60691c-0.5847,0.30493 -1.30496,0.07986 -1.60877,-0.50269c-0.30381,-0.58256 -0.0761,-1.30198 0.5086,-1.60691c0.58471,-0.30493 1.30496,-0.07986 1.60877,0.50269z" fill="#e0cb17" stroke="#000000"/><path d="M244.16388,171.01967c-0.51916,0.26782 -1.32318,0.28825 -1.32318,0.28825l0.0238,-0.56493c0,0 0.7197,-0.00017 1.11046,-0.233c0.39078,-0.23283 0.76101,-0.88208 0.76101,-0.88208l0.50822,0.50348c0,0 -0.62595,0.6539 -1.08031,0.88829z" fill="#dbded5" stroke="#000000"/></g><g data-paper-data="{&quot;index&quot;:null}" stroke="none"><path d="M240.52788,177.14744c0.17838,-0.09303 0.47952,0.13172 0.67262,0.50198c0.19308,0.37025 0.20501,0.74583 0.02663,0.83886c-0.17838,0.09302 -0.47951,-0.13173 -0.67261,-0.50199c-0.1931,-0.37026 -0.20503,-0.74582 -0.02665,-0.83885z" fill="#000000"/><path d="M240.91113,178.39419l-0.23425,-0.23031l1.58836,-7.47985l0.18655,0.07326z" fill="#6e6e73"/><path d="M242.00486,171.38831l0.44524,0.13164l-0.41139,1.74952l-0.41834,-0.14568z" fill="#ddcb1e"/></g></g><g data-paper-data="{&quot;index&quot;:null}" stroke-width="0" stroke-linecap="butt" stroke-linejoin="miter"><g data-paper-data="{&quot;index&quot;:null}"><path d="M227.13257,176.05275c-1.21409,0.63316 -2.7097,0.16584 -3.34053,-1.04379c-0.63083,-1.20963 -0.15801,-2.70351 1.05608,-3.33667c1.2141,-0.63316 2.70971,-0.16583 3.34054,1.0438c0.63083,1.20963 0.15801,2.70351 -1.05608,3.33667z" fill="#e0cb17" stroke="none"/><path d="M224.92843,175.33524c-0.38973,-0.74732 -0.09761,-1.67023 0.65245,-2.0614c0.75007,-0.39117 1.67405,-0.10246 2.06378,0.64486c0.38973,0.74731 0.09763,1.67024 -0.65243,2.06141c-0.75007,0.39116 -1.67407,0.10245 -2.0638,-0.64487z" fill="#e0cb17" stroke="#000000"/><path d="M227.31459,176.67259c-0.58018,0.30584 -1.72762,0.48418 -1.72762,0.48418l-0.15647,-0.90429c0,0 0.95481,0.08726 1.48665,-0.15284c0.53185,-0.2401 1.06045,-0.99706 1.06045,-0.99706l0.61174,0.38977c0,0 -0.61183,0.83078 -1.27474,1.18023z" fill="#dbded5" stroke="#000000"/></g><g data-paper-data="{&quot;index&quot;:null}" stroke="none"><path d="M236.45181,180.15987c-0.01369,-0.47128 -0.89291,-2.79431 0.26965,-3.35683c0.18043,-0.08731 2.15163,0.34835 2.8436,1.16791c0.94128,1.11483 0.63709,2.72727 0.63709,2.72727l-2.77124,1.42335c0,0 -0.96543,-1.49043 -0.97912,-1.9617z" fill="#e4dcaa"/><path d="M236.43026,177.34704c0.22884,-0.11933 0.61516,0.16897 0.86287,0.64396c0.24771,0.47499 0.263,0.95679 0.03417,1.07613c-0.22883,0.11934 -0.61514,-0.16898 -0.86285,-0.64397c-0.24772,-0.475 -0.26302,-0.95678 -0.03419,-1.07612z" fill="#000000"/><path d="M238.57594,183.98781c-0.52262,-0.6833 -1.15476,-1.8774 -1.15476,-1.8774c0,0 0.34254,-0.56801 0.61591,-0.83178c0.27337,-0.26377 0.78453,-0.58846 0.78453,-0.58846l1.45461,0.12658c0,0 1.56458,2.55374 1.75295,2.88707c0.37936,0.6713 -0.62108,1.84083 -0.62108,1.84083l-1.27006,0.11794c0,0 -1.0395,-0.99149 -1.56213,-1.67479z" fill="#dfcc17"/><path d="M241.30952,185.54107c0,0 -0.39,-2.90342 -0.15163,-3.02773c0.23837,-0.12431 1.48641,0.53428 1.5954,0.74327c0.109,0.209 0.42487,1.79131 0.1865,1.91562c-0.23837,0.12432 -1.63027,0.36887 -1.63027,0.36887z" fill="#807d5a"/><path d="M228.29568,174.67893l0.05992,-0.25004l9.03449,3.82121l0.07029,0.4155z" fill="#6e6e73"/><path d="M231.39552,175.54194l-0.15391,0.54702l-2.14243,-0.85181l0.18845,-0.56503z" fill="#ddcb1e"/></g></g><g data-paper-data="{&quot;index&quot;:null}" stroke="none" stroke-width="0" stroke-linecap="butt" stroke-linejoin="miter"><g><path d="M246.23719,198.58905c0,0 1.87525,-1.47054 2.50458,-2.30186c0.51008,-0.67382 0.98933,-2.31361 0.98933,-2.31361c0,0 0.82431,0.36633 0.88955,1.88741c0.01835,0.42777 -0.56192,0.91337 -0.56192,0.91337l-0.94119,0.28365c0,0 -0.65857,1.14644 -1.13507,1.51503c-0.80272,0.62094 -1.45947,1.04617 -2.55362,1.19334c-1.09415,0.14717 -0.70755,-0.75473 -0.70755,-0.75473l1.51588,-0.42262z" fill="#393939"/><path d="M244.21662,191.55939l2.64679,-1.48378l0.39211,0.6062l-0.14193,0.13102c0,0 0.28205,0.08741 0.33143,0.14605c0.21629,0.25689 0.07061,0.29054 0.07061,0.29054c0,0 0.50915,0.07492 0.80498,0.3362c0.29583,0.26127 0.71197,0.56857 0.9791,1.06692c0.26712,0.49833 0.42029,1.54376 0.42029,1.54376c0,0 0.22253,2.17985 -3.08501,4.28348c-0.97887,0.62256 -1.64248,0.53139 -1.64248,0.53139c0,0 -0.73206,-1.42385 -0.78685,-2.49409c0.14338,-0.99598 0.15952,-1.4584 0.17728,-1.88818c0.01444,-0.34929 -0.06135,-1.25257 -0.06135,-1.25257l-0.13981,-0.39798l0.03767,-0.36007z" fill="#f01a40"/><path d="M244.07849,188.31328c0.38776,-0.19507 2.2857,-0.23924 2.34126,0.39257c0.07757,0.88205 0.0282,0.31752 0.12291,0.64297c0.0947,0.32546 0.53795,0.25934 0.27324,0.7183c-0.21624,0.37493 -0.43267,0.89024 -0.97464,1.16314c-1.03096,0.38013 -1.36879,0.42385 -1.87055,0.29872c-0.3366,-0.08395 -0.42739,-0.89021 -0.42739,-0.89021c0,0 -0.6403,-0.27282 -0.73431,-0.55609c-0.094,-0.28327 0.48183,-1.37319 1.26947,-1.76941z" fill="#ffffff"/><path d="M244.98697,192.42339c-0.05253,-0.31313 -0.38422,-0.8262 -0.38422,-0.8262l1.36844,-0.481l0.28871,0.94581l-0.12001,0.38202l0.05534,0.3409c0,0 0.01661,1.04161 0.20597,2.20519c0.10366,0.43703 1.05781,2.95528 1.05781,2.95528c0,0 -0.92984,0.67596 -1.16977,0.78486c-0.23322,0.10585 -0.73348,0.24271 -0.73348,0.24271c0,0 -0.53938,-1.37884 -0.7247,-2.369c-0.15048,-0.80393 0.27519,-3.52729 0.27519,-3.52729c0,0 -0.10943,-0.59436 -0.1193,-0.65326z" fill="#ffffff"/></g><path d="M245.79252,188.94297c0.11701,0.36625 -0.29197,0.82412 -0.91349,1.02269c-0.62152,0.19856 -1.22021,0.06261 -1.33722,-0.30364c-0.11701,-0.36625 0.29197,-0.82412 0.91349,-1.02267c0.62152,-0.19856 1.2202,-0.06262 1.33722,0.30364z" fill="#afafaf"/></g><path d="M243.54251,183.86171l1.33746,3.1946l0.75851,2.11394c0,0 -0.20373,0.3724 -0.37198,0.57426c-0.16824,0.20184 -0.51907,0.34921 -0.51907,0.34921l-0.90014,-2.12167l-1.40274,-3.47472z" data-paper-data="{&quot;index&quot;:null}" fill="#f79db4" stroke="none" stroke-width="0" stroke-linecap="butt" stroke-linejoin="miter"/><g data-paper-data="{&quot;index&quot;:null}" stroke="none" stroke-width="0" stroke-linecap="butt" stroke-linejoin="miter"><g><path d="M241.03537,199.42073l1.55627,0.23355c0,0 0.49428,0.84769 -0.60966,0.8358c-1.10394,-0.01189 -1.80789,-0.35339 -2.68069,-0.87121c-0.5181,-0.30739 -1.31228,-1.36441 -1.31228,-1.36441l-0.96886,-0.1661c0,0 -0.63545,-0.41076 -0.66969,-0.83756c-0.12178,-1.51759 0.6514,-1.98225 0.6514,-1.98225c0,0 0.67671,1.56865 1.26557,2.17483c0.72651,0.74791 2.76794,1.97738 2.76794,1.97738z" fill="#393939"/><path d="M242.3057,193.24765l0.08155,0.35273l-0.08996,0.41212c0,0 0.03555,0.90576 0.09271,1.25065c0.07033,0.42437 0.14305,0.88131 0.40748,1.85219c0.07685,1.06888 -0.47507,2.57175 -0.47507,2.57175c0,0 -0.64743,0.17184 -1.69525,-0.32599c-3.54053,-1.68218 -3.58697,-3.87285 -3.58697,-3.87285c0,0 0.0238,-1.05631 0.2278,-1.58364c0.20399,-0.52734 0.57931,-0.88336 0.84087,-1.17893c0.26155,-0.29559 0.75768,-0.43237 0.75768,-0.43237c0,0 -0.14869,-0.01553 0.03446,-0.297c0.04182,-0.06426 0.31103,-0.1856 0.31103,-0.1856l-0.15693,-0.11263l0.31482,-0.6497l2.80877,1.148z" fill="#f01a40"/><path d="M241.91776,188.95782c0.83025,0.29665 1.5354,1.30773 1.47685,1.60039c-0.05857,0.29265 -0.66059,0.64194 -0.66059,0.64194c0,0 0.00877,0.81131 -0.31499,0.9359c-0.48263,0.18572 -0.82328,0.18373 -1.89307,-0.06711c-0.57133,-0.20439 -0.84931,-0.68927 -1.10989,-1.03485c-0.319,-0.42301 0.12902,-0.41176 0.1831,-0.74638c0.05408,-0.33461 0.07432,0.23172 0.04314,-0.65319c-0.02234,-0.63387 1.86668,-0.82276 2.27543,-0.67671z" fill="#ffffff"/><path d="M241.52012,193.14833c-0.00258,0.05964 -0.03829,0.66296 -0.03829,0.66296c0,0 0.7564,2.65061 0.70564,3.46692c-0.06251,1.00541 -0.42874,2.43999 -0.42874,2.43999c0,0 -0.51326,-0.07448 -0.7577,-0.15094c-0.25148,-0.07866 -1.25719,-0.6355 -1.25719,-0.6355c0,0 0.63816,-2.61624 0.68745,-3.06268c0.04525,-1.17802 -0.06599,-2.21381 -0.06599,-2.21381l0.01313,-0.34511l-0.16594,-0.36442l0.17053,-0.97407l1.4171,0.30957c0,0 -0.26627,0.54987 -0.28001,0.86708z" fill="#ffffff"/></g><path d="M241.58375,189.32761c0.64118,0.12087 1.10323,0.52513 1.03201,0.90297c-0.07122,0.37783 -0.64872,0.58616 -1.2899,0.46531c-0.64118,-0.12086 -1.10323,-0.52511 -1.03201,-0.90295c0.07121,-0.37784 0.64872,-0.58618 1.2899,-0.46533z" fill="#afafaf"/></g><path d="M242.3047,184.85131l-0.40173,4.12104l-0.21019,1.79618c0,0 -0.55499,-0.09525 -0.80025,-0.21745c-0.24527,-0.12219 -0.53911,-0.44981 -0.53911,-0.44981l0.17641,-1.34105l0.44972,-3.74999z" data-paper-data="{&quot;index&quot;:null}" fill="#f79db4" stroke="none" stroke-width="0" stroke-linecap="butt" stroke-linejoin="miter"/><g data-paper-data="{&quot;index&quot;:null}" stroke="none" stroke-width="0" stroke-linecap="butt" stroke-linejoin="miter"><path d="M241.91424,182.86773c0,0 -1.17743,3.97999 -1.90298,4.36944c-0.78843,0.42319 -2.54588,0.25025 -2.54588,0.25025l2.07232,-1.21964l1.16643,-2.84365l1.21012,-0.55639z" fill="#f79db4"/><path d="M239.15511,178.62898l1.01164,-0.1097c0,0 0.46137,0.67201 0.49433,1.02947c0.03109,0.33716 -0.36976,1.09336 -0.36976,1.09336z" fill="#f25c76"/><path d="M247.69183,184.16061c0,0 -0.04348,0.84239 -3.00963,2.33666c-5.73504,2.25329 -6.81895,-0.82696 -6.81895,-0.82696l0.88851,-0.39001c0,0 2.69779,0.90338 4.51618,0.46899c1.81839,-0.43439 3.66519,-2.42341 3.66519,-2.42341z" fill="#ffffff"/><path d="M242.81579,178.25733c0.39946,0.52868 0.91236,2.02741 0.91236,2.02741c0,0 1.37633,1.09727 2.19137,1.87263c0.81505,0.77536 1.11679,1.27445 1.11679,1.27445c0,0 -0.55054,0.76651 -0.8249,1.04117c-0.27436,0.27467 -0.46077,0.54756 -2.0341,1.20464c-1.72236,0.71932 -2.68106,0.83239 -4.11298,0.68482c-1.5539,-0.16014 -1.27379,-1.38538 -1.27379,-1.38538l0.42712,-1.38122l0.42498,-0.54665l-0.00904,-0.17976l0.95886,-1.30708l-0.34395,-1.01458c0,0 0.31404,-0.51216 0.24381,-1.02775c-0.05564,-0.40844 -0.41294,-1.07033 -0.41294,-1.07033l0.89704,-0.85863l0.34323,-0.13636c0,0 1.13862,0.32946 1.49617,0.80265z" fill="#f01a40"/><path d="M238.74155,178.55364c0,0 1.05334,-0.33556 1.5118,-0.55655c0.45845,-0.22099 1.09827,-0.70157 1.09827,-0.70157c0,0 0.30507,0.6637 -0.86793,1.25125c-1.26111,0.63168 -1.74214,0.00686 -1.74214,0.00686z" fill="#afafaf"/></g><g stroke="none" stroke-width="0" stroke-linecap="butt" stroke-linejoin="miter"><path d="M240.84829,186.16402c0.28594,-0.8013 0.95476,-2.05889 0.95476,-2.05889l2.45306,-0.10026c0,0 0.33407,0.14413 0.59431,0.64167c0.16901,0.32312 0.135,0.92455 0.135,0.92455c0,0 0.39136,-0.5934 0.83274,-0.22161c0.2834,0.23873 0.02386,1.31713 -0.15785,1.67109c-0.10697,0.20837 -0.41811,0.50763 -0.73838,0.61181c-0.20205,0.06571 -0.48208,-0.02104 -0.48208,-0.02104c0,0 -0.10179,0.36251 -0.49634,0.28811c-0.12089,-0.0228 -0.29258,-0.01986 -0.29258,-0.01986c0,0 -0.15383,0.23611 -0.27889,0.32131c-0.12504,0.08519 -0.37444,0.1006 -0.37444,0.1006l-0.34799,-0.2343c0,0 -0.4568,0.28981 -0.56752,0.29634c-0.4344,0.02569 -0.64277,-0.40955 -0.75613,-0.64241c-0.20755,-0.42638 -0.52322,-1.4295 -0.47765,-1.55715z" data-paper-data="{&quot;index&quot;:null}" fill="#ffffff"/><path d="M244.37135,182.22231c0.27708,0.35602 0.61027,1.30787 0.14178,1.62461c-1.71144,1.15703 -2.75967,0.54673 -3.26552,-0.24319c-0.33039,-0.51595 -0.38011,-0.97259 1.05903,-1.65526c0.51098,-0.24237 1.78759,-0.0822 2.0647,0.27383z" fill="#fed000"/><path d="M243.10544,180.66627c0.19269,1.23474 0.46897,2.49495 0.46897,2.49495c0,0 -0.53852,-0.00258 -0.84261,-0.06812c-0.30411,-0.06554 -0.46604,-0.25616 -0.46604,-0.25616c0,0 -0.15152,-1.6398 -0.22928,-2.13792c-0.12751,-0.81709 -0.33149,-1.84597 -0.58929,-3.01738c-0.06461,-0.29352 0.05115,-0.49749 0.34777,-0.5756c0.19928,-0.05247 0.40633,-0.02067 0.53352,0.3325c0.38411,1.06662 0.64216,2.36409 0.77693,3.22772z" fill="#fed5c7"/></g><g><g data-paper-data="{&quot;index&quot;:null}"><path d="M238.61307,172.32881c0,0 -1.3375,-0.07536 -1.93242,0.72965c-0.96159,1.3012 0.50738,2.73956 0.50738,2.73956c0,0 -1.10146,-0.86316 -0.99421,-1.89754c0.07078,-0.68284 0.20957,-1.02629 0.82944,-1.37186c0.69459,-0.38723 1.5898,-0.19979 1.5898,-0.19979z" fill="#000000" stroke="none" stroke-width="0" stroke-linecap="butt" stroke-linejoin="miter"/><path d="M234.85764,168.96929c2.71081,-1.94808 6.27032,-1.63207 7.9504,0.70581c1.68008,2.33788 0.84451,5.81233 -1.86628,7.76041c-2.7108,1.94807 -6.27031,1.63207 -7.95039,-0.70581c-1.68008,-2.33788 -0.84453,-5.81235 1.86628,-7.76042z" fill="#f79eb4" stroke="none" stroke-width="0" stroke-linecap="butt" stroke-linejoin="miter"/><path d="M243.66458,171.20927c-0.00432,-0.01674 0.63881,0.82704 0.80996,2.35902c0.28276,2.46818 -0.88524,3.37861 -0.88524,3.37861l-0.30223,-0.90485c0,0 0.25419,-2.306 0.20667,-3.06913c-0.04752,-0.76313 -0.56874,-1.82693 -0.56848,-1.82624" fill="#f79eb4" stroke="#f89db5" stroke-width="0" stroke-linecap="butt" stroke-linejoin="round"/><g fill="#ffd5c5" stroke="none" stroke-width="1" stroke-linecap="round" stroke-linejoin="round"><path d="M243.52446,173.63015c0.40758,0.36548 0.30495,1.00626 0.16339,1.48708c-0.02317,0.07866 -0.20615,0.69309 -0.72018,1.40615c-0.64501,0.89471 -1.88177,1.53958 -2.23112,1.73297c-0.41668,0.2306 -1.40836,0.29298 -1.60034,0.25427c-1.38165,-0.27868 -1.08953,-1.10326 -1.05306,-1.22611c0.01742,-0.05858 0.17818,-0.2985 0.49984,-0.39627c0.31354,-0.0953 1.27634,-0.20944 1.50622,-0.38997c0.247,-0.19397 1.31974,-1.69172 2.05721,-2.22023c0.15443,-0.10823 0.39276,-0.20191 0.58516,-0.19408c0.25042,0.01026 0.663,0.07803 0.72955,-0.28452c0.01075,-0.0587 0.01889,-0.2091 0.06333,-0.16929z"/><path d=""/></g><g fill="#000000" stroke="#000000" stroke-width="0.25" stroke-linecap="butt" stroke-linejoin="round"><path d="M243.49031,173.50913c0.03853,-0.05336 0.29687,-0.20149 0.59419,-0.54233c0.18082,-0.22327 0.35973,-0.44835 0.518,-0.68801c0.09472,-0.14352 0.15223,-0.31449 0.25221,-0.45298c0.00339,-0.00472 -0.15466,0.37422 -0.2111,0.47731c-0.17687,0.32314 -0.35686,0.58679 -0.58436,0.87574c-0.04994,0.06346 -0.50249,0.52006 -0.51398,0.49806"/><path d="M243.43217,173.06549c0.03563,0.00575 0.31193,-0.17754 0.54185,-0.57287c0.2299,-0.39533 0.48832,-1.02692 0.48176,-1.0675c-0.00248,-0.01531 -0.21615,0.78619 -0.36281,1.08827c-0.14666,0.30206 -0.5676,0.77617 -0.57832,0.75566"/></g><g fill="#000000" stroke="none" stroke-width="1" stroke-linecap="round" stroke-linejoin="round"><path d="M242.23183,174.61076c0.05813,-0.17484 0.52189,-0.43605 0.63503,-0.43496c0.19571,0.00187 0.0324,0.4231 -0.06118,0.4813c-0.21489,0.11067 -0.65031,0.1837 -0.57385,-0.04634z"/><path d=""/></g><path d="M236.62649,175.31538c-0.01431,-0.055 1.02527,1.59764 1.55673,2.29994c1.00085,1.32252 1.91195,1.93408 1.91195,1.93408c0,0 -0.4273,0.01841 -0.53864,0.01036c-0.34392,-0.02481 -0.66136,-0.06615 -0.99887,-0.14991c-0.79385,-0.19707 -1.52017,-0.59477 -2.158,-1.10244c-0.42508,-0.33834 -1.89104,-2.10404 -1.88051,-2.12853" fill="#f79eb4" stroke="#f89db5" stroke-width="0" stroke-linecap="butt" stroke-linejoin="round"/><path d="M234.42393,176.20855c-0.00334,0.02043 1.87066,2.12276 2.44373,2.66924c0.57307,0.54647 1.62694,1.21244 1.62694,1.21244c0,0 -0.371,0.18849 -1.19561,0.004c-0.72812,-0.16292 -1.1196,-0.22928 -1.96173,-0.91362c-1.09277,-0.88801 -2.26532,-2.34369 -2.32915,-2.74046" fill="#f79eb4" stroke="#f89db5" stroke-width="0" stroke-linecap="butt" stroke-linejoin="round"/><g fill="#ee1a40" stroke="none" stroke-width="1" stroke-linecap="round" stroke-linejoin="round"><path d="M239.37408,168.79541c-0.10295,0.00513 -2.70686,0.16359 -3.83339,1.31201c-0.88789,0.90514 -1.1208,1.71071 -1.52428,3.09964c-0.31119,1.07114 0.16352,2.66243 0.14122,2.68949c-0.00159,0.00193 -2.12341,-3.52674 0.2793,-5.99837c1.9624,-1.97394 4.80116,-1.81018 4.94478,-1.76808"/><path d=""/></g><path d="M240.24206,169.52824c-0.00768,0.02821 0.37245,-1.25807 2.07399,-1.94447c0.3043,-0.12084 1.67234,0.30294 2.32307,0.75446c0.6581,0.36302 1.18628,1.46548 1.17218,1.47358c-0.02028,0.01156 -1.69154,-0.8994 -2.76634,-0.61391c-0.58686,0.15587 -1.96198,1.10614 -1.97209,1.14327" fill="#f79eb4" stroke="#f89db5" stroke-width="0" stroke-linecap="butt" stroke-linejoin="round"/><path d="M239.57598,170.05357c-0.04112,-0.07277 -0.32444,-1.8185 -0.24399,-2.1881c0.08044,-0.36962 0.06608,-0.58188 0.53865,-0.9602c1.7242,-1.12586 3.73921,-0.89346 3.73921,-0.89346c0,0 -1.40779,0.74484 -1.93322,1.29591c-0.72895,0.76456 -1.39056,2.08906 -1.42626,2.2175" fill="#f79eb4" stroke="#f89db5" stroke-width="0" stroke-linecap="butt" stroke-linejoin="round"/><g stroke="none" stroke-width="1" stroke-linecap="round" stroke-linejoin="round"><g fill="#f79eb4"><path d="M234.11945,173.75681c-0.22768,-0.27824 -0.72347,-0.68437 -1.1203,-1.23205c-0.39682,-0.54768 -0.8561,-1.28592 -0.85843,-1.49894c-0.00308,-0.27851 0.74867,-0.54698 1.60014,-0.7031c0.85147,-0.1561 2.08829,-0.09373 2.21312,0.00393"/></g><g fill="#ffd5c5"><path d="M234.32958,173.07693c-0.05806,-0.06276 -0.38167,-0.31452 -0.68564,-0.71215c-0.30397,-0.39762 -0.68771,-1.05017 -0.68645,-1.08275c0.00514,-0.13215 0.86666,-0.40065 1.3325,-0.47836c0.46586,-0.07772 1.03155,-0.01732 1.20621,0.05486"/></g></g><g fill="#f79eb4" stroke="none" stroke-width="1" stroke-linecap="round" stroke-linejoin="round"><path d="M238.46117,167.86429c0.18796,-0.24393 0.40147,-0.4832 0.9145,-0.90759c0.51303,-0.42439 1.145,-0.96058 1.38075,-0.99115c0.04829,-0.00624 0.51924,0.44883 0.74222,0.90699c0.34806,0.71513 0.45735,1.657 0.45794,1.67239"/><path d=""/></g><path d="M241.07405,170.45098c-0.05038,-0.00043 0.63744,-0.91539 1.62659,-1.01234c0.28415,-0.02786 1.51813,0.81262 1.59183,0.94443c0.3764,0.4806 0.78692,2.09156 0.78756,2.08969c0.01386,-0.04044 -0.93525,-0.80997 -1.96745,-1.12167c-0.34774,-0.10281 -1.34692,-0.14641 -1.48956,-0.14772" fill="#f79eb4" stroke="#f89db5" stroke-width="0" stroke-linecap="butt" stroke-linejoin="round"/><g fill="#000000" stroke="#000000" stroke-width="0.25" stroke-linecap="butt" stroke-linejoin="round"><path d="M238.04407,177.10459c0.00118,0.04351 -0.11573,0.14341 -0.31961,0.18622c-1.30898,0.27491 -1.65836,0.05591 -1.65836,0.05591c0,0 0.63996,0.17606 1.4796,-0.14268c0.16351,-0.06206 0.35912,-0.17628 0.39728,-0.20693c0.0364,-0.02925 0.04868,-0.08146 0.09934,-0.09557"/><path d="M238.14493,176.97948c0,0 -0.00453,0.05623 -0.08604,0.16776c-0.15115,0.2068 -0.65677,0.56564 -0.915,0.69851c-0.61576,0.31679 -1.06053,0.35525 -1.06053,0.35525c0,0 0.75905,-0.27104 0.98211,-0.38251c0.67071,-0.33979 0.90117,-0.85768 0.92653,-0.93529c0.0112,-0.03419 0.02617,-0.11758 0.0513,-0.14036"/></g><g fill="none" stroke="none" stroke-width="1" stroke-linecap="butt" stroke-linejoin="miter" font-family="sans-serif" font-weight="normal" font-size="12" text-anchor="start"/><g fill="none" stroke="none" stroke-width="1" stroke-linecap="butt" stroke-linejoin="miter" font-family="sans-serif" font-weight="normal" font-size="12" text-anchor="start"/><path d="M239.89049,177.61175" fill="none" stroke="#000000" stroke-width="0.25" stroke-linecap="round" stroke-linejoin="miter"/></g><path d="M241.83493,173.78563l0.74077,-2.32731" data-paper-data="{&quot;index&quot;:null}" fill="none" stroke="#e57e89" stroke-width="0.5" stroke-linecap="round" stroke-linejoin="miter"/><path d="M240.33218,174.87909l-3.46124,0.38731" fill="none" stroke="#e57e89" stroke-width="0.5" stroke-linecap="round" stroke-linejoin="miter"/><path d="M238.71783,176.18803l-0.15588,-2.61526" fill="none" stroke="#e57e89" stroke-width="0.5" stroke-linecap="round" stroke-linejoin="miter"/><path d="M243.10829,172.87694l-2.30828,-0.76744" fill="none" stroke="#e57e89" stroke-width="0.5" stroke-linecap="round" stroke-linejoin="miter"/></g><g data-paper-data="{&quot;index&quot;:null}" stroke="none" stroke-width="0" stroke-linecap="butt" stroke-linejoin="miter"><path d="M241.4925,172.40276c0,0 -0.80837,-0.92106 -0.84621,-1.62462c-0.03784,-0.70355 0.12934,-2.23869 0.83724,-2.79984c0.94334,-0.74778 0.51015,1.76351 0.51015,1.76351c0,0 0.33353,-0.30838 0.70848,-0.84831c0.66368,-0.95569 1.28848,-1.9741 1.61274,-1.91247c0.58153,0.11053 -0.55238,2.34303 -0.55238,2.34303c0,0 1.72907,-2.18283 2.09033,-1.9495c0.34931,0.22561 -0.93524,2.66368 -0.93524,2.66368c0,0 1.39974,-1.51961 1.88756,-1.48305c0.38143,0.36638 -1.11865,2.34341 -1.11865,2.34341c0,0 1.50064,-1.11814 1.91002,-0.97346c0.20691,0.24166 -0.80257,1.44082 -1.54332,2.2149c-0.74075,0.77408 -1.15328,0.94081 -1.46069,1.16486c-0.47334,0.345 -0.85237,0.32538 -0.85237,0.32538l-2.24769,-1.22754z" fill="#ffffff"/><path d="M241.88148,174.94485c-0.57328,-0.13915 -1.50273,-1.10743 -1.49347,-1.57797c0.00926,-0.47053 0.36437,-1.46077 0.95209,-1.40975c2.14693,0.18633 2.59565,1.36936 2.48681,2.34177c-0.07109,0.63514 -0.33071,1.03788 -1.94541,0.64595z" fill="#fed000"/><path d="M241.91357,174.52421c-0.49031,-0.2373 -0.79406,-0.62333 -0.67843,-0.8622c0.11562,-0.23889 0.60681,-0.24014 1.09711,-0.00283c0.49032,0.23731 0.79407,0.62333 0.67844,0.8622c-0.11563,0.23887 -0.60683,0.24014 -1.09714,0.00283z" fill="#c28830"/><path d="M239.49916,178.9404c0.28867,-1.14685 0.82089,-2.42005 1.20716,-3.24598c0.55226,-1.18086 1.00949,-2.2488 1.00949,-2.2488c0,0 0.54298,0.02652 0.768,0.26034c0.22503,0.23381 0.32664,0.2787 0.32664,0.2787c0,0 -0.93708,1.8275 -1.15987,2.30388c-0.36545,0.78143 -0.78807,1.79072 -1.24709,2.95467c-0.11502,0.29164 -0.33398,0.40079 -0.63619,0.29567c-0.20303,-0.07064 -0.36371,-0.21872 -0.26813,-0.59848z" fill="#fed5c7"/></g></g></g></svg>