<svg version="1.1" xmlns="http://www.w3.org/2000/svg" xmlns:xlink="http://www.w3.org/1999/xlink" width="25.50665" height="51.80047" viewBox="0,0,25.50665,51.80047"><g transform="translate(-224.04,-148.50669)"><g data-paper-data="{&quot;isPaintingLayer&quot;:true}" fill-rule="nonzero" stroke-miterlimit="10" stroke-dasharray="" stroke-dashoffset="0" style="mix-blend-mode: normal"><path d="M238.95654,182.27001c0,0 -2.88436,2.70534 -3.70777,2.71515c-0.89476,0.01065 -2.54056,-1.2345 -2.54056,-1.2345l2.56892,0.43515l2.34916,-1.98201l1.33025,0.06623z" data-paper-data="{&quot;index&quot;:null}" fill="#f79db4" stroke="none" stroke-width="0" stroke-linecap="butt" stroke-linejoin="miter"/><g data-paper-data="{&quot;index&quot;:null}" stroke-width="0" stroke-linecap="butt" stroke-linejoin="miter"><g data-paper-data="{&quot;index&quot;:null}"><path d="M247.61398,169.35598c-1.06737,0 -1.93265,-0.86211 -1.93265,-1.92557c0,-1.06346 0.86527,-1.92557 1.93265,-1.92557c1.06737,0 1.93267,0.86211 1.93267,1.92557c0,1.06346 -0.86529,1.92557 -1.93267,1.92557z" fill="#e0cb17" stroke="none"/><path d="M247.68482,169.25517c-0.65944,0 -1.194,-0.53261 -1.194,-1.18962c0,-0.65702 0.53456,-1.18962 1.194,-1.18962c0.65944,0 1.194,0.53261 1.194,1.18962c0,0.65701 -0.53456,1.18962 -1.194,1.18962z" fill="#e0cb17" stroke="#000000"/><path d="M247.1908,174.43478c0,0 -1.33147,-1.96747 -0.98611,-3.31958c0.33262,-1.3022 0.48585,-1.50522 0.48585,-1.50522l2.10321,0.01487c0,0 0.78596,1.09728 0.44156,2.13075c-0.34441,1.03347 -2.04451,2.67918 -2.04451,2.67918z" fill="#e8edf4" stroke="#000000"/><path d="M247.71161,169.85c-0.58416,-0.0026 -1.30651,-0.35626 -1.30651,-0.35626l0.28233,-0.4899c0,0 0.63821,0.33264 1.09235,0.30689c0.45415,-0.02575 1.08264,-0.43022 1.08264,-0.43022l0.21781,0.68142c0,0 -0.85738,0.29035 -1.36863,0.28808z" fill="#dbded5" stroke="#000000"/></g><g data-paper-data="{&quot;index&quot;:null}" stroke="none"><path d="M242.01843,174.35809c0,0.41758 -0.1631,0.75611 -0.36428,0.75611c-0.20118,0 -0.36426,-0.33852 -0.36426,-0.75611c0,-0.41759 0.16308,-0.75611 0.36426,-0.75611c0.20119,0 0.36428,0.33852 0.36428,0.75611z" fill="#000000"/><path d="M240.24874,178.87693c0.20956,0 0.98657,2.14736 0.98657,2.14736c0,0 -1.05021,0.33269 -1.25977,0.33269c-0.20955,0 -0.56158,-1.2075 -0.56158,-1.39124c0,-0.18374 0.62523,-1.0888 0.83479,-1.0888z" fill="#807d5a"/><path d="M241.41747,174.88466l-0.1012,-0.31253l4.86707,-5.89768l0.13154,0.15122z" fill="#6e6e73"/><path d="M245.6268,169.17851l0.33391,0.32261l-1.17375,1.36101l-0.30356,-0.32261z" fill="#ddcb1e"/></g></g><g data-paper-data="{&quot;index&quot;:null}" stroke-width="0" stroke-linecap="butt" stroke-linejoin="miter"><g data-paper-data="{&quot;index&quot;:null}"><path d="M226.40439,168.41604c0,-1.36425 1.11002,-2.47019 2.47929,-2.47019c1.36928,0 2.47929,1.10595 2.47929,2.47019c0,1.36425 -1.11002,2.47018 -2.47929,2.47018c-1.36927,0 -2.47929,-1.10594 -2.47929,-2.47018z" fill="#e0cb17" stroke="none"/><path d="M227.26111,169.23081c0,-0.84284 0.68578,-1.52608 1.53171,-1.52608c0.84594,0 1.5317,0.68324 1.5317,1.52608c0,0.84283 -0.68577,1.52609 -1.5317,1.52609c-0.84594,0 -1.53171,-0.68325 -1.53171,-1.52609z" fill="#e0cb17" stroke="#000000"/><path d="M226.80379,173.96454c-0.44181,-1.32577 0.56646,-2.7334 0.56646,-2.7334l2.69807,-0.01907c0,0 0.19657,0.26044 0.62326,1.93095c0.44304,1.73451 -1.26501,4.25845 -1.26501,4.25845c0,0 -2.18096,-2.11118 -2.62278,-3.43694z" fill="#e8edf4" stroke="#000000"/><path d="M228.75845,171.51997c-0.65585,0.00291 -1.75571,-0.36955 -1.75571,-0.36955l0.27941,-0.87416c0,0 0.80625,0.51889 1.38884,0.55192c0.5826,0.03303 1.40131,-0.39371 1.40131,-0.39371l0.36218,0.62847c0,0 -0.92665,0.45371 -1.67602,0.45702z" fill="#dbded5" stroke="#000000"/></g><g data-paper-data="{&quot;index&quot;:null}" stroke="none"><path d="M235.24759,178.83713c0.20578,-0.4242 0.50039,-2.89051 1.79131,-2.85171c0.20036,0.00602 1.7467,1.3038 1.98128,2.35045c0.3191,1.42374 -0.69622,2.71278 -0.69622,2.71278l-3.11533,-0.0194c0,0 -0.16684,-1.76794 0.03894,-2.19213z" fill="#e4dcaa"/><path d="M236.52915,176.33312c0.25809,0 0.46731,0.43427 0.46731,0.96997c0,0.5357 -0.20923,0.96997 -0.46731,0.96997c-0.25808,0 -0.46729,-0.43427 -0.46729,-0.96997c0,-0.53571 0.20921,-0.96997 0.46729,-0.96997z" fill="#000000"/><path d="M235.36093,183.21344c-0.14743,-0.84753 -0.15577,-2.1986 -0.15577,-2.1986c0,0 0.56637,-0.34524 0.93073,-0.45271c0.36436,-0.10747 0.96773,-0.159 0.96773,-0.159l1.23122,0.78486c0,0 0.2064,2.9878 0.21929,3.37045c0.02595,0.77064 -1.4019,1.34502 -1.4019,1.34502l-1.18066,-0.48271c0,0 -0.46323,-1.35979 -0.61066,-2.20732z" fill="#dfcc17"/><path d="M237.06647,185.85471c0,0 0.99676,-2.75471 1.2656,-2.75471c0.26884,0 1.0709,1.16105 1.0709,1.39676c0,0.23571 -0.45159,1.78475 -0.72043,1.78475c-0.26884,0 -1.61608,-0.42678 -1.61608,-0.42678z" fill="#807d5a"/><path d="M230.55023,170.20591l0.16875,-0.194l6.24365,7.56575l-0.12981,0.40092z" fill="#6e6e73"/><path d="M232.89971,172.4045l-0.38942,0.41386l-1.50574,-1.74595l0.42836,-0.41385z" fill="#ddcb1e"/></g></g><g data-paper-data="{&quot;index&quot;:null}" stroke="none" stroke-width="0" stroke-linecap="butt" stroke-linejoin="miter"><g><path d="M240.38899,199.18702l1.54229,0.3128c0,0 0.4503,0.87184 -0.65159,0.80353c-1.10189,-0.06831 -1.78746,-0.44535 -2.63264,-1.00712c-0.50171,-0.33347 -1.24081,-1.42972 -1.24081,-1.42972l-0.95911,-0.21541c0,0 -0.6136,-0.44272 -0.62598,-0.87071c-0.04403,-1.52184 0.75189,-1.94635 0.75189,-1.94635c0,0 0.59562,1.60119 1.15272,2.23669c0.68733,0.78405 2.66322,2.11629 2.66322,2.11629z" fill="#393939"/><path d="M241.97326,193.08692l0.0634,0.35644l-0.11091,0.40698c0,0 -0.0108,0.90638 0.02865,1.25374c0.04854,0.4274 0.0978,0.88747 0.31225,1.8706c0.02211,1.07141 -0.60594,2.5441 -0.60594,2.5441c0,0 -0.65536,0.13854 -1.67636,-0.41222c-3.4499,-1.86099 -3.38428,-4.05118 -3.38428,-4.05118c0,0 0.07778,-1.05371 0.30848,-1.56992c0.2307,-0.51622 0.62373,-0.85259 0.90006,-1.1344c0.27633,-0.28182 0.7788,-0.39306 0.7788,-0.39306c0,0 -0.14772,-0.02312 0.04959,-0.29486c0.04505,-0.06203 0.3201,-0.16945 0.3201,-0.16945l-0.15096,-0.1205l0.34762,-0.63276l2.7464,1.29012z" fill="#f01a40"/><path d="M241.80513,188.78288c0.81402,0.33871 1.46654,1.38452 1.3931,1.6738c-0.07345,0.28928 -0.69254,0.60733 -0.69254,0.60733c0,0 -0.03273,0.8107 -0.36244,0.91857c-0.49149,0.16079 -0.83159,0.14141 -1.88715,-0.1638c-0.56015,-0.23333 -0.81297,-0.73179 -1.05555,-1.09024c-0.29695,-0.43878 0.1499,-0.40463 0.22102,-0.73604c0.07112,-0.3314 0.06237,0.23521 0.07648,-0.65013c0.0101,-0.63417 1.90632,-0.72624 2.30707,-0.55948z" fill="#ffffff"/><path d="M241.19379,192.94758c-0.00563,0.05946 -0.07214,0.66014 -0.07214,0.66014c0,0 0.6199,2.68582 0.52747,3.49847c-0.11383,1.0009 -0.55293,2.41488 -0.55293,2.41488c0,0 -0.5088,-0.10063 -0.749,-0.18948c-0.24712,-0.09141 -1.22305,-0.69894 -1.22305,-0.69894c0,0 0.77108,-2.5802 0.84313,-3.02354c0.10542,-1.17416 0.04728,-2.21428 0.04728,-2.21428l0.03075,-0.34399l-0.1471,-0.37243l0.22013,-0.96408l1.39942,0.38162c0,0 -0.29405,0.53554 -0.32398,0.85163z" fill="#ffffff"/></g><path d="M240.14066,189.53391c0.09045,-0.3737 0.67784,-0.55223 1.312,-0.39876c0.63416,0.15346 1.07493,0.58082 0.98449,0.95452c-0.09044,0.37371 -0.67784,0.55224 -1.312,0.39877c-0.63416,-0.15348 -1.07493,-0.58084 -0.98449,-0.95454z" fill="#afafaf"/></g><path d="M241.51853,184.53089l0.04232,3.74693l-0.01442,2.30467c0,0 -0.38051,-0.00101 -0.61347,-0.12258c-0.23297,-0.12157 -0.56431,-0.3869 -0.56431,-0.3869l-0.11333,-2.24305l0.0052,-3.46327z" data-paper-data="{&quot;index&quot;:null}" fill="#f79db4" stroke="none" stroke-width="0" stroke-linecap="butt" stroke-linejoin="miter"/><g data-paper-data="{&quot;index&quot;:null}" stroke="none" stroke-width="0" stroke-linecap="butt" stroke-linejoin="miter"><g><path d="M238.33097,198.95181l1.5423,0.31281c0,0 0.45029,0.87184 -0.6516,0.80353c-1.10189,-0.06832 -1.78746,-0.44536 -2.63264,-1.00713c-0.50171,-0.33347 -1.24081,-1.42971 -1.24081,-1.42971l-0.9591,-0.21542c0,0 -0.61362,-0.44272 -0.626,-0.87071c-0.04403,-1.52183 0.7519,-1.94635 0.7519,-1.94635c0,0 0.59563,1.60119 1.15272,2.23669c0.68733,0.78407 2.66323,2.1163 2.66323,2.1163z" fill="#393939"/><path d="M239.91525,192.85173l0.0634,0.35644l-0.11091,0.40698c0,0 -0.0108,0.90639 0.02865,1.25375c0.04854,0.42741 0.0978,0.88747 0.31225,1.8706c0.0221,1.07142 -0.60594,2.5441 -0.60594,2.5441c0,0 -0.65536,0.13853 -1.67636,-0.41223c-3.4499,-1.861 -3.38428,-4.05118 -3.38428,-4.05118c0,0 0.07777,-1.05371 0.30847,-1.56992c0.23069,-0.51622 0.62372,-0.85259 0.90005,-1.1344c0.27632,-0.28182 0.7788,-0.39306 0.7788,-0.39306c0,0 -0.14771,-0.02311 0.0496,-0.29485c0.04505,-0.06203 0.32011,-0.16945 0.32011,-0.16945l-0.15097,-0.12051l0.34763,-0.63276l2.7464,1.29011z" fill="#f01a40"/><path d="M239.74712,188.54769c0.814,0.33871 1.46654,1.38452 1.3931,1.6738c-0.07346,0.28927 -0.69255,0.60733 -0.69255,0.60733c0,0 -0.03272,0.8107 -0.36243,0.91857c-0.49149,0.1608 -0.8316,0.1414 -1.88716,-0.16381c-0.56014,-0.23333 -0.81295,-0.73179 -1.05553,-1.09024c-0.29695,-0.43877 0.1499,-0.40463 0.22102,-0.73604c0.07112,-0.33141 0.06237,0.23521 0.07648,-0.65013c0.01011,-0.63417 1.90631,-0.72625 2.30706,-0.55949z" fill="#ffffff"/><path d="M239.13577,192.71238c-0.00563,0.05944 -0.07214,0.66014 -0.07214,0.66014c0,0 0.61991,2.68581 0.52748,3.49846c-0.11383,1.0009 -0.55293,2.41488 -0.55293,2.41488c0,0 -0.5088,-0.10064 -0.749,-0.18949c-0.24713,-0.09141 -1.22305,-0.69894 -1.22305,-0.69894c0,0 0.77108,-2.58019 0.84313,-3.02353c0.10542,-1.17417 0.04728,-2.21429 0.04728,-2.21429l0.03075,-0.34398l-0.14709,-0.37243l0.22012,-0.96408l1.39942,0.38162c0,0 -0.29405,0.53554 -0.32398,0.85163z" fill="#ffffff"/></g><path d="M238.08265,189.29869c0.09044,-0.3737 0.67784,-0.55224 1.312,-0.39877c0.63416,0.15348 1.07494,0.58084 0.9845,0.95454c-0.09044,0.3737 -0.67784,0.55223 -1.312,0.39876c-0.63416,-0.15348 -1.07493,-0.58083 -0.98449,-0.95453z" fill="#afafaf"/></g><path d="M238.47013,177.17998l0.94772,0.37052c0,0 0.09834,0.80919 -0.03773,1.14138c-0.12834,0.31332 -0.83343,0.79847 -0.83343,0.79847z" data-paper-data="{&quot;index&quot;:null}" fill="#f25c76" stroke="none" stroke-width="0" stroke-linecap="butt" stroke-linejoin="miter"/><path d="M240.3435,184.46633l-0.6119,4.09511l-0.30175,1.78308c0,0 -0.54939,-0.12351 -0.78808,-0.25808c-0.23869,-0.13457 -0.5154,-0.47678 -0.5154,-0.47678l0.24475,-1.33028l0.64086,-3.72209z" data-paper-data="{&quot;index&quot;:null}" fill="#f79db4" stroke="none" stroke-width="0" stroke-linecap="butt" stroke-linejoin="miter"/><path d="M246.00783,182.15358c0,0 -1.65616,4.09746 -6.24764,3.99094c-4.73031,-0.02449 -5.98864,-3.85694 -5.98864,-3.85694l1.09315,-0.24746c0,0 0.52027,3.04675 5.28498,2.88744c4.12629,-0.13797 4.67202,-3.06609 4.67202,-3.06609z" data-paper-data="{&quot;index&quot;:null}" fill="#ffffff" stroke="none" stroke-width="0" stroke-linecap="butt" stroke-linejoin="miter"/><g data-paper-data="{&quot;index&quot;:null}" stroke="none" stroke-width="0" stroke-linecap="butt" stroke-linejoin="miter"><path d="M240.06141,167.83166c0.00962,-0.13522 0.70202,-0.92671 1.0635,-1.23364c0.19743,-0.16761 0.56323,-0.4823 0.95063,-0.28411c0.09874,0.05052 0.40045,0.49953 0.40045,0.49953l0.41283,-0.07458c0,0 0.22215,0.1144 0.30239,0.24268c0.08025,0.12828 0.12613,0.40632 0.12613,0.40632c0,0 0.15602,0.07173 0.27587,0.09948c0.39117,0.09054 0.33861,0.46338 0.33861,0.46338c0,0 0.29128,0.03318 0.44983,0.17459c0.25136,0.22417 0.41591,0.62328 0.43005,0.85708c0.02403,0.39716 -0.17198,1.48889 -0.52745,1.59351c-0.55364,0.16292 -0.67334,-0.53776 -0.67334,-0.53776c0,0 -0.21072,0.56435 -0.49539,0.79223c-0.43835,0.35088 -0.80217,0.34852 -0.80217,0.34852l-2.20568,-1.07822c0,0 -0.10665,-1.42036 -0.04624,-2.26902z" fill="#ffffff"/><path d="M239.26112,171.44476c0.01368,-0.45093 0.36421,-1.39653 0.92706,-1.34163c2.0561,0.20055 2.47412,1.33918 2.35985,2.2702c-0.07464,0.6081 -0.32761,0.99151 -1.87142,0.59931c-0.54813,-0.13926 -1.42918,-1.07691 -1.4155,-1.52786z" fill="#fed000"/><path d="M240.33363,174.0619c0.03791,-1.24911 -0.00165,-2.53865 -0.00165,-2.53865c0,0 0.52883,0.10168 0.81567,0.22208c0.28684,0.1204 0.4109,0.33757 0.4109,0.33757c0,0 -0.15293,1.63966 -0.16822,2.14359c-0.02509,0.8266 -0.014,1.87545 0.02373,3.0743c0.00946,0.30039 -0.14185,0.47958 -0.44779,0.50175c-0.20554,0.01489 -0.4032,-0.05447 -0.46319,-0.42505c-0.18119,-1.1191 -0.19596,-2.44191 -0.16944,-3.31558z" fill="#fed5c7"/></g><path d="M241.88779,178.54319c0.10973,0.65348 -0.12852,2.21952 -0.12852,2.21952l0.32623,0.1583l0.04716,0.15691l2.79502,0.80497c0,0 -0.33013,1.11164 -1.1641,1.79467c-1.29755,1.0627 -2.4097,1.5544 -4.10856,1.4095c-1.85978,-0.15863 -2.34016,-0.43403 -3.54156,-1.22701c-1.30374,-0.86052 -1.28245,-1.79128 -1.28245,-1.79128l1.39789,-0.45591l0.62958,-0.28818l0.07511,-0.16357l1.45459,-0.71556l0.16418,-1.05864c0,0 0.51527,-0.30891 0.69141,-0.79854c0.13954,-0.38788 0.12879,-1.13997 0.12879,-1.13997l1.19241,-0.34653l0.36739,0.0378c0,0 0.85724,0.81864 0.95546,1.40353z" data-paper-data="{&quot;index&quot;:null}" fill="#f01a40" stroke="none" stroke-width="0" stroke-linecap="butt" stroke-linejoin="miter"/><path d="M240.09324,176.48468c0.50868,0.01604 0.94107,0.52864 0.94107,0.52864c0,0 -0.0364,0.72955 -1.34815,0.70811c-1.41028,-0.02305 -1.54787,-0.79949 -1.54787,-0.79949c0,0 1.44626,-0.45331 1.95495,-0.43726z" data-paper-data="{&quot;index&quot;:null}" fill="#afafaf" stroke="none" stroke-width="0" stroke-linecap="butt" stroke-linejoin="miter"/><g data-paper-data="{&quot;index&quot;:null}"><g><path d="M237.49302,171.26587c0,0 -1.29241,-0.35247 -2.04205,0.31087c-1.21167,1.0722 -0.07476,2.78513 -0.07476,2.78513c0,0 -0.89735,-1.07377 -0.57688,-2.06308c0.21155,-0.65309 0.41888,-0.96008 1.09715,-1.16887c0.76003,-0.23397 1.59653,0.13594 1.59653,0.13594z" fill="#000000" stroke="none" stroke-width="0" stroke-linecap="butt" stroke-linejoin="miter"/><path d="M234.52029,167.19741c3.0573,-1.3403 6.47278,-0.28935 7.62869,2.34736c1.15592,2.63672 -0.38546,5.86071 -3.44276,7.20101c-3.0573,1.34031 -6.47277,0.28936 -7.62868,-2.34735c-1.15593,-2.63672 0.38543,-5.86072 3.44273,-7.20102z" fill="#f79eb4" stroke="none" stroke-width="0" stroke-linecap="butt" stroke-linejoin="miter"/><path d="M242.66692,171.22377c-0.00073,-0.01727 0.45239,0.94201 0.3005,2.47603c-0.23786,2.47291 -1.56997,3.11991 -1.56997,3.11991l-0.10699,-0.94797c0,0 0.72922,-2.20237 0.84181,-2.95865c0.11259,-0.75628 -0.17546,-1.90534 -0.17535,-1.90462" fill="#f79eb4" stroke="#f89db5" stroke-width="0" stroke-linecap="butt" stroke-linejoin="round"/><g fill="#ffd5c5" stroke="none" stroke-width="1" stroke-linecap="round" stroke-linejoin="round"><path d="M242.07374,173.57261c0.32245,0.44241 0.08853,1.04772 -0.15013,1.48847c-0.03906,0.0721 -0.34609,0.6349 -0.99745,1.22516c-0.81731,0.74062 -2.16133,1.11356 -2.54332,1.22989c-0.45558,0.13869 -1.43849,-0.00698 -1.61818,-0.08486c-1.29322,-0.56053 -0.83565,-1.30612 -0.77438,-1.41867c0.02924,-0.05366 0.23648,-0.25481 0.57146,-0.28339c0.32651,-0.02787 1.29196,0.06118 1.55442,-0.06748c0.282,-0.13823 1.64335,-1.37951 2.47478,-1.74271c0.17358,-0.07367 0.42622,-0.11564 0.61275,-0.06786c0.24279,0.06222 0.63217,0.2145 0.77283,-0.12622c0.02274,-0.05518 0.06204,-0.20058 0.09722,-0.15238z"/><path d=""/></g><g fill="#000000" stroke="#000000" stroke-width="0.125" stroke-linecap="butt" stroke-linejoin="round"><path d="M242.23858,171.62308c0.0488,-0.04416 0.33233,-0.13518 0.69417,-0.40657c0.22338,-0.18068 0.44529,-0.36352 0.65002,-0.56494c0.12255,-0.12062 0.21443,-0.27585 0.34108,-0.39046c0.00431,-0.00391 -0.22925,0.33376 -0.30593,0.42283c-0.24033,0.27919 -0.47131,0.49952 -0.75405,0.73472c-0.06207,0.05166 -0.59986,0.40391 -0.60649,0.38"/><path d="M242.14313,171.07924c0.03365,0.01305 0.34209,-0.10863 0.64935,-0.44736c0.30725,-0.33873 0.69162,-0.90258 0.69367,-0.94364c0.00076,-0.01549 -0.37527,0.72388 -0.58166,0.98874c-0.20639,0.26487 -0.71692,0.64082 -0.72313,0.61853"/></g><g fill="#000000" stroke="none" stroke-width="1" stroke-linecap="round" stroke-linejoin="round"><path d="M241.10829,174.41685c-0.23324,0.06345 -0.67433,0.04413 -0.55159,-0.16492c0.09329,-0.15887 0.60131,-0.31768 0.71173,-0.29305c0.19103,0.04262 -0.05649,0.42056 -0.16014,0.45798z"/><path d=""/></g><path d="M234.92761,173.77279c-0.00253,-0.05677 0.66976,1.77625 1.04318,2.57389c0.70323,1.50207 1.46686,2.2901 1.46686,2.2901c0,0 -0.42175,-0.07105 -0.52896,-0.10213c-0.33119,-0.09594 -0.63304,-0.20252 -0.94569,-0.3548c-0.73535,-0.3582 -1.36283,-0.89855 -1.88084,-1.52801c-0.34522,-0.4195 -1.41097,-2.45196 -1.39558,-2.47372" fill="#f79eb4" stroke="#f89db5" stroke-width="0" stroke-linecap="butt" stroke-linejoin="round"/><path d="M232.58726,174.18729c-0.00753,0.01928 1.38713,2.46604 1.83373,3.11995c0.44659,0.65392 1.33852,1.5249 1.33852,1.5249c0,0 -0.40216,0.10703 -1.17019,-0.24528c-0.67817,-0.3111 -1.04723,-0.45759 -1.72823,-1.30242c-0.88369,-1.09627 -1.72709,-2.76436 -1.70682,-3.16573" fill="#f79eb4" stroke="#f89db5" stroke-width="0" stroke-linecap="butt" stroke-linejoin="round"/><g fill="#ee1a40" stroke="none" stroke-width="1" stroke-linecap="round" stroke-linejoin="round"><path d="M238.97376,167.96868c-0.10176,-0.01645 -2.68151,-0.40418 -4.02265,0.48422c-1.05705,0.7002 -1.45273,1.43954 -2.13684,2.71387c-0.52761,0.98276 -0.39497,2.63805 -0.42243,2.65986c-0.00197,0.00156 -1.34172,-3.89186 1.52336,-5.80842c2.33072,-1.52159 5.07302,-0.76975 5.2047,-0.69864"/><path d=""/></g><path d="M239.66994,168.86632c-0.0134,0.02599 -0.7346,-1.74213 -0.41222,-2.22014c0.32238,-0.47801 -0.19674,-0.67987 0.4383,-0.90763c0.63503,-0.22776 1.99073,2.22091 1.97525,2.2259c-0.02225,0.00709 -0.22123,-1.49099 -1.33192,-1.4358c-0.60646,0.03013 -0.00864,3.27171 -0.02627,3.30591" fill="#f79eb4" stroke="#f89db5" stroke-width="0" stroke-linecap="butt" stroke-linejoin="round"/><path d="M238.90903,169.24131c-0.02503,-0.07974 -1.04749,-1.83072 -0.89178,-2.17545c0.15571,-0.34473 -0.21812,-0.80882 0.32291,-1.08034c1.92099,-0.74177 1.18975,-0.67332 1.18975,-0.67332c0,0 0.09962,0.95428 -0.52912,1.38373c-0.87229,0.59582 0.73961,2.05099 0.67793,2.16917" fill="#f79eb4" stroke="#f89db5" stroke-width="0" stroke-linecap="butt" stroke-linejoin="round"/><g stroke="none" stroke-width="1" stroke-linecap="round" stroke-linejoin="round"><g fill="#f79eb4"><path d="M232.80045,171.72594c-0.16468,-0.31959 -0.56495,-0.82013 -0.83891,-1.43849c-0.27394,-0.61836 -0.56927,-1.4361 -0.52716,-1.64494c0.05505,-0.27303 0.84624,-0.37892 1.71155,-0.35415c0.86532,0.02479 2.06196,0.34356 2.1637,0.4651"/></g><g fill="#ffd5c5"><path d="M233.14767,171.10478c-0.04371,-0.07349 -0.30773,-0.38715 -0.52215,-0.83941c-0.21442,-0.45225 -0.45373,-1.17045 -0.4457,-1.20206c0.03257,-0.12817 0.93113,-0.2112 1.40294,-0.19012c0.47182,0.02109 1.01251,0.19807 1.16829,0.30507"/></g></g><g fill="#f79eb4" stroke="none" stroke-width="1" stroke-linecap="round" stroke-linejoin="round"><path d="M238.27497,166.86772c0.23467,-0.19939 0.49336,-0.38891 1.08358,-0.69705c0.59022,-0.30814 1.32007,-0.70084 1.55701,-0.6816c0.04853,0.00395 0.4143,0.54721 0.53688,1.04176c0.19136,0.77198 0.10196,1.71595 0.09932,1.73112"/><path d=""/></g><path d="M239.51411,172.7077c0.62248,0.38948 0.80022,0.30071 0.98722,0.23791c0.3208,-0.10774 0.54824,-0.53669 0.66148,-0.98568c0.1619,-0.64192 0.49165,-0.70743 0.90146,-0.89133c0.0621,-0.02787 0.0897,-0.21676 0.17897,0.3734c0.18929,1.25155 -0.22169,2.37213 -0.35381,2.43588c-0.52789,0.25471 -0.58389,-0.30309 -1.64674,0.22941c-0.60535,0.30331 -1.71938,1.59556 -2.39517,1.68034c-1.4013,-0.02978 -2.12894,-0.88201 -2.50175,-1.49697c-1.12031,-1.84796 0.13699,-1.37888 0.56458,-1.5107c2.85078,-0.07747 1.86259,0.08149 3.30964,0.33951z" fill="#ffffff" stroke="none" stroke-width="0" stroke-linecap="butt" stroke-linejoin="miter"/><path d="M240.29134,169.94222c-0.04918,-0.01092 0.539,-0.00958 1.52663,0.10175c0.28372,0.03198 1.16418,0.80784 1.20878,0.95213c0.26797,0.54849 0.99426,1.42644 0.99526,1.42474c0.02198,-0.03666 -1.10594,-0.63041 -2.05051,-1.15039c-0.31867,-0.17303 -1.16084,-0.44697 -1.30006,-0.47797" fill="#f79eb4" stroke="#f89db5" stroke-width="0" stroke-linecap="butt" stroke-linejoin="round"/><g fill="#000000" stroke="#000000" stroke-width="0.125" stroke-linecap="butt" stroke-linejoin="round"><path d="M235.11786,173.14291c-0.00791,0.0428 -0.14308,0.11615 -0.35141,0.11552c-1.33754,-0.00395 -1.63359,-0.29096 -1.63359,-0.29096c0,0 0.58922,0.30558 1.47685,0.16885c0.17285,-0.02664 0.38797,-0.09756 0.43168,-0.11959c0.0417,-0.02101 0.06458,-0.06953 0.11706,-0.07277"/><path d="M235.01173,173.62554c0,0 -0.01614,0.05406 -0.11911,0.14614c-0.19093,0.17076 -0.76023,0.41633 -1.04049,0.49246c-0.66826,0.1815 -1.11127,0.12641 -1.11127,0.12641c0,0 0.79887,-0.1069 1.04027,-0.16942c0.72679,-0.19253 1.06014,-0.65101 1.10111,-0.72164c0.01807,-0.03112 0.0501,-0.10954 0.07943,-0.12659"/></g><g stroke="none" stroke-linecap="butt" stroke-linejoin="miter"><path d="M237.93986,173.86494c-0.24625,-0.67725 -0.26823,-1.29084 -0.04913,-1.37051c0.2191,-0.07967 0.59634,0.40477 0.84259,1.08201c0.24623,0.67724 0.26822,1.29084 0.04912,1.37051c-0.2191,0.07967 -0.59634,-0.40477 -0.84259,-1.08201z" fill="#169c5b" stroke-width="NaN"/><path d="M238.21145,173.35781c0.09628,-0.03501 0.25769,0.16595 0.36055,0.44881c0.10287,0.28287 0.1082,0.54057 0.01192,0.57557c-0.09628,0.03501 -0.25769,-0.16594 -0.36055,-0.4488c-0.10287,-0.28287 -0.1082,-0.54058 -0.01192,-0.57558z" fill="#000000" stroke-width="0"/><path d="M238.06163,173.26399c-0.10405,-0.2862 -0.09422,-0.55245 0.02198,-0.5947c0.11618,-0.04225 0.29473,0.15551 0.39879,0.44171c0.10407,0.28621 0.09423,0.55245 -0.02197,0.5947c-0.11619,0.04225 -0.29474,-0.1555 -0.3988,-0.4417z" fill="#ffffff" stroke-width="0"/></g><g stroke="none" stroke-linecap="butt" stroke-linejoin="miter"><path d="M241.26496,172.93974c-0.17369,-0.47768 -0.18921,-0.91046 -0.03466,-0.96666c0.15454,-0.05619 0.42061,0.28549 0.59431,0.76318c0.17368,0.47769 0.1892,0.91048 0.03465,0.96668c-0.15454,0.0562 -0.42059,-0.28549 -0.59429,-0.76318z" fill="#169c5b" stroke-width="NaN"/><path d="M241.46494,172.98803c-0.07254,-0.19953 -0.07631,-0.38127 -0.0084,-0.40596c0.06791,-0.0247 0.18178,0.11703 0.25431,0.31655c0.07254,0.19952 0.07631,0.38128 0.0084,0.40597c-0.06792,0.02469 -0.18179,-0.11703 -0.25432,-0.31655z" fill="#000000" stroke-width="0"/><path d="M241.35086,172.51589c-0.07339,-0.20187 -0.06646,-0.38967 0.0155,-0.41947c0.08197,-0.0298 0.20788,0.10969 0.28129,0.31155c0.07339,0.20186 0.06645,0.38965 -0.01551,0.41945c-0.08195,0.02979 -0.20786,-0.10968 -0.28127,-0.31154z" fill="#ffffff" stroke-width="0"/></g></g><path d="M237.3492,177.11772c0,0 0.10643,-0.12361 0.40029,-0.24377c0.29386,-0.12017 0.76393,-0.26662 0.76393,-0.26662" fill="none" stroke="#000000" stroke-width="0.125" stroke-linecap="round" stroke-linejoin="miter"/></g><g data-paper-data="{&quot;index&quot;:null}" stroke-linecap="butt" stroke-linejoin="miter"><path d="M228.38545,153.40952l4.70248,7.77199c0,0 -1.51734,2.50154 -3.43671,2.01797c-1.81903,-0.45829 -3.07314,-1.20014 -4.19999,-2.85696c-2.93465,-4.31484 0.89995,-6.98506 0.89995,-6.98506z" fill="#fbdd00" stroke="none" stroke-width="0"/><path d="M227.85359,153.37563c0,0 -0.53394,0.36701 -0.96941,0.89979c-0.29141,0.35653 -0.45589,0.89861 -0.65483,0.9705c-0.40011,0.14462 -0.22394,-0.17858 0.18349,-0.91354c0.18998,-0.3427 0.91152,-0.98024 0.91152,-0.98024l0.52924,0.02349z" fill="#a58c48" stroke="#000000" stroke-width="0"/><path d="M225.92402,157.77621c0.15838,-0.10165 0.41409,0.97917 0.89847,1.73384c0.48438,0.75468 1.87282,1.56997 1.54154,1.84509c-0.36277,0.30129 -1.41801,-0.81167 -1.92477,-1.5515c-0.75631,-1.10416 -0.67361,-1.92578 -0.51523,-2.02743z" fill="#a58c48" stroke="#000000" stroke-width="0"/><path d="M232.536,161.5834l-0.19538,0.3636c0,0 -0.53476,0.30578 -0.97102,0.39173c-0.39168,0.07715 -0.59875,-0.21345 -0.5876,-0.29651c0.03171,-0.23602 0.47601,-0.06396 0.91165,-0.15687c0.47066,-0.10039 0.84234,-0.30196 0.84234,-0.30196z" fill="#a58c48" stroke="#000000" stroke-width="0"/><path d="M231.57602,156.67342c-1.85481,-3.06678 -0.66546,-4.95251 -0.66546,-4.95251c0,0 -0.20848,0.07189 0.29302,-0.2508c0.5015,-0.32269 0.2869,-0.12558 0.2869,-0.12558c0,0 -0.68123,2.0705 0.12005,4.12087c1.27517,3.263 4.53563,3.80085 4.53563,3.80085l-0.54001,0.2493c0,0 -2.70826,-0.65651 -4.03013,-2.84212z" fill="#edeee6" stroke="none" stroke-width="0"/><path d="M232.81972,161.52631c0,0 -3.50332,-0.11625 -4.86974,-2.5923c-1.73167,-3.13792 0.0886,-5.52445 0.0886,-5.52445l0.3406,0.00247c0,0 -0.926,2.17737 -0.18624,4.21861c1.17728,3.24845 4.88117,3.59034 4.88117,3.59034l-0.25438,0.30534z" fill="#edeee6" stroke="none" stroke-width="0"/><path d="M228.32954,158.75659c-1.86315,-3.07978 0.23161,-5.57476 0.23161,-5.57476c0,0 0.72293,-0.60819 1.22442,-0.93089c0.5015,-0.3227 1.34612,-0.72317 1.34612,-0.72317c0,0 -0.67802,2.07548 0.12829,4.1337c1.28317,3.27546 4.54877,3.82135 4.54877,3.82135l-2.80331,1.8046c0,0 -3.34809,-0.33595 -4.67591,-2.53083z" fill="#ff1a07" stroke="none" stroke-width="0"/><path d="M230.11119,160.32904c0,0 -1.25648,-0.74563 -1.74887,-1.49696c-0.49239,-0.75133 -0.47911,-2.12277 -0.47911,-2.12277l2.69917,-1.73243c0,0 0.50442,1.37967 0.87782,1.96144c0.38423,0.59862 1.43931,1.6487 1.43931,1.6487z" fill="#ff1808" stroke="#000000" stroke-width="0"/><path d="M231.05212,151.62646c0,0 -0.31606,0.56279 -0.42671,0.9523c-0.11065,0.38951 -0.13599,1.02859 -0.13599,1.02859l-2.49196,1.64707c0,0 -0.06713,-0.78326 0.1448,-1.29141c0.21193,-0.50815 0.68665,-1.00489 0.85904,-1.11553c0.45653,-0.29301 2.05082,-1.221 2.05082,-1.221z" fill="#ff1808" stroke="#000000" stroke-width="0"/><path d="M235.71007,159.40324c0,0 -2.17683,1.47917 -2.7377,1.70951c-0.41061,0.16863 -1.59211,-0.21674 -1.59211,-0.21674l2.64857,-1.69995c0,0 0.43571,0.09482 0.7185,0.12966c0.2828,0.03485 0.96273,0.07753 0.96273,0.07753z" fill="#ff1808" stroke="#000000" stroke-width="0"/><path d="M235.38335,156.22222c0.72358,1.12735 3.60157,2.38468 3.60157,2.38468c0,0 -0.50786,0.6045 -1.37282,0.80231c-1.35321,0.30948 -3.46092,0.09407 -5.21148,-2.41592c-3.33827,-4.78644 0.74658,-8.07757 0.74658,-8.07757c0,0 1.51257,6.17913 2.23615,7.30649z" fill="#fbdd00" stroke="none" stroke-width="0"/><path d="M232.77728,156.02147c0.37675,0.58697 1.56167,1.84017 1.29102,1.86299c-0.40045,0.03376 -1.31636,-0.9707 -1.67422,-1.56937c-0.64616,-1.08098 -0.66858,-2.02428 -0.57541,-2.08408c0.09318,-0.0598 0.47363,1.03481 0.95863,1.79048z" fill="#a58c48" stroke="#000000" stroke-width="0"/><path d="M231.80444,150.57193c0,0 -0.11192,1.55536 -0.29756,1.76307c-0.28927,0.32368 -0.00029,-1.26225 -0.00029,-1.26225l0.29786,-0.50082z" fill="#a58c48" stroke="#000000" stroke-width="0"/><path d="M235.4431,158.7647c0.31679,-0.20332 2.04111,0.60838 2.04111,0.60838l-0.82566,0.12181c0,0 -1.5322,-0.52686 -1.21542,-0.73018z" fill="#a58c48" stroke="#000000" stroke-width="0"/><path d="M238.96848,151.53003c1.70915,2.73713 2.00665,5.8278 -0.02038,7.12882c-1.45344,0.93289 -4.12249,-0.85628 -5.63676,-3.28977c-1.45056,-2.33114 -1.61983,-5.48687 -0.16638,-6.41975c1.45344,-0.93287 4.34801,0.26551 5.80221,2.59437z" fill="#fbdd00" stroke="#000000" stroke-width="0.25"/><path d="M235.23524,149.07698c0.8758,-0.56211 2.65713,0.65139 3.97869,2.71044c1.32156,2.05906 1.68294,4.18393 0.80714,4.74605c-0.8758,0.56211 -2.65712,-0.6514 -3.97868,-2.71045c-1.32156,-2.05904 -1.68294,-4.1839 -0.80714,-4.74602z" fill="#fbdd00" stroke="#000000" stroke-width="0.25"/><path d="M236.98962,161.21498l2.48028,3.35379l4.17975,5.69754c0,0 -0.00556,0.55092 -0.1952,0.68599c-0.18964,0.13506 -0.80075,0.18527 -0.80075,0.18527l-4.48076,-5.41047l-2.78591,-3.27961c0,0 0.5964,-0.24635 0.91938,-0.49474c0.32298,-0.2484 0.68321,-0.73778 0.68321,-0.73778z" fill="#fbdd00" stroke="none" stroke-width="0"/><path d="M235.97928,159.39317c0,0 1.09389,1.46795 1.08607,1.57715c-0.02966,0.41453 -1.34311,1.53506 -1.92799,1.54667c-0.34535,0.00687 -1.96804,-1.94077 -1.96804,-1.94077l2.45453,-1.24138z" fill="#c8c8c6" stroke="none" stroke-width="0"/><path d="M226.20416,153.49948c0,0 -1.95681,1.41596 -1.81501,3.88812c0.0344,0.59968 0.35051,1.35561 0.66517,2.05983c0.4678,1.04689 1.27807,2.13062 2.26339,2.74458c1.21743,0.75858 2.73579,0.98906 2.73579,0.98906c0,0 -3.76736,0.07577 -5.20078,-2.95462c-2.12449,-4.49132 1.35142,-6.72698 1.35142,-6.72698z" fill="#fbdd00" stroke="#000000" stroke-width="0.25"/><path d="M243.64964,170.26631c0,0 -0.00556,0.55092 -0.1952,0.68599c-0.18964,0.13506 -0.80075,0.18528 -0.80075,0.18528l-1.93463,-2.31237c0,0 0.20274,-0.2659 0.52572,-0.51429c0.32298,-0.24839 0.67747,-0.40743 0.67747,-0.40743z" fill="#a56402" stroke="none" stroke-width="0"/></g><g data-paper-data="{&quot;index&quot;:null}" stroke="none" stroke-width="0" stroke-linecap="butt" stroke-linejoin="miter"><path d="M238.34109,170.97241c0,0 -0.50522,-1.3973 -0.68235,-2.26695c-0.02822,-0.13856 0.44567,-1.12792 0.72286,-1.5376c0.15139,-0.22376 0.43076,-0.6425 0.87556,-0.55192c0.1134,0.02309 0.54238,0.38969 0.54238,0.38969l0.39391,-0.19063c0,0 0.25527,0.05268 0.37185,0.15909c0.11657,0.10641 0.24061,0.37295 0.24061,0.37295c0,0 0.17688,0.02833 0.30507,0.02263c0.41843,-0.01864 0.47008,0.37071 0.47008,0.37071c0,0 0.30199,-0.04826 0.50092,0.04938c0.31537,0.1548 0.59258,0.5097 0.67231,0.74067c0.13545,0.39233 0.24446,1.54425 -0.0834,1.74898c-0.51063,0.31887 -0.82728,-0.35163 -0.82728,-0.35163c0,0 -0.05356,0.62614 -0.27575,0.93488c-0.34212,0.47542 -0.70835,0.57501 -0.70835,0.57501l-2.51845,-0.46524z" fill="#ffffff"/><g><path d="M237.59243,172.23296c-0.13796,-0.44995 -0.10942,-1.50154 0.46489,-1.63639c2.09794,-0.49261 2.89326,0.49145 3.09314,1.4493c0.13056,0.62563 0.00952,1.08923 -1.64688,1.2205c-0.58809,0.04661 -1.77318,-0.58346 -1.91115,-1.03341z" fill="#fed000"/><path d="M239.40284,172.85671c-0.53986,-0.07253 -0.94886,-0.34457 -0.91351,-0.60759c0.03535,-0.26303 0.50165,-0.41743 1.04151,-0.34488c0.53988,0.07255 0.94887,0.34457 0.91352,0.60759c-0.03535,0.26303 -0.50165,0.41744 -1.04151,0.34489z" fill="#c28830"/><path d="M238.48635,177.80568c-0.08344,-1.17967 0.02512,-2.55536 0.13451,-3.46057c0.15639,-1.29419 0.25771,-2.45148 0.25771,-2.45148c0,0 0.52415,-0.14415 0.81088,0.00781c0.28674,0.15196 0.39726,0.1629 0.39726,0.1629c0,0 -0.32033,2.0286 -0.38342,2.55072c-0.10349,0.85644 -0.19022,1.9472 -0.2633,3.19625c-0.01832,0.31297 -0.19232,0.48497 -0.51224,0.47934c-0.21494,-0.00378 -0.41378,-0.09436 -0.44141,-0.48499z" fill="#fed5c7"/></g></g></g></g></svg>