<svg version="1.1" xmlns="http://www.w3.org/2000/svg" xmlns:xlink="http://www.w3.org/1999/xlink" width="31.36891" height="34.9232" viewBox="0,0,31.36891,34.9232"><g transform="translate(-227.06519,-165.41965)"><g data-paper-data="{&quot;isPaintingLayer&quot;:true}" fill-rule="nonzero" stroke-miterlimit="10" stroke-dasharray="" stroke-dashoffset="0" style="mix-blend-mode: normal"><g data-paper-data="{&quot;index&quot;:null}" stroke-linejoin="miter"><path d="M241.46498,199.85511c0,0 0.27002,0.32475 -0.82353,0.47626c-0.78727,0.08956 -2.24049,-0.35932 -2.97531,-0.85209c-0.73483,-0.49278 -1.08715,-1.28922 -1.40144,-2.19048c-0.31429,-0.90126 -0.2629,-1.56333 -0.35989,-1.98037c-0.34489,-1.48289 1.01735,-1.74589 1.01735,-1.74589c0,0 -0.16914,4.1828 0.50289,4.69524c0.82915,0.63223 2.78492,1.59582 2.78492,1.59582z" fill="#947043" stroke="none" stroke-width="0" stroke-linecap="butt"/><path d="M240.56605,193.62336l0.13281,0.33679l-0.02801,0.42089c0,0 0.16912,0.89053 0.27666,1.22318c0.13233,0.40929 0.27181,0.85044 0.67693,1.77155c0.23408,1.04578 -0.0895,2.61374 -0.0895,2.61374c0,0 -1.33829,0.15698 -2.44822,-0.18041c-0.81526,-0.34806 -1.84932,-1.07736 -2.14342,-1.72291c-0.34903,-0.76616 -0.40372,-1.57571 -0.49808,-2.09878c-0.01088,-0.06023 -0.19881,-1.63467 0.01618,-1.96568c0.21496,-0.33103 0.56219,-0.83358 0.56219,-0.83358c0,0 -0.14936,0.00664 -0.00984,-0.29883c0.03186,-0.06973 0.28016,-0.22955 0.28016,-0.22955l-0.17186,-0.08819l0.21526,-0.68913l2.94766,0.71996z" fill="#20201f" stroke="none" stroke-width="0" stroke-linecap="butt"/><path d="M236.4129,195.27329c0,0 0.68103,-1.33318 0.96619,-1.84571c0.22503,-0.40445 0.56781,-0.92303 0.56781,-0.92303" fill="none" stroke="#c8c7c6" stroke-width="0.125" stroke-linecap="round"/><path d="M237.39757,190.44388c0.08159,-0.93135 1.40413,-1.05021 2.15034,-1.00579c0.74621,0.04441 1.4469,1.038 1.46365,1.22092c0.06391,0.69759 -0.33346,1.70492 -0.49784,1.84822c-0.44985,0.25505 -0.78705,0.30347 -1.88217,0.2136c-0.59528,-0.11763 -0.98689,-0.37245 -1.25074,-0.85932c-0.26384,-0.48687 -0.04816,-0.6767 0.01677,-1.41764z" fill="#c274a1" stroke="none" stroke-width="0" stroke-linecap="butt"/><path d="M237.40996,190.50512c0.0816,-0.93134 1.40413,-1.05021 2.15034,-1.00579c0.74622,0.04441 1.44692,1.038 1.46366,1.22092c0.06389,0.69759 -1.49519,0.71926 -1.96663,0.71507c-0.38659,-0.00343 -1.71228,-0.18923 -1.64737,-0.93019z" fill="#cacacd" stroke="none" stroke-width="0" stroke-linecap="butt"/><path d="M239.10657,199.04814c0.03022,-0.22943 0.25042,-0.78853 0.25042,-0.78853c0,0 0.04591,0.44367 0.08587,0.82981c0.03995,0.38614 -0.05454,0.69424 -0.15603,0.71477c-0.06356,0.01285 -0.28722,0.00611 -0.38402,-0.30259c-0.05775,-0.18419 0.17354,-0.22405 0.20376,-0.45347z" fill="#c8c7c6" stroke="none" stroke-width="0" stroke-linecap="butt"/><path d="M237.86469,198.85856c0,0 0.54455,-2.08268 2.36653,-2.17086c1.27947,-0.06193 1.46539,1.06872 1.46539,1.06872" fill="none" stroke="#c8c7c6" stroke-width="0.125" stroke-linecap="round"/><path d="M241.27904,198.43586c0,0 0.15837,0.57966 0.16358,0.811c0.00521,0.23135 0.23083,0.29601 0.15347,0.47286c-0.12967,0.29639 -0.35272,0.2789 -0.41453,0.25923c-0.09868,-0.0314 -0.15924,-0.34792 -0.07771,-0.72747c0.08154,-0.37953 0.17522,-0.81562 0.17522,-0.81562z" data-paper-data="{&quot;index&quot;:null}" fill="#c8c7c6" stroke="none" stroke-width="0" stroke-linecap="butt"/></g><path d="M240.0922,184.76321l-0.16517,3.74352l-0.14198,2.30034c0,0 -0.37989,-0.02207 -0.60576,-0.15635c-0.22589,-0.13429 -0.54203,-0.41755 -0.54203,-0.41755l0.01101,-2.24589l0.19691,-3.45767z" data-paper-data="{&quot;index&quot;:null}" fill="#20201f" stroke="none" stroke-width="0" stroke-linecap="butt" stroke-linejoin="miter"/><g data-paper-data="{&quot;index&quot;:null}" stroke-linejoin="miter"><path d="M233.86036,198.67991l1.13837,0.5284c0,0 0.10871,0.40812 -0.94738,0.0864c-0.75209,-0.24934 -1.88246,-1.26698 -2.34242,-2.02277c-0.45996,-0.7558 -0.44526,-1.62657 -0.35202,-2.57649c0.09323,-0.94992 0.41791,-1.52921 0.50501,-1.94842c0.30971,-1.49063 1.65645,-1.15727 1.65645,-1.15727c0,0 -1.91003,3.72509 -1.51531,4.47237c0.48698,0.92196 1.85731,2.61778 1.85731,2.61778z" fill="#947043" stroke="none" stroke-width="0" stroke-linecap="butt"/><path d="M236.79989,193.17519l-0.0209,0.36142l-0.20218,0.37021c0,0 -0.22049,0.87923 -0.26258,1.22628c-0.05181,0.42703 -0.11046,0.88598 -0.1296,1.89205c-0.22672,1.04739 -1.17883,2.33452 -1.17883,2.33452c0,0 -1.2805,-0.41953 -2.14614,-1.19183c-0.59375,-0.65826 -1.22594,-1.75437 -1.22176,-2.46374c0.00497,-0.84192 0.29531,-1.59957 0.42932,-2.11392c0.01543,-0.05923 0.50604,-1.56703 0.84014,-1.77716c0.33408,-0.21015 0.86026,-0.52043 0.86026,-0.52043c0,0 -0.13834,-0.0567 0.11656,-0.27534c0.0582,-0.04991 0.35066,-0.09069 0.35066,-0.09069l-0.11895,-0.15221l0.48476,-0.53502l2.37282,1.89125z" fill="#20201f" stroke="none" stroke-width="0" stroke-linecap="butt"/><path d="M232.33776,192.92853c0,0 1.17796,-0.92394 1.65196,-1.26935c0.37405,-0.27258 0.90291,-0.59927 0.90291,-0.59927" fill="none" stroke="#c8c7c6" stroke-width="0.125" stroke-linecap="round"/><path d="M235.25943,188.95905c0.46516,-0.81097 1.71534,-0.36348 2.37392,-0.0098c0.65857,0.35367 0.87723,1.54966 0.81563,1.7227c-0.23494,0.65994 -1.01859,1.40726 -1.22795,1.46829c-0.51537,0.04256 -0.84173,-0.0551 -1.79787,-0.59654c-0.49084,-0.35675 -0.73924,-0.75245 -0.77425,-1.30511c-0.03499,-0.55265 0.24047,-0.63436 0.61054,-1.27954z" fill="#c274a1" stroke="none" stroke-width="0" stroke-linecap="butt"/><path d="M235.245,189.01983c0.46516,-0.81096 1.71534,-0.36348 2.37392,-0.0098c0.65857,0.35368 0.87724,1.54967 0.81563,1.72271c-0.23496,0.65993 -1.65901,0.02488 -2.08511,-0.1769c-0.34942,-0.16545 -1.47453,-0.8908 -1.10446,-1.53599z" fill="#cacacd" stroke="none" stroke-width="0" stroke-linecap="butt"/><path d="M233.1972,197.48554c0.12377,-0.19553 0.55841,-0.61046 0.55841,-0.61046c0,0 -0.14465,0.42193 -0.27053,0.78915c-0.1259,0.36723 -0.34103,0.60716 -0.44176,0.58317c-0.0631,-0.01503 -0.26323,-0.11509 -0.22145,-0.43588c0.02494,-0.1914 0.25159,-0.13046 0.37535,-0.32597z" fill="#c8c7c6" stroke="none" stroke-width="0" stroke-linecap="butt"/><path d="M235.08777,197.64131c0,0 -0.06137,0.59776 -0.13997,0.8154c-0.0786,0.21765 0.10851,0.35935 -0.02744,0.49638c-0.22783,0.22968 -0.42956,0.1329 -0.48012,0.09227c-0.08069,-0.06489 -0.02302,-0.38193 0.18993,-0.70652c0.21296,-0.32458 0.45763,-0.69751 0.45763,-0.69751z" data-paper-data="{&quot;index&quot;:null}" fill="#c8c7c6" stroke="none" stroke-width="0" stroke-linecap="butt"/><path d="M232.14976,196.792c0,0 1.36879,-1.66147 3.05937,-0.97638c1.18719,0.48108 0.88112,1.58528 0.88112,1.58528" fill="none" stroke="#c8c7c6" stroke-width="0.125" stroke-linecap="round"/><g fill="#83c4ac" stroke="none" stroke-width="0" stroke-linecap="butt"><path d="M234.59591,192.27791c-0.10374,-0.04158 -0.0631,-1.08851 -0.0631,-1.08851l0.21431,-0.02338l0.59283,0.84725c0,0 -0.62162,0.31369 -0.74403,0.26463z"/><path d="M234.27189,190.39541c0.11075,-0.01493 0.52195,0.79019 0.52195,0.79019l-0.28107,0.07078l-0.70207,-0.41474c0,0 0.33048,-0.42859 0.46117,-0.44623z" data-paper-data="{&quot;index&quot;:null}"/><path d="M233.62313,192.76159c-0.09472,-0.05932 0.1309,-1.08246 0.1309,-1.08246l0.25961,0.01569l0.38865,0.93823c0,0 -0.66739,0.1985 -0.77916,0.12852z"/><path d="M233.75239,190.79961c0.11063,0.01586 0.28643,0.90267 0.28643,0.90267l-0.28972,-0.00862l-0.56218,-0.59065c0,0 0.43491,-0.32211 0.56546,-0.30339z" data-paper-data="{&quot;index&quot;:null}"/><path d="M232.53042,193.00659l0.02785,-0.39528l0.72986,-0.49662c0,0 0.24629,-0.32537 0.34206,-0.18298c0.09576,0.14241 -0.2027,0.3902 -0.2027,0.3902l-0.46811,0.8573z"/></g></g><path d="M239.47464,184.87099l-1.54394,3.84196l-0.70661,1.66467c0,0 -0.50583,-0.24742 -0.70686,-0.43362c-0.20102,-0.1862 -0.39093,-0.58321 -0.39093,-0.58321l0.54627,-1.23739l1.48569,-3.47238z" data-paper-data="{&quot;index&quot;:null}" fill="#20201f" stroke="none" stroke-width="0" stroke-linecap="butt" stroke-linejoin="miter"/><g data-paper-data="{&quot;index&quot;:null}" stroke="none" stroke-width="0" stroke-linecap="butt" stroke-linejoin="miter"><path d="M248.8747,178.67568c0.13277,-0.02733 1.0821,0.42507 1.47539,0.69001c0.2148,0.1447 0.61673,0.41171 0.53076,0.83828c-0.02191,0.10872 -0.37253,0.52068 -0.37253,0.52068l0.18351,0.37724c0,0 -0.05003,0.24483 -0.15181,0.35678c-0.10179,0.11195 -0.35704,0.23137 -0.35704,0.23137c0,0 -0.02684,0.1696 -0.02112,0.29249c0.01868,0.40108 -0.35447,0.45136 -0.35447,0.45136c0,0 0.04688,0.2894 -0.04635,0.4803c-0.14779,0.30264 -0.48748,0.56906 -0.70874,0.64593c-0.37584,0.1306 -1.47988,0.2373 -1.67678,-0.07659c-0.30667,-0.48889 0.33549,-0.79373 0.33549,-0.79373c0,0 -0.60031,-0.05014 -0.89672,-0.26253c-0.45641,-0.32704 -0.55258,-0.67794 -0.55258,-0.67794l0.44115,-2.41516c0,0 1.33852,-0.48701 2.17186,-0.65849z" fill="#20201f"/><path d="M243.82817,179.07662c1.15785,0.47017 2.38057,0.88179 2.38057,0.88179l-0.95147,0.95519c0,0 -1.48398,-0.7139 -1.9511,-0.90358c-0.76621,-0.31114 -1.75338,-0.6657 -2.89044,-1.04747c-0.28491,-0.09566 -0.40025,-0.29988 -0.31458,-0.59441c0.05756,-0.19787 0.19137,-0.35904 0.55966,-0.28634c1.11221,0.21954 2.3575,0.66597 3.16735,0.99483z" fill="#fed5c7"/><path d="M245.82737,178.44076c0.91976,-0.18705 1.74852,0.12535 1.63819,1.46765c-0.11032,1.34231 -1.06167,2.47787 -1.98,2.6912c-0.91833,0.21333 -1.27141,-0.93861 -1.18395,-2.00273c0.08746,-1.06412 0.60602,-1.96908 1.52577,-2.15612z" fill="#20201f"/><path d="M248.29347,183.73666c-0.41353,0.03553 -0.92818,-0.11056 -1.04664,-0.47849c-0.18451,-0.57304 0.54302,-0.71636 0.54302,-0.71636c0,0 0.74707,1.17394 0.50362,1.19485z" fill="#c0c2c6"/><path d="M248.87916,182.44868c-0.41353,0.03553 -0.92818,-0.11056 -1.04664,-0.47849c-0.18451,-0.57304 0.54302,-0.71636 0.54302,-0.71636c0,0 0.74707,1.17394 0.50362,1.19485z" fill="#c0c2c6"/><path d="M249.36602,181.27271c-0.41353,0.03553 -0.92818,-0.11056 -1.04664,-0.47849c-0.18451,-0.57304 0.54302,-0.71636 0.54302,-0.71636c0,0 0.74707,1.17394 0.50362,1.19485z" fill="#c0c2c6"/><path d="M247.25297,179.51309c0,0 1.1249,0.81906 0.906,0.92763c-0.37182,0.18441 -0.90423,0.23683 -1.14914,-0.06222c-0.38144,-0.46574 0.24315,-0.8654 0.24315,-0.8654z" fill="#c0c2c6"/><path d="M249.55752,180.35178c-0.41353,0.03553 -0.92818,-0.11056 -1.04664,-0.47849c-0.18451,-0.57304 0.54302,-0.71636 0.54302,-0.71636c0,0 0.74707,1.17394 0.50362,1.19485z" fill="#c0c2c6"/><g><path d="M242.87454,180.10644l-1.07699,-0.37574l0.57224,-1.32362l1.09278,0.34535z" fill="#83c4ac"/><path d="M241.41915,177.65116c1.04109,0.35786 1.09696,0.96544 0.86406,1.53507c-0.23291,0.56963 -0.60837,0.93736 -1.70746,0.52772c-0.61822,-0.23042 -0.9306,-0.87897 -0.6977,-1.4486c0.23289,-0.56963 0.9166,-0.82886 1.54109,-0.6142z" fill="#20201f"/><path d="M244.89741,179.45259l-0.40751,1.06694l-0.40472,0.52499l-1.24103,-0.95388l0.60383,-1.38439l1.48277,0.19181z" fill="#bebec0"/></g></g><g data-paper-data="{&quot;index&quot;:null}" stroke-width="0" stroke-linecap="butt" stroke-linejoin="miter"><g data-paper-data="{&quot;index&quot;:null}"><path d="M248.28217,170.67926c-1.06213,-0.10564 -1.83784,-1.04916 -1.73258,-2.1074c0.10525,-1.05824 1.0516,-1.83047 2.11374,-1.72483c1.06213,0.10564 1.83786,1.04916 1.7326,2.1074c-0.10525,1.05824 -1.05162,1.83047 -2.11376,1.72483z" fill="#c2e266" stroke="none"/><path d="M248.36263,170.58595c-0.6562,-0.06526 -1.13542,-0.64817 -1.07039,-1.30195c0.06503,-0.65379 0.64968,-1.13087 1.30588,-1.0656c0.6562,0.06526 1.13542,0.64817 1.07039,1.30195c-0.06503,0.65378 -0.64968,1.13087 -1.30588,1.0656z" fill="#c2e266" stroke="#000000"/><path d="M247.35839,175.69124c0,0 -1.1302,-2.08959 -0.65271,-3.40088c0.45987,-1.26288 0.63244,-1.44974 0.63244,-1.44974l2.09141,0.22296c0,0 0.6735,1.16968 0.2285,2.16399c-0.445,0.99431 -2.29964,2.46367 -2.29964,2.46367z" fill="#e8edf4" stroke="#000000"/><path d="M248.33041,171.18051c-0.58103,-0.0604 -1.26483,-0.48382 -1.26483,-0.48382l0.32943,-0.45955c0,0 0.60215,0.39418 1.05661,0.4135c0.45447,0.01933 1.11991,-0.32095 1.11991,-0.32095l0.1493,0.69963c0,0 -0.8819,0.20407 -1.39042,0.15121z" fill="#dbded5" stroke="#000000"/></g><g data-paper-data="{&quot;index&quot;:null}" stroke="none"><path d="M242.21901,175.10299c-0.04133,0.41553 -0.23714,0.73625 -0.43733,0.71634c-0.2002,-0.01991 -0.32897,-0.37291 -0.28764,-0.78845c0.04133,-0.41553 0.23712,-0.73625 0.43731,-0.71634c0.20021,0.01991 0.32899,0.37291 0.28766,0.78845z" fill="#000000"/><path d="M240.01075,179.42449c0.20853,0.02074 0.76919,2.23446 0.76919,2.23446c0,0 -1.07798,0.22711 -1.28651,0.20637c-0.20852,-0.02074 -0.43931,-1.25715 -0.42112,-1.43999c0.01818,-0.18284 0.72992,-1.02157 0.93845,-1.00083z" fill="#807d5a"/><path d="M241.56888,175.56749l-0.06977,-0.32101l5.42689,-5.387l0.11593,0.1635z" fill="#6e6e73"/><path d="M246.3223,170.30598l0.30034,0.35407l-1.30269,1.23816l-0.27014,-0.35107z" fill="#c2e266"/></g></g><g data-paper-data="{&quot;index&quot;:null}" stroke-width="0" stroke-linecap="butt" stroke-linejoin="miter"><g data-paper-data="{&quot;index&quot;:null}"><path d="M227.26974,167.64472c0.13502,-1.35755 1.34905,-2.34819 2.7116,-2.21267c1.36256,0.13553 2.35766,1.34591 2.22263,2.70345c-0.13502,1.35755 -1.34905,2.34818 -2.7116,2.21266c-1.36255,-0.13552 -2.35766,-1.3459 -2.22263,-2.70344z" fill="#c2e266" stroke="none"/><path d="M229.41475,170.21048c-0.84178,-0.08373 -1.45656,-0.8315 -1.37314,-1.6702c0.08342,-0.83871 0.83345,-1.45072 1.67523,-1.36699c0.84179,0.08373 1.45656,0.83149 1.37314,1.67019c-0.08342,0.83869 -0.83344,1.45073 -1.67522,1.367z" fill="#c2e266" stroke="#000000"/><path d="M227.95224,170.54159l2.68671,0.24806c0,0 0.16982,0.27862 0.42908,1.98316c0.26919,1.76985 -1.68028,4.11234 -1.68028,4.11234c0,0 -1.9613,-2.31667 -2.26973,-3.67965c-0.30842,-1.36298 0.83422,-2.66391 0.83422,-2.66391z" fill="#e8edf4" stroke="#000000"/><path d="M229.30502,170.9664c-0.65291,-0.06202 -1.71051,-0.54151 -1.71051,-0.54151l0.36456,-0.84221c0,0 0.75093,0.59614 1.32739,0.68667c0.57647,0.09053 1.4334,-0.25308 1.4334,-0.25308l0.2982,0.66123c0,0 -0.967,0.35977 -1.71302,0.28889z" fill="#dbded5" stroke="#000000"/></g><g data-paper-data="{&quot;index&quot;:null}" stroke="none"><path d="M235.0381,178.88988c0.24675,-0.40175 0.78402,-2.82679 2.06476,-2.66041c0.19878,0.02582 1.60908,1.47028 1.73892,2.53501c0.17662,1.44833 -0.9613,2.63055 -0.9613,2.63055l-3.09811,-0.32764c0,0 0.00896,-1.77577 0.25571,-2.17751z" fill="#c2e266"/><path d="M236.5612,176.52502c0.25682,0.02555 0.42203,0.47839 0.36901,1.01146c-0.05302,0.53307 -0.30421,0.9445 -0.56102,0.91896c-0.25681,-0.02555 -0.42201,-0.47839 -0.36899,-1.01146c0.05302,-0.53308 0.30419,-0.9445 0.561,-0.91896z" fill="#000000"/><path d="M234.71774,183.25593c-0.06282,-0.85796 0.0626,-2.20322 0.0626,-2.20322c0,0 0.59776,-0.28749 0.97097,-0.35837c0.37321,-0.07088 0.97872,-0.06244 0.97872,-0.06244l1.14749,0.90287c0,0 -0.09033,2.99356 -0.11538,3.37561c-0.05045,0.76942 -1.52814,1.19966 -1.52814,1.19966l-1.12709,-0.5972c0,0 -0.32637,-1.39896 -0.38919,-2.25692z" fill="#20201f"/><path d="M236.15348,186.05305c0,0 1.26451,-2.64253 1.53203,-2.61592c0.26752,0.0266 0.95073,1.26134 0.9274,1.49589c-0.02333,0.23455 -0.62602,1.73129 -0.89354,1.70468c-0.26752,-0.02661 -1.5659,-0.58464 -1.5659,-0.58464z" fill="#c274a1"/><path d="M231.21808,169.83614l0.18712,-0.17635l5.46417,8.14657l-0.16885,0.3861z" fill="#6e6e73"/><path d="M233.33841,172.25647l-0.42847,0.37329l-1.32554,-1.88641l0.46722,-0.36942z" fill="#c2e266"/></g></g><g data-paper-data="{&quot;index&quot;:null}" stroke="none" stroke-width="0" stroke-linecap="butt" stroke-linejoin="miter"><path d="M238.38907,182.67301c0,0 -3.13796,2.40658 -3.9583,2.33484c-0.89142,-0.07796 -2.4059,-1.47989 -2.4059,-1.47989l2.51324,0.68727l2.53379,-1.73977l1.31716,0.19757z" fill="#f79db4"/><path d="M237.29534,179.68629c0.35052,0.59475 -0.01549,1.15591 -0.61024,1.50643c-0.59475,0.35051 -1.19302,0.35766 -1.54354,-0.23709c-0.35052,-0.59475 -0.15253,-1.36103 0.44222,-1.71155c0.59475,-0.35052 1.36104,-0.15253 1.71156,0.44222z" fill="#83c4ac"/><path d="M245.27328,183.37298c0,0 -0.31279,0.88787 -1.26363,1.24506c-0.19395,0.73209 -0.77563,1.47171 -1.75221,1.51869c-0.29755,0.48319 -0.97351,0.83272 -1.84908,0.49152c-0.34884,0.37477 -1.07465,0.53073 -1.60309,-0.0202c-0.69617,0.36765 -1.52033,0.23118 -1.94724,-0.45948c-0.83863,0.13885 -1.21889,-0.71823 -1.70001,-1.14492c-0.59582,-0.10098 -1.26483,-0.53317 -1.36033,-1.47407c-0.15406,-0.8607 -0.5699,-1.35227 -0.5699,-1.35227l1.88895,-0.4134c0,0 0.25004,0.21253 0.78601,0.80749c0.44196,0.49061 0.9108,1.36565 3.0607,1.50713c2.41109,0.15867 2.91686,-0.1968 3.43188,-0.87035c0.36497,-0.4773 1.015,-0.6226 1.015,-0.6226z" fill="#c0c2c6"/><path d="M240.86297,177.76344c0,0 0.12786,0.79129 0.16699,1.42705c0.03914,0.63576 0.03187,1.52967 0.03187,1.52967c0,0 0.64101,0.68063 1.29245,1.1305c0.65143,0.44986 1.18787,0.84803 1.18787,0.84803c0,0 -0.58304,0.22783 -0.88777,0.64573c-0.18107,0.24832 0.04108,0.65112 -0.29344,0.87368c-0.4451,0.29614 -1.0012,-0.12995 -1.33259,0.00995c-0.70828,0.29899 -1.10767,0.91039 -2.24956,0.69762c-0.6395,-0.11917 -1.0143,-0.81144 -1.38848,-0.95023c-0.69947,-0.25943 -1.14711,0.01084 -1.56021,-0.31166c-0.24402,-0.19051 -0.1234,-0.64665 -0.27991,-0.95836c-0.25016,-0.49825 -0.70628,-0.8517 -0.70628,-0.8517c0,0 1.28864,-0.43725 1.9147,-0.90563c0.62607,-0.46838 0.70374,-0.60972 1.10096,-1.34762c0.39722,-0.7379 0.30406,-2.16294 0.30406,-2.16294l2.33749,0.25191l0.36184,0.07398z" fill="#20201f"/><path d="M236.33857,181.651l-0.20449,-0.32466c0,0 0.35923,-0.19663 0.55302,-0.35066c0.21513,-0.17099 0.32845,-0.27375 0.32845,-0.27375l0.53542,0.79348l-0.38375,0.33121z" data-paper-data="{&quot;index&quot;:null}" fill="#c274a1"/><path d="M237.87466,182.5019l-0.71167,-0.65974l0.30824,-0.26721l0.80065,0.74774z" data-paper-data="{&quot;index&quot;:null}" fill="#c0c2c6"/><path d="M241.17318,182.18753l-0.35113,-0.36561l0.60719,-0.74c0,0 0.10323,0.1129 0.30145,0.30323c0.17856,0.17145 0.51786,0.40078 0.51786,0.40078l-0.23392,0.30413z" fill="#c274a1"/><path d="M239.59497,182.70004l1.27113,-0.87375l0.28193,0.29484l-1.17431,0.79444z" fill="#c0c2c6"/><path d="M237.63818,179.14461c0.30666,-1.61494 0.75764,-1.82691 0.75764,-1.82691l2.60953,0.32796c0,0 0.54567,0.11813 0.41359,1.52421c-0.0583,0.62069 -0.46668,1.47484 -0.46668,1.47484l-0.40601,-0.72826c0,0 -0.47342,0.5548 -0.74019,0.7598c-0.26199,0.20134 -0.71214,0.41382 -0.88657,0.45543c-0.17974,0.04287 -1.65563,-0.01577 -1.28131,-1.98706z" fill="#c0c0c3"/><path d="M239.13696,177.61563l1.98629,0.04671l-0.62019,0.50213z" fill="#222225"/><g><g><path d="M239.96679,183.68151c-0.40797,0.4883 -1.2759,0.43532 -1.9386,-0.11834c-0.6627,-0.55365 -0.8692,-1.39833 -0.46124,-1.88663c0.40797,-0.4883 1.2759,-0.43532 1.9386,0.11834c0.66269,0.55365 0.86919,1.39833 0.46123,1.88664z" fill="#c0c2c6"/><path d="M239.20624,180.79054c0.14052,0.20773 0.08602,0.49003 -0.1217,0.63054c-0.20772,0.14051 -0.49003,0.08602 -0.63054,-0.1217c-0.14051,-0.20772 -0.08601,-0.49003 0.12171,-0.63054c0.20773,-0.14051 0.49003,-0.08601 0.63054,0.12171z" fill="#000000"/><path d="M239.16931,181.06042c-0.02516,0.18655 -0.1898,0.12266 -0.37635,0.09751c-0.18655,-0.02515 -0.32434,-0.00202 -0.29919,-0.18857c0.02515,-0.18654 0.19675,-0.31738 0.3833,-0.29223c0.18654,0.02515 0.31738,0.19675 0.29223,0.3833z" fill="#c478a9"/><path d="M240.76122,182.5653c-0.13456,0.21163 -0.4152,0.27411 -0.62683,0.13955c-0.21163,-0.13456 -0.2741,-0.4152 -0.13954,-0.62683c0.13456,-0.21163 0.4152,-0.27411 0.62683,-0.13955c0.21163,0.13456 0.27411,0.4152 0.13955,0.62683z" fill="#000000"/><path d="M240.25961,182.33256c-0.05125,-0.18112 -0.12734,-0.29829 0.05378,-0.34954c0.18112,-0.05124 0.36948,0.05404 0.42073,0.23516c0.05124,0.18112 -0.05404,0.36948 -0.23516,0.42073c-0.18112,0.05125 -0.1881,-0.12523 -0.23935,-0.30635z" fill="#c478a9"/><path d="M240.0441,182.70677c-0.00851,0.08555 -0.19664,0.1737 -0.43821,0.14967c-0.24157,-0.02403 -0.416,-0.25866 -0.40749,-0.34422c0.00851,-0.08556 0.2349,-0.1883 0.47648,-0.16427c0.24157,0.02403 0.37774,0.27326 0.36923,0.35883z" fill="#000000"/><path d="M238.9911,181.76557c0.07568,0.23067 0.02431,0.47391 -0.05738,0.50072c-0.08169,0.02681 -0.34849,-0.09277 -0.42417,-0.32344c-0.07569,-0.23067 -0.0303,-0.43339 0.05139,-0.4602c0.08169,-0.02681 0.35448,0.05225 0.43016,0.28292z" data-paper-data="{&quot;index&quot;:null}" fill="#000000"/><path d="M239.76067,182.59576c-0.00901,0.0906 -0.08975,0.15673 -0.18034,0.14772c-0.0906,-0.00902 -0.15673,-0.08976 -0.14772,-0.18035c0.00901,-0.09059 0.08975,-0.15672 0.18034,-0.14771c0.09059,0.009 0.15672,0.08974 0.14771,0.18033z" fill="#ffffff"/><path d="M238.80002,182.16891c-0.09562,-0.00951 -0.16543,-0.09474 -0.15592,-0.19036c0.00951,-0.09562 0.09474,-0.16543 0.19036,-0.15592c0.09562,0.00951 0.16543,0.09474 0.15592,0.19036c-0.00951,0.09562 -0.09474,0.16543 -0.19036,0.15592z" fill="#ffffff"/></g><path d="M239.10227,182.69329c-0.04448,0.04843 -0.15031,0.04845 -0.22107,-0.01655c-0.07076,-0.06501 -0.07968,-0.17045 -0.0352,-0.21887c0.04448,-0.04842 0.30075,0.187 0.25627,0.23542z" fill="#000000"/><path d="M239.50792,183.00995c0.11801,0.07826 0.17969,0.19296 0.13777,0.25619c-0.04194,0.06323 -0.17161,0.05102 -0.28962,-0.02724c-0.11801,-0.07826 -0.17969,-0.19296 -0.13777,-0.25619c0.04194,-0.06323 0.17161,-0.05102 0.28962,0.02724z" fill="#ad597c"/><path d="M238.37023,182.05014c0.11801,0.07826 0.17969,0.19296 0.13777,0.25619c-0.04194,0.06323 -0.17161,0.05102 -0.28962,-0.02724c-0.11801,-0.07826 -0.17969,-0.19296 -0.13777,-0.25619c0.04194,-0.06323 0.17161,-0.05102 0.28962,0.02724z" fill="#ad597c"/></g><g fill="#83c4ac"><path d="M241.30456,180.40793c0,0 -0.35387,-0.29607 -0.50045,-0.40899c-0.16493,-0.12707 -0.4406,-0.31597 -0.4406,-0.31597l0.0982,-0.17688c0,0 0.40255,-0.00542 0.57628,0.04496c0.18975,0.05503 0.51841,0.27249 0.51841,0.27249l-0.25185,0.58439z"/><path d="M239.39995,180.65237l-0.30123,-0.56053c0,0 0.30872,-0.24495 0.49303,-0.31611c0.16874,-0.06515 0.92397,-0.27417 0.92397,-0.27417l-0.13166,0.19717c0,0 -0.36736,0.3623 -0.52074,0.50309c-0.13631,0.12512 -0.46337,0.45055 -0.46337,0.45055z" data-paper-data="{&quot;index&quot;:null}"/><path d="M240.3145,181.42542c0,0 0.05665,-0.60646 0.07046,-0.91655c0.0138,-0.31008 0.00577,-0.79531 0.00577,-0.79531l0.2767,0.05439c0,0 0.03725,0.3236 0.03368,0.62115c-0.00357,0.29754 -0.05024,0.76082 -0.05024,0.76082z"/><path d="M239.87679,181.23413c0,0 0.04551,-0.46339 0.10062,-0.75581c0.05511,-0.29243 0.20049,-0.78593 0.20049,-0.78593l0.24472,-0.02938c0,0 -0.12601,0.56592 -0.17355,0.87265c-0.04754,0.30673 -0.12741,0.93775 -0.12741,0.93775z" data-paper-data="{&quot;index&quot;:null}"/></g></g><g data-paper-data="{&quot;index&quot;:null}" stroke-width="0" stroke-linecap="butt" stroke-linejoin="miter"><path d="M252.81057,173.99103c2.21631,-2.06944 4.48829,-0.86146 4.48829,-0.86146c0,0 -0.15029,-0.21973 0.35478,0.30422c0.50507,0.52393 0.23235,0.30156 0.23235,0.30156c0,0 -1.89838,1.22283 -3.55139,2.13922c-1.70823,2.24813 -1.93643,3.11375 -1.93643,3.11375l-0.62419,-0.72532c0,0 -0.54296,-2.79717 1.03656,-4.272z" fill="#cacacd" stroke="none"/><path d="M257.07325,178.447c-2.70266,2.57077 -4.70587,0.53004 -4.70587,0.53004c0,0 -0.11451,-2.02768 1.88735,-3.91683c1.88488,-1.77877 3.70514,-1.2889 3.70514,-1.2889c0,0 1.52172,2.3849 -0.88662,4.67569z" fill="#c2e266" stroke="#000000"/><path d="M250.0549,176.19396c0,0 -2.71117,-3.0489 -0.04358,-5.49695c2.62951,-2.41309 5.37711,0.34383 5.37711,0.34383l-5.33354,5.15313z" fill="#c2e266" stroke="none"/><path d="M249.87952,176.01065c0,0 -0.80311,-2.20675 1.30452,-4.13181c2.13435,-1.945 4.00437,-1.04261 4.00437,-1.04261l0.19081,0.2045l-3.69939,1.35141l-1.56949,3.88168z" fill="#cacacd" stroke="none"/><path d="M251.35378,172.34871c2.09365,-2.0912 4.03559,-1.31491 4.03559,-1.31491l2.12182,2.26962c0,0 -2.49729,0.15937 -3.66588,1.29347c-1.16861,1.13409 -1.77401,3.98577 -1.77401,3.98577l-2.0499,-2.38099c0,0 -0.15973,-2.36264 1.33237,-3.85297z" fill="#c274a1" stroke="none"/><path d="M249.88204,179.76112l-7.88496,8.08727c0,0 -0.43936,-0.12066 -0.74436,-0.42797c-0.305,-0.3073 -0.60403,-0.93057 -0.60403,-0.93057l7.80554,-8.16005c0,0 0.33476,0.46665 0.62252,0.75512c0.28776,0.28847 0.80531,0.67622 0.80531,0.67622z" fill="#c2e266" stroke="none"/><path d="M251.9283,178.29305c0,0 -1.65643,1.54128 -1.76573,1.54752c-0.41491,0.02372 -1.69461,-1.13521 -1.78111,-1.71378c-0.05109,-0.34162 1.73615,-1.95081 1.73615,-1.95081l1.81067,2.11707z" fill="#cacacd" stroke="none"/></g><g data-paper-data="{&quot;index&quot;:null}"><g data-paper-data="{&quot;index&quot;:null}" fill="#86cbb6" stroke="none" stroke-width="0" stroke-linecap="butt" stroke-linejoin="miter"><path d="M246.28204,170.88848c-0.45181,-0.16944 -0.71355,-0.21241 -0.71355,-0.21241l-0.58181,-0.37289c0,0 0.79556,-0.28378 1.22847,-0.26711c0.43291,0.01667 1.29718,0.29027 1.29718,0.29027l-0.26872,0.99091c0,0 -0.50973,-0.25931 -0.96155,-0.42876z"/><path d="M246.15655,172.48236c0,0 -0.26581,-0.54022 -0.38976,-0.79448c-0.17073,-0.35021 -0.74611,-1.41897 -0.74611,-1.41897l0.58077,0.134c0,0 0.54314,0.64987 0.7724,0.9385c0.18391,0.23154 0.49732,0.66005 0.49732,0.66005z"/></g><g stroke="none" stroke-width="0" stroke-linecap="butt" stroke-linejoin="miter"><path d="M246.6394,167.51333c0.58085,0.61047 0.62313,1.02425 0.3756,1.90014c-0.24752,0.8759 -1.7519,1.65578 -1.7519,1.65578c0,0 -0.12443,-0.93405 -0.38379,-1.45951c-0.25935,-0.52546 -0.95725,-1.25746 -0.95725,-1.25746c0,0 0.55033,-0.59616 1.11777,-0.92901c0.43325,-0.25789 0.94429,-0.4547 1.59959,0.09006z" data-paper-data="{&quot;index&quot;:null}" fill="#20201f"/><path d="M247.07154,168.48451c0.14044,0.67777 -0.45233,1.54934 -0.45233,1.54934l-0.65364,-0.81399c0,0 0.99754,-1.25867 1.10598,-0.73535z" data-paper-data="{&quot;index&quot;:null}" fill="#b2b1b2"/></g><path d="M240.13437,166.65108c3.32179,0.3304 5.78363,2.92064 5.49869,5.78545c-0.28495,2.86482 -3.20878,4.91937 -6.53057,4.58897c-3.32179,-0.3304 -5.78363,-2.92063 -5.49869,-5.78544c0.28494,-2.86482 3.20877,-4.91939 6.53056,-4.58899z" fill="#f79eb4" stroke="none" stroke-width="0" stroke-linecap="butt" stroke-linejoin="miter"/><path d="M245.26151,174.15387c0.00783,-0.01541 -0.06744,1.04284 -0.95178,2.30546c-1.4195,2.03885 -2.89774,1.94981 -2.89774,1.94981l0.37141,-0.87871c0,0 1.71517,-1.56218 2.18402,-2.16618c0.46884,-0.604 0.78102,-1.74675 0.78076,-1.74606" fill="#f79eb4" stroke="#f89db5" stroke-width="0" stroke-linecap="butt" stroke-linejoin="round"/><g fill="#ffd5c5" stroke="none" stroke-width="1" stroke-linecap="round" stroke-linejoin="round"><path d="M243.59314,175.9104c0.06419,0.54367 -0.43641,0.95661 -0.86048,1.22379c-0.06939,0.04369 -0.61287,0.38374 -1.46995,0.57894c-1.07544,0.24491 -2.42971,-0.08884 -2.81969,-0.17469c-0.46507,-0.10243 -1.25039,-0.71121 -1.36884,-0.86717c-0.85244,-1.12248 -0.08814,-1.54806 0.02044,-1.61613c0.05178,-0.03244 0.33101,-0.10618 0.637,0.03311c0.29824,0.13576 1.09611,0.68662 1.38794,0.70313c0.31355,0.01775 2.10858,-0.39686 3.01131,-0.30589c0.18741,0.02088 0.42818,0.10814 0.56735,0.24122c0.18112,0.17324 0.44587,0.49685 0.73548,0.26881c0.04687,-0.03694 0.1524,-0.14442 0.15943,-0.08516z"/><path d=""/></g><g fill="#000000" stroke="#000000" stroke-width="0.125" stroke-linecap="butt" stroke-linejoin="round"><path d="M244.69241,174.29197c0.06418,-0.01457 0.35594,0.04507 0.80435,-0.01411c0.28328,-0.04799 0.56632,-0.09859 0.8435,-0.17379c0.16595,-0.04506 0.32212,-0.13533 0.48869,-0.17314c0.00567,-0.00129 -0.36342,0.17855 -0.47392,0.21859c-0.34634,0.12553 -0.65567,0.20436 -1.0174,0.27077c-0.07943,0.0146 -0.72083,0.05801 -0.7149,0.03392"/><path d="M244.87579,173.77114c0.02294,0.02787 0.35143,0.073 0.78528,-0.07163c0.43384,-0.14463 1.04526,-0.44769 1.06717,-0.48247c0.00826,-0.01313 -0.68192,0.447 -0.99165,0.57669c-0.30973,0.1297 -0.93899,0.20713 -0.93348,0.18466"/></g><g fill="#000000" stroke="none" stroke-width="1" stroke-linecap="round" stroke-linejoin="round"><path d="M242.33778,176.17303c-0.2344,-0.05903 -0.60939,-0.29208 -0.39994,-0.41413c0.15919,-0.09275 0.67984,0.01785 0.76401,0.09345c0.14561,0.13078 -0.2554,0.33888 -0.36408,0.32068z"/><path d=""/></g><path d="M237.26627,172.58198c0.02561,-0.05072 -0.28691,1.87652 -0.35242,2.75481c-0.12333,1.65394 0.15598,2.71513 0.15598,2.71513c0,0 -0.33278,-0.26867 -0.41099,-0.34831c-0.24164,-0.24597 -0.45249,-0.48683 -0.65036,-0.77281c-0.46537,-0.67266 -0.74742,-1.45122 -0.89038,-2.25379c-0.09527,-0.53487 -0.02793,-2.82882 -0.00385,-2.84024" fill="#f79eb4" stroke="#f89db5" stroke-width="0" stroke-linecap="butt" stroke-linejoin="round"/><path d="M235.02319,171.79608c-0.01602,0.01312 0.00025,2.82939 0.06898,3.61827c0.06872,0.78888 0.4192,1.98525 0.4192,1.98525c0,0 -0.40299,-0.10385 -0.89973,-0.7874c-0.43862,-0.60359 -0.68848,-0.91217 -0.86794,-1.98236c-0.23287,-1.38869 -0.15034,-3.25605 0.06408,-3.59596" fill="#f79eb4" stroke="#f89db5" stroke-width="0" stroke-linecap="butt" stroke-linejoin="round"/><g stroke="none" stroke-width="1" stroke-linecap="round" stroke-linejoin="round"><path d="M243.60259,169.50284c-0.08843,-0.06499 -2.34532,-1.68722 -4.09225,-1.58445c-1.37687,0.08099 -2.14343,0.52556 -3.46668,1.29078c-1.02052,0.59012 -1.76514,2.09306 -1.8028,2.09831c-0.0027,0.00037 0.76824,-4.04693 4.51004,-4.28269c3.02416,-0.15923 5.2445,1.86007 5.3327,1.98742" fill="#20201f"/><path d="" fill="#ee1a40"/></g><path d="M243.80483,170.63001c-0.02441,0.01609 0.97792,-0.48655 2.70839,0.12329c0.3082,0.11049 1.28198,0.73831 1.47173,1.50729c0.25378,0.70742 0.75985,1.35003 0.74391,1.34679c-0.02286,-0.00473 -1.64087,-1.10368 -2.63603,-1.60001c-0.54337,-0.27101 -2.1699,-0.23933 -2.20203,-0.21816" fill="#f79eb4" stroke="#f89db5" stroke-width="0" stroke-linecap="butt" stroke-linejoin="round"/><path d="M242.95781,170.58386c0.01725,-0.08177 0.99219,-1.35116 1.29689,-1.5753c0.3047,-0.22414 0.47877,-0.27626 1.08344,-0.24772c2.03797,0.29508 3.67311,0.1459 3.67311,0.1459c0,0 -1.94252,0.76725 -2.70105,0.83338c-1.05237,0.09175 -2.38542,0.82036 -2.49711,0.89313" fill="#f79eb4" stroke="#f89db5" stroke-width="0" stroke-linecap="butt" stroke-linejoin="round"/><path d="M238.8572,171.36141c-0.60453,-0.06013 -1.50668,1.50828 -1.50668,1.50828c0,0 -0.42555,-2.13192 0.76152,-2.60449c2.79403,-0.45023 3.52345,3.05519 3.52345,3.05519c0,0 -2.17376,-1.89886 -2.77829,-1.95899z" data-paper-data="{&quot;index&quot;:null}" fill="#20201f" stroke="none" stroke-width="0" stroke-linecap="butt" stroke-linejoin="miter"/><path d="M241.78605,173.90183c0.35164,0.64461 0.55008,0.65437 0.74386,0.69129c0.33243,0.06334 0.74093,-0.19904 1.05972,-0.53489c0.45577,-0.48015 0.92902,-1.36897 1.37636,-1.32838c0.06779,0.00615 0.03072,0.8484 -0.18076,1.40655c-0.44849,1.18367 -1.356,1.95893 -1.50241,1.94973c-0.58497,-0.03674 -0.36036,-0.5504 -1.54778,-0.60724c-0.67632,-0.03236 -2.28076,0.54792 -2.91135,0.29055c-1.2068,-0.71285 -1.42328,-1.81234 -1.44679,-2.5311c-0.07065,-2.15988 1.28863,-2.61195 1.72594,-2.51725c2.01321,0.43592 2.13158,2.16959 2.6832,3.18076z" fill="#ffffff" stroke="none" stroke-width="0" stroke-linecap="butt" stroke-linejoin="miter"/><path d="M243.81909,171.87237c-0.03752,-0.03362 0.9057,-0.17088 1.71197,0.41027c0.23162,0.16695 0.91834,1.25206 0.88649,1.39969c-0.03529,0.60943 0.43521,1.59448 0.43692,1.59349c0.03713,-0.02118 -1.12701,-0.5922 -1.69543,-1.50844c-0.19295,-0.30702 -1.31929,-0.87231 -1.42544,-0.96757" fill="#f79eb4" stroke="#f89db5" stroke-width="0" stroke-linecap="butt" stroke-linejoin="round"/><g fill="#000000" stroke="#000000" stroke-width="0.125" stroke-linecap="butt" stroke-linejoin="round"><path d="M237.77284,171.46934c-0.02788,0.03343 -0.18164,0.0311 -0.36292,-0.07157c-1.16389,-0.65908 -1.28125,-1.05436 -1.28125,-1.05436c0,0 0.36379,0.55517 1.20449,0.87109c0.16372,0.06152 0.38598,0.10514 0.43488,0.10737c0.04664,0.00213 0.09036,-0.02894 0.1377,-0.00604"/><path d="M237.42457,172.23213c0,0 -0.04058,0.0392 -0.17546,0.06899c-0.25011,0.05525 -0.86671,-0.00977 -1.1483,-0.08079c-0.67144,-0.16936 -1.03057,-0.43454 -1.03057,-0.43454c0,0 0.74871,0.29842 0.98977,0.36225c0.72786,0.18844 1.24316,-0.04779 1.31349,-0.08926c0.031,-0.01826 0.09737,-0.07092 0.13128,-0.07141"/></g><g stroke="none" stroke-linecap="butt" stroke-linejoin="miter"><path d="M240.4756,172.9202c0.23002,0.03796 0.32138,0.64512 0.20404,1.35613c-0.11734,0.711 -0.39896,1.25659 -0.62898,1.21864c-0.23002,-0.03796 -0.32137,-0.64511 -0.20403,-1.35612c0.11733,-0.71101 0.39895,-1.2566 0.62897,-1.21865z" fill="#169c5b" stroke-width="NaN"/><path d="M240.33195,173.82997c0.10107,0.01668 0.14326,0.27095 0.09426,0.56792c-0.049,0.29698 -0.17068,0.52422 -0.27175,0.50753c-0.10107,-0.01668 -0.14326,-0.27095 -0.09426,-0.56792c0.049,-0.29698 0.17068,-0.52422 0.27175,-0.50753z" fill="#000000" stroke-width="0"/><path d="M240.24735,173.67474c0.04959,-0.30045 0.18867,-0.5277 0.31066,-0.50757c0.12198,0.02013 0.18067,0.28001 0.13108,0.58048c-0.04959,0.30046 -0.18867,0.5277 -0.31066,0.50757c-0.12198,-0.02013 -0.18067,-0.28 -0.13108,-0.58047z" fill="#ffffff" stroke-width="0"/></g><g stroke="none" stroke-linecap="butt" stroke-linejoin="miter"><path d="M243.19838,174.96234c0.08276,-0.5015 0.28137,-0.88632 0.44363,-0.85955c0.16225,0.02677 0.22667,0.45502 0.14392,0.95652c-0.08277,0.5015 -0.28138,0.88633 -0.44364,0.85956c-0.16225,-0.02677 -0.22666,-0.45502 -0.14391,-0.95652z" fill="#169c5b" stroke-width="NaN"/><path d="M243.34901,175.10246c0.03457,-0.20947 0.12038,-0.36973 0.19167,-0.35796c0.07131,0.01177 0.10108,0.1911 0.0665,0.40057c-0.03458,0.20947 -0.12039,0.36974 -0.19168,0.35797c-0.07131,-0.01178 -0.10108,-0.19111 -0.0665,-0.40058z" fill="#000000" stroke-width="0"/><path d="M243.70015,174.27698c0.08605,0.0142 0.12743,0.19751 0.09246,0.40944c-0.03499,0.21192 -0.13308,0.37221 -0.21913,0.358c-0.08603,-0.0142 -0.12742,-0.19749 -0.09245,-0.40942c0.03499,-0.21192 0.13307,-0.37223 0.21912,-0.35802z" fill="#ffffff" stroke-width="0"/></g><path d="M239.00897,176.69933c0,0 -0.57051,-0.06332 -0.76564,-0.10434c-0.19513,-0.04103 -0.50952,-0.22127 -0.50952,-0.22127" data-paper-data="{&quot;index&quot;:null}" fill="none" stroke="#000000" stroke-width="0.125" stroke-linecap="round" stroke-linejoin="miter"/><g fill="#86cbb6" stroke="none" stroke-width="0" stroke-linecap="butt" stroke-linejoin="miter"><path d="M236.03462,169.25847c0,0 -0.31686,-0.01128 -0.88626,0.08092c-0.5694,0.0922 -1.22784,0.27608 -1.22784,0.27608l-0.08161,-1.22457c0,0 1.0773,-0.11714 1.58858,-0.03474c0.51127,0.0824 1.3768,0.6023 1.3768,0.6023l-0.76965,0.30002z"/><path d="M234.19591,170.50501c0,0 0.4682,-0.42841 0.73825,-0.65646c0.33663,-0.28427 1.12619,-0.91799 1.12619,-0.91799l0.71218,-0.02028c0,0 -0.92597,1.11705 -1.20852,1.48728c-0.20513,0.2688 -0.64384,0.83932 -0.64384,0.83932z"/></g><path d="M236.00037,167.60141c0.29653,-1.20877 0.62599,-1.6724 1.72872,-2.00661c1.14694,-0.20581 1.62198,0.37305 1.9633,0.97209c0.45036,0.77873 0.70268,1.85909 0.70268,1.85909c0,0 -1.1545,0.20452 -2.10356,0.54779c-1.6235,0.58723 -1.9455,0.91991 -1.9455,0.91991c0,0 -0.64217,-1.08348 -0.34564,-2.29226z" fill="#20201f" stroke="none" stroke-width="0" stroke-linecap="butt" stroke-linejoin="miter"/><path d="M238.10968,166.72737c1.03924,-0.17945 1.35571,1.09267 1.35571,1.09267c0,0 -0.64837,0.03304 -1.20316,0.14943c-0.94904,0.19912 -1.16418,0.34876 -1.16418,0.34876c0,0 -0.08405,-1.40167 1.01163,-1.59086z" fill="#b2b1b2" stroke="none" stroke-width="0" stroke-linecap="butt" stroke-linejoin="miter"/></g><g data-paper-data="{&quot;index&quot;:null}" stroke="none" stroke-width="0" stroke-linecap="butt" stroke-linejoin="miter"><path d="M241.419,181.59297c1.21726,-0.83468 2.68009,-0.81713 3.26729,0.03921c0.58721,0.85633 0.07643,2.2272 -1.14083,3.06189c-1.21726,0.83469 -2.68007,0.81715 -3.26728,-0.0392c-0.58721,-0.85634 -0.07643,-2.2272 1.14082,-3.06189z" fill="#20201f"/><path d="M241.09023,180.67619c0.85185,0.9868 1.6395,1.84072 1.6395,1.84072l-0.93947,0.77856c0,0 -1.28463,-1.60239 -1.62828,-2.00048c-0.56371,-0.65303 -1.31199,-1.45137 -2.18652,-2.34617c-0.21913,-0.22422 -0.2292,-0.46866 -0.0097,-0.70147c0.14748,-0.15641 0.34831,-0.2425 0.65579,0.00001c0.92857,0.73234 1.87287,1.73863 2.46868,2.42883z" fill="#fed5c7"/><path d="M239.48973,180.78165l-0.77313,-0.83865l1.12816,-0.89816l0.80137,0.81928z" fill="#83c4ac"/><path d="M239.36212,177.93027c0.74987,0.80601 0.51302,1.36831 0.03931,1.76112c-0.47371,0.39282 -0.97812,0.5404 -1.75478,-0.33858c-0.43685,-0.49441 -0.40698,-1.21366 0.06673,-1.60647c0.47372,-0.39281 1.19893,-0.29953 1.64874,0.18394z" fill="#20201f"/><path d="M241.58217,181.15749l-0.86195,0.74931l-0.60427,0.27254l-0.64558,-1.42593l1.18463,-0.9369l1.21773,0.86751z" fill="#bebec0"/><g><path d="M243.77275,182.73949c0,0 1.37344,0.56692 2.13581,1.0213c0.12146,0.0724 0.53414,1.08882 0.65054,1.56957c0.06357,0.26258 0.1852,0.75103 -0.18119,1.01901c-0.0934,0.06832 -0.65328,0.13881 -0.65328,0.13881l-0.12417,0.41963c0,0 -0.21078,0.15333 -0.36795,0.16792c-0.15716,0.01459 -0.43776,-0.07309 -0.43776,-0.07309c0,0 -0.14002,0.11174 -0.22209,0.21038c-0.26786,0.32198 -0.59057,0.09811 -0.59057,0.09811c0,0 -0.16757,0.25582 -0.37369,0.33721c-0.32675,0.12903 -0.77581,0.09515 -1.00029,-0.00135c-0.38132,-0.16392 -1.30658,-0.85868 -1.2373,-1.23895c0.1079,-0.59226 0.81691,-0.37512 0.81691,-0.37512c0,0 -0.42699,-0.46107 -0.50576,-0.8332c-0.12131,-0.57301 0.05156,-0.9109 0.05156,-0.9109l2.03926,-1.54933z" fill="#20201f"/><path d="M242.18772,186.03292c0,0 0.10431,1.38757 -0.12017,1.29107c-0.38132,-0.16392 -0.76602,-0.53569 -0.69674,-0.91596c0.1079,-0.59226 0.81691,-0.37512 0.81691,-0.37512z" fill="#c0c2c6"/></g></g></g></g></svg>