<svg version="1.1" xmlns="http://www.w3.org/2000/svg" xmlns:xlink="http://www.w3.org/1999/xlink" width="624.8618" height="624.8618" viewBox="0,0,624.8618,624.8618"><defs><radialGradient cx="240" cy="180" r="312.4309" gradientUnits="userSpaceOnUse" id="color-1"><stop offset="0" stop-color="#000000" stop-opacity="0.25098"/><stop offset="1" stop-color="#000000"/></radialGradient><linearGradient x1="240" y1="65.49998" x2="240" y2="360.50005" gradientUnits="userSpaceOnUse" id="color-2"><stop offset="0" stop-color="#000000" stop-opacity="0"/><stop offset="1" stop-color="#000000"/></linearGradient><linearGradient x1="248.64744" y1="75.56477" x2="248.64744" y2="79.73839" gradientUnits="userSpaceOnUse" id="color-3"><stop offset="0" stop-color="#2c4157" stop-opacity="0.74902"/><stop offset="1" stop-color="#2c4157" stop-opacity="0"/></linearGradient><radialGradient cx="246.43194" cy="57.56626" r="130.94209" gradientUnits="userSpaceOnUse" id="color-4"><stop offset="0" stop-color="#2c4056"/><stop offset="1" stop-color="#2c4056" stop-opacity="0"/></radialGradient><radialGradient cx="246.43194" cy="57.56626" r="130.94209" gradientUnits="userSpaceOnUse" id="color-5"><stop offset="0" stop-color="#000000"/><stop offset="1" stop-color="#001573"/></radialGradient><linearGradient x1="246.10652" y1="46.63849" x2="246.10652" y2="74.41676" gradientUnits="userSpaceOnUse" id="color-6"><stop offset="0" stop-color="#001573" stop-opacity="0.75294"/><stop offset="1" stop-color="#2c4056"/></linearGradient><radialGradient cx="246.10652" cy="60.52762" r="130.94209" gradientUnits="userSpaceOnUse" id="color-7"><stop offset="0" stop-color="#000000"/><stop offset="1" stop-color="#001573"/></radialGradient><linearGradient x1="245.15583" y1="79.84275" x2="245.15583" y2="79.84601" gradientUnits="userSpaceOnUse" id="color-8"><stop offset="0" stop-color="#001573"/><stop offset="1" stop-color="#042a5b"/></linearGradient><linearGradient x1="117.45419" y1="50.7885" x2="117.45419" y2="59.23673" gradientUnits="userSpaceOnUse" id="color-9"><stop offset="0" stop-color="#001573"/><stop offset="1" stop-color="#042a5b"/></linearGradient><linearGradient x1="123.91634" y1="52.82533" x2="123.91634" y2="62.50741" gradientUnits="userSpaceOnUse" id="color-10"><stop offset="0" stop-color="#001573"/><stop offset="1" stop-color="#042a5b"/></linearGradient><linearGradient x1="131.12643" y1="49.41825" x2="131.12643" y2="61.90505" gradientUnits="userSpaceOnUse" id="color-11"><stop offset="0" stop-color="#001573"/><stop offset="1" stop-color="#042a5b"/></linearGradient><linearGradient x1="136.11936" y1="42.87274" x2="136.11936" y2="65.31736" gradientUnits="userSpaceOnUse" id="color-12"><stop offset="0" stop-color="#001573"/><stop offset="1" stop-color="#042a5b"/></linearGradient><linearGradient x1="145.69606" y1="44.23026" x2="145.69606" y2="66.67486" gradientUnits="userSpaceOnUse" id="color-13"><stop offset="0" stop-color="#001573"/><stop offset="1" stop-color="#042a5b"/></linearGradient><linearGradient x1="150.84704" y1="40.52984" x2="150.84704" y2="62.97447" gradientUnits="userSpaceOnUse" id="color-14"><stop offset="0" stop-color="#001573"/><stop offset="1" stop-color="#042a5b"/></linearGradient><linearGradient x1="157.73669" y1="43.62602" x2="157.73669" y2="66.07065" gradientUnits="userSpaceOnUse" id="color-15"><stop offset="0" stop-color="#001573"/><stop offset="1" stop-color="#042a5b"/></linearGradient><linearGradient x1="169.68428" y1="42.29653" x2="169.68428" y2="64.74112" gradientUnits="userSpaceOnUse" id="color-16"><stop offset="0" stop-color="#001573"/><stop offset="1" stop-color="#042a5b"/></linearGradient><linearGradient x1="173.72884" y1="38.43801" x2="173.72884" y2="73.05335" gradientUnits="userSpaceOnUse" id="color-17"><stop offset="0" stop-color="#001573"/><stop offset="1" stop-color="#042a5b"/></linearGradient><linearGradient x1="181.56685" y1="32.99892" x2="181.56685" y2="55.44358" gradientUnits="userSpaceOnUse" id="color-18"><stop offset="0" stop-color="#001573"/><stop offset="1" stop-color="#042a5b"/></linearGradient><linearGradient x1="187.35008" y1="35.93707" x2="187.35008" y2="63.75579" gradientUnits="userSpaceOnUse" id="color-19"><stop offset="0" stop-color="#001573"/><stop offset="1" stop-color="#042a5b"/></linearGradient><linearGradient x1="205.54108" y1="31.44635" x2="205.54108" y2="65.58747" gradientUnits="userSpaceOnUse" id="color-20"><stop offset="0" stop-color="#001573"/><stop offset="1" stop-color="#042a5b"/></linearGradient><linearGradient x1="214.32746" y1="37.70377" x2="214.32746" y2="73.26745" gradientUnits="userSpaceOnUse" id="color-21"><stop offset="0" stop-color="#001573"/><stop offset="1" stop-color="#042a5b"/></linearGradient><linearGradient x1="222.16548" y1="35.74198" x2="222.16548" y2="71.30568" gradientUnits="userSpaceOnUse" id="color-22"><stop offset="0" stop-color="#001573"/><stop offset="1" stop-color="#042a5b"/></linearGradient><linearGradient x1="228.10677" y1="28.72232" x2="228.10677" y2="64.28598" gradientUnits="userSpaceOnUse" id="color-23"><stop offset="0" stop-color="#001573"/><stop offset="1" stop-color="#042a5b"/></linearGradient><linearGradient x1="231.36102" y1="31.66045" x2="231.36102" y2="67.22411" gradientUnits="userSpaceOnUse" id="color-24"><stop offset="0" stop-color="#001573"/><stop offset="1" stop-color="#042a5b"/></linearGradient><linearGradient x1="245.99566" y1="33.80828" x2="245.99566" y2="69.37194" gradientUnits="userSpaceOnUse" id="color-25"><stop offset="0" stop-color="#001573"/><stop offset="1" stop-color="#042a5b"/></linearGradient><linearGradient x1="251.14663" y1="28.05307" x2="251.14663" y2="63.61674" gradientUnits="userSpaceOnUse" id="color-26"><stop offset="0" stop-color="#001573"/><stop offset="1" stop-color="#042a5b"/></linearGradient><linearGradient x1="255.25622" y1="29.00143" x2="255.25622" y2="64.56508" gradientUnits="userSpaceOnUse" id="color-27"><stop offset="0" stop-color="#001573"/><stop offset="1" stop-color="#042a5b"/></linearGradient><linearGradient x1="271.47145" y1="29.56865" x2="271.47145" y2="65.13233" gradientUnits="userSpaceOnUse" id="color-28"><stop offset="0" stop-color="#001573"/><stop offset="1" stop-color="#042a5b"/></linearGradient><linearGradient x1="275.1999" y1="27.92303" x2="275.1999" y2="63.4867" gradientUnits="userSpaceOnUse" id="color-29"><stop offset="0" stop-color="#001573"/><stop offset="1" stop-color="#042a5b"/></linearGradient><linearGradient x1="280.35087" y1="30.86116" x2="280.35087" y2="66.42482" gradientUnits="userSpaceOnUse" id="color-30"><stop offset="0" stop-color="#001573"/><stop offset="1" stop-color="#042a5b"/></linearGradient><linearGradient x1="285.50185" y1="27.3188" x2="285.50185" y2="62.88248" gradientUnits="userSpaceOnUse" id="color-31"><stop offset="0" stop-color="#001573"/><stop offset="1" stop-color="#042a5b"/></linearGradient><linearGradient x1="290.17866" y1="24.25062" x2="290.17866" y2="59.8143" gradientUnits="userSpaceOnUse" id="color-32"><stop offset="0" stop-color="#001573"/><stop offset="1" stop-color="#042a5b"/></linearGradient><linearGradient x1="296.91024" y1="31.4564" x2="296.91024" y2="67.02004" gradientUnits="userSpaceOnUse" id="color-33"><stop offset="0" stop-color="#001573"/><stop offset="1" stop-color="#042a5b"/></linearGradient><linearGradient x1="306.32888" y1="26.8076" x2="306.32888" y2="62.37128" gradientUnits="userSpaceOnUse" id="color-34"><stop offset="0" stop-color="#001573"/><stop offset="1" stop-color="#042a5b"/></linearGradient><linearGradient x1="311.95403" y1="38.43909" x2="311.95403" y2="74.00276" gradientUnits="userSpaceOnUse" id="color-35"><stop offset="0" stop-color="#001573"/><stop offset="1" stop-color="#042a5b"/></linearGradient><linearGradient x1="319.00176" y1="23.83247" x2="319.00176" y2="59.39615" gradientUnits="userSpaceOnUse" id="color-36"><stop offset="0" stop-color="#001573"/><stop offset="1" stop-color="#042a5b"/></linearGradient><linearGradient x1="336.16537" y1="30.72213" x2="336.16537" y2="66.2858" gradientUnits="userSpaceOnUse" id="color-37"><stop offset="0" stop-color="#001573"/><stop offset="1" stop-color="#042a5b"/></linearGradient><linearGradient x1="340.84216" y1="26.2314" x2="340.84216" y2="61.79508" gradientUnits="userSpaceOnUse" id="color-38"><stop offset="0" stop-color="#001573"/><stop offset="1" stop-color="#042a5b"/></linearGradient><linearGradient x1="347.25763" y1="30.9082" x2="347.25763" y2="66.47187" gradientUnits="userSpaceOnUse" id="color-39"><stop offset="0" stop-color="#001573"/><stop offset="1" stop-color="#042a5b"/></linearGradient><linearGradient x1="365.68573" y1="45.38477" x2="365.68573" y2="62.29727" gradientUnits="userSpaceOnUse" id="color-40"><stop offset="0" stop-color="#001573"/><stop offset="1" stop-color="#042a5b"/></linearGradient><linearGradient x1="370.67864" y1="52.43248" x2="370.67864" y2="62.63084" gradientUnits="userSpaceOnUse" id="color-41"><stop offset="0" stop-color="#001573"/><stop offset="1" stop-color="#042a5b"/></linearGradient><linearGradient x1="376.76611" y1="56.91604" x2="376.76611" y2="58.66874" gradientUnits="userSpaceOnUse" id="color-42"><stop offset="0" stop-color="#001573"/><stop offset="1" stop-color="#042a5b"/></linearGradient><linearGradient x1="249.63533" y1="68.25525" x2="249.63533" y2="77.01973" gradientUnits="userSpaceOnUse" id="color-43"><stop offset="0" stop-color="#152130"/><stop offset="1" stop-color="#152130" stop-opacity="0"/></linearGradient><radialGradient cx="250.13137" cy="71.892" r="95.34964" gradientUnits="userSpaceOnUse" id="color-44"><stop offset="0" stop-color="#23375c" stop-opacity="0"/><stop offset="1" stop-color="#23375c"/></radialGradient><radialGradient cx="250.13137" cy="71.892" r="95.34964" gradientUnits="userSpaceOnUse" id="color-45"><stop offset="0" stop-color="#23375c" stop-opacity="0"/><stop offset="1" stop-color="#23375c"/></radialGradient><linearGradient x1="250.13137" y1="67.74282" x2="250.13137" y2="76.04119" gradientUnits="userSpaceOnUse" id="color-46"><stop offset="0" stop-color="#23375c" stop-opacity="0"/><stop offset="1" stop-color="#23375c"/></linearGradient><linearGradient x1="250.13137" y1="67.74282" x2="250.13137" y2="76.04119" gradientUnits="userSpaceOnUse" id="color-47"><stop offset="0" stop-color="#23375c" stop-opacity="0"/><stop offset="1" stop-color="#23375c"/></linearGradient><linearGradient x1="249.63532" y1="67.97701" x2="249.63532" y2="77.01977" gradientUnits="userSpaceOnUse" id="color-48"><stop offset="0" stop-color="#152130" stop-opacity="0"/><stop offset="1" stop-color="#152130"/></linearGradient></defs><g transform="translate(72.4309,132.4309)"><g data-paper-data="{&quot;isPaintingLayer&quot;:true}" fill-rule="nonzero" stroke-linecap="butt" stroke-linejoin="miter" stroke-dasharray="" stroke-dashoffset="0" style="mix-blend-mode: normal"><path d="M-1.79555,362v-362.05443h485.15294v362.05444z" fill="#020811" stroke="none" stroke-width="0" stroke-miterlimit="10"/><g stroke="none" stroke-width="1" stroke-miterlimit="10"><g fill="#020811"><path d="M409.95073,296.10671c0,-5.27884 0.8335,-11.39118 1.667,-13.94725l1.667,-4.44533h5.00101h5.00101l1.94483,8.05717l1.667,8.33501l-3.05618,5.55667l-3.05617,5.83451h-5.27884h-5.55667v-9.44634z"/><path d="M202.74248,250.7088l2.22267,-18.94824l-0.55567,-33.95126l-0.83349,-34.2291h4.1675h4.1675l4.44533,9.1685l4.44533,8.89067l-1.667,29.22809c-1.11134,16.16991 -3.05617,35.89609 -4.44533,44.00883l-2.77834,14.50291h-5.83451h-5.8345z"/><path d="M185.79464,242.37381c-1.11134,-8.89067 -3.05617,-20.89308 -4.44533,-26.72759l-2.77834,-10.27984l1.667,-2.77834c0.8335,-1.667 3.334,-2.77834 5.55666,-2.77834h3.88967l1.667,10.55767c0.8335,5.55667 2.77834,14.22508 4.1675,18.67041l2.77834,8.33501l-1.94483,10.55768l-1.667,10.27984h-3.61184h-3.61184l-1.667,-15.89208z"/><path d="M233.69314,243.48512l-7.5015,-3.05617l1.667,-8.89067l1.667,-9.1685l-3.334,-9.72416l-3.05617,-9.72417l3.61184,-5.55667l3.61184,-5.8345h3.334h3.334l1.94483,10.55767l1.94484,10.27985l2.5005,-8.89067l2.5005,-9.16851h2.5005h2.77834v-15.33641v-15.33641h-2.22267h-2.5005l-2.5005,-13.11374l-2.77834,-13.39157l-2.22267,18.94824l-2.22266,19.22608l-5.83451,-1.667c-3.334,-0.8335 -7.77933,-1.667 -9.44634,-1.667h-3.61184v-6.94584v-6.94584h-5.00101h-5.001l-3.334,-3.334l-3.334,-3.334v-8.61284l0.27783,-8.33501l3.61184,-5.001l3.61183,-4.72317h3.88967h3.88967l6.39018,9.16851l6.11233,8.89067l-1.667,-22.28225l-1.94483,-22.28225l-2.77834,-1.667l-2.5005,-1.667l0.8335,-15.05858l0.55566,-15.05858l-1.94483,-13.11374l-2.22267,-13.11375l5.001,-6.94584l5.27884,-6.94584l3.61184,-0.27783h3.334v2.77834v2.77834h5.55667h5.55666l-0.8335,26.44975l-0.55566,26.72759l3.05617,1.94483l3.05617,1.94483l1.667,34.2291l1.667,33.95126l4.44533,4.44533l4.16749,4.44533l-0.27783,12.83591c-0.27783,7.22367 0.55567,21.72659 1.667,32.28426l2.22267,19.22608l-5.27884,-1.38916l-5.55667,-1.38917l-3.334,3.61184l-3.334,3.61184v7.22367v6.94584l-3.334,-0.27783c-1.94483,-0.27783 -6.94584,-1.667 -11.39117,-3.334z"/><path d="M202.74248,104.51279c-0.8335,-3.61184 -1.667,-14.78075 -1.667,-25.06059v-18.94824h3.88967h3.88967l1.667,6.39017c0.8335,3.334 1.667,14.50292 1.667,25.06059v18.67041h-3.88967h-3.88967z"/><path d="M206.68772,19.32883v-7.77934l3.61184,-7.5015l3.334,-7.5015h4.72317h4.72317l1.667,12.28024l1.94483,12.55808l-1.94483,2.77834l-1.667,3.05617h-8.33501h-8.05717v-7.77934z"/></g><g fill="#051e34"><path d="M30.09672,356.56343c-0.8335,-2.77834 -2.77834,-13.66941 -4.72317,-23.94925l-3.05618,-18.94824l1.38917,-5.27884l1.38916,-5.27884l-3.334,-1.38917l-3.05617,-1.11134l4.1675,-3.05617l3.88967,-2.77834l-3.334,-10.55768c-2.22267,-5.83451 -4.72317,-13.11374 -6.11233,-16.16991c-8.89067,-20.05958 -11.66902,-25.89409 -15.33641,-32.00643l-4.1675,-6.94584l0.27783,-15.33641l0.27783,-15.33641l2.77834,9.72417c1.38917,5.27884 3.88967,10.83551 5.27884,12.28024c1.38917,1.667 2.5005,5.001 2.5005,7.77933v5.00101h2.77834h2.77834v4.72317v4.44533l1.94483,-1.94483c1.11134,-0.8335 3.334,-6.11233 5.001,-11.11334l3.334,-9.44634l-5.27884,-5.27884l-5.001,-5.27884l-5.55667,-14.50291l-5.55667,-14.50292h3.61184c1.94483,0 6.11233,1.94483 9.44634,4.1675l5.8345,4.1675l1.11134,-13.39157l1.11134,-13.11374l-3.61184,-6.94584c-1.94483,-3.88967 -3.61184,-8.33501 -3.61184,-9.72417c0,-1.667 -2.77834,-7.22367 -6.39018,-12.55808l-6.39018,-9.72417l-0.55566,-9.72417l-0.8335,-9.72417l-2.5005,-2.5005l-2.77834,-2.77834v-23.39358v-23.11575l5.00101,0.8335l4.72317,0.8335l0.8335,6.11233l0.8335,6.39017l6.94584,-6.94584c8.05717,-8.05717 11.11334,-8.61285 13.11375,-3.05617l1.667,4.1675l-2.5005,8.33501c-1.11134,4.72317 -2.22267,14.22508 -2.22267,21.17092v12.55808l3.61184,3.88967l3.61184,3.61184l1.94483,12.83591l1.94483,12.83591l-4.44533,4.44533l-4.44533,4.44533v5.00101v5.001l5.001,4.44533l5.27884,4.72317h4.44533h4.72317l0.27783,5.00101c0.27783,2.5005 0.27783,5.8345 0,7.22367c-0.27783,1.11134 0.8335,3.88967 2.5005,5.8345l2.77834,3.61184l-0.8335,21.17092l-0.8335,21.17092h3.05618h3.334l3.05618,6.94584c1.94483,3.88967 3.334,8.33501 3.334,9.72417v2.77834h-6.11234h-6.39017l3.05617,2.22267l3.05618,1.94483l2.22267,16.44774c1.11134,9.1685 2.5005,18.11474 3.334,20.33741l1.38917,3.61184h-4.44533h-4.44533l-0.27783,3.61184c-0.27783,1.667 0,5.00101 0.27783,7.22368l0.55567,3.88967l-3.334,1.94483l-3.61184,2.22267l5.00101,12.83591l5.001,12.8359h3.334h3.334l2.77834,12.55808l2.77834,12.55808h-11.94684h-11.66901l-1.94484,-8.33501l-1.94483,-8.33501l-3.88967,3.88967l-3.88967,4.1675v4.16749v4.44533h-2.5005h-2.77834z"/><path d="M92.49814,356.56343c0,-2.77834 -3.334,-15.05858 -6.94584,-27.00542l-7.22367,-22.00441l1.38917,-3.05617l1.11134,-3.05618l0.27783,3.61184l0.27783,3.61184l2.5005,-1.38917l2.5005,-1.667l6.94584,27.83892l6.94584,27.83891h-3.88967h-3.88967z"/><path d="M189.40648,349.6176c-0.27783,-6.66801 -0.27783,-16.44775 0,-21.72658c0.27783,-5.27884 0,-12.55808 -0.8335,-15.89208l-1.38917,-6.39018h-3.88967h-3.88967l-1.667,-4.44533c-0.8335,-2.5005 -1.667,-11.66902 -1.667,-20.89308v-16.44774h4.1675h4.16749v-5.8345v-5.83451l4.1675,1.667l4.44533,1.667l1.38916,-4.1675l1.667,-4.1675h3.88967h3.88967v9.72417v9.72417h2.77834h2.77834l1.667,-11.39117l1.94483,-11.39117l3.61184,-1.38917l3.88967,-1.38917v-5.001v-5.27884l-2.77834,-1.667l-2.77834,-1.667v-7.77934v-7.5015l3.05617,-3.05618l3.05617,-3.05617l-1.667,-12.28025c-0.8335,-6.39018 -1.94483,-15.61425 -2.22266,-20.33741l-0.8335,-8.33501h-4.1675h-4.1675l0.8335,29.22809l0.8335,28.95026l-1.667,9.1685l-1.667,9.1685h-1.94484c-2.22267,0 -8.89067,-19.78175 -8.89067,-26.17192v-3.88967l3.05618,-1.11134l3.05617,-1.11134l-3.334,-11.94684l-3.334,-12.28025l2.77834,-1.667l2.5005,-1.667l1.38916,-10.00201l1.11134,-10.00201l-3.61184,-3.334l-3.61184,-3.334v-6.66801c0,-3.61184 0.8335,-8.33501 1.667,-10.83551l1.667,-4.44533h3.61184h3.334l-1.38916,6.94584l-1.11134,6.94584l3.334,4.1675c1.94483,2.22267 4.44533,4.1675 5.83451,4.1675h2.5005v-5.55667v-5.55667h2.77834h2.77834v12.8359v12.83591l3.88967,-3.05617l3.88967,-3.334l1.667,4.44533l1.667,4.44533l2.5005,-1.38917l2.5005,-1.667l1.94483,6.39017l1.94483,6.11233l1.38917,-4.72317l1.11134,-5.001h3.88967h3.61183l1.667,4.44533c0.8335,2.5005 1.667,8.61284 1.667,13.94725v9.72417l-2.5005,-1.667l-2.77834,-1.38917l-1.667,5.55667l-1.667,5.55667h-3.05617h-2.77834l1.11134,-9.72417l1.11134,-9.72417h-1.94483c-1.11134,0 -4.44533,3.33401 -7.5015,7.77934l-5.55667,7.5015l2.77834,6.94584l2.5005,6.94584l-0.8335,10.00201l-0.8335,10.00201l7.5015,3.05617l7.77933,2.77834v-6.94584v-6.94584l3.88967,1.38917l4.1675,1.667l1.667,-5.55667l1.667,-5.27884l2.77834,1.38917l2.5005,1.667v-5.55667v-5.83451h2.77834h2.77834l0.27783,6.39018c0,3.334 1.94483,12.55808 3.61184,20.05958l3.61184,13.94725l-0.27783,-19.50392l-0.27783,-19.22608l-4.72317,-5.001c-2.77834,-2.77834 -6.39017,-5.001 -8.05717,-5.001h-3.05617l2.22267,-10.27985l2.22267,-10.55767l-0.55567,-13.66941l-0.55567,-13.94725l3.05617,-1.94483l3.334,-1.94483l-1.94483,-10.00202l-1.94483,-10.00201h-2.22267h-2.22267l-1.94483,-13.11375c-1.11134,-7.5015 -2.77834,-19.50392 -3.61184,-27.28326l-1.94483,-13.94725l-1.38916,6.11234l-1.667,6.11233l-4.16749,-2.5005l-4.1675,-2.5005l0.55566,-26.72759l0.27783,-26.44976h-2.5005h-2.5005v6.66801v6.66801l-4.1675,1.667l-4.1675,1.38916l1.94483,-11.66902l1.667,-11.66901l-7.22367,8.33501l-7.5015,8.33501l-2.77834,-4.1675l-2.77834,-4.1675l0.27783,18.11475l0.27783,18.11475l1.94483,-8.05717l1.667,-8.05717l3.05617,-1.11134l3.05617,-1.11134l1.667,5.83451l1.38917,5.83451l-1.38917,15.33641l-1.667,15.05858h-2.22267h-2.5005v4.44533v4.1675l5.55667,-1.667l5.55667,-1.667l0.55566,12.55808c0.27783,6.94584 0.55567,15.05858 0.55567,17.55909l0.27783,5.001l-4.72317,0.8335l-5.00101,0.8335l-0.27783,-7.77934v-7.77934l-1.94483,4.1675l-1.94483,4.1675l-6.11234,0.55567l-6.39017,0.8335v-4.44533v-4.1675l-5.55667,1.667l-5.55667,1.667l-3.61184,-3.61184c-2.22267,-1.94483 -5.27884,-6.66801 -7.22367,-10.00201l-3.61184,-6.66801l1.667,-3.88967l1.38917,-3.88967h8.89067h8.61284l-1.94483,-10.27985c-1.11134,-5.83451 -1.94483,-16.44774 -1.94483,-23.67141l-0.27783,-13.39158h-2.22267h-2.5005v6.94584v6.94584h-5.27884h-5.27884l-1.667,-6.66801c-0.8335,-3.61184 -2.77834,-15.61425 -4.44533,-26.72759c-1.667,-11.11334 -3.61184,-23.11576 -4.44533,-26.72759l-1.667,-6.66801h6.94584h7.22367l1.667,13.39158c2.5005,17.00341 4.1675,22.83792 6.66801,22.83792h1.94483l3.88967,-18.11475l3.88967,-18.11475h7.77933h7.77934v5.27884v5.55667l-2.77834,1.667l-2.77834,1.667v6.94584v6.66801h5.001h5.27884l5.55667,-6.11233l5.55667,-6.39017l1.94483,-7.5015l1.667,-7.77934h16.44774h16.44775l1.667,11.94684l1.38917,11.66902l-2.22267,18.11475l-2.22267,18.11475l1.38917,4.72317l1.11134,5.001l-4.1675,1.667l-4.1675,1.667l5.27884,5.27884c3.05617,3.05618 6.668,8.61285 8.05717,12.55808l2.77834,6.94584v15.89208l0.27783,15.89209l4.1675,-11.11334c2.22267,-6.11233 5.001,-13.39157 5.83451,-16.16991l1.38916,-4.72317h3.88967h3.88967v2.5005v2.5005l5.55667,-1.38917l5.55667,-1.38917v-10.83551v-10.83551l-5.27884,-5.27884l-5.27884,-5.27884l-1.94483,6.94584l-1.667,6.94584l-3.88967,-1.667l-3.88967,-1.38916l-1.38917,3.334l-1.667,3.334l1.38917,-10.27985l1.667,-10.00201l-3.05618,-1.94483l-3.05617,-1.94483l1.94483,-10.00202c0.8335,-5.55667 2.77834,-11.39117 4.1675,-13.11375l2.5005,-2.5005l0.27783,10.83551l0.27783,11.11334l1.38917,-3.334l1.38916,-3.61184h3.88967h3.88967v7.22367v6.94584l2.77834,-1.667l2.5005,-1.667l1.94483,-9.72417l1.667,-9.72417l4.72317,-3.05617l4.44533,-2.77834l-1.11134,-12.55808l-0.8335,-12.83591l3.05617,1.94483l3.05618,1.94483v-6.94584v-7.22367h2.5005h2.5005l0.27783,10.27984c0,9.44634 2.22267,48.732 3.61184,67.68025c0,3.88967 -0.55566,9.44634 -1.94483,12.28024l-2.22267,5.27884l2.77834,-1.667l3.05617,-1.94483l-0.55566,10.55767c-0.55567,5.55667 -0.8335,14.50292 -1.11134,19.78175l-0.55566,9.16851l-6.94584,-4.44533l-6.94584,-4.44533l-0.55566,1.94483c0,1.38917 -0.55567,3.61184 -0.8335,5.00101c-0.55567,1.667 -0.8335,6.39018 -1.11134,10.55768l-0.27783,7.77933l-2.77834,-1.667l-2.77834,-1.667v5.27884c0,3.05618 -0.55567,9.72417 -1.38917,14.78074l-1.38917,9.44634l1.667,-3.61183l1.667,-3.334l2.22267,1.38917l2.22267,1.38916l3.334,-10.27984c1.94483,-5.8345 4.44533,-11.66902 5.83451,-13.11375l2.5005,-2.77834v7.22367v7.5015l-2.5005,1.667c-1.38917,0.8335 -3.334,5.27884 -4.44533,9.72417l-1.94483,8.33501l-5.001,2.77834l-5.001,2.77834l-3.61184,-14.78074c-2.22267,-7.77933 -3.88967,-15.89208 -3.88967,-17.83691c0,-1.667 -1.11134,-4.1675 -2.22267,-5.27884c-1.11134,-1.11134 -1.94483,-4.1675 -1.94483,-6.66801v-5.00101l-4.72317,-3.61184l-4.72317,-3.88967l2.22267,5.55667c1.38917,3.05618 3.05617,11.39117 3.61184,18.39258l1.38916,12.8359l-3.05617,1.94483l-3.05617,1.94483v-4.44533v-4.44533l-2.5005,1.667l-2.77834,1.38916l2.5005,8.61284l2.5005,8.61284l-1.667,12.28025l-1.667,12.28025h3.05617h3.05617l-0.8335,42.34183l-0.8335,42.34183l-3.05617,1.11134l-3.334,1.11134v6.66801v6.94584l-4.1675,1.38917l-4.1675,1.667v3.88967v3.88967h2.77834h2.77834l0.27783,9.16851l0.27783,8.89067l2.77834,-9.72417c1.38917,-5.27884 3.88967,-10.83551 5.27884,-12.28025l2.5005,-2.77834v-6.66801v-6.66801l4.1675,1.667l3.88967,1.38917l3.05617,-11.11334l3.05617,-11.11334l-1.38916,-3.33401l-1.11134,-3.334l-0.27783,6.39017l-0.27783,6.11233h-3.05617h-3.334l1.667,-24.50491l1.38917,-24.50492l3.61184,-7.5015l3.334,-7.5015l-4.44533,-5.001l-4.72317,-5.27884v-8.33501v-8.61284l3.61184,-3.05618l3.61184,-3.05618l3.05617,3.05618l3.05617,3.05618l1.667,-3.05618c1.11134,-1.667 3.88967,-3.05618 6.11234,-3.05618h4.1675l-0.55566,6.39018c-0.27783,3.334 -0.27783,10.00201 0,14.50291l0.55566,8.33501l5.27884,-6.39017l5.27884,-6.39018l0.8335,10.55767c0.55567,5.8345 0.55567,18.94824 0,29.50592l-1.11134,18.67042h-2.5005h-2.5005l-0.27783,-8.89067l-0.27783,-9.1685l-2.22266,6.94584l-2.22267,6.94584l-0.27783,-4.1675c-0.27783,-2.22267 -1.11134,-7.22367 -2.22267,-10.83551l-1.667,-6.66801l3.05617,1.94483l3.334,1.94483v-8.89067v-9.1685l-4.1675,5.55667l-3.88967,5.27884l-0.27783,-4.1675l-0.27783,-4.1675l-2.77834,6.66801l-2.77834,6.66801l4.1675,12.83591l4.1675,12.8359l0.55566,19.50392l0.55567,19.50392l-1.94483,8.61284l-1.94483,8.89067l-4.72317,-0.55566l-4.72317,-0.27783l-0.8335,20.89308l-0.8335,20.61525l-3.05617,3.61184l-2.77834,3.61184h-9.44634h-9.1685l-0.8335,-13.11374l-0.8335,-13.39157l-3.334,6.94584c-3.88967,9.1685 -11.66902,15.89208 -20.89308,18.11475l-7.77933,1.94483v-4.44533v-4.44533l6.94584,-1.667l6.94584,-1.667v-2.22267c0,-1.38917 -0.8335,-4.1675 -1.667,-6.66801l-1.667,-4.44533h-4.44533h-4.1675l1.667,-25.61625l1.667,-25.89408l3.05617,-0.8335l2.77834,-1.11134v-3.88967v-3.88967h-4.1675h-4.1675v-10.27984v-10.55768l-6.39017,-3.05617l-6.66801,-3.05617l-3.05617,12.28025c-1.94483,6.66801 -3.334,15.33641 -3.334,19.22608v7.22367l-5.55667,1.38917l-5.55667,1.38917v13.39157c0,7.5015 -0.8335,15.33641 -1.667,17.83691l-1.667,4.44533h-3.88967h-3.88967v4.1675v4.1675h2.22267c1.11134,0 3.334,3.334 5.001,7.77934l2.5005,7.5015l-0.8335,6.39017l-0.8335,6.11233h-5.55666h-5.27884v-3.334v-3.334l-3.334,3.334c-1.94483,1.94483 -4.44533,3.334 -5.55667,3.334h-2.22267l-0.55566,-11.66901zM206.96555,68.89437l-2.77834,-6.94584v16.72558c-0.27783,9.1685 0.8335,19.78175 1.94483,23.67142l1.94483,6.94584l0.8335,-16.72558l0.8335,-17.00341z"/><path d="M370.94292,359.34176c0,-4.1675 5.8345,-38.45216 7.22367,-42.8975l1.38917,-4.72317l5.27884,-1.38917l5.55667,-1.38917v-5.8345v-5.83451h5.55667h5.55667v-6.11233l0.27783,-6.39018l3.61184,-4.72317c1.94483,-2.77834 5.001,-5.00101 6.66801,-5.00101h2.77834l6.39018,-13.11374l6.66801,-13.39157l1.38917,-23.39358l1.38916,-23.39358l3.61184,-1.38916l3.334,-1.11134v5.27884v5.001l4.44533,-8.33501l4.1675,-8.05717l-1.94483,-14.78074l-1.667,-14.78074l3.05617,-3.88967l3.05618,-3.61184l6.66801,1.11134l6.66801,1.38917l-0.8335,11.66901c-0.55566,6.11233 -1.667,20.33741 -2.77834,30.89509l-1.38917,19.50391l3.05617,-4.1675l2.77834,-4.1675l-1.94483,12.55808c-0.8335,6.94584 -2.77834,14.78074 -4.1675,17.28125c-1.38917,2.5005 -2.5005,7.77934 -2.5005,11.66902v7.22367l-3.334,-0.55566l-3.61183,-0.8335l-1.667,-6.94584l-1.38917,-6.94584l-4.44533,15.33641l-4.44533,15.33641l-0.27783,16.72558l-0.55566,16.72558l-2.77834,9.1685l-3.05617,9.16851l1.667,4.1675l1.667,4.1675l-5.00101,-0.8335l-4.72317,-0.8335l-0.8335,-8.89067l-0.8335,-8.61284l-5.55667,-1.38917l-5.55667,-1.38917l-1.11134,3.05617c-0.55567,1.94483 -1.667,5.83451 -3.05617,8.89067l-1.94483,5.55667l-1.667,-8.33501l-1.94483,-8.33501l-3.334,9.44634c-1.94483,5.27884 -3.334,13.11374 -3.334,17.55908v8.05717l2.77834,-1.667l2.77834,-1.667l-1.38917,-2.77834l-1.667,-2.5005h2.77834h3.05617l0.27783,5.00101v4.72317l2.5005,-6.11233l2.5005,-6.39018h8.89067h8.61284l-1.38916,5.55667l-1.38917,5.55666l4.1675,-0.55566l4.1675,-0.8335l2.22266,5.8345l2.22267,5.83451l-31.7286,0.55566l-31.72859,0.27783v-1.94484zM420.78625,297.77361l2.77834,-5.27884l-1.667,-5.8345c-2.77834,-11.39118 -9.16851,-4.72317 -9.16851,9.44634v6.66801h2.77834c1.38917,0 3.88967,-2.22267 5.27884,-5.00101z"/><path d="M442.23499,358.78609c-0.8335,-1.11134 -1.38916,-8.33501 -1.11134,-15.89208l0.27783,-13.66941l6.11233,-8.33501c8.33501,-11.11334 15.89208,-26.17191 17.83691,-35.61826l1.667,-7.77934h2.77834c1.667,-0.27783 5.00101,-1.38916 7.77934,-2.77834l4.72317,-2.77834v40.397v40.11916l-1.667,4.44533l-1.667,4.44533h-17.55909h-17.83691l-1.38917,-2.5005z"/><path d="M339.21432,340.11567c-2.5005,-6.66801 -1.94483,-22.28225 1.11134,-30.33943l2.77834,-7.22368l2.77834,1.667l2.77834,1.667v-4.1675v-4.44533h4.1675h4.1675v-11.39117v-11.11334l2.77834,1.667l2.77834,1.667v12.83591v12.55808l-4.1675,-1.667l-4.1675,-1.38916l-0.27783,3.334c0,1.94483 -0.55566,5.55667 -1.11134,8.33501l-0.8335,5.27884l-5.27884,3.61184l-5.001,3.61184l5.001,5.55666l5.001,5.55667l-4.44533,4.44533c-5.55667,5.55667 -5.8345,5.55667 -8.05717,0z"/><path d="M139.56313,324.27899l-3.334,-7.5015l-4.44533,-0.27783c-2.5005,-0.27783 -5.27884,-0.27783 -6.39018,0c-1.38917,0 -2.22267,-1.11133 -2.22267,-2.5005c0,-1.38917 -0.8335,-2.5005 -1.94483,-2.5005c-1.38917,0.27783 -3.88967,0.27783 -5.55667,0l-3.61184,-0.27783v-12.55808v-12.55808h4.1675h4.1675v-2.5005c0,-1.667 -1.11134,-3.61184 -2.77834,-4.44533l-2.77834,-1.667v3.05618v3.334l-3.334,-1.11134l-3.05617,-1.11134l-1.11134,-6.11233c-0.27783,-3.61183 -2.77834,-9.1685 -5.00101,-12.55808l-3.88967,-6.11233l0.27783,-20.89308l0.55567,-20.89308l-3.61184,-15.05857l-3.88967,-14.78074l2.22267,-17.28125c1.11134,-9.1685 2.22267,-20.05958 2.77834,-23.94925l0.55566,-6.94584l-2.77834,-1.94483l-2.77834,-1.667l4.44533,-4.44533c2.22267,-2.5005 5.00101,-4.44533 5.55667,-4.44533c1.94483,0 4.44533,19.22608 6.39018,47.8985l1.667,24.22708l5.001,-4.72317c2.5005,-2.5005 5.55667,-6.94584 6.66801,-10.00201l1.667,-5.27884l-5.55667,-9.44634l-5.55667,-9.44634v-8.33501v-8.33501l2.77834,1.667l2.77834,1.667v-5.55667v-5.83451h4.44533h4.44533l-1.667,6.94584l-1.667,6.94584h2.77834h2.77834v4.1675v4.1675h2.77834h2.77834v7.77933v7.77934l-3.334,3.334l-3.334,3.334l5.55667,3.88967l5.27884,3.88967l0.27783,38.73l0.27783,38.45216l3.05618,12.55808c1.667,6.94584 3.334,17.28124 3.334,22.83792v10.27985l2.77834,1.667l2.77834,1.667v5.00101c0,2.5005 -1.667,7.22367 -3.88967,10.00201l-3.88967,5.55667zM127.00506,217.09095l-1.94483,-18.67041l-2.5005,6.66801l-2.22267,6.66801l1.667,10.00201l1.94483,10.00201l-6.11233,-5.27884c-6.66801,-6.11233 -7.22367,-5.83451 -9.72416,4.1675l-1.667,7.5015l4.1675,1.667l4.1675,1.38917l4.1675,-1.38917l4.1675,-1.667v3.61184l0.27783,3.88967l2.77834,-5.00101l2.77834,-5.001l-1.94483,-18.67041z"/><path d="M444.17983,290.54995l0.55566,-16.44774l4.72317,-0.8335l4.72317,-0.55566l-1.667,8.61285c-1.11134,5.001 -3.334,12.83591 -5.55667,17.28124l-3.61183,8.33501l0.8335,-16.44775z"/><path d="M83.0518,288.88294l-5.001,-14.22508l1.667,-1.667l1.667,-1.667l5.55667,12.28024c5.83451,13.11374 6.94584,19.22609 3.334,19.22609h-2.22266z"/><path d="M70.21588,188.6408v-3.05618l-2.22267,1.38917l-2.22267,1.38916l-7.5015,-16.44775c-3.88967,-9.1685 -8.05717,-21.17092 -9.1685,-27.00542c-0.8335,-5.83451 -3.334,-16.72558 -5.001,-24.50492c-1.94483,-7.5015 -3.334,-17.83691 -3.05618,-22.56008l0.55566,-8.61285l4.44533,-6.39017l4.44533,-6.39018l5.00101,5.00101l5.00101,5.27884l1.38917,-8.33501l1.667,-8.05717l1.94483,15.33641c1.11134,8.33501 1.94484,23.39358 1.94484,33.11776v17.55909l-5.27884,-1.38916l-5.27884,-1.38917l-1.667,6.11233l-1.38917,5.83451l2.5005,0.8335c1.667,0.55567 2.77834,2.77834 2.77834,4.72317v3.61183l6.94584,1.667l6.94584,1.667l1.667,6.94584c0.8335,3.61183 1.94483,10.83551 1.94483,15.61425l0.55566,8.89067l-3.334,1.11134l-3.61184,1.38917z"/><path d="M341.71482,169.69254l0.27783,-23.11575l3.88967,-2.5005l3.61184,-2.22267l3.61184,1.38917l3.33401,1.38917l-3.88967,9.44634l-3.88967,9.44634h2.5005h2.77834l1.11134,-4.72317l1.38917,-5.001l0.27783,10.55767l0.27783,10.27984l-6.66801,3.334l-6.94584,3.05617l-1.11134,5.83451c-0.55567,3.05618 -0.83349,-4.44533 -0.55566,-17.28125z"/><path d="M467.01776,183.63981l-1.38917,-3.61184l4.44533,-13.94725l4.72317,-13.94725l-1.94483,-1.667l-1.667,-1.667v3.05618v3.334h-4.16749h-4.1675l-0.27783,-21.44875l-0.27783,-21.72659l-2.5005,11.11334c-1.38917,6.11233 -3.88967,14.50292 -5.55667,18.94824l-3.05617,7.5015h-2.5005h-2.5005l-0.27783,-10.27985l-0.27783,-10.55767l-2.77834,8.33501l-2.77834,8.33501l-1.11134,19.22608c-1.11134,20.61524 -1.94483,22.83792 -6.39017,19.78175l-3.05618,-1.667l0.27783,-18.67041c0.27783,-10.27984 1.11134,-25.61625 2.22267,-33.95126l1.667,-15.33641l3.61184,0.8335l3.88967,0.8335l-1.94483,-6.11234l-1.94483,-5.83451l2.77834,-1.94483l3.05617,-1.94483l6.94584,-35.06259l7.22368,-35.06259v-10.55767c0,-6.11233 0.8335,-13.66941 1.667,-17.28125l1.667,-6.11234h11.11334h10.83551l-0.8335,13.39158l-0.83349,13.11375l-6.11234,2.77834l-6.39017,2.77834v2.77834c0,1.667 2.22267,5.001 5.27884,7.5015l5.00101,4.44533l1.94483,23.11576l1.94483,23.39358l-2.77834,8.89067l-2.5005,8.61284l1.667,1.667l1.38917,1.667h-3.05617h-3.334v7.77934v7.5015l2.5005,-3.61184l2.22267,-3.88967l1.94483,8.89067c0.8335,5.001 1.667,20.89308 1.667,35.06259v26.17191l-6.94584,-0.55566l-6.94584,-0.55567l-1.38916,-3.88967z"/><path d="M155.45522,173.30439l-4.72317,-11.94684l0.8335,-17.83691l0.8335,-17.55909l6.39017,0.27783l6.11234,0.27783v-7.22368v-6.94584l3.334,3.334l3.334,3.334l0.8335,20.89308l0.55567,21.17092l-2.5005,-1.667l-2.77834,-1.667l-0.55567,7.77933c0,4.1675 -0.27783,9.72417 0,12.55808l0.27783,4.44533l-3.61184,1.38916l-3.88967,1.667z"/><path d="M0.5908,156.07863l0.27783,-18.94824l3.61184,4.72317l3.61184,5.00101l2.22267,-2.22267l2.22267,-1.94483l-1.667,6.39018l-1.38917,6.11233h2.22267h2.22267l-3.05617,9.72417l-2.77834,9.72416h-3.88967h-3.61184v-18.67041z"/><path d="M382.11182,157.18997c0,-5.8345 10.83551,-36.50733 11.11334,-31.45076v2.5005l5.55667,-5.00101l5.55667,-5.00101v5.27884c0,6.39018 -7.77933,31.45076 -8.33501,27.56108c-0.27783,-1.38917 -1.38917,0.27783 -2.5005,3.88967l-1.667,6.66801l-5.001,0.8335l-4.72317,0.55566z"/><path d="M343.10398,139.63075c0,-0.8335 1.667,-7.22367 3.88967,-14.50291c2.22267,-7.22368 4.72317,-17.83692 5.83451,-23.39359l1.667,-10.55768h2.5005h2.5005l-0.55567,20.33741l-0.55566,20.05958l-5.55667,4.72317c-5.55667,5.001 -9.72417,6.39017 -9.72417,3.334z"/><path d="M65.21489,66.39397l-3.88967,-6.39018l1.667,-5.83451l1.38916,-5.55667l-3.61184,-8.61284l-3.61184,-8.61284l-1.94484,-17.28124l-1.94483,-17.55909h6.66801h6.39018l3.05617,20.33741l2.77834,20.05958l-1.667,18.11475l-1.667,18.11475l-3.61184,-6.66801z"/><path d="M138.72963,53.55812c-2.5005,-5.83451 -4.44533,-12.55808 -4.44533,-15.33641v-5.001l-4.1675,-3.334l-4.1675,-3.334v-15.05858v-15.05857h8.05717h8.05717l-0.8335,17.55908l-1.11134,17.28124l1.38917,-7.77933l1.38916,-7.77934l4.72317,0.8335l4.72317,0.8335l0.8335,11.11334l0.8335,11.11334l2.5005,0.8335l2.5005,0.8335l-3.334,6.11233c-1.94483,3.05617 -5.55667,8.33501 -8.05717,11.11334l-4.72317,5.27884l-4.1675,-10.27985z"/><path d="M11.20404,46.33443l-5.00101,-2.77834v-8.05717v-8.33501h-4.1675h-4.1675v-15.33641v-15.33641h2.77834h2.77834v4.1675c0,2.5005 3.88967,12.55808 8.33501,22.28225c4.72317,9.72417 8.33501,19.78175 8.33501,22.28225v4.1675h-1.94483c-1.38917,0 -4.44533,-1.38917 -6.94584,-3.05617z"/><path d="M110.05721,41.61116c-0.8335,-2.5005 -1.94483,-5.27884 -2.5005,-6.11233c-0.27783,-0.8335 0.27783,-3.334 1.667,-5.55667l2.22267,-3.88967l4.44533,3.61183l4.44533,3.61184v5.001v5.001l-4.1675,1.667l-4.44533,1.667z"/><path d="M36.82029,34.10968v-4.1675l-3.334,-0.27783c-1.94483,-0.27783 -4.44533,-0.27783 -5.55667,0l-2.22266,0.27783v-5.27884v-5.27884l6.94584,-4.44533l6.94584,-4.72317l2.5005,6.39017c1.11134,3.61184 3.05617,9.72417 4.1675,14.22508l1.667,7.5015h-5.55667h-5.55667v-4.1675z"/><path d="M86.10796,27.94184c-0.55566,-1.38917 -1.94483,-6.94584 -3.05617,-12.83591c-1.11134,-5.83451 -2.77834,-12.55808 -3.61184,-14.78074l-1.38916,-3.88967h7.5015h7.22367l-1.94483,3.05617l-1.667,3.05618l5.83451,8.05717l5.8345,8.05717l-3.334,5.55667l-3.61184,5.55667h-3.334c-1.667,0 -3.88967,-0.8335 -4.44533,-1.94483z"/><path d="M384.89015,10.43823v-8.33501h-2.77834c-1.38917,0 -2.77834,-1.11134 -2.77834,-2.77834v-2.77834h10.83551h10.55767l-5.27884,11.11334l-5.55667,11.11334h-2.5005h-2.5005z"/></g><g fill="#0d314c"><path d="M31.76372,344.56099l-0.8335,-16.72558h2.5005c3.61184,0 5.27884,4.72317 7.5015,20.61525l1.94484,12.83591h-5.001h-5.27884z"/><path d="M181.07147,353.78506c-1.11134,-10.00201 2.5005,-48.17633 4.72317,-50.39901l1.667,-1.667l2.5005,3.88967l2.5005,3.88967l-0.27783,23.11575v22.83792l1.94483,3.05617l1.667,2.77834h-6.94584h-6.94584z"/><path d="M438.34532,345.95018l5.83451,-15.33641l2.22266,1.667l2.22267,1.38917l-2.77834,7.22368l-2.77834,7.5015l1.667,6.39017l1.38917,6.39018h-6.66801h-6.66801l5.55666,-15.33641z"/><path d="M241.19465,355.45208l-1.667,-2.77834l1.94483,-18.94824l1.94483,-19.22608l-3.05617,-1.667l-2.77834,-1.94484l0.8335,-29.78375l0.8335,-29.78375l-3.05617,9.16851l-3.05617,9.1685l-2.22267,-1.94483l-1.94483,-1.94483l0.55567,20.05958l0.55566,20.33741l-5.27884,3.05617c-3.05617,1.667 -6.94584,3.33401 -8.89067,3.61184l-3.334,0.55566l-1.11134,-3.05617c-0.55567,-1.94483 -0.55567,-7.77934 0,-13.66941l1.38916,-10.00201l5.27884,-1.38917l5.27884,-1.38916v-7.5015c0,-4.1675 1.94483,-14.50291 4.44533,-22.83792l4.44533,-15.33641l4.1675,5.83451l3.88967,5.83451h4.1675h3.88967l0.27783,11.94684l0.27783,11.66901l2.22267,-9.72417l2.5005,-9.72417l-1.667,-6.11234l-1.38917,-6.39017l1.667,-4.1675l1.667,-4.1675l5.55667,3.334l5.83451,3.61184l-1.94483,13.94725l-1.667,13.94725l-2.5005,2.77834l-2.5005,2.5005v10.00201v9.72416l-2.5005,-3.61183l-2.22267,-3.61184l-1.94483,13.11374c-0.8335,7.22368 -1.667,18.11475 -1.38917,24.50492l0.27783,11.39117l3.05618,-13.39157l3.334,-13.39157l3.61184,3.334l3.334,3.61184v7.5015v7.77933l-2.5005,1.667l-2.77834,1.38917l1.667,9.1685l1.38917,8.89067l-8.61284,3.334l-8.61284,3.05617l-1.667,-2.5005z"/><path d="M419.11924,347.33936l1.38917,-5.8345l-5.27884,1.667l-5.27884,1.667l-1.667,-3.88967l-1.38916,-4.1675l2.77834,-11.11334l3.05618,-11.11334l4.72317,-1.667l4.44533,-1.94483l1.94483,3.334l2.22267,3.05618l-1.667,5.83451l-1.38917,5.55666l4.1675,3.05617l4.1675,3.05618l-1.38917,9.1685l-1.11134,8.89067h-5.55667h-5.55667z"/><path d="M267.64439,314.49925c-0.55567,-8.05717 -0.8335,-15.89208 -0.27783,-17.28125l1.11134,-2.77834l3.88967,3.88967c5.001,5.00101 5.001,9.72417 0,21.44875l-3.88967,9.1685l-0.8335,-14.50291z"/><path d="M379.33348,313.66572c0,-1.38917 1.38917,-2.5005 2.77834,-2.5005h2.77834v-11.39118c0,-6.11233 1.38917,-16.72558 3.05618,-23.67141l3.05617,-12.28025l8.05717,-5.8345l8.05717,-5.83451l-1.38917,22.00441c-0.8335,11.94684 -2.22267,23.94925 -3.05618,26.72759l-1.667,5.001l-4.1675,-3.61184l-4.44533,-3.61183l1.94484,7.77933l1.667,7.5015l-1.94483,-0.27783c-1.38917,-0.27783 -2.77834,0 -3.61184,0.27783c-0.8335,0.27783 -3.61183,0.8335 -6.11233,1.38917l-5.00101,0.8335z"/><path d="M201.90899,311.72088l-3.334,-1.94483l-1.38917,-20.89308c-0.8335,-11.39118 -2.22267,-25.89409 -3.05618,-32.00643l-1.38917,-11.11334l3.88967,-11.11334l3.88967,-11.11334l1.667,5.001c0.8335,2.5005 2.22266,6.66801 3.05617,9.1685l1.38917,4.44533l-1.667,6.94584l-1.94483,6.94584l-2.22267,-3.88967l-2.5005,-3.61184v8.05717v8.05717l4.44533,5.001l4.44533,5.00101l-0.27783,18.67041c0,20.33741 -0.27783,21.17092 -5.001,18.39258z"/><path d="M20.09472,296.38447c0,-2.22267 -3.88967,-15.33641 -8.61285,-29.50592l-8.33501,-25.61625l1.11134,-4.72317l1.11134,-4.72317l6.11233,13.94725c6.11233,13.66941 7.22367,16.44774 13.94725,32.83992c1.667,4.1675 3.05617,10.83551 3.05617,14.50291v6.94584h-4.1675h-4.1675v-3.61184z"/><path d="M183.8498,280.82582l-1.667,-12.28024l-2.77834,-1.667l-2.5005,-1.667l-1.94483,-12.28024l-1.94483,-11.94684l5.00101,-3.88967c6.94584,-5.27884 8.33501,-4.72317 10.00201,2.5005l1.38917,6.11233l-1.94483,23.67142l-1.667,23.67142l-1.94483,-12.28024z"/><path d="M296.87249,283.88195l-2.77834,-4.72317l1.11134,-13.11374l1.11134,-13.39157h2.22267h2.5005l1.667,11.94684l1.667,11.66902l-2.22267,6.11233l-2.22267,6.39017l-3.05617,-5.001z"/><path d="M276.86847,275.82483c-1.38917,-4.1675 -3.61184,-11.94684 -4.44533,-16.72558l-1.38917,-9.16851h3.61184h3.88967l1.94483,5.001c1.11134,2.5005 2.5005,8.33501 3.05617,12.83591l1.11134,7.77933l-2.22267,4.1675l-2.5005,4.1675z"/><path d="M412.72908,280.27012v-2.77834l-2.77834,1.667l-2.77834,1.667v-2.77834c0,-1.38917 3.05617,-19.78175 6.94584,-40.397c3.88967,-20.61525 6.94584,-41.50833 6.94584,-45.95367v-8.33501l5.001,-2.77834l5.27884,-2.77834l3.05617,3.05617l3.334,3.334v8.89067v9.16851l-2.5005,1.667l-2.77834,1.38916l0.27783,17.83691c0,19.78175 -1.11134,24.78276 -10.55767,45.67583c-6.66801,14.22508 -9.44634,17.55909 -9.44634,11.39118z"/><path d="M27.87406,266.04509l-1.11134,-3.334l9.44634,-5.27884l9.44634,-5.00101l1.38917,1.38916l1.38916,1.38917l-1.667,4.44533l-1.667,4.44533l-2.77834,-1.667l-2.77834,-1.667v3.334v3.334l-1.94483,-1.667l-1.667,-1.94483l-3.61184,3.05617l-3.334,2.77834z"/><path d="M436.40049,241.54028l1.38917,-17.83691l2.77834,-2.77834c1.667,-1.667 2.77834,-5.27884 2.77834,-8.33501v-5.83451l2.5005,3.88967l2.5005,3.88967l-2.5005,6.66801c-1.38917,3.88967 -2.5005,10.00201 -2.5005,14.22508l-0.27783,7.5015l-4.1675,8.33501l-3.88967,8.33501l1.38917,-18.11475z"/><path d="M118.94789,241.54028l-1.667,-5.55667l1.667,-5.27884l1.38917,-5.00101l-2.22267,-6.39017l-2.5005,-6.66801l3.05617,-7.77934l2.77834,-7.77934h3.33401h3.334l1.94483,19.22608l1.94483,19.22608l-1.94483,5.83451l-1.667,5.83451h-3.88967h-3.88967l-1.667,-5.55667z"/><path d="M297.70598,227.64861c-0.8335,-2.22267 -2.22267,-8.61284 -2.77834,-14.22508l-1.38917,-10.00201l2.5005,-3.88967l2.5005,-3.88967v3.88967c0,2.22267 1.667,6.11233 3.88967,8.33501l3.61184,4.44533l-3.334,9.72417l-3.61184,9.72417l-1.38917,-4.1675z"/><path d="M270.70058,214.81272v-6.94584l2.5005,1.38916l2.22267,1.667l2.77834,-17.28124l2.77834,-17.28125l-2.5005,-9.44634l-2.77834,-9.44634l2.77834,-2.77834l2.77834,-2.77834l-1.38917,-4.72317l-1.667,-4.44533l3.88967,3.61184l3.88967,3.61184l0.55567,27.83892l0.55567,27.83892l-2.77834,-1.667l-2.5005,-1.667l-0.27783,4.1675c-0.8335,9.44634 -3.88967,15.61425 -8.33501,15.61425h-2.5005v-7.22367z"/><path d="M237.30497,207.86689c-1.94483,-6.66801 -4.16749,-13.39157 -5.55667,-15.05857c-1.11134,-1.38917 -2.77834,-6.11234 -3.88967,-10.27985l-1.667,-7.77934h2.77834h2.77834v6.94584v6.66801l4.44533,-1.667l4.1675,-1.667l-2.77834,-2.77834l-3.05617,-3.05617v-11.94684v-11.94684h3.05617c1.667,0 5.27884,1.38917 8.33501,3.05618l5.83451,3.05617l-1.94484,-25.06059l-1.94483,-24.78276l3.05618,-5.8345l3.334,-6.11233h-3.05617h-2.77834v-10.00201v-9.72417l4.1675,-4.1675l3.88967,-4.1675l-1.667,-4.44533l-1.667,-4.44533l3.334,1.94483l3.334,2.22267l3.61184,-3.05617l3.88967,-3.05617l1.667,6.11234c0.8335,3.61184 1.667,10.55767 1.667,15.89208v9.1685l-3.88967,-3.334l-4.1675,-3.05617l1.38917,-3.88967l1.38916,-3.61184l-2.77834,-1.94483l-3.05617,-1.667l-0.27783,3.61184c0,1.94483 -0.55566,6.66801 -1.11134,10.55767l-0.8335,6.94584l3.61184,16.16991l3.61184,15.89208h-1.667c-1.11134,0 -0.27783,1.11134 1.667,2.5005l3.88967,2.22267l1.38916,11.66901l1.667,11.39118h-2.22267c-1.11134,0 -3.88967,-2.22267 -5.8345,-4.72317l-3.61184,-5.001l-0.27783,9.1685v9.1685l-2.77834,-1.667l-2.77834,-1.667l-0.27783,16.16991l-0.27783,16.16991l-3.05618,-9.72417l-2.77834,-9.72417l-2.5005,13.94725l-2.22267,13.94725l3.334,7.77933l3.05617,7.77934l-1.94483,1.667l-1.667,1.667v-3.88967v-3.88967l-2.5005,3.88967l-2.5005,3.88967l-3.334,-12.28024z"/><path d="M216.41189,201.14332c2.22267,-17.83692 3.05617,-20.05959 6.11233,-17.00341l1.94483,1.94483l-0.27783,11.39118l-0.55566,11.39117l-4.44533,4.44533l-4.72317,4.44533l1.94483,-16.72558z"/><path d="M171.84738,205.6442l-1.667,-8.33501l2.77834,-5.55667l3.05617,-5.27884l6.94584,0.8335l7.22367,0.55567l-1.38916,-3.88967c-0.8335,-2.22267 -1.667,-6.39018 -1.667,-9.16851v-5.27884l-3.88967,-3.88967l-3.88967,-3.88967l-0.55566,-28.95026c-0.27783,-15.89208 -0.55567,-36.17393 -0.27783,-44.84234l0.55567,-16.16991h-2.77834h-3.05617l-0.27783,-7.5015l-0.27783,-7.77933l-1.94483,8.33501l-1.667,8.33501l-1.667,-2.77834c-1.11134,-1.38917 -2.77834,-11.94685 -3.61184,-22.83792l-1.94484,-20.33741h2.77834c1.667,0 4.1675,2.5005 5.8345,5.27884l2.77834,5.55667v9.16851v9.1685l2.77834,-4.1675l2.77834,-4.1675l1.667,6.39017l1.667,6.11233h2.5005h2.5005v-5.55667v-5.55667h2.77834h2.77834v4.1675c0,2.22267 0.83349,4.1675 2.22266,4.1675h1.94483l0.55566,7.77934c0.55567,10.27984 8.33501,55.67785 10.55767,61.29009l1.667,4.1675l-5.8345,5.27884l-5.55667,5.27884v3.88967c0,1.94483 0.8335,5.55667 1.667,8.05717l1.667,4.44533l2.5005,-1.667l2.5005,-1.38917v3.05618v3.05617l2.77834,-1.667l3.05617,-1.94483l3.88967,3.334l4.1675,3.334v8.05717v8.05717h-2.77834h-2.77834l-2.77834,-6.94584l-2.77834,-6.94584h-2.77834h-2.77834v9.72416v9.72417h-3.334h-3.61184l2.77834,2.22267l2.77834,1.94484l0.55566,11.94684l0.27783,11.66901h-5.27884h-5.27884l-0.27783,-11.66901l-0.27783,-11.94684l-1.94483,8.33501l-1.667,8.33501h-2.77834h-2.77834l0.8335,3.61183l0.8335,3.334h-5.55667h-5.27884l-1.94483,-8.05717zM198.57498,117.90435l2.5005,1.38917v-3.61184c0,-1.94483 -0.8335,-6.39017 -1.667,-9.72417l-1.667,-6.11234l-6.66801,0.55567l-6.66801,0.55567v2.77834c0,1.667 0.8335,5.00101 1.667,7.77934l1.38917,4.72317l2.77834,-1.38917l2.5005,-1.667l0.27783,5.00101l0.27783,5.00101l1.38917,-3.61184l1.38916,-3.334z"/><path d="M106.66765,180.86145l0.55567,-19.22608l-1.94483,-3.334c-1.11134,-1.667 -2.77834,-10.27985 -3.61184,-18.94824l-1.667,-15.61425l3.05617,1.94483l3.334,1.94483v-4.44533v-4.44533l-2.77834,1.667l-2.5005,1.667l-1.667,-7.77933c-0.8335,-4.1675 -2.5005,-11.11334 -3.88967,-15.05858l-2.22267,-7.22367l-0.55566,-23.67142l-0.55567,-23.67142l4.44533,-1.94483l4.44533,-1.667l2.5005,7.22367l2.77834,7.22367l-0.27783,10.27985c-0.55567,16.72558 2.77834,51.2325 5.83451,61.56791c1.38917,5.27884 2.77834,13.66941 2.77834,18.67042v8.89067l5.83451,10.00201l5.83451,9.72416l-1.94483,7.77934l-1.94483,7.5015l-5.00101,5.00101c-3.05617,2.5005 -6.66801,4.72317 -8.33501,4.72317h-3.05618l0.55567,-18.94824z"/><path d="M8.37013,184.75113c-8.05717,-8.33501 -9.72417,-12.83591 -5.001,-12.83591h2.77834l-1.667,-8.89067l-1.38916,-9.1685l4.1675,5.55666c5.001,5.8345 10.83551,24.78276 9.44634,30.0616l-0.8335,3.334z"/><path d="M225.30257,150.74411l-1.94483,-11.39118l-4.1675,-3.61184l-4.1675,-3.334v-8.33501v-8.33501l3.61184,1.11134l3.334,1.38916l0.8335,7.22368l0.8335,7.22368l4.1675,-1.667l3.88967,-1.38917l-0.27783,5.001c0,3.05618 -0.83349,10.27985 -2.22266,16.44775l-1.94484,11.11334l-1.94483,-11.39117z"/><path d="M272.08973,128.18411c0.8335,-2.22267 1.38917,-8.61284 1.38917,-14.22508v-10.27985l2.77834,4.16749l2.77834,4.1675v-4.72317c0,-2.5005 2.22267,-8.33501 5.001,-13.11375l4.72317,-8.61284h4.44533h4.44533l-1.38916,-13.94725l-1.38917,-13.94725h5.00101h4.72317l-1.667,4.1675l-1.38917,4.1675l4.72317,2.5005l4.72317,2.5005l-0.8335,14.22508l-1.11134,14.22508h-3.61184h-3.61184l-1.667,3.61184l-1.38916,3.334l-3.61184,-4.44533l-3.88967,-4.72317l-4.44533,11.66902c-2.5005,6.11233 -5.27884,13.94725 -6.11233,17.28125l-1.667,5.83451h-4.44533h-4.1675l1.667,-3.88967z"/><path d="M149.00948,118.46002l-3.334,-3.88967l-1.94484,-19.22609l-1.94483,-19.50392l-3.334,-4.1675c-4.72317,-5.83451 -12.55808,-30.06159 -12.55808,-39.5635v-7.77934h2.5005c1.667,0 3.61184,1.667 5.001,3.61184l2.22267,3.334l1.38917,-15.33641l1.38917,-15.33641l-2.77834,-1.94483l-2.77834,-2.22267h5.001h4.72317v4.1675v4.1675h3.88967h3.88967l1.667,4.72317l1.94483,4.72317l-3.88967,3.05617l-4.16749,3.05618l-1.11134,6.66801l-0.8335,6.94584l-3.61184,-0.55567l-3.334,-0.8335v3.61184c0,1.667 2.77834,10.83551 6.39018,20.05958l6.11233,16.72558h4.1675h4.1675l5.27884,20.33741l5.27884,20.05958l-1.94483,2.22267l-2.22266,1.94483l-3.61184,-5.00101l-3.61184,-5.00101l-2.5005,7.5015l-2.5005,7.22368l-3.05617,-3.88967z"/><path d="M223.63557,109.56935l-0.27783,-5.00101l-4.1675,3.334l-4.1675,3.334l-0.27783,-2.22267c-0.27783,-1.38917 -0.27783,-9.72417 -0.27783,-18.67041l0.27783,-15.89208l-2.77834,1.38917l-2.5005,1.667l-0.27783,-10.55768c-0.55567,-15.61425 0.27783,-29.50592 2.22267,-35.34043l1.38917,-5.001l2.22267,2.22267c1.38917,1.38917 3.61184,7.5015 5.27884,13.39157l2.77834,11.11334l-2.5005,3.05617l-2.5005,3.05617l-0.55567,8.33501c0,4.44533 0.8335,11.94684 2.5005,16.44775l2.5005,8.33501l3.334,-0.55566l3.05617,-0.8335l-0.27783,5.00101c-0.27783,2.5005 -1.38917,7.77934 -2.5005,11.66902l-2.22266,6.94584l-0.27783,-5.27884z"/><path d="M38.20947,86.45361c-0.8335,-2.77834 -2.5005,-13.11375 -3.334,-23.11576l-1.38917,-18.11475l6.11233,-6.66801l6.39018,-6.39017l2.5005,4.44533l2.77834,4.72317l-1.667,3.88967l-1.38917,3.88967l2.22267,1.38917l2.22267,1.38917l0.27783,13.39157l0.27783,13.39157l-4.1675,6.39018c-4.72317,7.5015 -8.05717,7.77934 -10.83551,1.38917z"/><path d="M6.14747,63.33785v-5.27884l-4.44533,-2.5005l-4.1675,-2.22267l0.8335,-15.33641l0.8335,-15.05857h4.1675h4.1675l1.38917,9.1685l1.38916,9.1685l2.22267,-0.27783c3.05617,-0.27783 13.11374,12.55808 13.11374,16.72558v3.05617l-2.22267,-1.38917l-2.22267,-1.38917l-3.88967,5.55667l-3.88967,5.27884h-3.61184h-3.61184v-5.55667z"/><path d="M461.73891,58.61468c1.11134,-5.83451 2.77834,-12.55808 3.88967,-14.78074l1.94483,-4.1675l-1.11134,-3.334l-1.38917,-3.61184l3.334,-15.61425c3.334,-15.89208 5.00101,-17.55909 6.94584,-6.94584l1.11134,5.83451h-2.77834h-2.5005v4.1675v3.88967l4.44533,-1.667l4.44533,-1.667l-1.94483,9.44634c-1.11134,5.27884 -3.334,11.11334 -5.001,13.11375l-2.77834,3.61184l-0.27783,10.27985l-0.27783,10.27984l-5.00101,0.8335l-5.00101,1.11134l1.94484,-10.83551z"/><path d="M62.99221,54.66944c-4.44533,-5.27884 -17.83691,-44.5645 -17.83691,-52.06601v-6.11233h5.55667h5.55667l0.27783,2.22267c0,1.11134 0.8335,4.44533 1.667,7.5015c0.8335,3.05618 1.38917,8.61285 1.38917,12.55808c-0.27783,3.88967 1.667,12.28024 3.88967,18.39258l4.44533,11.66901l-1.11134,4.72317l-0.8335,5.00101l-3.05618,-3.88967z"/><path d="M284.64781,30.99801v-26.44976l2.5005,1.667l2.77834,1.38917l0.8335,-6.11233l0.8335,-6.39017l4.72317,9.72417l4.72317,9.72417l1.667,-5.001l1.94483,-4.72317h5.27884h5.55667l1.11134,3.61184c0.55567,1.667 1.667,9.44634 2.77834,17.00341l1.94483,13.39158l-2.77834,-1.667l-2.77834,-1.667l-3.334,4.44533l-3.61184,4.1675l-1.94483,-3.05617l-1.94483,-3.334l-1.94483,7.5015l-1.94483,7.5015l-3.88967,-1.38917l-3.61184,-1.667l-1.667,4.1675c-0.8335,2.22267 -2.77834,3.88967 -4.44533,3.88967h-2.77834z"/><path d="M187.18381,36.05448c-2.22267,-1.11134 -4.44533,-3.05617 -4.44533,-4.72317c-0.27783,-1.38917 -1.38917,-10.00201 -2.5005,-18.67041l-1.667,-16.16991h12.28024h12.55808l-2.5005,10.55767c-1.667,5.55667 -3.334,15.05858 -4.44533,20.89308c-1.667,10.55767 -2.22267,11.11334 -9.1685,8.05717z"/><path d="M225.02474,22.10734c-0.8335,-1.38917 -2.22267,-7.77934 -3.334,-13.94725l-1.94484,-11.66901h9.1685h8.89067l-1.94483,9.1685c-1.11134,4.72317 -3.61184,11.11334 -5.55667,13.94725l-3.61184,5.00101z"/></g><g fill="#244b67"><path d="M177.12623,334.83665l-1.667,-12.55808l1.667,-9.72417l1.94484,-9.72417h4.44533h4.44533l-1.94483,10.55768c-0.8335,5.55667 -1.667,15.61425 -1.667,22.28225v11.66902h-2.5005h-2.77834l-1.94483,-12.55808z"/><path d="M238.69414,333.44749c-0.8335,-1.38917 -2.22267,-10.55767 -3.334,-20.05958l-1.38917,-17.55909l4.72317,-4.1675l4.72317,-3.88967l-0.8335,10.00202l-0.8335,10.27985l1.94483,1.94483l1.94483,1.94484v12.28025v11.94684h-2.5005c-1.667,0 -3.334,-1.11134 -4.44533,-2.77834z"/><path d="M401.61573,279.99227c0,-17.83691 15.05858,-87.18417 19.78175,-92.74084l2.5005,-2.5005v8.89067c0,8.61284 -12.55808,81.2941 -15.33641,89.129c-0.55566,1.667 -2.5005,3.334 -4.1675,3.334h-2.77834z"/><path d="M471.51865,280.82582l-3.88967,-2.5005l5.00101,-19.78175l4.72317,-19.78175l2.5005,-1.667l2.5005,-1.38917v17.55909l-0.27783,17.55908l-3.334,6.11233l-3.334,6.11234z"/><path d="M274.31241,253.2649l-3.334,-2.22267l-3.05617,-15.05858c-1.667,-8.33501 -4.1675,-18.11475 -5.55667,-21.72658l-2.77834,-6.11233l-1.38916,-36.17393l-1.667,-36.17393h4.44533h4.44533l-1.667,2.77834l-1.667,2.5005l5.001,7.5015l5.001,7.5015l-3.61184,1.38917l-3.334,1.11134v5.27884v5.27884h2.5005h2.5005l-2.5005,11.94684c-1.667,6.39018 -3.334,13.94725 -4.1675,16.72558l-1.38917,4.72317h4.1675h4.1675l2.77834,10.55767c1.667,5.55667 3.05617,13.11375 3.05617,16.72558c0,3.61184 1.11134,8.61284 2.5005,11.11334l2.22267,4.72317l-1.667,4.72317l-1.667,4.72317l-3.334,-1.94483z"/><path d="M421.34191,243.48512l-0.27783,-10.55767l3.61183,-8.89067l3.88967,-8.89067l-1.11134,-11.11334l-1.11134,-11.11334l2.77834,4.1675l3.05617,4.1675v9.72417v9.72416l-5.27884,16.72558l-5.27884,16.72558l-0.27783,-10.55767z"/><path d="M215.02273,236.26144v-14.78074l3.88967,3.05617l4.1675,3.334l1.11134,-6.39017l1.38917,-6.39017l-1.11134,13.66941l-1.11134,13.94725l-4.1675,4.1675l-4.1675,4.1675z"/><path d="M249.25181,237.09497l-3.334,-6.94584l4.72317,-5.55667c2.5005,-2.77834 5.55667,-5.27884 6.66801,-5.27884h2.22266v5.001c-0.27783,2.5005 -1.667,8.05717 -3.61183,12.55808l-3.334,7.5015l-3.334,-7.22367z"/><path d="M172.12522,235.42797c-0.8335,-3.61184 -1.667,-13.66941 -1.667,-22.56008v-16.16991l3.88967,3.61184l3.61184,3.61184l-1.38916,3.88967l-1.38917,3.88967l4.44533,-1.667l4.44533,-1.667l1.94483,12.55808l1.667,12.28024l-3.334,4.1675c-1.94483,2.22267 -5.00101,4.1675 -6.94584,4.1675h-3.61184z"/><path d="M193.29614,234.03881c-1.38917,-2.77834 -3.61183,-12.55808 -5.001,-21.72659c-2.5005,-18.94824 -1.94483,-17.00341 -6.11233,-27.28326l-3.334,-7.77934l0.27783,-7.5015c0,-4.1675 1.11134,-9.72417 2.22267,-12.83591l1.94483,-5.001l3.61184,11.94684c1.94483,6.66801 4.72317,15.89208 6.11234,20.33741c1.38917,4.44533 2.5005,12.28025 2.5005,17.28125v9.44634h2.22267h2.22267l-1.11134,-9.44634l-1.11134,-9.44634l2.5005,-1.38917l2.5005,-1.667l0.55566,13.94725l0.55566,13.94725l-2.77834,-1.667l-2.77834,-1.667l1.667,12.55808l1.94483,12.83591h-3.05617h-3.05618l-2.5005,-4.72317z"/><path d="M107.00104,149.91074l0.55566,-19.78175h2.22267h2.22267v17.83691v18.11475l-2.77834,1.667l-2.77834,1.667z"/><path d="M240.36115,164.13575l-0.27783,-6.39017l-2.77834,1.667l-2.5005,1.667l1.38916,-9.1685c0.8335,-5.00101 2.22267,-16.44775 3.05617,-25.61625l1.667,-16.16991l1.94483,3.61184c1.11134,2.22267 2.77834,13.66941 3.88967,25.61625l1.667,21.44875h-2.5005h-2.77834l-1.11134,5.001l-1.38917,4.72317z"/><path d="M151.23215,124.57239c0.27783,-8.33501 -0.27783,-17.28125 -1.11134,-19.50392c-0.8335,-2.22267 -2.22267,-7.5015 -3.05617,-11.94684l-1.667,-7.5015l3.334,0.55566c1.94483,0.55567 5.27884,2.5005 7.22367,4.44533l3.61184,3.334l-0.8335,5.00101l-1.11134,4.72317l5.00101,5.55667l5.27884,5.27884l-0.8335,11.94684l-0.8335,11.94684h-2.22267c-1.11134,0 -3.334,-2.77834 -4.44533,-6.11233l-2.5005,-6.39017l-3.05618,6.94584l-3.05618,6.94584l0.27783,-15.33641z"/><path d="M436.12265,117.62652l-1.94483,-10.55768l3.334,-19.78175c1.94483,-10.83551 4.44533,-25.89409 6.11233,-33.11776l2.5005,-13.66941l5.55667,-6.94584c3.05617,-3.88967 5.55666,-8.89067 5.55666,-10.83551v-3.88967h2.77834h2.5005l-1.11134,7.5015c-0.55566,4.44533 -4.44533,23.39358 -8.33501,42.61966l-7.22367,34.78476l-2.5005,0.8335l-2.77834,1.11134l2.22267,4.44533l2.5005,4.72317l-3.61184,6.66801l-3.334,6.66801z"/><path d="M248.97399,96.73343l0.27783,-18.11475l1.11134,9.16851l1.11134,8.89067l2.77834,-1.38917l2.5005,-1.667v5.00101v5.27884l-4.1675,5.55667l-3.88967,5.27884l0.27783,-18.11475z"/><path d="M172.12522,83.3973l-4.44533,-16.16991l1.11134,-14.22508l1.38916,-14.22508l-3.88967,-5.001l-3.88967,-5.27884l-0.27783,-15.89208v-16.16991h3.88967h3.88967l1.94483,4.72317c3.05618,7.5015 5.27884,27.83891 5.27884,49.00984l-0.27783,18.67042h2.5005h2.22267v13.66941v13.94725l-2.5005,1.38916l-2.22267,1.667l-4.72317,-16.16991z"/><path d="M292.42716,89.23194l-5.001,-1.11134v-4.1675c0,-2.22267 4.1675,-16.16991 9.1685,-30.61725l8.89067,-26.72759l2.5005,8.61284l2.5005,8.61284l-2.77834,9.1685l-2.77834,8.89067l-3.05617,-0.55566l-3.334,-0.8335v8.33501v8.33501l3.05617,-0.55567l3.334,-0.8335l1.11134,3.61184l1.38917,3.334h-3.05617h-3.05617v4.1675v4.1675l-1.94483,-0.27783c-1.38917,-0.27783 -4.44533,-0.8335 -6.94584,-1.667z"/><path d="M189.40648,55.78077c-0.8335,-9.1685 2.5005,-34.22909 4.72317,-36.50733l1.38917,-1.38916v10.83551c0,5.83451 0.8335,15.61425 1.667,21.44875l1.94483,10.27984h-4.72317h-4.44533l-0.55566,-4.72317z"/><path d="M32.3194,48.27926c-2.22267,-5.55667 -0.27783,-18.67042 3.88967,-25.33842l3.05618,-5.55667l0.27783,7.77934c0,4.44533 1.11134,10.00201 2.22267,12.55808l2.5005,4.72317l-5.27884,5.00101l-5.001,4.72317z"/></g></g><path d="M-72.4309,180c0,-172.55082 139.88008,-312.4309 312.4309,-312.4309c172.55082,0 312.4309,139.88008 312.4309,312.4309c0,172.55082 -139.88008,312.4309 -312.4309,312.4309c-172.55082,0 -312.4309,-139.88008 -312.4309,-312.4309z" fill="url(#color-1)" stroke="none" stroke-width="0" stroke-miterlimit="10"/><path d="M-0.5,360.50005v-295h481v295z" fill="url(#color-2)" stroke="none" stroke-width="0" stroke-miterlimit="10"/><path d="M243.39902,77.59915z" fill="#2c4056" stroke="none" stroke-width="0" stroke-miterlimit="10"/><path d="M245.15583,79.84436z" fill="#2c4056" stroke="none" stroke-width="0" stroke-miterlimit="10"/><path d="M153.28976,79.73839l-6.03135,-4.17358h202.77802l-6.65527,4.17358z" fill="url(#color-3)" stroke="none" stroke-width="0" stroke-miterlimit="10"/><path d="M322.84337,30.36845l-6.10068,-9.73836l9.84427,-6.95595l10.31615,10.51564l17.17603,-10.97163l-7.94228,19.79357z" fill="#001573" stroke="none" stroke-width="0" stroke-miterlimit="10"/><path d="M275.18188,31.79442l4.5755,-7.30377l-0.62394,7.09509z" fill="#001573" stroke="none" stroke-width="0" stroke-miterlimit="10"/><path d="M246.09972,31.92858v-17.64827l4.87262,11.56679l5.22915,-11.56678v17.64827z" fill="#001573" stroke="none" stroke-width="0" stroke-miterlimit="10"/><path d="M203.01371,29.49896l0.13865,-7.51244l18.16337,-7.86023l5.82336,18.57242z" fill="#001573" stroke="none" stroke-width="0" stroke-miterlimit="10"/><path d="M185.89024,30.47279l-0.97056,-4.93873l2.7037,4.86917z" fill="#001573" stroke="none" stroke-width="0" stroke-miterlimit="10"/><path d="M151.44918,17.04082l-10.58605,16.00567l-22.39917,-0.73038l26.97468,-19.428c0,0 1.91111,0.96623 2.92075,1.65482c1.00965,0.6886 3.08978,2.49787 3.08978,2.49787z" fill="#001573" stroke="none" stroke-width="0" stroke-miterlimit="10"/><path d="M147.2365,75.60672l-33.25284,-20.34532l22.91801,-17.12416l226.3049,0.96906l14.73,17.947l-27.76026,18.52084z" fill="#2c4056" stroke="none" stroke-width="0" stroke-miterlimit="10"/><path d="M111.85027,54.33173c0,-4.20579 0,-24.6241 0,-24.6241c0,0 74.77308,0 113.76367,0c0.27533,0 1.45585,3.2693 1.45585,3.2693l1.24826,-3.20327l46.34394,-0.02456l0.72803,1.77328l1.10212,-1.77416l76.47334,-0.04059l11.23078,27.54561c0,0 -228.24564,0 -247.77048,0c-0.71561,0 -4.5755,-2.30755 -4.5755,-2.9215z" fill="#001573" stroke="none" stroke-width="0" stroke-miterlimit="10"/><path d="M134.54534,67.58281l-19.05548,-12.24248l20.87894,-5.97891l233.44025,-1.81175l7.565,9.21337l-13.63991,10.26333z" fill="url(#color-4)" stroke="url(#color-5)" stroke-width="0" stroke-miterlimit="10"/><path d="M145.15419,74.41676l-29.98977,-18.45605l20.87894,-6.81001l233.44025,-2.51221l8.20641,9.81453l-24.97602,17.19215z" fill="url(#color-6)" stroke="url(#color-7)" stroke-width="0" stroke-miterlimit="10"/><g stroke-width="0" stroke-miterlimit="10"><g><path d="M245.15583,79.84436z" fill="url(#color-8)" stroke="none"/><path d="M120.45734,59.23673l-6.00631,-2.92413c0,0 1.80222,-5.5241 3.6354,-5.5241c1.83319,0 2.37091,8.44823 2.37091,8.44823z" fill="url(#color-9)" stroke="#042a5b"/><path d="M125.79476,62.50741l-3.75679,-2.34584c0,0 -0.03341,-7.44962 1.79618,-7.33492c1.82959,0.1147 1.96061,9.68077 1.96061,9.68077z" fill="url(#color-10)" stroke="#042a5b"/><path d="M132.94413,55.66165c0,3.44814 -0.81381,6.2434 -1.8177,6.2434c-1.00388,0 -1.81769,-2.79527 -1.81769,-6.2434c0,-3.44814 3.63539,-3.44814 3.63539,0z" fill="url(#color-11)" stroke="none"/><path d="M137.93705,54.09505c0,6.19792 -0.81381,11.22231 -1.8177,11.22231c-1.00388,0 -1.81771,-5.02439 -1.81771,-11.22231c0,-6.19792 3.6354,-6.19792 3.6354,0z" fill="url(#color-12)" stroke="none"/><path d="M147.51376,55.45258c0,6.19792 -0.81381,11.22231 -1.8177,11.22231c-1.00388,0 -1.8177,-5.0244 -1.8177,-11.22231c0,-6.19792 3.6354,-6.19792 3.6354,0z" fill="url(#color-13)" stroke="none"/><path d="M152.66474,51.75216c0,6.19792 -0.81381,11.22231 -1.8177,11.22231c-1.00388,0 -1.8177,-5.0244 -1.8177,-11.22231c0,-6.19792 3.6354,-6.19792 3.6354,0z" fill="url(#color-14)" stroke="none"/><path d="M159.55439,54.84834c0,6.19792 -0.81381,11.22232 -1.8177,11.22232c-1.00388,0 -1.81771,-5.0244 -1.81771,-11.22232c0,-6.19792 3.63541,-6.19792 3.63541,0z" fill="url(#color-15)" stroke="none"/><path d="M171.50198,53.51884c0,6.19792 -0.81381,11.22232 -1.8177,11.22232c-1.00388,0 -1.81769,-5.0244 -1.81769,-11.22232c0,-6.19792 3.63539,-6.19792 3.63539,0z" fill="url(#color-16)" stroke="none"/><path d="M175.54654,55.74569c0,9.55876 -0.81381,17.30766 -1.8177,17.30766c-1.00389,0 -1.8177,-7.7489 -1.8177,-17.30766c0,-9.55876 3.6354,-9.55875 3.6354,0z" fill="url(#color-17)" stroke="none"/><path d="M184.33291,44.22127c0,6.19792 -1.23841,11.22232 -2.76606,11.22232c-1.52766,0 -2.76606,-5.0244 -2.76606,-11.22232c0,-6.19792 5.53213,-6.19792 5.53213,0z" fill="url(#color-18)" stroke="none"/><path d="M189.16779,49.84643c0,7.68192 -0.81382,13.90935 -1.81771,13.90935c-1.00389,0 -1.8177,-6.22743 -1.8177,-13.90935c0,-7.68192 3.63541,-7.68192 3.63541,0z" fill="url(#color-19)" stroke="none"/><path d="M207.75394,48.51692c0,9.42782 -0.99073,17.07057 -2.21286,17.07057c-1.22212,0 -2.21285,-7.64275 -2.21285,-17.07057c0,-9.42782 4.42571,-9.42782 4.42571,0z" fill="url(#color-20)" stroke="none"/><path d="M216.54032,55.48561c0,9.82064 -0.99072,17.78184 -2.21284,17.78184c-1.22213,0 -2.21285,-7.9612 -2.21285,-17.78184c0,-9.82064 4.4257,-9.82064 4.4257,0z" fill="url(#color-21)" stroke="none"/><path d="M224.37834,53.52385c0,9.82064 -0.99072,17.78184 -2.21284,17.78184c-1.22213,0 -2.21285,-7.9612 -2.21285,-17.78183c0,-9.82064 4.4257,-9.82063 4.4257,0z" fill="url(#color-22)" stroke="none"/><path d="M230.31962,46.50416c0,9.82064 -0.99073,17.78185 -2.21285,17.78185c-1.22213,0 -2.21285,-7.96121 -2.21285,-17.78185c0,-8.65795 4.4257,-9.82063 4.4257,0z" fill="url(#color-23)" stroke="none"/><path d="M233.57388,49.44229c0,9.82064 -0.99073,17.78184 -2.21285,17.78184c-1.22213,0 -2.21285,-7.9612 -2.21285,-17.78184c0,-9.82064 4.4257,-9.82063 4.4257,0z" fill="url(#color-24)" stroke="none"/><path d="M248.20851,51.59011c0,9.82064 -0.99073,17.78185 -2.21285,17.78185c-1.22213,0 -2.21285,-7.96121 -2.21285,-17.78185c0,-9.82064 4.4257,-9.82063 4.4257,0z" fill="url(#color-25)" stroke="none"/><path d="M253.35949,45.8349c0,9.82064 -0.99072,17.78184 -2.21285,17.78184c-1.22212,0 -2.21285,-7.9612 -2.21285,-17.78184c0,-9.82064 4.4257,-9.82064 4.4257,0z" fill="url(#color-26)" stroke="none"/><path d="M257.46907,46.78326c0,9.82064 -0.99072,17.78185 -2.21285,17.78185c-1.22213,0 -2.21286,-7.96121 -2.21286,-17.78185c0,-9.82064 4.42571,-9.82063 4.42571,0z" fill="url(#color-27)" stroke="none"/><path d="M273.6843,47.35049c0,9.82064 -0.99072,17.78184 -2.21285,17.78184c-1.22212,0 -2.21285,-7.9612 -2.21285,-17.78184c0,-9.82064 4.42571,-9.82064 4.42571,0z" fill="url(#color-28)" stroke="none"/><path d="M277.41274,45.70486c0,9.82064 -0.99072,17.78184 -2.21285,17.78184c-1.22212,0 -2.21285,-7.9612 -2.21285,-17.78184c0,-9.82064 4.4257,-9.82064 4.4257,0z" fill="url(#color-29)" stroke="none"/><path d="M282.56372,48.643c0,9.82064 -0.99072,17.78184 -2.21285,17.78184c-1.22212,0 -2.21285,-7.9612 -2.21285,-17.78184c0,-9.82064 4.42571,-9.82064 4.42571,0z" fill="url(#color-30)" stroke="none"/><path d="M287.7147,45.10064c0,9.82064 -0.99072,17.78185 -2.21285,17.78185c-1.22212,0 -2.21285,-7.96121 -2.21285,-17.78185c0,-9.82064 4.42571,-9.82064 4.42571,0z" fill="url(#color-31)" stroke="none"/><path d="M292.39152,42.03246c0,9.82064 -0.99072,17.78184 -2.21285,17.78184c-1.22212,0 -2.21285,-7.9612 -2.21285,-17.78184c0,-9.82064 4.42571,-9.82064 4.42571,0z" fill="url(#color-32)" stroke="none"/><path d="M299.12311,49.23823c0,9.82064 -0.99073,17.78184 -2.21286,17.78184c-1.22212,0 -2.21285,-7.9612 -2.21285,-17.78184c0,-9.82064 4.42571,-9.82063 4.42571,0z" fill="url(#color-33)" stroke="none"/><path d="M308.54174,44.58944c0,9.82064 -0.99072,17.78184 -2.21285,17.78184c-1.22212,0 -2.21285,-7.9612 -2.21285,-17.78184c0,-9.82064 4.42571,-9.82064 4.42571,0z" fill="url(#color-34)" stroke="none"/><path d="M314.1669,56.22092c0,9.82064 -0.99073,17.78184 -2.21286,17.78184c-1.22212,0 -2.21285,-7.9612 -2.21285,-17.78184c0,-9.82064 4.42571,-9.82064 4.42571,0z" fill="url(#color-35)" stroke="none"/><path d="M321.21461,41.61431c0,9.82064 -0.99072,17.78184 -2.21285,17.78184c-1.22212,0 -2.21285,-7.9612 -2.21285,-17.78184c0,-9.82064 4.4257,-9.82064 4.4257,0z" fill="url(#color-36)" stroke="none"/><path d="M338.37822,48.50396c0,9.82064 -0.99072,17.78184 -2.21285,17.78184c-1.22212,0 -2.21285,-7.9612 -2.21285,-17.78184c0,-9.82064 4.4257,-9.82064 4.4257,0z" fill="url(#color-37)" stroke="none"/><path d="M343.05502,44.01324c0,9.82064 -0.99072,17.78184 -2.21285,17.78184c-1.22212,0 -2.21285,-7.9612 -2.21285,-17.78184c0,-9.82064 4.4257,-9.82064 4.4257,0z" fill="url(#color-38)" stroke="none"/><path d="M349.47049,48.69003c0,9.82064 -0.99073,17.78184 -2.21286,17.78184c-1.22212,0 -2.21285,-7.9612 -2.21285,-17.78184c0,-9.82064 4.42571,-9.82064 4.42571,0z" fill="url(#color-39)" stroke="none"/><path d="M367.89858,53.84102c0,4.67026 -0.99072,8.45625 -2.21285,8.45625c-1.22212,0 -2.21285,-3.78599 -2.21285,-8.45625c0,-4.67026 4.4257,-4.67026 4.4257,0z" fill="url(#color-40)" stroke="none"/><path d="M372.8915,56.85819c0,0.79457 -0.70544,3.80653 -0.70544,3.80653l-2.77189,1.96612c0,0 -0.94837,-3.32841 -0.94837,-5.77265c0,-2.44425 4.4257,-2.44425 4.4257,0z" fill="url(#color-41)" stroke="none"/><path d="M375.47956,58.66874v-1.7527h2.57312z" fill="url(#color-42)" stroke="none"/></g><path d="M195.49539,57.40338c0,7.68192 -0.81381,13.90935 -1.8177,13.90935c-1.00389,0 -1.8177,-6.22742 -1.8177,-13.90935c0,-7.68192 3.6354,-7.68192 3.6354,0z" fill="#042a5b" stroke="none"/></g><path d="M157.84795,76.18505l-2.49573,-7.9298h189.67545l-7.7645,7.9298z" fill="url(#color-43)" stroke="none" stroke-width="0" stroke-miterlimit="10"/><path d="M245.74239,80.109z" fill="#2c4056" stroke="none" stroke-width="0" stroke-miterlimit="10"/><path d="M105.52278,39.15046c-0.10426,-5.83711 2.4882,-10.19703 5.25291,-14.8337c5.49253,-9.21137 18.05197,-11.69621 18.05197,-11.69621l15.75674,-0.0699l0.91362,0.29872l-6.97696,15.2927c0,0 -4.11755,-8.51201 -16.94142,3.77691c-2.6221,3.02185 -3.47654,5.63978 -2.33589,7.86693c1.02181,2.3464 2.73499,3.365 7.228,3.23986c3.40757,-0.0593 10.46923,-6.83823 10.46923,-6.83823l3.07038,19.97956c0,0 -11.07305,2.55965 -17.86277,1.97544c-10.35048,-0.91625 -13.6779,-7.12633 -14.97786,-9.20168c-0.66512,-1.06184 -1.57877,-5.91607 -1.64798,-9.79039z" fill="#1dcc46" stroke="none" stroke-width="0" stroke-miterlimit="10"/><path d="M180.41446,17.36483c8.0763,8.10354 7.66333,23.18669 -2.11968,33.00267c-9.78299,9.816 -25.23139,10.64774 -33.3077,2.5442c-8.0763,-8.10354 -7.24737,-23.18669 2.53564,-33.00267c3.97749,-3.99092 8.82273,-6.49672 13.71541,-7.52071c0.36804,-0.07703 9.59459,-0.08046 10.03752,0.0209c3.47154,0.79452 6.63854,2.44688 9.13883,4.95562z" fill="#1dcc46" stroke="none" stroke-width="0" stroke-miterlimit="10"/><path d="M170.87309,26.95429c3.32346,3.33467 0.94951,8.4402 -3.39656,12.80093c-4.34608,4.36073 -9.85041,5.90799 -13.17387,2.57331c-3.73943,-4.16938 -0.94951,-8.44021 3.39656,-12.80093c4.34608,-4.36074 9.8504,-5.90798 13.17387,-2.5733z" fill="#001573" stroke="none" stroke-width="0" stroke-miterlimit="10"/><path d="M221.3167,14.16508l-3.22889,10.048c0,0 -14.78879,-1.58279 -14.64592,2.37728c0.15234,4.22216 17.93723,-1.51725 18.72568,14.8609c1.12724,23.41539 -35.86231,15.49488 -35.86231,15.49488l4.75407,-11.30008c0,0 14.96452,0.96038 15.01151,-2.67719c-1.34018,-4.97651 -18.87432,1.43205 -19.04351,-15.41659c-0.21361,-21.27272 34.28937,-13.38721 34.28937,-13.38721z" fill="#1dcc46" stroke="none" stroke-width="0" stroke-miterlimit="10"/><path d="M233.62209,57.54638l-12.69158,-0.16125l10.93532,-43.54537h14.35045l5.13012,20.33459l4.32916,-20.39286l14.4295,-0.01323l13.05976,43.69579l-12.66351,-0.07887l-6.6756,-21.95919l-4.21621,21.7661l-15.27074,0.09971l-5.25755,-22.22135z" fill="#1dcc46" stroke="none" stroke-width="0" stroke-miterlimit="10"/><path d="M293.30903,12.40922c0.44293,-0.10137 9.66947,-0.09794 10.03753,-0.0209c4.89269,1.02398 10.01523,3.11243 13.99272,7.10335c9.78299,9.81599 9.91869,24.89914 1.84238,33.00267c-8.07632,8.10356 -22.97009,7.9674 -32.7531,-1.8486c-9.783,-9.81599 -10.33465,-25.17737 -2.25835,-33.2809c2.5003,-2.50873 5.6673,-4.1611 9.13883,-4.95562z" data-paper-data="{&quot;index&quot;:null}" fill="#1dcc46" stroke="none" stroke-width="0" stroke-miterlimit="10"/><path d="M307.93754,27.21989c2.79408,2.72761 3.82339,8.17461 -0.52268,12.53533c-4.34607,4.36073 -10.30417,4.76975 -13.09823,2.11802c-3.32347,-3.33467 -4.05026,-8.93345 0.29582,-13.29418c4.34607,-4.36073 10.53105,-4.01089 13.32512,-1.35916z" data-paper-data="{&quot;index&quot;:null}" fill="#112667" stroke="none" stroke-width="0" stroke-miterlimit="10"/><path d="M344.27004,34.29855l-17.70779,-20.6592h14.79611l7.93286,9.39055l4.67919,-9.63038l14.42366,-0.11997l-8.67151,20.58895l19.19925,23.20667l-15.47656,0.07371l-9.09463,-10.75887l-4.53472,10.64616l-16.14574,0.12497z" fill="#ee3401" stroke="none" stroke-width="0" stroke-miterlimit="10"/><path d="M157.38512,76.04119l-2.6034,-8.29834h190.69928l-7.97292,8.29834z" fill="url(#color-44)" stroke="none" stroke-width="0" stroke-miterlimit="10"/><path d="M157.38512,76.04119l-2.6034,-8.29834h190.69928l-7.97292,8.29834z" fill="url(#color-45)" stroke="none" stroke-width="0" stroke-miterlimit="10"/><path d="M157.38512,76.04119l-2.6034,-8.29834h190.69928l-7.97292,8.29834z" fill="url(#color-46)" stroke="none" stroke-width="0" stroke-miterlimit="10"/><path d="M157.38512,76.04119l-2.6034,-8.29834h190.69928l-7.97292,8.29834z" fill="url(#color-47)" stroke="none" stroke-width="0" stroke-miterlimit="10"/><g stroke="none" stroke-width="0" stroke-miterlimit="10"><path d="M157.51516,76.18506l-2.77303,-8.20803h190.97877l-8.73505,8.20803z" fill="url(#color-48)"/><path d="M166.50203,75.27411l-2.68756,0.05583l-1.13413,-1.08628l-2.06397,0.00894l-0.01987,1.11825l-2.79804,0.08213l-2.02035,-6.6181l3.49542,-0.05962z" fill="#ffffff"/><path d="M175.01684,75.27411l-2.54075,0.05583l-1.91712,-1.08628l-1.77038,0.00894l1.30141,1.16736l-2.79803,0.03302l-4.85863,-6.6181l2.81683,0.01917l2.65048,1.61276l2.39044,1.45453l-2.08166,-3.12911l2.66185,-0.01696z" fill="#ffffff"/><path d="M187.39764,74.73404c0,0 -2.28951,0.6792 -3.91096,0.64505c-1.62144,-0.03413 -4.37258,-0.29173 -4.37258,-0.29173l-3.71274,-6.25243l2.81683,0.01917l2.9441,4.85343l2.83087,0.03059l-2.8157,-4.94585l2.66185,-0.01696z" fill="#ffffff"/><path d="M197.3526,75.30568l-3.03402,-6.57952c0,0 7.17942,-0.13452 7.78386,0.20561c0.66935,0.37666 3.19916,5.11351 2.46209,6.1192c-0.28409,0.38762 -7.21193,0.25472 -7.21193,0.25472z" fill="#ffffff"/><path d="M206.05874,75.27448l-2.39341,-6.45007h8.66165v1.76763h-5.33401l0.29362,0.58921l3.03046,0.05818l0.56566,1.86074l-2.77506,0.02767l0.28128,0.71206l5.01063,0.05578l0.45676,1.35182z" fill="#ffffff"/><path d="M230.62901,71.2794c0,0 0.31471,0.62317 0.54269,1.52101c0.22797,0.89784 0.43603,2.33343 0.43603,2.33343c0,0 -2.15846,0.11549 -3.86595,0.13835c-2.58479,0.03459 -3.93938,-0.02278 -4.27389,-0.38538c-0.2738,-0.29679 -0.95692,-3.2505 -0.99885,-4.20637c-0.08227,-1.87573 1.9224,-1.78245 1.9224,-1.78245l5.84281,-0.00114l0.18527,1.69376c0,0 -5.00655,0.10287 -5.07953,0.29522c-0.40488,1.06715 0.56563,2.92247 0.56563,2.92247l2.69049,0.01291l0.0062,-0.81938l-2.52434,-0.00388l-0.04893,-1.64489z" fill="#ffffff"/><path d="M232.5375,75.23207l-1.2968,-6.21125l6.54236,0.00669c0,0 1.31632,-0.07579 1.89454,1.35404c0.59698,1.47625 -0.2576,1.81855 -0.2576,1.81855c0,0 0.45214,0.52425 0.64422,0.89869c0.25862,0.50411 0.21967,2.2373 0.21967,2.2373l-2.49898,-0.12115c0,0 -0.05111,-0.81077 -0.20939,-1.29922c-0.1583,-0.48844 -0.42077,-0.64525 -0.42077,-0.64525l-2.3173,-0.0024l-0.02447,1.98859z" fill="#ffffff"/><path d="M259.01178,68.94711c0,0 0.32333,4.7909 -0.23005,5.71463c-0.48347,0.80703 -2.38291,0.64937 -3.95398,0.69303c-1.57107,0.04366 -3.35739,-0.03304 -4.05544,-0.37364c-0.81541,-0.39785 -0.47113,-6.03404 -0.47113,-6.03404l2.37339,-0.02456c0,0 0.01184,3.45601 0.3413,4.19552c0.37489,0.84145 1.78934,0.58697 1.78934,0.58697c0,0 1.11034,-0.10777 1.26924,-0.65834c0.25239,-0.87453 0.09913,-4.0829 0.09913,-4.0829z" fill="#ffffff"/><path d="M259.89264,75.42844l-0.04893,-6.55497l2.54465,-0.02455l3.25835,3.26861l0.08319,-3.21361l2.50577,0.00692l-0.56843,6.38746l-2.44273,-0.00929l-2.89624,-2.7387l-0.03776,2.85361z" fill="#ffffff"/><path d="M268.65216,75.25661l0.44042,-6.38312h6.65527c0,0 1.22549,0.07279 1.43001,0.97458c0.48172,2.12402 0.12112,3.8341 -0.52143,4.65533c-0.58931,0.75319 -1.44688,0.70411 -1.44688,0.70411z" fill="#ffffff"/><path d="M281.47335,72.16347c0,0 0.0809,-2.35824 0.92868,-2.96981c0.78706,-0.56776 3.98937,-0.57796 3.98937,-0.57796c0,0 3.25584,0.12289 3.75418,0.69471c0.61188,0.7021 -0.1574,3.20782 -0.1574,3.20782c0,0 -0.38735,1.95026 -1.00691,2.33313c-0.80671,0.49853 -3.61753,0.40371 -3.61753,0.40371c0,0 -3.34924,0.23654 -4.06518,-0.33238c-0.43491,-0.3456 0.17478,-2.75923 0.17478,-2.75923z" fill="#ffffff"/><path d="M290.18396,75.15842l1.81063,-6.43222l6.36167,-0.0491c0,0 1.8015,0.25517 0.76095,3.55212c-1.00621,3.18812 -2.1801,2.88011 -2.1801,2.88011z" fill="#ffffff"/><path d="M301.68388,72.75245l-1.51702,-4.02627h2.83828l1.17446,1.86583l1.53378,-1.65509l3.01806,0.01705l-4.16933,3.81571l-0.78863,2.25241l-2.73302,0.04531z" fill="#ffffff"/><path d="M315.28806,75.30568l0.44042,-1.42392l5.66062,0.02435l1.06289,-0.9021c0,0 -3.74113,0.141 -5.54985,-0.31697c-2.19464,-0.55567 1.71355,-3.86268 1.71355,-3.86268l6.89996,-0.0491l-0.64319,1.7689l-5.3181,0.13572l-0.3085,0.62168c0,0 4.52156,-0.19492 4.89555,0.36214c0.64051,0.95409 -1.21934,3.49467 -1.21934,3.49467z" fill="#ffffff"/><path d="M336.03688,72.55604l-0.3915,-3.78077l2.83828,-0.0491l0.1468,2.11134l2.36571,-1.9006l3.01805,0.01705l-5.34378,3.81572l-1.08225,2.25241l-2.73302,0.0453z" fill="#ffffff"/><path d="M324.04758,75.2075l2.93616,-6.33402h8.07442l-0.87151,1.75039l-5.19456,0.03966l-0.42989,0.66953l3.01092,0.09076l-0.86951,1.562l-2.88277,0.06949l-0.45491,0.64878l5.03723,0.00026l-0.62369,1.50314z" fill="#ffffff"/><path d="M202.13327,73.71799h-2.91168l-1.41425,-3.00497l2.99487,-0.08347z" fill="#182434"/><path d="M237.41886,71.68713l-2.83668,-0.03393l-0.47001,-1.15291c0,0 1.95017,-0.11286 2.37362,0.05625c1.04179,0.41603 0.93305,1.1306 0.93305,1.1306z" fill="#182434"/><path d="M274.44493,72.42061c-0.00318,0.183 -0.02245,0.73788 -0.33185,1.02025c-0.52928,0.48306 -2.50422,0.32667 -2.50422,0.32667c0,0 -0.1476,-0.98668 -0.07562,-1.61252c0.07197,-0.62584 0.11345,-1.53663 0.11345,-1.53663c0,0 1.66937,-0.27647 2.49827,0.22341c0.43719,0.26367 0.31303,0.82546 0.29998,1.57882z" fill="#182434"/><path d="M287.40121,70.71077c0.43609,0.4755 -0.01297,2.28719 -0.38046,2.61997c-0.38786,0.35122 -2.41141,0.4067 -2.73407,0.04502c-0.36046,-0.32374 -0.19217,-2.08236 0.12521,-2.5773c0.22494,-0.35075 2.59103,-0.52526 2.98932,-0.08769z" data-paper-data="{&quot;index&quot;:null}" fill="#182434"/><path d="M294.24082,70.36392c0,0 2.00529,-0.04705 2.38986,-0.02997c0.88865,0.03945 0.06451,2.30267 -0.69578,3.27018c-0.30232,0.28536 -3.02512,0.07587 -3.02512,0.07587z" data-paper-data="{&quot;index&quot;:null}" fill="#182434"/><path d="M159.59262,72.98525l-0.18488,-1.66944l1.84869,1.66944z" fill="#182434"/><path d="M214.72484,75.25661l-1.85956,-6.33401l6.20179,-0.15379c0,0 1.60428,0.14083 2.17875,0.99603c0.57448,0.8552 0.21898,2.57339 0.21898,2.57339c0,0 0.55945,0.43632 0.75442,0.828c0.19496,0.39169 0.64755,1.98855 0.64755,1.98855l-2.55123,0.05823l-0.5549,-1.76421l-2.78475,0.04018l0.34255,1.76763z" fill="#ffffff"/><path d="M219.53231,71.68713l-3.28229,-0.03393l-0.54384,-1.15291c0,0 2.25652,-0.11286 2.74649,0.05625c1.20544,0.41603 1.07963,1.1306 1.07963,1.1306z" fill="#182434"/><path d="M240.75872,72.28598c0,0 -0.04326,-2.37071 0.47472,-2.94065c0.5143,-0.56588 3.83163,-0.37365 3.83163,-0.37365c0,0 3.05376,-0.01104 3.71134,0.52363c0.7495,0.6094 0.54608,2.93799 0.54608,2.93799c0,0 0.30878,1.83271 -0.4603,2.32092c-1.11162,0.70565 -3.30775,0.60058 -3.30775,0.60058c0,0 -3.1561,-0.01772 -3.96328,-0.53426c-0.79105,-0.50621 -0.83244,-2.53454 -0.83244,-2.53454z" fill="#ffffff"/><path d="M246.48905,70.95025c0.3174,0.49493 0.48568,2.25356 0.12522,2.5773c-0.32266,0.36168 -2.34622,0.30621 -2.73407,-0.04502c-0.36749,-0.33278 -0.81656,-2.14449 -0.38047,-2.61997c0.39828,-0.43756 2.76439,-0.26305 2.98932,0.08769z" fill="#182434"/><path d="M306.52852,75.30568l0.44042,-1.42392l5.66062,0.02435l1.06288,-0.9021c0,0 -3.74113,0.141 -5.54985,-0.31697c-2.19463,-0.55567 1.71355,-3.86268 1.71355,-3.86268l6.89996,-0.0491l-0.64319,1.7689l-5.3181,0.13572l-0.30851,0.62168c0,0 4.52156,-0.19492 4.89555,0.36214c0.64051,0.95409 -1.21934,3.49468 -1.21934,3.49468z" fill="#ffffff"/><path d="M196.35292,75.32323l-2.2641,0.00674l-4.26468,-2.59946l1.15969,2.68948l-2.34655,0.03302l-3.49767,-6.61809l2.51011,0.01916l4.49202,3.06729l-1.31668,-3.12911l2.61669,-0.01696z" fill="#ffffff"/></g><path d="M166.25296,-3.95922z" fill="#ffffff" stroke="none" stroke-width="0" stroke-miterlimit="10"/><path d="M168.22858,88.35837h5.91523v1.97176h-5.91523z" fill="#ceff00" stroke="none" stroke-width="0.26458" stroke-miterlimit="4"/><path d="M175.66053,88.35837h5.91523v1.97176h-5.91523z" fill="#ceff00" stroke="none" stroke-width="0.26458" stroke-miterlimit="4"/><path d="M182.84249,88.35837h5.91523v1.97176h-5.91523z" fill="#ceff00" stroke="none" stroke-width="0.26458" stroke-miterlimit="4"/><path d="M294.99229,88.35837h5.91523v1.97176h-5.91523z" fill="#ceff00" stroke="none" stroke-width="0.26458" stroke-miterlimit="4"/><path d="M302.42425,88.35837h5.91523v1.97176h-5.91523z" fill="#ceff00" stroke="none" stroke-width="0.26458" stroke-miterlimit="4"/><path d="M309.85619,88.35837h5.91523v1.97176h-5.91523z" fill="#ceff00" stroke="none" stroke-width="0.26458" stroke-miterlimit="4"/><path d="M198.32021,96.68001c-0.54309,-0.10861 -0.97755,-0.21723 -1.30341,-0.32585l0.65171,-3.25853l1.95511,0.16292c1.52066,0.10861 2.71545,0.10861 3.58438,0c0.43447,-0.21725 0.65171,-0.54309 0.65171,-0.97757c-0.10861,-0.43447 -1.08619,-0.65171 -2.93268,-0.65171c-1.62927,-0.21723 -2.76974,-0.81462 -3.42145,-1.7922c-0.32586,-0.76032 -0.48878,-1.62925 -0.48878,-2.60682c0,-1.52064 0.54309,-2.66113 1.62927,-3.42145c0.76032,-0.54309 2.11804,-0.81463 4.07316,-0.81463c1.95511,0 3.91023,0.16292 5.86535,0.48878l-0.65171,3.09559c-2.28096,-0.10861 -3.85592,-0.16292 -4.72486,-0.16292c-0.76032,0.10861 -1.14049,0.38015 -1.14049,0.81463c-0.10861,0.76032 0.48879,1.14049 1.7922,1.14049c1.8465,0 3.20422,0.32586 4.07315,0.97757c0.65171,0.54309 0.97757,1.46633 0.97757,2.76974c0,1.12963 -0.27156,2.10719 -0.81464,2.93268c-0.54309,0.97755 -1.90081,1.57495 -4.07316,1.79218c-1.8465,0.10861 -3.74731,0.05438 -5.70242,-0.16292z" fill="#ceff00" stroke="none" stroke-width="0.26458" stroke-miterlimit="4"/><path d="M211.2897,90.00003c0,-2.17235 0.65171,-3.88309 1.95512,-5.13219c1.30341,-1.2491 3.0956,-1.87364 5.37656,-1.87364c1.95512,0 3.31285,0.05439 4.07317,0.16292l-1.46635,4.56193l-0.32585,-0.32585c-0.65171,-0.43447 -1.46635,-0.48878 -2.4439,-0.16294c-1.08616,0.65171 -1.90081,1.35773 -2.4439,2.11805c-0.54309,0.65171 -0.6517,1.46634 -0.32585,2.4439l0.32585,0.32584c0.54309,0.76032 1.46635,0.97757 2.76976,0.65171c1.08616,-0.65171 1.90079,-1.35772 2.44388,-2.11804l1.95511,5.70242c-0.76032,0.43447 -2.28096,0.65171 -4.56193,0.65171c-2.28096,0 -4.07316,-0.70601 -5.37656,-2.11805c-1.30341,-1.41203 -1.95512,-3.04129 -1.95512,-4.88778z" fill="#ceff00" stroke="none" stroke-width="0.26458" stroke-miterlimit="4"/><path d="M225.81259,90.00003c0,-2.17235 0.65171,-3.88309 1.95511,-5.13219c1.30341,-1.2491 3.0956,-1.87364 5.37658,-1.87364c2.28096,0 4.07316,0.62454 5.37656,1.87364c1.30341,1.2491 1.95512,2.95984 1.95512,5.13219c0,1.8465 -0.65171,3.47576 -1.95512,4.88778c-1.30341,1.41204 -3.0956,2.11805 -5.37656,2.11805c-2.28098,0 -4.07317,-0.70601 -5.37658,-2.11805c-1.30341,-1.41203 -1.95511,-3.04129 -1.95511,-4.88778zM232.98134,87.23029c-1.08616,0.65171 -1.90081,1.35773 -2.4439,2.11805c-0.54309,0.65171 -0.65171,1.46634 -0.32585,2.4439l0.32585,0.32584c0.54309,0.76032 1.46635,0.97757 2.76976,0.65171c1.08616,-0.65171 1.90081,-1.35772 2.4439,-2.11804c0.65171,-0.86893 0.65171,-1.84651 0,-2.93268l-0.32587,-0.32585c-0.65171,-0.43447 -1.46633,-0.48878 -2.4439,-0.16294z" fill="#ceff00" stroke="none" stroke-width="0.26458" stroke-miterlimit="4"/><path d="M242.85521,96.68001v-13.68581h7.9834c3.25853,0 4.88778,1.1948 4.88778,3.58437v0.65171c0,1.73789 -0.70602,2.87837 -2.11804,3.42146c0.43447,0.21723 0.86893,0.70601 1.30341,1.46633l1.30341,4.56194h-4.8878l-0.97755,-3.74731c-0.21725,-0.97755 -0.81464,-1.46634 -1.79219,-1.46634h-0.97755v5.21364zM249.53521,88.53369c0.86893,0 1.30341,-0.43448 1.30341,-1.30341v-0.65171c0,-0.65171 -0.43447,-0.97755 -1.30341,-0.97755h-1.95511v2.93267z" fill="#ceff00" stroke="none" stroke-width="0.26458" stroke-miterlimit="4"/><path d="M258.59445,96.68001v-13.68581h11.40485v3.91023h-6.51705v0.97755h6.51705v3.91025h-6.51705v0.97755h6.51705v3.91023z" fill="#ceff00" stroke="none" stroke-width="0.26458" stroke-miterlimit="4"/><path d="M273.68195,96.68001c-0.54309,-0.10861 -0.97755,-0.21723 -1.30341,-0.32585l0.6517,-3.25853l1.95512,0.16292c1.52065,0.10861 2.71545,0.10861 3.58438,0c0.43447,-0.21725 0.65171,-0.54309 0.65171,-0.97757c-0.10861,-0.43447 -1.08617,-0.65171 -2.93267,-0.65171c-1.62927,-0.21723 -2.76975,-0.81462 -3.42146,-1.7922c-0.32586,-0.76032 -0.48878,-1.62925 -0.48878,-2.60682c0,-1.52064 0.54309,-2.66113 1.62927,-3.42145c0.76032,-0.54309 2.11804,-0.81463 4.07316,-0.81463c1.95512,0 3.91023,0.16292 5.86535,0.48878l-0.65171,3.09559c-2.28096,-0.10861 -3.85592,-0.16292 -4.72486,-0.16292c-0.76032,0.10861 -1.14049,0.38015 -1.14049,0.81463c-0.10861,0.76032 0.48878,1.14049 1.7922,1.14049c1.8465,0 3.20422,0.32586 4.07316,0.97757c0.65171,0.54309 0.97757,1.46633 0.97757,2.76974c0,1.12963 -0.27154,2.10719 -0.81462,2.93268c-0.54309,0.97755 -1.90082,1.57495 -4.07317,1.79218c-1.8465,0.10861 -3.74731,0.05438 -5.70243,-0.16292z" fill="#ceff00" stroke="none" stroke-width="0.26458" stroke-miterlimit="4"/></g></g></svg>