<svg version="1.1" xmlns="http://www.w3.org/2000/svg" xmlns:xlink="http://www.w3.org/1999/xlink" width="142.28362" height="67.64143" viewBox="0,0,142.28362,67.64143"><g transform="translate(-159.63592,-159.45232)"><g data-paper-data="{&quot;isPaintingLayer&quot;:true}" fill-rule="nonzero" stroke-linejoin="miter" stroke-miterlimit="10" stroke-dasharray="" stroke-dashoffset="0" style="mix-blend-mode: normal"><g data-paper-data="{&quot;index&quot;:null}"><g stroke="#ffffff" stroke-width="0" stroke-linecap="butt"><path d="M231.41319,189.28981l0.66701,-2.63095l9.89042,2.08843l-1.58601,2.76814z" data-paper-data="{&quot;index&quot;:null}" fill="#d757d7"/><path d="M217.73695,188.04654l3.09134,-4.78949c0,0 7.75516,1.24677 11.22529,3.17128c1.43622,0.79647 1.30871,3.03626 -1.06751,3.39913c-2.22119,0.33918 -13.2491,-1.78087 -13.2491,-1.78087z" data-paper-data="{&quot;index&quot;:null}" fill="#ace6ff"/><path d="M216.3461,176.52782c1.60095,-5.20666 8.15727,-8.59344 9.18967,-7.51975c3.26411,3.3947 3.01061,6.1124 1.83832,11.43199c-1.41987,6.44314 -9.42564,9.06487 -11.92804,6.9625c-0.81932,-0.68828 -0.70085,-5.66818 0.90009,-10.87477z" data-paper-data="{&quot;index&quot;:null}" fill="#f8ffff"/></g><path d="M227.35578,171.99764c0,0 -1.85875,5.34246 -4.4011,7.88028c-2.54235,2.53782 -7.64286,5.22844 -7.64286,5.22844" data-paper-data="{&quot;index&quot;:null}" fill="none" stroke="#000000" stroke-width="0.5" stroke-linecap="round"/><path d="M217.14778,182.06974l1.86784,2.44481" data-paper-data="{&quot;index&quot;:null}" fill="none" stroke="#f8ffff" stroke-width="0.5" stroke-linecap="round"/><path d="M222.73647,181.3877l-1.56339,-1.86041" data-paper-data="{&quot;index&quot;:null}" fill="none" stroke="#f8ffff" stroke-width="0.5" stroke-linecap="round"/><path d="M223.6593,176.59771l1.73632,1.62177" data-paper-data="{&quot;index&quot;:null}" fill="none" stroke="#f8ffff" stroke-width="0.5" stroke-linecap="round"/><path d="M225.84112,173.08375l1.43192,1.03734" data-paper-data="{&quot;index&quot;:null}" fill="none" stroke="#f8ffff" stroke-width="0.5" stroke-linecap="round"/></g><g data-paper-data="{&quot;index&quot;:null}"><g data-paper-data="{&quot;index&quot;:null}" stroke="none" stroke-width="0" stroke-linecap="butt"><path d="M301.51109,202.4312c-3.85851,5.20591 -18.28131,5.02229 -18.28131,5.02229c-2.11269,0.07102 -3.89346,-0.51791 -5.58943,-1.36182c-1.47709,-0.73498 -2.88981,-1.66321 -4.40154,-2.51735c-3.24743,-1.83482 2.35696,-3.31455 2.35696,-3.31455c0,0 7.96744,-2.61503 12.37465,-2.22982c3.80274,-0.13254 16.35936,0.59816 13.54061,4.4012z" data-paper-data="{&quot;index&quot;:null}" fill="#d757d7"/><path d="M264.28535,199.40245c0,0 12.65095,0.73978 17.34744,0.66299c3.17711,-0.05199 8.25432,-0.33979 8.25432,-0.33979c1.32445,0.18482 5.23378,2.55289 2.55341,3.90433c-2.10709,1.06233 -10.83177,1.19398 -10.83177,1.19398c0,0 -15.48518,-0.59957 -17.87014,-0.28111c-7.55254,0.77208 -20.95637,-0.33788 -20.95637,-0.33788l0.63947,-5.41071l20.86341,0.60827z" data-paper-data="{&quot;index&quot;:null}" fill="#f8ffff"/></g><path d="M291.37073,203.24792l1.31539,1.33673" fill="none" stroke="#000000" stroke-width="0.5" stroke-linecap="round"/><path d="M287.65125,204.01386l1.31756,1.07152" fill="none" stroke="#000000" stroke-width="0.5" stroke-linecap="round"/></g><g data-paper-data="{&quot;index&quot;:null}"><g data-paper-data="{&quot;index&quot;:null}" stroke="none" stroke-width="0" stroke-linecap="butt"><path d="M298.72813,196.07807c-3.88363,5.18714 -18.30544,4.93353 -18.30544,4.93353c-2.11298,0.06079 -3.89091,-0.53684 -5.58272,-1.38889c-1.47343,-0.74209 -2.88167,-1.67718 -4.38929,-2.53862c-3.23854,-1.85058 2.37293,-3.30316 2.37293,-3.30316c0,0 7.98004,-2.57633 12.38537,-2.16971c3.80332,-0.11405 16.35628,0.67756 13.51915,4.46689z" data-paper-data="{&quot;index&quot;:null}" fill="#d757d7"/><path d="M261.51752,192.86869c0,0 12.64724,0.80111 17.34399,0.74718c3.17727,-0.03658 8.25593,-0.29978 8.25593,-0.29978c1.3235,0.19125 5.22134,2.57826 2.53455,3.9166c-2.11221,1.05211 -10.83748,1.14147 -10.83748,1.14147c0,0 -15.48207,-0.67469 -17.86845,-0.36777c-7.5561,0.7354 -20.95458,-0.43946 -20.95458,-0.43946l0.66571,-5.4076l20.86018,0.70947z" data-paper-data="{&quot;index&quot;:null}" fill="#f8ffff"/></g><path d="M284.1493,197.9238l1.30559,1.60826" fill="none" stroke="#000000" stroke-width="0.5" stroke-linecap="round"/><path d="M289.18141,198.51916l-1.30901,-1.34311" fill="none" stroke="#000000" stroke-width="0.5" stroke-linecap="round"/></g><g data-paper-data="{&quot;index&quot;:null}"><path d="M195.43389,181.8384c0.18217,-13.99855 12.27256,-14.63253 13.25616,-14.77644c2.33311,-0.20839 4.70253,0.20956 6.90093,0.98698c3.67828,1.26916 7.04671,3.74974 8.88762,7.23013c0.64719,1.73525 0.61283,1.47564 1.33383,3.158c1.5575,2.47528 1.83102,6.00092 1.74253,8.78585c0.04773,2.26313 -0.27419,4.51605 -0.89918,6.69255c-0.45476,1.39271 -0.69498,2.9541 -1.68436,4.09129c-0.93843,1.04458 -2.22327,1.89171 -3.67163,1.89533c-3.5194,0.203 -7.04265,0.43897 -10.56744,0.32342c-0.96455,-0.08249 -2.02335,-0.01982 -2.89437,-0.50433c-0.71139,-0.6829 -12.62392,-0.99558 -12.40417,-17.8827z" data-paper-data="{&quot;index&quot;:null}" fill="#a0a8a8" stroke="none" stroke-width="0.17188" stroke-linecap="butt"/><path d="M192.25907,168.06251c-0.39985,-3.43639 0.19514,-5.88941 1.28721,-7.31103c0.15487,-0.2026 0.30825,-0.08421 0.5568,-0.3276c0.30107,-0.29452 0.77009,-1.10554 0.6556,-0.95252c0,0 0.58611,0.31245 0.86688,0.29212c0.35697,-0.02609 0.78228,-0.46502 0.68727,-0.12768c0,0 0.52865,-0.21279 0.71704,-0.16194c2.05741,0.55408 4.6882,2.30371 6.00772,4.55942c1.84056,-1.14891 -9.22981,6.12686 -10.77841,4.02911z" data-paper-data="{&quot;index&quot;:null}" fill="#ff7fff" stroke="none" stroke-width="0.17188" stroke-linecap="butt"/><path d="M207.36749,199.10108l8.84948,0.76719l7.1679,-0.68862l5.08173,-0.8809c0.59733,-0.10436 -4.22465,6.07233 -5.91062,7.33387c-2.08598,1.56139 -4.35031,2.54147 -6.61784,3.51161c-1.65233,0.70772 -2.32362,0.7541 -3.51689,0.96286l-3.70471,0.64729c-0.70389,0.12314 -4.2751,0.38033 -4.87043,-0.3218c-0.16893,-0.19928 1.67286,-2.61862 1.67275,-2.90088l-0.00696,-2.06044c-0.0015,-0.61132 -1.25909,-2.46623 -1.67484,-3.00529c-0.3033,-0.39393 -2.66476,-2.59497 -5.015,-2.87863l-2.32487,-0.28045c-0.34814,-0.04207 -4.03039,0.74943 -4.09279,0.60802c-0.1295,-0.29111 -4.09984,2.84255 -4.25069,2.53921c-0.84216,-1.68816 -1.92273,-3.73687 -2.36664,-6.01855c-0.69798,-3.58706 -0.49103,-7.49031 -0.41695,-9.49148c0.01263,-0.34126 0.25964,-4.68628 1.19843,-7.26565c1.48622,-4.08458 4.18309,-6.3373 4.33186,-6.49337c2.3357,-2.45051 5.03063,-4.2505 8.03649,-5.48693l2.53318,-0.64992c1.29657,-0.33281 7.53647,-1.50146 12.40637,-1.36198c10.24875,0.29361 16.94471,6.16586 16.51728,6.96536c-0.5976,1.12027 -6.55024,2.73514 -6.01713,3.13304c1.18071,0.88202 -2.96985,-4.84559 -6.22543,-6.32238c-3.25564,-1.47684 -10.94894,-1.31666 -11.57348,-1.28897c-0.49364,0.02136 -0.90215,0.31215 -0.78628,0.81042c0.07681,0.33161 0.68811,4.15568 1.57428,5.60619c0.88612,1.45049 4.99923,4.59381 4.73573,4.69547c-0.09818,0.03763 -1.08867,1.37035 -1.23343,1.31984c-0.87491,-0.3068 1.10791,1.93868 1.41717,2.22749c0.8132,0.75973 -4.34548,2.61358 -5.88595,5.871c-1.54048,3.25747 -1.54379,6.78597 -0.89263,7.52248c0.2594,0.29331 0.74779,1.18109 0.99831,1.63839c0.33281,0.60851 0.52842,1.02651 0.86272,1.23649z" data-paper-data="{&quot;index&quot;:null}" fill="#d757d7" stroke="none" stroke-width="0.17188" stroke-linecap="butt"/><path d="M201.17059,213.98541c-0.82142,2.22849 -2.94473,4.26117 -4.75034,5.13663c-0.16524,0.08041 -0.69205,-0.00657 -0.69205,-0.00657c0.14768,0.27821 -0.32381,-0.02743 -0.65841,0.01738c-0.26304,0.03515 -0.75009,0.42058 -0.75009,0.42058c0.13332,0.11267 -0.44414,-0.5101 -0.7745,-0.71206c-0.27341,-0.16647 -0.39435,-0.03332 -0.57429,-0.18186c-1.26104,-1.04087 -2.24558,-3.0805 -2.485,-6.17106c-0.31256,-4.04363 2.73047,-7.51561 4.17866,-7.4813c0,0 7.90815,5.17229 6.50598,8.97808z" data-paper-data="{&quot;index&quot;:null}" fill="#ff7fff" stroke="none" stroke-width="0.17188" stroke-linecap="butt"/><path d="M197.31939,202.11705c-0.37269,-0.56132 5.09243,1.20081 5.82691,2.63915c1.26275,2.47359 2.24155,2.22328 1.55651,4.29465c-0.1531,0.46526 -1.00144,1.3736 -1.584,2.69441c-0.67417,1.5302 -1.59284,2.87765 -1.84573,2.35915l-1.73282,-3.12445l-4.96983,-4.6882c-0.07731,-0.07287 -0.88459,0.8411 -1.94426,2.26761c-0.74324,1.00018 -1.6326,2.50223 -2.11863,3.67749c-0.28616,0.69269 -1.06288,-0.72573 -1.58483,-2.73038c-0.25315,-0.97174 -0.59377,-2.00562 -0.50205,-3.14814c0.15938,-1.97866 2.4643,-3.37373 4.77867,-3.84922c2.16734,-0.44552 4.36719,-0.01842 4.12003,-0.39204z" data-paper-data="{&quot;index&quot;:null}" fill="#d757d7" stroke="none" stroke-width="0.17188" stroke-linecap="butt"/><path d="M197.25203,199.25398c4.51219,0.0079 8.39674,4.55938 8.26036,5.99836l0.36201,2.27597l-1.99086,3.16116c-0.51011,0.80928 0.39108,-4.46 -0.99131,-5.78035c-0.90166,-0.86182 -1.59897,-1.49233 -1.96108,-1.61905c-3.45299,-1.20262 -6.3014,-1.1486 -8.17188,-0.50268c-2.93918,1.01495 -3.92479,3.16664 -4.56409,1.73623c-1.52542,-3.41056 4.12567,-5.27803 9.05679,-5.26972z" data-paper-data="{&quot;index&quot;:null}" fill="#ace6ff" stroke="none" stroke-width="0.17188" stroke-linecap="butt"/><path d="M195.53112,169.53296c0,0 -1.32408,1.01146 -2.34359,1.72397c-2.12672,1.48637 -3.43877,3.77123 -4.0141,3.31343c-0.22817,-0.37546 0.31543,-2.26293 0.81522,-2.77005l1.01448,-1.03017c1.78451,-1.81133 4.33145,-2.48426 5.36659,-2.42966c0.44778,0.02356 1.27684,-0.43098 1.77156,-0.25775c0,0 -1.58181,1.17897 -2.61025,1.45019z" data-paper-data="{&quot;index&quot;:null}" fill="#ace6ff" stroke="none" stroke-width="0.17188" stroke-linecap="butt"/><path d="M190.55821,170.79888c0,0 -0.0285,-4.00309 1.09495,-4.69413c0.74597,-0.45946 2.50376,0.23451 3.07465,-0.30704c0.7089,-0.67228 2.44388,-1.66225 3.71519,-2.18c1.15438,-0.13712 2.26565,-0.52418 3.53738,-0.00086c1.13703,-0.17362 3.15218,2.69312 2.77835,2.78683l-5.08045,1.27382c-1.28912,0.32312 -3.90413,1.06387 -4.43606,1.27389z" data-paper-data="{&quot;index&quot;:null}" fill="#d757d7" stroke="none" stroke-width="0.17188" stroke-linecap="butt"/><path d="M207.97116,197.20702c-2.26393,-1.59669 -2.26752,-5.46127 -0.8484,-7.27043c1.41917,-1.80926 4.40485,-1.98153 6.66878,-0.38476c2.26392,1.59665 2.94871,4.35774 1.52961,6.16697c-1.41917,1.80926 -5.08611,3.08497 -7.35006,1.48825z" fill="#272d3a" stroke="none" stroke-width="0" stroke-linecap="butt"/><path d="M208.83439,168.28534c2.33702,-1.48763 6.08775,-0.34297 7.4196,1.53146c1.33181,1.87441 0.51684,4.59995 -1.82019,6.08755c-2.33704,1.48756 -5.31124,1.17399 -6.64307,-0.70049c-1.33181,-1.87441 -1.29339,-5.43108 1.04374,-6.91863z" data-paper-data="{&quot;index&quot;:null}" fill="#272d3a" stroke="none" stroke-width="0" stroke-linecap="butt"/><path d="M208.99813,195.2999l4.15528,-3.88249" fill="none" stroke="#000000" stroke-width="0.25" stroke-linecap="round"/><path d="M213.34403,195.28647l-4.62503,-3.61725" fill="none" stroke="#000000" stroke-width="0.25" stroke-linecap="round"/><path d="M208.25894,196.92448c-0.72421,-0.26898 -1.09319,-1.07417 -0.82417,-1.79831c0.26898,-0.72421 1.07417,-1.09318 1.79831,-0.82417c0.72421,0.26898 1.09319,1.07418 0.82417,1.79831c-0.26898,0.72421 -1.07417,1.09318 -1.79831,0.82417z" fill="#000000" stroke="none" stroke-width="0" stroke-linecap="butt"/><path d="M212.6799,192.32674c-0.72421,-0.26898 -1.0932,-1.07421 -0.82417,-1.79831c0.26898,-0.72421 1.07421,-1.0932 1.79835,-0.82419c0.72421,0.26898 1.09319,1.07418 0.82417,1.79832c-0.26898,0.72421 -1.07422,1.0932 -1.79835,0.82419z" fill="#000000" stroke="none" stroke-width="0" stroke-linecap="butt"/><path d="M207.68013,192.63993c-0.72421,-0.26898 -1.0932,-1.0742 -0.82414,-1.79832c0.26898,-0.72421 1.07417,-1.09319 1.79831,-0.82417c0.72421,0.26898 1.09319,1.07417 0.82417,1.79831c-0.269,0.72417 -1.07421,1.0932 -1.79834,0.82419z" fill="#000000" stroke="none" stroke-width="0" stroke-linecap="butt"/><path d="M213.02041,196.52275c-0.72421,-0.26898 -1.0932,-1.07421 -0.82417,-1.79831c0.26898,-0.72421 1.07421,-1.0932 1.79835,-0.82418c0.72421,0.26898 1.09319,1.07418 0.82417,1.79831c-0.26898,0.72421 -1.07421,1.0932 -1.79835,0.82419z" fill="#000000" stroke="none" stroke-width="0" stroke-linecap="butt"/><path d="M213.90328,170.4052l-4.15528,3.88249" fill="none" stroke="#000000" stroke-width="0.25" stroke-linecap="round"/><path d="M209.46875,170.65701l4.62503,3.61724" fill="none" stroke="#000000" stroke-width="0.25" stroke-linecap="round"/><path d="M209.00879,175.91232c-0.72421,-0.26898 -1.09319,-1.07418 -0.82417,-1.79831c0.26898,-0.72421 1.07422,-1.0932 1.79835,-0.82418c0.72421,0.26898 1.0932,1.07421 0.82414,1.79832c-0.26898,0.72421 -1.07418,1.09319 -1.79831,0.82417z" fill="#000000" stroke="none" stroke-width="0" stroke-linecap="butt"/><path d="M213.42977,171.31461c-0.72421,-0.26898 -1.0932,-1.07421 -0.82417,-1.79831c0.26898,-0.72421 1.07418,-1.09318 1.79832,-0.82417c0.72421,0.26898 1.09318,1.07417 0.82417,1.79831c-0.26898,0.72421 -1.07421,1.0932 -1.79831,0.82417z" fill="#000000" stroke="none" stroke-width="0" stroke-linecap="butt"/><path d="M208.42992,171.62771c-0.72421,-0.26898 -1.0932,-1.07421 -0.82414,-1.79833c0.26898,-0.72421 1.07421,-1.0932 1.79835,-0.82418c0.72421,0.26898 1.09319,1.07417 0.82417,1.79831c-0.269,0.72417 -1.07425,1.09321 -1.79834,0.82422z" fill="#000000" stroke="none" stroke-width="0" stroke-linecap="butt"/><path d="M213.77028,175.51062c-0.72421,-0.26898 -1.0932,-1.07421 -0.82417,-1.79831c0.26898,-0.72421 1.07417,-1.09319 1.79831,-0.82417c0.72421,0.26898 1.09319,1.07417 0.82418,1.79831c-0.26898,0.72421 -1.07421,1.0932 -1.79831,0.82417z" fill="#000000" stroke="none" stroke-width="0" stroke-linecap="butt"/></g><g data-paper-data="{&quot;index&quot;:null}"><path d="M192.04625,183.7523c0,0 -4.78589,6.27961 -8.90663,9.01392c-4.12081,2.73431 -10.6038,1.87561 -10.6038,1.87561l0.72409,-2.69699c0,0 4.40117,1.17099 8.31074,-1.43964c3.90954,-2.61066 8.42305,-8.17881 8.42305,-8.17881z" fill="#565e69" stroke="none" stroke-width="0" stroke-linecap="butt"/><path d="M175.50923,194.64115l-13.18275,3.49901l-0.08525,-4.11155l-2.60531,-3.05154l1.97364,-3.65553l3.76567,-0.76801l1.91835,-1.72681z" fill="#00eb5c" stroke="none" stroke-width="0" stroke-linecap="butt"/><path d="M175.10065,194.16907l-13.13519,-5.21918" fill="none" stroke="#000000" stroke-width="0.25" stroke-linecap="round"/><path d="M167.20428,184.77614l2.36338,7.65532l-7.40971,6.13538" fill="none" stroke="#000000" stroke-width="0.25" stroke-linecap="round"/></g><g data-paper-data="{&quot;index&quot;:null}"><g data-paper-data="{&quot;index&quot;:null}" stroke="none" stroke-width="0" stroke-linecap="butt"><path d="M251.44971,195.41123c0,0 18.86706,-7.08045 19.31391,-7.57513c0.44686,-0.49474 1.78538,0.57694 3.14806,1.73828c1.36269,1.16129 3.78601,4.34873 3.78601,4.34873c0,0 -1.00086,-1.17436 -4.71326,-0.62665c-2.19721,0.32412 -6.00539,1.52065 -9.02929,1.92534c-5.48598,0.73418 -12.50546,0.18951 -12.50546,0.18951z" fill="#d757d7"/><path d="M255.90563,195.22158c-15.62298,1.51432 -20.02209,-4.25334 -20.02209,-4.25334c0,0 -1.2217,-0.44442 4.19177,-0.82887c1.86185,-0.13221 4.78045,-3.99394 14.08534,-5.65678c11.90513,-2.12748 18.08327,3.68279 18.08327,3.68279c0,0 -5.09327,5.96615 -16.33828,7.05615z" fill="#f8ffff"/></g><path d="M265.92774,191.28778l2.39529,0.77557" fill="none" stroke="#000000" stroke-width="0.25" stroke-linecap="round"/><path d="M271.72032,190.32797l-1.9423,-1.00697" fill="none" stroke="#000000" stroke-width="0.25" stroke-linecap="round"/></g><g data-paper-data="{&quot;index&quot;:null}"><g data-paper-data="{&quot;index&quot;:null}" stroke="none" stroke-width="0" stroke-linecap="butt"><path d="M278.96965,203.34354c0,0 -4.47774,-1.52298 -8.68021,-1.40104c-4.20243,0.12201 -14.43447,2.80657 -14.43447,2.80657l4.57658,-18.49899c0,0 7.34734,1.67507 11.64197,4.35969c5.68099,3.55123 6.89618,12.73371 6.89618,12.73371z" fill="#d757d7"/><path d="M270.11392,195.15217c-0.38802,5.38084 -15.58931,11.54737 -23.05776,10.40335c-7.98321,-1.22295 -14.57975,-11.94718 -14.57975,-11.94718l1.46541,-2.91608c0,0 4.08769,1.81965 10.38506,-1.58458c9.2334,-4.99125 13.28334,-3.06073 16.10473,-2.85756c2.84284,0.20471 10.08601,3.30447 9.68235,8.90199z" fill="#f8ffff"/></g><path d="M267.9663,199.90766l-2.15569,-0.1" fill="none" stroke="#000000" stroke-width="0.25" stroke-linecap="round"/><path d="M268.86825,195.98893l1.96771,0.27136" fill="none" stroke="#000000" stroke-width="0.25" stroke-linecap="round"/><path d="M267.97377,191.98678l2.70297,-0.05456" fill="none" stroke="#000000" stroke-width="0.25" stroke-linecap="round"/></g><g data-paper-data="{&quot;index&quot;:null}"><g data-paper-data="{&quot;index&quot;:null}" stroke="none" stroke-width="0" stroke-linecap="butt"><path d="M275.89306,204.23546c0,0 -4.93103,10.02091 -17.4302,7.96525c-2.36657,-0.38928 8.14265,-2.75538 8.0412,-5.57422c-0.10143,-2.81848 -10.87275,-8.50571 -10.87275,-8.50571c0,0 10.08223,4.37643 12.9002,5.07796c2.81786,0.70154 7.36168,1.03681 7.36168,1.03681z" fill="#d757d7"/><path d="M231.87392,201.47578c0,0 17.73517,-4.60358 23.47171,-3.11809c5.296,1.37145 15.25292,9.08507 12.13019,11.62702c-3.12272,2.54191 -12.61463,3.01188 -20.14298,-0.53913c-6.21305,-2.93047 -15.45882,-7.96989 -15.45882,-7.96989z" fill="#f8ffff"/></g><path d="M267.77094,205.08014l-3.27309,0.53123" fill="none" stroke="#000000" stroke-width="0.25" stroke-linecap="round"/><path d="M267.1996,208.98672l2.13774,-0.46551" fill="none" stroke="#000000" stroke-width="0.25" stroke-linecap="round"/></g><g data-paper-data="{&quot;index&quot;:null}"><g data-paper-data="{&quot;index&quot;:null}" stroke="none" stroke-width="0" stroke-linecap="butt"><path d="M256.34752,192.94839c0,0 7.14703,-0.97981 11.48282,1.18169c5.21903,2.60189 13.89619,4.91336 13.89619,4.91336c0,0 -10.22925,8.26135 -15.28307,10.44017c-8.74659,3.78388 -12.92794,1.64682 -12.92794,1.64682c0,0 11.3826,-5.07837 12.15779,-8.68119c0.76392,-3.55027 -9.32597,-9.50084 -9.32597,-9.50084z" fill="#d757d7"/><path d="M253.67078,211.46308c-0.58146,-0.04198 -8.96118,-1.04134 -12.66664,-4.83951c-4.91805,-5.041 -7.59282,-2.05947 -6.56742,-5.26429c1.02548,-3.20482 5.28208,-8.3274 11.08263,-8.63942c4.82803,-0.25983 10.95494,0.24318 10.95494,0.24318c0,0 11.81172,4.79707 10.05546,9.92852c-2.1241,5.7509 -12.25224,8.61522 -12.85889,8.57144z" fill="#f8ffff"/></g><path d="M264.44754,196.45816l-1.96411,0.29643" fill="none" stroke="#000000" stroke-width="0.25" stroke-linecap="round"/><path d="M267.93396,200.57535l-1.75267,0.82435" fill="none" stroke="#000000" stroke-width="0.25" stroke-linecap="round"/><path d="M263.03608,206.08976l2.87232,-0.17012" fill="none" stroke="#000000" stroke-width="0.25" stroke-linecap="round"/></g><g data-paper-data="{&quot;index&quot;:null}"><path d="M240.10787,204.9547c-1.85602,0.73361 -6.39199,-1.21264 -9.9181,-3.37691c-3.52607,-2.16431 -3.74471,-4.5066 -3.64364,-4.94735c0.12762,-0.55671 0.22732,-5.12373 2.246,-7.33427c2.01872,-2.21051 3.32312,-1.00541 5.52869,-1.179c2.20553,-0.17359 5.82729,0.04994 6.47108,0.23456c1.64848,0.47339 -0.28632,5.47908 0.52957,6.60546c0,0 0.53146,9.00352 -1.21361,9.99742z" data-paper-data="{&quot;index&quot;:null}" fill="#d757d7" stroke="none" stroke-width="0.17188" stroke-linecap="butt"/><path d="M240.34028,199.77691c0.50833,-2.21726 -0.52477,-3.39664 0.70658,-3.79242c0.63587,-0.20441 1.34962,2.39167 0.71783,4.57585c-1.19593,2.34789 -0.6983,5.56128 -0.6983,5.56128l-2.00502,-1.31296c0,0 0.77051,-2.81449 1.27888,-5.03172z" data-paper-data="{&quot;index&quot;:null}" fill="#ace6ff" stroke="none" stroke-width="0" stroke-linecap="butt"/><path d="M240.5347,188.06506l2.06413,-0.82417c0,0 -1.29235,2.36368 -0.93058,4.97365c-0.11767,2.27066 -1.71748,2.65553 -1.4723,0.394c0.24518,-2.26153 0.33867,-4.54344 0.33867,-4.54344z" data-paper-data="{&quot;index&quot;:null}" fill="#ace6ff" stroke="none" stroke-width="0" stroke-linecap="butt"/><path d="M239.46873,199.20679l1.31345,0.60026" fill="none" stroke="#000000" stroke-width="0.25" stroke-linecap="round"/><path d="M238.9001,202.6312l1.11261,0.60209" fill="none" stroke="#000000" stroke-width="0.25" stroke-linecap="round"/><path d="M240.65879,191.55824l-1.13218,-0.14177" fill="none" stroke="#000000" stroke-width="0.25" stroke-linecap="round"/><path d="M239.71469,188.90709l1.5036,-0.21528" fill="none" stroke="#000000" stroke-width="0.25" stroke-linecap="round"/></g><g data-paper-data="{&quot;index&quot;:null}" stroke="none" stroke-linecap="butt"><path d="M227.85287,193.09978c-0.1089,-0.67342 0.55946,-1.17287 1.72672,-1.43587c1.1673,-0.26307 2.8342,-0.29014 4.72237,-0.01797c1.88788,0.27199 3.6427,0.79212 4.95311,1.41203c1.31022,0.62032 2.17543,1.34059 2.28433,2.01397c0.10879,0.67293 -0.55957,1.17235 -1.72714,1.43572c-1.1673,0.26307 -2.83398,0.28981 -4.72223,0.01767c-1.88788,-0.27199 -3.64292,-0.79171 -4.95311,-1.41203c-1.31041,-0.61995 -2.17538,-1.34063 -2.28418,-2.01349z" fill="#03e1b6" stroke-width="0.01872"/><path d="M234.93197,192.72606c1.78079,0.33771 3.10701,1.23016 2.96231,1.99336c-0.14474,0.76316 -1.70564,1.10808 -3.48642,0.77037c-1.78079,-0.33771 -3.107,-1.23016 -2.9623,-1.99337c0.14474,-0.76316 1.70563,-1.10807 3.48641,-0.77036z" fill="#216375" stroke-width="0"/><path d="M228.50014,193.66084c0.03357,-0.26972 0.35201,-0.41762 0.83943,-0.43849c0.48768,-0.02113 1.14432,0.08492 1.85408,0.32268c0.70999,0.23761 1.3394,0.56261 1.78312,0.89553c0.44391,0.33315 0.70208,0.67405 0.66852,0.94374c-0.03308,0.26969 -0.35175,0.41743 -0.83947,0.43852c-0.48768,0.02113 -1.14432,-0.08492 -1.85386,-0.32249c-0.70977,-0.23782 -1.33966,-0.56291 -1.78339,-0.89579c-0.44391,-0.33315 -0.70182,-0.67382 -0.66844,-0.94377z" fill="#000000" stroke-width="0.01896"/></g><g data-paper-data="{&quot;index&quot;:null}"><g stroke="none" stroke-width="0" stroke-linecap="butt"><path d="M235.19846,207.09568l-2.39778,1.27186l-5.09199,-8.73235l3.11633,-0.68292z" fill="#d757d7"/><path d="M235.88367,207.0514c1.74256,1.4185 7.57471,11.01505 7.57471,11.01505l-5.62503,0.92424c0,0 -4.28236,-6.58472 -5.18564,-10.44859c-0.37385,-1.5991 1.37174,-3.00828 3.23586,-1.49074z" fill="#ace6ff"/><path d="M235.54432,226.41844c-5.06142,2.01346 -11.80824,-0.97585 -11.61802,-2.45311c0.60162,-4.67076 2.8789,-6.17559 7.75983,-8.5939c5.91193,-2.92917 12.97021,1.66925 12.89897,4.93682c-0.02337,1.06979 -3.97939,4.09683 -9.0408,6.11024z" fill="#f8ffff"/></g><path d="M226.18525,219.95412c0,0 5.26914,-2.05752 8.85009,-1.77345c3.58095,0.28408 8.94,2.41371 8.94,2.41371" fill="none" stroke="#000000" stroke-width="0.5" stroke-linecap="round"/><path d="M241.11915,218.16297l-0.64518,3.00828" fill="none" stroke="#f8ffff" stroke-width="0.5" stroke-linecap="round"/><path d="M236.32481,217.36565l-0.39869,2.39716" fill="none" stroke="#f8ffff" stroke-width="0.5" stroke-linecap="round"/><path d="M232.08377,219.77592l0.10499,-2.3736" fill="none" stroke="#f8ffff" stroke-width="0.5" stroke-linecap="round"/><path d="M227.85333,218.63758l0.14159,1.76248" fill="none" stroke="#f8ffff" stroke-width="0.5" stroke-linecap="round"/></g></g></g></svg>