<svg version="1.1" xmlns="http://www.w3.org/2000/svg" xmlns:xlink="http://www.w3.org/1999/xlink" width="25.0909" height="26.01405" viewBox="0,0,25.0909,26.01405"><defs><radialGradient cx="240" cy="180" r="12.54545" gradientUnits="userSpaceOnUse" id="color-1"><stop offset="0" stop-color="#000000"/><stop offset="1" stop-color="#000000" stop-opacity="0.50196"/></radialGradient></defs><g transform="translate(-227.45455,-167.45454)"><g data-paper-data="{&quot;isPaintingLayer&quot;:true}" fill-rule="nonzero" stroke="none" stroke-width="0" stroke-linecap="butt" stroke-linejoin="miter" stroke-miterlimit="10" stroke-dasharray="" stroke-dashoffset="0" style="mix-blend-mode: normal"><path d="M227.45455,180c0,-6.92866 5.61679,-12.54545 12.54545,-12.54545c6.92866,0 12.54545,5.61679 12.54545,12.54545c0,6.92866 -5.61679,12.54545 -12.54545,12.54545c-6.92866,0 -12.54545,-5.61679 -12.54545,-12.54545z" fill="url(#color-1)"/><g><path d="M233.09216,178.08482z" fill="#030000"/><path d="M249.06565,177.66103c0.18608,1.56468 -2.28771,2.69158 -4.26415,2.92663c-0.02093,0.00249 -3.54564,-1.94583 -5.25546,1.05008c-0.97997,1.7171 0.01081,7.69724 0.01081,7.69724l-2.3468,-6.39245c0,0 0.0395,2.1252 0.19534,3.36312c0.2175,1.72766 0.98751,6.03251 0.98751,6.03251c0,0 -2.20321,-3.3376 -2.77212,-5.60163c-0.68913,-2.74243 -0.92349,-6.88116 -0.92349,-6.88116c0,0 0.09162,3.94554 0.47746,8.25465c0.38584,4.30912 0.84532,5.35859 0.84532,5.35859c0,0 -2.35941,-3.63002 -3.0512,-6.25733c-0.69179,-2.62731 -1.11163,-6.24686 -1.11163,-6.24686l-0.69629,5.3979c0,0 -0.6327,-2.97979 -0.75793,-4.43675c-0.11922,-1.38705 0.02371,-4.10567 0.02371,-4.10567c0,0 1.10601,-2.5282 2.11246,-3.71199c1.83305,-2.15607 2.88389,-2.46056 2.88389,-2.46056c0,0 5.14241,-0.72567 9.23207,0.71625c1.93251,0.68135 3.00118,4.25529 3.00118,4.25529c0,0 1.22322,-0.52253 1.4093,1.04215z" data-paper-data="{&quot;index&quot;:null}" fill="#ff3300"/><path d="M249.61046,182.03022c0,0 0.68716,0.7874 -4.11786,2.08292c-1.9694,0.53098 -4.0505,0.25141 -5.71309,-0.63515c-1.22027,-0.6023 -1.27584,-2.24328 -1.19366,-2.67109c0.28392,-1.47806 1.19429,-1.75887 1.88019,-1.48655c0.8107,0.32186 1.38738,1.36409 1.38738,1.36409c0,0 0.96903,-0.49252 3.58389,-0.66925c2.67383,-0.18071 4.17315,2.01504 4.17315,2.01504z" data-paper-data="{&quot;index&quot;:null}" fill="#ff3300"/><path d="M245.08799,180.02972c0,0 -2.21847,0.61487 -3.10081,0.71981c-0.43456,0.05168 -2.0536,-1.47363 -2.28637,-2.44746c-0.11613,-0.48587 0.12627,-1.18397 0.10408,-1.37055c-0.04372,-0.36764 1.81519,0.08116 2.96495,0.86255c0.73491,0.49945 2.31814,2.23564 2.31814,2.23564z" data-paper-data="{&quot;index&quot;:null}" fill="#ffffff"/><path d="M247.87024,179.55782c0.06529,0.54901 -0.13765,0.94049 -0.49222,0.98266c-0.35456,0.04216 -1.15749,-0.01966 -1.22278,-0.56867c-0.06529,-0.54901 0.80395,-1.46776 1.2615,-1.57821c0.45755,-0.11045 0.38821,0.61522 0.4535,1.16423z" data-paper-data="{&quot;index&quot;:null}" fill="#ffffff"/><path d="M241.79423,180.37712c-0.30882,0.03673 -0.61288,-0.38518 -0.67914,-0.94236c-0.06626,-0.55718 0.13037,-1.03863 0.43918,-1.07536c0.30882,-0.03673 0.61288,0.38518 0.67914,0.94236c0.06626,0.55718 -0.13037,1.03863 -0.43918,1.07536z" fill="#ff3300"/><path d="M246.927,180.43967c-0.30882,0.03673 -0.69214,-0.3212 -0.61356,-0.87678c0.0649,-0.45882 0.45826,-0.8324 0.66871,-0.90191c0.30882,-0.03673 0.31778,0.14615 0.38404,0.70334c0.06626,0.55718 -0.13037,1.03863 -0.43919,1.07536z" fill="#ff3300"/></g></g></g></svg>