<svg version="1.1" xmlns="http://www.w3.org/2000/svg" xmlns:xlink="http://www.w3.org/1999/xlink" width="23.35287" height="38.02268" viewBox="0,0,23.35287,38.02268"><g transform="translate(-228.21701,-160.83444)"><g data-paper-data="{&quot;isPaintingLayer&quot;:true}" fill-rule="nonzero" stroke-linejoin="miter" stroke-miterlimit="10" stroke-dasharray="" stroke-dashoffset="0" style="mix-blend-mode: normal"><path d="M240.55631,190.21128c0,0 0.34728,-2.76697 0.32977,-4.56631c-0.01751,-1.79933 -2.89059,-1.71014 -2.89059,-1.71014l0.19985,-1.97348c0,0 4.07162,1.20655 4.04314,3.37915c-0.0846,2.24598 -0.22364,6.08187 -0.22364,6.08187z" data-paper-data="{&quot;index&quot;:null}" fill="#033397" stroke="none" stroke-width="0" stroke-linecap="butt"/><g data-paper-data="{&quot;index&quot;:null}" stroke="none" stroke-width="0" stroke-linecap="butt"><path d="M249.59961,196.00843c0,0 -1.23837,1.34584 -4.64663,1.10895c-0.74166,-0.05153 -2.46673,-0.34839 -2.46673,-0.34839l-0.01189,-0.59162l-1.43642,-0.22988l-0.064,0.42425c0,0 -1.00463,-0.30066 -1.2635,-0.42416c-0.61223,-0.29213 -1.44699,-0.75714 -1.44699,-0.75714c0,0 -0.03505,-1.54394 0.67138,-2.97422c0.27874,-0.56436 0.96215,-1.17619 6.26517,0.1329c4.52539,0.64255 4.39961,3.65932 4.39961,3.65932z" fill="#e90023"/><path d="M249.54357,196.01214l0.00064,0.41904l-1.06245,-0.12943l-0.75888,0.29031l0.18447,0.7859l-1.20275,-0.87579l0.55705,-1.09039l1.78597,-0.62112l0.49591,1.22147z" fill="#948a92"/><path d="M241.02105,195.88918c0,0 -0.0272,-0.6261 -0.20728,-1.26295c-0.18008,-0.63686 -0.68932,-1.53149 -0.68932,-1.53149l-0.03372,-1.3125l1.49704,-0.15536c0,0 0.59633,0.96575 0.8023,2.19345c0.19413,1.15718 0.11107,2.41615 0.11107,2.41615z" fill="#deca55"/><path d="M249.01754,195.16405l-1.36146,0.84538l0.36317,1.34894l-1.90476,0.39962l-3.6627,-0.95716l-0.02724,-1.36719l3.22553,1.06583l0.51496,-1.93841l2.10562,-1.13172l1.09883,1.3567l0.42222,1.36464l-0.27307,0.34706z" fill="#edeeee"/><g><path d="M249.1849,195.91556c0.22578,0.28703 0.06323,0.84035 -0.24694,0.97977c-0.44154,0.19846 -0.77894,0.18799 -1.00473,-0.09903c-0.22578,-0.28703 -0.19644,-0.71599 0.1833,-0.97218c0.37974,-0.25617 0.84258,-0.19557 1.06836,0.09144z" fill="#ece09c"/><path d="M249.05584,196.90103c-0.30921,0.24201 -0.85946,0.1939 -1.02486,-0.06676c-0.17349,-0.27344 0.17209,-0.64248 0.3972,-0.77767c0.25316,-0.1708 0.64781,-0.12987 0.79833,0.06146c0.15053,0.19134 0.08247,0.61218 -0.17068,0.78298z" fill="#000000"/></g><path d="M242.46402,194.5406c0,0 0.03875,0.57513 0.03102,0.8615c-0.00757,0.28054 -0.07687,0.83952 -0.07687,0.83952l-0.38114,-0.10563l0.20427,-2.8899c0,0 0.1457,0.52402 0.18549,0.7553c0.03329,0.19341 0.03724,0.53923 0.03724,0.53923z" fill="#6a2625"/><path d="M238.40118,194.02215c0,0 1.10995,0.25217 1.06232,0.74715c-0.04763,0.49498 -1.12561,-0.08923 -1.12561,-0.08923l0.06328,-0.6579z" fill="#eac763"/><path d="M243.17668,191.7915c0.01638,0.53789 -0.98283,0.81562 -1.86903,0.9331c-0.88619,0.1175 -2.08262,0.1778 -2.18642,-0.39538c-0.21064,-1.16322 0.41612,-1.22288 0.41612,-1.22288c0,0 -0.60155,0.0002 -0.10399,-1.16878c0.19739,-0.46373 0.93929,-0.77693 1.60556,-0.81233c0.66627,-0.03542 1.92127,0.2018 2.0463,0.83427c0.09637,0.48751 -0.40061,0.83938 -0.40061,0.83938c0,0 0.44663,0.47676 0.4921,0.99261z" fill="#fdfdfd"/></g><path d="M240.92537,180.15647c0,0 -0.02369,-0.59749 0.36629,-0.60184c0.38999,-0.00435 0.5912,0.42358 0.5912,0.42358l-0.12827,2.22799l3.13929,0.01677l-0.09715,1.01577l-3.87951,-0.30032z" data-paper-data="{&quot;index&quot;:null}" fill="#fec267" stroke="none" stroke-width="0" stroke-linecap="butt"/><g data-paper-data="{&quot;index&quot;:null}"><g><path d="M248.52707,180.31512c0.28826,0.00774 1.56816,0.53143 1.61115,0.62803c0.05219,0.11726 0.06909,-0.04383 0.05064,0.16677c-0.01846,0.21062 -0.31343,0.21279 -0.31343,0.21279c0,0 0.38105,0.08787 0.36809,0.41343c-0.01297,0.32555 -0.33696,0.47982 -0.33696,0.47982c0,0 0.25761,0.19003 0.23092,0.44754c-0.0267,0.25752 -0.32869,0.48084 -0.32869,0.48084c0,0 0.31944,0.35272 0.29986,0.56543c-0.01959,0.2127 -0.38701,0.38701 -0.38701,0.38701c0,0 0.32382,0.07699 0.27157,0.52036c-0.04067,0.34508 -0.51222,0.41544 -1.16653,0.33425c-0.66329,-0.08229 -1.36396,-0.16261 -1.70392,-0.17174c-1.0302,-0.02766 -1.29213,-1.09019 -1.26446,-2.12041c0.01295,-0.48252 0.24497,-1.21409 0.80679,-1.48731c0.75304,-0.36619 1.31425,-0.87149 1.86194,-0.85679z" fill="#fdfdfd" stroke="none" stroke-width="0" stroke-linecap="butt"/><path d="M247.91027,182.32516c0,0 0.02516,-0.65633 0.32879,-0.907c0.14364,-0.11859 0.58938,0.07146 0.97229,0.0589c0.38289,-0.01257 0.80742,-0.21233 0.80742,-0.21233" fill="none" stroke="#a4a4a4" stroke-width="0.125" stroke-linecap="round"/></g><path d="M246.19012,182.93304c0.01977,0.41362 0.13161,1.48669 -0.18707,1.53594c-0.64676,0.09995 -0.65612,-0.38886 -0.65612,-0.38886c0,0 -0.02233,0.46603 -0.6458,0.01701c-0.24733,-0.17812 -0.39166,-0.76991 -0.38626,-1.28801c0.0054,-0.5181 0.18251,-1.47747 0.53455,-1.53996c0.27134,-0.04815 0.44606,0.35601 0.44606,0.35601c0,0 0.27851,-0.32009 0.56353,-0.32726c0.29605,0.01658 0.31349,1.26713 0.33109,1.63515z" fill="#fdfdfd" stroke="none" stroke-width="0" stroke-linecap="butt"/></g><path d="M237.80415,177.96983c0,0 0.19708,1.86487 0.85652,1.86487c0.65944,0 -1.06188,0.91077 -1.99003,2.27748c-0.92814,1.36671 -2.03425,3.64839 -2.03425,3.64839c0,0 -0.35268,-3.59223 0.00811,-5.02329c0.67719,-2.68608 3.10083,-2.76746 3.10083,-2.76746z" data-paper-data="{&quot;index&quot;:null}" fill="#02124a" stroke="none" stroke-width="0" stroke-linecap="butt"/><path d="M238.08787,183.80058c0,0 -0.19123,0.96987 -1.20936,1.59486c-1.01812,0.62499 -3.25715,1.14695 -3.25715,1.14695c0,0 2.16872,-1.74449 2.74613,-2.46427c0.48097,-0.59956 0.48215,-1.56001 0.48215,-1.56001l1.23824,1.28246z" data-paper-data="{&quot;index&quot;:null}" fill="#02124a" stroke="none" stroke-width="0" stroke-linecap="butt"/><path d="M237.83763,183.9466c-0.79878,-0.22367 -1.37808,-0.70449 -1.07252,-2.54092c0.17041,-1.02415 0.53712,-2.08076 0.79493,-3.00146c0.2549,-0.71696 1.46328,-0.73866 2.80386,-0.36326c1.34058,0.37539 1.47123,2.1261 1.03985,3.66659c-0.43138,1.5405 -2.22555,2.61445 -3.56612,2.23905z" data-paper-data="{&quot;index&quot;:null}" fill="#033397" stroke="none" stroke-width="0" stroke-linecap="butt"/><path d="M241.62091,181.42394c-0.31981,1.02594 -1.33078,2.27794 -2.57985,2.07894c-1.12095,-0.1786 -0.93778,-3.77207 -0.14214,-4.49443c0.86212,-0.78271 2.06089,-0.65466 2.29193,-0.23076c0.45565,0.836 0.88166,1.19749 0.43005,2.64625z" data-paper-data="{&quot;index&quot;:null}" fill="#fec267" stroke="none" stroke-width="0" stroke-linecap="butt"/><path d="M234.70706,189.49627c0,0 1.32363,-2.45453 1.95747,-4.13862c0.63385,-1.68409 0.22892,-3.92194 0.22892,-3.92194l1.26519,0.46103c0,0 0.17663,2.97111 -0.12307,3.66569c-0.89044,2.06366 -2.40615,5.59013 -2.40615,5.59013z" data-paper-data="{&quot;index&quot;:null}" fill="#033397" stroke="none" stroke-width="0" stroke-linecap="butt"/><g data-paper-data="{&quot;index&quot;:null}" stroke="none" stroke-width="0" stroke-linecap="butt"><path d="M241.04462,198.16945c0,0 -1.64099,0.80743 -4.73338,-0.64499c-0.67293,-0.31603 -2.17418,-1.21618 -2.17418,-1.21618l0.20268,-0.55595l-1.2563,-0.73338l-0.21298,0.37246c0,0 -0.82812,-0.64336 -1.02487,-0.85206c-0.4653,-0.49362 -1.07564,-1.22884 -1.07564,-1.22884c0,0 0.52521,-1.45229 1.70072,-2.53067c0.46384,-0.42549 1.32214,-0.74905 5.79383,2.38778c3.98745,2.23434 2.78009,5.00183 2.78009,5.00183z" fill="#e90023"/><path d="M240.99098,198.15264l-0.15081,0.39096l-0.94391,-0.5046l-0.8125,-0.00351l-0.11197,0.79946l-0.80503,-1.25122l0.91342,-0.81543l1.88974,0.06619l0.02104,1.31814z" fill="#948a92"/><path d="M233.08875,194.95846c0,0 0.20086,-0.59361 0.26307,-1.25251c0.06222,-0.6589 -0.08935,-1.6771 -0.08935,-1.6771l0.44282,-1.236l1.45203,0.39607c0,0 0.20707,1.11599 -0.0445,2.33516c-0.23711,1.14914 -0.76948,2.29304 -0.76948,2.29304z" fill="#deca55"/><path d="M240.80695,197.1718l-1.57494,0.2963l-0.14879,1.38902l-1.92046,-0.31564l-3.06937,-2.21596l0.46863,-1.28466l2.62247,2.15933l1.18059,-1.62136l2.37229,-0.29441l0.53435,1.66208l-0.0994,1.425l-0.38002,0.22494z" fill="#edeeee"/><g><path d="M240.69144,197.933c0.10681,0.34922 -0.24468,0.80642 -0.58428,0.82434c-0.48341,0.02552 -0.79424,-0.10617 -0.90106,-0.45538c-0.10681,-0.34923 0.07555,-0.7386 0.52221,-0.84027c0.44665,-0.10164 0.85632,0.1221 0.96314,0.4713z" fill="#ece09c"/><path d="M240.21502,198.80526c-0.37576,0.11392 -0.87145,-0.12977 -0.93149,-0.43258c-0.06296,-0.31766 0.39261,-0.5369 0.65137,-0.58161c0.29777,-0.06778 0.65097,0.11299 0.72218,0.34578c0.07123,0.23281 -0.1443,0.60061 -0.44206,0.6684z" fill="#000000"/></g><path d="M234.92149,194.22241c0,0 -0.17167,0.55026 -0.28236,0.81449c-0.10843,0.25886 -0.37503,0.75503 -0.37503,0.75503l-0.31721,-0.23622l1.23471,-2.62083c0,0 -0.0535,0.54126 -0.09997,0.77129c-0.03885,0.19237 -0.16012,0.51626 -0.16012,0.51626z" fill="#6a2625"/><path d="M231.3205,192.27092c0,0 0.94383,0.6362 0.72057,1.08052c-0.22325,0.44433 -1.01731,-0.48993 -1.01731,-0.48993l0.29674,-0.59058z" fill="#eac763"/><path d="M236.57937,191.91659c-0.17909,0.50746 -1.21115,0.40538 -2.07992,0.1947c-0.86876,-0.21066 -2.00614,-0.58675 -1.89582,-1.15871c0.22391,-1.16074 0.82988,-0.9899 0.82988,-0.9899c0,0 -0.56096,-0.21717 0.32537,-1.12738c0.35162,-0.36108 1.15657,-0.38504 1.79061,-0.1773c0.63405,0.20771 1.71854,0.88239 1.60658,1.5173c-0.0863,0.4894 -0.67684,0.63791 -0.67684,0.63791c0,0 0.24418,0.60594 0.10018,1.10336z" fill="#fdfdfd"/></g><g data-paper-data="{&quot;index&quot;:null}" fill="#033397" stroke-width="0"><path d="M238.84948,178.54171c-2.04586,-2.10463 -1.99823,-5.46924 0.10637,-7.5151c2.10462,-2.04586 5.46924,-1.99825 7.51511,0.10636c2.04587,2.10463 1.99823,5.46925 -0.10637,7.51511c-2.10463,2.04586 -5.46924,1.99824 -7.51511,-0.10637z" stroke="none" stroke-linecap="butt"/><path d="M237.73022,176.80292c0,0 -1.45615,-1.64429 -3.58846,-1.78055c-2.13232,-0.13627 -5.29688,1.03582 -5.29688,1.03582c0,0 0.42278,-1.72393 2.4427,-3.53785c1.7115,-1.53698 3.91069,-1.93016 3.91069,-1.93016c0,0 -1.60827,-1.05914 -2.58957,-1.25429c-1.63188,-0.32457 -4.39168,-0.1266 -4.39168,-0.1266c0,0 1.8606,-2.44103 5.62736,-3.6839c3.24527,-1.07078 6.05008,0.13312 6.05008,0.13312c0,0 -0.22774,-1.58392 -0.76927,-2.5786c-0.65771,-1.20809 -1.83913,-2.2448 -1.83913,-2.2448c0,0 5.62157,-0.16623 9.2171,4.73864c5.25797,7.10687 0.50671,12.56976 0.50671,12.56976" stroke="#000000" stroke-linecap="round"/></g><path d="M241.97523,168.91535c0,0 0.59765,-0.87661 1.24074,-1.51524c0.6431,-0.63863 1.47854,-1.54216 1.76588,-1.47047c0.29533,0.07368 0.38501,0.21176 0.69635,1.55429c0.31133,1.34251 0.49022,3.46099 0.49022,3.46099" data-paper-data="{&quot;index&quot;:null}" fill="#033397" stroke="#000000" stroke-width="0.125" stroke-linecap="round"/><path d="M248.72864,173.45178c0,0 0.76325,0.65392 1.25249,0.97682c0.44899,0.29635 1.4261,0.68638 1.57257,0.88773c0.17554,0.24126 -1.12024,0.8783 -1.77102,1.19019c-0.74479,0.35695 -2.45386,0.83464 -2.45386,0.83464" data-paper-data="{&quot;index&quot;:null}" fill="#033397" stroke="#000000" stroke-width="0" stroke-linecap="round"/><path d="M247.48558,177.31205c0,0 -0.58423,1.05647 -1.45524,1.68841c-0.87101,0.63194 -2.49373,1.17668 -2.49373,1.17668c0,0 -0.11401,-0.91285 -0.18656,-1.03441c-0.58847,-0.98602 -2.32537,-0.84333 -2.9966,-1.90833c-0.67125,-1.06499 -0.43692,-2.1714 -0.14717,-3.07134c0.28976,-0.89995 1.41238,-1.85892 2.08041,-2.11406c0.83838,-0.24534 1.44728,0.16387 1.64491,0.42272c0.22981,0.30099 0.7086,0.97561 0.49264,2.30881c-0.21348,1.31808 -1.43246,2.82265 -1.17593,3.68715c-0.01251,0.347 0.65923,0.25552 0.65923,0.25552c0,0 -0.01507,0.22563 0.16526,0.18069c0.5661,-0.14102 0.58783,-0.15851 1.39812,-0.5256c0.8103,-0.36709 2.01466,-1.0662 2.01466,-1.0662z" data-paper-data="{&quot;index&quot;:null}" fill="#033397" stroke="#000000" stroke-width="0" stroke-linecap="butt"/><path d="M243.3822,180.24483c-0.27073,0.28553 -0.76023,0.3075 -1.73277,0.00384c-0.7987,-0.24937 -1.9575,-0.8958 -2.61882,-1.54134c-2.63091,-2.84991 -0.97586,-5.36387 0.20788,-4.6598c1.48955,0.85494 0.52929,2.44966 1.58911,3.45532c0.70536,0.66933 1.95489,0.83749 2.36606,1.36056c0.53952,0.66588 0.35577,1.20506 0.18854,1.38143z" data-paper-data="{&quot;index&quot;:null}" fill="#fec267" stroke="#000000" stroke-width="0" stroke-linecap="butt"/><path d="M244.48261,178.25456c0,0 1.35393,-0.10996 2.29736,-0.60751c0.70852,-0.37366 1.44157,-0.82491 1.50921,-0.80084c0.2517,0.08956 0.62061,-0.16291 0.49191,0.13666c-0.13708,0.3191 -2.07618,1.5423 -2.07618,1.5423" data-paper-data="{&quot;index&quot;:null}" fill="#033397" stroke="#000000" stroke-width="0.125" stroke-linecap="round"/><path d="M245.01119,180.43105c-0.21225,0.42429 -0.65493,0.4558 -1.38701,0.00756c-0.4623,-0.28306 -0.99691,-0.8007 -0.7191,-1.07076c0.16752,-0.16284 0.67469,0.2535 1.10821,0.47798c0.43352,0.22448 1.06265,0.4558 0.99791,0.58521z" data-paper-data="{&quot;index&quot;:null}" fill="#0d1114" stroke="none" stroke-width="0" stroke-linecap="butt"/><path d="M244.39978,180.25983c-0.04498,0.06366 -0.23626,0.00585 -0.42723,-0.12911c-0.19097,-0.13495 -0.30929,-0.29596 -0.26432,-0.35962c0.04498,-0.06366 0.23626,-0.00585 0.42722,0.12911c0.19097,0.13495 0.3093,0.29597 0.26432,0.35963z" data-paper-data="{&quot;index&quot;:null}" fill="#fdfdfd" stroke="none" stroke-width="0" stroke-linecap="butt"/><path d="M245.45798,170.14315c0,0 -0.47342,-0.27865 -1.49477,-0.62879c-1.1172,-0.383 -1.48853,-0.14536 -1.48853,-0.14536c0,0 1.73539,-2.49016 2.16084,-2.23174c0.61046,0.3708 0.82247,3.00591 0.82247,3.00591z" data-paper-data="{&quot;index&quot;:null}" fill="#fec267" stroke="none" stroke-width="0" stroke-linecap="butt"/><path d="M238.01701,176.00689c0.46534,-0.5209 1.78051,0.5188 2.78598,1.41699c1.00547,0.89819 1.85924,2.05441 1.39391,2.57531c-0.46534,0.5209 -1.96065,-0.13028 -2.96612,-1.02847c-1.00547,-0.89818 -1.6791,-2.44291 -1.21377,-2.96381z" data-paper-data="{&quot;index&quot;:null}" fill="#000000" stroke="none" stroke-width="0" stroke-linecap="butt"/><path d="M240.96119,172.31038c0,0 1.95949,-0.70277 2.80108,-0.21112c1.34923,0.78821 0.58094,2.55858 -0.00129,4.19971c-0.34457,0.97124 -0.27669,1.50561 -0.27669,1.50561" data-paper-data="{&quot;index&quot;:null}" fill="none" stroke="#000000" stroke-width="0.125" stroke-linecap="round"/><path d="M245.19192,173.19361c0,0 0.23082,0.38489 0.11677,1.11073c-0.06531,0.41563 -0.60324,1.26473 -0.84803,2.03768c-0.29287,0.92476 -0.29359,1.7519 -0.29359,1.7519" data-paper-data="{&quot;index&quot;:null}" fill="none" stroke="#000000" stroke-width="0.125" stroke-linecap="round"/><path d="M240.30086,174.44534l3.34466,0.18811" data-paper-data="{&quot;index&quot;:null}" fill="none" stroke="#000000" stroke-width="0.125" stroke-linecap="round"/><path d="M241.92024,173.26573l0.02357,2.53438" data-paper-data="{&quot;index&quot;:null}" fill="none" stroke="#000000" stroke-width="0.125" stroke-linecap="round"/><path d="M246.68918,177.81106l-0.66209,0.99259" data-paper-data="{&quot;index&quot;:null}" fill="none" stroke="#000000" stroke-width="0.125" stroke-linecap="round"/><path d="M245.87066,178.18859l1.35598,-0.04001" data-paper-data="{&quot;index&quot;:null}" fill="none" stroke="#000000" stroke-width="0.125" stroke-linecap="round"/><path d="M237.60751,178.29434c0.07404,-0.21362 0.32582,-0.29129 0.57461,-0.24876c0.24879,0.04253 2.38037,0.82292 2.38037,0.82292l2.0725,-2.2847l0.83769,0.58674c0,0 -2.05151,2.89417 -2.53991,2.92227c-1.04072,0.05989 -2.81579,-0.99185 -2.98574,-1.23522c0,0 -0.41357,-0.34962 -0.33952,-0.56325z" data-paper-data="{&quot;index&quot;:null}" fill="#fec267" stroke="none" stroke-width="0" stroke-linecap="butt"/><g data-paper-data="{&quot;index&quot;:null}" fill="#fdfdfd" stroke="none" stroke-width="0" stroke-linecap="butt"><g><path d="M243.37688,172.35709c0.18637,-0.22004 1.39567,-0.89086 1.49793,-0.86396c0.12414,0.03265 0.00905,-0.08132 0.16179,0.06483c0.15274,0.14617 -0.03012,0.37763 -0.03012,0.37763c0,0 0.30697,-0.24229 0.55283,-0.02849c0.24587,0.21379 0.16351,0.56305 0.16351,0.56305c0,0 0.30941,-0.08207 0.49361,0.09985c0.1842,0.18195 0.16947,0.55725 0.16947,0.55725c0,0 0.47502,-0.02851 0.6287,0.11984c0.15365,0.14834 0.05977,0.54405 0.05977,0.54405c0,0 0.26267,-0.20444 0.57585,0.11372c0.24376,0.24762 0.00361,0.65949 -0.4691,1.11914c-0.47918,0.46596 -0.9802,0.96232 -1.20001,1.2218c-0.66612,0.78638 -1.65889,0.32593 -2.44526,-0.3402c-0.36831,-0.312 -0.79386,-0.9507 -0.65551,-1.55991c0.18545,-0.81655 0.14238,-1.57051 0.49652,-1.98857z"/></g><path d="M243.9571,175.81805c0.33503,0.24334 1.24209,0.82747 1.08114,1.10689c-0.32664,0.56706 -0.71384,0.26854 -0.71384,0.26854c0,0 0.34959,0.309 -0.39077,0.51445c-0.29371,0.08151 -0.84567,-0.17615 -1.24646,-0.50451c-0.40079,-0.32835 -1.03841,-1.06673 -0.86689,-1.38046c0.13219,-0.24181 0.55679,-0.12525 0.55679,-0.12525c0,0 -0.07545,-0.41751 0.09728,-0.64436c0.19813,-0.22059 1.18462,0.54822 1.48272,0.76473z"/></g></g></g></svg>