<svg version="1.1" xmlns="http://www.w3.org/2000/svg" xmlns:xlink="http://www.w3.org/1999/xlink" width="7.95814" height="8.88832" viewBox="0,0,7.95814,8.88832"><g transform="translate(-236.02093,-175.55584)"><g data-paper-data="{&quot;isPaintingLayer&quot;:true}" fill="#ffd700" fill-rule="nonzero" stroke="none" stroke-width="0.26459" stroke-linecap="butt" stroke-linejoin="miter" stroke-miterlimit="4" stroke-dasharray="" stroke-dashoffset="0" style="mix-blend-mode: normal"><path d="M243.97907,179.06983c0,0.96463 -0.27561,1.79145 -0.82682,2.48046c-1.17133,1.37803 -2.1704,2.34266 -2.99722,2.89387h-4.1341c0.68901,-0.48231 1.55028,-1.17132 2.58381,-2.06705c-0.37896,-0.15158 -0.81993,-0.46508 -1.32291,-0.94051c-0.49609,-0.47542 -0.74414,-1.26434 -0.74414,-2.36677c0,-0.89572 0.32728,-1.70531 0.98185,-2.42878c0.65457,-0.72347 1.56751,-1.08521 2.73884,-1.08521c1.17133,0 2.08428,0.36174 2.73885,1.08521c0.65456,0.72347 0.98184,1.53306 0.98184,2.42878zM240.56844,180.10336c0.41341,-0.34451 0.72347,-0.72347 0.93017,-1.13688c0.13781,-0.48231 0.0345,-0.86127 -0.31005,-1.13688c-0.55121,-0.20671 -1.03353,-0.1378 -1.44694,0.20671c-0.34451,0.34451 -0.62011,0.68901 -0.82682,1.03352c-0.20671,0.48231 -0.13781,0.89572 0.2067,1.24023c0.48231,0.20671 0.96463,0.13781 1.44694,-0.2067z"/></g></g></svg>