<svg version="1.1" xmlns="http://www.w3.org/2000/svg" xmlns:xlink="http://www.w3.org/1999/xlink" width="43.92053" height="24.81841" viewBox="0,0,43.92053,24.81841"><g transform="translate(-216.82004,-168.02715)"><g data-paper-data="{&quot;isPaintingLayer&quot;:true}" fill-rule="nonzero" stroke-linejoin="miter" stroke-miterlimit="10" stroke-dasharray="" stroke-dashoffset="0" style="mix-blend-mode: normal"><g data-paper-data="{&quot;index&quot;:null}" stroke="none" stroke-width="0" stroke-linecap="butt"><path d="M250.09574,183.7123c0.68699,-0.43114 2.57774,-0.05828 2.57774,-0.05828c0,0 1.42278,0.90765 1.39948,2.26347c-0.02331,1.35581 -1.02662,2.6382 -2.16551,2.61862c-0.40484,-0.00696 -1.51214,-0.21905 -2.09287,-0.89537c-0.58072,-0.67633 -0.41616,-1.18547 -0.36059,-1.962c0.05558,-0.77653 -0.04525,-1.53531 0.64174,-1.96645z" fill="#c3b0b0"/><path d="M245.79066,181.51981c0,0 4.19485,2.54146 4.11468,3.24491c-0.10324,0.90598 0.18073,1.12139 0.18073,1.12139l-5.29364,-2.70649z" fill="#cc0000"/><path d="M253.65033,181.33034c0.59471,-0.31521 1.16999,0.08442 2.0616,0.0374c0.81489,-0.04297 2.09415,-0.06445 2.33977,0.39898c0.10462,0.19739 0.04318,0.44589 0.57142,0.7311c0.36856,0.19899 2.0906,0.40064 2.11431,0.52514c0.08216,0.43137 -1.47451,3.31336 -1.43204,3.6975c0.1126,1.01842 1.17156,1.78957 0.34422,2.26291c-4.07206,2.32972 -7.84325,0.33043 -7.94387,-0.73124c-0.62431,-0.93594 0.54102,-2.07257 0.02664,-3.04306c-0.51437,-0.97049 0.77971,-3.27546 1.91794,-3.87874z" fill="#c3b0b0"/></g><path d="M233.68505,188.31623c-0.54377,1.35467 -2.53744,2.19307 -3.89871,1.6321c-0.90703,-0.37378 -1.82303,-1.89914 -1.64015,-2.20784c0.54378,-1.35467 2.70918,-4.59213 3.63271,-4.25718c0.92355,0.33491 1.90614,4.83294 1.90614,4.83294z" data-paper-data="{&quot;index&quot;:null}" fill="#ff1c00" stroke="none" stroke-width="0" stroke-linecap="butt"/><path d="M232.48873,182.65339c-0.18619,-0.38426 1.53203,-2.03935 1.55267,-2.06257c0.81899,-0.92112 1.03402,-1.37539 1.58662,-1.43381c1.51546,-0.16016 3.42416,2.34328 3.91922,3.36497c0.49507,1.02171 -1.49237,2.46606 -3.04613,2.65982c-1.55376,0.19377 -3.40445,-1.39633 -3.89952,-2.41802z" data-paper-data="{&quot;index&quot;:null}" fill="#ff1c00" stroke="none" stroke-width="0" stroke-linecap="butt"/><path d="M236.61879,185.02274c0.58201,1.20112 -1.00593,1.71 -1.43344,1.93236c-0.22219,0.11558 -1.05958,0.3338 -2.03918,0.09231c-0.90522,-0.22314 -2.71212,-1.34775 -2.99165,-1.9246c-0.20849,-0.43029 2.03436,-2.70443 2.46187,-2.92681c0,0 3.4204,1.6256 4.00239,2.82673z" data-paper-data="{&quot;index&quot;:null}" fill="#ded000" stroke="none" stroke-width="0" stroke-linecap="butt"/><path d="M235.46201,179.19877c0.37398,-0.19027 -2.94862,2.97205 -4.83407,5.3775c-1.88544,2.40547 -2.30487,3.68554 -2.30487,3.68554c0,0 -0.39345,0.00304 -0.22682,-0.47537c0.33236,-0.95419 1.23421,-2.37172 1.84651,-3.19318c0.9193,-1.23333 4.91348,-5.28378 5.28745,-5.47404z" data-paper-data="{&quot;index&quot;:null}" fill="#646362" stroke="none" stroke-width="0" stroke-linecap="butt"/><path d="M237.09564,185.39285c0,0 -1.15381,1.37103 -1.72866,1.9032c-0.57487,0.53215 -1.31914,0.99039 -1.31914,0.99039c0,0 -0.6479,-0.10328 -0.91511,-0.20648c-0.26721,-0.10322 -0.36069,-0.9522 -0.36069,-0.9522c0,0 0.88415,-0.74901 1.3785,-1.22731c0.49436,-0.47831 2.69412,-1.95181 2.69412,-1.95181c0,0 0.20484,0.4427 0.26986,0.73111c0.06504,0.28839 -0.01886,0.71309 -0.01886,0.71309z" data-paper-data="{&quot;index&quot;:null}" fill="#e0e0de" stroke="none" stroke-width="0" stroke-linecap="butt"/><path d="M222.21413,188.54838c-0.85643,1.1821 -2.99401,1.51132 -4.17833,0.63659c-0.78912,-0.58283 -1.30734,-2.28497 -1.05498,-2.54002c0.85645,-1.1821 3.74312,-3.79688 4.5577,-3.24772c0.81458,0.54914 0.67561,5.15114 0.67561,5.15114z" data-paper-data="{&quot;index&quot;:null}" fill="#ff1c00" stroke="none" stroke-width="0" stroke-linecap="butt"/><path d="M222.4286,182.76453c-0.08732,-0.41797 1.98136,-1.60633 2.00701,-1.62383c1.01814,-0.69469 1.33704,-1.08316 1.88728,-1.00565c1.509,0.2126 2.75271,3.10457 2.98488,4.21589c0.23217,1.11135 -2.04649,2.0299 -3.60081,1.8406c-1.55431,-0.18929 -2.96352,-2.18117 -3.1957,-3.29251z" data-paper-data="{&quot;index&quot;:null}" fill="#ff1c00" stroke="none" stroke-width="0" stroke-linecap="butt"/><path d="M225.85976,186.06578c0.27295,1.3065 -1.39104,1.41458 -1.85976,1.52649c-0.24361,0.05816 -1.10892,0.06653 -2.00057,-0.40559c-0.82393,-0.43627 -2.3037,-1.96595 -2.43481,-2.59342c-0.09778,-0.46805 2.63014,-2.12952 3.09886,-2.24145c0,0 2.92333,2.40747 3.19625,3.71395z" data-paper-data="{&quot;index&quot;:null}" fill="#ded000" stroke="none" stroke-width="0" stroke-linecap="butt"/><path d="M226.1504,186.68889c0,0 -1.45218,1.04985 -2.13903,1.4265c-0.68688,0.37665 -1.52014,0.64045 -1.52014,0.64045c0,0 -0.60343,-0.2575 -0.83759,-0.42251c-0.23414,-0.16501 -0.11869,-1.01129 -0.11869,-1.01129c0,0 1.03955,-0.51192 1.63525,-0.85587c0.59571,-0.34395 3.08742,-1.23924 3.08742,-1.23924c0,0 0.09123,0.47918 0.08426,0.77476c-0.00694,0.29555 -0.19144,0.68716 -0.19144,0.68716z" data-paper-data="{&quot;index&quot;:null}" fill="#e0e0de" stroke="none" stroke-width="0" stroke-linecap="butt"/><path d="M228.99824,180.83948c1.00261,0 1.81537,1.07227 1.81537,2.39499c0,1.32273 -0.81277,2.39499 -1.81537,2.39499c-1.0026,0 -1.81537,-1.07227 -1.81537,-2.39499c0,-1.32273 0.81277,-2.39499 1.81537,-2.39499z" data-paper-data="{&quot;index&quot;:null}" fill="#53b761" stroke="none" stroke-width="0" stroke-linecap="butt"/><path d="M229.07767,184.14069c0,0 -0.6473,-0.57718 -0.6473,-1.06284c0,-0.48566 0.6473,-1.32626 0.6473,-1.32626h8.65022v2.38911z" data-paper-data="{&quot;index&quot;:null}" fill="#ff3200" stroke="none" stroke-width="0" stroke-linecap="butt"/><path d="M231.63155,180.26868c0,0 5.10394,0.0291 7.82257,0.28729c1.88334,0.17886 7.86432,2.18133 7.86432,2.18133c0,0 -1.60263,1.30934 -3.50262,1.41527c-1.95435,0.10896 -4.49702,0.00803 -5.09932,0.15288c-1.18787,0.28569 -7.08494,-4.03677 -7.08494,-4.03677z" data-paper-data="{&quot;index&quot;:null}" fill="#ff3300" stroke="none" stroke-width="0" stroke-linecap="butt"/><path d="M226.15172,180.13524c0.40897,-0.09377 -3.58203,2.16714 -5.99513,4.04283c-2.41309,1.87568 -3.13078,3.01558 -3.13078,3.01558c0,0 -0.38241,-0.09257 -0.1046,-0.51622c0.55409,-0.84495 1.77315,-2.00107 2.5666,-2.64927c1.19126,-0.97321 6.04939,-3.9326 6.45838,-4.02638z" data-paper-data="{&quot;index&quot;:null}" fill="#646362" stroke="none" stroke-width="0" stroke-linecap="butt"/><path d="M240.49471,184.33783c0.78762,-0.19369 2.46574,0.75386 2.46574,0.75386c0,0 1.06593,1.30842 0.61821,2.58837c-0.44775,1.27997 -1.80289,2.18258 -2.87808,1.80647c-0.38217,-0.13369 -1.36696,-0.68267 -1.706,-1.50711c-0.33906,-0.82443 -0.02299,-1.25619 0.27353,-1.97602c0.29655,-0.71983 0.439,-1.47189 1.22662,-1.66557z" data-paper-data="{&quot;index&quot;:null}" fill="#e8e6e6" stroke="none" stroke-width="0" stroke-linecap="butt"/><path d="M238.31581,183.8445l1.65981,1.06975c0,0 0.45263,0.81043 0.15572,1.45316c-0.38242,0.82779 -1.56577,0.68053 -1.56577,0.68053l-2.91658,-3.34423c0,0 1.7193,-1.98411 3.53217,-2.436c0.86939,-0.21671 1.11727,-0.99284 1.81707,-0.60957c0.55024,0.30135 0.31901,1.25983 0.51442,1.26267c0.74776,0.01084 -3.19686,1.9237 -3.19686,1.9237z" data-paper-data="{&quot;index&quot;:null}" fill="#ff3300" stroke="none" stroke-width="0" stroke-linecap="butt"/><path d="M246.11055,183.59942c0.66358,-0.11259 1.08434,0.44744 1.94563,0.68268c0.78718,0.21501 2.90207,0.80497 2.98981,1.32207c0.03736,0.22027 -0.53965,0.8379 -0.12768,1.2745c0.28747,0.30463 0.69794,0.94192 0.68138,1.06754c-0.05741,0.43536 -1.76827,2.32871 -1.84852,2.70674c-0.21278,1.00227 -0.33317,1.86619 -1.26726,2.05586c-4.59756,0.93365 -5.95493,-3.22219 -6.39256,-3.14795c-1.27008,0.21547 1.16428,-1.79796 0.98057,-2.88086c-0.18372,-1.0829 1.76852,-2.86512 3.0386,-3.08061z" data-paper-data="{&quot;index&quot;:null}" fill="#e8e6e6" stroke="none" stroke-width="0" stroke-linecap="butt"/><path d="M249.13866,187.43311c0.6306,0.22942 1.25874,1.41881 1.25874,1.41881c0,0 -1.29283,0.6375 -1.92342,0.40807c-0.6306,-0.22942 -0.99301,-0.82436 -0.80947,-1.32886c0.18353,-0.50446 0.84354,-0.72745 1.47414,-0.49801z" data-paper-data="{&quot;index&quot;:null}" fill="#e8e6e6" stroke="#999797" stroke-width="0.5" stroke-linecap="butt"/><path d="M247.56679,190.25558c0.5472,0.3884 0.83758,1.70173 0.83758,1.70173c0,0 -1.41559,0.27195 -1.9628,-0.11647c-0.5472,-0.3884 -0.73892,-1.05813 -0.42819,-1.49589c0.31073,-0.43776 1.00621,-0.47778 1.55342,-0.08939z" data-paper-data="{&quot;index&quot;:null}" fill="#e8e6e6" stroke="#999797" stroke-width="0.5" stroke-linecap="butt"/><path d="M249.94186,179.59594c0,0 0.38857,-3.62488 1.3588,-3.97738c0.97023,-0.35251 0.31805,3.70283 0.31805,3.70283z" data-paper-data="{&quot;index&quot;:null}" fill="#ffffff" stroke="none" stroke-width="0" stroke-linecap="butt"/><path d="M252.9759,173.79132z" data-paper-data="{&quot;index&quot;:null}" fill="#030000" stroke="none" stroke-width="0" stroke-linecap="butt"/><path d="M251.63484,177.01956c-0.70754,1.14456 -1.21945,1.91149 -1.74284,2.14531c-0.55868,0.24959 -1.85473,-0.17135 -2.42525,-0.0763c-0.01598,0.00265 -1.94274,2.29951 -3.91764,2.82157c-0.933,0.24663 -2.7727,-1.05478 -2.7727,-1.05478c0,0 -3.03897,-0.09201 -5.44913,0.333c-0.93152,0.16427 -1.80525,0.2309 -2.98672,0.48103c-1.18147,0.25014 -3.38551,0.86806 -3.38551,0.86806l1.95836,-3.87781c0,0 -1.43713,-0.07384 -2.46752,0.06553c-1.03039,0.13937 -2.63488,0.55716 -2.63488,0.55716c0,0 1.30459,-2.211 2.21988,-3.0154c0.9153,-0.80439 3.17858,-1.93629 3.17858,-1.93629c0,0 -1.67334,-0.07958 -2.74789,0.21183c-1.07454,0.29142 -2.85724,0.75344 -2.85724,0.75344c0,0 2.46147,-3.02924 3.93326,-3.75643c1.47179,-0.72719 4.63267,-1.49306 4.63267,-1.49306l-2.94478,-0.66894c0,0 3.87414,-1.28281 6.63427,-1.31743c2.76015,-0.03463 4.77061,-0.25245 7.79853,1.13637c3.02794,1.38881 4.11962,3.30302 5.16455,4.74773c1.19923,1.65806 1.42327,2.08652 0.81196,3.07542z" data-paper-data="{&quot;index&quot;:null}" fill="#ff3300" stroke="none" stroke-width="0" stroke-linecap="butt"/><path d="M249.94185,179.29387c0,0 -0.84689,0.1942 -2.2113,0.53264c-1.07158,0.2658 -1.64837,0.0936 -2.09001,0.06959c-0.49447,-0.02689 -1.56959,-1.29716 -1.84624,-2.02742c-0.3131,-0.82645 -0.20904,-2.62772 -0.20904,-2.62772c0,0 1.84685,0.28076 2.98634,0.87092c1.98824,1.02972 3.37026,3.18197 3.37026,3.18197z" data-paper-data="{&quot;index&quot;:null}" fill="#ffffff" stroke="none" stroke-width="0" stroke-linecap="butt"/><g data-paper-data="{&quot;index&quot;:null}" stroke="none" stroke-width="0" stroke-linecap="butt"><path d="M248.09266,179.48332c-0.35167,0.01303 -0.6558,-0.49076 -0.67931,-1.12524c-0.02351,-0.63449 0.2425,-1.15939 0.59418,-1.17242c0.35168,-0.01303 0.65581,0.49075 0.67932,1.12524c0.02351,0.63449 -0.24251,1.15941 -0.59418,1.17244z" fill="#7c5cbb"/><path d="M248.09726,178.97035c-0.20839,0.00772 -0.38358,-0.15496 -0.3913,-0.36335c-0.00772,-0.20839 0.15494,-0.38359 0.36333,-0.39131c0.20839,-0.00772 0.3836,0.15495 0.39131,0.36334c0.00772,0.20839 -0.15496,0.3836 -0.36335,0.39132z" fill="#000000"/><path d="M248.17791,178.4644c-0.20839,0.00772 -0.38359,-0.15495 -0.39131,-0.36334c-0.00772,-0.20839 0.15495,-0.38359 0.36334,-0.39131c0.20839,-0.00772 0.38359,0.15495 0.39131,0.36334c0.00772,0.20839 -0.15495,0.3836 -0.36334,0.39132z" fill="#ffffff"/></g><path d="M249.54185,182.5701c-1.62129,0.29236 -4.30876,0.49826 -6.23487,-0.41594c-1.41112,-0.61628 -1.61421,-2.28179 1.69306,-2.76378c0.6946,-0.10124 0.7404,0.355 2.68798,0.25595c0.94749,-0.04818 1.06318,-0.9723 2.38696,-0.85173c1.32379,0.12057 3.22919,0.55072 3.13799,1.26755c-0.12329,0.96903 -1.52134,1.94299 -3.67113,2.50794z" data-paper-data="{&quot;index&quot;:null}" fill="#ffbe7e" stroke="none" stroke-width="0" stroke-linecap="butt"/><path d="M243.65953,181.1586c0,0 0.38386,-0.20883 0.89314,-0.23658c0.50928,-0.02775 1.30167,0.11698 1.30167,0.11698" data-paper-data="{&quot;index&quot;:null}" fill="none" stroke="#000000" stroke-width="0.5" stroke-linecap="round"/><g data-paper-data="{&quot;index&quot;:null}" stroke="none" stroke-width="0" stroke-linecap="butt"><path d="M250.58514,178.6316c0.05816,-0.20484 0.29698,-0.48603 0.50743,-0.80268c0.27569,-0.41483 0.53213,-0.83149 0.56691,-0.62284c0.10435,0.62629 -0.04714,1.84595 -0.39426,1.90378c-0.34713,0.05783 -0.7744,-0.14601 -0.68007,-0.47826z" fill="#7c5cbb"/><path d="M251.15893,178.78501c-0.2057,0.03427 -0.30483,-0.00932 -0.3391,-0.21502c-0.03427,-0.2057 0.05699,-0.44793 0.26269,-0.48222c0.2057,-0.03427 0.35255,0.05701 0.38682,0.26271c0.03427,0.2057 -0.1047,0.40025 -0.3104,0.43452z" fill="#000000"/><path d="M251.00439,178.15963c-0.2057,0.03427 0.13114,-0.54723 0.33685,-0.5815c0.2057,-0.03427 0.10919,0.05457 0.14346,0.26027c0.03427,0.2057 -0.1047,0.40025 -0.3104,0.43452z" fill="#ffffff"/></g><path d="M254.37235,179.64801c0.05232,0.31406 -1.35224,0.88283 -1.35224,0.88283c0,0 -0.45779,-0.51787 -0.38404,-0.82806c0.07375,-0.3102 0.21492,-0.24686 0.21492,-0.24686z" data-paper-data="{&quot;index&quot;:null}" fill="#030000" stroke="none" stroke-width="0" stroke-linecap="butt"/><path d="M257.33504,187.27123c0,0 -0.31105,-0.47378 -0.62723,-0.92958c-0.31618,-0.4558 -1.43555,-0.72805 -1.43555,-0.72805c0,0 2.52753,-1.3625 2.47463,-1.95759c-0.0834,-0.93826 -1.27688,-1.98681 -1.27688,-1.98681" data-paper-data="{&quot;index&quot;:null}" fill="none" stroke="#685c5c" stroke-width="0.5" stroke-linecap="round"/></g></g></svg>