<svg version="1.1" xmlns="http://www.w3.org/2000/svg" xmlns:xlink="http://www.w3.org/1999/xlink" width="156.96397" height="26.62933" viewBox="0,0,156.96397,26.62933"><g transform="translate(-179.51126,-166.69743)"><g data-paper-data="{&quot;isPaintingLayer&quot;:true}" fill-rule="nonzero" stroke-linecap="butt" stroke-linejoin="miter" stroke-dasharray="" stroke-dashoffset="0" style="mix-blend-mode: normal"><g stroke-miterlimit="10"><path d="M312.31143,179.77933c0,-6.12037 4.96154,-11.0819 11.0819,-11.0819c6.12037,0 11.0819,4.96154 11.0819,11.0819c0,6.12037 -4.96154,11.0819 -11.0819,11.0819c-6.12037,0 -11.0819,-4.96154 -11.0819,-11.0819z" fill="none" stroke="#ff0000" stroke-width="4"/><path d="M313.34292,173.16916l3.44024,-3.44024l17.20118,17.20117l-3.44024,3.44024z" fill="#ff0000" stroke="#71ff33" stroke-width="0"/></g><g fill="#ff0000" stroke="none" stroke-width="0.26458" stroke-miterlimit="4"><path d="M179.51126,180.63805c0,-3.87246 1.16173,-6.92201 3.48522,-9.14869c2.32349,-2.22668 5.51827,-3.34002 9.58434,-3.34002c3.48522,0 5.9055,0.09695 7.26087,0.29046l-2.61391,8.13218l-0.58086,-0.58089c-1.16173,-0.77449 -2.61391,-0.87131 -4.35652,-0.29042c-1.93624,1.16173 -3.38841,2.42029 -4.35653,3.77566c-0.96812,1.16173 -1.16173,2.61394 -0.58086,4.35652l0.58086,0.58089c0.96812,1.35536 2.61391,1.74259 4.93739,1.16173c1.93624,-1.16173 3.3884,-2.42032 4.35652,-3.77568l3.48522,10.16522c-1.35536,0.77449 -4.06611,1.16173 -8.13218,1.16173c-4.06607,0 -7.26088,-1.25855 -9.58434,-3.77565c-2.32349,-2.5171 -3.48522,-5.42148 -3.48522,-8.71306z"/><path d="M203.61737,180.63805c0,-3.87246 1.16173,-6.92201 3.48522,-9.14869c2.32349,-2.22668 5.51827,-3.34002 9.58434,-3.34002c4.06611,0 7.26087,1.11334 9.58433,3.34002c2.32349,2.22668 3.48522,5.27623 3.48522,9.14869c0,3.29159 -1.16173,6.19595 -3.48522,8.71305c-2.32349,2.5171 -5.51826,3.77566 -9.58433,3.77566c-4.06607,0 -7.26088,-1.25856 -9.58434,-3.77566c-2.32349,-2.5171 -3.48522,-5.42147 -3.48522,-8.71305zM216.3965,175.70066c-1.93624,1.16173 -3.38841,2.42029 -4.35653,3.77566c-0.96812,1.16173 -1.16173,2.61394 -0.58086,4.35652l0.58086,0.58089c0.96812,1.35536 2.61391,1.74259 4.93739,1.16173c1.93624,-1.16173 3.3884,-2.42032 4.35652,-3.77568c1.16173,-1.54898 1.16173,-3.29159 0,-5.2278l-0.58086,-0.58089c-1.16173,-0.77449 -2.61391,-0.87131 -4.35652,-0.29042z"/><path d="M244.27828,185.57547c1.35536,0 2.42029,-0.38724 3.19479,-1.16173c0.77449,-0.77449 1.16173,-1.93624 1.16173,-3.48522v-1.45218c0,-1.54898 -0.38724,-2.75913 -1.16173,-3.63041c-0.77449,-0.87131 -1.83943,-1.30697 -3.19479,-1.30697h-2.90434v11.03655zM232.66088,168.14934h11.6174c4.06611,0 7.26087,1.11334 9.58433,3.34002c2.32349,2.22668 3.48522,5.27623 3.48522,9.14869c0,3.29159 -1.16173,6.09915 -3.48522,8.42263c-2.32349,2.32349 -5.51826,3.48522 -9.58433,3.48522h-11.6174z"/><path d="M260.25221,192.5459v-24.39656h20.33045v6.97045h-11.6174v1.74262h11.6174v6.97044h-11.6174v1.74262h11.6174v6.97045z"/><path d="M285.81047,192.5459c-0.96812,-0.19361 -1.74259,-0.38728 -2.32349,-0.58089l1.16173,-5.80869l3.48522,0.29042c2.71074,0.19361 4.8406,0.19361 6.38958,0c0.77449,-0.38724 1.16173,-0.96809 1.16173,-1.74259c-0.19361,-0.77449 -1.93624,-1.16173 -5.22784,-1.16173c-2.90437,-0.38728 -4.93739,-1.45218 -6.09914,-3.19479c-0.58088,-1.35536 -0.87131,-2.90438 -0.87131,-4.64695c0,-2.71074 0.96812,-4.74377 2.90438,-6.09913c1.35536,-0.96812 3.77565,-1.45219 7.26087,-1.45219c3.48522,0 6.97045,0.29042 10.45567,0.87131l-1.16173,5.51826c-4.06607,-0.19361 -6.87362,-0.29042 -8.4226,-0.29042c-1.35536,0.19361 -2.03304,0.67766 -2.03304,1.45215c-0.19361,1.35536 0.87131,2.03304 3.19479,2.03304c3.29159,0 5.71189,0.58086 7.26087,1.74259c1.16173,0.96812 1.74259,2.61394 1.74259,4.93742c0,2.01366 -0.48403,3.75629 -1.45215,5.22781c-0.96812,1.74259 -3.38841,2.80752 -7.26087,3.19479c-3.29159,0.19361 -6.68001,0.09695 -10.16522,-0.29042z"/></g><g fill="#71ff33" stroke="none" stroke-width="0.26458" stroke-miterlimit="4"><path d="M184.53452,182c0,-3.51217 1.05365,-6.278 3.16096,-8.2975c2.10731,-2.0195 5.00484,-3.02926 8.69261,-3.02926c3.16096,0 5.35606,0.08793 6.58532,0.26343l-2.37072,7.37556l-0.52681,-0.52684c-1.05365,-0.70243 -2.37072,-0.79024 -3.9512,-0.2634c-1.7561,1.05365 -3.07315,2.1951 -3.9512,3.42436c-0.87805,1.05365 -1.05365,2.37074 -0.52681,3.9512l0.52681,0.52684c0.87805,1.22926 2.37072,1.58046 4.47801,1.05365c1.7561,-1.05365 3.07315,-2.19513 3.9512,-3.42439l3.16096,9.21945c-1.22926,0.70243 -3.68779,1.05365 -7.37556,1.05365c-3.68777,0 -6.58532,-1.14145 -8.69261,-3.42436c-2.10731,-2.28291 -3.16096,-4.91706 -3.16096,-7.9024z"/><path d="M206.39779,182c0,-3.51217 1.05365,-6.278 3.16096,-8.2975c2.10731,-2.0195 5.00484,-3.02926 8.69261,-3.02926c3.68779,0 6.58532,1.00976 8.69261,3.02926c2.10731,2.0195 3.16096,4.78533 3.16096,8.2975c0,2.98534 -1.05365,5.61949 -3.16096,7.9024c-2.10731,2.28291 -5.00484,3.42436 -8.69261,3.42436c-3.68777,0 -6.58532,-1.14145 -8.69261,-3.42436c-2.10731,-2.28291 -3.16096,-4.91706 -3.16096,-7.9024zM217.98795,177.52199c-1.7561,1.05365 -3.07315,2.1951 -3.9512,3.42436c-0.87805,1.05365 -1.05365,2.37074 -0.52681,3.9512l0.52681,0.52684c0.87805,1.22926 2.37072,1.58046 4.47801,1.05365c1.7561,-1.05365 3.07315,-2.19513 3.9512,-3.42439c1.05365,-1.40486 1.05365,-2.98534 0,-4.74141l-0.52681,-0.52684c-1.05365,-0.70243 -2.37072,-0.79024 -3.9512,-0.2634z"/><path d="M243.27561,186.47804c1.22926,0 2.1951,-0.35121 2.89755,-1.05365c0.70243,-0.70243 1.05365,-1.7561 1.05365,-3.16096v-1.31708c0,-1.40486 -0.35121,-2.50242 -1.05365,-3.29264c-0.70243,-0.79024 -1.66829,-1.18537 -2.89755,-1.18537h-2.63412v10.00971zM232.73909,170.67324h10.53652c3.68779,0 6.58532,1.00976 8.69261,3.02926c2.10731,2.0195 3.16096,4.78533 3.16096,8.2975c0,2.98534 -1.05365,5.53168 -3.16096,7.63899c-2.10731,2.10731 -5.00484,3.16096 -8.69261,3.16096h-10.53652z"/><path d="M257.76332,192.79995v-22.12671h18.43891v6.32191h-10.53652v1.58048h10.53652v6.32191h-10.53652v1.58048h10.53652v6.32191z"/><path d="M280.94365,192.79995c-0.87805,-0.1756 -1.58046,-0.35124 -2.10731,-0.52684l1.05365,-5.26825l3.16096,0.2634c2.45853,0.1756 4.39023,0.1756 5.79509,0c0.70243,-0.35121 1.05365,-0.87802 1.05365,-1.58046c-0.1756,-0.70243 -1.7561,-1.05365 -4.74144,-1.05365c-2.63415,-0.35124 -4.47801,-1.31708 -5.53167,-2.89755c-0.52684,-1.22926 -0.79024,-2.63415 -0.79024,-4.2146c0,-2.45853 0.87805,-4.30241 2.63415,-5.53167c1.22926,-0.87805 3.42436,-1.31708 6.58532,-1.31708c3.16096,0 6.32191,0.2634 9.48287,0.79024l-1.05365,5.00484c-3.68777,-0.1756 -6.23411,-0.2634 -7.63896,-0.2634c-1.22926,0.1756 -1.84389,0.61462 -1.84389,1.31705c-0.1756,1.22926 0.79024,1.84389 2.89755,1.84389c2.98534,0 5.18046,0.52681 6.58532,1.58046c1.05365,0.87805 1.58046,2.37074 1.58046,4.47804c0,1.8263 -0.439,3.4068 -1.31705,4.74141c-0.87805,1.58046 -3.07315,2.54631 -6.58532,2.89755c-2.98534,0.1756 -6.05851,0.08793 -9.21945,-0.2634z"/></g><g stroke="#71ff33" stroke-miterlimit="10"><path d="M313.42,181.41362c0,-5.34822 4.33559,-9.68381 9.68381,-9.68381c5.34822,0 9.68381,4.33559 9.68381,9.68381c0,5.34822 -4.33559,9.68381 -9.68381,9.68381c-5.34822,0 -9.68381,-4.33559 -9.68381,-9.68381z" fill="none" stroke-width="4"/><path d="M314.32136,175.63738l3.00621,-3.00621l15.03107,15.03107l-3.00621,3.00621z" fill="#71ff33" stroke-width="0"/></g></g></g></svg>