<svg version="1.1" xmlns="http://www.w3.org/2000/svg" xmlns:xlink="http://www.w3.org/1999/xlink" width="30.8431" height="34.92584" viewBox="0,0,30.8431,34.92584"><g transform="translate(-222.68363,-162.60465)"><g data-paper-data="{&quot;isPaintingLayer&quot;:true}" fill-rule="nonzero" stroke-miterlimit="10" stroke-dasharray="" stroke-dashoffset="0" style="mix-blend-mode: normal"><g data-paper-data="{&quot;index&quot;:null}" stroke-linejoin="miter"><path d="M253.39549,193.61374c0,0 0.40225,0.12872 -0.43849,0.84424c-0.61576,0.49864 -2.0825,0.90115 -2.96702,0.88055c-0.88452,-0.02061 -1.60968,-0.50288 -2.35911,-1.09398c-0.74943,-0.5911 -1.06193,-1.17704 -1.36787,-1.47659c-1.08784,-1.06514 -0.08044,-2.01908 -0.08044,-2.01908c0,0 2.10546,3.61823 2.94758,3.68916c1.039,0.08751 3.20618,-0.15104 3.20618,-0.15104z" fill="#947043" stroke="none" stroke-width="0" stroke-linecap="butt"/><path d="M249.28812,188.8417l0.29301,0.21263l0.2026,0.36999c0,0 0.62124,0.66009 0.89071,0.8828c0.33157,0.27403 0.6863,0.57109 1.52299,1.13011c0.75946,0.75608 1.3293,2.25223 1.3293,2.25223c0,0 -1.0442,0.85167 -2.16152,1.16369c-0.87459,0.14466 -2.13855,0.08541 -2.73353,-0.3009c-0.70612,-0.45851 -1.18732,-1.1118 -1.54804,-1.50219c-0.04155,-0.04494 -1.04622,-1.27166 -1.04283,-1.66633c0.00336,-0.39467 0.02607,-1.0051 0.02607,-1.0051c0,0 -0.12239,0.08586 -0.16891,-0.24671c-0.01061,-0.07594 0.11288,-0.34415 0.11288,-0.34415l-0.19232,0.018l-0.18884,-0.69682l2.87269,-0.97712z" fill="#20201f" stroke="none" stroke-width="0" stroke-linecap="butt"/><path d="M246.6726,192.46525c0,0 -0.14221,-1.4903 -0.17722,-2.07577c-0.02762,-0.46201 -0.01727,-1.08355 -0.01727,-1.08355" fill="none" stroke="#c8c7c6" stroke-width="0.125" stroke-linecap="round"/><path d="M244.90732,187.86343c-0.43174,-0.82927 0.61964,-1.6403 1.27279,-2.0039c0.65314,-0.36359 1.77803,0.0977 1.89048,0.24294c0.42882,0.55391 0.63512,1.61695 0.57353,1.82615c-0.24228,0.45686 -0.50061,0.67892 -1.47241,1.19173c-0.56522,0.22074 -1.03242,0.21633 -1.51659,-0.05243c-0.48417,-0.26876 -0.40431,-0.54476 -0.74778,-1.20448z" fill="#c274a1" stroke="none" stroke-width="0" stroke-linecap="butt"/><path d="M244.95069,187.90842c-0.43174,-0.82925 0.61964,-1.6403 1.27279,-2.0039c0.65315,-0.3636 1.77804,0.09768 1.89048,0.24293c0.4288,0.55393 -0.8743,1.41015 -1.27412,1.66c-0.32785,0.20489 -1.54567,0.76071 -1.88915,0.10098z" fill="#cacacd" stroke="none" stroke-width="0" stroke-linecap="butt"/><path d="M250.76034,193.40125c0,0 0.27715,0.34946 0.5184,0.65362c0.24123,0.30416 0.32714,0.61476 0.25258,0.68661c-0.04668,0.04499 -0.23893,0.15952 -0.48647,-0.04878c-0.14771,-0.12428 0.02593,-0.2822 -0.0719,-0.49191c-0.09782,-0.2097 -0.21262,-0.79954 -0.21262,-0.79954z" fill="#c8c7c6" stroke="none" stroke-width="0" stroke-linecap="butt"/><path d="M249.82382,194.70838c0,0 -0.66015,-2.04897 0.82891,-3.10258c1.04567,-0.73988 1.81013,0.11366 1.81013,0.11366" fill="none" stroke="#c8c7c6" stroke-width="0.125" stroke-linecap="round"/><path d="M252.47593,192.51682c0,0 0.44509,0.40371 0.57381,0.59599c0.12872,0.19229 0.35374,0.12556 0.38355,0.31628c0.04996,0.31963 -0.14755,0.42477 -0.21024,0.4414c-0.10009,0.02655 -0.32128,-0.20781 -0.45651,-0.5717c-0.13523,-0.36388 -0.2906,-0.78198 -0.2906,-0.78198z" data-paper-data="{&quot;index&quot;:null}" fill="#c8c7c6" stroke="none" stroke-width="0" stroke-linecap="butt"/></g><path d="M244.12652,181.62475l1.87271,3.24564l1.11661,2.01616c0,0 -0.3322,0.18555 -0.59485,0.19371c-0.26266,0.00816 -0.68151,-0.06079 -0.68151,-0.06079l-1.19778,-1.89985l-1.69232,-3.02164z" data-paper-data="{&quot;index&quot;:null}" fill="#20201f" stroke="none" stroke-width="0" stroke-linecap="butt" stroke-linejoin="miter"/><g data-paper-data="{&quot;index&quot;:null}" stroke-linejoin="miter"><path d="M244.81181,197.0511l1.24928,-0.11993c0,0 0.30019,0.2971 -0.77358,0.5537c-0.77491,0.1653 -2.26473,-0.14088 -3.04378,-0.56025c-0.77906,-0.41936 -1.20678,-1.17798 -1.60679,-2.04461c-0.40002,-0.86663 -0.41291,-1.53056 -0.5498,-1.93626c-0.48673,-1.44257 0.84367,-1.83612 0.84367,-1.83612c0,0 0.23633,4.17955 0.95478,4.62457c0.88641,0.54904 2.92624,1.31891 2.92624,1.31891z" fill="#947043" stroke="none" stroke-width="0" stroke-linecap="butt"/><path d="M244.56346,190.81562l0.16478,0.32236l0.01284,0.42162c0,0 0.2545,0.87 0.39369,1.19067c0.17129,0.39458 0.35282,0.82017 0.84515,1.69776c0.33416,1.01821 0.16379,2.61014 0.16379,2.61014c0,0 -1.31684,0.28572 -2.4542,0.05731c-0.84514,-0.26756 -1.9449,-0.8934 -2.30007,-1.50745c-0.42152,-0.7288 -0.55426,-1.52925 -0.6988,-2.04076c-0.01665,-0.0589 -0.35602,-1.60779 -0.17406,-1.95802c0.18193,-0.35025 0.4789,-0.88405 0.4789,-0.88405c0,0 -0.14801,0.02105 -0.03871,-0.29647c0.02496,-0.07249 0.25664,-0.25558 0.25664,-0.25558l-0.17959,-0.07114l0.14759,-0.70671l3.00349,0.43142z" fill="#20201f" stroke="none" stroke-width="0" stroke-linecap="butt"/><path d="M240.58942,192.85966c0,0 0.54887,-1.39282 0.7831,-1.93053c0.18483,-0.42433 0.47583,-0.97364 0.47583,-0.97364" fill="none" stroke="#c8c7c6" stroke-width="0.125" stroke-linecap="round"/><path d="M243.1452,186.74851c0.74699,-0.02799 1.54053,0.89315 1.5749,1.07359c0.1311,0.68813 -0.16696,1.72918 -0.3167,1.88771c-0.42307,0.29738 -0.754,0.37819 -1.85268,0.3947c-0.60386,-0.0595 -1.01828,-0.27523 -1.32801,-0.73428c-0.30971,-0.45905 -0.11341,-0.66887 -0.12047,-1.41261c-0.00889,-0.93488 1.29595,-1.18113 2.04296,-1.20911z" fill="#c274a1" stroke="none" stroke-width="0" stroke-linecap="butt"/><path d="M241.1205,188.01738c-0.00888,-0.93486 1.29595,-1.18113 2.04296,-1.20911c0.74701,-0.02798 1.54054,0.89316 1.57492,1.0736c0.13109,0.68813 -1.41858,0.86055 -1.88822,0.90197c-0.38511,0.03399 -1.72256,-0.0227 -1.72963,-0.76646z" fill="#cacacd" stroke="none" stroke-width="0" stroke-linecap="butt"/><path d="M243.63564,196.35617c0.00789,-0.23127 0.17295,-0.80906 0.17295,-0.80906c0,0 0.08862,0.43715 0.16575,0.81761c0.07714,0.38046 0.0129,0.69625 -0.08613,0.7265c-0.06202,0.01895 -0.28528,0.03386 -0.4115,-0.26403c-0.0753,-0.17773 0.15106,-0.23978 0.15893,-0.47106z" fill="#c8c7c6" stroke="none" stroke-width="0" stroke-linecap="butt"/><path d="M245.34538,195.53436c0,0 0.24938,0.54671 0.29165,0.77421c0.04228,0.2275 0.27535,0.25512 0.22738,0.44209c-0.08038,0.31337 -0.30336,0.33192 -0.36752,0.32243c-0.10243,-0.01516 -0.21303,-0.31783 -0.1935,-0.70555c0.01955,-0.38772 0.042,-0.83317 0.042,-0.83317z" data-paper-data="{&quot;index&quot;:null}" fill="#c8c7c6" stroke="none" stroke-width="0" stroke-linecap="butt"/><path d="M242.38127,196.28764c0,0 0.3405,-2.12559 2.14541,-2.38963c1.26747,-0.18543 1.5619,0.92194 1.5619,0.92194" fill="none" stroke="#c8c7c6" stroke-width="0.125" stroke-linecap="round"/><g fill="#83c4ac" stroke="none" stroke-width="0" stroke-linecap="butt"><path d="M241.60344,190.24917l0.17305,-0.12855l0.93993,0.43106c0,0 -0.3776,0.58499 -0.50802,0.60459c-0.11052,0.0166 -0.60497,-0.9071 -0.60497,-0.9071z"/><path d="M240.97674,189.69622c0.08799,-0.06891 0.84993,0.41768 0.84993,0.41768l-0.20666,0.20321l-0.81542,-0.00269c0,0 0.06833,-0.53688 0.17215,-0.6182z" data-paper-data="{&quot;index&quot;:null}"/><path d="M241.61384,192.06554c-0.11172,-0.00327 -0.43456,-1 -0.43456,-1l0.23189,-0.11777l0.80983,0.61282c0,0 -0.47535,0.50878 -0.60716,0.50495z"/><path d="M240.73302,190.30764c0.10347,-0.04228 0.70364,0.63384 0.70364,0.63384l-0.25429,0.13908l-0.78371,-0.2252c0,0 0.21228,-0.49785 0.33437,-0.54773z" data-paper-data="{&quot;index&quot;:null}"/><path d="M240.79511,192.82957l-0.17588,-0.35508l0.37844,-0.79756c0,0 0.04791,-0.40525 0.20253,-0.33085c0.15463,0.07441 0.02248,0.43913 0.02248,0.43913l0.02978,0.97632z"/></g></g><path d="M242.6709,182.29908l0.61125,4.09521l0.23236,1.79344c0,0 -0.56151,0.04239 -0.82909,-0.01657c-0.26759,-0.05896 -0.6322,-0.3054 -0.6322,-0.3054l-0.15459,-1.34374l-0.47456,-3.74692z" data-paper-data="{&quot;index&quot;:null}" fill="#20201f" stroke="none" stroke-width="0" stroke-linecap="butt" stroke-linejoin="miter"/><g stroke="none" stroke-width="0" stroke-linecap="butt" stroke-linejoin="miter"><path d="M239.28487,167.87121c-0.02745,-0.13275 0.42406,-1.0825 0.68864,-1.47604c0.14451,-0.21493 0.41113,-0.61712 0.83778,-0.53154c0.10875,0.02181 0.52103,0.37205 0.52103,0.37205l0.37707,-0.18385c0,0 0.24487,0.0498 0.35692,0.15147c0.11205,0.10167 0.23171,0.35683 0.23171,0.35683c0,0 0.16963,0.02668 0.29251,0.02086c0.40105,-0.01906 0.45168,0.35405 0.45168,0.35405c0,0 0.28935,-0.04714 0.48034,0.04591c0.30277,0.1475 0.56951,0.48695 0.64659,0.70813c0.13095,0.37573 0.23869,1.47965 -0.07501,1.67686c-0.48861,0.30713 -0.79404,-0.33475 -0.79404,-0.33475c0,0 -0.04958,0.60037 -0.26169,0.89698c-0.32662,0.45671 -0.67743,0.55322 -0.67743,0.55322l-2.41556,-0.43889c0,0 -0.48826,-1.33807 -0.66052,-2.17125z" fill="#20201f"/><path d="M240.99423,169.28072c1.28723,0.39625 2.19178,1.56942 2.20275,2.51214c0.01097,0.94272 -1.18994,1.03997 -2.21038,0.72584c-1.02045,-0.31413 -1.7928,-1.01506 -1.77781,-1.95352c0.015,-0.93846 0.49821,-1.68071 1.78544,-1.28446z" fill="#20201f"/><path d="M240.50746,173.32396c0.09746,-1.24588 0.11949,-2.53583 0.11949,-2.53583l1.19847,0.61754c0,0 -0.231,1.6305 -0.27031,2.13311c-0.06449,0.82446 -0.10347,1.87265 -0.12298,3.07192c-0.00488,0.3005 -0.16459,0.47226 -0.47123,0.47982c-0.206,0.00507 -0.40014,-0.07365 -0.44238,-0.44667c-0.12759,-1.12647 -0.07923,-2.44848 -0.01105,-3.31989z" fill="#fed5c7"/><path d="M244.3464,168.44771c0.03592,0.41349 -0.10971,0.92828 -0.47752,1.04709c-0.57286,0.18505 -0.71687,-0.54234 -0.71687,-0.54234c0,0 1.17324,-0.74816 1.19438,-0.50474z" fill="#c0c2c6"/><path d="M243.05787,167.86321c0.03592,0.41349 -0.10971,0.92828 -0.47752,1.04709c-0.57286,0.18505 -0.71687,-0.54234 -0.71687,-0.54234c0,0 1.17324,-0.74816 1.19438,-0.50474z" fill="#c0c2c6"/><path d="M241.88145,167.37747c0.03592,0.41349 -0.10971,0.92828 -0.47752,1.04709c-0.57286,0.18505 -0.71687,-0.54234 -0.71687,-0.54234c0,0 1.17324,-0.74816 1.19438,-0.50474z" fill="#c0c2c6"/><path d="M241.05058,168.58527c0.18476,0.37165 0.23767,0.90402 -0.06115,1.1492c-0.46538,0.38188 -0.86562,-0.24234 -0.86562,-0.24234c0,0 0.818,-1.12566 0.92678,-0.90686z" fill="#c0c2c6"/><path d="M240.96034,167.18683c0.03592,0.41349 -0.10971,0.92828 -0.47752,1.04709c-0.57286,0.18505 -0.71687,-0.54234 -0.71687,-0.54234c0,0 1.17324,-0.74816 1.19438,-0.50474z" fill="#c0c2c6"/><g><path d="M241.77771,173.92095l-0.03194,1.1402l-1.43476,-0.14454l-0.0018,-1.14605z" fill="#83c4ac"/><path d="M241.07978,174.76319c0.61341,0.04948 1.07757,0.29594 1.02001,1.46748c-0.03238,0.65896 -0.55589,1.15307 -1.16929,1.10362c-0.6134,-0.04947 -1.06751,-0.62257 -1.05204,-1.28274c0.02578,-1.10059 0.58793,-1.33781 1.20133,-1.28836z" fill="#20201f"/><path d="M240.54199,172.19107l1.14024,0.06527l0.6229,0.22673l-0.53327,1.47161l-1.50225,-0.15624l-0.26622,-1.47124z" fill="#bebec0"/></g></g><g data-paper-data="{&quot;index&quot;:null}" stroke-width="0" stroke-linecap="butt" stroke-linejoin="miter"><g data-paper-data="{&quot;index&quot;:null}"><path d="M240.29187,166.02787c-0.82858,0.67286 -2.04374,0.54909 -2.71414,-0.27645c-0.67039,-0.82554 -0.54217,-2.04024 0.28642,-2.7131c0.82858,-0.67286 2.04376,-0.54909 2.71415,0.27645c0.67039,0.82554 0.54215,2.04025 -0.28644,2.71311z" fill="#c2e266" stroke="none"/><path d="M240.28331,165.90495c-0.51191,0.41571 -1.26263,0.33924 -1.6768,-0.17079c-0.41418,-0.51003 -0.33496,-1.26046 0.17696,-1.67616c0.51191,-0.41571 1.26263,-0.33924 1.6768,0.17079c0.41417,0.51002 0.33496,1.26046 -0.17696,1.67616z" fill="#c2e266" stroke="#000000"/><path d="M240.67908,166.34982c-0.45511,0.36623 -1.2388,0.54705 -1.2388,0.54705l-0.08966,-0.55828c0,0 0.70512,-0.1441 1.04143,-0.45037c0.33631,-0.30628 0.56922,-1.01645 0.56922,-1.01645l0.59864,0.39167c0,0 -0.48253,0.76588 -0.88084,1.0864z" fill="#dbded5" stroke="#000000"/></g><g data-paper-data="{&quot;index&quot;:null}" stroke="none"><path d="M239.10143,173.43828c0.26324,0.32415 0.35003,0.68977 0.19386,0.81659c-0.15617,0.12682 -0.49617,-0.03316 -0.75941,-0.35732c-0.26324,-0.32416 -0.35005,-0.68976 -0.19387,-0.81658c0.15618,-0.12682 0.49618,0.03315 0.75943,0.35732z" fill="#000000"/><path d="M240.57628,178.06175c0.16268,-0.13211 2.11953,1.04502 2.11953,1.04502c0,0 -0.60553,0.9203 -0.76821,1.0524c-0.16267,0.13209 -1.19714,-0.58334 -1.31296,-0.72598c-0.11583,-0.14264 -0.20101,-1.23935 -0.03834,-1.37146z" fill="#807d5a"/><path d="M238.96686,174.22588l-0.27557,-0.17881l0.06038,-7.6464l0.19744,0.03447z" fill="#6e6e73"/><path d="M238.63738,167.1428l0.46258,0.03994l-0.05319,1.79645l-0.43902,-0.05907z" fill="#c2e266"/></g></g><g data-paper-data="{&quot;index&quot;:null}" stroke-width="0" stroke-linecap="butt" stroke-linejoin="miter"><g data-paper-data="{&quot;index&quot;:null}"><path d="M223.23477,178.66851c-0.86001,-1.05904 -0.69549,-2.6173 0.36744,-3.48048c1.06295,-0.86318 2.6218,-0.70439 3.48181,0.35464c0.86001,1.05904 0.69549,2.61729 -0.36745,3.48047c-1.06294,0.86318 -2.62179,0.7044 -3.48179,-0.35464z" fill="#c2e266" stroke="none"/><path d="M224.41345,178.76093c-0.53132,-0.65428 -0.42967,-1.61697 0.22701,-2.15024c0.65669,-0.53328 1.61973,-0.43518 2.15105,0.21909c0.53131,0.65427 0.42968,1.61697 -0.227,2.15024c-0.65669,0.53328 -1.61975,0.43518 -2.15107,-0.2191z" fill="#c2e266" stroke="#000000"/><path d="M227.01886,179.59405c-0.50729,0.4157 -1.59588,0.8199 -1.59588,0.8199l-0.33416,-0.85473c0,0 0.95298,-0.10545 1.42606,-0.44706c0.47308,-0.34163 0.83962,-1.18899 0.83962,-1.18899l0.67734,0.25955c0,0 -0.43333,0.93635 -1.01296,1.41132z" fill="#dbded5" stroke="#000000"/></g><g data-paper-data="{&quot;index&quot;:null}" stroke="none"><path d="M236.66891,181.18353c-0.10767,-0.45902 -1.43371,-2.55928 -0.40713,-3.34295c0.15933,-0.12163 2.17783,-0.08899 3.01973,0.57563c1.14522,0.90407 1.16964,2.54476 1.16964,2.54476l-2.4306,1.94881c0,0 -1.244,-1.26724 -1.35167,-1.72625z" fill="#c2e266"/><path d="M236.08526,178.43184c0.20035,-0.1627 0.63652,0.04252 0.97422,0.45838c0.3377,0.41585 0.44904,0.88487 0.2487,1.04755c-0.20034,0.16269 -0.6365,-0.04254 -0.97421,-0.4584c-0.3377,-0.41586 -0.44905,-0.88485 -0.24871,-1.04754z" fill="#000000"/><path d="M239.51566,184.50932c-0.64872,-0.56498 -1.50689,-1.60853 -1.50689,-1.60853c0,0 0.22203,-0.62504 0.43712,-0.93815c0.2151,-0.31311 0.65099,-0.73348 0.65099,-0.73348l1.45054,-0.16688c0,0 2.0437,2.18925 2.29492,2.47817c0.50595,0.58187 -0.24038,1.92786 -0.24038,1.92786l-1.22082,0.36956c0,0 -1.21679,-0.76356 -1.86551,-1.32854z" fill="#20201f"/><path d="M242.50467,185.48453c0,0 -0.96278,-2.76677 -0.75408,-2.93625c0.20869,-0.16948 1.56323,0.22622 1.71182,0.40919c0.14859,0.18297 0.77452,1.67015 0.56583,1.83961c-0.20869,0.16948 -1.52357,0.68745 -1.52357,0.68745z" fill="#c274a1"/><path d="M227.58141,177.44445l0.0087,-0.25698l9.61618,1.9372l0.15197,0.39305z" fill="#6e6e73"/><path d="M230.79123,177.67009l-0.04141,0.56676l-2.2695,-0.40614l0.07164,-0.5913z" fill="#c2e266"/></g></g><g data-paper-data="{&quot;index&quot;:null}" stroke="none" stroke-width="0" stroke-linecap="butt" stroke-linejoin="miter"><path d="M241.71213,181.51032c0,0 -0.53365,3.91837 -1.16666,4.44505c-0.68787,0.57231 -2.75039,0.64322 -2.75039,0.64322l2.26852,-1.28162l0.57417,-3.01948l1.0744,-0.78716z" fill="#f79db4"/><path d="M238.83248,180.15965c0.66767,0.17551 0.80291,0.83169 0.62739,1.49937c-0.17551,0.66767 -0.5953,1.09401 -1.26297,0.9185c-0.66767,-0.17551 -1.06665,-0.85904 -0.89114,-1.52671c0.17551,-0.66767 0.85905,-1.06666 1.52672,-0.89114z" fill="#83c4ac"/><path d="M246.60345,183.75777c0.01618,0.51175 -0.76568,1.57675 -1.52883,1.55764c-0.23547,0.75125 -1.17182,0.63677 -1.96128,0.44695c-0.49773,0.6891 -1.19757,0.34007 -2.03906,0.27065c-0.84149,-0.06941 -1.02864,-0.40952 -1.02864,-0.40952c0,0 -0.40954,-0.67616 -0.39672,-1.04713c0.01281,-0.37096 -0.03965,-1.14296 -0.03965,-1.14296c0,0 -0.53367,-0.28962 0.26583,-0.24455c0.65928,0.03717 1.60832,0.3284 3.23454,-1.08495c1.82378,-1.58505 1.15689,-2.34795 1.15689,-2.34795c0,0 1.61158,0.54734 2.10238,2.38078c0.37299,1.39337 1.09652,1.2468 0.23454,1.62104z" fill="#c0c2c6"/><path d="M240.01183,176.28221c0,0 0.64796,0.47184 1.12339,0.89573c0.47545,0.42388 1.09971,1.06374 1.09971,1.06374c0,0 0.57134,0.76273 1.35067,0.62348c0.28194,0.03335 2.35511,1.87532 2.27429,2.2689c-0.10753,0.52369 -1.28443,1.37156 -1.42124,1.70423c-0.29241,0.71102 -3.32557,1.11549 -3.84598,1.17736c-0.30741,0.03655 -0.54295,-0.37228 -0.87357,-0.48341c-0.52847,-0.17765 -0.49407,-1.3253 -0.37931,-2.0987c0.11476,-0.77341 0.07038,-0.92846 -0.16714,-1.73213c-0.23751,-0.80366 -1.30708,-1.74995 -1.30708,-1.74995l1.83718,-1.46701l0.30903,-0.20225z" fill="#20201f"/><path d="M239.5365,182.22843l-0.37381,-0.08655c0,0 0.11663,-0.39257 0.14579,-0.63839c0.03236,-0.2729 0.04047,-0.42565 0.04047,-0.42565l0.9389,0.18642l-0.03928,0.50538z" data-paper-data="{&quot;index&quot;:null}" fill="#c274a1"/><path d="M241.22638,181.75104l-0.96987,0.03264l0.03072,-0.40678l1.09502,-0.03281z" data-paper-data="{&quot;index&quot;:null}" fill="#c0c2c6"/><path d="M243.34721,179.20521l-0.50676,-0.01237l-0.24612,-0.69032c0,0 0.35218,0.17243 0.62695,0.16801c0.24752,-0.00398 0.59409,0.31856 0.59409,0.31856z" fill="#c274a1"/><path d="M242.58744,180.68041l0.28737,-1.51547l0.4078,0.01084l-0.27446,1.39098z" fill="#c0c2c6"/><path d="M237.94612,177.70289l2.08389,-1.60457c0,0 0.47064,-0.30034 1.36691,0.79108c0.39564,0.48178 0.70709,1.37585 0.70709,1.37585l-0.80109,-0.23124c0,0 0.05448,0.72729 0.0094,1.06071c-0.04427,0.32744 -0.21429,0.79527 -0.30886,0.94764c-0.09744,0.157 -1.18673,1.15457 -2.30897,-0.50876c-0.91937,-1.36265 -0.74839,-1.83072 -0.74839,-1.83072z" fill="#c0c0c3"/><path d="M238.68215,177.39258l1.4433,-1.36543l-0.08682,0.79325z" fill="#222225"/><g><g><path d="M243.54254,181.11552c0.05414,0.63399 -0.59946,1.2075 -1.45988,1.28098c-0.86041,0.07348 -1.6018,-0.3809 -1.65594,-1.01488c-0.05414,-0.63399 0.59946,-1.2075 1.45988,-1.28098c0.86041,-0.07348 1.6018,0.3809 1.65595,1.01489z" fill="#c0c2c6"/><path d="M240.96689,179.59823c0.24605,0.04856 0.40613,0.28739 0.35757,0.53342c-0.04856,0.24604 -0.28739,0.40613 -0.53342,0.35757c-0.24604,-0.04856 -0.40612,-0.28739 -0.35756,-0.53343c0.04857,-0.24604 0.28739,-0.40612 0.53343,-0.35756z" fill="#000000"/><path d="M241.1307,179.81587c0.11348,0.15017 -0.04841,0.22074 -0.19858,0.33424c-0.15017,0.11349 -0.23172,0.22693 -0.34522,0.07677c-0.11349,-0.15016 -0.08377,-0.3639 0.06641,-0.47739c0.15016,-0.11349 0.3639,-0.08377 0.47739,0.06641z" fill="#c478a9"/><path d="M243.32069,179.76355c0.05347,0.24502 -0.10182,0.48699 -0.34683,0.54046c-0.24502,0.05347 -0.48698,-0.10182 -0.54045,-0.34684c-0.05347,-0.24502 0.10182,-0.48699 0.34683,-0.54046c0.24502,-0.05347 0.48699,0.10182 0.54046,0.34683z" fill="#000000"/><path d="M243.18631,180.00049c-0.09253,0.16392 -0.22175,0.04353 -0.38567,-0.049c-0.16392,-0.09253 -0.30046,-0.12215 -0.20793,-0.28607c0.09253,-0.16392 0.30041,-0.22179 0.46433,-0.12927c0.16392,0.09253 0.22179,0.30041 0.12927,0.46433z" fill="#c478a9"/><path d="M242.9111,180.36893c0.0542,0.06674 -0.01732,0.2618 -0.20577,0.41483c-0.18845,0.15303 -0.47752,0.10925 -0.53172,0.0425c-0.0542,-0.06674 0.03422,-0.2991 0.22267,-0.45214c0.18845,-0.15303 0.46063,-0.07194 0.51484,-0.00519z" fill="#000000"/><path d="M241.50067,180.44206c0.21616,0.11051 0.35096,0.3194 0.31182,0.39596c-0.03913,0.07656 -0.31278,0.17951 -0.52893,0.06901c-0.21617,-0.1105 -0.32668,-0.2864 -0.28755,-0.36296c0.03913,-0.07656 0.2885,-0.21249 0.50466,-0.10199z" data-paper-data="{&quot;index&quot;:null}" fill="#000000"/><path d="M242.60762,180.72155c-0.07067,0.05739 -0.17449,0.04663 -0.23188,-0.02405c-0.05739,-0.07066 -0.04662,-0.17448 0.02406,-0.23187c0.07066,-0.05739 0.17447,-0.04662 0.23187,0.02405c0.05739,0.07067 0.04664,0.17447 -0.02404,0.23186z" fill="#ffffff"/><path d="M241.64899,180.863c-0.07459,0.06058 -0.18418,0.04921 -0.24474,-0.02539c-0.06058,-0.07459 -0.04921,-0.18418 0.02539,-0.24474c0.07459,-0.06058 0.18418,-0.04921 0.24474,0.02539c0.06058,0.07459 0.04921,0.18418 -0.02539,0.24474z" fill="#ffffff"/></g><path d="M242.23284,181.02254c0.00252,0.0657 -0.07261,0.14024 -0.16863,0.14391c-0.09602,0.00366 -0.1766,-0.06493 -0.1791,-0.13063c-0.0025,-0.0657 0.34523,-0.07898 0.34774,-0.01328z" fill="#000000"/><path d="M242.74384,180.96176c0.1389,-0.02752 0.26347,0.01049 0.27822,0.08491c0.01474,0.07442 -0.08592,0.15706 -0.22483,0.18459c-0.1389,0.02752 -0.26347,-0.01049 -0.27822,-0.08491c-0.01474,-0.07442 0.08592,-0.15706 0.22483,-0.18459z" fill="#ad597c"/><path d="M241.26017,181.08131c0.1389,-0.02752 0.26347,0.01049 0.27822,0.08491c0.01474,0.07442 -0.08592,0.15706 -0.22483,0.18459c-0.1389,0.02752 -0.26347,-0.01049 -0.27822,-0.08491c-0.01474,-0.07442 0.08592,-0.15706 0.22483,-0.18459z" fill="#ad597c"/></g><g fill="#83c4ac"><path d="M242.18745,177.84907c0,0 -0.45974,0.03893 -0.64334,0.06196c-0.20658,0.0259 -0.53535,0.08587 -0.53535,0.08587l-0.05482,-0.19475c0,0 0.28203,-0.2873 0.44086,-0.37385c0.17348,-0.09453 0.55997,-0.17154 0.55997,-0.17154l0.23266,0.5923z"/><path d="M241.00716,179.36372l-0.60858,-0.18592c0,0 0.04673,-0.39131 0.1275,-0.57162c0.07395,-0.16508 0.46304,-0.84527 0.46304,-0.84527l0.04534,0.23271c0,0 -0.00575,0.51593 -0.01553,0.7239c-0.00869,0.18483 -0.01178,0.64619 -0.01178,0.64619z" data-paper-data="{&quot;index&quot;:null}"/><path d="M242.20087,179.26868c0,0 -0.3868,-0.47052 -0.59533,-0.70043c-0.20854,-0.22991 -0.5559,-0.5688 -0.5559,-0.5688l0.23477,-0.1562c0,0 0.25431,0.20356 0.46128,0.41735c0.20698,0.21379 0.50004,0.57562 0.50004,0.57562z"/><path d="M241.75537,179.44105c0,0 -0.29397,-0.36108 -0.46074,-0.60754c-0.16677,-0.24645 -0.41102,-0.69924 -0.41102,-0.69924l0.15308,-0.19318c0,0 0.309,0.49057 0.49122,0.74185c0.18222,0.25128 0.56983,0.75559 0.56983,0.75559z" data-paper-data="{&quot;index&quot;:null}"/></g></g><g data-paper-data="{&quot;index&quot;:null}" stroke="none" stroke-width="0" stroke-linecap="butt" stroke-linejoin="miter"><path d="M245.50268,181.03496c0.66503,0.7974 0.28527,2.21018 -0.84822,3.15551c-1.13349,0.94531 -2.59148,1.06524 -3.25652,0.26783c-0.66503,-0.7974 -0.28527,-2.21018 0.8482,-3.15551c1.13349,-0.94531 2.59149,-1.06523 3.25653,-0.26783z" fill="#20201f"/><path d="M239.14685,178.23468c0.99324,0.6419 2.02789,1.55504 2.68589,2.18624c0.94075,0.90243 1.80513,1.67859 1.80513,1.67859l-0.8622,0.86334c0,0 -1.42944,-1.47464 -1.80896,-1.83871c-0.62254,-0.59719 -1.44249,-1.32173 -2.3972,-2.13043c-0.23921,-0.20265 -0.2722,-0.44505 -0.07554,-0.69746c0.13214,-0.16957 0.32401,-0.27413 0.6529,-0.06158z" fill="#fed5c7"/><path d="M240.2492,180.67625l-0.84849,-0.76233l1.03882,-1.00015l0.87478,0.7404z" fill="#83c4ac"/><path d="M239.85436,177.84943c0.82226,0.73201 0.63926,1.31407 0.20455,1.74964c-0.43473,0.43557 -0.92304,0.62985 -1.77882,-0.17229c-0.48136,-0.45119 -0.51917,-1.17006 -0.08444,-1.60563c0.43473,-0.43556 1.1655,-0.4108 1.65873,0.02829z" fill="#20201f"/><path d="M242.36768,180.85391l-0.78775,0.82695l-0.57601,0.32808l-0.77664,-1.35901l1.09142,-1.04402l1.29381,0.74931z" fill="#bebec0"/><g><path d="M244.69718,182.22317c0,0 1.4206,0.43544 2.22228,0.8162c0.12772,0.06068 0.63404,1.03383 0.79508,1.50154c0.08796,0.25545 0.25492,0.73031 -0.08469,1.03151c-0.08658,0.07679 -0.63736,0.19956 -0.63736,0.19956l-0.0842,0.42943c0,0 -0.19546,0.17245 -0.35055,0.20173c-0.1551,0.02928 -0.44269,-0.03166 -0.44269,-0.03166c0,0 -0.1289,0.1244 -0.20134,0.2303c-0.23643,0.34572 -0.57875,0.15314 -0.57875,0.15314c0,0 -0.14281,0.27043 -0.34036,0.37083c-0.31319,0.15917 -0.76345,0.1676 -0.99599,0.09261c-0.39503,-0.12737 -1.38145,-0.73216 -1.3482,-1.11726c0.0518,-0.59978 0.77806,-0.45019 0.77806,-0.45019c0,0 -0.46841,-0.41893 -0.58178,-0.78202c-0.17458,-0.5591 -0.03421,-0.91172 -0.03421,-0.91172l1.88474,-1.734z" fill="#20201f"/><path d="M243.43008,186.94755c-0.39503,-0.12737 -0.81293,-0.46138 -0.77969,-0.84647c0.0518,-0.59978 0.77805,-0.45018 0.77805,-0.45018c0,0 0.23417,1.37165 0.00164,1.29666z" fill="#c0c2c6"/></g></g><g><g data-paper-data="{&quot;index&quot;:null}"><g data-paper-data="{&quot;index&quot;:null}" fill="#86cbb6" stroke="none" stroke-width="0" stroke-linecap="butt" stroke-linejoin="miter"><path d="M237.07194,167.54824c-0.37447,0.30432 -0.54377,0.50851 -0.54377,0.50851l-0.61572,0.31375c0,0 0.15698,-0.82995 0.39005,-1.19513c0.23307,-0.36519 0.90581,-0.97285 0.90581,-0.97285l0.71943,0.73249c0,0 -0.48129,0.30893 -0.85578,0.61324z"/><path d="M238.38409,168.46172c0,0 -0.6005,-0.04351 -0.88254,-0.06497c-0.3885,-0.02956 -1.60152,-0.0729 -1.60152,-0.0729l0.40903,-0.43353c0,0 0.83524,-0.14045 1.20013,-0.19251c0.29273,-0.04176 0.82087,-0.09576 0.82087,-0.09576z"/></g><g stroke="none" stroke-width="0" stroke-linecap="butt" stroke-linejoin="miter"><path d="M234.33962,165.5348c0.82028,-0.19289 1.19873,-0.02036 1.82961,0.63574c0.63087,0.6561 0.54398,2.34837 0.54398,2.34837c0,0 -0.86896,-0.36446 -1.45347,-0.40607c-0.5845,-0.04161 -1.56879,0.19091 -1.56879,0.19091c0,0 -0.23649,-0.7761 -0.2371,-1.43397c-0.0037,-0.50418 0.0846,-1.04465 0.88578,-1.33498z" data-paper-data="{&quot;index&quot;:null}" fill="#20201f"/><path d="M235.39608,165.65248c0.65588,0.22117 1.10862,1.17303 1.10862,1.17303l-1.0327,0.1529c0,0 -0.58234,-1.49674 -0.07592,-1.32595z" data-paper-data="{&quot;index&quot;:null}" fill="#b2b1b2"/></g><path d="M230.30936,170.71325c1.9632,-2.69988 5.44227,-3.51601 7.77073,-1.82291c2.32847,1.69312 2.62457,5.25433 0.66137,7.95421c-1.96319,2.69988 -5.44225,3.51602 -7.77072,1.8229c-2.32847,-1.69312 -2.62459,-5.25435 -0.6614,-7.95423z" fill="#f79eb4" stroke="none" stroke-width="0" stroke-linecap="butt" stroke-linejoin="miter"/><path d="M239.3745,170.07856c-0.00934,-0.01454 0.86593,0.585 1.50885,1.98604c1.04248,2.25502 0.2189,3.48579 0.2189,3.48579l-0.57072,-0.76444c0,0 -0.48176,-2.26938 -0.76617,-2.97914c-0.28442,-0.70974 -1.11293,-1.55643 -1.11248,-1.55587" fill="#f79eb4" stroke="#f89db5" stroke-width="0" stroke-linecap="butt" stroke-linejoin="round"/><g fill="#ffd5c5" stroke="none" stroke-width="1" stroke-linecap="round" stroke-linejoin="round"><path d="M240.04761,172.40571c0.50163,0.21924 0.60512,0.85987 0.62148,1.36084c0.00265,0.08196 0.02157,0.72278 -0.24293,1.56106c-0.33191,1.05184 -1.30407,2.05202 -1.57516,2.34522c-0.32335,0.34962 -1.24546,0.71984 -1.43987,0.74328c-1.39936,0.16864 -1.38055,-0.70595 -1.38443,-0.83405c-0.00184,-0.06109 0.07558,-0.33931 0.35036,-0.53303c0.26783,-0.1888 1.14629,-0.59911 1.30796,-0.84263c0.17372,-0.26163 0.72267,-2.02024 1.25722,-2.75335c0.11269,-0.1512 0.30963,-0.31489 0.49478,-0.36779c0.241,-0.06878 0.65403,-0.1338 0.60353,-0.49893c-0.0082,-0.05911 -0.04764,-0.20448 0.00705,-0.1806z"/><path d=""/></g><g fill="#000000" stroke="#000000" stroke-width="0.125" stroke-linecap="butt" stroke-linejoin="round"><path d="M239.72988,172.13745c0.01985,-0.06275 0.2187,-0.28442 0.39415,-0.7013c0.10169,-0.26873 0.201,-0.53854 0.27613,-0.81576c0.04494,-0.16598 0.04593,-0.34635 0.09745,-0.50921c0.00174,-0.00555 -0.0295,0.40384 -0.05076,0.51943c-0.06662,0.36231 -0.15484,0.66909 -0.28028,1.01482c-0.02753,0.07592 -0.31407,0.65141 -0.33187,0.63411"/><path d="M239.48111,171.92199c0.03563,-0.00572 0.24053,-0.26641 0.33487,-0.7139c0.09435,-0.44748 0.14166,-1.12824 0.12271,-1.16472c-0.00716,-0.01376 0.04129,0.81431 -0.00324,1.14715c-0.04455,0.3328 -0.29558,0.91501 -0.3122,0.89889"/></g><g fill="#000000" stroke="none" stroke-width="1" stroke-linecap="round" stroke-linejoin="round"><path d="M239.08068,173.75776c0.00037,-0.18424 0.35884,-0.5777 0.4666,-0.61215c0.18643,-0.0596 0.16344,0.39159 0.09284,0.4762c-0.16935,0.17248 -0.5599,0.37836 -0.55944,0.13594z"/><path d=""/></g><path d="M233.97903,176.18456c-0.03084,-0.04772 1.47454,1.19556 2.19943,1.69577c1.36509,0.94196 2.42201,1.23698 2.42201,1.23698c0,0 -0.39998,0.15149 -0.50822,0.17875c-0.33435,0.08428 -0.64873,0.14458 -0.9955,0.17088c-0.81561,0.06181 -1.63,-0.08806 -2.39486,-0.37011c-0.50974,-0.18797 -2.45544,-1.40492 -2.45312,-1.43148" fill="#f79eb4" stroke="#f89db5" stroke-width="0" stroke-linecap="butt" stroke-linejoin="round"/><path d="M232.16762,177.72337c0.00324,0.02045 2.44197,1.42909 3.15751,1.7683c0.71553,0.33921 1.92508,0.64111 1.92508,0.64111c0,0 -0.29319,0.29533 -1.13405,0.37872c-0.74248,0.07362 -1.13502,0.13338 -2.14927,-0.25237c-1.31612,-0.50055 -2.88599,-1.5151 -3.07102,-1.87186" fill="#f79eb4" stroke="#f89db5" stroke-width="0" stroke-linecap="butt" stroke-linejoin="round"/><g stroke="none" stroke-width="1" stroke-linecap="round" stroke-linejoin="round"><path d="M234.52252,169.1607c-0.10076,0.04348 -2.64088,1.17174 -3.43468,2.73129c-0.62565,1.22919 -0.62921,2.11533 -0.63726,3.64388c-0.00625,1.17884 0.91468,2.58071 0.90018,2.61586c-0.00104,0.00252 -3.10451,-2.70738 -1.41774,-6.05574c1.39028,-2.69036 4.25462,-3.58649 4.40907,-3.59827" fill="#20201f"/><path d="" fill="#ee1a40"/></g><path d="M235.59745,169.55555c0.00154,0.02919 0.0741,-1.08975 1.47459,-2.27513c0.25105,-0.21018 1.2848,-0.73341 2.04429,-0.50872c0.73872,0.13834 1.20803,0.88283 1.19718,0.89494c-0.01563,0.01734 -1.44048,0.00197 -2.37154,0.61009c-0.50839,0.33204 -1.30271,1.75177 -1.30066,1.7902" fill="#f79eb4" stroke="#f89db5" stroke-width="0" stroke-linecap="butt" stroke-linejoin="round"/><path d="M235.12974,170.26326c-0.06186,-0.0562 -0.66487,-1.53885 -0.70437,-1.91503c-0.03952,-0.3762 0.00345,-0.55274 0.33352,-1.06018c1.28419,-1.60975 3.21871,-1.59988 3.21871,-1.59988c0,0 -1.5564,0.56763 -1.88251,1.25567c-0.45244,0.95456 -0.49704,2.47308 -0.49066,2.60624" fill="#f79eb4" stroke="#f89db5" stroke-width="0" stroke-linecap="butt" stroke-linejoin="round"/><path d="M236.67686,170.17085c-0.04797,0.01539 0.31005,-0.86796 1.2189,-1.27021c0.2611,-0.11555 1.54447,-0.16006 1.6558,-0.05799c0.50812,0.33832 1.84156,1.54328 1.84157,1.54131c0.00049,-0.04274 -1.32604,-0.43993 -2.40392,-0.41221c-0.36243,0.01142 -1.41928,0.69792 -1.55512,0.74141" fill="#f79eb4" stroke="#f89db5" stroke-width="0" stroke-linecap="butt" stroke-linejoin="round"/><g fill="#000000" stroke="#000000" stroke-width="0.125" stroke-linecap="butt" stroke-linejoin="round"><path d="M235.68495,177.40023c0.01476,0.04094 -0.06492,0.17247 -0.2451,0.27705c-1.15676,0.67151 -1.55718,0.57313 -1.55718,0.57313c0,0 0.66291,-0.0335 1.36024,-0.59945c0.13579,-0.11021 0.28572,-0.28 0.31235,-0.32108c0.02539,-0.03918 0.02068,-0.0926 0.06435,-0.12189"/><path d="M235.92155,177.49284c0,0 0.01334,0.05482 -0.0291,0.18627c-0.07867,0.24376 -0.44627,0.74305 -0.6498,0.9502c-0.48535,0.49392 -0.89564,0.66989 -0.89564,0.66989c0,0 0.63576,-0.49541 0.81263,-0.6712c0.53031,-0.53297 0.58676,-1.09702 0.58651,-1.17866c-0.0001,-0.03597 -0.01203,-0.11986 0.00469,-0.14938"/></g><g fill="none" stroke="none" stroke-width="1" stroke-linecap="butt" stroke-linejoin="miter" font-family="sans-serif" font-weight="normal" font-size="12" text-anchor="start"/><g fill="none" stroke="none" stroke-width="1" stroke-linecap="butt" stroke-linejoin="miter" font-family="sans-serif" font-weight="normal" font-size="12" text-anchor="start"/><g fill="#86cbb6" stroke="none" stroke-width="0" stroke-linecap="butt" stroke-linejoin="miter"><path d="M230.48857,175.56857c0,0 -0.1698,0.26776 -0.37788,0.80574c-0.20808,0.53798 -0.382,1.19913 -0.382,1.19913l-1.09805,-0.54818c0,0 0.44313,-0.98891 0.77252,-1.38853c0.32938,-0.39962 1.21531,-0.88396 1.21531,-0.88396l-0.12988,0.81578z"/><path d="M230.6355,177.78513c0,0 -0.1332,-0.62048 -0.1936,-0.96875c-0.07529,-0.43413 -0.22334,-1.43567 -0.22334,-1.43567l0.34227,-0.62487c0,0 0.49628,1.36342 0.67305,1.7943c0.12834,0.31281 0.3991,0.97966 0.3991,0.97966z"/></g><path d="M228.18272,172.25546c0.40177,-1.09381 1.14132,-1.21136 1.83072,-1.2033c0.89957,0.00472 1.9594,0.33272 1.9594,0.33272c0,0 -0.4067,1.09968 -0.58989,2.09213c-0.31335,1.69777 -0.18888,2.14372 -0.18888,2.14372c0,0 -1.25948,0.00688 -2.15288,-0.85967c-0.8934,-0.86654 -1.1271,-1.38508 -0.85846,-2.5056z" fill="#20201f" stroke="none" stroke-width="0" stroke-linecap="butt" stroke-linejoin="miter"/><path d="M229.35242,172.49914c0.37011,-0.98755 1.62785,-0.61803 1.62785,-0.61803c0,0 -0.29901,0.57624 -0.47882,1.11384c-0.30758,0.91964 -0.28711,1.18089 -0.28711,1.18089c0,0 -1.25212,-0.63554 -0.86191,-1.6767z" fill="#b2b1b2" stroke="none" stroke-width="0" stroke-linecap="butt" stroke-linejoin="miter"/></g><g fill="none" stroke="#000000" stroke-width="0.5" stroke-linecap="round" stroke-linejoin="miter"><path d="M234.79854,175.94141l2.96064,-0.52111"/><path d="M235.9917,174.15136l0.52111,2.96064"/></g><g fill="none" stroke="#000000" stroke-width="0.5" stroke-linecap="round" stroke-linejoin="miter"><path d="M236.89766,172.9353l2.96065,-0.52112"/><path d="M238.09083,171.14523l0.52111,2.96064"/></g></g></g></g></svg>