<svg version="1.1" xmlns="http://www.w3.org/2000/svg" xmlns:xlink="http://www.w3.org/1999/xlink" width="10.15344" height="18.06757" viewBox="0,0,10.15344,18.06757"><g transform="translate(-235.24861,-170.07832)"><g data-paper-data="{&quot;isPaintingLayer&quot;:true}" fill-rule="nonzero" stroke-width="0" stroke-linecap="butt" stroke-linejoin="miter" stroke-miterlimit="10" stroke-dasharray="" stroke-dashoffset="0" style="mix-blend-mode: normal"><path d="M243.95303,181.80116c-0.90249,0.94477 -3.21432,0.79701 -3.26403,0.36396c-0.06323,-0.55088 2.43677,-3.61029 3.13596,-2.63954c0.4643,0.72415 -1.09442,2.22611 -1.09442,2.22611c0,0 1.613,-0.33742 1.22249,0.04947z" data-paper-data="{&quot;index&quot;:null}" fill="#d4a5b9" stroke="none"/><path d="M238.03278,182.26115c0,0 -1.92274,-1.34593 -1.87702,-2.18832c0.39054,-0.67805 3.89588,1.57746 3.95913,2.12834c0.04971,0.43306 -2.05834,1.04016 -3.01673,0.45823c-0.4545,-0.17052 0.93461,-0.39825 0.93461,-0.39825z" data-paper-data="{&quot;index&quot;:null}" fill="#d4a5b9" stroke="none"/><path d="M238.30817,183.45308c-0.11952,-1.04112 0.69351,-1.98956 1.81597,-2.11841c1.12245,-0.12885 2.12926,0.61067 2.24877,1.65178c0.11952,1.04112 -0.69351,1.98956 -1.81597,2.11841c-1.12245,0.12885 -2.12926,-0.61067 -2.24877,-1.65178z" fill="#9ad6ef" stroke="none"/><path d="M241.26528,188.12245c-0.61414,0.01948 -1.15406,-0.90716 -1.20592,-2.06968c-0.05188,-1.16253 0.40393,-2.12074 1.01807,-2.14023c0.61414,-0.01948 1.15406,0.90716 1.20592,2.06968c0.05188,1.16253 -0.40393,2.12074 -1.01807,2.14023z" fill="#9ad6ef" stroke="none"/><path d="M245.17833,186.40381c-0.45501,0.4232 -1.48006,0.08729 -2.28948,-0.75025c-0.80942,-0.83756 -1.09672,-1.85961 -0.6417,-2.28281c0.45501,-0.4232 1.48006,-0.08729 2.28948,0.75025c0.80942,0.83756 1.09672,1.85961 0.6417,2.28281z" data-paper-data="{&quot;index&quot;:null}" fill="#9ad6ef" stroke="none"/><path d="M241.43882,188.14546c-0.991,0.02738 -1.25102,-1.29393 -1.25102,-1.29393c0,0 0.3302,-0.78719 1.13429,-1.00625c0.57094,-0.15555 0.95585,0.42758 0.95585,0.42758c0,0 -0.1188,1.8527 -0.8391,1.87259z" fill="#eaec6e" stroke="none"/><path d="M244.8594,184.48871c0,0 1.04153,1.43029 0.2387,1.99066c-0.72584,0.5059 -1.59534,-0.30907 -1.59534,-0.30907c0,0 -0.27332,-0.61226 0.34469,-1.38618c0.27088,-0.32955 1.01194,-0.29542 1.01194,-0.29542z" data-paper-data="{&quot;index&quot;:null}" fill="#eaec6e" stroke="none"/><path d="M243.58532,181.65128c0.90309,0.46232 1.38226,1.54349 0.76506,2.27279c-0.40551,0.47917 -1.2971,0.50178 -1.63348,-0.07823c-0.3726,-0.49476 -0.28255,-1.08233 -0.28255,-1.08233c0,0 -0.33165,-0.6682 -0.55642,-0.81975c-0.33678,-0.22707 -1.20891,-0.34363 -1.20891,-0.34363c0,0 0.62807,-0.21629 1.12759,-0.28281c0.49952,-0.06653 1.18899,-0.05803 1.78871,0.33395z" data-paper-data="{&quot;index&quot;:null}" fill="#9ad6ef" stroke="none"/><path d="M244.61957,182.92886c0,0 0.26291,0.84182 -0.71438,1.29827c-0.89613,0.48096 -1.42355,-0.79804 -1.42355,-0.79804c0,0 0.19298,-0.51768 0.83435,-0.76952c0.81702,-0.3208 1.30357,0.2693 1.30357,0.2693z" data-paper-data="{&quot;index&quot;:null}" fill="#eaec6e" stroke="none"/><path d="M237.6614,182.40595c0.37456,-0.33711 1.30964,-0.54564 1.30964,-0.54564c0,0 -0.67307,0.57892 -0.67182,1.40702c0.00073,0.48957 0.55045,1.26431 0.6315,1.48716c0.21924,0.60283 -0.37199,1.29622 -0.99971,1.29421c-0.95542,-0.00309 -1.34613,-1.05621 -1.11245,-2.04349c0.11959,-0.50522 0.4683,-1.26213 0.84284,-1.59926z" fill="#9ad6ef" stroke="none"/><path d="M236.95807,185.45397c0,0 0.09127,-0.75734 0.87438,-1.04519c0.58296,-0.21428 0.94004,0.07613 0.94004,0.07613c0,0 0.72089,0.98596 -0.32191,1.44717c-0.92476,0.409 -1.4925,-0.47812 -1.4925,-0.47812z" fill="#eaec6e" stroke="none"/><path d="M239.01537,174.37727c0.76324,-0.43137 1.29554,-1.39274 1.33817,-1.39507c0.06191,-0.00337 0.16192,0.16625 0.31503,0.25834c0.88509,0.53239 3.02768,2.4031 3.13114,4.28502c0.04725,0.85939 0.22132,3.63033 -3.88277,4.13133c-3.32721,0.50913 -4.78173,-1.1321 -4.66146,-2.9117c0.19413,-2.87294 2.25845,-3.51931 3.7599,-4.36792z" fill="#9ad6ef" stroke="none"/><path d="M239.71283,182.05692c0,0 -0.20052,-0.35425 -0.1174,-0.5409c0.23504,-0.52781 0.88892,-1.2431 1.47028,-1.10397c0.64121,0.15346 -0.23454,1.63368 -0.23454,1.63368c0,0 0.42371,0.89933 0.23046,0.95917c-0.14861,0.04602 -0.59983,-0.00198 -0.89444,-0.18865c-0.47081,-0.29831 -0.45436,-0.75932 -0.45436,-0.75932z" fill="#d62c35" stroke="none"/><path d="M238.78664,182.17302c-0.12076,-0.38998 0.03187,-0.61509 0.28213,-0.69258c0.25026,-0.0775 0.59307,-0.14812 0.6974,0.38927c0.08253,0.40237 0.03649,0.59392 -0.35538,0.71526c-0.39186,0.12134 -0.52969,-0.10694 -0.62415,-0.41194z" fill="#d62c35" stroke="none"/><path d="M238.58693,171.37113c-0.07324,-0.63798 0.37393,-1.21333 0.99879,-1.28506c0.62485,-0.07173 1.15794,0.36123 1.23117,0.99921c0.07324,0.63798 -0.36041,1.33114 -0.98526,1.40288c-0.62485,0.07173 -1.17146,-0.47904 -1.24471,-1.11704z" fill="#eaec6e" stroke="none"/><path d="M239.07521,182.98255c-0.11926,0.31473 -0.28058,0.62596 -0.58109,0.66372c-0.28633,0.03542 -0.37773,-0.87382 -0.37773,-0.87382c0,0 -1.24815,-0.81662 -0.94464,-1.33683c0.31623,-0.21083 1.11043,0.00165 1.59759,0.27289c0.17228,0.09591 0.21671,0.42478 0.21671,0.42478c0,0 0.27973,0.3463 0.08916,0.84926z" data-paper-data="{&quot;index&quot;:null}" fill="#d62c35" stroke="none"/><path d="M239.95094,173.51299c0.17391,-0.26192 0.29816,-0.5396 0.3995,-0.54947c0.09703,-0.00946 0.45372,0.29818 0.84263,0.63278c0.37504,0.32267 0.74468,0.65809 0.74468,0.65809c0,0 -1.02215,0.33331 -1.57715,0.21915c-0.39165,-0.08057 -0.92654,-0.40223 -0.92654,-0.40223c0,0 0.34698,-0.30244 0.51687,-0.55831z" fill="#eaec6e" stroke="none"/><path d="M237.81997,178.98794c0.07937,0.69137 -0.18597,1.28967 -0.59265,1.33636c-0.40669,0.04668 -0.8007,-0.47593 -0.88007,-1.16729c-0.07937,-0.69137 0.18597,-1.28967 0.59265,-1.33635c0.40669,-0.04668 0.80071,0.47592 0.88008,1.16729z" fill="#ffffff" stroke="#000000"/><path d="M240.96583,178.83571c0.0775,0.6751 -0.14319,1.25491 -0.49294,1.29506c-0.34975,0.04015 -0.6961,-0.47457 -0.7736,-1.14966c-0.0775,-0.6751 0.14321,-1.25491 0.49296,-1.29507c0.34975,-0.04015 0.6961,0.47457 0.7736,1.14966z" fill="#ffffff" stroke="#000000"/><path d="M238.83433,181.06494l-0.49013,-0.63012l0.4747,0.40087l0.68417,-0.44439z" fill="#000000" stroke="none"/><g stroke="none"><path d="M236.50135,178.17232c0.33348,-0.03829 0.64999,0.3329 0.70696,0.82904c0.05696,0.49616 -0.1672,0.9294 -0.50069,0.96769c-0.33348,0.03829 -0.64999,-0.3329 -0.70696,-0.82905c-0.05696,-0.49616 0.1672,-0.92939 0.50069,-0.96768z" fill="#003e5b"/><path d="M236.68452,179.76791c0.33348,-0.03829 0.52379,-0.76655 0.52379,-0.76655c0,0 0.06122,0.91124 -0.50069,0.96769c-0.5621,0.05647 -0.70696,-0.82905 -0.70696,-0.82905c0,0 0.35039,0.6662 0.68386,0.62791z" fill="#166997"/></g><path d="M235.8322,179.15265c-0.10114,-1.04183 0.66024,-0.9783 0.66024,-0.9783c0,0 -0.20794,0.31416 -0.13249,0.97733c0.07111,0.62509 0.30407,0.89462 0.30407,0.89462c0,0 -0.74735,-0.02365 -0.83181,-0.89365z" fill="#9ad6ef" stroke="none"/><g stroke="none"><path d="M239.84752,178.07024c0.32293,-0.03708 0.62943,0.32237 0.68459,0.80283c0.05515,0.48046 -0.16192,0.89999 -0.48485,0.93707c-0.32293,0.03708 -0.62943,-0.32236 -0.68459,-0.80282c-0.05515,-0.48046 0.16192,-0.90001 0.48485,-0.93708z" fill="#003e5b"/><path d="M240.01772,179.62144c0.32293,-0.03708 0.50722,-0.74229 0.50722,-0.74229c0,0 0.05928,0.88241 -0.48485,0.93707c-0.54432,0.05468 -0.68459,-0.80282 -0.68459,-0.80282c0,0 0.3393,0.64511 0.66223,0.60804z" fill="#166997"/></g><path d="M239.81571,178.04322c0,0 -0.18547,0.31158 -0.11003,0.97476c0.07111,0.62509 0.29376,0.80476 0.29376,0.80476c0,0 -0.75949,0.0688 -0.84397,-0.80122c-0.10114,-1.04183 0.66024,-0.9783 0.66024,-0.9783z" fill="#9ad6ef" stroke="none"/></g></g></svg>