<svg version="1.1" xmlns="http://www.w3.org/2000/svg" xmlns:xlink="http://www.w3.org/1999/xlink" width="18.81565" height="35.84541" viewBox="0,0,18.81565,35.84541"><g transform="translate(-229.43736,-188.58744)"><g data-paper-data="{&quot;isPaintingLayer&quot;:true}" fill-rule="nonzero" stroke-linejoin="miter" stroke-miterlimit="10" stroke-dasharray="" stroke-dashoffset="0" style="mix-blend-mode: normal"><path d="M242.13289,211.84583c0,0 -0.70952,-1.93396 -1.81763,-4.01095c-0.8174,-1.5321 -0.07304,-3.93097 -0.07304,-3.93097l0.97291,-0.36942c0,0 0.30857,2.93221 0.69304,4.15277c0.56052,1.73027 1.20509,3.74498 1.20509,3.74498z" fill="#fba15d" stroke="none" stroke-width="0" stroke-linecap="butt"/><path d="M238.29403,203.93832c0.23444,-0.43804 0.87069,-0.37286 1.02276,-0.3832c0.12039,-0.00819 0.69348,-0.00197 0.7881,0.07389c0.30679,0.24608 0.68476,1.61563 0.68476,1.61563c0,0 0.45823,1.32873 0.18273,1.72136c-0.339,0.35914 -2.41545,0.39991 -2.56045,0.10433c-0.4244,-0.86517 -0.17805,-3.01938 -0.1179,-3.13201z" data-paper-data="{&quot;index&quot;:null}" fill="#c27e34" stroke="none" stroke-width="0.17188" stroke-linecap="butt"/><path d="M237.85527,194.19521c-0.31189,0.40806 -0.67535,0.29939 -0.83338,0.17856c-0.75714,-0.61932 -1.25883,-1.74761 -1.22564,-2.62526c-0.04109,0.17406 0.25945,-0.82405 1.20634,-0.75729c0.41026,0.01118 1.15349,-0.16393 1.81309,-0.18619l0.6319,0.14334c0.29039,0.06576 0.43752,0.47143 0.28713,0.75345c-0.02221,0.04172 0.22175,-0.06644 0.36106,0.06386c0.25077,0.23455 0.45879,0.77255 0.26436,1.01731c-0.17028,0.21479 -0.16828,0.6299 -0.51558,0.82734c-0.46832,0.26623 -0.28327,-0.40999 -0.71177,-0.32709c-0.2547,0.04913 -1.27036,0.9028 -1.2775,0.91197z" fill="#ffcfea" stroke="none" stroke-width="0.17188" stroke-linecap="butt"/><g data-paper-data="{&quot;index&quot;:null}" stroke="none" stroke-width="0" stroke-linecap="butt"><path d="M245.69556,222.17107c-0.25529,1.43561 -2.80767,1.5908 -2.80767,1.5908c0,0 1.28324,-0.77026 0.14816,-2.61075c-0.81503,-0.97774 -1.48615,-3.29559 -1.48615,-3.29559c0,0 -0.55922,-1.57063 0.4171,-1.10794c0.45447,0.21539 0.91073,0.39506 1.33065,0.62205c0.48216,0.26064 0.91645,0.58369 1.2452,1.09487c0,0 1.40798,2.27094 1.1527,3.70656z" fill="#54c81c"/><path d="M242.12815,224.05919c-0.18818,-0.34671 -0.05968,-0.78033 0.28703,-0.96852c0.34671,-0.18818 0.78034,-0.05968 0.96852,0.28702c0.18818,0.34671 0.05967,0.78035 -0.28704,0.96852c-0.34671,0.18818 -0.78033,0.05966 -0.96852,-0.28704z" fill="#ffffff"/></g><g data-paper-data="{&quot;index&quot;:null}" stroke="none" stroke-width="0" stroke-linecap="butt"><path d="M233.38193,222.04522c-0.3226,-1.42201 0.97689,-3.75673 0.97689,-3.75673c0.30432,-0.52609 0.72291,-0.86923 1.19227,-1.15229c0.40877,-0.24651 0.85606,-0.44746 1.29988,-0.68401c0.95345,-0.50814 0.4688,1.08707 0.4688,1.08707c0,0 -0.56123,2.34687 -1.32932,3.36191c-1.04716,1.8919 0.27093,2.60088 0.27093,2.60088c0,0 -2.55686,-0.03483 -2.87946,-1.45683z" fill="#54c81c"/><path d="M237.03429,223.76327c-0.17166,0.35518 -0.59875,0.50397 -0.95393,0.33232c-0.35519,-0.17165 -0.50397,-0.59875 -0.33232,-0.95393c0.17165,-0.35519 0.59874,-0.50396 0.95393,-0.33231c0.35519,0.17166 0.50397,0.59875 0.33232,0.95393z" fill="#ffffff"/></g><path d="M239.8852,215.27482l-1.0656,-6.08488l1.55012,0.00007c0,0 0.15593,4.28861 1.01577,6.14361c0.25423,0.59603 2.13741,3.20703 2.13741,3.20703c0,0 1.16933,2.03836 1.21309,2.67237c0.05568,0.80649 -1.03027,0.22689 -1.25521,-0.05436c0,0 -0.63155,-1.21527 -1.05643,-1.95808c-0.62809,-1.09806 -2.53914,-3.92574 -2.53914,-3.92574z" fill="#ffffff" stroke="none" stroke-width="0" stroke-linecap="butt"/><path d="M238.08099,214.94378c0,0 -1.06359,2.51639 -1.45435,3.57089c-0.32122,0.86683 -0.62416,2.26242 -0.98785,2.74238c-0.36369,0.47998 -1.04139,0.86436 -1.16074,0.0648c-0.09382,-0.62855 0.97875,-2.99725 0.97875,-2.99725c0,0 1.35628,-3.23462 1.47615,-3.87142c0.44008,-1.99664 0.45912,-5.67588 0.45912,-5.67588l1.51372,-0.33396l-0.8248,6.50045z" data-paper-data="{&quot;index&quot;:null}" fill="#ffffff" stroke="none" stroke-width="0" stroke-linecap="butt"/><path d="M237.32771,213.68674c0,0.10516 -0.77258,1.62259 -0.71918,2.37063c0.0175,0.24517 -1.33989,0.50234 -2.18943,0.51508c-0.84955,0.01273 -2.21334,-0.53366 -2.21334,-0.53366l0.38892,-0.79746l3.09193,0.33373z" data-paper-data="{&quot;index&quot;:null}" fill="#54c81c" stroke="none" stroke-width="0.17188" stroke-linecap="butt"/><path d="M236.62785,213.1056c-0.00969,-0.58517 2.68388,-0.19714 2.68388,0.05723c0,0.10516 -0.11452,2.35532 -0.06112,3.10325c0.03138,0.43948 -0.46248,1.44923 -1.14394,2.04748c-0.68146,0.59825 -3.84381,1.20334 -3.84381,1.20334c0,0 0.75853,-0.9456 1.13716,-1.61822c0.37863,-0.67262 0.89531,-1.28089 0.86591,-1.94017z" data-paper-data="{&quot;index&quot;:null}" fill="#54c81c" stroke="none" stroke-width="0.17188" stroke-linecap="butt"/><path d="M234.7401,214.4256c0.50663,-0.40217 0.33148,-0.04932 1.05946,-1.17733c0.72798,-1.12802 0.70087,-3.57203 1.98561,-5.16403c0.35568,0.86729 -0.41326,3.898 -0.59476,4.95584c-0.1815,1.05784 -0.53403,1.56951 -0.64249,2.17924c-0.11717,0.65807 -2.10334,0.34619 -3.35908,0.21648c-1.25574,-0.12971 1.04463,-0.60803 1.55126,-1.0102z" data-paper-data="{&quot;index&quot;:null}" fill="#ffffff" stroke="none" stroke-width="0.17188" stroke-linecap="butt"/><path d="M238.903,207.08735c0.51791,0.09739 1.70063,-0.01206 1.74283,0.33483c0.05699,0.46849 -0.01341,2.06698 -0.28671,3.35214c-0.27331,1.28516 -0.81486,3.67852 -0.92333,4.28824c-0.11717,0.65808 -0.55277,0.10419 -0.74504,0.44203c-0.3929,0.69132 -2.11945,1.17924 -2.48647,1.17924c-0.38376,0 0.30104,-1.03972 0.33902,-1.60658c0.03798,-0.56686 0.19974,-0.46821 0.19974,-1.70925c0,-1.25414 0.1254,-1.60016 0.3311,-2.57856c0,0 0.32061,-2.19715 0.75899,-2.84453c0,0 0.88832,-0.8917 1.06987,-0.85756z" data-paper-data="{&quot;index&quot;:null}" fill="#ffffff" stroke="none" stroke-width="0.17188" stroke-linecap="butt"/><path d="M239.15417,215.37163c-0.01497,-0.67002 2.22071,-0.36947 2.22071,-0.07813c0,0.12034 2.73429,0.38509 3.3844,0.6736c0.65012,0.2885 1.84606,1.45427 1.84606,1.45427l-2.80734,0.3115c0,0 -1.63325,-0.02504 -2.6103,-0.34291c-0.97705,-0.31787 -1.9616,-1.11739 -1.9616,-1.11739z" data-paper-data="{&quot;index&quot;:null}" fill="#54c81c" stroke="none" stroke-width="0.17188" stroke-linecap="butt"/><g data-paper-data="{&quot;index&quot;:null}" stroke="none" stroke-linecap="butt"><path d="M247.05376,214.03177c0.04051,0.77199 -4.67408,0.93179 -5.04534,0.26347c-0.9395,-1.68236 -1.89284,-7.21328 -1.57271,-7.34164c0.94315,-0.31021 1.94014,2.55911 3.03717,4.29068c0.5623,0.88754 3.37675,2.17995 3.58089,2.78748z" data-paper-data="{&quot;index&quot;:null}" fill="#ffffff" stroke-width="0.19137"/><path d="M243.46698,214.19272c0.73625,-0.16713 3.26615,-0.64231 3.26615,-0.64231l1.51988,0.91407c0,0 -4.27953,1.39699 -4.52714,1.08647c-0.57115,-0.71694 -1.93151,-1.44993 -1.97648,-1.7014c-0.06451,-0.36068 0.48148,0.34362 1.21759,0.17652z" data-paper-data="{&quot;index&quot;:null}" fill="#54c81c" stroke-width="0.17188"/></g><path d="M240.01763,207.08299c0.19308,0.00362 0.26425,-0.27439 0.41509,-0.0151c0.16358,0.2812 0.31395,0.65975 0.47634,1.02072c0.31212,0.69381 1.01721,2.77745 1.33473,4.08856c0.11284,0.46597 2.19277,3.57869 2.86126,4.43616c0.26878,0.34476 -1.1691,0.11878 -1.9932,0.05813c-0.82411,-0.06064 -1.53216,-0.31755 -1.53216,-0.31755c0,0 -0.87492,-0.25271 -1.35397,-0.59052c-0.47905,-0.33782 -0.94045,0.22607 -0.94045,-1.19411c0,-1.4353 -0.00886,-4.00791 0.08643,-4.96529c0.0646,-0.64902 0.03447,-1.79063 0.18612,-2.45525c0.07205,-0.31578 0.27604,-0.06932 0.45982,-0.06575z" data-paper-data="{&quot;index&quot;:null}" fill="#ffffff" stroke="none" stroke-width="0.17188" stroke-linecap="butt"/><g><path d="M238.56666,197.54273c0.25641,0.03836 0.46469,0.2193 0.67658,0.35534c0.7448,0.53553 1.43351,1.14323 2.12665,1.74353c0.29793,0.23057 0.42831,0.60905 0.45597,0.97326c0.02346,0.39137 -0.17479,0.75131 -0.30206,1.11049c-0.21657,0.54774 -0.5077,1.06317 -0.87666,1.52204c-0.42369,0.58803 -1.03952,1.27127 -1.75329,1.5343c-0.41556,0.23229 -0.36728,0.18427 -0.77602,0.43921c-0.9317,0.42518 -2.01956,0.40195 -2.97906,0.07985c-0.57645,-0.18861 -1.13112,-0.47848 -1.57891,-0.89163c-0.09517,-0.09827 -3.28151,-2.85354 -1.02312,-5.62562c2.77613,-3.40757 5.90984,-1.22765 6.02992,-1.24077z" data-paper-data="{&quot;index&quot;:null}" fill="#f0e9bb" stroke="none" stroke-width="0.17188" stroke-linecap="butt"/><path d="M230.33216,201.59563c0.65205,-0.18662 1.77917,3.06961 1.58213,2.54075c-0.6299,0.25552 -1.44975,0.19866 -1.96171,-0.01362c-0.04687,-0.01942 -0.12207,-0.14715 -0.12207,-0.14715c-0.03397,0.08459 -0.05195,-0.07334 -0.12139,-0.13537c-0.05465,-0.04877 -0.22503,-0.07734 -0.22503,-0.07734c-0.00067,0.04972 0.03134,-0.19187 0.01603,-0.30034c-0.01259,-0.08962 -0.06299,-0.08955 -0.06276,-0.15587c0.0005,-0.46631 0.26711,-1.06629 0.89481,-1.71108z" data-paper-data="{&quot;index&quot;:null}" fill="#ed3e67" stroke="none" stroke-width="0.17188" stroke-linecap="butt"/><path d="M238.37132,197.59586c-0.10225,-0.00976 -0.20889,0.04534 -0.37403,0.11796c-0.1242,0.05449 -0.36572,0.15994 -0.46574,0.17925c-0.2511,0.04846 -0.69674,0.70222 -0.6085,0.70884c0.05519,0.11602 -0.24313,-0.1855 -0.06924,1.23434l0.18556,1.51192c0.01701,0.13912 0.09102,0.69562 -0.00901,1.0215c-0.10751,0.35028 -0.37546,0.78947 -0.45929,0.78536c0,0 -0.64911,-0.07529 -0.93727,-0.04774c-0.10956,0.01048 0.03928,0.10986 0.26828,0.18546c0.03784,0.01255 0.63274,0.16729 0.647,0.1906c0.0765,0.12575 -2.03972,-0.00747 -2.15555,-0.01569l-0.71491,-0.0515c-0.24114,-0.01724 -0.27698,0.20882 -0.34542,0.26497c-0.10292,0.08429 -0.06489,0.20903 0.03347,0.29177c0.12428,0.10483 0.65952,0.5088 0.73151,0.57637c0.38152,0.35749 1.11418,0.54509 1.79252,0.86641c0.39679,0.18789 2.66965,-0.30965 2.28633,-0.31521c-0.17301,-0.00259 0.75239,0.68292 0.6978,1.00863c-0.03878,0.23258 -2.12335,-0.01401 -2.50161,-0.1577l-2.16019,-0.81998c-0.63265,-0.23995 -1.92903,-1.59085 -2.14344,-1.86519l-0.41894,-0.53593c-0.42333,-0.7318 -0.69314,-1.53041 -0.78568,-2.40612c-0.00591,-0.05577 -0.20427,-0.94802 0.13757,-2.02569c0.21583,-0.68058 0.85438,-1.6153 0.90592,-1.68763c0.30229,-0.42419 0.87901,-1.26151 1.59206,-1.89005c0.45357,-0.39983 1.00136,-0.65062 1.44281,-0.86491c0.07925,-0.03859 0.40028,1.23729 0.47315,1.19785c0.03528,-0.01923 0.66862,0.72819 0.74706,0.77476l0.52367,0.31113c0.52942,0.31449 1.36537,0.23556 1.4904,0.2025c0.17121,-0.04512 0.72476,-0.22788 0.82208,-0.35364l0.3284,-0.42356c0.04482,-0.05815 0.04913,-0.84904 0.11555,-0.86332c0.23413,-0.05023 0.92933,0.56948 1.05488,0.70655l0.66084,0.72127c0.21281,0.23237 0.3438,0.34845 0.57207,0.75651c0.31342,0.55975 0.62458,1.12106 0.80673,1.77388c0.14731,0.52755 0.16102,2.56577 0.05445,2.44946l-0.90759,-0.98795l-1.36804,-1.27934l-1.94564,-1.24612z" data-paper-data="{&quot;index&quot;:null}" fill="#54c81c" stroke="none" stroke-width="0.17188" stroke-linecap="butt"/><path d="M239.45599,193.54477c-0.31493,1.00689 -2.76558,0.81804 -2.76558,0.81804c-0.30393,-0.22272 -0.38018,-1.42117 0.3259,-2.20499c0.53976,-0.59898 1.06633,-0.86313 1.4914,-0.87755c0.06068,-0.00206 0.06447,0.04456 0.14724,0.05365c0.10011,0.0108 0.31795,-0.02591 0.27261,-0.02385c0,0 0.03922,0.15675 0.08785,0.20572c0.06184,0.06235 0.20751,0.07416 0.13293,0.10808c0,0 0.12238,0.06567 0.14368,0.10847c0.23323,0.46695 0.34829,1.22283 0.16397,1.81248z" data-paper-data="{&quot;index&quot;:null}" fill="#ed3e67" stroke="none" stroke-width="0.17188" stroke-linecap="butt"/><path d="M236.77891,195.3798c0.11024,-0.03777 -0.41093,-0.29882 -0.78694,-0.73456c-0.40156,-0.46524 -0.65525,-1.11854 -0.37411,-1.55163c0.16241,-0.25003 0.39664,-0.40907 0.60302,-0.56918c0.42569,-0.33034 0.81086,-0.49941 0.75992,-0.31126c-0.08634,0.31936 -0.14138,0.77004 -0.1469,1.09413c-0.00797,0.46214 0.01337,0.77863 0.04088,0.77588l1.76824,-0.17764l0.85294,-0.369c0.1344,-0.06673 0.10993,0.35674 0.00606,0.77911c-0.08952,0.36467 -0.05882,0.6865 -0.1011,0.80668c-0.18748,0.53564 -0.34951,0.32871 -1.00228,0.63816c-0.37961,0.17989 -1.78558,-0.32414 -1.61971,-0.38068z" data-paper-data="{&quot;index&quot;:null}" fill="#54c81c" stroke="none" stroke-width="0.17188" stroke-linecap="butt"/><path d="M236.3107,195.95921c-1.01765,-0.78079 -1.88603,-2.06237 -1.03043,-2.52325c0.35873,-0.19335 0.22045,0.40653 0.66517,1.0821c0.28302,0.42992 0.8615,0.89304 1.76402,1.19311c0.09474,0.03134 0.33851,0.01205 0.66109,-0.02248c0.49443,-0.05277 1.14484,-1.2818 1.12155,-1.03407l-0.09131,0.96744l-0.43575,0.41163c-0.20023,0.31822 -1.72311,0.63988 -2.65432,-0.07449z" data-paper-data="{&quot;index&quot;:null}" fill="#ead32e" stroke="none" stroke-width="0.17188" stroke-linecap="butt"/><path d="M231.23982,201.81172c0.16894,0.21909 0.30788,0.71309 0.30788,0.71309c-0.12944,-0.04281 -0.22821,-0.26805 -0.32423,-0.33425c-0.22201,-0.15301 -0.64017,-0.69584 -0.72055,-1.35232l-0.04561,-0.37331c-0.02254,-0.18383 0.16492,-0.65911 0.27153,-0.70027c0.19123,-0.00306 0.09907,0.67608 0.30155,1.31989c0.09707,0.30862 0.20945,0.72719 0.20945,0.72719z" data-paper-data="{&quot;index&quot;:null}" fill="#ead32e" stroke="none" stroke-width="0.17188" stroke-linecap="butt"/><path d="M231.08806,201.88575c0.0763,0.12769 0.49774,0.69532 0.71215,0.96648l0.84496,1.06872c0.06217,0.07862 -0.80804,0.3497 -1.01485,0.1335c-0.34515,-0.09395 -0.51279,-0.35005 -0.72894,-0.56149c-0.17987,-0.30844 -0.38035,-0.78778 -0.41978,-1.03884c-0.03174,-0.20221 -0.50415,-0.33811 -0.585,-0.55119c-0.12189,-0.3207 0.51921,-1.14122 0.51921,-1.14122z" data-paper-data="{&quot;index&quot;:null}" fill="#54c81c" stroke="none" stroke-width="0.17188" stroke-linecap="butt"/><path d="M239.44816,203.3245c-0.33755,0.60498 -0.7026,0.81992 -0.7026,0.81992c0,0 -0.52757,-0.54068 0.21842,-1.9615c0.18826,-0.35858 1.15586,-0.50159 1.15586,-0.50159c0,0 -0.33413,1.03819 -0.67169,1.64316z" fill="none" stroke="#dfcfa3" stroke-width="0.36953" stroke-linecap="round"/><path d="M238.45797,201.07981c-0.17184,0.05187 -0.35318,-0.04537 -0.40505,-0.21721c-0.05187,-0.17184 0.04536,-0.35318 0.2172,-0.40506c0.17183,-0.05186 0.35318,0.04537 0.40505,0.21721c0.05187,0.17184 -0.04536,0.35318 -0.2172,0.40506z" fill="#ffffff" stroke="none" stroke-width="0" stroke-linecap="butt"/><path d="M235.73318,204.84962c-0.17184,0.05187 -0.35318,-0.04537 -0.40505,-0.21721c-0.05187,-0.17184 0.04536,-0.35318 0.2172,-0.40506c0.17183,-0.05186 0.35318,0.04537 0.40505,0.21721c0.05187,0.17184 -0.04536,0.35318 -0.2172,0.40506z" fill="#ffffff" stroke="none" stroke-width="0" stroke-linecap="butt"/><path d="M238.84968,200.36689c0.05186,0.17183 -0.04538,0.35318 -0.21721,0.40505c-0.17183,0.05186 -0.35318,-0.04538 -0.40505,-0.21721c-0.05186,-0.17184 0.04538,-0.35318 0.21721,-0.40505c0.17183,-0.05187 0.35319,0.04537 0.40506,0.2172z" fill="#000000" stroke="none" stroke-width="0" stroke-linecap="butt"/><path d="M235.50008,205.135c-0.17184,0.05187 -0.35318,-0.04537 -0.40505,-0.21721c-0.05187,-0.17184 0.04536,-0.35318 0.2172,-0.40506c0.17183,-0.05186 0.35318,0.04537 0.40505,0.21721c0.05187,0.17184 -0.04536,0.35318 -0.2172,0.40506z" fill="#000000" stroke="none" stroke-width="0" stroke-linecap="butt"/></g><g stroke="none" stroke-width="0" stroke-linecap="butt"><path d="M236.91177,205.83621c-0.19848,-0.47342 0.91522,-0.8653 2.00897,-1.32387c1.09376,-0.45856 1.81247,-1.26474 2.01095,-0.79132c0.03537,0.08437 0.11056,0.11425 -0.0352,0.39232c-0.08103,0.15457 0.41523,0.00309 0.29267,0.18897c-0.27617,0.41881 -1.53278,0.72862 -2.02058,0.93314c-0.40394,0.16935 -1.59929,1.06953 -1.99266,0.98113c-0.2361,-0.05306 0.36575,-0.29752 0.1949,-0.34258c-0.31526,-0.08313 -0.42854,0.03495 -0.45904,-0.03778z" fill="#ffe340"/><path d="M237.97139,204.94616c-0.02724,-0.06497 0.28621,-0.05872 0.99123,-0.44324c0.43856,-0.23919 0.96902,-0.54514 0.99626,-0.48016c0.02724,0.06496 -1.59873,1.08309 -1.84623,1.1979c-0.24751,0.11482 -0.11403,-0.20953 -0.14127,-0.2745z" fill="#000000"/></g><g data-paper-data="{&quot;index&quot;:null}" stroke="none" stroke-width="0.17188" stroke-linecap="butt"><path d="M240.26799,203.97152c0.01817,-1.07889 -0.02603,-1.81967 -0.01374,-3.47185c0.01228,-1.65217 -0.03712,-2.80412 0.0701,-4.10054c0.03552,-0.42864 0.15153,-0.27918 0.59518,-0.2823c0.57316,-0.00517 1.41277,0.08291 1.60817,0.61025c0.29699,0.80266 -0.30337,2.98169 -0.33677,3.8587c-0.05314,1.38767 -1.01977,4.53 -1.35077,4.80379c-0.14279,0.1182 -0.58598,-0.59864 -0.57216,-1.41804z" fill="#c27e34"/><path d="M241.6399,194.98959c-0.00714,-0.00917 -1.02279,-0.86282 -1.2775,-0.91197c-0.42851,-0.08289 -0.24346,0.59331 -0.71177,0.32709c-0.3473,-0.19743 -0.3453,-0.61255 -0.51558,-0.82734c-0.19443,-0.24477 0.01358,-0.78276 0.26436,-1.01731c0.13933,-0.1303 0.38329,-0.02214 0.36106,-0.06386c-0.15039,-0.282 -0.00326,-0.68769 0.28712,-0.75345l0.6319,-0.14334c0.6596,0.02226 1.40281,0.19738 1.81309,0.18619c0.94691,-0.06675 1.24743,0.93136 1.20635,0.75729c0.03319,0.87764 -0.46849,2.00593 -1.22564,2.62526c-0.15802,0.12083 -0.52149,0.2295 -0.83338,-0.17856z" fill="#ffcfea"/></g><path d="M240.12636,196.36957c-0.43194,-0.18369 -0.40394,-0.30087 -0.45576,-0.51599c-0.11979,-0.49687 0.04574,-1.16348 0.05803,-1.66347c0.01167,-0.47059 0.09393,-0.33557 0.25868,-0.46795c0.238,-0.19169 0.76068,-0.1264 1.25285,-0.07156c0.49218,0.05484 1.29395,0.31794 1.33,0.32917c0,0 0.18202,0.75044 0.20893,1.24393c0.02692,0.49349 0.19009,0.5053 -0.06108,1.08154c-0.22313,0.30416 -0.85051,0.22614 -1.42132,0.23981c-0.5708,0.01368 -0.73838,0.00818 -1.17032,-0.17551z" fill="#fca03b" stroke="none" stroke-width="0.17188" stroke-linecap="butt"/><g stroke="none" stroke-width="0" stroke-linecap="butt"><path d="M232.2375,202.70541c0,-0.1312 -0.00634,-0.54737 0.07267,-0.70304c0.10351,-0.20394 0.33404,-0.36588 0.38651,-0.36588c0.04756,0 0.04358,0.24885 -0.039,0.4603c-0.05457,0.13973 -0.19435,0.21225 -0.19435,0.36774c0,0.17322 0.29634,0.61635 0.3512,0.83815c0.02132,0.08617 -0.10478,0.36216 -0.27095,0.56116c-0.17565,0.21035 -0.39252,0.34173 -0.39252,0.34173l-0.4179,-0.25058l0.88536,-0.44134c0,0 -0.07341,-0.08763 -0.16509,-0.26003c-0.09858,-0.18537 -0.21592,-0.45935 -0.21592,-0.54821z" fill="#671829"/><path d="M232.71928,202.07311c0,-0.13304 0.07594,-0.42155 0.18819,-0.42155c0.11225,0 0.33874,0.10784 0.33874,0.24088c0,0.03037 -0.52918,0.99963 -0.04094,1.1834c0.23623,0.08891 0.52777,-0.56972 0.52777,-0.56972l0.15302,0.31974c0,0 -0.39385,0.50075 -0.7466,0.32488c-0.50979,-0.25417 -0.42018,-1.00865 -0.42018,-1.07764z" fill="#671829"/><path d="M233.6718,201.33393c0,0 0.01722,0.12389 -0.16582,0.12389c-0.04263,0 0.2136,-0.00026 0.29188,0.1276c0.08742,0.1428 0.00082,0.40034 -0.08428,0.43587c-0.09136,0.03814 -0.30509,-0.00432 -0.46037,-0.10993c-0.22596,-0.15369 -0.39482,-0.33866 -0.39482,-0.38171c0,-0.14325 0.38684,-0.55167 0.57231,-0.56048c0.09422,-0.00447 0.2411,0.36477 0.2411,0.36477z" fill="#804046"/><path d="M231.87669,201.42426c-0.02155,-0.05636 0.14688,-0.39935 0.2411,-0.39488c0.18547,0.00881 0.82825,0.40218 0.82825,0.54543c0,0.04305 -0.16886,0.10758 -0.39482,0.26126c-0.15528,0.10561 -0.46037,0.24542 -0.46037,0.24542l-0.15956,-0.42081l0.27683,-0.05232c0,0 -0.29055,-0.07723 -0.33143,-0.1841z" data-paper-data="{&quot;index&quot;:null}" fill="#804046"/><path d="M232.84724,201.35797c0.08731,0 0.15808,0.07583 0.15808,0.16937c0,0.09354 -0.07077,0.16937 -0.15808,0.16937c-0.08731,0 -0.15808,-0.07583 -0.15808,-0.16937c0,-0.09354 0.07077,-0.16937 0.15808,-0.16937z" fill="#671829"/></g><path d="M240.65908,212.10289c0,0 0.37813,-2.4127 0.16152,-3.56857c-0.2363,-1.26093 -0.02275,-3.11147 -0.02275,-3.11147l0.67154,-1.56535c0,0 0.40164,2.54951 0.74843,3.7813c0.26747,0.95003 -0.18114,3.90167 -0.18114,3.90167z" fill="#fba15d" stroke="none" stroke-width="0" stroke-linecap="butt"/><g stroke-width="0" stroke-linecap="butt"><path d="M230.81424,200.51028c0,0 -0.81042,-1.38869 -1.12246,-2.85633c-0.25704,-1.20896 0.20443,-3.90151 0.39145,-4.66775c0.1823,-0.74689 2.4914,-4.33205 6.06103,-4.39817c5.86113,-0.05293 8.29629,3.47423 8.29629,3.47423c0,0 -2.9471,-1.10724 -5.06609,-1.55677c-0.50054,-0.10619 -1.55003,0.06283 -2.36286,0.3361c-1.06454,0.35789 -1.29706,0.69251 -1.71461,1.61372c-0.41756,0.92121 0.22049,1.5256 0.22049,1.5256c0,0 -1.89316,1.4211 -2.64611,2.46639c-0.81055,1.12526 -2.05715,4.06297 -2.05715,4.06297z" fill="#c27e34" stroke="none"/><g><path d="M243.81807,192.58993c-0.37866,-0.29455 -0.44684,-0.8403 -0.15228,-1.21895c0.29455,-0.37866 0.8403,-0.44684 1.21896,-0.15228c0.37866,0.29455 0.44683,0.84029 0.15228,1.21895c-0.29455,0.37866 -0.8403,0.44684 -1.21895,0.15229z" fill="#db7b04" stroke="none"/><path d="M244.91357,191.13156c0.13011,0.10121 -0.21475,0.45516 -0.49965,0.8214c-0.2849,0.36624 -0.48009,0.80018 -0.6102,0.69897c-0.19817,-0.15416 0.04832,-0.54821 0.33321,-0.91444c0.2849,-0.36624 0.55579,-0.77773 0.77664,-0.60592z" fill="#feeb00" stroke="#000000"/><path d="M245.01146,192.35538c0.14299,0.11122 -0.00804,0.12319 -0.06365,0.19469c-0.05562,0.07149 -0.4334,-0.05653 -0.57638,-0.16776c-0.14299,-0.11122 0.03828,-0.20891 0.0939,-0.2804c0.05562,-0.07149 0.40315,0.14224 0.54614,0.25347z" fill="#000000" stroke="none"/><path d="M244.87729,191.58373c0.02924,-0.03759 0.03338,-0.1561 0.13361,-0.07813c0.10023,0.07797 0.23594,0.30526 0.20669,0.34286c-0.02925,0.0376 -0.11152,0.0225 -0.21175,-0.05548c-0.10023,-0.07797 -0.1578,-0.17165 -0.12856,-0.20924z" fill="#000000" stroke="none"/></g></g></g></g></svg>