<svg version="1.1" xmlns="http://www.w3.org/2000/svg" xmlns:xlink="http://www.w3.org/1999/xlink" width="21.52617" height="40.32944" viewBox="0,0,21.52617,40.32944"><g transform="translate(-230.37546,-159.17155)"><g data-paper-data="{&quot;isPaintingLayer&quot;:true}" fill-rule="nonzero" stroke-linejoin="miter" stroke-miterlimit="10" stroke-dasharray="" stroke-dashoffset="0" style="mix-blend-mode: normal"><g data-paper-data="{&quot;index&quot;:null}"><g data-paper-data="{&quot;index&quot;:null}" stroke="none" stroke-width="0" stroke-linecap="butt"><path d="M243.35514,199.07654c-1.54536,-0.81075 -2.0949,-4.65627 -2.0949,-4.65627c-0.10655,-0.55923 -0.02372,-1.05752 0.13046,-1.54383c0.13429,-0.42354 0.32269,-0.83798 0.48725,-1.2757c0.35351,-0.94027 0.97978,0.48966 0.97978,0.48966c0,0 1.02642,2.01162 1.10677,3.20038c0.19304,1.0064 0.51955,4.37801 -0.60936,3.78574z" data-paper-data="{&quot;index&quot;:null}" fill="#54c81c"/><path d="M242.61664,189.04512c0,0 0.32802,3.39708 0.5433,4.64365c0.14564,0.84327 0.4329,2.18236 0.4329,2.18236c0.00575,0.36009 -0.46217,1.49863 -0.93299,0.84147c-0.37011,-0.51662 -0.76712,-2.83278 -0.76712,-2.83278c0,0 -0.48291,-4.14546 -0.66659,-4.76687c-0.51879,-1.97769 -0.77955,-5.59049 -0.77955,-5.59049l1.46633,-0.05432l0.70373,5.57696z" data-paper-data="{&quot;index&quot;:null}" fill="#ffffff"/></g><path d="M242.41597,196.81756l0.30112,-0.40549" fill="none" stroke="#000000" stroke-width="0.5" stroke-linecap="round"/><path d="M242.1285,195.84917l0.23046,-0.39505" fill="none" stroke="#000000" stroke-width="0.5" stroke-linecap="round"/></g><g data-paper-data="{&quot;index&quot;:null}"><g data-paper-data="{&quot;index&quot;:null}" stroke="none" stroke-width="0" stroke-linecap="butt"><path d="M237.18231,199.43126c-1.12784,0.59435 -0.80747,-2.77788 -0.61628,-3.78463c0.07817,-1.18889 1.1009,-3.20239 1.1009,-3.20239c0,0 0.62367,-1.43108 0.9789,-0.49144c0.16536,0.43741 0.3545,0.85151 0.48958,1.27479c0.15507,0.48601 0.23882,0.98417 0.13329,1.5436c0,0 -0.54251,3.84651 -2.0864,4.66008z" data-paper-data="{&quot;index&quot;:null}" fill="#54c81c"/><path d="M237.83998,189.39851l0.69354,-5.57823l1.46642,0.05164c0,0 -0.25418,3.6133 -0.76934,5.59191c-0.18256,0.62174 -0.6579,4.76806 -0.6579,4.76806c0,0 -0.39279,2.31688 -0.76195,2.83418c-0.4696,0.65803 -0.93961,-0.47966 -0.93451,-0.83976c0,0 0.28482,-1.33964 0.42891,-2.18316c0.213,-1.24693 0.53481,-4.64463 0.53481,-4.64463z" data-paper-data="{&quot;index&quot;:null}" fill="#ffffff"/></g><path d="M238.66235,196.04704l-0.37254,-0.41526" fill="none" stroke="#000000" stroke-width="0.5" stroke-linecap="round"/><path d="M238.23532,196.99532l-0.30186,-0.40494" fill="none" stroke="#000000" stroke-width="0.5" stroke-linecap="round"/></g><g data-paper-data="{&quot;index&quot;:null}"><g><path d="M241.00188,168.52786c4.40721,1.1242 3.65518,4.24416 3.78301,4.47694c0.06508,0.26044 -0.02529,0.53141 -0.07131,0.78804c-0.21654,0.92477 -0.52437,1.82455 -0.82338,2.72564c-0.10226,0.37641 -0.41247,0.65129 -0.74978,0.82229c-0.36495,0.17773 -0.78783,0.131 -1.18184,0.15183c-0.60976,0.01026 -1.2182,-0.06359 -1.80343,-0.23434c-0.73048,-0.17181 -1.62824,-0.48958 -2.16303,-1.0678c-0.38706,-0.30521 -0.32197,-0.2781 -0.72798,-0.56781c-0.77635,-0.72226 -1.18584,-1.7718 -1.25859,-2.81719c-0.04838,-0.62611 0.00869,-1.27158 0.22609,-1.86376c0.10623,-0.24574 1.1169,-3.34571 4.77023,-2.41381z" data-paper-data="{&quot;index&quot;:null}" fill="#f0e9bb" stroke="none" stroke-width="0.17188" stroke-linecap="butt"/><path d="M237.64128,166.73853c0.43723,0.54949 -2.2294,2.91957 -1.80186,2.52126c-0.49432,-0.50097 -0.7653,-1.30756 -0.76547,-1.88139c-0.00004,-0.05255 0.09228,-0.17514 0.09228,-0.17514c-0.09439,0.0011 0.04952,-0.07879 0.08129,-0.1698c0.02494,-0.07161 -0.01534,-0.24589 -0.01534,-0.24589c-0.04781,0.01909 0.19592,-0.04616 0.29357,-0.10385c0.08068,-0.04761 0.06063,-0.09579 0.12415,-0.12188c0.44612,-0.18458 1.1257,-0.1677 1.99142,0.17667z" data-paper-data="{&quot;index&quot;:null}" fill="#ed3e67" stroke="none" stroke-width="0.17188" stroke-linecap="butt"/><path d="M244.65652,172.83908c-0.03124,-0.10163 -0.12627,-0.18175 -0.26124,-0.31086c-0.1014,-0.09714 -0.29811,-0.28626 -0.35625,-0.37425c-0.14599,-0.22087 -1.06387,-0.46686 -2.01882,-0.29409c-0.95493,0.17274 -1.79794,1.38468 -1.93863,1.12004c-0.05349,-0.10064 -0.49876,-0.77339 -0.48017,-0.52439c0.00302,0.04116 -0.41288,0.20554 -0.42952,0.22844c-0.04486,0.06142 -0.5746,-1.22816 -0.88985,-1.5601c-0.31525,-0.33193 -1.267,-0.75843 -1.34787,-0.80161c-0.12145,-0.06498 -0.22565,0.0209 -0.26574,0.14781c-0.0509,0.16047 -0.63076,2.15007 -0.47443,3.10007c0.15634,0.94998 1.35555,2.43012 1.20875,2.06133c-0.06618,-0.16648 -0.90259,1.26865 -1.23575,1.3457c-0.2378,0.05522 -1.29658,-2.09699 -0.65598,-4.78292c0.30439,-1.27627 1.04485,-2.81732 1.22211,-3.13124l0.34624,-0.61332c0.53184,-0.69526 1.18847,-1.27019 1.98918,-1.70621c0.05099,-0.02779 0.82553,-0.57156 1.99176,-0.67234c0.7365,-0.06369 1.88377,0.17601 1.9734,0.1966c0.52562,0.12074 1.55522,0.33996 2.43927,0.77243c0.56234,0.27508 1.01956,0.69941 1.39968,1.03653c0.06835,0.06046 -1.02437,0.8738 -0.95773,0.92785c0.03239,0.0261 -0.43103,0.9284 -0.44445,1.02188l-0.0897,0.62426c-0.09064,0.63108 0.31658,1.39918 0.39782,1.50562c0.11111,0.14583 0.50554,0.60267 0.66442,0.64582l0.53537,0.14595c0.0734,0.01978 0.83145,-0.28996 0.87145,-0.2321c0.14095,0.20396 -0.17578,1.11472 -0.25702,1.28917l-0.4275,0.9182c-0.13777,0.29573 -0.19679,0.46706 -0.49643,0.84728c-0.41093,0.52185 -0.82422,1.04217 -1.37622,1.47544c-0.44605,0.35022 -2.38974,1.1722 -2.3208,1.02413l0.5846,-1.25997l0.68054,-1.81598l0.41954,-2.35514z" data-paper-data="{&quot;index&quot;:null}" fill="#54c81c" stroke="none" stroke-width="0.17188" stroke-linecap="butt"/><path d="M248.961,172.26869c-1.08785,0.09842 -1.87978,-2.32009 -1.87978,-2.32009c0.09238,-0.37903 1.2082,-0.92754 2.23797,-0.56338c0.78702,0.27848 1.24858,0.67721 1.43107,1.07797c0.02605,0.0572 -0.01704,0.07934 0.00713,0.16208c0.0294,0.10002 0.15095,0.29378 0.13101,0.25123c0,0 -0.13431,0.09971 -0.16185,0.16565c-0.03508,0.08389 0.01143,0.22789 -0.0506,0.17002c0,0 -0.01423,0.14309 -0.04671,0.18044c-0.35399,0.40835 -1.03118,0.81836 -1.6682,0.87609z" data-paper-data="{&quot;index&quot;:null}" fill="#ed3e67" stroke="none" stroke-width="0.17188" stroke-linecap="butt"/><path d="M246.14386,170.43682c0.07988,0.09043 0.12269,-0.51157 0.39017,-1.04406c0.28556,-0.56863 0.80961,-1.07049 1.33536,-0.97352c0.30355,0.05608 0.54859,0.21697 0.78361,0.3508c0.48484,0.27599 0.79938,0.57723 0.59923,0.60319c-0.33967,0.04418 -0.79251,0.1704 -1.10461,0.29373c-0.44512,0.17578 -0.7393,0.32181 -0.72575,0.347l0.87161,1.62047l0.69135,0.66923c0.11715,0.10204 -0.29754,0.24671 -0.74267,0.31497c-0.38427,0.05912 -0.67985,0.21618 -0.81155,0.22345c-0.58662,0.03327 -0.45304,-0.20379 -1.00801,-0.70523c-0.32268,-0.29162 -0.39863,-1.8362 -0.27874,-1.70001z" data-paper-data="{&quot;index&quot;:null}" fill="#54c81c" stroke="none" stroke-width="0.17188" stroke-linecap="butt"/><path d="M245.40396,170.21902c0.3428,-1.28301 1.22379,-2.62204 2.00407,-1.98675c0.32727,0.26633 -0.30126,0.37213 -0.77084,1.06551c-0.29885,0.44127 -0.51215,1.17826 -0.44094,2.16043c0.00762,0.10303 0.12282,0.32849 0.28386,0.62328c0.24667,0.45187 1.6801,0.58614 1.43394,0.66218l-0.9614,0.29662l-0.56658,-0.25336c-0.38376,-0.06521 -1.29573,-1.39388 -0.98212,-2.56789z" data-paper-data="{&quot;index&quot;:null}" fill="#ead32e" stroke="none" stroke-width="0.17188" stroke-linecap="butt"/><path d="M237.79483,167.69229c-0.14247,0.24849 -0.55976,0.5774 -0.55976,0.5774c-0.01043,-0.14078 0.16577,-0.32462 0.19097,-0.44271c0.05824,-0.27303 0.41138,-0.88834 1.00729,-1.22573l0.33889,-0.19177c0.16684,-0.09451 0.69575,-0.10385 0.77743,-0.01823c0.07881,0.18165 -0.60721,0.36304 -1.14254,0.81215c-0.25661,0.21529 -0.61229,0.48889 -0.61229,0.48889z" data-paper-data="{&quot;index&quot;:null}" fill="#ead32e" stroke="none" stroke-width="0.17188" stroke-linecap="butt"/><path d="M237.66379,167.57654c-0.09182,0.12364 -0.46741,0.75192 -0.64163,1.06457l-0.6867,1.23215c-0.05051,0.09066 -0.65509,-0.63396 -0.5304,-0.91752c-0.04713,-0.36735 0.13126,-0.62929 0.24768,-0.91991c0.22358,-0.29441 0.60241,-0.67637 0.82685,-0.81371c0.18078,-0.1106 0.12325,-0.61629 0.29494,-0.77816c0.25831,-0.24383 1.2974,0.04361 1.2974,0.04361z" data-paper-data="{&quot;index&quot;:null}" fill="#54c81c" stroke="none" stroke-width="0.17188" stroke-linecap="butt"/><path d="M244.12174,172.86357c0.25689,0.70048 -0.33143,1.56489 -0.90122,1.8074c-0.56979,0.24251 -1.23995,-0.12874 -1.49683,-0.82922c-0.25689,-0.70048 -0.00321,-1.46492 0.56659,-1.70742c0.56979,-0.24251 1.57459,0.02877 1.83148,0.72925z" fill="#000000" stroke="none" stroke-width="0" stroke-linecap="butt"/><path d="M236.53971,171.06482c0.55037,-0.50373 1.47802,-0.26492 1.87233,0.21256c0.39432,0.47749 0.26782,1.27292 -0.28255,1.77665c-0.55037,0.50373 -1.31621,0.525 -1.71052,0.04751c-0.39432,-0.47749 -0.42962,-1.53301 0.12075,-2.03673z" data-paper-data="{&quot;index&quot;:null}" fill="#000000" stroke="none" stroke-width="0" stroke-linecap="butt"/><path d="M241.79241,176.35764l-0.55524,0.26361" fill="none" stroke="#000000" stroke-width="0.25" stroke-linecap="round"/><path d="M240.67521,176.69653l-0.59872,-0.07731" fill="none" stroke="#000000" stroke-width="0.25" stroke-linecap="round"/><path d="M239.47776,176.54192l-0.58295,-0.14207" fill="none" stroke="#000000" stroke-width="0.25" stroke-linecap="round"/><path d="M237.92164,175.88819l0.48659,0.25583" fill="none" stroke="#000000" stroke-width="0.25" stroke-linecap="round"/><path d="M237.35123,175.1316l0.26072,0.33802" fill="none" stroke="#000000" stroke-width="0.25" stroke-linecap="round"/><path d="M242.51779,175.88044l-0.43176,0.07701l-0.19735,-0.49723" fill="none" stroke="#000000" stroke-width="0.25" stroke-linecap="round"/><path d="M237.55289,174.33836l-0.3141,0.43303l-0.39933,-0.18132" data-paper-data="{&quot;index&quot;:null}" fill="none" stroke="#000000" stroke-width="0.25" stroke-linecap="round"/><path d="M242.25351,173.80629l1.3004,-0.80906" fill="none" stroke="#ffffff" stroke-width="0.25" stroke-linecap="round"/><path d="M243.24641,174.12651l-0.61719,-1.45587" fill="none" stroke="#ffffff" stroke-width="0.25" stroke-linecap="round"/><path d="M243.68799,173.32868c-0.20716,0.0193 -0.39073,-0.13299 -0.41004,-0.34014c-0.0193,-0.20716 0.13299,-0.39073 0.34014,-0.41004c0.20716,-0.0193 0.39073,0.13299 0.41004,0.34014c0.0193,0.20716 -0.13299,0.39073 -0.34014,0.41004z" fill="#ffffff" stroke="none" stroke-width="0" stroke-linecap="butt"/><path d="M242.18299,174.1568c-0.20716,0.0193 -0.39073,-0.13299 -0.41004,-0.34014c-0.0193,-0.20716 0.13299,-0.39073 0.34014,-0.41004c0.20715,-0.0193 0.39073,0.13299 0.41004,0.34014c0.0193,0.20715 -0.13299,0.39073 -0.34014,0.41004z" fill="#ffffff" stroke="none" stroke-width="0" stroke-linecap="butt"/><path d="M242.61418,172.87842c-0.20716,0.0193 -0.39073,-0.13299 -0.41004,-0.34014c-0.0193,-0.20716 0.13299,-0.39073 0.34014,-0.41004c0.20716,-0.0193 0.39074,0.13299 0.41005,0.34014c0.0193,0.20715 -0.133,0.39073 -0.34015,0.41004z" fill="#ffffff" stroke="none" stroke-width="0" stroke-linecap="butt"/><path d="M243.25043,174.53888c-0.20716,0.0193 -0.39073,-0.13299 -0.41004,-0.34014c-0.0193,-0.20716 0.13299,-0.39073 0.34014,-0.41004c0.20715,-0.0193 0.39073,0.13299 0.41004,0.34014c0.0193,0.20715 -0.13299,0.39073 -0.34014,0.41004z" fill="#ffffff" stroke="none" stroke-width="0" stroke-linecap="butt"/><path d="M236.73644,172.53138l1.3004,-0.80906" fill="none" stroke="#ffffff" stroke-width="0.25" stroke-linecap="round"/><path d="M237.11214,171.39574l0.61719,1.45587" fill="none" stroke="#ffffff" stroke-width="0.25" stroke-linecap="round"/><path d="M238.17092,172.05376c-0.20716,0.0193 -0.39073,-0.13299 -0.41004,-0.34014c-0.0193,-0.20716 0.13299,-0.39073 0.34014,-0.41004c0.20716,-0.0193 0.39073,0.13299 0.41004,0.34014c0.0193,0.20716 -0.13299,0.39073 -0.34014,0.41004z" fill="#ffffff" stroke="none" stroke-width="0" stroke-linecap="butt"/><path d="M236.66591,172.88189c-0.20716,0.0193 -0.39073,-0.13299 -0.41004,-0.34014c-0.0193,-0.20716 0.13299,-0.39073 0.34014,-0.41004c0.20715,-0.0193 0.39073,0.13299 0.41004,0.34014c0.0193,0.20715 -0.13299,0.39073 -0.34014,0.41004z" fill="#ffffff" stroke="none" stroke-width="0" stroke-linecap="butt"/><path d="M237.09711,171.60351c-0.20716,0.0193 -0.39073,-0.13299 -0.41004,-0.34014c-0.0193,-0.20716 0.13299,-0.39073 0.34014,-0.41004c0.20716,-0.0193 0.39074,0.13299 0.41005,0.34014c0.0193,0.20715 -0.133,0.39073 -0.34015,0.41004z" fill="#ffffff" stroke="none" stroke-width="0" stroke-linecap="butt"/><path d="M237.73336,173.26397c-0.20716,0.0193 -0.39073,-0.13299 -0.41004,-0.34014c-0.0193,-0.20716 0.13299,-0.39073 0.34014,-0.41004c0.20715,-0.0193 0.39073,0.13299 0.41004,0.34014c0.0193,0.20715 -0.13299,0.39073 -0.34014,0.41004z" fill="#ffffff" stroke="none" stroke-width="0" stroke-linecap="butt"/></g><g><path d="M241.83104,167.61128c0,0 0.13628,-1.92553 -0.15262,-3.1582c-0.28891,-1.23267 -1.37007,-1.81183 -1.37007,-1.81183l0.35362,-0.66374c0,0 1.43327,1.02353 1.74097,2.31935c0.30771,1.29584 0.09415,3.41144 0.09415,3.41144z" fill="#000000" stroke="none" stroke-width="0" stroke-linecap="butt"/><path d="M237.8254,162.94409l-3.04167,-3.00384l4.51335,-0.52878l1.9497,3.11307z" fill="#ea035a" stroke="none" stroke-width="0" stroke-linecap="butt"/><path d="M241.07957,162.54226l-6.16565,-2.65373" fill="none" stroke="#000000" stroke-width="0.25" stroke-linecap="round"/><path d="M239.3424,159.29655l0.32912,2.56983l-1.87298,1.07124" fill="none" stroke="#000000" stroke-width="0.25" stroke-linecap="round"/></g></g><g data-paper-data="{&quot;index&quot;:null}"><g data-paper-data="{&quot;index&quot;:null}" stroke="none" stroke-width="0" stroke-linecap="butt"><path d="M237.58035,182.37056c0,0 -1.68914,1.02214 -3.15773,1.53393c-0.80949,0.28211 -1.72934,0.6549 -2.32137,0.85244c-1.00033,0.33374 -1.72579,1.12588 -1.72579,1.12588c0,0 0.63674,-1.65764 0.82955,-2.11729c0.19281,-0.45965 0.39103,-0.89406 0.56633,-0.82812c0.17529,0.06593 5.80901,-0.56685 5.80901,-0.56685z" fill="#54c81c"/><path d="M236.43954,182.88688c-2.95714,1.15175 -4.99699,0.31914 -4.99699,0.31914c0,0 0.80437,-2.21887 4.05972,-3.19732c2.54433,-0.76475 3.76991,0.07198 4.25336,-0.13066c1.40566,-0.58918 1.15641,-0.57475 1.15641,-0.57475c0,0 -0.36405,1.98344 -4.47249,3.58359z" fill="#ffffff"/></g><path d="M233.42484,183.23349l-0.50092,0.49473" fill="none" stroke="#ffffff" stroke-width="0.25" stroke-linecap="round"/><path d="M231.85056,183.72822l0.3578,-0.49473" fill="none" stroke="#ffffff" stroke-width="0.25" stroke-linecap="round"/></g><g data-paper-data="{&quot;index&quot;:null}"><g data-paper-data="{&quot;index&quot;:null}" stroke="none" stroke-width="0" stroke-linecap="butt"><path d="M233.40334,186.37024c0.39703,-1.31345 1.64754,-2.9797 1.64754,-2.9797l4.60496,2.85212c0,0 -2.72379,1.32173 -3.65049,2.05978c-0.92671,0.73806 -2.09051,2.10349 -2.09051,2.10349c0,0 -1.0367,-2.29826 -0.5115,-4.03569z" fill="#54c81c"/><path d="M234.46363,187.35644c-1.18262,-1.04099 0.0166,-3.40945 0.58725,-3.96589c0.56636,-0.55225 1.05846,-1.6712 4.0193,-2.35262c2.01937,-0.46474 2.54129,-1.56846 2.54129,-1.56846l0.88573,0.31463c0,0 0.68243,3.33135 -0.7932,5.02295c-1.38049,1.58252 -5.97854,3.42509 -7.11536,2.42439z" fill="#ffffff"/></g><path d="M235.91856,187.78847l0.63104,-0.72346" fill="none" stroke="#ffffff" stroke-width="0.25" stroke-linecap="round"/><path d="M234.58795,187.58299l0.55712,-0.72346" fill="none" stroke="#ffffff" stroke-width="0.25" stroke-linecap="round"/><path d="M234.5537,185.90063l-0.71637,0.85446" fill="none" stroke="#ffffff" stroke-width="0.25" stroke-linecap="round"/></g><g data-paper-data="{&quot;index&quot;:null}"><g data-paper-data="{&quot;index&quot;:null}" stroke="none" stroke-width="0" stroke-linecap="butt"><path d="M249.48919,183.40294c-0.78909,-0.13331 -3.8153,-0.12175 -3.8153,-0.12175c0,0 3.343,-0.27713 3.67502,-1.00338c0.33206,-0.72634 -2.06924,-2.52751 -1.42826,-2.36324c3.38535,0.86764 3.98098,4.10742 3.98098,4.10742c0,0 -1.62335,-0.48574 -2.41244,-0.61905z" fill="#54c81c"/><path d="M244.80562,179.38394c2.29042,-0.08272 4.89049,1.10775 5.40414,2.12422c0.51365,1.01647 -3.0936,1.91556 -4.58239,1.6789c-1.61261,-0.25634 -5.22365,-3.14324 -5.22365,-3.14324c0,0 2.51165,-0.59162 4.4019,-0.65988z" fill="#ffffff"/></g><path d="M248.73105,182.31786l0.77026,0.50714" fill="none" stroke="#ffffff" stroke-width="0.25" stroke-linecap="round"/><path d="M250.27159,182.10053l-0.49018,-0.36224" fill="none" stroke="#ffffff" stroke-width="0.25" stroke-linecap="round"/></g><g data-paper-data="{&quot;index&quot;:null}"><g data-paper-data="{&quot;index&quot;:null}" stroke="none" stroke-width="0" stroke-linecap="butt"><path d="M243.02572,186.14259c0,0 3.26152,0.62686 3.76839,-0.25343c0.51439,-0.89332 -0.94336,-4.05504 -0.94336,-4.05504c0,0 1.28962,0.32824 2.4321,2.73311c0.66153,1.38798 1.83739,4.93653 1.83739,4.93653c0,0 -2.77619,-1.24818 -4.37352,-1.67153c-1.32701,-0.35172 -2.72099,-1.68963 -2.72099,-1.68963z" fill="#54c81c"/><path d="M245.94633,181.79355c0.13694,0.10305 2.05822,2.57194 1.42525,4.16181c-0.59429,1.39292 -4.31623,0.20758 -4.31623,0.20758c0,0 -1.39446,-1.02812 -2.36968,-1.97488c-1.17165,-1.13744 -1.10943,-2.9908 -0.72313,-3.84754c0.38631,-0.85674 0.39196,0.25849 2.385,0.11843c1.50167,-0.10551 3.46755,1.23581 3.5988,1.33458z" fill="#ffffff"/></g><path d="M245.40526,186.90962l-0.36079,-0.42486" fill="none" stroke="#ffffff" stroke-width="0.25" stroke-linecap="round"/><path d="M246.92057,186.69718l-0.21647,-0.49567" fill="none" stroke="#ffffff" stroke-width="0.25" stroke-linecap="round"/><path d="M246.92056,184.6437l0.95226,0.75397" fill="none" stroke="#ffffff" stroke-width="0.25" stroke-linecap="round"/></g><g data-paper-data="{&quot;index&quot;:null}"><path d="M242.35038,181.28861c-0.36591,0.39828 -2.69739,-0.28309 -2.69739,-0.28309c-0.24658,-0.28197 -1.67704,-0.07531 -1.70209,-0.53654c-0.00974,-0.1801 0.14956,-1.14428 0.32786,-1.71279c0.1783,-0.56852 -0.05954,-0.98345 0.64221,-1.38034c0.70175,-0.39689 1.90661,-0.1482 2.06043,-0.1482c0.12177,0 0.72348,0.19835 1.07941,1.25421c0.35594,1.05586 0.59384,2.36369 0.28957,2.80676z" data-paper-data="{&quot;index&quot;:null}" fill="#319a2b" stroke="none" stroke-width="0.17188" stroke-linecap="butt"/><path d="M240.97722,181.03802c0.61263,0 1.39781,-0.03289 1.39781,-0.03289l0.22399,0.60534c0,0 -0.81357,-0.32402 -1.50188,-0.15139c-0.61138,0.03439 -1.24991,-0.3092 -1.15798,-0.46382c0.178,-0.29941 0.42542,0.04276 1.03805,0.04276z" data-paper-data="{&quot;index&quot;:null}" fill="#ead42f" stroke="none" stroke-width="0" stroke-linecap="butt"/><path d="M237.89109,180.3842c0,0 0.60465,0.11279 1.21306,0.18453c0.60841,0.07174 0.41111,0.46852 -0.19203,0.36277c-0.66335,-0.25204 -1.3616,-0.05504 -1.3616,-0.05504l0.34058,-0.49225z" data-paper-data="{&quot;index&quot;:null}" fill="#ead42f" stroke="none" stroke-width="0" stroke-linecap="butt"/><path d="M240.88001,180.77492l0.07853,0.38091" fill="none" stroke="#ffffff" stroke-width="0.25" stroke-linecap="round"/><path d="M241.81313,180.83174l0.09109,0.32829" fill="none" stroke="#ffffff" stroke-width="0.25" stroke-linecap="round"/><path d="M238.8006,180.62701l0.03093,-0.30573" fill="none" stroke="#ffffff" stroke-width="0.25" stroke-linecap="round"/><path d="M238.01449,180.65292l0.147,-0.38175" fill="none" stroke="#ffffff" stroke-width="0.25" stroke-linecap="round"/></g><g data-paper-data="{&quot;index&quot;:null}" stroke="none" stroke-linecap="butt"><path d="M239.97596,177.35818c0.17008,0.06905 0.3072,0.33949 0.39108,0.72079c0.08399,0.38126 0.11481,0.87325 0.07258,1.38519c-0.0422,0.51204 -0.14953,0.94795 -0.28883,1.23853c-0.1394,0.29062 -0.31073,0.43601 -0.48082,0.36696c-0.17021,-0.06911 -0.30722,-0.33958 -0.3912,-0.72085c-0.08388,-0.3813 -0.11481,-0.87325 -0.07258,-1.38519c0.04219,-0.51204 0.14963,-0.94798 0.28893,-1.23856c0.1393,-0.29058 0.31062,-0.43597 0.48084,-0.36686z" fill="#eb3d66" stroke-width="0.01872"/><path d="M239.86387,178.32515c0.20905,0.00794 0.3635,0.4098 0.34498,0.89758c-0.01852,0.48778 -0.203,0.87677 -0.41205,0.86883c-0.20905,-0.00794 -0.3635,-0.4098 -0.34498,-0.89758c0.01852,-0.48778 0.203,-0.87677 0.41205,-0.86883z" fill="#492116" stroke-width="0"/><path d="M240.08426,177.56189c0.07287,0.00749 0.14677,0.09569 0.20751,0.23227c0.06069,0.1365 0.10811,0.32141 0.12783,0.52204c0.01966,0.20055 0.00797,0.3793 -0.02692,0.50605c-0.03488,0.12675 -0.09285,0.20152 -0.16563,0.19397c-0.07281,-0.00742 -0.14676,-0.0957 -0.2075,-0.23228c-0.06068,-0.13652 -0.10813,-0.3213 -0.12777,-0.52198c-0.0197,-0.20063 -0.00801,-0.37938 0.02688,-0.50613c0.03481,-0.1267 0.0928,-0.20139 0.16562,-0.19397z" fill="#ffffff" stroke-width="0.01896"/></g><g data-paper-data="{&quot;index&quot;:null}"><g stroke="none" stroke-width="0" stroke-linecap="butt"><path d="M243.79982,176.94106l0.26334,0.68188l-2.49808,1.08205l-0.08284,-0.85519z" fill="#319a2b"/><path d="M243.80993,176.75639c0.4351,-0.42056 3.18798,-1.67287 3.18798,-1.67287l0.06707,1.53375c0,0 -1.89787,0.9343 -2.96002,1.05215c-0.43957,0.04878 -0.76051,-0.46313 -0.29503,-0.91302z" fill="#ead42f"/><path d="M248.97789,177.46717c0.37636,1.4179 -0.639,3.12634 -1.02792,3.02817c-1.22972,-0.3104 -1.5592,-0.96753 -2.04961,-2.35014c-0.594,-1.67465 0.8616,-3.41486 1.73308,-3.29119c0.28531,0.0405 0.9681,1.19525 1.34446,2.61316z" fill="#f0e9bb"/></g><path d="M246.94966,179.76287c0,0 -0.38152,-1.47484 -0.19089,-2.42332c0.19063,-0.94847 0.93165,-2.31332 0.93165,-2.31332" fill="none" stroke="#d3c49c" stroke-width="0.25" stroke-linecap="round"/><path d="M247.73258,175.981l-0.78377,-0.26885" fill="none" stroke="#ffffff" stroke-width="0.5" stroke-linecap="round"/><path d="M247.21036,177.15202l-0.62825,-0.18335" fill="none" stroke="#ffffff" stroke-width="0.5" stroke-linecap="round"/><path d="M246.4595,178.07581l0.63135,0.10406" fill="none" stroke="#ffffff" stroke-width="0.5" stroke-linecap="round"/><path d="M246.651,179.27468l0.47583,0.01856" fill="none" stroke="#ffffff" stroke-width="0.5" stroke-linecap="round"/></g><g data-paper-data="{&quot;index&quot;:null}"><g stroke="#ffffff" stroke-width="0" stroke-linecap="butt"><path d="M238.86297,177.48138l-0.24652,0.82307l-2.24195,-1.54431l0.39014,-0.61815z" data-paper-data="{&quot;index&quot;:null}" fill="#319a2b"/><path d="M236.79042,175.95885c0.36978,0.53137 -0.04401,0.97159 -0.46589,0.83881c-1.01935,-0.32084 -2.70096,-1.60423 -2.70096,-1.60423l0.36214,-1.4919c0,0 2.45904,1.76061 2.80469,2.25732z" data-paper-data="{&quot;index&quot;:null}" fill="#ead42f"/><path d="M233.43514,173.37353c0.87464,0.09888 1.84718,2.14857 0.85213,3.62068c-0.82153,1.2154 -1.30531,1.76888 -2.57358,1.76091c-0.40113,-0.00253 -0.95549,-1.91102 -0.2355,-3.1892c0.71998,-1.27817 1.67058,-2.22477 1.95695,-2.19239z" data-paper-data="{&quot;index&quot;:null}" fill="#f0e9bb"/></g><path d="M232.9618,173.77315c0,0 0.42034,1.49506 0.39616,2.4622c-0.02417,0.96714 -0.72288,2.32086 -0.72288,2.32086" data-paper-data="{&quot;index&quot;:null}" fill="none" stroke="#d3c49c" stroke-width="0.25" stroke-linecap="round"/><path d="M233.53304,174.60624l-0.82385,0.08859" data-paper-data="{&quot;index&quot;:null}" fill="none" stroke="#ffffff" stroke-width="0.5" stroke-linecap="round"/><path d="M233.61235,175.91275l-0.65325,0.03967" data-paper-data="{&quot;index&quot;:null}" fill="none" stroke="#ffffff" stroke-width="0.5" stroke-linecap="round"/><path d="M233.48671,177.01958l-0.63871,-0.03836" data-paper-data="{&quot;index&quot;:null}" fill="none" stroke="#ffffff" stroke-width="0.5" stroke-linecap="round"/><path d="M233.03445,178.14628l-0.46813,-0.08729" data-paper-data="{&quot;index&quot;:null}" fill="none" stroke="#ffffff" stroke-width="0.5" stroke-linecap="round"/></g></g></g></svg>