<svg version="1.1" xmlns="http://www.w3.org/2000/svg" xmlns:xlink="http://www.w3.org/1999/xlink" width="9.30173" height="8.88832" viewBox="0,0,9.30173,8.88832"><g transform="translate(-235.34915,-175.55584)"><g data-paper-data="{&quot;isPaintingLayer&quot;:true}" fill="#ffd700" fill-rule="nonzero" stroke="none" stroke-width="0.26459" stroke-linecap="butt" stroke-linejoin="miter" stroke-miterlimit="4" stroke-dasharray="" stroke-dashoffset="0" style="mix-blend-mode: normal"><path d="M235.34916,180c0,-1.37803 0.41341,-2.46324 1.24023,-3.25561c0.82682,-0.79237 1.9637,-1.18855 3.41064,-1.18855c1.44693,0 2.58381,0.39618 3.41063,1.18855c0.82682,0.79237 1.24023,1.87758 1.24023,3.25561c0,1.17133 -0.41341,2.20485 -1.24023,3.10057c-0.82682,0.89573 -1.9637,1.34359 -3.41063,1.34359c-1.44694,0 -2.58382,-0.44786 -3.41064,-1.34359c-0.82682,-0.89572 -1.24023,-1.92924 -1.24023,-3.10057zM239.89664,178.24301c-0.68901,0.41341 -1.20578,0.86127 -1.55029,1.34358c-0.34451,0.41341 -0.41341,0.93017 -0.2067,1.55029l0.2067,0.2067c0.34451,0.48231 0.93018,0.62012 1.757,0.41341c0.68901,-0.41341 1.20578,-0.86127 1.55029,-1.34358c0.41341,-0.55121 0.41341,-1.17133 0,-1.86035l-0.20671,-0.2067c-0.41341,-0.27561 -0.93017,-0.31006 -1.55029,-0.10335z"/></g></g></svg>