<svg version="1.1" xmlns="http://www.w3.org/2000/svg" xmlns:xlink="http://www.w3.org/1999/xlink" width="32.54235" height="36.2806" viewBox="0,0,32.54235,36.2806"><defs><radialGradient cx="242.28025" cy="175.38141" r="1.31225" gradientUnits="userSpaceOnUse" id="color-1"><stop offset="0" stop-color="#f5ab87" stop-opacity="0.25098"/><stop offset="1" stop-color="#f5ab87" stop-opacity="0"/></radialGradient><radialGradient cx="237.01039" cy="174.94663" r="0.73225" gradientUnits="userSpaceOnUse" id="color-2"><stop offset="0" stop-color="#f5ab87" stop-opacity="0.25098"/><stop offset="1" stop-color="#f5ab87" stop-opacity="0"/></radialGradient></defs><g transform="translate(-223.86722,-162.48712)"><g data-paper-data="{&quot;isPaintingLayer&quot;:true}" fill-rule="nonzero" stroke-linejoin="miter" stroke-miterlimit="10" stroke-dasharray="" stroke-dashoffset="0" style="mix-blend-mode: normal"><g stroke="none" stroke-width="0" stroke-linecap="butt"><path d="M242.83792,196.85117c-0.41732,1.39713 -2.97075,1.26026 -2.97075,1.26026c0,0 1.3627,-0.61891 0.4449,-2.57683c-0.69822,-1.0643 -1.10065,-3.44355 -1.10065,-3.44355c0,0 -0.37648,-1.62415 0.54071,-1.05315c0.42694,0.26581 0.85973,0.49633 1.25104,0.76973c0.44929,0.31392 0.84392,0.68439 1.11222,1.22972c0,0 1.13984,2.41668 0.72251,3.81382z" fill="#54c81c"/><path d="M239.07847,198.32019c-0.14742,-0.36591 0.0297,-0.78204 0.3956,-0.92948c0.36591,-0.14742 0.78204,0.0297 0.92948,0.3956c0.14742,0.36591 -0.0297,0.78204 -0.3956,0.92948c-0.36591,0.14742 -0.78204,-0.0297 -0.92948,-0.3956z" fill="#ffffff"/></g><g stroke="none" stroke-width="0" stroke-linecap="butt"><path d="M236.55012,196.72149c-0.96016,0.74583 -1.90717,1.00585 -1.90717,1.00585c0,0 0.20855,-1.69113 0.72329,-3.34338c0.32275,-1.03598 2.01177,-2.87994 2.01177,-2.87994c0,0 0.96997,-1.22315 1.07222,-0.22384c0.0476,0.46519 0.12418,0.91396 0.14612,1.35773c0.02518,0.50954 -0.02169,1.01249 -0.26722,1.52612c0,0 -0.55609,1.60749 -1.77901,2.55743z" fill="#54c81c"/><path d="M234.14204,197.10022c0.34814,-0.18554 0.78076,-0.05373 0.96631,0.2944c0.18554,0.34814 0.05372,0.78075 -0.2944,0.9663c-0.34814,0.18554 -0.78075,0.05373 -0.96629,-0.29439c-0.18554,-0.34814 -0.05374,-0.78076 0.29439,-0.9663z" fill="#ffffff"/></g><path d="M249.45475,178.13677c0,0 -2.12259,-0.25615 -3.34598,-0.1906c-1.22339,0.06555 -3.47127,0.2899 -3.47127,0.2899l-0.05827,-1.07988c0,0 2.32521,0.00968 3.90342,-0.0464c1.57821,-0.05607 3.09019,0.06577 3.09019,0.06577z" fill="#fba15d" stroke="none" stroke-width="0" stroke-linecap="butt"/><path d="M249.38324,179.19476c0,0 -2.13946,-0.0551 -3.50332,-0.07747c-1.36385,-0.02237 -3.59642,-0.25651 -3.59642,-0.25651l0.30844,-0.99393c0,0 2.02663,-0.03277 3.60829,-0.09523c1.58166,-0.06245 3.28191,0.10888 3.28191,0.10888z" fill="#fba15d" stroke="none" stroke-width="0" stroke-linecap="butt"/><path d="M238.2026,189.18293l0.3896,-6.61619l1.50165,0.38457c0,0 -1.10023,3.76955 -0.7274,5.77983c0.09845,0.64046 1.3454,3.91877 1.3454,3.91877c0,0 0.99247,2.40336 0.87761,3.02841c-0.14613,0.7951 -0.81054,0.38819 -1.15791,-0.10372c-0.34736,-0.4919 -0.60331,-1.89686 -0.89525,-2.77398c-0.35514,-1.06703 -1.3337,-3.61769 -1.3337,-3.61769z" fill="#ffffff" stroke="none" stroke-width="0" stroke-linecap="butt"/><path d="M238.52349,188.68103l2.54048,-5.30339l1.01913,0.65c0,0 -1.71332,4.17618 -2.76682,5.92846c-0.35086,0.54478 -1.45629,3.5683 -1.45629,3.5683c0,0 -1.03172,2.11135 -1.53207,2.50318c-0.63647,0.49843 -0.76569,-0.72571 -0.659,-1.06968c0,0 0.65191,-1.20447 1.02857,-1.97286c0.55681,-1.13586 1.826,-4.30399 1.826,-4.30399z" fill="#ffffff" stroke="none" stroke-width="0" stroke-linecap="butt"/><g stroke="none" stroke-width="0" stroke-linecap="butt"><path d="M234.77278,187.33523c-0.30051,-1.37325 -0.52493,-2.26384 -0.52493,-2.26384l5.06956,2.91818c0,0 -0.5408,-0.81229 -1.74547,0.22319c-1.20468,1.03549 -2.3176,1.43376 -2.3176,1.43376c0,0 -0.18105,-0.93804 -0.48157,-2.31129z" fill="#54c81c"/><path d="M234.4145,184.82138c0.73623,-0.7748 0.2926,-1.67801 2.89156,-3.13404c2.62509,-0.65203 3.30357,-2.20055 3.30357,-2.20055l1.15141,0.44143c0,0 0.88714,4.67388 -1.03111,7.04718c-3.1279,0.8036 -4.94267,1.86693 -5.00382,0.04629c0,0 -2.05344,-1.41963 -1.31161,-2.20031z" fill="#ffffff"/></g><g stroke="none" stroke-width="0" stroke-linecap="butt"><path d="M252.96747,185.07328c-1.17073,-0.19117 -5.91058,0.24208 -5.91058,0.24208c0,0 4.62652,-0.6474 5.11912,-1.68885c0.49266,-1.04159 -2.90336,-3.04115 -1.95238,-2.80558c5.02268,1.2442 5.67396,4.38379 5.67396,4.38379c0,0 -1.7594,0.05974 -2.93012,-0.13143z" fill="#54c81c"/><path d="M238.68142,180.2248c0,0 4.28279,0.01639 7.08727,-0.08149c3.39819,-0.11861 6.5803,1.36838 7.39696,2.79615c0.59541,1.04096 -3.96892,2.58026 -6.17778,2.24089c-2.39256,-0.36759 -8.30644,-4.95556 -8.30644,-4.95556z" fill="#ffffff"/></g><g stroke="none" stroke-width="0" stroke-linecap="butt"><path d="M235.15286,184.00892c0,0 -2.19252,1.16317 -4.31608,1.91249c-1.17053,0.41303 -2.61054,0.44513 -3.87782,0.80687c-1.26728,0.36174 -3.09174,1.09937 -3.09174,1.09937c0,0 0.57885,-1.68083 1.23357,-2.35969c0.65472,-0.67887 3.56543,-2.97564 3.8189,-2.87911c0.25347,0.09653 6.23318,1.42007 6.23318,1.42007z" fill="#54c81c"/><path d="M232.56466,180.80097c3.67911,-1.11965 5.03462,-0.51063 5.73368,-0.80731c2.03258,-0.86262 1.67217,-0.47547 1.67217,-0.47547c0,0 -0.52642,2.90393 -6.46723,5.24671c-4.27602,1.68626 -7.05897,0.30057 -7.05897,0.30057c0,0 1.41312,-2.83195 6.12035,-4.2645z" fill="#ffffff"/></g><g data-paper-data="{&quot;index&quot;:null}" stroke="none" stroke-width="0" stroke-linecap="butt"><path d="M248.35135,188.18064c0.73617,-1.30284 -1.43343,-4.99724 -1.43343,-4.99724c0,0 2.09566,-0.0213 3.73072,3.48599c1.63506,3.50729 0.82455,7.87393 0.82455,7.87393c0,0 -2.42425,-2.88803 -4.37696,-3.83879c-1.95271,-0.95076 -4.13805,-2.48764 -4.13805,-2.48764c0,0 4.66775,1.24757 5.39317,-0.03625z" fill="#54c81c"/><path d="M247.05473,183.12421c0.19598,0.15029 2.16506,2.08427 2.00919,4.56961c-0.85052,2.03144 -5.47998,0.88607 -5.47998,0.88607c0,0 -2.66235,-0.58275 -4.05804,-1.9635c-1.67683,-1.65885 -1.58778,-4.36181 -1.03492,-5.61127c0.55286,-1.24946 0.56093,0.37699 3.41331,0.17273c2.14913,-0.15388 4.96261,1.80233 5.15045,1.94636z" fill="#ffffff"/></g><path d="M244.45767,172.97469c0.00859,0.94975 -0.07743,1.89683 -0.15456,2.84309c-0.01022,0.38992 -0.24651,0.73044 -0.53374,0.97644c-0.31249,0.2591 -0.73442,0.31382 -1.11228,0.42736c-0.59,0.15435 -1.19861,0.22666 -1.80763,0.19935c-0.75038,0.00605 -1.69787,-0.09011 -2.35436,-0.52524c-0.44833,-0.20488 -0.37867,-0.19395 -0.84173,-0.37929c-0.9253,-0.51789 -1.57166,-1.44062 -1.88988,-2.43906c-0.19527,-0.59684 -0.29265,-1.23747 -0.22166,-1.86429c0.04502,-0.2639 0.34163,-3.40709 4.32968,-3.46865c4.21247,-0.06503 4.5701,3.97007 4.58616,4.23029z" data-paper-data="{&quot;index&quot;:null}" fill="#f0e9bb" stroke="none" stroke-width="0.17188" stroke-linecap="butt"/><path d="M237.61529,172.61081c-0.41598,-0.42365 -0.5583,-0.4713 -0.86131,-0.20713c-0.22698,0.17767 -0.383,0.79509 -0.39571,1.21444c-0.01699,0.56033 0.12964,0.98414 0.12964,0.98414c0,0 -0.12404,-0.12706 -0.22168,-0.41893c-0.09763,-0.29187 0.0206,-0.63787 -0.1514,-0.75489c-0.18013,-0.12255 -1.02375,-0.25868 -1.02375,-0.25868c0,0 1.18552,-0.00044 1.18793,-0.07506c0.01044,-0.32358 0.20923,-0.65476 0.32553,-0.75955c0.20913,-0.18845 0.33615,-0.26181 0.61027,-0.18982c0.19654,0.05162 0.31465,0.16919 0.52276,0.38144c0.67457,0.688 0.05779,2.33696 0.05779,2.33696c0,0 0.39068,-1.80504 -0.18008,-2.25292z" data-paper-data="{&quot;index&quot;:null}" fill="#000000" stroke="none" stroke-width="0" stroke-linecap="butt"/><path d="M236.96729,172.36794c0.60616,0.20764 0.80532,0.55337 0.88745,1.10205c0.13052,0.29848 0.0266,1.4395 -0.18074,1.43449c-0.21061,-0.03294 -0.45723,-0.07261 -0.71039,-0.12755c-0.39524,-0.08573 -0.50141,-0.18913 -0.46418,-0.27076c0.02567,-0.05636 -0.0445,-0.22565 -0.07917,-0.3932c-0.03529,-0.17062 -0.03528,-0.34144 -0.03743,-0.62631c-0.00193,-0.26421 0.0396,-0.55522 0.10168,-0.75089c0.08878,-0.27904 0.23453,-0.40844 0.48279,-0.36783z" data-paper-data="{&quot;index&quot;:null}" fill="#ffffff" stroke="none" stroke-width="0.17188" stroke-linecap="butt"/><path d="M235.90346,167.7956c0.55492,0.43033 -1.47468,3.36445 -1.1536,2.87623c-0.59889,-0.36967 -1.05316,-1.08916 -1.1892,-1.64663c-0.01248,-0.05104 0.04818,-0.192 0.04818,-0.192c-0.09144,0.02342 0.02946,-0.08827 0.03877,-0.18422c0.00727,-0.07548 -0.07313,-0.23526 -0.07313,-0.23526c-0.04193,0.02986 0.17942,-0.09125 0.26063,-0.17042c0.06712,-0.06536 0.03622,-0.10741 0.09176,-0.14781c0.38973,-0.28496 1.05398,-0.4295 1.97662,-0.2999z" data-paper-data="{&quot;index&quot;:null}" fill="#ed3e67" stroke="none" stroke-width="0.17188" stroke-linecap="butt"/><path d="M244.16375,172.06154c-0.05442,-0.09135 -0.16571,-0.14669 -0.32742,-0.24017c-0.12152,-0.07037 -0.3574,-0.20754 -0.43473,-0.27925c-0.19414,-0.18003 -1.01285,-0.15211 -0.96437,-0.07437c-0.06312,0.11711 0.00613,-0.31658 -1.07321,0.6976l-1.1491,1.08026c-0.10576,0.09933 -0.52524,0.50173 -0.8586,0.61762c-0.35831,0.12458 -0.88909,0.16958 -0.93696,0.09706c0,0 -0.33439,-0.58816 -0.53374,-0.81196c-0.07579,-0.0851 -0.06771,0.10003 0.00931,0.33755c0.01268,0.03928 0.24753,0.6308 0.23679,0.65699c-0.0582,0.14085 -1.24208,-1.708 -1.30611,-1.80978l-0.39452,-0.62857c-0.13318,-0.21194 -0.34389,-0.10351 -0.43268,-0.12632c-0.13338,-0.03437 -0.21429,0.07374 -0.22319,0.20652c-0.01146,0.16796 -0.02128,0.86218 -0.03365,0.96365c-0.06505,0.53742 0.22666,1.26409 0.37345,2.02725c0.08592,0.44637 1.89243,2.04002 1.66249,1.71649c-0.10372,-0.14607 -0.10986,1.0463 -0.41529,1.20004c-0.21797,0.10996 -1.28779,-1.78186 -1.39929,-2.18569l-0.63726,-2.30588c-0.18678,-0.6752 0.14801,-2.5846 0.2459,-2.93157l0.19117,-0.67786c0.35207,-0.80142 0.85389,-1.5155 1.52859,-2.12871c0.04296,-0.03907 0.66671,-0.75078 1.77592,-1.12485c0.70047,-0.23628 1.87187,-0.27505 1.96383,-0.27628c0.53926,-0.00716 1.59149,-0.03795 2.5528,0.17287c0.61148,0.13409 1.15617,0.43809 1.60531,0.67561c0.08072,0.04256 -0.78833,1.09152 -0.71079,1.12824c0.03765,0.01769 -0.19894,1.00406 -0.18984,1.09806l0.06066,0.62774c0.06137,0.63459 0.63889,1.28443 0.74302,1.36861c0.14248,0.11538 0.63387,0.46582 0.79845,0.47012l0.55471,0.01503c0.076,0.00184 0.73913,-0.47859 0.79171,-0.43185c0.18524,0.16478 0.09318,1.12464 0.05554,1.31337l-0.19792,0.99332c-0.06382,0.31995 -0.08059,0.50038 -0.28169,0.94074c-0.27567,0.60432 -0.554,1.2077 -0.9877,1.75935c-0.35043,0.44587 -2.04422,1.70473 -2.01231,1.54455l0.26963,-1.36258l0.23118,-1.92547l-0.15006,-2.38751z" data-paper-data="{&quot;index&quot;:null}" fill="#54c81c" stroke="none" stroke-width="0.17188" stroke-linecap="butt"/><path d="M248.21077,170.4881c-1.03361,0.35321 -2.37571,-1.80898 -2.37571,-1.80898c0,-0.39013 0.95421,-1.18725 2.04092,-1.07729c0.83058,0.08419 1.37343,0.3623 1.64562,0.70845c0.03886,0.04941 0.00224,0.08111 0.04531,0.15579c0.05226,0.09022 0.21623,0.24969 0.18677,0.21307c0,0 -0.10689,0.12868 -0.11803,0.19926c-0.01422,0.08981 0.06506,0.21869 -0.0089,0.17716c0,0 0.02005,0.14239 -0.00266,0.18637c-0.24723,0.48055 -0.80807,1.03925 -1.41331,1.24618z" data-paper-data="{&quot;index&quot;:null}" fill="#ed3e67" stroke="none" stroke-width="0.17188" stroke-linecap="butt"/><path d="M245.03994,169.37541c0.09902,0.06894 -0.00194,-0.52607 0.13185,-1.10676c0.14279,-0.62008 0.53312,-1.23176 1.06686,-1.26203c0.3082,-0.01739 0.58437,0.0809 0.84439,0.15527c0.5364,0.15333 0.91333,0.37152 0.72502,0.44414c-0.31955,0.12335 -0.72962,0.3532 -1.00365,0.54693c-0.39084,0.27618 -0.64207,0.4877 -0.62294,0.50898l1.23053,1.368l0.83016,0.48649c0.13798,0.0714 -0.23066,0.31014 -0.64697,0.48188c-0.35934,0.14842 -0.60933,0.37101 -0.73556,0.40926c-0.56207,0.17123 -0.48842,-0.09073 -1.14634,-0.44649c-0.38255,-0.20692 -0.82208,-1.68958 -0.67335,-1.58566z" data-paper-data="{&quot;index&quot;:null}" fill="#54c81c" stroke="none" stroke-width="0.17188" stroke-linecap="butt"/><path d="M244.26952,169.33901c0.02925,-1.3277 0.56811,-2.83726 1.47663,-2.40479c0.38102,0.18126 -0.20458,0.43289 -0.49661,1.21774c-0.18585,0.49948 -0.21858,1.26602 0.08317,2.20339c0.03181,0.0983 0.19711,0.29008 0.42337,0.53834c0.34666,0.38061 1.77112,0.17163 1.54997,0.30379l-0.86382,0.51584l-0.61046,-0.112c-0.38829,0.02751 -1.58893,-1.04743 -1.56224,-2.26231z" data-paper-data="{&quot;index&quot;:null}" fill="#ead32e" stroke="none" stroke-width="0.17188" stroke-linecap="butt"/><path d="M235.87138,169.37942c-0.04347,-0.13431 0.08419,-0.35464 0.08071,-0.47534c-0.00808,-0.27905 0.18933,-0.96049 0.6884,-1.42938l0.28385,-0.26656c0.13972,-0.13133 0.65137,-0.26564 0.751,-0.20181c0.11958,0.15783 -0.50397,0.4965 -0.91773,1.0596c-0.19834,0.26994 -0.47912,0.61997 -0.47912,0.61997c-0.07958,0.27516 -0.40711,0.69352 -0.40711,0.69352z" data-paper-data="{&quot;index&quot;:null}" fill="#ead32e" stroke="none" stroke-width="0.17188" stroke-linecap="butt"/><path d="M236.12378,168.60447c-0.05994,0.14187 -0.27607,0.84122 -0.3713,1.18623l-0.37541,1.35971c-0.02761,0.10004 -0.78658,-0.46081 -0.73258,-0.76583c-0.13277,-0.34574 -0.02148,-0.64247 0.02281,-0.9524c0.1475,-0.33898 0.42511,-0.79978 0.61066,-0.98636c0.14945,-0.15026 -0.02618,-0.62795 0.10229,-0.82587c0.19323,-0.29807 1.27083,-0.26483 1.27083,-0.26483z" data-paper-data="{&quot;index&quot;:null}" fill="#54c81c" stroke="none" stroke-width="0.17188" stroke-linecap="butt"/><path d="M242.30053,176.71891h-0.86877" data-paper-data="{&quot;index&quot;:null}" fill="none" stroke="#dfcfa3" stroke-width="0.36953" stroke-linecap="round"/><g data-paper-data="{&quot;index&quot;:null}" stroke="none" stroke-linecap="butt"><path d="M236.96931,175.04244c-0.25026,0 -0.45314,-0.42916 -0.45314,-0.95856c0,-0.5294 0.20288,-0.95856 0.45314,-0.95856c0.25026,0 0.45314,0.42916 0.45314,0.95856c0,0.5294 -0.20288,0.95856 -0.45314,0.95856z" fill="#008ae6" stroke-width="0"/><path d="M236.97401,173.25833c0.07882,0.00751 0.14831,0.09815 0.19679,0.23878c0.04832,0.14064 0.07575,0.33112 0.07057,0.5381c-0.00505,0.20684 -0.04175,0.39133 -0.097,0.52226c-0.0551,0.1309 -0.1288,0.20825 -0.20772,0.20089c-0.07892,-0.00734 -0.14829,-0.09815 -0.19677,-0.23877c-0.04835,-0.14064 -0.07579,-0.33112 -0.07075,-0.53808c0.0052,-0.20685 0.04188,-0.39135 0.09713,-0.52227c0.05512,-0.13091 0.1288,-0.20826 0.20772,-0.2009z" fill="#000000" stroke-width="0.0278"/><path d="M237.1184,173.49625c0.04207,0.09778 0.067,0.23122 0.06483,0.37734c-0.00203,0.14592 -0.0307,0.27689 -0.0755,0.37069c-0.04461,0.09378 -0.10533,0.15045 -0.17136,0.1474c-0.066,-0.00305 -0.12505,-0.06522 -0.16694,-0.16303c-0.04207,-0.09778 -0.067,-0.23123 -0.06482,-0.37735c0.00203,-0.14592 0.03069,-0.27689 0.07549,-0.37069c0.04461,-0.09377 0.10533,-0.15044 0.17136,-0.14739c0.066,0.00306 0.12505,0.06521 0.16695,0.16302z" fill="#ffffff" stroke-width="0.01811"/></g><path d="M235.06721,173.17001l0.66667,-0.02564l0.10256,0.15385z" data-paper-data="{&quot;index&quot;:null}" fill="#000000" stroke="none" stroke-width="0" stroke-linecap="butt"/><path d="M241.06895,173.2328c0.35637,-0.51369 0.6619,-0.65129 1.01899,-0.65129c0.50009,0 0.79537,0.76866 0.81319,1.38581c0.02,0.6926 -0.32037,1.01971 -0.32037,1.01971c0,0 -0.44393,0.13011 -0.93532,0.15374c-0.31485,0.01504 -0.66508,-0.01872 -0.92479,-0.01872c-0.25019,-0.027 0.26074,-1.76302 0.3483,-1.88925z" data-paper-data="{&quot;index&quot;:null}" fill="#ffffff" stroke="none" stroke-width="0.17188" stroke-linecap="butt"/><g data-paper-data="{&quot;index&quot;:null}" stroke="none" stroke-linecap="butt"><path d="M241.2193,175.37577c-0.25025,0 -0.45313,-0.42916 -0.45313,-0.95856c0,-0.5294 0.20288,-0.95856 0.45313,-0.95856c0.25025,0 0.45313,0.42916 0.45313,0.95856c0,0.5294 -0.20288,0.95856 -0.45313,0.95856z" fill="#008ae6" stroke-width="0"/><path d="M241.22401,173.59167c0.07883,0.00751 0.14831,0.09815 0.19679,0.23877c0.04832,0.14064 0.07575,0.33112 0.07057,0.53811c-0.00505,0.20684 -0.04175,0.39133 -0.097,0.52225c-0.05511,0.13089 -0.1288,0.20825 -0.20772,0.20089c-0.07892,-0.00735 -0.14829,-0.09815 -0.19677,-0.23877c-0.04835,-0.14064 -0.07579,-0.33112 -0.07075,-0.53808c0.0052,-0.20685 0.04188,-0.39135 0.09713,-0.52227c0.05512,-0.13091 0.1288,-0.20827 0.20772,-0.20091z" fill="#000000" stroke-width="0.0278"/><path d="M241.3684,173.82959c0.04207,0.09779 0.067,0.23123 0.06483,0.37735c-0.00203,0.14592 -0.03069,0.27689 -0.07549,0.37069c-0.04461,0.09379 -0.10533,0.15045 -0.17136,0.1474c-0.066,-0.00305 -0.12505,-0.06523 -0.16695,-0.16303c-0.04207,-0.09779 -0.067,-0.23123 -0.06483,-0.37735c0.00203,-0.14592 0.03069,-0.27689 0.07549,-0.37069c0.04461,-0.09377 0.10533,-0.15044 0.17136,-0.14739c0.066,0.00307 0.12505,0.06521 0.16695,0.16301z" fill="#ffffff" stroke-width="0.01811"/></g><path d="M242.14493,175.14627c0,0 -0.03262,0.54938 -0.43938,0.6276c-0.40676,0.07823 -0.95305,-0.63138 -0.95305,-0.63138l0.46708,0.04595z" data-paper-data="{&quot;index&quot;:null}" fill="#f0e9bb" stroke="none" stroke-width="0" stroke-linecap="butt"/><path d="M240.60834,175.0801c0,0 -0.0558,-1.42945 0.61877,-2.11745c0.20811,-0.21225 0.375,-0.3786 0.57155,-0.43023c0.27411,-0.07199 0.4987,0.00137 0.70783,0.18982c0.1163,0.10479 0.31509,0.43598 0.32552,0.75955c0.00241,0.07462 1.18793,0.07506 1.18793,0.07506c0,0 -0.84362,0.13614 -1.02374,0.25869c-0.172,0.11702 -0.05377,0.46302 -0.1514,0.75489c-0.09763,0.29187 -0.22167,0.41893 -0.22167,0.41893c0,0 0.14663,-0.42381 0.12964,-0.98414c-0.01271,-0.41935 -0.16873,-1.03677 -0.39571,-1.21444c-0.30301,-0.26416 -0.61607,-0.19212 -1.03205,0.23153c-0.57075,0.44788 -0.71667,2.05779 -0.71667,2.05779z" data-paper-data="{&quot;index&quot;:null}" fill="#000000" stroke="none" stroke-width="0" stroke-linecap="butt"/><path d="M237.85377,174.83581c0,0 -0.13578,0.53333 -0.55,0.53333c-0.41422,0 -0.81666,-0.8 -0.81666,-0.8l0.45,0.13333z" fill="#f0e9bb" stroke="none" stroke-width="0" stroke-linecap="butt"/><g stroke="none" stroke-width="0" stroke-linecap="butt"><path d="M236.97754,170.84312c-0.07478,-0.10781 -0.31718,-0.44615 -0.34099,-0.61909c-0.03119,-0.22657 0.06594,-0.49102 0.10905,-0.52093c0.03908,-0.02711 0.17764,0.17964 0.2303,0.40045c0.0348,0.14592 -0.03872,0.28517 0.0499,0.41294c0.09873,0.14233 0.59478,0.33754 0.76628,0.48852c0.06663,0.05865 0.12032,0.3573 0.0972,0.61552c-0.02444,0.27295 -0.12775,0.50451 -0.12775,0.50451l-0.4862,0.03229l0.47594,-0.86726c0,0 -0.11026,-0.03016 -0.28385,-0.11956c-0.18665,-0.09613 -0.43922,-0.25437 -0.48987,-0.32739z" fill="#671829"/><path d="M237.01302,170.04898c-0.07583,-0.10932 -0.17786,-0.38966 -0.08563,-0.45364c0.09223,-0.06398 0.3398,-0.10446 0.41562,0.00486c0.01731,0.02496 0.13493,1.12298 0.64084,0.99571c0.24478,-0.06158 0.10894,-0.76893 0.10894,-0.76893l0.30797,0.17551c0,0 -0.03821,0.63593 -0.4283,0.69247c-0.56375,0.08171 -0.92014,-0.5893 -0.95946,-0.64599z" fill="#671829"/><path d="M237.37439,168.89872c0,0 0.08476,0.09198 -0.06564,0.19631c-0.03503,0.0243 0.17536,-0.12196 0.31256,-0.06151c0.15322,0.06751 0.22885,0.32849 0.17918,0.40618c-0.05333,0.08341 -0.25315,0.17034 -0.44093,0.17206c-0.27326,0.0025 -0.51743,-0.05324 -0.54197,-0.08862c-0.08165,-0.1177 0.00343,-0.67378 0.15081,-0.78672c0.07487,-0.05737 0.40601,0.16231 0.40601,0.16231z" fill="#804046"/><path d="M235.95088,169.99608c-0.04983,-0.03403 -0.10692,-0.41185 -0.02696,-0.46188c0.15742,-0.09847 0.90978,-0.1416 0.99143,-0.0239c0.02454,0.03537 -0.07744,0.18464 -0.17551,0.4397c-0.0674,0.17528 -0.2384,0.46405 -0.2384,0.46405l-0.37095,-0.25483l0.19764,-0.20077c0,0 -0.28276,0.10214 -0.37726,0.03763z" data-paper-data="{&quot;index&quot;:null}" fill="#804046"/><path d="M236.71057,169.38844c0.07174,-0.04976 0.17311,-0.02779 0.22642,0.04907c0.05332,0.07686 0.03838,0.1795 -0.03336,0.22927c-0.07174,0.04976 -0.1731,0.02779 -0.22642,-0.04907c-0.05332,-0.07686 -0.03839,-0.1795 0.03335,-0.22927z" fill="#671829"/></g><path d="M238.82289,183.5739c-0.19791,0.3216 -0.78434,0.22486 -1.13302,0.05127c-0.45095,-0.22341 -1.07355,-0.62557 -1.0173,-1.1161c0.08591,-0.74649 1.69979,-4.05481 2.07398,-4.72843c0.46285,-0.83285 1.72624,-0.05615 1.80662,-0.07431c0.36777,-0.08316 0.02256,0.39488 -0.084,1.33537c-0.1533,1.14877 -1.04785,3.55943 -1.64627,4.5322z" fill="#c27e34" stroke="none" stroke-width="0.17188" stroke-linecap="butt"/><g data-paper-data="{&quot;index&quot;:null}" stroke="none" stroke-width="0.17188" stroke-linecap="butt"><path d="M236.70574,184.10767c0.00396,0.00993 0.72458,0.76891 0.93386,0.8689c0.35204,0.16845 0.3097,-0.24858 0.65116,0.09658c0.25322,0.25597 0.14917,0.63622 0.24425,0.86992c0.10868,0.26639 -0.20471,0.71488 -0.48051,0.87587c-0.15322,0.08942 -0.3386,-0.06239 -0.32959,-0.01934c0.06122,0.29106 -0.16664,0.63133 -0.43528,0.629l-0.5846,-0.00487c-0.56787,-0.16271 -1.17074,-0.48364 -1.53013,-0.56189c-0.83956,-0.14307 -0.85479,-1.12322 -0.86198,-0.95471c0.18745,-0.81198 0.90164,-1.73841 1.71243,-2.143c0.16712,-0.07671 0.50988,-0.09798 0.6804,0.34351z" fill="#ffcfea"/><path d="M237.94677,182.39123c0.38375,0.11735 0.90721,0.492 0.97078,0.68754c0.04165,0.12858 -0.02354,0.53179 -0.21705,0.99246c-0.19352,0.46068 -0.50142,1.02475 -0.65688,1.08805c-0.22466,0.09174 -0.31699,0.06786 -0.61551,-0.16386c-0.29853,-0.23173 -0.39904,-0.15816 -0.75774,-0.41143c-0.35872,-0.25329 -0.67096,-0.19023 -0.63028,-0.55406c0.05588,-0.49956 0.42369,-1.5078 0.8501,-1.86777c0.23567,-0.17717 0.67283,0.11171 1.05659,0.22907z" fill="#fca03b"/></g><path d="M239.568,180.81858c-0.27611,-0.24282 0.10645,-1.72855 0.03494,-1.91073c-0.06799,-0.17235 0.29242,-1.16811 0.36888,-1.27888c0.29791,-0.43074 1.01025,-0.32006 1.1825,-0.32006c0.13636,0 0.78202,0.04613 0.88289,0.13011c0.32701,0.27241 0.41234,0.9786 0.40047,1.69625c-0.00403,0.82076 0.59032,1.28914 0.2496,1.67068c-0.40974,0.34297 -3.11928,0.01263 -3.11928,0.01263z" data-paper-data="{&quot;index&quot;:null}" fill="#c27e34" stroke="none" stroke-width="0.17188" stroke-linecap="butt"/><path d="M242.47781,179.01072c-0.76112,-0.67362 -1.66182,-1.48666 -1.31251,-1.68912c0.34934,-0.2026 2.15041,1.0218 3.38395,1.44031c0.77955,0.26466 1.13249,2.00893 0.08271,2.34288c-0.97093,0.30886 -1.24619,-0.50241 -1.44019,0.00583c-0.14939,0.39368 0.32495,-1.83741 -0.06238,-1.94968c0,0 0.29632,0.65565 -0.65157,-0.15022z" data-paper-data="{&quot;index&quot;:null}" fill="#c27e34" stroke="none" stroke-width="0.17188" stroke-linecap="butt"/><path d="M238.37181,177.75704c0,-0.51334 1.17861,-0.44414 2.3646,-0.44414c1.186,0 2.16052,-0.46559 2.16052,0.04775c0,0.09149 0.05779,0.14811 -0.18415,0.3482c-0.13449,0.11122 0.38174,0.1634 0.19684,0.28743c-0.41662,0.27946 -1.69529,0.07931 -2.22423,0.07931c-0.438,0 -1.88844,0.36799 -2.21704,0.13437c-0.19722,-0.14022 0.45234,-0.13297 0.3122,-0.24058c-0.2586,-0.19856 -0.40873,-0.13346 -0.40873,-0.21233z" fill="#ffe340" stroke="none" stroke-width="0" stroke-linecap="butt"/><path d="M239.69315,177.34591c0,-0.07045 0.28665,0.05651 1.08552,-0.02551c0.49694,-0.05102 1.10443,-0.12807 1.10443,-0.05762c0,0.07044 -1.89317,0.38071 -2.16581,0.3909c-0.27265,0.01019 -0.02415,-0.23732 -0.02415,-0.30777z" fill="#000000" stroke="none" stroke-width="0" stroke-linecap="butt"/><g data-paper-data="{&quot;index&quot;:null}" stroke="none" stroke-width="0.17188" stroke-linecap="butt"><path d="M242.12471,180.55162c0.30698,0.36022 0.12503,0.65147 -0.02202,0.76188c-0.74193,0.52021 -1.89669,0.70692 -2.69993,0.48501c0.15159,0.07394 -0.70297,-0.40629 -0.4289,-1.21264c0.10237,-0.35328 0.10733,-1.03624 0.23474,-1.61306l0.27416,-0.51635c0.1259,-0.23731 0.53363,-0.2756 0.76039,-0.08314c0.03356,0.02844 -0.01163,-0.20687 0.13998,-0.29901c0.27291,-0.16583 0.81654,-0.22779 0.999,-0.00534c0.16019,0.19491 0.54411,0.28453 0.64857,0.62911c0.14085,0.46464 -0.20567,0.22878 -0.22523,0.61856c-0.01176,0.23165 0.31237,1.22678 0.31922,1.23499z" fill="#ffcfea"/><path d="M243.92319,181.3161c-0.51961,0.20348 -1.58132,0.04667 -2.04719,-0.14214c-0.33928,-0.13752 -0.13513,-0.38205 -0.18698,-0.8181c-0.05185,-0.43604 0.06072,-0.48937 -0.00085,-0.86223c-0.06156,-0.37286 -0.0386,-0.46542 0.14908,-0.61926c0.1297,-0.10655 0.77233,-0.10862 1.26957,-0.05935c0.49724,0.04927 0.88282,0.184 0.97604,0.28186c0.14167,0.14903 0.22177,0.78775 0.14217,1.18107c-0.0796,0.39333 -0.03381,0.91532 -0.30184,1.03815z" fill="#fca03b"/></g><path d="M236.61693,168.03629c0,0 0.69561,-1.44961 1.73599,-2.53078c0.85701,-0.89061 3.25764,-2.32498 3.99699,-2.59968c0.72068,-0.26776 4.39039,-0.69218 7.12765,-0.17337c2.73727,0.51881 6.09993,2.69407 6.09993,2.69407c0,0 -3.92675,-0.23283 -6.21393,0.21305c-2.28717,0.44588 -2.23729,0.64933 -3.50723,1.36832c-1.26994,0.71898 -1.19588,1.26258 -1.19588,1.26258c0,0 -2.23811,-0.77099 -3.52581,-0.80848c-1.38621,-0.04036 -4.51772,0.57429 -4.51772,0.57429z" fill="#c27e34" stroke="none" stroke-width="0" stroke-linecap="butt"/><g stroke-width="0" stroke-linecap="butt"><path d="M255.09055,166.41957c-0.41026,-0.24867 -0.54122,-0.78283 -0.29255,-1.19307c0.24867,-0.41026 0.78284,-0.54123 1.19308,-0.29257c0.41026,0.24867 0.54122,0.78283 0.29255,1.19307c-0.24867,0.41026 -0.78285,0.54123 -1.19308,0.29257z" fill="#db7b04" stroke="none"/><path d="M256.00962,164.84404c0.14096,0.08545 -0.16054,0.47699 -0.40106,0.87378c-0.24053,0.39678 -0.3841,0.85044 -0.52506,0.765c-0.2147,-0.13015 -0.01555,-0.55012 0.22496,-0.9469c0.24053,-0.39678 0.46188,-0.83691 0.70117,-0.69186z" fill="#feeb00" stroke="#000000"/><path d="M256.24871,166.04826c0.15492,0.0939 0.00631,0.1233 -0.04065,0.20075c-0.04696,0.07746 -0.43703,-0.00591 -0.59193,-0.09981c-0.15492,-0.09389 0.01379,-0.21194 0.06076,-0.28939c0.04697,-0.07745 0.41693,0.09454 0.57183,0.18846z" fill="#000000" stroke="none"/><path d="M256.02599,165.29736c0.02469,-0.04073 0.01506,-0.15892 0.12365,-0.09309c0.10859,0.06583 0.26973,0.27587 0.24505,0.3166c-0.02468,0.04073 -0.10816,0.03527 -0.21676,-0.03056c-0.10859,-0.06583 -0.17664,-0.15221 -0.15194,-0.19294z" fill="#000000" stroke="none"/></g><path d="M240.96799,175.33537c0,-0.32172 0.80526,-0.12708 1.39624,-0.26252c0.15674,-0.03592 0.33217,-0.09323 0.5003,-0.14139c0.39354,-0.11273 0.74705,-0.17532 0.72717,0.20391c-0.02836,0.54124 -0.53507,0.78252 -1.18527,0.78252c-0.60801,0 -1.43843,-0.26081 -1.43843,-0.58253z" fill="url(#color-1)" stroke="none" stroke-width="0" stroke-linecap="butt"/><path d="M237.74264,174.90057c0,0.32172 -0.46339,0.58253 -0.80266,0.58253c-0.36282,0 -0.76556,-0.40128 -0.78139,-0.94252c-0.01109,-0.37923 0.26617,0.00336 0.48577,0.11608c0.09382,0.04816 0.27171,0.06547 0.35917,0.10139c0.32977,0.13544 0.73911,-0.17919 0.73911,0.14253z" data-paper-data="{&quot;index&quot;:null}" fill="url(#color-2)" stroke="none" stroke-width="0" stroke-linecap="butt"/></g></g></svg>