<svg version="1.1" xmlns="http://www.w3.org/2000/svg" xmlns:xlink="http://www.w3.org/1999/xlink" width="32.57439" height="28.34086" viewBox="0,0,32.57439,28.34086"><defs><radialGradient cx="233.8057" cy="178.28088" r="13.2319" gradientUnits="userSpaceOnUse" id="color-1"><stop offset="0" stop-color="#f8b820"/><stop offset="1" stop-color="#e88820"/></radialGradient></defs><g transform="translate(-225.88908,-165.10084)"><g data-paper-data="{&quot;isPaintingLayer&quot;:true}" fill-rule="nonzero" stroke-linejoin="miter" stroke-miterlimit="10" stroke-dasharray="" stroke-dashoffset="0" style="mix-blend-mode: normal"><g data-paper-data="{&quot;index&quot;:null}" stroke="none" stroke-width="1" stroke-linecap="round"><path d="M235.90129,182.31898c-1.9119,-0.45072 -4.10708,-3.16545 -5.47135,-4.59599c-0.03563,-0.06819 -3.92711,-4.94862 -3.38923,-6.07188c0.26536,-1.41628 -1.75437,-2.8019 -0.96919,-3.78424c0.48448,-0.23317 1.57657,1.60679 2.00191,1.67979c0.50853,0.08485 -1.01702,-2.54516 -0.13441,-2.18157c1.38831,0.57191 4.39935,1.72817 6.15634,3.77417c1.75698,2.04601 5.3132,4.40088 4.86993,6.57409c-0.18793,0.92007 -1.66015,1.00457 -2.18827,1.78148c-0.55272,0.81253 0.02137,3.03534 -0.87573,2.82414z" data-paper-data="{&quot;index&quot;:null}" fill="#f8f8f8"/><path d="M242.58395,186.89875c0.28695,1.06403 0.75752,2.03748 -0.27641,1.26731c-4.13696,-3.08026 -8.34226,-6.59382 -11.73866,-10.17038c-0.83946,-0.88531 2.50637,1.55138 3.37657,1.35971c0.49643,-0.1105 -1.20005,-1.64527 -0.5875,-1.96466c1.17897,-0.71321 2.97744,0.61035 4.1704,-0.10052c0.91106,-0.54382 -0.1746,-3.38741 0.30513,-2.39565c3.19544,4.40074 3.60445,7.74774 4.75049,12.00418z" data-paper-data="{&quot;index&quot;:null}" fill="url(#color-1)"/></g><path d="M246.57705,178.8652c-0.14238,-1.95915 1.60334,-4.64319 2.48438,-6.31928c1.03999,-1.04029 3.74047,-5.51546 5.04126,-5.3288c1.43077,-0.17085 2.1481,-2.51279 3.32047,-2.05774c0.36753,0.39246 -1.06106,1.98533 -1.00337,2.41301c0.0713,0.51061 2.12391,-1.73238 2.04125,-0.78141c-0.13002,1.49584 -0.33172,4.71497 -1.75783,7.00393c-1.42611,2.28896 -2.60822,6.38709 -4.81446,6.61483c-0.93414,0.09616 -1.45554,-1.28323 -2.35493,-1.55451c-0.94075,-0.2841 -2.8897,0.92916 -2.95679,0.00998z" data-paper-data="{&quot;index&quot;:null}" fill="#f8f8f8" stroke="none" stroke-width="1" stroke-linecap="round"/><path d="M244.20815,186.6125c-0.92931,0.59236 -1.71721,1.3328 -1.29194,0.11571c1.70036,-4.86941 3.79366,-9.93377 6.18927,-14.2452c0.59337,-1.06602 -0.7298,2.85588 -0.28639,3.62877c0.25406,0.44057 1.21051,-1.63759 1.69864,-1.14877c1.03348,0.91135 0.3091,3.02359 1.34454,3.94899c0.79164,0.70645 3.00402,-0.98933 2.20139,-0.23467c-2.33811,3.6251 -6.13743,5.56734 -9.8555,7.93518z" data-paper-data="{&quot;index&quot;:null}" fill="#f8b820" stroke="none" stroke-width="1" stroke-linecap="round"/><g data-paper-data="{&quot;index&quot;:null}"><g data-paper-data="{&quot;index&quot;:null}"><path d="M246.91181,185.38191l0.81026,-0.15408c0,0 1.83325,2.17302 2.52669,3.44163c0.57848,1.05827 1.18805,2.73145 1.35374,3.43372c0.28608,1.21256 -0.36682,1.13692 -0.36682,1.13692c0,0 -0.65299,-3.20287 -1.25961,-4.38216c-0.43245,-0.84077 -3.06426,-3.47603 -3.06426,-3.47603z" fill="#989898" stroke="#989898" stroke-width="0" stroke-linecap="round"/><path d="M246.04881,187.43795c-0.01746,-0.56204 -0.03929,-1.00288 0.27939,-1.51525c0.45301,-0.72836 0.88429,-0.61983 1.27608,-0.26681c0.8245,0.74339 1.85008,2.31878 1.85008,2.31878l-2.53409,2.41421c0,0 -0.84346,-2.08947 -0.87145,-2.95094z" fill="#f82020" stroke="none" stroke-width="1.13968" stroke-linecap="round"/><path d="M249.387,187.91265c0,0 0.18497,0.06958 0.63717,0.95508c0.4522,0.88548 0.93108,2.1047 1.2235,3.16092c0.11669,0.42363 0.35196,1.13842 0.02749,1.26372c-0.55233,0.21339 -1.80296,0.23387 -2.38093,-0.17718c-0.57437,-0.40881 -1.9432,-2.12541 -2.01317,-2.85807c-0.11101,-1.30703 2.50593,-2.34446 2.50593,-2.34446z" fill="#f8f8f8" stroke="none" stroke-width="1.15102" stroke-linecap="round"/><path d="M244.31525,188.03917c-0.11062,-0.41407 -0.61041,-1.06309 -0.27745,-1.60811c0.37822,-0.61909 0.92802,-0.07148 0.92802,-0.07148c0,0 0.01036,-0.64486 0.45776,-0.511c0.4344,0.12998 0.49586,0.40563 0.61038,0.68973c0.19244,0.47737 0.15434,1.37488 0.2001,1.54617c0.22883,0.85652 0.81355,2.066 0.36423,2.18604c-0.11918,0.03185 -0.74193,-0.04834 -0.74193,-0.04834c0,0 -0.47344,0.63446 -0.75554,0.31618c-0.36596,-0.41289 -0.69063,-2.14381 -0.78557,-2.49919z" fill="#ffffff" stroke="none" stroke-width="0" stroke-linecap="butt"/></g><path d="M244.49891,187.76964c0.3187,0.39448 0.31862,1.16936 -0.05137,1.45294c-0.57479,0.44986 -1.4531,0.43562 -2.12582,0.23736c-0.41177,-0.11657 -0.67732,-0.5709 -0.79439,-1.01007c-0.21044,-0.78532 -0.41027,-1.6666 -0.16594,-2.43671c0.09708,-0.30141 0.74951,-0.34222 1.00038,-0.12056c0.44866,0.39478 0.20934,1.28252 0.65957,1.68044c0.38249,0.33671 1.16385,-0.18665 1.47756,0.19661z" data-paper-data="{&quot;index&quot;:null}" fill="#e88820" stroke="none" stroke-width="0.49091" stroke-linecap="round"/></g><path d="M246.10534,186.4235c-0.54881,1.45844 -2.14383,2.20795 -4.39319,1.36153c-1.72967,-0.65087 -2.94445,-1.90607 -3.16389,-3.11448c-0.06593,-0.36306 -2.65782,-1.28191 -0.09008,-2.72037c1.54924,-0.86788 3.1752,1.66491 3.59956,1.86814c1.64394,-0.20376 2.59895,-0.29593 3.49508,0.04128c0.71663,0.26967 1.10133,1.10546 0.55253,2.5639z" data-paper-data="{&quot;index&quot;:null}" fill="#f8b820" stroke="none" stroke-width="0" stroke-linecap="butt"/><path d="M243.42166,188.14909c0,0 -1.70744,-0.28768 -2.91114,-0.94368c-1.14368,-0.55562 -1.81616,-1.35774 -2.70466,-2.00401c-0.24576,-0.17876 -1.35277,-0.25436 -1.26017,-0.42848c0.0807,-0.15173 1.14059,-0.00122 1.01917,-0.0929c-0.14241,-0.10752 -1.4994,-0.23338 -1.0747,-0.36018c0.42471,-0.1268 1.9742,0.09165 1.9742,0.09165l2.06539,-0.03291c0,0 -0.91403,0.49042 -0.751,0.54684c0.17358,0.06006 0.82598,-0.34359 1.02389,-0.34247c0.42501,0.00243 -0.56272,0.66509 -0.42918,0.71677c0.4442,0.17192 1.20803,0.06798 2.02016,0.31869c2.31976,0.71613 1.08222,2.38669 1.08222,2.38669z" data-paper-data="{&quot;index&quot;:null}" fill="#f8f8f8" stroke="none" stroke-width="0" stroke-linecap="butt"/><path d="M239.96482,170.95757c0.97612,1.14192 1.55302,2.76959 1.55302,2.76959c0,0 2.4717,3.01614 2.08671,5.28663c-0.32813,1.93133 -2.77384,2.87741 -4.51505,3.77019c-1.40601,0.72144 -3.36035,1.67137 -4.66662,0.86468c-1.54439,-0.95519 -2.12263,-4.00585 -2.97323,-5.61094c-0.31993,-0.60626 -1.13199,-1.21361 -1.83718,-2.22299c-0.70518,-1.00937 -1.47908,-1.84363 -1.42697,-2.59152c-0.07785,-0.58129 1.33283,-0.09904 2.18281,0.14572c0.84997,0.24476 2.15532,0.65926 2.85595,0.56977c0.79782,-0.16122 1.03168,-0.08546 1.67174,-0.62297c0.37859,-0.31729 1.85095,-4.75439 2.37248,-4.81994c0.61936,-0.07709 1.72022,1.31988 2.69634,2.46179z" data-paper-data="{&quot;index&quot;:null}" fill="#f8b820" stroke="none" stroke-width="1" stroke-linecap="round"/><path d="M240.06467,173.6063c-0.08245,0.11176 -1.45544,-0.22988 -2.27199,-0.27982c-0.81654,-0.04994 -1.65343,0.18431 -1.74764,0.02233c-0.24491,-0.43088 0.31764,-1.23874 0.35855,-1.72758c0.04304,-0.51294 0.82002,-2.35052 1.11118,-2.35883c0.32877,-0.0071 2.71397,4.1198 2.54988,4.3439z" data-paper-data="{&quot;index&quot;:null}" fill="#ffffff" stroke="none" stroke-width="0.85185" stroke-linecap="butt"/><path d="M243.78163,178.18167c-0.13313,0.35598 -1.21772,1.07373 -0.89633,1.10541c0.63424,0.06361 1.15562,-0.54389 1.15562,-0.54389c0,0 -0.26444,0.59373 -0.68801,1.34352c-0.07924,0.14014 1.53366,-0.22126 1.53366,-0.22126l-1.11717,1.4852l0.80694,0.57554c0,0 -2.1808,0.55247 -2.44685,0.86759c-0.29372,0.34753 -0.89154,1.09502 -1.62801,1.5934c-0.73647,0.49838 -1.81746,1.06159 -2.6053,1.33447c-0.72559,0.22185 -1.85392,0.32059 -2.9188,-0.09928c-0.59915,-0.11017 -1.4381,-1.20842 -1.14978,-1.66071c0.50343,-0.78967 1.81105,-1.07822 2.76894,-0.97735c0.84697,0.08919 1.80155,-0.2091 2.51959,-0.66061c0.70977,-0.43196 1.16585,-0.92556 1.59619,-1.65326c0.65086,-1.09966 3.24468,-2.95896 3.06932,-2.48879z" data-paper-data="{&quot;index&quot;:null}" fill="#f8f8f8" stroke="none" stroke-width="1" stroke-linecap="round"/><path d="M234.40737,183.54407c0.33267,-0.13471 0.39252,-0.07768 0.65632,-0.05328c0.26379,0.0244 0.01603,0.75742 -0.31665,0.89213c-0.33268,0.13471 -1.18221,-0.154 -1.00971,-0.35504c0.17251,-0.20106 0.33737,-0.34909 0.67005,-0.48381z" data-paper-data="{&quot;index&quot;:null}" fill="#101010" stroke="none" stroke-width="1" stroke-linecap="butt"/><path d="M239.49911,183.88828l-1.33119,1.37839" data-paper-data="{&quot;index&quot;:null}" fill="none" stroke="#cccccc" stroke-width="0.36953" stroke-linecap="round"/><path d="M232.47231,174.93949c0,0 -1.18322,1.36182 -1.46246,1.47488c-0.14315,0.05796 -1.0968,-0.81637 -1.59943,-1.49022c-0.50263,-0.67384 -0.86464,-1.63136 -0.86464,-1.63136z" fill="#ffffff" stroke="none" stroke-width="0" stroke-linecap="butt"/><path d="M233.64012,177.39962l-1.66347,2.4863l-0.40976,2.65528l-0.40869,-3.23107l1.94303,-2.29107z" fill="#f8b820" stroke="none" stroke-width="1.22222" stroke-linecap="round"/><path d="M232.99011,177.03903l-2.14792,1.06374l-1.27897,2.70284c0,0 0.07512,-2.84947 0.35099,-3.20877c0.1935,-0.25205 2.77121,-1.32211 2.77121,-1.32211z" fill="#f8b820" stroke="none" stroke-width="1.22222" stroke-linecap="round"/><path d="M232.81395,175.88611c0,0 -1.58289,-0.07881 -2.48624,0.31603c-0.90335,0.39483 -3.61765,2.35181 -3.61765,2.35181c0,0 2.09806,-2.86199 2.7071,-3.12081c0.36926,-0.15691 3.47775,-0.46104 3.47775,-0.46104z" fill="#f8b820" stroke="none" stroke-width="1.22222" stroke-linecap="round"/><g data-paper-data="{&quot;index&quot;:null}"><path d="M247.50492,185.07777c0.50696,0.0097 1.10018,0.50806 1.07943,0.97376c-0.02517,0.72957 -0.60104,1.39297 -1.18541,1.78052c-0.35413,0.24024 -0.8728,0.15146 -1.28439,-0.04137c-0.73667,-0.34399 -1.54001,-0.75774 -1.97259,-1.44016c-0.16833,-0.26817 0.21998,-0.79402 0.55113,-0.84351c0.59077,-0.08965 1.11665,0.66455 1.71099,0.57572c0.50378,-0.0763 0.60555,-1.0112 1.10085,-1.00498z" data-paper-data="{&quot;index&quot;:null}" fill="#f8b820" stroke="none" stroke-width="0.49091" stroke-linecap="round"/><g data-paper-data="{&quot;index&quot;:null}"><path d="M247.32737,181.93574l0.46783,-0.67925c0,0 2.83146,0.25624 4.21651,0.67075c1.15543,0.34579 2.76531,1.10698 3.3769,1.48986c1.05598,0.66109 0.53852,1.06635 0.53852,1.06635c0,0 -2.71627,-1.8184 -3.97679,-2.23043c-0.89866,-0.29379 -4.62297,-0.31726 -4.62297,-0.31726z" fill="#989898" stroke="#989898" stroke-width="0" stroke-linecap="round"/><path d="M248.15931,184.00456c-0.40759,-0.38739 -0.73307,-0.68551 -0.86672,-1.2739c-0.18998,-0.83646 0.19299,-1.06251 0.71982,-1.08694c1.10897,-0.05112 2.94591,0.34805 2.94591,0.34805l-0.10452,3.49842c0,0 -2.06889,-0.89276 -2.69449,-1.48564z" fill="#f82020" stroke="none" stroke-width="1.13968" stroke-linecap="round"/><path d="M250.86679,181.99493c0,0 0.18046,-0.08057 1.12461,0.23114c0.94413,0.31171 2.14189,0.84198 3.09246,1.38743c0.38084,0.2192 1.0507,0.56206 0.90807,0.87928c-0.24272,0.54009 -1.11762,1.43397 -1.81762,1.54805c-0.69586,0.11316 -2.87616,-0.14509 -3.44106,-0.61688c-0.99793,-0.85136 0.13353,-3.42905 0.13353,-3.42905z" fill="#f8f8f8" stroke="none" stroke-width="1.15102" stroke-linecap="round"/><path d="M247.34932,185.65088c-0.36981,-0.21667 -1.18151,-0.32677 -1.32797,-0.94842c-0.16634,-0.70615 0.60965,-0.70332 0.60965,-0.70332c0,0 -0.44607,-0.46585 -0.03377,-0.68522c0.40029,-0.21302 0.63781,-0.06018 0.91898,0.0613c0.4725,0.20415 1.07642,0.86914 1.2294,0.95876c0.76494,0.44817 2.03112,0.89711 1.79602,1.2984c-0.06236,0.10645 -0.56158,0.48728 -0.56158,0.48728c0,0 0.10944,0.78403 -0.31495,0.75606c-0.55054,-0.03629 -1.99841,-1.03887 -2.3158,-1.22481z" fill="#ffffff" stroke="none" stroke-width="0" stroke-linecap="butt"/></g></g><path d="M240.50161,180.56702l-3.16667,1.66667l2.16667,-4.41667" data-paper-data="{&quot;index&quot;:null}" fill="none" stroke="#5d2404" stroke-width="0.5" stroke-linecap="round"/><path d="M231.58495,180.65036l3.66667,2.16667l-3,0.5" data-paper-data="{&quot;index&quot;:null}" fill="none" stroke="#5d2404" stroke-width="0.5" stroke-linecap="round"/></g></g></svg>