<svg version="1.1" xmlns="http://www.w3.org/2000/svg" xmlns:xlink="http://www.w3.org/1999/xlink" width="397.59361" height="79.06507" viewBox="0,0,397.59361,79.06507"><g transform="translate(-41.2032,-113.54924)"><g data-paper-data="{&quot;isPaintingLayer&quot;:true}" fill-rule="nonzero" stroke="none" stroke-linecap="butt" stroke-linejoin="miter" stroke-miterlimit="10" stroke-dasharray="" stroke-dashoffset="0" style="mix-blend-mode: normal"><path d="M41.2032,192.06185v-23.20262h9.39154l6.07687,10.35832v-10.35832h8.28666v23.20262h-9.39154l-6.07688,-10.02686v10.02686z" fill="#ffffff" stroke-width="0.26459"/><path d="M67.72048,182.39409v-13.53486h7.73422v13.53486c0,2.20978 0.92074,3.31466 2.76222,3.31466h0.55244c1.65733,0 2.48599,-1.10488 2.48599,-3.31466v-13.53486h7.18176v13.53486c0,6.62932 -3.31466,9.94398 -9.94398,9.94398c-7.18176,0 -10.77265,-3.31466 -10.77265,-9.94398z" fill="#ffffff" stroke-width="0.26459"/><path d="M91.19934,192.06185l4.14332,-23.20262h6.62932l3.03845,9.39153l3.03844,-9.39153h6.62932l4.14332,23.20262h-6.90554l-1.65733,-10.22019l-2.20978,10.22019h-6.07689l-2.20977,-10.22019l-1.65733,10.22019z" fill="#ffffff" stroke-width="0.26459"/><path d="M132.90883,187.6423c1.47319,0 2.20977,-0.73659 2.20977,-2.20977v-1.10489c0,-1.1049 -0.73658,-1.65734 -2.20977,-1.65734h-3.31466v4.972zM121.58373,168.85923h13.53487c5.52444,0 8.28665,2.02562 8.28665,6.07686v1.10488c0,1.84149 -0.82865,3.31467 -2.48598,4.41955c1.65733,0.92076 2.48598,2.20979 2.48598,3.86712v1.10489c0,4.41954 -2.76221,6.62932 -8.28665,6.62932h-13.53487zM135.1186,176.04098v-1.10488c0,-1.10487 -0.73658,-1.65732 -2.20977,-1.65732h-3.31466v4.97198h3.31466c1.47319,0 2.20977,-0.73659 2.20977,-2.20978z" fill="#ffffff" stroke-width="0.26459"/><path d="M146.16748,192.06185v-23.20262h19.33552v6.62932h-11.04887v1.65732h11.04887v6.62932h-11.04887v1.65734h11.04887v6.62932z" fill="#ffffff" stroke-width="0.26459"/><path d="M168.26521,192.06185v-23.20262h13.53487c5.52444,0 8.28665,2.02562 8.28665,6.07686v1.10488c0,2.94636 -1.19696,4.87992 -3.59088,5.80068c0.73658,0.36828 1.47319,1.19694 2.20978,2.48598l2.20977,7.73421h-8.28665l-1.65733,-6.3531c-0.3683,-1.65733 -1.38111,-2.48599 -3.03844,-2.48599h-1.65733v8.83909zM179.59031,178.25075c1.47319,0 2.20978,-0.73659 2.20978,-2.20978v-1.10488c0,-1.10487 -0.73659,-1.65732 -2.20978,-1.65732h-3.31466v4.97198z" fill="#ffffff" stroke-width="0.26459"/><path d="M207.82016,180.73677c0,-3.68296 1.10488,-6.58328 3.31466,-8.701c2.20979,-2.11769 5.24823,-3.17654 9.11533,-3.17654c3.86711,0 6.90553,1.05885 9.11531,3.17654c2.20978,2.11772 3.31466,5.01804 3.31466,8.701c0,3.1305 -1.10488,5.89273 -3.31466,8.28664c-2.20978,2.39393 -5.2482,3.5909 -9.11531,3.5909c-3.86711,0 -6.90555,-1.19697 -9.11533,-3.5909c-2.20978,-2.39391 -3.31466,-5.15614 -3.31466,-8.28664zM219.97394,176.04098c-1.84149,1.1049 -3.2226,2.30186 -4.14333,3.5909c-0.92073,1.10487 -1.10488,2.48597 -0.55246,4.1433l0.55246,0.55246c0.92073,1.28904 2.48598,1.65733 4.69576,1.10489c1.84149,-1.1049 3.22261,-2.30186 4.14334,-3.59087c1.10487,-1.47319 1.10487,-3.13052 0,-4.972l-0.55246,-0.55243c-1.10487,-0.73658 -2.48597,-0.82867 -4.1433,-0.27624z" fill="#ffffff" stroke-width="0.26459"/><path d="M235.44236,192.06185v-23.20262h19.33553v6.62932h-11.04886v1.65732h11.04886v6.62932h-11.04886v8.28666z" fill="#ffffff" stroke-width="0.26459"/><path d="M271.68264,192.06185v-23.20262h13.53488c5.52442,0 8.28664,2.02562 8.28664,6.07686v1.10488c0,4.41954 -2.76222,6.62932 -8.28664,6.62932h-5.52443v9.39155zM283.00775,178.25075c1.47319,0 2.20977,-0.73659 2.20977,-2.20978v-1.10488c0,-1.10487 -0.73659,-1.65732 -2.20977,-1.65732h-3.31466v4.97198z" fill="#ffffff" stroke-width="0.26459"/><path d="M296.26636,192.06185v-23.20262h8.28666v16.5733h11.04887v6.62932z" fill="#ffffff" stroke-width="0.26459"/><path d="M318.36412,192.06185l6.90553,-23.20262h12.42997l6.90556,23.20262h-8.01045l-1.3811,-4.41955h-7.73421l-1.10489,4.41955zM333.55633,181.56541l-2.07168,-6.90553l-2.07166,6.90553z" fill="#ffffff" stroke-width="0.26459"/><path d="M353.99674,181.56541l-6.62932,-12.70618h7.73421l2.7622,8.01042l2.76223,-8.01042h7.73421l-6.62932,12.70618v10.49644h-7.73421z" fill="#ffffff" stroke-width="0.26459"/><path d="M371.12248,192.06185v-23.20262h19.33553v6.62932h-11.04887v1.65732h11.04887v6.62932h-11.04887v1.65734h11.04887v6.62932z" fill="#ffffff" stroke-width="0.26459"/><path d="M393.22024,192.06185v-23.20262h13.53488c5.52442,0 8.28664,2.02562 8.28664,6.07686v1.10488c0,2.94636 -1.19696,4.87992 -3.59087,5.80068c0.73658,0.36828 1.47319,1.19694 2.20977,2.48598l2.20978,7.73421h-8.28667l-1.65731,-6.3531c-0.3683,-1.65733 -1.38112,-2.48599 -3.03845,-2.48599h-1.65731v8.83909zM404.54535,178.25075c1.47319,0 2.20977,-0.73659 2.20977,-2.20978v-1.10488c0,-1.10487 -0.73658,-1.65732 -2.20977,-1.65732h-3.31466v4.97198z" fill="#ffffff" stroke-width="0.26459"/><path d="M420.84241,192.06185c-0.92075,-0.18415 -1.65734,-0.36828 -2.20977,-0.55243l1.10488,-5.52444l3.31466,0.27622c2.57806,0.18415 4.60368,0.18415 6.07686,0c0.73658,-0.3683 1.10489,-0.92076 1.10489,-1.65734c-0.18415,-0.73658 -1.84147,-1.10489 -4.97197,-1.10489c-2.76222,-0.36828 -4.69578,-1.3811 -5.80068,-3.03844c-0.55243,-1.28902 -0.82864,-2.7622 -0.82864,-4.41955c0,-2.57806 0.92073,-4.5116 2.7622,-5.80065c1.28904,-0.92073 3.59089,-1.3811 6.90553,-1.3811c3.31468,0 6.62933,0.27623 9.94401,0.82867l-1.10492,5.24819c-3.8671,-0.18415 -6.53724,-0.27622 -8.01042,-0.27622c-1.28904,0.18415 -1.93356,0.64452 -1.93356,1.3811c-0.18415,1.28904 0.82867,1.93356 3.03845,1.93356c3.13051,0 5.43235,0.55245 6.90553,1.65734c1.1049,0.92073 1.65735,2.48598 1.65735,4.69576c0,1.91514 -0.46037,3.57247 -1.3811,4.972c-0.92075,1.65733 -3.22261,2.67014 -6.90557,3.03842c-3.13051,0.18416 -6.35309,0.09208 -9.66774,-0.27622z" fill="#ffffff" stroke-width="0.26459"/><g stroke-width="0"><path d="M52.44977,149.04785l-9.82887,-26.36851c0,0 8.11779,-2.0515 13.46446,-2.0515c5.34667,0 9.25574,2.56443 9.25574,2.56443l5.62716,24.43113c0,0 -6.31762,-0.20185 -9.54697,-0.01399c-3.54642,0.20631 -8.97153,1.43844 -8.97153,1.43844z" fill="#ff0000"/><path d="M73.66298,147.52295l-5.54817,-24.38404c0,0 6.64354,-1.80665 10.25856,-2.2067c4.56041,-0.50468 8.92204,1.25975 8.92204,1.25975l6.71621,25.56773c0,0 -6.40703,-0.82858 -9.78231,-0.82858c-3.85978,0 -10.56633,0.59184 -10.56633,0.59184z" fill="#ff0000"/><path d="M55.09609,146.18567l-8.80235,-23.61458c0,0 7.26997,-1.83724 12.05823,-1.83724c4.78826,0 8.28907,2.2966 8.28907,2.2966l5.03947,21.87954c0,0 -5.65781,-0.18078 -8.54989,-0.01253c-3.17604,0.18476 -8.03454,1.28821 -8.03454,1.28821z" fill="#71ff33"/><path d="M74.59823,144.82003l-4.96872,-21.83737c0,0 5.77058,-1.61796 9.00805,-1.97624c4.08412,-0.45197 7.99022,1.12818 7.99022,1.12818l6.01477,22.89744c0,0 -5.73788,-0.74205 -8.76064,-0.74205c-3.45666,0 -9.28367,0.53003 -9.28367,0.53003z" fill="#70ff33"/><path d="M64.99403,137.79344l-4.56724,-19.90309l-4.37967,-0.4942l3.62936,-2.25394l2.15272,-1.59297l5.31756,22.65124z" fill="#ff0000"/><path d="M78.99001,125.00149c3.57432,-0.24956 6.19998,-0.30943 6.19998,-0.30943l1.29861,3.06483l-2.78281,-1.50296c0,0 -3.3818,0.21989 -4.64079,0.32044c-4.01888,0.32097 -6.42866,0.28 -6.42866,0.28c0,0 2.64775,-1.59413 6.35368,-1.85288z" data-paper-data="{&quot;index&quot;:null}" fill="#ff0000"/><path d="M80.79001,131.80149c3.57432,-0.24957 6.19998,-0.30943 6.19998,-0.30943l1.29861,3.06483l-2.78281,-1.50296c0,0 -3.38181,0.21989 -4.64079,0.32044c-4.01889,0.32097 -6.42867,0.28001 -6.42867,0.28001c0,0 2.64775,-1.59414 6.35368,-1.85289z" data-paper-data="{&quot;index&quot;:null}" fill="#ff0000"/><path d="M82.19001,138.80149c3.57432,-0.24956 6.19998,-0.30943 6.19998,-0.30943l1.29861,3.06483l-2.78281,-1.50296c0,0 -3.3818,0.21989 -4.64079,0.32044c-4.01889,0.32097 -6.42867,0.28001 -6.42867,0.28001c0,0 2.64775,-1.59413 6.35368,-1.85289z" data-paper-data="{&quot;index&quot;:null}" fill="#ff0000"/></g><g stroke-width="0.26459"><path d="M105.80686,146.15984c-0.94659,-0.19923 -1.70385,-0.39849 -2.27179,-0.59773l1.1359,-5.97724l3.4077,0.29886c2.65043,0.19923 4.73292,0.19923 6.24746,0c0.75726,-0.39849 1.1359,-0.99621 1.1359,-1.79318c-0.18931,-0.79697 -1.89315,-1.19545 -5.11154,-1.19545c-2.83975,-0.39849 -4.82758,-1.49432 -5.96348,-3.28749c-0.56794,-1.39469 -0.85193,-2.98863 -0.85193,-4.78181c0,-2.78939 0.94658,-4.88141 2.83975,-6.2761c1.32521,-0.99621 3.69167,-1.49432 7.09937,-1.49432c3.40769,0 6.8154,0.29887 10.22309,0.8966l-1.1359,5.67838c-3.97564,-0.19923 -6.72072,-0.29886 -8.23526,-0.29886c-1.32521,0.19923 -1.98783,0.69734 -1.98783,1.4943c-0.18931,1.39469 0.85193,2.09204 3.12373,2.09204c3.21839,0 5.58482,0.59772 7.09937,1.79317c1.1359,0.99621 1.70385,2.68975 1.70385,5.08066c0,2.07212 -0.47328,3.8653 -1.41987,5.37953c-0.94658,1.79318 -3.31303,2.889 -7.09937,3.28749c-3.21839,0.19923 -6.53143,0.09963 -9.93912,-0.29886z" fill="#ff0000"/><path d="M133.92038,146.15984v-17.33404h-6.8154v-7.77042h21.58209v7.77042h-6.81539v17.33404z" fill="#ff0000"/><path d="M151.52683,133.90651c0,-3.98484 1.1359,-7.12289 3.40769,-9.41416c2.27179,-2.29128 5.39552,-3.43693 9.37117,-3.43693c3.97564,0 7.09937,1.14564 9.37118,3.43693c2.27179,2.29128 3.40769,5.42933 3.40769,9.41416c0,3.38711 -1.1359,6.37573 -3.40769,8.96587c-2.27179,2.59014 -5.39552,3.88522 -9.37118,3.88522c-3.97564,0 -7.09937,-1.29509 -9.37117,-3.88522c-2.27179,-2.59014 -3.40769,-5.57876 -3.40769,-8.96587zM164.02172,128.82583c-1.89316,1.19546 -3.31304,2.49053 -4.25963,3.88522c-0.94658,1.19545 -1.1359,2.68975 -0.56794,4.48293l0.56794,0.59772c0.94658,1.39468 2.55578,1.79317 4.82757,1.19545c1.89316,-1.19545 3.31303,-2.49052 4.25962,-3.8852c1.1359,-1.59394 1.1359,-3.38711 0,-5.37953l-0.56795,-0.59772c-1.1359,-0.79697 -2.55576,-0.8966 -4.25961,-0.29887z" fill="#ff0000"/><path d="M179.92431,146.15984v-25.10446h13.91476c5.67949,0 8.51923,2.19167 8.51923,6.57498v1.19545c0,3.18786 -1.23055,5.27991 -3.69167,6.27613c0.75726,0.39849 1.51454,1.29507 2.27179,2.68975l2.2718,8.36816h-8.51924l-1.70385,-6.87385c-0.37864,-1.79318 -1.41987,-2.68977 -3.12372,-2.68977h-1.70385v9.56361zM191.56728,131.21669c1.51454,0 2.27179,-0.79697 2.27179,-2.3909v-1.19545c0,-1.19546 -0.75726,-1.79317 -2.27179,-1.79317h-3.40769v5.37952z" fill="#ff0000"/><path d="M212.86537,134.80308l-6.81539,-13.74767h7.9513l2.83973,8.66702l2.83976,-8.66702h7.95129l-6.81539,13.74767v11.3568h-7.9513z" fill="#ff0000"/><path d="M110.04689,147.20638c-0.91869,-0.18373 -1.65364,-0.36748 -2.20485,-0.55121l1.10243,-5.51213l3.30728,0.2756c2.57233,0.18373 4.59345,0.18373 6.06336,0c0.73495,-0.36748 1.10243,-0.91869 1.10243,-1.65364c-0.18373,-0.73495 -1.83737,-1.10243 -4.96092,-1.10243c-2.75607,-0.36748 -4.68532,-1.37804 -5.78775,-3.03168c-0.55121,-1.28616 -0.82683,-2.75607 -0.82683,-4.40971c0,-2.57233 0.91869,-4.50157 2.75607,-5.78773c1.28616,-0.91869 3.58289,-1.37804 6.89017,-1.37804c3.30728,0 6.61456,0.27561 9.92184,0.82683l-1.10243,5.23652c-3.85849,-0.18373 -6.52268,-0.2756 -7.99259,-0.2756c-1.28616,0.18373 -1.92925,0.64308 -1.92925,1.37803c-0.18373,1.28616 0.82683,1.92925 3.03168,1.92925c3.12355,0 5.42025,0.55121 6.89016,1.65364c1.10243,0.91869 1.65364,2.48045 1.65364,4.68531c0,1.91088 -0.45933,3.56452 -1.37803,4.96093c-0.91869,1.65364 -3.21541,2.66419 -6.89017,3.03167c-3.12355,0.18373 -6.33896,0.09188 -9.64624,-0.2756z" fill="#71ff33"/><path d="M137.33196,147.20638v-15.9852h-6.61457v-7.16577h20.94612v7.16577h-6.61456v15.9852z" fill="#71ff33"/><path d="M154.41959,135.90651c0,-3.67476 1.10243,-6.56863 3.30728,-8.68161c2.20485,-2.11299 5.23653,-3.16948 9.09503,-3.16948c3.85849,0 6.89017,1.05649 9.09503,3.16948c2.20485,2.11299 3.30728,5.00685 3.30728,8.68161c0,3.12355 -1.10243,5.87961 -3.30728,8.2682c-2.20485,2.38859 -5.23653,3.58289 -9.09503,3.58289c-3.85849,0 -6.89017,-1.19431 -9.09503,-3.58289c-2.20485,-2.38859 -3.30728,-5.14465 -3.30728,-8.2682zM166.54628,131.22116c-1.83737,1.10243 -3.21541,2.29673 -4.13411,3.58289c-0.91869,1.10243 -1.10243,2.48045 -0.55121,4.13409l0.55121,0.55121c0.91869,1.28616 2.48047,1.65364 4.68532,1.10243c1.83737,-1.10243 3.2154,-2.29672 4.13409,-3.58288c1.10243,-1.46991 1.10243,-3.12355 0,-4.96092l-0.55121,-0.55121c-1.10243,-0.73495 -2.48045,-0.82683 -4.13409,-0.27561z" fill="#71ff33"/><path d="M181.98028,147.20638v-23.15097h13.50473c5.51213,0 8.26819,2.02112 8.26819,6.06335v1.10243c0,2.9398 -1.19429,4.86905 -3.58288,5.78775c0.73495,0.36748 1.46991,1.19429 2.20485,2.48045l2.20485,7.717h-8.2682l-1.65364,-6.33896c-0.36748,-1.65364 -1.37803,-2.48047 -3.03167,-2.48047h-1.65364v8.81943zM193.28016,133.42603c1.46991,0 2.20485,-0.73495 2.20485,-2.20485v-1.10243c0,-1.10243 -0.73495,-1.65364 -2.20485,-1.65364h-3.30728v4.96092z" fill="#71ff33"/><path d="M213.95064,136.73332l-6.61456,-12.67791h7.71699l2.75605,7.9926l2.75608,-7.9926h7.71699l-6.61456,12.67791v10.47307h-7.71699z" fill="#71ff33"/></g></g></g></svg>