<svg version="1.1" xmlns="http://www.w3.org/2000/svg" xmlns:xlink="http://www.w3.org/1999/xlink" width="7.54474" height="8.88832" viewBox="0,0,7.54474,8.88832"><g transform="translate(-236.22763,-175.55584)"><g data-paper-data="{&quot;isPaintingLayer&quot;:true}" fill="#ffd700" fill-rule="nonzero" stroke="none" stroke-width="0.26459" stroke-linecap="butt" stroke-linejoin="miter" stroke-miterlimit="4" stroke-dasharray="" stroke-dashoffset="0" style="mix-blend-mode: normal"><path d="M236.22763,180c0,-1.37803 0.41341,-2.46324 1.24023,-3.25561c0.82682,-0.79237 1.9637,-1.18855 3.41064,-1.18855c1.24023,0 2.1015,0.0344 2.58381,0.10335l-0.93017,2.89387l-0.2067,-0.2067c-0.41341,-0.27561 -0.93018,-0.31006 -1.55029,-0.10335c-0.68902,0.41341 -1.20577,0.86127 -1.55029,1.34358c-0.34451,0.41341 -0.41341,0.93017 -0.2067,1.55029l0.2067,0.2067c0.34451,0.48231 0.93017,0.62012 1.75699,0.41341c0.68902,-0.41341 1.20578,-0.86127 1.55029,-1.34358l1.24023,3.61734c-0.48231,0.27561 -1.44693,0.41341 -2.89387,0.41341c-1.44693,0 -2.58382,-0.44786 -3.41064,-1.34359c-0.82682,-0.89572 -1.24023,-1.92924 -1.24023,-3.10057z"/></g></g></svg>