<svg version="1.1" xmlns="http://www.w3.org/2000/svg" xmlns:xlink="http://www.w3.org/1999/xlink" width="16.30482" height="40.25108" viewBox="0,0,16.30482,40.25108"><g transform="translate(-229.95841,-185.79702)"><g data-paper-data="{&quot;isPaintingLayer&quot;:true}" fill-rule="nonzero" stroke-linejoin="miter" stroke-miterlimit="10" stroke-dasharray="" stroke-dashoffset="0" style="mix-blend-mode: normal"><g data-paper-data="{&quot;index&quot;:null}"><g data-paper-data="{&quot;index&quot;:null}" stroke="none" stroke-width="0" stroke-linecap="butt"><path d="M238.44969,225.5368c-1.09669,0.65002 -0.94547,-2.734 -0.80489,-3.74905c0.01859,-1.19132 0.93929,-3.25347 0.93929,-3.25347c0,0 0.55128,-1.46048 0.95308,-0.53981c0.18704,0.42858 0.39668,0.83269 0.55276,1.2487c0.1792,0.47766 0.28776,0.97099 0.21036,1.53499c0,0 -0.34935,3.86884 -1.85059,4.75865z" data-paper-data="{&quot;index&quot;:null}" fill="#54c81c"/><path d="M238.66693,215.48056l0.41355,-5.60595l1.46717,-0.0218c0,0 -0.07303,3.62147 -0.48856,5.62339c-0.15121,0.6301 -0.41848,4.79503 -0.41848,4.79503c0,0 -0.27635,2.33363 -0.61917,2.86875c-0.4361,0.6807 -0.96245,-0.43203 -0.97537,-0.79194c0,0 0.21743,-1.3522 0.31913,-2.20188c0.15035,-1.25604 0.30174,-4.66557 0.30174,-4.66557z" data-paper-data="{&quot;index&quot;:null}" fill="#ffffff"/></g><path d="M239.27045,223.23217l-0.32175,-0.38933" fill="none" stroke="#000000" stroke-width="0.5" stroke-linecap="round"/><path d="M239.25665,221.8676l0.25065,0.38257" fill="none" stroke="#000000" stroke-width="0.5" stroke-linecap="round"/></g><g data-paper-data="{&quot;index&quot;:null}"><g data-paper-data="{&quot;index&quot;:null}" stroke="none" stroke-width="0" stroke-linecap="butt"><path d="M240.16486,220.97769c-0.00579,-0.56926 0.16402,-1.04501 0.40192,-1.4963c0.2072,-0.39304 0.46604,-0.76756 0.70554,-1.16919c0.5145,-0.86278 0.87755,0.65549 0.87755,0.65549c0,0 0.6538,2.16165 0.52226,3.34583c0.01168,1.02468 -0.26428,4.40082 -1.27042,3.61791c-1.37728,-1.0717 -1.23685,-4.95374 -1.23685,-4.95374z" data-paper-data="{&quot;index&quot;:null}" fill="#54c81c"/><path d="M242.45207,215.92787c0,0 -0.27899,3.40148 -0.28797,4.66644c-0.00606,0.85572 0.03942,2.22455 0.03942,2.22455c-0.05812,0.35542 -0.72036,1.39303 -1.06729,0.66286c-0.27273,-0.57402 -0.25313,-2.92388 -0.25313,-2.92388c0,0 0.25914,-4.16543 0.18844,-4.80955c-0.16022,-2.0383 0.22319,-5.64017 0.22319,-5.64017l1.45276,0.20632l-0.29542,5.61342z" data-paper-data="{&quot;index&quot;:null}" fill="#ffffff"/></g><path d="M240.53807,222.3401l0.43959,-0.3435" fill="none" stroke="#000000" stroke-width="0.5" stroke-linecap="round"/><path d="M241.16039,223.00285l-0.3682,0.34574" fill="none" stroke="#000000" stroke-width="0.5" stroke-linecap="round"/></g><g data-paper-data="{&quot;index&quot;:null}"><g data-paper-data="{&quot;index&quot;:null}" stroke="none" stroke-width="0" stroke-linecap="butt"><path d="M241.74901,209.53533c0,0 4.1555,3.49084 4.33065,3.53029c0.17516,0.03946 0.10065,0.49519 0.00831,0.96845c-0.09233,0.47326 -0.51986,1.46323 -0.51986,1.46323c0,0 0.14324,-0.39008 -0.47606,-1.18873c-0.36651,-0.47269 -1.15069,-1.20804 -1.6454,-1.86406c-0.89751,-1.19014 -1.69766,-2.90917 -1.69766,-2.90917z" fill="#54c81c"/><path d="M242.38256,210.55574c-2.42064,-3.46549 -1.64889,-5.26015 -1.64889,-5.26015c0,0 -0.05724,-0.34542 0.74863,0.87395c0.27717,0.41938 1.56908,0.59368 3.18932,2.55711c2.07301,2.51212 1.52646,4.72984 1.52646,4.72984c0,0 -2.07319,-0.40634 -3.8155,-2.90072z" fill="#ffffff"/></g><path d="M244.73665,213.09477l-0.13468,-0.66455" fill="none" stroke="#ffffff" stroke-width="0.25" stroke-linecap="round"/><path d="M245.59294,213.6625l-0.0205,-0.58886" fill="none" stroke="#ffffff" stroke-width="0.25" stroke-linecap="round"/></g><g data-paper-data="{&quot;index&quot;:null}"><g data-paper-data="{&quot;index&quot;:null}" stroke="none" stroke-width="0" stroke-linecap="butt"><path d="M242.75915,218.66716c0,0 -0.01677,-1.27365 -0.42624,-2.32927c-0.40947,-1.05562 -2.01244,-3.41076 -2.01244,-3.41076l5.10735,-0.50465c0,0 0.23664,2.01566 -0.05791,3.34747c-0.38963,1.76172 -2.61074,2.89721 -2.61074,2.89721z" fill="#54c81c"/><path d="M244.04054,215.68169c-1.40063,0.38618 -4.33492,-2.91657 -4.71724,-4.91515c-0.40865,-2.13632 1.71905,-4.7765 1.71905,-4.7765l0.8721,0.10928c0,0 -0.09365,1.20136 1.33756,2.49306c2.09845,1.89392 1.97326,3.0957 2.17582,3.83009c0.20409,0.73996 0.06975,2.85753 -1.38729,3.25924z" fill="#ffffff"/></g><path d="M242.47135,215.00884l0.16878,0.55614" fill="none" stroke="#ffffff" stroke-width="0.25" stroke-linecap="round"/><path d="M243.71596,215.44091l0.10837,0.52386" fill="none" stroke="#ffffff" stroke-width="0.25" stroke-linecap="round"/><path d="M244.65115,214.85342l0.25731,0.68111" fill="none" stroke="#ffffff" stroke-width="0.25" stroke-linecap="round"/></g><g data-paper-data="{&quot;index&quot;:null}"><g data-paper-data="{&quot;index&quot;:null}" stroke="none" stroke-width="0" stroke-linecap="butt"><path d="M235.55255,216.47195c0,0 -2.01979,-2.22876 -0.26506,-5.15429c0.33225,-0.55391 -0.11794,2.31208 0.59788,2.56633c0.71572,0.25422 3.20828,-1.87843 3.20828,-1.87843c0,0 -2.096,2.09016 -2.5512,2.7261c-0.4552,0.63593 -0.98993,1.74031 -0.98993,1.74031z" fill="#54c81c"/><path d="M239.06269,211.91053c-0.86878,1.18993 -3.78791,2.91762 -4.11453,1.88359c-0.32663,-1.03403 0.49739,-3.45719 2.13334,-4.98982c1.35012,-1.26485 3.5291,-3.07981 3.5291,-3.07981c0,0 -0.60688,4.89715 -1.54791,6.18604z" fill="#ffffff"/></g><path d="M236.14685,214.35458l0.19172,-0.87222" fill="none" stroke="#ffffff" stroke-width="0.25" stroke-linecap="round"/><path d="M235.12989,214.40539l0.09553,-0.58141" fill="none" stroke="#ffffff" stroke-width="0.25" stroke-linecap="round"/></g><g data-paper-data="{&quot;index&quot;:null}"><g data-paper-data="{&quot;index&quot;:null}" stroke="none" stroke-width="0" stroke-linecap="butt"><path d="M241.57082,212.43802c0,0 -0.06935,1.94156 -0.84269,2.99243c-0.93088,1.26492 -1.94406,3.46082 -1.94406,3.46082c0,0 -1.7207,-3.09493 -2.06596,-4.53632c-0.60096,-2.49522 0.15876,-3.50621 0.15876,-3.50621c0,0 0.82297,3.25431 1.74324,3.62602c0.90684,0.3663 2.95072,-2.03676 2.95072,-2.03676z" fill="#54c81c"/><path d="M236.78143,210.87457c0.03792,-0.15235 0.68925,-2.32978 1.86781,-3.13799c1.56422,-1.07265 0.89635,-1.9198 1.69947,-1.50002c0.80313,0.41977 1.96621,1.78528 1.78172,3.33878c-0.15355,1.29305 -0.56934,2.89559 -0.56934,2.89559c0,0 -1.81715,2.91309 -3.09782,2.21062c-1.42807,-0.82862 -1.72138,-3.64803 -1.68181,-3.80698z" fill="#ffffff"/></g><path d="M240.26628,214.42555l0.01186,-0.53482" fill="none" stroke="#ffffff" stroke-width="0.25" stroke-linecap="round"/><path d="M239.01316,215.1609l-0.13797,-0.50305" fill="none" stroke="#ffffff" stroke-width="0.25" stroke-linecap="round"/><path d="M237.68843,214.37718l0.08724,-0.76997" fill="none" stroke="#ffffff" stroke-width="0.25" stroke-linecap="round"/></g><g data-paper-data="{&quot;index&quot;:null}"><path d="M241.6498,199.02535l0.73072,0.02268l0.03818,3.22889l-0.82128,-0.29939z" data-paper-data="{&quot;index&quot;:null}" fill="#319a2b" stroke="#ffffff" stroke-width="0" stroke-linecap="butt"/><path d="M241.48326,198.93004c-0.2209,-0.66827 -0.31828,-4.25382 -0.31828,-4.25382l1.4416,0.62619c0,0 0.13261,2.50428 -0.16706,3.72104c-0.12402,0.50358 -0.71996,0.62149 -0.95627,-0.09341z" data-paper-data="{&quot;index&quot;:null}" fill="#ead42f" stroke="#ffffff" stroke-width="0" stroke-linecap="butt"/><path d="M240.49189,192.38832c-0.16247,-1.72944 1.09443,-3.55546 1.46457,-3.37206c1.17028,0.57993 1.39894,1.40864 1.67941,3.11667c0.33972,2.0688 -1.35728,3.85487 -2.20087,3.55687c-0.2762,-0.09756 -0.78064,-1.57206 -0.94311,-3.30148z" data-paper-data="{&quot;index&quot;:null}" fill="#f0e9bb" stroke="#ffffff" stroke-width="0" stroke-linecap="butt"/><path d="M242.72655,189.66104c0,0 0.11333,1.80201 -0.24284,2.86897c-0.35617,1.06695 -1.32797,2.50389 -1.32797,2.50389" data-paper-data="{&quot;index&quot;:null}" fill="none" stroke="#d3c49c" stroke-width="0.25" stroke-linecap="round"/><path d="M241.28392,193.91056l0.7235,0.47906" data-paper-data="{&quot;index&quot;:null}" fill="none" stroke="#ffffff" stroke-width="0.5" stroke-linecap="round"/><path d="M242.59162,193.00022l-0.58566,-0.34648" data-paper-data="{&quot;index&quot;:null}" fill="none" stroke="#ffffff" stroke-width="0.5" stroke-linecap="round"/><path d="M242.90906,191.73366l-0.6028,-0.25457" data-paper-data="{&quot;index&quot;:null}" fill="none" stroke="#ffffff" stroke-width="0.5" stroke-linecap="round"/><path d="M242.93369,190.29389l-0.46496,-0.12198" data-paper-data="{&quot;index&quot;:null}" fill="none" stroke="#ffffff" stroke-width="0.5" stroke-linecap="round"/></g><g data-paper-data="{&quot;index&quot;:null}"><path d="M238.46742,207.70534c-0.30427,-0.44307 -0.06637,-1.7509 0.28957,-2.80676c0.35593,-1.05586 0.95764,-1.25421 1.07941,-1.25421c0.15382,0 1.35868,-0.24869 2.06043,0.1482c0.70175,0.39689 0.46391,0.81182 0.64221,1.38034c0.1783,0.56851 0.3376,1.53269 0.32786,1.71279c-0.02505,0.46123 -1.45551,0.25457 -1.70209,0.53654c0,0 -2.33148,0.68137 -2.69739,0.28309z" data-paper-data="{&quot;index&quot;:null}" fill="#319a2b" stroke="none" stroke-width="0.17188" stroke-linecap="butt"/><path d="M239.84059,207.45477c0.61263,0 0.86005,-0.34217 1.03805,-0.04276c0.09193,0.15462 -0.5466,0.49821 -1.15798,0.46382c-0.68831,-0.17263 -1.50188,0.15139 -1.50188,0.15139l0.22399,-0.60534c0,0 0.78518,0.03289 1.39781,0.03289z" data-paper-data="{&quot;index&quot;:null}" fill="#ead42f" stroke="none" stroke-width="0" stroke-linecap="butt"/><path d="M242.9267,206.80096l0.34058,0.49225c0,0 -0.69825,-0.197 -1.3616,0.05504c-0.60314,0.10575 -0.80044,-0.29103 -0.19203,-0.36277c0.60841,-0.07174 1.21306,-0.18453 1.21306,-0.18453z" data-paper-data="{&quot;index&quot;:null}" fill="#ead42f" stroke="none" stroke-width="0" stroke-linecap="butt"/><path d="M239.93779,207.19164l-0.07853,0.38091" fill="none" stroke="#ffffff" stroke-width="0.25" stroke-linecap="round"/><path d="M239.00467,207.24849l-0.09109,0.32829" fill="none" stroke="#ffffff" stroke-width="0.25" stroke-linecap="round"/><path d="M242.0172,207.04374l-0.03093,-0.30573" fill="none" stroke="#ffffff" stroke-width="0.25" stroke-linecap="round"/><path d="M242.80331,207.06967l-0.147,-0.38175" fill="none" stroke="#ffffff" stroke-width="0.25" stroke-linecap="round"/></g><g data-paper-data="{&quot;index&quot;:null}" stroke="none" stroke-linecap="butt"><path d="M240.84184,203.77491c0.17022,-0.06911 0.34154,0.07628 0.48084,0.36686c0.1393,0.29058 0.24674,0.72652 0.28893,1.23856c0.04223,0.51194 0.0113,1.00389 -0.07258,1.38519c-0.08398,0.38127 -0.22099,0.65174 -0.3912,0.72085c-0.17009,0.06905 -0.34142,-0.07634 -0.48082,-0.36696c-0.1393,-0.29058 -0.24663,-0.72649 -0.28883,-1.23853c-0.04223,-0.51194 -0.01141,-1.00393 0.07258,-1.38519c0.08388,-0.3813 0.221,-0.65174 0.39108,-0.72079z" fill="#eb3d66" stroke-width="0.01872"/><path d="M241.36598,205.6107c0.01852,0.48778 -0.13593,0.88964 -0.34498,0.89758c-0.20905,0.00794 -0.39353,-0.38105 -0.41205,-0.86883c-0.01852,-0.48778 0.13593,-0.88964 0.34498,-0.89758c0.20905,-0.00794 0.39353,0.38105 0.41205,0.86883z" fill="#492116" stroke-width="0"/><path d="M240.73352,203.97858c0.07282,-0.00742 0.13081,0.06727 0.16562,0.19397c0.03489,0.12675 0.04658,0.3055 0.02688,0.50613c-0.01964,0.20068 -0.06709,0.38546 -0.12777,0.52198c-0.06074,0.13658 -0.13469,0.22486 -0.2075,0.23228c-0.07278,0.00755 -0.13075,-0.06722 -0.16563,-0.19397c-0.03489,-0.12675 -0.04658,-0.3055 -0.02692,-0.50605c0.01972,-0.20063 0.06714,-0.38554 0.12783,-0.52204c0.06074,-0.13658 0.13464,-0.22478 0.20751,-0.23227z" fill="#ffffff" stroke-width="0.01896"/></g><g data-paper-data="{&quot;index&quot;:null}"><path d="M239.30423,195.17271c3.44222,-1.53831 4.96426,1.3452 5.11065,1.56935c0.31473,0.54671 0.48051,1.17313 0.53907,1.79837c0.1057,1.04258 -0.11975,2.14639 -0.76229,2.98991c-0.35096,0.35441 -0.29141,0.31665 -0.62107,0.68311c-0.42892,0.66057 -1.25974,1.12608 -1.95047,1.41935c-0.54777,0.26758 -1.13484,0.44361 -1.73751,0.53697c-0.39183,0.04633 -0.80065,0.16415 -1.19047,0.05092c-0.36144,-0.11127 -0.71379,-0.32953 -0.87844,-0.68313c-0.44758,-0.83728 -0.90363,-1.67178 -1.27395,-2.5464c-0.0889,-0.2451 -0.22394,-0.49681 -0.204,-0.76451c0.08647,-0.2511 -1.18408,-3.1982 2.96845,-5.05395z" data-paper-data="{&quot;index&quot;:null}" fill="#f0e9bb" stroke="none" stroke-width="0.17188" stroke-linecap="butt"/><path d="M242.3124,192.83901c0.79472,-0.48629 1.46159,-0.61823 1.93256,-0.51203c0.06703,0.01494 0.05544,0.06582 0.14303,0.09905c0.10603,0.04028 0.35729,0.06323 0.30694,0.05253c0,0 -0.01011,0.17858 0.02661,0.24492c0.04674,0.0843 0.20212,0.13862 0.10892,0.15355c0,0 0.11178,0.10515 0.12066,0.15694c0.09721,0.56554 -0.03298,1.40641 -0.43512,1.984c0.48894,0.31997 -2.54121,-1.56324 -2.20356,-2.17895z" data-paper-data="{&quot;index&quot;:null}" fill="#ed3e67" stroke="none" stroke-width="0.17188" stroke-linecap="butt"/><path d="M236.43408,200.04153l0.8131,2.24979l0.97882,1.67416l0.78993,1.14251c0.09306,0.13422 -1.96193,-0.34602 -2.46093,-0.61547c-0.61751,-0.33332 -1.1131,-0.77595 -1.60662,-1.22051c-0.35982,-0.32386 -0.44706,-0.48269 -0.63301,-0.75075l-0.57711,-0.83234c-0.10968,-0.15813 -0.57636,-1.00194 -0.47206,-1.22686c0.02961,-0.06381 0.82922,0.11281 0.8982,0.08086l0.50284,-0.23468c0.14926,-0.06948 0.46045,-0.58662 0.5452,-0.74919c0.062,-0.11869 0.33297,-0.94475 0.13656,-1.5513l-0.19433,-0.59998c-0.02908,-0.08985 -0.6389,-0.90041 -0.61141,-0.93164c0.0565,-0.06456 -1.15838,-0.68069 -1.10129,-0.75187c0.3174,-0.39674 0.69598,-0.8925 1.20349,-1.25901c0.79785,-0.5762 1.77531,-0.96696 2.27282,-1.17514c0.08484,-0.03549 1.1748,-0.4664 1.91142,-0.52861c1.16643,-0.09858 2.022,0.30588 2.07697,0.32461c0.86309,0.29382 1.60776,0.74899 2.24986,1.34392l0.4453,0.54567c0.22796,0.27928 1.21918,1.67234 1.73572,2.87845c1.08708,2.53827 0.40886,4.83894 0.16514,4.82487c-0.34139,-0.0194 -1.4092,-1.29178 -1.44617,-1.11649c-0.08208,0.38834 0.84857,-1.27382 0.84144,-2.23655c-0.00713,-0.96274 -0.9162,-2.82509 -0.99359,-2.9746c-0.06104,-0.11825 -0.17831,-0.18521 -0.28697,-0.10056c-0.07237,0.05628 -0.93795,0.6381 -1.1923,1.01871c-0.25435,0.38062 -0.55758,1.74138 -0.61222,1.68847c-0.02028,-0.01975 -0.45804,-0.11117 -0.46205,-0.15225c-0.02393,-0.24854 -0.34859,0.49002 -0.38422,0.59827c-0.09375,0.28468 -1.13018,-0.76663 -2.10058,-0.77483c-0.9704,-0.00821 -1.83324,0.38995 -1.93963,0.6324c-0.04237,0.09658 -0.20413,0.31633 -0.28757,0.42927c-0.11111,0.15015 -0.19117,0.24523 -0.2047,0.35069z" data-paper-data="{&quot;index&quot;:null}" fill="#54c81c" stroke="none" stroke-width="0.17188" stroke-linecap="butt"/><path d="M232.09526,200.20985c-0.63758,0.05121 -1.37452,-0.23795 -1.79267,-0.5803c-0.03835,-0.0313 -0.07665,-0.1699 -0.07665,-0.1699c-0.05131,0.06755 -0.02991,-0.08225 -0.07871,-0.15897c-0.03833,-0.06031 -0.18761,-0.13578 -0.18761,-0.13578c-0.01245,0.04532 0.07446,-0.16626 0.08647,-0.26982c0.00977,-0.08566 -0.03644,-0.10016 -0.02048,-0.16095c0.11183,-0.42591 0.49904,-0.89719 1.22739,-1.30518c0.95304,-0.53362 2.14575,-0.18241 2.30111,0.17545c0,0 -0.37005,2.51781 -1.45883,2.60542z" data-paper-data="{&quot;index&quot;:null}" fill="#ed3e67" stroke="none" stroke-width="0.17188" stroke-linecap="butt"/><path d="M234.56076,197.92651c0.09504,-0.15455 0.28229,1.38051 0.01378,1.72266c-0.46183,0.58834 -0.28996,0.7993 -0.87372,0.86606c-0.13103,0.01519 -0.44898,-0.08945 -0.8377,-0.0825c-0.45027,0.00825 -0.88349,-0.06395 -0.78535,-0.18439l0.56776,-0.77684l0.58399,-1.74487c0.00907,-0.02713 -0.30562,-0.12112 -0.77411,-0.21882c-0.32851,-0.06857 -0.7962,-0.11612 -1.13844,-0.10202c-0.20166,0.00838 0.05721,-0.34186 0.48818,-0.69612c0.2089,-0.17176 0.42309,-0.3719 0.71272,-0.47868c0.50165,-0.18478 1.10327,0.22087 1.48118,0.7328c0.35396,0.47938 0.4983,1.06538 0.56168,0.96271z" data-paper-data="{&quot;index&quot;:null}" fill="#54c81c" stroke="none" stroke-width="0.17188" stroke-linecap="butt"/><path d="M235.25293,197.58634c0.50828,1.10377 -0.16501,2.56792 -0.53213,2.6973l-0.51537,0.34583l-0.99779,-0.12918c-0.25549,-0.03317 1.13437,-0.40872 1.30079,-0.8959c0.10869,-0.31783 0.18395,-0.55956 0.17398,-0.6624c-0.09649,-0.98 -0.43176,-1.67011 -0.80115,-2.05427c-0.58042,-0.60364 -1.21779,-0.60126 -0.94046,-0.91926c0.66115,-0.75849 1.75659,0.41162 2.31213,1.61786z" data-paper-data="{&quot;index&quot;:null}" fill="#ead32e" stroke="none" stroke-width="0.17188" stroke-linecap="butt"/><path d="M242.32295,193.80506c0,0 -0.39695,-0.20927 -0.68637,-0.3779c-0.60377,-0.35176 -1.31062,-0.41411 -1.26378,-0.6065c0.06597,-0.09823 0.58879,-0.17877 0.76925,-0.11395l0.36652,0.13148c0.64451,0.23136 1.09695,0.77783 1.20067,1.03702c0.04488,0.1121 0.24972,0.26337 0.26333,0.40388c0,0 -0.46705,-0.25333 -0.64962,-0.47404z" data-paper-data="{&quot;index&quot;:null}" fill="#ead32e" stroke="none" stroke-width="0.17188" stroke-linecap="butt"/><path d="M241.45124,192.73267c0,0 0.97525,-0.45961 1.27119,-0.26314c0.19666,0.13039 0.22579,0.63851 0.42271,0.71683c0.24449,0.09726 0.68264,0.4094 0.95294,0.6616c0.16404,0.26666 0.38429,0.49453 0.40018,0.86455c0.171,0.25829 -0.30185,1.07499 -0.36701,0.99422l-0.88583,-1.09776c-0.22475,-0.27855 -0.7015,-0.83399 -0.81297,-0.94026z" data-paper-data="{&quot;index&quot;:null}" fill="#54c81c" stroke="none" stroke-width="0.17188" stroke-linecap="butt"/><path d="M236.96531,199.97493c0.1343,-0.73391 1.07848,-1.17176 1.68117,-1.02946c0.60269,0.1423 0.9824,0.85261 0.84811,1.58652c-0.1343,0.73391 -0.73173,1.21349 -1.33442,1.07119c-0.60269,-0.1423 -1.32915,-0.89435 -1.19486,-1.62826z" fill="#000000" stroke="none" stroke-width="0" stroke-linecap="butt"/><path d="M244.59677,198.90237c-0.30758,0.53747 -1.06592,0.64646 -1.69379,0.24343c-0.62786,-0.40303 -0.88751,-1.16547 -0.57993,-1.70294c0.30757,-0.53748 1.18124,-0.93023 1.80911,-0.5272c0.62787,0.40304 0.77219,1.44924 0.46461,1.98671z" data-paper-data="{&quot;index&quot;:null}" fill="#000000" stroke="none" stroke-width="0" stroke-linecap="butt"/><path d="M240.44569,203.1886l-0.59192,-0.16557" fill="none" stroke="#000000" stroke-width="0.25" stroke-linecap="round"/><path d="M241.5892,202.98968l-0.57692,0.17778" fill="none" stroke="#000000" stroke-width="0.25" stroke-linecap="round"/><path d="M242.7165,202.57297l-0.55038,0.23893" fill="none" stroke="#000000" stroke-width="0.25" stroke-linecap="round"/><path d="M243.15262,202.23826l0.43612,-0.33469" fill="none" stroke="#000000" stroke-width="0.25" stroke-linecap="round"/><path d="M244.02249,201.06117l-0.19957,0.37736" fill="none" stroke="#000000" stroke-width="0.25" stroke-linecap="round"/><path d="M239.60659,202.155l-0.1101,0.5235l-0.43856,-0.00263" fill="none" stroke="#000000" stroke-width="0.25" stroke-linecap="round"/><path d="M244.43496,200.44067l-0.36277,0.24645l-0.38303,-0.37345" data-paper-data="{&quot;index&quot;:null}" fill="none" stroke="#000000" stroke-width="0.25" stroke-linecap="round"/><path d="M237.54758,200.0103l1.41884,0.57666" fill="none" stroke="#ffffff" stroke-width="0.25" stroke-linecap="round"/><path d="M238.04226,201.07102l0.36119,-1.53949" fill="none" stroke="#ffffff" stroke-width="0.25" stroke-linecap="round"/><path d="M237.06691,200.01332c-0.01613,-0.20742 0.13895,-0.38865 0.34637,-0.40478c0.20742,-0.01613 0.38865,0.13895 0.40478,0.34637c0.01613,0.20742 -0.13895,0.38865 -0.34637,0.40478c-0.20742,0.01613 -0.38865,-0.13895 -0.40478,-0.34637z" fill="#ffffff" stroke="none" stroke-width="0" stroke-linecap="butt"/><path d="M238.69061,200.57404c-0.01613,-0.20742 0.13896,-0.38865 0.34637,-0.40478c0.20742,-0.01613 0.38865,0.13895 0.40478,0.34637c0.01613,0.20742 -0.13895,0.38865 -0.34637,0.40478c-0.20742,0.01613 -0.38865,-0.13896 -0.40478,-0.34637z" fill="#ffffff" stroke="none" stroke-width="0" stroke-linecap="butt"/><path d="M238.04874,199.38735c-0.01613,-0.20742 0.13896,-0.38865 0.34638,-0.40478c0.20742,-0.01613 0.38865,0.13895 0.40478,0.34637c0.01613,0.20742 -0.13895,0.38865 -0.34637,0.40478c-0.20742,0.01613 -0.38866,-0.13896 -0.40479,-0.34637z" fill="#ffffff" stroke="none" stroke-width="0" stroke-linecap="butt"/><path d="M237.70349,201.1317c-0.01613,-0.20742 0.13896,-0.38865 0.34637,-0.40478c0.20742,-0.01613 0.38865,0.13895 0.40478,0.34637c0.01613,0.20742 -0.13895,0.38865 -0.34637,0.40478c-0.20742,0.01613 -0.38865,-0.13896 -0.40478,-0.34637z" fill="#ffffff" stroke="none" stroke-width="0" stroke-linecap="butt"/><path d="M244.18714,198.39435l-1.41884,-0.57666" fill="none" stroke="#ffffff" stroke-width="0.25" stroke-linecap="round"/><path d="M243.62417,197.33892l-0.36119,1.53949" fill="none" stroke="#ffffff" stroke-width="0.25" stroke-linecap="round"/><path d="M242.28763,197.82071c-0.01613,-0.20742 0.13895,-0.38865 0.34637,-0.40478c0.20742,-0.01613 0.38865,0.13895 0.40478,0.34637c0.01613,0.20742 -0.13895,0.38865 -0.34637,0.40478c-0.20742,0.01613 -0.38865,-0.13895 -0.40478,-0.34637z" fill="#ffffff" stroke="none" stroke-width="0" stroke-linecap="butt"/><path d="M243.91133,198.38143c-0.01613,-0.20742 0.13896,-0.38865 0.34637,-0.40478c0.20742,-0.01613 0.38865,0.13895 0.40478,0.34637c0.01613,0.20742 -0.13895,0.38865 -0.34637,0.40478c-0.20742,0.01613 -0.38865,-0.13896 -0.40478,-0.34637z" fill="#ffffff" stroke="none" stroke-width="0" stroke-linecap="butt"/><path d="M243.26946,197.19474c-0.01613,-0.20742 0.13896,-0.38865 0.34638,-0.40478c0.20742,-0.01613 0.38865,0.13895 0.40478,0.34637c0.01613,0.20742 -0.13895,0.38865 -0.34637,0.40478c-0.20742,0.01613 -0.38866,-0.13896 -0.40479,-0.34637z" fill="#ffffff" stroke="none" stroke-width="0" stroke-linecap="butt"/><path d="M242.92421,198.9391c-0.01613,-0.20742 0.13896,-0.38865 0.34637,-0.40478c0.20742,-0.01613 0.38865,0.13895 0.40478,0.34637c0.01613,0.20742 -0.13895,0.38865 -0.34637,0.40478c-0.20742,0.01613 -0.38865,-0.13896 -0.40478,-0.34637z" fill="#ffffff" stroke="none" stroke-width="0" stroke-linecap="butt"/></g><g data-paper-data="{&quot;index&quot;:null}"><path d="M237.64344,194.57183c0,0 -0.39296,-2.08973 -0.19673,-3.40706c0.19623,-1.31733 1.53713,-2.4592 1.53713,-2.4592l0.40886,0.63121c0,0 -1.02793,0.66913 -1.2108,1.92193c-0.18287,1.2528 0.11691,3.15973 0.11691,3.15973z" fill="#000000" stroke="none" stroke-width="0" stroke-linecap="butt"/><path d="M238.44775,189.30045l1.6775,-3.2678l4.54199,0.14248l-2.77481,3.25197z" fill="#ea035a" stroke="none" stroke-width="0" stroke-linecap="butt"/><path d="M244.5331,186.13469l-5.91724,3.16918" fill="none" stroke="#000000" stroke-width="0.25" stroke-linecap="round"/><path d="M241.91866,189.41838l-1.95742,-0.90783l0.10907,-2.58853" fill="none" stroke="#000000" stroke-width="0.25" stroke-linecap="round"/></g><g data-paper-data="{&quot;index&quot;:null}"><path d="M239.22693,204.19181c0,0 0.03253,0.79554 -0.07427,1.01115c-0.13328,0.26907 -0.66368,0.47871 -0.66368,0.47871l-0.04514,-5.75269l0.73072,-0.02269z" data-paper-data="{&quot;index&quot;:null}" fill="#319a2b" stroke="#ffffff" stroke-width="0" stroke-linecap="butt"/><path d="M239.65939,195.55718c0,0 -0.09738,3.58555 -0.31828,4.25381c-0.23631,0.7149 -0.83224,0.597 -0.95626,0.09342c-0.29967,-1.21676 -0.16706,-3.72105 -0.16706,-3.72105l1.44161,-0.62618z" data-paper-data="{&quot;index&quot;:null}" fill="#ead42f" stroke="#ffffff" stroke-width="0" stroke-linecap="butt"/><path d="M239.38937,196.57078c-0.8436,0.298 -2.5406,-1.48808 -2.20088,-3.55688c0.28048,-1.70803 0.50913,-2.53673 1.67941,-3.11666c0.37013,-0.18341 1.62703,1.64262 1.46457,3.37205c-0.16247,1.72943 -0.6669,3.20393 -0.9431,3.30149z" data-paper-data="{&quot;index&quot;:null}" fill="#f0e9bb" stroke="#ffffff" stroke-width="0" stroke-linecap="butt"/><path d="M239.66863,195.91487c0,0 -0.9718,-1.43693 -1.32797,-2.50389c-0.35617,-1.06696 -0.24284,-2.86898 -0.24284,-2.86898" data-paper-data="{&quot;index&quot;:null}" fill="none" stroke="#d3c49c" stroke-width="0.25" stroke-linecap="round"/><path d="M239.54045,194.7915l-0.72351,0.47907" data-paper-data="{&quot;index&quot;:null}" fill="none" stroke="#ffffff" stroke-width="0.5" stroke-linecap="round"/><path d="M238.23275,193.88115l0.58566,-0.34649" data-paper-data="{&quot;index&quot;:null}" fill="none" stroke="#ffffff" stroke-width="0.5" stroke-linecap="round"/><path d="M237.9153,192.61462l0.6028,-0.25456" data-paper-data="{&quot;index&quot;:null}" fill="none" stroke="#ffffff" stroke-width="0.5" stroke-linecap="round"/><path d="M237.89068,191.17484l0.46496,-0.12198" data-paper-data="{&quot;index&quot;:null}" fill="none" stroke="#ffffff" stroke-width="0.5" stroke-linecap="round"/></g></g></g></svg>