<svg version="1.1" xmlns="http://www.w3.org/2000/svg" xmlns:xlink="http://www.w3.org/1999/xlink" width="479.25" height="360" viewBox="0,0,479.25,360"><defs><radialGradient cx="240" cy="180" r="26.66667" gradientUnits="userSpaceOnUse" id="color-1"><stop offset="0" stop-color="#000000" stop-opacity="0"/><stop offset="1" stop-color="#000000"/></radialGradient></defs><g transform="translate(-0.5,-0.5)"><g data-paper-data="{&quot;isPaintingLayer&quot;:true}" fill-rule="nonzero" stroke="none" stroke-width="0" stroke-linecap="butt" stroke-linejoin="miter" stroke-miterlimit="10" stroke-dasharray="" stroke-dashoffset="0" style="mix-blend-mode: normal"><path d="M0.5,360.5v-360h239.75v153.5c0,0 -26.51578,1.51515 -26.25,26c0.27152,25.01365 26.25,25.75 26.25,25.75v154.75z" fill="#000000"/><path d="M240,360.5v-154.75c0,0 25.97848,-0.73635 26.25,-25.75c0.26578,-24.48485 -26.25,-26 -26.25,-26v-153.5h239.75v360z" data-paper-data="{&quot;index&quot;:null}" fill="#000000"/><path d="M213.33333,180c0,-14.72759 11.93907,-26.66667 26.66667,-26.66667c14.72759,0 26.66667,11.93907 26.66667,26.66667c0,14.72759 -11.93907,26.66667 -26.66667,26.66667c-14.72759,0 -26.66667,-11.93907 -26.66667,-26.66667z" fill="url(#color-1)"/></g></g></svg>