<svg version="1.1" xmlns="http://www.w3.org/2000/svg" xmlns:xlink="http://www.w3.org/1999/xlink" width="268.67006" height="216.65749" viewBox="0,0,268.67006,216.65749"><defs><radialGradient cx="196.09135" cy="274.60465" r="42.6576" gradientUnits="userSpaceOnUse" id="color-1"><stop offset="0" stop-color="#989898"/><stop offset="1" stop-color="#707070"/></radialGradient><radialGradient cx="284.19513" cy="276.90045" r="40.43425" gradientUnits="userSpaceOnUse" id="color-2"><stop offset="0" stop-color="#989898"/><stop offset="1" stop-color="#707070"/></radialGradient><linearGradient x1="250.68721" y1="252.5327" x2="250.68721" y2="276.84339" gradientUnits="userSpaceOnUse" id="color-3"><stop offset="0" stop-color="#f82020"/><stop offset="1" stop-color="#a80000"/></linearGradient></defs><g transform="translate(-160.04057,-78.51808)"><g data-paper-data="{&quot;isPaintingLayer&quot;:true}" fill-rule="nonzero" stroke-linejoin="miter" stroke-miterlimit="10" stroke-dasharray="" stroke-dashoffset="0" style="mix-blend-mode: normal"><path d="M407.07814,224.45229c10.58492,9.52308 17.97716,21.09591 17.97716,21.09591c0,0 -19.24869,-11.61603 -21.65406,-7.5882c-2.69786,4.5261 21.71984,22.07368 21.71984,22.07368c0,0 -20.94253,-8.37255 -31.16247,-8.51174c-15.15608,-0.21129 -37.12239,16.05717 -51.81905,11.78991c-8.81899,-2.75655 -23.58685,-13.2971 -27.08072,-21.96498c-3.0455,-7.55808 4.35608,-18.44621 7.32737,-26.02978c3.22806,-8.21662 16.77752,-4.74117 28.30348,-5.472c11.52596,-0.73082 26.5913,2.57111 34.68752,4.35269c10.12705,2.22727 21.70092,10.25451 21.70092,10.25451z" fill="#f8f8f8" stroke="none" stroke-width="1" stroke-linecap="round"/><path d="M235.15023,222.43418c0.84915,3.82933 -0.851,9.45871 -1.2536,13.08335c-0.37098,3.73617 -0.67155,8.68949 -2.05437,11.70831c-0.46101,1.00999 0.062,3.51794 -1.44289,5.16564c-1.17197,1.28319 -4.45656,0.65421 -5.13278,0.56568c-1.40642,-0.19713 -0.52878,-6.00578 -0.74148,-7.95704c-0.49528,-4.52018 0.75978,-8.99092 1.28976,-13.44438c0.53823,-3.5273 0.96503,-7.11974 1.91895,-10.49811c0.39439,-1.39511 3.37241,-2.49237 4.50336,-2.06657z" fill="#f8b820" stroke="none" stroke-width="1" stroke-linecap="round"/><path d="M428.71063,285.404c0,0 -18.20338,-3.57685 -20.04208,-1.2197c-4.73057,6.06436 20.08629,10.97866 15.87531,10.90869c-6.08846,-0.09829 -7.38139,1.15717 -23.36732,-3.53472c-11.19028,-3.28436 -21.60694,0.69759 -30.66399,-1.70138c-15.3316,-4.06084 -34.03665,-3.50283 -45.57876,-13.60028c-5.15806,-4.38685 9.90841,-9.18084 12.17794,-15.36905c2.43876,-6.66017 -3.82187,-16.19148 1.23726,-21.33323c4.54778,-4.62618 13.88085,-2.5805 20.73768,-1.05089c8.84674,2.13357 20.08505,6.13221 27.56168,11.27286c7.77341,5.34862 17.40592,8.93644 24.6479,16.90567c7.24199,7.96922 17.41438,18.72204 17.41438,18.72204z" fill="#f8f8f8" stroke="none" stroke-width="1" stroke-linecap="round"/><path d="M339.10988,255.65838l-6.54244,0.03943c0,0 -8.25594,-6.41556 -12.39778,-8.43596c-5.7638,-2.81309 -11.47656,-5.85794 -16.78736,-9.44469c-5.23056,-3.53978 -9.42479,-7.94262 -14.75326,-10.94716c-2.96135,-1.6726 -12.64952,-0.76438 -15.71022,-2.27549c-8.83979,-4.36433 -11.30822,-10.75783 -20.01737,-15.56575c-2.77056,-1.53758 -1.8274,-1.53173 1.12545,-1.26494c11.79991,1.06045 23.5962,5.82068 35.42788,6.44571c11.10802,0.58607 22.10234,-2.1038 33.23539,-2.79595c2.812,-0.12351 8.85161,-1.34317 8.85161,-1.34317l-10.8206,13.08905l12.81797,5.13358l-9.72683,7.71309l15.87906,6.16188l-6.18494,7.67869c0,0 6.03122,5.11795 5.60345,5.81167z" fill="#e2a026" stroke="none" stroke-width="1" stroke-linecap="round"/><path d="M348.17524,248.77359l8.15933,8.35497l-7.41427,8.4576l8.39956,7.73089l-9.70292,6.10338l10.63667,8.09484c0,0 -30.14871,-4.96174 -46.63264,-10.5127c-16.5728,-5.58269 -32.87292,-15.24909 -43.78527,-28.30734c-9.79623,-11.71875 -18.86345,-32.82702 -15.52226,-42.38716c2.21104,-5.67638 15.07656,8.57253 26.62665,11.9141c11.5501,3.34157 9.75426,-0.18882 16.20606,0.47787c6.45179,0.66669 11.99365,1.11791 17.75547,3.03148c12.29062,4.09117 -13.49846,-2.87663 35.89717,14.89692c6.18475,3.38938 9.14466,10.14038 9.14466,10.14038z" fill="#eda725" stroke="none" stroke-width="1" stroke-linecap="round"/><path d="M232.21152,190.24394c-0.29003,-0.00628 -2.3156,-0.09103 -1.58821,-2.32086c1.75181,-4.80228 18.08713,-4.00777 23.64331,-5.79911c5.55617,-1.79134 17.50845,-17.12188 20.5284,-14.92879c2.61703,1.72249 3.23775,0.85948 0.94712,4.25966c-2.54659,3.78416 -15.54659,15.23242 -19.69881,17.10843c-5.50556,2.49649 -23.83181,1.68068 -23.83181,1.68068z" data-paper-data="{&quot;index&quot;:null}" fill="#089c4e" stroke="none" stroke-width="1" stroke-linecap="round"/><path d="M275.35337,135.65271c4.13583,-0.12736 8.42256,0.78438 12.58898,2.93889c4.95983,2.56886 9.30419,5.8252 8.7434,10.28637c-0.98254,7.85926 -6.9587,11.76111 -8.678,14.88655c-1.71934,3.1255 -3.55029,5.46781 -3.79742,9.0471c-0.24714,3.5793 -2.46049,8.39391 -4.05557,8.88933c-2.24397,0.69504 -0.78605,-0.09722 -5.22718,-1.67094c-4.44113,-1.57371 -6.65622,-2.49368 -11.55445,-5.12179c-4.8982,-2.62811 -1.64905,-0.73746 -4.15755,-2.91425c-0.65746,-0.6918 -0.77949,-5.17613 -0.60464,-7.55343c0.1748,-2.37735 1.2593,-3.38886 1.59309,-5.88624c0.33381,-2.49738 -0.08714,-4.76457 0.05632,-6.45415c0.55391,-4.70015 -0.1305,-15.39877 3.48172,-16.05878c7.31689,-1.66493 6.62322,8.8338 7.40923,8.56671c0.79425,-0.27173 -4.29448,-2.15718 -1.76901,-7.33738c1.59818,-2.43802 2.45985,-1.32997 5.97104,-1.61795z" data-paper-data="{&quot;index&quot;:null}" fill="#ffffff" stroke="none" stroke-width="0.67216" stroke-linecap="round"/><path d="M265.46561,225.00669c1.25128,4.14466 2.47971,7.4281 3.68696,12.26919c1.20725,4.84108 1.94756,5.76603 1.44886,8.32567c-0.47163,2.42075 -3.77637,3.10889 -4.56316,3.47322c-3.2519,1.47479 -3.03075,-0.37975 -3.97349,-3.50948c-1.38248,-4.58961 -3.13296,-12.08087 -4.45928,-17.14638c-1.02619,-3.91605 -2.284,-7.24746 -3.70751,-11.89915c-1.42351,-4.65169 -6.23762,-15.27867 -4.74131,-15.70961c1.52094,-0.43159 6.94352,0.79737 8.02894,2.66867c0,0 7.22606,18.0361 8.27998,21.52788z" fill="#f8b820" stroke="none" stroke-width="1.04082" stroke-linecap="round"/><path d="M203.1288,233.00373c-1.81143,-3.65796 -1.22767,-8.36029 -0.3976,-12.40166c1.09343,-5.09518 1.58265,-27.95319 4.83784,-31.02131c1.19552,-1.12404 4.73699,-3.62465 4.66432,2.86483c-0.02478,2.21325 -2.09527,16.54881 -1.9372,17.18811c1.08521,4.38792 -0.84663,10.16304 -1.28021,14.98859c-0.38692,3.16145 0.13949,7.94433 -2.67404,10.01683c0,0 -1.93107,0.95929 -3.21311,-1.63539z" fill="#089c4e" stroke="none" stroke-width="1" stroke-linecap="butt"/><path d="M229.6561,178.52224c6.10632,2.43637 9.01927,5.81519 13.69899,10.37314c4.75401,4.63494 13.23768,10.50638 14.40458,17.0117c0.79752,4.4511 -4.31202,8.55617 -7.46405,11.74233c-4.25518,3.86043 -8.84005,9.17209 -14.62346,9.17212c-5.71377,0.00049 -10.76064,-4.74198 -14.56569,-9.39846c-5.2254,-6.39567 -9.71926,-13.94746 -10.93239,-22.26838c-0.78598,-5.45566 1.99805,-11.70306 6.03624,-15.2597c3.36696,-2.96794 9.238,-3.04943 13.4458,-1.37277z" fill="#f8b820" stroke="none" stroke-width="1" stroke-linecap="round"/><path d="M225.40116,186.0059l-2.3448,-0.91119" fill="none" stroke="#b3b3b3" stroke-width="0.5" stroke-linecap="round"/><path d="M233.81459,185.98564l3.1866,-1.32021" data-paper-data="{&quot;index&quot;:null}" fill="none" stroke="#b3b3b3" stroke-width="0.5" stroke-linecap="round"/><path d="M235.39868,273.72803c0.43329,2.36708 1.43746,3.35498 -0.24452,4.17996c-3.92247,1.92386 -17.37655,0.63486 -19.33938,0.70644c-4.74435,0.17401 -26.38956,-0.16584 -26.38956,-0.16584c0,0 -1.46634,-4.02285 -0.26921,-4.28955c2.34362,-0.51515 15.78155,-1.722 22.63242,-1.25798c4.89976,0.33123 9.20802,-1.39669 14.13699,-1.40356c0,0 9.19582,0.71488 9.47326,2.23053z" fill="#989898" stroke="url(#color-1)" stroke-width="0" stroke-linecap="round"/><path d="M235.4379,274.63473c-0.45425,0.6278 -6.3178,0.75481 -6.3178,0.75481c0,0 -8.17259,1.24901 -10.36213,-0.25113c-2.98514,-2.01621 -3.91289,-6.79042 -6.24719,-9.76698c-1.9591,-2.50073 -3.69391,-8.726 -3.69391,-8.726c0,0 6.6313,-2.58994 12.8997,-1.041c4.20244,1.03927 10.20453,0.79062 13.30789,4.31484c0,0 2.41797,11.94504 0.41344,14.71544z" fill="#f82020" stroke="none" stroke-width="0.99015" stroke-linecap="round"/><path d="M222.07103,276.1391l-27.57148,0.42573c0,0 -7.18043,0.77636 -6.56283,-1.66204c0.89654,-3.55106 6.06283,-10.56835 9.05127,-12.35177c2.75603,-1.64927 10.06583,-6.52889 13.2535,-6.30005c0,0 3.543,0.74349 7.37247,7.75419c4.95947,9.07941 4.45707,12.13394 4.45707,12.13394z" fill="#f8f8f8" stroke="none" stroke-width="1" stroke-linecap="round"/><path d="M212.19708,254.8679c0.10805,-0.63029 5.21027,0.12239 12.03843,1.29294c6.82816,1.17055 12.00113,4.85604 11.89308,5.48633c-0.29645,1.72926 -7.13947,-1.1597 -11.78237,-2.47493c-4.6429,-1.31523 -12.44558,-2.57509 -12.14913,-4.30434z" fill="#424242" stroke="none" stroke-width="0" stroke-linecap="butt"/><path d="M237.01808,250.39516c1.21731,0.69023 1.39926,3.06111 1.22859,4.40945c-0.11025,2.60125 -0.36791,6.32412 -2.00825,6.56185c-3.44935,0.48832 -6.58922,-3.39246 -9.96219,-4.25158c-3.91555,-1.0014 -8.14322,0.01377 -11.88411,-1.844c-1.06589,-0.53054 -1.40325,-3.0152 -0.89986,-4.34519c0.73118,-1.91559 2.47046,-3.25569 4.0331,-3.38786c3.20894,-0.56357 6.34814,0.88023 9.58232,1.397c3.29993,0.51951 6.84025,-0.26711 9.9104,1.46035z" fill="#ffffff" stroke="none" stroke-width="1" stroke-linecap="round"/><path d="M238.35141,244.40597c1.21731,0.69023 1.39926,3.06111 1.22859,4.40945c-0.11025,2.60125 -0.36791,6.32412 -2.00825,6.56186c-3.44935,0.48832 -6.58922,-3.39246 -9.96219,-4.25159c-3.91555,-1.0014 -8.14322,0.01377 -11.88411,-1.844c-1.06589,-0.53054 -1.40325,-3.01521 -0.89986,-4.3452c0.73118,-1.91559 2.47046,-3.25568 4.0331,-3.38786c3.20894,-0.56357 6.34814,0.88023 9.58232,1.39699c3.29993,0.51951 6.84025,-0.26711 9.9104,1.46035z" fill="#ffffff" stroke="none" stroke-width="1" stroke-linecap="round"/><path d="M278.14033,247.36723c1.82381,0.51367 4.16458,3.03164 4.03836,5.78526c-0.00575,2.662 -2.34437,4.86219 -4.30581,5.39984c-3.38009,0.92813 -6.99025,-1.6651 -10.42305,-1.64556c-3.98525,0.01844 -7.98901,2.40186 -11.89812,1.24273c-1.5545,-0.46613 -3.15985,-3.54399 -3.40594,-6.29191c0.1206,-1.51551 1.88484,-2.62657 3.1318,-2.99654c3.73366,-1.11875 7.7578,-0.13463 11.62733,-0.2944c3.74362,-0.15154 7.5131,-2.2498 11.23544,-1.19943z" fill="#ffffff" stroke="none" stroke-width="1" stroke-linecap="round"/><path d="M278.61437,240.73552c1.82381,0.51367 4.16458,3.03164 4.03836,5.78526c-0.00575,2.662 -2.34437,4.86219 -4.30581,5.39984c-3.38009,0.92813 -6.99025,-1.66511 -10.42305,-1.64557c-3.98525,0.01844 -7.98901,2.40187 -11.89812,1.24273c-1.5545,-0.46613 -3.15985,-3.54399 -3.40594,-6.29191c0.1206,-1.51551 1.88484,-2.62657 3.1318,-2.99654c3.73366,-1.11875 7.7578,-0.13463 11.62733,-0.2944c3.74362,-0.15154 7.5131,-2.2498 11.23544,-1.19943z" data-paper-data="{&quot;index&quot;:null}" fill="#ffffff" stroke="none" stroke-width="1" stroke-linecap="round"/><path d="M250.90872,267.62442c-0.16352,-0.76106 7.3935,6.5609 7.3935,6.5609c4.22384,0.62501 8.14392,1.69447 12.3347,1.38991c5.87791,-0.42624 16.00365,-3.73843 18.68507,-2.99779c0.91738,0.25351 2.14426,7.98988 2.14426,7.98988l-5.9717,-0.16488c0,0 -14.23796,0.12098 -18.53587,0.1618c-1.53765,0.01466 -9.09216,-0.31222 -12.59364,-1.28654c-2.99903,-0.8345 -1.99621,-2.28588 -3.23802,-2.81132z" data-paper-data="{&quot;index&quot;:null}" fill="#989898" stroke="url(#color-2)" stroke-width="0" stroke-linecap="round"/><path d="M255.98226,259.30377c3.32299,-2.94554 7.01293,-5.78236 11.00144,-6.54557c3.84779,-0.74189 7.84198,0.40694 11.2835,2.54522c3.10305,1.64393 9.17358,6.50225 7.61634,8.36434c-2.38055,2.84345 -10.44817,-1.46176 -15.23268,0.7272c-4.0113,1.84004 -5.68134,8.37169 -9.59066,10.90956c-2.43756,1.57855 -5.95769,2.32045 -8.18044,0.3636c-2.0142,-1.77467 -2.55037,-6.0292 -1.97488,-9.09154c0.59826,-3.1637 2.91103,-5.34531 5.07736,-7.27278z" data-paper-data="{&quot;index&quot;:null}" fill="url(#color-3)" stroke="none" stroke-width="0.99015" stroke-linecap="round"/><path d="M252.95797,275.31921c0,-2.6003 2.5356,-8.44827 5.92443,-12.07959c3.38883,-3.63133 8.0737,-5.66332 10.89415,-5.94244c4.22783,-0.96226 10.31409,0.15596 14.76497,4.07261c4.45088,3.91665 4.61855,8.25497 6.56026,14.69295c0.74735,2.47794 -4.9719,1.69021 -4.9719,1.69021c0,0 -13.43819,0.31374 -16.86261,0.40923c-2.78746,0.07799 -11.90048,-0.41744 -15.14741,-1.78616c-0.72867,-0.30716 -1.1619,-0.6583 -1.1619,-1.05682z" data-paper-data="{&quot;index&quot;:null}" fill="#f8f8f8" stroke="none" stroke-width="1" stroke-linecap="round"/><g><path d="M254.61735,199.08076c5.03751,4.52289 -21.67074,32.45168 -25.74236,27.8671c-5.59153,-6.29696 -15.37905,-14.38021 -18.58111,-28.4417c-1.0293,-5.52525 1.66535,-12.65108 5.63045,-16.44372c3.3059,-3.16476 9.81576,-3.99742 15.57413,-1.60185c5.75837,2.39557 18.1603,14.17257 23.11891,18.62015z" fill="#089c4e" stroke="none" stroke-width="1" stroke-linecap="round"/><path d="M203.36643,201.47864l2.49317,-5.21943c0,0 7.31341,-9.01416 12.02702,-12.82871c13.47944,-11.09556 23.6658,-8.92325 23.6658,-8.92325l-11.03731,7.41876l6.75907,6.43966l-12.74664,1.83909l-2.53012,12.0253l-7.79857,-2.66872l-6.04981,8.53487l0.95802,-10.05461z" fill="#cf0000" stroke="none" stroke-width="0" stroke-linecap="butt"/><path d="M226.07282,204.50597c-1.15852,-1.68871 -0.7287,-3.99683 0.96001,-5.15533c1.68871,-1.15852 3.99683,-0.7287 5.15534,0.96001c1.15852,1.68871 0.72865,3.99677 -0.96006,5.15527c-1.68871,1.15852 -3.99683,0.72869 -5.15529,-0.95995z" fill="#ffffff" stroke="none" stroke-width="0" stroke-linecap="butt"/><path d="M232.58324,210.71877c-1.15851,-1.68871 -0.7287,-3.99683 0.96001,-5.15534c1.68871,-1.15851 3.99684,-0.7287 5.15534,0.96001c1.15851,1.68871 0.72865,3.99677 -0.96006,5.15527c-1.68871,1.15851 -3.99684,0.72868 -5.15529,-0.95995z" fill="#ffffff" stroke="none" stroke-width="0" stroke-linecap="butt"/><path d="M225.97508,224.27005c-1.1643,-1.53931 10.13785,-8.74305 14.28952,-12.89547c4.15167,-4.15243 11.45623,-14.80635 12.62052,-13.26706c1.1643,1.53931 -5.78273,9.2099 -10.47343,14.1643c-4.6907,4.9544 -15.27227,13.53758 -16.43661,11.99824z" data-paper-data="{&quot;index&quot;:null}" fill="#000000" stroke="#000000" stroke-width="0" stroke-linecap="butt"/></g><g><path d="M248.80482,160.73241c-7.97107,10.72801 -19.02186,6.09475 -30.78487,9.77927c-8.68669,2.7196 -24.02361,7.99235 -29.91,0.14042c-7.19342,-9.60144 -7.55067,-21.48288 -7.55472,-36.10734c-0.00247,-8.90621 2.78243,-8.61291 0.55141,-13.0375c-1.25845,-2.77905 -1.40328,-11.00353 -3.13364,-14.92756c-3.2038,-7.26537 -3.44094,-18.24792 -2.3604,-20.0248c1.17393,-1.93046 8.72467,1.36076 16.94782,9.1475c8.20958,7.77389 11.70005,11.4608 12.88368,12.07243c1.63141,0.84301 5.54889,-0.33132 9.17956,-0.5981c3.63068,-0.26679 7.58472,-0.29194 8.65125,-1.76103c0.3561,-0.49049 6.3799,-7.25301 13.57502,-12.73316c8.76126,-6.67299 18.52794,-14.77379 20.82004,-13.12441c2.41365,1.73685 5.90561,15.75298 4.12009,27.41731c-1.78553,11.66434 -7.2424,20.79224 -7.55562,26.69318c0,0 1.55632,1.69936 -0.08808,14.02426c-0.86129,6.45548 -3.09144,10.01108 -5.34151,13.03955z" fill="#f8b820" stroke="none" stroke-width="1" stroke-linecap="round"/><path d="M176.01415,94.15529c2.72861,-2.16676 22.27315,12.36099 23.56163,15.67717c0.79352,2.06234 -6.68233,3.08005 -9.79994,6.2356c-3.1176,3.15555 -6.23432,9.99375 -6.23432,9.99375c0,0 -3.3603,-11.08489 -5.29791,-17.12372c0,0 -2.92612,-14.22959 -2.22947,-14.7828z" data-paper-data="{&quot;index&quot;:null}" fill="#ffffff" stroke="none" stroke-width="1" stroke-linecap="butt"/><path d="M250.7058,128.017c0,0 -7.22635,-12.34697 -10.92162,-14.65072c-3.69525,-2.30375 -15.22847,-3.21016 -15.22847,-3.21016c0,0 8.17009,-9.08644 14.77572,-14.32778c6.72106,-5.33294 15.1836,-12.44814 16.75201,-11.72352c0.794,0.36684 2.94224,14.96437 1.32905,23.0456c-1.61319,8.08123 -6.7067,20.86659 -6.7067,20.86659z" fill="#ffffff" stroke="none" stroke-width="1" stroke-linecap="butt"/><path d="M194.84259,140.15839c0.57446,4.88073 0.92915,10.04626 0.83803,15.06475c-0.06206,3.62426 0.92423,9.25224 -0.7078,12.48975c-1.00094,1.97571 -4.6081,2.38399 -5.57687,0.60081c-2.97514,-5.47608 -3.62812,-12.17172 -4.11138,-18.43828c-0.09253,-4.08382 0.90033,-8.32281 2.41888,-11.98664c0.89994,-2.17751 3.30477,-7.41906 5.06686,-7.00745c1.72885,0.4194 1.78652,6.86326 2.07227,9.27702z" fill="#ffffff" stroke="none" stroke-width="1" stroke-linecap="round"/><path d="M223.81326,138.01838c2.10902,3.66521 2.94914,7.45391 3.68176,12.43903c0.73262,4.98511 2.8146,12.45798 0.66049,17.1078c-1.54554,3.24343 -7.57188,2.68429 -10.89075,3.03645c-2.95082,0.31237 -6.84773,1.2232 -8.44543,-1.51676c-2.75323,-4.7248 -2.86618,-12.55231 -2.80163,-18.15558c0.05373,-4.93895 0.56147,-10.4122 2.75034,-14.97374c1.49232,-2.58967 4.55262,-8.8124 7.48974,-8.51184c3.28528,0.33275 5.80999,7.54002 7.55546,10.5746z" fill="#ffffff" stroke="none" stroke-width="1" stroke-linecap="round"/><path d="M189.38613,131.34956l-16.55212,2.5308l-12.5108,8.34518l11.79421,-13.90057l16.80305,-0.63861z" fill="#f8b820" stroke="none" stroke-width="1.22222" stroke-linecap="round"/><path d="M249.06653,163.17758c-0.04759,1.24176 5.66922,-1.36876 9.44263,-0.97208c3.77342,0.39668 8.94397,2.90493 8.94397,2.90493c0,0 -6.07522,0.92703 -9.68974,2.37397c-3.61452,1.44694 -4.87121,2.64549 -4.87121,2.64549c0,0 3.4783,0.43263 6.35068,1.72749c2.87238,1.29486 6.33151,6.26252 6.33151,6.26252c0,0 -4.73133,-1.85451 -7.91792,-2.30709c-3.1866,-0.45258 -4.59007,0.29386 -5.18016,0.44682c-0.90636,0.23494 5.67576,9.39588 5.67576,9.39588c0,0 -4.40059,-3.32782 -7.77655,-4.75864c-3.37596,-1.43084 -5.99614,-0.01929 -6.49402,0.26322c-4.86928,2.76287 -3.89025,3.09984 -10.3405,5.02588c-3.5235,1.05212 -9.29869,2.39138 -14.66178,2.93502c-4.45481,0.45158 -8.63172,0.23828 -10.93863,-0.08374c-4.12683,-0.38119 -15.7609,-3.25862 -15.7609,-3.25862c0,0 -1.96494,0.90629 -3.43876,1.6321c-1.6254,0.80046 -5.5927,4.95447 -5.5927,4.95447c0,0 0.41635,-3.30428 1.28651,-5.2088c0.87015,-1.90452 1.9032,-3.5973 1.59044,-3.59121c-1.09541,0.02133 -1.67262,-0.94457 -3.20251,-0.63777c-1.5299,0.30681 -6.20381,2.95765 -6.20381,2.95765c0,0 1.36099,-4.19172 3.36631,-5.65553c2.00532,-1.46382 4.3754,-2.39096 4.3754,-2.39096c0,0 -2.89625,-0.85478 -4.4741,-1.45823c-1.62917,-0.62305 -5.55858,-0.53126 -5.55858,-0.53126c0,0 3.15224,-2.09197 4.77326,-2.73102c1.36955,-0.53991 4.32623,-0.85624 4.32623,-0.85624c0,0 -1.78248,-2.34068 -3.3162,-3.36302c-1.53372,-1.02234 -4.03426,-1.89717 -4.03426,-1.89717c0,0 1.82859,-0.79215 4.29634,-0.9872c4.35369,-0.34413 5.15402,2.43451 9.47993,3.03411c2.37311,0.32892 5.11472,-1.67084 7.14818,-1.67014c6.91697,-0.00305 14.33199,4.00614 20.7268,2.02806c2.83729,-0.87902 10.08139,-2.80846 11.82418,-3.70831c5.72916,-2.95811 5.58186,-5.30321 13.71583,-8.04886c10.60826,-3.58086 21.69488,-1.59735 21.69488,-1.59735c0,0 -14.67688,3.37602 -15.8965,7.12567z" fill="#f8f8f8" stroke="none" stroke-width="1" stroke-linecap="round"/><path d="M202.47304,169.32512c1.12275,0.4871 -2.42126,3.33429 -4.087,3.42695c-1.66572,0.09266 -5.50369,-2.34388 -4.44187,-2.9525c1.06179,-0.60862 2.54935,-1.0318 4.21507,-1.12446c1.66572,-0.09266 3.19105,0.16293 4.31379,0.65001z" fill="#101010" stroke="none" stroke-width="1" stroke-linecap="butt"/><path d="M188.28768,127.78118l-11.72872,-6.51474l-16.51839,2.69918c0,0 13.36719,-8.71169 15.89945,-8.58287c1.77636,0.09036 14.90034,8.56506 14.90034,8.56506z" fill="#f8b820" stroke="none" stroke-width="1.22222" stroke-linecap="round"/><path d="M191.79124,123.11561c0,0 -4.35818,-7.72679 -8.92684,-10.82195c-4.56867,-3.09516 -21.9432,-10.09175 -21.9432,-10.09175c0,0 19.81579,1.37507 22.86099,3.4839c1.84638,1.27864 12.5767,15.08101 12.5767,15.08101z" fill="#f8b820" stroke="none" stroke-width="1.22222" stroke-linecap="round"/><path d="M221.59438,173.54984c0.26774,-0.03434 3.38968,7.24982 -3.43165,9.07594c-3.82938,1.02515 -13.37385,-3.17608 -13.72722,-3.10775c-0.13176,0.02684 7.10964,0.40719 11.39111,-1.08197c1.26119,-0.43866 2.27985,-1.04288 3.08941,-1.67704c1.93873,-1.51869 2.67836,-3.20915 2.67836,-3.20915z" data-paper-data="{&quot;index&quot;:null}" fill="#b3b3b3" stroke="#000000" stroke-width="0" stroke-linecap="butt"/><g stroke="none" stroke-linecap="butt"><path d="M197.53521,151.25638c0.6261,1.53091 1.01907,3.63478 1.01907,5.96098c0,2.32622 -0.39297,4.4301 -1.01907,5.96099c-0.63327,1.52392 -1.50028,2.46787 -2.4627,2.46787c-0.96182,0 -1.82884,-0.94395 -2.46211,-2.46787c-0.6267,-1.53091 -1.01907,-3.63479 -1.01907,-5.96099c0,-2.32622 0.39237,-4.43009 1.01907,-5.96098c0.63327,-1.52392 1.50028,-2.46787 2.46211,-2.46787c0.96242,0 1.82943,0.94395 2.4627,2.46787z" fill="#4088ed" stroke-width="1.0615"/><path d="M196.80415,153.02169c0.42397,0.95347 0.68336,2.26841 0.68336,3.72181c0,1.4534 -0.25939,2.76834 -0.68336,3.72245c-0.42098,0.95347 -1.00297,1.54361 -1.64697,1.54361c-0.644,0 -1.22539,-0.59014 -1.64637,-1.54361c-0.42397,-0.95412 -0.68336,-2.26904 -0.68336,-3.72245c0,-1.4534 0.25939,-2.76834 0.68336,-3.72181c0.42098,-0.95412 1.00237,-1.54361 1.64637,-1.54361c0.644,0 1.22599,0.58949 1.64697,1.54361z" fill="#000000" stroke-width="0.47368"/><path d="M195.48931,153.03949c0.1926,0.39067 0.31246,0.92871 0.31246,1.52455c0,0.59584 -0.11985,1.13388 -0.31246,1.52455c-0.18902,0.39003 -0.45497,0.63269 -0.74836,0.63269c-0.29278,0 -0.55932,-0.24265 -0.74836,-0.63269c-0.1926,-0.39067 -0.31186,-0.92871 -0.31186,-1.52455c0,-0.59584 0.11926,-1.13388 0.31186,-1.52455c0.18902,-0.39003 0.45558,-0.63269 0.74836,-0.63269c0.29338,0 0.55932,0.24265 0.74836,0.63269z" fill="#ffffff" stroke-width="0.64678"/></g><g stroke="none" stroke-linecap="butt"><path d="M219.0022,151.58664c0.6261,1.53091 1.01907,3.63478 1.01907,5.96098c0,2.32622 -0.39297,4.4301 -1.01907,5.96099c-0.63327,1.52392 -1.50028,2.46787 -2.4627,2.46787c-0.96182,0 -1.82884,-0.94395 -2.46211,-2.46787c-0.6267,-1.53091 -1.01907,-3.63479 -1.01907,-5.96099c0,-2.32622 0.39237,-4.43009 1.01907,-5.96098c0.63327,-1.52392 1.50028,-2.46787 2.46211,-2.46787c0.96242,0 1.82943,0.94395 2.4627,2.46787z" fill="#4088ed" stroke-width="1.0615"/><path d="M218.27114,153.35195c0.42397,0.95347 0.68336,2.26841 0.68336,3.72181c0,1.4534 -0.25939,2.76834 -0.68336,3.72245c-0.42098,0.95347 -1.00297,1.54361 -1.64697,1.54361c-0.644,0 -1.22539,-0.59014 -1.64637,-1.54361c-0.42397,-0.95412 -0.68336,-2.26904 -0.68336,-3.72245c0,-1.4534 0.25939,-2.76834 0.68336,-3.72181c0.42098,-0.95412 1.00237,-1.54361 1.64637,-1.54361c0.644,0 1.22599,0.58949 1.64697,1.54361z" fill="#000000" stroke-width="0.47368"/><path d="M216.9563,153.36974c0.1926,0.39067 0.31246,0.92871 0.31246,1.52455c0,0.59584 -0.11985,1.13388 -0.31246,1.52455c-0.18902,0.39003 -0.45497,0.63269 -0.74836,0.63269c-0.29278,0 -0.55932,-0.24265 -0.74836,-0.63269c-0.1926,-0.39067 -0.31186,-0.92871 -0.31186,-1.52455c0,-0.59584 0.11926,-1.13388 0.31186,-1.52455c0.18902,-0.39003 0.45558,-0.63269 0.74836,-0.63269c0.29338,0 0.55932,0.24265 0.74836,0.63269z" fill="#ffffff" stroke-width="0.64678"/></g></g><g stroke-width="0" stroke-linecap="butt"><path d="M226.32667,94.77407c0,0 5.50766,-6.60561 13.99022,-11.09962c6.98748,-3.7019 16.15957,-4.96043 21.20196,-5.15371c4.91503,-0.18839 10.10426,9.65967 12.88161,20.80036c3.5309,14.16354 3.98472,30.38496 3.98472,30.38496l-13.14988,-20.71697l-7.06235,6.57896l-6.13023,-8.31568c0,0 -7.67599,2.32059 -8.71282,2.36033c-4.25655,0.16315 -2.37516,-11.8826 -2.37516,-11.8826l-10.00914,3.74102l-4.61893,-6.69712z" fill="#23d892" stroke="none"/><path d="M213.04585,110.30349c-3.67439,-0.81761 3.20189,-8.68861 7.07483,-11.8108c3.89785,-3.14235 10.45944,-6.77409 10.45944,-6.77409l-0.29665,8.61003l13.41302,-4.62404c0,0 -0.32508,3.79604 -0.32925,6.23124c-0.00416,2.43519 0.30763,6.37048 0.30763,6.37048l11.88148,-3.63377l0.98766,10.11807l6.06707,-4.11255l-3.07899,9.99205c0,0 1.85064,6.84056 -1.06893,7.80943c-6.20596,2.05937 -13.06903,-6.96021 -23.48648,-10.46928c-11.72825,-3.95067 -4.87893,-3.91259 -21.93089,-7.70671z" fill="#fd0000" stroke="none"/><g><path d="M272.64519,134.17704c-0.11755,-3.06694 2.2734,-5.64849 5.34034,-5.76604c3.06694,-0.11755 5.64849,2.2734 5.76604,5.34034c0.11755,3.06694 -2.2734,5.64849 -5.34034,5.76604c-3.06694,0.11755 -5.64849,-2.2734 -5.76604,-5.34034z" fill="#db7b04" stroke="none"/><path d="M284.29696,133.53362c0.0404,1.05382 -3.11281,0.82333 -6.07918,0.93702c-2.96637,0.1137 -5.89479,0.94539 -5.93519,-0.10844c-0.06152,-1.6051 2.88288,-2.02137 5.84919,-2.13507c2.96637,-0.1137 6.09661,-0.48235 6.16517,1.30649z" fill="#feeb00" stroke="#000000"/><path d="M278.70876,139.05339c0.04439,1.1581 -0.63619,0.46808 -1.21528,0.49027c-0.57908,0.0222 -1.50833,-2.35456 -1.55271,-3.51266c-0.04439,-1.1581 1.18042,-0.67301 1.7595,-0.6952c0.57908,-0.0222 0.9641,2.55949 1.00849,3.71759z" fill="#000000" stroke="none"/><path d="M281.93386,135.21828c0.30444,-0.01167 0.90171,-0.47953 0.93283,0.33233c0.03112,0.81185 -0.52268,2.41237 -0.82719,2.42404c-0.3045,0.01167 -0.56946,-0.4533 -0.60057,-1.26515c-0.03112,-0.81185 0.19042,-1.47954 0.49492,-1.49121z" fill="#000000" stroke="none"/></g></g><path d="M212.48785,255.60067c-3.65159,1.09695 -7.68464,1.30473 -11.90613,0.37754c-5.02635,-1.10737 -9.66828,-2.97315 -10.22998,-7.07802c-0.99435,-7.23029 3.39794,-12.1251 4.18526,-15.31637c0.78734,-3.19133 1.86028,-5.71197 1.22907,-8.95718c-0.6312,-3.24521 0.19423,-8.05774 1.49641,-8.87812c1.83238,-1.1524 0.72289,-0.10039 5.05082,0.24443c4.32792,0.34482 6.51867,0.63702 11.50427,1.8118c4.98558,1.17478 1.64343,0.26435 4.39427,1.60566c0.74982,0.45951 1.9249,4.42262 2.3346,6.58057c0.40976,2.15798 -0.31515,3.31638 -0.01839,5.61903c0.29675,2.30265 1.21067,4.22089 1.48475,5.75913c0.62466,4.31599 3.77824,13.67757 0.71946,15.12418c-6.11784,3.22225 -7.99707,-6.2891 -8.63329,-5.8644c-0.64245,0.43079 4.33613,0.89911 3.31979,6.11133c-0.84296,2.55049 -1.87357,1.76898 -4.93089,2.86037z" data-paper-data="{&quot;index&quot;:null}" fill="#ffffff" stroke="none" stroke-width="0.67216" stroke-linecap="round"/><path d="M255.15162,259.64063c0.10805,-0.63029 4.34275,-6.58098 12.72025,-7.79797c5.77132,-0.83839 12.80024,2.89468 13.71126,4.80451c0.80789,1.69364 -4.63948,-1.84151 -13.14601,-2.24765c-4.8201,-0.23013 -13.58194,6.97036 -13.2855,5.24111z" fill="#424242" stroke="none" stroke-width="0" stroke-linecap="butt"/></g></g></svg>