<svg version="1.1" xmlns="http://www.w3.org/2000/svg" xmlns:xlink="http://www.w3.org/1999/xlink" width="449.15593" height="30.48264" viewBox="0,0,449.15593,30.48264"><g transform="translate(-13.54947,-7.64331)"><g data-paper-data="{&quot;isPaintingLayer&quot;:true}" fill="#001361" fill-rule="nonzero" stroke="none" stroke-linecap="butt" stroke-linejoin="miter" stroke-miterlimit="10" stroke-dasharray="" stroke-dashoffset="0" style="mix-blend-mode: normal"><path d="M173.24943,36.58204v-28.93873h10.33525v9.99077h6.89017v-9.99077h10.33527v28.93873h-10.33527v-9.99077h-6.89017v9.99077z" stroke-width="0.26459"/><path d="M204.25518,36.58204l8.61272,-28.93873h15.50288l8.61272,28.93873h-9.99075l-1.72255,-5.51217h-9.64623l-1.37803,5.51217zM223.20314,23.49071l-2.5838,-8.6127l-2.58382,8.6127z" stroke-width="0.26459"/><path d="M243.18464,36.58204c-1.14835,-0.22968 -2.06705,-0.45937 -2.75607,-0.68903l1.37803,-6.89017l4.1341,0.3445c3.21542,0.22967 5.74182,0.22967 7.5792,0c0.91868,-0.45933 1.37803,-1.14835 1.37803,-2.06703c-0.22967,-0.91868 -2.29672,-1.37803 -6.20117,-1.37803c-3.44507,-0.45935 -5.85662,-1.72255 -7.23467,-3.7896c-0.68902,-1.60772 -1.03353,-3.44508 -1.03353,-5.51213c0,-3.21542 1.14837,-5.62698 3.4451,-7.23467c1.60772,-1.14838 4.47862,-1.72257 8.6127,-1.72257c4.13412,0 8.26822,0.34452 12.4023,1.03353l-1.37803,6.54567c-4.82312,-0.22967 -8.15335,-0.3445 -9.99073,-0.3445c-1.60772,0.22967 -2.41157,0.80385 -2.41157,1.72253c-0.22967,1.60772 1.03353,2.41157 3.7896,2.41157c3.90442,0 6.77532,0.68902 8.6127,2.06703c1.37805,1.14835 2.06707,3.10057 2.06707,5.85663c0,2.3886 -0.57418,4.45565 -1.72257,6.20117c-1.14835,2.06705 -4.01925,3.33025 -8.6127,3.7896c-3.90442,0.22967 -7.92368,0.11483 -12.0578,-0.3445z" stroke-width="0.26459"/><path d="M286.66159,36.58204v-28.93873h24.11557v8.2682h-13.78033v2.06707h13.78033v8.2682h-13.78033v10.33527z" stroke-width="0.26459"/><path d="M314.22228,36.58204l8.6127,-28.93873h15.5029l8.6127,28.93873h-9.99073l-1.72257,-5.51217h-9.64623l-1.37803,5.51217zM333.17025,23.49071l-2.5838,-8.6127l-2.58383,8.6127z" stroke-width="0.26459"/><path d="M350.39568,36.58204v-28.93873h10.33527v20.6705h13.78033v8.26823z" stroke-width="0.26459"/><path d="M377.95634,36.58204v-28.93873h10.33527v20.6705h13.78033v8.26823z" stroke-width="0.26459"/><path d="M405.51704,36.58204v-28.93873h24.11557v8.2682h-13.78033v2.06707h13.78033v8.2682h-13.78033v2.06703h13.78033v8.26823z" stroke-width="0.26459"/><path d="M433.07768,36.58204v-28.93873h11.7133l7.5792,12.91907v-12.91907h10.33523v28.93873h-11.71327l-7.5792,-12.50567v12.50567z" stroke-width="0.26459"/><path d="M16.34171,37.42788c-1.16344,-0.23268 -2.09418,-0.46538 -2.79223,-0.69807l1.39611,-6.98059l4.18836,0.34905c3.25763,0.23268 5.81718,0.23268 7.67866,0c0.93075,-0.4654 1.39612,-1.16344 1.39612,-2.09421c-0.23268,-0.93075 -2.32686,-1.39611 -6.28253,-1.39611c-3.4903,-0.46537 -5.93351,-1.74515 -7.32963,-3.83933c-0.69807,-1.62879 -1.04708,-3.49028 -1.04708,-5.58449c0,-3.2576 1.16344,-5.7008 3.4903,-7.32961c1.62881,-1.16342 4.5374,-1.74515 8.72574,-1.74515c4.18837,0 8.37671,0.34901 12.56508,1.04706l-1.39611,6.63158c-4.88641,-0.23268 -8.26037,-0.34901 -10.12188,-0.34901c-1.62881,0.23268 -2.44322,0.81438 -2.44322,1.74515c-0.23268,1.62881 1.04708,2.44321 3.83933,2.44321c3.95567,0 6.86426,0.69807 8.72574,2.09421c1.39612,1.16342 2.09419,3.14126 2.09419,5.93349c0,2.41993 -0.58171,4.5141 -1.74515,6.28253c-1.16344,2.09421 -4.072,3.37398 -8.72574,3.83933c-3.95567,0.23268 -8.0277,0.11633 -12.21604,-0.34902z" stroke-width="0.26458"/><path d="M42.51897,23.11767c0,-4.65376 1.39612,-8.31859 4.18837,-10.99446c2.79223,-2.6759 6.63156,-4.01383 11.518,-4.01383c4.88642,0 8.72575,1.33794 11.518,4.01384c2.79223,2.6759 4.18837,6.34072 4.18837,10.99446c0,3.95567 -1.39611,7.44597 -4.18837,10.47087c-2.79223,3.02493 -6.63157,4.53738 -11.518,4.53738c-4.88642,0 -8.72575,-1.51245 -11.518,-4.53738c-2.79225,-3.02492 -4.18837,-6.5152 -4.18837,-10.47087zM57.87627,17.18413c-2.32686,1.39614 -4.07203,2.90861 -5.23545,4.53742c-1.16344,1.39611 -1.39612,3.14124 -0.69807,5.23543l0.69807,0.69807c1.16344,1.62881 3.14127,2.09419 5.93352,1.39612c2.32686,-1.39614 4.07201,-2.90859 5.23545,-4.53738c1.39612,-1.86149 1.39612,-3.95567 0,-6.28255l-0.69807,-0.69807c-1.39612,-0.93075 -3.14127,-1.04708 -5.23545,-0.34901z" stroke-width="0.26458"/><path d="M77.42197,37.42788v-29.31852h11.86702l7.67866,13.08862v-13.08862h10.4709v29.31853h-11.86702l-7.67866,-12.66981v12.66981z" stroke-width="0.26458"/><path d="M110.92884,37.42788v-29.31852h12.21604v29.31853z" stroke-width="0.26458"/><path d="M126.6352,23.11767c0,-4.65376 1.39611,-8.31859 4.18836,-10.99446c2.79223,-2.6759 6.63157,-4.01383 11.518,-4.01383c4.18837,0 7.09696,0.11633 8.72576,0.34901l-3.14129,9.77285l-0.69807,-0.69807c-1.39612,-0.93075 -3.14126,-1.04708 -5.23544,-0.34901c-2.32686,1.39614 -4.07203,2.90861 -5.23545,4.53742c-1.16344,1.39612 -1.39611,3.14124 -0.69806,5.23542l0.69806,0.69807c1.16344,1.62881 3.14127,2.09419 5.93352,1.39612c2.32686,-1.39614 4.07201,-2.90859 5.23545,-4.53738l4.18834,12.21602c-1.62879,0.93075 -4.88639,1.39612 -9.77282,1.39612c-4.88641,0 -8.72575,-1.51245 -11.518,-4.53738c-2.79225,-3.02492 -4.18836,-6.51521 -4.18836,-10.47088z" stroke-width="0.26458"/></g></g></svg>