<svg version="1.1" xmlns="http://www.w3.org/2000/svg" xmlns:xlink="http://www.w3.org/1999/xlink" width="34.52508" height="36.10608" viewBox="0,0,34.52508,36.10608"><g transform="translate(-217.47665,-163.90957)"><g data-paper-data="{&quot;isPaintingLayer&quot;:true}" fill-rule="nonzero" stroke-miterlimit="10" stroke-dasharray="" stroke-dashoffset="0" style="mix-blend-mode: normal"><path d="M237.76549,177.08658c0.33779,-0.19812 0.52495,-0.08534 0.64963,0.0898c0.18557,0.26066 0.14209,0.50143 -0.10568,0.69353c-0.98883,0.76661 -1.83939,1.45499 -2.48719,2.02465c-0.39494,0.34729 -1.88687,1.75866 -1.88687,1.75866c0,0 -0.07153,-0.08497 -0.35901,-0.23552c-0.28749,-0.15055 -0.46501,-0.66435 -0.46501,-0.66435c0,0 0.89715,-0.73801 1.87611,-1.59886c0.68471,-0.60211 1.75792,-1.46961 2.77805,-2.0679z" data-paper-data="{&quot;index&quot;:null}" fill="#4c2b5c" stroke="none" stroke-width="0" stroke-linecap="butt" stroke-linejoin="miter"/><g data-paper-data="{&quot;index&quot;:null}" stroke-width="0" stroke-linecap="butt" stroke-linejoin="miter"><g data-paper-data="{&quot;index&quot;:null}"><path d="M228.53735,168.26742c-0.14736,-1.05319 0.59013,-2.0269 1.6472,-2.1748c1.05708,-0.1479 2.03347,0.58598 2.18084,1.63918c0.14736,1.05319 -0.59011,2.0269 -1.64718,2.17481c-1.05708,0.1479 -2.03349,-0.58597 -2.18086,-1.63918z" fill="#e0cb17" stroke="none"/><path d="M229.28677,168.80387c-0.09105,-0.65067 0.36455,-1.25221 1.01764,-1.3436c0.65308,-0.09138 1.25628,0.36201 1.34734,1.01268c0.09105,0.65067 -0.36455,1.25221 -1.01764,1.3436c-0.65308,0.09138 -1.25628,-0.36202 -1.34734,-1.01268z" fill="#e0cb17" stroke="#000000"/><path d="M229.44505,172.50772c-0.48429,-0.97577 0.14204,-2.17138 0.14204,-2.17138l2.08086,-0.30618c0,0 0.17989,0.17982 0.68976,1.42338c0.52939,1.29121 -0.5166,3.4242 -0.5166,3.4242c0,0 -1.91175,-1.39425 -2.39605,-2.37002z" fill="#e8edf4" stroke="#000000"/><path d="M230.69002,170.40937c-0.506,0.07309 -1.39536,-0.09565 -1.39536,-0.09565l0.12128,-0.70503c0,0 0.67847,0.31347 1.13182,0.27604c0.45333,-0.03744 1.03929,-0.45529 1.03929,-0.45529l0.34749,0.44605c0,0 -0.66637,0.45035 -1.24454,0.53388z" fill="#dbded5" stroke="#000000"/></g><g data-paper-data="{&quot;index&quot;:null}" stroke="none"><path d="M237.2089,173.28575c0.19924,-0.02787 0.40765,0.28478 0.46552,0.69833c0.05787,0.41356 -0.05674,0.77143 -0.25598,0.79929c-0.19924,0.02787 -0.40768,-0.28478 -0.46554,-0.69833c-0.05787,-0.41356 0.05675,-0.77143 0.256,-0.79929z" fill="#000000"/><path d="M239.33172,178.31507c0.20753,-0.02904 0.95215,0.78066 0.97761,0.96262c0.02547,0.18198 -0.15585,1.4266 -0.36338,1.45564c-0.20753,0.02904 -1.29371,-0.15491 -1.29371,-0.15491c0,0 0.47195,-2.23431 0.67948,-2.26335z" fill="#807d5a"/><path d="M231.93131,169.20137l0.10931,-0.16799l5.63737,5.16634l-0.05691,0.32354z" fill="#6e6e73"/><path d="M233.9826,170.6449l-0.25592,0.36156l-1.35102,-1.18523l0.28598,-0.36577z" fill="#ddcb1e"/></g></g><g data-paper-data="{&quot;index&quot;:null}" stroke-width="0" stroke-linecap="butt" stroke-linejoin="miter"><g data-paper-data="{&quot;index&quot;:null}"><path d="M249.47989,168.82657c-1.35606,0.18974 -2.60863,-0.75169 -2.79766,-2.10278c-0.18904,-1.35107 0.75701,-2.60017 2.11308,-2.78991c1.35606,-0.18974 2.60863,0.7517 2.79767,2.10279c0.18904,1.35107 -0.75702,2.60016 -2.11308,2.7899z" fill="#e0cb17" stroke="none"/><path d="M249.55194,168.68588c-0.83777,0.11723 -1.6116,-0.46441 -1.7284,-1.29912c-0.1168,-0.83471 0.46766,-1.60638 1.30545,-1.7236c0.83777,-0.11723 1.6116,0.46439 1.72841,1.29911c0.1168,0.83471 -0.46767,1.60639 -1.30545,1.72361z" fill="#e0cb17" stroke="#000000"/><path d="M251.96629,171.58695c-0.25385,1.37419 -2.12121,3.76723 -2.12121,3.76723c0,0 -2.04132,-2.2629 -1.84291,-4.04206c0.19109,-1.71352 0.34968,-1.99869 0.34968,-1.99869l2.67468,-0.355c0,0 1.1936,1.25433 0.93978,2.62853z" fill="#e8edf4" stroke="#000000"/><path d="M249.69173,169.43683c-0.74259,0.10057 -1.72318,-0.22036 -1.72318,-0.22036l0.2716,-0.67261c0,0 0.86994,0.30916 1.44234,0.19574c0.5724,-0.11344 1.29895,-0.73905 1.29895,-0.73905l0.39784,0.82701c0,0 -1.03763,0.52127 -1.68756,0.60927z" fill="#dbded5" stroke="#000000"/></g><g data-paper-data="{&quot;index&quot;:null}" stroke="none"><path d="M244.27914,177.58261c0.26257,0.39159 0.34232,2.16557 0.34232,2.16557l-3.08259,0.4509c0,0 -1.18413,-1.1359 -1.06542,-2.59013c0.08728,-1.06907 1.43886,-2.5686 1.63646,-2.60231c1.27309,-0.21731 1.90662,2.18438 2.16921,2.57597z" fill="#e4dcaa"/><path d="M243.26019,176.17622c0.07424,0.53052 -0.07279,0.9896 -0.32837,1.02536c-0.25561,0.03576 -0.52298,-0.36531 -0.59721,-0.89585c-0.07424,-0.53052 0.0728,-0.9896 0.32839,-1.02536c0.25561,-0.03576 0.52296,0.3653 0.59719,0.89585z" fill="#000000"/><path d="M244.77332,181.93241c-0.02857,0.85978 -0.29891,2.27064 -0.29891,2.27064l-1.10237,0.64165c0,0 -1.49368,-0.37098 -1.57477,-1.1378c-0.04025,-0.38075 -0.24987,-3.36833 -0.24987,-3.36833l1.11058,-0.94789c0,0 0.60468,-0.03258 0.98044,0.02338c0.37575,0.05595 0.98449,0.31938 0.98449,0.31938c0,0 0.17895,1.33919 0.1504,2.19898z" fill="#dfcc17"/><path d="M243.45027,184.78456c0,0 -1.2751,0.60935 -1.54135,0.6466c-0.26624,0.03726 -0.92813,-1.43426 -0.9608,-1.6677c-0.03267,-0.23343 0.60076,-1.49444 0.86702,-1.53167c0.26624,-0.03726 1.6351,2.55275 1.6351,2.55275z" fill="#807d5a"/><path d="M242.59021,176.95203l-0.18411,-0.37906l5.135,-8.35796l0.19401,0.16875z" fill="#6e6e73"/><path d="M246.92367,168.95435l0.48158,0.35049l-1.24927,1.93776l-0.44301,-0.3559z" fill="#ddcb1e"/></g></g><g data-paper-data="{&quot;index&quot;:null}" stroke="none" stroke-width="0" stroke-linecap="butt" stroke-linejoin="miter"><g><path d="M243.39153,192.0994c0,0 1.55681,0.31416 1.48026,1.65638c-0.00712,0.12472 -0.28388,0.10838 -0.28388,0.10838l0.24196,0.2898l-0.24408,0.74665l-0.22253,-0.10361c0,0 -0.61382,0.73287 -0.76417,1.13052c-0.14992,0.39652 -0.13664,1.25202 -0.13664,1.25202l0.08911,0.18692l-0.30806,0.72924l-0.16603,-0.06689l-0.12215,0.19521c0,0 0.24797,0.16146 -0.11229,0.47215c-0.11575,0.09982 -0.43552,0.48399 -0.43552,0.48399l-0.14034,-0.11165l-0.15718,0.07221c0,0 0.12345,0.24368 -0.00107,0.30005c-0.14929,0.06757 -0.48566,0.31431 -0.74367,0.39282c-0.09993,0.03042 -0.00486,-0.11181 -0.10375,-0.0899c-0.06441,0.01428 -0.08218,0.04837 -0.14965,0.06412c-0.10934,0.02551 0.04007,0.08348 -0.03251,0.12772c-0.05936,0.03616 -0.25509,0.06286 -0.42258,0.07697c-0.16749,0.01411 -0.33845,-0.02384 -0.33845,-0.02384l-0.06456,-0.16259l-0.24384,0.08958c0,0 -0.3281,-0.14034 -0.45439,-0.31541c-0.12628,-0.17507 -0.13589,-0.5029 -0.13589,-0.5029c0,0 0.61875,0.16992 0.99627,0.13069c3.11198,-1.06303 2.45912,-2.6763 2.74142,-4.56706c0.1303,-0.87263 0.51415,-1.23712 0.49085,-1.80297c-0.01914,-0.46445 -0.25666,-0.7586 -0.25666,-0.7586z" data-paper-data="{&quot;index&quot;:null}" fill="#a87643"/><path d="M240.68627,194.29522c-0.2498,-0.99007 -1.10204,-4.36706 -0.89714,-4.60144c0.27574,-0.29191 1.95918,-0.95087 1.95918,-0.95087c0,0 0.23977,0.65118 0.34212,1.04625c0.10235,0.39509 0.47568,1.59446 0.47568,1.59446c0,0 1.15554,0.78129 1.1745,1.46984c0.02542,0.92326 -1.38819,3.57949 -1.38819,3.57949c0,0 -1.22988,-0.40874 -1.66614,-2.13774z" data-paper-data="{&quot;index&quot;:null}" fill="#fc6293"/><path d="M240.22899,188.89806c0.25036,0.13686 -0.39327,0.74807 -0.39327,0.74807c0,0 -0.10994,0.23869 -0.0459,0.54323c0.10537,0.50104 0.34082,1.23126 0.47527,2.00935c0.15309,0.88592 0.38021,1.89692 0.56635,2.38976c0.22965,0.60804 1.17488,1.70938 1.53836,1.6915c0.03559,-0.00174 0.05296,-0.30521 0.04492,-0.50401c0.0216,-0.52931 -0.05395,-0.37312 0.03586,-1.08087c0.08392,-0.56849 0.75275,-0.13009 0.75275,-0.13009c0,0 0.1934,3.21748 -1.47612,4.34635c-1.25853,0.85096 -2.28779,0.24106 -2.29634,0.23776c-0.01532,-0.00589 -0.47585,-0.95799 -0.53499,-1.65962c-0.01644,-0.19504 0.6079,-1.17812 0.56801,-2.04598c-0.03711,-0.80753 -0.04024,-2.17519 -0.18335,-3.05814c-0.25634,-1.58156 -0.763,-2.7824 -0.57468,-2.9272c0.6285,-0.48342 1.36747,-0.64521 1.52315,-0.5601z" data-paper-data="{&quot;index&quot;:null}" fill="#f3e2e2"/><path d="M239.46925,195.64895c0,0 -0.14621,-2.14787 -0.19939,-2.77393c-0.0736,-0.86662 -0.31522,-1.66587 -0.66346,-3.10054c-0.06058,-0.24961 0.29067,-0.49635 0.29067,-0.49635l0.12752,0.04913c0,0 -0.29751,0.25684 -0.27271,0.45598c0.04927,0.39586 0.41527,1.81825 0.65262,2.98672c0.17993,0.88569 0.18772,2.243 0.18772,2.243z" data-paper-data="{&quot;index&quot;:null}" fill="#bfa4a4"/><path d="M241.25664,192.91474l-0.34309,-1.16703l0.616,-0.16513l0.288,1.14578z" data-paper-data="{&quot;index&quot;:null}" fill="#fffff6"/><path d="M240.91283,191.12635l-0.19826,-0.99749l0.54822,-0.16312l0.24088,0.93292z" data-paper-data="{&quot;index&quot;:null}" fill="#fffff6"/><path d="M238.98473,191.15216l-0.27263,-0.87488c0,0 0.65637,0.10895 1.07628,0.07715c0.41991,-0.03181 0.91408,-0.22792 0.91408,-0.22792l0.2123,0.993c0,0 -0.71185,0.17809 -1.19538,0.1598c-0.48355,-0.01829 -0.73466,-0.12716 -0.73466,-0.12716z" data-paper-data="{&quot;index&quot;:null}" fill="#754c86"/><path d="M240.31887,193.15111c-0.40145,0.05912 -1.01132,0.04174 -1.01132,0.04174c0,0 -0.04125,-0.394 -0.07488,-0.64527c-0.03363,-0.25127 -0.10819,-0.72241 -0.10819,-0.72241c0,0 0.65996,0.07492 1.04583,0.05591c0.38587,-0.01902 0.79183,-0.13851 0.79183,-0.13851l0.32633,1.17985c0,0 -0.56815,0.16955 -0.96959,0.22869z" data-paper-data="{&quot;index&quot;:null}" fill="#754c86"/><path d="M241.57398,188.83487l-1.63897,0.065c0,0 0.08069,-0.06473 0.43005,-0.10715c0.34936,-0.04243 0.67155,-0.11531 0.80239,-0.12473c0.21618,-0.01555 0.56497,0.08693 0.56497,0.08693z" data-paper-data="{&quot;index&quot;:null}" fill="#ae8484"/><path d="M239.09028,189.48246c-0.04546,-0.19588 0.30987,-0.40702 1.14371,-0.60063c0.83382,-0.19361 1.3254,-0.03792 1.3254,-0.03792c0,0 -0.63246,0.28567 -0.96502,0.41684c-0.67616,0.27789 -0.56485,0.31668 -0.94193,0.38551c-0.37708,0.06883 -0.52436,-0.00913 -0.55819,-0.15487z" data-paper-data="{&quot;index&quot;:null}" fill="#532c31"/></g><path d="M240.11312,188.84871c0,0 -0.02431,-0.73604 0.21974,-0.99749c0.24404,-0.26146 0.5951,-0.42486 0.83233,-0.12964c0.23723,0.29523 -0.12998,0.99161 -0.12998,0.99161z" fill="#fc6293"/></g><g data-paper-data="{&quot;index&quot;:null}" stroke="none" stroke-width="0" stroke-linecap="butt" stroke-linejoin="miter"><path d="M240.08088,183.75346l0.48507,3.42913l0.17857,2.09399l-1.12786,0.4388l-0.28157,-1.90834l-0.47731,-3.71665z" data-paper-data="{&quot;index&quot;:null}" fill="#8e5173"/><path d="M240.492,186.69189l0.07392,0.49072l0.17857,2.09399l-1.12786,0.4388l-0.28157,-1.90834l-0.08177,-0.75756z" data-paper-data="{&quot;index&quot;:null}" fill="#a71e48"/><path d="M239.28067,187.31841l-0.03812,-0.27242l1.24133,-0.35343l0.05189,0.25416z" fill="#af2753"/><path d="M239.34795,187.79918l-0.03812,-0.27242l1.24133,-0.35343l0.05189,0.25416z" fill="#a19589"/></g><path d="M241.16869,182.34842l1.34815,0.49352l2.78371,0.60529c0,0 -2.17178,0.45906 -3.05293,0.30328c-0.81089,-0.14335 -2.40225,-1.55273 -2.40225,-1.55273z" data-paper-data="{&quot;index&quot;:null}" fill="#f79db4" stroke="none" stroke-width="0" stroke-linecap="butt" stroke-linejoin="miter"/><path d="M230.1748,182.8986c0.60764,-0.5955 1.75917,-1.43384 1.75917,-1.43384l2.24979,0.98286c0,0 0.23736,0.27574 0.25377,0.837c0.01065,0.36449 -0.28301,0.89048 -0.28301,0.89048c0,0 0.6115,-0.36242 0.84577,0.16498c0.15042,0.33864 -0.55469,1.19487 -0.87292,1.43369c-0.18734,0.1406 -0.59805,0.27361 -0.93162,0.22717c-0.21041,-0.02928 -0.4243,-0.22978 -0.4243,-0.22978c0,0 -0.25011,0.28145 -0.57239,0.04195c-0.09874,-0.07336 -0.25443,-0.14582 -0.25443,-0.14582c0,0 -0.2416,0.14505 -0.39132,0.16695c-0.14972,0.02192 -0.38073,-0.07333 -0.38073,-0.07333l-0.21044,-0.36291c0,0 -0.53754,0.06079 -0.63997,0.01823c-0.40188,-0.16692 -0.39888,-0.64945 -0.39896,-0.90843c-0.00013,-0.47421 0.15476,-1.51435 0.25158,-1.60922z" data-paper-data="{&quot;index&quot;:null}" fill="#f44a7d" stroke="none" stroke-width="0" stroke-linecap="butt" stroke-linejoin="miter"/><g data-paper-data="{&quot;index&quot;:null}" stroke="none" stroke-width="0" stroke-linecap="butt" stroke-linejoin="miter"><path d="M242.81558,188.07777c0,0 0.03623,-0.73553 0.30094,-0.97607c0.26469,-0.24054 0.62799,-0.37455 0.84017,-0.06084c0.21218,0.31371 -0.21098,0.97757 -0.21098,0.97757z" fill="#f3e2e2"/><g><path d="M245.90936,191.20984c0,0 1.66597,0.10211 1.78018,1.51034c0.01062,0.13084 -0.27987,0.15382 -0.27987,0.15382l0.29376,0.26669l-0.14619,0.8125l-0.2466,-0.07569c0,0 -0.53308,0.85157 -0.63213,1.28723c-0.09876,0.43442 0.03867,1.32302 0.03867,1.32302l0.11977,0.18168l-0.21533,0.80364l-0.18247,-0.04563l-0.09896,0.22086c0,0 0.28145,0.13224 -0.04866,0.50771c-0.10606,0.12064 -0.38344,0.56673 -0.38344,0.56673l-0.1622,-0.09594l-0.15317,0.09787c0,0 0.16371,0.23584 0.04223,0.3125c-0.14562,0.09192 -0.46014,0.39735 -0.71738,0.51637c-0.09965,0.04611 -0.02122,-0.11568 -0.121,-0.07861c-0.06498,0.02415 -0.07855,0.06221 -0.14651,0.08835c-0.11012,0.04234 0.0538,0.08111 -0.01539,0.13762c-0.05658,0.04622 -0.25645,0.10231 -0.42877,0.14119c-0.17232,0.03889 -0.35575,0.02407 -0.35575,0.02407l-0.09069,-0.15992l-0.24088,0.12848c0,0 -0.36181,-0.09868 -0.51855,-0.26268c-0.15674,-0.16399 -0.2141,-0.50385 -0.2141,-0.50385c0,0 0.66863,0.0875 1.05594,-0.00789c3.08586,-1.55618 2.17317,-3.1412 2.19387,-5.1502c0.00957,-0.92718 0.35647,-1.36206 0.25045,-1.94773c-0.087,-0.48073 -0.37677,-0.75258 -0.37677,-0.75258z" data-paper-data="{&quot;index&quot;:null}" fill="#a87643"/><path d="M243.41053,193.88646c-0.40309,-0.99454 -1.77811,-4.3867 -1.59869,-4.6603c0.24485,-0.3437 1.90202,-1.27288 1.90202,-1.27288c0,0 0.34367,0.64319 0.50729,1.03967c0.16361,0.39648 0.7255,1.59105 0.7255,1.59105c0,0 1.31573,0.64633 1.43496,1.36033c0.15987,0.95742 -0.92786,3.92667 -0.92786,3.92667c0,0 -1.33931,-0.24778 -2.04323,-1.98457z" data-paper-data="{&quot;index&quot;:null}" fill="#f3e2e2"/><path d="M242.15484,188.33431c0.28038,0.1063 -0.30128,0.83551 -0.30128,0.83551c0,0 -0.07997,0.26434 0.0307,0.57211c0.18207,0.50633 0.53267,1.23246 0.78505,2.02298c0.28734,0.9001 0.66954,1.93106 0.93449,2.41721c0.32691,0.59976 1.47029,1.59825 1.84606,1.52712c0.03679,-0.00695 0.01102,-0.32536 -0.02606,-0.53115c-0.05398,-0.55412 -0.11006,-0.3806 -0.11883,-1.13031c0.0052,-0.60391 0.76478,-0.24417 0.76478,-0.24417c0,0 0.66619,3.32129 -0.90862,4.73763c-1.18713,1.06766 -2.34666,0.58148 -2.35606,0.57928c-0.01681,-0.00394 -0.63376,-0.92847 -0.79668,-1.65028c-0.04528,-0.20067 0.46258,-1.31419 0.29567,-2.21184c-0.1553,-0.83524 -0.35616,-2.25846 -0.6327,-3.1569c-0.49534,-1.60928 -1.19623,-2.78612 -1.02116,-2.96407c0.58439,-0.59402 1.33026,-0.86921 1.50461,-0.80312z" data-paper-data="{&quot;index&quot;:null}" fill="#fc6293"/><path d="M242.33937,195.47144c0,0 -0.46253,-2.21471 -0.60833,-2.85873c-0.20183,-0.89148 -0.56882,-1.68855 -1.1386,-3.13166c-0.09914,-0.25105 0.23085,-0.55867 0.23085,-0.55867l0.13983,0.03271c0,0 -0.27257,0.31033 -0.21799,0.51406c0.10848,0.40495 0.69497,1.83271 1.11087,3.01474c0.31526,0.89597 0.51948,2.30774 0.51948,2.30774z" data-paper-data="{&quot;index&quot;:null}" fill="#766565"/><path d="M243.80485,192.36701l-0.52575,-1.16524l0.61738,-0.26089l0.46534,1.15109z" data-paper-data="{&quot;index&quot;:null}" fill="#fffff6"/><path d="M243.18859,190.55505l-0.3505,-1.00971l0.5471,-0.249l0.38552,0.93633z" data-paper-data="{&quot;index&quot;:null}" fill="#fffff6"/><path d="M240.77514,189.98918c0,0 0.69899,0.01861 1.1315,-0.07519c0.43251,-0.09378 0.91858,-0.36932 0.91858,-0.36932l0.36447,1.00299c0,0 -0.71528,0.28824 -1.22127,0.33907c-0.506,0.0508 -0.78312,-0.02621 -0.78312,-0.02621z" data-paper-data="{&quot;index&quot;:null}" fill="#754c86"/><path d="M241.81612,192.93812c0,0 -0.09986,-0.40415 -0.17118,-0.66088c-0.07131,-0.2567 -0.21699,-0.73638 -0.21699,-0.73638c0,0 0.69781,-0.01737 1.09674,-0.0929c0.39892,-0.07554 0.80423,-0.25858 0.80423,-0.25858l0.51017,1.18104c0,0 -0.56691,0.25858 -0.97625,0.37814c-0.40933,0.11956 -1.04671,0.18955 -1.04671,0.18955z" data-paper-data="{&quot;index&quot;:null}" fill="#754c86"/><path d="M243.54575,188.0742l-1.69668,0.30446c0,0 0.07464,-0.07904 0.43218,-0.17369c0.35754,-0.09464 0.68241,-0.21706 0.81724,-0.24577c0.22278,-0.04741 0.60067,0.00887 0.60067,0.00887z" data-paper-data="{&quot;index&quot;:null}" fill="#ae8484"/><path d="M241.0539,189.10717c-0.07564,-0.19734 0.26375,-0.46846 1.10376,-0.79048c0.84,-0.32201 1.3742,-0.23097 1.3742,-0.23097c0,0 -0.61709,0.38877 -0.94432,0.57332c-0.66373,0.38697 -0.54223,0.41124 -0.92484,0.53738c-0.3826,0.12612 -0.54715,0.06626 -0.60341,-0.08057z" data-paper-data="{&quot;index&quot;:null}" fill="#532c31"/></g></g><g data-paper-data="{&quot;index&quot;:null}" stroke="none" stroke-width="0" stroke-linecap="butt" stroke-linejoin="miter"><path d="M241.34373,183.76925l1.15045,3.59737l0.38134,1.12626l-1.25416,0.77726l-0.43544,-1.43566l-1.17347,-3.97081z" data-paper-data="{&quot;index&quot;:null}" fill="#8e5173"/><path d="M242.10359,186.15954l0.39065,1.20706l0.38134,1.12626l-1.25416,0.77726l-0.43544,-1.43566l-0.3473,-1.23842z" data-paper-data="{&quot;index&quot;:null}" fill="#c5c0b5"/><path d="M242.10359,186.15954l0.06865,0.226l-1.26471,0.46831l-0.06885,-0.2578z" data-paper-data="{&quot;index&quot;:null}" fill="#af2753"/><path d="M242.25096,186.62909l0.06865,0.22601l-1.26471,0.4683l-0.06885,-0.2578z" data-paper-data="{&quot;index&quot;:null}" fill="#af2753"/></g><g data-paper-data="{&quot;index&quot;:null}" stroke="none" stroke-width="0" stroke-linecap="butt" stroke-linejoin="miter"><path d="M233.10174,182.48222c-0.82867,-0.24573 -1.46216,-0.5739 -1.15952,-1.59456c0.30268,-1.02067 1.01266,-0.95043 1.84132,-0.70472c0.82867,0.24573 1.47845,0.57872 1.15953,1.59456c-0.31886,1.0156 -1.01266,0.95043 -1.84133,0.70472z" fill="#fed000"/><path d="M233.16443,182.27072c-1.07968,-0.32016 -1.92371,-0.68495 -1.67673,-1.51785c0.24698,-0.83289 1.15345,-0.67861 2.23314,-0.35845c1.07968,0.32016 1.94491,0.69125 1.67673,1.51785c-0.26813,0.82641 -1.15345,0.67861 -2.23314,0.35845z" fill="#e68b9c"/></g><path d="M236.13248,183.34952c0,0 1.6127,1.04498 3.88608,0.81908c2.63706,-0.30562 4.13036,-1.71994 4.13036,-1.71994l0.29953,0.33906c0,0 -1.86227,1.27643 -4.40731,1.71358c-2.15348,0.22 -4.0551,-0.74544 -4.0551,-0.74544z" data-paper-data="{&quot;index&quot;:null}" fill="#ee3377" stroke="none" stroke-width="0" stroke-linecap="butt" stroke-linejoin="miter"/><path d="M241.16266,179.42132l1.4711,1.50014l1.55886,1.60263c0,0 -1.15416,1.04426 -3.67512,1.64094c-1.93778,0.42955 -4.40484,-0.74205 -4.40484,-0.74205l1.54094,-3.48064z" data-paper-data="{&quot;index&quot;:null}" fill="#fcf4f4" stroke="none" stroke-width="0" stroke-linecap="butt" stroke-linejoin="miter"/><path d="M236.34338,182.93407c0,0 1.11216,1.04543 3.48985,0.80766c2.63706,-0.30562 3.9663,-1.61818 3.9663,-1.61818l0.10377,0.10933c0,0 -1.05126,1.14828 -4.04052,1.66225c-2.15347,0.22 -3.58716,-0.80818 -3.58716,-0.80818z" data-paper-data="{&quot;index&quot;:null}" fill="#ee3377" stroke="none" stroke-width="0" stroke-linecap="butt" stroke-linejoin="miter"/><g data-paper-data="{&quot;index&quot;:null}" stroke="none" stroke-width="0" stroke-linecap="butt" stroke-linejoin="miter"><path d="M241.79534,185.60442l-1.74125,-6.15277l1.90877,0.57531l4.34148,2.80512c0,0 -1.23615,1.38727 -2.21682,1.83016c-0.98066,0.4429 -2.29219,0.94219 -2.29219,0.94219z" fill="#fab5b7"/><path d="M246.28028,182.82699l0.51495,0.28677c0,0 -1.27646,1.22648 -2.23368,1.81345c-0.95721,0.58695 -2.68705,1.20394 -2.68705,1.20394l-0.08485,-0.56552c0,0 1.62307,-0.52692 2.54569,-1.08958c0.92264,-0.56268 1.94493,-1.64902 1.94493,-1.64902z" fill="#fed000"/></g><path d="M238.11102,180.26618l0.31653,-0.5379l1.57261,-0.10453l0.46152,0.52527z" data-paper-data="{&quot;index&quot;:null}" fill="#aa4455" stroke="none" stroke-width="0" stroke-linecap="butt" stroke-linejoin="miter"/><g data-paper-data="{&quot;index&quot;:null}" stroke-width="0" stroke-linecap="butt" stroke-linejoin="miter"><path d="M217.47741,181.87669c0,0 -0.18066,-4.6692 5.03113,-4.92834c2.00124,-0.09951 3.34909,0.45403 4.8112,1.62923c1.54276,1.24006 0.46128,3.95859 0.46128,3.95859l-9.03592,0.93234z" fill="#ffff00" stroke="none"/><path d="M218.39748,183.06457l-0.33774,-0.40814c0,0 0.07381,-0.96001 0.23275,-1.31816c0.34085,-0.76809 0.49257,-1.10348 0.61834,-0.69706c0.06255,0.20208 -0.27086,0.66006 -0.3797,1.10748c-0.16263,0.66861 -0.13367,1.31587 -0.13367,1.31587z" fill="#a58c48" stroke="#000000"/><path d="M220.74572,178.87245c-0.01435,-0.18766 0.59139,-0.74887 1.9283,-0.81093c0.89579,-0.04157 2.4199,0.12958 2.39815,0.60064c-0.01985,0.43016 -1.50727,-0.18629 -2.40141,-0.1179c-0.89413,0.06838 -1.91069,0.51581 -1.92503,0.32816z" fill="#a58c48" stroke="#000000"/><path d="M227.76899,181.85354c0,0 -0.06319,-0.41808 -0.26678,-0.85414c-0.18845,-0.40361 -0.59354,-0.65441 -0.42432,-0.82197c0.05957,-0.05896 0.41626,-0.0689 0.59077,0.29015c0.19438,0.39991 0.27271,1.01093 0.27271,1.01093l-0.17236,0.37505z" fill="#a58c48" stroke="#000000"/><path d="M223.27252,184.04702c2.54072,-0.26262 4.69698,1.50265 4.69698,1.50265l0.12655,0.58116c0,0 -2.39441,-2.27743 -5.76667,-1.32813c-2.11902,0.59651 -3.36051,2.38808 -3.36051,2.38808c0,0 -0.02792,0.29006 -0.07274,-0.30462c-0.0448,-0.59466 0.02351,-0.38497 0.02351,-0.38497c0,0 0.78781,-2.08566 4.35287,-2.45414z" fill="#edeee6" stroke="none"/><path d="M227.89449,182.11434l-0.09031,0.38702c0,0 -2.50533,-2.74938 -5.80696,-1.73075c-2.07466,0.64007 -3.25389,2.69138 -3.25389,2.69138l-0.20727,-0.27029c0,0 0.80712,-2.89093 4.35473,-3.40057c2.79932,-0.40213 5.00372,2.3232 5.00372,2.3232z" fill="#edeee6" stroke="none"/><path d="M222.97794,180.20095c2.5517,-0.26346 4.83784,2.20559 4.83784,2.20559l0.24976,3.32457c0,0 -2.40393,-2.27668 -5.79094,-1.32628c-2.12832,0.59722 -3.37573,2.38923 -3.37573,2.38923c0,0 -0.18954,-0.91533 -0.23433,-1.51002c-0.04479,-0.59466 0.00476,-1.53809 0.00476,-1.53809c0,0 0.72819,-3.17532 4.30866,-3.54501z" fill="#754c86" stroke="none"/><path d="M225.20739,187.35699c-1.33569,0.10216 -7.17791,2.61972 -7.17791,2.61972c0,0 0.16392,-5.24315 5.99532,-5.46448c3.05794,-0.11608 4.50026,1.43588 5.06895,2.70219c0.36352,0.8094 0.18728,1.57901 0.18728,1.57901c0,0 -2.73798,-1.53857 -4.07367,-1.43643z" fill="#ffff00" stroke="none"/><path d="M223.47645,185.39853c-0.8953,0.06849 -1.99805,0.42468 -2.0065,0.3143c-0.00845,-0.11038 0.75775,-0.66108 2.00978,-0.79704c0.6934,-0.07531 2.04695,0.05009 2.26139,0.38996c0.14493,0.22971 -1.56925,0.03959 -2.26468,0.09277z" fill="#a58c48" stroke="#000000"/><path d="M218.54176,187.90698l0.22009,-0.53955c0,0 1.09127,-1.1865 1.00735,-0.7606c-0.05384,0.27332 -1.22745,1.30014 -1.22745,1.30014z" fill="#a58c48" stroke="#000000"/><path d="M227.27212,185.87219c-0.0287,-0.37533 1.31524,0.52971 1.31524,0.52971l0.40048,0.73224c0,0 -1.68701,-0.88663 -1.71573,-1.26196z" fill="#a58c48" stroke="#000000"/><path d="M223.62233,193.02065c-2.73479,0.24338 -5.43571,-1.34396 -5.56741,-3.06598c-0.1317,-1.72205 2.48837,-3.48911 5.22278,-3.73676c2.85446,-0.25852 5.89089,0.79278 6.02258,2.51482c0.18368,2.40161 -2.46176,4.02714 -5.676,4.31317z" fill="#ffff00" stroke="#000000"/><path d="M219.4168,191.54561c-0.07936,-1.03764 1.83394,-2.03006 4.2735,-2.21663c2.43955,-0.1866 4.48155,0.50335 4.5609,1.54098c0.07936,1.03764 -1.83395,2.03007 -4.27352,2.21665c-2.43955,0.1866 -4.48154,-0.50336 -4.56089,-1.54099z" fill="#ffff00" stroke="#000000"/><path d="M230.15941,185.62928c0,0 0.17335,-0.58241 0.17689,-0.98986c0.00352,-0.40745 -0.1594,-1.03181 -0.1594,-1.03181l4.2961,0.24616l7.01795,0.31415c0,0 0.32829,0.51788 0.33482,0.75061c0.00653,0.23273 -0.42971,0.56923 -0.42971,0.56923l-7.06559,0.09906l-4.17107,0.04241z" fill="#fbdd00" stroke="none"/><path d="M227.83599,185.67275l-0.48894,-2.70678c0,0 2.53216,0.12085 2.73484,0.40054c0.34329,0.47369 0.24085,2.19713 -0.07203,2.47066c-0.08243,0.07205 -1.91309,0.08403 -1.91309,0.08403z" fill="#c8c8c6" stroke="none"/><path d="M217.50207,181.67378c0,0 -0.31121,-4.12107 4.55308,-5.13305c3.28203,-0.68281 5.49237,2.36894 5.49237,2.36894c0,0 -1.0991,-1.07262 -2.43821,-1.58681c-1.0838,-0.41616 -2.43693,-0.40947 -3.55424,-0.15172c-0.75159,0.17338 -1.5453,0.37679 -2.04453,0.71081c-2.05808,1.37696 -2.00844,3.79182 -2.00844,3.79182z" fill="#ffff00" stroke="#000000"/><path d="M238.46958,185.53364c0,0 -0.08676,-0.37872 -0.08325,-0.78615c0.00352,-0.40745 0.09349,-0.72947 0.09349,-0.72947l3.01121,0.14992c0,0 0.32828,0.51789 0.33481,0.75061c0.00653,0.23273 -0.42971,0.56923 -0.42971,0.56923z" fill="#a56402" stroke="none"/></g><path d="M238.30214,170.57988c0,0 0.51815,-0.75371 1.28796,-0.95318c0.68697,-0.17802 1.02452,-0.02542 1.54723,0.41964c0.79179,0.67417 0.59103,2.05907 0.59103,2.05907c0,0 0.06943,-2.05473 -1.52458,-2.33201c-0.98619,-0.17154 -1.90162,0.8065 -1.90162,0.8065z" data-paper-data="{&quot;index&quot;:null}" fill="#000000" stroke="none" stroke-width="0" stroke-linecap="butt" stroke-linejoin="miter"/><path d="M238.69896,165.55673c3.30598,-0.46259 6.30941,1.47376 6.70834,4.32496c0.39895,2.85119 -1.95767,5.53751 -5.26363,6.00007c-3.30598,0.46259 -6.30941,-1.47374 -6.70835,-4.32494c-0.39895,-2.85119 1.95766,-5.53752 5.26364,-6.00008z" data-paper-data="{&quot;index&quot;:null}" fill="#f79eb4" stroke="none" stroke-width="0" stroke-linecap="butt" stroke-linejoin="miter"/><path d="M234.36659,172.70225c-0.00029,-0.00068 0.35721,1.12871 0.84976,1.71354c0.49256,0.58483 2.26867,2.07739 2.26867,2.07739l0.40614,0.8632c0,0 -1.47351,0.1479 -2.97319,-1.83273c-0.93397,-1.22636 -1.05138,-2.28076 -1.04294,-2.26567" data-paper-data="{&quot;index&quot;:null}" fill="#f79eb4" stroke="#f89db5" stroke-width="0" stroke-linecap="butt" stroke-linejoin="round"/><g data-paper-data="{&quot;index&quot;:null}" fill="#ffd5c5" stroke="none" stroke-width="1" stroke-linecap="round" stroke-linejoin="round"><path d="M235.61211,174.94656c0.00466,-0.05949 0.11441,0.0437 0.1627,0.07873c0.29849,0.2163 0.55013,-0.11759 0.72418,-0.29792c0.13376,-0.13852 0.37085,-0.23532 0.55728,-0.26364c0.89838,-0.12689 2.70852,0.21582 3.02111,0.18558c0.29094,-0.02814 1.06622,-0.61038 1.35881,-0.75791c0.30018,-0.15137 0.58214,-0.08883 0.63518,-0.05848c0.11121,0.06368 0.89188,0.45846 0.08487,1.61403c-0.11214,0.16055 -0.87256,0.80016 -1.33317,0.92105c-0.38625,0.10134 -1.72614,0.48881 -2.81048,0.28698c-0.86419,-0.16087 -1.42079,-0.47898 -1.49187,-0.51987c-0.43439,-0.25006 -0.95104,-0.64271 -0.90858,-1.1885z"/><path d=""/></g><g data-paper-data="{&quot;index&quot;:null}" fill="#000000" stroke="none" stroke-width="1" stroke-linecap="round" stroke-linejoin="round"><path d="M236.87693,175.15896c-0.10785,0.02252 -0.51687,-0.16943 -0.37658,-0.30592c0.0811,-0.0789 0.59691,-0.21016 0.75968,-0.12383c0.21414,0.1136 -0.15124,0.36141 -0.38312,0.42975z"/><path d=""/></g><path d="M243.92188,170.53814c0.02452,0.01045 0.18327,2.29988 0.10941,2.83814c-0.11086,0.80764 -0.36163,1.59682 -0.79981,2.28751c-0.1863,0.29363 -0.38741,0.54272 -0.61903,0.79813c-0.07499,0.08269 -0.39678,0.36442 -0.39678,0.36442c0,0 0.23677,-1.07147 0.0476,-2.71919c-0.10048,-0.87499 -0.48959,-2.78823 -0.46198,-2.73857" data-paper-data="{&quot;index&quot;:null}" fill="#f79eb4" stroke="#f89db5" stroke-width="0" stroke-linecap="butt" stroke-linejoin="round"/><path d="M245.19525,169.6838c0.22778,0.33109 0.38472,2.19367 0.20741,3.59054c-0.13665,1.07649 -0.37401,1.3948 -0.78821,2.01539c-0.46909,0.7028 -0.8676,0.82265 -0.8676,0.82265c0,0 0.30249,-1.20939 0.33971,-2.00038c0.03721,-0.79099 -0.05882,-3.60567 -0.07535,-3.61815" data-paper-data="{&quot;index&quot;:null}" fill="#f79eb4" stroke="#f89db5" stroke-width="0" stroke-linecap="butt" stroke-linejoin="round"/><g data-paper-data="{&quot;index&quot;:null}" fill="#ff4488" stroke="none" stroke-width="1" stroke-linecap="round" stroke-linejoin="round"><path d="M234.84702,168.07345c0.07481,-0.12962 2.01518,-2.20819 4.79765,-2.13528c3.44461,0.12886 4.34624,4.14642 4.34374,4.14611c-0.03481,-0.00416 -0.79017,-1.48303 -1.75488,-2.04296c-1.25089,-0.72609 -1.97558,-1.14801 -3.24281,-1.18968c-1.60782,-0.05289 -3.6008,1.63041 -3.67881,1.69781"/><path d=""/></g><g data-paper-data="{&quot;index&quot;:null}" stroke="none" stroke-width="1" stroke-linecap="round" stroke-linejoin="round"><g fill="#f79eb4"><path d="M238.84317,167.29558c0.02287,-0.15683 0.87447,-1.05595 1.59819,-1.53096c0.72372,-0.47499 1.45286,-0.79983 1.64294,-0.59626c0.1454,0.15572 0.3229,1.00685 0.41402,1.677c0.09111,0.67015 0.0129,1.30627 0.04032,1.66475"/></g><g fill="#ffd5c5"><path d="M239.54153,167.36425c0.07651,-0.17281 0.444,-0.6071 0.83464,-0.87254c0.39063,-0.26544 1.19921,-0.66607 1.29417,-0.57403c0.02341,0.02272 0.19641,0.75968 0.25107,1.2572c0.05468,0.49751 -0.00557,0.90306 -0.00424,0.98855"/></g></g><g data-paper-data="{&quot;index&quot;:null}" fill="#f79eb4" stroke="none" stroke-width="1" stroke-linecap="round" stroke-linejoin="round"><path d="M233.27092,170.1514c-0.01021,-0.01153 -0.58148,-0.76832 -0.82349,-1.52594c-0.15506,-0.48536 -0.12861,-1.13974 -0.08937,-1.16856c0.19163,-0.14065 1.01901,-0.18916 1.68314,-0.23641c0.66413,-0.04725 0.98378,-0.02161 1.28818,0.02507"/><path d=""/></g><path d="M233.38616,173.01244c-0.41495,-0.15394 -0.98817,-0.67013 -0.98817,-0.67013c0,0 0.63566,0.36714 1.08856,0.4708c0.45289,0.10366 0.71936,-0.00581 0.71936,-0.00581l0.0995,0.33354c0,0 -0.50431,0.02552 -0.91926,-0.12842z" data-paper-data="{&quot;index&quot;:null}" fill="#000000" stroke="none" stroke-width="0" stroke-linecap="butt" stroke-linejoin="miter"/><path d="M240.13412,170.21641c-0.60165,0.08418 -1.76184,0.39798 -1.76184,0.39798c0,0 0.82691,-2.27203 2.43736,-1.70419c1.20496,0.42487 0.89011,2.75322 0.89011,2.75322c0,0 -0.96397,-1.5312 -1.56562,-1.447z" data-paper-data="{&quot;index&quot;:null}" fill="#e569c4" stroke="none" stroke-width="0" stroke-linecap="butt" stroke-linejoin="miter"/><path d="M233.5933,173.57792c-0.43123,-0.09957 -1.2701,-0.4831 -1.2701,-0.4831c0,0 0.88172,0.22769 1.34415,0.27256c0.46246,0.04487 0.71271,-0.09779 0.71271,-0.09779l0.14137,0.3181c0,0 -0.49691,0.08982 -0.92814,-0.00974z" data-paper-data="{&quot;index&quot;:null}" fill="#000000" stroke="none" stroke-width="0" stroke-linecap="butt" stroke-linejoin="miter"/><path d="M237.33771,172.86761c0.51086,-1.03236 0.56001,-2.76937 2.55424,-3.28522c0.4332,-0.11207 1.80941,0.28544 1.82494,2.44642c0.00517,0.71913 -0.16729,1.82638 -1.34472,2.58677c-0.61982,0.2823 -2.24613,-0.23354 -2.92062,-0.17425c-1.18422,0.10414 -0.93929,0.60843 -1.52233,0.66847c-0.14593,0.01503 -1.08362,-0.72343 -1.57897,-1.88828c-0.23356,-0.54927 -0.30419,-1.38937 -0.23669,-1.39822c0.44537,-0.05841 0.95369,0.81085 1.42823,1.27244c0.33192,0.32288 0.75056,0.56876 1.08021,0.49222c0.19215,-0.04462 0.39004,-0.06228 0.7157,-0.7204z" data-paper-data="{&quot;index&quot;:null}" fill="#ffffff" stroke="none" stroke-width="0" stroke-linecap="butt" stroke-linejoin="miter"/><g data-paper-data="{&quot;index&quot;:null}" stroke="none" stroke-linecap="butt" stroke-linejoin="miter"><path d="M239.28501,173.02707c0.14559,0.70576 0.07853,1.31607 -0.1498,1.36318c-0.22831,0.04708 -0.53147,-0.48685 -0.67708,-1.1926c-0.14559,-0.70576 -0.07852,-1.31608 0.14981,-1.3632c0.22831,-0.04708 0.53147,0.48685 0.67707,1.19262z" fill="#169c5b" stroke-width="NaN"/><path d="M239.07955,173.23408c0.0608,0.29478 0.0288,0.55053 -0.07154,0.57123c-0.10034,0.02071 -0.23097,-0.2015 -0.29175,-0.49629c-0.0608,-0.29478 -0.0288,-0.55053 0.07154,-0.57123c0.10034,-0.02071 0.23097,0.2015 0.29175,0.49629z" fill="#000000" stroke-width="0"/><path d="M238.86614,172.57933c0.06154,0.29826 0.01325,0.56025 -0.10783,0.58524c-0.12108,0.02499 -0.26912,-0.19653 -0.33064,-0.49477c-0.06154,-0.29826 -0.01325,-0.56026 0.10783,-0.58525c0.12108,-0.02499 0.26912,0.19654 0.33064,0.49477z" fill="#ffffff" stroke-width="0"/></g><g data-paper-data="{&quot;index&quot;:null}" stroke="none" stroke-linecap="butt" stroke-linejoin="miter"><path d="M235.96875,173.98356c0.10268,0.49781 0.05541,0.92828 -0.10565,0.96151c-0.16106,0.03322 -0.37486,-0.3434 -0.47755,-0.84119c-0.10268,-0.49781 -0.0554,-0.92828 0.10566,-0.96151c0.16106,-0.03322 0.37486,0.34339 0.47754,0.84118z" fill="#169c5b" stroke-width="NaN"/><path d="M235.82384,174.12957c0.0429,0.20792 0.02031,0.3883 -0.05047,0.40291c-0.07076,0.01462 -0.16289,-0.14211 -0.2058,-0.35004c-0.0429,-0.20792 -0.02031,-0.3883 0.05047,-0.4029c0.07076,-0.01462 0.16289,0.1421 0.20578,0.35003z" fill="#000000" stroke-width="0"/><path d="M235.67333,173.66773c0.04339,0.21035 0.00935,0.39515 -0.07606,0.41278c-0.08542,0.01762 -0.18982,-0.13862 -0.23323,-0.34897c-0.04339,-0.21035 -0.00936,-0.39517 0.07607,-0.4128c0.08542,-0.01762 0.18981,0.13864 0.23323,0.34899z" fill="#ffffff" stroke-width="0"/></g><path d="M241.45648,175.17995c0,0 -0.30697,0.19263 -0.50029,0.24141c-0.19333,0.04877 -0.76088,0.13478 -0.76088,0.13478" data-paper-data="{&quot;index&quot;:null}" fill="none" stroke="#000000" stroke-width="0.125" stroke-linecap="round" stroke-linejoin="miter"/><path d="M241.30024,170.35356l-0.22326,-0.28348c0,0 0.48722,-0.05307 0.88616,-0.29119c0.39894,-0.23813 0.9058,-0.77258 0.9058,-0.77258c0,0 -0.38636,0.66767 -0.7337,0.94194c-0.34736,0.27426 -0.83501,0.40534 -0.83501,0.40534z" data-paper-data="{&quot;index&quot;:null}" fill="#000000" stroke="none" stroke-width="0" stroke-linecap="butt" stroke-linejoin="miter"/><path d="M242.74134,171.03657c-0.43064,0.10209 -1.16248,0.04877 -1.16248,0.04877l-0.09094,-0.33778c0,0 0.67143,0.23337 1.1336,0.1858c0.46216,-0.04757 1.33678,-0.46277 1.33678,-0.46277c0,0 -0.78633,0.4639 -1.21697,0.56598z" data-paper-data="{&quot;index&quot;:null}" fill="#000000" stroke="none" stroke-width="0" stroke-linecap="butt" stroke-linejoin="miter"/><path d="M237.76548,177.08658c0.33779,-0.19812 0.52497,-0.08534 0.64963,0.0898c0.18557,0.26066 0.14208,0.50143 -0.10569,0.69353c-0.98883,0.76661 -1.83939,1.45499 -2.48719,2.02465c-0.10998,0.09671 -0.52917,0.48417 -0.52917,0.48417l0.33455,-1.76705c0,0 1.39685,-1.09048 2.1379,-1.52509z" data-paper-data="{&quot;index&quot;:null}" fill="#edbb82" stroke="none" stroke-width="0" stroke-linecap="butt" stroke-linejoin="miter"/><path d="M237.92891,178.17437c0.05317,-0.62121 0.48512,-1.48508 0.48512,-1.48508c0,0 0.69216,-0.02482 1.14992,-0.09162c0.45775,-0.06682 1.15964,-0.24552 1.15964,-0.24552l0.3589,2.2329l0.30078,0.96479l-3.36391,0.28606c0,0 -0.14358,-1.04032 -0.09044,-1.66153z" data-paper-data="{&quot;index&quot;:null}" fill="#6d3b75" stroke="none" stroke-width="0" stroke-linecap="butt" stroke-linejoin="miter"/><path d="M237.55347,179.93055l0.22621,-1.1795c0,0 -0.14413,-1.16209 -0.09083,-1.73922c0.06134,-0.10249 0.20064,-0.05842 0.20064,-0.05842c0,0 -0.17957,0.34532 -0.16011,0.41231c0.06162,0.21214 -0.01569,0.30711 0.14741,0.40236c0.74443,0.43464 0.86204,0.71681 0.86204,0.71681c0,0 0.00133,0.18877 -0.00343,0.28339c-0.02672,0.52854 -0.51338,1.59672 -0.51338,1.59672z" data-paper-data="{&quot;index&quot;:null}" fill="#efe6e6" stroke="none" stroke-width="0" stroke-linecap="butt" stroke-linejoin="miter"/><path d="M240.38444,180.28927c0,0 -0.67138,-0.87183 -0.84217,-1.37272c-0.03057,-0.08966 -0.0811,-0.27156 -0.0811,-0.27156c0,0 0.03563,-0.30362 0.63219,-0.9259c0.13071,-0.13634 0.19627,-0.26451 0.19729,-0.4854c0.00032,-0.06978 -0.22776,-0.32664 -0.23515,-0.39025c-0.03622,-0.311 0.13744,-0.369 0.13744,-0.369c0,0 0.50742,-0.18677 0.59453,-0.10505c0.33467,0.31393 0.35704,2.20701 0.35704,2.20701l0.84092,1.46197z" data-paper-data="{&quot;index&quot;:null}" fill="#efe6e6" stroke="none" stroke-width="0" stroke-linecap="butt" stroke-linejoin="miter"/><path d="M240.0071,176.77508c0,0 0.3743,0.51207 0.15714,0.90732c-0.12684,0.21775 -0.33308,0.42495 -0.52001,0.64902c-0.12924,0.15492 -0.24292,0.32194 -0.24292,0.32194c0,0 -0.02368,-0.85288 -0.00035,-1.16041c0.02838,-0.37455 0.09796,-0.79702 0.20292,-0.89296c0.06951,-0.03486 0.74416,-0.16929 0.74416,-0.16929l0.29101,0.25885l-0.63191,0.08555z" data-paper-data="{&quot;index&quot;:null}" fill="#fd4275" stroke="none" stroke-width="0" stroke-linecap="butt" stroke-linejoin="miter"/><path d="M240.04714,179.95041c0,0 -0.57727,-0.7453 -0.59921,-1.32039c-0.01159,-0.30366 0.87362,-1.31241 0.87362,-1.31241l0.17487,0.08836c0,0 -0.91625,0.90176 -0.90817,1.23396c0.01194,0.49006 0.60147,1.27203 0.60147,1.27203z" data-paper-data="{&quot;index&quot;:null}" fill="#fed000" stroke="none" stroke-width="0" stroke-linecap="butt" stroke-linejoin="miter"/><path d="M240.3852,177.32285c0,0 -0.42284,0.46704 -0.58903,0.68534c-0.07046,0.09256 -0.2007,0.26464 -0.2625,0.43255c-0.06328,0.17193 -0.05734,0.33863 -0.05734,0.33863c0,0 -0.08007,-0.21186 -0.09127,-0.27416c-0.0112,-0.06228 0.04449,-0.21083 0.04449,-0.21083l0.76085,-0.9759l-0.27662,-0.59093l0.66003,-0.09729l-0.23239,-0.18748l0.18039,-0.06145l0.3145,0.35315l-0.74759,0.08689l0.29647,0.50148z" data-paper-data="{&quot;index&quot;:null}" fill="#fff9f9" stroke="none" stroke-width="0" stroke-linecap="butt" stroke-linejoin="miter"/><path d="M240.13024,176.87782l-0.02928,-0.05084l0.72254,-0.10109l0.05401,0.06952z" data-paper-data="{&quot;index&quot;:null}" fill="#fed000" stroke="none" stroke-width="0" stroke-linecap="butt" stroke-linejoin="miter"/><path d="M238.41991,176.69586c0,0 0.39637,-0.02022 0.59162,-0.03532c0.19232,-0.01486 0.57124,-0.05452 0.57124,-0.05452c0,0 -0.02448,0.07008 -0.04715,0.12039c-0.02268,0.05031 -0.04655,0.13812 -0.04655,0.13812l-0.385,0.36539z" data-paper-data="{&quot;index&quot;:null}" fill="#fff9f9" stroke="none" stroke-width="0" stroke-linecap="butt" stroke-linejoin="miter"/><path d="M238.71309,176.67978l0.76433,-0.06623l-0.37739,0.35816z" data-paper-data="{&quot;index&quot;:null}" fill="#fd4275" stroke="none" stroke-width="0" stroke-linecap="butt" stroke-linejoin="miter"/><path d="M237.28641,176.89759l0.5943,-0.2614c0,0 0.42608,0.03836 0.50054,0.0607c0.11991,0.07639 0.14861,0.47714 0.24115,0.84121c0.07597,0.29888 0.19969,1.1431 0.19969,1.1431c0,0 -0.14078,-0.14493 -0.29479,-0.27525c-0.22277,-0.18848 -0.48982,-0.55855 -0.6523,-0.75117c-0.28205,-0.35188 0.02653,-0.71929 0.02653,-0.71929z" data-paper-data="{&quot;index&quot;:null}" fill="#fd4275" stroke="none" stroke-width="0" stroke-linecap="butt" stroke-linejoin="miter"/><path d="M238.26246,180.05691c0,0 0.44587,-0.87191 0.37316,-1.35669c-0.04929,-0.32861 -0.9755,-1.11216 -0.9755,-1.11216l0.0252,-0.06393c0,0 1.04585,0.84102 1.0868,1.14213c0.07754,0.57027 -0.36258,1.40394 -0.36258,1.40394z" data-paper-data="{&quot;index&quot;:null}" fill="#fed000" stroke="none" stroke-width="0" stroke-linecap="butt" stroke-linejoin="miter"/><path d="M237.62356,177.54031l0.20557,-0.54509l-0.81694,-0.05199l0.49335,-0.40711l0.43198,0.07948l-0.61917,0.27498l0.66693,-0.01797l-0.17059,0.62978l0.91772,0.83012c0,0 0.08047,0.13673 0.08019,0.20001c-0.00028,0.06329 -0.04263,0.28577 -0.04263,0.28577c0,0 -0.0229,-0.16523 -0.11488,-0.3237c-0.08984,-0.15473 -0.24778,-0.30179 -0.33314,-0.3808c-0.20135,-0.18638 -0.69838,-0.57351 -0.69838,-0.57351z" data-paper-data="{&quot;index&quot;:null}" fill="#fff9f9" stroke="none" stroke-width="0" stroke-linecap="butt" stroke-linejoin="miter"/><path d="M243.48138,169.70806c0,0 0.28972,-0.16893 0.43365,-0.07519c0.1439,0.09375 0.2963,0.50861 0.25703,0.58619c-0.03546,0.07006 -0.38248,0.15542 -0.38248,0.15542z" data-paper-data="{&quot;index&quot;:null}" fill="#f7bf74" stroke="none" stroke-width="0" stroke-linecap="butt" stroke-linejoin="miter"/><path d="M243.0088,173.6588c0.29106,-0.12493 1.07623,-0.47804 1.07606,-0.99343c-0.00022,-0.63568 0.16786,-0.78988 0.32602,-0.79377c0.20924,-0.00513 0.1609,0.25321 0.03781,0.66768c-0.14501,0.48817 -0.67336,1.20581 -1.59792,1.57407c-0.25912,0.10321 -0.67532,0.11115 -0.70503,0.04195c-0.0387,-0.09019 0.35332,-0.27774 0.86307,-0.49652z" data-paper-data="{&quot;index&quot;:null}" fill="#212121" stroke="none" stroke-width="0" stroke-linecap="butt" stroke-linejoin="miter"/><path d="M243.56881,173.67069l-0.09141,-0.213l0.08519,-0.03656l0.09141,0.213z" data-paper-data="{&quot;index&quot;:null}" fill="#b3916f" stroke="none" stroke-width="0" stroke-linecap="butt" stroke-linejoin="miter"/><path d="M244.34215,172.33831c0.01993,-0.10793 0.06783,-0.27292 0.06783,-0.27292c0,0 0.15794,0.1359 0.13304,0.27079c-0.02489,0.13489 -0.21793,0.35417 -0.21793,0.35417c0,0 -0.00286,-0.24411 0.01708,-0.35204z" data-paper-data="{&quot;index&quot;:null}" fill="#cc7889" stroke="none" stroke-width="0" stroke-linecap="butt" stroke-linejoin="miter"/><g data-paper-data="{&quot;index&quot;:null}" stroke="none" stroke-width="0" stroke-linecap="butt" stroke-linejoin="miter"><g data-paper-data="{&quot;index&quot;:null}"><path d="M246.07158,165.1296c0,0 -0.0272,0.45853 -0.50238,1.49575c-0.94742,2.06794 -2.18017,2.06978 -2.18017,2.06978c0,0 -0.42379,-0.78869 0.14787,-1.74419c0.58579,-0.97906 2.53469,-1.82137 2.53469,-1.82137z" data-paper-data="{&quot;index&quot;:null}" fill="#ce204f"/><path d="M244.36963,166.2032c-0.94771,0.63522 -0.99906,2.43179 -0.99906,2.43179c0,0 -1.34877,-1.34126 0.51396,-2.64666c0.93432,-0.65476 2.22088,-0.86333 2.22088,-0.86333c0,0 -0.78808,0.44298 -1.73579,1.07821z" fill="#ff4488"/></g><g data-paper-data="{&quot;index&quot;:null}"><path d="M243.45614,168.80503c0,0 0.89766,-0.56792 1.547,-0.63903c1.28536,-0.14071 2.50053,0.9956 2.50053,0.9956c0,0 -1.29949,0.33257 -2.13662,0.52262c-1.14238,0.25934 -1.91094,-0.87923 -1.91094,-0.87923z" fill="#f5e4ec"/><path d="M245.04983,168.29575c1.07114,-0.11726 2.08378,0.82966 2.08378,0.82966c0,0 -1.0829,0.27717 -1.78051,0.43554c-0.952,0.21609 -1.59245,-0.73268 -1.59245,-0.73268c0,0 0.74804,-0.47329 1.28917,-0.53252z" fill="#e2c1c1"/></g></g><g stroke="none" stroke-linecap="butt" stroke-linejoin="miter"><path d="M237.86794,183.15079l2.54101,0.31988c0,0 0.31884,0.2059 0.50078,0.76263c0.11817,0.36156 -0.02053,0.97449 -0.02053,0.97449c0,0 0.50497,-0.54301 0.89494,-0.08437c0.25038,0.29446 -0.2026,1.35916 -0.45057,1.692c-0.14598,0.19595 -0.51772,0.45016 -0.86516,0.50209c-0.21918,0.03277 -0.49232,-0.10475 -0.49232,-0.10475c0,0 -0.16724,0.35538 -0.56033,0.21081c-0.12044,-0.04428 -0.29757,-0.07089 -0.29757,-0.07089c0,0 -0.19898,0.2164 -0.34231,0.28248c-0.14335,0.06608 -0.40256,0.03892 -0.40256,0.03892l-0.3176,-0.30105c0,0 -0.51993,0.21935 -0.63498,0.20699c-0.45134,-0.0485 -0.59065,-0.53219 -0.6671,-0.79132c-0.13998,-0.47443 -0.29176,-1.56087 -0.22289,-1.68437c0.43237,-0.77507 1.33729,-1.95355 1.33729,-1.95355z" data-paper-data="{&quot;index&quot;:null}" fill="#ffffff" stroke-width="0"/><path d="M240.07724,176.68293c0.14471,-0.36389 0.36166,-0.38996 0.56764,-0.3284c0.30659,0.0916 0.42027,0.30824 0.34288,0.61205c-0.3089,1.21246 -0.55682,2.27821 -0.71774,3.12572c-0.0981,0.51668 -0.40762,2.54695 -0.40762,2.54695c0,0 -0.10865,-0.02308 -0.42795,0.03485c-0.31931,0.0579 -0.77512,-0.23831 -0.77512,-0.23831c0,0 0.25415,-1.13356 0.49736,-2.41429c0.17009,-0.8958 0.48355,-2.23969 0.92058,-3.33859z" data-paper-data="{&quot;index&quot;:null}" fill="#fff9fb" stroke-width="0"/><path d="M239.64159,186.43375l-0.33357,-0.38901l0.38901,-0.33357l0.33357,0.38901z" data-paper-data="{&quot;index&quot;:null}" fill="#baba3e" stroke-width="NaN"/><path d="M238.65902,186.45181l-0.33357,-0.38901l0.38901,-0.33357l0.33357,0.38901z" data-paper-data="{&quot;index&quot;:null}" fill="#baba3e" stroke-width="NaN"/><path d="M237.58356,186.46271l-0.33357,-0.38901l0.38901,-0.33357l0.33357,0.38901z" data-paper-data="{&quot;index&quot;:null}" fill="#baba3e" stroke-width="NaN"/><path d="M236.2124,186.24712l0.42894,-0.43037l0.16649,0.34327l-0.06644,0.36526z" data-paper-data="{&quot;index&quot;:null}" fill="#baba3e" stroke-width="0"/><g stroke-width="0"><path d="M239.03506,184.14308c-0.86178,-0.06614 -1.55012,-0.25389 -1.46867,-1.31534c0.08146,-1.06148 0.79037,-1.142 1.65217,-1.07587c0.86178,0.06614 1.56705,0.25519 1.46867,1.31534c-0.09835,1.05992 -0.79037,1.142 -1.65217,1.07587z" data-paper-data="{&quot;index&quot;:null}" fill="#fed000"/><path d="M239.05191,183.92311c-1.12285,-0.08617 -2.02468,-0.26547 -1.95821,-1.13168c0.06646,-0.8662 0.98512,-0.90581 2.10797,-0.81964c1.12285,0.08617 2.04675,0.26717 1.95821,1.13168c-0.08852,0.86428 -0.98512,0.90581 -2.10797,0.81964z" data-paper-data="{&quot;index&quot;:null}" fill="#e68b9c"/></g></g><path d="M234.92058,170.7993c-0.03298,-0.01985 -1.87534,-0.82866 -2.40721,-0.53572c-0.97409,0.53652 -3.00726,1.18291 -3.0299,1.18857c-0.01579,0.00389 0.91156,-0.23641 1.13628,-0.9536c0.15823,-0.77608 1.37647,-0.89863 1.67991,-1.0216c1.70416,-0.67991 2.68459,0.17568 2.65954,0.1606" fill="#f79eb4" stroke="#f89db5" stroke-width="0" stroke-linecap="butt" stroke-linejoin="round"/><path d="M234.95778,169.68874c-0.11457,-0.06815 -2.28488,-0.96774 -3.34012,-1.01649c-0.76059,-0.03513 -2.44781,-0.42279 -2.44781,-0.42279c0,0 1.89936,-0.48826 3.92359,-0.86623c0.603,-0.05318 1.09822,0.18959 1.4118,0.40112c0.31358,0.21153 1.28451,1.73915 1.3051,1.82014" fill="#f79eb4" stroke="#f89db5" stroke-width="0" stroke-linecap="butt" stroke-linejoin="round"/><path d="M235.11887,171.80265c-0.10218,0.09951 -1.8355,0.02232 -2.01576,0.33697c-0.53057,0.93866 -1.96212,1.20936 -1.92416,1.22901c0.00174,0.00092 0.79846,-0.81141 0.73833,-1.4189c-0.03785,-0.14621 1.11296,-0.74749 1.33759,-0.92376c0.7819,-0.61356 1.77686,-0.18163 1.74075,-0.14651" fill="#f79eb4" stroke="#f89db5" stroke-width="0" stroke-linecap="butt" stroke-linejoin="round"/></g></g></svg>