<svg version="1.1" xmlns="http://www.w3.org/2000/svg" xmlns:xlink="http://www.w3.org/1999/xlink" width="49.16479" height="28.39893" viewBox="0,0,49.16479,28.39893"><defs><linearGradient x1="213.90973" y1="182.45028" x2="232.26329" y2="182.45028" gradientUnits="userSpaceOnUse" id="color-1"><stop offset="0" stop-color="#b5b2b2"/><stop offset="1" stop-color="#e8e6e6" stop-opacity="0.25098"/></linearGradient></defs><g transform="translate(-213.90972,-167.87402)"><g data-paper-data="{&quot;isPaintingLayer&quot;:true}" fill-rule="nonzero" stroke-linejoin="miter" stroke-miterlimit="10" stroke-dasharray="" stroke-dashoffset="0" style="mix-blend-mode: normal"><path d="M223.70621,182.05028c0,3.89361 14.43151,7.45 5.81147,7.45c-8.62004,0 -15.60796,-3.15639 -15.60796,-7.05c0,-3.89361 6.98792,-7.05 15.60796,-7.05c8.62004,0 -5.81147,2.75639 -5.81147,6.65z" fill="url(#color-1)" stroke="none" stroke-width="NaN" stroke-linecap="butt"/><path d="M225.51953,180.80325c0.6427,0.49395 0.47058,1.23932 0.4524,2.01718c-0.0182,0.77785 0.09736,1.29997 -0.54442,1.91791c-0.64178,0.61794 -1.76355,0.72416 -2.16698,0.69278c-1.13496,-0.08829 -2.01183,-1.4591 -1.90671,-2.81024c0.10512,-1.35113 1.60656,-2.11953 1.60656,-2.11953c0,0 1.91643,-0.19206 2.55913,0.30191z" fill="#e8e6e6" stroke="none" stroke-width="0" stroke-linecap="butt"/><path d="M233.55742,183.775l-8.73039,-0.36945c0,0 0.3539,-0.04057 0.72664,-0.87215c0.28942,-0.64569 11.89095,-0.39407 11.89095,-0.39407z" fill="#ff3300" stroke="none" stroke-width="0" stroke-linecap="butt"/><path d="M222.20843,178.09703c1.07537,0.70791 2.14475,3.12364 1.54115,4.04051c-0.6036,0.91688 0.44826,2.15801 -0.26145,3.03012c-0.20057,1.04674 -4.14179,2.67901 -7.9727,-0.0242c-0.77835,-0.54923 0.34822,-1.21625 0.55661,-2.21883c0.07861,-0.37819 -1.19744,-3.39283 -1.07488,-3.81423c0.03537,-0.12163 1.76775,-0.15929 2.15326,-0.3224c0.55253,-0.23378 0.51491,-0.48682 0.63768,-0.6733c0.28823,-0.43783 1.55895,-0.2954 2.36563,-0.17554c0.88263,0.13115 1.49281,-0.21201 2.05467,0.15787z" fill="#e8e6e6" stroke="none" stroke-width="0" stroke-linecap="butt"/><path d="M219.37096,178.16734c0,0 -1.28663,0.93028 -1.45839,1.85589c-0.10894,0.58706 2.27681,2.18182 2.27681,2.18182c0,0 -1.13945,0.16495 -1.49715,0.58852c-0.35771,0.42355 -0.71201,0.8655 -0.71201,0.8655" data-paper-data="{&quot;index&quot;:null}" fill="none" stroke="#999797" stroke-width="0.5" stroke-linecap="round"/><path d="M228.29641,179.31407c0,0 -0.65178,-4.05293 0.31787,-3.70063c0.96965,0.3523 1.35799,3.97503 1.35799,3.97503z" data-paper-data="{&quot;index&quot;:null}" fill="#ffffff" stroke="none" stroke-width="0" stroke-linecap="butt"/><g data-paper-data="{&quot;index&quot;:null}" stroke="none" stroke-width="0" stroke-linecap="butt"><path d="M229.32938,178.62472c0.09427,0.33206 -0.33275,0.53578 -0.67967,0.47798c-0.34692,-0.0578 -0.49832,-1.27674 -0.39403,-1.90266c0.03475,-0.20853 0.29104,0.20789 0.56657,0.62247c0.21032,0.31646 0.449,0.59748 0.50713,0.8022z" fill="#7c5cbb"/><path d="M228.75592,178.77802c-0.20558,-0.03425 -0.34447,-0.22868 -0.31022,-0.43426c0.03425,-0.20558 0.18101,-0.2968 0.38659,-0.26255c0.20558,0.03426 0.29678,0.27635 0.26253,0.48193c-0.03425,0.20558 -0.13332,0.24914 -0.3389,0.21489z" fill="#000000"/><path d="M228.74055,178.26622c-0.20558,-0.03425 -0.34446,-0.22868 -0.31021,-0.43426c0.03425,-0.20558 -0.0622,-0.29436 0.14338,-0.26011c0.20558,0.03426 0.54223,0.61541 0.33665,0.58116z" fill="#ffffff"/></g><path d="M246.21948,188.30361c0,0 0.98202,-4.49537 1.90502,-4.83008c0.92298,-0.33475 3.0871,2.90079 3.63056,4.25466c0.18277,0.30852 -0.73269,1.83298 -1.63918,2.20654c-1.36047,0.56065 -3.35296,-0.27726 -3.89641,-1.63113z" data-paper-data="{&quot;index&quot;:null}" fill="#ff1c00" stroke="none" stroke-width="0" stroke-linecap="butt"/><path d="M247.3023,182.75445c-0.49478,1.02109 -2.34437,2.61025 -3.89721,2.41659c-1.55284,-0.19365 -3.53911,-1.63714 -3.04433,-2.65825c0.49477,-1.02109 2.40234,-3.52305 3.9169,-3.36298c0.55228,0.05838 0.76718,0.51238 1.58569,1.43296c0.02061,0.0232 1.73783,1.67732 1.55174,2.06135z" data-paper-data="{&quot;index&quot;:null}" fill="#ff1c00" stroke="none" stroke-width="0" stroke-linecap="butt"/><path d="M243.28748,185.01205c0.58164,-1.20041 4.00002,-2.82505 4.00002,-2.82505c0.42726,0.22226 2.66879,2.49505 2.46042,2.92508c-0.27938,0.57651 -2.08521,1.70045 -2.98989,1.92346c-0.97902,0.24134 -1.81591,0.02325 -2.03797,-0.09226c-0.42726,-0.22223 -2.01427,-0.73081 -1.4326,-1.93122z" data-paper-data="{&quot;index&quot;:null}" fill="#ded000" stroke="none" stroke-width="0" stroke-linecap="butt"/><path d="M244.67521,179.11204c0.37375,0.19016 4.36556,4.23821 5.28432,5.47081c0.61195,0.82097 1.51327,2.23767 1.84543,3.19129c0.16654,0.47813 -0.22668,0.47509 -0.22668,0.47509c0,0 -0.41918,-1.2793 -2.30351,-3.68335c-1.88433,-2.40404 -5.20497,-5.56449 -4.83121,-5.37433z" data-paper-data="{&quot;index&quot;:null}" fill="#646362" stroke="none" stroke-width="0" stroke-linecap="butt"/><path d="M242.81089,185.38195c0,0 -0.08384,-0.42445 -0.01885,-0.71267c0.06498,-0.28824 0.2697,-0.73068 0.2697,-0.73068c0,0 2.19846,1.47263 2.69253,1.95066c0.49406,0.47803 1.37768,1.22659 1.37768,1.22659c0,0 -0.09343,0.84847 -0.36048,0.95163c-0.26706,0.10315 -0.91457,0.20636 -0.91457,0.20636c0,0 -0.74384,-0.45797 -1.31837,-0.98981c-0.5745,-0.53185 -1.72763,-1.90207 -1.72763,-1.90207z" data-paper-data="{&quot;index&quot;:null}" fill="#e0e0de" stroke="none" stroke-width="0" stroke-linecap="butt"/><path d="M257.6836,188.53562c0,0 -0.13889,-4.59929 0.67521,-5.1481c0.8141,-0.54883 3.69906,2.0644 4.555,3.2458c0.25222,0.2549 -0.2657,1.95602 -1.05435,2.53851c-1.18361,0.87422 -3.31993,0.54519 -4.17585,-0.63621z" data-paper-data="{&quot;index&quot;:null}" fill="#ff1c00" stroke="none" stroke-width="0" stroke-linecap="butt"/><path d="M257.38666,182.88961c-0.23205,1.11068 -1.64042,3.10137 -3.19381,3.29056c-1.55339,0.18919 -3.8307,-0.72882 -3.59867,-1.83951c0.23203,-1.11067 1.475,-4.00093 2.98311,-4.2134c0.54991,-0.07747 0.86862,0.31079 1.88616,1.00506c0.02563,0.01749 2.09309,1.20514 2.00582,1.62287z" data-paper-data="{&quot;index&quot;:null}" fill="#ff1c00" stroke="none" stroke-width="0" stroke-linecap="butt"/><path d="M254.04015,186.05449c0.27276,-1.30572 3.19436,-3.71176 3.19436,-3.71176c0.46845,0.11186 3.19475,1.77236 3.09703,2.24012c-0.13103,0.62709 -1.60992,2.15588 -2.43337,2.59188c-0.89112,0.47184 -1.75592,0.46349 -1.99938,0.40535c-0.46844,-0.11184 -2.13145,-0.21986 -1.85866,-1.52558z" data-paper-data="{&quot;index&quot;:null}" fill="#ded000" stroke="none" stroke-width="0" stroke-linecap="butt"/><path d="M253.95376,179.99409c0.40875,0.09372 5.264,3.05137 6.45456,4.024c0.79298,0.64781 2.01131,1.80326 2.56508,2.6477c0.27765,0.4234 -0.10454,0.51591 -0.10454,0.51591c0,0 -0.71726,-1.13924 -3.12893,-3.01381c-2.41167,-1.87458 -6.40031,-4.13416 -5.99158,-4.04044z" data-paper-data="{&quot;index&quot;:null}" fill="#646362" stroke="none" stroke-width="0" stroke-linecap="butt"/><path d="M253.74964,186.6772c0,0 -0.18439,-0.39138 -0.19133,-0.68676c-0.00696,-0.2954 0.08421,-0.7743 0.08421,-0.7743c0,0 2.49025,0.89476 3.0856,1.23851c0.59535,0.34376 1.63429,0.85537 1.63429,0.85537c0,0 0.11538,0.84577 -0.11863,1.01068c-0.23402,0.16491 -0.83709,0.42225 -0.83709,0.42225c0,0 -0.83277,-0.26364 -1.51925,-0.64007c-0.68645,-0.37643 -2.13777,-1.42565 -2.13777,-1.42565z" data-paper-data="{&quot;index&quot;:null}" fill="#e0e0de" stroke="none" stroke-width="0" stroke-linecap="butt"/><path d="M252.71781,183.22485c0,1.32195 -0.81229,2.39358 -1.8143,2.39358c-1.00201,0 -1.8143,-1.07163 -1.8143,-2.39358c0,-1.32195 0.81229,-2.39358 1.8143,-2.39358c1.00201,0 1.8143,1.07163 1.8143,2.39358z" data-paper-data="{&quot;index&quot;:null}" fill="#53b761" stroke="none" stroke-width="0" stroke-linecap="butt"/><path d="M241.19101,184.29521c-0.60195,-0.14478 -3.14311,-0.0439 -5.0963,-0.1528c-1.89888,-0.10587 -3.95346,-1.42425 -3.95346,-1.42425c0,0 6.43035,-1.99147 8.31257,-2.17022c2.71702,-0.25804 7.81794,-0.28712 7.81794,-0.28712c0,0 -5.89359,4.31991 -7.08075,4.03439z" data-paper-data="{&quot;index&quot;:null}" fill="#ff3300" stroke="none" stroke-width="0" stroke-linecap="butt"/><path d="M240.24352,184.63697c0.48613,-0.64866 1.23352,-0.4856 2.01154,-0.47685c0.77801,0.00876 1.29871,-0.11311 1.92437,0.52112c0.62568,0.63422 0.7455,1.75464 0.71901,2.15841c-0.07452,1.13596 -1.43459,2.02936 -2.78691,1.94066c-1.35229,-0.08873 -2.13886,-1.58074 -2.13886,-1.58074c0,0 -0.21528,-1.91395 0.27084,-2.56261z" data-paper-data="{&quot;index&quot;:null}" fill="#e8e6e6" stroke="none" stroke-width="0" stroke-linecap="butt"/><path d="M241.00885,182.26362c0,0 -4.36551,0.37244 -3.72878,-0.01893c0.1664,-0.10229 -0.52194,-0.80742 -0.20329,-1.34738c0.40526,-0.68675 1.01473,-0.14676 1.87219,-0.40483c1.78803,-0.53813 4.27854,0.28764 4.27854,0.28764l0.10355,3.96266c0,0 -0.78714,0.79763 -1.3926,0.71548c-0.60547,-0.08215 -0.90872,-1.02773 -0.90872,-1.02773l-0.02091,-2.1669z" data-paper-data="{&quot;index&quot;:null}" fill="#ff3300" stroke="none" stroke-width="0" stroke-linecap="butt"/><path d="M237.36834,189.51326c0.69484,-1.08386 3.09741,-2.18248 4.02154,-1.59006c0.92413,0.59242 3.72788,-0.85921 3.03305,0.22466c-0.2394,0.37347 3.05207,3.24697 0.39553,7.11041c-0.53971,0.78494 -1.38136,0.55783 -2.38638,0.36161c-0.37907,-0.07401 -2.78945,0.75915 -3.21232,0.64171c-0.12203,-0.0339 -0.54765,-0.66063 -0.71541,-1.04414c-0.24045,-0.54964 -1.03415,-0.26046 -1.22212,-0.38095c-0.44128,-0.28289 -0.15689,-2.45873 -0.04682,-3.2668c0.12045,-0.88414 -0.23008,-1.49012 0.13294,-2.05641z" data-paper-data="{&quot;index&quot;:null}" fill="#e8e6e6" stroke="none" stroke-width="0" stroke-linecap="butt"/><path d="M239.71023,193.79744c0.03557,-0.6697 0.49875,-1.18953 1.03449,-1.16107c0.53577,0.02848 0.94124,0.59445 0.90566,1.26414c-0.03559,0.66969 -1.12746,1.60946 -1.12746,1.60946c0,0 -0.84828,-1.04283 -0.81271,-1.71252z" data-paper-data="{&quot;index&quot;:null}" fill="#e8e6e6" stroke="#999797" stroke-width="0.5" stroke-linecap="butt"/><path d="M242.92076,193.45544c-0.14323,-0.65515 0.16553,-1.27917 0.68966,-1.39376c0.52413,-0.1146 1.06515,0.32362 1.20838,0.97878c0.14326,0.65517 -0.6604,1.85079 -0.6604,1.85079c0,0 -1.09438,-0.78063 -1.23762,-1.43579z" data-paper-data="{&quot;index&quot;:null}" fill="#e8e6e6" stroke="#999797" stroke-width="0.5" stroke-linecap="butt"/><path d="M228.2803,177.29933c-0.61095,-0.98833 -0.38705,-1.70224 0.81148,-3.35932c1.04431,-1.44386 2.13535,-3.35693 5.1615,-4.74493c3.02614,-1.388 7.23942,-1.32053 7.23942,-1.32053l5.98345,0.20767l-1.74163,1.68512c0,0 3.80592,0.85784 5.27684,1.5846c1.47092,0.72676 3.28403,2.64521 3.28403,2.64521l-5.60181,-0.04053c0,0 2.26195,1.40847 3.1767,2.21239c0.91476,0.80392 2.03374,2.36671 2.03374,2.36671l-4.91454,-0.16024l1.49512,3.78311c0,0 -3.49766,-0.36904 -5.90639,-0.7938c-2.40873,-0.42476 -5.4459,-0.51763 -5.4459,-0.51763c0,0 -1.8386,1.30064 -2.77106,1.05415c-1.97373,-0.52174 -3.89936,-2.81725 -3.91533,-2.8199c-0.57019,-0.095 -1.86547,0.32569 -2.42382,0.07625c-0.52308,-0.23369 -1.03469,-0.71446 -1.74181,-1.85834z" data-paper-data="{&quot;index&quot;:null}" fill="#ff3300" stroke="none" stroke-width="0" stroke-linecap="butt"/><path d="M226.94003,173.78729z" data-paper-data="{&quot;index&quot;:null}" fill="#030000" stroke="none" stroke-width="0" stroke-linecap="butt"/><path d="M229.97227,179.28657c0,0 1.3812,-1.05099 3.36827,-2.0801c1.13883,-0.5898 2.98458,-1.2704 2.98458,-1.2704c0,0 0.104,1.10021 -0.20891,1.92617c-0.27651,0.72983 -1.35099,1.99936 -1.84516,2.02623c-0.44137,0.02399 -1.01783,0.19609 -2.08877,-0.06955c-1.36362,-0.33824 -2.21,-0.53234 -2.21,-0.53234z" data-paper-data="{&quot;index&quot;:null}" fill="#ffffff" stroke="none" stroke-width="0" stroke-linecap="butt"/><g data-paper-data="{&quot;index&quot;:null}" stroke="none" stroke-width="0" stroke-linecap="butt"><path d="M231.82037,179.47594c-0.35146,-0.01303 -0.55482,-0.28763 -0.53133,-0.92175c0.0235,-0.63411 0.51495,-0.7626 0.86642,-0.74957c0.35147,0.01302 0.36732,-0.08739 0.34383,0.54673c-0.0235,0.63411 -0.32745,1.1376 -0.67891,1.12458z" fill="#7c5cbb"/><path d="M231.8158,178.96326c-0.20827,-0.00772 -0.37086,-0.18282 -0.36314,-0.39109c0.00771,-0.20827 0.18281,-0.37085 0.39108,-0.36313c0.20827,0.00772 0.37084,0.18281 0.36312,0.39108c-0.00771,0.20827 -0.1828,0.37086 -0.39107,0.36314z" fill="#000000"/><path d="M231.73518,178.4576c-0.20827,-0.00772 -0.18335,0.00468 -0.17563,-0.20359c0.00772,-0.20827 0.18281,-0.30835 0.39108,-0.30063c0.20827,0.00772 0.18335,-0.06719 0.17563,0.14108c-0.00772,0.20827 -0.18281,0.37085 -0.39108,0.36313z" fill="#ffffff"/></g><path d="M230.37206,182.56088c-2.14851,-0.56461 -3.54573,-1.538 -3.66895,-2.50646c-0.09115,-0.7164 1.81313,-1.14631 3.13613,-1.2668c1.323,-0.12049 1.43862,0.80307 2.38555,0.85122c1.94641,0.09899 1.9922,-0.35697 2.68638,-0.2558c3.30532,0.48171 3.10234,2.14622 1.69206,2.76214c-1.92497,0.91367 -4.61085,0.70788 -6.23118,0.4157z" data-paper-data="{&quot;index&quot;:null}" fill="#ffbe7e" stroke="none" stroke-width="0" stroke-linecap="butt"/><path d="M234.05738,181.03068c0,0 0.79192,-0.14464 1.3009,-0.11691c0.50898,0.02774 0.89261,0.23645 0.89261,0.23645" data-paper-data="{&quot;index&quot;:null}" fill="none" stroke="#000000" stroke-width="0.5" stroke-linecap="round"/><path d="M227.06487,179.44853c0,0 0.14109,-0.0633 0.21479,0.24672c0.0737,0.31 -0.38382,0.82757 -0.38382,0.82757c0,0 -1.40372,-0.56844 -1.35143,-0.88231z" data-paper-data="{&quot;index&quot;:null}" fill="#030000" stroke="none" stroke-width="0" stroke-linecap="butt"/><path d="M242.17901,184.13053v-2.38769h8.64511c0,0 0.64692,0.84011 0.64692,1.32548c0,0.48537 -0.64692,1.06221 -0.64692,1.06221z" data-paper-data="{&quot;index&quot;:null}" fill="#ff3200" stroke="none" stroke-width="0" stroke-linecap="butt"/></g></g></svg>