<svg version="1.1" xmlns="http://www.w3.org/2000/svg" xmlns:xlink="http://www.w3.org/1999/xlink" width="28.80132" height="39.50234" viewBox="0,0,28.80132,39.50234"><defs><radialGradient cx="236.90015" cy="197.24884" r="7.85137" gradientUnits="userSpaceOnUse" id="color-1"><stop offset="0" stop-color="#d6feff" stop-opacity="0"/><stop offset="1" stop-color="#d6feff" stop-opacity="0.25098"/></radialGradient></defs><g transform="translate(-224.58713,-163.34114)"><g data-paper-data="{&quot;isPaintingLayer&quot;:true}" fill-rule="nonzero" stroke-linejoin="miter" stroke-miterlimit="10" stroke-dasharray="" stroke-dashoffset="0" style="mix-blend-mode: normal"><g data-paper-data="{&quot;index&quot;:null}"><g><g><path d="M239.95856,186.53433c-0.00167,0.28835 -0.49833,1.57898 -0.59401,1.62399c-0.11614,0.05463 0.04527,0.06815 -0.16567,0.05413c-0.21094,-0.01402 -0.21931,-0.30889 -0.21931,-0.30889c0,0 -0.07985,0.38281 -0.40561,0.3767c-0.32575,-0.00612 -0.48679,-0.32679 -0.48679,-0.32679c0,0 -0.18456,0.26156 -0.44258,0.24029c-0.25801,-0.02128 -0.48764,-0.31851 -0.48764,-0.31851c0,0 -0.34594,0.32679 -0.55901,0.31169c-0.21307,-0.01511 -0.39507,-0.3788 -0.39507,-0.3788c0,0 -0.07017,0.32536 -0.51454,0.28244c-0.34586,-0.0334 -0.4261,-0.50337 -0.35868,-1.15925c0.06833,-0.66486 0.13389,-1.36707 0.13588,-1.70714c0.006,-1.03056 1.0628,-1.31477 2.09338,-1.30876c0.48267,0.00281 1.21897,0.21939 1.50393,0.77535c0.38195,0.74518 0.89895,1.29564 0.89575,1.84352z" fill="#fdfdfd" stroke="none" stroke-width="0" stroke-linecap="butt"/><path d="M237.93602,185.95994c0,0 0.65672,0.01135 0.91372,0.30965c0.12159,0.14111 -0.05906,0.59076 -0.03845,0.97331c0.02062,0.38254 0.22926,0.80278 0.22926,0.80278" fill="none" stroke="#a4a4a4" stroke-width="0.125" stroke-linecap="round"/></g><path d="M237.29213,184.25295c-0.4131,0.02847 -1.48359,0.16282 -1.53953,-0.15475c-0.11353,-0.64451 0.37498,-0.66415 0.37498,-0.66415c0,0 -0.46639,-0.01253 -0.03059,-0.64531c0.17288,-0.25102 0.76151,-0.40775 1.27961,-0.41324c0.51809,-0.00548 1.48098,0.1514 1.55084,0.50206c0.05386,0.27027 -0.34654,0.45345 -0.34654,0.45345c0,0 0.32587,0.27171 0.33904,0.55653c-0.01034,0.29632 -1.26025,0.34005 -1.62782,0.36538z" fill="#fdfdfd" stroke="none" stroke-width="0" stroke-linecap="butt"/></g><path d="M240.93176,178.69126c0.16854,0.53724 -0.53584,0.55045 -0.53584,0.55045l-1.97601,0.23805l-0.37323,3.06199l-1.02273,0.00452l0.40606,-3.95647c0,0 2.53392,-0.4542 3.06364,-0.43505c0.52972,0.01916 0.26957,-0.00073 0.43811,0.53651z" data-paper-data="{&quot;index&quot;:null}" fill="#fec267" stroke="none" stroke-width="0" stroke-linecap="butt"/></g><path d="M230.26159,200.41631c0,0 -0.7924,-1.81928 -1.13221,-2.2967c-0.33981,-0.47742 1.13383,-1.38939 1.83417,-1.90284c1.86858,-1.36991 7.46291,-1.30341 10.38944,-1.3361c2.1664,-0.0242 2.65288,0.54537 2.92503,0.57429c0.79631,0.0846 1.41917,2.50971 1.04244,2.94989c-0.0642,0.075 -2.72692,1.56838 -4.09999,1.89729c-2.19921,0.52679 -4.65506,1.67131 -5.83617,1.52923c-1.84155,-0.22152 -5.12272,-1.41506 -5.12272,-1.41506z" data-paper-data="{&quot;index&quot;:null}" fill="url(#color-1)" stroke-opacity="0.25098" stroke="#313040" stroke-width="2" stroke-linecap="butt"/><path d="M237.17673,177.91101c0,0 0.84414,1.92369 1.50358,1.92369c0.65944,0 -1.06188,0.91077 -1.99003,2.27748c-0.92814,1.36671 -2.03425,3.64839 -2.03425,3.64839c0,0 -0.35268,-3.59223 0.00811,-5.02329c0.67719,-2.68608 2.5126,-2.82628 2.5126,-2.82628z" data-paper-data="{&quot;index&quot;:null}" fill="#02124a" stroke="none" stroke-width="0" stroke-linecap="butt"/><path d="M236.74479,189.9964c0,0 1.06886,-2.32478 1.55087,-3.89622c0.48203,-1.57144 0.58401,-3.06376 0.58401,-3.06376l1.5037,0.44567l-2.6965,7.92671z" data-paper-data="{&quot;index&quot;:null}" fill="#033397" stroke="none" stroke-width="0" stroke-linecap="butt"/><g data-paper-data="{&quot;index&quot;:null}" stroke="none" stroke-width="0" stroke-linecap="butt"><path d="M244.7011,196.80468c0,0 -1.31335,1.12543 -4.48749,0.52199c-0.69072,-0.1313 -2.2775,-0.60291 -2.2775,-0.60291l0.05496,-0.55691l-1.32321,-0.37644l-0.10753,0.39126c0,0 -0.90983,-0.39465 -1.13911,-0.53956c-0.54228,-0.34277 -1.2742,-0.87276 -1.2742,-0.87276c0,0 0.13967,-1.45379 0.96295,-2.71796c0.32484,-0.49881 1.03499,-0.99698 5.86859,0.82513c4.17786,1.10926 3.72252,3.92817 3.72252,3.92817z" fill="#e90023"/><path d="M244.64803,196.80191l-0.04623,0.39359l-0.98327,-0.24032l-0.7451,0.1878l0.08538,0.75864l-1.03158,-0.95688l0.645,-0.96169l1.74659,-0.38364l0.32916,1.20248z" fill="#948a92"/><path d="M236.65849,195.73377c0,0 0.04444,-0.59098 -0.05348,-1.20917c-0.09791,-0.6182 -0.47613,-1.51525 -0.47613,-1.51525l0.11505,-1.23631l1.4232,0.02145c0,0 0.45204,0.97358 0.50822,2.1495c0.05295,1.10838 -0.16577,2.28137 -0.16577,2.28137z" fill="#deca55"/><path d="M244.24886,195.94666l-1.373,0.64169l0.19026,1.30735l-1.83338,0.16236l-3.33256,-1.30826l0.12724,-1.28693l2.90987,1.36144l0.70026,-1.76274l2.10384,-0.82739l0.88023,1.39687l0.24395,1.3287l-0.29523,0.29539z" fill="#edeeee"/><g><path d="M243.98058,197.56358c-0.43683,0.13702 -0.75251,0.08947 -0.93245,-0.2053c-0.17994,-0.29478 -0.10443,-0.69433 0.28081,-0.89246c0.38524,-0.19811 0.81311,-0.08948 0.99305,0.20529c0.17994,0.29478 -0.03455,0.79622 -0.34141,0.89247z" fill="#ece09c"/><path d="M244.09066,197.58212c-0.31743,0.19269 -0.82878,0.086 -0.95495,-0.17726c-0.13236,-0.27617 0.23342,-0.5841 0.45993,-0.68589c0.25683,-0.13209 0.62286,-0.04954 0.74282,0.14696c0.11997,0.19651 0.009,0.5841 -0.24781,0.71619z" fill="#000000"/></g><path d="M238.16428,194.62866c0,0 -0.0279,0.54442 -0.06716,0.81247c-0.03846,0.26259 -0.16603,0.77978 -0.16603,0.77978l-0.34611,-0.1418l0.51487,-2.69101c0,0 0.07825,0.50837 0.08976,0.73001c0.00963,0.18536 -0.02531,0.51055 -0.02531,0.51055z" fill="#6a2625"/><path d="M234.40693,193.68763c0,0 1.01413,0.36088 0.91408,0.82038c-0.10004,0.4595 -1.04705,-0.20962 -1.04705,-0.20962l0.13297,-0.61075z" fill="#eac763"/><path d="M239.14084,192.1267c-0.04475,0.50695 -1.01414,0.65606 -1.85947,0.66733c-0.84533,0.01128 -1.97561,-0.06583 -2.00902,-0.61569c-0.06778,-1.1159 0.52747,-1.10187 0.52747,-1.10187c0,0 -0.56493,-0.06704 0.03299,-1.10918c0.23719,-0.41342 0.96891,-0.6246 1.59854,-0.58337c0.62964,0.04121 1.78165,0.40426 1.82837,1.01218c0.03601,0.46857 -0.47003,0.74345 -0.47003,0.74345c0,0 0.36613,0.49765 0.35116,0.98715z" fill="#fdfdfd"/></g><path d="M238.98986,184.03588c0,0 -0.19123,0.96987 -1.20936,1.59486c-1.01812,0.62499 -3.25715,1.14695 -3.25715,1.14695c0,0 2.16872,-1.74449 2.74613,-2.46427c0.48097,-0.59956 0.48215,-1.56001 0.48215,-1.56001l1.23824,1.28246z" data-paper-data="{&quot;index&quot;:null}" fill="#02124a" stroke="none" stroke-width="0" stroke-linecap="butt"/><path d="M237.85727,183.9466c-0.79878,-0.22367 -1.37808,-0.70449 -1.07252,-2.54092c0.17041,-1.02415 -0.28641,-2.61018 -0.0286,-3.53088c0.43137,-1.54049 2.28681,-0.20924 3.62739,0.16616c1.34058,0.37539 1.47123,2.1261 1.03985,3.66659c-0.43138,1.5405 -2.22555,2.61445 -3.56612,2.23905z" data-paper-data="{&quot;index&quot;:null}" fill="#033397" stroke="none" stroke-width="0" stroke-linecap="butt"/><path d="M241.64055,181.42394c-0.31981,1.02594 -1.33078,2.27794 -2.57985,2.07894c-1.12095,-0.1786 -0.93778,-3.77207 -0.14214,-4.49443c0.86212,-0.78271 2.06089,-0.65466 2.29193,-0.23076c0.45565,0.836 0.88166,1.19749 0.43005,2.64625z" data-paper-data="{&quot;index&quot;:null}" fill="#fec267" stroke="none" stroke-width="0" stroke-linecap="butt"/><path d="M236.95339,191.05305c0,0 0.29507,-2.77303 0.24365,-4.57171c-0.05143,-1.79868 -0.47143,-3.39474 -0.47143,-3.39474l1.72604,-0.00665l-0.01717,9.15648z" data-paper-data="{&quot;index&quot;:null}" fill="#033397" stroke="none" stroke-width="0" stroke-linecap="butt"/><g data-paper-data="{&quot;index&quot;:null}" stroke="none" stroke-width="0" stroke-linecap="butt"><path d="M230.05172,198.09086c0,0 -0.48148,-2.98075 3.93624,-4.1537c5.11111,-1.92673 5.86204,-1.39996 6.20553,-0.87251c0.87054,1.33675 1.01823,2.87401 1.01823,2.87401c0,0 -0.77394,0.56042 -1.34735,0.92287c-0.24245,0.15323 -1.20451,0.57054 -1.20451,0.57054l-0.1137,-0.41372l-1.39918,0.39805l0.05812,0.58888c0,0 -1.67788,0.49868 -2.40826,0.63752c-3.35637,0.63808 -4.74513,-0.55195 -4.74513,-0.55195z" fill="#e90023"/><path d="M230.10786,198.08789l0.34806,-1.27152l1.84687,0.40567l0.68203,1.0169l-1.0908,1.01182l0.09028,-0.8022l-0.78788,-0.19858l-1.03972,0.25411l-0.04889,-0.41618z" fill="#948a92"/><path d="M237.12739,197.47826c0,0 -0.23128,-1.24034 -0.17529,-2.41235c0.0594,-1.24344 0.5374,-2.27291 0.5374,-2.27291l1.50491,-0.02268l0.12166,1.30729c0,0 -0.39993,0.94855 -0.50347,1.60224c-0.10354,0.65368 -0.05655,1.27859 -0.05655,1.27859z" fill="#deca55"/><path d="M230.18996,198.56717l-0.31218,-0.31235l0.25796,-1.40499l0.93077,-1.47707l2.22463,0.8749l0.74047,1.86395l3.07693,-1.43961l0.13455,1.36082l-3.52389,1.38338l-1.93864,-0.17168l0.20118,-1.38241l-1.45183,-0.67853z" fill="#edeeee"/><g><path d="M230.45256,197.94961c0.19027,-0.31169 0.64271,-0.42656 1.05007,-0.21708c0.40736,0.20951 0.4872,0.63199 0.29693,0.9437c-0.19027,0.31169 -0.52408,0.36197 -0.98598,0.21709c-0.32448,-0.10178 -0.55128,-0.632 -0.36101,-0.94371z" fill="#ece09c"/><path d="M230.69719,198.91292c-0.27156,-0.13968 -0.38889,-0.54952 -0.26203,-0.75731c0.12685,-0.20778 0.51389,-0.29507 0.78546,-0.1554c0.23952,0.10763 0.6263,0.43324 0.48634,0.72527c-0.13342,0.27838 -0.67413,0.3912 -1.00978,0.18744z" fill="#000000"/></g><path d="M236.96378,195.78989c0,0 -0.03695,-0.34386 -0.02676,-0.53986c0.01217,-0.23436 0.09491,-0.77193 0.09491,-0.77193l0.54443,2.84551l-0.36598,0.14994c0,0 -0.13489,-0.54688 -0.17556,-0.82455c-0.04152,-0.28344 -0.07102,-0.85912 -0.07102,-0.85912z" fill="#6a2625"/><path d="M240.93689,194.79485l0.1406,0.64581c0,0 -1.00138,0.70754 -1.10717,0.22165c-0.1058,-0.48588 0.96656,-0.86748 0.96656,-0.86748z" fill="#eac763"/><path d="M235.93117,193.14429c-0.01583,-0.51761 0.37132,-1.04382 0.37132,-1.04382c0,0 -0.53509,-0.29066 -0.49702,-0.78614c0.0494,-0.64282 1.26755,-1.02671 1.93334,-1.07029c0.66578,-0.0436 1.43951,0.17971 1.69032,0.61686c0.63225,1.10197 0.03489,1.17287 0.03489,1.17287c0,0 0.62942,-0.01484 0.55775,1.16513c-0.03533,0.58143 -1.23049,0.66297 -2.12436,0.65104c-0.89387,-0.01191 -1.91891,-0.16959 -1.96623,-0.70565z" fill="#fdfdfd"/></g><path d="M237.46409,178.40548c0.35028,-0.39783 0.17014,-0.20909 0.69266,0.00069c0.52252,0.20978 0.08668,0.76328 0.08668,0.76328l-1.0671,1.68005l2.13342,2.22791l-0.64416,0.79438l-2.8049,-2.81977c0,0 1.25313,-2.24871 1.60341,-2.64655z" data-paper-data="{&quot;index&quot;:null}" fill="#fec267" stroke="none" stroke-width="0" stroke-linecap="butt"/><g data-paper-data="{&quot;index&quot;:null}" fill="#fdfdfd" stroke="none" stroke-width="0" stroke-linecap="butt"><g><path d="M243.47388,184.11447c0.20639,0.20138 0.79058,1.45483 0.75656,1.55494c-0.04129,0.12154 0.08049,0.01474 -0.07604,0.15684c-0.15653,0.1421 -0.37458,-0.05657 -0.37458,-0.05657c0,0 0.22012,0.32322 -0.01043,0.55346c-0.23054,0.23024 -0.57315,0.12354 -0.57315,0.12354c0,0 0.06013,0.31441 -0.13429,0.48537c-0.19443,0.17095 -0.56778,0.12989 -0.56778,0.12989c0,0 -0.00494,0.47587 -0.16373,0.61874c-0.15877,0.14285 -0.5469,0.02139 -0.5469,0.02139c0,0 0.18548,0.27638 -0.1539,0.56643c-0.26413,0.22576 -0.65811,-0.04273 -1.0834,-0.54658c-0.43113,-0.51073 -0.89105,-1.04539 -1.13445,-1.2829c-0.73762,-0.71974 -0.20855,-1.6777 0.51119,-2.41532c0.33711,-0.34549 1.00413,-0.7251 1.60212,-0.54427c0.80149,0.24238 1.55661,0.25239 1.94875,0.63503z"/></g><path d="M239.9807,184.45004c-0.26629,0.3171 -0.91271,1.18087 -1.18013,1.00069c-0.54271,-0.36567 -0.21773,-0.73094 -0.21773,-0.73094c0,0 -0.3328,0.327 -0.48571,-0.42596c-0.06068,-0.29871 0.23514,-0.8312 0.59085,-1.20793c0.35571,-0.37673 1.13707,-0.96088 1.43797,-0.76774c0.23192,0.14886 0.08581,0.56422 0.08581,0.56422c0,0 0.42179,-0.04592 0.63594,0.14232c0.20612,0.21314 -0.63011,1.14317 -0.86703,1.42532z"/></g><g data-paper-data="{&quot;index&quot;:null}"><g fill="#033397" stroke-width="0"><path d="M233.77468,173.13495c-0.14262,-2.93165 2.11833,-5.42386 5.04999,-5.56648c2.93165,-0.14262 5.42385,2.11834 5.56647,5.05c0.14262,2.93165 -2.11833,5.42385 -5.04999,5.56647c-2.93165,0.14262 -5.42385,-2.11833 -5.56647,-5.04999z" stroke="none" stroke-linecap="butt"/><path d="M233.64721,172.32579c0,0 0.25711,-7.17311 8.95014,-8.78092c5.97523,-1.13236 9.97145,2.8249 9.97145,2.8249c0,0 -1.57105,-0.04824 -2.87618,0.38616c-1.07458,0.35766 -2.25939,1.35716 -2.25939,1.35716c0,0 2.74706,1.03975 4.38887,4.03689c1.90564,3.47876 1.53782,6.53584 1.53782,6.53584c0,0 -1.81701,-1.96841 -3.23144,-2.84462c-0.85054,-0.52689 -2.62712,-0.91849 -2.62712,-0.91849c0,0 1.21762,1.8565 1.42009,4.14791c0.23897,2.7043 -0.69066,4.2561 -0.69066,4.2561c0,0 -1.38883,-3.02218 -3.04064,-4.37751c-1.6518,-1.35532 -3.84433,-1.27169 -3.84433,-1.27169" stroke="#000000" stroke-linecap="round"/></g><path d="M239.17415,167.63744c0,0 1.57626,-1.42665 2.71989,-2.19566c1.14365,-0.76901 1.30343,-0.80877 1.56961,-0.66113c0.25899,0.14366 0.25322,1.37423 0.2876,2.2799c0.03438,0.90567 -0.12686,1.95429 -0.12686,1.95429" fill="#033397" stroke="#000000" stroke-width="0.125" stroke-linecap="round"/><path d="M233.96151,171.52161c0,0 -0.92347,-1.51536 -1.22438,-2.28449c-0.26294,-0.67206 -0.77554,-2.0219 -0.4826,-2.0785c0.24446,-0.04724 1.22489,0.33433 1.75534,0.42405c0.57797,0.09777 1.58215,0.14051 1.58215,0.14051" fill="#033397" stroke="#000000" stroke-width="0" stroke-linecap="round"/><path d="M233.86675,171.39339c0,0 0.40342,1.33285 0.74531,2.1541c0.34189,0.82125 0.34584,0.84886 0.66346,1.33821c0.10117,0.1559 0.24411,-0.01933 0.24411,-0.01933c0,0 0.42866,0.52522 0.65628,0.26301c0.7774,-0.45695 0.91288,-2.38859 1.65618,-3.49784c0.75181,-1.12199 1.56213,-1.28848 1.93551,-1.35171c0.3211,-0.05438 1.04543,0.06194 1.49092,0.81334c0.31427,0.64233 0.48065,2.10938 0.07841,2.96499c-0.40224,0.85561 -0.98586,1.82434 -2.20325,2.14488c-1.21738,0.32056 -2.38977,-0.96889 -3.49276,-0.64959c-0.13599,0.03936 -0.84219,0.62892 -0.84219,0.62892c0,0 -0.8146,-1.50546 -1.02015,-2.56175c-0.20556,-1.0563 0.0882,-2.22726 0.0882,-2.22726z" fill="#fdfdfd" stroke="#000000" stroke-width="0" stroke-linecap="butt"/><path d="M234.86544,176.33723c-0.0019,-0.24303 0.23166,-0.76258 1.08042,-0.88124c0.6575,-0.10184 1.68571,0.62781 2.65806,0.61979c1.46097,-0.01205 1.84708,-1.83308 3.51936,-1.44173c1.34577,0.29298 0.84035,3.2601 -3.02754,3.54838c-0.92393,0.0207 -2.21214,-0.29743 -2.96617,-0.6601c-0.91817,-0.44161 -1.26103,-0.79165 -1.26412,-1.18511z" fill="#fec267" stroke="#000000" stroke-width="0" stroke-linecap="butt"/><path d="M233.56659,172.58891c0,0 -0.53981,-1.99332 -0.42229,-2.32014c0.17944,-0.49907 0.96501,0.02222 0.96501,0.02222" fill="#033397" stroke="#000000" stroke-width="0.125" stroke-linecap="round"/><path d="M233.54749,175.36184c0.04097,-0.13878 0.65872,0.1214 1.12882,0.25309c0.47009,0.13169 1.12494,0.17337 1.1363,0.40673c0.01883,0.38698 -0.72519,0.40063 -1.25629,0.29212c-0.84103,-0.17184 -1.14315,-0.49691 -1.00882,-0.95192z" fill="#0d1114" stroke="none" stroke-width="0" stroke-linecap="butt"/><path d="M234.54991,175.57131c0.23169,0.03164 0.41097,0.11989 0.40042,0.19713c-0.01055,0.07723 -0.20693,0.1142 -0.43861,0.08255c-0.23169,-0.03164 -0.41097,-0.11989 -0.40042,-0.19713c0.01055,-0.07723 0.20693,-0.1142 0.43861,-0.08255z" fill="#fdfdfd" stroke="none" stroke-width="0" stroke-linecap="butt"/><path d="M240.24057,167.53607c0,0 1.95299,-1.78173 2.65227,-1.63627c0.48735,0.10138 0.0569,3.10591 0.0569,3.10591c0,0 -0.10931,-0.42709 -1.18737,-0.9094c-0.98557,-0.44092 -1.52179,-0.56025 -1.52179,-0.56025z" fill="#fec267" stroke="none" stroke-width="0" stroke-linecap="butt"/><g stroke="none" stroke-width="0" stroke-linecap="butt"><path d="M237.84086,172.34837c0.30741,-0.06345 0.54098,0.52638 0.69679,1.28129c0.15582,0.7549 0.17487,1.389 -0.13255,1.45246c-0.27669,0.0571 -0.54098,-0.52637 -0.69679,-1.28128c-0.15582,-0.7549 -0.14416,-1.39535 0.13255,-1.45246z" fill="#005c2d"/><path d="M237.9994,173.11627c0.11026,-0.02275 0.25075,0.20633 0.31377,0.51169c0.06302,0.30536 0.02472,0.57134 -0.08554,0.5941c-0.11026,0.02275 -0.25075,-0.20633 -0.31377,-0.51168c-0.06302,-0.30536 -0.02472,-0.57135 0.08554,-0.5941z" fill="#000000"/><path d="M237.95499,172.90127c0.11026,-0.02275 0.22947,0.10319 0.26623,0.28132c0.03676,0.17811 -0.02283,0.34096 -0.13309,0.36374c-0.11026,0.02275 -0.22947,-0.10319 -0.26622,-0.28132c-0.03676,-0.17811 0.02282,-0.34096 0.13309,-0.36374z" fill="#ffffff"/></g><g stroke="none" stroke-width="0" stroke-linecap="butt"><path d="M234.1347,173.49909c0.20083,-0.07366 0.41753,0.30045 0.5984,0.79361c0.18087,0.49317 0.25742,0.91866 0.0566,0.99231c-0.18075,0.06629 -0.41753,-0.30045 -0.5984,-0.79361c-0.18087,-0.49317 -0.23736,-0.92603 -0.0566,-0.99231z" fill="#005c2d"/><path d="M234.3187,174.00075c0.07204,-0.02642 0.18974,0.11388 0.26291,0.31337c0.07316,0.19948 0.07408,0.38262 0.00204,0.40903c-0.07204,0.02642 -0.18974,-0.11388 -0.26291,-0.31337c-0.07316,-0.19948 -0.07408,-0.38262 -0.00204,-0.40903z" fill="#000000"/><path d="M234.2672,173.86029c0.07204,-0.02642 0.16502,0.0465 0.20771,0.16287c0.04268,0.11636 0.01888,0.23212 -0.05316,0.25854c-0.07204,0.02642 -0.16502,-0.0465 -0.20771,-0.16286c-0.04268,-0.11636 -0.01888,-0.23212 0.05316,-0.25854z" fill="#ffffff"/></g><path d="M240.65283,177.04762c-0.50928,0.14786 -1.51722,0.17288 -1.51722,0.17288c0,0 0.84447,-0.15493 1.29486,-0.28569c0.45039,-0.13076 0.99033,-0.62539 0.99033,-0.62539c0,0 -0.2587,0.59035 -0.76797,0.7382z" fill="#000000" stroke="#000000" stroke-width="0" stroke-linecap="butt"/><path d="M235.04805,172.51736c0.18623,-0.00906 0.50247,1.29716 0.53101,1.88375c0.02854,0.58659 -0.27968,0.50367 -0.27968,0.50367c0,0 -0.27861,-0.42249 -0.41613,-0.69977c-0.13751,-0.27727 -0.29587,-0.73579 -0.29587,-0.73579c0,0 0.27444,-0.9428 0.46066,-0.95186z" fill="#033397" stroke="none" stroke-width="0" stroke-linecap="butt"/></g></g></g></svg>