<svg version="1.1" xmlns="http://www.w3.org/2000/svg" xmlns:xlink="http://www.w3.org/1999/xlink" width="32.61947" height="18.81804" viewBox="0,0,32.61947,18.81804"><g transform="translate(-223.35327,-175.4234)"><g data-paper-data="{&quot;isPaintingLayer&quot;:true}" fill-rule="nonzero" stroke-linejoin="miter" stroke-miterlimit="10" stroke-dasharray="" stroke-dashoffset="0" style="mix-blend-mode: normal"><g data-paper-data="{&quot;index&quot;:null}"><g stroke="none" stroke-width="0" stroke-linecap="butt"><path d="M230.36372,178.94306c0,0 0.41669,-1.23075 0.47129,-1.83874c0.05412,-0.60268 -0.41788,-1.66942 -0.41788,-1.66942c0,0 2.73118,-0.13495 5.05953,2.36636c2.02476,2.17518 1.92919,4.7236 1.92919,4.7236c0,0 -1.62937,-1.07353 -2.7448,-1.64087c-1.11543,-0.56734 -4.29734,-1.94094 -4.29734,-1.94094z" data-paper-data="{&quot;index&quot;:null}" fill="#3ad3cf"/><path d="M225.02685,179.66372c-0.26473,-0.04501 -0.5724,-1.70373 1.78095,-3.20644c1.28432,-0.82008 3.60302,-1.03388 3.60302,-1.03388c0,0 0.52185,1.08696 0.49708,1.83138c-0.02479,0.74443 -0.54946,1.70769 -0.54946,1.70769c0,0 -1.39079,-0.26692 -2.20853,-0.1488c-0.81774,0.11812 -2.84932,0.89658 -3.12307,0.85003z" fill="#ffffff"/></g><path d="M231.09335,176.14099l-0.66345,0.00159" fill="none" stroke="#808080" stroke-width="0.5" stroke-linecap="round"/><path d="M230.48201,177.55244l0.58262,0.07173" fill="none" stroke="#808080" stroke-width="0.5" stroke-linecap="round"/><path d="M230.28046,178.79234l0.53562,0.08577" fill="none" stroke="#808080" stroke-width="0.5" stroke-linecap="round"/></g><g data-paper-data="{&quot;index&quot;:null}"><g stroke="none" stroke-width="0" stroke-linecap="butt"><path d="M228.34495,181.87697c0,0 0.12488,-1.29899 0.0399,-1.90578c-0.08421,-0.60147 -0.54752,-1.71916 -0.54752,-1.71916c0,0 2.70136,-0.66524 5.09879,0.35584c3.30932,1.40947 4.46156,3.85529 4.46156,3.85529c0,0 -1.86814,0.59433 -3.1993,0.41737c-1.33115,-0.17697 -5.85344,-1.00354 -5.85344,-1.00354z" fill="#3ad3cf"/><path d="M223.37766,182.18711c-0.20221,-0.36195 0.90313,-1.75646 1.45534,-2.20856c1.18655,-1.15843 2.98307,-1.72906 2.98307,-1.72906c0,0 0.62613,1.04035 0.72847,1.86936c0.10234,0.82902 -0.16938,1.77365 -0.16938,1.77365c0,0 -2.43045,0.18517 -2.66611,0.26118c-0.73261,0.23635 -2.14906,0.35978 -2.33141,0.0334z" fill="#ffffff"/></g><path d="M228.65487,181.61416l-0.56182,-0.00136" fill="none" stroke="#808080" stroke-width="0.5" stroke-linecap="round"/><path d="M228.06899,180.2642l0.58121,-0.06437" fill="none" stroke="#808080" stroke-width="0.5" stroke-linecap="round"/><path d="M227.82939,178.93153l0.53521,-0.14671" fill="none" stroke="#808080" stroke-width="0.5" stroke-linecap="round"/></g><g data-paper-data="{&quot;index&quot;:null}"><g><path d="M229.64123,183.08939c0.65166,-0.23578 3.33719,0.00317 3.87721,0.83709c0.14732,0.22747 -0.07224,2.55766 -1.15006,4.63095c-1.33966,2.57696 -2.99711,3.55553 -3.30012,3.22237c-1.2309,-1.13565 -0.95175,-5.39589 -0.80942,-6.18861c0.14231,-0.7927 0.73073,-2.26602 1.38239,-2.5018z" fill="#09a400" stroke="none" stroke-width="0" stroke-linecap="butt"/><path d="M228.14793,187.32891c0,0 -0.00965,-0.33207 0.00371,-0.5439c0.01336,-0.21185 0.09503,-1.02197 0.09503,-1.02197c0,0 1.64028,-0.10663 2.64923,0.12422c1.00895,0.23085 2.13802,0.97114 2.13802,0.97114c0,0 -0.26547,0.87706 -0.49711,1.35959c-0.23164,0.4825 -0.47323,0.82533 -0.47323,0.82533c0,0 -1.0617,-0.87194 -1.8144,-1.1961c-0.75271,-0.32417 -2.10124,-0.51828 -2.10124,-0.51828z" fill="#a8c8d8" stroke="none" stroke-width="0" stroke-linecap="butt"/><path d="M233.15557,184.49016c0,0 -0.80986,2.476 -1.59028,3.93834c-0.78041,1.46235 -2.30093,3.31104 -2.30093,3.31104" fill="none" stroke="#000000" stroke-width="0.25" stroke-linecap="round"/><path d="M232.80636,184.6367l0.39365,0.22278" fill="none" stroke="#808080" stroke-width="0.5" stroke-linecap="round"/><path d="M232.76625,186.11209l-0.51928,-0.28167" fill="none" stroke="#808080" stroke-width="0.5" stroke-linecap="round"/><path d="M230.74546,189.03447l0.41034,0.26892" fill="none" stroke="#808080" stroke-width="0.5" stroke-linecap="round"/><path d="M229.77481,190.5335l0.45645,0.25222" fill="none" stroke="#808080" stroke-width="0.5" stroke-linecap="round"/><path d="M231.64918,187.37179l0.6195,0.34232" fill="none" stroke="#808080" stroke-width="0.5" stroke-linecap="round"/></g><path d="M235.99052,183.16047c0,0 0.88555,-0.30233 1.39098,-0.47487c0.50544,-0.17255 1.3416,-0.45994 1.3416,-0.45994l1.30155,0.76818c0,0 -0.91866,0.41431 -1.54279,0.55571c-0.62415,0.14141 -2.16792,0.3559 -2.16792,0.3559z" fill="#3ad3cf" stroke="none" stroke-width="0" stroke-linecap="butt"/><path d="M236.31473,183.50815c0.12044,0.54334 -0.37553,0.59638 -1.42228,0.78252c-0.56047,0.09966 -1.86006,0.3671 -1.92573,-0.23251c-0.06151,-0.56152 0.97141,-0.72733 1.52717,-0.85054c0.55577,-0.12322 1.72948,-0.11156 1.82083,0.30051z" fill="#ffffff" stroke="none" stroke-width="0" stroke-linecap="butt"/></g><g data-paper-data="{&quot;index&quot;:null}"><path d="M245.38997,183.77634c0,0 -1.17567,0.00817 -1.90533,0.10994c-0.86894,0.12118 -1.81078,0.87964 -1.81078,0.87964l-0.19043,-1.53855c0,0 1.21782,-0.08431 2.2455,-0.25215c0.87597,-0.14308 3.10955,-0.03943 3.10955,-0.03943l-1.44853,0.84053z" fill="#3ad3cf" stroke="none" stroke-width="0" stroke-linecap="butt"/><g data-paper-data="{&quot;index&quot;:null}"><path d="M248.57855,182.34695c2.54733,0.08346 3.78974,2.60351 3.513,3.02116c-0.75009,1.16208 -1.92696,1.30877 -3.77528,1.38272c-2.23872,0.08958 -3.71352,-2.23131 -3.2082,-3.20173c0.16546,-0.31771 1.6265,-1.26253 3.47045,-1.20212z" fill="#a8c8d8" stroke="none" stroke-width="0" stroke-linecap="butt"/><path d="M245.84897,184.6549l0.6422,-0.81608" fill="none" stroke="#808080" stroke-width="0.5" stroke-linecap="round"/><path d="M247.19498,185.5338l0.47649,-0.6657" fill="none" stroke="#808080" stroke-width="0.5" stroke-linecap="round"/><path d="M248.46335,186.07469l0.38331,-0.69782" fill="none" stroke="#808080" stroke-width="0.5" stroke-linecap="round"/><path d="M249.97005,186.28277l0.21759,-0.54746" fill="none" stroke="#808080" stroke-width="0.5" stroke-linecap="round"/><path d="M251.18086,186.09037c0,0 -2.42013,-0.0659 -3.47155,-0.62894c-1.05144,-0.56305 -2.37268,-1.91679 -2.37268,-1.91679" fill="none" stroke="#020202" stroke-width="0.25" stroke-linecap="round"/></g></g><g data-paper-data="{&quot;index&quot;:null}"><path d="M239.1964,182.23012c1.53946,-0.12377 2.02964,0.05722 3.09657,0.77442c1.59014,1.06892 1.94482,3.05965 -0.07922,4.63442c-2.05147,1.59612 -6.47138,0.88009 -6.63329,-0.89801c-0.15054,-1.65334 0.2819,-4.24281 3.61594,-4.51084z" fill="#3ad3cf" stroke="none" stroke-width="0" stroke-linecap="butt"/><path d="M238.92562,183.6578c3.34482,0.454 3.35883,2.20979 3.36116,2.98201c0.00396,1.31279 -1.02903,2.78015 -3.17241,2.9024c-1.60394,0.09147 -3.61985,-1.52089 -3.50029,-2.77999c0.17721,-1.8664 2.15703,-3.26114 3.31154,-3.10443z" fill="#ffffff" stroke="none" stroke-width="0" stroke-linecap="butt"/><path d="M241.53642,184.2997l-0.38303,0.4153" fill="none" stroke="#808080" stroke-width="0.5" stroke-linecap="round"/><path d="M239.63869,183.51018l-0.0477,0.46838" fill="none" stroke="#808080" stroke-width="0.5" stroke-linecap="round"/><path d="M237.8774,184.44761l-0.23454,-0.85679" fill="none" stroke="#808080" stroke-width="0.5" stroke-linecap="round"/><path d="M236.32107,185.51004l-0.2903,-0.58799" fill="none" stroke="#808080" stroke-width="0.5" stroke-linecap="round"/></g><g data-paper-data="{&quot;index&quot;:null}"><g><path d="M229.94778,180.99006c0.68993,-0.06525 3.23028,0.83792 3.54451,1.78042c0.08573,0.2571 -0.70981,2.45825 -2.27201,4.19599c-1.94173,2.15987 -3.79128,2.69268 -4.00132,2.29432c-0.90766,-1.40748 0.42844,-5.4624 0.76452,-6.19433c0.33608,-0.73189 1.27438,-2.01115 1.96429,-2.07641z" fill="#09a400" stroke="none" stroke-width="0" stroke-linecap="butt"/><path d="M227.44138,184.72118c0,0 0.07373,-0.32391 0.13965,-0.52568c0.06593,-0.20178 0.34768,-0.96572 0.34768,-0.96572c0,0 1.6148,0.3071 2.53392,0.78303c0.91909,0.47593 1.82711,1.47514 1.82711,1.47514c0,0 -0.47644,0.78277 -0.82144,1.19198c-0.34496,0.40922 -0.66465,0.6807 -0.66465,0.6807c0,0 -0.80982,-1.10982 -1.45747,-1.61197c-0.64766,-0.50216 -1.90475,-1.02749 -1.90475,-1.02749z" fill="#ffffff" stroke="none" stroke-width="0" stroke-linecap="butt"/><path d="M232.99995,183.22546c0,0 -1.40353,2.19467 -2.52496,3.41529c-1.12143,1.22061 -3.05608,2.63013 -3.05608,2.63013" fill="none" stroke="#000000" stroke-width="0.25" stroke-linecap="round"/><path d="M232.95054,183.59417l-0.32539,-0.31416" fill="none" stroke="#808080" stroke-width="0.5" stroke-linecap="round"/><path d="M231.78497,184.29578l0.43229,0.40262" fill="none" stroke="#808080" stroke-width="0.5" stroke-linecap="round"/><path d="M229.52962,187.02233l0.33002,0.36302" fill="none" stroke="#808080" stroke-width="0.5" stroke-linecap="round"/><path d="M228.59366,188.58926l-0.37885,-0.35839" fill="none" stroke="#808080" stroke-width="0.5" stroke-linecap="round"/><path d="M231.33472,186.12499l-0.51416,-0.48639" fill="none" stroke="#808080" stroke-width="0.5" stroke-linecap="round"/></g><path d="M236.07738,182.64728c0,0 0.93302,-0.07117 1.46555,-0.1118c0.53253,-0.04062 1.414,-0.10969 1.414,-0.10969l0.43739,0.40452c0,0 -0.36249,0.83617 -1.00217,0.81693c-0.63966,-0.01922 -2.18802,-0.19776 -2.18802,-0.19776z" fill="#3ad3cf" stroke="none" stroke-width="0" stroke-linecap="butt"/><path d="M236.30434,183.06496c-0.0193,0.5562 -0.51278,0.48345 -1.57281,0.40181c-0.56757,-0.04372 -1.89275,-0.10993 -1.80633,-0.70687c0.08092,-0.55906 1.12248,-0.46117 1.6914,-0.44142c0.56891,0.01974 1.70239,0.32466 1.68774,0.74648z" fill="#ffffff" stroke="none" stroke-width="0" stroke-linecap="butt"/></g><g data-paper-data="{&quot;index&quot;:null}"><path d="M238.94577,183.85913c0.86336,-0.53802 1.91585,-1.02595 1.91585,-1.02595l0.13773,0.72984c0,0 -0.54961,0.43593 -1.25673,0.88047c-0.76165,0.47883 -2.83349,1.77753 -2.83349,1.77753l-0.09038,-0.85343c0,0 1.26367,-0.97046 2.12703,-1.50848z" fill="#3ad3cf" stroke="none" stroke-width="0" stroke-linecap="butt"/><g><path d="M236.41065,188.09853c-1.56222,1.84317 -4.24871,1.22314 -4.41021,0.76149c-0.46108,-1.26975 0.11689,-2.23475 1.14603,-3.65454c1.24652,-1.71967 3.91499,-1.39452 4.37119,-0.4242c0.14935,0.31769 0.02385,1.98301 -1.10702,3.31725z" fill="#ffffff" stroke="none" stroke-width="0" stroke-linecap="butt"/><path d="M236.22379,184.65473l0.25593,0.97755" fill="none" stroke="#808080" stroke-width="0.5" stroke-linecap="round"/><path d="M234.98692,185.87944l-0.23662,-0.7622" fill="none" stroke="#808080" stroke-width="0.5" stroke-linecap="round"/><path d="M233.90116,186.44163l-0.31634,-0.71257" fill="none" stroke="#808080" stroke-width="0.5" stroke-linecap="round"/><path d="M232.53762,186.722l0.29705,0.49722" fill="none" stroke="#808080" stroke-width="0.5" stroke-linecap="round"/><path d="M232.25739,187.35119c0,0 1.19161,-1.3702 2.24674,-1.80713c1.05513,-0.43694 2.88262,-0.59008 2.88262,-0.59008" fill="none" stroke="#020202" stroke-width="0.25" stroke-linecap="round"/></g></g><path d="M245.8921,178.08406c4.39801,-0.04125 7.43878,3.53377 7.40595,6.00742c-0.03197,2.40983 -0.48983,3.09088 -1.59798,4.24654c-2.85388,2.97625 -9.79907,0.51322 -9.86051,-1.89186c-0.07233,-2.8314 1.14772,-8.33487 4.05255,-8.3621z" data-paper-data="{&quot;index&quot;:null}" fill="#3ad3cf" stroke="none" stroke-width="0" stroke-linecap="butt"/><path d="M245.45542,178.69959c0.65378,0.00589 1.53143,3.39282 0.14299,6.15868c-0.58999,1.17529 -2.75466,2.65487 -3.14556,2.37386c-1.23647,-0.91073 -1.34275,-2.27037 -1.35232,-3.58541c-0.01761,-2.42046 2.45256,-4.96428 4.35489,-4.94714z" data-paper-data="{&quot;index&quot;:null}" fill="#ffffff" stroke="none" stroke-width="0" stroke-linecap="butt"/><path d="M255.9609,181.47734c0.10324,0.39409 -0.48801,1.40944 -1.03373,1.93201c-0.54572,0.52256 -1.83637,0.81633 -1.83637,0.81633c0,0 -0.44347,-1.42683 -0.87671,-2.29891c-0.43325,-0.87208 -1.39944,-1.85276 -1.55708,-2.10466c-0.2232,-0.35666 4.61801,-0.96275 5.3039,1.65523z" data-paper-data="{&quot;index&quot;:null}" fill="#ffffff" stroke="none" stroke-width="0" stroke-linecap="butt"/><path d="M250.69887,191.84756c-0.64648,0.57247 -1.91872,0.19982 -2.84866,-0.54017c-1.0264,-0.81675 -1.76912,-1.95057 -1.76912,-1.95057c0,0 1.53567,0.00499 2.82906,-0.02805c1.29338,-0.03303 2.54249,-0.86081 2.54249,-0.86081c0,0 0.85477,1.9552 -0.75376,3.3796z" data-paper-data="{&quot;index&quot;:null}" fill="#ffffff" stroke="none" stroke-width="0" stroke-linecap="butt"/><g data-paper-data="{&quot;index&quot;:null}" stroke="none" stroke-width="0" stroke-linecap="butt"><path d="M246.17152,185.89306c0.97445,-0.16924 1.90305,0.41451 2.0741,1.30382c0.17106,0.88932 -0.48023,1.74742 -1.45468,1.91665c-0.97444,0.16924 -1.90304,-0.4145 -2.07409,-1.30381c-0.17104,-0.8893 0.48024,-1.74743 1.45469,-1.91666z" fill="#ffffff"/><path d="M247.90038,187.787c-0.09009,0.43953 -1.01916,1.24218 -1.73973,1.07028c-0.72057,-0.1719 -1.21131,-1.29826 -1.12121,-1.73781c0.09008,-0.43953 0.88097,-1.19521 1.63462,-1.01542c0.75366,0.17979 1.3164,1.24339 1.22631,1.68294z" fill="#000000"/></g><g data-paper-data="{&quot;index&quot;:null}" stroke="none" stroke-width="0" stroke-linecap="butt"><path d="M250.46351,182.9794c-0.25964,0.79017 -1.33945,1.14506 -2.41181,0.79268c-1.07236,-0.35238 -1.7312,-1.27858 -1.47154,-2.06875c0.25965,-0.79016 1.33945,-1.14506 2.41181,-0.79268c1.07236,0.35238 1.7312,1.27858 1.47154,2.06875z" fill="#ffffff"/><path d="M248.19065,183.43239c-0.78217,-0.25313 -1.51133,-0.906 -1.33039,-1.67221c0.18095,-0.76621 1.07059,-0.83777 1.86261,-0.58146c0.79202,0.25631 1.42878,1.16221 1.3387,1.60175c-0.09009,0.43954 -1.08874,0.90505 -1.87092,0.65193z" fill="#000000"/></g><path d="M248.72003,183.46311c0,0 1.45424,-0.16549 2.01161,-0.00717c0.77251,0.21943 1.10965,1.03282 1.10965,1.03282l-1.47606,3.66335c0,0 -1.05282,0.03885 -1.57747,-0.16917c-0.42371,-0.168 -1.48614,-1.47723 -1.48614,-1.47723c0,0 0.82369,-0.20101 1.42086,-0.27605c0.59716,-0.07504 1.62825,-0.1071 1.62825,-0.1071l-1.63072,-2.65943z" data-paper-data="{&quot;index&quot;:null}" fill="#3ad3cf" stroke="none" stroke-width="0" stroke-linecap="butt"/><g data-paper-data="{&quot;index&quot;:null}" stroke="none" stroke-width="0" stroke-linecap="butt"><path d="M245.5545,183.98615c0.01434,0.56128 -0.46711,1.35552 -1.20567,1.19724c-0.34611,-0.07419 -0.39514,-0.50628 -0.14887,-1.25108c0.17626,-0.53307 0.44457,-1.11673 1.01105,-1.09589c0.35373,0.01302 0.32914,0.58845 0.34348,1.14973z" fill="#71716f"/><path d="M245.27565,182.89427c0.27417,-0.04042 0.49348,0.20644 0.5878,0.5092c0.09433,0.30276 0.01376,0.57562 -0.15105,0.89271c-0.16481,0.31709 -0.73715,0.81015 -0.73715,0.81015c0,0 -0.48945,-0.36954 -0.33679,-1.31785c0.10085,-0.62663 0.16033,-0.8239 0.63719,-0.89421z" fill="#010101"/><path d="M244.71938,184.3612c0.15863,-0.00406 0.2905,0.12126 0.29455,0.27988c0.00406,0.15863 -0.12125,0.29049 -0.27986,0.29454c-0.15863,0.00406 -0.29049,-0.12125 -0.29454,-0.27986c-0.00406,-0.15863 0.12126,-0.2905 0.27988,-0.29455z" fill="#ffffff"/></g><g data-paper-data="{&quot;index&quot;:null}"><path d="M251.0419,186.23888c0,0 0.68294,1.28219 0.82888,2.18096c0.14594,0.89877 -0.05159,2.60607 -0.05159,2.60607l-0.45243,0.25184c0,0 -0.08111,-1.75763 -0.33361,-2.84772c-0.25251,-1.0901 -0.80818,-2.08144 -0.80818,-2.08144z" fill="#717370" stroke="none" stroke-width="0" stroke-linecap="butt"/><path d="M251.21043,191.61822l0.61196,-1.29686l0.17377,1.45463l0.64036,1.67289l-0.81057,0.55621l-0.6435,-0.53593l-0.91202,0.77228l0.09728,-1.60497l-0.88008,-0.3796z" fill="#009300" stroke="none" stroke-width="0" stroke-linecap="butt"/><path d="M251.76136,190.48847c-0.25735,0.70465 -1.25891,3.3948 -1.25891,3.3948" fill="none" stroke="#000000" stroke-width="0.25" stroke-linecap="round"/><path d="M249.4755,192.27798l1.81655,-0.5513l1.44535,1.76263" fill="none" stroke="#000000" stroke-width="0.25" stroke-linecap="round"/></g></g></g></svg>