<svg version="1.1" xmlns="http://www.w3.org/2000/svg" xmlns:xlink="http://www.w3.org/1999/xlink" width="675.29351" height="603.84079" viewBox="0,0,675.29351,603.84079"><defs><radialGradient cx="240" cy="180.00001" r="301.92039" gradientUnits="userSpaceOnUse" id="color-1"><stop offset="0" stop-color="#000000" stop-opacity="0"/><stop offset="1" stop-color="#000000"/></radialGradient><linearGradient x1="247.50401" y1="214.50195" x2="247.50401" y2="219.47177" gradientUnits="userSpaceOnUse" id="color-2"><stop offset="0" stop-color="#2c4157" stop-opacity="0.74902"/><stop offset="1" stop-color="#2c4157" stop-opacity="0"/></linearGradient><radialGradient cx="244.84957" cy="193.06962" r="156.88445" gradientUnits="userSpaceOnUse" id="color-3"><stop offset="0" stop-color="#2c4056"/><stop offset="1" stop-color="#2c4056" stop-opacity="0"/></radialGradient><radialGradient cx="244.84957" cy="193.06962" r="156.88445" gradientUnits="userSpaceOnUse" id="color-4"><stop offset="0" stop-color="#000000"/><stop offset="1" stop-color="#001573"/></radialGradient><linearGradient x1="244.45969" y1="180.057" x2="244.45969" y2="213.1349" gradientUnits="userSpaceOnUse" id="color-5"><stop offset="0" stop-color="#001573" stop-opacity="0.75294"/><stop offset="1" stop-color="#2c4056"/></linearGradient><radialGradient cx="244.45969" cy="196.59595" r="156.88446" gradientUnits="userSpaceOnUse" id="color-6"><stop offset="0" stop-color="#000000"/><stop offset="1" stop-color="#001573"/></radialGradient><linearGradient x1="243.32064" y1="219.59606" x2="243.32064" y2="219.59993" gradientUnits="userSpaceOnUse" id="color-7"><stop offset="0" stop-color="#001573"/><stop offset="1" stop-color="#042a5b"/></linearGradient><linearGradient x1="90.31863" y1="184.99875" x2="90.31863" y2="195.05877" gradientUnits="userSpaceOnUse" id="color-8"><stop offset="0" stop-color="#001573"/><stop offset="1" stop-color="#042a5b"/></linearGradient><linearGradient x1="98.06107" y1="187.42418" x2="98.06107" y2="198.95345" gradientUnits="userSpaceOnUse" id="color-9"><stop offset="0" stop-color="#001573"/><stop offset="1" stop-color="#042a5b"/></linearGradient><linearGradient x1="106.69966" y1="183.36708" x2="106.69966" y2="198.23614" gradientUnits="userSpaceOnUse" id="color-10"><stop offset="0" stop-color="#001573"/><stop offset="1" stop-color="#042a5b"/></linearGradient><linearGradient x1="112.68177" y1="175.57282" x2="112.68177" y2="202.29948" gradientUnits="userSpaceOnUse" id="color-11"><stop offset="0" stop-color="#001573"/><stop offset="1" stop-color="#042a5b"/></linearGradient><linearGradient x1="124.15581" y1="177.18931" x2="124.15581" y2="203.91599" gradientUnits="userSpaceOnUse" id="color-12"><stop offset="0" stop-color="#001573"/><stop offset="1" stop-color="#042a5b"/></linearGradient><linearGradient x1="130.32731" y1="172.78292" x2="130.32731" y2="199.5096" gradientUnits="userSpaceOnUse" id="color-13"><stop offset="0" stop-color="#001573"/><stop offset="1" stop-color="#042a5b"/></linearGradient><linearGradient x1="138.58194" y1="176.4698" x2="138.58194" y2="203.19647" gradientUnits="userSpaceOnUse" id="color-14"><stop offset="0" stop-color="#001573"/><stop offset="1" stop-color="#042a5b"/></linearGradient><linearGradient x1="152.8966" y1="174.88667" x2="152.8966" y2="201.61334" gradientUnits="userSpaceOnUse" id="color-15"><stop offset="0" stop-color="#001573"/><stop offset="1" stop-color="#042a5b"/></linearGradient><linearGradient x1="157.74246" y1="170.29204" x2="157.74246" y2="211.51135" gradientUnits="userSpaceOnUse" id="color-16"><stop offset="0" stop-color="#001573"/><stop offset="1" stop-color="#042a5b"/></linearGradient><linearGradient x1="167.13335" y1="163.81526" x2="167.13335" y2="190.54196" gradientUnits="userSpaceOnUse" id="color-17"><stop offset="0" stop-color="#001573"/><stop offset="1" stop-color="#042a5b"/></linearGradient><linearGradient x1="174.06236" y1="167.31394" x2="174.06236" y2="200.43998" gradientUnits="userSpaceOnUse" id="color-18"><stop offset="0" stop-color="#001573"/><stop offset="1" stop-color="#042a5b"/></linearGradient><linearGradient x1="195.85739" y1="161.96646" x2="195.85739" y2="202.62113" gradientUnits="userSpaceOnUse" id="color-19"><stop offset="0" stop-color="#001573"/><stop offset="1" stop-color="#042a5b"/></linearGradient><linearGradient x1="206.38454" y1="169.41769" x2="206.38454" y2="211.76631" gradientUnits="userSpaceOnUse" id="color-20"><stop offset="0" stop-color="#001573"/><stop offset="1" stop-color="#042a5b"/></linearGradient><linearGradient x1="215.77543" y1="167.08165" x2="215.77543" y2="209.43026" gradientUnits="userSpaceOnUse" id="color-21"><stop offset="0" stop-color="#001573"/><stop offset="1" stop-color="#042a5b"/></linearGradient><linearGradient x1="222.89381" y1="158.72272" x2="222.89381" y2="201.07134" gradientUnits="userSpaceOnUse" id="color-22"><stop offset="0" stop-color="#001573"/><stop offset="1" stop-color="#042a5b"/></linearGradient><linearGradient x1="226.7928" y1="162.22141" x2="226.7928" y2="204.57003" gradientUnits="userSpaceOnUse" id="color-23"><stop offset="0" stop-color="#001573"/><stop offset="1" stop-color="#042a5b"/></linearGradient><linearGradient x1="244.32686" y1="164.779" x2="244.32686" y2="207.12762" gradientUnits="userSpaceOnUse" id="color-24"><stop offset="0" stop-color="#001573"/><stop offset="1" stop-color="#042a5b"/></linearGradient><linearGradient x1="250.49835" y1="157.9258" x2="250.49835" y2="200.27441" gradientUnits="userSpaceOnUse" id="color-25"><stop offset="0" stop-color="#001573"/><stop offset="1" stop-color="#042a5b"/></linearGradient><linearGradient x1="255.42213" y1="159.05508" x2="255.42213" y2="201.40369" gradientUnits="userSpaceOnUse" id="color-26"><stop offset="0" stop-color="#001573"/><stop offset="1" stop-color="#042a5b"/></linearGradient><linearGradient x1="274.84993" y1="159.73053" x2="274.84993" y2="202.07913" gradientUnits="userSpaceOnUse" id="color-27"><stop offset="0" stop-color="#001573"/><stop offset="1" stop-color="#042a5b"/></linearGradient><linearGradient x1="279.31707" y1="157.77094" x2="279.31707" y2="200.11956" gradientUnits="userSpaceOnUse" id="color-28"><stop offset="0" stop-color="#001573"/><stop offset="1" stop-color="#042a5b"/></linearGradient><linearGradient x1="285.48857" y1="161.26961" x2="285.48857" y2="203.61824" gradientUnits="userSpaceOnUse" id="color-29"><stop offset="0" stop-color="#001573"/><stop offset="1" stop-color="#042a5b"/></linearGradient><linearGradient x1="291.66006" y1="157.05145" x2="291.66006" y2="199.40005" gradientUnits="userSpaceOnUse" id="color-30"><stop offset="0" stop-color="#001573"/><stop offset="1" stop-color="#042a5b"/></linearGradient><linearGradient x1="297.26343" y1="153.3979" x2="297.26343" y2="195.74654" gradientUnits="userSpaceOnUse" id="color-31"><stop offset="0" stop-color="#001573"/><stop offset="1" stop-color="#042a5b"/></linearGradient><linearGradient x1="305.3287" y1="161.97841" x2="305.3287" y2="204.32705" gradientUnits="userSpaceOnUse" id="color-32"><stop offset="0" stop-color="#001573"/><stop offset="1" stop-color="#042a5b"/></linearGradient><linearGradient x1="316.61336" y1="156.44273" x2="316.61336" y2="198.79133" gradientUnits="userSpaceOnUse" id="color-33"><stop offset="0" stop-color="#001573"/><stop offset="1" stop-color="#042a5b"/></linearGradient><linearGradient x1="323.35298" y1="170.29328" x2="323.35298" y2="212.64189" gradientUnits="userSpaceOnUse" id="color-34"><stop offset="0" stop-color="#001573"/><stop offset="1" stop-color="#042a5b"/></linearGradient><linearGradient x1="331.79699" y1="152.89997" x2="331.79699" y2="195.24861" gradientUnits="userSpaceOnUse" id="color-35"><stop offset="0" stop-color="#001573"/><stop offset="1" stop-color="#042a5b"/></linearGradient><linearGradient x1="352.36107" y1="161.10407" x2="352.36107" y2="203.45268" gradientUnits="userSpaceOnUse" id="color-36"><stop offset="0" stop-color="#001573"/><stop offset="1" stop-color="#042a5b"/></linearGradient><linearGradient x1="357.96444" y1="155.75658" x2="357.96444" y2="198.10519" gradientUnits="userSpaceOnUse" id="color-37"><stop offset="0" stop-color="#001573"/><stop offset="1" stop-color="#042a5b"/></linearGradient><linearGradient x1="365.65095" y1="161.32563" x2="365.65095" y2="203.67427" gradientUnits="userSpaceOnUse" id="color-38"><stop offset="0" stop-color="#001573"/><stop offset="1" stop-color="#042a5b"/></linearGradient><linearGradient x1="387.73003" y1="178.56408" x2="387.73003" y2="198.70322" gradientUnits="userSpaceOnUse" id="color-39"><stop offset="0" stop-color="#001573"/><stop offset="1" stop-color="#042a5b"/></linearGradient><linearGradient x1="393.71215" y1="186.95638" x2="393.71215" y2="199.10042" gradientUnits="userSpaceOnUse" id="color-40"><stop offset="0" stop-color="#001573"/><stop offset="1" stop-color="#042a5b"/></linearGradient><linearGradient x1="401.00568" y1="192.29535" x2="401.00568" y2="194.3824" gradientUnits="userSpaceOnUse" id="color-41"><stop offset="0" stop-color="#001573"/><stop offset="1" stop-color="#042a5b"/></linearGradient><linearGradient x1="248.68762" y1="205.79786" x2="248.68762" y2="216.23448" gradientUnits="userSpaceOnUse" id="color-42"><stop offset="0" stop-color="#152130"/><stop offset="1" stop-color="#152130" stop-opacity="0"/></linearGradient><radialGradient cx="249.28195" cy="210.12845" r="114.24039" gradientUnits="userSpaceOnUse" id="color-43"><stop offset="0" stop-color="#23375c" stop-opacity="0"/><stop offset="1" stop-color="#23375c"/></radialGradient><radialGradient cx="249.28195" cy="210.12845" r="114.24039" gradientUnits="userSpaceOnUse" id="color-44"><stop offset="0" stop-color="#23375c" stop-opacity="0"/><stop offset="1" stop-color="#23375c"/></radialGradient><linearGradient x1="249.28195" y1="205.18769" x2="249.28195" y2="215.06922" gradientUnits="userSpaceOnUse" id="color-45"><stop offset="0" stop-color="#23375c" stop-opacity="0"/><stop offset="1" stop-color="#23375c"/></linearGradient><linearGradient x1="249.28195" y1="205.18769" x2="249.28195" y2="215.06922" gradientUnits="userSpaceOnUse" id="color-46"><stop offset="0" stop-color="#23375c" stop-opacity="0"/><stop offset="1" stop-color="#23375c"/></linearGradient><linearGradient x1="248.68761" y1="205.46655" x2="248.68761" y2="216.23449" gradientUnits="userSpaceOnUse" id="color-47"><stop offset="0" stop-color="#152130" stop-opacity="0"/><stop offset="1" stop-color="#152130"/></linearGradient><radialGradient cx="240" cy="180" r="301.92039" gradientUnits="userSpaceOnUse" id="color-48"><stop offset="0" stop-color="#000000" stop-opacity="0"/><stop offset="1" stop-color="#000000"/></radialGradient></defs><g transform="translate(133.37312,121.92039)"><g data-paper-data="{&quot;isPaintingLayer&quot;:true}" fill-rule="nonzero" stroke-linecap="butt" stroke-linejoin="miter" stroke-miterlimit="10" stroke-dasharray="" stroke-dashoffset="0" style="mix-blend-mode: normal"><path d="M-1.79555,362v-362.05443h485.15294v362.05444z" fill="#020811" stroke="none" stroke-width="0"/><g stroke="none" stroke-width="1"><g fill="#020811"><path d="M409.95073,296.10671c0,-5.27884 0.8335,-11.39118 1.667,-13.94725l1.667,-4.44533h5.00101h5.00101l1.94483,8.05717l1.667,8.33501l-3.05618,5.55667l-3.05617,5.83451h-5.27884h-5.55667v-9.44634z"/><path d="M202.74248,250.7088l2.22267,-18.94824l-0.55567,-33.95126l-0.83349,-34.2291h4.1675h4.1675l4.44533,9.1685l4.44533,8.89067l-1.667,29.22809c-1.11134,16.16991 -3.05617,35.89609 -4.44533,44.00883l-2.77834,14.50291h-5.83451h-5.8345z"/><path d="M185.79464,242.37381c-1.11134,-8.89067 -3.05617,-20.89308 -4.44533,-26.72759l-2.77834,-10.27984l1.667,-2.77834c0.8335,-1.667 3.334,-2.77834 5.55666,-2.77834h3.88967l1.667,10.55767c0.8335,5.55667 2.77834,14.22508 4.1675,18.67041l2.77834,8.33501l-1.94483,10.55768l-1.667,10.27984h-3.61184h-3.61184l-1.667,-15.89208z"/><path d="M233.69314,243.48512l-7.5015,-3.05617l1.667,-8.89067l1.667,-9.1685l-3.334,-9.72416l-3.05617,-9.72417l3.61184,-5.55667l3.61184,-5.8345h3.334h3.334l1.94483,10.55767l1.94484,10.27985l2.5005,-8.89067l2.5005,-9.16851h2.5005h2.77834v-15.33641v-15.33641h-2.22267h-2.5005l-2.5005,-13.11374l-2.77834,-13.39157l-2.22267,18.94824l-2.22266,19.22608l-5.83451,-1.667c-3.334,-0.8335 -7.77933,-1.667 -9.44634,-1.667h-3.61184v-6.94584v-6.94584h-5.00101h-5.001l-3.334,-3.334l-3.334,-3.334v-8.61284l0.27783,-8.33501l3.61184,-5.001l3.61183,-4.72317h3.88967h3.88967l6.39018,9.16851l6.11233,8.89067l-1.667,-22.28225l-1.94483,-22.28225l-2.77834,-1.667l-2.5005,-1.667l0.8335,-15.05858l0.55566,-15.05858l-1.94483,-13.11374l-2.22267,-13.11375l5.001,-6.94584l5.27884,-6.94584l3.61184,-0.27783h3.334v2.77834v2.77834h5.55667h5.55666l-0.8335,26.44975l-0.55566,26.72759l3.05617,1.94483l3.05617,1.94483l1.667,34.2291l1.667,33.95126l4.44533,4.44533l4.16749,4.44533l-0.27783,12.83591c-0.27783,7.22367 0.55567,21.72659 1.667,32.28426l2.22267,19.22608l-5.27884,-1.38916l-5.55667,-1.38917l-3.334,3.61184l-3.334,3.61184v7.22367v6.94584l-3.334,-0.27783c-1.94483,-0.27783 -6.94584,-1.667 -11.39117,-3.334z"/><path d="M202.74248,104.51279c-0.8335,-3.61184 -1.667,-14.78075 -1.667,-25.06059v-18.94824h3.88967h3.88967l1.667,6.39017c0.8335,3.334 1.667,14.50292 1.667,25.06059v18.67041h-3.88967h-3.88967z"/><path d="M206.68772,19.32883v-7.77934l3.61184,-7.5015l3.334,-7.5015h4.72317h4.72317l1.667,12.28024l1.94483,12.55808l-1.94483,2.77834l-1.667,3.05617h-8.33501h-8.05717v-7.77934z"/></g><g fill="#051e34"><path d="M30.09672,356.56343c-0.8335,-2.77834 -2.77834,-13.66941 -4.72317,-23.94925l-3.05618,-18.94824l1.38917,-5.27884l1.38916,-5.27884l-3.334,-1.38917l-3.05617,-1.11134l4.1675,-3.05617l3.88967,-2.77834l-3.334,-10.55768c-2.22267,-5.83451 -4.72317,-13.11374 -6.11233,-16.16991c-8.89067,-20.05958 -11.66902,-25.89409 -15.33641,-32.00643l-4.1675,-6.94584l0.27783,-15.33641l0.27783,-15.33641l2.77834,9.72417c1.38917,5.27884 3.88967,10.83551 5.27884,12.28024c1.38917,1.667 2.5005,5.001 2.5005,7.77933v5.00101h2.77834h2.77834v4.72317v4.44533l1.94483,-1.94483c1.11134,-0.8335 3.334,-6.11233 5.001,-11.11334l3.334,-9.44634l-5.27884,-5.27884l-5.001,-5.27884l-5.55667,-14.50291l-5.55667,-14.50292h3.61184c1.94483,0 6.11233,1.94483 9.44634,4.1675l5.8345,4.1675l1.11134,-13.39157l1.11134,-13.11374l-3.61184,-6.94584c-1.94483,-3.88967 -3.61184,-8.33501 -3.61184,-9.72417c0,-1.667 -2.77834,-7.22367 -6.39018,-12.55808l-6.39018,-9.72417l-0.55566,-9.72417l-0.8335,-9.72417l-2.5005,-2.5005l-2.77834,-2.77834v-23.39358v-23.11575l5.00101,0.8335l4.72317,0.8335l0.8335,6.11233l0.8335,6.39017l6.94584,-6.94584c8.05717,-8.05717 11.11334,-8.61285 13.11375,-3.05617l1.667,4.1675l-2.5005,8.33501c-1.11134,4.72317 -2.22267,14.22508 -2.22267,21.17092v12.55808l3.61184,3.88967l3.61184,3.61184l1.94483,12.83591l1.94483,12.83591l-4.44533,4.44533l-4.44533,4.44533v5.00101v5.001l5.001,4.44533l5.27884,4.72317h4.44533h4.72317l0.27783,5.00101c0.27783,2.5005 0.27783,5.8345 0,7.22367c-0.27783,1.11134 0.8335,3.88967 2.5005,5.8345l2.77834,3.61184l-0.8335,21.17092l-0.8335,21.17092h3.05618h3.334l3.05618,6.94584c1.94483,3.88967 3.334,8.33501 3.334,9.72417v2.77834h-6.11234h-6.39017l3.05617,2.22267l3.05618,1.94483l2.22267,16.44774c1.11134,9.1685 2.5005,18.11474 3.334,20.33741l1.38917,3.61184h-4.44533h-4.44533l-0.27783,3.61184c-0.27783,1.667 0,5.00101 0.27783,7.22368l0.55567,3.88967l-3.334,1.94483l-3.61184,2.22267l5.00101,12.83591l5.001,12.8359h3.334h3.334l2.77834,12.55808l2.77834,12.55808h-11.94684h-11.66901l-1.94484,-8.33501l-1.94483,-8.33501l-3.88967,3.88967l-3.88967,4.1675v4.16749v4.44533h-2.5005h-2.77834z"/><path d="M92.49814,356.56343c0,-2.77834 -3.334,-15.05858 -6.94584,-27.00542l-7.22367,-22.00441l1.38917,-3.05617l1.11134,-3.05618l0.27783,3.61184l0.27783,3.61184l2.5005,-1.38917l2.5005,-1.667l6.94584,27.83892l6.94584,27.83891h-3.88967h-3.88967z"/><path d="M189.40648,349.6176c-0.27783,-6.66801 -0.27783,-16.44775 0,-21.72658c0.27783,-5.27884 0,-12.55808 -0.8335,-15.89208l-1.38917,-6.39018h-3.88967h-3.88967l-1.667,-4.44533c-0.8335,-2.5005 -1.667,-11.66902 -1.667,-20.89308v-16.44774h4.1675h4.16749v-5.8345v-5.83451l4.1675,1.667l4.44533,1.667l1.38916,-4.1675l1.667,-4.1675h3.88967h3.88967v9.72417v9.72417h2.77834h2.77834l1.667,-11.39117l1.94483,-11.39117l3.61184,-1.38917l3.88967,-1.38917v-5.001v-5.27884l-2.77834,-1.667l-2.77834,-1.667v-7.77934v-7.5015l3.05617,-3.05618l3.05617,-3.05617l-1.667,-12.28025c-0.8335,-6.39018 -1.94483,-15.61425 -2.22266,-20.33741l-0.8335,-8.33501h-4.1675h-4.1675l0.8335,29.22809l0.8335,28.95026l-1.667,9.1685l-1.667,9.1685h-1.94484c-2.22267,0 -8.89067,-19.78175 -8.89067,-26.17192v-3.88967l3.05618,-1.11134l3.05617,-1.11134l-3.334,-11.94684l-3.334,-12.28025l2.77834,-1.667l2.5005,-1.667l1.38916,-10.00201l1.11134,-10.00201l-3.61184,-3.334l-3.61184,-3.334v-6.66801c0,-3.61184 0.8335,-8.33501 1.667,-10.83551l1.667,-4.44533h3.61184h3.334l-1.38916,6.94584l-1.11134,6.94584l3.334,4.1675c1.94483,2.22267 4.44533,4.1675 5.83451,4.1675h2.5005v-5.55667v-5.55667h2.77834h2.77834v12.8359v12.83591l3.88967,-3.05617l3.88967,-3.334l1.667,4.44533l1.667,4.44533l2.5005,-1.38917l2.5005,-1.667l1.94483,6.39017l1.94483,6.11233l1.38917,-4.72317l1.11134,-5.001h3.88967h3.61183l1.667,4.44533c0.8335,2.5005 1.667,8.61284 1.667,13.94725v9.72417l-2.5005,-1.667l-2.77834,-1.38917l-1.667,5.55667l-1.667,5.55667h-3.05617h-2.77834l1.11134,-9.72417l1.11134,-9.72417h-1.94483c-1.11134,0 -4.44533,3.33401 -7.5015,7.77934l-5.55667,7.5015l2.77834,6.94584l2.5005,6.94584l-0.8335,10.00201l-0.8335,10.00201l7.5015,3.05617l7.77933,2.77834v-6.94584v-6.94584l3.88967,1.38917l4.1675,1.667l1.667,-5.55667l1.667,-5.27884l2.77834,1.38917l2.5005,1.667v-5.55667v-5.83451h2.77834h2.77834l0.27783,6.39018c0,3.334 1.94483,12.55808 3.61184,20.05958l3.61184,13.94725l-0.27783,-19.50392l-0.27783,-19.22608l-4.72317,-5.001c-2.77834,-2.77834 -6.39017,-5.001 -8.05717,-5.001h-3.05617l2.22267,-10.27985l2.22267,-10.55767l-0.55567,-13.66941l-0.55567,-13.94725l3.05617,-1.94483l3.334,-1.94483l-1.94483,-10.00202l-1.94483,-10.00201h-2.22267h-2.22267l-1.94483,-13.11375c-1.11134,-7.5015 -2.77834,-19.50392 -3.61184,-27.28326l-1.94483,-13.94725l-1.38916,6.11234l-1.667,6.11233l-4.16749,-2.5005l-4.1675,-2.5005l0.55566,-26.72759l0.27783,-26.44976h-2.5005h-2.5005v6.66801v6.66801l-4.1675,1.667l-4.1675,1.38916l1.94483,-11.66902l1.667,-11.66901l-7.22367,8.33501l-7.5015,8.33501l-2.77834,-4.1675l-2.77834,-4.1675l0.27783,18.11475l0.27783,18.11475l1.94483,-8.05717l1.667,-8.05717l3.05617,-1.11134l3.05617,-1.11134l1.667,5.83451l1.38917,5.83451l-1.38917,15.33641l-1.667,15.05858h-2.22267h-2.5005v4.44533v4.1675l5.55667,-1.667l5.55667,-1.667l0.55566,12.55808c0.27783,6.94584 0.55567,15.05858 0.55567,17.55909l0.27783,5.001l-4.72317,0.8335l-5.00101,0.8335l-0.27783,-7.77934v-7.77934l-1.94483,4.1675l-1.94483,4.1675l-6.11234,0.55567l-6.39017,0.8335v-4.44533v-4.1675l-5.55667,1.667l-5.55667,1.667l-3.61184,-3.61184c-2.22267,-1.94483 -5.27884,-6.66801 -7.22367,-10.00201l-3.61184,-6.66801l1.667,-3.88967l1.38917,-3.88967h8.89067h8.61284l-1.94483,-10.27985c-1.11134,-5.83451 -1.94483,-16.44774 -1.94483,-23.67141l-0.27783,-13.39158h-2.22267h-2.5005v6.94584v6.94584h-5.27884h-5.27884l-1.667,-6.66801c-0.8335,-3.61184 -2.77834,-15.61425 -4.44533,-26.72759c-1.667,-11.11334 -3.61184,-23.11576 -4.44533,-26.72759l-1.667,-6.66801h6.94584h7.22367l1.667,13.39158c2.5005,17.00341 4.1675,22.83792 6.66801,22.83792h1.94483l3.88967,-18.11475l3.88967,-18.11475h7.77933h7.77934v5.27884v5.55667l-2.77834,1.667l-2.77834,1.667v6.94584v6.66801h5.001h5.27884l5.55667,-6.11233l5.55667,-6.39017l1.94483,-7.5015l1.667,-7.77934h16.44774h16.44775l1.667,11.94684l1.38917,11.66902l-2.22267,18.11475l-2.22267,18.11475l1.38917,4.72317l1.11134,5.001l-4.1675,1.667l-4.1675,1.667l5.27884,5.27884c3.05617,3.05618 6.668,8.61285 8.05717,12.55808l2.77834,6.94584v15.89208l0.27783,15.89209l4.1675,-11.11334c2.22267,-6.11233 5.001,-13.39157 5.83451,-16.16991l1.38916,-4.72317h3.88967h3.88967v2.5005v2.5005l5.55667,-1.38917l5.55667,-1.38917v-10.83551v-10.83551l-5.27884,-5.27884l-5.27884,-5.27884l-1.94483,6.94584l-1.667,6.94584l-3.88967,-1.667l-3.88967,-1.38916l-1.38917,3.334l-1.667,3.334l1.38917,-10.27985l1.667,-10.00201l-3.05618,-1.94483l-3.05617,-1.94483l1.94483,-10.00202c0.8335,-5.55667 2.77834,-11.39117 4.1675,-13.11375l2.5005,-2.5005l0.27783,10.83551l0.27783,11.11334l1.38917,-3.334l1.38916,-3.61184h3.88967h3.88967v7.22367v6.94584l2.77834,-1.667l2.5005,-1.667l1.94483,-9.72417l1.667,-9.72417l4.72317,-3.05617l4.44533,-2.77834l-1.11134,-12.55808l-0.8335,-12.83591l3.05617,1.94483l3.05618,1.94483v-6.94584v-7.22367h2.5005h2.5005l0.27783,10.27984c0,9.44634 2.22267,48.732 3.61184,67.68025c0,3.88967 -0.55566,9.44634 -1.94483,12.28024l-2.22267,5.27884l2.77834,-1.667l3.05617,-1.94483l-0.55566,10.55767c-0.55567,5.55667 -0.8335,14.50292 -1.11134,19.78175l-0.55566,9.16851l-6.94584,-4.44533l-6.94584,-4.44533l-0.55566,1.94483c0,1.38917 -0.55567,3.61184 -0.8335,5.00101c-0.55567,1.667 -0.8335,6.39018 -1.11134,10.55768l-0.27783,7.77933l-2.77834,-1.667l-2.77834,-1.667v5.27884c0,3.05618 -0.55567,9.72417 -1.38917,14.78074l-1.38917,9.44634l1.667,-3.61183l1.667,-3.334l2.22267,1.38917l2.22267,1.38916l3.334,-10.27984c1.94483,-5.8345 4.44533,-11.66902 5.83451,-13.11375l2.5005,-2.77834v7.22367v7.5015l-2.5005,1.667c-1.38917,0.8335 -3.334,5.27884 -4.44533,9.72417l-1.94483,8.33501l-5.001,2.77834l-5.001,2.77834l-3.61184,-14.78074c-2.22267,-7.77933 -3.88967,-15.89208 -3.88967,-17.83691c0,-1.667 -1.11134,-4.1675 -2.22267,-5.27884c-1.11134,-1.11134 -1.94483,-4.1675 -1.94483,-6.66801v-5.00101l-4.72317,-3.61184l-4.72317,-3.88967l2.22267,5.55667c1.38917,3.05618 3.05617,11.39117 3.61184,18.39258l1.38916,12.8359l-3.05617,1.94483l-3.05617,1.94483v-4.44533v-4.44533l-2.5005,1.667l-2.77834,1.38916l2.5005,8.61284l2.5005,8.61284l-1.667,12.28025l-1.667,12.28025h3.05617h3.05617l-0.8335,42.34183l-0.8335,42.34183l-3.05617,1.11134l-3.334,1.11134v6.66801v6.94584l-4.1675,1.38917l-4.1675,1.667v3.88967v3.88967h2.77834h2.77834l0.27783,9.16851l0.27783,8.89067l2.77834,-9.72417c1.38917,-5.27884 3.88967,-10.83551 5.27884,-12.28025l2.5005,-2.77834v-6.66801v-6.66801l4.1675,1.667l3.88967,1.38917l3.05617,-11.11334l3.05617,-11.11334l-1.38916,-3.33401l-1.11134,-3.334l-0.27783,6.39017l-0.27783,6.11233h-3.05617h-3.334l1.667,-24.50491l1.38917,-24.50492l3.61184,-7.5015l3.334,-7.5015l-4.44533,-5.001l-4.72317,-5.27884v-8.33501v-8.61284l3.61184,-3.05618l3.61184,-3.05618l3.05617,3.05618l3.05617,3.05618l1.667,-3.05618c1.11134,-1.667 3.88967,-3.05618 6.11234,-3.05618h4.1675l-0.55566,6.39018c-0.27783,3.334 -0.27783,10.00201 0,14.50291l0.55566,8.33501l5.27884,-6.39017l5.27884,-6.39018l0.8335,10.55767c0.55567,5.8345 0.55567,18.94824 0,29.50592l-1.11134,18.67042h-2.5005h-2.5005l-0.27783,-8.89067l-0.27783,-9.1685l-2.22266,6.94584l-2.22267,6.94584l-0.27783,-4.1675c-0.27783,-2.22267 -1.11134,-7.22367 -2.22267,-10.83551l-1.667,-6.66801l3.05617,1.94483l3.334,1.94483v-8.89067v-9.1685l-4.1675,5.55667l-3.88967,5.27884l-0.27783,-4.1675l-0.27783,-4.1675l-2.77834,6.66801l-2.77834,6.66801l4.1675,12.83591l4.1675,12.8359l0.55566,19.50392l0.55567,19.50392l-1.94483,8.61284l-1.94483,8.89067l-4.72317,-0.55566l-4.72317,-0.27783l-0.8335,20.89308l-0.8335,20.61525l-3.05617,3.61184l-2.77834,3.61184h-9.44634h-9.1685l-0.8335,-13.11374l-0.8335,-13.39157l-3.334,6.94584c-3.88967,9.1685 -11.66902,15.89208 -20.89308,18.11475l-7.77933,1.94483v-4.44533v-4.44533l6.94584,-1.667l6.94584,-1.667v-2.22267c0,-1.38917 -0.8335,-4.1675 -1.667,-6.66801l-1.667,-4.44533h-4.44533h-4.1675l1.667,-25.61625l1.667,-25.89408l3.05617,-0.8335l2.77834,-1.11134v-3.88967v-3.88967h-4.1675h-4.1675v-10.27984v-10.55768l-6.39017,-3.05617l-6.66801,-3.05617l-3.05617,12.28025c-1.94483,6.66801 -3.334,15.33641 -3.334,19.22608v7.22367l-5.55667,1.38917l-5.55667,1.38917v13.39157c0,7.5015 -0.8335,15.33641 -1.667,17.83691l-1.667,4.44533h-3.88967h-3.88967v4.1675v4.1675h2.22267c1.11134,0 3.334,3.334 5.001,7.77934l2.5005,7.5015l-0.8335,6.39017l-0.8335,6.11233h-5.55666h-5.27884v-3.334v-3.334l-3.334,3.334c-1.94483,1.94483 -4.44533,3.334 -5.55667,3.334h-2.22267l-0.55566,-11.66901zM206.96555,68.89437l-2.77834,-6.94584v16.72558c-0.27783,9.1685 0.8335,19.78175 1.94483,23.67142l1.94483,6.94584l0.8335,-16.72558l0.8335,-17.00341z"/><path d="M370.94292,359.34176c0,-4.1675 5.8345,-38.45216 7.22367,-42.8975l1.38917,-4.72317l5.27884,-1.38917l5.55667,-1.38917v-5.8345v-5.83451h5.55667h5.55667v-6.11233l0.27783,-6.39018l3.61184,-4.72317c1.94483,-2.77834 5.001,-5.00101 6.66801,-5.00101h2.77834l6.39018,-13.11374l6.66801,-13.39157l1.38917,-23.39358l1.38916,-23.39358l3.61184,-1.38916l3.334,-1.11134v5.27884v5.001l4.44533,-8.33501l4.1675,-8.05717l-1.94483,-14.78074l-1.667,-14.78074l3.05617,-3.88967l3.05618,-3.61184l6.66801,1.11134l6.66801,1.38917l-0.8335,11.66901c-0.55566,6.11233 -1.667,20.33741 -2.77834,30.89509l-1.38917,19.50391l3.05617,-4.1675l2.77834,-4.1675l-1.94483,12.55808c-0.8335,6.94584 -2.77834,14.78074 -4.1675,17.28125c-1.38917,2.5005 -2.5005,7.77934 -2.5005,11.66902v7.22367l-3.334,-0.55566l-3.61183,-0.8335l-1.667,-6.94584l-1.38917,-6.94584l-4.44533,15.33641l-4.44533,15.33641l-0.27783,16.72558l-0.55566,16.72558l-2.77834,9.1685l-3.05617,9.16851l1.667,4.1675l1.667,4.1675l-5.00101,-0.8335l-4.72317,-0.8335l-0.8335,-8.89067l-0.8335,-8.61284l-5.55667,-1.38917l-5.55667,-1.38917l-1.11134,3.05617c-0.55567,1.94483 -1.667,5.83451 -3.05617,8.89067l-1.94483,5.55667l-1.667,-8.33501l-1.94483,-8.33501l-3.334,9.44634c-1.94483,5.27884 -3.334,13.11374 -3.334,17.55908v8.05717l2.77834,-1.667l2.77834,-1.667l-1.38917,-2.77834l-1.667,-2.5005h2.77834h3.05617l0.27783,5.00101v4.72317l2.5005,-6.11233l2.5005,-6.39018h8.89067h8.61284l-1.38916,5.55667l-1.38917,5.55666l4.1675,-0.55566l4.1675,-0.8335l2.22266,5.8345l2.22267,5.83451l-31.7286,0.55566l-31.72859,0.27783v-1.94484zM420.78625,297.77361l2.77834,-5.27884l-1.667,-5.8345c-2.77834,-11.39118 -9.16851,-4.72317 -9.16851,9.44634v6.66801h2.77834c1.38917,0 3.88967,-2.22267 5.27884,-5.00101z"/><path d="M442.23499,358.78609c-0.8335,-1.11134 -1.38916,-8.33501 -1.11134,-15.89208l0.27783,-13.66941l6.11233,-8.33501c8.33501,-11.11334 15.89208,-26.17191 17.83691,-35.61826l1.667,-7.77934h2.77834c1.667,-0.27783 5.00101,-1.38916 7.77934,-2.77834l4.72317,-2.77834v40.397v40.11916l-1.667,4.44533l-1.667,4.44533h-17.55909h-17.83691l-1.38917,-2.5005z"/><path d="M339.21432,340.11567c-2.5005,-6.66801 -1.94483,-22.28225 1.11134,-30.33943l2.77834,-7.22368l2.77834,1.667l2.77834,1.667v-4.1675v-4.44533h4.1675h4.1675v-11.39117v-11.11334l2.77834,1.667l2.77834,1.667v12.83591v12.55808l-4.1675,-1.667l-4.1675,-1.38916l-0.27783,3.334c0,1.94483 -0.55566,5.55667 -1.11134,8.33501l-0.8335,5.27884l-5.27884,3.61184l-5.001,3.61184l5.001,5.55666l5.001,5.55667l-4.44533,4.44533c-5.55667,5.55667 -5.8345,5.55667 -8.05717,0z"/><path d="M139.56313,324.27899l-3.334,-7.5015l-4.44533,-0.27783c-2.5005,-0.27783 -5.27884,-0.27783 -6.39018,0c-1.38917,0 -2.22267,-1.11133 -2.22267,-2.5005c0,-1.38917 -0.8335,-2.5005 -1.94483,-2.5005c-1.38917,0.27783 -3.88967,0.27783 -5.55667,0l-3.61184,-0.27783v-12.55808v-12.55808h4.1675h4.1675v-2.5005c0,-1.667 -1.11134,-3.61184 -2.77834,-4.44533l-2.77834,-1.667v3.05618v3.334l-3.334,-1.11134l-3.05617,-1.11134l-1.11134,-6.11233c-0.27783,-3.61183 -2.77834,-9.1685 -5.00101,-12.55808l-3.88967,-6.11233l0.27783,-20.89308l0.55567,-20.89308l-3.61184,-15.05857l-3.88967,-14.78074l2.22267,-17.28125c1.11134,-9.1685 2.22267,-20.05958 2.77834,-23.94925l0.55566,-6.94584l-2.77834,-1.94483l-2.77834,-1.667l4.44533,-4.44533c2.22267,-2.5005 5.00101,-4.44533 5.55667,-4.44533c1.94483,0 4.44533,19.22608 6.39018,47.8985l1.667,24.22708l5.001,-4.72317c2.5005,-2.5005 5.55667,-6.94584 6.66801,-10.00201l1.667,-5.27884l-5.55667,-9.44634l-5.55667,-9.44634v-8.33501v-8.33501l2.77834,1.667l2.77834,1.667v-5.55667v-5.83451h4.44533h4.44533l-1.667,6.94584l-1.667,6.94584h2.77834h2.77834v4.1675v4.1675h2.77834h2.77834v7.77933v7.77934l-3.334,3.334l-3.334,3.334l5.55667,3.88967l5.27884,3.88967l0.27783,38.73l0.27783,38.45216l3.05618,12.55808c1.667,6.94584 3.334,17.28124 3.334,22.83792v10.27985l2.77834,1.667l2.77834,1.667v5.00101c0,2.5005 -1.667,7.22367 -3.88967,10.00201l-3.88967,5.55667zM127.00506,217.09095l-1.94483,-18.67041l-2.5005,6.66801l-2.22267,6.66801l1.667,10.00201l1.94483,10.00201l-6.11233,-5.27884c-6.66801,-6.11233 -7.22367,-5.83451 -9.72416,4.1675l-1.667,7.5015l4.1675,1.667l4.1675,1.38917l4.1675,-1.38917l4.1675,-1.667v3.61184l0.27783,3.88967l2.77834,-5.00101l2.77834,-5.001l-1.94483,-18.67041z"/><path d="M444.17983,290.54995l0.55566,-16.44774l4.72317,-0.8335l4.72317,-0.55566l-1.667,8.61285c-1.11134,5.001 -3.334,12.83591 -5.55667,17.28124l-3.61183,8.33501l0.8335,-16.44775z"/><path d="M83.0518,288.88294l-5.001,-14.22508l1.667,-1.667l1.667,-1.667l5.55667,12.28024c5.83451,13.11374 6.94584,19.22609 3.334,19.22609h-2.22266z"/><path d="M70.21588,188.6408v-3.05618l-2.22267,1.38917l-2.22267,1.38916l-7.5015,-16.44775c-3.88967,-9.1685 -8.05717,-21.17092 -9.1685,-27.00542c-0.8335,-5.83451 -3.334,-16.72558 -5.001,-24.50492c-1.94483,-7.5015 -3.334,-17.83691 -3.05618,-22.56008l0.55566,-8.61285l4.44533,-6.39017l4.44533,-6.39018l5.00101,5.00101l5.00101,5.27884l1.38917,-8.33501l1.667,-8.05717l1.94483,15.33641c1.11134,8.33501 1.94484,23.39358 1.94484,33.11776v17.55909l-5.27884,-1.38916l-5.27884,-1.38917l-1.667,6.11233l-1.38917,5.83451l2.5005,0.8335c1.667,0.55567 2.77834,2.77834 2.77834,4.72317v3.61183l6.94584,1.667l6.94584,1.667l1.667,6.94584c0.8335,3.61183 1.94483,10.83551 1.94483,15.61425l0.55566,8.89067l-3.334,1.11134l-3.61184,1.38917z"/><path d="M341.71482,169.69254l0.27783,-23.11575l3.88967,-2.5005l3.61184,-2.22267l3.61184,1.38917l3.33401,1.38917l-3.88967,9.44634l-3.88967,9.44634h2.5005h2.77834l1.11134,-4.72317l1.38917,-5.001l0.27783,10.55767l0.27783,10.27984l-6.66801,3.334l-6.94584,3.05617l-1.11134,5.83451c-0.55567,3.05618 -0.83349,-4.44533 -0.55566,-17.28125z"/><path d="M467.01776,183.63981l-1.38917,-3.61184l4.44533,-13.94725l4.72317,-13.94725l-1.94483,-1.667l-1.667,-1.667v3.05618v3.334h-4.16749h-4.1675l-0.27783,-21.44875l-0.27783,-21.72659l-2.5005,11.11334c-1.38917,6.11233 -3.88967,14.50292 -5.55667,18.94824l-3.05617,7.5015h-2.5005h-2.5005l-0.27783,-10.27985l-0.27783,-10.55767l-2.77834,8.33501l-2.77834,8.33501l-1.11134,19.22608c-1.11134,20.61524 -1.94483,22.83792 -6.39017,19.78175l-3.05618,-1.667l0.27783,-18.67041c0.27783,-10.27984 1.11134,-25.61625 2.22267,-33.95126l1.667,-15.33641l3.61184,0.8335l3.88967,0.8335l-1.94483,-6.11234l-1.94483,-5.83451l2.77834,-1.94483l3.05617,-1.94483l6.94584,-35.06259l7.22368,-35.06259v-10.55767c0,-6.11233 0.8335,-13.66941 1.667,-17.28125l1.667,-6.11234h11.11334h10.83551l-0.8335,13.39158l-0.83349,13.11375l-6.11234,2.77834l-6.39017,2.77834v2.77834c0,1.667 2.22267,5.001 5.27884,7.5015l5.00101,4.44533l1.94483,23.11576l1.94483,23.39358l-2.77834,8.89067l-2.5005,8.61284l1.667,1.667l1.38917,1.667h-3.05617h-3.334v7.77934v7.5015l2.5005,-3.61184l2.22267,-3.88967l1.94483,8.89067c0.8335,5.001 1.667,20.89308 1.667,35.06259v26.17191l-6.94584,-0.55566l-6.94584,-0.55567l-1.38916,-3.88967z"/><path d="M155.45522,173.30439l-4.72317,-11.94684l0.8335,-17.83691l0.8335,-17.55909l6.39017,0.27783l6.11234,0.27783v-7.22368v-6.94584l3.334,3.334l3.334,3.334l0.8335,20.89308l0.55567,21.17092l-2.5005,-1.667l-2.77834,-1.667l-0.55567,7.77933c0,4.1675 -0.27783,9.72417 0,12.55808l0.27783,4.44533l-3.61184,1.38916l-3.88967,1.667z"/><path d="M0.5908,156.07863l0.27783,-18.94824l3.61184,4.72317l3.61184,5.00101l2.22267,-2.22267l2.22267,-1.94483l-1.667,6.39018l-1.38917,6.11233h2.22267h2.22267l-3.05617,9.72417l-2.77834,9.72416h-3.88967h-3.61184v-18.67041z"/><path d="M382.11182,157.18997c0,-5.8345 10.83551,-36.50733 11.11334,-31.45076v2.5005l5.55667,-5.00101l5.55667,-5.00101v5.27884c0,6.39018 -7.77933,31.45076 -8.33501,27.56108c-0.27783,-1.38917 -1.38917,0.27783 -2.5005,3.88967l-1.667,6.66801l-5.001,0.8335l-4.72317,0.55566z"/><path d="M343.10398,139.63075c0,-0.8335 1.667,-7.22367 3.88967,-14.50291c2.22267,-7.22368 4.72317,-17.83692 5.83451,-23.39359l1.667,-10.55768h2.5005h2.5005l-0.55567,20.33741l-0.55566,20.05958l-5.55667,4.72317c-5.55667,5.001 -9.72417,6.39017 -9.72417,3.334z"/><path d="M65.21489,66.39397l-3.88967,-6.39018l1.667,-5.83451l1.38916,-5.55667l-3.61184,-8.61284l-3.61184,-8.61284l-1.94484,-17.28124l-1.94483,-17.55909h6.66801h6.39018l3.05617,20.33741l2.77834,20.05958l-1.667,18.11475l-1.667,18.11475l-3.61184,-6.66801z"/><path d="M138.72963,53.55812c-2.5005,-5.83451 -4.44533,-12.55808 -4.44533,-15.33641v-5.001l-4.1675,-3.334l-4.1675,-3.334v-15.05858v-15.05857h8.05717h8.05717l-0.8335,17.55908l-1.11134,17.28124l1.38917,-7.77933l1.38916,-7.77934l4.72317,0.8335l4.72317,0.8335l0.8335,11.11334l0.8335,11.11334l2.5005,0.8335l2.5005,0.8335l-3.334,6.11233c-1.94483,3.05617 -5.55667,8.33501 -8.05717,11.11334l-4.72317,5.27884l-4.1675,-10.27985z"/><path d="M11.20404,46.33443l-5.00101,-2.77834v-8.05717v-8.33501h-4.1675h-4.1675v-15.33641v-15.33641h2.77834h2.77834v4.1675c0,2.5005 3.88967,12.55808 8.33501,22.28225c4.72317,9.72417 8.33501,19.78175 8.33501,22.28225v4.1675h-1.94483c-1.38917,0 -4.44533,-1.38917 -6.94584,-3.05617z"/><path d="M110.05721,41.61116c-0.8335,-2.5005 -1.94483,-5.27884 -2.5005,-6.11233c-0.27783,-0.8335 0.27783,-3.334 1.667,-5.55667l2.22267,-3.88967l4.44533,3.61183l4.44533,3.61184v5.001v5.001l-4.1675,1.667l-4.44533,1.667z"/><path d="M36.82029,34.10968v-4.1675l-3.334,-0.27783c-1.94483,-0.27783 -4.44533,-0.27783 -5.55667,0l-2.22266,0.27783v-5.27884v-5.27884l6.94584,-4.44533l6.94584,-4.72317l2.5005,6.39017c1.11134,3.61184 3.05617,9.72417 4.1675,14.22508l1.667,7.5015h-5.55667h-5.55667v-4.1675z"/><path d="M86.10796,27.94184c-0.55566,-1.38917 -1.94483,-6.94584 -3.05617,-12.83591c-1.11134,-5.83451 -2.77834,-12.55808 -3.61184,-14.78074l-1.38916,-3.88967h7.5015h7.22367l-1.94483,3.05617l-1.667,3.05618l5.83451,8.05717l5.8345,8.05717l-3.334,5.55667l-3.61184,5.55667h-3.334c-1.667,0 -3.88967,-0.8335 -4.44533,-1.94483z"/><path d="M384.89015,10.43823v-8.33501h-2.77834c-1.38917,0 -2.77834,-1.11134 -2.77834,-2.77834v-2.77834h10.83551h10.55767l-5.27884,11.11334l-5.55667,11.11334h-2.5005h-2.5005z"/></g><g fill="#0d314c"><path d="M31.76372,344.56099l-0.8335,-16.72558h2.5005c3.61184,0 5.27884,4.72317 7.5015,20.61525l1.94484,12.83591h-5.001h-5.27884z"/><path d="M181.07147,353.78506c-1.11134,-10.00201 2.5005,-48.17633 4.72317,-50.39901l1.667,-1.667l2.5005,3.88967l2.5005,3.88967l-0.27783,23.11575v22.83792l1.94483,3.05617l1.667,2.77834h-6.94584h-6.94584z"/><path d="M438.34532,345.95018l5.83451,-15.33641l2.22266,1.667l2.22267,1.38917l-2.77834,7.22368l-2.77834,7.5015l1.667,6.39017l1.38917,6.39018h-6.66801h-6.66801l5.55666,-15.33641z"/><path d="M241.19465,355.45208l-1.667,-2.77834l1.94483,-18.94824l1.94483,-19.22608l-3.05617,-1.667l-2.77834,-1.94484l0.8335,-29.78375l0.8335,-29.78375l-3.05617,9.16851l-3.05617,9.1685l-2.22267,-1.94483l-1.94483,-1.94483l0.55567,20.05958l0.55566,20.33741l-5.27884,3.05617c-3.05617,1.667 -6.94584,3.33401 -8.89067,3.61184l-3.334,0.55566l-1.11134,-3.05617c-0.55567,-1.94483 -0.55567,-7.77934 0,-13.66941l1.38916,-10.00201l5.27884,-1.38917l5.27884,-1.38916v-7.5015c0,-4.1675 1.94483,-14.50291 4.44533,-22.83792l4.44533,-15.33641l4.1675,5.83451l3.88967,5.83451h4.1675h3.88967l0.27783,11.94684l0.27783,11.66901l2.22267,-9.72417l2.5005,-9.72417l-1.667,-6.11234l-1.38917,-6.39017l1.667,-4.1675l1.667,-4.1675l5.55667,3.334l5.83451,3.61184l-1.94483,13.94725l-1.667,13.94725l-2.5005,2.77834l-2.5005,2.5005v10.00201v9.72416l-2.5005,-3.61183l-2.22267,-3.61184l-1.94483,13.11374c-0.8335,7.22368 -1.667,18.11475 -1.38917,24.50492l0.27783,11.39117l3.05618,-13.39157l3.334,-13.39157l3.61184,3.334l3.334,3.61184v7.5015v7.77933l-2.5005,1.667l-2.77834,1.38917l1.667,9.1685l1.38917,8.89067l-8.61284,3.334l-8.61284,3.05617l-1.667,-2.5005z"/><path d="M419.11924,347.33936l1.38917,-5.8345l-5.27884,1.667l-5.27884,1.667l-1.667,-3.88967l-1.38916,-4.1675l2.77834,-11.11334l3.05618,-11.11334l4.72317,-1.667l4.44533,-1.94483l1.94483,3.334l2.22267,3.05618l-1.667,5.83451l-1.38917,5.55666l4.1675,3.05617l4.1675,3.05618l-1.38917,9.1685l-1.11134,8.89067h-5.55667h-5.55667z"/><path d="M267.64439,314.49925c-0.55567,-8.05717 -0.8335,-15.89208 -0.27783,-17.28125l1.11134,-2.77834l3.88967,3.88967c5.001,5.00101 5.001,9.72417 0,21.44875l-3.88967,9.1685l-0.8335,-14.50291z"/><path d="M379.33348,313.66572c0,-1.38917 1.38917,-2.5005 2.77834,-2.5005h2.77834v-11.39118c0,-6.11233 1.38917,-16.72558 3.05618,-23.67141l3.05617,-12.28025l8.05717,-5.8345l8.05717,-5.83451l-1.38917,22.00441c-0.8335,11.94684 -2.22267,23.94925 -3.05618,26.72759l-1.667,5.001l-4.1675,-3.61184l-4.44533,-3.61183l1.94484,7.77933l1.667,7.5015l-1.94483,-0.27783c-1.38917,-0.27783 -2.77834,0 -3.61184,0.27783c-0.8335,0.27783 -3.61183,0.8335 -6.11233,1.38917l-5.00101,0.8335z"/><path d="M201.90899,311.72088l-3.334,-1.94483l-1.38917,-20.89308c-0.8335,-11.39118 -2.22267,-25.89409 -3.05618,-32.00643l-1.38917,-11.11334l3.88967,-11.11334l3.88967,-11.11334l1.667,5.001c0.8335,2.5005 2.22266,6.66801 3.05617,9.1685l1.38917,4.44533l-1.667,6.94584l-1.94483,6.94584l-2.22267,-3.88967l-2.5005,-3.61184v8.05717v8.05717l4.44533,5.001l4.44533,5.00101l-0.27783,18.67041c0,20.33741 -0.27783,21.17092 -5.001,18.39258z"/><path d="M20.09472,296.38447c0,-2.22267 -3.88967,-15.33641 -8.61285,-29.50592l-8.33501,-25.61625l1.11134,-4.72317l1.11134,-4.72317l6.11233,13.94725c6.11233,13.66941 7.22367,16.44774 13.94725,32.83992c1.667,4.1675 3.05617,10.83551 3.05617,14.50291v6.94584h-4.1675h-4.1675v-3.61184z"/><path d="M183.8498,280.82582l-1.667,-12.28024l-2.77834,-1.667l-2.5005,-1.667l-1.94483,-12.28024l-1.94483,-11.94684l5.00101,-3.88967c6.94584,-5.27884 8.33501,-4.72317 10.00201,2.5005l1.38917,6.11233l-1.94483,23.67142l-1.667,23.67142l-1.94483,-12.28024z"/><path d="M296.87249,283.88195l-2.77834,-4.72317l1.11134,-13.11374l1.11134,-13.39157h2.22267h2.5005l1.667,11.94684l1.667,11.66902l-2.22267,6.11233l-2.22267,6.39017l-3.05617,-5.001z"/><path d="M276.86847,275.82483c-1.38917,-4.1675 -3.61184,-11.94684 -4.44533,-16.72558l-1.38917,-9.16851h3.61184h3.88967l1.94483,5.001c1.11134,2.5005 2.5005,8.33501 3.05617,12.83591l1.11134,7.77933l-2.22267,4.1675l-2.5005,4.1675z"/><path d="M412.72908,280.27012v-2.77834l-2.77834,1.667l-2.77834,1.667v-2.77834c0,-1.38917 3.05617,-19.78175 6.94584,-40.397c3.88967,-20.61525 6.94584,-41.50833 6.94584,-45.95367v-8.33501l5.001,-2.77834l5.27884,-2.77834l3.05617,3.05617l3.334,3.334v8.89067v9.16851l-2.5005,1.667l-2.77834,1.38916l0.27783,17.83691c0,19.78175 -1.11134,24.78276 -10.55767,45.67583c-6.66801,14.22508 -9.44634,17.55909 -9.44634,11.39118z"/><path d="M27.87406,266.04509l-1.11134,-3.334l9.44634,-5.27884l9.44634,-5.00101l1.38917,1.38916l1.38916,1.38917l-1.667,4.44533l-1.667,4.44533l-2.77834,-1.667l-2.77834,-1.667v3.334v3.334l-1.94483,-1.667l-1.667,-1.94483l-3.61184,3.05617l-3.334,2.77834z"/><path d="M436.40049,241.54028l1.38917,-17.83691l2.77834,-2.77834c1.667,-1.667 2.77834,-5.27884 2.77834,-8.33501v-5.83451l2.5005,3.88967l2.5005,3.88967l-2.5005,6.66801c-1.38917,3.88967 -2.5005,10.00201 -2.5005,14.22508l-0.27783,7.5015l-4.1675,8.33501l-3.88967,8.33501l1.38917,-18.11475z"/><path d="M118.94789,241.54028l-1.667,-5.55667l1.667,-5.27884l1.38917,-5.00101l-2.22267,-6.39017l-2.5005,-6.66801l3.05617,-7.77934l2.77834,-7.77934h3.33401h3.334l1.94483,19.22608l1.94483,19.22608l-1.94483,5.83451l-1.667,5.83451h-3.88967h-3.88967l-1.667,-5.55667z"/><path d="M297.70598,227.64861c-0.8335,-2.22267 -2.22267,-8.61284 -2.77834,-14.22508l-1.38917,-10.00201l2.5005,-3.88967l2.5005,-3.88967v3.88967c0,2.22267 1.667,6.11233 3.88967,8.33501l3.61184,4.44533l-3.334,9.72417l-3.61184,9.72417l-1.38917,-4.1675z"/><path d="M270.70058,214.81272v-6.94584l2.5005,1.38916l2.22267,1.667l2.77834,-17.28124l2.77834,-17.28125l-2.5005,-9.44634l-2.77834,-9.44634l2.77834,-2.77834l2.77834,-2.77834l-1.38917,-4.72317l-1.667,-4.44533l3.88967,3.61184l3.88967,3.61184l0.55567,27.83892l0.55567,27.83892l-2.77834,-1.667l-2.5005,-1.667l-0.27783,4.1675c-0.8335,9.44634 -3.88967,15.61425 -8.33501,15.61425h-2.5005v-7.22367z"/><path d="M237.30497,207.86689c-1.94483,-6.66801 -4.16749,-13.39157 -5.55667,-15.05857c-1.11134,-1.38917 -2.77834,-6.11234 -3.88967,-10.27985l-1.667,-7.77934h2.77834h2.77834v6.94584v6.66801l4.44533,-1.667l4.1675,-1.667l-2.77834,-2.77834l-3.05617,-3.05617v-11.94684v-11.94684h3.05617c1.667,0 5.27884,1.38917 8.33501,3.05618l5.83451,3.05617l-1.94484,-25.06059l-1.94483,-24.78276l3.05618,-5.8345l3.334,-6.11233h-3.05617h-2.77834v-10.00201v-9.72417l4.1675,-4.1675l3.88967,-4.1675l-1.667,-4.44533l-1.667,-4.44533l3.334,1.94483l3.334,2.22267l3.61184,-3.05617l3.88967,-3.05617l1.667,6.11234c0.8335,3.61184 1.667,10.55767 1.667,15.89208v9.1685l-3.88967,-3.334l-4.1675,-3.05617l1.38917,-3.88967l1.38916,-3.61184l-2.77834,-1.94483l-3.05617,-1.667l-0.27783,3.61184c0,1.94483 -0.55566,6.66801 -1.11134,10.55767l-0.8335,6.94584l3.61184,16.16991l3.61184,15.89208h-1.667c-1.11134,0 -0.27783,1.11134 1.667,2.5005l3.88967,2.22267l1.38916,11.66901l1.667,11.39118h-2.22267c-1.11134,0 -3.88967,-2.22267 -5.8345,-4.72317l-3.61184,-5.001l-0.27783,9.1685v9.1685l-2.77834,-1.667l-2.77834,-1.667l-0.27783,16.16991l-0.27783,16.16991l-3.05618,-9.72417l-2.77834,-9.72417l-2.5005,13.94725l-2.22267,13.94725l3.334,7.77933l3.05617,7.77934l-1.94483,1.667l-1.667,1.667v-3.88967v-3.88967l-2.5005,3.88967l-2.5005,3.88967l-3.334,-12.28024z"/><path d="M216.41189,201.14332c2.22267,-17.83692 3.05617,-20.05959 6.11233,-17.00341l1.94483,1.94483l-0.27783,11.39118l-0.55566,11.39117l-4.44533,4.44533l-4.72317,4.44533l1.94483,-16.72558z"/><path d="M171.84738,205.6442l-1.667,-8.33501l2.77834,-5.55667l3.05617,-5.27884l6.94584,0.8335l7.22367,0.55567l-1.38916,-3.88967c-0.8335,-2.22267 -1.667,-6.39018 -1.667,-9.16851v-5.27884l-3.88967,-3.88967l-3.88967,-3.88967l-0.55566,-28.95026c-0.27783,-15.89208 -0.55567,-36.17393 -0.27783,-44.84234l0.55567,-16.16991h-2.77834h-3.05617l-0.27783,-7.5015l-0.27783,-7.77933l-1.94483,8.33501l-1.667,8.33501l-1.667,-2.77834c-1.11134,-1.38917 -2.77834,-11.94685 -3.61184,-22.83792l-1.94484,-20.33741h2.77834c1.667,0 4.1675,2.5005 5.8345,5.27884l2.77834,5.55667v9.16851v9.1685l2.77834,-4.1675l2.77834,-4.1675l1.667,6.39017l1.667,6.11233h2.5005h2.5005v-5.55667v-5.55667h2.77834h2.77834v4.1675c0,2.22267 0.83349,4.1675 2.22266,4.1675h1.94483l0.55566,7.77934c0.55567,10.27984 8.33501,55.67785 10.55767,61.29009l1.667,4.1675l-5.8345,5.27884l-5.55667,5.27884v3.88967c0,1.94483 0.8335,5.55667 1.667,8.05717l1.667,4.44533l2.5005,-1.667l2.5005,-1.38917v3.05618v3.05617l2.77834,-1.667l3.05617,-1.94483l3.88967,3.334l4.1675,3.334v8.05717v8.05717h-2.77834h-2.77834l-2.77834,-6.94584l-2.77834,-6.94584h-2.77834h-2.77834v9.72416v9.72417h-3.334h-3.61184l2.77834,2.22267l2.77834,1.94484l0.55566,11.94684l0.27783,11.66901h-5.27884h-5.27884l-0.27783,-11.66901l-0.27783,-11.94684l-1.94483,8.33501l-1.667,8.33501h-2.77834h-2.77834l0.8335,3.61183l0.8335,3.334h-5.55667h-5.27884l-1.94483,-8.05717zM198.57498,117.90435l2.5005,1.38917v-3.61184c0,-1.94483 -0.8335,-6.39017 -1.667,-9.72417l-1.667,-6.11234l-6.66801,0.55567l-6.66801,0.55567v2.77834c0,1.667 0.8335,5.00101 1.667,7.77934l1.38917,4.72317l2.77834,-1.38917l2.5005,-1.667l0.27783,5.00101l0.27783,5.00101l1.38917,-3.61184l1.38916,-3.334z"/><path d="M106.66765,180.86145l0.55567,-19.22608l-1.94483,-3.334c-1.11134,-1.667 -2.77834,-10.27985 -3.61184,-18.94824l-1.667,-15.61425l3.05617,1.94483l3.334,1.94483v-4.44533v-4.44533l-2.77834,1.667l-2.5005,1.667l-1.667,-7.77933c-0.8335,-4.1675 -2.5005,-11.11334 -3.88967,-15.05858l-2.22267,-7.22367l-0.55566,-23.67142l-0.55567,-23.67142l4.44533,-1.94483l4.44533,-1.667l2.5005,7.22367l2.77834,7.22367l-0.27783,10.27985c-0.55567,16.72558 2.77834,51.2325 5.83451,61.56791c1.38917,5.27884 2.77834,13.66941 2.77834,18.67042v8.89067l5.83451,10.00201l5.83451,9.72416l-1.94483,7.77934l-1.94483,7.5015l-5.00101,5.00101c-3.05617,2.5005 -6.66801,4.72317 -8.33501,4.72317h-3.05618l0.55567,-18.94824z"/><path d="M8.37013,184.75113c-8.05717,-8.33501 -9.72417,-12.83591 -5.001,-12.83591h2.77834l-1.667,-8.89067l-1.38916,-9.1685l4.1675,5.55666c5.001,5.8345 10.83551,24.78276 9.44634,30.0616l-0.8335,3.334z"/><path d="M225.30257,150.74411l-1.94483,-11.39118l-4.1675,-3.61184l-4.1675,-3.334v-8.33501v-8.33501l3.61184,1.11134l3.334,1.38916l0.8335,7.22368l0.8335,7.22368l4.1675,-1.667l3.88967,-1.38917l-0.27783,5.001c0,3.05618 -0.83349,10.27985 -2.22266,16.44775l-1.94484,11.11334l-1.94483,-11.39117z"/><path d="M272.08973,128.18411c0.8335,-2.22267 1.38917,-8.61284 1.38917,-14.22508v-10.27985l2.77834,4.16749l2.77834,4.1675v-4.72317c0,-2.5005 2.22267,-8.33501 5.001,-13.11375l4.72317,-8.61284h4.44533h4.44533l-1.38916,-13.94725l-1.38917,-13.94725h5.00101h4.72317l-1.667,4.1675l-1.38917,4.1675l4.72317,2.5005l4.72317,2.5005l-0.8335,14.22508l-1.11134,14.22508h-3.61184h-3.61184l-1.667,3.61184l-1.38916,3.334l-3.61184,-4.44533l-3.88967,-4.72317l-4.44533,11.66902c-2.5005,6.11233 -5.27884,13.94725 -6.11233,17.28125l-1.667,5.83451h-4.44533h-4.1675l1.667,-3.88967z"/><path d="M149.00948,118.46002l-3.334,-3.88967l-1.94484,-19.22609l-1.94483,-19.50392l-3.334,-4.1675c-4.72317,-5.83451 -12.55808,-30.06159 -12.55808,-39.5635v-7.77934h2.5005c1.667,0 3.61184,1.667 5.001,3.61184l2.22267,3.334l1.38917,-15.33641l1.38917,-15.33641l-2.77834,-1.94483l-2.77834,-2.22267h5.001h4.72317v4.1675v4.1675h3.88967h3.88967l1.667,4.72317l1.94483,4.72317l-3.88967,3.05617l-4.16749,3.05618l-1.11134,6.66801l-0.8335,6.94584l-3.61184,-0.55567l-3.334,-0.8335v3.61184c0,1.667 2.77834,10.83551 6.39018,20.05958l6.11233,16.72558h4.1675h4.1675l5.27884,20.33741l5.27884,20.05958l-1.94483,2.22267l-2.22266,1.94483l-3.61184,-5.00101l-3.61184,-5.00101l-2.5005,7.5015l-2.5005,7.22368l-3.05617,-3.88967z"/><path d="M223.63557,109.56935l-0.27783,-5.00101l-4.1675,3.334l-4.1675,3.334l-0.27783,-2.22267c-0.27783,-1.38917 -0.27783,-9.72417 -0.27783,-18.67041l0.27783,-15.89208l-2.77834,1.38917l-2.5005,1.667l-0.27783,-10.55768c-0.55567,-15.61425 0.27783,-29.50592 2.22267,-35.34043l1.38917,-5.001l2.22267,2.22267c1.38917,1.38917 3.61184,7.5015 5.27884,13.39157l2.77834,11.11334l-2.5005,3.05617l-2.5005,3.05617l-0.55567,8.33501c0,4.44533 0.8335,11.94684 2.5005,16.44775l2.5005,8.33501l3.334,-0.55566l3.05617,-0.8335l-0.27783,5.00101c-0.27783,2.5005 -1.38917,7.77934 -2.5005,11.66902l-2.22266,6.94584l-0.27783,-5.27884z"/><path d="M38.20947,86.45361c-0.8335,-2.77834 -2.5005,-13.11375 -3.334,-23.11576l-1.38917,-18.11475l6.11233,-6.66801l6.39018,-6.39017l2.5005,4.44533l2.77834,4.72317l-1.667,3.88967l-1.38917,3.88967l2.22267,1.38917l2.22267,1.38917l0.27783,13.39157l0.27783,13.39157l-4.1675,6.39018c-4.72317,7.5015 -8.05717,7.77934 -10.83551,1.38917z"/><path d="M6.14747,63.33785v-5.27884l-4.44533,-2.5005l-4.1675,-2.22267l0.8335,-15.33641l0.8335,-15.05857h4.1675h4.1675l1.38917,9.1685l1.38916,9.1685l2.22267,-0.27783c3.05617,-0.27783 13.11374,12.55808 13.11374,16.72558v3.05617l-2.22267,-1.38917l-2.22267,-1.38917l-3.88967,5.55667l-3.88967,5.27884h-3.61184h-3.61184v-5.55667z"/><path d="M461.73891,58.61468c1.11134,-5.83451 2.77834,-12.55808 3.88967,-14.78074l1.94483,-4.1675l-1.11134,-3.334l-1.38917,-3.61184l3.334,-15.61425c3.334,-15.89208 5.00101,-17.55909 6.94584,-6.94584l1.11134,5.83451h-2.77834h-2.5005v4.1675v3.88967l4.44533,-1.667l4.44533,-1.667l-1.94483,9.44634c-1.11134,5.27884 -3.334,11.11334 -5.001,13.11375l-2.77834,3.61184l-0.27783,10.27985l-0.27783,10.27984l-5.00101,0.8335l-5.00101,1.11134l1.94484,-10.83551z"/><path d="M62.99221,54.66944c-4.44533,-5.27884 -17.83691,-44.5645 -17.83691,-52.06601v-6.11233h5.55667h5.55667l0.27783,2.22267c0,1.11134 0.8335,4.44533 1.667,7.5015c0.8335,3.05618 1.38917,8.61285 1.38917,12.55808c-0.27783,3.88967 1.667,12.28024 3.88967,18.39258l4.44533,11.66901l-1.11134,4.72317l-0.8335,5.00101l-3.05618,-3.88967z"/><path d="M284.64781,30.99801v-26.44976l2.5005,1.667l2.77834,1.38917l0.8335,-6.11233l0.8335,-6.39017l4.72317,9.72417l4.72317,9.72417l1.667,-5.001l1.94483,-4.72317h5.27884h5.55667l1.11134,3.61184c0.55567,1.667 1.667,9.44634 2.77834,17.00341l1.94483,13.39158l-2.77834,-1.667l-2.77834,-1.667l-3.334,4.44533l-3.61184,4.1675l-1.94483,-3.05617l-1.94483,-3.334l-1.94483,7.5015l-1.94483,7.5015l-3.88967,-1.38917l-3.61184,-1.667l-1.667,4.1675c-0.8335,2.22267 -2.77834,3.88967 -4.44533,3.88967h-2.77834z"/><path d="M187.18381,36.05448c-2.22267,-1.11134 -4.44533,-3.05617 -4.44533,-4.72317c-0.27783,-1.38917 -1.38917,-10.00201 -2.5005,-18.67041l-1.667,-16.16991h12.28024h12.55808l-2.5005,10.55767c-1.667,5.55667 -3.334,15.05858 -4.44533,20.89308c-1.667,10.55767 -2.22267,11.11334 -9.1685,8.05717z"/><path d="M225.02474,22.10734c-0.8335,-1.38917 -2.22267,-7.77934 -3.334,-13.94725l-1.94484,-11.66901h9.1685h8.89067l-1.94483,9.1685c-1.11134,4.72317 -3.61184,11.11334 -5.55667,13.94725l-3.61184,5.00101z"/></g><g fill="#244b67"><path d="M177.12623,334.83665l-1.667,-12.55808l1.667,-9.72417l1.94484,-9.72417h4.44533h4.44533l-1.94483,10.55768c-0.8335,5.55667 -1.667,15.61425 -1.667,22.28225v11.66902h-2.5005h-2.77834l-1.94483,-12.55808z"/><path d="M238.69414,333.44749c-0.8335,-1.38917 -2.22267,-10.55767 -3.334,-20.05958l-1.38917,-17.55909l4.72317,-4.1675l4.72317,-3.88967l-0.8335,10.00202l-0.8335,10.27985l1.94483,1.94483l1.94483,1.94484v12.28025v11.94684h-2.5005c-1.667,0 -3.334,-1.11134 -4.44533,-2.77834z"/><path d="M401.61573,279.99227c0,-17.83691 15.05858,-87.18417 19.78175,-92.74084l2.5005,-2.5005v8.89067c0,8.61284 -12.55808,81.2941 -15.33641,89.129c-0.55566,1.667 -2.5005,3.334 -4.1675,3.334h-2.77834z"/><path d="M471.51865,280.82582l-3.88967,-2.5005l5.00101,-19.78175l4.72317,-19.78175l2.5005,-1.667l2.5005,-1.38917v17.55909l-0.27783,17.55908l-3.334,6.11233l-3.334,6.11234z"/><path d="M274.31241,253.2649l-3.334,-2.22267l-3.05617,-15.05858c-1.667,-8.33501 -4.1675,-18.11475 -5.55667,-21.72658l-2.77834,-6.11233l-1.38916,-36.17393l-1.667,-36.17393h4.44533h4.44533l-1.667,2.77834l-1.667,2.5005l5.001,7.5015l5.001,7.5015l-3.61184,1.38917l-3.334,1.11134v5.27884v5.27884h2.5005h2.5005l-2.5005,11.94684c-1.667,6.39018 -3.334,13.94725 -4.1675,16.72558l-1.38917,4.72317h4.1675h4.1675l2.77834,10.55767c1.667,5.55667 3.05617,13.11375 3.05617,16.72558c0,3.61184 1.11134,8.61284 2.5005,11.11334l2.22267,4.72317l-1.667,4.72317l-1.667,4.72317l-3.334,-1.94483z"/><path d="M421.34191,243.48512l-0.27783,-10.55767l3.61183,-8.89067l3.88967,-8.89067l-1.11134,-11.11334l-1.11134,-11.11334l2.77834,4.1675l3.05617,4.1675v9.72417v9.72416l-5.27884,16.72558l-5.27884,16.72558l-0.27783,-10.55767z"/><path d="M215.02273,236.26144v-14.78074l3.88967,3.05617l4.1675,3.334l1.11134,-6.39017l1.38917,-6.39017l-1.11134,13.66941l-1.11134,13.94725l-4.1675,4.1675l-4.1675,4.1675z"/><path d="M249.25181,237.09497l-3.334,-6.94584l4.72317,-5.55667c2.5005,-2.77834 5.55667,-5.27884 6.66801,-5.27884h2.22266v5.001c-0.27783,2.5005 -1.667,8.05717 -3.61183,12.55808l-3.334,7.5015l-3.334,-7.22367z"/><path d="M172.12522,235.42797c-0.8335,-3.61184 -1.667,-13.66941 -1.667,-22.56008v-16.16991l3.88967,3.61184l3.61184,3.61184l-1.38916,3.88967l-1.38917,3.88967l4.44533,-1.667l4.44533,-1.667l1.94483,12.55808l1.667,12.28024l-3.334,4.1675c-1.94483,2.22267 -5.00101,4.1675 -6.94584,4.1675h-3.61184z"/><path d="M193.29614,234.03881c-1.38917,-2.77834 -3.61183,-12.55808 -5.001,-21.72659c-2.5005,-18.94824 -1.94483,-17.00341 -6.11233,-27.28326l-3.334,-7.77934l0.27783,-7.5015c0,-4.1675 1.11134,-9.72417 2.22267,-12.83591l1.94483,-5.001l3.61184,11.94684c1.94483,6.66801 4.72317,15.89208 6.11234,20.33741c1.38917,4.44533 2.5005,12.28025 2.5005,17.28125v9.44634h2.22267h2.22267l-1.11134,-9.44634l-1.11134,-9.44634l2.5005,-1.38917l2.5005,-1.667l0.55566,13.94725l0.55566,13.94725l-2.77834,-1.667l-2.77834,-1.667l1.667,12.55808l1.94483,12.83591h-3.05617h-3.05618l-2.5005,-4.72317z"/><path d="M107.00104,149.91074l0.55566,-19.78175h2.22267h2.22267v17.83691v18.11475l-2.77834,1.667l-2.77834,1.667z"/><path d="M240.36115,164.13575l-0.27783,-6.39017l-2.77834,1.667l-2.5005,1.667l1.38916,-9.1685c0.8335,-5.00101 2.22267,-16.44775 3.05617,-25.61625l1.667,-16.16991l1.94483,3.61184c1.11134,2.22267 2.77834,13.66941 3.88967,25.61625l1.667,21.44875h-2.5005h-2.77834l-1.11134,5.001l-1.38917,4.72317z"/><path d="M151.23215,124.57239c0.27783,-8.33501 -0.27783,-17.28125 -1.11134,-19.50392c-0.8335,-2.22267 -2.22267,-7.5015 -3.05617,-11.94684l-1.667,-7.5015l3.334,0.55566c1.94483,0.55567 5.27884,2.5005 7.22367,4.44533l3.61184,3.334l-0.8335,5.00101l-1.11134,4.72317l5.00101,5.55667l5.27884,5.27884l-0.8335,11.94684l-0.8335,11.94684h-2.22267c-1.11134,0 -3.334,-2.77834 -4.44533,-6.11233l-2.5005,-6.39017l-3.05618,6.94584l-3.05618,6.94584l0.27783,-15.33641z"/><path d="M436.12265,117.62652l-1.94483,-10.55768l3.334,-19.78175c1.94483,-10.83551 4.44533,-25.89409 6.11233,-33.11776l2.5005,-13.66941l5.55667,-6.94584c3.05617,-3.88967 5.55666,-8.89067 5.55666,-10.83551v-3.88967h2.77834h2.5005l-1.11134,7.5015c-0.55566,4.44533 -4.44533,23.39358 -8.33501,42.61966l-7.22367,34.78476l-2.5005,0.8335l-2.77834,1.11134l2.22267,4.44533l2.5005,4.72317l-3.61184,6.66801l-3.334,6.66801z"/><path d="M248.97399,96.73343l0.27783,-18.11475l1.11134,9.16851l1.11134,8.89067l2.77834,-1.38917l2.5005,-1.667v5.00101v5.27884l-4.1675,5.55667l-3.88967,5.27884l0.27783,-18.11475z"/><path d="M172.12522,83.3973l-4.44533,-16.16991l1.11134,-14.22508l1.38916,-14.22508l-3.88967,-5.001l-3.88967,-5.27884l-0.27783,-15.89208v-16.16991h3.88967h3.88967l1.94483,4.72317c3.05618,7.5015 5.27884,27.83891 5.27884,49.00984l-0.27783,18.67042h2.5005h2.22267v13.66941v13.94725l-2.5005,1.38916l-2.22267,1.667l-4.72317,-16.16991z"/><path d="M292.42716,89.23194l-5.001,-1.11134v-4.1675c0,-2.22267 4.1675,-16.16991 9.1685,-30.61725l8.89067,-26.72759l2.5005,8.61284l2.5005,8.61284l-2.77834,9.1685l-2.77834,8.89067l-3.05617,-0.55566l-3.334,-0.8335v8.33501v8.33501l3.05617,-0.55567l3.334,-0.8335l1.11134,3.61184l1.38917,3.334h-3.05617h-3.05617v4.1675v4.1675l-1.94483,-0.27783c-1.38917,-0.27783 -4.44533,-0.8335 -6.94584,-1.667z"/><path d="M189.40648,55.78077c-0.8335,-9.1685 2.5005,-34.22909 4.72317,-36.50733l1.38917,-1.38916v10.83551c0,5.83451 0.8335,15.61425 1.667,21.44875l1.94483,10.27984h-4.72317h-4.44533l-0.55566,-4.72317z"/><path d="M32.3194,48.27926c-2.22267,-5.55667 -0.27783,-18.67042 3.88967,-25.33842l3.05618,-5.55667l0.27783,7.77934c0,4.44533 1.11134,10.00201 2.22267,12.55808l2.5005,4.72317l-5.27884,5.00101l-5.001,4.72317z"/></g></g><text transform="translate(-133.12312,46.36642) scale(0.5,0.5)" font-size="40" xml:space="preserve" fill="#000000" fill-rule="nonzero" stroke="none" stroke-width="1" stroke-linecap="butt" stroke-linejoin="miter" stroke-miterlimit="10" stroke-dasharray="" stroke-dashoffset="0" font-family="Sans Serif" font-weight="normal" text-anchor="start" style="mix-blend-mode: normal"><tspan x="0" dy="0"> </tspan></text><path d="M-61.92039,180.00001c0,-166.74603 135.17436,-301.92039 301.92039,-301.92039c166.74603,0 301.92039,135.17436 301.92039,301.92039c0,166.74603 -135.17436,301.92039 -301.92039,301.92039c-166.74603,0 -301.92039,-135.17436 -301.92039,-301.92039z" fill="url(#color-1)" stroke="none" stroke-width="0"/><g stroke-width="0"><path d="M243.32064,219.59799z" fill="#2c4056" stroke="none"/><path d="M133.25398,219.47177l-7.22628,-4.96982h242.95259l-7.97382,4.96982z" fill="url(#color-2)" stroke="none"/><path d="M336.39973,160.68291l-7.30935,-11.59627l11.79464,-8.28303l12.36001,12.52184l20.57895,-13.06483l-9.51581,23.56983z" fill="#001573" stroke="none"/><path d="M279.29548,162.38095l5.482,-8.69719l-0.74755,8.44871z" fill="#001573" stroke="none"/><path d="M244.45154,162.5407v-21.01525l5.83799,13.77353l6.26514,-13.77353v21.01525z" fill="#001573" stroke="none"/><path d="M192.82929,159.64754l0.16612,-8.94568l21.76191,-9.35983l6.97709,22.11571z" fill="#001573" stroke="none"/><path d="M172.3133,160.80715l-1.16285,-5.88095l3.23935,5.79812z" fill="#001573" stroke="none"/><path d="M131.04874,144.81264l-12.68338,19.05928l-26.83691,-0.86972l32.31892,-23.13452c0,0 2.28974,1.15058 3.49941,1.97054c1.20968,0.81997 3.70193,2.97441 3.70193,2.97441z" fill="#001573" stroke="none"/><path d="M126.00145,214.55188l-39.84092,-24.22685l27.45854,-20.39115l271.14063,1.15393l17.64832,21.37098l-33.26015,22.0543z" fill="#2c4056" stroke="none"/><path d="M83.60445,189.21799c0,-5.00818 0,-29.32196 0,-29.32196c0,0 89.5872,0 136.30264,0c0.32987,0 1.74428,3.89303 1.74428,3.89303l1.49556,-3.8144l55.52565,-0.02925l0.87228,2.11159l1.32046,-2.11264l91.62431,-0.04834l13.45584,32.80084c0,0 -273.46587,0 -296.859,0c-0.85739,0 -5.482,-2.74779 -5.482,-3.47887z" fill="#001573" stroke="none"/><path d="M110.79589,204.99717l-22.83076,-14.57814l25.0155,-7.11958l279.68963,-2.15741l9.06378,10.97112l-16.34226,12.22139z" fill="url(#color-3)" stroke="url(#color-4)"/><path d="M123.50661,213.1349l-35.93137,-21.97714l25.0155,-8.10925l279.68963,-2.99149l9.83227,11.68697l-29.92428,20.47212z" fill="url(#color-5)" stroke="url(#color-6)"/><g><g><path d="M243.32064,219.59799z" fill="url(#color-7)" stroke="none"/><path d="M93.91678,195.05877l-7.19629,-3.48199c0,0 2.15926,-6.57801 4.35565,-6.57801c2.19638,0 2.84064,10.06 2.84064,10.06z" fill="url(#color-8)" stroke="#042a5b"/><path d="M100.31164,198.95345l-4.50109,-2.79339c0,0 -0.04003,-8.87088 2.15204,-8.7343c2.19207,0.13658 2.34904,11.52769 2.34904,11.52769z" fill="url(#color-9)" stroke="#042a5b"/><path d="M108.87747,190.80161c0,4.10598 -0.97504,7.43454 -2.17781,7.43454c-1.20278,0 -2.17783,-3.32856 -2.17783,-7.43454c0,-4.10598 4.35564,-4.10598 4.35564,0z" fill="url(#color-10)" stroke="none"/><path d="M114.8596,188.93613c0,7.38037 -0.97504,13.36334 -2.17782,13.36334c-1.20278,0 -2.17783,-5.98297 -2.17783,-13.36334c0,-7.38037 4.35565,-7.38037 4.35565,0z" fill="url(#color-11)" stroke="none"/><path d="M126.33363,190.55265c0,7.38037 -0.97504,13.36334 -2.17782,13.36334c-1.20278,0 -2.17783,-5.98297 -2.17783,-13.36334c0,-7.38037 4.35565,-7.38037 4.35565,0z" fill="url(#color-12)" stroke="none"/><path d="M132.50513,186.14626c0,7.38037 -0.97505,13.36334 -2.17783,13.36334c-1.20278,0 -2.17783,-5.98297 -2.17783,-13.36334c0,-7.38037 4.35566,-7.38037 4.35566,0z" fill="url(#color-13)" stroke="none"/><path d="M140.75976,189.83313c0,7.38037 -0.97504,13.36334 -2.17782,13.36334c-1.20278,0 -2.17782,-5.98297 -2.17782,-13.36334c0,-7.38037 4.35565,-7.38037 4.35565,0z" fill="url(#color-14)" stroke="none"/><path d="M155.07441,188.25001c0,7.38037 -0.97504,13.36334 -2.17781,13.36334c-1.20278,0 -2.17783,-5.98297 -2.17783,-13.36334c0,-7.38037 4.35564,-7.38037 4.35564,0z" fill="url(#color-15)" stroke="none"/><path d="M159.92029,190.90171c0,11.38241 -0.97504,20.60966 -2.17783,20.60966c-1.20279,0 -2.17782,-9.22726 -2.17782,-20.60966c0,-11.38241 4.35565,-11.3824 4.35565,0z" fill="url(#color-16)" stroke="none"/><path d="M170.44743,177.1786c0,7.38037 -1.48376,13.36334 -3.31408,13.36334c-1.83032,0 -3.31408,-5.98297 -3.31408,-13.36334c0,-7.38037 6.62816,-7.38037 6.62816,0z" fill="url(#color-17)" stroke="none"/><path d="M176.2402,183.87695c0,9.1475 -0.97504,16.56302 -2.17783,16.56302c-1.20279,0 -2.17782,-7.41551 -2.17782,-16.56302c0,-9.1475 4.35565,-9.1475 4.35565,0z" fill="url(#color-18)" stroke="none"/><path d="M198.50865,182.29382c0,11.22648 -1.187,20.32734 -2.65126,20.32734c-1.46425,0 -2.65127,-9.10085 -2.65127,-20.32734c0,-11.22648 5.30253,-11.22648 5.30253,0z" fill="url(#color-19)" stroke="none"/><path d="M209.0358,190.592c0,11.69425 -1.18701,21.17431 -2.65126,21.17431c-1.46426,0 -2.65126,-9.48006 -2.65126,-21.17431c0,-11.69425 5.30253,-11.69425 5.30253,0z" fill="url(#color-20)" stroke="none"/><path d="M218.4267,188.25596c0,11.69425 -1.187,21.1743 -2.65125,21.1743c-1.46426,0 -2.65126,-9.48005 -2.65126,-21.1743c0,-11.69425 5.30253,-11.69424 5.30253,0z" fill="url(#color-21)" stroke="none"/><path d="M225.54508,179.89703c0,11.69425 -1.18701,21.17431 -2.65126,21.17431c-1.46426,0 -2.65127,-9.48006 -2.65127,-21.17431c0,-10.30973 5.30253,-11.69424 5.30253,0z" fill="url(#color-22)" stroke="none"/><path d="M229.44406,183.39572c0,11.69425 -1.18701,21.17431 -2.65126,21.17431c-1.46426,0 -2.65126,-9.48006 -2.65126,-21.17431c0,-11.69425 5.30253,-11.69424 5.30253,0z" fill="url(#color-23)" stroke="none"/><path d="M246.97812,185.95331c0,11.69425 -1.187,21.17431 -2.65125,21.17431c-1.46426,0 -2.65126,-9.48006 -2.65126,-21.17431c0,-11.69425 5.30253,-11.69424 5.30253,0z" fill="url(#color-24)" stroke="none"/><path d="M253.14961,179.10011c0,11.69425 -1.187,21.17431 -2.65126,21.17431c-1.46425,0 -2.65126,-9.48006 -2.65126,-21.17431c0,-11.69425 5.30253,-11.69424 5.30253,0z" fill="url(#color-25)" stroke="none"/><path d="M258.0734,180.22938c0,11.69425 -1.18701,21.17431 -2.65127,21.17431c-1.46426,0 -2.65127,-9.48006 -2.65127,-21.17431c0,-11.69425 5.30254,-11.69424 5.30254,0z" fill="url(#color-26)" stroke="none"/><path d="M277.5012,180.90482c0,11.69425 -1.187,21.17431 -2.65127,21.17431c-1.46425,0 -2.65126,-9.48006 -2.65126,-21.17431c0,-11.69425 5.30254,-11.69425 5.30254,0z" fill="url(#color-27)" stroke="none"/><path d="M281.96833,178.94525c0,11.69425 -1.187,21.17431 -2.65126,21.17431c-1.46425,0 -2.65127,-9.48006 -2.65127,-21.17431c0,-11.69425 5.30253,-11.69425 5.30253,0z" fill="url(#color-28)" stroke="none"/><path d="M288.13984,182.44392c0,11.69425 -1.18701,21.17431 -2.65127,21.17431c-1.46425,0 -2.65126,-9.48006 -2.65126,-21.17431c0,-11.69425 5.30253,-11.69425 5.30253,0z" fill="url(#color-29)" stroke="none"/><path d="M294.31133,178.22574c0,11.69425 -1.187,21.17431 -2.65127,21.17431c-1.46425,0 -2.65127,-9.48006 -2.65127,-21.17431c0,-11.69425 5.30254,-11.69425 5.30254,0z" fill="url(#color-30)" stroke="none"/><path d="M299.91471,174.57222c0,11.69425 -1.18701,21.17431 -2.65127,21.17431c-1.46425,0 -2.65127,-9.48006 -2.65127,-21.17431c0,-11.69425 5.30254,-11.69425 5.30254,0z" fill="url(#color-31)" stroke="none"/><path d="M307.97997,183.15272c0,11.69425 -1.187,21.17431 -2.65126,21.17431c-1.46425,0 -2.65127,-9.48006 -2.65127,-21.17431c0,-11.69425 5.30253,-11.69424 5.30253,0z" fill="url(#color-32)" stroke="none"/><path d="M319.26462,177.61701c0,11.69425 -1.187,21.17431 -2.65126,21.17431c-1.46425,0 -2.65126,-9.48006 -2.65126,-21.17431c0,-11.69425 5.30253,-11.69425 5.30253,0z" fill="url(#color-33)" stroke="none"/><path d="M326.00425,191.46759c0,11.69425 -1.187,21.17431 -2.65127,21.17431c-1.46425,0 -2.65126,-9.48006 -2.65126,-21.17431c0,-11.69425 5.30253,-11.69425 5.30253,0z" fill="url(#color-34)" stroke="none"/><path d="M334.44826,174.07428c0,11.69425 -1.187,21.17431 -2.65126,21.17431c-1.46425,0 -2.65127,-9.48006 -2.65127,-21.17431c0,-11.69425 5.30253,-11.69425 5.30253,0z" fill="url(#color-35)" stroke="none"/><path d="M355.01234,182.27838c0,11.69425 -1.187,21.17431 -2.65127,21.17431c-1.46425,0 -2.65126,-9.48006 -2.65126,-21.17431c0,-11.69425 5.30253,-11.69425 5.30253,0z" fill="url(#color-36)" stroke="none"/><path d="M360.61571,176.93089c0,11.69425 -1.187,21.17431 -2.65126,21.17431c-1.46425,0 -2.65126,-9.48006 -2.65126,-21.17431c0,-11.69425 5.30253,-11.69425 5.30253,0z" fill="url(#color-37)" stroke="none"/><path d="M368.30221,182.49996c0,11.69425 -1.187,21.17431 -2.65127,21.17431c-1.46425,0 -2.65126,-9.48006 -2.65126,-21.17431c0,-11.69425 5.30253,-11.69425 5.30253,0z" fill="url(#color-38)" stroke="none"/><path d="M390.38129,188.63365c0,5.56126 -1.187,10.06956 -2.65126,10.06956c-1.46425,0 -2.65127,-4.5083 -2.65127,-10.06956c0,-5.56126 5.30254,-5.56126 5.30254,0z" fill="url(#color-39)" stroke="none"/><path d="M396.36342,192.22642c0,0.94616 -0.8452,4.53276 -0.8452,4.53276l-3.32107,2.34123c0,0 -1.13626,-3.96342 -1.13626,-6.87398c0,-2.91056 5.30253,-2.91056 5.30253,0z" fill="url(#color-40)" stroke="none"/><path d="M399.46423,194.3824v-2.08709h3.0829z" fill="url(#color-41)" stroke="none"/></g><path d="M183.82143,192.87564c0,9.1475 -0.97504,16.56302 -2.17782,16.56302c-1.20279,0 -2.17783,-7.41551 -2.17783,-16.56302c0,-9.1475 4.35565,-9.1475 4.35565,0z" fill="#042a5b" stroke="none"/></g><path d="M138.71524,215.24055l-2.99018,-9.44267h227.25412l-9.3028,9.44267z" fill="url(#color-42)" stroke="none"/><path d="M244.02341,219.9131z" fill="#2c4056" stroke="none"/><path d="M76.02336,171.14037c-0.12491,-6.95074 2.98116,-12.14245 6.29362,-17.66371c6.5807,-10.96875 21.62845,-13.92765 21.62845,-13.92765l18.87849,-0.08323l1.09463,0.35571l-8.35924,18.21027c0,0 -4.93332,-10.13595 -20.29788,4.49749c-3.14159,3.59837 -4.16531,6.71574 -2.79867,9.36781c1.22424,2.79405 3.27684,4.00699 8.66001,3.85797c4.08268,-0.07061 12.54342,-8.14285 12.54342,-8.14285l3.67868,23.79131c0,0 -13.26685,3.048 -21.40175,2.35233c-12.40113,-1.09106 -16.38777,-8.48591 -17.94528,-10.9572c-0.79689,-1.26442 -1.89156,-7.04476 -1.97448,-11.65823z" fill="#1dcc46" stroke="none"/><path d="M165.75265,145.19841c9.67639,9.64955 9.1816,27.61031 -2.53963,39.29901c-11.72121,11.68873 -30.23027,12.67914 -39.90666,3.02958c-9.67639,-9.64955 -8.68322,-27.61031 3.03801,-39.29901c4.76552,-4.75231 10.5707,-7.73618 16.43272,-8.95553c0.44096,-0.09172 11.49548,-0.0958 12.02617,0.0249c4.15932,0.94609 7.95378,2.9137 10.94942,5.90106z" fill="#1dcc46" stroke="none"/><path d="M154.32094,156.61739c3.98191,3.97087 1.13762,10.05044 -4.06949,15.24312c-5.20712,5.19269 -11.80198,7.03513 -15.78389,3.06425c-4.48029,-4.96483 -1.13762,-10.05045 4.06949,-15.24313c5.20712,-5.19269 11.80197,-7.03512 15.7839,-3.06424z" fill="#001573" stroke="none"/><path d="M214.75848,141.38821l-3.86861,11.96499c0,0 -17.71875,-1.88476 -17.54757,2.83082c0.18253,5.02767 21.49097,-1.80671 22.43564,17.69611c1.35056,27.88264 -42.96738,18.45103 -42.96738,18.45103l5.69594,-13.45594c0,0 17.92929,1.1436 17.9856,-3.18796c-1.6057,-5.92594 -22.61372,1.70527 -22.81642,-18.3578c-0.25591,-25.33119 41.08281,-15.94126 41.08281,-15.94126z" fill="#1dcc46" stroke="none"/><path d="M229.50182,193.04591l-15.20604,-0.19202l13.10183,-51.85307h17.19358l6.14649,24.21408l5.18687,-24.28346l17.28829,-0.01576l15.64717,52.03219l-15.17241,-0.09392l-7.99818,-26.14862l-5.05152,25.91869l-18.29619,0.11873l-6.29918,-26.4608z" fill="#1dcc46" stroke="none"/><path d="M301.014,139.29737c0.53069,-0.12071 11.58519,-0.11663 12.02616,-0.0249c5.86203,1.21934 11.99946,3.70623 16.76497,8.45855c11.72121,11.68871 11.88379,29.64946 2.20738,39.29901c-9.6764,9.64957 -27.52095,9.48744 -39.24218,-2.20128c-11.72121,-11.68871 -12.38216,-29.98077 -2.70576,-39.63032c2.99567,-2.98736 6.79012,-4.95497 10.94943,-5.90107z" data-paper-data="{&quot;index&quot;:null}" fill="#1dcc46" stroke="none"/><path d="M318.54073,156.93364c3.34764,3.24799 4.58088,9.73418 -0.62624,14.92686c-5.20713,5.19269 -12.34564,5.67973 -15.69326,2.5221c-3.98192,-3.97087 -4.85271,-10.63779 0.35442,-15.83048c5.20713,-5.19269 12.61748,-4.7761 15.9651,-1.61846z" data-paper-data="{&quot;index&quot;:null}" fill="#112667" stroke="none"/><path d="M362.07145,165.36281l-21.21607,-24.60061h17.72753l9.50451,11.1821l5.60624,-11.46769l17.28129,-0.14285l-10.38953,24.51697l23.00304,27.6341l-18.5428,0.08777l-10.89648,-12.81149l-5.43314,12.67727l-19.34454,0.14882z" fill="#ee3401" stroke="none"/><path d="M138.16073,215.06922l-3.11919,-9.88153h228.48081l-9.55253,9.88153z" fill="url(#color-43)" stroke="none"/><path d="M138.16073,215.06922l-3.11919,-9.88153h228.48081l-9.55253,9.88153z" fill="url(#color-44)" stroke="none"/><path d="M138.16073,215.06922l-3.11919,-9.88153h228.48081l-9.55253,9.88153z" fill="url(#color-45)" stroke="none"/><path d="M138.16073,215.06922l-3.11919,-9.88153h228.48081l-9.55253,9.88153z" fill="url(#color-46)" stroke="none"/><g stroke="none"><path d="M138.31652,215.24055l-3.32243,-9.77398h228.81566l-10.46565,9.77398z" fill="url(#color-47)"/><path d="M149.08388,214.15585l-3.22002,0.06648l-1.35883,-1.29353l-2.47289,0.01065l-0.02382,1.33159l-3.35237,0.0978l-2.42064,-7.88072l4.18794,-0.07099z" fill="#ffffff"/><path d="M159.28566,214.15585l-3.04414,0.06648l-2.29695,-1.29352l-2.12111,0.01065l1.55924,1.39007l-3.35239,0.03933l-5.82122,-7.88072l3.37491,0.02283l3.17559,1.92045l2.86404,1.73202l-2.49408,-3.7261l3.18921,-0.0202z" fill="#ffffff"/><path d="M174.11935,213.51271c0,0 -2.74313,0.80877 -4.68581,0.7681c-1.94268,-0.04064 -5.23888,-0.34739 -5.23888,-0.34739l-4.44831,-7.44529l3.37491,0.02283l3.52739,5.77937l3.39172,0.03643l-3.37355,-5.88943l3.18922,-0.0202z" fill="#ffffff"/><path d="M186.04659,214.19345l-3.63512,-7.83478c0,0 8.60181,-0.16018 9.326,0.24484c0.80195,0.44852 3.833,6.08908 2.94988,7.28664c-0.34038,0.46158 -8.64077,0.30332 -8.64077,0.30332z" fill="#ffffff"/><path d="M196.4776,214.15622l-2.86758,-7.68062h10.3777v2.10486h-6.39079l0.35179,0.70162l3.63086,0.06928l0.67773,2.21573l-3.32486,0.03295l0.337,0.8479l6.00334,0.06642l0.54725,1.60973z" fill="#ffffff"/><path d="M225.91575,209.39901c0,0 0.37705,0.74206 0.65022,1.81118c0.27314,1.06913 0.52242,2.7786 0.52242,2.7786c0,0 -2.58608,0.13753 -4.63188,0.16475c-3.09689,0.04119 -4.71986,-0.02713 -5.12064,-0.45891c-0.32803,-0.35341 -1.14651,-3.87063 -1.19674,-5.00887c-0.09857,-2.23358 2.30326,-2.12251 2.30326,-2.12251l7.0004,-0.00136l0.22197,2.01691c0,0 -5.99846,0.1225 -6.0859,0.35154c-0.48509,1.27075 0.6777,3.48003 0.6777,3.48003l3.22353,0.01537l0.00743,-0.9757l-3.02446,-0.00463l-0.05863,-1.9587z" fill="#ffffff"/><path d="M228.20236,214.10574l-1.55372,-7.39625l7.83854,0.00797c0,0 1.57711,-0.09025 2.26989,1.61237c0.71526,1.75789 -0.30864,2.1655 -0.30864,2.1655c0,0 0.54173,0.62428 0.77186,1.07014c0.30986,0.60029 0.26319,2.66413 0.26319,2.66413l-2.99407,-0.14426c0,0 -0.06123,-0.96545 -0.25087,-1.54709c-0.18967,-0.58163 -0.50413,-0.76835 -0.50413,-0.76835l-2.7764,-0.00286l-0.02932,2.36797z" fill="#ffffff"/><path d="M259.92174,206.62174c0,0 0.38741,5.70493 -0.27562,6.80489c-0.57926,0.96101 -2.85501,0.77325 -4.73734,0.82525c-1.88233,0.05198 -4.02256,-0.03934 -4.8589,-0.44491c-0.97697,-0.47376 -0.56447,-7.18523 -0.56447,-7.18523l2.84361,-0.02924c0,0 0.01417,4.11535 0.40892,4.99596c0.44915,1.00198 2.14386,0.69895 2.14386,0.69895c0,0 1.33032,-0.12833 1.5207,-0.78394c0.30239,-1.04137 0.11876,-4.86185 0.11876,-4.86185z" fill="#ffffff"/><path d="M260.97712,214.33959l-0.05863,-7.80553l3.0488,-0.02925l3.9039,3.89221l0.09967,-3.82671l3.00221,0.00823l-0.68104,7.60608l-2.92669,-0.01106l-3.47004,-3.2612l-0.04524,3.39802z" fill="#ffffff"/><path d="M271.47209,214.13496l0.52768,-7.60092h7.97382c0,0 1.4683,0.08668 1.71332,1.16051c0.57716,2.52925 0.14513,4.56559 -0.62474,5.54349c-0.70607,0.89688 -1.73353,0.83844 -1.73353,0.83844z" fill="#ffffff"/><path d="M286.83342,210.45169c0,0 0.09693,-2.80814 1.11268,-3.53639c0.943,-0.67607 4.77974,-0.68823 4.77974,-0.68823c0,0 3.90089,0.14634 4.49797,0.82726c0.73311,0.83605 -0.18859,3.81981 -0.18859,3.81981c0,0 -0.46409,2.32234 -1.20639,2.77826c-0.96653,0.59364 -4.33423,0.48073 -4.33423,0.48073c0,0 -4.01281,0.28167 -4.87059,-0.39579c-0.52107,-0.41153 0.20941,-3.28564 0.20941,-3.28564z" fill="#ffffff"/><path d="M297.26978,214.01802l2.16936,-7.65937l7.62205,-0.05847c0,0 2.15842,0.30385 0.91171,4.2298c-1.20556,3.79636 -2.61203,3.42958 -2.61203,3.42958z" fill="#ffffff"/><path d="M311.04808,211.15306l-1.81757,-4.79442h3.4006l1.40715,2.22179l1.83765,-1.97085l3.61599,0.0203l-4.99536,4.54369l-0.94487,2.68213l-3.2745,0.05395z" fill="#ffffff"/><path d="M327.34754,214.19345l0.52767,-1.69558l6.78211,0.02899l1.27347,-1.0742c0,0 -4.48232,0.16791 -6.6494,-0.37743c-2.62944,-0.66169 2.05304,-4.59962 2.05304,-4.59962l8.267,-0.05846l-0.77062,2.10637l-6.37174,0.16161l-0.36962,0.74029c0,0 5.41738,-0.23211 5.86546,0.43123c0.7674,1.13611 -1.46091,4.16139 -1.46091,4.16139z" fill="#ffffff"/><path d="M352.20713,210.91919l-0.46906,-4.50207l3.40059,-0.05847l0.17589,2.51415l2.8344,-2.26319l3.61599,0.0203l-6.40249,4.54369l-1.29667,2.68214l-3.2745,0.05394z" fill="#ffffff"/><path d="M337.8425,214.07651l3.51787,-7.54245h9.67413l-1.04418,2.08434l-6.22371,0.04723l-0.51506,0.79728l3.60744,0.10807l-1.04178,1.86001l-3.45389,0.08275l-0.54504,0.77256l6.0352,0.00031l-0.74725,1.78991z" fill="#ffffff"/><path d="M191.77442,212.30279h-3.48855l-1.69445,-3.57827l3.58822,-0.09939z" fill="#182434"/><path d="M234.05082,209.88451l-3.39869,-0.04041l-0.56312,-1.37287c0,0 2.33654,-0.13439 2.84388,0.06698c1.24819,0.49541 1.11791,1.3463 1.11791,1.3463z" fill="#182434"/><path d="M278.41253,210.75793c-0.00381,0.21792 -0.0269,0.87866 -0.39759,1.21489c-0.63414,0.57522 -3.00036,0.389 -3.00036,0.389c0,0 -0.17685,-1.17491 -0.09061,-1.92016c0.08623,-0.74525 0.13593,-1.82979 0.13593,-1.82979c0,0 2.0001,-0.32922 2.99322,0.26603c0.52382,0.31397 0.37504,0.98295 0.35941,1.88003z" fill="#182434"/><path d="M293.93573,208.72186c0.52249,0.56621 -0.01554,2.72355 -0.45584,3.11982c-0.4647,0.41824 -2.88916,0.48429 -3.27575,0.05361c-0.43187,-0.3855 -0.23024,-2.47965 0.15003,-3.06901c0.2695,-0.41766 3.10436,-0.62546 3.58156,-0.10442z" data-paper-data="{&quot;index&quot;:null}" fill="#182434"/><path d="M302.13039,208.30886c0,0 2.40258,-0.05603 2.86335,-0.03569c1.06471,0.04698 0.07729,2.74199 -0.83363,3.89408c-0.36221,0.33981 -3.62446,0.09035 -3.62446,0.09035z" data-paper-data="{&quot;index&quot;:null}" fill="#182434"/><path d="M140.80557,211.4303l-0.2215,-1.98794l2.21495,1.98794z" fill="#182434"/><path d="M206.86064,214.13496l-2.22798,-7.54244l7.43049,-0.18313c0,0 1.92212,0.1677 2.61041,1.18606c0.68829,1.01836 0.26237,3.06435 0.26237,3.06435c0,0 0.67029,0.51956 0.9039,0.98596c0.23359,0.46642 0.77584,2.36792 0.77584,2.36792l-3.05668,0.06934l-0.66484,-2.1008l-3.33647,0.04785l0.41042,2.10486z" fill="#ffffff"/><path d="M212.62056,209.88451l-3.93257,-0.04041l-0.65159,-1.37287c0,0 2.70359,-0.13439 3.29063,0.06698c1.44428,0.49541 1.29352,1.3463 1.29352,1.3463z" fill="#182434"/><path d="M238.05238,210.59763c0,0 -0.05183,-2.823 0.56877,-3.50167c0.6162,-0.67384 4.59076,-0.44494 4.59076,-0.44494c0,0 3.65878,-0.01316 4.44663,0.62353c0.898,0.72566 0.65428,3.49851 0.65428,3.49851c0,0 0.36996,2.18235 -0.5515,2.76371c-1.33185,0.84027 -3.96309,0.71516 -3.96309,0.71516c0,0 -3.78138,-0.02111 -4.74848,-0.63619c-0.94778,-0.60279 -0.99736,-3.01809 -0.99736,-3.01809z" fill="#ffffff"/><path d="M244.918,209.00703c0.38027,0.58936 0.5819,2.6835 0.15001,3.069c-0.38658,0.43068 -2.81105,0.36463 -3.27575,-0.0536c-0.4403,-0.39627 -0.97834,-2.55361 -0.45584,-3.11982c0.47719,-0.52104 3.31207,-0.31324 3.58156,0.10442z" fill="#182434"/><path d="M316.85254,214.19345l0.52768,-1.69558l6.78211,0.02899l1.27346,-1.0742c0,0 -4.48231,0.1679 -6.64939,-0.37743c-2.62944,-0.66169 2.05304,-4.59962 2.05304,-4.59962l8.26699,-0.05846l-0.77061,2.10637l-6.37174,0.16161l-0.36963,0.74029c0,0 5.41737,-0.23211 5.86546,0.43124c0.76742,1.13611 -1.46091,4.16139 -1.46091,4.16139z" fill="#ffffff"/><path d="M184.84885,214.21432l-2.71266,0.00802l-5.10959,-3.0954l1.38944,3.2026l-2.81145,0.03932l-4.19064,-7.88072l3.00742,0.02283l5.382,3.65247l-1.57755,-3.72609l3.13511,-0.0202z" fill="#ffffff"/></g><path d="M148.78548,119.80611z" fill="#ffffff" stroke="none"/></g><path d="M-61.92039,180c0,-166.74603 135.17436,-301.92039 301.92039,-301.92039c166.74603,0 301.92039,135.17436 301.92039,301.92039c0,166.74603 -135.17436,301.92039 -301.92039,301.92039c-166.74603,0 -301.92039,-135.17436 -301.92039,-301.92039z" fill="url(#color-48)" stroke="none" stroke-width="0"/></g></g></svg>