<svg version="1.1" xmlns="http://www.w3.org/2000/svg" xmlns:xlink="http://www.w3.org/1999/xlink" width="46.32053" height="18.42253" viewBox="0,0,46.32053,18.42253"><g transform="translate(-166.99665,-170.78874)"><g data-paper-data="{&quot;isPaintingLayer&quot;:true}" fill-rule="nonzero" stroke="none" stroke-width="0.26458" stroke-linecap="butt" stroke-linejoin="miter" stroke-miterlimit="10" stroke-dasharray="" stroke-dashoffset="0" style="mix-blend-mode: normal"><path d="M197.72999,185.00343l6.23488,-14.21466h2.80569l6.54662,14.21466h-4.05267l-3.74093,-8.81309l-3.74093,8.81309z" fill="#ff0000"/><path d="M196.99664,189.21127l5.37214,-13.43035h2.41745l5.64074,13.43035h-3.49188l-3.22328,-8.32682l-3.22328,8.32682z" fill="#71ff33"/><path d="M182.72998,185.00341l6.23488,-14.21466h2.80569l6.54662,14.21466h-4.05267l-3.74093,-8.81309l-3.74093,8.81309z" fill="#ff0000"/><path d="M181.99665,189.21125l5.37214,-13.43035h2.41745l5.64074,13.43035h-3.49188l-3.22328,-8.32682l-3.22328,8.32682z" fill="#71ff33"/><path d="M167.72998,185.0034l6.23488,-14.21466h2.80569l6.54662,14.21466h-4.05267l-3.74093,-8.81309l-3.74093,8.81309z" fill="#ff0000"/><path d="M166.99665,189.21124l5.37214,-13.43035h2.41745l5.64074,13.43035h-3.49188l-3.22328,-8.32682l-3.22328,8.32682z" fill="#71ff33"/></g></g></svg>