<svg version="1.1" xmlns="http://www.w3.org/2000/svg" xmlns:xlink="http://www.w3.org/1999/xlink" width="20.266" height="32.47884" viewBox="0,0,20.266,32.47884"><g transform="translate(-228.07061,-165.62497)"><g data-paper-data="{&quot;isPaintingLayer&quot;:true}" fill-rule="nonzero" stroke-linejoin="miter" stroke-miterlimit="10" stroke-dasharray="" stroke-dashoffset="0" style="mix-blend-mode: normal"><path d="M248.27348,197.06781c-0.36574,1.32782 -2.79687,-1.35168 -3.45184,-2.22793c-0.88291,-0.91692 -1.71815,-3.1808 -1.71815,-3.1808c0,0 -0.67017,-1.52659 0.33676,-1.13495c0.46872,0.18231 0.93665,0.32889 1.37175,0.52525c0.49958,0.22547 0.95587,0.51662 1.32035,1.00296c0,0 2.6418,3.1978 2.14113,5.01545z" data-paper-data="{&quot;index&quot;:null}" fill="#54c81c" stroke="none" stroke-width="0" stroke-linecap="butt"/><path d="M236.48736,192.84438c0.24268,-0.51498 0.60269,-0.86932 1.01336,-1.17199c0.35767,-0.2636 0.75378,-0.48803 1.14426,-0.74528c0.83885,-0.55265 0.50455,0.97221 0.50455,0.97221c0,0 -0.35272,2.23064 -0.98678,3.23938c-0.43567,0.92751 -2.15423,3.84658 -2.71905,2.70369c-0.77318,-1.56449 1.04366,-4.99801 1.04366,-4.99801z" data-paper-data="{&quot;index&quot;:null}" fill="#54c81c" stroke="none" stroke-width="0" stroke-linecap="butt"/><path d="M240.74528,189.29443c0,0 -1.73232,2.94057 -2.29123,4.0754c-0.37809,0.76769 -0.93318,2.01973 -0.93318,2.01973c-0.2071,0.29463 -1.25508,0.94036 -1.24943,0.13196c0.00443,-0.6355 1.04532,-2.74234 1.04532,-2.74234c0,0 1.71791,-2.72257 1.93476,-3.3332c0.74334,-1.90468 -0.82314,-5.74944 -0.82314,-5.74944l1.46933,-0.30568l0.84759,5.90355z" data-paper-data="{&quot;index&quot;:null}" fill="#ffffff" stroke="none" stroke-width="0" stroke-linecap="butt"/><path d="M241.18496,189.21551l-1.17871,-6.29926l1.25826,0.03077c0,0 0.00777,3.68394 0.91631,5.51556c0.2699,0.58911 2.3661,3.40125 2.3661,3.40125c0,0 1.61207,2.04019 1.67256,2.67283c0.07696,0.80474 -0.67343,0.59511 -1.14211,0.21699c-0.46868,-0.37811 -1.09919,-1.65947 -1.61994,-2.42328c-0.63349,-0.92918 -2.27246,-3.11486 -2.27246,-3.11486z" data-paper-data="{&quot;index&quot;:null}" fill="#ffffff" stroke="none" stroke-width="0" stroke-linecap="butt"/><g data-paper-data="{&quot;index&quot;:null}" stroke="none" stroke-width="0.17188" stroke-linecap="butt"><path d="M236.47526,180.76785c0.80758,-0.63155 1.97647,-2.92078 2.10822,-2.53422c0.13189,0.38662 -0.18654,2.27419 -0.83428,3.42499c-0.40953,0.72723 -0.97747,2.74224 -1.61769,3.24473c-0.42082,0.33 -1.14496,-0.0166 -1.6068,-0.30611c-0.35791,-0.22338 -0.77964,-0.70975 -0.59505,-1.07473c0.5585,-1.10379 1.57229,-1.96191 2.54558,-2.75466z" fill="#319a2b"/><path d="M234.59122,185.79766c0.45585,-0.17537 0.69624,0.09363 0.76413,0.2702c0.30516,0.87871 0.14997,2.04265 -0.31382,2.73723c0.11994,-0.12059 -0.62044,0.53852 -1.35443,0.01306c-0.32685,-0.21331 -1.01622,-0.4414 -1.56174,-0.75172l-0.44063,-0.4307c-0.20255,-0.19784 -0.1198,-0.59978 0.14244,-0.75341c0.03877,-0.02274 -0.21273,-0.05655 -0.26075,-0.23148c-0.08643,-0.31488 0.01285,-0.85434 0.29223,-0.95586c0.24488,-0.08926 0.44992,-0.4266 0.8296,-0.41368c0.51198,0.01743 0.02542,0.4732 0.41388,0.61935c0.23083,0.08698 1.47871,-0.09909 1.48907,-0.10295z" fill="#f0e9bb"/><path d="M234.61251,184.14231c0.28558,0.05919 1.93912,0.11501 1.98351,0.41117c0.05103,0.5628 -0.95371,1.20659 -0.95566,1.76399c-0.00236,-0.17256 -0.55644,-0.37439 -0.55644,-0.37439c-0.03096,-0.00858 -0.50197,-0.07958 -1.08952,0.02175c-0.4831,0.0833 -0.98243,0.19869 -1.08213,-0.03086c-0.06913,-0.15872 -0.2305,-0.61855 -0.05364,-0.9298c0.188,-0.33062 0.32882,-0.83715 0.61283,-1.10757c0.12294,-0.11711 0.35929,-0.57229 0.48604,-0.62931c0.19297,-0.08655 0.25392,0.25289 0.23205,0.20271c-0.10927,-0.25058 0.13368,0.61226 0.42295,0.67229z" fill="#ead42f"/></g><g data-paper-data="{&quot;index&quot;:null}" stroke="none" stroke-width="0.17188" stroke-linecap="butt"><path d="M243.61939,183.90774c0.09389,0.36575 -0.38302,0.72045 -0.75011,0.85071c-0.47394,0.16924 -1.19572,0.3378 -1.50954,-0.04338c-0.47736,-0.58031 -0.18546,-1.48233 -0.41016,-2.21941c-0.35529,-1.16632 -1.24787,-4.21988 -1.0521,-4.54224c0.19563,-0.32235 1.57234,2.24505 2.17493,2.97498c0.71995,0.90821 1.26282,1.87316 1.54698,2.97936z" fill="#319a2b"/><path d="M242.50917,185.87371c0.00857,0.00553 1.09672,0.42133 1.3221,0.38879c0.37929,-0.05457 0.0312,-0.56218 0.49626,-0.47614c0.34491,0.06382 0.46271,0.40874 0.66575,0.53788c0.2317,0.14707 0.214,0.65318 0.07349,0.91989c-0.07808,0.14817 -0.31153,0.12866 -0.28111,0.15688c0.2059,0.19064 0.20062,0.56948 -0.02132,0.7076l-0.48288,0.30073c-0.55353,0.17136 -1.22041,0.23999 -1.5575,0.36735c-0.76622,0.32787 -1.30273,-0.41353 -1.21857,-0.28097c-0.2801,-0.71843 -0.18867,-1.79868 0.26111,-2.53029c0.09631,-0.14571 0.36651,-0.34046 0.74265,-0.09173z" fill="#f0e9bb"/><path d="M242.819,184.37696c0.27275,0.00337 0.6633,-0.72629 0.51497,-0.52208c-0.02969,0.04089 0.09272,-0.25303 0.2495,-0.13665c0.10295,0.07662 0.22556,0.53398 0.31313,0.664c0.20232,0.30026 0.22859,0.78493 0.33238,1.1204c0.09759,0.31577 -0.1393,0.69829 -0.23317,0.82765c-0.13551,0.18715 -0.56278,-0.01613 -0.98179,-0.18726c-0.5096,-0.20816 -0.94837,-0.23775 -0.97799,-0.23618c0,0 -0.53968,0.07183 -0.5761,0.22695c0.10902,-0.50293 -0.6689,-1.28309 -0.51103,-1.78038c0.09891,-0.25819 1.60084,0.02014 1.87009,0.02354z" fill="#ead42f"/></g><path d="M238.60034,181.63925c-0.26708,-0.38154 -0.30118,-1.68325 -0.30434,-2.50401c-0.00931,-0.71765 0.05758,-1.42384 0.31392,-1.69625c0.07907,-0.08398 0.58519,-0.13011 0.69208,-0.13011c0.13502,0 0.00591,-0.23568 0.23944,0.19506c0.05994,0.11077 0.86527,2.33104 0.84798,2.64486c-0.02199,0.39718 0.46077,0.25052 0.24433,0.49334c0,0 -1.71222,1.34008 -2.03341,0.99711z" fill="#319a2b" stroke="none" stroke-width="0.17188" stroke-linecap="butt"/><path d="M238.79317,181.45584c0.1267,-0.0057 0.10384,4.52106 -0.66926,6.79107c-0.1933,0.5675 -1.8115,0.8781 -1.7455,0.2492c0.2645,-2.5158 2.28306,-7.00897 2.41476,-7.04027z" fill="#ffffff" stroke="none" stroke-width="0.19137" stroke-linecap="butt"/><path d="M243.74561,188.18991l0.2493,1.375l-0.3094,1.6243l-0.3782,-0.8766c-0.1517,-0.2477 -0.6136,-0.7326 -0.6947,-1.2033c-0.1384,-0.8031 -0.2511,-2.2546 0.028,-2.4555z" fill="#54c81c" stroke="none" stroke-width="0.17188" stroke-linecap="butt"/><path d="M240.20561,188.01711l-1.0234,1.1095l-0.4383,2.372l-0.4053,-1.5779c-0.129,-0.4945 -0.478,-1.1678 -0.4769,-1.4847c0.0026,-0.681 0.2234,-0.7697 0.2234,-0.8652c0,-0.2312 1.9385,-2.4732 2.1623,-2.1203z" fill="#54c81c" stroke="none" stroke-width="0.17188" stroke-linecap="butt"/><path d="M242.92161,188.39861c-0.0287,0.6436 -0.0113,0.5017 -0.375,2.2198l-0.9828,1.7564l-0.4394,-1.8396c-0.1497,-0.6115 -0.9035,-1.4072 -0.8728,-1.8363c0.0521,-0.7304 -0.0597,-2.9273 -0.0597,-3.0301c0,-0.2483 2.874,-0.8713 2.8646,-0.2999z" fill="#54c81c" stroke="none" stroke-width="0.1848" stroke-linecap="butt"/><path d="M243.87451,188.06101c-0.078,0.304 -0.9016,-0.179 -1.0555,-0.4988c-0.238,-0.4947 -0.1294,-1.0772 -0.1294,-1.647c0,-1.5588 -0.67275,-2.74548 -0.60025,-2.78608c0.0715,-0.038 1.07655,1.83628 1.27815,2.43958c0.1999,0.8324 0.6473,1.8291 0.507,2.4923z" fill="#ffffff" stroke="none" stroke-width="0.17188" stroke-linecap="butt"/><path d="M242.71751,185.53191c0,1.127 -0.0642,1.4323 -0.197,1.8549c-0.1549,0.4932 -0.4031,1.0049 -0.7516,1.0049c-0.3333,0 -0.6147,-0.3674 -0.9715,-0.9952c-0.1746,-0.3068 -0.4945,-0.4849 -0.6009,-1.0825c-0.0985,-0.5537 -0.1574,-2.4165 -0.1574,-2.9861c0,-1.17561 0.30321,-1.97921 0.51088,-2.73453c0.06771,-0.24626 -0.23222,-0.52313 -0.08588,-0.75907c0.2582,-0.4163 0.53732,0.49373 0.79682,0.87453c0.4653,0.6825 0.71066,1.42394 0.86316,2.20834c0.1701,0.8868 0.59342,1.47584 0.59342,2.61474z" fill="#ffffff" stroke="none" stroke-width="0.17188" stroke-linecap="butt"/><path d="M240.12281,185.07831c0,1.127 -0.5105,2.0459 -0.6434,2.4686c-0.1549,0.4933 -0.6059,1.1278 -0.8353,0.8654l-0.3577,-0.4093c-0.2324,-0.2657 -0.2711,-0.9936 -0.2382,-1.501c0.0514,-0.7606 0.3045,-1.5323 0.4465,-2.3169c0.1702,-0.7419 -0.13293,-1.7663 0.19736,-2.4857c0.11717,-0.25437 0.62783,-0.14259 0.99035,-0.29229c0.40665,-0.16792 0.66822,-0.58221 0.79188,-0.58538c0.3316,-0.0088 -0.1637,1.12047 -0.3533,2.23407c-0.1356,0.7969 0.0018,0.8835 0.0018,2.0225z" fill="#ffffff" stroke="none" stroke-width="0.17188" stroke-linecap="butt"/><path d="M237.80721,188.28011c0,0.1612 0.0412,0.4625 -0.2662,0.984c-0.1333,0.2259 -0.4342,0.8455 -0.6685,1.248l-0.5005,0.806c-0.1633,0.2466 0.001,-0.8962 0,-1.3149c-0.0017,-0.5406 -0.2265,-1.1169 0,-1.6243c0.0858,-0.194 0.3771,0.1941 0.6121,0.1802c0.3023,-0.0186 0.8231,-0.5102 0.8231,-0.279z" fill="#54c81c" stroke="none" stroke-width="0.17188" stroke-linecap="butt"/><path d="M240.88799,169.48429c0.28746,-0.0137 0.51457,0.21031 0.70924,0.39409c0.43366,0.45812 0.74111,1.02854 0.94401,1.62283c0.34617,0.98909 0.38464,2.11503 -0.04323,3.08525c-0.25852,0.42655 -0.20944,0.37592 -0.44444,0.80922c-0.26286,0.74245 -0.96205,1.38906 -1.56522,1.83547c-0.47017,0.38806 -0.99992,0.69627 -1.56414,0.92775c-0.37018,0.13652 -0.7402,0.34652 -1.14569,0.32743c-0.37742,-0.02382 -0.77099,-0.1538 -1.01364,-0.45919c-0.63066,-0.70966 -1.26893,-1.41463 -1.8332,-2.17862c-0.14365,-0.21757 -0.33372,-0.43081 -0.37683,-0.69576c0.02546,-0.26434 -1.29673,-2.24196 2.77602,-4.39267c1.81363,-0.95773 3.33205,-1.24929 3.55712,-1.2758z" fill="#f0e9bb" stroke="none" stroke-width="0.17188" stroke-linecap="butt"/><path d="M238.64171,166.57403c0.65923,-0.65839 1.27688,-0.94235 1.75963,-0.94904c0.06867,-0.00112 0.06927,0.05105 0.1622,0.06292c0.11249,0.01442 0.36218,-0.02193 0.31072,-0.02057c0,0 0.03185,0.17601 0.08304,0.23194c0.06514,0.07107 0.2289,0.0876 0.14176,0.12387c0,0 0.13323,0.07615 0.15395,0.12443c0.22654,0.52722 0.29627,1.37525 0.04007,2.03076c0.55013,0.19699 -2.83594,-0.92679 -2.65135,-1.60432z" fill="#ed3e67" stroke="none" stroke-width="0.17188" stroke-linecap="butt"/><path d="M234.60726,174.9498l1.31585,1.99782l1.34261,1.39939l1.03483,0.92652c0.12182,0.10879 -1.98851,0.12156 -2.53663,-0.02394c-0.67826,-0.17995 -1.26349,-0.49465 -1.84715,-0.81172c-0.42549,-0.23091 -0.54739,-0.36498 -0.79078,-0.58223l-0.75547,-0.67462c-0.14357,-0.12815 -0.79434,-0.8397 -0.74543,-1.08275c0.0139,-0.06896 0.83264,-0.08389 0.89225,-0.13106l0.43417,-0.34559c0.12891,-0.10241 0.31078,-0.6779 0.35523,-0.85577c0.03258,-0.12988 0.10321,-0.99638 -0.22937,-1.54031l-0.32903,-0.53803c-0.04925,-0.08058 -0.83145,-0.72639 -0.812,-0.76317c0.03987,-0.07597 -1.28528,-0.39145 -1.24638,-0.474c0.21602,-0.45987 0.4684,-1.03031 0.87633,-1.50517c0.64129,-0.74653 1.50051,-1.35469 1.93568,-1.67326c0.07422,-0.05432 1.03345,-0.72778 1.7352,-0.96023c1.11119,-0.36816 2.03754,-0.17461 2.09536,-0.16923c0.90783,0.0842 1.73819,0.35297 2.50143,0.78157l0.56038,0.42664c0.28687,0.21836 1.70258,1.5426 1.95939,2.19439l0.8775,2.22557c0.15376,0.3897 0.43666,2.54458 0.19638,2.58779c-0.33649,0.06084 -1.05843,-0.88815 -1.05346,-0.70907c0.01084,0.39677 0.49585,-1.96288 0.29607,-2.37119c-0.34165,-0.69803 -0.54557,-1.45404 -0.92073,-1.84431c-0.07091,-0.07363 -0.49622,-0.6224 -0.60638,-0.7497c-0.08696,-0.10073 -0.21661,-0.13846 -0.30251,-0.03079c-0.05722,0.07162 -0.29078,0.1117 -0.26974,0.36113l0.06279,0.73946c0.01005,0.11982 0.17597,2.30896 0.04477,2.23142c-0.02433,-0.01447 -0.19241,-0.62831 -0.20589,-0.66732c-0.0813,-0.23609 -0.18617,-0.38887 -0.19555,-0.27529c-0.0247,0.29869 0.06183,0.96971 0.06183,0.96971c0.00537,0.08673 -0.44578,0.36996 -0.80698,0.4859c-0.33604,0.10788 -0.91318,0.03862 -1.05741,0.02286l-1.56773,-0.17209c-1.47225,-0.16124 -1.15613,0.14363 -1.27698,0.08802c-0.00802,-0.09126 -0.67894,0.37876 -0.72579,0.63935c-0.01866,0.1038 -0.12463,0.35525 -0.17941,0.48455c-0.07299,0.17193 -0.12863,0.28307 -0.11718,0.38878z" fill="#54c81c" stroke="none" stroke-width="0.17188" stroke-linecap="butt"/><path d="M230.4276,176.12639c-0.60801,0.19863 -1.3921,0.08951 -1.87861,-0.14577c-0.04459,-0.02148 -0.1142,-0.1473 -0.1142,-0.1473c-0.03412,0.07766 -0.04827,-0.07299 -0.11364,-0.13619c-0.05134,-0.0497 -0.21413,-0.08823 -0.21413,-0.08823c-0.00152,0.04698 0.03359,-0.17905 0.02109,-0.28256c-0.01049,-0.08557 -0.05882,-0.08887 -0.05748,-0.15172c0.00931,-0.44025 0.27579,-0.9889 0.88878,-1.55564c0.80213,-0.74136 2.04388,-0.67829 2.27849,-0.36659c0,0 0.22794,2.53463 -0.8103,2.87399z" fill="#ed3e67" stroke="none" stroke-width="0.17188" stroke-linecap="butt"/><path d="M232.29191,173.33056c0.05634,-0.17247 0.59677,1.27646 0.41556,1.67184c-0.31172,0.67989 -0.09535,0.8449 -0.6474,1.0461c-0.12385,0.04535 -0.45745,0.01784 -0.83381,0.11534c-0.4359,0.11313 -0.87401,0.14407 -0.8067,0.00405l0.37072,-0.88792l0.16052,-1.83299c0.00249,-0.0285 -0.32545,-0.04643 -0.8038,-0.03206c-0.33544,0.01001 -0.80131,0.07295 -1.1308,0.16656c-0.19413,0.05522 -0.02417,-0.34578 0.31219,-0.79085c0.16303,-0.21579 0.32457,-0.46039 0.58127,-0.63183c0.44465,-0.29678 1.12436,-0.04279 1.61133,0.36677c0.4561,0.38351 0.73325,0.91962 0.77091,0.80499z" fill="#54c81c" stroke="none" stroke-width="0.17188" stroke-linecap="butt"/><path d="M232.88556,172.83818c0.7519,0.95461 0.43904,2.53548 0.11226,2.74701l-0.42039,0.45659l-1.00038,0.10732c-0.25617,0.0274 1.00761,-0.66224 1.0557,-1.17481c0.03149,-0.33442 0.04823,-0.58705 0.01453,-0.68472c-0.32261,-0.9304 -0.80972,-1.52317 -1.25858,-1.81048c-0.7053,-0.45147 -1.3245,-0.30035 -1.12908,-0.67431c0.46582,-0.89188 1.80415,-0.00982 2.62594,1.0334z" fill="#ead32e" stroke="none" stroke-width="0.17188" stroke-linecap="butt"/><path d="M238.87749,167.51088c0,0 -0.43483,-0.11082 -0.75563,-0.20722c-0.66921,-0.20109 -1.37108,-0.0967 -1.37045,-0.29471c0.04122,-0.11091 0.53079,-0.31129 0.7214,-0.29038l0.38709,0.04228c0.68072,0.07451 1.24823,0.50026 1.40958,0.72807c0.06981,0.09853 0.3043,0.1978 0.35034,0.33125c0,0 -0.51327,-0.1373 -0.74232,-0.30929z" fill="#ead32e" stroke="none" stroke-width="0.17188" stroke-linecap="butt"/><path d="M237.77952,166.67167c0,0 0.84099,-0.67458 1.17463,-0.55263c0.22167,0.08088 0.36861,0.56816 0.57837,0.59834c0.26045,0.03749 0.75936,0.23872 1.08106,0.42086c0.22177,0.22099 0.48912,0.39115 0.59095,0.74723c0.22657,0.21123 -0.04255,1.11575 -0.12477,1.05243l-1.11762,-0.86062c-0.28356,-0.21839 -0.8768,-0.64719 -1.01001,-0.72449z" fill="#54c81c" stroke="none" stroke-width="0.17188" stroke-linecap="butt"/><g fill="none" stroke="#000000" stroke-width="0.5" stroke-linecap="round"><path d="M238.875,175.96667l-1.91667,-0.91667"/><path d="M237.375,176.38334l1,-1.66667"/></g><g fill="none" stroke="#000000" stroke-width="0.5" stroke-linecap="round"><path d="M242.54166,173.54999l-1.91666,-0.91666"/><path d="M242.04167,172.3l-1,1.66667"/></g><g stroke="none" stroke-linecap="butt"><path d="M239.34346,177.68972c0.12366,-0.13587 0.34098,-0.07876 0.59215,0.12311c0.25117,0.20188 0.53641,0.54862 0.79568,0.99217c0.25926,0.44345 0.44391,0.90048 0.533,1.2806c0.08899,0.38013 0.08228,0.68325 -0.04137,0.81912c-0.12356,0.13576 -0.34089,0.07866 -0.59217,-0.12321c-0.25117,-0.20188 -0.5363,-0.54864 -0.79557,-0.99219c-0.25926,-0.44345 -0.44403,-0.90047 -0.533,-1.2806c-0.08909,-0.38012 -0.08227,-0.68326 0.04129,-0.81901z" fill="#eb3d66" stroke-width="0.01872"/><path d="M239.7339,177.95908c0.05807,-0.0598 0.16334,-0.03712 0.28649,0.04789c0.12325,0.08499 0.26435,0.23232 0.39408,0.42173c0.12983,0.1894 0.22377,0.3853 0.27081,0.5488c0.04704,0.16359 0.0472,0.29473 -0.01087,0.35453c-0.05795,0.05988 -0.16325,0.03713 -0.28649,-0.04787c-0.12325,-0.08499 -0.26435,-0.23232 -0.39407,-0.42163c-0.12973,-0.18941 -0.22378,-0.38542 -0.27081,-0.5489c-0.04704,-0.16359 -0.04718,-0.29463 0.01088,-0.35454z" fill="#ffffff" stroke-width="0.01896"/></g><path d="M238.61665,181.54826c0,0 0.74364,-0.19237 1.22545,-0.43119c0.48181,-0.23881 0.52444,-0.64184 0.79741,-0.44297c0.14096,0.1027 -0.20864,0.65946 -0.70473,0.86698c-0.90156,0.37711 -1.49134,0.35059 -1.49134,0.35059z" data-paper-data="{&quot;index&quot;:null}" fill="#ead42f" stroke="none" stroke-width="0" stroke-linecap="butt"/></g></g></svg>