<svg version="1.1" xmlns="http://www.w3.org/2000/svg" xmlns:xlink="http://www.w3.org/1999/xlink" width="21.54553" height="27.36664" viewBox="0,0,21.54553,27.36664"><g transform="translate(-229.30724,-163.72194)"><g data-paper-data="{&quot;isPaintingLayer&quot;:true}" fill-rule="nonzero" stroke-miterlimit="10" stroke-dasharray="" stroke-dashoffset="0" style="mix-blend-mode: normal"><path d="" fill="#000000" stroke="none" stroke-width="1" stroke-linecap="round" stroke-linejoin="round"/><path d="" fill="#ee1a40" stroke="none" stroke-width="1" stroke-linecap="round" stroke-linejoin="round"/><g stroke-width="0" stroke-linejoin="miter"><g data-paper-data="{&quot;index&quot;:null}" fill="#033397"><path d="M243.99725,185.34041c-3.03029,0 -5.48681,-2.45653 -5.48681,-5.48681c0,-3.03029 2.45653,-5.48683 5.48681,-5.48683c3.03029,0 5.48681,2.45655 5.48681,5.48683c0,3.03029 -2.45653,5.48681 -5.48681,5.48681z" stroke="none" stroke-linecap="butt"/><path d="M241.90459,184.91772c0,0 -2.26515,0.02376 -3.90049,1.50423c-1.63535,1.48049 -2.91591,4.66663 -2.91591,4.66663c0,0 -1.03649,-1.55358 -0.92573,-4.35425c0.09384,-2.37306 1.25632,-4.34857 1.25632,-4.34857c0,0 -1.81237,0.49294 -2.66302,1.07894c-1.41461,0.9745 -3.18956,3.09549 -3.18956,3.09549c0,0 -0.53265,-3.13401 1.25793,-6.81691c1.54268,-3.17302 4.32329,-4.38302 4.32329,-4.38302c0,0 -1.27192,-0.97125 -2.39798,-1.28616c-1.36765,-0.38248 -2.9853,-0.25392 -2.9853,-0.25392c0,0 3.92238,-4.28122 10.14086,-3.41328c9.04493,1.22187 9.66991,8.60589 9.66991,8.60589" stroke="#000000" stroke-linecap="round"/></g><path d="M247.33853,174.36412c0,0 1.03336,-0.09444 1.62446,-0.22426c0.54249,-0.11913 1.53438,-0.5618 1.78884,-0.52534c0.30493,0.04368 -0.15596,1.46135 -0.39339,2.16757c-0.27171,0.80823 -1.14798,2.4172 -1.14798,2.4172" data-paper-data="{&quot;index&quot;:null}" fill="#033397" stroke="#000000" stroke-linecap="round"/><path d="M249.30173,178.06231c0,0 0.36167,1.19275 0.20268,2.29232c-0.15898,1.09956 -0.92347,2.69285 -0.92347,2.69285c0,0 -0.75782,-0.57252 -0.90002,-0.60629c-1.15343,-0.27393 -2.29771,1.11457 -3.56916,0.84508c-1.27146,-0.26947 -1.92188,-1.23915 -2.37959,-2.10128c-0.45771,-0.86214 -0.35975,-2.38331 -0.06789,-3.06144c0.42169,-0.79719 1.16279,-0.95348 1.49664,-0.91352c0.38821,0.04647 1.23217,0.1775 2.06372,1.29678c0.82214,1.10657 1.05874,3.09169 1.88333,3.52389c0.24788,0.25897 0.66356,-0.30414 0.66356,-0.30414c0,0 0.15619,0.17353 0.2527,0.00769c0.30299,-0.52056 0.30567,-0.54923 0.61702,-1.41325c0.31136,-0.86402 0.6605,-2.2587 0.6605,-2.2587z" data-paper-data="{&quot;index&quot;:null}" fill="#fdfdfd" stroke="#000000" stroke-linecap="butt"/><path d="M248.51992,183.21051c0.01655,0.4059 -0.31944,0.78406 -1.24411,1.2855c-0.75937,0.41181 -2.07181,0.80449 -3.0256,0.8295c-4.00304,-0.10324 -4.67308,-3.13757 -3.30002,-3.50721c1.70483,-0.48746 2.19434,1.37102 3.7015,1.31015c1.00309,-0.04051 2.02678,-0.84451 2.7099,-0.77248c0.88119,0.07978 1.14811,0.60382 1.15833,0.85453z" data-paper-data="{&quot;index&quot;:null}" fill="#033397" stroke="#000000" stroke-linecap="butt"/><path d="M249.83005,182.13859c0.16135,0.46247 -0.13388,0.81285 -0.99254,1.03224c-0.54223,0.13854 -1.31014,0.16179 -1.31014,-0.23821c0,-0.24121 0.67319,-0.31703 1.15135,-0.47642c0.47817,-0.15939 1.10213,-0.45867 1.15135,-0.31761z" data-paper-data="{&quot;index&quot;:null}" fill="#033397" stroke="none" stroke-linecap="butt"/><path d="M244.45212,179.24647c0.28821,0.04501 0.33236,0.70485 0.20955,1.49112c-0.12281,0.78627 -0.36606,1.40122 -0.65426,1.35621c-0.3202,-0.05001 -0.33236,-0.70485 -0.20955,-1.49112c0.12281,-0.78627 0.33407,-1.40623 0.65426,-1.35622z" fill="#033397" stroke="none" stroke-linecap="butt"/><path d="M249.0083,180.81646c-0.16177,0.51763 -0.38754,0.90768 -0.57726,0.84839c-0.21079,-0.06588 -0.15319,-0.50848 0.00858,-1.02611c0.16177,-0.51763 0.36647,-0.91427 0.57726,-0.84839c0.18973,0.05928 0.15319,0.50848 -0.00858,1.02611z" fill="#033397" stroke="none" stroke-linecap="butt"/><path d="M248.13999,179.28063c0.19249,0 0.52279,0.95845 0.52279,0.95845c0,0 -0.14031,0.48078 -0.26819,0.7736c-0.12791,0.29283 -0.39401,0.74247 -0.39401,0.74247c0,0 -0.31367,0.10097 -0.31367,-0.50536c0,-0.60633 0.26058,-1.96917 0.45308,-1.96917z" data-paper-data="{&quot;index&quot;:null}" fill="#033397" stroke="none" stroke-linecap="butt"/></g><path d="M240.30711,170.90243c0.56803,-0.90182 -0.89624,0.53291 -2.09277,0.14611c-0.26897,-0.08695 2.73886,-2.00282 3.01133,-0.41233c-0.56803,0.90182 1.93048,1.14828 2.67698,1.16837c0.37914,0.0102 0.66145,0.15475 0.72184,0.69115c0.07823,0.69482 -0.98143,1.51231 -1.15892,1.46428c-0.73872,-0.24572 0.50817,-1.23272 -0.0806,-1.67822c-0.58876,-0.44551 -2.34849,-0.25088 -2.62835,-0.3716c-0.41233,-0.17785 -0.66973,-0.65817 -0.44952,-1.00776z" data-paper-data="{&quot;index&quot;:null}" fill="#f2a948" stroke="#f7d665" stroke-width="0.25" stroke-linecap="butt" stroke-linejoin="miter"/><path d="M236.14522,173.04391c0.34314,1.20977 -1.14376,2.62102 -0.22193,2.08608c0.35735,-0.20737 0.82801,0.06728 0.99079,0.48579c0.11048,0.28405 -0.14786,2.03557 0.276,2.6401c0.42386,0.60453 1.45543,-0.60572 1.6742,0.14142c0.04155,0.1791 -0.81384,1.20842 -1.50536,1.10504c-0.53386,-0.0798 -0.66807,-0.36718 -0.66451,-0.74644c0.00701,-0.74675 -0.14866,-3.25254 -1.07049,-2.71759c-1.57956,-0.32999 0.44416,-3.26635 0.52129,-2.99439z" data-paper-data="{&quot;index&quot;:null}" fill="#f2a948" stroke="#f7d665" stroke-width="0.25" stroke-linecap="butt" stroke-linejoin="miter"/><path d="M230.03981,165.62166l1.22202,-1.20436l1.6921,-0.69536l0.02327,0.54993l1.98883,2.06233l-0.37893,1.26371l-1.42032,1.38195l-1.32198,0.36433l-1.96816,-2.04089l-0.5694,-0.06464z" data-paper-data="{&quot;index&quot;:null}" fill="#272727" stroke="none" stroke-width="0" stroke-linecap="butt" stroke-linejoin="miter"/><path d="M235.35351,167.30033c0.20324,0.21104 -0.117,1.07845 -0.117,1.07845l1.05269,1.96357l-0.64338,0.59878l-1.87239,-1.19867c0,0 -0.79575,0.22378 -0.98455,0.02774c-0.1663,-0.17267 -0.49117,-0.70057 -0.49117,-0.70057c0,0 0.86945,-0.80446 1.20353,-1.12619c0.38721,-0.3729 1.22294,-1.16396 1.22294,-1.16396c0,0 0.48667,0.37271 0.62934,0.52087z" data-paper-data="{&quot;index&quot;:null}" fill="#f2a948" stroke="#f7d665" stroke-width="0.25" stroke-linecap="butt" stroke-linejoin="miter"/><path d="M235.62491,171.82891c-0.09546,-0.09898 -0.07101,-0.77422 0.36081,-1.19064c0.43182,-0.41644 1.12708,-0.39606 1.20295,-0.31738c0.07587,0.07868 0.07101,0.77422 -0.36081,1.19064c-0.43182,0.41644 -1.12708,0.39606 -1.20295,0.31738z" data-paper-data="{&quot;index&quot;:null}" fill="#f2a948" stroke="#f7d665" stroke-width="0.25" stroke-linecap="butt" stroke-linejoin="miter"/><path d="M243.51933,174.06771c0,0 -1.45378,1.2508 -2.28568,2.02056c-0.83189,0.76975 -2.24723,2.17376 -2.24723,2.17376c0,0 -4.43847,-4.73327 -2.11111,-6.82386c2.32752,-2.09074 6.64402,2.62954 6.64402,2.62954z" data-paper-data="{&quot;index&quot;:null}" fill="#f2a948" stroke="#f7d665" stroke-width="0.25" stroke-linecap="butt" stroke-linejoin="miter"/></g></g></svg>