<svg version="1.1" xmlns="http://www.w3.org/2000/svg" xmlns:xlink="http://www.w3.org/1999/xlink" width="4.75776" height="13.53232" viewBox="0,0,4.75776,13.53232"><g transform="translate(-235.42485,-180.21656)"><g data-paper-data="{&quot;isPaintingLayer&quot;:true}" fill-rule="nonzero" stroke-linejoin="miter" stroke-miterlimit="10" stroke-dasharray="" stroke-dashoffset="0" style="mix-blend-mode: normal"><path d="M238.37162,187.46858c0.85843,-0.01952 1.33822,0.26028 1.57241,0.76077c0.43648,0.93287 0.11154,3.18247 -0.54635,3.82305c-0.4081,0.39737 0.35246,-1.49363 -0.43842,-0.37345c-0.79087,1.12018 -0.06207,1.01796 -0.33965,1.62778c-0.20645,0.45359 -0.83081,0.3852 -0.90496,0.40882c-0.41288,0.13151 -0.57996,-0.147 -0.99953,-0.46882c-0.41957,-0.32182 -0.85079,-0.82701 -0.91225,-0.99759c-0.59695,-1.6569 -0.37519,-2.02011 -0.09416,-2.77697c0.49832,-1.34206 1.64567,-1.93875 1.64567,-1.93875c0,0 0.15882,-0.04534 1.01723,-0.06486z" data-paper-data="{&quot;index&quot;:null}" fill="#a8c8d8" stroke="none" stroke-width="0" stroke-linecap="butt"/><path d="M238.78929,182.69488c0.04639,1.27392 -0.00948,1.95006 -0.24189,1.959c-0.09706,0.00374 -1.01117,0.75104 -1.03387,0.12642c-0.03167,-0.87121 0.39465,-2.63595 0.36763,-3.37791c-0.02875,-0.78944 0.78576,-1.5737 1.05911,-0.97393c0.16775,0.36809 -0.1601,2.01577 -0.15097,2.26642z" fill="#f8b820" stroke="none" stroke-width="NaN" stroke-linecap="butt"/><path d="M240.12709,185.23266c0.11442,0.55787 -0.67578,1.19121 -1.76497,1.41461c-1.08918,0.22339 -2.06491,-0.04777 -2.17933,-0.60564c-0.11442,-0.55787 0.67579,-1.19121 1.76498,-1.41461c1.08918,-0.22339 2.0649,0.04778 2.17932,0.60565z" data-paper-data="{&quot;index&quot;:null}" fill="#a8c8d8" stroke="none" stroke-width="0" stroke-linecap="butt"/><path d="M240.18254,187.23896c-0.00844,0.56942 -0.91653,1.01768 -2.02827,1.00119c-1.11175,-0.01648 -2.00614,-0.49144 -1.99769,-1.06087c0.00844,-0.56942 0.91652,-1.01768 2.02826,-1.0012c1.11175,0.01648 2.00614,0.49144 1.9977,1.06087z" data-paper-data="{&quot;index&quot;:null}" fill="#a8c8d8" stroke="none" stroke-width="0" stroke-linecap="butt"/><path d="M239.64356,187.94524c0,0 -0.99135,0.25974 -1.4935,0.25974c-0.46972,0 -1.42857,-0.25974 -1.42857,-0.25974" fill="none" stroke="#707070" stroke-width="0.5" stroke-linecap="round"/></g></g></svg>