<svg version="1.1" xmlns="http://www.w3.org/2000/svg" xmlns:xlink="http://www.w3.org/1999/xlink" width="114.24216" height="25.44455" viewBox="0,0,114.24216,25.44455"><g transform="translate(-182.87892,-167.27773)"><g data-paper-data="{&quot;isPaintingLayer&quot;:true}" fill-rule="nonzero" stroke="none" stroke-linecap="butt" stroke-linejoin="miter" stroke-miterlimit="10" stroke-dasharray="" stroke-dashoffset="0" style="mix-blend-mode: normal"><g><g fill="#ff0000" stroke-width="0.26459"><path d="M182.87892,192.13054v-24.85282h9.77623v24.85282z"/><path d="M195.44836,192.13054v-24.85282h9.4969l6.14507,11.09501v-11.09501h8.37962v24.85282h-9.4969l-6.14506,-10.73997v10.73997z"/><path d="M228.96683,192.13054v-17.16028h-6.70369v-7.69254h21.22836v7.69254h-6.70369v17.16028z"/><path d="M246.28471,192.13054v-24.85282h13.68671c5.58641,0 8.37962,2.16969 8.37962,6.50907v1.18346c0,3.15591 -1.21039,5.22697 -3.63116,6.2132c0.74485,0.39449 1.48971,1.2821 2.23456,2.66281l2.23456,8.28427h-8.37961l-1.67592,-6.80493c-0.37243,-1.7752 -1.39661,-2.66281 -3.07253,-2.66281h-1.67592v9.46774zM257.73686,177.3372c1.48971,0 2.23456,-0.78897 2.23456,-2.36693v-1.18346c0,-1.18347 -0.74485,-1.7752 -2.23456,-1.7752h-3.35184v5.3256z"/><path d="M271.98222,179.99999c0,-3.9449 1.11728,-7.0515 3.35184,-9.31981c2.23456,-2.26832 5.3071,-3.40246 9.21758,-3.40246c3.91049,0 6.98302,1.13414 9.21758,3.40246c2.23456,2.26832 3.35185,5.37492 3.35185,9.31981c0,3.35316 -1.11728,6.31184 -3.35185,8.87602c-2.23456,2.56418 -5.3071,3.84626 -9.21758,3.84626c-3.91049,0 -6.98302,-1.28209 -9.21758,-3.84626c-2.23456,-2.56418 -3.35184,-5.52285 -3.35184,-8.87602zM284.27233,174.97026c-1.86213,1.18347 -3.25874,2.46556 -4.18982,3.84626c-0.93108,1.18347 -1.11728,2.66281 -0.55864,4.43801l0.55864,0.59173c0.93108,1.3807 2.51389,1.7752 4.74846,1.18347c1.86213,-1.18347 3.25873,-2.46557 4.1898,-3.84628c1.11728,-1.57796 1.11728,-3.35316 0,-5.3256l-0.55864,-0.59173c-1.11728,-0.78897 -2.51388,-0.8876 -4.1898,-0.29586z"/></g><g fill="#71ff33" stroke-width="0.26459"><path d="M185.87893,192.20031v-21.92258h9.13442v21.92258z"/><path d="M197.62318,192.20031v-21.92258h8.87343l5.74164,9.78687v-9.78687h7.82949v21.92258h-8.87343l-5.74164,-9.47369v9.47369z"/><path d="M228.94117,192.20031v-15.13702h-6.2636v-6.78556h19.83472v6.78556h-6.2636v15.13702z"/><path d="M245.12212,192.20031v-21.92258h12.78818c5.21966,0 7.82949,1.91388 7.82949,5.74163v1.04393c0,2.78382 -1.13092,4.61069 -3.39277,5.48064c0.69595,0.34798 1.39191,1.13094 2.08787,2.34885l2.08787,7.30753h-7.82949l-1.5659,-6.00261c-0.34798,-1.5659 -1.30492,-2.34885 -2.87082,-2.34885h-1.5659v8.35146zM255.82244,179.15116c1.39191,0 2.08787,-0.69595 2.08787,-2.08787v-1.04393c0,-1.04393 -0.69595,-1.5659 -2.08787,-1.5659h-3.1318v4.6977z"/><path d="M269.13258,181.5c0,-3.47978 1.04393,-6.2201 3.1318,-8.22097c2.08787,-2.00087 4.95869,-3.0013 8.61245,-3.0013c3.65376,0 6.52459,1.00042 8.61245,3.0013c2.08787,2.00087 3.1318,4.74119 3.1318,8.22097c0,2.95781 -1.04393,5.56766 -3.1318,7.82951c-2.08787,2.26185 -4.95869,3.39277 -8.61245,3.39277c-3.65376,0 -6.52459,-1.13092 -8.61245,-3.39277c-2.08787,-2.26185 -3.1318,-4.87169 -3.1318,-7.82951zM280.61586,177.06328c-1.73988,1.04393 -3.04481,2.17486 -3.91475,3.39277c-0.86995,1.04393 -1.04393,2.34885 -0.52197,3.91475l0.52197,0.52197c0.86995,1.21792 2.34885,1.5659 4.43672,1.04393c1.73988,-1.04393 3.04479,-2.17487 3.91474,-3.39279c1.04393,-1.39191 1.04393,-2.95781 0,-4.6977l-0.52197,-0.52197c-1.04393,-0.69595 -2.34884,-0.78294 -3.91474,-0.26098z"/></g></g></g></g></svg>