<svg version="1.1" xmlns="http://www.w3.org/2000/svg" xmlns:xlink="http://www.w3.org/1999/xlink" width="422.35227" height="53.22557" viewBox="0,0,422.35227,53.22557"><g transform="translate(-35.75098,-106.46364)"><g data-paper-data="{&quot;isPaintingLayer&quot;:true}" fill-rule="nonzero" stroke-linecap="butt" stroke-linejoin="miter" stroke-dasharray="" stroke-dashoffset="0" style="mix-blend-mode: normal"><path d="M36.91179,159.14556v-22.83469h13.32023c5.43683,0 8.15526,1.99351 8.15526,5.9805v1.08737c0,4.34946 -2.71843,6.5242 -8.15526,6.5242h-5.43683v9.24263zM48.05729,145.55343c1.44981,0 2.17473,-0.72492 2.17473,-2.17473v-1.08737c0,-1.08737 -0.72492,-1.63104 -2.17473,-1.63104h-3.2621v4.89313z" fill="#ffffff" stroke="none" stroke-width="0.26458" stroke-miterlimit="10"/><path d="M91.3345,148.00005c0,-3.62455 1.08737,-6.4789 3.2621,-8.56303c2.17473,-2.08412 5.165,-3.12617 8.97076,-3.12617c3.2621,0 5.52744,0.09061 6.79603,0.27183l-2.44657,7.61156l-0.54367,-0.54367c-1.08737,-0.72492 -2.44657,-0.81553 -4.07763,-0.27186c-1.81229,1.08737 -3.17149,2.26537 -4.07763,3.53396c-0.90614,1.08737 -1.08737,2.44657 -0.54367,4.0776l0.54367,0.5437c0.90614,1.26859 2.44657,1.63106 4.6213,1.08737c1.81229,-1.08737 3.17149,-2.26534 4.07763,-3.53393l3.2621,9.51443c-1.26859,0.72492 -3.80579,1.08737 -7.61156,1.08737c-3.80579,0 -6.79603,-1.17798 -8.97076,-3.53393c-2.17473,-2.35596 -3.2621,-5.07436 -3.2621,-8.15523z" fill="#ffffff" stroke="none" stroke-width="0.26458" stroke-miterlimit="10"/><path d="M113.89735,159.14556v-22.83469h8.15526v7.8834h5.43683v-7.8834h8.15526v22.83469h-8.15526v-7.8834h-5.43683v7.8834z" fill="#ffffff" stroke="none" stroke-width="0.26458" stroke-miterlimit="10"/><path d="M138.36311,159.14556l6.79603,-22.83469h12.23286l6.79603,22.83469h-7.8834l-1.3592,-4.34946h-7.61156l-1.08737,4.34946zM153.31437,148.81552l-2.0388,-6.79603l-2.0388,6.79603z" fill="#ffffff" stroke="none" stroke-width="0.26458" stroke-miterlimit="10"/><path d="M166.90646,159.14556v-22.83469h13.32023c5.43683,0 8.15526,1.99351 8.15526,5.9805v1.08737c0,2.89965 -1.17798,4.80255 -3.53393,5.70869c0.72492,0.36245 1.44981,1.17798 2.17473,2.44657l2.17473,7.61156h-8.15526l-1.63104,-6.25236c-0.36245,-1.63104 -1.3592,-2.44657 -2.99026,-2.44657h-1.63104v8.69893zM178.05199,145.55343c1.44981,0 2.17473,-0.72492 2.17473,-2.17473v-1.08737c0,-1.08737 -0.72492,-1.63104 -2.17473,-1.63104h-3.2621v4.89313z" fill="#ffffff" stroke="none" stroke-width="0.26458" stroke-miterlimit="10"/><path d="M191.91591,159.14556l6.79603,-22.83469h12.23286l6.79603,22.83469h-7.8834l-1.3592,-4.34946h-7.61156l-1.08737,4.34946zM206.86719,148.81552l-2.0388,-6.79603l-2.0388,6.79603z" fill="#ffffff" stroke="none" stroke-width="0.26458" stroke-miterlimit="10"/><path d="M220.45927,148.00005c0,-3.62455 1.08737,-6.4789 3.2621,-8.56303c2.17473,-2.08412 5.165,-3.12617 8.97076,-3.12617c3.2621,0 5.52747,0.09061 6.79606,0.27183l-2.44659,7.61156l-0.54367,-0.54367c-1.08737,-0.72492 -2.44659,-0.81553 -4.07763,-0.27186c-1.81229,1.08737 -3.17149,2.26537 -4.07763,3.53396c-0.90614,1.08737 -1.08737,2.44657 -0.54367,4.0776l0.54367,0.5437c0.90614,1.26859 2.44657,1.63106 4.6213,1.08737c1.81229,-1.08737 3.17149,-2.26534 4.07763,-3.53393l3.2621,9.51443c-1.26859,0.72492 -3.80577,1.08737 -7.61156,1.08737c-3.80577,0 -6.79603,-1.17798 -8.97076,-3.53393c-2.17473,-2.35596 -3.2621,-5.07436 -3.2621,-8.15523z" fill="#ffffff" stroke="none" stroke-width="0.26458" stroke-miterlimit="10"/><path d="M249.54632,159.14556v-15.76682h-6.5242v-7.06787h20.65996v7.06787h-6.5242v15.76682z" fill="#ffffff" stroke="none" stroke-width="0.26458" stroke-miterlimit="10"/><path d="M266.40051,159.14556v-22.83469h19.02892v6.5242h-10.87366v1.63104h10.87366v6.5242h-10.87366v1.63106h10.87366v6.5242z" fill="#ffffff" stroke="none" stroke-width="0.26458" stroke-miterlimit="10"/><path d="M288.14786,159.14556v-22.83469h13.32023c5.43683,0 8.15526,1.99351 8.15526,5.9805v1.08737c0,2.89965 -1.17798,4.80255 -3.53396,5.70869c0.72492,0.36245 1.44981,1.17798 2.17473,2.44657l2.17473,7.61156h-8.15523l-1.63106,-6.25236c-0.36245,-1.63104 -1.3592,-2.44657 -2.99026,-2.44657h-1.63104v8.69893zM299.29335,145.55343c1.44981,0 2.17473,-0.72492 2.17473,-2.17473v-1.08737c0,-1.08737 -0.72492,-1.63104 -2.17473,-1.63104h-3.2621v4.89313z" fill="#ffffff" stroke="none" stroke-width="0.26458" stroke-miterlimit="10"/><path d="M329.25028,159.14556c-0.90614,-0.18122 -1.63104,-0.36245 -2.17473,-0.5437l1.08737,-5.43683l3.26212,0.27186c2.53718,0.18122 4.53069,0.18122 5.9805,0c0.72492,-0.36247 1.08737,-0.90614 1.08737,-1.63106c-0.18122,-0.72492 -1.81226,-1.08737 -4.89313,-1.08737c-2.71843,-0.36245 -4.62133,-1.3592 -5.70869,-2.99026c-0.5437,-1.26859 -0.81553,-2.7184 -0.81553,-4.34946c0,-2.53718 0.90614,-4.44008 2.71843,-5.70867c1.26859,-0.90614 3.53393,-1.3592 6.79603,-1.3592c3.2621,0 6.5242,0.27183 9.7863,0.8155l-1.08737,5.165c-3.80577,-0.18122 -6.43359,-0.27183 -7.8834,-0.27183c-1.26859,0.18122 -1.9029,0.63428 -1.9029,1.3592c-0.18122,1.26859 0.81553,1.9029 2.99026,1.9029c3.08088,0 5.34622,0.5437 6.79603,1.63106c1.08737,0.90614 1.63106,2.44657 1.63106,4.6213c0,1.88478 -0.45306,3.51581 -1.3592,4.89313c-0.90614,1.63106 -3.17151,2.62782 -6.79606,2.99026c-3.08088,0.18122 -6.25236,0.09061 -9.51446,-0.27183z" fill="#ffffff" stroke="none" stroke-width="0.26458" stroke-miterlimit="10"/><path d="M349.63843,159.14556v-22.83469h19.0289v6.5242h-10.87366v1.63104h10.87366v6.5242h-10.87366v1.63106h10.87366v6.5242z" fill="#ffffff" stroke="none" stroke-width="0.26458" stroke-miterlimit="10"/><path d="M371.38575,159.14556v-22.83469h8.15526v16.31049h10.87366v6.5242z" fill="#ffffff" stroke="none" stroke-width="0.26458" stroke-miterlimit="10"/><path d="M393.13307,159.14556v-22.83469h19.02892v6.5242h-10.87366v1.63104h10.87366v6.5242h-10.87366v1.63106h10.87366v6.5242z" fill="#ffffff" stroke="none" stroke-width="0.26458" stroke-miterlimit="10"/><path d="M414.88043,148.00005c0,-3.62455 1.08737,-6.4789 3.2621,-8.56303c2.17473,-2.08412 5.165,-3.12617 8.97076,-3.12617c3.2621,0 5.52747,0.09061 6.79606,0.27183l-2.44659,7.61156l-0.54367,-0.54367c-1.08737,-0.72492 -2.44659,-0.81553 -4.07763,-0.27186c-1.81229,1.08737 -3.17149,2.26537 -4.07763,3.53396c-0.90614,1.08737 -1.08737,2.44657 -0.54367,4.0776l0.54367,0.5437c0.90614,1.26859 2.44657,1.63106 4.6213,1.08737c1.81229,-1.08737 3.17149,-2.26534 4.07763,-3.53393l3.2621,9.51443c-1.26859,0.72492 -3.80577,1.08737 -7.61156,1.08737c-3.80577,0 -6.79603,-1.17798 -8.97076,-3.53393c-2.17473,-2.35596 -3.2621,-5.07436 -3.2621,-8.15523z" fill="#ffffff" stroke="none" stroke-width="0.26458" stroke-miterlimit="10"/><path d="M443.96749,159.14556v-15.76682h-6.5242v-7.06787h20.65996v7.06787h-6.5242v15.76682z" fill="#ffffff" stroke="none" stroke-width="0.26458" stroke-miterlimit="10"/><g fill="none" stroke="#ff0000" stroke-width="7.5" stroke-miterlimit="10"><path d="M39.50098,121.00009c0,-5.2467 4.52165,-9.5 10.09938,-9.5c5.57773,0 13.8399,9.5 13.8399,9.5c0,0 -8.26216,9.5 -13.8399,9.5c-5.57773,0 -10.09938,-4.2533 -10.09938,-9.5z"/><path d="M75.78395,130.5c-5.57773,0 -13.8399,-9.5 -13.8399,-9.5c0,0 8.26216,-9.5 13.8399,-9.5c5.57773,0 10.09938,4.2533 10.09938,9.5c0,5.2467 -4.52165,9.5 -10.09938,9.5z" data-paper-data="{&quot;index&quot;:null}"/></g><g fill="#ff0000" stroke="none" stroke-width="0.26459" stroke-miterlimit="4"><path d="M97.26761,135.0822v-28.61856h21.13493v8.17673h-12.07709v2.04417h12.07709v8.17673h-12.07709v2.0442h12.07709v8.17673z"/><path d="M121.42182,135.0822v-28.61856h10.26553l6.6424,12.77615v-12.77615h9.05782v28.61856h-10.26553l-6.6424,-12.36732v12.36732z"/><path d="M162.48395,126.90553c1.40899,0 2.51606,-0.45425 3.32119,-1.36279c0.80513,-0.90854 1.20771,-2.27132 1.20771,-4.08836v-1.70351c0,-1.81704 -0.40258,-3.23663 -1.20771,-4.2587c-0.80513,-1.0221 -1.91221,-1.53315 -3.32119,-1.53315h-3.01927v12.94651zM150.40686,106.46372h12.07709c4.22698,0 7.54819,1.30599 9.96361,3.91801c2.41542,2.61201 3.62313,6.18933 3.62313,10.73194c0,3.86124 -1.20771,7.15466 -3.62313,9.88024c-2.41542,2.72558 -5.73663,4.08837 -9.96361,4.08837h-12.07709z"/><path d="M179.08997,135.0822v-28.61856h9.05782v20.44183h12.07709v8.17673z"/><path d="M203.24417,135.0822v-28.61856h21.13492v8.17673h-12.07709v2.04417h12.07709v8.17673h-12.07709v2.0442h12.07709v8.17673z"/><path d="M229.81378,135.0822c-1.00643,-0.22713 -1.81157,-0.45425 -2.41542,-0.68141l1.20771,-6.81394l3.62313,0.34069c2.81799,0.22713 5.03213,0.22713 6.64242,0c0.80513,-0.45425 1.20771,-1.13563 1.20771,-2.04417c-0.20128,-0.90854 -2.01286,-1.36279 -5.43471,-1.36279c-3.01927,-0.45428 -5.13275,-1.70351 -6.34047,-3.74768c-0.60385,-1.58991 -0.90579,-3.40699 -0.90579,-5.45115c0,-3.17983 1.00643,-5.56472 3.01928,-7.15463c1.40899,-1.13566 3.92506,-1.70348 7.54819,-1.70348c3.62313,0 7.24626,0.34069 10.86939,1.02207l-1.20771,6.47325c-4.22698,-0.22713 -7.1456,-0.34069 -8.75589,-0.34069c-1.40899,0.22713 -2.1135,0.79494 -2.1135,1.70348c-0.20128,1.58991 0.90579,2.38489 3.3212,2.38489c3.42185,0 5.93789,0.68137 7.54818,2.04417c1.20771,1.13566 1.81157,3.0663 1.81157,5.79187c0,2.36214 -0.5032,4.40634 -1.50963,6.13253c-1.00643,2.0442 -3.52249,3.29342 -7.54819,3.74767c-3.42185,0.22713 -6.94434,0.1134 -10.56747,-0.34068z"/><path d="M254.87376,135.0822c-1.00643,-0.22713 -1.81157,-0.45425 -2.41542,-0.68141l1.20771,-6.81394l3.62313,0.34069c2.81799,0.22713 5.03213,0.22713 6.6424,0c0.80515,-0.45425 1.20771,-1.13563 1.20771,-2.04417c-0.20128,-0.90854 -2.01284,-1.36279 -5.4347,-1.36279c-3.01927,-0.45428 -5.13277,-1.70351 -6.34048,-3.74768c-0.60385,-1.58991 -0.90577,-3.40699 -0.90577,-5.45115c0,-3.17983 1.00643,-5.56472 3.01927,-7.15463c1.40899,-1.13566 3.92505,-1.70348 7.54818,-1.70348c3.62313,0 7.24626,0.34069 10.86939,1.02207l-1.20771,6.47325c-4.22697,-0.22713 -7.14562,-0.34069 -8.75589,-0.34069c-1.40899,0.22713 -2.1135,0.79494 -2.1135,1.70348c-0.20128,1.58991 0.90579,2.38489 3.32121,2.38489c3.42185,0 5.9379,0.68137 7.54817,2.04417c1.20771,1.13566 1.81158,3.0663 1.81158,5.79187c0,2.36214 -0.5032,4.40634 -1.50963,6.13253c-1.00643,2.0442 -3.52252,3.29342 -7.54821,3.74767c-3.42185,0.22713 -6.94432,0.1134 -10.56745,-0.34068z"/></g><g fill="#71ff33" stroke="none" stroke-width="0.26459" stroke-miterlimit="4"><path d="M101.31843,133.90925v-24.20255h20.16881v6.91502h-11.52503v1.72874h11.52503v6.91502h-11.52503v1.72877h11.52503v6.91502z"/><path d="M124.36849,133.90925v-24.20255h9.79627l6.33876,10.80471v-10.80471h8.64377v24.20255h-9.79627l-6.33876,-10.45897v10.45897z"/><path d="M163.55359,126.99428c1.34458,0 2.40104,-0.38416 3.16937,-1.1525c0.76833,-0.76834 1.1525,-1.92085 1.1525,-3.45751v-1.44065c0,-1.53666 -0.38417,-2.7372 -1.1525,-3.60155c-0.76833,-0.86438 -1.82479,-1.29658 -3.16937,-1.29658h-2.88126v10.94879zM152.02855,109.70677h11.52503c4.03376,0 7.20315,1.10447 9.50815,3.31343c2.30501,2.20897 3.45751,5.23428 3.45751,9.07595c0,3.26543 -1.1525,6.05066 -3.45751,8.35566c-2.30501,2.30501 -5.47439,3.45751 -9.50815,3.45751h-11.52503z"/><path d="M179.40051,133.90925v-24.20255h8.64377v17.28754h11.52503v6.91502z"/><path d="M202.45057,133.90925v-24.20255h20.16879v6.91502h-11.52503v1.72874h11.52503v6.91502h-11.52503v1.72877h11.52503v6.91502z"/><path d="M227.80563,133.90925c-0.96042,-0.19208 -1.72875,-0.38416 -2.30501,-0.57627l1.1525,-5.76251l3.45751,0.28812c2.68918,0.19208 4.8021,0.19208 6.33878,0c0.76833,-0.38416 1.1525,-0.9604 1.1525,-1.72874c-0.19208,-0.76834 -1.92085,-1.1525 -5.18628,-1.1525c-2.88126,-0.38419 -4.89813,-1.44065 -6.05063,-3.16939c-0.57625,-1.34458 -0.86438,-2.88127 -0.86438,-4.61001c0,-2.68916 0.96042,-4.70605 2.88126,-6.05063c1.34458,-0.96042 3.74564,-1.44062 7.20315,-1.44062c3.45751,0 6.91502,0.28812 10.37252,0.86436l-1.1525,5.47439c-4.03376,-0.19208 -6.81896,-0.28812 -8.35564,-0.28812c-1.34458,0.19208 -2.01689,0.67228 -2.01689,1.44062c-0.19208,1.34458 0.86438,2.01689 3.16939,2.01689c3.26543,0 5.66646,0.57624 7.20313,1.72874c1.1525,0.96042 1.72875,2.59315 1.72875,4.89816c0,1.99765 -0.4802,3.72642 -1.44062,5.18625c-0.96042,1.72877 -3.36147,2.78523 -7.20315,3.16939c-3.26543,0.19208 -6.6269,0.0959 -10.0844,-0.28812z"/><path d="M251.72006,133.90925c-0.96042,-0.19208 -1.72875,-0.38416 -2.30501,-0.57627l1.1525,-5.76251l3.45751,0.28812c2.68918,0.19208 4.8021,0.19208 6.33876,0c0.76834,-0.38416 1.1525,-0.9604 1.1525,-1.72874c-0.19208,-0.76834 -1.92082,-1.1525 -5.18626,-1.1525c-2.88126,-0.38419 -4.89814,-1.44065 -6.05065,-3.16939c-0.57625,-1.34458 -0.86437,-2.88127 -0.86437,-4.61001c0,-2.68916 0.96042,-4.70605 2.88126,-6.05063c1.34458,-0.96042 3.74563,-1.44062 7.20313,-1.44062c3.45751,0 6.91502,0.28812 10.37252,0.86436l-1.1525,5.47439c-4.03374,-0.19208 -6.81898,-0.28812 -8.35564,-0.28812c-1.34458,0.19208 -2.01689,0.67228 -2.01689,1.44062c-0.19208,1.34458 0.86438,2.01689 3.16939,2.01689c3.26543,0 5.66647,0.57624 7.20313,1.72874c1.1525,0.96042 1.72877,2.59315 1.72877,4.89816c0,1.99765 -0.4802,3.72642 -1.44062,5.18625c-0.96042,1.72877 -3.3615,2.78523 -7.20316,3.16939c-3.26543,0.19208 -6.62688,0.0959 -10.08439,-0.28812z"/></g><g fill="none" stroke="#71ff33" stroke-width="5" stroke-miterlimit="10"><path d="M42.13333,122.00009c0,-4.69442 4.04569,-8.5 9.03629,-8.5c4.9906,0 12.38306,8.5 12.38306,8.5c0,0 -7.39246,8.5 -12.38306,8.5c-4.9906,0 -9.03629,-3.80558 -9.03629,-8.5z"/><path d="M74.59704,130.50005c-4.99061,0 -12.38306,-8.5 -12.38306,-8.5c0,0 7.39246,-8.5 12.38306,-8.5c4.99061,0 9.03629,3.80558 9.03629,8.5c0,4.69442 -4.04568,8.5 -9.03629,8.5z" data-paper-data="{&quot;index&quot;:null}"/></g><path d="M60.38267,136.43401c1.83188,-0.18319 3.93854,-0.36637 6.31997,-0.54955c2.931,0 5.40403,0.27477 7.41909,0.82432c2.931,0.54958 4.76286,2.10666 5.49562,4.6713c0,4.21331 -1.28231,6.31997 -3.84694,6.31997c2.38143,0.18319 3.66373,1.46549 3.84694,3.84692v0.82435c0,3.11419 -1.05331,5.03763 -3.15997,5.77039c-2.10665,0.73276 -5.35822,1.19071 -9.75474,1.3739c-2.01506,0 -4.12172,-0.18318 -6.31997,-0.54955l2.19825,-6.0452c1.83188,0.73276 3.38896,0.96173 4.67127,0.68695c1.28231,-0.27478 2.01506,-1.05331 2.19825,-2.33562c-0.18319,-0.91594 -0.91594,-1.41971 -2.19824,-1.5113c-1.28231,-0.09164 -3.0226,0.04576 -5.22085,0.41218v-4.12172c2.19825,0.18319 3.93854,0.18319 5.22085,0c1.28231,-0.18319 2.01506,-0.82435 2.19825,-1.92347c-0.36637,-1.28231 -1.32812,-1.87766 -2.8852,-1.78607c-1.55708,0.09164 -2.97679,0.50381 -4.25909,1.23652z" fill="#ffffff" stroke="none" stroke-width="0.26458" stroke-miterlimit="10"/></g></g></svg>