<svg version="1.1" xmlns="http://www.w3.org/2000/svg" xmlns:xlink="http://www.w3.org/1999/xlink" width="25.09301" height="43.97171" viewBox="0,0,25.09301,43.97171"><g transform="translate(-226.45584,-165.27996)"><g data-paper-data="{&quot;isPaintingLayer&quot;:true}" fill-rule="nonzero" stroke-linejoin="miter" stroke-miterlimit="10" stroke-dasharray="" stroke-dashoffset="0" style="mix-blend-mode: normal"><g data-paper-data="{&quot;index&quot;:null}" stroke="none" stroke-linecap="round"><path d="M233.35195,179.26671c0.44004,0.24555 0.90494,0.47738 1.40092,0.62972c0.65338,0.20072 1.5122,-0.00697 2.01474,0.41031c0.31141,0.25885 0.24613,1.00585 -0.15212,1.09629c-0.86217,0.18202 -1.81557,-0.25635 -2.70989,-0.4892c-0.41334,-0.10806 -0.87144,-0.23698 -1.26092,-0.44467c-0.53071,-0.28596 -1.34597,-0.52271 -1.5604,-1.0693c-0.17317,-0.45613 0.08703,-1.19905 0.57057,-1.23018c0.64655,-0.04182 1.1017,0.76545 1.69711,1.09704z" data-paper-data="{&quot;index&quot;:null}" fill="#089c4e" stroke-width="0.65663"/><path d="M228.11091,175.16993c0.43795,-0.25626 0.448,-0.45818 0.83801,-0.30272c0.72606,0.40225 0.2817,1.04526 0.39784,1.01165c0.11479,-0.03346 -0.83483,-1.21443 0.16581,-1.62286c0.48062,-0.22073 1.28421,1.09774 1.73805,1.60631c0.15657,0.18742 0.29433,0.48964 0.54013,0.7566c0.2458,0.26696 0.45732,0.29663 0.67445,0.5626c0.21712,0.26595 0.5734,0.80496 0.55303,0.9409c-0.11594,0.4641 0.11101,-0.02748 -0.24949,0.68738c-0.3605,0.71486 -0.54573,1.00646 -0.93947,1.55918c-0.39375,0.55271 -0.1563,0.52564 -0.47842,0.62915c-0.22908,0.07342 -0.88813,-0.31151 -1.21313,-0.71326c-0.325,-0.40175 -0.73457,-0.52669 -1.19571,-0.75321c-0.46113,-0.22652 -1.48854,-0.19277 -2.25405,-1.03854c-0.43489,-0.47984 -0.19164,-1.22301 0.18103,-1.93598c0.31334,-0.59851 0.74358,-1.06037 1.24193,-1.38721z" fill="#ffffff" stroke-width="0.67216"/></g><g data-paper-data="{&quot;index&quot;:null}" stroke="none" stroke-linecap="round"><path d="M245.7375,177.8957c0.48353,0.03114 0.74374,0.77405 0.57057,1.23018c-0.21443,0.54659 -1.02969,0.78334 -1.5604,1.0693c-0.38949,0.2077 -0.84758,0.33662 -1.26092,0.44467c-0.89432,0.23285 -1.84772,0.67122 -2.70989,0.4892c-0.39826,-0.09044 -0.46353,-0.83745 -0.15212,-1.09629c0.50254,-0.41728 1.36136,-0.20959 2.01474,-0.41031c0.49598,-0.15233 0.96087,-0.38417 1.40092,-0.62972c0.5954,-0.33158 1.05057,-1.13886 1.69711,-1.09704z" data-paper-data="{&quot;index&quot;:null}" fill="#089c4e" stroke-width="0.65663"/><path d="M249.28142,174.89594c0.49835,0.32684 0.92859,0.7887 1.24193,1.38721c0.37267,0.71297 0.61592,1.45614 0.18103,1.93598c-0.76551,0.84578 -1.79292,0.81203 -2.25405,1.03854c-0.46114,0.22653 -0.87071,0.35146 -1.19571,0.75321c-0.325,0.40175 -0.98404,0.78668 -1.21312,0.71326c-0.32212,-0.10351 -0.08467,-0.07644 -0.47842,-0.62915c-0.39374,-0.55272 -0.57897,-0.84432 -0.93947,-1.55917c-0.3605,-0.71485 -0.13355,-0.22328 -0.24949,-0.68738c-0.02037,-0.13594 0.33591,-0.67495 0.55303,-0.9409c0.21713,-0.26596 0.42864,-0.29563 0.67444,-0.56259c0.2458,-0.26696 0.38357,-0.56918 0.54014,-0.75661c0.45383,-0.50858 1.25743,-1.82705 1.73805,-1.60631c1.00064,0.40842 0.05102,1.5894 0.16581,1.62286c0.11614,0.0336 -0.32821,-0.60941 0.39784,-1.01166c0.39001,-0.15546 0.40006,0.04646 0.83801,0.30272z" fill="#ffffff" stroke-width="0.67216"/></g><g><path d="M238.93225,184.25103c-1.02382,0.00062 -1.64726,-0.38497 -1.96559,-0.77902c-0.36647,-0.46515 -0.2135,-1.17904 -0.22234,-1.77142c-0.0158,-1.0614 0.05457,-2.13966 0.27371,-3.17907c0.0547,-0.25969 0.2503,-0.28653 0.41092,-0.27851c0.67276,0.00223 1.4296,-0.05053 1.97088,0.30804c0.54201,0.35989 0.7762,1.05702 1.05897,1.64285c0.30997,0.6359 1.20398,2.65317 0.86025,3.27548c-0.50055,0.90165 -1.36298,0.78105 -2.38679,0.78167z" data-paper-data="{&quot;index&quot;:null}" fill="#089c4e" stroke="none" stroke-width="0.49091" stroke-linecap="round"/><path d="M239.55725,180.89029c0.00227,0.23544 -0.18675,0.42813 -0.42219,0.4304c-0.23544,0.00227 -0.42813,-0.18677 -0.4304,-0.42221c-0.00227,-0.23544 0.18676,-0.42813 0.4222,-0.4304c0.23543,-0.00226 0.42812,0.18676 0.43039,0.42221z" data-paper-data="{&quot;index&quot;:null}" fill="#ffffff" stroke="none" stroke-width="0" stroke-linecap="butt"/><path d="M240.38046,179.64863l1.78611,1.6012l-2.06572,-1.05384l-1.02334,1.14825l-0.89631,-1.34857l-1.81075,1.32358l0.55782,-1.30467l-1.65511,0.54327c0,0 2.11876,-1.83513 3.09021,-1.78099c0.7792,0.04343 2.22151,0.43699 2.22151,0.43699l1.54387,0.90827z" data-paper-data="{&quot;index&quot;:null}" fill="#cf0000" stroke="none" stroke-width="0" stroke-linecap="butt"/><path d="M239.09045,182.58866c0.8939,0.01054 2.35379,0.07295 2.30966,0.3655c-0.04413,0.29254 -1.36159,0.03254 -2.26166,0.02194c-0.90007,-0.01062 -2.3215,0.21706 -2.27737,-0.07548c0.04413,-0.29254 1.33546,-0.3225 2.22935,-0.31196z" data-paper-data="{&quot;index&quot;:null}" fill="#000000" stroke="#000000" stroke-width="0" stroke-linecap="butt"/><path d="M239.71473,182.08414c0.00227,0.23544 -0.18677,0.42813 -0.42221,0.43041c-0.23543,0.00226 -0.42811,-0.18677 -0.43039,-0.42221c-0.00226,-0.23543 0.18675,-0.42811 0.42219,-0.43038c0.23544,-0.00227 0.42813,0.18675 0.4304,0.42219z" data-paper-data="{&quot;index&quot;:null}" fill="#ffffff" stroke="none" stroke-width="0" stroke-linecap="butt"/><path d="M237.96402,184.46705c-0.42351,-0.07575 -0.93799,-1.1289 -0.93799,-1.1289l4.15926,-0.01114c0,0 0.40747,-0.42121 -0.09074,0.32398c-0.72431,1.07815 -1.98807,0.962 -3.13052,0.81607z" data-paper-data="{&quot;index&quot;:null}" fill="#f8b820" stroke="none" stroke-width="0.49091" stroke-linecap="round"/></g><g stroke="none" stroke-width="1" stroke-linecap="round"><path d="M234.35717,192.3252c0.77276,-0.50223 0.98449,1.78373 1.7795,2.36137c0.7598,0.55245 2.1738,0.13391 2.66192,0.93616c1.15231,1.89513 -1.39758,5.31421 -2.35882,7.83396c-0.96123,2.51976 -3.40359,4.62647 -4.51657,5.63432c-0.70756,0.64073 -0.16168,-2.35029 -0.61153,-2.09841c-0.37557,0.21259 -0.78081,2.31351 -1.31561,2.25799c-1.07121,-0.6588 0.3607,-2.64599 -0.36814,-3.889c-0.93505,-0.92336 0.97207,-5.67462 1.17205,-7.13194c0.9348,-2.11217 1.91051,-4.83351 3.55721,-5.90444z" data-paper-data="{&quot;index&quot;:null}" fill="#f8f8f8"/><path d="M239.09652,185.75474c0.36148,4.39318 1.10885,7.6812 -0.40943,12.90347c-0.11594,1.09558 -0.05626,-1.94763 -1.09758,-2.15117c-1.36311,-0.26539 -2.60778,1.58855 -3.95851,1.31623c-0.68448,-0.09333 0.39277,-2.11153 -0.11178,-2.04757c-0.88372,0.11402 -3.20797,3.53893 -2.7175,2.42182c1.98621,-4.51468 4.75494,-9.24371 7.60594,-13.54188c0.71242,-1.07453 0.59892,0.00072 0.68884,1.09909z" data-paper-data="{&quot;index&quot;:null}" fill="#f8b820"/></g><g stroke="none" stroke-width="1" stroke-linecap="round"><path d="M240.03928,192.46633c0.38563,-0.83706 1.78433,0.98339 2.76493,1.04779c0.93737,0.06187 1.91001,-1.04653 2.75087,-0.62842c1.98572,0.98807 1.65324,5.2403 2.18461,7.88432c0.53138,2.64401 -0.41035,5.72891 -0.81396,7.17513c-0.25659,0.91943 -1.3907,-1.90157 -1.63678,-1.44853c-0.20423,0.38017 0.57394,2.37331 0.09199,2.61168c-1.2575,0.01432 -1.10664,-2.43037 -2.38627,-3.09283c-1.28349,-0.28207 -2.30819,-5.81072 -2.91658,-7.14999c-0.23713,-3.08506 -0.86018,-4.61479 -0.03881,-6.39913z" data-paper-data="{&quot;index&quot;:null}" fill="#f8f8f8"/><path d="M240.54219,184.38057c2.64962,3.5228 5.5248,6.67567 6.44082,10.891c0.48646,0.98847 -0.98942,-1.37629 -1.97874,-0.99286c-1.29448,0.50279 -1.35808,2.73489 -2.64579,3.22522c-0.62871,0.28625 -0.79437,-1.99544 -1.18698,-1.67216c-0.68661,0.56793 -0.82511,4.7047 -1.00629,3.4982c-0.72881,-4.87814 -0.91014,-10.21807 -0.79202,-15.37447c0.02927,-1.28891 0.50694,-0.45592 1.169,0.42509z" data-paper-data="{&quot;index&quot;:null}" fill="#f8b820"/></g><path d="M236.32531,167.19988c1.33169,0.33995 3.9204,0.18535 4.19574,-0.07062c0.51265,-0.47658 1.88623,-1.50995 1.88623,-1.50995c0,0 2.91197,-0.54598 3.74408,-0.25288c1.06407,0.37481 2.21642,3.88852 2.21642,3.88852c0,0 -4.52832,-0.8272 -5.61599,0.11733c-1.08767,0.94454 -0.25493,0.9048 -0.21491,1.42655c0.13574,1.81147 1.51317,3.77728 0.71549,5.40861c-0.67533,1.37878 -2.83525,1.6166 -4.40944,1.75553c-1.94913,0.17261 -4.53432,0.68475 -5.82973,-0.78373c-1.58484,-1.79656 -0.18394,-4.14307 -0.55572,-6.5289c-0.09261,-0.59601 0.59957,-3.98348 1.53523,-3.76819c0,0 1.73055,0.16405 2.33259,0.31773z" fill="#f8b820" stroke="none" stroke-width="1" stroke-linecap="round"/><path d="M229.30056,169.52441c0.3973,-0.09143 4.86378,-2.34061 5.18896,-2.02961c0.37446,0.38873 1.08648,0.79254 1.15863,1.26816c0.04109,0.27568 -0.78723,0.86222 -0.9974,1.07891c-0.27074,0.27326 -0.39173,0.80479 -0.7589,0.69474c-0.3637,-0.11047 -1.76918,0.12357 -1.46628,-0.01221z" fill="#ffffff" stroke="none" stroke-width="0.85185" stroke-linecap="butt"/><path d="M231.03708,174.71941c0.4256,-0.05709 0.87864,-0.06668 1.27776,0.16576c0.79616,0.4644 1.47185,1.3075 2.23268,1.89109c0.50327,0.38639 0.98681,0.97108 1.54283,0.9583c0.56767,-0.00066 2.39133,-0.42753 2.94502,-0.62967c1.11329,-0.15736 0.84374,2.10955 0.54375,2.5221c-0.65668,0.90227 -1.62088,0.02421 -2.51367,0.28466c-0.83873,0.29169 -1.73386,-0.01719 -2.58847,-0.32269c-0.67041,-0.238 -1.19056,-1.02014 -1.88651,-1.27264c-0.65389,-0.23632 -1.99037,0.23641 -2.02012,-0.11933c-0.02964,-0.35475 1.6204,-0.83222 1.93933,-1.68773c0.14177,-0.41082 -0.64781,-0.65043 -1.01923,-0.84455c-0.53486,-0.2926 -1.5962,-0.2867 -1.68732,-0.46244c-0.09111,-0.17574 0.83506,-0.42988 1.23395,-0.48287z" fill="#f8f8f8" stroke="none" stroke-width="1" stroke-linecap="round"/><path d="M246.14973,174.59442c0.39889,0.05299 1.32506,0.30713 1.23395,0.48287c-0.09112,0.17574 -1.15246,0.16984 -1.68732,0.46244c-0.37142,0.19413 -1.161,0.43373 -1.01923,0.84455c0.31894,0.8555 1.96897,1.33298 1.93933,1.68773c-0.02975,0.35574 -1.36623,-0.117 -2.02012,0.11933c-0.69594,0.2525 -1.21609,1.03464 -1.88651,1.27264c-0.85461,0.3055 -1.74974,0.61437 -2.58847,0.32269c-0.89279,-0.26045 -1.85698,0.6176 -2.51367,-0.28466c-0.29999,-0.41255 0.64607,-2.37655 1.46967,-2.41099c0.51666,0.01694 1.30858,0.51789 1.87625,0.51856c0.55602,0.01278 1.18242,-0.57191 1.68569,-0.9583c0.76082,-0.58359 1.43652,-1.42668 2.23268,-1.89109c0.39912,-0.23244 0.85217,-0.22285 1.27776,-0.16576z" data-paper-data="{&quot;index&quot;:null}" fill="#f8f8f8" stroke="none" stroke-width="1" stroke-linecap="round"/><path d="M237.95989,178.61568l1.861,0.45682" fill="none" stroke="#cccccc" stroke-width="0.36953" stroke-linecap="round"/><path d="M245.65498,168.90997c0.22968,0.10296 -0.83608,-0.07451 -1.11186,0.00926c-0.27842,0.08345 -0.37017,-0.31961 -0.57547,-0.52681c-0.15937,-0.16431 -0.78747,-0.60908 -0.75631,-0.81812c0.05471,-0.36066 0.59462,-0.66686 0.87857,-0.96163c0.24658,-0.23583 3.189,1.46969 3.49027,1.53902z" data-paper-data="{&quot;index&quot;:null}" fill="#ffffff" stroke="none" stroke-width="0.85185" stroke-linecap="butt"/><g fill="none" stroke="#5d2404" stroke-width="0.5" stroke-linecap="round"><path d="M237.93751,176.37501l-2.875,-2.875"/><path d="M235.18751,176.50001l3,-3"/></g><g fill="none" stroke="#5d2404" stroke-width="0.5" stroke-linecap="round"><path d="M239.81251,173.37501l2.875,2.875"/><path d="M242.93751,173.37501l-3,3"/></g><path d="M239.82402,177.44787c0.23698,0.11841 -0.43408,0.71402 -0.79296,0.7189c-0.35889,0.00488 -0.87158,-0.57466 -0.63789,-0.69946c0.23368,-0.1248 0.26672,-0.2006 0.62559,-0.20547c0.35889,-0.00488 0.56827,0.06762 0.80525,0.18603z" fill="#101010" stroke="none" stroke-width="1" stroke-linecap="butt"/><path d="M243.42549,185.37348c-0.48726,-0.08909 -0.40744,-1.02612 -0.88716,-1.19783c-0.56618,-0.20141 -1.69681,0.32419 -2.25934,0.12267c-0.31546,-0.11222 0.7408,-0.92277 0.95753,-1.15359c0.55568,-0.58655 0.5569,-0.50485 1.34595,-0.70083c0.44098,-0.11013 0.96704,-0.09756 1.26839,0.20627c0.49899,0.49264 0.93661,1.25436 0.82108,1.97516c-0.06915,0.46101 -0.74709,0.83605 -1.24647,0.74813z" data-paper-data="{&quot;index&quot;:null}" fill="#f8b820" stroke="none" stroke-width="0.49091" stroke-linecap="round"/><path d="M234.93696,185.69543c-0.50495,0.04698 -1.15017,-0.38212 -1.18147,-0.84723c-0.05637,-0.72772 0.44178,-1.45124 0.97935,-1.90166c0.32506,-0.27836 0.85042,-0.24794 1.28095,-0.10227c0.77048,0.25957 1.61499,0.58111 2.12101,1.21096c0.19725,0.24773 0.37,0.31362 0.04651,0.3998c-0.57716,0.15503 -1.68391,-0.03577 -2.26454,0.11883c-0.49216,0.13208 -0.48897,1.07252 -0.98181,1.12156z" data-paper-data="{&quot;index&quot;:null}" fill="#f8b820" stroke="none" stroke-width="0.49091" stroke-linecap="round"/><path d="M240.04975,171.16708l2.91225,0.73702l1.54341,2.86787l-1.87542,-1.92384l-2.79798,-1.0583z" data-paper-data="{&quot;index&quot;:null}" fill="#f8b820" stroke="none" stroke-width="1.22222" stroke-linecap="round"/><path d="M240.26153,170.44317c0,0 2.78674,-0.15379 3.0704,-0.0106c0.40439,0.2041 1.70792,2.73905 1.70792,2.73905l-2.32467,-1.88072l-2.39674,-0.02692z" data-paper-data="{&quot;index&quot;:null}" fill="#f8b820" stroke="none" stroke-width="1.22222" stroke-linecap="round"/><path d="M239.06667,169.2441c0,0 3.08145,-0.50966 3.47873,-0.45352c0.65524,0.0926 3.42175,2.31505 3.42175,2.31505c0,0 -3.12788,-1.18891 -4.1026,-1.33683c-0.97472,-0.14792 -2.48343,0.33733 -2.48343,0.33733z" data-paper-data="{&quot;index&quot;:null}" fill="#f8b820" stroke="none" stroke-width="1.22222" stroke-linecap="round"/><path d="M234.27133,166.04202l-0.2271,1.25118l-1.66649,0.11104c0,0 1.04298,1.59489 0.42614,1.84549c-0.15025,0.06105 -1.393,0.22432 -1.393,0.22432l-0.33825,1.57897l-1.4293,-0.48281l-0.5659,4.125c0,0 -0.95343,-2.66779 -1.36168,-4.91256c-0.32111,-1.76568 -0.43263,-3.25545 0.27964,-3.54483c0.73073,-0.29687 2.13103,-0.87161 3.36457,-0.79382c1.49748,0.09444 2.91139,0.59804 2.91139,0.59804z" data-paper-data="{&quot;index&quot;:null}" fill="#23d892" stroke="none" stroke-width="0" stroke-linecap="butt"/><path d="M237.16232,167.39978c-2.18497,1.63753 -1.21173,1.19145 -2.62825,2.50878c-1.25822,1.17009 -1.65557,2.89648 -2.67211,3.00239c-0.47823,0.04982 -0.6547,-1.04369 -0.6547,-1.04369l-1.08146,-1.22529l1.12885,0.19551l-0.51027,-1.50487l1.9263,-0.24678c0,0 -0.20876,-0.58065 -0.36603,-0.92727c-0.15726,-0.34662 -0.44779,-0.86646 -0.44779,-0.86646l2.20818,-0.20425l-0.73244,-1.15206c0,0 1.16835,0.0952 1.92577,0.29205c0.75258,0.19558 2.37473,0.81907 1.90392,1.17194z" data-paper-data="{&quot;index&quot;:null}" fill="#fd0000" stroke="none" stroke-width="0" stroke-linecap="butt"/><g data-paper-data="{&quot;index&quot;:null}" stroke-width="0" stroke-linecap="butt"><path d="M229.45086,175.7177c-0.46158,0.13074 -0.94174,-0.13745 -1.07248,-0.59902c-0.13074,-0.46158 0.13744,-0.94174 0.59902,-1.07249c0.46158,-0.13074 0.94174,0.13745 1.07249,0.59902c0.13074,0.46158 -0.13745,0.94174 -0.59902,1.07249z" fill="#db7b04" stroke="none"/><path d="M228.28681,175.11267c-0.07626,-0.26922 0.40686,-0.36569 0.85329,-0.49214c0.44643,-0.12644 0.90421,-0.20687 0.97264,0.0347c0.04492,0.1586 -0.43057,0.1765 -0.877,0.30295c-0.44644,0.12644 -0.90401,0.3131 -0.94893,0.15449z" fill="#feeb00" stroke="#000000"/><path d="M229.35447,175.06176c0.08715,-0.02469 0.24577,-0.15599 0.29515,0.0183c0.04936,0.1743 0.02609,0.5725 -0.06105,0.59719c-0.08715,0.02469 -0.15497,0.16014 -0.20434,-0.01415c-0.04937,-0.1743 -0.1169,-0.57666 -0.02975,-0.60134z" fill="#000000" stroke="none"/><path d="M228.86511,175.44664c0.03462,0.12217 0.0177,0.2041 -0.02813,0.21709c-0.04583,0.01298 -0.20551,-0.19818 -0.24011,-0.32036c-0.0346,-0.12218 0.0768,-0.0815 0.12261,-0.09448c0.04583,-0.01298 0.11102,0.07557 0.14563,0.19774z" fill="#000000" stroke="none"/></g><g data-paper-data="{&quot;index&quot;:null}"><g><path d="M242.535,188.30538c0,0 3.65039,0.73869 4.59014,0.63489c1.31815,-0.14555 4.3489,-1.36999 4.3489,-1.36999c0,0 0.42363,0.50252 -0.74524,0.93368c-0.67697,0.24972 -2.4085,0.66556 -3.61022,0.76774c-1.44056,0.12249 -4.26457,-0.20576 -4.26457,-0.20576l-0.31903,-0.76057z" fill="#989898" stroke="#989898" stroke-width="0" stroke-linecap="round"/><path d="M243.77243,186.45045c0.73364,-0.45242 2.94139,-0.90319 2.94139,-0.90319l-0.61317,3.44586c0,0 -1.87975,0.01504 -2.95482,-0.26178c-0.51069,-0.13166 -0.83934,-0.43125 -0.48231,-1.21117c0.25116,-0.54862 0.63073,-0.77388 1.10892,-1.06973z" fill="#f82020" stroke="none" stroke-width="1.13968" stroke-linecap="round"/><path d="M246.01167,188.97133c0,0 -0.58037,-2.75461 0.57057,-3.38389c0.64945,-0.34628 2.83647,-0.15317 3.49448,0.09991c0.66188,0.25484 1.33546,1.30874 1.46261,1.88706c0.07474,0.33969 -0.6511,0.53831 -1.06871,0.67498c-1.04202,0.33952 -2.32292,0.61364 -3.31085,0.72566c-0.98793,0.11203 -1.14811,-0.00374 -1.14811,-0.00374z" fill="#f8f8f8" stroke="none" stroke-width="1.15102" stroke-linecap="round"/><path d="M243.31628,184.67325c0.34869,-0.11712 1.97101,-0.80239 2.51735,-0.72531c0.42114,0.05941 0.15366,0.80449 0.15366,0.80449c0,0 0.41078,0.47489 0.45005,0.59184c0.14807,0.44088 -1.18317,0.62137 -2.02359,0.90363c-0.16807,0.05644 -0.89524,0.58388 -1.3995,0.68707c-0.30008,0.06142 -0.56382,0.16242 -0.91209,-0.12795c-0.3587,-0.29907 0.17319,-0.66384 0.17319,-0.66384c0,0 -0.76018,-0.15594 -0.45292,-0.81315c0.27048,-0.57855 1.08757,-0.52033 1.49386,-0.6568z" fill="#ffffff" stroke="none" stroke-width="0" stroke-linecap="butt"/></g><path d="M244.88374,186.58662c-1.30886,0.43958 -2.22672,0.87328 -2.33806,0.54181c-0.04058,-0.12082 0.93491,-0.55743 2.24377,-0.99702c1.30886,-0.43958 1.9634,-0.78484 2.00397,-0.66403c0.11133,0.33147 -0.60084,0.67965 -1.90971,1.11924z" fill="#424242" stroke="none" stroke-width="0" stroke-linecap="butt"/></g><g data-paper-data="{&quot;index&quot;:null}"><g><path d="M235.62617,188.87253l-0.31903,0.76058c0,0 -2.824,0.32824 -4.26457,0.20575c-1.20172,-0.10218 -2.93324,-0.51802 -3.61022,-0.76773c-1.16887,-0.43116 -0.74524,-0.93368 -0.74524,-0.93368c0,0 3.03074,1.22444 4.3489,1.36999c0.93975,0.1038 4.59015,-0.63489 4.59015,-0.63489z" fill="#989898" stroke="#989898" stroke-width="0" stroke-linecap="round"/><path d="M234.38871,187.0176c0.47819,0.29585 0.85777,0.52111 1.10892,1.06973c0.35703,0.77992 0.02838,1.07951 -0.48231,1.21117c-1.07507,0.27683 -2.95482,0.26178 -2.95482,0.26178l-0.61317,-3.44586c0,0 2.20775,0.45077 2.94139,0.90318z" fill="#f82020" stroke="none" stroke-width="1.13968" stroke-linecap="round"/><path d="M232.14949,189.53848c0,0 -0.16018,0.11577 -1.14811,0.00374c-0.98793,-0.11202 -2.26883,-0.38615 -3.31085,-0.72567c-0.41761,-0.13667 -1.14344,-0.33529 -1.0687,-0.67497c0.12715,-0.57833 0.80074,-1.63223 1.46261,-1.88707c0.65802,-0.25308 2.84504,-0.44619 3.49448,-0.09991c1.15094,0.62928 0.57057,3.38388 0.57057,3.38388z" fill="#f8f8f8" stroke="none" stroke-width="1.15102" stroke-linecap="round"/><path d="M234.84487,185.2404c0.40629,0.13646 1.22338,0.07824 1.49386,0.65679c0.30725,0.65721 -0.45293,0.81315 -0.45293,0.81315c0,0 0.5319,0.36477 0.1732,0.66384c-0.34828,0.29037 -0.61202,0.18936 -0.9121,0.12794c-0.50425,-0.1032 -1.23142,-0.63063 -1.3995,-0.68707c-0.84042,-0.28226 -2.17165,-0.46275 -2.02359,-0.90363c0.03928,-0.11695 0.45005,-0.59184 0.45005,-0.59184c0,0 -0.26748,-0.74508 0.15366,-0.8045c0.54633,-0.07708 2.16866,0.6082 2.51735,0.72531z" fill="#ffffff" stroke="none" stroke-width="0" stroke-linecap="butt"/></g><path d="M233.27744,187.15379c-1.30886,-0.43958 -2.02104,-0.78777 -1.90971,-1.11924c0.04057,-0.12081 0.69511,0.22445 2.00397,0.66403c1.30886,0.43958 2.28436,0.8762 2.24377,0.99702c-0.11133,0.33147 -1.0292,-0.10223 -2.33806,-0.54182z" fill="#424242" stroke="none" stroke-width="0" stroke-linecap="butt"/></g></g></g></svg>