<svg version="1.1" xmlns="http://www.w3.org/2000/svg" xmlns:xlink="http://www.w3.org/1999/xlink" width="50.88728" height="85.94551" viewBox="0,0,50.88728,85.94551"><g transform="translate(-211.49089,-120.19333)"><g data-paper-data="{&quot;isPaintingLayer&quot;:true}" fill-rule="nonzero" stroke-linejoin="miter" stroke-miterlimit="10" stroke-dasharray="" stroke-dashoffset="0" style="mix-blend-mode: normal"><g><path d="M249.08182,174.63066c-2.62613,0.50304 -6.27835,-4.28025 -8.15747,-10.68377c-1.00365,-3.42015 -1.29849,-6.61076 -0.95525,-8.91801c0.01759,-0.11824 0.12643,-2.77128 0.14736,-2.88479c0.33536,-1.81861 1.00885,-0.48203 2.16047,-0.70263c1.11398,-0.21338 0.89227,-1.48409 2.16184,-0.07489c0.2072,0.22997 1.93393,2.48637 2.13864,2.75088c0.47671,0.61596 0.94417,1.32228 1.39069,2.10361c0.95672,1.67408 1.81726,3.69249 2.46628,5.90418c1.87912,6.40352 1.27355,12.00239 -1.35259,12.50543z" fill="#462fb6" stroke="none" stroke-width="0" stroke-linecap="butt"/><path d="M242.00053,167.02373c0,0 1.16737,1.73907 5.06497,0.90722c2.36128,-0.50396 4.17905,-2.54346 4.17905,-2.54346c0,0 0.16263,1.27294 0.24168,2.0382c0.11492,1.11256 0.0734,1.9902 0.0734,1.9902c0,0 -0.92481,1.54926 -2.91911,2.21085c-1.76592,0.58582 -4.09383,0.04002 -4.09383,0.04002c0,0 -0.66791,-0.66789 -1.27364,-1.90056c-0.42627,-0.86748 -1.27252,-2.74244 -1.27252,-2.74244z" fill="#0d0627" stroke="none" stroke-width="0" stroke-linecap="butt"/><path d="M240.26488,161.04836c0,0 1.01222,1.04966 4.9098,0.2178c2.36128,-0.50396 4.12238,-2.10704 4.12238,-2.10704c0,0 0.56097,1.10922 0.7663,1.7297c0.20533,0.62049 0.35987,1.50205 0.35987,1.50205c0,0 -2.20502,1.78362 -4.19932,2.44521c-1.76592,0.58582 -5.03898,-0.07072 -5.03898,-0.07072c0,0 -0.37165,-1.08008 -0.5454,-1.78201c-0.17374,-0.70192 -0.37466,-1.93499 -0.37466,-1.93499z" fill="#0d0627" stroke="none" stroke-width="0" stroke-linecap="butt"/><path d="M240.01398,155.29102c0,0 0.57684,1.02191 3.39926,0.48942c2.36128,-0.50396 3.30433,-1.45315 3.30433,-1.45315c0,0 0.53468,0.6473 0.78544,1.05572c0.25076,0.40842 0.81485,1.6214 0.81485,1.6214c0,0 -2.29297,1.4011 -4.01109,1.79229c-1.71813,0.39119 -4.37521,0.11712 -4.37521,0.11712c0,0 -0.02958,-0.92952 -0.09374,-1.75485c-0.05605,-0.72093 0.17616,-1.86797 0.17616,-1.86797z" fill="#0d0627" stroke="none" stroke-width="0" stroke-linecap="butt"/><path d="M239.69973,152.01889c0,0 -1.60551,-0.73188 -2.04315,-1.57613c-0.34505,-0.66564 0.36773,-1.48154 0.56558,-1.49271c0.08312,-0.00469 -1.26336,-1.47828 -0.91031,-2.22191c0.55756,-1.17439 1.67458,-0.48953 1.67458,-0.48953c0,0 0.30271,-0.58246 0.76559,-0.69836c0.46289,-0.1159 1.04459,-0.04056 1.1712,0.21342c0.07056,0.14154 -0.14592,-0.35865 0.27085,-0.51189c0.41676,-0.15324 1.13815,-0.00619 1.13815,-0.00619c0,0 0.27421,-0.32542 0.64381,-0.44913c1.16165,-0.38879 0.97521,1.4338 1.11768,2.45649c0.21841,1.56768 -0.12736,2.74406 -0.14145,2.89049c-0.02968,0.30842 1.67837,0.91394 1.41807,1.32773c-0.31225,0.49639 -0.90852,1.74363 -1.79465,1.84122c-0.37108,0.04086 -0.90452,-0.40024 -1.20375,-0.63442c-0.49842,-0.39009 0.44747,0.81688 -0.34396,1.12175c-0.79143,0.30487 -2.18845,-0.25693 -2.18845,-0.25693l-0.13979,-1.51388z" fill="#c08f5a" stroke="none" stroke-width="0" stroke-linecap="butt"/><path d="M238.27021,148.83868c0,0 0.67173,0.13652 1.33958,-0.01778c0.62459,-0.14432 1.24349,-0.58376 1.37074,-0.486c0.12625,0.09699 1.48351,0.04312 0.34894,1.22367c-0.39049,0.40632 -1.41171,0.54585 -1.41171,0.54585" fill="none" stroke="#b26a37" stroke-width="1.5" stroke-linecap="round"/><path d="M239.52679,147.02862l-0.47315,-0.67983" fill="none" stroke="#b26a37" stroke-width="0.5" stroke-linecap="round"/><path d="M241.32903,146.22037l-0.29228,-0.36394" fill="none" stroke="#b26a37" stroke-width="0.5" stroke-linecap="round"/><path d="M242.71926,145.81581l-0.29534,-0.41813" fill="none" stroke="#b26a37" stroke-width="0.5" stroke-linecap="round"/><path d="M243.5,147.13047c0,0 -0.23072,0.54476 -0.51154,0.61236c-0.30671,0.07384 -0.97176,0.06919 -0.97176,0.06919" fill="none" stroke="#b26a37" stroke-width="0.5" stroke-linecap="round"/><path d="M243.89403,150.26047c0,0 -1.16463,1.00675 -1.85289,1.32065c-0.67125,0.30614 -2.22695,0.54006 -2.22695,0.54006" fill="none" stroke="#b26a37" stroke-width="1" stroke-linecap="round"/></g><g stroke="none" stroke-width="0" stroke-linecap="butt"><path d="M245.55749,189.00611c5.14593,-0.46663 2.4785,5.17784 3.20632,5.58525c3.15301,1.76487 6.43293,4.28688 4.87625,7.24457c-0.59178,1.1244 -3.99627,-1.33057 -7.14926,-3.09547c-2.38654,-1.33584 -4.83963,-4.35388 -5.55179,-5.91929c-0.22874,-0.50274 1.78363,-3.35892 4.6185,-3.81507z" fill="#09031a"/><path d="M244.27043,194.93522c0,0 1.72349,-2.64159 4.39205,-1.51177c0.02656,0.01124 1.69678,0.89081 2.63963,1.7895c0.97263,0.92709 0.7718,1.76675 0.7718,1.76675c0,0 -2.23973,-1.06702 -3.23707,-1.19402c-0.99736,-0.12697 -2.18603,0.50355 -2.18603,0.50355z" fill="#b16e27"/><path d="M248.24508,199.35991c2.73931,1.61615 5.36538,2.55832 5.36538,2.55832c0,0 0.91396,2.53847 -4.90136,-0.91441c-1.052,-0.62462 -3.87031,-2.32339 -5.04601,-3.3229c-1.88063,-1.59885 -2.98992,-4.95218 -2.88252,-5.14404c0.11866,-0.21197 1.63675,1.90298 3.88076,4.0367c1.05697,1.00504 2.27503,2.0142 3.58374,2.78632z" fill="#a75c1e"/><path d="M243.19254,195.27116c0.35492,-0.63406 1.43471,-0.7047 2.41179,-0.15779c0.97707,0.5469 1.48144,1.5043 1.12653,2.13835c-0.35492,0.63406 -1.43471,0.7047 -2.41179,0.15779c-0.97707,-0.54691 -1.48144,-1.5043 -1.12653,-2.13835z" fill="#999999"/><path d="M244.17726,195.8965c0.10472,-0.1871 0.54161,-0.14177 0.9758,0.10125c0.43418,0.24302 0.70125,0.59173 0.59655,0.77882c-0.10472,0.1871 -0.54161,0.14177 -0.97581,-0.10125c-0.43418,-0.24302 -0.70125,-0.59173 -0.59655,-0.77882z" fill="#b16e27"/></g><g stroke="none" stroke-width="0" stroke-linecap="butt"><path d="M234.6508,161.46423c0,0.40902 -1.95712,2.77557 -1.95712,2.77557c0,0 -3.64498,-2.87086 -7.73343,-4.65513c-3.15791,-1.54328 -8.41786,-3.7755 -8.18844,-3.96969c0.59982,-0.50765 8.02903,0.64594 11.50078,1.67672c4.06215,1.20606 6.37821,3.24509 6.37821,4.17254z" data-paper-data="{&quot;index&quot;:null}" fill="#ffffff"/><path d="M229.01804,156.72983c0.34204,0.45606 0.77863,1.23591 0.77863,1.23591c0,0 -3.78015,-1.05202 -6.79143,-1.65785c-2.93867,-0.59121 -6.56935,-0.70524 -6.31161,-0.87649c0.775,-0.51494 3.26566,-0.32354 6.36281,-0.32354c3.09714,0 5.28434,0.43137 5.28434,0.43137c0,0 0.33522,0.73455 0.67725,1.1906z" fill="#1a0c47"/><path d="M235.12652,160.55012c-0.09497,0.07225 -0.53007,0.68458 -0.95925,1.40379c-0.66893,1.12102 -1.4005,2.50169 -1.4005,2.50169c0,0 -1.9243,-1.90582 -2.65687,-2.72388c-0.73256,-0.81808 -3.02597,-2.62445 -2.87654,-2.74534c0.12896,-0.10435 2.57123,-0.01281 3.85805,0.12791c2.02487,0.22142 4.21906,1.29587 4.03508,1.43584z" data-paper-data="{&quot;index&quot;:null}" fill="#e8e8e8"/><path d="M238.43053,159.64628c0,0 -1.3365,0.11776 -2.20392,0.38738c-0.86742,0.2696 -1.67847,0.85284 -1.67847,0.85284c0,0 -1.38489,-1.27768 -2.18415,-1.78937c-0.79924,-0.51168 -2.7591,-1.21352 -2.7591,-1.21352l-1.65322,-2.33539c0,0 2.66105,0.03976 5.3203,1.16832c1.74677,0.74132 5.15854,2.92976 5.15854,2.92976z" data-paper-data="{&quot;index&quot;:null}" fill="#684af8"/></g><g stroke="none" stroke-linecap="butt"><path d="M221.0642,193.22399c-1.14665,-0.61688 -4.09809,-3.22975 -4.09809,-3.22975c0,0 -1.52994,-0.80334 -2.51023,-1.12509c-1.20439,-0.39529 -2.96499,-0.71124 -2.96499,-0.71124c0,0 0.92367,-0.46708 1.7951,-0.71907c0.8714,-0.25199 2.25613,-0.5591 2.25613,-0.5591c0,0 -1.00639,-0.72549 -1.67748,-1.42629c-0.67107,-0.7008 -1.54993,-1.94397 -1.54993,-1.94397c0,0 0.62305,-0.15913 1.99451,0.0291c1.37147,0.18824 3.47304,0.72133 3.47304,0.72133l-2.59732,-3.74527c0,0 1.05435,0.17971 2.38611,0.69605c1.33177,0.51633 3.32947,1.5199 3.32947,1.5199c0,0 0.89598,-1.04383 1.27396,-1.67135c0.48183,-0.79998 1.38184,-2.73807 1.38184,-2.73807c0,0 0.07918,2.4866 0.02328,3.53119c-0.04393,0.82128 -0.33152,2.22917 -0.33152,2.22917c0,0 1.37022,1.56368 1.69852,3.47181c0.04435,0.2577 1.8725,0.06187 2.94028,-0.25755c0.62734,-0.50384 -0.01018,1.61468 0.66437,2.27438c1.18923,1.16303 2.38446,1.32313 2.38446,1.32313c0,0 -0.85134,1.8321 -2.14841,2.99461c-0.77037,0.76231 -1.47809,1.24611 -2.23544,1.26344c-1.65501,0.03783 -4.341,-1.31044 -5.48764,-1.92732z" fill="#1c0e4c" stroke-width="NaN"/><path d="M219.96075,192.36539c0,0 -0.95199,-3.08588 0.86342,-5.0116c1.59406,-1.69093 3.87894,-0.60204 3.87894,-0.60204l0.26259,0.77697c0,0 -0.85874,0.56833 -1.44438,1.34396c-0.63475,0.84067 -0.65563,2.02984 -0.58594,2.54994c0.19584,1.46105 0.61135,2.93749 0.61135,2.93749c0,0 -1.24753,-0.47179 -1.8384,-0.80043c-0.6042,-0.33608 -1.74763,-1.19428 -1.74763,-1.19428z" fill="#684af8" stroke-width="0"/><path d="M228.04242,187.22717c0,0 -0.57047,1.02833 1.0542,2.79889c0.42437,0.46249 1.98137,0.88918 1.98137,0.88918c0,0 -0.62338,0.88868 -1.00374,1.40255c-0.436,0.58907 -1.10266,1.31572 -1.18628,1.32691c-0.25828,0.03462 -2.33897,-1.31604 -2.55064,-2.89517c-0.21166,-1.57911 0.77723,-3.23242 0.77723,-3.23242z" fill="#684af8" stroke-width="0"/></g><g stroke="none" stroke-width="0" stroke-linecap="butt"><path d="M257.87205,155.17079c0,0.51832 -4.35017,1.87575 -5.57196,2.30068c-2.70188,0.93969 -3.63075,1.36603 -3.63075,1.36603l0.89869,-2.80394c0,0 2.70999,-0.72806 4.631,-0.64516c2.08081,0.08977 3.67299,-0.30017 3.67299,-0.21759z" fill="#1a0c47"/><path d="M248.24636,158.83745c3.30726,-1.47567 9.04963,-3.96378 9.64947,-3.45615c0.22944,0.19418 -5.03053,3.90027 -6.94824,5.12003c-3.04688,1.93797 -4.94542,4.64036 -4.94542,3.71292c0,-0.92746 -1.06307,-3.75734 2.24419,-5.23299z" fill="#ffffff"/><path d="M248.13527,159.30991c0.14942,0.1209 -0.56877,1.54358 -1.15104,2.6375c-0.60489,1.13644 -0.9853,2.29251 -0.9853,2.29251c0,0 -0.87652,-1.94119 -1.11952,-2.12606c-0.31601,-0.24042 2.94719,-3.05371 3.25586,-2.80394z" fill="#e8e8e8"/><path d="M241.69545,160.20349c0,0 1.67249,-1.98094 3.41507,-2.73206c1.74258,-0.75112 4.5008,-1.84836 5.21246,-1.22223c0.14849,0.13065 -0.40102,1.2755 -1.16794,2.0658c-0.75603,0.77906 -1.72534,1.20136 -2.16595,1.6449c-0.9206,0.92671 -2.02237,1.68152 -2.02237,1.68152c0,0 -0.58369,-0.37628 -1.24709,-0.80789c-0.66339,-0.4316 -2.02417,-0.63004 -2.02417,-0.63004z" fill="#684af8"/></g><path d="M226.39808,165.51299c0,-0.46159 1.99178,-1.72012 3.45101,-1.72012c1.45921,0 2.48042,0.29657 2.48042,0.29657c0,0 3.45383,3.21006 3.00387,3.8025c-0.2848,0.37499 -3.9109,1.84132 -4.72375,1.76326c-0.08998,-0.00864 -1.24569,1.03763 -1.24569,1.03763c0,0 -0.23119,-0.65773 -0.03346,-1.34481c0.16341,-0.56784 0.63548,-1.27319 0.50171,-1.16761c-0.75321,0.59438 -2.09309,1.47564 -2.09309,1.47564c0,0 0.1596,-0.83202 0.42937,-1.41976c0.21991,-0.47914 0.75748,-0.89961 0.66604,-0.90033c-0.46568,-0.00378 -1.36501,-0.16197 -1.36501,-0.16197c0,0 0.49706,-0.69606 0.73555,-1.0391c0.23852,-0.34305 0.60873,-0.62732 0.60873,-0.62732c0,0 -0.54755,-0.07357 -1.02756,-0.20507c-0.4029,-0.11037 -1.17246,0.30246 -1.17246,0.09183z" fill="#5133c8" stroke="none" stroke-width="NaN" stroke-linecap="butt"/><g stroke="none" stroke-width="0" stroke-linecap="butt"><path d="M225.40126,179.28288c0.35878,-4.64484 6.56144,-14.04495 13.93,-14.07364c6.07659,-0.02366 11.75998,6.19372 13.93,14.07364c-0.10784,8.85109 -6.23667,14.07364 -13.93,14.07364c-7.69333,0 -13.82217,-2.52645 -13.93,-14.07364z" fill="#684af8"/><path d="M234.69741,168.72497c0,0 2.19157,-0.10673 3.57502,0.181c1.38346,0.28773 2.3564,0.53077 2.3564,0.53077c0,0 2.16311,-0.60788 3.50914,-0.66847c1.54828,-0.0697 2.21795,0.11511 2.21795,0.11511c0,0 0.13346,0.02226 0.523,-0.41713c0.38955,-0.43937 0.32284,-1.00863 0.32284,-1.00863l1.42384,2.56996c0,0 0.90319,-0.23034 1.43645,-0.27182c0.53328,-0.04149 1.7637,0.76066 1.7637,0.76066c0,0 -0.52604,0.53329 -1.10148,0.85562c-0.57544,0.32231 -0.67899,0.5271 -0.67899,0.5271l0.19403,0.54383l1.75158,-1.59627c0,0 0.04787,1.08609 -0.18528,1.71349c-0.16652,0.44806 -0.79753,1.32501 -0.79753,1.32501c0,0 2.21132,1.37973 1.8885,6.73719c-0.22648,3.7586 -1.07193,6.29339 -4.98564,9.10706c-1.51723,1.09076 -6.5196,3.23096 -8.30684,0.37505c-2.26453,-3.61864 -0.31138,-11.54904 -1.30396,-12.78583c-1.17568,-1.46496 -4.19225,-0.9978 -4.19225,-0.9978c0,0 0.51906,-1.15515 0.90591,-1.31537c0.63786,-0.26416 1.23643,-0.55795 1.23643,-0.55795c0,0 -0.01939,-0.63729 -1.2435,-1.49294c-0.9053,-0.63284 -1.24724,-0.93204 -1.24724,-0.93204c0,0 0.71749,-0.3458 1.16202,-0.3951c1.43838,-0.15959 1.90159,0.01526 1.90159,0.01526c0,0 -0.62369,-1.03666 -1.17023,-1.7724c-0.54651,-0.73574 -0.95546,-1.14526 -0.95546,-1.14526z" fill="#ffffff"/></g><g><path d="M232.8163,163.77132c0,-2.08461 3.04184,-3.77454 6.79417,-3.77454c3.75232,0 6.77743,1.68997 6.79417,3.77454c0.02158,2.68855 -3.04184,3.77454 -6.79417,3.77454c-3.75232,0 -6.79417,-1.68992 -6.79417,-3.77454z" fill="#684af8" stroke="none" stroke-width="0" stroke-linecap="butt"/><path d="M242.79186,163.60956c-0.47305,0.0296 -1.46005,-1.42656 -2.31183,-2.06399c-1.37678,-1.03029 -1.97498,-1.46792 -1.97498,-1.46792c0,0 0.9168,-0.11199 2.02244,-0.10545c1.37526,0.00815 1.72514,0.2942 1.72514,0.2942c0,0 1.40126,3.28923 0.53922,3.34316z" fill="#1c0e4c" stroke="none" stroke-width="0" stroke-linecap="butt"/><path d="M245.88104,163.84452c0.24451,1.06711 -0.07863,2.37021 -0.77499,2.53805c-0.69636,0.16785 -1.50223,-0.86311 -1.74676,-1.93024c-0.24451,-1.06711 0.12177,-2.06824 0.81814,-2.23609c0.69636,-0.16785 1.4591,0.56116 1.70361,1.62827z" fill="#1c0e4c" stroke="none" stroke-width="0" stroke-linecap="butt"/><g stroke="none" stroke-width="0" stroke-linecap="butt"><path d="M243.8703,165.20027c0,-0.37226 0.30176,-0.67403 0.67403,-0.67403c0.37226,0 0.67403,0.30176 0.67403,0.67403c0,0.37226 -0.30176,0.67403 -0.67403,0.67403c-0.37226,0 -0.67403,-0.30176 -0.67403,-0.67403z" fill="#ffff9b"/><path d="M244.26617,165.2163c0,-0.1625 0.13172,-0.29423 0.29423,-0.29423c0.1625,0 0.29423,0.13172 0.29423,0.29423c0,0.1625 -0.13172,0.29423 -0.29423,0.29423c-0.1625,0 -0.29423,-0.13172 -0.29423,-0.29423z" fill="#000000"/></g><path d="M241.22487,163.0725c1.1893,1.37319 1.39439,3.14375 0.45813,3.95462c-0.93629,0.81087 -2.65939,0.35504 -3.84868,-1.01817c-1.1893,-1.37319 -1.39439,-3.14375 -0.45813,-3.95462c0.93629,-0.81087 2.65939,-0.35504 3.84868,1.01817z" fill="#1c0e4c" stroke="none" stroke-width="0" stroke-linecap="butt"/><g stroke="none" stroke-width="0" stroke-linecap="butt"><path d="M239.77225,165.65861c0,-0.53605 0.43456,-0.9706 0.9706,-0.9706c0.53605,0 0.9706,0.43456 0.9706,0.9706c0,0.53605 -0.43456,0.9706 -0.9706,0.9706c-0.53605,0 -0.9706,-0.43456 -0.9706,-0.9706z" fill="#ffff9b"/><path d="M240.34228,165.68169c0,-0.234 0.18969,-0.42367 0.42367,-0.42367c0.234,0 0.42367,0.18969 0.42367,0.42367c0,0.234 -0.18969,0.42367 -0.42367,0.42367c-0.234,0 -0.42367,-0.18969 -0.42367,-0.42367z" fill="#000000"/></g><path d="M231.41847,163.43478c1.94242,0.25797 1.70485,0.80867 1.70485,0.80867c0,0 -0.70083,-0.89354 -1.02342,-1.29164c-0.36162,-0.44625 -1.43079,-1.60304 -1.43079,-1.60304c0,0 1.47458,0.20048 3.01847,1.68568c0.79085,0.76078 1.49133,1.62157 1.49133,1.62157c0,0 0.27563,-0.00127 1.68656,0.59225c1.41095,0.59354 2.15732,1.57042 3.64155,1.62639c0.95018,-0.01859 2.28855,-1.05872 2.99523,-1.07059c0.42601,-0.00716 1.19143,0.0693 1.28154,0.42487c0.00815,0.03209 0.22571,0.00554 0.59386,-0.42012c0.21626,-0.25006 0.39542,-0.6881 0.6361,-0.94081c0.471,-0.49452 0.82711,-1.66519 0.82711,-1.66519l-0.07484,2.18854c0,0 0.44422,-0.07976 0.67739,-0.13002c0.23315,-0.05023 1.12689,0.25367 1.12689,0.25367l-1.55264,1.08844l0.82069,0.45417c0,0 -1.28603,0.61398 -1.49537,0.50293c-0.20934,-0.11108 -0.23211,-0.34004 -0.23211,-0.34004c0,0 -0.40805,0.36052 -0.82964,0.58297c-0.42159,0.22245 -1.2129,0.2305 -1.2129,0.2305c0,0 -0.36646,0.22679 -0.73474,0.23305c-7.97327,0.69579 -9.41182,-1.6918 -9.41182,-1.6918c0,0 -0.94481,-0.01075 -1.97365,-0.03481c-1.02881,-0.02406 -3.19748,0.16423 -3.19748,0.16423c0,0 1.54133,-0.89832 2.1097,-1.13555c0.56834,-0.23721 1.55162,-0.28799 1.55162,-0.28799c0,0 -0.56923,-0.40348 -1.35502,-0.8058c-0.78581,-0.40234 -2.27391,-1.17154 -2.27391,-0.91971c0,0.09696 0.69311,-0.37883 2.63553,-0.12087z" fill="#ffffff" stroke="none" stroke-width="0" stroke-linecap="butt"/><path d="M243.62536,166.60393c0,-0.17205 0.21667,-0.24924 0.56079,-0.24924c0.34413,0 0.56079,0.07718 0.56079,0.24924c0,0.17205 -0.36204,0.3913 -0.56079,0.3913c-0.17798,0 -0.56079,-0.21923 -0.56079,-0.3913z" fill="#000000" stroke="none" stroke-width="0" stroke-linecap="butt"/><path d="M246.06262,167.07725c0,0 -0.5149,0.68279 -1.03554,0.79692c-0.41732,0.09148 -1.26658,-0.29813 -1.72866,-0.13379c-0.56678,0.20159 -0.96425,0.56842 -1.30552,0.62072c-0.5179,0.07935 -1.21462,-0.03288 -1.21462,-0.03288" fill="none" stroke="#000000" stroke-width="0.5" stroke-linecap="round"/></g><g stroke="none" stroke-width="0" stroke-linecap="butt"><path d="M226.70322,201.73778c-0.01831,-1.364 1.47391,-2.23234 2.51168,-3.95517c0.78979,-1.31114 2.15398,-5.44554 2.79564,-5.49396c0.33694,-0.02543 -1.99157,-1.50027 -1.49732,-1.49744c0.86561,0.00494 5.95853,0.0121 7.46386,0.72557c1.42314,0.67451 -0.71643,2.03018 -0.64852,2.93013c0.12473,1.65291 0.1327,5.84372 -1.60666,8.41378c-0.7814,1.15459 -3.51768,2.10301 -3.97795,2.13775c-1.84324,0.13908 -4.99388,0.22641 -5.04073,-3.26067z" fill="#1c0e4c"/><path d="M228.7406,197.82741c0,0 0.35905,-3.6469 4.05645,-3.57225c7.30878,0.14753 4.90369,5.36194 4.90369,5.36194c0,0 -2.97543,-2.44572 -5.37119,-2.38495c-2.39578,0.06078 -3.58893,0.5953 -3.58893,0.5953z" fill="#f0993f"/><path d="M229.43042,196.0801c0.2919,0.05898 0.39468,0.76936 0.22952,1.58669c-0.16516,0.81732 -0.53566,1.43211 -0.82757,1.3731c-0.2919,-0.05898 -0.39468,-0.76936 -0.22952,-1.58669c0.16516,-0.81732 0.53566,-1.43211 0.82757,-1.3731z" fill="#c3c3c3"/><path d="M237.54814,198.74174c-0.78931,3.87169 0.15253,6.8539 -6.32331,7.35555c-5.7122,0.44248 -4.23413,-2.7952 -4.23413,-2.7952c0,0 1.62449,1.82412 4.74871,1.58836c1.37934,-0.10408 2.93567,-0.87547 3.81494,-2.19107c1.08721,-1.62674 1.34017,-3.84906 1.34017,-3.84906c0,0 0.70805,-0.37549 0.65362,-0.10857z" fill="#f0993f"/><g><path d="M238.67062,198.13794c0.09502,1.25911 -0.30942,2.31614 -0.90333,2.36096c-0.5939,0.0448 -1.15241,-0.93957 -1.24743,-2.19865c-0.09502,-1.25911 0.30942,-2.31614 0.90333,-2.36096c0.5939,-0.0448 1.15241,0.93956 1.24743,2.19865z" fill="#c3c3c3"/><path d="M237.75675,197.83916c0.03496,0.46326 -0.11387,0.85217 -0.33236,0.86867c-0.21852,0.01647 -0.42399,-0.34568 -0.45895,-0.80895c-0.03496,-0.46326 0.11387,-0.85217 0.33236,-0.86867c0.21852,-0.01647 0.42399,0.34568 0.45895,0.80895z" fill="#dd6c23"/></g></g><g stroke="none" stroke-width="0" stroke-linecap="butt"><path d="M248.91202,183.85904c2.84946,-0.89202 4.23288,-2.88481 4.23288,-2.88481c0,0 0.33232,2.87187 -0.59491,4.19382c-0.24126,0.34397 -1.05452,1.31998 -2.23396,1.92833c-1.90723,0.98374 -4.63931,1.61565 -4.63931,1.61565c0,0 0.28998,-1.97165 0.28236,-2.072c-0.04932,-0.64997 -0.36325,-1.83733 -0.36325,-1.83733c0,0 1.28142,-0.30663 3.3162,-0.94362z" fill="#f0993f"/><path d="M246.76514,186.29258c0,-0.35957 0.22486,-0.65105 0.50225,-0.65105c0.27737,0 0.50225,0.29148 0.50225,0.65105c0,0.35957 -0.22486,0.65105 -0.50225,0.65105c-0.27737,0 -0.50225,-0.29148 -0.50225,-0.65105z" fill="#a94a00"/><path d="M246.79488,186.28263c0,-0.20697 0.12944,-0.37475 0.28909,-0.37475c0.15965,0 0.28909,0.16778 0.28909,0.37475c0,0.20697 -0.12944,0.37475 -0.28909,0.37475c-0.15965,0 -0.28909,-0.16778 -0.28909,-0.37475z" fill="#ffffff"/><path d="M249.05145,185.51613c0,-0.35957 0.22486,-0.65105 0.50225,-0.65105c0.27737,0 0.50225,0.29148 0.50225,0.65105c0,0.35957 -0.22486,0.65105 -0.50225,0.65105c-0.27737,0 -0.50225,-0.29148 -0.50225,-0.65105z" fill="#a94a00"/><path d="M249.06694,185.50811c0,-0.20697 0.12944,-0.37475 0.28909,-0.37475c0.15965,0 0.28909,0.16778 0.28909,0.37475c0,0.20697 -0.12944,0.37475 -0.28909,0.37475c-0.15965,0 -0.28909,-0.16778 -0.28909,-0.37475z" fill="#ffffff"/></g><g stroke="none" stroke-width="0" stroke-linecap="butt"><path d="M238.23347,185.32321c0.11316,1.10603 0.47451,3.82487 0.47451,3.82487c0,0 -2.65635,0.19906 -4.34639,0.05416c-1.69004,-0.14489 -2.59346,-0.11063 -4.1773,-0.55448c-1.58386,-0.44386 -3.01908,-1.28213 -3.3535,-1.5559c-0.70654,-0.57847 -1.12157,-3.9399 -1.12157,-3.9399c0,0 3.44105,0.9542 7.04957,1.54024c2.50739,0.40721 5.45702,0.45816 5.47472,0.63102z" fill="#f0993f"/><g><g><path d="M233.94729,192.04141c0.28809,-1.40053 4.2461,-6.44366 4.96081,-6.44366c0.47628,0 0.59459,1.48629 1.04312,3.5548c0.11175,0.51536 -0.35815,0.9988 -0.77132,1.89663c-0.41703,0.90618 -0.7783,2.22545 -0.86494,2.44816c-0.19306,0.49624 -3.23531,1.69855 -3.23531,1.69855c0,0 -1.29051,-2.38561 -1.13236,-3.15443z" fill="#f0993f"/><g><path d="M238.02754,187.59632c-0.50455,-2.22671 0.89156,-4.44081 3.11826,-4.94538c2.22671,-0.50455 4.44081,0.89156 4.94538,3.11826c0.50455,2.22671 -0.89156,4.44081 -3.11826,4.94538c-2.22671,0.50455 -4.44081,-0.89156 -4.94538,-3.11826z" fill="#fde02b"/><path d="M240.35964,186.93447c-0.23431,-1.03403 0.41402,-2.06222 1.44805,-2.2965c1.03403,-0.23431 2.06222,0.41402 2.2965,1.44805c0.23431,1.03403 -0.41402,2.06222 -1.44805,2.2965c-1.03403,0.23431 -2.06222,-0.41402 -2.2965,-1.44805z" fill="#f4a51d"/><path d="M242.72667,186.50299c0.09821,0.43346 -0.56313,0.95273 -1.47715,1.15983c-0.91403,0.2071 -1.73458,0.02363 -1.83281,-0.40982c-0.09821,-0.43346 0.56313,-0.95272 1.47715,-1.15983c0.91403,-0.2071 1.73458,-0.02363 1.83281,0.40982z" fill="#fffed5"/></g></g><g><path d="M235.70633,191.89448c0,-0.39312 0.31867,-0.71178 0.71178,-0.71178c0.39312,0 0.71178,0.31867 0.71178,0.71178c0,0.39312 -0.31867,0.71178 -0.71178,0.71178c-0.39312,0 -0.71178,-0.31867 -0.71178,-0.71178z" fill="#934200"/><path d="M235.74946,191.78667c0,-0.19059 0.1545,-0.3451 0.3451,-0.3451c0.19059,0 0.3451,0.1545 0.3451,0.3451c0,0.19059 -0.1545,0.3451 -0.3451,0.3451c-0.19059,0 -0.3451,-0.1545 -0.3451,-0.3451z" fill="#1c0e4c"/></g><g><path d="M237.00044,189.91015c0,-0.39312 0.31867,-0.71178 0.71178,-0.71178c0.39312,0 0.71178,0.31867 0.71178,0.71178c0,0.39312 -0.31867,0.71178 -0.71178,0.71178c-0.39312,0 -0.71178,-0.31867 -0.71178,-0.71178z" fill="#934200"/><path d="M237.04357,189.80231c0,-0.19059 0.1545,-0.3451 0.3451,-0.3451c0.19059,0 0.3451,0.1545 0.3451,0.3451c0,0.19059 -0.1545,0.3451 -0.3451,0.3451c-0.19059,0 -0.3451,-0.1545 -0.3451,-0.3451z" fill="#684af8"/></g></g></g><g fill="#000000" stroke-width="0" stroke-linecap="butt"><path d="M236.50362,146.78697v-22.78335h1.78404v22.78335z" stroke="#b26a37"/><path d="M236.4744,146.45076l1.81767,0.18227c0,0 -0.25109,2.88158 2.14066,2.97585c2.38279,0.09392 2.80116,-3.06829 2.80116,-3.06829c0,0 0.04483,-0.66431 0.50503,-0.67959c0.5814,-0.01931 0.65215,0.58975 0.65215,0.58975c0,0 -0.01401,0.4058 -0.04106,0.60253c-0.2773,2.01628 -1.92549,3.56525 -3.91727,3.56525c-1.95684,0 -3.58202,-1.49509 -3.90141,-3.45955c-0.03743,-0.23018 -0.05692,-0.70822 -0.05692,-0.70822z" stroke="none"/></g><g stroke="none" stroke-width="0" stroke-linecap="butt"><path d="M231.85921,136.15454l5.2228,-14.93949l0.93318,-0.50051l5.4225,15.44z" fill="#462fb6"/><path d="M212.42711,130.50288l25.28888,-8.80162l-16.80808,12.45703z" fill="#462fb6"/><path d="M254.01316,134.09216l-16.11338,-12.21705l24.47839,8.76014z" data-paper-data="{&quot;index&quot;:null}" fill="#462fb6"/><path d="M220.85966,134.10339l16.67302,-13.03465l-5.67345,15.08579z" fill="#d9874c"/><path d="M243.20614,136.15454l-5.44189,-15.0275l16.32567,12.97637z" data-paper-data="{&quot;index&quot;:null}" fill="#d9874c"/></g><path d="M235.44029,122.81578l1.39535,-2.60078l1.61091,-0.02166l1.14731,2.62244z" fill="#000000" stroke="none" stroke-width="0" stroke-linecap="butt"/><g><g data-paper-data="{&quot;index&quot;:null}" stroke="none" stroke-width="0" stroke-linecap="butt"><path d="M233.35191,175.90022c-2.49383,-0.96455 -3.05752,-6.95628 -1.259,-13.38291c0.96059,-3.43249 2.40077,-6.2948 3.91416,-8.06987c0.07756,-0.09097 1.57532,-2.28349 1.6532,-2.36867c1.24785,-1.3648 1.11102,0.12561 2.20463,0.54859c1.05785,0.40915 1.54297,-0.78606 1.87325,1.08172c0.0539,0.30481 0.3231,3.13331 0.3566,3.46612c0.07801,0.77496 0.10032,1.62168 0.06513,2.52091c-0.0754,1.9267 -0.41479,4.09449 -1.03598,6.31416c-1.79852,6.42663 -5.27816,10.85451 -7.772,9.88996z" fill="#684af8"/><path d="M231.37568,165.69707c0,0 0.06884,2.09342 3.81526,3.45264c2.26969,0.82346 4.89187,0.05662 4.89187,0.05662c0,0 -0.53642,1.16579 -0.87476,1.85672c-0.49191,1.00449 -0.99206,1.72687 -0.99206,1.72687c0,0 -1.6051,0.82408 -3.64705,0.32872c-1.80811,-0.43864 -3.49339,-2.13478 -3.49339,-2.13478c0,0 -0.21267,-0.9203 -0.0734,-2.28668c0.09801,-0.96157 0.37353,-3.00013 0.37353,-3.00013z" fill="#1c0e4c"/><path d="M233.06905,159.70961c0,0 0.30246,1.42649 4.04888,2.78572c2.26969,0.82346 4.61262,0.39675 4.61262,0.39675c0,0 -0.11183,1.23797 -0.26638,1.87301c-0.15455,0.63504 -0.49049,1.46462 -0.49049,1.46462c0,0 -2.81508,0.34466 -4.85702,-0.1507c-1.80811,-0.43864 -4.23636,-2.7294 -4.23636,-2.7294c0,0 0.25697,-1.11295 0.48145,-1.80033c0.22449,-0.68738 0.7073,-1.83965 0.7073,-1.83965z" fill="#1c0e4c"/><path d="M235.90623,154.69356c0,0 -0.05212,1.17231 2.62381,2.21588c2.26969,0.82346 3.57238,0.51799 3.57238,0.51799c0,0 0.11059,0.83226 0.1069,1.31151c-0.00368,0.47925 -0.16782,1.80687 -0.16782,1.80687c0,0 -2.68702,-0.02636 -4.35149,-0.60476c-1.66447,-0.5784 -3.77289,-2.21845 -3.77289,-2.21845c0,0 0.46732,-0.80404 0.85012,-1.53803c0.33438,-0.64115 1.13897,-1.491 1.13897,-1.491z" fill="#1c0e4c"/></g><g><path d="M237.01698,147.13216c0.10708,-0.3512 0.70376,-0.3589 0.95238,-0.1091c0.24863,0.2498 -0.13169,1.22058 0.09841,1.16483c0.26586,-0.06444 0.24281,-1.28025 0.30149,-1.23962c0.06844,0.04739 -0.15247,-0.8143 0.5831,-1.18386c1.16166,-0.58363 1.62177,0.64319 1.62177,0.64319c0,0 0.5968,-0.27337 1.03315,-0.08026c0.43635,0.19311 0.84888,0.61008 0.79264,0.88825c-0.03134,0.15501 0.10535,-0.37259 0.52829,-0.23729c0.42292,0.1353 0.90156,0.6947 0.90156,0.6947c0,0 0.41632,-0.08814 0.78389,0.04147c1.15527,0.40736 -0.11209,1.73038 -0.62833,2.62464c-0.79133,1.3708 -1.78716,2.08618 -1.88828,2.19302c-0.213,0.22503 0.7621,1.75253 0.30243,1.91893c-0.55141,0.1996 -1.78838,0.8169 -2.54733,0.3492c-0.31782,-0.19586 -0.46746,-0.8717 -0.55954,-1.24034c-0.15338,-0.61406 -0.14915,0.91938 -0.96082,0.67339c-0.81167,-0.24599 -1.56827,-1.54784 -1.56827,-1.54784l0.82027,-1.28004c0,0 -1.38162,-1.60079 -0.5668,-4.27326z" fill="#ffc281" stroke="none" stroke-width="0" stroke-linecap="butt"/><path d="M240.5148,147.36282l0.04466,-0.82707" fill="none" stroke="#d9874c" stroke-width="0.5" stroke-linecap="round"/><path d="M242.43317,147.83306l-0.00684,-0.46673" fill="none" stroke="#d9874c" stroke-width="0.5" stroke-linecap="round"/><path d="M243.77843,148.36854l0.02405,-0.51135" fill="none" stroke="#d9874c" stroke-width="0.5" stroke-linecap="round"/><path d="M241.97307,152.5965c0,0 -1.53745,0.07824 -2.2733,-0.09722c-0.71764,-0.17112 -2.08854,-0.94286 -2.08854,-0.94286" fill="none" stroke="#d9874c" stroke-width="1" stroke-linecap="round"/></g></g></g></g></svg>