<svg version="1.1" xmlns="http://www.w3.org/2000/svg" xmlns:xlink="http://www.w3.org/1999/xlink" width="30.35357" height="37.34295" viewBox="0,0,30.35357,37.34295"><g transform="translate(-227.16215,-160.27224)"><g data-paper-data="{&quot;isPaintingLayer&quot;:true}" fill-rule="nonzero" stroke-linejoin="miter" stroke-miterlimit="10" stroke-dasharray="" stroke-dashoffset="0" style="mix-blend-mode: normal"><g data-paper-data="{&quot;index&quot;:null}"><g><path d="M257.46107,181.21175l-1.39506,-0.80144l0.18817,-1.5856z" fill="#b96a37" stroke="none" stroke-width="0" stroke-linecap="butt"/><path d="M257.51572,181.15492l-3.00882,0.52713l1.495,-1.33497z" fill="#ebb9a2" stroke="none" stroke-width="0" stroke-linecap="butt"/><path d="M238.98402,177.18394l7.62871,0.62254l0.15974,2.24625l-9.09091,-1.32299z" data-paper-data="{&quot;index&quot;:null}" fill="#ff3200" stroke="none" stroke-width="0" stroke-linecap="butt"/><path d="M248.38399,180.82003l-1.12562,0.12002c0,0 -0.77268,-1.12331 -0.90632,-2.06077c-0.13363,-0.93747 0.48605,-1.96646 0.48605,-1.96646c0,0 0.85908,-0.43933 1.11262,-0.79674c0.23837,-0.33601 0.19917,-0.7838 0.62902,-1.31699c0.63501,-0.7877 1.45744,-1.60474 3.02748,-1.92341c1.04138,-0.21136 0.29426,1.53511 0.4093,2.58083c0.05841,0.53084 0.67078,0.47169 0.67078,0.47169c0,0 1.8693,-1.90166 2.78489,-1.82791c0.91559,0.07376 2.55934,2.51637 1.43929,5.14896c-0.92422,2.17232 -1.99863,2.39425 -3.89083,2.82571c-3.53753,0.8066 -4.63662,-1.25496 -4.63662,-1.25496z" data-paper-data="{&quot;index&quot;:null}" fill="#906d5f" stroke="none" stroke-width="0" stroke-linecap="butt"/><path d="M252.91248,176.2089c-0.11945,0.15451 0.72124,3.68598 0.45081,3.83717c-0.08165,0.04562 -0.25179,-0.96792 -0.62012,-1.81947c-0.17331,-0.40066 -0.54471,-0.34546 -0.79059,-0.61955c-0.68138,-0.75955 -1.42587,0.09549 -1.42587,0.09549" data-paper-data="{&quot;index&quot;:null}" fill="none" stroke="#564343" stroke-width="1" stroke-linecap="round"/><path d="M252.01652,175.45648c0.05839,0.53086 -4.31934,1.01698 -4.0658,0.65959c0.23837,-0.33601 0.19917,-0.7838 0.62902,-1.31699c0.63501,-0.7877 1.45744,-1.60474 3.02748,-1.92341c1.04138,-0.21136 0.29426,1.53511 0.4093,2.58083z" data-paper-data="{&quot;index&quot;:null}" fill="#c3b0b0" stroke="none" stroke-width="0" stroke-linecap="butt"/><path d="M244.98637,180.8343c-0.59798,-0.44699 -0.50925,-1.1612 -0.50209,-1.87778c0.00717,-0.71657 -0.04512,-1.17034 0.53831,-1.74732c0.5834,-0.577 1.61517,-0.68866 1.98709,-0.66474c1.04631,0.06733 1.87073,1.31893 1.79061,2.56454c-0.08015,1.2456 -1.4534,1.97178 -1.4534,1.97178c0,0 -1.76251,0.2005 -2.36051,-0.24648z" data-paper-data="{&quot;index&quot;:null}" fill="#21242a" stroke="none" stroke-width="0" stroke-linecap="butt"/><path d="M239.71092,177.2295l1.09167,0.14252l0.2073,1.84744l-1.52635,-0.26523z" fill="#caa487" stroke="none" stroke-width="NaN" stroke-linecap="butt"/><path d="M241.28502,177.36465l0.96159,0.09476l0.15956,1.97753l-0.6331,-0.08484z" fill="#caa487" stroke="none" stroke-width="0" stroke-linecap="butt"/><path d="M242.81467,177.5204l0.722,0.04369l-0.05944,1.97092l-0.78705,-0.06758z" fill="#caa487" stroke="none" stroke-width="0" stroke-linecap="butt"/><path d="M243.75567,177.5707l0.69813,0.10874l-0.03887,2.01539l-0.52361,-0.08156z" fill="#caa487" stroke="none" stroke-width="0" stroke-linecap="butt"/></g><path d="M252.7419,175.91335c0,0 1.80678,-1.83445 2.72342,-1.77486c0.91662,0.0596 2.61854,2.34418 1.53935,4.99379c-0.89052,2.18635 -2.10017,2.34625 -3.17591,2.80519c-0.75744,-0.14489 -0.19226,-2.0586 -0.42756,-3.87761c-0.20977,-1.62158 -0.65929,-2.14651 -0.65929,-2.14651z" data-paper-data="{&quot;index&quot;:null}" fill="#a38273" stroke="none" stroke-width="0" stroke-linecap="butt"/></g><path d="M246.20752,193.60308c-0.4179,0.03467 3.26884,-1.30271 5.92247,-2.81549c2.65362,-1.51276 0.96138,-7.80149 0.96138,-7.80149c0,0 1.4868,0.40913 1.88862,3.31509c0.1213,0.96768 -0.89418,3.08551 -2.50075,4.51363c-1.60657,1.42811 -5.56131,2.98974 -5.97924,3.02442z" data-paper-data="{&quot;index&quot;:null}" fill="#ac5626" stroke="none" stroke-width="0" stroke-linecap="butt"/><path d="M243.88252,188.68717c-0.00541,-1.20389 1.94276,-1.71954 4.23458,-1.93328c1.92509,-0.17954 1.08465,-4.65793 3.39874,-4.32565c3.38094,0.48547 2.87126,4.41548 2.87126,4.41548c0,0 -0.67792,3.14253 -2.78366,4.30797c-2.10574,1.16544 -4.75999,2.54638 -5.27098,2.473c-0.96668,-0.1388 -2.44147,-3.05169 -2.44995,-4.93753z" fill="#2d3635" stroke="none" stroke-width="0" stroke-linecap="butt"/><path d="M251.23032,189.43242c-1.82716,1.08274 -2.15901,0.94544 -0.31774,-0.13654c1.82412,-1.0719 1.87018,-6.42601 1.87018,-6.42601l0.47805,0.3339c0,0 -0.245,5.17058 -2.0305,6.22864z" fill="#da8657" stroke="none" stroke-width="0" stroke-linecap="butt"/><path d="M249.53079,188.10252l1.94984,0.59939l2.13599,1.06364c0,0 -1.59504,1.67577 -2.4768,2.10721c-0.88175,0.43142 -2.31071,1.06429 -2.31071,1.06429c0,0 -0.4727,-1.12532 -0.66655,-1.43106c-0.12637,-0.19932 0.18523,-0.90547 0.18523,-0.90547l-2.27329,-3.58553c0,0 0.27095,-0.12525 0.77738,-0.13724c1.65755,-0.03925 1.42098,0.02061 1.42098,0.02061z" fill="#b3937c" stroke="none" stroke-width="0" stroke-linecap="butt"/><path d="M243.1391,187.33122c-0.50139,-1.03465 0.19868,-2.40962 1.56368,-3.07111c1.365,-0.66149 2.87801,-0.35898 3.3794,0.67567c0.50139,1.03465 -0.19869,2.40963 -1.56369,3.07111c-1.365,0.66149 -2.878,0.35898 -3.37939,-0.67567z" data-paper-data="{&quot;index&quot;:null}" fill="#21242a" stroke="none" stroke-width="0" stroke-linecap="butt"/><path d="M239.05497,188.04616l-2.67112,0.97485l-0.65903,4.23653l-0.85466,-4.97478l2.27105,-1.87464l0.44613,-4.8823l2.36858,1.20423l1.94355,0.6385z" fill="#ff3200" stroke="none" stroke-width="0" stroke-linecap="butt"/><g><path d="M242.15624,176.32885l2.39924,-1.02936c0,0 -0.26066,2.61732 0.13932,5.01793c0.39998,2.40061 1.10967,4.93821 1.10967,4.93821c0,0 -2.21266,-1.67025 -2.90418,-4.39332c-0.44129,-1.73775 -0.74405,-4.53346 -0.74405,-4.53346z" data-paper-data="{&quot;index&quot;:null}" fill="#ff3300" stroke="none" stroke-width="0" stroke-linecap="butt"/><path d="M247.26745,169.68355c0.27889,1.67382 -2.32556,3.0105 -4.43985,3.36277c-0.02239,0.00373 -3.91205,-1.91484 -5.60064,1.39399c-0.9678,1.89643 0.39884,8.27962 0.39884,8.27962l-2.8461,-6.75851c0,0 0.14939,2.28415 0.37931,3.60799c0.32089,1.84756 1.36576,6.43968 1.36576,6.43968c0,0 -2.53796,-3.47952 -3.26385,-5.8864c-0.87928,-2.91546 -1.6404,-10.37488 -1.6404,-10.37488c0,0 0.59785,7.25879 1.22969,11.87483c0.63183,4.61605 1.17891,5.72188 1.17891,5.72188c0,0 -2.72071,-3.78624 -3.59705,-6.57771c-0.87634,-2.79147 -1.51006,-6.66403 -1.51006,-6.66403l-0.47747,5.84171c0,0 -0.83052,-3.17362 -1.03852,-4.73463c-0.19803,-1.48611 -0.18104,-4.41778 -0.18104,-4.41778c0,0 1.06259,-2.7753 2.0857,-4.09938c1.86341,-2.41156 2.97851,-2.79197 2.97851,-2.79197c0,0 5.49535,-1.03931 9.96726,0.30607c2.11314,0.63574 3.44253,4.42657 3.44253,4.42657c0,0 1.28958,-0.62364 1.56846,1.05018z" data-paper-data="{&quot;index&quot;:null}" fill="#ff3300" stroke="none" stroke-width="0" stroke-linecap="butt"/><path d="M248.07332,174.35622c0,0 0.77882,0.81247 -4.32493,2.44781c-2.09183,0.67027 -4.34461,0.47421 -6.17771,-0.39585c-1.34298,-0.58652 -1.48532,-2.34898 -1.41843,-2.81333c0.23107,-1.60429 1.19625,-1.95216 1.94781,-1.69372c0.88829,0.30545 1.56107,1.39759 1.56107,1.39759c0,0 1.01764,-0.57856 3.82164,-0.90022c2.86724,-0.3289 4.59056,1.95771 4.59056,1.95771z" data-paper-data="{&quot;index&quot;:null}" fill="#ffbe7e" stroke="none" stroke-width="0" stroke-linecap="butt"/><path d="M249.09868,174.65376c0.0498,0.29889 -1.76128,0.32273 -1.76128,0.32273c0,0 -0.43569,-0.49286 -0.3655,-0.78807c0.07019,-0.29522 0.67889,-0.49368 0.67889,-0.49368c0,0 1.39809,0.66013 1.44789,0.95903z" data-paper-data="{&quot;index&quot;:null}" fill="#030000" stroke="none" stroke-width="0" stroke-linecap="butt"/><path d="M237.02631,174.938c0,0 0.36532,-0.19875 0.85001,-0.22516c0.48469,-0.02641 1.23881,0.11133 1.23881,0.11133" data-paper-data="{&quot;index&quot;:null}" fill="none" stroke="#000000" stroke-width="0.5" stroke-linecap="round"/><path d="M243.10771,172.43172c0,0 -2.35555,0.77304 -3.29943,0.93031c-0.46487,0.07745 -2.28326,-1.48192 -2.58264,-2.51779c-0.14936,-0.51682 0.07628,-1.27999 0.04303,-1.47958c-0.06553,-0.39328 1.95674,-0.004 3.23288,0.77872c0.81569,0.50029 2.60616,2.28834 2.60616,2.28834z" data-paper-data="{&quot;index&quot;:null}" fill="#ffffff" stroke="none" stroke-width="0" stroke-linecap="butt"/><g data-paper-data="{&quot;index&quot;:null}" fill="none" stroke="none" stroke-width="1" stroke-linecap="butt" font-family="sans-serif" font-weight="normal" font-size="12" text-anchor="start"/><path d="M242.34267,178.93382l2.10406,-0.27133l0.16709,0.85076l-1.99227,0.05954z" fill="#caa487" stroke="none" stroke-width="NaN" stroke-linecap="butt"/><path d="M242.36353,178.0856l-0.14017,-0.7467l2.12225,-0.29312l0.16708,0.85077z" fill="#caa487" stroke="none" stroke-width="0" stroke-linecap="butt"/><path d="M236.51137,179.81457l-0.61614,-1.40045l1.06954,0.16694l0.14981,1.37983z" fill="#caa487" stroke="none" stroke-width="0" stroke-linecap="butt"/><path d="M235.31742,177.43704l-0.3503,-1.0981l1.91147,0.45487l-0.06831,0.77189z" fill="#caa487" stroke="none" stroke-width="0" stroke-linecap="butt"/><path d="M234.39729,182.77462l-0.81513,-1.79669l1.79198,-0.45067l0.39973,1.78402z" fill="#caa487" stroke="none" stroke-width="0" stroke-linecap="butt"/><path d="M233.01692,179.58544l-0.46185,-2.05458l2.28065,0.09514l0.27876,1.55645z" fill="#caa487" stroke="none" stroke-width="0" stroke-linecap="butt"/><path d="M230.17569,180.26754l-0.40447,-1.41957l2.63333,-0.64496l0.17689,1.54056z" fill="#caa487" stroke="none" stroke-width="0" stroke-linecap="butt"/><path d="M231.74382,183.59039l-0.80394,-1.53409l1.84117,-1.43424l0.35528,2.40313z" fill="#caa487" stroke="none" stroke-width="0" stroke-linecap="butt"/><path d="M227.36749,175.27657l-0.07503,-1.52465l1.62652,-0.05913l-0.12545,1.80638z" fill="#caa487" stroke="none" stroke-width="0" stroke-linecap="butt"/><path d="M227.16215,171.39648l0.51224,-1.73162l0.57612,-0.01441l0.16044,1.61534z" fill="#caa487" stroke="none" stroke-width="0" stroke-linecap="butt"/></g><path d="M241.92977,185.88759l-1.28938,-1.98483c0,0 1.71794,-4.38136 2.60583,-4.15162c1.00727,0.26063 3.12494,5.63445 3.12494,5.63445c0,0 0.11946,0.67564 -0.03677,1.0582c-0.15624,0.38256 -1.77384,0.52663 -1.77384,0.52663c0,0 -1.14828,-2.42812 -1.71677,-2.6603c-0.6345,-0.25913 -0.91401,1.57747 -0.91401,1.57747z" fill="#ff3200" stroke="none" stroke-width="0" stroke-linecap="butt"/><path d="M242.76432,184.13759c0,0 -0.33641,-0.00107 -0.47714,0.15851c-0.14074,0.15958 -0.26979,0.68842 -0.26979,0.68842l-0.79296,-2.6112l0.39781,-0.82182z" fill="#caa487" stroke="none" stroke-width="0" stroke-linecap="butt"/><path d="M243.07896,184.54679l-0.8421,-0.94736l1.78948,-2.89474l0.63158,1.05263z" fill="#caa487" stroke="none" stroke-width="0" stroke-linecap="butt"/><path d="M244.34581,186.44511l-0.36318,-0.5403l2.06205,-1.44843l0.30428,0.87293z" fill="#caa487" stroke="none" stroke-width="0" stroke-linecap="butt"/><path d="M243.8079,185.57622l-0.2958,-0.50869l1.90717,-1.62645l0.4896,0.80359z" fill="#caa487" stroke="none" stroke-width="0" stroke-linecap="butt"/><path d="M242.91521,180.18122l-0.02389,4.20868c0,0 -1.54408,1.52833 -2.47503,1.49949c-0.93095,-0.02884 -2.31908,-1.648 -2.31908,-1.648c0,0 -0.81258,-1.65022 -0.80975,-3.47482c0.00282,-1.8246 0.28996,-4.07968 0.26033,-4.13258c-0.34039,-0.60778 -0.38013,-0.32693 0.6758,-0.7285c2.19064,-0.83309 4.55195,-0.46318 5.00058,-0.67156c0.66488,-0.30883 0.30129,1.20335 0.24415,2.11826c-0.05714,0.91491 -0.55313,2.82904 -0.55313,2.82904z" data-paper-data="{&quot;index&quot;:null}" fill="#59423a" stroke="none" stroke-width="0" stroke-linecap="butt"/><g stroke="none" stroke-width="0" stroke-linecap="butt"><path d="M238.48153,176.96695l5.12468,-0.06535l-1.91829,2.8198z" fill="#ebb074"/><path d="M241.55767,179.0066l-2.42999,-2.03013l4.07947,-0.00089z" fill="#4f5945"/><path d="M239.77134,177.00352l3.05504,-0.08226l-1.2145,1.25131z" fill="#ebb074"/></g><path d="M248.15884,174.40596c0,0 0.77882,0.81247 -4.32493,2.44781c-2.09183,0.67027 -4.34461,0.47421 -6.17771,-0.39585c-1.34298,-0.58652 -1.48532,-2.34898 -1.41843,-2.81333c0.23107,-1.60429 1.19625,-1.95216 1.94781,-1.69372c0.88829,0.30545 1.56107,1.39759 1.56107,1.39759c0,0 1.01764,-0.57856 3.82164,-0.90022c2.86724,-0.3289 4.59056,1.95771 4.59056,1.95771z" data-paper-data="{&quot;index&quot;:null}" fill="#ffbe7e" stroke="none" stroke-width="0" stroke-linecap="butt"/><path d="M249.18426,174.7035c0.0498,0.29889 -1.76128,0.32273 -1.76128,0.32273c0,0 -0.43569,-0.49286 -0.3655,-0.78807c0.07019,-0.29522 0.67889,-0.49368 0.67889,-0.49368c0,0 1.39809,0.66013 1.44789,0.95903z" data-paper-data="{&quot;index&quot;:null}" fill="#030000" stroke="none" stroke-width="0" stroke-linecap="butt"/><path d="M249.23679,168.3421z" data-paper-data="{&quot;index&quot;:null}" fill="#030000" stroke="none" stroke-width="0" stroke-linecap="butt"/><path d="M237.11183,174.98774c0,0 0.36532,-0.19875 0.85001,-0.22516c0.48469,-0.02641 1.23881,0.11133 1.23881,0.11133" data-paper-data="{&quot;index&quot;:null}" fill="none" stroke="#000000" stroke-width="0.5" stroke-linecap="round"/><path d="M243.19325,172.48146c0,0 -2.35555,0.77304 -3.29943,0.93031c-0.46487,0.07745 -2.28326,-1.48192 -2.58264,-2.51779c-0.14936,-0.51682 0.07628,-1.27999 0.04303,-1.47958c-0.06553,-0.39328 1.95674,-0.004 3.23288,0.77872c0.81569,0.50029 2.60616,2.28834 2.60616,2.28834z" data-paper-data="{&quot;index&quot;:null}" fill="#ffffff" stroke="none" stroke-width="0" stroke-linecap="butt"/><path d="M246.16245,171.83387c0.09786,0.5873 -0.10076,1.01864 -0.48006,1.08184c-0.3793,0.0632 -1.24614,0.03707 -1.34399,-0.55023c-0.09786,-0.5873 0.791,-1.61937 1.27765,-1.7612c0.48665,-0.14183 0.44856,0.64228 0.54641,1.22959z" data-paper-data="{&quot;index&quot;:null}" fill="#ffffff" stroke="none" stroke-width="0" stroke-linecap="butt"/><path d="M242.85765,187.77888l-4.78014,-1.60345l0.91794,-1.99175l5.38854,2.10435l1.34539,3.21549c0,0 -0.3122,0.77549 -0.74991,0.96467c-0.43771,0.1892 -1.46067,-0.0092 -1.46067,-0.0092z" fill="#ff3200" stroke="none" stroke-width="NaN" stroke-linecap="butt"/><g stroke="none" stroke-width="0" stroke-linecap="butt"><path d="M238.16911,177.5353l8.58867,-4.08783c0,0 0.90141,0.24768 1.16716,0.97194c0.34223,0.93277 -0.18067,1.30979 -0.18067,1.30979l-8.48863,3.38439z" fill="#ff3300"/><path d="M237.86261,177.66551l0.92288,-0.43221l1.31092,1.64299l-0.81408,0.33427z" fill="#caa487"/><path d="M239.31377,177.00579l0.92289,-0.43221l1.31091,1.64299l-0.81407,0.33426z" fill="#caa487"/><path d="M243.27749,175.11372l0.99501,-0.37948l1.56105,1.82588l-0.88076,0.28549z" fill="#caa487"/><path d="M244.38761,174.53019l1.02779,-0.35551l1.67474,1.90901l-0.91108,0.26332z" fill="#caa487"/></g><g stroke="none" stroke-width="0" stroke-linecap="butt"><path d="M248.39353,168.52908c0.3709,-0.56116 1.06691,-0.48588 1.82664,-0.95387c0.69438,-0.42771 2.56893,-1.56842 3.00622,-1.27939c0.18626,0.12312 0.24306,0.96595 0.84299,0.96336c0.41861,-0.00181 1.16397,0.13373 1.24436,0.2316c0.27855,0.33915 0.49224,2.88049 0.71335,3.19717c0.58619,0.83961 1.13452,1.51732 0.63519,2.32854c-2.45765,3.9929 -6.52179,2.04848 -6.76641,2.41856c-0.70991,1.07405 -0.41294,-1.97972 -1.3287,-2.58499c-0.91577,-0.60529 -0.88356,-3.24692 -0.17367,-4.32099z" data-paper-data="{&quot;index&quot;:null}" fill="#906d5f"/><path d="M245.09814,173.13183c0.3964,-0.70706 2.23371,-1.28485 2.23371,-1.28485c0,0 1.68269,0.11539 2.31115,1.31607c0.62844,1.20071 0.36195,2.80599 -0.64664,3.3339c-0.3585,0.18764 -1.43153,0.53154 -2.26472,0.2161c-0.83319,-0.31543 -0.9813,-0.78874 -1.3042,-1.49663c-0.32289,-0.7079 -0.72569,-1.37751 -0.32929,-2.08458z" data-paper-data="{&quot;index&quot;:null}" fill="#21242a"/><path d="M253.82989,167.14924c0.41861,-0.00181 1.40346,0.24367 1.48385,0.34154c0.27855,0.33915 0.49224,2.88049 0.71335,3.19717c0.58619,0.83961 1.13452,1.51732 0.63519,2.32854c-2.32417,4.46013 -3.43232,-5.86467 -2.83239,-5.86725z" data-paper-data="{&quot;index&quot;:null}" fill="#a38273"/><g data-paper-data="{&quot;index&quot;:null}"><path d="M255.33992,170.45959l-0.81533,-1.52997l0.78654,-0.99442z" fill="#b96a37"/><path d="M254.5713,168.96166l-1.75444,1.56851l-0.03794,-2.5492z" fill="#ffe7d7"/><path d="M254.5503,168.99061l-1.7797,-1.02805l2.52438,-0.02878z" fill="#ebb9a2"/><path d="M254.55852,168.95032l0.82513,1.53542l-2.54921,0.03794z" fill="#b89985"/></g><g data-paper-data="{&quot;index&quot;:null}"><path d="M255.57853,174.25342l-0.31135,-1.70547l1.05172,-0.70807z" fill="#b96a37"/><path d="M255.30193,172.59268l-2.14837,0.96058l0.73919,-2.43997z" fill="#ffe7d7"/><path d="M255.27312,172.61387l-1.3827,-1.52065l2.41355,0.74036z" fill="#ebb9a2"/><path d="M255.2932,172.57799l0.31904,1.71363l-2.43997,-0.73918z" fill="#b89985"/></g><path d="M250.22017,167.57521c0.69438,-0.42771 2.56893,-1.56842 3.00622,-1.27939c0.18626,0.12312 0.24306,0.96595 0.84299,0.96336c0.41861,-0.00181 -4.60895,0.78402 -3.84921,0.31603z" data-paper-data="{&quot;index&quot;:null}" fill="#c3b0b0"/></g><g data-paper-data="{&quot;index&quot;:null}" stroke="none" stroke-width="0" stroke-linecap="butt"><path d="M239.37067,173.15611c-0.35146,0.01302 -0.65541,-0.49047 -0.67891,-1.12458c-0.02349,-0.63412 0.24236,-1.15871 0.59383,-1.17173c0.35147,-0.01303 0.65542,0.49046 0.67892,1.12457c0.02349,0.63412 -0.24237,1.15872 -0.59383,1.17175z" fill="#7c5cbb"/><path d="M239.34138,172.81961c-0.19398,0.01633 -0.35705,-0.32762 -0.36423,-0.76822c-0.00719,-0.4406 0.14422,-0.811 0.3382,-0.82733c0.19398,-0.01633 0.35707,0.3276 0.36425,0.7682c0.00719,0.4406 -0.14425,0.81102 -0.33823,0.82735z" fill="#000000"/><path d="M239.21504,172.03687c-0.12585,0.00867 -0.23167,-0.17381 -0.23633,-0.40758c-0.00467,-0.23376 0.09358,-0.43028 0.21944,-0.43895c0.12585,-0.00867 0.23167,0.17381 0.23633,0.40758c0.00467,0.23376 -0.09358,0.43029 -0.21944,0.43896z" fill="#ffffff"/></g><path d="M243.29509,189.26894l-0.21926,-0.61298l2.11117,-0.57894l0.32402,0.60261z" fill="#caa487" stroke="none" stroke-width="0" stroke-linecap="butt"/><path d="M242.98721,188.2945l-0.16172,-0.56578l1.72384,-0.7522l0.50704,0.84896z" fill="#caa487" stroke="none" stroke-width="0" stroke-linecap="butt"/><g data-paper-data="{&quot;index&quot;:null}" stroke="none" stroke-width="0" stroke-linecap="butt"><path d="M245.05442,172.92538c-0.28083,0.0104 -0.52371,-0.39191 -0.54248,-0.8986c-0.01877,-0.50669 0.19366,-0.92587 0.4745,-0.93627c0.28084,-0.01041 0.52371,0.3919 0.54249,0.89859c0.01877,0.50669 -0.19367,0.92588 -0.4745,0.93629z" fill="#7c5cbb"/><path d="M245.03102,172.6565c-0.155,0.01305 -0.2853,-0.26179 -0.29104,-0.61385c-0.00575,-0.35206 0.11524,-0.64803 0.27024,-0.66108c0.155,-0.01305 0.28532,0.26177 0.29105,0.61383c0.00575,0.35206 -0.11526,0.64805 -0.27026,0.6611z" fill="#000000"/><path d="M244.93007,172.03105c-0.10056,0.00693 -0.18512,-0.13888 -0.18884,-0.32568c-0.00373,-0.18679 0.07478,-0.34382 0.17534,-0.35074c0.10056,-0.00693 0.18512,0.13888 0.18884,0.32568c0.00373,0.18679 -0.07478,0.34382 -0.17534,0.35075z" fill="#ffffff"/></g><g stroke="none" stroke-width="0" stroke-linecap="butt"><path d="M244.06655,197.32323c-0.41635,-0.04998 3.46391,-0.61945 6.36736,-1.56828c2.90343,-0.94881 4.71179,-1.94723 4.71179,-1.94723c0,0 0.15804,0.3426 -0.24642,0.64719c-0.80666,0.60748 -3.07218,1.39638 -4.03748,1.73793c-1.44929,0.51283 -6.1398,1.47046 -6.55617,1.42047z" data-paper-data="{&quot;index&quot;:null}" fill="#ac5626"/><path d="M242.62983,192.49391c0.23655,-1.18043 2.2486,-1.29418 4.53663,-1.04315c1.92191,0.21087 3.69984,-1.90076 5.89999,-1.11037c3.21448,1.1548 2.14902,3.55119 2.14902,3.55119c0,0 -3.46622,1.47628 -5.76316,2.19492c-2.29694,0.71864 -4.83344,1.44694 -5.31927,1.27241c-0.91909,-0.33017 -1.87377,-3.01593 -1.50322,-4.86502z" fill="#2d3635"/><path d="M249.67811,194.70012c-2.00743,0.6936 -2.30493,0.49242 -0.28383,-0.19759c2.00227,-0.68358 5.86106,-2.2416 5.86106,-2.2416l0.03105,0.1323c0,0 -3.64663,1.62909 -5.60828,2.30687z" fill="#da8657"/><path d="M248.67303,192.97525l1.91263,1.16528l0.99965,1.82806c0,0 -1.62688,0.51738 -2.57734,0.76288c-0.95045,0.24549 -2.46685,0.52682 -2.46685,0.52682c0,0 -0.15633,-0.80471 -0.2848,-1.14317c-0.08375,-0.22064 0.36336,-0.8498 0.36336,-0.8498l-1.50661,-3.96912c0,0 0.29059,-0.06826 0.7891,0.02173c1.63164,0.29454 2.08059,0.07164 2.08059,0.07164z" fill="#b3937c"/><path d="M242.17398,191.01625c-0.28331,-1.11428 0.67871,-2.32058 2.14878,-2.69436c1.47007,-0.37378 2.89145,0.22653 3.17476,1.34081c0.28331,1.11428 -0.67873,2.32058 -2.1488,2.69436c-1.47007,0.37378 -2.89144,-0.22652 -3.17475,-1.34081z" data-paper-data="{&quot;index&quot;:null}" fill="#21242a"/></g><path d="M240.43184,186.89731l-0.98482,-0.27285l1.63851,-1.64999l0.5464,0.15982z" fill="#caa487" stroke="none" stroke-width="0" stroke-linecap="butt"/><path d="M241.85011,187.47731l-1.07674,-0.42907l1.51522,-1.61382l0.81161,0.27454z" fill="#caa487" stroke="none" stroke-width="0" stroke-linecap="butt"/><path d="M238.05505,184.29482l-0.28302,-0.92117c0,0 2.17457,-0.14067 2.99618,-0.47346c0.82161,-0.33279 2.14173,-1.23678 2.14173,-1.23678l0.12695,0.59881c0,0 -1.26333,1.07892 -2.22856,1.47274c-0.96523,0.39382 -2.75329,0.55987 -2.75329,0.55987z" data-paper-data="{&quot;index&quot;:null}" fill="#6e2b11" stroke="none" stroke-width="0" stroke-linecap="butt"/><path d="M243.98504,188.19416l-2.63898,-0.82681l-1.29293,-3.88331l2.64226,-1.31132l2.35664,3.37678z" fill="#d79774" stroke="none" stroke-width="0" stroke-linecap="butt"/><path d="M243.66209,187.36669l-2.22664,-0.69761l-1.1407,-3.44007l2.19259,-0.87406l2.07502,2.78032z" fill="#494a42" stroke="none" stroke-width="0" stroke-linecap="butt"/><path d="M240.02416,183.23148l0.42173,-0.60752l1.70726,-0.48591l0.53199,0.13016l-0.51303,2.19167z" fill="#3fcf78" stroke="none" stroke-width="0" stroke-linecap="butt"/><g stroke="none" stroke-width="0" stroke-linecap="butt"><g><path d="M247.59492,162.47972c0.48019,1.67498 -1.35315,3.89003 -3.1767,5.10816c-1.27032,0.84857 -1.63045,1.42298 -1.88391,1.35381c-0.36058,-0.0984 -0.90098,-1.48866 -1.56779,-2.21486c-1.56556,-1.70491 -3.0427,-5.10733 -0.67274,-6.26519c1.9668,-0.96092 3.67655,2.04727 3.67655,2.04727c0,0 3.02133,-2.13347 3.62456,-0.0292z" fill="#d67a49"/><path d="M245.1876,161.62505c-0.08437,0.31575 -0.32698,0.51673 -0.60092,0.64642c-0.22075,0.1045 -0.73744,0.36124 -0.73744,0.36124c0,0 -0.32291,-0.57509 -0.46068,-0.74955c-0.20185,-0.25561 -0.35628,-0.47097 -0.2657,-0.80983c0.15237,-0.57017 0.73809,-0.90886 1.30827,-0.7565c0.57018,0.15237 0.90886,0.73809 0.7565,1.30827z" fill="#d67a49"/><path d="M244.02624,162.05665c-0.4216,-0.11266 -0.67202,-0.54576 -0.55935,-0.96733c0.11265,-0.42157 0.54574,-0.672 0.96732,-0.55934c0.42157,0.11266 0.67201,0.54572 0.55935,0.96731c-0.11266,0.4216 -0.54574,0.67202 -0.96731,0.55937z" fill="#770000"/><path d="M247.25153,162.68869c0.42985,1.49943 -1.36807,3.51446 -3.00045,4.60493c-1.13715,0.75966 -1.45955,1.27384 -1.68642,1.21191c-0.32277,-0.08808 -0.80651,-1.3326 -1.40345,-1.98269c-1.40145,-1.52622 -2.7306,-4.68491 -0.60905,-5.72141c1.76065,-0.86022 3.34999,2.03543 3.34999,2.03543c0,0 2.80939,-2.03188 3.3494,-0.1482z" fill="#29382d"/><path d="M247.15831,164.028c0,0 -2.85289,-0.22344 -3.48163,-0.36629c-1.30263,-0.29594 -4.19377,-1.38854 -4.19377,-1.38854c0,0 -0.04726,-0.33935 0.31009,-0.89246c0.16643,-0.25761 0.62798,-0.53963 0.62798,-0.53963c0,0 2.81036,2.23836 3.3386,2.37953c1.20249,0.32135 3.44181,-0.76304 3.44181,-0.76304c0,0 0.15581,0.48145 0.13251,0.80091c-0.02334,0.31945 -0.17561,0.7695 -0.17561,0.7695z" fill="#ffac5f"/><path d="M245.16002,166.59402c0,0 -0.86033,-0.95405 -1.56015,-1.11207c-0.78114,-0.17638 -3.14299,0.1743 -3.14299,0.1743c0,0 -0.34157,-0.56278 -0.45926,-0.80008c-0.09191,-0.18532 -0.20722,-0.53843 -0.20722,-0.53843c0,0 2.88634,-0.01651 3.69655,0.19999c0.86775,0.23188 2.60644,1.17786 2.60644,1.17786c0,0 -0.27008,0.30071 -0.41989,0.45c-0.15293,0.15236 -0.51344,0.44843 -0.51344,0.44843z" fill="#ffac5f"/><path d="M243.73434,167.68759c0,0 -0.97166,0.88494 -1.22502,0.88823c-0.24132,0.00313 -0.80786,-1.24154 -0.80786,-1.24154c0,0 0.16359,-0.8462 0.1259,-2.04757c-0.06078,-1.9385 -0.19138,-2.84656 0.73504,-3.3065c0.57854,-0.28723 1.54022,0.49094 1.54022,0.49094c0,0 1.85536,-0.51356 1.88377,0.66608c0.01426,0.59238 0.01021,0.61327 -0.47483,1.33137c-0.28493,0.42181 -0.23181,0.91991 -0.34618,1.09041c-0.24527,0.36568 -0.65838,0.09222 -0.9848,0.5179c-0.68134,1.0671 -0.44626,1.61064 -0.44626,1.61064z" fill="#d67a49"/><path d="M244.04281,165.82691c-0.56481,0.91932 -0.51219,2.1707 -0.51219,2.1707c0,0 -0.75239,0.74155 -0.95739,0.74762c-0.19527,0.00577 -0.76998,-1.12246 -0.76998,-1.12246c0,0 0.29472,-1.29147 0.2796,-2.31616c-0.02442,-1.65341 -0.20344,-2.67729 0.55185,-3.08158c0.4717,-0.25249 1.29103,0.4915 1.29103,0.4915c0,0 1.69636,-0.49678 1.6624,0.04769c-0.02884,0.46203 -0.75883,1.78255 -1.5453,3.06266z" fill="#ffac5f"/><path d="M244.04281,165.82692c-0.28848,0.46956 -1.5741,-0.56914 -1.95057,-1.56154c-0.36058,-0.95054 0.1303,-1.91631 0.49981,-2.11411c0.4717,-0.25249 1.37833,0.51484 1.37833,0.51484c0,0 1.65171,-0.44636 1.61774,0.0981c-0.02884,0.46203 -0.75883,1.78255 -1.5453,3.06266z" fill="#d67a49"/><path d="M245.00305,165.60458c-0.27102,0.18937 -1.06337,0.01702 -1.46305,-0.17384c-0.55306,-0.26411 -0.74441,-1.0029 -0.72969,-2.37658c0.00403,-0.37672 0.2636,-0.53323 0.67309,-0.49603c0.40377,0.03667 0.46932,0.27755 0.90562,0.38709c0.4328,0.10868 0.93542,-0.4082 1.0339,-0.38189c0.08971,0.02398 0.71025,0.22769 0.42504,1.10276c-0.63756,0.66677 -0.65882,1.80854 -0.84485,1.93852z" fill="#ffac5f"/><path d="M243.79272,166.88375l-0.35405,0.31895c0,0 0.2633,-0.91681 0.33201,-1.21427c0.06269,-0.27146 0.06394,-0.49962 0.06394,-0.49962l0.69185,0.12284c0,0 -0.17409,0.15761 -0.21223,0.38195c-0.05316,0.31274 -0.25149,1.27249 -0.25149,1.27249z" fill="#8c3e22"/><path d="M243.63978,164.05129c0,0 -0.1925,0.32481 -0.59579,-0.01448c-0.19088,-0.16057 -0.00218,-0.76567 -0.00218,-0.76567l0.59798,0.78014z" fill="#016929"/><path d="M245.21725,164.29288l0.40583,-0.70209c0,0 0.07479,0.22742 -0.10307,0.50241c-0.11988,0.18534 -0.30276,0.19967 -0.30276,0.19967z" fill="#016929"/></g><path d="M241.012,166.84739c0,0 -5.74991,0.46288 -6.34107,-2.50318c-0.03832,-0.50126 0.21673,-0.4715 0.21673,-0.4715l0.73646,-0.18917c0,0 -0.23382,0.06198 -0.12645,0.58479c0.34637,1.68664 5.02195,1.57636 5.02195,1.57636l0.49236,1.0027z" fill="#ffac5f"/><path d="M239.07309,166.80793c0,0 -0.8945,-0.05571 -1.40426,-0.14897c-0.50974,-0.09326 -1.28286,-0.34266 -1.28286,-0.34266l0.14539,-1.02566c0,0 0.75164,0.22077 1.26274,0.3286c0.51111,0.10784 1.17664,0.15569 1.17664,0.15569l0.10234,1.03301z" fill="#29382d"/><path d="M234.82987,164.82177c0,0 -0.13778,-0.26004 -0.16148,-0.46348c-0.02372,-0.20344 -0.02685,-0.78293 -0.02685,-0.78293l0.97122,-0.06718c0,0 -0.13113,0.34412 -0.11244,0.58585c0.01867,0.24173 0.19094,0.59116 0.19094,0.59116z" fill="#29382d"/></g></g></g></svg>