<svg version="1.1" xmlns="http://www.w3.org/2000/svg" xmlns:xlink="http://www.w3.org/1999/xlink" width="16.48435" height="23.21788" viewBox="0,0,16.48435,23.21788"><g transform="translate(-231.1406,-168.62467)"><g data-paper-data="{&quot;isPaintingLayer&quot;:true}" fill-rule="nonzero" stroke="none" stroke-miterlimit="10" stroke-dasharray="" stroke-dashoffset="0" style="mix-blend-mode: normal"><path d="" fill="#000000" stroke-width="1" stroke-linecap="round" stroke-linejoin="round"/><path d="" fill="#ee1a40" stroke-width="1" stroke-linecap="round" stroke-linejoin="round"/><g stroke-width="0" stroke-linecap="butt" stroke-linejoin="miter"><path d="M244.92413,181.60777l0.18147,5.43698l2.51935,2.80766c0,0 -4.48,-0.2945 -6.50344,-1.97357c-1.83167,-1.51992 -1.88339,-4.09149 -1.88339,-4.09149z" data-paper-data="{&quot;index&quot;:null}" fill="#2095ad"/><path d="M231.65684,191.74772c0,0 1.7058,-3.39023 1.7058,-5.11738c0,-0.92372 -1.21068,-4.20771 -1.27119,-7.68034c-0.05268,-3.02046 1.46936,-7.29275 2.59792,-7.29275c1.20379,0 1.15345,8.71255 1.24765,10.4371c0.53604,8.35207 -4.28017,9.65335 -4.28017,9.65335z" data-paper-data="{&quot;index&quot;:null}" fill="#2095ad"/><path d="M239.59961,183.56837c0.41194,3.72187 -3.01489,8.27418 -3.01489,8.27418c0,0 -1.42149,-1.25873 -0.94767,-6.68101c0.08429,-0.9646 0.31683,-5.54382 0.47383,-5.54382c0.10521,0 0.39077,1.84174 1.39039,3.02215c0.49222,0.58122 2.01906,0.21243 2.09832,0.92853z" data-paper-data="{&quot;index&quot;:null}" fill="#2095ad"/><path d="M245.62398,174.4824c0,0.08232 -0.42917,0.14906 -1.32056,0.14906c-0.89138,0 -2.88562,-2.74926 -2.88562,-2.83155c0,-0.08229 1.73657,0.28213 2.62795,0.28213c0.40482,0 -0.05747,0.82826 0.42407,1.3432c0.57874,0.61885 1.15414,1.01228 1.15414,1.05721z" fill="#2095ad"/><path d="M236.01612,176.06384c0,0 -0.02306,2.73558 0.08781,4.30566c0.16618,2.35311 0.81247,8.44039 0.81247,8.44039c0,0 -3.38717,-5.23077 -3.83804,-8.57635c-0.41423,-3.07377 0.38009,-6.8691 0.38009,-6.8691c0,0 1.90381,-4.05071 4.6125,-3.04648c0.51505,0.19094 0.3588,1.70371 0.3588,1.70371l-0.07397,1.19653z" fill="#2095ad"/><path d="M238.66955,169.57231c0,0 -1.6808,0.26921 -2.3451,0.73483c-0.31244,0.21899 -2.3651,1.20923 -2.33532,1.00074c0.34211,-2.39423 2.6903,-2.39893 2.6903,-2.39893c0,0 0.08905,-0.28428 0.90029,-0.28428c0.81125,0 1.08983,0.94767 1.08983,0.94767z" fill="#2095ad"/><path d="M242.36542,170.23564c0,0.2617 -1.1202,0.09477 -1.80056,0.09477c-0.68036,0 -1.42147,-0.75811 -1.42147,-0.75811c0,0 -0.06498,-0.72512 0.64879,-0.68521c1.0857,0.06073 2.5733,1.0869 2.5733,1.3486z" fill="#2095ad"/><path d="M241.03871,170.37786c0,0.54957 -1.07063,0.80551 -2.27436,0.80551c-1.20379,0 -2.17963,-0.25597 -2.17963,-0.80551c0,-0.54956 0.97585,-0.90028 2.17963,-0.90028c1.20377,0 2.27436,0.3507 2.27436,0.90028z" fill="#2095ad"/><path d="M238.10436,171.55124c0,0.39956 -0.56253,0.1904 -1.25649,0.1904c-0.69395,0 -1.02805,0.36149 -1.02805,-0.03808c0,-0.39956 0.37473,-1.09092 1.06869,-1.09092c0.69392,0 1.21586,0.53903 1.21586,0.9386z" fill="#2095ad"/><path d="M246.25091,173.88419c0,0 -2.15759,-2.79051 -3.59987,-3.43391c-0.56261,-0.25099 -2.38273,0.64841 -1.99135,0.02231c0.0656,-0.10497 1.29107,-1.02416 1.99355,-0.9503c1.14486,0.00771 1.60755,0.52385 1.60755,0.52385c0,0 0.96049,-0.19551 1.73437,0.73391c0.96554,1.15964 0.2557,3.10414 0.2557,3.10414z" fill="#2095ad"/><path d="M245.68226,174.59503l-1.85631,-1.5855c0,0 -0.42603,-1.07782 0.19207,-1.07782c0.61808,0 1.66424,2.66336 1.66424,2.66336z" fill="#2095ad"/><path d="M245.49276,177.34326c0,0 0.09706,3.65482 -0.40717,5.72781c-0.50423,2.07299 -2.15151,4.79123 -2.15151,4.79123c0,0 -0.09478,-3.19201 -0.09478,-7.01268c0,-3.82067 -1.80053,-8.90802 -1.80053,-8.90802c0,0 1.76233,0.01255 2.38736,0.36238c0.81304,0.45507 2.06667,5.03929 2.06667,5.03929z" fill="#2095ad"/><path d="M244.82078,179.67488c-0.15574,3.25732 -3.54361,4.16883 -5.15246,4.14883c-2.67585,-0.03328 -5.40907,-1.22808 -5.35799,-4.24975c0.04156,-2.45952 2.376,-4.454 5.30693,-4.454c2.93093,0 5.6804,2.04492 5.20353,4.55492z" fill="#2095ad"/><path d="M240.08153,180.78927c0,0 -0.60294,0.10712 -1.3467,0.10712c-0.74376,0 -1.186,-0.20404 -1.186,-0.20404c0,0 -0.30308,-2.0953 1.1044,-1.82107c1.45719,0.2485 1.42829,1.918 1.42829,1.918z" fill="#eaeee9"/><path d="M231.23039,175.16355c0,0 0.11688,-1.31991 0.32527,-1.96405c0.20837,-0.64414 0.71718,-1.25799 0.71718,-1.25799l0.42645,1.37412z" fill="#2095ad"/><path d="M244.85215,172.30041c0,0.04207 -1.39667,-0.18743 -2.21678,-0.18743c-0.82011,0 -2.32261,-0.78623 -2.32261,-0.82829c0,-0.04207 0.741,-0.98998 1.86573,-0.98998c1.1247,0 2.67365,1.96364 2.67365,2.0057z" fill="#2095ad"/><path d="M231.1406,175.32062c0,0 0.59358,-0.77724 0.84574,-1.12743c0.25216,-0.35019 0.78743,-1.1044 0.78743,-1.1044c0,0 0.38077,0.40755 0.38077,0.97535c0,0.56776 -2.01393,1.25649 -2.01393,1.25649z" fill="#2095ad"/><path d="M243.16373,180.56597c0,0 -0.24758,-0.97874 -0.09444,-1.51065c0.23492,-0.81592 0.66704,-1.0403 1.10153,-0.50355c0.43445,0.53673 -0.03149,1.88834 -0.03149,1.88834z" fill="#eaeee9"/><path d="M243.51974,180.53569c-0.3344,0 -0.60547,-0.45559 -0.60547,-1.01764c0,-0.56203 0.27107,-1.01763 0.60547,-1.01763c0.3344,0 0.60546,0.45558 0.60546,1.01763c0,0.56203 -0.27106,1.01764 -0.60546,1.01764z" fill="#a77baf"/><path d="M245.47177,179.18105c0,0 -0.01699,-0.24583 -0.67931,-0.65587c-0.75676,-0.46851 -1.67782,1.38466 -1.67782,1.38466l-0.36378,-0.83345c0,0 -0.31019,1.02722 -0.59277,1.13336c-0.42048,0.15795 -1.64729,-0.81674 -2.72095,-1.08881c-0.93949,-0.23806 -3.52805,-0.14881 -3.52805,-0.14881c0,0 -1.17437,-4.86157 0.56604,-5.56659c0.92642,-0.37527 1.34659,-1.38561 3.29689,-0.95565c1.95033,0.42997 4.01772,1.5128 4.86257,2.75448c0.84484,1.24168 0.8372,3.9767 0.8372,3.9767z" fill="#2095ad"/><path d="M235.36217,172.42256c-1.31462,1.40312 -2.37851,1.31947 -2.37851,1.31947c0,0 -0.32768,-0.40134 -0.61494,-1.02095c-0.20012,-0.4317 -0.38066,-1.01809 -0.41713,-1.44368c-0.03992,-0.46561 0.89243,-1.08242 1.44548,-1.22482c0.67809,-0.17461 1.00805,0.18309 1.00805,0.18309c0,0 1.04194,-0.49758 1.55357,-0.44276c0.51164,0.05486 1.42796,0.85829 1.42796,0.85829c0,0 -0.86345,0.10996 -1.27269,0.60258c-0.21496,0.25878 -0.47098,0.86911 -0.75178,1.16882z" fill="#2095ad"/><path d="M242.74398,173.62591c0,0.66731 -0.41717,1.7769 -1.51628,1.7769c-1.09911,0 -1.99998,-0.49206 -2.7482,-1.39782c-0.12005,-0.14533 0.00225,-0.76604 -0.13384,-1.32585c-0.15144,-0.62282 -0.48665,-1.31742 -0.30983,-1.62091c0.33953,-0.34413 1.95996,-0.00374 1.95996,-0.00374c0,0 0.542,-0.83176 1.06926,-0.245c0.75699,0.84246 1.67898,2.42308 1.67898,2.81644z" fill="#2095ad"/><path d="M235.15158,182.97379l-0.10214,-4.80071l1.02142,0.45964l0.25536,4.44326z" fill="#2095ad"/><path d="M244.33503,179.55781c-0.01817,-0.06598 0.4473,-0.30776 0.86573,-0.57377c0.4184,-0.266 1.00865,-0.76788 1.00865,-0.76788c0,0 -0.49175,0.70221 -0.83107,0.8692c-0.33931,0.16707 -1.00414,0.61436 -1.0433,0.47244z" data-paper-data="{&quot;index&quot;:null}" fill="#2195ab"/><path d="M238.52819,180.82963c-0.3344,0 -0.60547,-0.45559 -0.60547,-1.01764c0,-0.56203 0.27107,-1.01763 0.60547,-1.01763c0.3344,0 0.60546,0.45558 0.60546,1.01763c0,0.56203 -0.27106,1.01764 -0.60546,1.01764z" fill="#a77baf"/><path d="M242.23535,180.68855c-0.02394,-0.30998 0.76467,-0.6972 0.76467,-0.6972c0,0 0.09661,0.44684 0.1918,0.45479c0.25778,0.02153 0.97125,-0.04783 0.97125,-0.04783c0,0 -0.43953,0.69938 -0.89776,0.66884c-0.17935,-0.01193 -1.01457,-0.1793 -1.02996,-0.37861z" fill="#2195ab"/><path d="M237.48956,181.29614l0.64673,-0.40423c0,0 0.5156,0.04043 0.76799,0.04043c0.25239,0 0.68716,-0.08086 0.68716,-0.08086l0.44467,0.44463z" fill="#2195ab"/><path d="M235.17426,182.47209c0,0 -1.02795,-0.85597 -1.22357,-2.28399c-0.19562,-1.42802 0.95811,-3.19092 1.22357,-3.58913c0.26545,-0.3982 1.14199,0.48943 1.14199,0.48943c0,0 -0.32662,1.07364 -0.47997,1.79657c-0.20951,0.98767 -0.66203,3.58711 -0.66203,3.58711z" fill="#2195ab"/><path d="" data-paper-data="{&quot;index&quot;:null}" fill="#2095ad"/></g></g></g></svg>