<svg version="1.1" xmlns="http://www.w3.org/2000/svg" xmlns:xlink="http://www.w3.org/1999/xlink" width="30.90807" height="36.69151" viewBox="0,0,30.90807,36.69151"><g transform="translate(-227.31012,-163.56744)"><g data-paper-data="{&quot;isPaintingLayer&quot;:true}" fill-rule="nonzero" stroke-linejoin="miter" stroke-miterlimit="10" stroke-dasharray="" stroke-dashoffset="0" style="mix-blend-mode: normal"><g stroke="none" stroke-width="0" stroke-linecap="butt"><path d="M245.33281,178.84874c0.74496,-0.49608 2.84174,-0.14117 2.84174,-0.14117c0,0 1.59653,0.95878 1.61126,2.45506c0.01472,1.49629 -1.05377,2.9408 -2.31065,2.95317c-0.44677,0.0044 -1.67457,-0.19653 -2.33533,-0.92526c-0.66076,-0.72873 -0.49442,-1.29526 -0.45628,-2.1535c0.03814,-0.85824 -0.0957,-1.69223 0.64925,-2.1883z" fill="#c3b0b0"/><path d="M240.2126,179.65893l4.79735,-0.01747c0,0 0.77342,0.67163 0.70598,1.45c-0.08686,1.00246 -0.77173,1.07688 -0.77173,1.07688l-4.41482,-0.49083z" fill="#cc0000"/><path d="M250.88527,175.97862c0.64661,-0.36544 1.29312,0.05824 2.27524,-0.02024c0.8976,-0.0717 1.94819,-0.82186 2.23296,-0.31799c0.12129,0.21462 -0.0337,1.30636 -0.0337,1.30636c0,0 -1.62141,0.43523 -1.04131,0.6325c0.28228,0.09599 1.09373,0.32807 1.81322,0.32862c0.71948,0.00056 0.38112,-0.62534 0.9723,-0.32649c0.41249,0.20852 1.07728,0.71621 1.10714,0.85283c0.10349,0.4734 -0.96308,3.07949 -0.90477,3.50198c0.15458,1.12005 0.35326,2.06182 -0.54523,2.60862c-4.42237,2.69134 -7.38804,-1.11383 -7.81447,-0.87284c-1.23757,0.69942 0.53498,-2.30236 -0.06137,-3.35756c-0.59635,-1.05519 0.7624,-3.63639 1.99997,-4.33581z" fill="#c3b0b0"/></g><g stroke="none" stroke-width="0" stroke-linecap="butt"><path d="M244.4924,189.94339c-0.55737,-0.1032 -1.8152,-2.43356 -1.57136,-2.83617c0.39271,-0.64839 1.10189,-1.21758 2.02548,-1.6792c0.92359,-0.46164 1.47906,-0.69465 2.31436,-0.48994c0.36278,0.08891 1.94145,1.74259 1.43204,3.09712c-0.09912,0.26357 -0.70653,1.09332 -1.54177,1.55151c-0.79806,0.4378 -1.80702,0.5144 -2.65877,0.35669z" fill="#53b761"/><path d="M249.066,194.74562c-0.45317,0.13773 4.8889,-4.29771 5.19741,-6.56412c0.20288,-1.49037 -0.58201,-4.72012 -0.58201,-4.72012c0,0 1.69528,2.70212 1.24479,5.17452c-0.58813,3.22778 -5.40704,5.97197 -5.86021,6.10971z" fill="#646362"/><path d="M252.17838,191.6791c0.14149,0.46557 -1.91381,2.07388 -1.94031,2.09512c-1.05188,0.8431 -1.92288,1.70407 -2.54,1.64953c-1.69244,-0.14958 -2.81922,-3.73724 -3.19546,-4.97516c-0.37624,-1.23791 2.04629,-2.40824 3.78634,-2.28761c1.74007,0.12063 3.51318,2.28021 3.88942,3.51812z" fill="#ff1c00"/><path d="M249.21799,186.6109c-0.4675,-1.53819 0.09094,-3.65303 1.71331,-4.07326c1.08103,-0.28 2.65594,0.22698 3.12345,1.76517c0.4675,1.53819 0.7047,4.8322 -0.36375,5.15694c-1.06844,0.32473 -4.00554,-1.31067 -4.47303,-2.84885z" fill="#ff1c00"/><path d="M251.9275,192.10905c-0.50658,0.15397 -2.77615,-2.12101 -3.21846,-3.5763c-0.44232,-1.45529 0.60423,-2.00545 1.11083,-2.15942c0.26329,-0.08002 1.33746,-0.06738 2.3747,0.41126c0.9585,0.4423 1.76278,1.39351 1.9752,2.09244c0.15846,0.52135 -1.73568,3.07805 -2.24227,3.23203z" fill="#ded000"/><path d="M248.41354,187.15837c0,0 0.09148,-1.10097 0.22444,-1.5564c0.13296,-0.45545 0.43878,-0.90276 0.43878,-0.90276c0,0 0.40646,-0.1228 0.67129,-0.11827c0.26483,0.00454 0.79985,0.00503 0.79985,0.00503c0,0 0.16229,0.87025 0.05992,1.27466c-0.10237,0.40441 -0.61358,1.26197 -0.61358,1.26197c0,0 -0.58371,0.11949 -0.87155,0.00445c-0.28784,-0.11503 -0.70915,0.03132 -0.70915,0.03132z" fill="#e0e0de"/></g><path d="M242.84693,180.30788l-0.02389,4.20868l-1.06658,1.92203l-4.29091,-0.66208c0,0 0.23631,-3.09542 -0.45764,-3.82693c-0.69394,-0.7315 -0.48469,-6.47405 -0.51432,-6.52695c-0.34039,-0.60778 0.60579,1.0111 1.66172,0.60953c2.19064,-0.83309 4.55195,-0.46318 5.00058,-0.67156c0.66488,-0.30883 0.30129,1.20335 0.24415,2.11826c-0.05714,0.91491 -0.55313,2.82904 -0.55313,2.82904z" data-paper-data="{&quot;index&quot;:null}" fill="#ff3200" stroke="none" stroke-width="0" stroke-linecap="butt"/><path d="M242.24181,176.37859l2.39924,-1.02936c0,0 -0.26066,2.61732 0.13932,5.01793c0.39998,2.40061 1.10967,4.93821 1.10967,4.93821c0,0 -2.21266,-1.67025 -2.90418,-4.39332c-0.44129,-1.73775 -0.74405,-4.53346 -0.74405,-4.53346z" data-paper-data="{&quot;index&quot;:null}" fill="#ff3300" stroke="none" stroke-width="0" stroke-linecap="butt"/><path d="M247.35296,169.73329c0.27889,1.67382 -2.32556,3.0105 -4.43985,3.36277c-0.02239,0.00373 -3.91205,-1.91484 -5.60064,1.39399c-0.9678,1.89643 0.39884,8.27962 0.39884,8.27962l-2.8461,-6.75851c0,0 0.14939,2.28415 0.37931,3.60799c0.32089,1.84756 1.36576,6.43968 1.36576,6.43968c0,0 -2.53796,-3.47952 -3.26385,-5.8864c-0.87928,-2.91546 -1.6404,-10.37488 -1.6404,-10.37488c0,0 0.59785,7.25879 1.22969,11.87483c0.63183,4.61605 1.17891,5.72188 1.17891,5.72188c0,0 -2.72071,-3.78624 -3.59705,-6.57771c-0.87634,-2.79147 -1.51006,-6.66403 -1.51006,-6.66403l-0.47747,5.84171c0,0 -0.83052,-3.17362 -1.03852,-4.73463c-0.19803,-1.48611 -0.18104,-4.41778 -0.18104,-4.41778c0,0 1.06259,-2.7753 2.0857,-4.09938c1.86341,-2.41156 2.97851,-2.79197 2.97851,-2.79197c0,0 5.49535,-1.03931 9.96726,0.30607c2.11314,0.63574 3.44253,4.42657 3.44253,4.42657c0,0 1.28958,-0.62364 1.56846,1.05018z" data-paper-data="{&quot;index&quot;:null}" fill="#ff3300" stroke="none" stroke-width="0" stroke-linecap="butt"/><path d="M248.15883,174.40596c0,0 0.77882,0.81247 -4.32493,2.44781c-2.09183,0.67027 -4.34461,0.47421 -6.17771,-0.39585c-1.34298,-0.58652 -1.48532,-2.34898 -1.41843,-2.81333c0.23107,-1.60429 1.19625,-1.95216 1.94781,-1.69372c0.88829,0.30545 1.56107,1.39759 1.56107,1.39759c0,0 1.01764,-0.57856 3.82164,-0.90022c2.86724,-0.3289 4.59056,1.95771 4.59056,1.95771z" data-paper-data="{&quot;index&quot;:null}" fill="#ffbe7e" stroke="none" stroke-width="0" stroke-linecap="butt"/><path d="M249.18425,174.7035c0.0498,0.29889 -1.76128,0.32273 -1.76128,0.32273c0,0 -0.43569,-0.49286 -0.3655,-0.78807c0.07019,-0.29522 0.67889,-0.49368 0.67889,-0.49368c0,0 1.39809,0.66013 1.44789,0.95903z" data-paper-data="{&quot;index&quot;:null}" fill="#030000" stroke="none" stroke-width="0" stroke-linecap="butt"/><path d="M249.23678,168.3421z" data-paper-data="{&quot;index&quot;:null}" fill="#030000" stroke="none" stroke-width="0" stroke-linecap="butt"/><path d="M237.11182,174.98774c0,0 0.36532,-0.19875 0.85001,-0.22516c0.48469,-0.02641 1.23881,0.11133 1.23881,0.11133" data-paper-data="{&quot;index&quot;:null}" fill="none" stroke="#000000" stroke-width="0.5" stroke-linecap="round"/><path d="M243.19324,172.48146c0,0 -2.35555,0.77304 -3.29943,0.93031c-0.46487,0.07745 -2.28326,-1.48192 -2.58264,-2.51779c-0.14936,-0.51682 0.07628,-1.27999 0.04303,-1.47958c-0.06553,-0.39328 1.95674,-0.004 3.23288,0.77872c0.81569,0.50029 2.60616,2.28834 2.60616,2.28834z" data-paper-data="{&quot;index&quot;:null}" fill="#ffffff" stroke="none" stroke-width="0" stroke-linecap="butt"/><path d="M246.16244,171.83387c0.09786,0.5873 -0.10076,1.01864 -0.48006,1.08184c-0.3793,0.0632 -1.24614,0.03707 -1.34399,-0.55023c-0.09786,-0.5873 0.791,-1.61937 1.27765,-1.7612c0.48665,-0.14183 0.44856,0.64228 0.54641,1.22959z" data-paper-data="{&quot;index&quot;:null}" fill="#ffffff" stroke="none" stroke-width="0" stroke-linecap="butt"/><g data-paper-data="{&quot;index&quot;:null}" stroke="none" stroke-width="0" stroke-linecap="butt"><path d="M240.29412,173.74511c-0.33036,0.05504 -0.67867,-0.38353 -0.77798,-0.97957c-0.09931,-0.59605 0.08799,-1.12385 0.41835,-1.17889c0.33036,-0.05505 0.67867,0.38352 0.77799,0.97957c0.09931,0.59605 -0.08799,1.12386 -0.41835,1.1789z" fill="#7c5cbb"/><path d="M240.23611,173.26035c-0.19577,0.03262 -0.3809,-0.09964 -0.41352,-0.29541c-0.03262,-0.19577 0.09963,-0.38091 0.2954,-0.41353c0.19577,-0.03262 0.38092,0.09964 0.41353,0.29541c0.03262,0.19577 -0.09964,0.38091 -0.29541,0.41353z" fill="#000000"/><path d="M240.15491,172.77296c-0.19577,0.03262 -0.38091,-0.09964 -0.41353,-0.29541c-0.03262,-0.19577 0.09964,-0.38091 0.29541,-0.41353c0.19577,-0.03262 0.38091,0.09964 0.41353,0.29541c0.03262,0.19577 -0.09964,0.38091 -0.29541,0.41353z" fill="#ffffff"/></g><g data-paper-data="{&quot;index&quot;:null}" stroke="none" stroke-width="0" stroke-linecap="butt"><path d="M245.39591,173.6087c-0.33036,0.05504 -0.67867,-0.38353 -0.77799,-0.97957c-0.09931,-0.59605 0.08799,-1.12385 0.41835,-1.17889c0.33036,-0.05505 0.67867,0.38352 0.77799,0.97957c0.09931,0.59605 -0.08799,1.12386 -0.41835,1.1789z" fill="#7c5cbb"/><path d="M245.33793,173.12394c-0.19577,0.03262 -0.38091,-0.09964 -0.41352,-0.29541c-0.03262,-0.19577 0.09963,-0.38091 0.2954,-0.41353c0.19577,-0.03262 0.38091,0.09964 0.41353,0.29541c0.03262,0.19577 -0.09964,0.38091 -0.29541,0.41353z" fill="#000000"/><path d="M245.25673,172.63655c-0.19577,0.03262 -0.38091,-0.09964 -0.41352,-0.29541c-0.03262,-0.19577 0.09964,-0.38091 0.29541,-0.41353c0.19577,-0.03262 0.38091,0.09964 0.41353,0.29541c0.03262,0.19577 -0.09964,0.38091 -0.29541,0.41353z" fill="#ffffff"/></g><path d="M242.68861,179.7833c0,0.59855 0.02107,0.65026 -0.48769,0.65026c-0.50876,0 -1.30051,-2.05914 -1.30051,-2.05914c0,0 1.7882,0.81034 1.7882,1.40888z" fill="#f3f3f3" stroke="none" stroke-width="0" stroke-linecap="butt"/><path d="M240.38536,190.76808l-3.83692,1.73492l-2.15743,7.75595l0.2884,-10.61346l2.5205,-2.02934l0.95979,-5.98888l2.28145,1.3621l1.89577,0.76885z" fill="#ff3200" stroke="none" stroke-width="0" stroke-linecap="butt"/><path d="M241.92976,185.88759l-1.28938,-1.98483c0,0 1.71794,-4.38136 2.60583,-4.15162c1.00727,0.26063 3.12494,5.63445 3.12494,5.63445c0,0 0.11946,0.67564 -0.03677,1.0582c-0.15624,0.38256 -1.77384,0.52663 -1.77384,0.52663c0,0 -1.14828,-2.42812 -1.71677,-2.6603c-0.6345,-0.25913 -0.91401,1.57747 -0.91401,1.57747z" fill="#ff3200" stroke="none" stroke-width="0" stroke-linecap="butt"/><g stroke-linecap="butt"><path d="M244.80691,173.06436c0.46013,-0.76769 2.50644,-1.34655 2.50644,-1.34655c0,0 1.85346,0.18122 2.50863,1.52653c0.65516,1.34531 0.30962,3.10852 -0.82043,3.65886c-0.4017,0.19563 -1.59697,0.54081 -2.50645,0.16597c-0.90948,-0.37483 -1.00225,-0.95793 -1.33595,-1.74957c-0.33371,-0.79163 -0.81236,-1.48756 -0.35224,-2.25524z" fill="#e8e6e6" stroke="none" stroke-width="0"/><path d="M237.17653,178.02821l7.67879,-4.10929c0,0 0.98675,0.27493 1.25973,1.00697c0.35156,0.9428 -0.23518,1.30381 -0.23518,1.30381l-7.32767,3.2943z" fill="#ff3300" stroke="none" stroke-width="0"/><path d="M248.59136,168.08989c0.42734,-0.60748 1.19309,-0.5021 2.04659,-0.99429c0.78006,-0.44982 1.40728,-1.57812 1.88067,-1.24512c0.20163,0.14184 0.52995,1.19452 0.52995,1.19452c0,0 -1.27795,1.08869 -0.66931,1.01804c0.29617,-0.03437 1.12873,-0.17283 1.77889,-0.48097c0.65016,-0.30814 0.07601,-0.72837 0.73824,-0.71201c0.46205,0.01141 1.28036,0.18484 1.36594,0.29545c0.29656,0.38323 0.45104,3.19489 0.68495,3.55152c0.6201,0.94545 1.20357,1.71094 0.62649,2.59031c-2.84031,4.3282 -7.15155,2.1631 -7.43337,2.56372c-0.81789,1.16268 -0.50439,-2.30926 -1.49574,-3.00662c-0.99134,-0.69736 -0.87121,-3.61186 -0.05332,-4.77454z" fill="#e8e6e6" stroke="none" stroke-width="0"/><path d="M253.94816,168.69544c0.66971,-0.31592 2.08979,0.11588 2.08979,0.11588c0,0 -0.50486,1.5084 -1.17458,1.82432c-0.66971,0.31592 -1.4175,0.13768 -1.67023,-0.39809c-0.25272,-0.53577 0.08531,-1.22621 0.75502,-1.54211z" fill="#e8e6e6" stroke="#999797" stroke-width="0.5"/><path d="M254.93873,172.12005c0.72949,-0.12706 1.98428,0.66576 1.98428,0.66576c0,0 -0.8867,1.32058 -1.6162,1.44764c-0.72949,0.12706 -1.40327,-0.24305 -1.50492,-0.82665c-0.10164,-0.5836 0.40734,-1.1597 1.13684,-1.28675z" fill="#e8e6e6" stroke="#999797" stroke-width="0.5"/></g><path d="M242.85764,187.77888l-4.78014,-1.60345l0.91794,-1.99175l5.38854,2.10435l1.34539,3.21549c0,0 -0.3122,0.77549 -0.74991,0.96467c-0.43771,0.1892 -1.46067,-0.0092 -1.46067,-0.0092z" fill="#ff3200" stroke="none" stroke-width="NaN" stroke-linecap="butt"/><g stroke="none" stroke-width="0" stroke-linecap="butt"><path d="M254.63971,190.24679c0.68888,0.6896 0.94568,2.43868 0.65993,2.65186c-1.01666,1.0344 -4.24033,3.17538 -4.9592,2.5151c-0.71889,-0.66027 -0.5668,-4.93871 -0.5668,-4.93871c0,0 3.83219,-1.26319 4.86607,-0.22825z" fill="#ff1c00"/><path d="M249.37218,195.90343c0.02384,0.42358 -2.18473,1.28442 -2.21252,1.29783c-1.10327,0.53157 -1.47415,0.86596 -2.00325,0.70823c-1.45102,-0.43257 -2.24418,-3.45818 -2.30754,-4.58443c-0.06335,-1.12628 2.31152,-1.69092 3.8105,-1.27452c1.49898,0.41639 2.58818,2.58224 2.65155,3.70849z" fill="#ff1c00"/><path d="M246.49059,192.15142c-0.07448,-1.32404 1.57633,-1.18354 2.05342,-1.22401c0.24797,-0.02104 1.09933,0.09902 1.90535,0.69504c0.74482,0.55076 1.97186,2.27298 2.00764,2.90887c0.02668,0.47433 -2.8997,1.70226 -3.37678,1.74274c0,0 -2.51516,-2.7986 -2.58963,-4.12263z" fill="#ded000"/><path d="M245.32457,197.93463c-0.41571,0.03149 3.84046,-1.59811 6.48928,-3.08316c2.64882,-1.48505 3.5229,-2.49857 3.5229,-2.49857c0,0 0.36199,0.14764 0.02624,0.52267c-0.66964,0.74798 -2.0387,1.7031 -2.91431,2.22231c-1.31463,0.77954 -6.52627,2.96684 -6.94196,2.99833z" fill="#646362"/><path d="M243.06479,192.88627c-0.52042,-0.22465 -1.22816,-2.77645 -0.90083,-3.11471c0.52714,-0.54475 1.34521,-0.94186 2.34835,-1.18639c1.00315,-0.24454 1.59654,-0.34811 2.36534,0.03733c0.33391,0.16741 1.44524,1.58827 0.64721,2.79548c-0.15528,0.2349 -1.11005,0.75695 -2.02631,1.0178c-0.87547,0.24924 -1.63846,0.7938 -2.43375,0.45052z" fill="#53b761"/><path d="M248.75154,190.81464c0.73066,-0.26822 1.03287,-0.51497 1.03287,-0.51497c0,0 1.62976,1.01032 0.99352,1.25995c-0.63624,0.24961 -3.88364,1.64869 -3.88364,1.64869c0,0 -0.3519,-0.70652 -0.30126,-0.99587c0.05063,-0.28934 0.62329,-0.64673 0.62329,-0.64673c0,0 0.80456,-0.48285 1.53521,-0.75107z" fill="#e0e0de"/></g></g></g></svg>