<svg version="1.1" xmlns="http://www.w3.org/2000/svg" xmlns:xlink="http://www.w3.org/1999/xlink" width="331.65468" height="602.85248" viewBox="0,0,331.65468,602.85248"><g transform="translate(-133.91201,63.68361)"><g data-paper-data="{&quot;isPaintingLayer&quot;:true}" fill-rule="nonzero" stroke="none" stroke-width="1" stroke-linecap="butt" stroke-linejoin="miter" stroke-miterlimit="10" stroke-dasharray="" stroke-dashoffset="0" style="mix-blend-mode: normal"><g fill="#020811"><path d="M311.87104,532.17119l2.25684,-5.86779h11.28423l9.02738,-9.93011c4.96506,-5.86779 10.38149,-13.99245 11.73559,-18.05476l2.70821,-8.12465h13.99243v45.31746h9.47875l6.02174,-5.16463l7.54282,-4.46282l8.10115,-6.17047l0.45137,-33.04021v-33.04021l8.12465,-2.70822c4.06232,-1.80548 9.02738,-4.96507 10.83286,-7.67328l3.61095,-4.96506v-68.78865l-7.2219,-19.95052l-6.77053,-19.95051l2.70821,-13.99244l2.25685,-14.44381l10.38149,-2.70821c5.41643,-1.3541 11.28422,-2.70821 13.08969,-2.70821h3.15958l1.80548,19.40887l1.80548,18.95751l0.45137,-23.56146l0.90273,-23.11009l-8.57601,2.25684l-8.12464,2.25685l-3.15958,-18.9575l-2.70821,-18.50613l6.31916,-10.83286l-7.2219,5.8678l-7.67328,5.8678l-7.67328,-1.3541l-7.67327,-1.3541l-0.90274,72.39958l-1.3541,72.39958l4.51369,5.41643l4.5137,5.8678l-5.41642,22.56846h-13.54106v6.31916c0,3.15958 -3.15958,12.18696 -6.77053,18.95751c-3.61095,7.22189 -6.77053,16.70066 -6.77053,21.30462v7.67327h-14.89518l2.70821,-36.65116l2.25685,-37.10254l5.8678,-3.15958l5.41643,-3.61094l1.80549,-99.12062c1.3541,-54.25454 2.25685,-105.89117 2.70821,-114.46718c0,-8.57601 -1.3541,-22.65873 -3.61095,-31.23474l-3.61095,-14.89518l8.12464,1.3541l8.12465,1.80548l3.15958,6.77053c7.2219,13.99244 13.0897,29.88063 14.89517,38.45664l2.25685,9.02737l0.45137,-14.4438l0.45137,-14.89518h9.02739v-32.0472l6.77053,-2.25685l6.77053,-2.70821l6.31916,4.96506l6.31916,5.41643l1.80548,-17.15202l2.25684,-17.15202l-4.51369,-9.93012l-4.5137,-10.38149l4.5137,-10.3815l4.96506,-10.38149l-4.5137,-8.12464l-4.51369,-8.57601l2.70821,-24.4642l2.70821,-24.91556l-4.5137,-16.24929l-4.06232,-16.70066l-9.93011,-6.31916l-9.93011,-5.8678l-4.06232,7.2219l-4.06232,7.22189h-13.08969v-13.08969l-6.77053,2.25685l-6.77053,2.70821v18.9575c0,9.93011 -1.80548,26.26967 -4.06232,35.29706l-4.06232,16.2493l4.06232,4.06231l3.61095,3.61095l6.31916,51.63662l-7.67328,11.28423c-4.06232,6.31917 -7.22189,14.44381 -7.22189,18.50613v6.77053h-13.54106v-10.83286c0,-5.8678 -4.06232,-26.72105 -8.57601,-46.12992l-9.02738,-35.74842l4.06232,-30.78336l3.61095,-30.332l-2.25685,-18.05475l-2.70821,-18.05476l121.08904,0c-0.17995,9.20582 0.58966,18.30707 0.45772,21.64892c-0.15436,3.90953 -1.97703,7.74717 -2,11.74431c-0.04407,7.66654 -0.11129,15.33414 0,23c0.08039,5.53728 2.64317,10.41466 3.57006,15.76713c2.72217,15.71955 3.78664,30.60218 3.42994,46.67643c-0.18881,8.50856 -2.9647,16.94548 -3,25.55644c-0.07836,19.11558 0.18558,38.23239 0,57.34723c-0.02177,2.2424 -0.99658,4.41027 -1,6.65277c-0.12822,83.98092 0.237,167.96237 0,251.94306c-0.00582,2.06206 -1.13662,3.96712 -1.58177,5.98057c-1.25971,5.69776 -2.39855,13.19537 -2.41823,19.07637c-0.06232,18.62189 0.25417,37.24572 0,55.86597c-0.15495,11.35124 -1.92387,22.78509 -2,34.13403c-0.03858,5.75177 0.34209,11.51398 0,17.25569c-0.01561,0.26203 -0.03364,0.52304 -0.05386,0.78308h-144.98006z"/><path d=""/><path d=""/><path d=""/><path d=""/><path d=""/><path d=""/><path d=""/><path d=""/><path d="M139.3578,59.13647l5.8678,6.31916l-2.25685,-10.83286l-2.25685,-11.28423l7.67328,-7.67328l7.67328,-7.22189l-3.15959,-33.94294l-3.15958,-33.94294h-8.50809c-0.04529,-2.19798 -0.0999,-4.39583 -0.16514,-6.59353c0,-4.13102 -1.00196,-8.02802 -2.77611,-11.46123h38.17039l2.70821,54.70593l3.15959,55.1573l3.61094,4.96506c2.25685,2.70821 7.2219,17.15202 11.28423,32.58884l7.67327,27.62378l1.3541,70.59412l1.3541,71.04548h-10.83286l-2.70821,7.22189c-4.06232,10.3815 -3.15958,42.06758 1.80548,70.14274l4.5137,24.4642l1.80548,67.8859c1.3541,37.5539 3.61095,76.46191 5.41643,87.29477l3.15958,18.95751h11.28423l2.70821,-6.77053l2.25685,-6.77053h13.99242v13.54106h4.96507l4.29975,-0.97709l-1.59153,-17.98042l-2.70821,-19.40887l-4.5137,-1.3541l-4.96506,-1.80548v-21.66572h13.54106l5.41644,-21.66572l10.83286,-2.70821l10.83286,-2.70822l0.45137,-10.38149c0,-5.41643 0,-20.85325 -0.45137,-33.49158l-0.45137,-24.01283h9.47876l2.70821,-11.28422l2.70821,-11.28423h12.63832v10.38149c0,5.41643 -2.25685,27.17241 -4.5137,47.48402l-4.96506,37.55391l4.5137,25.81831c2.70822,13.99244 5.8678,33.94295 7.67328,43.87307l2.94931,16.85323h-10.35177l-32.50312,1.8473l-19.36363,-1.8473h-113.72476c3.0731,-1.92139 5.18365,-5.2325 7.03206,-8.36058c1.91069,-3.23347 2.96653,-8.47877 3.125,-12.5c0.14935,-3.78985 0.13972,-8.24628 -0.74644,-12.0694c-0.7003,-3.02125 -2.12689,-5.92762 -2.25657,-9.02626c-0.34126,-8.1545 -0.38042,-16.31735 -0.30725,-24.48125l2.11957,7.06525l4.5137,-7.67327l4.5137,-8.12465l-4.96506,-4.96506h-0.18054l-4.96507,-4.96507v-8.83139c0.85792,-5.0169 2.35461,-10.3118 3.86492,-14.29924c1.11689,-2.94877 2.83959,-5.59475 3.66859,-8.66837c0.74816,-2.77389 1.08512,-6.17871 1.94066,-8.99664c7.70788,-25.38759 1.71125,-49.63741 -3.08635,-74.54658c-0.69957,-3.63215 -1.27336,-7.58858 -2.35265,-11.11305c-0.1619,-0.52867 -3.24883,-6.42895 -3.26273,-7.39892c-0.31271,-21.82586 -0.08568,-43.65638 0,-65.48431c0.01223,-3.11446 1.65727,-6.34264 1.65727,-9.59111c0,-4.51458 -0.36925,-9.03331 -0.15576,-13.54283c0.0884,-1.86735 1.37509,-14.17708 1.5015,-15.01502c0.74588,-4.94409 2.9901,-9.95241 3.003,-15.08965c0.06286,-25.02495 0.06286,-50.05013 0,-75.07508c-0.00786,-3.12711 -1.19106,-6.02058 -1.5015,-9.08365c-1.10752,-10.92781 -2.93601,-21.55884 -4.89513,-32.36014c-0.74915,-4.13036 -3.9773,-8.50654 -4.11388,-12.6849c-0.1308,-4.00146 -0.08738,-8.007 -0.02825,-12.01082c0.47839,0.6875 0.92245,1.24181 1.32298,1.64235zM177.54354,210.16451l0.45137,-10.38149h8.12463l-1.3541,-27.17241c-0.90274,-14.89517 -2.70821,-28.52653 -3.61095,-30.332c-0.90274,-2.25685 -5.41643,-18.50612 -9.93011,-36.19979l-7.67328,-33.04021h-18.50612l3.15958,28.52652l3.15958,28.07515l4.51369,4.5137l4.06232,4.06232v67.88589l5.41643,14.89517l5.41643,15.34654l3.15959,-8.12464c1.80548,-4.5137 3.61094,-12.63832 3.61094,-18.05475z"/><path d="M309.85529,536.3861h0.61077l-0.40051,1.20152z"/><path d="M239.47137,354.87341l3.61095,-30.78336l-0.90274,-55.15729l-1.35409,-55.60867h6.77053h6.77053l7.2219,14.89517l7.2219,14.44381l-2.70821,47.48402c-1.80548,26.26968 -4.96506,58.31687 -7.2219,71.49684l-4.5137,23.56146h-9.47875h-9.47874z"/><path d="M211.93786,341.33233c-1.80548,-14.44381 -4.96506,-33.94294 -7.22189,-43.4217l-4.5137,-16.70065l2.70822,-4.5137c1.3541,-2.70821 5.41642,-4.51369 9.02737,-4.51369h6.31917l2.70821,17.15202c1.3541,9.02738 4.51369,23.1101 6.77053,30.33199l4.5137,13.54107l-3.15958,17.15203l-2.70821,16.70065h-5.8678h-5.8678l-2.70822,-25.81831z"/><path d="M289.75388,343.13781l-12.18696,-4.96506l2.70821,-14.44381l2.70821,-14.89517l-5.41643,-15.7979l-4.96506,-15.79791l5.8678,-9.02738l5.8678,-9.47874h5.41643h5.41643l3.15958,17.15202l3.15959,16.70066l4.06231,-14.44381l4.06231,-14.89518h4.06231h4.5137v-24.91557v-24.91556h-3.61095h-4.06231l-4.06231,-21.30461l-4.5137,-21.75598l-3.61095,30.78336l-3.61094,31.23474l-9.47875,-2.70821c-5.41643,-1.3541 -12.63832,-2.70822 -15.34654,-2.70822h-5.8678v-11.28422v-11.28423h-8.12465h-8.12464l-5.41643,-5.41643l-5.41643,-5.41643v-13.99244l0.45137,-13.54107l5.8678,-8.12464l5.86779,-7.67328h6.31916h6.31916l10.3815,14.89518l9.93011,14.44381l-2.70821,-36.19979l-3.15958,-36.19979l-4.5137,-2.70821l-4.06231,-2.70822l1.3541,-24.4642l0.90273,-24.4642l-3.15958,-21.30461l-3.61095,-21.30462l8.12464,-11.28422l8.57602,-11.28423l5.8678,-0.45137h5.41643v4.5137v4.51369h9.02738h9.02737l-1.3541,42.97033l-0.90273,43.42171l4.96506,3.15958l4.96506,3.15958l2.70822,55.60867l2.70821,55.15729l7.2219,7.2219l6.77052,7.22189l-0.45137,20.85325c-0.45137,11.73559 0.90274,35.29706 2.70821,52.44908l3.61095,31.23474l-8.57601,-2.25684l-9.02738,-2.25685l-5.41643,5.8678l-5.41643,5.8678v11.73559v11.28423l-5.41643,-0.45137c-3.15958,-0.45137 -11.28423,-2.70821 -18.50612,-5.41643z"/><path d="M239.47137,117.36305c-1.3541,-5.8678 -2.70821,-24.01284 -2.70821,-40.71349v-30.78336h6.31916h6.31916l2.70821,10.38149c1.3541,5.41643 2.70822,23.56147 2.70822,40.71349v30.33199h-6.31916h-6.31917z"/><path d="M245.88081,-21.02669v-12.63833l5.8678,-12.18696l5.41643,-12.18696h7.67328h7.67327l2.70821,19.95051l3.15958,20.40188l-3.15958,4.5137l-2.70821,4.96506h-13.54107h-13.08969v-12.63833z"/></g><g fill="#051e34"><path d="M217.80567,515.56076c-0.45137,-10.83286 -0.45137,-26.72105 0,-35.29705c0.45137,-8.57601 0,-20.40188 -1.3541,-25.81831l-2.25685,-10.3815h-12.63832l-2.70821,-7.22189c-1.3541,-4.06232 -2.70821,-18.95751 -2.70821,-33.94295v-26.72104h13.54105v-18.95749l6.77053,2.70821l7.2219,2.70821l2.25684,-6.77053l2.70821,-6.77053h12.63832v31.59582h9.02739l2.70821,-18.50612l3.15958,-18.50612l5.8678,-2.25685l6.31916,-2.25685v-16.70065l-4.5137,-2.70821l-4.51369,-2.70821v-24.82529l4.96506,-4.96507l4.96506,-4.96506l-2.70821,-19.95052c-1.3541,-10.3815 -3.15958,-25.36695 -3.61094,-33.04021l-1.3541,-13.54107h-13.54106l1.3541,47.48402l1.3541,47.03265l-5.41642,29.79034h-3.15959c-3.61095,0 -14.4438,-32.13747 -14.4438,-42.51896v-6.31916l4.96507,-1.80548l4.96506,-1.80548l-5.41643,-19.40887l-5.41643,-19.95052l4.5137,-2.70822l4.06231,-2.70821l2.25684,-16.24929l1.80549,-16.24929l-11.7356,-10.83286v-10.83286c0,-5.8678 1.3541,-13.54108 2.70821,-17.60339l2.70821,-7.2219h11.28423l-2.25684,11.28423l-1.80549,11.28423l5.41643,6.77053c3.15958,3.61095 7.2219,6.77053 9.47875,6.77053h4.06232v-18.05476h9.0274v41.70649l6.31916,-4.96506l6.31916,-5.41643l2.70822,7.22189l2.70821,7.2219l4.06232,-2.25685l4.06232,-2.70822l3.15958,10.38149l3.15958,9.93011l2.25685,-7.67328l1.80548,-8.12464h12.18695l2.70822,7.2219c1.3541,4.06231 2.70821,13.99244 2.70821,22.65874v15.79791l-4.06231,-2.70822l-4.5137,-2.25685l-5.41642,18.05476h-9.47876l1.80549,-15.79791l1.80548,-15.79791h-3.15958c-1.80548,0 -7.2219,5.41644 -12.18696,12.63833l-9.02738,12.18696l4.5137,11.28422l4.06231,11.28423l-2.7082,32.49858l12.18696,4.96506l12.63832,4.5137v-22.56845l6.31916,2.25685l6.77053,2.70821l2.70821,-9.02738l2.70822,-8.57601l4.51369,2.25685l4.06232,2.70821v-18.50613h9.02739l0.45137,10.3815c0,5.41643 3.15958,20.40188 5.8678,32.58884l5.8678,22.65873l-0.45137,-31.68611l-0.45137,-31.23474l-7.67328,-8.12464c-4.51369,-4.51369 -10.38149,-8.12464 -13.0897,-8.12464h-4.96506l3.61095,-16.70066l3.61095,-17.15202l-0.90274,-22.20735l-0.90274,-22.65873l4.96506,-3.15958l5.41643,-3.15958l-3.15958,-16.2493l-3.15958,-16.24929h-7.2219l-3.15958,-21.30462c-1.80548,-12.18696 -4.51369,-31.68611 -5.8678,-44.32444l-3.15958,-22.65873l-2.25684,9.93012l-2.70822,9.93011l-6.77052,-4.06231l-6.77053,-4.06232l0.90273,-43.4217l0.45137,-42.97034h-8.12464v21.66572l-6.77053,2.70821l-6.77053,2.25684l3.15958,-18.95751l2.70821,-18.9575l-11.73559,13.54107l-12.18696,13.54107l-4.5137,-6.77053l-4.51369,-6.77053l0.90274,58.85852l3.15958,-13.08969l2.70821,-13.0897l9.93012,-3.61096l2.70821,9.47875l2.25685,9.47875l-2.25685,24.91556l-2.70821,24.4642h-7.67327v13.99243l18.05476,-5.41642l0.90273,20.40189c0.45137,11.28423 0.90274,24.4642 0.90274,28.52653l0.45137,8.12464l-7.67328,1.3541l-8.12465,1.3541l-0.45136,-12.63833v-12.63833l-6.31916,13.54106l-9.93012,0.90274l-10.38149,1.3541v-13.99243l-18.05476,5.41642l-5.8678,-5.8678c-3.61095,-3.15958 -8.57601,-10.83286 -11.73559,-16.24929l-5.8678,-10.83286l2.70821,-6.31917l2.25685,-6.31916h28.43624l-3.15958,-16.70066c-1.80548,-9.47875 -3.15958,-26.72104 -3.15958,-38.45663l-0.45136,-21.75599h-7.67327v22.56845h-17.15202l-2.70822,-10.83286c-1.3541,-5.8678 -4.51369,-25.36695 -7.22189,-43.4217c-2.70821,-18.05475 -5.8678,-37.55391 -7.22189,-43.4217l-2.70821,-10.83286h23.01981l2.70821,21.75599c4.06232,27.62378 6.77053,37.10253 10.83286,37.10253h3.15958l6.31916,-29.42926l9.11768,-33.42059l17.60339,-2l4.87474,5.99133v17.60339l-4.51369,2.70821l-4.5137,2.70821v22.11709h16.70066l9.02738,-9.93011l9.02738,-10.38149l3.15958,-12.18696l2.70821,-12.63833l5.1028,-3.96856c2.9647,0.54096 5.92249,0.96911 8.86728,0.96911c11.6855,0 24.31904,0.50387 35.98869,0.77926c5.78912,6.74403 7.65484,13.97848 6.19152,21.62906l2.25685,18.95751l-7.2219,58.85852l2.25685,7.67328l1.80548,8.12464l-13.54106,5.41642l8.57601,8.57601c4.96506,4.96507 10.83285,13.99245 13.08969,20.40188l4.5137,11.28422v25.81831l0.45137,25.81832l6.77053,-18.05476c3.61095,-9.93011 8.12464,-21.75598 9.47875,-26.26968l2.25684,-7.67328h12.63832v8.12464l18.05476,-4.5137v-35.20678l-8.57601,-8.57601l-8.57602,-8.57601l-3.15958,11.28422l-2.70822,11.28422l-6.31916,-2.70821l-6.31916,-2.25684l-2.25685,5.41643l-2.70821,5.41643l2.25685,-16.70066l2.70821,-16.24929l-4.96507,-3.15958l-4.96506,-3.15958l3.15958,-16.2493c1.3541,-9.02738 4.51369,-18.50612 6.77053,-21.30462l4.06231,-4.06231l0.45137,17.60339l0.45137,18.05476l2.25685,-5.41643l2.25684,-5.8678h12.63832v23.01982l4.51369,-2.70821l4.06232,-2.70821l3.15958,-15.79791l2.70821,-15.79791l7.67328,-4.96506l7.2219,-4.5137l-1.80548,-20.40188l-1.3541,-20.85325l4.96506,3.15958l4.96507,3.15958v-23.01982h8.12462l0.45137,16.70065c0,15.34654 3.61095,79.17012 5.8678,109.95348c0,6.31916 -0.90273,15.34654 -3.15958,19.95051l-3.61095,8.57602l4.5137,-2.70821l4.96506,-3.15958l-0.90273,17.15202c-0.90274,9.02738 -1.3541,23.56147 -1.80548,32.13748l-0.90273,14.89518l-22.56846,-14.4438l-0.90273,3.15958c0,2.25685 -0.90274,5.8678 -1.3541,8.12465c-0.90274,2.70821 -1.3541,10.3815 -1.80548,17.15203l-0.45137,12.63832l-4.5137,-2.70822l-4.51369,-2.70821v8.57601c0,4.96507 -0.90274,15.79791 -2.25685,24.01283l-2.25685,15.34654l2.70821,-5.86779l2.70821,-5.41643l3.61095,2.25685l3.61095,2.25684l5.41643,-16.70065c3.15958,-9.47874 7.2219,-18.95751 9.47875,-21.30462l4.06232,-4.51369v23.92255l-4.06232,2.70821c-2.25685,1.3541 -5.41643,8.57601 -7.2219,15.79791l-3.15958,13.54107l-16.24928,9.0274l-5.8678,-24.01283c-3.61095,-12.63832 -6.31916,-25.81831 -6.31916,-28.97789c0,-2.70822 -1.80548,-6.77053 -3.61095,-8.57601c-1.80548,-1.80548 -3.15958,-6.77053 -3.15958,-10.83286v-8.12465l-7.67328,-5.8678l-7.67327,-6.31916l3.61095,9.02738c2.25685,4.96507 4.96506,18.50612 5.8678,29.88063l2.25684,20.85324l-9.93012,6.31916v-14.44379l-4.06232,2.70821l-4.5137,2.25684l8.12464,27.98488l-5.41642,39.90104h9.93012l-2.7082,137.57726l-4.96506,1.80548l-5.41643,1.80548v22.1171l-6.77053,2.25685l-6.77053,2.70821v12.63833h9.02739l0.45137,14.89518l0.45137,14.44381l4.51369,-15.79791c2.25685,-8.57601 6.31916,-17.60339 8.57601,-19.95052l4.06231,-4.51369v-21.66573l6.77053,2.70821l6.31916,2.25685l4.96506,-18.05475l4.96506,-18.05476l-2.25684,-5.41644l-1.80548,-5.41643l-0.45137,10.38149l-0.45137,9.93011h-10.38149l2.70821,-39.81073l2.25685,-39.81074l5.8678,-12.18696l5.41643,-12.18696l-7.2219,-8.12464l-7.67328,-8.57601v-27.53352l11.7356,-9.93014l9.93012,9.93014l2.70821,-4.96507c1.80548,-2.70821 6.31916,-4.96507 9.93012,-4.96507h6.77053l-0.90273,10.3815c-0.45137,5.41643 -0.45137,16.24929 0,23.56146l0.90273,13.54108l8.57601,-10.38149l8.57601,-10.3815l1.3541,17.15202c0.90274,9.47874 0.90274,30.78335 0,47.93538l-1.80548,30.332h-8.12464l-0.45137,-14.44381l-0.45137,-14.89517l-3.61094,11.28423l-3.61095,11.28422l-0.45137,-6.77053c-0.45137,-3.61095 -1.80548,-11.73559 -3.61095,-17.60339l-2.70821,-10.83286l4.96506,3.15958l5.41643,3.15958v-29.33898l-6.77053,9.02738l-6.31916,8.57601l-0.90274,-13.54106l-4.5137,10.83286l-4.51369,10.83286l6.77053,20.85325l6.77053,20.85324l0.90273,31.68611l0.90274,31.68611l-3.15958,13.99244l-3.15958,14.44381l-7.67328,-0.90273l-7.67327,-0.45137l-1.3541,33.94294l-1.3541,33.49158l-8.96506,1.8678l-15.56888,12.14697l-9.7831,0.55834l-29.2966,0.35212l0.09818,-0.1067c-1.20109,0.20948 -2.55686,0.24845 -4.09818,0.1067l-68.37114,-0.37715l20.23896,-12.43228l21.31946,-4.0115l11.28422,-2.70822l11.28423,-2.70822v-3.61095c0,-2.25685 -1.3541,-6.77053 -2.70822,-10.83286l-2.70821,-7.22189h-13.99243l2.70821,-41.61622l2.70821,-42.06758l4.96506,-1.3541l4.5137,-1.80549v-12.63833h-13.54106v-33.85268l-10.38149,-4.96506l-10.83286,-4.96506l-4.96506,19.95052c-3.15958,10.83286 -5.41643,24.91556 -5.41643,31.23474v11.73559l-18.05476,4.5137v21.75598c0,12.18696 -1.3541,24.91556 -2.70821,28.97789l-2.70821,7.22189h-12.63832v13.54106h3.61095c1.80548,0 5.41643,5.41643 8.12464,12.63833l4.06232,12.18696l-1.3541,10.38149l-7.3541,11.93011h-3.02737l-8.57602,-0.6003v-12.23256l-5.41643,5.41643c-3.15958,3.15958 -7.2219,5.41643 -9.02738,5.41643h-3.61095l-0.90273,-18.9575zM246.33218,59.49754l-4.5137,-11.28423v27.17241c-0.45137,14.89517 1.35411,32.13748 3.15958,38.45664l3.15958,11.28423l1.3541,-27.17241l1.3541,-27.62378zM357.91062,514.11631l-1.3541,-21.75598l-5.41643,11.28423c-3.41223,10.41691 -4.79408,19.14581 -6.86229,25.28716z"/><path d=""/><path d=""/><path d="M146.3088,431.51588v16.70066l4.51369,2.70821l4.5137,2.70822v8.12465c0,4.06231 -2.70821,11.73559 -6.31916,16.24929l-6.31916,9.02738l-1.93316,-4.16374c-0.13371,-11.10918 0.12631,-22.22745 0.30136,-33.33646c0.10259,-6.51039 2.33303,-15.40967 4.59398,-21.37891c0.14909,-0.39361 0.30897,-0.78183 0.47608,-1.16639c0.1121,1.65309 0.17268,3.17692 0.17268,4.52708z"/><path d=""/><path d=""/><path d=""/><path d="M162.64837,229.122l-7.67328,-19.40887l1.3541,-28.97789l1.3541,-28.52653l10.38149,0.45137l9.93012,0.45137v-11.7356v-11.28423l5.41643,5.41643l5.41643,5.41643l1.3541,33.94294l0.90274,34.39433l-4.06232,-2.70822l-4.51369,-2.70821l-0.90274,12.63832c0,6.77053 -0.45137,15.79791 0,20.40188l0.45137,7.2219l-5.8678,2.25684l-6.31916,2.70822z"/><path d=""/><path d="M142.24649,-26.89448l15.34656,2.7082l2.7082,36.10952l8.12462,2.7082l-5.41643,9.93011c-3.15958,4.96506 -9.02738,13.54107 -13.08969,18.05476l-7.67328,8.57601l-2.34763,-5.79082c0.62712,-2.60362 1.17212,-5.21856 1.16722,-7.86282c-0.03687,-19.92989 0.40202,-39.8661 0.3522,-59.79512z"/><path d="M140.89238,-58.21949l-0.33824,7.12552c-0.475,-2.31182 -1.26915,-4.5072 -2.33436,-6.53808c-0.09375,-0.19693 -0.18971,-0.39277 -0.28787,-0.58744z"/><path d=""/></g><g fill="#0d314c"><path d="M204.26459,522.33129c-1.55343,-16.27532 4.06231,-78.26737 7.67328,-81.87834l2.70822,-2.70821l4.06231,6.31916l4.06232,6.31917l-0.45137,37.5539v37.10253l11.84529,3.38584l7.22295,8.72491l-24.48467,-0.63199h-11.28423z"/><path d="M301.94084,525.03951l-2.70822,-4.5137l3.15958,-30.78336l3.15958,-31.23474l-4.96506,-2.70822l-4.5137,-3.15959l1.3541,-48.38675l1.3541,-48.38675l-4.96506,14.89518l-4.96506,14.89517l-3.61095,-3.15958l-3.15958,-3.15958l0.90274,32.58884l0.90273,33.04021l-8.57601,4.96506c-4.96506,2.70822 -11.28423,5.41644 -14.44381,5.8678l-5.41643,0.90273l-1.80548,-4.96506c-0.90274,-3.15958 -0.90274,-12.63833 0,-22.20735l2.25684,-16.24929l8.57601,-2.25685l8.57601,-2.25684v-12.18696c0,-6.77053 3.15958,-23.56146 7.2219,-37.10254l7.2219,-24.91557l6.77053,9.47875l6.31916,9.47875h6.77053h6.31916l0.45137,19.40887l0.45137,18.9575l3.61095,-15.79791l4.06231,-15.79791l-2.70821,-9.93012l-2.25685,-10.38149l2.70822,-6.77053l2.70821,-6.77053l9.02738,5.41643l9.47875,5.8678l-3.15958,22.65873l-2.70821,22.65873l-4.06232,4.5137l-4.06231,4.06232v16.24929v15.7979l-4.06232,-5.86779l-3.61095,-5.8678l-3.15958,21.30461c-1.3541,11.7356 -2.70821,29.42926 -2.25685,39.81074l0.45137,18.50612l4.96507,-21.75598l5.41643,-21.75598l5.8678,5.41643l5.41643,5.8678v12.18696v12.63832l-4.06231,2.70821l-4.5137,2.25685l2.70821,14.89517l4.99451,34.60484l-56.10195,0.55832l0.84051,-1.28307l24.5389,-9.05479l-2.70821,-4.06231z"/><path d="M344.91116,458.50773c-0.90274,-13.0897 -1.3541,-25.81831 -0.45137,-28.07515l1.80548,-4.51369l6.31917,6.31916c8.12464,8.12465 8.12464,15.79791 0,34.84569l-6.31917,14.89517l-1.3541,-23.56146z"/><path d="M238.11727,453.99403l-5.41643,-3.15958l-2.25685,-33.94294c-1.3541,-18.50613 -3.61095,-42.06759 -4.96507,-51.99771l-2.25685,-18.05475l6.31916,-18.05476l6.31917,-18.05475l2.70821,8.12464c1.3541,4.06232 3.61094,10.83286 4.96506,14.89517l2.25685,7.2219l-2.70821,11.28423l-3.15958,11.28422l-3.61095,-6.31916l-4.06232,-5.8678v13.0897v13.08969l7.22189,8.12464l7.2219,8.12465l-0.45137,30.33199c0,33.04021 -0.45137,34.39432 -8.12464,29.88063z"/><path d="M208.77828,403.8018l-2.70822,-19.95051l-4.5137,-2.70822l-4.06231,-2.70821l-3.15958,-19.95051l-3.15958,-19.40887l8.12465,-6.31916c11.28422,-8.57601 13.54108,-7.67328 16.24929,4.06231l2.25685,9.93011l-3.15958,38.45664l-2.70821,38.45664l-3.15958,-19.95051z"/><path d="M392.39519,408.76686l-4.51369,-7.67328l1.80548,-21.30461l1.80548,-21.75598h3.61095h4.06232l2.70821,19.40887l2.70821,18.95751l-3.61095,9.93011l-3.61095,10.38149l-4.96506,-8.12464z"/><path d="M359.89662,395.67717c-2.25685,-6.77053 -5.8678,-19.40887 -7.2219,-27.17241l-2.25685,-14.89518h5.8678h6.31916l3.15958,8.12464c1.80548,4.06232 4.06232,13.54107 4.96506,20.85325l1.80548,12.63832l-3.61095,6.77053l-4.06232,6.77053z"/><path d="M393.74928,317.40978c-1.3541,-3.61095 -3.61095,-13.99244 -4.51369,-23.1101l-2.25685,-16.24929l4.06232,-6.31916l4.06232,-6.31917v6.31917c0,3.61095 2.70821,9.93011 6.31916,13.54107l5.8678,7.2219l-5.41643,15.79791l-5.8678,15.79791l-2.25685,-6.77053z"/><path d="M349.87624,296.55653v-11.28422l4.06232,2.25684l3.61095,2.70821l4.5137,-28.07514l4.5137,-28.07515l-4.06232,-15.34655l-4.51369,-15.34654l4.51369,-4.5137l4.5137,-4.5137l-2.25685,-7.67328l-2.70821,-7.2219l6.31916,5.8678l6.31916,5.8678l0.90274,45.22717l0.90274,45.22717l-4.5137,-2.70821l-4.06232,-2.70821l-0.45136,6.77053c-1.3541,15.34654 -6.31917,25.36694 -13.54108,25.36694h-4.06232v-11.73559z"/><path d="M295.62167,285.2723c-3.15958,-10.83286 -6.77052,-21.75598 -9.02738,-24.46419c-1.80548,-2.25685 -4.5137,-9.93012 -6.31916,-16.70066l-2.70821,-12.63833h4.5137h4.5137v11.28423v10.83286l7.2219,-2.70821l6.77053,-2.70822l-4.51369,-4.51369l-4.96506,-4.96506v-19.40887v-19.40887h4.96506c2.70821,0 8.57601,2.25685 13.54107,4.96507l9.47875,4.96506l-3.15959,-40.71349l-3.15958,-40.26212l4.96507,-9.47874l5.41643,-9.93011h-4.96506h-4.5137v-16.24929v-15.79791l6.77053,-6.77053l6.31916,-6.77053l-2.70822,-7.2219l-2.70821,-7.2219l5.41643,3.15958l5.41643,3.61095l5.8678,-4.96506l6.31916,-4.96506l2.70821,9.93012c1.3541,5.8678 2.70821,17.15202 2.70821,25.81831v14.89517l-6.31916,-5.41643l-6.77053,-4.96506l2.25685,-6.31916l2.25684,-5.8678l-4.51369,-3.15958l-4.96506,-2.70821l-0.45137,5.8678c0,3.15958 -0.90273,10.83286 -1.80548,17.15202l-1.3541,11.28423l5.8678,26.26968l5.8678,25.81831h-2.70821c-1.80548,0 -0.45137,1.80548 2.70821,4.06232l6.31916,3.61095l2.25684,18.9575l2.70821,18.50613h-3.61095c-1.80548,0 -6.31916,-3.61095 -9.47874,-7.67328l-5.8678,-8.12464l-0.45137,14.89517v14.89517l-4.51369,-2.70821l-4.5137,-2.70821l-0.45137,26.26968l-0.45136,26.26968l-4.96507,-15.79791l-4.51369,-15.79791l-4.06231,22.65873l-3.61095,22.65873l5.41643,12.63832l4.96506,12.63833l-3.15958,2.70821l-2.70821,2.70822v-6.31916v-6.31916l-4.06232,6.31916l-4.06231,6.31916l-5.41643,-19.95051z"/><path d="M261.67872,274.34918c3.61095,-28.9779 4.96506,-32.58885 9.93011,-27.62378l3.15958,3.15958l-0.45137,18.50613l-0.90273,18.50612l-7.2219,7.22189l-7.67328,7.2219l3.15958,-27.17241z"/><path d="M189.27912,281.66135l-2.70821,-13.54108l4.5137,-9.02738l4.96506,-8.57601l11.28423,1.3541l11.73559,0.90274l-2.25684,-6.31917c-1.3541,-3.61095 -2.70821,-10.3815 -2.70821,-14.89518v-8.57601l-6.31916,-6.31916l-6.31916,-6.31916l-0.90273,-47.03265c-0.45137,-25.81831 -0.90274,-58.76824 -0.45137,-72.85096l0.90274,-26.26968h-4.5137h-4.96506l-0.45137,-12.18696l-0.45137,-12.63832l-3.15958,13.54107l-2.70821,13.54107l-2.70821,-4.51369c-1.80548,-2.25685 -4.5137,-19.40888 -5.8678,-37.10254l-3.15959,-33.04021h4.5137c2.70821,0 6.77053,4.06232 9.47874,8.57601l4.5137,9.02738v14.89518v14.89517l4.5137,-6.77053l4.5137,-6.77053l2.70821,10.38149l2.70821,9.93011h4.06231h4.06232v-9.02738v-9.02738h4.5137h4.5137v6.77053c0,3.61095 1.35409,6.77053 3.61094,6.77053h3.15958l0.90273,12.63833c0.90274,16.70065 13.54107,90.45436 17.15202,99.57201l2.70821,6.77053l-9.47874,8.57601l-9.02738,8.57601v6.31917c0,3.15958 1.3541,9.02738 2.70821,13.0897l2.70822,7.22189l4.06231,-2.70822l4.06232,-2.25685v4.96507v4.96506l4.5137,-2.70821l4.96506,-3.15958l6.31916,5.41643l6.77053,5.41643v13.08969v13.08969h-4.51369h-4.5137l-4.51369,-11.28423l-4.5137,-11.28422h-4.5137h-4.5137v15.7979v15.79791h-5.41643h-5.8678l4.51369,3.61095l4.5137,3.15959l0.90273,19.40887l0.45137,18.9575h-8.57602h-8.57601l-0.45137,-18.9575l-0.45137,-19.40887l-3.15958,13.54108l-2.70822,13.54107h-4.51369h-4.5137l1.3541,5.86779l1.3541,5.41643h-9.02738h-8.57601l-3.15958,-13.08969zM232.70083,139.11903l4.06231,2.25685v-5.8678c0,-3.15958 -1.3541,-10.38149 -2.70821,-15.79791l-2.70821,-9.93012l-10.83286,0.90274l-10.83286,0.90274v4.51369c0,2.70822 1.3541,8.12465 2.70821,12.63833l2.25685,7.67328l4.5137,-2.25685l4.06231,-2.70822l0.45137,8.12465l0.45136,8.12465l2.25685,-5.8678l2.25684,-5.41643z"/><path d="M276.12254,192.47084l-3.15958,-18.50613l-6.77053,-5.8678l-6.77053,-5.41643v-13.54108v-13.54107l5.8678,1.80548l5.41643,2.25684l1.3541,11.7356l1.3541,11.7356l6.77053,-2.70822l6.31916,-2.25685l-0.45137,8.12464c0,4.96507 -1.35409,16.70066 -3.61094,26.72105l-3.15959,18.05475l-3.15958,-18.50612z"/><path d="M352.13307,155.81968c1.3541,-3.61095 2.25685,-13.99244 2.25685,-23.1101v-16.70066l4.5137,6.77052l4.5137,6.77053v-7.67328c0,-4.06232 3.61095,-13.54107 8.12464,-21.30462l7.67328,-13.99244h7.2219h7.2219l-2.25684,-22.65873l-2.25685,-22.65873h8.12465h7.67328l-2.70821,6.77053l-2.25685,6.77053l7.67328,4.06231l7.67327,4.06232l-1.3541,23.1101l-1.80548,23.1101h-5.8678h-5.8678l-2.70821,5.8678l-2.25684,5.41643l-5.8678,-7.22189l-6.31916,-7.67328l-7.2219,18.95751c-4.06232,9.93011 -8.57601,22.65873 -9.93011,28.07515l-2.70821,9.47875h-7.2219h-6.77053l2.70821,-6.31916z"/><path d="M152.17662,140.02176l-3.57736,-4.17358c-0.0069,-4.07152 -0.01546,-8.14304 -0.02569,-12.21455c-0.00786,-3.12711 -1.19106,-6.02058 -1.5015,-9.08365c-1.10752,-10.92781 -2.93601,-21.55884 -4.89513,-32.36014c-0.18142,-1.00021 -0.5082,-2.01483 -0.90126,-3.03757l-0.83467,-8.37053l-2.42462,-3.03077c-0.08412,-4.04285 -0.01411,-8.089 0.04667,-12.13247c0.09046,-6.01798 3.01431,-11.97069 3.003,-18.07982c-0.00237,-1.28265 -0.00278,-2.56532 -0.00146,-3.84802c0.64298,1.72744 1.30944,3.47534 1.99434,5.22448l9.93011,27.17241h13.54106l8.57601,33.04021l8.57601,32.58884l-3.15958,3.61095l-3.61094,3.15958l-11.7356,-16.2493l-4.06231,12.18696l-4.06232,11.7356l-4.96506,-6.31917z"/><path d="M141.70483,-58.21949v13.54106h12.63832l2.70821,7.67328l3.15958,7.67328l-6.31916,4.96506l-6.77052,4.96507l-1.80549,10.83286l-1.3541,11.28422l-2.66255,-0.40962c0.15278,-16.11738 0.24506,-32.23368 -0.23305,-48.34175c0,-4.18517 -1.0284,-8.13015 -2.84628,-11.59601c-0.09375,-0.19693 -0.18971,-0.39277 -0.28787,-0.58744z"/><path d="M273.41433,125.57795l-0.45137,-8.12465l-6.77053,5.41643l-6.77053,5.41643l-0.45137,-3.61095c-0.45137,-2.25685 -0.45137,-15.79791 -0.45137,-30.33199l0.45137,-25.81831l-4.51369,2.25685l-4.06232,2.70821l-0.45137,-17.15203c-0.90274,-25.36694 0.45137,-47.93538 3.61095,-57.41414l2.25685,-8.12464l3.61095,3.61095c2.25685,2.25685 5.8678,12.18696 8.57601,21.75598l4.51369,18.05476l-4.06231,4.96506l-4.06232,4.96506l-0.90274,13.54107c0,7.2219 1.3541,19.40887 4.06232,26.72105l4.06232,13.54108l5.41643,-0.90273l4.96506,-1.3541l-0.45137,8.12465c-0.45137,4.06232 -2.25685,12.63833 -4.06232,18.95751l-3.61094,11.28423l-0.45137,-8.57601z"/><path d="M372.53495,-2.0692v-42.97034l4.06232,2.70821l4.51369,2.25685l1.3541,-9.93011l1.3541,-10.38149l7.67328,15.79791l7.67327,15.79791l2.70821,-8.12464l3.15958,-7.67327h8.57601h9.02738l1.80548,5.8678c0.90274,2.70821 2.70822,15.34654 4.5137,27.62377l3.15958,21.75599l-4.51369,-2.70822l-4.5137,-2.70821l-5.41643,7.22189l-5.8678,6.77053l-3.15958,-4.96506l-3.15958,-5.41643l-3.15958,12.18696l-3.15958,12.18696l-6.31916,-2.25685l-5.8678,-2.70821l-2.70821,6.77053c-1.3541,3.61095 -4.51369,6.31916 -7.2219,6.31916h-4.51369z"/><path d="M214.19472,6.14572c-3.61095,-1.80548 -7.22189,-4.96506 -7.22189,-7.67328c-0.45137,-2.25685 -2.25685,-16.24929 -4.06232,-30.33199l-2.70821,-26.26968l5.41639,-4.35251h22.56845l12.36755,4.35251l-4.06232,17.15202c-2.70821,9.02738 -5.41643,24.4642 -7.22189,33.94294c-2.70821,17.15202 -3.61095,18.05476 -14.89517,13.08969z"/><path d="M275.67118,-16.51301c-1.3541,-2.25685 -3.61095,-12.63833 -5.41643,-22.65873l-3.15959,-18.9575l9.73038,-5.55437c1.39967,0.00813 2.79933,0.01834 4.19898,0.03095c5.9236,0.05338 11.86045,1.76944 17.76234,2.64807l-2.35271,2.87535l-3.15958,14.89517c-1.80548,7.67328 -5.8678,18.05476 -9.02738,22.65873l-5.8678,8.12465z"/></g><g fill="#244b67"><path d="M197.85514,491.54793l-2.70821,-20.40188l2.70821,-15.79791l3.15959,-15.79791h7.22189h7.22189l-3.15958,17.15203c-1.3541,9.02738 -2.70821,25.36694 -2.70821,36.19979v18.95751h-4.06231h-4.5137l-3.15958,-20.40189z"/><path d="M297.87852,489.29109c-1.3541,-2.25685 -3.61095,-17.15202 -5.41643,-32.58884l-2.25685,-28.52653l7.67328,-6.77053l7.67328,-6.31917l-1.3541,16.2493l-1.3541,16.70066l3.15958,3.15958l3.15958,3.15959v19.95052v19.40887h-4.06232c-2.70821,0 -5.41643,-1.80548 -7.22189,-4.5137z"/><path d="M355.74403,359.026l-5.41643,-3.61095l-4.96506,-24.4642c-2.70821,-13.54107 -6.77053,-29.42926 -9.02738,-35.29705l-4.5137,-9.93011l-2.25684,-58.76824l-2.70821,-58.76824h7.22189h7.2219l-2.70821,4.51369l-2.70821,4.06232l8.12464,12.18696l8.12464,12.18696l-5.8678,2.25685l-5.41643,1.80548v8.57601v8.57601h4.06232h4.06231l-4.06231,19.40887c-2.70821,10.3815 -5.41643,22.65874 -6.77053,27.17242l-2.25685,7.67328h6.77053h6.77053l4.5137,17.15202c2.70821,9.02738 4.96506,21.30462 4.96506,27.17242c0,5.8678 1.80548,13.99244 4.06232,18.05476l3.61095,7.67328l-2.70821,7.67327l-2.70821,7.67328l-5.41643,-3.15958z"/><path d="M259.42188,331.40222v-24.01283l6.31916,4.96506l6.77053,5.41643l1.80548,-10.38149l2.25685,-10.38149l-1.80548,22.20735l-1.80549,22.65873l-6.77053,6.77053l-6.77053,6.77053z"/><path d="M315.03053,332.75632l-5.41643,-11.28422l7.67328,-9.02738c4.06232,-4.51369 9.02738,-8.57601 10.83286,-8.57601h3.61094v8.12464c-0.45137,4.06232 -2.70821,13.08969 -5.86779,20.40188l-5.41643,12.18696l-5.41643,-11.73559z"/><path d="M189.7305,330.0481c-1.3541,-5.8678 -2.70821,-22.20735 -2.70821,-36.65116v-26.26968l6.31916,5.8678l5.8678,5.8678l-2.25684,6.31916l-2.25685,6.31916l7.2219,-2.70821l7.22189,-2.70821l3.15958,20.40188l2.70821,19.95051l-5.41643,6.77053c-3.15958,3.61095 -8.12465,6.77053 -11.28423,6.77053h-5.8678z"/><path d="M224.12482,327.79127c-2.25685,-4.51369 -5.86779,-20.40188 -8.12464,-35.29706c-4.06232,-30.78336 -3.15958,-27.62378 -9.93011,-44.32444l-5.41643,-12.63833l0.45137,-12.18696c0,-6.77053 1.80549,-15.79791 3.61095,-20.85325l3.15958,-8.12464l5.8678,19.40887c3.15958,10.83286 7.67328,25.81831 9.93012,33.0402c2.25685,7.2219 4.06231,19.95052 4.06231,28.07515v15.34654h3.61095h3.61095l-1.80548,-15.34654l-1.80548,-15.34654l4.06232,-2.25685l4.06231,-2.70821l0.90273,22.65873l0.90273,22.65873l-4.51369,-2.70821l-4.5137,-2.70821l2.70821,20.40188l3.15958,20.85325h-4.96506h-4.96507l-4.06232,-7.67328z"/><path d="M300.58674,214.22682l-0.45137,-10.38149l-4.5137,2.70821l-4.06231,2.70821l2.25684,-14.89517c1.3541,-8.12465 3.61095,-26.72105 4.96506,-41.61622l2.70822,-26.26968l3.15958,5.8678c1.80548,3.61095 4.5137,22.20735 6.31916,41.61622l2.70821,34.84569h-4.06231h-4.51369l-1.80548,8.12464l-2.25685,7.67328z"/><path d="M155.78756,149.95189c0.45137,-13.54108 -0.45137,-28.07515 -1.80548,-31.68611c-1.3541,-3.61095 -3.61095,-12.18696 -4.96506,-19.40887l-2.70821,-12.18696l5.41643,0.90273c3.15958,0.90274 8.57601,4.06232 11.73559,7.2219l5.8678,5.41643l-1.3541,8.12465l-1.80548,7.67328l8.12465,9.02738l8.57601,8.57601l-1.3541,19.40887l-1.3541,19.40887h-3.61095c-1.80548,0 -5.41643,-4.51369 -7.2219,-9.93011l-4.06231,-10.38149l-4.96507,11.28423l-4.96507,11.28422l0.45137,-24.91556z"/><path d="M314.57918,104.7247l0.45137,-29.42926l1.80548,14.89518l1.80549,14.44381l4.51369,-2.25685l4.06232,-2.70822v8.12465v8.57601l-6.77053,9.02738l-6.31917,8.57602l0.45137,-29.42926z"/><path d="M189.7305,83.059l-7.2219,-26.26967l1.80549,-23.1101l2.25684,-23.11009l-6.31916,-8.12464l-6.31917,-8.57602l-0.45136,-25.81831v-26.26968h6.31916h6.31916l3.15958,7.67328c4.96507,12.18696 8.57602,45.22716 8.57602,79.62149l-0.45137,30.332h4.06232h3.61095v22.20735v22.65873l-4.06231,2.25684l-3.61095,2.70821l-7.67327,-26.26968z"/><path d="M385.17329,92.53774l-8.12464,-1.80548v-6.77053c0,-3.61095 6.77053,-26.26968 14.89517,-49.74086l14.44381,-43.4217l4.06232,13.99244l4.06232,13.99244l-4.5137,14.89517l-4.51369,14.44381l-4.96506,-0.90273l-5.41643,-1.3541v13.54107v13.54108l4.96506,-0.90274l5.41643,-1.3541l1.80548,5.8678l2.25685,5.41643h-4.96506h-4.96506v6.77053v6.77053l-3.15958,-0.45136c-2.25685,-0.45137 -7.2219,-1.3541 -11.28422,-2.70822z"/><path d="M217.80567,38.19292c-1.3541,-14.89517 4.06231,-55.60866 7.67327,-59.30989l2.25685,-2.25684v17.60339c0,9.47875 1.3541,25.36695 2.70821,34.84569l3.15958,16.70065h-7.67328h-7.2219l-0.90273,-7.67328z"/></g></g></g></svg>