<svg version="1.1" xmlns="http://www.w3.org/2000/svg" xmlns:xlink="http://www.w3.org/1999/xlink" width="385.57182" height="39.10001" viewBox="0,0,385.57182,39.10001"><g transform="translate(-47.99234,-8.93831)"><g data-paper-data="{&quot;isPaintingLayer&quot;:true}" fill="#d9ae8f" fill-rule="nonzero" stroke="none" stroke-linecap="butt" stroke-linejoin="miter" stroke-miterlimit="10" stroke-dasharray="" stroke-dashoffset="0" style="mix-blend-mode: normal"><path d="M266.70725,8.93834h11.3663l4.09184,13.1849l3.6372,-13.1849h7.27441l4.09184,13.1849l3.6372,-13.1849h11.3663l-10.00234,38.19066h-10.91161l-2.04595,-9.54765l-2.0459,9.54765h-10.91161z" stroke-width="0.26458"/><path d="M316.71889,47.129v-38.19066h15.91279v38.19066z" stroke-width="0.26458"/><path d="M337.17821,47.129v-38.19066h15.45815l10.00229,17.0494v-17.0494h13.63954v38.19066h-15.45815l-10.00229,-16.50379v16.50379z" stroke-width="0.26458"/><path d="M384.46182,47.129c-1.51551,-0.30309 -2.72789,-0.60619 -3.6372,-0.90928l1.81861,-9.09302l5.45585,0.45464c4.24339,0.30309 7.57751,0.30309 10.00229,0c1.21242,-0.60619 1.81861,-1.51547 1.81861,-2.72789c-0.30309,-1.21242 -3.03097,-1.81861 -8.18369,-1.81861c-4.54653,-0.60623 -7.7291,-2.27329 -9.5477,-5.00117c-0.90932,-2.1217 -1.36396,-4.54653 -1.36396,-7.27441c0,-4.24343 1.51551,-7.426 4.54653,-9.5477c2.1217,-1.51551 5.91045,-2.27325 11.36625,-2.27325c5.45581,0 10.91161,0.45464 16.36742,1.36396l-1.81861,8.63838c-6.36509,-0.30314 -10.76007,-0.45468 -13.18486,-0.45468c-2.1217,0.30314 -3.18257,1.06087 -3.18257,2.27329c-0.30309,2.1217 1.36396,3.18257 5.00117,3.18257c5.15271,0 8.94147,0.90928 11.36625,2.72789c1.81861,1.51551 2.72793,4.09184 2.72793,7.72905c0,3.15225 -0.75773,5.88018 -2.27325,8.18374c-1.51551,2.72789 -5.3043,4.39494 -11.3663,5.00117c-5.15271,0.30309 -10.45697,0.15155 -15.91279,-0.45468z" stroke-width="0.26458"/><path d="M433.56416,8.93834l-2.27325,23.64183h-10.45697l-2.27325,-23.64183zM419.56087,41.53682c-0.0607,-1.72768 0.51517,-3.2735 1.72768,-4.63746c1.21242,-1.36392 2.87948,-2.0459 5.00117,-2.0459c1.81861,0 3.33412,0.68198 4.54653,2.0459c1.21242,1.36396 1.81861,2.95523 1.81861,4.77382c0,1.81861 -0.60619,3.33412 -1.81861,4.54653c-1.21242,1.21242 -2.72793,1.81861 -4.54653,1.81861c-2.1217,0 -3.78875,-0.60619 -5.00117,-1.81861c-1.21242,-1.21242 -1.78829,-2.77337 -1.72768,-4.6829z" stroke-width="0.26458"/><g stroke-width="0.26459"><path d="M47.99234,28.13223c0,-5.64714 1.69415,-10.09426 5.08243,-13.34135c3.38828,-3.2471 8.04717,-4.87066 13.97667,-4.87066c5.08243,0 8.61188,0.14118 10.58838,0.42352l-3.8118,11.85899l-0.84707,-0.84708c-1.69414,-1.12942 -3.81182,-1.27059 -6.35303,-0.42353c-2.82356,1.69417 -4.94123,3.52947 -6.35301,5.50595c-1.4118,1.69416 -1.69415,3.81182 -0.84707,6.35303l0.84707,0.84708c1.4118,1.97646 3.8118,2.5412 7.20008,1.69415c2.82356,-1.69416 4.94125,-3.52947 6.35303,-5.50598l5.08243,14.82373c-1.97649,1.12942 -5.92949,1.69415 -11.85898,1.69415c-5.92949,0 -10.58839,-1.83532 -13.97667,-5.50595c-3.38827,-3.67063 -5.08243,-7.90599 -5.08243,-12.70608z"/><path d="M83.14577,45.49719v-35.57697h20.75324c8.4707,0 12.70606,3.10592 12.70606,9.31776v1.69415c0,4.51771 -1.83532,7.48246 -5.50594,8.89423c1.12942,0.56471 2.25886,1.83534 3.38827,3.81186l3.38828,11.85898h-12.70608l-2.54122,-9.74133c-0.56471,-2.54121 -2.11767,-3.8118 -4.65888,-3.8118h-2.54122v13.55313zM100.51072,24.32041c2.25887,0 3.38828,-1.12941 3.38828,-3.38827v-1.69415c0,-1.69411 -1.12942,-2.54119 -3.38828,-2.54119h-5.08243v7.62362z"/><path d="M122.11102,45.49719v-35.57697h29.64749v10.16486h-16.94142v2.5412h16.94142v10.16485h-16.94142v2.54123h16.94142v10.16485z"/><path d="M155.99383,45.49719l10.58837,-35.57697h19.05911l10.58837,35.57697h-12.2825l-2.11767,-6.77656h-11.85898l-1.69418,6.77656zM179.28827,29.40284l-3.1765,-10.58837l-3.17654,10.58837z"/><path d="M200.46505,45.49719l6.35303,-35.57697h10.16485l4.65885,14.40019l4.65891,-14.40019h10.16484l6.35304,35.57697h-10.58838l-2.54123,-15.67083l-3.38827,15.67083h-9.31775l-3.38828,-15.67083l-2.54123,15.67083z"/></g></g></g></svg>