<svg version="1.1" xmlns="http://www.w3.org/2000/svg" xmlns:xlink="http://www.w3.org/1999/xlink" width="26.42138" height="24.47415" viewBox="0,0,26.42138,24.47415"><g transform="translate(-228.76279,-166.5658)"><g data-paper-data="{&quot;isPaintingLayer&quot;:true}" fill-rule="nonzero" stroke-width="0" stroke-linecap="butt" stroke-linejoin="miter" stroke-miterlimit="10" stroke-dasharray="" stroke-dashoffset="0" style="mix-blend-mode: normal"><path d="M240.9381,188.40506c-0.05772,0.03104 -0.37393,-0.01203 -0.61962,0.11288c-0.25755,0.13095 -0.26897,0.32999 -0.43097,0.52127c-0.15011,0.17723 -2.56763,1.84273 -3.45306,1.84019c-0.24163,-0.00069 -0.55725,0.03512 -0.63343,0.00587c-0.81804,-0.31418 -1.8197,-1.5339 -1.89816,-2.2577c-0.09106,-0.84005 0.34188,-1.02716 0.34188,-1.02716c0,0 0.98044,2.55901 2.32153,2.5673c1.35517,0.00838 5.19948,-3.03009 5.19948,-3.03009c0,0 0.31643,0.65199 -0.82765,1.26741z" fill="#686868" stroke="none"/><path d="M235.44168,186.30102c0.27704,-0.06152 0.18856,-0.08584 0.6861,-0.03628c0.55638,0.05541 2.33322,0.85328 3.22589,0.65207c1.32684,-0.29909 1.74501,-1.6571 1.74501,-1.6571c0,0 0.42588,0.19013 0.63264,0.84555c0.16696,0.52925 0.05785,1.05837 0.05785,1.05837c0,0 -3.51075,2.8426 -5.16774,3.03164c-1.17506,0.13405 -2.36809,-1.99159 -2.37842,-2.52508c-0.01033,-0.53349 0.49383,-0.97588 1.19867,-1.36915z" fill="#ef4019" stroke="none"/><path d="M236.09335,186.27046c0,0 0.67532,-0.01713 0.91182,-0.07633c0.22055,-0.05522 0.46268,-0.26779 0.46268,-0.26779c0,0 1.14545,0.46451 1.69272,0.50544c0.52942,0.0396 1.5391,-0.26369 1.5391,-0.26369c0,0 0.31062,0.67276 0.32979,0.86408c0.03598,0.35915 -2.56669,2.09067 -3.41744,2.24108c-0.36206,0.06401 -0.20992,-0.45662 -0.1419,-0.80271c0.06568,-0.33422 -0.05669,-0.72325 -0.14227,-0.85398c-0.42909,-0.6555 -1.2345,-1.3461 -1.2345,-1.3461z" fill="#ffc500" stroke="none"/><path d="M239.61309,186.85322c-0.72962,0.26132 -1.26451,-0.19785 -1.42928,-0.84548c-0.21508,-0.84549 -0.3267,-1.34308 0.49543,-1.47012c0.15594,-0.0241 2.20277,-1.02218 2.41164,0.74709c0.02364,0.20023 -0.22984,1.12155 -1.4778,1.56852z" fill="#ffffff" stroke="none"/><path d="M240.0718,184.6572c0,0 0.17875,0.15312 0.23907,0.37442c0.07964,0.29219 -0.02502,0.70257 -0.56769,0.81695c-1.0132,0.21357 -1.10705,-1.14717 -1.05317,-1.33545c0.29613,-1.03502 1.70935,-1.97699 1.70935,-1.97699l0.84237,0.85304c0,0 -0.40821,0.4155 -0.60473,0.64813c-0.18451,0.21841 -0.56518,0.61989 -0.56518,0.61989z" fill="#fedeb5" stroke="none"/><path d="M238.26708,185.71477c0.22284,0.34724 1.04824,0.73158 1.05531,0.88214c0.00296,0.06295 -0.02877,0.2902 0.02915,0.39262c0.11013,0.19473 0.34326,0.27414 0.34326,0.27414c0,0 -0.84783,0.03009 -1.24441,-0.19743c-0.75329,-0.43215 -0.96712,-1.16399 -0.96712,-1.16399c0,0 0.04508,-1.04701 0.45617,-1.37266c0.20589,-0.1631 0.36905,0.12635 0.36905,0.12635c0,0 -0.31372,0.6345 -0.04141,1.05885z" fill="#ffc500" stroke="none"/><path d="M238.39053,180.20883c-0.219,0.02633 -0.67108,0.16327 -1.23065,0.28893c-0.55958,0.12566 -1.65688,0.34341 -1.65688,0.34341c0,0 -0.71379,-0.29878 0.15097,-1.07564c0.29895,-0.26857 2.51619,-0.57831 2.61231,-0.58987c0.6145,-0.07389 1.15536,-0.01662 1.17477,0.38277c0.02129,0.43785 -0.43602,0.5765 -1.05052,0.6504z" data-paper-data="{&quot;index&quot;:null}" fill="#fde1c0" stroke="none"/><path d="M234.5971,179.30598c0.11787,-0.23471 0.35166,-0.21804 0.56314,-0.2269c0.21148,-0.00887 0.65899,0.11633 0.65899,0.11633c0,0 0.34065,0.46162 0.24611,0.92038c-0.13699,0.66477 -0.58908,1.21543 -0.58908,1.21543c0,0 -0.51345,0.2377 -0.8127,-0.03286c-0.1884,-0.17033 -0.4164,-1.29552 -0.06646,-1.99238z" data-paper-data="{&quot;index&quot;:null}" fill="#fefefe" stroke="none"/><g stroke="none"><path d="M234.86201,179.60932c0.26638,0.01468 -0.00607,0.92028 -0.02969,1.34858c-0.02361,0.4283 -0.03356,0.66123 -0.24518,0.64956c-0.24812,-0.01367 -0.32837,-0.51368 -0.3324,-0.94261c-0.008,-0.851 0.39563,-1.06719 0.60726,-1.05553z" fill="#000000"/><path d="M232.86925,181.22908c0,0 -0.25539,-0.29242 -0.24254,-0.57161c0.01892,-0.4115 0.26288,-0.46136 0.26288,-0.46136c0,0 -0.20619,-0.25214 -0.15914,-0.5769c0.03636,-0.25093 0.27205,-0.42703 0.27205,-0.42703c0,0 -0.358,-1.26765 0.55697,-1.21594c0.74361,0.04203 1.35291,0.49551 1.50535,0.61017c0.15244,0.11466 0.13653,0.33356 0.08589,0.51681c-0.05063,0.18325 -0.32818,0.36002 -0.32818,0.36002c0,0 0.03988,0.32972 -0.01429,0.50999c-0.05417,0.18026 -0.26085,0.40569 -0.26085,0.40569c0,0 0.15505,0.26323 0.16407,0.39253c0.00903,0.1293 -0.11492,0.3116 -0.11492,0.3116c0,0 0.24867,0.15288 0.30286,0.30677c0.05419,0.15388 -0.0486,0.41522 -0.0486,0.41522c0,0 -0.63389,0.35424 -1.48515,0.21124c-0.74836,-0.12572 -0.49639,-0.78718 -0.49639,-0.78718z" fill="#fefefe"/><path d="M235.05008,178.52154c0.26638,0.01468 0.23646,0.69074 0.21286,1.11904c-0.02361,0.4283 -0.27609,0.89076 -0.48771,0.8791c-0.24812,-0.01367 -0.32837,-0.51368 -0.3324,-0.94261c-0.008,-0.851 0.39563,-1.06719 0.60725,-1.05553z" fill="#fefefe"/></g><path d="M247.97364,184.73922c-0.00264,0.06549 -0.20057,0.31582 -0.21801,0.59088c-0.01828,0.28835 0.14727,0.39944 0.22955,0.63621c0.07622,0.21939 0.28034,3.14798 -0.17226,3.909c-0.12351,0.20768 -0.25323,0.49762 -0.31717,0.54833c-0.68662,0.54446 -2.24628,0.78637 -2.90934,0.48572c-0.76956,-0.34893 -0.71042,-0.81685 -0.71042,-0.81685c0,0 2.70192,0.45766 3.39126,-0.69273c0.69659,-1.16247 0.03623,-6.01787 0.03623,-6.01787c0,0 0.72229,0.05924 0.67014,1.35728z" fill="#686868" stroke="none"/><path d="M243.36616,188.40101c0.08797,-0.26981 0.02202,-0.20601 0.31779,-0.60914c0.33074,-0.45082 1.92154,-1.57471 2.2024,-2.44561c0.41747,-1.29448 -0.53899,-2.34533 -0.53899,-2.34533c0,0 0.38034,-0.26994 1.0498,-0.11454c0.54059,0.12548 0.94062,0.48859 0.94062,0.48859c0,0 0.66141,4.46859 -0.01875,5.99133c-0.48233,1.07985 -2.91929,1.02567 -3.38385,0.76318c-0.46456,-0.26249 -0.58897,-0.92159 -0.56901,-1.72847z" fill="#ef4019" stroke="none"/><path d="M243.67135,187.82441c0,0 0.32879,-0.59013 0.39813,-0.82386c0.06465,-0.21797 0.00481,-0.53456 0.00481,-0.53456c0,0 0.98261,-0.74988 1.29624,-1.20022c0.30341,-0.43565 0.55592,-1.45922 0.55592,-1.45922c0,0 0.73722,0.07481 0.91169,0.15563c0.32751,0.15172 0.49428,3.2733 0.191,4.08227c-0.12907,0.34427 -0.49991,-0.05156 -0.76328,-0.28617c-0.25433,-0.22657 -0.65151,-0.31911 -0.8076,-0.31194c-0.78262,0.03597 -1.78691,0.37808 -1.78691,0.37808z" fill="#ffc500" stroke="none"/><path d="M245.96356,185.09056c-0.14617,0.76109 -0.81359,0.98804 -1.45498,0.80044c-0.83734,-0.24493 -1.32251,-0.40196 -1.01367,-1.17439c0.05858,-0.14652 0.2405,-2.41644 1.87,-1.69625c0.18441,0.0815 0.84867,0.76841 0.59865,2.07021z" fill="#ffffff" stroke="none"/><path d="M244.30626,183.57853c0,0 0.22277,-0.076 0.44397,-0.01536c0.29207,0.08007 0.59214,0.37893 0.41456,0.90434c-0.33155,0.98096 -1.5508,0.36954 -1.68549,0.22738c-0.74045,-0.78146 -0.83254,-2.47735 -0.83254,-2.47735l1.16293,-0.29129c0,0 0.15007,0.56281 0.25038,0.85034c0.09418,0.26996 0.24619,0.80193 0.24619,0.80193z" fill="#fedeb5" stroke="none"/><path d="M244.2987,185.67028c0.41232,-0.01521 1.16309,-0.53032 1.29631,-0.45982c0.0557,0.02947 0.23521,0.17239 0.35285,0.17462c0.22367,0.00424 0.41063,-0.15607 0.41063,-0.15607c0,0 -0.40538,0.74524 -0.803,0.97094c-0.75526,0.42871 -1.4941,0.24052 -1.4941,0.24052c0,0 -0.87849,-0.57142 -0.94974,-1.09101c-0.03569,-0.26023 0.29651,-0.25345 0.29651,-0.25345c0,0 0.38668,0.59286 0.89055,0.57428z" fill="#ffc500" stroke="none"/><path d="M242.11817,179.35815c1.7164,0.41853 3.86612,1.62246 3.86612,1.62246c0,0 -0.04408,1.59516 -1.09724,2.75096c-1.11387,1.22244 -2.35749,1.6919 -4.35584,1.1541c-0.74428,-0.18255 -1.75237,-0.66956 -2.2465,-1.87538c-0.48031,-1.1721 0.96418,-3.96771 0.96418,-3.96771c0,0 1.32912,-0.05996 2.86926,0.31559z" fill="#ef4019" stroke="none"/><path d="M240.16368,180.71035c-0.37852,0.04639 -0.54908,-1.25523 -0.54908,-1.25523l0.99234,-0.19109c0,0 0.14466,1.37426 -0.44326,1.44631z" fill="#08abe8" stroke="none"/><path d="M245.66963,178.66597c0,0 0.33838,0.84993 -0.15621,1.67636c-0.60533,1.01147 -1.78681,1.17757 -2.44162,0.32812c-0.21853,-0.2835 -0.42954,-0.95981 -0.01205,-1.50585c0.39579,-0.51768 0.70536,-0.64875 1.14085,-0.68773c0.4871,-0.04361 1.00332,0.48358 1.00332,0.48358z" fill="#ebc19b" stroke="none"/><path d="M239.06002,182.29173c-0.04194,-0.78665 0.77998,-1.9107 0.77998,-1.9107l0.21731,0.29675c0,0 -0.21219,0.6587 -0.3476,1.26622c-0.12487,0.56023 -0.17066,1.07269 -0.23928,1.08192c-0.14303,0.01925 -0.39811,-0.5036 -0.41041,-0.73418z" fill="#08abe8" stroke="none"/><path d="M240.32686,180.63831l0.19168,-0.29745c0,0 0.7023,0.88272 0.73641,1.85046c0.00588,0.16679 -0.1192,0.5996 -0.4549,0.71639c-0.06314,0.02197 -0.11648,-0.48852 -0.21849,-1.00961c-0.11992,-0.61264 -0.2547,-1.25979 -0.2547,-1.25979z" fill="#08abe8" stroke="none"/><path d="M240.13905,179.62042c0,0 0.19623,-0.05558 0.50732,-0.01939c0.31108,0.0362 0.55222,0.06034 0.55222,0.06034l-0.77103,1.65466z" fill="#ffffff" stroke="none"/><path d="M239.26725,179.2413c0,0 0.19923,0.04437 0.43548,0.18961c0.23626,0.14523 0.33377,0.21183 0.33377,0.21183l-1.14991,1.08349z" fill="#ffffff" stroke="none"/><path d="M242.07205,180.37375c-0.61318,-0.27482 -1.04253,-0.56606 -0.87923,-1.01308c0.14896,-0.40776 0.72811,-0.2927 1.34128,-0.01789c0.09592,0.04299 2.29452,1.07927 2.51779,1.4541c0.64587,1.08427 -0.19046,1.16376 -0.19046,1.16376c0,0 -1.06727,-0.57967 -1.60683,-0.89043c-0.53956,-0.31076 -0.96403,-0.59853 -1.18257,-0.69647z" fill="#fde1c0" stroke="none"/><path d="M247.58427,184.82373l-0.78788,0.17593c0,0 -1.32496,-0.77233 -0.96242,-2.95074c0.23438,-1.40839 2.10724,-1.14826 2.10724,-1.14826c0,0 -0.09902,-0.64965 0.2902,-0.5411c1.9847,0.55353 1.50227,1.433 1.50227,1.433c0,0 0.13251,0.25611 0.09203,0.45316c-0.04049,0.19705 -0.28818,0.50146 -0.28818,0.50146c0,0 0.10049,0.30419 0.03333,0.51906c-0.06717,0.21488 -0.33788,0.45522 -0.33788,0.45522c0,0 0.18664,0.30699 0.15927,0.58621c-0.08241,0.8407 -1.80796,0.51604 -1.80796,0.51604z" fill="#ffffff" stroke="#000000"/><path d="M246.69149,180.88305c0.03344,0.84592 -0.69665,1.85612 -0.95933,1.94003c-0.41723,0.13327 -0.81825,-0.33202 -0.81825,-0.33202c0,0 -0.2,-0.74721 -0.03728,-1.4659c0.11229,-0.49597 0.65614,-0.79958 0.65614,-0.79958c0,0 0.4986,0.07693 0.70371,0.18055c0.20512,0.10361 0.44375,0.19199 0.455,0.47693z" fill="#fefefe" stroke="none"/><path d="M246.66024,184.07611c0,0 0.26371,0.20365 0.43135,0.34757c0.16764,0.14392 0.51774,0.41577 0.51774,0.41577c0,0 -0.29594,-0.13074 -0.49361,-0.25395c-0.25571,-0.15939 -0.45549,-0.50939 -0.45549,-0.50939z" fill="#000000" stroke="none"/><path d="M248.91359,181.59323c0,0 -0.32245,-0.21598 -0.50358,-0.34251c-0.18113,-0.12652 -0.47713,-0.34258 -0.47713,-0.34258c0,0 0.27102,0.12409 0.47996,0.22701c0.27031,0.13316 0.50075,0.45806 0.50075,0.45806z" data-paper-data="{&quot;index&quot;:null}" fill="#000000" stroke="none"/><path d="M246.00836,181.16934c-0.21101,0.16142 -0.41739,0.15145 -0.58811,-0.0406c-0.09625,-0.10827 -0.15293,-0.27585 0.05808,-0.43728c0.21101,-0.16142 0.53204,-0.10045 0.63145,0.00494c0.09941,0.10538 0.1096,0.31151 -0.10141,0.47293z" fill="#f7e300" stroke="none"/><path d="M236.98792,176.84228c0,0 -1.41871,0.55188 -1.60759,0.35868c-0.22991,-0.23517 0.05178,-0.74055 0.1642,-1.00212c0.14809,-0.34461 0.5624,-1.11699 0.5624,-1.11699c0,0 0.17969,0.53007 0.32731,0.86c0.14764,0.32992 0.55369,0.90043 0.55369,0.90043z" data-paper-data="{&quot;index&quot;:null}" fill="#ebc19b" stroke="none"/><path d="M237.43669,171.90935c2.04992,-2.95621 4.66175,-2.6288 7.0618,-1.04255c2.70165,1.78561 3.06305,4.78341 1.49936,6.9791c-1.66844,2.34278 -4.6475,2.67279 -7.0618,1.04255c-2.38422,-1.60993 -3.42595,-4.20074 -1.49936,-6.9791z" fill="#fedeb5" stroke="none"/><path d="M237.60601,175.16341c0,0 -0.18315,-0.06758 -0.43292,-0.08309c-0.21703,-0.01349 -0.38294,0.06943 -0.58523,-0.0463c-0.2023,-0.11574 -0.27276,-0.44457 -0.27276,-0.44457c0,0 0.13324,-0.88218 0.49932,-1.58211c1.06808,-2.2456 2.38827,-2.7503 2.89754,-2.5988c0.63074,0.18763 0.13063,0.77305 -0.977,2.69222c-0.81848,1.41818 -1.12896,2.06265 -1.12896,2.06265z" data-paper-data="{&quot;index&quot;:null}" fill="#ea750b" stroke="none"/><path d="M241.10233,173.79364c1.42688,-0.96608 2.98481,-0.93285 3.60325,-0.06721c0.66166,0.92616 0.49204,2.31627 -1.37668,3.6255c-0.67923,0.47587 -2.03639,0.85559 -2.77019,0.70204c-1.28038,-0.26792 -1.81623,-1.44537 -1.81623,-1.44537c0,0 0.93298,-1.84889 2.35985,-2.81497z" fill="#ea750b" stroke="none"/><path d="M236.66804,175.07197c0.1549,0.11588 0.83769,-0.09659 1.27555,0.28095c0.59832,0.5159 0.77328,1.5658 1.57482,2.15412c0.96847,0.71085 2.19475,0.21797 2.58974,1.07981c0.45009,0.98208 -1.39311,1.82119 -3.4482,0.19981c-1.95639,-1.54351 -2.45787,-2.89404 -2.54832,-3.69559c-0.0252,-0.22335 0.20684,-0.55187 0.20684,-0.55187c0,0 0.18158,0.4071 0.34957,0.53276z" fill="#ffffff" stroke="none"/><g stroke="none"><path d="M236.95713,175.15673c0.05577,-0.1444 0.30845,-0.12768 0.49165,-0.00064c0.1832,0.12704 0.2947,0.36687 0.17176,0.46067c-0.10608,0.08093 -0.26671,0.13952 -0.48364,-0.0109c-0.20568,-0.14263 -0.22162,-0.34074 -0.17977,-0.44912z" fill="#6b4209"/><path d="M237.15499,175.13554c0.02584,-0.03726 0.11474,-0.02034 0.19858,0.03779c0.08383,0.05813 0.13085,0.13547 0.10501,0.17273c-0.02584,0.03726 -0.11475,0.02034 -0.19858,-0.03779c-0.08383,-0.05813 -0.13084,-0.13547 -0.10501,-0.17273z" fill="#ffffff"/></g><path d="M240.36358,178.86945c0,0 -0.11885,-0.14901 -0.36237,-0.31787c-0.251,-0.17406 -0.57871,-0.31804 -0.57871,-0.31804c0,0 0.32814,0.01462 0.63763,0.20905c0.30951,0.19442 0.30343,0.42687 0.30343,0.42687z" data-paper-data="{&quot;index&quot;:null}" fill="#000000" stroke="none"/><path d="M241.51471,170.67003c0.70307,-0.66978 1.01362,-0.77619 1.01362,-0.77619c0,0 0.85671,0.25901 1.60097,0.72306c1.08524,0.67666 1.49724,1.20206 1.49724,1.20206c0,0 -1.18642,-0.29716 -2.06722,-0.31833c-0.47659,-0.01146 -0.87913,-0.0692 -1.27348,-0.01674c-0.64311,0.08555 -1.14711,0.12778 -1.22326,0.06549c-0.14228,-0.11638 0.13442,-0.57667 0.45213,-0.87933z" fill="#ea750b" stroke="none"/><path d="M228.76508,169.60332c0.07644,-0.46115 1.26519,-0.45532 2.39285,-0.75314c0.4899,-0.12939 3.11028,-2.43255 5.20648,-2.27683c1.12387,0.08348 2.00011,0.85177 2.00011,0.85177c0,0 -2.64271,1.63251 -3.68422,2.35049c-0.94466,0.65121 -1.50553,0.96155 -2.8256,0.8475c-1.32008,-0.11405 -3.16606,-0.55862 -3.08962,-1.01977z" fill="#ea750b" stroke="none"/><path d="M235.4234,169.28085c0,0 0.82112,-1.33821 1.40482,-1.59198c0.69277,-0.30119 1.50818,-0.27232 1.50818,-0.27232c0,0 0.50296,0.29506 1.37739,1.10242c0.63995,0.59086 1.19134,1.06721 1.19134,1.06721l-2.19176,0.90957c0,0 -0.98204,-0.60066 -1.47939,-0.86307c-0.41923,-0.2212 -1.31054,-0.60898 -1.31054,-0.60898z" fill="#fedeb5" stroke="none"/><path d="M237.82579,167.97897c0.38711,-0.14571 0.6771,0.18327 0.6771,0.18327c0,0 -0.26902,-0.30697 -0.95132,-0.02761c-0.69524,0.28466 -1.68059,0.91845 -1.68059,0.91845c0,0 0.52005,-0.48845 1.95481,-1.07412z" fill="#000000" stroke="none"/><path d="M236.43938,168.70361c0,0 0.45076,-0.26391 0.66967,-0.3668c0.17397,-0.08177 0.49395,-0.22393 0.49395,-0.22393c0,0 0.67114,0.43251 1.22749,0.90113c0.51051,0.42998 0.99736,0.89602 0.99736,0.89602l-0.74745,0.29007c0,0 -0.66852,-0.50878 -1.36028,-0.84997c-0.64699,-0.31912 -1.28076,-0.64652 -1.28076,-0.64652z" fill="#ebc0cd" stroke="none"/><path d="M245.75018,174.98173l-0.2015,-3.15435c0,0 2.4525,0.80703 3.51242,1.19904c0.83299,0.3081 2.3888,0.94433 2.3888,0.94433l-0.41783,0.21856c0,0 0.08491,0.66195 0.08349,1.24397c-0.00118,0.4894 -0.08749,0.89874 -0.09849,1.0431c-0.06968,0.91403 -0.66473,1.68444 -0.66473,1.68444l-0.10935,-0.49648c0,0 -1.33617,-0.91384 -2.02083,-1.40306c-1.69664,-1.21236 -2.47198,-1.27953 -2.47198,-1.27953z" fill="#fedeb5" stroke="none"/><path d="M250.45676,181.9182c-0.44244,-0.60441 -0.56346,-1.82293 -0.35263,-2.91686c0.20348,-1.05582 0.68414,-1.56203 0.82495,-2.11461c0.35558,-1.39545 0.02569,-3.13244 0.02569,-3.13244c0,0 0.23154,0.12937 0.46979,0.20046c0.34151,0.1019 0.77074,0.42793 1.01111,0.71434c1.05048,1.25168 0.8681,5.50314 1.24029,6.60333c0.09284,0.43929 1.93102,2.13426 1.41797,2.57246c-1.05252,0.89898 -3.85188,-0.8539 -4.63718,-1.92668z" data-paper-data="{&quot;index&quot;:null}" fill="#ea750b" stroke="none"/><path d="M245.77913,174.24148l0.0692,-1.40301c0,0 1.10878,0.42943 1.72376,0.75704c0.71176,0.37918 1.91465,1.27621 1.91465,1.27621c0,0 0.25529,0.57939 0.36082,0.9537c0.10552,0.37431 0.26752,1.16226 0.26752,1.16226c0,0 -0.97809,-0.86797 -2.10885,-1.56918c-1.04204,-0.6462 -2.22708,-1.17703 -2.22708,-1.17703z" data-paper-data="{&quot;index&quot;:null}" fill="#ebc0cd" stroke="none"/><path d="M250.33406,178.14895c0,0 -0.04331,-0.92368 -0.8129,-3.09673c-0.19973,-0.56396 -0.91345,-1.33328 -0.91345,-1.33328c0,0 0.47989,0.28612 1.04671,1.31794c0.59255,1.07861 0.67964,3.11209 0.67964,3.11209z" fill="#000000" stroke="none"/><path d="M242.13692,178.99542c0,0 0.99359,0.07545 1.50411,0.01286c0.51051,-0.0626 1.28846,-0.23326 1.28846,-0.23326c0,0 -0.63662,1.0725 -0.94767,1.50624c-0.23611,0.32922 -0.64486,1.0439 -1.10038,0.93661c-0.37423,-0.08814 -0.74452,-2.22243 -0.74452,-2.22243z" fill="#fedeb5" stroke="none"/><path d="M235.47849,173.54234l1.46589,0.42113l0.81922,-1.64351l-0.21411,2.48677z" fill="#000000" stroke="none"/><path d="M239.44943,175.96407l2.49589,0.01901l-1.71282,0.66219l0.28242,1.49881z" data-paper-data="{&quot;index&quot;:null}" fill="#000000" stroke="none"/></g></g></svg>