<svg version="1.1" xmlns="http://www.w3.org/2000/svg" xmlns:xlink="http://www.w3.org/1999/xlink" width="27.17783" height="42.91551" viewBox="0,0,27.17783,42.91551"><g transform="translate(-225.94326,-161.02901)"><g data-paper-data="{&quot;isPaintingLayer&quot;:true}" fill-rule="nonzero" stroke-miterlimit="10" stroke-dasharray="" stroke-dashoffset="0" style="mix-blend-mode: normal"><g data-paper-data="{&quot;index&quot;:null}" stroke-linejoin="miter"><path d="M250.60441,193.63263c0,0 0.25988,-2.16472 0.18259,-3.20452c-0.06264,-0.84279 -3.66,-2.98373 -3.66,-2.98373c0,0 0.96378,-0.99796 2.01817,0.10029c0.29654,0.30887 0.87937,0.62711 1.46307,1.38232c0.5837,0.75522 1.05882,1.48507 1.07075,2.36976c0.01191,0.88469 -0.40502,2.34738 -0.90968,2.95821c-0.72374,0.83366 -0.84851,0.43017 -0.84851,0.43017z" fill="#947043" stroke="none" stroke-width="0" stroke-linecap="butt"/><path d="M244.48728,189.73828l1.00532,-2.86292l0.69494,0.19569l-0.0199,0.19214c0,0 0.26943,-0.12085 0.34524,-0.10948c0.3321,0.04979 0.24503,0.17133 0.24503,0.17133c0,0 0.61064,-0.01671 1.00531,-0.01619c0.39468,0.00048 1.61146,1.01719 1.656,1.05917c0.38681,0.36453 1.03534,0.85215 1.48688,1.56274c0.38045,0.59873 0.42727,1.86321 0.27398,2.73636c-0.32301,1.11418 -1.18491,2.14998 -1.18491,2.14998c0,0 -1.49049,-0.58454 -2.23907,-1.35138c-0.55077,-0.84215 -0.84431,-1.19979 -1.11507,-1.53402c-0.22005,-0.27167 -0.87399,-0.89937 -0.87399,-0.89937l-0.36798,-0.20622l-0.20973,-0.2951z" fill="#20201f" stroke="none" stroke-width="0" stroke-linecap="butt"/><path d="M245.68121,187.72565c0,0 0.62163,-0.00422 1.08332,0.02793c0.5851,0.04076 2.07391,0.19762 2.07391,0.19762" fill="none" stroke="#c8c7c6" stroke-width="0.125" stroke-linecap="round"/><path d="M244.25422,186.14078c0.6563,0.34995 0.93309,0.2728 1.19709,0.75959c0.26398,0.48678 0.26379,0.95402 0.03752,1.51702c-0.52233,0.96671 -0.74694,1.22285 -1.20614,1.46062c-0.2098,0.05953 -1.27075,-0.1572 -1.82043,-0.59146c-0.14414,-0.11389 -0.59433,-1.24324 -0.22435,-1.89277c0.36999,-0.64954 1.19134,-1.69289 2.01631,-1.25303z" fill="#c274a1" stroke="none" stroke-width="0" stroke-linecap="butt"/><path d="M244.29879,186.1846c0.65633,0.34995 0.08856,1.56224 -0.11955,1.88807c-0.25376,0.39733 -1.12277,1.69197 -1.67245,1.25772c-0.14413,-0.11386 -0.59433,-1.24324 -0.22434,-1.89278c0.36999,-0.64954 1.19134,-1.69289 2.01631,-1.25303z" fill="#cacacd" stroke="none" stroke-width="0" stroke-linecap="butt"/><path d="M250.53161,192.26845c0.20875,0.09989 0.36836,-0.07219 0.49118,0.07672c0.20584,0.24957 0.08944,0.44066 0.04399,0.48693c-0.0726,0.07385 -0.38232,-0.01509 -0.68409,-0.25932c-0.30176,-0.24422 -0.64849,-0.52481 -0.64849,-0.52481c0,0 0.58868,0.12059 0.79742,0.22047z" fill="#c8c7c6" stroke="none" stroke-width="0" stroke-linecap="butt"/><path d="M248.03575,193.73387c0,0 -0.846,-0.77284 -0.09585,-1.81116c1.06819,-1.47863 3.11059,-0.79836 3.11059,-0.79836" fill="none" stroke="#c8c7c6" stroke-width="0.125" stroke-linecap="round"/><path d="M248.83295,193.75479c0,0 0.41654,0.15948 0.77907,0.29829c0.36255,0.13882 0.59471,0.36229 0.56719,0.46212c-0.01726,0.06253 -0.12432,0.259 -0.44347,0.20589c-0.1904,-0.03169 -0.12147,-0.25604 -0.3125,-0.38665c-0.19101,-0.13059 -0.59032,-0.57963 -0.59032,-0.57963z" data-paper-data="{&quot;index&quot;:null}" fill="#c8c7c6" stroke="none" stroke-width="0" stroke-linecap="butt"/></g><path d="M242.37568,183.34292l-0.86251,2.50523l1.88798,1.21643c0,0 0.06483,0.41951 0.05409,0.68207c-0.01074,0.26256 -0.19955,0.59293 -0.19955,0.59293l-2.00508,-1.13639c0,0 -1.03932,-0.53341 -1.08129,-1.2972c-0.03707,-0.67447 0.84228,-3.05101 0.84228,-3.05101z" data-paper-data="{&quot;index&quot;:null}" fill="#20201f" stroke="none" stroke-width="0" stroke-linecap="butt" stroke-linejoin="miter"/><g data-paper-data="{&quot;index&quot;:null}" stroke-linejoin="miter"><path d="M251.11569,195.07341c0,0 1.02251,-1.92563 1.32512,-2.92344c0.24526,-0.80873 -2.33883,-4.10219 -2.33883,-4.10219c0,0 1.25866,-0.58359 1.84644,0.82084c0.16532,0.39497 0.59429,0.90188 0.86664,1.81668c0.27233,0.91481 0.45251,1.76687 0.14481,2.59638c-0.30771,0.82951 -1.22373,2.04371 -1.91461,2.43162c-0.97556,0.51685 -0.9465,0.09549 -0.9465,0.09549l1.01697,-0.73541z" fill="#947043" stroke="none" stroke-width="0" stroke-linecap="butt"/><path d="M246.81296,189.23631l1.96948,-2.30831l0.57772,0.43298l-0.0878,0.17207c0,0 0.29488,-0.01561 0.36151,0.0223c0.29184,0.16614 0.16682,0.24814 0.16682,0.24814c0,0 0.57562,0.20447 0.94359,0.34717c0.36797,0.14268 1.13661,1.52956 1.16303,1.58478c0.22946,0.47944 0.65867,1.16798 0.82381,1.99357c0.13912,0.69559 -0.27289,1.89203 -0.73052,2.65124c-0.70283,0.92294 -1.88008,1.57852 -1.88008,1.57852c0,0 -1.17969,-1.08238 -1.60161,-2.06748c-0.21027,-0.98402 -0.35522,-1.42345 -0.48733,-1.8328c-0.10738,-0.33269 -0.49118,-1.1539 -0.49118,-1.1539l-0.26893,-0.32497l-0.08932,-0.35085z" fill="#20201f" stroke="none" stroke-width="0" stroke-linecap="butt"/><path d="M248.65198,187.78917c0,0 0.58137,0.22007 1.00048,0.41646c0.53109,0.24887 1.86336,0.93173 1.86336,0.93173" fill="none" stroke="#c8c7c6" stroke-width="0.125" stroke-linecap="round"/><path d="M247.89199,185.79652c0.48611,0.56296 0.77207,0.59073 0.84291,1.13994c0.07081,0.54921 -0.09772,0.98497 -0.5117,1.42862c-0.83561,0.71352 -1.1374,0.87153 -1.65147,0.92783c-0.21715,-0.02009 -1.1287,-0.60459 -1.48497,-1.20773c-0.09343,-0.15817 -0.10638,-1.3739 0.47283,-1.84645c0.57923,-0.47257 1.72137,-1.14984 2.3324,-0.44221z" fill="#c274a1" stroke="none" stroke-width="0" stroke-linecap="butt"/><path d="M247.91778,185.85346c0.48612,0.56296 -0.48038,1.48919 -0.79191,1.71812c-0.37991,0.2792 -1.65706,1.17367 -2.01331,0.57052c-0.09341,-0.15816 -0.10638,-1.3739 0.47284,-1.84646c0.57923,-0.47257 1.72138,-1.14982 2.3324,-0.44221z" fill="#cacacd" stroke="none" stroke-width="0" stroke-linecap="butt"/><path d="M251.5394,193.77465c0.15872,0.16841 0.36962,0.0654 0.43052,0.24856c0.10207,0.30699 -0.07537,0.4433 -0.13444,0.47006c-0.09433,0.04272 -0.3512,-0.15187 -0.54468,-0.48842c-0.19349,-0.33656 -0.41579,-0.72326 -0.41579,-0.72326c0,0 0.50567,0.32462 0.66437,0.49302z" fill="#c8c7c6" stroke="none" stroke-width="0" stroke-linecap="butt"/><path d="M249.71299,194.28743c0,0 0.31118,0.31955 0.58201,0.59765c0.27083,0.27812 0.38779,0.57841 0.3209,0.65747c-0.04189,0.04951 -0.22152,0.18293 -0.4889,0.00082c-0.15952,-0.10867 -0.00282,-0.28339 -0.12141,-0.48209c-0.11858,-0.19871 -0.29262,-0.77386 -0.29262,-0.77386z" data-paper-data="{&quot;index&quot;:null}" fill="#c8c7c6" stroke="none" stroke-width="0" stroke-linecap="butt"/><path d="M248.68312,194.24218c0,0 -0.51063,-1.02575 0.56328,-1.72401c1.52928,-0.99433 3.18928,0.37623 3.18928,0.37623" fill="none" stroke="#c8c7c6" stroke-width="0.125" stroke-linecap="round"/><g fill="#83c4ac" stroke="none" stroke-width="0" stroke-linecap="butt"><path d="M249.17508,188.92841c-0.11084,0.07145 -0.7808,-0.11819 -0.7808,-0.11819l0.42074,-0.9446l0.21483,-0.01785c0,0 0.23917,1.02005 0.14523,1.08061z"/><path d="M249.13493,187.01866c0.13166,-0.00756 0.53767,0.3503 0.53767,0.3503l-0.61029,0.54078l-0.28941,-0.01599c0,0 0.25044,-0.86867 0.36202,-0.87508z" data-paper-data="{&quot;index&quot;:null}"/><path d="M250.22211,189.2181c-0.0964,0.08995 -0.78937,0.02214 -0.78937,0.02214l0.20297,-0.99507l0.25188,-0.06482c0,0 0.41622,0.96148 0.33452,1.03776z"/><path d="M249.72184,187.3166c0.12461,-0.04323 0.61288,0.19022 0.61288,0.19022l-0.43948,0.68684l-0.28277,0.06359c0,0 0.0038,-0.90404 0.10939,-0.94068z" data-paper-data="{&quot;index&quot;:null}"/><path d="M250.95323,189.50178l-0.62271,-0.75253c0,0 -0.34017,-0.18647 -0.27326,-0.34449c0.06691,-0.15802 0.37064,0.11451 0.37064,0.11451l0.81103,0.34864l0.1026,0.38274z"/></g></g><path d="M244.22624,182.11898l2.11943,3.12613l0.7718,1.11081c0,0 -0.11088,0.42589 -0.27278,0.64695c-0.16191,0.22106 -0.61141,0.56024 -0.61141,0.56024l-1.01052,-1.49977l-2.24695,-3.47787z" data-paper-data="{&quot;index&quot;:null}" fill="#20201f" stroke="none" stroke-width="0" stroke-linecap="butt" stroke-linejoin="miter"/><g data-paper-data="{&quot;index&quot;:null}" stroke-width="0" stroke-linecap="butt" stroke-linejoin="miter"><g data-paper-data="{&quot;index&quot;:null}"><path d="M226.19364,172.84239c-0.52485,-0.92492 -0.19775,-2.10176 0.73056,-2.62854c0.92833,-0.52678 2.10636,-0.20401 2.63121,0.72091c0.52485,0.92492 0.19777,2.10177 -0.73055,2.62854c-0.92833,0.52678 -2.10638,0.20403 -2.63122,-0.72089z" fill="#c2e266" stroke="none"/><path d="M227.08794,173.0652c-0.32426,-0.57142 -0.12219,-1.29847 0.45134,-1.62392c0.57353,-0.32546 1.30132,-0.12606 1.62556,0.44538c0.32426,0.57142 0.12219,1.29847 -0.45134,1.62392c-0.57353,0.32546 -1.30132,0.12605 -1.62556,-0.44538z" fill="#c2e266" stroke="#000000"/><path d="M228.59904,176.45048c-0.80957,-0.72887 -0.66755,-2.07109 -0.66755,-2.07109l1.82188,-1.05093c0,0 0.23346,0.10095 1.16543,1.06934c0.96768,1.00552 0.78066,3.37381 0.78066,3.37381c0,0 -2.29083,-0.59227 -3.10043,-1.32114z" fill="#e8edf4" stroke="#000000"/><path d="M228.98378,174.04114c-0.44353,0.2543 -1.33251,0.42491 -1.33251,0.42491l-0.14686,-0.70016c0,0 0.74624,0.04161 1.15395,-0.16014c0.40769,-0.20172 0.79859,-0.80603 0.79859,-0.80603l0.48732,0.28673c0,0 -0.45371,0.66408 -0.96048,0.95464z" fill="#dbded5" stroke="#000000"/></g><g data-paper-data="{&quot;index&quot;:null}" stroke="none"><path d="M236.10383,174.31479c0.17498,-0.09929 0.48387,0.11465 0.68996,0.47784c0.2061,0.36319 0.23132,0.73809 0.05636,0.83739c-0.17498,0.09929 -0.4839,-0.11464 -0.68999,-0.47783c-0.2061,-0.36319 -0.23132,-0.73812 -0.05634,-0.8374z" fill="#000000"/><path d="M239.92952,178.20898c0.18226,-0.10343 1.17271,0.37516 1.2634,0.53497c0.09069,0.15981 0.38045,1.38374 0.19818,1.48715c-0.18226,0.10343 -1.25986,0.33239 -1.25986,0.33239c0,0 -0.38401,-2.25109 -0.20175,-2.35452z" fill="#807d5a"/><path d="M229.69301,172.46093l0.03977,-0.19645l7.14371,2.72734l0.06622,0.32176z" fill="#6e6e73"/><path d="M232.13175,173.0476l-0.10479,0.4304l-1.69255,-0.60443l0.1312,-0.44539z" fill="#c2e266"/></g></g><g data-paper-data="{&quot;index&quot;:null}" stroke-width="0" stroke-linecap="butt" stroke-linejoin="miter"><g data-paper-data="{&quot;index&quot;:null}"><path d="M245.87037,165.65023c-1.19088,0.67578 -2.70212,0.26175 -3.37542,-0.92478c-0.6733,-1.18652 -0.25371,-2.69621 0.93719,-3.372c1.19088,-0.67578 2.70213,-0.26173 3.37542,0.92479c0.6733,1.18652 0.2537,2.69621 -0.93721,3.372z" fill="#c2e266" stroke="none"/><path d="M245.88557,165.49289c-0.73573,0.41749 -1.66937,0.1617 -2.08533,-0.57135c-0.41598,-0.73304 -0.15674,-1.66573 0.57899,-2.08322c0.73573,-0.41749 1.66937,-0.16171 2.08534,0.57133c0.41598,0.73304 0.15673,1.66574 -0.57901,2.08323z" fill="#c2e266" stroke="#000000"/><path d="M249.19856,167.30102c0.27005,1.3711 -0.58487,4.28363 -0.58487,4.28363c0,0 -2.73117,-1.35217 -3.20189,-3.07937c-0.45334,-1.66347 -0.4109,-1.987 -0.4109,-1.987l2.356,-1.315c0,0 1.57163,0.72664 1.84167,2.09776z" fill="#e8edf4" stroke="#000000"/><path d="M246.29204,166.1396c-0.65338,0.36696 -1.68325,0.42967 -1.68325,0.42967l0.00483,-0.72534c0,0 0.92267,-0.03291 1.41307,-0.34917c0.49039,-0.31627 0.93553,-1.16546 0.93553,-1.16546l0.67444,0.62239c0,0 -0.77276,0.86676 -1.3446,1.18789z" fill="#dbded5" stroke="#000000"/></g><g data-paper-data="{&quot;index&quot;:null}" stroke="none"><path d="M244.25952,175.70611c0.38833,0.26737 1.11574,1.88734 1.11574,1.88734l-2.69993,1.55437c0,0 -1.51924,-0.62002 -1.94436,-2.01578c-0.31254,-1.02607 0.39187,-2.91796 0.56315,-3.02208c1.10361,-0.67086 2.57703,1.32876 2.96536,1.59616z" fill="#c2e266"/><path d="M242.7942,174.7738c0.26438,0.46592 0.29676,0.94687 0.0723,1.07423c-0.22446,0.12737 -0.62076,-0.14706 -0.88513,-0.61299c-0.26438,-0.46592 -0.29674,-0.94687 -0.07227,-1.07424c0.22446,-0.12737 0.62074,0.14706 0.88513,0.613z" fill="#000000"/><path d="M246.32078,179.56825c0.29005,0.80988 0.55827,2.22116 0.55827,2.22116l-0.78861,1.00252c0,0 -1.52532,0.20513 -1.88308,-0.47794c-0.17763,-0.33916 -1.47269,-3.03961 -1.47269,-3.03961l0.68347,-1.29025c0,0 0.5502,-0.25297 0.92014,-0.33932c0.36994,-0.08636 1.0329,-0.06561 1.0329,-0.06561c0,0 0.65954,1.17918 0.94959,1.98907z" fill="#20201f"/><path d="M246.14097,182.7072c0,0 -0.9611,1.0361 -1.19493,1.16877c-0.23382,0.13267 -1.39107,-0.99169 -1.5074,-1.1967c-0.11634,-0.20502 0.00823,-1.61065 0.24205,-1.74331c0.23382,-0.13267 2.46026,1.77125 2.46026,1.77125z" fill="#c274a1"/><path d="M242.45707,175.74179l-0.31077,-0.28463l1.69635,-9.66159l0.24252,0.08544z" fill="#6e6e73"/><path d="M243.54088,166.71033l0.5768,0.14854l-0.44791,2.26164l-0.54295,-0.16776z" fill="#c2e266"/></g></g><g data-paper-data="{&quot;index&quot;:null}" stroke="none" stroke-width="0" stroke-linecap="butt" stroke-linejoin="miter"><g><g><path d="M235.58811,187.06868c0.22036,-0.82176 0.78555,-2.12922 0.78555,-2.12922l2.43697,-0.29781c0,0 0.34463,0.1167 0.64414,0.59163c0.19454,0.30845 0.20914,0.91066 0.20914,0.91066c0,0 0.34222,-0.62304 0.81214,-0.28805c0.30171,0.2151 0.13002,1.31089 -0.02253,1.67837c-0.08981,0.21633 -0.37579,0.53971 -0.68663,0.66939c-0.19608,0.08179 -0.48217,0.01792 -0.48217,0.01792c0,0 -0.07223,0.36953 -0.47149,0.32721c-0.12233,-0.01295 -0.29323,0.00383 -0.29323,0.00383c0,0 -0.13428,0.24777 -0.25206,0.34277c-0.11778,0.095 -0.36513,0.13048 -0.36513,0.13048l-0.36574,-0.20546c0,0 -0.43193,0.32568 -0.54176,0.34116c-0.4309,0.06065 -0.67372,-0.35635 -0.80548,-0.5793c-0.24125,-0.40823 -0.63684,-1.38261 -0.6017,-1.51356z" fill="#20201f"/><path d="M235.65135,183.34832c0.33485,-0.8768 1.31241,-1.24045 2.37651,-1.15282c1.06411,0.08764 2.14285,0.62426 1.78227,1.49536c-0.36056,0.87111 -1.63637,1.62405 -2.97864,1.51349c-1.3423,-0.11056 -1.51502,-0.97924 -1.18015,-1.85603z" fill="#20201f"/><path d="M237.88235,181.26983c0.26059,-0.83434 0.70704,-2.0796 1.24415,-3.07798c0.17786,-0.33061 0.38732,-0.33152 0.57668,-0.25026c0.28187,0.12098 0.36629,0.33978 0.25912,0.62059c-0.42762,1.12061 -0.78102,2.10823 -1.02758,2.89757c-0.15031,0.48122 -0.54186,2.0808 -0.54186,2.0808l-1.34215,0.12786c0,0 0.459,-1.20575 0.83157,-2.39857z" fill="#fed5c7"/></g><path d="M239.51152,186.21392c0,0 0.18602,-0.71781 0.74716,-0.49978c0.36028,0.13997 0.47575,0.66236 0.41587,1.07307c-0.03526,0.24179 -1.16304,-0.57327 -1.16304,-0.57327z" fill="#c0c2c6"/><path d="M238.19123,186.72256c0,0 0.18602,-0.71781 0.74716,-0.49978c0.36028,0.13997 0.47575,0.66236 0.41587,1.07307c-0.03526,0.24179 -1.16304,-0.57327 -1.16304,-0.57327z" fill="#c0c2c6"/><path d="M236.98859,187.13916c0,0 0.18602,-0.71781 0.74716,-0.49978c0.36028,0.13997 0.47575,0.66236 0.41587,1.07307c-0.03526,0.24179 -1.16304,-0.57327 -1.16304,-0.57327z" fill="#c0c2c6"/><path d="M236.5198,185.49922c0,0 0.43584,-0.59992 0.87826,-0.19163c0.28406,0.26211 0.20033,0.79055 -0.00573,1.15081c-0.12129,0.21212 -0.87251,-0.95918 -0.87251,-0.95918z" fill="#c0c2c6"/><path d="M236.05796,187.27596c0,0 0.18602,-0.71781 0.74716,-0.49978c0.36028,0.13997 0.47575,0.66236 0.41587,1.07307c-0.03526,0.24179 -1.16304,-0.57327 -1.16304,-0.57327z" fill="#c0c2c6"/></g><g><path d="M237.86427,180.78151l0.4276,-1.06328l1.38569,0.39908l-0.39413,1.07039z" fill="#83c4ac"/><path d="M238.31212,178.50385c0.23099,-0.61862 0.86557,-0.9819 1.45343,-0.79985c0.58786,0.18208 0.8902,0.83534 0.67535,1.45915c-0.38197,1.10901 -0.9045,1.1653 -1.49235,0.98325c-0.58786,-0.18208 -1.02156,-0.61123 -0.63646,-1.64254z" fill="#20201f"/><path d="M237.04392,182.00781l0.79395,-1.2669l1.45268,0.41328l-0.05188,1.56441l-0.66254,-0.02102l-1.0828,-0.36319z" fill="#bebec0"/></g></g><g data-paper-data="{&quot;index&quot;:null}" stroke="none" stroke-width="0" stroke-linecap="butt" stroke-linejoin="miter"><path d="M242.72796,180.5223l1.12427,-0.71412l3.02131,0.56444l2.0195,-1.6463c0,0 -0.81689,1.8952 -1.60033,2.32752c-0.72099,0.39785 -4.56476,-0.53154 -4.56476,-0.53154z" fill="#f79db4"/><path d="M242.51826,177.34853c0.07959,-0.68576 0.70003,-1.17715 1.38579,-1.09756c0.68576,0.07959 1.17714,0.70003 1.09754,1.38578c-0.07959,0.68576 -0.62948,0.92154 -1.31524,0.84194c-0.68576,-0.07959 -1.24768,-0.44442 -1.16808,-1.13017z" fill="#83c4ac"/><path d="M238.10157,182.47609c0,0 0.65317,-0.13043 1.18019,0.15815c0.7437,0.40724 1.35009,0.52739 3.4903,-0.59423c1.90837,-1.00012 1.9826,-1.99006 2.18798,-2.61764c0.24906,-0.76106 0.3916,-1.05665 0.3916,-1.05665l1.89452,-0.3871c0,0 -0.18111,0.61788 0.02664,1.4672c0.29377,0.89895 -0.14286,1.56508 -0.64672,1.89872c-0.26707,0.58499 -0.2676,1.52265 -1.0906,1.73535c-0.11059,0.80439 -0.80885,1.26296 -1.59427,1.20878c-0.26,0.71776 -0.98678,0.86913 -1.45754,0.66775c-0.66234,0.66658 -1.42196,0.62079 -1.88971,0.29953c-0.91193,0.35257 -1.74332,-0.08806 -2.21716,-0.67887c-1.01403,0.05853 -0.27523,-2.10099 -0.27523,-2.10099z" fill="#c0c2c6"/><path d="M238.47755,177.0354l0.30088,-0.2142l2.03515,-1.17706c0,0 0.49199,1.34065 1.15404,1.85443c0.66205,0.51378 0.79032,0.61155 1.55243,0.78623c0.76212,0.17466 2.11742,0.05253 2.11742,0.05253c0,0 -0.27387,0.5079 -0.30079,1.06477c-0.01683,0.3484 0.27818,0.71659 0.13224,0.9896c-0.24707,0.46217 -0.76583,0.39637 -1.30027,0.91689c-0.2859,0.27846 -0.3482,1.06319 -0.88463,1.43117c-0.95785,0.65704 -1.57066,0.25979 -2.33934,0.27329c-0.35967,0.00632 -0.69552,0.62113 -1.22242,0.53064c-0.396,-0.06801 -0.35602,-0.52625 -0.62216,-0.67996c-0.44787,-0.25866 -0.74405,-0.81215 -0.33064,-1.48733c0.41342,-0.67515 0.72383,-1.5571 0.72383,-1.5571c0,0 -0.3687,-0.81436 -0.59043,-1.4115c-0.22173,-0.59713 -0.42532,-1.3724 -0.42532,-1.3724z" fill="#20201f"/><path d="M243.50229,179.25354l-0.48502,-0.14739l0.16815,-0.94234c0,0 0.14523,0.04806 0.41117,0.11725c0.23956,0.06234 0.64766,0.09662 0.64766,0.09662l-0.05547,0.37966z" data-paper-data="{&quot;index&quot;:null}" fill="#c274a1"/><path d="M242.69321,180.15453l0.42918,-1.00795l0.39005,0.11947l-0.38347,0.89144z" data-paper-data="{&quot;index&quot;:null}" fill="#c0c2c6"/><path d="M239.17699,181.45772l-0.33705,-0.18332c0,0 0.21734,-0.3471 0.31115,-0.57619c0.10414,-0.2543 0.15279,-0.39935 0.15279,-0.39935l0.85487,0.43066l-0.17297,0.47649z" fill="#c274a1"/><path d="M241.37735,181.38589l-1.39543,-0.25075l0.13836,-0.38377l1.51609,0.28403z" fill="#c0c2c6"/><path d="M241.9854,176.99212c1.14065,1.65076 -0.18499,2.30215 -0.3667,2.33574c-0.17634,0.03261 -0.67396,0.02065 -0.99505,-0.05731c-0.32694,-0.07938 -0.98449,-0.3949 -0.98449,-0.3949l-0.07626,0.8303c0,0 -0.71934,-0.61555 -1.02405,-1.15945c-0.69026,-1.2321 -0.2392,-1.56111 -0.2392,-1.56111l2.25308,-1.35679c0,0 0.49819,0.01114 1.43266,1.36349z" fill="#c0c0c3"/><path d="M238.96906,177.25632l-0.77042,-0.2079l1.79716,-0.8472z" fill="#222225"/><g><g><path d="M241.69392,182.08338c-0.57078,-0.28122 -0.72409,-1.13715 -0.34243,-1.91178c0.38166,-0.77462 1.15376,-1.17459 1.72454,-0.89339c0.57079,0.2812 0.72408,1.13714 0.34242,1.91177c-0.38166,0.77462 -1.15376,1.17459 -1.72454,0.89339z" fill="#c0c2c6"/><path d="M241.21835,179.13211c0.04434,-0.24683 0.28039,-0.41099 0.52721,-0.36666c0.24683,0.04434 0.411,0.2804 0.36666,0.52721c-0.04434,0.24683 -0.2804,0.41099 -0.52721,0.36665c-0.24683,-0.04434 -0.41099,-0.28039 -0.36665,-0.52721z" fill="#000000"/><path d="M241.36145,179.3639c-0.09854,-0.16037 -0.04842,-0.37026 0.11195,-0.4688c0.16037,-0.09854 0.37026,-0.04842 0.4688,0.11195c0.09854,0.16037 -0.03679,0.19504 -0.19716,0.29359c-0.16037,0.09854 -0.28503,0.22365 -0.38359,0.06328z" fill="#c478a9"/><path d="M240.51545,181.38459c-0.20875,-0.13901 -0.26529,-0.42091 -0.12629,-0.62964c0.13901,-0.20875 0.42091,-0.26529 0.62964,-0.12629c0.20875,0.13901 0.26529,0.4209 0.1263,0.62963c-0.13901,0.20875 -0.42091,0.26529 -0.62964,0.12629z" fill="#000000"/><path d="M240.78507,181.34566c-0.18636,0.02651 -0.3589,-0.10308 -0.38542,-0.28943c-0.02651,-0.18636 0.10308,-0.3589 0.28943,-0.38542c0.18636,-0.02651 0.16424,0.11146 0.19074,0.2978c0.02651,0.18636 0.0916,0.35053 -0.09476,0.37705z" fill="#c478a9"/><path d="M241.22842,181.2235c-0.04243,-0.07479 -0.01888,-0.35782 0.19225,-0.47761c0.21115,-0.11981 0.45975,-0.11758 0.50219,-0.0428c0.04243,0.07479 -0.02201,0.35997 -0.23315,0.47977c-0.21114,0.11981 -0.41884,0.11541 -0.46128,0.04065z" fill="#000000"/><path d="M242.0887,179.50355c0.08554,-0.00858 0.20915,0.15839 0.23338,0.39996c0.02424,0.24156 -0.17127,0.45895 -0.25683,0.46752c-0.08554,0.00858 -0.23104,-0.19302 -0.25527,-0.43458c-0.02424,-0.24156 0.19316,-0.42433 0.2787,-0.4329z" data-paper-data="{&quot;index&quot;:null}" fill="#000000"/><path d="M241.44261,181.00716c-0.04493,-0.07918 -0.01716,-0.17978 0.06201,-0.2247c0.07918,-0.04493 0.17978,-0.01716 0.22471,0.06201c0.04493,0.07918 0.01716,0.17978 -0.06201,0.22471c-0.07918,0.04493 -0.17978,0.01716 -0.2247,-0.06202z" fill="#ffffff"/><path d="M241.91084,180.16236c-0.04743,-0.08356 -0.01811,-0.18978 0.06547,-0.23719c0.08356,-0.04743 0.18978,-0.01811 0.23719,0.06547c0.04743,0.08356 0.01811,0.18978 -0.06547,0.23719c-0.08356,0.04743 -0.18978,0.01811 -0.23719,-0.06547z" fill="#ffffff"/></g><path d="M242.22303,180.51066c0.06028,0.02626 0.09483,0.12627 0.05647,0.21438c-0.03837,0.0881 -0.13512,0.13093 -0.19541,0.10467c-0.06028,-0.02626 0.07868,-0.3453 0.13897,-0.31906z" fill="#000000"/><path d="M242.09522,181.14129c0.06395,0.04083 0.054,0.17069 -0.02221,0.29004c-0.07621,0.11935 -0.18981,0.18304 -0.25377,0.1422c-0.06395,-0.04083 -0.054,-0.17069 0.02221,-0.29004c0.07621,-0.11935 0.18981,-0.18304 0.25377,-0.1422z" fill="#ad597c"/><path d="M242.74667,179.80295c0.06395,0.04083 0.054,0.17069 -0.02221,0.29004c-0.07621,0.11935 -0.18981,0.18304 -0.25377,0.1422c-0.06395,-0.04083 -0.054,-0.17069 0.02221,-0.29004c0.07621,-0.11935 0.18981,-0.18304 0.25377,-0.1422z" fill="#ad597c"/></g><g fill="#83c4ac"><path d="M239.1449,179.63216l-0.46696,-0.43232c0,0 0.21241,-0.33195 0.36362,-0.45909c0.13843,-0.11642 0.5087,-0.2745 0.5087,-0.2745l0.16141,0.12196c0,0 -0.17552,0.28437 -0.27487,0.46734c-0.08828,0.16262 -0.29191,0.57664 -0.29191,0.57664z"/><path d="M240.37915,178.85997c-0.19725,-0.06661 -0.67988,-0.24907 -0.67988,-0.24907l-0.20023,-0.12695c0,0 0.77516,-0.11478 0.95585,-0.12355c0.19733,-0.0096 0.57881,0.08934 0.57881,0.08934l-0.04839,0.63449c0,0 -0.43085,-0.16506 -0.60614,-0.22426z" data-paper-data="{&quot;index&quot;:null}"/><path d="M240.04308,180.04579c0,0 -0.23031,-0.40466 -0.35409,-0.67528c-0.12378,-0.2706 -0.22079,-0.58157 -0.22079,-0.58157l0.23094,-0.1618c0,0 0.18919,0.44691 0.32741,0.72482c0.13821,0.27793 0.43564,0.80945 0.43564,0.80945z"/><path d="M240.65797,180.12723c0,0 -0.3286,-0.54459 -0.49629,-0.80579c-0.1677,-0.26119 -0.51212,-0.72758 -0.51212,-0.72758l0.23564,-0.07226c0,0 0.33281,0.39234 0.50163,0.63737c0.16884,0.24504 0.39811,0.65028 0.39811,0.65028z" data-paper-data="{&quot;index&quot;:null}"/></g></g><g data-paper-data="{&quot;index&quot;:null}"><g data-paper-data="{&quot;index&quot;:null}" fill="#86cbb6" stroke="none" stroke-width="0" stroke-linecap="butt" stroke-linejoin="miter"><path d="M230.38485,173.56036c-0.31262,0.36758 -0.63225,0.84185 -0.63225,0.84185l-0.71621,-0.73565c0,0 0.6226,-0.65898 0.99289,-0.8838c0.37031,-0.22484 1.20354,-0.36321 1.20354,-0.36321l-0.32746,0.60856c0,0 -0.20793,0.1647 -0.52056,0.53223z"/><path d="M230.41052,174.81938c0,0 0.0658,-0.52679 0.11411,-0.81852c0.06019,-0.36366 0.21931,-1.19552 0.21931,-1.19552l0.44258,-0.39922c0,0 0.01616,1.21369 0.03704,1.60274c0.01515,0.28243 0.04519,0.88377 0.04519,0.88377z"/></g><g stroke="none" stroke-width="0" stroke-linecap="butt" stroke-linejoin="miter"><path d="M228.43307,170.78368c0.30819,-0.7945 0.85051,-0.87067 1.35448,-0.85567c0.65768,0.01532 1.4283,0.26913 1.4283,0.26913c0,0 -0.25449,0.97884 -0.22597,1.5641c0.02851,0.58527 0.37344,1.46218 0.37344,1.46218c0,0 -1.69381,0.049 -2.33562,-0.59639c-0.64181,-0.6454 -0.80583,-1.02761 -0.59461,-1.84337z" data-paper-data="{&quot;index&quot;:null}" fill="#20201f"/><path d="M228.52708,171.8425c-0.15939,-0.5101 1.32393,0.10557 1.32393,0.10557l-0.17598,1.029c0,0 -0.94149,-0.47394 -1.14793,-1.1346z" data-paper-data="{&quot;index&quot;:null}" fill="#b2b1b2"/></g><path d="M233.70044,166.8703c2.74315,-1.90228 6.29685,-1.52651 7.93744,0.83926c1.64058,2.36576 0.74679,5.8257 -1.99634,7.72798c-2.74315,1.90228 -6.29683,1.52653 -7.93743,-0.83925c-1.64058,-2.36576 -0.74678,-5.8257 1.99636,-7.72798z" fill="#f79eb4" stroke="none" stroke-width="0" stroke-linecap="butt" stroke-linejoin="miter"/><path d="M233.05152,175.20138c-0.00055,-0.00048 0.82737,0.84677 1.53058,1.14702c0.70321,0.30023 2.96125,0.83266 2.96125,0.83266l0.75148,0.58769c0,0 -1.2489,0.79584 -3.48002,-0.29686c-1.3863,-0.67411 -1.96611,-1.56258 -1.95177,-1.55293" fill="#f79eb4" stroke="#f89db5" stroke-width="0" stroke-linecap="butt" stroke-linejoin="round"/><g fill="#ffd5c5" stroke="none" stroke-width="1" stroke-linecap="round" stroke-linejoin="round"><path d="M235.17452,176.64398c-0.02263,-0.05521 0.12181,-0.01253 0.18073,-0.003c0.36392,0.05865 0.43817,-0.35282 0.51232,-0.59221c0.05701,-0.18391 0.2251,-0.37715 0.37876,-0.48644c0.74489,-0.51798 2.51535,-1.02744 2.78081,-1.19528c0.24706,-0.15618 0.67693,-1.02523 0.87169,-1.28878c0.19983,-0.27041 0.4797,-0.34158 0.54073,-0.33835c0.12798,0.00674 1.00277,0.00752 0.80286,1.40274c-0.02778,0.19385 -0.41853,1.10745 -0.77533,1.42287c-0.29918,0.26444 -1.32087,1.214 -2.37989,1.52228c-0.84399,0.24567 -1.48423,0.21242 -1.56612,0.20793c-0.50044,-0.02758 -1.13862,-0.14534 -1.34657,-0.65178z"/><path d=""/></g><g fill="#000000" stroke="#000000" stroke-width="0.125" stroke-linecap="butt" stroke-linejoin="round"><path d="M233.56725,175.87125c0.01688,0.01817 -0.56485,0.29179 -0.64139,0.3176c-0.34845,0.11764 -0.65713,0.19899 -1.02084,0.25749c-0.11601,0.01867 -0.52601,0.04074 -0.52044,0.03912c0.16396,-0.04786 0.34432,-0.04481 0.51125,-0.08602c0.27882,-0.0689 0.55079,-0.16215 0.82174,-0.25779c0.42069,-0.16607 0.64677,-0.35992 0.70995,-0.37835"/><path d="M233.20871,175.63495c0.01572,0.01697 -0.57191,0.25493 -0.90565,0.29202c-0.33374,0.03708 -1.16051,-0.02989 -1.14693,-0.02242c0.03605,0.01977 0.71769,-0.01232 1.16717,-0.09663c0.44948,-0.08431 0.71471,-0.28332 0.7212,-0.31881"/></g><g fill="#000000" stroke="none" stroke-width="1" stroke-linecap="round" stroke-linejoin="round"><path d="M236.39942,176.26381c-0.08617,0.06869 -0.53775,0.08155 -0.47401,-0.10346c0.03685,-0.10696 0.43824,-0.45655 0.62247,-0.45278c0.24236,0.00496 0.02778,0.39081 -0.14844,0.55627z"/><path d=""/></g><path d="M240.60738,168.96482c0.0266,-0.00172 1.19969,1.97074 1.37619,2.48455c0.26486,0.77099 0.39648,1.58852 0.31643,2.40255c-0.03404,0.34607 -0.10138,0.65904 -0.19313,0.99142c-0.02968,0.10762 -0.19007,0.50409 -0.19007,0.50409c0,0 -0.27129,-1.06325 -1.18245,-2.44908c-0.48386,-0.7359 -1.69316,-2.26872 -1.64612,-2.23684" fill="#f79eb4" stroke="#f89db5" stroke-width="0" stroke-linecap="butt" stroke-linejoin="round"/><path d="M241.3594,167.62841c0.35253,0.19297 1.33171,1.78516 1.80267,3.11216c0.36295,1.02262 0.29442,1.41374 0.20419,2.1544c-0.1022,0.83878 -0.40401,1.12528 -0.40401,1.12528c0,0 -0.27474,-1.21599 -0.59787,-1.93895c-0.32311,-0.72295 -1.6768,-3.1926 -1.69718,-3.19628" fill="#f79eb4" stroke="#f89db5" stroke-width="0" stroke-linecap="butt" stroke-linejoin="round"/><g stroke="none" stroke-width="1" stroke-linecap="round" stroke-linejoin="round"><path d="M231.3952,170.85244c0.01523,-0.15415 0.97525,-2.99772 3.69606,-4.32744c3.38527,-1.6114 6.02503,1.55195 6.02248,1.55293c-0.03548,0.0137 -1.41637,-0.93835 -2.59506,-0.95849c-1.52837,-0.02615 -2.41434,-0.04244 -3.65723,0.55556c-1.57693,0.75869 -2.76175,3.27292 -2.80748,3.37269" fill="#20201f"/><path d="" fill="#ee1a40"/></g><path d="M232.91257,173.18621c-0.01262,-0.00096 -0.88802,1.06889 -1.68635,1.22439c-0.79832,0.1555 -1.39217,1.57231 -1.40405,1.58253c-0.01236,0.01058 -0.21335,-2.05318 0.69271,-2.46712c0.90606,-0.41394 1.93893,-1.39264 1.90979,-1.39484" fill="#f79eb4" stroke="#f89db5" stroke-width="0" stroke-linecap="butt" stroke-linejoin="round"/><path d="M232.48016,172.1689c-0.13297,-0.00936 -1.35158,0.14061 -2.25764,-0.19118c-0.90606,-0.33179 -2.65274,0.67178 -2.65274,0.67178c0,0 1.59172,-1.76999 2.68961,-1.76569c1.09787,0.00429 2.88962,0.76337 2.94442,0.82647" fill="#f79eb4" stroke="#f89db5" stroke-width="0" stroke-linecap="butt" stroke-linejoin="round"/><path d="M237.35887,171.8505c-0.49922,0.34619 -1.49203,2.24255 -1.49203,2.24255c0,0 -1.30418,-4.08232 1.35678,-5.04591c1.26719,-0.16351 1.93073,1.90674 1.93073,1.90674c0,0 -1.29626,0.55041 -1.79546,0.89662z" data-paper-data="{&quot;index&quot;:null}" fill="#20201f" stroke="none" stroke-width="0" stroke-linecap="butt" stroke-linejoin="miter"/><path d="M235.77854,174.01055c0.2187,-0.42468 0.27046,-1.36311 0.70998,-2.1402c1.17117,-2.74739 1.83448,-2.50369 2.82183,-0.58141c0.32856,0.6397 0.67337,1.70593 -0.03524,2.91521c-0.42621,0.53125 -2.11052,0.80334 -2.68598,1.16014c-1.01034,0.62644 -0.56449,0.96633 -1.05799,1.28259c-0.12352,0.07917 -1.29332,-0.15771 -2.2603,-0.97453c-0.45596,-0.38517 -0.62399,-0.62926 -0.56773,-0.66756c0.37129,-0.25276 0.94323,-0.17983 1.57483,0.01849c0.44178,0.13874 0.92633,0.16966 1.18612,-0.04718c0.15145,-0.1264 0.32017,-0.23131 0.31445,-0.96556z" fill="#ffffff" stroke="none" stroke-width="0" stroke-linecap="butt" stroke-linejoin="miter"/><path d="M232.72692,175.22161c0,0 -0.31996,-0.46947 -0.20966,-0.86647c0.44288,-0.70223 2.23449,0.78777 2.23449,0.78777c0,0 -1.23213,-0.12933 -1.37153,-0.03265c-0.13944,0.09669 -0.65327,0.11134 -0.65327,0.11134z" data-paper-data="{&quot;index&quot;:null}" fill="#20201f" stroke="none" stroke-width="0" stroke-linecap="butt" stroke-linejoin="miter"/><path d="M233.54086,173.99323c-0.02241,0.06494 -0.45605,0.86885 -1.20997,1.19645c-0.75393,0.3276 -1.30297,1.64229 -1.30297,1.64229c0,0 0.03165,-1.77562 0.62883,-2.23117c0.59719,-0.45556 1.36656,-1.39883 1.35891,-1.37672" fill="#f79eb4" stroke="#f89db5" stroke-width="0" stroke-linecap="butt" stroke-linejoin="round"/><g fill="#000000" stroke="#000000" stroke-width="0.125" stroke-linecap="butt" stroke-linejoin="round"><path d="M238.34287,169.92838c0.03026,-0.04302 0.08355,-0.03709 0.12329,-0.0616c0.04167,-0.0257 0.21473,-0.17179 0.32796,-0.30508c0.58141,-0.68448 0.62974,-1.34649 0.62974,-1.34649c0,0 0.0894,0.40252 -0.60783,1.54398c-0.10858,0.17778 -0.24187,0.25452 -0.28247,0.23885"/><path d="M238.59092,170.25761c0.02989,-0.01606 0.11348,-0.00226 0.14944,-0.00136c0.08164,0.00208 0.6468,-0.04171 1.1915,-0.55998c0.17969,-0.17287 0.68922,-0.7974 0.68922,-0.7974c0,0 -0.18512,0.40622 -0.68978,0.88042c-0.21165,0.19885 -0.71903,0.55518 -0.9645,0.62838c-0.13237,0.03948 -0.18688,0.02491 -0.18688,0.02491"/></g><g stroke="none" stroke-linecap="butt" stroke-linejoin="miter"><path d="M237.58892,173.2757c0.44792,0.56451 0.66298,1.1396 0.48036,1.28452c-0.18264,0.14491 -0.69381,-0.19523 -1.14172,-0.75973c-0.44792,-0.56451 -0.66299,-1.13962 -0.48036,-1.28451c0.18264,-0.14491 0.69381,0.19523 1.14171,0.75975z" fill="#169c5b" stroke-width="NaN"/><path d="M237.49872,173.5531c0.18707,0.23578 0.27372,0.47854 0.19346,0.54223c-0.08025,0.06368 -0.29698,-0.07583 -0.48406,-0.31163c-0.18707,-0.23578 -0.27372,-0.47854 -0.19346,-0.54223c0.08025,-0.06368 0.29698,0.07583 0.48406,0.31163z" fill="#000000" stroke-width="0"/><path d="M237.01321,173.06469c0.18931,0.23855 0.26421,0.49423 0.16737,0.57106c-0.09685,0.07684 -0.32879,-0.05423 -0.51809,-0.29278c-0.18931,-0.23855 -0.26422,-0.49425 -0.16738,-0.57106c0.09685,-0.07684 0.32882,0.05423 0.51809,0.29278z" fill="#ffffff" stroke-width="0"/></g><g stroke="none" stroke-linecap="butt" stroke-linejoin="miter"><path d="M235.0591,175.62357c0.31592,0.39818 0.46764,0.8038 0.33882,0.90599c-0.12883,0.10222 -0.48936,-0.1377 -0.80531,-0.53585c-0.31592,-0.39818 -0.46763,-0.80379 -0.33879,-0.906c0.12883,-0.10222 0.48936,0.13769 0.8053,0.53587z" fill="#169c5b" stroke-width="NaN"/><path d="M234.9955,175.8192c0.13198,0.16631 0.19305,0.33753 0.13645,0.38246c-0.0566,0.04492 -0.20946,-0.05349 -0.34143,-0.21979c-0.13198,-0.16631 -0.19305,-0.33753 -0.13644,-0.38242c0.0566,-0.04492 0.20946,0.05349 0.34142,0.2198z" fill="#000000" stroke-width="0"/><path d="M234.65304,175.47472c0.13349,0.16827 0.18636,0.34858 0.11804,0.4028c-0.06833,0.05422 -0.23192,-0.03826 -0.36543,-0.20649c-0.13349,-0.16827 -0.18638,-0.34859 -0.11806,-0.40283c0.06833,-0.05422 0.23194,0.03828 0.36544,0.20653z" fill="#ffffff" stroke-width="0"/></g><path d="M240.52128,174.20299c0,0 -0.18727,0.31026 -0.3379,0.44088c-0.15064,0.13064 -0.61857,0.46309 -0.61857,0.46309" data-paper-data="{&quot;index&quot;:null}" fill="none" stroke="#000000" stroke-width="0.125" stroke-linecap="round" stroke-linejoin="miter"/><g fill="#86cbb6" stroke="none" stroke-width="0" stroke-linecap="butt" stroke-linejoin="miter"><path d="M238.55052,167.15814l-0.81848,0.11158c0,0 0.50404,-0.87485 0.91092,-1.1952c0.40689,-0.32036 1.40547,-0.74126 1.40547,-0.74126l0.52347,1.11006c0,0 -0.66487,0.15908 -1.20738,0.35509c-0.54249,0.19598 -0.814,0.35974 -0.814,0.35974z"/><path d="M240.48563,168.34617c0,0 -0.6606,-0.28561 -0.97046,-0.42092c-0.42681,-0.18639 -1.7788,-0.71305 -1.7788,-0.71305l0.63237,-0.32818c0,0 0.99798,0.17044 1.4303,0.25541c0.34685,0.06818 0.96416,0.21524 0.96416,0.21524z"/></g><path d="M237.77562,165.69305c0.84634,0.91256 0.81126,2.17158 0.81126,2.17158c0,0 -0.44305,-0.1344 -2.1474,0.14085c-0.99632,0.16092 -2.10481,0.54291 -2.10481,0.54291c0,0 -0.30419,-1.06692 -0.2888,-1.96634c0.00739,-0.68941 0.14147,-1.42615 1.24398,-1.80335c1.12623,-0.24348 1.63942,0.00177 2.48577,0.91432z" fill="#20201f" stroke="none" stroke-width="0" stroke-linecap="butt" stroke-linejoin="miter"/><path d="M237.16427,166.8528c0,0 -0.26072,-0.02632 -1.18703,0.26062c-0.54147,0.16773 -1.12428,0.45379 -1.12428,0.45379c0,0 -0.34126,-1.2657 0.65432,-1.61361c1.04964,-0.36682 1.65701,0.8992 1.65701,0.8992z" fill="#b2b1b2" stroke="none" stroke-width="0" stroke-linecap="butt" stroke-linejoin="miter"/></g><g data-paper-data="{&quot;index&quot;:null}" stroke-width="0" stroke-linecap="butt" stroke-linejoin="miter"><path d="M232.14917,199.0543c0.77667,-2.01663 3.57381,-2.55976 3.57381,-2.55976l0.9062,0.30745c0,0 -0.71735,0.53552 -2.16298,2.96086c-0.23129,1.87581 -0.65496,4.09385 -0.65496,4.09385c0,0 0.30826,0.16969 -0.36659,-0.10264c-0.67488,-0.27232 -0.41488,-0.21517 -0.41488,-0.21517c0,0 -1.97038,-1.65492 -0.88055,-4.48457z" fill="#cacacd" stroke="none"/><path d="M233.87227,203.91178c0,0 -1.13538,-1.50474 -0.19113,-3.91828c1.00288,-2.56331 2.92607,-3.21586 2.92607,-3.21586c0,0 2.64203,1.09409 1.26931,4.56234c-1.22322,3.09056 -4.00426,2.57177 -4.00426,2.57177z" fill="#c2e266" stroke="#000000"/><path d="M233.161,195.67452l-2.78308,6.87428c0,0 -3.58475,-1.51641 -2.33086,-4.85786c1.27203,-3.3898 5.11392,-2.01644 5.11392,-2.01644z" fill="#c2e266" stroke="none"/><path d="M233.25582,195.69608l-3.0124,2.90794l0.13101,3.93633l-0.26104,-0.10043c0,0 -1.53657,-1.39653 -0.5315,-4.10358c0.99659,-2.67485 3.34353,-2.75581 3.34353,-2.75581z" fill="#cacacd" stroke="none"/><path d="M230.08111,198.3179c0.82376,-1.94137 3.07451,-2.67728 3.07451,-2.67728l2.97506,1.01009c0,0 -2.41799,1.62846 -3.03243,3.13652c-0.61444,1.50807 0.17218,3.88356 0.17218,3.88356l-2.89871,-1.11843c0,0 -1.44652,-1.5104 -0.29064,-4.23444z" fill="#c274a1" stroke="none"/><path d="M236.40438,194.17948c0,0 -0.55323,-0.33489 -0.92841,-0.49376c-0.37519,-0.15892 -0.9332,-0.29474 -0.9332,-0.29474l4.64659,-10.29184c0,0 0.68988,0.0441 1.08898,0.21195c0.3991,0.16788 0.67541,0.53014 0.67541,0.53014z" fill="#c2e266" stroke="none"/><path d="M235.8086,196.6264l-2.64078,-0.88696c0,0 0.82354,-2.25953 1.15945,-2.33999c0.5689,-0.1363 2.12249,0.61682 2.25574,1.01045c0.0351,0.1037 -0.77439,2.21651 -0.77439,2.21651z" fill="#cacacd" stroke="none"/></g><g data-paper-data="{&quot;index&quot;:null}" stroke="none" stroke-width="0" stroke-linecap="butt" stroke-linejoin="miter"><path d="M239.79621,181.0919c1.47479,0.05906 2.63662,0.94806 2.59506,1.98553c-0.04156,1.03749 -1.2708,1.83067 -2.74555,1.77159c-1.47479,-0.05907 -2.63662,-0.94804 -2.59506,-1.98553c0.04156,-1.03749 1.27082,-1.83068 2.74559,-1.77158z" fill="#20201f"/><path d="M240.38478,176.77074c0.13132,-0.36895 0.34716,-0.40289 0.55525,-0.34893c0.30972,0.08031 0.43124,0.29266 0.36501,0.59911c-0.26441,1.22294 -0.47321,2.29703 -0.60305,3.14986c-0.07917,0.51991 -0.31428,2.56017 -0.31428,2.56017l-1.20971,-0.15933c0,0 0.21258,-1.1421 0.40879,-2.43086c0.13725,-0.90143 0.40138,-2.25585 0.79798,-3.37001z" fill="#fed5c7"/><path d="M239.53077,179.21683l0.24261,-1.12007l1.4331,0.16024l-0.20839,1.12144z" fill="#83c4ac"/><path d="M239.58903,176.8963c0.12364,-0.6487 0.68805,-1.11354 1.29811,-1.03299c0.6101,0.08056 1.01806,0.67366 0.91124,1.32471c-0.18994,1.15746 -0.69555,1.30089 -1.30566,1.22032c-0.6101,-0.08056 -1.10983,-0.43063 -0.90371,-1.51206z" fill="#20201f"/><path d="M238.92841,180.56368l0.56949,-1.38242l1.50152,0.16297l0.21209,1.55084l-0.65664,0.09072l-1.1285,-0.17584z" fill="#bebec0"/><g><path d="M238.41326,183.31498l2.551,0.22682c0,0 0.32614,0.19411 0.52829,0.74384c0.13131,0.35701 0.01509,0.97457 0.01509,0.97457c0,0 0.4848,-0.5611 0.89124,-0.11703c0.26097,0.28509 -0.15279,1.36568 -0.38846,1.70735c-0.13873,0.20114 -0.5009,0.46877 -0.84623,0.53335c-0.21785,0.04077 -0.49583,-0.08669 -0.49583,-0.08669c0,0 -0.15411,0.36126 -0.55222,0.23113c-0.12198,-0.03986 -0.29996,-0.05997 -0.29996,-0.05997c0,0 -0.19094,0.22354 -0.33177,0.2948c-0.14083,0.07127 -0.40087,0.05359 -0.40087,0.05359l-0.32841,-0.28924c0,0 -0.51156,0.2382 -0.62699,0.23003c-0.45279,-0.03197 -0.60972,-0.51024 -0.69559,-0.76639c-0.15723,-0.46899 -0.34859,-1.54915 -0.28429,-1.67509c0.40375,-0.79036 1.26501,-2.00113 1.26501,-2.00113z" fill="#20201f"/><path d="M241.50764,185.26023c0,0 0.4848,-0.5611 0.89124,-0.11703c0.26097,0.28509 0.13305,0.80459 -0.10257,1.14624c-0.13873,0.20114 -0.78868,-1.02923 -0.78868,-1.02923z" fill="#c0c2c6"/></g></g></g></g></svg>