<svg version="1.1" xmlns="http://www.w3.org/2000/svg" xmlns:xlink="http://www.w3.org/1999/xlink" width="227.9742" height="202.55904" viewBox="0,0,227.9742,202.55904"><g transform="translate(-113.28448,-136.18288)"><g data-paper-data="{&quot;isPaintingLayer&quot;:true}" fill-rule="nonzero" stroke-linejoin="miter" stroke-miterlimit="10" stroke-dasharray="" stroke-dashoffset="0" style="mix-blend-mode: normal"><g stroke="none" stroke-linecap="butt"><path d="M249.56218,266.02691c-4.71203,1.73005 -19.79788,3.56175 -19.79788,3.56175c0,0 -6.2303,2.35891 -9.66554,4.36391c-4.22054,2.46331 -9.63478,6.73417 -9.63478,6.73417c0,0 1.01491,-3.85913 2.51664,-7.01737c1.50177,-3.15824 4.15715,-7.93821 4.15715,-7.93821c0,0 -4.66672,1.04764 -8.40459,1.19126c-3.73788,0.14366 -9.57183,-0.50057 -9.57183,-0.50057c0,0 1.1344,-2.20428 5.18496,-5.67917c4.0506,-3.47489 10.96319,-8.17396 10.96319,-8.17396l-17.44682,-2.08606c0,0 3.21502,-2.58192 8.11052,-5.10318c4.89554,-2.5213 12.89971,-5.71745 12.89971,-5.71745c0,0 -0.71957,-5.25432 -1.56325,-7.9496c-1.07547,-3.43592 -4.36454,-10.9889 -4.36454,-10.9889c0,0 7.37567,6.13103 10.24608,8.96392c2.25684,2.22726 5.58266,6.65752 5.58266,6.65752c0,0 8.01513,0.04642 14.35925,3.97946c0.85681,0.53118 4.35609,-1.91507 4.55661,-6.02978c0.15095,-3.09829 6.85205,1.04813 10.48033,0.78943c6.39655,-0.45607 9.82502,-2.42205 9.82502,-2.42205c0,0 6.2257,16.48151 1.16156,22.46366c-4.12353,4.87099 -14.88243,9.17115 -19.59453,10.90124z" fill="#1c0e4c" stroke-width="NaN"/><path d="M244.26333,267.01412c0,0 -11.33661,-5.14595 -12.24887,-15.308c-0.80103,-8.92299 8.18374,-12.72951 8.18374,-12.72951l2.91293,1.22961c0,0 -0.55682,3.93081 0.18294,7.6039c0.80176,3.98106 4.17869,7.08265 5.85737,8.21176c4.71562,3.17172 10.03736,5.74913 10.03736,5.74913c0,0 -4.55154,2.39223 -7.01077,3.2561c-2.51474,0.88338 -7.91478,1.98706 -7.91478,1.98706z" fill="#684af8" stroke-width="0"/><path d="M248.57347,233.97766c0,0 3.04406,0.85749 12.30668,0.69912c2.41953,-0.0414 7.26837,-1.75324 7.26837,-1.75324c0,0 1.0817,3.22092 1.59137,5.63234c0.58423,2.76434 1.22697,5.70762 1.04554,5.97746c-0.56068,0.83357 -9.77839,3.38148 -14.87507,-0.04656c-5.09668,-3.42804 -7.33682,-10.50907 -7.33682,-10.50907z" fill="#684af8" stroke-width="0"/></g><g stroke="none" stroke-width="0" stroke-linecap="butt"><path d="M268.77308,169.32754c-2.00171,-19.81911 19.86281,-9.75872 21.40468,-12.58053c6.6793,-12.22434 16.27239,-24.96794 27.73562,-19.08352c4.35787,2.23706 -4.97184,15.45804 -11.65115,27.68246c-5.05562,9.25275 -16.59339,18.82837 -22.59997,21.63551c-1.92905,0.90152 -13.01887,-6.74349 -14.88915,-17.65386z" fill="#09031a"/><path d="M291.68048,174.05548c0,0 -10.25124,-6.53994 -6.00105,-16.87169c0.04231,-0.10282 3.36716,-6.57622 6.7945,-10.24636c3.53556,-3.78601 6.78038,-3.04491 6.78038,-3.04491c0,0 -4.02511,8.67618 -4.4753,12.52602c-0.45018,3.84976 2.02739,8.40733 2.02739,8.40733z" fill="#b16e27"/><path d="M308.58096,158.55878c6.12228,-10.62374 9.65086,-20.78439 9.65086,-20.78439c0,0 9.74971,-3.62337 -3.33179,18.93079c-2.36647,4.08009 -8.80408,15.01167 -12.61093,19.58334c-6.08946,7.3128 -18.97277,11.72139 -19.71664,11.31493c-0.82191,-0.44908 7.27152,-6.38465 15.40853,-15.11947c3.83274,-4.1143 7.67512,-8.84962 10.60004,-13.92516z" fill="#a75c1e"/><path d="M293.01805,178.19741c-2.45827,-1.34319 -2.77322,-5.50305 -0.70335,-9.29122c2.06984,-3.78821 5.74066,-5.7703 8.199,-4.42707c2.45827,1.34319 2.77322,5.50305 0.70334,9.29126c-2.06988,3.78825 -5.74066,5.7703 -8.199,4.42707z" fill="#999999"/><path d="M295.38995,174.37665c-0.72541,-0.39636 -0.56782,-2.08229 0.35195,-3.76562c0.91978,-1.68338 2.25343,-2.72663 2.97888,-2.33031c0.72541,0.39636 0.56782,2.08229 -0.35196,3.76566c-0.91978,1.68338 -2.25343,2.72666 -2.97884,2.33035z" fill="#b16e27"/></g><g><path d="M230.01648,169.26744c-0.50031,10.23142 -21.60845,19.50591 -47.14622,20.7152c-13.63984,0.64591 -25.78469,-1.13961 -34.06415,-4.50239c-0.42431,-0.17233 -10.20301,-2.97494 -10.60666,-3.15544c-6.46746,-2.89189 -0.88289,-4.19145 -0.6635,-8.67818c0.21222,-4.34005 -4.71886,-4.66297 1.67471,-8.11601c1.04338,-0.56357 11.00413,-4.95305 12.17387,-5.47612c2.72397,-1.21812 5.77588,-2.32015 9.08824,-3.27655c7.09699,-2.04904 15.38896,-3.42882 24.2094,-3.84652c25.5378,-1.20927 45.8347,6.1046 45.33439,16.33607z" fill="#462fb6" stroke="none" stroke-width="0" stroke-linecap="butt"/><path d="M195.29767,188.75655c0,0 7.52929,-2.77451 7.95444,-18.03668c0.25753,-9.24626 -5.69273,-17.85666 -5.69273,-17.85666c0,0 4.88602,0.54478 7.80643,0.94203c4.24581,0.57757 7.47568,1.52518 7.47568,1.52518c0,0 4.93206,4.84294 5.59298,12.86543c0.58518,7.10373 -3.55037,15.27713 -3.55037,15.27713c0,0 -3.09007,1.88306 -8.22658,3.02423c-3.61471,0.80305 -11.35974,2.25923 -11.35974,2.25923z" fill="#0d0627" stroke="none" stroke-width="0" stroke-linecap="butt"/><path d="M171.48352,189.81865c0,0 4.82251,-2.81992 5.24757,-18.08195c0.25753,-9.24626 -4.11917,-17.2513 -4.11917,-17.2513c0,0 4.63647,-1.08612 7.13198,-1.28982c2.4956,-0.20373 5.91717,0.01753 5.91717,0.01753c0,0 4.64773,9.8209 5.30863,17.84334c0.58518,7.10373 -4.81674,18.69573 -4.81674,18.69573c0,0 -4.35689,0.40761 -7.12713,0.42017c-2.77019,0.01256 -7.54233,-0.35369 -7.54233,-0.35369z" fill="#0d0627" stroke="none" stroke-width="0" stroke-linecap="butt"/><path d="M149.82263,185.55009c0,0 4.32573,-1.22407 4.89378,-12.21287c0.25753,-9.24626 -2.42399,-13.61481 -2.42399,-13.61481c0,0 2.89296,-1.40565 4.64008,-1.97015c1.74712,-0.56446 6.77266,-1.56845 6.77266,-1.56845c0,0 3.14412,9.8026 3.04796,16.55255c-0.09619,6.74997 -3.51761,16.39436 -3.51761,16.39436c0,0 -3.48725,-0.72982 -6.61789,-1.23677c-2.7346,-0.44278 -6.79512,-2.3438 -6.79512,-2.3438z" fill="#0d0627" stroke="none" stroke-width="0" stroke-linecap="butt"/><path d="M137.35688,183.7632c0,0 -4.17555,5.31581 -7.71411,6.18216c-2.78994,0.68306 -5.18332,-2.70781 -5.04617,-3.45446c0.05761,-0.31364 -6.64513,3.36754 -9.09458,1.38119c-3.86829,-3.13703 -0.30927,-6.67667 -0.30927,-6.67667c0,0 -1.89489,-1.65333 -1.90811,-3.48132c-0.01321,-1.82805 0.79291,-3.92553 1.85287,-4.16744c0.5907,-0.13479 -1.46708,0.21916 -1.66101,-1.47088c-0.1939,-1.69001 1.00544,-4.24283 1.00544,-4.24283c0,0 -0.96372,-1.31493 -1.09032,-2.80271c-0.39773,-4.67603 6.21918,-2.33496 10.15529,-1.9412c6.03373,0.60352 10.10077,2.95377 10.6332,3.13858c1.12142,0.38919 4.91916,-5.42252 6.2245,-4.07959c1.56587,1.61106 5.67042,4.95795 5.233,8.34515c-0.18321,1.41841 -2.30742,3.00579 -3.44962,3.90817c-1.90266,1.5031 3.44554,-0.92774 3.86534,2.29422c0.41986,3.22195 -2.9341,7.91524 -2.9341,7.91524z" fill="#c08f5a" stroke="none" stroke-width="0" stroke-linecap="butt"/><path d="M124.22539,186.21138c0,0 1.11531,-2.37739 1.14433,-5.0032c0.02713,-2.45572 -1.04966,-5.15695 -0.57068,-5.54232c0.47514,-0.38233 1.50112,-5.48402 4.87091,-0.19331c1.1598,1.82097 0.75649,5.74895 0.75649,5.74895" fill="none" stroke="#b26a37" stroke-width="0.5" stroke-linecap="round"/><path d="M115.66361,181.04474l2.95849,-1.14716" fill="none" stroke="#b26a37" stroke-width="0.5" stroke-linecap="round"/><path d="M117.24173,172.45759l-1.61902,0.75926" fill="none" stroke="#b26a37" stroke-width="0.5" stroke-linecap="round"/><path d="M115.16833,167.63808l1.82354,-0.72169" fill="none" stroke="#b26a37" stroke-width="0.5" stroke-linecap="round"/><path d="M122.59175,165.19772c0,0 1.81961,1.35122 1.81752,2.4578c-0.00227,1.20857 -0.62052,3.68031 -0.62052,3.68031" fill="none" stroke="#b26a37" stroke-width="0.5" stroke-linecap="round"/><path d="M134.60059,166.55913c0,0 2.69561,5.24558 3.2423,8.09157c0.53318,2.77565 -0.00178,8.77877 -0.00178,8.77877" fill="none" stroke="#b26a37" stroke-width="1" stroke-linecap="round"/></g><g stroke="none" stroke-width="0" stroke-linecap="butt"><path d="M241.45373,259.21707c-17.71766,-2.94112 -51.7311,-29.9258 -49.3614,-58.23439c1.9542,-23.34498 27.74462,-43.07953 58.73764,-48.76152c33.95616,3.39297 51.95057,28.68833 49.3614,58.23439c-2.58917,29.54605 -14.35457,52.23347 -58.73763,48.76144z" fill="#684af8"/><path d="M204.03485,219.96216c0,0 0.32769,-8.45258 1.89828,-13.66888c1.5706,-5.2163 5.166,-9.79334 5.166,-9.79334c0,0 -3.94112,-7.5897 -3.72077,-12.77946c0.25346,-5.96957 2.43108,-8.3704 2.43108,-8.3704c0,0 -2.98399,-2.1135 -4.54034,-3.75744c-1.55635,-1.64394 -4.25342,-5.53123 -4.25342,-5.53123l12.70934,0.84823c0,0 -0.86549,-3.15379 -0.84535,-5.21581c0.02014,-2.06199 0.94134,-4.61441 0.94134,-4.61441c0,0 1.4828,1.29615 4.10529,3.16173c1.64783,1.17224 3.46401,1.84618 3.46401,1.84618l2.15389,-0.56208l-2.40238,-5.9318c0,0 2.27547,-0.06941 4.60658,1.03726c1.66469,0.79026 3.59336,2.42745 3.59336,2.42745c0,0 6.04304,-8.02819 26.50961,-4.98531c14.35861,2.13478 23.80892,6.23481 33.29753,22.2122c3.67844,6.19399 10.21425,26.12581 -1.35534,32.02843c-14.65942,7.47905 -44.45871,-2.69091 -49.54259,0.70482c-6.02183,4.02218 -7.94969,12.20235 -7.94969,12.20235c0,0 -1.70545,-2.65904 -2.19053,-4.1986c-0.79988,-2.53861 -0.73713,-3.52799 -0.73713,-3.52799c0,0 -3.29301,2.29058 -6.9912,6.70375c-2.73503,3.26383 -3.9993,4.47634 -3.9993,4.47634c0,0 -1.08655,-2.87192 -1.12632,-4.59567c-0.12879,-5.57781 1.37435,-7.86469 1.37435,-7.86469c0,0 -4.86691,2.61322 -7.87642,4.46455c-3.00954,1.85125 -4.7199,3.28395 -4.7199,3.28395z" fill="#ffffff"/></g><g data-paper-data="{&quot;index&quot;:null}" stroke="none" stroke-width="0" stroke-linecap="butt"><path d="M336.13269,251.37539c6.51055,11.76312 -4.2036,17.49492 -10.64009,20.5536c-1.60721,0.76378 -12.58075,2.82067 -17.40421,0.44953c-10.73683,-5.27806 -18.7231,-19.32263 -21.46587,-25.09448c-1.49336,-3.14262 -11.2479,-3.59006 -7.77341,-8.56906c3.67522,-5.26669 20.71091,-15.02833 23.59915,-16.69996c1.64919,-0.95454 -3.32581,8.43482 -2.14934,7.87576c2.24067,-1.06477 14.71245,10.16745 19.86328,13.04657c6.7682,3.78319 13.42397,3.83686 15.97056,8.43807z" fill="#1c0e4c"/><path d="M321.83572,242.18044c0,0 -5.01621,0.49193 -13.15265,4.86927c-8.13644,4.37731 -13.42082,18.25378 -13.42082,18.25378c0,0 -18.02149,-12.85749 6.16374,-27.32581c12.2349,-7.31929 20.40981,4.20268 20.40981,4.20268z" fill="#f0993f"/><path d="M321.58145,240.66418c2.11563,2.42032 3.1299,4.99495 2.26547,5.75052c-0.8645,0.75557 -3.28024,-0.59407 -5.39586,-3.01439c-2.11563,-2.42032 -3.1299,-4.99495 -2.26547,-5.75052c0.86446,-0.75557 3.28024,0.59407 5.39586,3.01439z" fill="#c3c3c3"/><path d="M294.09925,262.08137c-0.69253,-0.78952 2.39574,-0.88627 2.39574,-0.88627c0,0 5.09588,6.95586 11.84583,10.32289c5.45901,2.723 12.14381,2.32957 16.96049,0.04068c10.90956,-5.18424 12.86004,-14.39682 12.86004,-14.39682c0,0 11.13862,8.01264 -8.82989,17.45316c-22.63795,10.70257 -25.18689,-1.08169 -35.2321,-12.53356z" fill="#f0993f"/><g><path d="M289.18721,262.2062c-2.08934,-4.39671 -2.10182,-8.75993 -0.02792,-9.74544c2.07394,-0.98554 5.44891,1.77977 7.53824,6.17651c2.08934,4.39663 2.10186,8.75986 0.02793,9.74536c-2.07389,0.98551 -5.44891,-1.77977 -7.53824,-6.17647z" fill="#c3c3c3"/><path d="M291.66499,255.87315c0.76304,-0.36262 2.00475,0.65485 2.7735,2.2725c0.76867,1.61764 0.77329,3.22297 0.01021,3.58558c-0.76304,0.36262 -2.00472,-0.65481 -2.77347,-2.27246c-0.76871,-1.61768 -0.77333,-3.22293 -0.01029,-3.58555z" fill="#dd6c23"/></g></g><g stroke="none" stroke-width="0" stroke-linecap="butt"><path d="M266.941,170.46461c-2.46679,-11.24358 -9.65452,-17.22717 -9.65452,-17.22717c0,0 11.1412,-0.30968 15.90605,3.69618c1.23981,1.0423 4.71445,4.49411 6.65386,9.22848c3.13617,7.65568 4.64356,18.36094 4.64356,18.36094c0,0 -7.4745,-1.77725 -7.86248,-1.78176c-2.51278,-0.02938 -7.17853,0.77673 -7.17853,0.77673c0,0 -0.74636,-5.02447 -2.50794,-13.0534z" fill="#f0993f"/><path d="M275.56439,179.52861c-1.38092,-0.12101 -2.42471,-1.08269 -2.33136,-2.14795c0.09335,-1.06527 1.28849,-1.83074 2.66941,-1.70973c1.38092,0.12101 2.42467,1.08268 2.33132,2.14795c-0.09335,1.06527 -1.28849,1.83074 -2.66937,1.70973z" fill="#a94a00"/><path d="M275.53607,179.4111c-0.79488,-0.06966 -1.39568,-0.62321 -1.34194,-1.23642c0.05373,-0.61318 0.74165,-1.0538 1.53653,-0.98414c0.79488,0.06966 1.39568,0.62321 1.34194,1.23639c-0.05373,0.61318 -0.74166,1.05384 -1.53653,0.98418z" fill="#ffffff"/><path d="M273.35179,170.48681c-1.38092,-0.12101 -2.42471,-1.08269 -2.33136,-2.14795c0.09335,-1.06527 1.28849,-1.83078 2.66941,-1.70977c1.38092,0.12101 2.4247,1.08272 2.33135,2.14799c-0.09335,1.06527 -1.28849,1.83074 -2.66941,1.70973z" fill="#a94a00"/><path d="M273.3262,170.42457c-0.79488,-0.06966 -1.39568,-0.62321 -1.34194,-1.23639c0.05373,-0.61318 0.74166,-1.05384 1.53653,-0.98418c0.79488,0.06966 1.39568,0.62321 1.34194,1.23642c-0.05373,0.61318 -0.74165,1.0538 -1.53653,0.98414z" fill="#ffffff"/></g><g stroke="none" stroke-width="0" stroke-linecap="butt"><path d="M268.97006,211.96811c4.28573,-0.06238 14.84901,-0.53511 14.84901,-0.53511c0,0 -0.12949,10.26866 -1.25474,16.71046c-1.12525,6.4418 -1.29771,9.92293 -3.53534,15.8563c-2.23763,5.93337 -5.94005,11.1633 -7.10405,12.35541c-2.45934,2.51873 -15.5086,2.9814 -15.5086,2.9814c0,0 4.82273,-12.89413 8.2878,-26.55536c2.40769,-9.49247 3.59614,-20.80342 4.26591,-20.81314z" fill="#f0993f"/><g><g><path d="M293.32882,230.69011c-5.28175,-1.57775 -23.31778,-18.47561 -23.07724,-21.22051c0.1603,-1.82919 5.90817,-1.78333 14.00324,-2.80981c2.01687,-0.25575 3.71532,1.71157 7.02433,3.60054c3.33981,1.90656 8.28478,3.73807 9.11091,4.14578c1.84085,0.9085 5.43436,12.99681 5.43436,12.99681c0,0 -9.59617,4.15332 -12.49564,3.28719z" fill="#f0993f"/><g><path d="M277.63079,213.52393c-8.72145,1.18826 -16.75485,-4.91854 -17.94315,-13.63999c-1.18826,-8.72145 4.91854,-16.75485 13.63999,-17.94315c8.72145,-1.18826 16.75485,4.91854 17.94315,13.63999c1.18826,8.72145 -4.91854,16.75485 -13.63999,17.94311z" fill="#fde02b"/><path d="M275.87371,204.34484c-4.05003,0.55179 -7.78058,-2.28406 -8.33237,-6.33409c-0.55179,-4.05003 2.28406,-7.78058 6.33413,-8.33237c4.05003,-0.55179 7.78055,2.28405 8.33237,6.33409c0.55179,4.05003 -2.28406,7.78058 -6.33409,8.33237z" fill="#f4a51d"/><path d="M275.01328,195.10914c1.69769,-0.23134 3.46941,2.48331 3.95717,6.06328c0.4878,3.57994 -0.49309,6.66957 -2.19082,6.9009c-1.69769,0.23134 -3.46941,-2.48331 -3.95713,-6.06328c-0.4878,-3.57994 0.4931,-6.6696 2.19082,-6.9009z" fill="#fffed5"/></g></g><g><path d="M293.35657,223.88513c-1.50969,-0.1323 -2.62628,-1.46338 -2.49398,-2.97307c0.1323,-1.50969 1.46338,-2.62628 2.97307,-2.49398c1.50969,0.1323 2.62632,1.46339 2.49402,2.97307c-0.1323,1.50969 -1.46342,2.62628 -2.97311,2.49398z" fill="#934200"/><path d="M292.95693,223.68316c-0.73198,-0.06414 -1.27336,-0.70952 -1.20922,-1.44146c0.06414,-0.73198 0.70951,-1.27332 1.4415,-1.20917c0.73198,0.06414 1.27332,0.70951 1.20918,1.44146c-0.06414,0.73198 -0.70951,1.27332 -1.44146,1.20918z" fill="#1c0e4c"/></g><g><path d="M286.17127,218.24722c-1.50969,-0.1323 -2.62628,-1.46338 -2.49398,-2.97307c0.1323,-1.50969 1.46339,-2.62632 2.97307,-2.49402c1.50969,0.1323 2.62628,1.46342 2.49398,2.97311c-0.1323,1.50969 -1.46338,2.62628 -2.97307,2.49398z" fill="#934200"/><path d="M285.77163,218.04529c-0.73198,-0.06414 -1.27332,-0.70951 -1.20918,-1.44146c0.06414,-0.73198 0.70952,-1.27336 1.44146,-1.20922c0.73198,0.06414 1.27332,0.70951 1.20917,1.4415c-0.06414,0.73198 -0.70951,1.27332 -1.44146,1.20918z" fill="#684af8"/></g></g></g><g stroke="none" stroke-width="0" stroke-linecap="butt"><path d="M176.83735,212.36496c1.52432,0.40366 8.41247,10.03278 8.41247,10.03278c0,0 -14.29606,10.75078 -24.98029,24.22659c-8.86782,10.24574 -18.89437,28.56776 -19.39158,27.52112c-1.29995,-2.73637 8.18723,-29.85235 15.45478,-41.77349c8.50346,-13.94842 17.0483,-20.92228 20.50467,-20.00704z" data-paper-data="{&quot;index&quot;:null}" fill="#ffffff"/><path d="M155.51037,229.18142c2.03711,-0.82463 5.37428,-1.68213 5.37428,-1.68213c0,0 -7.65112,13.0495 -12.88053,23.67391c-5.10332,10.36827 -7.50364,24.21205 -7.88745,23.08255c-1.15423,-3.39641 0.40937,-12.9152 3.46579,-24.45749c3.05642,-11.54229 6.82251,-19.26776 6.82251,-19.26776c0,0 3.06825,-0.52441 5.10543,-1.34904z" fill="#1a0c47"/><path d="M173.90025,209.69009c0.17556,0.42522 2.02818,2.65105 4.285,4.96015c3.5176,3.59921 7.94114,7.6881 7.94114,7.6881c0,0 -9.0015,5.29069 -12.77314,7.21344c-3.77164,1.92279 -11.69506,8.97087 -11.99819,8.29469c-0.2617,-0.58364 1.41794,-9.87878 3.21224,-14.53558c2.82337,-7.32764 8.99292,-14.44458 9.33299,-13.62083z" data-paper-data="{&quot;index&quot;:null}" fill="#e8e8e8"/><path d="M175.66788,196.98153c0,0 -0.87999,5.097 -0.73126,8.59573c0.14873,3.49869 1.52191,7.09684 1.52191,7.09684c0,0 -6.12833,3.90028 -8.82392,6.37389c-2.69559,2.47365 -7.24528,9.08489 -7.24528,9.08489l-10.33491,3.85646c0,0 2.77419,-9.87784 9.60433,-18.67445c4.48649,-5.77818 16.0092,-16.33335 16.0092,-16.33335z" data-paper-data="{&quot;index&quot;:null}" fill="#684af8"/></g><g stroke="none" stroke-width="0" stroke-linecap="butt"><path d="M121.67756,186.55779c1.08342,-1.67897 15.15716,7.44187 20.00303,8.61924c10.71651,2.60367 14.4663,3.39713 14.4663,3.39713l-9.78639,6.22013c0,0 -8.38451,-3.71933 -14.4341,-8.00321c-6.55281,-4.64024 -10.42154,-9.96573 -10.24892,-10.23325z" fill="#1a0c47"/><path d="M156.20232,198.93985c-13.79786,-2.13284 -33.43015,-9.98263 -34.31205,-12.8809c-0.33738,-1.1086 20.54089,3.93619 29.30255,3.9935c13.92072,0.09108 25.7195,-4.69446 23.78091,-1.69014c-1.93859,3.00432 -4.97359,12.71038 -18.77142,10.57756z" fill="#ffffff"/><path d="M158.41374,198.8587c-0.23126,-0.70398 4.46777,-2.87969 8.64055,-5.2062c4.33487,-2.41695 7.98364,-5.36669 7.98364,-5.36669c0,0 -1.2183,8.12034 -0.81751,9.22718c0.52115,1.43936 -15.32893,2.79998 -15.80672,1.34567z" fill="#e8e8e8"/><path d="M179.37665,209.60539c0,0 -7.34204,2.04213 -14.55681,0.8328c-7.21484,-1.20937 -18.44319,-3.42039 -19.43971,-6.93627c-0.20797,-0.73364 3.9652,-3.29357 8.10135,-4.2505c4.07746,-0.94332 8.10012,-0.28522 10.45456,-0.80093c4.91917,-1.07761 10.06596,-1.21975 10.06596,-1.21975c0,0 0.65345,3.13774 1.90015,5.92251c1.24679,2.78478 3.47447,6.45211 3.47447,6.45211z" fill="#684af8"/></g><path d="M203.15539,250.11118c-1.71561,0.4727 -4.46293,-3.28517 -5.95719,-8.70872c-1.49429,-5.42359 -1.4377,-9.52268 -1.4377,-9.52268c0,0 8.39411,-16.12405 11.05681,-15.05835c1.6853,0.67451 10.84836,12.65015 11.39067,15.75119c0.06002,0.34326 5.13216,3.56733 5.13216,3.56733c0,0 -2.20788,1.53278 -4.964,1.50146c-2.27781,-0.02582 -5.38281,-1.05817 -4.85343,-0.66909c2.98045,2.1908 6.22579,4.1533 6.22579,4.1533c0,0 -2.04682,1.04691 -4.50752,0.64618c-2.00598,-0.32665 -4.35151,-1.48512 -4.26065,-1.14451c0.46281,1.73459 1.38063,4.38813 1.38063,4.38813c0,0 -3.54839,0.19756 -5.06761,-0.33771c-1.51922,-0.53524 -3.21989,-2.58208 -3.21989,-2.58208c0,0 -0.38598,2.64089 -0.38311,4.55965c0.00239,1.61048 0.24781,3.24014 -0.53505,3.45585z" fill="#5133c8" stroke="none" stroke-width="NaN" stroke-linecap="butt"/><g><path d="M186.00748,247.16169c-1.77275,-0.15535 -3.03696,-4.63542 -2.54586,-10.23956c0.4911,-5.60417 1.97374,-9.42616 1.97374,-9.42616c0,0 13.49057,-12.18405 15.6144,-10.2566c1.34423,1.21993 5.75526,15.63938 5.18196,18.73485c-0.06344,0.34263 3.56576,5.13328 3.56576,5.13328c0,0 -2.60383,0.66648 -5.17598,-0.3241c-2.12577,-0.81863 -4.67576,-2.86907 -4.31533,-2.31977c2.02924,3.09271 4.38633,6.06386 4.38633,6.06386c0,0 -2.28342,0.26731 -4.44984,-0.96646c-1.7661,-1.00578 -3.56031,-2.90953 -3.59395,-2.5586c-0.17122,1.78709 -0.23649,4.59411 -0.23649,4.59411c0,0 -3.39447,-1.05241 -4.63162,-2.08391c-1.23714,-1.0315 -2.11716,-3.54294 -2.11716,-3.54294c0,0 -1.28282,2.34045 -1.94931,4.13974c-0.55944,1.51017 -0.8978,3.12313 -1.70673,3.05225z" fill="#5133c8" stroke="none" stroke-width="NaN" stroke-linecap="butt"/><path d="M194.0794,230.39636c-7.74793,2.13466 -17.14373,-7.44055 -20.98615,-21.3868c-3.84242,-13.94625 -0.65902,-26.92039 7.07154,-29.11711c9.97047,-2.83325 17.14374,7.44051 20.98615,21.38676c3.84242,13.94625 0.67639,26.98245 -7.07155,29.11715z" fill="#684af8" stroke="none" stroke-width="0" stroke-linecap="butt"/><path d="M183.26317,193.48569c0.59442,1.72789 -3.80698,6.88741 -5.30385,10.70596c-2.41946,6.17214 -3.43339,8.84354 -3.43339,8.84354c0,0 -1.3551,-3.29279 -2.46296,-7.40878c-1.37802,-5.11974 -0.67314,-6.71312 -0.67314,-6.71312c0,0 10.79028,-8.57629 11.87342,-5.42755z" fill="#1c0e4c" stroke="none" stroke-width="0" stroke-linecap="butt"/><path d="M180.97314,181.7635c3.71578,-2.00152 8.88993,-2.13484 10.2268,0.28146c1.33692,2.41631 -1.66965,6.46728 -5.38543,8.46881c-3.71578,2.00152 -7.81175,1.66532 -9.14867,-0.75099c-1.33692,-2.41631 0.59154,-5.99767 4.30725,-7.99924z" fill="#1c0e4c" stroke="none" stroke-width="0" stroke-linecap="butt"/><path d="M182.87153,199.8598c3.88599,-5.82646 10.25652,-8.40182 14.22906,-5.75232c3.97255,2.6495 4.04276,9.5206 0.15686,15.34703c-3.88599,5.82646 -10.25652,8.40182 -14.22906,5.75232c-3.97255,-2.6495 -4.0428,-9.52065 -0.15686,-15.34703z" fill="#1c0e4c" stroke="none" stroke-width="0" stroke-linecap="butt"/><path d="M194.26012,235.93631c-1.03031,-7.4836 1.25976,-7.16447 1.25976,-7.16447c0,0 -2.60343,3.51972 -3.75269,5.12642c-1.2883,1.80095 -3.60776,5.16304 -3.60776,5.16304c0,0 -1.64995,-3.8896 2.28909,-11.14863c2.01777,-3.71845 4.49974,-7.20335 4.49974,-7.20335c0,0 -0.28695,-1.0231 0.47417,-6.87493c0.76112,-5.85183 3.62762,-9.6263 2.31585,-15.20003c-1.04207,-3.51249 -6.27845,-7.42176 -7.04627,-10.03608c-0.46286,-1.57599 -0.96257,-4.49917 0.26686,-5.19822c0.11098,-0.06311 -0.21057,-0.84462 -2.16958,-1.77694c-1.15086,-0.54768 -3.09489,-1.24598 -4.28057,-1.88178c-2.3203,-1.24417 -4.12224,-2.68919 -4.12224,-2.68919l6.23124,-0.38249c0,0 -0.64668,-0.56319 -1.07215,-1.3783c-0.42547,-0.81515 -0.8034,-2.21492 -0.8034,-2.21492l5.89055,1.82577l2.45584,-2.06098c0,0 0.94038,2.64106 0.74194,3.53283c-0.1984,0.89177 -0.54509,1.07829 -0.54509,1.07829c0,0 1.7578,1.14742 3.01632,2.4866c1.25848,1.33917 2.09873,4.27197 2.09873,4.27197c0,0 1.21815,1.1297 1.61858,2.49217c10.75074,28.92192 3.34995,36.71345 3.34995,36.71345c0,0 0.92758,3.52268 1.89164,7.37114c0.9641,3.84842 2.82941,9.76416 2.82941,9.76416c0,0 -3.86191,-2.85705 -5.32562,-4.72653c-1.46367,-1.86948 -2.65926,-5.47195 -2.65926,-5.47195c0,0 -0.91671,2.52878 -1.60736,5.86139c-0.69068,3.33257 -2.29081,8.68923 -1.35478,8.43134c0.36027,-0.09926 -1.85274,-1.22612 -2.88305,-8.70971z" fill="#ffffff" stroke="none" stroke-width="0" stroke-linecap="butt"/><path d="M193.53902,187.32156c-0.63952,0.1762 -1.14819,-0.55006 -1.50059,-1.82907c-0.3524,-1.27904 -0.28744,-2.16332 0.35208,-2.33952c0.63952,-0.1762 1.82508,0.94496 2.02859,1.68359c0.18224,0.66143 -0.24063,2.30879 -0.88011,2.48499z" fill="#000000" stroke="none" stroke-width="0" stroke-linecap="butt"/><path d="M201.8551,196.60853c0,0 -1.88393,-1.96292 -2.76812,-3.779c-0.58262,-1.19677 -0.2912,-3.26144 -0.89507,-5.50064c-0.4923,-1.82551 -3.59013,-3.66371 -4.21528,-5.18751c-0.7799,-1.90113 0.25568,-5.03111 0.25568,-5.03111" data-paper-data="{&quot;index&quot;:null}" fill="none" stroke="#000000" stroke-width="0.5" stroke-linecap="round"/><path d="M192.04384,195.87615l-7.33333,14.33333" fill="none" stroke="#000000" stroke-width="3" stroke-linecap="round"/><path d="M194.37717,204.20949l-11.33333,-4.66667" fill="none" stroke="#000000" stroke-width="3" stroke-linecap="round"/><path d="M185.04383,187.20948l-4.33333,-2.33333" fill="none" stroke="#000000" stroke-width="1.5" stroke-linecap="round"/><path d="M184.04384,183.54282l-2.66667,4.33333" fill="none" stroke="#000000" stroke-width="1.5" stroke-linecap="round"/></g><g><g data-paper-data="{&quot;index&quot;:null}" stroke="none" stroke-width="0" stroke-linecap="butt"><path d="M211.76782,220.22736c10.0811,1.81731 16.55246,23.94625 14.45394,49.42646c-1.1208,13.60907 -4.45966,25.42161 -8.86336,33.19765c-0.22571,0.39852 -4.2675,9.73348 -4.49863,10.11037c-3.70281,6.03993 -4.2704,0.33426 -8.69125,-0.46266c-4.27629,-0.77088 -5.23316,4.07725 -7.83188,-2.70872c-0.42413,-1.10741 -3.49063,-11.5515 -3.85829,-12.77904c-0.85619,-2.85839 -1.55496,-6.02724 -2.07558,-9.43526c-1.11544,-7.30216 -1.41294,-15.70288 -0.68814,-24.5034c2.09849,-25.48018 11.97208,-44.66274 22.05319,-42.8454z" fill="#684af8"/><path d="M226.61065,257.17211c0,0 -1.77909,-7.82455 -16.85849,-10.21682c-9.13554,-1.44937 -18.44215,3.33927 -18.44215,3.33927c0,0 1.17123,-4.77476 1.94216,-7.61943c1.12093,-4.13565 2.47775,-7.21611 2.47775,-7.21611c0,0 5.43922,-4.2654 13.47989,-3.88483c7.1199,0.33698 14.69083,5.49335 14.69083,5.49335c0,0 1.46826,3.30732 1.9366,8.54817c0.32957,3.68815 0.7735,11.5564 0.7735,11.5564z" fill="#1c0e4c"/><path d="M224.58879,280.92396c0,0 -2.17355,-5.14619 -17.253,-7.53852c-9.13554,-1.44937 -17.63877,1.85708 -17.63877,1.85708c0,0 -0.47826,-4.73791 -0.35812,-7.2389c0.12023,-2.50096 0.78143,-5.86545 0.78143,-5.86545c0,0 10.33881,-3.34065 18.3794,-2.96011c7.1199,0.33698 17.91732,7.19051 17.91732,7.19051c0,0 -0.15848,4.37309 -0.50368,7.12168c-0.3453,2.74864 -1.32465,7.43355 -1.32465,7.43355z" fill="#1c0e4c"/><path d="M217.55898,301.8524c0,0 -0.65523,-4.44761 -11.47867,-6.42991c-9.13554,-1.44937 -13.8139,0.64564 -13.8139,0.64564c0,0 -1.02032,-3.05025 -1.35445,-4.85573c-0.33418,-1.80542 -0.6808,-6.91853 -0.6808,-6.91853c0,0 10.12654,-1.85203 16.80756,-0.88498c6.681,0.96703 15.80289,5.60509 15.80289,5.60509c0,0 -1.17401,3.36382 -2.08092,6.40271c-0.7922,2.65452 -3.20159,6.43558 -3.20159,6.43558z" fill="#1c0e4c"/></g><g><path d="M218.87159,331.10176c-0.14774,1.39884 -2.38666,1.86109 -3.50323,1.10195c-1.11657,-0.75909 -0.39096,-4.68694 -1.216,-4.3101c-0.95331,0.43549 0.01627,4.9921 -0.23393,4.88186c-0.29186,-0.12859 1.16482,2.95233 -1.33371,4.87656c-3.94586,3.03895 -6.56747,-1.24176 -6.56747,-1.24176c0,0 -2.04638,1.46172 -3.82799,1.05215c-1.78156,-0.40951 -3.63613,-1.67841 -3.62657,-2.76565c0.0053,-0.60583 -0.1257,1.47803 -1.81488,1.27622c-1.68907,-0.20182 -3.89576,-1.95848 -3.89576,-1.95848c0,0 -1.50199,0.63388 -2.97874,0.41324c-4.64144,-0.69343 -0.8349,-6.59034 0.45762,-10.32904c1.9812,-5.73101 5.20762,-9.14504 5.51038,-9.62038c0.63783,-1.00116 -4.13935,-6.03884 -2.5311,-6.99858c1.92918,-1.15123 6.13392,-4.37147 9.32836,-3.16332c1.33773,0.50596 2.39138,2.93951 3.00539,4.25932c1.02286,2.19842 -0.10657,-3.56663 3.1252,-3.23071c3.23177,0.33593 7.0231,4.68345 7.0231,4.68345l-2.15599,5.41056c0,0 6.35945,5.0182 5.2351,15.66258z" fill="#ffc281" stroke="none" stroke-width="0" stroke-linecap="butt"/><path d="M205.97953,335.91755l-0.43264,-3.14349" fill="none" stroke="#d9874c" stroke-width="0.5" stroke-linecap="round"/><path d="M198.35396,334.14889l-0.36467,-1.75066" fill="none" stroke="#d9874c" stroke-width="0.5" stroke-linecap="round"/><path d="M192.82102,333.30177l-0.28089,-1.94094" fill="none" stroke="#d9874c" stroke-width="0.5" stroke-linecap="round"/><path d="M196.26098,314.14613c0,0 5.72638,-1.41075 8.62174,-1.28508c2.82372,0.12253 8.54085,2.03002 8.54085,2.03002" fill="none" stroke="#d9874c" stroke-width="1" stroke-linecap="round"/></g></g></g></g></svg>