<svg version="1.1" xmlns="http://www.w3.org/2000/svg" xmlns:xlink="http://www.w3.org/1999/xlink" width="120.19737" height="22.14348" viewBox="0,0,120.19737,22.14348"><g transform="translate(-179.90131,-169.67826)"><g data-paper-data="{&quot;isPaintingLayer&quot;:true}" fill-rule="nonzero" stroke="none" stroke-width="0.26459" stroke-linecap="butt" stroke-linejoin="miter" stroke-miterlimit="4" stroke-dasharray="" stroke-dashoffset="0" style="mix-blend-mode: normal"><g><g fill="#ff0000"><path d="M181.97727,191.47577c-0.86499,-0.17299 -1.55694,-0.34599 -2.07595,-0.519l1.03798,-5.18989l3.11394,0.2595c2.42197,0.17299 4.3249,0.17299 5.70885,0c0.692,-0.34599 1.03798,-0.86494 1.03798,-1.55694c-0.17299,-0.692 -1.72994,-1.03799 -4.67088,-1.03799c-2.59493,-0.34601 -4.41141,-1.29749 -5.44939,-2.85443c-0.51898,-1.21096 -0.77847,-2.59496 -0.77847,-4.1519c0,-2.42196 0.865,-4.23838 2.59494,-5.44934c1.21096,-0.86499 3.37339,-1.29749 6.48734,-1.29749c3.11394,0 6.22786,0.25951 9.34177,0.77849l-1.03799,4.93039c-3.6329,-0.17299 -6.14135,-0.2595 -7.5253,-0.2595c-1.21096,0.17299 -1.81645,0.60549 -1.81645,1.29746c-0.17299,1.21096 0.77848,1.81645 2.85443,1.81645c2.94094,0 5.10339,0.51898 6.48734,1.55694c1.03798,0.86499 1.55695,2.33546 1.55695,4.41141c0,1.79913 -0.4325,3.35612 -1.29747,4.67088c-0.86499,1.55697 -3.02743,2.50844 -6.48734,2.85443c-2.94094,0.17299 -5.96835,0.0866 -9.08224,-0.2595z"/><path d="M201.43925,191.47577v-21.79748h7.26582v10.12026l4.41138,-10.12026h7.7848l-5.44934,10.89874l5.44934,10.89874h-7.7848l-4.41138,-10.12025v10.12025z"/><path d="M223.49621,191.47577v-21.79748h9.08229v21.79748z"/><path d="M235.17341,191.47577v-21.79748h12.71519c5.18989,0 7.7848,1.90296 7.7848,5.70887v1.03799c0,4.1519 -2.59495,6.22786 -7.7848,6.22786h-5.18989v8.82279zM245.81265,178.50107c1.38395,0 2.07595,-0.692 2.07595,-2.07595v-1.03798c0,-1.03798 -0.692,-1.55695 -2.07595,-1.55695h-3.11394v4.67088z"/><path d="M271.55442,187.32386v-3.37344l8.04431,-3.11394l-8.04431,-3.11394v-3.3734l12.97469,5.44934v2.33546z"/><path d="M287.12402,187.32386v-3.37344l8.0443,-3.11394l-8.0443,-3.11394v-3.3734l12.97467,5.44934v2.33546z"/></g><g fill="#71ff33"><path d="M186.20071,191.46082c-0.80202,-0.1604 -1.44362,-0.3208 -1.92484,-0.48123l0.96242,-4.8121l2.88727,0.2406c2.24567,0.1604 4.01008,0.1604 5.2933,0c0.64162,-0.3208 0.96242,-0.802 0.96242,-1.44362c-0.1604,-0.64162 -1.60402,-0.96242 -4.33088,-0.96242c-2.40604,-0.32082 -4.0903,-1.20305 -5.05272,-2.64667c-0.4812,-1.12282 -0.7218,-2.40606 -0.7218,-3.84968c0,-2.24567 0.80202,-3.92988 2.40604,-5.0527c1.12282,-0.80202 3.12787,-1.20305 6.01513,-1.20305c2.88726,0 5.77452,0.2406 8.66178,0.72182l-0.96242,4.57151c-3.36846,-0.1604 -5.69432,-0.2406 -6.97754,-0.2406c-1.12282,0.1604 -1.68424,0.5614 -1.68424,1.20302c-0.1604,1.12282 0.72182,1.68424 2.64666,1.68424c2.72686,0 4.7319,0.4812 6.01512,1.44362c0.96242,0.80202 1.44362,2.16547 1.44362,4.09031c0,1.66818 -0.401,3.11182 -1.20302,4.33088c-0.80202,1.44364 -2.80706,2.32586 -6.01512,2.64666c-2.72686,0.1604 -5.53392,0.08032 -8.42116,-0.24059z"/><path d="M204.24608,191.46082v-20.21086h6.73694v9.3836l4.09028,-9.3836h7.21814l-5.05271,10.10542l5.05271,10.10543h-7.21814l-4.09028,-9.38361v9.38361z"/><path d="M224.69753,191.46082v-20.21086h8.42118v20.21086z"/><path d="M235.52475,191.46082v-20.21086h11.78964c4.8121,0 7.21816,1.76444 7.21816,5.29333v0.96242c0,3.84968 -2.40607,5.77453 -7.21816,5.77453h-4.81211v8.18059zM245.38955,179.43055c1.28322,0 1.92484,-0.64162 1.92484,-1.92484v-0.96242c0,-0.96242 -0.64162,-1.44362 -1.92484,-1.44362h-2.88726v4.33088z"/><path d="M269.25761,187.61114v-3.12788l7.45876,-2.88727l-7.45876,-2.88726v-3.12786l12.03027,5.0527v2.16547z"/><path d="M283.69392,187.61114v-3.12788l7.45876,-2.88727l-7.45876,-2.88726v-3.12786l12.03024,5.0527v2.16547z"/></g></g></g></g></svg>