<svg version="1.1" xmlns="http://www.w3.org/2000/svg" xmlns:xlink="http://www.w3.org/1999/xlink" width="39.66881" height="35.34957" viewBox="0,0,39.66881,35.34957"><g transform="translate(-218.00757,-161.67147)"><g data-paper-data="{&quot;isPaintingLayer&quot;:true}" fill-rule="nonzero" stroke-linejoin="miter" stroke-miterlimit="10" stroke-dasharray="" stroke-dashoffset="0" style="mix-blend-mode: normal"><g data-paper-data="{&quot;index&quot;:null}"><path d="M243.0931,163.53052l-1.49548,0.87699l-1.40417,-1.03915z" fill="#b96a37" stroke="none" stroke-width="0" stroke-linecap="butt"/><path d="M241.6884,164.44377l-0.95469,1.82009l-0.5075,-2.97459z" fill="#ebb9a2" stroke="none" stroke-width="0" stroke-linecap="butt"/><path d="M248.49762,167.14261l-0.20849,-1.72107l1.51259,-0.87383z" fill="#b96a37" stroke="none" stroke-width="0" stroke-linecap="butt"/><path d="M248.21972,165.49035l-1.28898,-1.60084l2.93049,0.71975z" fill="#ebb9a2" stroke="none" stroke-width="0" stroke-linecap="butt"/><path d="M241.40653,176.25793l1.22795,-3.40842l2.82393,0.58935l-3.24516,5.64834z" data-paper-data="{&quot;index&quot;:null}" fill="#ff3200" stroke="none" stroke-width="0" stroke-linecap="butt"/><path d="M241.70906,175.26785l0.39023,-0.94773l2.45044,0.61999l-0.37598,0.70373z" fill="#caa487" stroke="none" stroke-width="0" stroke-linecap="butt"/><path d="M241.42304,176.27925l0.15747,-0.65792l2.58683,0.06021l-0.29605,0.54904z" fill="#caa487" stroke="none" stroke-width="0" stroke-linecap="butt"/><path d="M241.70428,177.373l-0.1496,-0.4748l2.16917,-0.45743l-0.31165,0.56704z" fill="#caa487" stroke="none" stroke-width="0" stroke-linecap="butt"/><path d="M241.9148,177.97838l-0.13526,-0.39267l1.29229,0.04467l-0.23377,0.37298z" fill="#caa487" stroke="none" stroke-width="0" stroke-linecap="butt"/><path d="M242.74775,171.02257c0,0 -1.58458,-2.61623 -2.08733,-4.11804c-0.50276,-1.5018 0.32344,-3.28231 2.54678,-4.55774c2.69445,-1.54566 5.53899,-0.08719 5.73612,0.89046c0.19712,0.97767 -0.52144,3.11481 -0.52144,3.11481l0.65125,2.25755l-1.03133,2.3854l-1.02186,1.91215c0,0 -1.02981,0.80026 -2.05767,0.77657c-1.02788,-0.02368 -2.33818,-0.71247 -2.33818,-0.71247l0.12366,-1.94865z" data-paper-data="{&quot;index&quot;:null}" fill="#906d5f" stroke="none" stroke-width="0" stroke-linecap="butt"/><path d="M245.04765,165.40174c-1.99142,0.01072 -4.19694,0.95262 -4.46275,0.15862c0.77344,-1.13177 0.39894,-1.93814 2.62228,-3.21356c2.69445,-1.54566 5.53899,-0.08719 5.73612,0.89046c0.19712,0.97767 -0.52144,3.11481 -0.52144,3.11481c0,0 -1.59893,-0.95988 -3.37422,-0.95032z" data-paper-data="{&quot;index&quot;:null}" fill="#a38273" stroke="none" stroke-width="0" stroke-linecap="butt"/><path d="M246.30393,168.59768c0,0 0.24933,-1.19604 -0.65708,-1.83311c-1.02231,-0.71852 -3.21149,-0.89482 -3.15456,-1.03285c0.12827,-0.31097 4.59042,0.22438 4.74165,0.07576" data-paper-data="{&quot;index&quot;:null}" fill="none" stroke="#564343" stroke-width="1" stroke-linecap="round"/><path d="M242.16498,165.84637c0.57998,-0.11733 1.56202,1.33676 1.72629,2.14873c0.16426,0.81198 -2.40426,0.48087 -2.98425,0.5982c-0.57997,0.11733 -1.88866,-1.22391 -1.4154,-2.25736c0.47327,-1.03344 2.67336,-0.48957 2.67336,-0.48957z" fill="#c3b0b0" stroke="none" stroke-width="0" stroke-linecap="butt"/><path d="M242.16536,173.64486c-0.34579,-0.73313 0.24985,-2.56474 0.24985,-2.56474c0,0 1.07045,-1.30344 2.41297,-1.1185c1.34254,0.18497 2.49525,1.33356 2.33989,2.4613c-0.05523,0.40085 -0.39783,1.4743 -1.13824,1.96979c-0.74039,0.49551 -1.21178,0.34147 -1.97568,0.19364c-0.76388,-0.14783 -1.54297,-0.20836 -1.88877,-0.94151z" data-paper-data="{&quot;index&quot;:null}" fill="#21242a" stroke="none" stroke-width="0" stroke-linecap="butt"/></g><path d="M232.82757,189.96007l4.46476,-4.20659l2.155,2.50258c0,0 -5.86593,3.72296 -6.04477,3.87091c-0.5918,0.48964 -1.81143,0.82506 -1.81143,0.82506l-3.88746,0.80681c0,0 2.31646,-2.62523 3.5752,-3.24001z" data-paper-data="{&quot;index&quot;:null}" fill="#ff3200" stroke="none" stroke-width="0" stroke-linecap="butt"/><g data-paper-data="{&quot;index&quot;:null}" stroke-linecap="butt"><path d="M240.15015,184.84383c1.101,-2.25356 2.19232,-3.58412 3.88717,-3.40162c2.77834,0.29915 4.40293,2.16786 4.40293,2.16786l-1.62112,2.41475c0,0 -1.13781,-1.36248 -2.44298,-1.98991c-1.18063,-0.56756 -2.04046,3.11116 -2.04046,3.11116z" data-paper-data="{&quot;index&quot;:null}" fill="#ff3200" stroke="none" stroke-width="0"/><path d="M242.7997,185.54932l-1.49618,-2.37518l0.51094,-0.95338l1.49618,2.37518z" fill="#caa487" stroke="none" stroke-width="0"/><path d="M242.25986,187.08507l-1.69079,-2.95148l0.34063,-0.63559l1.76683,2.4573z" fill="#caa487" stroke="none" stroke-width="0"/><path d="M249.73123,183.60543c-0.95204,0.50881 -0.00962,-2.54262 0.72654,-3.94448c0.73617,-1.40186 1.69697,-2.2722 3.49255,-2.43349c1.79557,-0.16131 2.89464,0.96946 3.47444,2.05433c0.57981,1.08488 -6.7415,3.81483 -7.69354,4.32364z" data-paper-data="{&quot;index&quot;:null}" fill="#2d3635" stroke="none" stroke-width="0"/><path d="M256.51328,185.79106c0,0 -0.53366,2.01039 -1.52579,3.24441c-0.99213,1.23402 -1.9476,1.61434 -3.74067,1.42716c-1.01774,-0.10624 -3.13591,-0.82778 -3.31788,-2.46226c-0.13864,-1.24517 1.58661,-3.41577 1.43084,-3.92434c-0.12633,-0.41245 0.80779,-1.53598 1.95449,-1.24815c2.12323,0.53295 5.19899,2.96318 5.19899,2.96318z" data-paper-data="{&quot;index&quot;:null}" fill="#2d3635" stroke="none" stroke-width="0"/><path d="M257.22382,184.3415c0,0 -1.38961,5.26338 -3.60528,5.01915c-2.86722,-0.31603 -1.95394,-5.65278 -1.95394,-5.65278c0,0 0.07733,-5.90105 4.55098,-5.28073c2.36602,0.32807 0.82584,5.80152 1.00823,5.91434z" data-paper-data="{&quot;index&quot;:null}" fill="#ac5626" stroke="none" stroke-width="0"/><path d="M257.67639,181.52382l-1.12087,4.51433l-4.90702,-1.1914l-0.60425,-1.82481c0,0 -1.57357,-0.23411 -1.69098,-0.30674c-0.2119,-0.13107 0.76057,-1.74836 0.76057,-1.74836l1.87316,-0.51849l0.63709,0.08002z" data-paper-data="{&quot;index&quot;:null}" fill="#b3937c" stroke="none" stroke-width="0"/><path d="M249.52931,183.83367c-0.36728,0.83385 -1.1164,3.55448 -1.7562,4.0089c-0.42382,0.30102 -1.49335,-0.10504 -1.77312,-0.22827c-0.70213,-0.30925 -0.35397,-2.16083 0.2566,-3.54707c0.61057,-1.38625 1.67474,-2.25931 2.37686,-1.95006c0.70213,0.30925 1.50643,0.33025 0.89586,1.7165z" data-paper-data="{&quot;index&quot;:null}" fill="#21242a" stroke="#000000" stroke-width="0"/><path d="M244.32185,183.94211l0.56268,-2.34166l1.08264,0.32848l-0.82727,2.48306z" fill="#caa487" stroke="none" stroke-width="NaN"/><path d="M243.48095,184.27814l-0.74348,-2.66407l1.02335,-0.20677l0.37855,2.40555z" fill="#caa487" stroke="none" stroke-width="0"/><path d="M255.13812,177.34997c0,0 -1.73939,0.21422 -2.78857,1.15761c-0.66167,0.59496 -0.98048,2.1059 -0.98048,2.1059l-0.34846,0.1082c0,0 0.41949,-1.6756 1.20272,-2.39044c0.78323,-0.71484 2.60784,-1.08742 2.60784,-1.08742l0.30695,0.10616z" fill="#da8657" stroke="none" stroke-width="0"/></g><g data-paper-data="{&quot;index&quot;:null}" stroke="none" stroke-width="0" stroke-linecap="butt"><path d="M236.82273,185.62071c-0.37277,-1.55276 -0.76831,-2.49066 -0.11186,-3.6483c0.54778,-0.96601 3.70071,-2.25174 4.65831,-1.56855c1.04391,0.74477 1.23447,1.92814 1.59113,3.4138c0.31544,1.31396 0.13681,2.33132 -0.30286,3.40007c-0.51347,1.24818 -1.26276,0.32111 -2.51148,0.62089c-2.31794,0.55646 -3.32325,-2.2179 -3.32325,-2.2179z" data-paper-data="{&quot;index&quot;:null}" fill="#59423a"/><path d="M240.59831,185.32824c-1.43854,0.28506 -3.74144,0.34963 -3.74144,0.34963l-0.19453,-0.81032c0,0 3.23417,-0.30313 4.10013,-0.4926c0.86597,-0.18947 2.10062,-0.86414 2.10062,-0.86414l0.28679,0.92001c0,0 -1.11304,0.61235 -2.55158,0.89741z" fill="#6e2b11"/><path d="M244.60778,189.63143l-2.71735,-0.5137l-1.73659,-3.70622l2.47148,-1.61025l2.73404,3.0792z" fill="#d79774"/><path d="M244.19061,188.84722l-2.29276,-0.43342l-1.53375,-3.28373l2.07582,-1.12358l2.38483,2.51961z" fill="#494a42"/><path d="M237.63624,182.60835l4.74017,-1.94868l-0.74456,3.32818z" fill="#ebb074"/><path d="M241.24744,183.37129l-3.00698,-0.99214l3.79222,-1.5037z" fill="#4f5945"/><path d="M238.84881,182.16718l2.80987,-1.20195l-0.6681,1.61072z" fill="#ebb074"/><path d="M240.09565,185.16405l0.34807,-0.65252l1.63901,-0.68152l0.54354,0.06729l-0.25417,2.23651z" fill="#3fcf78"/></g><g data-paper-data="{&quot;index&quot;:null}"><path d="M241.72786,174.01385c1.82435,2.40648 5.34543,4.93711 5.34543,4.93711c0,0 -2.90516,0.4027 -4.0259,-0.27162c-2.43933,-1.46768 -4.43171,-4.54418 -4.82117,-4.0794c-0.00963,0.0115 -0.99447,1.18143 -2.08368,2.43385c-0.66821,0.76834 -1.83699,1.11488 -1.48439,2.57876c0.53152,2.20665 6.06467,6.42731 6.06467,6.42731l-6.99132,-3.49857c0,0 1.70497,1.74584 2.80918,2.65829c1.54105,1.27342 5.57162,4.26701 5.57162,4.26701c0,0 -4.46793,-1.0573 -6.72479,-2.50273c-2.73375,-1.75086 -8.52296,-7.26283 -8.52296,-7.26283c0,0 5.51788,5.46274 9.2306,8.76213c3.71271,3.29939 4.92254,3.81539 4.92254,3.81539c0,0 -4.82858,-1.17892 -7.47398,-2.83142c-2.64538,-1.65249 -5.84403,-4.34859 -5.84403,-4.34859l3.66449,5.06109c0,0 -2.87329,-1.9937 -4.12423,-3.11339c-1.19092,-1.06595 -3.17664,-4.01384 -3.17664,-4.01384c0,0 -0.78274,-1.88187 -0.87256,-3.66347c-0.1636,-3.24484 0.92552,-3.86516 0.92552,-3.86516c0,0 1.2364,-4.01912 3.52543,-5.51561c2.81266,-1.83882 6.90744,-3.02331 9.53076,-1.70094c2.31712,1.16802 2.89149,3.53173 4.55542,5.7266z" data-paper-data="{&quot;index&quot;:null}" fill="#ff3300" stroke="none" stroke-width="0" stroke-linecap="butt"/><path d="M236.9784,172.78693c1.41952,-0.56338 1.83142,-1.45115 3.43885,-0.6456c0.88421,0.44311 1.97595,1.88473 2.08265,4.81962c-0.67364,1.09268 0.46146,1.83992 -1.02159,3.25039c-1.48307,1.41048 -2.87292,2.73822 -4.77144,2.17261c-1.94605,-0.85873 -3.65654,-2.28512 -3.9244,-2.70748c-0.92545,-1.4592 -1.40354,-1.851 0.24515,-3.89343c1.23243,-1.52676 2.53128,-2.43274 3.95079,-2.99612z" data-paper-data="{&quot;index&quot;:null}" fill="#ffbe7e" stroke="none" stroke-width="0" stroke-linecap="butt"/><path d="M229.96213,176.19693c0,0 -2.62273,-2.60437 -0.96201,-4.25579c3.52653,-2.52862 4.58856,0.3323 4.58856,0.3323" data-paper-data="{&quot;index&quot;:null}" fill="none" stroke="#000000" stroke-width="0.5" stroke-linecap="round"/><path d="M235.90426,171.20647c0,0 -0.8927,-2.10509 0.63476,-2.75085c1.15732,-0.4297 1.92209,1.48588 1.92209,1.48588" data-paper-data="{&quot;index&quot;:null}" fill="none" stroke="#000000" stroke-width="0.5" stroke-linecap="round"/><path d="M240.16769,180.44223c-1.60435,0.93652 -3.49908,0.67788 -4.23202,-0.5777c-0.73292,-1.25558 -0.0265,-3.03262 1.57785,-3.96914c1.60434,-0.93651 3.49907,-0.67787 4.23201,0.5777c0.73292,1.25558 0.02651,3.03262 -1.57784,3.96913z" data-paper-data="{&quot;index&quot;:null}" fill="#000000" stroke="none" stroke-width="0" stroke-linecap="butt"/><path d="M239.44793,180.65186c-1.08402,0.63278 -2.43472,0.33729 -3.01689,-0.66001c-0.58216,-0.99729 -0.17532,-2.31874 0.9087,-2.95151c1.08402,-0.63279 2.43472,-0.3373 3.01688,0.66c0.58216,0.99729 0.17532,2.31874 -0.9087,2.95152z" data-paper-data="{&quot;index&quot;:null}" fill="#ff0017" stroke="none" stroke-width="0" stroke-linecap="butt"/><g stroke="none" stroke-width="0" stroke-linecap="butt"><g><path d="M234.60583,163.22245c1.42981,0.99588 1.40632,3.87112 0.76108,5.96703c-0.44949,1.46005 -0.36616,2.13287 -0.6064,2.23924c-0.34177,0.15132 -1.63853,-0.58574 -2.61412,-0.72798c-2.29046,-0.3339 -5.58397,-2.04012 -4.47692,-4.43423c0.91872,-1.98687 4.14375,-0.73323 4.14375,-0.73323c0,0 0.99633,-3.56195 2.79257,-2.31081z" fill="#d67a49"/><path d="M232.19935,164.07931c0.1339,0.29814 0.07262,0.60717 -0.05796,0.88069c-0.10523,0.2204 -0.34387,0.74569 -0.34387,0.74569c0,0 -0.61348,-0.24215 -0.83046,-0.29048c-0.31791,-0.07081 -0.57363,-0.14033 -0.71731,-0.46032c-0.24178,-0.53838 -0.00134,-1.17081 0.53704,-1.4126c0.53839,-0.24178 1.17081,-0.00134 1.4126,0.53704z" fill="#d67a49"/><path d="M231.57112,165.1472c-0.39809,0.17878 -0.86571,0.00098 -1.04447,-0.39709c-0.17877,-0.39806 -0.00099,-0.86569 0.39709,-1.04446c0.39807,-0.17876 0.86568,-0.001 1.04446,0.39708c0.17878,0.39809 0.001,0.8657 -0.39706,1.04447z" fill="#770000"/><path d="M234.47145,163.60128c1.27994,0.89151 1.15766,3.58927 0.58008,5.46549c-0.40234,1.30702 -0.32777,1.90933 -0.54282,2.00452c-0.30592,0.13545 -1.46675,-0.52434 -2.3401,-0.65167c-2.05038,-0.29892 -5.07525,-1.90954 -4.08424,-4.05271c0.82241,-1.77862 3.88302,-0.53627 3.88302,-0.53627c0,0 0.89609,-3.34936 2.50405,-2.22939z" fill="#29382d"/><path d="M235.24464,164.69884c0,0 -2.3536,1.62773 -2.93139,1.91386c-1.19707,0.59283 -4.12903,1.57063 -4.12903,1.57063c0,0 -0.25088,-0.23335 -0.32291,-0.8879c-0.03356,-0.30485 0.14636,-0.81494 0.14636,-0.81494c0,0 3.59262,-0.03822 4.09141,-0.26221c1.13545,-0.50991 2.18757,-2.76456 2.18757,-2.76456c0,0 0.42478,0.27502 0.60838,0.53749c0.18357,0.26248 0.34958,0.70764 0.34958,0.70764z" fill="#ffac5f"/><path d="M235.31484,167.9504c0,0 -1.26951,-0.19678 -1.912,0.12246c-0.71715,0.35634 -2.32749,2.11933 -2.32749,2.11933c0,0 -0.62018,-0.22083 -0.86126,-0.33057c-0.18827,-0.0857 -0.50062,-0.28676 -0.50062,-0.28676c0,0 2.22806,-1.83493 2.99309,-2.17851c0.81936,-0.36797 2.76498,-0.73194 2.76498,-0.73194c0,0 -0.01962,0.40371 -0.04156,0.61407c-0.02242,0.2147 -0.1151,0.67191 -0.1151,0.67191z" fill="#ffac5f"/><path d="M234.89954,169.69852c0,0 -0.19491,1.29971 -0.38932,1.46221c-0.18518,0.15478 -1.41031,-0.45287 -1.41031,-0.45287c0,0 -0.40734,-0.75954 -1.19498,-1.66746c-1.2709,-1.46502 -1.94544,-2.08682 -1.51731,-3.02836c0.26736,-0.58799 1.50444,-0.59159 1.50444,-0.59159c0,0 1.1147,-1.56956 1.88143,-0.67264c0.38503,0.45041 0.39507,0.46917 0.47223,1.33229c0.04531,0.50701 0.40096,0.85977 0.4199,1.0642c0.04063,0.43844 -0.45239,0.48715 -0.43681,1.02335c0.14525,1.25771 0.67069,1.53084 0.67069,1.53084z" fill="#d67a49"/><path d="M233.96411,168.06074c0.14233,1.06953 0.97313,2.00682 0.97313,2.00682c0,0 -0.11537,1.05008 -0.27053,1.18421c-0.14779,0.12775 -1.30576,-0.38443 -1.30576,-0.38443c0,0 -0.58673,-1.18765 -1.24534,-1.97279c-1.06273,-1.26688 -1.84793,-1.94793 -1.5174,-2.73829c0.20643,-0.4936 1.31153,-0.43384 1.31153,-0.43384c0,0 1.00199,-1.45617 1.31937,-1.01247c0.26931,0.37654 0.53681,1.86149 0.73499,3.35076z" fill="#ffac5f"/><path d="M233.96412,168.06076c0.0727,0.54628 -1.58008,0.55233 -2.49854,0.02034c-0.87972,-0.50955 -1.1087,-1.56844 -0.947,-1.95511c0.20643,-0.4936 1.39397,-0.47086 1.39397,-0.47086c0,0 0.99919,-1.38889 1.31656,-0.94519c0.26931,0.37654 0.53681,1.86149 0.73499,3.35076z" fill="#d67a49"/><path d="M234.56847,167.28215c-0.09064,0.31796 -0.81394,0.6845 -1.24441,0.7888c-0.59565,0.14431 -1.21045,-0.30786 -2.06623,-1.3825c-0.23469,-0.29471 -0.13219,-0.57995 0.20887,-0.80961c0.33629,-0.22646 0.53919,-0.08103 0.94672,-0.27151c0.40426,-0.18894 0.46776,-0.90711 0.56074,-0.94887c0.08471,-0.03804 0.69457,-0.27178 1.0258,0.58692c-0.07353,0.9196 0.63078,1.8185 0.56856,2.03676z" fill="#ffac5f"/><path d="M234.43733,169.03825l-0.07323,0.47087c0,0 -0.37458,-0.87725 -0.50907,-1.15132c-0.12275,-0.2501 -0.26582,-0.42784 -0.26582,-0.42784l0.61411,-0.34149c0,0 -0.03551,0.23213 0.07653,0.43019c0.15621,0.2761 0.60828,1.14564 0.60828,1.14564z" fill="#8c3e22"/><path d="M232.5306,166.93811c0,0 0.05576,0.37343 -0.4712,0.36489c-0.2494,-0.00403 -0.48506,-0.59243 -0.48506,-0.59243l0.95626,0.22753z" fill="#016929"/><path d="M233.90653,166.12961l-0.12848,-0.8007c0,0 0.20157,0.12916 0.23723,0.45471c0.02403,0.21942 -0.10875,0.34598 -0.10875,0.34598z" fill="#016929"/></g><path d="M232.25781,170.76551c0,0 -4.16709,3.98887 -6.49801,2.06176c-0.34616,-0.36456 -0.12957,-0.5025 -0.12957,-0.5025l0.45173,-0.61163c0,0 -0.14222,0.19568 0.2711,0.53336c1.3334,1.0894 4.88989,-1.9478 4.88989,-1.9478l1.01484,0.46681z" fill="#ffac5f"/><path d="M230.72921,171.95892c0,0 -0.72889,0.52149 -1.1831,0.77097c-0.4542,0.24947 -1.21123,0.54412 -1.21123,0.54412l-0.53474,-0.88723c0,0 0.7223,-0.30329 1.18676,-0.54232c0.46447,-0.23903 1.01082,-0.62206 1.01082,-0.62206l0.7315,0.73653z" fill="#29382d"/><path d="M226.1845,173.09732c0,0 -0.27101,-0.11469 -0.41783,-0.2575c-0.14682,-0.1428 -0.2489,-0.39099 -0.2489,-0.39099l0.54645,-0.7394c0,0 0.01372,0.22457 0.18082,0.40024c0.16708,0.17568 0.52128,0.33793 0.52128,0.33793z" fill="#29382d"/></g><path d="M244.64987,179.10095l-0.95178,-0.08768l1.4605,-1.53871l0.66667,0.55432z" fill="#caa487" stroke="none" stroke-width="NaN" stroke-linecap="butt"/><path d="M242.91697,178.65939l-0.64264,-0.4397l1.71103,-1.77073l0.66666,0.55433z" fill="#caa487" stroke="none" stroke-width="0" stroke-linecap="butt"/><path d="M238.10555,184.70127l-1.36193,-0.69714l0.93486,-0.54572l0.98727,0.97554z" fill="#caa487" stroke="none" stroke-width="0" stroke-linecap="butt"/><path d="M235.67863,183.61116l-0.96489,-0.63048l1.76959,-0.85393l0.43431,0.64176z" fill="#caa487" stroke="none" stroke-width="0" stroke-linecap="butt"/><path d="M238.15861,188.37084l-1.76641,-0.87883l1.10525,-1.48078l1.43626,1.13124z" fill="#caa487" stroke="none" stroke-width="0" stroke-linecap="butt"/><path d="M235.07479,186.76889l-1.65523,-1.30185l1.82881,-1.36598l1.19877,1.03112z" fill="#caa487" stroke="none" stroke-width="0" stroke-linecap="butt"/><path d="M233.44302,189.39261l-1.20985,-0.84559l1.57256,-2.11169l1.10973,1.0831z" fill="#caa487" stroke="none" stroke-width="0" stroke-linecap="butt"/><path d="M236.75687,190.97967l-1.59196,-0.68223l0.52248,-2.27463l1.79262,1.63945z" fill="#caa487" stroke="none" stroke-width="0" stroke-linecap="butt"/><path d="M227.53546,187.34999l-1.02069,-1.13507l1.2241,-1.07267l1.04307,1.48012z" fill="#caa487" stroke="none" stroke-width="0" stroke-linecap="butt"/><path d="M224.98925,184.41955l-0.88353,-1.51358l0.43771,-0.37487l1.26927,1.04966z" fill="#caa487" stroke="none" stroke-width="0" stroke-linecap="butt"/><path d="M240.39555,173.07192c0,0 -0.69457,-0.09691 -0.84246,-0.38462c-0.14789,-0.28771 0.20734,-0.87053 0.20734,-0.87053c0,0 1.5898,-0.43504 1.8374,-0.22757c0.2476,0.20748 -1.20227,1.48272 -1.20227,1.48272z" data-paper-data="{&quot;index&quot;:null}" fill="#030000" stroke="none" stroke-width="0" stroke-linecap="butt"/></g><path d="M226.74569,178.28683z" data-paper-data="{&quot;index&quot;:null}" fill="#030000" stroke="none" stroke-width="0" stroke-linecap="butt"/><g data-paper-data="{&quot;index&quot;:null}"><g><path d="M219.92529,190.39306l0.7743,1.55113l-1.13132,1.33101z" fill="#b96a37" stroke="none" stroke-width="0" stroke-linecap="butt"/><path d="M220.74188,191.85606l2.01765,0.81534l-3.26798,0.5658z" fill="#ebb9a2" stroke="none" stroke-width="0" stroke-linecap="butt"/><path d="M238.86844,183.47865l-8.8037,4.68883l-0.6613,-2.35392l7.5667,-3.43637z" data-paper-data="{&quot;index&quot;:null}" fill="#ff3200" stroke="none" stroke-width="0" stroke-linecap="butt"/><path d="M228.69965,189.54303c0,0 -0.36635,2.50999 -4.27717,2.9843c-2.09188,0.25369 -3.27119,0.42129 -5.01297,-1.45919c-2.11083,-2.27892 -1.32781,-5.37821 -0.4193,-5.78966c0.9085,-0.41145 3.51663,0.84556 3.51663,0.84556c0,0 0.64745,-0.16433 0.51228,-0.7282c-0.26629,-1.11076 -1.6708,-2.62112 -0.5291,-2.7874c1.72128,-0.25069 2.86157,0.2823 3.79958,0.8541c0.63494,0.38704 0.75926,0.859 1.12617,1.11484c0.39026,0.27213 1.42936,0.40572 1.42936,0.40572c0,0 1.01091,0.82399 1.21847,1.83097c0.20755,1.00697 -0.16966,2.43842 -0.16966,2.43842l-1.19425,0.29054z" data-paper-data="{&quot;index&quot;:null}" fill="#906d5f" stroke="none" stroke-width="0" stroke-linecap="butt"/><path d="M225.36588,187.14403c0,0 -1.07461,-0.60043 -1.49205,0.42582c-0.15064,0.37034 -0.55041,0.45025 -0.58043,0.92327c-0.0638,1.00534 0.13438,2.10346 0.03421,2.08681c-0.33183,-0.05522 -0.76907,-3.97236 -0.94784,-4.08639" data-paper-data="{&quot;index&quot;:null}" fill="none" stroke="#564343" stroke-width="1" stroke-linecap="round"/><path d="M223.01911,185.39583c-0.26629,-1.11076 -1.6708,-2.62112 -0.5291,-2.7874c1.72128,-0.25069 2.86157,0.2823 3.79958,0.8541c0.63494,0.38704 0.75926,0.859 1.12617,1.11484c0.39026,0.27213 -4.26146,1.38231 -4.39665,0.81844z" data-paper-data="{&quot;index&quot;:null}" fill="#c3b0b0" stroke="none" stroke-width="0" stroke-linecap="butt"/><path d="M232.17671,188.31047c-0.44698,0.67623 -2.32156,1.11832 -2.32156,1.11832c0,0 -1.66978,-0.23795 -2.2089,-1.48131c-0.53908,-1.24339 -0.1561,-2.82493 0.88834,-3.27779c0.37125,-0.16095 1.46653,-0.42559 2.27446,-0.05014c0.80795,0.37542 0.92109,0.85828 1.19144,1.58786c0.27034,0.72959 0.62317,1.42682 0.17621,2.10306z" data-paper-data="{&quot;index&quot;:null}" fill="#21242a" stroke="none" stroke-width="0" stroke-linecap="butt"/><path d="M237.10952,184.36949l-1.4623,0.83128l-0.46631,-1.96386l1.06318,-0.54635z" fill="#caa487" stroke="none" stroke-width="NaN" stroke-linecap="butt"/><path d="M234.91608,185.61642l-0.61578,0.31909l-0.56285,-2.07926l0.94779,-0.44979z" fill="#caa487" stroke="none" stroke-width="0" stroke-linecap="butt"/><path d="M234.02127,186.07093l-0.77942,0.35795l-0.7842,-1.99212l0.72173,-0.30967z" fill="#caa487" stroke="none" stroke-width="0" stroke-linecap="butt"/><path d="M232.84744,186.66084l-0.50509,0.27553l-0.7795,-2.04511l0.67346,-0.36737z" fill="#caa487" stroke="none" stroke-width="0" stroke-linecap="butt"/></g><path d="M222.44558,186.12891c0,0 -0.26665,0.70139 0.11423,2.43536c0.42726,1.94508 1.70723,3.69311 0.98645,4.11919c-1.26767,-0.07408 -2.56242,0.20654 -4.27491,-1.70064c-2.07533,-2.3113 -1.17486,-5.27046 -0.26011,-5.66783c0.91477,-0.39736 3.43435,0.81392 3.43435,0.81392z" data-paper-data="{&quot;index&quot;:null}" fill="#a38273" stroke="none" stroke-width="0" stroke-linecap="butt"/></g><g data-paper-data="{&quot;index&quot;:null}" stroke="none" stroke-width="0" stroke-linecap="butt"><path d="M240.02536,185.7194c0.37456,0.30131 4.79758,4.40406 4.98835,6.81376c0.19078,2.40969 -1.77382,4.93383 -4.09891,4.42086c-1.89989,-0.41916 -4.62181,-3.34224 -5.81219,-4.75244c-1.19037,-1.41021 -2.01206,-2.67908 -1.88392,-4.25727c0.12813,-1.5782 0.67119,-2.75537 2.26005,-3.60722c1.58887,-0.85184 3.58816,0.61131 4.54662,1.38232z" data-paper-data="{&quot;index&quot;:null}" fill="#ac5626"/><path d="M238.09312,195.14924c0,0 -1.29678,-0.88228 -2.10969,-1.68587c-0.8129,-0.80359 -1.78377,-2.36284 -1.78377,-2.36284l5.39185,-5.56313c0,0 0.3286,-0.07481 1.41259,0.99677c1.08399,1.07158 2.57039,2.94064 2.57039,2.94064z" fill="#b3937c"/></g></g></g></svg>