<svg version="1.1" xmlns="http://www.w3.org/2000/svg" xmlns:xlink="http://www.w3.org/1999/xlink" width="29.34708" height="36.27567" viewBox="0,0,29.34708,36.27567"><g transform="translate(-230.60853,-163.75118)"><g data-paper-data="{&quot;isPaintingLayer&quot;:true}" fill-rule="nonzero" stroke-miterlimit="10" stroke-dasharray="" stroke-dashoffset="0" style="mix-blend-mode: normal"><g data-paper-data="{&quot;index&quot;:null}" stroke="none" stroke-width="0" stroke-linecap="butt" stroke-linejoin="miter"><path d="M246.3233,185.63567c0.07959,0.10975 0.05846,1.16114 -0.02094,1.62864c-0.04339,0.25531 -0.12109,0.73155 -0.54521,0.82896c-0.10811,0.02483 -0.6279,-0.12494 -0.6279,-0.12494l-0.26817,0.32262c0,0 -0.24369,0.05528 -0.38763,0.00866c-0.14394,-0.04662 -0.3579,-0.23002 -0.3579,-0.23002c0,0 -0.16562,0.04541 -0.27523,0.10125c-0.35777,0.18224 -0.55731,-0.13706 -0.55731,-0.13706c0,0 -0.24439,0.16192 -0.45674,0.15562c-0.33663,-0.01001 -0.71933,-0.20977 -0.88053,-0.37972c-0.27383,-0.28866 -0.82589,-1.25071 -0.62098,-1.55945c0.31914,-0.48084 0.86146,-0.02128 0.86146,-0.02128c0,0 -0.20161,-0.56767 -0.1302,-0.92524c0.11,-0.55062 0.39011,-0.78281 0.39011,-0.78281l2.38244,-0.59296c0,0 0.99518,1.01904 1.49474,1.70773z" fill="#ffffff"/><path d="M244.61227,182.35424c0.27955,0.3541 0.6193,1.30361 0.15301,1.62357c-1.70341,1.16883 -2.75582,0.56581 -3.26711,-0.22063c-0.33396,-0.51365 -0.38682,-0.96995 1.04757,-1.66253c0.5093,-0.24589 1.787,-0.09453 2.06656,0.25956z" fill="#fed000"/><path d="M242.10777,181.04c0.77433,0.98088 1.63401,1.94289 1.63401,1.94289c0,0 -0.47035,0.26226 -0.76742,0.35455c-0.29706,0.09228 -0.53176,0.00578 -0.53176,0.00578c0,0 -1.02774,-1.52652 -1.34014,-1.92222c-0.5124,-0.64909 -0.12759,-1.07414 0.19451,-1.80036c0.32209,-0.72622 0.76243,-1.24337 1.04671,-0.9982c0.8585,0.7404 -0.77748,1.73151 -0.23588,2.41758z" fill="#fed5c7"/></g><g data-paper-data="{&quot;index&quot;:null}" stroke="none" stroke-width="0" stroke-linecap="butt" stroke-linejoin="miter"><g><path d="M243.42131,198.56291l1.55779,-0.22315c0,0 0.71686,0.67006 -0.34401,0.97564c-1.06087,0.30559 -1.83324,0.18059 -2.81796,-0.06482c-0.58456,-0.14567 -1.6488,-0.93015 -1.6488,-0.93015l-0.97576,0.11909c0,0 -0.72661,-0.21101 -0.88196,-0.61001c-0.55239,-1.41873 0.05481,-2.08581 0.05481,-2.08581c0,0 1.09861,1.30829 1.83674,1.71988c0.91067,0.50778 3.21914,1.09935 3.21914,1.09935z" fill="#393939"/><path d="M242.86565,192.28498l0.17939,0.31447l0.03215,0.4206c0,0 0.29412,0.8574 0.4479,1.17135c0.18922,0.38628 0.39006,0.80313 0.92213,1.6572c0.38052,1.00181 0.28334,2.59986 0.28334,2.59986c0,0 -0.5708,0.35052 -1.71744,0.1745c-3.87445,-0.59475 -4.54793,-2.67986 -4.54793,-2.67986c0,0 -0.2805,-1.01866 -0.2365,-1.58236c0.04402,-0.56371 0.30128,-1.0125 0.46697,-1.37073c0.16568,-0.35824 0.60164,-0.6317 0.60164,-0.6317c0,0 -0.14689,0.02782 -0.05227,-0.29439c0.02162,-0.07356 0.24464,-0.26708 0.24464,-0.26708l-0.18265,-0.06283l0.11502,-0.71274l3.02012,0.29321z" fill="#f01a40"/><path d="M241.26232,188.28725c0.8805,0.04576 1.84624,0.81181 1.87419,1.10896c0.02792,0.29714 -0.44846,0.80458 -0.44846,0.80458c0,0 0.24136,0.77464 -0.033,0.98694c-0.40898,0.31645 -0.73585,0.41239 -1.83261,0.47927c-0.60598,-0.03174 -1.01146,-0.41638 -1.36031,-0.67259c-0.42703,-0.31363 0.00536,-0.43149 -0.03891,-0.76753c-0.04429,-0.33604 0.13771,0.2006 -0.14623,-0.63808c-0.20339,-0.60075 1.55186,-1.32409 1.98534,-1.30155z" fill="#ffffff"/><path d="M242.08466,192.41544c0.01466,0.05789 0.15366,0.64604 0.15366,0.64604c0,0 1.4856,2.32182 1.67137,3.11834c0.22881,0.98101 0.28991,2.46035 0.28991,2.46035c0,0 -0.51304,0.07603 -0.76913,0.07298c-0.26348,-0.00313 -1.38673,-0.24776 -1.38673,-0.24776c0,0 -0.13989,-2.68931 -0.22087,-3.13111c-0.2949,-1.14141 -0.69886,-2.10164 -0.69886,-2.10164l-0.08651,-0.33435l-0.2636,-0.30142l-0.11631,-0.98203l1.44632,-0.11035c0,0 -0.09719,0.60316 -0.01926,0.91096z" fill="#ffffff"/></g><path d="M239.94662,189.55345c-0.04027,-0.38238 0.4531,-0.74775 1.10197,-0.81609c0.64887,-0.06835 1.20753,0.18622 1.2478,0.56861c0.04027,0.38239 -0.45311,0.74776 -1.10198,0.8161c-0.64888,0.06834 -1.20754,-0.18623 -1.24781,-0.56862z" fill="#afafaf"/></g><path d="M241.43132,184.1476l0.26205,3.738l0.12082,2.05564c0,0 -0.37992,0.2672 -0.6196,0.15951c-0.2397,-0.1077 -0.58603,-0.10723 -0.58603,-0.10723l-0.24472,-2.47844l-0.19797,-3.4576z" data-paper-data="{&quot;index&quot;:null}" fill="#f79db4" stroke="none" stroke-width="0" stroke-linecap="butt" stroke-linejoin="miter"/><g data-paper-data="{&quot;index&quot;:null}" stroke="none" stroke-width="0" stroke-linecap="butt" stroke-linejoin="miter"><g><path d="M241.82099,199.08487l1.5704,-0.10178c0,0 0.66278,0.72358 -0.41857,0.94607c-1.08137,0.2225 -1.84172,0.03804 -2.80447,-0.28292c-0.57151,-0.19052 -1.57178,-1.05508 -1.57178,-1.05508l-0.98204,0.04314c0,0 -0.7081,-0.26666 -0.83208,-0.67649c-0.44081,-1.45724 0.21624,-2.0753 0.21624,-2.0753c0,0 0.99398,1.38948 1.69798,1.857c0.8686,0.57683 3.12432,1.34543 3.12432,1.34543z" fill="#393939"/><path d="M241.75335,192.78278l0.15448,0.32741l-0.00052,0.42182c0,0 0.22682,0.87762 0.35582,1.20254c0.15872,0.39982 0.32668,0.83093 0.79099,1.72366c0.30177,1.02829 0.0811,2.61402 0.0811,2.61402c0,0 -0.59627,0.30524 -1.72582,0.04092c-3.81675,-0.89313 -4.32667,-3.02411 -4.32667,-3.02411c0,0 -0.20076,-1.03732 -0.11322,-1.59592c0.08756,-0.55861 0.37884,-0.98612 0.57177,-1.33043c0.19292,-0.34431 0.64878,-0.58319 0.64878,-0.58319c0,0 -0.14861,0.01637 -0.02931,-0.29754c0.02724,-0.07168 0.2646,-0.24733 0.2646,-0.24733l-0.17726,-0.07679l0.1699,-0.70169l2.98832,0.52627z" fill="#f01a40"/><path d="M240.46453,188.67283c0.87428,0.11383 1.77781,0.9524 1.78264,1.25081c0.00483,0.29841 -0.50944,0.76743 -0.50944,0.76743c0,0 0.18062,0.791 -0.10936,0.98141c-0.43226,0.28383 -0.7656,0.35414 -1.86424,0.33585c-0.60169,-0.07858 -0.97615,-0.49348 -1.3041,-0.77594c-0.40145,-0.34573 0.03875,-0.42975 0.02065,-0.76822c-0.0181,-0.33847 0.12177,0.21068 -0.09636,-0.64749c-0.15625,-0.61471 1.64977,-1.1999 2.08018,-1.14385z" fill="#ffffff"/><path d="M240.96457,192.85237c0.01012,0.05883 0.10316,0.656 0.10316,0.656c0,0 1.3013,2.42992 1.4248,3.23843c0.15211,0.99582 0.09843,2.47543 0.09843,2.47543c0,0 -0.51741,0.03604 -0.7725,0.01317c-0.26244,-0.02355 -1.36336,-0.35445 -1.36336,-0.35445c0,0 0.06883,-2.69205 0.02233,-3.1388c-0.20559,-1.16084 -0.53395,-2.14948 -0.53395,-2.14948l-0.06036,-0.34003l-0.23943,-0.32094l-0.03989,-0.98808l1.45054,0.00202c0,0 -0.14363,0.59383 -0.08978,0.90674z" fill="#ffffff"/></g><path d="M239.05467,189.83335c-0.01052,-0.38436 0.50966,-0.71041 1.16189,-0.72828c0.65222,-0.01787 1.18948,0.27924 1.20002,0.66357c0.01052,0.38434 -0.50966,0.71038 -1.16189,0.72826c-0.65224,0.01786 -1.18949,-0.27922 -1.20002,-0.66356z" fill="#afafaf"/></g><path d="M239.97183,184.57769l0.48132,4.1125l0.17549,1.7999c0,0 -0.56256,0.02459 -0.82815,-0.04282c-0.26559,-0.06741 -0.62223,-0.32526 -0.62223,-0.32526l-0.11198,-1.34797l-0.35572,-3.76006z" data-paper-data="{&quot;index&quot;:null}" fill="#f79db4" stroke="none" stroke-width="0" stroke-linecap="butt" stroke-linejoin="miter"/><path d="M238.32869,182.98091c0,0 -3.73688,1.29387 -4.49271,0.96703c-0.82132,-0.35517 -1.81626,-2.16325 -1.81626,-2.16325l2.16813,1.44495l2.95321,-0.85168l1.1876,0.60297z" data-paper-data="{&quot;index&quot;:null}" fill="#f79db4" stroke="none" stroke-width="0" stroke-linecap="butt" stroke-linejoin="miter"/><g data-paper-data="{&quot;index&quot;:null}" stroke-width="0" stroke-linecap="butt" stroke-linejoin="miter"><g data-paper-data="{&quot;index&quot;:null}"><path d="M254.04989,173.75014c-0.4337,0.97102 -1.57534,1.4053 -2.54993,0.97001c-0.97456,-0.43527 -1.41305,-1.57531 -0.97936,-2.54632c0.4337,-0.971 1.57532,-1.4053 2.54991,-0.97001c0.97458,0.43528 1.41308,1.57533 0.97939,2.54634z" fill="#e0cb17" stroke="none"/><path d="M251.60578,174.65699c-0.60211,-0.26892 -0.873,-0.97324 -0.60506,-1.57312c0.26793,-0.5999 0.97322,-0.8682 1.57533,-0.59927c0.60211,0.26892 0.873,0.97324 0.60506,1.57312c-0.26792,0.59989 -0.97322,0.8682 -1.57533,0.59927z" fill="#e0cb17" stroke="#000000"/><path d="M249.51537,178.30648c0,0 -0.88633,-1.46104 -0.0196,-2.55477c0.83476,-1.05335 1.05746,-1.17623 1.05746,-1.17623l1.91431,0.87129c0,0 0.27015,1.32241 -0.46577,2.12558c-0.73593,0.80318 -2.4864,0.73412 -2.4864,0.73412z" fill="#e8edf4" stroke="#000000"/><path d="M251.38764,175.21102c-0.53232,-0.2406 -1.04764,-0.85809 -1.04764,-0.85809l0.45758,-0.33217c0,0 0.44708,0.56401 0.87224,0.72569c0.42518,0.1617 1.16397,0.04869 1.16397,0.04869l-0.07901,0.71102c0,0 -0.90125,-0.08453 -1.36713,-0.29511z" fill="#dbded5" stroke="#000000"/></g><g data-paper-data="{&quot;index&quot;:null}" stroke="none"><path d="M244.32671,176.16654c0.18369,0.08206 0.19456,0.45765 0.02426,0.83894c-0.1703,0.38129 -0.45727,0.62387 -0.64096,0.54183c-0.18369,-0.08206 -0.19455,-0.45764 -0.02425,-0.83893c0.17031,-0.38128 0.45725,-0.62387 0.64094,-0.54183z" fill="#000000"/><path d="M240.89227,180.4098c0.19134,0.08546 0.02508,2.36301 0.02508,2.36301c0,0 -1.09457,-0.12451 -1.28592,-0.20999c-0.19133,-0.08546 -0.02034,-1.33155 0.05461,-1.49931c0.07492,-0.16776 1.01489,-0.73918 1.20624,-0.65371z" fill="#807d5a"/><path d="M243.58751,177.2412l0.03505,-0.32664l6.8491,-3.40013l0.05843,0.19172z" fill="#6e6e73"/><path d="M249.75792,173.74774l0.17331,0.43074l-1.62674,0.76402l-0.14559,-0.41837z" fill="#ddcb1e"/></g></g><g data-paper-data="{&quot;index&quot;:null}" stroke-width="0" stroke-linecap="butt" stroke-linejoin="miter"><g data-paper-data="{&quot;index&quot;:null}"><path d="M233.77391,168.47893c-1.25023,-0.5584 -1.81274,-2.02089 -1.25638,-3.26652c0.55635,-1.24565 2.02088,-1.80276 3.27112,-1.24436c1.25026,0.55841 1.81275,2.0209 1.25639,3.26653c-0.55636,1.24565 -2.02088,1.80275 -3.27112,1.24435z" fill="#e0cb17" stroke="none"/><path d="M233.74372,168.32379c-0.7724,-0.34499 -1.11992,-1.2485 -0.7762,-2.01807c0.34372,-0.76957 1.24852,-1.11373 2.0209,-0.76876c0.7724,0.345 1.11991,1.2485 0.77619,2.01807c-0.34372,0.76956 -1.24852,1.11374 -2.02091,0.76877z" fill="#e0cb17" stroke="#000000"/><path d="M230.61947,170.44142c0.13727,-1.3907 1.63193,-2.26477 1.63193,-2.26477l2.47129,1.0829c0,0 0.07327,0.31798 -0.21839,2.01726c-0.30281,1.76441 -2.8241,2.22371 -2.8241,2.22371c0,0 -1.19795,-1.66842 -1.06071,-3.0591z" fill="#e8edf4" stroke="#000000"/><path d="M233.40114,169.00649c-0.60002,-0.26481 -1.45238,-1.05342 -1.45238,-1.05342l0.61162,-0.68421c0,0 0.52453,0.80258 1.04302,1.07032c0.51848,0.26777 1.44005,0.21199 1.44005,0.21199l0.0744,0.72154c0,0 -1.03112,0.03637 -1.7167,-0.2662z" fill="#dbded5" stroke="#000000"/></g><g data-paper-data="{&quot;index&quot;:null}" stroke="none"><path d="M236.3421,178.33393c0.36089,-0.30339 1.63567,-2.43515 2.79855,-1.87328c0.18049,0.08719 1.06315,1.90277 0.8505,2.95409c-0.28925,1.4301 -1.742,2.19302 -1.742,2.19302l-2.83658,-1.28819c0,0 0.56865,-1.68229 0.92953,-1.98568z" fill="#e4dcaa"/><path d="M237.71123,177.2653c0.21846,-0.48914 0.58658,-0.80033 0.82223,-0.69508c0.23564,0.10525 0.24957,0.58709 0.03111,1.07622c-0.21846,0.48913 -0.58661,0.80033 -0.82226,0.69507c-0.23564,-0.10525 -0.24956,-0.58709 -0.0311,-1.07622z" fill="#000000"/><path d="M234.66089,182.37598c0.21103,-0.83397 0.7544,-2.07099 0.7544,-2.07099c0,0 0.65791,-0.08426 1.03444,-0.0338c0.37651,0.05047 0.94844,0.24947 0.94844,0.24947l0.8041,1.21873c0,0 -1.03001,2.81223 -1.1743,3.16687c-0.29057,0.71423 -1.82854,0.65639 -1.82854,0.65639l-0.88116,-0.92222c0,0 0.13157,-1.43049 0.3426,-2.26446z" fill="#dfcc17"/><path d="M235.14102,185.4832c0,0 2.03352,-2.10873 2.27897,-1.9991c0.24547,0.10963 0.50432,1.49684 0.40819,1.71205c-0.09612,0.21521 -1.14019,1.44542 -1.38564,1.3358c-0.24546,-0.10963 -1.30154,-1.04874 -1.30154,-1.04874z" fill="#807d5a"/><path d="M235.57304,168.53741l0.23319,-0.10832l2.61546,9.45426l-0.28201,0.31313z" fill="#6e6e73"/><path d="M236.82167,171.50299l-0.52436,0.21908l-0.66282,-2.20822l0.55989,-0.20319z" fill="#ddcb1e"/></g></g><path d="M239.96034,178.13503l0.71422,0.72479c0,0 -0.24022,0.77895 -0.49993,1.02677c-0.24497,0.23374 -1.08662,0.38917 -1.08662,0.38917z" data-paper-data="{&quot;index&quot;:null}" fill="#f25c76" stroke="none" stroke-width="0" stroke-linecap="butt" stroke-linejoin="miter"/><path d="M242.57467,187.08676c0,0 -3.08515,0.71249 -5.09227,-0.24041c-4.30911,-1.95143 -3.89513,-5.96388 -3.89513,-5.96388l1.09904,0.21985c0,0 -0.76746,2.99405 3.648,4.7917c1.74765,0.7115 3.94919,0.23962 3.94919,0.23962z" data-paper-data="{&quot;index&quot;:null}" fill="#ffffff" stroke="none" stroke-width="0" stroke-linecap="butt" stroke-linejoin="miter"/><path d="M242.52493,180.77351c-0.1663,0.64142 -1.02249,1.97415 -1.02249,1.97415l0.23332,0.27758l-0.02092,0.1625c0,0 1.46899,2.75521 0.42897,3.03876c-1.61814,0.44117 -2.83413,0.43657 -4.3262,-0.38855c-1.63341,-0.90328 -1.95972,-1.35065 -2.73329,-2.56463c-0.83947,-1.31738 -0.44046,-2.15855 -0.44046,-2.15855l1.46229,0.1538l0.69237,-0.00638l0.13528,-0.11872l1.61995,-0.06017l0.58164,-0.89966c0,0 0.59646,-0.07193 0.95696,-0.44716c0.2856,-0.29725 0.58249,-0.98834 0.58249,-0.98834l1.23007,0.16988l0.32003,0.18434c0,0 0.44886,1.09707 0.30002,1.67116z" data-paper-data="{&quot;index&quot;:null}" fill="#f01a40" stroke="none" stroke-width="0" stroke-linecap="butt" stroke-linejoin="miter"/><g data-paper-data="{&quot;index&quot;:null}" stroke-linecap="butt" stroke-linejoin="miter"><path d="M258.16251,187.58201l-8.70051,-2.61123c0,0 -0.55217,-2.87317 1.19586,-3.80172c1.65665,-0.87999 3.08443,-1.17079 5.03146,-0.69757c5.07062,1.23245 4.01705,5.78483 4.01705,5.78483z" fill="#fbdd00" stroke="none" stroke-width="0"/><path d="M258.57978,187.25045c0,0 0.1499,-0.63034 0.11561,-1.31757c-0.02295,-0.45989 -0.2645,-0.9723 -0.16515,-1.15905c0.1998,-0.37562 0.28588,-0.01772 0.47657,0.8007c0.08892,0.38163 -0.01872,1.33844 -0.01872,1.33844l-0.40835,0.33751z" fill="#a58c48" stroke="#000000" stroke-width="0"/><path d="M257.05975,182.69214c-0.04931,0.18162 -0.96385,-0.4486 -1.82927,-0.68353c-0.86544,-0.23494 -2.44212,0.09148 -2.3809,-0.33477c0.06703,-0.46678 1.59619,-0.34893 2.46827,-0.14001c1.30153,0.31179 1.79121,0.97671 1.74191,1.15833z" fill="#a58c48" stroke="#000000" stroke-width="0"/><path d="M249.60189,184.30252l-0.09893,-0.40076c0,0 0.19158,-0.58545 0.45754,-0.94179c0.2388,-0.31991 0.58729,-0.24322 0.63473,-0.17414c0.13476,0.19634 -0.31019,0.3667 -0.57102,0.72777c-0.2818,0.3901 -0.42231,0.78891 -0.42231,0.78891z" fill="#a58c48" stroke="#000000" stroke-width="0"/><path d="M253.6069,187.30074c3.43261,1.03088 3.81506,3.2273 3.81506,3.2273c0,0 0.10643,-0.19313 -0.04915,0.38256c-0.15558,0.57569 -0.12858,0.28556 -0.12858,0.28556c0,0 -0.8833,-1.99269 -2.85275,-2.9762c-3.13424,-1.56518 -5.91345,0.22252 -5.91345,0.22252l0.23337,-0.54709c0,0 2.44919,-1.32936 4.89551,-0.59466z" fill="#edeee6" stroke="none" stroke-width="0"/><path d="M249.42972,184.53513c0,0 2.67661,-2.2633 5.35076,-1.34304c3.38895,1.16622 3.63931,4.15727 3.63931,4.15727l-0.25431,0.2266c0,0 -0.77339,-2.23613 -2.69109,-3.25413c-3.05188,-1.62005 -6.02859,0.61042 -6.02859,0.61042l-0.01609,-0.39709z" fill="#edeee6" stroke="none" stroke-width="0"/><path d="M254.61791,183.57822c3.4475,1.03495 3.56697,4.29051 3.56697,4.29051c0,0 -0.12835,0.93598 -0.28391,1.51168c-0.15558,0.57571 -0.51352,1.43921 -0.51352,1.43921c0,0 -0.88901,-1.99423 -2.86747,-2.98019c-3.14852,-1.56906 -5.93693,0.21613 -5.93693,0.21613l0.86912,-3.21865c0,0 2.70882,-1.99623 5.16577,-1.25867z" fill="#ff1a07" stroke="none" stroke-width="0"/><path d="M252.24178,183.60673c0,0 1.43209,-0.28958 2.3012,-0.06251c0.86914,0.22708 1.77905,1.25328 1.77905,1.25328l-0.84028,3.09528c0,0 -1.29947,-0.68511 -1.96659,-0.86621c-0.68648,-0.18635 -2.17336,-0.25766 -2.17336,-0.25766z" fill="#ff1808" stroke="#000000" stroke-width="0"/><path d="M257.3803,190.69306c0,0 -0.143,-0.62944 -0.32215,-0.99257c-0.17916,-0.36313 -0.58897,-0.85418 -0.58897,-0.85418l0.74382,-2.89299c0,0 0.57511,0.53596 0.7587,1.05502c0.18359,0.51905 0.16461,1.20589 0.11094,1.40358c-0.14213,0.52354 -0.70234,2.28111 -0.70234,2.28111z" fill="#ff1808" stroke="#000000" stroke-width="0"/><path d="M248.70962,188.0484c0,0 0.62268,-2.5571 0.88424,-3.10411c0.19149,-0.40047 1.32634,-0.907 1.32634,-0.907l-0.82453,3.03724c0,0 -0.38677,0.22188 -0.61991,0.3857c-0.23315,0.16382 -0.76613,0.58817 -0.76613,0.58817z" fill="#ff1808" stroke="#000000" stroke-width="0"/><path d="M251.08534,190.18886c-1.29279,-0.35096 -4.27081,0.64656 -4.27081,0.64656c0,0 -0.02871,-0.78898 0.48023,-1.51581c0.79621,-1.13711 2.5041,-2.39088 5.48596,-1.70309c5.68627,1.31157 4.86351,6.49236 4.86351,6.49236c0,0 -5.26606,-3.56905 -6.55887,-3.92002z" fill="#fbdd00" stroke="none" stroke-width="0"/><path d="M253.1531,188.58996c-0.6731,-0.18272 -2.39253,-0.31764 -2.20707,-0.51607c0.27438,-0.29361 1.62743,-0.16279 2.29438,0.04128c1.20428,0.36848 1.85353,1.05316 1.82452,1.16001c-0.02901,0.10685 -1.0453,-0.44995 -1.91187,-0.6852z" fill="#a58c48" stroke="#000000" stroke-width="0"/><path d="M257.52943,191.97981c0,0 -0.96009,-1.22877 -0.96169,-1.50734c-0.00249,-0.4341 0.84677,0.93609 0.84677,0.93609l0.11494,0.57125z" fill="#a58c48" stroke="#000000" stroke-width="0"/><path d="M249.33591,188.34301c-0.09863,0.36325 -1.92204,0.91761 -1.92204,0.91761l0.53075,-0.64409c0,0 1.48989,-0.63677 1.39127,-0.27351z" fill="#a58c48" stroke="#000000" stroke-width="0"/><path d="M251.57292,196.07377c-3.10347,-0.88406 -5.39694,-2.97707 -4.7659,-5.30158c0.45245,-1.66675 3.6322,-2.12965 6.38746,-1.34012c2.63937,0.75634 4.88134,2.98361 4.42888,4.65036c-0.45248,1.66673 -3.40327,2.71909 -6.04382,1.9669z" fill="#fbdd00" stroke="#000000" stroke-width="0.25"/><path d="M255.98723,195.38959c-0.27267,1.00431 -2.40782,1.29885 -4.76904,0.65785c-2.36122,-0.641 -4.05434,-1.97482 -3.78169,-2.97913c0.27267,-1.00431 2.40782,-1.29883 4.76904,-0.65782c2.3612,0.64101 4.05433,1.9748 3.78167,2.97911z" fill="#fbdd00" stroke="#000000" stroke-width="0.25"/><path d="M246.54547,187.56267l-4.08904,-0.8243l-6.92152,-1.42306c0,0 -0.36536,-0.41239 -0.31527,-0.63976c0.0501,-0.22736 0.46973,-0.67446 0.46973,-0.67446l6.95226,1.00822l4.26598,0.5643c0,0 -0.27718,0.5827 -0.35016,0.98356c-0.07299,0.40086 -0.01199,1.00547 -0.01199,1.00547z" fill="#fbdd00" stroke="none" stroke-width="0"/><path d="M248.5167,188.23643c0,0 -1.79591,-0.35524 -1.86335,-0.44149c-0.256,-0.32738 -0.03324,-2.03942 0.39283,-2.4403c0.25158,-0.23671 2.76142,0.1197 2.76142,0.1197l-0.98816,2.56696z" fill="#c8c8c6" stroke="none" stroke-width="0"/><path d="M259.7202,186.05236c0,0 0.50186,-2.36265 -1.26129,-4.10132c-0.4277,-0.42176 -1.16915,-0.77048 -1.87485,-1.08181c-1.04911,-0.46281 -2.37695,-0.72328 -3.51959,-0.51788c-1.41179,0.25379 -2.69263,1.10114 -2.69263,1.10114c0,0 2.74367,-2.58283 5.8393,-1.29632c4.58802,1.9067 3.50908,5.89619 3.50908,5.89619z" fill="#fbdd00" stroke="#000000" stroke-width="0.25"/><path d="M235.53488,185.31529c0,0 -0.36536,-0.41239 -0.31527,-0.63976c0.0501,-0.22737 0.46971,-0.67447 0.46971,-0.67447l2.98586,0.41776c0,0 0.02793,0.3332 -0.04505,0.73406c-0.07299,0.40085 -0.22927,0.75657 -0.22927,0.75657z" fill="#a56402" stroke="none" stroke-width="0"/></g><g data-paper-data="{&quot;index&quot;:null}" stroke="none" stroke-width="0" stroke-linecap="butt" stroke-linejoin="miter"><path d="M243.33727,185.87637c0.06402,0.1195 -0.09905,1.15838 -0.24091,1.61085c-0.07751,0.24711 -0.21887,0.70847 -0.65226,0.74765c-0.11047,0.00999 -0.60524,-0.20867 -0.60524,-0.20867l-0.30932,0.28341c0,0 -0.24892,0.02183 -0.38524,-0.04382c-0.13632,-0.06565 -0.32352,-0.27629 -0.32352,-0.27629c0,0 -0.17024,0.0226 -0.28639,0.06312c-0.37912,0.1322 -0.53366,-0.21114 -0.53366,-0.21114c0,0 -0.26403,0.1274 -0.47359,0.09245c-0.33219,-0.05543 -0.68437,-0.30509 -0.82111,-0.49527c-0.2323,-0.32303 -0.64924,-1.35088 -0.40447,-1.62908c0.38121,-0.43328 0.85642,0.09537 0.85642,0.09537c0,0 -0.12302,-0.58971 -0.00393,-0.93435c0.18342,-0.5307 0.49235,-0.72288 0.49235,-0.72288l2.44072,-0.26546c0,0 0.84829,1.14422 1.25017,1.89412z" fill="#ffffff"/><path d="M242.08554,182.39376c0.22912,0.38863 0.43739,1.37537 -0.06788,1.62936c-1.84578,0.92783 -2.80701,0.18808 -3.20729,-0.66026c-0.26146,-0.55408 -0.25215,-1.01333 1.2627,-1.50565c0.53787,-0.17479 1.78338,0.14791 2.0125,0.53654z" fill="#fed000"/><path d="M239.78169,180.75303c0.63462,1.07655 1.35637,2.14594 1.35637,2.14594c0,0 -0.50149,0.19627 -0.80831,0.24755c-0.30681,0.05128 -0.52765,-0.06616 -0.52765,-0.06616c0,0 -0.81195,-1.65144 -1.06799,-2.08573c-0.41995,-0.7124 0.01879,-1.08153 0.43609,-1.75754c0.4173,-0.67601 0.92352,-1.12889 1.17204,-0.84754c0.75053,0.84966 -1.00441,1.61052 -0.56053,2.3635z" fill="#fed5c7"/></g><path d="M239.99772,177.53985c0,0 1.46146,0.40158 1.88052,0.6904c0.41907,0.28881 0.50521,0.95385 0.50521,0.95385c0,0 -0.42547,0.59375 -1.51688,-0.13424c-1.1734,-0.78267 -0.86886,-1.51002 -0.86886,-1.51002z" data-paper-data="{&quot;index&quot;:null}" fill="#afafaf" stroke="none" stroke-width="0" stroke-linecap="butt" stroke-linejoin="miter"/><path d="M242.64301,172.42144c0,0 -1.04382,-0.83964 -1.99611,-0.53118c-1.53919,0.49858 -1.18165,2.52314 -1.18165,2.52314c0,0 -0.39343,-1.34294 0.29573,-2.12171c0.45493,-0.51411 0.76767,-0.71264 1.47287,-0.63295c0.79019,0.0893 1.40913,0.76269 1.40913,0.76269z" data-paper-data="{&quot;index&quot;:null}" fill="#000000" stroke="none" stroke-width="0" stroke-linecap="butt" stroke-linejoin="miter"/><path d="M247.59879,172.70462c0.00578,2.87897 -2.69567,5.21823 -6.03384,5.22493c-3.33818,0.00669 -6.04897,-2.32173 -6.05475,-5.20067c-0.00578,-2.87895 2.69566,-5.21823 6.03383,-5.22494c3.33819,-0.0067 6.04898,2.32174 6.05476,5.20067z" data-paper-data="{&quot;index&quot;:null}" fill="#f79eb4" stroke="none" stroke-width="0" stroke-linecap="butt" stroke-linejoin="miter"/><path d="M247.40255,174.45068c0.00623,-0.01612 0.0382,1.04433 -0.71413,2.38978c-1.20639,2.17176 -2.68606,2.23244 -2.68606,2.23244l0.28079,-0.91174c0,0 1.54867,-1.72739 1.95414,-2.37564c0.40545,-0.64824 0.60066,-1.81667 0.60047,-1.81596" data-paper-data="{&quot;index&quot;:null}" fill="#f79eb4" stroke="#f89db5" stroke-width="0" stroke-linecap="butt" stroke-linejoin="round"/><g data-paper-data="{&quot;index&quot;:null}" fill="#ffd5c5" stroke="none" stroke-width="1" stroke-linecap="round" stroke-linejoin="round"><path d="M245.18752,177.67108c-0.06461,0.05049 -0.57099,0.44368 -1.40397,0.72441c-1.04521,0.35225 -2.42626,0.15696 -2.82292,0.11092c-0.47304,-0.05495 -1.31582,-0.58132 -1.44941,-0.72452c-0.96142,-1.03066 -0.244,-1.53126 -0.14285,-1.60994c0.04826,-0.0375 0.31861,-0.13906 0.6371,-0.03137c0.31043,0.10497 1.15984,0.57243 1.45184,0.55941c0.31374,-0.014 2.05773,-0.60775 2.96504,-0.60838c0.18858,0.00185 0.4369,0.06434 0.58881,0.18269c0.19768,0.15408 0.49375,0.44931 0.75886,0.19318c0.04289,-0.04148 0.13704,-0.15905 0.15001,-0.10082c0.11876,0.53442 -0.3376,0.99579 -0.73252,1.30442z"/><path d=""/></g><g data-paper-data="{&quot;index&quot;:null}" fill="#000000" stroke="#000000" stroke-width="0.125" stroke-linecap="butt" stroke-linejoin="round"><path d="M246.85033,174.64554c0.06238,-0.02097 0.35866,0.00891 0.79881,-0.09525c0.27698,-0.07634 0.55346,-0.15526 0.82164,-0.25806c0.16055,-0.06159 0.3068,-0.16716 0.46871,-0.22159c0.0055,-0.00187 -0.34354,0.21433 -0.44944,0.26532c-0.3319,0.15986 -0.63169,0.26952 -0.98486,0.37211c-0.07754,0.02254 -0.71127,0.13051 -0.70782,0.10593"/><path d="M246.98014,174.10885c0.02564,0.02541 0.357,0.03714 0.77403,-0.15057c0.41702,-0.18768 0.99471,-0.55093 1.01301,-0.58776c0.00689,-0.01389 -0.63331,0.51359 -0.92835,0.67388c-0.29505,0.16031 -0.91328,0.30088 -0.91006,0.27797"/></g><g data-paper-data="{&quot;index&quot;:null}" fill="#000000" stroke="none" stroke-width="1" stroke-linecap="round" stroke-linejoin="round"><path d="M244.69764,176.75476c-0.23917,-0.03506 -0.63577,-0.22905 -0.43972,-0.37163c0.14902,-0.10835 0.67818,-0.05088 0.76954,0.01583c0.15808,0.1154 -0.21988,0.36292 -0.32984,0.3558z"/><path d=""/></g><path d="M239.28946,173.69413c0.02036,-0.05306 -0.09597,1.89589 -0.07246,2.7763c0.04428,1.65795 0.42932,2.68551 0.42932,2.68551c0,0 -0.35821,-0.2337 -0.44405,-0.30504c-0.26524,-0.22031 -0.49934,-0.43865 -0.72508,-0.7032c-0.53091,-0.62223 -0.89012,-1.36834 -1.1134,-2.15237c-0.14878,-0.52251 -0.31342,-2.81153 -0.2906,-2.82533" data-paper-data="{&quot;index&quot;:null}" fill="#f79eb4" stroke="#f89db5" stroke-width="0" stroke-linecap="butt" stroke-linejoin="round"/><path d="M236.97848,173.13873c-0.01461,0.01467 0.28594,2.81491 0.43397,3.59281c0.14802,0.7779 0.61751,1.93277 0.61751,1.93277c0,0 -0.41141,-0.06262 -0.97463,-0.69252c-0.49731,-0.55621 -0.77705,-0.83799 -1.06366,-1.88459c-0.3719,-1.35808 -0.47833,-3.22423 -0.29933,-3.58405" data-paper-data="{&quot;index&quot;:null}" fill="#f79eb4" stroke="#f89db5" stroke-width="0" stroke-linecap="butt" stroke-linejoin="round"/><g data-paper-data="{&quot;index&quot;:null}" fill="#ee1a40" stroke="none" stroke-width="1" stroke-linecap="round" stroke-linejoin="round"><path d="M245.31811,169.99085c-0.08671,-0.05575 -2.2965,-1.4422 -3.88094,-1.16386c-1.24881,0.21938 -1.90698,0.73895 -3.0434,1.63367c-0.87642,0.68999 -1.41641,2.26034 -1.45029,2.26935c-0.00243,0.00064 0.32556,-4.10375 3.71785,-4.71551c2.74461,-0.46327 4.95788,1.32191 5.05016,1.43973"/><path d=""/></g><path d="M245.59752,171.09191c-0.02267,0.01847 0.92379,-0.58281 2.70699,-0.15081c0.31778,0.0788 1.34998,0.60507 1.61641,1.35097c0.32392,0.67819 0.89228,1.26642 0.8761,1.2648c-0.02322,-0.00239 -1.74393,-0.93235 -2.78412,-1.32566c-0.56798,-0.21477 -2.18298,-0.01901 -2.21282,0.0053" data-paper-data="{&quot;index&quot;:null}" fill="#f79eb4" stroke="#f89db5" stroke-width="0" stroke-linecap="butt" stroke-linejoin="round"/><path d="M244.75012,171.13155c0.00891,-0.08311 0.8507,-1.44443 1.13121,-1.69821c0.28051,-0.25377 0.44843,-0.3232 1.05289,-0.35586c2.05735,0.0878 3.66908,-0.22572 3.66908,-0.22572c0,0 -1.85511,0.95946 -2.60309,1.10185c-1.03772,0.19754 -2.29039,1.05702 -2.39416,1.14071" data-paper-data="{&quot;index&quot;:null}" fill="#f79eb4" stroke="#f89db5" stroke-width="0" stroke-linecap="butt" stroke-linejoin="round"/><g data-paper-data="{&quot;index&quot;:null}" stroke="none" stroke-width="1" stroke-linecap="round" stroke-linejoin="round"><g fill="#f79eb4"><path d="M238.15765,170.96771c-0.02323,-0.35877 -0.19009,-0.97758 -0.19407,-1.65389c-0.00398,-0.67631 0.05212,-1.54394 0.1742,-1.71854c0.15958,-0.22829 0.92714,-0.00913 1.71044,0.35941c0.78329,0.36855 1.75282,1.13904 1.7975,1.29111"/></g><g fill="#ffd5c5"><path d="M238.72419,170.5371c-0.0107,-0.08484 -0.12735,-0.47789 -0.14315,-0.97815c-0.0158,-0.50027 0.05185,-1.25423 0.07186,-1.28001c0.08106,-0.10447 0.93793,0.17852 1.362,0.38642c0.42408,0.20789 0.84896,0.58621 0.949,0.74655"/></g></g><g data-paper-data="{&quot;index&quot;:null}" fill="#f79eb4" stroke="none" stroke-width="1" stroke-linecap="round" stroke-linejoin="round"><path d="M245.11759,168.70237c0.2948,-0.08899 0.60767,-0.15931 1.27187,-0.20588c0.66418,-0.04659 1.49015,-0.11485 1.69966,-0.00252c0.04289,0.02302 0.16106,0.66718 0.07577,1.16951c-0.13312,0.78411 -0.59235,1.61367 -0.60083,1.62654"/><path d=""/></g><path d="M243.91939,174.55087c0.41494,0.60581 0.61334,0.59549 0.80987,0.61265c0.33713,0.02945 0.71706,-0.27285 1.0003,-0.63916c0.40495,-0.52372 0.66808,-0.58901 1.11723,-0.59379c0.06807,-0.00073 0.23419,-0.02581 0.08015,0.55083c-0.3267,1.22292 -1.15129,2.08584 -1.29786,2.09147c-0.58569,0.0225 -0.41409,-0.51121 -1.60118,-0.44786c-0.67613,0.03607 -2.21378,0.77541 -2.86714,0.58303c-1.2726,-0.58736 -1.599,-1.65937 -1.69497,-2.37208c-0.28838,-2.1417 1.36475,-1.92658 1.80939,-1.87651c2.48087,1.14848 1.99373,1.81183 2.64421,2.09144z" data-paper-data="{&quot;index&quot;:null}" fill="#ffffff" stroke="none" stroke-width="0" stroke-linecap="butt" stroke-linejoin="miter"/><path d="M245.73715,172.32649c-0.04073,-0.02966 0.88381,-0.26145 1.74464,0.23532c0.24729,0.14272 1.04006,1.15295 1.02328,1.30303c0.02642,0.60987 0.59397,1.54237 0.59558,1.54123c0.0348,-0.02482 -1.18105,-0.47539 -1.83908,-1.32955c-0.22296,-0.28597 -1.40064,-0.73465 -1.51585,-0.8187" data-paper-data="{&quot;index&quot;:null}" fill="#f79eb4" stroke="#f89db5" stroke-width="0" stroke-linecap="butt" stroke-linejoin="round"/><g data-paper-data="{&quot;index&quot;:null}" fill="#000000" stroke="#000000" stroke-width="0.125" stroke-linecap="butt" stroke-linejoin="round"><path d="M239.60925,173.16545c-0.02436,0.03606 -0.17757,0.04926 -0.3683,-0.03457c-1.22448,-0.53819 -1.38116,-0.9196 -1.38116,-0.9196c0,0 0.41798,0.51561 1.28629,0.74503c0.16908,0.04467 0.39461,0.06563 0.44349,0.06292c0.04662,-0.0026 0.08698,-0.03792 0.13639,-0.01991"/><path d="M239.41162,173.33007c0,0 -0.03641,0.04309 -0.1676,0.08635c-0.24325,0.08022 -0.86326,0.07779 -1.15059,0.03557c-0.68511,-0.10069 -1.06918,-0.32826 -1.06918,-0.32826c0,0 0.77502,0.2213 1.02129,0.26046c0.74319,0.11399 1.23198,-0.17306 1.29777,-0.22142c0.029,-0.02131 0.08971,-0.08039 0.1234,-0.08429"/></g><g data-paper-data="{&quot;index&quot;:null}" stroke="none" stroke-linecap="butt" stroke-linejoin="miter"><path d="M242.01383,175.2631c0.04495,-0.71923 0.27003,-1.29046 0.5027,-1.27593c0.23266,0.01453 0.38486,0.60937 0.33992,1.3286c-0.04497,0.71921 -0.27005,1.29045 -0.50273,1.27592c-0.23268,-0.01454 -0.38485,-0.60936 -0.33991,-1.32859z" fill="#169c5b" stroke-width="NaN"/><path d="M242.46548,174.90681c0.10225,0.00639 0.16988,0.2551 0.15112,0.5555c-0.01877,0.3004 -0.11687,0.53876 -0.21912,0.53236c-0.10225,-0.00639 -0.16988,-0.2551 -0.15112,-0.5555c0.01877,-0.3004 0.11687,-0.53876 0.21912,-0.53236z" fill="#000000" stroke-width="0"/><path d="M242.36563,174.7609c0.01901,-0.30393 0.13443,-0.54406 0.25784,-0.53635c0.1234,0.00773 0.20802,0.26035 0.18902,0.56429c-0.01901,0.30394 -0.13443,0.54406 -0.25784,0.53635c-0.1234,-0.00772 -0.20802,-0.26034 -0.18903,-0.56428z" fill="#ffffff" stroke-width="0"/></g><g data-paper-data="{&quot;index&quot;:null}" stroke="none" stroke-linecap="butt" stroke-linejoin="miter"><path d="M245.38057,175.6164c0.03171,-0.5073 0.19045,-0.9102 0.35459,-0.89994c0.16413,0.01025 0.27144,0.42982 0.23975,0.93711c-0.0317,0.50728 -0.19045,0.9102 -0.35458,0.89995c-0.16413,-0.01025 -0.27143,-0.42981 -0.23974,-0.93711z" fill="#169c5b" stroke-width="NaN"/><path d="M245.69911,175.36512c0.07214,0.00451 0.11985,0.17991 0.10661,0.39181c-0.01324,0.21188 -0.08243,0.38 -0.15455,0.37549c-0.07213,-0.00452 -0.11984,-0.17992 -0.1066,-0.39182c0.01323,-0.21188 0.08242,-0.37999 0.15454,-0.37548z" fill="#000000" stroke-width="0"/><path d="M245.62874,175.2622c0.01341,-0.21437 0.09482,-0.38377 0.18185,-0.37831c0.08705,0.00544 0.14673,0.18362 0.13333,0.39801c-0.0134,0.21436 -0.09482,0.38375 -0.18186,0.37829c-0.08703,-0.00545 -0.14672,-0.18361 -0.13332,-0.39799z" fill="#ffffff" stroke-width="0"/></g><path d="M240.17212,177.61702c0,0 0.14697,-0.07077 0.46438,-0.06348c0.31739,0.00729 0.80682,0.06092 0.80682,0.06092" data-paper-data="{&quot;index&quot;:null}" fill="none" stroke="#000000" stroke-width="0.125" stroke-linecap="round" stroke-linejoin="miter"/></g></g></svg>