<svg version="1.1" xmlns="http://www.w3.org/2000/svg" xmlns:xlink="http://www.w3.org/1999/xlink" width="197.49038" height="27.30969" viewBox="0,0,197.49038,27.30969"><g transform="translate(-141.25481,-165.34856)"><g data-paper-data="{&quot;isPaintingLayer&quot;:true}" fill-rule="nonzero" stroke="none" stroke-linecap="butt" stroke-linejoin="miter" stroke-miterlimit="10" stroke-dasharray="" stroke-dashoffset="0" style="mix-blend-mode: normal"><path d="M312.93408,192.04091c0,0 -3.09628,-4.37688 -5.48426,-6.81775c-2.38798,-2.44087 -6.67221,-5.608 -6.67221,-5.608l5.1479,-1.86429c0,0 2.73279,1.55852 4.22322,2.88679c1.49043,1.32827 2.97893,3.16262 2.97893,3.16262c0,0 7.45977,-7.99676 10.99595,-10.66144c7.32814,-5.5221 14.62158,-7.79028 14.62158,-7.79028c0,0 -8.24508,7.4565 -13.59386,13.09182c-5.34878,5.63532 -12.21725,13.60053 -12.21725,13.60053z" fill="#ff0000" stroke-width="0"/><g fill="#ff0000" stroke-width="0.26458"><path d="M141.25481,180.81572c0,-3.67207 1.05789,-6.56386 3.17366,-8.67531c2.11576,-2.11144 5.02494,-3.16717 8.72754,-3.16717c3.17366,0 5.37755,0.0918 6.61176,0.2754l-2.38022,7.71138l-0.52894,-0.55079c-1.05789,-0.73442 -2.38022,-0.82623 -3.96705,-0.27541c-1.76313,1.10164 -3.08548,2.29507 -3.96705,3.5803c-0.88157,1.10163 -1.05789,2.47863 -0.52894,4.13108l0.52894,0.55082c0.88157,1.28522 2.38022,1.65244 4.49599,1.10164c1.76313,-1.10164 3.08548,-2.29506 3.96705,-3.58027l3.17366,9.63922c-1.23419,0.73442 -3.70258,1.10164 -7.40518,1.10164c-3.70258,0 -6.61176,-1.19343 -8.72754,-3.5803c-2.11576,-2.38685 -3.17366,-5.1409 -3.17366,-8.26217z"/><path d="M163.20585,180.81572c0,-3.67207 1.05789,-6.56386 3.17366,-8.67531c2.11576,-2.11144 5.02494,-3.16717 8.72754,-3.16717c3.70258,0 6.61176,1.05573 8.72754,3.16717c2.11576,2.11146 3.17366,5.00324 3.17366,8.67531c0,3.12127 -1.05789,5.87532 -3.17366,8.26217c-2.11576,2.38686 -5.02494,3.5803 -8.72754,3.5803c-3.70258,0 -6.61176,-1.19343 -8.72754,-3.5803c-2.11576,-2.38685 -3.17366,-5.1409 -3.17366,-8.26217zM174.84256,176.1338c-1.76313,1.10164 -3.08548,2.29507 -3.96705,3.5803c-0.88157,1.10163 -1.05788,2.47863 -0.52894,4.13108l0.52894,0.55082c0.88157,1.28522 2.38022,1.65244 4.49599,1.10164c1.76313,-1.10164 3.08548,-2.29506 3.96705,-3.58027c1.05789,-1.46883 1.05789,-3.12127 0,-4.95732l-0.52894,-0.55079c-1.05789,-0.73442 -2.38022,-0.82623 -3.96705,-0.27541z"/><path d="M189.6529,192.10737v-23.13412h8.992l5.81835,10.32774v-10.32774h7.93411v23.13412h-8.992l-5.81835,-9.99725v9.99725z"/><path d="M215.04206,192.10737v-23.13412h18.51294v6.60975h-10.57882v1.65242h10.57882v6.60975h-10.57882v8.26221z"/><path d="M236.19968,192.10737v-23.13412h9.25646v23.13412z"/><path d="M248.10086,192.10737v-23.13412h12.95906c5.28941,0 7.93411,2.01964 7.93411,6.05893v1.10164c0,2.93767 -1.14604,4.86551 -3.43811,5.78355c0.70526,0.36719 1.4105,1.19342 2.11576,2.47865l2.11576,7.71138h-7.93411l-1.58683,-6.33434c-0.35263,-1.65242 -1.32236,-2.47865 -2.90919,-2.47865h-1.58683v8.813zM258.94415,178.33705c1.4105,0 2.11576,-0.73442 2.11576,-2.20325v-1.10164c0,-1.10163 -0.70526,-1.65242 -2.11576,-1.65242h-3.17366v4.95728z"/><path d="M272.43213,192.10737l3.96705,-23.13412h6.34729l2.90919,9.3638l2.90919,-9.3638h6.34729l3.96705,23.13412h-6.61176l-1.58683,-10.19002l-2.11576,10.19002h-5.81835l-2.11576,-10.19002l-1.58683,10.19002z"/></g><path d="M145.91447,181.89827c0,-3.3364 1.00093,-5.96384 3.00278,-7.88228c2.00185,-1.91843 4.75439,-2.87765 8.25763,-2.87765c3.00278,0 5.08802,0.08341 6.25577,0.25023l-2.25207,7.00647l-0.50046,-0.50044c-1.00093,-0.66729 -2.25207,-0.7507 -3.75346,-0.25024c-1.6682,1.00093 -2.91936,2.08527 -3.75346,3.25302c-0.8341,1.00092 -1.00093,2.25206 -0.50046,3.75345l0.50046,0.50047c0.8341,1.16774 2.25207,1.50139 4.25392,1.00093c1.6682,-1.00093 2.91936,-2.08526 3.75346,-3.25299l3.00278,8.75808c-1.16774,0.66729 -3.50323,1.00093 -7.00647,1.00093c-3.50323,0 -6.25577,-1.08434 -8.25763,-3.25302c-2.00185,-2.16866 -3.00278,-4.67096 -3.00278,-7.50691z" fill="#71ff33" stroke-width="0.26458"/><path d="M166.68362,181.89827c0,-3.3364 1.00093,-5.96384 3.00278,-7.88228c2.00185,-1.91843 4.75439,-2.87765 8.25763,-2.87765c3.50323,0 6.25577,0.95922 8.25763,2.87765c2.00185,1.91845 3.00278,4.54588 3.00278,7.88228c0,2.83595 -1.00093,5.33825 -3.00278,7.50691c-2.00185,2.16867 -4.75439,3.25302 -8.25763,3.25302c-3.50323,0 -6.25577,-1.08434 -8.25763,-3.25302c-2.00185,-2.16866 -3.00278,-4.67096 -3.00278,-7.50691zM177.69382,177.64433c-1.6682,1.00093 -2.91936,2.08527 -3.75346,3.25302c-0.8341,1.00092 -1.00092,2.25206 -0.50046,3.75345l0.50046,0.50047c0.8341,1.16774 2.25207,1.50139 4.25392,1.00093c1.6682,-1.00093 2.91936,-2.08526 3.75346,-3.25299c1.00093,-1.33456 1.00093,-2.83595 0,-4.50416l-0.50046,-0.50044c-1.00093,-0.66729 -2.25207,-0.7507 -3.75346,-0.25024z" fill="#71ff33" stroke-width="0.26458"/><path d="M191.70673,192.15773v-21.01939h8.50786l5.50508,9.38366v-9.38366h7.50693v21.01939h-8.50786l-5.50508,-9.08338v9.08338z" fill="#71ff33" stroke-width="0.26458"/><path d="M215.7289,192.15773v-21.01939h17.51617v6.00554h-10.00924v1.50137h10.00924v6.00554h-10.00924v7.50694z" fill="#71ff33" stroke-width="0.26458"/><path d="M235.74736,192.15773v-21.01939h8.75808v21.01939z" fill="#71ff33" stroke-width="0.26458"/><path d="M247.00774,192.15773v-21.01939h12.26132c5.00462,0 7.50693,1.83502 7.50693,5.50507v1.00093c0,2.66913 -1.08433,4.42075 -3.253,5.25487c0.66729,0.33363 1.33456,1.08433 2.00185,2.25207l2.00185,7.00647h-7.50693l-1.50139,-5.75531c-0.33364,-1.50137 -1.25116,-2.25207 -2.75255,-2.25207h-1.50139v8.00738zM257.26721,179.64618c1.33456,0 2.00185,-0.66729 2.00185,-2.00185v-1.00093c0,-1.00092 -0.66729,-1.50137 -2.00185,-1.50137h-3.00278v4.50413z" fill="#71ff33" stroke-width="0.26458"/><path d="M270.02899,192.15773l3.75346,-21.01939h6.00554l2.75255,8.50784l2.75255,-8.50784h6.00554l3.75346,21.01939h-6.25577l-1.50139,-9.25853l-2.00185,9.25853h-5.50508l-2.00185,-9.25853l-1.50139,9.25853z" fill="#71ff33" stroke-width="0.26458"/><path d="M313.16583,192.14828c0,0 -2.65719,-3.75618 -4.70652,-5.85091c-2.04933,-2.09473 -5.72602,-4.81272 -5.72602,-4.81272l4.41787,-1.59992c0,0 2.34525,1.33751 3.62432,2.47741c1.27907,1.1399 2.55648,2.71412 2.55648,2.71412c0,0 6.40188,-6.86273 9.4366,-9.14952c6.28893,-4.739 12.54807,-6.68553 12.54807,-6.68553c0,0 -7.07583,6.39908 -11.6661,11.23525c-4.59026,4.83617 -10.4847,11.67182 -10.4847,11.67182z" fill="#71ff33" stroke-width="0"/></g></g></svg>