<svg version="1.1" xmlns="http://www.w3.org/2000/svg" xmlns:xlink="http://www.w3.org/1999/xlink" width="29.13454" height="33.02584" viewBox="0,0,29.13454,33.02584"><g transform="translate(-225.86722,-166.05558)"><g data-paper-data="{&quot;isPaintingLayer&quot;:true}" fill-rule="nonzero" stroke-linejoin="miter" stroke-miterlimit="10" stroke-dasharray="" stroke-dashoffset="0" style="mix-blend-mode: normal"><g stroke="none" stroke-width="0" stroke-linecap="butt"><path d="M255.00176,186.03805c0,0 -1.69245,-0.58383 -2.81861,-0.76772c-1.12616,-0.18389 -5.44509,-0.16794 -5.44509,-0.16794c0,0 4.77104,-0.38227 5.24489,-1.38408c0.47391,-1.00194 -2.95315,-3.4865 -2.03837,-3.2599c4.83148,1.19684 5.05716,5.57964 5.05716,5.57964z" fill="#54c81c"/><path d="M238.68142,180.20563c0,0 4.11975,-0.38504 6.81747,-0.4792c3.26883,-0.11409 6.62278,1.52805 7.35585,2.93019c0.73307,1.40214 -4.05831,2.64236 -6.18308,2.31591c-2.30148,-0.3536 -7.99023,-4.76691 -7.99023,-4.76691z" fill="#ffffff"/></g><g stroke="none" stroke-width="0" stroke-linecap="butt"><path d="M235.31838,183.85248c0,0 -2.35903,1.44535 -4.41001,2.16906c-1.13052,0.39891 -2.67701,0.66093 -3.50382,0.94025c-1.39703,0.47192 -1.53733,1.06179 -1.53733,1.06179c0,0 0.27824,-1.54859 0.54752,-2.19855c0.26928,-0.64997 0.54611,-1.26423 0.79092,-1.171c0.24481,0.09323 8.11272,-0.80156 8.11272,-0.80156z" fill="#54c81c"/><path d="M226.74651,185.03388c0,0 1.12337,-3.13758 5.6697,-4.52116c3.55335,-1.08138 5.26496,-0.25172 5.94012,-0.53826c1.9631,-0.83313 1.61501,-0.45922 1.61501,-0.45922c0,0 -0.50843,2.80467 -6.24617,5.06737c-4.12986,1.62862 -6.97866,0.45127 -6.97866,0.45127z" fill="#ffffff"/></g><g data-paper-data="{&quot;index&quot;:null}" stroke="none" stroke-width="0" stroke-linecap="butt"><path d="M242.80875,189.38676c0,0 4.5171,0.88472 5.21911,-0.35767c0.71241,-1.26079 -1.30653,-5.72304 -1.30653,-5.72304c0,0 1.7861,0.46325 3.36839,3.85735c0.91619,1.9589 1.76567,7.05531 1.76567,7.05531c0,0 -3.15245,-1.58517 -5.36471,-2.18267c-1.83788,-0.49639 -3.68194,-2.64927 -3.68194,-2.64927z" fill="#54c81c"/><path d="M246.85372,183.24877c0.18966,0.14544 2.41776,3.62989 1.54113,5.87373c-0.82307,1.96588 -5.54505,0.29297 -5.54505,0.29297c0,0 -1.93128,-1.45103 -3.28193,-2.78722c-1.62271,-1.60531 -1.53654,-4.22104 -1.00152,-5.43018c0.53502,-1.20914 0.54283,0.36482 3.30315,0.16716c2.07977,-0.14891 4.80245,1.74416 4.98423,1.88355z" fill="#ffffff"/></g><g stroke="none" stroke-width="0" stroke-linecap="butt"><path d="M234.77278,187.33523c-0.30051,-1.37325 -0.52493,-2.26384 -0.52493,-2.26384l5.06956,2.91818c0,0 -0.5408,-0.81229 -1.74547,0.22319c-1.20468,1.03549 -2.3176,1.43376 -2.3176,1.43376c0,0 -0.18105,-0.93804 -0.48157,-2.31129z" fill="#54c81c"/><path d="M234.4145,184.82138c0.73623,-0.7748 0.2926,-1.67801 2.89156,-3.13404c2.62509,-0.65203 3.30357,-2.20055 3.30357,-2.20055l1.15141,0.44143c0,0 0.88714,4.67388 -1.03111,7.04718c-3.1279,0.8036 -4.94267,1.86693 -5.00382,0.04629c0,0 -2.05344,-1.41963 -1.31161,-2.20031z" fill="#ffffff"/></g><path d="M242.13604,198.86151c-0.82,1.10657 -2.12119,-2.26938 -2.41607,-3.32287c-0.49281,-1.17362 -0.4554,-3.58638 -0.4554,-3.58638c0,0 -0.07452,-1.66555 0.7234,-0.93712c0.37143,0.33909 0.75502,0.64455 1.09001,0.98461c0.38464,0.39046 0.70523,0.82658 0.86979,1.41164c0,0 1.31077,3.93534 0.18828,5.45011z" fill="#54c81c" stroke="none" stroke-width="0" stroke-linecap="butt"/><path d="M238.35639,188.98123l0.9949,-6.55256l1.46005,0.52071c0,0 -1.4414,3.65272 -1.25456,5.68873c0.03927,0.6468 0.98023,4.02567 0.98023,4.02567c0,0 0.76781,2.48427 0.59609,3.09615c-0.21844,0.77834 -0.84273,0.3122 -1.14351,-0.20951c-0.30078,-0.5217 -0.42676,-1.94421 -0.637,-2.84442c-0.25577,-1.09511 -0.99619,-3.72479 -0.99619,-3.72479z" fill="#ffffff" stroke="none" stroke-width="0" stroke-linecap="butt"/><path d="M244.45766,172.97468c0.00859,0.94975 -0.07743,1.89683 -0.15456,2.84309c-0.01022,0.38992 -0.24651,0.73044 -0.53374,0.97644c-0.31249,0.2591 -0.73442,0.31382 -1.11228,0.42736c-0.59,0.15435 -1.19861,0.22666 -1.80763,0.19935c-0.75038,0.00605 -1.69787,-0.09011 -2.35436,-0.52524c-0.44833,-0.20488 -0.37867,-0.19395 -0.84173,-0.37929c-0.9253,-0.51789 -1.57166,-1.44062 -1.88988,-2.43906c-0.19527,-0.59684 -0.29265,-1.23747 -0.22166,-1.86429c0.04502,-0.2639 0.34163,-3.40709 4.32968,-3.46865c4.21247,-0.06503 4.5701,3.97007 4.58616,4.23029z" data-paper-data="{&quot;index&quot;:null}" fill="#f0e9bb" stroke="none" stroke-width="0.17188" stroke-linecap="butt"/><path d="M237.61529,172.61081c-0.41598,-0.42365 -0.5583,-0.4713 -0.86131,-0.20713c-0.22698,0.17767 -0.383,0.79509 -0.39571,1.21444c-0.01699,0.56033 0.12964,0.98414 0.12964,0.98414c0,0 -0.12404,-0.12706 -0.22168,-0.41893c-0.09763,-0.29187 0.0206,-0.63787 -0.1514,-0.75489c-0.18013,-0.12255 -1.02375,-0.25868 -1.02375,-0.25868c0,0 1.18552,-0.00044 1.18793,-0.07506c0.01044,-0.32358 0.20923,-0.65476 0.32553,-0.75955c0.20913,-0.18845 0.33615,-0.26181 0.61027,-0.18982c0.19654,0.05162 0.31465,0.16919 0.52276,0.38144c0.67457,0.688 0.05779,2.33696 0.05779,2.33696c0,0 0.39068,-1.80504 -0.18008,-2.25292z" data-paper-data="{&quot;index&quot;:null}" fill="#000000" stroke="none" stroke-width="0" stroke-linecap="butt"/><path d="M236.96729,172.36794c0.60616,0.20764 0.80532,0.55337 0.88745,1.10205c0.13052,0.29848 0.0266,1.4395 -0.18074,1.43449c-0.21061,-0.03294 -0.45723,-0.07261 -0.71039,-0.12755c-0.39524,-0.08573 -0.50141,-0.18913 -0.46418,-0.27076c0.02567,-0.05636 -0.0445,-0.22565 -0.07917,-0.3932c-0.03529,-0.17062 -0.03528,-0.34144 -0.03743,-0.62631c-0.00193,-0.26421 0.0396,-0.55522 0.10168,-0.75089c0.08878,-0.27904 0.23453,-0.40844 0.48279,-0.36783z" data-paper-data="{&quot;index&quot;:null}" fill="#ffffff" stroke="none" stroke-width="0.17188" stroke-linecap="butt"/><path d="M235.91607,167.79562c0.55492,0.43033 -1.47468,3.36445 -1.1536,2.87623c-0.59889,-0.36967 -1.05316,-1.08916 -1.1892,-1.64663c-0.01248,-0.05104 0.04818,-0.192 0.04818,-0.192c-0.09144,0.02342 0.02946,-0.08827 0.03877,-0.18422c0.00727,-0.07548 -0.07313,-0.23526 -0.07313,-0.23526c-0.04193,0.02986 0.17942,-0.09125 0.26063,-0.17042c0.06712,-0.06536 0.03622,-0.10741 0.09176,-0.14781c0.38973,-0.28496 1.05398,-0.4295 1.97662,-0.2999z" data-paper-data="{&quot;index&quot;:null}" fill="#ed3e67" stroke="none" stroke-width="0.17188" stroke-linecap="butt"/><path d="M244.17636,172.06156c-0.05442,-0.09135 -0.16571,-0.14669 -0.32742,-0.24017c-0.12152,-0.07037 -0.3574,-0.20754 -0.43473,-0.27925c-0.19414,-0.18003 -1.01285,-0.15211 -0.96437,-0.07437c-0.06312,0.11711 0.00613,-0.31658 -1.07321,0.6976l-1.1491,1.08026c-0.10576,0.09933 -0.52524,0.50173 -0.8586,0.61762c-0.35831,0.12458 -0.88909,0.16958 -0.93696,0.09706c0,0 -0.33439,-0.58816 -0.53374,-0.81196c-0.07579,-0.0851 -0.06771,0.10003 0.00931,0.33755c0.01268,0.03928 0.24753,0.6308 0.23679,0.65699c-0.0582,0.14085 -1.24208,-1.708 -1.30611,-1.80978l-0.39452,-0.62857c-0.13318,-0.21194 -0.34389,-0.10351 -0.43268,-0.12632c-0.13338,-0.03437 -0.21429,0.07374 -0.22319,0.20652c-0.01146,0.16796 -0.02128,0.86218 -0.03365,0.96365c-0.06505,0.53742 0.22666,1.26409 0.37345,2.02725c0.08592,0.44637 1.89243,2.04002 1.66249,1.71649c-0.10372,-0.14607 -0.10986,1.0463 -0.41529,1.20004c-0.21797,0.10996 -1.28779,-1.78186 -1.39929,-2.18569l-0.63726,-2.30588c-0.18678,-0.6752 0.14801,-2.5846 0.2459,-2.93157l0.19117,-0.67786c0.35207,-0.80142 0.85389,-1.5155 1.52859,-2.12871c0.04296,-0.03907 0.66671,-0.75078 1.77592,-1.12485c0.70047,-0.23628 1.87187,-0.27505 1.96383,-0.27628c0.53926,-0.00716 1.59149,-0.03795 2.5528,0.17287c0.61148,0.13409 1.15617,0.43809 1.60531,0.67561c0.08072,0.04256 -0.78833,1.09152 -0.71079,1.12824c0.03765,0.01769 -0.19894,1.00406 -0.18984,1.09806l0.06066,0.62774c0.06137,0.63459 0.63889,1.28443 0.74302,1.36861c0.14248,0.11538 0.63387,0.46582 0.79845,0.47012l0.55471,0.01503c0.076,0.00184 0.73913,-0.47859 0.79171,-0.43185c0.18524,0.16478 0.09318,1.12464 0.05554,1.31337l-0.19792,0.99332c-0.06382,0.31995 -0.08059,0.50038 -0.28169,0.94074c-0.27567,0.60432 -0.554,1.2077 -0.9877,1.75935c-0.35043,0.44587 -2.04422,1.70473 -2.01231,1.54455l0.26963,-1.36258l0.23118,-1.92547l-0.15006,-2.38751z" data-paper-data="{&quot;index&quot;:null}" fill="#54c81c" stroke="none" stroke-width="0.17188" stroke-linecap="butt"/><path d="M248.2234,170.48812c-1.03361,0.35321 -2.37571,-1.80898 -2.37571,-1.80898c0,-0.39013 0.95421,-1.18725 2.04092,-1.07729c0.83058,0.08419 1.37343,0.3623 1.64562,0.70845c0.03886,0.04941 0.00224,0.08111 0.04531,0.15579c0.05226,0.09022 0.21623,0.24969 0.18677,0.21307c0,0 -0.10689,0.12868 -0.11803,0.19926c-0.01422,0.08981 0.06506,0.21869 -0.0089,0.17716c0,0 0.02005,0.14239 -0.00266,0.18637c-0.24723,0.48055 -0.80807,1.03925 -1.41331,1.24618z" data-paper-data="{&quot;index&quot;:null}" fill="#ed3e67" stroke="none" stroke-width="0.17188" stroke-linecap="butt"/><path d="M245.05256,169.37543c0.09902,0.06894 -0.00194,-0.52607 0.13185,-1.10676c0.14279,-0.62008 0.53312,-1.23176 1.06686,-1.26203c0.3082,-0.01739 0.58437,0.0809 0.84439,0.15527c0.5364,0.15333 0.91333,0.37152 0.72502,0.44414c-0.31955,0.12335 -0.72962,0.3532 -1.00365,0.54693c-0.39084,0.27618 -0.64207,0.4877 -0.62294,0.50898l1.23053,1.368l0.83016,0.48649c0.13798,0.0714 -0.23066,0.31014 -0.64697,0.48188c-0.35934,0.14842 -0.60933,0.37101 -0.73556,0.40926c-0.56207,0.17123 -0.48842,-0.09073 -1.14634,-0.44649c-0.38255,-0.20692 -0.82208,-1.68958 -0.67335,-1.58566z" data-paper-data="{&quot;index&quot;:null}" fill="#54c81c" stroke="none" stroke-width="0.17188" stroke-linecap="butt"/><path d="M244.28214,169.33903c0.02925,-1.3277 0.56811,-2.83726 1.47663,-2.40479c0.38102,0.18126 -0.20458,0.43289 -0.49661,1.21774c-0.18585,0.49948 -0.21858,1.26602 0.08317,2.20339c0.03181,0.0983 0.19711,0.29008 0.42337,0.53834c0.34666,0.38061 1.77112,0.17163 1.54997,0.30379l-0.86382,0.51584l-0.61046,-0.112c-0.38829,0.02751 -1.58893,-1.04743 -1.56224,-2.26231z" data-paper-data="{&quot;index&quot;:null}" fill="#ead32e" stroke="none" stroke-width="0.17188" stroke-linecap="butt"/><path d="M235.88399,169.37944c-0.04347,-0.13431 0.08419,-0.35464 0.08071,-0.47534c-0.00808,-0.27905 0.18933,-0.96049 0.6884,-1.42938l0.28385,-0.26656c0.13972,-0.13133 0.65137,-0.26564 0.751,-0.20181c0.11958,0.15783 -0.50397,0.4965 -0.91773,1.0596c-0.19834,0.26994 -0.47912,0.61997 -0.47912,0.61997c-0.07958,0.27516 -0.40711,0.69352 -0.40711,0.69352z" data-paper-data="{&quot;index&quot;:null}" fill="#ead32e" stroke="none" stroke-width="0.17188" stroke-linecap="butt"/><path d="M236.13641,168.60448c-0.05994,0.14187 -0.27607,0.84122 -0.3713,1.18623l-0.37541,1.35971c-0.02761,0.10004 -0.78658,-0.46081 -0.73258,-0.76583c-0.13277,-0.34574 -0.02148,-0.64247 0.02281,-0.9524c0.1475,-0.33898 0.42511,-0.79978 0.61066,-0.98636c0.14945,-0.15026 -0.02618,-0.62795 0.10229,-0.82587c0.19323,-0.29807 1.27083,-0.26483 1.27083,-0.26483z" data-paper-data="{&quot;index&quot;:null}" fill="#54c81c" stroke="none" stroke-width="0.17188" stroke-linecap="butt"/><path d="M241.4444,176.71893h0.86877" data-paper-data="{&quot;index&quot;:null}" fill="none" stroke="#dfcfa3" stroke-width="0.36953" stroke-linecap="round"/><path d="M240.62932,180.56216c-0.21644,-0.24282 -0.17368,-0.01616 -0.19567,-0.41334c-0.01729,-0.31382 -0.11077,-0.42879 -0.18319,-0.92755c-0.02292,-0.15794 0.11056,-0.57997 0.05451,-0.76215c-0.0533,-0.17235 0.22922,-0.71939 0.28916,-0.83016c0.23353,-0.43074 0.79192,-0.32006 0.92694,-0.32006c0.10689,0 0.61301,0.04613 0.69208,0.13011c0.25634,0.27241 0.32323,0.9786 0.31392,1.69625c-0.00316,0.82076 0.46274,1.28914 0.19566,1.67068c-0.32119,0.34297 -2.09341,-0.24378 -2.09341,-0.24378z" data-paper-data="{&quot;index&quot;:null}" fill="#319a2b" stroke="none" stroke-width="0.17188" stroke-linecap="butt"/><path d="M243.17294,179.10534c-1.18947,-0.33975 1.08194,0.46335 0.11947,-0.34252c-0.77283,-0.67362 -2.46844,-1.43421 -2.11376,-1.63667c0.35472,-0.2026 2.18348,1.16166 3.43599,1.58017c0.79154,0.26466 1.1499,2.00893 0.08398,2.34288c-0.98586,0.30886 -1.26535,-0.50241 -1.46234,0.00583c-0.15169,0.39368 0.32994,-1.83741 -0.06334,-1.94968z" data-paper-data="{&quot;index&quot;:null}" fill="#319a2b" stroke="none" stroke-width="0.17188" stroke-linecap="butt"/><g data-paper-data="{&quot;index&quot;:null}" stroke="none" stroke-linecap="butt"><path d="M240.69289,177.44148c0.17008,0.06905 0.3072,0.33949 0.39108,0.72079c0.08399,0.38126 0.11481,0.87325 0.07258,1.38519c-0.0422,0.51204 -0.14953,0.94795 -0.28883,1.23853c-0.1394,0.29062 -0.31073,0.43601 -0.48082,0.36696c-0.17021,-0.06911 -0.30722,-0.33958 -0.3912,-0.72085c-0.08388,-0.3813 -0.11481,-0.87325 -0.07258,-1.38519c0.04219,-0.51204 0.14963,-0.94798 0.28893,-1.23856c0.1393,-0.29058 0.31062,-0.43597 0.48084,-0.36686z" fill="#eb3d66" stroke-width="0.01872"/><path d="M240.45713,177.85312c0.07825,0.02894 0.13474,0.14718 0.16299,0.31504c0.02821,0.16776 0.02807,0.38516 -0.00709,0.61203c-0.0352,0.22677 -0.0988,0.4206 -0.17323,0.5505c-0.07442,0.1299 -0.15956,0.19592 -0.23769,0.16695c-0.0782,-0.02884 -0.13472,-0.14718 -0.16297,-0.31504c-0.02821,-0.16778 -0.02813,-0.38504 0.00713,-0.61194c0.03517,-0.22687 0.09877,-0.4207 0.1732,-0.5506c0.07433,-0.12987 0.15947,-0.1958 0.23768,-0.16696z" fill="#ffffff" stroke-width="0.01896"/></g><g data-paper-data="{&quot;index&quot;:null}" stroke="none" stroke-width="0.17188" stroke-linecap="butt"><path d="M239.85276,180.12969c-0.05996,1.15741 -0.29031,2.24035 -0.80817,3.25831c-0.17127,0.33653 -0.7636,0.28752 -1.12517,0.14266c-0.46752,-0.18622 -1.12058,-0.53677 -1.10417,-1.03024c0.0253,-0.75099 0.84053,-1.23499 1.15905,-1.93665c0.50421,-1.1101 1.69055,-3.09242 2.05053,-3.20496c0.35986,-0.11261 -0.14185,1.82485 -0.17206,2.7709z" fill="#319a2b"/><path d="M236.9121,184.12962c0.00277,0.00981 0.54458,1.04102 0.73522,1.16557c0.3207,0.20973 0.39496,-0.40126 0.68711,-0.02933c0.21664,0.27585 0.0771,0.61256 0.14411,0.84366c0.07668,0.26351 -0.27111,0.63162 -0.55283,0.73891c-0.15653,0.05959 -0.31883,-0.10933 -0.31464,-0.06806c0.02852,0.27915 -0.22581,0.55997 -0.48366,0.51692l-0.56114,-0.09345c-0.52866,-0.23724 -1.07447,-0.62649 -1.41162,-0.7537c-0.79171,-0.26035 -0.70433,-1.17134 -0.72878,-1.01623c0.26461,-0.72428 1.04719,-1.47452 1.86827,-1.7263c0.16857,-0.0457 0.50007,-0.01326 0.61796,0.42199z" fill="#f0e9bb"/><path d="M238.13382,183.21114c0.20246,0.1828 0.9778,-0.10666 0.73153,-0.05145c-0.0493,0.01106 0.23682,-0.12861 0.27755,0.06235c0.02662,0.12554 -0.18364,0.54982 -0.20386,0.70526c-0.04662,0.35904 -0.34722,0.74014 -0.49106,1.06049c-0.13547,0.30147 -0.56605,0.43198 -0.722,0.467c-0.22537,0.05089 -0.41168,-0.38406 -0.61303,-0.78942c-0.24485,-0.49301 -0.55458,-0.80521 -0.57784,-0.8236c0,0 -0.45247,-0.30278 -0.58233,-0.21044c0.41422,-0.30537 0.34605,-1.40498 0.79319,-1.67384c0.24487,-0.12839 1.18806,1.07315 1.38787,1.25365z" fill="#ead42f"/></g><g data-paper-data="{&quot;index&quot;:null}" stroke="none" stroke-width="0.17188" stroke-linecap="butt"><path d="M241.96077,179.91453c0.24499,0.42253 0.01719,0.7023 -0.14647,0.79713c-0.81969,0.43975 -1.99355,0.46981 -2.7525,0.1212c0.13798,0.09946 -0.62951,-0.52787 -0.2262,-1.33546c0.15917,-0.35637 0.27584,-1.07305 0.49638,-1.66064l0.35593,-0.50296c0.16348,-0.23118 0.57343,-0.21276 0.76645,0.02201c0.02857,0.0347 0.02234,-0.21898 0.18752,-0.29396c0.29733,-0.13494 0.84571,-0.12186 0.98996,0.13805c0.12671,0.22777 0.49215,0.37712 0.53918,0.7541c0.06342,0.50833 -0.46329,0.09963 -0.54644,0.50626c-0.04955,0.24164 0.33073,1.44467 0.33617,1.45428z" fill="#f0e9bb"/><path d="M243.59882,179.67489c-0.01346,0.29134 0.19184,1.93304 -0.09363,2.02352c-0.54775,0.13902 -1.34173,-0.75178 -1.89249,-0.66592c0.17004,-0.0295 0.28208,-0.60846 0.28208,-0.60846c0.0036,-0.03194 -0.00047,-0.50826 -0.19307,-1.0725c-0.15834,-0.46396 -0.35094,-0.93888 -0.13995,-1.07349c0.14585,-0.09327 0.57452,-0.32502 0.90975,-0.1994c0.35611,0.13357 0.87848,0.19285 1.19026,0.43073c0.13501,0.10297 0.62172,0.26467 0.698,0.38087c0.11588,0.17692 -0.20973,0.29057 -0.16363,0.26107c0.23024,-0.14737 -0.58358,0.22843 -0.5973,0.52355z" fill="#ead42f"/></g><path d="M235.20027,197.87208c-1.26696,0.14158 0.26236,-2.88094 0.80788,-3.7484c0.50679,-1.07831 2.194,-2.57948 2.194,-2.57948c0,0 1.10307,-1.10462 1.09075,-0.10016c-0.00574,0.46758 0.0192,0.92216 -0.00959,1.36554c-0.03306,0.50909 -0.13695,1.00342 -0.43942,1.48571c0,0 -1.90929,3.38299 -3.64362,3.57679z" fill="#54c81c" stroke="none" stroke-width="0" stroke-linecap="butt"/><path d="M239.53333,188.79467l2.99221,-5.06228l0.95872,0.73619c0,0 -2.07012,4.0113 -3.27206,5.66529c-0.39693,0.51219 -1.76119,3.42808 -1.76119,3.42808c0,0 -1.21148,2.01359 -1.74402,2.36041c-0.67741,0.44117 -0.69966,-0.78956 -0.56345,-1.12295c0,0 0.75422,-1.14319 1.1963,-1.8759c0.65351,-1.08312 2.19349,-4.12883 2.19349,-4.12883z" fill="#ffffff" stroke="none" stroke-width="0" stroke-linecap="butt"/><g data-paper-data="{&quot;index&quot;:null}" stroke="none" stroke-linecap="butt"><path d="M236.96931,175.04244c-0.25026,0 -0.45314,-0.42916 -0.45314,-0.95856c0,-0.5294 0.20288,-0.95856 0.45314,-0.95856c0.25026,0 0.45314,0.42916 0.45314,0.95856c0,0.5294 -0.20288,0.95856 -0.45314,0.95856z" fill="#008ae6" stroke-width="0"/><path d="M236.97401,173.25833c0.07882,0.00751 0.14831,0.09815 0.19679,0.23878c0.04832,0.14064 0.07575,0.33112 0.07057,0.5381c-0.00505,0.20684 -0.04175,0.39133 -0.097,0.52226c-0.0551,0.1309 -0.1288,0.20825 -0.20772,0.20089c-0.07892,-0.00734 -0.14829,-0.09815 -0.19677,-0.23877c-0.04835,-0.14064 -0.07579,-0.33112 -0.07075,-0.53808c0.0052,-0.20685 0.04188,-0.39135 0.09713,-0.52227c0.05512,-0.13091 0.1288,-0.20826 0.20772,-0.2009z" fill="#000000" stroke-width="0.0278"/><path d="M237.1184,173.49625c0.04207,0.09778 0.067,0.23122 0.06483,0.37734c-0.00203,0.14592 -0.0307,0.27689 -0.0755,0.37069c-0.04461,0.09378 -0.10533,0.15045 -0.17136,0.1474c-0.066,-0.00305 -0.12505,-0.06522 -0.16694,-0.16303c-0.04207,-0.09778 -0.067,-0.23123 -0.06482,-0.37735c0.00203,-0.14592 0.03069,-0.27689 0.07549,-0.37069c0.04461,-0.09377 0.10533,-0.15044 0.17136,-0.14739c0.066,0.00306 0.12505,0.06521 0.16695,0.16302z" fill="#ffffff" stroke-width="0.01811"/></g><path d="M235.06721,173.17001l0.66667,-0.02564l0.10256,0.15385z" data-paper-data="{&quot;index&quot;:null}" fill="#000000" stroke="none" stroke-width="0" stroke-linecap="butt"/><path d="M241.06895,173.2328c0.35637,-0.51369 0.6619,-0.65129 1.01899,-0.65129c0.50009,0 0.79537,0.76866 0.81319,1.38581c0.02,0.6926 -0.32037,1.01971 -0.32037,1.01971c0,0 -0.44393,0.13011 -0.93532,0.15374c-0.31485,0.01504 -0.66508,-0.01872 -0.92479,-0.01872c-0.25019,-0.027 0.26074,-1.76302 0.3483,-1.88925z" data-paper-data="{&quot;index&quot;:null}" fill="#ffffff" stroke="none" stroke-width="0.17188" stroke-linecap="butt"/><g data-paper-data="{&quot;index&quot;:null}" stroke="none" stroke-linecap="butt"><path d="M241.2193,175.37577c-0.25025,0 -0.45313,-0.42916 -0.45313,-0.95856c0,-0.5294 0.20288,-0.95856 0.45313,-0.95856c0.25025,0 0.45313,0.42916 0.45313,0.95856c0,0.5294 -0.20288,0.95856 -0.45313,0.95856z" fill="#008ae6" stroke-width="0"/><path d="M241.22401,173.59167c0.07883,0.00751 0.14831,0.09815 0.19679,0.23877c0.04832,0.14064 0.07575,0.33112 0.07057,0.53811c-0.00505,0.20684 -0.04175,0.39133 -0.097,0.52225c-0.05511,0.13089 -0.1288,0.20825 -0.20772,0.20089c-0.07892,-0.00735 -0.14829,-0.09815 -0.19677,-0.23877c-0.04835,-0.14064 -0.07579,-0.33112 -0.07075,-0.53808c0.0052,-0.20685 0.04188,-0.39135 0.09713,-0.52227c0.05512,-0.13091 0.1288,-0.20827 0.20772,-0.20091z" fill="#000000" stroke-width="0.0278"/><path d="M241.3684,173.82959c0.04207,0.09779 0.067,0.23123 0.06483,0.37735c-0.00203,0.14592 -0.03069,0.27689 -0.07549,0.37069c-0.04461,0.09379 -0.10533,0.15045 -0.17136,0.1474c-0.066,-0.00305 -0.12505,-0.06523 -0.16695,-0.16303c-0.04207,-0.09779 -0.067,-0.23123 -0.06483,-0.37735c0.00203,-0.14592 0.03069,-0.27689 0.07549,-0.37069c0.04461,-0.09377 0.10533,-0.15044 0.17136,-0.14739c0.066,0.00307 0.12505,0.06521 0.16695,0.16301z" fill="#ffffff" stroke-width="0.01811"/></g><path d="M242.14493,175.14627c0,0 -0.03262,0.54938 -0.43938,0.6276c-0.40676,0.07823 -0.95305,-0.63138 -0.95305,-0.63138l0.46708,0.04595z" data-paper-data="{&quot;index&quot;:null}" fill="#f0e9bb" stroke="none" stroke-width="0" stroke-linecap="butt"/><path d="M240.60834,175.0801c0,0 -0.0558,-1.42945 0.61877,-2.11745c0.20811,-0.21225 0.375,-0.3786 0.57155,-0.43023c0.27411,-0.07199 0.4987,0.00137 0.70783,0.18982c0.1163,0.10479 0.31509,0.43598 0.32552,0.75955c0.00241,0.07462 1.18793,0.07506 1.18793,0.07506c0,0 -0.84362,0.13614 -1.02374,0.25869c-0.172,0.11702 -0.05377,0.46302 -0.1514,0.75489c-0.09763,0.29187 -0.22167,0.41893 -0.22167,0.41893c0,0 0.14663,-0.42381 0.12964,-0.98414c-0.01271,-0.41935 -0.16873,-1.03677 -0.39571,-1.21444c-0.30301,-0.26416 -0.61607,-0.19212 -1.03205,0.23153c-0.57075,0.44788 -0.71667,2.05779 -0.71667,2.05779z" data-paper-data="{&quot;index&quot;:null}" fill="#000000" stroke="none" stroke-width="0" stroke-linecap="butt"/><path d="M237.85377,174.83581c0,0 -0.13578,0.53333 -0.55,0.53333c-0.41422,0 -0.81666,-0.8 -0.81666,-0.8l0.45,0.13333z" fill="#f0e9bb" stroke="none" stroke-width="0" stroke-linecap="butt"/></g></g></svg>