<svg version="1.1" xmlns="http://www.w3.org/2000/svg" xmlns:xlink="http://www.w3.org/1999/xlink" width="30.67363" height="44.97028" viewBox="0,0,30.67363,44.97028"><defs><radialGradient cx="222.37487" cy="188.20258" r="15.77076" gradientUnits="userSpaceOnUse" id="color-1"><stop offset="0" stop-color="#b7be45" stop-opacity="0.50196"/><stop offset="1" stop-color="#c2e266"/></radialGradient></defs><g transform="translate(-223.72146,-160.24268)"><g data-paper-data="{&quot;isPaintingLayer&quot;:true}" fill-rule="nonzero" stroke-miterlimit="10" stroke-dasharray="" stroke-dashoffset="0" style="mix-blend-mode: normal"><path d="M226.55185,192.78481c0.23225,-0.78349 8.0926,1.72942 8.0926,1.72942c0,0 5.17488,1.85703 5.27637,2.44084c0.39547,2.27506 2.60846,5.41613 0.79253,6.77977c-0.36257,0.27226 -7.11,1.58198 -7.65858,1.47152c-4.0013,-0.80573 -6.95902,-5.56041 -6.50291,-12.42155z" fill="url(#color-1)" stroke="none" stroke-width="NaN" stroke-linecap="butt" stroke-linejoin="miter"/><g stroke-linejoin="miter"><path d="M253.91238,189.03077c0,0 -0.69574,-2.06628 -1.21243,-2.97192c-0.41879,-0.73405 -4.58711,-1.12102 -4.58711,-1.12102c0,0 0.4413,-1.31532 1.86536,-0.77685c0.40051,0.15143 1.06353,0.18828 1.91516,0.61931c0.85162,0.43103 1.59432,0.88583 1.98532,1.67951c0.39099,0.79369 0.64319,2.29359 0.45006,3.06202c-0.29518,1.0638 -0.58125,0.7531 -0.58125,0.7531z" fill="#947043" stroke="none" stroke-width="0" stroke-linecap="butt"/><path d="M246.71529,188.14359l-0.32275,-3.01709l0.71159,-0.12199l0.06461,0.18204c0,0 0.19134,-0.22492 0.26467,-0.24724c0.32127,-0.09778 0.29489,0.04939 0.29489,0.04939c0,0 0.54417,-0.27754 0.90076,-0.4467c0.35658,-0.1692 1.89221,0.22584 1.95047,0.24461c0.50593,0.1629 1.30109,0.32444 2.01421,0.77198c0.60085,0.3771 1.1866,1.4987 1.42347,2.35297c0.18722,1.14485 -0.14583,2.45054 -0.14583,2.45054c0,0 -1.59703,0.11282 -2.60253,-0.25785c-0.85925,-0.52368 -1.27802,-0.72044 -1.66614,-0.90585c-0.31545,-0.15072 -1.1757,-0.43642 -1.1757,-0.43642l-0.42089,-0.02805l-0.3162,-0.17631z" fill="#20201f" stroke="none" stroke-width="0" stroke-linecap="butt"/><path d="M246.9283,185.81319c0,0 0.55947,-0.27099 0.99016,-0.44039c0.54582,-0.21468 1.95752,-0.71293 1.95752,-0.71293" fill="none" stroke="#c8c7c6" stroke-width="0.125" stroke-linecap="round"/><path d="M244.95866,184.99548c0.743,0.0339 0.95976,-0.15472 1.40735,0.17134c0.44758,0.32607 0.64822,0.74803 0.68589,1.35363c-0.05613,1.09737 -0.14885,1.42518 -0.46128,1.83722c-0.16385,0.14392 -1.21496,0.40423 -1.89792,0.24837c-0.17909,-0.04088 -1.07098,-0.86711 -1.01608,-1.61261c0.0549,-0.74551 0.34809,-2.04059 1.28203,-1.998z" fill="#c274a1" stroke="none" stroke-width="0" stroke-linecap="butt"/><path d="M245.01773,185.01589c0.74302,0.03389 0.75141,1.37253 0.70354,1.75616c-0.05836,0.46783 -0.28657,2.01029 -0.96953,1.85445c-0.17908,-0.04086 -1.07098,-0.86711 -1.01608,-1.61262c0.0549,-0.74551 0.34809,-2.04059 1.28203,-1.998z" fill="#cacacd" stroke="none" stroke-width="0" stroke-linecap="butt"/><path d="M253.26033,187.8303c0.23141,0.00047 0.30157,-0.2235 0.47648,-0.14183c0.29312,0.13687 0.27015,0.35945 0.249,0.42075c-0.03381,0.09788 -0.3517,0.15069 -0.72914,0.05987c-0.37743,-0.09081 -0.8111,-0.19514 -0.8111,-0.19514c0,0 0.58336,-0.14413 0.81476,-0.14366z" fill="#c8c7c6" stroke="none" stroke-width="0" stroke-linecap="butt"/><path d="M251.63659,190.22618c0,0 -1.09603,-0.33421 -0.86498,-1.59415c0.32898,-1.7942 2.4655,-2.05779 2.4655,-2.05779" fill="none" stroke="#c8c7c6" stroke-width="0.125" stroke-linecap="round"/><path d="M252.3654,189.90244c0,0 0.44465,-0.03503 0.83165,-0.06552c0.38702,-0.03048 0.69269,0.07152 0.71075,0.17348c0.01129,0.06387 -0.00094,0.28729 -0.31193,0.3765c-0.18554,0.05322 -0.21972,-0.17898 -0.44834,-0.2148c-0.2286,-0.03582 -0.78214,-0.26965 -0.78214,-0.26965z" data-paper-data="{&quot;index&quot;:null}" fill="#c8c7c6" stroke="none" stroke-width="0" stroke-linecap="butt"/></g><path d="M242.05997,183.27662l0.29796,2.63274l2.22752,0.2869c0,0 0.23884,0.35092 0.34199,0.59261c0.10315,0.24169 0.07466,0.62113 0.07466,0.62113l-2.29885,-0.1643c0,0 -1.16768,-0.03493 -1.53386,-0.70654c-0.32336,-0.59306 -0.5508,-3.11684 -0.5508,-3.11684z" fill="#20201f" stroke="none" stroke-width="0" stroke-linecap="butt" stroke-linejoin="miter"/><g stroke-linejoin="miter"><path d="M251.30206,194.42062c0,0 0.93697,-1.96867 1.19547,-2.97881c0.20951,-0.81872 -2.51671,-3.99553 -2.51671,-3.99553c0,0 1.23182,-0.6383 1.88071,0.73897c0.1825,0.38733 0.63332,0.87492 0.94558,1.77687c0.31224,0.90197 0.52966,1.7453 0.25868,2.58752c-0.27099,0.84222 -1.1328,2.09547 -1.80599,2.51335c-0.95192,0.55919 -0.9414,0.13696 -0.9414,0.13696l0.9837,-0.77936z" fill="#947043" stroke="none" stroke-width="0" stroke-linecap="butt"/><path d="M246.74716,188.77808l1.86622,-2.39257l0.59617,0.40719l-0.08016,0.17576c0,0 0.29391,-0.02855 0.36214,0.0064c0.29886,0.15316 0.17756,0.24057 0.17756,0.24057c0,0 0.58404,0.179 0.95792,0.3054c0.37388,0.12638 1.20268,1.47817 1.2315,1.53218c0.25029,0.4689 0.70933,1.13793 0.91056,1.95547c0.16953,0.68881 -0.18954,1.90218 -0.61339,2.68076c-0.66162,0.95291 -1.80895,1.65956 -1.80895,1.65956c0,0 -1.22608,-1.02953 -1.69085,-1.99516c-0.25328,-0.97384 -0.41738,-1.40648 -0.56734,-1.80963c-0.12189,-0.32765 -0.54137,-1.13121 -0.54137,-1.13121l-0.28294,-0.31285l-0.10464,-0.34659z" fill="#20201f" stroke="none" stroke-width="0" stroke-linecap="butt"/><path d="M248.52086,187.25159c0,0 0.59047,0.19433 1.0178,0.37212c0.54151,0.22531 1.90248,0.84901 1.90248,0.84901" fill="none" stroke="#c8c7c6" stroke-width="0.125" stroke-linecap="round"/><path d="M247.6741,185.29424c0.51036,0.54107 0.79727,0.55626 0.89215,1.10183c0.09486,0.54557 -0.05437,0.98831 -0.44847,1.44971c-0.80347,0.74953 -1.09804,0.92063 -1.60913,0.99946c-0.21782,-0.01053 -1.15416,-0.55445 -1.53657,-1.14136c-0.10028,-0.15392 -0.16661,-1.3679 0.39129,-1.86543c0.55792,-0.49754 1.66922,-1.22432 2.31073,-0.54421z" fill="#c274a1" stroke="none" stroke-width="0" stroke-linecap="butt"/><path d="M247.70237,185.34998c0.51037,0.54107 -0.41452,1.50885 -0.7157,1.75124c-0.36728,0.29561 -1.60392,1.24531 -1.98632,0.65838c-0.10027,-0.1539 -0.16661,-1.3679 0.3913,-1.86544c0.55792,-0.49754 1.66922,-1.2243 2.31073,-0.54421z" fill="#cacacd" stroke="none" stroke-width="0" stroke-linecap="butt"/><path d="M251.66833,193.1045c0.16596,0.16127 0.37213,0.04911 0.44102,0.22942c0.11545,0.30221 -0.05583,0.44618 -0.11367,0.47551c-0.09236,0.04682 -0.35753,-0.1363 -0.5656,-0.46404c-0.20808,-0.32774 -0.44715,-0.7043 -0.44715,-0.7043c0,0 0.51944,0.3021 0.68538,0.46337z" fill="#c8c7c6" stroke="none" stroke-width="0" stroke-linecap="butt"/><path d="M249.8662,193.69699c0,0 0.32492,0.30557 0.60769,0.57152c0.28278,0.26596 0.41282,0.56082 0.34947,0.64274c-0.03968,0.0513 -0.21328,0.19248 -0.4884,0.02229c-0.16414,-0.10156 -0.01526,-0.28299 -0.14247,-0.47629c-0.12719,-0.19331 -0.32631,-0.76026 -0.32631,-0.76026z" data-paper-data="{&quot;index&quot;:null}" fill="#c8c7c6" stroke="none" stroke-width="0" stroke-linecap="butt"/><path d="M248.83534,193.697c0,0 -0.55518,-1.00234 0.48703,-1.74708c1.48414,-1.06053 3.20273,0.23582 3.20273,0.23582" fill="none" stroke="#c8c7c6" stroke-width="0.125" stroke-linecap="round"/><g fill="#83c4ac" stroke="none" stroke-width="0" stroke-linecap="butt"><path d="M249.09348,188.36676c-0.1076,0.07625 -0.78524,-0.08379 -0.78524,-0.08379l0.37885,-0.96216l0.21384,-0.02727c0,0 0.28373,1.00856 0.19254,1.07319z"/><path d="M248.96951,186.46061c0.1312,-0.01333 0.55254,0.32635 0.55254,0.32635l-0.58596,0.56706l-0.28983,-0.00327c0,0 0.21205,-0.87883 0.32325,-0.89013z" data-paper-data="{&quot;index&quot;:null}"/><path d="M250.15223,188.61019c-0.09236,0.0941 -0.78763,0.05678 -0.78763,0.05678l0.15908,-1.00302l0.24879,-0.07582c0,0 0.45804,0.94228 0.37977,1.02207z"/><path d="M249.56894,186.73249c0.12259,-0.04866 0.62064,0.16313 0.62064,0.16313l-0.4089,0.70548l-0.27971,0.07595c0,0 -0.0359,-0.90334 0.06798,-0.94458z" data-paper-data="{&quot;index&quot;:null}"/><path d="M250.8951,188.8615l-0.65516,-0.72446c0,0 -0.34803,-0.17135 -0.28812,-0.33216c0.05991,-0.1608 0.37531,0.09812 0.37531,0.09812l0.82556,0.31269l0.11931,0.37787z"/></g></g><path d="M243.8504,181.78121l2.25466,3.03004l0.81984,1.07585c0,0 -0.09207,0.43035 -0.24411,0.6583c-0.15205,0.22796 -0.58622,0.58654 -0.58622,0.58654l-1.0754,-1.45394l-2.3975,-3.37584z" fill="#20201f" stroke="none" stroke-width="0" stroke-linecap="butt" stroke-linejoin="miter"/><g data-paper-data="{&quot;index&quot;:null}" stroke-width="0" stroke-linecap="butt" stroke-linejoin="miter"><g data-paper-data="{&quot;index&quot;:null}"><path d="M224.24405,176.16848c-0.72922,-0.77407 -0.69054,-1.99491 0.08636,-2.72681c0.77692,-0.73191 1.99789,-0.69772 2.72711,0.07635c0.72922,0.77407 0.69056,1.99491 -0.08635,2.72681c-0.77692,0.73191 -1.9979,0.69774 -2.72712,-0.07633z" fill="#c2e266" stroke="none"/><path d="M225.16568,176.17285c-0.45052,-0.47822 -0.42664,-1.23245 0.05335,-1.68463c0.47999,-0.45219 1.2343,-0.43107 1.68481,0.04717c0.45052,0.47822 0.42664,1.23245 -0.05335,1.68463c-0.47999,0.45219 -1.2343,0.43106 -1.68481,-0.04717z" fill="#c2e266" stroke="#000000"/><path d="M227.43649,179.1032c-0.95933,-0.51609 -1.13967,-1.8537 -1.13967,-1.8537l1.52068,-1.45301c0,0 0.25074,0.0427 1.38578,0.76245c1.17853,0.74735 1.55849,3.09243 1.55849,3.09243c0,0 -2.36594,-0.0321 -3.32529,-0.54818z" fill="#e8edf4" stroke="#000000"/><path d="M227.23888,176.67135c-0.37057,0.35223 -1.19373,0.72879 -1.19373,0.72879l-0.30871,-0.64536c0,0 0.73482,-0.13655 1.08305,-0.42923c0.34822,-0.29265 0.58466,-0.97242 0.58466,-0.97242l0.54142,0.16298c0,0 -0.28328,0.75273 -0.70669,1.15519z" fill="#dbded5" stroke="#000000"/></g><g data-paper-data="{&quot;index&quot;:null}" stroke="none"><path d="M234.22071,175.24867c0.14644,-0.13795 0.49726,-0.00337 0.7836,0.30058c0.28635,0.30395 0.39976,0.66218 0.25334,0.80014c-0.14644,0.13795 -0.49728,0.00339 -0.78362,-0.30057c-0.28635,-0.30395 -0.39977,-0.6622 -0.25332,-0.80015z" fill="#000000"/><path d="M238.86077,178.1245c0.15253,-0.1437 1.22823,0.08635 1.35423,0.22009c0.126,0.13374 0.69775,1.25404 0.54521,1.39773c-0.15253,0.1437 -1.14509,0.62168 -1.14509,0.62168c0,0 -0.9069,-2.09581 -0.75437,-2.23951z" fill="#807d5a"/><path d="M227.55313,174.96802l-0.00795,-0.20028l7.58671,0.9554l0.14064,0.29688z" fill="#6e6e73"/><path d="M230.06143,174.95961l0.00027,0.44297l-1.78761,-0.1858l0.02183,-0.4638z" fill="#c2e266"/></g></g><g stroke-width="0" stroke-linecap="butt" stroke-linejoin="miter"><g data-paper-data="{&quot;index&quot;:null}"><path d="M241.65383,164.51514c-0.99665,0.93892 -2.56296,0.89509 -3.49844,-0.09792c-0.93548,-0.993 -0.88588,-2.55913 0.11078,-3.49806c0.99665,-0.93892 2.56298,-0.89508 3.49844,0.09793c0.93548,0.993 0.88587,2.55913 -0.1108,3.49807z" fill="#c2e266" stroke="none"/><path d="M241.63128,164.35868c-0.61573,0.58006 -1.5834,0.55298 -2.16134,-0.06051c-0.57795,-0.61348 -0.5473,-1.58104 0.06844,-2.1611c0.61573,-0.58006 1.5834,-0.55299 2.16134,0.06049c0.57795,0.61348 0.54729,1.58105 -0.06845,2.16111z" fill="#c2e266" stroke="#000000"/><path d="M245.27856,165.32955c0.5875,1.26794 0.44768,4.30013 0.44768,4.30013c0,0 -2.97393,-0.6659 -3.84082,-2.23219c-0.8349,-1.50851 -0.8704,-1.83287 -0.8704,-1.83287l1.97694,-1.83621c0,0 1.69912,0.3332 2.28662,1.60116z" fill="#e8edf4" stroke="#000000"/><path d="M242.17953,164.89055c-0.54772,0.51144 -1.53333,0.8166 -1.53333,0.8166l-0.16732,-0.70579c0,0 0.88854,-0.25078 1.28995,-0.67432c0.4014,-0.42354 0.63245,-1.35407 0.63245,-1.35407l0.8028,0.44469c0,0 -0.54516,1.02529 -1.02453,1.47288z" fill="#dbded5" stroke="#000000"/></g><g data-paper-data="{&quot;index&quot;:null}" stroke="none"><path d="M242.47369,174.66617c0.44066,0.16765 1.5315,1.5689 1.5315,1.5689l-2.25429,2.15032c0,0 -1.62294,-0.24204 -2.36694,-1.49717c-0.54696,-0.92268 -0.31131,-2.92765 -0.1696,-3.06942c0.91303,-0.91344 2.81863,0.67971 3.2593,0.84739z" fill="#c2e266"/><path d="M240.82908,174.10795c0.36733,0.38993 0.51284,0.84948 0.32499,1.02644c-0.18785,0.17697 -0.63793,0.00435 -1.00525,-0.38559c-0.36733,-0.38993 -0.51283,-0.84949 -0.32497,-1.02646c0.18785,-0.17697 0.63791,-0.00434 1.00525,0.3856z" fill="#000000"/><path d="M245.39206,177.9293c0.47384,0.71799 1.06909,2.0254 1.06909,2.0254l-0.52837,1.16094c0,0 -1.43316,0.56101 -1.9427,-0.01773c-0.253,-0.28736 -2.15152,-2.60365 -2.15152,-2.60365l0.35799,-1.41553c0,0 0.47451,-0.37623 0.81342,-0.54785c0.33891,-0.17163 0.98788,-0.30869 0.98788,-0.30869c0,0 0.92037,0.98913 1.39421,1.70713z" fill="#20201f"/><path d="M245.96179,181.02135c0,0 -0.68797,1.23447 -0.88367,1.41881c-0.19569,0.18434 -1.58657,-0.63351 -1.7482,-0.80508c-0.16164,-0.17158 -0.37397,-1.56665 -0.17828,-1.75098c0.19569,-0.18434 2.81013,1.13727 2.81013,1.13727z" fill="#c274a1"/><path d="M240.73112,175.12828l-0.3694,-0.20281l-0.64329,-9.78826l0.25586,0.02549z" fill="#6e6e73"/><path d="M239.6422,166.09745l0.59557,0.00751l0.10122,2.30334l-0.56724,-0.03421z" fill="#c2e266"/></g></g><g stroke="none" stroke-width="0" stroke-linecap="butt" stroke-linejoin="miter"><g><g><path d="M240.65955,187.59517c-0.39964,-0.75109 -0.87863,-2.09253 -0.87863,-2.09253l1.57826,-1.88058c0,0 0.33156,-0.14984 0.87458,-0.00704c0.35268,0.09274 0.77428,0.52301 0.77428,0.52301c0,0 -0.17496,-0.68897 0.39714,-0.76474c0.36733,-0.04863 0.98954,0.86957 1.12877,1.2423c0.08196,0.21942 0.09356,0.65096 -0.04518,0.95786c-0.08753,0.19359 -0.34026,0.34211 -0.34026,0.34211c0,0 0.19935,0.31943 -0.1214,0.56092c-0.09826,0.074 -0.21175,0.20288 -0.21175,0.20288c0,0 0.07091,0.27275 0.04963,0.42256c-0.02128,0.14982 -0.17788,0.34453 -0.17788,0.34453l-0.40756,0.09937c0,0 -0.09352,0.53281 -0.16325,0.61906c-0.27361,0.33836 -0.73566,0.19922 -0.98411,0.12614c-0.45492,-0.1338 -1.40897,-0.57617 -1.47265,-0.69587z" fill="#20201f"/><path d="M238.16718,184.83235c-0.35351,-0.86945 0.11297,-1.80233 0.95064,-2.46436c0.83769,-0.66203 1.99243,-1.00583 2.32325,-0.123c0.33083,0.88283 -0.08804,2.3038 -1.14472,3.13888c-1.05669,0.8351 -1.7757,0.31794 -2.12918,-0.55152z" fill="#20201f"/><path d="M238.37982,181.79059c-0.37882,-0.78773 -0.90216,-2.00268 -1.19077,-3.09902c-0.09557,-0.36304 0.05692,-0.50664 0.2508,-0.57645c0.2886,-0.1039 0.49962,-0.00155 0.61289,0.27685c0.45206,1.11098 0.86761,2.07409 1.22599,2.81936c0.21848,0.45435 1.02373,1.89085 1.02373,1.89085l-0.8939,1.00929c0,0 -0.48721,-1.19463 -1.02879,-2.32083z" fill="#fed5c7"/></g><path d="M242.9444,184.29316c0,0 -0.35382,-0.65166 0.20516,-0.87518c0.35888,-0.14352 0.79975,0.15957 1.03622,0.50066c0.13921,0.20081 -1.24138,0.37453 -1.24138,0.37453z" fill="#c0c2c6"/><path d="M242.32632,185.56589c0,0 -0.35382,-0.65166 0.20516,-0.87518c0.35888,-0.14352 0.79975,0.15957 1.03622,0.50066c0.13921,0.20081 -1.24138,0.37453 -1.24138,0.37453z" fill="#c0c2c6"/><path d="M241.73142,186.69106c0,0 -0.35382,-0.65166 0.20516,-0.87518c0.35888,-0.14352 0.79975,0.15957 1.03622,0.50066c0.13921,0.20081 -1.24138,0.37453 -1.24138,0.37453z" fill="#c0c2c6"/><path d="M240.26971,185.81212c0,0 -0.09075,-0.73595 0.51126,-0.73937c0.38651,-0.00222 0.68588,0.44121 0.78108,0.84518c0.05607,0.23783 -1.29232,-0.10582 -1.29232,-0.10582z" fill="#c0c2c6"/><path d="M241.14446,187.42609c0,0 -0.35382,-0.65166 0.20516,-0.87518c0.35888,-0.14352 0.79975,0.15957 1.03622,0.50066c0.13921,0.20081 -1.24138,0.37453 -1.24138,0.37453z" fill="#c0c2c6"/></g><g><path d="M238.0334,181.44596l-0.41295,-1.06906l1.28528,-0.6538l0.44227,1.05141z" fill="#83c4ac"/><path d="M236.80661,179.47535c-0.25326,-0.60985 -0.03726,-1.30842 0.51671,-1.57646c0.55398,-0.26802 1.22075,0.00322 1.48935,0.60584c0.47751,1.07135 0.13394,1.46905 -0.42001,1.73709c-0.55398,0.26802 -1.16385,0.25025 -1.58606,-0.76644z" fill="#20201f"/><path d="M238.27047,182.90218l-0.28407,-1.46789l1.34394,-0.68913l1.02956,1.17902l-0.49868,0.43672l-1.03938,0.47335z" fill="#bebec0"/></g></g><g stroke="none" stroke-width="0" stroke-linecap="butt" stroke-linejoin="miter"><path d="M242.12799,179.70817l0.92284,-0.96037l3.06898,-0.16817l1.57147,-2.07826c0,0 -0.34414,2.03486 -1.0027,2.64064c-0.60607,0.55748 -4.5606,0.56616 -4.5606,0.56616z" fill="#f79db4"/><path d="M241.17161,176.67467c-0.08531,-0.68507 0.4009,-1.30958 1.08597,-1.39489c0.68507,-0.08531 1.30957,0.4009 1.39487,1.08596c0.08531,0.68507 -0.39298,1.04453 -1.07805,1.12983c-0.68507,0.08531 -1.31748,-0.13585 -1.40278,-0.82092z" fill="#83c4ac"/><path d="M239.28095,182.57713c0.81906,0.21925 1.43665,0.19217 3.24981,-1.40501c1.61675,-1.42416 1.4541,-2.40347 1.50479,-3.06185c0.06147,-0.79841 0.12984,-1.11937 0.12984,-1.11937l1.74867,-0.82534c0,0 -0.02941,0.6432 0.37383,1.41903c0.49858,0.80364 0.23237,1.55431 -0.17799,1.99793c-0.12072,0.63164 0.10113,1.54267 -0.64795,1.94448c0.08333,0.80767 -0.48626,1.41875 -1.26213,1.55238c-0.08237,0.75894 -0.75252,1.07835 -1.2576,0.99436c-0.48537,0.80464 -1.23417,0.9403 -1.76477,0.73913c-0.8023,0.55878 -2.47693,-2.3911 -1.8965,-2.23574z" fill="#c0c2c6"/><path d="M237.17191,177.32873l0.2415,-0.27944l1.69795,-1.62612c0,0 0.79589,1.18573 1.5609,1.52785c0.76501,0.34212 0.9128,0.40668 1.6946,0.39564c0.7818,-0.01106 2.06947,-0.45112 2.06947,-0.45112c0,0 -0.14561,0.55836 -0.0397,1.10573c0.06627,0.34245 0.44019,0.63018 0.36315,0.93001c-0.13042,0.50758 -0.64998,0.56668 -1.04574,1.19909c-0.21171,0.33832 -0.08613,1.11544 -0.51999,1.60013c-0.77471,0.86545 -1.46424,0.62486 -2.20779,0.82027c-0.34791,0.09144 -0.52838,0.76835 -1.06171,0.8054c-0.40083,0.02784 -1.6811,-1.12554 -1.4396,-1.8795c0.24151,-0.75393 0.33391,-1.68434 0.33391,-1.68434c0,0 -0.55131,-0.70369 -0.90832,-1.23121c-0.35701,-0.52751 -0.73865,-1.23238 -0.73865,-1.23238z" fill="#20201f"/><path d="M242.57934,178.29198l-0.50614,-0.02816l-0.06012,-0.95534c0,0 0.15249,0.01225 0.42725,0.0164c0.24751,0.00375 0.6521,-0.05973 0.6521,-0.05973l0.03615,0.38198z" data-paper-data="{&quot;index&quot;:null}" fill="#c274a1"/><path d="M242.00701,179.35914l0.1779,-1.08098l0.40726,0.02356l-0.16113,0.95695z" data-paper-data="{&quot;index&quot;:null}" fill="#c0c2c6"/><path d="M238.90015,181.45903l-0.37091,-0.09816c0,0 0.12882,-0.38874 0.16563,-0.63354c0.04086,-0.27174 0.05373,-0.42419 0.05373,-0.42419l0.93261,0.21564l-0.05503,0.50392z" fill="#c274a1"/><path d="M241.02071,180.86743l-1.41509,0.08733l0.0434,-0.40563l1.5402,-0.08361z" fill="#c0c2c6"/><path d="M240.56943,176.4548c1.49959,1.33316 0.36624,2.28035 0.19768,2.35607c-0.16358,0.0735 -0.64984,0.17989 -0.98026,0.1803c-0.33644,0.00042 -1.05006,-0.15016 -1.05006,-0.15016l0.12282,0.8247c0,0 -0.8448,-0.4274 -1.2698,-0.88352c-0.96276,-1.03326 -0.60259,-1.45985 -0.60259,-1.45985l1.86704,-1.8524c0,0 0.48662,-0.10732 1.71514,0.98484z" fill="#c0c0c3"/><path d="M237.70179,177.42679l-0.79775,-0.01926l1.54498,-1.24923z" fill="#222225"/><g><g><path d="M241.49366,181.46995c-0.62119,-0.13784 -0.97311,-0.93299 -0.78604,-1.77604c0.18707,-0.84303 0.84229,-1.4147 1.46348,-1.27688c0.62119,0.13782 0.9731,0.93298 0.78603,1.77603c-0.18707,0.84303 -0.84229,1.4147 -1.46348,1.27688z" fill="#c0c2c6"/><path d="M240.33176,178.71565c-0.01546,-0.2503 0.17492,-0.46576 0.42522,-0.48123c0.2503,-0.01546 0.46577,0.17493 0.48123,0.42522c0.01546,0.2503 -0.17493,0.46576 -0.42522,0.48122c-0.2503,0.01546 -0.46576,-0.17492 -0.48122,-0.42522z" fill="#000000"/><path d="M240.52574,178.90689c-0.13376,-0.13243 -0.13485,-0.34821 -0.00242,-0.48198c0.13243,-0.13376 0.34821,-0.13485 0.48198,-0.00242c0.13376,0.13243 0.01051,0.1982 -0.12191,0.33197c-0.13243,0.13376 -0.22386,0.28486 -0.35764,0.15244z" fill="#c478a9"/><path d="M240.18309,181.07056c-0.23576,-0.08554 -0.35754,-0.34599 -0.27201,-0.58173c0.08554,-0.23576 0.34599,-0.35754 0.58173,-0.27201c0.23576,0.08554 0.35754,0.34598 0.27202,0.58172c-0.08554,0.23576 -0.34599,0.35754 -0.58173,0.27201z" fill="#000000"/><path d="M240.43578,180.96881c-0.17476,0.06995 -0.37311,-0.01503 -0.44306,-0.18977c-0.06995,-0.17476 0.01503,-0.37311 0.18977,-0.44306c0.17476,-0.06995 0.18599,0.06933 0.25592,0.24407c0.06995,0.17476 0.17212,0.31881 -0.00264,0.38877z" fill="#c478a9"/><path d="M240.83752,180.74499c-0.05896,-0.06259 -0.1032,-0.34313 0.0735,-0.50958c0.17671,-0.16647 0.41875,-0.22326 0.47771,-0.16067c0.05896,0.06259 0.06398,0.35492 -0.11272,0.52138c-0.1767,0.16646 -0.37952,0.21145 -0.43848,0.14888z" fill="#000000"/><path d="M241.26537,178.87009c0.08107,-0.02862 0.24075,0.10427 0.32157,0.3332c0.08083,0.22892 -0.05754,0.48647 -0.13863,0.51509c-0.08107,0.02862 -0.27022,-0.13272 -0.35105,-0.36164c-0.08083,-0.22892 0.08702,-0.45803 0.16809,-0.48665z" data-paper-data="{&quot;index&quot;:null}" fill="#000000"/><path d="M240.99429,180.48403c-0.06243,-0.06627 -0.0593,-0.17058 0.00695,-0.233c0.06627,-0.06243 0.17058,-0.05931 0.23301,0.00695c0.06243,0.06627 0.05931,0.17058 -0.00695,0.23301c-0.06627,0.06243 -0.17058,0.0593 -0.233,-0.00696z" fill="#ffffff"/><path d="M241.24882,179.55228c-0.06589,-0.06993 -0.0626,-0.18007 0.00735,-0.24595c0.06993,-0.06589 0.18007,-0.0626 0.24595,0.00735c0.06589,0.06993 0.0626,0.18007 -0.00735,0.24595c-0.06993,0.06589 -0.18007,0.0626 -0.24595,-0.00735z" fill="#ffffff"/></g><path d="M241.6347,179.81661c0.06479,0.01121 0.12207,0.10018 0.1057,0.19487c-0.01638,0.09469 -0.10022,0.15924 -0.16501,0.14802c-0.06479,-0.01121 -0.00545,-0.35411 0.05934,-0.34291z" fill="#000000"/><path d="M241.66009,180.45956c0.07181,0.0245 0.09294,0.15301 0.04721,0.28703c-0.04573,0.13402 -0.14099,0.22283 -0.21281,0.19833c-0.07181,-0.0245 -0.09294,-0.15301 -0.04721,-0.28703c0.04573,-0.13402 0.14099,-0.22283 0.21281,-0.19833z" fill="#ad597c"/><path d="M241.97557,179.00491c0.07181,0.0245 0.09294,0.15301 0.04721,0.28703c-0.04573,0.13402 -0.14099,0.22283 -0.21281,0.19833c-0.07181,-0.0245 -0.09294,-0.15301 -0.04721,-0.28703c0.04573,-0.13402 0.14099,-0.22283 0.21281,-0.19833z" fill="#ad597c"/></g><g fill="#83c4ac"><path d="M238.43604,179.69315l-0.55616,-0.30925c0,0 0.12763,-0.37285 0.24437,-0.53223c0.10687,-0.14593 0.42909,-0.38731 0.42909,-0.38731l0.18573,0.0802c0,0 -0.10308,0.31788 -0.1562,0.51919c-0.0472,0.17892 -0.14683,0.62942 -0.14683,0.62942z"/><path d="M239.45196,178.65029c-0.20742,-0.01793 -0.71955,-0.08073 -0.71955,-0.08073l-0.22462,-0.07584c0,0 0.72583,-0.29534 0.89928,-0.34671c0.18942,-0.05612 0.58349,-0.05047 0.58349,-0.05047l0.10346,0.62787c0,0 -0.4577,-0.05818 -0.64203,-0.07412z" data-paper-data="{&quot;index&quot;:null}"/><path d="M239.40669,179.88198c0,0 -0.31971,-0.3385 -0.50413,-0.57204c-0.18442,-0.23353 -0.35241,-0.51262 -0.35241,-0.51262l0.18598,-0.21195c0,0 0.28978,0.38929 0.48996,0.6265c0.20018,0.23722 0.61518,0.68305 0.61518,0.68305z"/><path d="M240.02336,179.81527c0,0 -0.44838,-0.45113 -0.67323,-0.66511c-0.22486,-0.21397 -0.67006,-0.58537 -0.67006,-0.58537l0.21178,-0.12608c0,0 0.41636,0.30222 0.63847,0.50023c0.22213,0.19801 0.54097,0.53732 0.54097,0.53732z" data-paper-data="{&quot;index&quot;:null}"/></g></g><g><g data-paper-data="{&quot;index&quot;:null}" fill="#86cbb6" stroke="none" stroke-width="0" stroke-linecap="butt" stroke-linejoin="miter"><path d="M229.48672,178.80917c-0.03998,0.48088 -0.02351,1.05257 -0.02351,1.05257l-1.01067,-0.18074c0,0 0.12219,-0.8983 0.29221,-1.29674c0.17002,-0.39847 0.76669,-0.99631 0.76669,-0.99631l0.08833,0.68539c0,0 -0.07307,0.25499 -0.11309,0.73584z"/><path d="M230.24098,179.81758c0,0 -0.25338,-0.46652 -0.38405,-0.73178c-0.16291,-0.33065 -0.51815,-1.0995 -0.51815,-1.0995l0.12719,-0.5823c0,0 0.72013,0.97709 0.96373,1.28116c0.17683,0.22074 0.55155,0.69202 0.55155,0.69202z"/></g><g stroke="none" stroke-width="0" stroke-linecap="butt" stroke-linejoin="miter"><path d="M226.28281,177.68917c-0.21231,-0.8253 0.18413,-1.20313 0.60251,-1.48451c0.5435,-0.37066 1.31772,-0.61325 1.31772,-0.61325c0,0 0.36333,0.94386 0.72745,1.40296c0.36411,0.45911 1.15528,0.97095 1.15528,0.97095c0,0 -1.34822,1.0265 -2.24585,0.87578c-0.89763,-0.15073 -1.25359,-0.36585 -1.55711,-1.15195z" data-paper-data="{&quot;index&quot;:null}" fill="#20201f"/><path d="M226.976,178.49504c-0.4267,-0.32177 1.13761,-0.6854 1.13761,-0.6854l0.45637,0.93891c0,0 -1.04134,0.16321 -1.59399,-0.25354z" data-paper-data="{&quot;index&quot;:null}" fill="#b2b1b2"/></g><path d="M228.28462,171.43998c1.12157,-3.14413 4.22897,-4.9088 6.94058,-3.94152c2.71159,0.96727 4.00057,4.30021 2.87901,7.44435c-1.12157,3.14413 -4.22895,4.9088 -6.94057,3.94153c-2.71159,-0.96727 -4.00057,-4.30022 -2.87899,-7.44436z" fill="#f79eb4" stroke="none" stroke-width="0" stroke-linecap="butt" stroke-linejoin="miter"/><path d="M232.61016,178.58965c-0.00073,-0.00007 1.16576,0.20631 1.91224,0.04073c0.74647,-0.1656 2.892,-1.04817 2.892,-1.04817l0.95316,0.03994c0,0 -0.55154,1.37437 -3.00155,1.78588c-1.51949,0.25961 -2.50832,-0.1248 -2.49104,-0.12531" fill="#f79eb4" stroke="#f89db5" stroke-width="0" stroke-linecap="butt" stroke-linejoin="round"/><g fill="#ffd5c5" stroke="none" stroke-width="1" stroke-linecap="round" stroke-linejoin="round"><path d="M235.1761,178.52553c-0.05056,-0.03169 0.09171,-0.08114 0.14516,-0.10772c0.32996,-0.16432 0.15063,-0.54202 0.07145,-0.77979c-0.06079,-0.1827 -0.03673,-0.43767 0.0245,-0.61602c0.30372,-0.85494 1.44602,-2.30036 1.56402,-2.59141c0.10984,-0.27087 -0.04699,-1.22765 -0.04221,-1.55532c0.00491,-0.33619 0.19094,-0.55707 0.24243,-0.59c0.10795,-0.06907 0.81945,-0.57801 1.4697,0.67249c0.09034,0.17375 0.30492,1.14396 0.19865,1.60818c-0.08914,0.38922 -0.36645,1.75619 -1.04766,2.62366c-0.54291,0.69132 -1.08267,1.03725 -1.15185,1.0813c-0.42283,0.2691 -1.01016,0.54513 -1.47419,0.25462z"/><path d=""/></g><g fill="#000000" stroke="#000000" stroke-width="0.125" stroke-linecap="butt" stroke-linejoin="round"><path d="M233.41956,178.83371c0.0243,0.00494 -0.28915,0.5662 -0.33633,0.63177c-0.2147,0.2986 -0.41821,0.54453 -0.67976,0.80395c-0.08342,0.08275 -0.40382,0.33952 -0.40023,0.33496c0.10539,-0.13441 0.25377,-0.23699 0.36545,-0.36774c0.18649,-0.21842 0.35323,-0.45264 0.51776,-0.68821c0.24521,-0.38004 0.31605,-0.6693 0.35667,-0.7211"/><path d="M232.99049,178.85049c0.02267,0.00464 -0.31636,0.54036 -0.56603,0.76492c-0.24967,0.22454 -0.9607,0.65172 -0.94531,0.64988c0.04082,-0.00493 0.57618,-0.42808 0.8924,-0.75844c0.31624,-0.33036 0.41589,-0.64661 0.40049,-0.67924"/></g><g fill="#000000" stroke="none" stroke-width="1" stroke-linecap="round" stroke-linejoin="round"><path d="M235.95028,177.503c-0.03003,0.10603 -0.38959,0.37954 -0.44555,0.19202c-0.03235,-0.10841 0.09026,-0.62637 0.2422,-0.73062c0.19989,-0.13715 0.25023,0.30148 0.20338,0.53861z"/><path d=""/></g><path d="M235.1188,169.11903c0.02062,-0.01689 2.12312,0.90302 2.56589,1.21783c0.6644,0.47239 1.2476,1.06023 1.65673,1.76852c0.17392,0.30113 0.3015,0.59473 0.42054,0.91835c0.03856,0.10476 0.13915,0.52046 0.13915,0.52046c0,0 -0.83988,-0.7062 -2.38775,-1.30186c-0.82197,-0.31629 -2.6978,-0.85776 -2.64099,-0.85925" fill="#f79eb4" stroke="#f89db5" stroke-width="0" stroke-linecap="butt" stroke-linejoin="round"/><path d="M234.95158,167.59471c0.39895,-0.04851 2.12232,0.67527 3.27813,1.47954c0.89071,0.61978 1.06284,0.97761 1.42094,1.63219c0.40553,0.74132 0.32711,1.14999 0.32711,1.14999c0,0 -0.93165,-0.82834 -1.61543,-1.22774c-0.68376,-0.39941 -3.22268,-1.61824 -3.24139,-1.60936" fill="#f79eb4" stroke="#f89db5" stroke-width="0" stroke-linecap="butt" stroke-linejoin="round"/><g stroke="none" stroke-width="1" stroke-linecap="round" stroke-linejoin="round"><path d="M228.73054,176.01958c-0.07742,-0.13417 -0.95352,-3.00471 0.48342,-5.67044c1.81295,-3.28175 5.80129,-2.24823 5.79979,-2.24595c-0.02085,0.0318 -1.69786,0.06235 -2.66765,0.73258c-1.25752,0.86904 -1.98714,1.3719 -2.64904,2.58197c-0.83981,1.53527 -0.33827,4.26906 -0.31732,4.37679" fill="#20201f"/><path d="" fill="#ee1a40"/></g><path d="M231.32335,177.03262c-0.01082,0.00657 -0.09915,1.38611 -0.65747,1.97753c-0.55831,0.59143 -2.74896,1.61965 -2.75266,1.63488c-0.00388,0.0158 1.16385,-1.07527 1.65918,-1.93952c0.49533,-0.86425 0.76476,-2.26143 0.7398,-2.24624" fill="#f79eb4" stroke="#f89db5" stroke-width="0" stroke-linecap="butt" stroke-linejoin="round"/><path d="M230.37928,176.45761c-0.11353,0.06985 -1.10763,1.14255 -2.03737,1.40066c-0.92973,0.25811 -3.22117,0.05925 -3.22117,0.05925c0,0 1.80998,-0.57479 2.70487,-1.21082c0.89487,-0.63604 2.79341,-1.06277 2.87471,-1.04341" fill="#f79eb4" stroke="#f89db5" stroke-width="0" stroke-linecap="butt" stroke-linejoin="round"/><path d="M234.15931,173.35688c-0.20412,0.5722 0.09357,2.69192 0.09357,2.69192c0,0 -3.43808,-2.55848 -1.83651,-4.89176c0.93474,-0.87106 2.68004,0.42515 2.68004,0.42515c0,0 -0.733,1.20247 -0.93709,1.77468z" data-paper-data="{&quot;index&quot;:null}" fill="#20201f" stroke="none" stroke-width="0" stroke-linecap="butt" stroke-linejoin="miter"/><path d="M234.13306,176.03318c-0.06962,-0.47258 -0.5742,-1.26551 -0.66962,-2.15317c-0.64845,-2.91536 0.03266,-3.10366 1.95496,-2.11634c0.6397,0.32857 1.54107,0.99436 1.66951,2.39007c-0.03697,0.68009 -1.24751,1.88239 -1.50742,2.50761c-0.45631,1.09772 0.10407,1.11428 -0.11282,1.65881c-0.05428,0.1363 -1.14311,0.62519 -2.4049,0.52455c-0.59498,-0.04747 -0.87374,-0.14799 -0.85033,-0.21189c0.15456,-0.42173 0.66192,-0.69562 1.29082,-0.90234c0.4399,-0.14458 0.85177,-0.4017 0.93662,-0.72928c0.04948,-0.19096 0.1255,-0.37452 -0.30687,-0.968z" fill="#ffffff" stroke="none" stroke-width="0" stroke-linecap="butt" stroke-linejoin="miter"/><path d="M232.3581,178.79518c0,0 -0.53354,-0.19521 -0.67515,-0.58215c-0.04908,-0.82877 2.27512,-0.66131 2.27512,-0.66131c0,0 -1.07684,0.61262 -1.13383,0.7724c-0.05701,0.15982 -0.46613,0.47104 -0.46613,0.47104z" data-paper-data="{&quot;index&quot;:null}" fill="#20201f" stroke="none" stroke-width="0" stroke-linecap="butt" stroke-linejoin="miter"/><path d="M232.30414,177.32258c0.01961,0.06584 0.06964,1.37054 -0.35233,2.076c-0.42198,0.70546 -1.84706,1.49878 -1.84706,1.49878c0,0 0.80185,-1.26526 1.02189,-1.9834c0.22003,-0.71816 0.29592,-1.93304 0.30259,-1.91061" fill="#f79eb4" stroke="#f89db5" stroke-width="0" stroke-linecap="butt" stroke-linejoin="round"/><g fill="#000000" stroke="#000000" stroke-width="0.125" stroke-linecap="butt" stroke-linejoin="round"><path d="M233.83945,171.22135c-0.00046,-0.05259 0.04631,-0.07882 0.06433,-0.12189c0.0189,-0.04516 0.07447,-0.26472 0.08886,-0.43902c0.07386,-0.89504 -0.27249,-1.46128 -0.27249,-1.46128c0,0 0.30714,0.2751 0.40534,1.60904c0.01531,0.20776 -0.04833,0.34777 -0.09046,0.35868"/><path d="M234.23286,171.34446c0.01494,-0.03046 0.09092,-0.06794 0.12068,-0.08815c0.06757,-0.04586 0.50143,-0.41067 0.64227,-1.14923c0.04536,-0.24519 0.09571,-1.04962 0.09571,-1.04962c0,0 0.08616,0.43802 -0.0478,1.11743c-0.0562,0.28492 -0.26104,0.87011 -0.41792,1.0726c-0.0846,0.1092 -0.13739,0.1291 -0.13739,0.1291"/></g><g stroke="none" stroke-linecap="butt" stroke-linejoin="miter"><path d="M235.1765,174.38131c0.69291,0.19792 1.20272,0.54009 1.1387,0.76427c-0.06404,0.22417 -0.67767,0.24547 -1.37057,0.04755c-0.69291,-0.19792 -1.20274,-0.5401 -1.1387,-0.76426c0.06404,-0.22417 0.67767,-0.24547 1.37057,-0.04753z" fill="#169c5b" stroke-width="NaN"/><path d="M235.26477,174.65932c0.2894,0.08268 0.50124,0.22952 0.4731,0.32804c-0.02813,0.0985 -0.28557,0.11136 -0.57498,0.02867c-0.2894,-0.08268 -0.50124,-0.22952 -0.4731,-0.32804c0.02813,-0.0985 0.28557,-0.11136 0.57498,-0.02867z" fill="#000000" stroke-width="0"/><path d="M234.58564,174.54515c0.29283,0.08362 0.50265,0.24782 0.4687,0.36667c-0.03396,0.11887 -0.29884,0.14745 -0.59166,0.06382c-0.29283,-0.08362 -0.50267,-0.24782 -0.46871,-0.36667c0.03396,-0.11887 0.29887,-0.14746 0.59166,-0.06382z" fill="#ffffff" stroke-width="0"/></g><g stroke="none" stroke-linecap="butt" stroke-linejoin="miter"><path d="M234.48789,177.76336c0.48873,0.13962 0.84833,0.38093 0.80316,0.53904c-0.04517,0.15813 -0.47797,0.17314 -0.96671,0.03355c-0.48873,-0.13962 -0.84832,-0.38094 -0.80314,-0.53906c0.04517,-0.15813 0.47796,-0.17314 0.96672,-0.03353z" fill="#169c5b" stroke-width="NaN"/><path d="M234.55015,177.95942c0.20415,0.0583 0.35353,0.1619 0.33369,0.23139c-0.01984,0.06949 -0.20141,0.07853 -0.40555,0.02023c-0.20415,-0.0583 -0.35353,-0.1619 -0.33367,-0.23136c0.01984,-0.06949 0.20141,-0.07853 0.40555,-0.02022z" fill="#000000" stroke-width="0"/><path d="M234.07113,177.87891c0.20653,0.05901 0.35453,0.17478 0.33058,0.25864c-0.02395,0.08387 -0.2108,0.104 -0.41732,0.04503c-0.20653,-0.05901 -0.35455,-0.17477 -0.33061,-0.25865c0.02395,-0.08387 0.21082,-0.10399 0.41734,-0.04501z" fill="#ffffff" stroke-width="0"/></g><path d="M238.10014,173.42688c0,0 0.02852,0.36127 -0.01783,0.55519c-0.04634,0.19393 -0.23303,0.73674 -0.23303,0.73674" data-paper-data="{&quot;index&quot;:null}" fill="none" stroke="#000000" stroke-width="0.125" stroke-linecap="round" stroke-linejoin="miter"/><g fill="#86cbb6" stroke="none" stroke-width="0" stroke-linecap="butt" stroke-linejoin="miter"><path d="M232.39453,168.8487l-0.60028,0.56748c0,0 -0.09992,-1.00471 0.04418,-1.50211c0.14411,-0.49742 0.7106,-1.42122 0.7106,-1.42122l1.07212,0.59735c0,0 -0.44775,0.5166 -0.77454,0.99194c-0.32678,0.47531 -0.45208,0.76657 -0.45208,0.76657z"/><path d="M234.65947,168.68711c0,0 -0.70332,0.15266 -1.034,0.22318c-0.45549,0.09712 -1.8612,0.4566 -1.8612,0.4566l0.32283,-0.63512c0,0 0.91046,-0.44281 1.31135,-0.62557c0.32164,-0.14663 0.90907,-0.38669 0.90907,-0.38669z"/></g><path d="M230.91123,168.10922c1.21951,0.24874 1.92439,1.29253 1.92439,1.29253c0,0 -0.43841,0.14885 -1.6634,1.36539c-0.71609,0.71117 -1.39458,1.66737 -1.39458,1.66737c0,0 -0.86875,-0.69002 -1.38017,-1.43005c-0.39559,-0.56467 -0.71577,-1.2416 -0.03935,-2.19043c0.77359,-0.85396 1.33358,-0.95355 2.55309,-0.70482z" fill="#20201f" stroke="none" stroke-width="0" stroke-linecap="butt" stroke-linejoin="miter"/><path d="M231.08989,169.40801c0,0 -0.22725,0.13049 -0.81303,0.9033c-0.34242,0.45175 -0.64949,1.02376 -0.64949,1.02376c0,0 -1.01468,-0.83 -0.40811,-1.69273c0.63949,-0.90959 1.87065,-0.23435 1.87065,-0.23435z" fill="#b2b1b2" stroke="none" stroke-width="0" stroke-linecap="butt" stroke-linejoin="miter"/></g><g stroke-width="0" stroke-linecap="butt" stroke-linejoin="miter"><path d="M240.19364,200.42268c-0.07318,-2.15979 2.28927,-3.75283 2.28927,-3.75283l0.95428,-0.07114c0,0 -0.45102,0.77327 -0.83389,3.57069c0.52016,1.81703 0.99699,4.02425 0.99699,4.02425c0,0 0.35006,0.03573 -0.37755,0.04879c-0.72764,0.01307 -0.46597,-0.03593 -0.46597,-0.03593c0,0 -2.46042,-0.7533 -2.56308,-3.78383z" fill="#cacacd" stroke="none"/><path d="M243.67799,204.22051c0,0 -1.63314,-0.94137 -1.70718,-3.532c-0.07861,-2.75139 1.43664,-4.10362 1.43664,-4.10362c0,0 2.8595,-0.02541 2.95132,3.70349c0.08183,3.32282 -2.68079,3.9321 -2.68079,3.9321z" fill="#c2e266" stroke="#000000"/><path d="M239.8042,196.91626l0.12468,7.41524c0,0 -3.89229,0.00508 -4.04393,-3.56066c-0.15384,-3.61734 3.91923,-3.85459 3.91923,-3.85459z" fill="#c2e266" stroke="none"/><path d="M239.8999,196.89904l-1.63644,3.85392l1.65889,3.5721l-0.27952,0.00957c0,0 -1.96013,-0.68499 -2.0929,-3.56955c-0.12798,-2.8516 2.00068,-3.8433 2.00068,-3.8433z" fill="#cacacd" stroke="none"/><path d="M238.00225,200.55304c-0.00043,-2.10891 1.78375,-3.66588 1.78375,-3.66588l3.13321,-0.23288c0,0 -1.58931,2.4439 -1.56554,4.07216c0.02377,1.62826 1.67617,3.50744 1.67617,3.50744l-3.10527,0.10331c0,0 -1.92175,-0.82499 -1.92233,-3.78413z" fill="#c274a1" stroke="none"/><path d="M242.2054,194.27261c0,0 -0.64011,-0.09205 -1.04755,-0.09168c-0.40746,0.00034 -0.97417,0.09339 -0.97417,0.09339l0.25508,-11.28927c0,0 0.65226,-0.22901 1.08521,-0.23047c0.43297,-0.00144 0.82887,0.22403 0.82887,0.22403z" fill="#c2e266" stroke="none"/><path d="M242.61324,196.75777l-2.7774,0.21558c0,0 -0.12497,-2.40168 0.15279,-2.60702c0.47039,-0.34778 2.19475,-0.26169 2.47123,0.04856c0.07283,0.08174 0.15339,2.34288 0.15339,2.34288z" fill="#cacacd" stroke="none"/></g><g stroke="none" stroke-width="0" stroke-linecap="butt" stroke-linejoin="miter"><path d="M239.88562,180.92136c1.3773,-0.53058 2.79641,-0.17517 3.16964,0.79373c0.37325,0.96891 -0.44069,2.18451 -1.81797,2.71506c-1.37731,0.53058 -2.7964,0.17519 -3.16964,-0.79373c-0.37325,-0.96891 0.44071,-2.18452 1.81801,-2.71507z" fill="#20201f"/><path d="M238.71244,176.72106c-0.02575,-0.39077 0.15895,-0.50752 0.37136,-0.5405c0.31618,-0.04909 0.51194,0.09767 0.57265,0.40526c0.2422,1.22753 0.47643,2.29636 0.69541,3.13076c0.13348,0.50869 0.72668,2.47491 0.72668,2.47491l-1.17372,0.33342c0,0 -0.25773,-1.13276 -0.58863,-2.39368c-0.23145,-0.88195 -0.52604,-2.23008 -0.60376,-3.41016z" fill="#fed5c7"/><path d="M238.89841,179.30527l-0.22142,-1.12445l1.37915,-0.42116l0.25338,1.11214z" fill="#83c4ac"/><path d="M238.03172,177.15186c-0.14373,-0.64455 0.19009,-1.29508 0.78208,-1.46305c0.59202,-0.16797 1.20173,0.21473 1.36183,0.85478c0.2846,1.13789 -0.12269,1.47005 -0.71472,1.63801c-0.59202,0.16797 -1.1896,0.04475 -1.42921,-1.02975z" fill="#20201f"/><path d="M238.8795,180.78056l-0.02537,-1.49491l1.44305,-0.44579l0.80966,1.3396l-0.56684,0.34366l-1.10571,0.28606z" fill="#bebec0"/><g><path d="M239.49756,183.51057l2.43181,-0.80333c0,0 0.37638,0.04887 0.77994,0.47337c0.26211,0.27567 0.4003,0.88869 0.4003,0.88869c0,0 0.22256,-0.70734 0.77177,-0.46084c0.35263,0.15824 0.40128,1.31431 0.32041,1.72142c-0.0476,0.23967 -0.27396,0.62896 -0.56536,0.82519c-0.18382,0.12381 -0.48956,0.11703 -0.48956,0.11703c0,0 0.00177,0.39275 -0.4153,0.43116c-0.12778,0.01178 -0.29915,0.06389 -0.29915,0.06389c0,0 -0.08665,0.28093 -0.18767,0.40219c-0.10102,0.12127 -0.34676,0.20815 -0.34676,0.20815l-0.41618,-0.1353c0,0 -0.37517,0.42153 -0.48438,0.4598c-0.42835,0.1502 -0.76206,-0.22663 -0.94246,-0.42774c-0.33031,-0.3682 -0.93431,-1.28392 -0.92521,-1.42504c0.05725,-0.88567 0.36779,-2.3387 0.36779,-2.3387z" fill="#20201f"/><path d="M243.10962,184.06933c0,0 0.22256,-0.70734 0.77177,-0.46084c0.35263,0.15824 0.44119,0.68587 0.36036,1.09295c-0.0476,0.23967 -1.13214,-0.63211 -1.13214,-0.63211z" fill="#c0c2c6"/></g></g></g></g></svg>