<svg version="1.1" xmlns="http://www.w3.org/2000/svg" xmlns:xlink="http://www.w3.org/1999/xlink" width="22.25176" height="29.53593" viewBox="0,0,22.25176,29.53593"><g transform="translate(-228.87411,-165.23204)"><g data-paper-data="{&quot;isPaintingLayer&quot;:true}" fill-rule="nonzero" stroke="#000000" stroke-linejoin="miter" stroke-miterlimit="10" stroke-dasharray="" stroke-dashoffset="0" style="mix-blend-mode: normal"><path d="M236.30333,166.56544c2.30895,-1.53195 6.38695,-1.26454 8.04112,-0.88445c1.24705,0.60305 6.64246,8.33904 6.64246,8.33904l-0.13215,8.9203c0,0 -1.10176,7.88036 -2.44589,9.21671c-1.49702,1.48839 -2.97237,2.61091 -2.97237,2.61091c0,0 -4.76294,-1.36071 -6.96514,-2.25071c-2.07834,-0.83994 -5.10456,-2.36771 -6.82151,-3.95352c-1.7263,-1.59445 -2.13771,-3.24466 -2.13771,-3.24466c0,0 -0.96063,-8.11946 -0.52442,-10.61608c-0.33114,-1.34581 7.3156,-8.13753 7.3156,-8.13753z" fill="#000c2e" stroke-width="0" stroke-linecap="round"/><path d="M233.09399,172.45408c0.34788,-1.11548 4.06466,-6.15806 5.41824,-6.87193c0.54172,-0.28568 5.50341,-0.56102 6.14626,-0.11554c0.35032,0.24276 5.85387,7.85529 6.23202,8.3971c0.2905,0.41624 0.37604,7.98679 -0.11772,9.11915c-0.39531,0.90656 -4.08637,5.674 -5.30054,6.12244c-0.73942,0.27309 -9.84863,-2.97297 -11.49892,-6.23012c-1.35127,-2.66703 -1.18733,-9.43364 -0.87936,-10.42108z" fill="#002a4d" stroke-width="0" stroke-linecap="butt"/><path d="M248.67424,180.09904c0,0 -1.03715,2.24539 -1.15619,1.53858c-0.19466,-1.1558 0.09898,-7.81582 0.09898,-7.81582" fill="none" stroke-width="0.5" stroke-linecap="round"/><path d="M245.43652,186.70666l-0.39646,0.19824" fill="none" stroke-width="0.5" stroke-linecap="round"/><path d="M230.91076,187.63173l2.13206,-6.41379" fill="none" stroke-width="0.5" stroke-linecap="round"/><path d="M244.44065,194.13865l0.49085,-4.833" fill="none" stroke-width="0.5" stroke-linecap="round"/><path d="M234.28381,188.21067c0,0 -0.73959,-0.59589 -0.95301,-1.01607c-0.18536,-0.36494 -0.25525,-1.36269 -0.25525,-1.36269" fill="none" stroke-width="0.5" stroke-linecap="round"/><path d="M250.0095,180.55942v-1.76203" fill="none" stroke-width="0.5" stroke-linecap="round"/></g></g></svg>