<svg version="1.1" xmlns="http://www.w3.org/2000/svg" xmlns:xlink="http://www.w3.org/1999/xlink" width="34.14627" height="19.71528" viewBox="0,0,34.14627,19.71528"><g transform="translate(-216.65303,-165.86273)"><g data-paper-data="{&quot;isPaintingLayer&quot;:true}" fill-rule="nonzero" stroke-linecap="butt" stroke-linejoin="miter" stroke-miterlimit="10" stroke-dasharray="" stroke-dashoffset="0" style="mix-blend-mode: normal"><path d="M231.03548,177.8729c0,0.45477 -1.56639,3.08603 -1.56639,3.08603c0,0 -2.91725,-3.19198 -6.18945,-5.17584c-2.52744,-1.71591 -6.73726,-3.15862 -6.55363,-3.37452c0.48007,-0.56443 6.42605,0.07869 9.20468,1.22476c3.25115,1.34097 5.1048,3.20838 5.1048,4.23957z" data-paper-data="{&quot;index&quot;:null}" fill="#684af8" stroke="none" stroke-width="0"/><path d="M226.52728,173.16854c0.27375,0.50706 0.62319,1.37414 0.62319,1.37414c0,0 -3.02546,-1.1697 -5.43554,-1.84329c-2.35198,-0.65734 -5.25779,-0.3045 -5.05151,-0.49489c0.62028,-0.57254 2.61365,-0.83935 5.09246,-0.83935c2.47881,0 4.22934,0.47963 4.22934,0.47963c0,0 0.26829,0.81671 0.54205,1.32378z" fill="#684af8" stroke="none" stroke-width="0"/><path d="M234.06057,176.41118c0,0 -1.06966,0.13095 -1.76391,0.43072c-0.69424,0.29977 -1.34337,0.94823 -1.34337,0.94823c0,0 -1.1084,-1.42061 -1.74807,-1.98951c-0.63968,-0.5689 -2.20824,-1.34926 -2.20824,-1.34926l-1.32316,-2.59661c0,0 2.12978,0.0442 4.25811,1.29899c1.39802,0.82423 4.12865,3.25747 4.12865,3.25747z" data-paper-data="{&quot;index&quot;:null}" fill="#684af8" stroke="none" stroke-width="0"/><path d="M250.77438,173.03383c0,0.57628 -3.48847,0.56674 -4.46822,1.03918c-2.16668,1.04481 -2.91154,1.43889 -2.91154,1.43889l1.00895,-3.03765c0,0 1.88491,-0.40978 3.4254,-0.31764c1.66863,0.09982 2.94542,0.78539 2.94542,0.8772z" fill="#684af8" stroke="none" stroke-width="0"/><path d="M243.34368,175.43195c2.65213,-1.64074 6.96877,-2.8084 7.44978,-2.24397c0.18399,0.21589 -4.03406,2.25815 -5.57189,3.61433c-2.44333,2.15473 -3.9658,5.15942 -3.9658,4.12823c0,-1.03119 -0.56421,-3.85786 2.08792,-5.49859z" fill="#684af8" stroke="none" stroke-width="0"/><path d="M238.09039,176.47113c0,0 1.05292,-1.64296 2.45032,-2.47808c1.3974,-0.83512 3.60926,-2.05511 4.17995,-1.35894c0.11909,0.14527 -0.32158,1.41819 -0.93658,2.29685c-0.60627,0.8662 -1.80703,2.60609 -2.16036,3.09923c-0.73824,1.03035 -1.19831,0.59927 -1.19831,0.59927c0,0 -0.46808,-0.6582 -1.00006,-1.13808c-0.53198,-0.47988 -1.33495,-1.02025 -1.33495,-1.02025z" fill="#684af8" stroke="none" stroke-width="0"/><path d="M227.81837,180.43804c0,-2.31779 3.3821,-4.19674 7.55413,-4.19674c4.17203,0 7.53555,1.87902 7.55413,4.19674c0.02398,2.98928 -3.3821,4.19673 -7.55413,4.19673c-4.17203,0 -7.55413,-1.87894 -7.55413,-4.19673z" fill="#684af8" stroke="none" stroke-width="0"/><g stroke="none" stroke-width="0"><path d="M237.56815,181.68804c0,-0.4139 0.33551,-0.74941 0.74942,-0.74941c0.4139,0 0.74941,0.33552 0.74941,0.74941c0,0.4139 -0.33552,0.74942 -0.74941,0.74942c-0.4139,0 -0.74942,-0.33552 -0.74942,-0.74942z" fill="#ffff9b"/><path d="M238.00828,181.70593c0,-0.18067 0.14645,-0.32713 0.32713,-0.32713c0.18066,0 0.32713,0.14645 0.32713,0.32713c0,0.18067 -0.14645,0.32714 -0.32713,0.32714c-0.18066,0 -0.32713,-0.14646 -0.32713,-0.32714z" fill="#000000"/></g><g stroke="none" stroke-width="0"><path d="M233.43513,181.43544c0,-0.59599 0.48316,-1.07916 1.07917,-1.07916c0.59599,0 1.07916,0.48315 1.07916,1.07916c0,0.59599 -0.48315,1.07916 -1.07916,1.07916c-0.59599,0 -1.07917,-0.48315 -1.07917,-1.07916z" fill="#ffff9b"/><path d="M234.06893,181.46117c0,-0.26017 0.2109,-0.47105 0.47107,-0.47105c0.26017,0 0.47105,0.2109 0.47105,0.47105c0,0.26017 -0.2109,0.47105 -0.47105,0.47105c-0.26017,0 -0.47107,-0.21089 -0.47107,-0.47105z" fill="#000000"/></g><path d="M226.26418,180.06389c2.1597,0.28682 1.89553,0.89911 1.89553,0.89911c0,0 -0.7792,-0.99349 -1.13789,-1.43613c-0.40205,-0.49617 -1.15917,-1.39863 -1.15917,-1.39863c0,0 1.20788,-0.16079 2.92445,1.49052c0.87932,0.84589 1.9646,3.74939 3.53336,4.4093c1.56877,0.65991 4.76995,0.05227 6.42019,0.11453c1.05645,-0.02066 3.62762,-2.20419 3.89523,-2.48516c0.52368,-0.54983 1.0635,-0.94015 1.0635,-0.94015l-0.371,1.76187c0,0 0.20612,-0.13666 0.46536,-0.19252c0.25923,-0.05586 0.67739,-0.05371 0.67739,-0.05371l-0.95889,1.49798l0.38491,0.84071c0,0 -0.80638,0.05914 -1.03912,-0.06433c-0.23276,-0.12348 -0.25806,-0.23416 -0.25806,-0.23416c0,0 -0.4537,0.40085 -0.92245,0.64818c-0.46875,0.24733 -1.34857,0.25628 -1.34857,0.25628c0,0 -0.40742,0.25216 -0.81692,0.25912c-8.86514,0.7736 -10.46459,-1.88101 -10.46459,-1.88101c0,0 -1.05052,-0.01196 -2.19441,-0.03872c-1.14388,-0.02675 -2.93161,0.03872 -2.93161,0.03872c0,0 1.09023,-0.85491 1.72216,-1.11868c0.63192,-0.26375 1.72516,-0.3202 1.72516,-0.3202c0,0 -0.63289,-0.4486 -1.50659,-0.89594c-0.87369,-0.44733 -2.2405,-1.30259 -2.2405,-1.02258c0,0.10778 0.48285,-0.42121 2.64254,-0.1344z" fill="#684af8" stroke="none" stroke-width="0"/><path d="M232.3708,173.0432c0.56803,-0.90182 -0.89624,0.53291 -2.09277,0.14611c-0.26897,-0.08695 2.73886,-2.00282 3.01133,-0.41233c-0.56803,0.90182 1.93048,1.14828 2.67698,1.16837c0.37914,0.0102 0.66145,0.15475 0.72184,0.69115c0.07823,0.69482 -0.98143,1.51231 -1.15892,1.46428c-0.73872,-0.24572 0.50817,-1.23272 -0.0806,-1.67822c-0.58876,-0.44551 -2.34849,-0.25088 -2.62835,-0.3716c-0.41233,-0.17785 -0.66973,-0.65817 -0.44952,-1.00776z" data-paper-data="{&quot;index&quot;:null}" fill="#f2a948" stroke="#f7d665" stroke-width="0.25"/><path d="M228.20891,175.18468c0.34314,1.20977 -1.14376,2.62102 -0.22193,2.08608c0.35735,-0.20737 0.82801,0.06728 0.99079,0.48579c0.11048,0.28405 -0.14786,2.03557 0.276,2.6401c0.42386,0.60453 1.45543,-0.60572 1.6742,0.14142c0.04155,0.1791 -0.81384,1.20842 -1.50536,1.10504c-0.53386,-0.0798 -0.66807,-0.36718 -0.66451,-0.74644c0.00701,-0.74675 -0.14866,-3.25254 -1.07049,-2.71759c-1.57956,-0.32999 0.44416,-3.26635 0.52129,-2.99439z" data-paper-data="{&quot;index&quot;:null}" fill="#f2a948" stroke="#f7d665" stroke-width="0.25"/><path d="M222.1035,167.76245l1.22202,-1.20436l1.6921,-0.69536l0.02327,0.54993l1.98883,2.06233l-0.37893,1.26371l-1.42032,1.38195l-1.32198,0.36433l-1.96816,-2.04089l-0.5694,-0.06464z" data-paper-data="{&quot;index&quot;:null}" fill="#272727" stroke="none" stroke-width="0"/><path d="M227.4172,169.44109c0.20324,0.21104 -0.117,1.07845 -0.117,1.07845l1.05269,1.96357l-0.64338,0.59878l-1.87239,-1.19867c0,0 -0.79575,0.22378 -0.98455,0.02774c-0.1663,-0.17267 -0.49117,-0.70057 -0.49117,-0.70057c0,0 0.86945,-0.80446 1.20353,-1.12619c0.38721,-0.3729 1.22294,-1.16396 1.22294,-1.16396c0,0 0.48667,0.37271 0.62934,0.52087z" data-paper-data="{&quot;index&quot;:null}" fill="#f2a948" stroke="#f7d665" stroke-width="0.25"/><path d="M227.6886,173.96967c-0.09546,-0.09898 -0.07101,-0.77422 0.36081,-1.19064c0.43182,-0.41644 1.12708,-0.39606 1.20295,-0.31738c0.07587,0.07868 0.07101,0.77422 -0.36081,1.19064c-0.43182,0.41644 -1.12708,0.39606 -1.20295,0.31738z" data-paper-data="{&quot;index&quot;:null}" fill="#f2a948" stroke="#f7d665" stroke-width="0.25"/><path d="M235.58302,176.20847c0,0 -1.45378,1.2508 -2.28568,2.02056c-0.83189,0.76975 -2.24723,2.17376 -2.24723,2.17376c0,0 -4.43847,-4.73327 -2.11111,-6.82386c2.32752,-2.09074 6.64402,2.62954 6.64402,2.62954z" data-paper-data="{&quot;index&quot;:null}" fill="#f2a948" stroke="#f7d665" stroke-width="0.25"/></g></g></svg>