<svg version="1.1" xmlns="http://www.w3.org/2000/svg" xmlns:xlink="http://www.w3.org/1999/xlink" width="147.10762" height="25.35605" viewBox="0,0,147.10762,25.35605"><g transform="translate(-166.44618,-167.32198)"><g data-paper-data="{&quot;isPaintingLayer&quot;:true}" fill-rule="nonzero" stroke="none" stroke-width="0.26458" stroke-linecap="butt" stroke-linejoin="miter" stroke-miterlimit="10" stroke-dasharray="" stroke-dashoffset="0" style="mix-blend-mode: normal"><g fill="#ff0000"><path d="M166.44618,192.08836v-24.76638h8.27689v17.69027h11.03582v7.07611z"/><path d="M188.51783,192.08836v-24.76638h19.3127v7.07611h-11.03582v1.76901h11.03582v7.07611h-11.03582v1.76904h11.03582v7.07611z"/><path d="M210.5895,167.32198h7.72508l3.58663,17.98511l3.58664,-17.98511h7.72508l-5.7938,24.76638h-11.03582z"/><path d="M235.9719,192.08836v-24.76638h19.31271v7.07611h-11.03583v1.76901h11.03583v7.07611h-11.03583v1.76904h11.03583v7.07611z"/><path d="M258.04356,192.08836v-24.76638h8.27688v17.69027h11.03582v7.07611z"/><path d="M294.2411,167.91164c1.83931,-0.19656 3.95452,-0.39311 6.3456,-0.58966c2.9429,0 5.42595,0.29483 7.44919,0.88449c2.9429,0.58969 4.78218,2.26043 5.51791,5.01227c0,4.52085 -1.28751,6.78128 -3.86252,6.78128c2.39109,0.19656 3.6786,1.57246 3.86252,4.12772v0.88452c0,3.3415 -1.05759,5.40534 -3.17279,6.19159c-2.1152,0.78624 -5.37996,1.27763 -9.79431,1.47418c-2.02324,0 -4.13844,-0.19656 -6.3456,-0.58966l2.20717,-6.48645c1.83931,0.78624 3.40271,1.03196 4.69022,0.73712c1.28751,-0.29483 2.02323,-1.13023 2.20716,-2.50613c-0.18393,-0.9828 -0.91965,-1.52334 -2.20716,-1.62162c-1.28751,-0.09833 -3.03486,0.0491 -5.24203,0.44226v-4.42257c2.20717,0.19656 3.95452,0.19656 5.24203,0c1.28751,-0.19656 2.02323,-0.88453 2.20716,-2.06388c-0.36785,-1.37591 -1.3335,-2.01472 -2.8969,-1.91644c-1.5634,0.09833 -2.98886,0.54059 -4.27637,1.32678z"/></g><g fill="#71ff33"><path d="M170.44618,192.15812v-21.83615h7.79864v15.59725h10.39817v6.2389z"/><path d="M191.24251,192.15812v-21.83615h18.1968v6.2389h-10.39817v1.55971h10.39817v6.2389h-10.39817v1.55974h10.39817v6.2389z"/><path d="M212.03887,170.32198h7.27872l3.3794,15.8572l3.3794,-15.8572h7.27872l-5.45903,21.83615h-10.39817z"/><path d="M235.95465,192.15812v-21.83615h18.1968v6.2389h-10.39817v1.55971h10.39817v6.2389h-10.39817v1.55974h10.39817v6.2389z"/><path d="M256.75099,192.15812v-21.83615h7.79864v15.59725h10.39817v6.2389z"/><path d="M290.857,170.84187c1.73304,-0.1733 3.72602,-0.3466 5.97895,-0.5199c2.77285,0 5.11243,0.25995 7.01877,0.77984c2.77285,0.51992 4.50586,1.99298 5.19908,4.41924c0,3.98597 -1.21312,5.97895 -3.63935,5.97895c2.25293,0.1733 3.46605,1.38641 3.63935,3.63935v0.77987c0,2.94615 -0.99648,4.76581 -2.98946,5.45903c-1.99298,0.69322 -5.0691,1.12647 -9.22839,1.29976c-1.90633,0 -3.89932,-0.1733 -5.97895,-0.5199l2.07963,-5.719c1.73304,0.69322 3.2061,0.90986 4.41921,0.64991c1.21312,-0.25995 1.90633,-0.9965 2.07963,-2.20962c-0.1733,-0.86652 -0.86652,-1.3431 -2.07963,-1.42975c-1.21312,-0.0867 -2.8595,0.04329 -4.93914,0.38993v-3.89932c2.07963,0.1733 3.72602,0.1733 4.93914,0c1.21312,-0.1733 1.90633,-0.77987 2.07963,-1.81969c-0.3466,-1.21312 -1.25645,-1.77635 -2.72952,-1.6897c-1.47306,0.0867 -2.81616,0.47663 -4.02928,1.1698z"/></g></g></g></svg>