<svg version="1.1" xmlns="http://www.w3.org/2000/svg" xmlns:xlink="http://www.w3.org/1999/xlink" width="24.40214" height="34.39073" viewBox="0,0,24.40214,34.39073"><g transform="translate(-227.20222,-164.93389)"><g data-paper-data="{&quot;isPaintingLayer&quot;:true}" fill-rule="nonzero" stroke-linejoin="miter" stroke-miterlimit="10" stroke-dasharray="" stroke-dashoffset="0" style="mix-blend-mode: normal"><g data-paper-data="{&quot;index&quot;:null}"><g stroke="#ffffff" stroke-width="0" stroke-linecap="butt"><path d="M238.47806,177.43899l0.61629,-0.59866l1.20542,2.44095l-0.64187,0.34974z" data-paper-data="{&quot;index&quot;:null}" fill="#319a2b"/><path d="M239.54618,179.77837c-0.06402,-0.64419 0.51182,-0.82703 0.81553,-0.50552c0.73386,0.77684 1.57707,2.7169 1.57707,2.7169l-1.04314,1.1264c0,0 -1.28962,-2.73561 -1.34946,-3.33777z" data-paper-data="{&quot;index&quot;:null}" fill="#ead42f"/><path d="M241.21663,183.67085c-0.71563,-0.51249 -0.56628,-2.77629 1.01993,-3.57704c1.30959,-0.66112 2.00173,-0.90874 3.1054,-0.28385c0.34906,0.19765 -0.09668,2.13438 -1.34819,2.8998c-1.2515,0.76541 -2.54284,1.12889 -2.77714,0.96109z" data-paper-data="{&quot;index&quot;:null}" fill="#f0e9bb"/></g><path d="M241.8247,183.55251c0,0 0.36136,-1.5104 0.85368,-2.3432c0.49233,-0.8328 1.76205,-1.67455 1.76205,-1.67455" data-paper-data="{&quot;index&quot;:null}" fill="none" stroke="#d3c49c" stroke-width="0.25" stroke-linecap="round"/><path d="M241.73174,182.54665l0.76261,0.32404" data-paper-data="{&quot;index&quot;:null}" fill="none" stroke="#ffffff" stroke-width="0.5" stroke-linecap="round"/><path d="M242.29905,181.36705l0.5898,0.28364" data-paper-data="{&quot;index&quot;:null}" fill="none" stroke="#ffffff" stroke-width="0.5" stroke-linecap="round"/><path d="M242.94805,180.4617l0.53908,0.34469" data-paper-data="{&quot;index&quot;:null}" fill="none" stroke="#ffffff" stroke-width="0.5" stroke-linecap="round"/><path d="M244.25821,180.00247l-0.36627,-0.30431" data-paper-data="{&quot;index&quot;:null}" fill="none" stroke="#ffffff" stroke-width="0.5" stroke-linecap="round"/></g><g data-paper-data="{&quot;index&quot;:null}"><g data-paper-data="{&quot;index&quot;:null}" stroke="none" stroke-width="0" stroke-linecap="butt"><path d="M248.08262,198.40777c-1.70953,-0.35069 -3.30334,-3.89325 -3.30334,-3.89325c-0.25736,-0.50779 -0.31589,-1.00952 -0.30253,-1.51952c0.01165,-0.44417 0.0778,-0.89459 0.1146,-1.36076c0.07906,-1.00141 1.07712,0.19891 1.07712,0.19891c0,0 1.54373,1.64834 1.9504,2.76826c0.46439,0.91346 1.71259,4.06252 0.46374,3.80633z" data-paper-data="{&quot;index&quot;:null}" fill="#54c81c"/><path d="M244.5928,188.97401c0,0 1.25669,3.1731 1.80902,4.31114c0.37364,0.76986 1.0208,1.97689 1.0208,1.97689c0.10534,0.34439 -0.02871,1.56801 -0.66322,1.06707c-0.4988,-0.3938 -1.52219,-2.50919 -1.52219,-2.50919c0,0 -1.61294,-3.84922 -1.96165,-4.39538c-1.04659,-1.75641 -2.29844,-5.15542 -2.29844,-5.15542l1.39383,-0.4586l2.22185,5.16344z" data-paper-data="{&quot;index&quot;:null}" fill="#ffffff"/></g><path d="M246.55415,196.49758l0.17694,-0.47307" fill="none" stroke="#000000" stroke-width="0.5" stroke-linecap="round"/><path d="M246.00956,195.64679l0.11195,-0.44345" fill="none" stroke="#000000" stroke-width="0.5" stroke-linecap="round"/></g><g data-paper-data="{&quot;index&quot;:null}"><g data-paper-data="{&quot;index&quot;:null}" stroke="none" stroke-width="0" stroke-linecap="butt"><path d="M245.33102,199.09789c-0.67721,1.08012 -2.09261,-1.99739 -2.43254,-2.96412c-0.5291,-1.06754 -0.65507,-3.32238 -0.65507,-3.32238c0,0 -0.17882,-1.5508 0.60002,-0.91636c0.36255,0.29533 0.734,0.55857 1.06326,0.85689c0.37806,0.34254 0.70051,0.73137 0.89001,1.26819c0,0 1.46132,3.59924 0.5343,5.07779z" data-paper-data="{&quot;index&quot;:null}" fill="#54c81c"/><path d="M240.91851,190.05884l-2.19983,-5.17286l1.29427,-0.69133c0,0 1.59367,3.2528 2.14113,5.22273c0.15414,0.62938 1.82404,4.45423 1.82404,4.45423c0,0 0.82311,2.20107 0.76344,2.83378c-0.07591,0.80483 -1.05344,0.05673 -1.22975,-0.25729c0,0 -0.42602,-1.30165 -0.72475,-2.10355c-0.44161,-1.1854 -1.86855,-4.28569 -1.86855,-4.28569z" data-paper-data="{&quot;index&quot;:null}" fill="#ffffff"/></g><path d="M244.91261,195.42794l-0.53064,-0.1722" fill="none" stroke="#000000" stroke-width="0.5" stroke-linecap="round"/><path d="M244.55487,196.26372l0.46433,0.19875" fill="none" stroke="#000000" stroke-width="0.5" stroke-linecap="round"/></g><g data-paper-data="{&quot;index&quot;:null}"><g data-paper-data="{&quot;index&quot;:null}" stroke="none" stroke-width="0" stroke-linecap="butt"><path d="M238.60981,182.09032c0,0 -1.35158,1.32986 -2.6091,2.13024c-0.69315,0.44118 -1.68522,0.85528 -2.19408,1.16964c-0.85981,0.53114 -0.86227,0.94668 -0.86227,0.94668c0,0 -0.05369,-1.07701 0.02559,-1.55263c0.07928,-0.47562 0.16912,-0.92858 0.347,-0.90418c0.17787,0.0244 5.29285,-1.78977 5.29285,-1.78977z" fill="#54c81c"/><path d="M237.65893,182.8242c-2.50563,1.72609 -4.58982,1.38051 -4.58982,1.38051c0,0 0.26486,-2.26867 3.08645,-3.89553c2.20532,-1.27154 3.47645,-0.98227 3.88294,-1.278c1.18192,-0.85985 1.00732,-0.55636 1.00732,-0.55636c0,0 0.09425,1.95128 -3.38689,4.34937z" fill="#ffffff"/></g><path d="M234.92357,183.80252l-0.35891,0.57528" fill="none" stroke="#ffffff" stroke-width="0.25" stroke-linecap="round"/><path d="M233.78922,184.06525l-0.22546,0.54437" fill="none" stroke="#ffffff" stroke-width="0.25" stroke-linecap="round"/></g><g data-paper-data="{&quot;index&quot;:null}"><g data-paper-data="{&quot;index&quot;:null}" stroke="none" stroke-width="0" stroke-linecap="butt"><path d="M236.4748,190.81703c0,0 -1.89754,-1.61925 -1.86835,-3.42331c0.02206,-1.36381 0.71932,-3.26979 0.71932,-3.26979l4.85142,1.67437c0,0 -2.10507,1.91961 -2.748,2.85161c-0.64294,0.93201 -0.95438,2.16711 -0.95438,2.16711z" fill="#54c81c"/><path d="M235.92009,187.61592c-1.3243,-0.72841 -0.9643,-2.81946 -0.59431,-3.49198c0.36721,-0.66746 0.5239,-1.86555 3.0041,-3.22167c1.69156,-0.92491 1.87884,-2.11528 1.87884,-2.11528l0.87369,0.09578c0,0 1.45802,3.06135 0.56546,5.04484c-0.83502,1.85559 -4.45475,4.38853 -5.72778,3.68831z" fill="#ffffff"/></g><path d="M237.30944,187.82686l0.29305,-0.50189" fill="none" stroke="#ffffff" stroke-width="0.25" stroke-linecap="round"/><path d="M236.06481,187.94139l0.22681,-0.48449" fill="none" stroke="#ffffff" stroke-width="0.25" stroke-linecap="round"/><path d="M235.51801,186.66869l-0.40813,0.60295" fill="none" stroke="#ffffff" stroke-width="0.25" stroke-linecap="round"/></g><g data-paper-data="{&quot;index&quot;:null}"><g data-paper-data="{&quot;index&quot;:null}" stroke="none" stroke-width="0" stroke-linecap="butt"><path d="M251.60436,183.31514c0,0 -1.19767,-0.26681 -1.97879,-0.30502c-0.78113,-0.03821 -3.72107,0.30637 -3.72107,0.30637c0,0 3.21953,-0.62899 3.46481,-1.34783c0.24531,-0.71893 -2.2805,-2.14611 -1.64002,-2.06248c3.38271,0.44172 3.87505,3.40896 3.87505,3.40896z" fill="#54c81c"/><path d="M240.03956,180.60435c0,0 2.77579,-0.58054 4.60565,-0.85312c2.21725,-0.33028 4.62817,0.52886 5.23573,1.42707c0.60756,0.89821 -2.55952,2.11303 -4.03171,2.05489c-1.59463,-0.06297 -5.80967,-2.62886 -5.80967,-2.62886z" fill="#ffffff"/></g><path d="M249.57574,182.46588l-0.80267,-0.39146" fill="none" stroke="#ffffff" stroke-width="0.25" stroke-linecap="round"/><path d="M250.24715,181.70038l-0.51501,-0.28623" fill="none" stroke="#ffffff" stroke-width="0.25" stroke-linecap="round"/></g><g data-paper-data="{&quot;index&quot;:null}"><g data-paper-data="{&quot;index&quot;:null}" stroke="none" stroke-width="0" stroke-linecap="butt"><path d="M243.19494,186.41703c0,0 3.14424,0.25673 3.52724,-0.64318c0.38869,-0.91323 -1.328,-3.7978 -1.328,-3.7978c0,0 1.25194,0.17877 2.58945,2.36927c0.77397,1.26402 1.74272,4.67005 1.74272,4.67005c0,0 -2.26843,-0.83829 -3.82089,-1.07586c-1.28974,-0.19737 -2.71051,-1.52247 -2.71051,-1.52247z" fill="#54c81c"/><path d="M245.47996,181.92692c0.14031,0.08454 1.92459,2.28713 1.49932,3.88248c-0.41007,1.40193 -3.75419,0.62406 -3.75419,0.62406c0,0 -1.42645,-0.84041 -2.44864,-1.64705c-1.22809,-0.96911 -1.36966,-2.75722 -1.09784,-3.6217c0.27182,-0.86448 0.39765,0.20691 2.26251,-0.13904c1.40509,-0.26065 3.40438,0.82023 3.53885,0.90125z" fill="#ffffff"/></g><path d="M245.13615,186.53188l0.38623,0.37013" fill="none" stroke="#ffffff" stroke-width="0.25" stroke-linecap="round"/><path d="M246.67103,186.08364l0.25775,0.4535" fill="none" stroke="#ffffff" stroke-width="0.25" stroke-linecap="round"/><path d="M246.7069,184.56327l0.60572,0.4833" fill="none" stroke="#ffffff" stroke-width="0.25" stroke-linecap="round"/></g><g data-paper-data="{&quot;index&quot;:null}"><path d="M242.35037,181.28861c-0.36591,0.39828 -2.69739,-0.28309 -2.69739,-0.28309c-0.24658,-0.28197 -1.67704,-0.07531 -1.70209,-0.53654c-0.00974,-0.1801 0.14956,-1.14428 0.32786,-1.71279c0.1783,-0.56852 -0.05954,-0.98345 0.64221,-1.38034c0.70175,-0.39689 1.90661,-0.1482 2.06043,-0.1482c0.12177,0 0.72348,0.19835 1.07941,1.25421c0.35594,1.05586 0.59384,2.36369 0.28957,2.80676z" data-paper-data="{&quot;index&quot;:null}" fill="#319a2b" stroke="none" stroke-width="0.17188" stroke-linecap="butt"/><path d="M240.97721,181.03802c0.61263,0 1.39781,-0.03289 1.39781,-0.03289l0.22399,0.60534c0,0 -0.81357,-0.32402 -1.50188,-0.15139c-0.61138,0.03439 -1.24991,-0.3092 -1.15798,-0.46382c0.178,-0.29941 0.42542,0.04276 1.03805,0.04276z" data-paper-data="{&quot;index&quot;:null}" fill="#ead42f" stroke="none" stroke-width="0" stroke-linecap="butt"/><path d="M237.89108,180.3842c0,0 0.60465,0.11279 1.21306,0.18453c0.60841,0.07174 0.41111,0.46852 -0.19203,0.36277c-0.66335,-0.25204 -1.3616,-0.05504 -1.3616,-0.05504l0.34058,-0.49225z" data-paper-data="{&quot;index&quot;:null}" fill="#ead42f" stroke="none" stroke-width="0" stroke-linecap="butt"/><path d="M240.88,180.77492l0.07853,0.38091" fill="none" stroke="#ffffff" stroke-width="0.25" stroke-linecap="round"/><path d="M241.81312,180.83174l0.09109,0.32829" fill="none" stroke="#ffffff" stroke-width="0.25" stroke-linecap="round"/><path d="M238.83152,180.32128l-0.03093,0.30573" fill="none" stroke="#ffffff" stroke-width="0.25" stroke-linecap="round"/><path d="M238.01448,180.65292l0.147,-0.38175" fill="none" stroke="#ffffff" stroke-width="0.25" stroke-linecap="round"/></g><g data-paper-data="{&quot;index&quot;:null}" stroke="none" stroke-linecap="butt"><path d="M239.97595,177.35818c0.17008,0.06905 0.3072,0.33949 0.39108,0.72079c0.08399,0.38126 0.11481,0.87325 0.07258,1.38519c-0.0422,0.51204 -0.14953,0.94795 -0.28883,1.23853c-0.1394,0.29062 -0.31073,0.43601 -0.48082,0.36696c-0.17021,-0.06911 -0.30722,-0.33958 -0.3912,-0.72085c-0.08388,-0.3813 -0.11481,-0.87325 -0.07258,-1.38519c0.04219,-0.51204 0.14963,-0.94798 0.28893,-1.23856c0.1393,-0.29058 0.31062,-0.43597 0.48084,-0.36686z" fill="#eb3d66" stroke-width="0.01872"/><path d="M239.86386,178.32515c0.20905,0.00794 0.3635,0.4098 0.34498,0.89758c-0.01852,0.48778 -0.203,0.87677 -0.41205,0.86883c-0.20905,-0.00794 -0.3635,-0.4098 -0.34498,-0.89758c0.01852,-0.48778 0.203,-0.87677 0.41205,-0.86883z" fill="#492116" stroke-width="0"/><path d="M240.08425,177.56189c0.07287,0.00749 0.14677,0.09569 0.20751,0.23227c0.06069,0.1365 0.10811,0.32141 0.12783,0.52204c0.01966,0.20055 0.00797,0.3793 -0.02692,0.50605c-0.03488,0.12675 -0.09285,0.20152 -0.16563,0.19397c-0.07281,-0.00742 -0.14676,-0.0957 -0.2075,-0.23228c-0.06068,-0.13652 -0.10813,-0.3213 -0.12777,-0.52198c-0.0197,-0.20063 -0.00801,-0.37938 0.02688,-0.50613c0.03481,-0.1267 0.0928,-0.20139 0.16562,-0.19397z" fill="#ffffff" stroke-width="0.01896"/></g><g data-paper-data="{&quot;index&quot;:null}"><g stroke="none" stroke-width="0" stroke-linecap="butt"><path d="M241.2036,178.67842l0.45465,-0.72904l1.75587,2.08043l-0.5392,0.49353z" fill="#319a2b"/><path d="M242.8018,180.6932c-0.21672,-0.61 0.29844,-0.92568 0.67042,-0.68644c0.89882,0.57808 2.18287,2.25916 2.18287,2.25916l-0.74241,1.34377c0,0 -1.90831,-2.34626 -2.11088,-2.91648z" fill="#ead42f"/><path d="M245.37973,184.09798c-0.8355,-0.27694 -1.36492,-2.48303 -0.08792,-3.71857c1.05431,-1.02007 1.64173,-1.46201 2.88115,-1.19291c0.392,0.0851 0.54128,2.06687 -0.42659,3.1693c-0.96787,1.10242 -2.0931,1.83285 -2.36664,1.74218z" fill="#f0e9bb"/></g><path d="M245.5074,183.96909c0,0 -0.05645,-1.55201 0.19478,-2.48625c0.25124,-0.93424 1.24906,-2.08536 1.24906,-2.08536" fill="none" stroke="#d3c49c" stroke-width="0.25" stroke-linecap="round"/><path d="M245.14839,183.02488l0.82154,0.10791" fill="none" stroke="#ffffff" stroke-width="0.5" stroke-linecap="round"/><path d="M245.37896,181.73642l0.64423,0.11529" fill="none" stroke="#ffffff" stroke-width="0.5" stroke-linecap="round"/><path d="M246.37343,180.878l-0.61172,-0.18768" fill="none" stroke="#ffffff" stroke-width="0.5" stroke-linecap="round"/><path d="M246.90098,179.89689l-0.4344,-0.19507" fill="none" stroke="#ffffff" stroke-width="0.5" stroke-linecap="round"/></g><g><path d="M236.31459,169.69579c4.13632,-1.89162 5.50954,1.00906 5.75517,1.11001c0.21414,0.16188 0.31392,0.42953 0.43919,0.65817c0.41199,0.85578 0.73722,1.74942 1.07015,2.63854c0.15669,0.35719 0.0878,0.76591 -0.06743,1.11075c-0.1725,0.36746 -0.53102,0.59654 -0.82463,0.8601c-0.4682,0.39079 -0.98817,0.71523 -1.5509,0.94973c-0.67646,0.32484 -1.57477,0.64106 -2.35403,0.52671c-0.49289,0.00542 -0.4252,-0.01436 -0.92311,0.01502c-1.05772,-0.07484 -2.03533,-0.63474 -2.74823,-1.40281c-0.43072,-0.45699 -0.79149,-0.99526 -0.99403,-1.59269c-0.07158,-0.25797 -1.23093,-3.30545 2.19785,-4.87351z" data-paper-data="{&quot;index&quot;:null}" fill="#f0e9bb" stroke="none" stroke-width="0.17188" stroke-linecap="butt"/><path d="M232.5754,170.41265c0.68529,0.15324 0.09743,3.67215 0.1802,3.0937c-0.69927,-0.07964 -1.41656,-0.53737 -1.77692,-0.98393c-0.03301,-0.04088 -0.03811,-0.19426 -0.03811,-0.19426c-0.07278,0.06011 -0.01092,-0.09242 -0.04332,-0.18321c-0.02555,-0.0714 -0.1663,-0.18177 -0.1663,-0.18177c-0.02523,0.04487 0.12353,-0.15892 0.16332,-0.26513c0.03291,-0.08771 -0.01294,-0.11262 0.02012,-0.17281c0.2314,-0.42373 0.77097,-0.83723 1.66103,-1.11262z" data-paper-data="{&quot;index&quot;:null}" fill="#ed3e67" stroke="none" stroke-width="0.17188" stroke-linecap="butt"/><path d="M241.8658,170.75739c-0.08811,-0.0595 -0.21238,-0.06221 -0.3985,-0.07798c-0.13991,-0.01196 -0.41175,-0.03568 -0.51224,-0.06767c-0.2523,-0.08029 -1.1212,0.30447 -1.75607,1.03842c-0.63487,0.73394 -0.53026,2.20653 -0.80591,2.08886c-0.10481,-0.04475 -0.87375,-0.2889 -0.70297,-0.10676c0.0282,0.03015 -0.19236,0.41919 -0.19093,0.44746c0.00363,0.07597 -1.21828,-0.59528 -1.67204,-0.65576c-0.45375,-0.06047 -1.46235,0.20502 -1.55241,0.22217c-0.13534,0.02566 -0.16253,0.15793 -0.11407,0.28187c0.06112,0.15686 0.85876,2.06959 1.57682,2.71092c0.71806,0.64133 2.5807,1.04064 2.23494,0.84572c-0.15602,-0.08804 0.09383,1.55414 -0.11712,1.82325c-0.15044,0.19227 -2.32568,-0.81836 -3.51318,-3.31122c-0.56427,-1.18454 -0.95532,-2.84892 -1.0144,-3.20456l-0.1155,-0.69477c-0.02248,-0.87506 0.12772,-1.7348 0.47728,-2.57686c0.02225,-0.05365 0.28378,-0.96315 1.12832,-1.77371c0.53331,-0.51193 1.57683,-1.04556 1.65951,-1.0858c0.48494,-0.23598 1.424,-0.71169 2.38363,-0.93004c0.61041,-0.1389 1.23269,-0.09562 1.74021,-0.07184c0.09115,0.00416 -0.24882,1.32324 -0.16303,1.32347c0.04161,-0.00001 0.24729,0.99325 0.29554,1.07445l0.32206,0.54224c0.32562,0.54813 1.12479,0.89039 1.25485,0.92225c0.17804,0.04377 0.77185,0.15175 0.9226,0.0856l0.50835,-0.22248c0.06956,-0.03067 0.46517,-0.74766 0.53264,-0.72774c0.23776,0.07028 0.56296,0.97805 0.60923,1.16485l0.24365,0.9831c0.07841,0.31668 0.14002,0.4871 0.14547,0.97117c0.00774,0.66418 0.01266,1.32865 -0.14501,2.01243c-0.12735,0.55263 -1.12431,2.41263 -1.1636,2.25411l-0.33592,-1.34776l-0.61028,-1.84078l-1.15191,-2.09662z" data-paper-data="{&quot;index&quot;:null}" fill="#54c81c" stroke="none" stroke-width="0.17188" stroke-linecap="butt"/><path d="M244.85835,167.61118c-0.785,0.75952 -2.9197,-0.62589 -2.9197,-0.62589c-0.16604,-0.35304 0.35818,-1.48047 1.38836,-1.84346c0.78743,-0.27729 1.39704,-0.25668 1.79066,-0.05928c0.05618,0.02817 0.03654,0.07244 0.1073,0.12169c0.08568,0.0594 0.30194,0.13391 0.25969,0.11332c0,0 -0.04195,0.16193 -0.02199,0.23055c0.02536,0.08732 0.15195,0.17021 0.06735,0.1641c0,0 0.07875,0.12031 0.07691,0.16978c-0.0192,0.54008 -0.28893,1.28435 -0.74855,1.72919z" data-paper-data="{&quot;index&quot;:null}" fill="#ed3e67" stroke="none" stroke-width="0.17188" stroke-linecap="butt"/><path d="M241.51549,167.95376c0.11895,0.02024 -0.22564,-0.47523 -0.35171,-1.05764c-0.13469,-0.62189 -0.0418,-1.34152 0.4283,-1.59608c0.27149,-0.1469 0.56324,-0.1755 0.83019,-0.21886c0.55066,-0.08954 0.98461,-0.0525 0.8451,0.09335c-0.23666,0.24762 -0.50992,0.63015 -0.67544,0.92207c-0.23613,0.41626 -0.37345,0.71459 -0.34708,0.72571l1.69574,0.71421l0.95827,0.08693c0.15525,0.00589 -0.07673,0.37882 -0.38037,0.7114c-0.262,0.28724 -0.39348,0.59506 -0.49144,0.6834c-0.43574,0.39416 -0.48058,0.12576 -1.22736,0.08384c-0.43425,-0.02443 -1.463,-1.17905 -1.28418,-1.14831z" data-paper-data="{&quot;index&quot;:null}" fill="#54c81c" stroke="none" stroke-width="0.17188" stroke-linecap="butt"/><path d="M240.80283,168.24871c-0.5386,-1.2139 -0.69343,-2.80926 0.31276,-2.80457c0.42194,0.00186 -0.0009,0.47879 0.06888,1.31331c0.0444,0.53108 0.34102,1.23867 1.01302,1.95849c0.07062,0.07542 0.30181,0.1786 0.61222,0.30696c0.47569,0.19689 1.67576,-0.59846 1.53188,-0.38475l-0.56215,0.83442l-0.60007,0.15846c-0.33965,0.19015 -1.88362,-0.27158 -2.37652,-1.38231z" data-paper-data="{&quot;index&quot;:null}" fill="#ead32e" stroke="none" stroke-width="0.17188" stroke-linecap="butt"/><path d="M233.29368,171.05866c0.04509,0.28287 -0.07325,0.80084 -0.07325,0.80084c-0.09649,-0.10304 -0.07475,-0.35675 -0.12926,-0.46449c-0.12608,-0.24908 -0.23746,-0.94974 0.01461,-1.58645l0.14341,-0.36202c0.07054,-0.1783 0.47638,-0.5176 0.5937,-0.50224c0.17538,0.09192 -0.24475,0.66377 -0.37951,1.34942c-0.06459,0.32868 -0.1697,0.76493 -0.1697,0.76493z" data-paper-data="{&quot;index&quot;:null}" fill="#ead32e" stroke="none" stroke-width="0.17188" stroke-linecap="butt"/><path d="M233.119,171.05082c0.00614,0.15389 0.1082,0.87872 0.16886,1.23146l0.23898,1.3902c0.0176,0.10228 -0.90791,-0.08223 -0.98885,-0.38123c-0.2673,-0.25636 -0.29288,-0.57224 -0.3847,-0.87155c-0.01079,-0.36953 0.04431,-0.90467 0.1328,-1.15247c0.07129,-0.19958 -0.29095,-0.5571 -0.25892,-0.79087c0.048,-0.35196 1.03728,-0.78052 1.03728,-0.78052z" data-paper-data="{&quot;index&quot;:null}" fill="#54c81c" stroke="none" stroke-width="0.17188" stroke-linecap="butt"/><path d="M241.4649,171.11215c0.6397,0.38399 0.72441,1.42617 0.43311,1.97265c-0.29129,0.54647 -1.046,0.67819 -1.68569,0.2942c-0.6397,-0.38399 -0.92213,-1.13828 -0.63084,-1.68475c0.29129,-0.54647 1.24373,-0.96608 1.88342,-0.58209z" fill="#000000" stroke="none" stroke-width="0" stroke-linecap="butt"/><path d="M234.43385,174.47176c0.11219,-0.73761 0.98418,-1.13406 1.59087,-1.00993c0.60669,0.12414 1.00757,0.82272 0.89538,1.56032c-0.11219,0.73761 -0.69496,1.23494 -1.30165,1.1108c-0.60669,-0.12414 -1.29679,-0.92358 -1.1846,-1.6612z" data-paper-data="{&quot;index&quot;:null}" fill="#000000" stroke="none" stroke-width="0" stroke-linecap="butt"/><path d="M241.8452,175.29424l-0.26671,0.55375" fill="none" stroke="#000000" stroke-width="0.25" stroke-linecap="round"/><path d="M240.67374,176.57505l0.51458,-0.31568" fill="none" stroke="#000000" stroke-width="0.25" stroke-linecap="round"/><path d="M240.15917,176.89074l-0.54295,0.25537" fill="none" stroke="#000000" stroke-width="0.25" stroke-linecap="round"/><path d="M238.53749,177.35875l0.53937,-0.10633" fill="none" stroke="#000000" stroke-width="0.25" stroke-linecap="round"/><path d="M238.03367,177.22736l-0.41514,-0.09945" fill="none" stroke="#000000" stroke-width="0.25" stroke-linecap="round"/><path d="M242.11027,174.4674l-0.28774,0.33099l-0.46575,-0.26316" fill="none" stroke="#000000" stroke-width="0.25" stroke-linecap="round"/><path d="M237.27753,176.38385l0.02734,0.53425l-0.42466,0.10955" data-paper-data="{&quot;index&quot;:null}" fill="none" stroke="#000000" stroke-width="0.25" stroke-linecap="round"/><path d="M240.60247,173.01879l0.50434,-1.44612" fill="none" stroke="#ffffff" stroke-width="0.25" stroke-linecap="round"/><path d="M240.18201,171.89895l1.39436,0.7458" fill="none" stroke="#ffffff" stroke-width="0.25" stroke-linecap="round"/><path d="M241.41925,171.7465c-0.14913,0.14506 -0.38763,0.14177 -0.5327,-0.00735c-0.14506,-0.14913 -0.14177,-0.38763 0.00735,-0.5327c0.14913,-0.14506 0.38763,-0.14177 0.5327,0.00735c0.14506,0.14913 0.14177,0.38763 -0.00735,0.5327z" fill="#ffffff" stroke="none" stroke-width="0" stroke-linecap="butt"/><path d="M240.76762,173.3359c-0.14913,0.14506 -0.38763,0.14177 -0.5327,-0.00735c-0.14506,-0.14913 -0.14177,-0.38763 0.00735,-0.5327c0.14913,-0.14506 0.38763,-0.14177 0.5327,0.00735c0.14506,0.14913 0.14177,0.38763 -0.00735,0.5327z" fill="#ffffff" stroke="none" stroke-width="0" stroke-linecap="butt"/><path d="M240.30074,172.07012c-0.14913,0.14506 -0.38763,0.14177 -0.5327,-0.00735c-0.14506,-0.14913 -0.14177,-0.38763 0.00735,-0.5327c0.14913,-0.14506 0.38764,-0.14179 0.5327,0.00735c0.14506,0.14913 0.14177,0.38764 -0.00736,0.5327z" fill="#ffffff" stroke="none" stroke-width="0" stroke-linecap="butt"/><path d="M241.83838,172.96321c-0.14913,0.14506 -0.38763,0.14177 -0.5327,-0.00735c-0.14506,-0.14913 -0.14177,-0.38763 0.00735,-0.5327c0.14913,-0.14506 0.38763,-0.14177 0.5327,0.00735c0.14506,0.14913 0.14177,0.38763 -0.00735,0.5327z" fill="#ffffff" stroke="none" stroke-width="0" stroke-linecap="butt"/><path d="M235.50763,175.48983l0.50434,-1.44612" fill="none" stroke="#ffffff" stroke-width="0.25" stroke-linecap="round"/><path d="M235.08716,174.36999l1.39436,0.7458" fill="none" stroke="#ffffff" stroke-width="0.25" stroke-linecap="round"/><path d="M236.3244,174.21754c-0.14913,0.14506 -0.38763,0.14177 -0.5327,-0.00735c-0.14506,-0.14913 -0.14177,-0.38763 0.00735,-0.5327c0.14913,-0.14506 0.38763,-0.14177 0.5327,0.00735c0.14506,0.14913 0.14177,0.38763 -0.00735,0.5327z" fill="#ffffff" stroke="none" stroke-width="0" stroke-linecap="butt"/><path d="M235.67278,175.80695c-0.14913,0.14506 -0.38763,0.14177 -0.5327,-0.00735c-0.14506,-0.14913 -0.14177,-0.38763 0.00735,-0.5327c0.14913,-0.14506 0.38763,-0.14177 0.5327,0.00735c0.14506,0.14913 0.14177,0.38763 -0.00735,0.5327z" fill="#ffffff" stroke="none" stroke-width="0" stroke-linecap="butt"/><path d="M235.20589,174.54116c-0.14913,0.14506 -0.38763,0.14177 -0.5327,-0.00735c-0.14506,-0.14913 -0.14177,-0.38763 0.00735,-0.5327c0.14913,-0.14506 0.38764,-0.14179 0.5327,0.00735c0.14506,0.14913 0.14177,0.38764 -0.00736,0.5327z" fill="#ffffff" stroke="none" stroke-width="0" stroke-linecap="butt"/><path d="M236.74354,175.43425c-0.14913,0.14506 -0.38763,0.14177 -0.5327,-0.00735c-0.14506,-0.14913 -0.14177,-0.38763 0.00735,-0.5327c0.14913,-0.14506 0.38763,-0.14177 0.5327,0.00735c0.14506,0.14913 0.14177,0.38763 -0.00735,0.5327z" fill="#ffffff" stroke="none" stroke-width="0" stroke-linecap="butt"/></g><g><path d="M237.21858,168.39617c0,0 -1.69699,-0.92004 -2.93884,-1.16652c-1.24185,-0.24648 -2.21613,0.4986 -2.21613,0.4986l-0.45821,-0.59636c0,0 1.52445,-0.882 2.83158,-0.62654c1.30714,0.25546 3.14526,1.32444 3.14526,1.32444z" fill="#000000" stroke="none" stroke-width="0" stroke-linecap="butt"/><path d="M231.31301,170.11434l-3.99251,1.52798l1.38416,-4.32829l3.64058,-0.48852z" fill="#ea035a" stroke="none" stroke-width="0" stroke-linecap="butt"/><path d="M227.32722,171.50239l4.96505,-4.51729" fill="none" stroke="#000000" stroke-width="0.25" stroke-linecap="round"/><path d="M228.61875,167.22527l2.47606,0.76258l0.20121,2.14829" fill="none" stroke="#000000" stroke-width="0.25" stroke-linecap="round"/></g></g></g></svg>