<svg version="1.1" xmlns="http://www.w3.org/2000/svg" xmlns:xlink="http://www.w3.org/1999/xlink" width="26.87611" height="30.34088" viewBox="0,0,26.87611,30.34088"><defs><radialGradient cx="239.56262" cy="201.82025" r="1.31225" gradientUnits="userSpaceOnUse" id="color-1"><stop offset="0" stop-color="#f5ab87" stop-opacity="0.34902"/><stop offset="1" stop-color="#f5ab87" stop-opacity="0"/></radialGradient><radialGradient cx="244.8325" cy="201.38547" r="0.73225" gradientUnits="userSpaceOnUse" id="color-2"><stop offset="0" stop-color="#f5ab87" stop-opacity="0.34902"/><stop offset="1" stop-color="#f5ab87" stop-opacity="0"/></radialGradient></defs><g transform="translate(-227.2535,-189.01822)"><g data-paper-data="{&quot;isPaintingLayer&quot;:true}" fill-rule="nonzero" stroke-linejoin="miter" stroke-miterlimit="10" stroke-dasharray="" stroke-dashoffset="0" style="mix-blend-mode: normal"><path d="M249.58733,205.47887c0,0 -2.7488,0.21471 -4.44646,0.26476c-1.69767,0.05004 -3.95406,-0.22957 -3.95406,-0.22957l-0.16563,-1.02759c0,0 2.97645,0.29133 4.2684,0.16186c1.83468,-0.19871 4.03244,-0.26404 4.03244,-0.26404z" data-paper-data="{&quot;index&quot;:null}" fill="#fba15d" stroke="none" stroke-width="0" stroke-linecap="butt"/><path d="M249.66709,204.30696c0,0 -2.43781,0.40772 -3.66443,0.52646c-1.33812,0.12953 -4.52419,-0.12893 -4.52419,-0.12893l-0.31069,-0.91087c0,0 3.14092,-0.1505 4.45786,-0.39261c1.01571,-0.18674 3.0243,-0.41252 3.0243,-0.41252z" data-paper-data="{&quot;index&quot;:null}" fill="#fba15d" stroke="none" stroke-width="0" stroke-linecap="butt"/><g data-paper-data="{&quot;index&quot;:null}" stroke="none" stroke-width="0.17188" stroke-linecap="butt"><path d="M241.17446,199.65166c0.0123,-1.65217 -0.342,-2.92607 -0.23478,-4.22249c0.03553,-0.42863 0.15153,-0.27918 0.59518,-0.2823c0.57317,-0.00516 1.41278,0.08293 1.60817,0.61025c0.29702,0.80265 -0.30336,2.92069 -0.33677,3.79772c-0.05314,1.38767 -1.01977,4.2251 -1.35077,4.49891c-0.1428,0.1182 -0.58597,-0.23279 -0.57217,-1.05219c0.01817,-1.07892 0.27884,-1.69773 0.29115,-3.3499z" fill="#c27e34"/><path d="M242.2553,194.01964c-0.00714,-0.00917 -1.0228,-0.86284 -1.2775,-0.91197c-0.4285,-0.0829 -0.24345,0.59332 -0.71177,0.32709c-0.3473,-0.19744 -0.3453,-0.61255 -0.51558,-0.82734c-0.19443,-0.24476 0.01359,-0.78276 0.26436,-1.01731c0.13931,-0.1303 0.38327,-0.02214 0.36106,-0.06386c-0.15039,-0.28202 -0.00326,-0.68769 0.28713,-0.75345l0.6319,-0.14334c0.6596,0.02226 1.40283,0.19737 1.81309,0.18619c0.94689,-0.06676 1.24743,0.93135 1.20634,0.75729c0.03319,0.87765 -0.4685,2.00594 -1.22564,2.62526c-0.15803,0.12083 -0.52149,0.2295 -0.83338,-0.17856z" fill="#ffcfea"/><path d="M240.87886,195.9723c0.04722,-0.03293 -0.01772,0.59071 -0.14297,0.40694c-0.08217,-0.12086 -0.4847,-1.10013 -0.53039,-1.27274c-0.10559,-0.39864 0.04706,-0.93 0.06062,-1.32971c0.01287,-0.37622 0.4106,-0.69939 0.55991,-0.80355c0.21569,-0.15078 0.59957,0.22748 0.98655,0.56806c0.47063,0.41422 0.93173,0.6099 0.96421,0.61926c0,0 0.60754,0.12417 0.70465,-0.02913c-0.30509,0.5005 0.24072,1.63041 -0.11481,2.10657c-0.20282,0.24092 -1.71506,-0.61933 -2.00352,-0.7235c-0.29223,-0.10545 -0.72008,0.62215 -0.48424,0.4578z" fill="#ead42f"/></g><g data-paper-data="{&quot;index&quot;:null}" stroke="none" stroke-width="0.17188" stroke-linecap="butt"><path d="M241.17446,199.65166c0.0123,-1.65217 -0.342,-2.92607 -0.23478,-4.22249c0.03553,-0.42863 0.15153,-0.27918 0.59518,-0.2823c0.57317,-0.00516 1.41278,0.08293 1.60817,0.61025c0.29702,0.80265 -0.30336,2.92069 -0.33677,3.79772c-0.05314,1.38767 -1.01977,4.2251 -1.35077,4.49891c-0.1428,0.1182 -0.58597,-0.23279 -0.57217,-1.05219c0.01817,-1.07892 0.27884,-1.69773 0.29115,-3.3499z" fill="#c27e34"/><path d="M242.2553,194.01964c-0.00714,-0.00917 -1.0228,-0.86284 -1.2775,-0.91197c-0.4285,-0.0829 -0.24345,0.59332 -0.71177,0.32709c-0.3473,-0.19744 -0.3453,-0.61255 -0.51558,-0.82734c-0.19443,-0.24476 0.01359,-0.78276 0.26436,-1.01731c0.13931,-0.1303 0.38327,-0.02214 0.36106,-0.06386c-0.15039,-0.28202 -0.00326,-0.68769 0.28713,-0.75345l0.6319,-0.14334c0.6596,0.02226 1.40283,0.19737 1.81309,0.18619c0.94689,-0.06676 1.24743,0.93135 1.20634,0.75729c0.03319,0.87765 -0.4685,2.00594 -1.22564,2.62526c-0.15803,0.12083 -0.52149,0.2295 -0.83338,-0.17856z" fill="#ffcfea"/><path d="M240.87886,195.9723c0.04722,-0.03293 -0.01772,0.59071 -0.14297,0.40694c-0.08217,-0.12086 -0.4847,-1.10013 -0.53039,-1.27274c-0.10559,-0.39864 0.04706,-0.93 0.06062,-1.32971c0.01287,-0.37622 0.4106,-0.69939 0.55991,-0.80355c0.21569,-0.15078 0.59957,0.22748 0.98655,0.56806c0.47063,0.41422 0.93173,0.6099 0.96421,0.61926c0,0 0.60754,0.12417 0.70465,-0.02913c-0.30509,0.5005 0.24072,1.63041 -0.11481,2.10657c-0.20282,0.24092 -1.71506,-0.61933 -2.00352,-0.7235c-0.29223,-0.10545 -0.72008,0.62215 -0.48424,0.4578z" fill="#ead42f"/></g><path d="M241.18895,208.0437c0,0 -2.98427,1.95052 -3.3426,1.55725c-0.29875,-0.43826 1.24992,-2.98325 1.23981,-3.93084c-0.01609,-0.82849 0.05225,-1.64438 0.33381,-1.96105c0.08687,-0.09762 0.64674,-0.15514 0.76508,-0.15604c0.14946,-0.00114 0.76671,-0.13362 1.0287,0.36171c0.06725,0.12737 -0.02481,4.12896 -0.02481,4.12896z" data-paper-data="{&quot;index&quot;:null}" fill="#c27e34" stroke="none" stroke-width="0.17188" stroke-linecap="butt"/><path d="M242.89445,204.15875c0,0.07887 -0.15013,0.01377 -0.40873,0.21233c-0.14014,0.10761 0.50942,0.10036 0.3122,0.24058c-0.3286,0.23362 -1.77904,-0.13437 -2.21704,-0.13437c-0.52894,0 -1.80761,0.20015 -2.22423,-0.07931c-0.1849,-0.12403 0.33133,-0.17621 0.19684,-0.28743c-0.24194,-0.20009 -0.18415,-0.25671 -0.18415,-0.3482c0,-0.51334 0.97452,-0.04775 2.16052,-0.04775c1.18599,0 2.3646,-0.0692 2.3646,0.44414z" data-paper-data="{&quot;index&quot;:null}" fill="#ffe340" stroke="none" stroke-width="0" stroke-linecap="butt"/><path d="M241.57313,203.74761c0,0.07045 0.2485,0.31796 -0.02415,0.30777c-0.27264,-0.01019 -2.16581,-0.32046 -2.16581,-0.3909c0,-0.07045 0.60749,0.0066 1.10443,0.05762c0.79887,0.08202 1.08552,-0.04494 1.08552,0.02551z" data-paper-data="{&quot;index&quot;:null}" fill="#000000" stroke="none" stroke-width="0" stroke-linecap="butt"/><g data-paper-data="{&quot;index&quot;:null}" stroke="none" stroke-width="0" stroke-linecap="butt"><path d="M231.06498,201.9713c1.31892,0.62182 2.35761,3.08367 2.35761,3.08367c0.22697,0.56379 0.23942,1.10492 0.17328,1.64901c-0.05761,0.47386 -0.17483,0.94999 -0.26188,1.44533c-0.18704,1.06409 -1.14513,-0.30033 -1.14513,-0.30033c0,0 -1.50304,-1.88777 -1.8295,-3.11809c-0.84529,-1.99029 -2.21574,-1.38871 -2.21574,-1.38871c0,0 1.60246,-1.9927 2.92136,-1.37088z" fill="#54c81c"/><path d="M227.46173,203.7901c-0.17408,-0.35401 -0.02819,-0.78209 0.32582,-0.95617c0.354,-0.17406 0.7821,-0.02818 0.95617,0.32583c0.17407,0.35402 0.02818,0.7821 -0.32583,0.95617c-0.35402,0.17407 -0.78209,0.02819 -0.95617,-0.32582z" fill="#ffffff"/></g><g data-paper-data="{&quot;index&quot;:null}" stroke="none" stroke-width="0" stroke-linecap="butt"><path d="M230.99722,203.02365c1.28843,0.68275 2.21102,3.19041 2.21102,3.19041c0.20039,0.57378 0.18757,1.11488 0.09608,1.6553c-0.07968,0.47065 -0.21901,0.94078 -0.3291,1.43153c-0.23652,1.0542 -1.12985,-0.35348 -1.12985,-0.35348c0,0 -1.41325,-1.95592 -1.68189,-3.20012c-0.75143,-2.0276 -2.14846,-1.49067 -2.14846,-1.49067c0,0 1.69376,-1.91571 2.98218,-1.23296z" fill="#54c81c"/><path d="M227.31296,204.67221c-0.15735,-0.36174 0.00835,-0.78256 0.37011,-0.93991c0.36175,-0.15735 0.78257,0.00837 0.93991,0.37013c0.15734,0.36176 -0.00837,0.78257 -0.37013,0.93991c-0.36175,0.15735 -0.78256,-0.00835 -0.93991,-0.37011z" fill="#ffffff"/></g><path d="M235.21726,210.95113c0,0 -0.58547,0.5067 -1.48253,-0.70149c-0.89708,-1.2082 -1.20205,-2.22845 -1.77842,-3.1941c-0.4738,-0.79378 -1.3709,-1.90492 -1.51672,-2.48919c-0.14582,-0.58427 -0.02026,-1.35321 0.6774,-0.94479c0.54845,0.32107 1.72096,2.64193 1.72096,2.64193c0,0 1.25685,2.06012 1.67771,2.55283c1.27931,1.59487 4.79657,-1.59039 4.79657,-1.59039l0.60905,1.51037l-4.70404,2.21481z" fill="#ffffff" stroke="none" stroke-width="0" stroke-linecap="butt"/><path d="M234.48457,212.17687c0,0 -0.6194,0.46462 -1.42996,-0.80324c-0.81056,-1.26786 -1.04358,-2.30689 -1.55115,-3.31042c-0.41724,-0.82493 -1.23461,-1.99595 -1.3393,-2.58898c-0.10466,-0.59304 0.07424,-1.35134 0.7417,-0.89522c0.52471,0.35856 1.53239,2.75559 1.53239,2.75559c0,0 1.11001,2.14282 1.49546,2.6637c1.16488,1.68026 4.89587,-1.25176 4.89587,-1.25176l0.50215,1.5492l-4.84714,1.88111z" fill="#ffffff" stroke="none" stroke-width="0" stroke-linecap="butt"/><path d="M241.50485,194.39272c4.0188,-0.31644 4.61355,3.9547 4.65704,4.20958c0.06856,0.6054 -0.02549,1.22414 -0.21409,1.80059c-0.30735,0.96433 -0.93163,1.85553 -1.82531,2.35572c-0.44724,0.179 -0.37997,0.16844 -0.81297,0.36633c-0.63406,0.42025 -1.54918,0.51312 -2.27393,0.50729c-0.58822,0.02637 -1.17605,-0.04347 -1.74587,-0.19255c-0.36494,-0.10965 -0.77246,-0.1625 -1.07427,-0.41276c-0.27742,-0.23759 -0.50564,-0.56647 -0.51551,-0.94307c-0.07449,-0.91392 -0.15757,-1.82864 -0.14928,-2.74595c0.00738,-0.11943 -0.43267,-4.59975 3.95419,-4.94518z" data-paper-data="{&quot;index&quot;:null}" fill="#f0e9bb" stroke="none" stroke-width="0.17188" stroke-linecap="butt"/><path d="M244.30436,199.01779c-0.57076,0.44788 -0.18008,2.25292 -0.18008,2.25292c0,0 -0.61678,-1.64896 0.05779,-2.33696c0.20811,-0.21225 0.32622,-0.32982 0.52276,-0.38144c0.27412,-0.07199 0.40114,0.00137 0.61027,0.18982c0.1163,0.10479 0.31509,0.43597 0.32553,0.75955c0.00241,0.07462 1.18793,0.07506 1.18793,0.07506c0,0 -0.84362,0.13613 -1.02375,0.25868c-0.172,0.11702 -0.05377,0.46302 -0.1514,0.75489c-0.09764,0.29187 -0.22168,0.41893 -0.22168,0.41893c0,0 0.14663,-0.42381 0.12964,-0.98414c-0.01271,-0.41935 -0.16873,-1.03677 -0.39571,-1.21444c-0.30301,-0.26417 -0.44533,-0.21652 -0.86131,0.20713z" data-paper-data="{&quot;index&quot;:null}" fill="#000000" stroke="none" stroke-width="0" stroke-linecap="butt"/><path d="M244.95234,198.77492c0.24826,-0.04061 0.39401,0.08879 0.48279,0.36783c0.06208,0.19567 0.10361,0.48668 0.10168,0.75089c-0.00215,0.28487 -0.00214,0.45569 -0.03743,0.62631c-0.03467,0.16755 -0.10484,0.33684 -0.07917,0.3932c0.03723,0.08163 -0.06894,0.18503 -0.46418,0.27076c-0.25316,0.05494 -0.49978,0.09461 -0.71039,0.12755c-0.20734,0.00501 -0.31126,-1.13601 -0.18074,-1.43449c0.08213,-0.54868 0.28129,-0.89441 0.88745,-1.10205z" data-paper-data="{&quot;index&quot;:null}" fill="#ffffff" stroke="none" stroke-width="0.17188" stroke-linecap="butt"/><g data-paper-data="{&quot;index&quot;:null}" stroke="none" stroke-linecap="butt"><path d="M244.4972,200.49086c0,-0.5294 0.20288,-0.95856 0.45314,-0.95856c0.25026,0 0.45314,0.42916 0.45314,0.95856c0,0.5294 -0.20288,0.95856 -0.45314,0.95856c-0.25026,0 -0.45314,-0.42916 -0.45314,-0.95856z" fill="#008ae6" stroke-width="0"/><path d="M244.94566,199.66532c0.07892,-0.00736 0.1526,0.06999 0.20772,0.2009c0.05525,0.13092 0.09193,0.31542 0.09713,0.52227c0.00504,0.20696 -0.0224,0.39744 -0.07075,0.53808c-0.04848,0.14062 -0.11785,0.23143 -0.19677,0.23877c-0.07892,0.00736 -0.15262,-0.06999 -0.20772,-0.20089c-0.05525,-0.13093 -0.09195,-0.31542 -0.097,-0.52226c-0.00518,-0.20698 0.02225,-0.39746 0.07057,-0.5381c0.04848,-0.14063 0.11797,-0.23127 0.19679,-0.23878z" fill="#000000" stroke-width="0.0278"/><path d="M244.80124,199.90322c0.0419,-0.09781 0.10095,-0.15996 0.16695,-0.16302c0.06603,-0.00305 0.12675,0.05362 0.17136,0.14739c0.0448,0.0938 0.07346,0.22477 0.07549,0.37069c0.00218,0.14612 -0.02275,0.27957 -0.06482,0.37735c-0.04189,0.09781 -0.10094,0.15998 -0.16694,0.16303c-0.06603,0.00305 -0.12675,-0.05362 -0.17136,-0.1474c-0.0448,-0.0938 -0.07347,-0.22477 -0.0755,-0.37069c-0.00217,-0.14612 0.02276,-0.27956 0.06483,-0.37734z" fill="#ffffff" stroke-width="0.01811"/></g><path d="M241.19899,201.52903c-0.25971,0 -0.60994,0.03376 -0.92479,0.01872c-0.49139,-0.02363 -0.93532,-0.15374 -0.93532,-0.15374c0,0 -0.34037,-0.32711 -0.32037,-1.01971c0.01782,-0.61715 0.3131,-1.38581 0.81319,-1.38581c0.35709,0 0.66262,0.1376 1.01899,0.65129c0.08756,0.12623 0.59849,1.86225 0.3483,1.88925z" data-paper-data="{&quot;index&quot;:null}" fill="#ffffff" stroke="none" stroke-width="0.17188" stroke-linecap="butt"/><g data-paper-data="{&quot;index&quot;:null}" stroke="none" stroke-linecap="butt"><path d="M240.24721,200.82419c0,-0.5294 0.20288,-0.95856 0.45313,-0.95856c0.25025,0 0.45313,0.42916 0.45313,0.95856c0,0.5294 -0.20288,0.95856 -0.45313,0.95856c-0.25025,0 -0.45313,-0.42916 -0.45313,-0.95856z" fill="#008ae6" stroke-width="0"/><path d="M240.69566,199.99864c0.07892,-0.00736 0.1526,0.07 0.20772,0.20091c0.05525,0.13092 0.09193,0.31542 0.09713,0.52227c0.00504,0.20696 -0.0224,0.39744 -0.07075,0.53808c-0.04848,0.14062 -0.11785,0.23142 -0.19677,0.23877c-0.07892,0.00736 -0.15261,-0.07 -0.20772,-0.20089c-0.05525,-0.13092 -0.09195,-0.31541 -0.097,-0.52225c-0.00518,-0.20699 0.02225,-0.39747 0.07057,-0.53811c0.04848,-0.14062 0.11796,-0.23126 0.19679,-0.23877z" fill="#000000" stroke-width="0.0278"/><path d="M240.55125,200.23656c0.0419,-0.0978 0.10095,-0.15994 0.16695,-0.16301c0.06603,-0.00305 0.12675,0.05362 0.17136,0.14739c0.0448,0.0938 0.07346,0.22477 0.07549,0.37069c0.00217,0.14612 -0.02276,0.27956 -0.06483,0.37735c-0.0419,0.0978 -0.10095,0.15998 -0.16695,0.16303c-0.06603,0.00305 -0.12675,-0.05361 -0.17136,-0.1474c-0.0448,-0.0938 -0.07346,-0.22477 -0.07549,-0.37069c-0.00217,-0.14612 0.02276,-0.27956 0.06483,-0.37735z" fill="#ffffff" stroke-width="0.01811"/></g><path d="M240.59463,199.42929c-0.41598,-0.42365 -0.72904,-0.49569 -1.03205,-0.23153c-0.22698,0.17767 -0.383,0.79509 -0.39571,1.21444c-0.01699,0.56033 0.12964,0.98414 0.12964,0.98414c0,0 -0.12404,-0.12706 -0.22167,-0.41893c-0.09763,-0.29187 0.0206,-0.63787 -0.1514,-0.75489c-0.18012,-0.12255 -1.02374,-0.25869 -1.02374,-0.25869c0,0 1.18552,-0.00044 1.18793,-0.07506c0.01043,-0.32357 0.20922,-0.65476 0.32552,-0.75955c0.20913,-0.18845 0.43372,-0.26181 0.70783,-0.18982c0.19655,0.05163 0.36344,0.21798 0.57155,0.43023c0.67457,0.688 0.61877,2.11745 0.61877,2.11745c0,0 -0.14592,-1.60991 -0.71667,-2.05779z" data-paper-data="{&quot;index&quot;:null}" fill="#000000" stroke="none" stroke-width="0" stroke-linecap="butt"/><path d="M244.9928,201.15767l0.45,-0.13333c0,0 -0.40244,0.8 -0.81666,0.8c-0.41422,0 -0.55,-0.53333 -0.55,-0.53333z" data-paper-data="{&quot;index&quot;:null}" fill="#f0e9bb" stroke="none" stroke-width="0" stroke-linecap="butt"/><path d="M240.70006,201.59542l0.46708,-0.04595c0,0 -0.54629,0.70961 -0.95305,0.63138c-0.40676,-0.07822 -0.43938,-0.6276 -0.43938,-0.6276z" data-paper-data="{&quot;index&quot;:null}" fill="#f0e9bb" stroke="none" stroke-width="0" stroke-linecap="butt"/><path d="M245.79075,194.32664c0.89017,-0.13167 1.53273,0.00325 1.91114,0.27572c0.05392,0.03863 0.02437,0.07946 0.08967,0.14211c0.07899,0.0759 0.29363,0.19131 0.25292,0.16276c0,0 -0.07653,0.15489 -0.06897,0.22774c0.00967,0.09261 0.12721,0.19961 0.03874,0.17766c0,0 0.05956,0.13571 0.04788,0.18509c-0.12746,0.53937 -0.56113,1.23746 -1.13694,1.59871c0.31354,0.46926 -1.66734,-2.35025 -1.13443,-2.76977z" data-paper-data="{&quot;index&quot;:null}" fill="#ed3e67" stroke="none" stroke-width="0.17188" stroke-linecap="butt"/><path d="M237.84293,198.50498l-0.1281,2.30693l0.23684,1.858l0.27,1.31409c0.03194,0.15448 -1.61281,-1.04939 -1.9544,-1.47756c-0.42277,-0.52972 -0.69585,-1.11052 -0.96633,-1.69223c-0.19733,-0.42389 -0.2148,-0.59804 -0.27869,-0.90659l-0.19816,-0.95796c-0.03767,-0.182 -0.13337,-1.10839 0.04438,-1.26885c0.05046,-0.04551 0.6943,0.41382 0.76769,0.41151l0.53564,-0.01843c0.15892,-0.00533 0.63104,-0.34725 0.76783,-0.45968c0.09997,-0.08203 0.65316,-0.71372 0.70796,-1.32706l0.05416,-0.60671c0.00813,-0.09085 -0.22733,-1.04181 -0.19108,-1.05917c0.07463,-0.03602 -0.77211,-1.04298 -0.69444,-1.08466c0.4321,-0.23258 0.95602,-0.53001 1.54567,-0.66383c0.92696,-0.21038 1.94343,-0.18805 2.4643,-0.18494c0.08881,0.00053 1.22044,0.02972 1.89862,0.25298c1.07391,0.35345 1.68136,1.03643 1.72312,1.07386c0.65595,0.5875 1.14565,1.27362 1.49133,2.04514l0.18943,0.65333c0.09699,0.33442 0.43378,2.17617 0.25814,2.8296l-0.59922,2.23153c-0.10483,0.39082 -1.12475,2.2255 -1.33604,2.12083c-0.29607,-0.14634 -0.3104,-1.2979 -0.40955,-1.15609c-0.2198,0.31408 1.5137,-1.23781 1.59355,-1.66951c0.1364,-0.73809 0.41303,-1.44198 0.3464,-1.96056c-0.01266,-0.09792 -0.02703,-0.76835 -0.0393,-0.93047c-0.00953,-0.12817 -0.08843,-0.23201 -0.21701,-0.19788c-0.08557,0.02264 -0.28987,-0.08059 -0.417,0.12504l-0.3766,0.60986c-0.06113,0.09874 -1.1915,1.89272 -1.2487,1.75711c-0.01055,-0.02521 0.21211,-0.59817 0.22407,-0.63619c0.07271,-0.22994 0.07922,-0.4088 0.00661,-0.32608c-0.19097,0.21755 -0.50977,0.78797 -0.50977,0.78797c-0.04573,0.07037 -0.55868,0.03066 -0.90562,-0.08715c-0.32279,-0.1096 -0.73074,-0.49526 -0.8336,-0.59047l-1.11742,-1.03524c-1.04957,-0.97189 -0.97965,-0.55354 -1.04143,-0.66619c0.04627,-0.07543 -0.74464,-0.09663 -0.93088,0.07863c-0.0742,0.06981 -0.30104,0.20395 -0.4179,0.27277c-0.15552,0.09142 -0.26261,0.14565 -0.31453,0.23427z" data-paper-data="{&quot;index&quot;:null}" fill="#54c81c" stroke="none" stroke-width="0.17188" stroke-linecap="butt"/><path d="M233.92321,197.01384c-0.58602,-0.19558 -1.13162,-0.73123 -1.37378,-1.19361c-0.02223,-0.0423 -0.00387,-0.17998 -0.00387,-0.17998c-0.07115,0.04062 0.00452,-0.0844 -0.00985,-0.17104c-0.01125,-0.06809 -0.11541,-0.19163 -0.11541,-0.19163c-0.0282,0.03556 0.12904,-0.11961 0.17887,-0.2071c0.04107,-0.07244 0.00547,-0.10278 0.04266,-0.15079c0.26044,-0.33625 0.78278,-0.60865 1.58435,-0.69583c1.04878,-0.11388 1.97597,0.64928 1.97873,1.02607c0,0 -1.28097,2.09772 -2.28175,1.76388z" data-paper-data="{&quot;index&quot;:null}" fill="#ed3e67" stroke="none" stroke-width="0.17188" stroke-linecap="butt"/><path d="M236.97778,195.91685c0.14291,-0.1014 -0.27114,1.33365 -0.63915,1.53619c-0.63293,0.34825 -0.55994,0.60072 -1.10401,0.4393c-0.12219,-0.03604 -0.36519,-0.24927 -0.71329,-0.39008c-0.40327,-0.16293 -0.76098,-0.39091 -0.62822,-0.46084l0.79835,-0.47571l1.17881,-1.3299c0.01834,-0.0207 -0.22581,-0.22322 -0.60523,-0.48719c-0.26604,-0.18518 -0.66369,-0.40428 -0.97319,-0.52116c-0.18237,-0.0688 0.18011,-0.2822 0.6971,-0.43407c0.2506,-0.07366 0.51662,-0.17052 0.81442,-0.1559c0.51572,0.02546 0.89702,0.61348 1.03928,1.21136c0.1333,0.55989 0.03998,1.13526 0.13513,1.06798z" data-paper-data="{&quot;index&quot;:null}" fill="#54c81c" stroke="none" stroke-width="0.17188" stroke-linecap="butt"/><path d="M237.72157,195.87625c0.03435,1.17315 -1.11767,2.21981 -1.49288,2.19596l-0.58878,0.11246l-0.83792,-0.4921c-0.2145,-0.12608 1.16273,0.06572 1.49485,-0.30433c0.21679,-0.24136 0.37507,-0.42776 0.4051,-0.52292c0.28483,-0.90745 0.24781,-1.64755 0.06481,-2.12863c-0.28758,-0.75596 -0.85494,-0.99486 -0.48822,-1.17262c0.87442,-0.42408 1.40547,1.03004 1.44309,2.31217z" data-paper-data="{&quot;index&quot;:null}" fill="#ead32e" stroke="none" stroke-width="0.17188" stroke-linecap="butt"/><path d="M245.43482,195.18918c0,0 -0.27366,-0.33607 -0.46711,-0.59538c-0.40356,-0.54094 -1.00821,-0.86363 -0.89382,-1.01691c0.09576,-0.06236 0.59087,0.06376 0.72674,0.18961l0.27603,0.25544c0.4853,0.44933 0.68078,1.10607 0.67493,1.37564c-0.00251,0.11661 0.12235,0.32851 0.08131,0.45852c0,0 -0.31928,-0.40175 -0.39808,-0.66696z" data-paper-data="{&quot;index&quot;:null}" fill="#ead32e" stroke="none" stroke-width="0.17188" stroke-linecap="butt"/><path d="M245.06557,193.90648c0,0 1.04051,-0.03971 1.22924,0.2468c0.12547,0.19026 -0.04077,0.65286 0.10462,0.79693c0.18051,0.1789 0.45189,0.62197 0.59674,0.94832c0.04497,0.29901 0.15456,0.58482 0.02875,0.91968c0.0543,0.29422 -0.67476,0.84123 -0.70213,0.74481l-0.37215,-1.31058c-0.09441,-0.33253 -0.30808,-1.00645 -0.36697,-1.14305z" data-paper-data="{&quot;index&quot;:null}" fill="#54c81c" stroke="none" stroke-width="0.17188" stroke-linecap="butt"/><path d="M239.67528,202.98994l0.83906,-0.00612" data-paper-data="{&quot;index&quot;:null}" fill="none" stroke="#dfcfa3" stroke-width="0.36953" stroke-linecap="round"/><g data-paper-data="{&quot;index&quot;:null}" stroke="none" stroke-linecap="butt"><path d="M239.6819,216.72585c0,0 -3.02637,0.41016 -4.08736,0.41971c-1.06098,0.00952 -2.67916,-0.48001 -2.67916,-0.48001l-2.67264,-1.19536c0,0 1.53702,-0.78705 2.26662,-0.87027c0.72957,-0.08323 3.50704,0.51387 3.54396,0.39372c0.0894,-0.29086 4.41511,-0.24461 4.19474,0.41955z" data-paper-data="{&quot;index&quot;:null}" fill="#54c81c" stroke-width="0.17188"/><g><path d="M244.23793,215.34036l1.62057,-0.18289l1.65886,-0.36955l0.48096,0.80832c0,0 -1.43309,0.69379 -2.35258,0.75329c-0.91948,0.0595 -2.40658,-0.09541 -2.40626,-0.35569c0.00099,-0.79416 -0.74801,-2.59137 -0.75598,-2.70236z" data-paper-data="{&quot;index&quot;:null}" fill="#54c81c" stroke-width="0.17188"/><path d="M245.13593,214.11104c0.57826,0.381 3.10165,0.68833 1.7538,0.93308c-1.34787,0.24474 -3.47412,0.71039 -3.65069,0.02586c-0.16349,-0.63425 -0.58102,-1.11001 -0.85746,-2.21097c-0.27643,-1.10094 -1.37045,-4.18044 -1.05165,-5.1264c1.30974,1.83671 1.69857,4.09862 2.5712,5.22675c0.87263,1.12814 0.6565,0.77073 1.23476,1.15173z" data-paper-data="{&quot;index&quot;:null}" fill="#ffffff" stroke-width="0.17188"/><path d="M243.51225,216.08453c-0.0012,0.67313 0.78002,1.11049 1.25423,1.75306c0.47423,0.64258 1.40409,1.5215 1.40409,1.5215c0,0 -3.70964,-0.27312 -4.53247,-0.80741c-0.82283,-0.53427 -1.44801,-1.50698 -1.43348,-1.95695c0.02468,-0.76578 -0.22123,-3.03994 -0.2265,-3.1468c-0.01279,-0.25848 2.22046,-0.44305 2.23849,0.15264z" data-paper-data="{&quot;index&quot;:null}" fill="#54c81c" stroke-width="0.17188"/><path d="M240.97398,206.92401l0.57681,0.85234c0.47953,0.76039 0.88008,2.87799 0.88008,2.87799c0.29366,0.99544 0.45882,1.34198 0.52823,2.64551c0.06867,1.28993 0.25155,1.1705 0.32714,1.7557c0.07559,0.58521 0.93045,1.59431 0.48365,1.63442c-0.42732,0.03835 -2.46454,-0.28832 -2.96025,-0.9658c-0.24257,-0.33105 -0.71908,0.29018 -0.89193,-0.38157c-0.16006,-0.62241 -0.92306,-3.05339 -1.3124,-4.36062c-0.38932,-1.30721 -0.35977,-2.89463 -0.31935,-3.38752c0.01658,-0.20211 0.51451,-0.37276 0.51451,-0.37276z" data-paper-data="{&quot;index&quot;:null}" fill="#ffffff" stroke-width="0.17188"/><g data-paper-data="{&quot;index&quot;:null}"><path d="M233.76752,212.46872c0.28851,-0.62131 1.95573,-1.36282 2.4941,-2.20613c1.05032,-1.64526 2.40029,-3.34091 2.48891,-3.18558c0.09982,0.21984 -1.3179,5.71662 -2.28245,7.34593c-0.38232,0.64772 -2.9703,-1.11135 -2.70058,-1.95419z" data-paper-data="{&quot;index&quot;:null}" fill="#ffffff" stroke-width="0.19137"/><path d="M235.57819,213.45864c0.2713,0.364 0.74267,-0.28084 0.59648,0.10182c-0.10193,0.26682 -0.94309,0.74487 -1.42973,1.39756c-0.21088,0.28264 -1.64937,-2.30363 -1.64937,-2.30363l0.97085,-0.63919c0,0 0.96476,1.14159 1.23612,1.50566z" data-paper-data="{&quot;index&quot;:null}" fill="#54c81c" stroke-width="0.17188"/></g><path d="M240.14035,207.06598c0.56602,0.16869 1.27385,2.35771 1.07401,3.34351c-0.19984,0.9858 -0.37226,3.41564 -0.81271,4.84853c-0.43583,1.41781 -2.67517,0.83735 -3.25123,1.02371c-0.57604,0.18632 -1.6245,-0.29401 -1.6245,-0.29401c0,0 -0.77701,0.03341 -1.60826,-0.16566c-0.83124,-0.19906 -2.31843,-0.42644 -1.9476,-0.68595c0.92232,-0.64543 3.92849,-3.09766 4.18274,-3.52731c0.71546,-1.20889 2.05013,-3.06689 2.57083,-3.66122c0.5207,-0.59432 1.41672,-0.8816 1.41672,-0.8816z" data-paper-data="{&quot;index&quot;:null}" fill="#ffffff" stroke-width="0.17188"/></g></g><path d="M245.91247,199.75398l0.05378,-0.20263l0.88618,0.02564z" data-paper-data="{&quot;index&quot;:null}" fill="#000000" stroke="none" stroke-width="0" stroke-linecap="butt"/><g stroke="none" stroke-width="0.17188" stroke-linecap="butt"><g data-paper-data="{&quot;index&quot;:null}"><path d="M239.84258,203.79594c0.01382,0.8194 -0.42937,1.17039 -0.57216,1.05219c-0.331,-0.27379 -1.44688,-3.03661 -1.50002,-4.42428c-0.0334,-0.87701 -0.70839,-3.21894 -0.4114,-4.0216c0.1954,-0.52734 1.25889,-0.46617 1.83205,-0.461c0.44365,0.00312 0.78354,-0.14634 0.81906,0.2823c0.10722,1.29642 -0.09781,2.57032 -0.08553,4.22249c0.01229,1.65218 -0.10016,2.27101 -0.08199,3.3499z" fill="#c27e34"/><path d="M238.47067,194.814c-0.31189,0.40806 -0.67536,0.29939 -0.83338,0.17856c-0.75715,-0.61933 -1.25883,-1.74762 -1.22564,-2.62526c-0.04108,0.17407 0.25944,-0.82404 1.20635,-0.75729c0.41028,0.01119 1.15349,-0.16393 1.81309,-0.18619l0.6319,0.14334c0.29038,0.06576 0.43751,0.47145 0.28712,0.75345c-0.02223,0.04172 0.22173,-0.06644 0.36106,0.06386c0.25078,0.23455 0.45879,0.77254 0.26436,1.01731c-0.17028,0.21479 -0.16828,0.62991 -0.51558,0.82734c-0.46831,0.26622 -0.28326,-0.40998 -0.71177,-0.32709c-0.25471,0.04915 -1.27036,0.9028 -1.2775,0.91197z" fill="#ffcfea"/></g><path d="M239.88811,196.32807c-0.43194,0.18369 -0.59952,0.18919 -1.17032,0.17551c-0.57081,-0.01367 -1.19819,0.06435 -1.42132,-0.23981c-0.25117,-0.57624 -0.088,-0.58805 -0.06108,-1.08154c0.02691,-0.49349 0.20893,-1.24393 0.20893,-1.24393c0.03605,-0.01123 0.83782,-0.27433 1.33,-0.32917c0.49217,-0.05484 1.01485,-0.12013 1.25285,0.07156c0.16475,0.13238 0.24701,-0.00264 0.25868,0.46795c0.01229,0.49999 0.17782,1.1666 0.05803,1.66347c-0.05182,0.21512 -0.02382,0.3323 -0.45576,0.51599z" data-paper-data="{&quot;index&quot;:null}" fill="#fca03b"/></g><g data-paper-data="{&quot;index&quot;:null}" stroke="none" stroke-width="0" stroke-linecap="butt"><path d="M231.06498,201.9713c1.31892,0.62182 2.35761,3.08367 2.35761,3.08367c0.22697,0.56379 0.23942,1.10492 0.17328,1.64901c-0.05761,0.47386 -0.17483,0.94999 -0.26188,1.44533c-0.18704,1.06409 -1.14513,-0.30033 -1.14513,-0.30033c0,0 -1.50304,-1.88777 -1.8295,-3.11809c-0.84529,-1.99029 -2.21574,-1.38871 -2.21574,-1.38871c0,0 1.60246,-1.9927 2.92136,-1.37088z" fill="#54c81c"/><path d="M227.46173,203.7901c-0.17408,-0.35401 -0.02819,-0.78209 0.32582,-0.95617c0.354,-0.17406 0.7821,-0.02818 0.95617,0.32583c0.17407,0.35402 0.02818,0.7821 -0.32583,0.95617c-0.35402,0.17407 -0.78209,0.02819 -0.95617,-0.32582z" fill="#ffffff"/></g><g data-paper-data="{&quot;index&quot;:null}" stroke="none" stroke-width="0" stroke-linecap="butt"><path d="M230.99722,203.02365c1.28843,0.68275 2.21102,3.19041 2.21102,3.19041c0.20039,0.57378 0.18757,1.11488 0.09608,1.6553c-0.07968,0.47065 -0.21901,0.94078 -0.3291,1.43153c-0.23652,1.0542 -1.12985,-0.35348 -1.12985,-0.35348c0,0 -1.41325,-1.95592 -1.68189,-3.20012c-0.75143,-2.0276 -2.14846,-1.49067 -2.14846,-1.49067c0,0 1.69376,-1.91571 2.98218,-1.23296z" fill="#54c81c"/><path d="M227.31296,204.67221c-0.15735,-0.36174 0.00835,-0.78256 0.37011,-0.93991c0.36175,-0.15735 0.78257,0.00837 0.93991,0.37013c0.15734,0.36176 -0.00837,0.78257 -0.37013,0.93991c-0.36175,0.15735 -0.78256,-0.00835 -0.93991,-0.37011z" fill="#ffffff"/></g><path d="M235.21726,210.95113c0,0 -0.58547,0.5067 -1.48253,-0.70149c-0.89708,-1.2082 -1.20205,-2.22845 -1.77842,-3.1941c-0.4738,-0.79378 -1.3709,-1.90492 -1.51672,-2.48919c-0.14582,-0.58427 -0.02026,-1.35321 0.6774,-0.94479c0.54845,0.32107 1.72096,2.64193 1.72096,2.64193c0,0 1.25685,2.06012 1.67771,2.55283c1.27931,1.59487 4.79657,-1.59039 4.79657,-1.59039l0.60905,1.51037l-4.70404,2.21481z" fill="#ffffff" stroke="none" stroke-width="0" stroke-linecap="butt"/><path d="M234.48457,212.17687c0,0 -0.6194,0.46462 -1.42996,-0.80324c-0.81056,-1.26786 -1.04358,-2.30689 -1.55115,-3.31042c-0.41724,-0.82493 -1.23461,-1.99595 -1.3393,-2.58898c-0.10466,-0.59304 0.07424,-1.35134 0.7417,-0.89522c0.52471,0.35856 1.53239,2.75559 1.53239,2.75559c0,0 1.11001,2.14282 1.49546,2.6637c1.16488,1.68026 4.89587,-1.25176 4.89587,-1.25176l0.50215,1.5492l-4.84714,1.88111z" fill="#ffffff" stroke="none" stroke-width="0" stroke-linecap="butt"/><path d="M241.50485,194.39272c4.0188,-0.31644 4.61355,3.9547 4.65704,4.20958c0.06856,0.6054 -0.02549,1.22414 -0.21409,1.80059c-0.30735,0.96433 -0.93163,1.85553 -1.82531,2.35572c-0.44724,0.179 -0.37997,0.16844 -0.81297,0.36633c-0.63406,0.42025 -1.54918,0.51312 -2.27393,0.50729c-0.58822,0.02637 -1.17605,-0.04347 -1.74587,-0.19255c-0.36494,-0.10965 -0.77246,-0.1625 -1.07427,-0.41276c-0.27742,-0.23759 -0.50564,-0.56647 -0.51551,-0.94307c-0.07449,-0.91392 -0.15757,-1.82864 -0.14928,-2.74595c0.00738,-0.11943 -0.43267,-4.59975 3.95419,-4.94518z" data-paper-data="{&quot;index&quot;:null}" fill="#f0e9bb" stroke="none" stroke-width="0.17188" stroke-linecap="butt"/><path d="M244.30436,199.01779c-0.57076,0.44788 -0.18008,2.25292 -0.18008,2.25292c0,0 -0.61678,-1.64896 0.05779,-2.33696c0.20811,-0.21225 0.32622,-0.32982 0.52276,-0.38144c0.27412,-0.07199 0.40114,0.00137 0.61027,0.18982c0.1163,0.10479 0.31509,0.43597 0.32553,0.75955c0.00241,0.07462 1.18793,0.07506 1.18793,0.07506c0,0 -0.84362,0.13613 -1.02375,0.25868c-0.172,0.11702 -0.05377,0.46302 -0.1514,0.75489c-0.09764,0.29187 -0.22168,0.41893 -0.22168,0.41893c0,0 0.14663,-0.42381 0.12964,-0.98414c-0.01271,-0.41935 -0.16873,-1.03677 -0.39571,-1.21444c-0.30301,-0.26417 -0.44533,-0.21652 -0.86131,0.20713z" data-paper-data="{&quot;index&quot;:null}" fill="#000000" stroke="none" stroke-width="0" stroke-linecap="butt"/><path d="M244.95234,198.77492c0.24826,-0.04061 0.39401,0.08879 0.48279,0.36783c0.06208,0.19567 0.10361,0.48668 0.10168,0.75089c-0.00215,0.28487 -0.00214,0.45569 -0.03743,0.62631c-0.03467,0.16755 -0.10484,0.33684 -0.07917,0.3932c0.03723,0.08163 -0.06894,0.18503 -0.46418,0.27076c-0.25316,0.05494 -0.49978,0.09461 -0.71039,0.12755c-0.20734,0.00501 -0.31126,-1.13601 -0.18074,-1.43449c0.08213,-0.54868 0.28129,-0.89441 0.88745,-1.10205z" data-paper-data="{&quot;index&quot;:null}" fill="#ffffff" stroke="none" stroke-width="0.17188" stroke-linecap="butt"/><g data-paper-data="{&quot;index&quot;:null}" stroke="none" stroke-linecap="butt"><path d="M244.4972,200.49086c0,-0.5294 0.20288,-0.95856 0.45314,-0.95856c0.25026,0 0.45314,0.42916 0.45314,0.95856c0,0.5294 -0.20288,0.95856 -0.45314,0.95856c-0.25026,0 -0.45314,-0.42916 -0.45314,-0.95856z" fill="#008ae6" stroke-width="0"/><path d="M244.94566,199.66532c0.07892,-0.00736 0.1526,0.06999 0.20772,0.2009c0.05525,0.13092 0.09193,0.31542 0.09713,0.52227c0.00504,0.20696 -0.0224,0.39744 -0.07075,0.53808c-0.04848,0.14062 -0.11785,0.23143 -0.19677,0.23877c-0.07892,0.00736 -0.15262,-0.06999 -0.20772,-0.20089c-0.05525,-0.13093 -0.09195,-0.31542 -0.097,-0.52226c-0.00518,-0.20698 0.02225,-0.39746 0.07057,-0.5381c0.04848,-0.14063 0.11797,-0.23127 0.19679,-0.23878z" fill="#000000" stroke-width="0.0278"/><path d="M244.80124,199.90322c0.0419,-0.09781 0.10095,-0.15996 0.16695,-0.16302c0.06603,-0.00305 0.12675,0.05362 0.17136,0.14739c0.0448,0.0938 0.07346,0.22477 0.07549,0.37069c0.00218,0.14612 -0.02275,0.27957 -0.06482,0.37735c-0.04189,0.09781 -0.10094,0.15998 -0.16694,0.16303c-0.06603,0.00305 -0.12675,-0.05362 -0.17136,-0.1474c-0.0448,-0.0938 -0.07347,-0.22477 -0.0755,-0.37069c-0.00217,-0.14612 0.02276,-0.27956 0.06483,-0.37734z" fill="#ffffff" stroke-width="0.01811"/></g><path d="M241.19899,201.52903c-0.25971,0 -0.60994,0.03376 -0.92479,0.01872c-0.49139,-0.02363 -0.93532,-0.15374 -0.93532,-0.15374c0,0 -0.34037,-0.32711 -0.32037,-1.01971c0.01782,-0.61715 0.3131,-1.38581 0.81319,-1.38581c0.35709,0 0.66262,0.1376 1.01899,0.65129c0.08756,0.12623 0.59849,1.86225 0.3483,1.88925z" data-paper-data="{&quot;index&quot;:null}" fill="#ffffff" stroke="none" stroke-width="0.17188" stroke-linecap="butt"/><g data-paper-data="{&quot;index&quot;:null}" stroke="none" stroke-linecap="butt"><path d="M240.24721,200.82419c0,-0.5294 0.20288,-0.95856 0.45313,-0.95856c0.25025,0 0.45313,0.42916 0.45313,0.95856c0,0.5294 -0.20288,0.95856 -0.45313,0.95856c-0.25025,0 -0.45313,-0.42916 -0.45313,-0.95856z" fill="#008ae6" stroke-width="0"/><path d="M240.69566,199.99864c0.07892,-0.00736 0.1526,0.07 0.20772,0.20091c0.05525,0.13092 0.09193,0.31542 0.09713,0.52227c0.00504,0.20696 -0.0224,0.39744 -0.07075,0.53808c-0.04848,0.14062 -0.11785,0.23142 -0.19677,0.23877c-0.07892,0.00736 -0.15261,-0.07 -0.20772,-0.20089c-0.05525,-0.13092 -0.09195,-0.31541 -0.097,-0.52225c-0.00518,-0.20699 0.02225,-0.39747 0.07057,-0.53811c0.04848,-0.14062 0.11796,-0.23126 0.19679,-0.23877z" fill="#000000" stroke-width="0.0278"/><path d="M240.55125,200.23656c0.0419,-0.0978 0.10095,-0.15994 0.16695,-0.16301c0.06603,-0.00305 0.12675,0.05362 0.17136,0.14739c0.0448,0.0938 0.07346,0.22477 0.07549,0.37069c0.00217,0.14612 -0.02276,0.27956 -0.06483,0.37735c-0.0419,0.0978 -0.10095,0.15998 -0.16695,0.16303c-0.06603,0.00305 -0.12675,-0.05361 -0.17136,-0.1474c-0.0448,-0.0938 -0.07346,-0.22477 -0.07549,-0.37069c-0.00217,-0.14612 0.02276,-0.27956 0.06483,-0.37735z" fill="#ffffff" stroke-width="0.01811"/></g><path d="M240.59463,199.42929c-0.41598,-0.42365 -0.72904,-0.49569 -1.03205,-0.23153c-0.22698,0.17767 -0.383,0.79509 -0.39571,1.21444c-0.01699,0.56033 0.12964,0.98414 0.12964,0.98414c0,0 -0.12404,-0.12706 -0.22167,-0.41893c-0.09763,-0.29187 0.0206,-0.63787 -0.1514,-0.75489c-0.18012,-0.12255 -1.02374,-0.25869 -1.02374,-0.25869c0,0 1.18552,-0.00044 1.18793,-0.07506c0.01043,-0.32357 0.20922,-0.65476 0.32552,-0.75955c0.20913,-0.18845 0.43372,-0.26181 0.70783,-0.18982c0.19655,0.05163 0.36344,0.21798 0.57155,0.43023c0.67457,0.688 0.61877,2.11745 0.61877,2.11745c0,0 -0.14592,-1.60991 -0.71667,-2.05779z" data-paper-data="{&quot;index&quot;:null}" fill="#000000" stroke="none" stroke-width="0" stroke-linecap="butt"/><path d="M244.9928,201.15767l0.45,-0.13333c0,0 -0.40244,0.8 -0.81666,0.8c-0.41422,0 -0.55,-0.53333 -0.55,-0.53333z" data-paper-data="{&quot;index&quot;:null}" fill="#f0e9bb" stroke="none" stroke-width="0" stroke-linecap="butt"/><path d="M240.70006,201.59542l0.46708,-0.04595c0,0 -0.54629,0.70961 -0.95305,0.63138c-0.40676,-0.07822 -0.43938,-0.6276 -0.43938,-0.6276z" data-paper-data="{&quot;index&quot;:null}" fill="#f0e9bb" stroke="none" stroke-width="0" stroke-linecap="butt"/><path d="M245.79075,194.32664c0.89017,-0.13167 1.53273,0.00325 1.91114,0.27572c0.05392,0.03863 0.02437,0.07946 0.08967,0.14211c0.07899,0.0759 0.29363,0.19131 0.25292,0.16276c0,0 -0.07653,0.15489 -0.06897,0.22774c0.00967,0.09261 0.12721,0.19961 0.03874,0.17766c0,0 0.05956,0.13571 0.04788,0.18509c-0.12746,0.53937 -0.56113,1.23746 -1.13694,1.59871c0.31354,0.46926 -1.66734,-2.35025 -1.13443,-2.76977z" data-paper-data="{&quot;index&quot;:null}" fill="#ed3e67" stroke="none" stroke-width="0.17188" stroke-linecap="butt"/><path d="M237.84293,198.50498l-0.1281,2.30693l0.23684,1.858l0.27,1.31409c0.03194,0.15448 -1.61281,-1.04939 -1.9544,-1.47756c-0.42277,-0.52972 -0.69585,-1.11052 -0.96633,-1.69223c-0.19733,-0.42389 -0.2148,-0.59804 -0.27869,-0.90659l-0.19816,-0.95796c-0.03767,-0.182 -0.13337,-1.10839 0.04438,-1.26885c0.05046,-0.04551 0.6943,0.41382 0.76769,0.41151l0.53564,-0.01843c0.15892,-0.00533 0.63104,-0.34725 0.76783,-0.45968c0.09997,-0.08203 0.65316,-0.71372 0.70796,-1.32706l0.05416,-0.60671c0.00813,-0.09085 -0.22733,-1.04181 -0.19108,-1.05917c0.07463,-0.03602 -0.77211,-1.04298 -0.69444,-1.08466c0.4321,-0.23258 0.95602,-0.53001 1.54567,-0.66383c0.92696,-0.21038 1.94343,-0.18805 2.4643,-0.18494c0.08881,0.00053 1.22044,0.02972 1.89862,0.25298c1.07391,0.35345 1.68136,1.03643 1.72312,1.07386c0.65595,0.5875 1.14565,1.27362 1.49133,2.04514l0.18943,0.65333c0.09699,0.33442 0.43378,2.17617 0.25814,2.8296l-0.59922,2.23153c-0.10483,0.39082 -1.12475,2.2255 -1.33604,2.12083c-0.29607,-0.14634 -0.3104,-1.2979 -0.40955,-1.15609c-0.2198,0.31408 1.5137,-1.23781 1.59355,-1.66951c0.1364,-0.73809 0.41303,-1.44198 0.3464,-1.96056c-0.01266,-0.09792 -0.02703,-0.76835 -0.0393,-0.93047c-0.00953,-0.12817 -0.08843,-0.23201 -0.21701,-0.19788c-0.08557,0.02264 -0.28987,-0.08059 -0.417,0.12504l-0.3766,0.60986c-0.06113,0.09874 -1.1915,1.89272 -1.2487,1.75711c-0.01055,-0.02521 0.21211,-0.59817 0.22407,-0.63619c0.07271,-0.22994 0.07922,-0.4088 0.00661,-0.32608c-0.19097,0.21755 -0.50977,0.78797 -0.50977,0.78797c-0.04573,0.07037 -0.55868,0.03066 -0.90562,-0.08715c-0.32279,-0.1096 -0.73074,-0.49526 -0.8336,-0.59047l-1.11742,-1.03524c-1.04957,-0.97189 -0.97965,-0.55354 -1.04143,-0.66619c0.04627,-0.07543 -0.74464,-0.09663 -0.93088,0.07863c-0.0742,0.06981 -0.30104,0.20395 -0.4179,0.27277c-0.15552,0.09142 -0.26261,0.14565 -0.31453,0.23427z" data-paper-data="{&quot;index&quot;:null}" fill="#54c81c" stroke="none" stroke-width="0.17188" stroke-linecap="butt"/><path d="M233.92321,197.01384c-0.58602,-0.19558 -1.13162,-0.73123 -1.37378,-1.19361c-0.02223,-0.0423 -0.00387,-0.17998 -0.00387,-0.17998c-0.07115,0.04062 0.00452,-0.0844 -0.00985,-0.17104c-0.01125,-0.06809 -0.11541,-0.19163 -0.11541,-0.19163c-0.0282,0.03556 0.12904,-0.11961 0.17887,-0.2071c0.04107,-0.07244 0.00547,-0.10278 0.04266,-0.15079c0.26044,-0.33625 0.78278,-0.60865 1.58435,-0.69583c1.04878,-0.11388 1.97597,0.64928 1.97873,1.02607c0,0 -1.28097,2.09772 -2.28175,1.76388z" data-paper-data="{&quot;index&quot;:null}" fill="#ed3e67" stroke="none" stroke-width="0.17188" stroke-linecap="butt"/><path d="M236.97778,195.91685c0.14291,-0.1014 -0.27114,1.33365 -0.63915,1.53619c-0.63293,0.34825 -0.55994,0.60072 -1.10401,0.4393c-0.12219,-0.03604 -0.36519,-0.24927 -0.71329,-0.39008c-0.40327,-0.16293 -0.76098,-0.39091 -0.62822,-0.46084l0.79835,-0.47571l1.17881,-1.3299c0.01834,-0.0207 -0.22581,-0.22322 -0.60523,-0.48719c-0.26604,-0.18518 -0.66369,-0.40428 -0.97319,-0.52116c-0.18237,-0.0688 0.18011,-0.2822 0.6971,-0.43407c0.2506,-0.07366 0.51662,-0.17052 0.81442,-0.1559c0.51572,0.02546 0.89702,0.61348 1.03928,1.21136c0.1333,0.55989 0.03998,1.13526 0.13513,1.06798z" data-paper-data="{&quot;index&quot;:null}" fill="#54c81c" stroke="none" stroke-width="0.17188" stroke-linecap="butt"/><path d="M237.72157,195.87625c0.03435,1.17315 -1.11767,2.21981 -1.49288,2.19596l-0.58878,0.11246l-0.83792,-0.4921c-0.2145,-0.12608 1.16273,0.06572 1.49485,-0.30433c0.21679,-0.24136 0.37507,-0.42776 0.4051,-0.52292c0.28483,-0.90745 0.24781,-1.64755 0.06481,-2.12863c-0.28758,-0.75596 -0.85494,-0.99486 -0.48822,-1.17262c0.87442,-0.42408 1.40547,1.03004 1.44309,2.31217z" data-paper-data="{&quot;index&quot;:null}" fill="#ead32e" stroke="none" stroke-width="0.17188" stroke-linecap="butt"/><path d="M245.43482,195.18918c0,0 -0.27366,-0.33607 -0.46711,-0.59538c-0.40356,-0.54094 -1.00821,-0.86363 -0.89382,-1.01691c0.09576,-0.06236 0.59087,0.06376 0.72674,0.18961l0.27603,0.25544c0.4853,0.44933 0.68078,1.10607 0.67493,1.37564c-0.00251,0.11661 0.12235,0.32851 0.08131,0.45852c0,0 -0.31928,-0.40175 -0.39808,-0.66696z" data-paper-data="{&quot;index&quot;:null}" fill="#ead32e" stroke="none" stroke-width="0.17188" stroke-linecap="butt"/><path d="M245.06557,193.90648c0,0 1.04051,-0.03971 1.22924,0.2468c0.12547,0.19026 -0.04077,0.65286 0.10462,0.79693c0.18051,0.1789 0.45189,0.62197 0.59674,0.94832c0.04497,0.29901 0.15456,0.58482 0.02875,0.91968c0.0543,0.29422 -0.67476,0.84123 -0.70213,0.74481l-0.37215,-1.31058c-0.09441,-0.33253 -0.30808,-1.00645 -0.36697,-1.14305z" data-paper-data="{&quot;index&quot;:null}" fill="#54c81c" stroke="none" stroke-width="0.17188" stroke-linecap="butt"/><path d="M239.67528,202.98994l0.83906,-0.00612" data-paper-data="{&quot;index&quot;:null}" fill="none" stroke="#dfcfa3" stroke-width="0.36953" stroke-linecap="round"/><g data-paper-data="{&quot;index&quot;:null}" stroke="none" stroke-linecap="butt"><path d="M239.6819,216.72585c0,0 -3.02637,0.41016 -4.08736,0.41971c-1.06098,0.00952 -2.67916,-0.48001 -2.67916,-0.48001l-2.67264,-1.19536c0,0 1.53702,-0.78705 2.26662,-0.87027c0.72957,-0.08323 3.50704,0.51387 3.54396,0.39372c0.0894,-0.29086 4.41511,-0.24461 4.19474,0.41955z" data-paper-data="{&quot;index&quot;:null}" fill="#54c81c" stroke-width="0.17188"/><g><path d="M244.23793,215.34036l1.62057,-0.18289l1.65886,-0.36955l0.48096,0.80832c0,0 -1.43309,0.69379 -2.35258,0.75329c-0.91948,0.0595 -2.40658,-0.09541 -2.40626,-0.35569c0.00099,-0.79416 -0.74801,-2.59137 -0.75598,-2.70236z" data-paper-data="{&quot;index&quot;:null}" fill="#54c81c" stroke-width="0.17188"/><path d="M245.13593,214.11104c0.57826,0.381 3.10165,0.68833 1.7538,0.93308c-1.34787,0.24474 -3.47412,0.71039 -3.65069,0.02586c-0.16349,-0.63425 -0.58102,-1.11001 -0.85746,-2.21097c-0.27643,-1.10094 -1.37045,-4.18044 -1.05165,-5.1264c1.30974,1.83671 1.69857,4.09862 2.5712,5.22675c0.87263,1.12814 0.6565,0.77073 1.23476,1.15173z" data-paper-data="{&quot;index&quot;:null}" fill="#ffffff" stroke-width="0.17188"/><path d="M243.51225,216.08453c-0.0012,0.67313 0.78002,1.11049 1.25423,1.75306c0.47423,0.64258 1.40409,1.5215 1.40409,1.5215c0,0 -3.70964,-0.27312 -4.53247,-0.80741c-0.82283,-0.53427 -1.44801,-1.50698 -1.43348,-1.95695c0.02468,-0.76578 -0.22123,-3.03994 -0.2265,-3.1468c-0.01279,-0.25848 2.22046,-0.44305 2.23849,0.15264z" data-paper-data="{&quot;index&quot;:null}" fill="#54c81c" stroke-width="0.17188"/><path d="M240.97398,206.92401l0.57681,0.85234c0.47953,0.76039 0.88008,2.87799 0.88008,2.87799c0.29366,0.99544 0.45882,1.34198 0.52823,2.64551c0.06867,1.28993 0.25155,1.1705 0.32714,1.7557c0.07559,0.58521 0.93045,1.59431 0.48365,1.63442c-0.42732,0.03835 -2.46454,-0.28832 -2.96025,-0.9658c-0.24257,-0.33105 -0.71908,0.29018 -0.89193,-0.38157c-0.16006,-0.62241 -0.92306,-3.05339 -1.3124,-4.36062c-0.38932,-1.30721 -0.35977,-2.89463 -0.31935,-3.38752c0.01658,-0.20211 0.51451,-0.37276 0.51451,-0.37276z" data-paper-data="{&quot;index&quot;:null}" fill="#ffffff" stroke-width="0.17188"/><g data-paper-data="{&quot;index&quot;:null}"><path d="M233.76752,212.46872c0.28851,-0.62131 1.95573,-1.36282 2.4941,-2.20613c1.05032,-1.64526 2.40029,-3.34091 2.48891,-3.18558c0.09982,0.21984 -1.3179,5.71662 -2.28245,7.34593c-0.38232,0.64772 -2.9703,-1.11135 -2.70058,-1.95419z" data-paper-data="{&quot;index&quot;:null}" fill="#ffffff" stroke-width="0.19137"/><path d="M235.57819,213.45864c0.2713,0.364 0.74267,-0.28084 0.59648,0.10182c-0.10193,0.26682 -0.94309,0.74487 -1.42973,1.39756c-0.21088,0.28264 -1.64937,-2.30363 -1.64937,-2.30363l0.97085,-0.63919c0,0 0.96476,1.14159 1.23612,1.50566z" data-paper-data="{&quot;index&quot;:null}" fill="#54c81c" stroke-width="0.17188"/></g><path d="M240.14035,207.06598c0.56602,0.16869 1.27385,2.35771 1.07401,3.34351c-0.19984,0.9858 -0.37226,3.41564 -0.81271,4.84853c-0.43583,1.41781 -2.67517,0.83735 -3.25123,1.02371c-0.57604,0.18632 -1.6245,-0.29401 -1.6245,-0.29401c0,0 -0.77701,0.03341 -1.60826,-0.16566c-0.83124,-0.19906 -2.31843,-0.42644 -1.9476,-0.68595c0.92232,-0.64543 3.92849,-3.09766 4.18274,-3.52731c0.71546,-1.20889 2.05013,-3.06689 2.57083,-3.66122c0.5207,-0.59432 1.41672,-0.8816 1.41672,-0.8816z" data-paper-data="{&quot;index&quot;:null}" fill="#ffffff" stroke-width="0.17188"/></g></g><g data-paper-data="{&quot;index&quot;:null}" stroke-width="0" stroke-linecap="butt"><path d="M253.03356,192.91227c-0.46354,-0.12359 -0.73912,-0.59956 -0.61552,-1.06309c0.12359,-0.46354 0.59956,-0.73912 1.0631,-0.61553c0.46354,0.12359 0.73911,0.59956 0.61552,1.06309c-0.12359,0.46354 -0.59956,0.73912 -1.06309,0.61553z" fill="#db7b04" stroke="none"/><path d="M253.4737,191.14218c0.15927,0.04247 -0.02028,0.50286 -0.13982,0.95121c-0.11954,0.44834 -0.13008,0.92404 -0.28935,0.88158c-0.2426,-0.06469 -0.16926,-0.52366 -0.04972,-0.97199c0.11954,-0.44834 0.20854,-0.93288 0.47891,-0.86079z" fill="#feeb00" stroke="#000000"/><path d="M254.04104,192.23096c0.17504,0.04667 0.04063,0.11658 0.0173,0.20409c-0.02334,0.08752 -0.42114,0.11693 -0.59617,0.07026c-0.17504,-0.04667 -0.04621,-0.2073 -0.02286,-0.29482c0.02334,-0.08752 0.4267,-0.02622 0.60174,0.02045z" fill="#000000" stroke="none"/><path d="M253.6166,191.5727c0.01227,-0.04601 -0.03013,-0.15677 0.09257,-0.12404c0.1227,0.03272 0.33629,0.1891 0.32402,0.23513c-0.01227,0.04602 -0.09391,0.06421 -0.21662,0.03148c-0.1227,-0.03272 -0.21224,-0.09654 -0.19997,-0.14255z" fill="#000000" stroke="none"/></g><path d="M236.30576,193.75462c0,0 0.69561,-1.44961 1.73599,-2.53078c0.85701,-0.89061 2.4128,-1.7325 4.20971,-2.02579c1.79691,-0.29329 3.99773,-0.30033 6.77306,0.53546c2.77534,0.83579 3.82072,2.37918 3.82072,2.37918c0,0 -1.66251,-0.14052 -2.80398,-0.24544c-1.14147,-0.10492 -1.41529,0.00682 -2.33412,0.04032c-0.91883,0.0335 -1.28766,0.16368 -2.21815,0.72592c-0.93049,0.56224 -1.1397,1.35532 -1.1397,1.35532c0,0 -2.23811,-0.77099 -3.52581,-0.80848c-1.38621,-0.04036 -4.51772,0.57429 -4.51772,0.57429z" data-paper-data="{&quot;index&quot;:null}" fill="#c27e34" stroke="none" stroke-width="0" stroke-linecap="butt"/><path d="M240.87486,201.7742c0,0.32172 -0.83042,0.58253 -1.43843,0.58253c-0.6502,0 -1.15691,-0.24128 -1.18527,-0.78252c-0.01988,-0.37923 0.33363,-0.31664 0.72717,-0.20391c0.16813,0.04816 0.34356,0.10547 0.5003,0.14139c0.59098,0.13544 1.39624,-0.0592 1.39624,0.26252z" data-paper-data="{&quot;index&quot;:null}" fill="url(#color-1)" stroke="none" stroke-width="0" stroke-linecap="butt"/><path d="M245.91247,199.75398l0.05378,-0.20263l0.88618,0.02564z" data-paper-data="{&quot;index&quot;:null}" fill="#000000" stroke="none" stroke-width="0" stroke-linecap="butt"/><g stroke="none" stroke-width="0.17188" stroke-linecap="butt"><g data-paper-data="{&quot;index&quot;:null}"><path d="M239.84258,203.79594c0.01382,0.8194 -0.42937,1.17039 -0.57216,1.05219c-0.331,-0.27379 -1.44688,-3.03661 -1.50002,-4.42428c-0.0334,-0.87701 -0.70839,-3.21894 -0.4114,-4.0216c0.1954,-0.52734 1.25889,-0.46617 1.83205,-0.461c0.44365,0.00312 0.78354,-0.14634 0.81906,0.2823c0.10722,1.29642 -0.09781,2.57032 -0.08553,4.22249c0.01229,1.65218 -0.10016,2.27101 -0.08199,3.3499z" fill="#c27e34"/><path d="M238.47067,194.814c-0.31189,0.40806 -0.67536,0.29939 -0.83338,0.17856c-0.75715,-0.61933 -1.25883,-1.74762 -1.22564,-2.62526c-0.04108,0.17407 0.25944,-0.82404 1.20635,-0.75729c0.41028,0.01119 1.15349,-0.16393 1.81309,-0.18619l0.6319,0.14334c0.29038,0.06576 0.43751,0.47145 0.28712,0.75345c-0.02223,0.04172 0.22173,-0.06644 0.36106,0.06386c0.25078,0.23455 0.45879,0.77254 0.26436,1.01731c-0.17028,0.21479 -0.16828,0.62991 -0.51558,0.82734c-0.46831,0.26622 -0.28326,-0.40998 -0.71177,-0.32709c-0.25471,0.04915 -1.27036,0.9028 -1.2775,0.91197z" fill="#ffcfea"/></g><path d="M239.88811,196.32807c-0.43194,0.18369 -0.59952,0.18919 -1.17032,0.17551c-0.57081,-0.01367 -1.19819,0.06435 -1.42132,-0.23981c-0.25117,-0.57624 -0.088,-0.58805 -0.06108,-1.08154c0.02691,-0.49349 0.20893,-1.24393 0.20893,-1.24393c0.03605,-0.01123 0.83782,-0.27433 1.33,-0.32917c0.49217,-0.05484 1.01485,-0.12013 1.25285,0.07156c0.16475,0.13238 0.24701,-0.00264 0.25868,0.46795c0.01229,0.49999 0.17782,1.1666 0.05803,1.66347c-0.05182,0.21512 -0.02382,0.3323 -0.45576,0.51599z" data-paper-data="{&quot;index&quot;:null}" fill="#fca03b"/></g><g data-paper-data="{&quot;index&quot;:null}" stroke="none" stroke-width="0" stroke-linecap="butt"><path d="M246.44436,195.36763c0.17506,0.08649 0.26485,0.15726 0.26485,0.15726l0.41471,-0.89813l0.26294,0.41024c0,0 -0.12485,0.2207 -0.32986,0.40255c-0.19395,0.17203 -0.46605,0.30632 -0.55282,0.28758c-0.22333,-0.04822 -0.67512,-0.3312 -0.84826,-0.32602c-0.15542,0.00464 -0.22374,0.14652 -0.36178,0.20524c-0.20888,0.08886 -0.4575,0.10027 -0.45892,0.05274c-0.00157,-0.05245 0.15342,-0.28771 0.35417,-0.39727c0.15324,-0.08362 0.56942,-0.0897 0.70055,-0.09362c0.08883,-0.00266 0.36618,0.10646 0.55442,0.19946z" fill="#671829"/><path d="M245.2723,195.66862c0.06897,-0.00206 0.82043,-0.11416 1.08971,0.38782c0.18634,0.34735 -0.30244,0.75598 -0.30244,0.75598l-0.32416,-0.14341c0,0 0.64963,-0.31107 0.5537,-0.54454c-0.19828,-0.48254 -1.1513,0.07536 -1.18165,0.07626c-0.13298,0.00397 -0.24753,-0.21921 -0.25088,-0.3314c-0.00335,-0.11221 0.28276,-0.19673 0.41575,-0.2007z" fill="#671829"/><path d="M244.56193,196.64277c0,0 -0.37347,-0.13579 -0.3718,-0.2301c0.00327,-0.18566 0.39996,-0.58451 0.54314,-0.58879c0.04303,-0.00128 0.23296,0.16197 0.39333,0.38325c0.11022,0.15205 0.15902,0.36442 0.12363,0.45688c-0.03298,0.08613 -0.28782,0.18038 -0.43317,0.09726c-0.13015,-0.07442 -0.13755,-0.33056 -0.13626,-0.28794c0.00546,0.18295 -0.11888,0.16945 -0.11888,0.16945z" fill="#804046"/><path d="M244.5986,194.84578c0.10804,0.03769 0.19392,0.3258 0.19392,0.3258l0.04403,-0.27827l0.42539,0.14692c0,0 -0.13064,0.30913 -0.23157,0.46749c-0.14686,0.23045 -0.20633,0.40117 -0.24936,0.40245c-0.14318,0.00427 -0.55557,-0.62648 -0.56991,-0.8116c-0.00729,-0.09405 0.33053,-0.27264 0.3875,-0.25279z" data-paper-data="{&quot;index&quot;:null}" fill="#804046"/><path d="M244.72588,195.65482c0.0935,-0.0028 0.17141,0.06568 0.17401,0.15295c0.00261,0.08728 -0.07107,0.16028 -0.16457,0.16307c-0.0935,0.0028 -0.17141,-0.06568 -0.17401,-0.15295c-0.00261,-0.08728 0.07107,-0.16028 0.16457,-0.16307z" fill="#671829"/></g><path d="M244.10023,201.33942c0,-0.32172 0.40934,-0.00709 0.73911,-0.14253c0.08746,-0.03592 0.26535,-0.05323 0.35917,-0.10139c0.2196,-0.11272 0.49686,-0.49531 0.48577,-0.11608c-0.01583,0.54124 -0.41857,0.94252 -0.78139,0.94252c-0.33927,0 -0.80266,-0.26081 -0.80266,-0.58253z" data-paper-data="{&quot;index&quot;:null}" fill="url(#color-2)" stroke="none" stroke-width="0" stroke-linecap="butt"/></g></g></svg>