<svg version="1.1" xmlns="http://www.w3.org/2000/svg" xmlns:xlink="http://www.w3.org/1999/xlink" width="51.16757" height="86.75676" viewBox="0,0,51.16757,86.75676"><g transform="translate(-217.54391,-120.1933)"><g data-paper-data="{&quot;isPaintingLayer&quot;:true}" fill-rule="nonzero" stroke-linejoin="miter" stroke-miterlimit="10" stroke-dasharray="" stroke-dashoffset="0" style="mix-blend-mode: normal"><g data-paper-data="{&quot;index&quot;:null}" stroke="none" stroke-width="0" stroke-linecap="butt"><path d="M234.3542,189.46425c2.88123,0.2178 5.14055,2.91174 4.9537,3.4352c-0.58181,1.62993 -2.78656,4.86363 -5.06676,6.40489c-3.01252,2.03626 -6.21886,4.78577 -6.90733,3.7083c-1.81098,-2.83426 1.26482,-5.64047 4.27733,-7.67673c0.69539,-0.47005 -2.4565,-5.90461 2.74305,-5.87166z" fill="#09031a"/><path d="M233.87352,196.85991c0,0 -1.24526,-0.5318 -2.23463,-0.32017c-0.98937,0.21163 -3.14508,1.47092 -3.14508,1.47092c0,0 -0.27236,-0.825 0.62458,-1.83685c0.86948,-0.98088 2.46997,-2.00405 2.49565,-2.01757c2.5804,-1.35848 4.53193,1.1447 4.53193,1.1447z" fill="#b16e27"/><path d="M232.53438,200.07376c1.24706,-0.88487 2.38316,-1.99979 3.3581,-3.09694c2.06985,-2.32928 3.41334,-4.57841 3.55025,-4.37587c0.12392,0.18332 -0.705,3.63965 -2.45566,5.40188c-1.09444,1.10167 -3.77693,3.04334 -4.77904,3.75861c-5.5395,3.95392 -4.83759,1.33122 -4.83759,1.33122c0,0 2.55368,-1.16675 5.16393,-3.0189z" fill="#a75c1e"/><path d="M237.25523,195.5467c0.40949,0.60581 -0.01534,1.60846 -0.94889,2.23948c-0.93355,0.63102 -2.0223,0.65145 -2.43179,0.04564c-0.40949,-0.60581 0.01534,-1.60847 0.94889,-2.23948c0.93354,-0.63102 2.02229,-0.65145 2.43178,-0.04564z" fill="#999999"/><path d="M236.32064,196.257c0.12084,0.17876 -0.1175,0.55098 -0.53234,0.83139c-0.41484,0.28041 -0.84909,0.3628 -0.96992,0.18404c-0.12083,-0.17877 0.1175,-0.55099 0.53234,-0.8314c0.41483,-0.2804 0.84908,-0.36279 0.96991,-0.18403z" fill="#b16e27"/></g><g data-paper-data="{&quot;index&quot;:null}"><path d="M230.84029,174.63065c-2.62614,-0.50304 -3.23171,-6.10191 -1.35259,-12.50543c0.64902,-2.21169 1.50956,-4.2301 2.46628,-5.90418c0.44652,-0.78133 0.91398,-1.48765 1.39069,-2.10361c0.20471,-0.26451 1.93144,-2.52091 2.13864,-2.75088c1.26957,-1.4092 1.04786,-0.13849 2.16184,0.07489c1.15162,0.2206 1.82511,-1.11598 2.16047,0.70263c0.02093,0.11351 0.12977,2.76655 0.14736,2.88479c0.34324,2.30725 0.0484,5.49786 -0.95525,8.91801c-1.87912,6.40352 -5.53134,11.18681 -8.15747,10.68377z" fill="#462fb6" stroke="none" stroke-width="0" stroke-linecap="butt"/><path d="M237.92156,167.02373c0,0 -0.84625,1.87496 -1.27252,2.74244c-0.60573,1.23267 -1.27364,1.90056 -1.27364,1.90056c0,0 -2.32791,0.5458 -4.09383,-0.04002c-1.9943,-0.66159 -2.91911,-2.21085 -2.91911,-2.21085c0,0 -0.04152,-0.87764 0.0734,-1.9902c0.07905,-0.76526 0.24168,-2.0382 0.24168,-2.0382c0,0 1.81777,2.0395 4.17905,2.54346c3.8976,0.83185 5.06497,-0.90722 5.06497,-0.90722z" fill="#0d0627" stroke="none" stroke-width="0" stroke-linecap="butt"/><path d="M239.65722,161.04835c0,0 -0.20092,1.23307 -0.37466,1.93499c-0.17375,0.70193 -0.5454,1.78201 -0.5454,1.78201c0,0 -3.27306,0.65654 -5.03898,0.07072c-1.9943,-0.66159 -4.19932,-2.44521 -4.19932,-2.44521c0,0 0.15454,-0.88156 0.35987,-1.50205c0.20533,-0.62048 0.7663,-1.7297 0.7663,-1.7297c0,0 1.7611,1.60308 4.12238,2.10704c3.89758,0.83186 4.9098,-0.2178 4.9098,-0.2178z" fill="#0d0627" stroke="none" stroke-width="0" stroke-linecap="butt"/><path d="M239.90811,155.29098c0,0 0.23221,1.14704 0.17616,1.86797c-0.06416,0.82533 -0.09374,1.75485 -0.09374,1.75485c0,0 -2.65708,0.27407 -4.37521,-0.11712c-1.71812,-0.39119 -4.01109,-1.79229 -4.01109,-1.79229c0,0 0.56409,-1.21298 0.81485,-1.6214c0.25076,-0.40842 0.78544,-1.05572 0.78544,-1.05572c0,0 0.94305,0.94919 3.30433,1.45315c2.82242,0.53249 3.39926,-0.48942 3.39926,-0.48942z" fill="#0d0627" stroke="none" stroke-width="0" stroke-linecap="butt"/><path d="M240.22236,152.01894l-0.13979,1.51388c0,0 -1.39702,0.5618 -2.18845,0.25693c-0.79143,-0.30487 0.15446,-1.51184 -0.34396,-1.12175c-0.29923,0.23418 -0.83267,0.67528 -1.20375,0.63442c-0.88613,-0.09759 -1.4824,-1.34483 -1.79465,-1.84122c-0.2603,-0.41379 1.44775,-1.01931 1.41807,-1.32773c-0.01409,-0.14643 -0.35986,-1.32281 -0.14145,-2.89049c0.14247,-1.02269 -0.04397,-2.84528 1.11768,-2.45649c0.3696,0.12371 0.64381,0.44913 0.64381,0.44913c0,0 0.72139,-0.14705 1.13815,0.00619c0.41677,0.15324 0.20029,0.65343 0.27085,0.51189c0.12661,-0.25398 0.70831,-0.32932 1.1712,-0.21342c0.46288,0.1159 0.76559,0.69836 0.76559,0.69836c0,0 1.11702,-0.68486 1.67458,0.48953c0.35305,0.74363 -0.99343,2.21722 -0.91031,2.22191c0.19785,0.01117 0.91063,0.82707 0.56558,1.49271c-0.43764,0.84425 -2.04315,1.57613 -2.04315,1.57613z" fill="#c08f5a" stroke="none" stroke-width="0" stroke-linecap="butt"/><path d="M240.00432,150.1044c0,0 -1.02122,-0.13953 -1.41171,-0.54585c-1.13457,-1.18055 0.22269,-1.12668 0.34894,-1.22367c0.12725,-0.09776 0.74615,0.34168 1.37074,0.486c0.66785,0.1543 1.33958,0.01778 1.33958,0.01778" fill="none" stroke="#b26a37" stroke-width="1.5" stroke-linecap="round"/><path d="M240.86845,146.34876l-0.47315,0.67983" fill="none" stroke="#b26a37" stroke-width="0.5" stroke-linecap="round"/><path d="M238.88534,145.85643l-0.29228,0.36394" fill="none" stroke="#b26a37" stroke-width="0.5" stroke-linecap="round"/><path d="M237.49816,145.39765l-0.29534,0.41813" fill="none" stroke="#b26a37" stroke-width="0.5" stroke-linecap="round"/><path d="M237.90539,147.81201c0,0 -0.66505,0.00465 -0.97176,-0.06919c-0.28082,-0.0676 -0.51154,-0.61236 -0.51154,-0.61236" fill="none" stroke="#b26a37" stroke-width="0.5" stroke-linecap="round"/><path d="M240.10789,152.12115c0,0 -1.5557,-0.23392 -2.22695,-0.54006c-0.68826,-0.3139 -1.85289,-1.32065 -1.85289,-1.32065" fill="none" stroke="#b26a37" stroke-width="1" stroke-linecap="round"/></g><g data-paper-data="{&quot;index&quot;:null}" stroke="none" stroke-linecap="butt"><path d="M254.62472,194.882c-2.03345,0.22537 -4.69625,-3.52412 -4.69625,-3.52412c0,0 0.92528,-0.45618 1.95592,-1.77518c0.58461,-0.74816 0.66276,-2.80363 1.35581,-2.38496c0.92042,0.55601 1.96004,0.15446 1.96981,-0.1085c0.07235,-1.94706 1.22995,-3.68984 1.22995,-3.68984c0,0 -0.47504,-1.36576 -0.62867,-2.17904c-0.19541,-1.03441 -0.44885,-3.5251 -0.44885,-3.5251c0,0 1.15676,1.81271 1.74428,2.5462c0.46088,0.57538 1.49409,1.49669 1.49409,1.49669c0,0 1.85832,-1.26802 3.1176,-1.96105c1.25927,-0.69303 2.28686,-1.01324 2.28686,-1.01324l-2.08985,4.08275c0,0 2.02482,-0.81266 3.36755,-1.18376c1.34273,-0.3711 1.98542,-0.29568 1.98542,-0.29568c0,0 -0.71036,1.35744 -1.28601,2.14611c-0.57564,0.78867 -1.48241,1.64683 -1.48241,1.64683c0,0 1.42215,0.12121 2.32498,0.25604c0.90283,0.13483 1.88654,0.47721 1.88654,0.47721c0,0 -1.71379,0.55051 -2.86218,1.10578c-0.93472,0.45196 -2.35328,1.45774 -2.35328,1.45774c0,0 -2.59446,3.00063 -3.65563,3.76919c-1.06118,0.76857 -3.55994,2.47242 -5.21568,2.65593z" fill="#1c0e4c" stroke-width="NaN"/><path d="M260.82619,191.22219c0,0 -1.02573,1.00883 -1.58342,1.42481c-0.54538,0.4068 -1.72659,1.04413 -1.72659,1.04413c0,0 0.21704,-1.52813 0.21704,-3.01156c0,-0.52808 -0.17984,-1.71133 -0.9253,-2.46496c-0.68779,-0.69533 -1.62029,-1.14737 -1.62029,-1.14737l0.15804,-0.81005c0,0 2.13337,-1.3915 3.94933,0.08191c2.06813,1.67802 1.53117,4.88311 1.53117,4.88311z" fill="#684af8" stroke-width="0"/><path d="M253.04283,187.34292c0,0 1.20734,1.51678 1.20734,3.12008c0,1.6033 -1.8947,3.22861 -2.15693,3.22861c-0.08488,0 -0.62874,-0.56799 -1.14236,-1.09725c-0.44804,-0.46168 -0.98809,-1.1652 -0.98809,-1.1652c0,0 1.07716,-0.80084 1.4386,-1.31886c1.38369,-1.98314 1.64143,-2.76738 1.64143,-2.76738z" fill="#684af8" stroke-width="0"/></g><g data-paper-data="{&quot;index&quot;:null}" stroke="none" stroke-width="0" stroke-linecap="butt"><path d="M251.80582,157.78751c3.49367,-1.03728 10.96978,-1.61935 11.57339,-1.1085c0.23088,0.1954 -5.06229,1.50116 -8.24013,3.05419c-4.11426,1.79554 -7.78224,4.68453 -7.78224,4.68453c0,0 -1.96948,-2.38149 -1.96948,-2.79309c0,-0.9333 2.33066,-2.62345 6.41846,-3.83713z" data-paper-data="{&quot;index&quot;:null}" fill="#ffffff"/><path d="M251.0557,157.36683c0.3442,-0.45894 0.68154,-1.19812 0.68154,-1.19812c0,0 2.20101,-0.4341 5.31771,-0.4341c3.1167,0 5.62305,0.24148 6.40295,0.75967c0.25936,0.17232 -3.39423,-0.14702 -6.35146,0.44792c-3.03028,0.60964 -6.8343,1.66831 -6.8343,1.66831c0,0 0.43935,-0.78477 0.78355,-1.2437z" fill="#1a0c47"/><path d="M248.96922,159.2599c1.29495,-0.1416 3.75263,0.05566 3.88241,0.16069c0.15036,0.12167 -2.15751,1.65005 -2.8947,2.47328c-0.73719,0.82323 -2.67365,2.74107 -2.67365,2.74107c0,0 -0.73618,-1.3894 -1.40933,-2.51749c-0.43187,-0.72375 -0.86972,-1.33995 -0.96529,-1.41266c-0.18514,-0.14085 2.02292,-1.22208 4.06056,-1.44489z" data-paper-data="{&quot;index&quot;:null}" fill="#e8e8e8"/><path d="M241.58379,160.30171c0,0 3.43331,-2.20227 5.1911,-2.94826c2.67603,-1.13568 5.35388,-1.17568 5.35388,-1.17568l-1.66366,2.35013c0,0 -1.97222,0.70628 -2.77651,1.22118c-0.80428,0.5149 -2.19792,1.80066 -2.19792,1.80066c0,0 -0.81617,-0.58691 -1.68906,-0.85822c-0.8729,-0.27131 -2.21783,-0.38983 -2.21783,-0.38983z" data-paper-data="{&quot;index&quot;:null}" fill="#684af8"/></g><g data-paper-data="{&quot;index&quot;:null}" stroke="none" stroke-width="0" stroke-linecap="butt"><path d="M222.01952,157.24489c0,-0.0831 1.60223,-0.7036 3.69617,-0.79394c1.93314,-0.0834 4.29849,0.28749 4.29849,0.28749l1.26612,2.7493c0,0 -0.93473,-0.35667 -3.65366,-1.3023c-1.22947,-0.4276 -5.60711,-0.41896 -5.60711,-0.94054z" fill="#1a0c47"/><path d="M233.96432,164.39201c0,0.9333 -1.91053,-1.78617 -4.97664,-3.73636c-1.9298,-1.22745 -7.22298,-3.07584 -6.99209,-3.27124c0.60361,-0.51086 6.0205,0.54597 9.34863,2.03096c3.32812,1.48499 2.6201,4.04334 2.6201,4.97664z" fill="#ffffff"/><path d="M235.09419,162.27837c-0.24455,0.18604 -1.1266,2.13949 -1.1266,2.13949c0,0 -0.38281,-1.16337 -0.99151,-2.30698c-0.58595,-1.10083 -1.30867,-2.24308 -1.15831,-2.36475c0.31062,-0.25135 3.59443,2.2903 3.27642,2.53224z" fill="#e8e8e8"/><path d="M237.93649,160.35593c0,0 -1.00763,0.48907 -1.67521,0.9234c-0.66757,0.43433 -1.25496,1.03005 -1.25496,1.03005c0,0 -1.10872,-0.75959 -2.03513,-1.69214c-0.4434,-0.44633 -1.41883,-0.87131 -2.17963,-1.65528c-0.77175,-0.79526 -1.32474,-1.94734 -1.1753,-2.07882c0.71616,-0.63009 3.49179,0.47409 5.24537,1.22994c1.75357,0.75585 3.07487,2.24285 3.07487,2.24285z" fill="#684af8"/></g><path d="M252.82398,164.86332c0,0.21196 -0.42713,0.26319 -0.83257,0.37425c-0.48306,0.13231 -1.12088,0.41255 -1.12088,0.41255c0,0 0.633,0.28606 0.87303,0.63126c0.24003,0.3452 0.43634,1.25185 0.43634,1.25185c0,0 -0.7314,-0.04699 -1.2,-0.04319c-0.09202,0.00075 0.36213,0.51068 0.58342,0.99284c0.27145,0.59145 0.14991,1.17912 0.14991,1.17912c0,0 -0.71888,-0.68062 -1.47684,-1.27876c-0.13462,-0.10624 0.34045,0.60356 0.50488,1.17498c0.19897,0.69141 -0.03367,1.3533 -0.03367,1.3533c0,0 -1.16302,-1.05287 -1.25356,-1.04418c-0.81798,0.07854 -4.46697,-1.39704 -4.75356,-1.77438c-0.4528,-0.59618 3.02284,-3.82651 3.02284,-3.82651c0,0 1.02762,-0.29844 2.49607,-0.29844c1.46844,0 2.60459,0.43082 2.60459,0.89533z" data-paper-data="{&quot;index&quot;:null}" fill="#5133c8" stroke="none" stroke-width="NaN" stroke-linecap="butt"/><g data-paper-data="{&quot;index&quot;:null}" stroke="none" stroke-width="0" stroke-linecap="butt"><path d="M254.69528,179.55579c-0.10852,11.62009 -6.27605,14.16248 -14.01794,14.16248c-7.74189,0 -13.90943,-5.25551 -14.01795,-14.16248c2.18373,-7.92967 7.90301,-14.18629 14.01796,-14.16248c7.41511,0.02887 13.6569,9.48832 14.01795,14.16248z" fill="#684af8"/><path d="M245.3405,168.93123c0,0 -0.41152,0.4121 -0.96148,1.15249c-0.54998,0.74038 -1.3404,1.94638 -1.3404,1.94638c0,0 0.62891,-0.33875 2.07638,-0.17816c0.44732,0.04962 1.16935,0.3976 1.16935,0.3976c0,0 -0.3441,0.30112 -1.25512,0.93794c-1.23183,0.86108 -1.90249,1.66517 -1.90249,1.66517c0,0 0.2587,0.00623 0.90059,0.27207c0.38928,0.16122 1.04185,0.66528 1.04185,0.66528c0,0 -2.17103,0.3149 -3.35414,1.78911c-0.99884,1.24459 0.96663,9.22507 -1.3122,12.86655c-1.7985,2.87395 -6.83246,0.72025 -8.35927,-0.3774c-3.9384,-2.83141 -4.78919,-5.38221 -5.01711,-9.16454c-0.32487,-5.39128 1.90041,-6.77972 1.90041,-6.77972c0,0 -0.38177,-0.53882 -0.54933,-0.9897c-0.23465,-0.63138 -0.16475,-1.22149 -0.16475,-1.22149l1.48771,0.75986l0.19524,-0.54727c0,0 -0.13386,-0.48762 -0.40113,-0.94282c-0.42535,-0.72444 -0.7286,-1.13955 -0.7286,-1.13955c0,0 0.6847,-0.18138 1.22134,-0.13963c0.53665,0.04175 1.33701,0.33867 1.33701,0.33867l0.06904,-3.32415c0,0 0.94936,0.7899 1.34137,1.23206c0.39201,0.44216 0.87359,1.26625 0.87359,1.26625c0,0 0.67391,-0.51154 2.23196,-0.44142c1.35452,0.06096 3.23827,1.25872 3.23827,1.25872c0,0 1.2721,-0.83062 2.66429,-1.12016c1.39219,-0.28954 3.59759,-0.18214 3.59759,-0.18214z" fill="#ffffff"/></g><g data-paper-data="{&quot;index&quot;:null}"><path d="M240.39639,167.74467c-3.776,0 -6.85875,-1.09284 -6.83705,-3.79836c0.01682,-2.09771 3.06105,-3.79836 6.83705,-3.79836c3.776,0 6.83706,1.70058 6.83706,3.79836c0,2.09778 -3.06106,3.79836 -6.83706,3.79836z" fill="#684af8" stroke="none" stroke-width="0" stroke-linecap="butt"/><path d="M237.19492,163.78353c-0.86748,-0.05426 0.54262,-3.36427 0.54262,-3.36427c0,0 0.3521,-0.28786 1.73603,-0.29605c1.11261,-0.00658 2.0352,0.10613 2.0352,0.10613c0,0 -0.60196,0.44037 -1.98743,1.47717c-0.85716,0.64145 -1.85039,2.10679 -2.32643,2.07701z" fill="#1c0e4c" stroke="none" stroke-width="0" stroke-linecap="butt"/><path d="M234.08624,164.01995c0.24607,-1.07384 1.01362,-1.80744 1.71438,-1.63854c0.70076,0.1689 1.06936,1.17635 0.8233,2.2502c-0.24606,1.07385 -1.05703,2.11132 -1.75779,1.94242c-0.70075,-0.1689 -1.02595,-1.48022 -0.77989,-2.55407z" fill="#1c0e4c" stroke="none" stroke-width="0" stroke-linecap="butt"/><g stroke="none" stroke-width="0" stroke-linecap="butt"><path d="M235.43138,166.06253c-0.3746,0 -0.67827,-0.30367 -0.67827,-0.67828c0,-0.3746 0.30366,-0.67827 0.67827,-0.67827c0.37461,0 0.67828,0.30366 0.67828,0.67827c0,0.37461 -0.30367,0.67828 -0.67828,0.67828z" fill="#ffff9b"/><path d="M235.41523,165.69651c-0.16353,0 -0.29608,-0.13256 -0.29608,-0.29608c0,-0.16353 0.13257,-0.29608 0.29608,-0.29608c0.16353,0 0.29608,0.13256 0.29608,0.29608c0,0.16352 -0.13257,0.29608 -0.29608,0.29608z" fill="#000000"/></g><path d="M242.64478,162.21844c0.94219,0.816 0.73578,2.59771 -0.46102,3.97959c-1.1968,1.38187 -2.93079,1.8406 -3.87297,1.0246c-0.94219,-0.816 -0.73578,-2.59771 0.46102,-3.97959c1.19679,-1.38187 2.93079,-1.8406 3.87297,-1.0246z" fill="#1c0e4c" stroke="none" stroke-width="0" stroke-linecap="butt"/><g stroke="none" stroke-width="0" stroke-linecap="butt"><path d="M239.25687,166.82217c-0.53943,0 -0.97672,-0.4373 -0.97672,-0.97672c0,-0.53943 0.4373,-0.97672 0.97672,-0.97672c0.53944,0 0.97673,0.4373 0.97673,0.97672c0,0.53943 -0.43731,0.97672 -0.97673,0.97672z" fill="#ffff9b"/><path d="M239.23362,166.2951c-0.23546,0 -0.42634,-0.19087 -0.42634,-0.42634c0,-0.23546 0.19087,-0.42634 0.42634,-0.42634c0.23547,0 0.42635,0.19087 0.42635,0.42634c0,0.23546 -0.19088,0.42634 -0.42635,0.42634z" fill="#000000"/></g><path d="M248.64011,163.6076c1.95469,-0.25959 2.3917,0.21919 2.3917,0.12164c0,-0.25343 -1.23706,0.52064 -2.02782,0.92551c-0.79077,0.40487 -1.36358,0.81089 -1.36358,0.81089c0,0 0.98946,0.05109 1.5614,0.28981c0.57194,0.23873 1.55868,1.01249 1.55868,1.01249c0,0 -1.61803,-0.05925 -2.65333,-0.03504c-1.03531,0.02422 -1.98611,0.03504 -1.98611,0.03504c0,0 -1.44762,2.40263 -9.47124,1.70246c-0.37063,-0.0063 -0.73938,-0.23452 -0.73938,-0.23452c0,0 -0.7963,-0.0081 -1.22056,-0.23195c-0.42426,-0.22385 -0.83489,-0.58665 -0.83489,-0.58665c0,0 -0.0229,0.10017 -0.23356,0.21193c-0.21065,0.11176 -0.94048,0.05823 -0.94048,0.05823l0.34837,-0.76091l-0.86787,-1.35578c0,0 0.37846,-0.00194 0.61309,0.04861c0.23463,0.05055 0.42119,0.17424 0.42119,0.17424l-0.33578,-1.59462c0,0 0.48858,0.35327 0.96255,0.85091c0.24221,0.2543 0.55272,0.6951 0.77034,0.94674c0.37044,0.42835 0.5894,0.45508 0.59759,0.42278c0.09067,-0.35786 0.86094,-0.43478 1.28963,-0.42757c0.71113,0.01196 2.05796,1.05866 3.01413,1.07736c1.49359,-0.05634 2.24469,-1.03939 3.66454,-1.63666c1.41985,-0.59727 1.69721,-0.59599 1.69721,-0.59599c0,0 0.7049,-0.86621 1.50075,-1.6318c1.55363,-1.49456 2.64685,-1.34903 2.64685,-1.34903c0,0 -0.68525,0.8168 -1.04914,1.26587c-0.32464,0.40061 -1.02988,1.2998 -1.02988,1.2998c0,0 -0.23909,-0.55417 1.7156,-0.81376z" fill="#ffffff" stroke="none" stroke-width="0" stroke-linecap="butt"/><path d="M235.79184,167.19059c-0.19999,0 -0.56433,-0.22062 -0.56433,-0.39377c0,-0.17315 0.21803,-0.25081 0.56433,-0.25081c0.3463,0 0.56433,0.07766 0.56433,0.25081c0,0.17314 -0.38524,0.39377 -0.56433,0.39377z" fill="#000000" stroke="none" stroke-width="0" stroke-linecap="butt"/><path d="M239.22123,168.532c0,0 -0.70114,0.11296 -1.2223,0.0331c-0.34343,-0.05263 -0.7434,-0.42178 -1.31377,-0.62464c-0.46499,-0.16539 -1.31961,0.22669 -1.73956,0.13462c-0.52393,-0.11487 -1.04209,-0.80196 -1.04209,-0.80196" fill="none" stroke="#000000" stroke-width="0.5" stroke-linecap="round"/></g><g data-paper-data="{&quot;index&quot;:null}" stroke="none" stroke-width="0" stroke-linecap="butt"><path d="M234.37327,185.11046c0,0 -0.31593,1.19487 -0.36555,1.84894c-0.00767,0.10099 0.28415,2.08509 0.28415,2.08509c0,0 -2.74935,-0.63591 -4.6686,-1.62586c-1.18689,-0.61219 -2.00529,-1.59436 -2.24807,-1.9405c-0.93307,-1.33029 -0.59867,-4.22029 -0.59867,-4.22029c0,0 1.39213,2.00538 4.2596,2.90303c2.04763,0.64102 3.33714,0.94959 3.33714,0.94959z" fill="#f0993f"/><path d="M232.69114,187.26491c-0.27913,0 -0.50541,-0.29332 -0.50541,-0.65516c0,-0.36184 0.22628,-0.65517 0.50541,-0.65517c0.27913,0 0.50541,0.29333 0.50541,0.65517c0,0.36183 -0.22628,0.65516 -0.50541,0.65516z" fill="#a94a00"/><path d="M232.87571,186.97685c-0.16067,0 -0.29092,-0.16884 -0.29092,-0.37712c0,-0.20828 0.13025,-0.37712 0.29092,-0.37712c0.16068,0 0.29093,0.16884 0.29093,0.37712c0,0.20828 -0.13026,0.37712 -0.29093,0.37712z" fill="#ffffff"/><path d="M230.39041,186.48356c-0.27913,0 -0.50542,-0.29333 -0.50542,-0.65517c0,-0.36184 0.22629,-0.65517 0.50542,-0.65517c0.27913,0 0.50541,0.29333 0.50541,0.65517c0,0.36184 -0.22628,0.65517 -0.50541,0.65517z" fill="#a94a00"/><path d="M230.5893,186.19741c-0.16068,0 -0.29093,-0.16884 -0.29093,-0.37712c0,-0.20828 0.13026,-0.37712 0.29093,-0.37712c0.16067,0 0.29092,0.16884 0.29092,0.37712c0,0.20828 -0.13025,0.37712 -0.29092,0.37712z" fill="#ffffff"/></g><g data-paper-data="{&quot;index&quot;:null}" stroke="none" stroke-width="0" stroke-linecap="butt"><path d="M251.96557,202.95197c-0.51566,3.47132 -3.646,2.96056 -5.46555,2.57396c-0.45434,-0.09653 -3.05567,-1.41035 -3.67968,-2.66689c-1.38902,-2.79702 -0.81751,-6.9754 -0.47083,-8.60704c0.18876,-0.88838 -1.76268,-2.5281 -0.2527,-3.00939c1.59721,-0.5091 6.67728,0.16868 7.54119,0.28015c0.4933,0.06364 -2.0272,1.22135 -1.69462,1.29201c0.63341,0.13459 1.43789,4.44122 2.04921,5.85501c0.80328,1.85771 2.1747,2.92436 1.97299,4.28219z" fill="#1c0e4c"/><path d="M250.45961,198.77825c0,0 -1.11803,-0.69352 -3.49914,-1.07631c-2.38111,-0.3828 -5.67736,1.65616 -5.67736,1.65616c0,0 -1.69734,-5.52371 5.61146,-4.68794c3.69739,0.4228 3.56504,4.10808 3.56504,4.10808z" fill="#f0993f"/><path d="M250.64732,198.42356c0.05479,0.83732 -0.14322,1.53196 -0.44226,1.55153c-0.29905,0.01956 -0.58588,-0.64336 -0.64067,-1.48068c-0.05479,-0.83732 0.14322,-1.53196 0.44226,-1.55153c0.29905,-0.01957 0.58588,0.64336 0.64067,1.48068z" fill="#c3c3c3"/><path d="M241.55298,198.50564c-0.01837,-0.27352 0.63726,0.19618 0.63726,0.19618c0,0 -0.04659,2.25029 0.81891,4.01883c0.69997,1.43028 2.14832,2.40885 3.50994,2.69816c3.08403,0.65527 4.94942,-0.94544 4.94942,-0.94544c0,0 1.03865,3.4277 -4.59855,2.21823c-6.3908,-1.37115 -5.05044,-4.21861 -5.31697,-8.18595z" fill="#f0993f"/><g><path d="M240.51477,197.75253c0.26409,-1.24291 0.95344,-2.14951 1.53972,-2.02494c0.58627,0.12457 0.84746,1.23313 0.58338,2.47604c-0.26408,1.2429 -0.95343,2.1495 -1.53971,2.02493c-0.58627,-0.12457 -0.84747,-1.23313 -0.58339,-2.47604z" fill="#c3c3c3"/><path d="M241.46634,197.57746c0.09716,-0.45729 0.35078,-0.79085 0.56649,-0.74502c0.2157,0.04583 0.3118,0.4537 0.21464,0.911c-0.09716,0.45729 -0.35079,0.79085 -0.5665,0.74502c-0.2157,-0.04583 -0.31179,-0.45369 -0.21463,-0.91099z" fill="#dd6c23"/></g></g><g data-paper-data="{&quot;index&quot;:null}" stroke="none" stroke-width="0" stroke-linecap="butt"><path d="M241.78208,185.63423c0.01779,-0.17394 2.98607,-0.22523 5.50927,-0.635c3.6313,-0.58973 7.09407,-1.54997 7.09407,-1.54997c0,0 -0.41766,3.38267 -1.12865,3.96478c-0.33651,0.27551 -1.78082,1.11908 -3.37467,1.56573c-1.59385,0.44665 -2.50298,0.41217 -4.20369,0.55798c-1.70071,0.14581 -4.37383,-0.05451 -4.37383,-0.05451c0,0 0.36363,-2.73601 0.47751,-3.84901z" fill="#f0993f"/><g><g><path d="M246.09533,192.39487c0.15915,0.77369 -1.13951,3.17435 -1.13951,3.17435c0,0 -3.06145,-1.20988 -3.25574,-1.70926c-0.08719,-0.22411 -0.45076,-1.55169 -0.87042,-2.46359c-0.41579,-0.90349 -0.88865,-1.38997 -0.77619,-1.90859c0.45138,-2.08158 0.57043,-3.57725 1.04973,-3.57725c0.71924,0 4.70222,5.07498 4.99213,6.48435z" fill="#f0993f"/><g><path d="M241.98929,187.92172c-0.50772,2.24077 -2.73581,3.64567 -4.97658,3.13795c-2.24077,-0.50773 -3.64567,-2.73582 -3.13795,-4.97659c0.50773,-2.24077 2.73582,-3.64567 4.97659,-3.13795c2.24077,0.50773 3.64567,2.73582 3.13795,4.97659z" fill="#fde02b"/><path d="M239.64249,187.2557c-0.23577,1.04056 -1.27045,1.69296 -2.31101,1.45719c-1.04056,-0.23578 -1.69296,-1.27045 -1.45719,-2.31101c0.23577,-1.04057 1.27045,-1.69297 2.31101,-1.4572c1.04056,0.23577 1.69296,1.27045 1.45719,2.31101z" fill="#f4a51d"/><path d="M237.26053,186.82151c0.09883,-0.43619 0.92459,-0.62085 1.84437,-0.41243c0.91979,0.2084 1.58531,0.73096 1.48647,1.16714c-0.09884,0.43619 -0.92459,0.62085 -1.84437,0.41243c-0.91979,-0.20841 -1.58531,-0.73097 -1.48647,-1.16715z" fill="#fffed5"/></g></g><g><path d="M243.60893,192.9633c-0.39558,0 -0.71626,-0.32069 -0.71626,-0.71627c0,-0.39558 0.32068,-0.71626 0.71626,-0.71626c0.39558,0 0.71626,0.32068 0.71626,0.71626c0,0.39558 -0.32068,0.71627 -0.71626,0.71627z" fill="#934200"/><path d="M243.93451,192.48578c-0.19179,0 -0.34727,-0.15547 -0.34727,-0.34727c0,-0.1918 0.15547,-0.34728 0.34727,-0.34728c0.19179,0 0.34727,0.15548 0.34727,0.34728c0,0.19179 -0.15547,0.34727 -0.34727,0.34727z" fill="#1c0e4c"/></g><g><path d="M242.30663,190.96643c-0.39558,0 -0.71627,-0.32068 -0.71627,-0.71626c0,-0.39558 0.32069,-0.71626 0.71627,-0.71626c0.39558,0 0.71626,0.32068 0.71626,0.71626c0,0.39558 -0.32068,0.71626 -0.71626,0.71626z" fill="#934200"/><path d="M242.63222,190.48892c-0.1918,0 -0.34728,-0.15547 -0.34728,-0.34727c0,-0.19179 0.15548,-0.34727 0.34728,-0.34727c0.19179,0 0.34727,0.15547 0.34727,0.34727c0,0.19179 -0.15547,0.34727 -0.34727,0.34727z" fill="#684af8"/></g></g></g><g fill="#000000" stroke-width="0" stroke-linecap="butt"><path d="M241.63443,146.78697v-22.78335h1.78404v22.78335z" stroke="#b26a37"/><path d="M243.44768,146.45075c0,0 -0.01949,0.47804 -0.05692,0.70822c-0.31939,1.96446 -1.94457,3.45955 -3.90141,3.45955c-1.99178,0 -3.63997,-1.54897 -3.91727,-3.56525c-0.02705,-0.19673 -0.04106,-0.60253 -0.04106,-0.60253c0,0 0.07075,-0.60906 0.65215,-0.58975c0.4602,0.01528 0.50503,0.67959 0.50503,0.67959c0,0 0.41837,3.16221 2.80116,3.06829c2.39175,-0.09427 2.14066,-2.97585 2.14066,-2.97585l1.81767,-0.18227z" stroke="none"/></g><g stroke="none" stroke-width="0" stroke-linecap="butt"><path d="M236.48439,137.32119l5.4225,-16.60667l0.93318,0.53833l5.2228,16.06834z" fill="#462fb6"/><path d="M259.01418,135.17413l-16.80808,-13.3983l25.28888,9.46668z" fill="#462fb6"/><path d="M217.54392,131.38484l24.47839,-9.42207l-16.11338,13.14019z" data-paper-data="{&quot;index&quot;:null}" fill="#462fb6"/><path d="M248.06285,137.32119l-5.67345,-16.22569l16.67302,14.01957z" fill="#d9874c"/><path d="M225.83217,135.11506l16.32567,-13.95688l-5.44189,16.163z" data-paper-data="{&quot;index&quot;:null}" fill="#d9874c"/></g><path d="M240.32823,122.81575l1.14731,-2.62244l1.61091,0.02166l1.39535,2.60078z" fill="#000000" stroke="none" stroke-width="0" stroke-linecap="butt"/><g data-paper-data="{&quot;index&quot;:null}"><g data-paper-data="{&quot;index&quot;:null}" stroke="none" stroke-width="0" stroke-linecap="butt"><path d="M246.57019,175.90022c-2.49384,0.96455 -5.97348,-3.46333 -7.772,-9.88996c-0.62119,-2.21967 -0.96058,-4.38746 -1.03598,-6.31416c-0.03519,-0.89923 -0.01288,-1.74595 0.06513,-2.52091c0.0335,-0.33281 0.3027,-3.16131 0.3566,-3.46612c0.33028,-1.86778 0.8154,-0.67257 1.87325,-1.08172c1.09361,-0.42298 0.95678,-1.91339 2.20463,-0.54859c0.07788,0.08518 1.57564,2.2777 1.6532,2.36867c1.51339,1.77507 2.95357,4.63738 3.91416,8.06987c1.79852,6.42663 1.23483,12.41836 -1.259,13.38291z" fill="#684af8"/><path d="M248.5464,165.69705c0,0 0.27552,2.03856 0.37353,3.00013c0.13927,1.36638 -0.0734,2.28668 -0.0734,2.28668c0,0 -1.68528,1.69614 -3.49339,2.13478c-2.04195,0.49536 -3.64705,-0.32872 -3.64705,-0.32872c0,0 -0.50015,-0.72238 -0.99206,-1.72687c-0.33834,-0.69093 -0.87476,-1.85672 -0.87476,-1.85672c0,0 2.62218,0.76684 4.89187,-0.05662c3.74642,-1.35922 3.81526,-3.45264 3.81526,-3.45264z" fill="#1c0e4c"/><path d="M246.85304,159.70961c0,0 0.48281,1.15227 0.7073,1.83965c0.22448,0.68738 0.48145,1.80033 0.48145,1.80033c0,0 -2.42825,2.29076 -4.23636,2.7294c-2.04194,0.49536 -4.85702,0.1507 -4.85702,0.1507c0,0 -0.33594,-0.82958 -0.49049,-1.46462c-0.15455,-0.63504 -0.26638,-1.87301 -0.26638,-1.87301c0,0 2.34293,0.42671 4.61262,-0.39675c3.74642,-1.35923 4.04888,-2.78572 4.04888,-2.78572z" fill="#1c0e4c"/><path d="M244.01587,154.69356c0,0 0.80459,0.84985 1.13897,1.491c0.3828,0.73399 0.85012,1.53803 0.85012,1.53803c0,0 -2.10842,1.64005 -3.77289,2.21845c-1.66447,0.5784 -4.35149,0.60476 -4.35149,0.60476c0,0 -0.16414,-1.32762 -0.16782,-1.80687c-0.00369,-0.47925 0.1069,-1.31151 0.1069,-1.31151c0,0 1.30269,0.30547 3.57238,-0.51799c2.67593,-1.04357 2.62381,-2.21588 2.62381,-2.21588z" fill="#1c0e4c"/></g><g><path d="M242.90509,147.13216c0.81482,2.67247 -0.5668,4.27326 -0.5668,4.27326l0.82027,1.28004c0,0 -0.7566,1.30185 -1.56827,1.54784c-0.81167,0.24599 -0.80744,-1.28745 -0.96082,-0.67339c-0.09208,0.36864 -0.24172,1.04448 -0.55954,1.24034c-0.75895,0.4677 -1.99592,-0.1496 -2.54733,-0.3492c-0.45967,-0.1664 0.51543,-1.6939 0.30243,-1.91893c-0.10112,-0.10684 -1.09695,-0.82222 -1.88828,-2.19302c-0.51624,-0.89426 -1.7836,-2.21728 -0.62833,-2.62464c0.36757,-0.12961 0.78389,-0.04147 0.78389,-0.04147c0,0 0.47864,-0.5594 0.90156,-0.6947c0.42294,-0.1353 0.55963,0.3923 0.52829,0.23729c-0.05624,-0.27817 0.35629,-0.69514 0.79264,-0.88825c0.43635,-0.19311 1.03315,0.08026 1.03315,0.08026c0,0 0.46011,-1.22682 1.62177,-0.64319c0.73557,0.36956 0.51466,1.23125 0.5831,1.18386c0.05868,-0.04063 0.03563,1.17518 0.30149,1.23962c0.2301,0.05575 -0.15022,-0.91503 0.09841,-1.16483c0.24862,-0.2498 0.8453,-0.2421 0.95238,0.1091z" fill="#ffc281" stroke="none" stroke-width="0" stroke-linecap="butt"/><path d="M239.36263,146.53573l0.04466,0.82707" fill="none" stroke="#d9874c" stroke-width="0.5" stroke-linecap="round"/><path d="M237.48891,147.83306l0.00684,-0.46673" fill="none" stroke="#d9874c" stroke-width="0.5" stroke-linecap="round"/><path d="M236.14365,148.36852l-0.02405,-0.51135" fill="none" stroke="#d9874c" stroke-width="0.5" stroke-linecap="round"/><path d="M242.31086,151.5564c0,0 -1.3709,0.77174 -2.08854,0.94286c-0.73585,0.17546 -2.2733,0.09722 -2.2733,0.09722" fill="none" stroke="#d9874c" stroke-width="1" stroke-linecap="round"/></g></g></g></g></svg>