<svg version="1.1" xmlns="http://www.w3.org/2000/svg" xmlns:xlink="http://www.w3.org/1999/xlink" width="38" height="31.61912" viewBox="0,0,38,31.61912"><g transform="translate(-225.30893,-163.30541)"><g data-paper-data="{&quot;isPaintingLayer&quot;:true}" fill-rule="nonzero" stroke-linejoin="miter" stroke-miterlimit="10" stroke-dasharray="" stroke-dashoffset="0" style="mix-blend-mode: normal"><path d="M235.99924,185.99107c0.16468,-0.47626 0.22996,-1.05051 0.37462,-1.48955c0.64939,-1.27997 0.99267,-0.02695 1.15006,0.65597c0.11735,0.41424 -0.08007,0.89949 -0.21694,1.31932c-0.19262,0.5864 -0.27887,1.41671 -0.77945,1.72357c-0.41875,0.25037 -1.19576,0.12434 -1.3111,-0.34627c-0.15442,-0.62923 0.56064,-1.21875 0.78281,-1.86303z" data-paper-data="{&quot;index&quot;:null}" fill="#005613" stroke="none" stroke-width="0.65663" stroke-linecap="round"/><path d="M232.09943,191.59557c-0.26112,-0.43506 -0.46314,-0.44285 -0.31204,-0.83459c0.39413,-0.7305 1.09234,-0.55524 1.05745,-0.67099c-0.03475,-0.11441 -1.25535,1.11021 -1.67491,0.11419c-0.22609,-0.47813 1.08334,-1.29638 1.58684,-1.75586c0.18567,-0.15866 0.48632,-0.29978 0.75053,-0.54852c0.26421,-0.24875 0.29153,-0.4606 0.55504,-0.68068c0.26351,-0.22008 0.7985,-0.58235 0.93467,-0.5635c0.46536,0.11076 -0.02871,-0.1107 0.69012,0.24182c0.71884,0.35251 1.01249,0.53447 1.56956,0.92203c0.55707,0.38755 0.52736,0.15041 0.63443,0.47137c0.07596,0.22824 -0.30159,0.89153 -0.69968,1.22101c-0.3981,0.32948 -0.51845,0.7404 -0.73982,1.20403c-0.22137,0.46364 -0.17616,1.4906 -1.01335,2.26549c-0.47496,0.44022 -1.22079,0.20529 -1.93786,-0.15941c-0.60197,-0.30665 -1.06861,-0.73172 -1.40099,-1.22639z" fill="#a8c8d8" stroke="none" stroke-width="0.67216" stroke-linecap="round"/><g><path d="M248.00828,184.71719l0.81971,0.09126c0,0 1.11236,2.61638 1.40165,4.0329c0.24133,1.18167 0.33137,2.96015 0.283,3.68008c-0.08353,1.24304 -0.68524,0.97857 -0.68524,0.97857c0,0 0.31876,-3.25317 0.08615,-4.55878c-0.1658,-0.93081 -1.90527,-4.22403 -1.90527,-4.22403z" fill="#989898" stroke="#989898" stroke-width="0" stroke-linecap="round"/><path d="M246.57829,186.42811c0.14876,-0.54227 0.25767,-0.97001 0.71304,-1.36587c0.64735,-0.56274 1.02756,-0.33207 1.29808,0.12066c0.56914,0.95316 1.08554,2.76064 1.08554,2.76064l-3.13246,1.56129c0,0 -0.19103,-2.24518 0.03581,-3.07672z" fill="#f82020" stroke="none" stroke-width="1.13968" stroke-linecap="round"/><path d="M249.6289,187.86432c0,0 0.15629,0.12096 0.3278,1.10033c0.17152,0.97936 0.27027,2.28552 0.23883,3.38102c-0.01318,0.43922 0.00125,1.19159 -0.34572,1.21582c-0.59068,0.04135 -1.79192,-0.30722 -2.22328,-0.87019c-0.42858,-0.55977 -1.23145,-2.60325 -1.08265,-3.32404c0.27865,-1.28179 3.08503,-1.50293 3.08503,-1.50293z" fill="#f8f8f8" stroke="none" stroke-width="1.15102" stroke-linecap="round"/><path d="M244.74461,186.49235c0.01617,-0.42829 -0.27043,-1.19568 0.20821,-1.61853c0.5437,-0.48033 0.90795,0.20486 0.90795,0.20486c0,0 0.19972,-0.61325 0.58791,-0.35361c0.3769,0.2521 0.35448,0.53363 0.3803,0.83885c0.04339,0.51287 -0.25722,1.35939 -0.2639,1.53656c-0.03344,0.88592 0.16934,2.21395 -0.29541,2.1964c-0.12328,-0.00466 -0.69482,-0.26459 -0.69482,-0.26459c0,0 -0.63923,0.46698 -0.81514,0.07977c-0.22821,-0.50232 -0.02897,-2.25212 -0.01508,-2.6197z" fill="#ffffff" stroke="none" stroke-width="0" stroke-linecap="butt"/></g><path d="M244.8367,186.54498c0.2319,0.451 0.0744,1.2097 -0.3455,1.4122c-0.6542,0.3237 -1.5113,0.1313 -2.1297,-0.1995c-0.3795,-0.1978 -0.5472,-0.6966 -0.5726,-1.1504c-0.0465,-0.8117 -0.0631,-1.7152 0.3326,-2.4196c0.1563,-0.2754 0.8034,-0.1828 1.004,0.0852c0.3591,0.4777 -0.0556,1.2983 0.3044,1.7794c0.3061,0.4074 1.1775,0.0537 1.4068,0.4927z" data-paper-data="{&quot;index&quot;:null}" fill="#e88820" stroke="none" stroke-width="0.49091" stroke-linecap="round"/><path d="M246.50513,187.31031c0.24509,0.44386 0.11014,1.20682 -0.30354,1.42171c-0.64439,0.34302 -1.50685,0.17604 -2.13468,-0.13625c-0.38512,-0.18655 -0.56759,-0.68011 -0.60641,-1.13297c-0.07046,-0.80997 -0.11383,-1.71256 0.26082,-2.42839c0.14808,-0.27987 0.79763,-0.20654 1.00607,0.05549c0.37304,0.46678 -0.01715,1.29932 0.35698,1.7696c0.31797,0.39813 1.1785,0.01879 1.42076,0.45082z" data-paper-data="{&quot;index&quot;:null}" fill="#f8b820" stroke="none" stroke-width="0.49091" stroke-linecap="round"/><path d="M247.11791,187.38105c0,1.38071 -0.10332,2.16667 -0.45299,2.16667c-0.12745,0 -0.00855,-0.7304 -0.00855,-2.11111c0,-1.38071 0.10332,-2.44444 0.23077,-2.44444c0.34967,0 0.23077,1.00818 0.23077,2.38889z" fill="#424242" stroke="none" stroke-width="0" stroke-linecap="butt"/><path d="M245.77577,175.14448c0,3.67923 -0.79915,6.36383 -1.15669,7.28335c-0.22267,0.57267 -0.30752,0.07576 -0.30752,0.07576c0,0 0.32063,-0.97151 0.32063,-6.9421c0,-2.00845 -2.15189,-4.30491 -2.3331,-5.04466c-0.19986,-0.81593 2.87875,-0.62371 2.87875,-0.62371c0,0 3.20894,-1.09532 3.11029,0.02077c-0.07905,0.89439 -2.51236,3.52196 -2.51236,5.2306z" data-paper-data="{&quot;index&quot;:null}" fill="#e2a026" stroke="none" stroke-width="0" stroke-linecap="butt"/><path d="M242.55756,175.35299c0,-1.70864 -1.66857,-4.05755 -1.76167,-4.95194c-0.11617,-1.11608 2.1755,-0.29943 2.1755,-0.29943c0,0 3.31872,-0.84244 3.08336,-0.02651c-0.21339,0.73975 -2.15048,3.68642 -2.15048,5.69487c0,5.9706 0.21456,6.84921 0.21456,6.84921c0,0 0.02724,0.49302 -0.26929,-0.21858c-0.40775,-0.9785 -1.29197,-3.5909 -1.29197,-7.04764z" fill="#e2a026" stroke="none" stroke-width="0" stroke-linecap="butt"/><path d="M244.22572,185.86921c-0.27874,0.23923 -0.71876,0.62176 -1.22073,0.65269c-0.71255,0.04389 -1.54991,-0.33071 -2.22796,-0.33358c-1.06277,-0.002 -2.25525,0.0879 -3.16802,-0.2455c-0.91033,-0.3333 -1.36663,-1.0387 -1.84467,-1.6445c-0.12516,-0.1414 -0.22366,-0.3294 0.12041,-0.4909c1.37693,-0.6466 2.9161,-1.1758 4.49121,-1.62c0.87912,-0.2479 2.00463,-0.30531 2.94861,-0.17571c0.80528,0.1169 1.66449,0.51394 1.78555,0.92624c0.26941,1.1188 0.09096,2.09037 -0.88439,2.93127z" data-paper-data="{&quot;index&quot;:null}" fill="#089c4e" stroke="none" stroke-width="0.49091" stroke-linecap="round"/><path d="M243.04027,184.28488c0.12289,-0.88547 0.34511,-2.15789 0.64097,-2.15789c0.29586,0 -0.14129,1.37159 -0.26504,2.26316c-0.12375,0.89157 -0.06316,2.23308 -0.35902,2.23308c-0.29587,0 -0.13982,-1.45288 -0.01692,-2.33835z" fill="#000000" stroke="#000000" stroke-width="0" stroke-linecap="butt"/><path d="M238.84489,186.12632c0,-0.23545 0.19087,-0.42631 0.42631,-0.42631c0.23545,0 0.42632,0.19087 0.42632,0.42631c0,0.23545 -0.19087,0.42632 -0.42632,0.42632c-0.23545,0 -0.42631,-0.19087 -0.42631,-0.42632z" fill="#ffffff" stroke="none" stroke-width="0" stroke-linecap="butt"/><path d="M237.57822,185.99299c0,-0.23545 0.19087,-0.42632 0.42632,-0.42632c0.23545,0 0.42632,0.19087 0.42632,0.42632c0,0.23545 -0.19087,0.42631 -0.42632,0.42631c-0.23545,0 -0.42632,-0.19087 -0.42632,-0.42631z" fill="#ffffff" stroke="none" stroke-width="0" stroke-linecap="butt"/><path d="M239.49128,187.8546c0.1528,-0.4802 0.2872,-0.982 0.3375,-1.4984c0.0663,-0.6803 -0.3086,-1.4804 0,-2.0561c0.1915,-0.3568 0.9365,-0.4419 1.1046,-0.0697c0.3504,0.8085 0.1111,1.8302 0.0614,2.753c-0.0234,0.4266 -0.0583,0.9012 -0.1841,1.3243c-0.1743,0.5771 -0.2436,1.4232 -0.7364,1.7424c-0.4124,0.2607 -1.1923,0.154 -1.3193,-0.3136c-0.17,-0.6252 0.5302,-1.2323 0.7363,-1.8819z" data-paper-data="{&quot;index&quot;:null}" fill="#089c4e" stroke="none" stroke-width="0.65663" stroke-linecap="round"/><path d="M236.52278,193.80777c-0.3385,-0.378 -0.53836,-0.34755 -0.46386,-0.76075c0.24927,-0.79173 0.96802,-0.48462 0.91192,-0.59172c-0.0557,-0.1058 -1.02342,1.06039 -1.62331,0.16138c-0.3122,-0.4269 0.81938,-1.47744 1.22718,-2.02364c0.15241,-0.19083 0.42105,-0.38612 0.6336,-0.68025c0.21255,-0.29413 0.19941,-0.50732 0.41669,-0.77315c0.21727,-0.26583 0.67434,-0.7225 0.81161,-0.72967c0.4779,0.021 -0.04907,-0.1033 0.72335,0.1073c0.77242,0.2106 1.09512,0.33391 1.71529,0.60944c0.62017,0.27553 0.54627,0.04826 0.71197,0.34325c0.11765,0.20983 -0.12802,0.93242 -0.45683,1.33106c-0.32881,0.39864 -0.3695,0.8249 -0.49945,1.32197c-0.12995,0.49706 0.10815,1.49706 -0.56785,2.41596c-0.3834,0.5219 -1.16017,0.43185 -1.93316,0.20895c-0.649,-0.1876 -1.18744,-0.51703 -1.60715,-0.94013z" fill="#ffffff" stroke="none" stroke-width="0.67216" stroke-linecap="round"/><path d="M234.41526,185.04437l0.64457,-0.376c0,0 1.43237,-0.42828 2.2103,-0.49052c0.96986,-0.07759 3.11008,0.36693 3.11008,0.36693l-1.66039,0.2195l0.04438,1.26552l-1.28251,-0.6379l-0.83786,1.05153l-0.93943,-0.80821l-1.77074,0.22812l1.34103,-0.76526z" fill="#cf0000" stroke="none" stroke-width="0" stroke-linecap="butt"/><path d="M263.30893,168.48399c0,2.86005 -8.50659,5.17857 -19,5.17857c-10.49341,0 -19,-2.31852 -19,-5.17857c0,-2.86005 8.50659,-5.17857 19,-5.17857c10.49341,0 19,2.31852 19,5.17857z" fill-opacity="0.90196" fill="#e3a127" stroke="none" stroke-width="0" stroke-linecap="butt"/><g><path d="M249.13737,185.58544l0.82217,0.06549c0,0 1.19391,2.58018 1.52752,3.98693c0.27829,1.17351 0.4241,2.9483 0.39834,3.66939c-0.04449,1.24505 -0.65419,0.99959 -0.65419,0.99959c0,0 0.21651,-3.26158 -0.05696,-4.55924c-0.19493,-0.92516 -2.03687,-4.16217 -2.03687,-4.16217z" fill="#989898" stroke="#989898" stroke-width="0" stroke-linecap="round"/><path d="M247.76176,187.34037c0.13167,-0.54668 0.2271,-0.97762 0.66982,-1.38757c0.62937,-0.58278 1.01663,-0.36416 1.30122,0.07986c0.59878,0.93482 1.17164,2.72521 1.17164,2.72521l-3.08193,1.65882c0,0 -0.26139,-2.23809 -0.06076,-3.07633z" fill="#f82020" stroke="none" stroke-width="1.13968" stroke-linecap="round"/><path d="M250.85594,188.68017c0,0 0.16001,0.116 0.36217,1.0895c0.20217,0.9735 0.34186,2.27592 0.3448,3.37186c0.00061,0.43942 0.03864,1.19097 -0.30739,1.22608c-0.58909,0.05987 -1.80067,-0.25083 -2.24949,-0.8c-0.44594,-0.54604 -1.31253,-2.56332 -1.18643,-3.28844c0.2383,-1.28992 3.03635,-1.599 3.03635,-1.599z" fill="#f8f8f8" stroke="none" stroke-width="1.15102" stroke-linecap="round"/><path d="M245.931,187.46215c0.00272,-0.42859 -0.30782,-1.1866 0.15732,-1.62426c0.52835,-0.49715 0.91393,0.17628 0.91393,0.17628c0,0 0.18038,-0.61923 0.57652,-0.37188c0.38462,0.24014 0.37104,0.52225 0.40643,0.82649c0.05947,0.51125 -0.21443,1.36678 -0.21556,1.54408c-0.00562,0.88654 0.23873,2.20755 -0.22634,2.2046c-0.12336,-0.00078 -0.7028,-0.24266 -0.7028,-0.24266c0,0 -0.62425,0.48682 -0.81224,0.1053c-0.24386,-0.49491 -0.09962,-2.25011 -0.09728,-2.61794z" fill="#ffffff" stroke="none" stroke-width="0" stroke-linecap="butt"/></g><path d="M242.48473,172.16677c0.47618,1.42479 0.4,3.15 0.4,3.15c0,0 1.159,3.72333 -0.05,5.68333c-1.029,1.667 -3.651,1.626 -5.6,1.8c-1.574,0.141 -3.742,0.288 -4.65,-0.95c-1.073,-1.465 -0.464,-4.50967 -0.65,-6.31667c-0.069,-0.682 -0.64993,-1.49357 -0.92472,-2.69382c-0.27479,-1.20025 -0.84754,-2.26397 -0.51854,-2.93764c0.146,-0.568 1.27256,0.5208 1.96854,1.06667c0.69598,0.54587 1.97505,1.25146 2.65805,1.43146c0.8,0.15 0.98833,0.308 1.78333,0.05c0.47,-0.152 3.83713,-3.76833 4.34513,-3.63333c0.603,0.161 0.76202,1.92521 1.2382,3.35z" data-paper-data="{&quot;index&quot;:null}" fill="#f8b820" stroke="none" stroke-width="1" stroke-linecap="round"/><path d="M233.16123,179.35008c-0.0106,0.621 0.0515,1.319 -0.1765,1.85c-0.1398,0.324 -0.5944,0.61 -0.7059,0.3c-0.3282,-0.913 -0.2887,-2.023 -0.2823,-3.05c-0.0064,-0.564 -0.0149,-1.272 0.2823,-1.65c0.1991,-0.254 0.6544,-0.018 0.7765,0.3c0.2266,0.691 0.1186,1.503 0.1059,2.25z" data-paper-data="{&quot;index&quot;:null}" fill="#ffffff" stroke="none" stroke-width="0.86553" stroke-linecap="round"/><path d="M241.58316,174.65936c-0.11837,0.07265 -1.26277,-0.75934 -2.00088,-1.11208c-0.73811,-0.35274 -1.60174,-0.44973 -1.62826,-0.63523c-0.0653,-0.4913 0.75934,-0.91661 0.98074,-1.35435c0.2324,-0.45929 1.8108,-1.98328 2.0838,-1.88171c0.3074,0.1168 0.80079,4.83723 0.56459,4.98336z" data-paper-data="{&quot;index&quot;:null}" fill="#ffffff" stroke="none" stroke-width="0.85185" stroke-linecap="butt"/><path d="M237.71803,182.50489c-0.2622,0.437 -0.8782,0.3763 -1.3333,0.3668c-0.4907,-0.0272 -1.2364,0.0661 -1.4222,-0.4716c-0.4187,-1.2126 -0.1218,-2.6527 -0.0889,-3.9303c0.0142,-0.5481 -0.016,-1.133 0.2222,-1.6245c0.0418,-0.1887 0.2898,-0.1059 0.4889,-0.1048c0.2382,0.001 0.4524,0.0167 0.7111,0.1048c0.2667,0.0933 0.5413,0.2348 0.7556,0.4192c0.2942,0.2788 0.6302,0.5911 0.7555,0.9957c0.1929,0.6068 0.1911,1.2902 0.1778,1.9389c-0.016,0.7966 0.1129,1.6728 -0.2667,2.3058z" data-paper-data="{&quot;index&quot;:null}" fill="#ffffff" stroke="none" stroke-width="0.97175" stroke-linecap="round"/><path d="M242.80557,179.67726c-0.257,0.28 -1.02607,1.15618 -0.74007,1.30618c0.564,0.297 1.61236,0.60375 1.61236,0.60375c0,0 -0.80503,-0.22308 -1.47903,0.31292c-0.12604,0.10016 1.4484,0.4267 1.4484,0.4267l-1.53674,0.90116l1.14992,1.11722c0,0 -2.8467,-0.5873 -3.21158,-0.39508c-0.40268,0.2119 -1.23734,0.68037 -2.10702,0.8659c-0.86968,0.18553 -2.08302,0.30186 -2.91571,0.2591c-0.75581,-0.0667 -1.83871,-0.39865 -2.66818,-1.1875c-0.514,-0.327 -0.87942,-1.65983 -0.44242,-1.97083c0.763,-0.543 2.08333,-0.31967 2.93333,0.13333c0.75158,0.40055 1.74833,0.48233 2.58333,0.33333c0.82,-0.134 1.428,-0.42033 2.1,-0.93333c1.016,-0.775 3.61241,-2.14285 3.27341,-1.77285z" data-paper-data="{&quot;index&quot;:null}" fill="#f8f8f8" stroke="none" stroke-width="1" stroke-linecap="round"/><path d="M232.6096,181.74734c0.35891,0 0.39298,0.07533 0.62833,0.19695c0.23536,0.12162 -0.26941,0.70806 -0.62833,0.70806c-0.35892,0 -1.038,-0.58644 -0.80265,-0.70806c0.23535,-0.12161 0.44373,-0.19695 0.80265,-0.19695z" data-paper-data="{&quot;index&quot;:null}" fill="#101010" stroke="none" stroke-width="1" stroke-linecap="butt"/><path d="M235.44873,184.75539l1.7512,-0.778" data-paper-data="{&quot;index&quot;:null}" fill="none" stroke="#cccccc" stroke-width="0.36953" stroke-linecap="round"/><path d="M235.80323,179.66258c0.105,0.241 0.1709,0.5722 0.1709,0.9384c0,0.3662 -0.0659,0.6974 -0.1709,0.9384c-0.1062,0.2399 -0.2516,0.3885 -0.413,0.3885c-0.1613,0 -0.3067,-0.1486 -0.4129,-0.3885c-0.1051,-0.241 -0.1709,-0.5722 -0.1709,-0.9384c0,-0.3662 0.0658,-0.6974 0.1709,-0.9384c0.1062,-0.2399 0.2516,-0.3885 0.4129,-0.3885c0.1614,0 0.3068,0.1486 0.413,0.3885z" fill="#4088ed" stroke="none" stroke-width="1.0615" stroke-linecap="butt"/><path d="M235.68063,179.9405c0.0711,0.1501 0.1146,0.3571 0.1146,0.5859c0,0.2288 -0.0435,0.4358 -0.1146,0.586c-0.0706,0.1501 -0.1682,0.243 -0.2762,0.243c-0.108,0 -0.2055,-0.0929 -0.2761,-0.243c-0.0711,-0.1502 -0.1146,-0.3572 -0.1146,-0.586c0,-0.2288 0.0435,-0.4358 0.1146,-0.5859c0.0706,-0.1502 0.1681,-0.243 0.2761,-0.243c0.108,0 0.2056,0.0928 0.2762,0.243z" fill="#000000" stroke="none" stroke-width="0.47368" stroke-linecap="butt"/><path d="M235.46013,180.04329c0.0323,0.0615 0.0524,0.1462 0.0524,0.24c0,0.0938 -0.0201,0.1785 -0.0524,0.24c-0.0317,0.0614 -0.0763,0.0996 -0.1255,0.0996c-0.0491,0 -0.0938,-0.0382 -0.1255,-0.0996c-0.0323,-0.0615 -0.0523,-0.1462 -0.0523,-0.24c0,-0.0938 0.02,-0.1785 0.0523,-0.24c0.0317,-0.0614 0.0764,-0.0996 0.1255,-0.0996c0.0492,0 0.0938,0.0382 0.1255,0.0996z" fill="#ffffff" stroke="none" stroke-width="0.64678" stroke-linecap="butt"/><path d="M232.98443,179.64458c0.0934,0.2142 0.1519,0.5085 0.1519,0.8341c0,0.3255 -0.0585,0.6199 -0.1519,0.8341c-0.0943,0.2132 -0.2236,0.3453 -0.367,0.3453c-0.1434,0 -0.2727,-0.1321 -0.3671,-0.3453c-0.0934,-0.2142 -0.1519,-0.5086 -0.1519,-0.8341c0,-0.3256 0.0585,-0.6199 0.1519,-0.8341c0.0944,-0.2133 0.2237,-0.3454 0.3671,-0.3454c0.1434,0 0.2727,0.1321 0.367,0.3454z" fill="#4088ed" stroke="none" stroke-width="0.94355" stroke-linecap="butt"/><path d="M232.81443,179.90818c0.0631,0.1335 0.1019,0.3175 0.1019,0.5208c0,0.2034 -0.0388,0.3874 -0.1019,0.5209c-0.0627,0.1335 -0.1495,0.216 -0.2455,0.216c-0.096,0 -0.1827,-0.0825 -0.2455,-0.216c-0.0631,-0.1335 -0.1019,-0.3175 -0.1019,-0.5209c0,-0.2033 0.0388,-0.3873 0.1019,-0.5208c0.0628,-0.1335 0.1495,-0.216 0.2455,-0.216c0.096,0 0.1828,0.0825 0.2455,0.216z" fill="#000000" stroke="none" stroke-width="0.42105" stroke-linecap="butt"/><path d="M232.58513,179.99969c0.0287,0.0546 0.0465,0.1299 0.0465,0.2132c0,0.0834 -0.0178,0.1587 -0.0465,0.2133c-0.0282,0.0547 -0.0679,0.0886 -0.1116,0.0886c-0.0437,0 -0.0833,-0.0339 -0.1115,-0.0886c-0.0288,-0.0546 -0.0466,-0.1299 -0.0466,-0.2133c0,-0.0833 0.0178,-0.1586 0.0466,-0.2132c0.0282,-0.0547 0.0678,-0.0886 0.1115,-0.0886c0.0437,0 0.0834,0.0339 0.1116,0.0886z" fill="#ffffff" stroke="none" stroke-width="0.57492" stroke-linecap="butt"/><path d="M234.04546,173.04554c0,0 -1.60784,0.81818 -1.90909,0.81818c-0.15444,0 -0.82258,-1.16834 -1.03556,-1.98157c-0.21299,-0.81322 -0.24534,-1.72425 -0.24534,-1.72425z" fill="#ffffff" stroke="none" stroke-width="0" stroke-linecap="butt"/><path d="M234.21954,176.42194l-2.84718,0.91778l-1.96882,1.82814l1.68421,-2.78752l2.9453,-0.5912z" fill="#f8b820" stroke="none" stroke-width="1.22222" stroke-linecap="round"/><path d="M233.60998,175.64118l-2.34449,-0.49845l-2.68001,1.32616c0,0 1.82688,-2.18807 2.26615,-2.29869c0.30813,-0.07761 2.99361,0.68254 2.99361,0.68254z" fill="#f8b820" stroke="none" stroke-width="1.22222" stroke-linecap="round"/><path d="M233.70188,174.48578c0,0 -1.19247,-1.04391 -2.1459,-1.29475c-0.95343,-0.25084 -4.29631,-0.40018 -4.29631,-0.40018c0,0 3.42112,-0.94276 4.05934,-0.76787c0.38695,0.10605 3.01346,1.7962 3.01346,1.7962z" fill="#f8b820" stroke="none" stroke-width="1.22222" stroke-linecap="round"/><path d="M229.99008,165.37823c0.07543,-0.02489 1.46756,-0.57942 2.50881,-0.66435c1.64503,-0.13417 3.19049,0.18933 3.19049,0.18933c0,0 -2.24313,0.22033 -2.81139,0.3829c-1.01128,0.28933 -2.73645,1.20437 -2.73645,1.20437c0,0 1.54876,-0.75946 2.36791,-0.9524c0.69495,-0.16368 2.23596,-0.13197 2.23596,-0.13197c0,0 -1.21259,0.38897 -1.72312,0.61022c-0.58022,0.25145 -1.57594,0.81954 -1.57594,0.81954c0,0 0.78108,-0.31641 1.30425,-0.43622c0.52318,-0.11981 1.16764,-0.12987 1.16764,-0.12987c0,0 -0.54578,0.32414 -0.77671,0.49106c-0.25753,0.18614 -0.73362,0.66122 -0.73362,0.66122c0,0 0.66449,-0.23199 1.10758,-0.28799c0.44309,-0.056 1.14476,0.00334 1.14476,0.00334c0,0 -0.40621,0.27572 -0.65486,0.46749c-0.24865,0.19177 -0.44798,0.38306 -0.44798,0.38306c0,0 0.36636,-0.12239 0.60963,-0.13274c0.24327,-0.01036 0.5832,0.08193 0.5832,0.08193c0,0 -0.31439,0.17928 -0.4429,0.27922c-0.16324,0.12696 -0.45754,0.42104 -0.45754,0.42104c0,0 0.61418,-0.11832 0.8373,-0.12043c0.16595,-0.00158 0.51264,0.04521 0.51264,0.04521l-0.5525,0.2684l0.64872,0.26875l-1.07057,0.21341l0.17909,-0.57442l-0.96779,0.10011l0.42549,-0.65059c0,0 -0.28252,-0.05663 -0.46476,-0.04925c-0.18224,0.00738 -0.50452,0.0885 -0.50452,0.0885c0,0 0.207,-0.29253 0.3887,-0.42469c0.1817,-0.13216 0.75648,-0.40827 0.75648,-0.40827l-1.20678,0.22575l-1.48855,0.54908c0,0 0.27449,-0.45829 0.50349,-0.70855c0.22901,-0.25026 0.78255,-0.69684 0.78255,-0.69684c0,0 -0.70808,0.23667 -1.15398,0.40797c-0.4459,0.1713 -1.25743,0.51841 -1.25743,0.51841c0,0 0.43018,-0.70586 0.84434,-1.00973c0.41415,-0.30387 1.52888,-0.73151 1.52888,-0.73151c0,0 -1.35168,0.30979 -2.13721,0.70173c-0.78554,0.39194 -2.56834,1.6461 -2.56834,1.6461c0,0 0.94853,-1.46231 1.8555,-2.0435c0.90697,-0.58119 3.25062,-1.22854 3.25062,-1.22854c0,0 -2.95113,0.79844 -3.47329,1.10061c-1.31181,0.75913 -3.56304,3.05082 -3.56304,3.05082c0,0 1.01465,-2.8013 4.03525,-3.79772z" fill="#dcdce1" stroke="none" stroke-width="0" stroke-linecap="butt"/><path d="M243.67186,173.02644c0.42288,0.05033 1.19488,0.05725 1.19488,0.05725c0,0 -0.56178,-0.08062 -0.90685,-0.18823c-0.34507,-0.10761 -0.72351,-0.3202 -0.72351,-0.3202c0,0 0.42748,-0.00364 0.61845,-0.0225c0.21296,-0.02103 0.65104,-0.13613 0.65104,-0.13613c0,0 -0.46532,-0.09022 -0.74216,-0.20782c-0.27684,-0.1176 -0.66504,-0.38996 -0.66504,-0.38996c0,0 0.32985,-0.02277 0.53954,-0.05009c0.2097,-0.02731 0.39053,-0.07107 0.39053,-0.07107c0,0 -0.25468,-0.05295 -0.39976,-0.12938c-0.14508,-0.07643 -0.31161,-0.24536 -0.31161,-0.24536c0,0 0.24372,0.00223 0.35238,-0.01237c0.13803,-0.01855 0.40897,-0.08993 0.40897,-0.08993c0,0 -0.39752,-0.13932 -0.52808,-0.21372c-0.0971,-0.05533 -0.283,-0.20007 -0.283,-0.20007l0.4125,0.03108l-0.28642,-0.37628l0.69534,0.23868l-0.29892,0.27357l0.59712,0.26978l-0.46813,0.23439c0,0 0.14522,0.12871 0.25378,0.18619c0.10855,0.05748 0.32359,0.1195 0.32359,0.1195c0,0 -0.21962,0.10008 -0.37015,0.1154c-0.15053,0.01532 -0.5786,-0.01883 -0.5786,-0.01883l0.77878,0.27767l1.05235,0.18502c0,0 -0.31507,0.17366 -0.53316,0.24167c-0.21809,0.06801 -0.69159,0.14027 -0.69159,0.14027c0,0 0.49228,0.10228 0.80982,0.15374c0.31754,0.05146 0.90746,0.12452 0.90746,0.12452c0,0 -0.48958,0.26495 -0.83359,0.30141c-0.34401,0.03645 -1.13766,-0.09252 -1.13766,-0.09252c0,0 -0.6004,-0.22996 -0.22831,-0.18568z" data-paper-data="{&quot;index&quot;:null}" fill="#dcdce1" stroke="none" stroke-width="0" stroke-linecap="butt"/><path d="M257.8523,171.5417c-0.07718,0.01877 -1.50924,0.46008 -2.55394,0.46138c-1.65049,0.00205 -3.1651,-0.44414 -3.1651,-0.44414c0,0 2.25358,-0.04004 2.83302,-0.15661c1.03119,-0.20745 2.82407,-0.98144 2.82407,-0.98144c0,0 -1.60459,0.63304 -2.43656,0.75978c-0.70583,0.10753 -2.23934,-0.04745 -2.23934,-0.04745c0,0 1.23983,-0.29065 1.76644,-0.47033c0.59849,-0.2042 1.63649,-0.69074 1.63649,-0.69074c0,0 -0.80391,0.25287 -1.33499,0.33041c-0.53108,0.07754 -1.17429,0.03598 -1.17429,0.03598c0,0 0.56998,-0.27942 0.81353,-0.42731c0.2716,-0.16493 0.7842,-0.60037 0.7842,-0.60037c0,0 -0.68093,0.17805 -1.12708,0.1984c-0.44616,0.02035 -1.14082,-0.09497 -1.14082,-0.09497c0,0 0.42698,-0.24232 0.69019,-0.41357c0.2632,-0.17124 0.47721,-0.34597 0.47721,-0.34597c0,0 -0.37498,0.09266 -0.6183,0.08351c-0.24332,-0.00915 -0.57477,-0.12836 -0.57477,-0.12836c0,0 0.32774,-0.15353 0.46384,-0.24286c0.17289,-0.11348 0.48978,-0.38307 0.48978,-0.38307c0,0 -0.62168,0.06878 -0.84425,0.05302c-0.16555,-0.01172 -0.50737,-0.08611 -0.50737,-0.08611l0.57221,-0.22331l-0.62512,-0.31983l1.08422,-0.12702l-0.2245,0.55824l0.9727,-0.02232l-0.47621,0.61445c0,0 0.27708,0.07906 0.45934,0.08629c0.18225,0.00724 0.50999,-0.04783 0.50999,-0.04783c0,0 -0.22976,0.27502 -0.42146,0.39221c-0.1917,0.11719 -0.78674,0.34639 -0.78674,0.34639l1.22098,-0.12841l1.52774,-0.42815c0,0 -0.3103,0.43484 -0.5586,0.66596c-0.2483,0.23112 -0.83582,0.63196 -0.83582,0.63196c0,0 0.72475,-0.17922 1.18293,-0.31427c0.45818,-0.13505 1.29489,-0.41608 1.29489,-0.41608c0,0 -0.48531,0.66915 -0.92246,0.93889c-0.43715,0.26974 -1.58253,0.60676 -1.58253,0.60676c0,0 1.37215,-0.20058 2.18654,-0.52838c0.81439,-0.3278 2.69188,-1.4352 2.69188,-1.4352c0,0 -1.06256,1.38168 -2.01315,1.8884c-0.95058,0.50672 -3.33854,0.96436 -3.33854,0.96436c0,0 3.00558,-0.55962 3.55025,-0.81901c1.36837,-0.65168 3.79583,-2.75579 3.79583,-2.75579c0,0 -1.23564,2.71107 -4.32632,3.46248z" data-paper-data="{&quot;index&quot;:null}" fill="#dcdce1" stroke="none" stroke-width="0" stroke-linecap="butt"/><path d="M238.51914,170.46554c0,0 0.89979,-1.07229 2.25159,-1.72343c1.11354,-0.53637 2.33308,-0.75156 3.12181,-0.75156c0.76881,0 1.74095,1.49571 2.10805,3.25241c0.4667,2.23335 0.58753,4.7697 0.58753,4.7697l-2.15045,-3.16746l-1.06893,1.05882l-0.9077,-1.33553c0,0 -1.21281,0.3165 -1.37499,0.3165c-0.66581,0 -0.29984,-1.87017 -0.29984,-1.87017l-1.58573,0.52439l-0.68134,-1.07368z" fill="#23d892" stroke="none" stroke-width="0" stroke-linecap="butt"/><path d="M236.35183,172.81156c-0.56901,-0.1497 0.55212,-1.33791 1.17573,-1.80238c0.62762,-0.46747 1.67422,-1.14249 1.67422,-1.14249l-0.09788,1.49009l2.12267,-0.64193c0,0 -0.0735,0.59096 -0.08873,0.97129c-0.01523,0.38033 0.00991,0.99685 0.00991,0.99685l1.87753,-0.49643l0.09369,1.58626l0.97224,-0.60602l-0.54073,1.54223c0,0 0.2481,1.07951 -0.21371,1.21336c-0.98164,0.2845 -1.99959,-1.16536 -3.60569,-1.77581c-1.80819,-0.68727 -0.73862,-0.64032 -3.37926,-1.33501z" fill="#fd0000" stroke="none" stroke-width="0" stroke-linecap="butt"/><g stroke-width="0" stroke-linecap="butt"><path d="M245.7479,176.603c-0.07972,-0.47306 0.23915,-0.92118 0.71221,-1.0009c0.47306,-0.07972 0.92118,0.23915 1.0009,0.71221c0.07972,0.47306 -0.23915,0.92118 -0.71221,1.0009c-0.47306,0.07972 -0.92118,-0.23915 -1.0009,-0.71221z" fill="#db7b04" stroke="none"/><path d="M247.54119,176.26959c0.02739,0.16255 -0.46602,0.19004 -0.92357,0.26715c-0.45755,0.07711 -0.89482,0.26475 -0.92221,0.1022c-0.04172,-0.24758 0.40635,-0.37115 0.86389,-0.44825c0.45755,-0.07711 0.93539,-0.19702 0.98188,0.0789z" fill="#feeb00" stroke="#000000"/><path d="M246.78562,177.23733c0.0301,0.17863 -0.08923,0.08531 -0.17855,0.10037c-0.08932,0.01505 -0.28102,-0.33474 -0.31113,-0.51338c-0.0301,-0.17863 0.16949,-0.12799 0.25881,-0.14305c0.08932,-0.01505 0.20077,0.37742 0.23087,0.55606z" fill="#000000" stroke="none"/><path d="M247.20865,176.57813c0.04696,-0.00791 0.13016,-0.09241 0.15127,0.03281c0.0211,0.12522 -0.03265,0.38443 -0.07962,0.39235c-0.04697,0.00791 -0.09736,-0.05885 -0.11847,-0.18407c-0.0211,-0.12522 -0.00015,-0.23317 0.04682,-0.24108z" fill="#000000" stroke="none"/></g><path d="M244.35369,185.8692c-0.68447,0.5788 -0.85729,0.52318 -0.85729,0.52318l0.5215,-4.20498c0,0 1.1105,0.33823 1.23337,0.75053c0.27343,1.1188 0.09232,2.09037 -0.89758,2.93127z" data-paper-data="{&quot;index&quot;:null}" fill="#f8b820" stroke="none" stroke-width="0.49091" stroke-linecap="round"/><path d="M248.24036,188.29945c0,1.38071 -0.10332,2.16667 -0.45299,2.16667c-0.12745,0 -0.00855,-0.7304 -0.00855,-2.11111c0,-1.38071 0.10332,-2.44444 0.23077,-2.44444c0.34967,0 0.23077,1.00818 0.23077,2.38889z" fill="#424242" stroke="none" stroke-width="0" stroke-linecap="butt"/></g></g></svg>