<svg version="1.1" xmlns="http://www.w3.org/2000/svg" xmlns:xlink="http://www.w3.org/1999/xlink" width="25.1306" height="34.16637" viewBox="0,0,25.1306,34.16637"><g transform="translate(-226.68563,-165.2306)"><g data-paper-data="{&quot;isPaintingLayer&quot;:true}" fill-rule="nonzero" stroke-linejoin="miter" stroke-miterlimit="10" stroke-dasharray="" stroke-dashoffset="0" style="mix-blend-mode: normal"><g data-paper-data="{&quot;index&quot;:null}"><g stroke="#ffffff" stroke-width="0" stroke-linecap="butt"><path d="M238.47806,177.43899l0.61629,-0.59866l1.20542,2.44095l-0.64187,0.34974z" data-paper-data="{&quot;index&quot;:null}" fill="#319a2b"/><path d="M239.54618,179.77837c-0.06402,-0.64419 0.51182,-0.82703 0.81553,-0.50552c0.73386,0.77684 1.57707,2.7169 1.57707,2.7169l-1.04314,1.1264c0,0 -1.28962,-2.73561 -1.34946,-3.33777z" data-paper-data="{&quot;index&quot;:null}" fill="#ead42f"/><path d="M241.21663,183.67085c-0.71563,-0.51249 -0.56628,-2.77629 1.01993,-3.57704c1.30959,-0.66112 2.00173,-0.90874 3.1054,-0.28385c0.34906,0.19765 -0.09668,2.13438 -1.34819,2.8998c-1.2515,0.76541 -2.54284,1.12889 -2.77714,0.96109z" data-paper-data="{&quot;index&quot;:null}" fill="#f0e9bb"/></g><path d="M241.8247,183.55251c0,0 0.36136,-1.5104 0.85368,-2.3432c0.49233,-0.8328 1.76205,-1.67455 1.76205,-1.67455" data-paper-data="{&quot;index&quot;:null}" fill="none" stroke="#d3c49c" stroke-width="0.25" stroke-linecap="round"/><path d="M242.49435,182.87069l-0.76261,-0.32404" data-paper-data="{&quot;index&quot;:null}" fill="none" stroke="#ffffff" stroke-width="0.5" stroke-linecap="round"/><path d="M242.88885,181.65069l-0.5898,-0.28364" data-paper-data="{&quot;index&quot;:null}" fill="none" stroke="#ffffff" stroke-width="0.5" stroke-linecap="round"/><path d="M242.94805,180.4617l0.53908,0.34469" data-paper-data="{&quot;index&quot;:null}" fill="none" stroke="#ffffff" stroke-width="0.5" stroke-linecap="round"/><path d="M243.89194,179.69816l0.36627,0.30431" data-paper-data="{&quot;index&quot;:null}" fill="none" stroke="#ffffff" stroke-width="0.5" stroke-linecap="round"/></g><g data-paper-data="{&quot;index&quot;:null}"><g data-paper-data="{&quot;index&quot;:null}" stroke="none" stroke-width="0" stroke-linecap="butt"><path d="M251.81623,182.78769c0,0 -1.14916,-0.62553 -1.92942,-0.57252c-0.78027,0.05301 -3.66008,0.73759 -3.66008,0.73759c0,0 3.12438,-0.99961 3.28429,-1.74212c0.15993,-0.7426 -2.51489,-1.86596 -1.86903,-1.85748c3.41113,0.04481 4.17424,3.43453 4.17424,3.43453z" fill="#54c81c"/><path d="M240.08588,180.94201c0,0 2.68931,-0.89982 4.47498,-1.38362c2.16371,-0.58622 4.65827,-0.01367 5.36629,0.80769c0.70802,0.82135 -2.29606,2.3967 -3.765,2.51038c-1.59111,0.12315 -6.07627,-1.93447 -6.07627,-1.93447z" fill="#ffffff"/></g><path d="M249.77395,181.68043l-0.84279,-0.29533" fill="none" stroke="#ffffff" stroke-width="0.25" stroke-linecap="round"/><path d="M249.80681,180.61765l0.54484,0.22431" fill="none" stroke="#ffffff" stroke-width="0.25" stroke-linecap="round"/></g><g data-paper-data="{&quot;index&quot;:null}"><g data-paper-data="{&quot;index&quot;:null}" stroke="none" stroke-width="0" stroke-linecap="butt"><path d="M243.89665,186.34772c0,0 3.15275,-0.11115 3.42835,-1.04953c0.2797,-0.95228 -1.7612,-3.61732 -1.7612,-3.61732c0,0 1.26424,0.03177 2.84772,2.05162c0.91589,1.1653 1.8461,4.86392 1.8461,4.86392c0,0 -1.92204,-0.99701 -3.49161,-1.05219c-1.30395,-0.04584 -2.86936,-1.19649 -2.86936,-1.19649z" fill="#54c81c"/><path d="M245.64327,181.62207c0.1492,0.06763 2.17782,2.04746 1.94122,3.68148c-0.24403,1.44014 -3.65598,1.05697 -3.65598,1.05697c0,0 -1.51461,-0.66859 -2.62377,-1.35071c-1.33258,-0.81951 -1.68141,-2.57897 -1.5121,-3.46922c0.16931,-0.89025 0.41904,0.1592 2.23093,-0.40155c1.36518,-0.42249 3.47673,0.41823 3.61972,0.48304z" fill="#ffffff"/></g><path d="M245.83803,186.23574l0.4267,0.32264" fill="none" stroke="#ffffff" stroke-width="0.25" stroke-linecap="round"/><path d="M247.61908,186.03222l-0.3088,-0.4204" fill="none" stroke="#ffffff" stroke-width="0.25" stroke-linecap="round"/><path d="M247.82673,184.50709l-0.65788,-0.40948" fill="none" stroke="#ffffff" stroke-width="0.25" stroke-linecap="round"/></g><g data-paper-data="{&quot;index&quot;:null}"><g data-paper-data="{&quot;index&quot;:null}" stroke="none" stroke-width="0" stroke-linecap="butt"><path d="M246.96382,198.69469c-1.68126,-0.46781 -3.02684,-4.1119 -3.02684,-4.1119c-0.22171,-0.52434 -0.24548,-1.02891 -0.19696,-1.53677c0.04227,-0.44231 0.13934,-0.88709 0.20822,-1.34961c0.14797,-0.99357 1.06083,0.27276 1.06083,0.27276c0,0 1.42632,1.75093 1.75475,2.89624c0.40026,0.94333 1.4282,4.171 0.2,3.82926z" data-paper-data="{&quot;index&quot;:null}" fill="#54c81c"/><path d="M244.13324,189.04262c0,0 1.03475,3.25225 1.50725,4.42569c0.31963,0.79381 0.88196,2.04261 0.88196,2.04261c0.08133,0.35084 -0.13683,1.56229 -0.73527,1.01877c-0.47044,-0.42728 -1.34543,-2.60824 -1.34543,-2.60824c0,0 -1.3435,-3.95134 -1.6537,-4.52026c-0.92291,-1.82444 -1.93725,-5.30172 -1.93725,-5.30172l1.42215,-0.36133l1.86028,5.30444z" data-paper-data="{&quot;index&quot;:null}" fill="#ffffff"/></g><path d="M245.5708,196.68359l0.20916,-0.45973" fill="none" stroke="#000000" stroke-width="0.5" stroke-linecap="round"/><path d="M245.08621,195.79726l0.14228,-0.43467" fill="none" stroke="#000000" stroke-width="0.5" stroke-linecap="round"/></g><g data-paper-data="{&quot;index&quot;:null}"><g data-paper-data="{&quot;index&quot;:null}" stroke="none" stroke-width="0" stroke-linecap="butt"><path d="M244.17116,199.19331c-0.75012,1.03082 -1.94981,-2.13702 -2.22222,-3.1249c-0.45418,-1.1015 -0.42427,-3.35966 -0.42427,-3.35966c0,0 -0.07139,-1.55944 0.66182,-0.87278c0.34131,0.31964 0.69371,0.60788 1.0016,0.92821c0.35352,0.36781 0.64838,0.77796 0.80039,1.32658c0,0 1.20949,3.69149 0.18267,5.10255z" data-paper-data="{&quot;index&quot;:null}" fill="#54c81c"/><path d="M240.39285,189.87135l-1.83767,-5.31232l1.33889,-0.60038c0,0 1.36543,3.35501 1.77567,5.35802c0.11035,0.63852 1.51236,4.56947 1.51236,4.56947c0,0 0.66928,2.25262 0.56609,2.8797c-0.13126,0.79767 -1.05484,-0.01609 -1.20907,-0.34153c0,0 -0.33519,-1.32794 -0.57788,-2.14854c-0.35877,-1.21305 -1.56839,-4.4044 -1.56839,-4.4044z" data-paper-data="{&quot;index&quot;:null}" fill="#ffffff"/></g><path d="M243.48948,195.29484l0.51749,0.2084" fill="none" stroke="#000000" stroke-width="0.5" stroke-linecap="round"/><path d="M244.04193,196.54266l-0.44951,-0.23031" fill="none" stroke="#000000" stroke-width="0.5" stroke-linecap="round"/></g><g data-paper-data="{&quot;index&quot;:null}"><g data-paper-data="{&quot;index&quot;:null}" stroke="none" stroke-width="0" stroke-linecap="butt"><path d="M238.65097,182.11504c0,0 -1.12339,1.52751 -2.23795,2.51732c-0.61434,0.5456 -1.52812,1.1119 -1.98064,1.50304c-0.76461,0.66087 -0.70109,1.07153 -0.70109,1.07153c0,0 -0.22394,-1.05484 -0.22115,-1.53701c0.00279,-0.48217 0.0196,-0.94365 0.1991,-0.94779c0.17948,-0.00413 4.94172,-2.60711 4.94172,-2.60711z" fill="#54c81c"/><path d="M237.82862,182.99053c-2.19992,2.10187 -4.31254,2.09146 -4.31254,2.09146c0,0 -0.09855,-2.28195 2.42907,-4.336c1.97557,-1.60543 3.2765,-1.52156 3.63089,-1.87806c1.03047,-1.03653 0.90626,-0.70918 0.90626,-0.70918c0,0 0.40274,1.91159 -2.65368,4.83178z" fill="#ffffff"/></g><path d="M235.02013,185.01553l0.26306,-0.62495" fill="none" stroke="#ffffff" stroke-width="0.25" stroke-linecap="round"/><path d="M234.20491,184.83001l-0.13621,0.57325" fill="none" stroke="#ffffff" stroke-width="0.25" stroke-linecap="round"/></g><g data-paper-data="{&quot;index&quot;:null}"><g data-paper-data="{&quot;index&quot;:null}" stroke="none" stroke-width="0" stroke-linecap="butt"><path d="M237.92803,191.06999c0,0 -2.13048,-1.29757 -2.38798,-3.0834c-0.19467,-1.35003 0.19126,-3.34251 0.19126,-3.34251l5.05567,0.88319c0,0 -1.77373,2.22937 -2.2606,3.2516c-0.48688,1.02224 -0.59834,2.29111 -0.59834,2.29111z" fill="#54c81c"/><path d="M236.8723,187.99748c-1.42312,-0.509 -1.39955,-2.63069 -1.14099,-3.3534c0.25663,-0.71728 0.22118,-1.92506 2.45471,-3.65762c1.52333,-1.18166 1.51931,-2.38666 1.51931,-2.38666l0.87782,-0.04409c0,0 1.9254,2.79115 1.35895,4.89116c-0.52994,1.9646 -3.70179,5.03992 -5.06982,4.55061z" fill="#ffffff"/></g><path d="M238.4872,187.44321l-0.20969,0.54204" fill="none" stroke="#ffffff" stroke-width="0.25" stroke-linecap="round"/><path d="M237.21389,187.78152l-0.14705,0.51434" fill="none" stroke="#ffffff" stroke-width="0.25" stroke-linecap="round"/><path d="M236.01771,187.78616l0.30727,-0.66008" fill="none" stroke="#ffffff" stroke-width="0.25" stroke-linecap="round"/></g><g data-paper-data="{&quot;index&quot;:null}"><path d="M242.35037,181.28861c-0.36591,0.39828 -2.69739,-0.28309 -2.69739,-0.28309c-0.24658,-0.28197 -1.67704,-0.07531 -1.70209,-0.53654c-0.00974,-0.1801 0.14956,-1.14428 0.32786,-1.71279c0.1783,-0.56852 -0.05954,-0.98345 0.64221,-1.38034c0.70175,-0.39689 1.90661,-0.1482 2.06043,-0.1482c0.12177,0 0.72348,0.19835 1.07941,1.25421c0.35594,1.05586 0.59384,2.36369 0.28957,2.80676z" data-paper-data="{&quot;index&quot;:null}" fill="#319a2b" stroke="none" stroke-width="0.17188" stroke-linecap="butt"/><path d="M240.97721,181.03802c0.61263,0 1.39781,-0.03289 1.39781,-0.03289l0.22399,0.60534c0,0 -0.81357,-0.32402 -1.50188,-0.15139c-0.61138,0.03439 -1.24991,-0.3092 -1.15798,-0.46382c0.178,-0.29941 0.42542,0.04276 1.03805,0.04276z" data-paper-data="{&quot;index&quot;:null}" fill="#ead42f" stroke="none" stroke-width="0" stroke-linecap="butt"/><path d="M237.89108,180.3842c0,0 0.60465,0.11279 1.21306,0.18453c0.60841,0.07174 0.41111,0.46852 -0.19203,0.36277c-0.66335,-0.25204 -1.3616,-0.05504 -1.3616,-0.05504l0.34058,-0.49225z" data-paper-data="{&quot;index&quot;:null}" fill="#ead42f" stroke="none" stroke-width="0" stroke-linecap="butt"/><path d="M240.88,180.77492l0.07853,0.38091" fill="none" stroke="#ffffff" stroke-width="0.25" stroke-linecap="round"/><path d="M241.81312,180.83174l0.09109,0.32829" fill="none" stroke="#ffffff" stroke-width="0.25" stroke-linecap="round"/><path d="M238.83152,180.32128l-0.03093,0.30573" fill="none" stroke="#ffffff" stroke-width="0.25" stroke-linecap="round"/><path d="M238.16148,180.27117l-0.147,0.38175" fill="none" stroke="#ffffff" stroke-width="0.25" stroke-linecap="round"/></g><g data-paper-data="{&quot;index&quot;:null}" stroke="none" stroke-linecap="butt"><path d="M239.97595,177.35818c0.17008,0.06905 0.3072,0.33949 0.39108,0.72079c0.08399,0.38126 0.11481,0.87325 0.07258,1.38519c-0.0422,0.51204 -0.14953,0.94795 -0.28883,1.23853c-0.1394,0.29062 -0.31073,0.43601 -0.48082,0.36696c-0.17021,-0.06911 -0.30722,-0.33958 -0.3912,-0.72085c-0.08388,-0.3813 -0.11481,-0.87325 -0.07258,-1.38519c0.04219,-0.51204 0.14963,-0.94798 0.28893,-1.23856c0.1393,-0.29058 0.31062,-0.43597 0.48084,-0.36686z" fill="#eb3d66" stroke-width="0.01872"/><path d="M239.86386,178.32515c0.20905,0.00794 0.3635,0.4098 0.34498,0.89758c-0.01852,0.48778 -0.203,0.87677 -0.41205,0.86883c-0.20905,-0.00794 -0.3635,-0.4098 -0.34498,-0.89758c0.01852,-0.48778 0.203,-0.87677 0.41205,-0.86883z" fill="#492116" stroke-width="0"/><path d="M240.08425,177.56189c0.07287,0.00749 0.14677,0.09569 0.20751,0.23227c0.06069,0.1365 0.10811,0.32141 0.12783,0.52204c0.01966,0.20055 0.00797,0.3793 -0.02692,0.50605c-0.03488,0.12675 -0.09285,0.20152 -0.16563,0.19397c-0.07281,-0.00742 -0.14676,-0.0957 -0.2075,-0.23228c-0.06068,-0.13652 -0.10813,-0.3213 -0.12777,-0.52198c-0.0197,-0.20063 -0.00801,-0.37938 0.02688,-0.50613c0.03481,-0.1267 0.0928,-0.20139 0.16562,-0.19397z" fill="#ffffff" stroke-width="0.01896"/></g><g data-paper-data="{&quot;index&quot;:null}"><g stroke="none" stroke-width="0" stroke-linecap="butt"><path d="M241.02178,178.67842l0.45465,-0.72904l1.75587,2.08043l-0.5392,0.49353z" fill="#319a2b"/><path d="M242.61998,180.6932c-0.21672,-0.61 0.29844,-0.92568 0.67042,-0.68644c0.89882,0.57808 2.18287,2.25916 2.18287,2.25916l-0.74241,1.34377c0,0 -1.90831,-2.34626 -2.11088,-2.91648z" fill="#ead42f"/><path d="M245.19791,184.09798c-0.8355,-0.27694 -1.36492,-2.48303 -0.08792,-3.71857c1.05431,-1.02007 1.64173,-1.46201 2.88115,-1.19291c0.392,0.0851 0.54128,2.06687 -0.42659,3.1693c-0.96787,1.10242 -2.0931,1.83285 -2.36664,1.74218z" fill="#f0e9bb"/></g><path d="M245.32558,183.96909c0,0 -0.05645,-1.55201 0.19478,-2.48625c0.25124,-0.93424 1.24906,-2.08536 1.24906,-2.08536" fill="none" stroke="#d3c49c" stroke-width="0.25" stroke-linecap="round"/><path d="M244.96657,183.02488l0.82154,0.10791" fill="none" stroke="#ffffff" stroke-width="0.5" stroke-linecap="round"/><path d="M245.84137,181.85171l-0.64423,-0.11529" fill="none" stroke="#ffffff" stroke-width="0.5" stroke-linecap="round"/><path d="M246.19161,180.878l-0.61172,-0.18768" fill="none" stroke="#ffffff" stroke-width="0.5" stroke-linecap="round"/><path d="M246.28476,179.70182l0.4344,0.19507" fill="none" stroke="#ffffff" stroke-width="0.5" stroke-linecap="round"/></g><g><path d="M236.62162,169.6024c4.22211,-1.69149 5.45493,1.27159 5.69545,1.38418c0.20615,0.17194 0.293,0.44406 0.40719,0.67844c0.37056,0.87452 0.65265,1.7827 0.94264,2.68673c0.13942,0.36428 0.05104,0.76923 -0.12051,1.10625c-0.18989,0.35878 -0.55896,0.57044 -0.86485,0.81965c-0.48637,0.36793 -1.02127,0.66712 -1.59458,0.87441c-0.69123,0.29209 -1.60365,0.56496 -2.37654,0.41344c-0.49258,-0.01818 -0.42403,-0.03469 -0.92277,-0.02918c-1.05293,-0.12538 -2.00262,-0.73142 -2.67794,-1.53273c-0.40835,-0.47708 -0.74295,-1.032 -0.91666,-1.63844c-0.05915,-0.2611 -1.07132,-3.36058 2.42858,-4.76273z" data-paper-data="{&quot;index&quot;:null}" fill="#f0e9bb" stroke="none" stroke-width="0.17188" stroke-linecap="butt"/><path d="M232.85241,170.13948c0.67717,0.18586 -0.07843,3.6726 0.03193,3.09878c-0.69466,-0.11302 -1.38922,-0.60455 -1.72779,-1.06785c-0.03102,-0.04241 -0.02877,-0.19586 -0.02877,-0.19586c-0.07557,0.05656 -0.00648,-0.09284 -0.0345,-0.18507c-0.0221,-0.07254 -0.15741,-0.18952 -0.15741,-0.18952c-0.02735,0.04361 0.13099,-0.15283 0.17582,-0.25701c0.03707,-0.08603 -0.00754,-0.11311 0.02837,-0.17165c0.25141,-0.41217 0.81016,-0.79937 1.71238,-1.03185z" data-paper-data="{&quot;index&quot;:null}" fill="#ed3e67" stroke="none" stroke-width="0.17188" stroke-linecap="butt"/><path d="M242.11566,170.92847c-0.08516,-0.06365 -0.20916,-0.0723 -0.39431,-0.09696c-0.13918,-0.01864 -0.40957,-0.05535 -0.50841,-0.09211c-0.24817,-0.09227 -1.13449,0.25046 -1.80376,0.95318c-0.66927,0.70271 -0.63526,2.17862 -0.90496,2.04789c-0.10255,-0.04972 -0.85892,-0.33039 -0.69705,-0.14028c0.02672,0.03146 -0.2122,0.4095 -0.21213,0.43781c-0.00001,0.07606 -1.18839,-0.65291 -1.63874,-0.73503c-0.45034,-0.08212 -1.47049,0.1348 -1.56126,0.14762c-0.13641,0.01915 -0.1699,0.14997 -0.12743,0.27609c0.05354,0.15961 0.75872,2.10832 1.44527,2.78328c0.68654,0.67496 2.52794,1.16296 2.1919,0.95172c-0.15163,-0.09541 0.01934,1.55685 -0.20425,1.81556c-0.15947,0.18485 -2.28385,-0.92873 -3.35068,-3.47557c-0.50693,-1.21019 -0.81787,-2.89138 -0.85987,-3.24944l-0.08212,-0.6995c0.01943,-0.87513 0.2106,-1.7267 0.60006,-2.55106c0.02479,-0.05252 0.32955,-0.94846 1.21192,-1.71768c0.5572,-0.48582 1.62506,-0.96889 1.70958,-1.00513c0.49568,-0.2125 1.45643,-0.64272 2.42541,-0.81489c0.61636,-0.10953 1.23585,-0.03651 1.74165,0.01153c0.09085,0.00852 -0.31187,1.30981 -0.22619,1.31415c0.04156,0.00198 0.19947,1.00395 0.24378,1.08736l0.29574,0.55703c0.29901,0.56309 1.08089,0.9432 1.20927,0.98125c0.17574,0.05224 0.7637,0.18852 0.91745,0.12966l0.51842,-0.19789c0.07095,-0.02731 0.50042,-0.72454 0.56686,-0.70141c0.23412,0.08158 0.51551,1.00387 0.55278,1.19267l0.19632,0.99363c0.06316,0.32007 0.11655,0.49324 0.09882,0.97702c-0.02406,0.66379 -0.05094,1.32773 -0.24116,2.00318c-0.15365,0.5459 -1.23849,2.35606 -1.27015,2.19584l-0.27103,-1.36229l-0.52148,-1.86788l-1.05024,-2.14935z" data-paper-data="{&quot;index&quot;:null}" fill="#54c81c" stroke="none" stroke-width="0.17188" stroke-linecap="butt"/><path d="M245.25536,167.92909c-0.82045,0.72108 -2.8864,-0.76491 -2.8864,-0.76491c-0.14895,-0.36058 0.42863,-1.46163 1.475,-1.7749c0.7998,-0.23929 1.40772,-0.18952 1.79145,0.02649c0.05477,0.03083 0.03303,0.07411 0.10135,0.12669c0.08274,0.06343 0.29518,0.14821 0.25397,0.12562c0,0 -0.04965,0.15974 -0.033,0.22923c0.02115,0.08843 0.14363,0.17729 0.05942,0.16714c0,0 0.0729,0.12394 0.0687,0.17327c-0.04503,0.53854 -0.35007,1.26905 -0.83045,1.69138z" data-paper-data="{&quot;index&quot;:null}" fill="#ed3e67" stroke="none" stroke-width="0.17188" stroke-linecap="butt"/><path d="M241.89993,168.11129c0.11784,0.02591 -0.20264,-0.48548 -0.30069,-1.07326c-0.10477,-0.62762 0.02245,-1.34198 0.5042,-1.57375c0.27821,-0.13374 0.57099,-0.14834 0.83971,-0.17888c0.55431,-0.06308 0.98599,-0.00532 0.83966,0.13369c-0.24824,0.23601 -0.53949,0.60502 -0.7188,0.88869c-0.25578,0.40448 -0.40722,0.6959 -0.38142,0.70827l1.65961,0.79455l0.95301,0.13269c0.15479,0.01331 -0.09477,0.37471 -0.41398,0.69238c-0.27545,0.27437 -0.42151,0.57555 -0.52358,0.6591c-0.45411,0.37285 -0.48605,0.10262 -1.22997,0.025c-0.43258,-0.04519 -1.40489,-1.24772 -1.22775,-1.20846z" data-paper-data="{&quot;index&quot;:null}" fill="#54c81c" stroke="none" stroke-width="0.17188" stroke-linecap="butt"/><path d="M241.17397,168.37179c-0.47988,-1.23829 -0.55818,-2.83923 0.44663,-2.78639c0.42137,0.02205 -0.02381,0.4782 0.00595,1.3151c0.01893,0.5326 0.28135,1.25357 0.91812,2.00473c0.06693,0.07871 0.29292,0.19284 0.59683,0.33591c0.46572,0.21943 1.70248,-0.51757 1.54854,-0.31099l-0.60144,0.80656l-0.60697,0.12956c-0.34836,0.17368 -1.86846,-0.36142 -2.30764,-1.49447z" data-paper-data="{&quot;index&quot;:null}" fill="#ead32e" stroke="none" stroke-width="0.17188" stroke-linecap="butt"/><path d="M233.53894,170.81913c0.0315,0.2847 -0.11149,0.79642 -0.11149,0.79642c-0.09145,-0.10754 -0.05759,-0.35992 -0.10688,-0.47014c-0.11401,-0.25483 -0.19173,-0.96002 0.09052,-1.58393l0.16057,-0.35474c0.07899,-0.17472 0.50061,-0.49421 0.61706,-0.47325c0.17078,0.10021 -0.27624,0.6513 -0.44366,1.32971c-0.08025,0.32521 -0.20612,0.75593 -0.20612,0.75593z" data-paper-data="{&quot;index&quot;:null}" fill="#ead32e" stroke="none" stroke-width="0.17188" stroke-linecap="butt"/><path d="M233.36484,170.80294c-0.00123,0.15401 0.06602,0.88289 0.10973,1.23813l0.17217,1.40004c0.01268,0.103 -0.90293,-0.12559 -0.96947,-0.42812c-0.25472,-0.26886 -0.26516,-0.5856 -0.34255,-0.88896c0.00691,-0.36962 0.08756,-0.90151 0.18781,-1.14479c0.08076,-0.19594 -0.26395,-0.57039 -0.22077,-0.80236c0.06479,-0.34926 1.07345,-0.72998 1.07345,-0.72998z" data-paper-data="{&quot;index&quot;:null}" fill="#54c81c" stroke="none" stroke-width="0.17188" stroke-linecap="butt"/><path d="M241.69824,171.26364c0.62059,0.41417 0.65532,1.45921 0.3382,1.99112c-0.31711,0.5319 -1.07726,0.62735 -1.69784,0.21318c-0.62059,-0.41417 -0.86659,-1.18111 -0.54948,-1.71301c0.31711,-0.5319 1.28854,-0.90545 1.90912,-0.49128z" fill="#000000" stroke="none" stroke-width="0" stroke-linecap="butt"/><path d="M234.51445,174.28289c0.14736,-0.7314 1.03733,-1.08566 1.63738,-0.93263c0.60005,0.15303 0.96704,0.87 0.81968,1.60139c-0.14736,0.7314 -0.75327,1.20026 -1.35332,1.04723c-0.60005,-0.15303 -1.2511,-0.98459 -1.10374,-1.71599z" data-paper-data="{&quot;index&quot;:null}" fill="#000000" stroke="none" stroke-width="0" stroke-linecap="butt"/><path d="M241.87795,175.45913l-0.29291,0.54035" fill="none" stroke="#000000" stroke-width="0.25" stroke-linecap="round"/><path d="M240.64653,176.68241l0.5291,-0.29069" fill="none" stroke="#000000" stroke-width="0.25" stroke-linecap="round"/><path d="M239.56289,177.2022l0.55455,-0.22909" fill="none" stroke="#000000" stroke-width="0.25" stroke-linecap="round"/><path d="M238.47522,177.36297l0.54384,-0.08039" fill="none" stroke="#000000" stroke-width="0.25" stroke-linecap="round"/><path d="M237.97826,177.20762l-0.4099,-0.1192" fill="none" stroke="#000000" stroke-width="0.25" stroke-linecap="round"/><path d="M242.18229,174.64593l-0.30325,0.31684l-0.45262,-0.28515" fill="none" stroke="#000000" stroke-width="0.25" stroke-linecap="round"/><path d="M237.26336,176.32889l0.00174,0.53495l-0.42942,0.0891" data-paper-data="{&quot;index&quot;:null}" fill="none" stroke="#000000" stroke-width="0.25" stroke-linecap="round"/><path d="M241.31852,171.70649l-0.57297,1.42033" fill="none" stroke="#ffffff" stroke-width="0.25" stroke-linecap="round"/><path d="M241.73623,172.79981l-1.35707,-0.81168" fill="none" stroke="#ffffff" stroke-width="0.25" stroke-linecap="round"/><path d="M241.62228,171.89507c-0.1559,0.13776 -0.39397,0.12306 -0.53174,-0.03284c-0.13776,-0.1559 -0.12306,-0.39397 0.03284,-0.53174c0.1559,-0.13776 0.39397,-0.12306 0.53174,0.03284c0.13776,0.1559 0.12306,0.39397 -0.03284,0.53174z" fill="#ffffff" stroke="none" stroke-width="0" stroke-linecap="butt"/><path d="M240.89533,173.45147c-0.1559,0.13776 -0.39397,0.12306 -0.53174,-0.03284c-0.13776,-0.1559 -0.12306,-0.39397 0.03284,-0.53174c0.1559,-0.13776 0.39397,-0.12306 0.53174,0.03284c0.13776,0.1559 0.12306,0.39397 -0.03284,0.53174z" fill="#ffffff" stroke="none" stroke-width="0" stroke-linecap="butt"/><path d="M240.48956,172.16479c-0.1559,0.13776 -0.39397,0.12306 -0.53174,-0.03284c-0.13776,-0.1559 -0.12306,-0.39397 0.03284,-0.53174c0.1559,-0.13776 0.39398,-0.12307 0.53174,0.03284c0.13776,0.1559 0.12305,0.39398 -0.03285,0.53174z" fill="#ffffff" stroke="none" stroke-width="0" stroke-linecap="butt"/><path d="M241.9827,173.13045c-0.1559,0.13776 -0.39397,0.12306 -0.53174,-0.03284c-0.13776,-0.1559 -0.12306,-0.39397 0.03284,-0.53174c0.1559,-0.13776 0.39397,-0.12306 0.53174,0.03284c0.13776,0.1559 0.12306,0.39397 -0.03284,0.53174z" fill="#ffffff" stroke="none" stroke-width="0" stroke-linecap="butt"/><path d="M235.53828,175.35119l0.57297,-1.42033" fill="none" stroke="#ffffff" stroke-width="0.25" stroke-linecap="round"/><path d="M235.17189,174.2125l1.35707,0.81168" fill="none" stroke="#ffffff" stroke-width="0.25" stroke-linecap="round"/><path d="M236.41501,174.11944c-0.1559,0.13776 -0.39397,0.12306 -0.53174,-0.03284c-0.13776,-0.1559 -0.12306,-0.39397 0.03284,-0.53174c0.1559,-0.13776 0.39397,-0.12306 0.53174,0.03284c0.13776,0.1559 0.12306,0.39397 -0.03284,0.53174z" fill="#ffffff" stroke="none" stroke-width="0" stroke-linecap="butt"/><path d="M235.68806,175.67584c-0.1559,0.13776 -0.39397,0.12306 -0.53174,-0.03284c-0.13776,-0.1559 -0.12306,-0.39397 0.03284,-0.53174c0.1559,-0.13776 0.39397,-0.12306 0.53174,0.03284c0.13776,0.1559 0.12306,0.39397 -0.03284,0.53174z" fill="#ffffff" stroke="none" stroke-width="0" stroke-linecap="butt"/><path d="M235.28229,174.38916c-0.1559,0.13776 -0.39397,0.12306 -0.53174,-0.03284c-0.13776,-0.1559 -0.12306,-0.39397 0.03284,-0.53174c0.1559,-0.13776 0.39398,-0.12307 0.53174,0.03284c0.13776,0.1559 0.12305,0.39398 -0.03285,0.53174z" fill="#ffffff" stroke="none" stroke-width="0" stroke-linecap="butt"/><path d="M236.77543,175.35482c-0.1559,0.13776 -0.39397,0.12306 -0.53174,-0.03284c-0.13776,-0.1559 -0.12306,-0.39397 0.03284,-0.53174c0.1559,-0.13776 0.39397,-0.12306 0.53174,0.03284c0.13776,0.1559 0.12306,0.39397 -0.03284,0.53174z" fill="#ffffff" stroke="none" stroke-width="0" stroke-linecap="butt"/></g><g><path d="M237.13381,168.45516c0,0 -1.46584,-1.25601 -2.6282,-1.75787c-1.16236,-0.50186 -2.27142,0.02192 -2.27142,0.02192l-0.3227,-0.67931c0,0 1.67572,-0.54207 2.90001,-0.01771c1.2243,0.52436 2.79684,1.95563 2.79684,1.95563z" fill="#000000" stroke="none" stroke-width="0" stroke-linecap="butt"/><path d="M230.99907,168.89436l-4.22441,0.65515l2.26255,-3.94092l3.66197,0.28719z" fill="#ea035a" stroke="none" stroke-width="0" stroke-linecap="butt"/><path d="M232.61386,166.04067l-5.80323,3.37344" fill="none" stroke="#000000" stroke-width="0.25" stroke-linecap="round"/><path d="M228.97187,165.50376l2.2606,1.26573l-0.25459,2.14262" fill="none" stroke="#000000" stroke-width="0.25" stroke-linecap="round"/></g></g></g></svg>