<svg version="1.1" xmlns="http://www.w3.org/2000/svg" xmlns:xlink="http://www.w3.org/1999/xlink" width="21.34005" height="25.80929" viewBox="0,0,21.34005,25.80929"><defs><radialGradient cx="240" cy="180" r="9.04943" gradientUnits="userSpaceOnUse" id="color-1"><stop offset="0" stop-color="#cad6d9"/><stop offset="1" stop-color="#cad6d9" stop-opacity="0"/></radialGradient></defs><g transform="translate(-229.45046,-167.15038)"><g data-paper-data="{&quot;isPaintingLayer&quot;:true}" fill-rule="nonzero" stroke="none" stroke-width="0" stroke-linecap="butt" stroke-linejoin="miter" stroke-miterlimit="10" stroke-dasharray="" stroke-dashoffset="0" style="mix-blend-mode: normal"><path d="M246.74269,180c0,4.99787 -3.0188,9.04944 -6.74269,9.04944c-3.72389,0 -6.74269,-4.05157 -6.74269,-9.04944c0,-4.99787 3.0188,-9.04943 6.74269,-9.04943c3.7239,0 6.74269,4.05157 6.74269,9.04943z" fill="url(#color-1)"/><path d="M236.80425,174.93772c-0.43497,0.70499 -1.1064,3.07333 -1.1064,3.07333c0,0 -0.12293,-1.11912 -0.12293,-2.49964c0,-1.38052 0.71551,-2.49964 1.59813,-2.49964c0.4665,0 1.26043,0.56538 1.26043,0.56538c0,0 -1.19426,0.65557 -1.62923,1.36057z" fill-opacity="0.25098" fill="#ffffff"/><path d="M239.26291,169.56964c6.41547,0 8.03163,8.44141 8.03163,8.44141c0,0 -2.26855,-7.87526 -8.19554,-7.94967c-4.45131,-0.05589 -6.31057,7.94967 -6.31057,7.94967c0,0 1.12443,-8.44141 6.47448,-8.44141z" fill-opacity="0.25098" fill="#ffffff"/><path d="M240.5742,190.63218c-6.41547,0 -8.03163,-8.44141 -8.03163,-8.44141c0,0 2.26855,7.87526 8.19554,7.94967c4.45131,0.05589 6.31057,-7.94967 6.31057,-7.94967c0,0 -1.12443,8.44141 -6.47448,8.44141z" data-paper-data="{&quot;index&quot;:null}" fill-opacity="0.25098" fill="#ffffff"/><path d="M229.45378,181.56763c-0.19431,-11.1607 8.19427,-14.41725 8.19427,-14.41725c0,0 -7.80294,4.36165 -7.69779,14.67648c0.07897,7.74668 8.13717,10.55913 8.13717,10.55913c0,0 -8.47159,-1.51112 -8.63363,-10.81835z" data-paper-data="{&quot;index&quot;:null}" fill-opacity="0.10196" fill="#ffffff"/><path d="M242.15354,192.95967c0,0 8.0582,-2.81245 8.13716,-10.55913c0.10515,-10.31483 -7.69779,-14.67648 -7.69779,-14.67648c0,0 8.38859,3.25656 8.19427,14.41726c-0.16205,9.30723 -8.63364,10.81835 -8.63364,10.81835z" data-paper-data="{&quot;index&quot;:null}" fill-opacity="0.10196" fill="#ffffff"/><path d="M243.43276,184.36259c0.43497,-0.705 1.1064,-3.07333 1.1064,-3.07333c0,0 0.12293,1.11912 0.12293,2.49964c0,1.38052 -0.71551,2.49964 -1.59813,2.49964c-0.4665,0 -1.26043,-0.56539 -1.26043,-0.56539c0,0 1.19427,-0.65557 1.62923,-1.36056z" data-paper-data="{&quot;index&quot;:null}" fill-opacity="0.25098" fill="#ffffff"/></g></g></svg>