<svg version="1.1" xmlns="http://www.w3.org/2000/svg" xmlns:xlink="http://www.w3.org/1999/xlink" width="22.10823" height="37.26841" viewBox="0,0,22.10823,37.26841"><g transform="translate(-229.30303,-161.57142)"><g data-paper-data="{&quot;isPaintingLayer&quot;:true}" fill="#000000" fill-rule="nonzero" stroke="none" stroke-width="0" stroke-linecap="butt" stroke-linejoin="miter" stroke-miterlimit="10" stroke-dasharray="" stroke-dashoffset="0" style="mix-blend-mode: normal"><path d="M237,177.78571c0,8.9549 2.71828,16.21429 6.07143,16.21429c3.35315,0 6.07143,-7.25938 6.07143,-16.21429c0,-8.9549 -2.71828,-16.21428 -6.07143,-16.21428c-3.35315,0 -6.07143,7.25938 -6.07143,16.21428z"/><path d="M229.64286,183.78572c0,7.43357 3.74162,13.45967 8.35715,13.45967c4.61552,0 8.35715,-6.02609 8.35715,-13.45966c0,-7.43357 -3.74162,-13.45966 -8.35715,-13.45966c-4.61552,0 -8.35715,6.02609 -8.35715,13.45967z"/><path d="M236.80314,184.23172c-5.77913,5.77913 -8.87286,12.05522 -6.91004,14.01804c1.96282,1.96282 8.23891,-1.13091 14.01804,-6.91004c5.77913,-5.77913 8.87286,-12.05522 6.91004,-14.01804c-1.96282,-1.96282 -8.23891,1.13091 -14.01804,6.91004z"/></g></g></svg>