<svg version="1.1" xmlns="http://www.w3.org/2000/svg" xmlns:xlink="http://www.w3.org/1999/xlink" width="32.37695" height="34.80232" viewBox="0,0,32.37695,34.80232"><g transform="translate(-226.39033,-165.50483)"><g data-paper-data="{&quot;isPaintingLayer&quot;:true}" fill-rule="nonzero" stroke-miterlimit="10" stroke-dasharray="" stroke-dashoffset="0" style="mix-blend-mode: normal"><path d="M238.94248,182.27c0,0 -2.88436,2.70534 -3.70777,2.71515c-0.89476,0.01065 -2.54056,-1.2345 -2.54056,-1.2345l2.56892,0.43515l2.34916,-1.98201l1.33025,0.06623z" data-paper-data="{&quot;index&quot;:null}" fill="#f79db4" stroke="none" stroke-width="0" stroke-linecap="butt" stroke-linejoin="miter"/><g data-paper-data="{&quot;index&quot;:null}" stroke="none" stroke-width="0" stroke-linecap="butt" stroke-linejoin="miter"><path d="M247.86098,184.60058c0.08848,0.1027 0.15516,1.1522 0.11506,1.6247c-0.02191,0.25806 -0.0596,0.73912 -0.47411,0.87157c-0.10565,0.03376 -0.63615,-0.07211 -0.63615,-0.07211l-0.24029,0.34388c0,0 -0.23823,0.07543 -0.38556,0.04098c-0.14734,-0.03445 -0.37586,-0.19935 -0.37586,-0.19935c0,0 -0.16123,0.05908 -0.26581,0.12387c-0.3413,0.21147 -0.5668,-0.09006 -0.5668,-0.09006c0,0 -0.23002,0.18176 -0.44216,0.1932c-0.33631,0.01815 -0.73434,-0.149 -0.90916,-0.30489c-0.29697,-0.26481 -0.92739,-1.17742 -0.74896,-1.50217c0.2779,-0.5058 0.85667,-0.09311 0.85667,-0.09311c0,0 -0.24829,-0.54886 -0.20696,-0.91116c0.06365,-0.55787 0.32341,-0.81262 0.32341,-0.81262l2.32463,-0.78973c0,0 1.07675,0.93243 1.63205,1.57703z" fill="#ffffff"/><path d="M245.88211,181.47344c0.30812,0.32953 0.72594,1.24739 0.28797,1.60515c-1.59992,1.30691 -2.69899,0.79382 -3.27413,0.05282c-0.37565,-0.48399 -0.46643,-0.93427 0.90516,-1.74416c0.48699,-0.28754 1.77286,-0.24335 2.081,0.08618z" fill="#fed000"/><path d="M243.27668,180.3728c0.8535,0.91282 1.79045,1.79972 1.79045,1.79972c0,0 -0.44681,0.3006 -0.73515,0.41736c-0.28834,0.11677 -0.52942,0.05015 -0.52942,0.05015c0,0 -1.04717,-1.27095 -1.3915,-1.6392c-0.56481,-0.60406 -1.31192,-1.34029 -2.18366,-2.16414c-0.21843,-0.20642 -0.23738,-0.4402 -0.03598,-0.67155c0.1353,-0.15543 0.32442,-0.24554 0.62816,-0.02494c0.9173,0.66618 1.86012,1.59415 2.45709,2.23261z" fill="#fed5c7"/></g><g data-paper-data="{&quot;index&quot;:null}" stroke-width="0" stroke-linecap="butt" stroke-linejoin="miter"><g data-paper-data="{&quot;index&quot;:null}"><path d="M247.59992,169.35597c-1.06737,0 -1.93265,-0.86211 -1.93265,-1.92557c0,-1.06346 0.86527,-1.92557 1.93265,-1.92557c1.06737,0 1.93267,0.86211 1.93267,1.92557c0,1.06346 -0.86529,1.92557 -1.93267,1.92557z" fill="#e0cb17" stroke="none"/><path d="M247.67076,169.25516c-0.65944,0 -1.194,-0.53261 -1.194,-1.18962c0,-0.65702 0.53456,-1.18962 1.194,-1.18962c0.65944,0 1.194,0.53261 1.194,1.18962c0,0.65701 -0.53456,1.18962 -1.194,1.18962z" fill="#e0cb17" stroke="#000000"/><path d="M247.17674,174.43477c0,0 -1.33147,-1.96747 -0.98611,-3.31958c0.33262,-1.3022 0.48585,-1.50522 0.48585,-1.50522l2.10321,0.01487c0,0 0.78596,1.09728 0.44156,2.13075c-0.34441,1.03347 -2.04451,2.67918 -2.04451,2.67918z" fill="#e8edf4" stroke="#000000"/><path d="M247.69755,169.84999c-0.58416,-0.0026 -1.30651,-0.35626 -1.30651,-0.35626l0.28233,-0.4899c0,0 0.63821,0.33264 1.09235,0.30689c0.45415,-0.02575 1.08264,-0.43022 1.08264,-0.43022l0.21781,0.68142c0,0 -0.85738,0.29035 -1.36863,0.28808z" fill="#dbded5" stroke="#000000"/></g><g data-paper-data="{&quot;index&quot;:null}" stroke="none"><path d="M242.00437,174.35808c0,0.41758 -0.1631,0.75611 -0.36428,0.75611c-0.20118,0 -0.36426,-0.33852 -0.36426,-0.75611c0,-0.41759 0.16308,-0.75611 0.36426,-0.75611c0.20119,0 0.36428,0.33852 0.36428,0.75611z" fill="#000000"/><path d="M240.23468,178.87692c0.20956,0 0.98657,2.14736 0.98657,2.14736c0,0 -1.05021,0.33269 -1.25977,0.33269c-0.20955,0 -0.56158,-1.2075 -0.56158,-1.39124c0,-0.18374 0.62523,-1.0888 0.83479,-1.0888z" fill="#807d5a"/><path d="M241.40341,174.88465l-0.1012,-0.31253l4.86707,-5.89768l0.13154,0.15122z" fill="#6e6e73"/><path d="M245.61274,169.1785l0.33391,0.32261l-1.17375,1.36101l-0.30356,-0.32261z" fill="#ddcb1e"/></g></g><g data-paper-data="{&quot;index&quot;:null}" stroke-width="0" stroke-linecap="butt" stroke-linejoin="miter"><g data-paper-data="{&quot;index&quot;:null}"><path d="M226.39033,168.41603c0,-1.36425 1.11002,-2.47019 2.47929,-2.47019c1.36928,0 2.47929,1.10595 2.47929,2.47019c0,1.36425 -1.11002,2.47018 -2.47929,2.47018c-1.36927,0 -2.47929,-1.10594 -2.47929,-2.47018z" fill="#e0cb17" stroke="none"/><path d="M227.24705,169.2308c0,-0.84284 0.68578,-1.52608 1.53171,-1.52608c0.84594,0 1.5317,0.68324 1.5317,1.52608c0,0.84283 -0.68577,1.52609 -1.5317,1.52609c-0.84594,0 -1.53171,-0.68325 -1.53171,-1.52609z" fill="#e0cb17" stroke="#000000"/><path d="M226.78973,173.96453c-0.44181,-1.32577 0.56646,-2.7334 0.56646,-2.7334l2.69807,-0.01907c0,0 0.19657,0.26044 0.62326,1.93095c0.44304,1.73451 -1.26501,4.25845 -1.26501,4.25845c0,0 -2.18096,-2.11118 -2.62278,-3.43694z" fill="#e8edf4" stroke="#000000"/><path d="M228.74439,171.51996c-0.65585,0.00291 -1.75571,-0.36955 -1.75571,-0.36955l0.27941,-0.87416c0,0 0.80625,0.51889 1.38884,0.55192c0.5826,0.03303 1.40131,-0.39371 1.40131,-0.39371l0.36218,0.62847c0,0 -0.92665,0.45371 -1.67602,0.45702z" fill="#dbded5" stroke="#000000"/></g><g data-paper-data="{&quot;index&quot;:null}" stroke="none"><path d="M235.23353,178.83712c0.20578,-0.4242 0.50039,-2.89051 1.79131,-2.85171c0.20036,0.00602 1.7467,1.3038 1.98128,2.35045c0.3191,1.42374 -0.69622,2.71278 -0.69622,2.71278l-3.11533,-0.0194c0,0 -0.16684,-1.76794 0.03894,-2.19213z" fill="#e4dcaa"/><path d="M236.51509,176.33311c0.25809,0 0.46731,0.43427 0.46731,0.96997c0,0.5357 -0.20923,0.96997 -0.46731,0.96997c-0.25808,0 -0.46729,-0.43427 -0.46729,-0.96997c0,-0.53571 0.20921,-0.96997 0.46729,-0.96997z" fill="#000000"/><path d="M235.34687,183.21343c-0.14743,-0.84753 -0.15577,-2.1986 -0.15577,-2.1986c0,0 0.56637,-0.34524 0.93073,-0.45271c0.36436,-0.10747 0.96773,-0.159 0.96773,-0.159l1.23122,0.78486c0,0 0.2064,2.9878 0.21929,3.37045c0.02595,0.77064 -1.4019,1.34502 -1.4019,1.34502l-1.18066,-0.48271c0,0 -0.46323,-1.35979 -0.61066,-2.20732z" fill="#dfcc17"/><path d="M237.05241,185.8547c0,0 0.99676,-2.75471 1.2656,-2.75471c0.26884,0 1.0709,1.16105 1.0709,1.39676c0,0.23571 -0.45159,1.78475 -0.72043,1.78475c-0.26884,0 -1.61608,-0.42678 -1.61608,-0.42678z" fill="#807d5a"/><path d="M230.53617,170.2059l0.16875,-0.194l6.24365,7.56575l-0.12981,0.40092z" fill="#6e6e73"/><path d="M232.88565,172.40449l-0.38942,0.41386l-1.50574,-1.74595l0.42836,-0.41385z" fill="#ddcb1e"/></g></g><g data-paper-data="{&quot;index&quot;:null}" stroke="none" stroke-width="0" stroke-linecap="butt" stroke-linejoin="miter"><g><path d="M240.37493,199.18701l1.54229,0.3128c0,0 0.4503,0.87184 -0.65159,0.80353c-1.10189,-0.06831 -1.78746,-0.44535 -2.63264,-1.00712c-0.50171,-0.33347 -1.24081,-1.42972 -1.24081,-1.42972l-0.95911,-0.21541c0,0 -0.6136,-0.44272 -0.62598,-0.87071c-0.04403,-1.52184 0.75189,-1.94635 0.75189,-1.94635c0,0 0.59562,1.60119 1.15272,2.23669c0.68733,0.78405 2.66322,2.11629 2.66322,2.11629z" fill="#393939"/><path d="M241.9592,193.08691l0.0634,0.35644l-0.11091,0.40698c0,0 -0.0108,0.90638 0.02865,1.25374c0.04854,0.4274 0.0978,0.88747 0.31225,1.8706c0.02211,1.07141 -0.60594,2.5441 -0.60594,2.5441c0,0 -0.65536,0.13854 -1.67636,-0.41222c-3.4499,-1.86099 -3.38428,-4.05118 -3.38428,-4.05118c0,0 0.07778,-1.05371 0.30848,-1.56992c0.2307,-0.51622 0.62373,-0.85259 0.90006,-1.1344c0.27633,-0.28182 0.7788,-0.39306 0.7788,-0.39306c0,0 -0.14772,-0.02312 0.04959,-0.29486c0.04505,-0.06203 0.3201,-0.16945 0.3201,-0.16945l-0.15096,-0.1205l0.34762,-0.63276l2.7464,1.29012z" fill="#f01a40"/><path d="M241.79107,188.78287c0.81402,0.33871 1.46654,1.38452 1.3931,1.6738c-0.07345,0.28928 -0.69254,0.60733 -0.69254,0.60733c0,0 -0.03273,0.8107 -0.36244,0.91857c-0.49149,0.16079 -0.83159,0.14141 -1.88715,-0.1638c-0.56015,-0.23333 -0.81297,-0.73179 -1.05555,-1.09024c-0.29695,-0.43878 0.1499,-0.40463 0.22102,-0.73604c0.07112,-0.3314 0.06237,0.23521 0.07648,-0.65013c0.0101,-0.63417 1.90632,-0.72624 2.30707,-0.55948z" fill="#ffffff"/><path d="M241.17973,192.94757c-0.00563,0.05946 -0.07214,0.66014 -0.07214,0.66014c0,0 0.6199,2.68582 0.52747,3.49847c-0.11383,1.0009 -0.55293,2.41488 -0.55293,2.41488c0,0 -0.5088,-0.10063 -0.749,-0.18948c-0.24712,-0.09141 -1.22305,-0.69894 -1.22305,-0.69894c0,0 0.77108,-2.5802 0.84313,-3.02354c0.10542,-1.17416 0.04728,-2.21428 0.04728,-2.21428l0.03075,-0.34399l-0.1471,-0.37243l0.22013,-0.96408l1.39942,0.38162c0,0 -0.29405,0.53554 -0.32398,0.85163z" fill="#ffffff"/></g><path d="M240.1266,189.5339c0.09045,-0.3737 0.67784,-0.55223 1.312,-0.39876c0.63416,0.15346 1.07493,0.58082 0.98449,0.95452c-0.09044,0.37371 -0.67784,0.55224 -1.312,0.39877c-0.63416,-0.15348 -1.07493,-0.58084 -0.98449,-0.95454z" fill="#afafaf"/></g><path d="M241.50447,184.53088l0.04232,3.74693l-0.01442,2.30467c0,0 -0.38051,-0.00101 -0.61347,-0.12258c-0.23297,-0.12157 -0.56431,-0.3869 -0.56431,-0.3869l-0.11333,-2.24305l0.0052,-3.46327z" data-paper-data="{&quot;index&quot;:null}" fill="#f79db4" stroke="none" stroke-width="0" stroke-linecap="butt" stroke-linejoin="miter"/><g data-paper-data="{&quot;index&quot;:null}" stroke="none" stroke-width="0" stroke-linecap="butt" stroke-linejoin="miter"><g><path d="M238.12611,198.97408l1.53276,0.35663c0,0 0.42527,0.88432 -0.67423,0.78464c-1.09949,-0.09969 -1.77404,-0.49611 -2.60287,-1.08174c-0.492,-0.34763 -1.19956,-1.46449 -1.19956,-1.46449l-0.95257,-0.24266c0,0 -0.60075,-0.46003 -0.60093,-0.8882c-0.00064,-1.52246 0.80706,-1.92413 0.80706,-1.92413c0,0 0.54976,1.61751 1.08851,2.26863c0.66471,0.80334 2.60184,2.19133 2.60184,2.19133z" fill="#393939"/><path d="M239.88358,192.92162l0.05322,0.3581l-0.12246,0.40365c0,0 -0.03663,0.90572 -0.00709,1.25406c0.03634,0.42862 0.07247,0.8899 0.25882,1.87874c-0.00844,1.07161 -0.67819,2.5258 -0.67819,2.5258c0,0 -0.65904,0.1198 -1.66393,-0.45983c-3.39547,-1.95855 -3.26746,-4.14597 -3.26746,-4.14597c0,0 0.10776,-1.05106 0.35308,-1.56049c0.24531,-0.50944 0.64776,-0.83447 0.93201,-1.10829c0.28423,-0.27383 0.78968,-0.37071 0.78968,-0.37071c0,0 -0.14699,-0.02731 0.05798,-0.29332c0.0468,-0.06072 0.32481,-0.16026 0.32481,-0.16026l-0.14747,-0.12476l0.36552,-0.6226l2.70852,1.36785z" fill="#f01a40"/><path d="M239.83817,188.61454c0.80402,0.36177 1.42649,1.42575 1.34484,1.71282c-0.08168,0.28706 -0.70958,0.58735 -0.70958,0.58735c0,0 -0.05581,0.80944 -0.38846,0.90787c-0.49588,0.14673 -0.8353,0.11765 -1.88173,-0.21752c-0.55326,-0.2492 -0.79176,-0.75466 -1.02403,-1.11988c-0.28433,-0.44705 0.16136,-0.40019 0.2419,-0.72944c0.08054,-0.32925 0.05565,0.23689 0.09498,-0.64769c0.02818,-0.63362 1.92623,-0.67163 2.32207,-0.49352z" fill="#ffffff"/><path d="M239.1084,192.76013c-0.00732,0.05926 -0.09092,0.65782 -0.09092,0.65782c0,0 0.54312,2.70238 0.42757,3.51207c-0.14231,0.99725 -0.62152,2.39814 -0.62152,2.39814c0,0 -0.50573,-0.1151 -0.7433,-0.21076c-0.24443,-0.09842 -1.20264,-0.73351 -1.20264,-0.73351c0,0 0.8443,-2.55717 0.92895,-2.99828c0.13884,-1.17069 0.11036,-2.21204 0.11036,-2.21204l0.04054,-0.34296l-0.13642,-0.37647l0.2475,-0.95742l1.38798,0.42134c0,0 -0.30919,0.52694 -0.34812,0.84205z" fill="#ffffff"/></g><path d="M238.15298,189.31781c0.10105,-0.37097 0.6933,-0.5327 1.32283,-0.36122c0.62953,0.17149 1.05795,0.61124 0.9569,0.98221c-0.10105,0.37097 -0.6933,0.53269 -1.32283,0.36121c-0.62953,-0.17149 -1.05794,-0.61123 -0.95689,-0.9822z" fill="#afafaf"/></g><path d="M238.45607,177.17997l0.94772,0.37052c0,0 0.09834,0.80919 -0.03773,1.14138c-0.12834,0.31332 -0.83343,0.79847 -0.83343,0.79847z" data-paper-data="{&quot;index&quot;:null}" fill="#f25c76" stroke="none" stroke-width="0" stroke-linecap="butt" stroke-linejoin="miter"/><path d="M240.55061,184.55183l-0.72835,4.07601l-0.35244,1.77376c0,0 -0.54565,-0.13911 -0.78041,-0.28043c-0.23475,-0.14131 -0.5016,-0.49127 -0.5016,-0.49127l0.28256,-1.32277l0.74667,-3.70232z" data-paper-data="{&quot;index&quot;:null}" fill="#f79db4" stroke="none" stroke-width="0" stroke-linecap="butt" stroke-linejoin="miter"/><path d="M245.99377,182.15357c0,0 -1.65616,4.09746 -6.24764,3.99094c-4.73031,-0.02449 -5.98864,-3.85694 -5.98864,-3.85694l1.09315,-0.24746c0,0 0.52027,3.04675 5.28498,2.88744c4.12629,-0.13797 4.67202,-3.06609 4.67202,-3.06609z" data-paper-data="{&quot;index&quot;:null}" fill="#ffffff" stroke="none" stroke-width="0" stroke-linecap="butt" stroke-linejoin="miter"/><path d="M241.87373,178.54318c0.10973,0.65348 -0.12852,2.21952 -0.12852,2.21952l0.32623,0.1583l0.04716,0.15691l2.79502,0.80497c0,0 -0.33013,1.11164 -1.1641,1.79467c-1.29755,1.0627 -2.4097,1.5544 -4.10856,1.4095c-1.85978,-0.15863 -2.34016,-0.43403 -3.54156,-1.22701c-1.30374,-0.86052 -1.28245,-1.79128 -1.28245,-1.79128l1.39789,-0.45591l0.62958,-0.28818l0.07511,-0.16357l1.45459,-0.71556l0.16418,-1.05864c0,0 0.51527,-0.30891 0.69141,-0.79854c0.13954,-0.38788 0.12879,-1.13997 0.12879,-1.13997l1.19241,-0.34653l0.36739,0.0378c0,0 0.85724,0.81864 0.95546,1.40353z" data-paper-data="{&quot;index&quot;:null}" fill="#f01a40" stroke="none" stroke-width="0" stroke-linecap="butt" stroke-linejoin="miter"/><path d="M238.12423,176.92194c0,0 1.08912,0.18954 1.59781,0.20559c0.50868,0.01604 1.29821,-0.11422 1.29821,-0.11422c0,0 -0.0364,0.72955 -1.34815,0.70811c-1.41028,-0.02305 -1.54787,-0.79949 -1.54787,-0.79949z" data-paper-data="{&quot;index&quot;:null}" fill="#afafaf" stroke="none" stroke-width="0" stroke-linecap="butt" stroke-linejoin="miter"/><g data-paper-data="{&quot;index&quot;:null}" stroke-linecap="butt" stroke-linejoin="miter"><path d="M256.9007,181.92481l-9.06674,0.55792c0,0 -1.51149,-2.50507 -0.19229,-3.98072c1.25023,-1.3985 2.48942,-2.16501 4.47999,-2.39412c5.18402,-0.59668 5.76938,4.03922 5.76938,4.03922z" fill="#fbdd00" stroke="none" stroke-width="0"/><path d="M256.83055,180.19317c-0.18054,-0.42361 -0.58435,-0.8209 -0.55569,-1.03048c0.05761,-0.42153 0.26212,-0.11547 0.72401,0.58654c0.21537,0.32734 0.44518,1.26236 0.44518,1.26236l-0.26645,0.45787c0,0 -0.07725,-0.64328 -0.34705,-1.27629z" fill="#a58c48" stroke="#000000" stroke-width="0"/><path d="M254.17536,177.7178c0.01654,0.18747 -1.05949,-0.08769 -1.95277,-0.00893c-0.89329,0.07876 -2.25988,0.93017 -2.34981,0.50904c-0.09849,-0.46117 1.37711,-0.87928 2.26763,-0.98476c1.32905,-0.15742 2.01842,0.29718 2.03495,0.48466z" fill="#a58c48" stroke="#000000" stroke-width="0"/><path d="M247.50282,181.46552c0,0 -0.02265,-0.6156 0.10371,-1.04191c0.11346,-0.38274 0.46698,-0.43127 0.53537,-0.38284c0.19434,0.13763 -0.16429,0.45131 -0.28419,0.88031c-0.12953,0.46348 -0.12351,0.88626 -0.12351,0.88626z" fill="#a58c48" stroke="#000000" stroke-width="0"/><path d="M252.52882,183.23598c3.57733,-0.21948 4.6956,1.70925 4.6956,1.70925c0,0 0.03308,-0.21803 0.08614,0.37595c0.05306,0.59399 -0.02193,0.31241 -0.02193,0.31241c0,0 -1.51778,-1.56442 -3.70582,-1.80635c-3.4821,-0.38501 -5.47183,2.25332 -5.47183,2.25332l0.02982,-0.59404c0,0 1.83855,-2.09415 4.38801,-2.25056z" fill="#edeee6" stroke="none" stroke-width="0"/><path d="M247.65305,182.08512c0,0 1.72902,-3.04913 4.55642,-3.1102c3.58319,-0.0774 4.85221,2.64263 4.85221,2.64263l-0.16028,0.30054c0,0 -1.49882,-1.83082 -3.65022,-2.12301c-3.42376,-0.46496 -5.44574,2.6571 -5.44574,2.6571l-0.15239,-0.36704z" fill="#edeee6" stroke="none" stroke-width="0"/><path d="M252.19046,179.39347c3.59273,-0.22083 4.8304,2.79266 4.8304,2.79266c0,0 0.20316,0.92264 0.25623,1.51662c0.05306,0.59399 0.01576,1.528 0.01576,1.528c0,0 -1.52368,-1.56389 -3.72101,-1.80501c-3.49685,-0.38372 -5.49609,2.25545 -5.49609,2.25545l-0.29729,-3.32066c0,0 1.85158,-2.80968 4.41201,-2.96706z" fill="#ff1a07" stroke="none" stroke-width="0"/><path d="M249.9707,180.24176c0,0 1.24365,-0.76686 2.13768,-0.85428c0.89405,-0.08742 2.10264,0.5609 2.10264,0.5609l0.28171,3.19491c0,0 -1.45618,-0.19358 -2.1448,-0.13286c-0.70858,0.06249 -2.1284,0.50964 -2.1284,0.50964z" fill="#ff1808" stroke="#000000" stroke-width="0"/><path d="M257.24237,185.11445c0,0 -0.35181,-0.54118 -0.64546,-0.81997c-0.29365,-0.2788 -0.84796,-0.59787 -0.84796,-0.59787l-0.30227,-2.97175c0,0 0.72494,0.30409 1.07667,0.72766c0.35172,0.42357 0.57137,1.07461 0.58936,1.27866c0.04763,0.54039 0.12963,2.38326 0.12963,2.38326z" fill="#ff1808" stroke="#000000" stroke-width="0"/><path d="M248.19205,185.63071c0,0 -0.29983,-2.61471 -0.24352,-3.21841c0.04122,-0.44198 0.93095,-1.30963 0.93095,-1.30963l0.27642,3.13502c0,0 -0.28622,0.34193 -0.44833,0.57624c-0.16213,0.23432 -0.51552,0.81677 -0.51552,0.81677z" fill="#ff1808" stroke="#000000" stroke-width="0"/><path d="M251.16131,186.81776c-1.33441,0.11768 -3.78391,2.0833 -3.78391,2.0833c0,0 -0.29971,-0.73043 -0.07346,-1.58838c0.35397,-1.34226 1.52305,-3.10919 4.55881,-3.49477c5.78908,-0.73529 6.80826,4.41046 6.80826,4.41046c0,0 -6.17528,-1.52824 -7.50969,-1.41059z" fill="#fbdd00" stroke="none" stroke-width="0"/><path d="M252.54871,184.60259c-0.69478,0.06126 -2.35479,0.52915 -2.24938,0.27883c0.15596,-0.37036 1.4708,-0.71542 2.16717,-0.75453c1.25741,-0.07061 2.10336,0.34737 2.11307,0.45765c0.00972,0.11028 -1.13643,-0.06078 -2.03088,0.01807z" fill="#a58c48" stroke="#000000" stroke-width="0"/><path d="M256.40368,185.18838c-0.15244,-0.40646 1.11818,0.58561 1.11818,0.58561l0.30536,0.49629c0,0 -1.32572,-0.82106 -1.42354,-1.0819z" fill="#a58c48" stroke="#000000" stroke-width="0"/><path d="M248.88155,185.69062c0.03306,0.37496 -1.48625,1.52555 -1.48625,1.52555l0.27534,-0.78787c0,0 1.17783,-1.11263 1.21089,-0.73767z" fill="#a58c48" stroke="#000000" stroke-width="0"/><path d="M253.65343,192.17119c-3.21774,0.24346 -6.0934,-0.92755 -6.30495,-3.32687c-0.1517,-1.72039 2.6719,-3.2541 5.53022,-3.46588c2.73811,-0.20286 5.61189,1.11193 5.76358,2.83233c0.15168,1.72039 -2.25329,3.72805 -4.99106,3.9352z" fill="#fbdd00" stroke="#000000" stroke-width="0.25"/><path d="M257.55899,190.00301c0.09139,1.03665 -1.81027,2.05123 -4.24749,2.26612c-2.43723,0.21489 -4.48709,-0.45126 -4.57849,-1.48792c-0.0914,-1.03665 1.81028,-2.05122 4.2475,-2.26611c2.43722,-0.21489 4.48707,0.45125 4.57847,1.48791z" fill="#fbdd00" stroke="#000000" stroke-width="0.25"/><path d="M245.99342,185.92316l-4.12187,0.64029l-6.98666,1.05776c0,0 -0.48541,-0.26063 -0.51703,-0.4913c-0.0316,-0.23067 0.20757,-0.79527 0.20757,-0.79527l6.87209,-1.45763l4.19801,-0.94542c0,0 -0.05862,0.64262 0.01149,1.04399c0.0701,0.40137 0.33638,0.94759 0.33638,0.94759z" fill="#fbdd00" stroke="none" stroke-width="0"/><path d="M248.07601,185.87384c0,0 -1.80798,0.28758 -1.90107,0.22997c-0.35341,-0.21868 -0.73631,-1.90216 -0.47511,-2.42562c0.15421,-0.30909 2.63252,-0.84241 2.63252,-0.84241l-0.0397,2.7503z" fill="#c8c8c6" stroke="none" stroke-width="0"/><path d="M257.83348,179.95095c0,0 -0.34595,-2.39046 -2.60151,-3.41231c-0.54714,-0.24787 -1.36343,-0.31874 -2.13325,-0.36689c-1.14442,-0.07156 -2.48043,0.14314 -3.48158,0.73093c-1.23698,0.72626 -2.14587,1.96419 -2.14587,1.96419c0,0 1.68148,-3.37213 5.031,-3.23526c4.9643,0.20286 5.33123,4.31934 5.33123,4.31934z" fill="#fbdd00" stroke="#000000" stroke-width="0.25"/><path d="M234.88487,187.62121c0,0 -0.48541,-0.26063 -0.51703,-0.4913c-0.0316,-0.23067 0.20756,-0.79527 0.20756,-0.79527l2.94615,-0.64034c0,0 0.14141,0.30299 0.21152,0.70436c0.07011,0.40137 0.04645,0.78918 0.04645,0.78918z" fill="#a56402" stroke="none" stroke-width="0"/></g><path d="M240.75751,184.49463c0,0 0.86775,1.20612 1.27574,1.99429c0.065,0.12557 -0.12057,1.20676 -0.27528,1.67659c-0.0845,0.25661 -0.23883,0.73573 -0.69146,0.77012c-0.11539,0.00876 -0.62822,-0.22669 -0.62822,-0.22669l-0.32684,0.291c0,0 -0.25995,0.01907 -0.40117,-0.05144c-0.14121,-0.07051 -0.33335,-0.29302 -0.33335,-0.29302c0,0 -0.17788,0.02107 -0.29964,0.06158c-0.39742,0.13225 -0.55348,-0.22818 -0.55348,-0.22818c0,0 -0.27731,0.12894 -0.49535,0.08936c-0.34566,-0.06274 -0.70929,-0.32841 -0.84909,-0.52881c-0.23748,-0.3404 -0.65705,-1.41872 -0.3976,-1.70523c0.40407,-0.44624 0.89187,0.11224 0.89187,0.11224c0,0 -0.11954,-0.61694 0.00985,-0.97464c0.19922,-0.5508 0.52431,-0.74666 0.52431,-0.74666l2.54974,-0.24051z" data-paper-data="{&quot;index&quot;:null}" fill="#ffffff" stroke="none" stroke-width="0" stroke-linecap="butt" stroke-linejoin="miter"/><path d="M239.01254,182.60556c0.55298,-0.2055 1.86512,0.07682 2.12077,0.47196c0.25564,0.39514 0.51549,1.41453 -0.00013,1.70115c-1.88354,1.04704 -2.91745,0.31771 -3.37142,-0.5491c-0.29651,-0.56615 -0.30674,-1.04519 1.25078,-1.624z" data-paper-data="{&quot;index&quot;:null}" fill="#fed000" stroke="none" stroke-width="0" stroke-linecap="butt" stroke-linejoin="miter"/><path d="M239.22137,182.97212c0.53914,-0.07771 1.0069,0.07223 1.04475,0.3349c0.03785,0.26267 -0.36851,0.5386 -0.90766,0.6163c-0.53916,0.07771 -1.00692,-0.07222 -1.04477,-0.33489c-0.03785,-0.26267 0.36852,-0.53861 0.90767,-0.61631z" data-paper-data="{&quot;index&quot;:null}" fill="#c28830" stroke="none" stroke-width="0" stroke-linecap="butt" stroke-linejoin="miter"/><path d="M238.75092,177.96105c0.40256,1.11199 0.67398,2.465 0.81606,3.36566c0.20314,1.28768 0.42185,2.42862 0.42185,2.42862c0,0 -0.46483,0.28186 -0.78217,0.21402c-0.31735,-0.06784 -0.42666,-0.04817 -0.42666,-0.04817c0,0 -0.24608,-2.03895 -0.32804,-2.55844c-0.13443,-0.85212 -0.349,-1.92508 -0.61995,-3.14658c-0.06788,-0.30607 0.0525,-0.51906 0.36179,-0.60105c0.2078,-0.05508 0.42383,-0.02227 0.55712,0.34595z" data-paper-data="{&quot;index&quot;:null}" fill="#fed5c7" stroke="none" stroke-width="0" stroke-linecap="butt" stroke-linejoin="miter"/><g data-paper-data="{&quot;index&quot;:null}"><path d="M240.18252,171.0737c0,0 -1.04214,-0.84173 -1.99504,-0.53519c-1.54021,0.49549 -1.18672,2.52077 -1.18672,2.52077c0,0 -0.39072,-1.34372 0.3,-2.12111c0.45597,-0.5132 0.76911,-0.71111 1.47414,-0.63c0.79002,0.09088 1.40761,0.76552 1.40761,0.76552z" fill="#000000" stroke="none" stroke-width="0" stroke-linecap="butt" stroke-linejoin="miter"/><path d="M239.09342,166.15401c3.33819,0 6.04431,2.33386 6.04431,5.21281c0,2.87896 -2.70613,5.2128 -6.04431,5.2128c-3.33818,0 -6.0443,-2.33385 -6.0443,-5.2128c0,-2.87896 2.70612,-5.21282 6.0443,-5.21282z" fill="#f79eb4" stroke="none" stroke-width="0" stroke-linecap="butt" stroke-linejoin="miter"/><path d="M244.93798,173.11249c0.00627,-0.01611 0.03611,1.04439 -0.71892,2.38834c-1.21074,2.16933 -2.69053,2.22704 -2.69053,2.22704l0.28262,-0.91116c0,0 1.55213,-1.72427 1.9589,-2.37171c0.40676,-0.64744 0.6043,-1.81547 0.60411,-1.81476" fill="#f79eb4" stroke="#f89db5" stroke-width="0" stroke-linecap="butt" stroke-linejoin="round"/><g fill="#ffd5c5" stroke="none" stroke-width="1" stroke-linecap="round" stroke-linejoin="round"><path d="M243.45166,175.0255c0.11769,0.53465 -0.33959,0.99511 -0.73513,1.30295c-0.06472,0.05035 -0.57188,0.44252 -1.40543,0.72159c-1.04591,0.35015 -2.42657,0.15208 -2.82313,0.10525c-0.47293,-0.0559 -1.31465,-0.58396 -1.44795,-0.72743c-0.95936,-1.0326 -0.24093,-1.53174 -0.13962,-1.61022c0.04832,-0.03741 0.31888,-0.13842 0.63715,-0.0301c0.31022,0.10558 1.15869,0.57476 1.45072,0.56231c0.31377,-0.01337 2.05895,-0.60361 2.96625,-0.60243c0.18856,0.00223 0.43678,0.06523 0.58844,0.18388c0.19737,0.15447 0.49285,0.45028 0.75847,0.1947c0.04298,-0.0414 0.13736,-0.15879 0.15022,-0.10052z"/><path d=""/></g><g fill="#000000" stroke="#000000" stroke-width="0.125" stroke-linecap="butt" stroke-linejoin="round"><path d="M244.38535,173.30624c0.06242,-0.02085 0.35865,0.00962 0.799,-0.09365c0.27714,-0.07579 0.55378,-0.15415 0.82216,-0.25642c0.16067,-0.06127 0.30714,-0.16655 0.46915,-0.22066c0.00551,-0.00185 -0.34397,0.21364 -0.44996,0.26442c-0.33221,0.1592 -0.63222,0.26825 -0.9856,0.37014c-0.07759,0.02239 -0.71155,0.12907 -0.70803,0.10451"/><path d="M244.51628,172.76981c0.02558,0.02546 0.35692,0.03786 0.77433,-0.149c0.4174,-0.18686 0.99582,-0.54894 1.01418,-0.58572c0.00692,-0.01388 -0.63433,0.5123 -0.9297,0.67201c-0.29537,0.15971 -0.91388,0.29905 -0.91062,0.27614"/></g><g fill="#000000" stroke="none" stroke-width="1" stroke-linecap="round" stroke-linejoin="round"><path d="M241.78949,175.0386c0.14923,-0.10805 0.67827,-0.04953 0.76951,0.01737c0.15784,0.11573 -0.2206,0.36249 -0.33055,0.35514c-0.23909,-0.03554 -0.6353,-0.23033 -0.43896,-0.37251z"/><path d=""/></g><path d="M236.82644,172.33965c0.02047,-0.05301 -0.09977,1.8957 -0.07803,2.77616c0.04097,1.65803 0.42394,2.68636 0.42394,2.68636c0,0 -0.35774,-0.23441 -0.44345,-0.30592c-0.2648,-0.22085 -0.49846,-0.43966 -0.72366,-0.70465c-0.52966,-0.6233 -0.88739,-1.37012 -1.10908,-2.1546c-0.14774,-0.52281 -0.30777,-2.81216 -0.28494,-2.82591" fill="#f79eb4" stroke="#f89db5" stroke-width="0" stroke-linecap="butt" stroke-linejoin="round"/><path d="M234.51657,171.77961c-0.01464,0.01464 0.28029,2.81548 0.42676,3.59368c0.14646,0.7782 0.61363,1.93401 0.61363,1.93401c0,0 -0.41128,-0.06345 -0.97324,-0.69448c-0.4962,-0.55721 -0.77538,-0.83955 -1.05988,-1.88672c-0.36917,-1.35883 -0.47186,-3.22519 -0.29214,-3.58465" fill="#f79eb4" stroke="#f89db5" stroke-width="0" stroke-linecap="butt" stroke-linejoin="round"/><g fill="#ee1a40" stroke="none" stroke-width="1" stroke-linecap="round" stroke-linejoin="round"><path d="M242.86251,168.64848c-0.0866,-0.05592 -2.2936,-1.44681 -3.87859,-1.17164c-1.24924,0.21687 -1.90847,0.73513 -3.04667,1.62756c-0.8778,0.68823 -1.42094,2.25749 -1.45484,2.26644c-0.00243,0.00064 0.33378,-4.10309 3.7273,-4.70804c2.74553,-0.45776 4.95521,1.33186 5.04726,1.44986"/><path d=""/></g><path d="M243.13969,169.75011c-0.0227,0.01843 0.70164,-0.35762 2.48397,0.07795c0.31763,0.07944 1.40459,0.66362 1.66952,1.41004c0.32256,0.67883 0.55476,1.77066 0.53858,1.76901c-0.02322,-0.00244 -1.23958,-1.04751 -2.27898,-1.44291c-0.56753,-0.2159 -2.18293,-0.69335 -2.21281,-0.6691" fill="#f79eb4" stroke="#f89db5" stroke-width="0" stroke-linecap="butt" stroke-linejoin="round"/><path d="M242.29225,169.78799c0.00908,-0.08308 1.13274,-1.05192 1.41376,-1.30512c0.28102,-0.2532 1.28652,-0.32228 1.89105,-0.35373c2.05717,0.09193 2.99956,1.00992 2.99956,1.00992c0,0 -2.02453,0.06246 -2.77279,0.20334c-1.03812,0.19546 -2.57166,0.32664 -2.6756,0.41011" fill="#f79eb4" stroke="#f89db5" stroke-width="0" stroke-linecap="butt" stroke-linejoin="round"/><g stroke="none" stroke-width="1" stroke-linecap="round" stroke-linejoin="round"><g fill="#f79eb4"><path d="M235.70009,169.61097c-0.02251,-0.35882 -0.18813,-0.97796 -0.19076,-1.65428c-0.00262,-0.67632 0.05523,-1.54383 0.17765,-1.71819c0.16004,-0.22796 0.92717,-0.00727 1.70972,0.36284c0.78255,0.37013 1.75052,1.14255 1.7949,1.29471"/></g><g fill="#ffd5c5"><path d="M236.26749,169.18149c-0.01053,-0.08486 -0.1264,-0.47814 -0.14119,-0.97843c-0.0148,-0.50029 0.05438,-1.25413 0.07443,-1.27986c0.08129,-0.10431 0.93758,0.18041 1.36123,0.38916c0.42366,0.20875 0.84779,0.58793 0.9475,0.74847"/></g></g><g fill="#f79eb4" stroke="none" stroke-width="1" stroke-linecap="round" stroke-linejoin="round"><path d="M242.66455,167.35959c0.29499,-0.08839 0.608,-0.15809 1.27228,-0.20333c0.66427,-0.04524 1.49038,-0.11186 1.69966,0.00089c0.04286,0.02311 0.15973,0.66751 0.07343,1.16967c-0.13469,0.78385 -0.59558,1.61249 -0.60409,1.62533"/><path d=""/></g><path d="M241.45464,173.20568c0.41372,0.60664 0.61215,0.59671 0.80863,0.61427c0.33707,0.03013 0.7176,-0.2714 1.00158,-0.63715c0.40601,-0.5229 0.78897,-1.4542 1.23813,-1.45808c0.06807,-0.00059 0.11454,0.84119 -0.04066,1.41753c-0.32914,1.22225 -1.15546,2.08352 -1.30206,2.08886c-0.58573,0.02133 -0.41306,-0.51203 -1.60028,-0.45107c-0.6762,0.03473 -2.21533,0.77096 -2.8683,0.57727c-1.27143,-0.58991 -1.59567,-1.66258 -1.6902,-2.37548c-0.28408,-2.14228 1.02378,-2.72666 1.46832,-2.67571c2.04647,0.23452 2.33585,1.94796 2.98484,2.89957z" fill="#ffffff" stroke="none" stroke-width="0" stroke-linecap="butt" stroke-linejoin="miter"/><path d="M243.27684,170.98496c-0.04066,-0.02975 0.82851,-0.14803 1.68834,0.35047c0.24701,0.14321 0.64694,1.32251 0.62986,1.47257c0.0252,0.60993 -0.6932,2.38103 -0.6916,2.37988c0.03485,-0.02475 0.104,-1.14772 -0.55231,-2.0032c-0.22239,-0.28642 -0.95251,-1.18409 -1.06757,-1.26838" fill="#f79eb4" stroke="#f89db5" stroke-width="0" stroke-linecap="butt" stroke-linejoin="round"/><g fill="#000000" stroke="#000000" stroke-width="0.125" stroke-linecap="butt" stroke-linejoin="round"><path d="M237.22038,171.18233c-0.02443,0.03602 -0.17767,0.04892 -0.36822,-0.0353c-1.2234,-0.54065 -1.37931,-0.92237 -1.37931,-0.92237c0,0 0.41695,0.51644 1.28479,0.7476c0.169,0.04501 0.39449,0.06642 0.44337,0.0638c0.04663,-0.0025 0.08706,-0.03774 0.13643,-0.01964"/><path d="M236.94933,171.97584c0,0 -0.0365,0.04303 -0.16777,0.08602c-0.24342,0.07973 -0.86342,0.07606 -1.15066,0.03326c-0.68491,-0.10208 -1.06852,-0.33041 -1.06852,-0.33041c0,0 0.77457,0.22285 1.02076,0.26251c0.74294,0.11548 1.23233,-0.17059 1.29821,-0.21882c0.02904,-0.02124 0.08987,-0.08021 0.12357,-0.08405"/></g><g stroke="none" stroke-linecap="butt" stroke-linejoin="miter"><path d="M240.05348,172.35856c0.23265,0.01501 0.38365,0.61015 0.33726,1.32928c-0.0464,0.71912 -0.27263,1.28991 -0.50528,1.27491c-0.23265,-0.01501 -0.38364,-0.61014 -0.33725,-1.32927c0.04639,-0.71913 0.27262,-1.28992 0.50527,-1.27492z" fill="#169c5b" stroke-width="NaN"/><path d="M240.00057,173.27808c0.10223,0.00659 0.16938,0.25544 0.15001,0.5558c-0.01936,0.30037 -0.11795,0.53853 -0.22018,0.53193c-0.10223,-0.00659 -0.16938,-0.25544 -0.15001,-0.5558c0.01936,-0.30037 0.11795,-0.53853 0.22018,-0.53193z" fill="#000000" stroke-width="0"/><path d="M239.90103,173.13199c0.01961,-0.30389 0.13552,-0.54379 0.2589,-0.53583c0.12337,0.00796 0.2075,0.26076 0.18789,0.56466c-0.01961,0.3039 -0.13552,0.54379 -0.2589,0.53583c-0.12337,-0.00796 -0.2075,-0.26075 -0.18789,-0.56465z" fill="#ffffff" stroke-width="0"/></g><g stroke="none" stroke-linecap="butt" stroke-linejoin="miter"><path d="M242.96501,174.12119c0.03272,-0.50723 0.19227,-0.90982 0.35638,-0.89924c0.1641,0.01058 0.27059,0.43035 0.23788,0.93758c-0.03273,0.50723 -0.19228,0.90983 -0.35639,0.89925c-0.1641,-0.01058 -0.27058,-0.43035 -0.23787,-0.93758z" fill="#169c5b" stroke-width="NaN"/><path d="M243.12877,174.24571c0.01367,-0.21186 0.08319,-0.37983 0.1553,-0.37517c0.07212,0.00465 0.1195,0.18016 0.10582,0.39202c-0.01368,0.21186 -0.0832,0.37984 -0.15531,0.37518c-0.07212,-0.00466 -0.1195,-0.18017 -0.10582,-0.39203z" fill="#000000" stroke-width="0"/><path d="M243.39648,173.38953c0.08703,0.00562 0.14635,0.18393 0.13253,0.39828c-0.01384,0.21434 -0.09559,0.38355 -0.18262,0.37793c-0.08702,-0.00562 -0.14634,-0.18391 -0.13252,-0.39826c0.01384,-0.21434 0.09558,-0.38357 0.18261,-0.37795z" fill="#ffffff" stroke-width="0"/></g></g><path d="M237.70125,176.26431c0,0 0.14712,-0.07048 0.46449,-0.06254c0.31737,0.00793 0.8067,0.06254 0.8067,0.06254" data-paper-data="{&quot;index&quot;:null}" fill="none" stroke="#000000" stroke-width="0.125" stroke-linecap="round" stroke-linejoin="miter"/></g></g></svg>