<svg version="1.1" xmlns="http://www.w3.org/2000/svg" xmlns:xlink="http://www.w3.org/1999/xlink" width="183.35444" height="35.49861" viewBox="0,0,183.35444,35.49861"><g transform="translate(-120.40929,-160.7779)"><g data-paper-data="{&quot;isPaintingLayer&quot;:true}" fill-rule="nonzero" stroke="none" stroke-linecap="butt" stroke-linejoin="miter" stroke-miterlimit="10" stroke-dasharray="" stroke-dashoffset="0" style="mix-blend-mode: normal"><path d="M181.2884,191.75337c-0.94659,-0.19923 -1.70385,-0.39849 -2.27179,-0.59773l1.1359,-5.97724l3.4077,0.29886c2.65043,0.19923 4.73292,0.19923 6.24746,0c0.75726,-0.39849 1.1359,-0.99621 1.1359,-1.79318c-0.18931,-0.79697 -1.89315,-1.19545 -5.11154,-1.19545c-2.83975,-0.39849 -4.82758,-1.49432 -5.96348,-3.28749c-0.56794,-1.39469 -0.85193,-2.98863 -0.85193,-4.78181c0,-2.78939 0.94658,-4.88141 2.83975,-6.2761c1.32521,-0.99621 3.69167,-1.49432 7.09937,-1.49432c3.40769,0 6.8154,0.29887 10.22309,0.8966l-1.1359,5.67838c-3.97564,-0.19923 -6.72072,-0.29886 -8.23526,-0.29886c-1.32521,0.19923 -1.98783,0.69734 -1.98783,1.4943c-0.18931,1.39469 0.85193,2.09204 3.12373,2.09204c3.21839,0 5.58482,0.59772 7.09937,1.79317c1.1359,0.99621 1.70385,2.68975 1.70385,5.08066c0,2.07212 -0.47328,3.8653 -1.41987,5.37953c-0.94658,1.79318 -3.31303,2.889 -7.09937,3.28749c-3.21839,0.19923 -6.53143,0.09963 -9.93912,-0.29886z" fill="#ff0000" stroke-width="0.26459"/><path d="M209.40191,191.75337v-17.33404h-6.8154v-7.77042h21.58209v7.77042h-6.81539v17.33404z" fill="#ff0000" stroke-width="0.26459"/><path d="M227.00836,179.50004c0,-3.98484 1.1359,-7.12289 3.40769,-9.41416c2.27179,-2.29128 5.39552,-3.43693 9.37117,-3.43693c3.97564,0 7.09937,1.14564 9.37118,3.43693c2.27179,2.29128 3.40769,5.42933 3.40769,9.41416c0,3.38711 -1.1359,6.37573 -3.40769,8.96587c-2.27179,2.59014 -5.39552,3.88522 -9.37118,3.88522c-3.97564,0 -7.09937,-1.29509 -9.37117,-3.88522c-2.27179,-2.59014 -3.40769,-5.57876 -3.40769,-8.96587zM239.50325,174.41936c-1.89316,1.19546 -3.31304,2.49053 -4.25963,3.88522c-0.94658,1.19545 -1.1359,2.68975 -0.56794,4.48293l0.56794,0.59772c0.94658,1.39468 2.55578,1.79317 4.82757,1.19545c1.89316,-1.19545 3.31303,-2.49052 4.25962,-3.8852c1.1359,-1.59394 1.1359,-3.38711 0,-5.37953l-0.56795,-0.59772c-1.1359,-0.79697 -2.55576,-0.8966 -4.25961,-0.29887z" fill="#ff0000" stroke-width="0.26459"/><path d="M255.40584,191.75337v-25.10446h13.91476c5.67949,0 8.51923,2.19167 8.51923,6.57498v1.19545c0,3.18786 -1.23055,5.27991 -3.69167,6.27613c0.75726,0.39849 1.51454,1.29507 2.27179,2.68975l2.2718,8.36816h-8.51924l-1.70385,-6.87385c-0.37864,-1.79318 -1.41987,-2.68977 -3.12372,-2.68977h-1.70385v9.56361zM267.04881,176.81022c1.51454,0 2.27179,-0.79697 2.27179,-2.3909v-1.19545c0,-1.19546 -0.75726,-1.79317 -2.27179,-1.79317h-3.40769v5.37952z" fill="#ff0000" stroke-width="0.26459"/><path d="M288.34691,180.39661l-6.81539,-13.74767h7.9513l2.83973,8.66702l2.83976,-8.66702h7.95129l-6.81539,13.74767v11.3568h-7.9513z" fill="#ff0000" stroke-width="0.26459"/><path d="M185.52843,192.79991c-0.91869,-0.18373 -1.65364,-0.36748 -2.20485,-0.55121l1.10243,-5.51213l3.30728,0.2756c2.57233,0.18373 4.59345,0.18373 6.06336,0c0.73495,-0.36748 1.10243,-0.91869 1.10243,-1.65364c-0.18373,-0.73495 -1.83737,-1.10243 -4.96092,-1.10243c-2.75607,-0.36748 -4.68532,-1.37804 -5.78775,-3.03168c-0.55121,-1.28616 -0.82683,-2.75607 -0.82683,-4.40971c0,-2.57233 0.91869,-4.50157 2.75607,-5.78773c1.28616,-0.91869 3.58289,-1.37804 6.89017,-1.37804c3.30728,0 6.61456,0.27561 9.92184,0.82683l-1.10243,5.23652c-3.85849,-0.18373 -6.52268,-0.2756 -7.99259,-0.2756c-1.28616,0.18373 -1.92925,0.64308 -1.92925,1.37803c-0.18373,1.28616 0.82683,1.92925 3.03168,1.92925c3.12355,0 5.42025,0.55121 6.89016,1.65364c1.10243,0.91869 1.65364,2.48045 1.65364,4.68531c0,1.91088 -0.45933,3.56452 -1.37803,4.96093c-0.91869,1.65364 -3.21541,2.66419 -6.89017,3.03167c-3.12355,0.18373 -6.33896,0.09188 -9.64624,-0.2756z" fill="#71ff33" stroke-width="0.26459"/><path d="M212.81349,192.79991v-15.9852h-6.61457v-7.16577h20.94612v7.16577h-6.61456v15.9852z" fill="#71ff33" stroke-width="0.26459"/><path d="M229.90112,181.50004c0,-3.67476 1.10243,-6.56863 3.30728,-8.68161c2.20485,-2.11299 5.23653,-3.16948 9.09503,-3.16948c3.85849,0 6.89017,1.05649 9.09503,3.16948c2.20485,2.11299 3.30728,5.00685 3.30728,8.68161c0,3.12355 -1.10243,5.87961 -3.30728,8.2682c-2.20485,2.38859 -5.23653,3.58289 -9.09503,3.58289c-3.85849,0 -6.89017,-1.19431 -9.09503,-3.58289c-2.20485,-2.38859 -3.30728,-5.14465 -3.30728,-8.2682zM242.02781,176.81469c-1.83737,1.10243 -3.21541,2.29673 -4.13411,3.58289c-0.91869,1.10243 -1.10243,2.48045 -0.55121,4.13409l0.55121,0.55121c0.91869,1.28616 2.48047,1.65364 4.68532,1.10243c1.83737,-1.10243 3.2154,-2.29672 4.13409,-3.58288c1.10243,-1.46991 1.10243,-3.12355 0,-4.96092l-0.55121,-0.55121c-1.10243,-0.73495 -2.48045,-0.82683 -4.13409,-0.27561z" fill="#71ff33" stroke-width="0.26459"/><path d="M257.46181,192.79991v-23.15097h13.50473c5.51213,0 8.26819,2.02112 8.26819,6.06335v1.10243c0,2.9398 -1.19429,4.86905 -3.58288,5.78775c0.73495,0.36748 1.46991,1.19429 2.20485,2.48045l2.20485,7.717h-8.2682l-1.65364,-6.33896c-0.36748,-1.65364 -1.37803,-2.48047 -3.03167,-2.48047h-1.65364v8.81943zM268.76169,179.01956c1.46991,0 2.20485,-0.73495 2.20485,-2.20485v-1.10243c0,-1.10243 -0.73495,-1.65364 -2.20485,-1.65364h-3.30728v4.96092z" fill="#71ff33" stroke-width="0.26459"/><path d="M289.43217,182.32685l-6.61456,-12.67791h7.71699l2.75605,7.9926l2.75608,-7.9926h7.71699l-6.61456,12.67791v10.47307h-7.71699z" fill="#71ff33" stroke-width="0.26459"/><g stroke-width="0"><path d="M130.23816,196.27651l-9.82887,-26.3685c0,0 8.11779,-2.0515 13.46446,-2.0515c5.34667,0 9.25574,2.56443 9.25574,2.56443l5.62716,24.43113c0,0 -6.31762,-0.20185 -9.54697,-0.01399c-3.54642,0.20631 -8.97153,1.43844 -8.97153,1.43844z" fill="#ff0000"/><path d="M151.45137,194.75162l-5.54817,-24.38403c0,0 6.64354,-1.80665 10.25856,-2.2067c4.56041,-0.50468 8.92203,1.25975 8.92203,1.25975l6.71621,25.56772c0,0 -6.40703,-0.82858 -9.78231,-0.82858c-3.85978,0 -10.56633,0.59184 -10.56633,0.59184z" fill="#ff0000"/><path d="M132.88448,193.41433l-8.80235,-23.61458c0,0 7.26997,-1.83724 12.05823,-1.83724c4.78826,0 8.28907,2.2966 8.28907,2.2966l5.03947,21.87954c0,0 -5.65781,-0.18078 -8.54989,-0.01253c-3.17604,0.18476 -8.03454,1.28821 -8.03454,1.28821z" fill="#71ff33"/><path d="M152.38662,192.0487l-4.96872,-21.83737c0,0 5.77058,-1.61796 9.00805,-1.97624c4.08412,-0.45197 7.99021,1.12818 7.99021,1.12818l6.01477,22.89744c0,0 -5.73788,-0.74205 -8.76064,-0.74205c-3.45666,0 -9.28367,0.53003 -9.28367,0.53003z" fill="#70ff33"/><path d="M142.78242,185.0221l-4.56724,-19.90309l-4.37967,-0.4942l3.62936,-2.25394l2.15272,-1.59297l5.31755,22.65124z" fill="#ff0000"/><path d="M156.7784,172.23015c3.57432,-0.24956 6.19997,-0.30943 6.19997,-0.30943l1.29861,3.06483l-2.78281,-1.50296c0,0 -3.38181,0.21989 -4.64079,0.32044c-4.01889,0.32097 -6.42866,0.28001 -6.42866,0.28001c0,0 2.64775,-1.59414 6.35368,-1.85289z" data-paper-data="{&quot;index&quot;:null}" fill="#ff0000"/><path d="M158.5784,179.03015c3.57432,-0.24956 6.19997,-0.30943 6.19997,-0.30943l1.29861,3.06483l-2.78281,-1.50296c0,0 -3.38181,0.21989 -4.64079,0.32044c-4.01889,0.32097 -6.42866,0.28 -6.42866,0.28c0,0 2.64775,-1.59413 6.35368,-1.85288z" data-paper-data="{&quot;index&quot;:null}" fill="#ff0000"/><path d="M159.9784,186.03015c3.57432,-0.24956 6.19997,-0.30943 6.19997,-0.30943l1.29861,3.06483l-2.78281,-1.50296c0,0 -3.38181,0.21989 -4.64079,0.32044c-4.01889,0.32097 -6.42866,0.28 -6.42866,0.28c0,0 2.64775,-1.59413 6.35368,-1.85288z" data-paper-data="{&quot;index&quot;:null}" fill="#ff0000"/></g></g></g></svg>