<svg version="1.1" xmlns="http://www.w3.org/2000/svg" xmlns:xlink="http://www.w3.org/1999/xlink" width="38" height="31.61914" viewBox="0,0,38,31.61914"><g transform="translate(-225.30893,-163.30537)"><g data-paper-data="{&quot;isPaintingLayer&quot;:true}" fill-rule="nonzero" stroke-linejoin="miter" stroke-miterlimit="10" stroke-dasharray="" stroke-dashoffset="0" style="mix-blend-mode: normal"><g><path d="M247.95609,184.70141l0.82336,0.04832c0,0 1.24751,2.5547 1.6104,3.95418c0.30273,1.16745 0.48555,2.9388 0.47485,3.66027c-0.01849,1.24571 -0.63318,1.01303 -0.63318,1.01303c0,0 0.14839,-3.26538 -0.15211,-4.55705c-0.21419,-0.92088 -2.12332,-4.11874 -2.12332,-4.11874z" fill="#989898" stroke="#989898" stroke-width="0" stroke-linecap="round"/><path d="M246.61743,186.48468c0.12023,-0.5493 0.20664,-0.98214 0.64071,-1.40125c0.61707,-0.59579 1.00881,-0.38529 1.30261,0.05268c0.61816,0.92212 1.22827,2.70016 1.22827,2.70016l-3.04663,1.72279c0,0 -0.30805,-2.23214 -0.12496,-3.07439z" fill="#f82020" stroke="none" stroke-width="1.13968" stroke-linecap="round"/><path d="M249.7389,187.75959c0,0 0.16239,0.11263 0.38483,1.0817c0.22244,0.96907 0.38929,2.26828 0.41512,3.36393c0.00978,0.43931 0.06349,1.1899 -0.28173,1.23222c-0.58771,0.07215 -1.80552,-0.2132 -2.2657,-0.75286c-0.45724,-0.53662 -1.36576,-2.53537 -1.25481,-3.26295c0.21132,-1.2946 3.00231,-1.66203 3.00231,-1.66203z" fill="#f8f8f8" stroke="none" stroke-width="1.15102" stroke-linecap="round"/><path d="M244.7896,186.64462c-0.00622,-0.42855 -0.33252,-1.17992 0.12338,-1.6272c0.51786,-0.50808 0.91741,0.15716 0.91741,0.15716c0,0 0.16742,-0.62285 0.56863,-0.38384c0.38955,0.23206 0.38187,0.51438 0.4236,0.81784c0.07013,0.50991 -0.18586,1.37097 -0.18327,1.54825c0.01288,0.88646 0.28476,2.20208 -0.18027,2.20883c-0.12335,0.00179 -0.7077,-0.22794 -0.7077,-0.22794c0,0 -0.61396,0.49973 -0.80986,0.12224c-0.25413,-0.48971 -0.14657,-2.24753 -0.15191,-2.61534z" fill="#ffffff" stroke="none" stroke-width="0" stroke-linecap="butt"/></g><path d="M244.96856,186.54493c0.2319,0.451 0.0744,1.2097 -0.3455,1.4122c-0.6542,0.3237 -1.5113,0.1313 -2.1297,-0.1995c-0.3795,-0.1978 -0.5472,-0.6966 -0.5726,-1.1504c-0.0465,-0.8117 -0.0631,-1.7152 0.3326,-2.4196c0.1563,-0.2754 0.8034,-0.1828 1.004,0.0852c0.3591,0.4777 -0.0556,1.2983 0.3044,1.7794c0.3061,0.4074 1.1775,0.0537 1.4068,0.4927z" data-paper-data="{&quot;index&quot;:null}" fill="#e88820" stroke="none" stroke-width="0.49091" stroke-linecap="round"/><path d="M236.11777,185.84877c0.12479,-0.48823 0.14243,-1.06591 0.25033,-1.5154c0.54148,-1.32922 0.98706,-0.10883 1.2003,0.55876c0.15115,0.40314 -0.00552,0.90303 -0.10725,1.33273c-0.14354,0.6003 -0.16094,1.4349 -0.63446,1.78205c-0.39664,0.2841 -1.18141,0.22265 -1.33522,-0.23682c-0.20585,-0.61433 0.45809,-1.26088 0.6263,-1.92131z" data-paper-data="{&quot;index&quot;:null}" fill="#f8b820" stroke="none" stroke-width="0.65663" stroke-linecap="round"/><g data-paper-data="{&quot;index&quot;:null}" stroke-linecap="round"><path d="M234.81095,193.14414c-0.64292,-0.20751 -1.23812,-0.57273 -1.6446,-1.00854c-0.32671,-0.38824 -0.8469,-0.81846 -0.7597,-1.22918c0.09668,-0.45565 1.27177,-0.82363 1.219,-0.9324c-0.05242,-0.10747 -1.32948,0.89765 -1.53152,0.6034c-0.2989,-0.43631 0.42867,-1.22177 0.8531,-1.75515c0.15821,-0.18604 0.98477,-0.2121 1.30106,-0.26431c0.13736,-0.02268 -0.54521,-0.38484 -0.42744,-0.42937c0.0786,-0.02972 -0.11025,-0.23257 0.14592,-0.52208c0.14217,-0.16068 1.26725,0.23694 1.26725,0.23694c0,0 -1.12424,-0.60121 -0.80512,-0.9727c0.16202,-0.18862 0.39577,-0.1487 0.5332,-0.15165c0.47702,0.03571 0.23752,-0.02458 1.00309,0.20971c0.76556,0.23428 1.08432,0.36748 1.69571,0.66198c0.61139,0.29451 0.6807,0.28364 0.83724,0.5836c0.11112,0.21335 -0.10964,0.55018 -0.52519,0.55224c-0.42155,0.0021 -0.83946,-0.08449 -0.83946,-0.08449c0,0 0.93458,0.29848 0.65068,0.91341c-0.16532,0.35807 -0.80411,0.22663 -0.83466,0.36409c-0.23215,1.04705 -0.01751,1.91641 -0.72148,2.81404c-0.39929,0.50985 -0.65131,0.65705 -1.41707,0.41047z" fill="#a8c8d8" stroke="none" stroke-width="0.67216"/><path d="M236.93963,189.88581c0,0 -0.74628,-0.10314 -1.31972,-0.40172c-0.57345,-0.29858 -1.46935,-0.94674 -1.46935,-0.94674" fill="none" stroke="#707070" stroke-width="0.25"/></g><path d="M244.75563,185.86915c-0.4128,0.5788 -1.4035,0.324 -2.1109,0.3191c-0.6505,-0.002 -1.3804,0.0879 -1.9391,-0.2455c-0.5572,-0.3333 -0.8365,-1.0387 -1.1291,-1.6445c-0.0766,-0.1414 -0.1369,-0.3294 0.0737,-0.4909c0.8428,-0.6466 1.7849,-1.1758 2.749,-1.62c0.5381,-0.2479 1.22701,-0.30531 1.80481,-0.17571c0.4929,0.1169 1.01881,0.51394 1.09291,0.92624c0.1649,1.1188 0.05568,2.09037 -0.54132,2.93127z" data-paper-data="{&quot;index&quot;:null}" fill="#f8b820" stroke="none" stroke-width="0.49091" stroke-linecap="round"/><path d="M241.08763,186.01966c-0.196,-0.1735 0.571,-0.5313 0.8707,-0.7579c0.2711,-0.2044 0.5036,-0.536 0.8384,-0.5805c0.2279,-0.0223 0.5152,0.2489 0.5533,0.5234c0.0488,0.2817 -0.0492,0.7555 -0.3386,0.8546c-0.6077,0.2072 -1.5932,0.1856 -1.9238,-0.0396z" data-paper-data="{&quot;index&quot;:null}" fill="#f8f8f8" stroke="none" stroke-width="1" stroke-linecap="round"/><path d="M246.62435,187.30928c0.27185,0.428 0.18394,1.19779 -0.21578,1.43765c-0.62215,0.38189 -1.49322,0.26812 -2.13903,-0.00509c-0.39583,-0.16257 -0.60823,-0.64402 -0.67477,-1.09366c-0.12,-0.80412 -0.21863,-1.70235 0.11142,-2.43981c0.13064,-0.28842 0.78346,-0.25506 1.00758,-0.00632c0.40097,0.44302 0.06255,1.29793 0.46482,1.74438c0.3418,0.37787 1.17744,-0.05351 1.44574,0.36285z" data-paper-data="{&quot;index&quot;:null}" fill="#f8b820" stroke="none" stroke-width="0.49091" stroke-linecap="round"/><path d="M239.38923,187.85455c0.1528,-0.4802 0.2872,-0.982 0.3375,-1.4984c0.0663,-0.6803 -0.3086,-1.4804 0,-2.0561c0.1915,-0.3568 0.9365,-0.4419 1.1046,-0.0697c0.3504,0.8085 0.1111,1.8302 0.0614,2.753c-0.0234,0.4266 -0.0583,0.9012 -0.1841,1.3243c-0.1743,0.5771 -0.2436,1.4232 -0.7364,1.7424c-0.4124,0.2607 -1.1923,0.154 -1.3193,-0.3136c-0.17,-0.6252 0.5302,-1.2323 0.7363,-1.8819z" data-paper-data="{&quot;index&quot;:null}" fill="#f8b820" stroke="none" stroke-width="0.65663" stroke-linecap="round"/><path d="M239.63743,185.97054c-0.8146,0.2427 -1.7376,-0.0113 -2.5298,-0.2871c-0.235,-0.1001 -0.35,-0.5054 -0.2086,-0.7135c0.1953,-0.2797 0.6448,-0.232 0.9578,-0.3676c0.716,-0.3096 1.5306,-1.1708 2.0908,-1.0947c0.3583,0.0934 -0.4055,1.0126 -0.2537,1.4337c0.0869,0.2304 1.08988,-0.3896 1.07248,-0.2535c-0.0109,0.3785 -0.65148,1.1406 -1.12898,1.2827z" data-paper-data="{&quot;index&quot;:null}" fill="#f8f8f8" stroke="none" stroke-width="1" stroke-linecap="round"/><g data-paper-data="{&quot;index&quot;:null}" stroke-linecap="round"><path d="M236.42073,193.80773c-0.3385,-0.378 -0.53836,-0.34755 -0.46386,-0.76075c0.24927,-0.79173 0.96802,-1.25129 0.91192,-1.35839c-0.0557,-0.1058 -1.02342,1.82706 -1.62331,0.92805c-0.3122,-0.4269 0.81938,-1.47744 1.22718,-2.02364c0.15241,-0.19083 0.60479,-0.33261 0.91932,-0.39453c0.13661,-0.02689 -0.55681,-0.36786 -0.44046,-0.41601c0.07765,-0.03213 -0.11736,-0.22907 0.12977,-0.52632c0.13715,-0.16497 1.27396,0.19781 1.27396,0.19781c0,0 -1.14222,-0.56629 -0.83469,-0.94744c0.15614,-0.19351 0.39101,-0.16083 0.52828,-0.168c0.4779,0.021 0.23665,-0.03187 1.00907,0.17873c0.77242,0.2106 1.09512,0.33391 1.71529,0.60944c0.62017,0.27553 0.68912,0.26254 0.85482,0.55754c0.11765,0.20983 -0.09265,0.55329 -0.50794,0.56815c-0.4213,0.01507 -0.84166,-0.0586 -0.84166,-0.0586c0,0 0.94333,0.26955 0.67849,0.89294c-0.15421,0.36299 -0.90172,0.39793 -0.92803,0.53625c0.32961,0.99488 0.60815,1.99706 -0.06785,2.91596c-0.3834,0.5219 -1.16017,0.43185 -1.93316,0.20895c-0.649,-0.1876 -1.18744,-0.51703 -1.60715,-0.94013z" fill="#ffffff" stroke="none" stroke-width="0.67216"/><path d="M240.03444,191.51264c0,0 -0.66059,-0.14992 -1.24296,-0.4307c-0.58237,-0.28078 -1.49779,-0.90103 -1.49779,-0.90103" fill="none" stroke="#707070" stroke-width="0.25"/></g><path d="M245.77577,175.14443c0,3.67923 -0.79915,6.36383 -1.15669,7.28335c-0.22267,0.57267 -0.30752,0.07576 -0.30752,0.07576c0,0 0.32063,-0.97151 0.32063,-6.9421c0,-2.00845 -2.15189,-4.30491 -2.3331,-5.04466c-0.19986,-0.81593 2.87875,-0.62371 2.87875,-0.62371c0,0 3.20894,-1.09532 3.11029,0.02077c-0.07905,0.89439 -2.51236,3.52196 -2.51236,5.2306z" data-paper-data="{&quot;index&quot;:null}" fill="#e2a026" stroke="none" stroke-width="0" stroke-linecap="butt"/><path d="M242.55756,175.35294c0,-1.70864 -1.66857,-4.05755 -1.76167,-4.95194c-0.11617,-1.11608 2.1755,-0.29943 2.1755,-0.29943c0,0 3.31872,-0.84244 3.08336,-0.02651c-0.21339,0.73975 -2.15048,3.68642 -2.15048,5.69487c0,5.9706 0.21456,6.84921 0.21456,6.84921c0,0 0.02724,0.49302 -0.26929,-0.21858c-0.40775,-0.9785 -1.29197,-3.5909 -1.29197,-7.04764z" fill="#e2a026" stroke="none" stroke-width="0" stroke-linecap="butt"/><path d="M263.30893,168.48394c0,2.86005 -8.50659,5.17857 -19,5.17857c-10.49341,0 -19,-2.31852 -19,-5.17857c0,-2.86005 8.50659,-5.17857 19,-5.17857c10.49341,0 19,2.31852 19,5.17857z" fill-opacity="0.90196" fill="#e3a127" stroke="none" stroke-width="0" stroke-linecap="butt"/><g><path d="M249.14076,185.49749l0.82464,0.01496c0,0 1.3499,2.50211 1.76914,3.88575c0.34973,1.15424 0.6041,2.91673 0.6226,3.63805c0.03195,1.24543 -0.59166,1.03782 -0.59166,1.03782c0,0 0.0161,-3.26871 -0.33644,-4.54716c-0.2513,-0.91146 -2.28829,-4.02943 -2.28829,-4.02943z" fill="#989898" stroke="#989898" stroke-width="0" stroke-linecap="round"/><path d="M247.87536,187.33348c0.0979,-0.55372 0.16673,-0.9897 0.58346,-1.42604c0.59245,-0.62029 0.99239,-0.42582 1.30367,-0.00008c0.65499,0.89635 1.33655,2.64823 1.33655,2.64823l-2.9744,1.8447c0,0 -0.39814,-2.21783 -0.2493,-3.0668z" fill="#f82020" stroke="none" stroke-width="1.13968" stroke-linecap="round"/><path d="M251.04589,188.481c0,0 0.16682,0.10597 0.4283,1.06524c0.26148,0.95925 0.48079,2.25068 0.55093,3.34438c0.02757,0.43854 0.1116,1.18636 -0.23163,1.24261c-0.58431,0.09588 -1.81268,-0.13994 -2.29432,-0.66055c-0.4786,-0.51766 -1.46726,-2.47802 -1.38585,-3.20949c0.15874,-1.3021 2.93258,-1.78219 2.93258,-1.78219z" fill="#f8f8f8" stroke="none" stroke-width="1.15102" stroke-linecap="round"/><path d="M246.05552,187.5673c-0.02356,-0.42796 -0.38001,-1.16549 0.05741,-1.63085c0.49686,-0.52863 0.92302,0.11989 0.92302,0.11989c0,0 0.14207,-0.62913 0.55263,-0.40654c0.39862,0.21611 0.40237,0.4985 0.45635,0.80002c0.0907,0.50664 -0.13021,1.37736 -0.12046,1.5544c0.04875,0.88522 0.37366,2.18875 -0.09072,2.21433c-0.12319,0.00678 -0.71635,-0.19912 -0.71635,-0.19912c0,0 -0.59322,0.52418 -0.80425,0.15492c-0.27376,-0.47903 -0.23741,-2.23977 -0.25764,-2.60704z" fill="#ffffff" stroke="none" stroke-width="0" stroke-linecap="butt"/></g><path d="M242.48473,172.16672c0.47618,1.42479 0.4,3.15 0.4,3.15c0,0 1.159,3.72333 -0.05,5.68333c-1.029,1.667 -3.651,1.626 -5.6,1.8c-1.574,0.141 -3.742,0.288 -4.65,-0.95c-1.073,-1.465 -0.464,-4.50967 -0.65,-6.31667c-0.069,-0.682 -0.76229,-1.49357 -1.03708,-2.69382c-0.27479,-1.20025 -0.73518,-2.20779 -0.40618,-2.88146c0.146,-0.568 1.49728,0.29608 2.19326,0.84195c0.69598,0.54587 1.75033,1.42 2.43333,1.6c0.8,0.15 0.98833,0.308 1.78333,0.05c0.47,-0.152 3.94949,-3.59979 4.45749,-3.46479c0.603,0.161 0.64966,1.75667 1.12584,3.18146z" data-paper-data="{&quot;index&quot;:null}" fill="#f8b820" stroke="none" stroke-width="1" stroke-linecap="round"/><path d="M233.16123,179.35006c-0.0106,0.621 0.0515,1.319 -0.1765,1.85c-0.1398,0.324 -0.5944,0.61 -0.7059,0.3c-0.3282,-0.913 -0.2887,-2.023 -0.2823,-3.05c-0.0064,-0.564 -0.0149,-1.272 0.2823,-1.65c0.1991,-0.254 0.6544,-0.018 0.7765,0.3c0.2266,0.691 0.1186,1.503 0.1059,2.25z" data-paper-data="{&quot;index&quot;:null}" fill="#ffffff" stroke="none" stroke-width="0.86553" stroke-linecap="round"/><path d="M241.58316,174.65934c-0.11837,0.07265 -1.26277,-0.75934 -2.00088,-1.11208c-0.73811,-0.35274 -1.60174,-0.44973 -1.62826,-0.63523c-0.0653,-0.4913 0.8717,-0.97279 1.0931,-1.41053c0.2324,-0.45929 1.8108,-1.98328 2.0838,-1.88171c0.3074,0.1168 0.68843,4.89341 0.45223,5.03954z" data-paper-data="{&quot;index&quot;:null}" fill="#ffffff" stroke="none" stroke-width="0.85185" stroke-linecap="butt"/><path d="M237.71803,182.50485c-0.2622,0.437 -0.8782,0.3763 -1.3333,0.3668c-0.4907,-0.0272 -1.2364,0.0661 -1.4222,-0.4716c-0.4187,-1.2126 -0.1218,-2.6527 -0.0889,-3.9303c0.0142,-0.5481 -0.016,-1.133 0.2222,-1.6245c0.0418,-0.1887 0.2898,-0.1059 0.4889,-0.1048c0.2382,0.001 0.4524,0.0167 0.7111,0.1048c0.2667,0.0933 0.5413,0.2348 0.7556,0.4192c0.2942,0.2788 0.6302,0.5911 0.7555,0.9957c0.1929,0.6068 0.1911,1.2902 0.1778,1.9389c-0.016,0.7966 0.1129,1.6728 -0.2667,2.3058z" data-paper-data="{&quot;index&quot;:null}" fill="#ffffff" stroke="none" stroke-width="0.97175" stroke-linecap="round"/><path d="M243.25501,180.2952c-0.257,0.28 -1.47551,0.5382 -1.18951,0.6882c0.564,0.297 1.5,0.26667 1.5,0.26667c0,0 -0.69267,0.114 -1.36667,0.65c-0.12604,0.10016 1.39222,0.53906 1.39222,0.53906l-1.48056,0.7888l1.14992,0.6116c0,0 -2.8467,-0.08168 -3.21158,0.11054c-0.40268,0.2119 -1.23734,0.68037 -2.10702,0.8659c-0.86968,0.18553 -2.08302,0.30186 -2.91571,0.2591c-0.75581,-0.0667 -1.83871,-0.39865 -2.66818,-1.1875c-0.514,-0.327 -0.87942,-1.65983 -0.44242,-1.97083c0.763,-0.543 2.08333,-0.31967 2.93333,0.13333c0.75158,0.40055 1.74833,0.48233 2.58333,0.33333c0.82,-0.134 1.428,-0.42033 2.1,-0.93333c1.016,-0.775 4.06185,-1.52487 3.72285,-1.15487z" data-paper-data="{&quot;index&quot;:null}" fill="#f8f8f8" stroke="none" stroke-width="1" stroke-linecap="round"/><path d="M232.6096,181.74729c0.35891,0 0.39298,0.07533 0.62833,0.19695c0.23536,0.12162 -0.26941,0.70806 -0.62833,0.70806c-0.35892,0 -1.038,-0.58644 -0.80265,-0.70806c0.23535,-0.12161 0.44373,-0.19695 0.80265,-0.19695z" data-paper-data="{&quot;index&quot;:null}" fill="#101010" stroke="none" stroke-width="1" stroke-linecap="butt"/><path d="M237.19993,183.97734l-1.7512,0.778" data-paper-data="{&quot;index&quot;:null}" fill="none" stroke="#cccccc" stroke-width="0.36953" stroke-linecap="round"/><path d="M235.80323,179.66256c0.105,0.241 0.1709,0.5722 0.1709,0.9384c0,0.3662 -0.0659,0.6974 -0.1709,0.9384c-0.1062,0.2399 -0.2516,0.3885 -0.413,0.3885c-0.1613,0 -0.3067,-0.1486 -0.4129,-0.3885c-0.1051,-0.241 -0.1709,-0.5722 -0.1709,-0.9384c0,-0.3662 0.0658,-0.6974 0.1709,-0.9384c0.1062,-0.2399 0.2516,-0.3885 0.4129,-0.3885c0.1614,0 0.3068,0.1486 0.413,0.3885z" fill="#4088ed" stroke="none" stroke-width="1.0615" stroke-linecap="butt"/><path d="M235.68063,179.94045c0.0711,0.1501 0.1146,0.3571 0.1146,0.5859c0,0.2288 -0.0435,0.4358 -0.1146,0.586c-0.0706,0.1501 -0.1682,0.243 -0.2762,0.243c-0.108,0 -0.2055,-0.0929 -0.2761,-0.243c-0.0711,-0.1502 -0.1146,-0.3572 -0.1146,-0.586c0,-0.2288 0.0435,-0.4358 0.1146,-0.5859c0.0706,-0.1502 0.1681,-0.243 0.2761,-0.243c0.108,0 0.2056,0.0928 0.2762,0.243z" fill="#000000" stroke="none" stroke-width="0.47368" stroke-linecap="butt"/><path d="M235.46013,180.04324c0.0323,0.0615 0.0524,0.1462 0.0524,0.24c0,0.0938 -0.0201,0.1785 -0.0524,0.24c-0.0317,0.0614 -0.0763,0.0996 -0.1255,0.0996c-0.0491,0 -0.0938,-0.0382 -0.1255,-0.0996c-0.0323,-0.0615 -0.0523,-0.1462 -0.0523,-0.24c0,-0.0938 0.02,-0.1785 0.0523,-0.24c0.0317,-0.0614 0.0764,-0.0996 0.1255,-0.0996c0.0492,0 0.0938,0.0382 0.1255,0.0996z" fill="#ffffff" stroke="none" stroke-width="0.64678" stroke-linecap="butt"/><path d="M232.98443,179.64456c0.0934,0.2142 0.1519,0.5085 0.1519,0.8341c0,0.3255 -0.0585,0.6199 -0.1519,0.8341c-0.0943,0.2132 -0.2236,0.3453 -0.367,0.3453c-0.1434,0 -0.2727,-0.1321 -0.3671,-0.3453c-0.0934,-0.2142 -0.1519,-0.5086 -0.1519,-0.8341c0,-0.3256 0.0585,-0.6199 0.1519,-0.8341c0.0944,-0.2133 0.2237,-0.3454 0.3671,-0.3454c0.1434,0 0.2727,0.1321 0.367,0.3454z" fill="#4088ed" stroke="none" stroke-width="0.94355" stroke-linecap="butt"/><path d="M232.81443,179.90815c0.0631,0.1335 0.1019,0.3175 0.1019,0.5208c0,0.2034 -0.0388,0.3874 -0.1019,0.5209c-0.0627,0.1335 -0.1495,0.216 -0.2455,0.216c-0.096,0 -0.1827,-0.0825 -0.2455,-0.216c-0.0631,-0.1335 -0.1019,-0.3175 -0.1019,-0.5209c0,-0.2033 0.0388,-0.3873 0.1019,-0.5208c0.0628,-0.1335 0.1495,-0.216 0.2455,-0.216c0.096,0 0.1828,0.0825 0.2455,0.216z" fill="#000000" stroke="none" stroke-width="0.42105" stroke-linecap="butt"/><path d="M232.58513,179.99964c0.0287,0.0546 0.0465,0.1299 0.0465,0.2132c0,0.0834 -0.0178,0.1587 -0.0465,0.2133c-0.0282,0.0547 -0.0679,0.0886 -0.1116,0.0886c-0.0437,0 -0.0833,-0.0339 -0.1115,-0.0886c-0.0288,-0.0546 -0.0466,-0.1299 -0.0466,-0.2133c0,-0.0833 0.0178,-0.1586 0.0466,-0.2132c0.0282,-0.0547 0.0678,-0.0886 0.1115,-0.0886c0.0437,0 0.0834,0.0339 0.1116,0.0886z" fill="#ffffff" stroke="none" stroke-width="0.57492" stroke-linecap="butt"/><path d="M234.04546,173.0455c0,0 -1.60784,0.81818 -1.90909,0.81818c-0.15444,0 -1.0473,-1.16834 -1.26028,-1.98157c-0.21299,-0.81322 -0.0768,-1.72425 -0.0768,-1.72425z" fill="#ffffff" stroke="none" stroke-width="0" stroke-linecap="butt"/><path d="M234.20166,176.39582l-2.7947,1.06695l-1.86946,1.92963l1.53454,-2.87263l2.90995,-0.74602z" fill="#f8b820" stroke="none" stroke-width="1.22222" stroke-linecap="round"/><path d="M233.5442,175.6608l-2.35435,-0.44959l-2.65185,1.3816c0,0 1.78098,-2.22559 2.21786,-2.34532c0.30645,-0.084 3.00715,0.62014 3.00715,0.62014z" fill="#f8b820" stroke="none" stroke-width="1.22222" stroke-linecap="round"/><path d="M233.74098,174.59943c0,0 -1.20326,-1.03145 -2.15925,-1.27236c-0.95599,-0.24091 -4.30024,-0.35548 -4.30024,-0.35548c0,0 3.41113,-0.97829 4.05113,-0.81003c0.38804,0.10202 3.03198,1.76477 3.03198,1.76477z" fill="#f8b820" stroke="none" stroke-width="1.22222" stroke-linecap="round"/><path d="M229.99008,165.37823c0.07543,-0.02489 1.46756,-0.57942 2.50881,-0.66435c1.64503,-0.13417 3.19049,0.18933 3.19049,0.18933c0,0 -2.24313,0.22033 -2.81139,0.3829c-1.01128,0.28933 -2.73645,1.20437 -2.73645,1.20437c0,0 1.54876,-0.75946 2.36791,-0.9524c0.69495,-0.16368 2.23596,-0.13197 2.23596,-0.13197c0,0 -1.21259,0.38897 -1.72312,0.61022c-0.58022,0.25145 -1.57594,0.81954 -1.57594,0.81954c0,0 0.78108,-0.31641 1.30425,-0.43622c0.52318,-0.11981 1.16764,-0.12987 1.16764,-0.12987c0,0 -0.54578,0.32414 -0.77671,0.49106c-0.25753,0.18614 -0.73362,0.66122 -0.73362,0.66122c0,0 0.66449,-0.23199 1.10758,-0.28799c0.44309,-0.056 1.14476,0.00334 1.14476,0.00334c0,0 -0.40621,0.27572 -0.65486,0.46749c-0.24865,0.19177 -0.44798,0.38306 -0.44798,0.38306c0,0 0.36636,-0.12239 0.60963,-0.13274c0.24327,-0.01036 0.5832,0.08193 0.5832,0.08193c0,0 -0.31439,0.17928 -0.4429,0.27922c-0.16324,0.12696 -0.45754,0.42104 -0.45754,0.42104c0,0 0.61418,-0.11832 0.8373,-0.12043c0.16595,-0.00158 0.51264,0.04521 0.51264,0.04521l-0.5525,0.2684l0.64872,0.26875l-1.07057,0.21341l0.17909,-0.57442l-0.96779,0.10011l0.42549,-0.65059c0,0 -0.28252,-0.05663 -0.46476,-0.04925c-0.18224,0.00738 -0.50452,0.0885 -0.50452,0.0885c0,0 0.207,-0.29253 0.3887,-0.42469c0.1817,-0.13216 0.75648,-0.40827 0.75648,-0.40827l-1.20678,0.22575l-1.48855,0.54908c0,0 0.27449,-0.45829 0.50349,-0.70855c0.22901,-0.25026 0.78255,-0.69684 0.78255,-0.69684c0,0 -0.70808,0.23667 -1.15398,0.40797c-0.4459,0.1713 -1.25743,0.51841 -1.25743,0.51841c0,0 0.43018,-0.70586 0.84434,-1.00973c0.41415,-0.30387 1.52888,-0.73151 1.52888,-0.73151c0,0 -1.35168,0.30979 -2.13721,0.70173c-0.78554,0.39194 -2.56834,1.6461 -2.56834,1.6461c0,0 0.94853,-1.46231 1.8555,-2.0435c0.90697,-0.58119 3.25062,-1.22854 3.25062,-1.22854c0,0 -2.95113,0.79844 -3.47329,1.10061c-1.31181,0.75913 -3.56304,3.05082 -3.56304,3.05082c0,0 1.01465,-2.8013 4.03525,-3.79772z" fill="#dcdce1" stroke="none" stroke-width="0" stroke-linecap="butt"/><path d="M257.8523,171.54167c-0.07718,0.01877 -1.50924,0.46008 -2.55394,0.46138c-1.65049,0.00205 -3.1651,-0.44414 -3.1651,-0.44414c0,0 2.25358,-0.04004 2.83302,-0.15661c1.03119,-0.20745 2.82407,-0.98144 2.82407,-0.98144c0,0 -1.60459,0.63304 -2.43656,0.75978c-0.70583,0.10753 -2.23934,-0.04745 -2.23934,-0.04745c0,0 1.23983,-0.29065 1.76644,-0.47033c0.59849,-0.2042 1.63649,-0.69074 1.63649,-0.69074c0,0 -0.80391,0.25287 -1.33499,0.33041c-0.53108,0.07754 -1.17429,0.03598 -1.17429,0.03598c0,0 0.56998,-0.27942 0.81353,-0.42731c0.2716,-0.16493 0.7842,-0.60037 0.7842,-0.60037c0,0 -0.68093,0.17805 -1.12708,0.1984c-0.44616,0.02035 -1.14082,-0.09497 -1.14082,-0.09497c0,0 0.42698,-0.24232 0.69019,-0.41357c0.2632,-0.17124 0.47721,-0.34597 0.47721,-0.34597c0,0 -0.37498,0.09266 -0.6183,0.08351c-0.24332,-0.00915 -0.57477,-0.12836 -0.57477,-0.12836c0,0 0.32774,-0.15353 0.46384,-0.24286c0.17289,-0.11348 0.48978,-0.38307 0.48978,-0.38307c0,0 -0.62168,0.06878 -0.84425,0.05302c-0.16555,-0.01172 -0.50737,-0.08611 -0.50737,-0.08611l0.57221,-0.22331l-0.62512,-0.31983l1.08422,-0.12702l-0.2245,0.55824l0.9727,-0.02232l-0.47621,0.61445c0,0 0.27708,0.07906 0.45934,0.08629c0.18225,0.00724 0.50999,-0.04783 0.50999,-0.04783c0,0 -0.22976,0.27502 -0.42146,0.39221c-0.1917,0.11719 -0.78674,0.34639 -0.78674,0.34639l1.22098,-0.12841l1.52774,-0.42815c0,0 -0.3103,0.43484 -0.5586,0.66596c-0.2483,0.23112 -0.83582,0.63196 -0.83582,0.63196c0,0 0.72475,-0.17922 1.18293,-0.31427c0.45818,-0.13505 1.29489,-0.41608 1.29489,-0.41608c0,0 -0.48531,0.66915 -0.92246,0.93889c-0.43715,0.26974 -1.58253,0.60676 -1.58253,0.60676c0,0 1.37215,-0.20058 2.18654,-0.52838c0.81439,-0.3278 2.69188,-1.4352 2.69188,-1.4352c0,0 -1.06256,1.38168 -2.01315,1.8884c-0.95058,0.50672 -3.33854,0.96436 -3.33854,0.96436c0,0 3.00558,-0.55962 3.55025,-0.81901c1.36837,-0.65168 3.79583,-2.75579 3.79583,-2.75579c0,0 -1.23564,2.71107 -4.32632,3.46248z" data-paper-data="{&quot;index&quot;:null}" fill="#dcdce1" stroke="none" stroke-width="0" stroke-linecap="butt"/><path d="M244.04823,163.79629c-0.42288,-0.05033 -1.19488,-0.05725 -1.19488,-0.05725c0,0 0.56178,0.08062 0.90685,0.18823c0.34507,0.10761 0.72351,0.3202 0.72351,0.3202c0,0 -0.42748,0.00364 -0.61845,0.0225c-0.21296,0.02103 -0.65104,0.13613 -0.65104,0.13613c0,0 0.46532,0.09022 0.74216,0.20782c0.27684,0.1176 0.66504,0.38996 0.66504,0.38996c0,0 -0.32985,0.02277 -0.53954,0.05008c-0.2097,0.02731 -0.39053,0.07107 -0.39053,0.07107c0,0 0.25468,0.05295 0.39976,0.12938c0.14508,0.07643 0.31161,0.24536 0.31161,0.24536c0,0 -0.24372,-0.00224 -0.35238,0.01236c-0.13803,0.01855 -0.40897,0.08993 -0.40897,0.08993c0,0 0.39752,0.13932 0.52808,0.21372c0.0971,0.05533 0.283,0.20007 0.283,0.20007l-0.4125,-0.03108l0.28642,0.37628l-0.69534,-0.23869l0.29892,-0.27356l-0.59712,-0.26978l0.46813,-0.23439c0,0 -0.14522,-0.12871 -0.25378,-0.18619c-0.10855,-0.05748 -0.32359,-0.1195 -0.32359,-0.1195c0,0 0.21962,-0.10008 0.37015,-0.1154c0.15053,-0.01532 0.5786,0.01882 0.5786,0.01882l-0.77878,-0.27766l-1.05235,-0.18502c0,0 0.31507,-0.17366 0.53316,-0.24167c0.21809,-0.06801 0.69159,-0.14027 0.69159,-0.14027c0,0 -0.49228,-0.10228 -0.80982,-0.15374c-0.31754,-0.05146 -0.90746,-0.12453 -0.90746,-0.12453c0,0 0.48959,-0.26495 0.8336,-0.3014c0.34401,-0.03645 1.13765,0.09252 1.13765,0.09252c0,0 0.6004,0.22996 0.22831,0.18568z" fill="#dcdce1" stroke="none" stroke-width="0" stroke-linecap="butt"/></g></g></svg>