<svg version="1.1" xmlns="http://www.w3.org/2000/svg" xmlns:xlink="http://www.w3.org/1999/xlink" width="37.99865" height="43.76015" viewBox="0,0,37.99865,43.76015"><defs><radialGradient cx="223.8102" cy="183.59013" r="15.77076" gradientUnits="userSpaceOnUse" id="color-1"><stop offset="0" stop-color="#fadd00" stop-opacity="0.50196"/><stop offset="1" stop-color="#fbdd00"/></radialGradient></defs><g transform="translate(-213.14089,-162.50849)"><g data-paper-data="{&quot;isPaintingLayer&quot;:true}" fill-rule="nonzero" stroke-miterlimit="10" stroke-dasharray="" stroke-dashoffset="0" style="mix-blend-mode: normal"><g data-paper-data="{&quot;index&quot;:null}" stroke="none" stroke-width="0" stroke-linecap="butt" stroke-linejoin="miter"><g data-paper-data="{&quot;index&quot;:null}"><g><path d="M233.16191,191.61886c0,0 -0.2256,0.30338 -0.22618,0.76823c-0.0007,0.56633 0.39739,0.91521 0.5624,1.78195c0.35754,1.878 -0.23042,3.51603 2.9215,4.454c0.37879,0.02414 0.99026,-0.17034 0.99026,-0.17034c0,0 0.0035,0.32793 -0.11569,0.5079c-0.11919,0.17997 -0.44144,0.3333 -0.44144,0.3333l-0.24721,-0.07978l-0.05802,0.16504c0,0 -0.16931,0.04473 -0.33723,0.03733c-0.16792,-0.00741 -0.36455,-0.02627 -0.42532,-0.06004c-0.07429,-0.04129 0.07268,-0.10518 -0.03759,-0.12631c-0.06805,-0.01303 -0.08717,-0.04638 -0.1521,-0.05808c-0.09967,-0.01793 0.00101,0.12038 -0.10007,0.09398c-0.26093,-0.06815 -0.6069,-0.30128 -0.75875,-0.36284c-0.12668,-0.05135 -0.01306,-0.29978 -0.01306,-0.29978l-0.15993,-0.06588l-0.13577,0.11716c0,0 -0.33485,-0.37109 -0.45449,-0.46622c-0.37236,-0.29604 -0.13103,-0.4673 -0.13103,-0.4673l-0.12985,-0.19018l-0.16323,0.07345l-0.33693,-0.71637l0.08158,-0.19033c0,0 -0.02086,-0.85533 -0.1865,-1.24555c-0.16611,-0.39132 -0.80869,-1.0991 -0.80869,-1.0991l-0.21822,0.11241l-0.27369,-0.73634l0.23022,-0.29922c0,0 -0.2759,0.02738 -0.28799,-0.09695c-0.13009,-1.33808 1.41296,-1.71414 1.41296,-1.71414z" data-paper-data="{&quot;index&quot;:null}" fill="#a87643"/><path d="M235.95259,193.70504c-0.36689,1.74505 -1.57948,2.20254 -1.57948,2.20254c0,0 -1.51849,-2.59768 -1.52994,-3.52123c-0.00852,-0.68875 1.1149,-1.51553 1.1149,-1.51553c0,0 0.32516,-1.21334 0.41166,-1.6122c0.0865,-0.39887 0.30009,-1.05908 0.30009,-1.05908c0,0 1.7084,0.59123 1.99558,0.87191c0.21408,0.22604 -0.5027,3.63432 -0.71279,4.63358z" data-paper-data="{&quot;index&quot;:null}" fill="#fc6293"/><path d="M236.19412,188.29393c0.15215,-0.09124 0.89698,0.04093 1.54428,0.49887c0.19392,0.13718 -0.2644,1.3573 -0.4574,2.94781c-0.10776,0.88795 -0.05629,2.25463 -0.06115,3.06301c-0.00522,0.86875 0.65787,1.82612 0.64923,2.02167c-0.03109,0.70343 -0.45325,1.67315 -0.46832,1.67965c-0.00843,0.00362 -1.01251,0.65414 -2.304,-0.14593c-1.71323,-1.06136 -1.64839,-4.28397 -1.64839,-4.28397c0,0 0.6508,-0.46474 0.75734,0.09994c0.11796,0.70358 0.03626,0.55056 0.07897,1.07858c-0.00008,0.19896 0.0294,0.5015 0.06502,0.50182c0.3639,0.00336 1.26442,-1.13483 1.46963,-1.75154c0.16631,-0.49989 0.35292,-1.51914 0.47051,-2.41048c0.10327,-0.78284 0.30939,-1.52187 0.39469,-2.02672c0.05182,-0.30686 -0.06755,-0.54096 -0.06755,-0.54096c0,0 -0.66749,-0.58505 -0.42279,-0.73177z" data-paper-data="{&quot;index&quot;:null}" fill="#f3e2e2"/><path d="M237.07441,194.3785c0,0 -0.04636,-1.35654 0.09807,-2.24871c0.19054,-1.17702 0.49947,-2.61287 0.5329,-3.01038c0.01682,-0.19998 -0.29071,-0.44473 -0.29071,-0.44473l0.12545,-0.05418c0,0 0.36082,0.23253 0.31025,0.48437c-0.2907,1.44742 -0.50024,2.25566 -0.5392,3.12454c-0.02814,0.62768 -0.08852,2.77967 -0.08852,2.77967z" data-paper-data="{&quot;index&quot;:null}" fill="#bfa4a4"/><path d="M234.75971,192.18456l0.24204,-1.15636l0.6221,0.14042l-0.29625,1.17978z" data-paper-data="{&quot;index&quot;:null}" fill="#fffff6"/><path d="M235.00031,190.34378l0.20344,-0.9418l0.55428,0.1411l-0.1583,1.00462z" data-paper-data="{&quot;index&quot;:null}" fill="#fffff6"/><path d="M237.52735,190.49656c0,0 -0.24659,0.11881 -0.72902,0.15637c-0.48242,0.03758 -1.20081,-0.11198 -1.20081,-0.11198l0.17251,-1.00069c0,0 0.50161,0.17624 0.92245,0.19126c0.42085,0.01502 1.07234,-0.12004 1.07234,-0.12004l-0.23749,0.88506z" data-paper-data="{&quot;index&quot;:null}" fill="#754c86"/><path d="M236.27407,192.54714c-0.40348,-0.04307 -0.97794,-0.18981 -0.97794,-0.18981l0.27898,-1.19194c0,0 0.41039,0.10318 0.79672,0.10679c0.38631,0.0036 1.04276,-0.09759 1.04276,-0.09759c0,0 -0.05569,0.47375 -0.07928,0.72616c-0.02358,0.25241 -0.04908,0.64774 -0.04908,0.64774c0,0 -0.60871,0.04172 -1.01219,-0.00134z" data-paper-data="{&quot;index&quot;:null}" fill="#754c86"/><path d="M234.68616,188.21089c0,0 0.3444,-0.11632 0.56105,-0.10942c0.13112,0.00421 0.45594,0.06415 0.80673,0.09261c0.35076,0.02845 0.43399,0.0899 0.43399,0.0899l-1.64025,0.00046z" data-paper-data="{&quot;index&quot;:null}" fill="#ae8484"/><path d="M237.35164,188.84146c-0.02799,0.14697 -0.17201,0.23076 -0.55155,0.17703c-0.37955,-0.05373 -0.26987,-0.09693 -0.95659,-0.34761c-0.33752,-0.11779 -0.98089,-0.37799 -0.98089,-0.37799c0,0 0.48498,-0.17517 1.32586,-0.01499c0.84088,0.16019 1.20438,0.35697 1.16677,0.55451z" data-paper-data="{&quot;index&quot;:null}" fill="#532c31"/></g><path d="M235.38117,188.14136c0,0 -0.39472,-0.68117 -0.16947,-0.98561c0.22527,-0.30445 0.58256,-0.15518 0.83685,0.09631c0.25428,0.25151 0.25936,0.98792 0.25936,0.98792z" fill="#fc6293"/></g><g data-paper-data="{&quot;index&quot;:null}"><path d="M237.3724,183.43537l-0.32861,3.73273l-0.20519,1.91806l-1.14448,-0.39343l0.09485,-2.09946l0.34781,-3.44577z" data-paper-data="{&quot;index&quot;:null}" fill="#8e5173"/><path d="M237.09528,186.40786l-0.05147,0.76023l-0.20519,1.91806l-1.14448,-0.39344l0.09485,-2.09946l0.05426,-0.49329z" data-paper-data="{&quot;index&quot;:null}" fill="#a71e48"/><path d="M235.80972,186.35636l0.04171,-0.25603l1.25444,0.3036l-0.02722,0.27373z" fill="#a19589"/><path d="M235.76168,186.83942l0.04171,-0.25602l1.25444,0.30361l-0.02722,0.27373z" fill="#a19589"/></g></g><path d="M228.05829,202.94762c-17.32203,-11.97626 -18.23836,-26.87517 -9.4882,-39.35229c0.46921,-0.66906 1.05092,11.29997 4.75383,19.27017c3.48265,7.49609 10.11314,11.00375 10.11314,11.00375c0,0 -2.64226,10.50654 -5.37878,9.07837z" fill="url(#color-1)" stroke="none" stroke-width="NaN" stroke-linecap="butt" stroke-linejoin="miter"/><g data-paper-data="{&quot;index&quot;:null}" stroke-width="0" stroke-linecap="butt" stroke-linejoin="miter"><g data-paper-data="{&quot;index&quot;:null}"><path d="M224.91292,170.48642c-0.33159,-1.01045 0.22178,-2.09938 1.23594,-2.43218c1.01417,-0.33281 2.10511,0.21654 2.4367,1.22698c0.33159,1.01045 -0.22176,2.09937 -1.23592,2.43217c-1.01417,0.33281 -2.10513,-0.21653 -2.43672,-1.22698z" fill="#e0cb17" stroke="none"/><path d="M225.74551,170.88167c-0.20486,-0.62425 0.13699,-1.29699 0.76356,-1.5026c0.62657,-0.20561 1.30054,0.13376 1.5054,0.75803c0.20486,0.62425 -0.13699,1.29699 -0.76356,1.5026c-0.62657,0.20561 -1.30055,-0.13378 -1.5054,-0.75803z" fill="#e0cb17" stroke="#000000"/><path d="M226.55732,174.49892c-0.64946,-0.87456 -0.24482,-2.16221 -0.24482,-2.16221l1.99372,-0.6699c0,0 0.20889,0.14512 0.93096,1.27869c0.74972,1.17702 0.09809,3.46156 0.09809,3.46156c0,0 -2.12848,-1.03358 -2.77795,-1.90815z" fill="#e8edf4" stroke="#000000"/><path d="M227.41094,172.21323c-0.48506,0.16156 -1.39022,0.15302 -1.39022,0.15302l-0.00551,-0.71537c0,0 0.72327,0.18835 1.16281,0.0712c0.43953,-0.11713 0.94221,-0.63219 0.94221,-0.63219l0.42101,0.37745c0,0 -0.57607,0.56126 -1.1303,0.74586z" fill="#dbded5" stroke="#000000"/></g><g data-paper-data="{&quot;index&quot;:null}" stroke="none"><path d="M234.33624,173.88947c0.19115,-0.06273 0.45165,0.20807 0.58186,0.60484c0.1302,0.39678 0.08081,0.76927 -0.11035,0.832c-0.19115,0.06273 -0.45167,-0.20807 -0.58188,-0.60483c-0.1302,-0.39678 -0.0808,-0.76927 0.11036,-0.832z" fill="#000000"/><path d="M237.31631,178.46327c0.19912,-0.06534 1.07537,0.59965 1.13266,0.77423c0.05729,0.17458 0.09931,1.43165 -0.0998,1.49698c-0.19912,0.06534 -1.3007,0.07668 -1.3007,0.07668c0,0 0.06873,-2.28258 0.26784,-2.34792z" fill="#807d5a"/><path d="M228.41866,170.80446l0.07783,-0.1847l6.46332,4.08613l0.00129,0.3285z" fill="#6e6e73"/><path d="M230.69319,171.86183l-0.18783,0.40118l-1.53959,-0.92719l0.21668,-0.41064z" fill="#ddcb1e"/></g></g><g data-paper-data="{&quot;index&quot;:null}" stroke-width="0" stroke-linecap="butt" stroke-linejoin="miter"><g data-paper-data="{&quot;index&quot;:null}"><path d="M245.62335,167.32727c-1.30101,0.42693 -2.70052,-0.27776 -3.12589,-1.574c-0.42536,-1.29623 0.28447,-2.69314 1.58549,-3.12008c1.30101,-0.42693 2.70052,0.27777 3.1259,1.57401c0.42536,1.29623 -0.28449,2.69314 -1.58549,3.12007z" fill="#e0cb17" stroke="none"/><path d="M245.66935,167.17608c-0.80376,0.26376 -1.66838,-0.17162 -1.93117,-0.97243c-0.2628,-0.80082 0.17575,-1.66382 0.97951,-1.92759c0.80376,-0.26376 1.66838,0.1716 1.93118,0.97242c0.2628,0.80082 -0.17575,1.66383 -0.97953,1.9276z" fill="#e0cb17" stroke="#000000"/><path d="M248.55939,169.60362c-0.00643,1.39742 -1.4204,4.08338 -1.4204,4.08338c0,0 -2.40986,-1.86555 -2.52972,-3.65173c-0.11544,-1.72027 -0.00988,-2.02902 -0.00988,-2.02902l2.56951,-0.82313c0,0 1.39691,1.02308 1.39049,2.42051z" fill="#e8edf4" stroke="#000000"/><path d="M245.93994,167.89038c-0.71304,0.23051 -1.73497,0.08834 -1.73497,0.08834l0.14817,-0.71006c0,0 0.91095,0.15019 1.45421,-0.06284c0.54325,-0.21303 1.14751,-0.95744 1.14751,-0.95744l0.53804,0.74347c0,0 -0.9289,0.69682 -1.55296,0.89855z" fill="#dbded5" stroke="#000000"/></g><g data-paper-data="{&quot;index&quot;:null}" stroke="none"><path d="M242.05578,176.86607c0.32778,0.33888 0.7205,2.07071 0.7205,2.07071l-2.95398,0.98978c0,0 -1.36662,-0.90821 -1.50735,-2.36047c-0.10345,-1.06761 0.96115,-2.78285 1.14965,-2.85104c1.21447,-0.43938 2.26338,1.81213 2.59116,2.15102z" fill="#e4dcaa"/><path d="M240.8038,175.66239c0.16703,0.509 0.10366,0.98685 -0.14156,1.06731c-0.24521,0.08047 -0.57942,-0.26691 -0.74644,-0.77591c-0.16703,-0.509 -0.10365,-0.98685 0.14158,-1.06732c0.24521,-0.08047 0.5794,0.26691 0.74643,0.77592z" fill="#000000"/><path d="M243.31258,181.05956c0.12417,0.85124 0.10802,2.28769 0.10802,2.28769l-0.9713,0.82677c0,0 -1.53576,-0.10054 -1.75139,-0.84086c-0.10706,-0.3676 -0.84254,-3.2708 -0.84254,-3.2708l0.92512,-1.12962c0,0 0.58936,-0.13917 0.96906,-0.15066c0.37971,-0.0115 1.02548,0.13994 1.02548,0.13994c0,0 0.41334,1.28632 0.53751,2.13756z" fill="#dfcc17"/><path d="M242.51565,184.10095c0,0 -1.14701,0.82557 -1.40245,0.90939c-0.25543,0.08382 -1.16751,-1.24719 -1.24099,-1.47115c-0.0735,-0.22396 0.32657,-1.57721 0.58201,-1.66103c0.25543,-0.08382 2.06142,2.22277 2.06142,2.22277z" fill="#807d5a"/><path d="M240.28185,176.5446l-0.24834,-0.34046l3.57341,-9.13534l0.22082,0.13171z" fill="#6e6e73"/><path d="M243.1302,167.90582l0.53605,0.25966l-0.88629,2.12839l-0.49905,-0.27181z" fill="#ddcb1e"/></g></g><path d="M239.66143,181.5663l1.41106,-0.26451l2.70222,-0.90186c0,0 -1.63243,1.50418 -2.46949,1.82046c-0.77032,0.29105 -2.85835,-0.10748 -2.85835,-0.10748z" data-paper-data="{&quot;index&quot;:null}" fill="#f79db4" stroke="none" stroke-width="0" stroke-linecap="butt" stroke-linejoin="miter"/><g data-paper-data="{&quot;index&quot;:null}" stroke="none" stroke-width="0" stroke-linecap="butt" stroke-linejoin="miter"><path d="M243.56078,185.19547c0,0 -0.29023,-0.67681 -0.15795,-1.00912c0.13229,-0.33228 0.39993,-0.61214 0.72825,-0.42336c0.32834,0.18877 0.23943,0.971 0.23943,0.971z" fill="#f3e2e2"/><g><path d="M247.71523,186.65213c0,0 1.54179,-0.63935 2.26241,0.57591c0.06694,0.11291 -0.18395,0.26104 -0.18395,0.26104l0.381,0.11072l0.2252,0.79425l-0.2548,0.04019c0,0 -0.1053,0.99912 -0.00311,1.43406c0.1019,0.4337 0.61535,1.17185 0.61535,1.17185l0.18735,0.11069l0.15919,0.81661l-0.184,0.03908l0.00801,0.2419c0,0 0.31093,-0.00469 0.17908,0.47757c-0.04238,0.15493 -0.09585,0.67751 -0.09585,0.67751l-0.18786,-0.01503l-0.09469,0.15516c0,0 0.25059,0.14007 0.17508,0.26227c-0.09052,0.14649 -0.23909,0.55897 -0.41799,0.7788c-0.06931,0.08515 -0.06984,-0.09464 -0.14322,-0.01753c-0.04779,0.05022 -0.04329,0.09036 -0.09288,0.14368c-0.08038,0.08637 0.08392,0.04928 0.04657,0.13043c-0.03055,0.06637 -0.18555,0.20448 -0.32331,0.31504c-0.13777,0.11056 -0.3091,0.17775 -0.3091,0.17775l-0.15168,-0.1039l-0.16006,0.22115c0,0 -0.36842,0.0701 -0.58122,-0.00846c-0.21281,-0.07856 -0.41351,-0.35879 -0.41351,-0.35879c0,0 0.63922,-0.2148 0.94537,-0.47049c2.08992,-2.75254 0.57421,-3.77625 -0.28882,-5.59052c-0.39831,-0.83733 -0.27743,-1.38033 -0.62971,-1.86007c-0.28915,-0.39377 -0.66881,-0.5109 -0.66881,-0.5109z" data-paper-data="{&quot;index&quot;:null}" fill="#a87643"/><path d="M246.64449,190.15384c-0.79864,-0.71676 -3.52284,-3.16139 -3.48167,-3.48597c0.06919,-0.4163 1.1505,-1.97845 1.1505,-1.97845c0,0 0.59108,0.42712 0.9121,0.71159c0.32102,0.28446 1.35015,1.11125 1.35015,1.11125c0,0 1.46591,0.00337 1.88637,0.59262c0.5638,0.79013 0.88945,3.93553 0.88945,3.93553c0,0 -1.31218,0.36511 -2.70689,-0.88661z" data-paper-data="{&quot;index&quot;:null}" fill="#f3e2e2"/><path d="M243.07963,185.71596c0.29858,-0.02753 0.09594,0.88299 0.09594,0.88299c0,0 0.04415,0.27262 0.27865,0.5006c0.3858,0.37507 1.0195,0.87366 1.59319,1.47326c0.65321,0.68269 1.44904,1.44136 1.90049,1.76192c0.55696,0.39546 2.02253,0.79091 2.32898,0.56207c0.03,-0.02239 -0.13287,-0.2972 -0.25651,-0.46584c-0.29168,-0.4742 -0.26593,-0.29371 -0.60282,-0.96351c-0.26033,-0.54494 0.58006,-0.55503 0.58006,-0.55503c0,0 2.05614,2.69204 1.26265,4.6558c-0.59816,1.48031 -1.85344,1.55231 -1.86284,1.55445c-0.01683,0.00384 -0.97691,-0.55617 -1.44009,-1.13327c-0.12876,-0.16043 -0.16107,-1.38389 -0.70497,-2.11725c-0.5061,-0.68236 -1.31116,-1.87308 -1.95391,-2.55901c-1.15132,-1.22866 -2.29757,-1.97853 -2.21834,-2.21527c0.26444,-0.79022 0.81387,-1.36483 0.99954,-1.38194z" data-paper-data="{&quot;index&quot;:null}" fill="#fc6293"/><path d="M246.37753,192.04812c0,0 -1.38754,-1.7871 -1.80116,-2.30179c-0.57257,-0.71247 -1.25214,-1.26764 -2.39742,-2.31433c-0.19926,-0.18209 -0.03774,-0.60329 -0.03774,-0.60329l0.14,-0.03197c0,0 -0.10873,0.39846 0.0297,0.55758c0.27518,0.31627 1.42874,1.34182 2.32119,2.22142c0.67646,0.66674 1.47953,1.84568 1.47953,1.84568z" data-paper-data="{&quot;index&quot;:null}" fill="#766565"/><path d="M246.332,188.61548l-0.98378,-0.81632l0.44025,-0.50538l0.92329,0.83014z" data-paper-data="{&quot;index&quot;:null}" fill="#fffff6"/><path d="M244.98308,187.25775l-0.75805,-0.75349l0.38234,-0.46385l0.75732,0.67217z" data-paper-data="{&quot;index&quot;:null}" fill="#fffff6"/><path d="M242.5661,187.80843c0,0 0.63625,-0.29004 0.98373,-0.56411c0.34748,-0.27407 0.66333,-0.73497 0.66333,-0.73497l0.76765,0.7413c0,0 -0.51623,0.5729 -0.94858,0.84061c-0.43237,0.26772 -0.71518,0.32011 -0.71518,0.32011z" data-paper-data="{&quot;index&quot;:null}" fill="#754c86"/><path d="M244.79564,190.00139c0,0 -0.2671,-0.31935 -0.44383,-0.51871c-0.17673,-0.19936 -0.51815,-0.56646 -0.51815,-0.56646c0,0 0.61941,-0.32184 0.9447,-0.5648c0.32529,-0.24295 0.60918,-0.58529 0.60918,-0.58529l0.9767,0.83734c0,0 -0.39593,0.48115 -0.71128,0.7682c-0.31534,0.28706 -0.85735,0.62967 -0.85735,0.62967z" data-paper-data="{&quot;index&quot;:null}" fill="#754c86"/><path d="M244.21529,184.87184l-1.39097,1.01815c0,0 0.03238,-0.10379 0.31213,-0.34573c0.27975,-0.24194 0.51792,-0.49451 0.62649,-0.57949c0.17938,-0.14037 0.54362,-0.25563 0.54362,-0.25563z" data-paper-data="{&quot;index&quot;:null}" fill="#ae8484"/><path d="M242.42954,186.89355c-0.15457,-0.14412 0.03142,-0.53669 0.64489,-1.19467c0.61349,-0.65798 1.13344,-0.8106 1.13344,-0.8106c0,0 -0.38389,0.62014 -0.59693,0.92959c-0.42658,0.63898 -0.30676,0.60748 -0.59519,0.88873c-0.28844,0.28125 -0.46255,0.29965 -0.57757,0.19241z" data-paper-data="{&quot;index&quot;:null}" fill="#532c31"/></g></g><g data-paper-data="{&quot;index&quot;:null}" stroke="none" stroke-width="0" stroke-linecap="butt" stroke-linejoin="miter"><path d="M240.34742,181.96992l2.61245,2.72759l0.83692,0.84467l-0.78584,1.24881l-1.02132,-1.09894l-2.797,-3.05304z" data-paper-data="{&quot;index&quot;:null}" fill="#8e5173"/><path d="M242.07919,183.78427l0.88073,0.9132l0.83692,0.84467l-0.78584,1.24881l-1.02132,-1.09894l-0.85555,-0.96039z" data-paper-data="{&quot;index&quot;:null}" fill="#c5c0b5"/><path d="M242.07919,183.78427l0.16087,0.17294l-0.93091,0.97581l-0.175,-0.20142z" data-paper-data="{&quot;index&quot;:null}" fill="#a19589"/><path d="M242.41766,184.14153l0.16089,0.17295l-0.93092,0.9758l-0.175,-0.20142z" data-paper-data="{&quot;index&quot;:null}" fill="#a19589"/></g><path d="M235.84357,184.9999c0,0 1.92021,0.07437 3.7591,-1.28129c2.11076,-1.61 2.6719,-3.58873 2.6719,-3.58873l0.43072,0.13843c0,0 -0.94875,2.0487 -2.91325,3.72476c-1.73881,1.28933 -3.86676,1.43095 -3.86676,1.43095z" data-paper-data="{&quot;index&quot;:null}" fill="#ee3377" stroke="none" stroke-width="0" stroke-linecap="butt" stroke-linejoin="miter"/><path d="M238.1608,179.05314l2.03105,0.538l2.15884,0.58126c0,0 -0.45866,1.48734 -2.32092,3.28822c-1.44635,1.35926 -4.16569,1.61254 -4.16569,1.61254l-0.45362,-3.77937z" data-paper-data="{&quot;index&quot;:null}" fill="#fcf4f4" stroke="none" stroke-width="0" stroke-linecap="butt" stroke-linejoin="miter"/><path d="M235.81261,184.53501c0,0 1.49015,0.3305 3.41266,-1.08867c2.11076,-1.61 2.58288,-3.41745 2.58288,-3.41745l0.14507,0.04098c0,0 -0.31704,1.52419 -2.62416,3.49325c-1.73881,1.28933 -3.49656,1.13791 -3.49656,1.13791z" data-paper-data="{&quot;index&quot;:null}" fill="#ee3377" stroke="none" stroke-width="0" stroke-linecap="butt" stroke-linejoin="miter"/><g data-paper-data="{&quot;index&quot;:null}" stroke="none" stroke-width="0" stroke-linecap="butt" stroke-linejoin="miter"><path d="M241.86362,184.04515l-4.6403,-4.39956l1.93476,-0.48064l5.16523,0.19333c0,0 -0.35389,1.82411 -0.97063,2.70585c-0.61674,0.88174 -1.48908,1.98103 -1.48908,1.98103z" fill="#fab5b7"/><path d="M244.30006,179.36619l0.58918,-0.01656c0,0 -0.47069,1.70649 -0.99367,2.70009c-0.52298,0.99361 -1.6948,2.40776 -1.6948,2.40776l-0.36186,-0.44281c0,0 1.12605,-1.28218 1.63172,-2.23724c0.50566,-0.95506 0.82946,-2.41124 0.82946,-2.41124z" fill="#fed000"/></g><path d="M235.96913,181.3385l-0.00271,-0.6241l1.29845,-0.89331l0.6651,0.21576z" data-paper-data="{&quot;index&quot;:null}" fill="#aa4455" stroke="none" stroke-width="0" stroke-linecap="butt" stroke-linejoin="miter"/><path d="M234.74386,179.63333c-0.27167,-0.56118 -0.34171,-1.52448 -0.34171,-1.52448c0,0 0.58234,-0.37496 0.94171,-0.66627c0.35936,-0.2913 0.87143,-0.80351 0.87143,-0.80351l1.44931,1.73614l0.75146,0.67571l-2.7456,1.96453c0,0 -0.65493,-0.82093 -0.92661,-1.38211z" data-paper-data="{&quot;index&quot;:null}" fill="#6d3b75" stroke="none" stroke-width="0" stroke-linecap="butt" stroke-linejoin="miter"/><path d="M235.31837,181.33483l-0.40815,-1.12951c0,0 -0.7176,-0.92533 -0.96664,-1.4487c0.00037,-0.11944 0.14264,-0.15274 0.14264,-0.15274c0,0 0.02206,0.38858 0.07301,0.43625c0.16134,0.15088 0.14341,0.27202 0.33229,0.27056c0.86201,-0.00669 1.10726,0.1758 1.10726,0.1758c0,0 0.0976,0.16159 0.14183,0.24537c0.24705,0.46801 0.37444,1.6349 0.37444,1.6349z" data-paper-data="{&quot;index&quot;:null}" fill="#efe6e6" stroke="none" stroke-width="0" stroke-linecap="butt" stroke-linejoin="miter"/><path d="M237.93523,180.19685c0,0 -1.02256,-0.40645 -1.42526,-0.74978c-0.07209,-0.06146 -0.20846,-0.19202 -0.20846,-0.19202c0,0 -0.12447,-0.27921 0.07041,-1.11892c0.0427,-0.184 0.03359,-0.32765 -0.0784,-0.51807c-0.03537,-0.06015 -0.36267,-0.16443 -0.40153,-0.21534c-0.19002,-0.24884 -0.07038,-0.38743 -0.07038,-0.38743c0,0 0.34078,-0.4198 0.45741,-0.39407c0.44809,0.09889 1.43449,1.71481 1.43449,1.71481l1.46981,0.82713z" data-paper-data="{&quot;index&quot;:null}" fill="#efe6e6" stroke="none" stroke-width="0" stroke-linecap="butt" stroke-linejoin="miter"/><path d="M235.81545,177.3687c0,0 0.58337,0.24896 0.59863,0.69968c0.00221,0.25198 -0.06922,0.53546 -0.11543,0.82359c-0.03195,0.19921 -0.04434,0.40086 -0.04434,0.40086c0,0 -0.45609,-0.72109 -0.59317,-0.99735c-0.16697,-0.33649 -0.32299,-0.73521 -0.28179,-0.87129c0.04194,-0.06547 0.55321,-0.52571 0.55321,-0.52571l0.3824,0.07384z" data-paper-data="{&quot;index&quot;:null}" fill="#fd4275" stroke="none" stroke-width="0" stroke-linecap="butt" stroke-linejoin="miter"/><path d="M237.47216,180.07789c0,0 -0.87702,-0.34578 -1.1897,-0.82894c-0.1651,-0.25512 0.08048,-1.57453 0.08048,-1.57453l0.19547,-0.01338c0,0 -0.32694,1.24331 -0.15028,1.52474c0.26063,0.41517 1.16692,0.78621 1.16692,0.78621z" data-paper-data="{&quot;index&quot;:null}" fill="#fed000" stroke="none" stroke-width="0" stroke-linecap="butt" stroke-linejoin="miter"/><path d="M236.42035,177.64642c0,0 -0.12489,0.61751 -0.15623,0.89008c-0.01329,0.11557 -0.03732,0.33004 -0.00467,0.50596c0.03343,0.18014 0.12373,0.32041 0.12373,0.32041c0,0 -0.17708,-0.14122 -0.21851,-0.18904c-0.04144,-0.04782 -0.06946,-0.20396 -0.06946,-0.20396l0.15546,-1.22764l-0.53969,-0.36667l0.5177,-0.42084l-0.29556,-0.04245l0.12367,-0.14498l0.45077,0.14291l-0.59826,0.45664l0.51105,0.27962z" data-paper-data="{&quot;index&quot;:null}" fill="#fff9f9" stroke="none" stroke-width="0" stroke-linecap="butt" stroke-linejoin="miter"/><path d="M235.97382,177.3941l-0.05112,-0.02875l0.56948,-0.45607l0.08196,0.03216z" data-paper-data="{&quot;index&quot;:null}" fill="#fed000" stroke="none" stroke-width="0" stroke-linecap="butt" stroke-linejoin="miter"/><path d="M234.27045,178.05415c0,0 0.47052,-0.16255 0.63065,-0.27527c0.15775,-0.11103 0.46321,-0.33873 0.46321,-0.33873c0,0 0.01477,0.07274 0.02098,0.12759c0.00622,0.05484 0.03054,0.14252 0.03054,0.14252l-0.14429,0.51082z" data-paper-data="{&quot;index&quot;:null}" fill="#fff9f9" stroke="none" stroke-width="0" stroke-linecap="butt" stroke-linejoin="miter"/><path d="M234.65439,177.94789l0.6232,-0.44744l-0.14144,0.50072z" data-paper-data="{&quot;index&quot;:null}" fill="#fd4275" stroke="none" stroke-width="0" stroke-linecap="butt" stroke-linejoin="miter"/><g data-paper-data="{&quot;index&quot;:null}" stroke="none" stroke-width="0" stroke-linecap="butt" stroke-linejoin="miter"><path d="M233.8087,178.64378c-0.07464,-0.38442 0.09391,-0.52346 0.30049,-0.58288c0.30749,-0.08839 0.52016,0.03256 0.61904,0.33007c0.39458,1.18734 0.76126,2.21828 1.08336,3.01856c0.19637,0.48788 1.03191,2.36399 1.03191,2.36399c0,0 -0.10391,0.03922 -0.34141,0.26038c-0.2375,0.22113 -0.78112,0.21788 -0.78112,0.21788c0,0 -0.39801,-1.09139 -0.88477,-2.30072c-0.34044,-0.84583 -0.80212,-2.1463 -1.02754,-3.30725z" data-paper-data="{&quot;index&quot;:null}" fill="#4c2b5c"/><path d="M234.10919,178.06092c0.30749,-0.08839 0.52015,0.03257 0.61903,0.33008c0.39458,1.18734 0.76125,2.21828 1.08337,3.01855c0.05469,0.13584 0.28087,0.65996 0.28087,0.65996l-1.55555,-0.90259c0,0 -0.56449,-1.67979 -0.72821,-2.52311c-0.07464,-0.38442 0.09389,-0.52349 0.3005,-0.58289z" data-paper-data="{&quot;index&quot;:null}" fill="#edbb82"/><path d="M236.76877,187.73424c-0.35979,-0.77099 -0.76799,-2.13561 -0.76799,-2.13561l1.67446,-1.79549c0,0 0.33894,-0.13227 0.87375,0.03873c0.34734,0.11105 0.74586,0.56277 0.74586,0.56277c0,0 -0.13871,-0.69715 0.4366,-0.74292c0.36938,-0.02939 0.94274,0.92012 1.06224,1.29966c0.07037,0.2234 0.05939,0.65496 -0.09521,0.9542c-0.09752,0.18875 -0.35771,0.32387 -0.35771,0.32387c0,0 0.18237,0.32941 -0.15058,0.5538c-0.10199,0.06876 -0.22206,0.19151 -0.22206,0.19151c0,0 0.05652,0.27608 0.02747,0.42455c-0.02907,0.14846 -0.19563,0.33477 -0.19563,0.33477l-0.41221,0.07794c0,0 -0.12125,0.52722 -0.19539,0.60969c-0.29094,0.32359 -0.74505,0.16049 -0.98936,0.07452c-0.44731,-0.15739 -1.3769,-0.64908 -1.43424,-0.77192z" data-paper-data="{&quot;index&quot;:null}" fill="#f44a7d"/><g data-paper-data="{&quot;index&quot;:null}"><path d="M237.07038,185.11014c-0.70468,0.50049 -1.35382,0.7965 -1.97029,-0.07143c-0.61647,-0.86795 -0.1231,-1.38336 0.5816,-1.88385c0.70468,-0.50049 1.36768,-0.80633 1.97029,0.07143c0.60247,0.87758 0.1231,1.38336 -0.5816,1.88385z" fill="#fed000"/><path d="M236.94265,184.93032c-0.91814,0.65209 -1.72602,1.09123 -2.22906,0.38293c-0.50306,-0.70828 0.17769,-1.32643 1.09582,-1.97854c0.91814,-0.65209 1.74403,-1.10403 2.22906,-0.38292c0.48489,0.72095 -0.17769,1.32642 -1.09582,1.97853z" fill="#e68b9c"/></g></g><path d="M233.53925,178.86401l0.37735,-0.52833c0,0 0.54049,-0.50073 0.71267,-0.6113c0.13439,-0.0863 0.32402,-0.27025 0.48802,-0.35399c0.28093,-0.14345 0.52653,-0.17057 0.57883,-0.19423c0.09171,-0.04148 -1.29776,0.95942 -1.26538,0.95133c0.14211,0.0044 0.3187,0.33888 0.58427,0.60456c0.21801,0.21812 0.75568,0.88063 0.75568,0.88063c0,0 -0.19505,-0.05266 -0.39404,-0.08601c-0.28779,-0.04823 -0.70643,-0.2299 -0.94451,-0.31248c-0.42224,-0.15839 -0.34467,-0.63189 -0.34467,-0.63189z" data-paper-data="{&quot;index&quot;:null}" fill="#fd4275" stroke="none" stroke-width="0" stroke-linecap="butt" stroke-linejoin="miter"/><path d="M235.99239,181.08123c0,0 -0.06217,-0.97734 -0.37235,-1.35691c-0.21026,-0.2573 -1.40678,-0.45767 -1.40678,-0.45767l-0.011,-0.06783c0,0 1.32875,0.18865 1.51778,0.42659c0.35799,0.45062 0.40558,1.39212 0.40558,1.39212z" data-paper-data="{&quot;index&quot;:null}" fill="#fed000" stroke="none" stroke-width="0" stroke-linecap="butt" stroke-linejoin="miter"/><path d="M234.15744,179.24427l-0.10177,-0.57361l-0.72884,0.37268l1.03099,-1.46473l0.74248,-0.17941c0,0 -0.40422,0.26501 -0.63159,0.47835c-0.27566,0.25868 -0.90559,0.9641 -0.90559,0.9641l0.56414,-0.35617l0.17511,0.62853l1.21301,0.24474c0,0 0.13904,0.07642 0.17111,0.13097c0.03208,0.05455 0.10936,0.26744 0.10936,0.26744c0,0 -0.10411,-0.13034 -0.26412,-0.21956c-0.15628,-0.08711 -0.36719,-0.13283 -0.48095,-0.15715c-0.2683,-0.05734 -0.89337,-0.13621 -0.89337,-0.13621z" data-paper-data="{&quot;index&quot;:null}" fill="#fff9f9" stroke="none" stroke-width="0" stroke-linecap="butt" stroke-linejoin="miter"/><g data-paper-data="{&quot;index&quot;:null}" stroke-width="0" stroke-linecap="butt" stroke-linejoin="miter"><path d="M228.64074,203.33175c0,0 -4.32402,-1.77116 -2.39933,-6.62148c0.73904,-1.86244 1.80152,-2.85956 3.47712,-3.70295c1.76804,-0.88992 3.79366,1.2212 3.79366,1.2212l-2.89728,8.60948z" fill="#ffff00" stroke="none"/><path d="M230.10318,202.98689l-0.51143,0.13817c0,0 -0.84307,-0.46514 -1.10307,-0.75823c-0.55768,-0.62859 -0.80001,-0.90569 -0.37801,-0.85167c0.20983,0.02684 0.48838,0.52011 0.85045,0.80462c0.54102,0.42518 1.14206,0.6671 1.14206,0.6671z" fill="#a58c48" stroke="#000000"/><path d="M227.26164,199.11209c-0.17671,-0.06472 -0.43635,-0.84864 0.06141,-2.09097c0.33349,-0.83241 1.12107,-2.14846 1.54074,-1.93337c0.38324,0.19639 -0.79434,1.29443 -1.1028,2.13649c-0.30843,0.84203 -0.32267,1.9526 -0.49936,1.88788z" fill="#a58c48" stroke="#000000"/><path d="M232.88595,193.9565c0,0 -0.40665,-0.11579 -0.88788,-0.11128c-0.44543,0.00418 -0.84159,0.26885 -0.92394,0.0454c-0.02897,-0.07865 0.10986,-0.40737 0.50893,-0.41734c0.44451,-0.01112 1.03302,0.17092 1.03302,0.17092z" fill="#a58c48" stroke="#000000"/><path d="M233.01813,198.9577c0.81425,-2.421 3.31455,-3.65148 3.31455,-3.65148l0.58133,0.12573c0,0 -3.06511,1.2349 -3.59916,4.69727c-0.33561,2.17563 0.78014,4.04812 0.78014,4.04812c0,0 0.25238,0.14564 -0.30734,-0.06009c-0.55974,-0.20574 -0.34061,-0.18099 -0.34061,-0.18099c0,0 -1.57143,-1.58148 -0.4289,-4.9786z" fill="#edeee6" stroke="none"/><path d="M233.17532,193.9504l0.31476,0.24261c0,0 -3.54056,1.14021 -3.98224,4.56705c-0.27752,2.15334 1.10038,4.07683 1.10038,4.07683l-0.3319,0.07658c0,0 -2.29626,-1.9329 -1.28942,-5.3726c0.79447,-2.71415 4.18841,-3.59049 4.18841,-3.59049z" fill="#edeee6" stroke="none"/><path d="M229.39597,197.63142c0.81801,-2.43136 4.01263,-3.48828 4.01263,-3.48828l3.129,1.15088c0,0 -3.06839,1.24388 -3.60753,4.72014c-0.3388,2.18441 0.77491,4.06245 0.77491,4.06245c0,0 -0.91156,-0.20695 -1.47131,-0.41271c-0.55974,-0.20574 -1.39775,-0.64194 -1.39775,-0.64194c0,0 -2.58779,-1.97896 -1.43997,-5.39058z" fill="#754c86" stroke="none"/><path d="M236.83238,198.56903c-0.46074,1.25787 -0.59151,7.61808 -0.59151,7.61808c0,0 -4.70347,-2.32269 -2.48756,-7.72118c1.16201,-2.83096 3.17223,-3.50015 4.56036,-3.49274c0.88727,0.00471 1.51459,0.48414 1.51459,0.48414c0,0 -2.53515,1.85382 -2.99589,3.1117z" fill="#ffff00" stroke="none"/><path d="M234.33258,199.33237c-0.30881,0.84315 -0.44178,1.99433 -0.54573,1.95626c-0.10395,-0.03806 -0.28749,-0.96361 0.1078,-2.15937c0.21893,-0.66222 0.89413,-1.84204 1.29234,-1.89627c0.26912,-0.03665 -0.6145,1.44448 -0.85438,2.0994z" fill="#a58c48" stroke="#000000"/><path d="M234.56973,204.86296l-0.39976,-0.42395c0,0 -0.62739,-1.48494 -0.27457,-1.23202c0.22642,0.1623 0.67436,1.65597 0.67436,1.65597z" fill="#a58c48" stroke="#000000"/><path d="M236.33709,196.07456c-0.35347,-0.12946 1.02727,-0.9773 1.02727,-0.9773l0.83236,-0.06089c0,0 -1.50621,1.16769 -1.85966,1.03825z" fill="#a58c48" stroke="#000000"/><path d="M241.32941,202.3593c-0.91219,2.58963 -3.47637,4.38953 -5.09806,3.79553c-1.62171,-0.594 -2.14366,-3.71089 -1.23549,-6.30193c0.94806,-2.70483 3.16345,-5.03225 4.78517,-4.43823c2.26169,0.8284 2.6443,3.90971 1.57219,6.95333z" fill="#ffff00" stroke="#000000"/><path d="M238.24372,205.57501c-0.9772,-0.35792 -1.08716,-2.51049 -0.24567,-4.8079c0.8415,-2.29741 2.31584,-3.86967 3.29302,-3.51178c0.9772,0.35792 1.08715,2.5105 0.24567,4.80792c-0.8415,2.29741 -2.31585,3.86967 -3.29301,3.51176z" fill="#ffff00" stroke="#000000"/><path d="M237.31292,193.34631c0,0 -0.45816,-0.39921 -0.82747,-0.5713c-0.36932,-0.17212 -1.00505,-0.28265 -1.00505,-0.28265l2.00494,-3.80753l3.19512,-6.25634c0,0 0.60737,-0.08405 0.82187,0.00645c0.21449,0.09052 0.33991,0.62702 0.33991,0.62702l-2.83881,6.47097z" fill="#fbdd00" stroke="none"/><path d="M236.38932,195.47873l-2.66594,-0.67713c0,0 1.15967,-2.25425 1.49824,-2.32274c0.57338,-0.11604 2.09931,0.69161 2.2185,1.08974c0.03141,0.10488 -0.7166,1.7758 -0.7166,1.7758z" fill="#c8c8c6" stroke="none"/><path d="M228.46631,203.2252c0,0 -3.87933,-1.42514 -2.7838,-6.2713c0.73917,-3.2698 4.43265,-4.01619 4.43265,-4.01619c0,0 -1.43172,0.55555 -2.45477,1.56103c-0.828,0.81379 -1.38284,2.04795 -1.61145,3.17158c-0.15377,0.75585 -0.2977,1.56245 -0.20069,2.15524c0.39991,2.4437 2.61809,3.39962 2.61809,3.39962z" fill="#ffff00" stroke="#000000"/><path d="M240.67079,185.74419c0,0 -0.38061,-0.07802 -0.74992,-0.25013c-0.36932,-0.17212 -0.62508,-0.38748 -0.62508,-0.38748l1.38469,-2.67815c0,0 0.60737,-0.08404 0.82189,0.00647c0.21449,0.09052 0.33991,0.62702 0.33991,0.62702z" fill="#a56402" stroke="none"/></g><g stroke="none" stroke-linecap="butt" stroke-linejoin="miter"><path d="M237.92441,184.04375l2.27072,-1.18445c0,0 0.37934,-0.0124 0.846,0.34159c0.30309,0.22988 0.53818,0.81265 0.53818,0.81265c0,0 0.10575,-0.73394 0.68752,-0.57912c0.37352,0.09939 0.60766,1.23254 0.59344,1.64733c-0.00837,0.24421 -0.16911,0.66489 -0.4251,0.90549c-0.16147,0.15178 -0.46434,0.19432 -0.46434,0.19432c0,0 0.06499,0.38735 -0.34045,0.49245c-0.12423,0.03218 -0.28496,0.11124 -0.28496,0.11124c0,0 -0.04028,0.29123 -0.12044,0.42719c-0.08019,0.13597 -0.30873,0.26127 -0.30873,0.26127l-0.43252,-0.06652c0,0 -0.30238,0.47644 -0.404,0.53181c-0.39855,0.21723 -0.7886,-0.10098 -0.99905,-0.2704c-0.3853,-0.31022 -1.1289,-1.11672 -1.14263,-1.25746c-0.08612,-0.88332 -0.01359,-2.36738 -0.01359,-2.36738z" data-paper-data="{&quot;index&quot;:null}" fill="#ffffff" stroke-width="0"/><path d="M236.05614,177.46927c-0.08833,-0.38152 0.07514,-0.5265 0.27948,-0.59325c0.30416,-0.09935 0.521,0.01396 0.63045,0.30774c0.43674,1.1725 0.84003,2.18966 1.1905,2.97792c0.21365,0.48055 1.11573,2.32559 1.11573,2.32559c0,0 -0.10244,0.04294 -0.33189,0.27239c-0.22946,0.22949 -0.77282,0.24564 -0.77282,0.24564c0,0 -0.43679,-1.07646 -0.96642,-2.26764c-0.37044,-0.83315 -0.87831,-2.11627 -1.14505,-3.26839z" data-paper-data="{&quot;index&quot;:null}" fill="#fff9fb" stroke-width="0"/><path d="M241.2522,185.7318l-0.49574,-0.12972l0.12972,-0.49575l0.49575,0.12972z" data-paper-data="{&quot;index&quot;:null}" fill="#baba3e" stroke-width="NaN"/><path d="M240.45487,186.30632l-0.49575,-0.12972l0.12972,-0.49575l0.49575,0.12972z" data-paper-data="{&quot;index&quot;:null}" fill="#baba3e" stroke-width="NaN"/><path d="M239.57716,186.92787l-0.49575,-0.12972l0.12972,-0.49575l0.49575,0.12972z" data-paper-data="{&quot;index&quot;:null}" fill="#baba3e" stroke-width="NaN"/><path d="M238.32737,187.53169l0.10741,-0.59805l0.33238,0.1873l0.15344,0.33803z" data-paper-data="{&quot;index&quot;:null}" fill="#baba3e" stroke-width="0"/><g stroke-width="0"><path d="M239.44889,184.19453c-0.74599,0.43652 -1.41867,0.67428 -1.95635,-0.24456c-0.53768,-0.91883 -0.00088,-1.38882 0.74512,-1.82534c0.74599,-0.43652 1.43334,-0.68287 1.95636,0.24456c0.5229,0.92719 0.00088,1.38883 -0.74512,1.82535z" data-paper-data="{&quot;index&quot;:null}" fill="#fed000"/><path d="M239.33747,184.00416c-0.97199,0.56876 -1.81535,0.93507 -2.25411,0.18527c-0.43878,-0.74981 0.29373,-1.30562 1.26571,-1.87437c0.97199,-0.56876 1.83447,-0.94623 2.25412,-0.18528c0.41956,0.7608 -0.29373,1.30562 -1.26572,1.87438z" data-paper-data="{&quot;index&quot;:null}" fill="#e68b9c"/></g></g><g><path d="M232.84061,171.61872c0,0 0.4086,-0.81829 1.14332,-1.1226c0.65566,-0.27159 1.0111,-0.16726 1.59047,0.20101c0.87763,0.55785 0.87089,1.95719 0.87089,1.95719c0,0 -0.2162,-2.0445 -1.83327,-2.09802c-1.00044,-0.03311 -1.77141,1.06242 -1.77141,1.06242z" data-paper-data="{&quot;index&quot;:null}" fill="#000000" stroke="none" stroke-width="0" stroke-linecap="butt" stroke-linejoin="miter"/><path d="M232.53698,166.58908c3.20987,-0.91661 6.45282,0.5845 7.24331,3.35281c0.79051,2.7683 -1.17078,5.75549 -4.38064,6.67208c-3.20987,0.91661 -6.45282,-0.58449 -7.24332,-3.35278c-0.79051,-2.7683 1.17077,-5.75549 4.38065,-6.67211z" data-paper-data="{&quot;index&quot;:null}" fill="#f79eb4" stroke="none" stroke-width="0" stroke-linecap="butt" stroke-linejoin="miter"/><path d="M229.23747,174.26639c-0.00037,-0.00062 0.5103,1.06825 1.07919,1.57914c0.56892,0.51086 2.53484,1.74267 2.53484,1.74267l0.52193,0.79853c0,0 -1.43874,0.35083 -3.19862,-1.40266c-1.09502,-1.08498 -1.35754,-2.11292 -1.34707,-2.09913" data-paper-data="{&quot;index&quot;:null}" fill="#f79eb4" stroke="#f89db5" stroke-width="0" stroke-linecap="butt" stroke-linejoin="round"/><path d="M232.65598,174.23923c0.96821,-1.10594 0.03927,-0.68503 2.31287,-2.40657c0.41616,-0.16439 1.16257,-1.24373 1.44325,0.89899c0.0934,0.71305 0.05817,1.83311 -1.01701,2.73229c-0.58049,0.35626 -2.25781,0.04397 -2.91993,0.18562c-1.16247,0.24874 -0.8575,0.71912 -1.42875,0.8503c-0.14298,0.03283 -1.16423,-0.58494 -1.79882,-1.68016c-0.29923,-0.51645 -0.15961,-0.38627 -0.09372,-0.40333c0.43483,-0.11262 0.6781,-0.06832 1.20573,0.33152c0.36905,0.27967 0.86979,0.27302 1.18752,0.15659c0.18522,-0.06787 0.37945,-0.10969 0.62185,-0.80281z" fill="#ffffff" stroke="none" stroke-width="0" stroke-linecap="butt" stroke-linejoin="miter"/><g data-paper-data="{&quot;index&quot;:null}" fill="#ffd5c5" stroke="none" stroke-width="1" stroke-linecap="round" stroke-linejoin="round"><path d="M230.78219,176.31627c-0.00364,-0.05955 0.11936,0.0274 0.17204,0.05541c0.32558,0.17282 0.52848,-0.19274 0.67585,-0.39547c0.11326,-0.15573 0.33463,-0.28448 0.51533,-0.33838c0.8721,-0.25027 2.71227,-0.16191 3.01765,-0.2352c0.28422,-0.06822 0.97126,-0.75233 1.24056,-0.93903c0.2763,-0.19154 0.56419,-0.16871 0.62092,-0.14601c0.11896,0.04764 0.94685,0.33033 0.30789,1.58667c-0.08878,0.17456 -0.75315,0.91344 -1.19256,1.09705c-0.36846,0.15392 -1.64166,0.72348 -2.74352,0.67397c-0.87813,-0.03946 -1.47349,-0.27729 -1.54955,-0.30794c-0.46485,-0.18741 -1.03101,-0.5046 -1.06464,-1.05102z"/><path d=""/></g><g data-paper-data="{&quot;index&quot;:null}" fill="#000000" stroke="none" stroke-width="1" stroke-linecap="round" stroke-linejoin="round"><path d="M232.06426,176.35122c-0.10369,0.03726 -0.53535,-0.09612 -0.41536,-0.25072c0.06938,-0.08938 0.56199,-0.29092 0.73516,-0.22799c0.22782,0.08281 -0.09966,0.37889 -0.31981,0.47872z"/><path d=""/></g><path d="M238.40026,170.79799c0.02572,0.00697 0.50046,2.25224 0.50195,2.79554c0.00225,0.8152 -0.13668,1.63154 -0.47484,2.37632c-0.14379,0.31664 -0.30838,0.59119 -0.50237,0.87627c-0.06278,0.0923 -0.34239,0.41592 -0.34239,0.41592c0,0 0.08589,-1.09396 -0.32998,-2.69951c-0.22086,-0.85258 -0.87156,-2.69338 -0.83732,-2.64802" data-paper-data="{&quot;index&quot;:null}" fill="#f79eb4" stroke="#f89db5" stroke-width="0" stroke-linecap="butt" stroke-linejoin="round"/><path d="M239.54284,169.77532c0.27152,0.2963 0.68524,2.11911 0.70337,3.52708c0.01397,1.08504 -0.17696,1.43319 -0.50108,2.10523c-0.3671,0.76108 -0.74514,0.93502 -0.74514,0.93502c0,0 0.13185,-1.23967 0.05899,-2.02815c-0.07285,-0.7885 -0.5583,-3.56268 -0.57639,-3.57273" data-paper-data="{&quot;index&quot;:null}" fill="#f79eb4" stroke="#f89db5" stroke-width="0" stroke-linecap="butt" stroke-linejoin="round"/><g data-paper-data="{&quot;index&quot;:null}" fill="#ff4488" stroke="none" stroke-width="1" stroke-linecap="round" stroke-linejoin="round"><path d="M229.07129,169.61569c0.05611,-0.13874 1.68947,-2.46632 4.45516,-2.78002c3.42919,-0.3501 4.8793,3.50358 4.87677,3.50364c-0.03506,0.0007 -0.98821,-1.3591 -2.02124,-1.77985c-1.33949,-0.54559 -2.11569,-0.86292 -3.37648,-0.72845c-1.59963,0.17062 -3.33988,2.11405 -3.4078,2.1916"/><path d=""/></g><path d="M229.75544,172.31398c-0.03538,-0.01512 -0.70937,0.08508 -1.1958,0.44853c-0.89088,0.66562 -0.54273,1.22624 -0.56438,1.23495c-0.01511,0.00603 -0.28663,-0.89776 -0.16285,-1.63907c0.04979,-0.79047 -0.80043,-0.41903 -0.51682,-0.58262c1.59423,-0.90823 2.34492,-0.60628 2.31803,-0.61775" data-paper-data="{&quot;index&quot;:null}" fill="#f79eb4" stroke="#f89db5" stroke-width="0" stroke-linecap="butt" stroke-linejoin="round"/><path d="M229.62614,171.16264c-0.12287,-0.05172 -0.99542,-0.55551 -2.04733,-0.45842c-0.75818,0.07 -0.10465,0.43881 -0.10465,0.43881c0,0 -1.63496,-0.89808 0.31789,-1.55134c0.58994,-0.13575 0.77049,-0.11547 1.11024,0.05085c0.33974,0.1663 1.52514,1.24179 1.55667,1.31919" data-paper-data="{&quot;index&quot;:null}" fill="#f79eb4" stroke="#f89db5" stroke-width="0" stroke-linecap="butt" stroke-linejoin="round"/><g data-paper-data="{&quot;index&quot;:null}" stroke="none" stroke-width="1" stroke-linecap="round" stroke-linejoin="round"><g fill="#f79eb4"><path d="M232.92094,168.29112c0.0009,-0.1585 0.71956,-1.16701 1.3704,-1.73779c0.65085,-0.57076 1.3279,-0.99359 1.54438,-0.81835c0.16559,0.13405 0.45941,0.95232 0.64261,1.60338c0.18318,0.65105 0.19393,1.29187 0.2708,1.64308"/></g><g fill="#ffd5c5"><path d="M233.62208,168.26228c0.05179,-0.18175 0.35551,-0.6628 0.70557,-0.97987c0.35006,-0.31706 1.09525,-0.82595 1.20206,-0.74797c0.02634,0.01924 0.29985,0.72511 0.42298,1.21023c0.12314,0.48512 0.11972,0.89512 0.1329,0.97959"/></g></g><g data-paper-data="{&quot;index&quot;:null}" fill="#f79eb4" stroke="none" stroke-width="1" stroke-linecap="round" stroke-linejoin="round"><path d="M227.79858,171.89213c-0.01171,-0.01002 -0.68241,-0.68026 -1.02716,-1.39698c-0.22087,-0.45916 -0.28543,-1.11088 -0.25055,-1.14487c0.17028,-0.16588 0.98293,-0.32867 1.63409,-0.46756c0.65117,-0.13891 0.97128,-0.15782 1.27922,-0.15384"/><path d=""/></g><path d="M228.30951,174.70954c-0.43229,-0.09489 -1.07156,-0.5266 -1.07156,-0.5266c0,0 0.68041,0.27543 1.14333,0.31529c0.4629,0.03985 0.7116,-0.10551 0.7116,-0.10551l0.1448,0.31653c0,0 -0.49589,0.09521 -0.92818,0.00032z" data-paper-data="{&quot;index&quot;:null}" fill="#000000" stroke="none" stroke-width="0" stroke-linecap="butt" stroke-linejoin="miter"/><path d="M228.59309,175.24085c-0.44086,-0.0388 -1.32483,-0.30227 -1.32483,-0.30227c0,0 0.90478,0.1032 1.36897,0.08351c0.46421,-0.0197 0.69225,-0.1957 0.69225,-0.1957l0.18411,0.2954c0,0 -0.47964,0.15788 -0.92051,0.11908z" data-paper-data="{&quot;index&quot;:null}" fill="#000000" stroke="none" stroke-width="0" stroke-linecap="butt" stroke-linejoin="miter"/><path d="M230.09014,173.28042c-0.08749,0.11265 -0.81309,0.87888 -0.94829,1.21534c-0.39619,1.00281 -0.38361,1.47505 -0.3433,1.48928c0.00186,0.00068 -0.19331,-0.82269 -0.33655,-1.4161c-0.05763,-0.1396 0.08563,-1.01871 0.2838,-1.22425c0.6899,-0.71544 1.12601,-1.00145 1.09509,-0.96167" data-paper-data="{&quot;index&quot;:null}" fill="#f79eb4" stroke="#f89db5" stroke-width="0" stroke-linecap="butt" stroke-linejoin="round"/><g data-paper-data="{&quot;index&quot;:null}" stroke="none" stroke-linecap="butt" stroke-linejoin="miter"><path d="M234.1534,173.90595c0.24207,0.67876 0.26029,1.29246 0.04071,1.37078c-0.21958,0.07831 -0.59386,-0.40842 -0.83594,-1.08717c-0.24207,-0.67876 -0.26028,-1.29246 -0.04069,-1.37079c0.21958,-0.07831 0.59386,0.40842 0.83592,1.08718z" fill="#169c5b" stroke-width="NaN"/><path d="M233.97861,174.13946c0.10111,0.28349 0.10487,0.54122 0.00836,0.57562c-0.09649,0.03442 -0.25669,-0.16751 -0.35779,-0.45102c-0.10111,-0.28349 -0.10487,-0.54122 -0.00836,-0.57563c0.09649,-0.03442 0.25669,0.16752 0.35779,0.45103z" fill="#000000" stroke-width="0"/><path d="M233.67646,173.52062c0.10231,0.28684 0.09082,0.55301 -0.02562,0.59454c-0.11645,0.04153 -0.29377,-0.15731 -0.39606,-0.44415c-0.10231,-0.28684 -0.09082,-0.55301 0.02562,-0.59455c0.11645,-0.04153 0.29378,0.15732 0.39606,0.44415z" fill="#ffffff" stroke-width="0"/></g><path d="M235.15781,171.79496c-0.58415,0.16682 -2.04416,1.71487 -2.04416,1.71487c0,0 0.41384,-2.42311 1.55581,-2.79783c1.14196,-0.37473 1.68621,1.50857 1.68621,1.50857c0,0 -0.6137,-0.59243 -1.19785,-0.42561z" data-paper-data="{&quot;index&quot;:null}" fill="#e569c4" stroke="none" stroke-width="0" stroke-linecap="butt" stroke-linejoin="miter"/><g data-paper-data="{&quot;index&quot;:null}" stroke="none" stroke-linecap="butt" stroke-linejoin="miter"><path d="M231.00183,175.31312c0.17073,0.47875 0.1836,0.91164 0.02871,0.96686c-0.1549,0.05523 -0.41885,-0.28809 -0.58961,-0.76683c-0.17073,-0.47875 -0.18359,-0.91164 -0.0287,-0.96686c0.1549,-0.05523 0.41885,0.28808 0.5896,0.76682z" fill="#169c5b" stroke-width="NaN"/><path d="M230.87856,175.47781c0.07133,0.19996 0.07396,0.38174 0.00589,0.40601c-0.06806,0.02428 -0.18104,-0.11816 -0.25236,-0.31811c-0.07133,-0.19996 -0.07396,-0.38174 -0.0059,-0.40601c0.06806,-0.02428 0.18102,0.11814 0.25234,0.31811z" fill="#000000" stroke-width="0"/><path d="M230.66546,175.04132c0.07214,0.20232 0.06405,0.39003 -0.01807,0.41934c-0.08214,0.02929 -0.2072,-0.11096 -0.27937,-0.31325c-0.07214,-0.20232 -0.06407,-0.39005 0.01807,-0.41936c0.08214,-0.02929 0.2072,0.11097 0.27937,0.31327z" fill="#ffffff" stroke-width="0"/></g><path d="M236.60244,175.73688c0,0 -0.27727,0.23333 -0.46198,0.30846c-0.1847,0.07512 -0.73483,0.23899 -0.73483,0.23899" data-paper-data="{&quot;index&quot;:null}" fill="none" stroke="#000000" stroke-width="0.125" stroke-linecap="round" stroke-linejoin="miter"/><path d="M236.38047,172.32682l-0.2604,-0.24978c0,0 0.47514,-0.12012 0.83721,-0.41128c0.36206,-0.29116 0.7899,-0.89072 0.7899,-0.89072c0,0 -0.29003,0.7148 -0.59598,1.03459c-0.30595,0.31978 -0.77073,0.5172 -0.77073,0.5172z" data-paper-data="{&quot;index&quot;:null}" fill="#000000" stroke="none" stroke-width="0" stroke-linecap="butt" stroke-linejoin="miter"/><path d="M237.46563,172.35738c-0.41233,0.16083 -1.14449,0.20952 -1.14449,0.20952l-0.1369,-0.32191c0,0 0.69731,0.138 1.14841,0.0268c0.45111,-0.1112 1.25969,-0.6437 1.25969,-0.6437c0,0 -0.7144,0.56846 -1.12671,0.72928z" data-paper-data="{&quot;index&quot;:null}" fill="#000000" stroke="none" stroke-width="0" stroke-linecap="butt" stroke-linejoin="miter"/><path d="M237.8489,170.03702c0,0 0.26351,-0.20747 0.41904,-0.13459c0.15552,0.07289 0.36398,0.46259 0.33585,0.54488c-0.02541,0.0743 -0.35722,0.20696 -0.35722,0.20696z" data-paper-data="{&quot;index&quot;:null}" fill="#f7bf74" stroke="none" stroke-width="0" stroke-linecap="butt" stroke-linejoin="miter"/><path d="M237.92881,174.01515c0.27094,-0.16408 0.99953,-0.62269 0.9279,-1.13308c-0.08838,-0.6295 0.05669,-0.80552 0.21278,-0.83131c0.20649,-0.0341 0.19447,0.22842 0.13004,0.65597c-0.0759,0.50356 -0.49961,1.28755 -1.36419,1.78048c-0.2423,0.13816 -0.65339,0.20374 -0.69239,0.13934c-0.05084,-0.08393 0.31138,-0.32406 0.78584,-0.61141z" data-paper-data="{&quot;index&quot;:null}" fill="#212121" stroke="none" stroke-width="0" stroke-linecap="butt" stroke-linejoin="miter"/><path d="M238.48504,173.94925l-0.12007,-0.19827l0.07931,-0.04803l0.12006,0.19826z" data-paper-data="{&quot;index&quot;:null}" fill="#b3916f" stroke="none" stroke-width="0" stroke-linecap="butt" stroke-linejoin="miter"/><path d="M239.06614,172.52248c0.00477,-0.10965 0.02933,-0.27971 0.02933,-0.27971c0,0 0.17526,0.1127 0.16931,0.24972c-0.00596,0.13702 -0.16671,0.38097 -0.16671,0.38097c0,0 -0.03668,-0.24135 -0.03192,-0.35099z" data-paper-data="{&quot;index&quot;:null}" fill="#cc7889" stroke="none" stroke-width="0" stroke-linecap="butt" stroke-linejoin="miter"/><g data-paper-data="{&quot;index&quot;:null}" stroke="none" stroke-width="0" stroke-linecap="butt" stroke-linejoin="miter"><g data-paper-data="{&quot;index&quot;:null}"><path d="M239.77909,165.14358c0,0 0.03665,0.45787 -0.29009,1.55098c-0.65147,2.17935 -1.87206,2.35215 -1.87206,2.35215c0,0 -0.52908,-0.72232 -0.09545,-1.74784c0.44433,-1.05085 2.25759,-2.15528 2.25759,-2.15528z" data-paper-data="{&quot;index&quot;:null}" fill="#ce204f"/><path d="M238.24251,166.44284c-0.85047,0.76052 -0.65213,2.54685 -0.65213,2.54685c0,0 -1.52176,-1.14124 0.14194,-2.69236c0.83449,-0.77801 2.07967,-1.163 2.07967,-1.163c0,0 -0.71902,0.54799 -1.56949,1.30851z" fill="#ff4488"/></g><g data-paper-data="{&quot;index&quot;:null}"><path d="M237.69867,169.14623c0,0 0.81023,-0.68694 1.44343,-0.8474c1.25341,-0.3176 2.61445,0.63919 2.61445,0.63919c0,0 -1.2408,0.50957 -2.04348,0.81387c-1.09536,0.41525 -2.0144,-0.6057 -2.0144,-0.6057z" fill="#f5e4ec"/><path d="M239.20634,168.42083c1.04453,-0.26468 2.17872,0.53263 2.17872,0.53263c0,0 -1.03401,0.42468 -1.7029,0.67826c-0.91284,0.34605 -1.67867,-0.50475 -1.67867,-0.50475c0,0 0.67518,-0.57244 1.20284,-0.70615z" fill="#e2c1c1"/></g></g></g></g></g></svg>