<svg version="1.1" xmlns="http://www.w3.org/2000/svg" xmlns:xlink="http://www.w3.org/1999/xlink" width="25.0909" height="25.0909" viewBox="0,0,25.0909,25.0909"><defs><radialGradient cx="240.00002" cy="180.00002" r="12.54545" gradientUnits="userSpaceOnUse" id="color-1"><stop offset="0" stop-color="#000000"/><stop offset="1" stop-color="#000000" stop-opacity="0.50196"/></radialGradient></defs><g transform="translate(-227.45456,-167.45456)"><g data-paper-data="{&quot;isPaintingLayer&quot;:true}" fill-rule="nonzero" stroke="none" stroke-miterlimit="10" stroke-dasharray="" stroke-dashoffset="0" style="mix-blend-mode: normal"><path d="M227.45456,180.00002c0,-6.92866 5.61679,-12.54545 12.54545,-12.54545c6.92866,0 12.54545,5.61679 12.54545,12.54545c0,6.92866 -5.61679,12.54545 -12.54545,12.54545c-6.92866,0 -12.54545,-5.61679 -12.54545,-12.54545z" fill="url(#color-1)" stroke-width="0" stroke-linecap="butt" stroke-linejoin="miter"/><path d="" fill="#000000" stroke-width="1" stroke-linecap="round" stroke-linejoin="round"/><path d="" fill="#ee1a40" stroke-width="1" stroke-linecap="round" stroke-linejoin="round"/><g stroke-width="0" stroke-linecap="butt" stroke-linejoin="miter"><path d="M242.78147,177.26109c0,0 0.44306,5.49203 -0.05796,8.95615c-0.2567,1.77485 -0.88283,1.687 -1.87721,1.65532c-0.99438,-0.03168 -1.4119,-0.81313 -1.44907,-1.68002c-0.03717,-0.8669 0.9761,-2.89397 1.10516,-6.34136c0.09817,-2.62249 -0.94857,-5.94462 -0.1274,-7.63335c1.90064,-3.90865 4.50343,0.69771 4.86115,1.56256c0.45517,1.10045 0.65264,1.68872 0.65264,1.68872l-3.10728,1.79198z" data-paper-data="{&quot;index&quot;:null}" fill="#fedeb5"/><path d="M236.38208,177.71887c0,0 0.48853,6.24432 -0.06392,10.18294c-0.28305,2.01796 -0.97345,1.91808 -2.06989,1.88206c-1.09644,-0.03602 -1.45535,-0.91451 -1.52949,-1.89505c-0.07413,-0.98053 0.6288,-2.63948 0.86329,-6.91629c0.14694,-2.67997 -1.12503,-7.29876 -0.31769,-9.01074c2.09572,-4.44404 5.42987,0.81628 5.82432,1.7996c0.50189,1.25119 0.71963,1.92005 0.71963,1.92005l-3.42622,2.03743z" data-paper-data="{&quot;index&quot;:null}" fill="#fedeb5"/><path d="M244.26602,184.58751c0,0 0.81482,-0.29368 1.19741,-0.52496c0.38259,-0.2313 0.93883,-0.64343 0.93883,-0.64343c0,0 -0.12328,1.07707 -0.21564,1.53171c-0.07009,0.3451 -0.13997,1.05731 -0.53941,1.1343c-0.32815,0.06326 -1.38118,-1.49761 -1.38118,-1.49761z" data-paper-data="{&quot;index&quot;:null}" fill="#fedeb5"/><path d="M240.84375,185.29422c-3.60295,-0.04463 -6.3983,-2.47973 -6.44292,-6.03691c-0.04182,-3.33383 2.4384,-6.12614 6.44292,-6.0369c3.55745,0.07929 6.44292,1.58735 6.44292,6.0369c0,4.18185 -2.88486,6.08098 -6.44292,6.03691z" data-paper-data="{&quot;index&quot;:null}" fill="#fedeb5"/><path d="M244.82108,182.44545c0,0 0.13865,-0.87387 0.30628,-2.89221c0.22684,-2.73134 0.13112,-3.67886 0.90446,-3.42502c0.62441,0.20496 1.61055,1.64843 1.11345,4.68369c-0.12123,0.96944 -0.60756,1.96002 -0.60756,1.96002c0,0 -0.30339,0.28457 -0.59058,0.25962c-0.28718,-0.02495 -0.39737,-0.22617 -0.62747,-0.36542c-0.2648,-0.16027 -0.4986,-0.22067 -0.4986,-0.22067z" data-paper-data="{&quot;index&quot;:null}" fill="#fedeb5"/><path d="M242.64735,183.11338c0,0 -1.37452,0.8191 -2.86475,0.189c-0.85406,-0.36112 -1.96588,-1.70361 -2.32086,-2.66603c-0.97665,-2.64782 -0.1693,-4.18029 1.15601,-4.65531c1.23871,-0.44398 2.84564,0.62029 3.61504,2.60791c0.76939,1.98761 0.41457,4.52443 0.41457,4.52443z" data-paper-data="{&quot;index&quot;:null}" fill="#fedeb5"/><path d="M242.57627,179.99788c0.4063,1.81607 0.07311,3.07933 0.07311,3.07933c0,0 -0.12514,0.3101 -1.31509,0.41995c-0.92464,0.08536 -1.39096,-0.30277 -1.39096,-0.30277c0,0 -0.75363,-0.8762 -0.99124,-2.18793c-0.34396,-1.89878 0.06692,-3.25306 1.03525,-3.5439c0.96834,-0.29083 2.21727,0.87418 2.58893,2.53533z" data-paper-data="{&quot;index&quot;:null}" fill="#ffffff"/><path d="M241.03731,182.76332c-0.40525,0.02029 -0.79243,-0.8707 -0.8648,-1.99011c-0.07238,-1.11941 0.19747,-2.04332 0.60272,-2.06363c0.40525,-0.02029 0.79243,0.8707 0.8648,1.99011c0.07238,1.11941 -0.19747,2.04331 -0.60272,2.06363z" fill="#fedeb5"/><path d="M245.81079,177.79499c0.42576,0.25388 0.60864,1.42115 0.45685,3.06143c-0.10487,1.13315 -0.54999,2.12921 -0.54999,2.12921c0,0 -0.28588,-0.21124 -0.48435,-0.31403c-0.19846,-0.10277 -0.38245,-0.20117 -0.38245,-0.20117c0,0 0.03711,-0.78107 0.16565,-2.41759c0.11308,-1.43991 0.3162,-2.54294 0.7943,-2.25785z" data-paper-data="{&quot;index&quot;:null}" fill="#ffffff"/><path d="M244.95468,182.28045c-0.27863,-0.00795 -0.48535,-0.76312 -0.46173,-1.68669c0.02362,-0.92358 0.26865,-1.66585 0.54727,-1.6579c0.27863,0.00795 0.48535,0.76312 0.46172,1.68669c-0.02362,0.92358 -0.26865,1.66585 -0.54726,1.6579z" fill="#fedeb5"/><path d="M244.85112,182.46533c0,0 -0.53119,-0.12284 -0.89963,-0.02364c-0.3649,0.09824 -1.29254,0.5641 -1.29254,0.5641c0,0 0.20556,-0.7967 0.02524,-2.37899c-0.17478,-1.53385 -0.50625,-2.16046 -0.50625,-2.16046l3.0535,-0.62245z" data-paper-data="{&quot;index&quot;:null}" fill="#fedeb5"/><path d="M246.56969,182.71847c0,0 0.0043,0.49746 -0.17873,0.70672c-0.65686,0.75096 -2.11844,1.77022 -5.19484,1.96018c-3.23159,0.19954 -4.51364,-1.95244 -3.36398,-2.63341c1.00891,-0.5976 1.90794,0.76767 3.39332,0.72774c1.22934,-0.03304 2.14716,-0.97688 3.11892,-1.07954c0.71114,-0.07513 1.25541,0.62207 1.49452,0.61346c0.25931,-0.00933 0.73079,-0.29513 0.73079,-0.29513z" data-paper-data="{&quot;index&quot;:null}" fill="#fedeb5"/><path d="M244.01518,175.12342c0.1096,0.53156 0.06642,1.19443 -0.16021,1.21244c-0.1213,0.00963 -0.6038,-0.38852 -1.19718,-0.92875c-0.36385,-0.33126 -0.8137,-0.55628 -1.30619,-0.88054c-0.91018,-0.59928 -2.32553,-1.13343 -2.32553,-1.13343c0,0 0.78906,-0.24364 2.36903,-0.16652c1.08354,0.05289 2.13688,0.39345 2.13688,0.39345c0,0 0.24066,0.32704 0.4832,1.50335z" data-paper-data="{&quot;index&quot;:null}" fill="#fedeb5"/><path d="M238.08036,184.64576c0,0 -1.88063,1.90835 -2.32314,1.73417c-0.53862,-0.212 -0.45037,-1.22651 -0.45831,-1.72755c-0.01045,-0.66009 0.09839,-2.19889 0.09839,-2.19889c0,0 0.67044,0.72177 1.14521,1.14521c0.47478,0.42343 1.53785,1.04703 1.53785,1.04703z" data-paper-data="{&quot;index&quot;:null}" fill="#fedeb5"/></g></g></g></svg>