<svg version="1.1" xmlns="http://www.w3.org/2000/svg" xmlns:xlink="http://www.w3.org/1999/xlink" width="29.50419" height="35.99501" viewBox="0,0,29.50419,35.99501"><g transform="translate(-226.63397,-163.56846)"><g data-paper-data="{&quot;isPaintingLayer&quot;:true}" fill-rule="nonzero" stroke-miterlimit="10" stroke-dasharray="" stroke-dashoffset="0" style="mix-blend-mode: normal"><g stroke-linejoin="miter"><path d="M235.28594,199.02767c0,0 2.1355,-0.43956 3.09722,-0.8424c0.77949,-0.32652 1.67003,-4.41692 1.67003,-4.41692c0,0 1.25198,0.59785 0.54448,1.94593c-0.19897,0.37913 -0.31611,1.03278 -0.8474,1.82573c-0.53129,0.79295 -1.07297,1.47489 -1.90828,1.76655c-0.8353,0.29166 -2.35473,0.35979 -3.09401,0.0747c-1.02006,-0.42224 -0.67691,-0.66844 -0.67691,-0.66844z" fill="#947043" stroke="none" stroke-width="0" stroke-linecap="butt"/><path d="M237.04093,191.99166l3.03396,0.0462l0.03462,0.72113l-0.18854,0.04203c0,0 0.2,0.21724 0.21326,0.29275c0.05803,0.33078 -0.08484,0.2867 -0.08484,0.2867c0,0 0.20936,0.57384 0.33394,0.94836c0.12462,0.37451 -0.45406,1.85076 -0.47977,1.9063c-0.22315,0.4824 -0.48011,1.25203 -1.01098,1.9055c-0.44731,0.55059 -1.6318,0.99572 -2.50846,1.12707c-1.15913,0.04676 -2.41465,-0.44246 -2.41465,-0.44246c0,0 0.08205,-1.5989 0.57215,-2.55192c0.6242,-0.78927 0.87036,-1.18102 1.10157,-1.54375c0.1879,-0.2948 0.57601,-1.11397 0.57601,-1.11397l0.07897,-0.41436l0.21341,-0.29245z" fill="#20201f" stroke="none" stroke-width="0" stroke-linecap="butt"/><path d="M239.32818,192.48624c0,0 0.20101,0.58824 0.31684,1.03634c0.14678,0.56786 0.46981,2.02964 0.46981,2.02964" fill="none" stroke="#c8c7c6" stroke-width="0.125" stroke-linecap="round"/><path d="M240.37914,190.63054c-0.12391,0.73339 0.03697,0.97144 -0.34107,1.3761c-0.37804,0.40465 -0.82123,0.55255 -1.42694,0.51635c-1.08242,-0.18904 -1.39653,-0.32089 -1.76758,-0.68108c-0.12296,-0.18011 -0.25361,-1.25507 -0.01595,-1.91403c0.06231,-0.1728 0.9908,-0.95771 1.72412,-0.81261c0.73332,0.14508 1.9832,0.59344 1.82743,1.51529z" fill="#c274a1" stroke="none" stroke-width="0" stroke-linecap="butt"/><path d="M240.35172,190.6867c-0.12394,0.7334 -1.45366,0.57908 -1.82863,0.48496c-0.45727,-0.11476 -1.96056,-0.52868 -1.72292,-1.18765c0.0623,-0.1728 0.9908,-0.95771 1.72413,-0.81261c0.73332,0.14508 1.98319,0.59344 1.82743,1.51529z" fill="#cacacd" stroke="none" stroke-width="0" stroke-linecap="butt"/><path d="M236.55672,198.52631c-0.02858,0.22963 0.1852,0.32649 0.08289,0.49018c-0.17148,0.27433 -0.38962,0.22449 -0.44788,0.19604c-0.09304,-0.04545 -0.10683,-0.36742 0.02915,-0.73102c0.13599,-0.36361 0.29224,-0.78138 0.29224,-0.78138c0,0 0.07217,0.59655 0.0436,0.82619z" fill="#c8c7c6" stroke="none" stroke-width="0" stroke-linecap="butt"/><path d="M234.37585,196.62351c0,0 0.46488,-1.04729 1.68744,-0.66489c1.74093,0.54454 1.74299,2.69723 1.74299,2.69723" fill="none" stroke="#c8c7c6" stroke-width="0.125" stroke-linecap="round"/><path d="M234.60867,197.38625c0,0 -0.01925,0.44563 -0.036,0.83345c-0.01676,0.38784 -0.15514,0.67888 -0.25855,0.6844c-0.06477,0.00346 -0.28503,-0.03583 -0.33581,-0.35534c-0.03029,-0.19064 0.20435,-0.19634 0.2677,-0.41892c0.06335,-0.22256 0.3627,-0.74359 0.3627,-0.74359z" data-paper-data="{&quot;index&quot;:null}" fill="#c8c7c6" stroke="none" stroke-width="0" stroke-linecap="butt"/></g><path d="M240.46888,184.54235l-0.68091,3.39568l-0.55539,2.17616c0,0 -0.37733,0.19444 -0.62977,0.26746c-0.25242,0.07301 -0.62561,-0.00137 -0.62561,-0.00137l0.44238,-2.26186l0.78367,-3.6643z" fill="#20201f" stroke="none" stroke-width="0" stroke-linecap="butt" stroke-linejoin="miter"/><g stroke-linejoin="miter"><path d="M250.68425,194.45154c0,0 0.1977,-2.17131 0.09059,-3.20846c-0.0868,-0.84066 -3.74406,-2.87755 -3.74406,-2.87755c0,0 0.93479,-1.02519 2.02021,0.04237c0.30526,0.30023 0.89699,0.60164 1.50211,1.33979c0.60512,0.73815 1.10097,1.45409 1.13824,2.33807c0.03727,0.88397 -0.33753,2.35802 -0.82448,2.98307c-0.69954,0.85409 -0.83582,0.45433 -0.83582,0.45433l0.65318,-1.07166z" fill="#947043" stroke="none" stroke-width="0" stroke-linecap="butt"/><path d="M244.45795,190.73424l0.9228,-2.8906l0.70026,0.17567l-0.01438,0.19264c0,0 0.26586,-0.12852 0.34197,-0.11934c0.3334,0.04025 0.24985,0.16422 0.24985,0.16422c0,0 0.60989,-0.03421 1.00443,-0.045c0.39454,-0.01082 1.63995,0.97057 1.68568,1.01125c0.3971,0.35329 1.05935,0.82209 1.53109,1.51946c0.39745,0.58759 0.48051,1.85021 0.35235,2.72736c-0.29092,1.12301 -1.12276,2.18306 -1.12276,2.18306c0,0 -1.50663,-0.54155 -2.27689,-1.28664c-0.57469,-0.826 -0.87836,-1.17509 -1.15862,-1.50142c-0.22775,-0.26522 -0.89943,-0.87391 -0.89943,-0.87391l-0.37375,-0.19557l-0.21811,-0.28895z" fill="#20201f" stroke="none" stroke-width="0" stroke-linecap="butt"/><path d="M245.59369,188.68819c0,0 0.62123,-0.02206 1.08368,-0.00314c0.58601,0.02399 2.07874,0.13809 2.07874,0.13809" fill="none" stroke="#c8c7c6" stroke-width="0.125" stroke-linecap="round"/><path d="M244.12184,187.14487c0.66608,0.33099 0.94052,0.24594 1.21837,0.72495c0.27784,0.47903 0.29104,0.94605 0.08099,1.51533c-0.4944,0.98128 -0.71155,1.24377 -1.16376,1.49461c-0.20799,0.06552 -1.27472,-0.1207 -1.83663,-0.539c-0.14733,-0.10968 -0.62975,-1.22568 -0.27851,-1.88557c0.35123,-0.65987 1.14232,-1.72637 1.97955,-1.31032z" fill="#c274a1" stroke="none" stroke-width="0" stroke-linecap="butt"/><path d="M244.16764,187.1874c0.66609,0.33099 0.13331,1.55907 -0.06536,1.89072c-0.24226,0.40444 -1.07379,1.72347 -1.6357,1.30516c-0.14734,-0.10968 -0.62975,-1.22568 -0.27853,-1.88558c0.35123,-0.65987 1.14233,-1.72636 1.97955,-1.31032z" fill="#cacacd" stroke="none" stroke-width="0" stroke-linecap="butt"/><path d="M250.57236,193.09002c0.21151,0.09385 0.36613,-0.08271 0.49318,0.0626c0.2129,0.24355 0.10206,0.43792 0.05793,0.48547c-0.07044,0.07591 -0.38259,-0.00415 -0.69126,-0.2396c-0.30863,-0.23546 -0.66325,-0.506 -0.66325,-0.506c0,0 0.59189,0.10364 0.80341,0.1975z" fill="#c8c7c6" stroke="none" stroke-width="0" stroke-linecap="butt"/><path d="M249.08671,194.26959c0,0 0.41059,0.17424 0.76795,0.32587c0.35736,0.15166 0.5814,0.38327 0.55034,0.48204c-0.01947,0.06187 -0.13348,0.25439 -0.4505,0.18992c-0.18917,-0.03845 -0.11226,-0.2602 -0.29851,-0.39754c-0.18624,-0.13732 -0.56926,-0.60032 -0.56926,-0.60032z" data-paper-data="{&quot;index&quot;:null}" fill="#c8c7c6" stroke="none" stroke-width="0" stroke-linecap="butt"/><path d="M248.11953,194.62641c0,0 -0.8678,-0.74824 -0.14774,-1.80767c1.02536,-1.50865 3.08641,-0.88722 3.08641,-0.88722" fill="none" stroke="#c8c7c6" stroke-width="0.125" stroke-linecap="round"/><g fill="#83c4ac" stroke="none" stroke-width="0" stroke-linecap="butt"><path d="M246.51691,189.53625c-0.07454,0.10878 -0.76569,0.19317 -0.76569,0.19317l0.02243,-1.03383l0.1912,-0.09959c0,0 0.61526,0.84803 0.55208,0.94023z"/><path d="M245.74084,187.79083c0.11847,-0.05792 0.63134,0.11494 0.63134,0.11494l-0.35349,0.73482l-0.27304,0.09725c0,0 -0.10522,-0.89791 -0.00482,-0.94701z" data-paper-data="{&quot;index&quot;:null}"/><path d="M247.59448,189.39817c-0.05407,0.12027 -0.71931,0.32587 -0.71931,0.32587l-0.19789,-0.99608l0.20718,-0.15724c0,0 0.75586,0.72552 0.71006,0.82746z"/><path d="M246.39735,187.83845c0.09817,-0.08809 0.63872,-0.06175 0.63872,-0.06175l-0.13946,0.80341l-0.23614,0.16809c0,0 -0.34635,-0.83509 -0.26315,-0.90974z" data-paper-data="{&quot;index&quot;:null}"/><path d="M248.37842,189.37684l-0.86542,-0.45293c0,0 -0.38581,-0.04029 -0.38528,-0.2119c0.00055,-0.1716 0.38608,-0.03781 0.38608,-0.03781l0.88276,0.00762l0.2427,0.31324z"/></g></g><path d="M243.33683,184.46306l-1.58454,2.35971l0.7303,0.41205l1.14151,0.72559c0,0 0.06257,0.43563 -0.00116,0.70211c-0.06376,0.26649 -0.34699,0.75318 -0.34699,0.75318l-1.51215,-0.99186c0,0 -0.96169,-0.6049 -1.5607,-1.01457c-0.53235,-0.36407 1.93057,-3.27976 1.93057,-3.27976z" fill="#20201f" stroke="none" stroke-width="0" stroke-linecap="butt" stroke-linejoin="miter"/><g stroke="none" stroke-width="0" stroke-linecap="butt" stroke-linejoin="miter"><path d="M233.71125,173.61529c0.5961,0.60706 1.43558,1.75775 1.43558,1.75775l-0.98065,2.25076c0,0 -0.27551,0.23764 -0.83675,0.25458c-0.36448,0.01101 -0.89074,-0.28214 -0.89074,-0.28214c0,0 0.36304,0.61115 -0.16415,0.84594c-0.33848,0.15075 -1.19541,-0.5535 -1.43455,-0.8715c-0.14079,-0.18719 -0.27418,-0.59777 -0.2281,-0.9314c0.02907,-0.21045 0.22937,-0.42453 0.22937,-0.42453c0,0 -0.28171,-0.24983 -0.04254,-0.57233c0.07328,-0.09882 0.14557,-0.25456 0.14557,-0.25456c0,0 -0.14528,-0.24146 -0.16734,-0.39116c-0.02205,-0.14968 0.07295,-0.38082 0.07295,-0.38082l0.3627,-0.2108c0,0 -0.0613,-0.53749 -0.01887,-0.63995c0.16652,-0.40203 0.64905,-0.39953 0.90805,-0.39985c0.4742,-0.0006 1.51449,0.15328 1.60947,0.25001z" fill="#20201f"/><path d="M237.67666,176.76236c0.85562,0.17864 2.13826,0.50253 3.1839,0.94053c0.34625,0.14504 0.36743,0.35344 0.30487,0.54978c-0.09313,0.29226 -0.30276,0.39745 -0.5926,0.31797c-1.15673,-0.3172 -2.17388,-0.57339 -2.9834,-0.74241c-0.49352,-0.10304 -2.12343,-0.33802 -2.12343,-0.33802l-0.25711,-1.32346c0,0 1.24449,0.3402 2.46778,0.5956z" fill="#fed5c7"/><path d="M236.37176,175.11965c0.65915,0.66816 0.58494,1.70853 0.06411,2.64059c-0.52082,0.93206 -1.4563,1.69136 -2.0996,1.00216c-0.64332,-0.6892 -0.79974,-2.16232 -0.14276,-3.33805c0.65697,-1.17573 1.51911,-0.97287 2.17826,-0.3047z" fill="#20201f"/><path d="M232.45578,177.42943c0,0 0.52398,0.52468 0.05126,0.89745c-0.30351,0.23935 -0.81217,0.07361 -1.13562,-0.18649c-0.19042,-0.15312 1.08436,-0.71096 1.08436,-0.71096z" fill="#c0c2c6"/><path d="M232.68788,176.0337c0,0 0.52398,0.52468 0.05126,0.89745c-0.30351,0.23935 -0.81217,0.07361 -1.13562,-0.18649c-0.19042,-0.15312 1.08436,-0.71096 1.08436,-0.71096z" fill="#c0c2c6"/><path d="M232.93954,174.78607c0,0 0.52398,0.52468 0.05126,0.89745c-0.30351,0.23935 -0.81217,0.07361 -1.13562,-0.18649c-0.19042,-0.15312 1.08436,-0.71096 1.08436,-0.71096z" fill="#c0c2c6"/><path d="M234.59042,175.21478c0,0 0.29558,0.68006 -0.28076,0.85394c-0.37006,0.11165 -0.78276,-0.22876 -0.98856,-0.58919c-0.12116,-0.21219 1.26934,-0.26476 1.26934,-0.26476z" fill="#c0c2c6"/><path d="M233.29415,173.91484c0,0 0.52398,0.52468 0.05126,0.89745c-0.30351,0.23935 -0.81217,0.07361 -1.13562,-0.18649c-0.19042,-0.15312 1.08436,-0.71096 1.08436,-0.71096z" fill="#c0c2c6"/><g><path d="M238.16092,176.69713l1.09967,0.32273l-0.26313,1.41781l-1.10351,-0.2887z" fill="#83c4ac"/><path d="M240.47124,176.92253c0.63807,0.17007 1.06104,0.76653 0.93669,1.36924c-0.12434,0.60271 -0.7453,0.96685 -1.38697,0.81336c-1.14076,-0.27289 -1.24735,-0.78752 -1.12303,-1.39023c0.12434,-0.60271 0.50954,-1.07589 1.57329,-0.79236z" fill="#20201f"/><path d="M236.86102,175.99927l1.33777,0.66767l-0.2708,1.48587l-1.56209,0.09972l-0.04318,-0.66147l0.25672,-1.11289z" fill="#bebec0"/></g></g><g data-paper-data="{&quot;index&quot;:null}" stroke-width="0" stroke-linecap="butt" stroke-linejoin="miter"><g data-paper-data="{&quot;index&quot;:null}"><path d="M233.39834,166.55877c0.16486,-1.0506 1.15334,-1.76816 2.20781,-1.60269c1.05448,0.16547 1.77564,1.15129 1.61078,2.20189c-0.16486,1.0506 -1.15332,1.76816 -2.20779,1.6027c-1.05448,-0.16547 -1.77566,-1.15129 -1.6108,-2.20189z" fill="#c2e266" stroke="none"/><path d="M233.95965,167.28975c0.10184,-0.64906 0.71251,-1.09238 1.36397,-0.99014c0.65147,0.10223 1.097,0.71125 0.99515,1.36033c-0.10184,0.64906 -0.71251,1.09238 -1.36397,0.99014c-0.65147,-0.10223 -1.097,-0.71126 -0.99515,-1.36033z" fill="#c2e266" stroke="#000000"/><path d="M233.03544,170.87994c-0.18003,-1.07437 0.76653,-2.03654 0.76653,-2.03654l2.08009,0.31134c0,0 0.11991,0.22432 0.24664,1.56234c0.13158,1.3893 -1.6706,3.85387 -1.6706,3.85387c0,0 -1.24262,-2.61664 -1.42266,-3.69101z" fill="#e8edf4" stroke="#000000"/><path d="M234.83612,169.23359c-0.50542,-0.07701 -1.30742,-0.49676 -1.30742,-0.49676l0.32081,-0.63942c0,0 0.5582,0.49701 1.00286,0.59285c0.44466,0.09584 1.12672,-0.13385 1.12672,-0.13385l0.20297,0.52775c0,0 -0.76845,0.23741 -1.34594,0.14942z" fill="#dbded5" stroke="#000000"/></g><g data-paper-data="{&quot;index&quot;:null}" stroke="none"><path d="M240.23872,173.87922c0.19874,0.03119 0.30738,0.3909 0.24265,0.80344c-0.06474,0.41255 -0.27832,0.72169 -0.47707,0.69051c-0.19874,-0.03119 -0.3074,-0.39091 -0.24267,-0.80344c0.06474,-0.41255 0.27833,-0.72169 0.47709,-0.69049z" fill="#000000"/><path d="M240.80941,179.30828c0.20703,0.03249 0.6844,1.02352 0.65591,1.20504c-0.02848,0.18152 -0.56344,1.31985 -0.77046,1.28737c-0.20703,-0.03249 -1.19297,-0.52395 -1.19297,-0.52395c0,0 1.1005,-2.00095 1.30752,-1.96846z" fill="#807d5a"/><path d="M236.37475,168.43815l0.1534,-0.129l3.89397,6.58087l-0.14842,0.29306z" fill="#6e6e73"/><path d="M237.91842,170.4152l-0.3499,0.27165l-0.94858,-1.52652l0.37988,-0.26695z" fill="#c2e266"/></g></g><g stroke-width="0" stroke-linecap="butt" stroke-linejoin="miter"><g data-paper-data="{&quot;index&quot;:null}"><path d="M253.27581,173.17596c-1.35272,-0.21227 -2.27789,-1.4769 -2.06639,-2.82466c0.21148,-1.34775 1.47951,-2.26825 2.83224,-2.056c1.35272,0.21227 2.27789,1.47691 2.06639,2.82467c-0.21148,1.34775 -1.47952,2.26825 -2.83224,2.05599z" fill="#c2e266" stroke="none"/><path d="M253.38562,173.06229c-0.83571,-0.13113 -1.40726,-0.91245 -1.27661,-1.74508c0.13066,-0.83265 0.91404,-1.40132 1.74977,-1.27019c0.83571,0.13113 1.40728,0.91242 1.27662,1.74508c-0.13066,0.83265 -0.91405,1.40133 -1.74977,1.2702z" fill="#c2e266" stroke="#000000"/><path d="M254.85335,176.53949c-0.642,1.24124 -3.30568,4.17062 -3.30568,4.17062c0,0 -1.11433,-3.94003 -0.40777,-5.5849c0.6805,-1.58417 0.91506,-1.811 0.91506,-1.811l2.66249,0.43709c0,0 0.77787,1.54692 0.13589,2.78817z" fill="#e8edf4" stroke="#000000"/><path d="M253.30128,173.82146c-0.7398,-0.11944 -1.58491,-0.71131 -1.58491,-0.71131l0.45523,-0.56473c0,0 0.74267,0.54849 1.32334,0.60618c0.58066,0.05768 1.45761,-0.32995 1.45761,-0.32995l0.14053,0.9069c0,0 -1.14431,0.19745 -1.79177,0.09291z" fill="#dbded5" stroke="#000000"/></g><g data-paper-data="{&quot;index&quot;:null}" stroke="none"><path d="M245.7563,180.04422c0.13753,0.45096 -0.30135,2.17166 -0.30135,2.17166l-3.08067,-0.46378c0,0 -0.80322,-1.43085 -0.26727,-2.78791c0.394,-0.99763 2.12283,-2.04002 2.3217,-2.0149c1.28133,0.16178 1.19005,2.64395 1.32758,3.09492z" fill="#c2e266"/><path d="M245.18967,178.40251c-0.08304,0.52922 -0.35704,0.92581 -0.61201,0.88581c-0.25496,-0.04001 -0.39434,-0.50147 -0.3113,-1.03069c0.08304,-0.52922 0.35705,-0.92581 0.61202,-0.8858c0.25496,0.04001 0.39432,0.50145 0.31128,1.03069z" fill="#000000"/><path d="M244.96592,184.35005c-0.27703,0.81443 -0.94545,2.08597 -0.94545,2.08597l-1.24122,0.29385c0,0 -1.32155,-0.78878 -1.17645,-1.54607c0.07205,-0.37603 0.73913,-3.29572 0.73913,-3.29572l1.338,-0.58452c0,0 0.58809,0.14445 0.93138,0.3071c0.3433,0.16265 0.8493,0.59152 0.8493,0.59152c0,0 -0.21769,1.33344 -0.49471,2.14787z" fill="#20201f"/><path d="M242.87154,186.69503c0,0 -1.39711,0.21278 -1.6627,0.1711c-0.26559,-0.04168 -0.47159,-1.64199 -0.43505,-1.87485c0.03654,-0.23286 1.0089,-1.25554 1.27448,-1.21387c0.26559,0.04168 0.82327,2.9176 0.82327,2.9176z" fill="#c274a1"/><path d="M244.3233,178.95031l-0.06609,-0.41619l7.34101,-6.50641l0.13663,0.21782z" fill="#6e6e73"/><path d="M250.79268,172.55588l0.35903,0.47525l-1.75819,1.49143l-0.32055,-0.46923z" fill="#c2e266"/></g></g><g stroke="none" stroke-width="0" stroke-linecap="butt" stroke-linejoin="miter"><path d="M241.56001,182.86066l1.32444,0.14078l2.01351,2.32222l2.60532,-0.03166c0,0 -1.81893,0.97496 -2.70122,0.82574c-0.81194,-0.13733 -3.24205,-3.2571 -3.24205,-3.2571z" fill="#f79db4"/><path d="M243.37119,180.24602c0.4891,-0.4872 1.28056,-0.48567 1.76776,0.00343c0.4872,0.4891 0.48568,1.28055 -0.00343,1.76775c-0.4891,0.4872 -1.06626,0.3295 -1.55347,-0.1596c-0.4872,-0.4891 -0.69997,-1.12439 -0.21086,-1.6116z" fill="#83c4ac"/><path d="M236.72288,181.5105c0,0 0.59242,0.30444 0.82532,0.85832c0.32863,0.78161 0.72848,1.25308 3.10173,1.70722c2.11615,0.40495 2.7904,-0.32369 3.34174,-0.68706c0.66862,-0.44067 0.96415,-0.58332 0.96415,-0.58332l1.72378,0.87614c0,0 -0.52631,0.37089 -0.89232,1.16498c-0.32956,0.88645 -1.0859,1.13608 -1.68794,1.08363c-0.57313,0.29165 -1.15713,1.02522 -1.9337,0.67949c-0.5872,0.56077 -1.41915,0.48512 -2.00018,-0.04613c-0.65024,0.39995 -1.31331,0.0661 -1.55643,-0.38449c-0.9333,0.10951 -1.49934,-0.3991 -1.6655,-0.94169c-0.93322,-0.29159 -1.3097,-1.15395 -1.31288,-1.91129c-0.83012,-0.58531 -0.90904,-1.52335 -0.90904,-1.52335z" fill="#c0c2c6"/><path d="M240.40337,177.48604l0.36881,0.0196l2.32552,0.34535c0,0 -0.44931,1.35556 -0.25089,2.16975c0.19842,0.8142 0.23796,0.97054 0.72577,1.5816c0.4878,0.61105 1.62464,1.35897 1.62464,1.35897c0,0 -0.53048,0.22708 -0.89814,0.6462c-0.23002,0.2622 -0.22826,0.73402 -0.51241,0.85688c-0.48104,0.20797 -0.84612,-0.1664 -1.5884,-0.09163c-0.39708,0.04 -0.93426,0.61546 -1.58315,0.5696c-1.15865,-0.0819 -1.39105,-0.77422 -2.00111,-1.24207c-0.28543,-0.21891 -0.93097,0.05327 -1.28706,-0.34549c-0.26763,-0.29968 0.04887,-0.6335 -0.06377,-0.91944c-0.18957,-0.48121 -0.69636,-0.84863 -0.69636,-0.84863c0,0 0.61948,-0.25012 1.36325,-0.52126c0.74379,-0.27116 1.53565,-0.76826 1.53565,-0.76826c0,0 0.21827,-0.86688 0.41637,-1.47225c0.19811,-0.60537 0.52127,-1.33889 0.52127,-1.33889z" fill="#20201f"/><path d="M242.95573,182.34953l-0.28788,-0.41724l0.71812,-0.63292c0,0 0.08376,0.128 0.24886,0.34769c0.14872,0.1979 0.44679,0.47872 0.44679,0.47872l-0.27971,0.26265z" data-paper-data="{&quot;index&quot;:null}" fill="#c274a1"/><path d="M241.7617,182.55117l0.96327,-0.52181l0.23094,0.33627l-0.85497,0.45908z" data-paper-data="{&quot;index&quot;:null}" fill="#c0c2c6"/><path d="M238.19841,181.38274l-0.14971,-0.35327c0,0 0.38615,-0.13641 0.60216,-0.25732c0.23979,-0.13423 0.36814,-0.21746 0.36814,-0.21746l0.40108,0.86915l-0.43194,0.26531z" fill="#c274a1"/><path d="M239.96537,182.69598l-0.93618,-1.06476l0.34714,-0.21427l1.00988,1.16592z" fill="#c0c2c6"/><path d="M243.17594,179.63542c-0.1346,2.00199 -1.57763,1.68676 -1.74076,1.59998c-0.15831,-0.08423 -0.54038,-0.4033 -0.74317,-0.66418c-0.20649,-0.26562 -0.5248,-0.92183 -0.5248,-0.92183l-0.57645,0.60243c0,0 -0.17992,-0.92951 -0.0799,-1.54485c0.22657,-1.39398 0.7844,-1.37076 0.7844,-1.37076l2.60794,0.34032c0,0 0.383,0.31879 0.27273,1.95888z" fill="#c0c0c3"/><path d="M240.65058,177.96485l-0.47361,-0.64223l1.93394,0.45541z" fill="#222225"/><g><g><path d="M239.77905,183.43896c-0.27172,-0.57537 0.141,-1.34073 0.92184,-1.70948c0.78085,-0.36877 1.63411,-0.20128 1.90584,0.37408c0.27172,0.57536 -0.141,1.34073 -0.92185,1.70947c-0.78085,0.36877 -1.63411,0.20128 -1.90584,-0.37408z" fill="#c0c2c6"/><path d="M241.24365,180.833c0.18832,-0.1656 0.47525,-0.14719 0.64086,0.04114c0.1656,0.18832 0.14719,0.47526 -0.04114,0.64086c-0.18832,0.1656 -0.47526,0.14718 -0.64085,-0.04115c-0.1656,-0.18832 -0.14719,-0.47525 0.04115,-0.64085z" fill="#000000"/><path d="M241.21139,181.10348c0.02268,-0.18686 0.19254,-0.31995 0.3794,-0.29727c0.18686,0.02268 0.31995,0.19254 0.29727,0.3794c-0.02268,0.18686 -0.15019,0.12976 -0.33706,0.10708c-0.18686,-0.02268 -0.3623,-0.00235 -0.33963,-0.18922z" fill="#c478a9"/><path d="M239.29157,182.15854c-0.07688,-0.23872 0.05432,-0.49454 0.29303,-0.57142c0.23872,-0.07688 0.49454,0.05432 0.57142,0.29303c0.07688,0.23872 -0.05431,0.49455 -0.29302,0.57142c-0.23872,0.07688 -0.49454,-0.05432 -0.57142,-0.29303z" fill="#000000"/><path d="M239.52682,182.29588c-0.16236,-0.09524 -0.21676,-0.30405 -0.12153,-0.46642c0.09524,-0.16236 0.30405,-0.21676 0.46642,-0.12153c0.16236,0.09524 0.05919,0.18946 -0.03605,0.35181c-0.09524,0.16236 -0.14648,0.33138 -0.30884,0.23613z" fill="#c478a9"/><path d="M239.94988,182.47619c0.01333,-0.08496 0.20792,-0.29182 0.44775,-0.25419c0.23984,0.03763 0.43303,0.19412 0.4197,0.27905c-0.01333,0.08495 -0.24126,0.26804 -0.48109,0.23041c-0.23983,-0.03763 -0.39967,-0.17035 -0.38634,-0.25528z" fill="#000000"/><path d="M241.6937,181.66539c0.0723,0.04654 0.06512,0.25415 -0.06625,0.45829c-0.13138,0.20415 -0.4197,0.25262 -0.492,0.20609c-0.0723,-0.04654 -0.0607,-0.29487 0.07068,-0.49902c0.13138,-0.20415 0.41528,-0.21191 0.48758,-0.16537z" data-paper-data="{&quot;index&quot;:null}" fill="#000000"/><path d="M240.25217,182.44019c0.01411,-0.08994 0.09846,-0.1514 0.18839,-0.13728c0.08994,0.01411 0.1514,0.09846 0.13729,0.18839c-0.01411,0.08994 -0.09846,0.1514 -0.1884,0.1373c-0.08994,-0.01411 -0.1514,-0.09846 -0.13729,-0.1884z" fill="#ffffff"/><path d="M241.14445,182.07038c0.0149,-0.09493 0.10393,-0.15982 0.19887,-0.14492c0.09493,0.0149 0.15982,0.10393 0.14492,0.19887c-0.0149,0.09493 -0.10393,0.15982 -0.19887,0.14492c-0.09493,-0.0149 -0.15982,-0.10393 -0.14492,-0.19887z" fill="#ffffff"/></g><path d="M241.17205,182.53729c0.03084,0.05807 -0.00436,0.15786 -0.08923,0.20293c-0.08486,0.04506 -0.18726,0.01837 -0.2181,-0.03971c-0.03084,-0.05807 0.27649,-0.2213 0.30733,-0.16323z" fill="#000000"/><path d="M240.67948,182.95136c0.02463,0.07175 -0.06396,0.16721 -0.19789,0.2132c-0.13393,0.04599 -0.26249,0.02513 -0.28713,-0.04663c-0.02463,-0.07175 0.06396,-0.16721 0.19789,-0.2132c0.13393,-0.04599 0.26249,-0.02513 0.28713,0.04663z" fill="#ad597c"/><path d="M242.02236,182.30927c0.02463,0.07175 -0.06396,0.16721 -0.19789,0.2132c-0.13393,0.04599 -0.26249,0.02513 -0.28713,-0.04663c-0.02463,-0.07175 0.06396,-0.16721 0.19789,-0.2132c0.13393,-0.04599 0.26249,-0.02513 0.28713,0.04663z" fill="#ad597c"/></g><g fill="#83c4ac"><path d="M239.30953,179.93388l-0.09643,-0.629c0,0 0.37286,-0.1276 0.57035,-0.13303c0.18082,-0.00497 0.56901,0.10174 0.56901,0.10174l0.05045,0.19592c0,0 -0.31438,0.11332 -0.50601,0.19472c-0.17031,0.07233 -0.58738,0.26966 -0.58738,0.26966z"/><path d="M240.75618,180.09767c-0.11295,-0.1749 -0.37713,-0.61809 -0.37713,-0.61809l-0.07772,-0.22399c0,0 0.67817,0.39262 0.82504,0.49819c0.16042,0.11532 0.39745,0.43017 0.39745,0.43017l-0.43278,0.46651c0,0 -0.23448,-0.39736 -0.33486,-0.55279z" data-paper-data="{&quot;index&quot;:null}"/><path d="M239.75509,180.81667c0,0 0.0716,-0.46009 0.14314,-0.74892c0.07154,-0.28884 0.18914,-0.59261 0.18914,-0.59261l0.28148,0.0171c0,0 -0.13007,0.46754 -0.19486,0.77109c-0.06479,0.30356 -0.16282,0.90472 -0.16282,0.90472z"/><path d="M240.18569,181.2631c0,0 0.08175,-0.63078 0.11305,-0.93959c0.0313,-0.30881 0.05199,-0.88822 0.05199,-0.88822l0.22942,0.09011c0,0 0.01631,0.51421 -0.00407,0.81109c-0.02037,0.29687 -0.09312,0.75677 -0.09312,0.75677z" data-paper-data="{&quot;index&quot;:null}"/></g></g><g stroke-width="0" stroke-linecap="butt" stroke-linejoin="miter"><path d="M232.78409,167.52458c0.48865,2.10504 -1.52191,4.12411 -1.52191,4.12411l-0.92261,0.25398c0,0 0.29329,-0.84578 0.12904,-3.66451c-0.86108,-1.68248 -1.75495,-3.75617 -1.75495,-3.75617c0,0 -0.35039,0.0325 0.36103,-0.12075c0.71143,-0.15325 0.46415,-0.05467 0.46415,-0.05467c0,0 2.55954,0.26428 3.24519,3.21801z" fill="#cacacd" stroke="none"/><path d="M228.63229,164.47064c0,0 1.78412,0.60846 2.35675,3.13609c0.60818,2.68449 -0.61763,4.30374 -0.61763,4.30374c0,0 -2.80083,0.57683 -3.61061,-3.06425c-0.72161,-3.24456 1.87149,-4.37558 1.87149,-4.37558z" fill="#c2e266" stroke="#000000"/><path d="M233.84296,170.88992l-1.55351,-7.25176c0,0 3.81813,-0.7562 4.65511,2.7132c0.84911,3.51966 -3.1016,4.53855 -3.1016,4.53855z" fill="#c2e266" stroke="none"/><path d="M233.7524,170.92527l0.86187,-4.09731l-2.31712,-3.18477l0.27243,-0.06335c0,0 2.05548,0.29379 2.74248,3.09852c0.67595,2.77327 -1.2213,4.15718 -1.2213,4.15718z" fill="#cacacd" stroke="none"/><path d="M234.90914,166.97374c0.40745,2.06916 -1.04269,3.94124 -1.04269,3.94124l-3.02934,0.83324c0,0 1.08775,-2.70471 0.75016,-4.29777c-0.33757,-1.59307 -2.32161,-3.11799 -2.32161,-3.11799l3.02693,-0.70069c0,0 2.04485,0.43857 2.61654,3.34196z" fill="#c274a1" stroke="none"/><path d="M231.99714,173.9473c0,0 0.64584,-0.03324 1.04556,-0.11222c0.39973,-0.07897 0.93783,-0.27965 0.93783,-0.27965l1.92861,11.12625c0,0 -0.59579,0.3506 -1.02033,0.4356c-0.42455,0.085 -0.85653,-0.05986 -0.85653,-0.05986l-2.03511,-11.11012z" fill="#c2e266" stroke="none"/><path d="M231.11734,171.58758l2.68359,-0.74758c0,0 0.58615,2.33242 0.35324,2.58749c-0.39445,0.43202 -2.10297,0.68037 -2.43415,0.42929c-0.08724,-0.06613 -0.60269,-2.26922 -0.60269,-2.26922z" fill="#cacacd" stroke="none"/></g><g data-paper-data="{&quot;index&quot;:null}"><g data-paper-data="{&quot;index&quot;:null}" fill="#86cbb6" stroke="none" stroke-width="0" stroke-linecap="butt" stroke-linejoin="miter"><path d="M249.44469,172.73652c-0.39452,-0.27784 -0.63698,-0.38539 -0.63698,-0.38539l-0.46905,-0.50749c0,0 0.8414,-0.07411 1.25614,0.05113c0.41473,0.12524 1.18215,0.60784 1.18215,0.60784l-0.50979,0.8912c0,0 -0.42792,-0.37941 -0.82245,-0.65726z"/><path d="M248.92154,174.24732c0,0 -0.12107,-0.58977 -0.17694,-0.86706c-0.07696,-0.38194 -0.36439,-1.56121 -0.36439,-1.56121l0.52825,0.27604c0,0 0.36181,0.76578 0.51092,1.10288c0.11961,0.27042 0.31491,0.76408 0.31491,0.76408z"/></g><g stroke="none" stroke-width="0" stroke-linecap="butt" stroke-linejoin="miter"><path d="M250.64118,169.5604c0.40824,0.73716 0.34486,1.14823 -0.11543,1.93347c-0.46028,0.78524 -2.11266,1.16079 -2.11266,1.16079c0,0 0.11501,-0.93526 -0.00355,-1.50913c-0.11854,-0.57386 -0.60943,-1.45813 -0.60943,-1.45813c0,0 0.68282,-0.43821 1.31583,-0.6173c0.48426,-0.14037 1.02841,-0.20202 1.52525,0.4903z" data-paper-data="{&quot;index&quot;:null}" fill="#20201f"/><path d="M250.8146,170.60913c-0.03492,0.69129 -0.82822,1.38532 -0.82822,1.38532l-0.42738,-0.95245c0,0 1.28257,-0.96662 1.25561,-0.43286z" data-paper-data="{&quot;index&quot;:null}" fill="#b2b1b2"/></g><path d="M244.56346,167.08648c3.13128,1.15695 4.86081,4.28405 3.86303,6.98455c-0.99779,2.70052 -4.34506,3.95183 -7.47633,2.79489c-3.13128,-1.15695 -4.86081,-4.28404 -3.86303,-6.98454c0.99778,-2.70052 4.34505,-3.95185 7.47633,-2.79491z" fill="#f79eb4" stroke="none" stroke-width="0" stroke-linecap="butt" stroke-linejoin="miter"/><path d="M247.63411,175.63928c0.01146,-0.01294 -0.32809,0.99218 -1.50211,1.99115c-1.88754,1.61527 -3.29562,1.15652 -3.29562,1.15652l0.58089,-0.75673c0,0 2.05353,-1.07946 2.65948,-1.54579c0.60594,-0.46633 1.19605,-1.49352 1.19562,-1.49292" fill="#f79eb4" stroke="#f89db5" stroke-width="0" stroke-linecap="butt" stroke-linejoin="round"/><g fill="#ffd5c5" stroke="none" stroke-width="1" stroke-linecap="round" stroke-linejoin="round"><path d="M245.57689,176.91861c-0.07491,0.5423 -0.66343,0.81574 -1.14114,0.96741c-0.07817,0.02479 -0.6898,0.21689 -1.56841,0.18977c-1.10244,-0.03405 -2.32889,-0.69835 -2.68464,-0.87972c-0.42424,-0.21634 -1.03077,-1.0034 -1.1061,-1.18417c-0.54201,-1.30109 0.30488,-1.5203 0.4271,-1.55881c0.05829,-0.01834 0.34709,-0.01933 0.60809,0.19259c0.25439,0.20655 0.88767,0.94071 1.16592,1.03024c0.29895,0.0962 2.14053,0.14739 2.99119,0.46294c0.1761,0.06744 0.3871,0.21256 0.48824,0.37643c0.13161,0.2133 0.30626,0.59318 0.64399,0.4455c0.05466,-0.02394 0.18388,-0.10134 0.17574,-0.04223z"/><path d=""/></g><g fill="#000000" stroke="#000000" stroke-width="0.125" stroke-linecap="butt" stroke-linejoin="round"><path d="M247.04858,175.62949c0.06578,0.00208 0.33309,0.13332 0.78194,0.18907c0.28623,0.02496 0.57289,0.04733 0.86007,0.04441c0.17195,-0.00178 0.34583,-0.04977 0.51655,-0.04438c0.00581,0.00018 -0.39669,0.08119 -0.51372,0.09209c-0.3668,0.03419 -0.68601,0.03251 -1.0528,0.00561c-0.08054,-0.00589 -0.71218,-0.12554 -0.70037,-0.14736"/><path d="M247.3573,175.1717c0.01518,0.03275 0.32169,0.15922 0.77798,0.1286c0.45628,-0.03061 1.12436,-0.16979 1.15432,-0.19793c0.01131,-0.01062 -0.77257,0.2607 -1.10498,0.30814c-0.33242,0.04745 -0.96088,-0.03622 -0.94988,-0.05657"/></g><g fill="#000000" stroke="none" stroke-width="1" stroke-linecap="round" stroke-linejoin="round"><path d="M244.29587,176.85638c-0.21196,-0.1162 -0.5161,-0.43624 -0.28265,-0.50156c0.17743,-0.04964 0.65339,0.18862 0.7158,0.28299c0.10795,0.16325 -0.33257,0.26357 -0.43315,0.21857z"/><path d=""/></g><path d="M240.29315,172.10304c0.03757,-0.04263 -0.7506,1.74363 -1.03536,2.57706c-0.53621,1.56946 -0.53337,2.66679 -0.53337,2.66679c0,0 -0.25432,-0.34386 -0.30994,-0.44065c-0.17184,-0.29893 -0.31518,-0.58516 -0.43459,-0.91177c-0.28081,-0.76824 -0.35753,-1.59275 -0.2936,-2.40544c0.04262,-0.54162 0.68594,-2.74454 0.71212,-2.74952" fill="#f79eb4" stroke="#f89db5" stroke-width="0" stroke-linecap="butt" stroke-linejoin="round"/><path d="M238.32056,170.77717c-0.01881,0.00866 -0.71287,2.73812 -0.84519,3.51885c-0.13233,0.78073 -0.09468,2.02681 -0.09468,2.02681c0,0 -0.3638,-0.20206 -0.67223,-0.98875c-0.27233,-0.69466 -0.43636,-1.05625 -0.34029,-2.13712c0.12465,-1.40255 0.67516,-3.18883 0.96833,-3.46373" fill="#f79eb4" stroke="#f89db5" stroke-width="0" stroke-linecap="butt" stroke-linejoin="round"/><g stroke="none" stroke-width="1" stroke-linecap="round" stroke-linejoin="round"><path d="M247.20097,170.72029c-0.06919,-0.08518 -1.84437,-2.22386 -3.5608,-2.5647c-1.35283,-0.26865 -2.2067,-0.03163 -3.6801,0.37538c-1.1363,0.31386 -2.23568,1.58061 -2.27346,1.5762c-0.0027,-0.00032 1.76341,-3.72266 5.44384,-3.00774c2.96667,0.60811 4.60639,3.12183 4.65964,3.2673" fill="#20201f"/><path d="" fill="#ee1a40"/></g><path d="M247.1126,171.86204c-0.02768,0.00942 1.06898,-0.22437 2.58988,0.80193c0.2704,0.18461 1.05451,1.03758 1.04433,1.82956c0.06729,0.74854 -0.51403,1.77069 -0.52863,1.76354c-0.02093,-0.01034 -0.40064,-1.75434 -1.23858,-2.48546c-0.45752,-0.39921 -2.03953,-0.7785 -2.07596,-0.76611" fill="#f79eb4" stroke="#f89db5" stroke-width="0" stroke-linecap="butt" stroke-linejoin="round"/><path d="M246.30455,171.6039c0.0373,-0.07479 1.3007,-1.05747 1.65205,-1.19758c0.35135,-0.14011 0.53294,-0.14667 1.1109,0.03334c1.89781,0.7992 2.60867,2.33968 2.60867,2.33968c0,0 -1.1641,-1.01983 -1.9148,-1.14702c-1.04152,-0.17645 -2.51517,0.19266 -2.6416,0.23494" fill="#f79eb4" stroke="#f89db5" stroke-width="0" stroke-linecap="butt" stroke-linejoin="round"/><path d="M242.14035,171.32285c-0.56986,-0.21056 -1.83818,1.07985 -1.83818,1.07985c0,0 0.12551,-2.17035 1.39336,-2.32848c2.8173,0.26851 2.63968,3.8446 2.63968,3.8446c0,0 -1.625,-2.38543 -2.19486,-2.59598z" data-paper-data="{&quot;index&quot;:null}" fill="#20201f" stroke="none" stroke-width="0" stroke-linecap="butt" stroke-linejoin="miter"/><path d="M244.33437,174.51943c0.17782,0.71242 0.36739,0.77189 0.54562,0.85645c0.30574,0.14508 0.76718,-0.00587 1.16032,-0.25054c0.56208,-0.34978 1.24406,-1.09063 1.66673,-0.9386c0.06405,0.02304 -0.1841,0.82875 -0.52943,1.31559c-0.73234,1.03243 -1.80595,1.55393 -1.94531,1.50813c-0.55683,-0.18299 -0.21001,-0.62346 -1.34477,-0.97773c-0.64633,-0.20177 -2.34523,-0.0446 -2.89059,-0.4526c-0.98817,-0.99399 -0.92056,-2.11255 -0.76215,-2.81403c0.476,-2.10796 1.90534,-2.20285 2.30466,-2.00099c1.83835,0.92925 1.51595,2.63678 1.79491,3.75435z" fill="#ffffff" stroke="none" stroke-width="0" stroke-linecap="butt" stroke-linejoin="miter"/><path d="M246.81328,173.06789c-0.02783,-0.04199 0.91953,0.06291 1.5533,0.82851c0.18206,0.21994 0.57313,1.4431 0.5051,1.57793c-0.18775,0.58086 -0.70798,1.92543 -0.70607,1.9249c0.04127,-0.01114 -0.2141,-1.12986 -0.53325,-2.15979c-0.10934,-0.34574 -1.05685,-1.17666 -1.13556,-1.2956" fill="#f79eb4" stroke="#f89db5" stroke-width="0" stroke-linecap="butt" stroke-linejoin="round"/><g fill="#000000" stroke="#000000" stroke-width="0.125" stroke-linecap="butt" stroke-linejoin="round"><path d="M241.06379,171.154c-0.03541,0.02533 -0.18362,-0.01568 -0.33317,-0.16073c-0.9602,-0.93115 -0.97415,-1.34324 -0.97415,-1.34324c0,0 0.21212,0.62893 0.94606,1.14655c0.14293,0.1008 0.34702,0.19902 0.39378,0.21351c0.0446,0.01382 0.09473,-0.00524 0.13478,0.02886"/><path d="M240.53451,171.80438c0,0 -0.04915,0.0277 -0.18718,0.02254c-0.25596,-0.00957 -0.83626,-0.2279 -1.09086,-0.3676c-0.60708,-0.33312 -0.88778,-0.68025 -0.88778,-0.68025c0,0 0.64933,0.47749 0.86651,0.60001c0.65687,0.3658 1.21508,0.26708 1.29359,0.24467c0.0346,-0.00985 0.1121,-0.04409 0.14504,-0.03602"/></g><g stroke="none" stroke-linecap="butt" stroke-linejoin="miter"><path d="M243.31363,173.23921c0.21303,0.09471 0.14841,0.70529 -0.14435,1.36378c-0.29275,0.65847 -0.70279,1.11547 -0.91582,1.02077c-0.21303,-0.09471 -0.1484,-0.70528 0.14434,-1.36377c0.29274,-0.65849 0.70278,-1.11548 0.91581,-1.02078z" fill="#169c5b" stroke-width="NaN"/><path d="M242.94533,174.08341c0.09361,0.04161 0.07034,0.29831 -0.05192,0.57334c-0.12227,0.27504 -0.29729,0.46428 -0.39089,0.42266c-0.09361,-0.04161 -0.07034,-0.29831 0.05192,-0.57334c0.12227,-0.27504 0.29729,-0.46428 0.39089,-0.42266z" fill="#000000" stroke-width="0"/><path d="M242.90257,173.91187c0.12371,-0.27825 0.31558,-0.46311 0.42855,-0.41289c0.11297,0.05023 0.10426,0.31651 -0.01945,0.59477c-0.12371,0.27826 -0.31558,0.46311 -0.42855,0.41289c-0.11297,-0.05023 -0.10426,-0.3165 0.01945,-0.59476z" fill="#ffffff" stroke-width="0"/></g><g stroke="none" stroke-linecap="butt" stroke-linejoin="miter"><path d="M245.43382,175.90167c0.20649,-0.46445 0.49567,-0.7868 0.64595,-0.71999c0.15027,0.0668 0.10467,0.49746 -0.10181,0.96192c-0.2065,0.46445 -0.49569,0.78679 -0.64596,0.72c-0.15027,-0.0668 -0.10466,-0.49745 0.10182,-0.96192z" fill="#169c5b" stroke-width="NaN"/><path d="M245.54427,176.07523c0.08625,-0.194 0.20968,-0.32746 0.2757,-0.29809c0.06604,0.02936 0.04965,0.2104 -0.0366,0.4044c-0.08626,0.19399 -0.20969,0.32746 -0.27571,0.2981c-0.06604,-0.02937 -0.04965,-0.21041 0.03661,-0.40441z" fill="#000000" stroke-width="0"/><path d="M246.09213,175.3649c0.0797,0.03543 0.07354,0.22325 -0.01371,0.41952c-0.08727,0.19626 -0.22259,0.32665 -0.30229,0.29122c-0.07968,-0.03543 -0.07353,-0.22323 0.01372,-0.4195c0.08727,-0.19626 0.22259,-0.32667 0.30228,-0.29124z" fill="#ffffff" stroke-width="0"/></g><path d="M240.94187,176.5267c0,0 -0.53613,-0.20507 -0.71463,-0.29394c-0.17849,-0.08888 -0.43731,-0.34254 -0.43731,-0.34254" data-paper-data="{&quot;index&quot;:null}" fill="none" stroke="#000000" stroke-width="0.125" stroke-linecap="round" stroke-linejoin="miter"/><g fill="#86cbb6" stroke="none" stroke-width="0" stroke-linecap="butt" stroke-linejoin="miter"><path d="M239.93891,168.5764c0,0 -0.30379,-0.09078 -0.87805,-0.14507c-0.57426,-0.05429 -1.25778,-0.04229 -1.25778,-0.04229l0.22966,-1.20561c0,0 1.07205,0.15816 1.54606,0.36676c0.474,0.2086 1.18055,0.92986 1.18055,0.92986l-0.82042,0.09636z"/><path d="M237.84538,169.31928c0,0 0.56106,-0.29658 0.87987,-0.4492c0.39741,-0.19025 1.3212,-0.60451 1.3212,-0.60451l0.6943,0.15987c0,0 -1.17761,0.84761 -1.54435,1.13467c-0.26626,0.20842 -0.83459,0.64996 -0.83459,0.64996z"/></g><path d="M240.32341,166.9642c0.59162,-1.09502 1.02729,-1.46064 2.17865,-1.50613c1.16178,0.0899 1.4756,0.7698 1.65491,1.43553c0.23955,0.8671 0.21144,1.97617 0.21144,1.97617c0,0 -1.16878,-0.09306 -2.17371,-0.00007c-1.71909,0.15909 -2.11454,0.39987 -2.11454,0.39987c0,0 -0.34836,-1.21036 0.24325,-2.30537z" fill="#20201f" stroke="none" stroke-width="0" stroke-linecap="butt" stroke-linejoin="miter"/><path d="M242.58491,166.65c1.05092,0.08827 1.03655,1.39909 1.03655,1.39909c0,0 -0.63576,-0.13144 -1.20198,-0.15863c-0.96859,-0.0465 -1.2145,0.04409 -1.2145,0.04409c0,0 0.27194,-1.3776 1.37993,-1.28454z" fill="#b2b1b2" stroke="none" stroke-width="0" stroke-linecap="butt" stroke-linejoin="miter"/></g><g stroke="none" stroke-width="0" stroke-linecap="butt" stroke-linejoin="miter"><path d="M238.46457,179.83592c0.54493,1.37166 0.20443,2.79441 -0.76053,3.17777c-0.96498,0.38337 -2.189,-0.41782 -2.73394,-1.7895c-0.54494,-1.37166 -0.20444,-2.79442 0.76053,-3.17778c0.96496,-0.38336 2.18901,0.41782 2.73395,1.78949z" fill="#20201f"/><path d="M242.65237,178.61885c0.39046,-0.02983 0.50916,0.15362 0.54436,0.36569c0.05237,0.31566 -0.0923,0.51294 -0.39924,0.57686c-1.22491,0.25505 -2.29124,0.50044 -3.12333,0.72815c-0.50725,0.13881 -2.46717,0.75251 -2.46717,0.75251l-0.34565,-1.17017c0,0 1.13001,-0.26957 2.3874,-0.61364c0.87946,-0.24065 2.22447,-0.54934 3.40364,-0.63941z" fill="#fed5c7"/><path d="M240.07022,178.83184l1.12207,-0.23317l0.43559,1.37467l-1.10944,0.26499z" fill="#83c4ac"/><path d="M242.21447,177.94266c0.64298,-0.15047 1.29698,0.17651 1.47114,0.76676c0.17416,0.59022 -0.20214,1.20392 -0.84047,1.3707c-1.13485,0.29651 -1.47125,-0.10729 -1.6454,-0.69753c-0.17416,-0.59022 -0.05719,-1.18906 1.01474,-1.43993z" fill="#20201f"/><path d="M238.59483,178.82839l1.49458,-0.04101l0.46086,1.43831l-1.33106,0.82361l-0.3496,-0.5632l-0.29761,-1.10266z" fill="#bebec0"/><g><path d="M235.8714,179.47499l0.82872,2.42326c0,0 -0.04493,0.37688 -0.46518,0.78486c-0.2729,0.26497 -0.88446,0.40958 -0.88446,0.40958c0,0 0.70962,0.21514 0.46891,0.76693c-0.15455,0.35428 -1.31002,0.41501 -1.71796,0.33842c-0.24015,-0.04508 -0.63179,-0.26738 -0.83107,-0.5567c-0.12571,-0.1825 -0.12215,-0.4883 -0.12215,-0.4883c0,0 -0.39271,0.00586 -0.43551,-0.41077c-0.01312,-0.12764 -0.06703,-0.29848 -0.06703,-0.29848c0,0 -0.28181,-0.0837 -0.40413,-0.18346c-0.12232,-0.09975 -0.21178,-0.34458 -0.21178,-0.34458l0.13093,-0.41756c0,0 -0.42543,-0.37074 -0.46485,-0.47953c-0.15469,-0.42677 0.21866,-0.76438 0.41786,-0.94689c0.36471,-0.33414 1.27408,-0.9477 1.41528,-0.94007c0.88621,0.04798 2.34241,0.3433 2.34241,0.3433z" fill="#20201f"/><path d="M235.3505,183.09269c0,0 0.70962,0.21514 0.46891,0.76693c-0.15455,0.35428 -0.68121,0.44834 -1.08914,0.37177c-0.24015,-0.04508 0.62023,-1.13869 0.62023,-1.13869z" fill="#c0c2c6"/></g></g></g></g></svg>