<svg version="1.1" xmlns="http://www.w3.org/2000/svg" xmlns:xlink="http://www.w3.org/1999/xlink" width="114.32162" height="53.96019" viewBox="0,0,114.32162,53.96019"><g transform="translate(-199.40905,-205.99384)"><g data-paper-data="{&quot;isPaintingLayer&quot;:true}" fill-rule="nonzero" stroke="none" stroke-width="0" stroke-linecap="butt" stroke-linejoin="miter" stroke-miterlimit="10" stroke-dasharray="" stroke-dashoffset="0" style="mix-blend-mode: normal"><path d="M211.46535,211.92751c0,0 -1.75906,3.80942 -3.32267,9.96803c-1.27505,5.02202 -2.14997,10.55438 -2.14997,10.55438c0,0 -4.42523,-2.99737 -2.34542,-10.55438c2.14997,-8.30857 7.81806,-9.96803 7.81806,-9.96803z" fill="#f0cf77"/><path d="M207.55634,220.91828c1.07231,-3.7914 4.00675,-8.99077 4.00675,-8.99077c0,0 10.45666,2.55814 10.45666,5.47265c0,2.91451 -16.42931,15.12705 -16.42931,15.12705c0,0 0.89357,-7.81753 1.96589,-11.60893z" fill="#4ea460"/><path d="M219.29562,217.69551c5.28583,-2.90276 14.18877,-5.81808 22.7579,-5.13846c7.06734,0.56051 15.28575,2.95308 25.45573,9.85784c10.02747,6.80801 15.42719,16.61835 26.24294,23.44778c2.19508,1.38605 20.27143,-1.89143 19.97487,-0.71586c-2.76635,8.11657 -37.17635,14.80723 -37.17635,14.80723c0,0 -5.27395,-7.43524 -12.06496,-10.97315c-6.79101,-3.53791 -18.28798,-6.38154 -21.24737,-6.38154c-1.43849,0 -14.19549,-0.03662 -20.31306,1.37474c-6.11757,1.41136 -23.51627,10.12182 -23.51627,10.12182c0,0 4.01714,-27.68559 19.88657,-36.40039z" fill="#4ea460"/><path d="M220.91176,218.75568c0,-7.04817 6.09973,-12.76183 13.62412,-12.76183c7.52439,0 13.62412,5.71366 13.62412,12.76183c0,7.04817 -6.09973,12.76184 -13.62412,12.76184c-7.52439,0 -13.62412,-5.71367 -13.62412,-12.76184z" fill="#e8ce71"/><path d="M221.25668,217.20356c0,0 2.68665,-5.34617 12.24447,-4.65635c7.12488,0.51423 14.64388,7.76058 14.64388,7.76058c0,0 -7.79959,3.96953 -14.98879,2.93177c-9.45978,-1.3655 -11.89955,-6.036 -11.89955,-6.036z" fill="#2a2a27"/><path d="M247.32022,229.73206c0.24655,-1.33541 3.12705,-1.9231 6.43382,-1.31263c3.30677,0.61047 5.78755,2.18795 5.54102,3.52336c-0.24655,1.33541 -3.12705,1.9231 -6.43382,1.31263c-3.30676,-0.61047 -5.78755,-2.18795 -5.54102,-3.52336z" fill="#d98bab"/><path d="M204.02714,220.32196l3.26982,2.87646l-0.56054,2.21267l-3.64351,-0.77442c0,0 0.07202,-1.30616 0.24655,-2.11227c0.17453,-0.8061 0.68769,-2.20243 0.68769,-2.20243z" fill="#2a2a27"/></g></g></svg>