<svg version="1.1" xmlns="http://www.w3.org/2000/svg" xmlns:xlink="http://www.w3.org/1999/xlink" width="115.80435" height="97.24083" viewBox="0,0,115.80435,97.24083"><g transform="translate(-176.90312,-169.17263)"><g data-paper-data="{&quot;isPaintingLayer&quot;:true}" fill-rule="nonzero" stroke-linejoin="miter" stroke-miterlimit="10" stroke-dasharray="" stroke-dashoffset="0" style="mix-blend-mode: normal"><path d="M241.14757,225.2126l-14.69247,-15.06875l16.98399,-1.30795c0,0 3.55642,16.02969 3.79813,16.61249c0.79988,1.92866 0.69781,5.36559 0.69781,5.36559l-1.00696,10.74553c0,0 -4.97231,-8.115 -5.56492,-11.8766z" data-paper-data="{&quot;index&quot;:null}" fill="#ff3200" stroke="none" stroke-width="0" stroke-linecap="butt"/><path d="M231.81104,217.39968c-4.33239,-0.27097 -10.75916,-1.25277 -13.2432,-3.88271c-2.07284,-2.19458 -0.72258,-15.93543 1.81716,-17.87834c2.76863,-2.11799 8.74571,-1.91847 12.89087,-1.6592c3.66609,0.2293 6.16708,1.50563 8.5932,3.50131c2.83343,2.33067 5.28274,5.62477 5.06482,9.10885c-0.4045,6.46733 -7.17522,11.30716 -15.12285,10.81007z" data-paper-data="{&quot;index&quot;:null}" fill="#ff3200" stroke="none" stroke-width="0" stroke-linecap="butt"/><path d="M226.0795,206.73128c0,0 2.80062,-4.14832 2.09424,-7.61106c-0.70641,-3.46271 -2.43274,-2.98682 -2.43274,-2.98682c0,0 2.95055,-0.3004 4.70175,1.04071c0.56919,0.43589 1.01166,1.04523 1.18493,1.89462c0.70638,3.46274 -5.54818,7.66257 -5.54818,7.66257z" data-paper-data="{&quot;index&quot;:null}" fill="#ffffff" stroke="none" stroke-width="0" stroke-linecap="butt"/><path d="M205.95978,231.69723z" fill="#030000" stroke="none" stroke-width="0" stroke-linecap="butt"/><path d="M230.6174,216.57433l-16.09989,20.61994l-5.10487,-4.25628l15.58161,-20.13034z" data-paper-data="{&quot;index&quot;:null}" fill="#ff3200" stroke="none" stroke-width="0" stroke-linecap="butt"/><path d="M221.936,195.36211l19.38902,-12.25715l1.48675,7.25823l-14.02781,5.64012l-3.90599,-1.42003z" data-paper-data="{&quot;index&quot;:null}" fill="#ff3200" stroke="none" stroke-width="0" stroke-linecap="butt"/><path d="M201.96974,227.87512c0,0 3.88548,1.44938 5.79707,2.75085c1.91159,1.30147 3.97411,4.61037 3.97411,4.61037" data-paper-data="{&quot;index&quot;:null}" fill="none" stroke="#c1b9a5" stroke-width="1" stroke-linecap="round"/><path d="M246.9212,191.17403l-5.00221,1.77482c0,0 -2.77672,-2.91245 -3.6043,-5.58195c-0.82758,-2.66948 0.49742,-5.9578 0.49742,-5.9578l4.23772,-4.09577l5.46787,-4.47305l6.38698,0.02093c0,0 5.05184,-3.47043 7.75457,-3.68338c2.70271,-0.21292 8.63444,6.13715 6.6007,14.33254c-1.67817,6.76249 -5.71751,10.2487 -10.01816,10.05301c-4.30064,-0.19566 -12.32055,-2.38939 -12.32055,-2.38939z" data-paper-data="{&quot;index&quot;:null}" fill="#dcdcd5" stroke="none" stroke-width="0" stroke-linecap="butt"/><path d="M246.67872,190.31235c0,0 -3.02851,-4.00189 -3.59309,-6.16277c-0.26033,-0.99625 -0.66711,-4.70167 -0.66711,-4.70167" data-paper-data="{&quot;index&quot;:null}" fill="none" stroke="#c1b9a5" stroke-width="1" stroke-linecap="round"/><path d="M257.21325,175.56109c-0.27587,0.50609 4.4475,11.77262 3.73006,12.3396c-0.31846,0.25166 -2.41008,-5.34015 -5.04997,-7.47755c-2.34065,-1.89507 -5.28171,-0.35233 -5.28171,-0.35233" data-paper-data="{&quot;index&quot;:null}" fill="none" stroke="#c1b9a5" stroke-width="1" stroke-linecap="round"/><path d="M240.056,198.95074c3.81132,-5.65316 10.99957,-13.82505 15.49387,-12.69659c7.36742,1.84985 11.03864,7.49153 11.03864,7.49153l-5.27218,5.89158c0,0 -2.55105,-4.09582 -5.82895,-6.27565c-2.96514,-1.97184 -9.66294,10.35882 -9.66294,10.35882z" data-paper-data="{&quot;index&quot;:null}" fill="#ff3200" stroke="none" stroke-width="0" stroke-linecap="butt"/><path d="M269.96519,193.98972c-2.75436,1.01192 0.92995,-6.8489 3.43886,-10.34624c2.50891,-3.49735 5.4228,-5.4793 10.31752,-5.23854c4.8947,0.24074 7.78723,2.92285 8.94035,6.06153c1.15312,3.13868 -19.94237,8.51133 -22.69672,9.52325z" data-paper-data="{&quot;index&quot;:null}" fill="#ff1c00" stroke="none" stroke-width="0" stroke-linecap="butt"/><path d="M287.40229,202.42349c0,0 -2.19248,5.21176 -5.32741,8.16104c-3.13493,2.94928 -5.85024,3.61399 -10.6072,2.43598c-2.70002,-0.66863 -8.13135,-3.40745 -8.00681,-7.87621c0.09486,-3.40438 5.5556,-8.59951 5.32743,-10.02727c-0.52769,-3.3019 18.61398,7.30644 18.61398,7.30644z" data-paper-data="{&quot;index&quot;:null}" fill="#5c0000" stroke="none" stroke-width="0" stroke-linecap="butt"/><path d="M289.86015,198.78808c0,0 -5.71979,13.64773 -11.59304,12.15728c-7.60036,-1.92871 -3.13536,-15.95302 -3.13536,-15.95302c0,0 2.42657,-15.85782 14.2374,-12.50598c6.24651,1.77271 0.04237,15.92939 0.49099,16.30169z" data-paper-data="{&quot;index&quot;:null}" fill="#1d1a19" stroke="none" stroke-width="0" stroke-linecap="butt"/><path d="M273.61306,201.33308c0,0 -5.27337,-7.30295 -5.79456,-7.73549c-0.52122,-0.43251 4.21488,-8.19354 4.21488,-8.19354c0,0 4.11324,1.41071 4.5162,5.47409c0.40297,4.06338 -2.93652,10.45494 -2.93652,10.45494z" data-paper-data="{&quot;index&quot;:null}" fill="#b29b96" stroke="none" stroke-width="0" stroke-linecap="butt"/><path d="M269.33579,194.52828c-1.30227,2.10685 -4.34183,9.14972 -6.23514,10.13261c-1.25417,0.65109 -3.98092,-0.84419 -4.6878,-1.28112c-1.77401,-1.09652 -0.14065,-5.95048 2.02428,-9.45299c2.16493,-3.50254 5.35809,-5.45295 7.1321,-4.35643c1.77401,1.09652 3.93149,1.45542 1.76656,4.95795z" data-paper-data="{&quot;index&quot;:null}" fill="#53b761" stroke="#000000" stroke-width="0" stroke-linecap="butt"/><path d="M257.42773,235.34285l-17.20173,-22.61451l4.16436,-3.59278l15.20173,17.61451z" fill="#ff3200" stroke="none" stroke-width="0" stroke-linecap="butt"/><path d="M226.94806,217.65454v-6.52946h11.94409c0,0 1.1148,1.76736 1.1148,3.02584c0,1.25849 -1.1148,3.50362 -1.1148,3.50362z" fill="#ff3200" stroke="none" stroke-width="0" stroke-linecap="butt"/><g data-paper-data="{&quot;index&quot;:null}" stroke="none" stroke-width="0" stroke-linecap="butt"><path d="M277.09479,247.75033c2.08681,2.11708 -4.08338,12.15845 -7.12254,15.36379c-0.61813,0.89258 -5.96922,0.29876 -8.14202,-1.72388c-3.26095,-3.03558 -3.47167,-9.5766 -0.43253,-12.78192c0,0 13.61032,-2.97512 15.69708,-0.858z" fill="#ff1c00"/><path d="M278.03516,244.5798c-3.43468,-0.07193 -10.14355,-3.15451 -11.57181,-7.67211c-1.42826,-4.5176 0.03531,-11.80634 3.47003,-11.73442c3.43466,0.07189 12.72854,2.16117 14.20088,6.53103c0.53686,1.59344 -0.44106,2.75816 -1.94051,6.17312c-0.03779,0.08604 -2.42075,6.90041 -3.71252,6.87335z" fill="#ff1c00"/><path d="M266.75233,236.3832c4.03779,0.0845 12.8256,7.43916 12.8256,7.43916c-0.07198,1.45641 -3.49513,10.49494 -4.94165,10.46465c-1.93923,-0.04064 -7.3127,-3.59036 -9.06894,-5.79816c-1.90055,-2.38921 -2.35737,-4.96754 -2.31997,-5.72449c0.07194,-1.4564 -0.5329,-6.46572 3.50493,-6.38117z" fill="#ded000"/><path d="M284.74018,232.75046c-0.05123,1.26862 -6.14896,17.36551 -8.38043,21.4504c-1.48625,2.72075 -4.2463,6.99018 -6.45094,9.10857c-1.10538,1.06213 -1.5936,-0.02376 -1.5936,-0.02376c0,0 2.9909,-2.76913 7.22643,-10.9905c4.2355,-8.22138 8.73845,-21.35034 8.68722,-20.08173z" fill="#646362"/><path d="M268.62113,225.87756c1.1302,2.38372 -0.44531,4.76439 -1.1099,7.45572c-0.69555,2.81674 -2.18199,5.7787 -2.88024,6.27654c-3.58859,2.55849 -8.03241,-0.67141 -8.57778,-1.66971c-1.25566,-2.29853 -1.00413,-4.11571 -0.36754,-7.19514c0.63658,-3.0794 1.75738,-5.61192 3.35879,-7.27478c0.99437,-1.03255 8.83702,0.84754 9.57663,2.40739z" fill="#53b761"/><path d="M262.57912,242.88844c0.73793,-2.25259 2.25189,-6.01338 2.25189,-6.01338c0,0 0.94099,-0.45076 1.8162,-0.63595c0.87522,-0.18521 2.42509,0.57237 2.42509,0.57237c0,0 -0.62319,5.26049 -1.31461,7.22374c-0.69145,1.96324 -1.83024,4.9031 -1.83024,4.9031c0,0 -2.06295,1.68856 -2.68407,1.084c-0.6211,-0.60461 -1.84396,-1.94005 -1.84396,-1.94005c0,0 0.4418,-2.94123 1.17972,-5.19386z" fill="#e0e0de"/></g><g><path d="M199.12461,178.43874c5.59643,-0.7663 14.21981,-0.89334 15.18773,6.17581c0.00705,0.05148 -3.24859,10.56647 -3.22177,18.6113c0.01218,3.65351 -1.1623,6.22664 2.22524,8.08122c6.21672,3.40345 27.58824,-0.52736 27.58824,-0.52736l-22.76327,8.81733c0,0 7.61474,-0.27645 12.04191,-0.91362c6.17859,-0.88928 21.5594,-3.92242 21.5594,-3.92242c0,0 -11.82295,8.10875 -19.90175,10.29159c-9.78587,2.64411 -22.01329,3.78949 -22.01329,3.78949c0,0 11.54407,-0.62148 26.96457,-2.278c15.42053,-1.65648 19.15293,-3.37003 19.15293,-3.37003c0,0 -12.86119,8.6872 -22.23421,11.33351c-9.37302,2.64631 -22.31984,4.3809 -22.31984,4.3809l19.39166,2.15301c0,0 -10.64017,2.45694 -15.85438,2.99825c-4.96403,0.51538 -14.71727,0.17567 -14.71727,0.17567c0,0 -9.13193,-3.80375 -13.43886,-7.33595c-7.84426,-6.43327 -9.00234,-10.18042 -9.00234,-10.18042c0,0 -2.92741,-18.38569 1.98118,-33.13563c2.31948,-6.96988 13.72821,-11.02714 13.72821,-11.02714c0,0 -0.61721,-2.68454 4.97922,-3.45081z" data-paper-data="{&quot;index&quot;:null}" fill="#ff3300" stroke="none" stroke-width="0" stroke-linecap="butt"/><path d="M214.08369,175.20862c0,0 2.77865,-2.51298 7.72712,14.62727c2.02821,7.02513 1.15823,14.50212 -1.91388,20.51756c-2.08132,4.41199 -7.9595,4.71538 -9.49812,4.44796c-5.31582,-0.92383 -6.3801,-4.16898 -5.44756,-6.64477c1.10216,-2.92621 4.80115,-5.05933 4.80115,-5.05933c0,0 -1.82681,-3.442 -2.62626,-12.80313c-0.81743,-9.57226 6.95752,-15.08559 6.95752,-15.08559z" data-paper-data="{&quot;index&quot;:null}" fill="#ffbe7e" stroke="none" stroke-width="0" stroke-linecap="butt"/><path d="M215.17278,171.82537c0.99934,-0.13683 0.90373,5.89168 0.90373,5.89168c0,0 -1.68203,1.40211 -2.65754,1.14005c-0.97554,-0.26207 -1.5771,-2.30663 -1.5771,-2.30663c0,0 2.33157,-4.58826 3.33095,-4.72509z" data-paper-data="{&quot;index&quot;:null}" fill="#030000" stroke="none" stroke-width="0" stroke-linecap="butt"/><path d="M214.95245,212.02278c0,0 -0.62604,-1.23477 -0.6671,-2.85009c-0.04106,-1.61531 0.4901,-4.11128 0.4901,-4.11128" data-paper-data="{&quot;index&quot;:null}" fill="none" stroke="#000000" stroke-width="0.5" stroke-linecap="round"/></g><path d="M205.47289,191.18298l-4.21312,-9.15118" fill="none" stroke="#000000" stroke-width="1.5" stroke-linecap="round"/><path d="M198.8088,187.79326l9.00537,-4.00343" fill="none" stroke="#000000" stroke-width="1.5" stroke-linecap="round"/><path d="M194.16211,200.63465l8.36949,8.10497" fill="none" stroke="#000000" stroke-width="1.5" stroke-linecap="round"/><path d="M192.73827,209.47649l9.98563,-8.73383" fill="none" stroke="#000000" stroke-width="1.5" stroke-linecap="round"/><path d="M215.84571,241.59054c0,0 5.59489,4.03019 1.83627,14.05771c-2.01049,5.36371 -3.08462,8.41827 -9.80385,10.2621c-8.14295,2.23449 -14.63685,-3.53946 -14.4904,-6.24658c0.14648,-2.70715 6.44793,-7.42218 6.44793,-7.42218c0,0 0.41529,-1.76764 -1.11424,-2.14848c-3.01297,-0.75017 -8.41671,0.74413 -7.38653,-2.2181c1.55312,-4.46604 4.26817,-6.54825 6.82328,-8.09392c1.72951,-1.04628 3.02374,-0.7545 4.1008,-1.31875c1.14561,-0.60015 2.77043,-2.93904 2.77043,-2.93904c0,0 3.25479,-1.40537 5.94379,-0.64362c2.68904,0.76176 5.66882,3.46606 5.66882,3.46606l-0.79632,3.24479z" data-paper-data="{&quot;index&quot;:null}" fill="#dcdcd5" stroke="none" stroke-width="0" stroke-linecap="butt"/><path d="M205.88003,246.62426c0,0 -2.79539,1.83928 -0.84336,4.13267c0.70443,0.82762 0.39601,1.89204 1.49932,2.55741c2.34491,1.41418 5.24205,2.31281 5.0763,2.53353c-0.54915,0.73115 -10.54548,-3.12474 -11.04463,-2.83653" data-paper-data="{&quot;index&quot;:null}" fill="none" stroke="#c1b9a5" stroke-width="1" stroke-linecap="round"/><path d="M203.16921,238.22284c0,0 5.01346,-0.22849 7.11398,0.53046c0.96844,0.34987 5.25233,2.78053 5.25233,2.78053" data-paper-data="{&quot;index&quot;:null}" fill="none" stroke="#c1b9a5" stroke-width="1" stroke-linecap="round"/></g></g></svg>