<svg version="1.1" xmlns="http://www.w3.org/2000/svg" xmlns:xlink="http://www.w3.org/1999/xlink" width="29.43741" height="36.04993" viewBox="0,0,29.43741,36.04993"><g transform="translate(-223.55908,-163.4004)"><g data-paper-data="{&quot;isPaintingLayer&quot;:true}" fill-rule="nonzero" stroke-miterlimit="10" stroke-dasharray="" stroke-dashoffset="0" style="mix-blend-mode: normal"><g data-paper-data="{&quot;index&quot;:null}" stroke-linejoin="miter"><path d="M246.47492,198.55742c0,0 0.34818,0.23903 -0.6629,0.68233c-0.7332,0.30036 -2.25372,0.26375 -3.09489,-0.01052c-0.84118,-0.27427 -1.39689,-0.94483 -1.94451,-1.72659c-0.54762,-0.78176 -0.67829,-1.43284 -0.88508,-1.80776c-0.7353,-1.33311 0.50401,-1.9568 0.50401,-1.9568c0,0 0.97518,4.07106 1.76127,4.38134c0.96986,0.38281 3.11402,0.77799 3.11402,0.77799z" fill="#947043" stroke="none" stroke-width="0" stroke-linecap="butt"/><path d="M243.91455,192.80526l0.21943,0.28796l0.08755,0.41263c0,0 0.40502,0.81094 0.59899,1.10178c0.23868,0.35785 0.49292,0.74442 1.13335,1.52057c0.50976,0.94266 0.62495,2.53951 0.62495,2.53951c0,0 -1.2451,0.51515 -2.40495,0.49244c-0.87919,-0.11314 -2.07266,-0.53361 -2.53129,-1.0748c-0.54431,-0.64232 -0.81717,-1.40645 -1.05028,-1.88412c-0.02685,-0.05499 -0.63603,-1.51893 -0.5192,-1.89594c0.11679,-0.37702 0.3142,-0.95508 0.3142,-0.95508c0,0 -0.14193,0.04703 -0.09077,-0.28488c0.01169,-0.07577 0.20714,-0.29711 0.20714,-0.29711l-0.18937,-0.03811l0.01966,-0.72169l3.03235,-0.10911z" fill="#20201f" stroke="none" stroke-width="0" stroke-linecap="butt"/><path d="M240.36691,195.52286c0,0 0.29265,-1.46817 0.42762,-2.03895c0.10651,-0.45041 0.29528,-1.04269 0.29528,-1.04269" fill="none" stroke="#c8c7c6" stroke-width="0.125" stroke-linecap="round"/><path d="M240.00058,190.60773c-0.17486,-0.91842 1.06546,-1.3926 1.79561,-1.55286c0.73015,-0.16028 1.67472,0.60521 1.7406,0.77668c0.25128,0.65389 0.14295,1.73133 0.02375,1.91395c-0.3635,0.36781 -0.6748,0.50614 -1.75307,0.71759c-0.60483,0.04875 -1.05099,-0.08993 -1.43734,-0.48665c-0.38636,-0.39673 -0.23045,-0.63807 -0.36954,-1.36873z" fill="#c274a1" stroke="none" stroke-width="0" stroke-linecap="butt"/><path d="M240.02915,190.66327c-0.17485,-0.91842 1.06546,-1.3926 1.79561,-1.55286c0.73016,-0.16028 1.67474,0.60521 1.74061,0.77668c0.25125,0.6539 -1.24313,1.09891 -1.69792,1.22313c-0.37293,0.10188 -1.69917,0.28374 -1.83829,-0.44693z" fill="#cacacd" stroke="none" stroke-width="0" stroke-linecap="butt"/><path d="M243.98593,198.42252c-0.03332,-0.229 0.02646,-0.82692 0.02646,-0.82692c0,0 0.16488,0.41444 0.30838,0.77515c0.14349,0.3607 0.13638,0.68289 0.0443,0.73026c-0.05766,0.02965 -0.27472,0.084 -0.45185,-0.18671c-0.10568,-0.16153 0.10605,-0.2628 0.07271,-0.49179z" fill="#c8c7c6" stroke="none" stroke-width="0" stroke-linecap="butt"/><path d="M242.73932,198.57794c0,0 -0.04258,-2.15227 1.68668,-2.7328c1.21437,-0.40767 1.70087,0.62975 1.70087,0.62975" fill="none" stroke="#c8c7c6" stroke-width="0.125" stroke-linecap="round"/><path d="M245.90989,197.24228c0,0 0.31009,0.51471 0.37804,0.73591c0.06795,0.22122 0.30266,0.22205 0.27633,0.41328c-0.04414,0.3205 -0.26354,0.36435 -0.32837,0.36223c-0.1035,-0.00337 -0.24789,-0.29148 -0.27269,-0.67889c-0.02479,-0.38739 -0.05328,-0.83252 -0.05328,-0.83252z" data-paper-data="{&quot;index&quot;:null}" fill="#c8c7c6" stroke="none" stroke-width="0" stroke-linecap="butt"/></g><path d="M241.04813,184.40823l0.8595,3.64726l0.48919,2.2522c0,0 -0.37157,0.0821 -0.62545,0.01434c-0.2539,-0.06777 -0.63518,-0.25434 -0.63518,-0.25434l-0.6004,-2.16417l-0.75119,-3.38083z" data-paper-data="{&quot;index&quot;:null}" fill="#20201f" stroke="none" stroke-width="0" stroke-linecap="butt" stroke-linejoin="miter"/><g data-paper-data="{&quot;index&quot;:null}" stroke-linejoin="miter"><path d="M229.17426,193.92115l0.59554,1.10473c0,0 -0.15725,0.39198 -0.8106,-0.49794c-0.45319,-0.64995 -0.74944,-2.14177 -0.66543,-3.02253c0.08401,-0.88076 0.61707,-1.56946 1.26041,-2.27454c0.64334,-0.70509 1.25019,-0.97475 1.57092,-1.2584c1.14041,-1.00861 2.01962,0.06462 2.01962,0.06462c0,0 -3.75995,1.84045 -3.89113,2.67534c-0.16186,1.03003 -0.07937,3.20876 -0.07937,3.20876z" fill="#947043" stroke="none" stroke-width="0" stroke-linecap="butt"/><path d="M234.82418,191.27148l-0.2331,0.277l-0.38357,0.17551c0,0 -0.70295,0.57228 -0.94442,0.82508c-0.29714,0.31104 -0.61886,0.64357 -1.23647,1.43799c-0.80862,0.70327 -2.3418,1.16431 -2.3418,1.16431c0,0 -0.77456,-1.10259 -1.00563,-2.23943c-0.08156,-0.88271 0.06822,-2.13916 0.49622,-2.70489c0.50799,-0.67143 1.19412,-1.10451 1.60937,-1.43629c0.04782,-0.0382 1.34344,-0.95229 1.73685,-0.9206c0.39341,0.03166 1.00064,0.0981 1.00064,0.0981c0,0 -0.07687,-0.12822 0.25819,-0.15077c0.07648,-0.00514 0.33517,0.13727 0.33517,0.13727l-0.00416,-0.19313l0.70858,-0.13835l0.7685,2.93539z" fill="#20201f" stroke="none" stroke-width="0" stroke-linecap="butt"/><path d="M231.39758,188.40274c0,0 1.49668,-0.03492 2.08314,-0.02786c0.4628,0.00558 1.08199,0.06049 1.08199,0.06049" fill="none" stroke="#c8c7c6" stroke-width="0.125" stroke-linecap="round"/><path d="M238.0216,188.38538c0.31582,0.67755 -0.225,1.76645 -0.37793,1.86818c-0.58327,0.38796 -1.65836,0.51745 -1.86259,0.44102c-0.4383,-0.27442 -0.64126,-0.54803 -1.08302,-1.55411c-0.17962,-0.57959 -0.14172,-1.04526 0.16109,-1.50891c0.30281,-0.46363 0.57237,-0.36417 1.25503,-0.65944c0.85808,-0.37116 1.59161,0.73573 1.90742,1.41326z" fill="#c274a1" stroke="none" stroke-width="0" stroke-linecap="butt"/><path d="M236.06624,187.01216c0.85807,-0.37115 1.59161,0.73573 1.90742,1.41326c0.3158,0.67756 -0.22501,1.76646 -0.37795,1.86819c-0.58327,0.38798 -1.34381,-0.97321 -1.56433,-1.38991c-0.18084,-0.3417 -0.64786,-1.59626 0.03481,-1.89153z" fill="#cacacd" stroke="none" stroke-width="0" stroke-linecap="butt"/><path d="M229.358,192.56747c0.2162,-0.08254 0.81274,-0.1547 0.81274,-0.1547c0,0 -0.36844,0.2514 -0.6891,0.47019c-0.3207,0.21878 -0.63665,0.2822 -0.70297,0.20267c-0.04155,-0.04983 -0.14194,-0.24979 0.08355,-0.48173c0.13457,-0.13838 0.27963,0.04613 0.49581,-0.0364z" fill="#c8c7c6" stroke="none" stroke-width="0" stroke-linecap="butt"/><path d="M230.77912,193.82401c0,0 -0.40699,0.44208 -0.60024,0.56935c-0.19325,0.1273 -0.12819,0.35281 -0.31913,0.38119c-0.31998,0.0476 -0.42364,-0.15069 -0.43981,-0.2135c-0.0258,-0.10027 0.21019,-0.3197 0.57508,-0.45223c0.36489,-0.13251 0.78413,-0.28477 0.78413,-0.28477z" data-paper-data="{&quot;index&quot;:null}" fill="#c8c7c6" stroke="none" stroke-width="0" stroke-linecap="butt"/><path d="M228.93418,191.38491c0,0 2.09106,-0.51147 3.03513,1.04934c0.66297,1.09606 -0.24322,1.79732 -0.24322,1.79732" fill="none" stroke="#c8c7c6" stroke-width="0.125" stroke-linecap="round"/><g fill="#83c4ac" stroke="none" stroke-width="0" stroke-linecap="butt"><path d="M233.59587,189.23336c-0.05821,-0.09541 0.60107,-0.90969 0.60107,-0.90969l0.18566,0.10957l-0.03232,1.03357c0,0 -0.68571,-0.12086 -0.75439,-0.23343z"/><path d="M234.46328,187.53148c0.09766,0.05435 -0.05494,0.94543 -0.05494,0.94543l-0.26751,-0.11157l-0.3141,-0.7525c0,0 0.5213,-0.14547 0.63654,-0.08136z" data-paper-data="{&quot;index&quot;:null}"/><path d="M232.52709,189.03845c-0.04033,-0.10423 0.75287,-0.78872 0.75287,-0.78872l0.19857,0.16799l-0.25034,0.98421c0,0 -0.65342,-0.24052 -0.70105,-0.36348z"/><path d="M233.80521,187.5443c0.07913,0.07895 -0.31094,0.89453 -0.31094,0.89453l-0.22692,-0.18036l-0.09674,-0.80966c0,0 0.54118,0.0023 0.63455,0.09547z" data-paper-data="{&quot;index&quot;:null}"/><path d="M231.50516,188.58062l0.25894,-0.29996l0.88192,0.03911c0,0 0.39207,-0.1132 0.38354,0.05819c-0.00855,0.1714 -0.39595,0.19121 -0.39595,0.19121l-0.88818,0.40649z"/></g></g><path d="M238.25916,184.06622c0,0 2.30514,3.04197 1.75426,3.37735c-0.61985,0.3774 -1.61221,0.93054 -1.61221,0.93054l-1.56253,0.91043c0,0 -0.25708,-0.501 -0.30664,-0.77049c-0.04953,-0.26948 0.03601,-0.70118 0.03601,-0.70118l1.17832,-0.66415l0.75109,-0.37282l-1.45742,-2.44027z" data-paper-data="{&quot;index&quot;:null}" fill="#20201f" stroke="none" stroke-width="0" stroke-linecap="butt" stroke-linejoin="miter"/><g data-paper-data="{&quot;index&quot;:null}" stroke="none" stroke-width="0" stroke-linecap="butt" stroke-linejoin="miter"><path d="M247.64537,173.1745c0.25895,-0.00505 0.74133,-0.01756 0.91615,0.38093c0.04455,0.10155 -0.00559,0.6402 -0.00559,0.6402l0.36699,0.20323c0,0 0.09977,0.22912 0.08083,0.37923c-0.01895,0.15013 -0.15919,0.39455 -0.15919,0.39455c0,0 0.07551,0.15421 0.15082,0.25149c0.24581,0.31747 -0.03066,0.57309 -0.03066,0.57309c0,0 0.20469,0.20988 0.23812,0.41968c0.05299,0.3326 -0.07185,0.74586 -0.20873,0.93593c-0.2325,0.32289 -1.07464,1.04476 -1.41617,0.90106c-0.53195,-0.2238 -0.18166,-0.84235 -0.18166,-0.84235c0,0 -0.52007,0.304 -0.8847,0.30055c-0.56147,-0.00529 -0.84185,-0.23717 -0.84185,-0.23717l-1.02712,-2.22994c0,0 0.81544,-1.16785 1.39882,-1.78714c0.09295,-0.09868 1.12983,-0.27411 1.60394,-0.28334z" fill="#20201f"/><path d="M242.14213,176.68645c1.21773,-0.28071 2.4549,-0.64665 2.4549,-0.64665l-0.22961,1.32851c0,0 -1.62468,0.26874 -2.11596,0.38199c-0.80584,0.18577 -1.81746,0.463 -2.96736,0.80412c-0.28813,0.08548 -0.4999,-0.01534 -0.59907,-0.30561c-0.06662,-0.195 -0.04977,-0.40379 0.2934,-0.55598c1.03633,-0.45959 2.31198,-0.81001 3.16371,-1.00636z" fill="#fed5c7"/><path d="M243.41268,175.01705c0.64515,-0.6817 1.5029,-0.90239 2.18411,0.25946c0.68122,1.16185 0.55539,2.6379 -0.0735,3.34029c-0.62887,0.70239 -1.57989,-0.03734 -2.11993,-0.9584c-0.54005,-0.92106 -0.63582,-1.95966 0.00933,-2.64135z" fill="#20201f"/><path d="M248.4746,177.93344c-0.31799,0.26675 -0.8231,0.443 -1.13151,0.21c-0.48035,-0.36289 0.03264,-0.89832 0.03264,-0.89832c0,0 1.28607,0.53128 1.09887,0.68832z" fill="#c0c2c6"/><path d="M248.21361,176.54282c-0.31799,0.26675 -0.8231,0.443 -1.13151,0.21c-0.48035,-0.36289 0.03264,-0.89832 0.03264,-0.89832c0,0 1.28607,0.53128 1.09887,0.68832z" fill="#c0c2c6"/><path d="M247.93613,175.30068c-0.31799,0.26675 -0.8231,0.443 -1.13151,0.21c-0.48035,-0.36289 0.03264,-0.89832 0.03264,-0.89832c0,0 1.28607,0.53128 1.09887,0.68832z" fill="#c0c2c6"/><path d="M245.1956,175.07519c0,0 1.39129,0.02372 1.27456,0.23838c-0.19828,0.36463 -0.60383,0.71352 -0.97613,0.60957c-0.57982,-0.16189 -0.29841,-0.84793 -0.29841,-0.84793z" fill="#c0c2c6"/><path d="M247.56353,174.43699c-0.31799,0.26675 -0.8231,0.443 -1.13151,0.21c-0.48035,-0.36289 0.03264,-0.89832 0.03264,-0.89832c0,0 1.28607,0.53128 1.09887,0.68832z" fill="#c0c2c6"/><g><path d="M241.95366,178.07729l-1.09729,0.31152l-0.29248,-1.41205l1.09274,-0.34547z" fill="#83c4ac"/><path d="M239.35152,176.90457c1.05764,-0.30553 1.45257,0.15956 1.58938,0.75956c0.13679,0.6 0.0409,1.11673 -1.09396,1.41322c-0.63835,0.16677 -1.26673,-0.18442 -1.40354,-0.78442c-0.13682,-0.6 0.27368,-1.2051 0.90809,-1.38837z" fill="#20201f"/><path d="M243.23322,176.37958l0.27975,1.10733l-0.02945,0.66222l-1.56382,-0.0673l-0.30156,-1.47993l1.32364,-0.69527z" fill="#bebec0"/></g></g><g data-paper-data="{&quot;index&quot;:null}" stroke-width="0" stroke-linecap="butt" stroke-linejoin="miter"><g data-paper-data="{&quot;index&quot;:null}"><path d="M246.20793,166.39635c0.18661,1.04695 -0.51397,2.04752 -1.56479,2.23482c-1.05081,0.18729 -2.05394,-0.50961 -2.24055,-1.55657c-0.18661,-1.04695 0.51395,-2.04752 1.56477,-2.23482c1.05081,-0.1873 2.05396,0.5096 2.24057,1.55656z" fill="#c2e266" stroke="none"/><path d="M244.69518,168.51949c-0.6492,0.11573 -1.26893,-0.31483 -1.38421,-0.96164c-0.11529,-0.64683 0.31751,-1.26496 0.96672,-1.38068c0.6492,-0.11573 1.26893,0.31483 1.38421,0.96164c0.11529,0.64682 -0.31751,1.26496 -0.96672,1.38068z" fill="#c2e266" stroke="#000000"/><path d="M245.40547,173.15606c0,0 -1.94382,-1.15394 -1.84108,-2.54567c0.09896,-1.34036 0.21419,-1.56712 0.21419,-1.56712l2.07319,-0.35441c0,0 0.96631,0.94233 0.8086,2.0202c-0.15772,1.07787 -1.2549,2.447 -1.2549,2.447z" fill="#e8edf4" stroke="#000000"/><path d="M244.82594,169.1004c-0.57554,0.09995 -1.34875,-0.12147 -1.34875,-0.12147l0.19198,-0.53185c0,0 0.68667,0.21549 1.12925,0.11045c0.44258,-0.10504 0.99035,-0.61352 0.99035,-0.61352l0.334,0.63263c0,0 -0.79313,0.43629 -1.29684,0.52377z" fill="#dbded5" stroke="#000000"/></g><g data-paper-data="{&quot;index&quot;:null}" stroke="none"><path d="M239.52084,173.8571c0.19807,-0.03531 0.41803,0.26933 0.49131,0.68045c0.07327,0.4111 -0.02791,0.773 -0.22596,0.8083c-0.19806,0.03529 -0.41801,-0.26935 -0.49129,-0.68047c-0.07327,-0.41111 0.02789,-0.773 0.22594,-0.8083z" fill="#000000"/><path d="M239.06287,179.2968c0.2063,-0.03678 1.34806,1.94092 1.34806,1.94092c0,0 -0.97554,0.5118 -1.18185,0.54858c-0.2063,0.03677 -0.76475,-1.09022 -0.79699,-1.27111c-0.03225,-0.18089 0.42447,-1.1816 0.63078,-1.21838z" fill="#807d5a"/><path d="M239.51292,175.16139l-0.15447,-0.28992l3.75665,-6.66021l0.15604,0.12579z" fill="#6e6e73"/><path d="M242.65565,168.80515l0.38533,0.25901l-0.91672,1.54586l-0.35546,-0.26433z" fill="#c2e266"/></g></g><g data-paper-data="{&quot;index&quot;:null}" stroke-width="0" stroke-linecap="butt" stroke-linejoin="miter"><g data-paper-data="{&quot;index&quot;:null}"><path d="M223.5977,171.42754c-0.23941,-1.34309 0.65933,-2.62664 2.00736,-2.86692c1.34804,-0.24026 2.63488,0.65375 2.87427,1.99682c0.23941,1.34309 -0.65933,2.62663 -2.00736,2.86691c-1.34803,0.24027 -2.63488,-0.65374 -2.87427,-1.99681z" fill="#c2e266" stroke="none"/><path d="M226.35982,173.31299c-0.83282,0.14843 -1.62784,-0.40388 -1.77574,-1.23364c-0.1479,-0.82977 0.40734,-1.62275 1.24015,-1.77118c0.83283,-0.14843 1.62784,0.40387 1.77574,1.23363c0.14789,0.82974 -0.40733,1.62275 -1.24014,1.77118z" fill="#c2e266" stroke="#000000"/><path d="M224.96453,176.81985c-0.66758,-1.22767 0.07804,-2.79039 0.07804,-2.79039l2.65285,-0.49221c0,0 0.23921,0.22191 0.95242,1.79163c0.74052,1.62987 -0.74641,4.22853 -0.74641,4.22853c0,0 -2.26931,-1.50988 -2.93691,-2.73754z" fill="#e8edf4" stroke="#000000"/><path d="M226.45987,174.07023c-0.64515,0.11795 -1.79331,-0.05573 -1.79331,-0.05573l0.12169,-0.90962c0,0 0.8848,0.36936 1.46414,0.29965c0.57934,-0.06972 1.31048,-0.63349 1.31048,-0.63349l0.46684,0.55517c0,0 -0.83266,0.60927 -1.56982,0.74403z" fill="#dbded5" stroke="#000000"/></g><g data-paper-data="{&quot;index&quot;:null}" stroke="none"><path d="M234.1323,180.13517c0.12815,-0.45373 -0.01459,-2.93347 1.26311,-3.12179c0.19831,-0.02924 1.94838,0.97708 2.36299,1.96632c0.56398,1.34565 -0.20939,2.79285 -0.20939,2.79285l-3.07039,0.52757c0,0 -0.47447,-1.71122 -0.34632,-2.16494z" fill="#c2e266"/><path d="M234.66477,178.48209c-0.094,-0.5274 0.03576,-0.99163 0.28984,-1.03692c0.25409,-0.04529 0.53626,0.34554 0.63026,0.87292c0.094,0.52738 -0.03578,0.99163 -0.28986,1.03692c-0.25409,0.04528 -0.53625,-0.34555 -0.63025,-0.87293z" fill="#000000"/><path d="M235.01184,184.4237c-0.29385,-0.80851 -0.53915,-2.13715 -0.53915,-2.13715c0,0 0.497,-0.43928 0.83685,-0.60901c0.33984,-0.16973 0.92481,-0.32635 0.92481,-0.32635l1.34983,0.55665c0,0 0.72749,2.90523 0.80732,3.27968c0.16078,0.75412 -1.14413,1.57014 -1.14413,1.57014l-1.24705,-0.26805c0,0 -0.69465,-1.2574 -0.98851,-2.06591z" fill="#20201f"/><path d="M237.15437,186.72472c0,0 0.49791,-2.88687 0.76258,-2.93405c0.26466,-0.04717 1.25802,0.95513 1.29938,1.18718c0.04137,0.23205 -0.1314,1.83629 -0.39607,1.88347c-0.26467,0.04718 -1.66589,-0.13658 -1.66589,-0.13658z" fill="#c274a1"/><path d="M227.9933,172.46216l0.13208,-0.22061l7.47437,6.35277l-0.05744,0.41747z" fill="#6e6e73"/><path d="M230.6921,174.21436l-0.31075,0.47578l-1.78874,-1.45465l0.3491,-0.48259z" fill="#c2e266"/></g></g><g data-paper-data="{&quot;index&quot;:null}" stroke="none" stroke-width="0" stroke-linecap="butt" stroke-linejoin="miter"><path d="M238.38608,182.86397c0,0 -2.36488,3.1695 -3.1738,3.32364c-0.879,0.16749 -2.71776,-0.76954 -2.71776,-0.76954l2.60542,-0.02238l1.96492,-2.36348l1.32124,-0.16822z" fill="#f79db4"/><path d="M236.52108,180.28746c0.49911,0.47697 0.29956,1.11653 -0.17739,1.61563c-0.47697,0.4991 -1.05073,0.66873 -1.54983,0.19178c-0.49911,-0.47695 -0.51704,-1.2682 -0.04009,-1.7673c0.47695,-0.4991 1.26821,-0.51704 1.76731,-0.04009z" fill="#83c4ac"/><path d="M245.20109,181.66468c0,0 -0.05945,0.93947 -0.87725,1.54187c0.01253,0.75725 -0.34599,1.62723 -1.27296,1.93811c-0.15487,0.54592 -0.71024,1.06616 -1.64561,0.97603c-0.23372,0.45554 -0.88973,0.80307 -1.54812,0.41669c-0.56988,0.54318 -1.40009,0.63607 -1.99879,0.0876c-0.76924,0.36176 -1.36832,-0.35954 -1.94738,-0.63924c-0.60082,0.06493 -1.36218,-0.16897 -1.71005,-1.04839c-0.3824,-0.78632 -0.91629,-1.14622 -0.91629,-1.14622l1.70524,-0.9117c0,0 0.29842,0.13649 0.97604,0.5632c0.55876,0.35186 1.24797,1.06636 3.35527,0.61761c2.36332,-0.50326 2.75331,-0.98292 3.06566,-1.77118c0.22136,-0.55859 0.80734,-0.87525 0.80734,-0.87525z" fill="#c0c2c6"/><path d="M239.43104,177.46655c0,0 0.33831,0.72666 0.54893,1.32779c0.21061,0.60113 0.44681,1.4633 0.44681,1.4633c0,0 0.802,0.48057 1.55125,0.73625c0.74924,0.25566 1.37377,0.49288 1.37377,0.49288c0,0 -0.49906,0.37785 -0.67861,0.86289c-0.10669,0.28821 0.21667,0.61539 -0.04469,0.92056c-0.34775,0.40606 -0.99879,0.14733 -1.27962,0.37211c-0.60023,0.4804 -0.81822,1.17739 -1.97492,1.2833c-0.6478,0.05931 -1.1968,-0.50488 -1.59462,-0.53664c-0.74367,-0.05936 -1.10091,0.3225 -1.58616,0.12455c-0.28664,-0.11694 -0.29466,-0.5887 -0.53007,-0.84607c-0.37627,-0.4114 -0.91135,-0.62743 -0.91135,-0.62743c0,0 1.12109,-0.77133 1.59611,-1.39237c0.47503,-0.62104 0.51132,-0.77817 0.69281,-1.59631c0.1815,-0.81813 -0.29583,-2.16408 -0.29583,-2.16408l2.31786,-0.3935l0.36832,-0.02724z" fill="#20201f"/><path d="M236.13488,182.43836l-0.2851,-0.25679c0,0 0.29219,-0.28694 0.43677,-0.48788c0.16051,-0.22307 0.2416,-0.35278 0.2416,-0.35278l0.73109,0.61789l-0.27916,0.42312z" data-paper-data="{&quot;index&quot;:null}" fill="#c274a1"/><path d="M237.84455,182.83927l-0.86431,-0.44125l0.22392,-0.34099l0.97388,0.50172z" data-paper-data="{&quot;index&quot;:null}" fill="#c0c2c6"/><path d="M240.93312,181.63938l-0.43735,-0.25629l0.38297,-0.87728c0,0 0.13005,0.08055 0.37257,0.20978c0.21847,0.11641 0.60737,0.24478 0.60737,0.24478l-0.14235,0.3563z" fill="#c274a1"/><path d="M239.55389,182.56192l0.98548,-1.18661l0.35151,0.20702l-0.9139,1.08395z" fill="#c0c2c6"/><path d="M236.70364,179.67294c-0.14426,-1.63745 0.23205,-1.96411 0.23205,-1.96411l2.60032,-0.39433c0,0 0.55723,-0.03478 0.81266,1.3542c0.11276,0.61313 -0.04784,1.54617 -0.04784,1.54617l-0.58882,-0.59035c0,0 -0.30463,0.66267 -0.50557,0.93252c-0.19734,0.26503 -0.57271,0.59195 -0.72924,0.67945c-0.1613,0.09015 -1.59748,0.43524 -1.77357,-1.56353z" fill="#c0c0c3"/><path d="M237.72991,177.79388l1.92408,-0.49542l-0.46019,0.65191z" fill="#222225"/><g><g><path d="M240.17868,183.40522c-0.25974,0.58087 -1.10934,0.76602 -1.89767,0.41352c-0.78832,-0.35246 -1.21683,-1.10911 -0.9571,-1.68998c0.25974,-0.58087 1.10934,-0.76602 1.89767,-0.41352c0.78831,0.35247 1.21682,1.10911 0.95709,1.68999z" fill="#c0c2c6"/><path d="M238.66032,180.83021c0.19173,0.16166 0.21609,0.44815 0.05443,0.63986c-0.16165,0.19172 -0.44815,0.21609 -0.63986,0.05443c-0.19172,-0.16166 -0.21608,-0.44816 -0.05442,-0.63987c0.16167,-0.19172 0.44816,-0.21608 0.63987,-0.05442z" fill="#000000"/><path d="M238.69822,181.09995c0.02654,0.18636 -0.14928,0.16967 -0.33563,0.19622c-0.18636,0.02655 -0.31266,0.08628 -0.33921,-0.10007c-0.02655,-0.18635 0.10299,-0.35893 0.28934,-0.38548c0.18635,-0.02655 0.35893,0.10299 0.38548,0.28934z" fill="#c478a9"/><path d="M240.63948,182.11498c-0.07191,0.24026 -0.32496,0.37673 -0.56522,0.30482c-0.24026,-0.0719 -0.37672,-0.32496 -0.30481,-0.56522c0.07191,-0.24026 0.32496,-0.37673 0.56522,-0.30482c0.24026,0.07191 0.37673,0.32496 0.30482,0.56522z" fill="#000000"/><path d="M240.40714,182.25716c-0.16035,0.0986 -0.21508,-0.06932 -0.31367,-0.22967c-0.09859,-0.16034 -0.20369,-0.2524 -0.04334,-0.35099c0.16036,-0.09858 0.37025,-0.04852 0.46884,0.11183c0.09858,0.16036 0.04852,0.37025 -0.11183,0.46884z" fill="#c478a9"/><path d="M239.98789,182.44619c0.01509,0.08464 -0.14196,0.22064 -0.38096,0.26324c-0.239,0.0426 -0.47068,-0.13572 -0.48577,-0.22038c-0.01509,-0.08463 0.17481,-0.24509 0.41382,-0.28769c0.239,-0.0426 0.43784,0.16018 0.45293,0.24485z" fill="#000000"/><path d="M238.22765,181.67174c0.07131,-0.04803 0.35531,-0.04616 0.4909,0.15522c0.13558,0.20138 0.15233,0.44942 0.08101,0.49745c-0.07132,0.04802 -0.36058,0.00554 -0.49617,-0.19584c-0.13558,-0.20137 -0.14706,-0.40879 -0.07574,-0.45682z" data-paper-data="{&quot;index&quot;:null}" fill="#000000"/><path d="M239.68495,182.4165c0.01598,0.08963 -0.04372,0.17524 -0.13335,0.19121c-0.08963,0.01597 -0.17524,-0.04373 -0.19121,-0.13336c-0.01598,-0.08962 0.04372,-0.17523 0.13335,-0.1912c0.08962,-0.01599 0.17523,0.04371 0.1912,0.13334z" fill="#ffffff"/><path d="M238.64442,182.26709c-0.09461,0.01687 -0.18496,-0.04616 -0.20183,-0.14076c-0.01687,-0.09461 0.04616,-0.18496 0.14076,-0.20183c0.09461,-0.01687 0.18496,0.04616 0.20183,0.14076c0.01687,0.09461 -0.04616,0.18496 -0.14076,0.20183z" fill="#ffffff"/></g><path d="M239.07792,182.68947c-0.02963,0.0587 -0.13145,0.08751 -0.21723,0.04422c-0.08579,-0.0433 -0.12305,-0.14234 -0.09342,-0.20104c0.02963,-0.0587 0.34028,0.09812 0.31065,0.15682z" fill="#000000"/><path d="M239.55442,182.88384c0.13486,0.0432 0.22541,0.1368 0.20227,0.20905c-0.02315,0.07225 -0.15125,0.09577 -0.2861,0.05257c-0.13486,-0.0432 -0.22541,-0.1368 -0.20227,-0.20905c0.02315,-0.07225 0.15125,-0.09577 0.2861,-0.05257z" fill="#ad597c"/><path d="M238.19851,182.26974c0.13486,0.0432 0.22541,0.1368 0.20227,0.20905c-0.02315,0.07225 -0.15125,0.09577 -0.2861,0.05257c-0.13486,-0.0432 -0.22541,-0.1368 -0.20227,-0.20905c0.02315,-0.07225 0.15125,-0.09577 0.2861,-0.05257z" fill="#ad597c"/></g><g fill="#83c4ac"><path d="M240.5754,179.89118c0,0 -0.42108,-0.18864 -0.59285,-0.25742c-0.19328,-0.0774 -0.50994,-0.18418 -0.50994,-0.18418l0.04638,-0.19692c0,0 0.3859,-0.11474 0.56678,-0.11352c0.19756,0.00133 0.57299,0.12117 0.57299,0.12117l-0.08336,0.63086z"/><path d="M239.13246,180.08492c-0.09713,0.15748 -0.32332,0.55962 -0.32332,0.55962l-0.44236,-0.45743c0,0 0.23045,-0.3197 0.38844,-0.43832c0.14465,-0.10859 0.81453,-0.51519 0.81453,-0.51519l-0.07306,0.22555c0,0 -0.25493,0.44858 -0.36423,0.62578z" data-paper-data="{&quot;index&quot;:null}"/><path d="M239.89951,181.13962c0,0 -0.11048,-0.599 -0.18155,-0.90115c-0.07107,-0.30214 -0.21081,-0.76688 -0.21081,-0.76688l0.28106,-0.02293c0,0 0.12388,0.30127 0.20139,0.58856c0.07751,0.28728 0.15864,0.74579 0.15864,0.74579z"/><path d="M239.42626,181.07464c0,0 -0.08227,-0.4583 -0.10879,-0.75468c-0.02653,-0.29639 -0.02089,-0.81083 -0.02089,-0.81083l0.2275,-0.09485c0,0 0.0327,0.57886 0.0704,0.88695c0.0377,0.30809 0.13251,0.93704 0.13251,0.93704z" data-paper-data="{&quot;index&quot;:null}"/></g></g><g data-paper-data="{&quot;index&quot;:null}" stroke-width="0" stroke-linecap="butt" stroke-linejoin="miter"><path d="M246.84214,167.3492c0.62424,-2.96731 3.17775,-3.28462 3.17775,-3.28462c0,0 -0.24928,-0.09343 0.46518,0.04503c0.71445,0.13847 0.36346,0.11324 0.36346,0.11324c0,0 -0.85067,2.09178 -1.67667,3.79176c-0.10576,2.82153 0.20501,3.66105 0.20501,3.66105l-0.92768,-0.23479c0,0 -2.052,-1.97694 -1.60711,-4.09166z" fill="#cacacd" stroke="none"/><path d="M252.89148,168.54565c-0.73409,3.65709 -3.54628,3.13847 -3.54628,3.13847c0,0 -1.25913,-1.59348 -0.70675,-4.29001c0.52008,-2.53896 2.2912,-3.18429 2.2912,-3.18429c0,0 2.616,1.077 1.96183,4.33583z" fill="#c2e266" stroke="#000000"/><path d="M245.85323,170.73577c0,0 -3.97099,-0.93674 -3.19506,-4.47325c0.76485,-3.48601 4.59784,-2.80916 4.59784,-2.80916l-1.40278,7.28242z" fill="#c2e266" stroke="none"/><path d="M245.60434,170.68656c0,0 -1.92554,-1.34427 -1.30725,-4.13096c0.62868,-2.81837 2.67763,-3.15473 2.67763,-3.15473l0.27369,0.05769l-2.25057,3.23214l0.94666,4.07855z" fill="#cacacd" stroke="none"/><path d="M244.70607,166.84256c0.51136,-2.91463 2.54667,-3.39551 2.54667,-3.39551l3.04081,0.63776c0,0 -1.95199,1.56574 -2.25645,3.16547c-0.30448,1.59972 0.83913,4.28129 0.83913,4.28129l-3.04597,-0.77024c0,0 -1.48865,-1.8416 -1.1242,-3.91877z" fill="#c274a1" stroke="none"/><path d="M247.76202,173.75422l-1.80426,11.14994c0,0 -0.42888,0.15379 -0.8551,0.07761c-0.42621,-0.07618 -1.02914,-0.41435 -1.02914,-0.41435l1.69745,-11.16385c0,0 0.54215,0.18948 0.94343,0.26014c0.40127,0.07067 1.04766,0.09051 1.04766,0.09051z" fill="#c2e266" stroke="none"/><path d="M248.59274,171.37676c0,0 -0.46965,2.2133 -0.5555,2.28123c-0.3259,0.25789 -2.03921,0.04503 -2.44253,-0.37872c-0.23815,-0.25019 0.2995,-2.59426 0.2995,-2.59426l2.69852,0.69176z" fill="#cacacd" stroke="none"/></g><g data-paper-data="{&quot;index&quot;:null}"><g data-paper-data="{&quot;index&quot;:null}" fill="#86cbb6" stroke="none" stroke-width="0" stroke-linecap="butt" stroke-linejoin="miter"><path d="M230.29312,172.90558c-0.38868,0.28598 -0.80864,0.67418 -0.80864,0.67418l-0.52816,-0.88044c0,0 0.75725,-0.49842 1.16929,-0.63223c0.41205,-0.13381 1.25481,-0.07717 1.25481,-0.07717l-0.45842,0.51711c0,0 -0.24018,0.11256 -0.62885,0.39852z"/><path d="M230.02902,174.13684c0,0 0.18502,-0.49761 0.299,-0.77045c0.14209,-0.34012 0.48794,-1.11324 0.48794,-1.11324l0.52241,-0.28694c0,0 -0.26291,1.18498 -0.33193,1.56843c-0.05011,0.27839 -0.15892,0.87054 -0.15892,0.87054z"/></g><g stroke="none" stroke-width="0" stroke-linecap="butt" stroke-linejoin="miter"><path d="M229.03104,169.75493c0.48237,-0.70248 1.02768,-0.65213 1.51475,-0.52183c0.63659,0.16593 1.32835,0.58988 1.32835,0.58988c0,0 -0.47245,0.89427 -0.57906,1.47046c-0.10663,0.57621 0.02775,1.50888 0.02775,1.50888c0,0 -1.65981,-0.3412 -2.13628,-1.11673c-0.47647,-0.77552 -0.54836,-1.18519 -0.1555,-1.93066z" data-paper-data="{&quot;index&quot;:null}" fill="#20201f"/><path d="M228.87941,170.80704c-0.03802,-0.53308 1.26432,0.40673 1.26432,0.40673l-0.40754,0.96111c0,0 -0.80752,-0.67743 -0.85677,-1.36785z" data-paper-data="{&quot;index&quot;:null}" fill="#b2b1b2"/></g><path d="M235.05616,167.15548c3.10662,-1.22163 6.47912,-0.03999 7.53269,2.63926c1.05357,2.67922 -0.61074,5.84151 -3.71735,7.06315c-3.10661,1.22163 -6.47911,0.04001 -7.53269,-2.63924c-1.05357,-2.67922 0.61074,-5.84152 3.71735,-7.06316z" fill="#f79eb4" stroke="none" stroke-width="0" stroke-linecap="butt" stroke-linejoin="miter"/><path d="M232.51177,175.11501c-0.00045,-0.00059 0.61084,1.01414 1.22632,1.4678c0.61549,0.45366 2.69097,1.4903 2.69097,1.4903l0.59646,0.74452c0,0 -1.39827,0.48786 -3.3189,-1.08792c-1.19448,-0.97441 -1.55481,-1.97227 -1.54308,-1.95957" fill="#f79eb4" stroke="#f89db5" stroke-width="0" stroke-linecap="butt" stroke-linejoin="round"/><g fill="#ffd5c5" stroke="none" stroke-width="1" stroke-linecap="round" stroke-linejoin="round"><path d="M234.24686,177.00647c-0.00936,-0.05892 0.12144,0.01578 0.17658,0.03858c0.34072,0.14064 0.50745,-0.24278 0.63461,-0.45876c0.09772,-0.16593 0.30567,-0.31539 0.48033,-0.38647c0.84394,-0.33312 2.68406,-0.42249 2.98095,-0.52487c0.27633,-0.09528 0.89425,-0.84242 1.1443,-1.0542c0.25655,-0.21729 0.54531,-0.22229 0.60397,-0.20516c0.123,0.03597 0.97425,0.23757 0.45934,1.54962c-0.07156,0.18229 -0.66164,0.98176 -1.0813,1.20685c-0.35191,0.18871 -1.56432,0.8783 -2.66582,0.93521c-0.87786,0.04534 -1.49334,-0.13404 -1.57201,-0.1572c-0.48076,-0.14173 -1.07482,-0.40291 -1.16096,-0.94354z"/><path d=""/></g><g fill="#000000" stroke="#000000" stroke-width="0.125" stroke-linecap="butt" stroke-linejoin="round"><path d="M232.85994,175.88537c0.01226,0.02157 -0.61676,0.15429 -0.69716,0.16185c-0.36615,0.03451 -0.68526,0.04281 -1.05269,0.01623c-0.11723,-0.00847 -0.52133,-0.08112 -0.51552,-0.08142c0.17057,-0.00893 0.34541,0.03545 0.51736,0.03366c0.28717,-0.00304 0.57331,-0.03135 0.85896,-0.06224c0.4476,-0.06505 0.71213,-0.20181 0.77785,-0.20525"/><path d="M232.5569,175.47658c0.01142,0.02012 -0.61517,0.11681 -0.9485,0.07626c-0.33332,-0.04054 -1.12266,-0.29554 -1.11113,-0.28516c0.03054,0.02751 0.70136,0.15281 1.15818,0.17395c0.45683,0.02115 0.76065,-0.11165 0.77515,-0.14471"/></g><g fill="#000000" stroke="none" stroke-width="1" stroke-linecap="round" stroke-linejoin="round"><path d="M235.08872,176.7082c0.06044,-0.09564 0.53136,-0.34372 0.70978,-0.29777c0.23475,0.06046 -0.06269,0.38674 -0.27219,0.50731c-0.09963,0.04708 -0.54213,-0.04409 -0.43759,-0.20954z"/><path d=""/></g><path d="M241.29771,170.77985c0.02628,0.00444 0.71515,2.19354 0.76899,2.73416c0.08077,0.81119 0.02117,1.63711 -0.24365,2.41101c-0.11261,0.32902 -0.24999,0.61816 -0.41559,0.92059c-0.0536,0.09792 -0.30073,0.44698 -0.30073,0.44698c0,0 -0.01992,-1.09715 -0.58856,-2.65515c-0.30198,-0.82734 -1.12703,-2.59687 -1.08858,-2.55503" fill="#f79eb4" stroke="#f89db5" stroke-width="0" stroke-linecap="butt" stroke-linejoin="round"/><path d="M242.33645,169.65179c0.29881,0.26876 0.88625,2.04324 1.03996,3.4429c0.11846,1.07865 -0.03804,1.44356 -0.2959,2.14372c-0.29205,0.79292 -0.65158,1.00248 -0.65158,1.00248c0,0 0.0118,-1.24659 -0.13669,-2.02441c-0.14849,-0.77781 -0.899,-3.49229 -0.91799,-3.50056" fill="#f79eb4" stroke="#f89db5" stroke-width="0" stroke-linecap="butt" stroke-linejoin="round"/><g stroke="none" stroke-width="1" stroke-linecap="round" stroke-linejoin="round"><path d="M231.89823,170.50195c0.05022,-0.14654 1.63746,-2.69373 4.59088,-3.36323c3.66482,-0.7911 5.50774,2.89381 5.50505,2.89419c-0.03768,0.00519 -1.1631,-1.23848 -2.30566,-1.52871c-1.48152,-0.37637 -2.34012,-0.59563 -3.68709,-0.29898c-1.70899,0.37637 -3.43943,2.5514 -3.50684,2.638" fill="#20201f"/><path d="" fill="#ee1a40"/></g><path d="M232.83924,173.12177c-0.03668,-0.01163 -1.61049,0.40039 -2.05963,0.809c-0.8226,0.74834 -1.16606,2.49984 -1.18677,2.51061c-0.01445,0.00745 -0.61684,-1.00243 -0.56509,-1.7522c-0.0266,-0.79159 0.73965,-1.66064 1.00616,-1.85082c1.49929,-1.05762 2.60056,-0.84663 2.57269,-0.85547" fill="#f79eb4" stroke="#f89db5" stroke-width="0" stroke-linecap="butt" stroke-linejoin="round"/><path d="M232.59954,171.98827c-0.12728,-0.03965 -1.60826,-0.37812 -2.6459,-0.18011c-0.7479,0.14273 -1.8906,1.18648 -1.8906,1.18648c0,0 0.67876,-1.55489 2.55959,-2.39328c0.5741,-0.19196 0.75579,-0.18916 1.10997,-0.05637c0.35418,0.13279 1.63769,1.08906 1.67653,1.16306" fill="#f79eb4" stroke="#f89db5" stroke-width="0" stroke-linecap="butt" stroke-linejoin="round"/><path d="M235.42605,173.98164c0,0 -0.25175,-3.57164 2.55938,-3.89852c1.27086,0.1318 1.44135,2.29908 1.44135,2.29908c0,0 -1.29481,-1.26383 -1.86018,-1.0415c-0.56537,0.22232 -2.14055,2.64094 -2.14055,2.64094z" data-paper-data="{&quot;index&quot;:null}" fill="#20201f" stroke="none" stroke-width="0" stroke-linecap="butt" stroke-linejoin="miter"/><path d="M235.43936,174.58213c0.25572,-1.12312 -0.10202,-2.82359 1.71666,-3.79077c0.39504,-0.2101 1.82605,-0.14487 2.34566,1.95276c0.17292,0.69804 0.26371,1.81496 -0.70363,2.82923c-0.53678,0.41922 -2.23857,0.29732 -2.88058,0.51245c-1.12717,0.37773 -0.77128,0.81091 -1.3242,1.00541c-0.13838,0.04868 -1.22258,-0.45044 -1.97617,-1.46746c-0.35535,-0.47958 -0.62016,-1.27997 -0.5566,-1.30433c0.41943,-0.16076 1.11663,0.56578 1.68584,0.90383c0.39813,0.23646 0.8626,0.37781 1.16527,0.22642c0.17644,-0.08824 0.36473,-0.15163 0.52774,-0.86758z" fill="#ffffff" stroke="none" stroke-width="0" stroke-linecap="butt" stroke-linejoin="miter"/><path d="M233.26545,174.05149c-0.07623,0.12055 -1.0063,0.97094 -1.10845,1.31887c-0.29772,1.03632 -0.52983,2.1601 -0.48834,2.17038c0.00192,0.00049 -0.54608,-1.333 -0.74584,-1.90984c-0.07081,-0.13339 0.29481,-1.3644 0.47227,-1.58807c0.61775,-0.77858 1.56273,-0.90311 1.53578,-0.86055" fill="#f79eb4" stroke="#f89db5" stroke-width="0" stroke-linecap="butt" stroke-linejoin="round"/><g fill="#000000" stroke="#000000" stroke-width="0.125" stroke-linecap="butt" stroke-linejoin="round"><path d="M238.46977,171.038c0.03933,-0.03492 0.08985,-0.01691 0.13415,-0.03165c0.04645,-0.01546 0.24846,-0.11789 0.38927,-0.22163c0.72305,-0.53273 0.92208,-1.16592 0.92208,-1.16592c0,0 -0.0054,0.41229 -0.94608,1.36315c-0.1465,0.14813 -0.29383,0.1922 -0.32976,0.16761"/><path d="M239.03829,171.57511c0.03277,-0.00876 0.11096,0.02387 0.14576,0.033c0.07896,0.02077 0.6391,0.10789 1.28824,-0.27145c0.21459,-0.127 0.85388,-0.61785 0.85388,-0.61785c0,0 -0.27344,0.35288 -0.87348,0.69852c-0.25165,0.14495 -0.82729,0.37526 -1.083,0.39014c-0.1379,0.00802 -0.18761,-0.01865 -0.18761,-0.01865"/></g><g stroke="none" stroke-linecap="butt" stroke-linejoin="miter"><path d="M236.43334,173.28098c0.21102,-0.0991 0.63045,0.34929 0.93678,1.00157c0.30633,0.65227 0.38361,1.26137 0.17259,1.36048c-0.21102,0.09909 -0.63045,-0.3493 -0.93679,-1.00156c-0.30635,-0.65227 -0.38362,-1.26138 -0.1726,-1.36049z" fill="#169c5b" stroke-width="NaN"/><path d="M237.21862,174.53182c0.12794,0.27244 0.15653,0.5286 0.0638,0.57214c-0.09272,0.04355 -0.27162,-0.14201 -0.39957,-0.41446c-0.12794,-0.27244 -0.15653,-0.5286 -0.0638,-0.57214c0.09272,-0.04355 0.27162,0.14201 0.39957,0.41446z" fill="#000000" stroke-width="0"/><path d="M236.85824,173.94498c0.12945,0.27564 0.14368,0.54167 0.03178,0.59423c-0.1119,0.05256 -0.30757,-0.12828 -0.43702,-0.40391c-0.12945,-0.27564 -0.14368,-0.54168 -0.03178,-0.59424c0.1119,-0.05256 0.30757,0.12829 0.43702,0.40391z" fill="#ffffff" stroke-width="0"/></g><g stroke="none" stroke-linecap="butt" stroke-linejoin="miter"><path d="M234.3688,175.98685c0.21607,0.46009 0.2706,0.8897 0.12175,0.9596c-0.14885,0.06989 -0.44466,-0.24638 -0.66075,-0.70645c-0.21607,-0.46008 -0.27059,-0.8897 -0.12174,-0.9596c0.14886,-0.06991 0.44466,0.24637 0.66074,0.70644z" fill="#169c5b" stroke-width="NaN"/><path d="M234.30696,176.56621c-0.06539,0.03072 -0.19157,-0.10016 -0.28183,-0.29232c-0.09026,-0.19217 -0.1104,-0.37283 -0.04498,-0.40355c0.06539,-0.03073 0.19157,0.10014 0.28182,0.29231c0.09027,0.19217 0.11041,0.37283 0.04499,0.40356z" fill="#000000" stroke-width="0"/><path d="M233.69949,175.46384c0.07894,-0.03707 0.21694,0.0905 0.30826,0.28491c0.0913,0.19442 0.10135,0.38206 0.02242,0.41913c-0.07894,0.03707 -0.21694,-0.09048 -0.30826,-0.28489c-0.0913,-0.19442 -0.10136,-0.38207 -0.02241,-0.41915z" fill="#ffffff" stroke-width="0"/></g><path d="M240.01124,175.85833c0,0 -0.2535,0.25898 -0.43011,0.35154c-0.17662,0.09256 -0.70838,0.3087 -0.70838,0.3087" data-paper-data="{&quot;index&quot;:null}" fill="none" stroke="#000000" stroke-width="0.125" stroke-linecap="round" stroke-linejoin="miter"/><g fill="#86cbb6" stroke="none" stroke-width="0" stroke-linecap="butt" stroke-linejoin="miter"><path d="M239.71059,168.54917l-0.82224,-0.07932c0,0 0.69144,-0.73575 1.16101,-0.95414c0.46958,-0.21838 1.53812,-0.39874 1.53812,-0.39874l0.25461,1.20059c0,0 -0.68362,0.00218 -1.25663,0.06837c-0.57301,0.06619 -0.87485,0.16325 -0.87485,0.16325z"/><path d="M241.32125,170.14979c0,0 -0.57736,-0.42966 -0.84789,-0.63251c-0.37261,-0.27939 -1.56755,-1.1024 -1.56755,-1.1024l0.69084,-0.17423c0,0 0.93218,0.39501 1.33345,0.57698c0.32191,0.14598 0.889,0.43086 0.889,0.43086z"/></g><path d="M239.58377,169.24514c0,0 -0.40036,-0.23253 -2.12238,-0.35593c-1.00664,-0.07213 -2.17324,0.04515 -2.17324,0.04515c0,0 -0.05111,-1.10825 0.17041,-1.98013c0.16546,-0.6693 0.46511,-1.35557 1.62478,-1.46954c1.15206,0.0216 1.59522,0.37811 2.20942,1.46062c0.61419,1.08251 0.29101,2.29983 0.29101,2.29983z" fill="#20201f" stroke="none" stroke-width="0" stroke-linecap="butt" stroke-linejoin="miter"/><path d="M237.02523,166.67808c1.10582,-0.11601 1.40627,1.25565 1.40627,1.25565c0,0 -0.24773,-0.08547 -1.21515,-0.01889c-0.56553,0.03892 -1.19843,0.18352 -1.19843,0.18352c0,0 -0.04155,-1.31024 1.00731,-1.42029z" fill="#b2b1b2" stroke="none" stroke-width="0" stroke-linecap="butt" stroke-linejoin="miter"/></g><g data-paper-data="{&quot;index&quot;:null}" stroke="none" stroke-width="0" stroke-linecap="butt" stroke-linejoin="miter"><path d="M241.41813,179.77569c0.51638,-1.38267 1.72355,-2.20907 2.69625,-1.8458c0.97271,0.36326 1.34265,1.77865 0.82627,3.16132c-0.51638,1.38268 -1.72352,2.20908 -2.69624,1.84581c-0.9727,-0.36326 -1.34264,-1.77864 -0.82627,-3.16131z" fill="#20201f"/><path d="M237.206,178.64574c1.18079,0.06559 2.53191,0.34632 3.41617,0.56868c1.26425,0.31792 2.39961,0.564 2.39961,0.564l-0.32131,1.17709c0,0 -1.97223,-0.57292 -2.48225,-0.70118c-0.83663,-0.21041 -1.90782,-0.43363 -3.13776,-0.66322c-0.3082,-0.05754 -0.45693,-0.25178 -0.41112,-0.56846c0.0308,-0.21275 0.14567,-0.39863 0.53666,-0.3769z" fill="#fed5c7"/><path d="M239.37307,180.22062l-1.1147,-0.24192l0.40699,-1.38341l1.12666,0.20985z" fill="#83c4ac"/><path d="M238.67417,179.3792c-0.16187,0.59372 -0.48982,1.00441 -1.63058,0.7315c-0.64166,-0.1535 -1.0306,-0.75927 -0.86872,-1.35297c0.16188,-0.59374 0.80896,-0.93421 1.45492,-0.79711c1.0769,0.22859 1.20626,0.82488 1.04438,1.41858z" fill="#20201f"/><path d="M241.30135,179.32555l-0.27468,1.10859l-0.33784,0.57033l-1.34785,-0.79583l0.43093,-1.44756l1.49511,0.01001z" fill="#bebec0"/><g><path d="M244.0033,179.36108c0,0 1.44977,-0.32546 2.33479,-0.39181c0.14101,-0.01055 1.06291,0.58402 1.43447,0.91052c0.20294,0.17834 0.58322,0.50813 0.43741,0.93802c-0.03716,0.10959 -0.45481,0.48907 -0.45481,0.48907l0.13956,0.41475c0,0 -0.08437,0.24663 -0.20459,0.3489c-0.12023,0.10227 -0.40024,0.1918 -0.40024,0.1918c0,0 -0.05036,0.17193 -0.06083,0.29981c-0.03415,0.41742 -0.4269,0.41971 -0.4269,0.41971c0,0 0.0099,0.30566 -0.112,0.49073c-0.19324,0.29339 -0.58019,0.52377 -0.81935,0.57382c-0.40626,0.08503 -1.56275,0.04828 -1.72461,-0.30272c-0.25211,-0.54668 0.4529,-0.77649 0.4529,-0.77649c0,0 -0.61442,-0.1319 -0.89276,-0.39115c-0.42862,-0.39917 -0.48136,-0.77504 -0.48136,-0.77504l0.77829,-2.43993z" fill="#20201f"/><path d="M244.5991,182.9672c0,0 0.88287,1.07553 0.64371,1.12558c-0.40626,0.08502 -0.93476,0.0019 -1.09662,-0.3491c-0.25211,-0.54668 0.4529,-0.77649 0.4529,-0.77649z" fill="#c0c2c6"/></g></g></g></g></svg>