<svg version="1.1" xmlns="http://www.w3.org/2000/svg" xmlns:xlink="http://www.w3.org/1999/xlink" width="16.53505" height="40.25108" viewBox="0,0,16.53505,40.25108"><g transform="translate(-229.95895,-185.79699)"><g data-paper-data="{&quot;isPaintingLayer&quot;:true}" fill-rule="nonzero" stroke-linejoin="miter" stroke-miterlimit="10" stroke-dasharray="" stroke-dashoffset="0" style="mix-blend-mode: normal"><g data-paper-data="{&quot;index&quot;:null}"><g data-paper-data="{&quot;index&quot;:null}" stroke="none" stroke-width="0" stroke-linecap="butt"><path d="M241.87717,209.58885c0,0 4.26502,3.35616 4.44134,3.38999c0.17633,0.03384 0.11644,0.49172 0.03928,0.96769c-0.07715,0.47597 -0.4728,1.47911 -0.4728,1.47911c0,0 0.13069,-0.39446 -0.51383,-1.1729c-0.38144,-0.46073 -1.18873,-1.17063 -1.70417,-1.81049c-0.93511,-1.16083 -1.78983,-2.85339 -1.78983,-2.85339z" fill="#54c81c"/><path d="M242.54304,210.58849c-2.53023,-3.38631 -1.81627,-5.20473 -1.81627,-5.20473c0,0 -0.06825,-0.34341 0.7762,0.84956c0.29044,0.4103 1.58727,0.54319 3.26947,2.4538c2.15229,2.44454 1.67694,4.6786 1.67694,4.6786c0,0 -2.08513,-0.33983 -3.90632,-2.77721z" fill="#ffffff"/></g><path d="M244.82127,212.39102l0.15586,0.6599" fill="none" stroke="#ffffff" stroke-width="0.25" stroke-linecap="round"/><path d="M245.81182,213.00308l0.03932,0.5879" fill="none" stroke="#ffffff" stroke-width="0.25" stroke-linecap="round"/></g><g data-paper-data="{&quot;index&quot;:null}"><g data-paper-data="{&quot;index&quot;:null}" stroke="none" stroke-width="0" stroke-linecap="butt"><path d="M238.45024,225.53678c-1.09669,0.65002 -0.94547,-2.734 -0.80489,-3.74905c0.01859,-1.19132 0.93929,-3.25347 0.93929,-3.25347c0,0 0.55128,-1.46048 0.95308,-0.53981c0.18704,0.42858 0.39668,0.83269 0.55276,1.2487c0.1792,0.47766 0.28776,0.97099 0.21036,1.53499c0,0 -0.34935,3.86884 -1.85059,4.75865z" data-paper-data="{&quot;index&quot;:null}" fill="#54c81c"/><path d="M238.66748,215.48054l0.41355,-5.60595l1.46717,-0.0218c0,0 -0.07303,3.62147 -0.48856,5.62339c-0.15121,0.6301 -0.41848,4.79503 -0.41848,4.79503c0,0 -0.27635,2.33363 -0.61917,2.86875c-0.4361,0.6807 -0.96245,-0.43203 -0.97537,-0.79194c0,0 0.21743,-1.3522 0.31913,-2.20188c0.15035,-1.25604 0.30174,-4.66557 0.30174,-4.66557z" data-paper-data="{&quot;index&quot;:null}" fill="#ffffff"/></g><path d="M239.271,223.23215l-0.32175,-0.38933" fill="none" stroke="#000000" stroke-width="0.5" stroke-linecap="round"/><path d="M239.50785,222.25015l-0.25065,-0.38257" fill="none" stroke="#000000" stroke-width="0.5" stroke-linecap="round"/></g><g data-paper-data="{&quot;index&quot;:null}"><g data-paper-data="{&quot;index&quot;:null}" stroke="none" stroke-width="0" stroke-linecap="butt"><path d="M240.16541,220.97767c-0.00579,-0.56926 0.16402,-1.04501 0.40192,-1.4963c0.2072,-0.39304 0.46604,-0.76756 0.70554,-1.16919c0.5145,-0.86278 0.87755,0.65549 0.87755,0.65549c0,0 0.6538,2.16165 0.52226,3.34583c0.01168,1.02468 -0.26428,4.40082 -1.27042,3.61791c-1.37728,-1.0717 -1.23685,-4.95374 -1.23685,-4.95374z" data-paper-data="{&quot;index&quot;:null}" fill="#54c81c"/><path d="M242.45262,215.92785c0,0 -0.27899,3.40148 -0.28797,4.66644c-0.00606,0.85572 0.03942,2.22455 0.03942,2.22455c-0.05812,0.35542 -0.72036,1.39303 -1.06729,0.66286c-0.27273,-0.57402 -0.25313,-2.92388 -0.25313,-2.92388c0,0 0.25914,-4.16543 0.18844,-4.80955c-0.16022,-2.0383 0.22319,-5.64017 0.22319,-5.64017l1.45276,0.20632l-0.29542,5.61342z" data-paper-data="{&quot;index&quot;:null}" fill="#ffffff"/></g><path d="M240.97821,221.99658l-0.43959,0.3435" fill="none" stroke="#000000" stroke-width="0.5" stroke-linecap="round"/><path d="M240.79274,223.34857l0.3682,-0.34574" fill="none" stroke="#000000" stroke-width="0.5" stroke-linecap="round"/></g><g data-paper-data="{&quot;index&quot;:null}"><g data-paper-data="{&quot;index&quot;:null}" stroke="none" stroke-width="0" stroke-linecap="butt"><path d="M242.19728,218.67522c0,0 0.06479,-1.27211 -0.27627,-2.35178c-0.34106,-1.07966 -1.78999,-3.53258 -1.78999,-3.53258l5.12918,-0.17669c0,0 0.10713,2.02668 -0.27207,3.3369c-0.5016,1.73316 -2.79084,2.72415 -2.79084,2.72415z" fill="#54c81c"/><path d="M243.66714,215.7779c-1.42248,0.29573 -4.13934,-3.18808 -4.39294,-5.20703c-0.27107,-2.1581 2.02127,-4.65667 2.02127,-4.65667l0.86332,0.16488c0,0 -0.17036,1.19291 1.17523,2.57357c1.97292,2.02436 1.77105,3.21566 1.92619,3.96151c0.15631,0.7515 -0.1133,2.85613 -1.59307,3.16375z" fill="#ffffff"/></g><path d="M242.27706,215.57177l-0.13283,-0.5658" fill="none" stroke="#ffffff" stroke-width="0.25" stroke-linecap="round"/><path d="M243.43325,216.04655l-0.07462,-0.52972" fill="none" stroke="#ffffff" stroke-width="0.25" stroke-linecap="round"/><path d="M244.5427,215.68659l-0.21318,-0.69618" fill="none" stroke="#ffffff" stroke-width="0.25" stroke-linecap="round"/></g><g data-paper-data="{&quot;index&quot;:null}"><g data-paper-data="{&quot;index&quot;:null}" stroke="none" stroke-width="0" stroke-linecap="butt"><path d="M235.95317,216.55576c0,0 -2.11853,-2.13512 -0.49793,-5.13703c0.30685,-0.56837 -0.01324,2.31505 0.71335,2.53666c0.72649,0.22158 3.12003,-2.02163 3.12003,-2.02163c0,0 -1.99931,2.18283 -2.42528,2.83871c-0.42597,0.65587 -0.9102,1.78331 -0.9102,1.78331z" fill="#54c81c"/><path d="M240.51991,205.5905c0,0 -0.38474,4.91959 -1.26651,6.24973c-0.81407,1.22801 -3.65206,3.08598 -4.02512,2.06778c-0.37307,-1.0182 0.3405,-3.47615 1.90545,-5.08121c1.29153,-1.32463 3.38618,-3.23629 3.38618,-3.23629z" fill="#ffffff"/></g><path d="M236.45109,214.41368l0.15207,-0.88" fill="none" stroke="#ffffff" stroke-width="0.25" stroke-linecap="round"/><path d="M235.43747,214.51043l0.06913,-0.58514" fill="none" stroke="#ffffff" stroke-width="0.25" stroke-linecap="round"/></g><g data-paper-data="{&quot;index&quot;:null}"><g data-paper-data="{&quot;index&quot;:null}" stroke="none" stroke-width="0" stroke-linecap="butt"><path d="M241.4177,212.57403c0,0 -0.19166,1.93332 -1.02973,2.93333c-1.0088,1.2037 -2.15845,3.33133 -2.15845,3.33133c0,0 -1.5221,-3.19729 -1.77577,-4.65758c-0.44241,-2.52815 0.37956,-3.48922 0.37956,-3.48922c0,0 0.6161,3.29973 1.5111,3.72874c0.88193,0.42276 3.07329,-1.84662 3.07329,-1.84662z" fill="#54c81c"/><path d="M236.73644,210.71164c0.04745,-0.14965 0.83481,-2.28167 2.06199,-3.01395c1.62876,-0.97187 1.01564,-1.85945 1.79069,-1.38986c0.77505,0.46959 1.8497,1.90573 1.56761,3.4445c-0.23479,1.28079 -0.75082,2.85392 -0.75082,2.85392c0,0 -1.99725,2.7927 -3.23107,2.01086c-1.37297,-0.91703 -1.4879,-3.74932 -1.43838,-3.90546z" fill="#ffffff"/></g><path d="M240.03596,213.94232l-0.04556,0.53301" fill="none" stroke="#ffffff" stroke-width="0.25" stroke-linecap="round"/><path d="M238.58743,214.61944l0.10597,0.51075" fill="none" stroke="#ffffff" stroke-width="0.25" stroke-linecap="round"/><path d="M237.42074,214.26449l0.13562,-0.76294" fill="none" stroke="#ffffff" stroke-width="0.25" stroke-linecap="round"/></g><g data-paper-data="{&quot;index&quot;:null}"><path d="M241.65035,199.02533l0.73072,0.02268l0.03818,3.22889l-0.82128,-0.29939z" data-paper-data="{&quot;index&quot;:null}" fill="#319a2b" stroke="#ffffff" stroke-width="0" stroke-linecap="butt"/><path d="M241.48381,198.93002c-0.2209,-0.66827 -0.31828,-4.25382 -0.31828,-4.25382l1.4416,0.62619c0,0 0.13261,2.50428 -0.16706,3.72104c-0.12402,0.50358 -0.71996,0.62149 -0.95627,-0.09341z" data-paper-data="{&quot;index&quot;:null}" fill="#ead42f" stroke="#ffffff" stroke-width="0" stroke-linecap="butt"/><path d="M240.49244,192.3883c-0.16247,-1.72944 1.09443,-3.55546 1.46457,-3.37206c1.17028,0.57993 1.39894,1.40864 1.67941,3.11667c0.33972,2.0688 -1.35728,3.85487 -2.20087,3.55687c-0.2762,-0.09756 -0.78064,-1.57206 -0.94311,-3.30148z" data-paper-data="{&quot;index&quot;:null}" fill="#f0e9bb" stroke="#ffffff" stroke-width="0" stroke-linecap="butt"/><path d="M242.7271,189.66102c0,0 0.11333,1.80201 -0.24284,2.86897c-0.35617,1.06695 -1.32797,2.50389 -1.32797,2.50389" data-paper-data="{&quot;index&quot;:null}" fill="none" stroke="#d3c49c" stroke-width="0.25" stroke-linecap="round"/><path d="M241.28447,193.91054l0.7235,0.47906" data-paper-data="{&quot;index&quot;:null}" fill="none" stroke="#ffffff" stroke-width="0.5" stroke-linecap="round"/><path d="M242.00651,192.65372l0.58566,0.34648" data-paper-data="{&quot;index&quot;:null}" fill="none" stroke="#ffffff" stroke-width="0.5" stroke-linecap="round"/><path d="M242.90961,191.73364l-0.6028,-0.25457" data-paper-data="{&quot;index&quot;:null}" fill="none" stroke="#ffffff" stroke-width="0.5" stroke-linecap="round"/><path d="M242.46928,190.17189l0.46496,0.12198" data-paper-data="{&quot;index&quot;:null}" fill="none" stroke="#ffffff" stroke-width="0.5" stroke-linecap="round"/></g><g data-paper-data="{&quot;index&quot;:null}"><path d="M238.46797,207.70532c-0.30427,-0.44307 -0.06637,-1.7509 0.28957,-2.80676c0.35593,-1.05586 0.95764,-1.25421 1.07941,-1.25421c0.15382,0 1.35868,-0.24869 2.06043,0.1482c0.70175,0.39689 0.46391,0.81182 0.64221,1.38034c0.1783,0.56851 0.3376,1.53269 0.32786,1.71279c-0.02505,0.46123 -1.45551,0.25457 -1.70209,0.53654c0,0 -2.33148,0.68137 -2.69739,0.28309z" data-paper-data="{&quot;index&quot;:null}" fill="#319a2b" stroke="none" stroke-width="0.17188" stroke-linecap="butt"/><path d="M239.84114,207.45475c0.61263,0 0.86005,-0.34217 1.03805,-0.04276c0.09193,0.15462 -0.5466,0.49821 -1.15798,0.46382c-0.68831,-0.17263 -1.50188,0.15139 -1.50188,0.15139l0.22399,-0.60534c0,0 0.78518,0.03289 1.39781,0.03289z" data-paper-data="{&quot;index&quot;:null}" fill="#ead42f" stroke="none" stroke-width="0" stroke-linecap="butt"/><path d="M242.92725,206.80094l0.34058,0.49225c0,0 -0.69825,-0.197 -1.3616,0.05504c-0.60314,0.10575 -0.80044,-0.29103 -0.19203,-0.36277c0.60841,-0.07174 1.21306,-0.18453 1.21306,-0.18453z" data-paper-data="{&quot;index&quot;:null}" fill="#ead42f" stroke="none" stroke-width="0" stroke-linecap="butt"/><path d="M239.93834,207.19162l-0.07853,0.38091" fill="none" stroke="#ffffff" stroke-width="0.25" stroke-linecap="round"/><path d="M238.91413,207.57676l0.09109,-0.32829" fill="none" stroke="#ffffff" stroke-width="0.25" stroke-linecap="round"/><path d="M242.01775,207.04372l-0.03093,-0.30573" fill="none" stroke="#ffffff" stroke-width="0.25" stroke-linecap="round"/><path d="M242.65686,206.6879l0.147,0.38175" fill="none" stroke="#ffffff" stroke-width="0.25" stroke-linecap="round"/></g><g data-paper-data="{&quot;index&quot;:null}" stroke="none" stroke-linecap="butt"><path d="M240.84239,203.77489c0.17022,-0.06911 0.34154,0.07628 0.48084,0.36686c0.1393,0.29058 0.24674,0.72652 0.28893,1.23856c0.04223,0.51194 0.0113,1.00389 -0.07258,1.38519c-0.08398,0.38127 -0.22099,0.65174 -0.3912,0.72085c-0.17009,0.06905 -0.34142,-0.07634 -0.48082,-0.36696c-0.1393,-0.29058 -0.24663,-0.72649 -0.28883,-1.23853c-0.04223,-0.51194 -0.01141,-1.00393 0.07258,-1.38519c0.08388,-0.3813 0.221,-0.65174 0.39108,-0.72079z" fill="#eb3d66" stroke-width="0.01872"/><path d="M241.36653,205.61068c0.01852,0.48778 -0.13593,0.88964 -0.34498,0.89758c-0.20905,0.00794 -0.39353,-0.38105 -0.41205,-0.86883c-0.01852,-0.48778 0.13593,-0.88964 0.34498,-0.89758c0.20905,-0.00794 0.39353,0.38105 0.41205,0.86883z" fill="#492116" stroke-width="0"/><path d="M240.73407,203.97856c0.07282,-0.00742 0.13081,0.06727 0.16562,0.19397c0.03489,0.12675 0.04658,0.3055 0.02688,0.50613c-0.01964,0.20068 -0.06709,0.38546 -0.12777,0.52198c-0.06074,0.13658 -0.13469,0.22486 -0.2075,0.23228c-0.07278,0.00755 -0.13075,-0.06722 -0.16563,-0.19397c-0.03489,-0.12675 -0.04658,-0.3055 -0.02692,-0.50605c0.01972,-0.20063 0.06714,-0.38554 0.12783,-0.52204c0.06074,-0.13658 0.13464,-0.22478 0.20751,-0.23227z" fill="#ffffff" stroke-width="0.01896"/></g><g data-paper-data="{&quot;index&quot;:null}"><path d="M239.30478,195.17269c3.44222,-1.53831 4.96426,1.3452 5.11065,1.56935c0.31473,0.54671 0.48051,1.17313 0.53907,1.79837c0.1057,1.04258 -0.11975,2.14639 -0.76229,2.98991c-0.35096,0.35441 -0.29141,0.31665 -0.62107,0.68311c-0.42892,0.66057 -1.25974,1.12608 -1.95047,1.41935c-0.54777,0.26758 -1.13484,0.44361 -1.73751,0.53697c-0.39183,0.04633 -0.80065,0.16415 -1.19047,0.05092c-0.36144,-0.11127 -0.71379,-0.32953 -0.87844,-0.68313c-0.44758,-0.83728 -0.90363,-1.67178 -1.27395,-2.5464c-0.0889,-0.2451 -0.22394,-0.49681 -0.204,-0.76451c0.08647,-0.2511 -1.18408,-3.1982 2.96845,-5.05395z" data-paper-data="{&quot;index&quot;:null}" fill="#f0e9bb" stroke="none" stroke-width="0.17188" stroke-linecap="butt"/><path d="M242.31295,192.83899c0.79472,-0.48629 1.46159,-0.61823 1.93256,-0.51203c0.06703,0.01494 0.05544,0.06582 0.14303,0.09905c0.10603,0.04028 0.35729,0.06323 0.30694,0.05253c0,0 -0.01011,0.17858 0.02661,0.24492c0.04674,0.0843 0.20212,0.13862 0.10892,0.15355c0,0 0.11178,0.10515 0.12066,0.15694c0.09721,0.56554 -0.03298,1.40641 -0.43512,1.984c0.48894,0.31997 -2.54121,-1.56324 -2.20356,-2.17895z" data-paper-data="{&quot;index&quot;:null}" fill="#ed3e67" stroke="none" stroke-width="0.17188" stroke-linecap="butt"/><path d="M236.43463,200.04151l0.8131,2.24979l0.97882,1.67416l0.78993,1.14251c0.09306,0.13422 -1.96193,-0.34602 -2.46093,-0.61547c-0.61751,-0.33332 -1.1131,-0.77595 -1.60662,-1.22051c-0.35982,-0.32386 -0.44706,-0.48269 -0.63301,-0.75075l-0.57711,-0.83234c-0.10968,-0.15813 -0.57636,-1.00194 -0.47206,-1.22686c0.02961,-0.06381 0.82922,0.11281 0.8982,0.08086l0.50284,-0.23468c0.14926,-0.06948 0.46045,-0.58662 0.5452,-0.74919c0.062,-0.11869 0.33297,-0.94475 0.13656,-1.5513l-0.19433,-0.59998c-0.02908,-0.08985 -0.6389,-0.90041 -0.61141,-0.93164c0.0565,-0.06456 -1.15838,-0.68069 -1.10129,-0.75187c0.3174,-0.39674 0.69598,-0.8925 1.20349,-1.25901c0.79785,-0.5762 1.77531,-0.96696 2.27282,-1.17514c0.08484,-0.03549 1.1748,-0.4664 1.91142,-0.52861c1.16643,-0.09858 2.022,0.30588 2.07697,0.32461c0.86309,0.29382 1.60776,0.74899 2.24986,1.34392l0.4453,0.54567c0.22796,0.27928 1.21918,1.67234 1.73572,2.87845c1.08708,2.53827 0.40886,4.83894 0.16514,4.82487c-0.34139,-0.0194 -1.4092,-1.29178 -1.44617,-1.11649c-0.08208,0.38834 0.84857,-1.27382 0.84144,-2.23655c-0.00713,-0.96274 -0.9162,-2.82509 -0.99359,-2.9746c-0.06104,-0.11825 -0.17831,-0.18521 -0.28697,-0.10056c-0.07237,0.05628 -0.93795,0.6381 -1.1923,1.01871c-0.25435,0.38062 -0.55758,1.74138 -0.61222,1.68847c-0.02028,-0.01975 -0.45804,-0.11117 -0.46205,-0.15225c-0.02393,-0.24854 -0.34859,0.49002 -0.38422,0.59827c-0.09375,0.28468 -1.13018,-0.76663 -2.10058,-0.77483c-0.9704,-0.00821 -1.83324,0.38995 -1.93963,0.6324c-0.04237,0.09658 -0.20413,0.31633 -0.28757,0.42927c-0.11111,0.15015 -0.19117,0.24523 -0.2047,0.35069z" data-paper-data="{&quot;index&quot;:null}" fill="#54c81c" stroke="none" stroke-width="0.17188" stroke-linecap="butt"/><path d="M232.09581,200.20983c-0.63758,0.05121 -1.37452,-0.23795 -1.79267,-0.5803c-0.03835,-0.0313 -0.07665,-0.1699 -0.07665,-0.1699c-0.05131,0.06755 -0.02991,-0.08225 -0.07871,-0.15897c-0.03833,-0.06031 -0.18761,-0.13578 -0.18761,-0.13578c-0.01245,0.04532 0.07446,-0.16626 0.08647,-0.26982c0.00977,-0.08566 -0.03644,-0.10016 -0.02048,-0.16095c0.11183,-0.42591 0.49904,-0.89719 1.22739,-1.30518c0.95304,-0.53362 2.14575,-0.18241 2.30111,0.17545c0,0 -0.37005,2.51781 -1.45883,2.60542z" data-paper-data="{&quot;index&quot;:null}" fill="#ed3e67" stroke="none" stroke-width="0.17188" stroke-linecap="butt"/><path d="M234.56131,197.92649c0.09504,-0.15455 0.28229,1.38051 0.01378,1.72266c-0.46183,0.58834 -0.28996,0.7993 -0.87372,0.86606c-0.13103,0.01519 -0.44898,-0.08945 -0.8377,-0.0825c-0.45027,0.00825 -0.88349,-0.06395 -0.78535,-0.18439l0.56776,-0.77684l0.58399,-1.74487c0.00907,-0.02713 -0.30562,-0.12112 -0.77411,-0.21882c-0.32851,-0.06857 -0.7962,-0.11612 -1.13844,-0.10202c-0.20166,0.00838 0.05721,-0.34186 0.48818,-0.69612c0.2089,-0.17176 0.42309,-0.3719 0.71272,-0.47868c0.50165,-0.18478 1.10327,0.22087 1.48118,0.7328c0.35396,0.47938 0.4983,1.06538 0.56168,0.96271z" data-paper-data="{&quot;index&quot;:null}" fill="#54c81c" stroke="none" stroke-width="0.17188" stroke-linecap="butt"/><path d="M235.25348,197.58632c0.50828,1.10377 -0.16501,2.56792 -0.53213,2.6973l-0.51537,0.34583l-0.99779,-0.12918c-0.25549,-0.03317 1.13437,-0.40872 1.30079,-0.8959c0.10869,-0.31783 0.18395,-0.55956 0.17398,-0.6624c-0.09649,-0.98 -0.43176,-1.67011 -0.80115,-2.05427c-0.58042,-0.60364 -1.21779,-0.60126 -0.94046,-0.91926c0.66115,-0.75849 1.75659,0.41162 2.31213,1.61786z" data-paper-data="{&quot;index&quot;:null}" fill="#ead32e" stroke="none" stroke-width="0.17188" stroke-linecap="butt"/><path d="M242.3235,193.80504c0,0 -0.39695,-0.20927 -0.68637,-0.3779c-0.60377,-0.35176 -1.31062,-0.41411 -1.26378,-0.6065c0.06597,-0.09823 0.58879,-0.17877 0.76925,-0.11395l0.36652,0.13148c0.64451,0.23136 1.09695,0.77783 1.20067,1.03702c0.04488,0.1121 0.24972,0.26337 0.26333,0.40388c0,0 -0.46705,-0.25333 -0.64962,-0.47404z" data-paper-data="{&quot;index&quot;:null}" fill="#ead32e" stroke="none" stroke-width="0.17188" stroke-linecap="butt"/><path d="M241.45179,192.73265c0,0 0.97525,-0.45961 1.27119,-0.26314c0.19666,0.13039 0.22579,0.63851 0.42271,0.71683c0.24449,0.09726 0.68264,0.4094 0.95294,0.6616c0.16404,0.26666 0.38429,0.49453 0.40018,0.86455c0.171,0.25829 -0.30185,1.07499 -0.36701,0.99422l-0.88583,-1.09776c-0.22475,-0.27855 -0.7015,-0.83399 -0.81297,-0.94026z" data-paper-data="{&quot;index&quot;:null}" fill="#54c81c" stroke="none" stroke-width="0.17188" stroke-linecap="butt"/><path d="M236.96586,199.97491c0.1343,-0.73391 1.07848,-1.17176 1.68117,-1.02946c0.60269,0.1423 0.9824,0.85261 0.84811,1.58652c-0.1343,0.73391 -0.73173,1.21349 -1.33442,1.07119c-0.60269,-0.1423 -1.32915,-0.89435 -1.19486,-1.62826z" fill="#000000" stroke="none" stroke-width="0" stroke-linecap="butt"/><path d="M244.59732,198.90235c-0.30758,0.53747 -1.06592,0.64646 -1.69379,0.24343c-0.62786,-0.40303 -0.88751,-1.16547 -0.57993,-1.70294c0.30757,-0.53748 1.18124,-0.93023 1.80911,-0.5272c0.62787,0.40304 0.77219,1.44924 0.46461,1.98671z" data-paper-data="{&quot;index&quot;:null}" fill="#000000" stroke="none" stroke-width="0" stroke-linecap="butt"/><path d="M240.44624,203.18858l-0.59192,-0.16557" fill="none" stroke="#000000" stroke-width="0.25" stroke-linecap="round"/><path d="M241.58975,202.98966l-0.57692,0.17778" fill="none" stroke="#000000" stroke-width="0.25" stroke-linecap="round"/><path d="M242.71705,202.57295l-0.55038,0.23893" fill="none" stroke="#000000" stroke-width="0.25" stroke-linecap="round"/><path d="M243.58929,201.90355l-0.43612,0.33469" fill="none" stroke="#000000" stroke-width="0.25" stroke-linecap="round"/><path d="M243.82347,201.43851l0.19957,-0.37736" fill="none" stroke="#000000" stroke-width="0.25" stroke-linecap="round"/><path d="M239.60714,202.15498l-0.1101,0.5235l-0.43856,-0.00263" fill="none" stroke="#000000" stroke-width="0.25" stroke-linecap="round"/><path d="M244.43551,200.44065l-0.36277,0.24645l-0.38303,-0.37345" data-paper-data="{&quot;index&quot;:null}" fill="none" stroke="#000000" stroke-width="0.25" stroke-linecap="round"/><path d="M238.96697,200.58694l-1.41884,-0.57666" fill="none" stroke="#ffffff" stroke-width="0.25" stroke-linecap="round"/><path d="M238.04281,201.071l0.36119,-1.53949" fill="none" stroke="#ffffff" stroke-width="0.25" stroke-linecap="round"/><path d="M237.06746,200.0133c-0.01613,-0.20742 0.13895,-0.38865 0.34637,-0.40478c0.20742,-0.01613 0.38865,0.13895 0.40478,0.34637c0.01613,0.20742 -0.13895,0.38865 -0.34637,0.40478c-0.20742,0.01613 -0.38865,-0.13895 -0.40478,-0.34637z" fill="#ffffff" stroke="none" stroke-width="0" stroke-linecap="butt"/><path d="M238.69116,200.57402c-0.01613,-0.20742 0.13896,-0.38865 0.34637,-0.40478c0.20742,-0.01613 0.38865,0.13895 0.40478,0.34637c0.01613,0.20742 -0.13895,0.38865 -0.34637,0.40478c-0.20742,0.01613 -0.38865,-0.13896 -0.40478,-0.34637z" fill="#ffffff" stroke="none" stroke-width="0" stroke-linecap="butt"/><path d="M238.04929,199.38733c-0.01613,-0.20742 0.13896,-0.38865 0.34638,-0.40478c0.20742,-0.01613 0.38865,0.13895 0.40478,0.34637c0.01613,0.20742 -0.13895,0.38865 -0.34637,0.40478c-0.20742,0.01613 -0.38866,-0.13896 -0.40479,-0.34637z" fill="#ffffff" stroke="none" stroke-width="0" stroke-linecap="butt"/><path d="M237.70404,201.13168c-0.01613,-0.20742 0.13896,-0.38865 0.34637,-0.40478c0.20742,-0.01613 0.38865,0.13895 0.40478,0.34637c0.01613,0.20742 -0.13895,0.38865 -0.34637,0.40478c-0.20742,0.01613 -0.38865,-0.13896 -0.40478,-0.34637z" fill="#ffffff" stroke="none" stroke-width="0" stroke-linecap="butt"/><path d="M242.76885,197.81767l1.41884,0.57666" fill="none" stroke="#ffffff" stroke-width="0.25" stroke-linecap="round"/><path d="M243.62472,197.3389l-0.36119,1.53949" fill="none" stroke="#ffffff" stroke-width="0.25" stroke-linecap="round"/><path d="M242.28818,197.82069c-0.01613,-0.20742 0.13895,-0.38865 0.34637,-0.40478c0.20742,-0.01613 0.38865,0.13895 0.40478,0.34637c0.01613,0.20742 -0.13895,0.38865 -0.34637,0.40478c-0.20742,0.01613 -0.38865,-0.13895 -0.40478,-0.34637z" fill="#ffffff" stroke="none" stroke-width="0" stroke-linecap="butt"/><path d="M243.91188,198.38141c-0.01613,-0.20742 0.13896,-0.38865 0.34637,-0.40478c0.20742,-0.01613 0.38865,0.13895 0.40478,0.34637c0.01613,0.20742 -0.13895,0.38865 -0.34637,0.40478c-0.20742,0.01613 -0.38865,-0.13896 -0.40478,-0.34637z" fill="#ffffff" stroke="none" stroke-width="0" stroke-linecap="butt"/><path d="M243.27001,197.19472c-0.01613,-0.20742 0.13896,-0.38865 0.34638,-0.40478c0.20742,-0.01613 0.38865,0.13895 0.40478,0.34637c0.01613,0.20742 -0.13895,0.38865 -0.34637,0.40478c-0.20742,0.01613 -0.38866,-0.13896 -0.40479,-0.34637z" fill="#ffffff" stroke="none" stroke-width="0" stroke-linecap="butt"/><path d="M242.92476,198.93908c-0.01613,-0.20742 0.13896,-0.38865 0.34637,-0.40478c0.20742,-0.01613 0.38865,0.13895 0.40478,0.34637c0.01613,0.20742 -0.13895,0.38865 -0.34637,0.40478c-0.20742,0.01613 -0.38865,-0.13896 -0.40478,-0.34637z" fill="#ffffff" stroke="none" stroke-width="0" stroke-linecap="butt"/></g><g data-paper-data="{&quot;index&quot;:null}"><path d="M237.64399,194.57181c0,0 -0.39296,-2.08973 -0.19673,-3.40706c0.19623,-1.31733 1.53713,-2.4592 1.53713,-2.4592l0.40886,0.63121c0,0 -1.02793,0.66913 -1.2108,1.92193c-0.18287,1.2528 0.11691,3.15973 0.11691,3.15973z" fill="#000000" stroke="none" stroke-width="0" stroke-linecap="butt"/><path d="M238.4483,189.30043l1.6775,-3.2678l4.54199,0.14248l-2.77481,3.25197z" fill="#ea035a" stroke="none" stroke-width="0" stroke-linecap="butt"/><path d="M244.53365,186.13467l-5.91724,3.16918" fill="none" stroke="#000000" stroke-width="0.25" stroke-linecap="round"/><path d="M241.91921,189.41836l-1.95742,-0.90783l0.10907,-2.58853" fill="none" stroke="#000000" stroke-width="0.25" stroke-linecap="round"/></g><g data-paper-data="{&quot;index&quot;:null}"><path d="M239.22748,204.19179c0,0 0.03253,0.79554 -0.07427,1.01115c-0.13328,0.26907 -0.66368,0.47871 -0.66368,0.47871l-0.04514,-5.75269l0.73072,-0.02269z" data-paper-data="{&quot;index&quot;:null}" fill="#319a2b" stroke="#ffffff" stroke-width="0" stroke-linecap="butt"/><path d="M239.65994,195.55716c0,0 -0.09738,3.58555 -0.31828,4.25381c-0.23631,0.7149 -0.83224,0.597 -0.95626,0.09342c-0.29967,-1.21676 -0.16706,-3.72105 -0.16706,-3.72105l1.44161,-0.62618z" data-paper-data="{&quot;index&quot;:null}" fill="#ead42f" stroke="#ffffff" stroke-width="0" stroke-linecap="butt"/><path d="M239.38992,196.57076c-0.8436,0.298 -2.5406,-1.48808 -2.20088,-3.55688c0.28048,-1.70803 0.50913,-2.53673 1.67941,-3.11666c0.37013,-0.18341 1.62703,1.64262 1.46457,3.37205c-0.16247,1.72943 -0.6669,3.20393 -0.9431,3.30149z" data-paper-data="{&quot;index&quot;:null}" fill="#f0e9bb" stroke="#ffffff" stroke-width="0" stroke-linecap="butt"/><path d="M239.66918,195.91485c0,0 -0.9718,-1.43693 -1.32797,-2.50389c-0.35617,-1.06696 -0.24284,-2.86898 -0.24284,-2.86898" data-paper-data="{&quot;index&quot;:null}" fill="none" stroke="#d3c49c" stroke-width="0.25" stroke-linecap="round"/><path d="M239.541,194.79148l-0.72351,0.47907" data-paper-data="{&quot;index&quot;:null}" fill="none" stroke="#ffffff" stroke-width="0.5" stroke-linecap="round"/><path d="M238.81896,193.53464l-0.58566,0.34649" data-paper-data="{&quot;index&quot;:null}" fill="none" stroke="#ffffff" stroke-width="0.5" stroke-linecap="round"/><path d="M237.91585,192.6146l0.6028,-0.25456" data-paper-data="{&quot;index&quot;:null}" fill="none" stroke="#ffffff" stroke-width="0.5" stroke-linecap="round"/><path d="M237.89123,191.17482l0.46496,-0.12198" data-paper-data="{&quot;index&quot;:null}" fill="none" stroke="#ffffff" stroke-width="0.5" stroke-linecap="round"/></g></g></g></svg>