<svg version="1.1" xmlns="http://www.w3.org/2000/svg" xmlns:xlink="http://www.w3.org/1999/xlink" width="209.01443" height="615.64306" viewBox="0,0,209.01443,615.64306"><g transform="translate(-131.50539,136.47419)"><g data-paper-data="{&quot;isPaintingLayer&quot;:true}" fill-rule="nonzero" stroke="none" stroke-linecap="butt" stroke-linejoin="miter" stroke-miterlimit="10" stroke-dasharray="" stroke-dashoffset="0" style="mix-blend-mode: normal"><path d="M132.82658,452.52252v-543.54354h207.20721v543.54354z" fill="#020811" stroke-width="0"/><g fill="#020811" stroke-width="1"><path d="M187.63677,476.3861l19.36363,1.8473l32.50312,-1.8473l39.44972,-593.43198l2.70821,18.05476l2.25685,18.05475l-3.61095,30.332l-4.06232,30.78336l9.02738,35.74842c4.51369,19.40887 8.57601,40.26212 8.57601,46.12992v10.83286h6.77053h6.77053v-6.77053c0,-4.06232 3.15957,-12.18696 7.22189,-18.50613l7.67328,-11.28423l-3.15958,-25.81831l-3.15958,-25.81831l-3.61095,-3.61095l-4.06232,-4.06231l4.06232,-16.2493c2.25684,-9.02739 4.06232,-25.36695 4.06232,-35.29706v-18.9575l6.77053,-2.70821l6.77053,-2.25685v6.31916v6.77053h6.77053l3.61096,219.09455c-1.80547,-8.57601 -7.67327,-24.4642 -14.89517,-38.45664l-3.15958,-6.77053l-8.12465,-1.80548l-8.12464,-1.3541l3.61095,14.89518c2.25685,8.57601 3.61095,22.65873 3.61095,31.23474c-0.45136,8.57601 -1.35411,60.21264 -2.70821,114.46718l-1.80549,99.12062l-5.41643,3.61094l-5.8678,3.15958l-2.25685,37.10254l-2.70821,36.65116h7.67328h7.2219v-7.67327c0,-4.60396 3.15958,-14.08273 6.77053,-21.30462c3.61095,-6.77055 6.77053,-15.79793 6.77053,-18.95751v-6.31916h6.77053h6.77053l2.70821,-11.28423l2.70821,-11.28423l-4.5137,-5.8678l-4.51369,-5.41643l1.3541,-72.39958l0.90274,-72.39958l1.3541,200.94948v33.04021l-0.45137,33.04021l-8.10115,6.17047l-7.54282,4.46282l-6.02174,5.16463h-9.47875v-22.65873v-22.65873h-6.77053h-7.2219l-2.70821,8.12465c-1.3541,4.06231 -6.77053,12.18697 -11.73559,18.05476l-9.02738,9.93011h-5.8678h-5.41643l-2.25684,5.86779l-1.80548,5.41643l-3.15958,-18.05475c-1.80548,-9.93012 -4.96506,-29.88063 -7.67328,-43.87307l-4.5137,-25.81831l4.96506,-37.55391c2.25685,-20.31161 4.5137,-42.06759 4.5137,-47.48402v-10.38149h-6.31916h-6.31916l-2.70821,11.28423l-2.70821,11.28422h-4.96506h-4.5137l0.45137,24.01283c0.45137,12.63833 0.45137,28.07515 0.45137,33.49158l-0.45137,10.38149l-10.83286,2.70822l-10.83286,2.70821l-2.70822,10.83286l-2.70822,10.83286h-6.77053h-6.77053v10.83286v10.83286l4.96506,1.80548l4.5137,1.3541l2.70821,19.40887l1.59153,17.98042l-4.29975,0.97709h-4.96507v-6.77053v-6.77053h-6.77053h-7.22189l-2.25685,6.77053l-2.70821,6.77053h-5.8678h-5.41643l-3.15958,-18.95751c-1.80548,-10.83286 -4.06233,-49.74087 -5.41643,-87.29477l-1.80548,-67.8859l-4.5137,-24.4642c-4.96506,-28.07516 -5.8678,-59.76124 -1.80548,-70.14274l2.70821,-7.22189h5.41643h5.41643l-1.3541,-71.04548l-1.3541,-70.59412l-7.67327,-27.62378c-4.06233,-15.43682 50.41346,446.46624 50.41346,446.46624z"/><path d="M179.47137,294.87341l3.61095,-30.78336l-0.90274,-55.15729l-1.35409,-55.60867h6.77053h6.77053l7.2219,14.89517l7.2219,14.44381l-2.70821,47.48402c-1.80548,26.26968 -4.96506,58.31687 -7.2219,71.49684l-4.5137,23.56146h-9.47875h-9.47874z"/><path d="M151.93786,281.33233c-1.80548,-14.44381 -4.96506,-33.94294 -7.22189,-43.4217l-4.5137,-16.70065l2.70822,-4.5137c1.3541,-2.70821 5.41642,-4.51369 9.02737,-4.51369h6.31917l2.70821,17.15202c1.3541,9.02738 4.51369,23.1101 6.77053,30.33199l4.5137,13.54107l-3.15958,17.15203l-2.70821,16.70065h-5.8678h-5.8678l-2.70822,-25.81831z"/><path d="M229.75388,283.13781l-12.18696,-4.96506l2.70821,-14.44381l2.70821,-14.89517l-5.41643,-15.7979l-4.96506,-15.79791l5.8678,-9.02738l5.8678,-9.47874h5.41643h5.41643l3.15958,17.15202l3.15959,16.70066l4.06231,-14.44381l4.06231,-14.89518h4.06231h4.5137v-24.91557v-24.91556h-3.61095h-4.06231l-4.06231,-21.30461l-4.5137,-21.75598l-3.61095,30.78336l-3.61094,31.23474l-9.47875,-2.70821c-5.41643,-1.3541 -12.63832,-2.70822 -15.34654,-2.70822h-5.8678v-11.28422v-11.28423h-8.12465h-8.12464l-5.41643,-5.41643l-5.41643,-5.41643v-13.99244l0.45137,-13.54107l5.8678,-8.12464l5.86779,-7.67328h6.31916h6.31916l10.3815,14.89518l9.93011,14.44381l-2.70821,-36.19979l-3.15958,-36.19979l-4.5137,-2.70821l-4.06231,-2.70822l1.3541,-24.4642l0.90273,-24.4642l-3.15958,-21.30461l-3.61095,-21.30462l8.12464,-11.28422l8.57602,-11.28423l5.8678,-0.45137h5.41643v4.5137v4.51369h9.02738h9.02737l-1.3541,42.97033l-0.90273,43.42171l4.96506,3.15958l4.96506,3.15958l2.70822,55.60867l2.70821,55.15729l7.2219,7.2219l6.77052,7.22189l-0.45137,20.85325c-0.45137,11.73559 0.90274,35.29706 2.70821,52.44908l3.61095,31.23474l-8.57601,-2.25684l-9.02738,-2.25685l-5.41643,5.8678l-5.41643,5.8678v11.73559v11.28423l-5.41643,-0.45137c-3.15958,-0.45137 -11.28423,-2.70821 -18.50612,-5.41643z"/><path d="M179.47137,57.36305c-1.3541,-5.8678 -2.70821,-24.01284 -2.70821,-40.71349v-30.78336h6.31916h6.31916l2.70821,10.38149c1.3541,5.41643 2.70822,23.56147 2.70822,40.71349v30.33199h-6.31916h-6.31917z"/><path d="M185.88081,-81.02669v-12.63833l5.8678,-12.18696l5.41643,-12.18696h7.67328h7.67327l2.70821,19.95051l3.15958,20.40188l-3.15958,4.5137l-2.70821,4.96506h-13.54107h-13.08969v-12.63833z"/></g><g fill="#051e34" stroke-width="1"><path d="M157.80567,455.56076c-0.45137,-10.83286 -0.45137,-26.72105 0,-35.29705c0.45137,-8.57601 0,-20.40188 -1.3541,-25.81831l-2.25685,-10.3815h-6.31916h-6.31916l-2.70821,-7.22189c-1.3541,-4.06232 -2.70821,-18.95751 -2.70821,-33.94295v-26.72104h6.77053h6.77052v-9.47874v-9.47875l6.77053,2.70821l7.2219,2.70821l2.25684,-6.77053l2.70821,-6.77053h6.31916h6.31916v15.79791v15.79791h4.51369h4.5137l2.70821,-18.50612l3.15958,-18.50612l5.8678,-2.25685l6.31916,-2.25685v-8.12464v-8.57601l-4.5137,-2.70821l-4.51369,-2.70821v-12.63833v-12.18696l4.96506,-4.96507l4.96506,-4.96506l-2.70821,-19.95052c-1.3541,-10.3815 -3.15958,-25.36695 -3.61094,-33.04021l-1.3541,-13.54107h-6.77053h-6.77053l1.3541,47.48402l1.3541,47.03265l-2.70821,14.89517l-2.70821,14.89517h-3.15959c-3.61095,0 -14.4438,-32.13747 -14.4438,-42.51896v-6.31916l4.96507,-1.80548l4.96506,-1.80548l-5.41643,-19.40887l-5.41643,-19.95052l4.5137,-2.70822l4.06231,-2.70821l2.25684,-16.24929l1.80549,-16.24929l-5.8678,-5.41643l-5.8678,-5.41643v-10.83286c0,-5.8678 1.3541,-13.54108 2.70821,-17.60339l2.70821,-7.2219h5.8678h5.41643l-2.25684,11.28423l-1.80549,11.28423l5.41643,6.77053c3.15958,3.61095 7.2219,6.77053 9.47875,6.77053h4.06232v-9.02738v-9.02738h4.5137h4.5137v20.85324v20.85325l6.31916,-4.96506l6.31916,-5.41643l2.70822,7.22189l2.70821,7.2219l4.06232,-2.25685l4.06232,-2.70822l3.15958,10.38149l3.15958,9.93011l2.25685,-7.67328l1.80548,-8.12464h6.31916h5.86779l2.70822,7.2219c1.3541,4.06231 2.70821,13.99244 2.70821,22.65874v15.79791l-4.06231,-2.70822l-4.5137,-2.25685l-2.70821,9.02738l-2.70821,9.02738h-4.96506h-4.5137l1.80549,-15.79791l1.80548,-15.79791h-3.15958c-1.80548,0 -7.2219,5.41644 -12.18696,12.63833l-9.02738,12.18696l4.5137,11.28422l4.06231,11.28423l-1.3541,16.24929l-1.3541,16.24929l12.18696,4.96506l12.63832,4.5137v-11.28422v-11.28423l6.31916,2.25685l6.77053,2.70821l2.70821,-9.02738l2.70822,-8.57601l4.51369,2.25685l4.06232,2.70821v-9.02738v-9.47875h4.5137h4.51369l0.45137,10.3815c0,5.41643 3.15958,20.40188 5.8678,32.58884l5.8678,22.65873l-0.45137,-31.68611l-0.45137,-31.23474l-7.67328,-8.12464c-4.51369,-4.51369 -10.38149,-8.12464 -13.0897,-8.12464h-4.96506l3.61095,-16.70066l3.61095,-17.15202l-0.90274,-22.20735l-0.90274,-22.65873l4.96506,-3.15958l5.41643,-3.15958l-3.15958,-16.2493l-3.15958,-16.24929h-3.61095h-3.61095l-3.15958,-21.30462c-1.80548,-12.18696 -4.51369,-31.68611 -5.8678,-44.32444l-3.15958,-22.65873l-2.25684,9.93012l-2.70822,9.93011l-6.77052,-4.06231l-6.77053,-4.06232l0.90273,-43.4217l0.45137,-42.97034h-4.06232h-4.06232v10.83286v10.83286l-6.77053,2.70821l-6.77053,2.25684l3.15958,-18.95751l2.70821,-18.9575l-11.73559,13.54107l-12.18696,13.54107l-4.5137,-6.77053l-4.51369,-6.77053l0.45137,29.42926l0.45137,29.42926l3.15958,-13.08969l2.70821,-13.0897l4.96506,-1.80548l4.96506,-1.80548l2.70821,9.47875l2.25685,9.47875l-2.25685,24.91556l-2.70821,24.4642h-3.61095h-4.06232v7.2219v6.77053l9.02738,-2.70821l9.02738,-2.70821l0.90273,20.40189c0.45137,11.28423 0.90274,24.4642 0.90274,28.52653l0.45137,8.12464l-7.67328,1.3541l-8.12465,1.3541l-0.45136,-12.63833v-12.63833l-3.15958,6.77053l-3.15958,6.77053l-9.93012,0.90274l-10.38149,1.3541v-7.2219v-6.77053l-9.02738,2.70821l-9.02738,2.70821l-5.8678,-5.8678c-3.61095,-3.15958 -8.57601,-10.83286 -11.73559,-16.24929l-5.8678,-10.83286l2.70821,-6.31917l2.25685,-6.31916h14.4438h13.99244l-3.15958,-16.70066c-1.80548,-9.47875 -3.15958,-26.72104 -3.15958,-38.45663l-0.45136,-21.75599h-3.61095h-4.06232v11.28423v11.28422h-8.57601h-8.57601l-2.70822,-10.83286c-1.3541,-5.8678 5.86782,-97.67626 5.86782,-97.67626l2.70821,21.75599c4.06232,27.62378 6.77053,37.10253 10.83286,37.10253h3.15958l6.31916,-29.42926l9.11768,-33.42059l17.60339,-2l4.87474,5.99133v8.57601v9.02738l-4.51369,2.70821l-4.5137,2.70821v11.28423v10.83286h8.12464h8.57602l9.02738,-9.93011l9.02738,-10.38149l3.15958,-12.18696l2.70821,-12.63833l13.72154,-10.67155l24.71796,-1.1726c14.65368,9.32392 19.89678,19.82415 17.7108,31.25302l2.25685,18.95751l-3.61095,29.42926l-3.61095,29.42926l2.25685,7.67328l1.80548,8.12464l-6.77053,2.70821l-6.77053,2.70821l8.57601,8.57601c4.96506,4.96507 10.83285,13.99245 13.08969,20.40188l4.5137,11.28422v25.81831l0.45137,25.81832l6.77053,-18.05476c3.61095,-9.93011 8.12464,-21.75598 9.47875,-26.26968l2.25684,-7.67328h6.31916h6.31916v4.06232v4.06232l9.02738,-2.25685l0.45137,-46.03964l-8.57602,-8.57601l-3.15958,11.28422l-2.70822,11.28422l-6.31916,-2.70821l-6.31916,-2.25684l-2.25685,5.41643l-2.70821,5.41643l2.25685,-16.70066l2.70821,-16.24929l-4.96507,-3.15958l-4.96506,-3.15958l3.15958,-16.2493c1.3541,-9.02738 4.51369,-18.50612 6.77053,-21.30462l4.06231,-4.06231l0.45137,17.60339l0.45137,18.05476l2.25685,-5.41643l2.25684,-5.8678h6.31916h6.31916v11.73559v11.28423l4.51369,-2.70821l-0.45137,172.60352c-3.61095,-12.63832 -6.31916,-25.81831 -6.31916,-28.97789c0,-2.70822 -1.80548,-6.77053 -3.61095,-8.57601c-1.80548,-1.80548 -3.15958,-6.77053 -3.15958,-10.83286v-8.12465l-7.67328,-5.8678l-7.67327,-6.31916l3.61095,9.02738c2.25685,4.96507 4.96506,18.50612 5.8678,29.88063l2.25684,20.85324l-4.96506,3.15958l-4.96506,3.15958v-7.22189v-7.2219l-4.06232,2.70821l-4.5137,2.25684l4.06232,13.99244l4.06232,13.99244l-2.70821,19.95052l-2.70821,19.95052h4.96506h4.96506l-1.3541,68.78863l-1.3541,68.78863l-4.96506,1.80548l-5.41643,1.80548v10.83287v11.28423l-6.77053,2.25685l-6.77053,2.70821v6.31916v6.31917h4.5137h4.51369l0.45137,14.89518l0.45137,14.44381l4.51369,-15.79791c2.25685,-8.57601 6.31916,-17.60339 8.57601,-19.95052l4.06231,-4.51369v-10.83286v-10.83287l6.77053,2.70821l6.31916,2.25685l4.96506,-18.05475l4.96506,-18.05476l-2.25684,-5.41644l-1.80548,-5.41643l-0.45137,10.38149l-0.45137,9.93011h-4.96506h-5.41643l2.70821,-39.81073l2.25685,-39.81074l5.8678,-12.18696l-1.80547,-20.3116l-7.67328,-8.57601v-13.54108v-13.99244l5.8678,-4.96507l5.8678,-4.96507l2.70821,248.97517l-1.3541,33.49158l-8.96506,1.8678l-15.56888,12.14697l-9.7831,0.55834l-29.2966,0.35212l22.53908,-24.49424l-1.3541,-21.75598l-5.41643,11.28423c-7.16133,21.86219 -5.37956,36.28931 -19.76855,34.96599l-68.37114,-0.37715l20.23896,-12.43228l21.31946,-4.0115l11.28422,-2.70822l11.28423,-2.70822v-3.61095c0,-2.25685 -1.3541,-6.77053 -2.70822,-10.83286l-2.70821,-7.22189h-7.2219h-6.77053l2.70821,-41.61622l2.70821,-42.06758l4.96506,-1.3541l4.5137,-1.80549v-6.31916v-6.31917h-6.77053h-6.77053v-16.70065v-17.15203l-10.38149,-4.96506l-10.83286,-4.96506l-4.96506,19.95052c-3.15958,10.83286 -5.41643,24.91556 -5.41643,31.23474v11.73559l-9.02738,2.25685l-9.02738,2.25685v21.75598c0,12.18696 -1.3541,24.91556 -2.70821,28.97789l-2.70821,7.22189h-6.31916h-6.31916v6.77053v6.77053h3.61095c1.80548,0 5.41643,5.41643 8.12464,12.63833l4.06232,12.18696l-1.3541,10.38149l-7.3541,11.93011h-3.02737l-8.57602,-0.6003v-6.81613v-5.41643l-5.41643,5.41643c-3.15958,3.15958 -7.2219,5.41643 -9.02738,5.41643h-3.61095l-0.90273,-18.9575zM186.33218,-0.50246l-4.5137,-11.28423v27.17241c-0.45137,14.89517 1.35411,32.13748 3.15958,38.45664l3.15958,11.28423l1.3541,-27.17241l1.3541,-27.62378z"/><path d=""/><path d=""/><path d=""/><path d=""/><path d=""/><path d=""/><path d=""/></g><g fill="#0d314c" stroke-width="1"><path d="M144.26459,462.33129c-1.55343,-16.27532 4.06231,-78.26737 7.67328,-81.87834l2.70822,-2.70821l4.06231,6.31916l4.06232,6.31917l-0.45137,37.5539v37.10253l11.84529,3.38584l7.22295,8.72491l-24.48467,-0.63199h-11.28423z"/><path d="M241.94084,465.03951l-2.70822,-4.5137l3.15958,-30.78336l3.15958,-31.23474l-4.96506,-2.70822l-4.5137,-3.15959l1.3541,-48.38675l1.3541,-48.38675l-4.96506,14.89518l-4.96506,14.89517l-3.61095,-3.15958l-3.15958,-3.15958l0.90274,32.58884l0.90273,33.04021l-8.57601,4.96506c-4.96506,2.70822 -11.28423,5.41644 -14.44381,5.8678l-5.41643,0.90273l-1.80548,-4.96506c-0.90274,-3.15958 -0.90274,-12.63833 0,-22.20735l2.25684,-16.24929l8.57601,-2.25685l8.57601,-2.25684v-12.18696c0,-6.77053 3.15958,-23.56146 7.2219,-37.10254l7.2219,-24.91557l6.77053,9.47875l6.31916,9.47875h6.77053h6.31916l0.45137,19.40887l0.45137,18.9575l3.61095,-15.79791l4.06231,-15.79791l-2.70821,-9.93012l-2.25685,-10.38149l2.70822,-6.77053l2.70821,-6.77053l9.02738,5.41643l9.47875,5.8678l-3.15958,22.65873l-2.70821,22.65873l-4.06232,4.5137l-4.06231,4.06232v16.24929v15.7979l-4.06232,-5.86779l-3.61095,-5.8678l-3.15958,21.30461c-1.3541,11.7356 -2.70821,29.42926 -2.25685,39.81074l0.45137,18.50612l4.96507,-21.75598l5.41643,-21.75598l5.8678,5.41643l5.41643,5.8678v12.18696v12.63832l-4.06231,2.70821l-4.5137,2.25685l2.70821,14.89517l4.99451,34.60484l-56.10195,0.55832l0.84051,-1.28307l24.5389,-9.05479l-2.70821,-4.06231z"/><path d="M284.91116,398.50773c-0.90274,-13.0897 -1.3541,-25.81831 -0.45137,-28.07515l1.80548,-4.51369l6.31917,6.31916c8.12464,8.12465 8.12464,15.79791 0,34.84569l-6.31917,14.89517l-1.3541,-23.56146z"/><path d="M178.11727,393.99403l-5.41643,-3.15958l-2.25685,-33.94294c-1.3541,-18.50613 -3.61095,-42.06759 -4.96507,-51.99771l-2.25685,-18.05475l6.31916,-18.05476l6.31917,-18.05475l2.70821,8.12464c1.3541,4.06232 3.61094,10.83286 4.96506,14.89517l2.25685,7.2219l-2.70821,11.28423l-3.15958,11.28422l-3.61095,-6.31916l-4.06232,-5.8678v13.0897v13.08969l7.22189,8.12464l7.2219,8.12465l-0.45137,30.33199c0,33.04021 -0.45137,34.39432 -8.12464,29.88063z"/><path d="M148.77828,343.8018l-2.70822,-19.95051l-4.5137,-2.70822l-4.06231,-2.70821l-3.15958,-19.95051l4.96507,-25.72803c11.28422,-8.57601 13.54108,-7.67328 16.24929,4.06231l2.25685,9.93011l-3.15958,38.45664l-2.70821,38.45664l-3.15958,-19.95051z"/><path d="M332.39519,348.76686l-4.51369,-7.67328l1.80548,-21.30461l1.80548,-21.75598h3.61095h4.06232l-1.80548,58.67798l-4.96506,-8.12464z"/><path d="M299.89662,335.67717c-2.25685,-6.77053 -5.8678,-19.40887 -7.2219,-27.17241l-2.25685,-14.89518h5.8678h6.31916l3.15958,8.12464c1.80548,4.06232 4.06232,13.54107 4.96506,20.85325l1.80548,12.63832l-3.61095,6.77053l-4.06232,6.77053z"/><path d="M333.74928,257.40978c-1.3541,-3.61095 -3.61095,-13.99244 -4.51369,-23.1101l-2.25685,-16.24929l4.06232,-6.31916l4.06232,-6.31917v6.31917c0,3.61095 0.90273,52.35879 0.90273,52.35879l-2.25685,-6.77053z"/><path d="M289.87624,236.88987v-11.28422l4.06232,2.25684l3.61095,2.70821l4.5137,-28.07514l4.5137,-28.07515l-4.06232,-15.34655l-4.51369,-15.34654l4.51369,-4.5137l4.5137,-4.5137l-2.25685,-7.67328l-2.70821,-7.2219l6.31916,5.8678l6.31916,5.8678l0.90274,45.22717l0.90274,45.22717l-4.5137,-2.70821l-4.06232,-2.70821l-0.45136,6.77053c-1.3541,15.34654 -6.31917,25.36694 -13.54108,25.36694h-4.06232v-11.73559z"/><path d="M235.62167,225.2723c-3.15958,-10.83286 -6.77052,-21.75598 -9.02738,-24.46419c-1.80548,-2.25685 -4.5137,-9.93012 -6.31916,-16.70066l-2.70821,-12.63833h4.5137h4.5137v11.28423v10.83286l7.2219,-2.70821l6.77053,-2.70822l-4.51369,-4.51369l-4.96506,-4.96506v-19.40887v-19.40887h4.96506c2.70821,0 8.57601,2.25685 13.54107,4.96507l9.47875,4.96506l-3.15959,-40.71349l-3.15958,-40.26212l4.96507,-9.47874l5.41643,-9.93011h-4.96506h-4.5137v-16.24929v-15.79791l6.77053,-6.77053l6.31916,-6.77053l-2.70822,-7.2219l-2.70821,-7.2219l5.41643,3.15958l5.41643,3.61095l5.8678,-4.96506l6.31916,-4.96506l2.70821,9.93012c1.3541,5.8678 2.70821,17.15202 2.70821,25.81831v14.89517l-6.31916,-5.41643l-6.77053,-4.96506l2.25685,-6.31916l2.25684,-5.8678l-4.51369,-3.15958l-4.96506,-2.70821l-0.45137,5.8678c0,3.15958 -0.90273,10.83286 -1.80548,17.15202l-1.3541,11.28423l5.8678,26.26968l5.8678,25.81831h-2.70821c-1.80548,0 -0.45137,1.80548 2.70821,4.06232l6.31916,3.61095l2.25684,18.9575l2.70821,18.50613h-3.61095c-1.80548,0 -6.31916,-3.61095 -9.47874,-7.67328l-5.8678,-8.12464l-0.45137,14.89517v14.89517l-2.68036,-2.04154l1.15297,23.29179l7.04863,4.93634l-15.45136,20.93635l-4.96507,-15.79791l-4.51369,-15.79791l-4.06231,22.65873l-3.61095,22.65873l5.41643,12.63832l4.96506,12.63833l-3.15958,2.70821l-2.70821,2.70822v-6.31916v-6.31916l-4.06232,6.31916l-4.06231,6.31916l-5.41643,-19.95051z"/><path d="M201.67872,214.34918c3.61095,-28.9779 4.96506,-32.58885 9.93011,-27.62378l3.15958,3.15958l-0.45137,18.50613l-0.90273,18.50612l-7.2219,7.22189l-7.67328,7.2219l3.15958,-27.17241z"/><path d="M136.04967,190.51688l11.28423,1.3541l11.73559,0.90274l-2.25684,-6.31917c-1.3541,-3.61095 -2.70821,-10.3815 -2.70821,-14.89518v-8.57601l-6.31916,-6.31916l-6.31916,-6.31916l-0.90273,-47.03265c-0.45137,-25.81831 -0.90274,-58.76824 -0.45137,-72.85096l0.90274,-26.26968h-4.5137l-0.45135,-31.77637l4.5137,-6.77053l2.70821,10.38149l2.70821,9.93011h4.06231h4.06232v-9.02738v-9.02738h4.5137h4.5137v6.77053c0,3.61095 1.35409,6.77053 3.61094,6.77053h3.15958l0.90273,12.63833c0.90274,16.70065 13.54107,90.45436 17.15202,99.57201l2.70821,6.77053l-9.47874,8.57601l-9.02738,8.57601v6.31917c0,3.15958 1.3541,9.02738 2.70821,13.0897l2.70822,7.22189l4.06231,-2.70822l4.06232,-2.25685v4.96507v4.96506l4.5137,-2.70821l4.96506,-3.15958l6.31916,5.41643l6.77053,5.41643v13.08969v13.08969h-4.51369h-4.5137l-4.51369,-11.28423l-4.5137,-11.28422h-4.5137h-4.5137v15.7979v15.79791h-5.41643h-5.8678l4.51369,3.61095l4.5137,3.15959l0.90273,19.40887l0.45137,18.9575h-8.57602h-8.57601l-0.45137,-18.9575l-0.45137,-19.40887l-3.15958,13.54108l-2.70822,13.54107h-4.51369h-4.5137l1.3541,5.86779l1.3541,5.41643h-9.02738zM172.70083,79.11903l4.06231,2.25685v-5.8678c0,-3.15958 -1.3541,-10.38149 -2.70821,-15.79791l-2.70821,-9.93012l-10.83286,0.90274l-10.83286,0.90274v4.51369c0,2.70822 1.3541,8.12465 2.70821,12.63833l2.25685,7.67328l4.5137,-2.25685l4.06231,-2.70822l0.45137,8.12465l0.45136,8.12465l2.25685,-5.8678l2.25684,-5.41643z"/><path d="M216.12254,132.47084l-3.15958,-18.50613l-6.77053,-5.8678l-6.77053,-5.41643v-13.54108v-13.54107l5.8678,1.80548l5.41643,2.25684l1.3541,11.7356l1.3541,11.7356l6.77053,-2.70822l6.31916,-2.25685l-0.45137,8.12464c0,4.96507 -1.35409,16.70066 -3.61094,26.72105l-3.15959,18.05475l-3.15958,-18.50612z"/><path d="M292.13307,95.81968c1.3541,-3.61095 2.25685,-13.99244 2.25685,-23.1101v-16.70066l4.5137,6.77052l4.5137,6.77053v-7.67328c0,-4.06232 3.61095,-13.54107 8.12464,-21.30462l7.67328,-13.99244h7.2219h7.2219l-2.25684,-22.65873l-2.25685,-22.65873h8.12465l2.70822,13.54106l0.45137,54.34483l-2.70821,5.8678l-2.25684,5.41643l-5.8678,-7.22189l-6.31916,-7.67328l-7.2219,18.95751c-4.06232,9.93011 -8.57601,22.65873 -9.93011,28.07515l-2.70821,9.47875h-7.2219h-6.77053l2.70821,-6.31916z"/><path d=""/><path d="M213.41433,65.57795l-0.45137,-8.12465l-6.77053,5.41643l-6.77053,5.41643l-0.45137,-3.61095c-0.45137,-2.25685 -0.45137,-15.79791 -0.45137,-30.33199l0.45137,-25.81831l-4.51369,2.25685l-4.06232,2.70821l-0.45137,-17.15203c-0.90274,-25.36694 0.45137,-47.93538 3.61095,-57.41414l2.25685,-8.12464l3.61095,3.61095c2.25685,2.25685 5.8678,12.18696 8.57601,21.75598l4.51369,18.05476l-4.06231,4.96506l-4.06232,4.96506l-0.90274,13.54107c0,7.2219 1.3541,19.40887 4.06232,26.72105l4.06232,13.54108l5.41643,-0.90273l4.96506,-1.3541l-0.45137,8.12465c-0.45137,4.06232 -2.25685,12.63833 -4.06232,18.95751l-3.61094,11.28423l-0.45137,-8.57601z"/><path d="M312.53495,-62.0692v-42.97034l4.06232,2.70821l4.51369,2.25685l1.3541,-9.93011l1.3541,-10.38149l7.67328,15.79791l7.67327,15.79791v62.01807l-6.31916,-2.25685l-5.8678,-2.70821l-2.70821,6.77053c-1.3541,3.61095 -4.51369,6.31916 -7.2219,6.31916h-4.51369z"/><path d="M154.19472,-53.85428c-3.61095,-1.80548 -7.22189,-4.96506 -7.22189,-7.67328c-0.45137,-2.25685 -2.25685,-16.24929 -4.06232,-30.33199l-2.70821,-26.26968l5.41639,-4.35251h22.56845l12.36755,4.35251l-4.06232,17.15202c-2.70821,9.02738 -5.41643,24.4642 -7.22189,33.94294c-2.70821,17.15202 -3.61095,18.05476 -14.89517,13.08969z"/><path d="M215.67118,-76.51301c-1.3541,-2.25685 -3.61095,-12.63833 -5.41643,-22.65873l-3.15959,-18.9575l32.13746,-18.34495l5.41638,8.3052l-8.21486,10.03975l-3.15958,14.89517c-1.80548,7.67328 -5.8678,18.05476 -9.02738,22.65873l-5.8678,8.12465z"/></g><g fill="#244b67" stroke-width="1"><path d="M137.85514,431.54793l-2.70821,-20.40188l2.70821,-15.79791l3.15959,-15.79791h7.22189h7.22189l-3.15958,17.15203c-1.3541,9.02738 -2.70821,25.36694 -2.70821,36.19979v18.95751h-4.06231h-4.5137l-3.15958,-20.40189z"/><path d="M237.87852,429.29109c-1.3541,-2.25685 -3.61095,-17.15202 -5.41643,-32.58884l-2.25685,-28.52653l7.67328,-6.77053l7.67328,-6.31917l-1.3541,16.2493l-1.3541,16.70066l3.15958,3.15958l3.15958,3.15959v19.95052v19.40887h-4.06232c-2.70821,0 -5.41643,-1.80548 -7.22189,-4.5137z"/><path d="M295.74403,299.026l-5.41643,-3.61095l-4.96506,-24.4642c-2.70821,-13.54107 -6.77053,-29.42926 -9.02738,-35.29705l-4.5137,-9.93011l-1.38483,-36.06099l5.66718,-9.00002l-6.20451,-4.99215l-0.33468,-8.71508l-2.70821,-58.76824h7.22189h7.2219l-2.70821,4.51369l-2.70821,4.06232l8.12464,12.18696l8.12464,12.18696l-5.8678,2.25685l-5.41643,1.80548v8.57601v8.57601h4.06232h4.06231l-4.06231,19.40887c-2.70821,10.3815 -5.41643,22.65874 -6.77053,27.17242l-2.25685,7.67328h6.77053h6.77053l4.5137,17.15202c2.70821,9.02738 4.96506,21.30462 4.96506,27.17242c0,5.8678 1.80548,13.99244 4.06232,18.05476l3.61095,7.67328l-2.70821,7.67327l-2.70821,7.67328l-5.41643,-3.15958z"/><path d="M199.42188,271.40222v-24.01283l6.31916,4.96506l6.77053,5.41643l1.80548,-10.38149l2.25685,-10.38149l-1.80548,22.20735l-1.80549,22.65873l-6.77053,6.77053l-6.77053,6.77053z"/><path d="M255.03053,272.75632l-5.41643,-11.28422l7.67328,-9.02738c4.06232,-4.51369 9.02738,-8.57601 10.83286,-8.57601h3.61094v8.12464c-0.45137,4.06232 -2.70821,13.08969 -5.86779,20.40188l-5.41643,12.18696l-5.41643,-11.73559z"/><path d="M139.20925,218.86286l-2.25684,6.31916l-2.25685,6.31916l7.2219,-2.70821l7.22189,-2.70821l3.15958,20.40188l2.70821,19.95051l-5.41643,6.77053c-3.15958,3.61095 -8.12465,6.77053 -11.28423,6.77053z"/><path d="M164.12482,267.79127c-2.25685,-4.51369 -5.86779,-20.40188 -8.12464,-35.29706c-4.06232,-30.78336 -3.15958,-27.62378 -9.93011,-44.32444l-5.41643,-12.63833l0.45137,-12.18696c0,-6.77053 1.80549,-15.79791 3.61095,-20.85325l3.15958,-8.12464l5.8678,19.40887c3.15958,10.83286 7.67328,25.81831 9.93012,33.0402c2.25685,7.2219 4.06231,19.95052 4.06231,28.07515v15.34654h3.61095h3.61095l-1.80548,-15.34654l-1.80548,-15.34654l4.06232,-2.25685l4.06231,-2.70821l0.90273,22.65873l0.90273,22.65873l-4.51369,-2.70821l-4.5137,-2.70821l2.70821,20.40188l3.15958,20.85325h-4.96506h-4.96507l-4.06232,-7.67328z"/><path d="M240.58674,154.22682l-0.45137,-10.38149l-4.5137,2.70821l-4.06231,2.70821l2.25684,-14.89517c1.3541,-8.12465 3.61095,-26.72105 4.96506,-41.61622l2.70822,-26.26968l3.15958,5.8678c1.80548,3.61095 4.5137,22.20735 6.31916,41.61622l2.70821,34.84569h-4.06231h-4.51369l-1.80548,8.12464l-2.25685,7.67328z"/><path d=""/><path d="M254.57918,44.7247l0.45137,-29.42926l1.80548,14.89518l1.80549,14.44381l4.51369,-2.25685l4.06232,-2.70822v8.12465v8.57601l-6.77053,9.02738l-6.31917,8.57602l0.45137,-29.42926z"/><path d="M137.85516,-30.92474l-0.45137,30.332h4.06232h3.61095v22.20735v22.65873l-4.06231,2.25684l-3.61095,2.70821c0,0 0.45136,-114.55746 0.45136,-80.16313z"/><path d="M325.17329,32.53774l-8.12464,-1.80548v-6.77053c0,-3.61095 6.77053,-26.26968 14.89517,-49.74086l8.576,12.99943l-5.41643,-1.3541v13.54107v13.54108l4.96506,-0.90274l-0.45136,9.93013v6.77053v6.77053l-3.15958,-0.45136c-2.25685,-0.45137 -7.2219,-1.3541 -11.28422,-2.70822z"/><path d="M157.80567,-21.80708c-1.3541,-14.89517 4.06231,-55.60866 7.67327,-59.30989l2.25685,-2.25684v17.60339c0,9.47875 1.3541,25.36695 2.70821,34.84569l3.15958,16.70065h-7.67328h-7.2219l-0.90273,-7.67328z"/></g></g></g></svg>