<svg version="1.1" xmlns="http://www.w3.org/2000/svg" xmlns:xlink="http://www.w3.org/1999/xlink" width="32.03037" height="38.63364" viewBox="0,0,32.03037,38.63364"><g transform="translate(-223.86722,-162.29857)"><g data-paper-data="{&quot;isPaintingLayer&quot;:true}" fill-rule="nonzero" stroke="none" stroke-linecap="butt" stroke-linejoin="miter" stroke-miterlimit="10" stroke-dasharray="" stroke-dashoffset="0" style="mix-blend-mode: normal"><path d="M239.73502,200.78167c-1.02344,0.92166 -1.62821,-2.64546 -1.70798,-3.73653c-0.2499,-1.24812 0.26597,-3.60538 0.26597,-3.60538c0,0 0.25776,-1.64717 0.89511,-0.77478c0.29668,0.4061 0.61196,0.78166 0.87274,1.18148c0.29943,0.45908 0.52701,0.95018 0.57209,1.55627c0,0 0.50305,4.11727 -0.89793,5.37893z" fill="#09649e" stroke-width="0"/><path d="M249.39986,197.17986c-0.19201,1.26031 -2.71419,-1.0009 -3.4104,-1.75283c-0.90988,-0.76923 -1.92184,-2.78817 -1.92184,-2.78817c0,0 -0.78057,-1.35191 0.18629,-1.07938c0.45008,0.12687 0.89556,0.22074 1.31628,0.36358c0.48308,0.16402 0.93352,0.39263 1.32081,0.80988c0,0 2.77171,2.7217 2.50886,4.44691z" fill="#09649e" stroke-width="0"/><path d="M241.67476,189.90926l-2.43167,-4.91195l1.50352,-0.37721c0,0 1.11217,3.39109 2.39763,4.98103c0.39166,0.51623 2.93657,3.32097 2.93657,3.32097c0,0 1.63028,1.69246 1.82704,2.29675c0.25029,0.76869 -0.94406,0.47083 -1.23069,0.25278c0,0 -0.90834,-1.02501 -1.50124,-1.64207c-0.87646,-0.91217 -3.50114,-3.92029 -3.50114,-3.92029z" fill="#ffffff" stroke-width="0"/><path d="M237.99299,189.61218l1.29642,-5.68774l1.32754,0.80032c0,0 -1.15808,2.75699 -1.37934,4.78955c-0.08997,0.64171 0.16116,4.87545 0.16116,4.87545c0,0 0.25911,2.58728 -0.03072,3.15286c-0.36868,0.71945 -0.88795,0.1386 -1.07912,-0.43245c-0.19117,-0.57104 -0.03211,-1.99024 -0.05938,-2.91427c-0.03317,-1.12409 -0.23656,-4.58373 -0.23656,-4.58373z" fill="#ffffff" stroke-width="0"/><path d="M245.63516,175.29111l-0.4334,5.11169l2.04773,2.90886c0,0 -4.1627,-0.77294 -5.87126,-2.56988c-1.54663,-1.62662 -1.30971,-4.04054 -1.30971,-4.04054z" data-paper-data="{&quot;index&quot;:null}" fill="#2095ad" stroke-width="0"/><path d="M232.08552,183.31456c0,0 1.97364,-2.98554 2.1653,-4.60297c0.10251,-0.86504 -0.66683,-4.07474 -0.33814,-7.33345c0.28585,-2.83441 2.18529,-6.66637 3.24215,-6.54114c1.1273,0.13358 0.11334,8.28702 0.01018,9.91247c-0.42485,7.88093 -5.07948,8.56509 -5.07948,8.56509z" data-paper-data="{&quot;index&quot;:null}" fill="#2095ad" stroke-width="0"/><path d="M240.43134,176.53629c-0.02725,3.53113 -3.74153,7.41395 -3.74153,7.41395c0,0 -1.1915,-1.33651 -0.14607,-6.36172c0.18598,-0.89396 0.9119,-5.15646 1.05892,-5.13904c0.09853,0.01168 0.16156,1.7681 0.96669,2.98444c0.39645,0.59892 1.86722,0.42299 1.86197,1.10239z" data-paper-data="{&quot;index&quot;:null}" fill="#0d4d58" stroke-width="0"/><g data-paper-data="{&quot;index&quot;:null}" stroke-width="0.17188"><path d="M232.98072,177.19796c-0.45747,-0.15116 -2.01787,-0.70552 -1.90789,-1.0799c0.14084,-0.484 0.99478,-1.13306 1.61873,-1.14837c0.94959,-0.02298 2.09466,0.32492 3.04079,0.60114c1.49692,0.43728 3.69453,0.84867 3.90798,1.2048c0.2135,0.356 -1.31869,0.84131 -2.19238,0.91839c-0.87369,0.07708 -3.08345,-0.03904 -4.46721,-0.49605z" data-paper-data="{&quot;index&quot;:null}" fill="#09649e"/><path d="M231.08789,176.10402c0.21972,0.39464 0.00461,0.64966 -0.14825,0.73473c-0.17043,0.08765 -0.45032,-0.07561 -0.72971,-0.02191c-1.41991,0.03494 -2.03072,-0.17767 -2.59885,-0.67538c0.17439,-0.49135 2.05034,0.26398 1.4871,-0.33434c-0.61767,-0.93692 -2.24755,-0.45561 -2.45615,-0.76923c-0.18097,-0.27209 1.21956,-0.3264 0.99479,-0.41343c-0.09929,-0.03844 -1.22404,0.06281 -1.26192,-0.29786c0.01729,-0.38437 1.20761,-0.06781 1.20761,-0.06781c0,0 -0.9197,0.04883 -0.79009,-0.30238c0.12961,-0.35119 0.75384,-0.08643 1.06438,-0.10368c0.10511,-0.05703 1.5032,0.37814 1.72646,0.44589c0.95646,0.29024 1.64343,-0.09253 1.68088,0.2568c0.05047,0.47104 -0.06732,0.20108 -0.15072,0.57573c-0.04968,0.22263 -0.03042,0.96385 -0.02553,0.97284z" fill="#ebd9bb"/><path d="M232.26036,177.36431c-0.54066,0.2096 -1.45997,-0.59919 -2.01027,-0.44337c0.16954,-0.05116 0.17378,-0.45843 0.17378,-0.45843c-0.0003,-0.03298 -0.06355,-0.5176 -0.32979,-1.06844c-0.21888,-0.45292 -0.21965,-0.73962 -0.02144,-0.90291c0.13697,-0.11309 0.26516,-0.44463 0.62218,-0.35827c0.37932,0.09185 0.91875,0.08739 1.26583,0.29097c0.15028,0.08812 0.66611,0.1924 0.75824,0.30129c0.13998,0.16584 -0.15223,0.1911 -0.10892,0.15533c0.21621,-0.17868 -0.13705,0.48077 -0.11441,0.78309c0,0 0.04435,1.57313 -0.23519,1.70075z" fill="#ecc51e"/></g><g data-paper-data="{&quot;index&quot;:null}" stroke-width="0"><path d="M245.73786,186.67179c0.71241,-1.26079 0.2427,-1.95101 0.2427,-1.95101c0,0 1.38195,0.59797 1.41502,2.30812c0.78147,1.68947 0.21644,2.34027 0.21644,2.34027c0,0 -0.997,0.16613 -1.59268,0.04013c-1.83788,-0.49639 -2.82519,1.84044 -4.55759,-1.23476c-0.25957,-0.46077 3.5741,-0.26037 4.27611,-1.50276z" fill="#2095ad"/><path d="M245.49862,187.43878c-0.82307,1.96588 -3.32225,0.89919 -3.32225,0.89919c0,0 -1.2577,-0.37331 -2.60835,-1.7095c-1.62271,-1.60531 -1.53654,-4.22104 -1.00152,-5.43018c0.53502,-1.20914 0.54283,0.36482 3.30315,0.16716c2.07977,-0.14891 4.26359,3.29339 4.44537,3.43278c0,0 0.06023,0.39671 -0.8164,2.64055z" fill="#ffffff"/></g><g stroke-width="0"><path d="M252.96747,185.0733c-1.17073,-0.19117 -5.91058,0.24208 -5.91058,0.24208c0,0 4.62652,-0.6474 5.11912,-1.68885c0.49266,-1.04159 -2.90336,-3.04115 -1.95238,-2.80558c5.02268,1.2442 5.67396,4.38379 5.67396,4.38379c0,0 -1.7594,0.05974 -2.93012,-0.13143z" fill="#2095ad"/><path d="M238.68142,180.22481c0,0 1.17007,-0.28767 3.11818,-0.30701c1.15792,-0.0115 2.92358,0.26201 3.96909,0.22552c3.39819,-0.11861 6.5803,1.36838 7.39696,2.79615c0.59541,1.04096 -3.96892,2.58026 -6.17778,2.24089c-2.39256,-0.36759 -8.30644,-4.95556 -8.30644,-4.95556z" fill="#ffffff"/></g><g stroke-width="0"><path d="M235.15286,184.00893c0,0 -2.19252,1.16317 -4.31608,1.91249c-1.17053,0.41303 -2.61054,0.44513 -3.87782,0.80687c-1.26728,0.36174 -3.09174,1.09937 -3.09174,1.09937c0,0 0.57885,-1.68083 1.23357,-2.35969c0.65472,-0.67887 3.56543,-2.97564 3.8189,-2.87911c0.25347,0.09653 6.23318,1.42007 6.23318,1.42007z" fill="#2095ad"/><path d="M232.56466,180.80101c3.67911,-1.11965 5.03462,-0.51063 5.73368,-0.80731c2.03258,-0.86262 1.67217,-0.47547 1.67217,-0.47547c0,0 -0.52642,2.90393 -6.46723,5.24671c-4.27602,1.68626 -7.05897,0.30057 -7.05897,0.30057c0,0 1.41312,-2.83195 6.12035,-4.2645z" fill="#ffffff"/></g><g stroke-width="0"><path d="M229.24305,188.9081c0.53334,-1.90423 2.5465,-3.98658 2.5465,-3.98658l6.01919,3.13496c0,0 -3.90888,2.41622 -5.15373,3.48623c-1.24485,1.07002 -3.55321,2.43716 -3.55321,2.43716c0,0 -0.56426,-2.55285 0.14125,-5.07176z" fill="#2095ad"/><path d="M231.78953,184.92153c0.76078,-0.80064 1.42182,-2.42287 5.39913,-3.41078c2.71263,-0.67377 3.41374,-2.27394 3.41374,-2.27394l1.04275,0.89733c0,0 -0.51955,4.2219 -2.50177,6.67434c-1.85442,2.29431 -7.19643,4.01257 -8.72352,2.56178c-1.52709,-1.45079 0.60311,-3.64201 1.36968,-4.44873z" fill="#ffffff"/></g><path d="M238.3388,180.36673l0.50508,-0.42884c0,0 0.00713,-0.06008 0.1822,-0.0996c0.17507,-0.03952 0.4723,-0.5085 0.4723,-0.5085l0.05232,0.25088c0,0 -0.20342,0.43289 -0.39237,0.54115c-0.18894,0.10826 -0.81954,0.24492 -0.81954,0.24492z" data-paper-data="{&quot;index&quot;:null}" fill="#2490a6" stroke-width="0"/><path d="M238.26099,179.97884c0,0 0.00296,0.40788 0.05461,0.66185c0.05166,0.25398 0.19274,0.55429 0.19274,0.55429l1.17875,0.54962c0,0 0.69014,-0.20736 0.97,-0.35074c0.27986,-0.14339 1.33251,-1.46916 1.33251,-1.46916l0.51105,-0.03953c0,0 -0.89719,1.4955 -1.52889,1.83374c-0.6317,0.33824 -1.55609,0.65983 -1.55609,0.65983l-0.2055,0.42909l-0.82569,0.13621l-0.32294,-0.64977l0.19117,-0.42534c0,0 -0.32604,-0.60918 -0.37942,-1.03668c-0.05338,-0.4275 -0.07684,-0.86704 -0.07684,-0.86704z" fill="#eec522" stroke-width="0"/><path d="M239.59749,176.64198c0.27251,0 1.27223,-0.15383 1.55758,0.01468c0.91399,0.5913 0.44364,1.54443 0.40456,3.01343c0.04114,0.18438 0.19368,0.59337 0.19368,0.59337c0,0 -0.68512,-0.29135 -0.96219,-0.42856c-0.1795,-0.08889 -0.53861,-0.31464 -0.53861,-0.31464c0,0 -0.44075,0.0734 -0.55348,0.05417c-0.22585,-0.03853 -1.08002,0.67774 -1.08002,0.67774l-0.11055,0.14195c0,0 0.18138,-0.40937 0.1735,-0.81523c-0.00944,-0.48635 -0.20346,-1.00254 -0.13155,-1.27342c0,0 0.47414,-1.66348 1.04707,-1.66348z" fill="#09649e" stroke-width="0"/><g data-paper-data="{&quot;index&quot;:null}" stroke-width="0"><path d="M247.08127,168.69608c-0.00914,0.07709 -0.41845,0.09196 -1.2532,-0.00696c-0.83475,-0.09892 -2.39721,-2.89481 -2.38808,-2.97188c0.00913,-0.07706 1.59493,0.45692 2.42968,0.55584c0.3791,0.04492 -0.14574,0.76927 0.24807,1.30493c0.4733,0.64376 0.96849,1.07604 0.9635,1.11812z" fill="#72878d"/><path d="M237.90831,169.11077c0,0 -0.32517,2.55923 -0.39557,4.04186c-0.1055,2.22205 -0.17578,7.99432 -0.17578,7.99432c0,0 -2.59152,-5.27433 -2.64248,-8.45739c-0.04682,-2.92446 1.1182,-6.39052 1.1182,-6.39052c0,0 2.23236,-3.58209 4.65753,-2.34108c0.46114,0.23596 0.14694,1.63528 0.14694,1.63528l-1.53593,0.34354z" fill="#2095ad"/><path d="M241.11351,163.32611c0,0 -1.66287,-0.00925 -2.33664,0.35307c-0.31688,0.1704 -2.29005,0.94479 -2.23902,0.75285c0.58607,-2.20415 2.78559,-1.94798 2.78559,-1.94798c0,0 0.11493,-0.25634 0.87464,-0.16631c0.7597,0.09002 0.91543,1.0084 0.91543,1.0084z" fill="#dceef3"/><path d="M244.50096,164.35743c-0.02904,0.24508 -1.05955,-0.03556 -1.69669,-0.11106c-0.63714,-0.0755 -1.24704,-0.86769 -1.24704,-0.86769c0,0 0.01961,-0.68627 0.68361,-0.56968c1.00999,0.17735 2.2892,1.30341 2.26016,1.54848z" fill="#dceef3"/><path d="M243.2428,164.34339c-0.06099,0.51466 -1.09199,0.63553 -2.21926,0.50195c-1.1273,-0.13358 -2.01275,-0.48158 -1.95177,-0.99621c0.06099,-0.51465 1.01376,-0.73479 2.14106,-0.60121c1.12729,0.13358 2.09095,0.58081 2.02996,1.09547z" fill="#e8d548"/><path d="M240.36466,165.11659c-0.04434,0.37418 -0.54792,0.11588 -1.19779,0.03887c-0.64986,-0.07701 -1.00285,0.22444 -0.95851,-0.14974c0.04434,-0.37418 0.47198,-0.98003 1.12185,-0.90302c0.64983,0.077 1.0788,0.63971 1.03446,1.01389z" fill="#72878d"/><path d="M247.73474,168.20537c0,0 -1.71085,-2.85265 -2.9901,-3.61522c-0.49901,-0.29748 -2.3033,0.3428 -1.86731,-0.20009c0.07308,-0.09102 1.3227,-0.81582 1.97235,-0.6687c1.07127,0.13427 1.44729,0.66896 1.44729,0.66896c0,0 0.92116,-0.0765 1.54274,0.87975c0.77552,1.19311 -0.10501,2.9353 -0.10501,2.9353z" fill="#dceef3"/><path d="M247.12335,168.80803l-1.56243,-1.69077c0,0 -0.27936,-1.05663 0.29948,-0.98803c0.57881,0.06859 1.26295,2.67883 1.26295,2.67883z" fill="#dceef3"/><path d="M246.64089,171.36062c0,0 -0.31468,3.43339 -1.01692,5.31873c-0.70224,1.88533 -2.54651,4.24808 -2.54651,4.24808c0,0 0.26546,-2.99973 0.68944,-6.57767c0.42398,-3.57794 -0.69762,-8.54189 -0.69762,-8.54189c0,0 1.64897,0.20732 2.19547,0.60428c0.71088,0.51638 1.37616,4.94847 1.37616,4.94847z" fill="#2095ad"/><path d="M245.75287,173.46954c-0.50732,3.0331 -3.7811,3.51074 -5.28551,3.31348c-2.50216,-0.3281 -4.92914,-1.7503 -4.546,-4.57433c0.31185,-2.29864 2.7193,-3.90736 5.46403,-3.58212c2.74473,0.32525 5.09259,2.54536 4.36748,4.84297z" fill="#ecdebd"/><path d="M239.22784,173.74681c-0.19905,-0.00791 -0.47208,-0.15913 -0.47208,-0.15913c0,0 -0.20892,-0.83442 0.06895,-1.22379c0.27788,-0.38937 0.3988,-0.83184 0.97806,-0.79498c0.57926,0.03688 1.00414,0.544 1.30069,1.25854c0.18956,0.45681 -0.00906,0.85326 -0.00906,0.85326c0,0 -1.45472,0.08249 -1.86655,0.06608z" fill="#000000"/><path d="M241.19108,173.98721c0,0 -0.57652,0.03341 -1.27302,-0.04912c-0.69651,-0.08254 -1.08802,-0.32269 -1.08802,-0.32269c0,0 -0.05131,-1.99581 1.23632,-1.58282c1.33704,0.39442 1.12471,1.95464 1.12471,1.95464z" fill="#eaeee9"/><path d="M233.52656,167.73662c0,0 0.25592,-1.22308 0.52255,-1.80318c0.26662,-0.5801 0.81122,-1.09848 0.81122,-1.09848l0.24687,1.33414z" fill="#dceef1"/><path d="M246.6006,166.56697c-0.00467,0.03939 -1.27128,-0.46434 -2.03929,-0.55535c-0.76801,-0.09101 -2.10366,-0.86019 -2.099,-0.89958c0.00467,-0.03939 0.80378,-0.84485 1.85705,-0.72004c1.05324,0.12481 2.28589,2.13558 2.28122,2.17497z" fill="#72878d"/><path d="M233.42501,167.87374c0,0 0.64212,-0.66199 0.91712,-0.96195c0.275,-0.29996 0.85996,-0.94685 0.85996,-0.94685c0,0 0.31135,0.42391 0.24834,0.95563c-0.063,0.53169 -2.02542,0.95317 -2.02542,0.95317z" fill="#72878d"/><path d="M245.49226,172.92382c-0.09409,1.14886 -0.49134,1.17374 -0.49134,1.17374l-0.88033,-0.36038c0,0 -0.30424,-0.32893 -0.09384,-0.85205c0.19846,-0.49345 0.68425,-0.88814 0.96183,-0.83983c0.57187,0.09955 0.54559,0.36637 0.50366,0.87852z" data-paper-data="{&quot;index&quot;:null}" fill="#000000"/><path d="M244.10221,174.12014c0,0 -0.12325,-0.94403 0.0792,-1.42515c0.31053,-0.73802 0.7401,-0.90018 1.08743,-0.34932c0.34729,0.55084 -0.23904,1.76487 -0.23904,1.76487z" fill="#eaeee9"/><g><path d="M244.62387,174.2889c-0.31315,-0.03711 -0.51645,-0.49383 -0.45407,-1.02018c0.06237,-0.52632 0.36678,-0.9229 0.67993,-0.88579c0.31315,0.03711 0.51644,0.49382 0.45407,1.02017c-0.06237,0.52632 -0.36677,0.92291 -0.67992,0.8858z" fill="#a77baf"/><path d="M244.94943,173.36113c-0.0297,0.25064 -0.15955,0.44126 -0.29003,0.4258c-0.13048,-0.01546 -0.21218,-0.23115 -0.18248,-0.48179c0.0297,-0.25064 0.15952,-0.44126 0.29003,-0.4258c0.13048,0.01546 0.21218,0.23115 0.18248,0.48179z" fill="#000000"/><path d="M244.83458,173.11733c-0.02079,0.17542 -0.11699,0.30826 -0.21483,0.29666c-0.09785,-0.01159 -0.16033,-0.16322 -0.13954,-0.33865c0.02079,-0.17542 0.11698,-0.30826 0.21482,-0.29666c0.09786,0.0116 0.16034,0.16322 0.13955,0.33865z" fill="#ffffff"/></g><path d="M246.4173,173.07932c0,0 0.01137,-0.2321 -0.56337,-0.68959c-0.65669,-0.52272 -1.72488,1.1105 -1.72488,1.1105l-0.24818,-0.82087c0,0 -0.40447,0.92754 -0.68088,0.99557c-0.41129,0.10125 -1.452,-0.94765 -2.42726,-1.32158c-0.85338,-0.32718 -3.2874,-0.53086 -3.2874,-0.53086c0,0 -0.56028,-4.68303 1.14781,-5.15011c0.9092,-0.24863 1.4148,-1.14815 3.19349,-0.52908c1.77871,0.61908 3.59459,1.86254 4.24798,3.11908c0.65338,1.25655 0.34272,3.81695 0.34272,3.81695z" fill="#2195ab"/><path d="M237.69998,165.62826c-1.3868,1.16809 -2.37383,0.9717 -2.37383,0.9717c0,0 -0.26233,-0.4122 -0.46258,-1.02433c-0.1395,-0.42648 -0.2435,-0.99565 -0.23042,-1.39825c0.01428,-0.44046 0.95585,-0.91461 1.48957,-0.9866c0.65438,-0.08827 0.92369,0.28332 0.92369,0.28332c0,0 1.03096,-0.35035 1.504,-0.24223c0.47305,0.10815 1.24199,0.96223 1.24199,0.96223c0,0 -0.82079,0.00715 -1.25871,0.42307c-0.23002,0.21848 -0.5375,0.76163 -0.83372,1.01114z" fill="#dceef3"/><path d="M239.3567,165.73212c0,0 1.7767,-0.05752 1.75105,0.159c-0.01186,0.10012 -0.88449,0.28399 -1.52137,0.64442c-0.74011,0.41886 -0.97971,0.6635 -0.97971,0.6635c0,0 0.10947,-0.72118 0.24298,-0.98232c0.1335,-0.26111 0.50703,-0.48461 0.50703,-0.48461z" data-paper-data="{&quot;index&quot;:null}" fill="#0b4754"/><path d="M243.39333,166.31102c0.02566,-0.21652 1.89454,0.56519 1.89454,0.56519c0,0 0.22553,0.22597 0.3181,0.64935c0.09258,0.42335 0.12264,1.2922 0.12264,1.2922c0,0 -0.54955,-0.82315 -1.17127,-1.40338c-0.53499,-0.49929 -1.17586,-1.00327 -1.164,-1.10339z" fill="#0b4754"/><path d="M244.47927,167.57432c-0.07405,0.62492 -0.58785,1.61771 -1.61713,1.49575c-1.02928,-0.12197 -1.81831,-0.68273 -2.41849,-1.61399c-0.0963,-0.14942 0.08711,-0.71712 0.0218,-1.25646c-0.0727,-0.60005 -0.30954,-1.28772 -0.11028,-1.55231c0.35614,-0.28459 1.83585,0.21399 1.83585,0.21399c0,0 0.59986,-0.71877 1.02851,-0.11077c0.61541,0.87294 1.30342,2.45545 1.25977,2.82382z" fill="#dceef3"/><path d="M236.33189,175.48587l0.43709,-4.50705l0.90552,0.54379l-0.25393,4.18931z" fill="#2095ad"/><path d="M245.31095,173.30601c-0.0097,-0.0638 0.45303,-0.23858 0.8744,-0.44124c0.42134,-0.20267 1.02977,-0.60717 1.02977,-0.60717c0,0 -0.53843,0.60303 -0.87472,0.72176c-0.3363,0.1188 -1.00852,0.46391 -1.02944,0.32665z" data-paper-data="{&quot;index&quot;:null}" fill="#000000"/><g><path d="M240.30245,174.19167c-0.31315,-0.03711 -0.51645,-0.49383 -0.45407,-1.02018c0.06237,-0.52632 0.36678,-0.9229 0.67993,-0.88579c0.31315,0.03711 0.51644,0.49382 0.45407,1.02017c-0.06237,0.52632 -0.36677,0.92291 -0.67992,0.8858z" fill="#a77baf"/><path d="M240.62804,173.26384c-0.0297,0.25064 -0.15955,0.44126 -0.29003,0.4258c-0.13048,-0.01546 -0.21218,-0.23115 -0.18248,-0.48179c0.0297,-0.25064 0.15952,-0.44126 0.29003,-0.4258c0.13048,0.01546 0.21218,0.23115 0.18248,0.48179z" fill="#000000"/><path d="M240.51314,173.0201c-0.02079,0.17542 -0.11698,0.30826 -0.21482,0.29666c-0.09786,-0.0116 -0.16033,-0.16322 -0.13954,-0.33865c0.02079,-0.17542 0.11698,-0.30826 0.21482,-0.29666c0.09785,0.01159 0.16033,0.16322 0.13954,0.33865z" fill="#ffffff"/></g><path d="M243.2192,174.13191c0.01198,-0.29295 0.79346,-0.56805 0.79346,-0.56805c0,0 0.04089,0.42917 0.12914,0.44718c0.23901,0.04876 0.91485,0.06299 0.91485,0.06299c0,0 -0.48921,0.60617 -0.91495,0.52672c-0.16663,-0.03107 -0.93021,-0.2805 -0.92251,-0.46885z" fill="#ecdebd"/><path d="M238.70748,174.17425l0.6505,-0.30678c0,0 0.47836,0.09507 0.71471,0.12308c0.23636,0.02801 0.65247,0.00053 0.65247,0.00053l0.36708,0.46573z" fill="#ecdebd"/><path d="M240.55754,176.36571c-0.35441,-0.042 -0.9511,-0.2164 -0.79773,-0.33647c0.11994,-0.15639 0.48875,0.1435 0.82089,0.18286c0.33214,0.03936 0.71858,-0.11039 0.83111,0.0129c0.22254,0.24382 -0.49985,0.18271 -0.85426,0.14071z" fill="#b1a37f"/><path d="M238.87909,174.21292c-0.03874,0.32696 -0.11232,0.37481 -0.11232,0.37481c0,0 -0.06036,-0.06372 -0.02162,-0.39068c0.03874,-0.32696 -0.16021,-0.33635 0.10406,-0.30503c0.26427,0.03132 0.06862,-0.00606 0.02987,0.32091z" fill="#d0bf96"/><path d="M245.06719,174.52178c-0.03874,0.32696 -0.11232,0.37478 -0.11232,0.37478c0,0 -0.06035,-0.06371 -0.02161,-0.39065c0.03874,-0.32696 -0.16022,-0.33635 0.10405,-0.30504c0.26428,0.03132 0.06863,-0.00606 0.02988,0.32091z" fill="#d0bf96"/><path d="M244.70191,174.61997c-0.03874,0.32696 -0.11231,0.37477 -0.11231,0.37477c0,0 -0.06036,-0.06371 -0.02162,-0.39064c0.03874,-0.32696 -0.16021,-0.33635 0.10406,-0.30503c0.26427,0.03132 0.06862,-0.00606 0.02987,0.32091z" fill="#d0bf96"/><path d="M239.21133,174.39377c-0.03874,0.32696 -0.11231,0.37478 -0.11231,0.37478c0,0 -0.06036,-0.06372 -0.02162,-0.39065c0.03874,-0.32696 -0.16021,-0.33635 0.10406,-0.30503c0.26428,0.03132 0.06862,-0.00606 0.02987,0.32091z" fill="#d0bf96"/><path d="M236.40881,175.01857c0,0 -0.86766,-0.91566 -0.89238,-2.27466c-0.02472,-1.359 1.25133,-2.88188 1.54412,-3.22532c0.29278,-0.34344 1.01513,0.58506 1.01513,0.58506c0,0 -0.42501,0.96918 -0.64884,1.62917c-0.3058,0.90167 -1.01803,3.28575 -1.01803,3.28575z" fill="#2195ab"/></g><path d="M238.90596,172.57661c-0.01634,0.13786 -0.90103,-0.29266 -1.2411,-0.40019c-0.34007,-0.1075 -0.93654,-0.64019 -0.93654,-0.64019c0,0 0.71192,0.37024 1.13976,0.55878c0.42788,0.18852 1.04547,0.4175 1.03788,0.48159z" data-paper-data="{&quot;index&quot;:null}" fill="#000000" stroke-width="0"/><path d="M240.6059,179.38445c0,0 0.31767,0.37105 0.53546,0.40686c0.2178,0.03581 0.47873,0.07872 0.47873,0.07872l0.37424,0.36655c0,0 -0.62919,0.01622 -0.86424,-0.08189c-0.23505,-0.09811 -0.55402,-0.46601 -0.55402,-0.46601z" fill="#2490a6" stroke-width="0"/><g data-paper-data="{&quot;index&quot;:null}" stroke-width="0.17188"><path d="M242.30802,183.26528c-0.68927,-1.28396 -1.18553,-3.44041 -1.2606,-4.31427c-0.07506,-0.87386 0.13815,-2.46689 0.5257,-2.31811c0.38765,0.14869 1.17264,2.24213 1.86203,3.64097c0.43556,0.88415 0.97613,1.95186 1.11759,2.89114c0.09275,0.61719 -0.39897,1.57045 -0.85135,1.79282c-0.34974,0.17302 -1.16542,-1.2681 -1.39337,-1.69257z" data-paper-data="{&quot;index&quot;:null}" fill="#09649e"/><path d="M243.71272,184.9406c0.0097,0.00327 0.7431,-0.10586 0.95379,-0.19326c0.3546,-0.14689 0.06834,-0.21625 0.54102,-0.24795c0.35054,-0.02348 0.09224,0.71931 0.54341,1.61121c0.10531,0.20819 0.82555,1.21004 0.78755,1.32343c0.03668,0.30886 0.34765,0.90487 0.02413,1.09322c-0.32352,0.18835 -1.27042,0.34437 -1.61169,0.15982c-0.62041,-0.33551 -0.62056,-0.29743 -0.76982,-1.52865c-0.34496,-0.15128 0.44745,-0.16289 0.16788,-0.30934c-0.68665,-0.45137 0.38151,1.26582 -0.07231,1.5225c-0.58841,-0.47356 -0.90338,-1.03845 -1.11435,-2.44303c0.00461,-0.28447 -0.20457,-0.53193 -0.14769,-0.71494c0.05737,-0.16526 0.27138,-0.42121 0.69805,-0.27299z" fill="#ebd9bb"/><path d="M242.26868,184.00355c0.07739,-0.29739 1.63452,-0.52557 1.63452,-0.52557c0.30167,-0.02994 0.89016,-0.49185 0.75153,-0.24801c-0.02774,0.04883 -0.05337,-0.24334 0.13417,-0.13413c0.12317,0.07193 0.31503,0.56198 0.42779,0.69477c0.26049,0.30667 0.34933,0.83876 0.50534,1.19649c0.14676,0.33672 -0.15764,0.52028 -0.24536,0.67473c-0.12659,0.22344 -0.40911,0.27223 -0.89304,0.13491c-0.58855,-0.16704 -1.07683,-0.14559 -1.10935,-0.14019c0,0 -0.4004,0.07456 -0.42149,0.25039c0.05837,-0.56895 -0.89712,-1.33466 -0.78411,-1.90341z" fill="#ecc51e"/></g><g><path d="M240.29582,176.9261c0.17008,0.06905 0.3072,0.33949 0.39108,0.72079c0.08399,0.38126 0.11481,0.87325 0.07258,1.38519c-0.0422,0.51204 -0.14953,0.94795 -0.28883,1.23853c-0.1394,0.29062 -0.31073,0.43601 -0.48082,0.36696c-0.17021,-0.06911 -0.30722,-0.33958 -0.3912,-0.72085c-0.08388,-0.3813 -0.11481,-0.87325 -0.07258,-1.38519c0.04219,-0.51204 0.14963,-0.94798 0.28893,-1.23856c0.1393,-0.29058 0.31062,-0.43597 0.48084,-0.36686z" fill="#5ed161" stroke-width="0.01872"/><g data-paper-data="{&quot;index&quot;:null}" fill="#21683c" stroke-width="0.01872"><path d="M240.22633,177.76842c0.09288,0.03771 0.16777,0.1854 0.21357,0.39363c0.04587,0.20821 0.0627,0.47689 0.03964,0.75647c-0.02305,0.27963 -0.08166,0.51769 -0.15773,0.67638c-0.07613,0.15871 -0.16969,0.23811 -0.26258,0.2004c-0.09295,-0.03774 -0.16778,-0.18545 -0.21364,-0.39367c-0.04581,-0.20823 -0.0627,-0.47689 -0.03964,-0.75647c0.02304,-0.27963 0.08172,-0.51771 0.15779,-0.6764c0.07607,-0.15869 0.16963,-0.23809 0.26259,-0.20035z"/></g><path d="M240.15103,177.68613c0.05931,0.02193 0.10212,0.11155 0.12354,0.23878c0.02138,0.12715 0.02128,0.29193 -0.00537,0.46388c-0.02668,0.17188 -0.07488,0.31879 -0.1313,0.41725c-0.05641,0.09846 -0.12094,0.1485 -0.18015,0.12654c-0.05927,-0.02186 -0.10211,-0.11155 -0.12352,-0.23878c-0.02138,-0.12717 -0.02132,-0.29184 0.0054,-0.46381c0.02666,-0.17195 0.07486,-0.31887 0.13128,-0.41732c0.05634,-0.09843 0.12087,-0.1484 0.18015,-0.12655z" fill="#ffffff" stroke-width="0.01896"/></g></g></g></svg>