<svg version="1.1" xmlns="http://www.w3.org/2000/svg" xmlns:xlink="http://www.w3.org/1999/xlink" width="27.15027" height="37.22139" viewBox="0,0,27.15027,37.22139"><defs><radialGradient cx="239.14018" cy="196.33495" r="9.67927" gradientUnits="userSpaceOnUse" id="color-1"><stop offset="0" stop-color="#d6feff" stop-opacity="0"/><stop offset="1" stop-color="#d6feff" stop-opacity="0.2"/></radialGradient></defs><g transform="translate(-228.38876,-163.26058)"><g data-paper-data="{&quot;isPaintingLayer&quot;:true}" fill-rule="nonzero" stroke-linejoin="miter" stroke-miterlimit="10" stroke-dasharray="" stroke-dashoffset="0" style="mix-blend-mode: normal"><path d="M229.4482,197.23337c-0.41391,-0.47526 1.43846,-1.39111 2.32034,-1.90625c2.35291,-1.37444 9.31701,-1.32911 12.96139,-1.37275c2.69781,-0.03231 3.29254,0.53439 3.63083,0.56223c0.98984,0.08145 1.71864,2.49976 1.2411,2.94055c-0.08138,0.07511 -3.42543,1.57576 -5.14135,1.90924c-2.74835,0.5341 -5.8281,1.68577 -7.29595,1.54839c-2.28862,-0.21418 -6.35093,-1.39318 -6.35093,-1.39318c0,0 -0.95154,-1.81297 -1.36543,-2.28823z" data-paper-data="{&quot;index&quot;:null}" fill="url(#color-1)" stroke-opacity="0.25098" stroke="#313040" stroke-width="2" stroke-linecap="butt"/><path d="M242.30383,183.83281l1.1839,-1.33279c0,0 0.04108,0.95958 0.54654,1.53864c0.60681,0.69517 2.84612,2.34807 2.84612,2.34807c0,0 -2.25878,-0.4285 -3.30198,-1.01066c-1.04322,-0.58216 -1.27457,-1.54325 -1.27457,-1.54325z" data-paper-data="{&quot;index&quot;:null}" fill="#02124a" stroke="none" stroke-width="0" stroke-linecap="butt"/><g data-paper-data="{&quot;index&quot;:null}"><g><g><path d="M232.69297,183.03708c0.4859,-0.25314 1.21175,-0.04471 2.04912,-0.04538c0.62473,-0.0005 1.15376,0.55553 1.37677,0.98361c0.47616,0.91401 0.70613,1.98392 -0.20787,2.46006c-0.3016,0.15713 -0.8963,0.53624 -1.45651,0.90076c-0.55264,0.35961 -1.00736,0.50293 -1.19507,0.21053c-0.24119,-0.37568 0.01618,-0.58674 0.01618,-0.58674c0,0 -0.40666,0.00425 -0.51744,-0.17838c-0.11077,-0.18264 0.02189,-0.63966 0.02189,-0.63966c0,0 -0.3693,-0.06848 -0.5061,-0.28827c-0.13679,-0.2198 0.01156,-0.50347 0.01156,-0.50347c0,0 -0.35882,0.00324 -0.51308,-0.28373c-0.15426,-0.28699 0.14979,-0.5329 0.14979,-0.5329c0,0 -0.26613,0.12726 -0.37496,-0.05397c-0.10884,-0.18124 -0.02307,-0.04383 -0.02753,-0.1721c-0.00367,-0.10567 0.91751,-1.13709 1.17325,-1.2703z" fill="#fdfdfd" stroke="none" stroke-width="0" stroke-linecap="butt"/><path d="M231.76792,184.54418c0,0 0.46914,-0.00639 0.81885,-0.1628c0.34971,-0.15643 0.66717,-0.52255 0.84824,-0.47885c0.38276,0.09234 0.69287,0.67134 0.69287,0.67134" fill="none" stroke="#a4a4a4" stroke-width="0.125" stroke-linecap="round"/></g><path d="M235.94052,184.36681c-0.14539,-0.33854 -0.6775,-1.47038 -0.41863,-1.61495c0.25938,-0.1184 0.64995,0.04735 0.64995,0.04735c0,0 -0.01997,-0.43986 0.24505,-0.51542c0.34384,-0.09805 0.92328,0.68682 1.15509,1.15019c0.2318,0.46338 0.3613,1.0586 0.21698,1.32706c-0.3638,0.67674 -0.58801,0.26759 -0.58801,0.26759c0,0 0.2057,0.44353 -0.41949,0.63697c-0.30805,0.09532 -0.67758,-0.91831 -0.84098,-1.29879z" fill="#fdfdfd" stroke="none" stroke-width="0" stroke-linecap="butt"/></g><path d="M239.90255,178.73301c0.25903,0.46246 1.01259,2.92401 1.01259,2.92401l-3.33397,2.16868l-0.4632,-0.91183l2.55328,-1.73084l-0.69096,-1.86651c0,0 -0.31004,-0.63262 0.24486,-0.72812c0.5549,-0.09551 0.41836,-0.31784 0.6774,0.14462z" data-paper-data="{&quot;index&quot;:null}" fill="#fec267" stroke="none" stroke-width="0" stroke-linecap="butt"/></g><path d="M237.55076,191.34114l2.32009,-8.04493l1.48846,0.49415c0,0 -0.76961,1.28262 -1.27266,2.84747c-0.50306,1.56483 -1.05533,4.57316 -1.05533,4.57316z" data-paper-data="{&quot;index&quot;:null}" fill="#033397" stroke="none" stroke-width="0" stroke-linecap="butt"/><g data-paper-data="{&quot;index&quot;:null}" stroke="none" stroke-width="0" stroke-linecap="butt"><path d="M230.34828,196.13148c0,0 -0.022,-2.85537 4.27585,-3.31733c5.05424,-1.06697 5.6805,-0.46674 5.92583,0.07562c0.62177,1.37452 0.53904,2.83267 0.53904,2.83267c0,0 -0.80391,0.4127 -1.39195,0.66914c-0.24863,0.10841 -1.20784,0.36032 -1.20784,0.36032l-0.04687,-0.40305l-1.36503,0.17114l-0.03025,0.5588c0,0 -1.63999,0.22518 -2.34265,0.25006c-3.22896,0.11443 -4.35618,-1.19738 -4.35618,-1.19738z" fill="#e90023"/><path d="M230.40119,196.13677l0.50795,-1.13855l1.66807,0.64442l0.49148,1.04848l-1.16493,0.78913l0.1996,-0.73688l-0.70795,-0.29877l-1.00837,0.08822l0.01408,-0.39605z" fill="#948a92"/><path d="M237.05015,196.57501c0,0 -0.03805,-1.1926 0.18259,-2.28008c0.2341,-1.15374 0.82875,-2.04739 0.82875,-2.04739l1.40995,0.19492l-0.07402,1.23945c0,0 -0.51005,0.82921 -0.70071,1.42537c-0.19065,0.59615 -0.23648,1.18703 -0.23648,1.18703z" fill="#deca55"/><path d="M230.40909,196.59657l-0.24695,-0.33679l0.44289,-1.27625l1.08214,-1.24701l1.95381,1.13727l0.42446,1.84864l3.08286,-0.90377l-0.06966,1.29134l-3.49258,0.78702l-1.78746,-0.43888l0.38658,-1.2633l-1.25963,-0.84275z" fill="#edeeee"/><g><path d="M230.74326,196.05702c0.22261,-0.26403 0.66202,-0.30642 1.0127,-0.05211c0.35068,0.25433 0.36464,0.66071 0.14203,0.92474c-0.22261,0.26403 -0.54186,0.26308 -0.95281,0.06132c-0.28869,-0.14174 -0.42453,-0.66993 -0.20192,-0.93397z" fill="#ece09c"/><path d="M230.83357,196.99259c-0.23377,-0.16956 -0.2846,-0.5695 -0.13618,-0.74552c0.14841,-0.176 0.52273,-0.20202 0.75652,-0.03245c0.20842,0.13501 0.5232,0.49491 0.35044,0.74778c-0.16469,0.24105 -0.6863,0.26885 -0.97079,0.03019z" fill="#000000"/></g><path d="M237.13969,194.97333c0,0 0.01484,-0.32672 0.05251,-0.50847c0.04504,-0.21732 0.19958,-0.70792 0.19958,-0.70792l0.10025,2.73798l-0.36362,0.08759c0,0 -0.04755,-0.53056 -0.04569,-0.79595c0.0019,-0.27091 0.05699,-0.81325 0.05699,-0.81325z" fill="#6a2625"/><path d="M240.99639,194.6138l0.03869,0.62386c0,0 -1.03764,0.51756 -1.06674,0.04818c-0.02911,-0.46936 1.02806,-0.67206 1.02806,-0.67206z" fill="#eac763"/><path d="M236.5544,192.35209c0.05953,-0.48609 0.49699,-0.92237 0.49699,-0.92237c0,0 -0.45842,-0.34853 -0.35168,-0.8062c0.13849,-0.59377 1.33228,-0.77767 1.96087,-0.72279c0.62859,0.05486 1.31975,0.37471 1.49141,0.81935c0.43273,1.12085 -0.13582,1.10132 -0.13582,1.10132c0,0 0.59048,0.07652 0.35402,1.1692c-0.11652,0.53842 -1.2454,0.44298 -2.07922,0.30347c-0.83382,-0.13951 -1.76931,-0.43409 -1.73657,-0.94196z" fill="#fdfdfd"/></g><path d="M245.20273,191.62772l-3.48417,-8.4677l1.59995,-0.64764c0,0 0.21584,1.63622 0.84955,3.32036c0.63371,1.68413 1.95716,4.56734 1.95716,4.56734z" data-paper-data="{&quot;index&quot;:null}" fill="#033397" stroke="none" stroke-width="0" stroke-linecap="butt"/><g data-paper-data="{&quot;index&quot;:null}" stroke="none" stroke-width="0" stroke-linecap="butt"><path d="M237.47986,197.18241c0,0 -0.21721,-3.01157 4.28661,-3.79106c5.26088,-1.46932 5.96252,-0.87849 6.25825,-0.32285c0.74949,1.40819 0.76128,2.95249 0.76128,2.95249c0,0 -0.82027,0.49012 -1.42336,0.80068c-0.255,0.13129 -1.25006,0.46229 -1.25006,0.46229l-0.07683,-0.42213l-1.42879,0.27333l0.00606,0.59171c0,0 -1.71527,0.34904 -2.45503,0.42305c-3.39951,0.34014 -4.67811,-0.96752 -4.67811,-0.96752z" fill="#e90023"/><path d="M237.53605,197.1844l0.45864,-1.23595l1.80399,0.56668l0.58987,1.073l-1.17563,0.91187l0.16055,-0.79114l-0.76734,-0.26717l-1.05805,0.16159l-0.01207,-0.41887z" fill="#948a92"/><path d="M244.58199,197.19507c0,0 -0.1212,-1.25588 0.03775,-2.41842c0.16863,-1.23339 0.73539,-2.21678 0.73539,-2.21678l1.50107,0.10989l0.0061,1.31292c0,0 -0.48188,0.90966 -0.64256,1.55169c-0.16069,0.64203 -0.16888,1.26865 -0.16888,1.26865z" fill="#deca55"/><path d="M237.57564,197.66904l-0.28347,-0.33861l0.38064,-1.37683l1.05718,-1.3894l2.13898,1.06734l0.57351,1.9219l3.19172,-1.16316l0.01424,1.36738l-3.63199,1.0678l-1.91601,-0.34167l0.3221,-1.35933l-1.38646,-0.8037z" fill="#edeeee"/><g><path d="M237.89158,197.077c0.21697,-0.29373 0.67776,-0.36833 1.0651,-0.1238c0.38733,0.24456 0.42967,0.67243 0.2127,0.96618c-0.21697,0.29373 -0.55391,0.31443 -1.00126,0.12945c-0.31426,-0.12995 -0.4935,-0.67808 -0.27653,-0.97182z" fill="#ece09c"/><path d="M238.05046,198.05811c-0.25821,-0.16304 -0.33901,-0.58162 -0.19435,-0.77744c0.14465,-0.19581 0.53787,-0.24869 0.7961,-0.08565c0.22911,0.1283 0.58573,0.4867 0.42061,0.76526c-0.15741,0.26556 -0.70595,0.33034 -1.02236,0.09782z" fill="#000000"/></g><path d="M244.56765,195.49885c0,0 -0.00653,-0.34577 0.02086,-0.54012c0.03276,-0.23238 0.16249,-0.76058 0.16249,-0.76058l0.29183,2.88239l-0.37776,0.11714c0,0 -0.08622,-0.55663 -0.10229,-0.83681c-0.0164,-0.286 0.00489,-0.86203 0.00489,-0.86203z" fill="#6a2625"/><path d="M248.61293,194.85743l0.0832,0.65569c0,0 -1.05978,0.61664 -1.12238,0.12332c-0.06262,-0.4933 1.03918,-0.77903 1.03918,-0.77903z" fill="#eac763"/><path d="M243.77193,192.77262c0.0298,-0.517 0.46177,-1.00708 0.46177,-1.00708c0,0 -0.50742,-0.33664 -0.42589,-0.82684c0.1058,-0.63597 1.35302,-0.91114 2.02005,-0.89594c0.66703,0.01518 1.4181,0.30573 1.62945,0.76327c0.53279,1.15335 -0.06849,1.17139 -0.06849,1.17139c0,0 0.62828,0.04062 0.45302,1.20971c-0.08637,0.57607 -1.28408,0.55208 -2.17342,0.46151c-0.88935,-0.09055 -1.89653,-0.33785 -1.89648,-0.876z" fill="#fdfdfd"/></g><path d="M242.86098,177.99505c0,0 1.83965,0.06384 2.62783,2.71947c0.41993,1.41484 0.21677,5.01862 0.21677,5.01862c0,0 -1.19994,-2.23376 -2.18405,-3.56074c-0.98412,-1.32698 -2.74179,-2.16546 -2.08292,-2.19285c0.65887,-0.0274 1.42237,-1.98449 1.42237,-1.98449z" data-paper-data="{&quot;index&quot;:null}" fill="#02124a" stroke="none" stroke-width="0" stroke-linecap="butt"/><path d="M238.77569,181.96473c-0.495,-1.52124 -0.43719,-3.27587 0.88664,-3.70662c1.32383,-0.43077 3.12237,-1.83794 3.61736,-0.3167c0.29584,0.9092 -0.09471,2.51283 0.1181,3.52902c0.38158,1.82215 -0.17725,2.32662 -0.96605,2.58328c-1.32382,0.43077 -3.16105,-0.56773 -3.65605,-2.08898z" data-paper-data="{&quot;index&quot;:null}" fill="#033397" stroke="none" stroke-width="0" stroke-linecap="butt"/><path d="M238.54693,181.69038c-0.5114,-1.42875 -0.10077,-1.80762 0.31976,-2.66183c0.21323,-0.43313 1.40565,-0.61086 2.29954,0.13536c0.82496,0.68869 1.15724,4.27145 0.04468,4.49646c-1.23972,0.25071 -2.30183,-0.95821 -2.66398,-1.96998z" data-paper-data="{&quot;index&quot;:null}" fill="#fec267" stroke="none" stroke-width="0" stroke-linecap="butt"/><g data-paper-data="{&quot;index&quot;:null}"><g fill="#033397" stroke-width="0"><path d="M235.73142,173.51129c-0.26428,-2.9232 1.89119,-5.50717 4.8144,-5.77145c2.9232,-0.26428 5.50716,1.8912 5.77144,4.81441c0.26428,2.9232 -1.89119,5.50716 -4.8144,5.77144c-2.9232,0.26428 -5.50716,-1.89119 -5.77144,-4.8144z" stroke="none" stroke-linecap="butt"/><path d="M235.57044,172.70813c0,0 -0.04108,-7.17759 8.57766,-9.14512c5.92304,-1.37959 10.08019,2.40825 10.08019,2.40825c0,0 -1.5717,0.01706 -2.85766,0.5053c-1.05879,0.40199 -2.20106,1.44984 -2.20106,1.44984c0,0 2.78788,0.92474 4.55277,3.85109c2.0485,3.3966 1.80799,6.46632 1.80799,6.46632c0,0 -1.8972,-1.89123 -3.34681,-2.70793c-0.8717,-0.49111 -2.66301,-0.80857 -2.66301,-0.80857c0,0 1.29369,1.80432 1.59117,4.08534c0.3511,2.69204 -0.51327,4.28112 -0.51327,4.28112c0,0 -1.51317,-2.96188 -3.21985,-4.24743c-1.70668,-1.28553 -3.89384,-1.1109 -3.89384,-1.1109" stroke="#000000" stroke-linecap="round"/></g><path d="M240.89786,167.79424c0,0 1.51564,-1.4909 2.62634,-2.30675c1.11072,-0.81585 1.26871,-0.86222 1.54079,-0.72576c0.26474,0.13278 0.31009,1.36253 0.38206,2.26599c0.07197,0.90346 -0.04557,1.95787 -0.04557,1.95787" fill="#033397" stroke="#000000" stroke-width="0.125" stroke-linecap="round"/><path d="M235.85107,171.89158c0,0 -0.98562,-1.47569 -1.31822,-2.23166c-0.29063,-0.66056 -0.85886,-1.98794 -0.56852,-2.05666c0.24229,-0.05735 1.23772,0.28316 1.77144,0.35077c0.58153,0.07368 1.58662,0.07467 1.58662,0.07467" fill="#033397" stroke="#000000" stroke-width="0" stroke-linecap="round"/><path d="M235.75106,171.7674c0,0 0.45844,1.31494 0.83415,2.12128c0.37571,0.80634 0.38081,0.83377 0.71848,1.3095c0.10756,0.15157 0.2431,-0.02945 0.2431,-0.02945c0,0 0.45011,0.50696 0.66664,0.23552c0.75775,-0.48885 0.81287,-2.42445 1.50945,-3.56362c0.70455,-1.15225 1.50726,-1.35225 1.87769,-1.43094c0.31857,-0.06767 1.0471,0.01846 1.52342,0.75071c0.34068,0.62872 0.56786,2.08759 0.20151,2.95917c-0.36635,0.87158 -0.90923,1.86372 -2.11225,2.23455c-1.20301,0.37085 -2.42796,-0.86878 -3.51673,-0.50394c-0.13424,0.04497 -0.81534,0.66336 -0.81534,0.66336c0,0 -0.87643,-1.47032 -1.12568,-2.51716c-0.24927,-1.04685 -0.0044,-2.229 -0.0044,-2.229z" fill="#fdfdfd" stroke="#000000" stroke-width="0" stroke-linecap="butt"/><path d="M236.95427,176.66551c-0.01199,-0.24274 0.19978,-0.77155 1.04288,-0.92536c0.6527,-0.12907 1.71033,0.55724 2.68151,0.50884c1.4592,-0.07273 1.76934,-1.90823 3.45643,-1.58668c1.35678,0.23683 0.97505,3.22238 -2.87753,3.67108c-0.92227,0.05906 -2.22259,-0.20528 -2.99103,-0.53632c-0.93572,-0.40309 -1.29283,-0.73859 -1.31226,-1.13158z" fill="#fec267" stroke="#000000" stroke-width="0" stroke-linecap="butt"/><path d="M235.50082,172.97437c0,0 -0.62214,-1.96918 -0.5183,-2.3006c0.15855,-0.5061 0.9651,-0.01789 0.9651,-0.01789" fill="#033397" stroke="#000000" stroke-width="0.125" stroke-linecap="round"/><path d="M235.59693,175.74569c0.03517,-0.14036 0.6632,0.09393 1.13836,0.20598c0.47515,0.11205 1.13117,0.12649 1.15221,0.35918c0.03489,0.38586 -0.70792,0.4304 -1.24307,0.34405c-0.84744,-0.13675 -1.1628,-0.44899 -1.04749,-0.90919z" fill="#0d1114" stroke="none" stroke-width="0" stroke-linecap="butt"/><path d="M236.60718,175.91334c0.2328,0.02199 0.41559,0.10272 0.40826,0.18033c-0.00733,0.0776 -0.20201,0.1227 -0.4348,0.1007c-0.2328,-0.02199 -0.41559,-0.10272 -0.40826,-0.18033c0.00733,-0.0776 0.20201,-0.1227 0.4348,-0.1007z" fill="#fdfdfd" stroke="none" stroke-width="0" stroke-linecap="butt"/><path d="M241.95915,167.64864c0,0 1.87729,-1.86132 2.58201,-1.74503c0.49114,0.08105 0.18587,3.10087 0.18587,3.10087c0,0 -0.12696,-0.42218 -1.22412,-0.85929c-1.00304,-0.3996 -1.54375,-0.49655 -1.54375,-0.49655z" fill="#fec267" stroke="none" stroke-width="0" stroke-linecap="butt"/><g stroke="none" stroke-width="0" stroke-linecap="butt"><path d="M239.76142,172.55648c0.30451,-0.07616 0.56238,0.50345 0.74941,1.25124c0.18704,0.74777 0.23242,1.38053 -0.0721,1.45671c-0.27408,0.06854 -0.56238,-0.50344 -0.74941,-1.25123c-0.18704,-0.74777 -0.202,-1.38815 0.0721,-1.45671z" fill="#005c2d"/><path d="M239.95172,173.31713c0.10922,-0.02732 0.2591,0.19573 0.33475,0.49821c0.07565,0.30248 0.04843,0.56982 -0.06079,0.59714c-0.10922,0.02732 -0.2591,-0.19573 -0.33475,-0.4982c-0.07565,-0.30248 -0.04843,-0.56983 0.06079,-0.59714z" fill="#000000"/><path d="M239.89842,173.10416c0.10922,-0.02731 0.23356,0.09357 0.27769,0.27002c0.04412,0.17642 -0.00865,0.34161 -0.11787,0.36895c-0.10922,0.02731 -0.23356,-0.09357 -0.27768,-0.27002c-0.04412,-0.17642 0.00864,-0.34161 0.11787,-0.36895z" fill="#ffffff"/></g><g stroke="none" stroke-width="0" stroke-linecap="butt"><path d="M236.10626,173.86016c0.1976,-0.08194 0.42965,0.28285 0.63085,0.76807c0.2012,0.48523 0.29536,0.90717 0.09777,0.9891c-0.17784,0.07374 -0.42965,-0.28285 -0.63085,-0.76807c-0.2012,-0.48523 -0.27562,-0.91537 -0.09777,-0.9891z" fill="#005c2d"/><path d="M236.31093,174.35375c0.07088,-0.02939 0.19431,0.1059 0.2757,0.30218c0.08138,0.19627 0.08991,0.37921 0.01903,0.40859c-0.07088,0.02939 -0.19431,-0.1059 -0.2757,-0.30218c-0.08138,-0.19627 -0.08991,-0.37921 -0.01903,-0.40859z" fill="#000000"/><path d="M236.25365,174.21555c0.07088,-0.02939 0.16681,0.0396 0.2143,0.1541c0.04748,0.11449 0.02851,0.23114 -0.04237,0.26053c-0.07088,0.02939 -0.16681,-0.0396 -0.2143,-0.15409c-0.04748,-0.11449 -0.02851,-0.23114 0.04237,-0.26053z" fill="#ffffff"/></g><path d="M242.76617,177.13487c-0.5027,0.16889 -1.50873,0.23576 -1.50873,0.23576c0,0 0.8373,-0.18987 1.28187,-0.33923c0.44457,-0.14936 0.9635,-0.66599 0.9635,-0.66599c0,0 -0.23395,0.60058 -0.73664,0.76946z" fill="#000000" stroke="#000000" stroke-width="0" stroke-linecap="butt"/><path d="M236.97805,172.84133c0.18569,-0.01678 0.55592,1.27517 0.6088,1.86007c0.05288,0.5849 -0.25852,0.51485 -0.25852,0.51485c0,0 -0.29592,-0.41055 -0.44484,-0.68188c-0.14891,-0.27131 -0.32618,-0.72286 -0.32618,-0.72286c0,0 0.23504,-0.95338 0.42072,-0.97017z" fill="#033397" stroke="none" stroke-width="0" stroke-linecap="butt"/></g><path d="M242.42195,178.56653c0.52445,-0.07704 3.09285,0.09697 3.09285,0.09697l0.83685,3.88822l-1.01707,0.1075l-0.70626,-3.00271l-1.99018,-0.02025c0,0 -0.70159,0.064 -0.59289,-0.48847c0.1087,-0.55247 -0.14771,-0.50421 0.37673,-0.58125z" data-paper-data="{&quot;index&quot;:null}" fill="#fec267" stroke="none" stroke-width="0" stroke-linecap="butt"/><g data-paper-data="{&quot;index&quot;:null}" fill="#fdfdfd" stroke="none" stroke-width="0" stroke-linecap="butt"><g><path d="M243.93602,186.7162c-0.10728,-0.53728 0.29565,-1.176 0.52896,-1.98017c0.17408,-0.59999 0.85577,-0.95258 1.32914,-1.0471c1.01064,-0.2018 2.10219,-0.12366 2.30399,0.88697c0.06659,0.33349 0.26445,1.01044 0.45792,1.65019c0.19088,0.63111 0.20143,1.10776 -0.13178,1.20629c-0.42811,0.12661 -0.55885,-0.17947 -0.55885,-0.17947c0,0 -0.10956,0.39166 -0.31584,0.447c-0.20631,0.05534 -0.60808,-0.19974 -0.60808,-0.19974c0,0 -0.16894,0.33546 -0.41821,0.40539c-0.24928,0.06993 -0.48019,-0.15177 -0.48019,-0.15177c0,0 -0.09715,0.34544 -0.41581,0.41335c-0.31867,0.06793 -0.46983,-0.29273 -0.46983,-0.29273c0,0 0.04783,0.29109 -0.1566,0.34494c-0.20443,0.05386 -0.04853,0.00992 -0.17295,-0.02166c-0.10248,-0.026 -0.83544,-1.1987 -0.8919,-1.48147z"/></g><path d="M246.12022,183.96954c-0.36567,0.045 -1.60112,0.23968 -1.66759,-0.04928c-0.04121,-0.28213 0.22706,-0.61085 0.22706,-0.61085c0,0 -0.42792,-0.10372 -0.42642,-0.3793c0.00194,-0.35754 0.91742,-0.69461 1.42712,-0.78771c0.5097,-0.0931 1.11739,-0.05112 1.33485,0.16249c0.54816,0.53839 0.09265,0.63936 0.09265,0.63936c0,0 0.48335,-0.07357 0.49438,0.58074c0.00544,0.32242 -1.07106,0.394 -1.48203,0.44459z"/></g></g></g></svg>