<svg version="1.1" xmlns="http://www.w3.org/2000/svg" xmlns:xlink="http://www.w3.org/1999/xlink" width="7.51729" height="7.92943" viewBox="0,0,7.51729,7.92943"><defs><radialGradient cx="240.04901" cy="180.25508" r="3.70963" gradientUnits="userSpaceOnUse" id="color-1"><stop offset="0" stop-color="#5ed161" stop-opacity="0"/><stop offset="1" stop-color="#5ed161"/></radialGradient></defs><g transform="translate(-236.24136,-176.03529)"><g data-paper-data="{&quot;isPaintingLayer&quot;:true}" fill-rule="nonzero" stroke="none" stroke-miterlimit="10" stroke-dasharray="" stroke-dashoffset="0" style="mix-blend-mode: normal"><path d="M241.2156,180c0,0.84706 -0.54424,1.53375 -1.2156,1.53375c-0.67136,0 -1.2156,-0.68668 -1.2156,-1.53375c0,-0.84706 0.54424,-1.53375 1.2156,-1.53375c0.67136,0 1.2156,0.68668 1.2156,1.53375z" fill-opacity="0.74902" fill="#6161a4" stroke-width="0" stroke-linecap="butt" stroke-linejoin="miter"/><path d="M240.04901,183.96471c-2.04877,0 -3.70963,-1.66085 -3.70963,-3.70963c0,-2.04877 1.66085,-3.70964 3.70963,-3.70964c2.04877,0 3.70964,1.66087 3.70964,3.70964c0,2.04877 -1.66085,3.70964 -3.70963,3.70964z" data-paper-data="{&quot;index&quot;:null}" fill="url(#color-1)" stroke-width="0" stroke-linecap="butt" stroke-linejoin="miter"/><path d="" fill="#000000" stroke-width="1" stroke-linecap="round" stroke-linejoin="round"/><path d="" fill="#ee1a40" stroke-width="1" stroke-linecap="round" stroke-linejoin="round"/><path d="M239.62849,176.51298c0,0 -0.8833,0.09969 -1.21817,0.33441c-0.15749,0.11039 -1.15622,0.64559 -1.14121,0.54049c0.17246,-1.20691 1.35617,-1.20929 1.35617,-1.20929c0,0 0.04488,-0.1433 0.45383,-0.1433c0.40895,0 0.54938,0.47771 0.54938,0.47771z" data-paper-data="{&quot;index&quot;:null}" fill="#dceef3" stroke-width="0" stroke-linecap="butt" stroke-linejoin="miter"/><path d="M241.49155,176.84737c0,0.13193 -0.56468,0.04777 -0.90766,0.04777c-0.34297,0 -0.71656,-0.38217 -0.71656,-0.38217c0,0 -0.03276,-0.36553 0.32705,-0.34542c0.5473,0.03061 1.29719,0.54791 1.29719,0.67982z" data-paper-data="{&quot;index&quot;:null}" fill="#dceef3" stroke-width="0" stroke-linecap="butt" stroke-linejoin="miter"/><path d="M240.82277,176.91905c0,0.27703 -0.5397,0.40605 -1.14649,0.40605c-0.60681,0 -1.09874,-0.12903 -1.09874,-0.40605c0,-0.27703 0.49192,-0.45382 1.09874,-0.45382c0.60681,0 1.14649,0.17679 1.14649,0.45382z" data-paper-data="{&quot;index&quot;:null}" fill="#e8d548" stroke-width="0" stroke-linecap="butt" stroke-linejoin="miter"/><path d="M243.45021,178.68659c0,0 -1.08763,-1.40668 -1.81468,-1.73101c-0.28361,-0.12652 -1.20112,0.32685 -1.00382,0.01125c0.03307,-0.05292 0.65082,-0.51628 1.00494,-0.47904c0.57712,0.00388 0.81036,0.26406 0.81036,0.26406c0,0 0.48417,-0.09856 0.87429,0.36995c0.48673,0.58457 0.1289,1.56477 0.1289,1.56477z" data-paper-data="{&quot;index&quot;:null}" fill="#dceef3" stroke-width="0" stroke-linecap="butt" stroke-linejoin="miter"/><path d="M237.96125,177.94978c-0.66269,0.70731 -1.199,0.66514 -1.199,0.66514c0,0 -0.16518,-0.20232 -0.30999,-0.51465c-0.10088,-0.21762 -0.19189,-0.51321 -0.21028,-0.72776c-0.02012,-0.23472 0.44987,-0.54564 0.72866,-0.61743c0.34182,-0.08802 0.50815,0.0923 0.50815,0.0923c0,0 0.52524,-0.25082 0.78314,-0.2232c0.25791,0.02765 0.71982,0.43266 0.71982,0.43266c0,0 -0.43526,0.05542 -0.64156,0.30375c-0.10836,0.13045 -0.23742,0.43811 -0.37897,0.5892z" data-paper-data="{&quot;index&quot;:null}" fill="#dceef3" stroke-width="0" stroke-linecap="butt" stroke-linejoin="miter"/><path d="M241.68239,178.55639c0,0.33639 -0.21029,0.89573 -0.76435,0.89573c-0.55406,0 -1.00818,-0.24805 -1.38536,-0.70463c-0.06052,-0.07327 0.00113,-0.38616 -0.06746,-0.66835c-0.07634,-0.31396 -0.24532,-0.6641 -0.15618,-0.81709c0.17116,-0.17348 0.988,-0.00188 0.988,-0.00188c0,0 0.27322,-0.41928 0.539,-0.1235c0.3816,0.42468 0.84637,1.22145 0.84637,1.41975z" data-paper-data="{&quot;index&quot;:null}" fill="#dceef3" stroke-width="0" stroke-linecap="butt" stroke-linejoin="miter"/></g></g></svg>