<svg version="1.1" xmlns="http://www.w3.org/2000/svg" xmlns:xlink="http://www.w3.org/1999/xlink" width="21.52617" height="40.32944" viewBox="0,0,21.52617,40.32944"><g transform="translate(-228.12545,-159.17156)"><g data-paper-data="{&quot;isPaintingLayer&quot;:true}" fill-rule="nonzero" stroke-linejoin="miter" stroke-miterlimit="10" stroke-dasharray="" stroke-dashoffset="0" style="mix-blend-mode: normal"><g data-paper-data="{&quot;index&quot;:null}"><g data-paper-data="{&quot;index&quot;:null}" stroke="none" stroke-width="0" stroke-linecap="butt"><path d="M236.67194,199.07653c-1.12891,0.59227 -0.8024,-2.77934 -0.60936,-3.78574c0.08035,-1.18876 1.10677,-3.20038 1.10677,-3.20038c0,0 0.62627,-1.42993 0.97978,-0.48966c0.16456,0.43772 0.35296,0.85216 0.48725,1.2757c0.15418,0.48631 0.23701,0.9846 0.13046,1.54383c0,0 -0.54954,3.84552 -2.0949,4.65627z" data-paper-data="{&quot;index&quot;:null}" fill="#54c81c"/><path d="M237.41043,189.04511l0.70373,-5.57696l1.46633,0.05432c0,0 -0.26076,3.6128 -0.77955,5.59049c-0.18368,0.62141 -0.66659,4.76687 -0.66659,4.76687c0,0 -0.39701,2.31616 -0.76712,2.83278c-0.47082,0.65716 -0.93874,-0.48138 -0.93299,-0.84147c0,0 0.28726,-1.33909 0.4329,-2.18236c0.21528,-1.24657 0.5433,-4.64365 0.5433,-4.64365z" data-paper-data="{&quot;index&quot;:null}" fill="#ffffff"/></g><path d="M237.30999,196.41208l0.30112,0.40549" fill="none" stroke="#000000" stroke-width="0.5" stroke-linecap="round"/><path d="M237.89858,195.84918l-0.23046,-0.39505" fill="none" stroke="#000000" stroke-width="0.5" stroke-linecap="round"/></g><g data-paper-data="{&quot;index&quot;:null}"><g data-paper-data="{&quot;index&quot;:null}" stroke="none" stroke-width="0" stroke-linecap="butt"><path d="M242.84478,199.43128c-1.54389,-0.81357 -2.0864,-4.66008 -2.0864,-4.66008c-0.10553,-0.55943 -0.02178,-1.05759 0.13329,-1.5436c0.13508,-0.42328 0.32422,-0.83738 0.48958,-1.27479c0.35523,-0.93964 0.9789,0.49144 0.9789,0.49144c0,0 1.02273,2.0135 1.1009,3.20239c0.19119,1.00675 0.51156,4.37898 -0.61628,3.78463z" data-paper-data="{&quot;index&quot;:null}" fill="#54c81c"/><path d="M242.18712,189.39853c0,0 0.32181,3.3977 0.53481,4.64463c0.14409,0.84352 0.42891,2.18316 0.42891,2.18316c0.0051,0.3601 -0.46491,1.49779 -0.93451,0.83976c-0.36916,-0.5173 -0.76195,-2.83418 -0.76195,-2.83418c0,0 -0.47534,-4.14632 -0.6579,-4.76806c-0.51516,-1.97861 -0.76934,-5.59191 -0.76934,-5.59191l1.46642,-0.05164l0.69354,5.57823z" data-paper-data="{&quot;index&quot;:null}" fill="#ffffff"/></g><path d="M241.36473,196.04705l0.37254,-0.41526" fill="none" stroke="#000000" stroke-width="0.5" stroke-linecap="round"/><path d="M242.09362,196.59039l-0.30186,0.40494" fill="none" stroke="#000000" stroke-width="0.5" stroke-linecap="round"/></g><g data-paper-data="{&quot;index&quot;:null}"><g><path d="M239.02521,168.5279c3.65333,-0.9319 4.664,2.16807 4.77023,2.41381c0.2174,0.59218 0.27447,1.23765 0.22609,1.86376c-0.07275,1.04539 -0.48224,2.09493 -1.25859,2.81719c-0.40601,0.28971 -0.34092,0.2626 -0.72798,0.56781c-0.53479,0.57822 -1.43255,0.89599 -2.16303,1.0678c-0.58523,0.17075 -1.19367,0.2446 -1.80343,0.23434c-0.39401,-0.02083 -0.81689,0.0259 -1.18184,-0.15183c-0.33731,-0.171 -0.64752,-0.44588 -0.74978,-0.82229c-0.29901,-0.90109 -0.60684,-1.80087 -0.82338,-2.72564c-0.04602,-0.25663 -0.13639,-0.5276 -0.07131,-0.78804c0.12783,-0.23278 -0.6242,-3.35274 3.78301,-4.47694z" data-paper-data="{&quot;index&quot;:null}" fill="#f0e9bb" stroke="none" stroke-width="0.17188" stroke-linecap="butt"/><path d="M242.38576,166.73852c0.86572,-0.34437 1.5453,-0.36125 1.99142,-0.17667c0.06352,0.02609 0.04347,0.07427 0.12415,0.12188c0.09765,0.05769 0.34138,0.12294 0.29357,0.10385c0,0 -0.04028,0.17428 -0.01534,0.24589c0.03177,0.09101 0.17568,0.1709 0.08129,0.1698c0,0 0.09232,0.12259 0.09228,0.17514c-0.00017,0.57383 -0.27115,1.38042 -0.76547,1.88139c0.42754,0.39831 -2.23909,-1.97177 -1.80186,-2.52126z" data-paper-data="{&quot;index&quot;:null}" fill="#ed3e67" stroke="none" stroke-width="0.17188" stroke-linecap="butt"/><path d="M235.37053,172.83912l0.41954,2.35514l0.68054,1.81598l0.5846,1.25997c0.06894,0.14807 -1.87475,-0.67391 -2.3208,-1.02413c-0.552,-0.43327 -0.96529,-0.95359 -1.37622,-1.47544c-0.29964,-0.38022 -0.35866,-0.55155 -0.49643,-0.84728l-0.4275,-0.9182c-0.08124,-0.17445 -0.39797,-1.08521 -0.25702,-1.28917c0.04,-0.05786 0.79805,0.25188 0.87145,0.2321l0.53537,-0.14595c0.15888,-0.04315 0.55331,-0.49999 0.66442,-0.64582c0.08124,-0.10644 0.48846,-0.87454 0.39782,-1.50562l-0.0897,-0.62426c-0.01342,-0.09348 -0.47684,-0.99578 -0.44445,-1.02188c0.06664,-0.05405 -1.02608,-0.86739 -0.95773,-0.92785c0.38012,-0.33712 0.83734,-0.76145 1.39968,-1.03653c0.88405,-0.43247 1.91365,-0.65169 2.43927,-0.77243c0.08963,-0.02059 1.2369,-0.26029 1.9734,-0.1966c1.16623,0.10078 1.94077,0.64455 1.99176,0.67234c0.80071,0.43602 1.45734,1.01095 1.98918,1.70621l0.34624,0.61332c0.17726,0.31392 0.91772,1.85497 1.22211,3.13124c0.6406,2.68593 -0.41818,4.83814 -0.65598,4.78292c-0.33316,-0.07705 -1.16957,-1.51218 -1.23575,-1.3457c-0.1468,0.36879 1.05241,-1.11135 1.20875,-2.06133c0.15633,-0.95 -0.42353,-2.9396 -0.47443,-3.10007c-0.04009,-0.12691 -0.14429,-0.21279 -0.26574,-0.14781c-0.08087,0.04318 -1.03262,0.46968 -1.34787,0.80161c-0.31525,0.33194 -0.84499,1.62152 -0.88985,1.5601c-0.01664,-0.0229 -0.43254,-0.18728 -0.42952,-0.22844c0.01859,-0.249 -0.42668,0.42375 -0.48017,0.52439c-0.14069,0.26464 -0.9837,-0.9473 -1.93863,-1.12004c-0.95495,-0.17277 -1.87283,0.07322 -2.01882,0.29409c-0.05814,0.08799 -0.25485,0.27711 -0.35625,0.37425c-0.13497,0.12911 -0.23,0.20923 -0.26124,0.31086z" data-paper-data="{&quot;index&quot;:null}" fill="#54c81c" stroke="none" stroke-width="0.17188" stroke-linecap="butt"/><path d="M231.06604,172.26871c-0.63702,-0.05773 -1.31421,-0.46774 -1.6682,-0.87609c-0.03248,-0.03735 -0.04671,-0.18044 -0.04671,-0.18044c-0.06203,0.05787 -0.01552,-0.08613 -0.0506,-0.17002c-0.02754,-0.06594 -0.16185,-0.16565 -0.16185,-0.16565c-0.01994,0.04255 0.10161,-0.15121 0.13101,-0.25123c0.02417,-0.08274 -0.01892,-0.10488 0.00713,-0.16208c0.18249,-0.40076 0.64405,-0.79949 1.43107,-1.07797c1.02977,-0.36416 2.14559,0.18435 2.23797,0.56338c0,0 -0.79193,2.41851 -1.87978,2.32009z" data-paper-data="{&quot;index&quot;:null}" fill="#ed3e67" stroke="none" stroke-width="0.17188" stroke-linecap="butt"/><path d="M233.88322,170.43685c0.11989,-0.13619 0.04394,1.40839 -0.27874,1.70001c-0.55497,0.50144 -0.42139,0.7385 -1.00801,0.70523c-0.1317,-0.00727 -0.42728,-0.16433 -0.81155,-0.22345c-0.44513,-0.06826 -0.85982,-0.21293 -0.74267,-0.31497l0.69135,-0.66923l0.87161,-1.62047c0.01355,-0.02519 -0.28063,-0.17122 -0.72575,-0.347c-0.3121,-0.12333 -0.76494,-0.24955 -1.10461,-0.29373c-0.20015,-0.02596 0.11439,-0.3272 0.59923,-0.60319c0.23502,-0.13383 0.48006,-0.29472 0.78361,-0.3508c0.52575,-0.09697 1.0498,0.40489 1.33536,0.97352c0.26748,0.53249 0.31029,1.13449 0.39017,1.04406z" data-paper-data="{&quot;index&quot;:null}" fill="#54c81c" stroke="none" stroke-width="0.17188" stroke-linecap="butt"/><path d="M234.62313,170.21905c0.31361,1.17401 -0.59836,2.50268 -0.98212,2.56789l-0.56658,0.25336l-0.9614,-0.29662c-0.24616,-0.07604 1.18727,-0.21031 1.43394,-0.66218c0.16104,-0.29479 0.27624,-0.52025 0.28386,-0.62328c0.07121,-0.98217 -0.14209,-1.71916 -0.44094,-2.16043c-0.46958,-0.69338 -1.09811,-0.79918 -0.77084,-1.06551c0.78028,-0.63529 1.66127,0.70374 2.00407,1.98675z" data-paper-data="{&quot;index&quot;:null}" fill="#ead32e" stroke="none" stroke-width="0.17188" stroke-linecap="butt"/><path d="M242.23226,167.6923c0,0 -0.35568,-0.2736 -0.61229,-0.48889c-0.53533,-0.44911 -1.22135,-0.6305 -1.14254,-0.81215c0.08168,-0.08562 0.61059,-0.07628 0.77743,0.01823l0.33889,0.19177c0.59591,0.33739 0.94905,0.9527 1.00729,1.22573c0.0252,0.11809 0.2014,0.30193 0.19097,0.44271c0,0 -0.41729,-0.32891 -0.55976,-0.5774z" data-paper-data="{&quot;index&quot;:null}" fill="#ead32e" stroke="none" stroke-width="0.17188" stroke-linecap="butt"/><path d="M241.55515,166.48758c0,0 1.03909,-0.28744 1.2974,-0.04361c0.17169,0.16187 0.11416,0.66756 0.29494,0.77816c0.22444,0.13734 0.60327,0.5193 0.82685,0.81371c0.11642,0.29062 0.29481,0.55256 0.24768,0.91991c0.12469,0.28356 -0.47989,1.00818 -0.5304,0.91752l-0.6867,-1.23215c-0.17422,-0.31265 -0.54981,-0.94093 -0.64163,-1.06457z" data-paper-data="{&quot;index&quot;:null}" fill="#54c81c" stroke="none" stroke-width="0.17188" stroke-linecap="butt"/><path d="M235.90532,172.86359c0.25689,-0.70048 1.26169,-0.97176 1.83148,-0.72925c0.5698,0.2425 0.82348,1.00694 0.56659,1.70742c-0.25688,0.70048 -0.92704,1.07173 -1.49683,0.82922c-0.56979,-0.24251 -1.15811,-1.10692 -0.90122,-1.8074z" fill="#000000" stroke="none" stroke-width="0" stroke-linecap="butt"/><path d="M243.48736,171.06482c0.55037,0.50372 0.51507,1.55924 0.12075,2.03673c-0.39431,0.47749 -1.16015,0.45622 -1.71052,-0.04751c-0.55037,-0.50373 -0.67687,-1.29916 -0.28255,-1.77665c0.39431,-0.47748 1.32196,-0.71629 1.87233,-0.21256z" data-paper-data="{&quot;index&quot;:null}" fill="#000000" stroke="none" stroke-width="0" stroke-linecap="butt"/><path d="M238.78991,176.62126l-0.55524,-0.26361" fill="none" stroke="#000000" stroke-width="0.25" stroke-linecap="round"/><path d="M239.35187,176.69654l0.59872,-0.07731" fill="none" stroke="#000000" stroke-width="0.25" stroke-linecap="round"/><path d="M241.13227,176.39986l-0.58295,0.14207" fill="none" stroke="#000000" stroke-width="0.25" stroke-linecap="round"/><path d="M242.10544,175.8882l-0.48659,0.25583" fill="none" stroke="#000000" stroke-width="0.25" stroke-linecap="round"/><path d="M242.67585,175.13161l-0.26072,0.33802" fill="none" stroke="#000000" stroke-width="0.25" stroke-linecap="round"/><path d="M238.1384,175.46023l-0.19735,0.49723l-0.43176,-0.07701" fill="none" stroke="#000000" stroke-width="0.25" stroke-linecap="round"/><path d="M243.18762,174.59008l-0.39933,0.18132l-0.3141,-0.43303" data-paper-data="{&quot;index&quot;:null}" fill="none" stroke="#000000" stroke-width="0.25" stroke-linecap="round"/><path d="M237.77357,173.8063l-1.3004,-0.80906" fill="none" stroke="#ffffff" stroke-width="0.25" stroke-linecap="round"/><path d="M236.78067,174.12652l0.61719,-1.45587" fill="none" stroke="#ffffff" stroke-width="0.25" stroke-linecap="round"/><path d="M235.99895,172.91865c0.01931,-0.20715 0.20288,-0.35944 0.41004,-0.34014c0.20715,0.01931 0.35944,0.20288 0.34014,0.41004c-0.01931,0.20715 -0.20288,0.35944 -0.41004,0.34014c-0.20715,-0.01931 -0.35944,-0.20288 -0.34014,-0.41004z" fill="#ffffff" stroke="none" stroke-width="0" stroke-linecap="butt"/><path d="M237.50395,173.74677c0.01931,-0.20715 0.20289,-0.35944 0.41004,-0.34014c0.20715,0.01931 0.35944,0.20288 0.34014,0.41004c-0.01931,0.20715 -0.20288,0.35944 -0.41004,0.34014c-0.20715,-0.01931 -0.35944,-0.20289 -0.34014,-0.41004z" fill="#ffffff" stroke="none" stroke-width="0" stroke-linecap="butt"/><path d="M237.07275,172.46839c0.01931,-0.20715 0.20289,-0.35944 0.41005,-0.34014c0.20715,0.01931 0.35944,0.20288 0.34014,0.41004c-0.01931,0.20715 -0.20288,0.35944 -0.41004,0.34014c-0.20715,-0.01931 -0.35945,-0.20289 -0.34015,-0.41004z" fill="#ffffff" stroke="none" stroke-width="0" stroke-linecap="butt"/><path d="M236.43651,174.12885c0.01931,-0.20715 0.20289,-0.35944 0.41004,-0.34014c0.20715,0.01931 0.35944,0.20288 0.34014,0.41004c-0.01931,0.20715 -0.20288,0.35944 -0.41004,0.34014c-0.20715,-0.01931 -0.35944,-0.20289 -0.34014,-0.41004z" fill="#ffffff" stroke="none" stroke-width="0" stroke-linecap="butt"/><path d="M241.99024,171.72233l1.3004,0.80906" fill="none" stroke="#ffffff" stroke-width="0.25" stroke-linecap="round"/><path d="M242.29775,172.85162l0.61719,-1.45587" fill="none" stroke="#ffffff" stroke-width="0.25" stroke-linecap="round"/><path d="M241.51602,171.64373c0.01931,-0.20715 0.20288,-0.35944 0.41004,-0.34014c0.20715,0.01931 0.35944,0.20288 0.34014,0.41004c-0.01931,0.20715 -0.20288,0.35944 -0.41004,0.34014c-0.20715,-0.01931 -0.35944,-0.20288 -0.34014,-0.41004z" fill="#ffffff" stroke="none" stroke-width="0" stroke-linecap="butt"/><path d="M243.02103,172.47186c0.01931,-0.20715 0.20289,-0.35944 0.41004,-0.34014c0.20715,0.01931 0.35944,0.20288 0.34014,0.41004c-0.01931,0.20715 -0.20288,0.35944 -0.41004,0.34014c-0.20715,-0.01931 -0.35944,-0.20289 -0.34014,-0.41004z" fill="#ffffff" stroke="none" stroke-width="0" stroke-linecap="butt"/><path d="M242.58982,171.19348c0.01931,-0.20715 0.20289,-0.35944 0.41005,-0.34014c0.20715,0.01931 0.35944,0.20288 0.34014,0.41004c-0.01931,0.20715 -0.20288,0.35944 -0.41004,0.34014c-0.20715,-0.01931 -0.35945,-0.20289 -0.34015,-0.41004z" fill="#ffffff" stroke="none" stroke-width="0" stroke-linecap="butt"/><path d="M241.95358,172.85394c0.01931,-0.20715 0.20289,-0.35944 0.41004,-0.34014c0.20715,0.01931 0.35944,0.20288 0.34014,0.41004c-0.01931,0.20715 -0.20288,0.35944 -0.41004,0.34014c-0.20715,-0.01931 -0.35944,-0.20289 -0.34014,-0.41004z" fill="#ffffff" stroke="none" stroke-width="0" stroke-linecap="butt"/></g><g><path d="M237.52999,167.70831c0,0 -0.21356,-2.1156 0.09415,-3.41144c0.3077,-1.29582 1.74097,-2.31935 1.74097,-2.31935l0.35362,0.66374c0,0 -1.08116,0.57916 -1.37007,1.81183c-0.2889,1.23267 -0.15262,3.1582 -0.15262,3.1582z" fill="#000000" stroke="none" stroke-width="0" stroke-linecap="butt"/><path d="M238.7803,162.52454l1.9497,-3.11307l4.51335,0.52878l-3.04167,3.00384z" fill="#ea035a" stroke="none" stroke-width="0" stroke-linecap="butt"/><path d="M238.94751,162.54226l6.16565,-2.65373" fill="none" stroke="#000000" stroke-width="0.25" stroke-linecap="round"/><path d="M242.22854,162.93763l-1.87298,-1.07124l0.32912,-2.56983" fill="none" stroke="#000000" stroke-width="0.25" stroke-linecap="round"/></g></g><g data-paper-data="{&quot;index&quot;:null}"><g data-paper-data="{&quot;index&quot;:null}" stroke="none" stroke-width="0" stroke-linecap="butt"><path d="M242.44673,182.37056c0,0 5.63372,0.63278 5.80901,0.56685c0.1753,-0.06594 0.37352,0.36847 0.56633,0.82812c0.19281,0.45965 0.82955,2.11729 0.82955,2.11729c0,0 -0.72546,-0.79214 -1.72579,-1.12588c-0.59203,-0.19754 -1.51188,-0.57033 -2.32137,-0.85244c-1.46859,-0.51179 -3.15773,-1.53393 -3.15773,-1.53393z" fill="#54c81c"/><path d="M243.58753,182.88689c-4.10844,-1.60015 -4.47249,-3.58359 -4.47249,-3.58359c0,0 -0.24925,-0.01443 1.15641,0.57475c0.48345,0.20264 1.70903,-0.63409 4.25336,0.13066c3.25535,0.97845 4.05972,3.19732 4.05972,3.19732c0,0 -2.03985,0.83261 -4.99699,-0.31914z" fill="#ffffff"/></g><path d="M246.60224,183.2335l0.50092,0.49473" fill="none" stroke="#ffffff" stroke-width="0.25" stroke-linecap="round"/><path d="M247.81872,183.2335l0.3578,0.49473" fill="none" stroke="#ffffff" stroke-width="0.25" stroke-linecap="round"/></g><g data-paper-data="{&quot;index&quot;:null}"><g data-paper-data="{&quot;index&quot;:null}" stroke="none" stroke-width="0" stroke-linecap="butt"><path d="M246.11224,190.40594c0,0 -1.1638,-1.36543 -2.09051,-2.10349c-0.9267,-0.73805 -3.65049,-2.05978 -3.65049,-2.05978l4.60496,-2.85212c0,0 1.25051,1.66625 1.64754,2.9797c0.5252,1.73743 -0.5115,4.03569 -0.5115,4.03569z" fill="#54c81c"/><path d="M245.43844,187.23145c-1.13682,1.0007 -5.73487,-0.84187 -7.11536,-2.42439c-1.47563,-1.6916 -0.7932,-5.02295 -0.7932,-5.02295l0.88573,-0.31463c0,0 0.52192,1.10372 2.54129,1.56846c2.96084,0.68142 3.45294,1.80037 4.0193,2.35262c0.57065,0.55644 1.76987,2.9249 0.58725,3.96589z" fill="#ffffff"/></g><path d="M243.47748,187.06502l0.63104,0.72346" fill="none" stroke="#ffffff" stroke-width="0.25" stroke-linecap="round"/><path d="M245.43913,187.583l-0.55712,-0.72346" fill="none" stroke="#ffffff" stroke-width="0.25" stroke-linecap="round"/><path d="M245.47338,185.90064l0.71637,0.85446" fill="none" stroke="#ffffff" stroke-width="0.25" stroke-linecap="round"/></g><g data-paper-data="{&quot;index&quot;:null}"><g data-paper-data="{&quot;index&quot;:null}" stroke="none" stroke-width="0" stroke-linecap="butt"><path d="M228.12545,184.022c0,0 0.59563,-3.23978 3.98098,-4.10742c0.64098,-0.16427 -1.76032,1.6369 -1.42826,2.36324c0.33202,0.72625 3.67502,1.00338 3.67502,1.00338c0,0 -3.02621,-0.01156 -3.8153,0.12175c-0.78909,0.13331 -2.41244,0.61905 -2.41244,0.61905z" fill="#54c81c"/><path d="M239.62336,180.04383c0,0 -3.61104,2.8869 -5.22365,3.14324c-1.48879,0.23666 -5.09604,-0.66243 -4.58239,-1.6789c0.51365,-1.01647 3.11372,-2.20694 5.40414,-2.12422c1.89025,0.06826 4.4019,0.65988 4.4019,0.65988z" fill="#ffffff"/></g><path d="M230.52577,182.82501l0.77026,-0.50714" fill="none" stroke="#ffffff" stroke-width="0.25" stroke-linecap="round"/><path d="M229.75549,182.10054l0.49018,-0.36224" fill="none" stroke="#ffffff" stroke-width="0.25" stroke-linecap="round"/></g><g data-paper-data="{&quot;index&quot;:null}"><g data-paper-data="{&quot;index&quot;:null}" stroke="none" stroke-width="0" stroke-linecap="butt"><path d="M237.00135,186.14261c0,0 -1.39398,1.33791 -2.72099,1.68963c-1.59733,0.42335 -4.37352,1.67153 -4.37352,1.67153c0,0 1.17586,-3.54855 1.83739,-4.93653c1.14248,-2.40487 2.4321,-2.73311 2.4321,-2.73311c0,0 -1.45775,3.16172 -0.94336,4.05504c0.50687,0.88029 3.76839,0.25343 3.76839,0.25343z" fill="#54c81c"/><path d="M234.08074,181.79354c0.13125,-0.09877 2.09713,-1.44009 3.5988,-1.33458c1.99304,0.14006 1.99869,-0.97517 2.385,-0.11843c0.3863,0.85674 0.44852,2.7101 -0.72313,3.84754c-0.97522,0.94676 -2.36968,1.97488 -2.36968,1.97488c0,0 -3.72194,1.18534 -4.31623,-0.20758c-0.63297,-1.58987 1.28831,-4.05876 1.42525,-4.16181z" fill="#ffffff"/></g><path d="M234.62182,186.90963l0.36079,-0.42486" fill="none" stroke="#ffffff" stroke-width="0.25" stroke-linecap="round"/><path d="M233.32298,186.20152l-0.21647,0.49567" fill="none" stroke="#ffffff" stroke-width="0.25" stroke-linecap="round"/><path d="M233.10652,184.64371l-0.95226,0.75397" fill="none" stroke="#ffffff" stroke-width="0.25" stroke-linecap="round"/></g><g data-paper-data="{&quot;index&quot;:null}"><path d="M237.6767,181.28863c-0.30427,-0.44307 -0.06637,-1.7509 0.28957,-2.80676c0.35593,-1.05586 0.95764,-1.25421 1.07941,-1.25421c0.15382,0 1.35868,-0.24869 2.06043,0.1482c0.70175,0.39689 0.46391,0.81182 0.64221,1.38034c0.1783,0.56851 0.3376,1.53269 0.32786,1.71279c-0.02505,0.46123 -1.45551,0.25457 -1.70209,0.53654c0,0 -2.33148,0.68137 -2.69739,0.28309z" data-paper-data="{&quot;index&quot;:null}" fill="#319a2b" stroke="none" stroke-width="0.17188" stroke-linecap="butt"/><path d="M239.04987,181.03803c0.61263,0 0.86005,-0.34217 1.03805,-0.04276c0.09193,0.15462 -0.5466,0.49821 -1.15798,0.46382c-0.68831,-0.17263 -1.50188,0.15139 -1.50188,0.15139l0.22399,-0.60534c0,0 0.78518,0.03289 1.39781,0.03289z" data-paper-data="{&quot;index&quot;:null}" fill="#ead42f" stroke="none" stroke-width="0" stroke-linecap="butt"/><path d="M242.13598,180.38422l0.34058,0.49225c0,0 -0.69825,-0.197 -1.3616,0.05504c-0.60314,0.10575 -0.80044,-0.29103 -0.19203,-0.36277c0.60841,-0.07174 1.21306,-0.18453 1.21306,-0.18453z" data-paper-data="{&quot;index&quot;:null}" fill="#ead42f" stroke="none" stroke-width="0" stroke-linecap="butt"/><path d="M239.14707,180.77493l-0.07853,0.38091" fill="none" stroke="#ffffff" stroke-width="0.25" stroke-linecap="round"/><path d="M238.21395,180.83175l-0.09109,0.32829" fill="none" stroke="#ffffff" stroke-width="0.25" stroke-linecap="round"/><path d="M241.22648,180.62702l-0.03093,-0.30573" fill="none" stroke="#ffffff" stroke-width="0.25" stroke-linecap="round"/><path d="M241.86559,180.27118l0.147,0.38175" fill="none" stroke="#ffffff" stroke-width="0.25" stroke-linecap="round"/></g><g data-paper-data="{&quot;index&quot;:null}" stroke="none" stroke-linecap="butt"><path d="M240.05112,177.3582c0.17022,-0.06911 0.34154,0.07628 0.48084,0.36686c0.1393,0.29058 0.24674,0.72652 0.28893,1.23856c0.04223,0.51194 0.0113,1.00389 -0.07258,1.38519c-0.08398,0.38127 -0.22099,0.65174 -0.3912,0.72085c-0.17009,0.06905 -0.34142,-0.07634 -0.48082,-0.36696c-0.1393,-0.29058 -0.24663,-0.72649 -0.28883,-1.23853c-0.04223,-0.51194 -0.01141,-1.00393 0.07258,-1.38519c0.08388,-0.3813 0.221,-0.65174 0.39108,-0.72079z" fill="#eb3d66" stroke-width="0.01872"/><path d="M240.57526,179.19399c0.01852,0.48778 -0.13593,0.88964 -0.34498,0.89758c-0.20905,0.00794 -0.39353,-0.38105 -0.41205,-0.86883c-0.01852,-0.48778 0.13593,-0.88964 0.34498,-0.89758c0.20905,-0.00794 0.39353,0.38105 0.41205,0.86883z" fill="#492116" stroke-width="0"/><path d="M239.9428,177.56187c0.07282,-0.00742 0.13081,0.06727 0.16562,0.19397c0.03489,0.12675 0.04658,0.3055 0.02688,0.50613c-0.01964,0.20068 -0.06709,0.38546 -0.12777,0.52198c-0.06074,0.13658 -0.13469,0.22486 -0.2075,0.23228c-0.07278,0.00755 -0.13075,-0.06722 -0.16563,-0.19397c-0.03489,-0.12675 -0.04658,-0.3055 -0.02692,-0.50605c0.01972,-0.20063 0.06714,-0.38554 0.12783,-0.52204c0.06074,-0.13658 0.13464,-0.22478 0.20751,-0.23227z" fill="#ffffff" stroke-width="0.01896"/></g><g data-paper-data="{&quot;index&quot;:null}"><g stroke="none" stroke-width="0" stroke-linecap="butt"><path d="M238.54484,177.84981l-0.08284,0.85519l-2.49808,-1.08205l0.26334,-0.68188z" fill="#319a2b"/><path d="M236.21715,176.75641c0.46548,0.44989 0.14454,0.9618 -0.29503,0.91302c-1.06215,-0.11785 -2.96002,-1.05215 -2.96002,-1.05215l0.06707,-1.53375c0,0 2.75288,1.25231 3.18798,1.67287z" fill="#ead42f"/><path d="M231.04918,177.46718c0.37636,-1.41791 1.05915,-2.57266 1.34446,-2.61316c0.87148,-0.12367 2.32708,1.61654 1.73308,3.29119c-0.49041,1.38261 -0.81989,2.03974 -2.04961,2.35014c-0.38892,0.09817 -1.40428,-1.61027 -1.02792,-3.02817z" fill="#f0e9bb"/></g><path d="M232.33666,175.02624c0,0 0.74102,1.36485 0.93165,2.31332c0.19063,0.94848 -0.19089,2.42332 -0.19089,2.42332" fill="none" stroke="#d3c49c" stroke-width="0.25" stroke-linecap="round"/><path d="M232.2945,175.98101l0.78377,-0.26885" fill="none" stroke="#ffffff" stroke-width="0.5" stroke-linecap="round"/><path d="M233.44497,176.96868l-0.62825,0.18335" fill="none" stroke="#ffffff" stroke-width="0.5" stroke-linecap="round"/><path d="M233.56758,178.07582l-0.63135,0.10406" fill="none" stroke="#ffffff" stroke-width="0.5" stroke-linecap="round"/><path d="M233.37608,179.27469l-0.47583,0.01856" fill="none" stroke="#ffffff" stroke-width="0.5" stroke-linecap="round"/></g><g data-paper-data="{&quot;index&quot;:null}"><g stroke="#ffffff" stroke-width="0" stroke-linecap="butt"><path d="M243.26244,176.142l0.39014,0.61815l-2.24195,1.54431l-0.24652,-0.82307z" data-paper-data="{&quot;index&quot;:null}" fill="#319a2b"/><path d="M243.23668,175.95886c0.34565,-0.49671 2.80469,-2.25732 2.80469,-2.25732l0.36214,1.4919c0,0 -1.68161,1.28339 -2.70096,1.60423c-0.42188,0.13278 -0.83567,-0.30744 -0.46589,-0.83881z" data-paper-data="{&quot;index&quot;:null}" fill="#ead42f"/><path d="M248.54889,175.56593c0.71999,1.27818 0.16563,3.18667 -0.2355,3.1892c-1.26827,0.00797 -1.75205,-0.54551 -2.57358,-1.76091c-0.99505,-1.47211 -0.02251,-3.5218 0.85213,-3.62068c0.28637,-0.03238 1.23697,0.91422 1.95695,2.19239z" data-paper-data="{&quot;index&quot;:null}" fill="#f0e9bb"/></g><path d="M247.392,178.55622c0,0 -0.69871,-1.35372 -0.72288,-2.32086c-0.02418,-0.96714 0.39616,-2.4622 0.39616,-2.4622" data-paper-data="{&quot;index&quot;:null}" fill="none" stroke="#d3c49c" stroke-width="0.25" stroke-linecap="round"/><path d="M246.49404,174.60625l0.82385,0.08859" data-paper-data="{&quot;index&quot;:null}" fill="none" stroke="#ffffff" stroke-width="0.5" stroke-linecap="round"/><path d="M247.06798,175.95243l-0.65325,-0.03967" data-paper-data="{&quot;index&quot;:null}" fill="none" stroke="#ffffff" stroke-width="0.5" stroke-linecap="round"/><path d="M246.54037,177.01959l0.63871,-0.03836" data-paper-data="{&quot;index&quot;:null}" fill="none" stroke="#ffffff" stroke-width="0.5" stroke-linecap="round"/><path d="M246.99263,178.14629l0.46813,-0.08729" data-paper-data="{&quot;index&quot;:null}" fill="none" stroke="#ffffff" stroke-width="0.5" stroke-linecap="round"/></g></g></g></svg>