<svg version="1.1" xmlns="http://www.w3.org/2000/svg" xmlns:xlink="http://www.w3.org/1999/xlink" width="38" height="30.70254" viewBox="0,0,38,30.70254"><g transform="translate(-225.30893,-163.30539)"><g data-paper-data="{&quot;isPaintingLayer&quot;:true}" fill-rule="nonzero" stroke-linejoin="miter" stroke-miterlimit="10" stroke-dasharray="" stroke-dashoffset="0" style="mix-blend-mode: normal"><g><g data-paper-data="{&quot;index&quot;:null}"><path d="M248.12326,184.97008l0.82466,0.01376c0,0 1.35351,2.50016 1.77475,3.88319c0.3514,1.15373 0.60832,2.91586 0.62787,3.63715c0.03375,1.24539 -0.59016,1.03868 -0.59016,1.03868c0,0 0.01137,-3.26873 -0.34301,-4.54667c-0.25261,-0.91109 -2.29411,-4.02611 -2.29411,-4.02611z" fill="#989898" stroke="#989898" stroke-width="0" stroke-linecap="round"/><path d="M246.86054,186.80789c0.0971,-0.55386 0.16529,-0.98994 0.58141,-1.42688c0.59155,-0.62113 0.99177,-0.42724 1.30367,-0.00197c0.65627,0.8954 1.34038,2.6463 1.34038,2.6463l-2.97173,1.84899c0,0 -0.40135,-2.21726 -0.25373,-3.06645z" fill="#f82020" stroke="none" stroke-width="1.13968" stroke-linecap="round"/><path d="M250.03265,187.95092c0,0 0.16697,0.10572 0.42984,1.06462c0.26287,0.95889 0.48404,2.24997 0.55577,3.34357c0.02819,0.43851 0.11332,1.18619 -0.22983,1.24295c-0.58417,0.09672 -1.81287,-0.13732 -2.29527,-0.65722c-0.47933,-0.51698 -1.47084,-2.47589 -1.39049,-3.20748c0.15686,-1.30232 2.93,-1.78643 2.93,-1.78643z" fill="#f8f8f8" stroke="none" stroke-width="1.15102" stroke-linecap="round"/><path d="M245.04097,187.04437c-0.02418,-0.42791 -0.38169,-1.16494 0.05506,-1.63094c0.49611,-0.52934 0.92319,0.11856 0.92319,0.11856c0,0 0.14116,-0.62932 0.55204,-0.40734c0.39894,0.21553 0.4031,0.49792 0.45751,0.79936c0.09144,0.50652 -0.12822,1.37756 -0.11821,1.55457c0.05003,0.88514 0.37682,2.18821 -0.08752,2.21445c-0.12317,0.00696 -0.71663,-0.19807 -0.71663,-0.19807c0,0 -0.59247,0.52503 -0.80402,0.15608c-0.27444,-0.47863 -0.24066,-2.23941 -0.26141,-2.60667z" fill="#ffffff" stroke="none" stroke-width="0" stroke-linecap="butt"/></g><path d="M245.27557,186.81777c0.2319,0.451 0.0744,1.2097 -0.3455,1.4122c-0.6542,0.3237 -1.5113,0.1313 -2.1297,-0.1995c-0.3795,-0.1978 -0.5472,-0.6966 -0.5726,-1.1504c-0.0465,-0.8117 -0.0631,-1.7152 0.3326,-2.4196c0.1563,-0.2754 0.8034,-0.1828 1.004,0.0852c0.3591,0.4777 -0.0556,1.2983 0.3044,1.7794c0.3061,0.4074 1.1775,0.0537 1.4068,0.4927z" data-paper-data="{&quot;index&quot;:null}" fill="#e88820" stroke="none" stroke-width="0.49091" stroke-linecap="round"/></g><path d="M245.53846,183.73455c0,1.55828 -1.22886,2.82152 -3.6322,2.82152c-1.84808,0 -3.42709,-0.74695 -4.05806,-1.80065c-0.18957,-0.31658 -2.93901,-0.26373 -1.04239,-2.51435c1.14432,-1.3579 3.55812,0.43997 4.02687,0.48073c1.46685,-0.76968 2.32821,-1.19229 3.28569,-1.19229c0.76569,0 1.4201,0.64676 1.4201,2.20504z" data-paper-data="{&quot;index&quot;:null}" fill="#f8b820" stroke="none" stroke-width="0" stroke-linecap="butt"/><path d="M245.99903,175.36024c0,3.60743 -0.78356,6.23963 -1.13412,7.14121c-0.21833,0.5615 -0.30152,0.07428 -0.30152,0.07428c0,0 0.31437,-0.95255 0.31437,-6.80662c0,-1.96926 -2.1099,-4.2209 -2.28757,-4.94621c-0.19596,-0.80001 2.82257,-0.61154 2.82257,-0.61154c0,0 3.14631,-1.07395 3.04959,0.02036c-0.07751,0.87693 -2.46334,3.45322 -2.46334,5.12852z" data-paper-data="{&quot;index&quot;:null}" fill="#e2a026" stroke="none" stroke-width="0" stroke-linecap="butt"/><path d="M242.53345,175.56468c0,-1.67529 -1.63601,-3.97836 -1.72729,-4.8553c-0.1139,-1.0943 2.13304,-0.29359 2.13304,-0.29359c0,0 3.25394,-0.82599 3.02318,-0.02599c-0.20923,0.72531 -2.10851,3.61447 -2.10851,5.58373c0,5.85408 0.21037,6.71555 0.21037,6.71555c0,0 0.0267,0.4834 -0.26404,-0.21431c-0.39979,-0.95941 -1.26675,-3.52083 -1.26675,-6.91011z" data-paper-data="{&quot;index&quot;:null}" fill="#e2a026" stroke="none" stroke-width="0" stroke-linecap="butt"/><path d="M243.63445,186.29474c0,0 -1.69936,0.33209 -3.05697,0.14205c-1.26609,-0.11723 -2.17798,-0.63112 -3.23716,-0.92306c-0.29297,-0.08075 -1.35568,0.23837 -1.33034,0.04279c0.02209,-0.17043 1.06708,-0.40284 0.92115,-0.44589c-0.17115,-0.05048 -1.48553,0.30964 -1.13269,0.04139c0.35284,-0.26825 1.87999,-0.60951 1.87999,-0.60951l1.92147,-0.75821c0,0 -0.68275,0.78091 -0.51029,0.7763c0.18361,-0.00492 0.65205,-0.61248 0.83768,-0.68113c0.39864,-0.14741 -0.29243,0.82066 -0.14924,0.822c0.47629,0.00446 1.15457,-0.36183 2.00297,-0.4132c2.42334,-0.14674 1.85344,1.85263 1.85344,1.85263z" data-paper-data="{&quot;index&quot;:null}" fill="#f8f8f8" stroke="none" stroke-width="0" stroke-linecap="butt"/><g><path d="M246.88642,187.26888c0.27487,0.42608 0.19239,1.19646 -0.20562,1.43913c-0.61944,0.38627 -1.49129,0.27864 -2.139,0.01001c-0.39698,-0.15978 -0.61277,-0.63972 -0.68246,-1.08886c-0.12568,-0.80325 -0.23066,-1.70076 0.09418,-2.44055c0.12859,-0.28934 0.78163,-0.26059 1.00751,-0.01342c0.40409,0.44018 0.07173,1.29745 0.47713,1.74106c0.34446,0.37545 1.17703,-0.06184 1.44827,0.35263z" data-paper-data="{&quot;index&quot;:null}" fill="#f8b820" stroke="none" stroke-width="0.49091" stroke-linecap="round"/><g data-paper-data="{&quot;index&quot;:null}"><path d="M249.39457,185.36807l0.82472,0.00913c0,0 1.36753,2.49252 1.79653,3.87316c0.35788,1.15174 0.62468,2.9124 0.64829,3.63358c0.04075,1.24518 -0.58432,1.04197 -0.58432,1.04197c0,0 -0.00699,-3.26874 -0.36854,-4.54466c-0.25773,-0.90966 -2.31669,-4.01316 -2.31669,-4.01316z" fill="#989898" stroke="#989898" stroke-width="0" stroke-linecap="round"/><path d="M248.14215,187.21295c0.09399,-0.5544 0.15973,-0.99086 0.57338,-1.43013c0.58806,-0.62445 0.98936,-0.43281 1.30364,-0.00929c0.6613,0.89169 1.35523,2.63873 1.35523,2.63873l-2.96129,1.86564c0,0 -0.41379,-2.21497 -0.27095,-3.06497z" fill="#f82020" stroke="none" stroke-width="1.13968" stroke-linecap="round"/><path d="M251.3207,188.33809c0,0 0.16757,0.10478 0.43581,1.06219c0.26824,0.95739 0.49666,2.24721 0.57453,3.34039c0.03065,0.43835 0.11998,1.18553 -0.22284,1.24421c-0.58361,0.1 -1.81361,-0.12713 -2.29893,-0.64433c-0.48224,-0.51427 -1.48471,-2.46758 -1.40848,-3.19962c0.14954,-1.30319 2.91992,-1.80285 2.91992,-1.80285z" fill="#f8f8f8" stroke="none" stroke-width="1.15102" stroke-linecap="round"/><path d="M246.32401,187.4596c-0.02659,-0.42778 -0.38823,-1.16277 0.04589,-1.63122c0.49313,-0.53211 0.92384,0.11338 0.92384,0.11338c0,0 0.13762,-0.63012 0.54974,-0.41043c0.40015,0.21328 0.40588,0.49566 0.46199,0.79677c0.09429,0.506 -0.12048,1.37825 -0.10948,1.55521c0.055,0.88485 0.3891,2.18606 -0.07509,2.21492c-0.12313,0.00765 -0.71774,-0.19405 -0.71774,-0.19405c0,0 -0.58951,0.52836 -0.80314,0.16059c-0.27713,-0.47709 -0.25322,-2.23803 -0.27605,-2.60516z" fill="#ffffff" stroke="none" stroke-width="0" stroke-linecap="butt"/></g></g><path d="M263.30893,168.56731c0,2.90607 -8.50659,5.2619 -19,5.2619c-10.49341,0 -19,-2.35583 -19,-5.2619c0,-2.90607 8.50659,-5.26191 19,-5.26191c10.49341,0 19,2.35583 19,5.26191z" fill-opacity="0.90196" fill="#e3a127" stroke="none" stroke-width="0" stroke-linecap="butt"/><path d="M239.18262,172.89395c-0.0764,-0.02174 -1.53979,-0.34425 -2.4492,-0.85844c-1.43673,-0.81236 -2.53416,-1.94759 -2.53416,-1.94759c0,0 1.98008,1.07678 2.54163,1.26122c0.99934,0.32821 2.94072,0.53931 2.94072,0.53931c0,0 -1.70805,-0.24083 -2.49428,-0.54096c-0.66702,-0.25463 -1.92455,-1.14588 -1.92455,-1.14588c0,0 1.22187,0.35875 1.76858,0.46221c0.62133,0.11759 1.76427,0.20637 1.76427,0.20637c0,0 -0.82403,-0.17658 -1.32425,-0.37109c-0.50023,-0.19452 -1.03923,-0.54795 -1.03923,-0.54795c0,0 0.63363,0.0381 0.91845,0.02959c0.31762,-0.00949 0.9783,-0.13542 0.9783,-0.13542c0,0 -0.68015,-0.181 -1.07828,-0.38337c-0.39813,-0.20237 -0.94552,-0.64535 -0.94552,-0.64535c0,0 0.49095,-0.00017 0.80437,-0.0193c0.31343,-0.01913 0.58577,-0.06556 0.58577,-0.06556c0,0 -0.3719,-0.10436 -0.57904,-0.23235c-0.20714,-0.12798 -0.43666,-0.39517 -0.43666,-0.39517c0,0 0.36082,0.0281 0.52328,0.01753c0.20636,-0.01344 0.615,-0.09162 0.615,-0.09162c0,0 -0.57471,-0.24683 -0.76055,-0.37033c-0.13823,-0.09184 -0.39888,-0.32517 -0.39888,-0.32517l0.60791,0.08801l-0.38602,-0.58656l1.00579,0.42432l-0.47065,0.37486l0.85713,0.46039l-0.71733,0.29959c0,0 0.20202,0.20545 0.35699,0.30164c0.15496,0.09619 0.46722,0.20996 0.46722,0.20996c0,0 -0.33552,0.1259 -0.56008,0.13328c-0.22456,0.00738 -0.85523,-0.08675 -0.85523,-0.08675l1.12544,0.49057l1.54013,0.38114c0,0 -0.48442,0.2252 -0.81441,0.30377c-0.33,0.07857 -1.03879,0.13744 -1.03879,0.13744c0,0 0.71885,0.2016 1.18403,0.31012c0.46518,0.10853 1.33164,0.27679 1.33164,0.27679c0,0 -0.75223,0.3427 -1.26556,0.3617c-0.51332,0.01901 -1.67591,-0.2528 -1.67591,-0.2528c0,0 1.29254,0.50235 2.16264,0.61892c0.87012,0.11658 3.04954,0.07937 3.04954,0.07937c0,0 -1.60583,0.67777 -2.68267,0.64965c-1.07684,-0.02811 -3.37981,-0.80792 -3.37981,-0.80792c0,0 2.89053,0.99576 3.49228,1.03878c1.51177,0.1081 4.66126,-0.52482 4.66126,-0.52482c0,0 -2.41216,1.7488 -5.47131,0.87789z" data-paper-data="{&quot;index&quot;:null}" fill="#dcdce1" stroke="none" stroke-width="0" stroke-linecap="butt"/><g><path d="M241.39815,171.11599c0.68031,1.33939 0.85837,3.05707 0.85837,3.05707c0,0 1.69335,3.5127 0.78537,5.62903c-0.77297,1.80007 -3.37255,2.14467 -5.27484,2.60307c-1.53621,0.37068 -3.6591,0.83454 -4.7391,-0.25665c-1.27656,-1.29149 -1.12141,-4.39259 -1.57082,-6.15267c-0.16843,-0.66447 -0.48153,-1.49524 -0.92964,-2.6421c-0.44812,-1.14686 -0.81492,-2.39497 -0.58845,-3.10966c0.06098,-0.58328 0.79605,0.52189 1.56467,0.9596c0.76862,0.43771 1.93993,1.14749 2.64196,1.22521c0.81336,0.03086 1.02285,0.15948 1.77133,-0.2125c0.44258,-0.21939 2.30552,-4.09524 2.82784,-4.03632c0.6201,0.07068 1.973,1.59652 2.6533,2.93591z" data-paper-data="{&quot;index&quot;:null}" fill="#f8b820" stroke="none" stroke-width="1" stroke-linecap="round"/><path d="M233.23098,179.59095c0.08074,0.61582 0.24468,1.29712 0.09716,1.85586c-0.09069,0.34102 -0.49835,0.69069 -0.65417,0.40044c-0.45875,-0.85488 -0.58273,-1.95865 -0.72726,-2.97545c-0.08918,-0.55694 -0.20158,-1.25601 0.03687,-1.67357c0.15963,-0.28049 0.64466,-0.11393 0.81215,0.18268c0.32565,0.65022 0.33809,1.46928 0.43526,2.21004z" data-paper-data="{&quot;index&quot;:null}" fill="#ffffff" stroke="none" stroke-width="0.86553" stroke-linecap="round"/><path d="M240.87254,173.714c-0.10641,0.08925 -1.36061,-0.56561 -2.14253,-0.80611c-0.78192,-0.2405 -1.65043,-0.20956 -1.70391,-0.38916c-0.13676,-0.47638 0.43324,-1.10459 0.58794,-1.5701c0.16242,-0.48845 0.91331,-1.97028 1.19827,-1.90991c0.32122,0.07038 2.27238,4.49602 2.06021,4.67526z" data-paper-data="{&quot;index&quot;:null}" fill="#ffffff" stroke="none" stroke-width="0.85185" stroke-linecap="butt"/><path d="M238.20179,182.04216c-0.19517,0.47078 -0.8134,0.50123 -1.26496,0.55867c-0.48937,0.04518 -1.21328,0.247 -1.47604,-0.25758c-0.59228,-1.13795 -0.51014,-2.60603 -0.66527,-3.87461c-0.06646,-0.54424 -0.18225,-1.11836 -0.01883,-1.63951c0.01363,-0.19279 0.2711,-0.14732 0.46821,-0.17549c0.23576,-0.034 0.44994,-0.04993 0.71877,-0.00079c0.27751,0.05311 0.56991,0.15273 0.80898,0.30366c0.33196,0.23256 0.71019,0.49212 0.89356,0.87392c0.27994,0.57188 0.37855,1.24813 0.46069,1.89175c0.10118,0.79031 0.35739,1.63807 0.07489,2.31996z" data-paper-data="{&quot;index&quot;:null}" fill="#ffffff" stroke="none" stroke-width="0.97175" stroke-linecap="round"/><path d="M242.72193,178.2283c-0.21308,0.31472 -0.74827,1.56396 -0.44334,1.67032c0.60151,0.21093 1.50859,0.32954 1.50859,0.32954c0,0 -0.6541,-0.07159 -1.24205,0.5576c-0.10996,0.11759 2.04888,-0.27046 2.04888,-0.27046l-1.9412,1.59689l1.51119,0.05311c0,0 -3.11172,0.7203 -3.44441,0.96404c-0.36719,0.26875 -1.12398,0.85475 -1.95697,1.16601c-0.833,0.31126 -2.01609,0.60457 -2.84602,0.68458c-0.75741,0.04505 -1.87732,-0.12424 -2.81367,-0.78269c-0.55646,-0.24795 -1.1137,-1.51264 -0.72712,-1.88446c0.67496,-0.64918 2.01378,-0.62223 2.9211,-0.299c0.80227,0.28581 1.80022,0.22029 2.60428,-0.04975c0.79142,-0.253 1.35076,-0.62554 1.94012,-1.23168c0.89114,-0.91583 3.16163,-2.91984 2.88065,-2.50405z" data-paper-data="{&quot;index&quot;:null}" fill="#f8f8f8" stroke="none" stroke-width="1" stroke-linecap="round"/><path d="M233.03748,182.04322c0.35502,-0.05272 0.39978,0.01679 0.65045,0.10252c0.25068,0.08573 -0.16249,0.73995 -0.51751,0.79268c-0.35503,0.05273 -1.11288,-0.4276 -0.89794,-0.58248c0.21493,-0.15487 0.40998,-0.25999 0.76501,-0.31271z" data-paper-data="{&quot;index&quot;:null}" fill="#101010" stroke="none" stroke-width="1" stroke-linecap="butt"/><path d="M237.90558,183.57479l-1.61792,1.0268" data-paper-data="{&quot;index&quot;:null}" fill="none" stroke="#cccccc" stroke-width="0.36953" stroke-linecap="round"/><path d="M235.89025,179.51197c0.13926,0.22296 0.2531,0.5409 0.30689,0.90312c0.0538,0.36222 0.03726,0.69952 -0.0312,0.95333c-0.06981,0.2529 -0.1918,0.42124 -0.35145,0.44495c-0.15955,0.02369 -0.32521,-0.10194 -0.46549,-0.32363c-0.13936,-0.22295 -0.25309,-0.54089 -0.30689,-0.90312c-0.0538,-0.36222 -0.03735,-0.6995 0.0312,-0.95333c0.06981,-0.2529 0.1918,-0.42124 0.35135,-0.44493c0.15965,-0.02371 0.3253,0.10192 0.46559,0.32362z" fill="#4088ed" stroke="none" stroke-width="1.0615" stroke-linecap="butt"/><path d="M235.80977,179.80486c0.09238,0.13802 0.16581,0.33639 0.19942,0.56271c0.03361,0.22632 0.02098,0.43746 -0.02728,0.59648c-0.04779,0.15885 -0.13069,0.26507 -0.23751,0.28093c-0.10682,0.01586 -0.21692,-0.0617 -0.3088,-0.1998c-0.09239,-0.13813 -0.16582,-0.33649 -0.19943,-0.56281c-0.03361,-0.22632 -0.02099,-0.43746 0.02729,-0.59638c0.04777,-0.15894 0.13058,-0.26506 0.23741,-0.28092c0.10682,-0.01586 0.217,0.06159 0.3089,0.19979z" fill="#000000" stroke="none" stroke-width="0.47368" stroke-linecap="butt"/><path d="M235.60678,179.93892c0.04099,0.05609 0.07331,0.13692 0.08709,0.2297c0.01378,0.09278 0.00634,0.17951 -0.01658,0.24509c-0.02234,0.06539 -0.06084,0.10973 -0.1095,0.11695c-0.04856,0.00721 -0.0984,-0.02401 -0.13878,-0.08009c-0.04099,-0.05609 -0.07321,-0.13693 -0.08698,-0.22971c-0.01378,-0.09278 -0.00644,-0.1795 0.01648,-0.24508c0.02234,-0.06539 0.06095,-0.10975 0.10951,-0.11695c0.04866,-0.00723 0.09839,0.02401 0.13877,0.08008z" fill="#ffffff" stroke="none" stroke-width="0.64678" stroke-linecap="butt"/><path d="M233.09935,179.90823c0.12385,0.19816 0.22494,0.48067 0.27277,0.80274c0.04781,0.32197 0.0332,0.62177 -0.02773,0.84736c-0.06196,0.22474 -0.17046,0.37441 -0.3123,0.39547c-0.14184,0.02106 -0.28915,-0.09061 -0.41384,-0.28763c-0.12385,-0.19816 -0.22496,-0.48078 -0.27277,-0.80275c-0.04783,-0.32207 -0.03319,-0.62177 0.02774,-0.84736c0.06205,-0.22485 0.17054,-0.37451 0.31238,-0.39558c0.14184,-0.02106 0.28915,0.09061 0.41376,0.28775z" fill="#4088ed" stroke="none" stroke-width="0.94355" stroke-linecap="butt"/><path d="M232.96995,180.19393c0.08202,0.12278 0.14742,0.29909 0.17729,0.50018c0.02988,0.2012 0.01854,0.3889 -0.02427,0.53022c-0.04241,0.14126 -0.11616,0.23561 -0.21111,0.24971c-0.09495,0.0141 -0.19284,-0.05477 -0.27456,-0.17759c-0.08202,-0.12278 -0.14743,-0.29908 -0.17731,-0.50028c-0.02987,-0.2011 -0.01852,-0.3888 0.02429,-0.53012c0.04251,-0.14128 0.11615,-0.23562 0.21111,-0.24972c0.09495,-0.0141 0.19294,0.05476 0.27457,0.17759z" fill="#000000" stroke="none" stroke-width="0.42105" stroke-linecap="butt"/><path d="M232.75657,180.31811c0.03641,0.04979 0.06507,0.12166 0.07731,0.20406c0.01225,0.08249 0.00571,0.15959 -0.01467,0.21782c-0.01986,0.05825 -0.05415,0.09761 -0.09737,0.10403c-0.04323,0.00642 -0.08737,-0.0213 -0.1233,-0.07126c-0.03651,-0.04978 -0.06517,-0.12164 -0.07742,-0.20414c-0.01224,-0.08239 -0.00569,-0.1595 0.01477,-0.21774c0.01986,-0.05825 0.05405,-0.0976 0.09727,-0.10402c0.04323,-0.00642 0.08748,0.02129 0.12341,0.07125z" fill="#ffffff" stroke="none" stroke-width="0.57492" stroke-linecap="butt"/><path d="M233.17951,173.22489c0,0 -1.47022,1.04549 -1.7682,1.08974c-0.15276,0.02268 -0.54896,-1.15642 -0.87909,-1.92955c-0.33014,-0.77311 -0.28193,-1.75809 -0.28193,-1.75809z" fill="#ffffff" stroke="none" stroke-width="0" stroke-linecap="butt"/><path d="M233.82616,176.51592l-2.60765,1.46589l-1.56574,2.1833l1.09593,-3.06688l2.7688,-1.16537z" fill="#f8b820" stroke="none" stroke-width="1.22222" stroke-linecap="round"/><path d="M233.0679,175.88545l-2.39485,-0.09888l-2.42014,1.75615c0,0 1.43474,-2.46305 1.8493,-2.64566c0.29079,-0.12811 3.06562,0.17168 3.06562,0.17168z" fill="#f8b820" stroke="none" stroke-width="1.22222" stroke-linecap="round"/><path d="M233.1066,174.80668c0,0 -1.34171,-0.84351 -2.32272,-0.94138c-0.98101,-0.09787 -4.30581,0.28005 -4.30581,0.28005c0,0 3.23043,-1.46875 3.8882,-1.39632c0.39882,0.04391 3.25832,1.30025 3.25832,1.30025z" fill="#f8b820" stroke="none" stroke-width="1.22222" stroke-linecap="round"/></g><path d="M247.48958,163.84298c0.07884,0.00966 1.57451,0.10193 2.5525,0.46926c1.5451,0.58034 2.80492,1.53217 2.80492,1.53217c0,0 -2.12282,-0.75755 -2.70613,-0.85289c-1.03808,-0.16967 -2.98873,-0.07793 -2.98873,-0.07793c0,0 1.72475,-0.02628 2.54794,0.14864c0.69838,0.14838 2.07863,0.8344 2.07863,0.8344c0,0 -1.26265,-0.16542 -1.81879,-0.18308c-0.63205,-0.02006 -1.77496,0.06901 -1.77496,0.06901c0,0 0.84143,0.04699 1.36572,0.16179c0.52429,0.1148 1.11148,0.3806 1.11148,0.3806c0,0 -0.63191,0.06038 -0.91197,0.11284c-0.31233,0.05851 -0.94557,0.28512 -0.94557,0.28512c0,0 0.69996,0.07362 1.12461,0.21196c0.42465,0.13836 1.03397,0.49132 1.03397,0.49132c0,0 -0.48502,0.07611 -0.79172,0.14349c-0.30669,0.06738 -0.56858,0.15538 -0.56858,0.15538c0,0 0.38356,0.04558 0.608,0.13999c0.22445,0.0944 0.49253,0.32288 0.49253,0.32288c0,0 -0.36083,0.02804 -0.51969,0.06361c-0.2018,0.04519 -0.59343,0.18565 -0.59343,0.18565c0,0 0.60598,0.15496 0.80868,0.24822c0.15077,0.06937 0.44437,0.25956 0.44437,0.25956l-0.6142,0.00709l0.4721,0.51979l-1.05932,-0.26364l0.40701,-0.44315l-0.91803,-0.32226l0.66236,-0.40695c0,0 -0.23138,-0.17172 -0.39937,-0.24279c-0.16798,-0.07107 -0.49407,-0.13515 -0.49407,-0.13515c0,0 0.31201,-0.17628 0.53272,-0.21831c0.22072,-0.04203 0.85836,-0.04657 0.85836,-0.04657l-1.18778,-0.31058l-1.58056,-0.13833c0,0 0.44375,-0.29741 0.75762,-0.42608c0.31387,-0.12867 1.00502,-0.29647 1.00502,-0.29647c0,0 -0.74138,-0.08798 -1.21775,-0.12325c-0.47636,-0.03527 -1.35843,-0.06748 -1.35843,-0.06748c0,0 0.69017,-0.45492 1.19438,-0.5531c0.5042,-0.09819 1.69483,-0.00947 1.69483,-0.00947c0,0 -1.35469,-0.29638 -2.23236,-0.27696c-0.87768,0.01943 -3.02511,0.39329 -3.02511,0.39329c0,0 1.48168,-0.918 2.5499,-1.05679c1.06823,-0.13879 3.4641,0.27541 3.4641,0.27541c0,0 -3.00977,-0.53666 -3.61092,-0.4861c-1.51029,0.12705 -4.52397,1.23952 -4.52397,1.23952c0,0 2.11261,-2.10086 5.26965,-1.71364z" data-paper-data="{&quot;index&quot;:null}" fill="#dcdce1" stroke="none" stroke-width="0" stroke-linecap="butt"/><path d="M260.50868,169.70587c0.1563,-0.39615 0.35948,-1.14096 0.35948,-1.14096c0,0 -0.22095,0.52276 -0.41283,0.82908c-0.19189,0.30632 -0.4938,0.61819 -0.4938,0.61819c0,0 0.10527,-0.41433 0.13564,-0.60381c0.03386,-0.2113 0.03405,-0.66424 0.03405,-0.66424c0,0 -0.20568,0.42704 -0.38987,0.66483c-0.18418,0.23779 -0.54637,0.54389 -0.54637,0.54389c0,0 0.06193,-0.32478 0.08888,-0.53453c0.02696,-0.20975 0.03066,-0.39576 0.03066,-0.39576c0,0 -0.11602,0.23281 -0.22686,0.35367c-0.11084,0.12085 -0.31659,0.2389 -0.31659,0.2389c0,0 0.06419,-0.23513 0.07773,-0.34392c0.01719,-0.13821 0.01712,-0.41839 0.01712,-0.41839c0,0 -0.23591,0.34897 -0.34109,0.45629c-0.07822,0.07982 -0.26551,0.22276 -0.26551,0.22276l0.13505,-0.39101l-0.43678,0.18123l0.40779,-0.61169l0.18848,0.3587l0.41287,-0.50879l0.10753,0.51237c0,0 0.16143,-0.10768 0.24465,-0.19804c0.08321,-0.09035 0.19793,-0.28252 0.19793,-0.28252c0,0 0.04089,0.23786 0.0174,0.38733c-0.02349,0.14947 -0.16546,0.55475 -0.16546,0.55475l0.46673,-0.68247l0.44676,-0.97061c0,0 0.08775,0.3489 0.09801,0.57711c0.01027,0.22822 -0.04037,0.70451 -0.04037,0.70451c0,0 0.2242,-0.45004 0.35478,-0.74403c0.13058,-0.29399 0.35137,-0.84589 0.35137,-0.84589c0,0 0.13162,0.54089 0.07933,0.88285c-0.0523,0.34196 -0.37902,1.07665 -0.37902,1.07665c0,0 -0.3752,0.5221 -0.23768,0.17354z" data-paper-data="{&quot;index&quot;:null}" fill="#dcdce1" stroke="none" stroke-width="0" stroke-linecap="butt"/></g></g></svg>