<svg version="1.1" xmlns="http://www.w3.org/2000/svg" xmlns:xlink="http://www.w3.org/1999/xlink" width="28.03006" height="20.60595" viewBox="0,0,28.03006,20.60595"><g transform="translate(-224.78573,-169.68384)"><g data-paper-data="{&quot;isPaintingLayer&quot;:true}" fill-rule="nonzero" stroke-width="0" stroke-linecap="butt" stroke-linejoin="miter" stroke-miterlimit="10" stroke-dasharray="" stroke-dashoffset="0" style="mix-blend-mode: normal"><g stroke="none"><path d="M240.0673,189.86839c-0.19852,-0.05372 -0.62572,-0.40904 -0.80064,-0.83036c-0.17687,-0.42602 -0.14407,-0.95151 -0.09896,-1.21336c0.52526,-3.04889 1.3808,-2.8687 1.3808,-2.8687c0,0 -1.01254,3.28556 -0.63104,3.94075c0.42756,0.7343 3.06479,0.19006 3.06479,0.19006c0,0 -0.01153,0.64298 -0.40918,0.8201c-0.5441,0.24236 -1.36341,0.27063 -2.50577,-0.0385z" fill="#686868"/><path d="M239.52298,187.60465c-0.00966,-1.00379 0.83846,-2.77108 1.28862,-2.79578c0.31309,-0.01718 1.54263,1.45989 2.11649,2.28133c0.21889,0.31334 0.21663,0.53818 0.21663,0.53818c0,0 0.06059,1.05044 -0.02095,1.24343c-0.33537,0.79377 -0.84483,0.8648 -2.82527,0.45024c-0.73217,-0.15326 -0.77152,-1.30416 -0.7755,-1.71739z" fill="#ef4019"/><path d="M243.36036,185.51526c0.4939,0.13112 -0.17011,0.73401 -0.17011,0.73401l-0.04922,1.42802c0,0 -0.13299,-0.46766 -0.59091,-0.58124c-0.33506,-0.08311 -1.28447,-0.05656 -1.68846,-0.03435c-0.16014,-0.00163 -0.48266,0.53176 -0.75643,0.46691c-0.42563,-0.56806 0.70296,-2.71365 0.70296,-2.71365c0,0 0.09773,-0.0247 0.15771,0.05881c0.13074,0.18204 0.32056,0.56695 0.61014,0.6465c0.72273,0.19856 1.70164,-0.02698 1.78433,-0.00502z" fill="#ffc500"/><path d="M240.97524,184.99158c-0.0339,-0.61785 0.49166,-1.14907 1.17387,-1.18651c0.68221,-0.03743 1.26273,0.43309 1.29664,1.05095c0.0339,0.61785 -0.49166,1.14907 -1.17387,1.18651c-0.26979,0.0148 -0.96971,-0.25915 -0.96971,-0.25915l-0.57004,0.19985l0.19968,-0.66422c0,0 0.04823,-0.24 0.04344,-0.32742z" fill="#ffffff"/></g><path d="M249.89448,183.24539c0.02892,0.05881 -0.02559,0.37325 0.09033,0.62331c0.12151,0.26214 0.32001,0.28077 0.50528,0.4496c0.17167,0.15644 1.74834,2.6328 1.71367,3.51756c-0.00946,0.24145 0.01488,0.55815 -0.01711,0.63322c-0.34366,0.8061 -1.59892,1.76284 -2.32509,1.81499c-0.8428,0.06052 -1.01408,-0.37892 -1.01408,-0.37892c0,0 2.5929,-0.88693 2.64986,-2.22685c0.05755,-1.35398 -2.83942,-5.30601 -2.83942,-5.30601c0,0 0.66305,-0.29256 1.23654,0.87309z" fill="#686868" stroke="none"/><path d="M247.59238,188.66184c-0.05142,-0.2791 -0.07893,-0.19156 -0.01136,-0.68696c0.07557,-0.554 0.93739,-2.30072 0.7687,-3.20011c-0.25074,-1.33682 -1.59269,-1.80399 -1.59269,-1.80399c0,0 0.20546,-0.4187 0.86795,-0.60154c0.53496,-0.14765 1.05977,-0.0194 1.05977,-0.0194c0,0 2.71334,3.61159 2.84212,5.27435c0.09132,1.17914 -2.07621,2.29427 -2.60973,2.28521c-0.53352,-0.00904 -0.95731,-0.52892 -1.32475,-1.24756z" fill="#ef4019" stroke="none"/><path d="M247.58549,188.00948c0,0 0.00739,-0.6755 -0.0432,-0.91399c-0.04719,-0.22241 -0.25082,-0.47209 -0.25082,-0.47209c0,0 0.50576,-1.12784 0.56654,-1.67326c0.05878,-0.52762 -0.20766,-1.54766 -0.20766,-1.54766c0,0 0.6836,-0.286 0.87547,-0.29821c0.36022,-0.02293 1.99615,2.64087 2.1156,3.49652c0.05083,0.36414 -0.46394,0.19321 -0.80734,0.11268c-0.33162,-0.07777 -0.72484,0.03041 -0.85858,0.11118c-0.67063,0.40502 -1.39,1.18484 -1.39,1.18484z" fill="#ffc500" stroke="none"/><path d="M248.29559,184.51322c0.23468,0.73862 -0.24361,1.2565 -0.89678,1.39767c-0.85274,0.18426 -1.35404,0.27774 -1.45117,-0.54845c-0.01843,-0.15672 -0.94157,-2.2384 0.83411,-2.38294c0.20096,-0.01636 1.11247,0.27039 1.51386,1.53374z" fill="#ffffff" stroke="none"/><path d="M246.11765,183.97512c0,0 0.15951,-0.17308 0.38284,-0.22532c0.29488,-0.06899 0.7012,0.0505 0.79582,0.59697c0.17666,1.02029 -1.18659,1.06469 -1.37278,1.00402c-1.02358,-0.33349 -1.91367,-1.77995 -1.91367,-1.77995l0.88304,-0.81085c0,0 0.4004,0.42301 0.62577,0.62785c0.21157,0.19232 0.59898,0.5873 0.59898,0.5873z" fill="#fedeb5" stroke="none"/><path d="M247.10904,185.81703c0.3551,-0.2101 0.76914,-1.021 0.91985,-1.0226c0.06301,-0.00067 0.28897,0.03928 0.39341,-0.01488c0.1986,-0.103 0.28641,-0.33308 0.28641,-0.33308c0,0 -0.00069,0.84836 -0.24244,1.23644c-0.4592,0.73711 -1.19832,0.92424 -1.19832,0.92424c0,0 -1.04468,-0.08304 -1.35522,-0.50568c-0.15553,-0.21167 0.13966,-0.36421 0.13966,-0.36421c0,0 0.6227,0.33653 1.05665,0.0798z" fill="#ffc500" stroke="none"/><path d="M239.08129,180.65752c-0.04221,0.2165 -0.05076,0.68879 -0.10305,1.25991c-0.0523,0.57113 -0.18213,1.68226 -0.18213,1.68226c0,0 -0.50359,0.58751 -0.97727,-0.47407c-0.16376,-0.36699 0.22253,-2.57218 0.24106,-2.66721c0.11843,-0.60749 0.33908,-1.10461 0.72512,-1.0004c0.42322,0.11423 0.41469,0.59202 0.29627,1.19951z" data-paper-data="{&quot;index&quot;:null}" fill="#fde1c0" stroke="none"/><path d="M237.05687,183.99024c-0.18716,-0.18427 -0.09949,-0.40164 -0.04296,-0.60562c0.05652,-0.20398 0.31313,-0.59139 0.31313,-0.59139c0,0 0.54394,-0.18239 0.95148,0.04849c0.59055,0.33456 0.97573,0.93394 0.97573,0.93394c0,0 0.06849,0.56163 -0.28091,0.76332c-0.21997,0.12698 -1.3608,-0.00166 -1.91647,-0.54874z" data-paper-data="{&quot;index&quot;:null}" fill="#fefefe" stroke="none"/><g stroke="none"><path d="M237.42692,183.83132c0.09579,-0.24899 0.87392,0.28845 1.27426,0.44248c0.40034,0.15402 0.61895,0.23504 0.54285,0.43285c-0.08923,0.23193 -0.58971,0.15472 -0.99914,0.02679c-0.81232,-0.25378 -0.89408,-0.7043 -0.81797,-0.90212z" fill="#000000"/><path d="M238.35626,186.22526c0,0 -0.35673,0.15322 -0.61848,0.05524c-0.38579,-0.1444 -0.35831,-0.39188 -0.35831,-0.39188c0,0 -0.30329,0.11877 -0.5979,-0.02575c-0.22764,-0.11168 -0.32282,-0.39007 -0.32282,-0.39007c0,0 -1.31634,-0.04869 -0.98607,-0.90354c0.26841,-0.69475 0.88712,-1.1353 1.04306,-1.24515c0.15594,-0.10985 0.35937,-0.02746 0.51821,0.07701c0.15884,0.10447 0.24181,0.4229 0.24181,0.4229c0,0 0.32603,0.06332 0.48094,0.17024c0.15491,0.10692 0.30595,0.37285 0.30595,0.37285c0,0 0.29813,-0.0667 0.42396,-0.03557c0.12582,0.03113 0.26124,0.20509 0.26124,0.20509c0,0 0.22187,-0.18968 0.38497,-0.19399c0.16309,-0.00431 0.38021,0.17379 0.38021,0.17379c0,0 0.14241,0.71206 -0.25516,1.47824c-0.34951,0.67357 -0.9016,0.2306 -0.9016,0.2306z" fill="#fefefe"/><path d="M236.44949,183.3182c0.09579,-0.24899 0.72998,-0.01286 1.13032,0.14116c0.40034,0.15402 0.76289,0.53635 0.68679,0.73417c-0.08923,0.23193 -0.58971,0.15472 -0.99914,0.02679c-0.81232,-0.25378 -0.89408,-0.7043 -0.81797,-0.90212z" fill="#fefefe"/></g><path d="M236.02727,178.88121c0,0 -0.85136,1.26194 -1.11667,1.2108c-0.32294,-0.06225 -0.37944,-0.63806 -0.43611,-0.91707c-0.07467,-0.36757 -0.17434,-1.23837 -0.17434,-1.23837c0,0 0.44971,0.3332 0.75903,0.5202c0.30932,0.18699 0.96809,0.42443 0.96809,0.42443z" data-paper-data="{&quot;index&quot;:null}" fill="#ebc19b" stroke="none"/><path d="M233.58511,174.57179c0,-3.59741 2.33287,-4.81667 5.20903,-4.88077c3.23761,-0.07215 5.24284,2.1854 5.20903,4.88077c-0.03607,2.87594 -2.29609,4.84469 -5.20903,4.88077c-2.87665,0.03563 -5.20903,-1.49979 -5.20903,-4.88077z" fill="#fedeb5" stroke="none"/><path d="M235.57852,177.14937c0,0 -0.18902,0.04883 -0.40311,0.17841c-0.18603,0.11259 -0.27512,0.27527 -0.5073,0.29544c-0.23219,0.02017 -0.47748,-0.2099 -0.47748,-0.2099c0,0 -0.3932,-0.80087 -0.49121,-1.58465c-0.4019,-2.45397 0.39538,-3.621 0.90021,-3.78671c0.62524,-0.20523 0.54785,0.56083 0.73125,2.76909c0.13553,1.6318 0.24763,2.33832 0.24763,2.33832z" data-paper-data="{&quot;index&quot;:null}" fill="#ea750b" stroke="none"/><path d="M237.67112,174.03143c0.62205,-1.60697 1.92124,-2.46742 2.92272,-2.10847c1.07149,0.38405 1.72423,1.62304 0.93462,3.76377c-0.287,0.7781 -1.18589,1.86349 -1.87639,2.15545c-1.20484,0.50943 -2.31612,-0.1528 -2.31612,-0.1528c0,0 -0.28687,-2.05099 0.33517,-3.65795z" fill="#ea750b" stroke="none"/><path d="M237.39342,175.17054c0.30048,-1.34302 1.31023,-2.28491 2.09312,-2.04978c0.78289,0.23514 1.11508,1.33006 0.83699,2.8652c-0.19211,1.06052 -0.80141,1.76892 -0.80141,1.76892c0,0 -0.37702,0.31379 -1.12458,0.24478c-0.96206,-0.08881 -1.06323,-0.33952 -1.06323,-0.33952c0,0 -0.26939,-1.02134 0.0591,-2.48961z" fill="#ffffff" stroke="none"/><g stroke="none"><path d="M237.2666,176.17982c0.05851,-0.90503 0.37154,-1.62539 0.69918,-1.60898c0.32764,0.01642 0.54581,0.76339 0.48729,1.66842c-0.05851,0.90503 -0.37154,1.62539 -0.69918,1.60898c-0.32764,-0.01642 -0.54581,-0.76339 -0.48729,-1.66842z" fill="#a06803"/><path d="M237.43697,176.27542c0.0316,-0.53276 0.20067,-0.95682 0.37764,-0.94716c0.17696,0.00966 0.2948,0.44938 0.2632,0.98214c-0.0316,0.53276 -0.20067,0.95682 -0.37764,0.94716c-0.17696,-0.00966 -0.2948,-0.44938 -0.2632,-0.98214z" fill="#000000"/><path d="M237.71294,175.11176c0.11602,0.00562 0.19327,0.26143 0.17255,0.57136c-0.02072,0.30994 -0.13156,0.55663 -0.24758,0.55101c-0.11602,-0.00562 -0.19327,-0.26143 -0.17255,-0.57136c0.02072,-0.30994 0.13156,-0.55663 0.24758,-0.55101z" fill="#ffffff"/></g><path d="M235.42052,175.21497c0.10392,1.32311 0.13392,1.95459 0.13392,1.95459c0,0 -0.14876,0.07956 -0.30921,0.16265c-0.16045,0.0831 -0.39159,0.25388 -0.39159,0.25388c0,0 -0.35988,-0.8053 -0.44466,-1.72144c-0.12272,-1.32615 0.02514,-2.26987 0.36936,-2.47513c0.38654,-0.23049 0.55075,0.6613 0.64218,1.82545z" data-paper-data="{&quot;index&quot;:null}" fill="#ffffff" stroke="none"/><g stroke="none"><path d="M234.86233,175.89652c-0.0191,-0.7467 0.14803,-1.35724 0.3733,-1.36367c0.22526,-0.00643 0.42336,0.59368 0.44246,1.34039c0.0191,0.7467 -0.14803,1.35724 -0.3733,1.36367c-0.22526,0.00643 -0.42336,-0.59368 -0.44246,-1.34039z" fill="#a06803"/><path d="M235.18168,175.16399c0.12172,-0.00281 0.23109,0.35109 0.24427,0.79048c0.01319,0.43939 -0.0748,0.79786 -0.19652,0.80069c-0.12172,0.00282 -0.23109,-0.35109 -0.24427,-0.79048c-0.01319,-0.43939 0.0748,-0.79786 0.19652,-0.80068z" fill="#000000"/><path d="M235.09796,174.99238c0.07976,-0.00243 0.14933,0.20292 0.1554,0.45868c0.00607,0.25575 -0.05365,0.46506 -0.13341,0.46749c-0.07976,0.00243 -0.14933,-0.20292 -0.1554,-0.45868c-0.00607,-0.25575 0.05365,-0.46506 0.13341,-0.46749z" fill="#ffffff"/></g><path d="M237.3662,175.16815c0,0 0.66567,-2.28722 1.92739,-2.24403c1.40985,0.04827 1.23687,2.13625 1.23687,2.13625c0,0 0.89083,0.0728 1.36641,-0.01595c0.46783,-0.08731 1.4642,-0.5123 1.4642,-0.5123c0,0 -0.52109,0.66835 -1.72006,0.85102c-0.63378,0.09656 -1.26469,-0.0164 -1.26469,-0.0164c0,0 0.1008,-0.69591 -0.28502,-1.47054c-0.22407,-0.44987 -0.57156,-0.49039 -0.77489,-0.51662c-1.0501,-0.13545 -1.95022,1.78858 -1.95022,1.78858z" fill="#000000" stroke="none"/><path d="M234.90885,173.59324c-0.4527,0.01858 -0.53344,1.37668 -0.53344,1.37668c0,0 -0.8306,-0.03874 -1.48007,-0.44145c-0.66544,-0.41263 -1.039,-1.20713 -1.039,-1.20713c0,0 0.53645,0.81845 1.48878,1.20418c0.87745,0.3554 0.89498,0.17875 0.89498,0.17875c0,0 0.1467,-1.47852 0.63971,-1.52679c0.44121,-0.0432 0.43682,1.02998 0.43682,1.02998c0,0 -0.14403,-0.62504 -0.40779,-0.61421z" fill="#000000" stroke="none"/><path d="M235.24674,173.42905l2.46872,0.50325c0,0 -0.26799,0.50661 -0.4093,1.74671c-0.14578,1.27926 0.02041,1.92339 0.02041,1.92339c0,0 -0.74999,-0.37664 -1.04501,-0.45607c-0.29788,-0.0802 -0.72734,0.01911 -0.72734,0.01911z" fill="#fedeb5" stroke="none"/><path d="M241.75053,184.93983c0,-0.31245 0.25081,-0.56573 0.5602,-0.56573c0.30939,0 0.5602,0.25329 0.5602,0.56573c0,0.31245 -0.25081,0.56573 -0.5602,0.56573c-0.30939,0 -0.5602,-0.25329 -0.5602,-0.56573z" fill="#f5cda8" stroke="none"/><path d="M241.98065,179.11346c1.76636,0.03432 4.29923,0.91312 4.29923,0.91312c0,0 0.00276,2.10593 -0.74706,3.09639c-0.90468,1.19501 -1.96648,1.88924 -4.03401,1.79997c-0.76617,-0.01592 -1.68376,-0.34045 -2.42885,-1.40956c-0.72425,-1.03922 0.04163,-4.08247 0.04163,-4.08247c0,0 1.28409,-0.34824 2.86906,-0.31744z" fill="#ef4019" stroke="none"/><path d="M240.16368,180.71037c-0.37852,0.04639 -0.54908,-1.25523 -0.54908,-1.25523l0.99234,-0.19109c0,0 0.14466,1.37426 -0.44326,1.44631z" fill="#08abe8" stroke="none"/><path d="M239.06002,182.29175c-0.04194,-0.78665 0.77998,-1.9107 0.77998,-1.9107l0.21731,0.29675c0,0 -0.21219,0.6587 -0.3476,1.26622c-0.12487,0.56023 -0.17066,1.07269 -0.23928,1.08192c-0.14303,0.01925 -0.39811,-0.5036 -0.41041,-0.73418z" fill="#08abe8" stroke="none"/><path d="M240.32686,180.63833l0.19168,-0.29745c0,0 0.7023,0.88272 0.73641,1.85046c0.00588,0.16679 -0.1192,0.5996 -0.4549,0.71639c-0.06314,0.02197 -0.11648,-0.48852 -0.21849,-1.00961c-0.11992,-0.61264 -0.2547,-1.25979 -0.2547,-1.25979z" fill="#08abe8" stroke="none"/><path d="M240.12886,179.29966c0,0 0.15609,-0.13127 0.45459,-0.22604c0.2985,-0.09476 0.52828,-0.17179 0.52828,-0.17179l-0.0234,1.82533z" fill="#ffffff" stroke="none"/><path d="M239.17827,179.31206c0,0 0.19987,-0.04137 0.47493,-0.00598c0.27506,0.03538 0.39132,0.05605 0.39132,0.05605l-0.60344,1.46017z" fill="#ffffff" stroke="none"/><path d="M234.75562,177.60871c0.19332,0.00696 0.63335,-0.55672 1.2083,-0.49598c0.78565,0.083 1.5277,0.84608 2.52161,0.8728c1.20091,0.03228 1.92777,-1.07152 2.74346,-0.58837c0.92949,0.55056 -0.10703,2.29042 -2.71974,2.12909c-2.48723,-0.15358 -3.6689,-0.97764 -4.19997,-1.58478c-0.14798,-0.16918 -0.1445,-0.57137 -0.1445,-0.57137c0,0 0.38119,0.23107 0.59084,0.23861z" fill="#ffffff" stroke="none"/><g stroke="none"><path d="M235.04149,177.51363c-0.03646,-0.15044 0.18072,-0.28068 0.40365,-0.28068c0.22293,0 0.45123,0.13355 0.40365,0.28068c-0.04105,0.12695 -0.13967,0.26664 -0.40365,0.26664c-0.2503,0 -0.37628,-0.15373 -0.40365,-0.26664z" fill="#6b4209"/><path d="M235.19201,177.38347c0,-0.04534 0.0827,-0.0821 0.18472,-0.0821c0.10202,0 0.18472,0.03676 0.18472,0.0821c0,0.04534 -0.0827,0.0821 -0.18472,0.0821c-0.10202,0 -0.18472,-0.03676 -0.18472,-0.0821z" fill="#ffffff"/></g><path d="M237.72338,178.86124c0,0 0.18258,0.05473 0.47891,0.05473c0.30545,0 0.65679,-0.06842 0.65679,-0.06842c0,0 -0.27798,0.17497 -0.6431,0.19156c-0.36513,0.0166 -0.49259,-0.17788 -0.49259,-0.17788z" fill="#000000" stroke="none"/><path d="M243.84786,177.45008c0,0 0.88875,0.21681 1.27561,1.09882c0.47347,1.0795 -0.07588,2.1386 -1.14763,2.17994c-0.35769,0.01379 -1.03113,-0.2062 -1.23416,-0.86288c-0.1925,-0.62257 -0.1199,-0.95081 0.10072,-1.32829c0.24676,-0.42223 0.97555,-0.53739 0.97555,-0.53739z" fill="#ebc19b" stroke="none"/><path d="M236.23007,171.22958c0.19609,-0.95103 0.39066,-1.21544 0.39066,-1.21544c0,0 0.85161,-0.27534 1.72764,-0.3181c1.27739,-0.06235 1.91534,0.13463 1.91534,0.13463c0,0 -1.14429,0.43186 -1.88016,0.91637c-0.39817,0.26216 -0.76187,0.44409 -1.05604,0.71191c-0.47974,0.43677 -0.86984,0.75867 -0.96791,0.75088c-0.18323,-0.01456 -0.21814,-0.55048 -0.12953,-0.98024z" fill="#ea750b" stroke="none"/><path d="M241.0283,178.92828c0,0 0.85949,-0.50418 1.24334,-0.84652c0.38385,-0.34235 0.92589,-0.92589 0.92589,-0.92589c0,0 0.088,1.2441 0.07955,1.77778c-0.00642,0.40508 0.06493,1.2253 -0.37054,1.3967c-0.35776,0.14082 -1.87823,-1.40206 -1.87823,-1.40206z" fill="#fedeb5" stroke="none"/><path d="M241.15674,179.93413c-0.05427,-0.66976 -0.00566,-1.18628 0.46478,-1.25832c0.42911,-0.06571 0.60704,0.49732 0.6613,1.16707c0.00849,0.10478 0.15845,2.53072 -0.06263,2.90685c-0.63951,1.08803 -1.11175,0.39323 -1.11175,0.39323c0,0 -0.00563,-1.21451 0.00704,-1.83704c0.01267,-0.62252 0.0606,-1.1331 0.04125,-1.3718z" fill="#fde1c0" stroke="none"/><path d="M239.90949,186.90774l-0.53345,-0.60592c0,0 0.0392,-1.53312 2.12315,-2.26392c1.34731,-0.47249 2.02081,1.29434 2.02081,1.29434c0,0 0.52176,-0.3995 0.61397,-0.00609c0.47015,2.00609 -0.53295,2.00656 -0.53295,2.00656c0,0 -0.1607,0.23943 -0.35291,0.29879c-0.19221,0.05936 -0.57826,-0.01122 -0.57826,-0.01122c0,0 -0.21826,0.2345 -0.43893,0.27906c-0.22068,0.04455 -0.56165,-0.07704 -0.56165,-0.07704c0,0 -0.17925,0.31137 -0.43717,0.42178c-0.77657,0.33243 -1.32259,-1.33634 -1.32259,-1.33634z" fill="#ffffff" stroke="#000000"/><path d="M242.93387,184.22835c-0.72538,0.4365 -1.96228,0.2828 -2.16226,0.09295c-0.31765,-0.30156 -0.10284,-0.87704 -0.10284,-0.87704c0,0 0.55868,-0.53497 1.26696,-0.73829c0.48878,-0.14031 1.01669,0.19025 1.01669,0.19025c0,0 0.17257,0.47407 0.18047,0.70373c0.00791,0.22967 0.04531,0.48137 -0.19903,0.6284z" fill="#fefefe" stroke="none"/><path d="M240.12002,185.73794c0,0 -0.05157,0.32918 -0.09703,0.5454c-0.04546,0.21622 -0.11522,0.65395 -0.11522,0.65395c0,0 -0.02785,-0.32234 -0.015,-0.5549c0.01663,-0.30086 0.22724,-0.64444 0.22724,-0.64444z" fill="#000000" stroke="none"/><path d="M243.38098,186.51794c0,0 0.03409,-0.3866 0.05782,-0.60627c0.02371,-0.21967 0.07061,-0.58312 0.07061,-0.58312c0,0 0.02169,0.29729 0.03205,0.52997c0.01339,0.30103 -0.16047,0.65941 -0.16047,0.65941z" data-paper-data="{&quot;index&quot;:null}" fill="#000000" stroke="none"/><path d="M242.35411,183.76738c-0.24305,-0.10726 -0.33366,-0.29296 -0.2475,-0.53504c0.04858,-0.13648 0.16818,-0.26683 0.41124,-0.15958c0.24305,0.10726 0.34414,0.418 0.29961,0.55587c-0.04451,0.13786 -0.22029,0.24602 -0.46335,0.13876z" fill="#f7e300" stroke="none"/><path d="M234.04198,170.13949c0,0 -2.6833,2.99689 -4.09615,3.04508c-0.65514,0.02235 -1.16154,-0.04554 -1.64368,-0.10196c-0.48215,-0.05642 -0.97817,-0.13224 -2.00477,-0.45489c-1.28063,-0.4025 -1.70217,-1.51625 -1.43522,-1.78016c0.66932,-0.66171 1.457,-0.21599 2.54655,-0.24487c1.08956,-0.02888 1.48026,-0.03515 2.52426,-0.03246z" fill="#ea750b" stroke="none"/><path d="M232.64936,170.22602c0,0 0.78596,-0.24434 1.46033,-0.38528c0.67437,-0.14094 2.26379,0.19967 2.26379,0.19967l-1.82571,1.61689c0,0 -1.57999,0.79647 -2.13968,0.88549c-0.47178,0.07503 -2.29656,0.62508 -2.29656,0.62508c0,0 1.74922,-1.9573 2.10891,-2.4294z" fill="#fedeb5" stroke="none"/><path d="M247.66855,170.66638c1.044,-0.00269 1.4347,0.00358 2.52426,0.03246c1.08955,0.02888 1.87723,-0.41684 2.54655,0.24487c0.26695,0.26391 -0.15459,1.37766 -1.43522,1.78016c-1.0266,0.32265 -1.52262,0.39847 -2.00477,0.45489c-0.48214,0.05642 -0.98854,0.12431 -1.64368,0.10196c-1.41285,-0.04819 -4.09615,-3.04508 -4.09615,-3.04508z" data-paper-data="{&quot;index&quot;:null}" fill="#ea750b" stroke="none"/><path d="M245.38108,170.83462c0.35969,0.4721 2.10891,2.4294 2.10891,2.4294c0,0 -1.82478,-0.55005 -2.29656,-0.62508c-0.55969,-0.08902 -2.13968,-0.88549 -2.13968,-0.88549l-1.82571,-1.61689c0,0 1.58942,-0.34061 2.26379,-0.19967c0.67437,0.14094 1.46033,0.38528 1.46033,0.38528z" data-paper-data="{&quot;index&quot;:null}" fill="#fedeb5" stroke="none"/></g></g></svg>