<svg version="1.1" xmlns="http://www.w3.org/2000/svg" xmlns:xlink="http://www.w3.org/1999/xlink" width="25.39578" height="35.63544" viewBox="0,0,25.39578,35.63544"><g transform="translate(-224.72055,-162.93489)"><g data-paper-data="{&quot;isPaintingLayer&quot;:true}" fill-rule="nonzero" stroke-miterlimit="10" stroke-dasharray="" stroke-dashoffset="0" style="mix-blend-mode: normal"><g data-paper-data="{&quot;index&quot;:null}" stroke="none" stroke-width="0" stroke-linecap="butt" stroke-linejoin="miter"><path d="M244.27512,178.10381c0.23016,0.98059 0.41607,2.54717 0.41607,2.54717c0,0 -0.49919,0.02964 -0.77566,-0.11295c-0.27649,-0.14259 -0.31655,-0.09669 -0.31655,-0.09669c0,0 -0.04823,-2.23679 -0.24153,-2.58147c-0.47904,-0.85418 -2.93244,0.04505 -2.87577,-1.15305c0.0142,-0.30021 0.91923,-0.25721 1.22596,-0.25524c0.20608,0.00132 1.69932,0.14567 2.0962,0.41886c0.39688,0.27319 0.24112,0.25278 0.47128,1.23337z" fill="#fed5c7"/><g><path d="M242.70008,184.27456c-0.09297,0.09867 -1.12987,0.27392 -1.60399,0.28308c-0.25894,0.00498 -0.74132,0.01743 -0.91608,-0.38109c-0.04454,-0.10157 0.0057,-0.6402 0.0057,-0.6402l-0.36696,-0.2033c0,0 -0.09975,-0.22912 -0.08077,-0.37922c0.01898,-0.15011 0.15926,-0.39452 0.15926,-0.39452c0,0 -0.0755,-0.15423 -0.15079,-0.25151c-0.24576,-0.31752 0.03074,-0.57309 0.03074,-0.57309c0,0 -0.20466,-0.20989 -0.23805,-0.41971c-0.05294,-0.3326 0.07198,-0.74585 0.20889,-0.93589c0.23256,-0.32286 1.07481,-1.0446 1.41632,-0.90084c0.53191,0.22391 0.18152,0.84238 0.18152,0.84238c0,0 0.52011,-0.30393 0.88475,-0.30042c0.56146,0.00541 0.8418,0.23732 0.8418,0.23732l1.02676,2.2301c0,0 -0.81564,1.16772 -1.39911,1.78693z" fill="#ffffff"/><path d="M245.36492,182.09811c-0.2959,0.34055 -1.1656,0.85108 -1.56675,0.45247c-1.4654,-1.45613 -1.06877,-2.60238 -0.39124,-3.25109c0.44254,-0.42371 0.88101,-0.56059 1.82844,0.71986c0.33639,0.45463 0.42546,1.73818 0.12957,2.07875z" fill="#fed000"/></g></g><path d="M239.13588,182.06012c0,0 -2.61714,2.84434 -3.43084,2.97084c-0.88421,0.13744 -3.07832,-0.91025 -3.07832,-0.91025l3.13865,0.35767l2.04431,-2.29515l1.3262,-0.1231z" data-paper-data="{&quot;index&quot;:null}" fill="#f79db4" stroke="none" stroke-width="0" stroke-linecap="butt" stroke-linejoin="miter"/><g data-paper-data="{&quot;index&quot;:null}" stroke-width="0" stroke-linecap="butt" stroke-linejoin="miter"><g data-paper-data="{&quot;index&quot;:null}"><path d="M245.87424,168.04877c-1.05658,0.15139 -2.03538,-0.57929 -2.18621,-1.632c-0.15082,-1.05271 0.58343,-2.02882 1.64002,-2.18021c1.05658,-0.15139 2.0354,0.57929 2.18623,1.632c0.15082,1.05271 -0.58345,2.02882 -1.64004,2.18021z" fill="#e0cb17" stroke="none"/><path d="M245.93008,167.93892c-0.65277,0.09353 -1.25747,-0.35788 -1.35065,-1.00825c-0.09318,-0.65038 0.36043,-1.2534 1.01321,-1.34693c0.65277,-0.09353 1.25747,0.35788 1.35065,1.00825c0.09318,0.65037 -0.36043,1.2534 -1.01321,1.34693z" fill="#e0cb17" stroke="#000000"/><path d="M247.8195,170.19419c-0.19435,1.07187 -1.64386,2.94206 -1.64386,2.94206c0,0 -1.59704,-1.75874 -1.44694,-3.14617c0.14457,-1.33621 0.26746,-1.55891 0.26746,-1.55891l2.08406,-0.28358c0,0 0.93364,0.97472 0.7393,2.04659z" fill="#e8edf4" stroke="#000000"/><path d="M246.04095,168.52395c-0.57862,0.08028 -1.34383,-0.16736 -1.34383,-0.16736l0.21,-0.52499c0,0 0.67893,0.23876 1.12483,0.14886c0.44591,-0.0899 1.01068,-0.57942 1.01068,-0.57942l0.31225,0.64365c0,0 -0.80753,0.40901 -1.31393,0.47927z" fill="#dbded5" stroke="#000000"/></g><g data-paper-data="{&quot;index&quot;:null}" stroke="none"><path d="M240.57686,173.0971c0.19915,-0.02853 0.40861,0.28343 0.46783,0.6968c0.05922,0.41336 -0.05421,0.77161 -0.25336,0.80014c-0.19914,0.02853 -0.40859,-0.28343 -0.46781,-0.6968c-0.05922,-0.41337 0.05419,-0.7716 0.25334,-0.80013z" fill="#000000"/><path d="M239.93378,178.51805c0.20744,-0.02972 1.28115,1.98573 1.28115,1.98573c0,0 -0.99241,0.47828 -1.19985,0.508c-0.20744,0.02972 -0.72716,-1.11565 -0.75322,-1.29753c-0.02606,-0.18189 0.46449,-1.16647 0.67193,-1.19619z" fill="#807d5a"/><path d="M240.52448,174.40038l-0.1445,-0.29502l3.98143,-6.52834l0.15166,0.13104z" fill="#6e6e73"/><path d="M243.88199,168.15492l0.37629,0.27199l-0.96886,1.51372l-0.34625,-0.2763z" fill="#ddcb1e"/></g></g><g data-paper-data="{&quot;index&quot;:null}" stroke-width="0" stroke-linecap="butt" stroke-linejoin="miter"><g data-paper-data="{&quot;index&quot;:null}"><path d="M224.74575,170.12641c-0.19349,-1.35046 0.74846,-2.60265 2.10389,-2.79685c1.35544,-0.1942 2.61109,0.74315 2.80457,2.09359c0.19349,1.35046 -0.74846,2.60264 -2.10389,2.79684c-1.35543,0.1942 -2.61109,-0.74314 -2.80457,-2.09358z" fill="#e0cb17" stroke="none"/><path d="M225.70936,170.81144c-0.11953,-0.83432 0.46241,-1.60792 1.29979,-1.72789c0.83739,-0.11999 1.61313,0.45909 1.73266,1.29341c0.11953,0.83432 -0.4624,1.60793 -1.29978,1.7279c-0.83739,0.11999 -1.61314,-0.4591 -1.73267,-1.29342z" fill="#e0cb17" stroke="#000000"/><path d="M225.92805,175.56217c-0.62537,-1.24971 0.17307,-2.78611 0.17307,-2.78611l2.66809,-0.40154c0,0 0.23151,0.22993 0.89081,1.82303c0.68456,1.65415 0.03134,5.80259 0.03134,5.80259c0,0 -3.13795,-3.18829 -3.76333,-4.43798z" fill="#e8edf4" stroke="#000000"/><path d="M227.51623,172.86509c-0.6488,0.09589 -1.79037,-0.11681 -1.79037,-0.11681l0.15261,-0.90495c0,0 0.87169,0.39929 1.45307,0.34936c0.5814,-0.04993 1.33131,-0.58847 1.33131,-0.58847l0.44765,0.57075c0,0 -0.85294,0.58055 -1.59426,0.69011z" fill="#dbded5" stroke="#000000"/></g><g data-paper-data="{&quot;index&quot;:null}" stroke="none"><path d="M234.97754,179.18796c0.14354,-0.4491 0.08539,-2.93226 1.36876,-3.07694c0.19919,-0.02245 1.91395,1.0429 2.29461,2.0457c0.5178,1.36409 -0.30444,2.7841 -0.30444,2.7841l-3.08659,0.42263c0,0 -0.4159,-1.72641 -0.27236,-2.1755z" fill="#e4dcaa"/><path d="M235.89102,176.5275c0.25548,-0.0366 0.52417,0.3636 0.60015,0.89389c0.07597,0.53029 -0.06955,0.98984 -0.32502,1.02644c-0.25547,0.0366 -0.52415,-0.3636 -0.60013,-0.89389c-0.07598,-0.5303 0.06953,-0.98984 0.325,-1.02644z" fill="#000000"/><path d="M235.7104,183.50394c-0.26615,-0.81805 -0.46602,-2.15428 -0.46602,-2.15428c0,0 0.51168,-0.42207 0.85712,-0.58013c0.34543,-0.15806 0.9354,-0.29465 0.9354,-0.29465l1.33009,0.60231c0,0 0.62806,2.92833 0.69509,3.30528c0.13498,0.75917 -1.19697,1.53025 -1.19697,1.53025l-1.23718,-0.31038c0,0 -0.6514,-1.28034 -0.91754,-2.0984z" fill="#dfcc17"/><path d="M237.77333,185.87666c0,0 0.59598,-2.86823 0.86211,-2.90636c0.26612,-0.03813 1.22474,0.99742 1.25817,1.23075c0.03342,0.23332 -0.1939,1.83075 -0.46003,1.86888c-0.26612,0.03812 -1.66027,-0.19327 -1.66027,-0.19327z" fill="#807d5a"/><path d="M229.10352,171.31019l0.13953,-0.21597l7.25356,6.60376l-0.07163,0.41528z" fill="#6e6e73"/><path d="M231.74108,173.15333l-0.32678,0.46491l-1.73814,-1.51474l0.36533,-0.47042z" fill="#ddcb1e"/></g></g><g data-paper-data="{&quot;index&quot;:null}" stroke="none" stroke-width="0" stroke-linecap="butt" stroke-linejoin="miter"><g><path d="M249.81405,196.42805c0,0 0.80207,0.56529 -0.2068,1.01364c-1.00887,0.44835 -1.79108,0.43058 -2.80017,0.32268c-0.599,-0.06403 -1.76087,-0.69498 -1.76087,-0.69498l-0.95018,0.25193c0,0 -0.74871,-0.10926 -0.95737,-0.48315c-0.74193,-1.32946 -0.23207,-2.07359 -0.23207,-2.07359c0,0 1.26783,1.14507 2.05547,1.45142c0.97176,0.37795 3.33959,0.64697 3.33959,0.64697z" fill="#393939"/><path d="M246.88935,190.72077l0.22086,0.28685l0.0896,0.4122c0,0 0.40904,0.8089 0.60447,1.09877c0.24046,0.35667 0.49664,0.74196 1.14093,1.5149c0.51446,0.94007 0.63761,2.53635 0.63761,2.53635c0,0 -0.51729,0.42555 -1.67724,0.40864c-3.91941,-0.05719 -4.8728,-2.03007 -4.8728,-2.03007c0,0 -0.41769,-0.97051 -0.45149,-1.53491c-0.0338,-0.5644 0.15943,-1.04428 0.27436,-1.42186c0.11492,-0.37759 0.50921,-0.70833 0.50921,-0.70833c0,0 -0.1417,0.04773 -0.0922,-0.28442c0.01129,-0.07583 0.20564,-0.29814 0.20564,-0.29814l-0.18954,-0.03715l0.01606,-0.72179l3.03178,-0.12422z" fill="#f01a40"/><path d="M244.7523,186.98098c0.87843,-0.07556 1.94021,0.55065 2.00869,0.84114c0.06847,0.29051 -0.33374,0.85854 -0.33374,0.85854c0,0 0.34542,0.73416 0.1028,0.98212c-0.36166,0.36962 -0.67226,0.50952 -1.74946,0.72634c-0.60459,0.05176 -1.05904,-0.27358 -1.43976,-0.47946c-0.46604,-0.25203 -0.05393,-0.42812 -0.14392,-0.75491c-0.08999,-0.32679 0.16396,0.17981 -0.23244,-0.61196c-0.28395,-0.56714 1.35536,-1.52461 1.78783,-1.5618z" fill="#ffffff"/><path d="M246.13364,190.95719c0.02247,0.05534 0.24091,0.61883 0.24091,0.61883c0,0 1.79034,2.09586 2.08369,2.85933c0.36133,0.94032 0.62495,2.39725 0.62495,2.39725c0,0 -0.49776,0.14575 -0.75184,0.17789c-0.2614,0.03306 -1.4076,-0.05503 -1.4076,-0.05503c0,0 -0.50782,-2.64464 -0.64868,-3.07113c-0.44881,-1.0901 -0.98078,-1.98578 -0.98078,-1.98578l-0.13161,-0.31931l-0.30248,-0.26238l-0.25004,-0.95676l1.41748,-0.30788c0,0 -0.01346,0.6108 0.10599,0.90499z" fill="#ffffff"/></g><path d="M243.6229,188.41586c-0.09238,-0.37323 0.34615,-0.80288 0.97949,-0.95966c0.63334,-0.15678 1.22166,0.01869 1.31405,0.39191c0.09239,0.37324 -0.34615,0.80289 -0.97949,0.95967c-0.63335,0.15678 -1.22167,-0.01869 -1.31406,-0.39191z" fill="#afafaf"/></g><path d="M242.53423,183.34206l1.76814,3.30377l1.05167,2.05077c0,0 -0.33795,0.17486 -0.60072,0.17463c-0.26278,-0.00022 -0.67921,-0.08252 -0.67921,-0.08252l-1.13652,-1.93712l-1.59498,-3.07413z" data-paper-data="{&quot;index&quot;:null}" fill="#f79db4" stroke="none" stroke-width="0" stroke-linecap="butt" stroke-linejoin="miter"/><g data-paper-data="{&quot;index&quot;:null}" stroke="none" stroke-width="0" stroke-linecap="butt" stroke-linejoin="miter"><g><path d="M246.36764,197.60484l1.51242,-0.43489c0,0 0.80207,0.5653 -0.2068,1.01365c-1.00887,0.44834 -1.79108,0.43057 -2.80017,0.32267c-0.599,-0.06403 -1.76087,-0.69497 -1.76087,-0.69497l-0.95017,0.25192c0,0 -0.74873,-0.10925 -0.95739,-0.48314c-0.74193,-1.32944 -0.23206,-2.07359 -0.23206,-2.07359c0,0 1.26784,1.14507 2.05547,1.45142c0.97177,0.37797 3.33961,0.64698 3.33961,0.64698z" fill="#393939"/><path d="M244.95537,191.46271l0.22086,0.28685l0.0896,0.4122c0,0 0.40906,0.80891 0.60449,1.09878c0.24046,0.35668 0.49664,0.74196 1.14093,1.5149c0.51445,0.9401 0.63761,2.53635 0.63761,2.53635c0,0 -0.51729,0.42554 -1.67724,0.40863c-3.91941,-0.05719 -4.8728,-2.03007 -4.8728,-2.03007c0,0 -0.4177,-0.97051 -0.4515,-1.53491c-0.03381,-0.5644 0.15942,-1.04428 0.27435,-1.42186c0.11491,-0.37759 0.50921,-0.70833 0.50921,-0.70833c0,0 -0.14169,0.04773 -0.09219,-0.28442c0.0113,-0.07582 0.20565,-0.29814 0.20565,-0.29814l-0.18956,-0.03716l0.01607,-0.72179l3.03178,-0.12423z" fill="#f01a40"/><path d="M242.81834,187.72292c0.87842,-0.07554 1.94021,0.55065 2.00869,0.84114c0.06845,0.29051 -0.33375,0.85855 -0.33375,0.85855c0,0 0.34543,0.73416 0.10281,0.98212c-0.36165,0.36961 -0.67227,0.50951 -1.74947,0.72633c-0.60459,0.05176 -1.05903,-0.27359 -1.43975,-0.47947c-0.46603,-0.25202 -0.05393,-0.42812 -0.14392,-0.75491c-0.08999,-0.3268 0.16396,0.17981 -0.23244,-0.61196c-0.28394,-0.56714 1.35535,-1.52462 1.78782,-1.56181z" fill="#ffffff"/><path d="M244.19966,191.69914c0.02245,0.05533 0.24091,0.61883 0.24091,0.61883c0,0 1.79034,2.09585 2.08369,2.85932c0.36133,0.94032 0.62495,2.39725 0.62495,2.39725c0,0 -0.49776,0.14574 -0.75184,0.17788c-0.26141,0.03307 -1.4076,-0.05503 -1.4076,-0.05503c0,0 -0.50782,-2.64463 -0.64868,-3.07112c-0.44881,-1.09011 -0.98078,-1.98579 -0.98078,-1.98579l-0.13161,-0.3193l-0.30247,-0.2624l-0.25005,-0.95676l1.41748,-0.30788c0,0 -0.01346,0.6108 0.10599,0.90499z" fill="#ffffff"/></g><path d="M241.6889,189.15778c-0.09239,-0.37323 0.34615,-0.80289 0.97949,-0.95967c0.63335,-0.15677 1.22168,0.01869 1.31407,0.39191c0.09239,0.37323 -0.34615,0.80288 -0.97949,0.95966c-0.63334,0.15677 -1.22166,-0.01869 -1.31405,-0.39191z" fill="#afafaf"/></g><path d="M237.93249,177.0905l0.99068,0.23236c0,0 0.21211,0.78707 0.12453,1.1352c-0.08261,0.32836 -0.71176,0.90861 -0.71176,0.90861z" data-paper-data="{&quot;index&quot;:null}" fill="#f25c76" stroke="none" stroke-width="0" stroke-linecap="butt" stroke-linejoin="miter"/><path d="M241.46223,183.8275l1.3487,3.91476l0.55592,1.72087c0,0 -0.54432,0.1442 -0.81818,0.13509c-0.27386,-0.00911 -0.67734,-0.18483 -0.67734,-0.18483l-0.39734,-1.29292l-1.15073,-3.59729z" data-paper-data="{&quot;index&quot;:null}" fill="#f79db4" stroke="none" stroke-width="0" stroke-linecap="butt" stroke-linejoin="miter"/><path d="M246.09936,180.94477c0,0 -1.05828,4.29093 -5.61846,4.83668c-4.68597,0.64665 -6.47512,-2.9686 -6.47512,-2.9686l1.04701,-0.39999c0,0 0.94712,2.94217 5.64107,2.10871c4.06501,-0.72179 4.18994,-3.69771 4.18994,-3.69771z" data-paper-data="{&quot;index&quot;:null}" fill="#ffffff" stroke="none" stroke-width="0" stroke-linecap="butt" stroke-linejoin="miter"/><path d="M241.5089,177.95523c0.20131,0.63131 0.18757,2.21531 0.18757,2.21531l0.34539,0.11043l0.06894,0.14863l2.88094,0.40042c0,0 -0.16913,1.14722 -0.8978,1.94163c-1.13372,1.23598 -2.16489,1.88045 -3.86713,1.97795c-1.86347,0.10674 -2.37806,-0.09775 -3.67978,-0.71232c-1.4126,-0.66691 -1.52353,-1.59128 -1.52353,-1.59128l1.3191,-0.64956l0.58234,-0.37456l0.05115,-0.17256l1.3384,-0.91463l0.01238,-1.07123c0,0 0.46625,-0.37887 0.57117,-0.88853c0.08311,-0.40375 -0.03419,-1.14671 -0.03419,-1.14671l1.13121,-0.51214l0.36904,-0.01468c0,0 0.96468,0.68878 1.14486,1.25383z" data-paper-data="{&quot;index&quot;:null}" fill="#f01a40" stroke="none" stroke-width="0" stroke-linecap="butt" stroke-linejoin="miter"/><path d="M237.56738,176.88215c0,0 1.105,0.03315 1.61082,-0.0231c0.50581,-0.05627 1.26889,-0.29719 1.26889,-0.29719c0,0 0.06745,0.72734 -1.23409,0.89216c-1.3993,0.1772 -1.64561,-0.57188 -1.64561,-0.57188z" data-paper-data="{&quot;index&quot;:null}" fill="#afafaf" stroke="none" stroke-width="0" stroke-linecap="butt" stroke-linejoin="miter"/><g data-paper-data="{&quot;index&quot;:null}" stroke-linecap="butt" stroke-linejoin="miter"><path d="M236.834,165.88207l2.05886,8.84749c0,0 -2.21864,1.90726 -3.89323,0.85201c-1.58705,-1.00008 -2.54907,-2.09445 -3.10623,-4.01914c-1.45098,-5.01244 3.02288,-6.36106 3.02288,-6.36106z" fill="#fbdd00" stroke="none" stroke-width="0"/><path d="M236.3389,165.68481c0,0 -0.62146,0.18323 -1.20075,0.55459c-0.38766,0.2485 -0.71222,0.7128 -0.92365,0.71941c-0.42523,0.01333 -0.15745,-0.23926 0.4579,-0.81152c0.28693,-0.26686 1.17068,-0.64904 1.17068,-0.64904l0.49583,0.18655z" fill="#a58c48" stroke="#000000" stroke-width="0"/><path d="M233.13913,169.2695c0.18211,-0.0475 0.08984,1.05932 0.31615,1.92704c0.22631,0.86772 1.29324,2.07358 0.89295,2.23233c-0.43834,0.17386 -1.09616,-1.21159 -1.34836,-2.07215c-0.37639,-1.28434 -0.04283,-2.03974 0.13928,-2.08724z" fill="#a58c48" stroke="#000000" stroke-width="0"/><path d="M238.24349,174.94037l-0.29855,0.28503c0,0 -0.60325,0.12476 -1.04465,0.0711c-0.39628,-0.0482 -0.50297,-0.38872 -0.4666,-0.46421c0.10337,-0.21453 0.47236,0.0869 0.91533,0.13375c0.47858,0.0506 0.89445,-0.02569 0.89445,-0.02569z" fill="#a58c48" stroke="#000000" stroke-width="0"/><path d="M238.85437,169.97484c-0.8117,-3.49093 0.90406,-4.91455 0.90406,-4.91455c0,0 -0.22051,0.00366 0.35637,-0.1475c0.57687,-0.15116 0.3117,-0.03036 0.3117,-0.03036c0,0 -1.29006,1.75694 -1.16452,3.95473c0.19979,3.49763 3.13243,5.02059 3.13243,5.02059l-0.59071,0.06944c0,0 -2.37089,-1.46444 -2.94934,-3.95233z" fill="#edeee6" stroke="none" stroke-width="0"/><path d="M238.5309,174.97413c0,0 -3.29434,-1.19754 -3.82504,-3.97536c-0.67255,-3.52035 1.79838,-5.2243 1.79838,-5.2243l0.32302,0.10804c0,0 -1.55591,1.78258 -1.48602,3.9526c0.11124,3.45342 3.52623,4.92768 3.52623,4.92768l-0.33656,0.21133z" fill="#edeee6" stroke="none" stroke-width="0"/><path d="M235.12174,170.94789c-0.81558,-3.50589 1.94994,-5.22776 1.94994,-5.22776c0,0 0.87596,-0.35386 1.45283,-0.50502c0.57688,-0.15117 1.50408,-0.26981 1.50408,-0.26981c0,0 -1.28855,1.76269 -1.16068,3.9695c0.20351,3.51194 3.13856,5.04415 3.13856,5.04415l-3.22489,0.8457c0,0 -3.07861,-1.35823 -3.65986,-3.85678z" fill="#ff1a07" stroke="none" stroke-width="0"/><path d="M236.32755,172.99551c0,0 -0.9631,-1.0987 -1.19807,-1.96573c-0.23497,-0.86703 0.2032,-2.16665 0.2032,-2.16665l3.10351,-0.80941c0,0 0.05144,1.46809 0.22589,2.13701c0.17952,0.68831 0.8567,2.01393 0.8567,2.01393z" fill="#ff1808" stroke="#000000" stroke-width="0"/><path d="M239.92232,165.01442c0,0 -0.4751,0.43693 -0.70114,0.77289c-0.22604,0.33596 -0.44843,0.93564 -0.44843,0.93564l-2.88003,0.79256c0,0 0.17923,-0.76542 0.53836,-1.18274c0.35915,-0.41731 0.96456,-0.74223 1.16277,-0.79392c0.52493,-0.13689 2.32846,-0.52439 2.32846,-0.52439z" fill="#ff1808" stroke="#000000" stroke-width="0"/><path d="M238.80433,174.62835c-0.44267,0.0329 -1.44628,-0.70006 -1.44628,-0.70006l3.04532,-0.79423c0,0 0.38479,0.22532 0.64281,0.34619c0.25802,0.12087 0.89116,0.37242 0.89116,0.37242c0,0 -2.52834,0.73074 -3.13301,0.77568z" fill="#ff1808" stroke="#000000" stroke-width="0"/><path d="M242.61377,170.72726c0.33808,1.29622 2.6839,3.3845 2.6839,3.3845c0,0 -0.67036,0.4171 -1.55402,0.33676c-1.38243,-0.12568 -3.31928,-0.98444 -4.20463,-3.91372c-1.68835,-5.58601 3.21607,-7.44724 3.21607,-7.44724c0,0 -0.47937,6.34346 -0.14131,7.6397z" fill="#fbdd00" stroke="none" stroke-width="0"/><path d="M240.19862,169.7278c0.17602,0.6749 0.91362,2.23391 0.64924,2.17162c-0.39116,-0.09215 -0.9502,-1.33123 -1.10464,-2.0114c-0.27887,-1.22813 -0.00748,-2.13183 0.09965,-2.15976c0.10714,-0.02792 0.12917,1.13072 0.35576,1.99957z" fill="#a58c48" stroke="#000000" stroke-width="0"/><path d="M240.96472,164.24539c0,0 -0.58899,1.44386 -0.82992,1.58372c-0.37545,0.21794 0.39136,-1.20004 0.39136,-1.20004l0.43856,-0.38369z" fill="#a58c48" stroke="#000000" stroke-width="0"/><path d="M241.88171,173.16282c0.36422,-0.095 1.75159,1.21166 1.75159,1.21166l-0.82271,-0.1404c0,0 -1.29311,-0.97629 -0.92888,-1.07127z" fill="#a58c48" stroke="#000000" stroke-width="0"/><path d="M247.47788,167.37909c0.77551,3.13236 0.09934,6.16279 -2.23133,6.77064c-1.67117,0.43586 -3.65334,-2.09316 -4.33779,-4.87639c-0.65566,-2.66617 0.1626,-5.71867 1.83377,-6.15452c1.67116,-0.43584 4.05101,1.60151 4.71084,4.26664z" fill="#fbdd00" stroke="#000000" stroke-width="0.25"/><path d="M247.63133,167.69993c0.61745,2.36749 0.30167,4.49962 -0.70531,4.76224c-1.00698,0.26262 -2.32385,-1.44371 -2.9413,-3.8112c-0.61744,-2.36747 -0.30167,-4.4996 0.70531,-4.76222c1.00698,-0.26263 2.32385,1.44369 2.9413,3.81118z" fill="#fbdd00" stroke="#000000" stroke-width="0.25"/><path d="M242.59161,175.972l1.31724,3.95786l2.2056,6.71325c0,0 -0.17623,0.52201 -0.39841,0.59156c-0.2222,0.06953 -0.81872,-0.07235 -0.81872,-0.07235l-2.58083,-6.53373l-1.6308,-3.98217c0,0 0.64341,-0.04914 1.02752,-0.18505c0.38412,-0.13592 0.8784,-0.48938 0.8784,-0.48938z" fill="#fbdd00" stroke="none" stroke-width="0"/><path d="M242.19639,173.9266c0,0 0.58441,1.73492 0.5431,1.8363c-0.15682,0.38487 -1.75311,1.04256 -2.31274,0.87211c-0.33043,-0.10062 -1.26871,-2.45562 -1.26871,-2.45562l2.71857,-0.41851z" fill="#c8c8c6" stroke="none" stroke-width="0"/><path d="M234.7324,165.29073c0,0 -2.29955,0.73892 -2.93183,3.13306c-0.15336,0.58076 -0.08742,1.39746 -0.00679,2.16456c0.11989,1.14038 0.55391,2.42204 1.30009,3.31142c0.92198,1.0989 2.29388,1.78911 2.29388,1.78911c0,0 -3.60493,-1.09692 -4.02731,-4.42251c-0.62604,-4.92883 3.372,-5.97563 3.372,-5.97563z" fill="#fbdd00" stroke="#000000" stroke-width="0.25"/><path d="M246.11443,186.6431c0,0 -0.17623,0.52201 -0.39841,0.59156c-0.22219,0.06954 -0.81872,-0.07233 -0.81872,-0.07233l-1.12167,-2.79852c0,0 0.27525,-0.18987 0.65936,-0.32578c0.38411,-0.13592 0.77044,-0.17712 0.77044,-0.17712z" fill="#a56402" stroke="none" stroke-width="0"/></g><g data-paper-data="{&quot;index&quot;:null}" stroke="none" stroke-width="0" stroke-linecap="butt" stroke-linejoin="miter"><path d="M240.82788,180.17618c0,0 1.36528,-0.58629 2.22305,-0.81412c0.13667,-0.03629 1.15211,0.37878 1.57734,0.63146c0.23226,0.13801 0.66664,0.39234 0.60231,0.84169c-0.0164,0.11456 -0.35722,0.56431 -0.35722,0.56431l0.2134,0.38205c0,0 -0.03761,0.25793 -0.137,0.38055c-0.0994,0.1226 -0.3582,0.26206 -0.3582,0.26206c0,0 -0.01793,0.17824 -0.00471,0.30587c0.04315,0.41661 -0.3425,0.49101 -0.3425,0.49101c0,0 0.0659,0.29864 -0.01991,0.50296c-0.13603,0.32391 -0.47408,0.62145 -0.69997,0.71459c-0.38371,0.15822 -1.52725,0.3346 -1.75086,0.01931c-0.34826,-0.49105 0.30252,-0.84648 0.30252,-0.84648c0,0 -0.6282,-0.01676 -0.94944,-0.22046c-0.49467,-0.31366 -0.61556,-0.67342 -0.61556,-0.67342l0.31676,-2.54139z" fill="#ffffff"/><path d="M238.60604,181.4712c-0.081,-0.58433 0.47847,-1.80434 0.91957,-1.96845c0.44109,-0.16412 1.49255,-0.19728 1.66084,0.36812c0.6148,2.06543 -0.32093,2.9171 -1.26541,3.1728c-0.6169,0.16704 -1.0868,0.0734 -1.31498,-1.57246z" fill="#fed000"/><path d="M239.00911,181.34664c0.04074,-0.5432 0.28832,-0.96745 0.55297,-0.94758c0.26463,0.01988 0.44611,0.4763 0.40535,1.01949c-0.04074,0.5432 -0.28831,0.96746 -0.55296,0.94759c-0.26465,-0.01988 -0.44613,-0.47632 -0.40537,-1.01951z" fill="#c28830"/><path d="M238.01549,177.83237c0.13611,-0.32156 0.61189,-0.49895 0.73817,-0.06516c0.29304,1.00666 -1.23822,2.92732 -0.72447,2.92921c1.30115,0.08022 1.91062,0.07033 1.91062,0.07033c0,0 0.17465,0.5148 0.03975,0.80995c-0.13488,0.29516 -0.13933,0.40614 -0.13933,0.40614c0,0 -1.51951,-0.20451 -2.04443,-0.23687c-0.86103,-0.05308 -1.11844,-0.33124 -1.06564,-0.84208c0.13616,-1.31719 1.14923,-2.74998 1.28534,-3.07153z" fill="#fed5c7"/></g><g data-paper-data="{&quot;index&quot;:null}"><g><path d="M238.00476,170.82894c0,0 0.63112,-0.66201 1.42281,-0.73689c0.70652,-0.06683 1.01559,0.13737 1.46109,0.65969c0.67486,0.7912 0.25703,2.12674 0.25703,2.12674c0,0 0.39438,-2.01771 -1.13549,-2.54426c-0.9465,-0.32575 -2.00546,0.49472 -2.00546,0.49472z" fill="#000000" stroke="none" stroke-width="0" stroke-linecap="butt" stroke-linejoin="miter"/><path d="M239.19315,165.93228c3.33749,0.06754 5.99585,2.45567 5.93761,5.33404c-0.05824,2.87835 -2.81102,5.15698 -6.14852,5.08945c-3.33751,-0.06753 -5.99586,-2.45564 -5.93762,-5.33401c0.05824,-2.87837 2.81102,-5.15701 6.14853,-5.08947z" fill="#f79eb4" stroke="none" stroke-width="0" stroke-linecap="butt" stroke-linejoin="miter"/><path d="M233.78246,172.30037c-0.00017,-0.00072 0.1737,1.17108 0.56728,1.82661c0.3936,0.65553 1.91052,2.41085 1.91052,2.41085l0.26413,0.91669c0,0 -1.47831,-0.08763 -2.64492,-2.28101c-0.72768,-1.35896 -0.67639,-2.41864 -0.67045,-2.4024" fill="#f79eb4" stroke="#f89db5" stroke-width="0" stroke-linecap="butt" stroke-linejoin="round"/><g fill="#ffd5c5" stroke="none" stroke-width="1" stroke-linecap="round" stroke-linejoin="round"><path d="M234.65635,174.71378c0.01404,-0.058 0.10602,0.06127 0.14816,0.10353c0.26039,0.26091 0.56179,-0.02886 0.76225,-0.17931c0.15403,-0.11556 0.40347,-0.17353 0.59204,-0.17194c0.90715,0.01719 2.64002,0.6426 2.95346,0.66232c0.29171,0.01836 1.1495,-0.43356 1.46179,-0.53284c0.32039,-0.10187 0.58885,0.0046 0.63641,0.04298c0.09971,0.08051 0.80789,0.59408 -0.17216,1.60706c-0.13619,0.14074 -0.98842,0.65167 -1.46238,0.69799c-0.39742,0.0388 -1.78182,0.20889 -2.82042,-0.16234c-0.82774,-0.29588 -1.32687,-0.69823 -1.39055,-0.74988c-0.38923,-0.31579 -0.8371,-0.78541 -0.70862,-1.31756z"/><path d=""/></g><g fill="#000000" stroke="#000000" stroke-width="0.125" stroke-linecap="butt" stroke-linejoin="round"><path d="M233.80747,173.14538c0.00302,0.02463 -0.62866,-0.09485 -0.70578,-0.11881c-0.35125,-0.10902 -0.64899,-0.22413 -0.97791,-0.39001c-0.10495,-0.05291 -0.44999,-0.27543 -0.44452,-0.27347c0.1609,0.05738 0.3052,0.1656 0.4646,0.23011c0.26627,0.10769 0.54127,0.19163 0.81681,0.27301c0.43817,0.11215 0.73495,0.08768 0.79694,0.10979"/><path d="M233.68506,172.65148c0.0028,0.02297 -0.61277,-0.12885 -0.90485,-0.29451c-0.29207,-0.16565 -0.92255,-0.7047 -0.91591,-0.69068c0.0176,0.03713 0.58858,0.41085 1.00211,0.60611c0.41354,0.19527 0.74507,0.18958 0.77116,0.16464"/></g><g fill="#000000" stroke="none" stroke-width="1" stroke-linecap="round" stroke-linejoin="round"><path d="M236.31788,174.76054c0.19343,0.14611 -0.20664,0.33285 -0.4464,0.36355c-0.11008,0.00512 -0.48345,-0.24924 -0.3233,-0.36176c0.09258,-0.06504 0.62269,-0.11285 0.76971,-0.0018z"/><path d=""/></g><path d="M243.55998,171.67886c0.02255,0.01421 -0.18376,2.29985 -0.34205,2.81957c-0.23749,0.77984 -0.61026,1.51927 -1.15243,2.13173c-0.23051,0.26039 -0.46856,0.47443 -0.73777,0.68987c-0.08715,0.06976 -0.44955,0.29689 -0.44955,0.29689c0,0 0.40369,-1.02037 0.4782,-2.67723c0.03955,-0.87984 -0.04124,-2.83058 -0.02185,-2.77717" fill="#f79eb4" stroke="#f89db5" stroke-width="0" stroke-linecap="butt" stroke-linejoin="round"/><path d="M244.95276,171.0373c0.17242,0.36302 0.03199,2.22692 -0.3646,3.578c-0.30563,1.0412 -0.59046,1.31784 -1.09783,1.8649c-0.57459,0.61953 -0.98708,0.67465 -0.98708,0.67465c0,0 0.49047,-1.14612 0.65264,-1.9212c0.16218,-0.77508 0.51371,-3.56937 0.49937,-3.58431" fill="#f79eb4" stroke="#f89db5" stroke-width="0" stroke-linecap="butt" stroke-linejoin="round"/><g fill="#ee1a40" stroke="none" stroke-width="1" stroke-linecap="round" stroke-linejoin="round"><path d="M234.99081,167.80633c0.09442,-0.11611 2.33985,-1.86067 5.07556,-1.34746c3.3806,0.67348 3.63372,4.78317 3.6313,4.78248c-0.03372,-0.00963 -0.54501,-1.58956 -1.4087,-2.29541c-1.11992,-0.91527 -1.76852,-1.44676 -3.01312,-1.68886c-1.57909,-0.30718 -3.81377,1.03877 -3.90149,1.09293"/><path d=""/></g><path d="M234.85155,170.5865c-0.02938,-0.02484 -1.64056,-0.25 -2.21234,-0.04562c-1.04718,0.37429 -2.78454,1.27274 -2.80781,1.27471c-0.0162,0.00131 0.56279,-0.57647 0.89901,-1.24863c0.27997,-0.7409 1.32158,-1.2483 1.64075,-1.32129c1.79078,-0.39942 2.72611,0.219 2.70379,0.20012" fill="#f79eb4" stroke="#f89db5" stroke-width="0" stroke-linecap="butt" stroke-linejoin="round"/><path d="M235.06636,169.44801c-0.10223,-0.08555 -1.33902,-0.96773 -2.37298,-1.18415c-0.74525,-0.15599 -2.58258,-1.1491 -2.58258,-1.1491c0,0 1.60574,0.34284 3.66435,0.29255c0.60377,0.04368 0.77039,0.11616 1.04623,0.37499c0.27585,0.25883 1.09267,1.6353 1.10007,1.71854" fill="#f79eb4" stroke="#f89db5" stroke-width="0" stroke-linecap="butt" stroke-linejoin="round"/><g stroke="none" stroke-width="1" stroke-linecap="round" stroke-linejoin="round"><g fill="#f79eb4"><path d="M239.05975,167.67199c0.04745,-0.15124 1.03084,-0.90391 1.82072,-1.25814c0.78987,-0.35421 1.56131,-0.55933 1.7167,-0.32818c0.11888,0.1768 0.15916,1.0453 0.14286,1.72143c-0.01632,0.67613 -0.19443,1.2918 -0.22419,1.65009"/></g><g fill="#ffd5c5"><path d="M239.73842,167.85054c0.10294,-0.1585 0.53464,-0.52901 0.96245,-0.72915c0.42778,-0.20014 1.28966,-0.46748 1.36882,-0.36155c0.01952,0.02614 0.07344,0.78122 0.04852,1.28111c-0.02491,0.49989 -0.14871,0.89075 -0.16096,0.97537"/></g></g><g fill="#f79eb4" stroke="none" stroke-width="1" stroke-linecap="round" stroke-linejoin="round"><path d="M233.10512,169.60801c-0.00825,-0.013 -0.45228,-0.85079 -0.57108,-1.63721c-0.07613,-0.50381 0.05376,-1.14571 0.09708,-1.16794c0.21152,-0.1085 1.0361,-0.02518 1.69933,0.03349c0.66323,0.05867 0.97476,0.1347 1.26791,0.22903"/><path d=""/></g><path d="M239.73265,170.09616c0.44549,-0.04194 1.74126,0.56878 1.4139,2.70487c-0.10894,0.71085 -0.45481,1.77674 -1.73791,2.34081c-0.65676,0.18045 -2.18068,-0.58676 -2.85604,-0.63517c-1.18574,-0.08497 -1.02391,0.45178 -1.60908,0.4186c-0.14647,-0.00831 -0.95519,-0.88613 -1.25954,-2.11478c-0.1435,-0.57936 -0.08002,-1.42003 -0.01197,-1.41806c0.44899,0.01297 0.81304,0.95183 1.20838,1.48283c0.27651,0.37142 0.65087,0.68058 0.98848,0.65728c0.1968,-0.01358 0.39498,0.00036 0.82089,-0.59779c0.66811,-0.93829 0.9921,-2.64552 3.04289,-2.83859z" fill="#ffffff" stroke="none" stroke-width="0" stroke-linecap="butt" stroke-linejoin="miter"/><path d="M234.88729,171.60863c-0.11673,0.08194 -1.30238,0.50908 -1.53052,0.79094c-0.67349,0.84203 -1.89734,1.27037 -1.863,1.29581c0.00158,0.00119 0.58604,-0.92081 0.62357,-1.53011c-0.01403,-0.15038 0.79702,-1.14599 1.04687,-1.28417c0.86975,-0.481 1.7899,-0.23241 1.74865,-0.20348" fill="#f79eb4" stroke="#f89db5" stroke-width="0" stroke-linecap="butt" stroke-linejoin="round"/><g fill="#000000" stroke="#000000" stroke-width="0.125" stroke-linecap="butt" stroke-linejoin="round"><path d="M240.8504,170.82922c0.04971,-0.0171 0.08943,0.01895 0.136,0.02239c0.04881,0.00361 0.2747,-0.01324 0.44457,-0.05482c0.87235,-0.21354 1.29966,-0.72145 1.29966,-0.72145c0,0 -0.16361,0.37848 -1.39769,0.89428c-0.19222,0.08036 -0.34517,0.06436 -0.36886,0.02785"/><path d="M241.16854,171.54374c0.03362,0.00452 0.09324,0.0647 0.12184,0.08653c0.06489,0.04955 0.5484,0.34547 1.29352,0.24504c0.24694,-0.03467 1.02586,-0.24181 1.02586,-0.24181c0,0 -0.38815,0.22051 -1.07499,0.30872c-0.28806,0.03699 -0.908,0.02811 -1.14976,-0.05653c-0.13037,-0.04563 -0.16599,-0.08939 -0.16599,-0.08939"/></g><g stroke="none" stroke-linecap="butt" stroke-linejoin="miter"><path d="M238.58715,173.40103c0.03184,0.71992 -0.13116,1.31188 -0.36407,1.32218c-0.23291,0.01029 -0.44755,-0.56496 -0.47939,-1.28487c-0.03184,-0.71992 0.13117,-1.31189 0.36408,-1.32219c0.23291,-0.0103 0.44755,0.56496 0.47938,1.28488z" fill="#169c5b" stroke-width="NaN"/><path d="M238.35144,173.57284c0.01328,0.30068 -0.05889,0.54812 -0.16123,0.55264c-0.10234,0.00453 -0.1961,-0.23558 -0.20938,-0.53628c-0.01328,-0.30068 0.05889,-0.54812 0.16123,-0.55264c0.10234,-0.00453 0.1961,0.23558 0.20938,0.53628z" fill="#000000" stroke-width="0"/><path d="M238.24454,172.89252c0.01346,0.30422 -0.07577,0.55526 -0.19927,0.56073c-0.12351,0.00547 -0.23455,-0.23672 -0.24801,-0.54096c-0.01346,-0.30422 0.07577,-0.55527 0.19927,-0.56074c0.12351,-0.00547 0.23454,0.23673 0.24801,0.54096z" fill="#ffffff" stroke-width="0"/></g><g stroke="none" stroke-linecap="butt" stroke-linejoin="miter"><path d="M235.16117,173.81953c0.02244,0.50779 -0.09251,0.92532 -0.25679,0.93258c-0.16429,0.00726 -0.31567,-0.39848 -0.33813,-0.90627c-0.02244,-0.50779 0.09252,-0.92532 0.2568,-0.93258c0.16429,-0.00726 0.31567,0.39847 0.33812,0.90626z" fill="#169c5b" stroke-width="NaN"/><path d="M234.99494,173.94069c0.00939,0.21209 -0.04154,0.38659 -0.11373,0.3898c-0.07219,0.0032 -0.1383,-0.16614 -0.14769,-0.37824c-0.00939,-0.21209 0.04152,-0.38659 0.11373,-0.38979c0.07219,-0.00319 0.1383,0.16615 0.14768,0.37824z" fill="#000000" stroke-width="0"/><path d="M234.91952,173.46085c0.00948,0.21458 -0.05344,0.39165 -0.14055,0.3955c-0.08713,0.00386 -0.16544,-0.16697 -0.17494,-0.38155c-0.00949,-0.21459 0.05344,-0.39167 0.14056,-0.39552c0.08712,-0.00386 0.16543,0.16699 0.17493,0.38157z" fill="#ffffff" stroke-width="0"/></g></g><path d="M239.10957,176.04297c0,0 0.49033,-0.04469 0.8078,-0.04621c0.31746,-0.00152 0.46313,0.07192 0.46313,0.07192" fill="none" stroke="#000000" stroke-width="0.125" stroke-linecap="round" stroke-linejoin="miter"/></g></g></g></svg>