<svg version="1.1" xmlns="http://www.w3.org/2000/svg" xmlns:xlink="http://www.w3.org/1999/xlink" width="25.38499" height="36.52877" viewBox="0,0,25.38499,36.52877"><g transform="translate(-226.32017,-184.28805)"><g data-paper-data="{&quot;isPaintingLayer&quot;:true}" fill-rule="nonzero" stroke-linejoin="miter" stroke-miterlimit="10" stroke-dasharray="" stroke-dashoffset="0" style="mix-blend-mode: normal"><g><path d="M239.09307,203.41789l-0.81368,0.33235l-0.04021,-4.36944l0.72986,-0.04837z" data-paper-data="{&quot;index&quot;:null}" fill="#d757d7" stroke="#ffffff" stroke-width="0" stroke-linecap="butt"/><path d="M239.13322,199.22995c-0.21886,0.7338 -0.81741,0.63479 -0.9536,0.12798c-0.32908,-1.22458 -0.25732,-3.77094 -0.25732,-3.77094l1.42581,-0.68556c0,0 -0.0103,3.64259 -0.21488,4.32851z" data-paper-data="{&quot;index&quot;:null}" fill="#ace6ff" stroke="#ffffff" stroke-width="0" stroke-linecap="butt"/><path d="M238.64927,196.07067c-0.87085,0.15418 -2.33509,-1.93303 -1.74946,-3.95355c0.4835,-1.66818 0.80971,-2.46161 2.03787,-2.84285c0.38844,-0.12056 1.41229,1.93099 1.04301,3.641c-0.36929,1.71 -1.0463,3.10493 -1.33142,3.1554z" data-paper-data="{&quot;index&quot;:null}" fill="#f8ffff" stroke="#ffffff" stroke-width="0" stroke-linecap="butt"/><path d="M239.00473,195.45961c0,0 -0.78859,-1.61142 -1.01246,-2.74502c-0.22388,-1.13358 0.10552,-2.92501 0.10552,-2.92501" data-paper-data="{&quot;index&quot;:null}" fill="none" stroke="#000000" stroke-width="0.5" stroke-linecap="round"/><path d="M238.23948,194.66543l0.77382,-0.35682" data-paper-data="{&quot;index&quot;:null}" fill="none" stroke="#f8ffff" stroke-width="0.5" stroke-linecap="round"/><path d="M237.82878,193.16853l0.6214,-0.24733" data-paper-data="{&quot;index&quot;:null}" fill="none" stroke="#f8ffff" stroke-width="0.5" stroke-linecap="round"/><path d="M237.66728,191.84105l0.62729,-0.152" data-paper-data="{&quot;index&quot;:null}" fill="none" stroke="#f8ffff" stroke-width="0.5" stroke-linecap="round"/><path d="M238.29137,190.3474l-0.47488,0.0425" data-paper-data="{&quot;index&quot;:null}" fill="none" stroke="#f8ffff" stroke-width="0.5" stroke-linecap="round"/></g><g data-paper-data="{&quot;index&quot;:null}"><g data-paper-data="{&quot;index&quot;:null}" stroke="none" stroke-width="0" stroke-linecap="butt"><path d="M233.35198,220.81138c-1.26588,0.151 0.24092,-2.88282 0.77997,-3.75432c0.49878,-1.08204 2.17475,-2.59572 2.17475,-2.59572c0,0 1.09481,-1.1128 1.08997,-0.10828c-0.00225,0.46761 0.02605,0.92198 0.00057,1.36558c-0.02928,0.50933 -0.12949,1.00443 -0.42836,1.48895c0,0 -1.88407,3.3971 -3.61691,3.6038z" data-paper-data="{&quot;index&quot;:null}" fill="#d757d7"/><path d="M237.61739,211.70198l2.64527,-4.95986l1.35066,0.57338c0,0 -1.5313,3.28261 -2.72092,4.94548c-0.3931,0.51512 -2.32184,4.21622 -2.32184,4.21622c0,0 -1.19647,2.02254 -1.7264,2.37332c-0.67412,0.4462 -0.70553,-0.78434 -0.5718,-1.11873c0,0 0.74568,-1.14877 1.18231,-1.88475c0.64545,-1.08794 2.16271,-4.14502 2.16271,-4.14502z" data-paper-data="{&quot;index&quot;:null}" fill="#f8ffff"/></g><path d="M235.03463,219.03552l-0.13682,-0.48619" fill="none" stroke="#000000" stroke-width="0.5" stroke-linecap="round"/><path d="M235.64837,218.2332l-0.07453,-0.45125" fill="none" stroke="#000000" stroke-width="0.5" stroke-linecap="round"/></g><g data-paper-data="{&quot;index&quot;:null}"><g data-paper-data="{&quot;index&quot;:null}" stroke="none" stroke-width="0" stroke-linecap="butt"><path d="M226.67215,219.83107c-1.24687,-0.26568 1.15853,-2.65074 1.95003,-3.30161c0.82132,-0.86315 2.89619,-1.75483 2.89619,-1.75483c0,0 1.3954,-0.69986 1.06658,0.24934c-0.15307,0.44186 -0.27295,0.88105 -0.44025,1.29266c-0.1921,0.47261 -0.44675,0.90887 -0.88602,1.27099c0,0 -2.87973,2.60713 -4.58653,2.24344z" data-paper-data="{&quot;index&quot;:null}" fill="#d757d7"/><path d="M233.64956,212.58606l4.10461,-3.84056l1.0933,0.97866c0,0 -2.50892,2.61263 -4.17159,3.80252c-0.53834,0.36066 -3.55846,3.24109 -3.55846,3.24109c0,0 -1.78526,1.52809 -2.40006,1.68904c-0.78205,0.20473 -0.41459,-0.97008 -0.18008,-1.24341c0,0 1.07658,-0.84661 1.72739,-1.40225c0.96204,-0.82139 3.38487,-3.22509 3.38487,-3.22509z" data-paper-data="{&quot;index&quot;:null}" fill="#f8ffff"/></g><path d="M229.95575,217.62183l0.02024,0.55751" fill="none" stroke="#000000" stroke-width="0.5" stroke-linecap="round"/><path d="M229.04077,218.63431l0.02744,-0.50434" fill="none" stroke="#000000" stroke-width="0.5" stroke-linecap="round"/></g><g><path d="M243.00004,194.08588c3.8569,2.41074 2.19202,5.15443 2.24304,5.41506c-0.01718,0.26789 -0.18563,0.49857 -0.30749,0.72906c-0.48741,0.81519 -1.0542,1.57881 -1.61297,2.34636c-0.21185,0.32751 -0.59093,0.49509 -0.96426,0.55545c-0.40171,0.05838 -0.79037,-0.1147 -1.17207,-0.21462c-0.58403,-0.17558 -1.14121,-0.43091 -1.64684,-0.77147c-0.64368,-0.38573 -1.40236,-0.96138 -1.73607,-1.6748c-0.27597,-0.40843 -0.22219,-0.36281 -0.52092,-0.76224c-0.52005,-0.92408 -0.59111,-2.04843 -0.34263,-3.06647c0.14424,-0.61119 0.39482,-1.20876 0.78195,-1.70683c0.1759,-0.20181 2.0811,-2.84785 5.27826,-0.84948z" data-paper-data="{&quot;index&quot;:null}" fill="#a0a8a8" stroke="none" stroke-width="0.17188" stroke-linecap="butt"/><path d="M240.34241,191.35964c0.2495,0.6564 -3.01142,2.10369 -2.48302,1.85421c-0.31864,-0.62753 -0.33161,-1.47832 -0.15733,-2.02505c0.01594,-0.05007 0.14115,-0.1388 0.14115,-0.1388c-0.09025,-0.02764 0.07113,-0.06001 0.12906,-0.13706c0.04552,-0.06064 0.06014,-0.23891 0.06014,-0.23891c-0.05135,0.00365 0.20068,0.01558 0.31125,-0.0097c0.09134,-0.02083 0.08687,-0.07283 0.15532,-0.07838c0.48112,-0.04022 1.12341,0.18243 1.84347,0.77368z" data-paper-data="{&quot;index&quot;:null}" fill="#ff7fff" stroke="none" stroke-width="0.17188" stroke-linecap="butt"/><path d="M245.17116,199.30403c0.00114,-0.10632 -0.06504,-0.21153 -0.15437,-0.37557c-0.06707,-0.12337 -0.19698,-0.36333 -0.22562,-0.46483c-0.07194,-0.25481 -0.87161,-0.76817 -1.83387,-0.89388c-0.96225,-0.12572 -2.13378,0.7726 -2.18737,0.47772c-0.02036,-0.11213 -0.24005,-0.88841 -0.29804,-0.64554c-0.00964,0.04014 -0.45582,0.0703 -0.47864,0.08706c-0.06141,0.04487 -0.17407,-1.34471 -0.37349,-1.75677c-0.19942,-0.41205 -0.97649,-1.10769 -1.0404,-1.17341c-0.09595,-0.09883 -0.22133,-0.04868 -0.2981,0.06002c-0.09728,0.13741 -1.25451,1.85657 -1.39436,2.80914c-0.13985,0.95255 0.55267,2.72718 0.52493,2.33123c-0.01244,-0.17872 -1.24554,0.93423 -1.58634,0.90636c-0.24334,-0.01968 -0.59775,-2.3919 0.82901,-4.75598c0.67796,-1.12334 1.85183,-2.36637 2.11613,-2.61155l0.5163,-0.47904c0.71801,-0.50068 1.51835,-0.8488 2.41371,-1.02078c0.05703,-0.01097 0.96021,-0.29356 2.10189,-0.03505c0.721,0.16321 1.74111,0.74033 1.82025,0.78719c0.46404,0.27481 1.37827,0.79664 2.08902,1.47738c0.45211,0.433 0.75869,0.97624 1.01835,1.41296c0.04673,0.07837 -1.24152,0.52105 -1.19446,0.59279c0.02292,0.03472 -0.69286,0.75343 -0.73406,0.83841l-0.27522,0.56744c-0.27819,0.57366 -0.12374,1.42921 -0.0787,1.55531c0.06152,0.17271 0.29841,0.72783 0.43666,0.81723l0.46567,0.30179c0.06391,0.04116 0.88024,-0.02349 0.90077,0.0438c0.07228,0.23716 -0.50632,1.00854 -0.63676,1.15003l-0.68639,0.74479c-0.22115,0.23985 -0.32946,0.38514 -0.73051,0.65627c-0.55012,0.37224 -1.10202,0.7423 -1.7596,0.98726c-0.5314,0.19806 -2.63298,0.39027 -2.5223,0.27017l0.93995,-1.02264l1.20037,-1.52316l1.11563,-2.11615z" data-paper-data="{&quot;index&quot;:null}" fill="#d757d7" stroke="none" stroke-width="0.17188" stroke-linecap="butt"/><path d="M249.44533,200.06916c-1.06629,-0.23693 -1.08555,-2.78172 -1.08555,-2.78172c0.20323,-0.33301 1.43298,-0.51636 2.30332,0.1436c0.66512,0.50454 0.98363,1.02472 1.03565,1.46199c0.00743,0.06241 -0.04034,0.0704 -0.04248,0.15658c-0.00239,0.10423 0.05451,0.32577 0.04843,0.27916c0,0 -0.15826,0.05416 -0.20455,0.10861c-0.05892,0.06925 -0.05838,0.22057 -0.09988,0.14659c0,0 -0.05705,0.13199 -0.09935,0.1577c-0.46137,0.28141 -1.23115,0.46616 -1.85557,0.32751z" data-paper-data="{&quot;index&quot;:null}" fill="#ff7fff" stroke="none" stroke-width="0.17188" stroke-linecap="butt"/><path d="M247.31837,197.4676c0.04861,0.11043 0.27239,-0.45006 0.68909,-0.87604c0.4449,-0.45492 1.09672,-0.77371 1.5681,-0.52151c0.27214,0.1457 0.45668,0.37347 0.63989,0.5724c0.37799,0.41031 0.58608,0.79291 0.3875,0.7568c-0.33702,-0.06116 -0.8068,-0.07858 -1.14163,-0.05597c-0.47749,0.03215 -0.80213,0.08184 -0.79689,0.10997l0.33775,1.80874l0.45519,0.84772c0.08059,0.13283 -0.35845,0.14458 -0.80327,0.07431c-0.38405,-0.0605 -0.71339,-0.00071 -0.84107,-0.03382c-0.56897,-0.14664 -0.36965,-0.33187 -0.74593,-0.97829c-0.21876,-0.37591 0.17842,-1.87048 0.25124,-1.70429z" data-paper-data="{&quot;index&quot;:null}" fill="#d757d7" stroke="none" stroke-width="0.17188" stroke-linecap="butt"/><path d="M246.6797,197.03519c0.7166,-1.11809 1.96295,-2.12594 2.51317,-1.28351c0.23082,0.35321 -0.40013,0.26294 -1.05826,0.78077c-0.41884,0.32954 -0.84609,0.96682 -1.07682,1.92414c-0.02406,0.10048 0.01714,0.35028 0.08096,0.68007c0.09764,0.50548 1.42241,1.06913 1.16479,1.06674l-1.00607,-0.00967l-0.46275,-0.4136c-0.34577,-0.17878 -0.81068,-1.72179 -0.15503,-2.74492z" data-paper-data="{&quot;index&quot;:null}" fill="#ace6ff" stroke="none" stroke-width="0.17188" stroke-linecap="butt"/><path d="M240.19876,192.31495c-0.21127,0.19342 -0.70879,0.37992 -0.70879,0.37992c0.03286,-0.13729 0.2566,-0.25886 0.31651,-0.3637c0.13847,-0.24241 0.66196,-0.72125 1.33223,-0.86151l0.38115,-0.07967c0.18768,-0.03932 0.69439,0.11257 0.74618,0.21896c0.01986,0.19701 -0.68883,0.16127 -1.33535,0.4264c-0.30992,0.1271 -0.73194,0.27963 -0.73194,0.27963z" data-paper-data="{&quot;index&quot;:null}" fill="#ace6ff" stroke="none" stroke-width="0.17188" stroke-linecap="butt"/><path d="M240.10911,192.16484c-0.12507,0.08988 -0.67386,0.57425 -0.93488,0.81915l-1.02876,0.96509c-0.07568,0.07101 -0.43137,-0.8031 -0.22638,-1.03533c0.06677,-0.36429 0.31634,-0.55961 0.5156,-0.80109c0.3025,-0.21251 0.77951,-0.46124 1.03508,-0.52385c0.20584,-0.05041 0.30477,-0.54966 0.51753,-0.65167c0.32021,-0.15377 1.22274,0.43595 1.22274,0.43595z" data-paper-data="{&quot;index&quot;:null}" fill="#d757d7" stroke="none" stroke-width="0.17188" stroke-linecap="butt"/><path d="M244.65425,199.16479c0.03179,0.74542 -0.79146,1.39009 -1.40801,1.44791c-0.61655,0.05782 -1.14214,-0.49958 -1.17392,-1.245c-0.03179,-0.74542 0.44226,-1.39657 1.05882,-1.45439c0.61655,-0.05782 1.49133,0.50607 1.52312,1.25149z" fill="#272d3a" stroke="none" stroke-width="0" stroke-linecap="butt"/><path d="M237.97783,195.14633c0.67745,-0.31259 1.4886,0.19692 1.71911,0.77167c0.23051,0.57476 -0.13181,1.2941 -0.80926,1.60668c-0.67745,0.31259 -1.41352,0.10004 -1.64402,-0.47471c-0.23051,-0.57476 0.05672,-1.59106 0.73418,-1.90364z" data-paper-data="{&quot;index&quot;:null}" fill="#272d3a" stroke="none" stroke-width="0" stroke-linecap="butt"/><path d="M242.58785,199.49499l1.48481,-0.37546" fill="none" stroke="#000000" stroke-width="0.25" stroke-linecap="round"/><path d="M243.291,198.5273l0.14541,1.57459" fill="none" stroke="#000000" stroke-width="0.25" stroke-linecap="round"/><path d="M244.09964,199.47604c-0.20322,-0.04458 -0.33182,-0.24547 -0.28723,-0.44869c0.04458,-0.20322 0.24547,-0.33182 0.44869,-0.28723c0.20322,0.04458 0.33182,0.24547 0.28723,0.44869c-0.04458,0.20322 -0.24547,0.33182 -0.44869,0.28723z" fill="#000000" stroke="none" stroke-width="0" stroke-linecap="butt"/><path d="M242.41412,199.80748c-0.20322,-0.04458 -0.33182,-0.24547 -0.28723,-0.44869c0.04458,-0.20322 0.24547,-0.33182 0.44869,-0.28723c0.20321,0.04458 0.33182,0.24547 0.28723,0.44869c-0.04458,0.20321 -0.24547,0.33182 -0.44869,0.28723z" fill="#000000" stroke="none" stroke-width="0" stroke-linecap="butt"/><path d="M243.21352,198.72067c-0.20322,-0.04458 -0.33182,-0.24547 -0.28723,-0.44869c0.04458,-0.20322 0.24547,-0.33182 0.44869,-0.28723c0.20322,0.04458 0.33183,0.24547 0.28724,0.44869c-0.04458,0.20321 -0.24548,0.33181 -0.4487,0.28723z" fill="#000000" stroke="none" stroke-width="0" stroke-linecap="butt"/><path d="M243.31489,200.49596c-0.20322,-0.04458 -0.33182,-0.24547 -0.28723,-0.44869c0.04458,-0.20322 0.24547,-0.33182 0.44869,-0.28723c0.20321,0.04458 0.33182,0.24547 0.28723,0.44869c-0.04458,0.20321 -0.24547,0.33182 -0.44869,0.28723z" fill="#000000" stroke="none" stroke-width="0" stroke-linecap="butt"/><path d="M237.71943,196.60328l1.48481,-0.37546" fill="none" stroke="#000000" stroke-width="0.25" stroke-linecap="round"/><path d="M238.56799,197.21018l-0.14541,-1.57459" fill="none" stroke="#000000" stroke-width="0.25" stroke-linecap="round"/><path d="M239.23122,196.58434c-0.20322,-0.04458 -0.33182,-0.24547 -0.28723,-0.44869c0.04458,-0.20322 0.24547,-0.33182 0.44869,-0.28723c0.20322,0.04458 0.33182,0.24547 0.28723,0.44869c-0.04458,0.20322 -0.24547,0.33182 -0.44869,0.28723z" fill="#000000" stroke="none" stroke-width="0" stroke-linecap="butt"/><path d="M237.5457,196.91577c-0.20322,-0.04458 -0.33182,-0.24547 -0.28723,-0.44869c0.04458,-0.20322 0.24547,-0.33182 0.44869,-0.28723c0.20321,0.04458 0.33182,0.24547 0.28723,0.44869c-0.04458,0.20321 -0.24547,0.33182 -0.44869,0.28723z" fill="#000000" stroke="none" stroke-width="0" stroke-linecap="butt"/><path d="M238.3451,195.82894c-0.20322,-0.04458 -0.33182,-0.24547 -0.28723,-0.44869c0.04458,-0.20322 0.24547,-0.33182 0.44869,-0.28723c0.20322,0.04458 0.33183,0.24547 0.28724,0.44869c-0.04458,0.20321 -0.24548,0.33181 -0.4487,0.28723z" fill="#000000" stroke="none" stroke-width="0" stroke-linecap="butt"/><path d="M238.44647,197.60426c-0.20322,-0.04458 -0.33182,-0.24547 -0.28723,-0.44869c0.04458,-0.20322 0.24547,-0.33182 0.44869,-0.28723c0.20321,0.04458 0.33182,0.24547 0.28723,0.44869c-0.04458,0.20321 -0.24547,0.33182 -0.44869,0.28723z" fill="#000000" stroke="none" stroke-width="0" stroke-linecap="butt"/></g><g><path d="M244.09985,193.47753c0,0 0.55992,-1.84736 0.55158,-3.11341c-0.00834,-1.26605 -0.93415,-2.07056 -0.93415,-2.07056l0.49201,-0.56879c0,0 1.17059,1.31589 1.18326,2.6477c0.01266,1.3318 -0.66476,3.34737 -0.66476,3.34737z" fill="#565e69" stroke="none" stroke-width="0" stroke-linecap="butt"/><path d="M241.22899,188.0382l-2.29977,-3.6036l4.51823,0.48532l1.21077,3.46794z" fill="#00eb5c" stroke="none" stroke-width="0" stroke-linecap="butt"/><path d="M244.49124,188.36806l-5.4236,-3.95501" fill="none" stroke="#000000" stroke-width="0.25" stroke-linecap="round"/><path d="M243.51712,184.81792l-0.24899,2.57883l-2.06392,0.62919" fill="none" stroke="#000000" stroke-width="0.25" stroke-linecap="round"/></g><g data-paper-data="{&quot;index&quot;:null}"><g data-paper-data="{&quot;index&quot;:null}" stroke="none" stroke-width="0" stroke-linecap="butt"><path d="M237.72376,207.23433c0,0 -1.61679,0.9906 -3.02247,1.4866c-0.77482,0.2734 -1.83474,0.45298 -2.40141,0.64442c-0.95748,0.32344 -1.05364,0.72771 -1.05364,0.72771c0,0 0.19071,-1.06135 0.37526,-1.50681c0.18455,-0.44547 0.37428,-0.86647 0.54207,-0.80257c0.16778,0.0639 5.56019,-0.54936 5.56019,-0.54936z" fill="#d757d7"/><path d="M236.63182,207.73472c-2.83048,1.11621 -4.78295,0.30929 -4.78295,0.30929c0,0 0.76992,-2.1504 3.88583,-3.09866c2.43535,-0.74115 3.60843,-0.17253 4.07117,-0.36891c1.34545,-0.571 1.10688,-0.31473 1.10688,-0.31473c0,0 -0.34846,1.92223 -4.28092,3.47301z" fill="#f8ffff"/></g><path d="M233.74625,208.01909l-0.47946,0.47946" fill="none" stroke="#000000" stroke-width="0.25" stroke-linecap="round"/><path d="M232.2394,208.49853l0.34247,-0.47946" fill="none" stroke="#000000" stroke-width="0.25" stroke-linecap="round"/></g><g data-paper-data="{&quot;index&quot;:null}"><g data-paper-data="{&quot;index&quot;:null}" stroke="none" stroke-width="0" stroke-linecap="butt"><path d="M234.64498,214.92867c0,0 -1.42383,-2.04826 -0.9372,-3.78569c0.36787,-1.31345 1.52654,-2.9797 1.52654,-2.9797l4.26675,2.85212c0,0 -2.52374,1.32173 -3.38238,2.05978c-0.85865,0.73806 -1.4737,1.85349 -1.4737,1.85349z" fill="#d757d7"/><path d="M234.92184,211.69167c-1.09576,-1.04099 -0.21626,-2.97195 0.31248,-3.52839c0.52476,-0.55225 0.98072,-1.6712 3.7241,-2.35262c1.87106,-0.46474 2.35465,-1.56846 2.35465,-1.56846l0.82068,0.31463c0,0 0.63231,3.33135 -0.73494,5.02295c-1.2791,1.58252 -5.42363,3.11259 -6.47696,2.11189z" fill="#f8ffff"/></g><path d="M236.212,212.24873l0.41096,-0.41096" fill="none" stroke="#000000" stroke-width="0.25" stroke-linecap="round"/><path d="M235.32159,211.63229l-0.34247,0.41096" fill="none" stroke="#000000" stroke-width="0.25" stroke-linecap="round"/><path d="M234.22571,211.15284l0.54794,-0.47946" fill="none" stroke="#000000" stroke-width="0.25" stroke-linecap="round"/></g><g data-paper-data="{&quot;index&quot;:null}"><g data-paper-data="{&quot;index&quot;:null}" stroke="none" stroke-width="0" stroke-linecap="butt"><path d="M251.21413,208.73222c0,0 -1.15995,-0.40014 -1.93179,-0.52617c-0.77184,-0.12603 -3.73189,-0.1151 -3.73189,-0.1151c0,0 3.26992,-0.262 3.59468,-0.94861c0.3248,-0.68669 -2.024,-2.38953 -1.39704,-2.23423c3.31134,0.82028 3.46601,3.82411 3.46601,3.82411z" fill="#d757d7"/><path d="M240.02869,204.7349c0,0 2.82354,-0.26389 4.67247,-0.32843c2.24035,-0.0782 4.53904,1.04728 5.04146,2.00826c0.50242,0.96098 -2.78143,1.81099 -4.23768,1.58725c-1.57736,-0.24235 -5.47625,-3.26709 -5.47625,-3.26709z" fill="#f8ffff"/></g><path d="M249.29419,207.65969l-0.75342,-0.47946" fill="none" stroke="#000000" stroke-width="0.25" stroke-linecap="round"/><path d="M250.04763,206.97476l-0.47946,-0.34247" fill="none" stroke="#000000" stroke-width="0.25" stroke-linecap="round"/></g><g data-paper-data="{&quot;index&quot;:null}"><g data-paper-data="{&quot;index&quot;:null}" stroke="none" stroke-width="0" stroke-linecap="butt"><path d="M242.85742,211.02734c0,0 3.09588,0.60635 3.57701,-0.24514c0.48827,-0.8641 -0.89545,-3.92238 -0.89545,-3.92238c0,0 1.22413,0.3175 2.30858,2.6437c0.62793,1.34257 1.21014,4.83549 1.21014,4.83549c0,0 -2.16059,-1.08644 -3.6768,-1.49594c-1.25962,-0.34021 -2.52348,-1.81572 -2.52348,-1.81572z" fill="#d757d7"/><path d="M245.62971,206.82058c0.12999,0.09968 1.65706,2.4878 1.05624,4.02566c-0.56411,1.34735 -3.8004,0.20079 -3.8004,0.20079c0,0 -1.32364,-0.99449 -2.24933,-1.91027c-1.11215,-1.10023 -1.05309,-2.89296 -0.68641,-3.72167c0.36669,-0.82871 0.37205,0.25003 2.26388,0.11456c1.42541,-0.10206 3.29145,1.19538 3.41603,1.29092z" fill="#f8ffff"/></g><path d="M244.77365,211.35832l0.34247,0.41096" fill="none" stroke="#000000" stroke-width="0.25" stroke-linecap="round"/><path d="M246.55447,211.56379l-0.20548,-0.47945" fill="none" stroke="#000000" stroke-width="0.25" stroke-linecap="round"/><path d="M247.10241,210.12541l-0.54794,-0.54794" fill="none" stroke="#000000" stroke-width="0.25" stroke-linecap="round"/></g><g data-paper-data="{&quot;index&quot;:null}"><path d="M242.35037,206.06137c-0.36591,0.39828 -2.69739,-0.28309 -2.69739,-0.28309c-0.24658,-0.28197 -1.67704,-0.07531 -1.70209,-0.53654c-0.00974,-0.1801 0.14956,-1.14428 0.32786,-1.71279c0.1783,-0.56852 -0.05954,-0.98345 0.64221,-1.38034c0.70175,-0.39689 1.90661,-0.1482 2.06043,-0.1482c0.12177,0 0.72348,0.19835 1.07941,1.25421c0.35594,1.05586 0.59384,2.36369 0.28957,2.80676z" data-paper-data="{&quot;index&quot;:null}" fill="#d757d7" stroke="none" stroke-width="0.17188" stroke-linecap="butt"/><path d="M240.97721,205.81078c0.61263,0 1.39781,-0.03289 1.39781,-0.03289l0.22399,0.60534c0,0 -0.81357,-0.32402 -1.50188,-0.15139c-0.61138,0.03439 -1.24991,-0.3092 -1.15798,-0.46382c0.178,-0.29941 0.42542,0.04276 1.03805,0.04276z" data-paper-data="{&quot;index&quot;:null}" fill="#ace6ff" stroke="none" stroke-width="0" stroke-linecap="butt"/><path d="M237.89108,205.15696c0,0 0.60465,0.11279 1.21306,0.18453c0.60841,0.07174 0.41111,0.46852 -0.19203,0.36277c-0.66335,-0.25204 -1.3616,-0.05504 -1.3616,-0.05504l0.34058,-0.49225z" data-paper-data="{&quot;index&quot;:null}" fill="#ace6ff" stroke="none" stroke-width="0" stroke-linecap="butt"/><path d="M240.88,205.54767l0.07853,0.38091" fill="none" stroke="#000000" stroke-width="0.25" stroke-linecap="round"/><path d="M241.90421,205.93279l-0.09109,-0.32829" fill="none" stroke="#000000" stroke-width="0.25" stroke-linecap="round"/><path d="M238.83152,205.09404l-0.03093,0.30573" fill="none" stroke="#000000" stroke-width="0.25" stroke-linecap="round"/><path d="M238.01448,205.37413l0.147,-0.38175" fill="none" stroke="#000000" stroke-width="0.25" stroke-linecap="round"/></g><g data-paper-data="{&quot;index&quot;:null}" stroke="none" stroke-linecap="butt"><path d="M239.97595,202.13094c0.17008,0.06905 0.3072,0.33949 0.39108,0.72079c0.08399,0.38126 0.11481,0.87325 0.07258,1.38519c-0.0422,0.51204 -0.14953,0.94795 -0.28883,1.23853c-0.1394,0.29062 -0.31073,0.43601 -0.48082,0.36696c-0.17021,-0.06911 -0.30722,-0.33958 -0.3912,-0.72085c-0.08388,-0.3813 -0.11481,-0.87325 -0.07258,-1.38519c0.04219,-0.51204 0.14963,-0.94798 0.28893,-1.23856c0.1393,-0.29058 0.31062,-0.43597 0.48084,-0.36686z" fill="#03e1b6" stroke-width="0.01872"/><path d="M239.86386,203.09791c0.20905,0.00794 0.3635,0.4098 0.34498,0.89758c-0.01852,0.48778 -0.203,0.87677 -0.41205,0.86883c-0.20905,-0.00794 -0.3635,-0.4098 -0.34498,-0.89758c0.01852,-0.48778 0.203,-0.87677 0.41205,-0.86883z" fill="#216375" stroke-width="0"/><path d="M240.08425,202.33465c0.07287,0.00749 0.14677,0.09569 0.20751,0.23227c0.06069,0.1365 0.10811,0.32141 0.12783,0.52204c0.01966,0.20055 0.00797,0.3793 -0.02692,0.50605c-0.03488,0.12675 -0.09285,0.20152 -0.16563,0.19397c-0.07281,-0.00742 -0.14676,-0.0957 -0.2075,-0.23228c-0.06068,-0.13652 -0.10813,-0.3213 -0.12777,-0.52198c-0.0197,-0.20063 -0.00801,-0.37938 0.02688,-0.50613c0.03481,-0.1267 0.0928,-0.20139 0.16562,-0.19397z" fill="#000000" stroke-width="0.01896"/></g><g data-paper-data="{&quot;index&quot;:null}"><path d="M241.31048,199.33242l0.72987,0.04837l-0.04021,4.46035l-0.81368,-0.33235z" data-paper-data="{&quot;index&quot;:null}" fill="#d757d7" stroke="#ffffff" stroke-width="0" stroke-linecap="butt"/><path d="M240.93143,194.90143l1.42581,0.68556c0,0 0.07176,2.54637 -0.25733,3.77095c-0.13619,0.50681 -0.73475,0.6058 -0.9536,-0.12798c-0.20458,-0.68592 -0.21488,-4.32851 -0.21488,-4.32851z" data-paper-data="{&quot;index&quot;:null}" fill="#ace6ff" stroke="#ffffff" stroke-width="0" stroke-linecap="butt"/><path d="M240.29884,192.91527c-0.36928,-1.71001 0.65457,-3.76155 1.04301,-3.64099c1.22816,0.38124 1.55436,1.17467 2.03787,2.84285c0.58563,2.02053 -0.87861,4.10774 -1.74946,3.95355c-0.28512,-0.05048 -0.96213,-1.4454 -1.33142,-3.15541z" data-paper-data="{&quot;index&quot;:null}" fill="#f8ffff" stroke="#ffffff" stroke-width="0" stroke-linecap="butt"/><path d="M242.18174,189.78959c0,0 0.32941,1.79142 0.10553,2.92501c-0.22388,1.13358 -1.01246,2.74502 -1.01246,2.74502" data-paper-data="{&quot;index&quot;:null}" fill="none" stroke="#000000" stroke-width="0.5" stroke-linecap="round"/><path d="M242.04005,194.66543l-0.77382,-0.35682" data-paper-data="{&quot;index&quot;:null}" fill="none" stroke="#f8ffff" stroke-width="0.5" stroke-linecap="round"/><path d="M242.45076,193.16853l-0.62141,-0.24733" data-paper-data="{&quot;index&quot;:null}" fill="none" stroke="#f8ffff" stroke-width="0.5" stroke-linecap="round"/><path d="M241.98496,191.68905l0.62729,0.152" data-paper-data="{&quot;index&quot;:null}" fill="none" stroke="#f8ffff" stroke-width="0.5" stroke-linecap="round"/><path d="M241.98816,190.3474l0.47488,0.0425" data-paper-data="{&quot;index&quot;:null}" fill="none" stroke="#f8ffff" stroke-width="0.5" stroke-linecap="round"/></g></g></g></svg>