<svg version="1.1" xmlns="http://www.w3.org/2000/svg" xmlns:xlink="http://www.w3.org/1999/xlink" width="26.87611" height="30.34088" viewBox="0,0,26.87611,30.34088"><defs><radialGradient cx="240.74916" cy="201.82025" r="1.31225" gradientUnits="userSpaceOnUse" id="color-1"><stop offset="0" stop-color="#f5ab87" stop-opacity="0.34902"/><stop offset="1" stop-color="#f5ab87" stop-opacity="0"/></radialGradient><radialGradient cx="235.47928" cy="201.38547" r="0.73225" gradientUnits="userSpaceOnUse" id="color-2"><stop offset="0" stop-color="#f5ab87" stop-opacity="0.34902"/><stop offset="1" stop-color="#f5ab87" stop-opacity="0"/></radialGradient></defs><g transform="translate(-225.83684,-189.01822)"><g data-paper-data="{&quot;isPaintingLayer&quot;:true}" fill-rule="nonzero" stroke-linejoin="miter" stroke-miterlimit="10" stroke-dasharray="" stroke-dashoffset="0" style="mix-blend-mode: normal"><path d="M230.64443,204.3843c0,0 2.19776,0.06533 4.03244,0.26404c1.29195,0.12947 4.2684,-0.16186 4.2684,-0.16186l-0.16563,1.02759c0,0 -2.25639,0.27961 -3.95406,0.22957c-1.69766,-0.05005 -4.44646,-0.26476 -4.44646,-0.26476z" data-paper-data="{&quot;index&quot;:null}" fill="#fba15d" stroke="none" stroke-width="0" stroke-linecap="butt"/><path d="M231.31651,202.9885c0,0 2.00859,0.22578 3.0243,0.41252c1.31694,0.24211 4.45786,0.39261 4.45786,0.39261l-0.31069,0.91087c0,0 -3.18607,0.25846 -4.52419,0.12893c-1.22662,-0.11874 -3.66443,-0.52646 -3.66443,-0.52646z" data-paper-data="{&quot;index&quot;:null}" fill="#fba15d" stroke="none" stroke-width="0" stroke-linecap="butt"/><g data-paper-data="{&quot;index&quot;:null}" stroke="none" stroke-width="0.17188" stroke-linecap="butt"><path d="M238.79198,199.65167c0.01231,1.65217 0.27298,2.27098 0.29115,3.3499c0.0138,0.8194 -0.42937,1.17039 -0.57217,1.05219c-0.331,-0.27381 -1.29763,-3.11124 -1.35077,-4.49891c-0.03341,-0.87703 -0.63379,-2.99507 -0.33677,-3.79772c0.19539,-0.52732 1.035,-0.61541 1.60817,-0.61025c0.44365,0.00312 0.55965,-0.14633 0.59518,0.2823c0.10722,1.29642 -0.24708,2.57032 -0.23478,4.22249z" fill="#c27e34"/><path d="M237.71114,194.01965c-0.31189,0.40806 -0.67535,0.29939 -0.83338,0.17856c-0.75714,-0.61932 -1.25883,-1.74761 -1.22564,-2.62526c-0.04109,0.17406 0.25945,-0.82405 1.20634,-0.75729c0.41026,0.01118 1.15349,-0.16393 1.81309,-0.18619l0.6319,0.14334c0.29039,0.06576 0.43752,0.47143 0.28713,0.75345c-0.02221,0.04172 0.22175,-0.06644 0.36106,0.06386c0.25077,0.23455 0.45879,0.77255 0.26436,1.01731c-0.17028,0.21479 -0.16828,0.6299 -0.51558,0.82734c-0.46832,0.26623 -0.28327,-0.40999 -0.71177,-0.32709c-0.2547,0.04913 -1.27036,0.9028 -1.2775,0.91197z" fill="#ffcfea"/><path d="M239.08758,195.97231c0.23584,0.16435 -0.19201,-0.56325 -0.48424,-0.4578c-0.28846,0.10417 -1.8007,0.96442 -2.00352,0.7235c-0.35553,-0.47616 0.19028,-1.60607 -0.11481,-2.10657c0.09711,0.1533 0.70465,0.02913 0.70465,0.02913c0.03248,-0.00936 0.49358,-0.20504 0.96421,-0.61926c0.38698,-0.34058 0.77086,-0.71884 0.98655,-0.56806c0.14931,0.10416 0.54704,0.42733 0.55991,0.80355c0.01356,0.39971 0.16621,0.93107 0.06062,1.32971c-0.04569,0.17261 -0.44822,1.15188 -0.53039,1.27274c-0.12525,0.18377 -0.19019,-0.43987 -0.14297,-0.40694z" fill="#ead42f"/></g><g data-paper-data="{&quot;index&quot;:null}" stroke="none" stroke-width="0.17188" stroke-linecap="butt"><path d="M238.79198,199.65167c0.01231,1.65217 0.27298,2.27098 0.29115,3.3499c0.0138,0.8194 -0.42937,1.17039 -0.57217,1.05219c-0.331,-0.27381 -1.29763,-3.11124 -1.35077,-4.49891c-0.03341,-0.87703 -0.63379,-2.99507 -0.33677,-3.79772c0.19539,-0.52732 1.035,-0.61541 1.60817,-0.61025c0.44365,0.00312 0.55965,-0.14633 0.59518,0.2823c0.10722,1.29642 -0.24708,2.57032 -0.23478,4.22249z" fill="#c27e34"/><path d="M237.71114,194.01965c-0.31189,0.40806 -0.67535,0.29939 -0.83338,0.17856c-0.75714,-0.61932 -1.25883,-1.74761 -1.22564,-2.62526c-0.04109,0.17406 0.25945,-0.82405 1.20634,-0.75729c0.41026,0.01118 1.15349,-0.16393 1.81309,-0.18619l0.6319,0.14334c0.29039,0.06576 0.43752,0.47143 0.28713,0.75345c-0.02221,0.04172 0.22175,-0.06644 0.36106,0.06386c0.25077,0.23455 0.45879,0.77255 0.26436,1.01731c-0.17028,0.21479 -0.16828,0.6299 -0.51558,0.82734c-0.46832,0.26623 -0.28327,-0.40999 -0.71177,-0.32709c-0.2547,0.04913 -1.27036,0.9028 -1.2775,0.91197z" fill="#ffcfea"/><path d="M239.08758,195.97231c0.23584,0.16435 -0.19201,-0.56325 -0.48424,-0.4578c-0.28846,0.10417 -1.8007,0.96442 -2.00352,0.7235c-0.35553,-0.47616 0.19028,-1.60607 -0.11481,-2.10657c0.09711,0.1533 0.70465,0.02913 0.70465,0.02913c0.03248,-0.00936 0.49358,-0.20504 0.96421,-0.61926c0.38698,-0.34058 0.77086,-0.71884 0.98655,-0.56806c0.14931,0.10416 0.54704,0.42733 0.55991,0.80355c0.01356,0.39971 0.16621,0.93107 0.06062,1.32971c-0.04569,0.17261 -0.44822,1.15188 -0.53039,1.27274c-0.12525,0.18377 -0.19019,-0.43987 -0.14297,-0.40694z" fill="#ead42f"/></g><path d="M238.77751,208.0437c0,0 -0.09206,-4.00159 -0.02481,-4.12896c0.26199,-0.49533 0.87924,-0.36285 1.0287,-0.36171c0.11834,0.0009 0.67821,0.05842 0.76508,0.15604c0.28156,0.31667 0.3499,1.13256 0.33381,1.96105c-0.01011,0.94759 1.53856,3.49258 1.23981,3.93084c-0.35833,0.39327 -3.3426,-1.55725 -3.3426,-1.55725z" data-paper-data="{&quot;index&quot;:null}" fill="#c27e34" stroke="none" stroke-width="0.17188" stroke-linecap="butt"/><path d="M237.07199,204.15875c0,-0.51334 1.17861,-0.44414 2.3646,-0.44414c1.186,0 2.16052,-0.46559 2.16052,0.04775c0,0.09149 0.05779,0.14811 -0.18415,0.3482c-0.13449,0.11122 0.38174,0.1634 0.19684,0.28743c-0.41662,0.27946 -1.69529,0.07931 -2.22423,0.07931c-0.438,0 -1.88844,0.36799 -2.21704,0.13437c-0.19722,-0.14022 0.45234,-0.13297 0.3122,-0.24058c-0.2586,-0.19856 -0.40873,-0.13346 -0.40873,-0.21233z" data-paper-data="{&quot;index&quot;:null}" fill="#ffe340" stroke="none" stroke-width="0" stroke-linecap="butt"/><path d="M238.39333,203.74762c0,-0.07045 0.28665,0.05651 1.08552,-0.02551c0.49694,-0.05102 1.10443,-0.12807 1.10443,-0.05762c0,0.07044 -1.89317,0.38071 -2.16581,0.3909c-0.27265,0.01019 -0.02415,-0.23732 -0.02415,-0.30777z" data-paper-data="{&quot;index&quot;:null}" fill="#000000" stroke="none" stroke-width="0" stroke-linecap="butt"/><g data-paper-data="{&quot;index&quot;:null}" stroke="none" stroke-width="0" stroke-linecap="butt"><path d="M251.82283,203.34219c0,0 -1.37045,-0.60158 -2.21574,1.38871c-0.32646,1.23032 -1.8295,3.11809 -1.8295,3.11809c0,0 -0.95809,1.36442 -1.14513,0.30033c-0.08705,-0.49534 -0.20427,-0.97147 -0.26188,-1.44533c-0.06614,-0.54409 -0.05369,-1.08522 0.17328,-1.64901c0,0 1.03869,-2.46185 2.35761,-3.08367c1.3189,-0.62182 2.92136,1.37088 2.92136,1.37088z" fill="#54c81c"/><path d="M252.50473,203.79012c-0.17408,0.35401 -0.60215,0.49989 -0.95617,0.32582c-0.35401,-0.17407 -0.4999,-0.60215 -0.32583,-0.95617c0.17407,-0.35401 0.60217,-0.49989 0.95617,-0.32583c0.35401,0.17408 0.4999,0.60216 0.32582,0.95617z" fill="#ffffff"/></g><g data-paper-data="{&quot;index&quot;:null}" stroke="none" stroke-width="0" stroke-linecap="butt"><path d="M248.96925,203.02367c1.28842,-0.68275 2.98218,1.23296 2.98218,1.23296c0,0 -1.39703,-0.53693 -2.14846,1.49067c-0.26864,1.2442 -1.68189,3.20012 -1.68189,3.20012c0,0 -0.89333,1.40768 -1.12985,0.35348c-0.11009,-0.49075 -0.24942,-0.96088 -0.3291,-1.43153c-0.09149,-0.54042 -0.10431,-1.08152 0.09608,-1.6553c0,0 0.92259,-2.50766 2.21102,-3.19041z" fill="#54c81c"/><path d="M252.65351,204.67224c-0.15735,0.36176 -0.57816,0.52746 -0.93991,0.37011c-0.36176,-0.15734 -0.52747,-0.57815 -0.37013,-0.93991c0.15734,-0.36176 0.57816,-0.52748 0.93991,-0.37013c0.36176,0.15735 0.52746,0.57817 0.37011,0.93991z" fill="#ffffff"/></g><path d="M244.74921,210.95112l-4.70404,-2.21481l0.60905,-1.51037c0,0 3.51726,3.18526 4.79657,1.59039c0.42086,-0.49271 1.67771,-2.55283 1.67771,-2.55283c0,0 1.17251,-2.32086 1.72096,-2.64193c0.69766,-0.40842 0.82322,0.36052 0.6774,0.94479c-0.14582,0.58427 -1.04292,1.69541 -1.51672,2.48919c-0.57637,0.96565 -0.88134,1.9859 -1.77842,3.1941c-0.89706,1.20819 -1.48253,0.70149 -1.48253,0.70149z" data-paper-data="{&quot;index&quot;:null}" fill="#ffffff" stroke="none" stroke-width="0" stroke-linecap="butt"/><path d="M245.48186,212.17686l-4.84714,-1.88111l0.50215,-1.5492c0,0 3.73099,2.93202 4.89587,1.25176c0.38545,-0.52088 1.49546,-2.6637 1.49546,-2.6637c0,0 1.00768,-2.39703 1.53239,-2.75559c0.66746,-0.45612 0.84636,0.30218 0.7417,0.89522c-0.10469,0.59303 -0.92206,1.76405 -1.3393,2.58898c-0.50757,1.00353 -0.74059,2.04256 -1.55115,3.31042c-0.81056,1.26786 -1.42996,0.80324 -1.42996,0.80324z" data-paper-data="{&quot;index&quot;:null}" fill="#ffffff" stroke="none" stroke-width="0" stroke-linecap="butt"/><path d="M242.41579,199.33791c0.00829,0.91731 -0.07479,1.83203 -0.14928,2.74595c-0.00987,0.3766 -0.23809,0.70548 -0.51551,0.94307c-0.30181,0.25026 -0.70933,0.30311 -1.07427,0.41276c-0.56982,0.14908 -1.15765,0.21892 -1.74587,0.19255c-0.72475,0.00583 -1.63987,-0.08704 -2.27393,-0.50729c-0.433,-0.19789 -0.36573,-0.18733 -0.81297,-0.36633c-0.89368,-0.50019 -1.51796,-1.39139 -1.82531,-2.35572c-0.1886,-0.57645 -0.28265,-1.19519 -0.21409,-1.80059c0.04349,-0.25488 0.63824,-4.52602 4.65704,-4.20958c4.38686,0.34543 3.94681,4.82575 3.95419,4.94518z" data-paper-data="{&quot;index&quot;:null}" fill="#f0e9bb" stroke="none" stroke-width="0.17188" stroke-linecap="butt"/><path d="M235.6621,199.0178c-0.41598,-0.42365 -0.5583,-0.4713 -0.86131,-0.20713c-0.22698,0.17767 -0.383,0.79509 -0.39571,1.21444c-0.01699,0.56033 0.12964,0.98414 0.12964,0.98414c0,0 -0.12404,-0.12706 -0.22168,-0.41893c-0.09763,-0.29187 0.0206,-0.63787 -0.1514,-0.75489c-0.18013,-0.12255 -1.02375,-0.25868 -1.02375,-0.25868c0,0 1.18552,-0.00044 1.18793,-0.07506c0.01044,-0.32358 0.20923,-0.65476 0.32553,-0.75955c0.20913,-0.18845 0.33615,-0.26181 0.61027,-0.18982c0.19654,0.05162 0.31465,0.16919 0.52276,0.38144c0.67457,0.688 0.05779,2.33696 0.05779,2.33696c0,0 0.39068,-1.80504 -0.18008,-2.25292z" data-paper-data="{&quot;index&quot;:null}" fill="#000000" stroke="none" stroke-width="0" stroke-linecap="butt"/><path d="M235.0141,198.77493c0.60616,0.20764 0.80532,0.55337 0.88745,1.10205c0.13052,0.29848 0.0266,1.4395 -0.18074,1.43449c-0.21061,-0.03294 -0.45723,-0.07261 -0.71039,-0.12755c-0.39524,-0.08573 -0.50141,-0.18913 -0.46418,-0.27076c0.02567,-0.05636 -0.0445,-0.22565 -0.07917,-0.3932c-0.03529,-0.17062 -0.03528,-0.34144 -0.03743,-0.62631c-0.00193,-0.26421 0.0396,-0.55522 0.10168,-0.75089c0.08878,-0.27904 0.23453,-0.40844 0.48279,-0.36783z" data-paper-data="{&quot;index&quot;:null}" fill="#ffffff" stroke="none" stroke-width="0.17188" stroke-linecap="butt"/><g data-paper-data="{&quot;index&quot;:null}" stroke="none" stroke-linecap="butt"><path d="M235.01611,201.44943c-0.25026,0 -0.45314,-0.42916 -0.45314,-0.95856c0,-0.5294 0.20288,-0.95856 0.45314,-0.95856c0.25026,0 0.45314,0.42916 0.45314,0.95856c0,0.5294 -0.20288,0.95856 -0.45314,0.95856z" fill="#008ae6" stroke-width="0"/><path d="M235.02082,199.66532c0.07882,0.00751 0.14831,0.09815 0.19679,0.23878c0.04832,0.14064 0.07575,0.33112 0.07057,0.5381c-0.00505,0.20684 -0.04175,0.39133 -0.097,0.52226c-0.0551,0.1309 -0.1288,0.20825 -0.20772,0.20089c-0.07892,-0.00734 -0.14829,-0.09815 -0.19677,-0.23877c-0.04835,-0.14064 -0.07579,-0.33112 -0.07075,-0.53808c0.0052,-0.20685 0.04188,-0.39135 0.09713,-0.52227c0.05512,-0.13091 0.1288,-0.20826 0.20772,-0.2009z" fill="#000000" stroke-width="0.0278"/><path d="M235.1652,199.90324c0.04207,0.09778 0.067,0.23122 0.06483,0.37734c-0.00203,0.14592 -0.0307,0.27689 -0.0755,0.37069c-0.04461,0.09378 -0.10533,0.15045 -0.17136,0.1474c-0.066,-0.00305 -0.12505,-0.06522 -0.16694,-0.16303c-0.04207,-0.09778 -0.067,-0.23123 -0.06482,-0.37735c0.00203,-0.14592 0.03069,-0.27689 0.07549,-0.37069c0.04461,-0.09377 0.10533,-0.15044 0.17136,-0.14739c0.066,0.00306 0.12505,0.06521 0.16695,0.16302z" fill="#ffffff" stroke-width="0.01811"/></g><path d="M239.11576,199.63979c0.35637,-0.51369 0.6619,-0.65129 1.01899,-0.65129c0.50009,0 0.79537,0.76866 0.81319,1.38581c0.02,0.6926 -0.32037,1.01971 -0.32037,1.01971c0,0 -0.44393,0.13011 -0.93532,0.15374c-0.31485,0.01504 -0.66508,-0.01872 -0.92479,-0.01872c-0.25019,-0.027 0.26074,-1.76302 0.3483,-1.88925z" data-paper-data="{&quot;index&quot;:null}" fill="#ffffff" stroke="none" stroke-width="0.17188" stroke-linecap="butt"/><g data-paper-data="{&quot;index&quot;:null}" stroke="none" stroke-linecap="butt"><path d="M239.26611,201.78276c-0.25025,0 -0.45313,-0.42916 -0.45313,-0.95856c0,-0.5294 0.20288,-0.95856 0.45313,-0.95856c0.25025,0 0.45313,0.42916 0.45313,0.95856c0,0.5294 -0.20288,0.95856 -0.45313,0.95856z" fill="#008ae6" stroke-width="0"/><path d="M239.27082,199.99866c0.07883,0.00751 0.14831,0.09815 0.19679,0.23877c0.04832,0.14064 0.07575,0.33112 0.07057,0.53811c-0.00505,0.20684 -0.04175,0.39133 -0.097,0.52225c-0.05511,0.13089 -0.1288,0.20825 -0.20772,0.20089c-0.07892,-0.00735 -0.14829,-0.09815 -0.19677,-0.23877c-0.04835,-0.14064 -0.07579,-0.33112 -0.07075,-0.53808c0.0052,-0.20685 0.04188,-0.39135 0.09713,-0.52227c0.05512,-0.13091 0.1288,-0.20827 0.20772,-0.20091z" fill="#000000" stroke-width="0.0278"/><path d="M239.4152,200.23658c0.04207,0.09779 0.067,0.23123 0.06483,0.37735c-0.00203,0.14592 -0.03069,0.27689 -0.07549,0.37069c-0.04461,0.09379 -0.10533,0.15045 -0.17136,0.1474c-0.066,-0.00305 -0.12505,-0.06523 -0.16695,-0.16303c-0.04207,-0.09779 -0.067,-0.23123 -0.06483,-0.37735c0.00203,-0.14592 0.03069,-0.27689 0.07549,-0.37069c0.04461,-0.09377 0.10533,-0.15044 0.17136,-0.14739c0.066,0.00307 0.12505,0.06521 0.16695,0.16301z" fill="#ffffff" stroke-width="0.01811"/></g><path d="M238.65515,201.48709c0,0 -0.0558,-1.42945 0.61877,-2.11745c0.20811,-0.21225 0.375,-0.3786 0.57155,-0.43023c0.27411,-0.07199 0.4987,0.00137 0.70783,0.18982c0.1163,0.10479 0.31509,0.43598 0.32552,0.75955c0.00241,0.07462 1.18793,0.07506 1.18793,0.07506c0,0 -0.84362,0.13614 -1.02374,0.25869c-0.172,0.11702 -0.05377,0.46302 -0.1514,0.75489c-0.09763,0.29187 -0.22167,0.41893 -0.22167,0.41893c0,0 0.14663,-0.42381 0.12964,-0.98414c-0.01271,-0.41935 -0.16873,-1.03677 -0.39571,-1.21444c-0.30301,-0.26416 -0.61607,-0.19212 -1.03205,0.23153c-0.57075,0.44788 -0.71667,2.05779 -0.71667,2.05779z" data-paper-data="{&quot;index&quot;:null}" fill="#000000" stroke="none" stroke-width="0" stroke-linecap="butt"/><path d="M235.89031,201.29102c0,0 -0.13578,0.53333 -0.55,0.53333c-0.41422,0 -0.81666,-0.8 -0.81666,-0.8l0.45,0.13333z" data-paper-data="{&quot;index&quot;:null}" fill="#f0e9bb" stroke="none" stroke-width="0" stroke-linecap="butt"/><path d="M240.19174,201.55326c0,0 -0.03262,0.54938 -0.43938,0.6276c-0.40676,0.07823 -0.95305,-0.63138 -0.95305,-0.63138l0.46708,0.04595z" data-paper-data="{&quot;index&quot;:null}" fill="#f0e9bb" stroke="none" stroke-width="0" stroke-linecap="butt"/><path d="M234.17569,194.32667c0.53291,0.41952 -1.44797,3.23903 -1.13443,2.76977c-0.57581,-0.36125 -1.00948,-1.05934 -1.13694,-1.59871c-0.01168,-0.04938 0.04788,-0.18509 0.04788,-0.18509c-0.08847,0.02195 0.02907,-0.08505 0.03874,-0.17766c0.00756,-0.07285 -0.06897,-0.22774 -0.06897,-0.22774c-0.04071,0.02855 0.17393,-0.08686 0.25292,-0.16276c0.0653,-0.06265 0.03575,-0.10348 0.08967,-0.14211c0.37841,-0.27247 1.02097,-0.40739 1.91114,-0.27572z" data-paper-data="{&quot;index&quot;:null}" fill="#ed3e67" stroke="none" stroke-width="0.17188" stroke-linecap="butt"/><path d="M242.12355,198.50494c-0.05192,-0.08862 -0.15901,-0.14285 -0.31453,-0.23427c-0.11686,-0.06882 -0.3437,-0.20296 -0.4179,-0.27277c-0.18624,-0.17526 -0.97715,-0.15406 -0.93088,-0.07863c-0.06178,0.11265 0.00814,-0.3057 -1.04143,0.66619l-1.11742,1.03524c-0.10286,0.09521 -0.51081,0.48087 -0.8336,0.59047c-0.34694,0.11781 -0.85989,0.15752 -0.90562,0.08715c0,0 -0.3188,-0.57042 -0.50977,-0.78797c-0.07261,-0.08272 -0.0661,0.09614 0.00661,0.32608c0.01196,0.03802 0.23462,0.61098 0.22407,0.63619c-0.0572,0.13561 -1.18757,-1.65837 -1.2487,-1.75711l-0.3766,-0.60986c-0.12713,-0.20563 -0.33143,-0.1024 -0.417,-0.12504c-0.12858,-0.03413 -0.20748,0.06971 -0.21701,0.19788c-0.01227,0.16212 -0.02664,0.83255 -0.0393,0.93047c-0.06663,0.51858 0.21,1.22247 0.3464,1.96056c0.07985,0.4317 1.81335,1.98359 1.59355,1.66951c-0.09915,-0.14181 -0.11348,1.00975 -0.40955,1.15609c-0.21129,0.10467 -1.23121,-1.73001 -1.33604,-2.12083l-0.59922,-2.23153c-0.17564,-0.65343 0.16115,-2.49518 0.25814,-2.8296l0.18943,-0.65333c0.34568,-0.77152 0.83538,-1.45764 1.49133,-2.04514c0.04176,-0.03743 0.64921,-0.72041 1.72312,-1.07386c0.67818,-0.22326 1.80981,-0.25245 1.89862,-0.25298c0.52087,-0.00311 1.53734,-0.02544 2.4643,0.18494c0.58965,0.13382 1.11357,0.43125 1.54567,0.66383c0.07767,0.04168 -0.76907,1.04864 -0.69444,1.08466c0.03625,0.01736 -0.19921,0.96832 -0.19108,1.05917l0.05416,0.60671c0.0548,0.61334 0.60799,1.24503 0.70796,1.32706c0.13679,0.11243 0.60891,0.45435 0.76783,0.45968l0.53564,0.01843c0.07339,0.00231 0.71723,-0.45702 0.76769,-0.41151c0.17775,0.16046 0.08205,1.08685 0.04438,1.26885l-0.19816,0.95796c-0.06389,0.30855 -0.08136,0.4827 -0.27869,0.90659c-0.27048,0.58171 -0.54356,1.16251 -0.96633,1.69223c-0.34159,0.42817 -1.98634,1.63204 -1.9544,1.47756l0.27,-1.31409l0.23684,-1.858l-0.1281,-2.30693z" data-paper-data="{&quot;index&quot;:null}" fill="#54c81c" stroke="none" stroke-width="0.17188" stroke-linecap="butt"/><path d="M246.04329,197.01382c-1.00078,0.33384 -2.28175,-1.76388 -2.28175,-1.76388c0.00276,-0.37679 0.92995,-1.13995 1.97873,-1.02607c0.80157,0.08718 1.32391,0.35958 1.58435,0.69583c0.03719,0.04801 0.00159,0.07835 0.04266,0.15079c0.04983,0.08749 0.20707,0.24266 0.17887,0.2071c0,0 -0.10416,0.12354 -0.11541,0.19163c-0.01437,0.08664 0.0613,0.21166 -0.00985,0.17104c0,0 0.01836,0.13768 -0.00387,0.17998c-0.24216,0.46238 -0.78776,0.99803 -1.37378,1.19361z" data-paper-data="{&quot;index&quot;:null}" fill="#ed3e67" stroke="none" stroke-width="0.17188" stroke-linecap="butt"/><path d="M242.98867,195.91684c0.09515,0.06728 0.00183,-0.50809 0.13513,-1.06798c0.14226,-0.59788 0.52356,-1.1859 1.03928,-1.21136c0.2978,-0.01462 0.56382,0.08224 0.81442,0.1559c0.51699,0.15187 0.87947,0.36527 0.6971,0.43407c-0.3095,0.11688 -0.70715,0.33598 -0.97319,0.52116c-0.37942,0.26397 -0.62357,0.46649 -0.60523,0.48719l1.17881,1.3299l0.79835,0.47571c0.13276,0.06993 -0.22495,0.29791 -0.62822,0.46084c-0.3481,0.14081 -0.5911,0.35404 -0.71329,0.39008c-0.54407,0.16142 -0.47108,-0.09105 -1.10401,-0.4393c-0.36801,-0.20254 -0.78206,-1.63759 -0.63915,-1.53619z" data-paper-data="{&quot;index&quot;:null}" fill="#54c81c" stroke="none" stroke-width="0.17188" stroke-linecap="butt"/><path d="M242.24483,195.87625c0.03762,-1.28213 0.56867,-2.73625 1.44309,-2.31217c0.36672,0.17776 -0.20064,0.41666 -0.48822,1.17262c-0.183,0.48108 -0.22002,1.22118 0.06481,2.12863c0.03003,0.09516 0.18831,0.28156 0.4051,0.52292c0.33212,0.37005 1.70935,0.17825 1.49485,0.30433l-0.83792,0.4921l-0.58878,-0.11246c-0.37521,0.02385 -1.52723,-1.02281 -1.49288,-2.19596z" data-paper-data="{&quot;index&quot;:null}" fill="#ead32e" stroke="none" stroke-width="0.17188" stroke-linecap="butt"/><path d="M234.53163,195.18915c-0.0788,0.26521 -0.39808,0.66696 -0.39808,0.66696c-0.04104,-0.13001 0.08382,-0.34191 0.08131,-0.45852c-0.00585,-0.26957 0.18963,-0.92631 0.67493,-1.37564l0.27603,-0.25544c0.13587,-0.12585 0.63098,-0.25197 0.72674,-0.18961c0.11439,0.15328 -0.49026,0.47597 -0.89382,1.01691c-0.19345,0.25931 -0.46711,0.59538 -0.46711,0.59538z" data-paper-data="{&quot;index&quot;:null}" fill="#ead32e" stroke="none" stroke-width="0.17188" stroke-linecap="butt"/><path d="M234.38278,195.1094c-0.05889,0.1366 -0.27256,0.81052 -0.36697,1.14305l-0.37215,1.31058c-0.02737,0.09642 -0.75643,-0.45059 -0.70213,-0.74481c-0.12581,-0.33486 -0.01622,-0.62067 0.02875,-0.91968c0.14485,-0.32635 0.41623,-0.76942 0.59674,-0.94832c0.14539,-0.14407 -0.02085,-0.60667 0.10462,-0.79693c0.18873,-0.28651 1.22924,-0.2468 1.22924,-0.2468z" data-paper-data="{&quot;index&quot;:null}" fill="#54c81c" stroke="none" stroke-width="0.17188" stroke-linecap="butt"/><path d="M240.29117,202.98995l-0.83906,-0.00612" data-paper-data="{&quot;index&quot;:null}" fill="none" stroke="#dfcfa3" stroke-width="0.36953" stroke-linecap="round"/><g data-paper-data="{&quot;index&quot;:null}" stroke="none" stroke-linecap="butt"><path d="M239.71839,215.4132c-0.22037,-0.66416 4.10534,-0.71041 4.19474,-0.41955c0.03692,0.12015 2.81439,-0.47695 3.54396,-0.39372c0.7296,0.08322 2.26662,0.87027 2.26662,0.87027l-2.67264,1.19536c0,0 -1.61818,0.48953 -2.67916,0.48001c-1.06099,-0.00955 -4.08736,-0.41971 -4.08736,-0.41971z" data-paper-data="{&quot;index&quot;:null}" fill="#54c81c" stroke-width="0.17188"/><g><path d="M237.48295,213.29149c-0.00797,0.11099 -0.75697,1.9082 -0.75598,2.70236c0.00032,0.26028 -1.48678,0.41519 -2.40626,0.35569c-0.91949,-0.0595 -2.35258,-0.75329 -2.35258,-0.75329l0.48096,-0.80832l1.65886,0.36955l1.62057,0.18289z" data-paper-data="{&quot;index&quot;:null}" fill="#54c81c" stroke-width="0.17188"/><path d="M234.83056,214.1111c0.57826,-0.381 0.36213,-0.02359 1.23476,-1.15173c0.87263,-1.12813 1.26146,-3.39004 2.5712,-5.22675c0.3188,0.94596 -0.77522,4.02546 -1.05165,5.1264c-0.27644,1.10096 -0.69397,1.57672 -0.85746,2.21097c-0.17657,0.68453 -2.30282,0.21888 -3.65069,-0.02586c-1.34785,-0.24475 1.17554,-0.55208 1.7538,-0.93308z" data-paper-data="{&quot;index&quot;:null}" fill="#ffffff" stroke-width="0.17188"/><path d="M237.74984,213.60058c0.01803,-0.59569 2.25128,-0.41112 2.23849,-0.15264c-0.00527,0.10686 -0.25118,2.38102 -0.2265,3.1468c0.01453,0.44997 -0.61065,1.42268 -1.43348,1.95695c-0.82283,0.53429 -4.53247,0.80741 -4.53247,0.80741c0,0 0.92986,-0.87892 1.40409,-1.5215c0.47421,-0.64257 1.25543,-1.07993 1.25423,-1.75306z" data-paper-data="{&quot;index&quot;:null}" fill="#54c81c" stroke-width="0.17188"/><path d="M241.16598,207.22171c0,0 0.49793,0.17065 0.51451,0.37276c0.04042,0.49289 0.06997,2.08031 -0.31935,3.38752c-0.38934,1.30723 -1.15234,3.73821 -1.3124,4.36062c-0.17285,0.67175 -0.64936,0.05052 -0.89193,0.38157c-0.49571,0.67748 -2.53293,1.00415 -2.96025,0.9658c-0.4468,-0.04011 0.40806,-1.04921 0.48365,-1.63442c0.07559,-0.5852 0.25847,-0.46577 0.32714,-1.7557c0.06941,-1.30353 0.23457,-1.65007 0.52823,-2.64551c0,0 0.40055,-2.1176 0.88008,-2.87799l0.57681,-0.85234z" data-paper-data="{&quot;index&quot;:null}" fill="#ffffff" stroke-width="0.17188"/><g data-paper-data="{&quot;index&quot;:null}"><path d="M246.19895,212.46876c0.26972,0.84284 -2.31826,2.60191 -2.70058,1.95419c-0.96455,-1.62931 -2.38227,-7.12609 -2.28245,-7.34593c0.08862,-0.15533 1.43859,1.54032 2.48891,3.18558c0.53837,0.84331 2.20559,1.58482 2.4941,2.20613z" data-paper-data="{&quot;index&quot;:null}" fill="#ffffff" stroke-width="0.19137"/><path d="M244.66391,213.52087c0.27136,-0.36407 1.23612,-1.50566 1.23612,-1.50566l0.97085,0.63919c0,0 -1.43849,2.58627 -1.64937,2.30363c-0.48664,-0.65269 -1.3278,-1.13074 -1.42973,-1.39756c-0.14619,-0.38266 0.32518,0.26218 0.59648,-0.10182z" data-paper-data="{&quot;index&quot;:null}" fill="#54c81c" stroke-width="0.17188"/></g><path d="M241.24282,207.94759c0.5207,0.59433 1.85537,2.45233 2.57083,3.66122c0.25425,0.42965 3.26042,2.88188 4.18274,3.52731c0.37083,0.25951 -1.11636,0.48689 -1.9476,0.68595c-0.83125,0.19907 -1.60826,0.16566 -1.60826,0.16566c0,0 -1.04846,0.48033 -1.6245,0.29401c-0.57606,-0.18636 -2.8154,0.3941 -3.25123,-1.02371c-0.44045,-1.43289 -0.61287,-3.86273 -0.81271,-4.84853c-0.19984,-0.9858 0.50799,-3.17482 1.07401,-3.34351c0,0 0.89602,0.28728 1.41672,0.8816z" data-paper-data="{&quot;index&quot;:null}" fill="#ffffff" stroke-width="0.17188"/></g></g><path d="M233.11402,199.577l0.88618,-0.02564l0.05378,0.20263z" data-paper-data="{&quot;index&quot;:null}" fill="#000000" stroke="none" stroke-width="0" stroke-linecap="butt"/><g data-paper-data="{&quot;index&quot;:null}" stroke="none" stroke-width="0.17188" stroke-linecap="butt"><g data-paper-data="{&quot;index&quot;:null}"><path d="M240.12386,203.79595c0.01817,-1.07889 -0.09428,-1.69772 -0.08199,-3.3499c0.01228,-1.65217 -0.19275,-2.92607 -0.08553,-4.22249c0.03552,-0.42864 0.37541,-0.27918 0.81906,-0.2823c0.57316,-0.00517 1.63665,-0.06634 1.83205,0.461c0.29699,0.80266 -0.378,3.14459 -0.4114,4.0216c-0.05314,1.38767 -1.16902,4.15049 -1.50002,4.42428c-0.14279,0.1182 -0.58598,-0.23279 -0.57216,-1.05219z" fill="#c27e34"/><path d="M241.49577,194.81401c-0.00714,-0.00917 -1.02279,-0.86282 -1.2775,-0.91197c-0.42851,-0.08289 -0.24346,0.59331 -0.71177,0.32709c-0.3473,-0.19743 -0.3453,-0.61255 -0.51558,-0.82734c-0.19443,-0.24477 0.01358,-0.78276 0.26436,-1.01731c0.13933,-0.1303 0.38329,-0.02214 0.36106,-0.06386c-0.15039,-0.282 -0.00326,-0.68769 0.28712,-0.75345l0.6319,-0.14334c0.6596,0.02226 1.40281,0.19738 1.81309,0.18619c0.94691,-0.06675 1.24743,0.93136 1.20635,0.75729c0.03319,0.87764 -0.46849,2.00593 -1.22564,2.62526c-0.15802,0.12083 -0.52149,0.2295 -0.83338,-0.17856z" fill="#ffcfea"/></g><path d="M240.07833,196.32811c-0.43194,-0.18369 -0.40394,-0.30087 -0.45576,-0.51599c-0.11979,-0.49687 0.04574,-1.16348 0.05803,-1.66347c0.01167,-0.47059 0.09393,-0.33557 0.25868,-0.46795c0.238,-0.19169 0.76068,-0.1264 1.25285,-0.07156c0.49218,0.05484 1.29395,0.31794 1.33,0.32917c0,0 0.18202,0.75044 0.20893,1.24393c0.02692,0.49349 0.19009,0.5053 -0.06108,1.08154c-0.22313,0.30416 -0.85051,0.22614 -1.42132,0.23981c-0.5708,0.01368 -0.73838,0.00818 -1.17032,-0.17551z" data-paper-data="{&quot;index&quot;:null}" fill="#fca03b"/></g><g data-paper-data="{&quot;index&quot;:null}" stroke="none" stroke-width="0" stroke-linecap="butt"><path d="M251.82283,203.34219c0,0 -1.37045,-0.60158 -2.21574,1.38871c-0.32646,1.23032 -1.8295,3.11809 -1.8295,3.11809c0,0 -0.95809,1.36442 -1.14513,0.30033c-0.08705,-0.49534 -0.20427,-0.97147 -0.26188,-1.44533c-0.06614,-0.54409 -0.05369,-1.08522 0.17328,-1.64901c0,0 1.03869,-2.46185 2.35761,-3.08367c1.3189,-0.62182 2.92136,1.37088 2.92136,1.37088z" fill="#54c81c"/><path d="M252.50473,203.79012c-0.17408,0.35401 -0.60215,0.49989 -0.95617,0.32582c-0.35401,-0.17407 -0.4999,-0.60215 -0.32583,-0.95617c0.17407,-0.35401 0.60217,-0.49989 0.95617,-0.32583c0.35401,0.17408 0.4999,0.60216 0.32582,0.95617z" fill="#ffffff"/></g><g data-paper-data="{&quot;index&quot;:null}" stroke="none" stroke-width="0" stroke-linecap="butt"><path d="M248.96925,203.02367c1.28842,-0.68275 2.98218,1.23296 2.98218,1.23296c0,0 -1.39703,-0.53693 -2.14846,1.49067c-0.26864,1.2442 -1.68189,3.20012 -1.68189,3.20012c0,0 -0.89333,1.40768 -1.12985,0.35348c-0.11009,-0.49075 -0.24942,-0.96088 -0.3291,-1.43153c-0.09149,-0.54042 -0.10431,-1.08152 0.09608,-1.6553c0,0 0.92259,-2.50766 2.21102,-3.19041z" fill="#54c81c"/><path d="M252.65351,204.67224c-0.15735,0.36176 -0.57816,0.52746 -0.93991,0.37011c-0.36176,-0.15734 -0.52747,-0.57815 -0.37013,-0.93991c0.15734,-0.36176 0.57816,-0.52748 0.93991,-0.37013c0.36176,0.15735 0.52746,0.57817 0.37011,0.93991z" fill="#ffffff"/></g><path d="M244.74921,210.95112l-4.70404,-2.21481l0.60905,-1.51037c0,0 3.51726,3.18526 4.79657,1.59039c0.42086,-0.49271 1.67771,-2.55283 1.67771,-2.55283c0,0 1.17251,-2.32086 1.72096,-2.64193c0.69766,-0.40842 0.82322,0.36052 0.6774,0.94479c-0.14582,0.58427 -1.04292,1.69541 -1.51672,2.48919c-0.57637,0.96565 -0.88134,1.9859 -1.77842,3.1941c-0.89706,1.20819 -1.48253,0.70149 -1.48253,0.70149z" data-paper-data="{&quot;index&quot;:null}" fill="#ffffff" stroke="none" stroke-width="0" stroke-linecap="butt"/><path d="M245.48186,212.17686l-4.84714,-1.88111l0.50215,-1.5492c0,0 3.73099,2.93202 4.89587,1.25176c0.38545,-0.52088 1.49546,-2.6637 1.49546,-2.6637c0,0 1.00768,-2.39703 1.53239,-2.75559c0.66746,-0.45612 0.84636,0.30218 0.7417,0.89522c-0.10469,0.59303 -0.92206,1.76405 -1.3393,2.58898c-0.50757,1.00353 -0.74059,2.04256 -1.55115,3.31042c-0.81056,1.26786 -1.42996,0.80324 -1.42996,0.80324z" data-paper-data="{&quot;index&quot;:null}" fill="#ffffff" stroke="none" stroke-width="0" stroke-linecap="butt"/><path d="M242.41579,199.33791c0.00829,0.91731 -0.07479,1.83203 -0.14928,2.74595c-0.00987,0.3766 -0.23809,0.70548 -0.51551,0.94307c-0.30181,0.25026 -0.70933,0.30311 -1.07427,0.41276c-0.56982,0.14908 -1.15765,0.21892 -1.74587,0.19255c-0.72475,0.00583 -1.63987,-0.08704 -2.27393,-0.50729c-0.433,-0.19789 -0.36573,-0.18733 -0.81297,-0.36633c-0.89368,-0.50019 -1.51796,-1.39139 -1.82531,-2.35572c-0.1886,-0.57645 -0.28265,-1.19519 -0.21409,-1.80059c0.04349,-0.25488 0.63824,-4.52602 4.65704,-4.20958c4.38686,0.34543 3.94681,4.82575 3.95419,4.94518z" data-paper-data="{&quot;index&quot;:null}" fill="#f0e9bb" stroke="none" stroke-width="0.17188" stroke-linecap="butt"/><path d="M235.6621,199.0178c-0.41598,-0.42365 -0.5583,-0.4713 -0.86131,-0.20713c-0.22698,0.17767 -0.383,0.79509 -0.39571,1.21444c-0.01699,0.56033 0.12964,0.98414 0.12964,0.98414c0,0 -0.12404,-0.12706 -0.22168,-0.41893c-0.09763,-0.29187 0.0206,-0.63787 -0.1514,-0.75489c-0.18013,-0.12255 -1.02375,-0.25868 -1.02375,-0.25868c0,0 1.18552,-0.00044 1.18793,-0.07506c0.01044,-0.32358 0.20923,-0.65476 0.32553,-0.75955c0.20913,-0.18845 0.33615,-0.26181 0.61027,-0.18982c0.19654,0.05162 0.31465,0.16919 0.52276,0.38144c0.67457,0.688 0.05779,2.33696 0.05779,2.33696c0,0 0.39068,-1.80504 -0.18008,-2.25292z" data-paper-data="{&quot;index&quot;:null}" fill="#000000" stroke="none" stroke-width="0" stroke-linecap="butt"/><path d="M235.0141,198.77493c0.60616,0.20764 0.80532,0.55337 0.88745,1.10205c0.13052,0.29848 0.0266,1.4395 -0.18074,1.43449c-0.21061,-0.03294 -0.45723,-0.07261 -0.71039,-0.12755c-0.39524,-0.08573 -0.50141,-0.18913 -0.46418,-0.27076c0.02567,-0.05636 -0.0445,-0.22565 -0.07917,-0.3932c-0.03529,-0.17062 -0.03528,-0.34144 -0.03743,-0.62631c-0.00193,-0.26421 0.0396,-0.55522 0.10168,-0.75089c0.08878,-0.27904 0.23453,-0.40844 0.48279,-0.36783z" data-paper-data="{&quot;index&quot;:null}" fill="#ffffff" stroke="none" stroke-width="0.17188" stroke-linecap="butt"/><g data-paper-data="{&quot;index&quot;:null}" stroke="none" stroke-linecap="butt"><path d="M235.01611,201.44943c-0.25026,0 -0.45314,-0.42916 -0.45314,-0.95856c0,-0.5294 0.20288,-0.95856 0.45314,-0.95856c0.25026,0 0.45314,0.42916 0.45314,0.95856c0,0.5294 -0.20288,0.95856 -0.45314,0.95856z" fill="#008ae6" stroke-width="0"/><path d="M235.02082,199.66532c0.07882,0.00751 0.14831,0.09815 0.19679,0.23878c0.04832,0.14064 0.07575,0.33112 0.07057,0.5381c-0.00505,0.20684 -0.04175,0.39133 -0.097,0.52226c-0.0551,0.1309 -0.1288,0.20825 -0.20772,0.20089c-0.07892,-0.00734 -0.14829,-0.09815 -0.19677,-0.23877c-0.04835,-0.14064 -0.07579,-0.33112 -0.07075,-0.53808c0.0052,-0.20685 0.04188,-0.39135 0.09713,-0.52227c0.05512,-0.13091 0.1288,-0.20826 0.20772,-0.2009z" fill="#000000" stroke-width="0.0278"/><path d="M235.1652,199.90324c0.04207,0.09778 0.067,0.23122 0.06483,0.37734c-0.00203,0.14592 -0.0307,0.27689 -0.0755,0.37069c-0.04461,0.09378 -0.10533,0.15045 -0.17136,0.1474c-0.066,-0.00305 -0.12505,-0.06522 -0.16694,-0.16303c-0.04207,-0.09778 -0.067,-0.23123 -0.06482,-0.37735c0.00203,-0.14592 0.03069,-0.27689 0.07549,-0.37069c0.04461,-0.09377 0.10533,-0.15044 0.17136,-0.14739c0.066,0.00306 0.12505,0.06521 0.16695,0.16302z" fill="#ffffff" stroke-width="0.01811"/></g><path d="M239.11576,199.63979c0.35637,-0.51369 0.6619,-0.65129 1.01899,-0.65129c0.50009,0 0.79537,0.76866 0.81319,1.38581c0.02,0.6926 -0.32037,1.01971 -0.32037,1.01971c0,0 -0.44393,0.13011 -0.93532,0.15374c-0.31485,0.01504 -0.66508,-0.01872 -0.92479,-0.01872c-0.25019,-0.027 0.26074,-1.76302 0.3483,-1.88925z" data-paper-data="{&quot;index&quot;:null}" fill="#ffffff" stroke="none" stroke-width="0.17188" stroke-linecap="butt"/><g data-paper-data="{&quot;index&quot;:null}" stroke="none" stroke-linecap="butt"><path d="M239.26611,201.78276c-0.25025,0 -0.45313,-0.42916 -0.45313,-0.95856c0,-0.5294 0.20288,-0.95856 0.45313,-0.95856c0.25025,0 0.45313,0.42916 0.45313,0.95856c0,0.5294 -0.20288,0.95856 -0.45313,0.95856z" fill="#008ae6" stroke-width="0"/><path d="M239.27082,199.99866c0.07883,0.00751 0.14831,0.09815 0.19679,0.23877c0.04832,0.14064 0.07575,0.33112 0.07057,0.53811c-0.00505,0.20684 -0.04175,0.39133 -0.097,0.52225c-0.05511,0.13089 -0.1288,0.20825 -0.20772,0.20089c-0.07892,-0.00735 -0.14829,-0.09815 -0.19677,-0.23877c-0.04835,-0.14064 -0.07579,-0.33112 -0.07075,-0.53808c0.0052,-0.20685 0.04188,-0.39135 0.09713,-0.52227c0.05512,-0.13091 0.1288,-0.20827 0.20772,-0.20091z" fill="#000000" stroke-width="0.0278"/><path d="M239.4152,200.23658c0.04207,0.09779 0.067,0.23123 0.06483,0.37735c-0.00203,0.14592 -0.03069,0.27689 -0.07549,0.37069c-0.04461,0.09379 -0.10533,0.15045 -0.17136,0.1474c-0.066,-0.00305 -0.12505,-0.06523 -0.16695,-0.16303c-0.04207,-0.09779 -0.067,-0.23123 -0.06483,-0.37735c0.00203,-0.14592 0.03069,-0.27689 0.07549,-0.37069c0.04461,-0.09377 0.10533,-0.15044 0.17136,-0.14739c0.066,0.00307 0.12505,0.06521 0.16695,0.16301z" fill="#ffffff" stroke-width="0.01811"/></g><path d="M238.65515,201.48709c0,0 -0.0558,-1.42945 0.61877,-2.11745c0.20811,-0.21225 0.375,-0.3786 0.57155,-0.43023c0.27411,-0.07199 0.4987,0.00137 0.70783,0.18982c0.1163,0.10479 0.31509,0.43598 0.32552,0.75955c0.00241,0.07462 1.18793,0.07506 1.18793,0.07506c0,0 -0.84362,0.13614 -1.02374,0.25869c-0.172,0.11702 -0.05377,0.46302 -0.1514,0.75489c-0.09763,0.29187 -0.22167,0.41893 -0.22167,0.41893c0,0 0.14663,-0.42381 0.12964,-0.98414c-0.01271,-0.41935 -0.16873,-1.03677 -0.39571,-1.21444c-0.30301,-0.26416 -0.61607,-0.19212 -1.03205,0.23153c-0.57075,0.44788 -0.71667,2.05779 -0.71667,2.05779z" data-paper-data="{&quot;index&quot;:null}" fill="#000000" stroke="none" stroke-width="0" stroke-linecap="butt"/><path d="M235.89031,201.29102c0,0 -0.13578,0.53333 -0.55,0.53333c-0.41422,0 -0.81666,-0.8 -0.81666,-0.8l0.45,0.13333z" data-paper-data="{&quot;index&quot;:null}" fill="#f0e9bb" stroke="none" stroke-width="0" stroke-linecap="butt"/><path d="M240.19174,201.55326c0,0 -0.03262,0.54938 -0.43938,0.6276c-0.40676,0.07823 -0.95305,-0.63138 -0.95305,-0.63138l0.46708,0.04595z" data-paper-data="{&quot;index&quot;:null}" fill="#f0e9bb" stroke="none" stroke-width="0" stroke-linecap="butt"/><path d="M234.17569,194.32667c0.53291,0.41952 -1.44797,3.23903 -1.13443,2.76977c-0.57581,-0.36125 -1.00948,-1.05934 -1.13694,-1.59871c-0.01168,-0.04938 0.04788,-0.18509 0.04788,-0.18509c-0.08847,0.02195 0.02907,-0.08505 0.03874,-0.17766c0.00756,-0.07285 -0.06897,-0.22774 -0.06897,-0.22774c-0.04071,0.02855 0.17393,-0.08686 0.25292,-0.16276c0.0653,-0.06265 0.03575,-0.10348 0.08967,-0.14211c0.37841,-0.27247 1.02097,-0.40739 1.91114,-0.27572z" data-paper-data="{&quot;index&quot;:null}" fill="#ed3e67" stroke="none" stroke-width="0.17188" stroke-linecap="butt"/><path d="M242.12355,198.50494c-0.05192,-0.08862 -0.15901,-0.14285 -0.31453,-0.23427c-0.11686,-0.06882 -0.3437,-0.20296 -0.4179,-0.27277c-0.18624,-0.17526 -0.97715,-0.15406 -0.93088,-0.07863c-0.06178,0.11265 0.00814,-0.3057 -1.04143,0.66619l-1.11742,1.03524c-0.10286,0.09521 -0.51081,0.48087 -0.8336,0.59047c-0.34694,0.11781 -0.85989,0.15752 -0.90562,0.08715c0,0 -0.3188,-0.57042 -0.50977,-0.78797c-0.07261,-0.08272 -0.0661,0.09614 0.00661,0.32608c0.01196,0.03802 0.23462,0.61098 0.22407,0.63619c-0.0572,0.13561 -1.18757,-1.65837 -1.2487,-1.75711l-0.3766,-0.60986c-0.12713,-0.20563 -0.33143,-0.1024 -0.417,-0.12504c-0.12858,-0.03413 -0.20748,0.06971 -0.21701,0.19788c-0.01227,0.16212 -0.02664,0.83255 -0.0393,0.93047c-0.06663,0.51858 0.21,1.22247 0.3464,1.96056c0.07985,0.4317 1.81335,1.98359 1.59355,1.66951c-0.09915,-0.14181 -0.11348,1.00975 -0.40955,1.15609c-0.21129,0.10467 -1.23121,-1.73001 -1.33604,-2.12083l-0.59922,-2.23153c-0.17564,-0.65343 0.16115,-2.49518 0.25814,-2.8296l0.18943,-0.65333c0.34568,-0.77152 0.83538,-1.45764 1.49133,-2.04514c0.04176,-0.03743 0.64921,-0.72041 1.72312,-1.07386c0.67818,-0.22326 1.80981,-0.25245 1.89862,-0.25298c0.52087,-0.00311 1.53734,-0.02544 2.4643,0.18494c0.58965,0.13382 1.11357,0.43125 1.54567,0.66383c0.07767,0.04168 -0.76907,1.04864 -0.69444,1.08466c0.03625,0.01736 -0.19921,0.96832 -0.19108,1.05917l0.05416,0.60671c0.0548,0.61334 0.60799,1.24503 0.70796,1.32706c0.13679,0.11243 0.60891,0.45435 0.76783,0.45968l0.53564,0.01843c0.07339,0.00231 0.71723,-0.45702 0.76769,-0.41151c0.17775,0.16046 0.08205,1.08685 0.04438,1.26885l-0.19816,0.95796c-0.06389,0.30855 -0.08136,0.4827 -0.27869,0.90659c-0.27048,0.58171 -0.54356,1.16251 -0.96633,1.69223c-0.34159,0.42817 -1.98634,1.63204 -1.9544,1.47756l0.27,-1.31409l0.23684,-1.858l-0.1281,-2.30693z" data-paper-data="{&quot;index&quot;:null}" fill="#54c81c" stroke="none" stroke-width="0.17188" stroke-linecap="butt"/><path d="M246.04329,197.01382c-1.00078,0.33384 -2.28175,-1.76388 -2.28175,-1.76388c0.00276,-0.37679 0.92995,-1.13995 1.97873,-1.02607c0.80157,0.08718 1.32391,0.35958 1.58435,0.69583c0.03719,0.04801 0.00159,0.07835 0.04266,0.15079c0.04983,0.08749 0.20707,0.24266 0.17887,0.2071c0,0 -0.10416,0.12354 -0.11541,0.19163c-0.01437,0.08664 0.0613,0.21166 -0.00985,0.17104c0,0 0.01836,0.13768 -0.00387,0.17998c-0.24216,0.46238 -0.78776,0.99803 -1.37378,1.19361z" data-paper-data="{&quot;index&quot;:null}" fill="#ed3e67" stroke="none" stroke-width="0.17188" stroke-linecap="butt"/><path d="M242.98867,195.91684c0.09515,0.06728 0.00183,-0.50809 0.13513,-1.06798c0.14226,-0.59788 0.52356,-1.1859 1.03928,-1.21136c0.2978,-0.01462 0.56382,0.08224 0.81442,0.1559c0.51699,0.15187 0.87947,0.36527 0.6971,0.43407c-0.3095,0.11688 -0.70715,0.33598 -0.97319,0.52116c-0.37942,0.26397 -0.62357,0.46649 -0.60523,0.48719l1.17881,1.3299l0.79835,0.47571c0.13276,0.06993 -0.22495,0.29791 -0.62822,0.46084c-0.3481,0.14081 -0.5911,0.35404 -0.71329,0.39008c-0.54407,0.16142 -0.47108,-0.09105 -1.10401,-0.4393c-0.36801,-0.20254 -0.78206,-1.63759 -0.63915,-1.53619z" data-paper-data="{&quot;index&quot;:null}" fill="#54c81c" stroke="none" stroke-width="0.17188" stroke-linecap="butt"/><path d="M242.24483,195.87625c0.03762,-1.28213 0.56867,-2.73625 1.44309,-2.31217c0.36672,0.17776 -0.20064,0.41666 -0.48822,1.17262c-0.183,0.48108 -0.22002,1.22118 0.06481,2.12863c0.03003,0.09516 0.18831,0.28156 0.4051,0.52292c0.33212,0.37005 1.70935,0.17825 1.49485,0.30433l-0.83792,0.4921l-0.58878,-0.11246c-0.37521,0.02385 -1.52723,-1.02281 -1.49288,-2.19596z" data-paper-data="{&quot;index&quot;:null}" fill="#ead32e" stroke="none" stroke-width="0.17188" stroke-linecap="butt"/><path d="M234.53163,195.18915c-0.0788,0.26521 -0.39808,0.66696 -0.39808,0.66696c-0.04104,-0.13001 0.08382,-0.34191 0.08131,-0.45852c-0.00585,-0.26957 0.18963,-0.92631 0.67493,-1.37564l0.27603,-0.25544c0.13587,-0.12585 0.63098,-0.25197 0.72674,-0.18961c0.11439,0.15328 -0.49026,0.47597 -0.89382,1.01691c-0.19345,0.25931 -0.46711,0.59538 -0.46711,0.59538z" data-paper-data="{&quot;index&quot;:null}" fill="#ead32e" stroke="none" stroke-width="0.17188" stroke-linecap="butt"/><path d="M234.38278,195.1094c-0.05889,0.1366 -0.27256,0.81052 -0.36697,1.14305l-0.37215,1.31058c-0.02737,0.09642 -0.75643,-0.45059 -0.70213,-0.74481c-0.12581,-0.33486 -0.01622,-0.62067 0.02875,-0.91968c0.14485,-0.32635 0.41623,-0.76942 0.59674,-0.94832c0.14539,-0.14407 -0.02085,-0.60667 0.10462,-0.79693c0.18873,-0.28651 1.22924,-0.2468 1.22924,-0.2468z" data-paper-data="{&quot;index&quot;:null}" fill="#54c81c" stroke="none" stroke-width="0.17188" stroke-linecap="butt"/><path d="M240.29117,202.98995l-0.83906,-0.00612" data-paper-data="{&quot;index&quot;:null}" fill="none" stroke="#dfcfa3" stroke-width="0.36953" stroke-linecap="round"/><g data-paper-data="{&quot;index&quot;:null}" stroke="none" stroke-linecap="butt"><path d="M239.71839,215.4132c-0.22037,-0.66416 4.10534,-0.71041 4.19474,-0.41955c0.03692,0.12015 2.81439,-0.47695 3.54396,-0.39372c0.7296,0.08322 2.26662,0.87027 2.26662,0.87027l-2.67264,1.19536c0,0 -1.61818,0.48953 -2.67916,0.48001c-1.06099,-0.00955 -4.08736,-0.41971 -4.08736,-0.41971z" data-paper-data="{&quot;index&quot;:null}" fill="#54c81c" stroke-width="0.17188"/><g><path d="M237.48295,213.29149c-0.00797,0.11099 -0.75697,1.9082 -0.75598,2.70236c0.00032,0.26028 -1.48678,0.41519 -2.40626,0.35569c-0.91949,-0.0595 -2.35258,-0.75329 -2.35258,-0.75329l0.48096,-0.80832l1.65886,0.36955l1.62057,0.18289z" data-paper-data="{&quot;index&quot;:null}" fill="#54c81c" stroke-width="0.17188"/><path d="M234.83056,214.1111c0.57826,-0.381 0.36213,-0.02359 1.23476,-1.15173c0.87263,-1.12813 1.26146,-3.39004 2.5712,-5.22675c0.3188,0.94596 -0.77522,4.02546 -1.05165,5.1264c-0.27644,1.10096 -0.69397,1.57672 -0.85746,2.21097c-0.17657,0.68453 -2.30282,0.21888 -3.65069,-0.02586c-1.34785,-0.24475 1.17554,-0.55208 1.7538,-0.93308z" data-paper-data="{&quot;index&quot;:null}" fill="#ffffff" stroke-width="0.17188"/><path d="M237.74984,213.60058c0.01803,-0.59569 2.25128,-0.41112 2.23849,-0.15264c-0.00527,0.10686 -0.25118,2.38102 -0.2265,3.1468c0.01453,0.44997 -0.61065,1.42268 -1.43348,1.95695c-0.82283,0.53429 -4.53247,0.80741 -4.53247,0.80741c0,0 0.92986,-0.87892 1.40409,-1.5215c0.47421,-0.64257 1.25543,-1.07993 1.25423,-1.75306z" data-paper-data="{&quot;index&quot;:null}" fill="#54c81c" stroke-width="0.17188"/><path d="M241.16598,207.22171c0,0 0.49793,0.17065 0.51451,0.37276c0.04042,0.49289 0.06997,2.08031 -0.31935,3.38752c-0.38934,1.30723 -1.15234,3.73821 -1.3124,4.36062c-0.17285,0.67175 -0.64936,0.05052 -0.89193,0.38157c-0.49571,0.67748 -2.53293,1.00415 -2.96025,0.9658c-0.4468,-0.04011 0.40806,-1.04921 0.48365,-1.63442c0.07559,-0.5852 0.25847,-0.46577 0.32714,-1.7557c0.06941,-1.30353 0.23457,-1.65007 0.52823,-2.64551c0,0 0.40055,-2.1176 0.88008,-2.87799l0.57681,-0.85234z" data-paper-data="{&quot;index&quot;:null}" fill="#ffffff" stroke-width="0.17188"/><g data-paper-data="{&quot;index&quot;:null}"><path d="M246.19895,212.46876c0.26972,0.84284 -2.31826,2.60191 -2.70058,1.95419c-0.96455,-1.62931 -2.38227,-7.12609 -2.28245,-7.34593c0.08862,-0.15533 1.43859,1.54032 2.48891,3.18558c0.53837,0.84331 2.20559,1.58482 2.4941,2.20613z" data-paper-data="{&quot;index&quot;:null}" fill="#ffffff" stroke-width="0.19137"/><path d="M244.66391,213.52087c0.27136,-0.36407 1.23612,-1.50566 1.23612,-1.50566l0.97085,0.63919c0,0 -1.43849,2.58627 -1.64937,2.30363c-0.48664,-0.65269 -1.3278,-1.13074 -1.42973,-1.39756c-0.14619,-0.38266 0.32518,0.26218 0.59648,-0.10182z" data-paper-data="{&quot;index&quot;:null}" fill="#54c81c" stroke-width="0.17188"/></g><path d="M241.24282,207.94759c0.5207,0.59433 1.85537,2.45233 2.57083,3.66122c0.25425,0.42965 3.26042,2.88188 4.18274,3.52731c0.37083,0.25951 -1.11636,0.48689 -1.9476,0.68595c-0.83125,0.19907 -1.60826,0.16566 -1.60826,0.16566c0,0 -1.04846,0.48033 -1.6245,0.29401c-0.57606,-0.18636 -2.8154,0.3941 -3.25123,-1.02371c-0.44045,-1.43289 -0.61287,-3.86273 -0.81271,-4.84853c-0.19984,-0.9858 0.50799,-3.17482 1.07401,-3.34351c0,0 0.89602,0.28728 1.41672,0.8816z" data-paper-data="{&quot;index&quot;:null}" fill="#ffffff" stroke-width="0.17188"/></g></g><g data-paper-data="{&quot;index&quot;:null}" stroke-width="0" stroke-linecap="butt"><path d="M226.93288,192.91228c-0.46353,0.12359 -0.9395,-0.15199 -1.06309,-0.61553c-0.12359,-0.46353 0.15198,-0.9395 0.61552,-1.06309c0.46354,-0.12359 0.93951,0.15199 1.0631,0.61553c0.1236,0.46353 -0.15198,0.9395 -0.61552,1.06309z" fill="#db7b04" stroke="none"/><path d="M226.49273,191.1422c0.27037,-0.07209 0.35937,0.41245 0.47891,0.86079c0.11954,0.44833 0.19288,0.9073 -0.04972,0.97199c-0.15927,0.04246 -0.16981,-0.43324 -0.28935,-0.88158c-0.11954,-0.44835 -0.29909,-0.90874 -0.13982,-0.95121z" fill="#feeb00" stroke="#000000"/><path d="M225.9254,192.23095c0.17504,-0.04667 0.5784,-0.10797 0.60174,-0.02045c0.02335,0.08752 0.15218,0.24815 -0.02286,0.29482c-0.17503,0.04667 -0.57283,0.01726 -0.59617,-0.07026c-0.02333,-0.08751 -0.15774,-0.15742 0.0173,-0.20409z" fill="#000000" stroke="none"/><path d="M226.34985,191.57273c0.01227,0.04601 -0.07727,0.10983 -0.19997,0.14255c-0.12271,0.03273 -0.20435,0.01454 -0.21662,-0.03148c-0.01227,-0.04603 0.20132,-0.20241 0.32402,-0.23513c0.1227,-0.03273 0.0803,0.07803 0.09257,0.12404z" fill="#000000" stroke="none"/></g><path d="M239.14297,193.18034c-1.2877,0.03749 -3.52581,0.80848 -3.52581,0.80848c0,0 -0.20921,-0.79308 -1.1397,-1.35532c-0.93049,-0.56224 -1.29932,-0.69242 -2.21815,-0.72592c-0.91883,-0.0335 -1.19265,-0.14524 -2.33412,-0.04032c-1.14147,0.10492 -2.80398,0.24544 -2.80398,0.24544c0,0 1.04538,-1.54339 3.82072,-2.37918c2.77533,-0.83579 4.97615,-0.82875 6.77306,-0.53546c1.79691,0.29329 3.3527,1.13518 4.20971,2.02579c1.04038,1.08117 1.73599,2.53078 1.73599,2.53078c0,0 -3.13151,-0.61465 -4.51772,-0.57429z" data-paper-data="{&quot;index&quot;:null}" fill="#c27e34" stroke="none" stroke-width="0" stroke-linecap="butt"/><path d="M239.43691,201.77421c0,-0.32172 0.80526,-0.12708 1.39624,-0.26252c0.15674,-0.03592 0.33217,-0.09323 0.5003,-0.14139c0.39354,-0.11273 0.74705,-0.17532 0.72717,0.20391c-0.02836,0.54124 -0.53507,0.78252 -1.18527,0.78252c-0.60801,0 -1.43843,-0.26081 -1.43843,-0.58253z" data-paper-data="{&quot;index&quot;:null}" fill="url(#color-1)" stroke="none" stroke-width="0" stroke-linecap="butt"/><path d="M233.11402,199.577l0.88618,-0.02564l0.05378,0.20263z" data-paper-data="{&quot;index&quot;:null}" fill="#000000" stroke="none" stroke-width="0" stroke-linecap="butt"/><g data-paper-data="{&quot;index&quot;:null}" stroke="none" stroke-width="0.17188" stroke-linecap="butt"><g data-paper-data="{&quot;index&quot;:null}"><path d="M240.12386,203.79595c0.01817,-1.07889 -0.09428,-1.69772 -0.08199,-3.3499c0.01228,-1.65217 -0.19275,-2.92607 -0.08553,-4.22249c0.03552,-0.42864 0.37541,-0.27918 0.81906,-0.2823c0.57316,-0.00517 1.63665,-0.06634 1.83205,0.461c0.29699,0.80266 -0.378,3.14459 -0.4114,4.0216c-0.05314,1.38767 -1.16902,4.15049 -1.50002,4.42428c-0.14279,0.1182 -0.58598,-0.23279 -0.57216,-1.05219z" fill="#c27e34"/><path d="M241.49577,194.81401c-0.00714,-0.00917 -1.02279,-0.86282 -1.2775,-0.91197c-0.42851,-0.08289 -0.24346,0.59331 -0.71177,0.32709c-0.3473,-0.19743 -0.3453,-0.61255 -0.51558,-0.82734c-0.19443,-0.24477 0.01358,-0.78276 0.26436,-1.01731c0.13933,-0.1303 0.38329,-0.02214 0.36106,-0.06386c-0.15039,-0.282 -0.00326,-0.68769 0.28712,-0.75345l0.6319,-0.14334c0.6596,0.02226 1.40281,0.19738 1.81309,0.18619c0.94691,-0.06675 1.24743,0.93136 1.20635,0.75729c0.03319,0.87764 -0.46849,2.00593 -1.22564,2.62526c-0.15802,0.12083 -0.52149,0.2295 -0.83338,-0.17856z" fill="#ffcfea"/></g><path d="M240.07833,196.32811c-0.43194,-0.18369 -0.40394,-0.30087 -0.45576,-0.51599c-0.11979,-0.49687 0.04574,-1.16348 0.05803,-1.66347c0.01167,-0.47059 0.09393,-0.33557 0.25868,-0.46795c0.238,-0.19169 0.76068,-0.1264 1.25285,-0.07156c0.49218,0.05484 1.29395,0.31794 1.33,0.32917c0,0 0.18202,0.75044 0.20893,1.24393c0.02692,0.49349 0.19009,0.5053 -0.06108,1.08154c-0.22313,0.30416 -0.85051,0.22614 -1.42132,0.23981c-0.5708,0.01368 -0.73838,0.00818 -1.17032,-0.17551z" data-paper-data="{&quot;index&quot;:null}" fill="#fca03b"/></g><g data-paper-data="{&quot;index&quot;:null}" stroke="none" stroke-width="0" stroke-linecap="butt"><path d="M233.52209,195.36767c0.18824,-0.093 0.46559,-0.20212 0.55442,-0.19946c0.13113,0.00392 0.54731,0.01 0.70055,0.09362c0.20075,0.10956 0.35574,0.34482 0.35417,0.39727c-0.00142,0.04753 -0.25004,0.03612 -0.45892,-0.05274c-0.13804,-0.05872 -0.20636,-0.2006 -0.36178,-0.20524c-0.17314,-0.00518 -0.62493,0.2778 -0.84826,0.32602c-0.08677,0.01874 -0.35887,-0.11555 -0.55282,-0.28758c-0.20501,-0.18185 -0.32986,-0.40255 -0.32986,-0.40255l0.26294,-0.41024l0.41471,0.89813c0,0 0.08979,-0.07077 0.26485,-0.15726z" fill="#671829"/><path d="M234.69412,195.66864c0.13299,0.00397 0.4191,0.08849 0.41575,0.2007c-0.00335,0.11219 -0.1179,0.33537 -0.25088,0.3314c-0.03035,-0.0009 -0.98337,-0.5588 -1.18165,-0.07626c-0.09593,0.23347 0.5537,0.54454 0.5537,0.54454l-0.32416,0.14341c0,0 -0.48878,-0.40863 -0.30244,-0.75598c0.26928,-0.50198 1.02074,-0.38988 1.08971,-0.38782z" fill="#671829"/><path d="M235.40453,196.64279c0,0 -0.12434,0.0135 -0.11888,-0.16945c0.00129,-0.04262 -0.00611,0.21352 -0.13626,0.28794c-0.14535,0.08312 -0.40019,-0.01113 -0.43317,-0.09726c-0.03539,-0.09246 0.01341,-0.30483 0.12363,-0.45688c0.16037,-0.22128 0.3503,-0.38453 0.39333,-0.38325c0.14318,0.00428 0.53987,0.40313 0.54314,0.58879c0.00167,0.09431 -0.3718,0.2301 -0.3718,0.2301z" fill="#804046"/><path d="M235.75535,195.09858c-0.01434,0.18512 -0.42673,0.81587 -0.56991,0.8116c-0.04303,-0.00128 -0.1025,-0.172 -0.24936,-0.40245c-0.10093,-0.15836 -0.23157,-0.46749 -0.23157,-0.46749l0.42539,-0.14692l0.04403,0.27827c0,0 0.08588,-0.28811 0.19392,-0.3258c0.05697,-0.01985 0.39479,0.15874 0.3875,0.25279z" data-paper-data="{&quot;index&quot;:null}" fill="#804046"/><path d="M235.40514,195.8179c-0.0026,0.08727 -0.08051,0.15575 -0.17401,0.15295c-0.0935,-0.00279 -0.16718,-0.07579 -0.16457,-0.16307c0.0026,-0.08727 0.08051,-0.15575 0.17401,-0.15295c0.0935,0.00279 0.16718,0.07579 0.16457,0.16307z" fill="#671829"/></g><path d="M236.21155,201.33941c0,0.32172 -0.46339,0.58253 -0.80266,0.58253c-0.36282,0 -0.76556,-0.40128 -0.78139,-0.94252c-0.01109,-0.37923 0.26617,0.00336 0.48577,0.11608c0.09382,0.04816 0.27171,0.06547 0.35917,0.10139c0.32977,0.13544 0.73911,-0.17919 0.73911,0.14253z" data-paper-data="{&quot;index&quot;:null}" fill="url(#color-2)" stroke="none" stroke-width="0" stroke-linecap="butt"/></g></g></svg>