<svg version="1.1" xmlns="http://www.w3.org/2000/svg" xmlns:xlink="http://www.w3.org/1999/xlink" width="19.57481" height="32.00997" viewBox="0,0,19.57481,32.00997"><defs><radialGradient cx="239.45507" cy="201.82025" r="1.31225" gradientUnits="userSpaceOnUse" id="color-1"><stop offset="0" stop-color="#f5ab87" stop-opacity="0.34902"/><stop offset="1" stop-color="#f5ab87" stop-opacity="0"/></radialGradient><radialGradient cx="244.72495" cy="201.38547" r="0.73225" gradientUnits="userSpaceOnUse" id="color-2"><stop offset="0" stop-color="#f5ab87" stop-opacity="0.34902"/><stop offset="1" stop-color="#f5ab87" stop-opacity="0"/></radialGradient></defs><g transform="translate(-228.81199,-188.96773)"><g data-paper-data="{&quot;isPaintingLayer&quot;:true}" fill-rule="nonzero" stroke-linejoin="miter" stroke-miterlimit="10" stroke-dasharray="" stroke-dashoffset="0" style="mix-blend-mode: normal"><g data-paper-data="{&quot;index&quot;:null}" stroke="none" stroke-width="0" stroke-linecap="butt"><path d="M233.40839,217.11427c0.80649,-1.21481 3.39293,-1.88557 3.39293,-1.88557c0.59075,-0.14282 1.12796,-0.07669 1.65671,0.06765c0.4605,0.12571 0.9146,0.31074 1.39208,0.46869c1.02573,0.33935 -0.4632,1.08948 -0.4632,1.08948c0,0 -2.08576,1.21343 -3.35041,1.35804c-2.09184,0.54778 -1.69531,1.99096 -1.69531,1.99096c0,0 -1.7393,-1.87446 -0.93282,-3.08926z" fill="#54c81c"/><path d="M234.68554,220.94314c-0.37551,0.12088 -0.77792,-0.08552 -0.89882,-0.46103c-0.12089,-0.3755 0.08552,-0.77792 0.46103,-0.89882c0.3755,-0.1209 0.77791,0.08552 0.89881,0.46103c0.12089,0.37552 -0.08552,0.77792 -0.46103,0.89882z" fill="#ffffff"/></g><g data-paper-data="{&quot;index&quot;:null}" stroke="none" stroke-width="0" stroke-linecap="butt"><path d="M233.37897,214.42901c0.60498,0.05823 1.09102,0.2964 1.5435,0.60571c0.39407,0.26939 0.7627,0.59275 1.16227,0.89817c0.85836,0.65613 -0.79401,0.8781 -0.79401,0.8781c0,0 -2.3679,0.46463 -3.61031,0.18772c-2.15596,-0.16642 -2.25318,1.32708 -2.25318,1.32708c0,0 -1.03067,-2.34018 0.12873,-3.22445c1.15942,-0.88427 3.823,-0.67233 3.823,-0.67233z" fill="#54c81c"/><path d="M229.5108,219.13735c-0.39439,-0.00855 -0.70718,-0.33521 -0.69863,-0.72961c0.00855,-0.39439 0.33521,-0.70718 0.72961,-0.69863c0.39439,0.00855 0.70717,0.33521 0.69862,0.72961c-0.00855,0.3944 -0.33521,0.70718 -0.72961,0.69863z" fill="#ffffff"/></g><path d="M242.31839,194.04343c-0.00714,-0.00917 -1.0228,-0.86284 -1.2775,-0.91197c-0.4285,-0.0829 -0.24345,0.59332 -0.71177,0.32709c-0.3473,-0.19744 -0.3453,-0.61255 -0.51558,-0.82734c-0.19443,-0.24476 0.01359,-0.78276 0.26436,-1.01731c0.13931,-0.1303 0.38327,-0.02214 0.36106,-0.06386c-0.15039,-0.28202 -0.00326,-0.68769 0.28713,-0.75345l0.6319,-0.14334c0.6596,0.02226 1.40283,0.19737 1.81309,0.18619c0.94689,-0.06676 1.24743,0.93135 1.20634,0.75729c0.03319,0.87765 -0.4685,2.00594 -1.22564,2.62526c-0.15803,0.12083 -0.52149,0.2295 -0.83338,-0.17856z" data-paper-data="{&quot;index&quot;:null}" fill="#ffcfea" stroke="none" stroke-width="0.17188" stroke-linecap="butt"/><path d="M243.46656,215.00304c0,0 0.3511,0.69012 -1.03733,1.2704c-1.38843,0.5803 -2.45208,0.63103 -3.52798,0.95834c-0.88441,0.26906 -2.17865,0.87272 -2.78083,0.87379c-0.60219,0.00107 -1.31839,-0.30568 -0.75422,-0.88468c0.44351,-0.45518 2.97819,-1.03532 2.97819,-1.03532c0,0 2.30187,-0.7247 2.88131,-1.01476c1.85566,-0.85836 -0.39056,-5.03824 -0.39056,-5.03824l1.61249,-0.22807l1.01892,5.09855z" data-paper-data="{&quot;index&quot;:null}" fill="#ffffff" stroke="none" stroke-width="0" stroke-linecap="butt"/><path d="M239.6767,215.81898c0,0 0.1629,0.75697 -1.32777,0.96281c-1.49067,0.20585 -2.5319,-0.01716 -3.65573,0.02406c-0.92381,0.03388 -2.32939,0.28642 -2.91182,0.13343c-0.58243,-0.153 -1.19635,-0.63273 -0.50285,-1.04817c0.54516,-0.32659 3.14392,-0.23911 3.14392,-0.23911c0,0 2.41067,-0.11181 3.04503,-0.24401c2.01347,-0.35516 0.91112,-4.97055 0.91112,-4.97055l1.61719,0.19197l-0.31909,5.18956z" data-paper-data="{&quot;index&quot;:null}" fill="#ffffff" stroke="none" stroke-width="0" stroke-linecap="butt"/><path d="M244.88436,215.68945l1.5207,-0.30876l1.52438,-0.35915l0.45737,0.76027c0,0 -1.31061,0.6639 -2.158,0.72573c-0.84738,0.06182 -2.36496,-0.0753 -2.36903,-0.32106c-0.01241,-0.74985 -0.77225,-2.19367 -0.78147,-2.29842z" data-paper-data="{&quot;index&quot;:null}" fill="#54c81c" stroke="none" stroke-width="0.17188" stroke-linecap="butt"/><path d="M245.72075,214.3971c0.53996,0.35619 2.87341,0.6309 1.63389,0.87025c-1.23952,0.23935 -3.38399,0.83496 -3.55843,0.1897c-0.16152,-0.59786 -0.4595,-1.18737 -0.73308,-2.22521c-0.27358,-1.03785 -1.19895,-4.52681 -0.92071,-5.42195c1.18132,1.61605 1.59559,4.44753 2.4197,5.50735c0.82411,1.05981 0.61869,0.72369 1.15864,1.07987z" data-paper-data="{&quot;index&quot;:null}" fill="#ffffff" stroke="none" stroke-width="0.17188" stroke-linecap="butt"/><path d="M243.88265,215.9585c-0.03313,0.65928 0.54914,1.26755 0.97582,1.94017c0.42668,0.67262 1.28149,1.61822 1.28149,1.61822c0,0 -3.56374,-0.60509 -4.3317,-1.20334c-0.76796,-0.59825 -1.46736,-1.608 -1.432,-2.04748c0.06018,-0.74793 0.07399,-2.99809 0.07399,-3.10325c0,-0.25437 2.60688,-0.6424 2.59596,-0.05723z" data-paper-data="{&quot;index&quot;:null}" fill="#54c81c" stroke="none" stroke-width="0.17188" stroke-linecap="butt"/><path d="M242.21648,207.88943c0.49402,0.64738 0.75536,2.9 0.75536,2.9c0.23181,0.9784 0.37312,1.32442 0.37312,2.57856c0,1.24104 0.18229,1.14239 0.22509,1.70925c0.0428,0.56686 0.81451,1.60658 0.38205,1.60658c-0.41359,0 -2.35929,-0.48792 -2.80206,-1.17924c-0.21666,-0.33784 -0.70756,0.21605 -0.8396,-0.44203c-0.12224,-0.60972 -0.73253,-3.00308 -1.04053,-4.28824c-0.30799,-1.28516 0.11268,-2.88365 0.1769,-3.35214c0.04203,-0.30659 0.68747,-0.26544 1.17046,-0.39814c0.25506,-0.07008 0.29312,-0.46335 0.54772,-0.38252c0.73673,0.23389 1.05149,1.24792 1.05149,1.24792z" data-paper-data="{&quot;index&quot;:null}" fill="#ffffff" stroke="none" stroke-width="0.17188" stroke-linecap="butt"/><path d="M240.39079,216.41076c0,0 -1.01472,0.76086 -2.00333,1.04072c-0.98861,0.27986 -2.62161,0.24174 -2.62161,0.24174l-2.7932,-0.4198c0,0 1.24011,-1.11867 1.9009,-1.38182c0.66078,-0.26316 3.40326,-0.42201 3.40791,-0.54226c0.01126,-0.29112 2.25689,-0.50502 2.21603,0.16392z" data-paper-data="{&quot;index&quot;:null}" fill="#54c81c" stroke="none" stroke-width="0.17188" stroke-linecap="butt"/><g data-paper-data="{&quot;index&quot;:null}" stroke="none" stroke-linecap="butt"><path d="M232.57591,213.9371c0.22565,-0.59987 3.08436,-1.7912 3.67792,-2.65814c1.15802,-1.69139 2.3973,-4.19027 3.22694,-4.14569c0.31536,0.13969 -0.87326,5.59907 -1.8721,7.24689c-0.39483,0.65467 -5.10074,0.32701 -5.03275,-0.44305z" data-paper-data="{&quot;index&quot;:null}" fill="#ffffff" stroke-width="0.19137"/><path d="M236.66032,214.077c0.72969,0.19322 1.30043,-0.49118 1.22311,-0.13303c-0.0539,0.24971 -1.43951,0.93377 -2.03584,1.62991c-0.25852,0.3015 -4.48556,-1.24706 -4.48556,-1.24706l1.55148,-0.85934c0,0 2.51136,0.56501 3.24119,0.75826z" data-paper-data="{&quot;index&quot;:null}" fill="#54c81c" stroke-width="0.17188"/></g><path d="M240.06353,207.08007c0.57058,0.01097 0.38137,1.7011 0.43958,2.66145c0.0582,0.96035 -0.0501,3.53069 -0.10559,4.96492c-0.0549,1.41912 -0.49416,0.83781 -0.98591,1.15686c-0.49175,0.31904 -1.37579,0.53774 -1.37579,0.53774c0,0 -0.71745,0.22934 -1.54329,0.25808c-0.82583,0.02875 -2.27137,0.19897 -1.98946,-0.13514c0.70114,-0.83098 2.89985,-3.86097 3.03062,-4.32223c0.36797,-1.29785 1.15308,-3.35267 1.49179,-4.0339c0.3387,-0.68122 1.03805,-1.08778 1.03805,-1.08778z" data-paper-data="{&quot;index&quot;:null}" fill="#ffffff" stroke="none" stroke-width="0.17188" stroke-linecap="butt"/><path d="M241.47626,194.46c4.0188,-0.31644 4.61355,3.9547 4.65704,4.20958c0.06856,0.6054 -0.02549,1.22414 -0.21409,1.80059c-0.30735,0.96433 -0.93163,1.85553 -1.82531,2.35572c-0.44724,0.179 -0.37997,0.16844 -0.81297,0.36633c-0.63406,0.42025 -1.54918,0.51312 -2.27393,0.50729c-0.58822,0.02637 -1.17605,-0.04347 -1.74587,-0.19255c-0.36494,-0.10965 -0.77246,-0.1625 -1.07427,-0.41276c-0.27742,-0.23759 -0.50564,-0.56647 -0.51551,-0.94307c-0.07449,-0.91392 -0.15757,-1.82864 -0.14928,-2.74595c0.00738,-0.11943 -0.43267,-4.59975 3.95419,-4.94518z" data-paper-data="{&quot;index&quot;:null}" fill="#f0e9bb" stroke="none" stroke-width="0.17188" stroke-linecap="butt"/><path d="M244.87675,198.72746c0.24826,-0.04061 0.39401,0.08879 0.48279,0.36783c0.06208,0.19567 0.10361,0.48668 0.10168,0.75089c-0.00215,0.28487 -0.00214,0.45569 -0.03743,0.62631c-0.03467,0.16755 -0.10484,0.33684 -0.07917,0.3932c0.03723,0.08163 -0.06894,0.18503 -0.46418,0.27076c-0.25316,0.05494 -0.49978,0.09461 -0.71039,0.12755c-0.20734,0.00501 -0.31126,-1.13601 -0.18074,-1.43449c0.08213,-0.54868 0.28129,-0.89441 0.88745,-1.10205z" data-paper-data="{&quot;index&quot;:null}" fill="#ffffff" stroke="none" stroke-width="0.17188" stroke-linecap="butt"/><path d="M244.22877,198.97033c-0.57076,0.44788 -0.18008,2.25292 -0.18008,2.25292c0,0 -0.61678,-1.64896 0.05779,-2.33696c0.20811,-0.21225 0.32622,-0.32982 0.52276,-0.38144c0.27412,-0.07199 0.40114,0.00137 0.61027,0.18982c0.1163,0.10479 0.31509,0.43597 0.32553,0.75955c0.00241,0.07462 1.18793,0.07506 1.18793,0.07506c0,0 -0.84362,0.13613 -1.02375,0.25868c-0.172,0.11702 -0.05377,0.46302 -0.1514,0.75489c-0.09764,0.29187 -0.22168,0.41893 -0.22168,0.41893c0,0 0.14663,-0.42381 0.12964,-0.98414c-0.01271,-0.41935 -0.16873,-1.03677 -0.39571,-1.21444c-0.30301,-0.26417 -0.44533,-0.21652 -0.86131,0.20713z" data-paper-data="{&quot;index&quot;:null}" fill="#000000" stroke="none" stroke-width="0" stroke-linecap="butt"/><g data-paper-data="{&quot;index&quot;:null}" stroke="none" stroke-linecap="butt"><path d="M244.4216,200.4434c0,-0.5294 0.20288,-0.95856 0.45314,-0.95856c0.25026,0 0.45314,0.42916 0.45314,0.95856c0,0.5294 -0.20288,0.95856 -0.45314,0.95856c-0.25026,0 -0.45314,-0.42916 -0.45314,-0.95856z" fill="#008ae6" stroke-width="0"/><path d="M244.87007,199.61786c0.07892,-0.00736 0.1526,0.06999 0.20772,0.2009c0.05525,0.13092 0.09193,0.31542 0.09713,0.52227c0.00504,0.20696 -0.0224,0.39744 -0.07075,0.53808c-0.04848,0.14062 -0.11785,0.23143 -0.19677,0.23877c-0.07892,0.00736 -0.15262,-0.06999 -0.20772,-0.20089c-0.05525,-0.13093 -0.09195,-0.31542 -0.097,-0.52226c-0.00518,-0.20698 0.02225,-0.39746 0.07057,-0.5381c0.04848,-0.14063 0.11797,-0.23127 0.19679,-0.23878z" fill="#000000" stroke-width="0.0278"/><path d="M244.72564,199.85576c0.0419,-0.09781 0.10095,-0.15996 0.16695,-0.16302c0.06603,-0.00305 0.12675,0.05362 0.17136,0.14739c0.0448,0.0938 0.07346,0.22477 0.07549,0.37069c0.00218,0.14612 -0.02275,0.27957 -0.06482,0.37735c-0.04189,0.09781 -0.10094,0.15998 -0.16694,0.16303c-0.06603,0.00305 -0.12675,-0.05362 -0.17136,-0.1474c-0.0448,-0.0938 -0.07347,-0.22477 -0.0755,-0.37069c-0.00217,-0.14612 0.02276,-0.27956 0.06483,-0.37734z" fill="#ffffff" stroke-width="0.01811"/></g><path d="M241.12341,201.48157c-0.25971,0 -0.60994,0.03376 -0.92479,0.01872c-0.49139,-0.02363 -0.93532,-0.15374 -0.93532,-0.15374c0,0 -0.34037,-0.32711 -0.32037,-1.01971c0.01782,-0.61715 0.3131,-1.38581 0.81319,-1.38581c0.35709,0 0.66262,0.1376 1.01899,0.65129c0.08756,0.12623 0.59849,1.86225 0.3483,1.88925z" data-paper-data="{&quot;index&quot;:null}" fill="#ffffff" stroke="none" stroke-width="0.17188" stroke-linecap="butt"/><g data-paper-data="{&quot;index&quot;:null}" stroke="none" stroke-linecap="butt"><path d="M240.17162,200.77673c0,-0.5294 0.20288,-0.95856 0.45313,-0.95856c0.25025,0 0.45313,0.42916 0.45313,0.95856c0,0.5294 -0.20288,0.95856 -0.45313,0.95856c-0.25025,0 -0.45313,-0.42916 -0.45313,-0.95856z" fill="#008ae6" stroke-width="0"/><path d="M240.62007,199.95118c0.07892,-0.00736 0.1526,0.07 0.20772,0.20091c0.05525,0.13092 0.09193,0.31542 0.09713,0.52227c0.00504,0.20696 -0.0224,0.39744 -0.07075,0.53808c-0.04848,0.14062 -0.11785,0.23142 -0.19677,0.23877c-0.07892,0.00736 -0.15261,-0.07 -0.20772,-0.20089c-0.05525,-0.13092 -0.09195,-0.31541 -0.097,-0.52225c-0.00518,-0.20699 0.02225,-0.39747 0.07057,-0.53811c0.04848,-0.14062 0.11796,-0.23126 0.19679,-0.23877z" fill="#000000" stroke-width="0.0278"/><path d="M240.47565,200.1891c0.0419,-0.0978 0.10095,-0.15994 0.16695,-0.16301c0.06603,-0.00305 0.12675,0.05362 0.17136,0.14739c0.0448,0.0938 0.07346,0.22477 0.07549,0.37069c0.00217,0.14612 -0.02276,0.27956 -0.06483,0.37735c-0.0419,0.0978 -0.10095,0.15998 -0.16695,0.16303c-0.06603,0.00305 -0.12675,-0.05361 -0.17136,-0.1474c-0.0448,-0.0938 -0.07346,-0.22477 -0.07549,-0.37069c-0.00217,-0.14612 0.02276,-0.27956 0.06483,-0.37735z" fill="#ffffff" stroke-width="0.01811"/></g><path d="M240.51905,199.38183c-0.41598,-0.42365 -0.72904,-0.49569 -1.03205,-0.23153c-0.22698,0.17767 -0.383,0.79509 -0.39571,1.21444c-0.01699,0.56033 0.12964,0.98414 0.12964,0.98414c0,0 -0.12404,-0.12706 -0.22167,-0.41893c-0.09763,-0.29187 0.0206,-0.63787 -0.1514,-0.75489c-0.18012,-0.12255 -1.02374,-0.25869 -1.02374,-0.25869c0,0 1.18552,-0.00044 1.18793,-0.07506c0.01043,-0.32357 0.20922,-0.65476 0.32552,-0.75955c0.20913,-0.18845 0.43372,-0.26181 0.70783,-0.18982c0.19655,0.05163 0.36344,0.21798 0.57155,0.43023c0.67457,0.688 0.61877,2.11745 0.61877,2.11745c0,0 -0.14592,-1.60991 -0.71667,-2.05779z" data-paper-data="{&quot;index&quot;:null}" fill="#000000" stroke="none" stroke-width="0" stroke-linecap="butt"/><path d="M244.9172,201.11021l0.45,-0.13333c0,0 -0.40244,0.8 -0.81666,0.8c-0.41422,0 -0.55,-0.53333 -0.55,-0.53333z" data-paper-data="{&quot;index&quot;:null}" fill="#f0e9bb" stroke="none" stroke-width="0" stroke-linecap="butt"/><path d="M240.62447,201.54796l0.46708,-0.04595c0,0 -0.54629,0.70961 -0.95305,0.63138c-0.40676,-0.07822 -0.43938,-0.6276 -0.43938,-0.6276z" data-paper-data="{&quot;index&quot;:null}" fill="#f0e9bb" stroke="none" stroke-width="0" stroke-linecap="butt"/><path d="M245.77177,194.40309c0.89112,-0.12517 1.53266,0.01443 1.90908,0.28966c0.05363,0.03902 0.02379,0.07963 0.08863,0.14276c0.07844,0.07647 0.29223,0.19345 0.25173,0.1646c0,0 -0.07766,0.15432 -0.07063,0.22723c0.00899,0.09267 0.12575,0.20053 0.03744,0.17793c0,0 0.05858,0.13615 0.04654,0.18544c-0.13139,0.53843 -0.57014,1.23333 -1.14857,1.59037c0.31011,0.47154 -1.65014,-2.36234 -1.11419,-2.77797z" data-paper-data="{&quot;index&quot;:null}" fill="#ed3e67" stroke="none" stroke-width="0.17188" stroke-linecap="butt"/><path d="M237.7937,198.5233l-0.14493,2.30593l0.22328,1.85968l0.26041,1.31603c0.03082,0.15471 -1.60511,-1.06113 -1.94356,-1.49178c-0.4189,-0.5328 -0.68772,-1.11557 -0.95396,-1.69924c-0.19422,-0.42532 -0.21042,-0.59959 -0.27206,-0.9086l-0.19116,-0.95938c-0.03635,-0.18228 -0.12528,-1.10934 0.05363,-1.2685c0.05078,-0.04514 0.69126,0.41888 0.76466,0.4171l0.53576,-0.01452c0.15896,-0.00417 0.63357,-0.34263 0.77117,-0.45406c0.10057,-0.08131 0.65836,-0.70894 0.71763,-1.32186l0.05858,-0.6063c0.0088,-0.0908 -0.21971,-1.04345 -0.18334,-1.06054c0.07489,-0.03547 -0.76448,-1.04858 -0.68651,-1.08969c0.43378,-0.22941 0.95986,-0.52302 1.55047,-0.65253c0.92847,-0.20362 1.94475,-0.17387 2.46558,-0.16696c0.08881,0.00118 1.2202,0.03863 1.89673,0.26683c1.07131,0.36128 1.67375,1.04868 1.71524,1.08641c0.65165,0.59227 1.13633,1.28195 1.47637,2.05597l0.18465,0.6547c0.09455,0.33511 0.4179,2.17928 0.23749,2.83141l-0.61548,2.2271c-0.10769,0.39004 -1.14097,2.21722 -1.35149,2.11102c-0.29499,-0.14849 -0.30092,-1.30012 -0.4011,-1.15904c-0.22209,0.31247 1.5227,-1.22673 1.60569,-1.65784c0.14179,-0.73708 0.42354,-1.43893 0.3607,-1.95798c-0.01195,-0.09801 -0.02142,-0.76852 -0.03251,-0.93073c-0.0086,-0.12824 -0.08674,-0.23265 -0.21556,-0.19946c-0.08574,0.02202 -0.28927,-0.0827 -0.4179,0.122l-0.38104,0.60709c-0.06184,0.09829 -1.20527,1.88398 -1.26148,1.74795c-0.01037,-0.02529 0.21646,-0.5966 0.2287,-0.63454c0.07438,-0.2294 0.0822,-0.4082 0.00899,-0.32602c-0.19255,0.21614 -0.51551,0.78422 -0.51551,0.78422c-0.04624,0.07004 -0.55888,0.02657 -0.90496,-0.09376c-0.32198,-0.11194 -0.72711,-0.50058 -0.82927,-0.59653l-1.10984,-1.04336c-1.04246,-0.97952 -0.97559,-0.56066 -1.03655,-0.67376c0.04682,-0.07509 -0.74392,-0.10206 -0.93143,0.07183c-0.0747,0.06926 -0.30252,0.20174 -0.41988,0.26971c-0.15618,0.09028 -0.26366,0.14373 -0.31623,0.23197z" data-paper-data="{&quot;index&quot;:null}" fill="#54c81c" stroke="none" stroke-width="0.17188" stroke-linecap="butt"/><path d="M239.65568,193.19359c-1.2877,0.03749 -3.52581,0.80848 -3.52581,0.80848c0,0 -0.14278,-0.86719 -1.1397,-1.03786c-0.99692,-0.17068 -1.40436,-0.16573 -2.29752,0.51515c-0.68197,0.51989 -1.16933,1.29419 -1.36201,1.76821c-0.81569,2.0067 -1.31004,5.00762 -1.31004,5.00762c0,0 -1.79654,-3.93364 1.53313,-8.75743c2.05594,-2.91886 6.07829,-2.64036 6.79897,-2.3726c0.73935,0.2747 3.2277,1.22133 4.08471,2.11194c1.04038,1.08117 1.73599,2.53078 1.73599,2.53078c0,0 -3.13151,-0.61465 -4.51772,-0.57429z" data-paper-data="{&quot;index&quot;:null}" fill="#c27e34" stroke="none" stroke-width="0" stroke-linecap="butt"/><g data-paper-data="{&quot;index&quot;:null}" stroke-width="0" stroke-linecap="butt"><path d="M230.86678,200.33675c0.03163,0.47868 -0.33078,0.89238 -0.80947,0.92401c-0.47868,0.03163 -0.89238,-0.33077 -0.92401,-0.80946c-0.03163,-0.47869 0.33078,-0.89239 0.80947,-0.92402c0.47868,-0.03164 0.89238,0.33077 0.92401,0.80946z" fill="#db7b04" stroke="none"/><path d="M229.98214,200.12289c0.46298,-0.03059 0.92747,-0.0138 0.94403,0.23673c0.01087,0.16448 -0.4579,0.08284 -0.92089,0.11344c-0.46299,0.0306 -0.94942,0.11774 -0.96029,-0.04674c-0.01845,-0.2792 0.47416,-0.27283 0.93715,-0.30343z" fill="#feeb00" stroke="#000000"/><path d="M230.00353,201.19348c-0.01195,-0.18076 0.0059,-0.58836 0.09628,-0.59434c0.09038,-0.00598 0.27289,-0.10132 0.28483,0.07944c0.01195,0.18075 -0.09383,0.56535 -0.18421,0.57133c-0.09038,0.00597 -0.18496,0.12432 -0.1969,-0.05644z" fill="#000000" stroke="none"/><path d="M229.43976,200.64976c0.04752,-0.00314 0.09282,0.09705 0.1012,0.22376c0.00838,0.12672 -0.02524,0.20331 -0.07277,0.20645c-0.04753,0.00314 -0.15966,-0.23666 -0.16804,-0.36337c-0.00838,-0.12671 0.09208,-0.0637 0.1396,-0.06684z" fill="#000000" stroke="none"/></g><path d="M233.88495,197.00363c-0.58457,-0.19987 -1.12625,-0.73948 -1.36503,-1.20361c-0.02193,-0.04248 -0.00256,-0.18001 -0.00256,-0.18001c-0.07144,0.0401 0.00514,-0.08437 -0.0086,-0.17111c-0.01076,-0.06817 -0.11401,-0.19246 -0.11401,-0.19246c-0.02846,0.03535 0.12992,-0.11866 0.18038,-0.20579c0.0416,-0.07214 0.00623,-0.10275 0.04376,-0.15048c0.26289,-0.33434 0.7872,-0.60293 1.58939,-0.68425c1.04959,-0.10621 1.97119,0.66369 1.97119,1.04049c0,0 -1.29624,2.08832 -2.29455,1.74718z" data-paper-data="{&quot;index&quot;:null}" fill="#ed3e67" stroke="none" stroke-width="0.17188" stroke-linecap="butt"/><path d="M236.94745,195.92894c0.14365,-0.10037 -0.28086,1.33162 -0.65034,1.53148c-0.63545,0.34361 -0.56431,0.59662 -1.10718,0.43123c-0.12193,-0.03694 -0.36337,-0.25193 -0.71043,-0.39528c-0.40208,-0.16587 -0.75812,-0.39645 -0.62485,-0.46541l0.8018,-0.46987l1.18848,-1.32126c0.01848,-0.02056 -0.22418,-0.22485 -0.60166,-0.49159c-0.26468,-0.18711 -0.66073,-0.40911 -0.96936,-0.52824c-0.18187,-0.07013 0.18217,-0.28087 0.70025,-0.42897c0.25113,-0.07183 0.51786,-0.16675 0.81554,-0.14996c0.51551,0.02923 0.89251,0.62002 1.03041,1.21892c0.12921,0.56085 0.03171,1.13553 0.12734,1.06894z" data-paper-data="{&quot;index&quot;:null}" fill="#54c81c" stroke="none" stroke-width="0.17188" stroke-linecap="butt"/><path d="M237.69155,195.89376c0.02578,1.17337 -1.13384,2.2116 -1.50887,2.18501l-0.58959,0.10817l-0.83431,-0.4982c-0.21359,-0.12764 1.1622,0.07421 1.49702,-0.29341c0.21853,-0.23978 0.37818,-0.42501 0.4089,-0.51995c0.29144,-0.90534 0.25982,-1.64569 0.08034,-2.1281c-0.28205,-0.75804 -0.84765,-1.00108 -0.47965,-1.17615c0.87749,-0.4177 1.39792,1.04027 1.42618,2.32263z" data-paper-data="{&quot;index&quot;:null}" fill="#ead32e" stroke="none" stroke-width="0.17188" stroke-linecap="butt"/><path d="M245.40958,195.26299c0,0 -0.27119,-0.33806 -0.46275,-0.59878c-0.39961,-0.54387 -1.00188,-0.87097 -0.88638,-1.02341c0.09622,-0.06166 0.59039,0.06807 0.72534,0.19491l0.27415,0.25745c0.48201,0.45287 0.67268,1.11102 0.66487,1.38054c-0.00336,0.11658 0.11994,0.32939 0.07796,0.4591c0,0 -0.31634,-0.40407 -0.3932,-0.66984z" data-paper-data="{&quot;index&quot;:null}" fill="#ead32e" stroke="none" stroke-width="0.17188" stroke-linecap="butt"/><path d="M245.04971,193.97765c0,0 1.04078,-0.03211 1.22741,0.25577c0.12408,0.19117 -0.04554,0.65254 0.0988,0.79767c0.1792,0.18021 0.44733,0.62525 0.5898,0.95265c0.04278,0.29933 0.15027,0.58593 0.02203,0.91986c0.05215,0.29461 -0.68088,0.83629 -0.70755,0.73967l-0.36258,-1.31326c-0.09198,-0.33322 -0.30072,-1.00868 -0.35862,-1.1457z" data-paper-data="{&quot;index&quot;:null}" fill="#54c81c" stroke="none" stroke-width="0.17188" stroke-linecap="butt"/><path d="M240.43235,203.02154h-0.83908" data-paper-data="{&quot;index&quot;:null}" fill="none" stroke="#dfcfa3" stroke-width="0.36953" stroke-linecap="round"/><path d="M245.83688,199.70652l0.05378,-0.20263l0.88618,0.02564z" data-paper-data="{&quot;index&quot;:null}" fill="#000000" stroke="none" stroke-width="0" stroke-linecap="butt"/><g data-paper-data="{&quot;index&quot;:null}" stroke="none" stroke-width="0" stroke-linecap="butt"><path d="M245.14911,196.76557c0,0.08886 -0.11734,0.36284 -0.21592,0.54821c-0.09168,0.1724 -0.16509,0.26003 -0.16509,0.26003l0.88536,0.44134l-0.4179,0.25058c0,0 -0.21687,-0.13138 -0.39252,-0.34173c-0.16617,-0.199 -0.29227,-0.47499 -0.27095,-0.56116c0.05486,-0.2218 0.3512,-0.66493 0.3512,-0.83815c0,-0.15549 -0.13978,-0.22801 -0.19435,-0.36774c-0.08258,-0.21145 -0.08656,-0.4603 -0.039,-0.4603c0.05247,0 0.283,0.16194 0.38651,0.36588c0.07901,0.15567 0.07267,0.57184 0.07267,0.70304z" fill="#671829"/><path d="M244.66733,196.13326c0,0.06899 0.08961,0.82347 -0.42018,1.07764c-0.35275,0.17587 -0.7466,-0.32488 -0.7466,-0.32488l0.15302,-0.31974c0,0 0.29154,0.65863 0.52777,0.56972c0.48824,-0.18377 -0.04094,-1.15303 -0.04094,-1.1834c0,-0.13304 0.22649,-0.24088 0.33874,-0.24088c0.11225,0 0.18819,0.28851 0.18819,0.42155z" fill="#671829"/><path d="M243.71481,195.3941c0,0 0.14688,-0.36924 0.2411,-0.36477c0.18547,0.00881 0.57231,0.41723 0.57231,0.56048c0,0.04305 -0.16886,0.22802 -0.39482,0.38171c-0.15528,0.10561 -0.36901,0.14807 -0.46037,0.10993c-0.0851,-0.03553 -0.1717,-0.29307 -0.08428,-0.43587c0.07828,-0.12786 0.33451,-0.1276 0.29188,-0.1276c-0.18304,0 -0.16582,-0.12389 -0.16582,-0.12389z" fill="#804046"/><path d="M245.17849,195.66852l0.27683,0.05232l-0.15956,0.42081c0,0 -0.30509,-0.13981 -0.46037,-0.24542c-0.22596,-0.15368 -0.39482,-0.21821 -0.39482,-0.26126c0,-0.14325 0.64278,-0.53662 0.82825,-0.54543c0.09422,-0.00447 0.26265,0.33852 0.2411,0.39488c-0.04088,0.10687 -0.33143,0.1841 -0.33143,0.1841z" data-paper-data="{&quot;index&quot;:null}" fill="#804046"/><path d="M244.69745,195.5875c0,0.09354 -0.07077,0.16937 -0.15808,0.16937c-0.08731,0 -0.15808,-0.07583 -0.15808,-0.16937c0,-0.09354 0.07077,-0.16937 0.15808,-0.16937c0.08731,0 0.15808,0.07583 0.15808,0.16937z" fill="#671829"/></g><path d="M241.59951,203.90445c0.07717,0.10829 0.51888,2.17055 0.10283,3.06253c-0.14216,0.30474 -2.60503,0.53548 -3.01866,0.20017c-0.34395,-0.37303 0.28247,-0.98759 0.27842,-1.79003c-0.01197,-0.70162 0.22231,-1.39205 0.55243,-1.65838c0.10182,-0.0821 0.75359,-0.1272 0.89125,-0.1272c0.17388,0 0.89298,-0.10821 1.19372,0.31291z" data-paper-data="{&quot;index&quot;:null}" fill="#c27e34" stroke="none" stroke-width="0.17188" stroke-linecap="butt"/><path d="M236.11199,210.79642c0,0 1.13038,-1.31241 1.39785,-2.26244c0.34679,-1.23179 0.74843,-4.20384 0.74843,-4.20384l1.11537,0.01933c0,0 -0.411,3.39656 -0.6473,4.65749c-0.21661,1.15587 -1.35723,2.86519 -1.35723,2.86519z" data-paper-data="{&quot;index&quot;:null}" fill="#fba15d" stroke="none" stroke-width="0" stroke-linecap="butt"/><path d="M242.67956,204.05837c0,0.07887 -0.15013,0.01377 -0.40873,0.21233c-0.14014,0.10761 0.50942,0.10036 0.3122,0.24058c-0.3286,0.23362 -1.77904,-0.13437 -2.21704,-0.13437c-0.52894,0 -1.80761,0.20015 -2.22423,-0.07931c-0.1849,-0.12403 0.33133,-0.17621 0.19684,-0.28743c-0.24194,-0.20009 -0.18415,-0.25671 -0.18415,-0.3482c0,-0.51334 0.97452,-0.04775 2.16052,-0.04775c1.18599,0 2.3646,-0.0692 2.3646,0.44414z" data-paper-data="{&quot;index&quot;:null}" fill="#ffe340" stroke="none" stroke-width="0" stroke-linecap="butt"/><path d="M240.76731,201.7742c0,0.32172 -0.83042,0.58253 -1.43843,0.58253c-0.6502,0 -1.15691,-0.24128 -1.18527,-0.78252c-0.01988,-0.37923 0.33363,-0.31664 0.72717,-0.20391c0.16813,0.04816 0.34356,0.10547 0.5003,0.14139c0.59098,0.13544 1.39624,-0.0592 1.39624,0.26252z" data-paper-data="{&quot;index&quot;:null}" fill="url(#color-1)" stroke="none" stroke-width="0" stroke-linecap="butt"/><path d="M241.35823,203.64723c0,0.07045 0.2485,0.31796 -0.02415,0.30777c-0.27264,-0.01019 -2.16581,-0.32046 -2.16581,-0.3909c0,-0.07045 0.60749,0.0066 1.10443,0.05762c0.79887,0.08202 1.08552,-0.04494 1.08552,0.02551z" data-paper-data="{&quot;index&quot;:null}" fill="#000000" stroke="none" stroke-width="0" stroke-linecap="butt"/><g data-paper-data="{&quot;index&quot;:null}" stroke="none" stroke-width="0.17188" stroke-linecap="butt"><path d="M239.90567,203.81975c0.01382,0.8194 -0.42937,1.53624 -0.57216,1.41804c-0.331,-0.27379 -1.29763,-3.41612 -1.35077,-4.80379c-0.0334,-0.87701 -0.63376,-3.05604 -0.33677,-3.8587c0.1954,-0.52734 1.03501,-0.61542 1.60817,-0.61025c0.44365,0.00312 0.55966,-0.14634 0.59518,0.2823c0.10722,1.29642 0.05782,2.44837 0.0701,4.10054c0.01229,1.65218 -0.03191,2.39296 -0.01374,3.47185z" fill="#c27e34"/><path d="M238.53376,194.83781c-0.31189,0.40806 -0.67536,0.29939 -0.83338,0.17856c-0.75715,-0.61933 -1.25883,-1.74762 -1.22564,-2.62526c-0.04108,0.17407 0.25944,-0.82404 1.20635,-0.75729c0.41028,0.01119 1.15349,-0.16393 1.81309,-0.18619l0.6319,0.14334c0.29038,0.06576 0.43751,0.47145 0.28712,0.75345c-0.02223,0.04172 0.22173,-0.06644 0.36106,0.06386c0.25078,0.23455 0.45879,0.77254 0.26436,1.01731c-0.17028,0.21479 -0.16828,0.62991 -0.51558,0.82734c-0.46831,0.26622 -0.28326,-0.40998 -0.71177,-0.32709c-0.25471,0.04915 -1.27036,0.9028 -1.2775,0.91197z" fill="#ffcfea"/></g><path d="M239.88298,196.56048c-0.43194,0.18369 -0.59952,0.18919 -1.17032,0.17551c-0.57081,-0.01367 -1.19819,0.06435 -1.42132,-0.23981c-0.25117,-0.57624 -0.088,-0.58805 -0.06108,-1.08154c0.02691,-0.49349 0.20893,-1.24393 0.20893,-1.24393c0.03605,-0.01123 0.83782,-0.27433 1.33,-0.32917c0.49217,-0.05484 1.01485,-0.12013 1.25285,0.07156c0.16475,0.13238 0.24701,-0.00264 0.25868,0.46795c0.01229,0.49999 0.17782,1.1666 0.05803,1.66347c-0.05182,0.21512 -0.02382,0.3323 -0.45576,0.51599z" data-paper-data="{&quot;index&quot;:null}" fill="#fca03b" stroke="none" stroke-width="0.17188" stroke-linecap="butt"/><path d="M243.99268,201.33942c0,-0.32172 0.40934,-0.00709 0.73911,-0.14253c0.08746,-0.03592 0.26535,-0.05323 0.35917,-0.10139c0.2196,-0.11272 0.49686,-0.49531 0.48577,-0.11608c-0.01583,0.54124 -0.41857,0.94252 -0.78139,0.94252c-0.33927,0 -0.80266,-0.26081 -0.80266,-0.58253z" data-paper-data="{&quot;index&quot;:null}" fill="url(#color-2)" stroke="none" stroke-width="0" stroke-linecap="butt"/></g></g></svg>