<svg version="1.1" xmlns="http://www.w3.org/2000/svg" xmlns:xlink="http://www.w3.org/1999/xlink" width="23.08867" height="40.7633" viewBox="0,0,23.08867,40.7633"><g transform="translate(-229.68795,-158.84841)"><g data-paper-data="{&quot;isPaintingLayer&quot;:true}" fill-rule="nonzero" stroke-linejoin="miter" stroke-miterlimit="10" stroke-dasharray="" stroke-dashoffset="0" style="mix-blend-mode: normal"><g data-paper-data="{&quot;index&quot;:null}"><g data-paper-data="{&quot;index&quot;:null}" stroke="none" stroke-width="0" stroke-linecap="butt"><path d="M244.71403,198.92272c-1.62053,-0.64759 -2.56246,-4.41624 -2.56246,-4.41624c-0.16347,-0.54532 -0.13231,-1.04948 -0.02894,-1.54907c0.09004,-0.4351 0.23484,-0.86671 0.35353,-1.31902c0.25498,-0.97163 1.02493,0.38634 1.02493,0.38634c0,0 1.22777,1.89545 1.4299,3.06965c0.29547,0.98122 0.96686,4.30141 -0.21696,3.82833z" data-paper-data="{&quot;index&quot;:null}" fill="#54c81c"/><path d="M242.94821,189.02036c0,0 0.6755,3.34536 1.01779,4.56319c0.23155,0.82383 0.65495,2.1263 0.65495,2.1263c0.04274,0.35759 -0.30566,1.5382 -0.84154,0.93292c-0.42126,-0.47584 -1.05427,-2.73891 -1.05427,-2.73891c0,0 -0.90651,-4.07386 -1.1531,-4.67309c-0.71935,-1.91387 -1.35012,-5.48073 -1.35012,-5.48073l1.45298,-0.20477l1.27332,5.47507z" data-paper-data="{&quot;index&quot;:null}" fill="#ffffff"/></g><path d="M243.54761,196.77225l0.25784,-0.43429" fill="none" stroke="#000000" stroke-width="0.5" stroke-linecap="round"/><path d="M243.35074,195.42189l-0.18863,0.41665" fill="none" stroke="#000000" stroke-width="0.5" stroke-linecap="round"/></g><g data-paper-data="{&quot;index&quot;:null}"><g data-paper-data="{&quot;index&quot;:null}" stroke="none" stroke-width="0" stroke-linecap="butt"><path d="M238.69816,199.51028c-1.04714,0.72716 -1.13949,-2.65898 -1.07223,-3.68151c-0.06709,-1.18957 0.70305,-3.31256 0.70305,-3.31256c0,0 0.4449,-1.49633 0.91183,-0.60691c0.21735,0.41403 0.45549,0.80205 0.64106,1.20575c0.21306,0.46354 0.3568,0.94779 0.32013,1.5159c0,0 -0.07043,3.88394 -1.50383,4.87932z" data-paper-data="{&quot;index&quot;:null}" fill="#54c81c"/><path d="M238.19217,189.46446l0.00961,-5.62118l1.46182,-0.12718c0,0 0.18739,3.61737 -0.08319,5.64397c-0.10555,0.63934 -0.07282,4.81269 -0.07282,4.81269c0,0 -0.10794,2.34746 -0.41142,2.90583c-0.38604,0.71027 -0.991,-0.36175 -1.02975,-0.7198c0,0 0.11969,-1.36434 0.16007,-2.21913c0.05968,-1.26359 -0.03433,-4.67519 -0.03433,-4.67519z" data-paper-data="{&quot;index&quot;:null}" fill="#ffffff"/></g><path d="M239.75541,195.97109l-0.4203,-0.36684" fill="none" stroke="#000000" stroke-width="0.5" stroke-linecap="round"/><path d="M239.44693,196.96431l-0.34889,-0.36521" fill="none" stroke="#000000" stroke-width="0.5" stroke-linecap="round"/></g><g data-paper-data="{&quot;index&quot;:null}"><g><path d="M241.95112,168.44267c4.18325,1.78542 2.9626,4.75354 3.0533,5.00314c0.02445,0.26733 -0.10631,0.52128 -0.19107,0.76784c-0.35552,0.88074 -0.79742,1.72282 -1.2308,2.56753c-0.15866,0.35633 -0.50728,0.5805 -0.86679,0.69786c-0.38786,0.11979 -0.7986,0.00888 -1.19116,-0.03082c-0.60416,-0.08318 -1.19412,-0.24928 -1.74632,-0.50757c-0.69558,-0.28157 -1.53414,-0.733 -1.97414,-1.38624c-0.3358,-0.36085 -0.27562,-0.32409 -0.63251,-0.67253c-0.65668,-0.83257 -0.90071,-1.9324 -0.81263,-2.97662c0.04801,-0.62614 0.20318,-1.25527 0.50865,-1.80721c0.14259,-0.22659 1.61576,-3.13537 5.08345,-1.65535z" data-paper-data="{&quot;index&quot;:null}" fill="#f0e9bb" stroke="none" stroke-width="0.17188" stroke-linecap="butt"/><path d="M238.90394,166.16011c0.34799,0.60993 -2.64995,2.54399 -2.16647,2.21582c-0.41183,-0.57072 -0.55618,-1.40927 -0.46853,-1.97637c0.00801,-0.05193 0.11799,-0.15895 0.11799,-0.15895c-0.09345,-0.01336 0.06099,-0.07029 0.10632,-0.15536c0.0356,-0.06695 0.02247,-0.24534 0.02247,-0.24534c-0.05016,0.01155 0.20068,-0.01564 0.30601,-0.05771c0.08702,-0.0347 0.07457,-0.08539 0.14134,-0.10145c0.46911,-0.11412 1.13811,0.00654 1.94093,0.47935z" data-paper-data="{&quot;index&quot;:null}" fill="#ed3e67" stroke="none" stroke-width="0.17188" stroke-linecap="butt"/><path d="M244.90293,173.26239c-0.01532,-0.10521 -0.09697,-0.19893 -0.21058,-0.34718c-0.08534,-0.11152 -0.25079,-0.32851 -0.29478,-0.42435c-0.11047,-0.24062 -0.9799,-0.62417 -1.95002,-0.59959c-0.97012,0.02457 -1.98867,1.09322 -2.0872,0.81016c-0.03746,-0.10764 -0.37453,-0.84061 -0.39426,-0.5917c-0.00331,0.04114 -0.43947,0.13994 -0.45942,0.16002c-0.05373,0.05383 -0.37989,-1.30163 -0.64062,-1.6779c-0.26073,-0.37626 -1.13601,-0.94339 -1.20931,-0.99844c-0.11008,-0.0828 -0.2262,-0.01387 -0.28523,0.10539c-0.07486,0.1508 -0.95237,2.02821 -0.94326,2.99094c0.00911,0.96272 0.96768,2.60894 0.87906,2.22203c-0.03992,-0.17464 -1.08612,1.11557 -1.42713,1.14073c-0.24346,0.01817 -0.96038,-2.27072 0.08371,-4.82697c0.49612,-1.21465 1.4637,-2.62424 1.68691,-2.90733l0.43603,-0.55311c0.63197,-0.60568 1.36885,-1.07336 2.22686,-1.38169c0.05464,-0.01966 0.90327,-0.43849 2.0712,-0.3596c0.73756,0.04977 1.83463,0.46223 1.92007,0.49628c0.50095,0.19976 1.48487,0.57396 2.29232,1.13662c0.51363,0.35789 0.90051,0.8472 1.22457,1.23852c0.05829,0.07021 -1.14603,0.70674 -1.08845,0.77034c0.02801,0.03076 -0.56804,0.85149 -0.59561,0.94182l-0.18418,0.60318c-0.18615,0.60977 0.09872,1.43115 0.16271,1.54878c0.08748,0.16112 0.40736,0.67294 0.55776,0.73989l0.50673,0.22616c0.06951,0.03079 0.86602,-0.15931 0.89671,-0.096c0.10808,0.22313 -0.3443,1.07469 -0.45129,1.23466l-0.56299,0.84196c-0.1814,0.27116 -0.26595,0.43144 -0.62025,0.76133c-0.48595,0.45282 -0.974,0.90376 -1.5858,1.24745c-0.49439,0.27783 -2.54098,0.79267 -2.4502,0.6569l0.77054,-1.15567l0.95044,-1.69044l0.77503,-2.26319z" data-paper-data="{&quot;index&quot;:null}" fill="#54c81c" stroke="none" stroke-width="0.17188" stroke-linecap="butt"/><path d="M249.244,173.35748c-1.0901,-0.06922 -1.50258,-2.58043 -1.50258,-2.58043c0.1493,-0.36043 1.33592,-0.73171 2.29782,-0.21426c0.73513,0.39564 1.13023,0.86031 1.24924,1.28429c0.01699,0.06051 -0.02897,0.07579 -0.01776,0.16127c0.01375,0.10335 0.10422,0.31343 0.09101,0.26832c0,0 -0.14799,0.07798 -0.1853,0.13892c-0.0475,0.07753 -0.02357,0.22694 -0.07601,0.16027c0,0 -0.03595,0.13922 -0.07378,0.17117c-0.41231,0.34936 -1.14427,0.65091 -1.78262,0.61047z" data-paper-data="{&quot;index&quot;:null}" fill="#ed3e67" stroke="none" stroke-width="0.17188" stroke-linecap="butt"/><path d="M246.74038,171.11605c0.0651,0.10159 0.19953,-0.48677 0.54536,-0.97205c0.36921,-0.51824 0.96391,-0.93398 1.46861,-0.75769c0.2914,0.10188 0.50892,0.29837 0.72069,0.46658c0.43689,0.34693 0.70163,0.69276 0.49985,0.68778c-0.34243,-0.00832 -0.80925,0.04711 -1.13655,0.12122c-0.46678,0.10559 -0.77984,0.20487 -0.77031,0.23186l0.61335,1.73476l0.58078,0.76715c0.10016,0.11877 -0.33178,0.19827 -0.78213,0.19761c-0.38879,-0.00039 -0.70492,0.1096 -0.83618,0.09662c-0.58481,-0.0569 -0.41652,-0.27073 -0.88821,-0.8512c-0.27424,-0.33756 -0.11293,-1.87557 -0.01529,-1.72265z" data-paper-data="{&quot;index&quot;:null}" fill="#54c81c" stroke="none" stroke-width="0.17188" stroke-linecap="butt"/><path d="M246.04254,170.78758c0.53511,-1.21544 1.61065,-2.40387 2.2845,-1.65664c0.28266,0.31327 -0.35467,0.32165 -0.92482,0.935c-0.36285,0.39034 -0.68643,1.08601 -0.76637,2.06749c-0.00824,0.10299 0.07109,0.34342 0.18512,0.65938c0.17462,0.48431 1.57062,0.83635 1.31572,0.87382l-0.99547,0.146l-0.52113,-0.33708c-0.36926,-0.12317 -1.06714,-1.57574 -0.57757,-2.68794z" data-paper-data="{&quot;index&quot;:null}" fill="#ead32e" stroke="none" stroke-width="0.17188" stroke-linecap="butt"/><path d="M238.90972,167.12615c-0.17882,0.22376 -0.64153,0.48494 -0.64153,0.48494c0.01124,-0.14072 0.21349,-0.29542 0.25648,-0.40827c0.09933,-0.2609 0.54248,-0.81492 1.18301,-1.05714l0.36425,-0.13765c0.17934,-0.06786 0.70344,0.00386 0.77107,0.10096c0.05009,0.19157 -0.65561,0.26583 -1.25336,0.62773c-0.28654,0.17349 -0.6799,0.38943 -0.6799,0.38943z" data-paper-data="{&quot;index&quot;:null}" fill="#ead32e" stroke="none" stroke-width="0.17188" stroke-linecap="butt"/><path d="M238.79794,166.9917c-0.10966,0.10813 -0.57697,0.67153 -0.79698,0.95384l-0.86718,1.11255c-0.06378,0.08186 -0.55035,-0.72674 -0.38374,-0.98788c0.00964,-0.37024 0.22601,-0.6018 0.38554,-0.87117c0.266,-0.25673 0.69883,-0.57622 0.94164,-0.67759c0.19557,-0.08163 0.21612,-0.59017 0.41055,-0.72385c0.29259,-0.20144 1.27544,0.24165 1.27544,0.24165z" data-paper-data="{&quot;index&quot;:null}" fill="#54c81c" stroke="none" stroke-width="0.17188" stroke-linecap="butt"/><path d="M244.37071,173.20475c0.14666,0.73154 -0.56701,1.49575 -1.16722,1.64819c-0.6002,0.15245 -1.20564,-0.31699 -1.3523,-1.04852c-0.14666,-0.73154 0.22102,-1.44816 0.82122,-1.6006c0.6002,-0.15245 1.55164,0.26941 1.6983,1.00095z" fill="#000000" stroke="none" stroke-width="0" stroke-linecap="butt"/><path d="M237.15326,170.26686c0.62098,-0.41358 1.50115,-0.03561 1.81775,0.49659c0.3166,0.53221 0.06986,1.29892 -0.55112,1.71248c-0.62098,0.41358 -1.38105,0.31739 -1.69765,-0.21482c-0.3166,-0.53221 -0.18995,-1.58069 0.43103,-1.99427z" data-paper-data="{&quot;index&quot;:null}" fill="#000000" stroke="none" stroke-width="0" stroke-linecap="butt"/><path d="M240.94505,176.47672l0.58904,-0.17553" fill="none" stroke="#000000" stroke-width="0.25" stroke-linecap="round"/><path d="M239.79835,176.29708l0.57984,0.16803" fill="none" stroke="#000000" stroke-width="0.25" stroke-linecap="round"/><path d="M239.2185,176.12907l-0.55434,-0.22961" fill="none" stroke="#000000" stroke-width="0.25" stroke-linecap="round"/><path d="M238.22247,175.57218l-0.44171,-0.32728" fill="none" stroke="#000000" stroke-width="0.25" stroke-linecap="round"/><path d="M237.53876,174.78387l-0.20591,-0.37394" fill="none" stroke="#000000" stroke-width="0.25" stroke-linecap="round"/><path d="M242.32396,175.94062l-0.43846,0.01003l-0.11892,-0.52156" fill="none" stroke="#000000" stroke-width="0.25" stroke-linecap="round"/><path d="M237.65353,173.6569l-0.37667,0.37986l-0.36688,-0.24029" data-paper-data="{&quot;index&quot;:null}" fill="none" stroke="#000000" stroke-width="0.25" stroke-linecap="round"/><path d="M243.78912,173.24994l-1.40891,0.60052" fill="none" stroke="#ffffff" stroke-width="0.25" stroke-linecap="round"/><path d="M242.92529,172.78569l0.38712,1.53317" fill="none" stroke="#ffffff" stroke-width="0.25" stroke-linecap="round"/><path d="M243.87089,173.59801c-0.20766,-0.01262 -0.36578,-0.19122 -0.35315,-0.39888c0.01262,-0.20766 0.19122,-0.36578 0.39888,-0.35315c0.20766,0.01262 0.36578,0.19122 0.35315,0.39888c-0.01262,0.20766 -0.19122,0.36578 -0.39888,0.35315z" fill="#ffffff" stroke="none" stroke-width="0" stroke-linecap="butt"/><path d="M242.25688,174.18605c-0.20766,-0.01262 -0.36578,-0.19122 -0.35315,-0.39888c0.01262,-0.20766 0.19122,-0.36578 0.39888,-0.35315c0.20765,0.01262 0.36578,0.19122 0.35315,0.39888c-0.01262,0.20765 -0.19122,0.36578 -0.39888,0.35315z" fill="#ffffff" stroke="none" stroke-width="0" stroke-linecap="butt"/><path d="M242.87864,172.98872c-0.20766,-0.01262 -0.36578,-0.19122 -0.35315,-0.39888c0.01262,-0.20766 0.19122,-0.36578 0.39888,-0.35315c0.20766,0.01262 0.36579,0.19122 0.35316,0.39888c-0.01262,0.20765 -0.19123,0.36578 -0.39889,0.35315z" fill="#ffffff" stroke="none" stroke-width="0" stroke-linecap="butt"/><path d="M243.25328,174.72699c-0.20766,-0.01262 -0.36578,-0.19122 -0.35315,-0.39888c0.01262,-0.20766 0.19122,-0.36578 0.39888,-0.35315c0.20765,0.01262 0.36578,0.19122 0.35315,0.39888c-0.01262,0.20765 -0.19122,0.36578 -0.39888,0.35315z" fill="#ffffff" stroke="none" stroke-width="0" stroke-linecap="butt"/><path d="M237.12323,171.74625l1.40891,-0.60052" fill="none" stroke="#ffffff" stroke-width="0.25" stroke-linecap="round"/><path d="M237.66832,170.68148l0.38712,1.53317" fill="none" stroke="#ffffff" stroke-width="0.25" stroke-linecap="round"/><path d="M238.61391,171.49379c-0.20766,-0.01262 -0.36578,-0.19122 -0.35315,-0.39888c0.01262,-0.20766 0.19122,-0.36578 0.39888,-0.35315c0.20766,0.01262 0.36578,0.19122 0.35315,0.39888c-0.01262,0.20766 -0.19122,0.36578 -0.39888,0.35315z" fill="#ffffff" stroke="none" stroke-width="0" stroke-linecap="butt"/><path d="M236.99991,172.08184c-0.20766,-0.01262 -0.36578,-0.19122 -0.35315,-0.39888c0.01262,-0.20766 0.19122,-0.36578 0.39888,-0.35315c0.20765,0.01262 0.36578,0.19122 0.35315,0.39888c-0.01262,0.20765 -0.19122,0.36578 -0.39888,0.35315z" fill="#ffffff" stroke="none" stroke-width="0" stroke-linecap="butt"/><path d="M237.62166,170.8845c-0.20766,-0.01262 -0.36578,-0.19122 -0.35315,-0.39888c0.01262,-0.20766 0.19122,-0.36578 0.39888,-0.35315c0.20766,0.01262 0.36579,0.19122 0.35316,0.39888c-0.01262,0.20765 -0.19123,0.36578 -0.39889,0.35315z" fill="#ffffff" stroke="none" stroke-width="0" stroke-linecap="butt"/><path d="M237.9963,172.62277c-0.20766,-0.01262 -0.36578,-0.19122 -0.35315,-0.39888c0.01262,-0.20766 0.19122,-0.36578 0.39888,-0.35315c0.20765,0.01262 0.36578,0.19122 0.35315,0.39888c-0.01262,0.20765 -0.19122,0.36578 -0.39888,0.35315z" fill="#ffffff" stroke="none" stroke-width="0" stroke-linecap="butt"/></g><g><path d="M242.91079,167.66377c0,0 0.42935,-1.88199 0.3325,-3.14435c-0.09685,-1.26236 -1.07666,-2.00016 -1.07666,-2.00016l0.45103,-0.6018c0,0 1.25974,1.23081 1.36552,2.55847c0.10577,1.32766 -0.42904,3.38566 -0.42904,3.38566z" fill="#000000" stroke="none" stroke-width="0" stroke-linecap="butt"/><path d="M239.66658,162.43854l-2.54614,-3.43395l4.5411,0.16817l1.45032,3.37477z" fill="#ea035a" stroke="none" stroke-width="0" stroke-linecap="butt"/><path d="M242.94391,162.53945l-5.68689,-3.56604" fill="none" stroke="#000000" stroke-width="0.25" stroke-linecap="round"/><path d="M241.72391,159.06614l-0.06804,2.58994l-2.01486,0.77199" fill="none" stroke="#000000" stroke-width="0.25" stroke-linecap="round"/></g></g><g data-paper-data="{&quot;index&quot;:null}"><g data-paper-data="{&quot;index&quot;:null}" stroke="none" stroke-width="0" stroke-linecap="butt"><path d="M237.50417,182.44031c0,0 -1.72756,1.04539 -3.22955,1.56882c-0.8279,0.28853 -1.76867,0.41411 -2.37417,0.61614c-1.02308,0.34133 -2.2125,1.08757 -2.2125,1.08757c0,0 0.71514,-1.24789 0.91234,-1.718c0.1972,-0.4701 0.97522,-1.55361 1.15451,-1.48617c0.17928,0.06743 5.74937,-0.06837 5.74937,-0.06837z" fill="#54c81c"/><path d="M236.33741,182.96838c-3.0244,1.17795 -5.11065,0.3264 -5.11065,0.3264c0,0 0.75874,-2.4611 4.08814,-3.46181c2.6022,-0.78214 3.79458,0.64038 4.28903,0.43313c1.43763,-0.60258 1.30771,-0.96282 1.30771,-0.96282c0,0 -0.37233,2.02855 -4.57422,3.6651z" fill="#ffffff"/></g><path d="M232.74182,183.82886l0.51231,-0.50598" fill="none" stroke="#ffffff" stroke-width="0.25" stroke-linecap="round"/><path d="M232.00999,183.32287l-0.36594,0.50598" fill="none" stroke="#ffffff" stroke-width="0.25" stroke-linecap="round"/></g><g data-paper-data="{&quot;index&quot;:null}"><g data-paper-data="{&quot;index&quot;:null}" stroke="none" stroke-width="0" stroke-linecap="butt"><path d="M233.03279,186.63147c0.40473,-1.33892 1.87062,-3.1649 1.87062,-3.1649l4.69426,2.90743c0,0 -2.77661,1.34736 -3.72128,2.09972c-0.94468,0.75237 -2.83188,2.08057 -2.83188,2.08057c0,0 -0.54711,-2.15169 -0.01172,-3.92281z" fill="#54c81c"/><path d="M234.90342,183.46656c0.57734,-0.56296 1.07898,-1.70361 4.09724,-2.39824c2.05853,-0.47375 2.59057,-1.59887 2.59057,-1.59887l0.90291,0.32073c0,0 0.69566,3.39595 -0.80858,5.12035c-1.40726,1.61321 -4.63473,2.7791 -7.69932,2.53511c-1.21948,-0.09709 0.33547,-3.41185 0.91719,-3.97908z" fill="#ffffff"/></g><path d="M236.55863,187.08486l-0.64328,0.73749" fill="none" stroke="#ffffff" stroke-width="0.25" stroke-linecap="round"/><path d="M234.24038,187.93145l0.56792,-0.73749" fill="none" stroke="#ffffff" stroke-width="0.25" stroke-linecap="round"/><path d="M234.07804,186.28016l-0.73026,0.87103" fill="none" stroke="#ffffff" stroke-width="0.25" stroke-linecap="round"/></g><g data-paper-data="{&quot;index&quot;:null}"><g data-paper-data="{&quot;index&quot;:null}" stroke="none" stroke-width="0" stroke-linecap="butt"><path d="M249.48918,183.40292c-0.78909,-0.13331 -3.8153,-0.12175 -3.8153,-0.12175c0,0 2.968,-0.46463 3.30002,-1.19088c0.33206,-0.72634 -1.63174,-2.46501 -0.99076,-2.30074c4.07285,0.99264 4.79348,4.04492 4.79348,4.04492c0,0 -2.49835,-0.29824 -3.28744,-0.43155z" fill="#54c81c"/><path d="M244.86811,179.19643c2.29042,-0.08272 5.07799,0.98275 5.59164,1.99922c0.51365,1.01647 -3.3436,2.22806 -4.83239,1.9914c-1.61261,-0.25634 -5.16115,-2.45574 -5.16115,-2.45574c0,0 2.51165,-1.46662 4.4019,-1.53488z" fill="#ffffff"/></g><path d="M248.98104,182.31785l0.77026,0.50714" fill="none" stroke="#ffffff" stroke-width="0.25" stroke-linecap="round"/><path d="M250.64658,181.91301l-0.49018,-0.36224" fill="none" stroke="#ffffff" stroke-width="0.25" stroke-linecap="round"/></g><g data-paper-data="{&quot;index&quot;:null}"><g data-paper-data="{&quot;index&quot;:null}" stroke="none" stroke-width="0" stroke-linecap="butt"><path d="M243.02571,186.14257c0,0 3.26152,0.62686 3.76839,-0.25343c0.51439,-0.89332 -0.94336,-4.05504 -0.94336,-4.05504c0,0 1.72712,0.57824 2.8696,2.98311c0.66153,1.38798 1.71239,5.12403 1.71239,5.12403c0,0 -2.69058,-1.45174 -4.49852,-2.29653c-1.80794,-0.84479 -2.90849,-1.50213 -2.90849,-1.50213z" fill="#54c81c"/><path d="M245.94632,181.79353c0.13694,0.10305 2.43322,2.32194 1.80025,3.91181c-0.59429,1.39292 -4.69123,0.45758 -4.69123,0.45758c0,0 -1.39446,-1.02812 -2.36968,-1.97488c-1.17165,-1.13744 -1.10943,-2.9908 -0.72313,-3.84754c0.38631,-0.85674 0.39196,0.25849 2.385,0.11843c1.50167,-0.10551 3.46755,1.23581 3.5988,1.33458z" fill="#ffffff"/></g><path d="M245.23196,186.29724l0.36079,0.42486" fill="none" stroke="#ffffff" stroke-width="0.25" stroke-linecap="round"/><path d="M247.23306,186.63466l-0.21647,-0.49567" fill="none" stroke="#ffffff" stroke-width="0.25" stroke-linecap="round"/><path d="M248.24781,185.27266l-0.95226,-0.75397" fill="none" stroke="#ffffff" stroke-width="0.25" stroke-linecap="round"/></g><g data-paper-data="{&quot;index&quot;:null}"><path d="M242.35039,181.28861c-0.36591,0.39828 -2.69739,-0.28309 -2.69739,-0.28309c-0.24658,-0.28197 -1.67704,-0.07531 -1.70209,-0.53654c-0.00974,-0.1801 0.14956,-1.14428 0.32786,-1.71279c0.1783,-0.56852 -0.05954,-0.98345 0.64221,-1.38034c0.70175,-0.39689 1.90661,-0.1482 2.06043,-0.1482c0.12177,0 0.72348,0.19835 1.07941,1.25421c0.35594,1.05586 0.59384,2.36369 0.28957,2.80676z" data-paper-data="{&quot;index&quot;:null}" fill="#319a2b" stroke="none" stroke-width="0.17188" stroke-linecap="butt"/><path d="M240.97723,181.03802c0.61263,0 1.39781,-0.03289 1.39781,-0.03289l0.22399,0.60534c0,0 -0.81357,-0.32402 -1.50188,-0.15139c-0.61138,0.03439 -1.24991,-0.3092 -1.15798,-0.46382c0.178,-0.29941 0.42542,0.04276 1.03805,0.04276z" data-paper-data="{&quot;index&quot;:null}" fill="#ead42f" stroke="none" stroke-width="0" stroke-linecap="butt"/><path d="M237.8911,180.3842c0,0 0.60465,0.11279 1.21306,0.18453c0.60841,0.07174 0.41111,0.46852 -0.19203,0.36277c-0.66335,-0.25204 -1.3616,-0.05504 -1.3616,-0.05504l0.34058,-0.49225z" data-paper-data="{&quot;index&quot;:null}" fill="#ead42f" stroke="none" stroke-width="0" stroke-linecap="butt"/><path d="M240.88002,180.77492l0.07853,0.38091" fill="none" stroke="#ffffff" stroke-width="0.25" stroke-linecap="round"/><path d="M241.90423,181.16003l-0.09109,-0.32829" fill="none" stroke="#ffffff" stroke-width="0.25" stroke-linecap="round"/><path d="M238.83154,180.32128l-0.03093,0.30573" fill="none" stroke="#ffffff" stroke-width="0.25" stroke-linecap="round"/><path d="M238.0145,180.65292l0.147,-0.38175" fill="none" stroke="#ffffff" stroke-width="0.25" stroke-linecap="round"/></g><g data-paper-data="{&quot;index&quot;:null}" stroke="none" stroke-linecap="butt"><path d="M239.97597,177.35818c0.17008,0.06905 0.3072,0.33949 0.39108,0.72079c0.08399,0.38126 0.11481,0.87325 0.07258,1.38519c-0.0422,0.51204 -0.14953,0.94795 -0.28883,1.23853c-0.1394,0.29062 -0.31073,0.43601 -0.48082,0.36696c-0.17021,-0.06911 -0.30722,-0.33958 -0.3912,-0.72085c-0.08388,-0.3813 -0.11481,-0.87325 -0.07258,-1.38519c0.04219,-0.51204 0.14963,-0.94798 0.28893,-1.23856c0.1393,-0.29058 0.31062,-0.43597 0.48084,-0.36686z" fill="#eb3d66" stroke-width="0.01872"/><path d="M239.86388,178.32515c0.20905,0.00794 0.3635,0.4098 0.34498,0.89758c-0.01852,0.48778 -0.203,0.87677 -0.41205,0.86883c-0.20905,-0.00794 -0.3635,-0.4098 -0.34498,-0.89758c0.01852,-0.48778 0.203,-0.87677 0.41205,-0.86883z" fill="#492116" stroke-width="0"/><path d="M240.08427,177.56189c0.07287,0.00749 0.14677,0.09569 0.20751,0.23227c0.06069,0.1365 0.10811,0.32141 0.12783,0.52204c0.01966,0.20055 0.00797,0.3793 -0.02692,0.50605c-0.03488,0.12675 -0.09285,0.20152 -0.16563,0.19397c-0.07281,-0.00742 -0.14676,-0.0957 -0.2075,-0.23228c-0.06068,-0.13652 -0.10813,-0.3213 -0.12777,-0.52198c-0.0197,-0.20063 -0.00801,-0.37938 0.02688,-0.50613c0.03481,-0.1267 0.0928,-0.20139 0.16562,-0.19397z" fill="#ffffff" stroke-width="0.01896"/></g><g data-paper-data="{&quot;index&quot;:null}"><g stroke="none" stroke-width="0" stroke-linecap="butt"><path d="M243.66143,176.81347l0.28972,0.6711l-2.45401,1.1786l-0.11611,-0.85131z" fill="#319a2b"/><path d="M243.66433,176.62856c0.41838,-0.4372 3.12035,-1.79586 3.12035,-1.79586l0.1268,1.52997c0,0 -1.86001,1.00757 -2.91676,1.16673c-0.43734,0.06587 -0.77798,-0.43313 -0.3304,-0.90083z" fill="#ead42f"/><path d="M248.85606,177.13735c0.43134,1.40216 -0.51665,3.14887 -0.90911,3.06593c-1.24089,-0.26223 -1.59573,-0.90602 -2.13966,-2.26846c-0.65882,-1.65022 0.72784,-3.44585 1.60347,-3.35624c0.28668,0.02934 1.01396,1.15661 1.4453,2.55877z" fill="#f0e9bb"/></g><path d="M246.91886,179.51036c0,0 -0.43872,-1.45885 -0.28521,-2.41403c0.15351,-0.95518 0.84077,-2.34787 0.84077,-2.34787" fill="none" stroke="#d3c49c" stroke-width="0.25" stroke-linecap="round"/><path d="M247.55378,175.70084l-0.79365,-0.23809" fill="none" stroke="#ffffff" stroke-width="0.5" stroke-linecap="round"/><path d="M247.07759,176.89132l-0.63492,-0.15873" fill="none" stroke="#ffffff" stroke-width="0.5" stroke-linecap="round"/><path d="M246.99823,177.92306l-0.63492,-0.07937" fill="none" stroke="#ffffff" stroke-width="0.5" stroke-linecap="round"/><path d="M247.07759,179.03418h-0.47619" fill="none" stroke="#ffffff" stroke-width="0.5" stroke-linecap="round"/></g><g data-paper-data="{&quot;index&quot;:null}"><g stroke="#ffffff" stroke-width="0" stroke-linecap="butt"><path d="M238.90528,177.53327l-0.2171,0.83131l-2.29543,-1.46364l0.36791,-0.63163z" data-paper-data="{&quot;index&quot;:null}" fill="#319a2b"/><path d="M236.7799,176.0854c0.38843,0.51788 -0.00944,0.97255 -0.43577,0.85484c-1.03012,-0.2844 -2.75628,-1.50719 -2.75628,-1.50719l0.30888,-1.50383c0,0 2.52008,1.67208 2.88317,2.15618z" data-paper-data="{&quot;index&quot;:null}" fill="#ead42f"/><path d="M233.33484,173.62098c0.8776,0.06772 1.9224,2.08154 0.98031,3.5881c-0.7778,1.24384 -1.2416,1.81416 -2.50935,1.85128c-0.40096,0.01173 -1.02282,-1.87584 -0.34873,-3.17881c0.67409,-1.30296 1.59044,-2.28275 1.87777,-2.26057z" data-paper-data="{&quot;index&quot;:null}" fill="#f0e9bb"/></g><path d="M232.87599,174.03716c0,0 0.47322,1.47917 0.48344,2.44656c0.01022,0.96739 -0.63992,2.34509 -0.63992,2.34509" data-paper-data="{&quot;index&quot;:null}" fill="none" stroke="#d3c49c" stroke-width="0.25" stroke-linecap="round"/><path d="M232.65632,174.96725l0.82018,-0.11782" data-paper-data="{&quot;index&quot;:null}" fill="none" stroke="#ffffff" stroke-width="0.5" stroke-linecap="round"/><path d="M233.60221,176.15231l-0.65143,0.06286" data-paper-data="{&quot;index&quot;:null}" fill="none" stroke="#ffffff" stroke-width="0.5" stroke-linecap="round"/><path d="M233.51599,177.26291l-0.63967,-0.01563" data-paper-data="{&quot;index&quot;:null}" fill="none" stroke="#ffffff" stroke-width="0.5" stroke-linecap="round"/><path d="M233.10406,178.40494l-0.47093,-0.07059" data-paper-data="{&quot;index&quot;:null}" fill="none" stroke="#ffffff" stroke-width="0.5" stroke-linecap="round"/></g></g></g></svg>