<svg version="1.1" xmlns="http://www.w3.org/2000/svg" xmlns:xlink="http://www.w3.org/1999/xlink" width="38" height="31.58562" viewBox="0,0,38,31.58562"><g transform="translate(-225.30893,-163.30537)"><g data-paper-data="{&quot;isPaintingLayer&quot;:true}" fill-rule="nonzero" stroke-linejoin="miter" stroke-miterlimit="10" stroke-dasharray="" stroke-dashoffset="0" style="mix-blend-mode: normal"><g><path d="M247.63186,184.6973l0.82466,0.01376c0,0 1.35351,2.50016 1.77475,3.88319c0.3514,1.15373 0.60832,2.91586 0.62787,3.63715c0.03375,1.24539 -0.59016,1.03868 -0.59016,1.03868c0,0 0.01137,-3.26873 -0.34301,-4.54667c-0.25261,-0.91109 -2.29411,-4.02611 -2.29411,-4.02611z" fill="#989898" stroke="#989898" stroke-width="0" stroke-linecap="round"/><path d="M246.36913,186.53512c0.0971,-0.55386 0.16529,-0.98994 0.58141,-1.42688c0.59155,-0.62113 0.99177,-0.42724 1.30367,-0.00197c0.65627,0.8954 1.34038,2.6463 1.34038,2.6463l-2.97173,1.84899c0,0 -0.40135,-2.21726 -0.25373,-3.06645z" fill="#f82020" stroke="none" stroke-width="1.13968" stroke-linecap="round"/><path d="M249.5413,187.67806c0,0 0.16697,0.10572 0.42984,1.06462c0.26287,0.95889 0.48404,2.24997 0.55577,3.34357c0.02819,0.43851 0.11332,1.18619 -0.22983,1.24295c-0.58417,0.09672 -1.81287,-0.13732 -2.29527,-0.65722c-0.47933,-0.51698 -1.47084,-2.47589 -1.39049,-3.20748c0.15686,-1.30232 2.93,-1.78643 2.93,-1.78643z" fill="#f8f8f8" stroke="none" stroke-width="1.15102" stroke-linecap="round"/><path d="M244.54962,186.77155c-0.02418,-0.42791 -0.38169,-1.16494 0.05506,-1.63094c0.49611,-0.52934 0.92319,0.11856 0.92319,0.11856c0,0 0.14116,-0.62932 0.55204,-0.40734c0.39894,0.21553 0.4031,0.49792 0.45751,0.79936c0.09144,0.50652 -0.12822,1.37756 -0.11821,1.55457c0.05003,0.88514 0.37682,2.18821 -0.08752,2.21445c-0.12317,0.00696 -0.71663,-0.19807 -0.71663,-0.19807c0,0 -0.59247,0.52503 -0.80402,0.15608c-0.27444,-0.47863 -0.24066,-2.23941 -0.26141,-2.60667z" fill="#ffffff" stroke="none" stroke-width="0" stroke-linecap="butt"/></g><path d="M244.8257,186.54493c0.2319,0.451 0.0744,1.2097 -0.3455,1.4122c-0.6542,0.3237 -1.5113,0.1313 -2.1297,-0.1995c-0.3795,-0.1978 -0.5472,-0.6966 -0.5726,-1.1504c-0.0465,-0.8117 -0.0631,-1.7152 0.3326,-2.4196c0.1563,-0.2754 0.8034,-0.1828 1.004,0.0852c0.3591,0.4777 -0.0556,1.2983 0.3044,1.7794c0.3061,0.4074 1.1775,0.0537 1.4068,0.4927z" data-paper-data="{&quot;index&quot;:null}" fill="#e88820" stroke="none" stroke-width="0.49091" stroke-linecap="round"/><path d="M235.94078,186.02018c0.19941,-0.46279 0.30694,-1.03065 0.48363,-1.45781c0.74218,-1.22849 0.99195,0.04646 1.09846,0.73914c0.08642,0.42178 -0.1463,0.89112 -0.31381,1.29969c-0.23542,0.57056 -0.38277,1.39224 -0.90465,1.66128c-0.4361,0.21876 -1.20168,0.03566 -1.28194,-0.44219c-0.10751,-0.63892 0.64915,-1.174 0.91831,-1.80011z" data-paper-data="{&quot;index&quot;:null}" fill="#f8b820" stroke="none" stroke-width="0.65663" stroke-linecap="round"/><g data-paper-data="{&quot;index&quot;:null}" stroke-linecap="round"><path d="M233.51207,193.02244c-0.60268,-0.30525 -1.13364,-0.75883 -1.46717,-1.25271c-0.26215,-0.43444 -0.70888,-0.94054 -0.55869,-1.33263c0.16656,-0.43499 1.38467,-0.61519 1.34951,-0.73086c-0.03501,-0.11433 -1.45322,0.6793 -1.60689,0.35713c-0.22719,-0.47759 0.61399,-1.13995 1.11642,-1.60061c0.18529,-0.15908 1.0058,-0.05591 1.32636,-0.05814c0.13921,-0.00097 -0.47852,-0.46517 -0.35524,-0.49079c0.08228,-0.0171 -0.07262,-0.24692 0.22556,-0.49293c0.16549,-0.13653 1.21479,0.4317 1.21479,0.4317c0,0 -1.01671,-0.7692 -0.64355,-1.08638c0.18946,-0.16104 0.41412,-0.08515 0.55032,-0.06663c0.46561,0.10968 0.23844,0.01277 0.9581,0.3636c0.71965,0.35082 1.01373,0.53211 1.5717,0.91836c0.55798,0.38626 0.62813,0.38634 0.73597,0.70704c0.07648,0.22807 -0.19412,0.52634 -0.6049,0.46356c-0.41672,-0.06368 -0.816,-0.21439 -0.816,-0.21439c0,0 0.87659,0.4406 0.50025,1.00372c-0.21915,0.32791 -0.82961,0.09844 -0.88124,0.22945c-0.39262,0.99802 -0.3162,1.89022 -1.15157,2.66707c-0.47393,0.44133 -0.74582,0.54742 -1.46375,0.18442z" fill="#a8c8d8" stroke="none" stroke-width="0.67216"/><path d="M236.12291,190.136c0,0 -0.72106,-0.21828 -1.24091,-0.60264c-0.51986,-0.38436 -1.3037,-1.16433 -1.3037,-1.16433" fill="none" stroke="#707070" stroke-width="0.25"/></g><path d="M244.75563,185.86915c-0.4128,0.5788 -1.4035,0.324 -2.1109,0.3191c-0.6505,-0.002 -1.3804,0.0879 -1.9391,-0.2455c-0.5572,-0.3333 -0.8365,-1.0387 -1.1291,-1.6445c-0.0766,-0.1414 -0.1369,-0.3294 0.0737,-0.4909c0.8428,-0.6466 1.7849,-1.1758 2.749,-1.62c0.5381,-0.2479 1.22701,-0.30531 1.80481,-0.17571c0.4929,0.1169 1.01881,0.51394 1.09291,0.92624c0.1649,1.1188 0.05568,2.09037 -0.54132,2.93127z" data-paper-data="{&quot;index&quot;:null}" fill="#f8b820" stroke="none" stroke-width="0.49091" stroke-linecap="round"/><path d="M241.08763,186.01966c-0.196,-0.1735 0.571,-0.5313 0.8707,-0.7579c0.2711,-0.2044 0.5036,-0.536 0.8384,-0.5805c0.2279,-0.0223 0.5152,0.2489 0.5533,0.5234c0.0488,0.2817 -0.0492,0.7555 -0.3386,0.8546c-0.6077,0.2072 -1.5932,0.1856 -1.9238,-0.0396z" data-paper-data="{&quot;index&quot;:null}" fill="#f8f8f8" stroke="none" stroke-width="1" stroke-linecap="round"/><path d="M246.38155,187.26738c0.2276,0.45308 0.06302,1.2102 -0.35871,1.40879c-0.65727,0.31764 -1.51256,0.11718 -2.12775,-0.21935c-0.37756,-0.20142 -0.54066,-0.70172 -0.5618,-1.15575c-0.03884,-0.81209 -0.047,-1.71569 0.35526,-2.41638c0.15887,-0.27389 0.80507,-0.1753 1.00314,0.09465c0.35457,0.48096 -0.06777,1.29766 0.28773,1.78217c0.30222,0.41022 1.17687,0.0647 1.40212,0.50586z" data-paper-data="{&quot;index&quot;:null}" fill="#f8b820" stroke="none" stroke-width="0.49091" stroke-linecap="round"/><path d="M239.61141,187.81562c0.14368,-0.483 0.26857,-0.98726 0.30909,-1.50452c0.05342,-0.68143 -0.33655,-1.47429 -0.0389,-2.05573c0.18472,-0.36036 0.92797,-0.45954 1.10308,-0.09059c0.36563,0.80172 0.1457,1.82777 0.11347,2.75135c-0.01532,0.42696 -0.04124,0.90214 -0.15901,1.32754c-0.16336,0.58029 -0.21663,1.42755 -0.70331,1.75602c-0.4074,0.26846 -1.18918,0.17653 -1.325,-0.28858c-0.1818,-0.62187 0.50679,-1.24211 0.70056,-1.8955z" data-paper-data="{&quot;index&quot;:null}" fill="#f8b820" stroke="none" stroke-width="0.65663" stroke-linecap="round"/><path d="M239.63743,185.97054c-0.8146,0.2427 -1.7376,-0.0113 -2.5298,-0.2871c-0.235,-0.1001 -0.35,-0.5054 -0.2086,-0.7135c0.1953,-0.2797 0.6448,-0.232 0.9578,-0.3676c0.716,-0.3096 1.5306,-1.1708 2.0908,-1.0947c0.3583,0.0934 -0.23696,0.67552 -0.08516,1.09662c0.0869,0.2304 1.14606,0.34074 1.12866,0.47684c-0.0109,0.3785 -0.8762,0.74734 -1.3537,0.88944z" data-paper-data="{&quot;index&quot;:null}" fill="#f8f8f8" stroke="none" stroke-width="1" stroke-linecap="round"/><g data-paper-data="{&quot;index&quot;:null}" stroke-linecap="round"><path d="M236.75606,193.82389c-0.34559,-0.37153 -0.54484,-0.3373 -0.47817,-0.75184c0.23425,-0.7963 0.94417,-1.26938 0.88606,-1.3754c-0.05769,-0.10473 -0.98867,1.84609 -1.60546,0.9586c-0.32022,-0.42092 0.79128,-1.49268 1.18867,-2.04649c0.14878,-0.19368 0.59839,-0.34399 0.9117,-0.41185c0.13607,-0.02947 -0.56367,-0.35726 -0.44825,-0.4076c0.07703,-0.03359 -0.12167,-0.22681 0.11979,-0.52868c0.134,-0.16753 1.27747,0.17367 1.27747,0.17367c0,0 -1.15272,-0.54458 -0.85247,-0.93148c0.15245,-0.19643 0.38789,-0.1682 0.52501,-0.17797c0.47821,0.01195 0.236,-0.03634 1.01227,0.15961c0.77627,0.19595 1.10124,0.31313 1.72651,0.57688c0.62527,0.26375 0.69397,0.24946 0.86521,0.54127c0.1216,0.20757 -0.08216,0.55494 -0.4971,0.57766c-0.42094,0.02304 -0.84262,-0.04267 -0.84262,-0.04267c0,0 0.94826,0.25166 0.69527,0.87994c-0.14732,0.36584 -0.89403,0.41492 -0.91772,0.55371c0.34838,0.98846 0.64582,1.98519 -0.01267,2.91673c-0.37346,0.52906 -1.15179,0.45372 -1.92886,0.24549c-0.65243,-0.17529 -1.19701,-0.49447 -1.62464,-0.90955z" fill="#ffffff" stroke="none" stroke-width="0.67216"/><path d="M240.32571,191.46084c0,0 -0.66331,-0.1374 -1.25089,-0.40711c-0.58758,-0.26971 -1.51457,-0.87253 -1.51457,-0.87253" fill="none" stroke="#707070" stroke-width="0.25"/></g><path d="M245.95759,175.14443c0,3.67923 -0.79915,6.36383 -1.15669,7.28335c-0.22267,0.57267 -0.30752,0.07576 -0.30752,0.07576c0,0 0.32063,-0.97151 0.32063,-6.9421c0,-2.00845 -2.15189,-4.30491 -2.3331,-5.04466c-0.19986,-0.81593 2.87875,-0.62371 2.87875,-0.62371c0,0 3.20894,-1.09532 3.11029,0.02077c-0.07905,0.89439 -2.51236,3.52196 -2.51236,5.2306z" data-paper-data="{&quot;index&quot;:null}" fill="#e2a026" stroke="none" stroke-width="0" stroke-linecap="butt"/><path d="M242.37574,175.35294c0,-1.70864 -1.66857,-4.05755 -1.76167,-4.95194c-0.11617,-1.11608 2.1755,-0.29943 2.1755,-0.29943c0,0 3.31872,-0.84244 3.08336,-0.02651c-0.21339,0.73975 -2.15048,3.68642 -2.15048,5.69487c0,5.9706 0.21456,6.84921 0.21456,6.84921c0,0 0.02724,0.49302 -0.26929,-0.21858c-0.40775,-0.9785 -1.29197,-3.5909 -1.29197,-7.04764z" fill="#e2a026" stroke="none" stroke-width="0" stroke-linecap="butt"/><path d="M263.30893,168.48394c0,2.86005 -8.50659,5.17857 -19,5.17857c-10.49341,0 -19,-2.31852 -19,-5.17857c0,-2.86005 8.50659,-5.17857 19,-5.17857c10.49341,0 19,2.31852 19,5.17857z" fill-opacity="0.90196" fill="#e3a127" stroke="none" stroke-width="0" stroke-linecap="butt"/><path d="M239.18261,172.89394c-0.0764,-0.02174 -1.53979,-0.34425 -2.4492,-0.85844c-1.43673,-0.81236 -2.53416,-1.94759 -2.53416,-1.94759c0,0 1.98008,1.07678 2.54163,1.26122c0.99934,0.32821 2.94072,0.53931 2.94072,0.53931c0,0 -1.70805,-0.24083 -2.49428,-0.54096c-0.66702,-0.25463 -1.92455,-1.14588 -1.92455,-1.14588c0,0 1.22187,0.35875 1.76858,0.46221c0.62133,0.11759 1.76427,0.20637 1.76427,0.20637c0,0 -0.82403,-0.17658 -1.32425,-0.37109c-0.50023,-0.19452 -1.03923,-0.54795 -1.03923,-0.54795c0,0 0.63363,0.0381 0.91845,0.02959c0.31762,-0.00949 0.9783,-0.13542 0.9783,-0.13542c0,0 -0.68015,-0.181 -1.07828,-0.38337c-0.39813,-0.20237 -0.94552,-0.64535 -0.94552,-0.64535c0,0 0.49095,-0.00017 0.80437,-0.0193c0.31343,-0.01913 0.58577,-0.06556 0.58577,-0.06556c0,0 -0.3719,-0.10436 -0.57904,-0.23235c-0.20714,-0.12798 -0.43666,-0.39517 -0.43666,-0.39517c0,0 0.36082,0.0281 0.52328,0.01753c0.20636,-0.01344 0.615,-0.09162 0.615,-0.09162c0,0 -0.57471,-0.24683 -0.76055,-0.37033c-0.13823,-0.09184 -0.39888,-0.32517 -0.39888,-0.32517l0.60791,0.08801l-0.38602,-0.58656l1.00579,0.42432l-0.47065,0.37486l0.85713,0.46039l-0.71733,0.29959c0,0 0.20202,0.20545 0.35699,0.30164c0.15496,0.09619 0.46722,0.20996 0.46722,0.20996c0,0 -0.33552,0.1259 -0.56008,0.13328c-0.22456,0.00738 -0.85523,-0.08675 -0.85523,-0.08675l1.12544,0.49057l1.54013,0.38114c0,0 -0.48442,0.2252 -0.81441,0.30377c-0.33,0.07857 -1.03879,0.13744 -1.03879,0.13744c0,0 0.71885,0.2016 1.18403,0.31012c0.46518,0.10853 1.33164,0.27679 1.33164,0.27679c0,0 -0.75223,0.3427 -1.26556,0.3617c-0.51332,0.01901 -1.67591,-0.2528 -1.67591,-0.2528c0,0 1.29254,0.50235 2.16264,0.61892c0.87012,0.11658 3.04954,0.07937 3.04954,0.07937c0,0 -1.60583,0.67777 -2.68267,0.64965c-1.07684,-0.02811 -3.37981,-0.80792 -3.37981,-0.80792c0,0 2.89053,0.99576 3.49228,1.03878c1.51177,0.1081 4.66126,-0.52482 4.66126,-0.52482c0,0 -2.41216,1.7488 -5.47131,0.87789z" data-paper-data="{&quot;index&quot;:null}" fill="#dcdce1" stroke="none" stroke-width="0" stroke-linecap="butt"/><path d="M247.48958,163.84297c0.07884,0.00966 1.57451,0.10193 2.5525,0.46926c1.5451,0.58034 2.80492,1.53217 2.80492,1.53217c0,0 -2.12282,-0.75755 -2.70613,-0.85289c-1.03808,-0.16967 -2.98873,-0.07793 -2.98873,-0.07793c0,0 1.72475,-0.02628 2.54794,0.14864c0.69838,0.14838 2.07863,0.8344 2.07863,0.8344c0,0 -1.26265,-0.16542 -1.81879,-0.18308c-0.63205,-0.02006 -1.77496,0.06901 -1.77496,0.06901c0,0 0.84143,0.04699 1.36572,0.16179c0.52429,0.1148 1.11148,0.3806 1.11148,0.3806c0,0 -0.63191,0.06038 -0.91197,0.11284c-0.31233,0.05851 -0.94557,0.28512 -0.94557,0.28512c0,0 0.69996,0.07362 1.12461,0.21196c0.42465,0.13836 1.03397,0.49132 1.03397,0.49132c0,0 -0.48502,0.07611 -0.79172,0.14349c-0.30669,0.06738 -0.56858,0.15538 -0.56858,0.15538c0,0 0.38356,0.04558 0.608,0.13999c0.22445,0.0944 0.49253,0.32288 0.49253,0.32288c0,0 -0.36083,0.02804 -0.51969,0.06361c-0.2018,0.04519 -0.59343,0.18565 -0.59343,0.18565c0,0 0.60598,0.15496 0.80868,0.24822c0.15077,0.06937 0.44437,0.25956 0.44437,0.25956l-0.6142,0.00709l0.4721,0.51979l-1.05932,-0.26364l0.40701,-0.44315l-0.91803,-0.32226l0.66236,-0.40695c0,0 -0.23138,-0.17172 -0.39937,-0.24279c-0.16798,-0.07107 -0.49407,-0.13515 -0.49407,-0.13515c0,0 0.31201,-0.17628 0.53272,-0.21831c0.22072,-0.04203 0.85836,-0.04657 0.85836,-0.04657l-1.18778,-0.31058l-1.58056,-0.13833c0,0 0.44375,-0.29741 0.75762,-0.42608c0.31387,-0.12867 1.00502,-0.29647 1.00502,-0.29647c0,0 -0.74138,-0.08798 -1.21775,-0.12325c-0.47636,-0.03527 -1.35843,-0.06748 -1.35843,-0.06748c0,0 0.69017,-0.45492 1.19438,-0.5531c0.5042,-0.09819 1.69483,-0.00947 1.69483,-0.00947c0,0 -1.35469,-0.29638 -2.23236,-0.27696c-0.87768,0.01943 -3.02511,0.39329 -3.02511,0.39329c0,0 1.48168,-0.918 2.5499,-1.05679c1.06823,-0.13879 3.4641,0.27541 3.4641,0.27541c0,0 -3.00977,-0.53666 -3.61092,-0.4861c-1.51029,0.12705 -4.52397,1.23952 -4.52397,1.23952c0,0 2.11261,-2.10086 5.26965,-1.71364z" data-paper-data="{&quot;index&quot;:null}" fill="#dcdce1" stroke="none" stroke-width="0" stroke-linecap="butt"/><path d="M260.50867,169.70585c0.1563,-0.39615 0.35948,-1.14096 0.35948,-1.14096c0,0 -0.22095,0.52276 -0.41283,0.82908c-0.19189,0.30632 -0.4938,0.61819 -0.4938,0.61819c0,0 0.10527,-0.41433 0.13564,-0.60381c0.03386,-0.2113 0.03405,-0.66424 0.03405,-0.66424c0,0 -0.20568,0.42704 -0.38987,0.66483c-0.18418,0.23779 -0.54637,0.54389 -0.54637,0.54389c0,0 0.06193,-0.32478 0.08888,-0.53453c0.02696,-0.20975 0.03066,-0.39576 0.03066,-0.39576c0,0 -0.11602,0.23281 -0.22686,0.35367c-0.11084,0.12085 -0.31659,0.2389 -0.31659,0.2389c0,0 0.06419,-0.23513 0.07773,-0.34392c0.01719,-0.13821 0.01712,-0.41839 0.01712,-0.41839c0,0 -0.23591,0.34897 -0.34109,0.45629c-0.07822,0.07982 -0.26551,0.22276 -0.26551,0.22276l0.13505,-0.39101l-0.43678,0.18123l0.40779,-0.61169l0.18848,0.3587l0.41287,-0.50879l0.10753,0.51237c0,0 0.16143,-0.10768 0.24465,-0.19804c0.08321,-0.09035 0.19793,-0.28252 0.19793,-0.28252c0,0 0.04089,0.23786 0.0174,0.38733c-0.02349,0.14947 -0.16546,0.55475 -0.16546,0.55475l0.46673,-0.68247l0.44676,-0.97061c0,0 0.08775,0.3489 0.09801,0.57711c0.01027,0.22822 -0.04037,0.70451 -0.04037,0.70451c0,0 0.2242,-0.45004 0.35478,-0.74403c0.13058,-0.29399 0.35137,-0.84589 0.35137,-0.84589c0,0 0.13162,0.54089 0.07933,0.88285c-0.0523,0.34196 -0.37902,1.07665 -0.37902,1.07665c0,0 -0.3752,0.5221 -0.23768,0.17354z" data-paper-data="{&quot;index&quot;:null}" fill="#dcdce1" stroke="none" stroke-width="0" stroke-linecap="butt"/><g><path d="M249.07901,185.64641l0.819,0.09749c0,0 1.09245,2.62475 1.37098,4.04343c0.23235,1.18347 0.30888,2.96258 0.25504,3.68213c-0.09298,1.24237 -0.69265,0.97333 -0.69265,0.97333c0,0 0.34345,-3.25066 0.12077,-4.55799c-0.15873,-0.93205 -1.87312,-4.23838 -1.87312,-4.23838z" fill="#989898" stroke="#989898" stroke-width="0" stroke-linecap="round"/><path d="M247.63606,187.34641c0.15288,-0.54113 0.26502,-0.96802 0.72339,-1.36041c0.6516,-0.5578 1.03005,-0.32426 1.29712,0.13051c0.56189,0.95745 1.06455,2.7688 1.06455,2.7688l-3.14422,1.53745c0,0 -0.17396,-2.24657 0.05917,-3.07636z" fill="#f82020" stroke="none" stroke-width="1.13968" stroke-linecap="round"/><path d="M250.67567,188.80577c0,0 0.15536,0.12215 0.31943,1.10279c0.16407,0.98064 0.2529,2.28751 0.21313,3.38273c-0.01651,0.4391 -0.00781,1.19157 -0.35493,1.21316c-0.59098,0.03685 -1.78953,-0.32082 -2.21661,-0.88706c-0.42432,-0.563 -1.21164,-2.61252 -1.05737,-3.33218c0.28839,-1.27965 3.09636,-1.47945 3.09636,-1.47945z" fill="#f8f8f8" stroke="none" stroke-width="1.15102" stroke-linecap="round"/><path d="M245.80195,187.39675c0.01942,-0.42816 -0.26134,-1.1977 0.2205,-1.6169c0.54732,-0.47618 0.90637,0.21176 0.90637,0.21176c0,0 0.20438,-0.61173 0.59057,-0.34913c0.37497,0.25495 0.35041,0.53631 0.37391,0.84171c0.03949,0.51319 -0.26753,1.35739 -0.27557,1.53451c-0.04017,0.88565 0.15252,2.21518 -0.31209,2.1941c-0.12325,-0.00559 -0.69281,-0.26987 -0.69281,-0.26987c0,0 -0.64275,0.46212 -0.81572,0.07357c-0.22439,-0.50404 -0.01185,-2.25228 0.00482,-2.61974z" fill="#ffffff" stroke="none" stroke-width="0" stroke-linecap="butt"/></g><path d="M242.48473,172.16672c0.47618,1.42479 0.4,3.15 0.4,3.15c0,0 1.159,3.72333 -0.05,5.68333c-1.029,1.667 -3.651,1.626 -5.6,1.8c-1.574,0.141 -3.742,0.288 -4.65,-0.95c-1.073,-1.465 -0.464,-4.50967 -0.65,-6.31667c-0.069,-0.682 -0.42521,-1.54975 -0.7,-2.75c-0.27479,-1.20025 -0.679,-2.37633 -0.35,-3.05c0.146,-0.568 1.10402,0.5208 1.8,1.06667c0.69598,0.54587 1.75033,1.42 2.43333,1.6c0.8,0.15 0.98833,0.308 1.78333,0.05c0.47,-0.152 3.27533,-3.76833 3.78333,-3.63333c0.603,0.161 1.32382,1.92521 1.8,3.35z" data-paper-data="{&quot;index&quot;:null}" fill="#f8b820" stroke="none" stroke-width="1" stroke-linecap="round"/><path d="M233.16123,179.35006c-0.0106,0.621 0.0515,1.319 -0.1765,1.85c-0.1398,0.324 -0.5944,0.61 -0.7059,0.3c-0.3282,-0.913 -0.2887,-2.023 -0.2823,-3.05c-0.0064,-0.564 -0.0149,-1.272 0.2823,-1.65c0.1991,-0.254 0.6544,-0.018 0.7765,0.3c0.2266,0.691 0.1186,1.503 0.1059,2.25z" data-paper-data="{&quot;index&quot;:null}" fill="#ffffff" stroke="none" stroke-width="0.86553" stroke-linecap="round"/><path d="M241.58316,174.65934c-0.11837,0.07265 -1.26277,-0.75934 -2.00088,-1.11208c-0.73811,-0.35274 -1.60174,-0.44973 -1.62826,-0.63523c-0.0653,-0.4913 0.5908,-1.02897 0.8122,-1.46671c0.2324,-0.45929 1.5299,-1.87092 1.8029,-1.76935c0.3074,0.1168 1.25023,4.83723 1.01403,4.98336z" data-paper-data="{&quot;index&quot;:null}" fill="#ffffff" stroke="none" stroke-width="0.85185" stroke-linecap="butt"/><path d="M237.71803,182.50485c-0.2622,0.437 -0.8782,0.3763 -1.3333,0.3668c-0.4907,-0.0272 -1.2364,0.0661 -1.4222,-0.4716c-0.4187,-1.2126 -0.1218,-2.6527 -0.0889,-3.9303c0.0142,-0.5481 -0.016,-1.133 0.2222,-1.6245c0.0418,-0.1887 0.2898,-0.1059 0.4889,-0.1048c0.2382,0.001 0.4524,0.0167 0.7111,0.1048c0.2667,0.0933 0.5413,0.2348 0.7556,0.4192c0.2942,0.2788 0.6302,0.5911 0.7555,0.9957c0.1929,0.6068 0.1911,1.2902 0.1778,1.9389c-0.016,0.7966 0.1129,1.6728 -0.2667,2.3058z" data-paper-data="{&quot;index&quot;:null}" fill="#ffffff" stroke="none" stroke-width="0.97175" stroke-linecap="round"/><path d="M243.19883,179.7334c-0.257,0.28 -1.41933,1.1 -1.13333,1.25c0.564,0.297 1.5,0.82847 1.5,0.82847c0,0 -0.69267,-0.4478 -1.36667,0.0882c-0.12604,0.10016 1.89784,0.1458 1.89784,0.1458l-1.98618,1.18206l0.98138,0.94868c0,0 -2.67816,-0.41876 -3.04304,-0.22654c-0.40268,0.2119 -1.23734,0.68037 -2.10702,0.8659c-0.86968,0.18553 -2.08302,0.30186 -2.91571,0.2591c-0.75581,-0.0667 -1.83871,-0.39865 -2.66818,-1.1875c-0.514,-0.327 -0.87942,-1.65983 -0.44242,-1.97083c0.763,-0.543 2.08333,-0.31967 2.93333,0.13333c0.75158,0.40055 1.74833,0.48233 2.58333,0.33333c0.82,-0.134 1.428,-0.42033 2.1,-0.93333c1.016,-0.775 4.00567,-2.08667 3.66667,-1.71667z" data-paper-data="{&quot;index&quot;:null}" fill="#f8f8f8" stroke="none" stroke-width="1" stroke-linecap="round"/><path d="M232.6096,181.74729c0.35891,0 0.39298,0.07533 0.62833,0.19695c0.23536,0.12162 -0.26941,0.70806 -0.62833,0.70806c-0.35892,0 -1.038,-0.58644 -0.80265,-0.70806c0.23535,-0.12161 0.44373,-0.19695 0.80265,-0.19695z" data-paper-data="{&quot;index&quot;:null}" fill="#101010" stroke="none" stroke-width="1" stroke-linecap="butt"/><path d="M237.19993,183.97734l-1.7512,0.778" data-paper-data="{&quot;index&quot;:null}" fill="none" stroke="#cccccc" stroke-width="0.36953" stroke-linecap="round"/><path d="M235.80323,179.66256c0.105,0.241 0.1709,0.5722 0.1709,0.9384c0,0.3662 -0.0659,0.6974 -0.1709,0.9384c-0.1062,0.2399 -0.2516,0.3885 -0.413,0.3885c-0.1613,0 -0.3067,-0.1486 -0.4129,-0.3885c-0.1051,-0.241 -0.1709,-0.5722 -0.1709,-0.9384c0,-0.3662 0.0658,-0.6974 0.1709,-0.9384c0.1062,-0.2399 0.2516,-0.3885 0.4129,-0.3885c0.1614,0 0.3068,0.1486 0.413,0.3885z" fill="#4088ed" stroke="none" stroke-width="1.0615" stroke-linecap="butt"/><path d="M235.68063,179.94045c0.0711,0.1501 0.1146,0.3571 0.1146,0.5859c0,0.2288 -0.0435,0.4358 -0.1146,0.586c-0.0706,0.1501 -0.1682,0.243 -0.2762,0.243c-0.108,0 -0.2055,-0.0929 -0.2761,-0.243c-0.0711,-0.1502 -0.1146,-0.3572 -0.1146,-0.586c0,-0.2288 0.0435,-0.4358 0.1146,-0.5859c0.0706,-0.1502 0.1681,-0.243 0.2761,-0.243c0.108,0 0.2056,0.0928 0.2762,0.243z" fill="#000000" stroke="none" stroke-width="0.47368" stroke-linecap="butt"/><path d="M235.46013,180.04324c0.0323,0.0615 0.0524,0.1462 0.0524,0.24c0,0.0938 -0.0201,0.1785 -0.0524,0.24c-0.0317,0.0614 -0.0763,0.0996 -0.1255,0.0996c-0.0491,0 -0.0938,-0.0382 -0.1255,-0.0996c-0.0323,-0.0615 -0.0523,-0.1462 -0.0523,-0.24c0,-0.0938 0.02,-0.1785 0.0523,-0.24c0.0317,-0.0614 0.0764,-0.0996 0.1255,-0.0996c0.0492,0 0.0938,0.0382 0.1255,0.0996z" fill="#ffffff" stroke="none" stroke-width="0.64678" stroke-linecap="butt"/><path d="M232.98443,179.64456c0.0934,0.2142 0.1519,0.5085 0.1519,0.8341c0,0.3255 -0.0585,0.6199 -0.1519,0.8341c-0.0943,0.2132 -0.2236,0.3453 -0.367,0.3453c-0.1434,0 -0.2727,-0.1321 -0.3671,-0.3453c-0.0934,-0.2142 -0.1519,-0.5086 -0.1519,-0.8341c0,-0.3256 0.0585,-0.6199 0.1519,-0.8341c0.0944,-0.2133 0.2237,-0.3454 0.3671,-0.3454c0.1434,0 0.2727,0.1321 0.367,0.3454z" fill="#4088ed" stroke="none" stroke-width="0.94355" stroke-linecap="butt"/><path d="M232.81443,179.90815c0.0631,0.1335 0.1019,0.3175 0.1019,0.5208c0,0.2034 -0.0388,0.3874 -0.1019,0.5209c-0.0627,0.1335 -0.1495,0.216 -0.2455,0.216c-0.096,0 -0.1827,-0.0825 -0.2455,-0.216c-0.0631,-0.1335 -0.1019,-0.3175 -0.1019,-0.5209c0,-0.2033 0.0388,-0.3873 0.1019,-0.5208c0.0628,-0.1335 0.1495,-0.216 0.2455,-0.216c0.096,0 0.1828,0.0825 0.2455,0.216z" fill="#000000" stroke="none" stroke-width="0.42105" stroke-linecap="butt"/><path d="M232.58513,179.99964c0.0287,0.0546 0.0465,0.1299 0.0465,0.2132c0,0.0834 -0.0178,0.1587 -0.0465,0.2133c-0.0282,0.0547 -0.0679,0.0886 -0.1116,0.0886c-0.0437,0 -0.0833,-0.0339 -0.1115,-0.0886c-0.0288,-0.0546 -0.0466,-0.1299 -0.0466,-0.2133c0,-0.0833 0.0178,-0.1586 0.0466,-0.2132c0.0282,-0.0547 0.0678,-0.0886 0.1115,-0.0886c0.0437,0 0.0834,0.0339 0.1116,0.0886z" fill="#ffffff" stroke="none" stroke-width="0.57492" stroke-linecap="butt"/><path d="M234.04546,173.0455c0,0 -1.60784,0.81818 -1.90909,0.81818c-0.15444,0 -0.59786,-1.16834 -0.81084,-1.98157c-0.21299,-0.81322 -0.18916,-1.83661 -0.18916,-1.83661z" fill="#ffffff" stroke="none" stroke-width="0" stroke-linecap="butt"/><path d="M234.41591,176.83417l-2.9894,0.11061l-2.39108,1.22519l2.37753,-2.2258l2.9952,0.23034z" fill="#f8b820" stroke="none" stroke-width="1.22222" stroke-linecap="round"/><path d="M233.65647,175.9425l-2.12086,-1.11671l-2.93952,0.54809c0,0 2.35267,-1.60938 2.80547,-1.59648c0.31763,0.00903 2.69554,1.47025 2.69554,1.47025z" fill="#f8b820" stroke="none" stroke-width="1.22222" stroke-linecap="round"/><path d="M233.92452,174.75118c0,0 -1.01688,-1.2156 -1.92011,-1.61073c-0.90323,-0.39512 -4.18291,-1.05911 -4.18291,-1.05911c0,0 3.52569,-0.40291 4.12923,-0.13152c0.36592,0.16456 2.69979,2.24019 2.69979,2.24019z" fill="#f8b820" stroke="none" stroke-width="1.22222" stroke-linecap="round"/></g></g></svg>