<svg version="1.1" xmlns="http://www.w3.org/2000/svg" xmlns:xlink="http://www.w3.org/1999/xlink" width="22.08556" height="43.66673" viewBox="0,0,22.08556,43.66673"><g transform="translate(-232.44485,-157.78896)"><g data-paper-data="{&quot;isPaintingLayer&quot;:true}" fill-rule="nonzero" stroke-linejoin="miter" stroke-miterlimit="10" stroke-dasharray="" stroke-dashoffset="0" style="mix-blend-mode: normal"><g><path d="M240.00063,179.12697c0.0738,0.26232 1.07861,2.3928 1.07861,2.3928l1.34688,2.68454l-0.86215,0.5458l-1.43396,-2.79269c0,0 -0.9885,-1.82594 -1.19965,-2.57649c-0.21115,-0.75055 -0.15625,-0.85308 0.13443,-0.9194c0.2907,-0.06634 0.7247,-0.08512 0.93585,0.66543z" data-paper-data="{&quot;index&quot;:null}" fill="#111115" stroke="none" stroke-width="0" stroke-linecap="butt"/><g><g><path d="M241.50438,188.85329c-0.26068,-0.48189 -0.06362,-1.21091 -0.07736,-2.04816c-0.01025,-0.62465 0.53747,-1.1623 0.96202,-1.39195c0.90646,-0.49036 1.97266,-0.73699 2.463,0.16946c0.16181,0.29911 0.55017,0.88782 0.92338,1.44227c0.36818,0.54696 0.51858,0.99939 0.22915,1.19164c-0.37186,0.24702 -0.58692,-0.00702 -0.58692,-0.00702c0,0 0.01059,0.40655 -0.17028,0.52016c-0.18088,0.11361 -0.63993,-0.0119 -0.63993,-0.0119c0,0 -0.06272,0.37033 -0.28033,0.51054c-0.21764,0.14021 -0.50359,-0.0037 -0.50359,-0.0037c0,0 0.00884,0.35872 -0.2757,0.51745c-0.28454,0.15872 -0.53517,-0.14146 -0.53517,-0.14146c0,0 0.13141,0.2641 -0.04812,0.37576c-0.17952,0.11164 -0.04346,0.02375 -0.17165,0.03021c-0.10559,0.00533 -1.15125,-0.89966 -1.28846,-1.15329z" fill="#747875" stroke="none" stroke-width="0" stroke-linecap="butt"/><path d="M243.02574,189.75472c0,0 -0.0137,-0.46898 -0.17556,-0.8162c-0.16186,-0.34722 -0.53289,-0.65894 -0.49203,-0.84067c0.08636,-0.38415 0.66044,-0.70325 0.66044,-0.70325" fill="none" stroke="#000000" stroke-width="0.125" stroke-linecap="round"/></g><path d="M242.78329,185.5854c-0.33623,0.15065 -1.45962,0.70036 -1.60822,0.44378c-0.12243,-0.2575 0.0372,-0.6506 0.0372,-0.6506c0,0 -0.4395,0.02683 -0.51918,-0.23698c-0.10342,-0.34226 0.67232,-0.93389 1.13202,-1.1729c0.4597,-0.23899 1.05283,-0.37777 1.32351,-0.23767c0.68234,0.3532 0.27674,0.58376 0.27674,0.58376c0,0 0.44027,-0.2126 0.64344,0.40951c0.10011,0.30653 -0.90763,0.69183 -1.28551,0.86114z" fill="#747875" stroke="none" stroke-width="0" stroke-linecap="butt"/></g></g><g stroke="none" stroke-width="0" stroke-linecap="butt"><path d="M243.15534,198.07351c1.44801,-2.27757 1.78158,-6.16945 2.51968,-5.70017c0.73809,0.46927 -0.07437,2.52263 -2.03317,6.18751c-1.2722,2.38024 -3.00704,2.46492 -3.74515,1.99566c-0.73811,-0.46928 1.81062,-0.20542 3.25864,-2.48298z" fill="#310808"/><path d="M239.75387,200.51526c-0.99894,-0.4595 -0.5793,-3.8488 0.45456,-6.09641c0.57647,-1.25325 1.75317,-2.92093 2.91413,-3.16057c0.92112,-0.19013 1.99866,0.76721 2.43449,0.9833c0.62324,0.30902 -0.51751,2.88635 -1.83717,5.62984c-1.07242,2.22947 -2.96709,3.10333 -3.96603,2.64384z" fill="#6b1c27"/><path d="M244.27048,196.66822c0,0 -1.56426,-1.04649 -2.67621,-1.30679c-1.42134,-0.33273 -2.12461,1.26787 -2.12461,1.26787l0.54092,-1.8226c0,0 0.68677,-1.56849 2.49464,-1.1058c1.18205,0.30251 2.57887,1.17819 2.57887,1.17819z" fill="#747875"/></g><g stroke="none" stroke-width="0" stroke-linecap="butt"><g><path d="M242.70636,201.28434c-0.76844,-0.41774 1.79236,-0.32864 3.08139,-2.69982c1.28902,-2.37118 1.35592,-6.27674 2.12436,-5.859c0.76844,0.41774 0.09816,2.52181 -1.60571,6.31196c-1.10662,2.4616 -2.83162,2.66461 -3.60006,2.24686z" fill="#310808"/><path d="M242.56101,201.25296c-1.028,-0.39016 -0.8409,-3.80022 0.037,-6.11323c0.48952,-1.28972 1.54953,-3.0339 2.6914,-3.35228c0.90599,-0.25262 2.04643,0.62887 2.49599,0.81469c0.6429,0.26573 -0.31909,2.91496 -1.44826,5.7422c-0.9176,2.29753 -2.74813,3.29879 -3.77612,2.90863z" fill="#6b1c27"/><path d="M246.80426,197.10634c0,0 -1.63208,-0.93717 -2.75922,-1.1209c-1.44075,-0.23484 -2.03303,1.41006 -2.03303,1.41006l0.41512,-1.8553c0,0 0.578,-1.61174 2.41327,-1.27364c1.19995,0.22105 2.65334,0.99924 2.65334,0.99924z" fill="#747875"/></g><path d="M245.73603,196.54994c-0.81328,-0.36001 -0.90719,-0.5302 -0.56647,-1.23163c0.28703,-0.5909 0.53475,-0.80333 1.3171,-0.45601c0.82713,0.36718 0.90507,0.39098 0.59115,1.15817c-0.34466,0.84228 -0.54655,0.89339 -1.34176,0.52947z" fill="#b29540"/><path d="M245.93988,196.13029c-0.40342,-0.17858 -0.45002,-0.26302 -0.28101,-0.61096c0.14239,-0.29313 0.26526,-0.3985 0.65336,-0.22622c0.4103,0.18214 0.44897,0.19396 0.29325,0.57452c-0.17098,0.41782 -0.27113,0.44317 -0.6656,0.26265z" fill="#747875"/></g><path d="M234.60076,176.43146c-1.69825,-1.41225 -2.15591,-5.1726 -2.15591,-5.1726l3.11328,1.78295l4.39943,5.21607c0,0 -3.65855,-0.41418 -5.3568,-1.82643z" fill="#0d0a0e" stroke="none" stroke-width="0" stroke-linecap="butt"/><g fill="#0d0a0e" stroke-width="0"><path d="M235.75807,174.07259c-0.59535,-2.8741 1.25198,-5.68666 4.12608,-6.282c2.8741,-0.59535 5.68666,1.25199 6.28199,4.12609c0.59535,2.8741 -1.25198,5.68665 -4.12608,6.28199c-2.8741,0.59535 -5.68665,-1.25198 -6.28199,-4.12608z" stroke="none" stroke-linecap="butt"/><path d="M235.50671,173.29297c0,0 -0.79599,-3.76448 0.77005,-8.08505c1.7332,-4.78179 6.23137,-7.41896 6.23137,-7.41896l-0.7139,6.64564c0,0 1.62216,-0.32533 3.70692,-2.04191c2.13013,-1.75392 3.70907,-3.83774 3.70907,-3.83774c0,0 -0.04882,2.88632 -0.80469,7c-0.64853,3.52968 -1.11443,4.32159 -1.11443,4.32159c0,0 1.3651,-0.24847 2.51963,-0.63339c1.15456,-0.38492 4.71968,-2.05816 4.71968,-2.05816c0,0 -3.74225,5.47253 -5.49566,7.01305c-1.75341,1.54052 -5.09296,3.18864 -5.09296,3.18864" stroke="#000000" stroke-linecap="round"/></g><path d="M245.19979,178.15893c1.65475,0.6954 3.69471,2.89491 3.69471,2.89491c0,0 -2.34829,-0.51452 -3.85501,-0.52236c-1.50672,-0.00785 -2.25708,-0.04933 -2.25708,-0.04933l-0.89178,-2.76963c0,0 1.65441,-0.24902 3.30915,0.4464z" fill="#0d0a0e" stroke="none" stroke-width="0" stroke-linecap="butt"/><path d="M241.92343,191.48891l-1.89439,-8.15567l1.54059,-0.29384c0,0 -0.047,1.49506 0.27625,3.10666c0.32327,1.6116 1.1555,4.0312 1.1555,4.0312z" data-paper-data="{&quot;index&quot;:null}" fill="#0d0a0e" stroke="none" stroke-width="0" stroke-linecap="butt"/><path d="M241.19263,184.12934l1.17473,-1.34088c0,0 0.04765,0.95926 0.55708,1.53485c0.61156,0.691 2.86217,2.32849 2.86217,2.32849c0,0 -2.26166,-0.41299 -3.30883,-0.98799c-1.04718,-0.57498 -1.28513,-1.53447 -1.28513,-1.53447z" fill="#0d0a0e" stroke="none" stroke-width="0" stroke-linecap="butt"/><path d="M241.04463,192.67803c-0.09059,-0.50988 0.21632,-1.08658 0.21632,-1.08658c0,0 -0.57152,-0.21014 -0.60557,-0.70592c-0.04416,-0.64321 1.10559,-1.19939 1.75805,-1.33887c0.65246,-0.13952 1.45035,-0.03056 1.76181,0.36568c0.78511,0.99885 0.20429,1.15547 0.20429,1.15547c0,0 0.62064,-0.1058 0.72053,1.07211c0.0492,0.58042 -1.12157,0.8341 -2.00774,0.9517c-0.88618,0.11761 -1.92325,0.10998 -2.04767,-0.4136z" fill="#747875" stroke="none" stroke-width="0" stroke-linecap="butt"/><path d="M238.64929,181.9215c-0.50543,-1.51781 -0.45964,-3.27279 0.8612,-3.71262c1.32084,-0.43983 3.10969,-1.85932 3.6151,-0.3415c0.30206,0.90715 -0.07747,2.51343 0.1423,3.52813c0.39407,1.81949 -0.16128,2.32778 -0.9483,2.58984c-1.32083,0.43983 -3.16487,-0.54604 -3.67029,-2.06385z" fill="#0d0a0e" stroke="none" stroke-width="0" stroke-linecap="butt"/><path d="M238.41867,181.64873c-0.52119,-1.42521 -0.11317,-1.80689 0.30148,-2.66396c0.21026,-0.43458 1.40143,-0.6205 2.30041,0.11958c0.82966,0.68301 1.18652,4.2634 0.07553,4.49605c-1.23798,0.25921 -2.30835,-0.9424 -2.67743,-1.95166z" fill="#111115" stroke="none" stroke-width="0" stroke-linecap="butt"/><path d="M244.73757,192.44454l-3.16412,-8.59243l1.62312,-0.58717c0,0 0.15434,1.64317 0.72443,3.34988c0.57011,1.70672 1.80055,4.20926 1.80055,4.20926z" data-paper-data="{&quot;index&quot;:null}" fill="#0d0a0e" stroke="none" stroke-width="0" stroke-linecap="butt"/><path d="M240.24008,167.80456c0,0 1.33607,-1.65375 2.34666,-2.59072c1.01063,-0.937 1.16231,-1.00104 1.44815,-0.89644c0.27812,0.10177 0.46317,1.31836 0.63754,2.20776c0.17434,0.88939 0.17761,1.95033 0.17761,1.95033" fill="#0d0a0e" stroke="#000000" stroke-width="0.125" stroke-linecap="round"/><path d="M235.69254,172.4498c0,0 -1.14721,-1.35388 -1.5637,-2.06708c-0.36395,-0.62317 -1.07959,-1.87725 -0.79896,-1.97858c0.23419,-0.08458 1.26191,0.14041 1.79985,0.14682c0.58613,0.007 1.5848,-0.10644 1.5848,-0.10644" fill="#0d0a0e" stroke="#000000" stroke-width="0" stroke-linecap="round"/><path d="M236.4323,174.29418c0.46506,0.75833 0.94028,1.29858 1.32992,1.73279c0.12412,0.13832 0.27405,-0.32653 0.27405,-0.32653c0,0 0.25981,0.46201 0.44403,0.16769c0.69718,-0.57193 1.09637,-1.4292 1.68355,-2.37509c0.58722,-0.94589 1.66474,-2.94253 2.02381,-3.06286c0.30879,-0.10349 0.09069,-0.20801 0.64726,0.46525c0.41004,0.58584 0.8018,2.00937 0.53706,2.91701c-0.26475,0.90762 -0.69114,1.95511 -1.84415,2.46049c-1.15297,0.5054 -2.51108,-0.58674 -3.55124,-0.10031c-0.12824,0.05997 -0.73453,0.75185 -0.73453,0.75185c0,0 -1.03812,-1.36098 -1.40493,-2.37265c-0.36682,-1.01166 -0.5005,-2.16379 -0.5005,-2.16379c0,0 0.63056,1.14784 1.09561,1.90616z" fill="#78828a" stroke="#000000" stroke-width="0" stroke-linecap="butt"/><path d="M237.33202,177.06711c-0.03955,-0.2398 0.11065,-0.78926 0.93076,-1.03807c0.63376,-0.20253 1.76264,0.35893 2.722,0.20027c1.44144,-0.23836 1.54061,-2.09724 3.25334,-1.96984c1.37491,0.08084 1.33554,3.09042 -2.44092,3.97479c-0.90955,0.16366 -2.2315,0.04907 -3.03264,-0.19233c-0.97554,-0.29394 -1.3685,-0.58661 -1.43255,-0.97484z" fill="#111115" stroke="#000000" stroke-width="0" stroke-linecap="butt"/><path d="M235.46785,173.56541c0,0 -0.84228,-1.88555 -0.77684,-2.22663c0.09991,-0.52086 0.9568,-0.12763 0.9568,-0.12763" fill="#0d0a0e" stroke="#000000" stroke-width="0.125" stroke-linecap="round"/><path d="M235.87881,176.30779c0.01897,-0.14345 0.66957,0.01782 1.15441,0.07505c0.48481,0.05723 1.13822,-0.00311 1.18561,0.22567c0.07858,0.37939 -0.65433,0.5082 -1.19582,0.48333c-0.8575,-0.03939 -1.20636,-0.3137 -1.14418,-0.78404z" fill="#0d1114" stroke="none" stroke-width="0" stroke-linecap="butt"/><path d="M236.90158,176.35934c0.23379,-0.00466 0.42458,0.05474 0.42614,0.13267c0.00155,0.07793 -0.18673,0.1449 -0.42051,0.14954c-0.23379,0.00466 -0.42458,-0.05474 -0.42614,-0.13267c-0.00155,-0.07793 0.18673,-0.1449 0.42051,-0.14954z" fill="#78828a" stroke="none" stroke-width="0" stroke-linecap="butt"/><path d="M241.27791,167.53911c0,0 1.6532,-2.06293 2.36658,-2.02762c0.49718,0.02461 0.53766,3.05956 0.53766,3.05956c0,0 -0.17421,-0.405 -1.31399,-0.71435c-1.04199,-0.28282 -1.59024,-0.31758 -1.59024,-0.31758z" fill="#111115" stroke="none" stroke-width="0" stroke-linecap="butt"/><path d="M241.94156,178.18446c0.20094,-0.21847 0.3195,-0.21371 0.88888,0.35317c0.56939,0.56687 1.72344,2.35819 1.72344,2.35819l1.80299,2.67207l-0.90859,0.46952l-1.74852,-2.54121c0,0 -1.41888,-1.96109 -1.61787,-2.15923c-0.56939,-0.56687 -0.34126,-0.93405 -0.14031,-1.15251z" data-paper-data="{&quot;index&quot;:null}" fill="#111115" stroke="none" stroke-width="0" stroke-linecap="butt"/><g fill="#747875" stroke="none" stroke-width="0" stroke-linecap="butt"><g><path d="M245.6186,188.32533c-0.29507,-0.46164 -0.15163,-1.20307 -0.22628,-2.03708c-0.05568,-0.62224 0.45139,-1.19834 0.8581,-1.45829c0.86835,-0.55505 1.91376,-0.87868 2.4688,-0.01031c0.18317,0.28654 0.61335,0.8454 1.02595,1.37123c0.40705,0.5187 0.58998,0.95897 0.31531,1.1718c-0.35289,0.27345 -0.58587,0.03574 -0.58587,0.03574c0,0 0.04015,0.4047 -0.13195,0.53118c-0.17213,0.12648 -0.63909,0.03474 -0.63909,0.03474c0,0 -0.03557,0.37391 -0.24243,0.52959c-0.20687,0.15567 -0.50252,0.03298 -0.50252,0.03298c0,0 0.03495,0.35712 -0.23731,0.53614c-0.27223,0.17902 -0.54406,-0.10213 -0.54406,-0.10213c0,0 0.15029,0.25383 -0.02063,0.37826c-0.17091,0.12444 -0.04162,0.02686 -0.169,0.04263c-0.10494,0.013 -1.21372,-0.81345 -1.36901,-1.0564z"/></g><path d="M246.65617,184.97296c-0.32437,0.17473 -1.40476,0.80479 -1.57163,0.55971c-0.14086,-0.24791 -0.01028,-0.65159 -0.01028,-0.65159c0,0 -0.43638,0.05877 -0.53506,-0.19854c-0.12804,-0.33383 0.60255,-0.98038 1.04362,-1.25221c0.44109,-0.27183 1.02253,-0.45342 1.3027,-0.33339c0.70625,0.30256 0.3185,0.56206 0.3185,0.56206c0,0 0.42364,-0.24407 0.67154,0.36156c0.12215,0.29843 -0.85485,0.75608 -1.21939,0.95247z"/></g><path d="M243.7471,193.11484c-0.12521,-0.50249 0.14157,-1.09881 0.14157,-1.09881c0,0 -0.58455,-0.17061 -0.6524,-0.66289c-0.08801,-0.63868 1.02106,-1.27211 1.66247,-1.45585c0.6414,-0.18376 1.44489,-0.12958 1.78267,0.24446c0.85151,0.94288 0.28277,1.13881 0.28277,1.13881c0,0 0.61195,-0.14795 0.79209,1.02039c0.08875,0.57571 -1.06195,0.90878 -1.93804,1.08664c-0.87607,0.17787 -1.91124,0.2411 -2.07114,-0.27273z" fill="#747875" stroke="none" stroke-width="0" stroke-linecap="butt"/></g></g></svg>