<svg version="1.1" xmlns="http://www.w3.org/2000/svg" xmlns:xlink="http://www.w3.org/1999/xlink" width="25.31496" height="29.07455" viewBox="0,0,25.31496,29.07455"><g transform="translate(-227.4133,-165.46272)"><g data-paper-data="{&quot;isPaintingLayer&quot;:true}" fill-rule="nonzero" stroke="#000000" stroke-linejoin="miter" stroke-miterlimit="10" stroke-dasharray="" stroke-dashoffset="0" style="mix-blend-mode: normal"><path d="M244.99647,166.17156c3.29077,0.00009 7.29857,3.82811 7.68183,5.01533c0.24213,0.75007 -0.4251,10.26644 -1.36782,13.03985c-0.96189,2.82981 -12.04866,10.56241 -13.58698,10.30422c-0.57699,-0.09683 -7.07816,-1.9247 -8.73744,-3.0761c-0.66318,-0.46018 -1.57276,-11.57804 -1.57276,-11.57804l7.07682,2.27687l9.11856,-7.28407z" data-paper-data="{&quot;index&quot;:null}" fill="#000c2e" stroke-width="0" stroke-linecap="butt"/><path d="M231.83662,171.94656c1.9559,-2.96259 5.7933,-6.46589 5.7933,-6.46589c0,0 6.11083,-0.17995 7.02384,0.59971c0.9599,0.8197 0.69588,7.69016 0.27357,8.75403c-0.35742,0.90037 -7.7204,7.1801 -10.4866,8.02452c-2.7662,0.84442 -6.83909,-2.73563 -6.83909,-2.73563c0,0 2.27908,-5.21416 4.23498,-8.17674z" data-paper-data="{&quot;index&quot;:null}" fill="#002e53" stroke-width="0" stroke-linecap="butt"/><path d="M234.14286,177.71429c0,0 1.59154,1.68401 2.83742,1.00828c1.51186,-0.81999 3.4483,-2.72256 3.4483,-2.72256" fill="none" stroke-width="0.5" stroke-linecap="round"/><path d="M243.57143,167.71429c0,0 -2.40591,-1.14286 -3.42857,-1.14286c-0.97507,0 -2.57143,1.14286 -2.57143,1.14286" fill="none" stroke-width="0.5" stroke-linecap="round"/><path d="M235,189.14286c0,0 2.50627,1.36864 4.2637,0.79025c1.97828,-0.65108 7.02202,-4.50453 7.02202,-4.50453" fill="none" stroke-width="0.5" stroke-linecap="round"/></g></g></svg>