<svg version="1.1" xmlns="http://www.w3.org/2000/svg" xmlns:xlink="http://www.w3.org/1999/xlink" width="34.60833" height="36.03723" viewBox="0,0,34.60833,36.03723"><g transform="translate(-228.01016,-164.01909)"><g data-paper-data="{&quot;isPaintingLayer&quot;:true}" fill-rule="nonzero" stroke-miterlimit="10" stroke-dasharray="" stroke-dashoffset="0" style="mix-blend-mode: normal"><path d="M242.29268,177.10562c1.02483,0.5902 2.10488,1.44917 2.79434,2.04583c0.98575,0.85306 1.88873,1.58394 1.88873,1.58394c0,0 -0.17344,0.5152 -0.45973,0.66802c-0.28629,0.15282 -0.35714,0.23835 -0.35714,0.23835c0,0 -1.50307,-1.39951 -1.90075,-1.74365c-0.6523,-0.5645 -1.50828,-1.24612 -2.50316,-2.00487c-0.24928,-0.19013 -0.29465,-0.43054 -0.11116,-0.69267c0.12329,-0.17611 0.30953,-0.29037 0.64889,-0.09493z" data-paper-data="{&quot;index&quot;:null}" fill="#fff9fb" stroke="none" stroke-width="0" stroke-linecap="butt" stroke-linejoin="miter"/><g data-paper-data="{&quot;index&quot;:null}" stroke-width="0" stroke-linecap="butt" stroke-linejoin="miter"><g data-paper-data="{&quot;index&quot;:null}"><path d="M249.28288,169.87005c-1.0582,-0.13952 -1.80336,-1.10735 -1.66435,-2.16168c0.13903,-1.05433 1.10957,-1.79593 2.16779,-1.65641c1.0582,0.13952 1.80338,1.10735 1.66437,2.16168c-0.13903,1.05434 -1.10959,1.79593 -2.16781,1.65641z" fill="#e0cb17" stroke="none"/><path d="M249.36628,169.77933c-0.65377,-0.08621 -1.11413,-0.68412 -1.02824,-1.3355c0.08588,-0.65137 0.68548,-1.10953 1.33926,-1.02332c0.65377,0.08621 1.11413,0.68412 1.02824,1.3355c-0.08588,0.65136 -0.68548,1.10953 -1.33926,1.02332z" fill="#e0cb17" stroke="#000000"/><path d="M250.57662,172.46101c-0.47654,0.97957 -2.37719,3.71546 -2.37719,3.71546c0,0 -1.06286,-3.45116 -0.54371,-4.74653c0.50001,-1.24755 0.67846,-1.4288 0.67846,-1.4288l2.08321,0.28968c0,0 0.63578,1.19061 0.15923,2.17018z" fill="#e8edf4" stroke="#000000"/><path d="M249.31504,170.37258c-0.57881,-0.07895 -1.24873,-0.524 -1.24873,-0.524l0.34395,-0.4488c0,0 0.58926,0.41321 1.04287,0.44705c0.45363,0.03384 1.1296,-0.285 1.1296,-0.285l0.12687,0.70405c0,0 -0.88798,0.17578 -1.39455,0.10669z" fill="#dbded5" stroke="#000000"/></g><g data-paper-data="{&quot;index&quot;:null}" stroke="none"><path d="M243.08148,174.09776c-0.05458,0.414 -0.26054,0.72829 -0.45999,0.702c-0.19945,-0.02629 -0.31689,-0.38323 -0.2623,-0.79724c0.05459,-0.414 0.26052,-0.72829 0.45997,-0.702c0.19946,0.02629 0.31691,0.38323 0.26232,0.79724z" fill="#000000"/><path d="M240.73626,178.3465c0.20775,0.02739 0.69739,2.25789 0.69739,2.25789c0,0 -1.08469,0.19254 -1.29245,0.16515c-0.20775,-0.02739 -0.39892,-1.27054 -0.3749,-1.45271c0.02403,-0.18216 0.7622,-0.99773 0.96996,-0.97034z" fill="#807d5a"/><path d="M242.4168,174.54124l-0.05947,-0.32308l5.59626,-5.21084l0.11064,0.16713z" fill="#6e6e73"/><path d="M247.33594,169.43431l0.28887,0.36349l-1.34159,1.1959l-0.25878,-0.35952z" fill="#ddcb1e"/></g></g><g data-paper-data="{&quot;index&quot;:null}" stroke-width="0" stroke-linecap="butt" stroke-linejoin="miter"><g data-paper-data="{&quot;index&quot;:null}"><path d="M228.37812,166.16561c0.17833,-1.35254 1.42339,-2.30388 2.78092,-2.12489c1.35754,0.17899 2.31345,1.42055 2.13512,2.77308c-0.17833,1.35254 -1.42339,2.30387 -2.78092,2.12488c-1.35753,-0.17899 -2.31345,-1.42054 -2.13512,-2.77307z" fill="#e0cb17" stroke="none"/><path d="M230.44006,168.79859c-0.83868,-0.11057 -1.42926,-0.8776 -1.31907,-1.71321c0.11018,-0.83562 0.87939,-1.42334 1.71806,-1.31276c0.83869,0.11057 1.42926,0.87759 1.31907,1.7132c-0.11017,0.83561 -0.87938,1.42335 -1.71805,1.31277z" fill="#e0cb17" stroke="#000000"/><path d="M228.04876,171.7187c-0.2647,-1.37216 0.91892,-2.6359 0.91892,-2.6359l2.67741,0.33379c0,0 0.16084,0.2839 0.3655,1.99585c0.21251,1.77753 -2.11694,5.17899 -2.11694,5.17899c0,0 -1.58015,-3.50061 -1.84487,-4.87275z" fill="#e8edf4" stroke="#000000"/><path d="M230.30623,169.55062c-0.6506,-0.08285 -1.69233,-0.59589 -1.69233,-0.59589l0.39128,-0.83014c0,0 0.73149,0.61983 1.30477,0.72873c0.57328,0.10889 1.44075,-0.20715 1.44075,-0.20715l0.27692,0.67043c0,0 -0.97801,0.32869 -1.72138,0.23401z" fill="#dbded5" stroke="#000000"/></g><g data-paper-data="{&quot;index&quot;:null}" stroke="none"><path d="M235.78319,177.65326c0.25947,-0.39366 0.87396,-2.8003 2.14873,-2.59308c0.19786,0.03216 1.56128,1.52093 1.65703,2.58927c0.13024,1.45325 -1.04486,2.59849 -1.04486,2.59849l-3.08607,-0.42647c0,0 0.06569,-1.77457 0.32516,-2.16822z" fill="#e4dcaa"/><path d="M236.79097,176.23882c0.07003,-0.53111 0.3342,-0.93429 0.59008,-0.90055c0.25588,0.03375 0.40654,0.49164 0.33651,1.02274c-0.07003,0.5311 -0.33422,0.93429 -0.5901,0.90055c-0.25587,-0.03374 -0.40652,-0.49163 -0.33649,-1.02273z" fill="#000000"/><path d="M235.3235,182.00681c-0.03537,-0.85952 0.13297,-2.20009 0.13297,-2.20009c0,0 0.60664,-0.26824 0.98193,-0.32716c0.37529,-0.05892 0.98021,-0.03113 0.98021,-0.03113l1.11805,0.93907c0,0 -0.18594,2.98916 -0.22318,3.37021c-0.075,0.76743 -1.56569,1.15023 -1.56569,1.15023l-1.10742,-0.6329c0,0 -0.2815,-1.40867 -0.31688,-2.2682z" fill="#dfcc17"/><path d="M236.66912,184.84838c0,0 1.3483,-2.60077 1.61483,-2.56562c0.26654,0.03513 0.90995,1.29108 0.87913,1.52476c-0.03082,0.23369 -0.68103,1.71041 -0.94756,1.67526c-0.26654,-0.03514 -1.54642,-0.63437 -1.54642,-0.63437z" fill="#807d5a"/><path d="M232.25445,168.48207l0.19267,-0.17028l5.20106,8.31701l-0.18111,0.38051z" fill="#6e6e73"/><path d="M234.29638,170.96889l-0.44019,0.3594l-1.26459,-1.92779l0.47878,-0.35429z" fill="#ddcb1e"/></g></g><g data-paper-data="{&quot;index&quot;:null}" stroke="none" stroke-width="0" stroke-linecap="butt" stroke-linejoin="miter"><g><path d="M236.78583,192.16259c0,0 -0.23518,0.29601 -0.25064,0.7606c-0.01882,0.56602 0.36791,0.92746 0.50511,1.79903c0.29727,1.88847 -0.34279,3.50687 2.77752,4.5452c0.37782,0.03623 0.9952,-0.13859 0.9952,-0.13859c0,0 -0.00703,0.3279 -0.13191,0.50396c-0.12489,0.17607 -0.45187,0.319 -0.45187,0.319l-0.24454,-0.08765l-0.06327,0.1631c0,0 -0.17067,0.0393 -0.33826,0.02652c-0.16759,-0.01278 -0.36351,-0.03793 -0.42317,-0.07362c-0.07293,-0.04367 0.07602,-0.10281 -0.03352,-0.12746c-0.06758,-0.01521 -0.08563,-0.04916 -0.15015,-0.06293c-0.09906,-0.02112 -0.00286,0.12035 -0.10303,0.09072c-0.25862,-0.07647 -0.59694,-0.32055 -0.74676,-0.38693c-0.12497,-0.05539 -0.00346,-0.30004 -0.00346,-0.30004l-0.15774,-0.07096l-0.13945,0.11276c0,0 -0.32283,-0.38161 -0.43935,-0.48052c-0.36271,-0.30783 -0.11603,-0.47125 -0.11603,-0.47125l-0.12369,-0.19423l-0.16549,0.0682l-0.31383,-0.72678l0.08763,-0.18761c0,0 0.00651,-0.85558 -0.14655,-1.25089c-0.15351,-0.39645 -0.77311,-1.12443 -0.77311,-1.12443l-0.2217,0.10536l-0.24999,-0.7447l0.23966,-0.29171c0,0 -0.27663,0.01853 -0.28474,-0.10613c-0.08719,-1.34157 1.46709,-1.66806 1.46709,-1.66806z" data-paper-data="{&quot;index&quot;:null}" fill="#a87643"/><path d="M239.50837,194.33686c-0.42254,1.7324 -1.64915,2.15087 -1.64915,2.15087c0,0 -1.43461,-2.64494 -1.41651,-3.56837c0.01351,-0.68868 1.16282,-1.4791 1.16282,-1.4791c0,0 0.3638,-1.20229 0.46302,-1.59818c0.09921,-0.39588 0.33382,-1.04893 0.33382,-1.04893c0,0 1.6886,0.64559 1.96665,0.93531c0.20675,0.23276 -0.6187,3.6164 -0.86066,4.60841z" data-paper-data="{&quot;index&quot;:null}" fill="#f3e2e2"/><path d="M239.92284,188.93626c0.155,-0.08634 0.89523,0.0696 1.52754,0.54802c0.18944,0.14331 -0.30769,1.34812 -0.55148,2.93166c-0.13611,0.88405 -0.1284,2.2517 -0.15911,3.0595c-0.03301,0.86816 0.5991,1.84626 0.5842,2.04142c-0.05358,0.70208 -0.50654,1.65779 -0.52182,1.66381c-0.00852,0.00336 -1.03292,0.62141 -2.29816,-0.21956c-1.6784,-1.11562 -1.5105,-4.33452 -1.5105,-4.33452c0,0 0.66533,-0.44369 0.75375,0.12412c0.09541,0.70701 0.01864,0.55142 0.04443,1.08055c-0.00646,0.19886 0.01331,0.50218 0.04892,0.50364c0.36361,0.01501 1.30008,-1.09379 1.52491,-1.70363c0.18224,-0.49431 0.40134,-1.50707 0.5474,-2.39418c0.12828,-0.77913 0.35794,-1.51121 0.45934,-2.01306c0.06162,-0.30504 -0.05021,-0.54285 -0.05021,-0.54285c0,0 -0.64844,-0.60607 -0.39918,-0.74492z" data-paper-data="{&quot;index&quot;:null}" fill="#fc6293"/><path d="M240.60808,195.04589c0,0 -0.00295,-1.35734 0.16995,-2.24443c0.22808,-1.17031 0.5828,-2.59555 0.62893,-2.99179c0.02321,-0.19932 -0.27632,-0.4538 -0.27632,-0.4538l0.12712,-0.05013c0,0 0.35318,0.24397 0.29458,0.49404c-0.33686,1.43739 -0.57214,2.23852 -0.63887,3.1057c-0.04822,0.62647 -0.17741,2.77543 -0.17741,2.77543z" data-paper-data="{&quot;index&quot;:null}" fill="#766565"/><path d="M238.36472,192.77903l0.27891,-1.14802l0.61728,0.16025l-0.33384,1.1697z" data-paper-data="{&quot;index&quot;:null}" fill="#fffff6"/><path d="M238.66408,190.94691l0.23348,-0.93481l0.54949,0.15877l-0.19035,0.99903z" data-paper-data="{&quot;index&quot;:null}" fill="#fffff6"/><path d="M241.18494,191.18044c0,0 -0.25025,0.11085 -0.73363,0.13297c-0.48338,0.02212 -1.19662,-0.15033 -1.19662,-0.15033l0.20443,-0.99466c0,0 0.49571,0.19219 0.91586,0.22067c0.42015,0.02848 1.07564,-0.08567 1.07564,-0.08567l-0.26568,0.87701z" data-paper-data="{&quot;index&quot;:null}" fill="#754c86"/><path d="M239.8667,193.18988c-0.40189,-0.05595 -0.97137,-0.221 -0.97137,-0.221l0.31698,-1.1824c0,0 0.40688,0.11627 0.79289,0.13223c0.386,0.01595 1.04535,-0.06419 1.04535,-0.06419c0,0 -0.07083,0.47172 -0.10247,0.72325c-0.03164,0.25153 -0.06977,0.64584 -0.06977,0.64584c0,0 -0.60972,0.02222 -1.01162,-0.03372z" data-paper-data="{&quot;index&quot;:null}" fill="#754c86"/><path d="M238.41834,188.80504c0,0 0.34796,-0.10524 0.56426,-0.0914c0.13092,0.00838 0.45368,0.07871 0.80336,0.11837c0.3497,0.03966 0.43089,0.10374 0.43089,0.10374l-1.63943,-0.05202z" data-paper-data="{&quot;index&quot;:null}" fill="#ae8484"/><path d="M241.06229,189.52059c-0.03268,0.14601 -0.17932,0.22513 -0.55695,0.15929c-0.37762,-0.06584 -0.26662,-0.10551 -0.94496,-0.37803c-0.33359,-0.12853 -0.9683,-0.40919 -0.9683,-0.40919c0,0 0.49032,-0.15958 1.32565,0.02742c0.83535,0.187 1.19234,0.39531 1.14843,0.59155z" data-paper-data="{&quot;index&quot;:null}" fill="#532c31"/></g><path d="M239.11521,188.7578c0,0 -0.37272,-0.69345 -0.13784,-0.99055c0.2349,-0.29709 0.58723,-0.13648 0.83334,0.12304c0.2461,0.25951 0.22763,0.99571 0.22763,0.99571z" fill="#f3e2e2"/></g><g data-paper-data="{&quot;index&quot;:null}" stroke="none" stroke-width="0" stroke-linecap="butt" stroke-linejoin="miter"><path d="M241.25597,184.11789l-0.44785,3.72032l-0.26645,1.91051l-1.1313,-0.42985l0.16197,-2.09534l0.45788,-3.43287z" data-paper-data="{&quot;index&quot;:null}" fill="#8e5173"/><path d="M240.8839,187.08003l-0.07576,0.75819l-0.26645,1.91051l-1.1313,-0.42985l0.16197,-2.09534l0.07003,-0.4913z" data-paper-data="{&quot;index&quot;:null}" fill="#c5c0b5"/><path d="M239.60062,186.9874l0.04988,-0.25457l1.24409,0.34359l-0.03596,0.27272z" fill="#af2753"/><path d="M239.53717,187.46869l0.04988,-0.25457l1.24409,0.34359l-0.03596,0.27272z" fill="#af2753"/></g><path d="M240.25339,182.23316c0,0 -1.58014,1.42194 -2.38987,1.57171c-0.87989,0.16274 -3.05524,-0.27909 -3.05524,-0.27909l2.77882,-0.62732l1.3442,-0.5042z" data-paper-data="{&quot;index&quot;:null}" fill="#f79db4" stroke="none" stroke-width="0" stroke-linecap="butt" stroke-linejoin="miter"/><path d="M249.92922,182.85732c0.09757,0.09409 0.26071,1.13298 0.26433,1.60717c0.00197,0.25898 0.00879,0.74147 -0.39175,0.91157c-0.10209,0.04337 -0.6401,-0.01316 -0.6401,-0.01316l-0.20756,0.36456c0,0 -0.23025,0.09707 -0.38014,0.07635c-0.14988,-0.02072 -0.39263,-0.16385 -0.39263,-0.16385c0,0 -0.1551,0.07368 -0.25326,0.14783c-0.32036,0.24204 -0.5727,-0.03742 -0.5727,-0.03742c0,0 -0.2123,0.20218 -0.42247,0.23313c-0.33319,0.04908 -0.74494,-0.08067 -0.93339,-0.21978c-0.32012,-0.2363 -1.03199,-1.08692 -0.88425,-1.42673c0.23009,-0.52924 0.84444,-0.17167 0.84444,-0.17167c0,0 -0.29783,-0.52365 -0.29006,-0.88821c0.01196,-0.56136 0.24713,-0.83898 0.24713,-0.83898l2.24194,-1.00065c0,0 1.15812,0.82919 1.77046,1.41986z" data-paper-data="{&quot;index&quot;:null}" fill="#ffffff" stroke="none" stroke-width="0" stroke-linecap="butt" stroke-linejoin="miter"/><g data-paper-data="{&quot;index&quot;:null}" stroke="none" stroke-width="0" stroke-linecap="butt" stroke-linejoin="miter"><path d="M236.39928,188.08451c0,0 -0.4284,-0.66048 -0.21872,-0.97586c0.20969,-0.31538 0.57404,-0.18425 0.84063,0.05418c0.26661,0.23844 0.30866,0.97366 0.30866,0.97366z" fill="#fc6293"/><g><path d="M234.26095,191.2929c0,0 -0.2876,0.27414 -0.37079,0.75554c-0.10136,0.5865 0.24897,1.01861 0.26588,1.94569c0.03662,2.00877 -0.8635,3.60097 2.2346,5.13265c0.38805,0.09231 1.05597,-0.00048 1.05597,-0.00048c0,0 -0.05468,0.3403 -0.21011,0.50553c-0.15544,0.16523 -0.51645,0.26678 -0.51645,0.26678l-0.24189,-0.12656l-0.08943,0.16063c0,0 -0.18331,0.01627 -0.35593,-0.02125c-0.17263,-0.03751 -0.37294,-0.092 -0.42988,-0.13778c-0.06964,-0.05596 0.09396,-0.09603 -0.01649,-0.1375c-0.06817,-0.02561 -0.08203,-0.06356 -0.14721,-0.08719c-0.10007,-0.03629 -0.02036,0.12487 -0.12037,0.07956c-0.25817,-0.11698 -0.57509,-0.41991 -0.72144,-0.51067c-0.12208,-0.0757 0.03975,-0.31282 0.03975,-0.31282l-0.15394,-0.09665l-0.16143,0.09723c0,0 -0.28091,-0.44387 -0.38792,-0.56367c-0.33309,-0.37284 -0.05269,-0.50731 -0.05269,-0.50731l-0.1007,-0.22006l-0.18211,0.04708l-0.22169,-0.8019l0.11833,-0.18262c0,0 0.13038,-0.88967 0.02818,-1.32329c-0.1025,-0.43486 -0.64231,-1.28218 -0.64231,-1.28218l-0.24599,0.07765l-0.15263,-0.81132l0.29164,-0.26901c0,0 -0.29064,-0.02067 -0.28107,-0.1516c0.10306,-1.40909 1.76816,-1.5244 1.76816,-1.5244z" data-paper-data="{&quot;index&quot;:null}" fill="#a87643"/><path d="M236.78095,193.94969c-0.69014,1.74232 -2.02745,2.0007 -2.02745,2.0007c0,0 -1.11121,-2.96054 -0.95894,-3.91919c0.11356,-0.71493 1.42413,-1.37166 1.42413,-1.37166c0,0 0.55241,-1.19897 0.71288,-1.59674c0.16047,-0.39776 0.49904,-1.04366 0.49904,-1.04366c0,0 1.66448,0.91601 1.91205,1.25776c0.18159,0.27216 -1.16653,3.67511 -1.56172,4.67281z" data-paper-data="{&quot;index&quot;:null}" fill="#fc6293"/><path d="M239.50352,189.17897c0.17648,0.17654 -0.51506,1.3589 -0.99764,2.97206c-0.26941,0.90059 -0.45899,2.32537 -0.60767,3.16181c-0.15979,0.89894 0.35689,2.00841 0.31319,2.20943c-0.15721,0.72308 -0.76682,1.65248 -0.78359,1.65655c-0.00936,0.00228 -1.16502,0.49763 -2.36056,-0.56059c-1.58598,-1.40382 -0.94612,-4.73029 -0.94612,-4.73029c0,0 0.7567,-0.36575 0.76669,0.2381c-0.00284,0.74975 -0.06029,0.57669 -0.10988,1.13122c-0.03545,0.20607 -0.05869,0.52468 -0.02185,0.53134c0.37634,0.06816 1.51177,-0.93937 1.83392,-1.5417c0.26111,-0.48824 0.63512,-1.5222 0.91532,-2.42454c0.24611,-0.79251 0.59095,-1.52138 0.769,-2.02914c0.10822,-0.30863 0.02616,-0.57233 0.02616,-0.57233c0,0 -0.58742,-0.72458 -0.30789,-0.8331c0.17382,-0.06747 0.92184,0.20181 1.51092,0.79118z" data-paper-data="{&quot;index&quot;:null}" fill="#f3e2e2"/><path d="M237.82312,194.84666c0,0 0.19304,-1.41335 0.50118,-2.31179c0.40653,-1.18528 0.98169,-2.61764 1.08696,-3.02345c0.05296,-0.20415 -0.22206,-0.51232 -0.22206,-0.51232l0.13957,-0.03382c0,0 0.33241,0.30499 0.23527,0.55683c-0.55833,1.44757 -0.91899,2.24753 -1.11375,3.14058c-0.14069,0.64515 -0.58566,2.86346 -0.58566,2.86346z" data-paper-data="{&quot;index&quot;:null}" fill="#bfa4a4"/><path d="M235.81548,192.16282l0.4562,-1.15475l0.61942,0.25599l-0.5165,1.16938z" data-paper-data="{&quot;index&quot;:null}" fill="#fffff6"/><path d="M236.3918,190.29889l0.3781,-0.93936l0.54906,0.24465l-0.34248,1.01246z" data-paper-data="{&quot;index&quot;:null}" fill="#fffff6"/><path d="M238.98213,190.90622c0,0 -0.27651,0.07922 -0.78289,0.03242c-0.50637,-0.04683 -1.22391,-0.32938 -1.22391,-0.32938l0.35651,-1.00584c0,0 0.48824,0.27168 0.92148,0.36203c0.43325,0.09036 1.13206,0.06622 1.13206,0.06622z" data-paper-data="{&quot;index&quot;:null}" fill="#754c86"/><path d="M238.36779,192.98875c0,0 -0.63792,-0.06494 -1.04818,-0.18125c-0.41028,-0.11631 -0.97922,-0.37039 -0.97922,-0.37039l0.50079,-1.18503c0,0 0.40675,0.17982 0.80626,0.2522c0.39951,0.07237 1.09744,0.08421 1.09744,0.08421c0,0 -0.14188,0.48081 -0.21115,0.73807c-0.06928,0.25728 -0.16594,0.66221 -0.16594,0.66221z" data-paper-data="{&quot;index&quot;:null}" fill="#754c86"/><path d="M236.44544,188.03381c0,0 0.37743,-0.05927 0.60058,-0.01363c0.13506,0.02764 0.46088,0.14748 0.81916,0.23928c0.35828,0.09181 0.43354,0.17026 0.43354,0.17026l-1.69904,-0.29101z" data-paper-data="{&quot;index&quot;:null}" fill="#ae8484"/><path d="M239.09433,189.16064c-0.05511,0.14728 -0.21918,0.20844 -0.60276,0.08535c-0.38359,-0.12311 -0.26229,-0.14835 -0.92906,-0.53004c-0.32869,-0.18196 -0.94884,-0.56583 -0.94884,-0.56583c0,0 0.53346,-0.09526 1.37598,0.22008c0.84253,0.31535 1.18405,0.58378 1.10998,0.78171z" data-paper-data="{&quot;index&quot;:null}" fill="#532c31"/></g></g><g data-paper-data="{&quot;index&quot;:null}" stroke="none" stroke-width="0" stroke-linecap="butt" stroke-linejoin="miter"><path d="M240.09951,183.90031l-1.14197,3.97998l-0.42405,1.43908l-1.26028,-0.7673l0.3724,-1.12925l1.12192,-3.60638z" data-paper-data="{&quot;index&quot;:null}" fill="#8e5173"/><path d="M239.29496,186.63914l-0.33748,1.24114l-0.42405,1.43908l-1.26028,-0.7673l0.3724,-1.12925l0.38108,-1.21013z" data-paper-data="{&quot;index&quot;:null}" fill="#a71e48"/><path d="M239.29497,186.63915l-0.06681,0.25834l-1.26839,-0.45827l0.06686,-0.22654z" data-paper-data="{&quot;index&quot;:null}" fill="#a19589"/><path d="M239.15132,187.10985l-0.06681,0.25834l-1.26839,-0.45826l0.06686,-0.22655z" data-paper-data="{&quot;index&quot;:null}" fill="#a19589"/></g><g data-paper-data="{&quot;index&quot;:null}" stroke="none" stroke-width="0" stroke-linecap="butt" stroke-linejoin="miter"><path d="M245.1522,181.77404c-0.32696,-1.01328 0.32017,-1.35141 1.14686,-1.6037c0.82669,-0.25227 1.5361,-0.32814 1.84685,0.69011c0.31073,1.01823 -0.32016,1.35141 -1.14685,1.6037c-0.8267,0.25227 -1.51996,0.32293 -1.84686,-0.69011z" fill="#fed000"/><path d="M244.69879,181.91241c-0.27474,-0.82446 0.58753,-1.20239 1.66464,-1.53109c1.07711,-0.3287 1.98232,-0.49016 2.2359,0.34075c0.25358,0.83091 -0.58753,1.20239 -1.66464,1.53109c-1.07711,0.3287 -1.96123,0.48351 -2.2359,-0.34075z" fill="#e68b9c"/></g><path d="M244.12495,183.76061c0,0 -1.89391,0.98047 -4.04906,0.77753c-2.54843,-0.41697 -4.42076,-1.67861 -4.42076,-1.67861l0.29684,-0.34142c0,0 1.50446,1.40245 4.14385,1.68717c2.27509,0.20787 3.87947,-0.84984 3.87947,-0.84984z" data-paper-data="{&quot;index&quot;:null}" fill="#ee3377" stroke="none" stroke-width="0" stroke-linecap="butt" stroke-linejoin="miter"/><path d="M242.42723,179.96042l1.56846,3.46832c0,0 -2.4577,1.1911 -4.39883,0.77692c-2.5256,-0.57669 -3.688,-1.61177 -3.688,-1.61177l1.54611,-1.61493l1.45917,-1.51175z" data-paper-data="{&quot;index&quot;:null}" fill="#fcf4f4" stroke="none" stroke-width="0" stroke-linecap="butt" stroke-linejoin="miter"/><path d="M243.83005,183.09402c0,0 -1.4255,1.03952 -3.58064,0.83658c-2.99324,-0.49028 -4.05357,-1.63019 -4.05357,-1.63019l0.10291,-0.11015c0,0 1.33961,1.30198 3.979,1.5867c2.37952,0.21892 3.48335,-0.83529 3.48335,-0.83529z" data-paper-data="{&quot;index&quot;:null}" fill="#ee3377" stroke="none" stroke-width="0" stroke-linecap="butt" stroke-linejoin="miter"/><g data-paper-data="{&quot;index&quot;:null}" stroke="none" stroke-width="0" stroke-linecap="butt" stroke-linejoin="miter"><path d="M243.06199,184.72149l-1.33274,-4.96836l0.57484,0.03938l2.55952,4.04629c0,0 -0.52573,0.60796 -1.45706,0.82827c-0.22732,0.05378 -0.34455,0.05442 -0.34455,0.05442z" fill="#fab5b7"/><path d="M243.66401,184.60142c0.6681,-0.17742 1.2079,-0.81703 1.2079,-0.81703l0.1276,0.39169c0,0 -0.58765,0.69445 -1.26959,0.88078c-0.7607,0.20784 -0.59093,0.10579 -0.59093,0.10579l-0.08025,-0.39678c0,0 -0.13796,0.03292 0.60528,-0.16445z" fill="#fed000"/></g><path d="M239.62089,180.18934l0.45734,-0.52891l1.57338,0.09207l0.32077,0.53537z" data-paper-data="{&quot;index&quot;:null}" fill="#aa4455" stroke="none" stroke-width="0" stroke-linecap="butt" stroke-linejoin="miter"/><g data-paper-data="{&quot;index&quot;:null}" stroke-width="0" stroke-linecap="butt" stroke-linejoin="miter"><path d="M261.36306,183.33666l-9.04303,-0.86072c0,0 -1.10298,-2.70987 0.42991,-3.96211c1.45275,-1.18675 2.79618,-1.75094 4.79814,-1.6673c5.21369,0.21784 5.07002,4.88833 5.07002,4.88833z" fill="#ffff00" stroke="none"/><path d="M261.70748,182.92999c0,0 0.02383,-0.64748 -0.14409,-1.31477c-0.11237,-0.44655 -0.4494,-0.90187 -0.38845,-1.10444c0.12256,-0.40742 0.27692,-0.07324 0.62385,0.69213c0.16177,0.35688 0.24318,1.31627 0.24318,1.31627l-0.3345,0.4108z" fill="#a58c48" stroke="#000000"/><path d="M259.32608,178.7566c-0.01286,0.18774 -1.03293,-0.25162 -1.92757,-0.31291c-0.89465,-0.0613 -2.37714,0.56693 -2.4004,0.13693c-0.02549,-0.47088 1.49723,-0.6541 2.39331,-0.61963c1.33737,0.05145 1.94753,0.60785 1.93467,0.79562z" fill="#a58c48" stroke="#000000"/><path d="M252.32663,181.79325l-0.17533,-0.37368c0,0 0.07349,-0.61162 0.26469,-1.01305c0.17168,-0.36041 0.52843,-0.3533 0.58846,-0.29481c0.17053,0.16621 -0.23256,0.42022 -0.4178,0.82531c-0.20012,0.43765 -0.26,0.85622 -0.26,0.85622z" fill="#a58c48" stroke="#000000"/><path d="M256.84038,183.95106c3.56787,0.34023 4.37217,2.41958 4.37217,2.41958c0,0 0.06663,-0.21021 0.02655,0.38478c-0.0401,0.59501 -0.07032,0.30519 -0.07032,0.30519c0,0 -1.25565,-1.78167 -3.37933,-2.36138c-3.37968,-0.92255 -5.75597,1.37378 -5.75597,1.37378l0.12195,-0.58215c0,0 2.14221,-1.7823 4.68493,-1.53982z" fill="#edeee6" stroke="none"/><path d="M252.20322,182.05502c0,0 2.18273,-2.7427 4.98516,-2.36276c3.55153,0.48152 4.38153,3.36596 4.38153,3.36596l-0.20512,0.27192c0,0 -1.19545,-2.0419 -3.27512,-2.66552c-3.30961,-0.99243 -5.79307,1.7767 -5.79307,1.7767l-0.09337,-0.38629z" fill="#edeee6" stroke="none"/><path d="M257.10446,180.10271c3.58329,0.3413 4.33661,3.51076 4.33661,3.51076c0,0 0.05702,0.94302 0.01695,1.53801c-0.04008,0.59503 -0.22236,1.51183 -0.22236,1.51183c0,0 -1.26156,-1.78208 -3.39455,-2.36241c-3.39444,-0.92354 -5.78025,1.37212 -5.78025,1.37212l0.22341,-3.32644c0,0 2.2665,-2.48708 4.82021,-2.24384z" fill="#754c86" stroke="none"/><path d="M254.93177,187.27621c-1.33645,-0.09154 -4.06215,1.46867 -4.06215,1.46867c0,0 -0.18233,-0.76818 0.17477,-1.58044c0.55865,-1.27076 1.98862,-2.83411 5.04739,-2.74226c5.83297,0.17512 6.03843,5.41681 6.03843,5.41681c0,0 -5.86197,-2.4712 -7.19843,-2.56277z" fill="#ffff00" stroke="none"/><path d="M256.64717,185.3041c-0.69583,-0.04766 -2.40845,0.15602 -2.26535,-0.07483c0.21174,-0.34155 1.56426,-0.47767 2.25823,-0.40786c1.25307,0.12605 2.02362,0.67066 2.01604,0.7811c-0.00758,0.11045 -1.11311,-0.237 -2.00893,-0.29839z" fill="#a58c48" stroke="#000000"/><path d="M261.60156,187.77339c0,0 -1.1817,-1.01749 -1.23771,-1.29037c-0.08729,-0.42522 1.01335,0.7526 1.01335,0.7526l0.22436,0.53778z" fill="#a58c48" stroke="#000000"/><path d="M252.85537,185.80783c-0.02573,0.37555 -1.70567,1.27551 -1.70567,1.27551l0.39466,-0.73539c0,0 1.33672,-0.91565 1.31099,-0.54011z" fill="#a58c48" stroke="#000000"/><path d="M256.55991,192.95242c-3.2164,-0.26056 -5.87463,-1.86507 -5.70999,-4.26807c0.11804,-1.72304 3.14603,-2.79835 6.00246,-2.56246c2.73629,0.22598 5.37027,1.97223 5.25222,3.69526c-0.11805,1.72302 -2.80631,3.3317 -5.54294,3.11z" fill="#ffff00" stroke="#000000"/><path d="M260.75539,191.41884c-0.07113,1.03823 -2.10758,1.74433 -4.54854,1.57707c-2.44097,-0.16726 -4.36209,-1.14449 -4.29095,-2.18273c0.07113,-1.03823 2.10759,-1.74432 4.54855,-1.57706c2.44096,0.16725 4.36207,1.14447 4.29093,2.18271z" fill="#ffff00" stroke="#000000"/><path d="M249.96624,185.58777l-4.17128,-0.00936l-7.06615,-0.04308c0,0 -0.43889,-0.33305 -0.43421,-0.56582c0.0047,-0.23277 0.32887,-0.75324 0.32887,-0.75324l7.01523,-0.36974l4.29402,-0.28019c0,0 -0.15797,0.62563 -0.15122,1.03304c0.00675,0.40741 0.18472,0.98843 0.18472,0.98843z" fill="#fbdd00" stroke="none"/><path d="M252.03112,185.86338c0,0 -1.8307,0.00253 -1.91369,-0.06887c-0.31503,-0.27103 -0.43111,-1.99362 -0.09159,-2.47001c0.20045,-0.28129 2.73157,-0.4222 2.73157,-0.4222l-0.46748,2.71056z" fill="#c8c8c6" stroke="none"/><path d="M262.59183,181.53214c0,0 0.0305,-2.41517 -2.03842,-3.77578c-0.50186,-0.33005 -1.29716,-0.52717 -2.0501,-0.69459c-1.11932,-0.24889 -2.47245,-0.24485 -3.55293,0.17988c-1.33499,0.52478 -2.42556,1.60607 -2.42556,1.60607c0,0 2.18609,-3.06917 5.47342,-2.41238c4.87215,0.9734 4.5936,5.09681 4.5936,5.09681z" fill="#ffff00" stroke="#000000"/><path d="M238.72873,185.53533c0,0 -0.43889,-0.33305 -0.43421,-0.56582c0.0047,-0.23276 0.32886,-0.75324 0.32886,-0.75324l3.00993,-0.17376c0,0 0.09251,0.3213 0.09926,0.72871c0.00675,0.4074 -0.07701,0.78679 -0.07701,0.78679z" fill="#a56402" stroke="none"/></g><g data-paper-data="{&quot;index&quot;:null}" stroke="none" stroke-width="0" stroke-linecap="butt" stroke-linejoin="miter"><g data-paper-data="{&quot;index&quot;:null}"><path d="M249.8139,167.69768c0,0 -0.24646,0.38763 -1.16554,1.06358c-1.83242,1.34766 -2.91096,0.75062 -2.91096,0.75062c0,0 0.01253,-0.89525 0.97627,-1.45291c0.98751,-0.57141 3.10024,-0.36131 3.10024,-0.36131z" data-paper-data="{&quot;index&quot;:null}" fill="#ce204f"/><path d="M247.80476,167.80968c-1.13693,0.09508 -2.05427,1.64065 -2.05427,1.64065c0,0 -0.52773,-1.82749 1.73456,-2.06406c1.13473,-0.11865 2.3607,0.32381 2.3607,0.32381c0,0 -0.90405,0.00453 -2.04099,0.09961z" fill="#ff4488"/></g><g data-paper-data="{&quot;index&quot;:null}"><path d="M245.74271,169.64053c0,0 1.0605,-0.06053 1.66266,0.19264c1.19196,0.5012 1.70242,2.08463 1.70242,2.08463c0,0 -1.29748,-0.34033 -2.12156,-0.58072c-1.12457,-0.32807 -1.24351,-1.69656 -1.24351,-1.69656z" fill="#f5e4ec"/><path d="M247.38322,169.96928c0.9933,0.41765 1.4187,1.73719 1.4187,1.73719c0,0 -1.08125,-0.28359 -1.76798,-0.48392c-0.93716,-0.27339 -1.03626,-1.41381 -1.03626,-1.41381c0,0 0.88375,-0.05046 1.38555,0.16054z" fill="#e2c1c1"/></g></g><path d="M241.70453,170.60341c0,0 -0.92316,-0.97075 -1.90796,-0.7914c-1.59177,0.2899 -1.50606,2.34401 -1.50606,2.34401c0,0 -0.21172,-1.38327 0.5747,-2.06369c0.51915,-0.44919 0.85548,-0.60446 1.54385,-0.43189c0.77137,0.19337 1.29547,0.94295 1.29547,0.94295z" data-paper-data="{&quot;index&quot;:null}" fill="#000000" stroke="none" stroke-width="0" stroke-linecap="butt" stroke-linejoin="miter"/><path d="M241.26791,165.58354c3.30954,0.43637 5.68736,3.10394 5.31102,5.9582c-0.37635,2.85425 -3.36435,4.81432 -6.67388,4.37794c-3.30953,-0.43637 -5.68735,-3.10393 -5.31101,-5.95819c0.37634,-2.85425 3.36434,-4.81434 6.67387,-4.37796z" data-paper-data="{&quot;index&quot;:null}" fill="#f79eb4" stroke="none" stroke-width="0" stroke-linecap="butt" stroke-linejoin="miter"/><path d="M246.15271,173.24633c0.00832,-0.01516 -0.10073,1.04014 -1.02496,2.27386c-1.48395,1.99245 -2.95858,1.85623 -2.95858,1.85623l0.39929,-0.86639c0,0 1.76421,-1.50658 2.25213,-2.09529c0.48791,-0.58871 0.83645,-1.72089 0.83616,-1.72022" data-paper-data="{&quot;index&quot;:null}" fill="#f79eb4" stroke="#f89db5" stroke-width="0" stroke-linecap="butt" stroke-linejoin="round"/><g data-paper-data="{&quot;index&quot;:null}" fill="#ffd5c5" stroke="none" stroke-width="1" stroke-linecap="round" stroke-linejoin="round"><path d="M244.42906,174.94864c0.04677,0.54544 -0.46676,0.94218 -0.89915,1.19567c-0.07075,0.04145 -0.62482,0.36396 -1.4877,0.53167c-1.08272,0.21042 -2.42563,-0.16643 -2.81267,-0.2647c-0.46157,-0.11724 -1.22703,-0.7508 -1.34043,-0.91046c-0.81614,-1.14915 -0.03863,-1.55009 0.07207,-1.61465c0.0528,-0.03077 0.33425,-0.09554 0.63562,0.05345c0.29375,0.14522 1.07362,0.7213 1.36477,0.74713c0.31281,0.02776 2.12018,-0.32928 3.01954,-0.20951c0.18666,0.02686 0.4245,0.12176 0.55936,0.25922c0.17548,0.17895 0.42976,0.51085 0.72652,0.29218c0.04801,-0.03542 0.15694,-0.13947 0.16207,-0.08002z"/><path d=""/></g><g data-paper-data="{&quot;index&quot;:null}" fill="#000000" stroke="none" stroke-width="1" stroke-linecap="round" stroke-linejoin="round"><path d="M242.77947,174.74434c0.16209,-0.08761 0.67892,0.03956 0.76064,0.11781c0.14136,0.13537 -0.26611,0.33055 -0.37414,0.30889c-0.2324,-0.06649 -0.59974,-0.31141 -0.3865,-0.4267z"/><path d=""/></g><path d="M238.21175,171.41977c0.02721,-0.04989 -0.34673,1.86639 -0.44027,2.74214c-0.17611,1.64917 0.06914,2.71873 0.06914,2.71873c0,0 -0.32403,-0.27916 -0.39966,-0.36126c-0.23364,-0.25357 -0.4367,-0.50105 -0.62533,-0.7932c-0.44363,-0.68719 -0.70066,-1.47436 -0.81791,-2.28109c-0.07812,-0.53764 0.06248,-2.82826 0.08691,-2.83891" data-paper-data="{&quot;index&quot;:null}" fill="#f79eb4" stroke="#f89db5" stroke-width="0" stroke-linecap="butt" stroke-linejoin="round"/><path d="M235.99497,170.56259c-0.01643,0.01262 -0.09017,2.82797 -0.04668,3.61864c0.04347,0.79067 0.35554,1.99763 0.35554,1.99763c0,0 -0.39946,-0.11668 -0.8741,-0.81575c-0.4191,-0.6173 -0.65898,-0.93371 -0.80415,-2.00909c-0.18837,-1.39541 -0.0462,-3.25918 0.17896,-3.59207" data-paper-data="{&quot;index&quot;:null}" fill="#f79eb4" stroke="#f89db5" stroke-width="0" stroke-linecap="butt" stroke-linejoin="round"/><g data-paper-data="{&quot;index&quot;:null}" fill="#ff4488" stroke="none" stroke-width="1" stroke-linecap="round" stroke-linejoin="round"><path d="M244.67855,168.54935c-0.07854,-0.06677 -2.0848,-1.73423 -3.69215,-1.66861c-1.26686,0.05171 -1.98819,0.47935 -3.23328,1.21533c-0.96023,0.56756 -1.70385,2.05237 -1.73863,2.0568c-0.00249,0.00032 0.86728,-4.02425 4.31076,-4.1804c2.78181,-0.09494 4.7386,1.96819 4.81442,2.0972"/><path d=""/></g><g data-paper-data="{&quot;index&quot;:null}" stroke="none" stroke-width="1" stroke-linecap="round" stroke-linejoin="round"><g fill="#f79eb4"><path d="M237.45176,168.56725c0.02459,-0.35868 -0.05867,-0.99417 0.02713,-1.66502c0.08581,-0.67085 0.25656,-1.52335 0.40072,-1.68022c0.18847,-0.20507 0.92016,0.114 1.64762,0.58323c0.72745,0.46925 1.58615,1.36159 1.61026,1.51824"/></g><g fill="#ffd5c5"><path d="M238.07045,168.21566c0.00065,-0.08551 -0.06282,-0.49056 -0.01208,-0.98849c0.05073,-0.49793 0.21788,-1.23626 0.24111,-1.25915c0.09423,-0.09279 0.90595,0.30142 1.29868,0.56376c0.39274,0.26234 0.76365,0.6937 0.84153,0.8659"/></g></g><g data-paper-data="{&quot;index&quot;:null}" fill="#f79eb4" stroke="none" stroke-width="1" stroke-linecap="round" stroke-linejoin="round"><path d="M244.65076,167.24563c0.30403,-0.04909 0.62346,-0.07727 1.28795,-0.03528c0.66449,0.04197 1.49222,0.08392 1.68496,0.22306c0.03947,0.02851 0.0711,0.68266 -0.08011,1.16923c-0.236,0.75952 -0.80126,1.52081 -0.81137,1.53242"/><path d=""/></g><path d="M246.63965,172.99693c-0.41371,0.15722 -0.91821,0.13569 -0.91821,0.13569l0.09685,-0.33433c0,0 0.26732,0.10736 0.71938,0.00011c0.45207,-0.10725 1.08479,-0.47942 1.08479,-0.47942c0,0 -0.56911,0.52072 -0.98283,0.67794z" data-paper-data="{&quot;index&quot;:null}" fill="#000000" stroke="none" stroke-width="0" stroke-linecap="butt" stroke-linejoin="miter"/><path d="M239.86969,170.25445c-0.60228,-0.07942 -1.5541,1.45936 -1.5541,1.45936c0,0 -0.33329,-2.32578 0.86827,-2.76018c1.60591,-0.58058 2.45079,1.68483 2.45079,1.68483c0,0 -1.16264,-0.30459 -1.76494,-0.38401z" data-paper-data="{&quot;index&quot;:null}" fill="#e569c4" stroke="none" stroke-width="0" stroke-linecap="butt" stroke-linejoin="miter"/><path d="M246.43695,173.56406c-0.43043,0.10297 -0.92803,0.01708 -0.92803,0.01708l0.13884,-0.3192c0,0 0.25138,0.14068 0.71347,0.09215c0.46207,-0.04854 1.34196,-0.2832 1.34196,-0.2832c0,0 -0.8358,0.39016 -1.26623,0.49314z" data-paper-data="{&quot;index&quot;:null}" fill="#000000" stroke="none" stroke-width="0" stroke-linecap="butt" stroke-linejoin="miter"/><path d="M242.68704,172.88336c0.33087,0.65552 0.52889,0.67162 0.72139,0.71471c0.33024,0.07393 0.74692,-0.17526 1.07628,-0.50076c0.47088,-0.46535 0.97229,-1.3386 1.41811,-1.28372c0.06757,0.00832 0.0036,0.84895 -0.22561,1.40005c-0.4861,1.16874 -1.41791,1.9146 -1.56395,1.90073c-0.58349,-0.05542 -0.34257,-0.56162 -1.52758,-0.65638c-0.67494,-0.05395 -2.29711,0.47475 -2.91915,0.19737c-1.18341,-0.75105 -1.36465,-1.85689 -1.36517,-2.57604c-0.00159,-2.16103 1.37143,-2.56943 1.8055,-2.4608c1.99826,0.50004 2.06116,2.2366 2.58019,3.26488z" data-paper-data="{&quot;index&quot;:null}" fill="#ffffff" stroke="none" stroke-width="0" stroke-linecap="butt" stroke-linejoin="miter"/><g data-paper-data="{&quot;index&quot;:null}" stroke="none" stroke-linecap="butt" stroke-linejoin="miter"><path d="M241.40867,171.86036c0.22869,0.04531 0.3006,0.65508 0.1606,1.36197c-0.14001,0.70688 -0.43892,1.2432 -0.66761,1.19792c-0.22869,-0.0453 -0.30059,-0.65506 -0.16059,-1.36195c0.14,-0.7069 0.43891,-1.24322 0.6676,-1.19794z" fill="#169c5b" stroke-width="NaN"/><path d="M241.23599,172.76507c0.10049,0.01991 0.13453,0.2754 0.07606,0.57065c-0.05846,0.29526 -0.18733,0.5185 -0.28782,0.49859c-0.10049,-0.01991 -0.13453,-0.2754 -0.07606,-0.57065c0.05846,-0.29526 0.18733,-0.5185 0.28782,-0.49859z" fill="#000000" stroke-width="0"/><path d="M241.15638,172.60723c0.05917,-0.29871 0.20545,-0.52141 0.32672,-0.49738c0.12128,0.02402 0.17164,0.28565 0.11247,0.58438c-0.05917,0.29872 -0.20545,0.52141 -0.32672,0.49738c-0.12128,-0.02402 -0.17164,-0.28564 -0.11247,-0.58437z" fill="#ffffff" stroke-width="0"/></g><g data-paper-data="{&quot;index&quot;:null}" stroke="none" stroke-linecap="butt" stroke-linejoin="miter"><path d="M244.0648,173.98847c0.09873,-0.4986 0.30954,-0.87688 0.47086,-0.84494c0.16131,0.03194 0.212,0.46202 0.11327,0.96063c-0.09874,0.4986 -0.30955,0.87689 -0.47087,0.84495c-0.16131,-0.03194 -0.21199,-0.46202 -0.11326,-0.96063z" fill="#169c5b" stroke-width="NaN"/><path d="M244.21089,174.13333c0.04123,-0.20828 0.13212,-0.36571 0.203,-0.35166c0.07089,0.01404 0.09491,0.19423 0.05366,0.40249c-0.04125,0.20828 -0.13214,0.36572 -0.20302,0.35167c-0.07089,-0.01405 -0.09491,-0.19424 -0.05366,-0.4025z" fill="#000000" stroke-width="0"/><path d="M244.3577,173.67031c0.04175,-0.21069 0.14491,-0.36777 0.23046,-0.35083c0.08556,0.01696 0.12105,0.20149 0.07933,0.41219c-0.04174,0.21069 -0.14491,0.36775 -0.23046,0.35081c-0.08554,-0.01696 -0.12104,-0.20147 -0.07932,-0.41217z" fill="#ffffff" stroke-width="0"/></g><path d="M239.85084,175.5945c0,0 -0.5682,-0.08152 -0.76192,-0.12876c-0.19371,-0.04724 -0.50219,-0.23743 -0.50219,-0.23743" data-paper-data="{&quot;index&quot;:null}" fill="none" stroke="#000000" stroke-width="0.125" stroke-linecap="round" stroke-linejoin="miter"/><path d="M238.70471,170.40086c0,0 -0.48867,-0.12721 -0.83819,-0.39871c-0.34951,-0.2715 -0.74114,-0.93609 -0.74114,-0.93609c0,0 0.51107,0.5304 0.91189,0.76537c0.40082,0.23495 0.88845,0.28416 0.88845,0.28416l-0.221,0.28524z" data-paper-data="{&quot;index&quot;:null}" fill="#000000" stroke="none" stroke-width="0" stroke-linecap="butt" stroke-linejoin="miter"/><path d="M237.2691,171.09526c-0.43144,-0.09868 -1.22142,-0.55633 -1.22142,-0.55633c0,0 0.87789,0.40827 1.34041,0.45217c0.46254,0.0439 1.1321,-0.19478 1.1321,-0.19478l-0.08826,0.33849c0,0 -0.7314,0.05911 -1.16284,-0.03957z" data-paper-data="{&quot;index&quot;:null}" fill="#000000" stroke="none" stroke-width="0" stroke-linecap="butt" stroke-linejoin="miter"/><path d="M242.1379,178.19469c0.05807,0.62076 -0.07727,1.66219 -0.07727,1.66219l-3.36607,-0.2594l0.29313,-0.96714l0.34119,-2.23567c0,0 0.70328,0.17313 1.16154,0.23632c0.45826,0.06317 1.15061,0.08251 1.15061,0.08251c0,0 0.43879,0.86042 0.49688,1.48119z" data-paper-data="{&quot;index&quot;:null}" fill="#6d3b75" stroke="none" stroke-width="0" stroke-linecap="butt" stroke-linejoin="miter"/><path d="M241.86216,180.3876c0,0 -0.49511,-1.0643 -0.52602,-1.59261c-0.00552,-0.09458 -0.00568,-0.28336 -0.00568,-0.28336c0,0 0.11536,-0.2831 0.85633,-0.72363c0.16234,-0.09654 0.08428,-0.1909 0.14422,-0.40352c0.01893,-0.06714 -0.16337,-0.41103 -0.16337,-0.41103c0,0 0.13895,-0.04516 0.2011,0.05683c0.05788,0.5767 -0.07704,1.73989 -0.07704,1.73989l0.23554,1.17767z" data-paper-data="{&quot;index&quot;:null}" fill="#efe6e6" stroke="none" stroke-width="0" stroke-linecap="butt" stroke-linejoin="miter"/><path d="M238.09627,180.09077l0.82932,-1.46858c0,0 0.00737,-1.89318 0.33954,-2.20976c0.08646,-0.08241 0.59535,0.10034 0.59535,0.10034c0,0 0.17411,0.05663 0.14036,0.3679c-0.0069,0.06367 -0.23294,0.32232 -0.23206,0.3921c0.00276,0.22086 0.06935,0.3485 0.20113,0.48381c0.60147,0.61753 0.63951,0.92086 0.63951,0.92086c0,0 -0.04908,0.18229 -0.07894,0.27219c-0.1668,0.50223 -0.83126,1.37934 -0.83126,1.37934z" data-paper-data="{&quot;index&quot;:null}" fill="#efe6e6" stroke="none" stroke-width="0" stroke-linecap="butt" stroke-linejoin="miter"/><path d="M240.04867,176.8119l-0.63257,-0.08055l0.28895,-0.26114c0,0 0.6757,0.12908 0.74548,0.16339c0.10571,0.0951 0.17863,0.517 0.20998,0.89132c0.02576,0.30733 0.00884,1.16038 0.00884,1.16038c0,0 -0.11499,-0.16611 -0.24546,-0.32c-0.18869,-0.22259 -0.39657,-0.42814 -0.52513,-0.64488c-0.22029,-0.39351 0.14994,-0.90853 0.14994,-0.90853z" data-paper-data="{&quot;index&quot;:null}" fill="#fd4275" stroke="none" stroke-width="0" stroke-linecap="butt" stroke-linejoin="miter"/><path d="M239.89094,179.9501c0,0 0.58332,-0.78661 0.59137,-1.27675c0.00546,-0.33225 -0.91791,-1.22672 -0.91791,-1.22672l0.17416,-0.08974c0,0 0.89318,1.0017 0.88399,1.30545c-0.01738,0.57526 -0.58873,1.32511 -0.58873,1.32511z" data-paper-data="{&quot;index&quot;:null}" fill="#fed000" stroke="none" stroke-width="0" stroke-linecap="butt" stroke-linejoin="miter"/><path d="M239.67495,177.3627l0.29249,-0.50381l-0.74826,-0.08097l0.31169,-0.35563l0.18087,0.06002l-0.23089,0.18932l0.66078,0.09205l-0.27192,0.5931l0.76856,0.96984c0,0 0.05686,0.1481 0.04616,0.21046c-0.01071,0.06237 -0.08909,0.27486 -0.08909,0.27486c0,0 0.00462,-0.16676 -0.06002,-0.33818c-0.06314,-0.16741 -0.19472,-0.33846 -0.26592,-0.43045c-0.16792,-0.21698 -0.59445,-0.68065 -0.59445,-0.68065z" data-paper-data="{&quot;index&quot;:null}" fill="#fff9f9" stroke="none" stroke-width="0" stroke-linecap="butt" stroke-linejoin="miter"/><path d="M239.17846,176.83911l0.05346,-0.06994l0.72332,0.09537l-0.02887,0.05107z" data-paper-data="{&quot;index&quot;:null}" fill="#fed000" stroke="none" stroke-width="0" stroke-linecap="butt" stroke-linejoin="miter"/><path d="M240.95531,177.25959l-0.38789,-0.36233c0,0 -0.02457,-0.08762 -0.04765,-0.13775c-0.02307,-0.05013 -0.0481,-0.12002 -0.0481,-0.12002c0,0 0.37922,0.03667 0.57166,0.05c0.19537,0.01354 0.59189,0.03062 0.59189,0.03062z" data-paper-data="{&quot;index&quot;:null}" fill="#fff9f9" stroke="none" stroke-width="0" stroke-linecap="butt" stroke-linejoin="miter"/><path d="M240.95732,177.00134l-0.38022,-0.35517l0.76482,0.06018z" data-paper-data="{&quot;index&quot;:null}" fill="#fd4275" stroke="none" stroke-width="0" stroke-linecap="butt" stroke-linejoin="miter"/><path d="M242.15546,176.95565c0,0 0.31149,0.36496 0.03224,0.71906c-0.16095,0.1939 -0.42507,0.56607 -0.64633,0.75631c-0.15298,0.13154 -0.2926,0.27757 -0.2926,0.27757c0,0 0.11703,-0.84518 0.19063,-1.14465c0.08964,-0.3648 0.11518,-0.76576 0.23448,-0.8431c0.07427,-0.02293 0.50004,-0.06466 0.50004,-0.06466l0.59636,0.25667z" data-paper-data="{&quot;index&quot;:null}" fill="#fd4275" stroke="none" stroke-width="0" stroke-linecap="butt" stroke-linejoin="miter"/><g stroke="none" stroke-width="0" stroke-linecap="butt" stroke-linejoin="miter"><path d="M239.97679,176.71058c0.44491,1.09573 0.76801,2.43734 0.94454,3.33189c0.25239,1.27894 0.51469,2.41067 0.51469,2.41067c0,0 -0.45368,0.29949 -0.77338,0.24385c-0.31972,-0.05562 -0.42819,-0.03177 -0.42819,-0.03177c0,0 -0.3241,-2.02801 -0.42592,-2.54397c-0.16702,-0.84634 -0.42257,-1.91028 -0.74017,-3.12049c-0.07958,-0.30325 0.03256,-0.52069 0.33848,-0.61449c0.20553,-0.06301 0.42266,-0.03851 0.56998,0.32432z" data-paper-data="{&quot;index&quot;:null}" fill="#4c2b5c"/><path d="M239.97679,176.71058c0.32319,0.79597 0.76726,2.51153 0.76726,2.51153l-0.81058,1.60541c0,0 -0.0966,-0.5626 -0.12495,-0.70628c-0.16702,-0.84634 -0.42257,-1.91028 -0.74017,-3.12049c-0.07958,-0.30325 0.03256,-0.52069 0.33848,-0.61449c0.20553,-0.06301 0.42266,-0.03851 0.56998,0.32432z" data-paper-data="{&quot;index&quot;:null}" fill="#edbb82"/></g><path d="M241.67233,180.09427c0,0 -0.44671,-0.83016 -0.3737,-1.40102c0.03857,-0.30143 1.07773,-1.15071 1.07773,-1.15071l0.0257,0.06372c0,0 -0.91997,0.79087 -0.96666,1.11986c-0.06888,0.48534 0.38389,1.35369 0.38389,1.35369z" data-paper-data="{&quot;index&quot;:null}" fill="#fed000" stroke="none" stroke-width="0" stroke-linecap="butt" stroke-linejoin="miter"/><path d="M242.43823,177.55819c0,0 -0.49396,0.39106 -0.69382,0.57903c-0.08474,0.07971 -0.24151,0.228 -0.33012,0.38344c-0.09072,0.15918 -0.11231,0.32459 -0.11231,0.32459c0,0 -0.04411,-0.22213 -0.0449,-0.28542c-0.00079,-0.06326 0.0786,-0.20063 0.0786,-0.20063l0.91111,-0.83736l-0.17557,-0.62841l0.66705,0.01268l-0.62133,-0.27006l0.43134,-0.0829l0.49656,0.40318l-0.8165,0.05846l0.20988,0.54344z" data-paper-data="{&quot;index&quot;:null}" fill="#fff9f9" stroke="none" stroke-width="0" stroke-linecap="butt" stroke-linejoin="miter"/><g data-paper-data="{&quot;index&quot;:null}" stroke="none" stroke-linecap="butt" stroke-linejoin="miter"><path d="M242.23825,183.17046c0,0 0.91423,1.17126 1.35272,1.94289c0.06985,0.12294 -0.07332,1.21055 -0.20954,1.68607c-0.0744,0.25972 -0.20988,0.7445 -0.66082,0.79657c-0.11495,0.01327 -0.6366,-0.20195 -0.6366,-0.20195l-0.3152,0.30355c0,0 -0.25899,0.0292 -0.40286,-0.03573c-0.14385,-0.06493 -0.34454,-0.27976 -0.34454,-0.27976c0,0 -0.17692,0.02801 -0.297,0.07325c-0.39193,0.14767 -0.56198,-0.20637 -0.56198,-0.20637c0,0 -0.27205,0.13968 -0.49148,0.10865c-0.34785,-0.04918 -0.72159,-0.30044 -0.86912,-0.49522c-0.2506,-0.33087 -0.71201,-1.39195 -0.46396,-1.68838c0.38633,-0.4617 0.89558,0.07729 0.89558,0.07729c0,0 -0.14357,-0.61181 -0.02826,-0.97429c0.17752,-0.55815 0.49472,-0.76657 0.49472,-0.76657l2.53839,-0.33999z" data-paper-data="{&quot;index&quot;:null}" fill="#f44a7d" stroke-width="0"/><path d="M240.09907,186.13691l0.33047,-0.39164l0.39164,0.33047l-0.33047,0.39164z" data-paper-data="{&quot;index&quot;:null}" fill="#baba3e" stroke-width="NaN"/><path d="M241.08177,186.14718l0.33047,-0.39164l0.39164,0.33047l-0.33047,0.39164z" data-paper-data="{&quot;index&quot;:null}" fill="#baba3e" stroke-width="NaN"/><path d="M242.15728,186.14956l0.33047,-0.39164l0.39164,0.33047l-0.33047,0.39164z" data-paper-data="{&quot;index&quot;:null}" fill="#baba3e" stroke-width="NaN"/><path d="M243.39157,186.53592l-0.06933,-0.36472l0.16376,-0.34458l0.43233,0.42696z" data-paper-data="{&quot;index&quot;:null}" fill="#baba3e" stroke-width="0"/><g stroke-width="0"><path d="M239.41844,183.10924c-0.10677,-1.05933 0.59698,-1.25397 1.45821,-1.32693c0.86125,-0.07296 1.57077,0.00194 1.66064,1.06274c0.08985,1.06077 -0.59698,1.25397 -1.45821,1.32693c-0.86125,0.07296 -1.55389,-0.00363 -1.66064,-1.06274z" data-paper-data="{&quot;index&quot;:null}" fill="#fed000"/><path d="M238.9461,183.14923c-0.09538,-0.86377 0.82705,-1.05209 1.94919,-1.14715c1.12213,-0.09507 2.04107,-0.06273 2.11439,0.80291c0.07333,0.86565 -0.82705,1.05209 -1.94919,1.14715c-1.12213,0.09507 -2.01903,0.06065 -2.11439,-0.80291z" data-paper-data="{&quot;index&quot;:null}" fill="#e68b9c"/></g></g><path d="M244.87788,169.64028c-0.02485,0.0154 0.99102,-0.45926 2.70393,0.19829c0.30503,0.11898 1.32185,0.29664 1.49022,1.07058c0.23409,0.71418 1.15841,0.99002 1.14257,0.98633c-0.02272,-0.00536 -2.06416,-0.62509 -3.04519,-1.14881c-0.53565,-0.28596 -2.205,0.03448 -2.23771,0.05475" data-paper-data="{&quot;index&quot;:null}" fill="#f79eb4" stroke="#f89db5" stroke-width="0" stroke-linecap="butt" stroke-linejoin="round"/><path d="M244.03244,169.57069c0.01952,-0.08127 0.95212,-1.47839 1.26292,-1.694c0.31079,-0.21561 1.44612,-0.18892 2.04978,-0.14364c2.02901,0.35145 2.52502,-0.67355 2.52502,-0.67355c0,0 -1.27393,1.77032 -2.034,1.81541c-1.0545,0.06254 -2.83644,0.6992 -2.95011,0.76885" data-paper-data="{&quot;index&quot;:null}" fill="#f79eb4" stroke="#f89db5" stroke-width="0" stroke-linecap="butt" stroke-linejoin="round"/><path d="M244.85771,170.88256c-0.03657,-0.03466 1.07141,-0.27055 1.86127,0.33272c0.2269,0.17332 1.01516,1.00306 0.97924,1.14975c-0.05216,0.60822 1.01181,1.29738 1.01354,1.29645c0.0377,-0.02014 -1.76664,-0.41614 -2.30945,-1.34777c-0.18437,-0.31226 -1.55229,-0.40826 -1.65576,-0.50643" data-paper-data="{&quot;index&quot;:null}" fill="#f79eb4" stroke="#f89db5" stroke-width="0" stroke-linecap="butt" stroke-linejoin="round"/></g></g></svg>