<svg version="1.1" xmlns="http://www.w3.org/2000/svg" xmlns:xlink="http://www.w3.org/1999/xlink" width="24.40212" height="34.05562" viewBox="0,0,24.40212,34.05562"><g transform="translate(-228.36398,-165.37478)"><g data-paper-data="{&quot;isPaintingLayer&quot;:true}" fill-rule="nonzero" stroke-linejoin="miter" stroke-miterlimit="10" stroke-dasharray="" stroke-dashoffset="0" style="mix-blend-mode: normal"><g data-paper-data="{&quot;index&quot;:null}"><g stroke="#ffffff" stroke-width="0" stroke-linecap="butt"><path d="M240.31042,179.63102l-0.64187,-0.34974l1.20542,-2.44095l0.61629,0.59866z" data-paper-data="{&quot;index&quot;:null}" fill="#319a2b"/><path d="M240.42214,179.77838c-0.05984,0.60216 -1.34946,3.33777 -1.34946,3.33777l-1.04314,-1.1264c0,0 0.84321,-1.94006 1.57707,-2.7169c0.30371,-0.32151 0.87955,-0.13867 0.81553,0.50552z" data-paper-data="{&quot;index&quot;:null}" fill="#ead42f"/><path d="M235.97455,182.70976c-1.25151,-0.76542 -1.69725,-2.70215 -1.34819,-2.8998c1.10367,-0.62489 1.79581,-0.37727 3.1054,0.28385c1.58621,0.80075 1.73556,3.06455 1.01993,3.57704c-0.2343,0.1678 -1.52564,-0.19568 -2.77714,-0.96109z" data-paper-data="{&quot;index&quot;:null}" fill="#f0e9bb"/></g><path d="M235.52789,179.53476c0,0 1.26972,0.84175 1.76205,1.67455c0.49232,0.8328 0.85368,2.3432 0.85368,2.3432" data-paper-data="{&quot;index&quot;:null}" fill="none" stroke="#d3c49c" stroke-width="0.25" stroke-linecap="round"/><path d="M237.47397,182.87069l0.76261,-0.32404" data-paper-data="{&quot;index&quot;:null}" fill="none" stroke="#ffffff" stroke-width="0.5" stroke-linecap="round"/><path d="M237.07947,181.65069l0.5898,-0.28364" data-paper-data="{&quot;index&quot;:null}" fill="none" stroke="#ffffff" stroke-width="0.5" stroke-linecap="round"/><path d="M236.48119,180.80639l0.53908,-0.34469" data-paper-data="{&quot;index&quot;:null}" fill="none" stroke="#ffffff" stroke-width="0.5" stroke-linecap="round"/><path d="M236.07638,179.69816l-0.36627,0.30431" data-paper-data="{&quot;index&quot;:null}" fill="none" stroke="#ffffff" stroke-width="0.5" stroke-linecap="round"/></g><g data-paper-data="{&quot;index&quot;:null}"><g data-paper-data="{&quot;index&quot;:null}" stroke="none" stroke-width="0" stroke-linecap="butt"><path d="M228.36398,182.52943c0,0 0.77805,-2.18153 4.16076,-2.62325c0.64048,-0.08363 -1.88533,1.34355 -1.64002,2.06248c0.24528,0.71884 3.46481,1.34783 3.46481,1.34783c0,0 -2.93994,-0.34458 -3.72107,-0.30637c-0.78112,0.03821 -2.26448,-0.48069 -2.26448,-0.48069z" fill="#54c81c"/><path d="M240.21447,180.60433c0,0 -4.21504,2.56589 -5.80967,2.62886c-1.47219,0.05814 -4.63927,-1.15668 -4.03171,-2.05489c0.60756,-0.89821 3.01848,-1.75735 5.23573,-1.42707c1.82986,0.27258 4.60565,0.85312 4.60565,0.85312z" fill="#ffffff"/></g><path d="M231.48096,182.07442l-0.80267,0.39146" fill="none" stroke="#ffffff" stroke-width="0.25" stroke-linecap="round"/><path d="M230.00688,181.70038l0.51501,-0.28623" fill="none" stroke="#ffffff" stroke-width="0.25" stroke-linecap="round"/></g><g data-paper-data="{&quot;index&quot;:null}"><g data-paper-data="{&quot;index&quot;:null}" stroke="none" stroke-width="0" stroke-linecap="butt"><path d="M237.05908,186.41704c0,0 -1.42077,1.3251 -2.71051,1.52247c-1.55246,0.23757 -4.67803,0.07586 -4.67803,0.07586c0,0 1.82589,-2.40603 2.59986,-3.67005c1.33751,-2.1905 2.58945,-2.36927 2.58945,-2.36927c0,0 -1.71669,2.88457 -1.328,3.7978c0.383,0.89991 3.52724,0.64318 3.52724,0.64318z" fill="#54c81c"/><path d="M234.77406,181.92692c0.13447,-0.08102 2.13376,-1.1619 3.53885,-0.90125c1.86486,0.34595 1.99069,-0.72544 2.26251,0.13904c0.27182,0.86448 0.13025,2.65259 -1.09784,3.6217c-1.02219,0.80664 -2.44864,1.64705 -2.44864,1.64705c0,0 -3.34412,0.77787 -3.75419,-0.62406c-0.42527,-1.59535 1.35901,-3.79794 1.49932,-3.88248z" fill="#ffffff"/></g><path d="M234.73165,186.90201l0.38623,-0.37013" fill="none" stroke="#ffffff" stroke-width="0.25" stroke-linecap="round"/><path d="M233.583,186.08364l-0.25775,0.4535" fill="none" stroke="#ffffff" stroke-width="0.25" stroke-linecap="round"/><path d="M233.54713,184.56327l-0.60572,0.4833" fill="none" stroke="#ffffff" stroke-width="0.25" stroke-linecap="round"/></g><g data-paper-data="{&quot;index&quot;:null}"><g data-paper-data="{&quot;index&quot;:null}" stroke="none" stroke-width="0" stroke-linecap="butt"><path d="M235.29987,199.20094c-1.16303,0.52213 -0.63096,-2.82323 -0.37675,-3.81593c0.15289,-1.18162 1.30038,-3.12672 1.30038,-3.12672c0,0 0.71254,-1.38895 1.0079,-0.42882c0.13749,0.44695 0.30019,0.87214 0.40834,1.3031c0.12416,0.49484 0.17636,0.99726 0.03582,1.54893c0,0 -0.78364,3.80472 -2.37569,4.51947z" data-paper-data="{&quot;index&quot;:null}" fill="#54c81c"/><path d="M236.65037,189.23344l1.04342,-5.52349l1.46026,0.14388c0,0 -0.48118,3.5901 -1.11993,5.53235c-0.22134,0.60902 -0.95683,4.7172 -0.95683,4.7172c0,0 -0.53789,2.28755 -0.9389,2.78057c-0.51013,0.62715 -0.90756,-0.53786 -0.87979,-0.89693c0,0 0.36861,-1.31903 0.56553,-2.15181c0.2911,-1.23105 0.82622,-4.60173 0.82622,-4.60173z" data-paper-data="{&quot;index&quot;:null}" fill="#ffffff"/></g><path d="M236.09965,196.58049l0.27576,0.42315" fill="none" stroke="#000000" stroke-width="0.5" stroke-linecap="round"/><path d="M236.72154,196.05464l-0.20588,-0.4084" fill="none" stroke="#000000" stroke-width="0.5" stroke-linecap="round"/></g><g data-paper-data="{&quot;index&quot;:null}"><g data-paper-data="{&quot;index&quot;:null}" stroke="none" stroke-width="0" stroke-linecap="butt"><path d="M237.55082,194.20276c0.06798,-0.56521 0.29797,-1.01496 0.59231,-1.43164c0.25635,-0.3629 0.56152,-0.70074 0.85101,-1.06797c0.6219,-0.78889 0.78527,0.76361 0.78527,0.76361c0,0 0.36836,2.22812 0.08457,3.38529c-0.12112,1.01757 -0.83197,4.32954 -1.72825,3.42292c-1.22689,-1.24105 -0.58491,-5.07221 -0.58491,-5.07221z" data-paper-data="{&quot;index&quot;:null}" fill="#54c81c"/><path d="M240.47275,189.49169c0,0 -0.71715,3.3367 -0.88987,4.58985c-0.11683,0.84772 -0.249,2.21092 -0.249,2.21092c-0.10366,0.3449 -0.8947,1.28801 -1.14415,0.51906c-0.1961,-0.60451 0.12765,-2.93204 0.12765,-2.93204c0,0 0.7964,-4.0968 0.80971,-4.74465c0.10509,-2.04188 0.95173,-5.56377 0.95173,-5.56377l1.41381,0.39272l-1.01989,5.52789z" data-paper-data="{&quot;index&quot;:null}" fill="#ffffff"/></g><path d="M237.74445,195.60204l0.48037,-0.28368" fill="none" stroke="#000000" stroke-width="0.5" stroke-linecap="round"/><path d="M238.2757,196.3398l-0.40987,0.29514" fill="none" stroke="#000000" stroke-width="0.5" stroke-linecap="round"/></g><g data-paper-data="{&quot;index&quot;:null}"><g data-paper-data="{&quot;index&quot;:null}" stroke="none" stroke-width="0" stroke-linecap="butt"><path d="M241.35852,182.0903c0,0 5.11498,1.81417 5.29285,1.78977c0.17788,-0.0244 0.26772,0.42856 0.347,0.90418c0.07928,0.47562 0.02559,1.55263 0.02559,1.55263c0,0 -0.00246,-0.41554 -0.86227,-0.94668c-0.50886,-0.31436 -1.50093,-0.72846 -2.19408,-1.16964c-1.25752,-0.80038 -2.6091,-2.13024 -2.6091,-2.13024z" fill="#54c81c"/><path d="M242.30939,182.82419c-3.48114,-2.39809 -3.38689,-4.34937 -3.38689,-4.34937c0,0 -0.1746,-0.30349 1.00732,0.55636c0.40649,0.29573 1.67762,0.00646 3.88294,1.278c2.82159,1.62686 3.08645,3.89553 3.08645,3.89553c0,0 -2.08419,0.34558 -4.58982,-1.38051z" fill="#ffffff"/></g><path d="M245.04475,183.80252l0.35891,0.57528" fill="none" stroke="#ffffff" stroke-width="0.25" stroke-linecap="round"/><path d="M246.40456,184.60962l-0.22546,-0.54437" fill="none" stroke="#ffffff" stroke-width="0.25" stroke-linecap="round"/></g><g data-paper-data="{&quot;index&quot;:null}"><g data-paper-data="{&quot;index&quot;:null}" stroke="none" stroke-width="0" stroke-linecap="butt"><path d="M243.49351,190.81702c0,0 -0.31144,-1.2351 -0.95438,-2.16711c-0.64293,-0.932 -2.748,-2.85161 -2.748,-2.85161l4.85142,-1.67437c0,0 0.69726,1.90598 0.71932,3.26979c0.02919,1.80406 -1.86835,3.42331 -1.86835,3.42331z" fill="#54c81c"/><path d="M238.32045,183.92761c-0.89256,-1.98349 0.56546,-5.04484 0.56546,-5.04484l0.87369,-0.09578c0,0 0.18728,1.19037 1.87884,2.11528c2.4802,1.35612 2.63689,2.55421 3.0041,3.22167c0.36999,0.67252 0.72999,2.76357 -0.59431,3.49198c-1.27303,0.70022 -4.89276,-1.83272 -5.72778,-3.68831z" fill="#ffffff"/></g><path d="M242.36583,187.32497l0.29305,0.50189" fill="none" stroke="#ffffff" stroke-width="0.25" stroke-linecap="round"/><path d="M243.90351,187.94139l-0.22681,-0.48449" fill="none" stroke="#ffffff" stroke-width="0.25" stroke-linecap="round"/><path d="M244.45031,186.66869l0.40813,0.60295" fill="none" stroke="#ffffff" stroke-width="0.25" stroke-linecap="round"/></g><g data-paper-data="{&quot;index&quot;:null}"><path d="M237.61795,181.28862c-0.30427,-0.44307 -0.06637,-1.7509 0.28957,-2.80676c0.35593,-1.05586 0.95764,-1.25421 1.07941,-1.25421c0.15382,0 1.35868,-0.24869 2.06043,0.1482c0.70175,0.39689 0.46391,0.81182 0.64221,1.38034c0.1783,0.56851 0.3376,1.53269 0.32786,1.71279c-0.02505,0.46123 -1.45551,0.25457 -1.70209,0.53654c0,0 -2.33148,0.68137 -2.69739,0.28309z" data-paper-data="{&quot;index&quot;:null}" fill="#319a2b" stroke="none" stroke-width="0.17188" stroke-linecap="butt"/><path d="M238.99112,181.03802c0.61263,0 0.86005,-0.34217 1.03805,-0.04276c0.09193,0.15462 -0.5466,0.49821 -1.15798,0.46382c-0.68831,-0.17263 -1.50188,0.15139 -1.50188,0.15139l0.22399,-0.60534c0,0 0.78518,0.03289 1.39781,0.03289z" data-paper-data="{&quot;index&quot;:null}" fill="#ead42f" stroke="none" stroke-width="0" stroke-linecap="butt"/><path d="M242.07723,180.38421l0.34058,0.49225c0,0 -0.69825,-0.197 -1.3616,0.05504c-0.60314,0.10575 -0.80044,-0.29103 -0.19203,-0.36277c0.60841,-0.07174 1.21306,-0.18453 1.21306,-0.18453z" data-paper-data="{&quot;index&quot;:null}" fill="#ead42f" stroke="none" stroke-width="0" stroke-linecap="butt"/><path d="M239.08832,180.77492l-0.07853,0.38091" fill="none" stroke="#ffffff" stroke-width="0.25" stroke-linecap="round"/><path d="M238.06411,181.16003l0.09109,-0.32829" fill="none" stroke="#ffffff" stroke-width="0.25" stroke-linecap="round"/><path d="M241.16773,180.62701l-0.03093,-0.30573" fill="none" stroke="#ffffff" stroke-width="0.25" stroke-linecap="round"/><path d="M241.95384,180.65292l-0.147,-0.38175" fill="none" stroke="#ffffff" stroke-width="0.25" stroke-linecap="round"/></g><g data-paper-data="{&quot;index&quot;:null}" stroke="none" stroke-linecap="butt"><path d="M239.99237,177.35819c0.17022,-0.06911 0.34154,0.07628 0.48084,0.36686c0.1393,0.29058 0.24674,0.72652 0.28893,1.23856c0.04223,0.51194 0.0113,1.00389 -0.07258,1.38519c-0.08398,0.38127 -0.22099,0.65174 -0.3912,0.72085c-0.17009,0.06905 -0.34142,-0.07634 -0.48082,-0.36696c-0.1393,-0.29058 -0.24663,-0.72649 -0.28883,-1.23853c-0.04223,-0.51194 -0.01141,-1.00393 0.07258,-1.38519c0.08388,-0.3813 0.221,-0.65174 0.39108,-0.72079z" fill="#eb3d66" stroke-width="0.01872"/><path d="M240.51651,179.19398c0.01852,0.48778 -0.13593,0.88964 -0.34498,0.89758c-0.20905,0.00794 -0.39353,-0.38105 -0.41205,-0.86883c-0.01852,-0.48778 0.13593,-0.88964 0.34498,-0.89758c0.20905,-0.00794 0.39353,0.38105 0.41205,0.86883z" fill="#492116" stroke-width="0"/><path d="M239.88405,177.56186c0.07282,-0.00742 0.13081,0.06727 0.16562,0.19397c0.03489,0.12675 0.04658,0.3055 0.02688,0.50613c-0.01964,0.20068 -0.06709,0.38546 -0.12777,0.52198c-0.06074,0.13658 -0.13469,0.22486 -0.2075,0.23228c-0.07278,0.00755 -0.13075,-0.06722 -0.16563,-0.19397c-0.03489,-0.12675 -0.04658,-0.3055 -0.02692,-0.50605c0.01972,-0.20063 0.06714,-0.38554 0.12783,-0.52204c0.06074,-0.13658 0.13464,-0.22478 0.20751,-0.23227z" fill="#ffffff" stroke-width="0.01896"/></g><g data-paper-data="{&quot;index&quot;:null}"><g stroke="none" stroke-width="0" stroke-linecap="butt"><path d="M237.0934,180.52334l-0.5392,-0.49353l1.75587,-2.08043l0.45465,0.72904z" fill="#319a2b"/><path d="M237.16652,180.69321c-0.20257,0.57022 -2.11088,2.91648 -2.11088,2.91648l-0.74241,-1.34377c0,0 1.28405,-1.68108 2.18287,-2.25916c0.37198,-0.23924 0.88714,0.07644 0.67042,0.68644z" fill="#ead42f"/><path d="M232.22195,182.3558c-0.96787,-1.10243 -0.81859,-3.0842 -0.42659,-3.1693c1.23942,-0.2691 1.82684,0.17284 2.88115,1.19291c1.277,1.23554 0.74758,3.44163 -0.08792,3.71857c-0.27354,0.09067 -1.39877,-0.63976 -2.36664,-1.74218z" fill="#f0e9bb"/></g><path d="M233.01708,179.39748c0,0 0.99782,1.15112 1.24906,2.08536c0.25123,0.93424 0.19478,2.48625 0.19478,2.48625" fill="none" stroke="#d3c49c" stroke-width="0.25" stroke-linecap="round"/><path d="M234.81993,183.02488l-0.82154,0.10791" fill="none" stroke="#ffffff" stroke-width="0.5" stroke-linecap="round"/><path d="M233.94513,181.85171l0.64423,-0.11529" fill="none" stroke="#ffffff" stroke-width="0.5" stroke-linecap="round"/><path d="M233.59489,180.878l0.61172,-0.18768" fill="none" stroke="#ffffff" stroke-width="0.5" stroke-linecap="round"/><path d="M233.06734,179.89689l0.4344,-0.19507" fill="none" stroke="#ffffff" stroke-width="0.5" stroke-linecap="round"/></g><g data-paper-data="{&quot;index&quot;:null}"><path d="M243.10198,169.5589c3.5318,1.31972 2.59256,4.44208 2.53955,4.70449c-0.15944,0.61035 -0.48095,1.17296 -0.878,1.65948c-0.65636,0.81692 -1.59158,1.44505 -2.64128,1.59508c-0.49873,0.00618 -0.42981,0.02108 -0.92183,0.0508c-0.76913,0.16959 -1.68769,-0.08181 -2.38558,-0.35762c-0.57801,-0.19379 -1.11978,-0.48036 -1.61464,-0.83679c-0.31165,-0.24197 -0.68558,-0.44492 -0.88383,-0.79915c-0.1794,-0.3329 -0.27725,-0.73567 -0.14641,-1.10312c0.26872,-0.91058 0.52944,-1.82512 0.8794,-2.70809c0.10867,-0.23699 0.18912,-0.51107 0.39118,-0.6878c0.23782,-0.11819 1.40084,-3.10936 5.66144,-1.5173z" data-paper-data="{&quot;index&quot;:null}" fill="#f0e9bb" stroke="none" stroke-width="0.17188" stroke-linecap="butt"/><path d="M246.88269,170.00742c0.90742,0.21127 1.4751,0.58527 1.7361,0.99143c0.03728,0.05768 -0.00669,0.0858 0.03239,0.17094c0.04726,0.1031 0.21016,0.29578 0.1818,0.25282c0,0 -0.13253,0.12012 -0.15292,0.19316c-0.02585,0.09286 0.04673,0.2406 -0.03015,0.18583c0,0 0.00585,0.15335 -0.02417,0.19648c-0.32761,0.47111 -1.01046,0.97879 -1.70228,1.10806c0.12378,0.57107 -0.71335,-2.897 -0.04072,-3.09868z" data-paper-data="{&quot;index&quot;:null}" fill="#ed3e67" stroke="none" stroke-width="0.17188" stroke-linecap="butt"/><path d="M237.64051,171.01339l-0.99957,2.17338l-0.47755,1.87959l-0.23902,1.36827c-0.02789,0.16092 -1.15487,-1.62331 -1.32127,-2.16546c-0.206,-0.67081 -0.24844,-1.33394 -0.28805,-1.99698c-0.02907,-0.48323 0.02025,-0.65761 0.07589,-0.97907l0.17297,-0.99796c0.03283,-0.18962 0.29253,-1.11825 0.52467,-1.2053c0.06588,-0.02468 0.51158,0.66229 0.58315,0.68793l0.52292,0.18568c0.15509,0.05524 0.73969,-0.09478 0.91416,-0.15113c0.12746,-0.04105 0.90021,-0.43939 1.18594,-1.00933l0.2826,-0.56381c0.04234,-0.08443 0.17672,-1.08983 0.21822,-1.09278c0.08556,-0.00635 -0.34756,-1.29784 -0.25693,-1.30849c0.50453,-0.05988 1.12214,-0.1474 1.7409,-0.05235c0.97275,0.14941 1.94333,0.55699 2.44385,0.75781c0.08535,0.03425 1.16424,0.49215 1.73267,0.96478c0.90016,0.74833 1.22584,1.63688 1.25185,1.6888c0.40867,0.815 0.61975,1.66186 0.65969,2.53629l-0.0657,0.70123c-0.03359,0.35894 -0.30504,2.04696 -0.78346,3.2687c-1.00684,2.57115 -3.10453,3.73422 -3.26829,3.55316c-0.22959,-0.25339 -0.0974,-1.90921 -0.24675,-1.81027c-0.33099,0.21906 1.49846,-0.31197 2.16899,-1.00284c0.67054,-0.69086 1.32985,-2.65557 1.37963,-2.81639c0.0395,-0.12708 0.00295,-0.25708 -0.13387,-0.27303c-0.09104,-0.01069 -1.116,-0.20363 -1.56429,-0.11098c-0.4483,0.09265 -1.61927,0.84928 -1.62106,0.77324c-0.00059,-0.02831 -0.24831,-0.40064 -0.22233,-0.43272c0.15737,-0.19385 -0.59221,0.10447 -0.69357,0.15658c-0.26657,0.13702 -0.26716,-1.33928 -0.95272,-2.02611c-0.68556,-0.68684 -1.57967,-1.0087 -1.82561,-0.91064c-0.09795,0.03906 -0.36741,0.0821 -0.50611,0.104c-0.18452,0.029 -0.30829,0.04055 -0.39193,0.10618z" data-paper-data="{&quot;index&quot;:null}" fill="#54c81c" stroke="none" stroke-width="0.17188" stroke-linecap="butt"/><path d="M234.43134,168.08842c-0.49015,-0.41095 -0.81223,-1.13411 -0.86987,-1.67145c-0.00535,-0.04922 0.06462,-0.17483 0.06462,-0.17483c-0.08394,0.01212 0.03642,-0.07959 0.05549,-0.16849c0.01502,-0.06986 -0.03836,-0.22839 -0.03836,-0.22839c-0.04066,0.02355 0.16973,-0.06619 0.25096,-0.13154c0.06707,-0.05417 0.04432,-0.09692 0.09835,-0.12903c0.37856,-0.22495 0.98515,-0.28896 1.79034,-0.06848c1.05343,0.28866 1.65666,1.37587 1.5162,1.73984c0,0 -2.03055,1.53401 -2.86768,0.83236z" data-paper-data="{&quot;index&quot;:null}" fill="#ed3e67" stroke="none" stroke-width="0.17188" stroke-linecap="butt"/><path d="M237.79017,168.19192c0.17617,-0.0434 -0.76769,1.18159 -1.19909,1.23691c-0.7419,0.09504 -0.76749,0.36594 -1.23022,0.00384c-0.104,-0.08114 -0.25708,-0.37881 -0.53889,-0.64665c-0.32657,-0.3101 -0.58454,-0.66556 -0.4301,-0.68249l0.94964,-0.15499l1.64053,-0.83323c0.0255,-0.01297 -0.13273,-0.30076 -0.39792,-0.69913c-0.18591,-0.27939 -0.48573,-0.64147 -0.73943,-0.8716c-0.14954,-0.13555 0.28066,-0.20341 0.8363,-0.15334c0.26936,0.02424 0.5624,0.03197 0.84367,0.15915c0.48705,0.22041 0.63098,0.9316 0.54095,1.5615c-0.08425,0.58991 -0.39265,1.10868 -0.27545,1.08001z" data-paper-data="{&quot;index&quot;:null}" fill="#54c81c" stroke="none" stroke-width="0.17188" stroke-linecap="butt"/><path d="M238.52201,168.43532c-0.4125,1.14303 -1.91963,1.71362 -2.27197,1.54815l-0.60984,-0.1153l-0.62018,-0.79224c-0.15874,-0.20291 1.09495,0.5049 1.5554,0.27461c0.30047,-0.15016 0.52372,-0.26955 0.58879,-0.34981c0.61899,-0.76588 0.86444,-1.4928 0.87088,-2.0257c0.01013,-0.83737 -0.44562,-1.28296 -0.02488,-1.31488c1.00329,-0.07637 0.96254,1.52596 0.51182,2.77516z" data-paper-data="{&quot;index&quot;:null}" fill="#ead32e" stroke="none" stroke-width="0.17188" stroke-linecap="butt"/><path d="M246.21234,170.703c0,0 -0.13593,-0.42765 -0.22378,-0.75089c-0.18328,-0.67429 -0.64309,-1.21475 -0.47471,-1.31894c0.11592,-0.02368 0.54492,0.28584 0.62798,0.45866l0.16884,0.35088c0.29679,0.61712 0.23563,1.32394 0.12762,1.58137c-0.04669,0.11135 -0.00693,0.36287 -0.09583,0.47252c0,0 -0.15495,-0.50823 -0.13013,-0.79359z" data-paper-data="{&quot;index&quot;:null}" fill="#ead32e" stroke="none" stroke-width="0.17188" stroke-linecap="butt"/><path d="M246.34385,169.32732c0,0 1.01731,0.35697 1.09027,0.70462c0.04861,0.23089 -0.28723,0.61332 -0.2019,0.80731c0.10592,0.24086 0.19902,0.77071 0.21459,1.14007c-0.07026,0.3051 -0.07327,0.62199 -0.32162,0.89675c-0.05943,0.30401 -0.96943,0.554 -0.95917,0.45073l0.1393,-1.40369c0.03537,-0.35617 0.08552,-1.08642 0.08068,-1.24036z" data-paper-data="{&quot;index&quot;:null}" fill="#54c81c" stroke="none" stroke-width="0.17188" stroke-linecap="butt"/><path d="M238.06569,171.33867c0.6107,-0.42861 1.59062,-0.07793 1.92011,0.44639c0.3295,0.52432 0.10154,1.29682 -0.50917,1.72542c-0.6107,0.42861 -1.37288,0.351 -1.70237,-0.17332c-0.32951,-0.52433 -0.31928,-1.5699 0.29143,-1.9985z" fill="#000000" stroke="none" stroke-width="0" stroke-linecap="butt"/><path d="M244.25507,175.93008c-0.5963,0.16705 -1.21304,-0.28748 -1.3775,-1.01522c-0.16446,-0.72773 0.18562,-1.45311 0.78192,-1.62016c0.5963,-0.16706 1.49433,0.16625 1.65879,0.89399c0.16447,0.72774 -0.46691,1.57434 -1.06321,1.74139z" data-paper-data="{&quot;index&quot;:null}" fill="#000000" stroke="none" stroke-width="0" stroke-linecap="butt"/><path d="M238.28988,176.07055l-0.3055,-0.53334" fill="none" stroke="#000000" stroke-width="0.25" stroke-linecap="round"/><path d="M238.70836,176.45308l0.53577,0.27821" fill="none" stroke="#000000" stroke-width="0.25" stroke-linecap="round"/><path d="M240.33966,177.22553l-0.55977,-0.21603" fill="none" stroke="#000000" stroke-width="0.25" stroke-linecap="round"/><path d="M240.88523,177.29314l0.54557,0.06762" fill="none" stroke="#000000" stroke-width="0.25" stroke-linecap="round"/><path d="M242.33097,177.06503l-0.40699,0.12878" fill="none" stroke="#000000" stroke-width="0.25" stroke-linecap="round"/><path d="M238.41746,174.74533l-0.44581,0.29568l-0.31059,-0.30964" fill="none" stroke="#000000" stroke-width="0.25" stroke-linecap="round"/><path d="M243.06028,176.91241l-0.43139,-0.07901l-0.0108,-0.53484" data-paper-data="{&quot;index&quot;:null}" fill="none" stroke="#000000" stroke-width="0.25" stroke-linecap="round"/><path d="M239.0618,173.179l-0.60611,-1.40651" fill="none" stroke="#ffffff" stroke-width="0.25" stroke-linecap="round"/><path d="M239.40139,172.03203l-1.33767,0.84327" fill="none" stroke="#ffffff" stroke-width="0.25" stroke-linecap="round"/><path d="M238.11113,171.43732c0.13407,-0.15909 0.37173,-0.17937 0.53082,-0.0453c0.15909,0.13407 0.17937,0.37173 0.0453,0.53082c-0.13407,0.15909 -0.37173,0.17937 -0.53082,0.0453c-0.15909,-0.13407 -0.17937,-0.37173 -0.0453,-0.53082z" fill="#ffffff" stroke="none" stroke-width="0" stroke-linecap="butt"/><path d="M238.87437,172.97625c0.13407,-0.15909 0.37173,-0.17937 0.53082,-0.0453c0.15909,0.13407 0.17937,0.37173 0.0453,0.53082c-0.13407,0.15909 -0.37173,0.17937 -0.53082,0.0453c-0.15909,-0.13407 -0.17937,-0.37173 -0.0453,-0.53082z" fill="#ffffff" stroke="none" stroke-width="0" stroke-linecap="butt"/><path d="M239.29517,172.21123c-0.15909,-0.13406 -0.17938,-0.37173 -0.04531,-0.53082c0.13406,-0.1591 0.37173,-0.17937 0.53082,-0.0453c0.15909,0.13407 0.17937,0.37173 0.0453,0.53082c-0.13407,0.15909 -0.37173,0.17937 -0.53082,0.0453z" fill="#ffffff" stroke="none" stroke-width="0" stroke-linecap="butt"/><path d="M237.77977,172.6808c0.13407,-0.15909 0.37173,-0.17937 0.53082,-0.0453c0.15909,0.13407 0.17937,0.37173 0.0453,0.53082c-0.13407,0.15909 -0.37173,0.17937 -0.53082,0.0453c-0.15909,-0.13407 -0.17937,-0.37173 -0.0453,-0.53082z" fill="#ffffff" stroke="none" stroke-width="0" stroke-linecap="butt"/><path d="M244.31978,175.28069l-0.60611,-1.40651" fill="none" stroke="#ffffff" stroke-width="0.25" stroke-linecap="round"/><path d="M244.65937,174.13373l-1.33767,0.84327" fill="none" stroke="#ffffff" stroke-width="0.25" stroke-linecap="round"/><path d="M243.36911,173.53901c0.13407,-0.15909 0.37173,-0.17937 0.53082,-0.0453c0.15909,0.13407 0.17937,0.37173 0.0453,0.53082c-0.13407,0.15909 -0.37173,0.17937 -0.53082,0.0453c-0.15909,-0.13407 -0.17937,-0.37173 -0.0453,-0.53082z" fill="#ffffff" stroke="none" stroke-width="0" stroke-linecap="butt"/><path d="M244.13235,175.07794c0.13407,-0.15909 0.37173,-0.17937 0.53082,-0.0453c0.15909,0.13407 0.17937,0.37173 0.0453,0.53082c-0.13407,0.15909 -0.37173,0.17937 -0.53082,0.0453c-0.15909,-0.13407 -0.17937,-0.37173 -0.0453,-0.53082z" fill="#ffffff" stroke="none" stroke-width="0" stroke-linecap="butt"/><path d="M244.55315,174.31293c-0.15909,-0.13406 -0.17938,-0.37173 -0.04531,-0.53082c0.13406,-0.1591 0.37173,-0.17937 0.53082,-0.0453c0.15909,0.13407 0.17937,0.37173 0.0453,0.53082c-0.13407,0.15909 -0.37173,0.17937 -0.53082,0.0453z" fill="#ffffff" stroke="none" stroke-width="0" stroke-linecap="butt"/><path d="M243.03775,174.7825c0.13407,-0.15909 0.37173,-0.17937 0.53082,-0.0453c0.15909,0.13407 0.17937,0.37173 0.0453,0.53082c-0.13407,0.15909 -0.37173,0.17937 -0.53082,0.0453c-0.15909,-0.13407 -0.17937,-0.37173 -0.0453,-0.53082z" fill="#ffffff" stroke="none" stroke-width="0" stroke-linecap="butt"/></g><g data-paper-data="{&quot;index&quot;:null}"><path d="M242.38608,167.82979c0,0 1.83812,-1.06898 3.14526,-1.32444c1.30713,-0.25546 2.83158,0.62654 2.83158,0.62654l-0.45821,0.59636c0,0 -0.97428,-0.74508 -2.21613,-0.4986c-1.24185,0.24648 -2.93884,1.16652 -2.93884,1.16652z" fill="#000000" stroke="none" stroke-width="0" stroke-linecap="butt"/><path d="M247.62308,166.82551l3.64058,0.48852l1.38416,4.32829l-3.99251,-1.52798z" fill="#ea035a" stroke="none" stroke-width="0" stroke-linecap="butt"/><path d="M247.67605,166.9851l4.96505,4.51729" fill="none" stroke="#000000" stroke-width="0.25" stroke-linecap="round"/><path d="M248.6723,170.13614l0.20121,-2.14829l2.47606,-0.76258" fill="none" stroke="#000000" stroke-width="0.25" stroke-linecap="round"/></g></g></g></svg>