<svg version="1.1" xmlns="http://www.w3.org/2000/svg" xmlns:xlink="http://www.w3.org/1999/xlink" width="55.00441" height="75.89661" viewBox="0,0,55.00441,75.89661"><g transform="translate(-210.74375,-130.29093)"><g data-paper-data="{&quot;isPaintingLayer&quot;:true}" fill-rule="nonzero" stroke-linejoin="miter" stroke-miterlimit="10" stroke-dasharray="" stroke-dashoffset="0" style="mix-blend-mode: normal"><g stroke="none" stroke-width="0" stroke-linecap="butt"><path d="M245.1586,190.59506c1.16706,-5.06699 5.72823,-0.74675 6.34598,-1.31499c2.67611,-2.4617 6.11602,-4.80742 8.45623,-2.39163c0.88965,0.9184 -2.52519,3.40422 -5.2013,5.86593c-2.02557,1.86329 -5.68056,3.26285 -7.40073,3.45309c-0.55244,0.06109 -2.65272,-2.7586 -2.20018,-5.61239z" fill="#09031a"/><path d="M250.4247,193.6846c0,0 -1.98564,-2.47621 -0.06869,-4.67376c0.01908,-0.02187 1.38377,-1.34325 2.53873,-1.96309c1.19143,-0.63941 1.93138,-0.18413 1.93138,-0.18413c0,0 -1.72249,1.80718 -2.15659,2.72108c-0.43409,0.91389 -0.20381,2.24823 -0.20381,2.24823z" fill="#b16e27"/><path d="M255.9018,191.27107c2.4042,-2.11275 4.12843,-4.32851 4.12843,-4.32851c0,0 2.71388,-0.07814 -2.41098,4.40018c-0.9271,0.81014 -3.43506,2.97254 -4.75943,3.78341c-2.11846,1.29706 -5.67279,1.30654 -5.82259,1.14369c-0.16551,-0.17993 2.33283,-0.96851 5.07667,-2.44539c1.29242,-0.69564 2.63929,-1.54399 3.7879,-2.55336z" fill="#a75c1e"/><path d="M250.40803,194.82061c-0.49504,-0.53816 -0.22408,-1.59285 0.60523,-2.3557c0.8293,-0.76286 1.9029,-0.94501 2.39795,-0.40684c0.49504,0.53816 0.22408,1.59285 -0.60523,2.35571c-0.82931,0.76286 -1.9029,0.94501 -2.39795,0.40684z" fill="#999999"/><path d="M251.31472,194.07504c-0.14608,-0.1588 0.03424,-0.56234 0.40275,-0.90132c0.36852,-0.33899 0.78567,-0.48505 0.93176,-0.32625c0.14608,0.1588 -0.03424,0.56234 -0.40276,0.90133c-0.36852,0.33899 -0.78567,0.48506 -0.93175,0.32626z" fill="#b16e27"/></g><g><path d="M242.74111,166.65682c2.12384,-1.62447 7.52976,1.02027 12.07446,5.90718c2.42735,2.61012 4.11806,5.33196 4.84299,7.5491c0.03715,0.11362 1.12638,2.53519 1.15843,2.64608c0.51343,1.77657 -0.68673,0.88235 -1.61808,1.59472c-0.90091,0.68908 -0.1343,1.72645 -1.90008,1.03387c-0.28818,-0.11301 -2.84176,-1.35888 -3.14316,-1.50389c-0.70186,-0.33771 -1.43586,-0.76037 -2.18469,-1.25949c-1.60443,-1.06941 -3.27685,-2.48982 -4.84653,-4.17769c-4.54469,-4.88691 -6.50718,-10.16542 -4.38333,-11.7899z" fill="#462fb6" stroke="none" stroke-width="0" stroke-linecap="butt"/><path d="M252.47689,170.29335c0,0 -1.82191,-1.03333 -4.9359,1.4539c-1.88655,1.50683 -2.6002,4.14399 -2.6002,4.14399c0,0 -0.71479,-1.06579 -1.12776,-1.71489c-0.60038,-0.94368 -0.95577,-1.74722 -0.95577,-1.74722c0,0 0.13424,-1.79929 1.62206,-3.28298c1.31744,-1.31377 3.64365,-1.86677 3.64365,-1.86677c0,0 0.8961,0.29864 1.98918,1.13023c0.76924,0.58523 2.36472,1.88372 2.36472,1.88372z" fill="#0d0627" stroke="none" stroke-width="0" stroke-linecap="butt"/><path d="M256.70177,174.86149c0,0 -1.3748,-0.48611 -4.48877,2.00112c-1.88655,1.50683 -2.7447,3.72831 -2.7447,3.72831c0,0 -0.99784,-0.74121 -1.459,-1.20433c-0.46116,-0.46313 -0.99367,-1.18249 -0.99367,-1.18249c0,0 1.17445,-2.58149 2.66227,-4.06518c1.31744,-1.31377 4.53853,-2.19045 4.53853,-2.19045c0,0 0.81547,0.79982 1.28482,1.34992c0.46933,0.55009 1.20053,1.5631 1.20053,1.5631z" fill="#0d0627" stroke="none" stroke-width="0" stroke-linecap="butt"/><path d="M259.50117,179.89868c0,0 -0.97299,-0.65601 -3.25922,1.08259c-1.88655,1.50683 -2.30549,2.77758 -2.30549,2.77758c0,0 -0.76773,-0.33981 -1.17468,-0.59295c-0.40695,-0.25314 -1.45398,-1.08575 -1.45398,-1.08575c0,0 1.4242,-2.27869 2.78594,-3.39701c1.36175,-1.11832 3.86083,-2.06158 3.86083,-2.06158c0,0 0.44219,0.81814 0.86871,1.52763c0.37257,0.61973 0.67789,1.74951 0.67789,1.74951z" fill="#0d0627" stroke="none" stroke-width="0" stroke-linecap="butt"/><path d="M261.24571,182.68474c0,0 1.76332,-0.06347 2.53234,0.49589c0.60633,0.44103 0.33372,1.48957 0.16176,1.58805c-0.07225,0.04137 1.79113,0.75714 1.80795,1.58015c0.02657,1.29976 -1.27881,1.1868 -1.27881,1.1868c0,0 -0.01024,0.65634 -0.3724,0.96703c-0.36217,0.31069 -0.91615,0.50348 -1.14299,0.33294c-0.12642,-0.09503 0.29092,0.25552 -0.01331,0.57898c-0.30421,0.32345 -1.0152,0.51458 -1.0152,0.51458c0,0 -0.09971,0.4137 -0.37495,0.68965c-0.8651,0.86729 -1.51351,-0.84624 -2.09834,-1.69721c-0.8965,-1.30446 -1.11338,-2.51127 -1.16627,-2.64854c-0.1114,-0.28913 -1.90991,-0.06678 -1.86217,-0.5533c0.05726,-0.58363 0.03274,-1.96586 0.78166,-2.44947c0.31362,-0.20251 0.98802,-0.04657 1.36039,0.02905c0.62026,0.12598 -0.76557,-0.53049 -0.19407,-1.15714c0.57151,-0.62665 2.07228,-0.74899 2.07228,-0.74899l0.80212,1.29151z" fill="#c08f5a" stroke="none" stroke-width="0" stroke-linecap="butt"/><path d="M263.94663,184.88979c0,0 -0.66186,0.17833 -1.19018,0.61504c-0.49409,0.40843 -0.8511,1.07827 -1.00864,1.04775c-0.1563,-0.03028 -1.34614,0.62494 -0.85938,-0.93839c0.16753,-0.53806 1.01851,-1.11961 1.01851,-1.11961" fill="none" stroke="#b26a37" stroke-width="0.5" stroke-linecap="round"/><path d="M264.35956,187.46717l-0.72724,-0.39642" fill="none" stroke="#b26a37" stroke-width="0.5" stroke-linecap="round"/><path d="M262.38186,188.59969l0.42419,0.19478" fill="none" stroke="#b26a37" stroke-width="0.5" stroke-linecap="round"/><path d="M261.77052,189.82521l-0.45116,-0.24189" fill="none" stroke="#b26a37" stroke-width="0.5" stroke-linecap="round"/><path d="M260.03308,188.75667c0,0 -0.03729,-0.59043 0.18365,-0.77649c0.2413,-0.20322 0.83821,-0.49651 0.83821,-0.49651" fill="none" stroke="#b26a37" stroke-width="0.5" stroke-linecap="round"/><path d="M258.28075,186.13341c0,0 0.59139,-1.42133 1.06658,-2.00991c0.46345,-0.57404 1.75025,-1.47904 1.75025,-1.47904" fill="none" stroke="#b26a37" stroke-width="1" stroke-linecap="round"/></g><g stroke="none" stroke-linecap="butt"><path d="M217.77431,183.77051c-0.83828,-1.007 -2.61056,-4.55581 -2.61056,-4.55581c0,0 -1.12594,-1.3252 -1.91995,-1.99417c-0.97551,-0.82189 -2.50005,-1.77892 -2.50005,-1.77892c0,0 1.03781,-0.08861 1.94596,0.0039c0.90814,0.09251 2.31613,0.32657 2.31613,0.32657c0,0 -0.66652,-1.05566 -1.02936,-1.96214c-0.36285,-0.90648 -0.71565,-2.39739 -0.71565,-2.39739c0,0 0.64139,0.08578 1.85073,0.77725c1.20934,0.69147 2.97047,1.97939 2.97047,1.97939l-1.01586,-4.47262c0,0 0.91656,0.56427 1.96546,1.54705c1.04891,0.98279 2.53615,2.67079 2.53615,2.67079c0,0 1.22887,-0.63734 1.81767,-1.08095c0.75059,-0.56551 2.31951,-2.03606 2.31951,-2.03606c0,0 -0.86121,2.35076 -1.30623,3.30478c-0.34988,0.75007 -1.14776,1.95604 -1.14776,1.95604c0,0 0.69091,1.97483 0.27976,3.87936c-0.05553,0.25722 0.85258,0.90327 1.88187,0.59202c0.77503,-0.23438 0.3427,1.77663 0.72425,2.64608c0.67264,1.53282 1.45646,2.20355 1.45646,2.20355c0,0 -3.50695,2.97498 -5.4216,2.25399c-1.55901,-0.58707 -3.55909,-2.85567 -4.39737,-3.86269z" fill="#1c0e4c" stroke-width="NaN"/><path d="M217.06726,182.55413c0,0 0.27191,-3.23836 2.69063,-4.35313c2.1238,-0.97884 3.84703,0.8968 3.84703,0.8968l-0.04709,0.82398c0,0 -1.0153,0.20753 -1.85361,0.71128c-0.90861,0.54599 -1.37533,1.64807 -1.50586,2.15977c-0.36666,1.4374 -0.53407,2.97176 -0.53407,2.97176c0,0 -0.98703,-0.90952 -1.41494,-1.4385c-0.43757,-0.54092 -1.18212,-1.77198 -1.18212,-1.77198z" fill="#684af8" stroke-width="0"/><path d="M225.56795,180.71906c0,0 0.0559,0.82361 0.90648,3.08723c0.22219,0.59128 1.06798,1.63352 1.06798,1.63352c0,0 -0.69718,0.54821 -1.24544,0.88482c-0.6285,0.38589 -1.29588,0.80182 -1.37812,0.78084c-0.25409,-0.06482 -1.68827,-2.10801 -1.29198,-3.66156c0.39629,-1.55355 1.94107,-2.72485 1.94107,-2.72485z" fill="#684af8" stroke-width="0"/></g><g stroke="none" stroke-width="0" stroke-linecap="butt"><path d="M235.93736,161.68594c-0.07023,0.40557 -2.41714,2.41612 -2.41714,2.41612c0,0 -3.1213,-3.47244 -6.86889,-5.9436c-2.86628,-2.07244 -7.85905,-4.26215 -7.59822,-4.41529c0.68192,-0.40038 7.9491,1.44869 11.21457,3.06683c3.82079,1.89332 5.82892,3.95633 5.66969,4.87595z" data-paper-data="{&quot;index&quot;:null}" fill="#ffffff"/><path d="M231.07858,156.52346c0.26085,0.51092 0.55987,1.35915 0.55987,1.35915c0,0 -3.56762,-1.69217 -6.44946,-2.80988c-2.81236,-1.09076 -6.46687,-1.39946 -6.18191,-1.525c0.85687,-0.37753 3.36768,-0.18785 6.43868,0.3439c3.071,0.53175 5.16568,1.33501 5.16568,1.33501c0,0 0.20628,0.78589 0.46713,1.29683z" fill="#1a0c47"/><path d="M236.56598,160.86125c-0.10657,0.05534 -0.64314,0.5878 -1.19215,1.22726c-0.85575,0.9967 -1.81819,2.24013 -1.81819,2.24013c0,0 -1.58086,-2.22011 -2.16678,-3.15704c-0.58593,-0.93693 -2.5992,-2.83666 -2.43028,-2.93089c0.1458,-0.08135 2.6011,0.1436 3.8529,0.50406c1.96975,0.56719 3.96096,2.00929 3.75451,2.11649z" data-paper-data="{&quot;index&quot;:null}" fill="#e8e8e8"/><path d="M239.91088,161.0313c0,0 -1.34543,-0.11268 -2.25182,0.00572c-0.90638,0.1184 -1.81072,0.55746 -1.81072,0.55746c0,0 -1.15384,-1.50468 -1.85848,-2.14925c-0.70465,-0.64457 -2.52745,-1.67698 -2.52745,-1.67698l-1.2383,-2.59952c0,0 2.63176,0.49629 5.07479,2.07189c1.60474,1.03496 4.61198,3.7907 4.61198,3.7907z" data-paper-data="{&quot;index&quot;:null}" fill="#684af8"/></g><g stroke="none" stroke-width="0" stroke-linecap="butt"><path d="M254.96226,157.57007c-0.03099,0.52066 -4.40038,0.25197 -5.65308,0.60577c-2.77031,0.78243 -3.72458,1.08294 -3.72458,1.08294l1.42721,-2.66923c0,0 2.38321,-0.22971 4.30798,-0.03162c2.08488,0.21457 3.64742,0.92916 3.64248,1.01212z" fill="#1a0c47"/><path d="M245.5251,159.18275c3.41047,-1.28465 8.88058,-2.01781 9.45278,-1.47199c0.21888,0.20877 -5.17477,1.73944 -7.17408,2.85008c-3.17655,1.7646 -5.24526,4.36576 -5.18982,3.43411c0.05544,-0.93165 -0.49934,-3.52755 2.91112,-4.8122z" fill="#ffffff"/><path d="M245.03274,159.48481c0.14286,0.13039 -0.64643,1.22768 -1.29674,2.29176c-0.67556,1.10543 -1.12681,2.244 -1.12681,2.244c0,0 -0.76444,-2.0024 -0.99751,-2.20264c-0.30308,-0.2604 3.12593,-2.60248 3.42107,-2.33312z" fill="#e8e8e8"/><path d="M238.88859,159.73001c0,0 1.40731,-1.40588 3.20268,-2.05622c1.79539,-0.65034 4.63171,-1.58768 5.30917,-0.91615c0.14137,0.14012 -0.47909,1.25732 -1.29672,2.00533c-0.80603,0.73739 -1.80498,1.10367 -2.27412,1.52287c-0.98017,0.87587 -2.13206,1.56825 -2.13206,1.56825c0,0 -0.55097,-0.62956 -1.19155,-1.10279c-0.6406,-0.47322 -1.61739,-1.02129 -1.61739,-1.02129z" fill="#684af8"/></g><path d="M226.72188,169.38957c-0.16201,-0.43534 0.75255,-1.23536 2.12879,-1.7475c1.37625,-0.51215 2.44343,-0.59084 2.44343,-0.59084c0,0 4.38403,1.81531 4.16759,2.53198c-0.13699,0.4536 -3.04223,3.10917 -3.83624,3.32085c-0.08789,0.02343 -0.81067,1.41581 -0.81067,1.41581c0,0 -0.44888,-0.53919 -0.50354,-1.25658c-0.04519,-0.59289 0.1525,-1.42381 0.06339,-1.27729c-0.50176,0.82493 -0.93812,1.71354 -0.93812,1.71354c0,0 -0.31887,-0.50838 -0.27074,-1.15737c0.03923,-0.52906 0.28702,-1.16537 0.20052,-1.13398c-0.4405,0.15987 -1.10959,0.459 -1.10959,0.459c0,0 -0.13223,-0.91819 -0.02766,-1.32543c0.10456,-0.40724 0.59805,-0.89611 0.59805,-0.89611c0,0 -0.69551,-0.04019 -1.19438,0.00428c-0.41872,0.03732 -0.83689,0.13827 -0.91082,-0.06038z" fill="#5133c8" stroke="none" stroke-width="NaN" stroke-linecap="butt"/><g stroke="none" stroke-width="0" stroke-linecap="butt"><path d="M225.22677,179.5558c0.36105,-4.67416 6.60284,-14.13361 14.01795,-14.16248c6.11495,-0.02381 11.83423,6.23281 14.01796,14.16248c-0.10852,8.90697 -6.27606,14.16248 -14.01795,14.16248c-7.74189,0 -13.90942,-2.54239 -14.01794,-14.16248z" fill="#684af8"/><path d="M234.5816,168.93123c0,0 2.2054,-0.1074 3.59759,0.18214c1.39219,0.28954 2.66429,1.12016 2.66429,1.12016c0,0 1.88375,-1.19776 3.23827,-1.25872c1.55805,-0.07012 2.23196,0.44142 2.23196,0.44142c0,0 0.48158,-0.82409 0.87359,-1.26625c0.39201,-0.44216 1.34137,-1.23206 1.34137,-1.23206l0.06904,3.32415c0,0 0.80036,-0.29692 1.33701,-0.33867c0.53664,-0.04175 1.22134,0.13963 1.22134,0.13963c0,0 -0.30325,0.41511 -0.7286,1.13955c-0.26727,0.4552 -0.40113,0.94282 -0.40113,0.94282l0.19524,0.54727l1.48771,-0.75986c0,0 0.0699,0.59011 -0.16475,1.22149c-0.16756,0.45088 -0.54933,0.9897 -0.54933,0.9897c0,0 2.22528,1.38844 1.90041,6.77972c-0.22792,3.78233 -1.07871,6.33313 -5.01711,9.16454c-1.52681,1.09765 -6.56077,3.25135 -8.35927,0.3774c-2.27883,-3.64148 -0.31336,-11.62196 -1.3122,-12.86655c-1.18311,-1.47421 -3.35414,-1.78911 -3.35414,-1.78911c0,0 0.65257,-0.50406 1.04185,-0.66528c0.64189,-0.26584 0.90059,-0.27207 0.90059,-0.27207c0,0 -0.67066,-0.80409 -1.90249,-1.66517c-0.91102,-0.63682 -1.25512,-0.93794 -1.25512,-0.93794c0,0 0.72203,-0.34798 1.16935,-0.3976c1.44747,-0.16059 2.07638,0.17816 2.07638,0.17816c0,0 -0.79042,-1.206 -1.3404,-1.94638c-0.54996,-0.74039 -0.96148,-1.15249 -0.96148,-1.15249z" fill="#ffffff"/></g><path d="M231.64153,166.58029c-0.73163,-1.96606 1.54412,-4.62745 5.08302,-5.94439c3.5389,-1.31694 6.98512,-0.7848 7.73249,1.17533c0.96393,2.52807 -1.54411,4.62745 -5.08301,5.94439c-3.5389,1.31694 -7.00086,0.79073 -7.7325,-1.17533z" fill="#684af8" stroke="none" stroke-width="0" stroke-linecap="butt"/><path d="M240.99298,162.92665c-0.43576,0.19394 -1.87769,-0.83299 -2.90474,-1.13521c-1.66008,-0.48849 -2.37783,-0.69127 -2.37783,-0.69127c0,0 0.82535,-0.4274 1.87039,-0.80927c1.29989,-0.47499 1.73028,-0.32801 1.73028,-0.32801c0,0 2.47598,2.61038 1.68189,2.96378z" fill="#1c0e4c" stroke="none" stroke-width="0" stroke-linecap="butt"/><path d="M243.98893,162.06406c0.60513,0.92061 0.7577,2.26301 0.15985,2.6657c-0.59785,0.4027 -1.71974,-0.28679 -2.32487,-1.2074c-0.60513,-0.92061 -0.61104,-1.99335 -0.01319,-2.39605c0.59785,-0.4027 1.57306,0.01715 2.1782,0.93774z" fill="#1c0e4c" stroke="none" stroke-width="0" stroke-linecap="butt"/><g stroke="none" stroke-width="0" stroke-linecap="butt"><path d="M241.53667,163.18746c-0.13065,-0.35109 0.04804,-0.74159 0.39913,-0.87224c0.35109,-0.13065 0.74159,0.04804 0.87224,0.39912c0.13065,0.35109 -0.04804,0.7416 -0.39912,0.87225c-0.35109,0.13065 -0.7416,-0.04804 -0.87225,-0.39913z" fill="#ffff9b"/><path d="M241.91565,163.0637c-0.05703,-0.15325 0.02096,-0.32372 0.17423,-0.38075c0.15324,-0.05703 0.32372,0.02096 0.38075,0.17423c0.05703,0.15325 -0.02096,0.32372 -0.17423,0.38075c-0.15324,0.05703 -0.32372,-0.02097 -0.38075,-0.17423z" fill="#000000"/></g><path d="M239.32659,162.97006c1.60361,0.87771 2.41845,2.47556 1.82002,3.56892c-0.59843,1.09336 -2.38353,1.26819 -3.98713,0.3905c-1.60361,-0.87771 -2.41845,-2.47556 -1.82002,-3.56892c0.59843,-1.09336 2.38354,-1.2682 3.98713,-0.3905z" fill="#1c0e4c" stroke="none" stroke-width="0" stroke-linecap="butt"/><g stroke="none" stroke-width="0" stroke-linecap="butt"><path d="M239.1203,164.93446c-0.18813,-0.50555 0.06919,-1.0679 0.57475,-1.25604c0.50555,-0.18813 1.0679,0.06919 1.25604,0.57474c0.18813,0.50555 -0.06919,1.0679 -0.57474,1.25604c-0.50555,0.18813 -1.06791,-0.06918 -1.25605,-0.57474z" fill="#ffff9b"/><path d="M239.66603,164.75622c-0.08212,-0.22068 0.0302,-0.46614 0.25089,-0.54827c0.22068,-0.08212 0.46614,0.0302 0.54826,0.25088c0.08212,0.22068 -0.0302,0.46614 -0.25088,0.54826c-0.22068,0.08212 -0.46615,-0.0302 -0.54827,-0.25087z" fill="#000000"/></g><path d="M230.20509,166.75352c1.92249,-0.43844 1.89169,0.16432 1.89169,0.16432c0,0 -0.97456,-0.59677 -1.41854,-0.859c-0.49766,-0.29396 -1.42476,-0.82048 -1.42476,-0.82048c0,0 0.97382,-0.51767 2.95115,0.34119c1.01289,0.43995 1.97563,1.00593 1.97563,1.00593c0,0 0.2595,-0.09793 1.7985,-0.03336c1.539,0.06457 2.5858,0.72394 4.00525,0.25583c0.88961,-0.35101 1.78682,-1.80171 2.44913,-2.06094c0.39926,-0.15627 1.14799,-0.35282 1.35778,-0.04906c0.01894,0.02742 0.21483,-0.074 0.41262,-0.60465c0.11619,-0.31174 0.25347,-0.83316 0.39178,-1.15596c0.27065,-0.6317 0.60534,-1.13319 0.60534,-1.13319l0.24145,1.6116c0,0 0.13171,-0.18099 0.33397,-0.3102c0.20227,-0.12921 0.55764,-0.25938 0.55764,-0.25938l-0.34053,1.57333l0.59188,0.59163c0,0 -0.66533,0.30471 -0.90174,0.27343c-0.23641,-0.03127 -0.29281,-0.11717 -0.29281,-0.11717c0,0 -0.25831,0.48323 -0.57786,0.841c-0.31955,0.35776 -1.06302,0.64308 -1.06302,0.64308c0,0 -0.266,0.3425 -0.61116,0.47767c-7.27562,3.45457 -9.4703,1.70768 -9.4703,1.70768c0,0 -0.89487,0.32147 -1.87362,0.65985c-0.97874,0.33839 -2.47451,0.95823 -2.47451,0.95823c0,0 0.65492,-1.06932 1.10769,-1.49253c0.45277,-0.4232 1.36228,-0.81618 1.36228,-0.81618c0,0 -0.67845,-0.18075 -1.56077,-0.2844c-0.88231,-0.10366 -2.31167,-0.39768 -2.22328,-0.16016c0.03402,0.09142 0.27661,-0.50971 2.1991,-0.94815z" fill="#ffffff" stroke="none" stroke-width="0" stroke-linecap="butt"/><path d="M242.83,165.45823c-0.06039,-0.16228 0.11687,-0.3111 0.44142,-0.43188c0.32456,-0.12078 0.55598,-0.12404 0.61637,0.03824c0.06039,0.16228 -0.20413,0.49611 -0.39156,0.56586c-0.16784,0.06246 -0.60584,-0.00996 -0.66623,-0.17223z" fill="#000000" stroke="none" stroke-width="0" stroke-linecap="butt"/><path d="M240.6046,167.83229c0,0 0.46749,-0.53461 0.91958,-0.80591c0.29792,-0.17877 0.84144,-0.15004 1.40994,-0.35809c0.46347,-0.16961 0.87087,-1.01703 1.25286,-1.21431c0.47658,-0.24612 1.31407,-0.04816 1.31407,-0.04816" data-paper-data="{&quot;index&quot;:null}" fill="none" stroke="#000000" stroke-width="0.5" stroke-linecap="round"/><g stroke="none" stroke-width="0" stroke-linecap="butt"><path d="M248.88594,184.16087c2.86747,-0.89765 4.2596,-2.90303 4.2596,-2.90303c0,0 0.3344,2.89 -0.59867,4.22029c-0.24278,0.34614 -1.06118,1.32831 -2.24807,1.9405c-1.91925,0.98995 -4.6686,1.62586 -4.6686,1.62586c0,0 0.29182,-1.9841 0.28415,-2.08509c-0.04962,-0.65407 -0.36555,-1.84894 -0.36555,-1.84894c0,0 1.28951,-0.30857 3.33714,-0.94959z" fill="#f0993f"/><path d="M246.72552,186.60977c0,-0.36184 0.22628,-0.65517 0.50541,-0.65517c0.27913,0 0.50541,0.29333 0.50541,0.65517c0,0.36184 -0.22628,0.65516 -0.50541,0.65516c-0.27913,0 -0.50541,-0.29333 -0.50541,-0.65516z" fill="#a94a00"/><path d="M246.75543,186.59972c0,-0.20828 0.13025,-0.37712 0.29093,-0.37712c0.16067,0 0.29092,0.16884 0.29092,0.37712c0,0.20828 -0.13025,0.37712 -0.29092,0.37712c-0.16067,0 -0.29093,-0.16884 -0.29093,-0.37712z" fill="#ffffff"/><path d="M249.02625,185.8284c0,-0.36184 0.22628,-0.65517 0.50541,-0.65517c0.27913,0 0.50542,0.29333 0.50542,0.65517c0,0.36184 -0.22629,0.65517 -0.50542,0.65517c-0.27913,0 -0.50541,-0.29333 -0.50541,-0.65517z" fill="#a94a00"/><path d="M249.04185,185.82032c0,-0.20828 0.13025,-0.37712 0.29092,-0.37712c0.16067,0 0.29093,0.16884 0.29093,0.37712c0,0.20828 -0.13025,0.37712 -0.29093,0.37712c-0.16067,0 -0.29092,-0.16884 -0.29092,-0.37712z" fill="#ffffff"/></g><g data-paper-data="{&quot;index&quot;:null}" stroke="none" stroke-width="0" stroke-linecap="butt"><path d="M230.64165,203.78664c-2.2861,2.66266 -4.66283,0.5624 -5.99653,-0.73431c-0.33303,-0.32379 -1.83419,-2.8217 -1.69266,-4.2175c0.31505,-3.107 3.02517,-6.3382 4.18798,-7.53416c0.63312,-0.65116 -0.14444,-3.07855 1.38976,-2.6812c1.62284,0.4203 5.56043,3.70083 6.23208,4.2555c0.38352,0.31672 -2.36623,-0.04672 -2.12246,0.1903c0.46428,0.45141 -1.14983,4.52436 -1.38589,6.04646c-0.31018,2.00004 0.28194,3.63342 -0.61229,4.67493z" fill="#1c0e4c"/><path d="M231.59132,199.45237c0,0 -0.57652,-1.18261 -2.38744,-2.77534c-1.81091,-1.59273 -5.68669,-1.62382 -5.68669,-1.62382c0,0 1.50711,-5.57862 7.24646,-0.97679c2.90344,2.32799 0.82769,5.37595 0.82769,5.37595z" fill="#f0993f"/><path d="M231.93918,199.25227c-0.39981,0.73774 -0.93752,1.22003 -1.201,1.07724c-0.26348,-0.14281 -0.15294,-0.85661 0.24687,-1.59435c0.39981,-0.73774 0.93752,-1.22003 1.201,-1.07724c0.26348,0.1428 0.15294,0.85661 -0.24687,1.59435z" fill="#c3c3c3"/><path d="M224.19981,194.47565c0.1302,-0.24124 0.43471,0.50558 0.43471,0.50558c0,0 -1.23853,1.87937 -1.44854,3.8371c-0.16983,1.5833 0.53432,3.18313 1.53236,4.15351c2.26053,2.19786 4.69199,1.83735 4.69199,1.83735c0,0 -0.9476,3.45398 -5.07331,-0.57334c-4.67726,-4.5657 -2.02573,-6.26098 -0.13721,-9.76018z" fill="#f0993f"/><g><path d="M223.72258,193.28514c0.88577,-0.91103 1.95221,-1.31086 2.38193,-0.89304c0.42973,0.41782 0.06004,1.49506 -0.82574,2.40609c-0.88575,0.91102 -1.95219,1.31086 -2.38191,0.89304c-0.42972,-0.41781 -0.06004,-1.49506 0.82573,-2.40609z" fill="#c3c3c3"/><path d="M225.49744,193.3155c0.15811,0.15372 0.02208,0.55006 -0.30381,0.88526c-0.32589,0.33518 -0.71826,0.48229 -0.87637,0.32856c-0.15811,-0.15372 -0.02208,-0.55005 0.30381,-0.88525c0.3259,-0.33519 0.71825,-0.4823 0.87636,-0.32857z" fill="#dd6c23"/></g></g><g stroke="none" stroke-width="0" stroke-linecap="butt"><path d="M238.13998,185.63424c0.11388,1.113 0.47751,3.84901 0.47751,3.84901c0,0 -2.67312,0.20032 -4.37383,0.05451c-1.70071,-0.14581 -2.60984,-0.11133 -4.20369,-0.55798c-1.59385,-0.44665 -3.03816,-1.29022 -3.37467,-1.56573c-0.71099,-0.58211 -1.12865,-3.96478 -1.12865,-3.96478c0,0 3.46277,0.96024 7.09407,1.54997c2.5232,0.40977 5.49148,0.46106 5.50927,0.635z" fill="#f0993f"/><g><g><path d="M233.82674,192.39489c0.28991,-1.40937 4.27289,-6.48435 4.99213,-6.48435c0.4793,0 0.59835,1.49567 1.04973,3.57725c0.11246,0.51862 -0.3604,1.0051 -0.77619,1.90859c-0.41966,0.9119 -0.78323,2.23948 -0.87042,2.46359c-0.19429,0.49938 -3.25574,1.70926 -3.25574,1.70926c0,0 -1.29866,-2.40066 -1.13951,-3.17435z" fill="#f0993f"/><g><path d="M237.93277,187.92175c-0.50772,-2.24077 0.89718,-4.46886 3.13795,-4.97659c2.24077,-0.50772 4.46886,0.89718 4.97659,3.13795c0.50772,2.24077 -0.89718,4.46886 -3.13795,4.97659c-2.24077,0.50772 -4.46886,-0.89718 -4.97658,-3.13795z" fill="#fde02b"/><path d="M240.27958,187.2557c-0.23577,-1.04056 0.41663,-2.07524 1.45719,-2.31101c1.04056,-0.23577 2.07524,0.41663 2.31101,1.4572c0.23577,1.04056 -0.41663,2.07523 -1.45719,2.31101c-1.04056,0.23577 -2.07524,-0.41663 -2.31101,-1.45719z" fill="#f4a51d"/><path d="M242.66154,186.82151c0.09884,0.43618 -0.56668,0.95874 -1.48647,1.16715c-0.91978,0.20842 -1.74553,0.02376 -1.84437,-0.41243c-0.09884,-0.43618 0.56668,-0.95874 1.48647,-1.16714c0.91978,-0.20842 1.74554,-0.02376 1.84437,0.41243z" fill="#fffed5"/></g></g><g><path d="M235.59688,192.24704c0,-0.39558 0.32068,-0.71626 0.71626,-0.71626c0.39558,0 0.71626,0.32068 0.71626,0.71626c0,0.39558 -0.32068,0.71627 -0.71626,0.71627c-0.39558,0 -0.71626,-0.32069 -0.71626,-0.71627z" fill="#934200"/><path d="M235.64029,192.13852c0,-0.1918 0.15548,-0.34728 0.34727,-0.34728c0.1918,0 0.34727,0.15548 0.34727,0.34728c0,0.1918 -0.15548,0.34727 -0.34727,0.34727c-0.1918,0 -0.34727,-0.15548 -0.34727,-0.34727z" fill="#1c0e4c"/></g><g><path d="M236.89918,190.25016c0,-0.39558 0.32068,-0.71626 0.71626,-0.71626c0.39558,0 0.71627,0.32068 0.71627,0.71626c0,0.39558 -0.32069,0.71626 -0.71627,0.71626c-0.39558,0 -0.71626,-0.32068 -0.71626,-0.71626z" fill="#934200"/><path d="M236.94258,190.14165c0,-0.1918 0.15548,-0.34727 0.34727,-0.34727c0.1918,0 0.34728,0.15548 0.34728,0.34727c0,0.1918 -0.15548,0.34727 -0.34728,0.34727c-0.1918,0 -0.34727,-0.15548 -0.34727,-0.34727z" fill="#684af8"/></g></g></g><g fill="#000000" stroke-width="0" stroke-linecap="butt"><path d="M238.31621,150.65508l-15.93659,-16.28208l1.27496,-1.24791l15.93659,16.28208z" stroke="#b26a37"/><path d="M238.06015,150.43524l1.42649,-1.14117c0,0 1.83618,2.23495 3.61138,0.62933c1.76855,-1.5996 -0.14438,-4.15211 -0.14438,-4.15211c0,0 -0.43264,-0.50611 -0.11444,-0.83893c0.40199,-0.42048 0.87858,-0.0347 0.87858,-0.0347c0,0 0.27384,0.2998 0.39212,0.45932c1.21218,1.6349 1.11779,3.89475 -0.30563,5.28797c-1.39845,1.36878 -3.60568,1.4371 -5.20804,0.25661c-0.18776,-0.13832 -0.53607,-0.46631 -0.53607,-0.46631z" stroke="none"/></g><g stroke="none" stroke-width="0" stroke-linecap="butt"><path d="M231.27741,144.29915l-10.18464,-12.51574l-0.18806,-0.56921l12.71135,10.79592z" fill="#462fb6"/><path d="M223.10052,143.79666l-1.5139,-11.76486l5.97697,12.89796z" fill="#462fb6"/><path d="M234.20049,138.33416l-12.44596,-6.20506l11.53478,1.89418z" data-paper-data="{&quot;index&quot;:null}" fill="#462fb6"/><path d="M227.51255,144.89712l-6.43882,-13.31525l10.20368,12.71727z" fill="#d9874c"/><path d="M233.56928,142.05591l-12.40493,-10.47502l13.0601,6.74674z" data-paper-data="{&quot;index&quot;:null}" fill="#d9874c"/></g><path d="M220.78882,134.26788l-0.82202,-2.83467l1.13608,-1.14229l2.65428,1.0716z" fill="#000000" stroke="none" stroke-width="0" stroke-linecap="butt"/><g><g data-paper-data="{&quot;index&quot;:null}" stroke="none" stroke-width="0" stroke-linecap="butt"><path d="M233.20903,176.75737c-2.49383,-0.96455 -3.05752,-6.95628 -1.259,-13.38291c0.96059,-3.43249 2.40077,-6.2948 3.91416,-8.06987c0.07756,-0.09097 1.57532,-2.28349 1.6532,-2.36867c1.24785,-1.3648 1.11102,0.12561 2.20463,0.54859c1.05785,0.40915 1.54297,-0.78606 1.87325,1.08172c0.0539,0.30481 0.3231,3.13331 0.3566,3.46612c0.07801,0.77496 0.10032,1.62168 0.06513,2.52091c-0.0754,1.9267 -0.41479,4.09449 -1.03598,6.31416c-1.79852,6.42663 -5.27816,10.85451 -7.772,9.88996z" fill="#684af8"/><path d="M231.23281,166.55422c0,0 0.06884,2.09342 3.81526,3.45264c2.26969,0.82346 4.89187,0.05662 4.89187,0.05662c0,0 -0.53642,1.16579 -0.87476,1.85672c-0.49191,1.00449 -0.99206,1.72687 -0.99206,1.72687c0,0 -1.6051,0.82408 -3.64705,0.32872c-1.80811,-0.43864 -3.49339,-2.13478 -3.49339,-2.13478c0,0 -0.21267,-0.9203 -0.0734,-2.28668c0.09801,-0.96157 0.37353,-3.00013 0.37353,-3.00013z" fill="#1c0e4c"/><path d="M232.92617,160.56676c0,0 0.30246,1.42649 4.04888,2.78572c2.26969,0.82346 4.61262,0.39675 4.61262,0.39675c0,0 -0.11183,1.23797 -0.26638,1.87301c-0.15455,0.63504 -0.49049,1.46462 -0.49049,1.46462c0,0 -2.81508,0.34466 -4.85702,-0.1507c-1.80811,-0.43864 -4.23636,-2.7294 -4.23636,-2.7294c0,0 0.25697,-1.11295 0.48145,-1.80033c0.22449,-0.68738 0.7073,-1.83965 0.7073,-1.83965z" fill="#1c0e4c"/><path d="M235.76336,155.55071c0,0 -0.05212,1.17231 2.62381,2.21588c2.26969,0.82346 3.57238,0.51799 3.57238,0.51799c0,0 0.11059,0.83226 0.1069,1.31151c-0.00368,0.47925 -0.16782,1.80687 -0.16782,1.80687c0,0 -2.68702,-0.02636 -4.35149,-0.60476c-1.66447,-0.5784 -3.77289,-2.21845 -3.77289,-2.21845c0,0 0.46732,-0.80404 0.85012,-1.53803c0.33438,-0.64115 1.13897,-1.491 1.13897,-1.491z" fill="#1c0e4c"/></g><g><path d="M236.87411,147.98931c0.10708,-0.3512 0.70376,-0.3589 0.95238,-0.1091c0.24863,0.2498 -0.13169,1.22058 0.09841,1.16483c0.26586,-0.06444 0.24281,-1.28025 0.30149,-1.23962c0.06844,0.04739 -0.15247,-0.8143 0.5831,-1.18386c1.16166,-0.58363 1.62177,0.64319 1.62177,0.64319c0,0 0.5968,-0.27337 1.03315,-0.08026c0.43635,0.19311 0.84888,0.61008 0.79264,0.88825c-0.03134,0.15501 0.10535,-0.37259 0.52829,-0.23729c0.42292,0.1353 0.90156,0.6947 0.90156,0.6947c0,0 0.41632,-0.08814 0.78389,0.04147c1.15527,0.40736 -0.11209,1.73038 -0.62833,2.62464c-0.79133,1.3708 -1.78716,2.08618 -1.88828,2.19302c-0.213,0.22503 0.7621,1.75253 0.30243,1.91893c-0.55141,0.1996 -1.78838,0.8169 -2.54733,0.3492c-0.31782,-0.19586 -0.46746,-0.8717 -0.55954,-1.24034c-0.15338,-0.61406 -0.14915,0.91938 -0.96082,0.67339c-0.81167,-0.24599 -1.56827,-1.54784 -1.56827,-1.54784l0.82027,-1.28004c0,0 -1.38162,-1.60079 -0.5668,-4.27326z" fill="#ffc281" stroke="none" stroke-width="0" stroke-linecap="butt"/><path d="M240.41658,147.3929l-0.04466,0.82707" fill="none" stroke="#d9874c" stroke-width="0.5" stroke-linecap="round"/><path d="M242.2903,148.69019l-0.00684,-0.46673" fill="none" stroke="#d9874c" stroke-width="0.5" stroke-linecap="round"/><path d="M243.63556,149.22569l0.02405,-0.51135" fill="none" stroke="#d9874c" stroke-width="0.5" stroke-linecap="round"/><path d="M241.83019,153.45365c0,0 -1.53745,0.07824 -2.2733,-0.09722c-0.71764,-0.17112 -2.08854,-0.94286 -2.08854,-0.94286" fill="none" stroke="#d9874c" stroke-width="1" stroke-linecap="round"/></g></g></g></g></svg>