<svg version="1.1" xmlns="http://www.w3.org/2000/svg" xmlns:xlink="http://www.w3.org/1999/xlink" width="33.15266" height="36.73051" viewBox="0,0,33.15266,36.73051"><g transform="translate(-224.03674,-163.58273)"><g data-paper-data="{&quot;isPaintingLayer&quot;:true}" fill-rule="nonzero" stroke-miterlimit="10" stroke-dasharray="" stroke-dashoffset="0" style="mix-blend-mode: normal"><g data-paper-data="{&quot;index&quot;:null}" stroke-width="0" stroke-linecap="butt" stroke-linejoin="miter"><g data-paper-data="{&quot;index&quot;:null}"><path d="M244.63763,164.72982c0.42926,0.97298 -0.01443,2.11101 -0.99099,2.54185c-0.97656,0.43084 -2.1162,-0.00865 -2.54546,-0.98163c-0.42926,-0.97298 0.01441,-2.111 0.99097,-2.54184c0.97656,-0.43083 2.11622,0.00865 2.54548,0.98163z" fill="#e0cb17" stroke="none"/><path d="M243.67075,167.15085c-0.60333,0.26618 -1.30739,-0.00534 -1.57259,-0.60645c-0.2652,-0.60112 0.0089,-1.30417 0.61223,-1.57035c0.60333,-0.26618 1.30739,0.00534 1.57259,0.60645c0.2652,0.60111 -0.0089,1.30417 -0.61223,1.57035z" fill="#e0cb17" stroke="#000000"/><path d="M243.93535,167.68427c-0.53551,0.23342 -1.33915,0.20142 -1.33915,0.20142l0.06056,-0.56218c0,0 0.71817,0.04673 1.12328,-0.16014c0.40512,-0.20688 0.81687,-0.83062 0.81687,-0.83062l0.47433,0.53552c0,0 -0.66723,0.61172 -1.1359,0.81601z" fill="#dbded5" stroke="#000000"/></g><g data-paper-data="{&quot;index&quot;:null}" stroke="none"><path d="M239.90779,173.56205c0.18407,-0.08121 0.46992,0.16268 0.63848,0.54474c0.16855,0.38205 0.15597,0.75761 -0.02809,0.83882c-0.18407,0.0812 -0.46991,-0.16269 -0.63847,-0.54475c-0.16856,-0.38206 -0.15599,-0.7576 0.02807,-0.83881z" fill="#000000"/><path d="M240.75113,178.95548c0.19173,-0.08459 1.7694,1.56643 1.7694,1.56643c0,0 -0.82657,0.72829 -1.0183,0.81288c-0.19172,0.08458 -1.00119,-0.87808 -1.07536,-1.04619c-0.07416,-0.16811 0.13255,-1.24853 0.32428,-1.33312z" fill="#807d5a"/><path d="M240.20894,174.83116l-0.21874,-0.24509l2.0724,-7.36045l0.18139,0.08526z" fill="#6e6e73"/><path d="M241.75689,167.91142l0.43572,0.16038l-0.52452,1.71899l-0.40795,-0.17263z" fill="#ddcb1e"/></g></g><g data-paper-data="{&quot;index&quot;:null}" stroke-width="0" stroke-linecap="butt" stroke-linejoin="miter"><g data-paper-data="{&quot;index&quot;:null}"><path d="M224.24683,174.97283c-0.55067,-1.24818 0.0185,-2.70807 1.27127,-3.26077c1.25278,-0.5527 2.71475,0.0111 3.26542,1.25927c0.55067,1.24818 -0.0185,2.70806 -1.27127,3.26076c-1.25277,0.5527 -2.71475,-0.01109 -3.26542,-1.25926z" fill="#e0cb17" stroke="none"/><path d="M225.35955,175.37247c-0.34021,-0.77113 0.01143,-1.67305 0.78539,-2.0145c0.77396,-0.34146 1.67716,0.00684 2.01737,0.77797c0.3402,0.77112 -0.01142,1.67306 -0.78538,2.01451c-0.77396,0.34146 -1.67717,-0.00685 -2.01738,-0.77798z" fill="#e0cb17" stroke="#000000"/><path d="M227.65347,176.86248c-0.59887,0.26739 -1.75549,0.37057 -1.75549,0.37057l-0.09721,-0.91257c0,0 0.9471,0.1493 1.49345,-0.05564c0.54636,-0.20494 1.12316,-0.92584 1.12316,-0.92584l0.58504,0.42881c0,0 -0.66467,0.78914 -1.34894,1.09465z" fill="#dbded5" stroke="#000000"/></g><g data-paper-data="{&quot;index&quot;:null}" stroke="none"><path d="M236.54405,180.93776c0.01704,-0.47117 -0.70893,-2.84656 0.48782,-3.33213c0.18574,-0.07537 2.12436,0.48782 2.76145,1.35073c0.86663,1.1738 0.45801,2.76299 0.45801,2.76299l-2.8581,1.23973c0,0 -0.86626,-1.55017 -0.84921,-2.02133z" fill="#e4dcaa"/><path d="M236.7058,178.12952c0.23613,-0.10418 0.60284,0.20869 0.81907,0.69881c0.21623,0.49012 0.20009,0.9719 -0.03603,1.07607c-0.23612,0.10418 -0.60282,-0.2087 -0.81905,-0.69882c-0.21623,-0.49013 -0.20011,-0.97189 0.03601,-1.07606z" fill="#000000"/><path d="M238.41422,184.89595c-0.47699,-0.71591 -1.02997,-1.94866 -1.02997,-1.94866c0,0 0.37883,-0.54447 0.66881,-0.78987c0.28998,-0.2454 0.82121,-0.53609 0.82121,-0.53609l1.44327,0.22111c0,0 1.39484,2.65027 1.56109,2.99516c0.33481,0.6946 -0.73971,1.79645 -0.73971,1.79645l-1.27505,0.03493c0,0 -0.97268,-1.05711 -1.44967,-1.77302z" fill="#dfcc17"/><path d="M241.04074,186.62409c0,0 -0.19997,-2.92266 0.046,-3.03118c0.24597,-0.10851 1.44844,0.63001 1.54358,0.84566c0.09514,0.21565 0.30724,1.81517 0.06127,1.92369c-0.24596,0.10851 -1.65084,0.26185 -1.65084,0.26185z" fill="#807d5a"/><path d="M228.76243,174.93696l0.07609,-0.24561l8.76628,4.40182l0.04306,0.41921z" fill="#6e6e73"/><path d="M231.79944,176.00015l-0.18923,0.53583l-2.08237,-0.98962l0.22487,-0.55154z" fill="#ddcb1e"/></g></g><path d="M239.69269,171.03332c0,0 -1.25126,-0.47845 -2.06277,0.10758c-1.31167,0.94724 -0.34957,2.76412 -0.34957,2.76412c0,0 -0.78687,-1.15719 -0.37022,-2.10999c0.27504,-0.629 0.51169,-0.914 1.20727,-1.05475c0.77943,-0.15772 1.57529,0.29302 1.57529,0.29302z" data-paper-data="{&quot;index&quot;:null}" fill="#000000" stroke="none" stroke-width="0" stroke-linecap="butt" stroke-linejoin="miter"/><path d="M237.13649,166.69104c3.17476,-1.03168 6.46969,0.35159 7.35944,3.0896c0.88975,2.73802 -0.96262,5.79395 -4.13738,6.82562c-3.17476,1.03167 -6.46968,-0.35159 -7.35943,-3.0896c-0.88975,-2.73802 0.9626,-5.79396 4.13736,-6.82563z" data-paper-data="{&quot;index&quot;:null}" fill="#f79eb4" stroke="none" stroke-width="0" stroke-linecap="butt" stroke-linejoin="miter"/><path d="M244.84545,171.5026c0.00099,-0.01726 0.35712,0.9821 0.0544,2.4936c-0.48103,2.43731 -1.87054,2.94953 -1.87054,2.94953l-0.01281,-0.9539c0,0 0.94326,-2.11955 1.13002,-2.86101c0.18675,-0.74145 0.01364,-1.91335 0.01368,-1.91262" data-paper-data="{&quot;index&quot;:null}" fill="#f79eb4" stroke="#f89db5" stroke-width="0" stroke-linecap="butt" stroke-linejoin="round"/><g data-paper-data="{&quot;index&quot;:null}" fill="#ffd5c5" stroke="none" stroke-width="1" stroke-linecap="round" stroke-linejoin="round"><path d="M244.02316,173.7813c0.27716,0.47211 -0.01542,1.05135 -0.29646,1.46636c-0.04599,0.06789 -0.40712,0.5976 -1.11362,1.12062c-0.8865,0.65625 -2.26078,0.89457 -2.6524,0.97259c-0.46705,0.09299 -1.43077,-0.14908 -1.60188,-0.24433c-1.23152,-0.68555 -0.70253,-1.38229 -0.63043,-1.48824c0.0344,-0.05051 0.26049,-0.23019 0.59666,-0.22554c0.32766,0.00453 1.27959,0.18852 1.55348,0.08643c0.29427,-0.10969 1.7716,-1.21039 2.63485,-1.48967c0.18002,-0.05615 0.43556,-0.07295 0.61646,-0.00698c0.23545,0.08591 0.60788,0.27592 0.78151,-0.04924c0.02808,-0.05265 0.08156,-0.19346 0.1118,-0.14202z"/><path d=""/></g><g data-paper-data="{&quot;index&quot;:null}" fill="#000000" stroke="none" stroke-width="1" stroke-linecap="round" stroke-linejoin="round"><path d="M242.4464,174.30746c0.10853,-0.14888 0.62976,-0.25673 0.73721,-0.2213c0.18588,0.06128 -0.09777,0.41292 -0.20461,0.43991c-0.23837,0.04009 -0.67539,-0.02271 -0.5326,-0.21861z"/><path d=""/></g><path d="M236.89216,173.27449c0.00308,-0.05674 0.49099,1.83373 0.78377,2.66437c0.55138,1.5642 1.23341,2.42383 1.23341,2.42383c0,0 -0.41268,-0.11237 -0.51629,-0.15389c-0.32009,-0.1282 -0.60994,-0.26408 -0.90601,-0.4465c-0.69636,-0.4291 -1.26739,-1.0288 -1.72067,-1.70636c-0.30209,-0.45156 -1.16181,-2.57938 -1.14435,-2.59951" data-paper-data="{&quot;index&quot;:null}" fill="#f79eb4" stroke="#f89db5" stroke-width="0" stroke-linecap="butt" stroke-linejoin="round"/><path d="M234.52232,173.45573c-0.00939,0.01845 1.13671,2.59102 1.51651,3.28586c0.37979,0.69484 1.1813,1.64969 1.1813,1.64969c0,0 -0.41076,0.06676 -1.14023,-0.3597c-0.64412,-0.37658 -0.99689,-0.55882 -1.59109,-1.4668c-0.77104,-1.17822 -1.44551,-2.92147 -1.38568,-3.31888" data-paper-data="{&quot;index&quot;:null}" fill="#f79eb4" stroke="#f89db5" stroke-width="0" stroke-linecap="butt" stroke-linejoin="round"/><g data-paper-data="{&quot;index&quot;:null}" fill="#ff4488" stroke="none" stroke-width="1" stroke-linecap="round" stroke-linejoin="round"><path d="M241.49197,167.89856c-0.09964,-0.02642 -2.62846,-0.66713 -4.05081,0.08441c-1.12106,0.59233 -1.58785,1.28896 -2.39452,2.48946c-0.62213,0.92583 -0.6537,2.58612 -0.68317,2.60511c-0.00211,0.00136 -0.95063,-4.00538 2.0898,-5.62949c2.46965,-1.28387 5.12424,-0.26476 5.24825,-0.18099"/><path d=""/></g><g data-paper-data="{&quot;index&quot;:null}" stroke="none" stroke-width="1" stroke-linecap="round" stroke-linejoin="round"><g fill="#f79eb4"><path d="M234.97763,171.0275c-0.1323,-0.3343 -0.48116,-0.87194 -0.69268,-1.51434c-0.21151,-0.6424 -0.4246,-1.48532 -0.36206,-1.68898c0.08176,-0.26626 0.87954,-0.29346 1.73816,-0.18332c0.85863,0.11016 2.01793,0.54561 2.10716,0.67661"/></g><g fill="#ffd5c5"><path d="M235.38455,170.44368c-0.03624,-0.07746 -0.26798,-0.41567 -0.43666,-0.8869c-0.16869,-0.47123 -0.33588,-1.20954 -0.32476,-1.24021c0.04507,-0.12432 0.94744,-0.11818 1.41486,-0.05058c0.46743,0.0676 0.98799,0.29713 1.13243,0.419"/></g></g><g data-paper-data="{&quot;index&quot;:null}" stroke="none" stroke-width="0" stroke-linecap="butt" stroke-linejoin="miter"><g data-paper-data="{&quot;index&quot;:null}"><path d="M246.25665,165.02841c0,0 0.05822,0.45563 -0.21658,1.56294c-0.54788,2.20767 -1.75895,2.43787 -1.75895,2.43787c0,0 -0.56258,-0.69652 -0.17784,-1.74139c0.39424,-1.07064 2.15336,-2.25944 2.15336,-2.25944z" data-paper-data="{&quot;index&quot;:null}" fill="#ce204f"/><path d="M244.78308,166.39874c-0.81361,0.79982 -0.53122,2.57479 -0.53122,2.57479c0,0 -1.57393,-1.06816 0.01472,-2.69607c0.79684,-0.81653 2.02249,-1.25985 2.02249,-1.25985c0,0 -0.69238,0.58132 -1.50599,1.38113z" fill="#ff4488"/></g><g data-paper-data="{&quot;index&quot;:null}"><path d="M244.36744,169.12478c0,0 0.7769,-0.72441 1.40183,-0.91457c1.23704,-0.37641 2.6417,0.51509 2.6417,0.51509c0,0 -1.21538,0.56758 -2.0028,0.90942c-1.07455,0.46648 -2.04074,-0.50996 -2.04074,-0.50996z" fill="#f5e4ec"/><path d="M245.83923,168.32904c1.03087,-0.31368 2.20143,0.42923 2.20143,0.42923c0,0 -1.01281,0.473 -1.66899,0.75787c-0.89548,0.38874 -1.70062,-0.42496 -1.70062,-0.42496c0,0 0.64741,-0.60367 1.16818,-0.76213z" fill="#e2c1c1"/></g></g><g data-paper-data="{&quot;index&quot;:null}" fill="#f79eb4" stroke="none" stroke-width="1" stroke-linecap="round" stroke-linejoin="round"><path d="M240.90533,166.73396c0.25324,-0.17523 0.52938,-0.33826 1.14716,-0.58658c0.61777,-0.24832 1.38285,-0.56699 1.61673,-0.52444c0.04791,0.00873 0.35821,0.58546 0.43133,1.08971c0.11416,0.78711 -0.06807,1.71762 -0.0722,1.73246"/><path d=""/></g><path d="M239.60076,176.78822c0,0 -0.51142,0.03738 -0.57826,-0.03411c-0.07285,-0.07791 0.35775,-0.18473 0.45953,-0.20601" data-paper-data="{&quot;index&quot;:null}" fill="none" stroke="#000000" stroke-width="0.125" stroke-linecap="round" stroke-linejoin="miter"/><path d="M234.66931,173.25138c0,0 -0.34936,0.0752 -0.41192,0.02774c-0.06928,-0.05256 -0.11391,-0.49225 -0.02558,-0.63955c0.08834,-0.1473 0.42278,-0.12229 0.42278,-0.12229z" data-paper-data="{&quot;index&quot;:null}" fill-opacity="0.01176" fill="#f7bf74" stroke="none" stroke-width="0" stroke-linecap="butt" stroke-linejoin="miter"/><path d="M236.80932,175.86224c0.55408,-0.02651 0.98864,-0.02954 0.99333,0.06849c0.0036,0.07521 -0.37408,0.25032 -0.65222,0.27098c-0.99248,0.07374 -1.78172,-0.34011 -2.12583,-0.7155c-0.29216,-0.31873 -0.44871,-0.52982 -0.25836,-0.61682c0.14391,-0.06576 0.36252,-0.00071 0.64067,0.57088c0.22553,0.46343 1.08603,0.43712 1.40242,0.42198z" data-paper-data="{&quot;index&quot;:null}" fill-opacity="0.01176" fill="#212121" stroke="none" stroke-width="0" stroke-linecap="butt" stroke-linejoin="miter"/><path d="M236.21846,176.12257l-0.01108,-0.23152l0.09261,-0.00443l0.01108,0.23152z" data-paper-data="{&quot;index&quot;:null}" fill-opacity="0.01176" fill="#b3916f" stroke="none" stroke-width="0" stroke-linecap="butt" stroke-linejoin="miter"/><path d="M235.03238,175.25888c0.06517,0.08831 0.16949,0.30902 0.16949,0.30902c0,0 -0.26957,-0.11264 -0.35101,-0.22299c-0.08144,-0.11035 0.00104,-0.3017 0.00104,-0.3017c0,0 0.11531,0.12736 0.18049,0.21567z" data-paper-data="{&quot;index&quot;:null}" fill-opacity="0.01176" fill="#cc7889" stroke="none" stroke-width="0" stroke-linecap="butt" stroke-linejoin="miter"/><g data-paper-data="{&quot;index&quot;:null}" stroke="none" stroke-width="0" stroke-linecap="butt" stroke-linejoin="miter"><g data-paper-data="{&quot;index&quot;:null}"><path d="M230.32117,169.53517c0,0 2.12095,-0.09609 3.07629,0.52765c0.93232,0.60872 0.89665,1.50335 0.89665,1.50335c0,0 -1.10911,0.53813 -2.86634,-0.90621c-0.88138,-0.72445 -1.10661,-1.12477 -1.10661,-1.12477z" data-paper-data="{&quot;index&quot;:null}" fill-opacity="0.01176" fill="#cf214f"/><path d="M230.2887,169.54586c0,0 1.248,-0.37582 2.37469,-0.19626c2.24627,0.35799 1.62094,2.15442 1.62094,2.15442c0,0 -0.8328,-1.59271 -1.96297,-1.74884c-1.13017,-0.15613 -2.03266,-0.20932 -2.03266,-0.20932z" fill-opacity="0.01176" fill="#ff4589"/></g><g data-paper-data="{&quot;index&quot;:null}"><path d="M234.28187,171.69434c0,0 -0.19245,1.36012 -1.33304,1.62718c-0.83582,0.19568 -2.14974,0.46568 -2.14974,0.46568c0,0 0.59496,-1.55366 1.81216,-1.98997c0.61492,-0.2204 1.67063,-0.10286 1.67063,-0.10286z" fill-opacity="0.01176" fill="#f5e4ec"/><path d="M232.62608,171.93432c0.51242,-0.18368 1.39217,-0.08572 1.39217,-0.08572c0,0 -0.16035,1.13343 -1.11086,1.35598c-0.69652,0.16307 -1.79146,0.38805 -1.79146,0.38805c0,0 0.4958,-1.29473 1.51014,-1.65831z" fill-opacity="0.01176" fill="#e3c1c1"/></g></g><path d="M242.22552,169.47625c-0.0077,0.02821 0.37342,-1.25777 2.0755,-1.94286c0.30439,-0.12061 1.67211,0.30423 2.32249,0.75626c0.65781,0.36353 1.18514,1.4664 1.17103,1.47449c-0.02029,0.01155 -1.69084,-0.90071 -2.76586,-0.61606c-0.58698,0.15542 -1.96284,1.10462 -1.97298,1.14174" data-paper-data="{&quot;index&quot;:null}" fill="#f79eb4" stroke="#f89db5" stroke-width="0" stroke-linecap="butt" stroke-linejoin="round"/><path d="M241.55903,170.00106c-0.04106,-0.0728 -0.32302,-1.81875 -0.24229,-2.18829c0.08073,-0.36955 0.06654,-0.58183 0.5394,-0.95979c1.72507,-1.12452 3.7399,-0.89056 3.7399,-0.89056c0,0 -1.40837,0.74375 -1.93422,1.29441c-0.72954,0.76399 -1.39218,2.08798 -1.42798,2.21639" data-paper-data="{&quot;index&quot;:null}" fill="#f79eb4" stroke="#f89db5" stroke-width="0" stroke-linecap="butt" stroke-linejoin="round"/><path d="M243.05679,170.39963c-0.05038,-0.00047 0.63815,-0.91489 1.62737,-1.01108c0.28417,-0.02764 1.5175,0.81379 1.5911,0.94567c0.37603,0.48089 0.7853,2.09217 0.78593,2.0903c0.01389,-0.04043 -0.93462,-0.8107 -1.96658,-1.1232c-0.34766,-0.10308 -1.34681,-0.14746 -1.48944,-0.14888" data-paper-data="{&quot;index&quot;:null}" fill="#f79eb4" stroke="#f89db5" stroke-width="0" stroke-linecap="butt" stroke-linejoin="round"/><path d="M244.66533,171.41312c0,0 -0.57589,-0.33723 -0.66513,0.16989c-0.06454,0.36682 0.39172,1.54043 0.23174,1.85742c-0.38116,0.75523 -1.45676,0.15804 -1.45676,0.15804" data-paper-data="{&quot;index&quot;:null}" fill="none" stroke="#e569c4" stroke-width="0.5" stroke-linecap="round" stroke-linejoin="miter"/><path d="M241.0073,174.2966c0,0 -0.60176,1.17039 -1.92356,1.08646c-0.6318,-0.02276 -0.99558,-1.39631 -1.34097,-1.59191c-0.59342,-0.33604 -0.28856,0.39793 -0.28856,0.39793" data-paper-data="{&quot;index&quot;:null}" fill="none" stroke="#e569c4" stroke-width="0.5" stroke-linecap="round" stroke-linejoin="miter"/><path d="M243.50954,169.79949l-1.30539,2.06423" data-paper-data="{&quot;index&quot;:null}" fill="none" stroke="#e569c4" stroke-width="0.5" stroke-linecap="round" stroke-linejoin="miter"/><path d="M239.95721,173.22212l-3.30541,-0.86152" data-paper-data="{&quot;index&quot;:null}" fill="none" stroke="#e569c4" stroke-width="0.5" stroke-linecap="round" stroke-linejoin="miter"/><path d="M247.16204,172.70968c0,0 -0.45387,-1.02557 -0.29438,-1.65034c0.15949,-0.62475 0.7256,-1.91962 1.49737,-2.21594c1.02844,-0.39487 -0.03711,1.67967 -0.03711,1.67967c0,0 0.37566,-0.17803 0.85086,-0.54693c0.84112,-0.65296 1.66545,-1.37134 1.93176,-1.22878c0.47759,0.25567 -1.1236,1.89498 -1.1236,1.89498c0,0 2.10735,-1.43304 2.35898,-1.13042c0.24331,0.29262 -1.54569,2.07022 -1.54569,2.07022c0,0 1.63824,-0.94399 2.05424,-0.77856c0.23283,0.42435 -1.61822,1.74034 -1.61822,1.74034c0,0 1.61649,-0.56578 1.9344,-0.3274c0.11456,0.26767 -1.09518,1.03861 -1.95391,1.51189c-0.85873,0.47327 -1.26462,0.50598 -1.59439,0.61751c-0.50777,0.17174 -0.83341,0.05088 -0.83341,0.05088l-1.62695,-1.68712z" data-paper-data="{&quot;index&quot;:null}" fill="#ffffff" stroke="none" stroke-width="0" stroke-linecap="butt" stroke-linejoin="miter"/><g data-paper-data="{&quot;index&quot;:null}" stroke="none" stroke-width="0" stroke-linecap="butt" stroke-linejoin="miter"><path d="M242.36503,177.27817c0.71816,-0.93961 1.70997,-1.89909 2.39104,-2.50532c0.97373,-0.86674 1.81558,-1.66729 1.81558,-1.66729c0,0 0.48835,0.23882 0.60273,0.5425c0.11439,0.30369 0.19001,0.38503 0.19001,0.38503c0,0 -1.58267,1.30881 -1.9755,1.65848c-0.64437,0.57356 -1.43125,1.33388 -2.31266,2.22192c-0.22086,0.22251 -0.46512,0.23629 -0.70124,0.02036c-0.15863,-0.14509 -0.24776,-0.34459 -0.00995,-0.65572z" data-paper-data="{&quot;index&quot;:null}" fill="#fff9fb"/><g data-paper-data="{&quot;index&quot;:null}"><path d="M247.84522,174.88272c-0.93009,0.51824 -1.3879,-0.05054 -1.79651,-0.81219c-0.40861,-0.76164 -0.62132,-1.44266 0.31681,-1.94595c0.93811,-0.50328 1.3879,0.05054 1.79651,0.81219c0.40861,0.76164 0.61306,1.42783 -0.31681,1.94595z" fill="#fed000"/><path d="M248.06932,175.30046c-0.75508,0.43019 -1.29386,-0.34186 -1.82624,-1.33422c-0.53239,-0.99236 -0.86723,-1.84872 -0.10169,-2.25942c0.76554,-0.4107 1.29386,0.34186 1.82624,1.33422c0.53239,0.99236 0.85659,1.82932 0.10169,2.25942z" fill="#e68b9c"/></g></g><g data-paper-data="{&quot;index&quot;:null}" stroke="none" stroke-width="0" stroke-linecap="butt" stroke-linejoin="miter"><g><path d="M245.15045,192.65334c0,0 -0.0529,0.37436 0.16905,0.78279c0.27042,0.4976 0.78693,0.61341 1.34662,1.29548c1.2127,1.47785 1.48036,3.19751 4.6968,2.51267c0.34414,-0.16009 0.78796,-0.62349 0.78796,-0.62349c0,0 0.16,0.28627 0.14147,0.50134c-0.01852,0.21504 -0.22808,0.50389 -0.22808,0.50389l-0.25524,0.04825l0.02805,0.17268c0,0 -0.12723,0.12031 -0.27822,0.19417c-0.151,0.07385 -0.33267,0.15139 -0.40219,0.15082c-0.085,-0.00071 0.01347,-0.12715 -0.09346,-0.09292c-0.06598,0.02111 -0.09874,0.00097 -0.16134,0.02179c-0.09611,0.03195 0.05849,0.10522 -0.0429,0.1304c-0.26175,0.06502 -0.67708,0.0259 -0.83988,0.04453c-0.1358,0.01552 -0.15492,-0.25698 -0.15492,-0.25698l-0.17195,0.0187l-0.06313,0.16784c0,0 -0.4716,-0.16558 -0.62218,-0.19185c-0.46865,-0.08177 -0.3387,-0.34761 -0.3387,-0.34761l-0.20503,-0.10483l-0.10816,0.14261l-0.63867,-0.46777l-0.01944,-0.20616c0,0 -0.42766,-0.74106 -0.75984,-1.00441c-0.33311,-0.26413 -1.23606,-0.57808 -1.23606,-0.57808l-0.1378,0.20313l-0.59269,-0.51555l0.05894,-0.37291c0,0 -0.22916,0.15609 -0.29928,0.0527c-0.75459,-1.11265 0.4203,-2.1813 0.4203,-2.1813z" data-paper-data="{&quot;index&quot;:null}" fill="#a87643"/><path d="M248.59924,193.14944c0.51298,1.70782 -0.3328,2.68983 -0.3328,2.68983c0,0 -2.57649,-1.55419 -3.02854,-2.35962c-0.3371,-0.60068 0.25365,-1.86429 0.25365,-1.86429c0,0 -0.29516,-1.22095 -0.41009,-1.61258c-0.11494,-0.39162 -0.24335,-1.07354 -0.24335,-1.07354c0,0 1.783,-0.29846 2.16948,-0.18945c0.29615,0.096 1.29791,3.43168 1.59165,4.40962z" data-paper-data="{&quot;index&quot;:null}" fill="#f3e2e2"/><path d="M246.22166,188.28264c0.08994,-0.15293 0.80719,-0.39335 1.59471,-0.30102c0.23593,0.02765 0.41741,1.3183 1.00911,2.80722c0.33034,0.83122 1.02959,2.00662 1.4122,2.71874c0.41117,0.76531 1.45155,1.28861 1.53756,1.46443c0.30936,0.63251 0.40275,1.68601 0.39263,1.69894c-0.00563,0.00722 -0.57596,1.05894 -2.09285,0.97451c-2.01225,-0.112 -3.49758,-2.97266 -3.49758,-2.97266c0,0 0.34902,-0.71953 0.71281,-0.27469c0.4403,0.56132 0.29532,0.46605 0.58551,0.90924c0.09515,0.17476 0.26581,0.4263 0.29724,0.40953c0.32114,-0.17119 0.56712,-1.60154 0.45215,-2.24126c-0.09319,-0.51855 -0.41712,-1.50277 -0.74044,-2.34169c-0.28396,-0.7368 -0.45664,-1.48435 -0.62337,-1.96845c-0.10134,-0.29426 -0.31821,-0.44267 -0.31821,-0.44267c0,0 -0.86608,-0.19424 -0.72145,-0.44019z" data-paper-data="{&quot;index&quot;:null}" fill="#fc6293"/><path d="M249.90654,193.20391c0,0 -0.68991,-1.16892 -0.99007,-2.02141c-0.39599,-1.12465 -0.81188,-2.53325 -0.97277,-2.89829c-0.08094,-0.18364 -0.46809,-0.25138 -0.46809,-0.25138l0.08423,-0.10761c0,0 0.42811,0.0315 0.50422,0.27682c0.43744,1.41003 0.64028,2.21998 1.02189,3.00154c0.27569,0.5646 1.25255,2.48305 1.25255,2.48305z" data-paper-data="{&quot;index&quot;:null}" fill="#bfa4a4"/><path d="M246.82414,192.38525l-0.34088,-1.13116l0.61344,-0.17443l0.30449,1.17768z" data-paper-data="{&quot;index&quot;:null}" fill="#fffff6"/><path d="M246.15445,190.65382l-0.27208,-0.92431l0.55422,-0.14136l0.34181,0.95785z" data-paper-data="{&quot;index&quot;:null}" fill="#fffff6"/><path d="M248.44639,189.57864c0,0 -0.15964,0.22231 -0.56525,0.48618c-0.40561,0.26386 -1.10796,0.47636 -1.10796,0.47636l-0.32743,-0.96121c0,0 0.52478,-0.08533 0.90149,-0.27354c0.37673,-0.18824 0.88413,-0.61861 0.88413,-0.61861l0.21505,0.89077z" data-paper-data="{&quot;index&quot;:null}" fill="#754c86"/><path d="M248.32738,191.97897c-0.3749,0.15527 -0.94952,0.30134 -0.94952,0.30134l-0.32547,-1.18011c0,0 0.40973,-0.10581 0.75065,-0.28753c0.34092,-0.18172 0.86888,-0.58473 0.86888,-0.58473c0,0 0.17782,0.44263 0.27791,0.67554c0.10011,0.2329 0.2669,0.59222 0.2669,0.59222c0,0 -0.51451,0.32793 -0.88939,0.48322z" data-paper-data="{&quot;index&quot;:null}" fill="#754c86"/><path d="M244.85789,188.93138c0,0 0.24675,-0.26697 0.44026,-0.36457c0.11712,-0.05907 0.43104,-0.16187 0.75266,-0.30476c0.32161,-0.1429 0.42409,-0.12876 0.42409,-0.12876l-1.43999,0.78539z" data-paper-data="{&quot;index&quot;:null}" fill="#ae8484"/><path d="M247.50008,188.20941c0.04576,0.14245 -0.04061,0.28494 -0.39958,0.4194c-0.35896,0.13447 -0.28333,0.04405 -1.00627,0.15259c-0.35273,0.05812 -1.04216,0.13754 -1.04216,0.13754c0,0 0.34199,-0.38591 1.15699,-0.64768c0.81501,-0.26178 1.22834,-0.26295 1.28985,-0.0715z" data-paper-data="{&quot;index&quot;:null}" fill="#532c31"/></g><path d="M245.43487,188.53772c0,0 -0.67258,-0.40921 -0.62049,-0.78433c0.05208,-0.37513 0.43724,-0.41506 0.78088,-0.31592c0.34364,0.09915 0.70054,0.74332 0.70054,0.74332z" fill="#f3e2e2"/></g><g data-paper-data="{&quot;index&quot;:null}" stroke="none" stroke-width="0" stroke-linecap="butt" stroke-linejoin="miter"><path d="M244.93106,183.45267l1.49787,3.43477l0.73776,1.78234l-1.19319,0.20227l-0.92146,-1.8888l-1.34364,-3.19199z" data-paper-data="{&quot;index&quot;:null}" fill="#8e5173"/><path d="M246.11034,186.19529l0.31864,0.69215l0.73776,1.78234l-1.19319,0.20227l-0.92146,-1.8888l-0.18844,-0.4591z" data-paper-data="{&quot;index&quot;:null}" fill="#c5c0b5"/><path d="M244.95689,186.76535l-0.08591,-0.24477l1.24674,-0.33377l0.10711,0.25336z" fill="#af2753"/><path d="M245.14591,187.2125l-0.08591,-0.24477l1.24674,-0.33377l0.10711,0.25336z" fill="#af2753"/></g><path d="M243.04662,182.28434c0,0 -0.81997,1.96121 -1.48779,2.44298c-0.7257,0.52352 -2.88097,1.05474 -2.88097,1.05474l2.24335,-1.75577l0.99929,-1.03075z" data-paper-data="{&quot;index&quot;:null}" fill="#f79db4" stroke="none" stroke-width="0" stroke-linecap="butt" stroke-linejoin="miter"/><g data-paper-data="{&quot;index&quot;:null}" stroke="none" stroke-width="0" stroke-linecap="butt" stroke-linejoin="miter"><path d="M239.93547,188.71122c0,0 -0.57542,-0.53731 -0.4482,-0.89403c0.12721,-0.35672 0.51245,-0.3176 0.82878,-0.1507c0.31634,0.16689 0.53492,0.87013 0.53492,0.87013z" fill="#fc6293"/><g><path d="M238.63633,192.34145c0,0 -0.21278,0.33556 -0.17711,0.82279c0.04346,0.59358 0.48788,0.92818 0.72845,1.82366c0.52124,1.94031 0.03282,3.70291 3.40933,4.44003c0.39884,-0.00424 1.02452,-0.25579 1.02452,-0.25579c0,0 0.02922,0.34341 -0.08164,0.54132c-0.11088,0.19791 -0.43663,0.38374 -0.43663,0.38374l-0.26531,-0.06431l-0.04793,0.1775c0,0 -0.17395,0.0601 -0.35051,0.06543c-0.17655,0.00535 -0.38411,0.00089 -0.45044,-0.02975c-0.08111,-0.03747 0.06796,-0.1159 -0.04925,-0.12943c-0.07231,-0.00837 -0.09494,-0.04184 -0.16391,-0.04901c-0.10585,-0.01103 0.01045,0.12607 -0.09754,0.1063c-0.27879,-0.05108 -0.65956,-0.26841 -0.82351,-0.32108c-0.13678,-0.04392 -0.03708,-0.31315 -0.03708,-0.31315l-0.17274,-0.05655l-0.13313,0.13338c0,0 -0.37989,-0.3628 -0.5127,-0.45315c-0.41334,-0.28123 -0.17378,-0.47951 -0.17378,-0.47951l-0.15092,-0.1892l-0.16533,0.08972l-0.409,-0.7245l0.07065,-0.20582c0,0 -0.08858,-0.89479 -0.29261,-1.29083c-0.2046,-0.39717 -0.93328,-1.08883 -0.93328,-1.08883l-0.21993,0.13482l-0.34428,-0.75034l0.21793,-0.33154c0,0 -0.28702,0.0502 -0.30938,-0.07916c-0.2407,-1.39222 1.34712,-1.90671 1.34712,-1.90671z" data-paper-data="{&quot;index&quot;:null}" fill="#a87643"/><path d="M241.7239,194.31004c-0.24837,1.8575 -1.48352,2.43157 -1.48352,2.43157c0,0 -1.79407,-2.60399 -1.87812,-3.57102c-0.06268,-0.72117 1.05022,-1.67531 1.05022,-1.67531c0,0 0.24612,-1.29697 0.30565,-1.72174c0.05955,-0.42477 0.2319,-1.13336 0.2319,-1.13336c0,0 1.83656,0.48637 2.15944,0.75812c0.24202,0.22017 -0.24329,3.84812 -0.38551,4.91176z" data-paper-data="{&quot;index&quot;:null}" fill="#fc6293"/><path d="M241.55482,188.62017c0.15234,-0.10749 0.94328,-0.02707 1.65739,0.40236c0.21394,0.12865 -0.17122,1.44312 -0.24942,3.1251c-0.04364,0.93902 0.1169,2.36734 0.17488,3.21493c0.0623,0.9109 0.83192,1.86253 0.83812,2.06814c0.0223,0.73964 -0.34449,1.78885 -0.35978,1.79686c-0.00854,0.00449 -1.01012,0.76458 -2.42607,0.02683c-1.87835,-0.97867 -2.06179,-4.36116 -2.06179,-4.36116c0,0 0.64581,-0.53785 0.80152,0.04566c0.17853,0.72819 0.08094,0.57416 0.16691,1.12423c0.01542,0.20851 0.0699,0.52329 0.10727,0.52085c0.38163,-0.02484 1.23974,-1.27703 1.4067,-1.93938c0.13534,-0.53689 0.24823,-1.63061 0.30194,-2.57392c0.04718,-0.8285 0.20553,-1.61913 0.25554,-2.15486c0.03039,-0.32563 -0.11301,-0.56167 -0.11301,-0.56167c0,0 -0.74521,-0.56105 -0.5002,-0.73393z" data-paper-data="{&quot;index&quot;:null}" fill="#f3e2e2"/><path d="M242.95211,194.92839c0,0 -0.15443,-1.4181 -0.07267,-2.36438c0.10787,-1.2484 0.31961,-2.77733 0.32364,-3.19654c0.00201,-0.21089 -0.33935,-0.44342 -0.33935,-0.44342l0.12724,-0.06656c0,0 0.39629,0.21559 0.36293,0.48343c-0.19175,1.53963 -0.34828,2.40305 -0.32132,3.31669c0.01949,0.66001 0.1241,2.92009 0.1241,2.92009z" data-paper-data="{&quot;index&quot;:null}" fill="#766565"/><path d="M240.35509,192.80962l0.16344,-1.23079l0.66295,0.09863l-0.21842,1.25957z" data-paper-data="{&quot;index&quot;:null}" fill="#fffff6"/><path d="M240.46364,190.86164l0.13974,-1.00289l0.59192,0.10464l-0.08753,1.06523z" data-paper-data="{&quot;index&quot;:null}" fill="#fffff6"/><path d="M243.12391,190.82464c0,0 -0.24913,0.14375 -0.75181,0.22077c-0.50263,0.07702 -1.26722,-0.02367 -1.26722,-0.02367l0.10272,-1.06221c0,0 0.53944,0.14557 0.98167,0.12848c0.44224,-0.01708 1.11449,-0.20947 1.11449,-0.20947z" data-paper-data="{&quot;index&quot;:null}" fill="#754c86"/><path d="M243.03139,192.99396c0,0 -0.6347,0.09121 -1.06092,0.07756c-0.42622,-0.01365 -1.03972,-0.12264 -1.03972,-0.12264l0.19939,-1.27096c0,0 0.43818,0.07612 0.84332,0.04975c0.40514,-0.02636 1.08523,-0.18363 1.08523,-0.18363c0,0 -0.02142,0.50086 -0.02643,0.76723c-0.00501,0.26639 -0.0009,0.68268 -0.0009,0.68268z" data-paper-data="{&quot;index&quot;:null}" fill="#754c86"/><path d="M239.96798,188.65088c0,0 0.35189,-0.1488 0.57947,-0.15846c0.13774,-0.00586 0.48286,0.03165 0.85271,0.0341c0.36985,0.00245 0.46185,0.06037 0.46185,0.06037l-1.71899,0.12844z" data-paper-data="{&quot;index&quot;:null}" fill="#ae8484"/><path d="M242.81072,189.10374c-0.01787,0.15623 -0.16228,0.25528 -0.56424,0.22857c-0.40197,-0.0267 -0.29038,-0.08052 -1.02965,-0.28966c-0.36294,-0.09711 -1.0575,-0.31963 -1.0575,-0.31963c0,0 0.49458,-0.22144 1.38836,-0.11916c0.89378,0.10229 1.29009,0.28016 1.26606,0.49012z" data-paper-data="{&quot;index&quot;:null}" fill="#532c31"/></g></g><g data-paper-data="{&quot;index&quot;:null}" stroke="none" stroke-width="0" stroke-linecap="butt" stroke-linejoin="miter"><path d="M242.51418,183.75644l-0.14575,4.13801l-0.06352,1.49891l-1.40841,-0.4398l0.08831,-1.18578l0.21663,-3.77065z" data-paper-data="{&quot;index&quot;:null}" fill="#8e5173"/><path d="M242.39572,186.60853l-0.02737,1.28591l-0.06352,1.49891l-1.40841,-0.4398l0.08831,-1.18578l0.07716,-1.26636z" data-paper-data="{&quot;index&quot;:null}" fill="#a71e48"/><path d="M242.39572,186.60853l-0.00236,0.26682l-1.34157,-0.13797l0.0101,-0.23597z" data-paper-data="{&quot;index&quot;:null}" fill="#a19589"/><path d="M242.37017,187.09999l-0.00236,0.26682l-1.34157,-0.13796l0.0101,-0.23598z" data-paper-data="{&quot;index&quot;:null}" fill="#a19589"/></g><path d="M247.19947,182.00878c0,0 -1.29243,1.6964 -3.32725,2.43492c-2.48188,0.71329 -4.71394,0.37388 -4.71394,0.37388l0.12225,-0.43559c0,0 1.95981,0.62405 4.46729,-0.24768c2.14534,-0.78537 3.14302,-2.42774 3.14302,-2.42774z" data-paper-data="{&quot;index&quot;:null}" fill="#ee3377" stroke="none" stroke-width="0" stroke-linecap="butt" stroke-linejoin="miter"/><path d="M244.03922,179.30011l2.9014,2.46399c0,0 -1.71194,2.12797 -3.64366,2.584c-2.52953,0.55917 -4.02299,0.12084 -4.02299,0.12084l0.70666,-2.12111l0.67221,-1.99066z" data-paper-data="{&quot;index&quot;:null}" fill="#fcf4f4" stroke="none" stroke-width="0" stroke-linecap="butt" stroke-linejoin="miter"/><path d="M246.64771,181.53241c0,0 -0.84378,1.54939 -2.87859,2.28791c-2.91527,0.83732 -4.36131,0.26056 -4.36131,0.26056l0.0459,-0.14358c0,0 1.76784,0.60376 4.27532,-0.26797c2.24445,-0.82003 2.7912,-2.24512 2.7912,-2.24512z" data-paper-data="{&quot;index&quot;:null}" fill="#ee3377" stroke="none" stroke-width="0" stroke-linecap="butt" stroke-linejoin="miter"/><path d="M241.60057,180.70757l0.18712,-0.67372l1.46153,-0.58984l0.51896,0.34668z" data-paper-data="{&quot;index&quot;:null}" fill="#aa4455" stroke="none" stroke-width="0" stroke-linecap="butt" stroke-linejoin="miter"/><g data-paper-data="{&quot;index&quot;:null}" stroke-width="0" stroke-linecap="butt" stroke-linejoin="miter"><path d="M254.56291,193.09482l-7.46516,-5.17575c0,0 0.36415,-2.90299 2.31374,-3.24495c1.84767,-0.32408 3.29536,-0.15871 5.00032,0.89388c4.44024,2.74125 2.02948,6.74405 2.02948,6.74405z" fill="#ffff00" stroke="none"/><path d="M255.06229,192.90868c0,0 0.33764,-0.55297 0.51772,-1.21709c0.12052,-0.44442 0.0494,-1.00641 0.20168,-1.15325c0.30624,-0.29533 0.27734,0.07163 0.20537,0.90888c-0.03355,0.39039 -0.43203,1.26691 -0.43203,1.26691l-0.49272,0.19456z" fill="#a58c48" stroke="#000000"/><path d="M255.02774,188.1038c-0.10309,0.15746 -0.77769,-0.72485 -1.52791,-1.2161c-0.75023,-0.49126 -2.35051,-0.66883 -2.16038,-1.0552c0.20818,-0.42313 1.6258,0.16218 2.3904,0.63075c1.14111,0.69932 1.40096,1.48312 1.29787,1.64057z" fill="#a58c48" stroke="#000000"/><path d="M247.43762,187.32692l0.02994,-0.41167c0,0 0.36336,-0.49742 0.72656,-0.75395c0.32607,-0.2303 0.63373,-0.04954 0.65745,0.03085c0.06741,0.22841 -0.40845,0.25269 -0.76822,0.51531c-0.38869,0.28374 -0.64573,0.61947 -0.64573,0.61947z" fill="#a58c48" stroke="#000000"/><path d="M250.31807,191.41751c2.94501,2.04263 2.62893,4.24958 2.62893,4.24958c0,0 0.16097,-0.15073 -0.16513,0.34855c-0.32611,0.49928 -0.21066,0.23175 -0.21066,0.23175c0,0 -0.2232,-2.16823 -1.79157,-3.71298c-2.49593,-2.45836 -5.69197,-1.61857 -5.69197,-1.61857l0.39122,-0.44802c0,0 2.74035,-0.50606 4.83918,0.94966z" fill="#edeee6" stroke="none"/><path d="M247.20191,187.49482c0,0 3.24565,-1.32378 5.5037,0.3789c2.86165,2.15785 2.174,5.0795 2.174,5.0795l-0.31196,0.13676c0,0 -0.04335,-2.36571 -1.55185,-3.92723c-2.40065,-2.48501 -5.92151,-1.28534 -5.92151,-1.28534l0.1076,-0.38257z" fill="#edeee6" stroke="none"/><path d="M254.49552,193.37444c0,0 -0.41173,0.85029 -0.73782,1.34958c-0.3261,0.49929 -0.93371,1.20963 -0.93371,1.20963c0,0 -0.22817,-2.17147 -1.80434,-3.72134c-2.50833,-2.46647 -5.71235,-1.63191 -5.71235,-1.63191l1.82259,-2.79164c0,0 3.19364,-1.05987 5.30167,0.40189c2.95792,2.0511 2.06396,5.18379 2.06396,5.18379z" fill="#754c86" stroke="none"/><path d="M247.02648,193.38341c-1.1207,-0.73381 -4.26126,-0.70696 -4.26126,-0.70696c0,0 0.2169,-0.75916 0.92579,-1.29279c1.10903,-0.83486 3.12109,-1.49849 5.74369,0.07839c5.00121,3.00703 2.61542,7.67881 2.61542,7.67881c0,0 -3.90294,-5.02362 -5.02364,-5.75746z" fill="#ffff00" stroke="none"/><path d="M249.4875,192.50293c-0.58351,-0.38207 -2.17675,-1.0425 -1.93898,-1.17379c0.35179,-0.19427 1.59792,0.34887 2.16897,0.74934c1.03111,0.72309 1.43659,1.57509 1.37594,1.66771c-0.06066,0.09263 -0.85476,-0.75137 -1.60595,-1.24327z" fill="#a58c48" stroke="#000000"/><path d="M252.5999,197.08078c0,0 -0.53267,-1.46558 -0.44798,-1.73098c0.13193,-0.41356 0.51545,1.1522 0.51545,1.1522l-0.0675,0.57878z" fill="#a58c48" stroke="#000000"/><path d="M245.93421,191.08675c-0.2062,0.31492 -2.11166,0.27771 -2.11166,0.27771l0.70404,-0.44821c0,0 1.61381,-0.14443 1.40761,0.17049z" fill="#a58c48" stroke="#000000"/><path d="M245.6688,199.13026c-2.6775,-1.80114 -4.21059,-4.50122 -2.89111,-6.51628c0.94609,-1.44487 4.11297,-0.90093 6.48861,0.70255c2.27571,1.53606 3.71828,4.34787 2.77219,5.79274c-0.94611,1.44487 -4.07771,1.53231 -6.35582,-0.00018z" fill="#ffff00" stroke="#000000"/><path d="M250.07806,199.84586c-0.57009,0.87061 -2.6916,0.48987 -4.73849,-0.85045c-2.0469,-1.34031 -3.2441,-3.13262 -2.67401,-4.00326c0.5701,-0.87062 2.6916,-0.48986 4.73849,0.85046c2.0469,1.34031 3.24409,3.13261 2.674,4.00325z" fill="#ffff00" stroke="#000000"/><path d="M243.5223,189.48111l-3.63316,-2.04935l-6.14126,-3.49532c0,0 -0.2198,-0.5052 -0.10181,-0.70592c0.11799,-0.2007 0.65539,-0.49597 0.65539,-0.49597l6.29886,3.11038l3.8819,1.85689c0,0 -0.44392,0.46831 -0.63738,0.8269c-0.19346,0.35859 -0.32257,0.95238 -0.32257,0.95238z" fill="#fbdd00" stroke="none"/><path d="M245.18821,190.73183c0,0 -1.59777,-0.89362 -1.63521,-0.9965c-0.1421,-0.39054 0.59957,-1.94959 1.12879,-2.19891c0.31247,-0.14722 2.58879,0.96848 2.58879,0.96848l-1.73408,2.13511z" fill="#c8c8c6" stroke="none"/><path d="M256.51758,192.12239c0,0 1.20845,-2.09135 0.06995,-4.29032c-0.27616,-0.53342 -0.87328,-1.09449 -1.44798,-1.60895c-0.85434,-0.76478 -2.03639,-1.42339 -3.1865,-1.58172c-1.42104,-0.1956 -2.90123,0.21373 -2.90123,0.21373c0,0 3.40833,-1.60687 5.95381,0.57454c3.77263,3.23305 1.51197,6.69273 1.51197,6.69273z" fill="#ffff00" stroke="#000000"/><path d="M233.74784,183.93639c0,0 -0.2198,-0.5052 -0.10181,-0.70592c0.118,-0.2007 0.65539,-0.49598 0.65539,-0.49598l2.70996,1.32134c0,0 -0.07656,0.32548 -0.27002,0.68407c-0.19345,0.35857 -0.45216,0.64846 -0.45216,0.64846z" fill="#a56402" stroke="none"/></g><path d="M238.21386,184.36967c0,0 -0.05358,1.48487 -0.21427,2.35771c-0.02561,0.13906 -0.8349,0.87963 -1.2451,1.15605c-0.22405,0.15098 -0.63966,0.43497 -1.01838,0.18473c-0.09654,-0.06381 -0.35745,-0.56416 -0.35745,-0.56416l-0.4366,0.02961c0,0 -0.2171,-0.14425 -0.28546,-0.28651c-0.06836,-0.14226 -0.08381,-0.43584 -0.08381,-0.43584c0,0 -0.15346,-0.09239 -0.2745,-0.13501c-0.39508,-0.13908 -0.29749,-0.51953 -0.29749,-0.51953c0,0 -0.29815,-0.06808 -0.44619,-0.23299c-0.23466,-0.26145 -0.35918,-0.69424 -0.34681,-0.93826c0.02098,-0.41454 0.35034,-1.52372 0.73095,-1.5911c0.5928,-0.10495 0.63594,0.63531 0.63594,0.63531c0,0 0.28368,-0.56073 0.60514,-0.76408c0.49498,-0.31311 0.87191,-0.26863 0.87191,-0.26863l2.16212,1.37268z" data-paper-data="{&quot;index&quot;:null}" fill="#f44a7d" stroke="none" stroke-width="0" stroke-linecap="butt" stroke-linejoin="miter"/><path d="M243.02236,177.82789c0.31807,0.53626 0.64123,1.53548 0.64123,1.53548l-3.15348,1.20548l-0.14879,-0.99958l-0.648,-2.16674c0,0 0.70973,-0.14436 1.15098,-0.28329c0.44126,-0.13894 1.07532,-0.41764 1.07532,-0.41764c0,0 0.7647,0.59002 1.08275,1.12627z" data-paper-data="{&quot;index&quot;:null}" fill="#6d3b75" stroke="none" stroke-width="0" stroke-linecap="butt" stroke-linejoin="miter"/><g data-paper-data="{&quot;index&quot;:null}" stroke="none" stroke-width="0" stroke-linecap="butt" stroke-linejoin="miter"><path d="M247.14808,182.83866l-3.83171,-3.43203l0.5029,-0.28123l4.35501,1.98934c0,0 -0.10794,0.79646 -0.76741,1.49002c-0.16096,0.16929 -0.25878,0.2339 -0.25878,0.2339z" fill="#fab5b7"/><path d="M247.58659,182.40906c0.46249,-0.51375 0.56491,-1.34441 0.56491,-1.34441l0.32095,0.25826c0,0 -0.11251,0.90274 -0.58173,1.43151c-0.5234,0.58984 -0.43702,0.41158 -0.43702,0.41158l-0.28408,-0.28839c0,0 -0.09753,0.10297 0.41697,-0.46855z" fill="#fed000"/></g><path d="M243.71121,179.92794c0,0 -0.90282,-0.7502 -1.15676,-1.21449c-0.04547,-0.08312 -0.12636,-0.25368 -0.12636,-0.25368c0,0 -0.01684,-0.30522 0.46446,-1.02039c0.10545,-0.15671 -0.00548,-0.2086 -0.04226,-0.42643c-0.01161,-0.06881 -0.32351,-0.30165 -0.32351,-0.30165c0,0 0.10628,-0.10026 0.20609,-0.03465c0.29903,0.49652 0.67467,1.60561 0.67467,1.60561l0.7167,0.9637z" data-paper-data="{&quot;index&quot;:null}" fill="#efe6e6" stroke="none" stroke-width="0" stroke-linecap="butt" stroke-linejoin="miter"/><path d="M240.18031,181.27064l0.12138,-1.68218c0,0 -0.80321,-1.71436 -0.63839,-2.14261c0.0429,-0.11148 0.58105,-0.16399 0.58105,-0.16399c0,0 0.1816,-0.0233 0.28425,0.27249c0.021,0.06052 -0.07265,0.391 -0.04202,0.45369c0.09699,0.19846 0.21177,0.28535 0.38877,0.35127c0.80782,0.30088 0.97196,0.55878 0.97196,0.55878c0,0 0.03361,0.18577 0.04509,0.2798c0.06407,0.52531 -0.1613,1.60236 -0.1613,1.60236z" data-paper-data="{&quot;index&quot;:null}" fill="#efe6e6" stroke="none" stroke-width="0" stroke-linecap="butt" stroke-linejoin="miter"/><g data-paper-data="{&quot;index&quot;:null}" stroke="none" stroke-linecap="butt" stroke-linejoin="miter"><path d="M240.76321,177.93118c-0.38567,1.11798 -1.02481,2.341 -1.48029,3.13088c-0.65119,1.12931 -1.19806,2.15426 -1.19806,2.15426c0,0 -0.53871,-0.07286 -0.74292,-0.32506c-0.20422,-0.25221 -0.3016,-0.30559 -0.3016,-0.30559c0,0 1.08991,-1.74067 1.35262,-2.19627c0.43093,-0.74731 0.9383,-1.71677 1.49516,-2.83722c0.13954,-0.28074 0.36703,-0.37076 0.65914,-0.24018c0.19626,0.08775 0.34368,0.24902 0.21597,0.61921z" data-paper-data="{&quot;index&quot;:null}" fill="#4c2b5c" stroke-width="0"/><path d="M240.7632,177.93122c-0.28016,0.81212 -1.07418,2.39637 -1.07418,2.39637l-1.66655,0.676c0,0 0.29731,-0.4873 0.37047,-0.61417c0.43093,-0.74731 0.9383,-1.71676 1.49516,-2.83721c0.13954,-0.28074 0.36702,-0.37077 0.65913,-0.24019c0.19626,0.08773 0.34369,0.24902 0.21598,0.61921z" data-paper-data="{&quot;index&quot;:null}" fill="#edbb82" stroke-width="0"/><g data-paper-data="{&quot;index&quot;:null}" fill="none" stroke-width="1" font-family="sans-serif" font-weight="normal" font-size="12" text-anchor="start"/></g><path d="M239.93624,177.66952l0.14945,-0.35964c0,0 0.66594,-0.17236 0.7437,-0.17121c0.13624,0.04073 0.38263,0.39088 0.5711,0.71582c0.15474,0.26678 0.50438,1.04507 0.50438,1.04507c0,0 -0.17502,-0.10096 -0.35877,-0.18425c-0.26577,-0.12047 -0.54159,-0.21734 -0.75052,-0.35825c-0.36744,-0.26145 -0.25313,-0.88534 -0.25313,-0.88534z" data-paper-data="{&quot;index&quot;:null}" fill="#fd4275" stroke="none" stroke-width="0" stroke-linecap="butt" stroke-linejoin="miter"/><path d="M236.09435,182.50871c0.59974,-0.87975 1.26374,-0.57602 1.97004,-0.07782c0.70631,0.4982 1.20134,1.012 0.58771,1.88195c-0.61361,0.86995 -1.26374,0.57602 -1.97004,0.07782c-0.70631,-0.4982 -1.18731,-1.00241 -0.58771,-1.88195z" data-paper-data="{&quot;index&quot;:null}" fill="#fed000" stroke="none" stroke-width="0" stroke-linecap="butt" stroke-linejoin="miter"/><path d="M235.70701,182.23546c0.48268,-0.72266 1.31003,-0.27341 2.23029,0.37569c0.92026,0.64913 1.60298,1.26504 1.10224,1.97495c-0.50075,0.70992 -1.31003,0.27341 -2.23029,-0.37569c-0.92026,-0.64913 -1.58478,-1.25245 -1.10224,-1.97495z" data-paper-data="{&quot;index&quot;:null}" fill="#e68b9c" stroke="none" stroke-width="0" stroke-linecap="butt" stroke-linejoin="miter"/><path d="M234.66768,185.26457l0.50496,-0.08725l0.08725,0.50496l-0.50496,0.08725z" data-paper-data="{&quot;index&quot;:null}" fill="#baba3e" stroke="none" stroke-width="NaN" stroke-linecap="butt" stroke-linejoin="miter"/><path d="M235.41344,185.9046l0.50496,-0.08725l0.08725,0.50496l-0.50496,0.08725z" data-paper-data="{&quot;index&quot;:null}" fill="#baba3e" stroke="none" stroke-width="NaN" stroke-linecap="butt" stroke-linejoin="miter"/><path d="M236.2353,186.59833l0.50496,-0.08725l0.08725,0.50496l-0.50496,0.08725z" data-paper-data="{&quot;index&quot;:null}" fill="#baba3e" stroke="none" stroke-width="NaN" stroke-linecap="butt" stroke-linejoin="miter"/><path d="M236.93175,187.68815l0.18154,-0.32382l0.34706,-0.15845l0.05632,0.605z" data-paper-data="{&quot;index&quot;:null}" fill="#baba3e" stroke="none" stroke-width="0" stroke-linecap="butt" stroke-linejoin="miter"/><path d="M241.74234,180.37578c0,0 0.19073,-0.96054 -0.01166,-1.40701c-0.13718,-0.30264 -1.35445,-0.71614 -1.35445,-0.71614l0.11903,-0.15562c0,0 1.23583,0.52333 1.35746,0.80181c0.23037,0.5274 0.03472,1.4496 0.03472,1.4496z" data-paper-data="{&quot;index&quot;:null}" fill="#fed000" stroke="none" stroke-width="0" stroke-linecap="butt" stroke-linejoin="miter"/><path d="M240.44024,178.12945l0.04885,-0.58051l-0.71097,0.2469l0.12959,-0.45478l0.18916,-0.02312l-0.12771,0.26989l0.63665,-0.19946l0.00793,0.65241l1.10957,0.54786c0,0 0.11474,0.10954 0.13175,0.17049c0.01701,0.06095 0.03707,0.28654 0.03707,0.28654c0,0 -0.06716,-0.15271 -0.19892,-0.28c-0.12868,-0.1243 -0.32079,-0.22261 -0.4245,-0.27531c-0.24461,-0.12429 -0.82849,-0.36092 -0.82849,-0.36092z" data-paper-data="{&quot;index&quot;:null}" fill="#fff9f9" stroke="none" stroke-width="0" stroke-linecap="butt" stroke-linejoin="miter"/><path d="M239.76747,177.86863l0.0184,-0.08609l0.69459,-0.22323l-0.00424,0.05849z" data-paper-data="{&quot;index&quot;:null}" fill="#fed000" stroke="none" stroke-width="0" stroke-linecap="butt" stroke-linejoin="miter"/><path d="M241.55342,177.48852l-0.50561,-0.16157c0,0 -0.05969,-0.06867 -0.102,-0.10412c-0.04229,-0.03544 -0.09481,-0.0879 -0.09481,-0.0879c0,0 0.35846,-0.12909 0.5381,-0.19936c0.18238,-0.07133 0.54809,-0.22551 0.54809,-0.22551z" data-paper-data="{&quot;index&quot;:null}" fill="#fff9f9" stroke="none" stroke-width="0" stroke-linecap="butt" stroke-linejoin="miter"/><path d="M241.44477,177.25428l-0.49562,-0.15837l0.71705,-0.2728z" data-paper-data="{&quot;index&quot;:null}" fill="#fd4275" stroke="none" stroke-width="0" stroke-linecap="butt" stroke-linejoin="miter"/><path d="M242.50815,176.70047c0,0 0.43768,0.19661 0.33675,0.63614c-0.06253,0.24413 -0.14205,0.69351 -0.26067,0.96011c-0.082,0.18433 -0.14573,0.37605 -0.14573,0.37605c0,0 -0.25577,-0.814 -0.31736,-1.11619c-0.07501,-0.36808 -0.22347,-0.74143 -0.14872,-0.86237c0.05735,-0.05251 0.42433,-0.27237 0.42433,-0.27237l0.64884,-0.02312z" data-paper-data="{&quot;index&quot;:null}" fill="#fd4275" stroke="none" stroke-width="0" stroke-linecap="butt" stroke-linejoin="miter"/><path d="M243.41415,179.74407c0,0 -0.75891,-0.55928 -0.93712,-1.1065c-0.0941,-0.28897 0.48187,-1.50115 0.48187,-1.50115l0.05049,0.04662c0,0 -0.4932,1.10838 -0.39468,1.42572c0.14535,0.46814 0.92608,1.05935 0.92608,1.05935z" data-paper-data="{&quot;index&quot;:null}" fill="#fed000" stroke="none" stroke-width="0" stroke-linecap="butt" stroke-linejoin="miter"/><path d="M243.02156,177.12411c0,0 -0.27918,0.56479 -0.37943,0.82019c-0.04249,0.10828 -0.12076,0.30939 -0.13435,0.48779c-0.01391,0.18267 0.03734,0.34143 0.03734,0.34143c0,0 -0.13488,-0.18194 -0.16268,-0.2388c-0.0278,-0.05684 -0.0148,-0.21496 -0.0148,-0.21496l0.46532,-1.14663l-0.42752,-0.4929l0.60836,-0.2739l-0.67714,0.0217l0.35442,-0.25945l0.6213,0.152l-0.71301,0.40212l0.42219,0.40142z" data-paper-data="{&quot;index&quot;:null}" fill="#fff9f9" stroke="none" stroke-width="0" stroke-linecap="butt" stroke-linejoin="miter"/></g></g></svg>