<svg version="1.1" xmlns="http://www.w3.org/2000/svg" xmlns:xlink="http://www.w3.org/1999/xlink" width="200.16828" height="83.47421" viewBox="0,0,200.16828,83.47421"><g transform="translate(-128.36864,-176.69504)"><g data-paper-data="{&quot;isPaintingLayer&quot;:true}" fill-rule="nonzero" stroke-miterlimit="10" stroke-dasharray="" stroke-dashoffset="0" style="mix-blend-mode: normal"><g data-paper-data="{&quot;index&quot;:null}" stroke="none" stroke-width="0" stroke-linecap="butt" stroke-linejoin="miter"><path d="M250.88366,204.0588c0,0 2.51016,-3.81231 4.99964,-4.64263c2.48945,-0.83029 8.16788,-1.74504 10.88196,0.24355c3.6167,2.64995 -5.83015,3.57276 -5.83015,3.57276c0,0 1.43671,0.89352 3.74596,1.70724c4.08744,1.44037 8.3617,2.67914 8.4604,3.90456c0.17701,2.19768 -8.96019,0.32864 -8.96019,0.32864c0,0 9.54619,4.05559 9.06473,5.58329c-0.4655,1.4772 -10.48967,-0.72992 -10.48967,-0.72992c0,0 6.83917,3.52735 7.18933,5.31543c-0.93941,1.73152 -9.52044,-1.70472 -9.52044,-1.70472c0,0 5.49691,4.28597 5.38133,5.89906c-0.66372,0.98163 -5.96685,-1.46035 -9.47807,-3.35677c-3.51122,-1.89641 -4.51716,-3.21341 -5.62526,-4.0964c-1.70624,-1.35951 -2.00988,-2.74018 -2.00988,-2.74018l2.19031,-9.28412z" fill="#ffffff"/><path d="M241.41378,206.87163c0.25128,-2.38774 3.65445,-6.66069 5.55754,-6.87781c1.90303,-0.21714 6.08959,0.67977 6.20164,3.07813c0.40948,8.76113 -4.11997,11.21097 -8.10134,11.29783c-2.60048,0.05676 -4.3655,-0.77268 -3.65778,-7.49808z" fill="#fed000"/><path d="M243.12791,206.77357c0.69208,-2.10616 2.08498,-3.54023 3.11102,-3.20297c1.02615,0.33719 1.29687,2.31792 0.60476,4.42404c-0.69209,2.10621 -2.08495,3.54026 -3.11105,3.203c-1.02607,-0.33722 -1.29686,-2.31797 -0.60478,-4.42412z" fill="#c28830"/><path d="M224.008,199.42266c4.78234,0.54418 10.20606,2.00251 13.7466,3.11393c5.06206,1.58908 9.61724,2.85591 9.61724,2.85591c0,0 0.1867,2.20462 -0.63483,3.23876c-0.82145,1.03419 -0.94762,1.46832 -0.94762,1.46832c0,0 -7.87859,-2.79164 -9.92072,-3.43268c-3.34982,-1.05152 -7.64964,-2.21048 -12.59306,-3.43259c-1.23862,-0.30622 -1.79737,-1.13048 -1.53675,-2.40637c0.17514,-0.8572 0.68557,-1.58546 2.26915,-1.40526z" fill="#fed5c7"/></g><path d="M230.11849,219.62288c-1.85267,0.40059 -2.87557,-2.08598 -5.96016,-3.36812c-2.70741,-1.09651 -5.25168,-2.46086 -5.86966,-3.85216c-0.19044,-0.42908 0.43441,-2.40085 0.60293,-2.80192c0.21287,-0.50661 0.67794,-2.77627 2.66232,-2.97341c0.51013,-0.05026 3.00812,-0.24786 3.57077,0.22385c0.5952,0.49753 2.38916,0.66206 2.94564,0.99707c1.75724,1.05807 2.04125,1.59008 3.19149,2.14972c1.45561,0.7087 0.67256,0.19091 1.24242,1.38585c0,0 -0.59249,7.57469 -2.38575,8.23912z" data-paper-data="{&quot;index&quot;:null}" fill="#319a2b" stroke="none" stroke-width="0.17188" stroke-linecap="butt" stroke-linejoin="miter"/><g data-paper-data="{&quot;index&quot;:null}" stroke="none" stroke-linecap="butt" stroke-linejoin="miter"><path d="M221.88767,207.51684c1.20104,-0.5269 2.98897,-0.90433 5.07751,-1.00591c2.08813,-0.10176 4.08497,0.09129 5.62448,0.48463c1.53935,0.39372 2.62081,0.98803 2.87864,1.68982c0.25763,0.70131 -0.35719,1.37834 -1.55839,1.90562c-1.20099,0.52688 -2.98878,0.90388 -5.07734,1.0055c-2.08813,0.10176 -4.08514,-0.09088 -5.62448,-0.48463c-1.53951,-0.39335 -2.6208,-0.98807 -2.87841,-1.68933c-0.25785,-0.70184 0.35696,-1.37883 1.55798,-1.9057z" fill="#eb3d66" stroke-width="0.01872"/><path d="M222.03613,208.51988c-0.10663,-0.32209 0.17319,-0.65939 0.71162,-0.94396c0.53857,-0.285 1.33571,-0.5172 2.26333,-0.62924c0.92777,-0.11242 1.81154,-0.08302 2.49013,0.05466c0.67895,0.13788 1.15259,0.38395 1.2592,0.70599c0.10716,0.32178 -0.17305,0.65905 -0.7116,0.94402c-0.53857,0.285 -1.33568,0.51721 -2.2629,0.62937c-0.9276,0.112 -1.81192,0.08287 -2.49046,-0.05484c-0.67891,-0.13786 -1.15216,-0.38382 -1.25916,-0.70606z" fill="#ffffff" stroke-width="0.01896"/></g><path d="M229.21927,218.63384c0,0 1.77758,-2.57164 2.62539,-4.58935c0.84781,-2.01772 -0.09366,-3.37207 1.27612,-3.4863c0.70737,-0.05899 1.11291,2.58575 0.1378,4.54512c-1.77208,3.56074 -3.65854,5.04889 -3.65854,5.04889z" data-paper-data="{&quot;index&quot;:null}" fill="#ead42f" stroke="none" stroke-width="0" stroke-linecap="butt" stroke-linejoin="miter"/><g data-paper-data="{&quot;index&quot;:null}" stroke-width="0" stroke-linecap="butt" stroke-linejoin="miter"><g data-paper-data="{&quot;index&quot;:null}"><path d="M170.92332,208.71058c-3.04064,-3.10259 -2.99966,-8.07361 0.09156,-11.1031c3.09119,-3.02953 8.06203,-2.97028 11.10267,0.13231c3.04064,3.10259 2.99972,8.07368 -0.0915,11.10317c-3.09119,3.02953 -8.0621,2.97021 -11.10273,-0.13237z" fill="#e0cb17" stroke="none"/><path d="M178.27738,208.71101c-1.90975,1.87165 -4.9807,1.83505 -6.85925,-0.08175c-1.87855,-1.9168 -1.85317,-4.98789 0.05658,-6.85953c1.90978,-1.87166 4.98072,-1.83501 6.85927,0.08179c1.87856,1.91684 1.85317,4.98789 -0.05658,6.85953z" fill="#e0cb17" stroke="#000000"/><path d="M169.76542,210.40165c-1.65657,-1.70541 -2.6863,-4.81258 -2.6863,-4.81258l2.22828,-0.57493c0,0 0.85118,2.80272 2.21973,4.04941c1.36858,1.24677 4.33465,1.9214 4.33465,1.9214l-1.36025,2.5743c0,0 -3.28638,-1.66506 -4.73618,-3.1576z" fill="#dbded5" stroke="#000000"/></g><g data-paper-data="{&quot;index&quot;:null}" stroke="none"><path d="M153.20108,204.95085l-0.16325,-1.29083l15.79103,-1.0494l-0.06486,0.81311z" fill="#6e6e73"/><path d="M165.77827,202.42883l0.01349,1.88958l-7.2998,0.46534l0.07298,-1.80142z" fill="#ddcb1e"/></g></g><path d="M136.60698,239.74802c-5.47738,-1.027 -9.08819,-6.28353 -8.06495,-11.74078c1.02324,-5.45725 6.29302,-9.04869 11.7704,-8.02169c5.47742,1.02703 9.08821,6.28359 8.06496,11.74084c-1.02324,5.45725 -6.29302,9.04869 -11.77041,8.02169z" fill="#e0cb17" stroke="none" stroke-width="0" stroke-linecap="butt" stroke-linejoin="miter"/><path d="M131.358,231.90909c0.63217,-3.37153 3.88786,-5.59026 7.27178,-4.95581c3.38395,0.63449 5.61468,3.88195 4.98251,7.25347c-0.63215,3.3715 -3.88782,5.59035 -7.27174,4.95589c-3.38393,-0.63451 -5.61472,-3.88202 -4.98254,-7.25356z" fill="#e0cb17" stroke="#000000" stroke-width="0" stroke-linecap="butt" stroke-linejoin="miter"/><path d="M135.6307,242.18927c-2.62571,-0.48031 -6.74605,-2.79514 -6.74605,-2.79514l1.77336,-3.28725c0,0 2.83599,2.68035 5.14169,3.24947c2.30573,0.56914 5.90084,-0.52386 5.90084,-0.52386l0.97742,2.78566c0,0 -4.04709,1.11992 -7.0472,0.57112z" fill="#dbded5" stroke="#000000" stroke-width="0" stroke-linecap="butt" stroke-linejoin="miter"/><path d="M223.79451,227.88544c-1.7899,-0.69165 -11.89241,-1.05515 -12.17019,-6.30411c-0.04314,-0.81465 4.6993,-7.52403 8.86536,-8.82829c5.66702,-1.77419 11.23755,1.90933 11.23755,1.90933l0.97151,12.64214c0,0 -7.1144,1.27264 -8.90426,0.58101z" fill="#e4dcaa" stroke="none" stroke-width="0" stroke-linecap="butt" stroke-linejoin="miter"/><path d="M213.20639,223.53162c-0.08696,-1.04678 1.60386,-2.04177 3.77662,-2.22235c2.17277,-0.18058 4.00466,0.52165 4.09167,1.5684c0.08701,1.04675 -1.60386,2.04168 -3.77663,2.22226c-2.17282,0.1806 -4.00465,-0.52156 -4.09166,-1.56831z" fill="#000000" stroke="none" stroke-width="0" stroke-linecap="butt" stroke-linejoin="miter"/><path d="M241.50639,225.95048c-3.3878,0.88366 -8.86486,1.37294 -8.86486,1.37294c0,0 -1.59121,-2.18078 -2.14992,-3.62236c-0.55871,-1.44158 -0.97111,-3.87143 -0.97111,-3.87143l2.76827,-5.25835c0,0 12.04871,-1.84433 13.59639,-2.0256c3.11691,-0.36505 5.92788,5.23262 5.92788,5.23262l-1.55984,4.95139c0,0 -5.35908,2.33718 -8.7469,3.22088z" fill="#dfcc17" stroke="none" stroke-width="0" stroke-linecap="butt" stroke-linejoin="miter"/><path d="M251.64418,218.14254c0,0 -11.50893,-3.11417 -11.59955,-4.20455c-0.09062,-1.09039 4.34816,-4.73489 5.30415,-4.81434c0.95605,-0.07948 7.3911,1.22999 7.48172,2.32037c0.09066,1.0904 -1.18621,6.69857 -1.18621,6.69857z" fill="#807d5a" stroke="none" stroke-width="0" stroke-linecap="butt" stroke-linejoin="miter"/><path d="M154.86121,247.32472l-0.1053,-1.04115l39.84124,2.55879l0.82765,1.50216z" fill="#6e6e73" stroke="none" stroke-width="0" stroke-linecap="butt" stroke-linejoin="miter"/><path d="M167.92991,246.48095l0.14269,2.30837l-9.37498,-0.39796l-0.03414,-2.42392z" fill="#ddcb1e" stroke="none" stroke-width="0" stroke-linecap="butt" stroke-linejoin="miter"/><g data-paper-data="{&quot;index&quot;:null}" stroke="none" stroke-width="0" stroke-linecap="butt" stroke-linejoin="miter"><g><path d="M295.74933,193.90679l-1.8191,-6.14102c0,0 2.27461,-3.28263 4.13205,0.80869c1.85745,4.09133 1.81054,7.27529 1.40425,11.3856c-0.24116,2.43993 -2.77124,7.189 -2.77124,7.189l1.05617,3.85881c0,0 -0.42038,3.05066 -1.93524,3.91199c-5.3865,3.06278 -8.4315,1.01191 -8.4315,1.01191c0,0 4.619,-5.19702 5.84017,-8.41248c1.50657,-3.96711 2.52451,-13.61246 2.52451,-13.61246z" fill="#393939"/><path d="M270.7978,199.85413l1.1603,-0.90816l1.67463,-0.37805c0,0 3.27879,-1.69105 4.45213,-2.49581c1.44374,-0.99019 3.00352,-2.04535 6.12828,-4.69257c3.80917,-2.12431 10.30167,-2.67738 10.30167,-2.67738c0,0 1.74878,2.09142 1.71762,6.81272c-0.10534,15.95306 -8.10362,19.89728 -8.10362,19.89728c0,0 -3.93625,1.73143 -6.23213,1.88737c-2.29597,0.15595 -4.2552,-0.61491 -5.79561,-1.07036c-1.54045,-0.45547 -2.89931,-2.04935 -2.89931,-2.04935c0,0 0.19883,0.5751 -1.15456,0.38448c-0.30895,-0.04354 -1.22003,-0.82727 -1.22003,-0.82727l-0.14505,0.77263l-2.93802,-0.04192l-0.60404,-12.33465z" fill="#f01a40"/><path d="M255.6471,208.67303c-0.33606,-3.57259 2.17792,-7.91417 3.35799,-8.2023c1.18006,-0.28808 3.50488,1.33034 3.50488,1.33034c0,0 2.97665,-1.42959 3.9937,-0.45029c1.51603,1.45988 2.09547,2.71939 3.01292,7.09632c0.23033,2.45888 -1.07894,4.31906 -1.90449,5.87515c-1.01056,1.90487 -1.74061,0.2334 -3.06768,0.61028c-1.32702,0.37683 0.7265,-0.67313 -2.48296,0.96587c-2.29892,1.17404 -6.2489,-5.46656 -6.41431,-7.22538z" fill="#ffffff"/><path d="M271.78464,202.92207c0.22447,-0.09327 2.51065,-1.00059 2.51065,-1.00059c0,0 8.47156,-7.35433 11.56918,-8.57306c3.81516,-1.50107 9.73598,-2.62131 9.73598,-2.62131c0,0 0.60935,2.02099 0.7484,3.05404c0.14306,1.06277 -0.17822,5.7304 -0.17822,5.7304c0,0 -10.7466,2.15266 -12.47778,2.7398c-4.42194,1.86201 -8.04988,4.05612 -8.04988,4.05612l-1.29524,0.54599l-1.058,1.23957l-3.88569,1.04867l-1.29905,-5.75878c0,0 2.48628,0.03488 3.67965,-0.46079z" fill="#ffffff"/></g><path d="M261.52354,213.22284c-1.51599,0.38808 -3.27881,-1.38264 -3.93744,-3.95516c-0.65868,-2.57249 0.0363,-4.97254 1.55225,-5.36066c1.51595,-0.38812 3.27882,1.38264 3.93745,3.95516c0.6586,2.57253 -0.03639,4.97258 -1.55234,5.36069z" fill="#afafaf"/></g><path d="M238.35996,207.37893l14.75361,-1.0992l9.0844,-0.51178c0,0 1.58733,1.54604 1.16423,2.52249c-0.42311,0.97648 -0.389,2.38819 -0.389,2.38819l-11.31088,1.01549l-13.64733,0.83597z" data-paper-data="{&quot;index&quot;:null}" fill="#f79db4" stroke="none" stroke-width="0" stroke-linecap="butt" stroke-linejoin="miter"/><g data-paper-data="{&quot;index&quot;:null}" stroke="none" stroke-width="0" stroke-linecap="butt" stroke-linejoin="miter"><g><path d="M301.07943,205.16641l-1.4886,-6.22942c0,0 2.44664,-3.1565 4.08298,1.02815c1.63634,4.18465 1.41949,7.36161 0.79431,11.44438c-0.37114,2.42356 -3.15112,7.03075 -3.15112,7.03075l0.84858,3.90967c0,0 -0.58257,3.0239 -2.14127,3.80311c-5.5423,2.7708 -8.47353,0.56026 -8.47353,0.56026c0,0 4.8899,-4.943 6.28099,-8.08867c1.71639,-3.88103 3.24778,-13.45829 3.24778,-13.45829z" fill="#393939"/><path d="M275.84608,209.77297l1.2071,-0.84498l1.69244,-0.28809c0,0 3.36442,-1.51358 4.57908,-2.25455c1.49457,-0.91172 3.10843,-1.88207 6.37007,-4.35867c3.91719,-1.91788 10.42992,-2.12353 10.42992,-2.12353c0,0 1.63455,2.18185 1.35136,6.89475c-0.95702,15.92467 -9.15444,19.43616 -9.15444,19.43616c0,0 -4.02302,1.51885 -6.32397,1.55198c-2.30097,0.03319 -4.21626,-0.84117 -5.73016,-1.37824c-1.51395,-0.53699 -2.78576,-2.2012 -2.78576,-2.2012c0,0 0.16783,0.58484 -1.17343,0.32224c-0.30622,-0.05998 -1.17418,-0.89125 -1.17418,-0.89125l-0.1861,0.76381l-2.93157,-0.19877l0.0553,-12.3493z" fill="#f01a40"/><path d="M260.24599,217.77021c-0.14477,-3.58534 2.59741,-7.78655 3.79115,-8.01127c1.19372,-0.22463 3.42887,1.51561 3.42887,1.51561c0,0 3.04873,-1.26865 4.01202,-0.23645c1.43596,1.53872 1.94723,2.82745 2.62971,7.24712c0.09867,2.4676 -1.30805,4.25521 -2.21551,5.76499c-1.11073,1.8482 -1.75057,0.14012 -3.09587,0.44561c-1.34526,0.30547 0.76139,-0.63339 -2.531,0.83193c-2.35836,1.04964 -5.94811,-5.79232 -6.01937,-7.55746z" fill="#ffffff"/><path d="M276.6676,212.8892c0.22902,-0.08109 2.5605,-0.86512 2.5605,-0.86512c0,0 8.85212,-6.89151 12.01039,-7.9431c3.88986,-1.29522 9.86207,-2.09773 9.86207,-2.09773c0,0 0.50054,2.0506 0.58423,3.08962c0.08611,1.06894 -0.48393,5.71276 -0.48393,5.71276c0,0 -10.84621,1.57575 -12.60625,2.06961c-4.51505,1.62324 -8.25498,3.62051 -8.25498,3.62051l-1.32253,0.47602l-1.1227,1.18129l-3.93609,0.83981l-0.98973,-5.81994c0,0 2.48085,0.16756 3.69901,-0.26367z" fill="#ffffff"/></g><path d="M262.15034,218.46768c-0.52028,-2.60405 0.30184,-4.9636 1.83636,-5.27021c1.53449,-0.3066 3.20027,1.55576 3.72062,4.15977c0.52031,2.60403 -0.30176,4.96356 -1.8363,5.27018c-1.53451,0.30666 -3.20034,-1.55573 -3.72068,-4.15975z" fill="#afafaf"/></g><path d="M243.81724,214.18969l16.14068,0.70843l7.04256,0.45138c0,0 0.99824,2.27668 0.57491,3.30077c-0.42329,1.02412 -0.63644,2.29166 -0.63644,2.29166l-7.51224,-0.41617l-14.7055,-0.98665z" data-paper-data="{&quot;index&quot;:null}" fill="#f79db4" stroke="none" stroke-width="0" stroke-linecap="butt" stroke-linejoin="miter"/><path d="M242.56682,211.65879c0,0 13.07718,10.6927 13.39456,14.02908c0.34484,3.6255 -3.07483,9.94706 -3.07483,9.94706l-1.30907,-9.69852l-8.83081,-8.85989l-0.17979,-5.41775z" fill="#f79db4" stroke="none" stroke-width="0" stroke-linecap="butt" stroke-linejoin="miter"/><path d="M222.31239,215.32868l1.18333,-3.96877c0,0 3.24887,-0.67164 4.64208,-0.23175c1.31409,0.41491 3.51949,3.11117 3.51949,3.11117z" fill="#f25c76" stroke="none" stroke-width="0" stroke-linecap="butt" stroke-linejoin="miter"/><path d="M252.27215,195.8326c0,0 5.75848,3.4183 6.47195,11.19958c-4.6823,25.1473 -17.43415,20.6979 -17.43415,20.6979l0.68744,-4.69871c0,0 13.42483,2.14506 11.1725,-17.12658c-1.7006,-5.68945 -4.65114,-6.7226 -4.65114,-6.7226z" fill="#ffffff" stroke="none" stroke-width="0" stroke-linecap="butt" stroke-linejoin="miter"/><path d="M226.68929,201.00733c2.61347,-0.66532 11.44817,1.90238 11.44817,1.90238l9.22454,-3.90759c0,0 4.20956,0.94935 5.26963,2.66635c1.06007,1.717 1.11693,3.24957 1.35189,6.18888c-0.01646,7.59662 -0.97158,9.63785 -3.78284,14.77797c-3.05073,5.57799 -9.15333,0.28934 -9.15333,0.28934l-1.38109,-2.45643l-0.68874,-0.24949l-3.39263,-5.65851l-4.34912,-0.30903c0,0 -1.42659,-1.98579 -3.47188,-2.53515c-1.62025,-0.43517 -4.66707,-0.13806 -4.66707,-0.13806l-1.80744,-4.71953l0.02949,-1.50283c0,0 3.03132,-3.75285 5.37051,-4.3484z" fill="#f01a40" stroke="none" stroke-width="0" stroke-linecap="butt" stroke-linejoin="miter"/><path d="M221.45851,211.93678c0,0 0.85627,-4.41706 0.96128,-6.48575c0.10499,-2.06865 -0.86343,-5.29156 -0.86343,-5.29156c0,0 3.46581,0.20507 3.27619,5.54112c-0.20388,5.73687 -3.37408,6.23616 -3.37408,6.23616z" fill="#afafaf" stroke="none" stroke-width="0" stroke-linecap="butt" stroke-linejoin="miter"/><g data-paper-data="{&quot;index&quot;:null}" stroke-linecap="butt" stroke-linejoin="miter"><path d="M323.00814,221.50679l-36.59173,-5.27983c0,0 -3.95008,-11.23323 2.52794,-16.02188c6.13938,-4.53831 11.71177,-6.56729 19.83354,-5.83301c21.15155,1.9123 19.64779,20.87028 19.64779,20.87028z" fill="#fbdd00" stroke="none" stroke-width="0"/><path d="M324.48836,219.92137c0,0 0.2245,-2.6274 -0.32675,-5.37312c-0.36886,-1.83741 -1.64928,-3.75476 -1.36164,-4.5662c0.57842,-1.63207 1.14014,-0.24317 2.39974,2.9365c0.58738,1.48265 0.72937,5.39877 0.72937,5.39877l-1.44069,1.60404z" fill="#a58c48" stroke="#000000" stroke-width="0"/><path d="M315.62937,202.48692c-0.08927,0.76074 -4.14944,-1.22619 -7.77422,-1.65158c-3.62482,-0.42535 -9.77515,1.8366 -9.78499,0.08396c-0.01089,-1.91923 6.21524,-2.36424 9.85119,-2.04763c5.42644,0.47253 7.79729,2.85457 7.70801,3.61531z" fill="#a58c48" stroke="#000000" stroke-width="0"/><path d="M286.57774,213.45298l-0.63914,-1.55361c0,0 0.41913,-2.47178 1.2755,-4.06605c0.76887,-1.43126 2.21779,-1.33212 2.45024,-1.08253c0.66055,0.70925 -1.02817,1.66247 -1.86098,3.27278c-0.89974,1.7397 -1.22559,3.42945 -1.22559,3.42945z" fill="#a58c48" stroke="#000000" stroke-width="0"/><path d="M304.5016,223.11371c14.43694,2.0857 17.29703,10.69696 17.29703,10.69696c0,0 0.31228,-0.84144 0.03213,1.56943c-0.28015,2.41087 -0.3459,1.22679 -0.3459,1.22679c0,0 -4.75356,-7.49004 -13.27249,-10.26484c-13.55722,-4.41583 -23.66941,4.4511 -23.66941,4.4511l0.61037,-2.34248c0,0 9.05936,-6.8235 19.34819,-5.33701z" fill="#edeee6" stroke="none" stroke-width="0"/><path d="M286.02452,214.49285c0,0 9.41323,-10.71965 20.7307,-8.62324c14.34268,2.65679 17.14873,14.546 17.14873,14.546l-0.88742,1.06502c0,0 -4.45756,-8.53602 -12.78891,-11.48072c-13.25862,-4.68617 -23.89959,6.08169 -23.89959,6.08169l-0.30352,-1.58868z" fill="#edeee6" stroke="none" stroke-width="0"/><path d="M306.33306,207.5216c14.49937,2.09312 16.93761,15.12582 16.93761,15.12582c0,0 0.04609,3.84472 -0.23397,6.25558c-0.2801,2.41088 -1.20168,6.10197 -1.20168,6.10197c0,0 -4.77749,-7.49284 -13.3341,-10.27205c-13.61705,-4.42285 -23.76783,4.43953 -23.76783,4.43953l1.5633,-13.47846c0,0 9.70346,-9.66403 20.03674,-8.17229z" fill="#ff1a07" stroke="none" stroke-width="0"/><path d="M296.78557,209.06511c0,0 5.5904,-2.02672 9.2254,-1.6352c3.63499,0.39151 7.91463,3.97513 7.91463,3.97513l-1.52134,12.96455c0,0 -5.64259,-1.97647 -8.43688,-2.30435c-2.87532,-0.33742 -8.90317,0.26953 -8.90317,0.26953z" fill="#ff1808" stroke="#000000" stroke-width="0"/><path d="M321.73002,234.49989c0,0 -0.95404,-2.44761 -1.89349,-3.80161c-0.93946,-1.35401 -2.88425,-3.08416 -2.88425,-3.08416l1.25468,-12.09227c0,0 2.63713,1.81169 3.68823,3.79065c1.05109,1.97895 1.38761,4.75503 1.29045,5.58306c-0.2573,2.1928 -1.45563,9.60431 -1.45563,9.60431z" fill="#ff1808" stroke="#000000" stroke-width="0"/><path d="M285.23825,229.06765c0,0 0.96901,-10.66747 1.69297,-13.02658c0.53003,-1.72711 4.79354,-4.44831 4.79354,-4.44831l-1.49285,12.72146c0,0 -1.4235,1.12568 -2.26342,1.92522c-0.83992,0.79954 -2.73019,2.82813 -2.73019,2.82813z" fill="#ff1808" stroke="#000000" stroke-width="0"/><path d="M279.2857,241.42552c0,0 -0.58996,-3.15873 1.02164,-6.39035c2.52129,-5.05585 8.64222,-11.12946 21.05847,-10.15373c23.67739,1.86058 23.48039,23.20933 23.48039,23.20933c0,0 -23.34315,-11.20015 -28.75804,-11.83561c-5.41485,-0.63541 -16.80248,5.17036 -16.80248,5.17036z" fill="#fbdd00" stroke="none" stroke-width="0"/><path d="M303.44997,228.57599c-2.81928,-0.33081 -9.82146,0.15992 -9.19426,-0.75033c0.92793,-1.34685 6.45298,-1.63376 9.2603,-1.21335c5.06905,0.75917 8.09422,3.12485 8.04169,3.57234c-0.05255,0.44755 -4.47826,-1.18263 -8.10782,-1.6086z" fill="#a58c48" stroke="#000000" stroke-width="0"/><path d="M323.10418,239.58974c0,0 -4.60344,-4.36892 -4.77736,-5.48928c-0.2711,-1.74581 3.97127,3.25895 3.97127,3.25895l0.80611,2.23036z" fill="#a58c48" stroke="#000000" stroke-width="0"/><path d="M287.93629,229.87698c-0.17857,1.52158 -7.185,4.84925 -7.185,4.84925l1.74922,-2.91177c0,0 5.61423,-3.45902 5.43569,-1.93747z" fill="#a58c48" stroke="#000000" stroke-width="0"/><path d="M301.58886,259.65031c-13.02386,-1.69262 -23.51406,-8.73869 -22.37149,-18.47479c0.81919,-6.98113 13.34013,-10.75617 24.90552,-9.23472c11.07891,1.45754 21.4426,9.07496 20.62339,16.05611c-0.81926,6.98109 -12.06424,12.9912 -23.1454,11.55107z" fill="#fbdd00" stroke="#000000" stroke-width="0.25"/><path d="M318.94638,254.2424c-0.49367,4.20653 -8.91116,6.67587 -18.80111,5.51529c-9.88988,-1.16063 -17.50712,-5.51157 -17.01347,-9.71814c0.49367,-4.20653 8.91119,-6.67584 18.80113,-5.51526c9.88985,1.16059 17.50707,5.51147 17.01341,9.71804z" fill="#fbdd00" stroke="#000000" stroke-width="0.25"/><path d="M259.27978,227.55406l-28.71648,-1.56667c0,0 -1.71858,-1.44031 -1.65371,-2.38565c0.06495,-0.94529 1.48521,-2.9973 1.48521,-2.9973l28.59087,-0.12157l17.51103,-0.2934c0,0 -0.76539,2.51224 -0.81817,4.16968c-0.05278,1.65744 0.55629,4.05443 0.55629,4.05443z" fill="#fbdd00" stroke="none" stroke-width="0"/><path d="M284.57471,229.94046c0,0 -7.44253,-0.35024 -7.76587,-0.65682c-1.22733,-1.16386 -1.35999,-8.18926 0.11402,-10.05902c0.87029,-1.10406 11.18741,-1.17838 11.18741,-1.17838l-2.43415,10.92682z" fill="#c8c8c6" stroke="none" stroke-width="0"/><path d="M328.35859,214.41298c0,0 0.59963,-9.81207 -7.54293,-15.75057c-1.9751,-1.44053 -5.16934,-2.39843 -8.19714,-3.22734c-4.50117,-1.23215 -10.00272,-1.48222 -14.47863,0.03158c-5.53025,1.87045 -10.17654,6.05131 -10.17654,6.05131c0,0 9.49118,-12.04614 22.7254,-8.72883c19.61429,4.91646 17.66994,21.62392 17.66994,21.62392z" fill="#fbdd00" stroke="#000000" stroke-width="0.25"/><path d="M230.5633,225.98739c0,0 -1.71858,-1.44031 -1.65371,-2.38565c0.06493,-0.94533 1.4852,-2.99728 1.4852,-2.99728l12.27,-0.11365c0,0 0.31279,1.32441 0.26001,2.98185c-0.05275,1.65742 -0.46801,3.18323 -0.46801,3.18323z" fill="#a56402" stroke="none" stroke-width="0"/></g><g data-paper-data="{&quot;index&quot;:null}" stroke="none" stroke-width="0" stroke-linecap="butt" stroke-linejoin="miter"><path d="M250.27894,217.31475c0,0 6.02546,-0.51288 9.63081,-0.29234c0.57439,0.03513 3.96399,2.9411 5.2822,4.46265c0.72001,0.83104 2.07152,2.37065 1.2465,4.02367c-0.21031,0.42146 -2.1037,1.72129 -2.1037,1.72129l0.3341,1.74938c0,0 -0.47621,0.94795 -1.01742,1.29403c-0.54121,0.34609 -1.71968,0.55267 -1.71968,0.55267c0,0 -0.2979,0.66542 -0.4106,1.17537c-0.36788,1.66448 -1.95286,1.45702 -1.95286,1.45702c0,0 -0.1286,1.23803 -0.72217,1.91709c-0.94103,1.07651 -2.62842,1.79207 -3.62039,1.862c-1.68502,0.11882 -6.32816,-0.66712 -6.78732,-2.17177c-0.71515,-2.34344 2.25441,-2.88136 2.25441,-2.88136c0,0 -2.4048,-0.87059 -3.38425,-2.06954c-1.50821,-1.8461 -1.51355,-3.39078 -1.51355,-3.39078l4.48394,-9.40951z" fill="#ffffff"/><path d="M240.03589,219.46595c0.43681,-2.36087 4.16304,-6.35521 6.07727,-6.4232c1.91419,-0.06796 6.01792,1.15288 5.94251,3.55265c-0.27536,8.76637 -4.98216,10.85534 -8.9582,10.63125c-2.59699,-0.14634 -4.29188,-1.11098 -3.06157,-7.76065z" fill="#fed000"/><path d="M241.75244,219.50197c0.85429,-2.04573 2.35482,-3.36674 3.35148,-2.95045c0.9967,0.41626 1.11205,2.41199 0.25771,4.45772c-0.85434,2.04577 -2.35483,3.36677 -3.35148,2.95049c-0.99667,-0.41629 -1.11203,-2.41208 -0.2577,-4.45781z" fill="#c28830"/><path d="M223.26439,210.68156c4.72525,0.91567 10.01863,2.79275 13.46169,4.17709c4.92263,1.9792 9.36506,3.59761 9.36506,3.59761c0,0 0.01406,2.21248 -0.88559,3.17938c-0.89966,0.96695 -1.05927,1.38991 -1.05927,1.38991c0,0 -7.63675,-3.39793 -9.62264,-4.19637c-3.25753,-1.30971 -7.45385,-2.8006 -12.28683,-4.40474c-1.21099,-0.40196 -1.70367,-1.26726 -1.3443,-2.51896c0.24147,-0.84093 0.8072,-1.52708 2.37186,-1.22389z" fill="#fed5c7"/></g><g fill="none" stroke="none" stroke-width="1" stroke-linecap="butt" stroke-linejoin="miter" font-family="sans-serif" font-weight="normal" font-size="12" text-anchor="start"/><g fill="none" stroke="none" stroke-width="1" stroke-linecap="butt" stroke-linejoin="miter" font-family="sans-serif" font-weight="normal" font-size="12" text-anchor="start"/><path d="M218.08558,214.15144" fill="none" stroke="#000000" stroke-width="0.25" stroke-linecap="round" stroke-linejoin="miter"/><g><path d="M197.57391,207.62899c0,0 -1.66593,5.1914 0.89611,8.35888c4.14125,5.1197 11.31074,0.80562 11.31074,0.80562c0,0 -4.52755,3.45522 -8.49227,1.97397c-2.6173,-0.97777 -3.82814,-1.87606 -4.55489,-4.67148c-0.81434,-3.13243 0.84033,-6.4669 0.84033,-6.4669z" fill="#000000" stroke="none" stroke-width="0" stroke-linecap="butt" stroke-linejoin="miter"/><path d="M180.4964,218.98317c-4.8989,-12.67221 -0.01053,-26.36996 10.91833,-30.59491c10.9289,-4.22494 23.7598,2.62293 28.65865,15.29508c4.89885,12.67215 0.01055,26.36993 -10.91831,30.59488c-10.9289,4.22494 -23.75985,-2.62291 -28.6587,-15.29506z" fill="#f79eb4" stroke="none" stroke-width="0" stroke-linecap="butt" stroke-linejoin="miter"/><path d="M198.33471,186.58464c-0.07034,-0.00014 3.91165,-1.66974 10.12149,-0.7758c10.01183,1.4126 12.40253,6.94541 12.40253,6.94541l-3.87363,0.26428c0,0 -8.82335,-3.36172 -11.87804,-3.95571c-3.05471,-0.59396 -7.77861,0.37025 -7.77562,0.36994" fill="#f79eb4" stroke="#f89db5" stroke-width="0" stroke-linecap="butt" stroke-linejoin="round"/><g fill="#ffd5c5" stroke="none" stroke-width="1" stroke-linecap="round" stroke-linejoin="round"><path d="M207.72736,189.61462c1.85687,-1.23136 4.27591,-0.17121 6.02497,0.87856c0.28616,0.17179 2.51914,1.52151 4.80177,4.27624c2.86412,3.45657 4.13838,8.98838 4.54256,10.5625c0.48181,1.87738 -0.28751,5.84754 -0.63651,6.56414c-2.51201,5.15721 -5.46107,3.16245 -5.9077,2.89306c-0.2129,-0.12856 -0.99343,-1.00741 -1.0493,-2.37455c-0.05444,-1.3326 0.48146,-5.24201 0.00565,-6.33231c-0.51124,-1.1715 -5.31298,-6.93023 -6.63995,-10.37618c-0.26826,-0.71908 -0.39333,-1.75381 -0.16551,-2.50366c0.29674,-0.97597 0.98604,-2.53175 -0.37396,-3.165c-0.22021,-0.10241 -0.80435,-0.28844 -0.60202,-0.42274z"/><path d=""/></g><path d="M207.00586,189.55807c-0.17075,-0.20639 -0.48982,-1.37562 -1.52808,-2.8957c-0.69438,-0.94083 -1.39787,-1.87596 -2.17992,-2.74469c-0.4684,-0.52002 -1.08298,-0.92154 -1.52614,-1.45714c-0.0151,-0.01816 1.31577,0.99228 1.6641,1.32009c1.09187,1.02747 1.94614,2.00633 2.85149,3.19827c0.19885,0.26168 1.5342,2.51172 1.43579,2.53441" fill="#000000" stroke="#000000" stroke-width="0.25" stroke-linecap="butt" stroke-linejoin="round"/><path d="M206.03189,189.20385c0.05913,-0.13444 -0.38006,-1.41046 -1.70196,-2.72077c-1.3219,-1.31027 -3.54528,-2.97472 -3.71182,-2.99041c-0.06284,-0.00589 2.87566,1.65619 3.9154,2.54309c1.03974,0.88688 2.47638,3.03031 2.38464,3.05157" fill="#000000" stroke="#000000" stroke-width="0.25" stroke-linecap="butt" stroke-linejoin="round"/><g fill="#000000" stroke="none" stroke-width="1" stroke-linecap="round" stroke-linejoin="round"><path d="M210.26695,195.71017c-0.62918,-0.40796 -1.18341,-2.50213 -1.06334,-2.94664c0.20769,-0.76902 1.69981,0.30547 1.83325,0.73364c0.21597,0.95977 0.05796,2.7497 -0.76991,2.21301z"/><path d=""/></g><path d="M207.30483,218.51136c-0.23129,0.00008 7.34275,-2.40328 10.65317,-3.77789c6.23397,-2.58871 9.57563,-5.55162 9.57563,-5.55162c0,0 -0.36486,1.70204 -0.51054,2.13233c-0.44978,1.32933 -0.93754,2.53746 -1.613,3.78122c-1.58884,2.92535 -3.89891,5.3793 -6.55154,7.37213c-1.76786,1.32808 -10.2237,5.29525 -10.30939,5.22874" fill="#f79eb4" stroke="#f89db5" stroke-width="0" stroke-linecap="butt" stroke-linejoin="round"/><path d="M208.56858,228.10175c0.07706,0.03409 10.27657,-5.19583 13.01579,-6.89385c2.73921,-1.69798 6.44125,-5.16762 6.44125,-5.16762c0,0 0.36271,1.65435 -1.20808,4.7137c-1.38708,2.70135 -2.04918,4.17552 -5.60686,6.79225c-4.61653,3.39555 -11.55078,6.52431 -13.17908,6.36958" fill="#f79eb4" stroke="#f89db5" stroke-width="0" stroke-linecap="butt" stroke-linejoin="round"/><g fill="#ee1a40" stroke="none" stroke-width="1" stroke-linecap="round" stroke-linejoin="round"><path d="M184.43452,201.01446c-0.08518,0.4108 -2.12636,10.83005 1.24423,16.44307c2.65657,4.42402 5.59141,6.16601 10.6495,9.17707c3.90078,2.32227 10.65496,2.08117 10.73871,2.19671c0.00597,0.00828 -16.06571,4.75431 -23.34225,-7.24017c-5.76683,-9.75061 -2.21596,-20.76517 -1.90312,-21.28777"/><path d=""/></g><path d="M188.20969,198.34555c0.10329,0.05913 -4.57439,-2.75484 -5.5365,-10.16002c-0.16454,-1.32236 2.90511,-6.27745 5.3498,-8.37855c2.10359,-2.2207 6.98694,-3.17279 7.00442,-3.10894c0.0248,0.09172 -5.27429,5.7425 -5.2499,10.26846c0.0133,2.47125 2.34891,8.8607 2.48482,8.93853" fill="#f79eb4" stroke="#f89db5" stroke-width="0" stroke-linecap="butt" stroke-linejoin="round"/><path d="M189.59721,201.50704c-0.32872,0.08748 -7.49533,-0.58345 -8.86889,-1.27866c-1.3736,-0.69521 -2.22444,-0.85595 -3.23098,-3.10468c-2.66997,-7.94421 0.30804,-15.64365 0.30804,-15.64365c0,0 1.49299,6.30785 3.12586,8.94162c2.26551,3.65399 6.80562,7.61592 7.275,7.88802" fill="#f79eb4" stroke="#f89db5" stroke-width="0" stroke-linecap="butt" stroke-linejoin="round"/><g stroke="none" stroke-width="1" stroke-linecap="round" stroke-linejoin="round"><g fill="#f79eb4"><path d="M198.59926,226.79147c-1.32907,0.61203 -3.43634,2.1493 -5.99991,3.15183c-2.56356,1.00248 -5.94165,2.05598 -6.78318,1.84712c-1.10022,-0.27296 -1.38828,-3.50896 -1.13168,-7.02278c0.25667,-3.51381 1.76837,-8.3219 2.28085,-8.71367"/></g><g fill="#ffd5c5"><path d="M196.13622,225.26785c-0.30668,0.16449 -1.62958,1.18151 -3.50705,1.97185c-1.87743,0.79035 -4.84066,1.63403 -4.96774,1.59569c-0.51527,-0.1555 -0.69105,-3.82396 -0.52032,-5.73853c0.1707,-1.91462 0.98768,-4.08113 1.4508,-4.69522"/></g></g><g fill="#f79eb4" stroke="none" stroke-width="1" stroke-linecap="round" stroke-linejoin="round"><path d="M179.83227,203.65742c-0.76845,-0.99008 -1.49242,-2.07606 -2.63899,-4.53134c-1.14656,-2.45529 -2.61178,-5.49354 -2.49089,-6.45347c0.02481,-0.1966 2.29952,-1.58594 4.33244,-1.99526c3.17323,-0.63901 6.99522,-0.10546 7.05647,-0.09199"/><path d=""/></g><path d="M192.69605,196.01279c-0.05326,0.19801 -2.9533,-3.44793 -2.32273,-7.44351c0.18111,-1.1478 4.75491,-5.14827 5.34962,-5.30366c2.27841,-0.99074 9.04435,-0.95884 9.03763,-0.96323c-0.14511,-0.09598 -4.1479,2.85494 -6.43227,6.60182c-0.76093,1.26455 -1.95546,5.15579 -2.10662,5.71629" fill="#f79eb4" stroke="#f89db5" stroke-width="0" stroke-linecap="butt" stroke-linejoin="round"/><path d="M214.8321,214.81168c0.17259,0.03987 0.44646,0.60267 0.40638,1.44961c-0.25701,5.43762 -1.47728,6.58965 -1.47728,6.58965c0,0 1.34856,-2.34064 0.9525,-5.97433c-0.07712,-0.70763 -0.32679,-1.59502 -0.40845,-1.77674c-0.07794,-0.17335 -0.27105,-0.27513 -0.27476,-0.48912" fill="#000000" stroke="#000000" stroke-width="0.25" stroke-linecap="butt" stroke-linejoin="round"/><path d="M215.99853,214.54543c0,0 0.21688,0.07539 0.57273,0.51064c0.65988,0.80708 1.55583,3.16608 1.81491,4.31926c0.61756,2.74982 0.31378,4.54113 0.31378,4.54113c0,0 -0.29072,-3.26742 -0.50145,-4.26018c-0.65189,-2.98978 -2.45603,-4.42773 -2.73578,-4.60707c-0.12322,-0.07908 -0.43638,-0.22345 -0.50038,-0.34575" fill="#000000" stroke="#000000" stroke-width="0.25" stroke-linecap="butt" stroke-linejoin="round"/><path d="M204.69162,216.30071l7.54032,-13.37359" data-paper-data="{&quot;index&quot;:null}" fill="none" stroke="#e57e89" stroke-width="1.5" stroke-linecap="round" stroke-linejoin="miter"/><path d="M203.02937,204.04187l11.71208,8.73971" fill="none" stroke="#e57e89" stroke-width="1.5" stroke-linecap="round" stroke-linejoin="miter"/><path d="M199.93753,199.81304l6.7276,-11.93213" data-paper-data="{&quot;index&quot;:null}" fill="none" stroke="#e57e89" stroke-width="1.5" stroke-linecap="round" stroke-linejoin="miter"/><path d="M198.45445,188.87551l10.44971,7.79771" fill="none" stroke="#e57e89" stroke-width="1.5" stroke-linecap="round" stroke-linejoin="miter"/></g></g></g></svg>