<svg version="1.1" xmlns="http://www.w3.org/2000/svg" xmlns:xlink="http://www.w3.org/1999/xlink" width="38" height="31.04818" viewBox="0,0,38,31.04818"><g transform="translate(-217.38589,-163.30542)"><g data-paper-data="{&quot;isPaintingLayer&quot;:true}" fill-rule="nonzero" stroke-linejoin="miter" stroke-miterlimit="10" stroke-dasharray="" stroke-dashoffset="0" style="mix-blend-mode: normal"><g data-paper-data="{&quot;index&quot;:null}"><path d="M230.45412,188.72342c-0.35438,1.27794 -0.34301,4.54667 -0.34301,4.54667c0,0 -0.62391,0.20671 -0.59016,-1.03868c0.01955,-0.72129 0.27647,-2.48342 0.62787,-3.63715c0.42124,-1.38303 1.77475,-3.88319 1.77475,-3.88319l0.82466,-0.01376c0,0 -2.0415,3.11502 -2.29411,4.02611z" fill="#989898" stroke="#989898" stroke-width="0" stroke-linecap="round"/><path d="M234.01096,186.5351c0.14762,0.84919 -0.25373,3.06645 -0.25373,3.06645l-2.97173,-1.84899c0,0 0.68411,-1.7509 1.34038,-2.6463c0.3119,-0.42527 0.71212,-0.61916 1.30367,0.00197c0.41612,0.43694 0.48431,0.87302 0.58141,1.42688z" fill="#f82020" stroke="none" stroke-width="1.13968" stroke-linecap="round"/><path d="M230.83877,187.67809c0,0 2.77314,0.48411 2.93,1.78643c0.08035,0.73159 -0.91116,2.6905 -1.39049,3.20748c-0.4824,0.5199 -1.7111,0.75394 -2.29527,0.65722c-0.34315,-0.05676 -0.25802,-0.80444 -0.22983,-1.24295c0.07173,-1.0936 0.2929,-2.38468 0.55577,-3.34357c0.26287,-0.9589 0.42984,-1.06462 0.42984,-1.06462z" fill="#f8f8f8" stroke="none" stroke-width="1.15102" stroke-linecap="round"/><path d="M235.83046,186.77157c-0.02075,0.36726 0.01303,2.12804 -0.26141,2.60667c-0.21155,0.36895 -0.80402,-0.15608 -0.80402,-0.15608c0,0 -0.59346,0.20503 -0.71663,0.19807c-0.46434,-0.02624 -0.13755,-1.32931 -0.08752,-2.21445c0.01001,-0.17701 -0.20965,-1.04805 -0.11821,-1.55457c0.05441,-0.30144 0.05857,-0.58383 0.45751,-0.79936c0.41088,-0.22198 0.55204,0.40734 0.55204,0.40734c0,0 0.42708,-0.6479 0.92319,-0.11856c0.43675,0.466 0.07924,1.20303 0.05506,1.63094z" fill="#ffffff" stroke="none" stroke-width="0" stroke-linecap="butt"/></g><path d="M237.00268,186.05224c0.36,-0.4811 -0.0547,-1.3017 0.3044,-1.7794c0.2006,-0.268 0.8477,-0.3606 1.004,-0.0852c0.3957,0.7044 0.3791,1.6079 0.3326,2.4196c-0.0254,0.4538 -0.1931,0.9526 -0.5726,1.1504c-0.6184,0.3308 -1.4755,0.5232 -2.1297,0.1995c-0.4199,-0.2025 -0.5774,-0.9612 -0.3455,-1.4122c0.2293,-0.439 1.1007,-0.0853 1.4068,-0.4927z" data-paper-data="{&quot;index&quot;:null}" fill="#e88820" stroke="none" stroke-width="0.49091" stroke-linecap="round"/><path d="M235.41518,186.87644c0.3771,-0.4679 -0.0078,-1.3029 0.3682,-1.7673c0.2101,-0.2607 0.8601,-0.3299 1.0064,-0.0491c0.3701,0.7182 0.321,1.6205 0.2454,2.43c-0.0417,0.4526 -0.2273,0.945 -0.6136,1.1291c-0.6298,0.3083 -1.4933,0.4698 -2.1355,0.1227c-0.4123,-0.2175 -0.5424,-0.9813 -0.2945,-1.4236c0.245,-0.4305 1.1031,-0.0457 1.4236,-0.4418z" data-paper-data="{&quot;index&quot;:null}" fill="#f8b820" stroke="none" stroke-width="0.49091" stroke-linecap="round"/><g data-paper-data="{&quot;index&quot;:null}"><path d="M231.37034,185.57672c0,0 -1.86246,3.22525 -2.06326,4.14915c-0.2817,1.2959 -0.0859,4.55878 -0.0859,4.55878c0,0 -0.61125,0.24159 -0.64783,-1.00372c-0.02118,-0.72125 0.13589,-2.49507 0.42163,-3.66679c0.34253,-1.4046 1.5528,-3.97715 1.5528,-3.97715l0.82257,-0.06027z" fill="#989898" stroke="#989898" stroke-width="0" stroke-linecap="round"/><path d="M232.73478,187.34033c0.1953,0.8395 -0.08029,3.07588 -0.08029,3.07588l-3.07133,-1.67835c0,0 0.58422,-1.78672 1.18892,-2.71772c0.2874,-0.4422 0.67604,-0.65836 1.3017,-0.0716c0.44011,0.41276 0.5328,0.8443 0.661,1.3918z" fill="#f82020" stroke="none" stroke-width="1.13968" stroke-linecap="round"/><path d="M229.63215,188.66046c0,0 2.79604,0.32684 3.02614,1.61824c0.1215,0.7259 -0.75788,2.73764 -1.20728,3.28084c-0.4523,0.5463 -1.66583,0.8493 -2.25453,0.7857c-0.3458,-0.0373 -0.303,-0.7886 -0.2996,-1.228c0.0099,-1.0959 0.15786,-2.39741 0.3662,-3.3696c0.20834,-0.9722 0.36908,-1.08718 0.36908,-1.08718z" fill="#f8f8f8" stroke="none" stroke-width="1.15102" stroke-linecap="round"/><path d="M234.56474,187.47375c0,0.36784 0.1331,2.12391 -0.1139,2.61727c-0.1904,0.38031 -0.81155,-0.11046 -0.81155,-0.11046c0,0 -0.58095,0.2382 -0.70432,0.2382c-0.46508,0 -0.21234,-1.31943 -0.21234,-2.20599c0,-0.1773 -0.26846,-1.03455 -0.20575,-1.54542c0.03732,-0.30402 0.02553,-0.5862 0.41167,-0.8239c0.3977,-0.24482 0.57415,0.37554 0.57415,0.37554c0,0 0.38985,-0.67097 0.91503,-0.17047c0.46234,0.44061 0.147,1.19663 0.147,1.62523z" fill="#ffffff" stroke="none" stroke-width="0" stroke-linecap="butt"/></g><path d="M235.39789,182.93794c0.0741,-0.4123 0.60001,-0.80934 1.09291,-0.92624c0.5778,-0.1296 1.26671,-0.07219 1.80481,0.17571c0.9641,0.4442 1.9062,0.9734 2.749,1.62c0.2106,0.1615 0.1503,0.3495 0.0737,0.4909c-0.2926,0.6058 -0.5719,1.3112 -1.1291,1.6445c-0.5587,0.3334 -1.2886,0.2435 -1.9391,0.2455c-0.7074,0.0049 -1.6981,0.2597 -2.1109,-0.3191c-0.597,-0.8409 -0.70622,-1.81247 -0.54132,-2.93127z" data-paper-data="{&quot;index&quot;:null}" fill="#f8b820" stroke="none" stroke-width="0.49091" stroke-linecap="round"/><path d="M237.68341,186.05936c-0.2894,-0.0991 -0.3874,-0.5729 -0.3386,-0.8546c0.0381,-0.2745 0.3254,-0.5457 0.5533,-0.5234c0.3348,0.0445 0.5673,0.3761 0.8384,0.5805c0.2997,0.2266 1.0667,0.5844 0.8707,0.7579c-0.3306,0.2252 -1.3161,0.2468 -1.9238,0.0396z" data-paper-data="{&quot;index&quot;:null}" fill="#f8f8f8" stroke="none" stroke-width="1" stroke-linecap="round"/><path d="M240.26548,184.68786c-0.0174,-0.1361 0.59232,0.42772 0.67922,0.19732c0.1518,-0.4211 -0.55582,-1.28412 -0.19752,-1.37752c0.5602,-0.0761 1.3748,0.7851 2.0908,1.0947c0.313,0.1356 0.7625,0.0879 0.9578,0.3676c0.1414,0.2081 0.0264,0.6134 -0.2086,0.7135c-0.7922,0.2758 -1.7152,0.5298 -2.5298,0.2871c-0.4775,-0.1421 -0.781,-0.9042 -0.7919,-1.2827z" data-paper-data="{&quot;index&quot;:null}" fill="#f8f8f8" stroke="none" stroke-width="1" stroke-linecap="round"/><path d="M234.73725,175.14451c0,-1.70864 -2.43331,-4.33621 -2.51236,-5.2306c-0.09865,-1.11609 3.11029,-0.02077 3.11029,-0.02077c0,0 3.07861,-0.19222 2.87875,0.62371c-0.18121,0.73975 -2.3331,3.03621 -2.3331,5.04466c0,5.97059 0.32063,6.9421 0.32063,6.9421c0,0 -0.08485,0.49691 -0.30752,-0.07576c-0.35754,-0.91952 -1.15669,-3.60412 -1.15669,-7.28335z" data-paper-data="{&quot;index&quot;:null}" fill="#e2a026" stroke="none" stroke-width="0" stroke-linecap="butt"/><path d="M238.31909,175.35296c0,3.45674 -0.88422,6.06914 -1.29197,7.04764c-0.29653,0.7116 -0.26929,0.21858 -0.26929,0.21858c0,0 0.21456,-0.87861 0.21456,-6.84921c0,-2.00845 -1.93709,-4.95512 -2.15048,-5.69487c-0.23536,-0.81593 3.08336,0.02651 3.08336,0.02651c0,0 2.29167,-0.81665 2.1755,0.29943c-0.0931,0.89439 -1.76167,3.2433 -1.76167,4.95194z" data-paper-data="{&quot;index&quot;:null}" fill="#e2a026" stroke="none" stroke-width="0" stroke-linecap="butt"/><path d="M236.3859,163.30542c10.49341,0 19,2.31852 19,5.17857c0,2.86005 -8.50659,5.17857 -19,5.17857c-10.49341,0 -19,-2.31852 -19,-5.17857c0,-2.86005 8.50659,-5.17857 19,-5.17857z" data-paper-data="{&quot;index&quot;:null}" fill-opacity="0.90196" fill="#e3a127" stroke="none" stroke-width="0" stroke-linecap="butt"/><path d="M250.70475,165.37823c3.0206,0.99642 4.03525,3.79772 4.03525,3.79772c0,0 -2.25123,-2.29169 -3.56304,-3.05082c-0.52216,-0.30217 -3.47329,-1.10061 -3.47329,-1.10061c0,0 2.34365,0.64735 3.25062,1.22854c0.90697,0.58119 1.8555,2.0435 1.8555,2.0435c0,0 -1.7828,-1.25416 -2.56834,-1.6461c-0.78553,-0.39194 -2.13721,-0.70173 -2.13721,-0.70173c0,0 1.11473,0.42764 1.52888,0.73151c0.41416,0.30387 0.84434,1.00973 0.84434,1.00973c0,0 -0.81153,-0.34711 -1.25743,-0.51841c-0.4459,-0.1713 -1.15398,-0.40797 -1.15398,-0.40797c0,0 0.55354,0.44658 0.78255,0.69684c0.229,0.25026 0.50349,0.70855 0.50349,0.70855l-1.48855,-0.54908l-1.20678,-0.22575c0,0 0.57478,0.27611 0.75648,0.40827c0.1817,0.13216 0.3887,0.42469 0.3887,0.42469c0,0 -0.32228,-0.08112 -0.50452,-0.0885c-0.18224,-0.00738 -0.46476,0.04925 -0.46476,0.04925l0.42549,0.65059l-0.96779,-0.10011l0.17909,0.57442l-1.07057,-0.21341l0.64872,-0.26875l-0.5525,-0.2684c0,0 0.34669,-0.04679 0.51264,-0.04521c0.22312,0.00211 0.8373,0.12043 0.8373,0.12043c0,0 -0.2943,-0.29408 -0.45754,-0.42104c-0.12851,-0.09994 -0.4429,-0.27922 -0.4429,-0.27922c0,0 0.33993,-0.09229 0.5832,-0.08193c0.24327,0.01035 0.60963,0.13274 0.60963,0.13274c0,0 -0.19933,-0.19129 -0.44798,-0.38306c-0.24865,-0.19177 -0.65486,-0.46749 -0.65486,-0.46749c0,0 0.70167,-0.05934 1.14476,-0.00334c0.44309,0.056 1.10758,0.28799 1.10758,0.28799c0,0 -0.47609,-0.47508 -0.73362,-0.66122c-0.23093,-0.16692 -0.77671,-0.49106 -0.77671,-0.49106c0,0 0.64446,0.01006 1.16764,0.12987c0.52317,0.11981 1.30425,0.43622 1.30425,0.43622c0,0 -0.99572,-0.56809 -1.57594,-0.81954c-0.51053,-0.22125 -1.72312,-0.61022 -1.72312,-0.61022c0,0 1.54101,-0.03171 2.23596,0.13197c0.81915,0.19294 2.36791,0.9524 2.36791,0.9524c0,0 -1.72517,-0.91504 -2.73645,-1.20437c-0.56826,-0.16257 -2.81139,-0.3829 -2.81139,-0.3829c0,0 1.54546,-0.3235 3.19049,-0.18933c1.04125,0.08493 2.43338,0.63946 2.50881,0.66435z" data-paper-data="{&quot;index&quot;:null}" fill="#dcdce1" stroke="none" stroke-width="0" stroke-linecap="butt"/><path d="M222.84253,171.54172c-3.09068,-0.75141 -4.32632,-3.46248 -4.32632,-3.46248c0,0 2.42746,2.10411 3.79583,2.75579c0.54467,0.25939 3.55025,0.81901 3.55025,0.81901c0,0 -2.38796,-0.45764 -3.33854,-0.96436c-0.95059,-0.50672 -2.01315,-1.8884 -2.01315,-1.8884c0,0 1.87749,1.1074 2.69188,1.4352c0.81439,0.3278 2.18654,0.52838 2.18654,0.52838c0,0 -1.14538,-0.33702 -1.58253,-0.60676c-0.43715,-0.26974 -0.92246,-0.93889 -0.92246,-0.93889c0,0 0.83671,0.28103 1.29489,0.41608c0.45818,0.13505 1.18293,0.31427 1.18293,0.31427c0,0 -0.58752,-0.40084 -0.83582,-0.63196c-0.2483,-0.23112 -0.5586,-0.66596 -0.5586,-0.66596l1.52774,0.42815l1.22098,0.12841c0,0 -0.59504,-0.2292 -0.78674,-0.34639c-0.1917,-0.11719 -0.42146,-0.39221 -0.42146,-0.39221c0,0 0.32774,0.05507 0.50999,0.04783c0.18226,-0.00723 0.45934,-0.08629 0.45934,-0.08629l-0.47621,-0.61445l0.9727,0.02232l-0.2245,-0.55824l1.08422,0.12702l-0.62512,0.31983l0.57221,0.22331c0,0 -0.34182,0.07439 -0.50737,0.08611c-0.22257,0.01576 -0.84425,-0.05302 -0.84425,-0.05302c0,0 0.31689,0.26959 0.48978,0.38307c0.1361,0.08933 0.46384,0.24286 0.46384,0.24286c0,0 -0.33145,0.11921 -0.57477,0.12836c-0.24332,0.00915 -0.6183,-0.08351 -0.6183,-0.08351c0,0 0.21401,0.17473 0.47721,0.34597c0.26321,0.17125 0.69019,0.41357 0.69019,0.41357c0,0 -0.69466,0.11532 -1.14082,0.09497c-0.44615,-0.02035 -1.12708,-0.1984 -1.12708,-0.1984c0,0 0.5126,0.43544 0.7842,0.60037c0.24355,0.14789 0.81353,0.42731 0.81353,0.42731c0,0 -0.64321,0.04156 -1.17429,-0.03598c-0.53108,-0.07754 -1.33499,-0.33041 -1.33499,-0.33041c0,0 1.038,0.48654 1.63649,0.69074c0.52661,0.17968 1.76644,0.47033 1.76644,0.47033c0,0 -1.53351,0.15498 -2.23934,0.04745c-0.83197,-0.12674 -2.43656,-0.75978 -2.43656,-0.75978c0,0 1.79288,0.77399 2.82407,0.98144c0.57944,0.11657 2.83302,0.15661 2.83302,0.15661c0,0 -1.51461,0.44619 -3.1651,0.44414c-1.0447,-0.0013 -2.47676,-0.44261 -2.55394,-0.46138z" data-paper-data="{&quot;index&quot;:null}" fill="#dcdce1" stroke="none" stroke-width="0" stroke-linecap="butt"/><path d="M236.64657,163.79629c-0.37209,0.04428 0.22831,-0.18568 0.22831,-0.18568c0,0 0.79364,-0.12897 1.13765,-0.09252c0.34401,0.03645 0.8336,0.3014 0.8336,0.3014c0,0 -0.58992,0.07307 -0.90746,0.12453c-0.31754,0.05146 -0.80982,0.15374 -0.80982,0.15374c0,0 0.4735,0.07226 0.69159,0.14027c0.21809,0.06801 0.53316,0.24167 0.53316,0.24167l-1.05235,0.18502l-0.77878,0.27766c0,0 0.42807,-0.03414 0.5786,-0.01882c0.15053,0.01532 0.37015,0.1154 0.37015,0.1154c0,0 -0.21504,0.06202 -0.32359,0.1195c-0.10856,0.05748 -0.25378,0.18619 -0.25378,0.18619l0.46813,0.23439l-0.59712,0.26978l0.29892,0.27356l-0.69534,0.23869l0.28642,-0.37628l-0.4125,0.03108c0,0 0.1859,-0.14474 0.283,-0.20007c0.13056,-0.0744 0.52808,-0.21372 0.52808,-0.21372c0,0 -0.27094,-0.07138 -0.40897,-0.08993c-0.10866,-0.0146 -0.35238,-0.01236 -0.35238,-0.01236c0,0 0.16653,-0.16893 0.31161,-0.24536c0.14508,-0.07643 0.39976,-0.12938 0.39976,-0.12938c0,0 -0.18083,-0.04376 -0.39053,-0.07107c-0.20969,-0.02731 -0.53954,-0.05008 -0.53954,-0.05008c0,0 0.3882,-0.27236 0.66504,-0.38996c0.27684,-0.1176 0.74216,-0.20782 0.74216,-0.20782c0,0 -0.43808,-0.1151 -0.65104,-0.13613c-0.19097,-0.01886 -0.61845,-0.0225 -0.61845,-0.0225c0,0 0.37844,-0.21259 0.72351,-0.3202c0.34507,-0.10761 0.90685,-0.18823 0.90685,-0.18823c0,0 -0.772,0.00692 -1.19488,0.05725z" data-paper-data="{&quot;index&quot;:null}" fill="#dcdce1" stroke="none" stroke-width="0" stroke-linecap="butt"/></g></g></svg>