<svg version="1.1" xmlns="http://www.w3.org/2000/svg" xmlns:xlink="http://www.w3.org/1999/xlink" width="52.21495" height="63.15033" viewBox="0,0,52.21495,63.15033"><defs><radialGradient cx="239.99999" cy="179.99999" r="22.14219" gradientUnits="userSpaceOnUse" id="color-1"><stop offset="0" stop-color="#a5c0fa" stop-opacity="0.74902"/><stop offset="1" stop-color="#1462fa" stop-opacity="0.0549"/></radialGradient></defs><g transform="translate(-214.013,-148.47987)"><g data-paper-data="{&quot;isPaintingLayer&quot;:true}" fill-rule="nonzero" stroke="none" stroke-width="0" stroke-linecap="butt" stroke-linejoin="miter" stroke-miterlimit="10" stroke-dasharray="" stroke-dashoffset="0" style="mix-blend-mode: normal"><path d="M232.00631,167.53399c-1.06428,1.72499 -2.70715,7.51983 -2.70715,7.51983c0,0 -0.30079,-2.73828 -0.30079,-6.11613c0,-3.37785 1.75072,-6.11613 3.91032,-6.11613c1.14143,0 3.08403,1.38337 3.08403,1.38337c0,0 -2.92212,1.60405 -3.98642,3.32906z" fill-opacity="0.25098" fill="#ffffff"/><path d="M238.02217,154.39935c15.6974,0 19.65182,20.65448 19.65182,20.65448c0,0 -5.55069,-19.26924 -20.0529,-19.4513c-10.89148,-0.13675 -15.44071,19.4513 -15.44071,19.4513c0,0 2.75125,-20.65448 15.84179,-20.65448z" fill-opacity="0.25098" fill="#ffffff"/><path d="M241.23063,205.93525c-15.6974,0 -19.65182,-20.65448 -19.65182,-20.65448c0,0 5.55069,19.26924 20.0529,19.4513c10.89148,0.13675 15.44071,-19.4513 15.44071,-19.4513c0,0 -2.75125,20.65448 -15.84179,20.65448z" data-paper-data="{&quot;index&quot;:null}" fill-opacity="0.25098" fill="#ffffff"/><path d="M214.02114,183.75608c-0.47545,-27.30805 20.04978,-35.27621 20.04978,-35.27621c0,0 -19.09227,10.6721 -18.835,35.91048c0.19321,18.95461 19.91006,25.83612 19.91006,25.83612c0,0 -20.72833,-3.69741 -21.12481,-26.4704z" data-paper-data="{&quot;index&quot;:null}" fill-opacity="0.10196" fill="#ffffff"/><path d="M245.09499,211.63019c0,0 19.71685,-6.88151 19.91005,-25.83612c0.25727,-25.23838 -18.835,-35.91048 -18.835,-35.91048c0,0 20.52523,7.96816 20.04978,35.27622c-0.3965,22.77299 -21.12483,26.47039 -21.12483,26.47039z" data-paper-data="{&quot;index&quot;:null}" fill-opacity="0.10196" fill="#ffffff"/><path d="M248.22498,190.5948c1.06428,-1.725 2.70715,-7.51983 2.70715,-7.51983c0,0 0.30079,2.73828 0.30079,6.11613c0,3.37785 -1.75072,6.11613 -3.91032,6.11613c-1.14143,0 -3.08403,-1.38339 -3.08403,-1.38339c0,0 2.92213,-1.60405 3.98642,-3.32904z" data-paper-data="{&quot;index&quot;:null}" fill-opacity="0.25098" fill="#ffffff"/><path d="M256.49805,179.99999c0,12.22881 -7.3864,22.14221 -16.49805,22.14221c-9.11163,0 -16.49805,-9.91341 -16.49805,-22.14221c0,-12.22881 7.3864,-22.14219 16.49805,-22.14219c9.11165,0 16.49805,9.91339 16.49805,22.14219z" fill="url(#color-1)"/></g></g></svg>