<svg version="1.1" xmlns="http://www.w3.org/2000/svg" xmlns:xlink="http://www.w3.org/1999/xlink" width="209.24011" height="103.26284" viewBox="0,0,209.24011,103.26284"><g transform="translate(-139.24433,-144.43771)"><g data-paper-data="{&quot;isPaintingLayer&quot;:true}" fill-rule="nonzero" stroke="none" stroke-linecap="butt" stroke-linejoin="miter" stroke-miterlimit="10" stroke-dasharray="" stroke-dashoffset="0" style="mix-blend-mode: normal"><path d="M346.4052,223.27482c-10.01813,2.2817 -26.78242,-12.88209 -26.78242,-12.88209c-2.55875,-2.10313 -4.0324,-4.65838 -5.13788,-7.43336c-0.96279,-2.41669 -1.64638,-5.00009 -2.52447,-7.59649c-1.88617,-5.57765 6.26128,-1.55611 6.26128,-1.55611c0,0 12.1212,5.10035 16.89741,10.13104c4.61052,3.77989 18.60456,17.67016 11.2862,19.33696z" data-paper-data="{&quot;index&quot;:null}" fill="#09649e" stroke-width="0"/><path d="M344.86825,228.4833c-8.58884,4.08427 -27.14878,-6.09897 -27.14878,-6.09897c-2.78624,-1.36483 -4.68736,-3.35577 -6.30278,-5.61854c-1.40688,-1.97072 -2.59717,-4.14764 -3.96688,-6.29665c-2.94233,-4.61658 5.33929,-2.66925 5.33929,-2.66925c0,0 12.12597,2.10587 17.57047,5.64409c5.01826,2.45049 20.783,12.05569 14.50869,15.03932z" data-paper-data="{&quot;index&quot;:null}" fill="#09649e" stroke-width="0"/><path d="M294.78363,199.60606c0,0 19.82332,8.96569 25.96113,12.10475c4.15212,2.12351 10.92889,5.25151 10.92889,5.25151c1.58846,1.15276 5.02065,6.91654 0.61609,6.81918c-3.46256,-0.07649 -14.85727,-5.92202 -14.85727,-5.92202c0,0 -18.63659,-8.86915 -21.94618,-10.10111c-10.3176,-4.20756 -29.76101,-4.67871 -29.76101,-4.67871l-0.3958,-8.4385l29.45394,4.96504z" data-paper-data="{&quot;index&quot;:null}" fill="#ffffff" stroke-width="0"/><path d="M302.11085,180.45688c0,0 14.77494,11.76469 19.67887,15.44059c4.03112,3.02174 10.85317,6.76739 12.79724,9.41137c1.94412,2.64398 2.90206,6.78054 -1.46035,6.16495c-3.42937,-0.48391 -14.14299,-9.75883 -14.14299,-9.75883c0,0 -18.07383,-14.40707 -21.21519,-16.02032c-9.74983,-5.39378 -25.66754,-8.88754 -25.66754,-8.88754l0.60106,-8.42637l29.40891,12.07604z" data-paper-data="{&quot;index&quot;:null}" fill="#ffffff" stroke-width="0"/><path d="M214.74064,167.07209l26.94683,7.44857l17.63556,-8.05142c0,0 -8.31553,21.52286 -19.65478,28.87276c-10.2645,6.65327 -22.95739,2.963 -22.95739,2.963z" data-paper-data="{&quot;index&quot;:null}" fill="#2095ad" stroke-width="0"/><path d="M203.3437,211.90079c41.78937,10.18029 40.78558,35.79977 40.78558,35.79977c0,0 -14.013,-13.56658 -22.48477,-16.21553c-4.53091,-1.41675 -22.49586,-0.51507 -39.62197,-5.5441c-14.89622,-4.37405 -33.51766,-18.39221 -31.78678,-23.92778c1.8462,-5.90457 44.50439,7.70461 53.10787,9.88754z" data-paper-data="{&quot;index&quot;:null}" fill="#2095ad" stroke-width="0"/><path d="M216.19102,196.19618c18.8877,3.68763 35.96131,27.47822 35.96131,27.47822c0,0 -8.35428,5.04198 -34.22409,-5.5983c-4.60208,-1.89287 -26.70671,-10.05662 -26.46599,-10.82665c0.16133,-0.51608 9.63309,0.90803 16.9562,-2.18488c3.60583,-1.52298 4.13864,-9.57782 7.77263,-8.86834z" data-paper-data="{&quot;index&quot;:null}" fill="#0d4d58" stroke-width="0"/><path d="M180.86356,152.71124c0.40381,0.12633 0.07288,2.33378 -1.29422,6.70605c-1.36715,4.37228 -17.91098,9.93757 -18.31456,9.81134c-0.40358,-0.12623 4.04728,-8.08526 5.41433,-12.45754c0.62082,-1.98562 3.97447,1.55223 7.23882,-0.01997c3.92309,-1.88969 6.73543,-4.10861 6.95582,-4.03968z" data-paper-data="{&quot;index&quot;:null}" fill="#72878d" stroke-width="0"/><path d="M173.88505,202.26345c0,0 13.38282,4.30867 21.25415,6.17278c11.79698,2.79385 42.64654,8.95975 42.64654,8.95975c0,0 -30.85211,8.59178 -47.95372,5.67222c-15.71222,-2.68239 -33.11022,-12.39943 -33.11022,-12.39943c0,0 -16.94903,-15.55079 -7.86894,-27.2968c1.72647,-2.23346 8.907,0.85312 8.907,0.85312l0.29973,8.57201z" data-paper-data="{&quot;index&quot;:null}" fill="#2095ad" stroke-width="0"/><path d="M146.11351,179.29232c0,0 -1.71746,8.89811 -0.45236,12.87068c0.59498,1.86832 2.76401,13.21461 1.78708,12.74878c-11.21904,-5.35007 -7.64078,-16.87527 -7.64078,-16.87527c0,0 -1.25789,-0.87283 -0.01364,-4.85198c1.24425,-3.97926 6.31986,-3.89222 6.31986,-3.89222z" data-paper-data="{&quot;index&quot;:null}" fill="#dceef3" stroke-width="0"/><path d="M155.03539,162.18125c1.28368,0.40142 -1.25315,5.64003 -2.29662,8.97725c-1.04347,3.33722 -5.89866,5.80964 -5.89866,5.80964c0,0 -3.65648,-0.79341 -2.36598,-4.23321c1.96304,-5.23237 9.27802,-10.95518 10.56164,-10.55375z" data-paper-data="{&quot;index&quot;:null}" fill="#dceef3" stroke-width="0"/><path d="M145.79404,178.68205c1.8462,-5.90457 5.20835,-10.61789 7.9041,-9.77507c2.69564,0.84294 2.30906,6.48687 0.46284,12.39128c-1.84626,5.90463 -4.59846,10.29862 -7.29393,9.45578c-2.69564,-0.84288 -2.91927,-6.1673 -1.07301,-12.07193z" data-paper-data="{&quot;index&quot;:null}" fill="#e8d548" stroke-width="0"/><path d="M154.95338,185.0997c1.95995,0.6128 0.07119,3.05125 -0.99314,6.45513c-1.06432,3.40382 0.19645,5.597 -1.7635,4.9842c-1.95995,-0.6128 -4.77639,-3.51127 -3.71201,-6.91509c1.06422,-3.40375 4.50869,-5.1372 6.46858,-4.5244z" data-paper-data="{&quot;index&quot;:null}" fill="#72878d" stroke-width="0"/><path d="M178.8908,148.71872c0,0 -16.9966,6.30326 -22.36452,12.39096c-2.094,2.37466 -0.47393,12.68185 -2.94471,9.80184c-0.41435,-0.48278 -3.04345,-7.90352 -1.60379,-11.23593c1.79373,-5.60375 5.03498,-7.08165 5.03498,-7.08165c0,0 0.51406,-5.01104 6.25983,-7.38157c7.1689,-2.95748 15.61805,3.50658 15.61805,3.50658z" data-paper-data="{&quot;index&quot;:null}" fill="#dceef3" stroke-width="0"/><path d="M181.50552,152.59815l-10.62398,6.67358c0,0 -5.94018,0.43658 -4.99221,-2.59522c0.94787,-3.03174 15.61625,-4.07837 15.61625,-4.07837z" data-paper-data="{&quot;index&quot;:null}" fill="#dceef3" stroke-width="0"/><path d="M194.69489,157.74249c0,0 18.07589,5.12937 27.47061,10.78199c9.39472,5.65261 20.20137,17.90152 20.20137,17.90152c0,0 -15.80227,-4.43067 -34.54278,-10.29044c-18.74045,-5.85978 -46.4557,-4.8305 -46.4557,-4.8305c0,0 2.76447,-8.62506 5.43893,-11.15432c3.47911,-3.29006 27.88756,-2.40834 27.88756,-2.40834z" data-paper-data="{&quot;index&quot;:null}" fill="#2095ad" stroke-width="0"/><path d="M174.77829,183.15219c4.49522,-14.37628 18.7425,-24.72626 30.3227,-18.53758c15.73845,5.75964 15.01339,23.77525 12.44789,31.63599c-4.26713,13.0741 -14.3196,24.64817 -29.0627,19.76336c-12.00018,-3.97591 -18.20293,-18.48539 -13.70777,-32.86178z" data-paper-data="{&quot;index&quot;:null}" fill="#ecdebd" stroke-width="0"/><path d="M162.12907,224.3571c0,0 -6.2949,-2.59762 -9.13492,-4.6077c-2.8399,-2.01003 -5.07049,-5.4472 -5.07049,-5.4472l7.39419,0.01573z" data-paper-data="{&quot;index&quot;:null}" fill="#dceef1" stroke-width="0"/><path d="M168.97701,153.15046c0.20638,0.06449 -3.7624,6.34416 -5.02016,10.36683c-1.25781,4.02266 -6.71765,10.40588 -6.92403,10.34134c-0.20637,-0.06444 -3.71943,-5.15298 -1.99446,-10.66976c1.72498,-5.51662 13.73229,-10.10273 13.93861,-10.03818z" data-paper-data="{&quot;index&quot;:null}" fill="#72878d" stroke-width="0"/><path d="M159.6876,213.2328c2.7849,0.87079 3.0744,11.80547 3.0744,11.80547c0,0 -2.90197,-4.10364 -4.23295,-5.87757c-1.33103,-1.77391 -4.20946,-5.55614 -4.20946,-5.55614c0,0 2.58299,-1.24265 5.36811,-0.37187z" data-paper-data="{&quot;index&quot;:null}" fill="#72878d" stroke-width="0"/><path d="M203.67741,160.66389c0,0 -1.23188,-0.29375 -4.25891,2.32613c-3.45876,2.99342 4.2185,10.35348 4.2185,10.35348l-4.64605,0.50606c0,0 4.5628,3.09685 4.65,4.64572c0.12984,2.30475 -6.53251,6.82748 -9.51378,11.67652c-2.60854,4.24307 -6.14094,17.07702 -6.14094,17.07702c0,0 -25.64732,-1.69571 -26.43614,-11.31386c-0.41993,-5.11966 -4.73126,-8.73023 0.36888,-17.63712c5.10024,-8.90701 13.58232,-17.38682 20.96855,-19.62649c7.38618,-2.23961 20.78983,1.99253 20.78983,1.99253z" data-paper-data="{&quot;index&quot;:null}" fill="#2195ab" stroke-width="0"/><path d="M155.02151,199.88648c4.86606,8.60022 2.82412,13.69039 2.82412,13.69039c0,0 -2.47105,0.99169 -5.95088,1.45049c-2.42445,0.31951 -5.57757,0.30576 -7.72106,-0.16814c-2.34515,-0.51824 -3.94063,-6.03755 -3.7909,-8.96859c0.18344,-3.59386 2.44405,-4.66373 2.44405,-4.66373c0,0 -0.84262,-5.87385 0.21094,-8.2993c1.05378,-2.42545 6.40003,-5.68781 6.40003,-5.68781c0,0 -0.78499,4.40384 1.00375,7.16679c0.93966,1.45124 3.54067,3.64303 4.58012,5.4801z" data-paper-data="{&quot;index&quot;:null}" fill="#dceef3" stroke-width="0"/><path d="M157.23943,191.1162c0,0 1.47398,-9.57491 2.60804,-9.22027c0.52453,0.16395 0.6341,5.02278 1.92603,8.79578c1.50127,4.3846 2.57146,5.91347 2.57146,5.91347c0,0 -3.75331,-1.30976 -5.01821,-2.28684c-1.26479,-0.97703 -2.08736,-3.20198 -2.08736,-3.20198z" data-paper-data="{&quot;index&quot;:null}" fill="#0b4754" stroke-width="0"/><path d="M164.38916,170.07384c-1.13399,-0.35459 4.92776,-9.58154 4.92776,-9.58154c0,0 1.43662,-0.98139 3.7974,-1.0526c2.36057,-0.07125 7.04485,0.63909 7.04485,0.63909c0,0 -4.96052,2.11823 -8.69217,4.86658c-3.21113,2.36503 -6.55353,5.29244 -7.07794,5.12842z" data-paper-data="{&quot;index&quot;:null}" fill="#0b4754" stroke-width="0"/><path d="M172.24532,165.52421c3.27319,1.02345 8.07593,4.77147 6.39027,10.16258c-1.68566,5.39111 -5.4809,9.05524 -11.07131,11.33615c-0.89702,0.36597 -3.75402,-1.18587 -6.70862,-1.37699c-3.28722,-0.21241 -7.20827,0.36642 -8.4258,-0.96627c-1.16726,-2.19319 2.98758,-9.61942 2.98758,-9.61942c0,0 -3.2486,-3.93406 0.43821,-5.62042c5.29335,-2.42099 14.46029,-4.5192 16.38983,-3.91591z" data-paper-data="{&quot;index&quot;:null}" fill="#dceef3" stroke-width="0"/><path d="M206.45271,217.10205l-23.70428,-6.86182l3.82102,-4.30521l22.18595,5.56207z" data-paper-data="{&quot;index&quot;:null}" fill="#2095ad" stroke-width="0"/><path d="M199.69228,202.03755c0.43284,-1.38417 0.03635,-0.3736 1.74895,0.16182c1.71256,0.53554 1.89498,0.97762 1.89498,0.97762c0,0 -0.4018,0.25938 -2.11441,-0.27605c-1.71261,-0.53559 -1.96247,0.52084 -1.52964,-0.86339z" data-paper-data="{&quot;index&quot;:null}" fill="#d0bf96" stroke-width="0"/><path d="M208.30084,169.18123c0.43284,-1.38422 0.0364,-0.37366 1.74895,0.16177c1.7126,0.53543 1.89492,0.97756 1.89492,0.97756c0,0 -0.40181,0.25938 -2.11425,-0.27612c-1.71255,-0.53548 -1.96241,0.52094 -1.52957,-0.86328z" data-paper-data="{&quot;index&quot;:null}" fill="#d0bf96" stroke-width="0"/><g data-paper-data="{&quot;index&quot;:null}" stroke-width="0.17188"><path d="M254.53709,185.88024c-7.37503,2.94634 -19.35655,4.31323 -24.13475,4.18462c-4.77814,-0.12866 -13.2742,-2.25874 -12.23126,-4.26631c1.04262,-2.00815 12.85984,-4.97714 20.85702,-7.8538c5.05459,-1.81729 11.16753,-4.09069 16.34054,-4.28159c3.3991,-0.1243 8.26016,3.12212 9.18728,5.70808c0.72278,1.99989 -7.58069,5.53454 -10.01889,6.50901z" data-paper-data="{&quot;index&quot;:null}" fill="#09649e"/><path d="M264.46938,179.29972c0.02362,-0.05053 -0.11819,-4.08887 -0.46251,-5.28337c-0.57829,-2.01012 -1.12917,-0.50247 -1.01139,-3.08152c0.08744,-1.91255 3.95164,-0.05903 9.05778,-1.95607c1.1919,-0.44268 8.6522,-3.27508 9.24293,-2.99984c1.69497,-0.00945 5.0025,-1.65734 5.82434,0.20992c0.82183,1.86731 -4.19723,1.90769 -4.19723,1.90769c0,0 6.36958,-2.11801 6.59149,-0.0329c-0.08603,1.97442 -6.2379,1.79799 -6.76518,2.04005c-1.19372,0.54811 6.44251,0.37772 5.54875,1.9179c-1.0303,1.77544 -10.05641,-0.30047 -13.10446,5.0015c-2.86476,3.44199 7.0883,-1.2908 8.20039,1.32391c-2.92468,2.8963 -6.17652,4.25607 -13.91187,4.53843c-1.53762,-0.19913 -3.00583,0.78197 -3.96201,0.36192c-0.85978,-0.4119 -2.11472,-1.72748 -1.05084,-3.94727z" fill="#ebd9bb"/><path d="M258.51091,186.545c-1.56303,-0.60122 -1.84517,-9.17311 -1.84517,-9.17311c0.02263,-1.65191 -2.11836,-5.12152 -0.88281,-4.22154c0.24747,0.18016 -1.35048,0.14003 -0.64416,-0.80871c0.4649,-0.62295 3.23616,-1.36184 4.02429,-1.89114c1.82022,-1.22277 4.75609,-1.37801 6.7888,-2.00382c1.91328,-0.58862 2.72088,1.17221 3.50356,1.74184c1.13242,0.82236 1.22359,2.38217 0.18367,4.91862c-1.26498,3.08481 -1.44774,5.7422 -1.43847,5.92159c0,0 0.15858,2.21384 1.09785,2.43575c-3.04525,-0.6645 -7.77688,4.04091 -10.78756,3.08067z" fill="#ecc51e"/></g><path d="M208.46059,171.23628c0.43284,-1.38417 0.03635,-0.3736 1.74895,0.16182c1.71256,0.53554 1.89481,0.97752 1.89481,0.97752c0,0 -0.4018,0.25949 -2.11424,-0.276c-1.71261,-0.53559 -1.96247,0.52084 -1.52964,-0.86338z" data-paper-data="{&quot;index&quot;:null}" fill="#d0bf96" stroke-width="0"/><path d="M200.99416,200.43928c0.43284,-1.38428 0.03635,-0.37354 1.74895,0.16183c1.7126,0.53548 1.89492,0.9775 1.89492,0.9775c0,0 -0.4018,0.25944 -2.11424,-0.27605c-1.71261,-0.53559 -1.96248,0.52084 -1.52964,-0.86338z" data-paper-data="{&quot;index&quot;:null}" fill="#d0bf96" stroke-width="0"/><path d="M204.02669,216.22124c0,0 -5.77508,3.72941 -13.07959,2.49873c-7.30456,-1.23062 -14.18224,-9.59344 -15.72827,-11.50625c-1.54609,-1.91286 4.1521,-4.85093 4.1521,-4.85093c0,0 4.76523,3.2488 8.07613,5.10962c4.52323,2.54238 16.57958,8.74883 16.57958,8.74883z" data-paper-data="{&quot;index&quot;:null}" fill="#2195ab" stroke-width="0"/><g data-paper-data="{&quot;index&quot;:null}" stroke-width="0"><path d="M329.89374,191.67382c0,0 -7.72651,22.6343 -34.83636,21.69368c-5.1329,-0.17813 16.5387,-8.08352 15.55075,-14.04256c-0.98779,-5.95817 -25.42322,-15.0851 -25.42322,-15.0851c0,0 22.61275,6.53192 28.78974,7.24949c6.17705,0.71762 15.91925,0.18448 15.91925,0.18448z" fill="#2095ad"/><path d="M235.64725,197.87634c0,0 36.40534,-14.63771 48.99586,-13.0548c11.62386,1.46137 34.8849,15.11537 28.94923,21.36983c-5.93568,6.25451 -25.9663,9.85375 -42.92868,4.37532c-13.99878,-4.52126 -35.01657,-12.69034 -35.01657,-12.69034z" fill="#ffffff"/></g><g data-paper-data="{&quot;index&quot;:null}" stroke-width="0"><path d="M311.11445,183.63541c0.92948,-1.08361 3.85376,1.13692 6.83479,3.54813c2.98104,2.4111 8.34393,9.10164 8.34393,9.10164c0,0 -2.20711,-2.45912 -10.12443,-1.08256c-4.6858,0.81457 -12.77244,3.58522 -19.22367,4.61772c-11.70379,1.87311 -26.7609,1.09284 -26.7609,1.09284c0,0 40.00067,-16.19424 40.93024,-17.27779z" fill="#2095ad"/><path d="M279.71273,200.26232c-33.36181,4.10027 -43.09619,-8.00523 -43.09619,-8.00523c0,0 -0.72049,-0.15251 1.60829,-0.67782c0.44717,-0.10094 0.70321,-0.31715 1.42954,-0.43783c1.36515,-0.22671 -0.38212,-1.80718 2.30599,-2.06756c3.97851,-0.38526 13.59847,-7.63427 33.42664,-11.70525c25.36912,-5.20853 38.91429,6.89038 38.91429,6.89038c0,0 -10.57574,13.05198 -34.58861,16.00329z" fill="#ffffff"/></g><g data-paper-data="{&quot;index&quot;:null}" stroke-width="0"><path d="M278.12419,177.43094c0,0 15.34779,-1.76003 24.5284,3.07262c11.05076,5.81704 29.38317,19.28175 29.38317,19.28175c0,0 -22.15506,9.0978 -33.07784,13.52375c-18.9049,7.68777 -28.2603,-0.65538 -28.2603,-0.65538c0,0 25.11399,-6.76428 26.94399,-14.44118c1.80328,-7.56489 -19.51736,-20.78145 -19.51736,-20.78145z" fill="#2095ad"/><path d="M243.84228,202.72959c-12.63903,-4.89191 -15.37229,-1.51383 -13.02542,-8.32664c2.34692,-6.81287 11.70216,-17.57891 24.13543,-17.97287c10.34883,-0.32799 23.4424,1.03832 23.4424,1.03832c0,0 25.23276,13.81786 21.23021,24.72111c-4.81937,12.21187 -26.73332,10.97289 -28.03011,10.85045c0,0 -19.99869,-2.00363 -27.7525,-10.31032z" fill="#ffffff"/></g><g data-paper-data="{&quot;index&quot;:null}" stroke-width="0"><path d="M309.37597,204.83496c-8.6295,0.69024 -29.39116,7.28101 -29.39116,7.28101l7.4776,-38.52179c0,0 15.28489,2.67646 24.39771,7.74846c12.05423,6.70917 19.63552,13.52414 19.63552,13.52414c0,0 -13.48999,9.27793 -22.11968,9.96818z" fill="#2095ad"/><path d="M308.30507,190.88909c-0.23531,11.10622 -30.85219,25.3773 -46.33072,23.80545c-16.54538,-1.68026 -31.23261,-23.04507 -31.23261,-23.04507l2.45361,-3.93826c0,0 8.85178,1.10274 21.44654,-6.55642c18.46673,-11.23 26.99723,-7.6833 32.8207,-7.56045c5.86772,0.12372 21.08749,5.74114 20.84261,17.29468z" fill="#ffffff"/></g><path d="M217.39912,190.06407c-0.11613,-3.12014 8.84704,-6.03946 8.84704,-6.03946c1.46066,-0.44652 4.31108,0.50552 6.96168,0.45831c2.2119,-0.03931 4.40455,-1.11009 4.40455,-1.11009l-0.75068,0.63084c0,0 -3.72773,4.79693 -3.47212,6.01911c0.12753,0.61007 -0.18282,3.02525 -0.18282,3.02525c0,0 1.30219,1.90996 1.82273,2.86947c0.80337,1.4811 2.5289,5.15316 2.5289,5.15316c0,0 -2.2583,-0.74784 -3.27071,-0.9345c-7.99218,0.51057 -13.08764,3.26532 -16.49309,-1.59242c-0.97553,-1.51988 -0.34042,-6.99551 -0.39569,-8.47961z" data-paper-data="{&quot;index&quot;:null}" fill="#09649e" stroke-width="0"/><g data-paper-data="{&quot;index&quot;:null}"><path d="M219.08789,193.8092c-0.41089,-0.91301 0.34623,-1.87545 1.90049,-2.69295c1.5543,-0.81755 3.90658,-1.49097 6.68663,-1.82453c2.77944,-0.33373 5.46484,-0.26502 7.55837,0.11446c2.0934,0.3801 3.59413,1.07138 4.00501,1.98434c0.41052,0.91237 -0.34654,1.87488 -1.90098,2.69298c-1.55425,0.81755 -3.9065,1.49036 -6.68649,1.82403c-2.77944,0.33373 -5.46509,0.26558 -7.55843,-0.11452c-2.09358,-0.37954 -3.59418,-1.07144 -4.00469,-1.9837z" fill="#5ed161" stroke-width="0.01872"/><g data-paper-data="{&quot;index&quot;:null}" fill="#21683c" stroke-width="0.01872"><path d="M223.66096,193.26037c-0.22437,-0.49857 0.18915,-1.02419 1.03789,-1.47064c0.84885,-0.4464 2.1335,-0.81421 3.65166,-0.99638c1.51793,-0.18227 2.98449,-0.14472 4.12778,0.0625c1.14326,0.20761 1.96284,0.58517 2.18726,1.08369c0.22413,0.49831 -0.18928,1.02393 -1.03817,1.47066c-0.84879,0.44645 -2.1333,0.81387 -3.65151,0.9961c-1.51793,0.18227 -2.98458,0.14505 -4.12778,-0.06256c-1.14329,-0.20722 -1.96279,-0.58518 -2.18696,-1.08333z"/></g><path d="M223.19759,192.86714c-0.13102,-0.31849 0.12802,-0.68 0.65266,-1.00674c0.52472,-0.32723 1.315,-0.61945 2.24609,-0.79949c0.93113,-0.18036 1.82791,-0.2141 2.52483,-0.1234c0.69719,0.09074 1.19437,0.30593 1.32543,0.62425c0.13165,0.31802 -0.12783,0.67956 -0.65256,1.00674c-0.52478,0.32724 -1.3151,0.61946 -2.24575,0.79963c-0.93105,0.17992 -1.82836,0.21391 -2.52517,0.12326c-0.69726,-0.09085 -1.19397,-0.30585 -1.32538,-0.62442z" fill="#ffffff" stroke-width="0.01896"/></g><path d="M234.18963,194.77585c0,0 2.06829,1.66257 2.65021,2.92278c0.58193,1.26021 0.62113,4.69 0.62113,4.69l-2.07211,-1.96384c0,0 -0.28659,-1.41228 -0.52575,-2.59119c-0.23921,-1.17885 -2.32429,-2.83359 -2.32429,-2.83359z" data-paper-data="{&quot;index&quot;:null}" fill="#2490a6" stroke-width="0"/><path d="M237.42882,182.45427c0,0 -0.61644,3.46195 -1.16772,4.51283c-0.55133,1.05094 -2.86758,2.24649 -2.86758,2.24649l-1.37682,-0.23407c0,0 2.49377,-1.71381 2.67353,-2.67523c0.1797,-0.96147 0.5055,-1.01245 0.5055,-1.01245l2.23309,-2.83761z" data-paper-data="{&quot;index&quot;:null}" fill="#2490a6" stroke-width="0"/><path d="M238.43652,182.81206l9.36832,0.84175l2.27763,-1.12729l3.60412,1.62699l-0.57447,4.52432l-2.29517,1.20613c0,0 -3.77652,3.12669 -5.49053,6.63541c-1.71401,3.50883 -6.42433,6.83209 -6.42433,6.83209l-2.37546,-2.22884c0,0 6.24161,-4.69792 6.96576,-6.25113c0.72415,-1.55321 2.73025,-3.31239 2.73025,-3.31239l-1.94045,-4.70242l-8.41925,-2.26024z" data-paper-data="{&quot;index&quot;:null}" fill="#eec522" stroke-width="0"/><g data-paper-data="{&quot;index&quot;:null}" stroke-width="0.17188"><path d="M252.51049,204.97518c2.24047,1.36916 9.83436,6.24505 8.78673,8.09558c-1.34727,2.394 -6.6835,4.78013 -10.01374,4.0881c-5.06801,-1.05502 -10.71353,-4.3205 -15.39226,-6.95898c-7.40218,-4.1759 -18.55493,-9.08286 -19.24627,-11.23735c-0.69179,-2.15393 8.04105,-2.83038 12.77313,-2.1566c4.73212,0.67374 16.31527,4.02885 23.09245,8.16921z" data-paper-data="{&quot;index&quot;:null}" fill="#09649e"/><path d="M261.19989,213.12644c-0.67692,-2.36665 0.78075,-3.45345 1.69738,-3.7154c1.0131,-0.2539 2.29611,0.95943 3.84535,1.02072c7.57869,1.57441 10.55672,3.45973 12.95489,6.80519c-1.53447,2.39153 -10.55386,-3.9421 -8.30633,-0.06873c2.11668,5.73767 11.36295,5.20343 12.08124,7.12642c0.6231,1.66814 -6.87668,0.22069 -5.79168,0.96104c0.4792,0.32703 6.57375,1.18375 6.32771,3.1447c-0.56808,2.01843 -6.49274,-1.13679 -6.49274,-1.13679c0,0 4.94135,0.88077 3.81825,2.58395c-1.12306,1.70322 -4.10767,-0.4756 -5.77714,-0.76901c-0.62849,0.17232 -7.50877,-3.86988 -8.60959,-4.50603c-4.71606,-2.72576 -8.83621,-1.54581 -8.60201,-3.44603c0.31606,-2.56235 0.60655,-0.98367 1.5135,-2.86854c0.53957,-1.11986 1.35606,-5.07741 1.34125,-5.13114z" fill="#ebd9bb"/><path d="M256.53958,204.98553c3.12909,-0.44228 7.00541,4.98935 10.11894,4.84445c-0.96322,0.06141 -1.49038,2.21747 -1.49038,2.21747c-0.03926,0.1753 -0.30424,2.82574 0.42598,6.07889c0.60024,2.67483 0.24898,4.19716 -1.00523,4.81821c-0.8671,0.43036 -1.9582,2.031 -3.74589,1.1302c-1.89914,-0.95749 -4.76743,-1.60246 -6.35702,-3.11299c-0.68823,-0.65387 -3.29653,-1.84663 -3.65054,-2.53864c-0.53727,-1.05358 1.0446,-0.82539 0.77056,-0.68927c-1.36884,0.68028 1.3232,-2.38162 1.57763,-4.01402c0,0 1.71438,-8.40355 3.35601,-8.73433z" fill="#ecc51e"/></g><path d="M212.06447,192.94475c-0.83468,0.04782 -1.55012,-0.5901 -1.59794,-1.42477c-0.04782,-0.83468 0.5901,-1.55012 1.42477,-1.59793c0.83468,-0.04782 1.55012,0.5901 1.59793,1.42477c0.04782,0.83468 -0.59009,1.55012 -1.42477,1.59793z" data-paper-data="{&quot;index&quot;:null}" fill="#000000" stroke-width="0"/><path d="M199.24222,201.02105l-1.97246,0.77524l-3.10102,-7.88985l1.97246,-0.77524z" data-paper-data="{&quot;index&quot;:null}" fill="#000000" stroke-width="0"/><path d="M193.24693,200.13362l-0.84951,-1.94162l7.76649,-3.39812l0.84952,1.94163z" data-paper-data="{&quot;index&quot;:null}" fill="#000000" stroke-width="0"/><path d="M207.00216,172.3733l-1.97246,0.77524l-3.10102,-7.88985l1.97246,-0.77525z" data-paper-data="{&quot;index&quot;:null}" fill="#000000" stroke-width="0"/><path d="M201.00692,171.48586l-0.84952,-1.94168l7.7665,-3.39812l0.84951,1.94168z" data-paper-data="{&quot;index&quot;:null}" fill="#000000" stroke-width="0"/></g></g></svg>