<svg version="1.1" xmlns="http://www.w3.org/2000/svg" xmlns:xlink="http://www.w3.org/1999/xlink" width="241.63841" height="25.38832" viewBox="0,0,241.63841,25.38832"><g transform="translate(-119.18079,-166.05584)"><g data-paper-data="{&quot;isPaintingLayer&quot;:true}" fill-rule="nonzero" stroke="none" stroke-linecap="butt" stroke-linejoin="miter" stroke-miterlimit="10" stroke-dasharray="" stroke-dashoffset="0" style="mix-blend-mode: normal"><g fill="#ff0000" stroke-width="0.26459"><path d="M119.18079,190.85372v-24.79788h13.33065c5.44108,0 8.16162,2.1649 8.16162,6.4947v1.18085c0,4.72341 -2.72054,7.08511 -8.16162,7.08511h-5.44108v10.03722zM130.33501,176.09309c1.45096,0 2.17643,-0.78723 2.17643,-2.3617v-1.18085c0,-1.18087 -0.72547,-1.77129 -2.17643,-1.77129h-3.26465v5.31385z"/><path d="M143.3936,190.85372v-24.79788h8.16161v17.71277h10.88217v7.08511z"/><path d="M165.15793,190.85372l6.80136,-24.79788h12.24242l6.80136,24.79788h-7.88957l-1.36026,-4.72341h-7.34546l-1.36026,4.72341zM180.1209,179.63564l-2.04041,-7.38034l-2.04041,7.38034z"/><path d="M200.25289,179.63564l-6.52929,-13.5798h7.61751l2.72054,8.56119l2.72055,-8.56119h7.61751l-6.52929,13.5798v11.21807h-7.61752z"/><path d="M231.0494,190.85372l6.80136,-24.79788h12.24243l6.80136,24.79788h-7.88957l-1.36027,-4.72341h-7.34545l-1.36027,4.72341zM246.01238,179.63564l-2.04041,-7.38034l-2.0404,7.38034z"/><path d="M259.61509,178.75c0,-3.93618 1.08822,-7.03591 3.26465,-9.2992c2.17643,-2.26331 5.16902,-3.39496 8.97777,-3.39496c3.26466,0 5.53178,0.0984 6.80137,0.2952l-2.44851,8.26599l-0.5441,-0.59044c-1.08823,-0.78723 -2.44849,-0.88563 -4.08081,-0.2952c-1.8137,1.18084 -3.17398,2.46009 -4.08082,3.83776c-0.90684,1.18087 -1.0882,2.65692 -0.54409,4.4282l0.54409,0.59041c0.90684,1.37767 2.44848,1.77127 4.62491,1.18085c0.70735,-0.39361 1.34214,-1.08243 1.90439,-2.06647v-3.83779h8.16163v12.39896c-1.08823,0.59042 -3.80877,0.98404 -8.16163,1.18085h-2.44848c-3.62739,0 -6.52929,-1.27925 -8.70573,-3.83776c-2.17643,-2.55852 -3.26465,-5.51066 -3.26465,-8.8564z"/><path d="M284.9161,190.85372l6.80137,-24.79788h12.24242l6.80137,24.79788h-7.88958l-1.36026,-4.72341h-7.34546l-1.36026,4.72341zM299.87907,179.63564l-2.04039,-7.38034l-2.0404,7.38034z"/><path d="M313.48178,190.85372v-24.79788h9.52189v24.79788z"/><path d="M325.72423,190.85372v-24.79788h9.24982l5.9852,11.07049v-11.07049h8.16163v24.79788h-9.24985l-5.9852,-10.71621v10.71621z"/><path d="M360.81921,166.05584l-1.36029,15.35107h-6.25722l-1.36029,-15.35107zM352.43994,187.22262c-0.03632,-1.12181 0.30828,-2.12554 1.03381,-3.01118c0.72547,-0.88563 1.72301,-1.32844 2.9926,-1.32844c1.0882,0 1.99506,0.44281 2.72053,1.32844c0.72547,0.88564 1.08821,1.91889 1.08821,3.09973c0,1.18087 -0.36274,2.16492 -1.08821,2.95214c-0.72547,0.78723 -1.63233,1.18085 -2.72053,1.18085c-1.26959,0 -2.26713,-0.39362 -2.9926,-1.18085c-0.72547,-0.78723 -1.07008,-1.8008 -1.03381,-3.04069z"/></g><g fill="#71ff33" stroke-width="0.26459"><path d="M121.8058,190.91186v-22.35602h13.04102c5.32286,0 7.98429,1.95172 7.98429,5.85516v1.06457c0,4.25829 -2.66143,6.38743 -7.98429,6.38743h-5.32286v9.04885zM132.71767,177.60472c1.41943,0 2.12914,-0.70971 2.12914,-2.12914v-1.06457c0,-1.06459 -0.70971,-1.59687 -2.12914,-1.59687h-3.19372v4.79059z"/><path d="M145.49254,190.91186v-22.35602h7.98429v15.96859h10.64574v6.38743z"/><path d="M166.784,190.91186l6.65358,-22.35602h11.97643l6.65358,22.35602h-7.71816l-1.33071,-4.25829h-7.18587l-1.33071,4.25829zM181.42188,180.79845l-1.99608,-6.6536l-1.99608,6.6536z"/><path d="M201.11647,180.79845l-6.38743,-12.2426h7.45201l2.66143,7.71817l2.66144,-7.71817h7.45201l-6.38743,12.2426v10.11343h-7.45202z"/><path d="M231.24387,190.91186l6.65358,-22.35602h11.97645l6.65358,22.35602h-7.71816l-1.33072,-4.25829h-7.18586l-1.33072,4.25829zM245.88175,180.79845l-1.99608,-6.6536l-1.99606,6.6536z"/><path d="M259.18892,180.00001c0,-3.54858 1.06457,-6.34308 3.19372,-8.3835c2.12914,-2.04045 5.05671,-3.06066 8.78272,-3.06066c3.19373,0 5.41159,0.08871 6.6536,0.26614l-2.39531,7.45203l-0.53227,-0.5323c-1.06459,-0.70971 -2.39529,-0.79842 -3.99215,-0.26614c-1.7743,1.06456 -3.10502,2.21784 -3.99215,3.45985c-0.88714,1.06459 -1.06456,2.39529 -0.53227,3.99215l0.53227,0.53227c0.88714,1.24201 2.39528,1.59686 4.52443,1.06457c0.69198,-0.35485 1.31298,-0.97585 1.86301,-1.86298v-3.45988h7.98431v11.17802c-1.06459,0.53229 -3.72602,0.88715 -7.98431,1.06457h-2.39528c-3.54858,0 -6.38743,-1.15328 -8.51658,-3.45985c-2.12914,-2.30658 -3.19372,-4.96803 -3.19372,-7.98431z"/><path d="M283.94022,190.91186l6.6536,-22.35602h11.97643l6.6536,22.35602h-7.71817l-1.33071,-4.25829h-7.18587l-1.33071,4.25829zM298.5781,180.79845l-1.99606,-6.6536l-1.99606,6.6536z"/><path d="M311.88527,190.91186v-22.35602h9.31502v22.35602z"/><path d="M323.86172,190.91186v-22.35602h9.04885l5.85516,9.98037v-9.98037h7.98431v22.35602h-9.04888l-5.85516,-9.66098v9.66098z"/><path d="M358.1942,168.55584l-1.33073,13.83944h-6.12127l-1.33073,-13.83944zM349.99699,187.63832c-0.03554,-1.01135 0.30158,-1.91624 1.01135,-2.71467c0.70971,-0.79842 1.68557,-1.19763 2.92758,-1.19763c1.06456,0 1.95171,0.39921 2.66142,1.19763c0.70971,0.79844 1.06457,1.72994 1.06457,2.7945c0,1.06459 -0.35486,1.95173 -1.06457,2.66144c-0.70971,0.70971 -1.59686,1.06457 -2.66142,1.06457c-1.24201,0 -2.21787,-0.35486 -2.92758,-1.06457c-0.70971,-0.70971 -1.04683,-1.62347 -1.01135,-2.74127z"/></g></g></g></svg>