<svg version="1.1" xmlns="http://www.w3.org/2000/svg" xmlns:xlink="http://www.w3.org/1999/xlink" width="32.81306" height="34.73238" viewBox="0,0,32.81306,34.73238"><g transform="translate(-220.71374,-165.50483)"><g data-paper-data="{&quot;isPaintingLayer&quot;:true}" fill-rule="nonzero" stroke-miterlimit="10" stroke-dasharray="" stroke-dashoffset="0" style="mix-blend-mode: normal"><g stroke="none" stroke-width="0" stroke-linecap="butt" stroke-linejoin="miter"><g><path d="M239.59626,199.1407c0,0 2.00677,-1.28526 2.7124,-2.05288c0.57194,-0.62218 1.20516,-2.20888 1.20516,-2.20888c0,0 0.78568,0.44317 0.70577,1.96354c-0.02247,0.42758 -0.64634,0.8557 -0.64634,0.8557l-0.96392,0.19273c0,0 -0.76475,1.07851 -1.27419,1.40005c-0.8582,0.54168 -1.55247,0.90244 -2.65566,0.94474c-1.10319,0.0423 -0.63245,-0.81868 -0.63245,-0.81868l1.54924,-0.27633z" fill="#393939"/><path d="M238.25432,191.95058l2.77607,-1.22498l0.3326,0.64078l-0.15376,0.11691c0,0 0.27244,0.11388 0.31601,0.17695c0.19085,0.27632 0.04262,0.29595 0.04262,0.29595c0,0 0.49971,0.12306 0.76931,0.41132c0.26961,0.28825 0.65459,0.6338 0.87305,1.15532c0.21846,0.52151 0.27136,1.57676 0.27136,1.57676c0,0 0.01394,2.19113 -3.4789,3.97022c-1.03371,0.52652 -1.68562,0.37256 -1.68562,0.37256c0,0 -0.59314,-1.4871 -0.54576,-2.55769c0.23758,-0.9778 0.29768,-1.43658 0.35629,-1.86271c0.04763,-0.34633 0.05822,-1.25272 0.05822,-1.25272l-0.10128,-0.40948l0.07179,-0.35485z" fill="#f01a40"/><path d="M238.42594,188.70606c0.40457,-0.15726 2.29809,-0.02049 2.29323,0.61375c-0.00678,0.88543 -0.00216,0.31877 0.06112,0.65175c0.06328,0.333 0.51081,0.3094 0.2036,0.74105c-0.25097,0.35263 -0.51548,0.84499 -1.08097,1.06504c-1.06247,0.28023 -1.40293,0.29158 -1.89049,0.11924c-0.32707,-0.11562 -0.34067,-0.92686 -0.34067,-0.92686c0,0 -0.61142,-0.33257 -0.67802,-0.6235c-0.0666,-0.29093 0.61041,-1.32106 1.4322,-1.64047z" fill="#ffffff"/><path d="M238.93888,192.88401c-0.02247,-0.31671 -0.3038,-0.85904 -0.3038,-0.85904l1.40803,-0.3485l0.19733,0.969l-0.15584,0.36886l0.02263,0.34462c0,0 -0.08266,1.03846 -0.00497,2.21478c0.06157,0.44492 0.77157,3.04259 0.77157,3.04259c0,0 -0.98999,0.58434 -1.2392,0.6699c-0.24223,0.08316 -0.75326,0.17176 -0.75326,0.17176c0,0 -0.40562,-1.42394 -0.49581,-2.42725c-0.07323,-0.8146 0.60985,-3.48505 0.60985,-3.48505c0,0 -0.05232,-0.60208 -0.05655,-0.66166z" fill="#ffffff"/></g><path d="M240.07222,189.49613c0.0816,0.37573 -0.36913,0.79257 -1.00673,0.93105c-0.6376,0.13847 -1.22063,-0.05387 -1.30223,-0.42961c-0.0816,-0.37573 0.36913,-0.79257 1.00673,-0.93103c0.6376,-0.13847 1.22062,0.05387 1.30223,0.4296z" fill="#afafaf"/></g><g stroke="none" stroke-width="0" stroke-linecap="butt" stroke-linejoin="miter"><path d="M231.67295,184.05018c0.60393,-0.59928 1.75019,-1.44479 1.75019,-1.44479l2.25588,0.96882c0,0 0.23908,0.27426 0.25898,0.83539c0.01292,0.36442 -0.27747,0.89222 -0.27747,0.89222c0,0 0.60922,-0.36624 0.84679,0.15971c0.15253,0.33769 -0.54722,1.1983 -0.86396,1.43911c-0.18645,0.14177 -0.59633,0.27732 -0.93019,0.23298c-0.2106,-0.02797 -0.42573,-0.22713 -0.42573,-0.22713c0,0 -0.24835,0.28301 -0.5721,0.04553c-0.0992,-0.07276 -0.25533,-0.14424 -0.25533,-0.14424c0,0 -0.2407,0.14655 -0.39027,0.16939c-0.14957,0.02284 -0.38118,-0.07095 -0.38118,-0.07095l-0.21271,-0.36159c0,0 -0.53715,0.06413 -0.63984,0.02223c-0.4029,-0.16441 -0.40292,-0.64695 -0.40462,-0.90593c-0.00309,-0.47419 0.14533,-1.51528 0.24155,-1.61076z" fill="#ffffff"/><path d="M233.88993,181.08704c0.33293,-0.30447 1.61833,-0.24813 2.08138,0.07656c1.30417,0.9145 1.17851,1.35632 0.76622,1.8095c-0.63124,0.69383 -1.76701,1.11955 -3.26001,-0.30828c-0.4087,-0.39086 0.0795,-1.2733 0.41241,-1.57777z" fill="#fed000"/><path d="M236.57336,180.19321c0.64499,-0.58991 1.65739,-1.44143 2.6239,-2.03396c0.32004,-0.19621 0.50154,-0.09161 0.6243,0.07391c0.18272,0.24637 0.14558,0.47795 -0.0883,0.66669c-0.9334,0.75327 -1.73571,1.42893 -2.34596,1.98704c-0.37203,0.34024 -1.51524,1.52555 -1.51524,1.52555c0,0 -0.24554,0.04759 -0.52389,-0.09133c-0.27835,-0.13892 -0.70032,-0.47348 -0.70032,-0.47348c0,0 1.00333,-0.81104 1.9255,-1.65443z" fill="#fed5c7"/></g><g data-paper-data="{&quot;index&quot;:null}" stroke-width="0" stroke-linecap="butt" stroke-linejoin="miter"><g data-paper-data="{&quot;index&quot;:null}"><path d="M230.38453,167.4304c0,-1.06346 0.8653,-1.92557 1.93267,-1.92557c1.06738,0 1.93265,0.86211 1.93265,1.92557c0,1.06346 -0.86528,1.92557 -1.93265,1.92557c-1.06738,0 -1.93267,-0.86211 -1.93267,-1.92557z" fill="#e0cb17" stroke="none"/><path d="M231.05236,168.06554c0,-0.65701 0.53456,-1.18962 1.194,-1.18962c0.65944,0 1.194,0.5326 1.194,1.18962c0,0.65701 -0.53456,1.18962 -1.194,1.18962c-0.65944,0 -1.194,-0.53261 -1.194,-1.18962z" fill="#e0cb17" stroke="#000000"/><path d="M230.69587,171.75559c-0.3444,-1.03347 0.44156,-2.13075 0.44156,-2.13075l2.10321,-0.01487c0,0 0.15323,0.20302 0.48585,1.50522c0.34536,1.35211 -0.98611,4.48625 -0.98611,4.48625c0,0 -1.7001,-2.81238 -2.04451,-3.84585z" fill="#e8edf4" stroke="#000000"/><path d="M232.21958,169.85c-0.51125,0.00227 -1.36863,-0.28808 -1.36863,-0.28808l0.21781,-0.68142c0,0 0.62849,0.40447 1.08264,0.43022c0.45414,0.02575 1.09235,-0.30689 1.09235,-0.30689l0.28233,0.4899c0,0 -0.72235,0.35366 -1.30651,0.35626z" fill="#dbded5" stroke="#000000"/></g><g data-paper-data="{&quot;index&quot;:null}" stroke="none"><path d="M238.27703,173.60197c0.20118,0 0.36426,0.33852 0.36426,0.75611c0,0.41759 -0.16308,0.75611 -0.36426,0.75611c-0.20118,0 -0.36428,-0.33853 -0.36428,-0.75611c0,-0.41759 0.16309,-0.75611 0.36428,-0.75611z" fill="#000000"/><path d="M239.68243,178.87693c0.20956,0 0.83479,0.90506 0.83479,1.0888c0,0.18374 -0.35203,1.39124 -0.56158,1.39124c-0.20956,0 -1.25977,-0.33269 -1.25977,-0.33269c0,0 0.77701,-2.14736 0.98657,-2.14736z" fill="#807d5a"/><path d="M233.6163,168.82566l0.13154,-0.15122l4.86707,5.89768l-0.1012,0.31253z" fill="#6e6e73"/><path d="M235.44778,170.53951l-0.30356,0.32261l-1.17375,-1.36101l0.33391,-0.32261z" fill="#ddcb1e"/></g></g><g stroke-width="0" stroke-linecap="butt" stroke-linejoin="miter"><g data-paper-data="{&quot;index&quot;:null}"><path d="M251.0475,170.88621c-1.36927,0 -2.47929,-1.10593 -2.47929,-2.47018c0,-1.36424 1.11001,-2.47019 2.47929,-2.47019c1.36927,0 2.47929,1.10594 2.47929,2.47019c0,1.36424 -1.11002,2.47018 -2.47929,2.47018z" fill="#e0cb17" stroke="none"/><path d="M251.13836,170.75689c-0.84593,0 -1.5317,-0.68326 -1.5317,-1.52609c0,-0.84284 0.68576,-1.52608 1.5317,-1.52608c0.84593,0 1.53171,0.68324 1.53171,1.52608c0,0.84284 -0.68577,1.52609 -1.53171,1.52609z" fill="#e0cb17" stroke="#000000"/><path d="M253.12739,173.96452c-0.44182,1.32576 -2.62278,4.54805 -2.62278,4.54805c0,0 -1.70805,-3.63505 -1.26501,-5.36956c0.42669,-1.67051 0.62326,-1.93095 0.62326,-1.93095l2.69807,0.01907c0,0 1.00827,1.40763 0.56646,2.7334z" fill="#e8edf4" stroke="#000000"/><path d="M251.17272,171.51995c-0.74937,-0.00331 -1.67602,-0.45702 -1.67602,-0.45702l0.36218,-0.62847c0,0 0.81871,0.42674 1.40131,0.39371c0.58259,-0.03303 1.38884,-0.55192 1.38884,-0.55192l0.27941,0.87416c0,0 -1.09986,0.37246 -1.75571,0.36955z" fill="#dbded5" stroke="#000000"/></g><g data-paper-data="{&quot;index&quot;:null}" stroke="none"><path d="M244.68361,178.83711c0.20578,0.42419 0.03894,2.19213 0.03894,2.19213l-3.11533,0.0194c0,0 -1.01532,-1.28904 -0.69622,-2.71278c0.23458,-1.04665 1.78092,-2.34443 1.98128,-2.35045c1.29092,-0.0388 1.58553,2.42751 1.79131,2.85171z" fill="#e4dcaa"/><path d="M243.86932,177.30308c0,0.5357 -0.20921,0.96997 -0.46729,0.96997c-0.25808,0 -0.46731,-0.43427 -0.46731,-0.96997c0,-0.5357 0.20922,-0.96997 0.46731,-0.96997c0.25808,0 0.46729,0.43426 0.46729,0.96997z" fill="#000000"/><path d="M244.57027,183.21342c-0.14743,0.84753 -0.61066,2.20732 -0.61066,2.20732l-1.18066,0.48271c0,0 -1.42785,-0.57438 -1.4019,-1.34502c0.01289,-0.38265 0.21929,-3.37045 0.21929,-3.37045l1.23122,-0.78486c0,0 0.60337,0.05153 0.96773,0.159c0.36436,0.10747 0.93073,0.45271 0.93073,0.45271c0,0 -0.00834,1.35107 -0.15577,2.1986z" fill="#dfcc17"/><path d="M242.86472,185.85472c0,0 -1.34724,0.42678 -1.61608,0.42678c-0.26884,0 -0.72043,-1.54904 -0.72043,-1.78475c0,-0.23571 0.80206,-1.39676 1.0709,-1.39676c0.26884,0 1.2656,2.75471 1.2656,2.75471z" fill="#807d5a"/><path d="M243.09836,177.97857l-0.12981,-0.40092l6.24365,-7.56575l0.16875,0.194z" fill="#6e6e73"/><path d="M248.49827,170.65855l0.42836,0.41385l-1.50574,1.74595l-0.38942,-0.41386z" fill="#ddcb1e"/></g></g><path d="M240.97463,182.27002l1.33025,-0.06623l2.34916,1.98201l2.56892,-0.43515c0,0 -1.6458,1.24515 -2.54056,1.2345c-0.82341,-0.00981 -3.70777,-2.71515 -3.70777,-2.71515z" fill="#f79db4" stroke="none" stroke-width="0" stroke-linecap="butt" stroke-linejoin="miter"/><path d="M239.83732,184.36668l0.0052,3.46327l-0.11333,2.24305c0,0 -0.33134,0.26533 -0.56431,0.3869c-0.23296,0.12157 -0.61347,0.12258 -0.61347,0.12258l-0.01442,-2.30467l0.04232,-3.74693z" fill="#f79db4" stroke="none" stroke-width="0" stroke-linecap="butt" stroke-linejoin="miter"/><path d="M241.38449,179.49034c0,0 -0.70509,-0.48515 -0.83343,-0.79847c-0.13607,-0.33219 -0.03773,-1.14138 -0.03773,-1.14138l0.94772,-0.37052z" fill="#f25c76" stroke="none" stroke-width="0" stroke-linecap="butt" stroke-linejoin="miter"/><g stroke="none" stroke-width="0" stroke-linecap="butt" stroke-linejoin="miter"><g><path d="M241.65925,198.95411c0,0 2.00678,-1.28525 2.71241,-2.05289c0.57193,-0.62218 1.20516,-2.20888 1.20516,-2.20888c0,0 0.78569,0.44318 0.70578,1.96354c-0.02247,0.42758 -0.64636,0.8557 -0.64636,0.8557l-0.96391,0.19274c0,0 -0.76475,1.0785 -1.27419,1.40004c-0.8582,0.54168 -1.55247,0.90244 -2.65566,0.94475c-1.10319,0.0423 -0.63246,-0.81868 -0.63246,-0.81868l1.54925,-0.27634z" fill="#393939"/><path d="M240.3173,191.76399l2.77607,-1.22497l0.33261,0.64078l-0.15377,0.11692c0,0 0.27245,0.11388 0.31602,0.17695c0.19085,0.27632 0.04263,0.29594 0.04263,0.29594c0,0 0.49972,0.12306 0.76931,0.41132c0.26961,0.28825 0.65459,0.6338 0.87304,1.15532c0.21846,0.52151 0.27135,1.57676 0.27135,1.57676c0,0 0.01394,2.19112 -3.4789,3.97022c-1.03371,0.52652 -1.68562,0.37257 -1.68562,0.37257c0,0 -0.59313,-1.48708 -0.54576,-2.55769c0.23758,-0.9778 0.29768,-1.43657 0.35629,-1.86271c0.04763,-0.34633 0.05822,-1.25273 0.05822,-1.25273l-0.10128,-0.40948l0.07179,-0.35485z" fill="#f01a40"/><path d="M240.48892,188.51946c0.40457,-0.15726 2.29807,-0.02048 2.29322,0.61375c-0.00678,0.88543 -0.00216,0.31876 0.06112,0.65175c0.06328,0.333 0.51081,0.30941 0.2036,0.74105c-0.25097,0.35263 -0.51547,0.84499 -1.08095,1.06504c-1.06247,0.28023 -1.40294,0.2916 -1.8905,0.11925c-0.32707,-0.11562 -0.34066,-0.92686 -0.34066,-0.92686c0,0 -0.61142,-0.33258 -0.67803,-0.6235c-0.0666,-0.29093 0.61043,-1.32106 1.4322,-1.64047z" fill="#ffffff"/><path d="M241.00186,192.69742c-0.02247,-0.31671 -0.3038,-0.85904 -0.3038,-0.85904l1.40803,-0.3485l0.19732,0.969l-0.15583,0.36886l0.02263,0.34461c0,0 -0.08266,1.03846 -0.00497,2.21479c0.06157,0.44492 0.77157,3.04258 0.77157,3.04258c0,0 -0.98998,0.58434 -1.2392,0.6699c-0.24223,0.08316 -0.75326,0.17177 -0.75326,0.17177c0,0 -0.40562,-1.42394 -0.49581,-2.42725c-0.07323,-0.8146 0.60986,-3.48504 0.60986,-3.48504c0,0 -0.05232,-0.6021 -0.05655,-0.66166z" fill="#ffffff"/></g><path d="M242.1352,189.30953c0.0816,0.37573 -0.36913,0.79256 -1.00673,0.93104c-0.6376,0.13847 -1.22063,-0.05387 -1.30223,-0.4296c-0.0816,-0.37573 0.36914,-0.79257 1.00674,-0.93105c0.6376,-0.13847 1.22063,0.05388 1.30223,0.42961z" fill="#afafaf"/></g><path d="M240.59384,184.67327l0.87856,3.67325l0.32967,1.31182c0,0 -0.25416,0.35927 -0.48372,0.50889c-0.22956,0.14962 -0.76988,0.30816 -0.76988,0.30816l-0.41563,-1.76002l-0.87361,-4.04736z" fill="#f79db4" stroke="none" stroke-width="0" stroke-linecap="butt" stroke-linejoin="miter"/><path d="M235.10948,181.86146c0,0 0.54573,2.92812 4.67202,3.06609c4.76471,0.15931 5.28498,-2.88744 5.28498,-2.88744l1.09315,0.24746c0,0 -1.25833,3.83245 -5.98864,3.85694c-4.59148,0.10652 -6.24764,-3.99094 -6.24764,-3.99094z" fill="#ffffff" stroke="none" stroke-width="0" stroke-linecap="butt" stroke-linejoin="miter"/><path d="M238.04336,178.54319c0.09822,-0.58489 0.95546,-1.40353 0.95546,-1.40353l0.36739,-0.0378l1.19241,0.34653c0,0 -0.01075,0.75209 0.12879,1.13997c0.17614,0.48963 0.69141,0.79854 0.69141,0.79854l0.16418,1.05864l1.45459,0.71556l0.07511,0.16357l0.62958,0.28818l1.39789,0.45591c0,0 0.02129,0.93076 -1.28245,1.79128c-1.2014,0.79298 -1.68178,1.06838 -3.54156,1.22701c-1.69886,0.1449 -2.81101,-0.3468 -4.10856,-1.4095c-0.83397,-0.68303 -1.1641,-1.79467 -1.1641,-1.79467l2.79502,-0.80497l0.04716,-0.15691l0.32623,-0.1583c0,0 -0.23825,-1.56604 -0.12852,-2.21952z" fill="#f01a40" stroke="none" stroke-width="0" stroke-linecap="butt" stroke-linejoin="miter"/><path d="M241.79289,176.92193c0,0 -0.13759,0.77644 -1.54787,0.79949c-1.31175,0.02144 -1.34815,-0.70811 -1.34815,-0.70811c0,0 0.78953,0.13026 1.29821,0.11422c0.50869,-0.01605 1.59781,-0.20559 1.59781,-0.20559z" fill="#afafaf" stroke="none" stroke-width="0" stroke-linecap="butt" stroke-linejoin="miter"/><g stroke-linecap="butt" stroke-linejoin="miter"><path d="M222.17845,178.92819c0,0 0.91046,-4.58315 6.03956,-3.6228c1.96949,0.36876 3.1516,1.22065 4.30022,2.70375c1.21198,1.56491 -0.47222,3.95729 -0.47222,3.95729l-9.00491,-1.19519z" fill="#fbdd00" stroke="none" stroke-width="0"/><path d="M222.79697,180.29751l-0.23354,-0.4755c0,0 0.2951,-0.91651 0.53299,-1.22786c0.51019,-0.66773 0.73575,-0.95862 0.76353,-0.53408c0.01382,0.21108 -0.41697,0.57893 -0.6269,0.98877c-0.31371,0.61244 -0.43609,1.24868 -0.43609,1.24868z" fill="#a58c48" stroke="#000000" stroke-width="0"/><path d="M226.05602,176.76666c0.0297,-0.18584 0.74938,-0.59076 2.06404,-0.34012c0.88088,0.16794 2.32337,0.68896 2.19262,1.14204c-0.11937,0.41375 -1.4226,-0.53181 -2.30811,-0.67329c-0.88551,-0.14149 -1.97825,0.0572 -1.94855,-0.12865z" fill="#a58c48" stroke="#000000" stroke-width="0"/><path d="M232.19312,181.29973c0,0 0.03579,-0.4213 -0.06078,-0.89277c-0.08938,-0.43638 -0.42503,-0.77454 -0.22148,-0.89814c0.07164,-0.04349 0.42086,0.02982 0.50707,0.4196c0.09602,0.43416 0.03007,1.04663 0.03007,1.04663l-0.25488,0.32467z" fill="#a58c48" stroke="#000000" stroke-width="0"/><path d="M227.30979,182.38707c2.53211,0.33561 4.21858,2.55406 4.21858,2.55406l-0.0121,0.59467c0,0 -1.79894,-2.77194 -5.29952,-2.63316c-2.19964,0.08721 -3.82385,1.54083 -3.82385,1.54083c0,0 -0.09464,0.27559 0.00013,-0.31318c0.09476,-0.58876 0.11241,-0.36895 0.11241,-0.36895c0,0 1.25135,-1.84517 4.80433,-1.37425z" fill="#edeee6" stroke="none" stroke-width="0"/><path d="M232.2545,181.58256l-0.17787,0.3554c0,0 -1.79704,-3.25674 -5.24505,-3.0341c-2.16664,0.13992 -3.7907,1.86062 -3.7907,1.86062l-0.13871,-0.31108c0,0 1.45747,-2.62388 5.02631,-2.29428c2.81608,0.26009 4.32602,3.42343 4.32602,3.42343z" fill="#edeee6" stroke="none" stroke-width="0"/><path d="M227.91795,178.57797c2.54298,0.33735 4.19205,3.27047 4.19205,3.27047l-0.53046,3.29147c0,0 -1.80838,-2.77344 -5.32357,-2.63699c-2.20885,0.08574 -3.83892,1.53842 -3.83892,1.53842c0,0 0.02858,-0.93431 0.12335,-1.5231c0.09477,-0.58876 0.36243,-1.4948 0.36243,-1.4948c0,0 1.44687,-2.91882 5.01512,-2.44547z" fill="#ff1a07" stroke="none" stroke-width="0"/><path d="M229.59331,182.83314c0,0 -1.38479,-0.54606 -2.08721,-0.6583c-0.68263,-0.10908 -2.14883,-0.01855 -2.14883,-0.01855l0.50606,-3.16713c0,0 1.25126,-0.56157 2.13693,-0.4114c0.88565,0.15018 2.0722,1.00273 2.0722,1.00273z" fill="#ff1808" stroke="#000000" stroke-width="0"/><path d="M222.47564,183.92887c0,0 0.2116,-1.83252 0.29719,-2.3682c0.03232,-0.20228 0.29727,-0.83622 0.67797,-1.23397c0.38069,-0.39775 1.12525,-0.65001 1.12525,-0.65001l-0.51085,2.94308c0,0 -0.5754,0.27924 -0.88796,0.53665c-0.31256,0.25742 -0.70161,0.77247 -0.70161,0.77247z" fill="#ff1808" stroke="#000000" stroke-width="0"/><path d="M231.46709,185.08135c0,0 -0.31148,-0.6059 -0.45671,-0.85105c-0.14521,-0.24514 -0.40663,-0.60639 -0.40663,-0.60639l0.49656,-3.10777c0,0 0.82641,0.92817 0.8364,1.37195c0.01364,0.60617 -0.46962,3.19326 -0.46962,3.19326z" fill="#ff1808" stroke="#000000" stroke-width="0"/><path d="M228.42157,186.05632c-1.32282,-0.21135 -7.59039,0.8781 -7.59039,0.8781c0,0 1.37912,-5.06118 7.10202,-3.91994c3.00106,0.59846 4.04277,2.44335 4.30131,3.80721c0.16525,0.87176 -0.18517,1.57926 -0.18517,1.57926c0,0 -2.30496,-2.13328 -3.62776,-2.34466z" fill="#fbdd00" stroke="none" stroke-width="0"/><path d="M227.19369,183.74894c-0.88668,-0.14166 -2.04203,-0.05176 -2.02456,-0.16108c0.01745,-0.10932 0.89075,-0.46668 2.14006,-0.30767c0.69189,0.08807 1.97915,0.52489 2.10864,0.90531c0.08751,0.25712 -1.53541,-0.32654 -2.22415,-0.43658z" fill="#a58c48" stroke="#000000" stroke-width="0"/><path d="M221.8108,185.04065l0.33956,-0.47355c0,0 1.33734,-0.9001 1.15665,-0.50539c-0.11595,0.25331 -1.49622,0.97894 -1.49622,0.97894z" fill="#a58c48" stroke="#000000" stroke-width="0"/><path d="M230.7751,185.09257c0.05939,-0.37171 1.15592,0.82113 1.15592,0.82113l0.21916,0.80531c0,0 -1.43449,-1.25475 -1.3751,-1.62645z" fill="#a58c48" stroke="#000000" stroke-width="0"/><path d="M225.56255,191.19589c-2.71637,-0.39948 -4.97396,-2.57157 -4.70147,-4.27699c0.2725,-1.70543 3.23175,-2.81454 5.94877,-2.41931c2.83631,0.41259 5.54485,2.14138 5.27235,3.84683c-0.38004,2.37846 -3.33104,3.344 -6.52364,2.87448z" fill="#fbdd00" stroke="#000000" stroke-width="0.25"/><path d="M221.81544,188.783c0.16419,-1.02764 2.25588,-1.54774 4.6719,-1.16171c2.41603,0.38604 4.24152,1.53204 4.07733,2.55967c-0.16419,1.02764 -2.25589,1.54775 -4.67192,1.16172c-2.41603,-0.38604 -4.2415,-1.53205 -4.07732,-2.55968z" fill="#fbdd00" stroke="#000000" stroke-width="0.25"/><path d="M233.63968,185.52797c0,0 0.30409,-0.5261 0.40229,-0.92154c0.09821,-0.39544 0.085,-1.04059 0.085,-1.04059l4.12099,1.23879l6.75235,1.93808c0,0 0.1988,0.58004 0.15104,0.80792c-0.04779,0.22787 -0.55035,0.45366 -0.55035,0.45366l-6.8948,-1.54727l-4.06653,-0.92904z" fill="#fbdd00" stroke="none" stroke-width="0"/><path d="M231.36987,185.02975l0.15413,-2.74626c0,0 2.43459,0.70657 2.56664,1.02575c0.22367,0.54056 -0.27686,2.19289 -0.64479,2.38613c-0.09692,0.05091 -1.88015,-0.36331 -1.88015,-0.36331z" fill="#c8c8c6" stroke="none" stroke-width="0"/><path d="M222.24966,178.73657c0,0 0.65598,-4.08042 5.62224,-3.93308c3.35084,0.09941 4.79061,3.58161 4.79061,3.58161c0,0 -0.81943,-1.29888 -2.00218,-2.11046c-0.95726,-0.65685 -2.27483,-0.96513 -3.42145,-0.97436c-0.77129,-0.00619 -1.59055,0.00699 -2.1538,0.21572c-2.32193,0.86043 -2.83541,3.22058 -2.83541,3.22058z" fill="#fbdd00" stroke="#000000" stroke-width="0.25"/><path d="M241.74407,187.36808c0,0 0.00371,-0.38851 0.10192,-0.78395c0.09821,-0.39544 0.26061,-0.68772 0.26061,-0.68772l2.89373,0.84628c0,0 0.19879,0.58004 0.15103,0.80792c-0.04779,0.22787 -0.55035,0.45366 -0.55035,0.45366z" fill="#a56402" stroke="none" stroke-width="0"/></g><g stroke="none" stroke-width="0" stroke-linecap="butt" stroke-linejoin="miter"><path d="M238.9119,184.42122l2.53986,0.32879c0,0 0.3181,0.20702 0.4981,0.7644c0.1169,0.36197 -0.02396,0.9744 -0.02396,0.9744c0,0 0.50686,-0.54123 0.89522,-0.08124c0.24936,0.29534 -0.20735,1.35845 -0.45649,1.69042c-0.14667,0.19543 -0.51928,0.44833 -0.86692,0.49905c-0.21928,0.032 -0.49196,-0.10649 -0.49196,-0.10649c0,0 -0.16847,0.35479 -0.56106,0.20885c-0.12027,-0.04471 -0.29733,-0.07193 -0.29733,-0.07193c0,0 -0.19974,0.21572 -0.34331,0.28129c-0.14358,0.06557 -0.4027,0.0375 -0.4027,0.0375l-0.31655,-0.30216c0,0 -0.52069,0.21752 -0.6357,0.20476c-0.45116,-0.05007 -0.58879,-0.53424 -0.66435,-0.79363c-0.13832,-0.4749 -0.2863,-1.56189 -0.21698,-1.68513c0.43507,-0.77355 1.34413,-1.94885 1.34413,-1.94885z" fill="#ffffff"/><path d="M240.72136,182.59382c1.53652,0.63247 1.50969,1.11087 1.19371,1.6664c-0.48375,0.85054 -1.54234,1.5436 -3.38844,0.43185c-0.50537,-0.30434 -0.21033,-1.31409 0.05886,-1.70013c0.2692,-0.38605 1.59034,-0.62268 2.13586,-0.39814z" fill="#fed000"/><path d="M240.49996,182.9529c0.53613,0.09636 0.93269,0.38621 0.88575,0.64742c-0.04694,0.2612 -0.51961,0.39482 -1.05575,0.29847c-0.53613,-0.09636 -0.93268,-0.3862 -0.88574,-0.6474c0.04694,-0.2612 0.51961,-0.39483 1.05573,-0.29848z" fill="#c28830"/><path d="M241.14388,177.96117c0.14598,-0.36337 0.36302,-0.38867 0.56878,-0.32643c0.30626,0.09267 0.41918,0.3097 0.34073,0.61324c-0.31314,1.21137 -0.56479,2.27624 -0.72869,3.12319c-0.09992,0.51633 -0.41655,2.54552 -0.41655,2.54552c0,0 -0.10856,-0.02345 -0.42807,0.03335c-0.3195,0.05679 -0.77428,-0.24101 -0.77428,-0.24101c0,0 0.25813,-1.13267 0.50581,-2.41253c0.17323,-0.89519 0.4914,-2.23797 0.93228,-3.33534z" fill="#fed5c7"/></g><g><path d="M239.7346,171.07369c0,0 0.61759,-0.67464 1.40761,-0.76552c0.70503,-0.08111 1.01817,0.1168 1.47414,0.63c0.69072,0.77739 0.3,2.12111 0.3,2.12111c0,0 0.35349,-2.02528 -1.18672,-2.52077c-0.9529,-0.30654 -1.99504,0.53519 -1.99504,0.53519z" fill="#000000" stroke="none" stroke-width="0" stroke-linecap="butt" stroke-linejoin="miter"/><path d="M240.82369,166.154c3.33818,0 6.0443,2.33386 6.0443,5.21282c0,2.87895 -2.70612,5.2128 -6.0443,5.2128c-3.33818,0 -6.04431,-2.33384 -6.04431,-5.2128c0,-2.87895 2.70612,-5.21281 6.04431,-5.21281z" fill="#f79eb4" stroke="none" stroke-width="0" stroke-linecap="butt" stroke-linejoin="miter"/><path d="M235.54295,172.63024c-0.00019,-0.00071 0.19735,1.16732 0.60411,1.81476c0.40677,0.64744 1.9589,2.37171 1.9589,2.37171l0.28262,0.91116c0,0 -1.47979,-0.05771 -2.69053,-2.22704c-0.75503,-1.34395 -0.72519,-2.40445 -0.71892,-2.38834" fill="#f79eb4" stroke="#f89db5" stroke-width="0" stroke-linecap="butt" stroke-linejoin="round"/><g fill="#ffd5c5" stroke="none" stroke-width="1" stroke-linecap="round" stroke-linejoin="round"><path d="M236.46546,175.02548c0.01286,-0.05827 0.10724,0.05912 0.15022,0.10052c0.26562,0.25558 0.5611,-0.04023 0.75847,-0.1947c0.15166,-0.11865 0.39988,-0.18165 0.58844,-0.18388c0.9073,-0.00118 2.65248,0.58906 2.96625,0.60243c0.29203,0.01245 1.1405,-0.45673 1.45072,-0.56231c0.31827,-0.10832 0.58883,-0.00731 0.63715,0.0301c0.10131,0.07848 0.81974,0.57762 -0.13962,1.61022c-0.1333,0.14347 -0.97502,0.67153 -1.44795,0.72743c-0.39656,0.04683 -1.77722,0.2449 -2.82313,-0.10525c-0.83355,-0.27907 -1.34071,-0.67124 -1.40543,-0.72159c-0.39554,-0.30784 -0.85282,-0.7683 -0.73513,-1.30295z"/><path d=""/></g><g fill="#000000" stroke="#000000" stroke-width="0.125" stroke-linecap="butt" stroke-linejoin="round"><path d="M235.58504,173.47458c0.00352,0.02456 -0.63044,-0.08212 -0.70803,-0.10451c-0.35338,-0.10189 -0.65339,-0.21094 -0.9856,-0.37014c-0.10599,-0.05078 -0.45547,-0.26627 -0.44996,-0.26442c0.16201,0.05411 0.30848,0.15939 0.46915,0.22066c0.26838,0.10227 0.54502,0.18063 0.82216,0.25642c0.44035,0.10327 0.73658,0.0728 0.799,0.09365"/><path d="M235.45264,172.98324c0.00326,0.02291 -0.61525,-0.11643 -0.91062,-0.27614c-0.29537,-0.15971 -0.93662,-0.68589 -0.9297,-0.67201c0.01836,0.03678 0.59678,0.39886 1.01418,0.58572c0.41741,0.18686 0.74875,0.17446 0.77433,0.149"/></g><g fill="#000000" stroke="none" stroke-width="1" stroke-linecap="round" stroke-linejoin="round"><path d="M237.68866,175.41111c-0.10995,0.00735 -0.48839,-0.23941 -0.33055,-0.35514c0.09124,-0.0669 0.62028,-0.12542 0.76951,-0.01737c0.19634,0.14218 -0.19987,0.33697 -0.43896,0.37251z"/><path d=""/></g><path d="M245.30589,171.81109c0.02283,0.01375 -0.1372,2.3031 -0.28494,2.82591c-0.22169,0.78448 -0.57942,1.5313 -1.10908,2.1546c-0.2252,0.26499 -0.45886,0.4838 -0.72366,0.70465c-0.08571,0.07151 -0.44345,0.30592 -0.44345,0.30592c0,0 0.38297,-1.02833 0.42394,-2.68636c0.02174,-0.88046 -0.0985,-2.82917 -0.07803,-2.77616" fill="#f79eb4" stroke="#f89db5" stroke-width="0" stroke-linecap="butt" stroke-linejoin="round"/><path d="M246.68541,171.14145c0.17972,0.35946 0.07703,2.22582 -0.29214,3.58465c-0.2845,1.04717 -0.56368,1.32951 -1.05988,1.88672c-0.56196,0.63103 -0.97324,0.69448 -0.97324,0.69448c0,0 0.46717,-1.15581 0.61363,-1.93401c0.14647,-0.7782 0.4414,-3.57904 0.42676,-3.59368" fill="#f79eb4" stroke="#f89db5" stroke-width="0" stroke-linecap="butt" stroke-linejoin="round"/><g fill="#ee1a40" stroke="none" stroke-width="1" stroke-linecap="round" stroke-linejoin="round"><path d="M236.66014,168.11266c0.09205,-0.118 2.30173,-1.90762 5.04726,-1.44986c3.39352,0.60495 3.72973,4.70868 3.7273,4.70804c-0.0339,-0.00895 -0.57704,-1.57821 -1.45484,-2.26644c-1.1382,-0.89243 -1.79743,-1.41069 -3.04667,-1.62756c-1.58499,-0.27517 -3.79199,1.11572 -3.87859,1.17164"/><path d=""/></g><path d="M236.57714,170.8951c-0.02988,-0.02425 -1.53362,0.62069 -2.10115,0.83659c-1.0394,0.3954 -2.81406,1.04966 -2.83728,1.0521c-0.01618,0.00165 0.83015,-0.47605 1.15271,-1.15488c0.26493,-0.74642 1.24023,-1.10728 1.55786,-1.18672c1.78233,-0.43557 2.45084,-0.67365 2.42814,-0.69208" fill="#f79eb4" stroke="#f89db5" stroke-width="0" stroke-linecap="butt" stroke-linejoin="round"/><path d="M236.76888,169.75251c-0.10394,-0.08347 -1.74914,0.23199 -2.78726,0.03653c-0.74826,-0.14088 -2.66113,-0.64998 -2.66113,-0.64998c0,0 1.27737,-0.24802 3.33454,-0.33995c0.60453,0.03145 1.10756,-0.06696 1.38858,0.18624c0.28102,0.2532 1.57217,0.71957 1.58125,0.80265" fill="#f79eb4" stroke="#f89db5" stroke-width="0" stroke-linecap="butt" stroke-linejoin="round"/><g stroke="none" stroke-width="1" stroke-linecap="round" stroke-linejoin="round"><g fill="#f79eb4"><path d="M240.72551,167.89605c0.04438,-0.15216 1.01235,-0.92458 1.7949,-1.29471c0.78255,-0.37011 1.54968,-0.5908 1.70972,-0.36284c0.12242,0.17436 0.18027,1.04187 0.17765,1.71819c-0.00263,0.67632 -0.16825,1.29546 -0.19076,1.65428"/></g><g fill="#ffd5c5"><path d="M241.40765,168.06083c0.09971,-0.16054 0.52384,-0.53972 0.9475,-0.74847c0.42365,-0.20875 1.27994,-0.49347 1.36123,-0.38916c0.02005,0.02573 0.08923,0.77957 0.07443,1.27986c-0.01479,0.50029 -0.13066,0.89357 -0.14119,0.97843"/></g></g><g fill="#f79eb4" stroke="none" stroke-width="1" stroke-linecap="round" stroke-linejoin="round"><path d="M234.81128,169.95215c-0.00851,-0.01284 -0.4694,-0.84148 -0.60409,-1.62533c-0.0863,-0.50216 0.03057,-1.14656 0.07343,-1.16967c0.20928,-0.11275 1.03539,-0.04613 1.69966,-0.00089c0.66428,0.04524 0.97729,0.11494 1.27228,0.20333"/><path d=""/></g><path d="M238.46247,173.20569c0.64899,-0.95161 0.93837,-2.66505 2.98484,-2.89957c0.44454,-0.05095 1.7524,0.53343 1.46832,2.67571c-0.09453,0.7129 -0.41877,1.78557 -1.6902,2.37548c-0.65297,0.19369 -2.1921,-0.54254 -2.8683,-0.57727c-1.18722,-0.06096 -1.01455,0.4724 -1.60028,0.45107c-0.1466,-0.00534 -0.97292,-0.86661 -1.30206,-2.08886c-0.1552,-0.57634 -0.10873,-1.41812 -0.04066,-1.41753c0.44916,0.00388 0.83212,0.93518 1.23813,1.45808c0.28398,0.36575 0.66451,0.66728 1.00158,0.63715c0.19648,-0.01756 0.39491,-0.00763 0.80863,-0.61427z" fill="#ffffff" stroke="none" stroke-width="0" stroke-linecap="butt" stroke-linejoin="miter"/><path d="M236.63355,171.9163c-0.11506,0.08429 -0.78935,1.03779 -1.01174,1.32421c-0.65631,0.85548 -0.81048,1.92262 -0.77563,1.94737c0.0016,0.00115 -0.43765,-1.60246 -0.41245,-2.21239c-0.01708,-0.15006 0.60617,-0.99438 0.85318,-1.13759c0.85983,-0.4985 1.39402,-0.88269 1.35336,-0.85294" fill="#f79eb4" stroke="#f89db5" stroke-width="0" stroke-linecap="butt" stroke-linejoin="round"/><g fill="#000000" stroke="#000000" stroke-width="0.125" stroke-linecap="butt" stroke-linejoin="round"><path d="M242.57967,171.01642c0.04937,-0.0181 0.0898,0.01714 0.13643,0.01964c0.04888,0.00262 0.27437,-0.01879 0.44337,-0.0638c0.86784,-0.23116 1.28479,-0.7476 1.28479,-0.7476c0,0 -0.15591,0.38172 -1.37931,0.92237c-0.19055,0.08422 -0.34379,0.07132 -0.36822,0.0353"/><path d="M242.91219,171.72435c0.0337,0.00384 0.09453,0.06281 0.12357,0.08405c0.06588,0.04823 0.55527,0.3343 1.29821,0.21882c0.24619,-0.03966 1.02076,-0.26251 1.02076,-0.26251c0,0 -0.38361,0.22833 -1.06852,0.33041c-0.28724,0.0428 -0.90724,0.04647 -1.15066,-0.03326c-0.13127,-0.04299 -0.16777,-0.08602 -0.16777,-0.08602"/></g><g stroke="none" stroke-linecap="butt" stroke-linejoin="miter"><path d="M240.3689,173.63348c0.04639,0.71913 -0.1046,1.31426 -0.33725,1.32927c-0.23265,0.015 -0.45888,-0.55579 -0.50528,-1.27491c-0.04639,-0.71913 0.10461,-1.31427 0.33726,-1.32928c0.23265,-0.015 0.45888,0.55579 0.50527,1.27492z" fill="#169c5b" stroke-width="NaN"/><path d="M240.13672,173.81001c0.01937,0.30036 -0.04778,0.54921 -0.15001,0.5558c-0.10223,0.0066 -0.20082,-0.23156 -0.22018,-0.53193c-0.01937,-0.30036 0.04778,-0.54921 0.15001,-0.5558c0.10223,-0.0066 0.20082,0.23156 0.22018,0.53193z" fill="#000000" stroke-width="0"/><path d="M240.01608,173.132c0.01961,0.3039 -0.06452,0.55669 -0.18789,0.56465c-0.12338,0.00796 -0.23929,-0.23193 -0.2589,-0.53583c-0.01961,-0.3039 0.06452,-0.5567 0.18789,-0.56466c0.12338,-0.00796 0.23929,0.23194 0.2589,0.53583z" fill="#ffffff" stroke-width="0"/></g><g stroke="none" stroke-linecap="butt" stroke-linejoin="miter"><path d="M236.9521,174.1212c0.03271,0.50723 -0.07377,0.927 -0.23787,0.93758c-0.16411,0.01058 -0.32366,-0.39202 -0.35639,-0.89925c-0.03271,-0.50723 0.07378,-0.927 0.23788,-0.93758c0.16411,-0.01058 0.32366,0.39201 0.35638,0.89924z" fill="#169c5b" stroke-width="NaN"/><path d="M236.78835,174.24571c0.01368,0.21186 -0.0337,0.38737 -0.10582,0.39203c-0.07211,0.00466 -0.14163,-0.16332 -0.15531,-0.37518c-0.01368,-0.21186 0.0337,-0.38737 0.10582,-0.39202c0.07211,-0.00466 0.14163,0.16331 0.1553,0.37517z" fill="#000000" stroke-width="0"/><path d="M236.70324,173.76748c0.01382,0.21435 -0.0455,0.39264 -0.13252,0.39826c-0.08703,0.00562 -0.16878,-0.16359 -0.18262,-0.37793c-0.01382,-0.21435 0.0455,-0.39266 0.13253,-0.39828c0.08703,-0.00562 0.16877,0.16361 0.18261,0.37795z" fill="#ffffff" stroke-width="0"/></g></g><path d="M240.94467,176.26431c0,0 0.48933,-0.05461 0.8067,-0.06254c0.31737,-0.00794 0.46449,0.06254 0.46449,0.06254" fill="none" stroke="#000000" stroke-width="0.125" stroke-linecap="round" stroke-linejoin="miter"/></g></g></svg>