<svg version="1.1" xmlns="http://www.w3.org/2000/svg" xmlns:xlink="http://www.w3.org/1999/xlink" width="29.13454" height="34.38046" viewBox="0,0,29.13454,34.38046"><defs><radialGradient cx="237.73368" cy="175.34381" r="1.31225" gradientUnits="userSpaceOnUse" id="color-1"><stop offset="0" stop-color="#f5ab87" stop-opacity="0.25098"/><stop offset="1" stop-color="#f5ab87" stop-opacity="0"/></radialGradient><radialGradient cx="243.00354" cy="174.90903" r="0.73225" gradientUnits="userSpaceOnUse" id="color-2"><stop offset="0" stop-color="#f5ab87" stop-opacity="0.25098"/><stop offset="1" stop-color="#f5ab87" stop-opacity="0"/></radialGradient></defs><g transform="translate(-224.93707,-162.82015)"><g data-paper-data="{&quot;isPaintingLayer&quot;:true}" fill-rule="nonzero" stroke-linejoin="miter" stroke-miterlimit="10" stroke-dasharray="" stroke-dashoffset="0" style="mix-blend-mode: normal"><g data-paper-data="{&quot;index&quot;:null}" stroke="none" stroke-width="0" stroke-linecap="butt"><path d="M239.48976,192.15413c0.13514,-0.59255 0.43355,-1.04413 0.79822,-1.45331c0.31759,-0.35637 0.68546,-0.68061 1.03949,-1.03781c0.76056,-0.76735 0.76929,0.89984 0.76929,0.89984c0,0 0.15784,2.40789 -0.27576,3.60465c-0.4409,2.11693 1.02788,2.40446 1.02788,2.40446c0,0 -2.45281,0.72278 -3.18147,-0.54024c-0.72866,-1.26303 -0.17765,-3.87759 -0.17765,-3.87759z" fill="#54c81c"/><path d="M242.85146,197.19249c-0.39006,-0.05895 -0.65848,-0.42294 -0.59953,-0.813c0.05895,-0.39006 0.42294,-0.65848 0.813,-0.59953c0.39006,0.05895 0.65848,0.42294 0.59953,0.813c-0.05895,0.39006 -0.42294,0.65848 -0.813,0.59953z" fill="#ffffff"/></g><g data-paper-data="{&quot;index&quot;:null}" stroke="none" stroke-width="0" stroke-linecap="butt"><path d="M231.6417,193.90187c0.43431,-1.48636 1.72514,-2.59407 1.72514,-2.59407c0.38752,-0.41703 0.83809,-0.64538 1.32126,-0.80913c0.4208,-0.14261 0.86634,-0.23623 1.31649,-0.36284c0.96702,-0.27198 0.18568,1.07948 0.18568,1.07948c0,0 -1.09461,2.2483 -1.9396,2.92903c-1.34765,1.08568 -2.84395,1.90086 -2.84395,1.90086c0,0 -0.10602,-0.97632 0.23497,-2.14332z" fill="#54c81c"/><path d="M231.3834,196.9095c-0.39195,-0.04469 -0.67345,-0.39865 -0.62876,-0.7906c0.04469,-0.39195 0.39865,-0.67346 0.7906,-0.62877c0.39195,0.04469 0.67346,0.39866 0.62877,0.79061c-0.04469,0.39195 -0.39866,0.67345 -0.79061,0.62876z" fill="#ffffff"/></g><g data-paper-data="{&quot;index&quot;:null}" stroke="none" stroke-width="0" stroke-linecap="butt"><path d="M224.93709,186.03804c0,0 0.22568,-4.3828 5.05716,-5.57964c0.91478,-0.2266 -2.51228,2.25796 -2.03837,3.2599c0.47385,1.00181 5.24489,1.38408 5.24489,1.38408c0,0 -4.31893,-0.01595 -5.44509,0.16794c-1.12616,0.18389 -2.81861,0.76772 -2.81861,0.76772z" fill="#54c81c"/><path d="M241.2574,180.20561c0,0 -5.68875,4.41331 -7.99023,4.76691c-2.12477,0.32645 -6.91615,-0.91377 -6.18308,-2.31591c0.73307,-1.40214 4.08702,-3.04428 7.35585,-2.93019c2.69772,0.09416 6.81747,0.4792 6.81747,0.4792z" fill="#ffffff"/></g><g data-paper-data="{&quot;index&quot;:null}" stroke="none" stroke-width="0" stroke-linecap="butt"><path d="M244.62045,183.85246c0,0 7.86791,0.89479 8.11272,0.80156c0.24481,-0.09323 0.52164,0.52103 0.79092,1.171c0.26928,0.64996 0.54752,2.19855 0.54752,2.19855c0,0 -0.1403,-0.58987 -1.53733,-1.06179c-0.82681,-0.27932 -2.3733,-0.54134 -3.50382,-0.94025c-2.05098,-0.72371 -4.41001,-2.16906 -4.41001,-2.16906z" fill="#54c81c"/><path d="M246.21366,184.5826c-5.73774,-2.2627 -6.24617,-5.06737 -6.24617,-5.06737c0,0 -0.34809,-0.37391 1.61501,0.45922c0.67516,0.28654 2.38677,-0.54312 5.94012,0.53826c4.54633,1.38358 5.6697,4.52116 5.6697,4.52116c0,0 -2.8488,1.17735 -6.97866,-0.45127z" fill="#ffffff"/></g><g data-paper-data="{&quot;index&quot;:null}" stroke="none" stroke-width="0" stroke-linecap="butt"><path d="M237.13009,189.38676c0,0 -1.84406,2.15288 -3.68194,2.64927c-2.21226,0.5975 -5.36471,2.18267 -5.36471,2.18267c0,0 0.84948,-5.09641 1.76567,-7.05531c1.58229,-3.3941 3.36839,-3.85735 3.36839,-3.85735c0,0 -2.01894,4.46225 -1.30653,5.72304c0.70201,1.24239 5.21911,0.35767 5.21911,0.35767z" fill="#54c81c"/><path d="M233.0851,183.24877c0.18178,-0.13939 2.90446,-2.03246 4.98423,-1.88355c2.76032,0.19766 2.76813,-1.3763 3.30315,-0.16716c0.53502,1.20914 0.62119,3.82487 -1.00152,5.43018c-1.35065,1.33619 -3.28193,2.78722 -3.28193,2.78722c0,0 -4.72198,1.67291 -5.54505,-0.29297c-0.87663,-2.24384 1.35147,-5.72829 1.54113,-5.87373z" fill="#ffffff"/></g><g data-paper-data="{&quot;index&quot;:null}" stroke="none" stroke-width="0" stroke-linecap="butt"><path d="M248.68448,194.47984c0,0 -0.86292,-1.56494 -2.0676,-2.60043c-1.20467,-1.03548 -4.74547,-2.88986 -4.74547,-2.88986l5.98623,-4.00151c0,0 1.62561,2.33773 2.14174,4.18051c0.68274,2.43761 -1.31489,5.31131 -1.31489,5.31131z" fill="#54c81c"/><path d="M248.29605,189.93835c-1.47781,1.40397 -7.29258,-0.74269 -9.08715,-2.96296c-1.91825,-2.3733 -1.03111,-7.04718 -1.03111,-7.04718l1.15141,-0.44143c0,0 0.67848,1.54852 3.30357,2.20055c3.84896,0.95603 4.48866,2.52591 5.22489,3.30071c0.74183,0.78068 1.97575,3.48981 0.43841,4.95032z" fill="#ffffff"/></g><path d="M238.50349,188.99391c0,0 -2.49378,2.33001 -3.35103,3.26025c-0.57991,0.62929 -1.46669,1.67301 -1.46669,1.67301c-0.28202,0.22398 -1.46991,0.54667 -1.23569,-0.22707c0.18412,-0.60827 1.77876,-2.33434 1.77876,-2.33434c0,0 2.41826,-2.12501 2.79907,-2.64929c1.25205,-1.61639 2.36092,-5.7621 2.36092,-5.7621l1.51106,0.34579l-2.39639,5.69374z" data-paper-data="{&quot;index&quot;:null}" fill="#ffffff" stroke="none" stroke-width="0" stroke-linecap="butt"/><path d="M242.58451,187.43545c0,0 -0.38839,2.70419 -0.49801,3.82341c-0.09011,0.92003 -0.02804,2.34677 -0.25764,2.90347c-0.22961,0.55671 -0.78722,1.10086 -1.10606,0.35798c-0.25065,-0.584 0.184,-3.14764 0.184,-3.14764c0,0 0.48872,-3.47323 0.44265,-4.11958c-0.08237,-2.04291 -1.00001,-5.60593 -1.00001,-5.60593l1.37895,-0.70808l0.85614,6.49639z" data-paper-data="{&quot;index&quot;:null}" fill="#ffffff" stroke="none" stroke-width="0" stroke-linecap="butt"/><path d="M239.734,168.00498c3.9579,-0.17711 4.61799,3.94415 4.66301,4.20805c0.07099,0.62682 -0.02639,1.26745 -0.22166,1.86429c-0.31822,0.99844 -0.96458,1.92117 -1.88988,2.43906c-0.46306,0.18534 -0.3934,0.17441 -0.84173,0.37929c-0.65649,0.43513 -1.60398,0.53129 -2.35436,0.52524c-0.60902,0.02731 -1.21763,-0.045 -1.80763,-0.19935c-0.37786,-0.11354 -0.79979,-0.16826 -1.11228,-0.42736c-0.28723,-0.246 -0.52352,-0.58652 -0.53374,-0.97644c-0.07713,-0.94626 -1.97033,-7.54121 4.09827,-7.81278z" data-paper-data="{&quot;index&quot;:null}" fill="#f0e9bb" stroke="none" stroke-width="0.17188" stroke-linecap="butt"/><path d="M244.08386,167.7956c0.92264,-0.1296 1.58689,0.01494 1.97662,0.2999c0.05554,0.0404 0.02464,0.08245 0.09176,0.14781c0.08121,0.07917 0.30256,0.20028 0.26063,0.17042c0,0 -0.0804,0.15978 -0.07313,0.23526c0.00931,0.09595 0.13021,0.20764 0.03877,0.18422c0,0 0.06066,0.14096 0.04818,0.192c-0.13604,0.55747 -0.59031,1.27696 -1.1892,1.64663c0.32108,0.48822 -1.70852,-2.4459 -1.1536,-2.87623z" data-paper-data="{&quot;index&quot;:null}" fill="#ed3e67" stroke="none" stroke-width="0.17188" stroke-linecap="butt"/><path d="M243.01029,172.31972c0.24826,-0.04061 0.39401,0.08879 0.48279,0.36783c0.06208,0.19567 0.10361,0.48668 0.10168,0.75089c-0.00215,0.28487 -0.00214,0.45569 -0.03743,0.62631c-0.03467,0.16755 -0.10484,0.33684 -0.07917,0.3932c0.03723,0.08163 -0.06894,0.18503 -0.46418,0.27076c-0.25316,0.05494 -0.49978,0.09461 -0.71039,0.12755c-0.20734,0.00501 -0.31126,-1.13601 -0.18074,-1.43449c0.08213,-0.54868 0.28129,-0.89441 0.88745,-1.10205z" data-paper-data="{&quot;index&quot;:null}" fill="#ffffff" stroke="none" stroke-width="0.17188" stroke-linecap="butt"/><path d="M242.36231,172.56259c-0.57076,0.44788 -0.18008,2.25292 -0.18008,2.25292c0,0 -0.61678,-1.64896 0.05779,-2.33696c0.20811,-0.21225 0.32622,-0.32982 0.52276,-0.38144c0.27412,-0.07199 0.40114,0.00137 0.61027,0.18982c0.1163,0.10479 0.31509,0.43597 0.32553,0.75955c0.00241,0.07462 1.18793,0.07506 1.18793,0.07506c0,0 -0.84362,0.13613 -1.02375,0.25868c-0.172,0.11702 -0.05377,0.46302 -0.1514,0.75489c-0.09764,0.29187 -0.22168,0.41893 -0.22168,0.41893c0,0 0.14663,-0.42381 0.12964,-0.98414c-0.01271,-0.41935 -0.16873,-1.03677 -0.39571,-1.21444c-0.30301,-0.26417 -0.44533,-0.21652 -0.86131,0.20713z" data-paper-data="{&quot;index&quot;:null}" fill="#000000" stroke="none" stroke-width="0" stroke-linecap="butt"/><g data-paper-data="{&quot;index&quot;:null}" stroke="none" stroke-linecap="butt"><path d="M242.55514,174.03566c0,-0.5294 0.20288,-0.95856 0.45314,-0.95856c0.25026,0 0.45314,0.42916 0.45314,0.95856c0,0.5294 -0.20288,0.95856 -0.45314,0.95856c-0.25026,0 -0.45314,-0.42916 -0.45314,-0.95856z" fill="#008ae6" stroke-width="0"/><path d="M243.00361,173.21012c0.07892,-0.00736 0.1526,0.06999 0.20772,0.2009c0.05525,0.13092 0.09193,0.31542 0.09713,0.52227c0.00504,0.20696 -0.0224,0.39744 -0.07075,0.53808c-0.04848,0.14062 -0.11785,0.23143 -0.19677,0.23877c-0.07892,0.00736 -0.15262,-0.06999 -0.20772,-0.20089c-0.05525,-0.13093 -0.09195,-0.31542 -0.097,-0.52226c-0.00518,-0.20698 0.02225,-0.39746 0.07057,-0.5381c0.04848,-0.14063 0.11797,-0.23127 0.19679,-0.23878z" fill="#000000" stroke-width="0.0278"/><path d="M242.85918,173.44802c0.0419,-0.09781 0.10095,-0.15996 0.16695,-0.16302c0.06603,-0.00305 0.12675,0.05362 0.17136,0.14739c0.0448,0.0938 0.07346,0.22477 0.07549,0.37069c0.00218,0.14612 -0.02275,0.27957 -0.06482,0.37735c-0.04189,0.09781 -0.10094,0.15998 -0.16694,0.16303c-0.06603,0.00305 -0.12675,-0.05362 -0.17136,-0.1474c-0.0448,-0.0938 -0.07347,-0.22477 -0.0755,-0.37069c-0.00217,-0.14612 0.02276,-0.27956 0.06483,-0.37734z" fill="#ffffff" stroke-width="0.01811"/></g><path d="M235.82357,172.06152l-0.15006,2.38751l0.23118,1.92547l0.26963,1.36258c0.03191,0.16018 -1.66188,-1.09868 -2.01231,-1.54455c-0.4337,-0.55165 -0.71203,-1.15503 -0.9877,-1.75935c-0.2011,-0.44036 -0.21787,-0.62079 -0.28169,-0.94074l-0.19792,-0.99332c-0.03764,-0.18873 -0.1297,-1.14859 0.05554,-1.31337c0.05258,-0.04674 0.71571,0.43369 0.79171,0.43185l0.55471,-0.01503c0.16458,-0.0043 0.65597,-0.35474 0.79845,-0.47012c0.10413,-0.08418 0.68165,-0.73402 0.74302,-1.36861l0.06066,-0.62774c0.0091,-0.094 -0.22749,-1.08037 -0.18984,-1.09806c0.07754,-0.03672 -0.79151,-1.08568 -0.71079,-1.12824c0.44914,-0.23752 0.99383,-0.54152 1.60531,-0.67561c0.96131,-0.21082 2.01354,-0.18003 2.5528,-0.17287c0.09196,0.00123 1.26336,0.04 1.96383,0.27628c1.10921,0.37407 1.73296,1.08578 1.77592,1.12485c0.6747,0.61321 1.17652,1.32729 1.52859,2.12871l0.19117,0.67786c0.09789,0.34697 0.43268,2.25637 0.2459,2.93157l-0.63726,2.30588c-0.1115,0.40383 -1.18132,2.29565 -1.39929,2.18569c-0.30543,-0.15374 -0.31157,-1.34611 -0.41529,-1.20004c-0.22994,0.32353 1.57657,-1.27012 1.66249,-1.71649c0.14679,-0.76316 0.4385,-1.48983 0.37345,-2.02725c-0.01237,-0.10147 -0.02219,-0.79569 -0.03365,-0.96365c-0.0089,-0.13278 -0.08981,-0.24089 -0.22319,-0.20652c-0.08879,0.02281 -0.2995,-0.08562 -0.43268,0.12632l-0.39452,0.62857c-0.06403,0.10178 -1.24791,1.95063 -1.30611,1.80978c-0.01074,-0.02619 0.22411,-0.61771 0.23679,-0.65699c0.07702,-0.23752 0.0851,-0.42265 0.00931,-0.33755c-0.19935,0.2238 -0.53374,0.81196 -0.53374,0.81196c-0.04787,0.07252 -0.57865,0.02752 -0.93696,-0.09706c-0.33336,-0.11589 -0.75284,-0.51829 -0.8586,-0.61762l-1.1491,-1.08026c-1.07934,-1.01418 -1.01009,-0.58049 -1.07321,-0.6976c0.04848,-0.07774 -0.77023,-0.10566 -0.96437,0.07437c-0.07733,0.07171 -0.31321,0.20888 -0.43473,0.27925c-0.16171,0.09348 -0.273,0.14882 -0.32742,0.24017z" data-paper-data="{&quot;index&quot;:null}" fill="#54c81c" stroke="none" stroke-width="0.17188" stroke-linecap="butt"/><path d="M231.77655,170.48812c-0.60524,-0.20693 -1.16608,-0.76563 -1.41331,-1.24618c-0.02271,-0.04398 -0.00266,-0.18637 -0.00266,-0.18637c-0.07396,0.04153 0.00532,-0.08735 -0.0089,-0.17716c-0.01114,-0.07058 -0.11803,-0.19926 -0.11803,-0.19926c-0.02946,0.03662 0.13451,-0.12285 0.18677,-0.21307c0.04307,-0.07468 0.00645,-0.10638 0.04531,-0.15579c0.27219,-0.34615 0.81504,-0.62426 1.64562,-0.70845c1.08671,-0.10996 2.04092,0.68716 2.04092,1.07729c0,0 -1.3421,2.16219 -2.37571,1.80898z" data-paper-data="{&quot;index&quot;:null}" fill="#ed3e67" stroke="none" stroke-width="0.17188" stroke-linecap="butt"/><path d="M234.9474,169.37543c0.14873,-0.10392 -0.2908,1.37874 -0.67335,1.58566c-0.65792,0.35576 -0.58427,0.61772 -1.14634,0.44649c-0.12623,-0.03825 -0.37622,-0.26084 -0.73556,-0.40926c-0.41631,-0.17174 -0.78495,-0.41048 -0.64697,-0.48188l0.83016,-0.48649l1.23053,-1.368c0.01913,-0.02128 -0.2321,-0.2328 -0.62294,-0.50898c-0.27403,-0.19373 -0.6841,-0.42358 -1.00365,-0.54693c-0.18831,-0.07262 0.18862,-0.29081 0.72502,-0.44414c0.26002,-0.07437 0.53619,-0.17266 0.84439,-0.15527c0.53374,0.03027 0.92407,0.64195 1.06686,1.26203c0.13379,0.58069 0.03283,1.1757 0.13185,1.10676z" data-paper-data="{&quot;index&quot;:null}" fill="#54c81c" stroke="none" stroke-width="0.17188" stroke-linecap="butt"/><path d="M235.71781,169.33902c0.02669,1.21488 -1.17395,2.28982 -1.56224,2.26231l-0.61046,0.112l-0.86382,-0.51584c-0.22115,-0.13216 1.20331,0.07682 1.54997,-0.30379c0.22626,-0.24826 0.39156,-0.44004 0.42337,-0.53834c0.30175,-0.93737 0.26902,-1.70391 0.08317,-2.20339c-0.29203,-0.78485 -0.87763,-1.03648 -0.49661,-1.21774c0.90852,-0.43247 1.44738,1.07709 1.47663,2.40479z" data-paper-data="{&quot;index&quot;:null}" fill="#ead32e" stroke="none" stroke-width="0.17188" stroke-linecap="butt"/><path d="M243.70886,168.68591c0,0 -0.28078,-0.35003 -0.47912,-0.61997c-0.41376,-0.5631 -1.03731,-0.90177 -0.91773,-1.0596c0.09963,-0.06383 0.61128,0.07048 0.751,0.20181l0.28385,0.26656c0.49907,0.46889 0.69648,1.15033 0.6884,1.42938c-0.00348,0.1207 0.12418,0.34103 0.08071,0.47534c0,0 -0.32753,-0.41836 -0.40711,-0.69352z" data-paper-data="{&quot;index&quot;:null}" fill="#ead32e" stroke="none" stroke-width="0.17188" stroke-linecap="butt"/><path d="M243.33625,167.35512c0,0 1.0776,-0.03324 1.27083,0.26483c0.12847,0.19792 -0.04716,0.67561 0.10229,0.82587c0.18555,0.18658 0.46316,0.64738 0.61066,0.98636c0.04429,0.30993 0.15558,0.60666 0.02281,0.9524c0.054,0.30502 -0.70497,0.86587 -0.73258,0.76583l-0.37541,-1.35971c-0.09523,-0.34501 -0.31136,-1.04436 -0.3713,-1.18623z" data-paper-data="{&quot;index&quot;:null}" fill="#54c81c" stroke="none" stroke-width="0.17188" stroke-linecap="butt"/><path d="M238.55556,176.71892h-0.86877" data-paper-data="{&quot;index&quot;:null}" fill="none" stroke="#dfcfa3" stroke-width="0.36953" stroke-linecap="round"/><path d="M239.25694,175.07382c-0.25971,0 -0.60994,0.03376 -0.92479,0.01872c-0.49139,-0.02363 -0.93532,-0.15374 -0.93532,-0.15374c0,0 -0.34037,-0.32711 -0.32037,-1.01971c0.01782,-0.61715 0.3131,-1.38581 0.81319,-1.38581c0.35709,0 0.66262,0.1376 1.01899,0.65129c0.08756,0.12623 0.59849,1.86225 0.3483,1.88925z" data-paper-data="{&quot;index&quot;:null}" fill="#ffffff" stroke="none" stroke-width="0.17188" stroke-linecap="butt"/><g data-paper-data="{&quot;index&quot;:null}" stroke="none" stroke-linecap="butt"><path d="M238.30516,174.36898c0,-0.5294 0.20288,-0.95856 0.45313,-0.95856c0.25025,0 0.45313,0.42916 0.45313,0.95856c0,0.5294 -0.20288,0.95856 -0.45313,0.95856c-0.25025,0 -0.45313,-0.42916 -0.45313,-0.95856z" fill="#008ae6" stroke-width="0"/><path d="M238.75361,173.54343c0.07892,-0.00736 0.1526,0.07 0.20772,0.20091c0.05525,0.13092 0.09193,0.31542 0.09713,0.52227c0.00504,0.20696 -0.0224,0.39744 -0.07075,0.53808c-0.04848,0.14062 -0.11785,0.23142 -0.19677,0.23877c-0.07892,0.00736 -0.15261,-0.07 -0.20772,-0.20089c-0.05525,-0.13092 -0.09195,-0.31541 -0.097,-0.52225c-0.00518,-0.20699 0.02225,-0.39747 0.07057,-0.53811c0.04848,-0.14062 0.11796,-0.23126 0.19679,-0.23877z" fill="#000000" stroke-width="0.0278"/><path d="M238.60919,173.78135c0.0419,-0.0978 0.10095,-0.15994 0.16695,-0.16301c0.06603,-0.00305 0.12675,0.05362 0.17136,0.14739c0.0448,0.0938 0.07346,0.22477 0.07549,0.37069c0.00217,0.14612 -0.02276,0.27956 -0.06483,0.37735c-0.0419,0.0978 -0.10095,0.15998 -0.16695,0.16303c-0.06603,0.00305 -0.12675,-0.05361 -0.17136,-0.1474c-0.0448,-0.0938 -0.07346,-0.22477 -0.07549,-0.37069c-0.00217,-0.14612 0.02276,-0.27956 0.06483,-0.37735z" fill="#ffffff" stroke-width="0.01811"/></g><path d="M238.75801,175.14021l0.46708,-0.04595c0,0 -0.54629,0.70961 -0.95305,0.63138c-0.40676,-0.07822 -0.43938,-0.6276 -0.43938,-0.6276z" data-paper-data="{&quot;index&quot;:null}" fill="#f0e9bb" stroke="none" stroke-width="0" stroke-linecap="butt"/><path d="M238.65258,172.97408c-0.41598,-0.42365 -0.72904,-0.49569 -1.03205,-0.23153c-0.22698,0.17767 -0.383,0.79509 -0.39571,1.21444c-0.01699,0.56033 0.12964,0.98414 0.12964,0.98414c0,0 -0.12404,-0.12706 -0.22167,-0.41893c-0.09763,-0.29187 0.0206,-0.63787 -0.1514,-0.75489c-0.18012,-0.12255 -1.02374,-0.25869 -1.02374,-0.25869c0,0 1.18552,-0.00044 1.18793,-0.07506c0.01043,-0.32357 0.20922,-0.65476 0.32552,-0.75955c0.20913,-0.18845 0.43372,-0.26181 0.70783,-0.18982c0.19655,0.05163 0.36344,0.21798 0.57155,0.43023c0.67457,0.688 0.61877,2.11745 0.61877,2.11745c0,0 -0.14592,-1.60991 -0.71667,-2.05779z" data-paper-data="{&quot;index&quot;:null}" fill="#000000" stroke="none" stroke-width="0" stroke-linecap="butt"/><path d="M244.14115,173.24999l0.10256,-0.15385l0.66667,0.02564z" data-paper-data="{&quot;index&quot;:null}" fill="#000000" stroke="none" stroke-width="0" stroke-linecap="butt"/><path d="M243.05074,174.70247l0.45,-0.13333c0,0 -0.40244,0.8 -0.81666,0.8c-0.41422,0 -0.55,-0.53333 -0.55,-0.53333z" data-paper-data="{&quot;index&quot;:null}" fill="#f0e9bb" stroke="none" stroke-width="0" stroke-linecap="butt"/><g data-paper-data="{&quot;index&quot;:null}" stroke="none" stroke-width="0" stroke-linecap="butt"><path d="M243.84662,170.66556c0,0.08886 -0.11734,0.36284 -0.21592,0.54821c-0.09168,0.1724 -0.16509,0.26003 -0.16509,0.26003l0.88536,0.44134l-0.4179,0.25058c0,0 -0.21687,-0.13138 -0.39252,-0.34173c-0.16617,-0.199 -0.29227,-0.47499 -0.27095,-0.56116c0.05486,-0.2218 0.3512,-0.66493 0.3512,-0.83815c0,-0.15549 -0.13978,-0.22801 -0.19435,-0.36774c-0.08258,-0.21145 -0.08656,-0.4603 -0.039,-0.4603c0.05247,0 0.283,0.16194 0.38651,0.36588c0.07901,0.15567 0.07267,0.57184 0.07267,0.70304z" fill="#671829"/><path d="M243.36485,170.03324c0,0.06899 0.08961,0.82347 -0.42018,1.07764c-0.35275,0.17587 -0.7466,-0.32488 -0.7466,-0.32488l0.15302,-0.31974c0,0 0.29154,0.65863 0.52777,0.56972c0.48824,-0.18377 -0.04094,-1.15303 -0.04094,-1.1834c0,-0.13304 0.22649,-0.24088 0.33874,-0.24088c0.11225,0 0.18819,0.28851 0.18819,0.42155z" fill="#671829"/><path d="M242.41233,169.29408c0,0 0.14688,-0.36924 0.2411,-0.36477c0.18547,0.00881 0.57231,0.41723 0.57231,0.56048c0,0.04305 -0.16886,0.22802 -0.39482,0.38171c-0.15528,0.10561 -0.36901,0.14807 -0.46037,0.10993c-0.0851,-0.03553 -0.1717,-0.29307 -0.08428,-0.43587c0.07828,-0.12786 0.33451,-0.1276 0.29188,-0.1276c-0.18304,0 -0.16582,-0.12389 -0.16582,-0.12389z" fill="#804046"/><path d="M243.87601,169.56851l0.27683,0.05232l-0.15956,0.42081c0,0 -0.30509,-0.13981 -0.46037,-0.24542c-0.22596,-0.15368 -0.39482,-0.21821 -0.39482,-0.26126c0,-0.14325 0.64278,-0.53662 0.82825,-0.54543c0.09422,-0.00447 0.26265,0.33852 0.2411,0.39488c-0.04088,0.10687 -0.33143,0.1841 -0.33143,0.1841z" data-paper-data="{&quot;index&quot;:null}" fill="#804046"/><path d="M243.39497,169.48749c0,0.09354 -0.07077,0.16937 -0.15808,0.16937c-0.08731,0 -0.15808,-0.07583 -0.15808,-0.16937c0,-0.09354 0.07077,-0.16937 0.15808,-0.16937c0.08731,0 0.15808,0.07583 0.15808,0.16937z" fill="#671829"/></g><g data-paper-data="{&quot;index&quot;:null}" stroke="none" stroke-linecap="butt"><path d="M237.30057,180.80595c-0.34072,-0.38154 0.25363,-0.84992 0.2496,-1.67068c-0.01187,-0.71765 0.07346,-1.42384 0.40047,-1.69625c0.10087,-0.08398 0.74653,-0.13011 0.88289,-0.13011c0.17225,0 0.88459,-0.11068 1.1825,0.32006c0.07646,0.11077 0.43687,1.10653 0.36888,1.27888c-0.07151,0.18218 0.31105,1.66791 0.03494,1.91073c0,0 -2.70954,0.33034 -3.11928,-0.01263z" data-paper-data="{&quot;index&quot;:null}" fill="#c27e34" stroke-width="0.17188"/><path d="M230.70906,178.34482c0,0 2.29224,-0.29573 3.21641,-0.64215c1.19826,-0.44917 3.48315,-0.54648 3.48315,-0.54648l-0.05827,1.07988c0,0 -2.46273,0.8988 -3.61911,1.45429c-1.06003,0.5092 -3.05528,0.93793 -3.05528,0.93793z" fill="#fba15d" stroke-width="0"/><path d="M230.23825,180.19114c0,0 1.69334,0.13852 3.40154,-0.48602c1.19826,-0.44916 3.7561,-1.83826 3.7561,-1.83826l0.30844,0.99393c0,0 -1.31461,1.19218 -3.02499,1.49229c-2.31868,0.40684 -4.1047,1.15578 -4.1047,1.15578z" fill="#fba15d" stroke-width="0"/><path d="M240.77349,178.74253c-0.6462,-0.53731 -2.25774,-1.19832 -1.97575,-1.37695c0.28201,-0.17875 2.03692,0.27247 3.06501,0.58376c0.64973,0.19687 1.21625,0.27208 1.72998,0.6977c0.33745,0.27982 0.41896,1.33358 0.27363,1.76175c-0.11184,0.33163 -1.20578,0.304 -1.52805,0.22217c-0.97471,-0.24766 -0.76101,-1.24676 -1.56482,-1.88844z" data-paper-data="{&quot;index&quot;:null}" fill="#c27e34" stroke-width="0.17188"/><path d="M237.51003,179.01072c-0.94789,0.80587 -0.65157,0.15022 -0.65157,0.15022c-0.38733,0.11227 0.08701,2.34336 -0.06238,1.94968c-0.194,-0.50824 -0.46926,0.30303 -1.44019,-0.00583c-1.04978,-0.33395 -0.69684,-2.07822 0.08271,-2.34288c1.23354,-0.41851 3.03461,-1.64291 3.38395,-1.44031c0.34931,0.20246 -0.55139,1.0155 -1.31251,1.68912z" data-paper-data="{&quot;index&quot;:null}" fill="#c27e34" stroke-width="0.17188"/><g data-paper-data="{&quot;index&quot;:null}" stroke-width="0.17188"><path d="M242.25979,180.40018c0.38841,0.28068 0.27126,0.59188 0.14856,0.72518c-0.62728,0.63755 -1.74308,1.04049 -2.59802,0.98792c0.16851,0.04024 -0.79572,-0.24667 -0.70155,-1.06329c0.02351,-0.35431 -0.12447,-1.00145 -0.12593,-1.57219l0.1592,-0.54226c0.07304,-0.24921 0.47321,-0.36532 0.74364,-0.22767c0.04001,0.02032 -0.05799,-0.19344 0.07336,-0.31033c0.23643,-0.21036 0.76752,-0.37551 1.00027,-0.20081c0.20424,0.153 0.60917,0.16258 0.79107,0.46813c0.24525,0.41203 -0.03595,0.13496 0.03174,0.50758c0.04011,0.22146 0.46891,1.22129 0.47762,1.22772z" fill="#ffcfea"/><path d="M243.77734,179.02258c0.13576,0.34017 0.13712,0.471 0.11649,0.91605c-0.02063,0.44506 0.02928,0.93585 -0.21189,1.10461c-0.45392,0.18589 -0.46028,0.05838 -0.84479,0.02877c-0.38451,-0.02961 -0.96677,-0.1847 -0.96677,-0.1847c-0.00813,-0.02832 -0.19939,-0.65839 -0.23358,-1.0433c-0.03419,-0.38491 -0.076,-0.7938 0.07769,-0.97612c0.10615,-0.12621 0.00225,-0.19274 0.36957,-0.19363c0.39026,-0.00086 0.91318,-0.11836 1.29871,-0.01624c0.16692,0.04418 0.25882,0.02438 0.39458,0.36455z" fill="#fca03b"/></g><g data-paper-data="{&quot;index&quot;:null}" stroke-width="0.17188"><path d="M237.86316,180.55163c0.00685,-0.00821 0.33098,-1.00334 0.31922,-1.23499c-0.01956,-0.38978 -0.36608,-0.15392 -0.22523,-0.61856c0.10446,-0.34458 0.48838,-0.4342 0.64857,-0.62911c0.18246,-0.22245 0.72609,-0.16049 0.999,0.00534c0.15161,0.09214 0.10642,0.32745 0.13998,0.29901c0.22676,-0.19246 0.63449,-0.15417 0.76039,0.08314l0.27416,0.51635c0.12741,0.57682 0.13237,1.25978 0.23474,1.61306c0.27407,0.80635 -0.58049,1.28658 -0.4289,1.21264c-0.80324,0.22191 -1.958,0.0352 -2.69993,-0.48501c-0.14705,-0.11041 -0.329,-0.40166 -0.02202,-0.76188z" fill="#ffcfea"/><path d="M235.76282,180.27795c-0.0796,-0.39332 0.0005,-1.03204 0.14217,-1.18107c0.09322,-0.09786 0.4788,-0.23259 0.97604,-0.28186c0.49724,-0.04927 1.13987,-0.0472 1.26957,0.05935c0.18768,0.15384 0.21064,0.2464 0.14908,0.61926c-0.06157,0.37286 0.051,0.42619 -0.00085,0.86223c-0.05185,0.43605 0.1523,0.68058 -0.18698,0.8181c-0.46587,0.18881 -1.52758,0.34562 -2.04719,0.14214c-0.26803,-0.12283 -0.22224,-0.64482 -0.30184,-1.03815z" fill="#fca03b"/></g><path d="M241.61603,177.75705c0,0.07887 -0.15013,0.01377 -0.40873,0.21233c-0.14014,0.10761 0.50942,0.10036 0.3122,0.24058c-0.3286,0.23362 -1.77904,-0.13437 -2.21704,-0.13437c-0.52894,0 -1.80761,0.20015 -2.22423,-0.07931c-0.1849,-0.12403 0.33133,-0.17621 0.19684,-0.28743c-0.24194,-0.20009 -0.18415,-0.25671 -0.18415,-0.3482c0,-0.51334 0.97452,-0.04775 2.16052,-0.04775c1.18599,0 2.3646,-0.0692 2.3646,0.44414z" fill="#ffe340" stroke-width="0"/><path d="M240.29471,177.34591c0,0.07045 0.2485,0.31796 -0.02415,0.30777c-0.27264,-0.01019 -2.16581,-0.32046 -2.16581,-0.3909c0,-0.07045 0.60749,0.0066 1.10443,0.05762c0.79887,0.08202 1.08552,-0.04494 1.08552,0.02551z" fill="#000000" stroke-width="0"/></g><g data-paper-data="{&quot;index&quot;:null}" stroke-width="0" stroke-linecap="butt"><path d="M238.8532,167.462c-1.2877,0.03749 -3.52581,0.80848 -3.52581,0.80848c0,0 -0.14278,-0.86719 -1.1397,-1.03786c-0.99692,-0.17068 -1.40436,-0.16573 -2.29752,0.51515c-0.68197,0.51989 -1.41029,1.29419 -1.60297,1.76821c-0.81569,2.0067 -1.551,5.06786 -1.551,5.06786c0,0 -1.55558,-3.99388 1.77409,-8.81767c2.05594,-2.91886 6.40697,-3.1281 7.12765,-2.86034c0.73935,0.2747 3.13998,1.70907 3.99699,2.59968c1.04038,1.08117 1.73599,2.53078 1.73599,2.53078c0,0 -3.13151,-0.61465 -4.51772,-0.57429z" fill="#c27e34" stroke="none"/><g><path d="M229.52213,174.3642c0.03163,0.47868 -0.33078,0.89238 -0.80947,0.92401c-0.47868,0.03163 -0.89238,-0.33077 -0.92401,-0.80946c-0.03163,-0.47869 0.33078,-0.89239 0.80947,-0.92402c0.47868,-0.03164 0.89238,0.33077 0.92401,0.80946z" fill="#db7b04" stroke="none"/><path d="M228.63748,174.15034c0.46298,-0.03059 0.92747,-0.0138 0.94403,0.23673c0.01087,0.16448 -0.4579,0.08284 -0.92089,0.11344c-0.46299,0.0306 -0.94942,0.11774 -0.96029,-0.04674c-0.01845,-0.2792 0.47416,-0.27283 0.93715,-0.30343z" fill="#feeb00" stroke="#000000"/><path d="M228.65887,175.22093c-0.01195,-0.18076 0.0059,-0.58836 0.09628,-0.59434c0.09038,-0.00598 0.27289,-0.10132 0.28483,0.07944c0.01195,0.18075 -0.09383,0.56535 -0.18421,0.57133c-0.09038,0.00597 -0.18496,0.12432 -0.1969,-0.05644z" fill="#000000" stroke="none"/><path d="M228.09511,174.67721c0.04752,-0.00314 0.09282,0.09705 0.1012,0.22376c0.00838,0.12672 -0.02524,0.20331 -0.07277,0.20645c-0.04753,0.00314 -0.15966,-0.23666 -0.16804,-0.36337c-0.00838,-0.12671 0.09208,-0.0637 0.1396,-0.06684z" fill="#000000" stroke="none"/></g></g><path d="M239.04593,175.29776c0,0.32172 -0.83042,0.58253 -1.43843,0.58253c-0.6502,0 -1.15691,-0.24128 -1.18527,-0.78252c-0.01988,-0.37923 0.33363,-0.31664 0.72717,-0.20391c0.16813,0.04816 0.34356,0.10547 0.5003,0.14139c0.59098,0.13544 1.39624,-0.0592 1.39624,0.26252z" data-paper-data="{&quot;index&quot;:null}" fill="url(#color-1)" stroke="none" stroke-width="0" stroke-linecap="butt"/><path d="M242.27129,174.86298c0,-0.32172 0.40934,-0.00709 0.73911,-0.14253c0.08746,-0.03592 0.26535,-0.05323 0.35917,-0.10139c0.2196,-0.11272 0.49686,-0.49531 0.48577,-0.11608c-0.01583,0.54124 -0.41857,0.94252 -0.78139,0.94252c-0.33927,0 -0.80266,-0.26081 -0.80266,-0.58253z" data-paper-data="{&quot;index&quot;:null}" fill="url(#color-2)" stroke="none" stroke-width="0" stroke-linecap="butt"/></g></g></svg>