<svg version="1.1" xmlns="http://www.w3.org/2000/svg" xmlns:xlink="http://www.w3.org/1999/xlink" width="33.88548" height="16.94573" viewBox="0,0,33.88548,16.94573"><g transform="translate(-223.00474,-169.72328)"><g data-paper-data="{&quot;isPaintingLayer&quot;:true}" fill-rule="nonzero" stroke-linejoin="miter" stroke-miterlimit="10" stroke-dasharray="" stroke-dashoffset="0" style="mix-blend-mode: normal"><g data-paper-data="{&quot;index&quot;:null}"><g data-paper-data="{&quot;index&quot;:null}" stroke="none" stroke-width="0" stroke-linecap="butt"><path d="M256.88638,175.08964c-0.17269,1.73657 -3.53219,3.68687 -3.53219,3.68687c-0.47858,0.30832 -0.97161,0.41822 -1.48027,0.45746c-0.44301,0.03418 -0.89784,0.01479 -1.36532,0.02621c-1.00422,0.02453 0.0869,-1.09188 0.0869,-1.09188c0,0 1.48053,-1.70535 2.55257,-2.22523c0.86077,-0.55605 3.86445,-2.12204 3.73829,-0.85343z" data-paper-data="{&quot;index&quot;:null}" fill="#d757d7"/><path d="M247.86241,179.53283c0,0 3.02674,-1.57692 4.10182,-2.24357c0.72727,-0.45099 1.86121,-1.21902 1.86121,-1.21902c0.33171,-0.14027 1.56262,-0.13298 1.12972,0.54977c-0.34032,0.53671 -2.33902,1.7726 -2.33902,1.7726c0,0 -3.66256,2.00093 -4.16989,2.40407c-1.63925,1.22199 -4.89118,2.81736 -4.89118,2.81736l-0.59975,-1.33915l4.90705,-2.74201z" data-paper-data="{&quot;index&quot;:null}" fill="#f8ffff"/></g><path d="M254.65507,176.6795l0.48877,0.12727" fill="none" stroke="#000000" stroke-width="0.5" stroke-linecap="round"/><path d="M254.35369,177.43613l-0.45263,-0.06566" fill="none" stroke="#000000" stroke-width="0.5" stroke-linecap="round"/></g><g data-paper-data="{&quot;index&quot;:null}"><g data-paper-data="{&quot;index&quot;:null}" stroke="none" stroke-width="0" stroke-linecap="butt"><path d="M253.86488,170.09241c0.28737,1.7213 -2.44537,4.48213 -2.44537,4.48213c-0.38131,0.42272 -0.82848,0.6577 -1.30916,0.82857c-0.41864,0.14881 -0.86273,0.24902 -1.31097,0.38228c-0.96289,0.28624 -0.20163,-1.07662 -0.20163,-1.07662c0,0 0.98316,-2.03312 1.882,-2.81521c0.68545,-0.76175 3.17522,-3.0586 3.38514,-1.80114z" data-paper-data="{&quot;index&quot;:null}" fill="#d757d7"/><path d="M246.31649,176.7404c0,0 2.50916,-2.31344 3.37255,-3.23796c0.58405,-0.62544 1.47775,-1.66326 1.47775,-1.66326c0.28349,-0.22211 1.4735,-0.53691 1.23417,0.23524c-0.18815,0.60702 -1.7942,2.32251 -1.7942,2.32251c0,0 -3.012,2.88892 -3.39626,3.41067c-1.26272,1.60805 -3.98443,3.99822 -3.98443,3.99822l-0.92903,-1.13577l4.01944,-3.9296z" data-paper-data="{&quot;index&quot;:null}" fill="#f8ffff"/></g><path d="M251.51168,173.27442l0.55606,0.04503" fill="none" stroke="#000000" stroke-width="0.5" stroke-linecap="round"/><path d="M252.56389,172.40541l-0.50507,0.00497" fill="none" stroke="#000000" stroke-width="0.5" stroke-linecap="round"/></g><g data-paper-data="{&quot;index&quot;:null}"><path d="M229.27186,177.12689c1.31818,-3.53238 4.44096,-2.5945 4.7034,-2.54161c0.61043,0.15917 1.17315,0.48043 1.65985,0.87728c0.8172,0.65599 1.44577,1.59095 1.59623,2.64058c0.0064,0.49873 0.02128,0.42979 0.0512,0.92182c0.16994,0.76906 -0.08108,1.68774 -0.35657,2.38574c-0.19354,0.57809 -0.47987,1.12 -0.83609,1.615c-0.24184,0.31176 -0.44462,0.68578 -0.79878,0.88418c-0.33283,0.17955 -0.73554,0.27757 -1.10306,0.14688c-0.91069,-0.26833 -1.82535,-0.52865 -2.70846,-0.87823c-0.23704,-0.10856 -0.51116,-0.18888 -0.68796,-0.39086c-0.1183,-0.23777 -3.10997,-1.39949 -1.51979,-5.66077z" data-paper-data="{&quot;index&quot;:null}" fill="#a0a8a8" stroke="none" stroke-width="0.17188" stroke-linecap="butt"/><path d="M229.71874,173.34592c0.21088,-0.90753 0.58462,-1.47536 0.99066,-1.73654c0.05767,-0.03729 0.0858,0.00666 0.17093,-0.03246c0.10309,-0.04731 0.29569,-0.2103 0.25276,-0.18191c0,0 0.1202,0.13247 0.19323,0.15283c0.09287,0.02582 0.24058,-0.04681 0.18584,0.03008c0,0 0.15336,-0.00591 0.1965,0.0241c0.47125,0.32742 0.97923,1.01004 1.10879,1.70181c0.57102,-0.12403 -2.89668,0.71461 -3.09867,0.04207z" data-paper-data="{&quot;index&quot;:null}" fill="#ff7fff" stroke="none" stroke-width="0.17188" stroke-linecap="butt"/><path d="M230.72869,182.58771l2.17382,0.99862l1.87979,0.47674l1.36837,0.23843c0.16092,0.02782 -1.62281,1.15559 -2.16487,1.32222c-0.67072,0.2063 -1.33383,0.24902 -1.99685,0.28893c-0.48321,0.02928 -0.65761,-0.01996 -0.9791,-0.07546l-0.99804,-0.17253c-0.18964,-0.03274 -1.11839,-0.29204 -1.20552,-0.52414c-0.02472,-0.06587 0.66205,-0.51187 0.68767,-0.58344l0.18546,-0.523c0.05517,-0.15512 -0.09511,-0.73965 -0.15153,-0.91409c-0.0411,-0.12743 -0.43978,-0.90002 -1.00984,-1.18549l-0.56392,-0.28235c-0.08444,-0.0423 -1.08989,-0.17623 -1.09286,-0.21775c-0.00638,-0.08557 -1.29769,0.34811 -1.30837,0.2575c-0.06011,-0.50451 -0.1479,-1.12209 -0.05311,-1.74088c0.14899,-0.97282 0.55613,-1.94357 0.75675,-2.44418c0.03421,-0.08537 0.49165,-1.16448 0.96403,-1.7331c0.74794,-0.90048 1.63635,-1.22654 1.68825,-1.25259c0.81482,-0.40902 1.6616,-0.62048 2.536,-0.66081l0.70127,0.06541c0.35895,0.03344 2.04709,0.30416 3.26904,0.78203c2.5716,1.0057 3.73558,3.10288 3.55457,3.26673c-0.2533,0.22971 -1.90916,0.09822 -1.81016,0.24754c0.21919,0.3309 -0.31262,-1.49832 -1.00379,-2.16854c-0.69118,-0.67024 -2.65615,-1.32869 -2.817,-1.37842c-0.12709,-0.03944 -0.25708,-0.00284 -0.27298,0.13401c-0.01066,0.09105 -0.20316,1.11608 -0.1103,1.56434c0.09285,0.44825 0.84999,1.61889 0.77395,1.62072c-0.02831,0.00062 -0.40052,0.24849 -0.43263,0.22253c-0.19393,-0.15728 0.10472,0.59217 0.15688,0.69349c0.13713,0.2665 -1.33916,0.26774 -2.02569,0.95359c-0.68654,0.68586 -1.008,1.58011 -0.90984,1.826c0.03911,0.09793 0.08226,0.36738 0.10422,0.50608c0.02908,0.18451 0.04069,0.30826 0.10636,0.39187z" data-paper-data="{&quot;index&quot;:null}" fill="#d757d7" stroke="none" stroke-width="0.17188" stroke-linecap="butt"/><path d="M227.80516,185.79812c-0.41074,0.49033 -1.13375,0.81272 -1.67106,0.8706c-0.0492,0.00537 -0.17485,-0.06455 -0.17485,-0.06455c0.01216,0.08395 -0.0796,-0.03638 -0.1685,-0.05542c-0.06988,-0.01499 -0.22838,0.03847 -0.22838,0.03847c0.02356,0.04068 -0.06625,-0.16968 -0.13165,-0.2509c-0.05419,-0.06705 -0.09695,-0.04428 -0.12907,-0.09829c-0.22512,-0.37847 -0.28939,-0.98502 -0.06926,-1.7903c0.28819,-1.05355 1.37515,-1.65726 1.73918,-1.51697c0,0 1.5349,2.02987 0.8336,2.86731z" data-paper-data="{&quot;index&quot;:null}" fill="#ff7fff" stroke="none" stroke-width="0.17188" stroke-linecap="butt"/><path d="M227.90723,182.43929c-0.04348,-0.17617 1.18193,0.76716 1.23744,1.19855c0.09537,0.74185 0.36626,0.76733 0.00437,1.23022c-0.08109,0.10404 -0.3787,0.25724 -0.64641,0.53916c-0.30996,0.32668 -0.6653,0.58481 -0.6823,0.43038l-0.1554,-0.94957l-0.83396,-1.64015c-0.01298,-0.0255 -0.30069,0.13286 -0.69896,0.39822c-0.27931,0.18603 -0.64127,0.48602 -0.87128,0.73981c-0.13549,0.14961 -0.20352,-0.28057 -0.15369,-0.83622c0.02412,-0.26936 0.03171,-0.56242 0.15878,-0.84374c0.2202,-0.48715 0.93131,-0.63139 1.56126,-0.54164c0.58995,0.08399 1.10885,0.39216 1.08014,0.27498z" data-paper-data="{&quot;index&quot;:null}" fill="#d757d7" stroke="none" stroke-width="0.17188" stroke-linecap="butt"/><path d="M228.15031,181.70732c1.14322,0.41201 1.71446,1.91888 1.54913,2.2713l-0.11503,0.6099l-0.79197,0.62052c-0.20286,0.15882 0.50441,-1.09517 0.27392,-1.55552c-0.15028,-0.30042 -0.26977,-0.52363 -0.35006,-0.58866c-0.76613,-0.61865 -1.49317,-0.86378 -2.02607,-0.86999c-0.83737,-0.00976 -1.28276,0.44618 -1.31486,0.02545c-0.07682,-1.00326 1.52554,-0.96321 2.77493,-0.51303z" data-paper-data="{&quot;index&quot;:null}" fill="#ace6ff" stroke="none" stroke-width="0.17188" stroke-linecap="butt"/><path d="M230.41466,174.01603c0,0 -0.42759,0.13611 -0.7508,0.22411c-0.67423,0.18358 -1.21448,0.64362 -1.31874,0.47528c-0.02373,-0.11592 0.28559,-0.54504 0.45838,-0.62819l0.3508,-0.16899c0.617,-0.29706 1.32385,-0.23623 1.58132,-0.12833c0.11138,0.04666 0.36287,0.00676 0.47255,0.09563c0,0 -0.50815,0.15516 -0.79353,0.13047z" data-paper-data="{&quot;index&quot;:null}" fill="#ace6ff" stroke="none" stroke-width="0.17188" stroke-linecap="butt"/><path d="M229.03889,173.8851c0,0 0.35652,-1.01746 0.70413,-1.09057c0.23087,-0.0487 0.61345,0.28696 0.80739,0.20154c0.24081,-0.10602 0.77062,-0.19935 1.13997,-0.21509c0.30512,0.07013 0.62202,0.07298 0.89688,0.32121c0.30404,0.0593 0.55443,0.96919 0.45114,0.95898l-1.40375,-0.1387c-0.35618,-0.03522 -1.08645,-0.08504 -1.24039,-0.08013z" data-paper-data="{&quot;index&quot;:null}" fill="#d757d7" stroke="none" stroke-width="0.17188" stroke-linecap="butt"/><path d="M231.05384,182.16238c-0.42887,-0.61051 -0.07862,-1.59059 0.44555,-1.9203c0.52419,-0.32973 1.29678,-0.10211 1.72564,0.50842c0.42887,0.6105 0.35159,1.37272 -0.17258,1.70245c-0.52419,0.32973 -1.56976,0.31995 -1.99863,-0.29057z" fill="#272d3a" stroke="none" stroke-width="0" stroke-linecap="butt"/><path d="M233.90069,174.90855c0.72766,-0.16479 1.57454,0.46622 1.74187,1.06245c0.16732,0.59622 -0.28695,1.21315 -1.01461,1.37793c-0.72766,0.16477 -1.45319,-0.18498 -1.62051,-0.78122c-0.16732,-0.59622 0.1656,-1.49442 0.89328,-1.65918z" data-paper-data="{&quot;index&quot;:null}" fill="#272d3a" stroke="none" stroke-width="0" stroke-linecap="butt"/><path d="M231.48749,181.7722l1.40624,-0.60672" fill="none" stroke="#000000" stroke-width="0.25" stroke-linecap="round"/><path d="M231.74663,180.82638l0.84386,1.33731" fill="none" stroke="#000000" stroke-width="0.25" stroke-linecap="round"/><path d="M231.15247,182.1169c-0.15916,-0.134 -0.17954,-0.37166 -0.04554,-0.5308c0.134,-0.15916 0.37166,-0.17954 0.5308,-0.04554c0.15916,0.134 0.17954,0.37166 0.04554,0.5308c-0.134,0.15916 -0.37166,0.17954 -0.5308,0.04554z" fill="#000000" stroke="none" stroke-width="0" stroke-linecap="butt"/><path d="M232.69106,181.35299c-0.15916,-0.134 -0.17954,-0.37167 -0.04554,-0.5308c0.134,-0.15916 0.37167,-0.17954 0.53081,-0.04554c0.15916,0.134 0.17954,0.37166 0.04554,0.5308c-0.134,0.15916 -0.37167,0.17954 -0.53081,0.04554z" fill="#000000" stroke="none" stroke-width="0" stroke-linecap="butt"/><path d="M231.39505,180.97808c-0.15916,-0.134 -0.17954,-0.37167 -0.04553,-0.5308c0.134,-0.15916 0.37166,-0.17954 0.5308,-0.04554c0.15916,0.134 0.17954,0.37166 0.04554,0.5308c-0.134,0.15915 -0.37167,0.17954 -0.53081,0.04554z" fill="#000000" stroke="none" stroke-width="0" stroke-linecap="butt"/><path d="M232.39611,182.44771c-0.15916,-0.134 -0.17954,-0.37167 -0.04554,-0.5308c0.134,-0.15916 0.37167,-0.17954 0.53081,-0.04554c0.15916,0.134 0.17954,0.37166 0.04554,0.5308c-0.134,0.15916 -0.37167,0.17954 -0.53081,0.04554z" fill="#000000" stroke="none" stroke-width="0" stroke-linecap="butt"/><path d="M233.5869,176.51329l1.40624,-0.60672" fill="none" stroke="#000000" stroke-width="0.25" stroke-linecap="round"/><path d="M234.68987,176.90477l-0.84386,-1.33731" fill="none" stroke="#000000" stroke-width="0.25" stroke-linecap="round"/><path d="M233.25187,176.858c-0.15916,-0.134 -0.17954,-0.37166 -0.04554,-0.5308c0.134,-0.15916 0.37167,-0.17954 0.53081,-0.04554c0.15916,0.134 0.17954,0.37167 0.04553,0.5308c-0.134,0.15916 -0.37166,0.17954 -0.5308,0.04554z" fill="#000000" stroke="none" stroke-width="0" stroke-linecap="butt"/><path d="M234.79046,176.0941c-0.15916,-0.134 -0.17954,-0.37167 -0.04554,-0.5308c0.134,-0.15916 0.37166,-0.17954 0.5308,-0.04554c0.15916,0.134 0.17954,0.37166 0.04554,0.5308c-0.134,0.15916 -0.37167,0.17954 -0.5308,0.04554z" fill="#000000" stroke="none" stroke-width="0" stroke-linecap="butt"/><path d="M233.49444,175.71916c-0.15916,-0.134 -0.17954,-0.37167 -0.04553,-0.5308c0.134,-0.15916 0.37167,-0.17954 0.53081,-0.04554c0.15916,0.134 0.17954,0.37166 0.04554,0.5308c-0.134,0.15915 -0.37168,0.17954 -0.53081,0.04555z" fill="#000000" stroke="none" stroke-width="0" stroke-linecap="butt"/><path d="M234.49551,177.18882c-0.15916,-0.134 -0.17954,-0.37167 -0.04554,-0.5308c0.134,-0.15916 0.37166,-0.17954 0.5308,-0.04554c0.15916,0.134 0.17954,0.37166 0.04554,0.5308c-0.134,0.15916 -0.37167,0.17954 -0.5308,0.04554z" fill="#000000" stroke="none" stroke-width="0" stroke-linecap="butt"/></g><g data-paper-data="{&quot;index&quot;:null}"><path d="M227.68319,178.5347c0,0 -1.77877,-1.16506 -2.5924,-2.21951c-0.81363,-1.05447 -0.70743,-2.81247 -0.70743,-2.81247l0.73839,0.14273c0,0 -0.23006,1.20476 0.54629,2.20486c0.77636,1.00009 2.35878,2.10564 2.35878,2.10564z" fill="#565e69" stroke="none" stroke-width="0" stroke-linecap="butt"/><path d="M224.44063,174.30145l-1.19304,-3.47408l1.10284,-0.10184l0.76971,-0.75845l1.01987,0.45999l0.27861,0.99682l0.5007,0.48217z" fill="#00eb5c" stroke="none" stroke-width="0" stroke-linecap="butt"/><path d="M224.5596,174.18263l1.14983,-3.62869" fill="none" stroke="#000000" stroke-width="0.25" stroke-linecap="round"/><path d="M226.9312,171.8811l-2.01106,0.78185l-1.7904,-1.87266" fill="none" stroke="#000000" stroke-width="0.25" stroke-linecap="round"/></g><g data-paper-data="{&quot;index&quot;:null}"><g data-paper-data="{&quot;index&quot;:null}" stroke="none" stroke-width="0" stroke-linecap="butt"><path d="M242.5912,179.40643c0,0 1.75636,-5.13512 1.72996,-5.3127c-0.02641,-0.17759 0.42551,-0.27254 0.90021,-0.35717c0.47469,-0.08464 1.55223,-0.0431 1.55223,-0.0431c0,0 -0.41549,0.00716 -0.9369,0.87289c-0.30861,0.51238 -0.71149,1.50906 -1.14482,2.20714c-0.78615,1.26646 -2.10067,2.63296 -2.10067,2.63296z" fill="#d757d7"/><path d="M243.31431,178.44736c-2.35868,3.50797 -4.3109,3.43574 -4.3109,3.43574c0,0 -0.30149,0.178 0.54498,-1.01353c0.29113,-0.4098 -0.01246,-1.67759 1.23411,-3.89712c1.59493,-2.83977 3.86046,-3.1302 3.86046,-3.1302c0,0 0.36905,2.08015 -1.32866,4.6051z" fill="#f8ffff"/></g><path d="M244.21137,175.69005l0.57119,-0.36538" fill="none" stroke="#000000" stroke-width="0.25" stroke-linecap="round"/><path d="M244.46128,174.5528l0.54179,-0.23158" fill="none" stroke="#000000" stroke-width="0.25" stroke-linecap="round"/></g><g data-paper-data="{&quot;index&quot;:null}"><g data-paper-data="{&quot;index&quot;:null}" stroke="none" stroke-width="0" stroke-linecap="butt"><path d="M250.39566,177.47757c0,0 -1.19289,0.44663 -2.04777,1.18905c-0.85486,0.74243 -2.52892,3.04758 -2.52892,3.04758l-2.2026,-4.63555c0,0 1.81679,-0.90454 3.16972,-1.07787c1.78967,-0.22929 3.60957,1.47677 3.60957,1.47677z" fill="#d757d7"/><path d="M247.15277,177.28164c0.83721,1.18743 -1.27823,5.06597 -3.02965,6.10183c-1.87215,1.10724 -5.07643,-0.00193 -5.07643,-0.00193l-0.19218,-0.85766c0,0 1.16223,-0.31826 1.89362,-2.10205c1.07241,-2.61542 2.24569,-2.90414 2.86826,-3.34318c0.6273,-0.44238 2.66546,-1.03228 3.53638,0.20297z" fill="#f8ffff"/></g><path d="M247.05038,178.98594l0.46625,-0.34696" fill="none" stroke="#000000" stroke-width="0.25" stroke-linecap="round"/><path d="M247.03597,177.66853l0.45632,-0.27918" fill="none" stroke="#000000" stroke-width="0.25" stroke-linecap="round"/><path d="M246.16675,176.9872l0.55392,-0.47254" fill="none" stroke="#000000" stroke-width="0.25" stroke-linecap="round"/></g><g data-paper-data="{&quot;index&quot;:null}"><g data-paper-data="{&quot;index&quot;:null}" stroke="none" stroke-width="0" stroke-linecap="butt"><path d="M250.88413,182.56244c0,0 -0.62855,2.9414 -4.02801,3.2268c-0.64365,0.05402 1.94524,-1.25524 1.73331,-1.98472c-0.2119,-0.72939 -3.39902,-1.50606 -3.39902,-1.50606c0,0 2.92093,0.47968 3.70301,0.47751c0.78205,-0.00216 1.99075,-0.21351 1.99075,-0.21351z" fill="#d757d7"/><path d="M239.20674,184.73749c0,0 4.3288,-2.36894 5.92465,-2.35837c1.4733,0.00977 4.58104,1.36922 3.93274,2.23849c-0.6483,0.86926 -3.09625,1.61641 -5.29592,1.18429c-1.81535,-0.35659 -4.56145,-1.06444 -4.56145,-1.06444z" fill="#f8ffff"/></g><path d="M247.99872,183.67139l0.81984,-0.35405" fill="none" stroke="#000000" stroke-width="0.25" stroke-linecap="round"/><path d="M249.454,184.11295l-0.52766,0.2622" fill="none" stroke="#000000" stroke-width="0.25" stroke-linecap="round"/></g><g data-paper-data="{&quot;index&quot;:null}"><g data-paper-data="{&quot;index&quot;:null}" stroke="none" stroke-width="0" stroke-linecap="butt"><path d="M244.08987,180.06263c0,0 1.57288,-1.1404 2.87709,-1.17774c1.5699,-0.04493 3.92417,-0.59803 3.92417,-0.59803c0,0 -1.38007,3.26112 -2.30356,4.42042c-1.59662,2.00948 -2.86105,2.03301 -2.86105,2.03301c0,0 2.05823,-2.65169 1.78475,-3.60576c-0.26948,-0.94016 -3.42144,-1.07187 -3.42144,-1.07187z" fill="#d757d7"/><path d="M245.80564,184.79957c-0.14342,0.06388 -2.26041,0.89081 -3.62279,0.45941c-1.8082,-0.57255 -2.06475,0.47523 -2.22826,-0.4161c-0.16349,-0.89134 0.1968,-2.64849 1.53472,-3.45929c1.11359,-0.67489 2.63253,-1.33358 2.63253,-1.33358c0,0 3.41437,-0.36091 3.649,1.08079c0.22595,1.63553 -1.81556,3.60209 -1.96519,3.66874z" fill="#f8ffff"/></g><path d="M246.45927,179.86741l-0.4288,0.31985" fill="none" stroke="#000000" stroke-width="0.25" stroke-linecap="round"/><path d="M247.81015,180.40239l-0.31154,0.41837" fill="none" stroke="#000000" stroke-width="0.25" stroke-linecap="round"/><path d="M247.34733,182.33404l0.66053,-0.4052" fill="none" stroke="#000000" stroke-width="0.25" stroke-linecap="round"/></g><g data-paper-data="{&quot;index&quot;:null}"><path d="M240.03903,184.91679c-0.49985,0.19757 -1.72145,-0.32658 -2.67108,-0.90945c-0.94962,-0.58288 -1.0085,-1.21369 -0.98128,-1.33239c0.03437,-0.14993 0.06122,-1.37989 0.60488,-1.97522c0.54367,-0.59532 0.89496,-0.27077 1.48895,-0.31752c0.59398,-0.04675 1.56937,0.01345 1.74275,0.06317c0.44396,0.12749 -0.07711,1.47559 0.14262,1.77894c0,0 0.14313,2.42477 -0.32684,2.69244z" data-paper-data="{&quot;index&quot;:null}" fill="#d757d7" stroke="none" stroke-width="0.17188" stroke-linecap="butt"/><path d="M240.10162,183.52234c0.1369,-0.59714 -0.14133,-0.91476 0.19029,-1.02135c0.17125,-0.05505 0.36347,0.64411 0.19332,1.23234c-0.32208,0.63232 -0.18806,1.49773 -0.18806,1.49773l-0.53998,-0.3536c0,0 0.20751,-0.75798 0.34442,-1.35511z" data-paper-data="{&quot;index&quot;:null}" fill="#ace6ff" stroke="none" stroke-width="0" stroke-linecap="butt"/><path d="M240.15398,180.36818l0.5559,-0.22196c0,0 -0.34805,0.63657 -0.25062,1.33947c-0.03169,0.61152 -0.46254,0.71517 -0.39651,0.10611c0.06603,-0.60906 0.09121,-1.22361 0.09121,-1.22361z" data-paper-data="{&quot;index&quot;:null}" fill="#ace6ff" stroke="none" stroke-width="0" stroke-linecap="butt"/><path d="M240.22063,183.53046l-0.35373,-0.16166" fill="none" stroke="#000000" stroke-width="0.25" stroke-linecap="round"/><path d="M239.71376,184.29104l0.29964,0.16215" fill="none" stroke="#000000" stroke-width="0.25" stroke-linecap="round"/><path d="M240.1874,181.30894l-0.30491,-0.03818" fill="none" stroke="#000000" stroke-width="0.25" stroke-linecap="round"/><path d="M239.93314,180.59495l0.40494,-0.05798" fill="none" stroke="#000000" stroke-width="0.25" stroke-linecap="round"/></g><g data-paper-data="{&quot;index&quot;:null}"><g stroke="#ffffff" stroke-width="0" stroke-linecap="butt"><path d="M237.10438,178.00577l0.73085,-0.01311l0.15816,2.71776l-0.83161,-0.21595z" data-paper-data="{&quot;index&quot;:null}" fill="#d757d7"/><path d="M236.45838,174.36424l1.46347,0.46385c0,0 0.22555,2.10333 -0.02861,3.14132c-0.10518,0.4296 -0.69617,0.55517 -0.95882,-0.03652c-0.24551,-0.55309 -0.47605,-3.56864 -0.47605,-3.56864z" data-paper-data="{&quot;index&quot;:null}" fill="#ace6ff"/><path d="M239.35269,173.1867c1.46626,0.04705 2.81078,1.51058 2.60496,1.8549c-0.65075,1.08863 -1.37484,1.21533 -2.84007,1.28766c-1.7747,0.08761 -3.02314,-1.80673 -2.6542,-2.60588c0.12078,-0.26165 1.42308,-0.58372 2.88932,-0.53667z" data-paper-data="{&quot;index&quot;:null}" fill="#f8ffff"/></g><path d="M241.30984,175.72631c0,0 -1.51981,-0.10441 -2.35934,-0.58516c-0.83953,-0.48075 -1.90002,-1.61535 -1.90002,-1.61535" data-paper-data="{&quot;index&quot;:null}" fill="none" stroke="#000000" stroke-width="0.5" stroke-linecap="round"/><path d="M237.96956,173.78767l-0.50288,0.65854" data-paper-data="{&quot;index&quot;:null}" fill="none" stroke="#f8ffff" stroke-width="0.5" stroke-linecap="round"/><path d="M238.91537,174.6534l-0.37261,0.53803" data-paper-data="{&quot;index&quot;:null}" fill="none" stroke="#f8ffff" stroke-width="0.5" stroke-linecap="round"/><path d="M239.55436,175.65786l0.29835,-0.56605" data-paper-data="{&quot;index&quot;:null}" fill="none" stroke="#f8ffff" stroke-width="0.5" stroke-linecap="round"/><path d="M240.92032,175.40972l-0.16807,0.44555" data-paper-data="{&quot;index&quot;:null}" fill="none" stroke="#f8ffff" stroke-width="0.5" stroke-linecap="round"/></g><g data-paper-data="{&quot;index&quot;:null}" stroke="none" stroke-linecap="butt"><path d="M236.73859,181.7241c-0.02933,-0.18136 0.15067,-0.31587 0.46503,-0.3867c0.31437,-0.07085 0.76329,-0.07814 1.2718,-0.00484c0.50843,0.07325 0.98103,0.21333 1.33394,0.38028c0.35286,0.16706 0.58587,0.36104 0.6152,0.54239c0.0293,0.18123 -0.1507,0.31573 -0.46514,0.38666c-0.31437,0.07085 -0.76323,0.07805 -1.27176,0.00476c-0.50843,-0.07325 -0.98109,-0.21322 -1.33394,-0.38028c-0.35291,-0.16696 -0.58586,-0.36105 -0.61516,-0.54226z" fill="#03e1b6" stroke-width="0.01872"/><path d="M238.64509,181.62345c0.47959,0.09095 0.83676,0.3313 0.79779,0.53684c-0.03898,0.20553 -0.45935,0.29842 -0.93894,0.20747c-0.47959,-0.09095 -0.83676,-0.3313 -0.79779,-0.53684c0.03898,-0.20553 0.45935,-0.29842 0.93894,-0.20747z" fill="#216375" stroke-width="0"/><path d="M236.91291,181.8752c0.00904,-0.07264 0.0948,-0.11247 0.22607,-0.11809c0.13134,-0.00569 0.30818,0.02287 0.49933,0.0869c0.19121,0.06399 0.36072,0.15152 0.48022,0.24118c0.11955,0.08972 0.18908,0.18153 0.18004,0.25416c-0.00891,0.07263 -0.09473,0.11242 -0.22608,0.1181c-0.13134,0.00569 -0.30818,-0.02287 -0.49927,-0.08685c-0.19115,-0.06405 -0.36079,-0.1516 -0.48029,-0.24125c-0.11955,-0.08972 -0.18901,-0.18147 -0.18002,-0.25417z" fill="#000000" stroke-width="0.01896"/></g><g data-paper-data="{&quot;index&quot;:null}"><g stroke="none" stroke-width="0" stroke-linecap="butt"><path d="M236.29118,180.13385l0.73005,-0.03681l0.2463,2.7112l-0.83818,-0.18883z" fill="#d757d7"/><path d="M236.11896,180.0665c-0.26334,-0.54482 -0.59165,-3.55128 -0.59165,-3.55128l1.47775,0.41609c0,0 0.29373,2.0949 0.0734,3.14059c-0.09118,0.43277 -0.67778,0.57747 -0.95948,-0.00538z" fill="#ace6ff"/><path d="M238.4107,175.38025c1.46448,0.08607 2.76954,1.58489 2.55464,1.9236c-0.67951,1.0709 -1.40673,1.17829 -2.87335,1.21158c-1.77642,0.04033 -2.97394,-1.88659 -2.58387,-2.67565c0.12772,-0.25833 1.43812,-0.54562 2.90259,-0.45954z" fill="#f8ffff"/></g><path d="M239.95672,178.02481c0,0 -1.52018,-0.09901 -2.36142,-0.57675c-0.84124,-0.47774 -1.90578,-1.60854 -1.90578,-1.60854" fill="none" stroke="#000000" stroke-width="0.5" stroke-linecap="round"/><path d="M236.10902,176.75848l0.50052,-0.66034" fill="none" stroke="#f8ffff" stroke-width="0.5" stroke-linecap="round"/><path d="M237.18775,177.49983l0.37068,-0.53936" fill="none" stroke="#f8ffff" stroke-width="0.5" stroke-linecap="round"/><path d="M238.49734,177.39552l-0.29634,0.56711" fill="none" stroke="#f8ffff" stroke-width="0.5" stroke-linecap="round"/><path d="M239.3996,178.15575l0.16648,-0.44614" fill="none" stroke="#f8ffff" stroke-width="0.5" stroke-linecap="round"/></g></g></g></svg>