<svg version="1.1" xmlns="http://www.w3.org/2000/svg" xmlns:xlink="http://www.w3.org/1999/xlink" width="452.04565" height="39.15678" viewBox="0,0,452.04565,39.15678"><g transform="translate(-15.04958,-8.93829)"><g data-paper-data="{&quot;isPaintingLayer&quot;:true}" fill-rule="nonzero" stroke="none" stroke-linecap="butt" stroke-linejoin="miter" stroke-miterlimit="10" stroke-dasharray="" stroke-dashoffset="0" style="mix-blend-mode: normal"><path d="M300.23834,8.93832h11.3663l4.09184,13.1849l3.6372,-13.1849h7.27441l4.09184,13.1849l3.6372,-13.1849h11.3663l-10.00234,38.19066h-10.91161l-2.04595,-9.54765l-2.0459,9.54765h-10.91161z" fill="#0b5178" stroke-width="0.26458"/><path d="M350.24998,47.12898v-38.19066h15.91279v38.19066z" fill="#0b5178" stroke-width="0.26458"/><path d="M370.70929,47.12898v-38.19066h15.45815l10.00229,17.0494v-17.0494h13.63954v38.19066h-15.45815l-10.00229,-16.50379v16.50379z" fill="#0b5178" stroke-width="0.26458"/><path d="M417.99292,47.12898c-1.51551,-0.30309 -2.72789,-0.60619 -3.6372,-0.90928l1.81861,-9.09302l5.45585,0.45464c4.24339,0.30309 7.57751,0.30309 10.00229,0c1.21242,-0.60619 1.81861,-1.51547 1.81861,-2.72789c-0.30309,-1.21242 -3.03097,-1.81861 -8.18369,-1.81861c-4.54653,-0.60623 -7.7291,-2.27329 -9.5477,-5.00117c-0.90932,-2.1217 -1.36396,-4.54653 -1.36396,-7.27441c0,-4.24343 1.51551,-7.426 4.54653,-9.5477c2.1217,-1.51551 5.91045,-2.27325 11.36625,-2.27325c5.45581,0 10.91161,0.45464 16.36742,1.36396l-1.81861,8.63838c-6.36509,-0.30314 -10.76007,-0.45468 -13.18486,-0.45468c-2.1217,0.30314 -3.18257,1.06087 -3.18257,2.27329c-0.30309,2.1217 1.36396,3.18257 5.00117,3.18257c5.15271,0 8.94147,0.90928 11.36625,2.72789c1.81861,1.51551 2.72793,4.09184 2.72793,7.72905c0,3.15225 -0.75773,5.88018 -2.27325,8.18374c-1.51551,2.72789 -5.3043,4.39494 -11.3663,5.00117c-5.15271,0.30309 -10.45697,0.15155 -15.91279,-0.45468z" fill="#0b5178" stroke-width="0.26458"/><path d="M467.09524,8.93832l-2.27325,23.64183h-10.45697l-2.27325,-23.64183zM453.09195,41.53681c-0.0607,-1.72768 0.51517,-3.2735 1.72768,-4.63746c1.21242,-1.36392 2.87948,-2.0459 5.00117,-2.0459c1.81861,0 3.33412,0.68198 4.54653,2.0459c1.21242,1.36396 1.81861,2.95523 1.81861,4.77382c0,1.81861 -0.60619,3.33412 -1.81861,4.54653c-1.21242,1.21242 -2.72793,1.81861 -4.54653,1.81861c-2.1217,0 -3.78875,-0.60619 -5.00117,-1.81861c-1.21242,-1.21242 -1.78829,-2.77337 -1.72768,-4.6829z" fill="#0b5178" stroke-width="0.26458"/><g fill="#0b5178" stroke-width="0.26459"><path d="M15.0496,29.15431c0,-5.87311 1.45267,-10.49818 4.35802,-13.87521c2.90534,-3.37703 6.9002,-5.06555 11.98452,-5.06555c4.358,0 7.3844,0.14684 9.07918,0.44049l-3.26851,12.33351l-0.72634,-0.88097c-1.45267,-1.1746 -3.2685,-1.32143 -5.4475,-0.44046c-2.42111,1.76193 -4.23695,3.67067 -5.44752,5.72625c-1.21057,1.76193 -1.45266,3.96438 -0.72633,6.60727l0.72633,0.88095c1.21057,2.05558 3.26851,2.64291 6.17385,1.76194c0.94423,-0.58733 1.79161,-1.61512 2.54216,-3.0834v-5.72628h10.895v18.50029c-1.45267,0.88098 -5.08433,1.46828 -10.895,1.76193h-3.2685c-4.84223,0 -8.71602,-1.90877 -11.62136,-5.72627c-2.90534,-3.81751 -4.35802,-8.22234 -4.35802,-13.21449z"/><path d="M48.82416,47.2141l9.07916,-37.00055h16.34253l9.07919,37.00055h-10.53186l-1.81585,-7.04773h-10.16868l-1.45267,7.04773zM68.79833,30.47576l-2.72374,-11.01208l-2.72377,11.01208z"/><path d="M86.9567,47.2141v-37.00055h10.89501v26.42898h14.52669v10.57157z"/><path d="M116.01008,47.2141l9.07916,-37.00055h16.34253l9.07919,37.00055h-10.53186l-1.81583,-7.04773h-10.16868l-1.45267,7.04773zM135.98424,30.47576l-2.72373,-11.01208l-2.72376,11.01208z"/><path d="M154.14262,47.2141l5.81067,-18.50027l-5.81067,-18.5003h10.16866l3.63169,12.77401l3.63165,-12.77401h10.16866l-5.81065,18.5003l5.81065,18.50027h-10.16866l-3.63165,-12.77401l-3.63169,12.77401z"/><path d="M185.375,47.2141v-37.00055h12.71085v37.00055z"/><path d="M201.71749,47.2141v-37.00055h12.34768l7.98965,16.51811v-16.51811h10.89502v37.00055h-12.34769l-7.98965,-15.98952v15.98952z"/><path d="M236.58152,47.2141l9.0792,-37.00055h16.3425l9.0792,37.00055h-10.53187l-1.81583,-7.04773h-10.16868l-1.45265,7.04773zM256.55571,30.47576l-2.72374,-11.01208l-2.72374,11.01208z"/></g></g></g></svg>