<svg version="1.1" xmlns="http://www.w3.org/2000/svg" xmlns:xlink="http://www.w3.org/1999/xlink" width="74.36389" height="75.56135" viewBox="0,0,74.36389,75.56135"><g transform="translate(-206.23087,-181.05939)"><g data-paper-data="{&quot;isPaintingLayer&quot;:true}" fill-rule="nonzero" stroke-linecap="butt" stroke-linejoin="miter" stroke-miterlimit="10" stroke-dasharray="" stroke-dashoffset="0" style="mix-blend-mode: normal"><path d="M260.04152,222.19555c12.74448,10.78202 20.55324,31.90039 20.55324,31.90039c0,0 -17.3987,-8.71046 -23.51627,-10.12182c-6.11757,-1.41136 -18.87457,-1.37474 -20.31306,-1.37474c-2.95939,0 -10.01192,1.73252 -16.80293,5.27043c-6.79101,3.53791 -13.73163,8.75093 -13.73163,8.75093c0,0 2.66983,-19.57703 10.9859,-30.53915c8.69312,-12.0349 30.55415,-14.26715 42.82475,-3.88604z" data-paper-data="{&quot;index&quot;:null}" fill="#ffffff" stroke="none" stroke-width="0"/><path d="M234.96833,213.11377c0,0 2.24482,-20.17037 10.70173,-16.93586c12.48185,4.77392 -5.89113,19.82388 -5.89113,19.82388l-10.46471,2.10506c0,0 -10.01029,-0.88419 -14.70448,-3.91453c-6.48474,-4.18623 -8.0244,-10.98239 -5.84633,-11.8204c14.72026,-5.66361 26.20492,10.74185 26.20492,10.74185z" data-paper-data="{&quot;index&quot;:null}" fill="#3bb1f5" stroke="none" stroke-width="0"/><path d="M239.03321,184.30939c1.03537,3.88589 -4.61451,8.0757 -12.61934,9.3582c-8.00483,1.2825 -15.33336,-0.82795 -16.36872,-4.71384c-1.03536,-3.88589 4.61451,-8.0757 12.61934,-9.3582c8.00484,-1.28251 15.33337,0.82794 16.36873,4.71383z" data-paper-data="{&quot;index&quot;:null}" fill="none" stroke="#0063ea" stroke-width="6.5"/></g></g></svg>