<svg version="1.1" xmlns="http://www.w3.org/2000/svg" xmlns:xlink="http://www.w3.org/1999/xlink" width="24.20387" height="32.47882" viewBox="0,0,24.20387,32.47882"><g transform="translate(-228.07062,-165.62498)"><g data-paper-data="{&quot;isPaintingLayer&quot;:true}" fill-rule="nonzero" stroke-linejoin="miter" stroke-miterlimit="10" stroke-dasharray="" stroke-dashoffset="0" style="mix-blend-mode: normal"><g stroke="none" stroke-width="0" stroke-linecap="butt"><path d="M238.04566,183.85248c0,0 -2.35903,1.44535 -4.41001,2.16906c-1.13052,0.39891 -2.67701,0.66093 -3.50382,0.94025c-1.39703,0.47192 -1.53733,1.06179 -1.53733,1.06179c0,0 0.27824,-1.54859 0.54752,-2.19855c0.26928,-0.64997 0.54611,-1.26423 0.79092,-1.171c0.24481,0.09323 8.11272,-0.80156 8.11272,-0.80156z" fill="#54c81c"/><path d="M229.47379,185.03388c0,0 1.12337,-3.13758 5.6697,-4.52116c3.55335,-1.08138 3.81041,0.38465 4.48557,0.09811c1.9631,-0.83313 2.56113,1.70908 -3.17661,3.97178c-4.12986,1.62862 -6.97866,0.45127 -6.97866,0.45127z" fill="#ffffff"/></g><g stroke="none" stroke-width="0" stroke-linecap="butt"><path d="M234.6698,194.16673c0,0 -2.1933,-1.84045 -2.17695,-3.91134c0.01236,-1.56554 0.79452,-3.75974 0.79452,-3.75974l5.58412,1.87563c0,0 -2.39784,2.22325 -3.1269,3.29906c-0.72906,1.07582 -1.07479,2.49637 -1.07479,2.49637z" fill="#54c81c"/><path d="M234.00267,190.49794c-1.52689,-0.82344 -1.1336,-3.22687 -0.71532,-4.00228c0.41512,-0.76957 0.58355,-2.14615 3.41731,-3.72622c1.9327,-1.07765 2.13633,-2.44568 2.13633,-2.44568l1.00369,0.10162c0,0 1.70257,3.4998 0.69699,5.78483c-0.94074,2.13769 -5.07121,5.07927 -6.53898,4.28771z" fill="#ffffff"/></g><g stroke="none" stroke-width="0" stroke-linecap="butt"><path d="M252.27449,186.03805c0,0 -1.69245,-0.58383 -2.81861,-0.76772c-1.12616,-0.18389 -5.44509,-0.16794 -5.44509,-0.16794c0,0 4.77104,-0.38227 5.24489,-1.38408c0.47391,-1.00194 -2.95315,-3.4865 -2.03837,-3.2599c4.83148,1.19684 5.05716,5.57964 5.05716,5.57964z" fill="#54c81c"/><path d="M238.13596,180.29654c0,0 1.93793,-0.47595 4.63565,-0.57011c3.26883,-0.11409 6.62278,1.52805 7.35585,2.93019c0.73307,1.40214 -4.05831,2.64236 -6.18308,2.31591c-2.30148,-0.3536 -5.99023,-4.49418 -5.99023,-4.49418z" fill="#ffffff"/></g><path d="M248.27347,197.0678c-0.36574,1.32782 -2.79687,-1.35168 -3.45184,-2.22793c-0.88291,-0.91692 -1.71815,-3.1808 -1.71815,-3.1808c0,0 -0.67017,-1.52659 0.33676,-1.13495c0.46872,0.18231 0.93665,0.32889 1.37175,0.52525c0.49958,0.22547 0.95587,0.51662 1.32035,1.00296c0,0 2.6418,3.1978 2.14113,5.01545z" data-paper-data="{&quot;index&quot;:null}" fill="#54c81c" stroke="none" stroke-width="0" stroke-linecap="butt"/><g data-paper-data="{&quot;index&quot;:null}" stroke="none" stroke-width="0" stroke-linecap="butt"><path d="M241.37642,187.50231c0,0 3.10193,1.54361 3.8594,0.78199c0.76868,-0.7729 0.19388,-4.41451 0.19388,-4.41451c0,0 1.20389,0.69268 1.67495,3.47189c0.27403,1.60461 -0.12652,5.4731 -0.12652,5.4731c0,0 -1.97168,-1.77965 -3.45809,-2.65482c-1.23486,-0.72707 -2.14362,-2.65764 -2.14362,-2.65764z" fill="#54c81c"/><path d="M245.53721,183.85464c0.10863,0.14341 1.03038,3.11708 -0.05368,4.5707c-0.98971,1.26257 -4.08305,-0.894 -4.08305,-0.894c0,0 -1.11213,-1.43858 -1.82577,-2.67793c-0.85738,-1.48898 -0.27282,-3.37027 0.35681,-4.14108c0.62963,-0.77082 0.32118,0.37312 2.36406,0.78054c1.53921,0.30698 3.13752,2.22434 3.24164,2.36178z" fill="#ffffff"/></g><path d="M236.48735,192.84437c0.24268,-0.51498 0.60269,-0.86932 1.01336,-1.17199c0.35767,-0.2636 0.75378,-0.48803 1.14426,-0.74528c0.83885,-0.55265 0.50455,0.97221 0.50455,0.97221c0,0 -0.35272,2.23064 -0.98678,3.23938c-0.43567,0.92751 -2.15423,3.84658 -2.71905,2.70369c-0.77318,-1.56449 1.04366,-4.99801 1.04366,-4.99801z" data-paper-data="{&quot;index&quot;:null}" fill="#54c81c" stroke="none" stroke-width="0" stroke-linecap="butt"/><path d="M240.74527,189.29442c0,0 -1.73232,2.94057 -2.29123,4.0754c-0.37809,0.76769 -0.93318,2.01973 -0.93318,2.01973c-0.2071,0.29463 -1.25508,0.94036 -1.24943,0.13196c0.00443,-0.6355 1.04532,-2.74234 1.04532,-2.74234c0,0 1.71791,-2.72257 1.93476,-3.3332c0.74334,-1.90468 -0.82314,-5.74944 -0.82314,-5.74944l1.46933,-0.30568l0.84759,5.90355z" data-paper-data="{&quot;index&quot;:null}" fill="#ffffff" stroke="none" stroke-width="0" stroke-linecap="butt"/><path d="M241.18495,189.2155l-1.17871,-6.29926l1.25826,0.03077c0,0 0.00777,3.68394 0.91631,5.51556c0.2699,0.58911 2.3661,3.40125 2.3661,3.40125c0,0 1.61207,2.04019 1.67256,2.67283c0.07696,0.80474 -0.67343,0.59511 -1.14211,0.21699c-0.46868,-0.37811 -1.09919,-1.65947 -1.61994,-2.42328c-0.63349,-0.92918 -2.27246,-3.11486 -2.27246,-3.11486z" data-paper-data="{&quot;index&quot;:null}" fill="#ffffff" stroke="none" stroke-width="0" stroke-linecap="butt"/><g data-paper-data="{&quot;index&quot;:null}" stroke="none" stroke-width="0.17188" stroke-linecap="butt"><path d="M243.71762,171.97969c0.291,-0.24064 0.81496,0.03993 1.08908,0.31666c0.35488,0.35683 0.81463,0.93821 0.60328,1.38443c-0.32193,0.67897 -1.2624,0.79877 -1.83373,1.31584c-0.90416,0.81794 -3.56736,3.24537 -3.94239,3.20544c-0.37496,-0.03982 1.64225,-2.6984 2.04627,-3.55437c0.51538,-1.03805 1.15748,-1.94002 2.03752,-2.66801z" fill="#319a2b"/><path d="M245.96916,172.1475c0.00136,-0.01011 -0.08556,-1.17175 -0.21094,-1.36184c-0.21082,-0.31999 -0.52199,0.21106 -0.64209,-0.24639c-0.08906,-0.33927 0.17291,-0.59268 0.20334,-0.83138c0.03446,-0.27226 0.49997,-0.47167 0.80112,-0.45805c0.16731,0.00759 0.24903,0.22714 0.26161,0.1876c0.08487,-0.26746 0.42992,-0.42394 0.64937,-0.2819l0.47766,0.30895c0.39067,0.42794 0.73663,1.00218 0.99536,1.253c0.62283,0.55379 0.18031,1.35484 0.26444,1.22226c-0.53087,0.55926 -1.5473,0.93633 -2.40077,0.84074c-0.17285,-0.02513 -0.46408,-0.18673 -0.39911,-0.63297z" fill="#f0e9bb"/><path d="M244.48289,172.50423c-0.11305,-0.24824 -0.93954,-0.29107 -0.69162,-0.24377c0.04964,0.00946 -0.26843,0.0238 -0.22985,-0.1676c0.02551,-0.12577 0.38718,-0.43139 0.46756,-0.56598c0.18558,-0.31088 0.61297,-0.54095 0.87236,-0.77766c0.2442,-0.22272 0.69117,-0.17118 0.84818,-0.1413c0.22703,0.04296 0.22495,0.51612 0.24845,0.96812c0.02855,0.54973 0.18854,0.95937 0.20256,0.9855c0,0 0.29471,0.45778 0.45058,0.4247c-0.5015,0.11542 -0.87634,1.15143 -1.39352,1.22024c-0.27573,0.0204 -0.66317,-1.45715 -0.7747,-1.70224z" fill="#ead42f"/></g><path d="M238.60036,181.63926c-0.26708,-0.38154 -0.30118,-1.68325 -0.30434,-2.50401c-0.00931,-0.71765 0.05758,-1.42384 0.31392,-1.69625c0.07907,-0.08398 1.98561,1.62432 1.96269,1.78226c-0.07242,0.49876 0.4341,0.91373 0.41681,1.22755c-0.02199,0.39718 0.0313,0.09684 -0.18514,0.33966c0,0 -1.88275,1.19376 -2.20394,0.85079z" fill="#319a2b" stroke="none" stroke-width="0.17188" stroke-linecap="butt"/><path d="M240.88801,169.4843c0.28746,-0.0137 0.51457,0.21031 0.70924,0.39409c0.43366,0.45812 0.74111,1.02854 0.94401,1.62283c0.34617,0.98909 0.38464,2.11503 -0.04323,3.08525c-0.25852,0.42655 -0.20944,0.37592 -0.44444,0.80922c-0.26286,0.74245 -0.96205,1.38906 -1.56522,1.83547c-0.47017,0.38806 -0.99992,0.69627 -1.56414,0.92775c-0.37018,0.13652 -0.7402,0.34652 -1.14569,0.32743c-0.37742,-0.02382 -0.77099,-0.1538 -1.01364,-0.45919c-0.63066,-0.70966 -1.26893,-1.41463 -1.8332,-2.17862c-0.14365,-0.21757 -0.33372,-0.43081 -0.37683,-0.69576c0.02546,-0.26434 0.14097,-0.51347 0.21352,-0.76767c0.03876,-0.09274 0.98186,-1.92196 2.32021,-3.00181c1.61288,-1.30136 3.67641,-1.8845 3.79941,-1.89899z" fill="#f0e9bb" stroke="none" stroke-width="0.17188" stroke-linecap="butt"/><path d="M238.64173,166.57404c0.65923,-0.65839 1.27688,-0.94235 1.75963,-0.94904c0.06867,-0.00112 0.06927,0.05105 0.1622,0.06292c0.11249,0.01442 0.36218,-0.02193 0.31072,-0.02057c0,0 0.03185,0.17601 0.08304,0.23194c0.06514,0.07107 0.2289,0.0876 0.14176,0.12387c0,0 0.13323,0.07615 0.15395,0.12443c0.22654,0.52722 0.29627,1.37525 0.04007,2.03076c0.55013,0.19699 -2.83594,-0.92679 -2.65135,-1.60432z" fill="#ed3e67" stroke="none" stroke-width="0.17188" stroke-linecap="butt"/><path d="M234.60728,174.94981l1.31585,1.99782l1.34261,1.39939l1.03483,0.92652c0.12182,0.10879 -1.98851,0.12156 -2.53663,-0.02394c-0.67826,-0.17995 -1.26349,-0.49465 -1.84715,-0.81172c-0.42549,-0.23091 -0.54739,-0.36498 -0.79078,-0.58223l-0.75547,-0.67462c-0.14357,-0.12815 -0.79434,-0.8397 -0.74543,-1.08275c0.0139,-0.06896 0.83264,-0.08389 0.89225,-0.13106l0.43417,-0.34559c0.12891,-0.10241 0.31078,-0.6779 0.35523,-0.85577c0.03258,-0.12988 0.10321,-0.99638 -0.22937,-1.54031l-0.32903,-0.53803c-0.04925,-0.08058 -0.83145,-0.72639 -0.812,-0.76317c0.03987,-0.07597 -1.28528,-0.39145 -1.24638,-0.474c0.21602,-0.45987 0.4684,-1.03031 0.87633,-1.50517c0.64129,-0.74653 1.50051,-1.35469 1.93568,-1.67326c0.07422,-0.05432 1.03345,-0.72778 1.7352,-0.96023c1.11119,-0.36816 2.03754,-0.17461 2.09536,-0.16923c0.90783,0.0842 1.73819,0.35297 2.50143,0.78157l0.56038,0.42664c0.28687,0.21836 1.70258,1.5426 1.95939,2.19439l0.8775,2.22557c0.15376,0.3897 0.43666,2.54458 0.19638,2.58779c-0.33649,0.06084 -1.05843,-0.88815 -1.05346,-0.70907c0.01084,0.39677 0.49585,-1.96288 0.29607,-2.37119c-0.34165,-0.69803 -0.54557,-1.45404 -0.92073,-1.84431c-0.07091,-0.07363 -0.49622,-0.6224 -0.60638,-0.7497c-0.08696,-0.10073 -0.21661,-0.13846 -0.30251,-0.03079c-0.05722,0.07162 -0.29078,0.1117 -0.26974,0.36113l0.06279,0.73946c0.01005,0.11982 0.17597,2.30896 0.04477,2.23142c-0.02433,-0.01447 -0.19241,-0.62831 -0.20589,-0.66732c-0.0813,-0.23609 -0.18617,-0.38887 -0.19555,-0.27529c-0.0247,0.29869 0.06183,0.96971 0.06183,0.96971c0.00537,0.08673 -0.44578,0.36996 -0.80698,0.4859c-0.33604,0.10788 -0.91318,0.03862 -1.05741,0.02286l-1.56773,-0.17209c-1.47225,-0.16124 -1.15613,0.14363 -1.27698,0.08802c-0.00802,-0.09126 -0.67894,0.37876 -0.72579,0.63935c-0.01866,0.1038 -0.12463,0.35525 -0.17941,0.48455c-0.07299,0.17193 -0.12863,0.28307 -0.11718,0.38878z" fill="#54c81c" stroke="none" stroke-width="0.17188" stroke-linecap="butt"/><path d="M230.42762,176.1264c-0.60801,0.19863 -1.3921,0.08951 -1.87861,-0.14577c-0.04459,-0.02148 -0.1142,-0.1473 -0.1142,-0.1473c-0.03412,0.07766 -0.04827,-0.07299 -0.11364,-0.13619c-0.05134,-0.0497 -0.21413,-0.08823 -0.21413,-0.08823c-0.00152,0.04698 0.03359,-0.17905 0.02109,-0.28256c-0.01049,-0.08557 -0.05882,-0.08887 -0.05748,-0.15172c0.00931,-0.44025 0.27579,-0.9889 0.88878,-1.55564c0.80213,-0.74136 2.04388,-0.67829 2.27849,-0.36659c0,0 0.22794,2.53463 -0.8103,2.87399z" fill="#ed3e67" stroke="none" stroke-width="0.17188" stroke-linecap="butt"/><path d="M232.29193,173.33057c0.05634,-0.17247 0.59677,1.27646 0.41556,1.67184c-0.31172,0.67989 -0.09535,0.8449 -0.6474,1.0461c-0.12385,0.04535 -0.45745,0.01784 -0.83381,0.11534c-0.4359,0.11313 -0.87401,0.14407 -0.8067,0.00405l0.37072,-0.88792l0.16052,-1.83299c0.00249,-0.0285 -0.32545,-0.04643 -0.8038,-0.03206c-0.33544,0.01001 -0.80131,0.07295 -1.1308,0.16656c-0.19413,0.05522 -0.02417,-0.34578 0.31219,-0.79085c0.16303,-0.21579 0.32457,-0.46039 0.58127,-0.63183c0.44465,-0.29678 1.12436,-0.04279 1.61133,0.36677c0.4561,0.38351 0.73325,0.91962 0.77091,0.80499z" fill="#54c81c" stroke="none" stroke-width="0.17188" stroke-linecap="butt"/><path d="M232.88558,172.83819c0.7519,0.95461 0.43904,2.53548 0.11226,2.74701l-0.42039,0.45659l-1.00038,0.10732c-0.25617,0.0274 1.00761,-0.66224 1.0557,-1.17481c0.03149,-0.33442 0.04823,-0.58705 0.01453,-0.68472c-0.32261,-0.9304 -0.80972,-1.52317 -1.25858,-1.81048c-0.7053,-0.45147 -1.3245,-0.30035 -1.12908,-0.67431c0.46582,-0.89188 1.80415,-0.00982 2.62594,1.0334z" fill="#ead32e" stroke="none" stroke-width="0.17188" stroke-linecap="butt"/><path d="M238.87751,167.51089c0,0 -0.43483,-0.11082 -0.75563,-0.20722c-0.66921,-0.20109 -1.37108,-0.0967 -1.37045,-0.29471c0.04122,-0.11091 0.53079,-0.31129 0.7214,-0.29038l0.38709,0.04228c0.68072,0.07451 1.24823,0.50026 1.40958,0.72807c0.06981,0.09853 0.3043,0.1978 0.35034,0.33125c0,0 -0.51327,-0.1373 -0.74232,-0.30929z" fill="#ead32e" stroke="none" stroke-width="0.17188" stroke-linecap="butt"/><path d="M237.77954,166.67168c0,0 0.84099,-0.67458 1.17463,-0.55263c0.22167,0.08088 0.36861,0.56816 0.57837,0.59834c0.26045,0.03749 0.75936,0.23872 1.08106,0.42086c0.22177,0.22099 0.48912,0.39115 0.59095,0.74723c0.22657,0.21123 -0.04255,1.11575 -0.12477,1.05243l-1.11762,-0.86062c-0.28356,-0.21839 -0.8768,-0.64719 -1.01001,-0.72449z" fill="#54c81c" stroke="none" stroke-width="0.17188" stroke-linecap="butt"/><g stroke="none" stroke-linecap="butt"><path d="M239.34348,177.68973c0.12366,-0.13587 0.34098,-0.07876 0.59215,0.12311c0.25117,0.20188 0.53641,0.54862 0.79568,0.99217c0.25926,0.44345 0.44391,0.90048 0.533,1.2806c0.08899,0.38013 0.08228,0.68325 -0.04137,0.81912c-0.12356,0.13576 -0.34089,0.07866 -0.59217,-0.12321c-0.25117,-0.20188 -0.5363,-0.54864 -0.79557,-0.99219c-0.25926,-0.44345 -0.44403,-0.90047 -0.533,-1.2806c-0.08909,-0.38012 -0.08227,-0.68326 0.04129,-0.81901z" fill="#eb3d66" stroke-width="0.01872"/><path d="M239.73392,177.95909c0.05807,-0.0598 0.16334,-0.03712 0.28649,0.04789c0.12325,0.08499 0.26435,0.23232 0.39408,0.42173c0.12983,0.1894 0.22377,0.3853 0.27081,0.5488c0.04704,0.16359 0.0472,0.29473 -0.01087,0.35453c-0.05795,0.05988 -0.16325,0.03713 -0.28649,-0.04787c-0.12325,-0.08499 -0.26435,-0.23232 -0.39407,-0.42163c-0.12973,-0.18941 -0.22378,-0.38542 -0.27081,-0.5489c-0.04704,-0.16359 -0.04718,-0.29463 0.01088,-0.35454z" fill="#ffffff" stroke-width="0.01896"/></g><g fill="none" stroke="#000000" stroke-width="0.5" stroke-linecap="round"><path d="M238.87502,175.96668l-1.91667,-0.91667"/><path d="M237.37502,176.38335l1,-1.66667"/></g><g fill="none" stroke="#000000" stroke-width="0.5" stroke-linecap="round"><path d="M242.54168,173.55l-1.91666,-0.91666"/><path d="M241.04169,173.96668l1,-1.66667"/></g><g data-paper-data="{&quot;index&quot;:null}" stroke="none" stroke-width="0.17188" stroke-linecap="butt"><path d="M236.94759,176.00011c0.2686,0.98939 1.92469,2.95516 1.5173,2.92654c-0.4075,-0.02851 -2.02351,-1.05459 -2.83269,-2.0982c-0.51127,-0.65968 -2.14789,-1.96517 -2.3625,-2.75023c-0.1408,-0.51591 0.45969,-1.04876 0.90575,-1.36203c0.34478,-0.24315 0.95671,-0.44305 1.22143,-0.13127c0.80049,0.94313 1.19786,2.2105 1.55071,3.41518z" fill="#319a2b"/><path d="M233.04333,172.31157c-0.0153,0.48818 -0.35652,0.60532 -0.5456,0.59936c-0.92827,-0.05981 -1.94073,-0.65459 -2.40085,-1.35161c0.06458,0.15734 -0.2555,-0.78081 0.51365,-1.25332c0.32345,-0.21844 0.80122,-0.76524 1.29894,-1.14755l0.56796,-0.23892c0.26095,-0.10988 0.59926,0.12238 0.63906,0.42369c0.00591,0.04456 0.13468,-0.1741 0.31454,-0.15047c0.32374,0.04256 0.78238,0.34343 0.76751,0.64031c-0.01278,0.26033 0.21853,0.58022 0.05926,0.92512c-0.21478,0.46508 -0.44597,-0.16023 -0.73143,0.14105c-0.16975,0.17898 -0.4826,1.40125 -0.48307,1.41229z" fill="#f0e9bb"/><path d="M234.56065,172.97368c-0.16539,0.24022 -0.85861,1.74247 -1.14879,1.66843c-0.53849,-0.17141 -0.74184,-1.34725 -1.25479,-1.56539c0.15995,0.0648 0.56101,-0.36751 0.56101,-0.36751c0.01992,-0.0252 0.26817,-0.43173 0.40282,-1.01255c0.11073,-0.47756 0.19819,-0.98253 0.44844,-0.98532c0.17311,-0.00211 0.65952,0.02764 0.87773,0.31144c0.23173,0.30158 0.6439,0.62796 0.78289,0.99466c0.06021,0.15876 0.38798,0.55324 0.39133,0.69219c0.00487,0.21143 -0.33162,0.13586 -0.27688,0.13518c0.27335,-0.00345 -0.61615,-0.11443 -0.78374,0.12886z" fill="#ead42f"/></g><path d="M239.94328,177.57447c0,0.15188 -0.66193,0.45 -0.8,0.45c-0.13807,0 -0.25,-0.12312 -0.25,-0.275c0,-0.15188 0.11193,-0.275 0.25,-0.275c0.13807,0 0.8,-0.05188 0.8,0.1z" fill="#f0e9bb" stroke="none" stroke-width="0" stroke-linecap="butt"/><path d="M238.61664,181.54824c0,0 0.74364,-0.19237 1.22545,-0.43119c0.48181,-0.23881 0.52444,-0.64184 0.79741,-0.44297c0.14096,0.1027 -0.20864,0.65946 -0.70473,0.86698c-0.90156,0.37711 -1.49134,0.35059 -1.49134,0.35059z" data-paper-data="{&quot;index&quot;:null}" fill="#ead42f" stroke="none" stroke-width="0" stroke-linecap="butt"/></g></g></svg>