<svg version="1.1" xmlns="http://www.w3.org/2000/svg" xmlns:xlink="http://www.w3.org/1999/xlink" width="43.00784" height="30.87028" viewBox="0,0,43.00784,30.87028"><g transform="translate(-213.6869,-164.80044)"><g data-paper-data="{&quot;isPaintingLayer&quot;:true}" fill-rule="nonzero" stroke-linejoin="miter" stroke-miterlimit="10" stroke-dasharray="" stroke-dashoffset="0" style="mix-blend-mode: normal"><path d="M230.71698,187.78734l5.19517,-5.74045l0.87024,6.20572c0,0 -5.80371,1.67386 -6.01214,1.77599c-0.68975,0.33797 -1.95398,0.37942 -1.95398,0.37942l-3.9684,-0.12295c0,0 2.86528,-2.01196 4.23276,-2.31592z" data-paper-data="{&quot;index&quot;:null}" fill="#ff3200" stroke="none" stroke-width="0" stroke-linecap="butt"/><path d="M233.37113,184.17997c0,-1.59688 -0.16568,-2.6653 0.74287,-3.63772c0.75815,-0.81145 6.36769,-0.94105 7.13936,-0.05319c0.84121,0.96788 0.75027,2.16304 0.75027,3.69091c0,1.35129 -0.41118,2.29885 -1.08819,3.23544c-0.79065,1.09383 -1.94385,2.06875 -3.22805,2.06875c-2.3838,0 -4.31625,-2.37476 -4.31625,-5.30419z" data-paper-data="{&quot;index&quot;:null}" fill="#ff3200" stroke="none" stroke-width="0" stroke-linecap="butt"/><path d="M237.15647,181.83062c0,0 1.58739,0.933 2.84253,0.59413c1.25513,-0.33888 1.04076,-0.96178 1.04076,-0.96178c0,0 0.17805,1.07641 -0.27413,1.75017c-0.14697,0.21899 -0.36053,0.39544 -0.66841,0.47856c-1.25514,0.33887 -2.94076,-1.86108 -2.94076,-1.86108z" data-paper-data="{&quot;index&quot;:null}" fill="#ffffff" stroke="none" stroke-width="0" stroke-linecap="butt"/><path d="M239.80389,180.02848l5.95124,-2.64906l0.84051,2.86947l-5.41941,1.27989z" data-paper-data="{&quot;index&quot;:null}" fill="#ff3200" stroke="none" stroke-width="0" stroke-linecap="butt"/><path d="M248.79512,179.96423l-1.75625,0.85331c0,0 -1.13419,-0.9513 -1.54584,-1.89343c-0.41167,-0.94213 -0.06164,-2.19847 -0.06164,-2.19847l1.38189,-1.67059l1.81622,-1.8588l2.33591,-0.25338c0,0 1.70509,-1.47523 2.6845,-1.66354c0.97939,-0.1883 3.40753,1.89083 2.99894,4.97014c-0.33715,2.54092 -1.67144,3.98054 -3.25173,4.08476c-1.58029,0.10423 -4.60199,-0.37002 -4.60199,-0.37002z" data-paper-data="{&quot;index&quot;:null}" fill="#dcdcd5" stroke="none" stroke-width="0" stroke-linecap="butt"/><path d="M248.67125,179.65911c0,0 -1.27076,-1.33929 -1.56549,-2.10623c-0.13588,-0.35359 -0.43605,-1.69164 -0.43605,-1.69164" data-paper-data="{&quot;index&quot;:null}" fill="none" stroke="#c1b9a5" stroke-width="1" stroke-linecap="round"/><path d="M251.91975,173.83559c-0.08017,0.1963 2.10713,4.12225 1.86801,4.35885c-0.10614,0.10502 -1.09936,-1.85384 -2.15185,-2.52737c-0.93317,-0.59717 -1.94536,0.08704 -1.94536,0.08704" data-paper-data="{&quot;index&quot;:null}" fill="none" stroke="#c1b9a5" stroke-width="1" stroke-linecap="round"/><path d="M227.52807,175.01688z" fill="#030000" stroke="none" stroke-width="0" stroke-linecap="butt"/><path d="M244.91523,177.75628c-0.42942,2.98914 0.24546,7.27244 0.24546,7.27244c0,0 -2.32844,-1.78339 -2.63655,-3.05454c-0.6706,-2.76672 0.1173,-6.34632 -0.48706,-6.29666c-0.01494,0.00123 -1.53936,0.12304 -3.1958,0.2286c-1.0162,0.06475 -2.08421,-0.52302 -2.87763,0.75673c-1.196,1.9291 -0.30899,8.83148 -0.30899,8.83148l-2.42557,-7.43204c0,0 -0.04342,2.43988 0.08369,3.86665c0.17741,1.99122 0.88109,6.96232 0.88109,6.96232c0,0 -2.38839,-3.92121 -2.94657,-6.54249c-0.67612,-3.17518 -0.82461,-11.16734 -0.82461,-11.16734c0,0 -0.00721,7.76456 0.25554,12.72452c0.26276,4.95996 0.7461,6.1832 0.7461,6.1832c0,0 -2.55538,-4.26323 -3.23937,-7.30642c-0.68398,-3.04318 -1.01453,-7.21343 -1.01453,-7.21343l-1.02423,6.16393c0,0 -0.60147,-3.44512 -0.68431,-5.12193c-0.07887,-1.59634 0.62223,-5.08083 0.62223,-5.08083c0,0 0.7884,-1.87951 1.99252,-3.19565c2.19307,-2.39712 3.39983,-2.05845 3.39983,-2.05845c0,0 3.72785,-1.94553 6.40124,-1.3692c3.28494,0.70818 7.00564,2.78823 7.90893,5.58368c0.79786,2.46916 -0.47974,4.53913 -0.8714,7.26543z" data-paper-data="{&quot;index&quot;:null}" fill="#ff3300" stroke="none" stroke-width="0" stroke-linecap="butt"/><path d="M242.46627,173.45368c1.39849,0.61372 2.31948,0.2827 2.87634,1.99227c0.30631,0.9404 0.04826,2.73026 -1.96434,4.86904c-1.25072,0.28886 -0.98438,1.62149 -3.03007,1.55799c-2.0457,-0.06351 -3.96703,-0.11885 -4.89917,-1.86683c-0.75704,-1.98782 -0.94472,-4.20708 -0.83257,-4.69449c0.38745,-1.68392 0.33009,-2.29939 2.94171,-2.56226c1.95225,-0.19651 3.50961,0.09056 4.9081,0.70428z" data-paper-data="{&quot;index&quot;:null}" fill="#ffbe7e" stroke="none" stroke-width="0" stroke-linecap="butt"/><path d="M244.66543,176.08462c0,0 -0.41927,-0.56217 -0.31857,-0.86959c0.1007,-0.30742 0.76494,-0.46441 0.76494,-0.46441c0,0 1.42689,0.82504 1.45335,1.14699c0.02646,0.32196 -1.89972,0.187 -1.89972,0.187z" data-paper-data="{&quot;index&quot;:null}" fill="#030000" stroke="none" stroke-width="0" stroke-linecap="butt"/><path d="M235.28576,170.20353c0,0 -0.16766,-3.03982 2.1743,-3.01931c4.27737,0.73109 2.97878,4.05781 2.97878,4.05781" data-paper-data="{&quot;index&quot;:null}" fill="none" stroke="#000000" stroke-width="0.5" stroke-linecap="round"/><path d="M242.76478,171.84129c0,0 0.72855,-1.58957 2.26151,-0.95698c1.11911,0.52117 0.55662,2.48226 0.55662,2.48226" data-paper-data="{&quot;index&quot;:null}" fill="none" stroke="#000000" stroke-width="0.5" stroke-linecap="round"/><path d="M239.26275,181.10304c-1.79383,-0.48291 -2.94163,-2.01244 -2.56371,-3.41629c0.37793,-1.40386 2.13848,-2.15044 3.9323,-1.66753c1.79382,0.48291 2.94162,2.01243 2.5637,3.41629c-0.37793,1.40386 -2.13847,2.15044 -3.93229,1.66753z" data-paper-data="{&quot;index&quot;:null}" fill="#000000" stroke="none" stroke-width="0" stroke-linecap="butt"/><path d="M238.60773,180.73842c-1.21204,-0.32629 -1.95125,-1.49475 -1.65106,-2.60983c0.30018,-1.11507 1.52609,-1.75451 2.73813,-1.42822c1.21205,0.32629 1.95125,1.49474 1.65107,2.60982c-0.30018,1.11507 -1.52609,1.75452 -2.73813,1.42823z" data-paper-data="{&quot;index&quot;:null}" fill="#ff0017" stroke="none" stroke-width="0" stroke-linecap="butt"/><path d="M234.89598,181.50317l-9.92476,0.99472l0.28206,-2.42874l8.30483,-0.30578z" fill="#ff3200" stroke="none" stroke-width="0" stroke-linecap="butt"/><path d="M223.18606,183.25207c0,0 -1.29201,2.18289 -5.09001,1.13666c-2.03155,-0.55964 -3.18615,-0.85239 -4.08343,-3.2534c-1.08739,-2.90976 0.81384,-5.47958 1.81054,-5.51524c0.9967,-0.03566 2.93218,2.11754 2.93218,2.11754c0,0 0.66134,0.09384 0.75041,-0.47914c0.17543,-1.12868 -0.55037,-3.05924 0.56896,-2.77954c1.68756,0.42168 2.54005,1.34774 3.19068,2.2329c0.44041,0.59916 0.37622,1.08298 0.61849,1.45898c0.25769,0.39994 1.16825,0.91808 1.16825,0.91808c0,0 0.62232,1.14615 0.43194,2.1565c-0.19037,1.01037 -1.08287,2.19137 -1.08287,2.19137l-1.21513,-0.18469z" fill="#dcdcd5" stroke="none" stroke-width="0" stroke-linecap="butt"/><path d="M223.94806,178.66613c0,0 0.28889,1.40497 0.10917,2.2365c-0.17973,0.83153 -0.8482,2.20285 -0.8482,2.20285" fill="none" stroke="#c1b9a5" stroke-width="1" stroke-linecap="round"/><path d="M221.01291,179.76686c0,0 -0.76614,-0.96351 -1.54199,-0.17263c-0.27998,0.2854 -0.68016,0.20753 -0.88754,0.63373c-0.44077,0.90581 -0.67441,1.99695 -0.76074,1.9435c-0.28601,-0.17708 0.7969,-3.96686 0.67483,-4.14024" fill="none" stroke="#c1b9a5" stroke-width="1" stroke-linecap="round"/><path d="M239.08061,187.07281c0.98058,-0.09218 5.18926,1.91034 5.18926,1.91034l-0.2686,2.05221l-5.37348,-2.31301z" data-paper-data="{&quot;index&quot;:null}" fill="#ff3200" stroke="none" stroke-width="0" stroke-linecap="butt"/><path d="M235.96736,184.24262c0.32713,0.35223 4.11149,5.05056 3.95237,7.46255c-0.15911,2.412 -2.46755,4.62606 -4.69422,3.78276c-1.81947,-0.68906 -4.09087,-3.97447 -5.06517,-5.54177c-0.9743,-1.56729 -1.60419,-2.9415 -1.24955,-4.48467c0.35465,-1.54317 1.06196,-2.62961 2.75716,-3.24315c1.6952,-0.61353 3.46232,1.12294 4.29943,2.02426z" data-paper-data="{&quot;index&quot;:null}" fill="#ff1c00" stroke="none" stroke-width="0" stroke-linecap="butt"/><path d="M237.50784,187.67078c0,0 3.05312,4.45626 0.39637,6.31802c-2.9292,2.25777 -5.76969,-2.87353 -5.76969,-2.87353c0,0 -4.05026,-4.21984 0.00356,-7.08926c2.30091,-1.66332 5.15901,3.68453 5.36975,3.64476z" data-paper-data="{&quot;index&quot;:null}" fill="#1d1a19" stroke="none" stroke-width="0" stroke-linecap="butt"/><path d="M245.91567,183.44683c0.63604,-1.0529 2.01254,-3.1128 3.79715,-2.85731c1.78462,0.2555 2.69834,1.17515 3.35978,2.61377c0.66144,1.43862 0.32457,2.9123 -0.31019,4.64514c-0.63476,1.73285 -2.18958,5.41194 -3.83061,6.45706c-2.00832,1.27902 -4.71922,-0.4186 -5.36614,-2.74765c-0.64692,-2.32906 2.10145,-7.69954 2.35001,-8.11101z" data-paper-data="{&quot;index&quot;:null}" fill="#ff1c00" stroke="none" stroke-width="0" stroke-linecap="butt"/><path d="M251.33691,182.95613c3.259,1.40143 0.40457,6.52797 0.40457,6.52797c0,0 -1.75394,5.73696 -5.08152,4.12295c-2.98019,-1.28178 0.17967,-6.12386 0.17967,-6.12386c0,0 1.90589,-5.687 4.49728,-4.52706z" data-paper-data="{&quot;index&quot;:null}" fill="#1d1a19" stroke="none" stroke-width="0" stroke-linecap="butt"/><path d="M245.79771,189.51985c0,0 -0.98816,-2.744 -1.15352,-2.9304c-0.16535,-0.18638 1.18177,-2.8506 1.18177,-2.8506c0,0 1.70412,0.64362 1.62361,2.14359c-0.08051,1.49998 -1.65186,3.6374 -1.65186,3.6374z" data-paper-data="{&quot;index&quot;:null}" fill="#b29b96" stroke="none" stroke-width="0" stroke-linecap="butt"/></g></g></svg>