<svg version="1.1" xmlns="http://www.w3.org/2000/svg" xmlns:xlink="http://www.w3.org/1999/xlink" width="33.69758" height="38.00489" viewBox="0,0,33.69758,38.00489"><g transform="translate(-221.94115,-161.95266)"><g data-paper-data="{&quot;isPaintingLayer&quot;:true}" fill-rule="nonzero" stroke="none" stroke-linecap="butt" stroke-linejoin="miter" stroke-miterlimit="10" stroke-dasharray="" stroke-dashoffset="0" style="mix-blend-mode: normal"><path d="M240.52568,175.76887c0,0 1.42801,1.9606 0.91953,4.14678c-0.56172,2.41509 -3.75794,5.19171 -3.75794,5.19171l0.29035,-3.54546l-2.96506,-4.18636z" fill="#2095ad" stroke-width="0"/><path d="M238.74208,176.49448c0.26765,-0.05125 1.2206,-0.39035 1.53255,-0.27852c1.00889,0.40885 0.72618,1.43344 0.96408,2.88357c0.07508,0.17335 0.30182,0.54636 0.30182,0.54636c0,0 -0.72769,-0.1573 -1.02562,-0.23995c-0.19301,-0.05355 -0.58817,-0.20773 -0.58817,-0.20773c0,0 -0.41908,0.15498 -0.53342,0.1573c-0.22907,0.00463 -0.93328,0.86877 -0.93328,0.86877l-0.08188,0.16021c0,0 0.10115,-0.43618 0.01708,-0.83331c-0.10074,-0.4759 -0.38838,-0.94639 -0.3687,-1.22596c0,0 0.15283,-1.72297 0.71553,-1.83072z" fill="#09649e" stroke-width="0"/><g><path d="M239.48132,176.64221c0.18003,0.03583 0.36557,0.27566 0.51966,0.63438c0.15419,0.35866 0.27699,0.83608 0.3318,1.34682c0.05485,0.51084 0.03142,0.95916 -0.05075,1.27075c-0.08226,0.31165 -0.22318,0.48667 -0.40323,0.45084c-0.18017,-0.03587 -0.3656,-0.27574 -0.51979,-0.63441c-0.15409,-0.35872 -0.27699,-0.83608 -0.3318,-1.34682c-0.05486,-0.51084 -0.03133,-0.9592 0.05084,-1.2708c0.08216,-0.31159 0.22308,-0.48661 0.40326,-0.45075z" fill="#5ed161" stroke-width="0.01872"/><g data-paper-data="{&quot;index&quot;:null}" fill="#21683c" stroke-width="0.01872"><path d="M239.57154,177.48256c0.09831,0.01957 0.19964,0.15054 0.28379,0.34644c0.08421,0.19587 0.15127,0.45659 0.1812,0.73552c0.02995,0.27898 0.01716,0.52381 -0.02771,0.69397c-0.04492,0.1702 -0.12188,0.26577 -0.22021,0.24621c-0.09839,-0.01959 -0.19966,-0.15059 -0.28387,-0.34647c-0.08415,-0.1959 -0.15127,-0.45659 -0.1812,-0.73552c-0.02996,-0.27897 -0.0171,-0.52384 0.02776,-0.69401c0.04487,-0.17016 0.12183,-0.26574 0.22022,-0.24616z"/></g><path d="M239.4821,177.4159c0.06238,0.01038 0.12128,0.09035 0.16624,0.21128c0.04491,0.12086 0.0758,0.28272 0.08197,0.45661c0.00612,0.17383 -0.01359,0.32718 -0.05048,0.4345c-0.03689,0.10731 -0.09085,0.1686 -0.15314,0.15816c-0.06232,-0.01032 -0.12127,-0.09036 -0.16622,-0.21129c-0.04492,-0.12088 -0.07583,-0.28262 -0.08193,-0.45655c-0.00615,-0.1739 0.01355,-0.32726 0.05045,-0.43456c0.03682,-0.10727 0.0908,-0.16848 0.15314,-0.15817z" fill="#ffffff" stroke-width="0.01896"/></g><path d="M242.03892,172.6145c-0.91298,-1.34877 -5.92054,-7.86268 -5.01657,-8.54933c0.84747,-0.64375 4.42744,1.6963 6.11079,3.99453c1.93538,2.64225 2.89949,5.79893 3.4264,6.49259c0.9852,1.29699 4.19999,2.86984 4.19999,2.86984c0,0 -4.35896,1.77005 -8.72059,-4.80763z" fill="#2095ad" stroke-width="0"/><path d="M240.12935,175.81061c-0.34895,-0.58295 1.00799,-1.17695 1.04608,-1.89419c0.07734,-1.45663 -0.75879,-3.00255 -0.67978,-3.06256c0.11789,-0.08955 2.90458,3.21654 3.5181,3.89281c3.44877,3.80154 3.09931,5.55762 3.09931,5.55762c0,0 -5.17006,-1.4638 -6.98373,-4.49369z" fill="#0d4d58" stroke-width="0"/><path d="M230.42263,172.42399c-0.02563,-0.03374 0.18204,-0.6574 0.26365,-1.45225c0.06788,-0.66137 -0.75173,-1.01965 -0.44774,-1.25056c0.66938,-0.50845 1.76557,-1.77268 1.81251,-1.71089c0.04694,0.06179 0.11761,3.26387 -0.55177,3.77234c-0.66938,0.50845 -1.02972,0.70316 -1.07669,0.64134z" fill="#72878d" stroke-width="0"/><path d="M235.91945,165.98986l-1.49808,0.48255c0,0 -0.98024,-1.04687 -0.70239,-1.48404c1.46123,-2.2992 5.20147,-0.34331 5.20147,-0.34331c0,0 2.7614,2.39698 4.20366,4.94148c1.56979,2.76951 2.00994,8.62962 2.00994,8.62962c0,0 -2.98695,-4.93985 -4.20441,-6.80169c-0.81233,-1.24228 -2.39007,-3.2834 -2.39007,-3.2834z" fill="#2095ad" stroke-width="0"/><path d="M232.84417,164.7699c0,0 -0.33137,-0.87054 0.27783,-1.3333c0.60919,-0.46275 0.83823,-0.30006 0.83823,-0.30006c0,0 1.76604,-1.33591 3.38865,0.26687c0.14129,0.13957 -1.9521,0.47242 -2.31163,0.48619c-0.76446,0.02927 -2.19309,0.88028 -2.19309,0.88028z" fill="#dceef3" stroke-width="0"/><path d="M230.44714,167.37624c-0.14928,-0.19652 0.38246,-1.81566 1.16313,-2.48058c0.51323,-0.43712 0.87806,0.14448 0.87806,0.14448c0,0 -0.12409,0.99204 -0.635,1.38013c-0.51091,0.38809 -1.2569,1.15242 -1.40619,0.9559z" fill="#dceef3" stroke-width="0"/><path d="M232.71894,164.75278c0.90397,-0.68666 1.83683,-0.97993 2.15031,-0.56724c0.31346,0.41267 -0.27334,1.16153 -1.17731,1.84819c-0.90393,0.68664 -1.8539,1.10514 -2.16739,0.69245c-0.31348,-0.41271 0.29041,-1.28674 1.19438,-1.97339z" fill="#e8d548" stroke-width="0"/><path d="M234.39737,165.93354c-0.22792,-0.30006 -0.14344,-1.00256 0.37766,-1.39838c0.52111,-0.39585 1.19688,-0.09043 1.4248,0.20963c0.22792,0.30006 -0.22917,0.21917 -0.75028,0.61501c-0.52111,0.39585 -0.82423,0.8738 -1.05215,0.57374z" fill="#72878d" stroke-width="0"/><path d="M229.6106,172.33232c0,0 -1.64222,-1.0553 -1.57863,-2.47688c0.05099,-1.13938 0.88378,-1.54043 0.88378,-1.54043c0,0 0.05304,-0.65151 0.90836,-1.31035c0.48539,-0.45617 1.92997,-0.46495 2.03911,-0.42353c0.65104,0.24691 -1.22879,0.60974 -1.50811,1.11914c-0.71607,1.30585 -0.74454,4.63208 -0.74454,4.63208z" fill="#dceef3" stroke-width="0"/><path d="M230.44308,172.54183c0,0 -0.73362,-2.59678 -0.26947,-2.94933c0.46416,-0.35258 0.75905,0.69982 0.75905,0.69982l-0.48958,2.24949z" fill="#dceef3" stroke-width="0"/><path d="M232.15297,174.49747c0,0 -1.67351,-4.15757 -1.32254,-4.96307c0.26982,-0.61922 1.58606,-1.63391 1.58606,-1.63391c0,0 1.54981,4.84737 3.72918,7.71646c2.17937,2.86909 3.92897,5.32017 3.92897,5.32017c0,0 -2.78754,-1.10161 -4.34865,-2.37068c-1.56111,-1.26907 -3.573,-4.06899 -3.573,-4.06899z" fill="#2095ad" stroke-width="0"/><path d="M235.29696,169.47641c2.20096,-1.67186 5.09168,-1.50571 6.52582,0.31753c1.76196,2.23997 0.39101,4.69627 -1.59942,6.2476c-1.19674,0.93272 -4.26077,2.18073 -6.23575,-0.17649c-1.78985,-1.61284 -0.89161,-4.71679 1.30934,-6.38865z" fill="#ecdebd" stroke-width="0"/><path d="M239.46273,164.17532l-0.46358,-1.27514c0,0 0.73224,0.17073 1.25614,0.53557c0.52392,0.36485 1.36458,1.28935 1.36458,1.28935z" fill="#dceef1" stroke-width="0"/><path d="M229.75753,170.34514c-0.024,-0.03159 0.0191,-2.38971 0.86367,-3.03126c0.8446,-0.64156 1.94176,-0.35242 1.96575,-0.32082c0.024,0.03159 -0.73734,1.37173 -1.35319,1.83954c-0.61585,0.4678 -1.45225,1.54415 -1.47625,1.51255z" fill="#72878d" stroke-width="0"/><path d="M239.54781,164.99712c-0.32388,-0.42639 -0.27041,-0.94963 -0.27041,-0.94963c0,0 0.83216,0.26103 1.22127,0.38018c0.38911,0.11914 1.27821,0.36421 1.27821,0.36421c0,0 -1.90521,0.63159 -2.22907,0.20523z" fill="#72878d" stroke-width="0"/><path d="M233.21704,175.8656c0,0 -1.56583,-2.04948 -1.63968,-3.46381c-0.07384,-1.41434 0.86098,-3.40676 2.0803,-4.84214c1.21931,-1.43536 2.11115,-0.91633 3.0209,-1.16296c1.70911,-0.46334 3.60033,3.8573 3.60033,3.8573c0,0 -1.99478,1.40955 -2.56448,2.12421c-0.65106,0.81675 -1.01635,2.24847 -1.42221,2.36971c-0.27275,0.08149 -1.09161,-0.51296 -1.09161,-0.51296l0.20224,0.83338c0,0 -1.74874,-0.86623 -2.04978,-0.08273c-0.26348,0.68571 -0.136,0.88001 -0.136,0.88001z" fill="#2195ab" stroke-width="0"/><path d="M236.95366,165.02368c-0.38183,-0.06489 -0.92222,-0.37718 -1.23125,-0.44889c-0.58833,-0.1365 -1.29944,0.27346 -1.29944,0.27346c0,0 0.2298,-1.12602 0.58272,-1.45906c0.35293,-0.33301 1.41919,-0.55369 1.41919,-0.55369c0,0 0.04374,-0.45683 0.65255,-0.71249c0.49653,-0.20853 1.54852,-0.27718 1.78413,0.09525c0.21538,0.34039 0.41429,0.88372 0.51026,1.32206c0.13772,0.62916 0.12058,1.11744 0.12058,1.11744c0,0 -0.75122,0.66967 -2.53878,0.3659z" fill="#dceef3" stroke-width="0"/><path d="M235.57826,165.95306c0,0 0.43527,0.00328 0.68272,0.16067c0.24747,0.15741 0.70745,0.72354 0.70745,0.72354c0,0 -0.33056,-0.08941 -1.18085,-0.07522c-0.73169,0.0122 -1.57708,0.29612 -1.63807,0.21582c-0.13189,-0.17362 1.42872,-1.02479 1.42872,-1.02479z" data-paper-data="{&quot;index&quot;:null}" fill="#0b4754" stroke-width="0"/><path d="M232.39226,168.49853c0.06099,0.08028 -0.23591,0.83959 -0.44393,1.54119c-0.24173,0.81533 -0.29812,1.80347 -0.29812,1.80347c0,0 -0.41457,-0.76416 -0.5494,-1.176c-0.13485,-0.41187 -0.05502,-0.72098 -0.05502,-0.72098c0,0 1.21461,-1.62127 1.34649,-1.44766z" fill="#0b4754" stroke-width="0"/><path d="M232.09672,170.13802c-0.22438,-0.2954 -0.43363,-2.00825 -0.34573,-3.0727c0.06125,-0.74139 0.94269,-0.42594 0.94269,-0.42594c0,0 1.02269,-1.17993 1.47395,-1.11518c0.30589,0.12706 0.45038,0.83986 0.69193,1.39394c0.21714,0.49801 0.66303,0.89436 0.65578,1.07198c-0.04521,1.10698 -0.44103,1.99036 -1.26639,2.6173c-0.82536,0.62694 -1.77156,0.03167 -2.1522,-0.46944z" fill="#dceef3" stroke-width="0"/><path d="M242.30658,173.57364l-2.34274,-3.48228l0.50485,-0.92779l2.6617,3.66331z" fill="#2095ad" stroke-width="0"/><path d="M234.37738,175.878c0.0967,0.09963 -0.58454,0.4266 -0.88243,0.62271c-0.29785,0.19615 -1.1037,0.26063 -1.1037,0.26063c0,0 0.69,-0.24024 1.10611,-0.45341c0.41613,-0.21319 0.83505,-0.4762 0.88002,-0.42991z" data-paper-data="{&quot;index&quot;:null}" fill="#000000" stroke-width="0"/><path d="" fill="#b1a37f" stroke-width="0"/><path d="M240.10911,172.59906c0.21192,-0.16098 0.04517,-0.05201 0.24435,0.21018c0.19915,0.26219 0.17943,0.34771 0.17943,0.34771c0,0 -0.08767,-0.00394 -0.28683,-0.26612c-0.19915,-0.26219 -0.34885,-0.13078 -0.13694,-0.29175z" fill="#d0bf96" stroke-width="0"/><path d="M234.97517,176.13268c0.21192,-0.16098 0.04518,-0.052 0.24433,0.21018c0.19915,0.26216 0.17942,0.34767 0.17942,0.34767c0,0 -0.08767,-0.00391 -0.28682,-0.2661c-0.19915,-0.26219 -0.34885,-0.13078 -0.13693,-0.29176z" fill="#d0bf96" stroke-width="0"/><path d="M235.33979,176.03214c0.21192,-0.16098 0.04517,-0.05201 0.24435,0.21018c0.19915,0.26216 0.17941,0.34768 0.17941,0.34768c0,0 -0.08764,-0.00391 -0.2868,-0.26609c-0.19915,-0.26219 -0.34885,-0.13078 -0.13694,-0.29175z" fill="#d0bf96" stroke-width="0"/><path d="M239.91441,172.92338c0.21192,-0.16098 0.04517,-0.05201 0.24435,0.21018c0.19915,0.26216 0.17942,0.34768 0.17942,0.34768c0,0 -0.08765,-0.00392 -0.28681,-0.26611c-0.19915,-0.26219 -0.34887,-0.13077 -0.13694,-0.29175z" fill="#d0bf96" stroke-width="0"/><path d="M242.82716,172.46308c0,0 -1.82259,-1.6939 -2.54329,-2.31608c-0.52752,-0.45542 -1.38522,-1.07534 -1.38522,-1.07534c0,0 0.15191,-1.16655 0.5784,-1.01894c0.42649,0.1476 2.29845,0.81334 2.96612,1.99729c0.66767,1.18394 0.38399,2.41308 0.38399,2.41308z" fill="#2195ab" stroke-width="0"/><path d="M239.46144,171.55587c0,0 -0.7091,0.27186 -0.99528,0.53709c-0.28618,0.26523 -0.48723,0.98135 -0.48723,0.98135c0,0 -0.03717,-1.02513 0.24901,-1.29036c0.28618,-0.26523 1.2335,-0.22808 1.2335,-0.22808z" fill="#000000" stroke-width="0"/><path d="M240.76727,171.76071c0.36481,-0.29243 0.9573,-0.8336 0.9573,-0.8336c0,0 -0.43906,0.6684 -0.73997,0.85989c-0.30088,0.19153 -1.04477,0.83545 -1.09608,0.70647c-0.02384,-0.05998 0.51389,-0.44036 0.87874,-0.73276z" fill="#000000" stroke-width="0"/><path d="M238.75246,175.23518l1.76383,-1.4214l0.78759,1.11334l-0.84406,0.00949l-1.28362,0.9841z" fill="#000000" stroke-width="0"/><path d="M238.9614,175.23246l1.03838,-0.84913l-0.44313,1.04237l-0.29707,0.27259z" fill="#ffffff" stroke-width="0"/><path d="M239.80068,175.26266l0.37088,-0.98843l0.3057,-0.28153l0.59426,0.80226l-0.69027,0.02316z" fill="#ffffff" stroke-width="0"/><path d="M238.14917,174.22233l-0.03518,-0.34805l1.90524,-1.64776l0.12195,0.35011z" fill="#000000" stroke-width="0"/><path d="M234.36172,176.15051l-0.20958,-0.21105l1.85816,-0.79443l0.23861,0.14777z" data-paper-data="{&quot;index&quot;:null}" fill="#000000" stroke-width="0"/><path d="M234.2483,174.49751c0.32319,-0.21862 1.31322,0.04994 1.31322,0.04994c0,0 -0.74305,0.03351 -1.06624,0.25213c-0.32319,0.21862 -0.7487,0.84765 -0.7487,0.84765c0,0 0.17853,-0.93109 0.50172,-1.14971z" data-paper-data="{&quot;index&quot;:null}" fill="#000000" stroke-width="0"/><g stroke-width="0"><path d="M255.63873,182.82602c0,0 -1.77205,-0.25511 -2.9127,-0.22392c-1.14065,0.03119 -5.37951,0.85912 -5.37951,0.85912c0,0 4.61401,-1.27274 4.89099,-2.34579c0.27702,-1.07319 -3.55616,-2.86889 -2.61509,-2.81837c4.97036,0.26683 6.01628,4.52897 6.01628,4.52897z" fill="#2095ad"/><path d="M238.51274,180.16701c0,0 3.97382,-1.15297 6.60569,-1.75281c3.18904,-0.72682 6.79198,0.25523 7.77567,1.49449c0.98369,1.23925 -3.48894,3.35846 -5.63719,3.43744c-2.32691,0.08555 -8.74416,-3.17912 -8.74416,-3.17912z" fill="#ffffff"/></g><g stroke-width="0"><path d="M235.89554,184.38128c0,0 -2.04511,1.86322 -3.92338,2.95975c-1.03532,0.60441 -2.50494,1.1526 -3.26446,1.58244c-1.28335,0.72624 -1.31021,1.33197 -1.31021,1.33197c0,0 -0.01797,-1.57328 0.12427,-2.26229c0.14223,-0.68902 0.2986,-1.34438 0.55658,-1.29885c0.25798,0.04552 7.8172,-2.31302 7.8172,-2.31302z" fill="#2095ad"/><path d="M227.69886,187.1537c0,0 0.51324,-3.29286 4.71823,-5.50678c3.28657,-1.73036 5.12367,-1.23741 5.73289,-1.64582c0.41163,-0.27594 0.719,-0.43271 0.93904,-0.55944c0.11708,-0.06742 0.1456,-0.63119 0.22078,-0.66892c0.3915,-0.19654 0.34001,0.4736 0.34001,0.4736c0,0 0.02812,2.85024 -5.18169,6.15166c-3.74987,2.37626 -6.76926,1.7557 -6.76926,1.7557z" fill="#ffffff"/></g><g data-paper-data="{&quot;index&quot;:null}" stroke-width="0"><path d="M244.29312,188.40808c0,0 4.60288,0.0194 5.05871,-1.33285c0.46258,-1.37228 -2.35955,-5.3752 -2.35955,-5.3752c0,0 1.84135,0.11907 4.03374,3.15502c1.26825,1.75164 3.06106,6.59734 3.06106,6.59734c0,0 -3.39432,-0.964 -5.67948,-1.13478c-1.89844,-0.14188 -4.11449,-1.90953 -4.11449,-1.90953z" fill="#2095ad"/><path d="M247.11152,181.61889c0.21363,0.10718 3.05729,3.11041 2.6183,5.47908c-0.43866,2.0856 -5.391,1.3306 -5.391,1.3306c0,0 -2.16971,-1.06192 -3.74756,-2.12025c-1.89566,-1.27148 -2.30297,-3.85674 -2.0049,-5.14493c0.29807,-1.28818 0.60176,0.25622 3.27565,-0.45705c2.01465,-0.5374 5.04478,0.80984 5.24953,0.91255z" fill="#ffffff"/></g><g stroke-width="0"><path d="M233.90273,195.58336c0,0 -2.50244,-2.44673 -2.29033,-4.96924c0.16035,-1.90697 1.31729,-4.50871 1.31729,-4.50871l6.63197,2.80427c0,0 -3.12886,2.48721 -4.11729,3.73077c-0.98844,1.24358 -1.54164,2.94288 -1.54164,2.94288z" fill="#2095ad"/><path d="M233.43012,191.04989c-1.78459,-1.14532 -1.08219,-4.03817 -0.50042,-4.94444c0.57738,-0.89944 0.91041,-2.56161 4.51089,-4.22446c2.45562,-1.1341 2.75904,-3.15714 2.75904,-3.15714l1.28561,0.59156c0,0 1.75033,4.42363 0.31265,7.11535c-1.34498,2.51816 -6.65227,5.7201 -8.36775,4.61911z" fill="#ffffff"/></g><path d="M234.15212,199.66733c-0.82064,-1.69738 1.20033,-5.31962 1.20033,-5.31962c0.27068,-0.54416 0.66689,-0.91292 1.11755,-1.22489c0.39248,-0.2717 0.82626,-0.50035 1.25436,-0.7643c0.91966,-0.56702 0.53615,1.05549 0.53615,1.05549c0,0 -0.41274,2.37749 -1.11556,3.43875c-0.48599,0.98011 -2.39334,4.05454 -2.99282,2.81458z" data-paper-data="{&quot;index&quot;:null}" fill="#09649e" stroke-width="0"/><path d="M250.35922,198.41529c-0.27507,1.24482 -2.64194,-1.17848 -3.28681,-1.97487c-0.85693,-0.82781 -1.73294,-2.90934 -1.73294,-2.90934c0,0 -0.68931,-1.40064 0.25738,-1.06467c0.44069,0.1564 0.87897,0.27957 1.28931,0.44997c0.47115,0.19566 0.90546,0.45359 1.26427,0.89559c0,0 2.58535,2.89931 2.2088,4.60332z" fill="#09649e" stroke-width="0"/><path d="M243.13269,190.64895l-2.10098,-5.06222l1.5252,-0.2768c0,0 0.88511,3.45731 2.06244,5.12891c0.35661,0.54105 2.71015,3.50819 2.71015,3.50819c0,0 1.51459,1.79673 1.67089,2.41273c0.19883,0.78358 -0.97318,0.40726 -1.24473,0.17071c0,0 -0.83845,-1.08293 -1.38918,-1.73791c-0.81411,-0.96822 -3.23379,-4.14358 -3.23379,-4.14358z" fill="#ffffff" stroke-width="0"/><path d="M239.98403,189.98332c0,0 -1.49511,3.12652 -1.95041,4.15481c-0.37428,0.84528 -0.76306,2.21942 -1.15576,2.67595c-0.3927,0.45653 -1.09291,0.79821 -1.16252,-0.0072c-0.05472,-0.63315 1.16246,-2.9309 1.16246,-2.9309c0,0 1.83171,-3.82524 1.99079,-4.4534c0.56288,-1.96556 0.53197,-4.95574 0.53197,-4.95574l1.5315,-0.23959l-0.94801,5.75607z" data-paper-data="{&quot;index&quot;:null}" fill="#ffffff" stroke-width="0"/><path d="M240.24827,178.99836c0,0 0.38178,0.30468 0.60242,0.2989c0.22065,-0.00579 0.48499,-0.01272 0.48499,-0.01272l0.4365,0.28963c0,0 -0.61491,0.13426 -0.86422,0.08211c-0.24931,-0.05215 -0.63178,-0.3535 -0.63178,-0.3535z" fill="#2490a6" stroke-width="0"/><path d="M238.20634,180.38949l0.41542,-0.51618c0,0 -0.0043,-0.06035 0.16022,-0.13209c0.16451,-0.07174 0.36824,-0.58825 0.36824,-0.58825l0.09857,0.23656c0,0 -0.11838,0.46342 -0.28359,0.60529c-0.16521,0.14186 -0.75885,0.39468 -0.75885,0.39468z" data-paper-data="{&quot;index&quot;:null}" fill="#2490a6" stroke-width="0"/><path d="M238.05699,180.02316c0,0 0.07962,0.40004 0.17811,0.63977c0.0985,0.23973 0.29355,0.50815 0.29355,0.50815l1.26108,0.31812c0,0 0.63883,-0.33345 0.88673,-0.52691c0.2479,-0.19346 1.03243,-1.69355 1.03243,-1.69355l0.4945,-0.13494c0,0 -0.59992,1.63755 -1.15674,2.08856c-0.55681,0.45101 -1.40423,0.94071 -1.40423,0.94071l-0.12113,0.46008l-0.78534,0.28907l-0.43938,-0.57744l0.10776,-0.4537c0,0 -0.43479,-0.53699 -0.56762,-0.94682c-0.13283,-0.40983 -0.23853,-0.83712 -0.23853,-0.83712z" fill="#eec522" stroke-width="0"/><path d="M221.94115,183.47254z" fill="#2095ad" stroke-width="0"/><g data-paper-data="{&quot;index&quot;:null}" stroke-width="0.17188"><path d="M236.54125,178.18701c0.18204,1.44586 1.96258,-1.27397 1.96258,-1.27397c0,0 0.29597,0.45803 0.1431,2.02647c-0.18413,0.89275 -2.99899,2.85709 -3.66782,1.26752c-0.28453,-0.90149 -0.77416,-1.8054 -0.56877,-2.73281c0.13515,-0.60932 0.93647,-1.32231 1.43855,-1.36733c0.38855,-0.03583 0.63212,1.6021 0.69236,2.08012z" data-paper-data="{&quot;index&quot;:null}" fill="#09649e"/><path d="M235.83215,176.11894c-0.00789,-0.00652 -0.73152,-0.16813 -0.95955,-0.16224c-0.38369,0.0097 -0.14145,0.17728 -0.59398,0.03706c-0.33557,-0.10402 -0.54457,-1.37605 -0.64524,-2.37048c-0.02349,-0.23211 -1.39305,-2.07506 -1.23405,-2.29919c0.23505,-0.33132 1.36824,1.25351 1.56833,1.10897c0.27233,-0.19673 -0.57178,-2.09021 -0.12672,-2.35082c0.53139,-0.31116 0.98374,2.14354 0.98374,2.14354c0,0 0.12682,-2.44544 0.70654,-2.50007c0.61678,-0.01864 -0.06488,2.71491 0.25004,2.72792c0.36115,0.01492 0.95518,-2.26903 1.28543,-1.91079c0.50756,0.36621 -0.22817,2.58245 -0.22817,2.58245c0,0 0.19405,0.20955 0.64625,0.03279c0.57048,-0.223 1.42414,-0.8189 1.39135,-0.52368c-0.17757,1.5989 -1.6957,1.12008 -1.91582,2.1958c-0.10648,0.26381 -0.25976,1.13435 -0.37858,1.28471c-0.1129,0.13363 -0.40459,0.29561 -0.74953,0.00402z" fill="#ebd9bb"/><path d="M236.84318,177.51215c-0.17906,0.24974 -1.71421,-0.09666 -1.71421,-0.09666c-0.29228,-0.08043 -1.00743,0.13925 -0.79046,-0.03851c0.04342,-0.0356 -0.0376,0.24628 -0.17341,0.07698c-0.0891,-0.11137 -0.09211,-0.63763 -0.14966,-0.80207c-0.13295,-0.37977 -0.02471,-0.90826 -0.04181,-1.29816c-0.016,-0.36697 0.33403,-0.42894 0.47137,-0.54156c0.1984,-0.16305 0.4796,-0.1071 0.88189,0.19488c0.48927,0.36731 0.95264,0.52269 0.98495,0.52933c0,0 0.40046,0.07426 0.48331,-0.08226c-0.25885,0.51 0.35781,1.56783 0.04804,2.05803z" fill="#ecc51e"/></g><g data-paper-data="{&quot;index&quot;:null}" stroke-width="0.17188"><path d="M241.75337,178.75491c1.45291,-0.11269 -1.41352,-2.13372 -1.41352,-2.13372c0,0 -0.39522,-0.53857 0.04578,-0.39087c2.21708,-0.1024 5.667,3.59551 3.35151,4.39434c-0.91406,0.2411 -1.8811,0.47415 -2.79762,0.22465c-0.60215,-0.16413 -1.27602,-0.99864 -1.29699,-1.50228c-0.01721,-0.38982 1.63049,-0.55478 2.11085,-0.5921z" data-paper-data="{&quot;index&quot;:null}" fill="#09649e"/><path d="M239.65376,179.3643c-0.0069,0.00757 -0.20291,0.72265 -0.20794,0.95069c-0.00866,0.38372 0.1703,0.14977 0.00861,0.59507c-0.11994,0.33022 -1.4005,0.47816 -2.39862,0.53116c-0.23297,0.01237 -2.13929,1.29224 -2.35556,1.1227c-0.3197,-0.25063 1.3175,-1.30674 1.1827,-1.51352c-0.18347,-0.28143 -2.11517,0.47119 -2.35419,0.01418c-0.28539,-0.54566 2.18813,-0.88012 2.18813,-0.88012c0,0 -2.43657,-0.2436 -2.46343,-0.82526c0.01087,-0.61697 2.7087,0.19462 2.73675,-0.11932c0.03217,-0.36003 -2.22076,-1.06258 -1.84714,-1.37532c0.39005,-0.48947 2.56858,0.35139 2.56858,0.35139c0,0 0.2186,-0.18381 0.06366,-0.64394c-0.19547,-0.5805 -0.74987,-1.46166 -0.45655,-1.41479c1.58858,0.25382 1.03771,1.74731 2.10169,2.01862c0.25843,0.11898 1.12063,0.3137 1.26515,0.43958c0.12808,0.11916 0.27592,0.41825 -0.03182,0.74886z" fill="#ebd9bb"/><path d="M241.09372,178.42105c0.2409,0.19079 -0.17851,1.70762 -0.17851,1.70762c-0.09432,0.28811 0.09093,1.01293 -0.07625,0.78772c-0.03349,-0.04507 0.2442,0.04934 0.0686,0.17688c-0.11551,0.08367 -0.64131,0.06152 -0.80831,0.11113c-0.3857,0.11462 -0.90841,-0.01875 -1.29867,-0.02031c-0.36732,-0.00157 -0.41247,-0.35416 -0.5184,-0.49672c-0.15338,-0.20597 -0.08405,-0.48416 0.23682,-0.87156c0.39028,-0.47115 0.56764,-0.92656 0.57582,-0.95851c0,0 0.09332,-0.39644 -0.05907,-0.48669c0.49705,0.28295 1.58315,-0.28243 2.05797,0.05042z" fill="#ecc51e"/></g><path d="M239.9375,172.6875c0,-0.16108 0.13058,-0.29167 0.29167,-0.29167c0.16108,0 0.29167,0.13058 0.29167,0.29167c0,0.16108 0.2845,0.52116 0.25,0.625c-0.03341,0.10057 -0.83333,-0.46392 -0.83333,-0.625z" fill="#8484ff" stroke-width="0"/><path d="M240.89583,173.45833c0,-0.08054 0.06529,-0.14583 0.14583,-0.14583c0.08054,0 0.14583,0.06529 0.14583,0.14583c0,0.08054 -0.06529,0.14583 -0.14583,0.14583c-0.08054,0 -0.14583,-0.06529 -0.14583,-0.14583z" fill="#8484ff" stroke-width="0"/></g></g></svg>