<svg version="1.1" xmlns="http://www.w3.org/2000/svg" xmlns:xlink="http://www.w3.org/1999/xlink" width="149.72432" height="27.14065" viewBox="0,0,149.72432,27.14065"><g transform="translate(-183.51624,-165.48801)"><g data-paper-data="{&quot;isPaintingLayer&quot;:true}" fill-rule="nonzero" stroke="none" stroke-linecap="butt" stroke-linejoin="miter" stroke-dasharray="" stroke-dashoffset="0" style="mix-blend-mode: normal"><path d="M315.32013,188.33228v4.17519c0,0 4.83804,0.07735 9.33535,-4.40821c3.99163,-3.9812 3.50888,-9.30985 3.50888,-9.30985h-3.74747c0,0 0.43347,3.3042 -2.5829,6.51835c-2.78578,2.96849 -6.51386,3.02453 -6.51386,3.02453zM314.72265,169.12922c-5.3938,0 -9.76634,4.32501 -9.76634,9.66018c0,5.33517 4.37254,9.66018 9.76634,9.66018c5.3938,0 9.76633,-4.32501 9.76633,-9.66018c0,-5.33517 -4.37253,-9.66018 -9.76633,-9.66018zM314.34126,165.49143c0.25347,-0.00497 0.50706,-0.005 0.76046,0.00318c3.69076,0.08579 7.29464,1.79855 9.72241,4.57405c2.4449,2.74507 3.66886,6.52188 3.31366,10.17921c-0.30898,3.56037 -2.12119,6.94909 -4.89086,9.20272c-2.65993,2.20107 -6.18766,3.30281 -9.62697,3.01688c-3.35658,-0.24746 -6.58378,-1.82272 -8.85824,-4.30138c-2.36806,-2.53511 -3.67593,-6.013 -3.58443,-9.47921c0.05408,-3.13813 1.26762,-6.22873 3.33963,-8.58289c2.43698,-2.82469 6.09613,-4.53663 9.82434,-4.61268z" fill="#ff0000" stroke-width="0.26459" stroke-miterlimit="4"/><path d="M326.44724,188.22351l-7.2565,-9.418h14.04982z" fill="#ff0000" stroke-width="0" stroke-miterlimit="10"/><g fill="#ff0000" stroke-width="0.26459" stroke-miterlimit="10"><path d="M183.51624,192.24445v-24.20513h13.30234c5.42953,0 8.14429,2.11314 8.14429,6.33944v1.15262c0,3.07367 -1.1764,5.09077 -3.5292,6.05128c0.72394,0.3842 1.44788,1.24867 2.17181,2.5934l2.17182,8.06837h-8.1443l-1.62886,-6.6276c-0.36196,-1.72893 -1.35738,-2.5934 -2.98624,-2.5934h-1.62886v9.221zM194.64677,177.83664c1.44788,0 2.17182,-0.76842 2.17182,-2.30526v-1.15262c0,-1.15262 -0.72394,-1.72894 -2.17182,-1.72894h-3.25771v5.18681z"/><path d="M208.49206,192.24445v-24.20513h19.00334v6.91574h-10.85905v1.72893h10.85905v6.91576h-10.85905v1.72893h10.85905v6.91574z"/><path d="M232.38198,192.24445c-0.90492,-0.19211 -1.62885,-0.3842 -2.17181,-0.57631l1.0859,-5.76313l3.25772,0.28815c2.53378,0.19211 4.5246,0.19211 5.97248,0c0.72393,-0.3842 1.0859,-0.96052 1.0859,-1.72894c-0.18099,-0.76842 -1.80984,-1.15262 -4.88656,-1.15262c-2.71477,-0.3842 -4.61511,-1.44079 -5.701,-3.16972c-0.54296,-1.34473 -0.81442,-2.88157 -0.81442,-4.6105c0,-2.68946 0.90492,-4.70655 2.71477,-6.05128c1.26689,-0.96052 3.5292,-1.44078 6.78691,-1.44078c3.25771,0 6.51542,0.28815 9.77315,0.86446l-1.08591,5.47498c-3.80067,-0.19211 -6.42494,-0.28816 -7.87281,-0.28816c-1.26689,0.19211 -1.90033,0.67236 -1.90033,1.44078c-0.18099,1.34473 0.81443,2.01709 2.98624,2.01709c3.07674,0 5.33903,0.57632 6.78691,1.72894c1.0859,0.96052 1.62886,2.5934 1.62886,4.89866c0,1.99788 -0.45246,3.72682 -1.35738,5.18681c-0.90492,1.72893 -3.16722,2.78551 -6.78691,3.16972c-3.07674,0.19211 -6.24395,0.09605 -9.50167,-0.28816z"/><path d="M252.7427,192.24445v-24.20513h19.00335v6.91574h-10.85905v1.72893h10.85905v6.91576h-10.85905v1.72893h10.85905v6.91574z"/><path d="M280.97625,192.24445v-16.71306h-6.51544v-7.49206h20.6322v7.49206h-6.51544v16.71306z"/></g><path d="M185.78896,192.27997v-21.96791h12.81462c5.23046,0 7.84568,1.91783 7.84568,5.7535v1.04609c0,2.78958 -1.13327,4.62024 -3.3998,5.49198c0.6974,0.34869 1.39479,1.13326 2.09218,2.3537l2.09219,7.32263h-7.84569l-1.56914,-6.01503c-0.34869,-1.56913 -1.30761,-2.3537 -2.87675,-2.3537h-1.56914v8.36873zM196.5114,179.20383c1.39479,0 2.09219,-0.6974 2.09219,-2.09219v-1.04609c0,-1.04609 -0.6974,-1.56914 -2.09219,-1.56914h-3.13827v4.70741z" fill="#71ff33" stroke-width="0.26459" stroke-miterlimit="10"/><path d="M209.84906,192.27997v-21.96791h18.30659v6.27654h-10.46091v1.56913h10.46091v6.27655h-10.46091v1.56913h10.46091v6.27654z" fill="#71ff33" stroke-width="0.26459" stroke-miterlimit="10"/><path d="M232.86306,192.27997c-0.87174,-0.17435 -1.56913,-0.34869 -2.09218,-0.52304l1.04609,-5.23046l3.13828,0.26152c2.44088,0.17435 4.35871,0.17435 5.7535,0c0.69739,-0.34869 1.04609,-0.87174 1.04609,-1.56914c-0.17435,-0.6974 -1.74348,-1.04609 -4.7074,-1.04609c-2.61523,-0.34869 -4.4459,-1.30762 -5.49198,-2.87675c-0.52305,-1.22044 -0.78456,-2.61523 -0.78456,-4.18436c0,-2.44088 0.87174,-4.27154 2.61523,-5.49198c1.22044,-0.87174 3.3998,-1.30761 6.53807,-1.30761c3.13827,0 6.27654,0.26152 9.41482,0.78456l-1.0461,4.96894c-3.66132,-0.17435 -6.18937,-0.26153 -7.58416,-0.26153c-1.22044,0.17435 -1.83066,0.61022 -1.83066,1.30761c-0.17435,1.22044 0.78457,1.83066 2.87675,1.83066c2.96393,0 5.14328,0.52305 6.53807,1.56914c1.04609,0.87174 1.56914,2.3537 1.56914,4.44589c0,1.81322 -0.43587,3.38236 -1.30761,4.70741c-0.87174,1.56913 -3.0511,2.52805 -6.53807,2.87675c-2.96393,0.17435 -6.01502,0.08717 -9.1533,-0.26153z" fill="#71ff33" stroke-width="0.26459" stroke-miterlimit="10"/><path d="M252.47727,192.27997v-21.96791h18.3066v6.27654h-10.46091v1.56913h10.46091v6.27655h-10.46091v1.56913h10.46091v6.27654z" fill="#71ff33" stroke-width="0.26459" stroke-miterlimit="10"/><path d="M279.67565,192.27997v-15.16832h-6.27655v-6.79959h19.87573v6.79959h-6.27655v15.16832z" fill="#71ff33" stroke-width="0.26459" stroke-miterlimit="10"/><path d="M315.55545,188.16821v3.65439c0,0 4.23456,0.0677 8.1709,-3.85835c3.49373,-3.4846 3.0712,-8.14858 3.0712,-8.14858h-3.28003c0,0 0.3794,2.89205 -2.26072,5.70528c-2.43829,2.59821 -5.70135,2.64726 -5.70135,2.64726zM315.0325,171.36046c-4.721,0 -8.54813,3.78553 -8.54813,8.45521c0,4.66968 3.82713,8.45521 8.54813,8.45521c4.721,0 8.54812,-3.78553 8.54812,-8.45521c0,-4.66968 -3.82712,-8.45521 -8.54812,-8.45521zM314.69868,168.17643c0.22185,-0.00435 0.44381,-0.00438 0.6656,0.00278c3.23039,0.07509 6.38474,1.57421 8.50968,4.0035c2.13993,2.40266 3.21122,5.70837 2.90033,8.9095c-0.27044,3.11626 -1.8566,6.08229 -4.28079,8.05481c-2.32814,1.92652 -5.41584,2.89083 -8.42614,2.64057c-2.93789,-0.21659 -5.76255,-1.59536 -7.7533,-3.76484c-2.07268,-2.21889 -3.21741,-5.26296 -3.13732,-8.29681c0.04733,-2.74669 1.1095,-5.45178 2.92306,-7.5123c2.133,-2.47235 5.33572,-3.97075 8.59889,-4.03731z" fill="#71ff33" stroke-width="0.26459" stroke-miterlimit="4"/><path d="M325.29461,188.07301l-6.35135,-8.24324h12.2973z" fill="#71ff33" stroke-width="0" stroke-miterlimit="10"/></g></g></svg>