<svg version="1.1" xmlns="http://www.w3.org/2000/svg" xmlns:xlink="http://www.w3.org/1999/xlink" width="29.43741" height="36.04993" viewBox="0,0,29.43741,36.04993"><g transform="translate(-226.92273,-163.4004)"><g data-paper-data="{&quot;isPaintingLayer&quot;:true}" fill-rule="nonzero" stroke-miterlimit="10" stroke-dasharray="" stroke-dashoffset="0" style="mix-blend-mode: normal"><g stroke-linejoin="miter"><path d="M234.65238,198.89741c0,0 2.14416,-0.39518 3.11402,-0.77799c0.78609,-0.31028 1.76127,-4.38134 1.76127,-4.38134c0,0 1.23931,0.62369 0.50401,1.9568c-0.20679,0.37492 -0.33746,1.026 -0.88508,1.80776c-0.54762,0.78176 -1.10333,1.45232 -1.94451,1.72659c-0.84117,0.27427 -2.36169,0.31088 -3.09489,0.01052c-1.01108,-0.4433 -0.6629,-0.68233 -0.6629,-0.68233z" fill="#947043" stroke="none" stroke-width="0" stroke-linecap="butt"/><path d="M236.55291,191.89931l3.03235,0.10911l0.01966,0.72169l-0.18937,0.03811c0,0 0.19545,0.22134 0.20714,0.29711c0.05116,0.33191 -0.09077,0.28488 -0.09077,0.28488c0,0 0.19741,0.57806 0.3142,0.95508c0.11683,0.37701 -0.49235,1.84095 -0.5192,1.89594c-0.23311,0.47767 -0.50597,1.2418 -1.05028,1.88412c-0.45863,0.54119 -1.6521,0.96166 -2.53129,1.0748c-1.15985,0.02271 -2.40495,-0.49244 -2.40495,-0.49244c0,0 0.11519,-1.59685 0.62495,-2.53951c0.64043,-0.77615 0.89467,-1.16272 1.13335,-1.52057c0.19397,-0.29084 0.59899,-1.10178 0.59899,-1.10178l0.08755,-0.41263l0.21943,-0.28796z" fill="#20201f" stroke="none" stroke-width="0" stroke-linecap="butt"/><path d="M238.82941,192.44122c0,0 0.18877,0.59228 0.29528,1.04269c0.13497,0.57078 0.42762,2.03895 0.42762,2.03895" fill="none" stroke="#c8c7c6" stroke-width="0.125" stroke-linecap="round"/><path d="M239.91863,190.60771c-0.13909,0.73066 0.01682,0.972 -0.36954,1.36873c-0.38635,0.39672 -0.83251,0.5354 -1.43734,0.48665c-1.07827,-0.21145 -1.38957,-0.34978 -1.75307,-0.71759c-0.1192,-0.18262 -0.22753,-1.26006 0.02375,-1.91395c0.06588,-0.17147 1.01045,-0.93696 1.7406,-0.77668c0.73015,0.16026 1.97047,0.63444 1.79561,1.55286z" fill="#c274a1" stroke="none" stroke-width="0" stroke-linecap="butt"/><path d="M239.89006,190.66329c-0.13912,0.73067 -1.46536,0.54881 -1.83829,0.44693c-0.45479,-0.12422 -1.94917,-0.56923 -1.69792,-1.22313c0.06587,-0.17147 1.01045,-0.93696 1.74061,-0.77668c0.73015,0.16026 1.97046,0.63444 1.79561,1.55286z" fill="#cacacd" stroke="none" stroke-width="0" stroke-linecap="butt"/><path d="M235.93329,198.42251c-0.03334,0.22899 0.17839,0.33026 0.07271,0.49179c-0.17713,0.27071 -0.39419,0.21636 -0.45185,0.18671c-0.09208,-0.04737 -0.09919,-0.36956 0.0443,-0.73026c0.1435,-0.36071 0.30838,-0.77515 0.30838,-0.77515c0,0 0.05978,0.59792 0.02646,0.82692z" fill="#c8c7c6" stroke="none" stroke-width="0" stroke-linecap="butt"/><path d="M233.79235,196.47489c0,0 0.4865,-1.03742 1.70087,-0.62975c1.72926,0.58053 1.68668,2.7328 1.68668,2.7328" fill="none" stroke="#c8c7c6" stroke-width="0.125" stroke-linecap="round"/><path d="M234.0093,197.24229c0,0 -0.02849,0.44513 -0.05328,0.83252c-0.0248,0.38741 -0.16919,0.67552 -0.27269,0.67889c-0.06483,0.00212 -0.28423,-0.04173 -0.32837,-0.36223c-0.02633,-0.19123 0.20838,-0.19206 0.27633,-0.41328c0.06795,-0.2212 0.37804,-0.73591 0.37804,-0.73591z" data-paper-data="{&quot;index&quot;:null}" fill="#c8c7c6" stroke="none" stroke-width="0" stroke-linecap="butt"/></g><path d="M240.13462,184.52269l-0.75119,3.38083l-0.6004,2.16417c0,0 -0.38128,0.18657 -0.63518,0.25434c-0.25388,0.06776 -0.62545,-0.01434 -0.62545,-0.01434l0.48919,-2.2522l0.8595,-3.64726z" fill="#20201f" stroke="none" stroke-width="0" stroke-linecap="butt" stroke-linejoin="miter"/><g stroke-linejoin="miter"><path d="M250.745,193.92119c0,0 0.08249,-2.17873 -0.07937,-3.20876c-0.13118,-0.83489 -3.89113,-2.67534 -3.89113,-2.67534c0,0 0.87921,-1.07323 2.01962,-0.06462c0.32073,0.28365 0.92758,0.55331 1.57092,1.2584c0.64334,0.70508 1.1764,1.39378 1.26041,2.27454c0.08401,0.88076 -0.21224,2.37258 -0.66543,3.02253c-0.65335,0.88992 -0.8106,0.49794 -0.8106,0.49794l0.59554,-1.10473z" fill="#947043" stroke="none" stroke-width="0" stroke-linecap="butt"/><path d="M244.33067,190.53867l0.7685,-2.93539l0.70858,0.13835l-0.00416,0.19313c0,0 0.25869,-0.14241 0.33517,-0.13727c0.33506,0.02255 0.25819,0.15077 0.25819,0.15077c0,0 0.60723,-0.06644 1.00064,-0.0981c0.39341,-0.03169 1.68903,0.8824 1.73685,0.9206c0.41525,0.33178 1.10138,0.76486 1.60937,1.43629c0.428,0.56573 0.57778,1.82218 0.49622,2.70489c-0.23107,1.13684 -1.00563,2.23943 -1.00563,2.23943c0,0 -1.53318,-0.46104 -2.3418,-1.16431c-0.61761,-0.79442 -0.93933,-1.12695 -1.23647,-1.43799c-0.24147,-0.2528 -0.94442,-0.82508 -0.94442,-0.82508l-0.38357,-0.17551l-0.2331,-0.277z" fill="#20201f" stroke="none" stroke-width="0" stroke-linecap="butt"/><path d="M245.35651,188.43537c0,0 0.61919,-0.05491 1.08199,-0.06049c0.58646,-0.00706 2.08314,0.02786 2.08314,0.02786" fill="none" stroke="#c8c7c6" stroke-width="0.125" stroke-linecap="round"/><path d="M243.80504,186.97212c0.68266,0.29527 0.95222,0.19581 1.25503,0.65944c0.30281,0.46365 0.34071,0.92932 0.16109,1.50891c-0.44176,1.00608 -0.64472,1.27969 -1.08302,1.55411c-0.20423,0.07643 -1.27932,-0.05306 -1.86259,-0.44102c-0.15293,-0.10173 -0.69375,-1.19063 -0.37793,-1.86818c0.31581,-0.67753 1.04934,-1.78442 1.90742,-1.41326z" fill="#c274a1" stroke="none" stroke-width="0" stroke-linecap="butt"/><path d="M243.85303,187.01217c0.68267,0.29527 0.21565,1.54983 0.03481,1.89153c-0.22052,0.4167 -0.98106,1.77789 -1.56433,1.38991c-0.15294,-0.10173 -0.69375,-1.19063 -0.37795,-1.86819c0.31581,-0.67753 1.04935,-1.78441 1.90742,-1.41326z" fill="#cacacd" stroke="none" stroke-width="0" stroke-linecap="butt"/><path d="M250.56119,192.5675c0.21618,0.08253 0.36124,-0.10198 0.49581,0.0364c0.22549,0.23194 0.1251,0.4319 0.08355,0.48173c-0.06632,0.07953 -0.38227,0.01611 -0.70297,-0.20267c-0.32066,-0.21879 -0.6891,-0.47019 -0.6891,-0.47019c0,0 0.59654,0.07216 0.81274,0.1547z" fill="#c8c7c6" stroke="none" stroke-width="0" stroke-linecap="butt"/><path d="M249.14007,193.82405c0,0 0.41924,0.15226 0.78413,0.28477c0.36489,0.13253 0.60088,0.35196 0.57508,0.45223c-0.01617,0.06281 -0.11983,0.2611 -0.43981,0.2135c-0.19094,-0.02838 -0.12588,-0.25389 -0.31913,-0.38119c-0.19325,-0.12727 -0.60024,-0.56935 -0.60024,-0.56935z" data-paper-data="{&quot;index&quot;:null}" fill="#c8c7c6" stroke="none" stroke-width="0" stroke-linecap="butt"/><path d="M248.19313,194.23157c0,0 -0.90619,-0.70126 -0.24322,-1.79732c0.94407,-1.56081 3.03513,-1.04934 3.03513,-1.04934" fill="none" stroke="#c8c7c6" stroke-width="0.125" stroke-linecap="round"/><g fill="#83c4ac" stroke="none" stroke-width="0" stroke-linecap="butt"><path d="M246.32333,189.23338c-0.06868,0.11257 -0.75439,0.23343 -0.75439,0.23343l-0.03232,-1.03357l0.18566,-0.10957c0,0 0.65928,0.81428 0.60107,0.90969z"/><path d="M245.45595,187.53148c0.11524,-0.06411 0.63654,0.08136 0.63654,0.08136l-0.3141,0.7525l-0.26751,0.11157c0,0 -0.1526,-0.89108 -0.05494,-0.94543z" data-paper-data="{&quot;index&quot;:null}"/><path d="M247.39208,189.03845c-0.04763,0.12296 -0.70105,0.36348 -0.70105,0.36348l-0.25034,-0.98421l0.19857,-0.16799c0,0 0.7932,0.68449 0.75287,0.78872z"/><path d="M246.11406,187.54428c0.09337,-0.09317 0.63455,-0.09547 0.63455,-0.09547l-0.09674,0.80966l-0.22692,0.18036c0,0 -0.39007,-0.81558 -0.31094,-0.89453z" data-paper-data="{&quot;index&quot;:null}"/><path d="M248.17379,188.97566l-0.88818,-0.40649c0,0 -0.3874,-0.01981 -0.39595,-0.19121c-0.00853,-0.17139 0.38354,-0.05819 0.38354,-0.05819l0.88192,-0.03911l0.25894,0.29996z"/></g></g><path d="M242.87918,184.33563l-1.45742,2.44027l0.75109,0.37282l1.17832,0.66415c0,0 0.08554,0.4317 0.03601,0.70118c-0.04956,0.26949 -0.30664,0.77049 -0.30664,0.77049l-1.56253,-0.91043c0,0 -0.99236,-0.55314 -1.61221,-0.93054c-0.55088,-0.33538 1.75426,-3.37735 1.75426,-3.37735z" fill="#20201f" stroke="none" stroke-width="0" stroke-linecap="butt" stroke-linejoin="miter"/><g stroke="none" stroke-width="0" stroke-linecap="butt" stroke-linejoin="miter"><path d="M233.87779,173.45784c0.58338,0.61929 1.39882,1.78714 1.39882,1.78714l-1.02712,2.22994c0,0 -0.28038,0.23188 -0.84185,0.23717c-0.36463,0.00345 -0.8847,-0.30055 -0.8847,-0.30055c0,0 0.35029,0.61855 -0.18166,0.84235c-0.34153,0.1437 -1.18367,-0.57817 -1.41617,-0.90106c-0.13688,-0.19007 -0.26172,-0.60333 -0.20873,-0.93593c0.03343,-0.2098 0.23812,-0.41968 0.23812,-0.41968c0,0 -0.27647,-0.25562 -0.03066,-0.57309c0.07531,-0.09728 0.15082,-0.25149 0.15082,-0.25149c0,0 -0.14024,-0.24442 -0.15919,-0.39455c-0.01894,-0.15011 0.08083,-0.37923 0.08083,-0.37923l0.36699,-0.20323c0,0 -0.05014,-0.53865 -0.00559,-0.6402c0.17482,-0.39849 0.6572,-0.38598 0.91615,-0.38093c0.47411,0.00923 1.51099,0.18466 1.60394,0.28334z" fill="#20201f"/><path d="M237.77708,176.68647c0.85173,0.19635 2.12738,0.54677 3.16371,1.00636c0.34317,0.15219 0.36002,0.36098 0.2934,0.55598c-0.09917,0.29027 -0.31094,0.39109 -0.59907,0.30561c-1.1499,-0.34112 -2.16152,-0.61835 -2.96736,-0.80412c-0.49128,-0.11325 -2.11596,-0.38199 -2.11596,-0.38199l-0.22961,-1.32851c0,0 1.23717,0.36594 2.4549,0.64665z" fill="#fed5c7"/><path d="M236.50653,175.01705c0.64515,0.68169 0.54938,1.72029 0.00933,2.64135c-0.54004,0.92106 -1.49106,1.66079 -2.11993,0.9584c-0.62889,-0.70239 -0.75472,-2.17844 -0.0735,-3.34029c0.68121,-1.16185 1.53896,-0.94116 2.18411,-0.25946z" fill="#20201f"/><path d="M232.54349,177.24512c0,0 0.51299,0.53543 0.03264,0.89832c-0.30841,0.233 -0.81352,0.05675 -1.13151,-0.21c-0.1872,-0.15704 1.09887,-0.68832 1.09887,-0.68832z" fill="#c0c2c6"/><path d="M232.80448,175.8545c0,0 0.51299,0.53543 0.03264,0.89832c-0.30841,0.233 -0.81352,0.05675 -1.13151,-0.21c-0.1872,-0.15704 1.09887,-0.68832 1.09887,-0.68832z" fill="#c0c2c6"/><path d="M233.08196,174.61236c0,0 0.51299,0.53543 0.03264,0.89832c-0.30841,0.233 -0.81352,0.05675 -1.13151,-0.21c-0.1872,-0.15704 1.09887,-0.68832 1.09887,-0.68832z" fill="#c0c2c6"/><path d="M234.7236,175.07521c0,0 0.28141,0.68604 -0.29841,0.84793c-0.3723,0.10395 -0.77785,-0.24494 -0.97613,-0.60957c-0.11673,-0.21466 1.27456,-0.23838 1.27456,-0.23838z" fill="#c0c2c6"/><path d="M233.45456,173.74867c0,0 0.51299,0.53543 0.03264,0.89832c-0.30841,0.233 -0.81352,0.05675 -1.13151,-0.21c-0.1872,-0.15704 1.09887,-0.68832 1.09887,-0.68832z" fill="#c0c2c6"/><g><path d="M238.26259,176.63129l1.09274,0.34547l-0.29248,1.41205l-1.09729,-0.31152z" fill="#83c4ac"/><path d="M240.56773,176.90456c0.63441,0.18327 1.04491,0.78837 0.90809,1.38837c-0.13681,0.6 -0.76519,0.95119 -1.40354,0.78442c-1.13486,-0.29649 -1.23075,-0.81322 -1.09396,-1.41322c0.13681,-0.6 0.53174,-1.06509 1.58938,-0.75956z" fill="#20201f"/><path d="M236.97744,175.90663l1.32364,0.69527l-0.30156,1.47993l-1.56382,0.0673l-0.02945,-0.66222l0.27975,-1.10733z" fill="#bebec0"/></g></g><g data-paper-data="{&quot;index&quot;:null}" stroke-width="0" stroke-linecap="butt" stroke-linejoin="miter"><g data-paper-data="{&quot;index&quot;:null}"><path d="M233.71129,166.39634c0.18661,-1.04696 1.18976,-1.74386 2.24057,-1.55656c1.05082,0.1873 1.75138,1.18787 1.56477,2.23482c-0.18661,1.04696 -1.18974,1.74386 -2.24055,1.55657c-1.05082,-0.1873 -1.7514,-1.18787 -1.56479,-2.23482z" fill="#c2e266" stroke="none"/><path d="M234.25732,167.13881c0.11528,-0.64681 0.73501,-1.07737 1.38421,-0.96164c0.64921,0.11572 1.08201,0.73385 0.96672,1.38068c-0.11528,0.64681 -0.73501,1.07737 -1.38421,0.96164c-0.64921,-0.11572 -1.08201,-0.73386 -0.96672,-1.38068z" fill="#c2e266" stroke="#000000"/><path d="M233.25885,170.70906c-0.15771,-1.07787 0.8086,-2.0202 0.8086,-2.0202l2.07319,0.35441c0,0 0.11523,0.22676 0.21419,1.56712c0.10274,1.39173 -1.84108,2.54567 -1.84108,2.54567c0,0 -1.09718,-1.36913 -1.2549,-2.447z" fill="#e8edf4" stroke="#000000"/><path d="M235.09329,169.10041c-0.50371,-0.08748 -1.29684,-0.52377 -1.29684,-0.52377l0.334,-0.63263c0,0 0.54777,0.50848 0.99035,0.61352c0.44258,0.10504 1.12925,-0.11045 1.12925,-0.11045l0.19198,0.53185c0,0 -0.77321,0.22142 -1.34875,0.12147z" fill="#dbded5" stroke="#000000"/></g><g data-paper-data="{&quot;index&quot;:null}" stroke="none"><path d="M240.39838,173.85708c0.19805,0.0353 0.29921,0.39719 0.22594,0.8083c-0.07328,0.41112 -0.29323,0.71576 -0.49129,0.68047c-0.19805,-0.0353 -0.29923,-0.3972 -0.22596,-0.8083c0.07328,-0.41112 0.29324,-0.71576 0.49131,-0.68045z" fill="#000000"/><path d="M240.85635,179.29681c0.20631,0.03678 0.66303,1.03749 0.63078,1.21838c-0.03224,0.18089 -0.59069,1.30788 -0.79699,1.27111c-0.20631,-0.03678 -1.18185,-0.54858 -1.18185,-0.54858c0,0 1.14176,-1.9777 1.34806,-1.94092z" fill="#807d5a"/><path d="M236.64808,168.33705l0.15604,-0.12579l3.75665,6.66021l-0.15447,0.28992z" fill="#6e6e73"/><path d="M238.15042,170.34569l-0.35546,0.26433l-0.91672,-1.54586l0.38533,-0.25901z" fill="#c2e266"/></g></g><g stroke-width="0" stroke-linecap="butt" stroke-linejoin="miter"><g data-paper-data="{&quot;index&quot;:null}"><path d="M253.44725,173.42435c-1.34803,-0.24028 -2.24677,-1.52382 -2.00736,-2.86691c0.23939,-1.34307 1.52623,-2.23708 2.87427,-1.99682c1.34803,0.24028 2.24677,1.52383 2.00736,2.86692c-0.23939,1.34307 -1.52624,2.23708 -2.87427,1.99681z" fill="#c2e266" stroke="none"/><path d="M253.55939,173.31298c-0.83281,-0.14843 -1.38803,-0.94144 -1.24014,-1.77118c0.1479,-0.82976 0.94291,-1.38206 1.77574,-1.23363c0.83281,0.14843 1.38805,0.94141 1.24015,1.77118c-0.1479,0.82976 -0.94292,1.38207 -1.77574,1.23364z" fill="#c2e266" stroke="#000000"/><path d="M254.9547,176.81987c-0.6676,1.22766 -2.93691,2.73754 -2.93691,2.73754c0,0 -1.48693,-2.59866 -0.74641,-4.22853c0.71321,-1.56972 0.95242,-1.79163 0.95242,-1.79163l2.65285,0.49221c0,0 0.74562,1.56272 0.07804,2.79039z" fill="#e8edf4" stroke="#000000"/><path d="M253.45933,174.07024c-0.73716,-0.13476 -1.56982,-0.74403 -1.56982,-0.74403l0.46684,-0.55517c0,0 0.73114,0.56377 1.31048,0.63349c0.57934,0.06971 1.46414,-0.29965 1.46414,-0.29965l0.12169,0.90962c0,0 -1.14816,0.17368 -1.79331,0.05573z" fill="#dbded5" stroke="#000000"/></g><g data-paper-data="{&quot;index&quot;:null}" stroke="none"><path d="M245.78692,180.13518c0.12815,0.45372 -0.34632,2.16494 -0.34632,2.16494l-3.07039,-0.52757c0,0 -0.77337,-1.4472 -0.20939,-2.79285c0.41461,-0.98924 2.16468,-1.99556 2.36299,-1.96632c1.2777,0.18832 1.13496,2.66806 1.26311,3.12179z" fill="#c2e266"/><path d="M245.25446,178.48208c-0.094,0.52738 -0.37616,0.91821 -0.63025,0.87293c-0.25408,-0.04529 -0.38386,-0.50954 -0.28986,-1.03692c0.094,-0.52738 0.37617,-0.91821 0.63026,-0.87292c0.25408,0.04529 0.38384,0.50952 0.28984,1.03692z" fill="#000000"/><path d="M244.90741,184.4237c-0.29386,0.80851 -0.98851,2.06591 -0.98851,2.06591l-1.24705,0.26805c0,0 -1.30491,-0.81602 -1.14413,-1.57014c0.07983,-0.37445 0.80732,-3.27968 0.80732,-3.27968l1.34983,-0.55665c0,0 0.58497,0.15662 0.92481,0.32635c0.33985,0.16973 0.83685,0.60901 0.83685,0.60901c0,0 -0.2453,1.32864 -0.53915,2.13715z" fill="#20201f"/><path d="M242.76485,186.72474c0,0 -1.40122,0.18376 -1.66589,0.13658c-0.26467,-0.04718 -0.43744,-1.65142 -0.39607,-1.88347c0.04136,-0.23205 1.03472,-1.23435 1.29938,-1.18718c0.26467,0.04718 0.76258,2.93405 0.76258,2.93405z" fill="#c274a1"/><path d="M244.37691,179.01179l-0.05744,-0.41747l7.47437,-6.35277l0.13208,0.22061z" fill="#6e6e73"/><path d="M250.97751,172.7529l0.3491,0.48259l-1.78874,1.45465l-0.31075,-0.47578z" fill="#c2e266"/></g></g><g stroke="none" stroke-width="0" stroke-linecap="butt" stroke-linejoin="miter"><path d="M241.53312,182.86399l1.32124,0.16822l1.96492,2.36348l2.60542,0.02238c0,0 -1.83876,0.93703 -2.71776,0.76954c-0.80892,-0.15414 -3.1738,-3.32364 -3.1738,-3.32364z" fill="#f79db4"/><path d="M243.39814,180.28748c0.4991,-0.47695 1.29036,-0.45901 1.76731,0.04009c0.47695,0.4991 0.45902,1.29035 -0.04009,1.7673c-0.4991,0.47695 -1.07286,0.30732 -1.54983,-0.19178c-0.47695,-0.4991 -0.6765,-1.13866 -0.17739,-1.61563z" fill="#83c4ac"/><path d="M236.72503,181.41381c0,0 0.58598,0.31666 0.80734,0.87525c0.31235,0.78826 0.70234,1.26792 3.06566,1.77118c2.1073,0.44875 2.79651,-0.26575 3.35527,-0.61761c0.67762,-0.42671 0.97604,-0.5632 0.97604,-0.5632l1.70524,0.9117c0,0 -0.53389,0.3599 -0.91629,1.14622c-0.34787,0.87942 -1.10923,1.11332 -1.71005,1.04839c-0.57906,0.2797 -1.17814,1.001 -1.94738,0.63924c-0.5987,0.54847 -1.42891,0.45558 -1.99879,-0.0876c-0.65839,0.38638 -1.3144,0.03885 -1.54812,-0.41669c-0.93537,0.09013 -1.49074,-0.43011 -1.64561,-0.97603c-0.92697,-0.31088 -1.28549,-1.18086 -1.27296,-1.93811c-0.8178,-0.6024 -0.87725,-1.54187 -0.87725,-1.54187z" fill="#c0c2c6"/><path d="M240.48819,177.46654l0.36832,0.02724l2.31786,0.3935c0,0 -0.47733,1.34595 -0.29583,2.16408c0.18149,0.81814 0.21778,0.97527 0.69281,1.59631c0.47502,0.62104 1.59611,1.39237 1.59611,1.39237c0,0 -0.53508,0.21603 -0.91135,0.62743c-0.23541,0.25737 -0.24343,0.72913 -0.53007,0.84607c-0.48525,0.19795 -0.84249,-0.18391 -1.58616,-0.12455c-0.39782,0.03176 -0.94682,0.59595 -1.59462,0.53664c-1.1567,-0.10591 -1.37469,-0.8029 -1.97492,-1.2833c-0.28083,-0.22478 -0.93187,0.03395 -1.27962,-0.37211c-0.26136,-0.30517 0.062,-0.63235 -0.04469,-0.92056c-0.17955,-0.48504 -0.67861,-0.86289 -0.67861,-0.86289c0,0 0.62453,-0.23722 1.37377,-0.49288c0.74925,-0.25568 1.55125,-0.73625 1.55125,-0.73625c0,0 0.2362,-0.86217 0.44681,-1.4633c0.21062,-0.60113 0.54893,-1.32779 0.54893,-1.32779z" fill="#20201f"/><path d="M242.93914,182.38192l-0.27916,-0.42312l0.73109,-0.61789c0,0 0.08109,0.12971 0.2416,0.35278c0.14458,0.20094 0.43677,0.48788 0.43677,0.48788l-0.2851,0.25679z" data-paper-data="{&quot;index&quot;:null}" fill="#c274a1"/><path d="M241.74118,182.55875l0.97388,-0.50172l0.22392,0.34099l-0.86431,0.44125z" data-paper-data="{&quot;index&quot;:null}" fill="#c0c2c6"/><path d="M238.20289,181.31667l-0.14235,-0.3563c0,0 0.3889,-0.12837 0.60737,-0.24478c0.24252,-0.12923 0.37257,-0.20978 0.37257,-0.20978l0.38297,0.87728l-0.43735,0.25629z" fill="#c274a1"/><path d="M239.94224,182.66628l-0.9139,-1.08395l0.35151,-0.20702l0.98548,1.18661z" fill="#c0c2c6"/><path d="M243.21559,179.67296c-0.17609,1.99877 -1.61227,1.65368 -1.77357,1.56353c-0.15653,-0.0875 -0.5319,-0.41442 -0.72924,-0.67945c-0.20094,-0.26985 -0.50557,-0.93252 -0.50557,-0.93252l-0.58882,0.59035c0,0 -0.1606,-0.93304 -0.04784,-1.54617c0.25543,-1.38898 0.81266,-1.3542 0.81266,-1.3542l2.60032,0.39433c0,0 0.37631,0.32666 0.23205,1.96411z" fill="#c0c0c3"/><path d="M240.72542,177.95037l-0.46019,-0.65191l1.92408,0.49542z" fill="#222225"/><g><g><path d="M239.74055,183.40523c-0.25973,-0.58088 0.16878,-1.33752 0.95709,-1.68999c0.78833,-0.3525 1.63793,-0.16735 1.89767,0.41352c0.25973,0.58087 -0.16878,1.33752 -0.9571,1.68998c-0.78833,0.3525 -1.63793,0.16735 -1.89767,-0.41352z" fill="#c0c2c6"/><path d="M241.25888,180.83021c0.19171,-0.16166 0.4782,-0.1373 0.63987,0.05442c0.16166,0.19171 0.1373,0.47821 -0.05442,0.63987c-0.19171,0.16166 -0.47821,0.13729 -0.63986,-0.05443c-0.16166,-0.19171 -0.1373,-0.4782 0.05443,-0.63986z" fill="#000000"/><path d="M241.22102,181.09996c0.02655,-0.18635 0.19913,-0.31589 0.38548,-0.28934c0.18635,0.02655 0.31589,0.19913 0.28934,0.38548c-0.02655,0.18635 -0.15285,0.12662 -0.33921,0.10007c-0.18635,-0.02655 -0.36217,-0.00986 -0.33563,-0.19622z" fill="#c478a9"/><path d="M239.27973,182.11498c-0.07191,-0.24026 0.06456,-0.49331 0.30482,-0.56522c0.24026,-0.07191 0.49331,0.06456 0.56522,0.30482c0.07191,0.24026 -0.06455,0.49332 -0.30481,0.56522c-0.24026,0.07191 -0.49331,-0.06456 -0.56522,-0.30482z" fill="#000000"/><path d="M239.51208,182.25717c-0.16035,-0.09859 -0.21041,-0.30848 -0.11183,-0.46884c0.09859,-0.16035 0.30848,-0.21041 0.46884,-0.11183c0.16035,0.09859 0.05525,0.19065 -0.04334,0.35099c-0.09859,0.16035 -0.15332,0.32827 -0.31367,0.22967z" fill="#c478a9"/><path d="M239.93131,182.44621c0.01509,-0.08467 0.21393,-0.28745 0.45293,-0.24485c0.23901,0.0426 0.42891,0.20306 0.41382,0.28769c-0.01509,0.08466 -0.24677,0.26298 -0.48577,0.22038c-0.239,-0.0426 -0.39605,-0.1786 -0.38096,-0.26324z" fill="#000000"/><path d="M241.69157,181.67175c0.07132,0.04803 0.05984,0.25545 -0.07574,0.45682c-0.13559,0.20138 -0.42485,0.24386 -0.49617,0.19584c-0.07132,-0.04803 -0.05457,-0.29607 0.08101,-0.49745c0.13559,-0.20138 0.41959,-0.20325 0.4909,-0.15522z" data-paper-data="{&quot;index&quot;:null}" fill="#000000"/><path d="M240.23428,182.41649c0.01597,-0.08963 0.10158,-0.14933 0.1912,-0.13334c0.08963,0.01597 0.14933,0.10158 0.13335,0.1912c-0.01597,0.08963 -0.10158,0.14933 -0.19121,0.13336c-0.08963,-0.01597 -0.14933,-0.10158 -0.13335,-0.19121z" fill="#ffffff"/><path d="M241.13404,182.06526c0.01687,-0.0946 0.10722,-0.15763 0.20183,-0.14076c0.0946,0.01687 0.15763,0.10722 0.14076,0.20183c-0.01687,0.0946 -0.10722,0.15763 -0.20183,0.14076c-0.0946,-0.01687 -0.15763,-0.10722 -0.14076,-0.20183z" fill="#ffffff"/></g><path d="M241.15195,182.53265c0.02963,0.0587 -0.00763,0.15774 -0.09342,0.20104c-0.08578,0.04329 -0.1876,0.01448 -0.21723,-0.04422c-0.02963,-0.0587 0.28102,-0.21552 0.31065,-0.15682z" fill="#000000"/><path d="M240.6509,182.93641c0.02314,0.07225 -0.06741,0.16585 -0.20227,0.20905c-0.13485,0.0432 -0.26295,0.01968 -0.2861,-0.05257c-0.02314,-0.07225 0.06741,-0.16585 0.20227,-0.20905c0.13485,-0.0432 0.26295,-0.01968 0.2861,0.05257z" fill="#ad597c"/><path d="M242.00681,182.32231c0.02314,0.07225 -0.06741,0.16585 -0.20227,0.20905c-0.13485,0.0432 -0.26295,0.01968 -0.2861,-0.05257c-0.02314,-0.07225 0.06741,-0.16585 0.20227,-0.20905c0.13485,-0.0432 0.26295,-0.01968 0.2861,0.05257z" fill="#ad597c"/></g><g fill="#83c4ac"><path d="M239.34382,179.89117l-0.08336,-0.63086c0,0 0.37543,-0.11984 0.57299,-0.12117c0.18088,-0.00122 0.56678,0.11352 0.56678,0.11352l0.04638,0.19692c0,0 -0.31666,0.10678 -0.50994,0.18418c-0.17177,0.06878 -0.59285,0.25742 -0.59285,0.25742z"/><path d="M240.78676,180.08493c-0.1093,-0.1772 -0.36423,-0.62578 -0.36423,-0.62578l-0.07306,-0.22555c0,0 0.66988,0.4066 0.81453,0.51519c0.15799,0.11862 0.38844,0.43832 0.38844,0.43832l-0.44236,0.45743c0,0 -0.22619,-0.40214 -0.32332,-0.55962z" data-paper-data="{&quot;index&quot;:null}"/><path d="M239.77098,180.78301c0,0 0.08113,-0.45851 0.15864,-0.74579c0.07751,-0.28729 0.20139,-0.58856 0.20139,-0.58856l0.28106,0.02293c0,0 -0.13974,0.46474 -0.21081,0.76688c-0.07107,0.30215 -0.18155,0.90115 -0.18155,0.90115z"/><path d="M240.19223,181.23827c0,0 0.09481,-0.62895 0.13251,-0.93704c0.0377,-0.30809 0.0704,-0.88695 0.0704,-0.88695l0.2275,0.09485c0,0 0.00564,0.51444 -0.02089,0.81083c-0.02652,0.29638 -0.10879,0.75468 -0.10879,0.75468z" data-paper-data="{&quot;index&quot;:null}"/></g></g><g stroke-width="0" stroke-linecap="butt" stroke-linejoin="miter"><path d="M233.07714,167.34921c0.44489,2.11472 -1.60711,4.09166 -1.60711,4.09166l-0.92768,0.23479c0,0 0.31077,-0.83952 0.20501,-3.66105c-0.826,-1.69998 -1.67667,-3.79176 -1.67667,-3.79176c0,0 -0.35099,0.02523 0.36346,-0.11324c0.71446,-0.13846 0.46518,-0.04503 0.46518,-0.04503c0,0 2.55351,0.31731 3.17775,3.28462z" fill="#cacacd" stroke="none"/><path d="M228.98957,164.20982c0,0 1.77112,0.64533 2.2912,3.18429c0.55238,2.69653 -0.70675,4.29001 -0.70675,4.29001c0,0 -2.81219,0.51862 -3.54628,-3.13847c-0.65417,-3.25883 1.96183,-4.33583 1.96183,-4.33583z" fill="#c2e266" stroke="#000000"/><path d="M234.06599,170.73578l-1.40278,-7.28242c0,0 3.83299,-0.67685 4.59784,2.80916c0.77593,3.53651 -3.19506,4.47325 -3.19506,4.47325z" fill="#c2e266" stroke="none"/><path d="M233.97472,170.76925l0.94666,-4.07855l-2.25057,-3.23214l0.27369,-0.05769c0,0 2.04895,0.33636 2.67763,3.15473c0.61829,2.78669 -1.30725,4.13096 -1.30725,4.13096z" fill="#cacacd" stroke="none"/><path d="M235.21316,166.84256c0.36445,2.07717 -1.1242,3.91877 -1.1242,3.91877l-3.04597,0.77024c0,0 1.14361,-2.68157 0.83913,-4.28129c-0.30446,-1.59973 -2.25645,-3.16547 -2.25645,-3.16547l3.04081,-0.63776c0,0 2.03531,0.48088 2.54667,3.39551z" fill="#c274a1" stroke="none"/><path d="M232.15716,173.75422c0,0 0.64639,-0.01984 1.04766,-0.09051c0.40128,-0.07066 0.94343,-0.26014 0.94343,-0.26014l1.69745,11.16385c0,0 -0.60293,0.33817 -1.02914,0.41435c-0.42622,0.07618 -0.8551,-0.07761 -0.8551,-0.07761l-1.80426,-11.14994z" fill="#c2e266" stroke="none"/><path d="M231.32649,171.37677l2.69852,-0.69176c0,0 0.53765,2.34407 0.2995,2.59426c-0.40332,0.42375 -2.11663,0.63661 -2.44253,0.37872c-0.08585,-0.06793 -0.5555,-2.28123 -0.5555,-2.28123z" fill="#cacacd" stroke="none"/></g><g data-paper-data="{&quot;index&quot;:null}"><g data-paper-data="{&quot;index&quot;:null}" fill="#86cbb6" stroke="none" stroke-width="0" stroke-linecap="butt" stroke-linejoin="miter"><path d="M249.62607,172.90555c-0.38867,-0.28596 -0.62885,-0.39852 -0.62885,-0.39852l-0.45842,-0.51711c0,0 0.84276,-0.05664 1.25481,0.07717c0.41204,0.13381 1.16929,0.63223 1.16929,0.63223l-0.52816,0.88044c0,0 -0.41996,-0.3882 -0.80864,-0.67418z"/><path d="M249.0717,174.40518c0,0 -0.10881,-0.59215 -0.15892,-0.87054c-0.06902,-0.38345 -0.33193,-1.56843 -0.33193,-1.56843l0.52241,0.28694c0,0 0.34585,0.77312 0.48794,1.11324c0.11398,0.27284 0.299,0.77045 0.299,0.77045z"/></g><g stroke="none" stroke-width="0" stroke-linecap="butt" stroke-linejoin="miter"><path d="M250.88817,169.75493c0.39286,0.74547 0.32097,1.15514 -0.1555,1.93066c-0.47647,0.77553 -2.13628,1.11673 -2.13628,1.11673c0,0 0.13438,-0.93267 0.02775,-1.50888c-0.10661,-0.57619 -0.57906,-1.47046 -0.57906,-1.47046c0,0 0.69176,-0.42395 1.32835,-0.58988c0.48707,-0.1303 1.03238,-0.18065 1.51475,0.52183z" data-paper-data="{&quot;index&quot;:null}" fill="#20201f"/><path d="M251.0398,170.80703c-0.04925,0.69042 -0.85677,1.36785 -0.85677,1.36785l-0.40754,-0.96111c0,0 1.30234,-0.93981 1.26432,-0.40673z" data-paper-data="{&quot;index&quot;:null}" fill="#b2b1b2"/></g><path d="M244.86306,167.15549c3.10661,1.22164 4.77092,4.38394 3.71735,7.06316c-1.05358,2.67925 -4.42608,3.86087 -7.53269,2.63924c-3.10661,-1.22164 -4.77092,-4.38393 -3.71735,-7.06315c1.05357,-2.67925 4.42607,-3.86089 7.53269,-2.63926z" fill="#f79eb4" stroke="none" stroke-width="0" stroke-linecap="butt" stroke-linejoin="miter"/><path d="M247.75568,175.77014c0.01173,-0.0127 -0.3486,0.98516 -1.54308,1.95957c-1.92063,1.57578 -3.3189,1.08792 -3.3189,1.08792l0.59646,-0.74452c0,0 2.07548,-1.03664 2.69097,-1.4903c0.61548,-0.45366 1.22677,-1.46839 1.22632,-1.4678" fill="#f79eb4" stroke="#f89db5" stroke-width="0" stroke-linecap="butt" stroke-linejoin="round"/><g fill="#ffd5c5" stroke="none" stroke-width="1" stroke-linecap="round" stroke-linejoin="round"><path d="M245.67237,177.00653c-0.08614,0.54063 -0.6802,0.80181 -1.16096,0.94354c-0.07867,0.02316 -0.69415,0.20254 -1.57201,0.1572c-1.1015,-0.05691 -2.31391,-0.7465 -2.66582,-0.93521c-0.41966,-0.22509 -1.00974,-1.02456 -1.0813,-1.20685c-0.51491,-1.31205 0.33634,-1.51365 0.45934,-1.54962c0.05866,-0.01713 0.34742,-0.01213 0.60397,0.20516c0.25005,0.21178 0.86797,0.95892 1.1443,1.0542c0.29689,0.10238 2.13701,0.19175 2.98095,0.52487c0.17466,0.07108 0.38261,0.22054 0.48033,0.38647c0.12716,0.21598 0.29389,0.5994 0.63461,0.45876c0.05514,-0.0228 0.18594,-0.0975 0.17658,-0.03858z"/><path d=""/></g><g fill="#000000" stroke="#000000" stroke-width="0.125" stroke-linecap="butt" stroke-linejoin="round"><path d="M247.17048,175.7482c0.06572,0.00344 0.33025,0.1402 0.77785,0.20525c0.28565,0.03089 0.57179,0.0592 0.85896,0.06224c0.17195,0.00179 0.34679,-0.04259 0.51736,-0.03366c0.00581,0.0003 -0.39829,0.07295 -0.51552,0.08142c-0.36743,0.02658 -0.68654,0.01828 -1.05269,-0.01623c-0.0804,-0.00756 -0.70942,-0.14028 -0.69716,-0.16185"/><path d="M247.48862,175.29692c0.0145,0.03306 0.31832,0.16586 0.77515,0.14471c0.45682,-0.02114 1.12764,-0.14644 1.15818,-0.17395c0.01153,-0.01038 -0.77781,0.24462 -1.11113,0.28516c-0.33333,0.04055 -0.95992,-0.05614 -0.9485,-0.07626"/></g><g fill="#000000" stroke="none" stroke-width="1" stroke-linecap="round" stroke-linejoin="round"><path d="M244.39291,176.91774c-0.2095,-0.12057 -0.50694,-0.44685 -0.27219,-0.50731c0.17842,-0.04595 0.64934,0.20213 0.70978,0.29777c0.10454,0.16545 -0.33796,0.25662 -0.43759,0.20954z"/><path d=""/></g><path d="M240.48963,172.08241c0.03845,-0.04184 -0.7866,1.72769 -1.08858,2.55503c-0.56864,1.558 -0.58856,2.65515 -0.58856,2.65515c0,0 -0.24713,-0.34906 -0.30073,-0.44698c-0.1656,-0.30243 -0.30298,-0.59157 -0.41559,-0.92059c-0.26482,-0.7739 -0.32442,-1.59982 -0.24365,-2.41101c0.05384,-0.54062 0.74271,-2.72972 0.76899,-2.73416" fill="#f79eb4" stroke="#f89db5" stroke-width="0" stroke-linecap="butt" stroke-linejoin="round"/><path d="M238.54497,170.71592c-0.01899,0.00827 -0.7695,2.72275 -0.91799,3.50056c-0.14849,0.77782 -0.13669,2.02441 -0.13669,2.02441c0,0 -0.35953,-0.20956 -0.65158,-1.00248c-0.25786,-0.70016 -0.41436,-1.06507 -0.2959,-2.14372c0.15371,-1.39966 0.74115,-3.17414 1.03996,-3.4429" fill="#f79eb4" stroke="#f89db5" stroke-width="0" stroke-linecap="butt" stroke-linejoin="round"/><g stroke="none" stroke-width="1" stroke-linecap="round" stroke-linejoin="round"><path d="M247.42465,170.84322c-0.06741,-0.0866 -1.79785,-2.26163 -3.50684,-2.638c-1.34697,-0.29665 -2.20557,-0.07739 -3.68709,0.29898c-1.14256,0.29023 -2.26798,1.5339 -2.30566,1.52871c-0.00269,-0.00038 1.84023,-3.68529 5.50505,-2.89419c2.95342,0.6695 4.54066,3.21669 4.59088,3.36323" fill="#20201f"/><path d="" fill="#ee1a40"/></g><path d="M247.31262,171.98289c-0.02787,0.00884 1.0734,-0.20215 2.57269,0.85547c0.26651,0.19018 1.03276,1.05923 1.00616,1.85082c0.05175,0.74977 -0.55064,1.75965 -0.56509,1.7522c-0.02071,-0.01077 -0.36417,-1.76227 -1.18677,-2.51061c-0.44914,-0.40861 -2.02295,-0.82063 -2.05963,-0.809" fill="#f79eb4" stroke="#f89db5" stroke-width="0" stroke-linecap="butt" stroke-linejoin="round"/><path d="M246.51009,171.70805c0.03884,-0.074 1.32235,-1.03027 1.67653,-1.16306c0.35418,-0.13279 0.53587,-0.13559 1.10997,0.05637c1.88083,0.83839 2.55959,2.39328 2.55959,2.39328c0,0 -1.1427,-1.04375 -1.8906,-1.18648c-1.03764,-0.19801 -2.51862,0.14046 -2.6459,0.18011" fill="#f79eb4" stroke="#f89db5" stroke-width="0" stroke-linecap="butt" stroke-linejoin="round"/><path d="M242.35262,171.3407c-0.56537,-0.22233 -1.86018,1.0415 -1.86018,1.0415c0,0 0.17049,-2.16728 1.44135,-2.29908c2.81113,0.32688 2.55938,3.89852 2.55938,3.89852c0,0 -1.57518,-2.41862 -2.14055,-2.64094z" data-paper-data="{&quot;index&quot;:null}" fill="#20201f" stroke="none" stroke-width="0" stroke-linecap="butt" stroke-linejoin="miter"/><path d="M244.47987,174.58209c0.16301,0.71595 0.3513,0.77934 0.52774,0.86758c0.30267,0.15139 0.76714,0.01004 1.16527,-0.22642c0.56921,-0.33805 1.26641,-1.06459 1.68584,-0.90383c0.06356,0.02436 -0.20125,0.82475 -0.5566,1.30433c-0.75359,1.01702 -1.83779,1.51614 -1.97617,1.46746c-0.55292,-0.1945 -0.19703,-0.62768 -1.3242,-1.00541c-0.64201,-0.21513 -2.3438,-0.09323 -2.88058,-0.51245c-0.96734,-1.01427 -0.87655,-2.13119 -0.70363,-2.82923c0.51961,-2.09763 1.95062,-2.16286 2.34566,-1.95276c1.81868,0.96718 1.46094,2.66765 1.71666,3.79077z" fill="#ffffff" stroke="none" stroke-width="0" stroke-linecap="butt" stroke-linejoin="miter"/><path d="M246.98835,173.18228c-0.02695,-0.04256 0.91803,0.08197 1.53578,0.86055c0.17746,0.22367 0.54308,1.45468 0.47227,1.58807c-0.19976,0.57684 -0.74776,1.91033 -0.74584,1.90984c0.04149,-0.01028 -0.19062,-1.13406 -0.48834,-2.17038c-0.10215,-0.34793 -1.03222,-1.19832 -1.10845,-1.31887" fill="#f79eb4" stroke="#f89db5" stroke-width="0" stroke-linecap="butt" stroke-linejoin="round"/><g fill="#000000" stroke="#000000" stroke-width="0.125" stroke-linecap="butt" stroke-linejoin="round"><path d="M241.27979,171.14956c-0.03593,0.02459 -0.18326,-0.01948 -0.32976,-0.16761c-0.94068,-0.95086 -0.94608,-1.36315 -0.94608,-1.36315c0,0 0.19903,0.63319 0.92208,1.16592c0.14081,0.10374 0.34282,0.20617 0.38927,0.22163c0.0443,0.01474 0.09482,-0.00327 0.13415,0.03165"/><path d="M240.73714,171.78882c0,0 -0.04971,0.02667 -0.18761,0.01865c-0.25571,-0.01488 -0.83135,-0.24519 -1.083,-0.39014c-0.60004,-0.34564 -0.87348,-0.69852 -0.87348,-0.69852c0,0 0.63929,0.49085 0.85388,0.61785c0.64914,0.37934 1.20928,0.29222 1.28824,0.27145c0.0348,-0.00913 0.11299,-0.04176 0.14576,-0.033"/></g><g stroke="none" stroke-linecap="butt" stroke-linejoin="miter"><path d="M243.4859,173.28098c0.21102,0.09911 0.13375,0.70822 -0.1726,1.36049c-0.30634,0.65226 -0.72577,1.10065 -0.93679,1.00156c-0.21102,-0.09911 -0.13374,-0.70821 0.17259,-1.36048c0.30633,-0.65228 0.72576,-1.10067 0.93678,-1.00157z" fill="#169c5b" stroke-width="NaN"/><path d="M243.10017,174.11736c0.09273,0.04354 0.06414,0.2997 -0.0638,0.57214c-0.12795,0.27245 -0.30685,0.45801 -0.39957,0.41446c-0.09273,-0.04354 -0.06414,-0.2997 0.0638,-0.57214c0.12795,-0.27245 0.30685,-0.45801 0.39957,-0.41446z" fill="#000000" stroke-width="0"/><path d="M243.06098,173.94497c0.12945,-0.27562 0.32512,-0.45647 0.43702,-0.40391c0.1119,0.05256 0.09767,0.3186 -0.03178,0.59424c-0.12945,0.27563 -0.32512,0.45647 -0.43702,0.40391c-0.1119,-0.05256 -0.09767,-0.31859 0.03178,-0.59423z" fill="#ffffff" stroke-width="0"/></g><g stroke="none" stroke-linecap="butt" stroke-linejoin="miter"><path d="M245.55042,175.98684c0.21608,-0.46007 0.51188,-0.77635 0.66074,-0.70644c0.14885,0.0699 0.09433,0.49952 -0.12174,0.9596c-0.21609,0.46007 -0.5119,0.77634 -0.66075,0.70645c-0.14885,-0.0699 -0.09432,-0.49951 0.12175,-0.9596z" fill="#169c5b" stroke-width="NaN"/><path d="M245.65725,176.16265c0.09025,-0.19217 0.21643,-0.32304 0.28182,-0.29231c0.06542,0.03072 0.04528,0.21138 -0.04498,0.40355c-0.09026,0.19216 -0.21644,0.32304 -0.28183,0.29232c-0.06542,-0.03073 -0.04528,-0.21139 0.04499,-0.40356z" fill="#000000" stroke-width="0"/><path d="M246.21972,175.46384c0.07895,0.03708 0.06889,0.22473 -0.02241,0.41915c-0.09132,0.19441 -0.22932,0.32196 -0.30826,0.28489c-0.07893,-0.03707 -0.06888,-0.22471 0.02242,-0.41913c0.09132,-0.19441 0.22932,-0.32198 0.30826,-0.28491z" fill="#ffffff" stroke-width="0"/></g><path d="M241.04647,176.51857c0,0 -0.53176,-0.21614 -0.70838,-0.3087c-0.17661,-0.09256 -0.43011,-0.35154 -0.43011,-0.35154" data-paper-data="{&quot;index&quot;:null}" fill="none" stroke="#000000" stroke-width="0.125" stroke-linecap="round" stroke-linejoin="miter"/><g fill="#86cbb6" stroke="none" stroke-width="0" stroke-linecap="butt" stroke-linejoin="miter"><path d="M240.20861,168.54918c0,0 -0.30184,-0.09706 -0.87485,-0.16325c-0.57301,-0.06619 -1.25663,-0.06837 -1.25663,-0.06837l0.25461,-1.20059c0,0 1.06854,0.18036 1.53812,0.39874c0.46957,0.21839 1.16101,0.95414 1.16101,0.95414l-0.82224,0.07932z"/><path d="M238.10012,169.24849c0,0 0.56709,-0.28488 0.889,-0.43086c0.40127,-0.18197 1.33345,-0.57698 1.33345,-0.57698l0.69084,0.17423c0,0 -1.19494,0.82301 -1.56755,1.1024c-0.27053,0.20285 -0.84789,0.63251 -0.84789,0.63251z"/></g><path d="M240.62646,166.94531c0.6142,-1.08251 1.05736,-1.43902 2.20942,-1.46062c1.15967,0.11397 1.45932,0.80024 1.62478,1.46954c0.22152,0.87188 0.17041,1.98013 0.17041,1.98013c0,0 -1.1666,-0.11728 -2.17324,-0.04515c-1.72202,0.1234 -2.12238,0.35593 -2.12238,0.35593c0,0 -0.32318,-1.21732 0.29101,-2.29983z" fill="#20201f" stroke="none" stroke-width="0" stroke-linecap="butt" stroke-linejoin="miter"/><path d="M242.89399,166.67807c1.04886,0.11005 1.00731,1.42029 1.00731,1.42029c0,0 -0.6329,-0.1446 -1.19843,-0.18352c-0.96742,-0.06658 -1.21515,0.01889 -1.21515,0.01889c0,0 0.30045,-1.37166 1.40627,-1.25565z" fill="#b2b1b2" stroke="none" stroke-width="0" stroke-linecap="butt" stroke-linejoin="miter"/></g><g stroke="none" stroke-width="0" stroke-linecap="butt" stroke-linejoin="miter"><path d="M238.50108,179.77571c0.51637,1.38267 0.14643,2.79805 -0.82627,3.16131c-0.97272,0.36327 -2.17986,-0.46313 -2.69624,-1.84581c-0.51638,-1.38267 -0.14644,-2.79806 0.82627,-3.16132c0.9727,-0.36327 2.17987,0.46313 2.69625,1.8458z" fill="#20201f"/><path d="M242.71322,178.64575c0.39099,-0.02173 0.50586,0.16415 0.53666,0.3769c0.04581,0.31668 -0.10292,0.51092 -0.41112,0.56846c-1.22994,0.22959 -2.30113,0.45281 -3.13776,0.66322c-0.51002,0.12826 -2.48225,0.70118 -2.48225,0.70118l-0.32131,-1.17709c0,0 1.13536,-0.24608 2.39961,-0.564c0.88426,-0.22236 2.23538,-0.50309 3.41617,-0.56868z" fill="#fed5c7"/><path d="M240.1272,178.80514l1.12666,-0.20985l0.40699,1.38341l-1.1147,0.24192z" fill="#83c4ac"/><path d="M242.28943,177.96062c0.64596,-0.1371 1.29304,0.20337 1.45492,0.79711c0.16188,0.5937 -0.22706,1.19947 -0.86872,1.35297c-1.14076,0.27291 -1.46871,-0.13778 -1.63058,-0.7315c-0.16188,-0.5937 -0.03252,-1.18999 1.04438,-1.41858z" fill="#20201f"/><path d="M238.6522,178.77109l1.49511,-0.01001l0.43093,1.44756l-1.34785,0.79583l-0.33784,-0.57033l-0.27468,-1.10859z" fill="#bebec0"/><g><path d="M235.91595,179.36107l0.77829,2.43993c0,0 -0.05274,0.37587 -0.48136,0.77504c-0.27834,0.25925 -0.89276,0.39115 -0.89276,0.39115c0,0 0.70501,0.22981 0.4529,0.77649c-0.16186,0.351 -1.31835,0.38775 -1.72461,0.30272c-0.23916,-0.05005 -0.62611,-0.28043 -0.81935,-0.57382c-0.1219,-0.18507 -0.112,-0.49073 -0.112,-0.49073c0,0 -0.39275,-0.00229 -0.4269,-0.41971c-0.01047,-0.12788 -0.06083,-0.29981 -0.06083,-0.29981c0,0 -0.28001,-0.08953 -0.40024,-0.1918c-0.12022,-0.10227 -0.20459,-0.3489 -0.20459,-0.3489l0.13956,-0.41475c0,0 -0.41765,-0.37948 -0.45481,-0.48907c-0.14581,-0.42989 0.23447,-0.75968 0.43741,-0.93802c0.37156,-0.3265 1.29346,-0.92107 1.43447,-0.91052c0.88502,0.06635 2.33479,0.39181 2.33479,0.39181z" fill="#20201f"/><path d="M235.32013,182.96719c0,0 0.70501,0.22981 0.4529,0.77649c-0.16186,0.351 -0.69036,0.43412 -1.09662,0.3491c-0.23916,-0.05005 0.64371,-1.12558 0.64371,-1.12558z" fill="#c0c2c6"/></g></g></g></g></svg>