<svg version="1.1" xmlns="http://www.w3.org/2000/svg" xmlns:xlink="http://www.w3.org/1999/xlink" width="74.36389" height="86.62073" viewBox="0,0,74.36389,86.62073"><g transform="translate(-199.40905,-170)"><g data-paper-data="{&quot;isPaintingLayer&quot;:true}" fill-rule="nonzero" stroke="none" stroke-width="0" stroke-linecap="butt" stroke-linejoin="miter" stroke-miterlimit="10" stroke-dasharray="" stroke-dashoffset="0" style="mix-blend-mode: normal"><path d="M242.79428,197.1867c0,0 12.63297,16.52665 19.99276,26.22821c8.31607,10.96212 10.9859,33.20582 10.9859,33.20582c0,0 -6.94062,-5.21302 -13.73163,-8.75093c-6.79101,-3.53791 -13.84354,-5.27043 -16.80293,-5.27043c-1.43849,0 -14.19549,-0.03662 -20.31306,1.37474c-6.11757,1.41136 -23.51627,10.12182 -23.51627,10.12182c0,0 8.14209,-23.11837 20.88657,-33.90039c12.2706,-10.38111 22.49866,-23.00884 22.49866,-23.00884z" fill="#a6d7f5"/><path d="M253.65531,211.40742c0,0 -4.61955,-1.94445 -12.13676,-1.94445c-7.51721,0 -10.76211,0.84046 -10.76211,0.84046l12.0584,-13.06268z" fill="#f6e202"/><path d="M233.95837,180.20833c0,-5.63791 4.57043,-10.20833 10.20833,-10.20833c5.63791,0 10.20833,4.57043 10.20833,10.20833c0,5.63791 -4.57043,10.20833 -10.20833,10.20833c-5.63791,0 -10.20833,-4.57043 -10.20833,-10.20833z" fill="#f6e202"/></g></g></svg>