<svg version="1.1" xmlns="http://www.w3.org/2000/svg" xmlns:xlink="http://www.w3.org/1999/xlink" width="10.24639" height="18.05498" viewBox="0,0,10.24639,18.05498"><g transform="translate(-235.2486,-169.73819)"><g data-paper-data="{&quot;isPaintingLayer&quot;:true}" fill-rule="nonzero" stroke-width="0" stroke-linecap="butt" stroke-linejoin="miter" stroke-miterlimit="10" stroke-dasharray="" stroke-dashoffset="0" style="mix-blend-mode: normal"><path d="M243.2139,181.98278c-0.90249,0.94477 -2.47519,0.27527 -2.5249,-0.15778c-0.06323,-0.55088 2.82807,-2.47986 3.52726,-1.50911c0.4643,0.72415 -1.48572,1.09568 -1.48572,1.09568c0,0 0.87387,0.18432 0.48336,0.57121z" data-paper-data="{&quot;index&quot;:null}" fill="#d4a5b9" stroke="none"/><path d="M238.03278,181.92103c0,0 -1.74883,-0.2155 -1.70311,-1.05789c0.39054,-0.67805 3.72197,0.44703 3.78522,0.99791c0.04971,0.43306 -1.40617,1.30103 -2.36456,0.7191c-0.4545,-0.17052 0.28244,-0.65912 0.28244,-0.65912z" data-paper-data="{&quot;index&quot;:null}" fill="#d4a5b9" stroke="none"/><path d="M238.30817,183.11296c-0.11952,-1.04112 0.69351,-1.98956 1.81597,-2.11841c1.12245,-0.12885 2.12926,0.61067 2.24877,1.65178c0.11952,1.04112 -0.69351,1.98956 -1.81597,2.11841c-1.12245,0.12885 -2.12926,-0.61067 -2.24877,-1.65178z" fill="#9ad6ef" stroke="none"/><path d="M241.43366,187.77541c-0.6125,0.04888 -1.19619,-0.85083 -1.30368,-2.00953c-0.10751,-1.15871 0.30187,-2.13766 0.91437,-2.18654c0.6125,-0.04888 1.19619,0.85083 1.30368,2.00953c0.10751,1.15871 -0.30187,2.13766 -0.91437,2.18654z" fill="#9ad6ef" stroke="none"/><path d="M245.28553,185.99011c-0.44355,0.4352 -1.4772,0.12678 -2.3087,-0.68885c-0.8315,-0.81565 -1.14598,-1.82966 -0.70243,-2.26486c0.44355,-0.4352 1.4772,-0.12678 2.3087,0.68885c0.8315,0.81565 1.14598,1.82966 0.70243,2.26486z" data-paper-data="{&quot;index&quot;:null}" fill="#9ad6ef" stroke="none"/><path d="M241.6081,187.79008c-0.98855,0.07482 -1.31157,-1.23251 -1.31157,-1.23251c0,0 0.29211,-0.8021 1.08478,-1.05943c0.56283,-0.18272 0.97524,0.3813 0.97524,0.3813c0,0 -0.02991,1.85626 -0.74843,1.91064z" fill="#eaec6e" stroke="none"/><path d="M244.91557,184.0842c0,0 1.07935,1.40197 0.29177,1.98358c-0.71207,0.5251 -1.60302,-0.26636 -1.60302,-0.26636c0,0 -0.28957,-0.60474 0.30755,-1.39489c0.26198,-0.33667 1.00369,-0.32234 1.00369,-0.32234z" data-paper-data="{&quot;index&quot;:null}" fill="#eaec6e" stroke="none"/><path d="M243.57326,181.3567c0.87942,0.5059 1.30519,1.60919 0.65309,2.30746c-0.42844,0.45878 -1.32007,0.4378 -1.62771,-0.15796c-0.34798,-0.51238 -0.22933,-1.09484 -0.22933,-1.09484c0,0 -0.2986,-0.68361 -0.5157,-0.84596c-0.32528,-0.24326 -1.19067,-0.40229 -1.19067,-0.40229c0,0 0.63789,-0.18534 1.14006,-0.22737c0.50217,-0.04204 1.19041,0.00014 1.77026,0.42095z" data-paper-data="{&quot;index&quot;:null}" fill="#9ad6ef" stroke="none"/><path d="M244.54385,182.68329c0,0 0.22146,0.85366 -0.77697,1.26181c-0.91856,0.4366 -1.38285,-0.86665 -1.38285,-0.86665c0,0 0.21805,-0.50763 0.87096,-0.72783c0.83172,-0.28049 1.28885,0.33268 1.28885,0.33268z" data-paper-data="{&quot;index&quot;:null}" fill="#eaec6e" stroke="none"/><path d="M237.61563,182.09239c0.34793,-0.36453 1.26451,-0.64334 1.26451,-0.64334c0,0 -0.62725,0.62827 -0.56324,1.45389c0.03784,0.48811 0.6447,1.21895 0.74241,1.43502c0.2643,0.58448 -0.27267,1.32069 -0.89874,1.36626c-0.95291,0.06934 -1.42232,-0.95114 -1.26414,-1.95329c0.08095,-0.51283 0.37129,-1.294 0.7192,-1.65854z" fill="#9ad6ef" stroke="none"/><path d="M237.14536,185.18495c0,0 0.0336,-0.76208 0.79264,-1.10846c0.56504,-0.25785 0.94311,0.00466 0.94311,0.00466c0,0 0.79355,0.92848 -0.21129,1.46741c-0.8911,0.47792 -1.52445,-0.36362 -1.52445,-0.36362z" fill="#eaec6e" stroke="none"/><path d="M239.01537,174.03715c0.76324,-0.43137 1.29554,-1.39274 1.33817,-1.39507c0.06191,-0.00337 0.16192,0.16625 0.31503,0.25834c0.88509,0.53239 3.02768,2.4031 3.13114,4.28502c0.04725,0.85939 0.22132,3.63033 -3.88277,4.13133c-3.32721,0.50913 -4.78173,-1.1321 -4.66146,-2.9117c0.19413,-2.87294 2.25845,-3.51931 3.7599,-4.36792z" fill="#9ad6ef" stroke="none"/><path d="M239.71283,181.7168c0,0 -0.20052,-0.35425 -0.1174,-0.5409c0.23504,-0.52781 0.88892,-1.2431 1.47028,-1.10397c0.64121,0.15346 -0.23454,1.63368 -0.23454,1.63368c0,0 0.42371,0.89933 0.23046,0.95917c-0.14861,0.04602 -0.59983,-0.00198 -0.89444,-0.18865c-0.47081,-0.29831 -0.45436,-0.75932 -0.45436,-0.75932z" fill="#d62c35" stroke="none"/><path d="M238.78664,181.8329c-0.12076,-0.38998 0.03187,-0.61509 0.28213,-0.69258c0.25026,-0.0775 0.59307,-0.14812 0.6974,0.38927c0.08253,0.40237 0.03649,0.59392 -0.35538,0.71526c-0.39186,0.12134 -0.52969,-0.10694 -0.62415,-0.41194z" fill="#d62c35" stroke="none"/><path d="M238.58693,171.03101c-0.07324,-0.63798 0.37393,-1.21333 0.99879,-1.28506c0.62485,-0.07173 1.15794,0.36123 1.23117,0.99921c0.07324,0.63798 -0.36041,1.33114 -0.98526,1.40288c-0.62485,0.07173 -1.17146,-0.47904 -1.24471,-1.11704z" fill="#eaec6e" stroke="none"/><path d="M239.07521,182.64243c-0.11926,0.31473 -0.28058,0.62596 -0.58109,0.66372c-0.28633,0.03542 -0.37773,-0.87382 -0.37773,-0.87382c0,0 -1.24815,-0.81662 -0.94464,-1.33683c0.31623,-0.21083 1.11043,0.00165 1.59759,0.27289c0.17228,0.09591 0.21671,0.42478 0.21671,0.42478c0,0 0.27973,0.3463 0.08916,0.84926z" data-paper-data="{&quot;index&quot;:null}" fill="#d62c35" stroke="none"/><path d="M239.95094,173.17287c0.17391,-0.26192 0.29816,-0.5396 0.3995,-0.54947c0.09703,-0.00946 0.45372,0.29818 0.84263,0.63278c0.37504,0.32267 0.74468,0.65809 0.74468,0.65809c0,0 -1.02215,0.33331 -1.57715,0.21915c-0.39165,-0.08057 -0.92654,-0.40223 -0.92654,-0.40223c0,0 0.34698,-0.30244 0.51687,-0.55831z" fill="#eaec6e" stroke="none"/><path d="M237.81997,178.64782c0.07937,0.69137 -0.18597,1.28967 -0.59265,1.33636c-0.40669,0.04668 -0.8007,-0.47593 -0.88007,-1.16729c-0.07937,-0.69137 0.18597,-1.28967 0.59265,-1.33635c0.40669,-0.04668 0.80071,0.47592 0.88008,1.16729z" fill="#ffffff" stroke="#000000"/><path d="M240.96583,178.49559c0.0775,0.6751 -0.14319,1.25491 -0.49294,1.29506c-0.34975,0.04015 -0.6961,-0.47457 -0.7736,-1.14966c-0.0775,-0.6751 0.14321,-1.25491 0.49296,-1.29507c0.34975,-0.04015 0.6961,0.47457 0.7736,1.14966z" fill="#ffffff" stroke="#000000"/><path d="M238.83433,180.72482l-0.49013,-0.63012l0.4747,0.40087l0.68417,-0.44439z" fill="#000000" stroke="none"/><g stroke="none"><path d="M236.50135,177.8322c0.33348,-0.03829 0.64999,0.3329 0.70696,0.82904c0.05696,0.49616 -0.1672,0.9294 -0.50069,0.96769c-0.33348,0.03829 -0.64999,-0.3329 -0.70696,-0.82905c-0.05696,-0.49616 0.1672,-0.92939 0.50069,-0.96768z" fill="#003e5b"/><path d="M236.68452,179.42779c0.33348,-0.03829 0.52379,-0.76655 0.52379,-0.76655c0,0 0.06122,0.91124 -0.50069,0.96769c-0.5621,0.05647 -0.70696,-0.82905 -0.70696,-0.82905c0,0 0.35039,0.6662 0.68386,0.62791z" fill="#166997"/></g><path d="M235.8322,178.81253c-0.10114,-1.04183 0.66024,-0.9783 0.66024,-0.9783c0,0 -0.20794,0.31416 -0.13249,0.97733c0.07111,0.62509 0.30407,0.89462 0.30407,0.89462c0,0 -0.74735,-0.02365 -0.83181,-0.89365z" fill="#9ad6ef" stroke="none"/><g stroke="none"><path d="M239.84752,177.73012c0.32293,-0.03708 0.62943,0.32237 0.68459,0.80283c0.05515,0.48046 -0.16192,0.89999 -0.48485,0.93707c-0.32293,0.03708 -0.62943,-0.32236 -0.68459,-0.80282c-0.05515,-0.48046 0.16192,-0.90001 0.48485,-0.93708z" fill="#003e5b"/><path d="M240.01772,179.28132c0.32293,-0.03708 0.50722,-0.74229 0.50722,-0.74229c0,0 0.05928,0.88241 -0.48485,0.93707c-0.54432,0.05468 -0.68459,-0.80282 -0.68459,-0.80282c0,0 0.3393,0.64511 0.66223,0.60804z" fill="#166997"/></g><path d="M239.81571,177.7031c0,0 -0.18547,0.31158 -0.11003,0.97476c0.07111,0.62509 0.29376,0.80476 0.29376,0.80476c0,0 -0.75949,0.0688 -0.84397,-0.80122c-0.10114,-1.04183 0.66024,-0.9783 0.66024,-0.9783z" fill="#9ad6ef" stroke="none"/></g></g></svg>