<svg version="1.1" xmlns="http://www.w3.org/2000/svg" xmlns:xlink="http://www.w3.org/1999/xlink" width="21.34005" height="25.80929" viewBox="0,0,21.34005,25.80929"><defs><radialGradient cx="240.04149" cy="180.01895" r="7.95881" gradientUnits="userSpaceOnUse" id="color-1"><stop offset="0" stop-color="#0e526f"/><stop offset="1" stop-color="#a9b063"/></radialGradient><radialGradient cx="240.11807" cy="182.375" r="5.86778" gradientUnits="userSpaceOnUse" id="color-2"><stop offset="0" stop-color="#95d5ef"/><stop offset="1" stop-color="#2882af"/></radialGradient><radialGradient cx="240" cy="180" r="9.04943" gradientUnits="userSpaceOnUse" id="color-3"><stop offset="0" stop-color="#cad6d9" stop-opacity="0.50196"/><stop offset="1" stop-color="#cad6d9" stop-opacity="0"/></radialGradient></defs><g transform="translate(-229.45046,-167.15038)"><g data-paper-data="{&quot;isPaintingLayer&quot;:true}" fill-rule="nonzero" stroke="none" stroke-width="0" stroke-linecap="butt" stroke-linejoin="miter" stroke-miterlimit="10" stroke-dasharray="" stroke-dashoffset="0" style="mix-blend-mode: normal"><path d="M245.55485,180.01895c0,4.08666 -2.46841,7.39954 -5.51336,7.39954c-3.04495,0 -5.51336,-3.31289 -5.51336,-7.39954c0,-4.08666 2.46841,-7.39954 5.51336,-7.39954c3.04495,0 5.51336,3.31289 5.51336,7.39954z" fill="url(#color-1)"/><path d="M243.79015,180.01895c0,2.77861 -1.67833,5.03112 -3.74866,5.03112c-2.07033,0 -3.74866,-2.25251 -3.74866,-5.03112c0,-2.77861 1.67833,-5.03112 3.74866,-5.03112c2.07033,0 3.74866,2.25251 3.74866,5.03112z" fill="#66a5c6"/><path d="M243.46335,180.01895c0,2.53638 -1.53202,4.59252 -3.42186,4.59252c-1.88985,0 -3.42186,-2.05614 -3.42186,-4.59252c0,-2.53638 1.53202,-4.59252 3.42186,-4.59252c1.88985,0 3.42186,2.05614 3.42186,4.59252z" fill="#000000"/><path d="M243.26728,180.01895c0,2.39105 -1.44423,4.32937 -3.22579,4.32937c-1.78155,0 -3.22579,-1.93833 -3.22579,-4.32937c0,-2.39105 1.44423,-4.32937 3.22579,-4.32937c1.78155,0 3.22579,1.93833 3.22579,4.32937z" fill="#ccc966"/><path d="M245.46996,176.76328c0,0 2.99715,11.27924 -5.45673,11.22323c-6.80119,-0.04506 -5.69651,-10.00825 -5.69651,-10.00825l2.82236,3.89017l3.45732,-5.06463l1.37511,5.08264z" fill="url(#color-2)"/><path d="M246.74269,180c0,4.99787 -3.0188,9.04944 -6.74269,9.04944c-3.72389,0 -6.74269,-4.05157 -6.74269,-9.04944c0,-4.99787 3.0188,-9.04943 6.74269,-9.04943c3.7239,0 6.74269,4.05157 6.74269,9.04943z" fill="url(#color-3)"/><path d="M236.80425,174.93772c-0.43497,0.70499 -1.1064,3.07333 -1.1064,3.07333c0,0 -0.12293,-1.11912 -0.12293,-2.49964c0,-1.38052 0.71551,-2.49964 1.59813,-2.49964c0.4665,0 1.26043,0.56538 1.26043,0.56538c0,0 -1.19426,0.65557 -1.62923,1.36057z" fill-opacity="0.25098" fill="#ffffff"/><path d="M239.26291,169.56964c6.41547,0 8.03163,8.44141 8.03163,8.44141c0,0 -2.26855,-7.87526 -8.19554,-7.94967c-4.45131,-0.05589 -6.31057,7.94967 -6.31057,7.94967c0,0 1.12443,-8.44141 6.47448,-8.44141z" fill-opacity="0.25098" fill="#ffffff"/><path d="M240.5742,190.63218c-6.41547,0 -8.03163,-8.44141 -8.03163,-8.44141c0,0 2.26855,7.87526 8.19554,7.94967c4.45131,0.05589 6.31057,-7.94967 6.31057,-7.94967c0,0 -1.12443,8.44141 -6.47448,8.44141z" data-paper-data="{&quot;index&quot;:null}" fill-opacity="0.25098" fill="#ffffff"/><path d="M229.45378,181.56763c-0.19431,-11.1607 8.19427,-14.41725 8.19427,-14.41725c0,0 -7.80294,4.36165 -7.69779,14.67648c0.07897,7.74668 8.13717,10.55913 8.13717,10.55913c0,0 -8.47159,-1.51112 -8.63363,-10.81835z" data-paper-data="{&quot;index&quot;:null}" fill-opacity="0.10196" fill="#ffffff"/><path d="M242.15354,192.95967c0,0 8.0582,-2.81245 8.13716,-10.55913c0.10515,-10.31483 -7.69779,-14.67648 -7.69779,-14.67648c0,0 8.38859,3.25656 8.19427,14.41726c-0.16205,9.30723 -8.63364,10.81835 -8.63364,10.81835z" data-paper-data="{&quot;index&quot;:null}" fill-opacity="0.10196" fill="#ffffff"/><path d="M243.43276,184.36259c0.43497,-0.705 1.1064,-3.07333 1.1064,-3.07333c0,0 0.12293,1.11912 0.12293,2.49964c0,1.38052 -0.71551,2.49964 -1.59813,2.49964c-0.4665,0 -1.26043,-0.56539 -1.26043,-0.56539c0,0 1.19427,-0.65557 1.62923,-1.36056z" data-paper-data="{&quot;index&quot;:null}" fill-opacity="0.25098" fill="#ffffff"/></g></g></svg>