<svg version="1.1" xmlns="http://www.w3.org/2000/svg" xmlns:xlink="http://www.w3.org/1999/xlink" width="94.25994" height="139.77862" viewBox="0,0,94.25994,139.77862"><defs><radialGradient cx="278.84584" cy="216.54893" r="26.61272" gradientUnits="userSpaceOnUse" id="color-1"><stop offset="0" stop-color="#c3a72a"/><stop offset="1" stop-color="#f9d868"/></radialGradient><radialGradient cx="221.18158" cy="202.68294" r="26.61272" gradientUnits="userSpaceOnUse" id="color-2"><stop offset="0" stop-color="#c3a72a"/><stop offset="1" stop-color="#f9d868"/></radialGradient><radialGradient cx="275.23304" cy="146.43587" r="21.51803" gradientUnits="userSpaceOnUse" id="color-3"><stop offset="0" stop-color="#272727"/><stop offset="1" stop-color="#000000"/></radialGradient><radialGradient cx="263.76883" cy="162.14019" r="15.12318" gradientUnits="userSpaceOnUse" id="color-4"><stop offset="0" stop-color="#f9d868"/><stop offset="1" stop-color="#c3a72a"/></radialGradient><radialGradient cx="256.56437" cy="186.65605" r="9.22728" gradientUnits="userSpaceOnUse" id="color-5"><stop offset="0" stop-color="#f9d868"/><stop offset="1" stop-color="#c3a72a"/></radialGradient><radialGradient cx="249.01187" cy="218.09961" r="28.02877" gradientUnits="userSpaceOnUse" id="color-6"><stop offset="0" stop-color="#f9d868"/><stop offset="1" stop-color="#c3a72a"/></radialGradient></defs><g transform="translate(-199.20532,-116.14665)"><g data-paper-data="{&quot;isPaintingLayer&quot;:true}" fill-rule="nonzero" stroke-linecap="butt" stroke-linejoin="miter" stroke-miterlimit="10" stroke-dasharray="" stroke-dashoffset="0" style="mix-blend-mode: normal"><path d="M275.611,213.80643c9.05373,-0.04947 -7.91003,-3.98616 -10.60347,-14.32323c-0.60547,-2.32375 26.85358,10.47229 16.70518,19.68721c-9.05373,0.04948 0.59061,19.07179 3.85577,24.51071c1.65832,2.76232 1.91219,5.44462 -1.6543,8.32674c-4.61974,3.73329 -15.3145,-0.12388 -15.78104,-1.61448c-1.61332,-6.41361 11.1506,-1.98936 11.6531,-8.24117c0.50254,-6.25177 -8.92772,-17.96795 -9.34101,-20.52379c-0.60899,-3.76569 1.65605,-7.80281 5.16577,-7.82197z" data-paper-data="{&quot;index&quot;:null}" fill="url(#color-1)" stroke="#f7d665" stroke-width="1"/><path d="M241.26571,193.77423c-7.09858,7.98248 -23.99758,3.77651 -15.95612,7.9367c3.1173,1.61271 3.29934,6.23827 1.04492,9.31542c-1.5301,2.08854 -15.25597,8.23657 -17.65065,14.03336c-2.39469,5.7968 10.98526,7.65913 6.63248,12.63814c-1.09321,1.11553 -12.37241,-0.31116 -14.78985,-5.73661c-1.86629,-4.18848 -0.42071,-6.46214 2.31216,-8.16856c5.38094,-3.35987 22.61911,-15.91799 14.57765,-20.07818c-4.84957,-12.82133 25.42516,-11.73469 23.82941,-9.94025z" data-paper-data="{&quot;index&quot;:null}" fill="url(#color-2)" stroke="#f7d665" stroke-width="1"/><path d="M266.54982,116.14665l14.20739,3.25342l12.70805,8.94504l-3.83291,2.67797l-5.69025,23.66394l-10.78241,3.05662l-16.38497,-3.86296l-8.64665,-7.80554l5.63109,-23.41789l-2.13721,-4.37384z" data-paper-data="{&quot;index&quot;:null}" fill="url(#color-3)" stroke="none" stroke-width="0"/><path d="M278.79151,161.87427c-0.58357,2.41951 -8.25922,4.08676 -8.25922,4.08676l-9.25774,16.5073l-7.22715,-1.87415l0.03558,-18.88585c0,0 -5.23684,-4.67799 -4.69472,-6.92566c0.47747,-1.97969 2.77515,-6.71754 2.77515,-6.71754c0,0 9.73278,2.5542 13.56298,3.47798c4.43931,1.07066 13.92213,3.44459 13.92213,3.44459c0,0 -0.44733,5.18801 -0.857,6.88657z" data-paper-data="{&quot;index&quot;:null}" fill="url(#color-4)" stroke="#f7d665" stroke-width="1"/><path d="M247.59278,184.49873c0.2731,-1.1358 5.22141,-4.04422 10.17629,-2.85278c4.95488,1.19144 7.98392,6.26463 7.76684,7.16741c-0.21709,0.90276 -5.22141,4.04422 -10.17629,2.85278c-4.95488,-1.19144 -7.98392,-6.26463 -7.76684,-7.16741z" data-paper-data="{&quot;index&quot;:null}" fill="url(#color-5)" stroke="#f7d665" stroke-width="1"/><path d="M267.60721,251.27024c0,0 -15.59842,-4.70143 -24.91112,-7.14507c-9.3127,-2.44365 -25.83292,-6.17017 -25.83292,-6.17017c0,0 13.63556,-53.40786 39.23858,-46.28403c25.60495,7.12433 11.50545,59.59929 11.50545,59.59929z" data-paper-data="{&quot;index&quot;:null}" fill="url(#color-6)" stroke="#f7d665" stroke-width="1"/></g></g></svg>