<svg version="1.1" xmlns="http://www.w3.org/2000/svg" xmlns:xlink="http://www.w3.org/1999/xlink" width="477.27709" height="53.17466" viewBox="0,0,477.27709,53.17466"><g transform="translate(-1.36146,-106.46362)"><g data-paper-data="{&quot;isPaintingLayer&quot;:true}" fill-rule="nonzero" stroke-linecap="butt" stroke-linejoin="miter" stroke-dasharray="" stroke-dashoffset="0" style="mix-blend-mode: normal"><g fill="#ffffff" stroke="none" stroke-width="0.26458" stroke-miterlimit="10"><path d="M3.52672,159.09695c-0.90219,-0.18044 -1.62396,-0.36086 -2.16526,-0.5413l1.08263,-5.41314l3.24789,0.27065c2.52613,0.18044 4.51095,0.18044 5.95447,0c0.72177,-0.36089 1.08263,-0.90219 1.08263,-1.62396c-0.18044,-0.72177 -1.80439,-1.08263 -4.87181,-1.08263c-2.70659,-0.36086 -4.60116,-1.35328 -5.68379,-2.97721c-0.5413,-1.26306 -0.81198,-2.70659 -0.81198,-4.33051c0,-2.52615 0.90219,-4.42076 2.70656,-5.68382c1.26306,-0.90219 3.51853,-1.35328 6.76642,-1.35328c3.24789,0 6.49577,0.27065 9.74366,0.81198l-1.08263,5.14249c-3.78921,-0.18046 -6.40556,-0.27068 -7.84905,-0.27068c-1.26306,0.18046 -1.89461,0.63154 -1.89461,1.35331c-0.18044,1.26306 0.81198,1.89458 2.97724,1.89458c3.06745,0 5.32293,0.54133 6.76642,1.62396c1.08263,0.90219 1.62393,2.43591 1.62393,4.60116c0,1.87656 -0.45109,3.50052 -1.35328,4.87184c-0.90219,1.62393 -3.15767,2.61634 -6.76642,2.97724c-3.06745,0.18044 -6.22512,0.09021 -9.47301,-0.27068z"/><path d="M23.82602,159.09695v-22.73521h18.94602v6.49577h-10.82628v1.62396h10.82628v6.49577h-10.82628v1.62393h10.82628v6.49577z"/><path d="M45.4786,159.09695v-22.73521h8.11973v16.23944h10.82628v6.49577z"/><path d="M67.13117,159.09695v-22.73521h18.94602v6.49577h-10.82628v1.62396h10.82628v6.49577h-10.82628v1.62393h10.82628v6.49577z"/><path d="M88.78377,148c0,-3.60876 1.08263,-6.45068 3.24789,-8.52572c2.16526,-2.07504 5.14249,-3.11255 8.93169,-3.11255c3.24789,0 5.50337,0.09021 6.76642,0.27065l-2.43591,7.5784l-0.5413,-0.5413c-1.08263,-0.72177 -2.43591,-0.81198 -4.05986,-0.27065c-1.80439,1.08263 -3.15767,2.25547 -4.05986,3.51853c-0.90219,1.08263 -1.08263,2.43591 -0.5413,4.05986l0.5413,0.5413c0.90219,1.26306 2.43591,1.62396 4.60116,1.08263c1.80439,-1.08263 3.15767,-2.25547 4.05986,-3.51853l3.24789,9.47301c-1.26306,0.72177 -3.78918,1.08263 -7.5784,1.08263c-3.78921,0 -6.76642,-1.17284 -8.93169,-3.51857c-2.16526,-2.34569 -3.24789,-5.05225 -3.24789,-8.11971z"/><path d="M117.7441,159.09695v-15.69811h-6.49577v-7.0371h20.56995v7.0371h-6.49577v15.69811z"/><path d="M154.87829,148.81199l-6.49577,-12.45024h7.5784l2.70656,7.84905l2.70656,-7.84905h7.5784l-6.49577,12.45024v10.28496h-7.5784z"/><path d="M171.65906,148c0,-3.60876 1.08263,-6.45068 3.24789,-8.52572c2.16526,-2.07504 5.14249,-3.11255 8.93169,-3.11255c3.78921,0 6.76642,1.03751 8.93169,3.11255c2.16526,2.07504 3.24789,4.91696 3.24789,8.52572c0,3.06745 -1.08263,5.77401 -3.24789,8.11971c-2.16526,2.34571 -5.14249,3.51857 -8.93169,3.51857c-3.78921,0 -6.76642,-1.17284 -8.93169,-3.51857c-2.16526,-2.34569 -3.24789,-5.05225 -3.24789,-8.11971zM183.56797,143.39885c-1.80439,1.08263 -3.15767,2.25547 -4.05986,3.51853c-0.90219,1.08263 -1.08263,2.43591 -0.5413,4.05986l0.5413,0.5413c0.90219,1.26306 2.43591,1.62396 4.60116,1.08263c1.80439,-1.08263 3.15767,-2.25547 4.05986,-3.51853c1.08263,-1.4435 1.08263,-3.06745 0,-4.87184l-0.5413,-0.5413c-1.08263,-0.72177 -2.43591,-0.81198 -4.05986,-0.27065z"/><path d="M198.72478,149.62394v-13.2622h7.5784v13.2622c0,2.16526 0.90219,3.24789 2.70659,3.24789h0.5413c1.62396,0 2.43591,-1.08263 2.43591,-3.24789v-13.2622h7.0371v13.2622c0,6.4958 -3.24789,9.74369 -9.74369,9.74369c-7.0371,0 -10.55563,-3.24789 -10.55563,-9.74369z"/><path d="M221.73063,159.09695v-22.73521h13.26222c5.41314,0 8.11971,1.98482 8.11971,5.95447v1.08263c0,2.88702 -1.17284,4.7816 -3.51853,5.68379c0.72177,0.36086 1.4435,1.17284 2.16526,2.43591l2.16526,7.5784h-8.11973l-1.62393,-6.22512c-0.36089,-1.62393 -1.35331,-2.43591 -2.97724,-2.43591h-1.62396v8.66103zM232.82758,145.5641c1.44352,0 2.16529,-0.72177 2.16529,-2.16526v-1.08263c0,-1.08263 -0.72177,-1.62396 -2.16529,-1.62396h-3.24789v4.87184z"/><path d="M260.48875,148c0,-3.60876 1.08263,-6.45068 3.24789,-8.52572c2.16526,-2.07504 5.14249,-3.11255 8.93169,-3.11255c3.24789,0 5.50339,0.09021 6.76645,0.27065l-2.43594,7.5784l-0.5413,-0.5413c-1.08263,-0.72177 -2.43594,-0.81198 -4.05986,-0.27065c-1.80436,1.08263 -3.15767,2.25547 -4.05986,3.51853c-0.90219,1.08263 -1.08263,2.43591 -0.5413,4.05986l0.5413,0.5413c0.90219,1.26306 2.43594,1.62396 4.60119,1.08263c1.80436,-1.08263 3.15764,-2.25547 4.05983,-3.51853l3.24792,9.47301c-1.26306,0.72177 -3.78921,1.08263 -7.57843,1.08263c-3.78918,0 -6.76642,-1.17284 -8.93169,-3.51857c-2.16526,-2.34569 -3.24789,-5.05225 -3.24789,-8.11971z"/><path d="M282.95331,159.09695v-22.73521h8.11973v7.84905h5.41314v-7.84905h8.11973v22.73521h-8.11973v-7.84905h-5.41314v7.84905z"/><path d="M307.31247,159.09695l6.76642,-22.73521h12.17959l6.76642,22.73521h-7.84905l-1.35331,-4.33051h-7.5784l-1.08263,4.33051zM322.19863,148.81199l-2.02992,-6.76645l-2.02994,6.76645z"/><path d="M335.7315,159.09695v-22.73521h13.2622c5.41314,0 8.11973,1.98482 8.11973,5.95447v1.08263c0,2.88702 -1.17284,4.7816 -3.51853,5.68379c0.72177,0.36086 1.4435,1.17284 2.16526,2.43591l2.16526,7.5784h-8.11973l-1.62393,-6.22512c-0.36089,-1.62393 -1.35331,-2.43591 -2.97724,-2.43591h-1.62396v8.66103zM346.82844,145.5641c1.4435,0 2.16526,-0.72177 2.16526,-2.16526v-1.08263c0,-1.08263 -0.72177,-1.62396 -2.16526,-1.62396h-3.24789v4.87184z"/><path d="M360.63196,159.09695l6.76642,-22.73521h12.17959l6.76642,22.73521h-7.84905l-1.35328,-4.33051h-7.57843l-1.08263,4.33051zM375.51812,148.81199l-2.02992,-6.76645l-2.02994,6.76645z"/><path d="M389.05099,148c0,-3.60876 1.08263,-6.45068 3.24789,-8.52572c2.16526,-2.07504 5.14249,-3.11255 8.93171,-3.11255c3.24789,0 5.50337,0.09021 6.76642,0.27065l-2.43591,7.5784l-0.54133,-0.5413c-1.08263,-0.72177 -2.43591,-0.81198 -4.05986,-0.27065c-1.80436,1.08263 -3.15767,2.25547 -4.05986,3.51853c-0.90219,1.08263 -1.08263,2.43591 -0.5413,4.05986l0.5413,0.5413c0.90219,1.26306 2.43594,1.62396 4.60119,1.08263c1.80436,-1.08263 3.15767,-2.25547 4.05986,-3.51853l3.24789,9.47301c-1.26306,0.72177 -3.78921,1.08263 -7.5784,1.08263c-3.78921,0 -6.76645,-1.17284 -8.93171,-3.51857c-2.16526,-2.34569 -3.24789,-5.05225 -3.24789,-8.11971z"/><path d="M418.01133,159.09695v-15.69811h-6.49577v-7.0371h20.56998v7.0371h-6.49577v15.69811z"/><path d="M434.79208,159.09695v-22.73521h18.94602v6.49577h-10.82628v1.62396h10.82628v6.49577h-10.82628v1.62393h10.82628v6.49577z"/><path d="M456.44463,159.09695v-22.73521h13.26222c5.41314,0 8.11971,1.98482 8.11971,5.95447v1.08263c0,2.88702 -1.17284,4.7816 -3.51853,5.68379c0.72177,0.36086 1.4435,1.17284 2.16526,2.43591l2.16526,7.5784h-8.11973l-1.62393,-6.22512c-0.36089,-1.62393 -1.35331,-2.43591 -2.97724,-2.43591h-1.62393v8.66103zM467.54161,145.5641c1.4435,0 2.16526,-0.72177 2.16526,-2.16526v-1.08263c0,-1.08263 -0.72177,-1.62396 -2.16526,-1.62396h-3.24789v4.87184z"/></g><g fill="none" stroke="#ff0000" stroke-width="7.5" stroke-miterlimit="10"><path d="M39.50097,121.00002c0,-5.2467 4.52165,-9.5 10.09938,-9.5c5.57773,0 13.8399,9.5 13.8399,9.5c0,0 -8.26216,9.5 -13.8399,9.5c-5.57773,0 -10.09938,-4.2533 -10.09938,-9.5z"/><path d="M75.78394,130.5c-5.57773,0 -13.8399,-9.5 -13.8399,-9.5c0,0 8.26216,-9.5 13.8399,-9.5c5.57773,0 10.09938,4.2533 10.09938,9.5c0,5.2467 -4.52165,9.5 -10.09938,9.5z" data-paper-data="{&quot;index&quot;:null}"/></g><g fill="#ff0000" stroke="none" stroke-width="0.26459" stroke-miterlimit="4"><path d="M97.2676,135.0822v-28.61856h21.13493v8.17673h-12.07709v2.04417h12.07709v8.17673h-12.07709v2.0442h12.07709v8.17673z"/><path d="M121.42181,135.0822v-28.61856h10.26553l6.6424,12.77615v-12.77615h9.05782v28.61856h-10.26553l-6.6424,-12.36732v12.36732z"/><path d="M162.48394,126.90546c1.40899,0 2.51606,-0.45425 3.32119,-1.36279c0.80513,-0.90854 1.20771,-2.27132 1.20771,-4.08836v-1.70351c0,-1.81704 -0.40258,-3.23663 -1.20771,-4.2587c-0.80513,-1.0221 -1.91221,-1.53315 -3.32119,-1.53315h-3.01927v12.94651zM150.40685,106.46363h12.07709c4.22698,0 7.54819,1.30599 9.96361,3.91801c2.41542,2.61201 3.62313,6.18933 3.62313,10.73194c0,3.86124 -1.20771,7.15466 -3.62313,9.88024c-2.41542,2.72558 -5.73663,4.08837 -9.96361,4.08837h-12.07709z"/><path d="M179.08996,135.0822v-28.61856h9.05782v20.44183h12.07709v8.17673z"/><path d="M203.24416,135.0822v-28.61856h21.13492v8.17673h-12.07709v2.04417h12.07709v8.17673h-12.07709v2.0442h12.07709v8.17673z"/><path d="M229.81377,135.0822c-1.00643,-0.22713 -1.81157,-0.45425 -2.41542,-0.68141l1.20771,-6.81394l3.62313,0.34069c2.81799,0.22713 5.03213,0.22713 6.64242,0c0.80513,-0.45425 1.20771,-1.13563 1.20771,-2.04417c-0.20128,-0.90854 -2.01286,-1.36279 -5.43471,-1.36279c-3.01927,-0.45428 -5.13275,-1.70351 -6.34047,-3.74768c-0.60385,-1.58991 -0.90579,-3.40699 -0.90579,-5.45115c0,-3.17983 1.00643,-5.56472 3.01928,-7.15463c1.40899,-1.13566 3.92506,-1.70348 7.54819,-1.70348c3.62313,0 7.24626,0.34069 10.86939,1.02207l-1.20771,6.47325c-4.22698,-0.22713 -7.1456,-0.34069 -8.75589,-0.34069c-1.40899,0.22713 -2.1135,0.79494 -2.1135,1.70348c-0.20128,1.58991 0.90579,2.38489 3.3212,2.38489c3.42185,0 5.93789,0.68137 7.54818,2.04417c1.20771,1.13566 1.81157,3.0663 1.81157,5.79187c0,2.36214 -0.5032,4.40634 -1.50963,6.13253c-1.00643,2.0442 -3.52249,3.29342 -7.54819,3.74767c-3.42185,0.22713 -6.94434,0.1134 -10.56747,-0.34068z"/><path d="M254.87375,135.0822c-1.00643,-0.22713 -1.81157,-0.45425 -2.41542,-0.68141l1.20771,-6.81394l3.62313,0.34069c2.81799,0.22713 5.03213,0.22713 6.6424,0c0.80515,-0.45425 1.20771,-1.13563 1.20771,-2.04417c-0.20128,-0.90854 -2.01284,-1.36279 -5.4347,-1.36279c-3.01927,-0.45428 -5.13277,-1.70351 -6.34048,-3.74768c-0.60385,-1.58991 -0.90577,-3.40699 -0.90577,-5.45115c0,-3.17983 1.00643,-5.56472 3.01927,-7.15463c1.40899,-1.13566 3.92505,-1.70348 7.54818,-1.70348c3.62313,0 7.24626,0.34069 10.86939,1.02207l-1.20771,6.47325c-4.22697,-0.22713 -7.14562,-0.34069 -8.75589,-0.34069c-1.40899,0.22713 -2.1135,0.79494 -2.1135,1.70348c-0.20128,1.58991 0.90579,2.38489 3.32121,2.38489c3.42185,0 5.9379,0.68137 7.54817,2.04417c1.20771,1.13566 1.81158,3.0663 1.81158,5.79187c0,2.36214 -0.5032,4.40634 -1.50963,6.13253c-1.00643,2.0442 -3.52252,3.29342 -7.54821,3.74767c-3.42185,0.22713 -6.94432,0.1134 -10.56745,-0.34068z"/></g><g fill="#71ff33" stroke="none" stroke-width="0.26459" stroke-miterlimit="4"><path d="M101.31842,133.90924v-24.20255h20.16881v6.91502h-11.52503v1.72874h11.52503v6.91502h-11.52503v1.72877h11.52503v6.91502z"/><path d="M124.36848,133.90924v-24.20255h9.79627l6.33876,10.80471v-10.80471h8.64377v24.20255h-9.79627l-6.33876,-10.45897v10.45897z"/><path d="M163.55358,126.99423c1.34458,0 2.40104,-0.38416 3.16937,-1.1525c0.76833,-0.76834 1.1525,-1.92085 1.1525,-3.45751v-1.44065c0,-1.53666 -0.38417,-2.7372 -1.1525,-3.60155c-0.76833,-0.86438 -1.82479,-1.29658 -3.16937,-1.29658h-2.88126v10.94879zM152.02855,109.70668h11.52503c4.03376,0 7.20315,1.10447 9.50815,3.31343c2.30501,2.20897 3.45751,5.23428 3.45751,9.07595c0,3.26543 -1.1525,6.05066 -3.45751,8.35566c-2.30501,2.30501 -5.47439,3.45751 -9.50815,3.45751h-11.52503z"/><path d="M179.4005,133.90924v-24.20255h8.64377v17.28754h11.52503v6.91502z"/><path d="M202.45056,133.90924v-24.20255h20.16879v6.91502h-11.52503v1.72874h11.52503v6.91502h-11.52503v1.72877h11.52503v6.91502z"/><path d="M227.80562,133.90924c-0.96042,-0.19208 -1.72875,-0.38416 -2.30501,-0.57627l1.1525,-5.76251l3.45751,0.28812c2.68918,0.19208 4.8021,0.19208 6.33878,0c0.76833,-0.38416 1.1525,-0.9604 1.1525,-1.72874c-0.19208,-0.76834 -1.92085,-1.1525 -5.18628,-1.1525c-2.88126,-0.38419 -4.89813,-1.44065 -6.05063,-3.16939c-0.57625,-1.34458 -0.86438,-2.88127 -0.86438,-4.61001c0,-2.68916 0.96042,-4.70605 2.88126,-6.05063c1.34458,-0.96042 3.74564,-1.44062 7.20315,-1.44062c3.45751,0 6.91502,0.28812 10.37252,0.86436l-1.1525,5.47439c-4.03376,-0.19208 -6.81896,-0.28812 -8.35564,-0.28812c-1.34458,0.19208 -2.01689,0.67228 -2.01689,1.44062c-0.19208,1.34458 0.86438,2.01689 3.16939,2.01689c3.26543,0 5.66646,0.57624 7.20313,1.72874c1.1525,0.96042 1.72875,2.59315 1.72875,4.89816c0,1.99765 -0.4802,3.72642 -1.44062,5.18625c-0.96042,1.72877 -3.36147,2.78523 -7.20315,3.16939c-3.26543,0.19208 -6.6269,0.0959 -10.0844,-0.28812z"/><path d="M251.72005,133.90924c-0.96042,-0.19208 -1.72875,-0.38416 -2.30501,-0.57627l1.1525,-5.76251l3.45751,0.28812c2.68918,0.19208 4.8021,0.19208 6.33876,0c0.76834,-0.38416 1.1525,-0.9604 1.1525,-1.72874c-0.19208,-0.76834 -1.92082,-1.1525 -5.18626,-1.1525c-2.88126,-0.38419 -4.89814,-1.44065 -6.05065,-3.16939c-0.57625,-1.34458 -0.86437,-2.88127 -0.86437,-4.61001c0,-2.68916 0.96042,-4.70605 2.88126,-6.05063c1.34458,-0.96042 3.74563,-1.44062 7.20313,-1.44062c3.45751,0 6.91502,0.28812 10.37252,0.86436l-1.1525,5.47439c-4.03374,-0.19208 -6.81898,-0.28812 -8.35564,-0.28812c-1.34458,0.19208 -2.01689,0.67228 -2.01689,1.44062c-0.19208,1.34458 0.86438,2.01689 3.16939,2.01689c3.26543,0 5.66647,0.57624 7.20313,1.72874c1.1525,0.96042 1.72877,2.59315 1.72877,4.89816c0,1.99765 -0.4802,3.72642 -1.44062,5.18625c-0.96042,1.72877 -3.3615,2.78523 -7.20316,3.16939c-3.26543,0.19208 -6.62688,0.0959 -10.08439,-0.28812z"/></g><g fill="none" stroke="#71ff33" stroke-width="5" stroke-miterlimit="10"><path d="M42.13332,122.00002c0,-4.69442 4.04569,-8.5 9.03629,-8.5c4.9906,0 12.38306,8.5 12.38306,8.5c0,0 -7.39246,8.5 -12.38306,8.5c-4.9906,0 -9.03629,-3.80558 -9.03629,-8.5z"/><path d="M74.59703,130.50002c-4.99061,0 -12.38306,-8.5 -12.38306,-8.5c0,0 7.39246,-8.5 12.38306,-8.5c4.99061,0 9.03629,3.80558 9.03629,8.5c0,4.69442 -4.04568,8.5 -9.03629,8.5z" data-paper-data="{&quot;index&quot;:null}"/></g></g></g></svg>