<svg version="1.1" xmlns="http://www.w3.org/2000/svg" xmlns:xlink="http://www.w3.org/1999/xlink" width="8.06666" height="11.06173" viewBox="0,0,8.06666,11.06173"><g transform="translate(-235.91667,-174.51913)"><g data-paper-data="{&quot;isPaintingLayer&quot;:true}" fill-rule="nonzero" stroke="none" stroke-linecap="butt" stroke-linejoin="miter" stroke-miterlimit="10" stroke-dasharray="" stroke-dashoffset="0" style="mix-blend-mode: normal"><path d="M235.91667,185.58086v-11.06173h8.06666v11.06173z" fill="#000000" stroke-width="0"/><path d="M239.91738,178.03632c-0.60582,0.48231 -1.07395,0.99907 -1.4044,1.55028c-0.27537,0.41341 -0.33046,0.96463 -0.16523,1.65365l0.16523,0.2067c0.33045,0.55121 0.85365,0.72347 1.56962,0.51676c0.60582,-0.48231 1.07396,-0.99907 1.40441,-1.55028c0.33045,-0.55122 0.33045,-1.20579 0,-1.9637l-0.24784,-0.31006c-0.33045,-0.27561 -0.77105,-0.31006 -1.32179,-0.10335zM236.28249,180.00002c0,-1.37804 0.33045,-2.46324 0.99134,-3.25561c0.66089,-0.79237 1.56963,-1.18855 2.72619,-1.18855c1.15656,0 2.06529,0.39618 2.72619,1.18855c0.66089,0.79237 0.99134,1.87757 0.99134,3.25561c0,1.17133 -0.33045,2.20485 -0.99134,3.10057c-0.6609,0.89572 -1.56963,1.34358 -2.72619,1.34358c-1.15656,0 -2.06529,-0.44786 -2.72619,-1.34358c-0.66089,-0.89572 -0.99134,-1.92924 -0.99134,-3.10057z" fill="#ffffff" stroke-width="0.26458"/></g></g></svg>