<svg version="1.1" xmlns="http://www.w3.org/2000/svg" xmlns:xlink="http://www.w3.org/1999/xlink" width="34.60833" height="36.03723" viewBox="0,0,34.60833,36.03723"><g transform="translate(-217.38516,-164.01909)"><g data-paper-data="{&quot;isPaintingLayer&quot;:true}" fill-rule="nonzero" stroke-miterlimit="10" stroke-dasharray="" stroke-dashoffset="0" style="mix-blend-mode: normal"><path d="M237.71095,177.10564c0.33936,-0.19544 0.5256,-0.08118 0.64889,0.09493c0.18349,0.26213 0.13812,0.50254 -0.11116,0.69267c-0.99488,0.75875 -1.85086,1.44037 -2.50316,2.00487c-0.39768,0.34414 -1.90075,1.74365 -1.90075,1.74365c0,0 -0.07085,-0.08553 -0.35714,-0.23835c-0.28629,-0.15282 -0.45973,-0.66802 -0.45973,-0.66802c0,0 0.90298,-0.73088 1.88873,-1.58394c0.68946,-0.59666 1.76951,-1.45563 2.79434,-2.04583z" data-paper-data="{&quot;index&quot;:null}" fill="#4c2b5c" stroke="none" stroke-width="0" stroke-linecap="butt" stroke-linejoin="miter"/><g data-paper-data="{&quot;index&quot;:null}" stroke-width="0" stroke-linecap="butt" stroke-linejoin="miter"><g data-paper-data="{&quot;index&quot;:null}"><path d="M228.55296,168.21364c-0.13901,-1.05433 0.60617,-2.02216 1.66437,-2.16168c1.05822,-0.13952 2.02876,0.60208 2.16779,1.65641c0.13901,1.05433 -0.60615,2.02216 -1.66435,2.16168c-1.05822,0.13952 -2.02878,-0.60207 -2.16781,-1.65641z" fill="#e0cb17" stroke="none"/><path d="M229.29811,168.75601c-0.08589,-0.65138 0.37447,-1.24929 1.02824,-1.3355c0.65378,-0.08621 1.25338,0.37195 1.33926,1.02332c0.08589,0.65138 -0.37447,1.24929 -1.02824,1.3355c-0.65378,0.08621 -1.25338,-0.37196 -1.33926,-1.02332z" fill="#e0cb17" stroke="#000000"/><path d="M229.42703,172.461c-0.47655,-0.97957 0.15923,-2.17018 0.15923,-2.17018l2.08321,-0.28968c0,0 0.17845,0.18125 0.67846,1.4288c0.51915,1.29537 -0.54371,4.74653 -0.54371,4.74653c0,0 -1.90065,-2.73589 -2.37719,-3.71546z" fill="#e8edf4" stroke="#000000"/><path d="M230.6886,170.37257c-0.50657,0.06909 -1.39455,-0.10669 -1.39455,-0.10669l0.12687,-0.70405c0,0 0.67597,0.31884 1.1296,0.285c0.45361,-0.03384 1.04287,-0.44705 1.04287,-0.44705l0.34395,0.4488c0,0 -0.66992,0.44505 -1.24873,0.524z" fill="#dbded5" stroke="#000000"/></g><g data-paper-data="{&quot;index&quot;:null}" stroke="none"><path d="M237.18449,173.30052c0.19945,-0.02629 0.40538,0.288 0.45997,0.702c0.05459,0.41401 -0.06285,0.77095 -0.2623,0.79724c-0.19945,0.02629 -0.40541,-0.288 -0.45999,-0.702c-0.05459,-0.41401 0.06286,-0.77095 0.26232,-0.79724z" fill="#000000"/><path d="M239.26739,178.34649c0.20776,-0.02739 0.94593,0.78818 0.96996,0.97034c0.02402,0.18217 -0.16715,1.42532 -0.3749,1.45271c-0.20776,0.02739 -1.29245,-0.16515 -1.29245,-0.16515c0,0 0.48964,-2.2305 0.69739,-2.25789z" fill="#807d5a"/><path d="M231.93942,169.17445l0.11064,-0.16713l5.59626,5.21084l-0.05947,0.32308z" fill="#6e6e73"/><path d="M233.97921,170.63418l-0.25878,0.35952l-1.34159,-1.1959l0.28887,-0.36349z" fill="#ddcb1e"/></g></g><g data-paper-data="{&quot;index&quot;:null}" stroke-width="0" stroke-linecap="butt" stroke-linejoin="miter"><g data-paper-data="{&quot;index&quot;:null}"><path d="M249.49041,168.93868c-1.35753,0.17899 -2.60259,-0.77234 -2.78092,-2.12488c-0.17833,-1.35253 0.77758,-2.59409 2.13512,-2.77308c1.35753,-0.17899 2.60259,0.77235 2.78092,2.12489c0.17833,1.35253 -0.77759,2.59408 -2.13512,2.77307z" fill="#e0cb17" stroke="none"/><path d="M249.56358,168.79859c-0.83867,0.11058 -1.60788,-0.47716 -1.71805,-1.31277c-0.11019,-0.83561 0.48038,-1.60263 1.31907,-1.7132c0.83867,-0.11058 1.60788,0.47714 1.71806,1.31276c0.11019,0.83561 -0.48039,1.60264 -1.31907,1.71321z" fill="#e0cb17" stroke="#000000"/><path d="M251.95487,171.71868c-0.26472,1.37214 -1.84487,4.87275 -1.84487,4.87275c0,0 -2.32945,-3.40146 -2.11694,-5.17899c0.20466,-1.71195 0.3655,-1.99585 0.3655,-1.99585l2.67741,-0.33379c0,0 1.18362,1.26374 0.91892,2.6359z" fill="#e8edf4" stroke="#000000"/><path d="M249.69741,169.55061c-0.74337,0.09468 -1.72138,-0.23401 -1.72138,-0.23401l0.27692,-0.67043c0,0 0.86747,0.31604 1.44075,0.20715c0.57328,-0.1089 1.30477,-0.72873 1.30477,-0.72873l0.39128,0.83014c0,0 -1.04173,0.51304 -1.69233,0.59589z" fill="#dbded5" stroke="#000000"/></g><g data-paper-data="{&quot;index&quot;:null}" stroke="none"><path d="M244.22047,177.65325c0.25947,0.39365 0.32516,2.16822 0.32516,2.16822l-3.08607,0.42647c0,0 -1.1751,-1.14524 -1.04486,-2.59849c0.09575,-1.06834 1.45917,-2.55711 1.65703,-2.58927c1.27477,-0.20722 1.88926,2.19942 2.14873,2.59308z" fill="#e4dcaa"/><path d="M243.21268,176.23883c0.07003,0.5311 -0.08062,0.98899 -0.33649,1.02273c-0.25588,0.03374 -0.52007,-0.36945 -0.5901,-0.90055c-0.07003,-0.5311 0.08063,-0.98899 0.33651,-1.02274c0.25588,-0.03374 0.52005,0.36944 0.59008,0.90055z" fill="#000000"/><path d="M244.68016,182.00684c-0.03538,0.85953 -0.31688,2.2682 -0.31688,2.2682l-1.10742,0.6329c0,0 -1.49069,-0.3828 -1.56569,-1.15023c-0.03724,-0.38105 -0.22318,-3.37021 -0.22318,-3.37021l1.11805,-0.93907c0,0 0.60492,-0.02779 0.98021,0.03113c0.37529,0.05892 0.98193,0.32716 0.98193,0.32716c0,0 0.16834,1.34057 0.13297,2.20009z" fill="#dfcc17"/><path d="M243.33455,184.84841c0,0 -1.27988,0.59923 -1.54642,0.63437c-0.26653,0.03515 -0.91674,-1.44157 -0.94756,-1.67526c-0.03082,-0.23368 0.61259,-1.48963 0.87913,-1.52476c0.26653,-0.03515 1.61483,2.56562 1.61483,2.56562z" fill="#807d5a"/><path d="M242.53658,177.00931l-0.18111,-0.38051l5.20106,-8.31701l0.19267,0.17028z" fill="#6e6e73"/><path d="M246.93327,169.04621l0.47878,0.35429l-1.26459,1.92779l-0.44019,-0.3594z" fill="#ddcb1e"/></g></g><g data-paper-data="{&quot;index&quot;:null}" stroke="none" stroke-width="0" stroke-linecap="butt" stroke-linejoin="miter"><g><path d="M243.21786,192.16255c0,0 1.55428,0.32649 1.46709,1.66806c-0.00811,0.12466 -0.28474,0.10613 -0.28474,0.10613l0.23966,0.29171l-0.24999,0.7447l-0.2217,-0.10536c0,0 -0.6196,0.72798 -0.77311,1.12443c-0.15306,0.39531 -0.14655,1.25089 -0.14655,1.25089l0.08763,0.18761l-0.31383,0.72678l-0.16549,-0.0682l-0.12369,0.19423c0,0 0.24668,0.16342 -0.11603,0.47125c-0.11652,0.09891 -0.43935,0.48052 -0.43935,0.48052l-0.13945,-0.11276l-0.15774,0.07096c0,0 0.12151,0.24465 -0.00346,0.30004c-0.14982,0.06638 -0.48814,0.31046 -0.74676,0.38693c-0.10017,0.02963 -0.00397,-0.11184 -0.10303,-0.09072c-0.06452,0.01377 -0.08257,0.04772 -0.15015,0.06293c-0.10954,0.02465 0.03941,0.08379 -0.03352,0.12746c-0.05966,0.03569 -0.25558,0.06084 -0.42317,0.07362c-0.16759,0.01278 -0.33826,-0.02652 -0.33826,-0.02652l-0.06327,-0.1631l-0.24454,0.08765c0,0 -0.32698,-0.14293 -0.45187,-0.319c-0.12488,-0.17606 -0.13191,-0.50396 -0.13191,-0.50396c0,0 0.61738,0.17482 0.9952,0.13859c3.12031,-1.03833 2.48025,-2.65673 2.77752,-4.5452c0.1372,-0.87157 0.52393,-1.23301 0.50511,-1.79903c-0.01546,-0.46459 -0.25064,-0.7606 -0.25064,-0.7606z" data-paper-data="{&quot;index&quot;:null}" fill="#a87643"/><path d="M240.49529,194.33687c-0.24196,-0.99201 -1.06741,-4.37565 -0.86066,-4.60841c0.27805,-0.28972 1.96665,-0.93531 1.96665,-0.93531c0,0 0.23461,0.65305 0.33382,1.04893c0.09922,0.39589 0.46302,1.59818 0.46302,1.59818c0,0 1.14931,0.79042 1.16282,1.4791c0.0181,0.92343 -1.41651,3.56837 -1.41651,3.56837c0,0 -1.22661,-0.41847 -1.64915,-2.15087z" data-paper-data="{&quot;index&quot;:null}" fill="#fc6293"/><path d="M240.08078,188.93626c0.24926,0.13885 -0.39918,0.74492 -0.39918,0.74492c0,0 -0.11183,0.23781 -0.05021,0.54285c0.1014,0.50185 0.33106,1.23393 0.45934,2.01306c0.14606,0.88711 0.36516,1.89987 0.5474,2.39418c0.22483,0.60984 1.1613,1.71864 1.52491,1.70363c0.03561,-0.00146 0.05538,-0.30478 0.04892,-0.50364c0.02579,-0.52913 -0.05098,-0.37354 0.04443,-1.08055c0.08842,-0.56781 0.75375,-0.12412 0.75375,-0.12412c0,0 0.1679,3.2189 -1.5105,4.33452c-1.26524,0.84097 -2.28964,0.22292 -2.29816,0.21956c-0.01528,-0.00602 -0.46824,-0.96173 -0.52182,-1.66381c-0.0149,-0.19516 0.61721,-1.17326 0.5842,-2.04142c-0.03071,-0.8078 -0.023,-2.17545 -0.15911,-3.0595c-0.24379,-1.58354 -0.74092,-2.78835 -0.55148,-2.93166c0.63231,-0.47842 1.37254,-0.63436 1.52754,-0.54802z" data-paper-data="{&quot;index&quot;:null}" fill="#f3e2e2"/><path d="M239.26759,195.68091c0,0 -0.12919,-2.14896 -0.17741,-2.77543c-0.06673,-0.86718 -0.30201,-1.66831 -0.63887,-3.1057c-0.0586,-0.25007 0.29458,-0.49404 0.29458,-0.49404l0.12712,0.05013c0,0 -0.29953,0.25448 -0.27632,0.4538c0.04613,0.39624 0.40085,1.82148 0.62893,2.99179c0.1729,0.88709 0.16995,2.24443 0.16995,2.24443z" data-paper-data="{&quot;index&quot;:null}" fill="#bfa4a4"/><path d="M241.07658,192.96096l-0.33384,-1.1697l0.61728,-0.16025l0.27891,1.14802z" data-paper-data="{&quot;index&quot;:null}" fill="#fffff6"/><path d="M240.74695,191.1699l-0.19035,-0.99903l0.54949,-0.15877l0.23348,0.93481z" data-paper-data="{&quot;index&quot;:null}" fill="#fffff6"/><path d="M238.81871,191.18043l-0.26568,-0.87701c0,0 0.65549,0.11415 1.07564,0.08567c0.42015,-0.02848 0.91586,-0.22067 0.91586,-0.22067l0.20443,0.99466c0,0 -0.71324,0.17245 -1.19662,0.15033c-0.48338,-0.02212 -0.73363,-0.13297 -0.73363,-0.13297z" data-paper-data="{&quot;index&quot;:null}" fill="#754c86"/><path d="M240.13696,193.18989c-0.4019,0.05594 -1.01162,0.03372 -1.01162,0.03372c0,0 -0.03813,-0.39431 -0.06977,-0.64584c-0.03164,-0.25153 -0.10247,-0.72325 -0.10247,-0.72325c0,0 0.65935,0.08014 1.04535,0.06419c0.38601,-0.01596 0.79289,-0.13223 0.79289,-0.13223l0.31698,1.1824c0,0 -0.56948,0.16505 -0.97137,0.221z" data-paper-data="{&quot;index&quot;:null}" fill="#754c86"/><path d="M241.42623,188.88373l-1.63943,0.05202c0,0 0.08119,-0.06408 0.43089,-0.10374c0.34968,-0.03966 0.67244,-0.10999 0.80336,-0.11837c0.2163,-0.01384 0.56426,0.0914 0.56426,0.0914z" data-paper-data="{&quot;index&quot;:null}" fill="#ae8484"/><path d="M238.93749,189.51163c-0.04391,-0.19624 0.31308,-0.40455 1.14843,-0.59155c0.83533,-0.187 1.32565,-0.02742 1.32565,-0.02742c0,0 -0.63471,0.28066 -0.9683,0.40919c-0.67834,0.27252 -0.56734,0.31219 -0.94496,0.37803c-0.37763,0.06584 -0.52427,-0.01328 -0.55695,-0.15929z" data-paper-data="{&quot;index&quot;:null}" fill="#532c31"/></g><path d="M239.96531,188.886c0,0 -0.01847,-0.7362 0.22763,-0.99571c0.24611,-0.25952 0.59844,-0.42013 0.83334,-0.12304c0.23488,0.2971 -0.13784,0.99055 -0.13784,0.99055z" fill="#fc6293"/></g><g data-paper-data="{&quot;index&quot;:null}" stroke="none" stroke-width="0" stroke-linecap="butt" stroke-linejoin="miter"><path d="M239.97343,183.79066l0.45788,3.43287l0.16197,2.09534l-1.1313,0.42985l-0.26645,-1.91051l-0.44785,-3.72032z" data-paper-data="{&quot;index&quot;:null}" fill="#8e5173"/><path d="M240.36126,186.73224l0.07003,0.4913l0.16197,2.09534l-1.1313,0.42985l-0.26645,-1.91051l-0.07576,-0.75819z" data-paper-data="{&quot;index&quot;:null}" fill="#a71e48"/><path d="M239.14502,187.34914l-0.03596,-0.27272l1.24409,-0.34359l0.04988,0.25457z" fill="#af2753"/><path d="M239.20847,187.83043l-0.03596,-0.27272l1.24409,-0.34359l0.04988,0.25457z" fill="#a19589"/></g><path d="M241.07235,182.39426l1.3442,0.5042l2.77882,0.62732c0,0 -2.17535,0.44183 -3.05524,0.27909c-0.80973,-0.14977 -2.38987,-1.57171 -2.38987,-1.57171z" data-paper-data="{&quot;index&quot;:null}" fill="#f79db4" stroke="none" stroke-width="0" stroke-linecap="butt" stroke-linejoin="miter"/><path d="M230.07444,182.85734c0.61234,-0.59067 1.77046,-1.41986 1.77046,-1.41986l2.24194,1.00065c0,0 0.23517,0.27762 0.24713,0.83898c0.00777,0.36456 -0.29006,0.88821 -0.29006,0.88821c0,0 0.61435,-0.35757 0.84444,0.17167c0.14774,0.33981 -0.56413,1.19043 -0.88425,1.42673c-0.18845,0.13911 -0.6002,0.26886 -0.93339,0.21978c-0.21017,-0.03095 -0.42247,-0.23313 -0.42247,-0.23313c0,0 -0.25234,0.27946 -0.5727,0.03742c-0.09816,-0.07415 -0.25326,-0.14783 -0.25326,-0.14783c0,0 -0.24275,0.14313 -0.39263,0.16385c-0.14989,0.02072 -0.38014,-0.07635 -0.38014,-0.07635l-0.20756,-0.36456c0,0 -0.53801,0.05653 -0.6401,0.01316c-0.40054,-0.1701 -0.39372,-0.65259 -0.39175,-0.91157c0.00362,-0.47419 0.16676,-1.51308 0.26433,-1.60717z" data-paper-data="{&quot;index&quot;:null}" fill="#f44a7d" stroke="none" stroke-width="0" stroke-linecap="butt" stroke-linejoin="miter"/><g data-paper-data="{&quot;index&quot;:null}" stroke="none" stroke-width="0" stroke-linecap="butt" stroke-linejoin="miter"><path d="M242.6738,188.13649c0,0 0.04205,-0.73522 0.30866,-0.97366c0.26659,-0.23843 0.63094,-0.36956 0.84063,-0.05418c0.20968,0.31538 -0.21872,0.97586 -0.21872,0.97586z" fill="#f3e2e2"/><g><path d="M245.74266,191.29298c0,0 1.6651,0.11531 1.76816,1.5244c0.00957,0.13093 -0.28107,0.1516 -0.28107,0.1516l0.29164,0.26901l-0.15263,0.81132l-0.24599,-0.07765c0,0 -0.53981,0.84732 -0.64231,1.28218c-0.1022,0.43362 0.02818,1.32329 0.02818,1.32329l0.11833,0.18262l-0.22169,0.8019l-0.18211,-0.04708l-0.1007,0.22006c0,0 0.2804,0.13447 -0.05269,0.50731c-0.10701,0.1198 -0.38792,0.56367 -0.38792,0.56367l-0.16143,-0.09723l-0.15394,0.09665c0,0 0.16183,0.23712 0.03975,0.31282c-0.14635,0.09076 -0.46327,0.39369 -0.72144,0.51067c-0.10001,0.04531 -0.0203,-0.11585 -0.12037,-0.07956c-0.06518,0.02363 -0.07904,0.06158 -0.14721,0.08719c-0.11045,0.04147 0.05315,0.08154 -0.01649,0.1375c-0.05694,0.04578 -0.25725,0.10027 -0.42988,0.13778c-0.17262,0.03752 -0.35593,0.02125 -0.35593,0.02125l-0.08943,-0.16063l-0.24189,0.12656c0,0 -0.36101,-0.10155 -0.51645,-0.26678c-0.15543,-0.16523 -0.21011,-0.50553 -0.21011,-0.50553c0,0 0.66792,0.09279 1.05597,0.00048c3.0981,-1.53168 2.19798,-3.12388 2.2346,-5.13265c0.01691,-0.92708 0.36724,-1.35919 0.26588,-1.94569c-0.08319,-0.4814 -0.37079,-0.75554 -0.37079,-0.75554z" data-paper-data="{&quot;index&quot;:null}" fill="#a87643"/><path d="M243.22271,193.94971c-0.39519,-0.9977 -1.74331,-4.40065 -1.56172,-4.67281c0.24757,-0.34175 1.91205,-1.25776 1.91205,-1.25776c0,0 0.33857,0.6459 0.49904,1.04366c0.16047,0.39777 0.71288,1.59674 0.71288,1.59674c0,0 1.31057,0.65673 1.42413,1.37166c0.15227,0.95865 -0.95894,3.91919 -0.95894,3.91919c0,0 -1.33731,-0.25838 -2.02745,-2.0007z" data-paper-data="{&quot;index&quot;:null}" fill="#f3e2e2"/><path d="M242.01105,188.38779c0.27953,0.10852 -0.30789,0.8331 -0.30789,0.8331c0,0 -0.08206,0.2637 0.02616,0.57233c0.17805,0.50776 0.52289,1.23663 0.769,2.02914c0.2802,0.90234 0.65421,1.9363 0.91532,2.42454c0.32215,0.60233 1.45758,1.60986 1.83392,1.5417c0.03684,-0.00666 0.0136,-0.32527 -0.02185,-0.53134c-0.04959,-0.55453 -0.10704,-0.38147 -0.10988,-1.13122c0.00999,-0.60385 0.76669,-0.2381 0.76669,-0.2381c0,0 0.63986,3.32647 -0.94612,4.73029c-1.19554,1.05822 -2.3512,0.56287 -2.36056,0.56059c-0.01677,-0.00407 -0.62638,-0.93347 -0.78359,-1.65655c-0.0437,-0.20102 0.47298,-1.31049 0.31319,-2.20943c-0.14868,-0.83644 -0.33826,-2.26122 -0.60767,-3.16181c-0.48258,-1.61316 -1.17412,-2.79552 -0.99764,-2.97206c0.58908,-0.58937 1.3371,-0.85865 1.51092,-0.79118z" data-paper-data="{&quot;index&quot;:null}" fill="#fc6293"/><path d="M242.13902,195.52615c0,0 -0.44497,-2.21831 -0.58566,-2.86346c-0.19476,-0.89305 -0.55542,-1.69301 -1.11375,-3.14058c-0.09714,-0.25184 0.23527,-0.55683 0.23527,-0.55683l0.13957,0.03382c0,0 -0.27502,0.30817 -0.22206,0.51232c0.10527,0.40581 0.68043,1.83817 1.08696,3.02345c0.30814,0.89844 0.50118,2.31179 0.50118,2.31179z" data-paper-data="{&quot;index&quot;:null}" fill="#766565"/><path d="M243.62905,192.43344l-0.5165,-1.16938l0.61942,-0.25599l0.4562,1.15475z" data-paper-data="{&quot;index&quot;:null}" fill="#fffff6"/><path d="M243.02717,190.61664l-0.34248,-1.01246l0.54906,-0.24465l0.3781,0.93936z" data-paper-data="{&quot;index&quot;:null}" fill="#fffff6"/><path d="M240.61827,190.03167c0,0 0.69881,0.02414 1.13206,-0.06622c0.43324,-0.09035 0.92148,-0.36203 0.92148,-0.36203l0.35651,1.00584c0,0 -0.71754,0.28255 -1.22391,0.32938c-0.50638,0.0468 -0.78289,-0.03242 -0.78289,-0.03242z" data-paper-data="{&quot;index&quot;:null}" fill="#754c86"/><path d="M241.63586,192.98877c0,0 -0.09666,-0.40493 -0.16594,-0.66221c-0.06927,-0.25726 -0.21115,-0.73807 -0.21115,-0.73807c0,0 0.69793,-0.01184 1.09744,-0.08421c0.39951,-0.07238 0.80626,-0.2522 0.80626,-0.2522l0.50079,1.18503c0,0 -0.56894,0.25408 -0.97922,0.37039c-0.41026,0.11631 -1.04818,0.18125 -1.04818,0.18125z" data-paper-data="{&quot;index&quot;:null}" fill="#754c86"/><path d="M243.40397,188.13871l-1.69904,0.29101c0,0 0.07526,-0.07845 0.43354,-0.17026c0.35828,-0.0918 0.6841,-0.21164 0.81916,-0.23928c0.22315,-0.04564 0.60058,0.01363 0.60058,0.01363z" data-paper-data="{&quot;index&quot;:null}" fill="#ae8484"/><path d="M240.90402,189.15191c-0.07407,-0.19793 0.26745,-0.46636 1.10998,-0.78171c0.84252,-0.31534 1.37598,-0.22008 1.37598,-0.22008c0,0 -0.62015,0.38387 -0.94884,0.56583c-0.66677,0.38169 -0.54547,0.40693 -0.92906,0.53004c-0.38358,0.12309 -0.54765,0.06193 -0.60276,-0.08535z" data-paper-data="{&quot;index&quot;:null}" fill="#532c31"/></g></g><g data-paper-data="{&quot;index&quot;:null}" stroke="none" stroke-width="0" stroke-linecap="butt" stroke-linejoin="miter"><path d="M241.23612,183.81644l1.12192,3.60638l0.3724,1.12925l-1.26028,0.7673l-0.42405,-1.43908l-1.14197,-3.97998z" data-paper-data="{&quot;index&quot;:null}" fill="#8e5173"/><path d="M241.97702,186.21268l0.38108,1.21013l0.3724,1.12925l-1.26028,0.7673l-0.42405,-1.43908l-0.33748,-1.24114z" data-paper-data="{&quot;index&quot;:null}" fill="#c5c0b5"/><path d="M241.97702,186.21268l0.06686,0.22654l-1.26839,0.45827l-0.06681,-0.25834z" data-paper-data="{&quot;index&quot;:null}" fill="#af2753"/><path d="M242.12067,186.68338l0.06686,0.22655l-1.26839,0.45826l-0.06681,-0.25834z" data-paper-data="{&quot;index&quot;:null}" fill="#af2753"/></g><g data-paper-data="{&quot;index&quot;:null}" stroke="none" stroke-width="0" stroke-linecap="butt" stroke-linejoin="miter"><path d="M233.00459,182.46415c-0.82669,-0.25229 -1.45758,-0.58547 -1.14685,-1.6037c0.31075,-1.01825 1.02016,-0.94238 1.84685,-0.69011c0.82669,0.25229 1.47382,0.59042 1.14686,1.6037c-0.3269,1.01304 -1.02016,0.94238 -1.84686,0.69011z" fill="#fed000"/><path d="M233.06896,182.25316c-1.07711,-0.3287 -1.91822,-0.70018 -1.66464,-1.53109c0.25358,-0.83091 1.15879,-0.66945 2.2359,-0.34075c1.07711,0.3287 1.93938,0.70663 1.66464,1.53109c-0.27467,0.82426 -1.15879,0.66945 -2.2359,0.34075z" fill="#e68b9c"/></g><path d="M236.02836,183.35544c0,0 1.60438,1.05771 3.87947,0.84984c2.63939,-0.28472 4.14385,-1.68717 4.14385,-1.68717l0.29684,0.34142c0,0 -1.87233,1.26164 -4.42076,1.67861c-2.15515,0.20294 -4.04906,-0.77753 -4.04906,-0.77753z" data-paper-data="{&quot;index&quot;:null}" fill="#ee3377" stroke="none" stroke-width="0" stroke-linecap="butt" stroke-linejoin="miter"/><path d="M241.08951,179.46721l1.45917,1.51175l1.54611,1.61493c0,0 -1.1624,1.03508 -3.688,1.61177c-1.94113,0.41418 -4.39883,-0.77692 -4.39883,-0.77692l1.56846,-3.46832z" data-paper-data="{&quot;index&quot;:null}" fill="#fcf4f4" stroke="none" stroke-width="0" stroke-linecap="butt" stroke-linejoin="miter"/><path d="M236.24255,182.94167c0,0 1.10383,1.05421 3.48335,0.83529c2.63939,-0.28472 3.979,-1.5867 3.979,-1.5867l0.10291,0.11015c0,0 -1.06033,1.13991 -4.05357,1.63019c-2.15514,0.20294 -3.58064,-0.83658 -3.58064,-0.83658z" data-paper-data="{&quot;index&quot;:null}" fill="#ee3377" stroke="none" stroke-width="0" stroke-linecap="butt" stroke-linejoin="miter"/><g data-paper-data="{&quot;index&quot;:null}" stroke="none" stroke-width="0" stroke-linecap="butt" stroke-linejoin="miter"><path d="M241.67318,185.65513l-1.69245,-6.16637l1.90415,0.59041l4.31912,2.83942c0,0 -1.24711,1.37743 -2.23124,1.81254c-0.98413,0.43511 -2.29958,0.924 -2.29958,0.924z" fill="#fab5b7"/><path d="M246.17999,182.91332l0.51266,0.29084c0,0 -1.28614,1.21633 -2.24798,1.79569c-0.96183,0.57935 -2.69651,1.18261 -2.69651,1.18261l-0.08036,-0.56617c0,0 1.62718,-0.51404 2.55425,-1.06937c0.92706,-0.55535 1.95793,-1.63356 1.95793,-1.63356z" fill="#fed000"/></g><path d="M238.03127,180.28787l0.32077,-0.53537l1.57338,-0.09207l0.45734,0.52891z" data-paper-data="{&quot;index&quot;:null}" fill="#aa4455" stroke="none" stroke-width="0" stroke-linecap="butt" stroke-linejoin="miter"/><g data-paper-data="{&quot;index&quot;:null}" stroke-width="0" stroke-linecap="butt" stroke-linejoin="miter"><path d="M217.38555,181.73486c0,0 -0.14367,-4.67049 5.07002,-4.88833c2.00196,-0.08364 3.34539,0.48055 4.79814,1.6673c1.53289,1.25224 0.42991,3.96211 0.42991,3.96211l-9.04303,0.86072z" fill="#ffff00" stroke="none"/><path d="M218.29618,182.92998l-0.3345,-0.4108c0,0 0.08141,-0.95939 0.24318,-1.31627c0.34693,-0.76537 0.50129,-1.09955 0.62385,-0.69213c0.06095,0.20257 -0.27608,0.65789 -0.38845,1.10444c-0.16792,0.66729 -0.14409,1.31477 -0.14409,1.31477z" fill="#a58c48" stroke="#000000"/><path d="M220.67756,178.75661c-0.01286,-0.18777 0.5973,-0.74417 1.93467,-0.79562c0.89608,-0.03447 2.4188,0.14875 2.39331,0.61963c-0.02326,0.43 -1.50575,-0.19823 -2.4004,-0.13693c-0.89464,0.06129 -1.91471,0.50065 -1.92757,0.31291z" fill="#a58c48" stroke="#000000"/><path d="M227.677,181.79324c0,0 -0.05988,-0.41857 -0.26,-0.85622c-0.18524,-0.40509 -0.58833,-0.6591 -0.4178,-0.82531c0.06003,-0.05849 0.41678,-0.0656 0.58846,0.29481c0.1912,0.40143 0.26469,1.01305 0.26469,1.01305l-0.17533,0.37368z" fill="#a58c48" stroke="#000000"/><path d="M223.16329,183.95104c2.54272,-0.24248 4.68493,1.53982 4.68493,1.53982l0.12195,0.58215c0,0 -2.37629,-2.29633 -5.75597,-1.37378c-2.12368,0.57971 -3.37933,2.36138 -3.37933,2.36138c0,0 -0.03022,0.28982 -0.07032,-0.30519c-0.04008,-0.59499 0.02655,-0.38478 0.02655,-0.38478c0,0 0.8043,-2.07935 4.37217,-2.41958z" fill="#edeee6" stroke="none"/><path d="M227.80042,182.05503l-0.09337,0.38629c0,0 -2.48346,-2.76913 -5.79307,-1.7767c-2.07967,0.62362 -3.27512,2.66552 -3.27512,2.66552l-0.20512,-0.27192c0,0 0.83,-2.88444 4.38153,-3.36596c2.80243,-0.37994 4.98516,2.36276 4.98516,2.36276z" fill="#edeee6" stroke="none"/><path d="M222.89917,180.10274c2.55371,-0.24324 4.82021,2.24384 4.82021,2.24384l0.22341,3.32644c0,0 -2.38581,-2.29566 -5.78025,-1.37212c-2.13299,0.58033 -3.39455,2.36241 -3.39455,2.36241c0,0 -0.18228,-0.9168 -0.22236,-1.51183c-0.04007,-0.59499 0.01695,-1.53801 0.01695,-1.53801c0,0 0.75332,-3.16946 4.33661,-3.51076z" fill="#754c86" stroke="none"/><path d="M225.07187,187.27622c-1.33646,0.09157 -7.19843,2.56277 -7.19843,2.56277c0,0 0.20546,-5.24169 6.03843,-5.41681c3.05877,-0.09185 4.48874,1.4715 5.04739,2.74226c0.3571,0.81226 0.17477,1.58044 0.17477,1.58044c0,0 -2.7257,-1.56021 -4.06215,-1.46867z" fill="#ffff00" stroke="none"/><path d="M223.35649,185.30412c-0.89582,0.06139 -2.00135,0.40884 -2.00893,0.29839c-0.00758,-0.11044 0.76297,-0.65505 2.01604,-0.7811c0.69397,-0.06981 2.04649,0.06631 2.25823,0.40786c0.1431,0.23085 -1.56952,0.02717 -2.26535,0.07483z" fill="#a58c48" stroke="#000000"/><path d="M218.40209,187.7734l0.22436,-0.53778c0,0 1.10064,-1.17782 1.01335,-0.7526c-0.05601,0.27288 -1.23771,1.29037 -1.23771,1.29037z" fill="#a58c48" stroke="#000000"/><path d="M227.1483,185.80784c-0.02573,-0.37554 1.31099,0.54011 1.31099,0.54011l0.39466,0.73539c0,0 -1.67994,-0.89996 -1.70567,-1.27551z" fill="#a58c48" stroke="#000000"/><path d="M223.44199,192.92715c-2.73663,0.2217 -5.42489,-1.38698 -5.54294,-3.11c-0.11805,-1.72303 2.51593,-3.46928 5.25222,-3.69526c2.85643,-0.23589 5.88442,0.83942 6.00246,2.56246c0.16464,2.403 -2.49359,4.00751 -5.70999,4.26807z" fill="#ffff00" stroke="#000000"/><path d="M219.24827,191.41883c-0.07114,-1.03824 1.84997,-2.01546 4.29093,-2.18271c2.44096,-0.16726 4.47742,0.53883 4.54855,1.57706c0.07114,1.03824 -1.84998,2.01547 -4.29095,2.18273c-2.44096,0.16726 -4.47741,-0.53884 -4.54854,-1.57707z" fill="#ffff00" stroke="#000000"/><path d="M230.03743,185.58781c0,0 0.17797,-0.58102 0.18472,-0.98843c0.00675,-0.40741 -0.15122,-1.03304 -0.15122,-1.03304l4.29402,0.28019l7.01523,0.36974c0,0 0.32417,0.52047 0.32887,0.75324c0.00468,0.23277 -0.43421,0.56582 -0.43421,0.56582l-7.06615,0.04308l-4.17128,0.00936z" fill="#fbdd00" stroke="none"/><path d="M227.71372,185.61286l-0.46748,-2.71056c0,0 2.53112,0.14091 2.73157,0.4222c0.33952,0.47639 0.22344,2.19898 -0.09159,2.47001c-0.08299,0.0714 -1.91369,0.06887 -1.91369,0.06887z" fill="#c8c8c6" stroke="none"/><path d="M217.41181,181.53215c0,0 -0.27855,-4.12341 4.5936,-5.09681c3.28733,-0.65679 5.47342,2.41238 5.47342,2.41238c0,0 -1.09057,-1.08129 -2.42556,-1.60607c-1.08048,-0.42473 -2.43361,-0.42877 -3.55293,-0.17988c-0.75294,0.16742 -1.54824,0.36454 -2.0501,0.69459c-2.06892,1.36061 -2.03842,3.77578 -2.03842,3.77578z" fill="#ffff00" stroke="#000000"/><path d="M238.34809,185.55801c0,0 -0.08376,-0.37939 -0.07701,-0.78679c0.00675,-0.40741 0.09926,-0.72871 0.09926,-0.72871l3.00993,0.17376c0,0 0.32416,0.52048 0.32886,0.75324c0.00468,0.23277 -0.43421,0.56582 -0.43421,0.56582z" fill="#a56402" stroke="none"/></g><path d="M238.29912,170.60339c0,0 0.5241,-0.74958 1.29547,-0.94295c0.68837,-0.17257 1.0247,-0.0173 1.54385,0.43189c0.78642,0.68042 0.5747,2.06369 0.5747,2.06369c0,0 0.08571,-2.05411 -1.50606,-2.34401c-0.9848,-0.17935 -1.90796,0.7914 -1.90796,0.7914z" data-paper-data="{&quot;index&quot;:null}" fill="#000000" stroke="none" stroke-width="0" stroke-linecap="butt" stroke-linejoin="miter"/><path d="M238.73574,165.58353c3.30953,-0.43638 6.29753,1.52371 6.67387,4.37796c0.37634,2.85426 -2.00148,5.52182 -5.31101,5.95819c-3.30953,0.43638 -6.29753,-1.52369 -6.67388,-4.37794c-0.37634,-2.85426 2.00148,-5.52183 5.31102,-5.9582z" data-paper-data="{&quot;index&quot;:null}" fill="#f79eb4" stroke="none" stroke-width="0" stroke-linecap="butt" stroke-linejoin="miter"/><path d="M234.3469,172.69452c-0.00029,-0.00067 0.34825,1.13151 0.83616,1.72022c0.48792,0.58871 2.25213,2.09529 2.25213,2.09529l0.39929,0.86639c0,0 -1.47463,0.13622 -2.95858,-1.85623c-0.92423,-1.23372 -1.03328,-2.28902 -1.02496,-2.27386" data-paper-data="{&quot;index&quot;:null}" fill="#f79eb4" stroke="#f89db5" stroke-width="0" stroke-linecap="butt" stroke-linejoin="round"/><g data-paper-data="{&quot;index&quot;:null}" fill="#ffd5c5" stroke="none" stroke-width="1" stroke-linecap="round" stroke-linejoin="round"><path d="M235.57459,174.94862c0.00513,-0.05945 0.11406,0.0446 0.16207,0.08002c0.29676,0.21867 0.55104,-0.11323 0.72652,-0.29218c0.13486,-0.13746 0.3727,-0.23236 0.55936,-0.25922c0.89936,-0.11977 2.70673,0.23727 3.01954,0.20951c0.29115,-0.02583 1.07102,-0.60191 1.36477,-0.74713c0.30137,-0.14899 0.58282,-0.08422 0.63562,-0.05345c0.1107,0.06456 0.88821,0.4655 0.07207,1.61465c-0.1134,0.15966 -0.87886,0.79322 -1.34043,0.91046c-0.38704,0.09827 -1.72995,0.47512 -2.81267,0.2647c-0.86288,-0.16771 -1.41695,-0.49022 -1.4877,-0.53167c-0.43239,-0.25349 -0.94592,-0.65023 -0.89915,-1.19567z"/><path d=""/></g><g data-paper-data="{&quot;index&quot;:null}" fill="#000000" stroke="none" stroke-width="1" stroke-linecap="round" stroke-linejoin="round"><path d="M236.83768,175.17104c-0.10803,0.02166 -0.5155,-0.17352 -0.37414,-0.30889c0.08172,-0.07825 0.59855,-0.20542 0.76064,-0.11781c0.21324,0.11529 -0.1541,0.36021 -0.3865,0.4267z"/><path d=""/></g><path d="M243.91902,170.60618c0.02443,0.01065 0.16503,2.30127 0.08691,2.83891c-0.11725,0.80673 -0.37428,1.5939 -0.81791,2.28109c-0.18863,0.29215 -0.39169,0.53963 -0.62533,0.7932c-0.07563,0.0821 -0.39966,0.36126 -0.39966,0.36126c0,0 0.24525,-1.06956 0.06914,-2.71873c-0.09354,-0.87575 -0.46748,-2.79203 -0.44027,-2.74214" data-paper-data="{&quot;index&quot;:null}" fill="#f79eb4" stroke="#f89db5" stroke-width="0" stroke-linecap="butt" stroke-linejoin="round"/><path d="M245.19911,169.76195c0.22516,0.33289 0.36733,2.19666 0.17896,3.59207c-0.14517,1.07538 -0.38505,1.39179 -0.80415,2.00909c-0.47464,0.69907 -0.8741,0.81575 -0.8741,0.81575c0,0 0.31207,-1.20696 0.35554,-1.99763c0.04349,-0.79067 -0.03025,-3.60602 -0.04668,-3.61864" data-paper-data="{&quot;index&quot;:null}" fill="#f79eb4" stroke="#f89db5" stroke-width="0" stroke-linecap="butt" stroke-linejoin="round"/><g data-paper-data="{&quot;index&quot;:null}" fill="#ff4488" stroke="none" stroke-width="1" stroke-linecap="round" stroke-linejoin="round"><path d="M234.86398,168.06967c0.07582,-0.12901 2.03261,-2.19214 4.81442,-2.0972c3.44348,0.15615 4.31325,4.18072 4.31076,4.1804c-0.03478,-0.00443 -0.7784,-1.48924 -1.73863,-2.0568c-1.24509,-0.73598 -1.96642,-1.16362 -3.23328,-1.21533c-1.60735,-0.06562 -3.61361,1.60184 -3.69215,1.66861"/><path d=""/></g><g data-paper-data="{&quot;index&quot;:null}" stroke="none" stroke-width="1" stroke-linecap="round" stroke-linejoin="round"><g fill="#f79eb4"><path d="M238.86616,167.32348c0.02411,-0.15665 0.88281,-1.04899 1.61026,-1.51824c0.72746,-0.46923 1.45915,-0.7883 1.64762,-0.58323c0.14416,0.15687 0.31491,1.00937 0.40072,1.68022c0.0858,0.67085 0.00254,1.30634 0.02713,1.66502"/></g><g fill="#ffd5c5"><path d="M239.56396,167.39768c0.07788,-0.1722 0.44879,-0.60356 0.84153,-0.8659c0.39273,-0.26234 1.20445,-0.65655 1.29868,-0.56376c0.02323,0.02289 0.19038,0.76122 0.24111,1.25915c0.05074,0.49793 -0.01273,0.90298 -0.01208,0.98849"/></g></g><g data-paper-data="{&quot;index&quot;:null}" fill="#f79eb4" stroke="none" stroke-width="1" stroke-linecap="round" stroke-linejoin="round"><path d="M233.27146,170.13506c-0.01011,-0.01161 -0.57537,-0.7729 -0.81137,-1.53242c-0.15121,-0.48657 -0.11958,-1.14072 -0.08011,-1.16923c0.19274,-0.13914 1.02047,-0.18109 1.68496,-0.22306c0.66449,-0.04199 0.98392,-0.01381 1.28795,0.03528"/><path d=""/></g><path d="M233.36402,172.99692c-0.41372,-0.15722 -0.98283,-0.67794 -0.98283,-0.67794c0,0 0.63272,0.37217 1.08479,0.47942c0.45206,0.10725 0.71938,-0.00011 0.71938,-0.00011l0.09685,0.33433c0,0 -0.5045,0.02153 -0.91821,-0.13569z" data-paper-data="{&quot;index&quot;:null}" fill="#000000" stroke="none" stroke-width="0" stroke-linecap="butt" stroke-linejoin="miter"/><path d="M240.13394,170.25445c-0.6023,0.07942 -1.76494,0.38401 -1.76494,0.38401c0,0 0.84488,-2.26541 2.45079,-1.68483c1.20156,0.4344 0.86827,2.76018 0.86827,2.76018c0,0 -0.95182,-1.53878 -1.5541,-1.45936z" data-paper-data="{&quot;index&quot;:null}" fill="#e569c4" stroke="none" stroke-width="0" stroke-linecap="butt" stroke-linejoin="miter"/><path d="M233.56669,173.56403c-0.43043,-0.10298 -1.26623,-0.49314 -1.26623,-0.49314c0,0 0.87989,0.23466 1.34196,0.2832c0.46209,0.04853 0.71347,-0.09215 0.71347,-0.09215l0.13884,0.3192c0,0 -0.4976,0.08589 -0.92803,-0.01708z" data-paper-data="{&quot;index&quot;:null}" fill="#000000" stroke="none" stroke-width="0" stroke-linecap="butt" stroke-linejoin="miter"/><path d="M237.3166,172.8834c0.51903,-1.02828 0.58193,-2.76484 2.58019,-3.26488c0.43407,-0.10863 1.80709,0.29977 1.8055,2.4608c-0.00052,0.71915 -0.18176,1.82499 -1.36517,2.57604c-0.62204,0.27738 -2.24421,-0.25132 -2.91915,-0.19737c-1.18501,0.09476 -0.94409,0.60096 -1.52758,0.65638c-0.14604,0.01387 -1.07785,-0.73199 -1.56395,-1.90073c-0.22921,-0.5511 -0.29318,-1.39173 -0.22561,-1.40005c0.44582,-0.05488 0.94723,0.81837 1.41811,1.28372c0.32936,0.3255 0.74604,0.57469 1.07628,0.50076c0.1925,-0.04309 0.39052,-0.05919 0.72139,-0.71471z" data-paper-data="{&quot;index&quot;:null}" fill="#ffffff" stroke="none" stroke-width="0" stroke-linecap="butt" stroke-linejoin="miter"/><g data-paper-data="{&quot;index&quot;:null}" stroke="none" stroke-linecap="butt" stroke-linejoin="miter"><path d="M239.26258,173.0583c0.14,0.70689 0.0681,1.31665 -0.16059,1.36195c-0.22869,0.04528 -0.5276,-0.49104 -0.66761,-1.19792c-0.14,-0.70689 -0.06809,-1.31666 0.1606,-1.36197c0.22869,-0.04528 0.5276,0.49104 0.6676,1.19794z" fill="#169c5b" stroke-width="NaN"/><path d="M239.05548,173.26366c0.05847,0.29525 0.02443,0.55074 -0.07606,0.57065c-0.10049,0.01991 -0.22936,-0.20333 -0.28782,-0.49859c-0.05847,-0.29525 -0.02443,-0.55074 0.07606,-0.57065c0.10049,-0.01991 0.22936,0.20333 0.28782,0.49859z" fill="#000000" stroke-width="0"/><path d="M238.84727,172.60724c0.05917,0.29873 0.00881,0.56035 -0.11247,0.58437c-0.12127,0.02403 -0.26755,-0.19866 -0.32672,-0.49738c-0.05917,-0.29873 -0.00881,-0.56036 0.11247,-0.58438c0.12127,-0.02403 0.26755,0.19867 0.32672,0.49738z" fill="#ffffff" stroke-width="0"/></g><g data-paper-data="{&quot;index&quot;:null}" stroke="none" stroke-linecap="butt" stroke-linejoin="miter"><path d="M235.93885,173.98848c0.09873,0.49861 0.04805,0.92869 -0.11326,0.96063c-0.16132,0.03194 -0.37213,-0.34635 -0.47087,-0.84495c-0.09873,-0.49861 -0.04804,-0.92869 0.11327,-0.96063c0.16132,-0.03194 0.37213,0.34634 0.47086,0.84494z" fill="#169c5b" stroke-width="NaN"/><path d="M235.79278,174.13333c0.04125,0.20826 0.01723,0.38845 -0.05366,0.4025c-0.07088,0.01405 -0.16177,-0.14339 -0.20302,-0.35167c-0.04125,-0.20826 -0.01723,-0.38845 0.05366,-0.40249c0.07088,-0.01405 0.16177,0.14338 0.203,0.35166z" fill="#000000" stroke-width="0"/><path d="M235.64594,173.67031c0.04172,0.2107 0.00622,0.39521 -0.07932,0.41217c-0.08555,0.01694 -0.18872,-0.14012 -0.23046,-0.35081c-0.04172,-0.2107 -0.00623,-0.39523 0.07933,-0.41219c0.08555,-0.01694 0.18871,0.14014 0.23046,0.35083z" fill="#ffffff" stroke-width="0"/></g><path d="M241.41692,175.22831c0,0 -0.30848,0.19019 -0.50219,0.23743c-0.19372,0.04724 -0.76192,0.12876 -0.76192,0.12876" data-paper-data="{&quot;index&quot;:null}" fill="none" stroke="#000000" stroke-width="0.125" stroke-linecap="round" stroke-linejoin="miter"/><path d="M241.29893,170.40083l-0.221,-0.28524c0,0 0.48763,-0.04921 0.88845,-0.28416c0.40082,-0.23497 0.91189,-0.76537 0.91189,-0.76537c0,0 -0.39163,0.66459 -0.74114,0.93609c-0.34952,0.2715 -0.83819,0.39871 -0.83819,0.39871z" data-paper-data="{&quot;index&quot;:null}" fill="#000000" stroke="none" stroke-width="0" stroke-linecap="butt" stroke-linejoin="miter"/><path d="M242.73456,171.09524c-0.43144,0.09868 -1.16284,0.03957 -1.16284,0.03957l-0.08826,-0.33849c0,0 0.66956,0.23868 1.1321,0.19478c0.46252,-0.0439 1.34041,-0.45217 1.34041,-0.45217c0,0 -0.78998,0.45765 -1.22142,0.55633z" data-paper-data="{&quot;index&quot;:null}" fill="#000000" stroke="none" stroke-width="0" stroke-linecap="butt" stroke-linejoin="miter"/><path d="M237.71094,177.10564c0.33936,-0.19544 0.52562,-0.08118 0.64889,0.09494c0.18349,0.26213 0.13811,0.50253 -0.11117,0.69267c-0.99488,0.75875 -1.85086,1.44037 -2.50316,2.00487c-0.11074,0.09583 -0.533,0.47997 -0.533,0.47997l0.34855,-1.76434c0,0 1.40545,-1.07938 2.14991,-1.5081z" data-paper-data="{&quot;index&quot;:null}" fill="#edbb82" stroke="none" stroke-width="0" stroke-linecap="butt" stroke-linejoin="miter"/><path d="M237.86574,178.19469c0.05809,-0.62077 0.49688,-1.48119 0.49688,-1.48119c0,0 0.69235,-0.01934 1.15061,-0.08251c0.45826,-0.06319 1.16154,-0.23632 1.16154,-0.23632l0.34119,2.23567l0.29313,0.96714l-3.36607,0.2594c0,0 -0.13534,-1.04143 -0.07727,-1.66219z" data-paper-data="{&quot;index&quot;:null}" fill="#6d3b75" stroke="none" stroke-width="0" stroke-linecap="butt" stroke-linejoin="miter"/><path d="M237.47641,179.94784l0.23554,-1.17767c0,0 -0.13492,-1.16319 -0.07704,-1.73989c0.06215,-0.10199 0.2011,-0.05683 0.2011,-0.05683c0,0 -0.1823,0.34389 -0.16337,0.41103c0.05994,0.21262 -0.01812,0.30698 0.14422,0.40352c0.74097,0.44053 0.85633,0.72363 0.85633,0.72363c0,0 -0.00016,0.18878 -0.00568,0.28336c-0.03091,0.52831 -0.52602,1.59261 -0.52602,1.59261z" data-paper-data="{&quot;index&quot;:null}" fill="#efe6e6" stroke="none" stroke-width="0" stroke-linecap="butt" stroke-linejoin="miter"/><path d="M240.30443,180.32897c0,0 -0.66446,-0.87711 -0.83126,-1.37934c-0.02986,-0.0899 -0.07894,-0.27219 -0.07894,-0.27219c0,0 0.03804,-0.30333 0.63951,-0.92086c0.13178,-0.13531 0.19837,-0.26295 0.20113,-0.48381c0.00088,-0.06978 -0.22516,-0.32843 -0.23206,-0.3921c-0.03375,-0.31127 0.14036,-0.3679 0.14036,-0.3679c0,0 0.50889,-0.18275 0.59535,-0.10034c0.33217,0.31658 0.33954,2.20976 0.33954,2.20976l0.82932,1.46858z" data-paper-data="{&quot;index&quot;:null}" fill="#efe6e6" stroke="none" stroke-width="0" stroke-linecap="butt" stroke-linejoin="miter"/><path d="M239.95495,176.81189c0,0 0.37023,0.51502 0.14994,0.90853c-0.12856,0.21674 -0.33644,0.42229 -0.52513,0.64488c-0.13047,0.15389 -0.24546,0.32 -0.24546,0.32c0,0 -0.01692,-0.85305 0.00884,-1.16038c0.03135,-0.37432 0.10427,-0.79622 0.20998,-0.89132c0.06978,-0.03431 0.74548,-0.16339 0.74548,-0.16339l0.28895,0.26114l-0.63257,0.08055z" data-paper-data="{&quot;index&quot;:null}" fill="#fd4275" stroke="none" stroke-width="0" stroke-linecap="butt" stroke-linejoin="miter"/><path d="M239.96983,179.98745c0,0 -0.57135,-0.74985 -0.58873,-1.32511c-0.00919,-0.30375 0.88399,-1.30545 0.88399,-1.30545l0.17416,0.08974c0,0 -0.92337,0.89447 -0.91791,1.22672c0.00805,0.49014 0.59137,1.27675 0.59137,1.27675z" data-paper-data="{&quot;index&quot;:null}" fill="#fed000" stroke="none" stroke-width="0" stroke-linecap="butt" stroke-linejoin="miter"/><path d="M240.3287,177.36266c0,0 -0.42653,0.46367 -0.59445,0.68065c-0.0712,0.09199 -0.20278,0.26304 -0.26592,0.43045c-0.06464,0.17142 -0.06002,0.33818 -0.06002,0.33818c0,0 -0.07838,-0.21249 -0.08909,-0.27486c-0.0107,-0.06236 0.04616,-0.21046 0.04616,-0.21046l0.76856,-0.96984l-0.27192,-0.5931l0.66078,-0.09205l-0.23089,-0.18932l0.18087,-0.06002l0.31169,0.35563l-0.74826,0.08097l0.29249,0.50381z" data-paper-data="{&quot;index&quot;:null}" fill="#fff9f9" stroke="none" stroke-width="0" stroke-linecap="butt" stroke-linejoin="miter"/><path d="M240.07728,176.91561l-0.02887,-0.05107l0.72332,-0.09537l0.05346,0.06994z" data-paper-data="{&quot;index&quot;:null}" fill="#fed000" stroke="none" stroke-width="0" stroke-linecap="butt" stroke-linejoin="miter"/><path d="M238.36843,176.72011c0,0 0.39652,-0.01708 0.59189,-0.03062c0.19244,-0.01333 0.57166,-0.05 0.57166,-0.05c0,0 -0.02503,0.06989 -0.0481,0.12002c-0.02308,0.05013 -0.04765,0.13775 -0.04765,0.13775l-0.38789,0.36233z" data-paper-data="{&quot;index&quot;:null}" fill="#fff9f9" stroke="none" stroke-width="0" stroke-linecap="butt" stroke-linejoin="miter"/><path d="M238.66173,176.70635l0.76482,-0.06018l-0.38022,0.35517z" data-paper-data="{&quot;index&quot;:null}" fill="#fd4275" stroke="none" stroke-width="0" stroke-linecap="butt" stroke-linejoin="miter"/><path d="M237.23337,176.91285l0.59636,-0.25667c0,0 0.42577,0.04173 0.50004,0.06466c0.1193,0.07734 0.14484,0.4783 0.23448,0.8431c0.0736,0.29947 0.19063,1.14465 0.19063,1.14465c0,0 -0.13962,-0.14603 -0.2926,-0.27757c-0.22126,-0.19024 -0.48538,-0.56241 -0.64633,-0.75631c-0.27925,-0.3541 0.03224,-0.71906 0.03224,-0.71906z" data-paper-data="{&quot;index&quot;:null}" fill="#fd4275" stroke="none" stroke-width="0" stroke-linecap="butt" stroke-linejoin="miter"/><path d="M238.18436,180.07981c0,0 0.45277,-0.86835 0.38389,-1.35369c-0.04669,-0.32899 -0.96666,-1.11986 -0.96666,-1.11986l0.0257,-0.06372c0,0 1.03916,0.84928 1.07773,1.15071c0.07301,0.57086 -0.3737,1.40102 -0.3737,1.40102z" data-paper-data="{&quot;index&quot;:null}" fill="#fed000" stroke="none" stroke-width="0" stroke-linecap="butt" stroke-linejoin="miter"/><path d="M237.56543,177.55823l0.20988,-0.54344l-0.8165,-0.05846l0.49656,-0.40318l0.43134,0.0829l-0.62133,0.27006l0.66705,-0.01268l-0.17557,0.62841l0.91111,0.83736c0,0 0.07939,0.13737 0.0786,0.20063c-0.00079,0.06329 -0.0449,0.28542 -0.0449,0.28542c0,0 -0.02159,-0.16541 -0.11231,-0.32459c-0.08861,-0.15544 -0.24538,-0.30373 -0.33012,-0.38344c-0.19986,-0.18797 -0.69382,-0.57903 -0.69382,-0.57903z" data-paper-data="{&quot;index&quot;:null}" fill="#fff9f9" stroke="none" stroke-width="0" stroke-linecap="butt" stroke-linejoin="miter"/><path d="M243.48511,169.77263c0,0 0.29105,-0.16663 0.43423,-0.07175c0.14315,0.09489 0.29227,0.51094 0.25238,0.58821c-0.03602,0.06978 -0.3837,0.15238 -0.3837,0.15238z" data-paper-data="{&quot;index&quot;:null}" fill="#f7bf74" stroke="none" stroke-width="0" stroke-linecap="butt" stroke-linejoin="miter"/><path d="M242.98125,173.7195c0.29205,-0.12262 1.07998,-0.4695 1.0839,-0.98487c0.00482,-0.63566 0.17412,-0.78853 0.3323,-0.79116c0.20927,-0.00347 0.15889,0.25446 0.03251,0.66795c-0.14887,0.487 -0.68289,1.20044 -1.61034,1.56137c-0.25992,0.10116 -0.67619,0.1058 -0.70534,0.03637c-0.03799,-0.09049 0.3555,-0.27494 0.86697,-0.48966z" data-paper-data="{&quot;index&quot;:null}" fill="#212121" stroke="none" stroke-width="0" stroke-linecap="butt" stroke-linejoin="miter"/><path d="M243.54114,173.73584l-0.08972,-0.21371l0.08548,-0.03589l0.08972,0.21371z" data-paper-data="{&quot;index&quot;:null}" fill="#b3916f" stroke="none" stroke-width="0" stroke-linecap="butt" stroke-linejoin="miter"/><path d="M244.32502,172.40962c0.02079,-0.10777 0.06999,-0.27238 0.06999,-0.27238c0,0 0.15686,0.13716 0.13088,0.27184c-0.02597,0.13468 -0.22073,0.35243 -0.22073,0.35243c0,0 -0.00092,-0.24412 0.01986,-0.35189z" data-paper-data="{&quot;index&quot;:null}" fill="#cc7889" stroke="none" stroke-width="0" stroke-linecap="butt" stroke-linejoin="miter"/><g data-paper-data="{&quot;index&quot;:null}" stroke="none" stroke-width="0" stroke-linecap="butt" stroke-linejoin="miter"><g data-paper-data="{&quot;index&quot;:null}"><path d="M246.11151,165.21484c0,0 -0.03083,0.4583 -0.51422,1.49173c-0.96377,2.06037 -2.1965,2.05244 -2.1965,2.05244c0,0 -0.41753,-0.79203 0.16168,-1.74296c0.59352,-0.97439 2.54904,-1.80123 2.54904,-1.80123z" data-paper-data="{&quot;index&quot;:null}" fill="#ce204f"/><path d="M244.40111,166.2749c-0.95271,0.6277 -1.01829,2.4238 -1.01829,2.4238c0,0 -1.33811,-1.3519 0.53491,-2.64251c0.93948,-0.64734 2.22766,-0.8457 2.22766,-0.8457c0,0 -0.79157,0.43672 -1.74428,1.06442z" fill="#ff4488"/></g><g data-paper-data="{&quot;index&quot;:null}"><path d="M243.46702,168.86943c0,0 0.90213,-0.56079 1.55202,-0.62675c1.28643,-0.13051 2.49256,1.01538 2.49256,1.01538c0,0 -1.30209,0.32226 -2.14069,0.50567c-1.1444,0.25027 -1.90391,-0.89433 -1.90391,-0.89433z" fill="#f5e4ec"/><path d="M245.06471,168.37279c1.07203,-0.10878 2.07715,0.84614 2.07715,0.84614c0,0 -1.08506,0.26858 -1.78391,0.42142c-0.95369,0.20855 -1.58659,-0.74527 -1.58659,-0.74527c0,0 0.75177,-0.46734 1.29334,-0.52229z" fill="#e2c1c1"/></g></g><g stroke="none" stroke-linecap="butt" stroke-linejoin="miter"><path d="M237.76535,183.17047l2.53839,0.33999c0,0 0.3172,0.20842 0.49472,0.76657c0.11531,0.36248 -0.02826,0.97429 -0.02826,0.97429c0,0 0.50925,-0.53899 0.89558,-0.07729c0.24805,0.29643 -0.21336,1.35751 -0.46396,1.68838c-0.14753,0.19478 -0.52127,0.44604 -0.86912,0.49522c-0.21943,0.03103 -0.49148,-0.10865 -0.49148,-0.10865c0,0 -0.17005,0.35404 -0.56198,0.20637c-0.12008,-0.04524 -0.297,-0.07325 -0.297,-0.07325c0,0 -0.20069,0.21483 -0.34454,0.27976c-0.14387,0.06493 -0.40286,0.03573 -0.40286,0.03573l-0.3152,-0.30355c0,0 -0.52165,0.21522 -0.6366,0.20195c-0.45094,-0.05207 -0.58642,-0.53685 -0.66082,-0.79657c-0.13622,-0.47552 -0.27939,-1.56313 -0.20954,-1.68607c0.43849,-0.77163 1.35272,-1.94289 1.35272,-1.94289z" data-paper-data="{&quot;index&quot;:null}" fill="#ffffff" stroke-width="0"/><path d="M240.02581,176.72032c0.14759,-0.36273 0.36473,-0.38708 0.57022,-0.3239c0.30585,0.09402 0.41781,0.31156 0.33802,0.61474c-0.3185,1.20998 -0.57485,2.27372 -0.74247,3.11994c-0.1022,0.51588 -0.42779,2.54364 -0.42779,2.54364c0,0 -0.10846,-0.02393 -0.42821,0.03146c-0.31975,0.05538 -0.77321,-0.24444 -0.77321,-0.24444c0,0 0.26313,-1.13151 0.51647,-2.41027c0.17718,-0.89443 0.50129,-2.23579 0.947,-3.3312z" data-paper-data="{&quot;index&quot;:null}" fill="#fff9fb" stroke-width="0"/><path d="M239.51294,186.46738l-0.33047,-0.39164l0.39164,-0.33047l0.33047,0.39164z" data-paper-data="{&quot;index&quot;:null}" fill="#baba3e" stroke-width="NaN"/><path d="M238.53024,186.47765l-0.33047,-0.39164l0.39164,-0.33047l0.33047,0.39164z" data-paper-data="{&quot;index&quot;:null}" fill="#baba3e" stroke-width="NaN"/><path d="M237.45473,186.48003l-0.33047,-0.39164l0.39164,-0.33047l0.33047,0.39164z" data-paper-data="{&quot;index&quot;:null}" fill="#baba3e" stroke-width="NaN"/><path d="M236.08532,186.25358l0.43233,-0.42696l0.16376,0.34458l-0.06933,0.36472z" data-paper-data="{&quot;index&quot;:null}" fill="#baba3e" stroke-width="0"/><g stroke-width="0"><path d="M238.92457,184.17198c-0.86123,-0.07296 -1.54806,-0.26616 -1.45821,-1.32693c0.08987,-1.0608 0.79939,-1.1357 1.66064,-1.06274c0.86123,0.07296 1.56498,0.2676 1.45821,1.32693c-0.10675,1.05911 -0.79939,1.1357 -1.66064,1.06274z" data-paper-data="{&quot;index&quot;:null}" fill="#fed000"/><path d="M238.94316,183.95214c-1.12214,-0.09506 -2.02252,-0.2815 -1.94919,-1.14715c0.07332,-0.86564 0.99226,-0.89798 2.11439,-0.80291c1.12214,0.09506 2.04457,0.28338 1.94919,1.14715c-0.09536,0.86356 -0.99226,0.89798 -2.11439,0.80291z" data-paper-data="{&quot;index&quot;:null}" fill="#e68b9c"/></g></g><path d="M235.10058,170.8507c-0.03266,-0.02035 -2.19632,-0.42751 -2.73257,-0.14265c-0.98211,0.52168 -2.48215,1.21446 -2.50489,1.21977c-0.01585,0.00365 1.01609,-0.96204 1.25167,-1.67574c0.16998,-0.77359 1.27676,-0.62119 1.58203,-0.73954c1.71426,-0.654 2.48482,0.1926 2.46,0.17714" fill="#f79eb4" stroke="#f89db5" stroke-width="0" stroke-linecap="butt" stroke-linejoin="round"/><path d="M235.14265,169.64543c-0.11352,-0.06989 -2.06118,-0.8831 -3.11555,-0.94784c-0.75997,-0.04666 -2.5485,-0.5433 -2.5485,-0.5433c0,0 2.03784,-0.18514 4.06757,-0.53238c0.60375,-0.04403 0.83876,0.09303 1.1491,0.30929c0.31034,0.21626 1.28176,1.56162 1.30111,1.64292" fill="#f79eb4" stroke="#f89db5" stroke-width="0" stroke-linecap="butt" stroke-linejoin="round"/><path d="M235.27766,171.80924c-0.10367,0.09796 -1.56121,0.25079 -1.74622,0.56267c-0.54474,0.9305 -1.8905,1.89503 -1.85284,1.91525c0.00174,0.00094 0.82248,-1.09141 0.77157,-1.69973c-0.03562,-0.14677 0.77214,-1.21937 0.9994,-1.3922c0.79111,-0.60163 1.75548,-0.34549 1.71884,-0.31091" fill="#f79eb4" stroke="#f89db5" stroke-width="0" stroke-linecap="butt" stroke-linejoin="round"/></g></g></svg>