<svg version="1.1" xmlns="http://www.w3.org/2000/svg" xmlns:xlink="http://www.w3.org/1999/xlink" width="42.64807" height="42.64802" viewBox="0,0,42.64807,42.64802"><defs><radialGradient cx="239.99997" cy="180" r="21.32401" gradientUnits="userSpaceOnUse" id="color-1"><stop offset="0" stop-color="#52c126"/><stop offset="1" stop-color="#52c126" stop-opacity="0"/></radialGradient><radialGradient cx="239.99997" cy="180" r="21.32406" gradientUnits="userSpaceOnUse" id="color-2"><stop offset="0" stop-color="#ed0c8d"/><stop offset="1" stop-color="#ed0c8d" stop-opacity="0"/></radialGradient></defs><g transform="translate(-218.67596,-158.67599)"><g data-paper-data="{&quot;isPaintingLayer&quot;:true}" fill-rule="nonzero" stroke-linejoin="miter" stroke-miterlimit="10" stroke-dasharray="" stroke-dashoffset="0" style="mix-blend-mode: normal"><path d="M218.67596,180c0,-11.77693 9.54709,-21.32401 21.32401,-21.32401c11.77693,0 21.32401,9.54709 21.32401,21.32401c0,11.77693 -9.54709,21.32401 -21.32401,21.32401c-11.77693,0 -21.32401,-9.54709 -21.32401,-21.32401z" fill="url(#color-1)" stroke="none" stroke-width="0" stroke-linecap="butt"/><path d="M218.67596,180c0,-11.77693 9.54709,-21.32401 21.32401,-21.32401c11.77693,0 21.32406,9.54709 21.32406,21.32401c0,11.77693 -9.54709,21.32401 -21.32406,21.32401c-11.77693,0 -21.32401,-9.54709 -21.32401,-21.32401z" fill="url(#color-2)" stroke="none" stroke-width="0" stroke-linecap="butt"/><path d="M260.14663,180h-19.88499" fill="none" stroke="#000000" stroke-width="1.5" stroke-linecap="round"/></g></g></svg>