<svg version="1.1" xmlns="http://www.w3.org/2000/svg" xmlns:xlink="http://www.w3.org/1999/xlink" width="124.16233" height="38.59576" viewBox="0,0,124.16233,38.59576"><g transform="translate(-219.47636,-159.45992)"><g data-paper-data="{&quot;isPaintingLayer&quot;:true}" fill-rule="nonzero" stroke-linejoin="miter" stroke-miterlimit="10" stroke-dasharray="" stroke-dashoffset="0" style="mix-blend-mode: normal"><path d="M221.71182,192.97777c-0.93144,-0.21102 -1.67655,-0.42203 -2.23543,-0.63307l1.1177,-6.33062l3.35312,0.31653c2.60799,0.21104 4.65714,0.21104 6.1474,0c0.74516,-0.42203 1.1177,-1.05508 1.1177,-1.89917c-0.18628,-0.84409 -1.86286,-1.26613 -5.0297,-1.26613c-2.7943,-0.42206 -4.75026,-1.58267 -5.86796,-3.48184c-0.55888,-1.47714 -0.83829,-3.16532 -0.83829,-5.06449c0,-2.95427 0.93144,-5.17 2.79428,-6.64713c1.30399,-1.0551 3.63257,-1.58267 6.98569,-1.58267c3.35312,0 6.70625,0.31653 10.05941,0.9496l-1.1177,6.01409c-3.912,-0.21102 -6.61312,-0.31653 -8.10339,-0.31653c-1.30399,0.21101 -1.95598,0.73856 -1.95598,1.58264c-0.18628,1.47714 0.83829,2.21572 3.07372,2.21572c3.16684,0 5.49542,0.63305 6.98569,1.89917c1.1177,1.0551 1.67655,2.8488 1.67655,5.38104c0,2.19459 -0.4657,4.09379 -1.39714,5.69754c-0.93144,1.8992 -3.26,3.05981 -6.98569,3.48185c-3.16684,0.21101 -6.42684,0.10551 -9.77996,-0.31653z" fill="#ff0000" stroke="none" stroke-width="0.26458" stroke-linecap="butt"/><path d="M242.66893,192.97777v-26.58858h19.55995v7.59676h-11.1771v1.89917h11.1771v7.59673h-11.1771v9.49594z" fill="#ff0000" stroke="none" stroke-width="0.26458" stroke-linecap="butt"/><path d="M265.02308,192.97777l4.47085,-13.29428l-4.47085,-13.29428h7.82398l2.7943,9.17941l2.79428,-9.17941h7.82398l-4.47085,13.29428l4.47085,13.29428h-7.82398l-2.79428,-9.17941l-2.7943,9.17941z" fill="#ff0000" stroke="none" stroke-width="0.26458" stroke-linecap="butt"/><path d="M225.26241,193.07774c-0.8885,-0.17769 -1.59928,-0.35539 -2.13239,-0.53311l1.0662,-5.33099l3.19859,0.26654c2.48779,0.17772 4.44248,0.17772 5.86407,0c0.71081,-0.35539 1.0662,-0.88848 1.0662,-1.59928c-0.1777,-0.71081 -1.777,-1.0662 -4.7979,-1.0662c-2.66551,-0.35542 -4.53133,-1.33277 -5.59753,-2.93205c-0.53311,-1.24389 -0.79966,-2.66551 -0.79966,-4.26479c0,-2.48778 0.8885,-4.35364 2.66548,-5.59753c1.24389,-0.8885 3.46514,-1.33277 6.66372,-1.33277c3.19859,0 6.39718,0.26654 9.59577,0.79965l-1.0662,5.06444c-3.73171,-0.1777 -6.30833,-0.26654 -7.72992,-0.26654c-1.24389,0.1777 -1.86585,0.62193 -1.86585,1.33274c-0.1777,1.24389 0.79965,1.86585 2.93205,1.86585c3.0209,0 5.24214,0.53308 6.66372,1.59928c1.0662,0.8885 1.59928,2.39897 1.59928,4.53135c0,1.84806 -0.44424,3.44737 -1.33274,4.79787c-0.8885,1.59931 -3.10975,2.57666 -6.66372,2.93205c-3.0209,0.17769 -6.13063,0.08885 -9.32923,-0.26654z" fill="#71ff33" stroke="none" stroke-width="0.26458" stroke-linecap="butt"/><path d="M245.25363,193.07774v-22.39015h18.65845v6.3972h-10.66197v1.59928h10.66197v6.39718h-10.66197v7.99648z" fill="#71ff33" stroke="none" stroke-width="0.26458" stroke-linecap="butt"/><path d="M266.57752,193.07774l4.26479,-11.19508l-4.26479,-11.19508h7.46337l2.66551,7.72994l2.66548,-7.72994h7.46337l-4.26479,11.19508l4.26479,11.19508h-7.46337l-2.66548,-7.72994l-2.66551,7.72994z" fill="#71ff33" stroke="none" stroke-width="0.26458" stroke-linecap="butt"/><path d="M297.11279,184.84299v-12.35262h11.0886l11.0886,-6.49036v25.33333l-10.51255,-6.49036z" data-paper-data="{&quot;index&quot;:null}" fill="none" stroke="#ff0000" stroke-width="7.5" stroke-linecap="butt"/><path d="M327.61843,166.54289c0,0 3.98096,8.01697 3.98096,12.31831c0,4.50376 -3.98096,11.92931 -3.98096,11.92931" data-paper-data="{&quot;index&quot;:null}" fill="none" stroke="#ff0000" stroke-width="7.5" stroke-linecap="round"/><path d="M335.90774,166.54289c0,0 3.98095,8.01697 3.98095,12.31831c0,4.50375 -3.98095,11.92931 -3.98095,11.92931" data-paper-data="{&quot;index&quot;:null}" fill="none" stroke="#ff0000" stroke-width="7.5" stroke-linecap="round"/><path d="M298.77942,186.68874v-11.37742h10.21318l10.21318,-5.97797v23.33333l-9.68262,-5.97797z" data-paper-data="{&quot;index&quot;:null}" fill="none" stroke="#71ff33" stroke-width="5" stroke-linecap="butt"/><path d="M326.87676,169.83335c0,0 3.66667,7.38405 3.66667,11.34582c0,4.1482 -3.66667,10.98752 -3.66667,10.98752" data-paper-data="{&quot;index&quot;:null}" fill="none" stroke="#71ff33" stroke-width="5" stroke-linecap="round"/><path d="M334.51161,169.83335c0,0 3.66667,7.38405 3.66667,11.34582c0,4.14819 -3.66667,10.98752 -3.66667,10.98752" data-paper-data="{&quot;index&quot;:null}" fill="none" stroke="#71ff33" stroke-width="5" stroke-linecap="round"/></g></g></svg>