<svg version="1.1" xmlns="http://www.w3.org/2000/svg" xmlns:xlink="http://www.w3.org/1999/xlink" width="41.90748" height="30.63209" viewBox="0,0,41.90748,30.63209"><g transform="translate(-215.06245,-165.46)"><g data-paper-data="{&quot;isPaintingLayer&quot;:true}" fill-rule="nonzero" stroke-linejoin="miter" stroke-miterlimit="10" stroke-dasharray="" stroke-dashoffset="0" style="mix-blend-mode: normal"><path d="M230.71697,187.78733l5.19517,-5.74045l0.87024,6.20572c0,0 -5.80371,1.67386 -6.01214,1.77599c-0.68975,0.33797 -1.95398,0.37942 -1.95398,0.37942l-3.9684,-0.12295c0,0 2.86528,-2.01196 4.23276,-2.31592z" data-paper-data="{&quot;index&quot;:null}" fill="#ff3200" stroke="none" stroke-width="0" stroke-linecap="butt"/><path d="M233.37112,184.17996c0,-1.59688 -0.16568,-2.6653 0.74287,-3.63772c0.75815,-0.81145 6.36769,-0.94105 7.13936,-0.05319c0.84121,0.96788 0.75027,2.16304 0.75027,3.69091c0,1.35129 -0.41118,2.29885 -1.08819,3.23544c-0.79065,1.09383 -1.94385,2.06875 -3.22805,2.06875c-2.3838,0 -4.31625,-2.37476 -4.31625,-5.30419z" data-paper-data="{&quot;index&quot;:null}" fill="#ff3200" stroke="none" stroke-width="0" stroke-linecap="butt"/><path d="M237.15646,181.83061c0,0 1.58739,0.933 2.84253,0.59413c1.25513,-0.33888 1.04076,-0.96178 1.04076,-0.96178c0,0 0.17805,1.07641 -0.27413,1.75017c-0.14697,0.21899 -0.36053,0.39544 -0.66841,0.47856c-1.25514,0.33887 -2.94076,-1.86108 -2.94076,-1.86108z" data-paper-data="{&quot;index&quot;:null}" fill="#ffffff" stroke="none" stroke-width="0" stroke-linecap="butt"/><path d="M239.5117,179.74757l6.45471,0.87831l-1.25732,2.59636l-3.44916,-1.1084z" data-paper-data="{&quot;index&quot;:null}" fill="#ff3200" stroke="none" stroke-width="0" stroke-linecap="butt"/><path d="M247.19173,184.42343l-1.94247,-0.19835c0,0 -0.46402,-1.40571 -0.31842,-2.42349c0.1456,-1.01778 1.10425,-1.90203 1.10425,-1.90203l2.05411,-0.69363l2.52248,-0.62518l2.11978,1.0135c0,0 2.22619,-0.35746 3.15815,-0.00232c0.93195,0.35515 1.90298,3.40076 -0.06459,5.80447c-1.62356,1.98343 -3.51567,2.5057 -4.91439,1.7629c-1.39873,-0.74279 -3.71889,-2.73589 -3.71889,-2.73589z" data-paper-data="{&quot;index&quot;:null}" fill="#dcdcd5" stroke="none" stroke-width="0" stroke-linecap="butt"/><path d="M247.24692,184.09879c0,0 -0.37603,-1.80753 -0.22316,-2.61479c0.07047,-0.37219 0.5192,-1.668 0.5192,-1.668" data-paper-data="{&quot;index&quot;:null}" fill="none" stroke="#c1b9a5" stroke-width="1" stroke-linecap="round"/><path d="M253.07336,180.85553c-0.17146,0.12475 -0.3769,4.6142 -0.70473,4.6896c-0.14551,0.03346 0.04045,-2.15492 -0.50024,-3.28143c-0.4794,-0.99881 -1.70015,-0.94948 -1.70015,-0.94948" data-paper-data="{&quot;index&quot;:null}" fill="none" stroke="#c1b9a5" stroke-width="1" stroke-linecap="round"/><path d="M227.52806,175.01687z" fill="#030000" stroke="none" stroke-width="0" stroke-linecap="butt"/><path d="M244.59254,176.05581c0.36237,2.99801 2.1275,6.95862 2.1275,6.95862c0,0 -2.71199,-1.1168 -3.33994,-2.26416c-1.36676,-2.49728 -1.53647,-6.15864 -2.10714,-5.95358c-0.01411,0.00507 -1.45445,0.51897 -3.02651,1.05149c-0.96443,0.32669 -2.14852,0.03675 -2.58199,1.47876c-0.65341,2.17368 1.99739,8.60819 1.99739,8.60819l-4.27415,-6.54601c0,0 0.59232,2.36729 1.08595,3.71197c0.68893,1.87665 2.66066,6.49393 2.66066,6.49393c0,0 -3.3256,-3.16554 -4.546,-5.55161c-1.47827,-2.89026 -3.69923,-10.56907 -3.69923,-10.56907c0,0 2.01144,7.4995 3.55451,12.22065c1.54307,4.72114 2.32778,5.77668 2.32778,5.77668c0,0 -3.57576,-3.45239 -5.02732,-6.21316c-1.45155,-2.76076 -2.85479,-6.70172 -2.85479,-6.70172l0.6133,6.21828c0,0 -1.47636,-3.17033 -1.99224,-4.76796c-0.49113,-1.52096 -0.71993,-5.06791 -0.71993,-5.06791c0,0 0.27272,-2.01984 1.09331,-3.60375c1.49454,-2.8848 2.74785,-2.87147 2.74785,-2.87147c0,0 3.09395,-2.84771 5.82525,-2.98614c3.3561,-0.17009 7.4896,0.87125 9.08852,3.33579c1.41229,2.17687 0.71671,4.50779 1.04722,7.24218z" data-paper-data="{&quot;index&quot;:null}" fill="#ff3300" stroke="none" stroke-width="0" stroke-linecap="butt"/><path d="M241.10931,172.53774c1.50995,0.22908 2.31323,-0.32997 3.29535,1.17607c0.54024,0.82844 0.75633,2.62385 -0.6311,5.21228c-1.13263,0.60406 -0.52903,1.82164 -2.5209,2.2921c-1.99188,0.47046 -3.86155,0.91647 -5.21603,-0.52911c-1.24775,-1.72269 -2.00588,-3.81687 -2.02429,-4.31667c-0.06361,-1.72675 -0.27899,-2.30615 2.17452,-3.23888c1.83405,-0.69724 3.4125,-0.82488 4.92245,-0.5958z" data-paper-data="{&quot;index&quot;:null}" fill="#ffbe7e" stroke="none" stroke-width="0" stroke-linecap="butt"/><path d="M243.91678,174.50656c0,0 -0.55099,-0.43385 -0.53367,-0.75688c0.01732,-0.32303 0.61792,-0.64729 0.61792,-0.64729c0,0 1.59231,0.42575 1.70155,0.72976c0.10924,0.30401 -1.7858,0.67441 -1.7858,0.67441z" data-paper-data="{&quot;index&quot;:null}" fill="#030000" stroke="none" stroke-width="0" stroke-linecap="butt"/><path d="M233.33077,171.26591c0,0 -0.9521,-2.89173 1.31468,-3.48072c4.32037,-0.40595 3.93121,3.14397 3.93121,3.14397" data-paper-data="{&quot;index&quot;:null}" fill="none" stroke="#000000" stroke-width="0.5" stroke-linecap="round"/><path d="M240.97841,170.90318c0,0 0.29029,-1.72431 1.935,-1.51196c1.21612,0.21234 1.18275,2.25223 1.18275,2.25223" data-paper-data="{&quot;index&quot;:null}" fill="none" stroke="#000000" stroke-width="0.5" stroke-linecap="round"/><path d="M240.00438,180.75689c-1.85769,0 -3.36364,-1.17857 -3.36364,-2.63241c0,-1.45384 1.50595,-2.63241 3.36364,-2.63241c1.85768,0 3.36363,1.17857 3.36363,2.63241c0,1.45384 -1.50594,2.63241 -3.36363,2.63241z" data-paper-data="{&quot;index&quot;:null}" fill="#000000" stroke="none" stroke-width="0" stroke-linecap="butt"/><path d="M239.2771,180.57507c-1.25519,0 -2.27273,-0.93613 -2.27273,-2.09091c0,-1.15477 1.01754,-2.0909 2.27273,-2.0909c1.2552,0 2.27273,0.93612 2.27273,2.0909c0,1.15477 -1.01754,2.09091 -2.27273,2.09091z" data-paper-data="{&quot;index&quot;:null}" fill="#ff0017" stroke="none" stroke-width="0" stroke-linecap="butt"/><path d="M235.31408,180.38241l-8.2393,5.62178l-0.9143,-2.26768l7.1464,-4.24177z" fill="#ff3200" stroke="none" stroke-width="0" stroke-linecap="butt"/><path d="M225.86801,187.52053c0,0 -0.09019,2.53499 -3.92587,3.43333c-2.0517,0.48052 -3.20565,0.77584 -5.14228,-0.90327c-2.34697,-2.03491 -1.90693,-5.20114 -1.04877,-5.7093c0.85817,-0.50816 3.58792,0.45664 3.58792,0.45664c0,0 0.62564,-0.234 0.42972,-0.77976c-0.38594,-1.07505 -1.94692,-2.42309 -0.8302,-2.71299c1.68364,-0.43708 2.87528,-0.03175 3.8701,0.43426c0.67339,0.31543 0.84849,0.77099 1.24113,0.98526c0.41763,0.2279 1.4651,0.24726 1.4651,0.24726c0,0 1.09482,0.70873 1.41104,1.68703c0.31623,0.97831 0.09751,2.44237 0.09751,2.44237z" fill="#dcdcd5" stroke="none" stroke-width="0" stroke-linecap="butt"/><path d="M224.3431,183.12892c0,0 0.92586,1.09553 1.16586,1.9117c0.24,0.81617 0.30908,2.34019 0.30908,2.34019" fill="none" stroke="#c1b9a5" stroke-width="1" stroke-linecap="round"/><path d="M222.29229,185.49976c0,0 -1.13373,-0.47955 -1.43666,0.58614c-0.10932,0.38457 -0.49798,0.50764 -0.47618,0.98111c0.04632,1.00629 0.36318,2.07623 0.26179,2.0706c-0.33587,-0.01866 -1.19808,-3.86467 -1.38822,-3.95851" fill="none" stroke="#c1b9a5" stroke-width="1" stroke-linecap="round"/><path d="M240.88373,186.72794c0.98175,0.07873 3.63838,2.41673 3.63838,2.41673l-0.79614,2.30808l-4.04968,-3.34396z" data-paper-data="{&quot;index&quot;:null}" fill="#ff3200" stroke="none" stroke-width="0" stroke-linecap="butt"/><path d="M237.8822,184.76345c0.2575,0.40593 3.12269,5.71501 2.52686,8.05766c-0.59582,2.34265 -3.26894,4.09916 -5.30475,2.86438c-1.66351,-1.00897 -3.29843,-4.65318 -3.97094,-6.37172c-0.6725,-1.71855 -1.04153,-3.1845 -0.41172,-4.63725c0.62981,-1.45275 1.5232,-2.39216 3.3018,-2.68664c1.77861,-0.29446 3.19983,1.73484 3.85875,2.77356z" data-paper-data="{&quot;index&quot;:null}" fill="#ff1c00" stroke="none" stroke-width="0" stroke-linecap="butt"/><path d="M238.77242,188.41487c0,0 2.19029,4.93786 -0.76115,6.28451c-3.29147,1.68642 -5.14972,-3.87646 -5.14972,-3.87646c0,0 -3.21382,-4.88703 1.29488,-6.96999c2.5654,-1.21635 4.40152,4.56264 4.61598,4.56193z" data-paper-data="{&quot;index&quot;:null}" fill="#1d1a19" stroke="none" stroke-width="0" stroke-linecap="butt"/><path d="M249.19606,191.93718c0,0 -0.89446,-3.19074 -1.01956,-3.40622c-0.12511,-0.21547 2.49487,-2.29457 2.49487,-2.29457c0,0 1.24136,1.00894 0.86502,2.46317c-0.37634,1.45423 -2.34033,3.23762 -2.34033,3.23762z" data-paper-data="{&quot;index&quot;:null}" fill="#b29b96" stroke="none" stroke-width="0" stroke-linecap="butt"/><path d="M245.13143,183.93279c0.49259,-1.12716 1.58729,-3.34967 3.39,-3.33024c1.80271,0.01944 2.82907,0.81143 3.67331,2.15098c0.84425,1.33954 0.70339,2.84466 0.30117,4.64574c-0.40221,1.80108 -1.46153,5.6522 -2.95147,6.90334c-1.8234,1.53116 -4.73338,0.2034 -5.67992,-2.0208c-0.94654,-2.22421 1.0744,-7.90852 1.2669,-8.34901z" data-paper-data="{&quot;index&quot;:null}" fill="#ff1c00" stroke="none" stroke-width="0" stroke-linecap="butt"/><path d="M250.44162,182.73593c3.41454,0.9623 1.25649,6.41867 1.25649,6.41867c0,0 -0.98706,5.91732 -4.49744,4.75326c-3.12245,-0.88021 -0.62434,-6.0946 -0.62434,-6.0946c0,0 1.14425,-5.88771 3.86529,-5.07733z" data-paper-data="{&quot;index&quot;:null}" fill="#1d1a19" stroke="none" stroke-width="0" stroke-linecap="butt"/><path d="M245.81028,189.9689c0,0 -1.33921,-2.59086 -1.52756,-2.75398c-0.18835,-0.16311 0.79804,-2.98087 0.79804,-2.98087c0,0 1.77376,0.41476 1.8905,1.91236c0.11674,1.49759 -1.16098,3.82249 -1.16098,3.82249z" data-paper-data="{&quot;index&quot;:null}" fill="#b29b96" stroke="none" stroke-width="0" stroke-linecap="butt"/></g></g></svg>