<svg version="1.1" xmlns="http://www.w3.org/2000/svg" xmlns:xlink="http://www.w3.org/1999/xlink" width="74.36389" height="86.62073" viewBox="0,0,74.36389,86.62073"><g transform="translate(-206.15906,-170)"><g data-paper-data="{&quot;isPaintingLayer&quot;:true}" fill-rule="nonzero" stroke="none" stroke-width="0" stroke-linecap="butt" stroke-linejoin="miter" stroke-miterlimit="10" stroke-dasharray="" stroke-dashoffset="0" style="mix-blend-mode: normal"><path d="M259.63638,220.19554c12.74448,10.78202 20.88657,33.90039 20.88657,33.90039c0,0 -17.3987,-8.71046 -23.51627,-10.12182c-6.11757,-1.41136 -18.87457,-1.37474 -20.31306,-1.37474c-2.95939,0 -10.01192,1.73252 -16.80293,5.27043c-6.79101,3.53791 -13.73163,8.75093 -13.73163,8.75093c0,0 2.66983,-22.2437 10.9859,-33.20582c7.35979,-9.70156 19.99276,-26.22821 19.99276,-26.22821c0,0 10.22806,12.62773 22.49866,23.00884z" data-paper-data="{&quot;index&quot;:null}" fill="#a6d7f5"/><path d="M237.11717,197.24075l12.0584,13.06268c0,0 -3.2449,-0.84046 -10.76211,-0.84046c-7.51721,0 -12.13676,1.94445 -12.13676,1.94445z" data-paper-data="{&quot;index&quot;:null}" fill="#f6e202"/><path d="M235.76533,190.41666c-5.6379,0 -10.20833,-4.57042 -10.20833,-10.20833c0,-5.6379 4.57042,-10.20833 10.20833,-10.20833c5.6379,0 10.20833,4.57042 10.20833,10.20833c0,5.6379 -4.57042,10.20833 -10.20833,10.20833z" data-paper-data="{&quot;index&quot;:null}" fill="#f6e202"/></g></g></svg>