<svg version="1.1" xmlns="http://www.w3.org/2000/svg" xmlns:xlink="http://www.w3.org/1999/xlink" width="33.69703" height="34.84247" viewBox="0,0,33.69703,34.84247"><defs><radialGradient cx="242.28025" cy="175.34381" r="1.31225" gradientUnits="userSpaceOnUse" id="color-1"><stop offset="0" stop-color="#f5ab87" stop-opacity="0.25098"/><stop offset="1" stop-color="#f5ab87" stop-opacity="0"/></radialGradient><radialGradient cx="237.01039" cy="174.90903" r="0.73225" gradientUnits="userSpaceOnUse" id="color-2"><stop offset="0" stop-color="#f5ab87" stop-opacity="0.25098"/><stop offset="1" stop-color="#f5ab87" stop-opacity="0"/></radialGradient></defs><g transform="translate(-223.03389,-162.82015)"><g data-paper-data="{&quot;isPaintingLayer&quot;:true}" fill-rule="nonzero" stroke-linejoin="miter" stroke-miterlimit="10" stroke-dasharray="" stroke-dashoffset="0" style="mix-blend-mode: normal"><g stroke="none" stroke-width="0" stroke-linecap="butt"><path d="M238.97613,197.26345c-1.02321,1.03885 -3.21499,-0.27828 -3.21499,-0.27828c0,0 1.49386,0.09159 1.60022,-2.06816c-0.11827,-1.26738 0.6408,-3.55794 0.6408,-3.55794c0,0 0.42826,-1.61127 0.97109,-0.67713c0.25268,0.43484 0.52704,0.84126 0.74467,1.26612c0.24988,0.48783 0.42497,0.99999 0.40655,1.60747c0,0 -0.12511,2.66906 -1.14832,3.70791z" fill="#54c81c"/><path d="M234.96655,196.80013c0.04117,-0.39234 0.39259,-0.67701 0.78493,-0.63584c0.39234,0.04117 0.67701,0.39259 0.63584,0.78493c-0.04117,0.39234 -0.39259,0.67701 -0.78493,0.63584c-0.39234,-0.04117 -0.67701,-0.39259 -0.63584,-0.78493z" fill="#ffffff"/></g><g stroke="none" stroke-width="0" stroke-linecap="butt"><path d="M247.56434,193.79075c0.36265,1.16045 0.27482,2.13858 0.27482,2.13858c0,0 -1.51121,-0.78719 -2.87884,-1.8476c-0.85751,-0.66488 -1.99378,-2.89242 -1.99378,-2.89242c0,0 -0.80636,-1.33669 0.16556,-1.08275c0.45243,0.11821 0.89963,0.20352 1.32302,0.33828c0.48614,0.15472 0.94087,0.37465 1.3361,0.7844c0,0 1.31123,1.08349 1.77313,2.56152z" fill="#54c81c"/><path d="M247.0764,196.17909c-0.05198,-0.39105 0.2229,-0.75019 0.61395,-0.80217c0.39105,-0.05198 0.75018,0.2229 0.80216,0.61395c0.05198,0.39105 -0.22289,0.75018 -0.61394,0.80216c-0.39105,0.05198 -0.75019,-0.22289 -0.80217,-0.61394z" fill="#ffffff"/></g><g stroke="none" stroke-width="0" stroke-linecap="butt"><path d="M247.05689,185.31536c0,0 4.62652,-0.6474 5.11912,-1.68885c0.49266,-1.04159 -3.90336,-2.79115 -2.95238,-2.55558c5.02268,1.2442 7.50729,2.88379 7.50729,2.88379c0,0 -2.34085,1.06971 -3.84679,1.28523c-1.50593,0.21552 -5.82724,0.07541 -5.82724,0.07541z" fill="#54c81c"/><path d="M238.68142,180.2248c0,0 4.28279,0.26639 7.08727,0.16851c3.39819,0.21472 5.3303,1.45172 7.48029,2.71282c0.59541,1.04096 -4.05225,2.41359 -6.26111,2.07422c-2.39256,-0.36759 -8.30644,-4.95556 -8.30644,-4.95556z" fill="#ffffff"/></g><g stroke="none" stroke-width="0" stroke-linecap="butt"><path d="M235.15286,184.00892c0,0 -2.19252,1.16317 -4.31608,1.91249c-1.17053,0.41303 -2.69387,0.69513 -3.96115,1.05687c-1.26728,0.36174 -3.84174,-0.40063 -3.84174,-0.40063c0,0 1.82885,-0.93083 2.48357,-1.60969c0.65472,-0.67887 5.31543,-3.47564 5.5689,-3.37911c0.25347,0.09653 4.06651,2.42007 4.06651,2.42007z" fill="#54c81c"/><path d="M232.73133,180.96764c3.67911,-1.11965 4.86795,-0.6773 5.56701,-0.97398c2.03258,-0.86262 1.67217,-0.47547 1.67217,-0.47547c0,0 -0.52642,2.90393 -6.46723,5.24671c-4.27602,1.68626 -6.47564,1.1339 -6.47564,1.1339c0,0 0.99646,-3.49861 5.70369,-4.93116z" fill="#ffffff"/></g><g data-paper-data="{&quot;index&quot;:null}" stroke="none" stroke-width="0" stroke-linecap="butt"><path d="M242.71473,188.15921c0,0 5.20586,0.28765 5.96311,-1.05249c0.76847,-1.36 -1.49267,-4.09001 -1.49267,-4.09001c0,0 3.0933,0.2497 4.8001,3.91086c0.98828,2.11304 1.82126,5.86045 1.82126,5.86045c0,0 -2.73384,-1.29322 -5.12017,-1.93774c-1.98249,-0.53544 -5.97163,-2.69107 -5.97163,-2.69107z" fill="#54c81c"/><path d="M247.32798,182.95493c0.20458,0.15688 3.19134,2.1655 2.57906,4.25255c-0.72116,1.45389 -6.56468,1.14936 -6.56468,1.14936c0,0 -2.41658,-0.3152 -3.87351,-1.75653c-1.7504,-1.73163 -1.65744,-4.55317 -1.08032,-5.85745c0.57711,-1.30428 0.58554,0.39353 3.56306,0.18031c2.24342,-0.16063 5.18033,1.8814 5.37641,2.03175z" fill="#ffffff"/></g><g stroke="none" stroke-width="0" stroke-linecap="butt"><path d="M232.47643,184.83106l5.20724,3.3997c0,0 -2.70688,1.2134 -4.78553,2.20057c-1.92616,0.91475 -7.64694,1.72169 -7.64694,1.72169c0,0 1.76472,-1.61399 2.83163,-3.4792c1.06691,-1.86521 4.3936,-3.84276 4.3936,-3.84276z" fill="#54c81c"/><path d="M229.25351,189.17088c-0.65831,-2.15876 2.50604,-3.74772 3.30625,-4.58983c0.79416,-0.83577 0.31753,-2.27917 4.46933,-3.31042c2.83164,-0.70333 3.56351,-2.3737 3.56351,-2.3737l1.24201,0.47616c0,0 0.45694,5.04164 -1.61225,7.60167c-1.43578,1.64497 -9.12475,3.1272 -10.63549,2.4461z" fill="#ffffff"/></g><path d="M244.32769,172.19218c0.12489,0.23762 0.10126,0.52229 0.11732,0.78251c0.00859,0.94975 -0.07743,1.89683 -0.15456,2.84309c-0.01022,0.38992 -0.24651,0.73044 -0.53374,0.97644c-0.31249,0.2591 -0.73442,0.31382 -1.11228,0.42736c-0.59,0.15435 -1.19861,0.22666 -1.80763,0.19935c-0.75038,0.00605 -1.69787,-0.09011 -2.35436,-0.52524c-0.44833,-0.20488 -0.37867,-0.19395 -0.84173,-0.37929c-0.9253,-0.51789 -1.57166,-1.44062 -1.88988,-2.43906c-0.19527,-0.59684 -0.29265,-1.23747 -0.22166,-1.86429c0.04502,-0.2639 0.2929,-3.51503 4.06301,-3.47471c4.54807,0.04864 4.5562,3.25795 4.73551,3.45384z" data-paper-data="{&quot;index&quot;:null}" fill="#f0e9bb" stroke="none" stroke-width="0.17188" stroke-linecap="butt"/><path d="M236.97755,172.31973c0.60616,0.20764 0.80532,0.55337 0.88745,1.10205c0.13052,0.29848 0.0266,1.4395 -0.18074,1.43449c-0.21061,-0.03294 -0.45723,-0.07261 -0.71039,-0.12755c-0.39524,-0.08573 -0.50141,-0.18913 -0.46418,-0.27076c0.02567,-0.05636 -0.0445,-0.22565 -0.07917,-0.3932c-0.03529,-0.17062 -0.03528,-0.34144 -0.03743,-0.62631c-0.00193,-0.26421 0.0396,-0.55522 0.10168,-0.75089c0.08878,-0.27904 0.23453,-0.40844 0.48279,-0.36783z" data-paper-data="{&quot;index&quot;:null}" fill="#ffffff" stroke="none" stroke-width="0.17188" stroke-linecap="butt"/><path d="M237.62555,172.5626c-0.41598,-0.42365 -0.5583,-0.4713 -0.86131,-0.20713c-0.22698,0.17767 -0.383,0.79509 -0.39571,1.21444c-0.01699,0.56033 0.12964,0.98414 0.12964,0.98414c0,0 -0.12404,-0.12706 -0.22168,-0.41893c-0.09763,-0.29187 0.0206,-0.63787 -0.1514,-0.75489c-0.18013,-0.12255 -1.02375,-0.25868 -1.02375,-0.25868c0,0 1.18552,-0.00044 1.18793,-0.07506c0.01044,-0.32358 0.20923,-0.65476 0.32553,-0.75955c0.20913,-0.18845 0.33615,-0.26181 0.61027,-0.18982c0.19654,0.05162 0.31465,0.16919 0.52276,0.38144c0.67457,0.688 0.05779,2.33696 0.05779,2.33696c0,0 0.39068,-1.80504 -0.18008,-2.25292z" data-paper-data="{&quot;index&quot;:null}" fill="#000000" stroke="none" stroke-width="0" stroke-linecap="butt"/><g data-paper-data="{&quot;index&quot;:null}" stroke="none" stroke-linecap="butt"><path d="M236.97957,174.99423c-0.25026,0 -0.45314,-0.42916 -0.45314,-0.95856c0,-0.5294 0.20288,-0.95856 0.45314,-0.95856c0.25026,0 0.45314,0.42916 0.45314,0.95856c0,0.5294 -0.20288,0.95856 -0.45314,0.95856z" fill="#008ae6" stroke-width="0"/><path d="M236.98427,173.21012c0.07882,0.00751 0.14831,0.09815 0.19679,0.23878c0.04832,0.14064 0.07575,0.33112 0.07057,0.5381c-0.00505,0.20684 -0.04175,0.39133 -0.097,0.52226c-0.0551,0.1309 -0.1288,0.20825 -0.20772,0.20089c-0.07892,-0.00734 -0.14829,-0.09815 -0.19677,-0.23877c-0.04835,-0.14064 -0.07579,-0.33112 -0.07075,-0.53808c0.0052,-0.20685 0.04188,-0.39135 0.09713,-0.52227c0.05512,-0.13091 0.1288,-0.20826 0.20772,-0.2009z" fill="#000000" stroke-width="0.0278"/><path d="M237.12866,173.44804c0.04207,0.09778 0.067,0.23122 0.06483,0.37734c-0.00203,0.14592 -0.0307,0.27689 -0.0755,0.37069c-0.04461,0.09378 -0.10533,0.15045 -0.17136,0.1474c-0.066,-0.00305 -0.12505,-0.06522 -0.16694,-0.16303c-0.04207,-0.09778 -0.067,-0.23123 -0.06482,-0.37735c0.00203,-0.14592 0.03069,-0.27689 0.07549,-0.37069c0.04461,-0.09377 0.10533,-0.15044 0.17136,-0.14739c0.066,0.00306 0.12505,0.06521 0.16695,0.16302z" fill="#ffffff" stroke-width="0.01811"/></g><path d="M237.85377,174.83582c0,0 -0.13578,0.53333 -0.55,0.53333c-0.41422,0 -0.81666,-0.8 -0.81666,-0.8l0.45,0.13333z" fill="#f0e9bb" stroke="none" stroke-width="0" stroke-linecap="butt"/><path d="M235.90345,167.79563c0.55492,0.43033 -1.47468,3.36445 -1.1536,2.87623c-0.59889,-0.36967 -1.05316,-1.08916 -1.1892,-1.64663c-0.01248,-0.05104 0.04818,-0.192 0.04818,-0.192c-0.09144,0.02342 0.02946,-0.08827 0.03877,-0.18422c0.00727,-0.07548 -0.07313,-0.23526 -0.07313,-0.23526c-0.04193,0.02986 0.17942,-0.09125 0.26063,-0.17042c0.06712,-0.06536 0.03622,-0.10741 0.09176,-0.14781c0.38973,-0.28496 1.05398,-0.4295 1.97662,-0.2999z" data-paper-data="{&quot;index&quot;:null}" fill="#ed3e67" stroke="none" stroke-width="0.17188" stroke-linecap="butt"/><path d="M244.16374,172.06157c-0.05442,-0.09135 -0.16571,-0.14669 -0.32742,-0.24017c-0.12152,-0.07037 -0.3574,-0.20754 -0.43473,-0.27925c-0.19414,-0.18003 -1.01285,-0.15211 -0.96437,-0.07437c-0.06312,0.11711 0.00613,-0.31658 -1.07321,0.6976l-1.1491,1.08026c-0.10576,0.09933 -0.52524,0.50173 -0.8586,0.61762c-0.35831,0.12458 -0.88909,0.16958 -0.93696,0.09706c0,0 -0.33439,-0.58816 -0.53374,-0.81196c-0.07579,-0.0851 -0.06771,0.10003 0.00931,0.33755c0.01268,0.03928 0.24753,0.6308 0.23679,0.65699c-0.0582,0.14085 -1.24208,-1.708 -1.30611,-1.80978l-0.39452,-0.62857c-0.13318,-0.21194 -0.34389,-0.10351 -0.43268,-0.12632c-0.13338,-0.03437 -0.21429,0.07374 -0.22319,0.20652c-0.01146,0.16796 -0.02128,0.86218 -0.03365,0.96365c-0.06505,0.53742 0.22666,1.26409 0.37345,2.02725c0.08592,0.44637 1.89243,2.04002 1.66249,1.71649c-0.10372,-0.14607 -0.10986,1.0463 -0.41529,1.20004c-0.21797,0.10996 -1.28779,-1.78186 -1.39929,-2.18569l-0.63726,-2.30588c-0.18678,-0.6752 0.14801,-2.5846 0.2459,-2.93157l0.19117,-0.67786c0.35207,-0.80142 0.85389,-1.5155 1.52859,-2.12871c0.04296,-0.03907 0.66671,-0.75078 1.77592,-1.12485c0.70047,-0.23628 1.87187,-0.27505 1.96383,-0.27628c0.53926,-0.00716 1.59149,-0.03795 2.5528,0.17287c0.61148,0.13409 1.15617,0.43809 1.60531,0.67561c0.08072,0.04256 -0.78833,1.09152 -0.71079,1.12824c0.03765,0.01769 -0.19894,1.00406 -0.18984,1.09806l0.06066,0.62774c0.06137,0.63459 0.63889,1.28443 0.74302,1.36861c0.14248,0.11538 0.63387,0.46582 0.79845,0.47012l0.55471,0.01503c0.076,0.00184 0.73913,-0.47859 0.79171,-0.43185c0.18524,0.16478 0.09318,1.12464 0.05554,1.31337l-0.19792,0.99332c-0.06382,0.31995 -0.08059,0.50038 -0.28169,0.94074c-0.27567,0.60432 -0.554,1.2077 -0.9877,1.75935c-0.35043,0.44587 -2.04422,1.70473 -2.01231,1.54455l0.26963,-1.36258l0.23118,-1.92547l-0.15006,-2.38751z" data-paper-data="{&quot;index&quot;:null}" fill="#54c81c" stroke="none" stroke-width="0.17188" stroke-linecap="butt"/><path d="M248.21076,170.48813c-1.03361,0.35321 -2.37571,-1.80898 -2.37571,-1.80898c0,-0.39013 0.95421,-1.18725 2.04092,-1.07729c0.83058,0.08419 1.37343,0.3623 1.64562,0.70845c0.03886,0.04941 0.00224,0.08111 0.04531,0.15579c0.05226,0.09022 0.21623,0.24969 0.18677,0.21307c0,0 -0.10689,0.12868 -0.11803,0.19926c-0.01422,0.08981 0.06506,0.21869 -0.0089,0.17716c0,0 0.02005,0.14239 -0.00266,0.18637c-0.24723,0.48055 -0.80807,1.03925 -1.41331,1.24618z" data-paper-data="{&quot;index&quot;:null}" fill="#ed3e67" stroke="none" stroke-width="0.17188" stroke-linecap="butt"/><path d="M245.03993,169.37544c0.09902,0.06894 -0.00194,-0.52607 0.13185,-1.10676c0.14279,-0.62008 0.53312,-1.23176 1.06686,-1.26203c0.3082,-0.01739 0.58437,0.0809 0.84439,0.15527c0.5364,0.15333 0.91333,0.37152 0.72502,0.44414c-0.31955,0.12335 -0.72962,0.3532 -1.00365,0.54693c-0.39084,0.27618 -0.64207,0.4877 -0.62294,0.50898l1.23053,1.368l0.83016,0.48649c0.13798,0.0714 -0.23066,0.31014 -0.64697,0.48188c-0.35934,0.14842 -0.60933,0.37101 -0.73556,0.40926c-0.56207,0.17123 -0.48842,-0.09073 -1.14634,-0.44649c-0.38255,-0.20692 -0.82208,-1.68958 -0.67335,-1.58566z" data-paper-data="{&quot;index&quot;:null}" fill="#54c81c" stroke="none" stroke-width="0.17188" stroke-linecap="butt"/><path d="M244.26951,169.33904c0.02925,-1.3277 0.56811,-2.83726 1.47663,-2.40479c0.38102,0.18126 -0.20458,0.43289 -0.49661,1.21774c-0.18585,0.49948 -0.21858,1.26602 0.08317,2.20339c0.03181,0.0983 0.19711,0.29008 0.42337,0.53834c0.34666,0.38061 1.77112,0.17163 1.54997,0.30379l-0.86382,0.51584l-0.61046,-0.112c-0.38829,0.02751 -1.58893,-1.04743 -1.56224,-2.26231z" data-paper-data="{&quot;index&quot;:null}" fill="#ead32e" stroke="none" stroke-width="0.17188" stroke-linecap="butt"/><path d="M235.87137,169.37945c-0.04347,-0.13431 0.08419,-0.35464 0.08071,-0.47534c-0.00808,-0.27905 0.18933,-0.96049 0.6884,-1.42938l0.28385,-0.26656c0.13972,-0.13133 0.65137,-0.26564 0.751,-0.20181c0.11958,0.15783 -0.50397,0.4965 -0.91773,1.0596c-0.19834,0.26994 -0.47912,0.61997 -0.47912,0.61997c-0.07958,0.27516 -0.40711,0.69352 -0.40711,0.69352z" data-paper-data="{&quot;index&quot;:null}" fill="#ead32e" stroke="none" stroke-width="0.17188" stroke-linecap="butt"/><path d="M236.12377,168.6045c-0.05994,0.14187 -0.27607,0.84122 -0.3713,1.18623l-0.37541,1.35971c-0.02761,0.10004 -0.78658,-0.46081 -0.73258,-0.76583c-0.13277,-0.34574 -0.02148,-0.64247 0.02281,-0.9524c0.1475,-0.33898 0.42511,-0.79978 0.61066,-0.98636c0.14945,-0.15026 -0.02618,-0.62795 0.10229,-0.82587c0.19323,-0.29807 1.27083,-0.26483 1.27083,-0.26483z" data-paper-data="{&quot;index&quot;:null}" fill="#54c81c" stroke="none" stroke-width="0.17188" stroke-linecap="butt"/><path d="M241.43175,176.71894h0.86877" data-paper-data="{&quot;index&quot;:null}" fill="none" stroke="#dfcfa3" stroke-width="0.36953" stroke-linecap="round"/><path d="M235.07747,173.1218l0.66667,-0.02564l0.10256,0.15385z" fill="#000000" stroke="none" stroke-width="0" stroke-linecap="butt"/><path d="M241.07921,173.18459c0.35637,-0.51369 0.6619,-0.65129 1.01899,-0.65129c0.50009,0 0.79537,0.76866 0.81319,1.38581c0.02,0.6926 -0.32037,1.01971 -0.32037,1.01971c0,0 -0.44393,0.13011 -0.93532,0.15374c-0.31485,0.01504 -0.66508,-0.01872 -0.92479,-0.01872c-0.25019,-0.027 0.26074,-1.76302 0.3483,-1.88925z" data-paper-data="{&quot;index&quot;:null}" fill="#ffffff" stroke="none" stroke-width="0.17188" stroke-linecap="butt"/><g data-paper-data="{&quot;index&quot;:null}" stroke="none" stroke-linecap="butt"><path d="M241.22956,175.32756c-0.25025,0 -0.45313,-0.42916 -0.45313,-0.95856c0,-0.5294 0.20288,-0.95856 0.45313,-0.95856c0.25025,0 0.45313,0.42916 0.45313,0.95856c0,0.5294 -0.20288,0.95856 -0.45313,0.95856z" fill="#008ae6" stroke-width="0"/><path d="M241.23427,173.54346c0.07883,0.00751 0.14831,0.09815 0.19679,0.23877c0.04832,0.14064 0.07575,0.33112 0.07057,0.53811c-0.00505,0.20684 -0.04175,0.39133 -0.097,0.52225c-0.05511,0.13089 -0.1288,0.20825 -0.20772,0.20089c-0.07892,-0.00735 -0.14829,-0.09815 -0.19677,-0.23877c-0.04835,-0.14064 -0.07579,-0.33112 -0.07075,-0.53808c0.0052,-0.20685 0.04188,-0.39135 0.09713,-0.52227c0.05512,-0.13091 0.1288,-0.20827 0.20772,-0.20091z" fill="#000000" stroke-width="0.0278"/><path d="M241.37866,173.78138c0.04207,0.09779 0.067,0.23123 0.06483,0.37735c-0.00203,0.14592 -0.03069,0.27689 -0.07549,0.37069c-0.04461,0.09379 -0.10533,0.15045 -0.17136,0.1474c-0.066,-0.00305 -0.12505,-0.06523 -0.16695,-0.16303c-0.04207,-0.09779 -0.067,-0.23123 -0.06483,-0.37735c0.00203,-0.14592 0.03069,-0.27689 0.07549,-0.37069c0.04461,-0.09377 0.10533,-0.15044 0.17136,-0.14739c0.066,0.00307 0.12505,0.06521 0.16695,0.16301z" fill="#ffffff" stroke-width="0.01811"/></g><path d="M242.15519,175.09806c0,0 -0.03262,0.54938 -0.43938,0.6276c-0.40676,0.07823 -0.95305,-0.63138 -0.95305,-0.63138l0.46708,0.04595z" fill="#f0e9bb" stroke="none" stroke-width="0" stroke-linecap="butt"/><path d="M240.6186,175.03189c0,0 -0.0558,-1.42945 0.61877,-2.11745c0.20811,-0.21225 0.375,-0.3786 0.57155,-0.43023c0.27411,-0.07199 0.4987,0.00137 0.70783,0.18982c0.1163,0.10479 0.31509,0.43598 0.32552,0.75955c0.00241,0.07462 1.18793,0.07506 1.18793,0.07506c0,0 -0.84362,0.13614 -1.02374,0.25869c-0.172,0.11702 -0.05377,0.46302 -0.1514,0.75489c-0.09763,0.29187 -0.22167,0.41893 -0.22167,0.41893c0,0 0.14663,-0.42381 0.12964,-0.98414c-0.01271,-0.41935 -0.16873,-1.03677 -0.39571,-1.21444c-0.30301,-0.26416 -0.61607,-0.19212 -1.03205,0.23153c-0.57075,0.44788 -0.71667,2.05779 -0.71667,2.05779z" fill="#000000" stroke="none" stroke-width="0" stroke-linecap="butt"/><path d="M240.69956,188.93203l-2.25917,-5.74956l1.51892,-0.30946c0,0 1.00915,4.1711 2.22207,5.81705c0.36813,0.53326 2.73474,2.71564 2.73474,2.71564c0,0 1.5528,1.76382 1.72228,2.37632c0.21559,0.77913 -0.96421,0.42805 -1.24078,0.19737c0,0 -0.86149,-1.06469 -1.42615,-1.7077c-0.8347,-0.95053 -3.27189,-3.33966 -3.27189,-3.33966z" fill="#ffffff" stroke="none" stroke-width="0" stroke-linecap="butt"/><path d="M238.1275,188.0891l2.17395,-6.18142l1.20383,0.97656c0,0 -1.63083,3.29811 -2.13161,5.28041c-0.17802,0.62305 -0.41409,4.12255 -0.41409,4.12255c0,0 -0.10191,2.59822 -0.46731,3.11819c-0.46482,0.66142 -0.89859,0.01422 -1.00879,-0.57781c-0.1102,-0.59202 0.24399,-1.97549 0.34502,-2.89438c0.12291,-1.11784 0.299,-3.84409 0.299,-3.84409z" fill="#ffffff" stroke="none" stroke-width="0" stroke-linecap="butt"/><g stroke="none" stroke-width="0" stroke-linecap="butt"><path d="M236.14122,170.66556c0,-0.1312 -0.00634,-0.54737 0.07267,-0.70304c0.10351,-0.20394 0.33404,-0.36588 0.38651,-0.36588c0.04756,0 0.04358,0.24885 -0.039,0.4603c-0.05457,0.13973 -0.19435,0.21225 -0.19435,0.36774c0,0.17322 0.29634,0.61635 0.3512,0.83815c0.02132,0.08617 -0.10478,0.36216 -0.27095,0.56116c-0.17565,0.21035 -0.39252,0.34173 -0.39252,0.34173l-0.4179,-0.25058l0.88536,-0.44134c0,0 -0.07341,-0.08763 -0.16509,-0.26003c-0.09858,-0.18537 -0.21592,-0.45935 -0.21592,-0.54821z" fill="#671829"/><path d="M236.623,170.03325c0,-0.13304 0.07594,-0.42155 0.18819,-0.42155c0.11225,0 0.33874,0.10784 0.33874,0.24088c0,0.03037 -0.52918,0.99963 -0.04094,1.1834c0.23623,0.08891 0.52777,-0.56972 0.52777,-0.56972l0.15302,0.31974c0,0 -0.39385,0.50075 -0.7466,0.32488c-0.50979,-0.25417 -0.42018,-1.00865 -0.42018,-1.07764z" fill="#671829"/><path d="M237.57552,169.29407c0,0 0.01722,0.12389 -0.16582,0.12389c-0.04263,0 0.2136,-0.00026 0.29188,0.1276c0.08742,0.1428 0.00082,0.40034 -0.08428,0.43587c-0.09136,0.03814 -0.30509,-0.00432 -0.46037,-0.10993c-0.22596,-0.15369 -0.39482,-0.33866 -0.39482,-0.38171c0,-0.14325 0.38684,-0.55167 0.57231,-0.56048c0.09422,-0.00447 0.2411,0.36477 0.2411,0.36477z" fill="#804046"/><path d="M235.78041,169.38441c-0.02155,-0.05636 0.14688,-0.39935 0.2411,-0.39488c0.18547,0.00881 0.82825,0.40218 0.82825,0.54543c0,0.04305 -0.16886,0.10758 -0.39482,0.26126c-0.15528,0.10561 -0.46037,0.24542 -0.46037,0.24542l-0.15956,-0.42081l0.27683,-0.05232c0,0 -0.29055,-0.07723 -0.33143,-0.1841z" data-paper-data="{&quot;index&quot;:null}" fill="#804046"/><path d="M236.75096,169.31812c0.08731,0 0.15808,0.07583 0.15808,0.16937c0,0.09354 -0.07077,0.16937 -0.15808,0.16937c-0.08731,0 -0.15808,-0.07583 -0.15808,-0.16937c0,-0.09354 0.07077,-0.16937 0.15808,-0.16937z" fill="#671829"/></g><g stroke="none" stroke-linecap="butt"><path d="M239.568,180.81858c-0.27611,-0.24282 0.10645,-1.72855 0.03494,-1.91073c-0.06799,-0.17235 0.29242,-1.16811 0.36888,-1.27888c0.29791,-0.43074 1.01025,-0.32006 1.1825,-0.32006c0.13636,0 0.78202,0.04613 0.88289,0.13011c0.32701,0.27241 0.41234,0.9786 0.40047,1.69625c-0.00403,0.82076 0.59032,1.28914 0.2496,1.67068c-0.40974,0.34297 -3.11928,0.01263 -3.11928,0.01263z" data-paper-data="{&quot;index&quot;:null}" fill="#c27e34" stroke-width="0.17188"/><path d="M249.66073,180.91898c0,0 -2.57665,-0.48687 -3.63668,-0.99607c-1.15638,-0.55549 -3.38655,-1.68684 -3.38655,-1.68684l-0.05827,-1.07988c0,0 2.45931,0.79499 3.65757,1.24416c0.92417,0.34642 3.15827,0.93285 3.15827,0.93285z" fill="#fba15d" stroke-width="0"/><path d="M249.9946,181.45071c0,0 -2.13486,-0.16756 -4.45354,-0.5744c-1.71038,-0.30011 -3.25755,-2.01554 -3.25755,-2.01554l0.30844,-0.99393c0,0 2.4997,1.56352 3.69796,2.01268c1.7082,0.62454 3.45968,0.36975 3.45968,0.36975z" fill="#fba15d" stroke-width="0"/><path d="M239.21436,178.74252c-0.80381,0.64168 -0.59011,1.64078 -1.56482,1.88844c-0.32227,0.08183 -1.41621,0.10946 -1.52805,-0.22217c-0.14533,-0.42817 -0.06382,-1.48193 0.27363,-1.76175c0.51373,-0.42562 1.08025,-0.50083 1.72998,-0.6977c1.02809,-0.31129 2.783,-0.76251 3.06501,-0.58376c0.28199,0.17863 -1.32955,0.83964 -1.97575,1.37695z" data-paper-data="{&quot;index&quot;:null}" fill="#c27e34" stroke-width="0.17188"/><path d="M242.47781,179.01072c-0.76112,-0.67362 -1.66182,-1.48666 -1.31251,-1.68912c0.34934,-0.2026 2.15041,1.0218 3.38395,1.44031c0.77955,0.26466 1.13249,2.00893 0.08271,2.34288c-0.97093,0.30886 -1.24619,-0.50241 -1.44019,0.00583c-0.14939,0.39368 0.32495,-1.83741 -0.06238,-1.94968c0,0 0.29632,0.65565 -0.65157,-0.15022z" data-paper-data="{&quot;index&quot;:null}" fill="#c27e34" stroke-width="0.17188"/><g data-paper-data="{&quot;index&quot;:null}" stroke-width="0.17188"><path d="M237.7281,180.40016c0.00871,-0.00643 0.43751,-1.00626 0.47762,-1.22772c0.06769,-0.37262 -0.21351,-0.09555 0.03174,-0.50758c0.1819,-0.30555 0.58683,-0.31513 0.79107,-0.46813c0.23275,-0.1747 0.76384,-0.00955 1.00027,0.20081c0.13135,0.11689 0.03335,0.33065 0.07336,0.31033c0.27043,-0.13765 0.6706,-0.02154 0.74364,0.22767l0.1592,0.54226c-0.00146,0.57074 -0.14944,1.21788 -0.12593,1.57219c0.09417,0.81662 -0.87006,1.10353 -0.70155,1.06329c-0.85494,0.05257 -1.97074,-0.35037 -2.59802,-0.98792c-0.1227,-0.1333 -0.23985,-0.4445 0.14856,-0.72518z" fill="#ffcfea"/><path d="M236.2105,179.02257c0.13576,-0.34017 0.22766,-0.32037 0.39458,-0.36455c0.38553,-0.10212 0.90845,0.01538 1.29871,0.01624c0.36732,0.00089 0.26342,0.06742 0.36957,0.19363c0.15369,0.18232 0.11188,0.59121 0.07769,0.97612c-0.03419,0.38491 -0.22545,1.01498 -0.23358,1.0433c0,0 -0.58226,0.15509 -0.96677,0.1847c-0.38451,0.02961 -0.39087,0.15712 -0.84479,-0.02877c-0.24117,-0.16876 -0.19126,-0.65955 -0.21189,-1.10461c-0.02063,-0.44505 -0.01927,-0.57588 0.11649,-0.91605z" fill="#fca03b"/></g><g data-paper-data="{&quot;index&quot;:null}" stroke-width="0.17188"><path d="M242.12471,180.55162c0.30698,0.36022 0.12503,0.65147 -0.02202,0.76188c-0.74193,0.52021 -1.89669,0.70692 -2.69993,0.48501c0.15159,0.07394 -0.70297,-0.40629 -0.4289,-1.21264c0.10237,-0.35328 0.10733,-1.03624 0.23474,-1.61306l0.27416,-0.51635c0.1259,-0.23731 0.53363,-0.2756 0.76039,-0.08314c0.03356,0.02844 -0.01163,-0.20687 0.13998,-0.29901c0.27291,-0.16583 0.81654,-0.22779 0.999,-0.00534c0.16019,0.19491 0.54411,0.28453 0.64857,0.62911c0.14085,0.46464 -0.20567,0.22878 -0.22523,0.61856c-0.01176,0.23165 0.31237,1.22678 0.31922,1.23499z" fill="#ffcfea"/><path d="M243.92319,181.3161c-0.51961,0.20348 -1.58132,0.04667 -2.04719,-0.14214c-0.33928,-0.13752 -0.13513,-0.38205 -0.18698,-0.8181c-0.05185,-0.43604 0.06072,-0.48937 -0.00085,-0.86223c-0.06156,-0.37286 -0.0386,-0.46542 0.14908,-0.61926c0.1297,-0.10655 0.77233,-0.10862 1.26957,-0.05935c0.49724,0.04927 0.88282,0.184 0.97604,0.28186c0.14167,0.14903 0.22177,0.78775 0.14217,1.18107c-0.0796,0.39333 -0.03381,0.91532 -0.30184,1.03815z" fill="#fca03b"/></g><path d="M238.37181,177.75704c0,-0.51334 1.17861,-0.44414 2.3646,-0.44414c1.186,0 2.16052,-0.46559 2.16052,0.04775c0,0.09149 0.05779,0.14811 -0.18415,0.3482c-0.13449,0.11122 0.38174,0.1634 0.19684,0.28743c-0.41662,0.27946 -1.69529,0.07931 -2.22423,0.07931c-0.438,0 -1.88844,0.36799 -2.21704,0.13437c-0.19722,-0.14022 0.45234,-0.13297 0.3122,-0.24058c-0.2586,-0.19856 -0.40873,-0.13346 -0.40873,-0.21233z" fill="#ffe340" stroke-width="0"/><path d="M239.69315,177.34591c0,-0.07045 0.28665,0.05651 1.08552,-0.02551c0.49694,-0.05102 1.10443,-0.12807 1.10443,-0.05762c0,0.07044 -1.89317,0.38071 -2.16581,0.3909c-0.27265,0.01019 -0.02415,-0.23732 -0.02415,-0.30777z" fill="#000000" stroke-width="0"/></g><g stroke-width="0" stroke-linecap="butt"><path d="M236.61693,168.03629c0,0 0.69561,-1.44961 1.73599,-2.53078c0.85701,-0.89061 3.25764,-2.32498 3.99699,-2.59968c0.72068,-0.26776 5.07171,-0.05852 7.12765,2.86034c3.32967,4.82379 1.77409,8.81767 1.77409,8.81767c0,0 -0.73531,-3.06116 -1.551,-5.06786c-0.19268,-0.47402 -0.921,-1.24832 -1.60297,-1.76821c-0.89316,-0.68088 -1.3006,-0.68583 -2.29752,-0.51515c-0.99692,0.17067 -1.1397,1.03786 -1.1397,1.03786c0,0 -2.23811,-0.77099 -3.52581,-0.80848c-1.38621,-0.04036 -4.51772,0.57429 -4.51772,0.57429z" fill="#c27e34" stroke="none"/><g><path d="M250.46572,174.36419c0.03163,-0.47869 0.44533,-0.8411 0.92401,-0.80946c0.47869,0.03163 0.8411,0.44533 0.80947,0.92402c-0.03163,0.47869 -0.44533,0.84109 -0.92401,0.80946c-0.47869,-0.03163 -0.8411,-0.44533 -0.80947,-0.92401z" fill="#db7b04" stroke="none"/><path d="M252.28752,174.45377c-0.01087,0.16448 -0.4973,0.07734 -0.96029,0.04674c-0.46299,-0.0306 -0.93176,0.05104 -0.92089,-0.11344c0.01656,-0.25053 0.48105,-0.26732 0.94403,-0.23673c0.46299,0.0306 0.9556,0.02423 0.93715,0.30343z" fill="#feeb00" stroke="#000000"/><path d="M251.32898,175.22092c-0.01194,0.18076 -0.10652,0.06241 -0.1969,0.05644c-0.09038,-0.00598 -0.19616,-0.39058 -0.18421,-0.57133c0.01194,-0.18076 0.19445,-0.08542 0.28483,-0.07944c0.09038,0.00598 0.10823,0.41358 0.09628,0.59434z" fill="#000000" stroke="none"/><path d="M251.89275,174.67721c0.04752,0.00314 0.14798,-0.05987 0.1396,0.06684c-0.00838,0.12671 -0.12051,0.36651 -0.16804,0.36337c-0.04753,-0.00314 -0.08115,-0.07973 -0.07277,-0.20645c0.00838,-0.12671 0.05368,-0.2269 0.1012,-0.22376z" fill="#000000" stroke="none"/></g></g><path d="M240.96799,175.29777c0,-0.32172 0.80526,-0.12708 1.39624,-0.26252c0.15674,-0.03592 0.33217,-0.09323 0.5003,-0.14139c0.39354,-0.11273 0.74705,-0.17532 0.72717,0.20391c-0.02836,0.54124 -0.53507,0.78252 -1.18527,0.78252c-0.60801,0 -1.43843,-0.26081 -1.43843,-0.58253z" fill="url(#color-1)" stroke="none" stroke-width="0" stroke-linecap="butt"/><path d="M237.74264,174.86297c0,0.32172 -0.46339,0.58253 -0.80266,0.58253c-0.36282,0 -0.76556,-0.40128 -0.78139,-0.94252c-0.01109,-0.37923 0.26617,0.00336 0.48577,0.11608c0.09382,0.04816 0.27171,0.06547 0.35917,0.10139c0.32977,0.13544 0.73911,-0.17919 0.73911,0.14253z" data-paper-data="{&quot;index&quot;:null}" fill="url(#color-2)" stroke="none" stroke-width="0" stroke-linecap="butt"/></g></g></svg>