<svg version="1.1" xmlns="http://www.w3.org/2000/svg" xmlns:xlink="http://www.w3.org/1999/xlink" width="131.92807" height="257.37538" viewBox="0,0,131.92807,257.37538"><g transform="translate(-179.04659,-25.39746)"><g data-paper-data="{&quot;isPaintingLayer&quot;:true}" fill-rule="nonzero" stroke-linejoin="miter" stroke-miterlimit="10" stroke-dasharray="" stroke-dashoffset="0" style="mix-blend-mode: normal"><g data-paper-data="{&quot;index&quot;:null}" stroke="none" stroke-width="0" stroke-linecap="butt"><path d="M217.74808,272.56423c17.01268,-0.64984 38.40872,-12.87151 38.61931,-7.35816c0.21059,5.51335 -13.35991,8.65807 -39.40448,11.63041c-16.9153,1.9305 -23.57453,-6.77039 -23.78513,-12.28373c-0.2106,-5.51345 7.55762,8.66132 24.5703,8.01148z" fill="#310808"/><path d="M192.87972,263.66361c-1.19645,-6.83221 17.89962,-16.80533 33.27207,-19.49734c8.5715,-1.50108 21.44605,-1.37249 26.85203,3.7941c4.28919,4.09931 3.1835,13.12434 3.62442,16.16113c0.63052,4.34272 -16.8364,7.66207 -35.80728,10.64843c-15.41651,2.42683 -26.74483,-4.27416 -27.94128,-11.10637z" fill="#6b1c27"/><path d="M229.03998,273.31396c0,0 -0.17653,-11.87084 -2.81204,-18.5755c-3.3688,-8.57009 -14.19775,-6.48191 -14.19775,-6.48191l11.39911,-3.7268c0,0 10.60311,-2.05873 14.68319,8.98359c2.66769,7.21981 3.13054,17.60915 3.13054,17.60915z" fill="#747875"/></g><g data-paper-data="{&quot;index&quot;:null}" stroke="none" stroke-width="0" stroke-linecap="butt"><g><path d="M205.45272,270.68291c-0.34726,-5.50648 7.77015,8.47119 24.76148,7.39951c16.99133,-1.07166 38.07756,-13.82029 38.42486,-8.31385c0.34726,5.50648 -13.14098,8.98679 -39.10388,12.60426c-16.86226,2.3494 -23.73522,-6.18353 -24.08251,-11.68997z" fill="#310808"/><path d="M205.13259,269.80124c-1.36559,-6.80041 17.47724,-17.24415 32.77816,-20.31667c8.53172,-1.71319 21.4055,-1.90402 26.93798,3.12687c4.3896,3.99166 3.50808,13.04139 4.02419,16.06628c0.73807,4.32576 -16.64119,8.07733 -35.53214,11.53335c-15.35154,2.80856 -26.84255,-3.60938 -28.20814,-10.40979z" fill="#6b1c27"/><path d="M241.52115,278.55185c0,0 -0.47092,-11.86274 -3.27189,-18.50002c-3.58033,-8.48393 -14.3542,-6.12776 -14.3542,-6.12776l11.30317,-4.00842c0,0 10.5488,-2.3211 14.9015,8.61659c2.84595,7.15142 3.56638,17.52607 3.56638,17.52607z" fill="#747875"/></g><path d="M240.90849,270.97864c-0.80609,-5.55218 -0.2122,-6.62503 4.67782,-7.15879c4.11957,-0.44972 6.08548,0.16064 6.85568,5.50505c0.81431,5.65032 0.94869,6.14653 -4.20271,7.04417c-5.65562,0.98541 -6.60615,0.07852 -7.33075,-5.39039z" fill="#b29540"/><path d="M243.83409,270.65935c-0.39985,-2.7542 -0.10525,-3.28644 2.32052,-3.55121c2.04355,-0.22305 3.01874,0.07966 3.40085,2.73085c0.40396,2.80287 0.47057,3.04907 -2.08482,3.49433c-2.80553,0.48882 -3.27706,0.03896 -3.6365,-2.67394z" fill="#747875"/></g><path d="M231.56279,159.19274c-0.4089,1.66958 -1.50361,16.48847 -1.50361,16.48847l-0.93594,18.92324l-6.42878,0.32134l0.79331,-19.78752c0,0 0.23902,-13.09575 1.40906,-17.87286c1.1701,-4.77718 1.78975,-5.16986 3.59199,-4.63177c1.80237,0.53802 4.24401,1.782 3.07397,6.55917z" data-paper-data="{&quot;index&quot;:null}" fill="#111115" stroke="none" stroke-width="0" stroke-linecap="butt"/><g data-paper-data="{&quot;index&quot;:null}"><g><path d="M209.63138,217.27423c0.06415,-3.45555 3.40919,-6.84739 5.93252,-11.48793c1.88261,-3.46217 6.55923,-4.71472 9.60355,-4.65814c6.50006,0.12067 13.1208,2.07558 13.00006,8.57551c-0.03981,2.1449 0.26564,6.58333 0.59423,10.78665c0.32424,4.14655 -0.2541,7.09795 -2.44032,7.2554c-2.8089,0.2023 -3.20139,-1.86034 -3.20139,-1.86034c0,0 -1.20373,2.26551 -2.5497,2.32803c-1.34597,0.06245 -3.47731,-2.0516 -3.47731,-2.0516c0,0 -1.49384,1.83908 -3.12418,1.93358c-1.63041,0.09443 -2.75408,-1.58341 -2.75408,-1.58341c0,0 -1.06489,1.99747 -3.12015,1.98593c-2.05526,-0.01161 -2.49992,-2.43798 -2.49992,-2.43798c0,0 -0.09815,1.85826 -1.43057,1.91422c-1.33241,0.05596 -0.31244,-0.00448 -1.03643,-0.36688c-0.59644,-0.29857 -3.52993,-8.51407 -3.49611,-10.33278z" fill="#747875" stroke="none" stroke-width="0" stroke-linecap="butt"/><path d="M215.18824,226.94674c0,0 1.38042,-2.61808 1.56928,-5.02729c0.18887,-2.40928 -0.88119,-5.27274 -0.09273,-6.1439c1.66662,-1.84161 5.80982,-1.81215 5.80982,-1.81215" fill="none" stroke="#000000" stroke-width="0.125" stroke-linecap="round"/></g><path d="M226.79798,203.29755c-2.31409,-0.2163 -10.18964,-0.68437 -10.20926,-2.55468c0.12686,-1.79411 2.22369,-3.45744 2.22369,-3.45744c0,0 -2.49684,-1.21678 -2.11564,-2.91292c0.4945,-2.20061 6.5909,-3.0418 9.85733,-2.9275c3.26643,0.11437 6.95437,1.19332 8.00601,2.80291c2.65095,4.05754 -0.29219,4.06479 -0.29219,4.06479c0,0 3.07769,0.19902 2.26255,4.24602c-0.40164,1.99408 -7.13176,0.98212 -9.73256,0.739z" fill="#747875" stroke="none" stroke-width="0" stroke-linecap="butt"/></g><path d="M263.81524,156.17757c10.21393,4.88675 22.39582,19.36809 22.39582,19.36809c0,0 -14.63898,-3.95875 -24.13006,-4.46807c-9.49108,-0.50938 -14.20631,-0.99978 -14.20631,-0.99978l-4.77339,-17.72304c0,0 10.50007,-1.06393 20.71393,3.82281z" data-paper-data="{&quot;index&quot;:null}" fill="#0d0a0e" stroke="none" stroke-width="0" stroke-linecap="butt"/><path d="M229.43965,238.93004l-1.56083,-52.79392l9.8929,0.10099c0,0 -2.15215,9.18702 -2.15954,19.55582c-0.00744,10.36873 2.12661,26.36788 2.12661,26.36788z" data-paper-data="{&quot;index&quot;:null}" fill="#0d0a0e" stroke="none" stroke-width="0" stroke-linecap="butt"/><path d="M236.74444,192.57247l7.81102,-8.08997c0,0 0.00744,6.05868 3.04148,9.8408c3.6424,4.54049 17.32305,15.54502 17.32305,15.54502c0,0 -14.12418,-3.29261 -20.54664,-7.23515c-6.42254,-3.94254 -7.62884,-10.06064 -7.62884,-10.06064z" data-paper-data="{&quot;index&quot;:null}" fill="#0d0a0e" stroke="none" stroke-width="0" stroke-linecap="butt"/><path d="M222.52458,245.18958c0.07463,-3.26586 2.69056,-6.45016 2.69056,-6.45016c0,0 -3.27274,-2.01111 -2.86606,-5.1194c0.52768,-4.03262 8.33032,-6.04057 12.53887,-6.09085c4.20855,-0.0504 9.00718,1.61679 10.43989,4.45496c3.61155,7.15441 -0.17524,7.39986 -0.17524,7.39986c0,0 3.96979,0.11847 3.12096,7.52716c-0.41836,3.6506 -7.97434,3.76175 -13.60098,3.38559c-5.62663,-0.37603 -12.03043,-1.7145 -12.14795,-5.10715z" data-paper-data="{&quot;index&quot;:null}" fill="#747875" stroke="none" stroke-width="0" stroke-linecap="butt"/><path d="M221.3934,177.88504c-2.72122,-9.71767 -1.89705,-20.76143 6.55954,-23.12945c8.4566,-2.36809 20.16103,-10.76583 22.88218,-1.04817c1.62631,5.80793 -1.25539,15.81287 -0.18042,22.27337c1.92752,11.58451 -1.7268,14.6176 -6.76564,16.02855c-8.45654,2.36809 -19.77445,-4.40657 -22.49567,-14.1243z" data-paper-data="{&quot;index&quot;:null}" fill="#0d0a0e" stroke="none" stroke-width="0" stroke-linecap="butt"/><path d="M220.02358,176.09598c-2.84883,-9.13902 -0.16149,-11.41936 2.71283,-16.69298c1.45744,-2.67403 9.01948,-3.48179 14.45787,1.45567c5.01903,4.55677 6.17449,27.22497 -0.89665,28.35161c-7.87934,1.25533 -14.2567,-6.6425 -16.27412,-13.1143z" data-paper-data="{&quot;index&quot;:null}" fill="#111115" stroke="none" stroke-width="0" stroke-linecap="butt"/><path d="M247.41546,246.17107l-8.01433,-57.20201l10.79138,-1.44899c0,0 -1.24624,10.33612 -0.01432,21.62011c1.23192,11.28398 5.47038,28.35722 5.47038,28.35722z" data-paper-data="{&quot;index&quot;:null}" fill="#0d0a0e" stroke="none" stroke-width="0" stroke-linecap="butt"/><path d="" data-paper-data="{&quot;index&quot;:null}" fill="#78828a" stroke="#000000" stroke-width="0" stroke-linecap="butt"/><path d="M246.36896,155.26695c1.81505,-0.46022 2.42469,-0.02597 3.47514,4.93232c1.05052,4.95824 0.96302,18.39992 0.96302,18.39992l0.29986,20.33201l-6.41817,-0.65607l-0.4639,-19.45298c0,0 -0.72509,-15.25214 -1.09209,-16.98501c-1.05052,-4.95824 1.42115,-6.10996 3.23625,-6.5701z" data-paper-data="{&quot;index&quot;:null}" fill="#111115" stroke="none" stroke-width="0" stroke-linecap="butt"/><g data-paper-data="{&quot;index&quot;:null}" fill="#747875" stroke="none" stroke-width="0" stroke-linecap="butt"><g><path d="M230.79115,221.50551c0.03484,-3.456 3.35096,-6.87615 5.83479,-11.53784c1.85321,-3.47799 6.51893,-4.77017 9.56372,-4.73946c6.5008,0.06555 13.13791,1.96418 13.07229,8.46496c-0.02158,2.14518 0.32146,6.58078 0.68569,10.78125c0.35945,4.1437 -0.19385,7.09986 -2.37866,7.27583c-2.8071,0.22617 -3.21707,-1.83312 -3.21707,-1.83312c0,0 -1.18452,2.27564 -2.5298,2.34957c-1.3454,0.07393 -3.49464,-2.02197 -3.49464,-2.02197c0,0 -1.47813,1.85171 -3.10772,1.96c-1.62955,0.10816 -2.76745,-1.55996 -2.76745,-1.55996c0,0 -1.04789,2.00647 -3.10322,2.01227c-2.05533,0.00587 -2.52056,-2.41674 -2.52056,-2.41674c0,0 -0.08235,1.85897 -1.41426,1.92624c-1.33191,0.06727 -0.31246,-0.00176 -1.03954,-0.35811c-0.59897,-0.29348 -3.60207,-8.48385 -3.58367,-10.30275z"/></g><path d="M247.83866,207.38362c-2.3158,-0.19669 -10.19517,-0.59789 -10.23055,-2.46794c0.11168,-1.79515 2.19424,-3.47625 2.19424,-3.47625c0,0 -2.5071,-1.19556 -2.14028,-2.89483c0.47586,-2.20472 6.56488,-3.09767 9.83214,-3.01103c3.26726,0.08663 6.96428,1.13428 8.02952,2.73498c2.68534,4.03485 -0.25767,4.06711 -0.25767,4.06711c0,0 3.07929,0.17299 2.29845,4.22659c-0.38475,1.99738 -7.12319,1.04257 -9.72588,0.8216z"/></g><path d="M240.41289,248.97856c-0.09986,-3.26517 2.34235,-6.58459 2.34235,-6.58459c0,0 -3.37544,-1.83353 -3.13529,-4.9591c0.31162,-4.05501 7.99592,-6.47666 12.19583,-6.75157c4.19985,-0.27503 9.08067,1.13364 10.66282,3.89126c3.98834,6.95141 0.22009,7.39866 0.22009,7.39866c0,0 3.97049,-0.09361 3.51838,7.34983c-0.22287,3.66776 -7.76213,4.18213 -13.40082,4.10687c-5.63868,-0.07513 -12.1048,-1.0698 -12.4033,-4.45136z" data-paper-data="{&quot;index&quot;:null}" fill="#747875" stroke="none" stroke-width="0" stroke-linecap="butt"/><g><path d="M201.61847,149.19928c-12.03277,-7.02449 -22.57188,-23.16563 -22.57188,-23.16563l25.01032,1.08089l32.78844,27.88867c0,0 -23.19411,1.22055 -35.22687,-5.80394z" data-paper-data="{&quot;index&quot;:null}" fill="#0d0a0e" stroke="none" stroke-width="0" stroke-linecap="butt"/><g data-paper-data="{&quot;index&quot;:null}" fill="#0d0a0e" stroke-width="0"><path d="M206.37089,133.32074c-6.68766,-17.26525 1.88711,-36.68299 19.15241,-43.37067c17.26525,-6.68766 36.68296,1.8872 43.37064,19.15249c6.68766,17.26525 -1.88714,36.68293 -19.15244,43.37061c-17.26525,6.68766 -36.68293,-1.88714 -43.37061,-19.15244z" stroke="none" stroke-linecap="butt"/><path d="M203.99762,128.7307c0,0 -8.86033,-22.59702 -3.60098,-51.10602c5.82072,-31.55228 22.96187,-49.63761 22.96187,-49.63761l10.5661,39.09863c0,0 9.75566,-3.70814 20.94557,-16.55295c11.43349,-13.1243 10.91853,-25.13529 10.91853,-25.13529c0,0 10.86861,15.41589 10.4356,41.79653c-0.37153,22.63547 -2.44835,28.04653 -2.44835,28.04653c0,0 8.23591,-2.96299 15.02014,-6.55647c6.78429,-3.5935 22.17856,-13.58301 22.17856,-13.58301c0,0 -12.5527,33.81313 -21.86357,45.21861c-9.31093,11.40551 -28.37942,25.12682 -28.37942,25.12682" stroke="#000000" stroke-linecap="round"/></g><path d="M227.75251,89.66749c0,0 6.5966,-11.67672 11.91215,-18.55587c5.31568,-6.87919 6.19299,-7.43515 8.08015,-7.08105c1.83618,0.34455 4.25044,7.72234 6.25855,13.0753c2.00805,5.35298 3.12962,11.95097 3.12962,11.95097" data-paper-data="{&quot;index&quot;:null}" fill="#0d0a0e" stroke="#000000" stroke-width="0.125" stroke-linecap="round"/><path d="M204.27872,123.29139c0,0 -8.5435,-7.23333 -11.87533,-11.23863c-2.91134,-3.49974 -8.66599,-10.55993 -7.02504,-11.48171c1.36936,-0.76928 7.99758,-0.43621 11.35141,-0.95471c3.65435,-0.56489 9.75043,-2.30735 9.75043,-2.30735" data-paper-data="{&quot;index&quot;:null}" fill="#0d0a0e" stroke="#000000" stroke-width="0" stroke-linecap="round"/><path d="M219.27265,150.31923c-0.49502,-1.45104 -0.13079,-5.02583 4.71379,-7.42516c3.73317,-1.91802 11.34008,0.40361 17.14467,-1.57934c8.72149,-2.9794 7.40895,-14.64857 18.19813,-15.6337c8.63887,-0.92423 11.51787,17.84288 -11.06191,27.26554c-5.48948,1.96249 -13.83385,2.62166 -19.06925,1.95121c-6.37503,-0.81634 -9.12395,-2.22945 -9.92545,-4.57861z" data-paper-data="{&quot;index&quot;:null}" fill="#111115" stroke="#000000" stroke-width="0" stroke-linecap="butt"/><path d="M204.03864,130.46618c0,0 -7.19798,-10.85796 -7.14486,-13.04817c0.08102,-3.34454 5.82084,-1.7873 5.82084,-1.7873" data-paper-data="{&quot;index&quot;:null}" fill="#0d0a0e" stroke="#000000" stroke-width="0.125" stroke-linecap="round"/><path d="M209.44236,147.10315c-0.0309,-0.91231 4.1847,-0.58415 7.26083,-0.73133c3.07608,-0.14714 7.07899,-1.20079 7.61131,0.17349c0.88279,2.27904 -3.54378,3.84131 -6.93892,4.24863c-5.37643,0.64502 -7.83178,-0.69971 -7.93314,-3.69076z" data-paper-data="{&quot;index&quot;:null}" fill="#0d1114" stroke="none" stroke-width="0" stroke-linecap="butt"/><path d="M215.85971,146.36227c1.44988,-0.27166 2.69868,-0.10014 2.78922,0.38318c0.09055,0.48332 -1.01141,1.09538 -2.46126,1.36696c-1.44988,0.27166 -2.69868,0.10014 -2.78922,-0.38318c-0.09055,-0.48332 1.01141,-1.09538 2.46126,-1.36696z" data-paper-data="{&quot;index&quot;:null}" fill="#78828a" stroke="none" stroke-width="0" stroke-linecap="butt"/><path d="M233.93449,86.93853c0,0 8.14512,-14.55198 12.62055,-15.07278c3.11906,-0.36296 6.52129,18.47898 6.52129,18.47898c0,0 -1.50426,-2.33908 -8.91736,-3.08088c-6.7771,-0.67813 -10.22441,-0.32534 -10.22441,-0.32534z" data-paper-data="{&quot;index&quot;:null}" fill="#111115" stroke="none" stroke-width="0" stroke-linecap="butt"/></g></g></g></svg>