<svg version="1.1" xmlns="http://www.w3.org/2000/svg" xmlns:xlink="http://www.w3.org/1999/xlink" width="31.75869" height="38.6542" viewBox="0,0,31.75869,38.6542"><defs><radialGradient cx="240.87852" cy="196.33495" r="9.67927" gradientUnits="userSpaceOnUse" id="color-1"><stop offset="0" stop-color="#d6feff" stop-opacity="0"/><stop offset="1" stop-color="#d6feff" stop-opacity="0.2"/></radialGradient></defs><g transform="translate(-224.47967,-163.26059)"><g data-paper-data="{&quot;isPaintingLayer&quot;:true}" fill-rule="nonzero" stroke-linejoin="miter" stroke-miterlimit="10" stroke-dasharray="" stroke-dashoffset="0" style="mix-blend-mode: normal"><path d="M249.20507,199.5216c0,0 -4.06231,1.179 -6.35093,1.39318c-1.46785,0.13738 -4.5476,-1.01429 -7.29595,-1.54839c-1.71592,-0.33348 -5.05997,-1.83413 -5.14135,-1.90924c-0.47754,-0.44079 0.25126,-2.8591 1.2411,-2.94055c0.33829,-0.02784 0.93302,-0.59454 3.63083,-0.56223c3.64438,0.04364 10.60848,-0.00169 12.96139,1.37275c0.88188,0.51514 2.73425,1.43099 2.32034,1.90625c-0.41389,0.47526 -1.36544,2.28823 -1.36544,2.28823z" data-paper-data="{&quot;index&quot;:null}" fill="url(#color-1)" stroke-opacity="0.25098" stroke="#313040" stroke-width="2" stroke-linecap="butt"/><path d="M237.71486,183.83282c0,0 -0.23135,0.96109 -1.27457,1.54325c-1.0432,0.58216 -3.30198,1.01066 -3.30198,1.01066c0,0 2.23931,-1.6529 2.84612,-2.34807c0.50546,-0.57906 0.54654,-1.53864 0.54654,-1.53864l1.1839,1.33279z" data-paper-data="{&quot;index&quot;:null}" fill="#02124a" stroke="none" stroke-width="0" stroke-linecap="butt"/><g data-paper-data="{&quot;index&quot;:null}"><g><g><path d="M247.32573,183.03714c0.25574,0.13321 1.17692,1.16463 1.17325,1.2703c-0.00446,0.12827 0.08131,-0.00914 -0.02753,0.1721c-0.10883,0.18123 -0.37496,0.05397 -0.37496,0.05397c0,0 0.30405,0.24591 0.14979,0.5329c-0.15426,0.28697 -0.51308,0.28373 -0.51308,0.28373c0,0 0.14835,0.28367 0.01156,0.50347c-0.1368,0.21979 -0.5061,0.28827 -0.5061,0.28827c0,0 0.13266,0.45702 0.02189,0.63966c-0.11078,0.18263 -0.51744,0.17838 -0.51744,0.17838c0,0 0.25737,0.21106 0.01618,0.58674c-0.18771,0.2924 -0.64243,0.14908 -1.19507,-0.21053c-0.56021,-0.36452 -1.15491,-0.74363 -1.45651,-0.90076c-0.914,-0.47614 -0.68403,-1.54605 -0.20787,-2.46006c0.22301,-0.42808 0.75204,-0.98411 1.37677,-0.98361c0.83737,0.00067 1.56322,-0.20776 2.04912,0.04538z" fill="#fdfdfd" stroke="none" stroke-width="0" stroke-linecap="butt"/><path d="M245.89082,184.57387c0,0 0.31011,-0.579 0.69287,-0.67134c0.18107,-0.0437 0.49853,0.32242 0.84824,0.47885c0.34971,0.15641 0.81885,0.1628 0.81885,0.1628" fill="none" stroke="#a4a4a4" stroke-width="0.125" stroke-linecap="round"/></g><path d="M244.07822,184.36681c-0.1634,0.38048 -0.53293,1.39411 -0.84098,1.29879c-0.62519,-0.19344 -0.41949,-0.63697 -0.41949,-0.63697c0,0 -0.22421,0.40915 -0.58801,-0.26759c-0.14432,-0.26846 -0.01482,-0.86368 0.21698,-1.32706c0.23181,-0.46337 0.81125,-1.24824 1.15509,-1.15019c0.26502,0.07556 0.24505,0.51542 0.24505,0.51542c0,0 0.39057,-0.16575 0.64995,-0.04735c0.25887,0.14457 -0.27324,1.27641 -0.41863,1.61495z" fill="#fdfdfd" stroke="none" stroke-width="0" stroke-linecap="butt"/></g><path d="M240.11615,178.73302c0.25904,-0.46246 0.1225,-0.24013 0.6774,-0.14462c0.5549,0.0955 0.24486,0.72812 0.24486,0.72812l-0.69096,1.86651l2.55328,1.73084l-0.4632,0.91183l-3.33397,-2.16868c0,0 0.75356,-2.46155 1.01259,-2.92401z" data-paper-data="{&quot;index&quot;:null}" fill="#fec267" stroke="none" stroke-width="0" stroke-linecap="butt"/></g><path d="M240.98738,191.21099c0,0 -0.55227,-3.00833 -1.05533,-4.57316c-0.50305,-1.56485 -1.27266,-2.84747 -1.27266,-2.84747l1.48846,-0.49415l2.32009,8.04493z" data-paper-data="{&quot;index&quot;:null}" fill="#033397" stroke="none" stroke-width="0" stroke-linecap="butt"/><g data-paper-data="{&quot;index&quot;:null}" stroke="none" stroke-width="0" stroke-linecap="butt"><path d="M249.67047,196.13147c0,0 -1.12722,1.31181 -4.35618,1.19738c-0.70266,-0.02488 -2.34265,-0.25006 -2.34265,-0.25006l-0.03025,-0.5588l-1.36503,-0.17114l-0.04687,0.40305c0,0 -0.95921,-0.25191 -1.20784,-0.36032c-0.58804,-0.25644 -1.39195,-0.66914 -1.39195,-0.66914c0,0 -0.08273,-1.45815 0.53904,-2.83267c0.24533,-0.54236 0.87159,-1.14259 5.92583,-0.07562c4.29785,0.46196 4.27585,3.31733 4.27585,3.31733z" fill="#e90023"/><path d="M249.61758,196.13677l0.01408,0.39605l-1.00837,-0.08822l-0.70795,0.29877l0.1996,0.73688l-1.16493,-0.78913l0.49148,-1.04848l1.66807,-0.64442l0.50795,1.13855z" fill="#948a92"/><path d="M241.55847,196.29431c0,0 -0.04583,-0.59088 -0.23648,-1.18703c-0.19066,-0.59616 -0.70071,-1.42537 -0.70071,-1.42537l-0.07402,-1.23945l1.40995,-0.19492c0,0 0.59465,0.89365 0.82875,2.04739c0.22064,1.08748 0.18259,2.28008 0.18259,2.28008z" fill="#deca55"/><path d="M249.09315,195.35209l-1.25963,0.84275l0.38658,1.2633l-1.78746,0.43888l-3.49258,-0.78702l-0.06966,-1.29134l3.08286,0.90377l0.42446,-1.84864l1.95381,-1.13727l1.08214,1.24701l0.44289,1.27625l-0.24695,0.33679z" fill="#edeeee"/><g><path d="M249.27544,196.057c0.22261,0.26404 0.08677,0.79223 -0.20192,0.93397c-0.41095,0.20176 -0.7302,0.20271 -0.95281,-0.06132c-0.22261,-0.26403 -0.20865,-0.67041 0.14203,-0.92474c0.35068,-0.25431 0.79009,-0.21192 1.0127,0.05211z" fill="#ece09c"/><path d="M249.18514,196.99259c-0.28449,0.23866 -0.8061,0.21086 -0.97079,-0.03019c-0.17276,-0.25287 0.14202,-0.61277 0.35044,-0.74778c0.23379,-0.16957 0.60811,-0.14355 0.75652,0.03245c0.14842,0.17602 0.09759,0.57596 -0.13618,0.74552z" fill="#000000"/></g><path d="M242.87899,194.97331c0,0 0.05509,0.54234 0.05699,0.81325c0.00186,0.26539 -0.04569,0.79595 -0.04569,0.79595l-0.36362,-0.08759l0.10025,-2.73798c0,0 0.15454,0.4906 0.19958,0.70792c0.03767,0.18175 0.05251,0.50847 0.05251,0.50847z" fill="#6a2625"/><path d="M239.0223,194.61378c0,0 1.05717,0.2027 1.02806,0.67206c-0.0291,0.46938 -1.06674,-0.04818 -1.06674,-0.04818l0.03869,-0.62386z" fill="#eac763"/><path d="M243.4643,192.35211c0.03274,0.50787 -0.90275,0.80245 -1.73657,0.94196c-0.83382,0.13951 -1.9627,0.23495 -2.07922,-0.30347c-0.23646,-1.09268 0.35402,-1.1692 0.35402,-1.1692c0,0 -0.56855,0.01953 -0.13582,-1.10132c0.17166,-0.44464 0.86282,-0.76449 1.49141,-0.81935c0.62859,-0.05488 1.82238,0.12902 1.96087,0.72279c0.10674,0.45767 -0.35168,0.8062 -0.35168,0.8062c0,0 0.43746,0.43628 0.49699,0.92237z" fill="#fdfdfd"/></g><path d="M233.89348,190.40008c0,0 1.32345,-2.88321 1.95716,-4.56734c0.63371,-1.68414 0.84955,-3.32036 0.84955,-3.32036l1.59995,0.64764l-3.48417,8.4677z" data-paper-data="{&quot;index&quot;:null}" fill="#033397" stroke="none" stroke-width="0" stroke-linecap="butt"/><g data-paper-data="{&quot;index&quot;:null}" stroke="none" stroke-width="0" stroke-linecap="butt"><path d="M242.53882,197.1824c0,0 -1.2786,1.30766 -4.67811,0.96752c-0.73976,-0.07401 -2.45503,-0.42305 -2.45503,-0.42305l0.00606,-0.59171l-1.42879,-0.27333l-0.07683,0.42213c0,0 -0.99506,-0.331 -1.25006,-0.46229c-0.60309,-0.31056 -1.42336,-0.80068 -1.42336,-0.80068c0,0 0.01179,-1.5443 0.76128,-2.95249c0.29573,-0.55564 0.99737,-1.14647 6.25825,0.32285c4.50382,0.77949 4.28661,3.79106 4.28661,3.79106z" fill="#e90023"/><path d="M242.48269,197.18441l-0.01207,0.41887l-1.05805,-0.16159l-0.76734,0.26717l0.16055,0.79114l-1.17563,-0.91187l0.58987,-1.073l1.80399,-0.56668l0.45864,1.23595z" fill="#948a92"/><path d="M233.96784,196.80302c0,0 -0.00819,-0.62662 -0.16888,-1.26865c-0.16068,-0.64203 -0.64256,-1.55169 -0.64256,-1.55169l0.0061,-1.31292l1.50107,-0.10989c0,0 0.56676,0.98339 0.73539,2.21678c0.15895,1.16254 0.03775,2.41842 0.03775,2.41842z" fill="#deca55"/><path d="M241.98262,196.32076l-1.38646,0.8037l0.3221,1.35933l-1.91601,0.34167l-3.63199,-1.0678l0.01424,-1.36738l3.19172,1.16316l0.57351,-1.9219l2.13898,-1.06734l1.05718,1.3894l0.38064,1.37683l-0.28347,0.33861z" fill="#edeeee"/><g><path d="M242.12711,197.07701c0.21697,0.29374 0.03773,0.84187 -0.27653,0.97182c-0.44735,0.18498 -0.78429,0.16428 -1.00126,-0.12945c-0.21697,-0.29375 -0.17463,-0.72162 0.2127,-0.96618c0.38734,-0.24453 0.84813,-0.16993 1.0651,0.1238z" fill="#ece09c"/><path d="M241.96824,198.0581c-0.31641,0.23252 -0.86495,0.16774 -1.02236,-0.09782c-0.16512,-0.27856 0.1915,-0.63696 0.42061,-0.76526c0.25823,-0.16304 0.65145,-0.11016 0.7961,0.08565c0.14466,0.19582 0.06386,0.6144 -0.19435,0.77744z" fill="#000000"/></g><path d="M235.45103,195.49884c0,0 0.02129,0.57603 0.00489,0.86203c-0.01607,0.28018 -0.10229,0.83681 -0.10229,0.83681l-0.37776,-0.11714l0.29183,-2.88239c0,0 0.12973,0.5282 0.16249,0.76058c0.02739,0.19435 0.02086,0.54012 0.02086,0.54012z" fill="#6a2625"/><path d="M231.40577,194.85741c0,0 1.1018,0.28573 1.03918,0.77903c-0.0626,0.49332 -1.12238,-0.12332 -1.12238,-0.12332l0.0832,-0.65569z" fill="#eac763"/><path d="M236.24676,192.77264c0.00005,0.53815 -1.00713,0.78545 -1.89648,0.876c-0.88934,0.09057 -2.08705,0.11456 -2.17342,-0.46151c-0.17526,-1.16909 0.45302,-1.20971 0.45302,-1.20971c0,0 -0.60128,-0.01804 -0.06849,-1.17139c0.21135,-0.45754 0.96242,-0.74809 1.62945,-0.76327c0.66703,-0.0152 1.91425,0.25997 2.02005,0.89594c0.08153,0.4902 -0.42589,0.82684 -0.42589,0.82684c0,0 0.43197,0.49008 0.46177,1.00708z" fill="#fdfdfd"/></g><path d="M237.15772,177.99506c0,0 0.7635,1.95709 1.42237,1.98449c0.65887,0.02739 -1.0988,0.86587 -2.08292,2.19285c-0.98411,1.32698 -2.18405,3.56074 -2.18405,3.56074c0,0 -0.20316,-3.60378 0.21677,-5.01862c0.78818,-2.65563 2.62783,-2.71947 2.62783,-2.71947z" data-paper-data="{&quot;index&quot;:null}" fill="#02124a" stroke="none" stroke-width="0" stroke-linecap="butt"/><path d="M237.58696,184.05371c-0.7888,-0.25666 -1.34763,-0.76113 -0.96605,-2.58328c0.21281,-1.01619 -0.17774,-2.61982 0.1181,-3.52902c0.49499,-1.52124 2.29353,-0.11407 3.61736,0.3167c1.32383,0.43075 1.38164,2.18538 0.88664,3.70662c-0.495,1.52125 -2.33223,2.51975 -3.65605,2.08898z" data-paper-data="{&quot;index&quot;:null}" fill="#033397" stroke="none" stroke-width="0" stroke-linecap="butt"/><path d="M241.47177,181.69039c-0.36215,1.01177 -1.42426,2.22069 -2.66398,1.96998c-1.11256,-0.22501 -0.78028,-3.80777 0.04468,-4.49646c0.89389,-0.74622 2.08631,-0.56849 2.29954,-0.13536c0.42053,0.85421 0.83116,1.23308 0.31976,2.66183z" data-paper-data="{&quot;index&quot;:null}" fill="#fec267" stroke="none" stroke-width="0" stroke-linecap="butt"/><g data-paper-data="{&quot;index&quot;:null}"><g fill="#033397" stroke-width="0"><path d="M238.51584,178.32569c-2.92321,-0.26428 -5.07868,-2.84824 -4.8144,-5.77144c0.26428,-2.92321 2.84824,-5.07869 5.77144,-4.81441c2.92321,0.26428 5.07868,2.84825 4.8144,5.77145c-0.26428,2.92321 -2.84824,5.07868 -5.77144,4.8144z" stroke="none" stroke-linecap="butt"/><path d="M236.53398,177.73544c0,0 -2.18716,-0.17463 -3.89384,1.1109c-1.70668,1.28555 -3.21985,4.24743 -3.21985,4.24743c0,0 -0.86437,-1.58908 -0.51327,-4.28112c0.29748,-2.28102 1.59117,-4.08534 1.59117,-4.08534c0,0 -1.79131,0.31746 -2.66301,0.80857c-1.44961,0.8167 -3.34681,2.70793 -3.34681,2.70793c0,0 -0.24051,-3.06972 1.80799,-6.46632c1.76489,-2.92635 4.55277,-3.85109 4.55277,-3.85109c0,0 -1.14227,-1.04785 -2.20106,-1.44984c-1.28596,-0.48824 -2.85766,-0.5053 -2.85766,-0.5053c0,0 4.15715,-3.78784 10.08019,-2.40825c8.61874,1.96753 8.57766,9.14512 8.57766,9.14512" stroke="#000000" stroke-linecap="round"/></g><path d="M234.61722,168.98559c0,0 -0.11754,-1.05441 -0.04557,-1.95787c0.07197,-0.90346 0.11732,-2.13321 0.38206,-2.26599c0.27208,-0.13646 0.43007,-0.09009 1.54079,0.72576c1.1107,0.81585 2.62634,2.30675 2.62634,2.30675" fill="#033397" stroke="#000000" stroke-width="0.125" stroke-linecap="round"/><path d="M242.69631,168.0287c0,0 1.00509,-0.00099 1.58662,-0.07467c0.53372,-0.06761 1.52915,-0.40812 1.77144,-0.35077c0.29034,0.06872 -0.27789,1.3961 -0.56852,2.05666c-0.3326,0.75597 -1.31822,2.23166 -1.31822,2.23166" fill="#033397" stroke="#000000" stroke-width="0" stroke-linecap="round"/><path d="M244.2676,171.76738c0,0 0.24487,1.18215 -0.0044,2.229c-0.24925,1.04684 -1.12568,2.51716 -1.12568,2.51716c0,0 -0.6811,-0.61839 -0.81534,-0.66336c-1.08877,-0.36484 -2.31372,0.87479 -3.51673,0.50394c-1.20302,-0.37083 -1.7459,-1.36297 -2.11225,-2.23455c-0.36635,-0.87158 -0.13917,-2.33045 0.20151,-2.95917c0.47632,-0.73225 1.20485,-0.81838 1.52342,-0.75071c0.37043,0.07869 1.17314,0.27869 1.87769,1.43094c0.69658,1.13917 0.7517,3.07477 1.50945,3.56362c0.21653,0.27144 0.66664,-0.23552 0.66664,-0.23552c0,0 0.13554,0.18102 0.2431,0.02945c0.33767,-0.47573 0.34277,-0.50316 0.71848,-1.3095c0.37571,-0.80634 0.83415,-2.12128 0.83415,-2.12128z" fill="#fdfdfd" stroke="#000000" stroke-width="0" stroke-linecap="butt"/><path d="M243.06443,176.66549c-0.01943,0.39299 -0.37654,0.72849 -1.31226,1.13158c-0.76844,0.33104 -2.06876,0.59538 -2.99103,0.53632c-3.85258,-0.4487 -4.23431,-3.43425 -2.87753,-3.67108c1.68709,-0.32155 1.99723,1.51395 3.45643,1.58668c0.97118,0.0484 2.02881,-0.63791 2.68151,-0.50884c0.8431,0.15381 1.05487,0.68262 1.04288,0.92536z" fill="#fec267" stroke="#000000" stroke-width="0" stroke-linecap="butt"/><path d="M244.07108,170.65588c0,0 0.80655,-0.48821 0.9651,0.01789c0.10384,0.33142 -0.5183,2.3006 -0.5183,2.3006" fill="#033397" stroke="#000000" stroke-width="0.125" stroke-linecap="round"/><path d="M244.42176,175.74571c0.11531,0.4602 -0.20005,0.77244 -1.04749,0.90919c-0.53515,0.08635 -1.27796,0.04181 -1.24307,-0.34405c0.02104,-0.23269 0.67706,-0.24713 1.15221,-0.35918c0.47516,-0.11205 1.10319,-0.34634 1.13836,-0.20598z" fill="#0d1114" stroke="none" stroke-width="0" stroke-linecap="butt"/><path d="M243.84632,176.01404c0.00733,0.07761 -0.17546,0.15834 -0.40826,0.18033c-0.23279,0.022 -0.42747,-0.0231 -0.4348,-0.1007c-0.00733,-0.07761 0.17546,-0.15834 0.40826,-0.18033c0.23279,-0.022 0.42747,0.0231 0.4348,0.1007z" fill="#fdfdfd" stroke="none" stroke-width="0" stroke-linecap="butt"/><path d="M238.05954,167.64864c0,0 -0.54071,0.09695 -1.54375,0.49655c-1.09716,0.43711 -1.22412,0.85929 -1.22412,0.85929c0,0 -0.30527,-3.01982 0.18587,-3.10087c0.70472,-0.11629 2.58201,1.74503 2.58201,1.74503z" fill="#fec267" stroke="none" stroke-width="0" stroke-linecap="butt"/><g stroke="none" stroke-width="0" stroke-linecap="butt"><path d="M240.25728,172.55649c0.2741,0.06856 0.25914,0.70894 0.0721,1.45671c-0.18703,0.74779 -0.47533,1.31977 -0.74941,1.25123c-0.30452,-0.07618 -0.25914,-0.70894 -0.0721,-1.45671c0.18703,-0.74779 0.4449,-1.3274 0.74941,-1.25124z" fill="#005c2d"/><path d="M240.06698,173.31714c0.10922,0.02731 0.13644,0.29466 0.06079,0.59714c-0.07565,0.30247 -0.22553,0.52552 -0.33475,0.4982c-0.10922,-0.02732 -0.13644,-0.29466 -0.06079,-0.59714c0.07565,-0.30248 0.22553,-0.52553 0.33475,-0.49821z" fill="#000000"/><path d="M240.12027,173.10416c0.10923,0.02734 0.16199,0.19253 0.11787,0.36895c-0.04412,0.17645 -0.16846,0.29733 -0.27768,0.27002c-0.10922,-0.02734 -0.16199,-0.19253 -0.11787,-0.36895c0.04413,-0.17645 0.16847,-0.29733 0.27769,-0.27002z" fill="#ffffff"/></g><g stroke="none" stroke-width="0" stroke-linecap="butt"><path d="M243.81467,174.84926c-0.2012,0.48522 -0.45301,0.84181 -0.63085,0.76807c-0.19759,-0.08193 -0.10343,-0.50387 0.09777,-0.9891c0.2012,-0.48522 0.43325,-0.85001 0.63085,-0.76807c0.17785,0.07373 0.10343,0.50387 -0.09777,0.9891z" fill="#005c2d"/><path d="M243.68874,174.76234c-0.08139,0.19628 -0.20482,0.33157 -0.2757,0.30218c-0.07088,-0.02938 -0.06235,-0.21232 0.01903,-0.40859c0.08139,-0.19628 0.20482,-0.33157 0.2757,-0.30218c0.07088,0.02938 0.06235,0.21232 -0.01903,0.40859z" fill="#000000"/><path d="M243.76505,174.21556c0.07088,0.02939 0.08985,0.14604 0.04237,0.26053c-0.04749,0.11449 -0.14342,0.18348 -0.2143,0.15409c-0.07088,-0.02939 -0.08985,-0.14604 -0.04237,-0.26053c0.04749,-0.1145 0.14342,-0.18349 0.2143,-0.1541z" fill="#ffffff"/></g><path d="M236.51589,176.36541c0,0 0.51893,0.51663 0.9635,0.66599c0.44457,0.14936 1.28187,0.33923 1.28187,0.33923c0,0 -1.00603,-0.06687 -1.50873,-0.23576c-0.50269,-0.16888 -0.73664,-0.76946 -0.73664,-0.76946z" fill="#000000" stroke="#000000" stroke-width="0" stroke-linecap="butt"/><path d="M243.04067,172.84134c0.18568,0.01679 0.42072,0.97017 0.42072,0.97017c0,0 -0.17727,0.45155 -0.32618,0.72286c-0.14892,0.27133 -0.44484,0.68188 -0.44484,0.68188c0,0 -0.3114,0.07005 -0.25852,-0.51485c0.05288,-0.5849 0.42311,-1.87685 0.6088,-1.86007z" fill="#033397" stroke="none" stroke-width="0" stroke-linecap="butt"/></g><path d="M237.59672,178.56654c0.52444,0.07704 0.26803,0.02878 0.37673,0.58125c0.1087,0.55247 -0.59289,0.48847 -0.59289,0.48847l-1.99018,0.02025l-0.70626,3.00271l-1.01707,-0.1075l0.83685,-3.88822c0,0 2.5684,-0.17401 3.09285,-0.09697z" data-paper-data="{&quot;index&quot;:null}" fill="#fec267" stroke="none" stroke-width="0" stroke-linecap="butt"/><g data-paper-data="{&quot;index&quot;:null}" fill="#fdfdfd" stroke="none" stroke-width="0" stroke-linecap="butt"><g><path d="M236.08271,186.71622c-0.05646,0.28277 -0.78942,1.45547 -0.8919,1.48147c-0.12442,0.03158 0.03148,0.07552 -0.17295,0.02166c-0.20443,-0.05385 -0.1566,-0.34494 -0.1566,-0.34494c0,0 -0.15116,0.36066 -0.46983,0.29273c-0.31866,-0.06791 -0.41581,-0.41335 -0.41581,-0.41335c0,0 -0.23091,0.2217 -0.48019,0.15177c-0.24927,-0.06993 -0.41821,-0.40539 -0.41821,-0.40539c0,0 -0.40177,0.25508 -0.60808,0.19974c-0.20628,-0.05534 -0.31584,-0.447 -0.31584,-0.447c0,0 -0.13074,0.30608 -0.55885,0.17947c-0.33321,-0.09853 -0.32266,-0.57518 -0.13178,-1.20629c0.19347,-0.63975 0.39133,-1.3167 0.45792,-1.65019c0.2018,-1.01063 1.29335,-1.08877 2.30399,-0.88697c0.47337,0.09452 1.15506,0.44711 1.32914,1.0471c0.23331,0.80417 0.63624,1.44289 0.52896,1.98017z"/></g><path d="M233.89846,183.96958c-0.41097,-0.05059 -1.48747,-0.12217 -1.48203,-0.44459c0.01103,-0.65431 0.49438,-0.58074 0.49438,-0.58074c0,0 -0.45551,-0.10097 0.09265,-0.63936c0.21746,-0.21361 0.82515,-0.25559 1.33485,-0.16249c0.5097,0.0931 1.42518,0.43017 1.42712,0.78771c0.0015,0.27558 -0.42642,0.3793 -0.42642,0.3793c0,0 0.26827,0.32872 0.22706,0.61085c-0.06647,0.28896 -1.30192,0.09428 -1.66759,0.04928z"/></g></g></g></svg>