<svg version="1.1" xmlns="http://www.w3.org/2000/svg" xmlns:xlink="http://www.w3.org/1999/xlink" width="25.63439" height="37.13395" viewBox="0,0,25.63439,37.13395"><defs><radialGradient cx="239.7865" cy="196.33495" r="8.90592" gradientUnits="userSpaceOnUse" id="color-1"><stop offset="0" stop-color="#d6feff" stop-opacity="0"/><stop offset="1" stop-color="#d6feff" stop-opacity="0.25098"/></radialGradient></defs><g transform="translate(-229.8332,-163.34114)"><g data-paper-data="{&quot;isPaintingLayer&quot;:true}" fill-rule="nonzero" stroke-linejoin="miter" stroke-miterlimit="10" stroke-dasharray="" stroke-dashoffset="0" style="mix-blend-mode: normal"><path d="M230.88778,197.23336c-0.38003,-0.47526 1.32073,-1.39111 2.13042,-1.90625c2.16033,-1.37444 8.55444,-1.32911 11.90054,-1.37275c2.477,-0.03231 3.02305,0.53439 3.33366,0.56223c0.90883,0.08144 1.57797,2.49976 1.13952,2.94055c-0.07471,0.07511 -3.14506,1.57577 -4.72054,1.90924c-2.5234,0.5341 -5.35109,1.68576 -6.6988,1.54839c-2.1013,-0.21418 -5.83113,-1.39318 -5.83113,-1.39318c0,0 -0.87366,-1.81297 -1.25367,-2.28823z" data-paper-data="{&quot;index&quot;:null}" fill="url(#color-1)" stroke-opacity="0.25098" stroke="#313040" stroke-width="2" stroke-linecap="butt"/><g data-paper-data="{&quot;index&quot;:null}"><g><g><path d="M233.66525,184.28528c0.42819,-0.34181 1.18057,-0.27678 2.0022,-0.43838c0.61298,-0.12057 1.23902,0.32341 1.54015,0.70064c0.64296,0.80545 1.07428,1.81121 0.26884,2.45415c-0.26577,0.21218 -0.77652,0.69852 -1.25623,1.16392c-0.47322,0.45913 -0.8919,0.68717 -1.13232,0.4363c-0.3089,-0.32232 -0.0969,-0.57891 -0.0969,-0.57891c0,0 -0.39826,0.08234 -0.54207,-0.07559c-0.1438,-0.15795 -0.10147,-0.63194 -0.10147,-0.63194c0,0 -0.37557,0.00377 -0.55208,-0.18563c-0.17649,-0.18941 -0.08543,-0.49631 -0.08543,-0.49631c0,0 -0.35151,0.07215 -0.55805,-0.17981c-0.20655,-0.25199 0.04457,-0.55175 0.04457,-0.55175c0,0 -0.23671,0.17604 -0.37835,0.01911c-0.14165,-0.15694 -0.03106,-0.03859 -0.0601,-0.1636c-0.02391,-0.103 0.68184,-1.29224 0.90721,-1.47212z" fill="#fdfdfd" stroke="none" stroke-width="0" stroke-linecap="butt"/><path d="M233.04713,185.94208c0,0 0.45916,-0.09644 0.77229,-0.31715c0.31312,-0.22073 0.55429,-0.64104 0.74039,-0.63296c0.39337,0.01705 0.80899,0.52566 0.80899,0.52566" fill="none" stroke="#a4a4a4" stroke-width="0.125" stroke-linecap="round"/></g><path d="M237.10784,184.96602c-0.20774,-0.30428 -0.94749,-1.31275 -0.72123,-1.50438c0.23179,-0.16604 0.64694,-0.07846 0.64694,-0.07846c0,0 -0.10414,-0.42782 0.14141,-0.55291c0.31859,-0.16231 1.03807,0.49656 1.35462,0.90672c0.31654,0.41019 0.55804,0.96942 0.46801,1.26061c-0.22695,0.73405 -0.52561,0.37562 -0.52561,0.37562c0,0 0.28711,0.39573 -0.28924,0.70573c-0.28398,0.15276 -0.84146,-0.77095 -1.07494,-1.11293z" fill="#fdfdfd" stroke="none" stroke-width="0" stroke-linecap="butt"/></g><path d="M239.91315,178.67574c0.34309,0.40405 1.55571,2.67487 1.55571,2.67487l-2.85497,2.76905l-0.62982,-0.8058l2.173,-2.18932l-1.03683,-1.6989c0,0 -0.42585,-0.56124 0.10035,-0.76161c0.5262,-0.20038 0.34947,-0.39232 0.69256,0.01173z" data-paper-data="{&quot;index&quot;:null}" fill="#fec267" stroke="none" stroke-width="0" stroke-linecap="butt"/></g><path d="M242.79096,177.911c0,0 1.83541,0.1402 2.5126,2.82628c0.36079,1.43106 0.00811,5.02329 0.00811,5.02329c0,0 -1.10611,-2.28168 -2.03425,-3.64839c-0.92815,-1.36671 -2.64947,-2.27748 -1.99003,-2.27748c0.65944,0 1.50358,-1.92369 1.50358,-1.92369z" data-paper-data="{&quot;index&quot;:null}" fill="#02124a" stroke="none" stroke-width="0" stroke-linecap="butt"/><path d="M238.57829,191.55726l1.25752,-8.27783l1.53997,0.29701c0,0 -0.59683,1.37158 -0.89276,2.98843c-0.29595,1.61684 -0.41798,4.17265 -0.41798,4.17265z" data-paper-data="{&quot;index&quot;:null}" fill="#033397" stroke="none" stroke-width="0" stroke-linecap="butt"/><g data-paper-data="{&quot;index&quot;:null}" stroke="none" stroke-width="0" stroke-linecap="butt"><path d="M231.89691,196.90218c0,0 -0.3164,-2.83786 3.91088,-3.74068c4.91722,-1.58262 5.60206,-1.05018 5.90202,-0.53602c0.76023,1.30306 0.82835,2.76196 0.82835,2.76196c0,0 -0.75705,0.49341 -1.31551,0.80916c-0.23612,0.13348 -1.16423,0.48298 -1.16423,0.48298l-0.0882,-0.39607l-1.34009,0.31102l0.02755,0.55894c0,0 -1.60802,0.39314 -2.30436,0.49037c-3.19993,0.44688 -4.45646,-0.74166 -4.45646,-0.74166z" fill="#e90023"/><path d="M231.95009,196.90199l0.3878,-1.18487l1.72564,0.46892l0.59701,0.9922l-1.07731,0.90507l0.12252,-0.75354l-0.73498,-0.22415l-0.99388,0.19175l-0.02685,-0.39538z" fill="#948a92"/><path d="M238.60879,196.65207c0,0 -0.16087,-1.18231 -0.05357,-2.28675c0.11384,-1.17174 0.61314,-2.12195 0.61314,-2.12195l1.42253,0.04844l0.05422,1.24047c0,0 -0.4218,0.8774 -0.54995,1.49005c-0.12814,0.61264 -0.11278,1.20509 -0.11278,1.20509z" fill="#deca55"/><path d="M232.00538,197.35852l-0.28038,-0.30953l0.30888,-1.31513l0.94775,-1.35198l2.06069,0.92967l0.61288,1.79499l2.9732,-1.21695l0.0639,1.29163l-3.39277,1.14308l-1.8232,-0.25218l0.25421,-1.29643l-1.33984,-0.70832z" fill="#edeeee"/><g><path d="M232.28211,196.78739c0.19419,-0.28558 0.62688,-0.37308 1.00193,-0.15629c0.37505,0.2168 0.43085,0.61957 0.23666,0.90516c-0.19419,0.28558 -0.51183,0.31757 -0.9414,0.15927c-0.30177,-0.1112 -0.49137,-0.62257 -0.29718,-0.90816z" fill="#ece09c"/><path d="M232.46844,197.70865c-0.25001,-0.14454 -0.34182,-0.53711 -0.21235,-0.72749c0.12947,-0.19038 0.49911,-0.25486 0.74914,-0.11032c0.22124,0.11279 0.57146,0.43831 0.4257,0.70764c-0.13895,0.25676 -0.65491,0.3382 -0.9625,0.13017z" fill="#000000"/></g><path d="M238.53264,195.0497c0,0 -0.01894,-0.32651 -0.00021,-0.51117c0.02238,-0.2208 0.12549,-0.72472 0.12549,-0.72472l0.38214,2.71303l-0.35265,0.12463c0,0 -0.10203,-0.52283 -0.12755,-0.78699c-0.02605,-0.26965 -0.02719,-0.81479 -0.02719,-0.81479z" fill="#6a2625"/><path d="M242.33168,194.29428l0.10283,0.61654c0,0 -0.97872,0.62183 -1.05608,0.15796c-0.07737,-0.46385 0.95325,-0.77451 0.95325,-0.77451z" fill="#eac763"/><path d="M237.6801,192.50281c0.00908,-0.48965 0.39921,-0.96872 0.39921,-0.96872c0,0 -0.49194,-0.29939 -0.43297,-0.76563c0.07651,-0.60489 1.24495,-0.91094 1.87586,-0.9212c0.63089,-0.01027 1.35136,0.23657 1.56797,0.66114c0.54604,1.07023 -0.0215,1.10946 -0.0215,1.10946c0,0 0.59522,0.01521 0.47274,1.12644c-0.06036,0.54756 -1.19306,0.56908 -2.03683,0.51632c-0.84376,-0.05275 -1.80466,-0.24927 -1.82446,-0.75782z" fill="#fdfdfd"/></g><path d="M241.9064,183.82159l1.23824,-1.28246c0,0 0.00118,0.96045 0.48215,1.56001c0.57741,0.71978 2.74613,2.46427 2.74613,2.46427c0,0 -2.23903,-0.52196 -3.25715,-1.14695c-1.01813,-0.62499 -1.20936,-1.59486 -1.20936,-1.59486z" data-paper-data="{&quot;index&quot;:null}" fill="#02124a" stroke="none" stroke-width="0" stroke-linecap="butt"/><path d="M238.54431,181.70755c-0.43138,-1.54049 -0.30073,-3.2912 1.03985,-3.66659c1.34058,-0.3754 3.19602,-1.70665 3.62739,-0.16616c0.25781,0.9207 -0.19901,2.50673 -0.0286,3.53088c0.30556,1.83643 -0.27374,2.31725 -1.07252,2.54092c-1.34057,0.3754 -3.13474,-0.69855 -3.56612,-2.23905z" data-paper-data="{&quot;index&quot;:null}" fill="#033397" stroke="none" stroke-width="0" stroke-linecap="butt"/><path d="M238.32716,181.42394c-0.45161,-1.44876 -0.0256,-1.81025 0.43005,-2.64625c0.23104,-0.4239 1.42981,-0.55195 2.29193,0.23076c0.79564,0.72236 0.97881,4.31583 -0.14214,4.49443c-1.24907,0.199 -2.26004,-1.053 -2.57985,-2.07894z" data-paper-data="{&quot;index&quot;:null}" fill="#fec267" stroke="none" stroke-width="0" stroke-linecap="butt"/><path d="M244.57969,191.69269l-2.98624,-8.65585l1.63488,-0.55357c0,0 0.1204,1.646 0.65517,3.36412c0.53478,1.71811 1.71335,4.2455 1.71335,4.2455z" data-paper-data="{&quot;index&quot;:null}" fill="#033397" stroke="none" stroke-width="0" stroke-linecap="butt"/><g data-paper-data="{&quot;index&quot;:null}" stroke="none" stroke-width="0" stroke-linecap="butt"><path d="M237.44188,197.86086c0,0 -0.59489,-2.96021 3.77484,-4.3009c5.03385,-2.1204 5.80434,-1.62267 6.16771,-1.10871c0.92093,1.30255 1.12718,2.83306 1.12718,2.83306c0,0 -0.75199,0.58956 -1.31115,0.97362c-0.23643,0.16237 -1.18186,0.61609 -1.18186,0.61609l-0.1294,-0.40909l-1.38297,0.45116l0.08056,0.58623c0,0 -1.65763,0.56235 -2.38217,0.72897c-3.32957,0.76571 -4.76273,-0.37045 -4.76273,-0.37045z" fill="#e90023"/><path d="M237.49787,197.85576l0.29928,-1.28388l1.86101,0.33489l0.72035,0.99014l-1.05138,1.05271l0.0596,-0.80506l-0.79489,-0.16837l-1.02926,0.2936l-0.06474,-0.41401z" fill="#948a92"/><path d="M244.48901,196.97867c0,0 -0.27845,-1.2306 -0.26723,-2.40391c0.0119,-1.24481 0.45025,-2.29176 0.45025,-2.29176l1.50295,-0.0801l0.17146,1.30169c0,0 -0.36344,0.96312 -0.44195,1.62028c-0.07852,0.65716 -0.00771,1.27982 -0.00771,1.27982z" fill="#deca55"/><path d="M237.5982,198.33155l-0.32387,-0.3002l0.20415,-1.41381l0.87372,-1.51152l2.2564,0.78936l0.81107,1.83433l3.01975,-1.556l0.18639,1.35469l-3.46853,1.51686l-1.94379,-0.09756l0.14828,-1.38908l-1.47667,-0.62263z" fill="#edeeee"/><g><path d="M237.83704,197.70442c0.17824,-0.31872 0.62596,-0.45078 1.04102,-0.257c0.41505,0.19381 0.51096,0.61294 0.33273,0.93169c-0.17824,0.31872 -0.50988,0.38171 -0.97697,0.25456c-0.32813,-0.08932 -0.57499,-0.6105 -0.39676,-0.92924z" fill="#ece09c"/><path d="M238.11825,198.6577c-0.27669,-0.12921 -0.40958,-0.53428 -0.29075,-0.74676c0.11883,-0.21247 0.50225,-0.31447 0.77897,-0.18526c0.24345,0.09841 0.64238,0.40903 0.51367,0.70617c-0.1227,0.28328 -0.65871,0.41665 -1.00189,0.22584z" fill="#000000"/></g><path d="M244.26109,195.29777c0,0 -0.05004,-0.34219 -0.04735,-0.53844c0.00322,-0.23466 0.06537,-0.77499 0.06537,-0.77499l0.65264,2.82266l-0.35999,0.1638c0,0 -0.15566,-0.54133 -0.2069,-0.81726c-0.0523,-0.28166 -0.10375,-0.85578 -0.10375,-0.85578z" fill="#6a2625"/><path d="M248.19333,194.15183l0.16514,0.63998c0,0 -0.97365,0.74524 -1.0979,0.26374c-0.12427,-0.48148 0.93276,-0.90374 0.93276,-0.90374z" fill="#eac763"/><path d="M243.12825,192.69351c-0.03557,-0.51664 0.33122,-1.05723 0.33122,-1.05723c0,0 -0.54579,-0.27003 -0.52666,-0.7666c0.02484,-0.64423 1.22745,-1.07434 1.89108,-1.14329c0.66363,-0.06898 1.44532,0.12464 1.71263,0.5519c0.67385,1.07704 0.07963,1.17069 0.07963,1.17069c0,0 0.62839,-0.03886 0.60181,1.143c-0.01311,0.58236 -1.2043,0.70945 -2.09796,0.73165c-0.89367,0.02221 -1.92398,-0.09623 -1.99173,-0.6301z" fill="#fdfdfd"/></g><g data-paper-data="{&quot;index&quot;:null}"><g fill="#033397" stroke-width="0"><path d="M235.85382,173.13495c-0.14262,-2.93165 2.11833,-5.42386 5.04999,-5.56648c2.93165,-0.14262 5.42385,2.11834 5.56647,5.05c0.14262,2.93165 -2.11833,5.42385 -5.04999,5.56647c-2.93165,0.14262 -5.42385,-2.11833 -5.56647,-5.04999z" stroke="none" stroke-linecap="butt"/><path d="M235.72635,172.32579c0,0 0.25711,-7.17311 8.95014,-8.78092c5.97523,-1.13236 9.97145,2.8249 9.97145,2.8249c0,0 -1.57105,-0.04824 -2.87618,0.38616c-1.07458,0.35766 -2.25939,1.35716 -2.25939,1.35716c0,0 2.74706,1.03975 4.38887,4.03689c1.90564,3.47876 1.53782,6.53584 1.53782,6.53584c0,0 -1.81701,-1.96841 -3.23144,-2.84462c-0.85054,-0.52689 -2.62712,-0.91849 -2.62712,-0.91849c0,0 1.21762,1.8565 1.42009,4.14791c0.23897,2.7043 -0.69066,4.2561 -0.69066,4.2561c0,0 -1.38883,-3.02218 -3.04064,-4.37751c-1.6518,-1.35532 -3.84433,-1.27169 -3.84433,-1.27169" stroke="#000000" stroke-linecap="round"/></g><path d="M241.25329,167.63744c0,0 1.57626,-1.42665 2.71989,-2.19566c1.14365,-0.76901 1.30343,-0.80877 1.56961,-0.66113c0.25899,0.14366 0.25322,1.37423 0.2876,2.2799c0.03438,0.90567 -0.12686,1.95429 -0.12686,1.95429" fill="#033397" stroke="#000000" stroke-width="0.125" stroke-linecap="round"/><path d="M236.04065,171.52161c0,0 -0.92347,-1.51536 -1.22438,-2.28449c-0.26294,-0.67206 -0.77554,-2.0219 -0.4826,-2.0785c0.24446,-0.04724 1.22489,0.33433 1.75534,0.42405c0.57797,0.09777 1.58215,0.14051 1.58215,0.14051" fill="#033397" stroke="#000000" stroke-width="0" stroke-linecap="round"/><path d="M235.94589,171.39339c0,0 0.40342,1.33285 0.74531,2.1541c0.34189,0.82125 0.34584,0.84886 0.66346,1.33821c0.10117,0.1559 0.24411,-0.01933 0.24411,-0.01933c0,0 0.42866,0.52522 0.65628,0.26301c0.7774,-0.45695 0.91288,-2.38859 1.65618,-3.49784c0.75181,-1.12199 1.56213,-1.28848 1.93551,-1.35171c0.3211,-0.05438 1.04543,0.06194 1.49092,0.81334c0.31427,0.64233 0.48065,2.10938 0.07841,2.96499c-0.40224,0.85561 -0.98586,1.82434 -2.20325,2.14488c-1.21738,0.32056 -2.38977,-0.96889 -3.49276,-0.64959c-0.13599,0.03936 -0.84219,0.62892 -0.84219,0.62892c0,0 -0.8146,-1.50546 -1.02015,-2.56175c-0.20556,-1.0563 0.0882,-2.22726 0.0882,-2.22726z" fill="#fdfdfd" stroke="#000000" stroke-width="0" stroke-linecap="butt"/><path d="M236.94458,176.33723c-0.0019,-0.24303 0.23166,-0.76258 1.08042,-0.88124c0.6575,-0.10184 1.68571,0.62781 2.65806,0.61979c1.46097,-0.01205 1.84708,-1.83308 3.51936,-1.44173c1.34577,0.29298 0.84035,3.2601 -3.02754,3.54838c-0.92393,0.0207 -2.21214,-0.29743 -2.96617,-0.6601c-0.91817,-0.44161 -1.26103,-0.79165 -1.26412,-1.18511z" fill="#fec267" stroke="#000000" stroke-width="0" stroke-linecap="butt"/><path d="M235.64573,172.58891c0,0 -0.53981,-1.99332 -0.42229,-2.32014c0.17944,-0.49907 0.96501,0.02222 0.96501,0.02222" fill="#033397" stroke="#000000" stroke-width="0.125" stroke-linecap="round"/><path d="M235.62663,175.36184c0.04097,-0.13878 0.65872,0.1214 1.12882,0.25309c0.47009,0.13169 1.12494,0.17337 1.1363,0.40673c0.01883,0.38698 -0.72519,0.40063 -1.25629,0.29212c-0.84103,-0.17184 -1.14315,-0.49691 -1.00882,-0.95192z" fill="#0d1114" stroke="none" stroke-width="0" stroke-linecap="butt"/><path d="M236.62905,175.57131c0.23169,0.03164 0.41097,0.11989 0.40042,0.19713c-0.01055,0.07723 -0.20693,0.1142 -0.43861,0.08255c-0.23169,-0.03164 -0.41097,-0.11989 -0.40042,-0.19713c0.01055,-0.07723 0.20693,-0.1142 0.43861,-0.08255z" fill="#fdfdfd" stroke="none" stroke-width="0" stroke-linecap="butt"/><path d="M242.31971,167.53607c0,0 1.95299,-1.78173 2.65227,-1.63627c0.48735,0.10138 0.0569,3.10591 0.0569,3.10591c0,0 -0.10931,-0.42709 -1.18737,-0.9094c-0.98557,-0.44092 -1.52179,-0.56025 -1.52179,-0.56025z" fill="#fec267" stroke="none" stroke-width="0" stroke-linecap="butt"/><g stroke="none" stroke-width="0" stroke-linecap="butt"><path d="M239.92,172.34837c0.30741,-0.06345 0.54098,0.52638 0.69679,1.28129c0.15582,0.7549 0.17487,1.389 -0.13255,1.45246c-0.27669,0.0571 -0.54098,-0.52637 -0.69679,-1.28128c-0.15582,-0.7549 -0.14416,-1.39535 0.13255,-1.45246z" fill="#005c2d"/><path d="M240.07854,173.11627c0.11026,-0.02275 0.25075,0.20633 0.31377,0.51169c0.06302,0.30536 0.02472,0.57134 -0.08554,0.5941c-0.11026,0.02275 -0.25075,-0.20633 -0.31377,-0.51168c-0.06302,-0.30536 -0.02472,-0.57135 0.08554,-0.5941z" fill="#000000"/><path d="M240.03413,172.90127c0.11026,-0.02275 0.22947,0.10319 0.26623,0.28132c0.03676,0.17811 -0.02283,0.34096 -0.13309,0.36374c-0.11026,0.02275 -0.22947,-0.10319 -0.26622,-0.28132c-0.03676,-0.17811 0.02282,-0.34096 0.13309,-0.36374z" fill="#ffffff"/></g><g stroke="none" stroke-width="0" stroke-linecap="butt"><path d="M236.21384,173.49909c0.20083,-0.07366 0.41753,0.30045 0.5984,0.79361c0.18087,0.49317 0.25742,0.91866 0.0566,0.99231c-0.18075,0.06629 -0.41753,-0.30045 -0.5984,-0.79361c-0.18087,-0.49317 -0.23736,-0.92603 -0.0566,-0.99231z" fill="#005c2d"/><path d="M236.39784,174.00075c0.07204,-0.02642 0.18974,0.11388 0.26291,0.31337c0.07316,0.19948 0.07408,0.38262 0.00204,0.40903c-0.07204,0.02642 -0.18974,-0.11388 -0.26291,-0.31337c-0.07316,-0.19948 -0.07408,-0.38262 -0.00204,-0.40903z" fill="#000000"/><path d="M236.34634,173.86029c0.07204,-0.02642 0.16502,0.0465 0.20771,0.16287c0.04268,0.11636 0.01888,0.23212 -0.05316,0.25854c-0.07204,0.02642 -0.16502,-0.0465 -0.20771,-0.16286c-0.04268,-0.11636 -0.01888,-0.23212 0.05316,-0.25854z" fill="#ffffff"/></g><path d="M242.73197,177.04762c-0.50928,0.14786 -1.51722,0.17288 -1.51722,0.17288c0,0 0.84447,-0.15493 1.29486,-0.28569c0.45039,-0.13076 0.99033,-0.62539 0.99033,-0.62539c0,0 -0.2587,0.59035 -0.76797,0.7382z" fill="#000000" stroke="#000000" stroke-width="0" stroke-linecap="butt"/><path d="M237.12719,172.51736c0.18623,-0.00906 0.50247,1.29716 0.53101,1.88375c0.02854,0.58659 -0.27968,0.50367 -0.27968,0.50367c0,0 -0.27861,-0.42249 -0.41613,-0.69977c-0.13751,-0.27727 -0.29587,-0.73579 -0.29587,-0.73579c0,0 0.27444,-0.9428 0.46066,-0.95186z" fill="#033397" stroke="none" stroke-width="0" stroke-linecap="butt"/></g><path d="M242.39039,178.46073c0.52974,-0.01838 3.063,0.43958 3.063,0.43958l0.4002,3.95707l-1.02272,-0.00603l-0.3687,-3.06255l-1.97565,-0.24098c0,0 -0.70435,-0.01425 -0.53502,-0.55124c0.16934,-0.53699 -0.09083,-0.51749 0.43891,-0.53587z" data-paper-data="{&quot;index&quot;:null}" fill="#fec267" stroke="none" stroke-width="0" stroke-linecap="butt"/><g data-paper-data="{&quot;index&quot;:null}" fill="#fdfdfd" stroke="none" stroke-width="0" stroke-linecap="butt"><g><path d="M242.99074,186.72808c-0.047,-0.54586 0.42432,-1.13592 0.74544,-1.90923c0.23959,-0.57697 0.95621,-0.85173 1.43714,-0.89313c1.0268,-0.0884 2.10293,0.11038 2.19132,1.13717c0.02918,0.33883 0.15069,1.03354 0.27197,1.69081c0.11967,0.64839 0.07727,1.12329 -0.26483,1.18423c-0.43952,0.07833 -0.53549,-0.24038 -0.53549,-0.24038c0,0 -0.15234,0.37707 -0.36348,0.40918c-0.21118,0.03211 -0.58216,-0.26598 -0.58216,-0.26598c0,0 -0.20513,0.31464 -0.46062,0.35648c-0.25548,0.04183 -0.46037,-0.20413 -0.46037,-0.20413c0,0 -0.13488,0.33253 -0.45911,0.36467c-0.32424,0.03215 -0.43444,-0.34306 -0.43444,-0.34306c0,0 0.01522,0.29458 -0.19393,0.32543c-0.20915,0.03083 -0.04933,0.00447 -0.16948,-0.04072c-0.09897,-0.03721 -0.69725,-1.28399 -0.72198,-1.57129z"/></g><path d="M245.46625,184.24076c-0.3684,0.00415 -1.61784,0.06053 -1.65183,-0.23403c-0.00966,-0.28495 0.29344,-0.58187 0.29344,-0.58187c0,0 -0.41376,-0.15057 -0.38169,-0.42427c0.0416,-0.35512 0.98884,-0.58852 1.50572,-0.62448c0.51687,-0.03597 1.11615,0.07319 1.30856,0.30961c0.48503,0.59589 0.02114,0.64568 0.02114,0.64568c0,0 0.48852,-0.01947 0.42686,0.63202c-0.03037,0.32103 -1.10816,0.27271 -1.52221,0.27739z"/></g></g></g></svg>